<?xml version="1.0" encoding="UTF-8" standalone="no"?>
<!DOCTYPE svg PUBLIC "-//W3C//DTD SVG 1.1//EN" "http://www.w3.org/Graphics/SVG/1.1/DTD/svg11.dtd">
<svg width="100%" height="100%" viewBox="0 0 154 157" version="1.1" xmlns="http://www.w3.org/2000/svg" xmlns:xlink="http://www.w3.org/1999/xlink" xml:space="preserve" xmlns:serif="http://www.serif.com/" style="fill-rule:evenodd;clip-rule:evenodd;stroke-linejoin:round;stroke-miterlimit:2;">
    <g>
        <g transform="matrix(3.74064,0,0,3.74065,-73.9973,-160.902)">
            <path d="M29.12,56.772C27.779,58.856 27,61.337 27,64C27,66.663 27.779,69.144 29.12,71.228L29.12,69.838C28.212,68.091 27.698,66.105 27.698,64C27.698,61.895 28.212,59.909 29.12,58.162L29.12,56.772ZM29.635,70.734L29.635,71.97C29.456,71.729 29.285,71.481 29.12,71.228L29.12,69.838C29.28,70.144 29.453,70.442 29.635,70.734ZM29.635,56.03L29.635,57.266C29.453,57.558 29.28,57.856 29.12,58.162L29.12,56.772C29.285,56.519 29.456,56.271 29.635,56.03ZM29.813,71.009L29.813,72.203C29.754,72.126 29.694,72.048 29.635,71.97L29.635,70.734C29.694,70.826 29.754,70.919 29.813,71.009ZM29.813,55.796L29.813,56.991C29.754,57.081 29.694,57.172 29.635,57.266L29.635,56.03L29.813,55.796ZM30.421,71.846L30.421,72.929C30.21,72.695 30.008,72.452 29.813,72.203L29.813,71.009C30.005,71.298 30.207,71.576 30.421,71.846ZM30.421,55.071L30.421,56.154C30.207,56.424 30.005,56.702 29.813,56.991L29.813,55.796C30.008,55.548 30.21,55.305 30.421,55.071ZM30.704,72.193L30.704,73.237C30.609,73.135 30.514,73.033 30.421,72.929L30.421,71.846C30.512,71.963 30.607,72.079 30.704,72.193ZM30.704,54.764L30.704,55.807C30.607,55.921 30.512,56.037 30.421,56.154L30.421,55.071C30.514,54.967 30.609,54.864 30.704,54.764ZM31.079,72.613L31.079,73.612C30.952,73.489 30.826,73.364 30.704,73.237L30.704,72.193C30.826,72.337 30.95,72.476 31.079,72.613ZM31.079,54.388L31.079,55.387C30.95,55.524 30.826,55.663 30.704,55.807L30.704,54.764C30.826,54.636 30.952,54.511 31.079,54.388ZM31.22,72.765L31.22,73.746C31.173,73.702 31.125,73.656 31.079,73.612L31.079,72.613C31.125,72.664 31.173,72.715 31.22,72.765ZM31.22,54.254L31.22,55.235C31.173,55.285 31.125,55.336 31.079,55.387L31.079,54.388C31.125,54.344 31.173,54.298 31.22,54.254ZM31.239,72.783L31.239,73.763C31.232,73.758 31.225,73.751 31.22,73.746L31.22,72.765C31.225,72.771 31.232,72.777 31.239,72.783ZM31.239,54.237L31.239,55.217C31.232,55.222 31.225,55.229 31.22,55.235L31.22,54.254C31.225,54.249 31.232,54.242 31.239,54.237ZM31.256,72.8L31.256,73.778C31.249,73.773 31.244,73.768 31.239,73.763L31.239,72.783C31.244,72.79 31.249,72.795 31.256,72.8ZM31.256,54.222L31.256,55.2C31.249,55.205 31.244,55.21 31.239,55.217L31.239,54.237C31.244,54.232 31.249,54.227 31.256,54.222ZM31.37,72.919L31.37,73.887C31.332,73.851 31.293,73.814 31.256,73.778L31.256,72.8C31.293,72.841 31.332,72.88 31.37,72.919ZM31.37,54.113L31.37,55.081C31.332,55.12 31.293,55.159 31.256,55.2L31.256,54.222C31.293,54.186 31.332,54.149 31.37,54.113ZM31.421,72.97L31.421,73.931C31.404,73.916 31.387,73.902 31.37,73.887L31.37,72.919C31.387,72.936 31.404,72.953 31.421,72.97ZM31.421,54.069L31.421,55.03C31.404,55.047 31.387,55.064 31.37,55.081L31.37,54.113C31.387,54.098 31.404,54.084 31.421,54.069ZM32.044,73.551L32.044,74.459C31.83,74.289 31.623,74.113 31.421,73.931L31.421,72.97C31.621,73.17 31.83,73.364 32.044,73.551ZM32.044,53.541L32.044,54.449C31.83,54.636 31.621,54.83 31.421,55.03L31.421,54.069C31.623,53.887 31.83,53.711 32.044,53.541ZM33.668,74.754L33.668,75.569C33.098,75.238 32.554,74.866 32.044,74.459L32.044,73.551C32.551,73.992 33.094,74.394 33.668,74.754ZM33.668,52.431L33.668,53.246C33.094,53.604 32.551,54.008 32.044,54.449L32.044,53.541C32.554,53.134 33.098,52.762 33.668,52.431ZM33.884,74.887L33.884,75.691C33.812,75.65 33.739,75.61 33.668,75.569L33.668,74.754C33.739,74.798 33.812,74.842 33.884,74.887ZM33.884,52.309L33.884,53.113C33.812,53.158 33.739,53.202 33.668,53.246L33.668,52.431C33.739,52.39 33.812,52.35 33.884,52.309ZM34.658,75.311L34.658,76.088C34.395,75.965 34.137,75.832 33.884,75.691L33.884,74.887C34.137,75.036 34.395,75.179 34.658,75.311ZM34.658,51.911L34.658,52.689C34.395,52.821 34.137,52.964 33.884,53.113L33.884,52.309C34.137,52.168 34.395,52.035 34.658,51.911ZM34.755,75.36L34.755,76.134C34.722,76.119 34.69,76.104 34.658,76.088L34.658,75.311C34.69,75.328 34.722,75.343 34.755,75.36ZM34.755,51.866L34.755,52.64C34.722,52.657 34.69,52.672 34.658,52.689L34.658,51.911C34.69,51.896 34.722,51.881 34.755,51.866ZM36.189,75.963L36.189,76.7C35.698,76.538 35.22,76.35 34.755,76.134L34.755,75.36C35.218,75.589 35.697,75.791 36.189,75.963ZM36.189,51.3L36.189,52.037C35.697,52.209 35.218,52.411 34.755,52.64L34.755,51.866C35.22,51.65 35.698,51.462 36.189,51.3ZM37.683,76.382L37.683,77.097C37.173,76.993 36.676,76.859 36.189,76.7L36.189,75.963C36.675,76.132 37.172,76.272 37.683,76.382ZM37.683,50.903L37.683,51.618C37.172,51.727 36.675,51.867 36.189,52.037L36.189,51.3C36.676,51.141 37.173,51.007 37.683,50.903ZM38.43,76.521L38.43,77.226C38.179,77.19 37.929,77.148 37.683,77.097L37.683,76.382C37.929,76.437 38.179,76.482 38.43,76.521ZM38.43,50.774L38.43,51.479C38.179,51.518 37.929,51.564 37.683,51.618L37.683,50.903C37.929,50.852 38.179,50.81 38.43,50.774ZM39.17,76.611L39.17,77.312C38.92,77.29 38.674,77.262 38.43,77.226L38.43,76.521C38.674,76.559 38.92,76.589 39.17,76.611ZM39.17,50.688L39.17,51.389C38.92,51.411 38.674,51.441 38.43,51.479L38.43,50.774C38.674,50.739 38.92,50.71 39.17,50.688ZM39.908,76.659L39.908,77.358C39.661,77.35 39.414,77.334 39.17,77.312L39.17,76.611C39.414,76.635 39.661,76.65 39.908,76.659ZM39.908,50.642L39.908,51.341C39.661,51.35 39.414,51.365 39.17,51.389L39.17,50.688C39.414,50.666 39.661,50.65 39.908,50.642ZM40.852,76.659L40.852,77.357C40.691,77.363 40.53,77.367 40.367,77.367C40.214,77.367 40.061,77.363 39.908,77.358L39.908,76.659C40.061,76.666 40.214,76.669 40.367,76.669C40.53,76.669 40.691,76.664 40.852,76.659ZM40.852,50.644L40.852,51.341C40.691,51.336 40.53,51.331 40.367,51.331C40.214,51.331 40.061,51.334 39.908,51.341L39.908,50.642C40.061,50.637 40.214,50.633 40.367,50.633C40.53,50.633 40.691,50.637 40.852,50.644ZM41.774,76.591L41.774,77.294C41.47,77.324 41.161,77.346 40.852,77.357L40.852,76.659C41.163,76.647 41.47,76.623 41.774,76.591ZM41.774,50.706L41.774,51.409C41.47,51.375 41.163,51.353 40.852,51.341L40.852,50.644C41.161,50.654 41.47,50.676 41.774,50.706ZM42.344,76.515L42.344,77.221C42.156,77.25 41.966,77.273 41.774,77.294L41.774,76.591C41.966,76.569 42.156,76.543 42.344,76.515ZM42.344,50.779L42.344,51.485C42.156,51.457 41.966,51.431 41.774,51.409L41.774,50.706C41.966,50.727 42.156,50.751 42.344,50.779ZM42.881,76.418L42.881,77.129C42.704,77.163 42.524,77.193 42.344,77.221L42.344,76.515C42.524,76.486 42.704,76.455 42.881,76.418ZM42.881,50.871L42.881,51.581C42.704,51.545 42.524,51.514 42.344,51.485L42.344,50.779C42.524,50.806 42.704,50.837 42.881,50.871ZM42.915,76.413L42.915,77.122C42.905,77.126 42.893,77.127 42.881,77.129L42.881,76.418C42.893,76.416 42.905,76.414 42.915,76.413ZM42.915,50.878L42.915,51.587C42.905,51.586 42.893,51.584 42.881,51.581L42.881,50.871C42.893,50.873 42.905,50.874 42.915,50.878ZM43.721,76.219L43.721,76.942C43.455,77.01 43.186,77.071 42.915,77.122L42.915,76.413C43.186,76.357 43.455,76.292 43.721,76.219ZM43.721,51.058L43.721,51.781C43.455,51.708 43.186,51.643 42.915,51.587L42.915,50.878C43.186,50.929 43.455,50.99 43.721,51.058ZM46.322,75.184L46.322,75.97C45.498,76.379 44.629,76.708 43.721,76.942L43.721,76.219C44.633,75.97 45.504,75.62 46.322,75.184ZM46.322,52.03L46.322,52.816C45.504,52.38 44.633,52.03 43.721,51.781L43.721,51.058C44.629,51.292 45.498,51.621 46.322,52.03ZM46.783,74.924L46.783,75.727C46.633,75.812 46.478,75.891 46.322,75.97L46.322,75.184C46.478,75.101 46.633,75.014 46.783,74.924ZM46.783,52.272L46.783,53.076C46.633,52.986 46.478,52.9 46.322,52.816L46.322,52.03C46.478,52.108 46.633,52.188 46.783,52.272ZM47.697,74.333L47.697,75.179C47.402,75.372 47.096,75.557 46.783,75.727L46.783,74.924C47.098,74.741 47.403,74.544 47.697,74.333ZM47.697,52.821L47.697,53.667C47.403,53.456 47.098,53.26 46.783,53.076L46.783,52.272C47.096,52.443 47.402,52.628 47.697,52.821ZM48.709,73.534L48.709,74.443C48.384,74.703 48.047,74.949 47.697,75.179L47.697,74.333C48.048,74.084 48.386,73.817 48.709,73.534ZM48.709,53.557L48.709,54.466C48.386,54.183 48.048,53.916 47.697,53.667L47.697,52.821C48.047,53.051 48.384,53.297 48.709,53.557ZM48.968,73.301L48.968,74.231C48.882,74.303 48.797,74.374 48.709,74.443L48.709,73.534C48.797,73.457 48.882,73.379 48.968,73.301ZM48.968,53.769L48.968,54.699C48.882,54.621 48.797,54.543 48.709,54.466L48.709,53.557C48.797,53.626 48.882,53.697 48.968,53.769ZM49.447,72.833L49.447,73.809C49.291,73.953 49.131,74.094 48.968,74.231L48.968,73.301C49.131,73.148 49.291,72.992 49.447,72.833ZM49.447,54.191L49.447,55.168C49.291,55.006 49.131,54.852 48.968,54.699L48.968,53.769C49.131,53.906 49.291,54.047 49.447,54.191ZM49.591,72.683L49.591,73.675C49.544,73.719 49.495,73.763 49.447,73.809L49.447,72.833C49.496,72.783 49.544,72.734 49.591,72.683ZM49.591,54.326L49.591,55.317C49.544,55.266 49.496,55.217 49.447,55.168L49.447,54.191C49.495,54.237 49.544,54.281 49.591,54.326ZM49.934,72.303L49.934,73.333C49.822,73.449 49.708,73.562 49.591,73.675L49.591,72.683C49.708,72.559 49.822,72.432 49.934,72.303ZM49.934,54.667L49.934,55.696C49.822,55.566 49.708,55.441 49.591,55.317L49.591,54.326C49.708,54.438 49.822,54.551 49.934,54.667ZM50.652,71.396L50.652,72.537C50.423,72.812 50.184,73.077 49.934,73.333L49.934,72.303C50.187,72.013 50.427,71.71 50.652,71.396ZM50.652,55.463L50.652,56.604C50.427,56.29 50.187,55.987 49.934,55.696L49.934,54.667C50.184,54.923 50.423,55.188 50.652,55.463ZM50.652,72.537L50.652,71.396C52.151,69.315 53.036,66.762 53.036,64C53.036,61.238 52.151,58.685 50.652,56.604L50.652,55.463C52.576,57.778 53.733,60.754 53.733,64C53.733,67.246 52.576,70.222 50.652,72.537Z" style="fill:rgb(26,90,169);"/>
        </g>
        <g transform="matrix(3.74064,0,0,3.74065,-73.9973,-160.902)">
            <path d="M51.904,65.881L51.342,65.796L50.512,66.054L50.549,65.811L51.114,65.65L50.622,65.332L50.659,65.093L51.376,65.589L51.936,65.675L51.904,65.881ZM51.624,67.155L50.541,66.862L50.46,67.16L50.24,67.101L50.455,66.303L50.676,66.363L50.595,66.66L51.679,66.952L51.624,67.155ZM51.342,68.027L50.071,67.573L50.141,67.375L51.413,67.829L51.342,68.027ZM50.433,69.043L50.494,68.846C50.581,68.872 50.65,68.876 50.704,68.859C50.757,68.842 50.797,68.805 50.824,68.747C50.852,68.685 50.856,68.631 50.836,68.584C50.817,68.538 50.784,68.504 50.739,68.484C50.71,68.47 50.682,68.466 50.656,68.47C50.629,68.473 50.601,68.488 50.571,68.514C50.551,68.532 50.51,68.575 50.448,68.643C50.368,68.73 50.295,68.784 50.228,68.803C50.135,68.831 50.039,68.822 49.942,68.778C49.879,68.75 49.827,68.709 49.785,68.657C49.742,68.605 49.719,68.547 49.714,68.482C49.709,68.418 49.722,68.35 49.756,68.277C49.81,68.158 49.884,68.084 49.979,68.055C50.074,68.025 50.179,68.035 50.293,68.083L50.217,68.279C50.15,68.259 50.097,68.255 50.057,68.27C50.017,68.284 49.985,68.318 49.96,68.372C49.935,68.428 49.93,68.478 49.945,68.523C49.955,68.551 49.976,68.573 50.008,68.588C50.037,68.601 50.066,68.603 50.095,68.593C50.133,68.581 50.187,68.535 50.257,68.455C50.328,68.375 50.389,68.319 50.44,68.289C50.49,68.258 50.548,68.242 50.612,68.241C50.676,68.24 50.747,68.257 50.825,68.292C50.895,68.324 50.954,68.369 51.002,68.427C51.05,68.485 51.077,68.549 51.081,68.617C51.086,68.686 51.07,68.762 51.032,68.844C50.978,68.964 50.901,69.039 50.8,69.071C50.699,69.102 50.576,69.093 50.433,69.043ZM49.574,69.857L49.655,69.724C49.707,69.638 49.735,69.582 49.739,69.554C49.743,69.527 49.737,69.501 49.721,69.474C49.705,69.448 49.68,69.425 49.646,69.403C49.607,69.38 49.571,69.369 49.537,69.37C49.504,69.371 49.475,69.385 49.451,69.41C49.439,69.423 49.411,69.465 49.367,69.538L49.282,69.678L49.574,69.857ZM50.129,70.442L48.977,69.738L49.207,69.361C49.265,69.266 49.318,69.204 49.365,69.173C49.411,69.143 49.469,69.131 49.538,69.138C49.607,69.144 49.675,69.168 49.743,69.21C49.83,69.263 49.889,69.326 49.922,69.399C49.954,69.473 49.954,69.553 49.921,69.64C49.974,69.619 50.026,69.607 50.076,69.603C50.127,69.599 50.21,69.603 50.326,69.615L50.616,69.644L50.486,69.858L50.156,69.835C50.038,69.826 49.963,69.823 49.929,69.826C49.895,69.828 49.868,69.837 49.848,69.85C49.828,69.864 49.805,69.891 49.78,69.933L49.758,69.969L50.239,70.263L50.129,70.442ZM49.301,71.545L48.242,70.707L48.721,70.103L48.9,70.245L48.552,70.684L48.787,70.87L49.11,70.461L49.289,70.602L48.965,71.011L49.253,71.239L49.613,70.784L49.792,70.925L49.301,71.545ZM48.551,72.345L47.334,71.653L47.495,71.492L48.387,72.013L47.861,71.126L48.018,70.969L48.71,72.187L48.551,72.345ZM47.842,72.986L46.969,71.956L47.129,71.82L48.002,72.85L47.842,72.986ZM46.769,73.789L45.99,72.686L46.156,72.568L47.024,73.059L46.504,72.323L46.663,72.21L47.442,73.312L47.27,73.434L46.42,72.957L46.928,73.676L46.769,73.789ZM44.849,73.328L45.034,73.229L45.377,73.874C45.432,73.977 45.47,74.042 45.49,74.07C45.524,74.114 45.564,74.144 45.609,74.157C45.655,74.171 45.704,74.164 45.756,74.136C45.808,74.108 45.84,74.073 45.852,74.031C45.864,73.989 45.862,73.946 45.846,73.903C45.829,73.859 45.796,73.79 45.746,73.696L45.395,73.037L45.58,72.938L45.914,73.564C45.99,73.707 46.039,73.811 46.06,73.875C46.081,73.94 46.089,73.999 46.084,74.054C46.079,74.109 46.06,74.161 46.028,74.209C45.996,74.257 45.943,74.3 45.871,74.339C45.783,74.386 45.71,74.408 45.65,74.406C45.591,74.404 45.537,74.388 45.489,74.36C45.44,74.333 45.399,74.298 45.366,74.256C45.318,74.194 45.258,74.097 45.187,73.963L44.849,73.328ZM42.713,74.945L42.665,74.722L43.108,74.629L43.219,75.155C43.188,75.218 43.135,75.279 43.063,75.337C42.99,75.396 42.911,75.434 42.827,75.452C42.721,75.474 42.622,75.465 42.531,75.423C42.439,75.382 42.363,75.312 42.3,75.212C42.237,75.113 42.193,75 42.166,74.873C42.137,74.735 42.133,74.608 42.155,74.492C42.177,74.376 42.225,74.28 42.298,74.205C42.354,74.147 42.431,74.108 42.528,74.088C42.654,74.061 42.76,74.075 42.846,74.128C42.931,74.182 42.997,74.268 43.043,74.385L42.849,74.477C42.821,74.416 42.783,74.37 42.736,74.341C42.689,74.312 42.635,74.303 42.576,74.316C42.486,74.335 42.423,74.387 42.385,74.472C42.348,74.557 42.345,74.672 42.375,74.818C42.408,74.974 42.46,75.086 42.53,75.153C42.601,75.22 42.679,75.245 42.766,75.226C42.809,75.217 42.85,75.197 42.889,75.166C42.927,75.135 42.959,75.101 42.983,75.063L42.948,74.895L42.713,74.945ZM40.862,75.685L40.758,74.339L40.962,74.323L41.455,75.189L41.386,74.29L41.58,74.275L41.684,75.622L41.474,75.638L40.989,74.792L41.056,75.67L40.862,75.685ZM39.503,74.982C39.495,75.135 39.516,75.252 39.567,75.334C39.617,75.415 39.684,75.458 39.767,75.462C39.851,75.467 39.922,75.431 39.979,75.356C40.037,75.28 40.07,75.165 40.078,75.008C40.086,74.854 40.066,74.737 40.017,74.658C39.969,74.58 39.902,74.538 39.816,74.534C39.729,74.529 39.658,74.564 39.601,74.638C39.544,74.712 39.511,74.827 39.503,74.982ZM39.287,74.98C39.294,74.843 39.316,74.728 39.352,74.637C39.379,74.569 39.415,74.509 39.458,74.457C39.502,74.404 39.549,74.366 39.599,74.342C39.665,74.31 39.741,74.296 39.826,74.301C39.978,74.309 40.098,74.377 40.183,74.504C40.269,74.632 40.306,74.806 40.294,75.026C40.283,75.244 40.228,75.412 40.131,75.53C40.033,75.648 39.908,75.703 39.756,75.695C39.602,75.687 39.482,75.62 39.397,75.493C39.312,75.365 39.276,75.195 39.287,74.98ZM38.279,75.502L38.469,74.396L38.165,74.344L38.203,74.119L39.018,74.259L38.979,74.484L38.676,74.432L38.486,75.538L38.279,75.502ZM36.921,74.466C36.877,74.612 36.869,74.731 36.899,74.822C36.928,74.913 36.983,74.971 37.063,74.995C37.143,75.019 37.22,75.001 37.294,74.942C37.368,74.882 37.428,74.777 37.473,74.628C37.517,74.479 37.525,74.361 37.497,74.273C37.469,74.185 37.414,74.129 37.331,74.104C37.248,74.079 37.17,74.096 37.097,74.155C37.024,74.213 36.965,74.317 36.921,74.466ZM36.711,74.412C36.751,74.28 36.799,74.174 36.856,74.094C36.899,74.035 36.947,73.985 37.002,73.945C37.057,73.904 37.112,73.878 37.166,73.867C37.238,73.851 37.315,73.856 37.396,73.88C37.542,73.924 37.642,74.019 37.695,74.163C37.747,74.308 37.742,74.486 37.679,74.696C37.616,74.905 37.523,75.055 37.4,75.147C37.277,75.238 37.143,75.262 36.997,75.218C36.849,75.174 36.748,75.08 36.697,74.936C36.644,74.793 36.649,74.618 36.711,74.412ZM35.904,74.226L35.98,73.71L35.646,74.109L35.904,74.226ZM36.037,74.871L35.829,74.777L35.872,74.46L35.493,74.29L35.289,74.534L35.086,74.442L36.01,73.378L36.213,73.469L36.037,74.871ZM34.558,74.144L35.219,72.967L35.402,73.07L34.741,74.247L34.558,74.144ZM34.725,72.664L34.899,72.78L34.427,73.492C34.365,73.585 34.311,73.652 34.265,73.694C34.205,73.748 34.139,73.781 34.068,73.791C33.998,73.801 33.926,73.782 33.853,73.733C33.767,73.677 33.722,73.602 33.717,73.509C33.712,73.417 33.75,73.31 33.829,73.189L34.01,73.274C33.969,73.34 33.946,73.39 33.941,73.425C33.933,73.478 33.949,73.517 33.987,73.543C34.026,73.569 34.064,73.573 34.099,73.555C34.134,73.537 34.182,73.482 34.243,73.391L34.725,72.664ZM31.976,71.406L32.147,71.256L32.446,71.596L32.042,71.951C31.971,71.954 31.893,71.939 31.806,71.904C31.719,71.869 31.648,71.819 31.591,71.755C31.519,71.673 31.479,71.583 31.47,71.483C31.461,71.383 31.485,71.281 31.541,71.178C31.597,71.075 31.673,70.98 31.77,70.895C31.876,70.802 31.985,70.737 32.097,70.698C32.209,70.66 32.316,70.655 32.417,70.682C32.495,70.703 32.567,70.75 32.632,70.825C32.717,70.921 32.758,71.02 32.753,71.121C32.748,71.222 32.706,71.321 32.626,71.419L32.45,71.296C32.491,71.241 32.512,71.186 32.514,71.13C32.516,71.075 32.497,71.024 32.457,70.978C32.397,70.909 32.32,70.88 32.228,70.889C32.135,70.898 32.033,70.952 31.922,71.05C31.801,71.156 31.729,71.256 31.705,71.35C31.681,71.444 31.699,71.524 31.757,71.591C31.786,71.624 31.824,71.65 31.87,71.668C31.916,71.687 31.961,71.697 32.006,71.7L32.135,71.587L31.976,71.406ZM30.424,70.161L31.546,69.409L31.659,69.578L31.148,70.434L31.896,69.932L32.005,70.094L30.884,70.846L30.767,70.671L31.264,69.833L30.533,70.323L30.424,70.161ZM30.073,69.541L31.256,68.89L31.357,69.074L30.174,69.725L30.073,69.541ZM30.996,68.371L31.083,68.561L30.306,68.917C30.204,68.964 30.123,68.993 30.062,69.004C29.982,69.018 29.91,69.011 29.844,68.982C29.778,68.954 29.728,68.899 29.691,68.82C29.648,68.727 29.649,68.639 29.694,68.558C29.739,68.477 29.827,68.406 29.958,68.345L30.067,68.513C29.998,68.547 29.952,68.578 29.929,68.605C29.894,68.646 29.887,68.687 29.906,68.729C29.925,68.772 29.955,68.795 29.994,68.798C30.034,68.801 30.104,68.78 30.203,68.734L30.996,68.371ZM29.372,67.973L30.637,67.503L30.711,67.7L29.445,68.17L29.372,67.973ZM29.005,66.777L30.306,66.415L30.513,67.157L30.293,67.219L30.142,66.678L29.854,66.759L29.994,67.261L29.775,67.323L29.634,66.82L29.28,66.918L29.436,67.478L29.217,67.539L29.005,66.777ZM29.892,65.38L29.583,65.427L29.603,65.563C29.616,65.644 29.625,65.694 29.631,65.713C29.642,65.748 29.662,65.773 29.691,65.79C29.721,65.806 29.757,65.811 29.8,65.805C29.841,65.798 29.874,65.784 29.897,65.763C29.92,65.742 29.932,65.713 29.932,65.678C29.932,65.657 29.924,65.597 29.91,65.5L29.892,65.38ZM29.361,65.46L29.004,65.514L29.033,65.707C29.044,65.781 29.054,65.828 29.062,65.848C29.074,65.877 29.096,65.9 29.127,65.915C29.158,65.93 29.197,65.934 29.245,65.927C29.285,65.921 29.318,65.908 29.343,65.889C29.369,65.87 29.386,65.845 29.395,65.815C29.403,65.785 29.4,65.723 29.386,65.628L29.361,65.46ZM30.083,65.139L30.145,65.55C30.157,65.632 30.162,65.693 30.159,65.734C30.156,65.776 30.143,65.814 30.12,65.85C30.097,65.886 30.063,65.918 30.02,65.946C29.977,65.974 29.926,65.992 29.869,66.001C29.806,66.01 29.747,66.006 29.691,65.988C29.635,65.97 29.59,65.94 29.557,65.9C29.543,65.966 29.51,66.02 29.458,66.063C29.406,66.105 29.341,66.132 29.264,66.144C29.204,66.153 29.143,66.151 29.082,66.138C29.022,66.125 28.971,66.102 28.931,66.069C28.891,66.037 28.863,65.994 28.847,65.94C28.837,65.906 28.821,65.823 28.8,65.691L28.747,65.341L30.083,65.139Z" style="fill:rgb(26,90,169);"/>
        </g>
        <g transform="matrix(3.74064,0,0,3.74065,-73.9973,-160.902)">
            <path d="M48.709,59.113L48.709,59.498C48.668,59.401 48.658,59.187 48.651,59.16C48.622,59.04 48.575,58.946 48.573,58.81L48.585,58.8C48.588,58.804 48.592,58.8 48.598,58.809C48.608,58.821 48.651,59.053 48.68,59.089C48.685,59.096 48.699,59.104 48.709,59.113ZM48.968,59.303L48.968,59.473C48.953,59.484 48.933,59.5 48.906,59.522C48.839,59.547 48.778,59.593 48.726,59.53C48.721,59.522 48.714,59.512 48.709,59.498L48.709,59.113C48.714,59.118 48.717,59.121 48.719,59.123C48.727,59.131 48.749,59.223 48.756,59.231L48.802,59.291C48.811,59.299 48.817,59.337 48.824,59.345C48.844,59.371 48.88,59.374 48.904,59.355C48.913,59.349 48.923,59.33 48.931,59.323C48.934,59.32 48.95,59.313 48.968,59.303ZM48.968,58.659L48.968,58.8C48.933,58.785 48.907,58.771 48.899,58.761C48.848,58.698 48.894,58.641 48.924,58.554C48.931,58.556 48.941,58.551 48.948,58.559C48.955,58.568 48.953,58.627 48.968,58.659ZM48.968,58.21L48.968,58.279L48.946,58.252C48.948,58.242 48.957,58.226 48.968,58.21ZM49.447,59.099L49.447,59.123L49.44,59.114L49.442,59.101C49.444,59.099 49.445,59.099 49.447,59.099ZM49.447,58.928C49.442,58.923 49.437,58.919 49.432,58.916C49.349,58.9 49.206,58.809 49.101,58.744C49.035,58.704 48.979,58.676 48.975,58.671C48.972,58.668 48.97,58.664 48.968,58.659L48.968,58.8C49.038,58.831 49.143,58.868 49.228,58.899C49.284,58.933 49.345,58.946 49.355,58.958C49.364,58.97 49.369,59.004 49.347,59.023L49.043,59.267C49.038,59.271 48.999,59.289 48.968,59.303L48.968,59.473C49.009,59.44 49.011,59.439 49.011,59.439C49.023,59.432 49.036,59.427 49.045,59.42C49.053,59.413 49.082,59.367 49.091,59.361L49.147,59.316C49.155,59.308 49.255,59.182 49.264,59.175L49.315,59.135C49.323,59.128 49.408,58.996 49.417,58.989C49.425,58.984 49.435,58.984 49.447,58.989L49.447,58.928ZM49.447,58.597L49.447,58.664C49.427,58.649 49.411,58.637 49.406,58.631C49.388,58.609 49.376,58.552 49.4,58.51C49.408,58.552 49.425,58.568 49.439,58.586C49.442,58.59 49.445,58.593 49.447,58.597ZM49.447,58.333C49.264,58.283 49.055,58.237 49.05,58.232C49.04,58.218 49.05,58.196 49.06,58.187C49.099,58.157 49.179,58.147 49.238,58.123C49.162,58.097 49.053,58.125 49.002,58.165C49.002,58.165 48.984,58.187 48.968,58.21L48.968,58.279L48.984,58.298C48.99,58.306 49.14,58.31 49.209,58.323C49.259,58.333 49.349,58.356 49.394,58.369C49.411,58.376 49.428,58.379 49.447,58.383L49.447,58.333ZM49.447,58.121L49.447,58.148C49.383,58.145 49.318,58.137 49.303,58.133C49.303,58.133 49.3,58.128 49.301,58.12C49.35,58.121 49.398,58.121 49.447,58.121ZM49.591,59.045L49.591,59.218C49.578,59.203 49.554,59.179 49.537,59.165C49.515,59.147 49.459,59.138 49.452,59.13L49.447,59.123L49.447,59.099C49.468,59.099 49.52,59.13 49.544,59.111C49.559,59.097 49.549,59.079 49.542,59.069C49.535,59.063 49.486,59.006 49.447,58.989L49.447,58.928C49.49,58.963 49.539,59.011 49.591,59.045ZM49.591,58.831L49.591,58.884C49.551,58.872 49.512,58.86 49.486,58.858C49.483,58.853 49.479,58.841 49.481,58.834C49.508,58.831 49.559,58.839 49.591,58.831ZM49.591,58.707L49.591,58.754C49.554,58.732 49.49,58.693 49.447,58.664L49.447,58.597C49.472,58.625 49.498,58.639 49.527,58.661C49.541,58.671 49.556,58.692 49.569,58.7C49.578,58.705 49.585,58.705 49.591,58.707ZM49.591,58.376L49.591,58.41C49.546,58.4 49.495,58.393 49.447,58.383L49.447,58.333C49.5,58.347 49.549,58.362 49.591,58.376ZM49.591,58.121L49.591,58.143C49.59,58.145 49.588,58.147 49.586,58.147C49.578,58.153 49.513,58.153 49.447,58.148L49.447,58.121C49.495,58.121 49.542,58.12 49.59,58.118C49.59,58.12 49.59,58.12 49.591,58.121ZM49.591,58.121L49.591,58.143C49.595,58.137 49.595,58.126 49.591,58.121ZM49.591,58.884C49.675,58.909 49.77,58.939 49.793,58.921C49.795,58.919 49.802,58.911 49.797,58.894C49.793,58.884 49.777,58.868 49.773,58.855C49.763,58.829 49.753,58.805 49.748,58.797C49.727,58.773 49.714,58.787 49.664,58.756C49.644,58.746 49.619,58.722 49.602,58.712C49.598,58.709 49.595,58.707 49.591,58.707L49.591,58.754C49.607,58.765 49.617,58.771 49.619,58.773C49.625,58.782 49.624,58.81 49.607,58.824C49.603,58.827 49.598,58.829 49.591,58.831L49.591,58.884ZM49.591,59.218L49.591,59.045C49.636,59.074 49.685,59.094 49.737,59.087C49.751,59.086 49.805,59.118 49.812,59.126C49.821,59.138 49.838,59.198 49.849,59.253C49.853,59.272 49.866,59.289 49.868,59.306C49.873,59.34 49.865,59.367 49.856,59.374C49.824,59.401 49.758,59.325 49.744,59.321C49.702,59.31 49.649,59.303 49.632,59.282C49.625,59.274 49.608,59.238 49.602,59.23C49.6,59.228 49.596,59.223 49.591,59.218ZM49.934,58.763L49.934,58.802C49.904,58.783 49.809,58.739 49.804,58.732L49.788,58.714C49.79,58.707 49.787,58.709 49.795,58.702C49.81,58.688 49.873,58.736 49.878,58.739C49.899,58.746 49.917,58.754 49.934,58.763ZM49.934,58.54L49.934,58.576C49.861,58.536 49.732,58.474 49.722,58.466C49.69,58.437 49.644,58.422 49.591,58.41L49.591,58.376C49.614,58.384 49.636,58.391 49.653,58.4C49.719,58.425 49.793,58.452 49.853,58.485C49.872,58.493 49.902,58.522 49.934,58.54ZM49.934,58.192L49.934,58.254C49.86,58.25 49.773,58.249 49.754,58.245L49.743,58.23C49.744,58.223 49.739,58.22 49.748,58.213C49.749,58.211 49.846,58.201 49.934,58.192ZM49.934,57.653L49.934,57.724C49.917,57.816 49.885,57.975 49.851,58.002C49.821,58.028 49.761,58.053 49.739,58.025C49.725,58.009 49.721,57.926 49.743,57.907L49.792,57.867C49.822,57.843 49.916,57.688 49.934,57.653ZM49.934,57.724L49.934,57.653C49.936,57.651 49.938,57.649 49.938,57.648L49.948,57.661C49.946,57.666 49.941,57.692 49.934,57.724ZM50.652,58.128C50.6,58.103 50.562,58.08 50.554,58.07C50.523,58.033 50.559,57.977 50.549,57.965C50.542,57.957 50.532,57.957 50.525,57.948C50.517,57.94 50.513,57.919 50.506,57.911C50.5,57.902 50.495,57.904 50.486,57.904C50.484,57.923 50.484,57.979 50.481,58.006L50.391,58.079C50.372,58.094 50.177,58.164 50.157,58.138C50.143,58.123 50.131,58.091 50.141,58.074C50.213,57.96 50.432,57.605 50.367,57.525C50.361,57.517 50.355,57.519 50.347,57.517C50.333,57.546 50.201,57.821 50.164,57.85C50.155,57.856 50.143,57.855 50.133,57.862C50.125,57.868 50.121,57.896 50.113,57.902L50.035,57.963C50.013,57.982 49.989,58.016 50.016,58.05C50.023,58.06 50.079,58.086 50.087,58.094C50.099,58.111 50.104,58.155 50.075,58.177C50.075,58.177 50.009,58.186 49.934,58.192L49.934,58.254C49.992,58.255 50.041,58.261 50.046,58.267C50.057,58.277 50.057,58.323 50.063,58.356C50.068,58.378 50.082,58.389 50.089,58.405C50.101,58.435 50.033,58.534 50.019,58.544C49.994,58.564 49.963,58.556 49.934,58.54L49.934,58.576C49.961,58.592 49.98,58.603 49.985,58.609C49.992,58.617 50.004,58.646 50.011,58.654C50.041,58.693 50.092,58.729 50.145,58.727C50.165,58.727 50.199,58.714 50.214,58.732C50.281,58.812 50.382,58.884 50.449,58.965C50.45,58.967 50.513,59.023 50.478,59.051C50.418,59.099 50.158,58.899 50.145,58.887C50.08,58.841 50.011,58.8 49.934,58.763L49.934,58.802C49.939,58.805 49.943,58.807 49.944,58.809L49.989,58.863C49.995,58.872 50.045,58.904 50.051,58.912L50.14,59.023C50.197,59.092 50.381,59.167 50.484,59.172C50.525,59.174 50.581,59.193 50.608,59.17C50.639,59.147 50.652,59.104 50.617,59.06C50.61,59.051 50.596,59.048 50.588,59.04L50.529,58.963C50.517,58.95 50.398,58.873 50.398,58.872L50.362,58.827C50.355,58.819 50.294,58.773 50.288,58.765C50.286,58.761 50.27,58.743 50.289,58.727C50.321,58.702 50.513,58.688 50.652,58.683L50.652,58.627C50.405,58.658 50.14,58.675 50.097,58.622C50.06,58.575 50.118,58.454 50.138,58.437C50.214,58.376 50.493,58.61 50.585,58.536C50.613,58.513 50.635,58.461 50.652,58.405L50.652,58.277C50.63,58.344 50.586,58.415 50.564,58.432C50.542,58.451 50.472,58.472 50.442,58.471C50.427,58.469 50.209,58.41 50.187,58.383C50.172,58.364 50.152,58.283 50.177,58.262C50.24,58.211 50.476,58.291 50.529,58.249C50.578,58.21 50.554,58.158 50.579,58.138C50.603,58.12 50.647,58.165 50.649,58.169C50.651,58.169 50.652,58.17 50.652,58.172L50.652,58.128ZM50.652,57.985L50.652,58.014C50.637,58.006 50.624,57.999 50.61,57.99C50.61,57.99 50.607,57.985 50.608,57.977C50.618,57.982 50.634,57.984 50.652,57.985ZM50.652,58.014C50.725,58.05 50.81,58.079 50.883,58.111C50.922,58.128 50.96,58.167 51.002,58.176C51.067,58.186 51.097,58.174 51.133,58.145C51.219,58.075 51.175,57.882 51.175,57.789C51.167,57.787 51.169,57.785 51.16,57.792C51.158,57.794 51.126,57.887 51.109,57.902C51.046,57.951 50.771,57.992 50.652,57.985L50.652,58.014ZM50.652,58.683C50.727,58.68 50.786,58.678 50.798,58.68C50.999,58.688 51.116,58.761 51.226,58.671C51.236,58.664 51.258,58.642 51.311,58.593C51.316,58.588 51.325,58.566 51.32,58.557C51.311,58.549 51.128,58.406 51.121,58.398L51.084,58.35C51.056,58.318 50.798,58.203 50.652,58.128L50.652,58.172C50.669,58.196 50.666,58.237 50.652,58.277L50.652,58.405C50.681,58.311 50.695,58.206 50.703,58.199C50.759,58.155 51.085,58.41 51.085,58.412L51.128,58.462C51.135,58.471 51.191,58.505 51.197,58.513C51.209,58.529 51.197,58.557 51.192,58.563C51.169,58.581 51.068,58.566 51.05,58.569C50.966,58.585 50.812,58.609 50.652,58.627L50.652,58.683Z" style="fill:rgb(26,90,169);"/>
        </g>
        <g transform="matrix(3.74064,0,0,3.74065,-73.9973,-160.902)">
            <path d="M46.322,55.909L46.322,56.049C46.128,56.088 45.925,56.089 45.729,56.1L45.722,56.084C45.846,56.054 45.996,56.04 46.138,55.991C46.166,55.981 46.234,55.952 46.322,55.909ZM46.783,55.661L46.783,55.872C46.738,55.903 46.692,55.935 46.673,55.94C46.563,55.977 46.446,56.025 46.322,56.049L46.322,55.909C46.459,55.845 46.644,55.752 46.783,55.661ZM47.697,54.85L47.697,55.108C47.605,55.198 47.503,55.288 47.491,55.32C47.485,55.341 47.51,55.366 47.522,55.37C47.554,55.381 47.632,55.381 47.697,55.38L47.697,55.499C47.668,55.493 47.642,55.49 47.632,55.49C47.59,55.49 47.583,55.5 47.541,55.497C47.514,55.493 47.468,55.478 47.432,55.475C47.384,55.468 47.347,55.476 47.311,55.483C47.274,55.492 46.958,55.748 46.953,55.762C46.941,55.797 47.016,55.857 47.028,55.877C47.191,56.166 47.225,56.308 47.451,56.388C47.463,56.392 47.519,56.412 47.612,56.434C47.615,56.441 47.62,56.442 47.617,56.453C47.61,56.473 47.534,56.478 47.525,56.478C47.271,56.442 47.262,56.527 47.211,56.51C47.118,56.477 47.06,56.315 47.064,56.218C47.064,56.2 47.023,55.848 46.907,55.809C46.89,55.803 46.836,55.836 46.783,55.872L46.783,55.661C46.889,55.594 46.97,55.529 46.987,55.48C47.004,55.434 46.943,55.405 46.926,55.385C46.909,55.363 46.929,55.344 46.929,55.325C46.926,55.292 46.885,55.288 46.868,55.259C46.845,55.213 46.823,55.162 46.802,55.105C46.809,55.1 46.812,55.102 46.824,55.105C46.845,55.112 46.972,55.237 47.101,55.281L47.176,55.309C47.266,55.341 47.57,55.044 47.661,54.903C47.671,54.888 47.685,54.869 47.697,54.85ZM47.697,55.108L47.697,54.85C47.722,54.813 47.749,54.772 47.761,54.738C47.765,54.728 47.765,54.689 47.763,54.662C47.771,54.657 47.775,54.658 47.783,54.655C47.846,54.76 47.879,54.848 47.851,54.928C47.836,54.971 47.77,55.039 47.697,55.108ZM47.697,55.499L47.697,55.38C47.748,55.38 47.79,55.378 47.802,55.383C47.829,55.392 47.904,55.451 47.892,55.487C47.879,55.521 47.771,55.509 47.697,55.499Z" style="fill:rgb(26,90,169);"/>
        </g>
        <g transform="matrix(3.74064,0,0,3.74065,-73.9973,-160.902)">
            <path d="M42.344,53.996C42.197,53.927 42.024,53.842 41.995,53.838C41.981,53.837 41.964,53.833 41.947,53.832L41.944,53.859C42.042,53.918 42.131,53.993 42.237,54.033C42.271,54.045 42.309,54.062 42.344,54.081L42.344,53.996ZM42.344,53.714L42.344,53.928C42.334,53.923 42.324,53.915 42.321,53.906C42.309,53.874 42.312,53.83 42.305,53.791C42.3,53.762 42.271,53.711 42.273,53.699C42.275,53.687 42.285,53.679 42.297,53.68C42.314,53.684 42.331,53.696 42.344,53.714ZM42.344,53.339L42.344,53.584C42.339,53.585 42.333,53.584 42.329,53.584C42.278,53.575 42.236,53.55 42.219,53.487C42.2,53.422 42.214,53.344 42.209,53.276C42.207,53.246 42.178,53.207 42.183,53.176C42.185,53.164 42.193,53.156 42.205,53.158C42.239,53.163 42.3,53.251 42.344,53.339ZM42.344,53.584L42.344,53.339C42.368,53.385 42.387,53.433 42.394,53.465C42.399,53.487 42.399,53.536 42.397,53.548C42.394,53.579 42.365,53.584 42.344,53.584ZM42.344,53.928L42.344,53.714C42.39,53.769 42.421,53.876 42.417,53.894C42.412,53.927 42.373,53.935 42.36,53.932C42.356,53.932 42.351,53.93 42.344,53.928ZM42.881,54.314L42.881,54.533C42.779,54.456 42.674,54.349 42.625,54.293C42.545,54.207 42.443,54.134 42.344,54.081L42.344,53.996C42.431,54.039 42.509,54.074 42.545,54.09C42.621,54.12 42.762,54.253 42.881,54.314ZM42.881,53.203L42.881,53.28C42.876,53.288 42.872,53.297 42.871,53.304C42.869,53.314 42.874,53.322 42.881,53.329L42.881,53.548C42.864,53.553 42.85,53.572 42.849,53.584C42.847,53.589 42.849,53.63 42.874,53.633L42.881,53.633L42.881,53.979C42.872,53.986 42.862,53.989 42.855,53.989L42.803,53.981C42.799,53.974 42.792,53.972 42.794,53.961C42.796,53.959 42.857,53.776 42.862,53.745C42.874,53.662 42.745,53.618 42.752,53.58C42.755,53.558 42.852,53.489 42.866,53.409C42.869,53.387 42.869,53.346 42.833,53.341C42.815,53.338 42.815,53.353 42.794,53.377C42.771,53.404 42.737,53.428 42.723,53.461C42.701,53.516 42.691,53.563 42.682,53.616L42.658,53.776C42.655,53.796 42.613,53.827 42.608,53.825C42.538,53.815 42.538,53.579 42.538,53.579C42.551,53.494 42.759,53.187 42.731,53.171L42.748,53.173C42.759,53.18 42.762,53.192 42.76,53.203C42.759,53.215 42.738,53.256 42.737,53.268C42.733,53.283 42.731,53.316 42.76,53.319C42.772,53.321 42.781,53.316 42.787,53.305C42.813,53.273 42.845,53.239 42.881,53.203ZM42.881,52.565L42.881,52.754C42.857,52.755 42.833,52.754 42.808,52.75C42.796,52.748 42.696,52.723 42.684,52.721C42.672,52.72 42.633,52.718 42.602,52.713C42.691,52.667 42.774,52.626 42.881,52.565ZM42.915,54.331L42.915,54.558C42.905,54.55 42.893,54.541 42.881,54.533L42.881,54.314C42.893,54.321 42.905,54.326 42.915,54.331ZM42.915,53.343L42.915,53.947C42.908,53.959 42.895,53.971 42.881,53.979L42.881,53.633C42.901,53.63 42.913,53.599 42.915,53.589C42.917,53.582 42.915,53.551 42.893,53.548L42.881,53.548L42.881,53.329C42.889,53.336 42.901,53.341 42.911,53.343L42.915,53.343ZM42.915,53.173L42.915,53.244C42.903,53.256 42.889,53.268 42.881,53.28L42.881,53.203C42.893,53.193 42.905,53.183 42.915,53.173ZM42.915,52.546L42.915,52.75C42.905,52.752 42.893,52.754 42.881,52.754L42.881,52.565C42.893,52.56 42.905,52.553 42.915,52.546ZM42.915,53.947L42.915,53.343C42.945,53.348 42.954,53.334 42.959,53.304C42.962,53.282 42.962,53.251 42.939,53.231C42.93,53.234 42.923,53.239 42.915,53.244L42.915,53.173C43.029,53.076 43.171,52.99 43.285,52.986C43.315,52.984 43.365,52.966 43.377,52.967L43.427,52.976C43.467,52.981 43.494,53.063 43.494,53.073C43.49,53.085 43.45,53.134 43.448,53.146L43.438,53.217C43.434,53.237 43.338,53.429 43.336,53.434L43.326,53.5C43.324,53.512 43.29,53.558 43.283,53.587C43.263,53.675 43.239,53.792 43.232,53.827C43.214,53.901 43.203,53.923 43.202,53.935C43.2,53.947 43.203,53.986 43.202,53.998C43.195,54.045 43.166,54.09 43.113,54.081C43.051,54.073 43.037,54.003 42.984,53.933L42.986,53.918C42.993,53.913 42.991,53.913 43.003,53.915C43.015,53.916 43.056,53.952 43.068,53.954C43.124,53.962 43.19,53.748 43.202,53.68C43.227,53.54 43.232,53.475 43.234,53.463C43.237,53.443 43.353,53.169 43.361,53.113C43.365,53.088 43.351,53.056 43.319,53.051C43.288,53.047 43.045,53.113 43.035,53.178C43.034,53.19 43.042,53.268 43.039,53.28C43.037,53.292 43.02,53.316 43.018,53.327C43.003,53.422 43.147,53.428 43.132,53.529C43.124,53.582 42.988,53.643 42.964,53.708L42.92,53.939C42.92,53.94 42.918,53.944 42.915,53.947ZM42.915,54.558L42.915,54.331C42.934,54.337 42.951,54.343 42.967,54.346L43.037,54.356C43.04,54.356 43.188,54.409 43.232,54.416C43.326,54.429 43.422,54.405 43.451,54.409L43.528,54.421C43.533,54.427 43.533,54.432 43.536,54.439C43.37,54.477 43.069,54.623 43.045,54.619C43.008,54.614 42.962,54.59 42.915,54.558ZM43.721,52.241L43.721,52.4C43.619,52.499 43.407,52.592 43.399,52.64C43.394,52.682 43.5,52.742 43.494,52.784C43.487,52.832 43.341,52.842 43.304,52.847C43.251,52.852 43.2,52.888 43.147,52.9L43.139,52.884C43.193,52.847 43.31,52.811 43.321,52.745C43.322,52.733 43.312,52.665 43.315,52.653C43.324,52.596 43.536,52.47 43.546,52.412C43.548,52.39 43.526,52.375 43.519,52.373C43.5,52.372 43.192,52.546 43.096,52.643C43.032,52.708 42.974,52.738 42.915,52.75L42.915,52.546C42.92,52.543 42.925,52.541 42.93,52.538C43.11,52.436 43.346,52.384 43.529,52.302C43.602,52.268 43.609,52.209 43.667,52.217C43.684,52.219 43.703,52.229 43.721,52.241ZM43.721,52.4C43.75,52.372 43.769,52.344 43.774,52.316C43.777,52.292 43.75,52.261 43.721,52.241L43.721,52.4Z" style="fill:rgb(26,90,169);"/>
        </g>
        <g transform="matrix(3.74064,0,0,3.74065,-73.9973,-160.902)">
            <path d="M38.43,53.246C38.428,53.246 38.426,53.246 38.423,53.244C38.408,53.297 38.394,53.514 38.325,53.526C38.281,53.533 38.134,53.31 38,53.334C37.989,53.336 37.982,53.343 37.978,53.355C37.992,53.366 38.275,53.572 38.282,53.614C38.292,53.664 38.247,53.696 38.219,53.754C38.172,53.855 38.16,54 38.058,54.093C38.017,54.13 37.949,54.229 37.904,54.259C37.846,54.298 37.761,54.351 37.724,54.404C37.742,54.412 37.756,54.416 37.768,54.414C37.78,54.41 37.824,54.38 37.849,54.366C38.36,54.081 38.308,53.798 38.411,53.779C38.418,53.777 38.425,53.777 38.43,53.777L38.43,53.246ZM38.43,52.832L38.43,52.86C38.384,52.913 38.389,53.005 38.284,53.088C38.218,53.141 38.102,53.147 38.029,53.195C37.965,53.237 37.868,53.322 37.849,53.326C37.837,53.327 37.822,53.317 37.82,53.305C37.807,53.222 37.938,53.119 37.982,53.076C38.036,53.024 38.087,52.923 38.134,52.857C38.136,52.864 38.141,52.86 38.143,52.872C38.146,52.886 38.129,52.935 38.131,52.947C38.138,52.986 38.18,52.974 38.191,52.973C38.209,52.969 38.347,52.884 38.43,52.832ZM38.43,52.552C38.401,52.572 38.37,52.591 38.365,52.601L38.379,52.611C38.396,52.601 38.413,52.592 38.43,52.582L38.43,52.552ZM38.43,52.351L38.43,52.453C38.401,52.463 38.36,52.484 38.32,52.514C38.286,52.54 38.253,52.575 38.219,52.599C38.131,52.66 38.058,52.696 37.987,52.709L37.968,52.713C37.961,52.708 37.961,52.711 37.96,52.699C37.958,52.698 38.207,52.523 38.182,52.377C38.163,52.273 38.011,52.232 37.939,52.132C37.944,52.125 37.949,52.119 37.961,52.117C38.011,52.109 38.284,52.164 38.311,52.166C38.425,52.171 38.374,52.314 38.43,52.351ZM38.43,52.582L38.43,52.552C38.462,52.531 38.493,52.506 38.488,52.48C38.482,52.455 38.459,52.448 38.445,52.45C38.44,52.452 38.437,52.452 38.43,52.453L38.43,52.351C38.443,52.36 38.46,52.363 38.486,52.358C38.498,52.356 38.52,52.343 38.532,52.341L38.627,52.324C38.656,52.319 38.693,52.253 38.742,52.244C38.769,52.239 38.924,52.241 38.932,52.294C38.938,52.321 38.832,52.387 38.817,52.39L38.737,52.404C38.724,52.406 38.693,52.438 38.669,52.448C38.596,52.484 38.511,52.536 38.43,52.582ZM38.43,52.86L38.43,52.832C38.44,52.825 38.45,52.82 38.459,52.815C38.513,52.779 38.501,52.764 38.549,52.755C38.639,52.74 38.79,52.752 38.814,52.893C38.82,52.928 38.78,52.969 38.763,52.973C38.751,52.974 38.652,52.951 38.64,52.954C38.623,52.956 38.576,53 38.561,53.001L38.53,53.007C38.528,53 38.523,53.001 38.521,52.99C38.52,52.976 38.583,52.884 38.581,52.871C38.576,52.84 38.532,52.818 38.504,52.823C38.469,52.828 38.447,52.842 38.43,52.86ZM39.17,54.093L39.17,54.234C39.131,54.249 39.058,54.278 39.048,54.28C38.887,54.309 38.87,54.286 38.651,54.115C38.612,54.084 38.561,53.784 38.43,53.777L38.43,53.246C38.481,53.258 38.6,53.317 38.608,53.375L38.625,53.47C38.637,53.534 38.498,53.645 38.501,53.669C38.511,53.728 38.931,53.983 38.987,54.013C39.046,54.047 39.109,54.073 39.17,54.093ZM39.17,54.234L39.17,54.093C39.216,54.11 39.26,54.122 39.302,54.132C39.367,54.149 39.423,54.149 39.467,54.188C39.469,54.195 39.464,54.202 39.459,54.208L39.382,54.222C39.381,54.222 39.246,54.215 39.192,54.225C39.192,54.225 39.184,54.229 39.17,54.234Z" style="fill:rgb(26,90,169);"/>
        </g>
        <g transform="matrix(3.74064,0,0,3.74065,-73.9973,-160.902)">
            <path d="M33.668,54.884L33.668,54.942C33.655,54.945 33.641,54.943 33.626,54.935C33.622,54.928 33.616,54.926 33.617,54.918C33.619,54.916 33.621,54.913 33.622,54.911L33.634,54.903C33.644,54.898 33.656,54.891 33.668,54.884ZM33.668,54.051C33.61,54.088 33.61,54.093 33.576,54.105C33.561,54.115 33.529,54.124 33.514,54.134C33.466,54.152 33.434,54.159 33.386,54.173C33.385,54.174 33.383,54.174 33.381,54.176C33.38,54.178 33.376,54.179 33.373,54.181C33.371,54.19 33.376,54.202 33.385,54.203C33.398,54.222 33.453,54.214 33.475,54.217C33.532,54.227 33.583,54.235 33.644,54.232C33.649,54.232 33.658,54.23 33.668,54.23L33.668,54.051ZM33.884,54.68L33.884,54.823C33.875,54.83 33.867,54.835 33.845,54.859C33.802,54.887 33.773,54.898 33.733,54.923C33.721,54.925 33.687,54.94 33.675,54.94C33.673,54.942 33.67,54.942 33.668,54.942L33.668,54.884C33.695,54.867 33.728,54.85 33.751,54.836C33.783,54.803 33.77,54.804 33.78,54.792C33.79,54.78 33.836,54.764 33.835,54.753C33.833,54.746 33.862,54.711 33.884,54.68ZM33.884,54.032L33.884,54.375C33.863,54.399 33.84,54.412 33.831,54.42C33.816,54.438 33.789,54.529 33.756,54.522C33.756,54.507 33.763,54.465 33.775,54.456C33.782,54.422 33.801,54.405 33.807,54.373C33.812,54.339 33.809,54.288 33.783,54.256C33.768,54.253 33.765,54.237 33.751,54.234C33.733,54.225 33.726,54.234 33.707,54.227C33.7,54.229 33.683,54.229 33.668,54.23L33.668,54.051C33.67,54.051 33.67,54.049 33.672,54.049C33.699,54.042 33.724,54.042 33.739,54.037C33.768,54.028 33.792,54.028 33.824,54.028C33.84,54.025 33.862,54.027 33.884,54.032ZM33.884,54.375C33.887,54.373 33.889,54.371 33.891,54.368C33.906,54.349 33.914,54.319 33.928,54.305C33.947,54.283 33.95,54.293 33.963,54.275C33.997,54.235 33.997,54.229 34.015,54.19C34.03,54.157 34.02,54.135 34.011,54.11C34.001,54.079 33.938,54.045 33.884,54.032L33.884,54.375ZM33.884,54.823L33.884,54.68C33.891,54.672 33.897,54.663 33.901,54.656C33.911,54.646 33.924,54.607 33.941,54.582C33.955,54.56 33.982,54.521 33.999,54.499C34.018,54.472 34.025,54.466 34.028,54.453C34.055,54.434 34.086,54.342 34.098,54.31C34.118,54.285 34.137,54.259 34.157,54.235C34.16,54.222 34.166,54.208 34.171,54.196C34.176,54.181 34.188,54.154 34.205,54.149C34.23,54.14 34.322,54.134 34.339,54.159C34.34,54.169 34.322,54.203 34.322,54.203C34.322,54.203 34.307,54.246 34.289,54.275C34.283,54.286 34.272,54.319 34.264,54.329C34.242,54.353 34.22,54.387 34.196,54.42C34.183,54.441 34.149,54.482 34.14,54.49C34.128,54.514 34.081,54.594 34.065,54.611C34.054,54.626 34.04,54.641 34.028,54.658C34.008,54.672 33.93,54.769 33.919,54.791C33.901,54.811 33.892,54.818 33.884,54.823ZM34.658,55.463C34.62,55.434 34.598,55.41 34.576,55.381C34.564,55.363 34.542,55.349 34.525,55.334C34.519,55.324 34.508,55.319 34.503,55.31C34.486,55.293 34.452,55.276 34.437,55.263C34.425,55.251 34.425,55.246 34.422,55.232C34.413,55.22 34.405,55.208 34.395,55.198C34.396,55.193 34.396,55.19 34.403,55.188C34.454,55.169 34.447,55.117 34.478,55.096C34.478,55.096 34.546,55.008 34.556,55.001C34.566,54.975 34.564,54.959 34.575,54.933C34.576,54.921 34.578,54.909 34.578,54.898C34.564,54.876 34.554,54.86 34.532,54.848C34.515,54.85 34.419,54.918 34.413,54.933C34.408,54.948 34.42,54.954 34.417,54.969C34.407,54.974 34.381,54.991 34.371,54.998C34.364,55.004 34.356,55.015 34.344,55.016C34.344,55.013 34.342,55.008 34.342,55.003C34.34,54.972 34.351,54.974 34.352,54.962C34.357,54.955 34.364,54.947 34.369,54.938C34.373,54.923 34.376,54.908 34.38,54.891C34.386,54.857 34.398,54.836 34.405,54.804C34.408,54.757 34.424,54.708 34.413,54.65C34.432,54.638 34.444,54.577 34.473,54.529C34.49,54.497 34.481,54.49 34.48,54.487C34.478,54.482 34.464,54.463 34.456,54.451C34.427,54.42 34.291,54.538 34.3,54.529C34.283,54.543 34.267,54.556 34.25,54.568C34.239,54.582 34.228,54.595 34.216,54.609C34.206,54.658 34.169,54.699 34.15,54.745C34.142,54.765 34.14,54.786 34.128,54.804C34.133,54.855 34.086,54.898 34.069,54.94C34.062,54.962 34.054,55.003 34.035,55.016C34.003,55.02 33.98,55.027 33.95,55.02C33.938,55.023 33.918,55.02 33.907,55.023C33.906,55.023 33.904,55.025 33.902,55.027C33.896,55.045 33.885,55.059 33.884,55.071L33.884,55.078C33.885,55.078 33.885,55.079 33.885,55.079C33.892,55.115 33.918,55.128 33.935,55.171C33.938,55.19 33.974,55.225 33.977,55.244C34.001,55.28 34.011,55.315 34.04,55.361C34.081,55.424 34.142,55.495 34.205,55.488C34.225,55.476 34.233,55.465 34.242,55.442C34.247,55.427 34.245,55.426 34.247,55.403C34.249,55.385 34.262,55.356 34.266,55.33C34.267,55.314 34.257,55.302 34.257,55.29C34.22,55.232 34.196,55.19 34.162,55.13C34.167,55.094 34.206,55.064 34.235,55.045C34.249,55.047 34.255,55.032 34.264,55.037C34.271,55.047 34.261,55.059 34.262,55.071C34.262,55.067 34.284,55.198 34.278,55.186C34.279,55.203 34.313,55.218 34.327,55.222C34.342,55.244 34.359,55.263 34.373,55.286C34.369,55.31 34.351,55.361 34.33,55.383C34.325,55.398 34.329,55.39 34.313,55.42C34.298,55.441 34.284,55.468 34.269,55.488C34.257,55.517 34.247,55.548 34.237,55.577C34.201,55.667 34.211,55.622 34.193,55.678C34.179,55.704 34.157,55.756 34.147,55.792C34.13,55.821 34.108,55.847 34.077,55.886C34.072,55.911 34.064,55.942 34.059,55.965C34.067,55.981 34.079,55.974 34.094,55.981C34.128,55.998 34.162,56.02 34.194,56.038C34.227,56.045 34.262,56.011 34.288,55.992C34.291,55.977 34.303,55.957 34.308,55.94C34.315,55.928 34.313,55.918 34.318,55.908C34.318,55.865 34.337,55.809 34.347,55.762C34.356,55.729 34.357,55.722 34.361,55.702C34.361,55.687 34.373,55.641 34.385,55.634C34.393,55.6 34.402,55.575 34.41,55.544C34.429,55.481 34.42,55.432 34.446,55.388C34.468,55.393 34.497,55.497 34.508,55.516C34.502,55.556 34.442,55.575 34.446,55.616C34.486,55.658 34.59,55.701 34.593,55.702C34.598,55.704 34.62,55.717 34.641,55.729C34.646,55.733 34.651,55.733 34.658,55.734L34.658,55.463ZM34.658,55.079L34.658,55.184C34.627,55.179 34.593,55.173 34.592,55.171C34.588,55.171 34.57,55.151 34.58,55.137C34.58,55.135 34.583,55.132 34.587,55.13C34.607,55.108 34.631,55.091 34.658,55.079ZM34.658,55.734L34.658,55.463C34.66,55.465 34.661,55.466 34.665,55.468C34.7,55.524 34.734,55.582 34.738,55.646C34.739,55.678 34.705,55.724 34.705,55.724C34.705,55.724 34.678,55.734 34.658,55.734ZM34.755,55.052L34.755,55.232C34.744,55.224 34.733,55.215 34.721,55.207C34.707,55.201 34.695,55.193 34.682,55.19C34.675,55.188 34.666,55.186 34.658,55.184L34.658,55.079C34.687,55.064 34.721,55.055 34.755,55.052ZM34.755,55.232L34.755,55.052C34.783,55.05 34.811,55.05 34.84,55.055C34.855,55.059 34.887,55.062 34.904,55.074C34.924,55.083 35.001,55.14 35.007,55.161C35.007,55.169 35.007,55.179 35.009,55.186C35.013,55.2 35.014,55.21 35.018,55.224C35.009,55.268 34.975,55.283 34.938,55.307C34.923,55.31 34.907,55.315 34.892,55.317C34.877,55.315 34.862,55.305 34.846,55.303C34.831,55.293 34.823,55.283 34.809,55.269C34.797,55.259 34.79,55.259 34.773,55.246C34.767,55.24 34.761,55.237 34.755,55.232Z" style="fill:rgb(26,90,169);"/>
        </g>
        <g transform="matrix(3.74064,0,0,3.74065,-73.9973,-160.902)">
            <path d="M29.635,57.962C29.635,57.964 29.635,57.964 29.633,57.964C29.63,57.969 29.608,57.991 29.633,58.008C29.633,58.006 29.635,58.006 29.635,58.004L29.635,58.006C29.631,58.006 29.628,58.006 29.623,58.003C29.614,57.994 29.616,57.985 29.621,57.98C29.623,57.991 29.618,57.991 29.626,57.999C29.63,58.001 29.633,58.003 29.635,58.003L29.635,58.004C29.63,58.003 29.625,58.001 29.621,57.998C29.625,57.998 29.63,57.999 29.635,58.001L29.635,57.962ZM29.813,57.806L29.813,57.945C29.74,57.946 29.674,57.965 29.635,58.004L29.635,58.006C29.64,58.006 29.645,58.004 29.648,58.003C29.645,58.001 29.64,58.003 29.635,58.003L29.635,58.004C29.64,58.004 29.647,58.004 29.648,58.003C29.643,58.001 29.64,58.001 29.635,58.001L29.635,57.962C29.652,57.948 29.748,57.879 29.755,57.87L29.813,57.806ZM30.421,59.35L30.421,59.405C30.402,59.406 30.385,59.41 30.37,59.413C30.366,59.408 30.361,59.398 30.361,59.389C30.372,59.383 30.394,59.369 30.421,59.35ZM30.421,57.928L30.421,57.931C30.417,57.928 30.416,57.925 30.411,57.923C30.414,57.928 30.417,57.933 30.421,57.938L30.421,58.313C30.412,58.294 30.402,58.274 30.351,58.228L30.139,58.04C30.071,57.98 29.933,57.941 29.813,57.945L29.813,57.806L29.835,57.78C29.976,57.622 30.27,57.778 30.339,57.84C30.348,57.848 30.368,57.865 30.414,57.919C30.416,57.923 30.419,57.925 30.421,57.928ZM30.704,59.06L30.704,59.347C30.643,59.391 30.517,59.393 30.421,59.405L30.421,59.35C30.475,59.316 30.545,59.271 30.55,59.264C30.599,59.208 30.577,59.196 30.657,59.106C30.672,59.089 30.689,59.074 30.704,59.06ZM30.704,58.454L30.704,58.603L30.604,58.512C30.58,58.491 30.548,58.444 30.526,58.422L30.46,58.364C30.434,58.342 30.427,58.328 30.421,58.313L30.421,57.938C30.422,57.941 30.426,57.943 30.429,57.946C30.426,57.941 30.424,57.936 30.421,57.931L30.421,57.928C30.475,58.001 30.509,58.113 30.548,58.216C30.553,58.23 30.629,58.35 30.704,58.454ZM30.704,57.332L30.704,57.544C30.643,57.459 30.58,57.361 30.592,57.347C30.606,57.332 30.651,57.329 30.704,57.332ZM30.704,59.347L30.704,59.06C30.803,58.984 30.918,58.982 31.022,59.075C31.05,59.101 31.067,59.532 31.015,59.649C31.015,59.649 31.01,59.654 31.001,59.646C30.998,59.642 30.996,59.559 30.955,59.481C30.949,59.471 30.95,59.451 30.944,59.444C30.904,59.4 30.877,59.35 30.835,59.313C30.811,59.291 30.748,59.294 30.728,59.323C30.723,59.332 30.714,59.34 30.704,59.347ZM31.079,60.06L31.079,60.116C31.071,60.092 31.067,60.072 31.078,60.062C31.078,60.06 31.078,60.06 31.079,60.06ZM31.079,58.824L31.079,58.977C31.066,58.963 31.001,58.884 30.964,58.836L30.704,58.603L30.704,58.454C30.748,58.515 30.791,58.569 30.821,58.595L31.079,58.824ZM31.079,57.48L31.079,57.926L30.787,57.65C30.767,57.626 30.736,57.587 30.704,57.544L30.704,57.332C30.809,57.339 30.949,57.369 30.955,57.374L31.069,57.476C31.071,57.478 31.074,57.478 31.079,57.48ZM31.22,60.009L31.22,60.243C31.183,60.24 31.154,60.23 31.137,60.216C31.13,60.209 31.095,60.158 31.079,60.116L31.079,60.06C31.101,60.036 31.166,60.07 31.208,60.023C31.212,60.017 31.217,60.014 31.22,60.009ZM31.22,58.907L31.22,59.155C31.203,59.108 31.18,59.067 31.145,59.036L31.081,58.979C31.079,58.979 31.079,58.979 31.079,58.977L31.079,58.824L31.096,58.839C31.115,58.856 31.166,58.882 31.22,58.907ZM31.22,58.32L31.215,58.32L31.213,58.3C31.208,58.306 31.205,58.317 31.215,58.325C31.205,58.317 31.208,58.306 31.212,58.3C31.213,58.306 31.213,58.318 31.217,58.322C31.217,58.322 31.218,58.32 31.22,58.32ZM31.22,58.213L31.22,58.32L31.215,58.32L31.213,58.3C31.208,58.306 31.205,58.317 31.215,58.325C31.217,58.327 31.218,58.328 31.22,58.328L31.22,58.327L31.218,58.327C31.196,58.306 31.207,58.262 31.22,58.213ZM31.22,57.444L31.22,57.5C31.19,57.495 31.163,57.498 31.149,57.514C31.132,57.534 31.154,57.563 31.166,57.575C31.173,57.58 31.185,57.597 31.22,57.621L31.22,58.033C31.198,58.008 31.188,58.004 31.18,57.998C31.171,57.991 31.125,57.955 31.095,57.94L31.079,57.926L31.079,57.48C31.101,57.481 31.157,57.466 31.22,57.444ZM31.22,58.32C31.224,58.318 31.227,58.313 31.232,58.303C31.234,58.312 31.23,58.325 31.227,58.328C31.23,58.325 31.23,58.313 31.23,58.313C31.227,58.317 31.222,58.318 31.22,58.32ZM31.239,59.984L31.239,60.245C31.232,60.243 31.225,60.243 31.22,60.243L31.22,60.009C31.227,60.001 31.234,59.992 31.239,59.984ZM31.239,58.916L31.239,59.228C31.234,59.203 31.227,59.177 31.22,59.155L31.22,58.907C31.225,58.909 31.232,58.912 31.239,58.916ZM31.239,58.135C31.234,58.16 31.227,58.188 31.22,58.213L31.22,58.32C31.222,58.318 31.227,58.317 31.23,58.313C31.23,58.313 31.23,58.325 31.227,58.328C31.227,58.328 31.225,58.332 31.22,58.328L31.22,58.327C31.227,58.333 31.232,58.33 31.232,58.33C31.234,58.322 31.235,58.315 31.239,58.306L31.239,58.135ZM31.239,58.116L31.239,58.126C31.237,58.132 31.235,58.135 31.234,58.137C31.235,58.133 31.237,58.126 31.239,58.116ZM31.239,57.632L31.239,58.064C31.237,58.058 31.235,58.053 31.232,58.05C31.227,58.043 31.224,58.038 31.22,58.033L31.22,57.621C31.225,57.624 31.232,57.629 31.239,57.632ZM31.239,57.435L31.239,57.503C31.232,57.502 31.225,57.5 31.22,57.5L31.22,57.444C31.225,57.441 31.232,57.439 31.239,57.435ZM31.239,58.126C31.242,58.118 31.246,58.106 31.244,58.096C31.242,58.103 31.241,58.109 31.239,58.116L31.239,58.126ZM31.256,59.95L31.256,60.245L31.239,60.245L31.239,59.984C31.247,59.972 31.252,59.962 31.256,59.95ZM31.256,58.923L31.256,59.86C31.251,59.827 31.246,59.783 31.247,59.722C31.247,59.578 31.268,59.383 31.239,59.228L31.239,58.916C31.244,58.917 31.249,58.921 31.256,58.923ZM31.256,57.643L31.256,58.259C31.249,58.274 31.244,58.291 31.239,58.306L31.239,58.135C31.244,58.108 31.246,58.082 31.239,58.064L31.239,57.632C31.244,57.636 31.249,57.639 31.256,57.643ZM31.256,57.43L31.256,57.507C31.249,57.505 31.244,57.503 31.239,57.503L31.239,57.435C31.244,57.434 31.249,57.432 31.256,57.43ZM31.37,58.98L31.37,59.298C31.354,59.277 31.334,59.238 31.307,59.271C31.286,59.293 31.332,59.371 31.334,59.374C31.349,59.425 31.359,59.484 31.37,59.547L31.37,60.231C31.332,60.242 31.292,60.245 31.256,60.245L31.256,59.95C31.263,59.924 31.259,59.899 31.256,59.86L31.256,58.923C31.31,58.948 31.359,58.972 31.37,58.98ZM31.37,57.376L31.37,58.179C31.334,58.176 31.295,58.193 31.275,58.216C31.271,58.22 31.263,58.239 31.256,58.259L31.256,57.643C31.256,57.643 31.258,57.644 31.259,57.646C31.31,57.675 31.322,57.658 31.348,57.629C31.381,57.592 31.371,57.571 31.337,57.542C31.331,57.536 31.295,57.519 31.256,57.507L31.256,57.43C31.297,57.413 31.337,57.395 31.37,57.376ZM31.42,59.833L31.42,60.214C31.405,60.221 31.388,60.226 31.37,60.231L31.37,59.547C31.387,59.642 31.4,59.744 31.42,59.833ZM31.42,59.023L31.42,59.316C31.409,59.315 31.395,59.313 31.383,59.311C31.38,59.31 31.375,59.305 31.37,59.298L31.37,58.98L31.415,59.021C31.415,59.021 31.417,59.023 31.42,59.023ZM31.42,57.344L31.42,58.199C31.405,58.188 31.388,58.181 31.37,58.179L31.37,57.376C31.387,57.366 31.402,57.357 31.412,57.349C31.415,57.347 31.417,57.345 31.42,57.344ZM31.42,58.199L31.42,57.344C31.431,57.342 31.443,57.345 31.449,57.352C31.49,57.388 31.507,57.712 31.528,57.77C31.548,57.829 31.504,57.877 31.512,57.941C31.516,57.969 31.534,58.004 31.543,58.013L31.592,58.057C31.68,58.135 31.687,58.598 31.684,58.649C31.672,58.627 31.487,58.257 31.426,58.203C31.424,58.201 31.422,58.199 31.42,58.199ZM31.42,59.316L31.42,59.023C31.444,59.035 31.528,59.069 31.539,59.08C31.575,59.111 31.636,59.216 31.594,59.266C31.565,59.296 31.487,59.318 31.42,59.316ZM31.42,60.214L31.42,59.833C31.426,59.856 31.433,59.878 31.439,59.899C31.451,59.941 31.553,60.096 31.487,60.17C31.472,60.189 31.448,60.203 31.42,60.214ZM32.044,58.271L32.044,58.586C32.04,58.588 32.038,58.59 32.037,58.592C32.028,58.602 31.976,58.688 31.969,58.699C31.935,58.736 31.928,58.751 31.864,58.765C31.859,58.76 31.853,58.748 31.862,58.738C31.87,58.729 31.892,58.719 31.899,58.71C31.942,58.663 31.948,58.586 31.979,58.532C31.994,58.502 31.965,58.442 31.947,58.408C31.942,58.4 31.935,58.374 31.943,58.366C31.945,58.364 32.013,58.317 32.018,58.31C32.021,58.306 32.032,58.289 32.044,58.271ZM32.044,58.586C32.064,58.569 32.098,58.569 32.123,58.592C32.179,58.641 32.235,58.897 32.237,58.897C32.246,58.906 32.249,58.901 32.256,58.901L32.279,58.875C32.347,58.797 32.225,58.493 32.222,58.469L32.3,58.381C32.327,58.352 32.336,58.242 32.3,58.21C32.264,58.179 32.149,58.135 32.083,58.21C32.078,58.215 32.059,58.245 32.044,58.271L32.044,58.586Z" style="fill:rgb(26,90,169);"/>
        </g>
        <g transform="matrix(3.74064,0,0,3.74065,-73.9973,-160.902)">
            <path d="M31.079,64.211L31.079,64.591C31.071,64.465 31.064,64.338 31.061,64.211L31.079,64.211ZM31.079,63.403L31.079,63.815L31.059,63.815C31.061,63.676 31.066,63.538 31.074,63.401L31.079,63.403ZM31.22,65.008L31.22,65.419L31.173,65.426C31.151,65.292 31.132,65.154 31.117,65.017L31.22,65.008ZM31.22,64.211L31.22,64.611L31.081,64.623C31.079,64.613 31.079,64.601 31.079,64.591L31.079,64.211L31.22,64.211ZM31.22,63.414L31.22,63.815L31.079,63.815L31.079,63.403L31.22,63.414ZM31.22,62.608L31.22,63.017L31.105,63.007C31.12,62.87 31.137,62.732 31.157,62.596L31.22,62.608ZM31.239,65.007L31.239,65.416L31.22,65.419L31.22,65.008L31.239,65.007ZM31.239,64.211L31.239,64.609L31.22,64.611L31.22,64.211L31.239,64.211ZM31.239,63.416L31.239,63.815L31.22,63.815L31.22,63.414L31.239,63.416ZM31.239,62.611L31.239,63.019L31.22,63.017L31.22,62.608L31.239,62.611ZM31.239,62.126L31.239,62.209L31.224,62.206C31.229,62.18 31.234,62.153 31.239,62.126ZM31.256,65.815L31.256,65.876C31.251,65.855 31.247,65.837 31.242,65.816L31.256,65.815ZM31.256,65.005L31.256,65.412L31.239,65.416L31.239,65.007L31.256,65.005ZM31.256,64.211L31.256,64.608L31.239,64.609L31.239,64.211L31.256,64.211ZM31.256,63.418L31.256,63.815L31.239,63.815L31.239,63.416L31.256,63.418ZM31.256,62.615L31.256,63.021L31.239,63.019L31.239,62.611L31.256,62.615ZM31.256,62.048L31.256,62.213L31.239,62.209L31.239,62.126C31.244,62.1 31.249,62.073 31.256,62.048ZM31.37,65.794L31.37,66.21L31.334,66.219C31.307,66.105 31.28,65.991 31.256,65.876L31.256,65.815L31.37,65.794ZM31.37,64.995L31.37,65.392L31.256,65.412L31.256,65.005L31.37,64.995ZM31.37,64.211L31.37,64.598L31.256,64.608L31.256,64.211L31.37,64.211ZM31.37,63.428L31.37,63.815L31.256,63.815L31.256,63.418L31.37,63.428ZM31.37,62.635L31.37,63.031L31.256,63.021L31.256,62.615L31.37,62.635ZM31.37,61.819L31.37,62.233L31.256,62.213L31.256,62.048C31.273,61.965 31.29,61.883 31.31,61.802L31.37,61.819ZM31.421,65.786L31.421,66.197L31.37,66.21L31.37,65.794L31.421,65.786ZM31.421,64.991L31.421,65.382L31.37,65.392L31.37,64.995L31.421,64.991ZM31.421,63.167L31.421,64.755L31.407,64.594L31.37,64.598L31.37,64.211L31.385,64.211L31.385,63.815L31.37,63.815L31.37,63.428L31.397,63.43L31.421,63.167ZM31.421,62.644L31.421,63.034L31.37,63.031L31.37,62.635L31.421,62.644ZM31.421,61.832L31.421,62.241L31.37,62.233L31.37,61.819L31.421,61.832ZM31.421,61.379L31.421,61.422L31.41,61.418C31.414,61.406 31.417,61.393 31.421,61.379ZM32.044,68.1L32.044,68.123C32.04,68.118 32.037,68.112 32.033,68.105L32.044,68.1ZM32.044,60.372L32.044,62.145C31.916,62.73 31.848,63.336 31.848,63.959C31.848,64.582 31.916,65.19 32.044,65.776L32.044,67.663L31.864,67.747C31.808,67.621 31.753,67.495 31.702,67.366L32.01,67.254L31.875,66.882L31.565,66.994C31.521,66.865 31.478,66.733 31.439,66.601L31.755,66.516L31.653,66.134L31.421,66.197L31.421,65.786L31.565,65.76L31.497,65.37L31.421,65.382L31.421,64.991L31.441,64.988L31.421,64.755L31.421,63.167L31.432,63.036L31.421,63.034L31.421,62.644L31.478,62.654L31.546,62.263L31.421,62.241L31.421,61.832L31.626,61.887L31.728,61.505L31.421,61.422L31.421,61.379C31.454,61.26 31.492,61.141 31.531,61.024L31.84,61.136L31.976,60.765L31.665,60.651C31.714,60.522 31.767,60.394 31.821,60.269L32.044,60.372ZM32.044,59.795L32.044,59.934L31.986,59.909C32.005,59.871 32.023,59.833 32.044,59.795ZM33.668,69.21L33.668,70.41C33.573,70.312 33.48,70.211 33.39,70.11L33.638,69.901L33.385,69.597L33.133,69.807C33.047,69.7 32.962,69.592 32.88,69.482L33.147,69.295L32.919,68.97L32.65,69.159C32.573,69.045 32.498,68.93 32.427,68.813L32.709,68.648L32.51,68.305L32.227,68.47C32.162,68.356 32.101,68.241 32.044,68.123L32.044,68.1L32.329,67.967L32.162,67.607L32.044,67.663L32.044,65.776C32.322,67.051 32.886,68.22 33.668,69.21ZM33.668,57.653L33.668,58.71C32.886,59.7 32.322,60.87 32.044,62.145L32.044,60.372L32.118,60.406L32.285,60.048L32.044,59.934L32.044,59.795C32.086,59.71 32.13,59.625 32.176,59.542L32.459,59.705L32.656,59.362L32.373,59.198C32.442,59.079 32.517,58.963 32.592,58.848L32.86,59.035L33.088,58.71L32.818,58.524C32.899,58.412 32.982,58.301 33.069,58.194L33.317,58.403L33.571,58.099L33.32,57.889C33.412,57.785 33.503,57.683 33.599,57.583L33.668,57.653ZM33.884,69.473L33.884,70.198L33.672,70.412C33.67,70.412 33.668,70.41 33.668,70.41L33.668,69.21C33.738,69.3 33.811,69.388 33.884,69.473ZM33.884,57.756L33.884,58.447C33.811,58.532 33.738,58.62 33.668,58.71L33.668,57.653L33.828,57.812L33.884,57.756ZM33.884,57.295L33.884,57.308L33.877,57.301C33.88,57.3 33.882,57.296 33.884,57.295ZM34.658,71.109L34.658,71.294C34.626,71.271 34.593,71.247 34.563,71.222L34.658,71.109ZM34.658,70.266L34.658,70.877L34.468,70.717L34.259,70.969C34.154,70.879 34.052,70.785 33.952,70.692L34.181,70.461L33.902,70.181L33.884,70.198L33.884,69.473C34.125,69.755 34.383,70.018 34.658,70.266ZM34.658,57.045L34.658,57.655C34.383,57.901 34.125,58.165 33.884,58.447L33.884,57.756L34.108,57.532L33.884,57.308L33.884,57.295C33.98,57.201 34.079,57.11 34.179,57.021L34.39,57.269L34.658,57.045ZM34.658,56.624L34.658,56.974L34.481,56.765C34.539,56.717 34.598,56.67 34.658,56.624ZM34.755,70.992L34.755,71.371C34.722,71.345 34.69,71.32 34.658,71.294L34.658,71.109L34.755,70.992ZM34.755,70.352L34.755,70.958L34.658,70.877L34.658,70.266C34.69,70.295 34.722,70.323 34.755,70.352ZM34.755,56.549L34.755,57.568C34.722,57.597 34.69,57.626 34.658,57.655L34.658,57.045L34.692,57.015L34.658,56.974L34.658,56.624C34.69,56.6 34.722,56.575 34.755,56.549ZM36.189,71.364L36.189,72.259C36.096,72.213 36.002,72.164 35.911,72.114L36.074,71.831L35.731,71.632L35.566,71.918C35.449,71.846 35.332,71.773 35.218,71.697L35.405,71.43L35.081,71.203L34.892,71.471C34.846,71.439 34.8,71.405 34.755,71.371L34.755,70.992L34.772,70.972L34.755,70.958L34.755,70.352C35.196,70.738 35.676,71.077 36.189,71.364ZM36.189,55.673L36.189,56.556C35.676,56.843 35.196,57.183 34.755,57.568L34.755,56.549C34.773,56.536 34.79,56.524 34.807,56.51L34.994,56.777L35.32,56.551L35.131,56.281C35.243,56.203 35.361,56.128 35.478,56.057L35.641,56.341L35.984,56.142L35.819,55.857C35.939,55.791 36.062,55.726 36.184,55.663L36.189,55.673ZM37.683,72.021L37.683,72.849C37.586,72.821 37.489,72.79 37.393,72.758L37.505,72.45L37.133,72.315L37.021,72.624C36.892,72.574 36.765,72.524 36.639,72.467L36.776,72.172L36.416,72.004L36.277,72.303C36.248,72.289 36.219,72.274 36.189,72.259L36.189,71.364C36.661,71.629 37.16,71.85 37.683,72.021ZM37.683,55.071L37.683,55.899C37.16,56.071 36.661,56.291 36.189,56.556L36.189,55.673L36.323,55.96L36.681,55.792L36.542,55.493C36.668,55.437 36.795,55.383 36.924,55.332L37.036,55.641L37.408,55.505L37.294,55.196C37.423,55.152 37.552,55.11 37.683,55.071ZM38.43,72.228L38.43,73.038C38.343,73.019 38.257,73.001 38.172,72.98L38.255,72.664L37.873,72.561L37.788,72.88C37.752,72.87 37.717,72.86 37.683,72.849L37.683,72.021C37.927,72.101 38.177,72.17 38.43,72.228ZM38.43,54.882L38.43,55.692C38.177,55.75 37.927,55.819 37.683,55.899L37.683,55.071C37.685,55.071 37.686,55.071 37.688,55.069L37.773,55.387L38.157,55.283L38.07,54.966C38.189,54.935 38.309,54.908 38.43,54.882ZM39.17,72.362L39.17,73.16C39.102,73.152 39.034,73.143 38.966,73.133L39.022,72.812L38.632,72.743L38.576,73.067C38.527,73.057 38.479,73.048 38.43,73.038L38.43,72.228C38.673,72.284 38.919,72.328 39.17,72.362ZM39.17,54.76L39.17,55.558C38.919,55.592 38.673,55.636 38.43,55.692L38.43,54.882C38.445,54.879 38.459,54.876 38.472,54.874L38.53,55.196L38.92,55.127L38.863,54.803C38.965,54.787 39.066,54.772 39.17,54.76ZM39.908,72.432L39.908,73.223C39.862,73.221 39.817,73.218 39.771,73.216L39.798,72.892L39.404,72.856L39.375,73.184C39.308,73.177 39.238,73.17 39.17,73.16L39.17,72.362C39.413,72.396 39.659,72.42 39.908,72.432ZM39.908,54.697L39.908,55.488C39.659,55.5 39.413,55.524 39.17,55.558L39.17,54.76C39.204,54.755 39.238,54.752 39.272,54.748L39.301,55.072L39.696,55.039L39.667,54.711C39.747,54.706 39.829,54.701 39.908,54.697ZM40.852,72.425L40.852,73.218C40.761,73.223 40.671,73.226 40.579,73.23L40.579,72.904L40.183,72.904L40.183,73.231C40.092,73.23 40,73.226 39.908,73.223L39.908,72.432C40.049,72.439 40.189,72.442 40.33,72.442C40.506,72.442 40.679,72.437 40.852,72.425ZM40.852,54.702L40.852,55.495C40.679,55.483 40.506,55.478 40.33,55.478C40.189,55.478 40.049,55.482 39.908,55.488L39.908,54.697C39.966,54.694 40.022,54.692 40.08,54.691L40.08,55.017L40.475,55.017L40.475,54.689C40.601,54.691 40.727,54.695 40.852,54.702ZM41.774,72.32L41.774,72.787L41.738,72.794L41.774,72.995L41.774,73.121C41.645,73.14 41.516,73.158 41.387,73.172L41.358,72.848L40.963,72.883L40.992,73.209C40.946,73.213 40.898,73.216 40.852,73.218L40.852,72.425C41.165,72.406 41.472,72.371 41.774,72.32ZM41.774,55.134L41.774,55.6C41.472,55.549 41.165,55.514 40.852,55.495L40.852,54.702C40.864,54.702 40.876,54.704 40.888,54.704L40.859,55.028L41.255,55.064L41.283,54.735C41.421,54.75 41.557,54.767 41.693,54.787L41.637,55.11L41.774,55.134ZM41.774,73.121C41.781,73.119 41.788,73.118 41.796,73.118L41.774,72.995L41.774,73.121ZM42.344,72.201L42.344,73.012C42.292,73.024 42.239,73.036 42.185,73.046L42.129,72.726L41.774,72.787L41.774,72.32C41.966,72.286 42.158,72.247 42.344,72.201ZM42.344,54.908L42.344,55.719C42.158,55.673 41.966,55.634 41.774,55.6L41.774,55.134L42.025,55.178L42.083,54.853C42.171,54.871 42.258,54.888 42.344,54.908ZM42.881,72.052L42.881,72.535L42.502,72.637L42.589,72.955C42.507,72.975 42.426,72.995 42.344,73.012L42.344,72.201C42.526,72.157 42.704,72.108 42.881,72.052ZM42.881,55.042L42.881,55.869C42.704,55.813 42.526,55.763 42.344,55.719L42.344,54.908C42.392,54.918 42.44,54.928 42.487,54.94L42.402,55.256L42.784,55.359L42.871,55.04C42.874,55.04 42.878,55.042 42.881,55.042ZM42.915,72.04L42.915,72.647L42.886,72.535L42.881,72.535L42.881,72.052C42.893,72.048 42.905,72.043 42.915,72.04ZM42.915,55.052L42.915,55.881C42.905,55.876 42.893,55.872 42.881,55.869L42.881,55.042C42.893,55.045 42.905,55.049 42.915,55.052ZM43.721,71.736L43.721,72.547L43.623,72.279L43.251,72.415L43.363,72.724C43.234,72.77 43.103,72.812 42.971,72.851L42.915,72.647L42.915,72.04C43.19,71.953 43.458,71.851 43.721,71.736ZM43.721,55.327L43.721,56.183C43.458,56.069 43.19,55.967 42.915,55.881L42.915,55.052C43.034,55.086 43.149,55.123 43.265,55.162L43.154,55.47L43.526,55.605L43.638,55.295C43.665,55.307 43.694,55.317 43.721,55.327ZM46.322,69.964L46.322,70.714L46.269,70.651L45.967,70.906L46.178,71.157C46.071,71.244 45.962,71.328 45.852,71.41L45.663,71.143L45.339,71.371L45.527,71.639C45.414,71.717 45.298,71.792 45.181,71.863L45.018,71.581L44.675,71.778L44.84,72.063C44.719,72.131 44.597,72.196 44.475,72.257L44.336,71.962L43.978,72.128L44.117,72.427C43.991,72.483 43.864,72.537 43.735,72.588L43.721,72.547L43.721,71.736C44.697,71.31 45.578,70.705 46.322,69.964ZM46.322,57.045L46.189,57.203L45.887,56.948L46.096,56.699C45.989,56.612 45.879,56.529 45.767,56.449L45.578,56.717L45.254,56.49L45.441,56.223C45.327,56.147 45.21,56.074 45.093,56.003L44.928,56.288L44.585,56.089L44.748,55.806C44.628,55.74 44.506,55.677 44.382,55.617L44.241,55.916L43.883,55.748L44.02,55.451C43.922,55.409 43.821,55.366 43.721,55.327L43.721,56.183C44.697,56.61 45.578,57.215 46.322,57.957L46.322,57.045ZM46.783,69.463L46.783,70.154L46.549,70.388L46.782,70.619C46.683,70.716 46.582,70.809 46.48,70.901L46.322,70.714L46.322,69.964C46.483,69.802 46.638,69.636 46.783,69.463ZM46.783,57.712L46.783,58.458C46.638,58.284 46.483,58.118 46.322,57.957L46.322,57.045L46.402,56.952C46.505,57.042 46.607,57.133 46.707,57.228L46.476,57.459L46.756,57.739L46.783,57.712ZM47.697,68.166L47.697,69.03L47.571,69.21L47.697,69.298L47.697,69.59C47.663,69.636 47.627,69.682 47.592,69.728L47.34,69.519L47.086,69.821L47.339,70.033C47.249,70.137 47.155,70.239 47.06,70.337L46.831,70.108L46.783,70.154L46.783,69.463C47.127,69.061 47.434,68.628 47.697,68.166ZM47.697,58.329L47.697,58.495L47.512,58.626L47.697,58.89L47.697,59.754C47.434,59.293 47.127,58.86 46.783,58.458L46.783,57.712L46.989,57.507C47.084,57.607 47.177,57.707 47.269,57.811L47.02,58.019L47.274,58.323L47.525,58.113C47.585,58.184 47.641,58.255 47.697,58.329ZM47.697,58.495L47.697,58.329C47.726,58.366 47.753,58.402 47.78,58.437L47.697,58.495ZM47.697,69.59L47.697,69.298L47.841,69.398C47.794,69.463 47.746,69.527 47.697,69.59ZM48.709,65.285L48.709,67.086L48.683,67.156L48.709,67.166L48.709,67.592L48.541,67.514L48.373,67.872L48.673,68.011C48.612,68.135 48.549,68.259 48.485,68.38L48.199,68.215L48.001,68.558L48.288,68.723C48.216,68.842 48.143,68.959 48.067,69.072L47.799,68.885L47.697,69.03L47.697,68.166C48.198,67.292 48.547,66.319 48.709,65.285ZM48.709,60.214L48.496,60.313L48.33,59.955L48.627,59.816C48.564,59.692 48.5,59.569 48.434,59.451L48.147,59.615L47.95,59.272L48.233,59.108C48.16,58.99 48.086,58.875 48.009,58.761L47.739,58.95L47.697,58.89L47.697,59.754C48.198,60.629 48.547,61.601 48.709,62.635L48.709,60.834L48.648,60.666L48.709,60.644L48.709,60.214ZM48.709,60.644L48.709,60.214L48.797,60.174C48.853,60.298 48.906,60.425 48.956,60.554L48.709,60.644ZM48.968,67.259L48.968,67.337C48.926,67.443 48.883,67.548 48.838,67.651L48.709,67.592L48.709,67.166L48.968,67.259ZM48.968,60.972L48.968,61.388L48.904,61.404L48.968,61.646L48.968,66.276L48.929,66.416L48.968,66.426L48.968,66.838L48.819,66.784L48.709,67.086L48.709,65.285C48.777,64.852 48.812,64.411 48.812,63.959C48.812,63.51 48.777,63.066 48.709,62.635L48.709,60.834L48.783,61.039L48.968,60.972ZM48.968,61.388L48.968,60.972L49.094,60.926C49.14,61.055 49.181,61.187 49.22,61.32L48.968,61.388ZM48.968,66.838L48.968,66.426L49.25,66.502C49.213,66.635 49.17,66.765 49.128,66.896L48.968,66.838ZM48.968,67.337L48.968,67.259L48.994,67.269C48.985,67.292 48.977,67.314 48.968,67.337ZM49.447,62.501L49.447,62.912L49.218,62.932L49.252,63.326L49.447,63.309L49.447,63.71L49.274,63.711L49.272,64.107L49.447,64.107L49.447,64.508L49.261,64.491L49.227,64.885L49.447,64.905L49.447,65.314L49.181,65.268L49.111,65.657L49.437,65.715C49.41,65.85 49.381,65.985 49.35,66.119L49.033,66.034L48.968,66.276L48.968,61.646L49.006,61.786L49.325,61.702C49.359,61.834 49.389,61.968 49.417,62.104L49.094,62.162L49.162,62.55L49.447,62.501ZM49.447,62.912L49.447,62.501L49.486,62.494C49.508,62.63 49.527,62.766 49.542,62.903L49.447,62.912ZM49.447,65.314L49.447,64.905L49.554,64.913C49.541,65.051 49.522,65.188 49.503,65.324L49.447,65.314ZM49.591,64.107L49.591,64.421C49.59,64.453 49.588,64.486 49.585,64.519L49.447,64.508L49.447,64.107L49.591,64.107ZM49.591,63.492L49.591,63.71L49.447,63.71L49.447,63.309L49.58,63.297C49.583,63.362 49.588,63.428 49.591,63.492ZM49.591,63.71L49.591,63.492C49.595,63.565 49.598,63.637 49.6,63.71L49.591,63.71ZM49.591,64.421L49.591,64.107L49.602,64.107C49.6,64.212 49.596,64.316 49.591,64.421Z" style="fill:rgb(26,90,169);"/>
        </g>
        <g transform="matrix(3.74064,0,0,3.74065,-73.9973,-160.902)">
            <path d="M41.396,71.224C41.396,71.281 41.409,71.326 41.436,71.358C41.462,71.389 41.493,71.405 41.527,71.405C41.56,71.405 41.587,71.392 41.609,71.366C41.631,71.341 41.642,71.298 41.642,71.24C41.642,71.179 41.63,71.135 41.607,71.107C41.583,71.079 41.553,71.065 41.518,71.065C41.484,71.065 41.455,71.078 41.431,71.105C41.407,71.132 41.396,71.171 41.396,71.224ZM41.799,70.836L41.627,70.855C41.623,70.819 41.612,70.793 41.594,70.776C41.576,70.759 41.553,70.751 41.525,70.751C41.487,70.751 41.456,70.768 41.43,70.801C41.404,70.835 41.387,70.905 41.38,71.012C41.425,70.96 41.48,70.934 41.546,70.934C41.62,70.934 41.684,70.962 41.737,71.019C41.79,71.075 41.816,71.148 41.816,71.238C41.816,71.333 41.788,71.409 41.733,71.466C41.677,71.524 41.605,71.552 41.518,71.552C41.424,71.552 41.347,71.516 41.287,71.443C41.226,71.37 41.196,71.251 41.196,71.085C41.196,70.915 41.228,70.792 41.291,70.717C41.353,70.642 41.435,70.605 41.536,70.605C41.606,70.605 41.664,70.624 41.711,70.664C41.757,70.703 41.786,70.76 41.799,70.836ZM40.622,70.933C40.622,70.876 40.609,70.831 40.583,70.8C40.556,70.768 40.526,70.752 40.491,70.752C40.458,70.752 40.431,70.765 40.409,70.791C40.387,70.817 40.376,70.86 40.376,70.919C40.376,70.979 40.388,71.022 40.412,71.051C40.436,71.079 40.465,71.093 40.501,71.093C40.535,71.093 40.564,71.079 40.587,71.052C40.61,71.025 40.622,70.986 40.622,70.933ZM40.219,71.322L40.392,71.303C40.396,71.338 40.407,71.364 40.425,71.381C40.442,71.398 40.466,71.406 40.495,71.406C40.532,71.406 40.563,71.389 40.589,71.355C40.614,71.322 40.631,71.252 40.638,71.145C40.593,71.197 40.537,71.223 40.47,71.223C40.397,71.223 40.334,71.195 40.281,71.138C40.228,71.082 40.202,71.009 40.202,70.919C40.202,70.824 40.23,70.749 40.286,70.691C40.342,70.633 40.413,70.605 40.499,70.605C40.593,70.605 40.671,70.641 40.731,70.714C40.792,70.787 40.822,70.906 40.822,71.073C40.822,71.243 40.79,71.365 40.727,71.44C40.664,71.516 40.583,71.553 40.482,71.553C40.409,71.553 40.35,71.534 40.306,71.495C40.261,71.457 40.232,71.399 40.219,71.322ZM39.425,70.857C39.425,70.892 39.435,70.92 39.455,70.94C39.475,70.959 39.501,70.969 39.535,70.969C39.568,70.969 39.595,70.959 39.616,70.939C39.636,70.919 39.646,70.891 39.646,70.856C39.646,70.823 39.636,70.796 39.616,70.776C39.596,70.756 39.57,70.746 39.536,70.746C39.502,70.746 39.475,70.756 39.455,70.776C39.435,70.796 39.425,70.823 39.425,70.857ZM39.408,71.254C39.408,71.303 39.421,71.341 39.446,71.369C39.471,71.396 39.502,71.41 39.54,71.41C39.576,71.41 39.607,71.397 39.631,71.37C39.655,71.344 39.667,71.306 39.667,71.256C39.667,71.213 39.655,71.178 39.63,71.151C39.606,71.125 39.575,71.112 39.537,71.112C39.494,71.112 39.461,71.127 39.44,71.157C39.419,71.187 39.408,71.219 39.408,71.254ZM39.388,71.036C39.342,71.016 39.308,70.99 39.287,70.956C39.267,70.922 39.256,70.884 39.256,70.844C39.256,70.775 39.28,70.717 39.329,70.672C39.377,70.627 39.446,70.605 39.535,70.605C39.623,70.605 39.691,70.627 39.74,70.672C39.789,70.717 39.813,70.775 39.813,70.844C39.813,70.887 39.802,70.925 39.78,70.959C39.757,70.992 39.726,71.018 39.685,71.036C39.737,71.056 39.776,71.087 39.803,71.126C39.83,71.166 39.843,71.212 39.843,71.264C39.843,71.349 39.816,71.419 39.761,71.473C39.706,71.526 39.634,71.553 39.543,71.553C39.458,71.553 39.388,71.531 39.332,71.487C39.266,71.434 39.233,71.363 39.233,71.271C39.233,71.221 39.245,71.175 39.27,71.133C39.295,71.091 39.334,71.059 39.388,71.036ZM38.71,71.537L38.532,71.537L38.532,70.866C38.467,70.927 38.39,70.972 38.302,71.001L38.302,70.839C38.349,70.824 38.399,70.795 38.454,70.753C38.508,70.711 38.545,70.661 38.566,70.605L38.71,70.605L38.71,71.537Z" style="fill:rgb(26,90,169);"/>
        </g>
        <g transform="matrix(3.74064,0,0,3.74065,-73.9973,-160.902)">
            <path d="M46.783,68.047L46.783,66.312L47.014,66.219L47.014,65.502L46.785,65.372L46.783,65.372L46.783,64.151L47.014,64.058L47.014,63.341L46.785,63.209L46.783,63.211L46.783,61.997L47.038,61.997L47.038,62.564C46.999,62.567 46.962,62.572 46.924,62.576L46.924,62.813L47.235,62.99L47.233,64.407L46.924,64.533L46.924,64.975L47.235,65.153L47.233,66.568L46.924,66.694L46.924,68.047L46.783,68.047Z" style="fill:rgb(26,90,169);"/>
        </g>
        <g transform="matrix(3.74064,0,0,3.74065,-73.9973,-160.902)">
            <path d="M46.783,61.997L46.783,63.211L46.554,63.341L46.554,64.058L46.783,64.151L46.783,65.372L46.554,65.502L46.554,66.219L46.783,66.312L46.783,68.047L46.624,68.047L46.624,66.691L46.325,66.568L46.325,65.151L46.624,64.981L46.624,64.528L46.325,64.407L46.325,62.99L46.624,62.82L46.624,62.613C46.522,62.628 46.422,62.645 46.322,62.666L46.322,61.997L46.783,61.997Z" style="fill:rgb(26,90,169);"/>
        </g>
        <g transform="matrix(3.74064,0,0,3.74065,-73.9973,-160.902)">
            <path d="M46.322,61.997L46.322,62.666C45.541,62.827 44.826,63.129 44.212,63.472L44.212,61.997L46.322,61.997Z" style="fill:rgb(26,90,169);"/>
        </g>
        <g transform="matrix(3.74064,0,0,3.74065,-73.9973,-160.902)">
            <path d="M43.721,63.769L43.721,61.803L43.945,61.803L43.945,63.625C43.867,63.674 43.792,63.722 43.721,63.769Z" style="fill:rgb(26,90,169);"/>
        </g>
        <g transform="matrix(3.74064,0,0,3.74065,-73.9973,-160.902)">
            <path d="M43.721,61.537L43.721,59.654L44.368,61.045L43.843,61.537L43.721,61.537Z" style="fill:rgb(26,90,169);"/>
        </g>
        <g transform="matrix(3.74064,0,0,3.74065,-73.9973,-160.902)">
            <path d="M43.721,59.654L43.721,61.537L42.915,61.54L42.915,57.926L43.721,59.654Z" style="fill:rgb(26,90,169);"/>
        </g>
        <g transform="matrix(3.74064,0,0,3.74065,-73.9973,-160.902)">
            <path d="M43.721,61.803L43.721,63.769C43.643,63.818 43.568,63.869 43.495,63.918L43.495,61.803L43.721,61.803Z" style="fill:rgb(26,90,169);"/>
        </g>
        <g transform="matrix(3.74064,0,0,3.74065,-73.9973,-160.902)">
            <path d="M42.915,64.339L42.915,61.803L43.129,61.803L43.129,64.178C43.054,64.234 42.983,64.287 42.915,64.339Z" style="fill:rgb(26,90,169);"/>
        </g>
        <g transform="matrix(3.74064,0,0,3.74065,-73.9973,-160.902)">
            <path d="M42.915,57.926L42.915,61.54L42.881,61.54L42.881,57.853L42.915,57.926Z" style="fill:rgb(26,90,169);"/>
        </g>
        <g transform="matrix(3.74064,0,0,3.74065,-73.9973,-160.902)">
            <path d="M42.915,61.803L42.915,64.339C42.905,64.348 42.893,64.356 42.881,64.365L42.881,61.803L42.915,61.803Z" style="fill:rgb(26,90,169);"/>
        </g>
        <g transform="matrix(3.74064,0,0,3.74065,-73.9973,-160.902)">
            <path d="M42.881,57.853L42.881,61.54L42.816,61.542L42.344,60.403L42.344,57.566L42.682,57.427L42.881,57.853Z" style="fill:rgb(26,90,169);"/>
        </g>
        <g transform="matrix(3.74064,0,0,3.74065,-73.9973,-160.902)">
            <path d="M42.881,61.803L42.881,64.365C42.662,64.537 42.485,64.689 42.344,64.815L42.344,61.803L42.881,61.803Z" style="fill:rgb(26,90,169);"/>
        </g>
        <g transform="matrix(3.74064,0,0,3.74065,-73.9973,-160.902)">
            <path d="M42.344,67.879L42.344,66.952L42.653,67.334L42.653,67.879L42.344,67.879Z" style="fill:rgb(26,90,169);"/>
        </g>
        <g transform="matrix(3.74064,0,0,3.74065,-73.9973,-160.902)">
            <path d="M42.344,57.566L42.344,60.403L41.884,59.289L41.891,57.755L42.344,57.566Z" style="fill:rgb(26,90,169);"/>
        </g>
        <g transform="matrix(3.74064,0,0,3.74065,-73.9973,-160.902)">
            <path d="M42.344,61.803L42.344,64.815C42.07,65.066 41.942,65.219 41.942,65.219L41.774,65.219L41.774,61.803L42.344,61.803Z" style="fill:rgb(26,90,169);"/>
        </g>
        <g transform="matrix(3.74064,0,0,3.74065,-73.9973,-160.902)">
            <path d="M42.344,66.952L42.344,67.879L41.774,67.879L41.774,66.594L42.054,66.594L42.344,66.952Z" style="fill:rgb(26,90,169);"/>
        </g>
        <g transform="matrix(3.74064,0,0,3.74065,-73.9973,-160.902)">
            <rect x="41.774" y="65.623" width="0.236" height="0.633" style="fill:rgb(26,90,169);"/>
        </g>
        <g transform="matrix(3.74064,0,0,3.74065,-73.9973,-160.902)">
            <path d="M40.852,65.219L41.774,65.219L41.774,61.803L40.852,61.803L40.852,65.219Z" style="fill:rgb(26,90,169);"/>
        </g>
        <g transform="matrix(3.74064,0,0,3.74065,-73.9973,-160.902)">
            <rect x="40.852" y="65.623" width="0.922" height="0.633" style="fill:rgb(26,90,169);"/>
        </g>
        <g transform="matrix(3.74064,0,0,3.74065,-73.9973,-160.902)">
            <path d="M40.852,67.879L41.774,67.879L41.774,66.594L40.852,66.594L40.852,67.879Z" style="fill:rgb(26,90,169);"/>
        </g>
        <g transform="matrix(3.74064,0,0,3.74065,-73.9973,-160.902)">
            <rect x="40.852" y="56.95" width="0.833" height="4.575" style="fill:rgb(26,90,169);"/>
        </g>
        <g transform="matrix(3.74064,0,0,3.74065,-73.9973,-160.902)">
            <path d="M40.85,61.525L40.852,61.525L40.852,56.95L40.85,56.95L40.85,61.525Z" style="fill:rgb(26,90,169);"/>
        </g>
        <g transform="matrix(3.74064,0,0,3.74065,-73.9973,-160.902)">
            <rect x="39.908" y="61.803" width="0.944" height="3.416" style="fill:rgb(26,90,169);"/>
        </g>
        <g transform="matrix(3.74064,0,0,3.74065,-73.9973,-160.902)">
            <rect x="39.908" y="65.623" width="0.944" height="0.633" style="fill:rgb(26,90,169);"/>
        </g>
        <g transform="matrix(3.74064,0,0,3.74065,-73.9973,-160.902)">
            <rect x="39.908" y="66.594" width="0.944" height="1.285" style="fill:rgb(26,90,169);"/>
        </g>
        <g transform="matrix(3.74064,0,0,3.74065,-73.9973,-160.902)">
            <rect x="39.908" y="56.926" width="0.643" height="4.599" style="fill:rgb(26,90,169);"/>
        </g>
        <g transform="matrix(3.74064,0,0,3.74065,-73.9973,-160.902)">
            <path d="M39.345,61.525L39.908,61.525L39.908,56.926L39.345,56.926L39.345,61.525Z" style="fill:rgb(26,90,169);"/>
        </g>
        <g transform="matrix(3.74064,0,0,3.74065,-73.9973,-160.902)">
            <rect x="39.17" y="61.803" width="0.739" height="3.416" style="fill:rgb(26,90,169);"/>
        </g>
        <g transform="matrix(3.74064,0,0,3.74065,-73.9973,-160.902)">
            <rect x="39.17" y="65.623" width="0.739" height="0.633" style="fill:rgb(26,90,169);"/>
        </g>
        <g transform="matrix(3.74064,0,0,3.74065,-73.9973,-160.902)">
            <rect x="39.17" y="66.594" width="0.739" height="1.285" style="fill:rgb(26,90,169);"/>
        </g>
        <g transform="matrix(3.74064,0,0,3.74065,-73.9973,-160.902)">
            <rect x="39.17" y="60.987" width="0.032" height="0.694" style="fill:rgb(26,90,169);"/>
        </g>
        <g transform="matrix(3.74064,0,0,3.74065,-73.9973,-160.902)">
            <rect x="39.17" y="60.199" width="0.032" height="0.694" style="fill:rgb(26,90,169);"/>
        </g>
        <g transform="matrix(3.74064,0,0,3.74065,-73.9973,-160.902)">
            <rect x="39.17" y="59.4" width="0.032" height="0.728" style="fill:rgb(26,90,169);"/>
        </g>
        <g transform="matrix(3.74064,0,0,3.74065,-73.9973,-160.902)">
            <path d="M39.17,59.194L39.17,57.325C39.182,57.313 39.195,57.3 39.207,57.286L39.207,59.194L39.17,59.194Z" style="fill:rgb(26,90,169);"/>
        </g>
        <g transform="matrix(3.74064,0,0,3.74065,-73.9973,-160.902)">
            <path d="M39.17,57.325L39.17,59.194L38.43,59.194L38.43,57.846C38.673,57.733 38.931,57.568 39.17,57.325Z" style="fill:rgb(26,90,169);"/>
        </g>
        <g transform="matrix(3.74064,0,0,3.74065,-73.9973,-160.902)">
            <rect x="38.43" y="59.4" width="0.74" height="0.728" style="fill:rgb(26,90,169);"/>
        </g>
        <g transform="matrix(3.74064,0,0,3.74065,-73.9973,-160.902)">
            <rect x="38.43" y="60.199" width="0.74" height="0.694" style="fill:rgb(26,90,169);"/>
        </g>
        <g transform="matrix(3.74064,0,0,3.74065,-73.9973,-160.902)">
            <rect x="38.43" y="60.987" width="0.74" height="0.694" style="fill:rgb(26,90,169);"/>
        </g>
        <g transform="matrix(3.74064,0,0,3.74065,-73.9973,-160.902)">
            <rect x="38.43" y="61.803" width="0.74" height="3.416" style="fill:rgb(26,90,169);"/>
        </g>
        <g transform="matrix(3.74064,0,0,3.74065,-73.9973,-160.902)">
            <rect x="38.43" y="65.623" width="0.74" height="0.633" style="fill:rgb(26,90,169);"/>
        </g>
        <g transform="matrix(3.74064,0,0,3.74065,-73.9973,-160.902)">
            <rect x="38.43" y="66.594" width="0.74" height="1.285" style="fill:rgb(26,90,169);"/>
        </g>
        <g transform="matrix(3.74064,0,0,3.74065,-73.9973,-160.902)">
            <path d="M38.43,57.846L38.43,59.194L37.683,59.194L37.683,58.069C37.865,58.043 38.134,57.984 38.43,57.846Z" style="fill:rgb(26,90,169);"/>
        </g>
        <g transform="matrix(3.74064,0,0,3.74065,-73.9973,-160.902)">
            <rect x="37.683" y="59.4" width="0.747" height="0.728" style="fill:rgb(26,90,169);"/>
        </g>
        <g transform="matrix(3.74064,0,0,3.74065,-73.9973,-160.902)">
            <rect x="37.683" y="60.199" width="0.747" height="0.694" style="fill:rgb(26,90,169);"/>
        </g>
        <g transform="matrix(3.74064,0,0,3.74065,-73.9973,-160.902)">
            <path d="M38.43,60.987L38.43,61.681L38.33,61.681L38.331,61.676L37.683,61.415L37.683,60.987L38.43,60.987Z" style="fill:rgb(26,90,169);"/>
        </g>
        <g transform="matrix(3.74064,0,0,3.74065,-73.9973,-160.902)">
            <path d="M38.43,61.803L38.43,65.219L37.936,65.219L37.683,65.073L37.683,63.876L38.308,61.803L38.43,61.803Z" style="fill:rgb(26,90,169);"/>
        </g>
        <g transform="matrix(3.74064,0,0,3.74065,-73.9973,-160.902)">
            <rect x="38.199" y="65.623" width="0.231" height="0.633" style="fill:rgb(26,90,169);"/>
        </g>
        <g transform="matrix(3.74064,0,0,3.74065,-73.9973,-160.902)">
            <path d="M38.43,66.594L38.43,67.879L37.683,67.879L37.683,67.045L38.034,66.594L38.43,66.594Z" style="fill:rgb(26,90,169);"/>
        </g>
        <g transform="matrix(3.74064,0,0,3.74065,-73.9973,-160.902)">
            <path d="M37.683,62.788L37.99,61.803L37.683,61.674L37.683,62.788Z" style="fill:rgb(26,90,169);"/>
        </g>
        <g transform="matrix(3.74064,0,0,3.74065,-73.9973,-160.902)">
            <path d="M37.683,58.069L37.683,59.194L36.189,59.194L36.189,58.76C36.342,58.62 36.866,58.181 37.45,58.089C37.45,58.089 37.539,58.091 37.683,58.069Z" style="fill:rgb(26,90,169);"/>
        </g>
        <g transform="matrix(3.74064,0,0,3.74065,-73.9973,-160.902)">
            <rect x="36.717" y="59.4" width="0.966" height="0.728" style="fill:rgb(26,90,169);"/>
        </g>
        <g transform="matrix(3.74064,0,0,3.74065,-73.9973,-160.902)">
            <rect x="36.717" y="60.199" width="0.966" height="0.694" style="fill:rgb(26,90,169);"/>
        </g>
        <g transform="matrix(3.74064,0,0,3.74065,-73.9973,-160.902)">
            <path d="M37.683,60.987L37.683,61.415L37.401,61.303L37.276,61.681L36.717,61.681L36.717,60.987L37.683,60.987Z" style="fill:rgb(26,90,169);"/>
        </g>
        <g transform="matrix(3.74064,0,0,3.74065,-73.9973,-160.902)">
            <path d="M37.683,61.674L37.576,61.63L36.189,66.008L36.189,67.555L37.683,62.788L37.683,61.674Z" style="fill:rgb(26,90,169);"/>
        </g>
        <g transform="matrix(3.74064,0,0,3.74065,-73.9973,-160.902)">
            <path d="M37.683,63.876L37.683,65.073L37.374,64.898L37.683,63.876Z" style="fill:rgb(26,90,169);"/>
        </g>
        <g transform="matrix(3.74064,0,0,3.74065,-73.9973,-160.902)">
            <path d="M37.683,67.045L37.683,67.879L37.459,67.879L37.459,67.334L37.683,67.045Z" style="fill:rgb(26,90,169);"/>
        </g>
        <g transform="matrix(3.74064,0,0,3.74065,-73.9973,-160.902)">
            <path d="M37.683,69.792L36.909,69.792L36.909,68.215L37.683,68.215L37.683,69.792ZM38.43,69.792L37.683,69.792L37.683,68.215L38.43,68.215L38.43,69.792ZM39.17,69.792L38.43,69.792L38.43,68.215L39.17,68.215L39.17,69.792ZM39.908,69.792L39.17,69.792L39.17,68.215L39.908,68.215L39.908,69.792ZM40.852,69.792L39.908,69.792L39.908,68.215L40.852,68.215L40.852,69.792ZM41.774,69.792L40.852,69.792L40.852,68.215L41.774,68.215L41.774,69.792ZM42.344,69.792L41.774,69.792L41.774,68.215L42.344,68.215L42.344,69.792ZM42.881,69.792L42.344,69.792L42.344,68.215L42.881,68.215L42.881,69.792ZM42.915,69.792L42.881,69.792L42.881,68.215L42.915,68.215L42.915,69.792ZM42.915,68.215L43.298,68.215L43.298,69.792L42.915,69.792L42.915,68.215Z" style="fill:rgb(26,90,169);"/>
        </g>
        <g transform="matrix(3.74064,0,0,3.74065,-73.9973,-160.902)">
            <path d="M36.189,69.31L36.189,68.879L36.428,68.986L36.299,69.293C36.299,69.293 36.259,69.302 36.189,69.31Z" style="fill:rgb(26,90,169);"/>
        </g>
        <g transform="matrix(3.74064,0,0,3.74065,-73.9973,-160.902)">
            <path d="M36.189,64.219L36.189,61.803L37.216,61.803L36.423,64.353L36.189,64.219Z" style="fill:rgb(26,90,169);"/>
        </g>
        <g transform="matrix(3.74064,0,0,3.74065,-73.9973,-160.902)">
            <path d="M36.189,58.76L36.189,59.194L36.145,59.194L36.145,58.8C36.145,58.8 36.16,58.785 36.189,58.76Z" style="fill:rgb(26,90,169);"/>
        </g>
        <g transform="matrix(3.74064,0,0,3.74065,-73.9973,-160.902)">
            <path d="M36.189,61.803L36.189,64.219L35.649,63.91L35.649,61.803L36.189,61.803Z" style="fill:rgb(26,90,169);"/>
        </g>
        <g transform="matrix(3.74064,0,0,3.74065,-73.9973,-160.902)">
            <path d="M36.189,66.008L36.189,67.555L35.826,68.714L36.189,68.879L36.189,69.31C35.977,69.336 35.496,69.363 35.104,69.176L34.755,69.01L34.755,68.677L34.904,68.348L35.39,68.538L36.189,66.008Z" style="fill:rgb(26,90,169);"/>
        </g>
        <g transform="matrix(3.74064,0,0,3.74065,-73.9973,-160.902)">
            <path d="M34.755,63.408L34.755,61.805L35.464,61.805L35.464,63.829L34.755,63.408Z" style="fill:rgb(26,90,169);"/>
        </g>
        <g transform="matrix(3.74064,0,0,3.74065,-73.9973,-160.902)">
            <path d="M34.755,61.805L34.755,63.408L34.658,63.35L34.658,61.805L34.755,61.805Z" style="fill:rgb(26,90,169);"/>
        </g>
        <g transform="matrix(3.74064,0,0,3.74065,-73.9973,-160.902)">
            <path d="M34.755,68.677L34.755,69.01L34.658,68.962L34.658,68.894L34.755,68.677Z" style="fill:rgb(26,90,169);"/>
        </g>
        <g transform="matrix(3.74064,0,0,3.74065,-73.9973,-160.902)">
            <path d="M34.658,61.805L34.658,63.35L34.176,63.065L34.174,61.805L34.658,61.805Z" style="fill:rgb(26,90,169);"/>
        </g>
        <g transform="matrix(3.74064,0,0,3.74065,-73.9973,-160.902)">
            <path d="M34.658,68.894L34.658,68.962L34.632,68.95L34.658,68.894Z" style="fill:rgb(26,90,169);"/>
        </g>
    </g>
</svg>
