<?xml version="1.0" encoding="UTF-8" standalone="no"?>
<!DOCTYPE svg PUBLIC "-//W3C//DTD SVG 1.1//EN" "http://www.w3.org/Graphics/SVG/1.1/DTD/svg11.dtd">
<svg width="100%" height="100%" viewBox="0 0 157 157" version="1.1" xmlns="http://www.w3.org/2000/svg" xmlns:xlink="http://www.w3.org/1999/xlink" xml:space="preserve" xmlns:serif="http://www.serif.com/" style="fill-rule:evenodd;clip-rule:evenodd;">
    <g id="Layer1013" transform="matrix(0.543039,0,0,0.543039,-64.174,-65.3838)">
        <g id="Layer1014">
            <path id="path72" d="M354.807,264.962C354.807,315.812 313.584,357.034 262.734,357.034C211.882,357.034 170.658,315.812 170.658,264.962C170.658,214.108 211.882,172.887 262.734,172.887C313.584,172.887 354.807,214.108 354.807,264.962Z" style="fill:white;stroke:rgb(0,67,148);stroke-width:0.2px;"/>
            <path id="path74" d="M262.734,175.73C213.454,175.73 173.502,215.678 173.502,264.96C173.502,314.242 213.454,354.188 262.734,354.188C312.013,354.188 351.967,314.242 351.967,264.96C351.967,215.678 312.013,175.73 262.734,175.73ZM261.934,330.418C226.223,330.418 197.275,301.47 197.275,265.761C197.275,230.051 226.223,201.102 261.934,201.102C297.642,201.102 326.589,230.051 326.589,265.761C326.589,301.47 297.642,330.418 261.934,330.418Z" style="fill:rgb(0,67,148);"/>
            <path id="path76" d="M243.664,263.984L259.009,275.356L248.975,291.613L220.45,297.099L205.1,285.727L215.135,269.471L243.664,263.984Z" style="fill:rgb(0,67,148);"/>
            <path id="path78" d="M251.703,280.645L269.226,273.038L278.287,289.857L268.772,317.305L251.25,324.913L242.19,308.093L251.703,280.645Z" style="fill:rgb(0,67,148);"/>
            <path id="path80" d="M269.984,282.365L272.157,263.389L291.25,263.951L310.266,285.911L308.091,304.892L288.997,304.327L269.984,282.365Z" style="fill:rgb(0,67,148);"/>
            <path id="path82" d="M280.717,267.06L265.371,255.686L275.405,239.429L303.93,233.944L319.28,245.315L309.247,261.57L280.717,267.06Z" style="fill:rgb(0,67,148);"/>
            <path id="path84" d="M267.987,265.597C267.987,268.988 265.238,271.735 261.849,271.735C258.459,271.735 255.713,268.988 255.713,265.597C255.713,262.21 258.459,259.46 261.849,259.46C265.238,259.46 267.987,262.21 267.987,265.597Z" style="fill:rgb(0,67,148);"/>
            <path id="path86" d="M243.53,274.833C245.159,273.893 247.24,274.45 248.181,276.081C249.12,277.708 248.562,279.79 246.934,280.727C245.306,281.667 243.225,281.112 242.288,279.483C241.346,277.856 241.904,275.773 243.53,274.833Z" style="fill:white;"/>
            <path id="path88" d="M260.556,286.434C260.553,284.555 262.078,283.031 263.961,283.033C265.834,283.033 267.364,284.557 267.364,286.434C267.364,288.315 265.834,289.839 263.961,289.839C262.078,289.839 260.556,288.315 260.556,286.434Z" style="fill:white;"/>
            <path id="path90" d="M279.486,277.307C277.859,276.368 277.303,274.284 278.244,272.656C279.18,271.031 281.26,270.473 282.891,271.414C284.518,272.353 285.076,274.434 284.134,276.06C283.196,277.69 281.112,278.245 279.486,277.307Z" style="fill:white;"/>
            <path id="path92" d="M280.836,256.391C279.208,257.33 277.128,256.773 276.187,255.142C275.247,253.516 275.806,251.436 277.435,250.497C279.061,249.557 281.145,250.114 282.08,251.741C283.022,253.367 282.463,255.45 280.836,256.391Z" style="fill:white;"/>
            <path id="path94" d="M323.885,265.761C323.885,299.973 296.147,327.71 261.934,327.71C227.72,327.71 199.985,299.973 199.985,265.761C199.985,231.547 227.72,203.813 261.934,203.813C296.147,203.813 323.885,231.547 323.885,265.761Z" style="fill:none;fill-rule:nonzero;stroke:rgb(0,67,148);stroke-width:0.2px;"/>
            <path id="path96" d="M199.67,238.993L199.287,238.845L198.998,238.665L198.494,238.279L197.506,237.884L197.54,237.757L197.285,237.689L197.222,237.401L196.525,236.945L196.464,236.66L196.083,236.558L196.116,236.431L195.861,236.366L195.895,236.237L195.546,236.01L195.546,235.803L195.525,235.7L195.438,235.628L195.263,235.527L195.048,235.335L194.767,235.22L194.465,235.122L194.181,234.969L194.213,234.842L193.959,234.777L193.805,234.328L193.549,234.262L193.524,233.844L193.301,233.651L193.366,233.396L193.24,233.365L193.305,233.11L193.178,233.076L193.381,232.307L193.251,232.276L193.385,231.764L192.974,231.25L193.042,230.997L192.913,230.963L192.979,230.706L192.853,230.673L192.826,230.256L192.645,230.249L192.536,230.318L192.412,230.282L192.179,231.177L192.222,231.412L192.182,231.714L192.004,232.357L191.272,232.031L191.113,231.583L190.988,231.546L191.055,231.29L190.833,231.096L190.84,230.556L190.618,230.36L190.685,230.106L190.559,230.073L190.657,229.689L190.435,229.497L190.504,229.243L190.375,229.207L190.38,228.664L190.255,228.631L190.354,228.249L190.131,228.052L190.233,227.673L190.104,227.636L190.174,227.382L189.95,227.188L190.014,226.933L189.921,226.823L189.784,226.749L189.412,226.639L189.302,226.707L189.124,226.699L188.949,226.939L188.75,227.117L188.379,227.46L188.247,227.967L188.12,227.935L187.574,231.064L186.426,230.759L186.459,230.634L186.076,230.533L186.111,230.41L185.486,230.132L185.124,230.057L184.834,230.073L184.802,230.201L184.39,230.525L184.125,230.839L183.97,230.965L183.762,231.056L183.473,231.111L183.063,231.109L182.791,231.514L182.544,232.062L182.669,232.337L182.756,232.642L182.872,232.931L183.076,233.156L183.243,233.239L183.389,233.265L183.645,233.206L183.863,233.083L184.069,233.006L184.707,233.174L186.262,233.806L187.599,234.611L187.627,235.027L187.756,235.06L187.652,235.444L187.875,235.64L187.811,235.889L187.934,235.927L187.873,236.181L188.093,236.376L188.086,236.92L188.402,237.274L188.336,237.529L188.558,237.724L188.49,237.979L188.712,238.173L188.705,238.714L188.834,238.748L189.071,239.25L189.113,239.517L189.074,239.901L188.835,240.049L188.662,240.17L188.436,240.222L188.049,240.181L187.889,240.226L187.665,240.233L187.091,240.165L185.945,239.901L185.843,240.282L186.217,240.823L186.411,241.091L186.664,241.317L187.554,241.548L189.726,241.889L190.707,241.807L191.1,241.675L191.393,241.464L191.493,241.078L191.647,240.784L191.685,240.53L191.667,239.901L191.472,239.768L191.443,239.706L190.809,239.537L190.841,239.411L189.949,239.177L189.886,238.888L189.76,238.855L189.959,238.088L189.83,238.055L189.9,237.803L189.677,237.608L189.616,237.302L189.616,236.993L189.755,236.266L190.279,236.192L190.97,236.31L191.205,236.504L191.597,236.691L192.433,236.965L192.227,238.275L192.101,238.241L191.873,238.592L191.744,238.556L191.698,238.687L191.719,238.752L191.764,238.79L191.804,238.847L191.773,238.972L192.536,239.172L192.79,239.009L193.017,238.916L193.221,238.77L193.412,238.446L193.288,238.275L193.248,238.111L193.352,237.615L193.707,237.61L194.152,237.685L194.249,237.792L194.381,237.861L194.698,237.949L195.056,238.02L195.393,238.149L197.367,238.86L199.568,239.378L199.763,239.158L199.701,239.087L199.67,238.993ZM227.54,203.735L227.273,203.614L227.258,203.352L227.125,203.359L226.975,202.972L226.705,202.851L226.692,202.589L226.424,202.47L226.409,202.206L226.14,202.088L226.125,201.825L225.855,201.706L225.843,201.442L225.575,201.325L225.418,200.806L225.147,200.685L225.131,200.423L224.863,200.304L224.704,199.785L224.434,199.665L224.421,199.402L224.144,199.153L224.132,198.89L223.999,198.895L223.987,198.634L223.856,198.638L223.841,198.377L223.565,198.126L223.553,197.861L223.283,197.743L223.27,197.481L222.999,197.359L222.85,196.971L222.718,196.979L222.56,196.459L222.427,196.467L222.275,196.078L222.006,195.96L221.99,195.696L221.721,195.577L221.569,195.189L221.442,195.196L221.282,194.676L220.874,194.432L220.862,194.169L220.728,194.175L220.308,193.667L220.043,193.681L219.348,192.924L218.866,192.74L218.28,192.649L216.956,192.649L216.853,192.806L216.797,192.842L216.725,192.854L216.575,192.933L216.582,193.064L216.317,193.077L216.2,193.347L215.936,193.359L215.82,193.631L215.311,194.052L213.979,195.931L213.008,198.126L213.032,198.654L212.903,198.659L212.923,199.055L212.79,199.061L212.819,199.586L212.613,200.757L212.679,202.103L212.809,202.095L212.843,202.752L212.972,202.747L212.993,203.141L213.126,203.134L213.139,203.398L213.271,203.39L213.282,203.656L213.555,203.775L213.567,204.038L213.836,204.155L213.994,204.676L214.264,204.792L214.414,205.182L214.547,205.174L214.852,205.953L215.121,206.072L215.142,206.466L215.412,206.586L215.569,207.104L215.838,207.223L215.989,207.611L216.119,207.604L216.839,209.104L217.216,210.978L216.819,211.001L216.81,210.868L216.676,210.731L216.628,210.63L216.522,210.356L216.391,210.361L216.378,210.098L216.245,210.104L216.233,209.84L216.1,209.847L216.089,209.585L215.957,209.593L215.942,209.33L215.673,209.211L215.656,208.818L215.522,208.821L215.508,208.559L215.378,208.564L215.074,207.789L214.943,207.796L214.923,207.401L214.791,207.407L214.614,206.493L214.345,206.376L214.04,205.599L213.77,205.48L213.76,205.218L213.627,205.223L213.612,204.96L213.48,204.965L213.468,204.702L213.194,204.452L213.181,204.19L212.909,204.07L212.744,203.419L212.336,203.177L212.322,202.913L211.953,202.49L211.493,202.162L211.506,202.425L211.638,202.42L211.804,203.07L211.936,203.063L211.955,203.459L212.224,203.578L212.677,204.743L212.812,204.737L212.967,205.257L213.102,205.252L213.258,205.769L213.39,205.76L213.41,206.159L213.54,206.15L213.844,206.929L213.974,206.922L213.989,207.184L214.118,207.178L214.133,207.443L214.264,207.433L214.279,207.7L214.408,207.692L214.422,207.954L214.554,207.949L214.568,208.213L214.698,208.206L215,208.982L215.135,208.975L215.154,209.369L215.286,209.364L215.589,210.138L215.719,210.132L215.732,210.395L215.863,210.39L216.698,211.982L216.962,212.338L217.275,212.629L217.648,212.83L218.104,212.917L218.15,212.832L218.228,212.778L218.32,211.982L217.185,207.815L217.511,207.874L217.736,207.982L218.136,208.298L218.144,208.427L218.406,208.415L218.551,208.673L219.214,208.77L219.22,208.9L219.755,209.007L219.76,209.139L220.287,209.112L220.293,209.244L220.822,209.219L220.828,209.349L223.46,209.218L223.452,209.084L224.11,209.052L224.106,208.92L224.883,208.619L224.873,208.487L225.394,208.328L225.512,208.057L225.908,208.04L226.152,207.631L226.671,207.471L226.788,207.203L227.052,207.189L227.172,206.921L227.437,206.905L227.613,206.716L227.726,206.534L227.881,206.361L228.195,206.21L228.383,205.707L228.48,205.475L228.535,205.134L228.235,204.834L227.998,204.482L227.54,203.735ZM260.371,179.902L260.24,179.791L260.139,179.772L259.963,179.821L259.979,179.95L259.72,179.986L259.593,180.138L259.511,180.328L259.439,180.779L259.398,181.247L259.263,181.638L259.136,181.656L258.811,182.229L258.552,182.26L258.227,182.836L257.961,182.87L257.293,183.885L257.035,183.922L256.595,184.64L256.335,184.676L256.124,185.098L255.654,185.561L255.67,185.692L255.409,185.725L255.246,185.932L255.148,186.124L255.002,186.306L254.708,186.48L254.569,187.223L254.508,187.599L254.518,188.099L255.041,188.032L255.14,187.752L255.532,187.704L255.516,187.573L258.44,187.593L258.623,187.971L258.751,187.952L258.792,188.076L258.812,188.286L258.807,188.858L258.76,189.409L258.711,189.684L258.673,189.925L258.604,190.074L258.475,190.176L258.253,190.276L258.271,190.405L257.355,190.525L257.283,188.94L257.154,188.956L256.875,189.34L256.517,189.699L256.088,190L255.586,190.221L255.441,191.541L255.419,193.033L255.77,193.085L256.222,193.063L256.332,192.864L256.583,192.751L256.546,192.488L256.925,192.309L257.022,192.031L257.28,191.996L257.763,191.632L258.061,191.517L258.536,191.435L259.086,193.624L259.571,193.887L259.832,193.983L260.199,194.011L260.324,193.828L260.428,193.718L260.393,193.455L260.525,193.44L259.989,190.318L260.12,190.302L260.168,189.632L260.864,188.875L260.831,188.612L260.965,188.596L261.08,188.408L261.322,188.285L261.228,187.839L261.087,187.518L260.842,187.764L260.656,187.992L260.419,188.183L259.995,188.321L260.064,187.758L260.262,187.345L260.544,187.048L260.873,186.812L261.495,186.378L261.698,186.091L261.781,185.7L261.375,185.619L261.356,185.49L260.965,185.541L260.802,185.296L260.403,185.063L260.173,185.019L259.835,185.021L259.338,186.28L259.072,186.315L259.091,186.445L258.981,186.518L258.947,186.51L258.934,186.499L258.922,186.51L258.846,186.613L257.587,186.663L256.457,186.654L256.404,186.261L256.764,185.951L256.747,185.819L257.01,185.785L257.17,185.578L257.273,185.386L257.415,185.203L257.712,185.031L257.679,184.769L258.054,184.585L258.263,184.161L258.394,184.145L258.488,183.865L258.755,183.833L258.849,183.554L259.222,183.372L259.208,183.241L259.584,183.06L259.646,182.801L259.724,182.644L259.809,182.488L259.876,182.226L260.248,182.042L260.233,181.913L260.494,181.879L260.478,181.749L260.984,181.549L260.967,181.42L261.621,181.335L261.605,181.206L261.685,181.103L261.698,180.926L261.363,180.661L261.112,180.346L260.826,180.065L260.629,179.963L260.371,179.902ZM268.013,185.559L268.145,185.543L268.043,184.761L268.173,184.742L268.108,184.218L268.235,184.204L268.17,183.68L268.296,183.662L268.229,183.139L268.39,182.542L268.421,182.168L268.326,181.799L268.195,181.814L268.16,181.555L267.732,181.343L267.486,180.444L267.125,180.54L266.889,180.661L266.49,180.973L266.227,181.006L266.244,181.137L265.854,181.188L265.446,182.168L264.793,182.252L264.636,182.089L264.369,182.043L264.335,181.782L263.535,181.753L263.484,182.101L263.506,182.553L263.737,182.723L263.889,182.97L264.049,183.68L263.919,183.696L263.883,183.84L263.901,183.978L263.908,184.114L263.853,184.236L263.594,184.272L263.497,184.549L263.139,184.86L263.271,185.907L263.378,186.08L263.5,186.409L263.585,186.777L263.585,186.938L263.557,187.066L263.425,187.082L263.28,187.477L263.007,187.91L262.433,188.673L262.188,188.837L262.223,189.098L262.094,189.119L262.126,189.378L261.997,189.394L262.031,189.654L261.819,190.422L261.846,190.773L261.969,191.257L262.464,191.14L262.775,190.982L263.34,190.55L263.323,190.419L264.108,190.319L264.091,190.187L264.608,189.885L264.912,189.722L265.085,189.658L265.104,189.791L265.233,189.773L265.351,190.688L265.274,190.852L265.242,191.03L265.254,191.428L265.305,191.855L265.292,192.292L265.162,192.309L265.265,193.091L265.251,198.143L265.383,198.127L265.348,197.865L265.53,197.548L265.596,197.23L265.703,196.491L265.832,196.475L265.897,195.934L266.027,195.916L265.991,195.655L266.122,195.638L266.071,195.247L266.203,195.229L266.171,194.969L266.3,194.952L266.344,194.281L266.476,194.262L266.717,193.037L266.848,193.021L266.927,192.61L267.171,192.447L267.121,192.053L267.253,192.035L267.552,189.208L268.779,188.552L269.027,188.309L269.18,188.052L269.211,187.922L269.206,187.795L269.161,187.671L269.066,187.552L268.943,187.311L268.772,187.099L268.39,186.695L268.081,186.218L268.004,185.921L268.013,185.559ZM300.641,205.159L300.377,205.172L300.367,205.038L299.939,204.681L299.706,204.532L299.415,204.428L299.404,204.165L299.061,204.039L298.808,203.851L298.432,203.288L298.304,203.295L298.276,203.132L298.322,203.005L298.412,202.896L298.405,202.735L298.362,202.617L298.287,202.53L298.181,202.472L297.917,202.419L297.597,202.407L297.604,202.535L296.951,202.703L296.875,203.046L296.862,203.5L297.682,204.12L297.691,204.25L297.954,204.236L298.929,205.244L299.19,205.232L299.476,205.612L299.737,205.598L299.884,205.855L300.147,205.843L300.428,206.225L300.691,206.212L300.974,206.592L301.239,206.579L301.384,206.836L301.783,206.948L301.756,207.125L301.666,207.218L301.513,207.611L301.231,207.952L300.85,208.205L300.399,208.338L300.399,208.205L299.868,208.232L299.862,208.099L299.329,207.995L299.322,207.863L299.06,207.877L298.639,207.371L298.374,207.385L298.225,206.994L297.399,206.376L297.389,206.113L296.562,205.493L296.617,206.547L296.795,206.715L296.92,206.901L297.182,207.312L297.73,207.68L297.743,207.943L299.392,209.18L300.963,208.968L300.954,208.836L301.475,208.68L301.469,208.548L301.864,208.528L301.984,208.257L302.243,208.246L302.239,208.113L302.499,208.101L302.499,207.968L302.71,207.863L303.016,207.811L304.183,208.726L305.726,209.26L305.693,208.602L305.015,208.238L305.003,207.976L304.846,207.652L304.581,207.469L304.574,207.336L303.786,207.377L303.749,207.329L303.517,207.257L303.424,206.882L303.415,206.694L303.473,206.467L303.73,206.322L303.718,206.06L303.85,206.052L303.83,205.658L303.963,205.653L303.923,204.861L304.054,204.856L304.243,204.343L304.389,204.167L304.676,204.032L304.667,203.901L305.579,203.724L305.574,203.592L305.839,203.578L305.83,203.446L306.219,203.294L306.207,203.032L306.47,203.018L306.554,202.449L306.546,202.193L306.416,201.967L306.404,201.704L306.271,201.71L305.576,200.953L305.309,200.965L305.297,200.703L304.878,200.63L304.512,200.506L303.824,200.247L303.496,200.219L303.178,200.274L302.648,200.438L302.548,201.102L302.95,201.217L302.955,201.346L303.349,201.327L303.91,201.961L304.179,202.078L304.256,202.219L304.287,202.334L304.331,202.451L304.468,202.59L304.496,203.117L303.387,203.722L302.757,204.141L302.449,204.408L302.469,204.805L302.746,204.879L302.908,205.005L302.993,205.223L303.033,205.566L302.857,205.711L302.791,205.973L302.115,205.916L301.569,205.721L300.641,205.159ZM307.724,191.078L307.726,191.209L307.396,191.366L307.032,191.625L306.315,192.373L305.746,193.256L305.571,193.692L305.499,194.092L305.629,194.087L305.656,194.613L305.891,194.922L306.193,195.067L306.594,195.095L307.127,195.069L307.887,194.37L308.118,191.058L307.724,191.078ZM313.515,196.069L312.982,195.962L312.973,195.831L312.45,195.857L312.441,195.725L312.177,195.738L312.167,195.608L311.775,195.627L311.769,195.496L311.367,195.382L311.357,195.119L311.084,195.001L311.031,193.946L310.25,194.121L310.157,194.423L310.012,194.659L309.879,194.667L309.792,195.064L309.78,195.585L309.848,196.648L310.376,196.621L310.366,196.488L312.036,196.345L313.527,196.331L313.515,196.069ZM315.015,197.049L314.544,196.806L314.193,196.431L314.117,196.487L314.067,196.569L313.904,196.789L313.829,197.107L313.565,197.122L313.58,197.384L313.044,197.604L312.544,197.833L311.978,197.914L311.287,197.877L310.163,197.687L308.313,197.647L308.308,197.517L307.648,197.548L307.641,197.418L306.449,197.346L306.443,197.214L305.938,197.161L305.404,197.198L304.891,197.23L304.466,197.181L304.424,196.392L304.294,196.396L304.288,196.266L303.629,196.299L303.635,196.431L303.503,196.487L303.375,196.497L303.133,196.437L302.907,196.351L302.804,196.331L302.705,196.345L302.589,196.616L302.325,196.628L302.237,196.933L302.086,197.168L301.959,197.175L301.968,197.438L301.715,197.582L301.727,197.846L301.344,198.128L300.816,198.913L300.609,199.397L300.507,199.886L300.827,200.058L301.312,200.11L301.526,199.916L301.764,199.824L302.344,199.662L302.336,199.531L302.865,199.505L304.776,198.22L306.49,198.136L306.497,198.267L307.288,198.226L307.294,198.359L307.688,198.34L307.695,198.468L308.091,198.448L308.098,198.582L308.491,198.562L308.637,198.819L309.033,198.799L309.037,198.932L309.448,199.175L309.46,199.436L309.73,199.557L309.77,200.347L309.663,200.564L309.6,200.881L309.565,201.547L309.059,201.967L309.071,202.227L308.69,202.513L308.695,202.643L308.301,202.662L308.162,202.51L308.004,202.44L307.498,202.44L307.529,203.098L308.067,203.203L308.073,203.333L308.526,203.371L308.928,203.273L309.638,202.993L309.678,202.788L309.724,202.692L309.818,202.64L310.013,202.578L310.129,202.242L310.299,201.982L310.62,201.493L310.779,200.852L310.791,200.198L310.62,198.854L313.129,198.86L313.133,198.99L313.398,198.979L313.406,199.11L313.761,199.242L314.052,199.283L314.727,199.175L314.834,198.642L314.962,198.635L314.899,197.317L315.028,197.312L315.015,197.049ZM334.925,223.554L334.802,223.603L334.143,222.023L333.494,222.047L332.7,222.339L332.804,222.581L332.559,222.684L332.509,223.014L332.399,223.324L332.727,223.737L333.049,224.194L332.521,224.985L332.279,225.088L332.26,225.381L331.89,225.533L331.875,225.828L331.63,225.927L331.682,226.052L330.465,226.56L330.282,225.779L330.407,225.728L330.306,225.325L330.094,224.935L329.672,224.32L329.178,224.223L328.927,224.241L328.549,224.361L328.287,224.323L328.038,224.378L327.471,224.525L327.421,224.402L326.814,224.659L326.762,224.535L326.032,224.841L325.981,224.717L325.25,225.023L325.203,224.902L323.863,225.458L323.263,225.434L322.906,225.452L322.616,225.553L322.274,225.907L321.918,226.274L322.021,226.519L321.778,226.619L321.614,227.259L321.372,227.36L321.21,228L320.966,228.101L320.891,228.406L320.804,228.741L321.437,229.904L322.391,229.794L322.336,229.67L323.796,229.06L325.422,228.873L326.376,228.637L326.803,228.456L327.162,228.226L327.111,228.105L327.601,227.9L327.544,227.78L327.79,227.676L327.738,227.555L328.103,227.403L328.052,227.283L329.025,226.875L329.191,226.237L329.553,226.085L329.502,225.96L329.626,225.909L329.672,226.034L329.793,225.982L329.747,226.101L329.603,226.205L329.653,226.718L329.592,227.209L329.333,227.606L329.533,228.092L329.755,228.146L329.93,228.355L330.345,228.325L330.396,228.445L330.638,228.343L330.691,228.466L331.009,228.412L331.304,228.301L331.815,227.956L332.603,227.236L332.597,226.977L332.647,226.744L332.848,226.326L333.107,225.933L333.313,225.511L334.285,225.104L334.338,225.226L334.648,225.177L334.909,225.076L335.118,224.919L335.258,224.696L335.329,224.408L335.285,224.108L335.141,223.819L334.925,223.554ZM339.282,233.302L339.162,233.352L339.012,232.989L338.887,233.04L338.734,232.676L338.616,232.725L338.24,232.169L337.943,232.149L337.838,231.903L337.549,231.885L337.448,231.641L337.154,231.621L336.827,231.187L336.534,231.165L336.206,230.731L335.913,230.708L335.817,230.467L335.516,230.447L335.246,230.132L335.122,230.184L334.796,230.008L334.505,229.727L335.236,229.425L335.285,229.545L335.65,229.391L335.701,229.515L336.45,228.915L336.419,228.5L334.896,228.276L334.532,228.43L334.483,228.305L334.24,228.412L334.188,228.287L333.409,228.473L333.356,228.352L333.024,228.427L332.662,228.584L331.959,229.048L331.412,229.573L331.243,229.8L331.18,229.975L331.485,230.704L331.695,230.779L331.83,230.848L332.071,230.746L332.121,230.867L332.392,230.81L332.647,230.697L332.892,230.599L333.145,230.58L333.198,230.704L333.639,230.848L333.861,230.891L334.13,230.885L334.233,231.128L335.386,231.5L335.491,231.744L335.957,231.835L336.06,232.078L336.525,232.168L336.627,232.41L336.918,232.433L337.248,232.868L337.537,232.889L337.95,233.25L338.146,233.418L338.38,233.536L338.411,233.711L338.361,233.83L338.175,234.204L337.871,234.482L337.487,234.678L337.054,234.805L336.954,234.561L336.629,234.466L336.353,234.302L335.817,233.894L335.351,233.804L335.246,233.559L334.78,233.469L334.507,233.156L334.212,233.135L333.959,232.525L333.795,232.377L333.615,232.109L333.467,231.787L333.382,231.483L333.501,231.433L333.128,230.877L332.76,231.027L332.767,231.537L332.754,232.031L332.145,232.286L331.407,231.88L330.867,231.964L330.814,231.841L330.516,231.917L330.206,232.073L329.773,232.42L329.68,232.889L329.074,233.14L328.769,232.965L328.434,232.859L327.697,232.813L325.99,233.289L326.041,233.408L325.918,233.461L326.023,233.604L326.145,233.651L326.446,233.998L326.854,234.319L327.871,234.863L328.971,235.186L329.486,235.244L329.937,235.209L330.042,235.452L329.191,235.808L329.134,235.685L328.237,235.833L327.695,235.978L327.33,236.155L327.387,236.275L327.017,236.429L327.073,236.549L326.829,236.649L326.875,236.775L326.512,236.924L326.565,237.048L326.321,237.151L326.37,237.269L326.125,237.513L325.972,237.643L325.939,237.721L325.944,237.834L326.07,238.252L326.188,238.205L326.342,238.568L326.636,238.587L326.736,238.833L327.032,238.854L327.409,239.41L327.528,239.358L328.138,240.819L328.015,240.869L328.649,242.034L328.964,242.08L329.358,242.022L329.402,241.903L329.548,241.799L329.561,241.255L329.508,240.673L330.308,240.198L330.256,240.077L330.463,239.906L330.557,239.747L330.563,239.548L330.49,239.263L330.37,239.312L330.317,239.194L328.929,239.631L328.656,239.316L328.534,239.366L328.074,238.272L327.953,238.323L327.53,237.644L327.741,237.126L329.442,236.416L329.493,236.538L330.101,236.283L330.152,236.404L330.764,236.149L330.708,236.028L331.072,235.875L331.022,235.756L331.294,235.549L331.586,235.414L331.888,235.37L332.166,235.418L332.346,235.505L332.43,235.596L332.497,235.696L332.616,235.803L332.738,235.752L333.306,236.087L333.451,235.984L333.502,235.863L333.702,235.696L333.8,235.537L333.802,235.339L333.729,235.052L333.145,234.76L332.592,234.385L332.49,234.141L332.372,234.191L332.218,233.826L331.926,233.807L331.821,233.563L331.526,233.544L331.323,233.399L331.16,233.217L330.878,232.672L331.103,232.482L331.436,232.296L331.883,232.68L332.176,232.701L332.277,232.946L332.572,232.965L333.671,234.22L334.192,234.199L334.671,234.23L334.771,234.472L335.064,234.493L335.172,234.736L335.638,234.829L335.74,235.069L336.378,235.23L336.654,235.438L336.866,235.6L337.119,235.668L337.536,235.605L337.839,235.571L338.379,235.422L338.932,235.216L339.287,235.016L339.234,234.894L339.36,234.77L339.426,234.734L339.461,234.678L339.498,234.501L339.54,234.275L339.529,233.951L339.447,233.599L339.282,233.302ZM339.642,228.01L339.611,228.381L339.529,228.616L339.096,229.094L339.146,229.218L339.016,229.293L338.876,229.325L338.583,229.336L338.296,229.403L338.168,229.506L338.052,229.674L337.928,229.725L338.135,230.208L338.405,230.256L338.719,230.25L339.012,230.662L339.36,231.004L339.778,231.202L340.01,231.223L340.255,231.184L340.382,230.935L340.639,230.736L340.606,230.32L340.732,230.268L340.627,230.025L340.747,229.975L340.292,228.88L340.409,228.828L340.179,227.927L339.943,227.937L339.642,228.01ZM265.194,188.45L265.213,188.579L265.015,188.645L264.829,188.617L264.664,188.555L264.545,188.533L264.561,188.662L264.062,188.97L263.871,189.087L263.567,189.191L263.625,188.852L263.75,188.564L264.081,188.062L264.325,187.897L264.294,187.635L264.649,187.322L265.317,186.308L265.2,185.829L265.044,185.501L264.871,185.197L264.723,184.788L265.05,184.273L265.242,183.658L265.634,183.609L265.675,185.453L265.42,187.091L265.397,187.509L265.43,187.855L265.402,188.156L265.329,188.302L265.194,188.45ZM221.494,204.168L221.72,204.896L221.747,205.223L221.701,205.743L221.255,206.08L221.015,206.221L220.676,206.32L220.875,205.229L221.056,204.657L221.233,204.311L221.32,204.217L221.494,204.168ZM226.839,205.484L226.203,206.043L226.212,206.176L225.95,206.19L225.578,206.735L225.317,206.75L225.198,207.021L224.808,207.17L224.44,207.717L222.992,208.412L221.056,208.677L220.877,208.412L220.762,208.032L221.381,207.21L221.77,207.06L222.013,206.647L222.509,206.334L222.95,206.063L223.126,205.893L223.264,205.671L223.349,205.381L223.382,204.997L223.003,204.648L222.685,204.24L222.67,203.976L222.4,203.86L222.387,203.593L222.256,203.603L222.242,203.339L222.112,203.344L222.098,203.081L221.967,203.09L221.912,202.035L222.061,201.917L222.09,201.847L222.092,201.77L222.16,201.629L222.539,201.346L222.663,201.064L222.729,200.759L222.737,200.016L222.512,199.943L222.204,199.91L222.21,200.043L221.683,200.068L221.426,200.168L221.203,200.31L221.033,200.506L220.925,200.766L220.796,200.774L220.865,200.957L220.951,201.293L220.65,201.355L220.43,201.449L220.9,202.88L220.765,203.093L220.631,203.395L220.513,203.676L220.42,203.828L220.157,203.839L220.164,203.972L219.768,203.991L219.664,203.716L219.601,203.34L219.808,203.087L219.909,202.74L219.927,201.872L219.794,201.879L219.773,201.485L219.505,201.366L219.492,201.102L219.221,200.983L218.662,200.35L218.127,200.247L217.984,199.989L217.72,200.002L217.571,199.613L217.161,199.371L217.129,198.713L217.013,198.623L216.851,198.462L216.38,198.658L215.951,198.902L215.958,199.035L214.1,198.865L214.047,197.81L214.178,197.802L214.166,197.54L214.298,197.535L214.278,197.139L214.534,196.993L214.64,196.463L214.898,196.314L214.885,196.052L215.143,195.908L215.129,195.644L215.509,195.36L215.497,195.096L215.752,194.952L216.365,193.999L217.017,193.835L217.009,193.703L218.59,193.624L220.919,195.354L220.933,195.618L221.34,195.862L221.356,196.124L221.624,196.244L221.635,196.507L221.906,196.625L221.923,196.889L222.197,197.138L222.21,197.4L222.342,197.394L222.357,197.658L222.486,197.652L222.499,197.915L222.776,198.166L222.788,198.43L223.058,198.548L223.218,199.068L223.489,199.188L223.646,199.704L223.914,199.825L224.217,200.601L224.487,200.721L224.79,201.497L225.059,201.614L225.218,202.134L225.489,202.252L225.501,202.515L225.634,202.51L225.645,202.774L225.917,202.891L225.929,203.154L226.199,203.275L226.359,203.793L226.489,203.788L226.844,204.375L227.081,205.076L226.937,205.196L226.907,205.27L226.903,205.346L226.839,205.484ZM219.451,197.671L219.115,197.5L218.634,197.402L217.589,197.367L218.077,199.193L219.399,199.257L219.63,198.976L219.787,198.848L219.839,198.762L219.868,198.622L219.865,198.047L219.669,197.852L219.451,197.671ZM218.747,202.061L218.877,202.056L218.948,202.29L218.99,202.698L218.995,203.11L218.945,203.372L218.813,203.38L218.818,203.509L218.424,203.53L218.244,203.378L218.103,203.288L217.98,203.161L217.865,202.899L217.999,202.673L218.103,202.363L218.201,201.695L218.543,201.81L218.747,202.061ZM216.985,201.097L216.95,200.439L217.401,200.508L217.755,200.662L217.705,200.742L217.627,200.799L217.51,200.927L217.383,201.008L216.985,201.097ZM218.104,205L217.836,205.177L217.456,205.295L217.337,204.899L217.281,204.378L217.937,204.347L218.042,204.619L218.104,205ZM214.297,200.171L214.305,200.303L214.172,200.309L214.127,200.953L214.15,201.213L214.23,201.496L214.884,201.329L215.304,201.841L215.434,201.835L215.449,202.095L215.583,202.088L215.706,202.289L215.866,202.47L215.748,202.724L215.587,202.974L215.481,203.235L215.478,203.382L215.523,203.543L215.792,203.662L215.803,203.923L216.47,204.022L216.484,204.284L216.777,204.411L216.919,204.581L216.944,204.794L216.895,205.034L216.755,205.571L216.749,205.846L216.838,206.116L216.972,206.11L217.119,206.239L217.217,206.298L217.299,206.386L217.392,206.614L218.702,206.417L218.892,206.052L218.92,205.484L219.05,205.478L219.023,204.952L219.456,204.788L219.934,204.64L220.024,205.149L220.007,205.438L219.744,206.104L219.759,206.5L219.63,206.506L219.649,206.901L219.518,206.904L219.724,208.349L219.352,208.319L219.098,208.243L218.649,208.005L218.117,207.9L218.109,207.767L217.707,207.657L217.563,207.4L217.299,207.412L216.188,206.28L215.504,205.787L215.489,205.523L214.389,204.655L214.378,204.392L214.247,204.398L214.119,204.2L213.962,204.018L213.974,201.642L213.845,201.645L213.825,201.253L213.694,201.258L213.613,199.678L213.848,199.736L213.994,199.815L214.088,199.952L214.166,200.178L214.297,200.171ZM189.956,232.368L188.749,231.781L188.781,231.651L188.433,231.422L188.611,229.7L188.701,229.67L188.772,229.605L188.935,229.686L188.992,229.8L189.244,229.986L189.373,230.169L189.506,230.353L189.753,230.543L189.827,230.973L189.985,231.321L190.113,231.714L190.121,232.272L190.03,232.302L189.956,232.368Z" style="fill:white;"/>
            <path id="path98" d="M272.699,250.168L255.177,257.775L246.116,240.957L255.626,213.507L273.15,205.9L282.211,222.719L272.699,250.168Z" style="fill:rgb(0,67,148);"/>
            <path id="path100" d="M254.169,248.733L251.994,267.712L232.899,267.149L213.885,245.187L216.058,226.206L235.153,226.771L254.169,248.733Z" style="fill:rgb(0,67,148);"/>
            <path id="path102" d="M244.882,254.103C246.509,255.041 247.067,257.123 246.125,258.752C245.187,260.38 243.107,260.937 241.477,259.998C239.848,259.057 239.293,256.976 240.231,255.347C241.173,253.72 243.254,253.162 244.882,254.103Z" style="fill:white;"/>
            <path id="path104" d="M263.255,245.347C263.255,247.225 261.73,248.749 259.853,248.749C257.973,248.749 256.448,247.225 256.448,245.347C256.448,243.467 257.973,241.943 259.853,241.943C261.73,241.943 263.255,243.467 263.255,245.347Z" style="fill:white;"/>
        </g>
        <g id="Layer1015">
            <path id="path107" d="M196.542,294.153L193.283,295.207L193.22,295.012C194.023,294.59 194.587,294.106 194.91,293.56C195.233,293.013 195.313,292.486 195.149,291.98C195.012,291.556 194.718,291.221 194.266,290.978C193.814,290.733 193.289,290.618 192.691,290.63C191.925,290.646 191.114,290.792 190.26,291.069C189.418,291.341 188.677,291.665 188.035,292.042C187.394,292.419 186.949,292.828 186.702,293.27C186.453,293.711 186.414,294.19 186.582,294.711C186.72,295.138 186.976,295.487 187.35,295.759C187.723,296.029 188.29,296.26 189.051,296.449L188.24,296.712C187.567,296.509 187.04,296.241 186.66,295.91C186.279,295.578 185.999,295.137 185.822,294.587C185.587,293.863 185.581,293.156 185.801,292.463C186.022,291.772 186.459,291.152 187.114,290.603C187.769,290.055 188.521,289.642 189.372,289.367C190.268,289.077 191.174,288.971 192.087,289.05C193.001,289.128 193.773,289.383 194.403,289.814C195.033,290.246 195.452,290.785 195.661,291.433C195.815,291.908 195.835,292.459 195.72,293.082C195.653,293.443 195.633,293.664 195.66,293.747C195.694,293.854 195.778,293.929 195.913,293.973C196.046,294.016 196.235,294.011 196.478,293.958L196.542,294.153Z" style="fill:white;"/>
            <path id="path109" d="M192.639,298.545L189.855,299.815C189.395,300.024 189.116,300.174 189.018,300.264C188.92,300.353 188.852,300.47 188.814,300.616C188.778,300.762 188.8,300.927 188.883,301.108L188.981,301.323L188.736,301.435L187.188,298.044L187.434,297.933L187.532,298.148C187.618,298.336 187.734,298.466 187.879,298.538C187.979,298.593 188.114,298.608 188.284,298.584C188.406,298.571 188.693,298.461 189.143,298.256L195.057,295.557C195.516,295.349 195.795,295.2 195.894,295.112C195.994,295.025 196.062,294.908 196.099,294.762C196.136,294.616 196.114,294.451 196.031,294.271L195.933,294.055L196.178,293.943L197.725,297.334L197.479,297.445L197.382,297.23C197.295,297.042 197.18,296.912 197.035,296.84C196.935,296.786 196.799,296.768 196.628,296.789C196.505,296.802 196.219,296.912 195.768,297.117L193.223,298.278L194.268,300.569L196.813,299.408C197.273,299.198 197.552,299.05 197.651,298.963C197.749,298.875 197.817,298.757 197.854,298.61C197.891,298.462 197.868,298.297 197.785,298.115L197.689,297.905L197.934,297.793L199.479,301.18L199.233,301.291L199.138,301.081C199.05,300.89 198.935,300.759 198.791,300.689C198.692,300.635 198.556,300.618 198.384,300.639C198.261,300.651 197.975,300.761 197.524,300.968L191.611,303.665C191.152,303.874 190.873,304.023 190.773,304.11C190.674,304.198 190.606,304.315 190.57,304.463C190.533,304.611 190.557,304.776 190.64,304.958L190.735,305.168L190.49,305.28L188.945,301.893L189.191,301.782L189.287,301.992C189.374,302.184 189.489,302.314 189.633,302.384C189.733,302.439 189.869,302.455 190.041,302.435C190.163,302.421 190.449,302.31 190.9,302.105L193.684,300.836L192.639,298.545Z" style="fill:white;"/>
            <path id="path111" d="M192.839,308.725L192.605,308.857L190.766,305.615L191,305.482L191.117,305.688C191.219,305.867 191.345,305.987 191.497,306.048C191.601,306.093 191.737,306.097 191.904,306.058C192.025,306.034 192.3,305.9 192.731,305.655L198.383,302.451C198.822,302.201 199.088,302.029 199.179,301.932C199.269,301.837 199.327,301.714 199.351,301.566C199.375,301.416 199.338,301.255 199.24,301.081L199.123,300.875L199.358,300.743L201.196,303.985L200.962,304.118L200.846,303.912C200.743,303.733 200.617,303.613 200.466,303.553C200.362,303.507 200.225,303.503 200.055,303.537C199.935,303.562 199.659,303.695 199.229,303.941L193.577,307.146C193.137,307.395 192.872,307.568 192.783,307.666C192.692,307.763 192.635,307.886 192.611,308.034C192.587,308.184 192.624,308.345 192.722,308.519L192.839,308.725Z" style="fill:white;"/>
            <path id="path113" d="M202.348,305.778L199.261,312.133L202.772,309.742C203.263,309.408 203.56,309.133 203.663,308.914C203.801,308.616 203.754,308.307 203.524,307.984L203.747,307.832L205.072,309.778L204.849,309.932C204.635,309.712 204.464,309.584 204.336,309.546C204.207,309.509 204.047,309.52 203.856,309.579C203.665,309.64 203.377,309.801 202.991,310.063L196.192,314.692L196.091,314.546L200.179,305.932L194.987,309.466C194.518,309.786 194.253,310.08 194.194,310.347C194.135,310.614 194.173,310.847 194.309,311.047L194.404,311.185L194.181,311.338L192.758,309.248L192.981,309.097C193.206,309.418 193.452,309.581 193.719,309.586C193.987,309.59 194.337,309.444 194.771,309.149L200.535,305.226L200.666,304.952C200.798,304.68 200.865,304.473 200.869,304.331C200.872,304.188 200.816,304.024 200.702,303.84L200.925,303.688L202.348,305.778Z" style="fill:white;"/>
            <path id="path115" d="M206.076,311.798L202.992,314.381L203.083,314.489C203.374,314.836 203.734,314.961 204.167,314.864C204.599,314.768 205.127,314.494 205.752,314.044L205.88,314.197L201.913,317.519L201.785,317.365C202.19,316.971 202.487,316.607 202.676,316.273C202.865,315.939 202.95,315.663 202.93,315.447C202.91,315.231 202.791,314.992 202.573,314.731L200.438,316.518C200.021,316.867 199.777,317.094 199.705,317.197C199.633,317.3 199.597,317.412 199.596,317.532C199.595,317.651 199.66,317.79 199.79,317.945L200.063,318.272C200.491,318.782 200.997,319.055 201.582,319.088C202.168,319.12 202.852,318.925 203.635,318.498L203.76,318.646L201.146,320.417L197.191,315.691L197.397,315.52L197.549,315.7C197.682,315.859 197.828,315.954 197.988,315.985C198.098,316.011 198.232,315.99 198.391,315.922C198.504,315.876 198.752,315.695 199.132,315.376L204.116,311.204C204.458,310.918 204.664,310.735 204.731,310.655C204.838,310.52 204.897,310.386 204.907,310.255C204.926,310.064 204.861,309.882 204.712,309.704L204.561,309.522L204.767,309.35L208.598,313.925L206.357,315.801L206.229,315.647C206.711,315.111 207.012,314.673 207.133,314.333C207.253,313.991 207.261,313.646 207.157,313.294C207.098,313.088 206.896,312.777 206.549,312.363L206.076,311.798Z" style="fill:white;"/>
            <path id="path117" d="M212.43,317.495L210.135,319.858L209.983,319.705C210.497,319.051 210.791,318.406 210.868,317.769C210.944,317.132 210.819,316.65 210.493,316.322C210.24,316.068 209.947,315.961 209.612,315.999C209.277,316.038 208.987,316.179 208.743,316.422C208.588,316.576 208.476,316.739 208.408,316.911C208.317,317.144 208.272,317.419 208.272,317.736C208.275,317.966 208.341,318.436 208.472,319.145C208.657,320.138 208.673,320.916 208.52,321.477C208.364,322.038 208.056,322.548 207.594,323.007C207.009,323.588 206.341,323.925 205.592,324.016C204.842,324.105 204.215,323.896 203.711,323.389C203.553,323.229 203.426,323.057 203.329,322.871C203.233,322.684 203.141,322.424 203.053,322.086C203.003,321.898 202.94,321.765 202.863,321.688C202.799,321.624 202.697,321.59 202.556,321.587C202.416,321.583 202.253,321.629 202.067,321.725L201.93,321.587L204.575,318.956L204.712,319.095C204.077,319.943 203.719,320.718 203.638,321.42C203.557,322.12 203.696,322.649 204.055,323.011C204.331,323.29 204.657,323.406 205.031,323.363C205.406,323.319 205.732,323.159 206.011,322.882C206.177,322.717 206.306,322.526 206.397,322.309C206.489,322.092 206.541,321.848 206.552,321.581C206.563,321.312 206.517,320.903 206.415,320.353C206.272,319.582 206.209,318.985 206.23,318.564C206.25,318.144 206.342,317.744 206.507,317.366C206.672,316.987 206.918,316.636 207.245,316.31C207.803,315.756 208.425,315.431 209.112,315.336C209.799,315.242 210.366,315.419 210.813,315.869C210.976,316.034 211.107,316.221 211.205,316.429C211.28,316.587 211.345,316.806 211.4,317.085C211.454,317.363 211.515,317.536 211.582,317.604C211.646,317.669 211.724,317.692 211.817,317.675C211.909,317.657 212.076,317.56 212.318,317.384L212.43,317.495Z" style="fill:white;"/>
            <path id="path119" d="M214.166,320.1L211.559,323.163L211.666,323.255C212.01,323.548 212.387,323.61 212.798,323.442C213.208,323.274 213.683,322.916 214.223,322.368L214.375,322.498L211.021,326.438L210.869,326.308C211.203,325.852 211.434,325.443 211.564,325.082C211.695,324.721 211.731,324.435 211.676,324.224C211.62,324.014 211.463,323.799 211.205,323.579L209.4,325.698C209.047,326.112 208.844,326.377 208.791,326.491C208.737,326.606 208.72,326.721 208.739,326.84C208.758,326.958 208.845,327.083 209,327.215L209.324,327.49C209.831,327.923 210.376,328.105 210.959,328.04C211.541,327.974 212.183,327.666 212.883,327.113L213.031,327.239L210.751,329.424L206.059,325.43L206.234,325.224L206.415,325.377C206.572,325.513 206.732,325.581 206.893,325.585C207.007,325.593 207.136,325.549 207.281,325.455C207.385,325.391 207.599,325.171 207.92,324.793L212.133,319.843C212.423,319.503 212.594,319.288 212.647,319.199C212.73,319.047 212.766,318.905 212.754,318.773C212.741,318.584 212.646,318.414 212.47,318.265L212.289,318.111L212.464,317.905L217.008,321.772L215.114,323.998L214.962,323.868C215.348,323.259 215.571,322.776 215.632,322.42C215.694,322.064 215.643,321.722 215.482,321.392C215.389,321.198 215.137,320.927 214.726,320.576L214.166,320.1Z" style="fill:white;"/>
            <path id="path121" d="M220.52,332.751L218.379,331.425L217.618,332.085C217.366,332.307 217.185,332.506 217.075,332.683C216.93,332.919 216.891,333.134 216.959,333.331C216.998,333.447 217.166,333.619 217.462,333.848L217.319,334.077L215.304,332.829L215.445,332.599C215.691,332.689 215.947,332.675 216.213,332.557C216.481,332.439 216.914,332.124 217.516,331.61L223.832,326.25L223.916,326.303L221.84,334.543C221.646,335.325 221.562,335.842 221.592,336.095C221.614,336.286 221.711,336.448 221.883,336.583L221.741,336.813L218.809,334.997L218.95,334.768L219.071,334.844C219.306,334.989 219.5,335.046 219.651,335.014C219.758,334.988 219.849,334.913 219.926,334.79C219.972,334.716 220.01,334.634 220.041,334.544C220.058,334.503 220.109,334.32 220.194,333.997L220.52,332.751ZM220.652,332.197L221.539,328.746L218.819,331.063L220.652,332.197Z" style="fill:white;"/>
            <path id="path123" d="M232.788,331.021L231.267,334.09L231.083,333.998C231.342,333.129 231.388,332.389 231.222,331.774C231.057,331.161 230.735,330.736 230.258,330.5C229.859,330.303 229.415,330.28 228.924,330.432C228.434,330.585 227.984,330.88 227.576,331.317C227.053,331.877 226.591,332.559 226.192,333.363C225.8,334.155 225.515,334.912 225.337,335.635C225.159,336.357 225.141,336.961 225.283,337.446C225.426,337.932 225.743,338.296 226.233,338.539C226.635,338.737 227.063,338.798 227.519,338.721C227.974,338.643 228.535,338.397 229.201,337.984L228.822,338.748C228.208,339.089 227.649,339.279 227.146,339.32C226.642,339.36 226.131,339.253 225.613,338.996C224.932,338.658 224.42,338.168 224.078,337.528C223.736,336.887 223.598,336.14 223.662,335.289C223.726,334.437 223.957,333.611 224.354,332.81C224.772,331.966 225.329,331.244 226.023,330.644C226.717,330.046 227.438,329.671 228.188,329.522C228.936,329.373 229.615,329.449 230.225,329.751C230.673,329.973 231.081,330.344 231.447,330.861C231.658,331.161 231.803,331.33 231.881,331.369C231.981,331.419 232.094,331.412 232.219,331.346C232.343,331.279 232.471,331.142 232.604,330.931L232.788,331.021Z" style="fill:white;"/>
            <path id="path125" d="M234.01,339.317L231.659,338.413L231.034,339.202C230.827,339.467 230.686,339.696 230.612,339.891C230.511,340.15 230.514,340.369 230.618,340.549C230.678,340.655 230.874,340.794 231.207,340.964L231.111,341.216L228.897,340.363L228.994,340.111C229.252,340.154 229.5,340.092 229.741,339.928C229.981,339.762 230.35,339.371 230.846,338.755L236.059,332.313L236.152,332.349L235.641,340.835C235.595,341.64 235.609,342.163 235.685,342.406C235.742,342.589 235.868,342.731 236.062,342.832L235.965,343.084L232.745,341.845L232.842,341.593L232.975,341.643C233.233,341.744 233.434,341.763 233.577,341.704C233.677,341.658 233.753,341.568 233.806,341.433C233.836,341.351 233.859,341.264 233.873,341.169C233.882,341.126 233.898,340.938 233.922,340.603L234.01,339.317ZM234.037,338.75L234.268,335.192L232.025,337.976L234.037,338.75Z" style="fill:white;"/>
            <path id="path127" d="M236.212,343.163L236.284,342.904L236.512,342.968C236.711,343.024 236.876,343.024 237.006,342.967C237.137,342.911 237.249,342.814 237.342,342.68C237.4,342.591 237.498,342.3 237.637,341.809L239.4,335.555C239.538,335.069 239.605,334.76 239.602,334.628C239.6,334.495 239.554,334.368 239.467,334.245C239.379,334.122 239.24,334.034 239.048,333.979L238.82,333.915L238.893,333.655L241.964,334.521C242.783,334.752 243.399,335.093 243.81,335.542C244.314,336.093 244.616,336.796 244.715,337.652C244.814,338.507 244.727,339.419 244.454,340.387C244.266,341.055 244.014,341.649 243.701,342.169C243.387,342.689 243.055,343.097 242.705,343.394C242.355,343.691 241.988,343.906 241.603,344.037C241.219,344.169 240.776,344.229 240.277,344.219C240.055,344.217 239.724,344.154 239.282,344.029L236.212,343.163ZM241.356,334.934L239.263,342.352C239.153,342.744 239.098,342.988 239.1,343.085C239.102,343.181 239.129,343.262 239.18,343.327C239.25,343.423 239.373,343.495 239.545,343.543C240.108,343.702 240.612,343.556 241.06,343.108C241.667,342.502 242.185,341.441 242.612,339.928C242.957,338.707 243.093,337.693 243.022,336.887C242.964,336.255 242.791,335.787 242.506,335.484C242.304,335.271 241.921,335.087 241.356,334.934Z" style="fill:white;"/>
            <path id="path129" d="M248.172,336.62L247.428,340.571L247.567,340.598C248.012,340.682 248.37,340.549 248.643,340.2C248.916,339.85 249.15,339.305 249.347,338.562L249.544,338.598L248.587,343.68L248.391,343.643C248.454,343.082 248.452,342.612 248.386,342.234C248.319,341.855 248.21,341.59 248.057,341.435C247.905,341.28 247.661,341.171 247.326,341.109L246.812,343.843C246.712,344.377 246.666,344.707 246.677,344.833C246.687,344.957 246.729,345.067 246.805,345.16C246.88,345.254 247.017,345.318 247.217,345.357L247.636,345.436C248.29,345.559 248.854,345.447 249.328,345.101C249.801,344.756 250.204,344.17 250.539,343.344L250.73,343.38L249.834,346.405L243.779,345.265L243.828,345.001L244.061,345.045C244.264,345.082 244.437,345.063 244.58,344.985C244.682,344.936 244.772,344.835 244.852,344.682C244.91,344.574 244.986,344.277 245.078,343.791L246.28,337.406C246.362,336.967 246.404,336.695 246.406,336.593C246.403,336.419 246.364,336.277 246.288,336.17C246.182,336.012 246.016,335.911 245.788,335.867L245.556,335.824L245.606,335.56L251.47,336.664L250.929,339.533L250.733,339.496C250.765,338.776 250.72,338.246 250.596,337.907C250.473,337.567 250.26,337.295 249.955,337.09C249.779,336.968 249.426,336.856 248.895,336.757L248.172,336.62Z" style="fill:white;"/>
            <path id="path131" d="M256.033,343.705L258.5,337.376L261.393,337.615L261.371,337.884L261.141,337.866C260.931,337.847 260.759,337.885 260.625,337.976C260.532,338.036 260.453,338.145 260.387,338.3C260.339,338.413 260.294,338.713 260.254,339.202L259.715,345.691C259.673,346.195 259.665,346.511 259.693,346.641C259.722,346.77 259.791,346.886 259.902,346.99C260.013,347.095 260.168,347.155 260.367,347.171L260.598,347.19L260.575,347.459L256.865,347.151L256.888,346.882L257.118,346.901C257.328,346.919 257.5,346.882 257.634,346.79C257.727,346.731 257.806,346.62 257.873,346.46C257.921,346.347 257.965,346.044 258.006,345.55L258.612,338.255L255.141,347.008L255.015,346.997L252.989,337.854L252.413,344.786C252.373,345.27 252.356,345.567 252.365,345.681C252.39,345.926 252.472,346.132 252.611,346.297C252.751,346.461 252.983,346.558 253.308,346.585L253.286,346.854L250.854,346.651L250.876,346.383L250.95,346.389C251.107,346.407 251.257,346.384 251.399,346.319C251.541,346.257 251.653,346.164 251.733,346.044C251.813,345.925 251.882,345.753 251.939,345.527C251.951,345.476 251.975,345.23 252.012,344.789L252.529,338.56C252.57,338.062 252.577,337.749 252.549,337.622C252.52,337.496 252.451,337.38 252.34,337.276C252.229,337.172 252.074,337.112 251.875,337.095L251.65,337.077L251.672,336.809L254.575,337.049L256.033,343.705Z" style="fill:white;"/>
            <path id="path133" d="M268.184,337.355L268.191,337.625C267.956,337.674 267.778,337.772 267.656,337.922C267.485,338.13 267.221,338.691 266.864,339.609L265.402,343.222L265.457,345.611C265.468,346.121 265.496,346.437 265.537,346.56C265.578,346.684 265.657,346.791 265.773,346.883C265.889,346.974 266.041,347.018 266.231,347.014L266.63,347.004L266.636,347.275L262.638,347.367L262.632,347.098L263.005,347.088C263.215,347.084 263.381,347.029 263.501,346.924C263.59,346.854 263.659,346.737 263.708,346.57C263.744,346.452 263.756,346.146 263.745,345.65L263.699,343.668L261.924,339.475C261.572,338.648 261.326,338.162 261.186,338.016C261.046,337.871 260.861,337.799 260.634,337.799L260.627,337.53L264.044,337.451L264.05,337.72L263.897,337.723C263.691,337.728 263.547,337.774 263.467,337.857C263.386,337.942 263.347,338.031 263.35,338.123C263.354,338.298 263.503,338.734 263.8,339.431L265.163,342.672L266.377,339.664C266.679,338.927 266.826,338.441 266.821,338.203C266.818,338.072 266.77,337.963 266.677,337.879C266.556,337.759 266.335,337.692 266.015,337.674L266.009,337.406L268.184,337.355Z" style="fill:white;"/>
            <path id="path135" d="M275.83,336.154C276.938,335.895 277.928,336.182 278.8,337.015C279.672,337.849 280.24,338.987 280.501,340.431C280.725,341.663 280.661,342.795 280.311,343.827C279.846,345.194 278.984,345.992 277.725,346.221C276.462,346.449 275.378,346.034 274.474,344.974C273.759,344.136 273.285,343.074 273.052,341.789C272.79,340.346 272.926,339.079 273.461,337.987C273.995,336.895 274.785,336.285 275.83,336.154ZM275.976,336.603C275.334,336.718 274.928,337.261 274.758,338.229C274.621,339.023 274.679,340.12 274.932,341.515C275.233,343.173 275.665,344.36 276.23,345.077C276.623,345.578 277.084,345.781 277.612,345.686C277.967,345.621 278.242,345.448 278.437,345.166C278.685,344.805 278.832,344.273 278.88,343.571C278.927,342.869 278.853,341.979 278.658,340.898C278.424,339.613 278.163,338.667 277.875,338.06C277.587,337.454 277.285,337.043 276.971,336.829C276.656,336.614 276.324,336.538 275.976,336.603Z" style="fill:white;"/>
            <path id="path137" d="M282.114,335.46L283.194,339.372L283.392,339.316C283.696,339.232 283.927,339.1 284.084,338.922C284.242,338.742 284.347,338.483 284.397,338.147C284.449,337.81 284.423,337.382 284.322,336.86L284.5,336.812L285.82,341.593L285.644,341.643C285.329,340.757 284.991,340.209 284.625,339.999C284.261,339.791 283.898,339.736 283.535,339.836L283.338,339.892L284.144,342.806C284.278,343.292 284.381,343.591 284.453,343.702C284.526,343.813 284.632,343.898 284.77,343.959C284.908,344.019 285.074,344.021 285.267,343.969L285.495,343.906L285.567,344.165L281.974,345.158L281.902,344.899L282.13,344.835C282.329,344.781 282.476,344.687 282.571,344.555C282.641,344.465 282.677,344.334 282.68,344.162C282.687,344.039 282.623,343.739 282.491,343.261L280.76,336.998C280.626,336.511 280.524,336.212 280.453,336.101C280.382,335.988 280.278,335.903 280.139,335.843C280,335.783 279.835,335.78 279.643,335.833L279.414,335.896L279.343,335.637L285.14,334.034L285.894,336.765L285.687,336.823C285.462,336.195 285.21,335.753 284.931,335.498C284.651,335.242 284.31,335.102 283.907,335.078C283.685,335.064 283.299,335.132 282.752,335.283L282.114,335.46Z" style="fill:white;"/>
            <path id="path139" d="M293.443,330.519L294.795,333.522L294.597,333.606C294.178,332.889 293.687,332.377 293.122,332.071C292.559,331.767 292.064,331.706 291.639,331.889C291.311,332.03 291.103,332.263 291.016,332.589C290.929,332.914 290.952,333.235 291.089,333.552C291.175,333.753 291.285,333.917 291.42,334.044C291.604,334.213 291.843,334.356 292.137,334.473C292.352,334.556 292.813,334.667 293.522,334.806C294.512,334.999 295.241,335.271 295.707,335.618C296.171,335.97 296.531,336.443 296.787,337.042C297.113,337.8 297.18,338.544 296.988,339.273C296.797,340.004 296.372,340.51 295.715,340.792C295.509,340.88 295.302,340.936 295.093,340.956C294.885,340.976 294.608,340.967 294.262,340.925C294.07,340.902 293.922,340.911 293.822,340.955C293.74,340.991 293.669,341.073 293.615,341.203C293.56,341.333 293.542,341.501 293.563,341.709L293.384,341.786L291.912,338.36L292.091,338.282C292.647,339.186 293.235,339.803 293.858,340.136C294.479,340.468 295.023,340.535 295.491,340.334C295.851,340.179 296.079,339.92 296.177,339.555C296.274,339.191 296.245,338.828 296.09,338.467C295.997,338.253 295.867,338.064 295.7,337.897C295.531,337.731 295.324,337.595 295.079,337.486C294.834,337.378 294.437,337.27 293.887,337.161C293.116,337.011 292.54,336.849 292.156,336.676C291.774,336.503 291.436,336.271 291.144,335.978C290.853,335.686 290.616,335.328 290.434,334.904C290.123,334.181 290.05,333.483 290.215,332.81C290.38,332.136 290.753,331.675 291.336,331.424C291.549,331.333 291.771,331.28 292,331.266C292.175,331.254 292.402,331.274 292.682,331.326C292.961,331.377 293.145,331.385 293.232,331.347C293.315,331.311 293.365,331.248 293.383,331.155C293.402,331.063 293.372,330.871 293.297,330.582L293.443,330.519Z" style="fill:white;"/>
            <path id="path141" d="M299.904,327.172L301.511,330.194L301.33,330.292C300.775,329.575 300.2,329.106 299.605,328.881C299.01,328.658 298.478,328.672 298.007,328.923C297.615,329.132 297.337,329.479 297.175,329.968C297.014,330.455 296.992,330.991 297.109,331.577C297.258,332.329 297.543,333.102 297.965,333.895C298.38,334.675 298.828,335.349 299.313,335.914C299.795,336.478 300.275,336.846 300.753,337.012C301.231,337.179 301.711,337.134 302.194,336.877C302.589,336.667 302.889,336.355 303.09,335.938C303.293,335.524 303.42,334.925 303.473,334.144L303.873,334.896C303.791,335.594 303.621,336.159 303.361,336.592C303.1,337.024 302.715,337.376 302.204,337.648C301.533,338.005 300.837,338.135 300.117,338.039C299.398,337.943 298.71,337.621 298.056,337.072C297.402,336.524 296.865,335.855 296.445,335.065C296.002,334.233 295.741,333.361 295.658,332.448C295.575,331.535 295.691,330.731 296.006,330.036C296.321,329.341 296.779,328.832 297.379,328.514C297.822,328.278 298.36,328.163 298.993,328.168C299.36,328.171 299.582,328.152 299.66,328.11C299.758,328.058 299.818,327.962 299.836,327.822C299.856,327.683 299.818,327.498 299.723,327.268L299.904,327.172Z" style="fill:white;"/>
            <path id="path143" d="M308.355,333.422L308.497,333.65L305.342,335.632L305.198,335.404L305.399,335.278C305.573,335.168 305.688,335.036 305.74,334.884C305.781,334.777 305.779,334.641 305.732,334.476C305.703,334.356 305.557,334.086 305.293,333.667L301.838,328.164C301.569,327.736 301.385,327.48 301.285,327.393C301.185,327.306 301.06,327.254 300.91,327.236C300.761,327.219 300.601,327.263 300.432,327.369L300.231,327.495L300.089,327.267L303.244,325.285L303.388,325.513L303.187,325.639C303.013,325.749 302.898,325.881 302.846,326.033C302.804,326.14 302.806,326.277 302.85,326.445C302.879,326.565 303.025,326.833 303.288,327.253L306.744,332.755C307.012,333.184 307.198,333.439 307.299,333.525C307.4,333.611 307.525,333.663 307.675,333.681C307.825,333.699 307.985,333.654 308.153,333.548L308.355,333.422Z" style="fill:white;"/>
            <path id="path145" d="M305.623,324.316L307.987,327.567L308.103,327.483C308.468,327.218 308.617,326.865 308.551,326.429C308.483,325.99 308.247,325.445 307.842,324.791L308.003,324.674L311.045,328.856L310.883,328.974C310.518,328.544 310.175,328.222 309.855,328.011C309.534,327.8 309.265,327.696 309.047,327.701C308.83,327.706 308.584,327.809 308.309,328.01L309.946,330.259C310.266,330.7 310.475,330.959 310.573,331.037C310.671,331.116 310.78,331.159 310.9,331.169C311.019,331.178 311.161,331.123 311.325,331.003L311.67,330.753C312.208,330.361 312.514,329.874 312.587,329.293C312.66,328.711 312.511,328.016 312.139,327.206L312.296,327.091L313.883,329.818L308.9,333.443L308.741,333.224L308.933,333.086C309.1,332.964 309.204,332.825 309.247,332.669C309.28,332.56 309.269,332.425 309.211,332.262C309.173,332.145 309.009,331.886 308.718,331.485L304.897,326.231C304.634,325.869 304.465,325.653 304.391,325.58C304.263,325.464 304.133,325.395 304.002,325.377C303.815,325.345 303.627,325.398 303.441,325.534L303.249,325.673L303.09,325.454L307.916,321.945L309.634,324.307L309.473,324.425C308.971,323.907 308.554,323.577 308.223,323.434C307.891,323.291 307.546,323.259 307.189,323.339C306.978,323.384 306.655,323.564 306.218,323.883L305.623,324.316Z" style="fill:white;"/>
            <path id="path147" d="M310.07,320.145L316.75,322.438L313.953,319.242C313.563,318.797 313.253,318.535 313.023,318.459C312.711,318.357 312.409,318.442 312.117,318.71L311.941,318.507L313.711,316.957L313.889,317.159C313.698,317.398 313.591,317.583 313.569,317.715C313.547,317.847 313.578,318.004 313.66,318.186C313.743,318.368 313.939,318.636 314.245,318.986L319.662,325.175L319.528,325.292L310.485,322.278L314.62,327.002C314.994,327.431 315.318,327.657 315.59,327.684C315.863,327.71 316.089,327.643 316.271,327.484L316.398,327.373L316.576,327.576L314.673,329.241L314.496,329.038C314.788,328.775 314.92,328.512 314.892,328.247C314.865,327.98 314.678,327.651 314.332,327.256L309.741,322.011L309.453,321.913C309.167,321.815 308.953,321.773 308.812,321.788C308.67,321.802 308.515,321.876 308.345,322.012L308.167,321.81L310.07,320.145Z" style="fill:white;"/>
            <path id="path149" d="M318.006,312.053L320.494,314.406L320.354,314.555C319.598,314.054 318.902,313.791 318.268,313.77C317.633,313.748 317.133,313.931 316.767,314.317C316.46,314.642 316.309,315.06 316.312,315.573C316.314,316.087 316.465,316.604 316.764,317.122C317.145,317.786 317.661,318.428 318.316,319.045C318.958,319.652 319.598,320.147 320.236,320.529C320.875,320.91 321.447,321.106 321.953,321.11C322.459,321.116 322.9,320.921 323.277,320.523C323.584,320.197 323.768,319.806 323.826,319.347C323.885,318.889 323.815,318.281 323.615,317.522L324.234,318.109C324.381,318.797 324.399,319.387 324.29,319.88C324.182,320.373 323.929,320.83 323.533,321.25C323.009,321.803 322.392,322.148 321.679,322.287C320.966,322.425 320.212,322.339 319.416,322.028C318.62,321.717 317.898,321.255 317.247,320.641C316.563,319.993 316.036,319.25 315.666,318.411C315.296,317.571 315.15,316.771 315.225,316.012C315.302,315.252 315.573,314.625 316.041,314.131C316.385,313.767 316.859,313.485 317.459,313.287C317.809,313.174 318.013,313.084 318.072,313.021C318.15,312.94 318.176,312.829 318.149,312.692C318.123,312.553 318.028,312.39 317.865,312.201L318.006,312.053Z" style="fill:white;"/>
            <path id="path151" d="M320.228,310.513L323.39,312.995L323.478,312.884C323.757,312.528 323.804,312.148 323.62,311.747C323.437,311.344 323.06,310.884 322.491,310.365L322.614,310.208L326.683,313.402L326.56,313.56C326.09,313.244 325.673,313.028 325.307,312.913C324.941,312.798 324.654,312.771 324.447,312.835C324.238,312.9 324.03,313.067 323.821,313.333L326.009,315.052C326.436,315.388 326.708,315.579 326.824,315.628C326.941,315.677 327.057,315.689 327.175,315.666C327.292,315.643 327.413,315.55 327.539,315.391L327.802,315.056C328.213,314.532 328.374,313.98 328.286,313.4C328.198,312.821 327.863,312.192 327.285,311.516L327.404,311.362L329.676,313.554L325.872,318.399L325.66,318.232L325.806,318.047C325.934,317.884 325.996,317.722 325.994,317.559C325.997,317.445 325.948,317.318 325.849,317.178C325.782,317.075 325.552,316.871 325.162,316.565L320.052,312.554C319.7,312.277 319.479,312.114 319.388,312.065C319.233,311.988 319.089,311.958 318.958,311.976C318.77,311.996 318.603,312.098 318.46,312.279L318.314,312.466L318.103,312.299L321.786,307.606L324.084,309.41L323.96,309.566C323.336,309.206 322.845,309.003 322.487,308.956C322.129,308.908 321.789,308.972 321.466,309.147C321.277,309.246 321.015,309.509 320.682,309.934L320.228,310.513Z" style="fill:white;"/>
            <path id="path153" d="M324.512,303.1L327.294,304.864L327.175,305.045C326.43,304.675 325.737,304.518 325.099,304.573C324.46,304.629 324.013,304.85 323.759,305.235C323.562,305.534 323.517,305.844 323.623,306.163C323.73,306.483 323.926,306.738 324.214,306.928C324.397,307.049 324.579,307.124 324.762,307.157C325.009,307.197 325.286,307.185 325.597,307.122C325.821,307.072 326.269,306.911 326.937,306.638C327.87,306.255 328.628,306.08 329.21,306.115C329.79,306.154 330.352,306.352 330.896,306.71C331.585,307.165 332.051,307.749 332.292,308.465C332.533,309.181 332.457,309.836 332.064,310.434C331.94,310.621 331.797,310.78 331.634,310.913C331.472,311.045 331.233,311.189 330.922,311.344C330.748,311.431 330.632,311.519 330.572,311.61C330.522,311.687 330.509,311.794 330.534,311.932C330.56,312.07 330.638,312.221 330.77,312.383L330.662,312.546L327.547,310.492L327.654,310.33C328.615,310.778 329.447,310.971 330.149,310.906C330.852,310.843 331.343,310.599 331.623,310.175C331.839,309.847 331.888,309.504 331.769,309.147C331.65,308.788 331.425,308.502 331.097,308.285C330.903,308.157 330.689,308.069 330.457,308.023C330.226,307.977 329.978,307.977 329.713,308.02C329.448,308.065 329.057,308.193 328.538,308.405C327.812,308.703 327.241,308.887 326.825,308.951C326.409,309.019 325.999,309.008 325.595,308.925C325.191,308.841 324.796,308.672 324.411,308.418C323.753,307.984 323.309,307.441 323.075,306.788C322.843,306.135 322.902,305.544 323.25,305.013C323.378,304.82 323.533,304.654 323.718,304.517C323.858,304.411 324.058,304.303 324.321,304.192C324.582,304.081 324.74,303.987 324.791,303.907C324.842,303.832 324.849,303.751 324.813,303.663C324.777,303.576 324.648,303.433 324.425,303.231L324.512,303.1Z" style="fill:white;"/>
        </g>
    </g>
</svg>
