<?xml version="1.0" encoding="UTF-8" standalone="no"?>
<!DOCTYPE svg PUBLIC "-//W3C//DTD SVG 1.1//EN" "http://www.w3.org/Graphics/SVG/1.1/DTD/svg11.dtd">
<svg width="100%" height="100%" viewBox="0 0 154 157" version="1.1" xmlns="http://www.w3.org/2000/svg" xmlns:xlink="http://www.w3.org/1999/xlink" xml:space="preserve" xmlns:serif="http://www.serif.com/" style="fill-rule:evenodd;clip-rule:evenodd;stroke-linejoin:round;stroke-miterlimit:2;">
    <g transform="matrix(1.13634,0,0,1.13634,-10.498,5.77438)">
        <path d="M77.002,92.77C61.115,92.74 48.262,79.889 48.231,63.999C48.262,48.111 61.115,35.26 77.002,35.231C92.891,35.26 105.742,48.111 105.769,63.999C105.742,79.889 92.891,92.74 77.002,92.77ZM106.787,63.999C106.756,47.55 93.453,34.246 77.002,34.215C60.553,34.246 47.246,47.55 47.215,63.999C47.246,80.452 60.553,93.754 77.002,93.785C93.453,93.754 106.756,80.452 106.787,63.999ZM77.002,106.309C53.638,106.264 34.737,87.368 34.693,63.999C34.737,40.634 53.638,21.733 77.002,21.692C100.368,21.733 119.267,40.634 119.31,63.999C119.267,87.368 100.368,106.264 77.002,106.309ZM77.002,20C52.703,20.043 33.045,39.7 32.999,63.999C33.045,88.303 52.703,107.954 77.002,108C101.302,107.954 120.956,88.303 121.001,63.999C120.956,39.7 101.302,20.043 77.002,20ZM78.763,64.748L87.482,70.852L87.482,68.148L78.763,62.043L78.763,64.748ZM66.524,64.018L75.244,57.912L75.244,55.206L66.524,61.311L66.524,64.018ZM66.524,70.852L75.244,64.746L75.244,62.043L66.524,68.148L66.524,70.852ZM94.116,61.827C94.119,61.83 94.123,61.831 94.127,61.835C94.892,62.37 95.078,63.425 94.542,64.19C94.007,64.955 92.952,65.141 92.185,64.606C92.183,64.605 92.178,64.601 92.175,64.598L90.999,63.776L90.999,66.48L94.116,68.662C94.119,68.666 94.123,68.669 94.127,68.669C94.892,69.207 95.078,70.261 94.542,71.027C94.007,71.791 92.952,71.978 92.185,71.443C92.183,71.439 92.178,71.436 92.175,71.433L92.175,71.435L90.999,70.612L90.999,73.318L94.116,75.499C94.119,75.502 94.123,75.504 94.127,75.506C94.892,76.041 95.078,77.097 94.542,77.863C94.007,78.628 92.952,78.812 92.185,78.278C92.183,78.274 92.178,78.272 92.175,78.27L78.763,68.877L78.763,71.534L92.415,81.096L92.415,81.097C92.418,81.097 92.425,81.101 92.427,81.103C93.192,81.639 93.38,82.695 92.844,83.46C92.306,84.224 91.251,84.411 90.487,83.875C90.483,83.872 90.478,83.87 90.475,83.869L78.763,75.665L78.763,84.808L78.761,84.808C78.761,84.812 78.763,84.816 78.763,84.821C78.763,85.793 77.975,86.58 77.002,86.58C76.032,86.58 75.244,85.793 75.244,84.821L75.244,75.665L63.529,83.869C63.526,83.87 63.524,83.872 63.521,83.875C62.753,84.411 61.699,84.224 61.165,83.46C60.629,82.695 60.813,81.639 61.58,81.103C61.583,81.101 61.586,81.097 61.589,81.097L61.589,81.096L75.244,71.534L75.244,68.877L61.832,78.27C61.826,78.272 61.822,78.274 61.82,78.278C61.055,78.812 59.999,78.628 59.463,77.863C58.927,77.097 59.115,76.041 59.878,75.506C59.882,75.504 59.887,75.502 59.891,75.499L59.889,75.499L63.004,73.318L63.004,70.612L61.832,71.435L61.832,71.433C61.826,71.436 61.822,71.439 61.82,71.443C61.055,71.978 59.999,71.791 59.463,71.027C58.927,70.261 59.115,69.207 59.878,68.669C59.882,68.669 59.887,68.666 59.891,68.662L59.889,68.662L63.004,66.48L63.004,63.776L61.832,64.598C61.826,64.601 61.822,64.605 61.82,64.606C61.055,65.141 59.999,64.955 59.463,64.19C58.927,63.425 59.115,62.37 59.878,61.835C59.882,61.831 59.887,61.83 59.891,61.827L59.889,61.827L75.244,51.077L75.244,48.371L61.832,57.762C61.826,57.764 61.822,57.767 61.82,57.771C61.055,58.305 59.999,58.12 59.463,57.356C58.927,56.589 59.115,55.535 59.878,54.997C59.882,54.997 59.887,54.996 59.891,54.993L59.889,54.993L63.004,52.81L63.004,48.794L63.007,48.794C63.007,48.789 63.004,48.785 63.004,48.781C63.004,47.809 63.793,47.019 64.765,47.019C65.737,47.019 66.524,47.809 66.524,48.781L66.524,50.346L75.244,44.239L75.244,40.445C75.244,39.473 76.032,38.684 77.002,38.684C77.975,38.684 78.763,39.473 78.763,40.445C78.763,40.449 78.762,40.454 78.761,40.457L78.763,40.457L78.763,44.239L87.482,50.346L87.482,48.781C87.482,47.809 88.27,47.019 89.241,47.019C90.212,47.019 90.999,47.809 90.999,48.781L90.999,52.81L94.116,54.993C94.119,54.996 94.123,54.997 94.127,54.997C94.892,55.535 95.078,56.589 94.542,57.356C94.007,58.12 92.952,58.305 92.185,57.771C92.183,57.767 92.178,57.764 92.175,57.762L78.763,48.371L78.763,51.077L94.116,61.827ZM77.002,36.923C62.05,36.948 49.954,49.047 49.926,63.999C49.954,78.955 62.05,91.047 77.002,91.077C91.959,91.047 104.05,78.955 104.08,63.999C104.05,49.047 91.959,36.948 77.002,36.923ZM78.763,57.912L87.482,64.018L87.482,61.311L78.763,55.207L78.763,57.912ZM51.433,87.643C51.391,87.702 51.093,87.771 51.026,87.953C50.957,88.143 50.909,88.314 51.069,88.438C51.162,88.505 51.03,88.585 50.847,88.63C50.708,88.664 49.84,88.717 49.819,88.482C49.807,88.317 50.2,87.879 50.62,87.744C50.75,87.657 50.838,87.421 50.96,87.379C51.161,87.292 51.475,87.588 51.433,87.643ZM49.361,87.66C49.01,87.901 48.867,88.229 48.743,88.211C48.548,88.186 48.4,88.02 48.231,87.944C47.925,87.805 47.646,87.724 47.618,87.647C47.559,87.488 47.765,87.623 47.919,87.514C48.472,87.137 48.714,86.897 48.944,86.95C49.182,87.004 49.283,87.108 49.422,87.137C49.705,87.192 49.886,87.137 49.871,87.192C49.859,87.24 49.635,87.468 49.361,87.66ZM47.364,86.933C47.331,86.584 48.027,86.683 48.134,86.791C48.331,86.994 47.406,87.309 47.364,86.933ZM49.147,86.242C49.222,85.966 50.474,86.261 50.593,86.475C50.672,86.617 50.523,86.709 50.205,86.667C49.741,86.602 49.072,86.512 49.147,86.242ZM53.08,86.851C52.67,86.625 52.373,86.451 52.295,86.203C52.291,86.181 52.218,85.922 52.131,85.883C52.044,85.839 52.008,85.986 51.856,85.861C51.712,85.736 51.206,85.176 50.758,84.993C50.571,84.915 50.358,84.524 50.126,84.491C49.899,84.458 49.311,84.625 49.514,85.118C49.608,85.331 50.225,85.296 50.673,85.677C50.891,85.861 51.142,85.755 51.206,86.074C51.232,86.198 51.167,86.183 51.102,86.186C51.062,86.186 50.248,85.778 49.499,85.6C48.978,85.476 48.516,85.376 48.325,85.843C48.279,85.945 48.371,86.341 48.07,86.23C47.783,86.131 47.312,86.056 47.128,86.192C47.06,86.242 46.834,86.461 46.782,86.528C46.543,86.823 46.942,87.103 46.825,87.195C46.77,87.24 46.484,87.027 46.215,86.964C46.033,86.926 45.827,87.108 45.748,87.206C45.632,87.353 45.748,87.394 46.018,87.66C46.452,88.087 46.645,88.164 47.322,88.508C47.458,88.577 47.722,88.752 47.81,88.906C47.908,89.069 47.682,89.205 47.48,89.095C47.067,88.87 45.301,87.951 45.506,88.958C45.554,89.194 45.902,89.525 46.031,89.59C46.175,89.663 46.619,89.734 46.637,89.954C46.658,90.205 45.968,90.399 46.083,90.815C46.155,91.084 46.297,91.292 46.479,91.209C46.767,91.077 47.297,90.476 47.451,90.493C47.898,90.543 48.528,91.604 48.995,91.364C49.551,91.082 49.492,90.68 49.326,90.559C49.032,90.352 48.523,90.088 48.301,89.846C48.213,89.746 48.395,89.624 48.541,89.541C48.901,89.35 49.398,90.183 49.907,90.634C50.288,90.97 50.2,91.006 50.425,91.243C50.744,91.582 51.278,91.499 51.46,90.943C51.527,90.73 50.514,89.917 50.129,89.644C49.641,89.293 49.353,89.205 49.35,88.948C49.353,88.66 49.693,88.873 49.702,88.881C50.133,89.297 52.189,89.571 52.131,88.273C52.112,87.831 52.486,87.8 52.073,87.466C52.039,87.436 51.573,87.17 51.544,87.036C51.522,86.913 51.73,86.704 51.942,86.861C52.233,87.071 52.661,87.497 52.722,87.524C53.325,87.85 53.797,87.255 53.08,86.851ZM51.851,84.238C51.851,84.238 51.611,84.038 51.493,84.017C51.353,83.976 51.333,84.062 51.206,84.069C51.072,84.052 50.978,84.149 50.93,84.251C50.804,84.522 51.084,84.865 51.554,85.107C52.127,85.397 52.303,84.567 51.851,84.238ZM46.312,75.392L45.437,75.772L46.368,77.914L44.596,78.683L43.754,76.737L42.873,77.121L43.72,79.066L42.123,79.759L41.227,77.706L40.35,78.087L41.722,81.241L47.723,78.631L46.312,75.392ZM60.118,94.813C60.064,95.178 59.529,95.418 59.154,95.499C59.014,95.529 58.846,95.648 58.76,95.668C58.534,95.717 58.563,95.605 58.781,95.389C58.902,95.271 59.178,95.004 59.011,94.809C58.848,94.614 59.142,94.141 59.294,94.286C59.573,94.554 60.131,94.723 60.118,94.813ZM61.006,92.649C60.916,92.473 61.252,92.071 60.768,92.057C60.704,92.051 60.428,92.007 60.34,92.057C60.257,92.105 60.104,92.422 60.066,92.407C59.84,92.31 59.463,92.126 58.931,91.976C58.42,91.839 58.141,91.468 57.73,91.582C57.557,91.636 57.417,91.642 57.266,91.744C56.997,91.919 57.054,92.32 57.347,92.51C57.475,92.594 58.366,92.477 58.708,92.562C59.109,92.657 59.512,92.778 59.548,92.947C59.562,93.033 59.461,93.168 59.297,93.284C58.7,93.688 58.398,93.481 58.075,93.478C58.009,93.475 58.03,93.339 58.149,93.281C58.299,93.198 58.593,93.176 58.606,93.119C58.623,93.047 58.157,92.877 57.726,92.84C57.56,92.823 57.426,92.853 57.284,92.88C56.861,92.956 56.231,93.628 55.971,94.358C55.759,94.963 55.474,95.418 55.78,95.694C56.149,96.019 56.37,95.614 56.65,94.935C56.81,94.549 57.177,94.347 57.374,94.242C57.453,94.196 57.741,93.811 58.245,94.159C58.266,94.172 58.227,94.307 58.075,94.296C57.877,94.288 57.617,94.398 57.565,94.506C57.503,94.648 57.572,94.834 57.542,95.024C57.514,95.22 57.139,95.167 57.393,95.56C57.411,95.589 57.166,95.679 57.075,95.616C57.032,95.589 57.06,95.505 57.014,95.486C56.872,95.424 56.637,95.749 56.599,95.781C56.389,95.962 56.077,96.028 55.747,96.104C55.189,96.24 54.434,96.482 54.003,96.66C53.498,96.869 53.571,97.24 54.107,97.507C54.343,97.625 55.031,97.349 55.371,97.228C55.606,97.144 56.114,96.982 56.332,97.044C56.561,97.113 55.55,98.242 55.562,98.424C55.589,98.731 56.029,99.087 56.247,98.713C56.342,98.544 56.428,98.316 56.569,98.054C56.671,97.85 56.856,97.642 56.966,97.465C57.121,97.21 57.266,96.962 57.336,96.988C57.503,97.051 57.469,97.32 57.603,97.7C57.929,98.592 58.864,99.582 59.664,99.994C60.147,100.242 60.53,100.034 60.34,99.394C60.298,99.253 60.265,99.15 60.234,99.076C60.14,98.839 60.135,99.095 59.678,98.74C59.548,98.644 59.026,98.065 58.741,97.814C58.606,97.691 58.398,97.372 58.269,97.069C58.191,96.869 57.954,96.762 58.368,96.575C58.619,96.463 58.451,96.172 58.664,96.136C58.842,96.109 59.178,96.132 59.409,96.082C59.687,96.028 60.043,95.833 60.48,95.686C60.885,95.554 61.474,94.779 61.255,94.46C61.104,94.236 60.799,94.126 60.412,93.882C60.219,93.753 59.784,93.988 60.003,93.688C60.154,93.484 60.179,93.384 60.407,93.378C60.763,93.375 61.796,93.967 61.943,93.369C62.066,92.887 61.208,93.022 61.006,92.649ZM40,73.555L39.994,73.538L42.75,71.981L43.183,73.67L40,73.555ZM45.777,73.758L44.135,73.69L43.582,71.51L44.993,70.676L44.686,69.476L38.866,73.133L39.193,74.408L46.074,74.919L45.777,73.758ZM53.5,85.934C53.285,85.706 52.873,85.548 52.427,85.641C52.138,85.699 52.394,86.001 52.455,86.062C52.515,86.122 52.585,86.11 52.639,86.15C52.856,86.318 52.99,86.595 53.136,86.62C53.702,86.715 53.854,86.307 53.5,85.934ZM72.502,100.16C72.251,100.3 72.102,100.357 71.949,100.323C71.867,100.306 71.712,100.097 71.767,100.006C71.898,99.781 71.83,99.68 71.893,99.554C72.006,99.345 72.31,99.449 72.506,99.458C72.767,99.478 72.941,99.394 72.946,99.584C72.946,99.584 72.842,99.974 72.502,100.16ZM71.134,98.419C70.948,98.669 70.721,98.766 70.611,98.631C70.536,98.534 70.997,98.166 71.212,97.926C71.475,97.63 71.522,97.686 71.603,97.76C71.69,97.847 71.391,98.073 71.134,98.419ZM68.398,97.879C67.957,97.971 67.826,98.29 67.743,98.467C67.707,98.551 67.599,98.513 67.592,98.426C67.572,98.227 67.601,97.879 67.786,97.634C68.032,97.299 68.143,97.025 68.335,96.815C68.574,96.545 68.873,96.45 68.935,96.531C69.05,96.685 68.738,96.829 68.716,96.969C68.656,97.37 68.586,97.367 68.458,97.548C68.374,97.68 68.626,97.829 68.398,97.879ZM73.652,98.634C73.245,98.412 72.518,98.77 72.351,98.511C72.288,98.404 72.477,98.215 72.515,98.078C72.579,97.847 72.458,97.63 72.275,97.571C72.16,97.527 72.172,97.372 72.311,97.372C72.522,97.37 72.616,97.402 72.822,97.436C73.207,97.502 73.435,97.497 73.697,97.168C73.78,97.069 73.761,96.832 73.613,96.703C73.421,96.535 72.779,96.472 72.102,96.432C71.378,96.396 70.611,96.321 70.442,96.571C70.359,96.695 70.19,96.832 70.099,96.988C69.961,97.221 69.877,97.431 69.735,97.516C69.281,97.78 69.113,98.387 69.047,98.171C68.999,98.025 68.785,98.023 68.664,97.985C68.607,97.965 68.626,97.802 68.695,97.746C68.768,97.691 68.774,97.746 68.873,97.715C69.147,97.628 69.486,97.37 69.557,97.174C69.724,96.682 69.953,96.318 69.751,96.01C69.577,95.749 69.252,95.614 68.913,95.567C68.734,95.543 68.437,95.547 68.247,95.614C67.916,95.73 67.775,96.119 67.545,96.589C67.452,96.783 67.247,97.018 67.141,97.317C67.007,97.704 66.832,98.242 66.749,98.525C66.564,99.15 66.505,99.59 66.619,100.054C66.677,100.294 66.576,100.618 66.91,100.662C67.183,100.698 67.125,99.665 67.247,99.205C67.294,99.014 67.354,98.837 67.51,98.766C67.559,98.743 67.606,98.655 67.692,98.703C67.771,98.752 67.606,99.018 67.743,99.031C67.985,99.051 68.138,98.763 68.317,98.888C68.458,98.987 68.226,99.227 68.016,99.377C67.619,99.671 67.397,100.259 67.908,100.437C68.126,100.513 68.408,100.228 68.539,99.933C68.647,99.703 68.632,99.547 68.734,99.366C68.813,99.223 68.944,99.205 69.058,99.031C69.165,98.871 69.252,98.677 69.411,98.489C69.595,98.266 69.848,98.047 70.019,97.872C70.208,97.674 70.375,97.484 70.578,97.376C70.781,97.272 71.071,97.213 71.234,97.343C71.349,97.437 70.823,97.694 70.492,97.956C70.039,98.323 69.754,98.813 69.611,99.458C69.552,99.721 69.359,100.436 69.519,100.61C69.64,100.732 69.749,100.783 69.911,100.777C70.323,100.766 70.229,99.989 70.49,99.684C70.548,99.617 70.603,99.493 70.714,99.563C70.829,99.639 70.398,101.146 70.13,102.024C69.947,102.629 69.885,103.14 69.808,103.622C69.779,103.827 69.754,104.019 70.047,104.098C70.463,104.208 70.691,103.317 70.827,102.765C70.945,102.307 71.147,101.628 71.367,101.406C71.603,101.158 72.14,101.03 72.466,100.981C72.8,100.93 73.105,100.559 73.299,100.422C73.571,100.231 73.847,99.547 73.916,99.3C74.013,98.958 73.916,98.777 73.652,98.634ZM84.194,97.655C84.081,97.751 83.972,97.851 83.972,98C83.979,98.188 84.043,98.343 84.153,98.409C84.235,98.467 84.34,98.472 84.454,98.426C84.615,98.363 84.67,98.178 84.731,97.981C84.767,97.857 84.807,97.732 84.872,97.619C84.969,97.461 85.078,97.419 85.193,97.372C85.294,97.332 85.4,97.293 85.488,97.168C85.567,97.059 85.591,96.937 85.556,96.826C85.515,96.686 85.391,96.579 85.206,96.51C84.95,96.422 84.851,96.585 84.78,96.693C84.758,96.731 84.734,96.77 84.717,96.771L84.697,96.762C84.546,96.637 84.603,96.471 84.663,96.295C84.695,96.208 84.724,96.125 84.734,96.04C84.742,95.923 84.712,95.838 84.646,95.792C84.546,95.726 84.378,95.749 84.146,95.866C84.043,95.913 83.97,96.015 83.889,96.123C83.818,96.223 83.74,96.332 83.631,96.405C83.338,96.585 83.148,96.789 82.997,96.951C82.89,97.071 82.802,97.163 82.714,97.207C82.647,97.238 82.528,97.259 82.399,97.283C82.173,97.326 81.917,97.372 81.836,97.485L81.714,97.712C81.659,97.824 81.607,97.939 81.549,97.957L81.51,97.954C81.413,97.899 81.471,97.724 81.53,97.557L81.553,97.491C81.629,97.259 81.765,97.105 81.88,96.969C81.952,96.892 82.013,96.816 82.047,96.74C82.113,96.607 82.096,96.471 82.001,96.366C81.901,96.255 81.73,96.217 81.593,96.269C81.337,96.366 81.004,96.881 80.853,97.18C80.763,97.361 80.707,97.548 80.656,97.732C80.597,97.929 80.541,98.119 80.444,98.292C80.341,98.476 80.446,98.714 80.597,98.871C80.737,99.016 80.974,99.142 81.177,99.036C81.226,99.012 81.241,98.956 81.262,98.896C81.298,98.789 81.337,98.655 81.541,98.599C81.632,98.576 81.71,98.632 81.798,98.702C81.905,98.785 82.025,98.873 82.201,98.81C82.375,98.745 82.486,98.498 82.58,98.281L82.655,98.119C82.784,97.859 83.437,96.915 83.708,96.778C83.839,96.715 83.923,96.696 83.972,96.72C84.029,96.746 84.048,96.829 84.075,96.942L84.096,97.037C84.126,97.132 84.204,97.171 84.272,97.207C84.334,97.238 84.385,97.263 84.391,97.325C84.401,97.465 84.3,97.557 84.194,97.655ZM114.001,73.285L108.597,71.867L108.29,73.028L113.695,74.446L113.327,75.853L114.253,76.097L115.296,72.116L114.374,71.874L114.001,73.285ZM116.031,64.957C115.97,64.705 115.862,64.48 115.723,64.289C115.577,64.096 115.397,63.939 115.179,63.818C114.963,63.698 114.706,63.631 114.413,63.621C113.986,63.608 113.637,63.689 113.361,63.873C113.089,64.057 112.852,64.307 112.658,64.627L112.301,65.223C112.212,65.365 112.136,65.485 112.061,65.59C111.988,65.695 111.912,65.78 111.833,65.848C111.757,65.917 111.676,65.969 111.588,66.001C111.497,66.031 111.396,66.043 111.272,66.038C111.115,66.033 110.972,66.004 110.858,65.946C110.741,65.885 110.644,65.811 110.57,65.712C110.494,65.615 110.44,65.507 110.409,65.387C110.372,65.269 110.362,65.143 110.364,65.013C110.376,64.693 110.434,64.415 110.544,64.173C110.648,63.932 110.741,63.755 110.82,63.639L109.756,63.533C109.545,63.851 109.436,64.345 109.411,65.013C109.398,65.327 109.426,65.615 109.499,65.882C109.568,66.155 109.681,66.39 109.841,66.592C109.994,66.792 110.19,66.958 110.434,67.08C110.678,67.197 110.964,67.265 111.295,67.278C111.527,67.288 111.728,67.271 111.906,67.231C112.072,67.188 112.235,67.126 112.37,67.038C112.506,66.947 112.634,66.832 112.755,66.698C112.871,66.563 112.986,66.4 113.101,66.21L113.52,65.522C113.57,65.428 113.628,65.346 113.683,65.263C113.74,65.186 113.8,65.114 113.869,65.051C113.934,64.987 114.015,64.939 114.104,64.904C114.192,64.872 114.298,64.858 114.426,64.862C114.65,64.872 114.832,64.952 114.971,65.11C115.108,65.269 115.17,65.497 115.159,65.799C115.146,66.078 115.108,66.316 115.035,66.508C114.963,66.704 114.897,66.872 114.832,67.014L115.834,67.107C115.87,67.014 115.92,66.854 115.992,66.622C116.063,66.388 116.103,66.095 116.116,65.75C116.127,65.473 116.099,65.209 116.031,64.957ZM109.068,69.55L115.544,70.507L115.72,69.319L109.248,68.362L109.068,69.55ZM107.103,76.478L106.628,77.577L109.014,78.606L111.875,81.943L112.389,80.752L110.456,78.617L113.365,78.48L113.88,77.293L109.514,77.515L107.103,76.478ZM95.937,94.331C96.124,93.967 96.142,93.547 95.747,93.499C95.6,93.481 95.538,93.456 95.3,93.607C94.89,93.862 95.062,94.048 94.782,94.23C94.67,94.307 94.526,93.777 94.732,93.586C95.161,93.185 95.581,92.591 95.409,92.103C95.268,91.7 95.025,91.374 94.514,91.88C94.244,92.143 93.901,92.522 93.723,93.125C93.489,93.895 93.371,94.75 93.022,95.28C92.799,95.62 92.752,95.421 92.479,95.679C91.721,96.39 91.321,97.033 91.719,97.424C91.995,97.695 92.367,97.6 92.564,97.529C92.81,97.442 92.949,97.238 92.995,97.372C93.043,97.507 92.858,98.109 92.773,98.585C92.741,98.777 92.57,99.219 92.317,99.565C91.896,100.148 91.778,100.342 91.914,100.517C92.085,100.725 92.373,100.69 92.606,100.513C92.874,100.317 93.759,98.864 93.989,97.281C94.03,97 94.211,96.671 94.278,96.436C94.374,96.125 94.298,95.923 94.459,95.704C94.956,95.054 95.69,94.803 95.937,94.331ZM99.212,95.561C98.924,95.2 98.343,95.345 97.726,95.74C97.364,95.97 96.917,96.035 96.645,96.104C95.816,96.321 95.147,96.045 94.937,96.101C94.732,96.159 94.843,96.679 95.016,96.92C95.504,97.625 96.921,97.341 97.754,97.061C98.079,96.952 98.418,96.62 98.691,96.432C98.985,96.24 99.286,96.172 99.259,95.97C99.232,95.767 99.334,95.714 99.212,95.561ZM102.605,87.751C102.605,87.751 102.53,87.673 102.52,87.671C102.331,87.604 102.365,87.082 102.387,87.061C102.66,86.841 103.06,87.824 102.605,87.751ZM102.505,85.476C102.605,85.161 102.499,85.086 102.587,84.946C102.705,84.767 102.964,84.815 103.157,84.982C103.336,85.138 103.459,85.404 103.329,85.554C103.187,85.727 102.978,85.522 102.879,85.61C102.762,85.718 102.805,85.995 102.99,85.982C103.154,85.966 103.26,86.144 103.3,86.327C103.315,86.406 103.241,86.572 103.273,86.642C103.309,86.742 103.508,86.769 103.558,86.868C103.602,86.959 103.446,87.238 103.28,87.224C103.013,87.195 103.069,86.692 102.959,86.583C102.396,86.016 102.461,85.619 102.505,85.476ZM102.073,88.005C101.941,88.041 101.892,88.109 101.775,87.952C101.51,87.604 101.474,87.146 101.6,86.977C101.874,86.612 101.855,87.224 101.877,87.303C101.929,87.475 102.201,87.971 102.073,88.005ZM101.855,89.292C101.742,89.339 101.604,89.069 101.404,88.878C101.115,88.599 100.741,88.25 100.77,88.189C100.816,88.087 100.774,87.66 100.888,87.679C101.079,87.712 101.263,88.213 101.38,88.373C101.568,88.709 101.67,88.496 101.762,88.887C101.814,89.108 102.005,89.227 101.855,89.292ZM103.29,88.352C103.735,87.847 104.042,87.292 104.299,86.971C104.441,86.797 104.652,86.667 104.782,86.475C104.928,86.255 105.088,86.543 105.23,86.515C105.585,86.451 105.908,86.184 105.895,85.91C105.906,85.74 105.776,85.467 105.439,85.307C104.815,85.002 104.336,86.388 103.97,86.272C103.888,86.247 103.885,85.672 103.89,85.786C103.869,85.457 103.796,85.043 103.58,84.699C103.405,84.421 103.26,84.45 103.094,84.344C102.959,84.26 102.863,84.131 102.676,84.113C102.205,84.06 101.986,84.414 101.996,84.727C102.005,85.062 102.275,85.641 102.089,85.854C101.883,86.087 101.674,86.076 101.59,85.915C101.475,85.687 101.456,85.225 101.311,85.143C101.226,85.098 101.034,85.224 100.925,85.424C100.813,85.628 101.034,86.12 100.78,86.215C100.664,86.258 100.519,86.017 100.415,86.042C100.12,86.109 100.452,86.881 100.276,87.096C99.967,87.473 100.014,87.724 100.192,88.087C100.326,88.353 100.634,88.726 100.799,89.037C100.983,89.392 101.337,89.605 101.308,89.779C101.27,89.965 101.186,89.849 101.073,89.998C100.907,90.21 101.407,91.382 102.076,91.768C102.201,91.839 102.551,91.867 102.654,91.676C102.842,91.328 102.101,91.117 101.964,90.736C101.872,90.486 102.45,89.789 102.741,89.261C102.875,89.019 103.024,88.655 103.29,88.352ZM105.939,87.936C105.794,88.013 105.371,88.82 105.064,89.16C104.945,89.293 104.845,89.268 104.771,89.198C104.514,88.966 105.305,88.243 105.04,88.003C104.646,87.645 104.233,87.771 103.912,88.218C103.912,88.218 103.535,88.787 103.145,89.252C102.82,89.639 102.65,90.388 103.006,90.53C103.378,90.68 103.683,90.338 103.769,89.934C103.796,89.801 103.749,89.781 103.724,89.663C103.693,89.516 103.809,89.459 103.809,89.376C103.803,89.127 103.784,88.991 103.975,89.01C104.045,89.016 104.205,89.305 104.242,89.386C104.309,89.54 104.376,89.803 104.299,89.984C104.05,90.597 103.688,91.196 103.943,91.527C103.999,91.6 104.378,91.637 104.514,91.568C104.675,91.487 104.646,91.335 104.751,91.015C104.791,90.89 105.052,90.74 105.094,90.634C105.173,90.438 105.178,90.099 105.285,90.123C105.498,90.174 105.791,90.595 105.847,91.062C105.879,91.341 105.839,91.658 105.695,91.768C105.64,91.806 105.385,92.135 105.581,92.367C105.807,92.627 106.062,92.591 106.2,92.521C106.794,92.212 106.646,91.571 106.617,90.907C106.603,90.557 106.471,90.192 106.363,90.043C106.195,89.801 106.27,89.772 106.179,89.688C105.998,89.522 105.83,89.54 105.834,89.453C105.855,89.174 106.203,88.962 106.261,88.89C106.355,88.777 106.614,88.561 106.665,88.335C106.762,87.908 106.107,87.842 105.939,87.936ZM87.594,99.897C87.31,99.933 87.313,100.285 87.313,100.574L87.307,100.789C87.266,101.218 86.58,101.724 85.957,101.986L85.789,102.056C85.488,102.192 85.254,102.296 84.88,102.156C84.717,102.099 84.563,101.797 84.533,101.485C84.509,101.24 84.569,101.049 84.703,100.972C84.76,100.936 84.778,100.954 84.807,100.989C84.879,101.06 84.96,101.104 85.266,100.871C85.294,100.85 85.3,100.776 85.309,100.632C85.318,100.513 85.331,100.378 85.359,100.295L85.464,100.048L85.531,99.875C85.563,99.604 85.467,99.352 85.26,99.189C85.027,99.007 84.701,98.969 84.391,99.09C83.932,99.269 83.515,99.653 83.148,99.987C82.775,100.328 82.449,100.623 82.152,100.655C82.047,100.667 81.968,100.623 81.898,100.58C81.826,100.546 81.765,100.505 81.697,100.534C81.604,100.571 81.519,100.732 81.417,101.076C81.394,101.138 81.394,101.263 81.398,101.41C81.402,101.64 81.407,101.93 81.304,102.02C81.274,102.044 81.237,102.053 81.195,102.044C81.149,102.039 81.12,102.017 81.098,101.979C81.004,101.809 81.151,101.412 81.153,101.407C81.156,101.402 81.177,101.071 81.177,101.071C81.177,100.969 81.174,100.876 81.195,100.792C81.328,100.321 81.73,100.185 82.156,100.041C82.378,99.97 82.68,99.659 82.73,99.576C82.818,99.413 82.644,99.263 82.503,99.142L82.481,99.123C82.246,98.922 82.033,98.89 81.826,99.021C81.652,99.134 81.453,99.391 81.223,99.689C81.046,99.914 80.864,100.145 80.673,100.343L80.606,100.413C80.205,100.809 79.755,101.293 79.802,101.511C79.81,101.55 79.833,101.583 79.882,101.6C80.065,101.672 80.22,101.464 80.355,101.284C80.462,101.138 80.557,101.01 80.638,101.052C80.672,101.071 80.683,101.088 80.689,101.115C80.705,101.158 80.678,101.234 80.618,101.335L80.588,101.378C80.517,101.496 80.446,101.601 80.435,101.909C80.424,102.343 80.519,102.431 80.678,102.574L80.844,102.735C80.917,102.818 80.934,102.961 80.947,103.056L80.972,103.16C81.082,103.263 81.159,103.249 81.21,103.233C81.257,103.225 81.284,103.221 81.319,103.266C81.4,103.378 81.391,103.668 81.337,103.709C81.331,103.714 81.325,103.72 81.298,103.689C81.237,103.612 81.09,103.651 81.032,103.665C80.876,103.708 80.838,103.841 80.806,103.959L80.779,104.046C80.624,104.474 80.858,104.662 81.107,104.793C81.257,104.868 81.386,104.932 81.629,104.781C81.838,104.648 81.838,104.277 81.838,103.886L81.838,103.76C81.84,103.394 81.874,103.081 81.926,102.898C81.99,102.676 81.957,102.513 81.928,102.382L81.905,102.193C81.928,101.95 82.05,101.845 82.21,101.713C82.293,101.644 82.387,101.566 82.477,101.456L82.68,101.202C82.926,100.886 83.123,100.635 83.488,100.386C83.609,100.306 83.728,100.185 83.844,100.068C84.004,99.908 84.165,99.743 84.339,99.67L84.371,99.653C84.527,99.586 84.811,99.455 84.917,99.548C84.958,99.576 85.077,99.823 85.036,99.952C85.021,100.001 84.99,100.023 84.933,100.028C84.845,100.034 84.829,99.985 84.812,99.902C84.8,99.846 84.786,99.792 84.734,99.765C84.642,99.721 84.366,99.794 84.36,99.797C84.257,99.823 84.19,99.955 84.105,100.109C84.048,100.217 83.982,100.34 83.892,100.441C83.569,100.805 83.55,101.414 83.699,101.827C83.872,102.303 84.149,102.458 84.314,102.552L84.414,102.617C84.818,102.966 85.354,103.216 86.53,102.68C87.307,102.33 87.882,101.807 88.11,101.243C88.214,100.988 88.133,100.35 87.904,100.054C87.814,99.936 87.711,99.884 87.594,99.897ZM89.424,28.12L89.441,28.128L89.223,31.284L87.573,30.718L89.424,28.12ZM86.076,32.838L87.037,31.503L89.163,32.239L89.081,33.873L90.251,34.28L90.396,27.405L89.156,26.977L84.946,32.445L86.076,32.838ZM62.237,35.053L60.109,30.42L60.127,30.411L64.224,34.146L65.527,33.546L62.802,27.598L61.811,28.052L63.951,32.721L63.935,32.73L59.819,28.969L58.517,29.559L61.249,35.508L62.237,35.053ZM94.261,35.374L92.356,34.367L94.962,29.424L93.901,28.866L90.847,34.651L93.817,36.217L94.261,35.374ZM74.013,26.062C74.354,26.038 74.619,26.088 74.814,26.197C75.009,26.31 75.121,26.552 75.144,26.926C75.168,27.265 75.086,27.52 74.901,27.696C74.72,27.869 74.464,27.969 74.147,27.99L73.661,28.023L73.527,26.094L74.013,26.062ZM73.912,31.71L73.718,28.904L73.992,28.886C74.211,28.869 74.398,28.905 74.558,28.994C74.72,29.079 74.846,29.252 74.944,29.508L75.735,31.586L77.009,31.498L75.989,29.066C75.926,28.923 75.863,28.803 75.798,28.711C75.731,28.615 75.668,28.549 75.599,28.499C75.537,28.449 75.468,28.415 75.407,28.398C75.341,28.38 75.278,28.368 75.214,28.36L75.214,28.33C75.578,28.25 75.866,28.07 76.087,27.782C76.305,27.5 76.399,27.142 76.372,26.711C76.35,26.415 76.283,26.159 76.177,25.948C76.072,25.74 75.922,25.572 75.744,25.445C75.562,25.314 75.35,25.226 75.103,25.172C74.862,25.12 74.594,25.105 74.307,25.125L72.269,25.261L72.715,31.79L73.912,31.71ZM66.927,27.74C67.004,27.527 67.113,27.359 67.255,27.231C67.397,27.108 67.559,27.021 67.742,26.975C67.922,26.929 68.107,26.929 68.292,26.975C68.477,27.018 68.653,27.119 68.815,27.275C68.981,27.43 69.132,27.65 69.276,27.938C69.423,28.225 69.548,28.587 69.657,29.024C69.762,29.461 69.821,29.84 69.824,30.158C69.83,30.481 69.796,30.747 69.724,30.962C69.653,31.176 69.547,31.345 69.402,31.472C69.259,31.597 69.095,31.681 68.913,31.725C68.734,31.771 68.55,31.771 68.368,31.727C68.18,31.681 68.004,31.584 67.843,31.427C67.677,31.27 67.526,31.05 67.378,30.763C67.233,30.478 67.109,30.116 67.001,29.679C66.89,29.243 66.834,28.862 66.832,28.545C66.824,28.223 66.857,27.953 66.927,27.74ZM66.37,31.4C66.614,31.777 66.882,32.069 67.183,32.277C67.483,32.479 67.797,32.611 68.138,32.661C68.477,32.712 68.812,32.7 69.135,32.618C69.465,32.538 69.762,32.395 70.039,32.192C70.317,31.99 70.536,31.725 70.703,31.405C70.871,31.084 70.974,30.702 71.013,30.254C71.048,29.806 70.997,29.298 70.86,28.724C70.716,28.158 70.528,27.684 70.287,27.306C70.044,26.923 69.772,26.633 69.476,26.425C69.175,26.222 68.86,26.091 68.519,26.038C68.181,25.99 67.847,26.004 67.522,26.083C67.194,26.164 66.89,26.31 66.619,26.51C66.343,26.713 66.119,26.975 65.951,27.299C65.785,27.618 65.681,28.004 65.641,28.451C65.605,28.897 65.658,29.407 65.8,29.975C65.939,30.547 66.13,31.02 66.37,31.4ZM79.749,26.171L79.768,26.173L80.634,31.783L81.477,31.894L83.797,26.686L83.811,26.688L83.125,32.101L84.206,32.239L85.027,25.748L83.311,25.53L81.325,30.199L81.308,30.198L80.586,25.182L78.806,24.955L77.981,31.448L79.061,31.586L79.749,26.171ZM108.859,57.35L109.784,57.1L109.166,54.847L111.027,54.336L111.588,56.383L112.509,56.129L111.952,54.085L113.634,53.627L114.225,55.788L115.146,55.538L114.239,52.216L107.928,53.943L108.859,57.35ZM97.577,38.882C97.724,39.127 97.915,39.349 98.151,39.55C98.384,39.752 98.631,39.907 98.891,40.015C99.153,40.125 99.422,40.174 99.703,40.157C99.984,40.144 100.264,40.064 100.55,39.909C100.837,39.754 101.12,39.514 101.402,39.185L104.169,35.98L103.262,35.197L100.492,38.403C100.137,38.815 99.828,39.046 99.563,39.092C99.297,39.141 99.037,39.053 98.776,38.832C98.512,38.597 98.384,38.353 98.394,38.083C98.4,37.812 98.585,37.474 98.94,37.065L101.706,33.854L100.799,33.07L98.03,36.278C97.748,36.606 97.552,36.921 97.442,37.224C97.332,37.532 97.291,37.823 97.317,38.101C97.344,38.383 97.43,38.642 97.577,38.882ZM114.796,58.977L114.856,59.459C114.892,59.793 114.863,60.062 114.756,60.262C114.654,60.463 114.419,60.583 114.047,60.627C113.71,60.666 113.449,60.596 113.266,60.417C113.082,60.243 112.973,59.995 112.934,59.68L112.879,59.195L114.796,58.977ZM109.211,59.617L112.004,59.295L112.035,59.565C112.061,59.781 112.033,59.972 111.953,60.136C111.878,60.299 111.712,60.434 111.459,60.545L109.42,61.434L109.566,62.699L111.945,61.566C112.088,61.499 112.205,61.431 112.295,61.361C112.382,61.29 112.452,61.223 112.498,61.156C112.542,61.086 112.573,61.02 112.585,60.954C112.601,60.89 112.612,60.826 112.616,60.761L112.643,60.759C112.743,61.119 112.937,61.402 113.233,61.606C113.526,61.813 113.886,61.893 114.317,61.841C114.616,61.808 114.867,61.731 115.068,61.612C115.275,61.494 115.435,61.344 115.555,61.156C115.675,60.969 115.757,60.749 115.796,60.505C115.837,60.26 115.84,59.991 115.806,59.708L115.574,57.678L109.072,58.424L109.211,59.617ZM101.519,42.735L105.487,39.534L105.504,39.549L102.889,44.437L103.787,45.554L108.884,41.45L108.203,40.599L104.202,43.824L104.19,43.813L106.825,38.891L105.931,37.783L100.837,41.889L101.519,42.735ZM106.91,51.352L113.695,50.485L113.189,49.36L108.028,50.19L108.022,50.173L112.08,46.896L111.548,45.718L106.391,50.2L106.91,51.352ZM105.112,47.777L110.705,44.38L110.081,43.353L104.487,46.751L105.112,47.777ZM49.865,46.042L44.359,42.5L43.711,43.512L49.214,47.051L49.865,46.042ZM47.097,51.058L44.491,49.819L45.324,48.067L47.931,49.305L48.446,48.223L42.534,45.411L42.024,46.497L44.426,47.641L43.593,49.391L41.188,48.25L40.673,49.335L46.581,52.14L47.097,51.058ZM38.808,62.795L44.39,63.077L44.452,61.878L38.869,61.597L38.942,60.146L37.99,60.095L37.781,64.207L38.736,64.255L38.808,62.795ZM39.751,55.119C39.976,55.436 40.268,55.712 40.631,55.948C40.992,56.184 41.404,56.368 41.858,56.495C42.325,56.627 42.768,56.684 43.198,56.673C43.624,56.661 44.017,56.574 44.374,56.417C44.733,56.255 45.042,56.018 45.309,55.705C45.576,55.392 45.778,54.993 45.915,54.512C45.997,54.221 46.052,53.946 46.083,53.685C46.109,53.424 46.106,53.223 46.074,53.086L45,52.85C45.06,53.008 45.089,53.192 45.1,53.401C45.105,53.606 45.069,53.854 44.991,54.134C44.921,54.374 44.815,54.591 44.673,54.779C44.526,54.968 44.34,55.119 44.108,55.229C43.881,55.343 43.607,55.403 43.292,55.417C42.977,55.434 42.613,55.381 42.203,55.267C41.795,55.151 41.461,55.01 41.201,54.827C40.937,54.652 40.737,54.454 40.598,54.241C40.461,54.026 40.382,53.802 40.358,53.562C40.33,53.326 40.353,53.086 40.424,52.846C40.508,52.553 40.614,52.324 40.754,52.156C40.893,51.99 41.006,51.854 41.104,51.75L40.082,51.396C40.003,51.504 39.893,51.671 39.761,51.894C39.629,52.121 39.517,52.396 39.428,52.722C39.294,53.19 39.26,53.629 39.323,54.031C39.388,54.439 39.53,54.797 39.751,55.119ZM39.834,69.376C40.258,69.335 40.597,69.213 40.846,68.994C41.098,68.78 41.297,68.496 41.451,68.16L41.735,67.522C41.801,67.37 41.864,67.24 41.925,67.128C41.983,67.019 42.046,66.922 42.113,66.843C42.183,66.767 42.262,66.704 42.344,66.665C42.427,66.622 42.528,66.596 42.647,66.585C42.808,66.569 42.952,66.585 43.075,66.626C43.198,66.668 43.302,66.733 43.386,66.82C43.474,66.906 43.544,67.007 43.587,67.121C43.638,67.239 43.665,67.359 43.677,67.491C43.706,67.809 43.683,68.093 43.607,68.346C43.535,68.594 43.463,68.783 43.398,68.909L44.472,68.879C44.635,68.536 44.686,68.035 44.63,67.367C44.599,67.056 44.533,66.772 44.43,66.515C44.326,66.257 44.184,66.038 44.005,65.857C43.823,65.675 43.607,65.538 43.35,65.449C43.096,65.36 42.802,65.329 42.471,65.36C42.242,65.379 42.044,65.419 41.873,65.482C41.71,65.542 41.561,65.626 41.437,65.733C41.311,65.836 41.201,65.966 41.1,66.115C41,66.264 40.906,66.443 40.818,66.646L40.486,67.379C40.443,67.478 40.403,67.57 40.355,67.652C40.309,67.74 40.257,67.818 40.198,67.89C40.14,67.96 40.066,68.018 39.981,68.062C39.901,68.11 39.795,68.138 39.673,68.149C39.445,68.169 39.259,68.108 39.1,67.97C38.942,67.83 38.851,67.608 38.826,67.31C38.801,67.03 38.812,66.789 38.861,66.588C38.907,66.386 38.951,66.213 38.994,66.062L37.994,66.094C37.969,66.192 37.94,66.359 37.896,66.598C37.857,66.836 37.85,67.13 37.88,67.48C37.902,67.752 37.965,68.009 38.061,68.251C38.156,68.493 38.29,68.703 38.453,68.876C38.62,69.049 38.821,69.185 39.052,69.275C39.281,69.369 39.545,69.402 39.834,69.376ZM51.299,44.031L47.416,40.731L47.427,40.716L52.712,42.367L53.644,41.277L48.66,37.036L47.953,37.864L51.869,41.192L51.853,41.207L46.533,39.537L45.608,40.622L50.593,44.861L51.299,44.031ZM52.827,34.63L52.843,34.616L55.416,36.457L54.067,37.567L52.827,34.63ZM55.089,39.951L54.452,38.438L56.196,37.011L57.548,37.94L58.505,37.155L52.73,33.425L51.712,34.257L54.158,40.711L55.089,39.951Z" style="fill:rgb(172,30,50);"/>
    </g>
</svg>
