<?xml version="1.0" encoding="UTF-8" standalone="no"?>
<!DOCTYPE svg PUBLIC "-//W3C//DTD SVG 1.1//EN" "http://www.w3.org/Graphics/SVG/1.1/DTD/svg11.dtd">
<svg width="100%" height="100%" viewBox="0 0 154 157" version="1.1" xmlns="http://www.w3.org/2000/svg" xmlns:xlink="http://www.w3.org/1999/xlink" xml:space="preserve" xmlns:serif="http://www.serif.com/" style="fill-rule:evenodd;clip-rule:evenodd;stroke-linejoin:round;stroke-miterlimit:2;">
    <g>
        <g transform="matrix(1,0,0,1,-0.0988317,14.5)">
            <path d="M42.031,20C46.486,22.597 52.349,24.427 59.373,24.491C66.572,24.574 72.678,23.168 77.085,20.376C81.526,23.153 87.702,24.602 94.831,24.491C101.724,24.4 107.794,22.597 112.18,20.035C112.264,30.38 112.021,40.246 112.021,50.542C112.021,60.77 112.571,71.387 109.953,79.206C108.679,83.042 106.758,86.258 104.592,89.273C102.462,92.259 99.816,94.877 96.976,97.035C94.023,99.284 90.612,100.878 87.145,102.625C84.173,104.122 81.186,105.668 78.29,107.241C77.886,107.464 77.411,107.61 77.12,108C75.559,106.949 73.861,106.106 72.176,105.222C70.478,104.353 68.765,103.461 67.066,102.59C65.312,101.692 63.557,100.927 61.893,100.042C60.229,99.165 58.718,98.142 57.235,96.993C51.408,92.544 46.911,86.78 44.244,79.107C42.881,75.146 42.49,70.615 42.254,65.705C42.031,60.867 42.149,55.715 42.149,50.696C42.149,40.469 42.004,30.415 42.004,20.112C41.996,20.056 41.996,20 42.031,20ZM75.323,23.676C69.197,26.377 59.547,27.165 51.723,25.584C49.272,25.089 47.044,24.428 45.109,23.53C44.851,23.405 44.565,23.195 44.245,23.223C44.155,32.74 44.398,42.612 44.398,51.781C44.398,56.551 44.168,61.424 44.356,65.963C44.565,70.482 45.074,74.77 46.312,78.46C47.532,82.08 49.161,85.192 51.194,88.026C54.229,92.273 57.905,95.796 62.555,98.316C64.122,99.151 65.771,99.896 67.443,100.669C70.701,102.194 73.959,103.787 77.197,105.368C80.425,103.76 83.706,102.235 86.922,100.669C88.58,99.868 90.243,99.186 91.796,98.343C94.887,96.701 97.519,94.494 99.858,92.015C103.353,88.332 106.207,83.751 107.935,78.425C110.357,70.941 109.855,61.465 109.855,51.885C109.855,42.237 109.884,32.733 109.953,23.223C109.661,23.223 109.375,23.404 109.097,23.53C107.085,24.414 104.914,25.152 102.496,25.625C96.809,26.732 89.833,26.565 84.479,25.395C81.722,24.796 79.279,23.87 77.12,22.771C76.674,23.126 76.013,23.37 75.323,23.676Z" style="fill:rgb(106,0,95);"/>
        </g>
        <g transform="matrix(1,0,0,1,-0.0988317,14.5)">
            <path d="M77.878,26.677C80.892,27.004 83.156,28.578 84.52,30.812C84.701,31.105 85.001,31.578 84.973,31.808C84.931,32.051 84.75,32.246 84.52,32.233C84.221,32.219 84.137,31.808 83.914,31.439C82.767,29.427 80.908,28.041 78.248,27.575C78.373,28.188 78.651,28.779 78.888,29.414C79.112,30.04 79.348,30.687 79.563,31.299C79.668,31.411 79.55,31.557 79.563,31.71C80.044,31.676 80.581,31.697 80.503,32.232C80.399,32.922 78.339,32.4 77.573,32.573C77.489,33.102 77.559,33.806 77.537,34.398C77.956,34.648 79.946,34.188 80.35,34.481C80.469,34.557 80.518,34.801 80.503,34.927C80.392,35.679 78.373,35.066 77.573,35.26C77.455,35.887 77.745,36.764 77.12,36.806C76.521,36.84 76.689,36.012 76.675,35.296C75.922,35.024 73.862,35.693 73.708,34.968C73.5,33.938 75.917,34.683 76.632,34.397C76.703,33.889 76.703,33.116 76.632,32.601C75.964,32.35 73.848,32.949 73.708,32.267C73.598,31.737 74.126,31.655 74.613,31.71C74.719,31.613 74.559,31.487 74.613,31.334C75.101,30.122 75.498,28.821 76.007,27.616C72.789,28.055 70.757,30.005 69.74,32.747C70.089,32.733 70.618,32.531 71.313,32.413C72.052,32.288 73.55,31.946 73.111,32.977C72.505,33.172 71.815,33.151 71.189,33.283C70.576,33.401 70.019,33.617 69.504,33.805C69.406,33.994 69.378,34.258 69.35,34.522C69.894,34.44 70.464,34.203 71.188,34.07C71.709,33.979 73.264,33.605 73.11,34.446C73.04,34.815 72.595,34.767 72.247,34.787C71.244,34.85 69.984,35.177 69.35,35.532C69.323,35.665 69.35,35.964 69.391,36.131C70.005,35.971 70.45,35.838 71.23,35.713C71.717,35.65 72.887,35.323 72.998,35.866C73.159,36.646 71.787,36.423 71.126,36.541C70.408,36.674 69.977,36.876 69.546,37.021C69.706,37.391 69.712,37.864 69.35,37.926C68.599,38.094 68.515,36.326 68.487,35.609C68.459,34.509 68.612,33.534 68.835,32.789C69.825,29.392 72.47,27.219 76.34,26.642C76.619,26.231 76.619,25.409 77.163,25.465C77.643,25.514 77.594,26.315 77.878,26.677ZM77.621,28.438C77.496,28.118 77.371,27.408 77.009,27.471C76.375,28.779 75.95,30.297 75.393,31.71C75.714,31.725 76.319,31.697 76.632,31.71C76.395,30.45 77.83,30.374 77.537,31.71L78.818,31.71C78.455,30.743 77.997,29.49 77.621,28.438Z" style="fill:rgb(106,0,95);"/>
        </g>
        <g transform="matrix(1,0,0,1,-0.0988317,14.5)">
            <path d="M59.416,29.935C59.602,30.081 59.353,30.31 59.449,30.457C59.993,30.352 60.668,30.77 60.724,31.063C60.801,31.439 60.383,31.843 60.494,32.336C61.413,32.922 61.636,34.203 62.681,34.675C63.133,35.532 63.432,36.827 63.237,38.01C63.085,38.909 62.193,39.006 62.374,40.183C62.458,40.691 62.764,41.714 63.126,41.875C63.362,41.98 63.684,41.854 63.919,42.021C64.107,42.251 64.017,42.752 63.878,42.968C63.153,43.1 62.889,43.866 61.998,43.566C61.664,43.441 61.079,43.058 60.912,42.773C60.8,42.592 60.814,42.334 60.724,42.139C60.536,41.714 60.201,41.457 60.007,41.157C59.464,41.325 57.793,41.04 58.058,41.916C58.183,42.307 59.506,42.111 59.074,43.114C58.921,43.462 57.779,43.949 57.347,44.047C57.194,44.075 56.916,44.095 56.818,44.081C56.679,44.068 56.554,43.936 56.373,43.893C56.01,43.824 55.523,43.984 55.134,43.893C54.897,43.852 54.242,43.385 54.005,43.183C53.852,43.044 53.547,42.668 53.491,42.507C53.316,42.097 53.429,41.756 52.988,41.568C52.794,41.485 52.544,41.519 52.322,41.457C51.918,41.359 51.486,41.031 51.159,41.276C50.749,41.728 51.396,41.923 51.604,42.321C51.806,42.696 51.681,42.975 51.723,43.518C51.59,43.698 51.304,44.025 50.971,44.081C50.518,44.165 49.905,43.824 49.272,43.671C48.861,43.566 48.242,43.566 48.159,43.149C48.103,42.883 48.366,42.73 48.415,42.507C48.492,42.209 48.325,41.972 48.528,41.728C48.243,41.289 48.367,40.606 48.339,39.814C48.312,38.95 48.325,38.366 48.528,37.746C48.604,37.523 48.618,37.265 48.688,37.14C48.799,36.876 49.572,36.256 49.885,36.096C50.594,35.699 51.778,35.386 53.032,35.567C53.296,35.595 53.533,35.817 53.783,35.866C54.257,35.95 54.897,35.817 55.399,35.866C55.552,35.776 55.677,35.679 55.775,35.532C55.816,34.718 55.357,34.397 55.134,33.841C55.238,33.018 54.995,32.086 55.287,31.299C55.364,31.076 55.733,30.45 55.928,30.234C56.115,30.019 56.513,29.711 56.749,29.67C57.18,29.594 57.905,29.837 58.323,29.977C58.559,29.81 59.088,29.81 59.416,29.935ZM57.194,31.634C57.569,31.725 57.71,31.271 57.877,31.028C57.779,30.848 57.835,30.506 57.569,30.499C57.605,31.035 57.348,31.279 57.194,31.634ZM55.816,31.474C55.858,31.529 55.969,31.522 56.082,31.522C56.179,31.299 56.214,31.001 56.331,30.812C56.004,30.708 55.788,31.209 55.816,31.474ZM58.175,31.599C57.835,31.863 57.18,32.128 57.389,32.685C57.417,32.692 57.459,32.685 57.459,32.713C57.89,32.588 58.01,32.128 58.323,31.857C58.587,31.634 59.075,31.488 59.033,30.98C58.6,30.819 58.449,31.37 58.175,31.599ZM58.175,33.353C58.183,33.368 58.253,33.43 58.253,33.451C58.393,33.541 58.489,33.368 58.657,33.353C58.964,33.326 59.185,33.5 59.373,33.5C59.554,33.326 59.394,33.005 59.185,32.978C58.935,33.38 58.051,32.65 58.175,33.353ZM60.571,32.978C60.377,32.957 60.3,33.172 60.313,33.312C60.342,33.569 60.801,33.855 61.066,33.841C60.981,33.681 60.76,33.005 60.571,32.978ZM57.306,33.541C57,33.66 56.825,33.938 56.749,34.28C57,34.384 57.048,34.028 57.263,33.994C57.522,34.132 57.515,34.53 57.793,34.627C57.862,34.739 58.197,34.585 58.211,34.739C58.211,34.941 57.89,34.941 57.682,35.045C57.459,35.156 57.048,35.484 56.707,35.693C56.109,36.034 55.329,36.48 56.219,36.876C56.317,36.8 56.213,36.611 56.261,36.521C56.331,36.34 57.069,35.818 57.153,35.804C57.306,35.776 57.479,35.887 57.612,35.866C58.002,35.818 58.092,35.441 58.433,35.296C58.648,35.345 58.865,35.386 59.158,35.38C59.498,35.497 59.318,36.146 59.714,36.214C59.895,35.964 59.756,35.615 59.979,35.38C59.943,35.136 59.722,35.072 59.749,34.787C59.812,34.641 59.979,34.606 60.125,34.551C60.48,34.808 60.41,35.49 60.759,35.748C61.065,35.56 61.142,34.878 60.953,34.551C60.786,34.28 60.272,34.175 60.159,33.966C59.283,33.973 58.614,34.189 57.946,34.398C57.682,34.176 57.569,33.785 57.306,33.541ZM61.622,35.95C61.901,35.79 61.748,35.206 61.442,35.191C61.309,35.407 61.309,35.943 61.622,35.95ZM58.092,36.278C58.175,36.48 58.489,36.437 58.545,36.653C58.433,37.071 58.782,37.28 58.852,37.636C58.629,37.956 58.28,37.663 58.175,37.447C58.01,37.475 57.905,37.559 57.905,37.747C58.768,37.802 58.295,38.805 57.759,38.978C57.597,39.048 57.375,38.978 57.194,39.021C56.986,39.076 56.789,39.312 56.561,39.397C56.205,39.522 55.878,39.418 55.663,39.591C55.552,40.03 55.607,40.573 55.928,40.567C56.248,40.552 56.233,39.919 56.561,39.814C57.027,39.891 56.979,39.521 57.235,39.439C57.375,39.383 57.535,39.48 57.718,39.439C58.238,39.292 58.378,38.617 58.698,38.227C59.547,38.332 59.756,37.593 59.784,36.994C59.311,37.086 58.741,37.148 58.656,36.737C58.614,36.438 58.886,36.306 58.963,36.021C58.741,35.636 58.149,35.937 58.092,36.278ZM51.123,36.396C50.956,36.396 50.992,36.194 50.79,36.242C50.818,36.528 50.553,36.528 50.484,36.688C50.525,36.89 50.79,36.89 50.859,37.071C51.452,37.057 51.612,36.625 52.127,36.542C52.029,35.846 51.5,36.166 51.123,36.396ZM52.962,36.131C52.822,36.347 52.975,36.709 53.184,36.807C53.533,36.653 53.421,36.068 52.962,36.131ZM54.911,37.663C55.071,37.475 54.994,36.994 54.717,36.994C54.604,37.148 54.55,37.747 54.911,37.663ZM48.869,38.053C49.104,38.185 49.661,38.227 49.843,38.011C49.71,37.753 49.71,37.531 49.731,37.301C49.356,37.447 48.993,37.642 48.869,38.053ZM55.092,38.227C55.399,38.282 56.01,38.359 56.081,38.053C55.928,37.663 55.037,37.684 55.092,38.227ZM50.859,38.944C50.692,38.958 50.761,38.741 50.594,38.757C50.372,38.763 50.372,38.992 50.176,39.021C50.1,38.992 50.051,38.937 49.912,38.944C49.828,39.021 49.703,39.062 49.731,39.236C49.925,39.153 49.982,39.188 50.142,39.278C50.204,39.208 50.183,39.062 50.33,39.062C50.302,39.619 49.96,40.197 49.321,40.252C49.258,40.552 49.063,40.698 48.868,40.858C48.715,41.547 48.91,42.181 49.579,42.181C49.627,42.056 49.612,41.861 49.62,41.68C49.425,41.499 49.243,41.311 49.321,40.858C49.425,40.767 49.557,40.698 49.766,40.705C50.051,40.44 50.302,40.12 50.483,39.73C50.358,39.311 50.79,39.02 50.97,39.361C50.97,39.472 50.852,39.668 51.04,39.66C51.194,39.619 51.04,39.508 51.04,39.396C51.228,39.152 51.639,39.139 51.757,38.832C51.472,38.387 51.166,38.818 50.859,38.944ZM49.048,39.633C49.258,39.459 49.328,39.048 49.202,38.757C48.826,38.756 48.756,39.48 49.048,39.633ZM53.86,39.731C53.888,39.87 54.173,39.801 54.271,39.773C54.271,39.724 54.284,39.689 54.313,39.661C54.257,39.571 54.145,39.515 54.041,39.472C54.083,39.661 53.846,39.571 53.86,39.731ZM57.048,40.184C56.902,40.252 56.749,40.301 56.679,40.448C56.624,40.699 56.776,41.151 56.561,41.234C56.199,40.977 55.928,41.172 55.691,41.429C55.51,41.394 55.455,41.22 55.175,41.277C55.148,41.402 55.038,41.861 55.246,41.875C55.455,41.833 55.134,41.485 55.399,41.485C55.468,41.667 55.594,41.778 55.691,41.916C55.677,42.195 55.579,42.759 55.733,42.968C56.179,42.836 55.753,41.833 56.304,41.791C56.484,41.896 56.435,42.237 56.451,42.508C56.61,42.578 56.805,42.822 57.084,42.85C57.39,42.884 57.939,42.78 58.059,42.551C57.863,42.397 57.543,42.39 57.39,42.209C57.328,42.167 57.348,42.014 57.348,41.916C56.98,41.667 56.805,41.04 56.972,40.483C57.028,40.301 57.403,40.044 57.084,39.842C57.027,39.905 57.055,40.065 57.048,40.184ZM50.066,42.361L50.066,42.467C50.4,42.432 50.477,42.836 50.748,42.738C50.664,42.481 50.344,42.292 50.066,42.361Z" style="fill:rgb(106,0,95);"/>
        </g>
        <g transform="matrix(1,0,0,1,-0.0988317,14.5)">
            <path d="M103.771,41.277C103.409,41.04 102.936,41.373 102.559,41.457C102.106,41.569 101.703,41.561 101.514,41.951C101.431,42.132 101.473,42.334 101.403,42.508C101.097,43.239 100.387,43.427 99.829,43.893C99.453,43.964 99.008,43.817 98.556,43.893C98.249,43.949 98.104,44.145 97.616,44.048C96.92,43.922 95.965,43.462 95.812,43.072C95.513,42.321 96.335,42.195 96.829,41.986C96.962,41.234 96.418,41.353 95.771,41.277C95.465,41.234 95.11,41.116 94.942,41.158C94.775,41.207 94.317,41.784 94.163,42.139C94.078,42.321 94.093,42.57 94.009,42.738C93.786,43.183 92.923,43.664 92.437,43.629C91.817,43.609 91.713,43.058 91.008,42.968C90.849,42.655 90.793,42.21 91.008,42.021C91.182,41.875 91.656,41.952 91.872,41.791C92.13,41.611 92.714,40.114 92.513,39.397C92.381,38.937 91.781,38.533 91.684,38.164C91.656,38.026 91.643,37.711 91.643,37.516C91.643,36.611 91.67,35.38 92.214,34.711C92.437,34.426 92.84,34.28 93.119,33.994C93.619,33.451 93.689,32.574 94.427,32.386C94.407,31.863 94.26,31.496 94.163,31.063C94.441,30.722 94.734,30.38 95.437,30.457C95.555,30.29 95.29,30.095 95.471,29.935C95.771,29.824 96.321,29.796 96.515,29.977C96.912,29.81 97.365,29.74 97.804,29.671C98.576,29.552 99.015,30.331 99.301,30.847C99.509,31.209 99.69,31.425 99.754,32.003C99.78,32.267 99.76,32.608 99.754,32.95C99.754,33.248 99.788,33.605 99.754,33.806C99.621,34.55 98.548,35.38 99.496,35.866C99.99,35.804 100.568,35.965 101.096,35.866C101.375,35.818 101.64,35.595 101.814,35.567C102.378,35.47 103.061,35.511 103.506,35.567C104.606,35.713 105.469,36.431 106.165,37.071C106.179,37.509 106.507,37.886 106.583,38.373C106.694,39.153 106.666,40.385 106.548,41.158C106.485,41.547 106.346,41.916 106.472,42.467C106.528,42.717 106.75,42.864 106.729,43.072C106.693,43.567 106.067,43.567 105.538,43.713C104.592,43.971 103.589,44.437 103.171,43.49C103.192,42.932 103.109,42.655 103.324,42.279C103.52,41.916 104.09,41.791 103.771,41.277ZM97.728,31.634C97.742,31.39 97.463,31.341 97.393,31.105C97.323,30.903 97.484,30.631 97.268,30.457C96.808,30.819 97.206,31.725 97.728,31.634ZM98.814,31.522C98.954,31.536 99.05,31.502 99.106,31.439C99.057,31.112 98.925,30.854 98.625,30.77C98.563,30.98 98.8,31.244 98.814,31.522ZM95.848,30.98C95.875,31.613 96.411,31.648 96.753,32.003C97.018,32.288 97.087,32.664 97.421,32.713C97.804,32.253 97.073,31.725 96.676,31.557C96.503,31.299 96.293,30.861 95.848,30.98ZM94.609,33.242C94.609,33.151 94.469,32.957 94.317,32.978C94.149,33.005 93.856,33.75 93.856,33.841C94.135,33.862 94.623,33.486 94.609,33.242ZM96.182,33.131C96.008,33.151 95.806,32.95 95.667,32.978C95.499,33.019 95.305,33.444 95.583,33.499C95.751,33.396 96.363,33.256 96.6,33.499C96.829,33.353 96.718,33.096 96.516,32.978C96.349,32.971 96.37,33.102 96.182,33.131ZM97.657,33.541C97.283,33.709 97.268,34.224 96.906,34.398C96.28,34.147 95.583,33.98 94.72,33.966C94.609,34.216 93.995,34.328 93.898,34.676C93.787,35.031 93.898,35.511 94.078,35.748C94.525,35.553 94.566,33.98 95.179,34.85C95.124,35.073 94.956,35.191 94.906,35.421C95.158,35.588 95.019,35.95 95.138,36.214C95.597,36.214 95.394,35.567 95.702,35.421C95.945,35.366 96.252,35.366 96.487,35.296C96.849,35.553 97.128,36.033 97.755,35.804C98.09,36.146 98.716,36.278 98.668,36.876C98.954,36.876 99.134,36.57 99.106,36.396C99.078,36.041 98.319,35.748 97.949,35.532C97.734,35.401 97.559,35.219 97.351,35.114C97.1,34.996 96.753,35.01 96.711,34.739C96.738,34.614 96.962,34.683 97.087,34.676C97.365,34.543 97.365,34.119 97.657,33.994C97.852,34.028 97.942,34.363 98.138,34.28C98.145,34.022 97.909,33.681 97.657,33.541ZM93.119,35.748C93.384,36.214 93.675,35.539 93.488,35.191C93.188,35.206 93.16,35.498 93.119,35.748ZM95.932,36.02C96.036,36.278 96.238,36.438 96.259,36.765C96.099,37.182 95.485,37.009 95.096,37.022C95.186,37.551 95.29,38.367 96.182,38.199C96.474,38.651 96.697,39.153 97.17,39.438C97.825,39.188 97.769,39.842 98.326,39.814C98.66,39.911 98.646,40.545 98.96,40.566C99.329,40.594 99.35,39.918 99.231,39.549C98.911,39.417 98.625,39.529 98.284,39.396C98.125,39.334 98.006,39.118 97.839,39.062C97.587,38.978 97.317,39.076 97.087,38.978C96.767,38.853 96.516,38.366 96.516,37.969C96.593,37.789 96.933,37.886 96.976,37.663C96.962,37.524 96.864,37.475 96.753,37.447C96.614,37.663 96.245,37.969 96.036,37.593C96.182,37.28 96.433,37.092 96.377,36.57C96.474,36.438 96.753,36.48 96.788,36.278C96.767,35.901 96.141,35.665 95.932,36.02ZM102.754,36.521C103.241,36.625 103.451,37.043 104.034,37.071C104.09,36.876 104.398,36.897 104.439,36.688C104.327,36.541 104.084,36.527 104.105,36.242C103.882,36.194 103.938,36.423 103.728,36.396C103.367,36.117 102.907,35.908 102.754,36.521ZM101.738,36.807C101.904,36.681 102.072,36.409 101.961,36.131C101.48,36.061 101.333,36.688 101.738,36.807ZM100.095,36.994C99.927,37.092 99.808,37.489 99.983,37.663C100.353,37.753 100.387,37.043 100.095,36.994ZM105.038,38.053C105.282,38.213 105.721,38.15 106.019,38.088C105.922,37.636 105.538,37.454 105.155,37.301C105.19,37.537 105.155,37.781 105.038,38.053ZM98.855,38.116C98.98,38.317 99.524,38.296 99.788,38.227C99.886,37.663 98.882,37.642 98.855,38.116ZM103.13,38.867C103.31,39.096 103.652,39.181 103.841,39.396C103.826,39.48 103.771,39.591 103.841,39.661C104.077,39.641 103.938,39.48 103.917,39.319C104.48,38.909 104.411,39.89 104.662,40.252C104.828,40.497 105.038,40.525 105.121,40.705C105.26,40.733 105.414,40.747 105.538,40.782C105.86,41.353 105.01,41.61 105.345,42.182C106.18,42.292 106.305,40.795 105.693,40.566C105.693,40.441 105.637,40.385 105.609,40.301C104.982,40.217 104.537,39.571 104.592,39.062C104.731,39.341 104.947,39.125 105.191,39.236C105.177,39.076 105.066,39.006 104.933,38.944C104.829,38.951 104.773,39.021 104.663,39.021C104.565,38.937 104.495,38.805 104.328,38.756C104.161,38.756 104.203,38.978 104,38.944C103.756,38.741 103.353,38.415 103.13,38.867ZM105.901,39.591C106.116,39.382 106.039,38.77 105.721,38.756C105.553,39.006 105.601,39.508 105.901,39.591ZM100.616,39.731C100.707,39.814 100.86,39.814 101.028,39.814C101.028,39.752 101.04,39.731 101.067,39.689C100.93,39.598 100.623,39.362 100.616,39.731ZM97.949,40.525C97.88,40.893 97.949,41.179 97.909,41.569C97.713,41.75 97.504,41.888 97.547,42.209C97.351,42.397 96.948,42.369 96.829,42.627C97.31,42.892 98.132,42.912 98.445,42.508C98.493,42.251 98.383,41.826 98.668,41.791C99.14,41.888 98.729,42.856 99.197,42.968C99.33,42.738 99.288,42.139 99.197,41.916C99.371,41.805 99.371,41.541 99.609,41.485C99.635,41.61 99.524,41.875 99.677,41.875C99.83,41.784 99.809,41.401 99.719,41.276C99.406,41.206 99.406,41.429 99.155,41.429C99.016,41.06 98.625,41.04 98.284,41.234C98.16,41.004 98.244,40.767 98.215,40.42C97.937,40.315 97.853,40.036 97.756,39.842C97.616,40.156 97.853,40.357 97.949,40.525ZM104.174,42.773C104.439,42.697 104.634,42.551 104.821,42.397C104.606,42.251 104.174,42.46 104.174,42.773Z" style="fill:rgb(106,0,95);"/>
        </g>
        <g transform="matrix(1,0,0,1,-0.0988317,14.5)">
            <path d="M84.479,32.831C84.709,32.796 84.778,32.531 85.084,32.573C85.558,32.608 85.67,33.889 85.725,34.522C85.81,35.636 85.711,38.631 84.597,37.636C84.569,37.392 84.612,37.224 84.668,37.071C84.137,36.758 83.079,36.521 82.154,36.431C81.687,36.396 81.032,36.459 81.213,35.832C81.36,35.33 82.536,35.651 83.016,35.714C83.762,35.839 84.193,35.965 84.778,36.132C84.903,36.034 84.834,35.748 84.896,35.568C84.459,35.241 82.975,34.851 82.007,34.788C81.533,34.754 81.061,34.809 81.061,34.335C81.061,34.12 81.228,34.057 81.367,33.917C82.717,33.939 83.81,34.203 84.82,34.551C85.099,33.605 83.859,33.486 83.162,33.312C82.467,33.152 81.756,33.117 81.213,33.055C80.908,32.902 80.935,32.282 81.401,32.268C82.265,32.246 83.914,32.573 84.479,32.831Z" style="fill:rgb(106,0,95);"/>
        </g>
        <g transform="matrix(1,0,0,1,-0.0988317,14.5)">
            <path d="M78.777,43.49C77.941,42.404 80.615,42.515 80.949,41.952C80.581,41.763 80.059,41.673 79.563,41.611C79.056,41.541 78.533,41.485 78.06,41.485C78.094,42.237 78.429,43.519 77.621,43.748C77.05,43.894 75.296,43.734 75.213,43.33C75.038,42.404 76.549,43.01 77.231,42.92C77.411,42.515 77.252,41.841 77.12,41.485C75.776,41.374 74.489,41.631 73.374,41.875C73.708,42.397 74.683,42.265 74.76,42.774C74.948,43.894 73.012,42.759 72.733,42.579C71.676,41.973 70.902,41.27 70.143,40.252C69.845,39.857 69.238,39.091 69.28,38.687C69.322,38.283 70.207,38.053 70.784,37.9C74.162,36.988 78.053,36.64 81.812,37.406C82.321,37.51 82.906,37.705 83.497,37.9C83.992,38.053 84.911,38.255 84.974,38.61C85.051,39.077 84.186,40.176 83.992,40.448C83.135,41.597 82.252,42.314 80.921,42.92C80.295,43.198 79.584,43.511 78.777,43.49ZM70.324,38.944C70.833,39.911 71.55,40.65 72.358,41.311C72.902,41.116 73.493,40.956 74.126,40.859C73.876,40.621 73.562,40.483 73.22,40.218C72.972,40.03 72.484,39.752 72.505,39.362C72.539,38.951 73.417,38.741 74.008,38.609C75.978,38.171 78.29,38.227 80.169,38.637C80.754,38.777 81.744,38.93 81.744,39.396C81.744,39.661 81.297,40.044 81.061,40.217C80.741,40.483 80.379,40.51 80.17,40.858C80.866,40.907 81.395,41.13 81.966,41.311C82.816,40.719 83.455,39.918 83.914,38.944C80.336,37.447 73.952,37.551 70.324,38.944ZM73.862,39.591C75.323,40.866 78.888,40.866 80.35,39.591C78.609,39.021 75.595,39.021 73.862,39.591Z" style="fill:rgb(106,0,95);"/>
        </g>
        <g transform="matrix(1,0,0,1,-0.0988317,14.5)">
            <path d="M52.168,65.538C52.168,65.455 52.133,65.351 52.098,65.19C52.057,65.045 52.022,64.934 51.98,64.891C51.918,64.794 51.798,64.724 51.612,64.697C51.429,64.669 51.208,64.647 50.929,64.647L46.94,64.647L46.94,64.306L51.388,61.02L48.583,61.02C48.27,61.02 48.033,61.034 47.866,61.076C47.692,61.111 47.574,61.167 47.503,61.264C47.448,61.319 47.392,61.445 47.35,61.625C47.295,61.806 47.267,61.925 47.267,61.98L47.002,61.98L47.002,59.76L47.267,59.76C47.281,59.829 47.295,59.948 47.35,60.101C47.392,60.269 47.434,60.366 47.462,60.407C47.532,60.499 47.643,60.567 47.782,60.588C47.935,60.624 48.187,60.651 48.548,60.651L51.222,60.651C51.333,60.651 51.452,60.623 51.57,60.581C51.695,60.54 51.778,60.491 51.848,60.421C51.932,60.317 52.001,60.192 52.064,60.045C52.127,59.892 52.155,59.76 52.168,59.655L52.433,59.655L52.433,61.215L48.283,64.264L50.873,64.264C51.188,64.264 51.437,64.257 51.604,64.209C51.778,64.181 51.891,64.111 51.946,64.028C51.995,63.958 52.043,63.853 52.085,63.686C52.127,63.519 52.155,63.394 52.168,63.317L52.432,63.317L52.432,65.538L52.168,65.538Z" style="fill:rgb(106,0,95);fill-rule:nonzero;"/>
        </g>
        <g transform="matrix(1,0,0,1,-0.0988317,14.5)">
            <path d="M47.448,71.742L47.211,69.501L47.482,69.473C47.518,69.667 47.559,69.836 47.615,69.96C47.656,70.085 47.712,70.14 47.782,70.14C47.797,70.14 47.824,70.134 47.852,70.12C47.88,70.113 47.913,70.106 47.935,70.085L49.105,69.521L48.917,67.62C48.728,67.565 48.569,67.516 48.436,67.495C48.297,67.461 48.173,67.425 48.06,67.412C47.935,67.385 47.852,67.385 47.782,67.37L47.615,67.37C47.511,67.385 47.448,67.461 47.399,67.635C47.365,67.802 47.35,67.976 47.358,68.178L47.087,68.206L46.876,66.158L47.148,66.145C47.163,66.208 47.184,66.291 47.217,66.395C47.253,66.486 47.295,66.563 47.35,66.618C47.42,66.723 47.503,66.786 47.58,66.842C47.656,66.89 47.769,66.932 47.907,66.974C48.617,67.176 49.412,67.385 50.288,67.642C51.166,67.878 51.946,68.094 52.641,68.289L52.67,68.589L48.179,70.872C48.088,70.907 48.005,70.963 47.949,71.019C47.893,71.075 47.837,71.151 47.797,71.249C47.768,71.311 47.74,71.388 47.733,71.479C47.712,71.576 47.712,71.653 47.712,71.722L47.448,71.742ZM49.425,69.347L51.452,68.317L49.272,67.718L49.425,69.347Z" style="fill:rgb(106,0,95);fill-rule:nonzero;"/>
        </g>
        <g transform="matrix(1,0,0,1,-0.0988317,14.5)">
            <path d="M53.908,77.43C53.894,77.367 53.853,77.256 53.783,77.117C53.714,76.992 53.643,76.894 53.595,76.839C53.519,76.769 53.38,76.734 53.192,76.734C53.017,76.741 52.781,76.776 52.509,76.839L48.617,77.695L48.548,77.374L52.188,73.197L49.446,73.796C49.139,73.858 48.91,73.935 48.756,74.011C48.597,74.095 48.492,74.178 48.436,74.27C48.394,74.339 48.366,74.471 48.366,74.652C48.352,74.854 48.352,74.979 48.366,75.021L48.102,75.09L47.615,72.911L47.879,72.849C47.907,72.919 47.963,73.023 48.04,73.176C48.116,73.33 48.172,73.412 48.22,73.448C48.311,73.531 48.422,73.559 48.575,73.559C48.727,73.559 48.98,73.531 49.327,73.448L51.938,72.87C52.056,72.842 52.167,72.8 52.279,72.738C52.377,72.668 52.453,72.592 52.501,72.515C52.571,72.41 52.613,72.257 52.641,72.104C52.655,71.929 52.662,71.797 52.648,71.707L52.912,71.652L53.253,73.162L49.856,77.054L52.377,76.482C52.697,76.413 52.918,76.35 53.087,76.266C53.247,76.197 53.337,76.12 53.379,76.023C53.406,75.946 53.434,75.815 53.441,75.654C53.448,75.487 53.448,75.355 53.434,75.286L53.699,75.216L54.18,77.381L53.908,77.43Z" style="fill:rgb(106,0,95);fill-rule:nonzero;"/>
        </g>
        <g transform="matrix(1,0,0,1,-0.0988317,14.5)">
            <path d="M55.607,80.625C55.566,80.563 55.509,80.486 55.448,80.409C55.378,80.334 55.315,80.271 55.258,80.215C55.182,80.152 55.113,80.118 55.038,80.138C54.967,80.146 54.883,80.166 54.813,80.215L52.015,81.816C51.869,81.899 51.701,81.962 51.5,81.99C51.305,82.025 51.11,82.025 50.915,81.99C50.693,81.934 50.484,81.858 50.288,81.726C50.108,81.593 49.947,81.398 49.807,81.168C49.606,80.82 49.528,80.472 49.606,80.117C49.689,79.776 49.884,79.511 50.239,79.316C50.379,79.234 50.539,79.191 50.705,79.191C50.859,79.206 50.984,79.288 51.082,79.441C51.144,79.581 51.172,79.692 51.138,79.817C51.123,79.943 51.04,80.041 50.922,80.117C50.846,80.159 50.761,80.187 50.677,80.201C50.594,80.215 50.518,80.215 50.442,80.215C50.364,80.208 50.288,80.208 50.191,80.208C50.1,80.201 50.017,80.208 49.953,80.215C49.912,80.299 49.884,80.409 49.884,80.549C49.884,80.681 49.933,80.82 50.023,80.987C50.122,81.155 50.246,81.259 50.372,81.315C50.504,81.377 50.65,81.397 50.803,81.377C50.943,81.363 51.11,81.315 51.292,81.238C51.472,81.155 51.667,81.071 51.869,80.952L54.368,79.511C54.437,79.462 54.5,79.414 54.535,79.372C54.577,79.309 54.591,79.234 54.591,79.129C54.583,79.038 54.555,78.933 54.521,78.816C54.479,78.704 54.437,78.62 54.403,78.543L54.647,78.412L55.838,80.486L55.607,80.625Z" style="fill:rgb(106,0,95);fill-rule:nonzero;"/>
        </g>
        <g transform="matrix(1,0,0,1,-0.0988317,14.5)">
            <path d="M53.693,86.85L52.209,84.908L52.419,84.74C52.474,84.789 52.544,84.872 52.621,84.97C52.711,85.061 52.781,85.13 52.823,85.165C52.906,85.206 52.975,85.221 53.045,85.221C53.115,85.206 53.192,85.178 53.268,85.124L56.4,82.728C56.471,82.679 56.527,82.624 56.561,82.561C56.589,82.506 56.589,82.422 56.561,82.311C56.533,82.228 56.499,82.13 56.451,82.025C56.4,81.92 56.359,81.844 56.317,81.775L56.533,81.607L58.016,83.55L57.794,83.717C57.752,83.655 57.682,83.591 57.605,83.515C57.529,83.431 57.453,83.369 57.376,83.32C57.306,83.264 57.223,83.243 57.146,83.257C57.069,83.272 57,83.306 56.93,83.355L53.804,85.749C53.742,85.798 53.686,85.853 53.657,85.924C53.63,86.001 53.623,86.07 53.643,86.173C53.665,86.216 53.707,86.313 53.755,86.411C53.812,86.528 53.86,86.62 53.909,86.682L53.693,86.85Z" style="fill:rgb(106,0,95);fill-rule:nonzero;"/>
        </g>
        <g transform="matrix(1,0,0,1,-0.0988317,14.5)">
            <path d="M63.043,88.778C62.986,88.73 62.89,88.667 62.764,88.59C62.624,88.52 62.527,88.478 62.444,88.465C62.332,88.451 62.207,88.492 62.053,88.597C61.915,88.716 61.734,88.869 61.554,89.071L58.795,91.953L58.559,91.724L59.241,86.23L57.306,88.256C57.09,88.493 56.937,88.667 56.846,88.828C56.763,88.974 56.728,89.113 56.735,89.21C56.735,89.301 56.789,89.419 56.889,89.579C56.986,89.739 57.055,89.843 57.097,89.886L56.916,90.081L55.294,88.535L55.489,88.347C55.537,88.396 55.635,88.451 55.788,88.528C55.942,88.612 56.038,88.66 56.094,88.66C56.213,88.667 56.331,88.632 56.456,88.535C56.575,88.451 56.763,88.291 57,88.034L58.866,86.091C58.935,86.001 59.004,85.917 59.06,85.799C59.108,85.681 59.131,85.583 59.123,85.493C59.116,85.353 59.074,85.222 59.004,85.074C58.928,84.915 58.866,84.811 58.795,84.727L58.976,84.531L60.104,85.611L59.464,90.721L61.246,88.855C61.462,88.618 61.623,88.423 61.706,88.283C61.789,88.131 61.817,88.006 61.817,87.908C61.789,87.831 61.734,87.706 61.65,87.567C61.567,87.427 61.498,87.323 61.442,87.254L61.622,87.059L63.223,88.583L63.043,88.778Z" style="fill:rgb(106,0,95);fill-rule:nonzero;"/>
        </g>
        <g transform="matrix(1,0,0,1,-0.0988317,14.5)">
            <path d="M66.121,94.376C66.065,94.348 65.98,94.313 65.897,94.264C65.8,94.222 65.724,94.195 65.654,94.181C65.562,94.181 65.493,94.188 65.417,94.229C65.361,94.264 65.299,94.327 65.243,94.411L65.006,94.759C64.838,95.015 64.714,95.184 64.665,95.274C64.602,95.372 64.561,95.434 64.533,95.496C64.157,95.434 63.809,95.351 63.489,95.225C63.167,95.093 62.862,94.953 62.597,94.78C62.312,94.571 62.068,94.334 61.881,94.049C61.679,93.756 61.554,93.45 61.491,93.123C61.427,92.768 61.427,92.42 61.512,92.058C61.581,91.695 61.734,91.319 61.985,90.972C62.208,90.624 62.487,90.345 62.8,90.129C63.112,89.914 63.447,89.767 63.795,89.69C64.136,89.614 64.492,89.614 64.846,89.683C65.201,89.753 65.549,89.9 65.856,90.108C66.107,90.282 66.316,90.463 66.468,90.659C66.607,90.847 66.719,91.021 66.816,91.209L67.081,91.076L67.339,91.257L66.301,92.851L66.051,92.671C66.121,92.461 66.176,92.273 66.217,92.051C66.273,91.835 66.288,91.633 66.273,91.417C66.259,91.216 66.204,91.021 66.107,90.847C66.015,90.673 65.856,90.505 65.662,90.366C65.424,90.22 65.2,90.122 64.958,90.095C64.714,90.067 64.464,90.095 64.213,90.192C63.962,90.275 63.712,90.429 63.475,90.659C63.224,90.874 62.987,91.132 62.764,91.452C62.577,91.738 62.43,92.03 62.326,92.335C62.222,92.635 62.179,92.928 62.179,93.199C62.186,93.472 62.25,93.736 62.375,93.98C62.499,94.209 62.688,94.418 62.932,94.592C63.126,94.717 63.307,94.814 63.502,94.843C63.697,94.884 63.85,94.912 63.948,94.884C64.046,94.78 64.13,94.689 64.206,94.571C64.282,94.46 64.351,94.362 64.4,94.293L64.561,94.042C64.63,93.952 64.672,93.868 64.686,93.784C64.714,93.701 64.706,93.611 64.644,93.527C64.588,93.45 64.52,93.353 64.415,93.263C64.296,93.165 64.213,93.088 64.143,93.054L64.296,92.803L66.28,94.146L66.121,94.376Z" style="fill:rgb(106,0,95);fill-rule:nonzero;"/>
        </g>
        <g transform="matrix(1,0,0,1,-0.0988317,14.5)">
            <path d="M79.766,95.26C79.695,95.26 79.598,95.274 79.459,95.308C79.32,95.336 79.208,95.372 79.118,95.427C79.027,95.489 78.972,95.614 78.943,95.796C78.909,95.977 78.888,96.199 78.888,96.464L78.888,98.832C78.888,99.124 78.825,99.388 78.7,99.611C78.568,99.841 78.407,100.022 78.206,100.168C78.01,100.3 77.794,100.412 77.565,100.46C77.342,100.529 77.134,100.558 76.924,100.558C76.604,100.558 76.305,100.516 76.054,100.426C75.797,100.342 75.588,100.224 75.406,100.077C75.239,99.931 75.107,99.772 75.03,99.575C74.934,99.388 74.892,99.194 74.892,98.991L74.892,95.789C74.892,95.685 74.878,95.614 74.85,95.553C74.823,95.49 74.759,95.434 74.669,95.392C74.613,95.351 74.529,95.316 74.425,95.294C74.321,95.275 74.237,95.26 74.181,95.26L74.181,94.982L76.437,94.982L76.437,95.26C76.367,95.26 76.277,95.266 76.172,95.288C76.061,95.308 75.985,95.337 75.935,95.35C75.839,95.372 75.782,95.434 75.762,95.496C75.727,95.58 75.713,95.664 75.713,95.747L75.713,98.741C75.713,98.88 75.727,99.041 75.762,99.194C75.796,99.353 75.86,99.499 75.95,99.646C76.053,99.785 76.186,99.896 76.36,99.98C76.534,100.07 76.757,100.126 77.065,100.126C77.342,100.126 77.579,100.07 77.773,99.98C77.955,99.896 78.114,99.785 78.219,99.639C78.316,99.499 78.4,99.353 78.448,99.2C78.483,99.047 78.511,98.908 78.511,98.748L78.511,96.526C78.511,96.235 78.483,96.004 78.448,95.823C78.4,95.65 78.344,95.524 78.275,95.469C78.178,95.406 78.052,95.356 77.905,95.315C77.744,95.288 77.628,95.26 77.544,95.26L77.544,94.982L79.765,94.982L79.766,95.26Z" style="fill:rgb(106,0,95);fill-rule:nonzero;"/>
        </g>
        <g transform="matrix(1,0,0,1,-0.0988317,14.5)">
            <path d="M86.08,92.503C86.017,92.544 85.92,92.6 85.81,92.698C85.683,92.802 85.6,92.878 85.558,92.941C85.503,93.032 85.496,93.165 85.544,93.339C85.58,93.526 85.656,93.742 85.766,93.993L87.361,97.641L87.048,97.787L82.258,95.023L83.379,97.592C83.497,97.878 83.608,98.093 83.72,98.225C83.824,98.379 83.93,98.455 84.027,98.483C84.11,98.518 84.242,98.518 84.423,98.483C84.612,98.462 84.737,98.434 84.792,98.413L84.903,98.663L82.85,99.563L82.739,99.304C82.808,99.277 82.898,99.2 83.038,99.088C83.163,98.991 83.24,98.908 83.267,98.866C83.323,98.768 83.331,98.635 83.303,98.483C83.275,98.336 83.191,98.114 83.052,97.773L81.98,95.322C81.924,95.218 81.868,95.106 81.785,95.023C81.701,94.939 81.618,94.877 81.52,94.842C81.409,94.813 81.262,94.779 81.102,94.793C80.928,94.806 80.796,94.828 80.706,94.87L80.601,94.612L82.021,93.993L86.477,96.568L85.447,94.195C85.321,93.909 85.203,93.693 85.099,93.547C84.993,93.4 84.896,93.324 84.799,93.31C84.709,93.283 84.597,93.283 84.423,93.31C84.263,93.338 84.137,93.373 84.055,93.4L83.95,93.143L85.975,92.273L86.08,92.503Z" style="fill:rgb(106,0,95);fill-rule:nonzero;"/>
        </g>
        <g transform="matrix(1,0,0,1,-0.0988317,14.5)">
            <path d="M91.524,95.65L89.325,96.722L89.206,96.478C89.269,96.45 89.352,96.388 89.471,96.332C89.582,96.262 89.659,96.199 89.693,96.164C89.75,96.088 89.791,96.018 89.798,95.949C89.805,95.879 89.791,95.796 89.75,95.719L88.008,92.182C87.981,92.099 87.932,92.029 87.883,91.987C87.828,91.953 87.744,91.938 87.633,91.945C87.55,91.953 87.451,91.973 87.34,91.987C87.215,92.022 87.131,92.05 87.062,92.078L86.936,91.834L89.144,90.762L89.263,91.006C89.193,91.041 89.116,91.097 89.018,91.153C88.929,91.208 88.844,91.271 88.788,91.34C88.718,91.402 88.678,91.493 88.678,91.57C88.678,91.632 88.705,91.709 88.732,91.786L90.46,95.322C90.494,95.399 90.543,95.462 90.612,95.496C90.668,95.545 90.752,95.559 90.85,95.553C90.905,95.553 90.996,95.538 91.114,95.496C91.226,95.469 91.33,95.434 91.406,95.406L91.524,95.65Z" style="fill:rgb(106,0,95);fill-rule:nonzero;"/>
        </g>
        <g transform="matrix(1,0,0,1,-0.0988317,14.5)">
            <path d="M94.191,87.107C94.142,87.162 94.078,87.226 94.023,87.303C93.968,87.379 93.933,87.469 93.912,87.532C93.878,87.629 93.856,87.712 93.878,87.818C93.891,87.908 93.912,88.027 93.94,88.144C94.064,88.576 94.26,89.231 94.525,90.107C94.803,90.992 95.082,91.911 95.373,92.872L95.13,93.067C94.225,92.531 93.355,92.015 92.519,91.5C91.67,90.999 91.106,90.665 90.807,90.484C90.736,90.449 90.66,90.413 90.576,90.393C90.5,90.387 90.417,90.387 90.319,90.393C90.236,90.407 90.152,90.428 90.076,90.463C90,90.498 89.929,90.539 89.866,90.567L89.692,90.358L91.447,88.959L91.628,89.167C91.475,89.301 91.363,89.418 91.279,89.516C91.197,89.62 91.182,89.697 91.225,89.752C91.238,89.78 91.267,89.808 91.293,89.822C91.328,89.85 91.35,89.871 91.377,89.885C91.6,90.023 91.976,90.233 92.498,90.546C93.021,90.873 93.757,91.305 94.719,91.869C94.565,91.382 94.398,90.804 94.196,90.142C93.987,89.481 93.842,89.035 93.757,88.792C93.682,88.548 93.618,88.402 93.577,88.332C93.528,88.249 93.487,88.187 93.459,88.137C93.424,88.088 93.367,88.067 93.298,88.074C93.23,88.074 93.159,88.088 93.075,88.123C92.993,88.159 92.908,88.2 92.826,88.249C92.755,88.29 92.686,88.332 92.616,88.381L92.436,88.165L94.022,86.905L94.191,87.107Z" style="fill:rgb(106,0,95);fill-rule:nonzero;"/>
        </g>
        <g transform="matrix(1,0,0,1,-0.0988317,14.5)">
            <path d="M100.268,85.339L101.43,86.438L98.535,89.906L98.326,89.739C98.375,89.676 98.43,89.586 98.508,89.481C98.57,89.37 98.612,89.301 98.619,89.244C98.646,89.168 98.639,89.099 98.619,89.035C98.591,88.966 98.535,88.903 98.465,88.848L95.465,86.334C95.402,86.279 95.333,86.243 95.262,86.23C95.2,86.209 95.124,86.216 95.028,86.258C94.956,86.286 94.887,86.348 94.789,86.411C94.692,86.488 94.623,86.55 94.566,86.599L94.364,86.439L97.059,83.195L98.062,84.037L97.88,84.259C97.7,84.17 97.463,84.121 97.198,84.121C96.912,84.113 96.718,84.162 96.607,84.259C96.543,84.315 96.487,84.385 96.405,84.455C96.334,84.531 96.251,84.636 96.153,84.74L95.624,85.402L97.267,86.78L97.672,86.313C97.79,86.168 97.873,86.042 97.908,85.952C97.935,85.854 97.935,85.75 97.908,85.653C97.894,85.555 97.845,85.457 97.769,85.339C97.7,85.234 97.63,85.138 97.559,85.053L97.741,84.837L99.37,86.203L99.196,86.411C99.091,86.355 98.973,86.286 98.842,86.237C98.716,86.182 98.604,86.154 98.52,86.147C98.395,86.147 98.283,86.174 98.2,86.237C98.103,86.286 98.013,86.383 97.908,86.523L97.504,86.982L98.771,88.027C98.897,88.138 98.994,88.207 99.085,88.25C99.175,88.298 99.259,88.298 99.342,88.291C99.412,88.27 99.502,88.214 99.592,88.138C99.662,88.062 99.773,87.928 99.919,87.762C99.962,87.699 100.039,87.629 100.122,87.511C100.218,87.421 100.288,87.323 100.336,87.24C100.4,87.163 100.442,87.059 100.49,86.962C100.539,86.878 100.553,86.793 100.539,86.738C100.539,86.564 100.47,86.355 100.352,86.084C100.247,85.833 100.156,85.659 100.094,85.548L100.268,85.339Z" style="fill:rgb(106,0,95);fill-rule:nonzero;"/>
        </g>
        <g transform="matrix(1,0,0,1,-0.0988317,14.5)">
            <path d="M104.78,80.271L104.084,81.537C103.479,81.594 102.948,81.642 102.503,81.705C102.058,81.747 101.584,81.817 101.097,81.899L100.826,82.388L102.337,83.209C102.42,83.25 102.496,83.278 102.559,83.286C102.643,83.286 102.713,83.265 102.789,83.202C102.83,83.167 102.88,83.097 102.948,83.007C103.018,82.923 103.074,82.833 103.109,82.756L103.353,82.888L102.253,84.914L102.016,84.783C102.044,84.727 102.072,84.643 102.12,84.531C102.169,84.427 102.183,84.358 102.189,84.309C102.197,84.225 102.183,84.162 102.141,84.092C102.1,84.03 102.037,83.981 101.96,83.926L98.493,82.046C98.423,82.018 98.34,81.99 98.269,81.976C98.193,81.962 98.117,81.99 98.047,82.046C97.992,82.102 97.936,82.172 97.873,82.248C97.804,82.324 97.741,82.394 97.713,82.457L97.469,82.338L98.674,80.118C98.785,79.915 98.897,79.728 99.037,79.595C99.175,79.435 99.329,79.31 99.503,79.206C99.662,79.115 99.844,79.073 100.039,79.067C100.219,79.067 100.422,79.108 100.623,79.226C100.812,79.331 100.958,79.45 101.068,79.581C101.181,79.707 101.257,79.853 101.305,80.027C101.348,80.18 101.361,80.348 101.361,80.528C101.348,80.695 101.319,80.891 101.279,81.085C101.724,81.022 102.1,80.966 102.392,80.932C102.684,80.891 103.046,80.834 103.478,80.779C103.666,80.751 103.82,80.717 103.917,80.681C104.034,80.625 104.118,80.584 104.203,80.521C104.272,80.472 104.327,80.409 104.398,80.334C104.459,80.256 104.501,80.187 104.536,80.138L104.78,80.271ZM100.255,80.103C99.963,79.943 99.691,79.901 99.426,79.978C99.175,80.054 98.96,80.25 98.8,80.549L98.48,81.127L100.539,82.227L100.776,81.788C100.944,81.481 100.985,81.168 100.902,80.855C100.812,80.535 100.596,80.299 100.255,80.103Z" style="fill:rgb(106,0,95);fill-rule:nonzero;"/>
        </g>
        <g transform="matrix(1,0,0,1,-0.0988317,14.5)">
            <path d="M103.381,75.627C103.534,75.544 103.687,75.502 103.847,75.488C104.014,75.474 104.189,75.488 104.383,75.544C104.857,75.655 105.19,75.927 105.4,76.351C105.608,76.776 105.65,77.235 105.518,77.751C105.456,77.973 105.358,78.21 105.232,78.426C105.093,78.656 104.954,78.816 104.8,78.962L105.031,79.192L104.954,79.498L103.144,79.074L103.228,78.774C103.464,78.774 103.672,78.746 103.882,78.704C104.084,78.677 104.272,78.614 104.467,78.524C104.648,78.426 104.8,78.3 104.933,78.161C105.066,78.008 105.155,77.827 105.219,77.59C105.26,77.423 105.282,77.256 105.267,77.131C105.26,76.985 105.219,76.873 105.155,76.776C105.093,76.664 105.01,76.581 104.926,76.511C104.815,76.449 104.69,76.393 104.551,76.351C104.341,76.309 104.125,76.309 103.916,76.378C103.7,76.456 103.52,76.602 103.367,76.811C103.255,76.957 103.137,77.117 103.004,77.312C102.879,77.486 102.754,77.659 102.643,77.799C102.434,78.057 102.204,78.23 101.939,78.342C101.681,78.454 101.375,78.46 101.034,78.376C100.832,78.322 100.658,78.224 100.498,78.098C100.352,77.966 100.227,77.827 100.135,77.631C100.039,77.458 99.983,77.256 99.962,77.055C99.941,76.831 99.954,76.623 100.011,76.406C100.08,76.17 100.163,75.955 100.289,75.787C100.414,75.613 100.539,75.46 100.694,75.341L100.47,75.111L100.539,74.805L102.301,75.236L102.225,75.543C102.015,75.543 101.807,75.55 101.605,75.571C101.403,75.592 101.223,75.634 101.04,75.703C100.867,75.773 100.728,75.877 100.596,76.01C100.47,76.143 100.387,76.309 100.317,76.531C100.26,76.776 100.289,76.999 100.387,77.193C100.498,77.395 100.665,77.527 100.874,77.59C101.104,77.653 101.305,77.639 101.487,77.575C101.667,77.513 101.828,77.382 101.974,77.214C102.106,77.054 102.225,76.894 102.336,76.734C102.447,76.573 102.559,76.428 102.671,76.281C102.768,76.156 102.879,76.023 102.998,75.911C103.116,75.801 103.241,75.696 103.381,75.627Z" style="fill:rgb(106,0,95);fill-rule:nonzero;"/>
        </g>
        <g transform="matrix(1,0,0,1,-0.0988317,14.5)">
            <path d="M106.611,72.021L106.277,74.444L106.006,74.408C106.013,74.325 106.019,74.235 106.026,74.103C106.04,73.97 106.033,73.886 106.019,73.817C105.999,73.74 105.957,73.671 105.908,73.621C105.859,73.573 105.776,73.545 105.678,73.531L101.772,73.009C101.681,73.002 101.613,73.009 101.55,73.009C101.487,73.037 101.417,73.093 101.369,73.197C101.333,73.266 101.285,73.35 101.25,73.468C101.209,73.573 101.167,73.671 101.153,73.747L100.888,73.712L101.223,71.289L101.487,71.324C101.481,71.394 101.481,71.491 101.481,71.603C101.481,71.721 101.487,71.812 101.501,71.901C101.522,71.993 101.563,72.062 101.627,72.111C101.689,72.152 101.766,72.181 101.848,72.181L105.748,72.724C105.832,72.738 105.901,72.724 105.97,72.703C106.048,72.676 106.111,72.612 106.152,72.522C106.18,72.48 106.221,72.397 106.256,72.285C106.305,72.167 106.325,72.062 106.339,71.979L106.611,72.021Z" style="fill:rgb(106,0,95);fill-rule:nonzero;"/>
        </g>
        <g transform="matrix(1,0,0,1,-0.0988317,14.5)">
            <path d="M103.158,65.574L103.144,65.831C103.046,65.853 102.936,65.894 102.816,65.949C102.685,66.006 102.559,66.069 102.447,66.13C102.337,66.207 102.225,66.284 102.141,66.381C102.044,66.464 101.989,66.548 101.975,66.639C101.961,66.715 101.947,66.813 101.933,66.931C101.933,67.049 101.919,67.167 101.919,67.265L101.904,67.494L106.256,67.648C106.339,67.648 106.416,67.641 106.486,67.606C106.57,67.579 106.611,67.508 106.652,67.425C106.68,67.384 106.709,67.293 106.75,67.14C106.778,66.994 106.799,66.889 106.806,66.806L107.078,66.813L106.973,69.381L106.709,69.368C106.709,69.305 106.694,69.18 106.687,69.04C106.68,68.887 106.666,68.796 106.638,68.734C106.611,68.657 106.57,68.58 106.507,68.54C106.444,68.497 106.36,68.476 106.256,68.469L101.876,68.302L101.864,68.532L101.864,68.824C101.864,68.935 101.864,69.054 101.876,69.152C101.884,69.242 101.933,69.332 102.016,69.43C102.1,69.52 102.204,69.61 102.315,69.687C102.42,69.764 102.546,69.847 102.671,69.91C102.796,69.973 102.908,70.014 102.992,70.035L102.977,70.307L101.501,70.251L101.681,65.51L103.158,65.574Z" style="fill:rgb(106,0,95);fill-rule:nonzero;"/>
        </g>
        <g transform="matrix(1,0,0,1,-0.0988317,14.5)">
            <path d="M102.03,59.635C102.037,59.669 102.058,59.746 102.072,59.844C102.114,59.934 102.141,60.011 102.169,60.046C102.225,60.15 102.274,60.213 102.302,60.255C102.337,60.29 102.427,60.359 102.559,60.457C102.844,60.673 103.123,60.854 103.409,61.034C103.694,61.202 104.062,61.411 104.494,61.675C104.662,61.779 104.794,61.849 104.892,61.87C104.996,61.919 105.135,61.932 105.323,61.932L106.36,61.946C106.452,61.946 106.542,61.932 106.611,61.891C106.666,61.856 106.722,61.794 106.765,61.717C106.793,61.655 106.819,61.557 106.847,61.424C106.875,61.285 106.896,61.188 106.904,61.098L107.182,61.098L107.126,63.645L106.862,63.631C106.862,63.562 106.847,63.464 106.834,63.318C106.827,63.179 106.806,63.081 106.785,63.019C106.75,62.92 106.694,62.865 106.638,62.824C106.569,62.782 106.485,62.768 106.388,62.768L105.065,62.754C105.023,62.74 104.953,62.768 104.842,62.817C104.731,62.865 104.606,62.914 104.48,62.983C104.174,63.137 103.847,63.304 103.506,63.478C103.157,63.659 102.858,63.82 102.607,63.959C102.461,64.028 102.35,64.098 102.273,64.181C102.197,64.237 102.14,64.307 102.071,64.39C102.036,64.453 102.001,64.529 101.989,64.613C101.96,64.697 101.946,64.773 101.939,64.836L101.674,64.836L101.709,62.511L101.989,62.511C101.989,62.775 102.001,62.964 102.029,63.081C102.057,63.18 102.099,63.235 102.155,63.242C102.169,63.242 102.197,63.235 102.225,63.221C102.266,63.208 102.322,63.18 102.378,63.158C102.447,63.123 102.531,63.081 102.607,63.04C102.698,62.998 102.782,62.957 102.858,62.908C103.089,62.79 103.324,62.678 103.547,62.552C103.771,62.441 104.069,62.274 104.438,62.08C103.798,61.675 103.303,61.355 102.935,61.14C102.586,60.923 102.371,60.819 102.301,60.819C102.238,60.819 102.189,60.833 102.155,60.882C102.119,60.91 102.099,60.972 102.071,61.042C102.043,61.118 102.029,61.195 102.023,61.285C102.015,61.37 102.015,61.46 102.001,61.53L101.723,61.53L101.765,59.636L102.03,59.635Z" style="fill:rgb(106,0,95);fill-rule:nonzero;"/>
        </g>
        <g transform="matrix(1,0,0,1,-0.0988317,14.5)">
            <path d="M75.038,82.102C74.837,82.102 74.669,82.185 74.517,82.352C74.362,82.512 74.293,82.728 74.293,82.992C74.293,83.223 74.362,83.417 74.503,83.564C74.641,83.711 74.824,83.779 75.031,83.779C75.24,83.779 75.407,83.711 75.547,83.564C75.686,83.417 75.749,83.209 75.749,82.951C75.749,82.693 75.686,82.492 75.531,82.338C75.407,82.185 75.234,82.102 75.038,82.102Z" style="fill:rgb(106,0,95);fill-rule:nonzero;"/>
        </g>
        <g transform="matrix(1,0,0,1,-0.0988317,14.5)">
            <path d="M78.471,82.102C78.276,82.102 78.108,82.185 77.977,82.373C77.83,82.589 77.745,83.007 77.745,83.619C77.745,84.225 77.816,84.615 77.956,84.817C78.108,85.026 78.276,85.124 78.484,85.124C78.68,85.124 78.861,85.026 79.007,84.817C79.146,84.615 79.222,84.225 79.222,83.619C79.222,83.007 79.146,82.61 79.007,82.408C78.861,82.212 78.68,82.102 78.471,82.102Z" style="fill:rgb(106,0,95);fill-rule:nonzero;"/>
        </g>
        <g transform="matrix(1,0,0,1,-0.0988317,14.5)">
            <path d="M98.855,46.268L55.399,46.268C55.343,46.275 55.357,46.344 55.329,46.387C55.287,51.97 55.35,57.721 55.329,63.158C55.287,68.665 56.087,73.643 57.877,77.562C59.632,81.44 62.514,84.232 65.786,86.577C69.115,88.939 73.277,90.205 77.12,92.19C80.949,90.191 85.099,88.945 88.412,86.529C91.685,84.161 94.644,81.447 96.377,77.527C98.104,73.594 98.883,68.748 98.883,63.081C98.883,57.609 98.925,51.804 98.855,46.268ZM65.361,70.934C68.314,69.403 71.272,67.718 73.583,65.49C72.051,65.866 70.826,65.908 69.559,65.894C69.768,65.56 70.116,65.351 70.395,65.08C72.344,63.255 74.53,61.515 75.588,58.751C74.872,58.994 73.973,59.197 73.005,59.197C74.906,56.759 76.403,53.899 77.197,50.368L77.308,50.368C78.088,53.913 79.613,56.739 81.506,59.197C80.656,59.14 79.946,59.106 78.965,58.724C79.007,59.134 79.222,59.523 79.405,59.878C80.343,61.605 81.854,62.976 83.261,64.306C83.831,64.835 84.444,65.303 84.946,65.894C83.386,66.033 82.675,65.908 80.964,65.454C81.52,66.116 82.251,66.604 82.926,67.139C84.765,68.643 86.963,69.764 89.177,70.934C89.352,71.025 89.624,71.087 89.693,71.317C87.856,71.575 85.815,71.435 83.832,70.801C81.409,69.967 79.112,69.917 77.412,71.505C75.519,69.98 73.646,69.959 70.618,70.759C68.891,71.296 66.635,71.54 64.818,71.317C64.881,71.067 65.173,71.032 65.361,70.934ZM72.08,85.43L71.627,85.43L71.627,82.554C71.515,82.673 71.369,82.756 71.188,82.847C71.022,82.964 70.868,83.042 70.722,83.097L70.722,82.673C70.979,82.541 71.188,82.394 71.384,82.228C71.577,82.046 71.709,81.892 71.787,81.74L72.079,81.74L72.08,85.43ZM76.104,84.636C75.993,84.914 75.839,85.13 75.644,85.269C75.435,85.416 75.198,85.493 74.934,85.493C74.641,85.493 74.405,85.416 74.224,85.248C74.044,85.096 73.931,84.872 73.891,84.573L74.321,84.531C74.362,84.741 74.44,84.893 74.545,84.984C74.641,85.088 74.781,85.124 74.941,85.124C75.072,85.124 75.198,85.088 75.31,85.026C75.407,84.963 75.491,84.88 75.56,84.769C75.631,84.657 75.686,84.518 75.728,84.343C75.777,84.162 75.798,83.981 75.798,83.787L75.798,83.683C75.707,83.842 75.589,83.96 75.422,84.044C75.269,84.135 75.094,84.184 74.921,84.184C74.614,84.184 74.357,84.065 74.148,83.849C73.931,83.619 73.82,83.334 73.82,82.972C73.82,82.61 73.931,82.304 74.155,82.074C74.378,81.851 74.656,81.74 74.975,81.74C75.226,81.74 75.435,81.803 75.645,81.92C75.84,82.046 75.993,82.234 76.104,82.485C76.187,82.722 76.251,83.056 76.251,83.515C76.25,83.981 76.187,84.357 76.104,84.636ZM79.55,84.657C79.46,84.921 79.334,85.138 79.153,85.269C78.979,85.416 78.749,85.493 78.484,85.493C78.129,85.493 77.844,85.367 77.643,85.11C77.399,84.81 77.273,84.309 77.273,83.619C77.273,83.173 77.328,82.826 77.411,82.568C77.504,82.298 77.635,82.095 77.816,81.962C77.99,81.803 78.219,81.74 78.484,81.74C78.68,81.74 78.853,81.775 79.007,81.851C79.153,81.92 79.279,82.046 79.376,82.192C79.474,82.352 79.543,82.526 79.598,82.743C79.654,82.958 79.681,83.25 79.681,83.619C79.682,84.044 79.633,84.399 79.55,84.657ZM83.106,85.43L80.671,85.43C80.671,85.325 80.685,85.206 80.727,85.124C80.79,84.956 80.893,84.782 81.032,84.629C81.165,84.462 81.36,84.287 81.618,84.065C82.014,83.731 82.285,83.487 82.431,83.285C82.571,83.097 82.648,82.923 82.648,82.743C82.648,82.568 82.578,82.415 82.446,82.298C82.321,82.172 82.154,82.102 81.944,82.102C81.728,82.102 81.554,82.172 81.422,82.304C81.297,82.437 81.228,82.617 81.228,82.84L80.754,82.799C80.795,82.457 80.907,82.185 81.115,82.004C81.325,81.817 81.602,81.74 81.959,81.74C82.313,81.74 82.592,81.83 82.794,82.026C83.002,82.228 83.106,82.471 83.106,82.756C83.106,82.896 83.079,83.056 83.016,83.195C82.954,83.334 82.85,83.488 82.716,83.647C82.578,83.801 82.341,84.01 82.013,84.288C81.743,84.511 81.569,84.677 81.492,84.748C81.421,84.838 81.354,84.915 81.304,85.005L83.105,85.005L83.106,85.43ZM79.383,75.167L79.501,76.143L75.282,76.143L75.407,75.167L62.179,75.167L63.83,73.142C65.229,73.065 67.93,72.71 70.242,71.847C74.739,70.162 77.468,72.473 77.468,72.473C79.619,70.67 82.321,71.045 84.821,71.966C87.173,72.829 90.773,73.093 90.773,73.093L92.325,75.168L79.383,75.167Z" style="fill:rgb(106,0,95);fill-rule:nonzero;"/>
        </g>
    </g>
</svg>
