<?xml version="1.0" encoding="UTF-8" standalone="no"?>
<!DOCTYPE svg PUBLIC "-//W3C//DTD SVG 1.1//EN" "http://www.w3.org/Graphics/SVG/1.1/DTD/svg11.dtd">
<svg width="100%" height="100%" viewBox="0 0 154 157" version="1.1" xmlns="http://www.w3.org/2000/svg" xmlns:xlink="http://www.w3.org/1999/xlink" xml:space="preserve" xmlns:serif="http://www.serif.com/" style="fill-rule:evenodd;clip-rule:evenodd;stroke-linejoin:round;stroke-miterlimit:2;">
    <g>
        <g transform="matrix(3.55437,0,0,3.55437,-68.9679,-148.98)">
            <path d="M35.592,51.039C33.916,51.747 32.412,52.761 31.121,54.054C29.828,55.345 28.815,56.85 28.106,58.525C27.372,60.26 27,62.101 27,64.001C27,65.9 27.372,67.743 28.106,69.477C28.815,71.152 29.828,72.656 31.121,73.948C32.412,75.239 33.916,76.253 35.592,76.962C37.326,77.696 39.167,78.067 41.067,78.067C42.966,78.067 44.808,77.696 46.543,76.962C48.218,76.253 49.722,75.239 51.014,73.948C52.307,72.656 53.32,71.152 54.028,69.477C54.763,67.743 55.134,65.9 55.134,64.001C55.134,62.101 54.763,60.26 54.028,58.525C53.32,56.85 52.307,55.345 51.014,54.054C49.722,52.761 48.218,51.747 46.543,51.039C44.808,50.307 42.966,49.933 41.067,49.933C39.167,49.933 37.326,50.307 35.592,51.039ZM35.773,76.533C34.153,75.848 32.699,74.868 31.45,73.618C30.2,72.37 29.219,70.914 28.535,69.295C27.825,67.619 27.466,65.838 27.466,64.001C27.466,62.165 27.825,60.383 28.535,58.705C29.219,57.086 30.2,55.631 31.45,54.383C32.699,53.133 34.153,52.151 35.773,51.466C37.449,50.757 39.23,50.397 41.067,50.397C42.903,50.397 44.684,50.757 46.361,51.466C47.982,52.151 49.435,53.133 50.685,54.383C51.935,55.631 52.915,57.086 53.6,58.705C54.31,60.383 54.669,62.165 54.669,64.001C54.669,65.838 54.31,67.619 53.6,69.295C52.915,70.914 51.935,72.37 50.685,73.618C49.435,74.868 47.982,75.848 46.361,76.533C44.684,77.242 42.903,77.6 41.067,77.6C39.23,77.6 37.449,77.242 35.773,76.533Z" style="fill:rgb(126,24,28);"/>
        </g>
        <g transform="matrix(3.55437,0,0,3.55437,-68.9679,-148.98)">
            <path d="M37.017,54.415C35.779,54.938 34.666,55.688 33.712,56.644C32.756,57.6 32.006,58.712 31.482,59.95C30.94,61.233 30.665,62.595 30.665,63.999C30.665,65.404 30.94,66.766 31.482,68.049C32.006,69.287 32.756,70.399 33.712,71.355C34.666,72.31 35.779,73.061 37.017,73.584C38.301,74.128 39.661,74.402 41.066,74.402C42.471,74.402 43.833,74.128 45.116,73.584C46.355,73.061 47.468,72.31 48.423,71.355C49.379,70.399 50.127,69.288 50.652,68.049C51.194,66.766 51.47,65.404 51.47,63.999C51.47,62.595 51.194,61.233 50.652,59.95C50.127,58.712 49.379,57.6 48.423,56.644C47.468,55.688 46.355,54.938 45.116,54.415C43.833,53.872 42.471,53.597 41.066,53.597C39.661,53.597 38.301,53.872 37.017,54.415ZM37.141,73.295C35.94,72.788 34.86,72.06 33.933,71.133C33.006,70.206 32.28,69.128 31.772,67.927C31.246,66.683 30.979,65.363 30.979,63.999C30.979,62.638 31.246,61.317 31.772,60.072C32.28,58.87 33.006,57.791 33.933,56.866C34.86,55.939 35.94,55.212 37.141,54.705C38.384,54.177 39.704,53.911 41.066,53.911C42.428,53.911 43.75,54.177 44.994,54.705C46.196,55.212 47.274,55.939 48.2,56.866C49.127,57.791 49.854,58.87 50.363,60.072C50.889,61.317 51.155,62.638 51.155,63.999C51.155,65.363 50.889,66.683 50.363,67.927C49.854,69.128 49.127,70.206 48.2,71.133C47.274,72.06 46.196,72.788 44.994,73.295C43.75,73.822 42.428,74.088 41.066,74.088C39.704,74.088 38.384,73.822 37.141,73.295Z" style="fill:rgb(126,24,28);"/>
        </g>
        <g transform="matrix(3.55437,0,0,3.55437,-68.9679,-148.98)">
            <path d="M36.269,76.024L36.249,76.033C36.134,75.972 35.991,75.903 35.821,75.827C35.655,75.751 35.478,75.675 35.292,75.599L35.284,75.578L35.319,75.501L35.339,75.495C35.385,75.51 35.429,75.526 35.471,75.54C35.546,75.567 35.594,75.581 35.619,75.582C35.637,75.582 35.656,75.571 35.678,75.552C35.712,75.518 35.792,75.363 35.919,75.082L36.061,74.767C36.105,74.672 36.157,74.552 36.219,74.405L36.26,74.309C36.28,74.267 36.28,74.242 36.262,74.234C36.255,74.231 36.225,74.228 36.174,74.229C36.034,74.23 35.914,74.232 35.813,74.235L35.803,74.219C35.819,74.169 35.835,74.112 35.848,74.046L35.854,74.037C36.117,74.077 36.417,74.107 36.755,74.126L36.773,74.157C36.747,74.206 36.709,74.278 36.659,74.373C36.639,74.408 36.592,74.507 36.515,74.666L36.286,75.163C36.126,75.518 36.045,75.712 36.045,75.744C36.044,75.766 36.052,75.785 36.068,75.795C36.093,75.818 36.168,75.862 36.294,75.928L36.304,75.947L36.269,76.024Z" style="fill:rgb(126,24,28);"/>
        </g>
        <g transform="matrix(3.55437,0,0,3.55437,-68.9679,-148.98)">
            <path d="M40.102,76.319C40.087,76.426 40.053,76.521 39.998,76.597C39.894,76.745 39.747,76.836 39.554,76.869C39.475,76.884 39.381,76.883 39.272,76.869C39.039,76.837 38.872,76.735 38.768,76.56C38.721,76.483 38.706,76.387 38.721,76.272C38.74,76.132 38.805,76.025 38.917,75.95C38.954,75.927 39.031,75.893 39.15,75.855C38.958,75.723 38.874,75.561 38.9,75.37C38.929,75.154 39.059,75.012 39.289,74.94C39.39,74.911 39.5,74.903 39.621,74.919C39.797,74.942 39.932,75.001 40.023,75.094C40.11,75.183 40.144,75.287 40.129,75.409C40.106,75.575 39.99,75.698 39.78,75.776C39.917,75.85 40.01,75.931 40.058,76.021C40.103,76.099 40.117,76.201 40.102,76.319ZM39.736,76.432C39.754,76.3 39.701,76.189 39.577,76.106C39.497,76.05 39.41,75.997 39.316,75.947L39.276,75.927C39.116,76.007 39.027,76.124 39.006,76.277C38.994,76.365 39.002,76.438 39.032,76.497C39.096,76.629 39.201,76.706 39.347,76.726C39.45,76.739 39.536,76.718 39.607,76.665C39.68,76.609 39.724,76.532 39.736,76.432ZM39.862,75.413C39.873,75.322 39.853,75.247 39.8,75.183C39.747,75.12 39.669,75.081 39.567,75.068C39.473,75.055 39.397,75.071 39.335,75.116C39.278,75.158 39.246,75.214 39.235,75.286C39.226,75.355 39.251,75.424 39.308,75.49C39.34,75.526 39.388,75.562 39.451,75.601C39.473,75.616 39.508,75.635 39.553,75.662L39.632,75.706C39.766,75.65 39.843,75.552 39.862,75.413Z" style="fill:rgb(126,24,28);"/>
        </g>
        <g transform="matrix(3.55437,0,0,3.55437,-68.9679,-148.98)">
            <path d="M43.369,75.611C43.403,75.858 43.381,76.067 43.306,76.241C43.228,76.424 43.111,76.579 42.954,76.702C42.794,76.828 42.609,76.906 42.401,76.935L42.266,76.861L42.296,76.802C42.328,76.807 42.366,76.807 42.413,76.801C42.572,76.779 42.705,76.706 42.811,76.582C42.853,76.533 42.89,76.469 42.92,76.392C42.971,76.27 42.993,76.096 42.987,75.875C42.853,76.022 42.775,76.099 42.758,76.104C42.694,76.135 42.622,76.155 42.544,76.167C42.406,76.186 42.289,76.155 42.191,76.077C42.085,75.992 42.02,75.866 41.997,75.698C41.959,75.428 42.038,75.214 42.23,75.055C42.321,74.98 42.439,74.933 42.586,74.914C42.861,74.874 43.073,74.964 43.221,75.177C43.295,75.283 43.343,75.427 43.369,75.611ZM42.948,75.524C42.923,75.353 42.878,75.231 42.811,75.155C42.744,75.081 42.662,75.051 42.568,75.062C42.449,75.08 42.377,75.148 42.351,75.27C42.337,75.335 42.335,75.409 42.347,75.495C42.368,75.637 42.413,75.744 42.481,75.812C42.546,75.877 42.627,75.902 42.721,75.888C42.843,75.873 42.917,75.813 42.945,75.711C42.957,75.664 42.957,75.601 42.948,75.524Z" style="fill:rgb(126,24,28);"/>
        </g>
        <g transform="matrix(3.55437,0,0,3.55437,-68.9679,-148.98)">
            <path d="M46.635,75.034C46.679,75.133 46.698,75.231 46.692,75.324C46.679,75.504 46.6,75.659 46.452,75.787C46.391,75.842 46.311,75.89 46.21,75.933C45.994,76.026 45.799,76.026 45.621,75.931C45.54,75.888 45.477,75.814 45.431,75.711C45.374,75.58 45.374,75.453 45.431,75.332C45.45,75.293 45.5,75.225 45.581,75.129C45.347,75.116 45.192,75.021 45.116,74.846C45.028,74.646 45.066,74.456 45.227,74.275C45.297,74.197 45.387,74.134 45.499,74.084C45.661,74.014 45.807,73.993 45.933,74.026C46.053,74.057 46.138,74.13 46.187,74.242C46.255,74.396 46.218,74.561 46.078,74.736C46.233,74.728 46.356,74.749 46.443,74.8C46.522,74.846 46.586,74.923 46.635,75.034ZM45.96,74.384C45.923,74.301 45.866,74.245 45.788,74.219C45.71,74.192 45.624,74.2 45.53,74.242C45.445,74.279 45.386,74.332 45.357,74.402C45.33,74.468 45.33,74.532 45.359,74.598C45.388,74.664 45.445,74.708 45.528,74.736C45.572,74.749 45.632,74.757 45.707,74.757C45.733,74.758 45.773,74.758 45.825,74.757L45.915,74.752C46.001,74.635 46.016,74.512 45.96,74.384ZM46.382,75.32C46.328,75.198 46.226,75.131 46.076,75.122C45.978,75.116 45.876,75.117 45.77,75.124L45.726,75.126C45.631,75.277 45.615,75.424 45.677,75.565C45.712,75.646 45.757,75.704 45.813,75.741C45.937,75.822 46.065,75.831 46.2,75.772C46.294,75.732 46.359,75.668 46.392,75.584C46.425,75.5 46.421,75.412 46.382,75.32Z" style="fill:rgb(126,24,28);"/>
        </g>
        <g transform="matrix(3.55437,0,0,3.55437,-68.9679,-148.98)">
            <path d="M29.136,67.602C29.234,67.565 29.325,67.553 29.411,67.567C29.497,67.578 29.576,67.613 29.647,67.665C29.721,67.721 29.785,67.793 29.841,67.878C29.897,67.964 29.948,68.065 29.992,68.181L30.046,68.32L30.532,68.136C30.561,68.126 30.584,68.111 30.601,68.09C30.618,68.071 30.628,68.043 30.628,68.007C30.629,67.988 30.626,67.958 30.618,67.919C30.612,67.878 30.605,67.844 30.597,67.818L30.693,67.781L31.055,68.729L30.959,68.764C30.947,68.742 30.932,68.712 30.912,68.675C30.893,68.637 30.877,68.612 30.865,68.598C30.84,68.572 30.815,68.556 30.792,68.553C30.769,68.551 30.743,68.556 30.708,68.568L29.486,69.034C29.458,69.045 29.435,69.059 29.418,69.078C29.401,69.095 29.391,69.123 29.39,69.162C29.389,69.188 29.392,69.221 29.399,69.263C29.406,69.303 29.411,69.334 29.417,69.353L29.321,69.39L28.957,68.435C28.871,68.212 28.843,68.03 28.872,67.893C28.902,67.757 28.989,67.659 29.136,67.602ZM29.377,68.052C29.248,68.102 29.161,68.164 29.118,68.241C29.075,68.319 29.079,68.422 29.13,68.556L29.168,68.658L29.928,68.367L29.908,68.315C29.858,68.184 29.789,68.095 29.7,68.048C29.612,68.001 29.505,68.003 29.377,68.052Z" style="fill:rgb(126,24,28);"/>
        </g>
        <g transform="matrix(3.55437,0,0,3.55437,-68.9679,-148.98)">
            <path d="M28.643,64.691L28.654,64.793C28.589,64.824 28.523,64.876 28.457,64.945C28.392,65.016 28.357,65.08 28.351,65.143C28.348,65.167 28.348,65.203 28.352,65.25C28.356,65.296 28.36,65.335 28.364,65.363L28.395,65.629L29.105,65.546L29.083,65.358C29.077,65.311 29.067,65.27 29.051,65.233C29.035,65.195 29.01,65.163 28.974,65.135C28.953,65.118 28.916,65.102 28.862,65.087C28.811,65.073 28.765,65.065 28.728,65.064L28.717,64.962L29.482,64.873L29.495,64.975C29.459,64.983 29.415,65.001 29.362,65.029C29.31,65.057 29.274,65.08 29.255,65.102C29.227,65.134 29.21,65.169 29.203,65.209C29.196,65.25 29.196,65.294 29.201,65.345L29.223,65.533L29.755,65.469C29.81,65.463 29.854,65.455 29.886,65.443C29.917,65.43 29.94,65.413 29.955,65.387C29.969,65.365 29.976,65.333 29.977,65.294C29.978,65.257 29.975,65.206 29.967,65.141C29.963,65.111 29.96,65.075 29.952,65.032C29.948,64.99 29.94,64.953 29.932,64.923C29.924,64.887 29.914,64.855 29.901,64.824C29.888,64.793 29.874,64.771 29.855,64.757C29.808,64.721 29.738,64.682 29.645,64.64C29.552,64.599 29.484,64.572 29.438,64.561L29.427,64.467L30.004,64.436L30.205,66.163L30.105,66.175C30.1,66.15 30.092,66.118 30.082,66.076C30.072,66.035 30.062,66.006 30.054,65.989C30.036,65.957 30.015,65.939 29.993,65.929C29.971,65.92 29.943,65.917 29.91,65.922L28.61,66.073C28.579,66.076 28.554,66.083 28.535,66.096C28.515,66.109 28.5,66.134 28.488,66.171C28.48,66.195 28.474,66.228 28.47,66.27C28.467,66.313 28.464,66.343 28.464,66.366L28.363,66.378L28.172,64.746L28.643,64.691Z" style="fill:rgb(126,24,28);"/>
        </g>
        <g transform="matrix(3.55437,0,0,3.55437,-68.9679,-148.98)">
            <path d="M30.308,61.261L30.204,61.986C30.019,62.071 29.865,62.149 29.739,62.221C29.613,62.293 29.455,62.385 29.263,62.497L29.254,62.563L29.832,62.647C29.865,62.651 29.89,62.649 29.914,62.642C29.937,62.633 29.957,62.613 29.978,62.581C29.987,62.567 29.997,62.545 30.008,62.517C30.02,62.487 30.029,62.457 30.037,62.427L30.138,62.442L29.999,63.417L29.897,63.402C29.9,63.379 29.901,63.346 29.904,63.303C29.907,63.26 29.905,63.23 29.901,63.211C29.894,63.179 29.88,63.154 29.86,63.139C29.841,63.124 29.814,63.115 29.781,63.108L28.48,62.924C28.449,62.92 28.422,62.92 28.401,62.928C28.379,62.934 28.358,62.955 28.336,62.987C28.319,63.011 28.305,63.044 28.292,63.08C28.279,63.116 28.269,63.146 28.263,63.169L28.162,63.154L28.306,62.146L28.408,62.162C28.407,62.188 28.405,62.221 28.405,62.259C28.405,62.297 28.407,62.33 28.412,62.357C28.418,62.393 28.432,62.417 28.455,62.431C28.478,62.446 28.503,62.456 28.533,62.46L29.153,62.548L29.161,62.495C29.109,62.42 29.047,62.33 28.973,62.229C28.899,62.127 28.837,62.047 28.789,61.99C28.722,61.912 28.668,61.851 28.629,61.813C28.588,61.774 28.551,61.752 28.519,61.747C28.503,61.745 28.49,61.76 28.478,61.789C28.465,61.819 28.453,61.867 28.441,61.931L28.339,61.917L28.453,61.119L28.554,61.134C28.551,61.231 28.558,61.315 28.573,61.383C28.588,61.452 28.62,61.521 28.668,61.594C28.738,61.697 28.799,61.782 28.852,61.85C28.903,61.919 28.97,62.006 29.051,62.113C29.165,62.046 29.302,61.963 29.465,61.869C29.628,61.774 29.787,61.679 29.942,61.584C29.982,61.559 30.02,61.531 30.058,61.499C30.096,61.466 30.128,61.427 30.154,61.386C30.167,61.365 30.178,61.342 30.186,61.316C30.196,61.289 30.201,61.266 30.206,61.247L30.308,61.261Z" style="fill:rgb(126,24,28);"/>
        </g>
        <g transform="matrix(3.55437,0,0,3.55437,-68.9679,-148.98)">
            <path d="M31.008,59.421L30.624,60.376L30.529,60.339C30.537,60.316 30.547,60.284 30.561,60.239C30.574,60.197 30.581,60.165 30.581,60.146C30.581,60.111 30.574,60.084 30.558,60.066C30.543,60.047 30.519,60.03 30.489,60.018L29.268,59.53C29.24,59.519 29.215,59.514 29.189,59.517C29.165,59.519 29.139,59.531 29.114,59.558C29.098,59.574 29.078,59.599 29.054,59.634C29.031,59.669 29.011,59.7 28.998,59.724L28.903,59.687L29.285,58.731L29.38,58.769C29.373,58.794 29.364,58.826 29.354,58.865C29.344,58.902 29.338,58.935 29.336,58.964C29.334,59.001 29.342,59.026 29.36,59.047C29.378,59.066 29.401,59.082 29.43,59.091L30.649,59.58C30.678,59.593 30.706,59.597 30.729,59.594C30.755,59.591 30.78,59.578 30.804,59.551C30.819,59.537 30.838,59.513 30.86,59.477C30.882,59.441 30.9,59.408 30.912,59.382L31.008,59.421Z" style="fill:rgb(126,24,28);"/>
        </g>
        <g transform="matrix(3.55437,0,0,3.55437,-68.9679,-148.98)">
            <path d="M31.307,55.658C31.294,55.679 31.278,55.708 31.257,55.751C31.237,55.791 31.227,55.833 31.228,55.878C31.228,55.919 31.248,55.961 31.287,56.005C31.325,56.05 31.39,56.104 31.479,56.168L32.559,56.944L32.423,57.132L30.586,57.233L31.292,57.738C31.381,57.802 31.451,57.844 31.505,57.866C31.559,57.887 31.607,57.89 31.645,57.879C31.675,57.872 31.711,57.852 31.753,57.819C31.795,57.785 31.827,57.758 31.849,57.736L31.932,57.795L31.468,58.443L31.384,58.384C31.401,58.354 31.419,58.319 31.437,58.278C31.454,58.237 31.463,58.197 31.464,58.162C31.462,58.119 31.445,58.077 31.411,58.038C31.376,57.998 31.311,57.943 31.212,57.873L30.498,57.36C30.462,57.335 30.425,57.316 30.386,57.304C30.346,57.292 30.306,57.29 30.268,57.296C30.225,57.304 30.186,57.319 30.15,57.342C30.112,57.363 30.076,57.392 30.039,57.428L29.956,57.368L30.363,56.802L31.975,56.715L31.401,56.303C31.311,56.238 31.237,56.195 31.185,56.176C31.131,56.154 31.086,56.15 31.045,56.16C31.014,56.169 30.978,56.189 30.939,56.222C30.898,56.253 30.866,56.278 30.844,56.301L30.764,56.243L31.225,55.599L31.307,55.658Z" style="fill:rgb(126,24,28);"/>
        </g>
        <g transform="matrix(3.55437,0,0,3.55437,-68.9679,-148.98)">
            <path d="M34.52,54.13C34.5,54.149 34.484,54.168 34.469,54.182C34.455,54.198 34.44,54.22 34.422,54.247C34.4,54.279 34.395,54.307 34.402,54.336C34.41,54.362 34.422,54.387 34.44,54.41L34.575,54.578C34.603,54.611 34.626,54.64 34.643,54.658C34.661,54.679 34.681,54.705 34.707,54.734C34.672,54.829 34.603,54.949 34.499,55.09C34.396,55.233 34.288,55.349 34.177,55.438C34.072,55.523 33.961,55.585 33.844,55.627C33.727,55.67 33.608,55.686 33.487,55.677C33.368,55.67 33.251,55.635 33.135,55.573C33.02,55.512 32.915,55.421 32.818,55.301C32.728,55.187 32.662,55.068 32.623,54.943C32.582,54.818 32.571,54.692 32.585,54.565C32.6,54.441 32.641,54.32 32.71,54.203C32.78,54.086 32.875,53.979 32.995,53.883C33.078,53.817 33.162,53.765 33.247,53.729C33.334,53.692 33.408,53.668 33.472,53.655L33.49,53.548L33.579,53.475L34.015,53.997L33.925,54.069C33.745,53.95 33.59,53.884 33.456,53.863C33.323,53.845 33.201,53.88 33.09,53.968C32.96,54.073 32.905,54.21 32.926,54.381C32.947,54.553 33.037,54.738 33.197,54.937C33.367,55.149 33.536,55.288 33.702,55.351C33.867,55.415 34.014,55.396 34.141,55.294C34.2,55.246 34.246,55.195 34.279,55.14C34.31,55.085 34.329,55.035 34.336,54.992L34.101,54.699C34.082,54.675 34.061,54.656 34.039,54.65C34.017,54.639 33.988,54.639 33.951,54.648C33.923,54.656 33.891,54.668 33.856,54.687C33.82,54.705 33.79,54.721 33.769,54.734L33.705,54.656L34.456,54.05L34.52,54.13Z" style="fill:rgb(126,24,28);"/>
        </g>
        <g transform="matrix(3.55437,0,0,3.55437,-68.9679,-148.98)">
            <path d="M38.84,51.355C38.816,51.365 38.782,51.38 38.737,51.401C38.694,51.422 38.659,51.448 38.633,51.479C38.606,51.508 38.593,51.552 38.595,51.61C38.596,51.667 38.612,51.75 38.64,51.86L38.819,52.526C38.871,52.721 38.846,52.896 38.745,53.051C38.643,53.206 38.483,53.313 38.264,53.372C38.008,53.438 37.795,53.435 37.624,53.357C37.453,53.279 37.341,53.138 37.286,52.932L37.041,52.018C37.034,51.987 37.022,51.964 37.004,51.947C36.988,51.928 36.961,51.915 36.925,51.906C36.9,51.901 36.87,51.9 36.837,51.901C36.803,51.904 36.775,51.906 36.755,51.909L36.729,51.81L37.668,51.559L37.694,51.658C37.668,51.667 37.641,51.677 37.615,51.69C37.588,51.702 37.562,51.715 37.536,51.732C37.505,51.75 37.489,51.774 37.483,51.801C37.479,51.828 37.481,51.855 37.489,51.886L37.729,52.787C37.778,52.965 37.851,53.084 37.95,53.143C38.051,53.203 38.176,53.212 38.326,53.173C38.472,53.133 38.576,53.059 38.635,52.947C38.695,52.835 38.702,52.693 38.656,52.521L38.495,51.914C38.466,51.806 38.437,51.728 38.408,51.677C38.379,51.629 38.346,51.595 38.309,51.58C38.282,51.568 38.239,51.561 38.181,51.561C38.123,51.56 38.081,51.561 38.058,51.564L38.031,51.462L38.814,51.253L38.84,51.355Z" style="fill:rgb(126,24,28);"/>
        </g>
        <g transform="matrix(3.55437,0,0,3.55437,-68.9679,-148.98)">
            <path d="M42.343,51.223C42.318,51.225 42.283,51.229 42.238,51.234C42.193,51.241 42.151,51.258 42.116,51.284C42.082,51.308 42.059,51.348 42.045,51.405C42.03,51.461 42.023,51.545 42.022,51.657L42.003,52.985L41.771,52.983L40.639,51.531L40.626,52.401C40.625,52.509 40.631,52.591 40.644,52.647C40.658,52.705 40.681,52.745 40.712,52.772C40.735,52.792 40.773,52.808 40.825,52.824C40.875,52.84 40.915,52.851 40.947,52.856L40.946,52.959L40.149,52.947L40.15,52.847C40.184,52.843 40.222,52.836 40.266,52.828C40.311,52.818 40.348,52.803 40.377,52.783C40.411,52.758 40.435,52.721 40.449,52.67C40.462,52.619 40.47,52.533 40.47,52.413L40.482,51.533C40.483,51.488 40.478,51.448 40.464,51.409C40.451,51.369 40.431,51.336 40.403,51.308C40.373,51.277 40.338,51.253 40.299,51.236C40.261,51.22 40.215,51.204 40.165,51.195L40.165,51.091L40.863,51.101L41.856,52.374L41.866,51.669C41.867,51.557 41.862,51.474 41.848,51.418C41.833,51.363 41.811,51.322 41.779,51.295C41.755,51.276 41.717,51.258 41.669,51.243C41.619,51.227 41.58,51.218 41.549,51.21L41.552,51.111L42.344,51.122L42.343,51.223Z" style="fill:rgb(126,24,28);"/>
        </g>
        <g transform="matrix(3.55437,0,0,3.55437,-68.9679,-148.98)">
            <path d="M44.342,53.442L43.344,53.185L43.37,53.084C43.392,53.089 43.426,53.097 43.472,53.104C43.517,53.113 43.548,53.115 43.568,53.113C43.602,53.108 43.627,53.097 43.644,53.078C43.661,53.062 43.673,53.035 43.682,53.005L44.012,51.731C44.019,51.703 44.02,51.675 44.015,51.65C44.009,51.626 43.993,51.603 43.964,51.581C43.946,51.567 43.919,51.552 43.881,51.531C43.844,51.512 43.811,51.497 43.783,51.487L43.808,51.389L44.805,51.646L44.779,51.745C44.754,51.741 44.722,51.736 44.683,51.731C44.644,51.726 44.61,51.724 44.581,51.726C44.546,51.728 44.52,51.74 44.502,51.76C44.486,51.781 44.473,51.806 44.465,51.834L44.136,53.107C44.128,53.137 44.128,53.165 44.133,53.188C44.139,53.212 44.156,53.236 44.184,53.259C44.2,53.271 44.228,53.286 44.267,53.304C44.305,53.32 44.339,53.334 44.366,53.344L44.342,53.442Z" style="fill:rgb(126,24,28);"/>
        </g>
        <g transform="matrix(3.55437,0,0,3.55437,-68.9679,-148.98)">
            <path d="M47.993,53.193C47.966,53.183 47.939,53.174 47.913,53.169C47.885,53.163 47.855,53.162 47.824,53.163C47.781,53.165 47.744,53.172 47.715,53.185C47.685,53.198 47.651,53.216 47.613,53.246C47.561,53.288 47.486,53.347 47.389,53.427C47.292,53.507 47.181,53.594 47.057,53.696C46.946,53.786 46.825,53.887 46.694,53.997C46.563,54.104 46.436,54.21 46.316,54.309L46.086,54.187C46.118,53.865 46.151,53.54 46.183,53.208C46.216,52.876 46.239,52.645 46.248,52.515C46.252,52.468 46.251,52.429 46.244,52.401C46.237,52.372 46.222,52.338 46.197,52.298C46.179,52.271 46.161,52.248 46.144,52.231C46.127,52.215 46.103,52.196 46.072,52.174L46.121,52.083L47.008,52.553L46.962,52.642C46.872,52.607 46.808,52.585 46.772,52.582C46.735,52.577 46.714,52.583 46.704,52.599C46.699,52.608 46.696,52.618 46.694,52.629C46.691,52.639 46.689,52.654 46.684,52.675C46.673,52.756 46.66,52.89 46.642,53.08C46.625,53.27 46.597,53.559 46.557,53.942C46.738,53.79 46.89,53.661 47.014,53.555C47.136,53.449 47.245,53.355 47.338,53.274C47.384,53.234 47.425,53.197 47.46,53.159C47.496,53.124 47.519,53.097 47.53,53.074C47.544,53.05 47.536,53.02 47.508,52.983C47.481,52.949 47.421,52.9 47.328,52.842L47.377,52.749L48.042,53.101L47.993,53.193Z" style="fill:rgb(126,24,28);"/>
        </g>
        <g transform="matrix(3.55437,0,0,3.55437,-68.9679,-148.98)">
            <path d="M50.01,55.349L49.935,55.279C49.965,55.211 49.982,55.129 49.985,55.034C49.988,54.94 49.973,54.867 49.937,54.817C49.922,54.794 49.897,54.767 49.864,54.737C49.831,54.702 49.803,54.677 49.781,54.656L49.584,54.476L49.102,55.003L49.241,55.133C49.276,55.164 49.312,55.189 49.347,55.206C49.384,55.224 49.425,55.233 49.471,55.23C49.498,55.228 49.536,55.216 49.585,55.192C49.634,55.169 49.673,55.145 49.703,55.122L49.778,55.19L49.258,55.761L49.182,55.692C49.203,55.662 49.224,55.619 49.246,55.564C49.268,55.508 49.279,55.466 49.279,55.438C49.279,55.396 49.269,55.358 49.249,55.323C49.228,55.288 49.198,55.254 49.161,55.219L49.021,55.092L48.66,55.487C48.623,55.528 48.596,55.564 48.579,55.594C48.564,55.623 48.558,55.652 48.564,55.68C48.567,55.706 48.583,55.736 48.607,55.764C48.632,55.794 48.667,55.831 48.716,55.876C48.738,55.895 48.765,55.92 48.797,55.948C48.829,55.976 48.858,55.998 48.885,56.017C48.914,56.039 48.945,56.057 48.973,56.072C49.004,56.088 49.029,56.093 49.052,56.092C49.11,56.089 49.19,56.072 49.286,56.043C49.384,56.012 49.454,55.989 49.495,55.967L49.564,56.03L49.149,56.431L47.867,55.26L47.937,55.185C47.955,55.2 47.982,55.219 48.017,55.245C48.051,55.269 48.077,55.284 48.095,55.291C48.129,55.304 48.157,55.305 48.18,55.298C48.203,55.289 48.226,55.272 48.248,55.248L49.131,54.283C49.152,54.261 49.165,54.237 49.172,54.216C49.179,54.194 49.174,54.165 49.158,54.127C49.149,54.104 49.131,54.076 49.106,54.042C49.082,54.007 49.064,53.983 49.05,53.966L49.118,53.891L50.33,54.998L50.01,55.349Z" style="fill:rgb(126,24,28);"/>
        </g>
        <g transform="matrix(3.55437,0,0,3.55437,-68.9679,-148.98)">
            <path d="M50.973,58.991L50.587,58.391C50.679,58.187 50.749,58.021 50.797,57.892C50.847,57.764 50.9,57.609 50.958,57.428L50.92,57.371L50.45,57.676C50.422,57.691 50.403,57.71 50.392,57.732C50.38,57.754 50.377,57.783 50.383,57.819C50.386,57.835 50.393,57.862 50.407,57.896C50.419,57.929 50.432,57.958 50.443,57.979L50.356,58.035L49.818,57.201L49.905,57.145C49.92,57.165 49.942,57.192 49.969,57.225C49.996,57.257 50.016,57.279 50.032,57.289C50.061,57.31 50.089,57.318 50.112,57.317C50.136,57.316 50.163,57.305 50.19,57.286L51.291,56.578C51.316,56.56 51.335,56.542 51.347,56.523C51.361,56.504 51.363,56.473 51.357,56.435C51.35,56.405 51.34,56.371 51.325,56.334C51.312,56.299 51.301,56.271 51.292,56.25L51.378,56.195L51.942,57.069C52.068,57.266 52.133,57.434 52.138,57.575C52.142,57.716 52.082,57.825 51.958,57.907C51.848,57.977 51.739,58.003 51.633,57.983C51.525,57.963 51.412,57.901 51.293,57.798C51.26,57.888 51.223,57.994 51.181,58.115C51.138,58.235 51.097,58.36 51.055,58.488C51.041,58.529 51.026,58.584 51.011,58.649C50.994,58.715 50.991,58.766 51.002,58.802C51.008,58.823 51.016,58.846 51.03,58.874C51.043,58.903 51.052,58.922 51.058,58.934L50.973,58.991ZM51.651,57.497C51.756,57.43 51.812,57.351 51.823,57.261C51.834,57.173 51.804,57.076 51.735,56.968L51.678,56.881L51.027,57.302L51.08,57.386C51.149,57.493 51.231,57.558 51.325,57.58C51.42,57.603 51.529,57.575 51.651,57.497Z" style="fill:rgb(126,24,28);"/>
        </g>
        <g transform="matrix(3.55437,0,0,3.55437,-68.9679,-148.98)">
            <path d="M51.492,60.513C51.456,60.406 51.435,60.3 51.43,60.198C51.426,60.096 51.43,60.007 51.445,59.931L51.329,59.873L51.295,59.768L51.926,59.541L51.961,59.649C51.909,59.693 51.857,59.744 51.802,59.803C51.748,59.863 51.704,59.927 51.667,59.993C51.629,60.06 51.603,60.133 51.589,60.208C51.576,60.281 51.583,60.36 51.61,60.444C51.648,60.556 51.704,60.632 51.778,60.675C51.853,60.716 51.932,60.724 52.015,60.695C52.084,60.673 52.132,60.628 52.161,60.562C52.19,60.496 52.204,60.402 52.202,60.285C52.202,60.208 52.202,60.138 52.201,60.072C52.2,60.007 52.202,59.946 52.204,59.888C52.211,59.755 52.249,59.644 52.318,59.558C52.386,59.471 52.475,59.408 52.584,59.374C52.651,59.35 52.722,59.342 52.795,59.351C52.868,59.359 52.941,59.385 53.009,59.424C53.075,59.463 53.136,59.521 53.194,59.595C53.253,59.671 53.299,59.757 53.332,59.858C53.365,59.956 53.382,60.051 53.384,60.146C53.386,60.241 53.381,60.316 53.371,60.375L53.469,60.425L53.506,60.534L52.91,60.746L52.874,60.638C52.929,60.591 52.985,60.54 53.04,60.484C53.095,60.428 53.139,60.375 53.171,60.322C53.206,60.265 53.227,60.206 53.239,60.144C53.249,60.081 53.243,60.014 53.218,59.942C53.188,59.853 53.139,59.789 53.07,59.748C53,59.708 52.929,59.7 52.856,59.725C52.786,59.748 52.737,59.792 52.71,59.856C52.681,59.92 52.668,60.011 52.67,60.125C52.669,60.194 52.67,60.264 52.671,60.335C52.671,60.406 52.67,60.468 52.667,60.525C52.662,60.66 52.628,60.773 52.568,60.862C52.508,60.953 52.418,61.019 52.296,61.058C52.221,61.083 52.141,61.09 52.058,61.078C51.975,61.066 51.899,61.038 51.832,60.993C51.758,60.945 51.693,60.881 51.635,60.803C51.579,60.726 51.531,60.629 51.492,60.513Z" style="fill:rgb(126,24,28);"/>
        </g>
        <g transform="matrix(3.55437,0,0,3.55437,-68.9679,-148.98)">
            <path d="M52.099,63.365L51.995,62.341L52.095,62.33C52.099,62.353 52.106,62.386 52.114,62.433C52.123,62.478 52.13,62.509 52.14,62.524C52.155,62.556 52.175,62.577 52.198,62.586C52.219,62.595 52.247,62.598 52.28,62.595L53.588,62.46C53.617,62.457 53.644,62.449 53.665,62.435C53.686,62.422 53.702,62.398 53.712,62.364C53.719,62.342 53.725,62.31 53.729,62.268C53.734,62.226 53.737,62.19 53.737,62.161L53.84,62.151L53.945,63.175L53.844,63.185C53.838,63.16 53.831,63.127 53.823,63.09C53.814,63.051 53.803,63.018 53.791,62.993C53.777,62.961 53.757,62.939 53.732,62.931C53.708,62.922 53.679,62.917 53.649,62.922L52.343,63.057C52.311,63.061 52.286,63.068 52.264,63.083C52.243,63.096 52.228,63.121 52.217,63.155C52.211,63.174 52.208,63.205 52.204,63.247C52.201,63.29 52.2,63.326 52.202,63.354L52.099,63.365Z" style="fill:rgb(126,24,28);"/>
        </g>
        <g transform="matrix(3.55437,0,0,3.55437,-68.9679,-148.98)">
            <path d="M53.236,66.361L53.249,66.26C53.331,66.244 53.419,66.21 53.516,66.162C53.613,66.113 53.668,66.065 53.681,66.015C53.687,65.989 53.694,65.954 53.702,65.914C53.709,65.873 53.715,65.839 53.718,65.812L53.724,65.749L52.282,65.577C52.251,65.575 52.222,65.576 52.198,65.585C52.172,65.594 52.151,65.613 52.133,65.645C52.124,65.664 52.112,65.693 52.099,65.735C52.085,65.777 52.075,65.812 52.069,65.84L51.967,65.829L52.089,64.798L52.19,64.81C52.19,64.836 52.19,64.872 52.189,64.917C52.188,64.964 52.19,64.995 52.196,65.012C52.206,65.047 52.221,65.073 52.243,65.087C52.265,65.102 52.293,65.109 52.325,65.114L53.78,65.287L53.787,65.225C53.791,65.197 53.793,65.161 53.795,65.119C53.798,65.079 53.799,65.046 53.799,65.017C53.798,64.967 53.756,64.906 53.673,64.837C53.59,64.767 53.512,64.714 53.437,64.678L53.448,64.576L53.976,64.639L53.764,66.424L53.236,66.361Z" style="fill:rgb(126,24,28);"/>
        </g>
        <g transform="matrix(3.55437,0,0,3.55437,-68.9679,-148.98)">
            <path d="M52.633,69.572C52.641,69.542 52.646,69.512 52.647,69.487C52.649,69.459 52.649,69.432 52.644,69.405C52.638,69.363 52.624,69.321 52.605,69.284C52.584,69.245 52.56,69.204 52.533,69.164C52.476,69.082 52.413,68.995 52.345,68.902C52.275,68.809 52.201,68.707 52.118,68.598C52.065,68.527 52.024,68.48 51.99,68.454C51.957,68.431 51.894,68.401 51.803,68.367L51.558,68.272C51.529,68.261 51.5,68.256 51.475,68.259C51.449,68.262 51.423,68.276 51.397,68.302C51.385,68.315 51.368,68.339 51.34,68.381C51.314,68.422 51.295,68.454 51.287,68.474L51.19,68.438L51.562,67.469L51.658,67.504C51.65,67.528 51.642,67.562 51.63,67.606C51.618,67.652 51.612,67.684 51.611,67.704C51.613,67.739 51.623,67.766 51.64,67.786C51.658,67.804 51.682,67.822 51.712,67.833L52.018,67.95C52.045,67.96 52.068,67.968 52.089,67.975C52.109,67.981 52.128,67.986 52.144,67.986C52.161,67.986 52.184,67.985 52.214,67.98C52.243,67.975 52.281,67.969 52.328,67.962C52.462,67.941 52.589,67.922 52.71,67.9C52.831,67.88 52.944,67.859 53.051,67.84C53.105,67.83 53.152,67.816 53.191,67.797C53.229,67.781 53.262,67.76 53.29,67.738C53.31,67.72 53.33,67.698 53.349,67.667C53.367,67.639 53.382,67.613 53.394,67.588L53.489,67.626L53.109,68.617L53.013,68.581C53.046,68.488 53.062,68.424 53.065,68.389C53.068,68.353 53.059,68.33 53.041,68.324C53.032,68.32 53.012,68.32 52.981,68.32C52.95,68.322 52.9,68.328 52.832,68.336C52.768,68.343 52.681,68.357 52.567,68.372C52.454,68.392 52.32,68.414 52.167,68.441C52.353,68.69 52.484,68.86 52.558,68.955C52.635,69.05 52.683,69.102 52.705,69.112C52.733,69.121 52.76,69.113 52.788,69.085C52.815,69.057 52.845,69.006 52.878,68.932L52.973,68.968L52.729,69.608L52.633,69.572Z" style="fill:rgb(126,24,28);"/>
        </g>
        <g transform="matrix(3.55437,0,0,3.55437,-68.9679,-148.98)">
            <path d="M50.636,64C50.636,69.284 46.353,73.568 41.069,73.568C35.783,73.568 31.499,69.284 31.499,64C31.499,58.714 35.783,54.431 41.069,54.431C46.353,54.431 50.636,58.714 50.636,64ZM47.015,68.863C46.697,68.124 46.336,67.441 45.942,66.836C45.528,66.199 45.075,65.643 44.597,65.187C44.084,64.696 43.535,64.315 42.968,64.054C42.594,63.882 42.211,63.762 41.824,63.694L41.824,63.25C41.824,62.833 41.485,62.493 41.067,62.493C40.65,62.493 40.312,62.833 40.312,63.25L40.312,63.694C39.924,63.762 39.541,63.882 39.168,64.054C38.601,64.315 38.053,64.696 37.537,65.187C37.059,65.643 36.607,66.199 36.194,66.836C35.799,67.441 35.438,68.124 35.121,68.863C34.962,69.234 35.133,69.664 35.504,69.825C35.875,69.983 36.304,69.811 36.464,69.44C37.037,68.102 37.757,66.998 38.547,66.245C39.115,65.702 39.706,65.349 40.312,65.189L40.312,66.378C40.312,66.787 40.011,66.947 39.872,67.031C39.828,67.059 39.732,67.116 39.687,67.144C39.406,67.326 39.084,67.607 38.783,67.994C38.239,68.691 37.816,69.641 37.592,70.669C37.505,71.065 37.755,71.453 38.15,71.539C38.545,71.624 38.933,71.376 39.019,70.98C39.199,70.162 39.523,69.42 39.935,68.892C40.144,68.623 40.572,68.17 41.067,68.17C41.563,68.17 41.99,68.623 42.2,68.892C42.612,69.42 42.938,70.162 43.116,70.98C43.202,71.376 43.591,71.624 43.985,71.539C44.379,71.453 44.63,71.065 44.544,70.669C44.32,69.641 43.896,68.691 43.353,67.994C43.051,67.607 42.728,67.326 42.45,67.144C42.403,67.116 42.308,67.059 42.262,67.031C42.125,66.947 41.824,66.787 41.824,66.378L41.824,65.189C42.429,65.349 43.019,65.702 43.588,66.245C44.377,66.998 45.097,68.102 45.671,69.44C45.83,69.811 46.26,69.983 46.631,69.825C47.001,69.664 47.174,69.234 47.015,68.863ZM41.716,56.735L41.716,61.462C41.716,61.711 41.896,62.072 42.287,62.155C43.164,62.341 44.166,62.853 45.07,63.6C45.958,64.333 46.792,65.294 47.549,66.462C47.769,66.8 48.222,66.896 48.561,66.677C48.777,66.536 48.893,66.303 48.893,66.063C48.893,65.926 48.856,65.788 48.775,65.664C47.937,64.375 47.003,63.302 46.001,62.473C45.11,61.737 44.18,61.211 43.228,60.901L43.228,59.223C44.598,59.599 46.027,60.379 47.257,61.432C47.564,61.694 48.024,61.658 48.287,61.352C48.55,61.046 48.513,60.584 48.207,60.322C47.422,59.649 46.526,59.051 45.619,58.594C44.818,58.189 44.017,57.895 43.228,57.714L43.228,56.735C43.228,56.318 42.89,55.979 42.472,55.979C42.054,55.979 41.716,56.318 41.716,56.735ZM39.664,55.979C39.246,55.979 38.908,56.318 38.908,56.735L38.908,57.714C38.119,57.895 37.317,58.189 36.516,58.594C35.608,59.051 34.714,59.649 33.928,60.322C33.621,60.584 33.586,61.046 33.848,61.352C34.111,61.658 34.571,61.694 34.879,61.432C36.108,60.379 37.536,59.599 38.908,59.223L38.908,60.901C37.956,61.211 37.026,61.737 36.134,62.473C35.132,63.302 34.198,64.375 33.36,65.664C33.281,65.788 33.241,65.926 33.241,66.063C33.241,66.303 33.36,66.536 33.575,66.677C33.914,66.896 34.366,66.8 34.585,66.462C35.343,65.294 36.176,64.333 37.064,63.6C37.969,62.853 38.972,62.341 39.849,62.155C40.24,62.072 40.419,61.711 40.419,61.462L40.419,56.735C40.419,56.318 40.081,55.979 39.664,55.979Z" style="fill:rgb(126,24,28);"/>
        </g>
    </g>
</svg>
