<?xml version="1.0" encoding="UTF-8" standalone="no"?>
<!DOCTYPE svg PUBLIC "-//W3C//DTD SVG 1.1//EN" "http://www.w3.org/Graphics/SVG/1.1/DTD/svg11.dtd">
<svg width="100%" height="100%" viewBox="0 0 154 157" version="1.1" xmlns="http://www.w3.org/2000/svg" xmlns:xlink="http://www.w3.org/1999/xlink" xml:space="preserve" xmlns:serif="http://www.serif.com/" style="fill-rule:evenodd;clip-rule:evenodd;stroke-linejoin:round;stroke-miterlimit:2;">
    <g>
        <g transform="matrix(3.77614,0,0,3.77614,-74.9557,-164.083)">
            <path d="M53.158,64.241C53.158,71.364 47.364,77.159 40.241,77.159C33.118,77.159 27.324,71.364 27.324,64.241C27.324,57.118 33.118,51.323 40.241,51.323C47.364,51.323 53.158,57.118 53.158,64.241ZM40.241,51C32.939,51 27,56.94 27,64.241C27,71.542 32.939,77.482 40.241,77.482C47.543,77.482 53.482,71.542 53.482,64.241C53.482,56.94 47.543,51 40.241,51Z" style="fill:rgb(182,37,55);"/>
        </g>
        <g transform="matrix(3.77614,0,0,3.77614,-74.9557,-164.083)">
            <path d="M52.866,64.241C52.866,71.202 47.202,76.868 40.241,76.868C33.279,76.868 27.615,71.202 27.615,64.241C27.615,57.279 33.279,51.616 40.241,51.616C47.202,51.616 52.866,57.279 52.866,64.241ZM40.241,51.493C33.213,51.493 27.493,57.212 27.493,64.241C27.493,71.27 33.213,76.989 40.241,76.989C47.27,76.989 52.988,71.27 52.988,64.241C52.988,57.212 47.27,51.493 40.241,51.493Z" style="fill:rgb(182,37,55);"/>
        </g>
        <g transform="matrix(3.77614,0,0,3.77614,-74.9557,-164.083)">
            <path d="M36.216,52.859C36.198,53.335 36.639,53.086 36.921,53.064C37.018,53.056 37.908,52.709 37.783,53.074C37.706,53.301 37.415,53.227 37.234,53.248C37.018,53.272 36.775,53.351 36.578,53.441C36.385,53.53 36.529,53.653 36.683,53.614C36.825,53.579 36.959,53.566 37.106,53.573C37.457,53.594 37.826,53.696 38.114,53.901C38.261,54.005 38.68,54.42 38.417,54.545C38.257,54.621 38.037,54.398 37.922,54.299C37.74,54.14 37.618,53.997 37.374,53.921C36.94,53.784 36.494,53.868 36.149,54.169C35.834,54.442 35.602,54.752 35.529,55.163C35.498,55.334 35.426,55.945 35.145,55.742C34.834,55.518 35.276,54.791 35.358,54.661C35.398,54.597 35.476,54.51 35.559,54.421C35.612,54.363 35.733,54.22 35.826,54.115C35.876,54.057 36.04,53.901 36.106,53.848C36.204,53.772 36.244,53.635 36.063,53.643C35.892,53.651 35.815,53.752 35.608,53.84C35.4,53.928 34.864,54.421 34.763,54.129C34.638,53.768 35.438,53.623 35.654,53.536C35.705,53.516 35.773,53.493 35.826,53.473C35.868,53.457 35.923,53.419 35.932,53.41C35.976,53.351 36.009,53.265 35.991,53.223C35.946,53.116 35.867,52.983 35.867,52.872C35.954,52.791 36.122,52.786 36.216,52.859Z" style="fill:rgb(182,37,55);"/>
        </g>
        <g transform="matrix(3.77614,0,0,3.77614,-74.9557,-164.083)">
            <path d="M35.51,67.478L34.575,66.977L34.262,67.519C34.486,67.672 34.596,67.903 34.625,68.171L36.296,69.064L36.806,68.171L35.97,67.724L38.554,62.913C38.567,62.894 38.561,62.874 38.537,62.86L38.142,62.65C38.114,62.637 38.097,62.643 38.086,62.665L35.51,67.478Z" style="fill:rgb(182,37,55);"/>
        </g>
        <g transform="matrix(3.77614,0,0,3.77614,-74.9557,-164.083)">
            <path d="M37.136,68.072C37.08,68.072 37.033,68.119 37.033,68.177L37.033,69.561C37.033,69.636 37.095,69.699 37.17,69.699L43.734,69.699C43.809,69.699 43.872,69.636 43.872,69.561L43.872,68.209C43.872,68.134 43.809,68.072 43.734,68.072L37.136,68.072ZM37.053,67.852L43.84,67.852C43.979,67.852 44.092,67.966 44.092,68.104L44.092,69.664C44.092,69.804 43.979,69.918 43.84,69.918L37.053,69.918C36.915,69.918 36.802,69.804 36.802,69.664L36.802,68.104C36.802,67.966 36.915,67.852 37.053,67.852Z" style="fill:rgb(182,37,55);"/>
        </g>
        <g transform="matrix(3.77614,0,0,3.77614,-74.9557,-164.083)">
            <rect x="36.6" y="60.125" width="2.305" height="0.503" style="fill:rgb(182,37,55);"/>
        </g>
        <g transform="matrix(3.77614,0,0,3.77614,-74.9557,-164.083)">
            <rect x="36.6" y="60.891" width="2.305" height="0.504" style="fill:rgb(182,37,55);"/>
        </g>
        <g transform="matrix(3.77614,0,0,3.77614,-74.9557,-164.083)">
            <rect x="36.6" y="61.657" width="2.305" height="0.503" style="fill:rgb(182,37,55);"/>
        </g>
        <g transform="matrix(3.77614,0,0,3.77614,-74.9557,-164.083)">
            <path d="M41.263,64.326C41.193,64.326 41.135,64.384 41.135,64.455L41.135,64.587C41.135,64.657 41.195,64.715 41.263,64.715L42.316,64.715C42.386,64.715 42.444,64.657 42.444,64.587L42.444,64.455C42.444,64.384 42.386,64.326 42.316,64.326L41.263,64.326ZM39.229,65.074C39.158,65.074 39.101,65.132 39.101,65.202L39.101,65.334C39.101,65.405 39.16,65.463 39.229,65.463L41.571,65.463C41.642,65.463 41.702,65.405 41.702,65.334L41.702,65.202C41.702,65.132 41.642,65.074 41.571,65.074L39.229,65.074ZM39.133,65.869C39.06,65.869 39.003,65.928 39.003,65.998L39.003,66.13C39.003,66.2 39.062,66.259 39.133,66.259L41.669,66.259C41.74,66.259 41.798,66.2 41.798,66.13L41.798,65.998C41.798,65.928 41.74,65.869 41.669,65.869L39.133,65.869ZM38.445,66.713C38.375,66.713 38.317,66.772 38.317,66.843L38.317,66.973C38.317,67.044 38.375,67.103 38.445,67.103L42.355,67.103C42.427,67.103 42.485,67.044 42.485,66.973L42.485,66.843C42.485,66.772 42.427,66.713 42.355,66.713L38.445,66.713ZM45.678,66.341L45.678,66.467C45.678,66.498 45.646,66.525 45.605,66.525L45.463,66.525C45.423,66.525 45.388,66.498 45.388,66.467L45.388,66.341C45.317,66.382 45.267,66.46 45.267,66.549L45.267,67.217C45.267,67.349 45.374,67.456 45.504,67.456L45.563,67.456C45.694,67.456 45.801,67.349 45.801,67.217L45.801,66.549C45.801,66.46 45.751,66.382 45.678,66.341ZM38.175,64.326L38.176,64.326L39.003,62.781C39.024,62.746 39.007,62.714 38.981,62.703L38.651,62.532L46.608,62.532L46.608,63.106C46.608,63.083 46.611,63.353 45.887,63.473C45.817,63.482 45.748,63.5 45.678,63.51L45.678,63.848C45.875,63.867 46.031,64.033 46.031,64.234L46.031,65.153C46.031,65.353 45.875,65.521 45.678,65.539L45.678,66.051C45.875,66.068 46.031,66.236 46.031,66.437L46.031,67.337C46.031,67.551 45.856,67.724 45.643,67.724L45.424,67.724C45.21,67.724 45.037,67.551 45.037,67.337L45.037,66.437C45.037,66.236 45.192,66.068 45.389,66.051L45.389,65.539C45.192,65.521 45.037,65.353 45.037,65.153L45.037,64.234C45.037,64.033 45.192,63.867 45.389,63.848L45.389,63.553C44.823,63.649 44.278,63.816 43.861,64.296L43.358,64.296C43.358,64.296 43.141,64.397 42.915,64.595C42.761,64.729 42.604,64.908 42.509,65.129L42.336,65.129C42.335,65.13 42.254,65.179 42.175,65.259C42.175,65.26 42.172,65.261 42.172,65.264L42.166,65.269C42.165,65.271 42.163,65.273 42.161,65.275C42.159,65.277 42.157,65.279 42.157,65.281C42.155,65.282 42.154,65.285 42.151,65.286C42.149,65.287 42.149,65.289 42.147,65.292C42.146,65.292 42.143,65.295 42.143,65.296C42.143,65.296 42.142,65.297 42.142,65.297C42.141,65.299 42.14,65.299 42.139,65.301L42.137,65.301C42.136,65.304 42.135,65.306 42.134,65.308C42.075,65.382 42.031,65.473 42.047,65.576C42.086,65.827 42.163,65.885 42.393,66.079C42.625,66.273 43.049,66.7 43.223,66.933C43.372,67.133 43.394,67.418 43.273,67.495C43.254,67.508 43.23,67.515 43.204,67.515L37.63,67.514C37.437,67.514 37.437,67.165 37.611,66.933C37.783,66.7 38.21,66.273 38.441,66.079C38.672,65.885 38.75,65.827 38.788,65.576C38.825,65.323 38.497,65.129 38.497,65.129L38.323,65.129C38.262,65.009 38.136,64.812 38.018,64.715L40.279,64.715C40.35,64.715 40.408,64.657 40.408,64.587L40.408,64.455C40.408,64.384 40.35,64.326 40.279,64.326L38.175,64.326ZM36.12,63.034C36.038,63.033 35.962,63.039 35.92,63.104C35.795,63.302 35.822,63.845 35.822,64.062L35.23,64.062L35.082,63.918L35.082,62.928C35.225,62.697 35.586,62.525 36.252,62.525L37.693,62.526C37.74,62.526 37.755,62.565 37.742,62.59L36.952,64.061L36.12,64.062L36.12,63.034ZM45.463,65.017L45.605,65.017C45.646,65.017 45.678,65.044 45.678,65.076L45.678,65.241C45.751,65.2 45.801,65.123 45.801,65.033L45.801,64.346C45.801,64.256 45.751,64.178 45.678,64.138L45.678,64.273C45.678,64.303 45.644,64.331 45.605,64.331L45.463,64.331C45.423,64.331 45.388,64.304 45.388,64.273L45.388,64.138C45.316,64.178 45.267,64.256 45.267,64.346L45.267,65.033C45.267,65.123 45.317,65.2 45.388,65.241L45.388,65.076C45.388,65.044 45.421,65.017 45.463,65.017Z" style="fill:rgb(182,37,55);"/>
        </g>
        <g transform="matrix(3.77614,0,0,3.77614,-74.9557,-164.083)">
            <rect x="39.09" y="60.125" width="0.398" height="0.503" style="fill:rgb(182,37,55);"/>
        </g>
        <g transform="matrix(3.77614,0,0,3.77614,-74.9557,-164.083)">
            <path d="M36.9,59.666C37.603,59.628 38.367,59.391 39.031,59.053L39.238,59.511C38.507,59.862 37.683,60.099 37.02,60.132L36.9,59.666Z" style="fill:rgb(182,37,55);"/>
        </g>
        <g transform="matrix(3.77614,0,0,3.77614,-74.9557,-164.083)">
            <path d="M39.196,58.976L39.567,58.797L39.783,59.243L39.412,59.422L39.196,58.976Z" style="fill:rgb(182,37,55);"/>
        </g>
        <g transform="matrix(3.77614,0,0,3.77614,-74.9557,-164.083)">
            <rect x="39.09" y="60.891" width="0.398" height="0.504" style="fill:rgb(182,37,55);"/>
        </g>
        <g transform="matrix(3.77614,0,0,3.77614,-74.9557,-164.083)">
            <rect x="39.09" y="61.657" width="0.398" height="0.503" style="fill:rgb(182,37,55);"/>
        </g>
        <g transform="matrix(3.77614,0,0,3.77614,-74.9557,-164.083)">
            <path d="M42.55,60.108L42.639,60.261L42.966,60.079L42.879,59.925L42.55,60.108ZM42.364,59.772L42.453,59.926L42.78,59.743L42.691,59.59L42.364,59.772ZM41.9,59.387L42.63,58.985L44.163,61.768L43.434,62.17L41.9,59.387Z" style="fill:rgb(182,37,55);"/>
        </g>
        <g transform="matrix(3.77614,0,0,3.77614,-74.9557,-164.083)">
            <path d="M41.293,60.124L41.668,60.124L41.668,59.949L41.293,59.949L41.293,60.124ZM41.293,59.739L41.668,59.739L41.668,59.565L41.293,59.565L41.293,59.739ZM41.293,59.355L41.668,59.355L41.668,59.182L41.293,59.182L41.293,59.355ZM40.077,60.124L40.452,60.124L40.452,59.949L40.077,59.949L40.077,60.124ZM40.077,59.739L40.452,59.739L40.452,59.565L40.077,59.565L40.077,59.739ZM40.077,59.355L40.452,59.355L40.452,59.182L40.077,59.182L40.077,59.355ZM40.077,58.971L40.452,58.971L40.452,58.797L40.077,58.797L40.077,58.971ZM39.774,62.166L40.754,62.166L40.754,58.296L39.774,58.296L39.774,62.166ZM41.042,62.166L41.917,62.166L41.917,58.623L41.042,58.623L41.042,62.166Z" style="fill:rgb(182,37,55);"/>
        </g>
        <g transform="matrix(3.77614,0,0,3.77614,-74.9557,-164.083)">
            <path d="M49.412,63.999L48.693,63.905C48.665,63.9 48.646,63.891 48.627,63.867C48.623,63.751 48.619,63.634 48.609,63.522C48.619,63.499 48.638,63.484 48.665,63.48L49.365,63.293C49.374,63.288 49.389,63.284 49.389,63.256C49.381,63.195 49.374,63.125 49.361,63.046L49.361,63.037C49.352,62.962 49.343,62.892 49.333,62.831C49.328,62.802 49.314,62.802 49.301,62.802L48.577,62.802C48.548,62.802 48.524,62.794 48.511,62.775C48.487,62.663 48.464,62.551 48.441,62.434C48.45,62.41 48.464,62.397 48.492,62.387L49.165,62.108C49.175,62.102 49.188,62.098 49.179,62.069C49.165,62.009 49.151,61.945 49.128,61.869L49.128,61.86C49.103,61.785 49.086,61.715 49.071,61.654C49.061,61.631 49.049,61.631 49.033,61.631L48.314,61.729C48.286,61.734 48.268,61.729 48.244,61.711C48.212,61.598 48.174,61.491 48.132,61.384C48.141,61.355 48.156,61.337 48.178,61.322L48.81,60.964C48.819,60.958 48.827,60.949 48.819,60.926C48.801,60.864 48.773,60.8 48.744,60.73L48.739,60.726L48.739,60.721C48.707,60.646 48.679,60.586 48.656,60.524C48.646,60.501 48.632,60.506 48.619,60.506L47.917,60.697C47.889,60.706 47.865,60.701 47.841,60.683C47.796,60.58 47.743,60.481 47.693,60.384C47.693,60.351 47.707,60.332 47.73,60.314L48.305,59.874C48.314,59.865 48.324,59.856 48.314,59.833C48.282,59.777 48.249,59.717 48.212,59.651C48.212,59.651 48.212,59.646 48.207,59.646L48.207,59.641C48.164,59.571 48.132,59.511 48.099,59.459C48.086,59.436 48.071,59.441 48.057,59.445L47.389,59.725C47.36,59.738 47.338,59.734 47.31,59.72C47.249,59.627 47.189,59.538 47.128,59.45C47.118,59.417 47.128,59.394 47.152,59.371L47.663,58.857C47.674,58.847 47.683,58.839 47.669,58.815C47.632,58.768 47.589,58.711 47.543,58.647L47.539,58.647L47.539,58.642L47.533,58.642C47.486,58.577 47.445,58.525 47.408,58.473C47.389,58.455 47.374,58.461 47.366,58.469L46.74,58.829C46.711,58.847 46.683,58.847 46.655,58.834C46.586,58.754 46.515,58.67 46.439,58.591C46.43,58.563 46.436,58.535 46.453,58.511L46.899,57.937C46.908,57.927 46.912,57.913 46.894,57.895C46.852,57.847 46.804,57.796 46.749,57.746L46.749,57.741L46.744,57.741L46.744,57.736L46.74,57.736C46.688,57.679 46.637,57.633 46.59,57.591C46.57,57.572 46.556,57.583 46.547,57.587L45.972,58.03C45.949,58.049 45.92,58.053 45.893,58.044C45.814,57.974 45.729,57.9 45.651,57.834C45.636,57.801 45.636,57.778 45.655,57.749L46.02,57.119C46.025,57.11 46.029,57.096 46.01,57.082C45.959,57.042 45.907,56.999 45.842,56.951L45.842,56.946L45.837,56.946L45.837,56.942C45.773,56.895 45.716,56.853 45.669,56.816C45.646,56.802 45.636,56.811 45.627,56.821L45.114,57.335C45.09,57.358 45.066,57.367 45.038,57.362C44.944,57.297 44.855,57.237 44.763,57.176C44.748,57.153 44.745,57.124 44.758,57.096L45.038,56.429C45.042,56.415 45.048,56.399 45.025,56.387C44.972,56.353 44.911,56.321 44.843,56.279L44.837,56.279C44.837,56.279 44.837,56.274 44.833,56.274C44.767,56.237 44.706,56.204 44.65,56.171C44.626,56.162 44.617,56.171 44.608,56.182L44.17,56.755C44.149,56.784 44.131,56.792 44.099,56.792C44.001,56.741 43.902,56.691 43.8,56.644C43.781,56.62 43.776,56.597 43.786,56.568L43.978,55.869C43.978,55.859 43.982,55.84 43.958,55.831C43.899,55.808 43.837,55.779 43.763,55.746L43.752,55.746C43.682,55.713 43.617,55.691 43.557,55.668C43.534,55.658 43.524,55.672 43.519,55.681L43.159,56.307C43.145,56.335 43.127,56.349 43.098,56.353C42.991,56.312 42.884,56.274 42.771,56.242C42.754,56.222 42.747,56.2 42.754,56.171L42.851,55.452C42.851,55.439 42.851,55.425 42.828,55.42C42.767,55.401 42.696,55.382 42.622,55.363L42.622,55.359L42.613,55.359C42.538,55.34 42.472,55.322 42.413,55.308C42.384,55.303 42.379,55.313 42.375,55.326L42.095,55.994C42.085,56.022 42.07,56.036 42.046,56.046C41.93,56.022 41.819,55.999 41.706,55.975C41.687,55.962 41.679,55.939 41.679,55.909L41.679,55.185C41.679,55.177 41.679,55.159 41.651,55.159C41.59,55.144 41.52,55.134 41.444,55.126L41.435,55.126C41.355,55.116 41.285,55.107 41.225,55.102C41.197,55.098 41.192,55.111 41.192,55.122L41.001,55.82C40.996,55.85 40.981,55.869 40.957,55.882C40.846,55.874 40.728,55.864 40.612,55.859C40.594,55.845 40.58,55.82 40.58,55.793L40.486,55.074C40.481,55.065 40.477,55.05 40.453,55.05C40.42,55.047 40.389,55.047 40.35,55.047L40.122,55.047C40.084,55.047 40.051,55.047 40.019,55.05C39.996,55.05 39.992,55.065 39.992,55.074L39.897,55.793C39.893,55.82 39.883,55.845 39.86,55.859C39.743,55.864 39.632,55.874 39.514,55.882C39.495,55.869 39.481,55.85 39.476,55.82L39.29,55.122C39.286,55.111 39.281,55.098 39.257,55.102C39.192,55.107 39.122,55.116 39.047,55.126L39.037,55.126C38.958,55.134 38.887,55.144 38.827,55.159C38.804,55.159 38.799,55.177 38.799,55.185L38.799,55.909C38.804,55.939 38.795,55.962 38.777,55.975C38.658,55.999 38.547,56.022 38.434,56.046C38.407,56.036 38.393,56.022 38.383,55.994L38.108,55.326C38.102,55.313 38.094,55.303 38.071,55.308C38.01,55.322 37.939,55.34 37.865,55.359L37.86,55.359C37.856,55.359 37.856,55.359 37.856,55.363C37.781,55.382 37.71,55.401 37.655,55.42C37.626,55.425 37.631,55.439 37.631,55.452L37.724,56.171C37.728,56.2 37.724,56.222 37.706,56.242C37.598,56.274 37.486,56.312 37.379,56.353C37.355,56.349 37.336,56.335 37.323,56.307L36.958,55.681C36.954,55.672 36.944,55.658 36.921,55.668C36.86,55.691 36.799,55.713 36.725,55.746L36.715,55.746C36.646,55.779 36.579,55.808 36.524,55.831C36.499,55.84 36.499,55.859 36.505,55.869L36.692,56.568C36.701,56.597 36.696,56.62 36.683,56.644C36.579,56.691 36.477,56.741 36.378,56.792C36.351,56.792 36.327,56.784 36.31,56.755L35.874,56.182C35.865,56.171 35.856,56.162 35.832,56.171C35.781,56.204 35.714,56.237 35.65,56.274L35.65,56.279L35.641,56.279C35.574,56.321 35.514,56.353 35.457,56.387C35.439,56.399 35.444,56.415 35.448,56.429L35.724,57.096C35.738,57.124 35.738,57.153 35.719,57.176C35.631,57.237 35.537,57.297 35.448,57.362C35.416,57.367 35.393,57.358 35.369,57.335L34.861,56.821C34.85,56.811 34.836,56.802 34.818,56.816C34.766,56.853 34.71,56.895 34.65,56.942L34.644,56.946L34.641,56.946L34.641,56.951C34.579,56.999 34.524,57.042 34.475,57.082C34.453,57.096 34.462,57.11 34.467,57.119L34.831,57.749C34.846,57.778 34.85,57.801 34.836,57.834C34.752,57.9 34.672,57.974 34.594,58.044C34.561,58.053 34.533,58.049 34.509,58.03L33.933,57.587C33.924,57.583 33.91,57.572 33.892,57.591C33.846,57.633 33.799,57.679 33.743,57.736L33.737,57.741C33.737,57.741 33.737,57.746 33.733,57.746C33.682,57.796 33.631,57.847 33.588,57.895C33.57,57.913 33.579,57.927 33.583,57.937L34.028,58.511C34.046,58.535 34.05,58.563 34.041,58.591C33.971,58.67 33.901,58.754 33.831,58.834C33.799,58.847 33.775,58.847 33.747,58.829L33.117,58.469C33.107,58.461 33.092,58.455 33.08,58.473C33.036,58.525 32.995,58.577 32.949,58.642L32.943,58.642L32.943,58.647C32.891,58.711 32.851,58.768 32.817,58.815C32.797,58.839 32.807,58.847 32.817,58.857L33.331,59.371C33.354,59.394 33.364,59.417 33.359,59.45C33.295,59.538 33.233,59.627 33.173,59.72C33.149,59.734 33.121,59.738 33.092,59.725L32.424,59.445C32.416,59.441 32.402,59.436 32.387,59.459C32.354,59.511 32.318,59.571 32.28,59.641L32.275,59.641L32.275,59.651C32.233,59.717 32.2,59.777 32.173,59.833C32.158,59.856 32.168,59.865 32.178,59.874L32.757,60.314C32.78,60.332 32.79,60.351 32.79,60.384C32.737,60.481 32.691,60.58 32.64,60.683C32.616,60.701 32.593,60.706 32.565,60.697L31.864,60.506C31.854,60.506 31.841,60.501 31.826,60.524C31.804,60.586 31.775,60.646 31.748,60.721L31.743,60.721L31.743,60.73C31.711,60.8 31.687,60.864 31.662,60.926C31.654,60.949 31.668,60.958 31.677,60.964L32.304,61.322C32.332,61.337 32.345,61.355 32.35,61.384C32.307,61.491 32.275,61.598 32.237,61.711C32.219,61.729 32.196,61.734 32.168,61.729L31.448,61.631C31.438,61.631 31.42,61.631 31.414,61.654C31.397,61.715 31.378,61.785 31.358,61.86L31.355,61.86L31.355,61.869C31.336,61.945 31.317,62.009 31.304,62.069C31.299,62.098 31.312,62.102 31.322,62.108L31.99,62.387C32.018,62.397 32.032,62.41 32.041,62.434C32.018,62.551 31.995,62.663 31.976,62.775C31.958,62.798 31.933,62.802 31.906,62.802L31.182,62.802C31.173,62.802 31.158,62.802 31.154,62.831C31.144,62.892 31.13,62.962 31.121,63.037L31.121,63.046C31.112,63.125 31.103,63.195 31.097,63.256C31.094,63.284 31.106,63.288 31.115,63.293L31.817,63.48C31.846,63.484 31.864,63.499 31.878,63.522C31.869,63.634 31.86,63.751 31.854,63.867C31.841,63.891 31.821,63.9 31.789,63.905L31.069,63.999C31.06,63.999 31.046,64.003 31.046,64.026C31.041,64.092 31.041,64.162 31.041,64.236L31.041,64.25C31.041,64.325 31.041,64.396 31.046,64.46C31.046,64.484 31.06,64.489 31.069,64.489L31.789,64.582C31.821,64.587 31.841,64.596 31.854,64.62C31.86,64.735 31.869,64.848 31.878,64.966C31.864,64.988 31.846,65.002 31.817,65.006L31.115,65.193C31.106,65.199 31.094,65.203 31.097,65.23C31.103,65.292 31.112,65.362 31.121,65.436L31.121,65.45C31.13,65.525 31.139,65.595 31.154,65.656C31.154,65.684 31.173,65.684 31.182,65.684L31.906,65.684C31.933,65.684 31.958,65.689 31.976,65.708C31.995,65.824 32.018,65.936 32.041,66.053C32.032,66.076 32.018,66.09 31.99,66.099L31.322,66.38C31.308,66.385 31.299,66.389 31.304,66.417C31.317,66.473 31.336,66.544 31.355,66.618L31.355,66.627L31.358,66.627C31.378,66.702 31.397,66.772 31.414,66.832C31.42,66.855 31.438,66.855 31.448,66.855L32.168,66.758C32.196,66.753 32.219,66.758 32.237,66.777C32.27,66.889 32.307,66.996 32.35,67.104C32.345,67.132 32.332,67.15 32.304,67.159L31.677,67.524C31.668,67.529 31.654,67.538 31.662,67.561C31.687,67.622 31.711,67.687 31.743,67.756L31.743,67.767C31.775,67.843 31.804,67.903 31.826,67.963C31.836,67.982 31.854,67.982 31.864,67.977L32.565,67.79C32.593,67.781 32.616,67.786 32.64,67.804C32.686,67.903 32.737,68.004 32.79,68.103C32.79,68.135 32.78,68.154 32.753,68.173L32.178,68.612C32.168,68.621 32.158,68.631 32.168,68.654C32.2,68.71 32.233,68.77 32.27,68.836C32.275,68.836 32.275,68.841 32.275,68.841L32.275,68.846L32.28,68.846C32.318,68.916 32.354,68.977 32.387,69.028C32.397,69.046 32.411,69.046 32.424,69.042L33.092,68.761C33.121,68.748 33.149,68.751 33.173,68.766C33.233,68.859 33.295,68.949 33.359,69.036C33.364,69.07 33.354,69.093 33.331,69.116L32.817,69.63C32.807,69.64 32.797,69.648 32.817,69.673C32.851,69.719 32.891,69.775 32.939,69.84L32.943,69.84L32.943,69.845L32.949,69.845C32.995,69.911 33.036,69.961 33.08,70.013C33.092,70.031 33.107,70.028 33.117,70.018L33.747,69.659C33.775,69.64 33.799,69.64 33.831,69.653C33.901,69.733 33.971,69.817 34.041,69.896C34.05,69.924 34.046,69.952 34.028,69.976L33.583,70.551C33.579,70.56 33.57,70.573 33.588,70.592C33.631,70.64 33.677,70.69 33.733,70.742C33.733,70.742 33.733,70.746 33.737,70.746L33.737,70.75L33.743,70.75C33.799,70.807 33.846,70.854 33.892,70.896C33.91,70.915 33.924,70.905 33.933,70.9L34.509,70.457C34.533,70.438 34.561,70.433 34.587,70.443C34.667,70.513 34.752,70.588 34.831,70.653C34.846,70.685 34.846,70.713 34.827,70.737L34.467,71.367C34.457,71.376 34.453,71.391 34.472,71.409C34.524,71.446 34.579,71.488 34.641,71.536L34.641,71.54L34.644,71.54L34.644,71.544C34.71,71.591 34.766,71.633 34.818,71.671C34.836,71.685 34.846,71.675 34.855,71.666L35.369,71.152C35.393,71.13 35.416,71.12 35.448,71.124C35.537,71.19 35.627,71.25 35.719,71.311C35.733,71.334 35.738,71.362 35.724,71.391L35.444,72.059C35.439,72.072 35.439,72.087 35.457,72.1C35.509,72.133 35.57,72.165 35.641,72.208L35.645,72.208C35.645,72.213 35.65,72.213 35.65,72.213C35.714,72.25 35.776,72.283 35.832,72.316C35.856,72.325 35.865,72.316 35.874,72.305L36.31,71.732C36.327,71.704 36.347,71.694 36.378,71.694C36.477,71.745 36.579,71.796 36.677,71.844C36.696,71.867 36.701,71.89 36.692,71.918L36.505,72.614C36.499,72.628 36.499,72.642 36.524,72.651C36.579,72.675 36.64,72.703 36.715,72.736L36.719,72.736C36.725,72.736 36.725,72.736 36.725,72.74C36.795,72.769 36.86,72.796 36.921,72.814C36.944,72.825 36.954,72.814 36.958,72.801L37.323,72.18C37.331,72.151 37.351,72.138 37.379,72.133C37.486,72.175 37.593,72.213 37.706,72.245C37.724,72.264 37.728,72.287 37.724,72.316L37.626,73.03C37.626,73.045 37.626,73.058 37.649,73.063C37.71,73.082 37.781,73.1 37.856,73.123L37.865,73.123C37.939,73.146 38.01,73.16 38.065,73.174C38.094,73.184 38.098,73.17 38.102,73.16L38.383,72.488C38.393,72.464 38.407,72.45 38.431,72.441C38.547,72.464 38.658,72.488 38.777,72.506C38.795,72.521 38.799,72.544 38.799,72.572L38.799,73.296C38.799,73.31 38.799,73.324 38.827,73.328C38.887,73.338 38.958,73.348 39.033,73.357L39.047,73.357C39.122,73.37 39.192,73.375 39.251,73.384C39.281,73.384 39.286,73.37 39.29,73.361L39.476,72.661C39.481,72.634 39.495,72.614 39.514,72.605C39.626,72.614 39.743,72.619 39.86,72.623C39.883,72.642 39.893,72.661 39.897,72.689L39.992,73.408C39.992,73.418 39.996,73.431 40.019,73.436L40.453,73.436C40.477,73.431 40.481,73.418 40.486,73.408L40.58,72.689C40.58,72.661 40.594,72.642 40.612,72.623C40.728,72.619 40.846,72.614 40.957,72.605C40.981,72.614 40.996,72.634 41.005,72.661L41.192,73.361C41.192,73.37 41.201,73.384 41.225,73.384C41.285,73.375 41.355,73.37 41.435,73.357L41.444,73.357C41.524,73.348 41.59,73.338 41.655,73.328C41.679,73.324 41.679,73.31 41.679,73.296L41.679,72.572C41.679,72.544 41.687,72.521 41.706,72.506C41.819,72.488 41.935,72.464 42.046,72.441C42.07,72.45 42.089,72.464 42.098,72.488L42.375,73.16C42.379,73.17 42.388,73.184 42.413,73.174C42.472,73.16 42.538,73.146 42.617,73.123L42.627,73.123C42.701,73.1 42.767,73.082 42.828,73.063C42.851,73.058 42.851,73.045 42.851,73.03L42.754,72.316C42.747,72.287 42.758,72.264 42.771,72.245C42.884,72.213 42.991,72.175 43.098,72.133C43.127,72.138 43.145,72.151 43.159,72.18L43.519,72.801C43.529,72.814 43.538,72.825 43.562,72.814C43.617,72.796 43.682,72.769 43.758,72.74L43.758,72.736L43.763,72.736C43.837,72.703 43.902,72.675 43.958,72.651C43.982,72.642 43.978,72.628 43.978,72.614L43.786,71.918C43.781,71.89 43.781,71.867 43.8,71.844C43.902,71.796 44.001,71.745 44.103,71.694C44.131,71.694 44.155,71.704 44.17,71.732L44.613,72.305C44.617,72.316 44.632,72.325 44.65,72.316C44.706,72.283 44.767,72.25 44.837,72.213L44.837,72.208L44.843,72.208C44.911,72.165 44.972,72.133 45.025,72.1C45.048,72.087 45.042,72.072 45.038,72.059L44.763,71.391C44.748,71.362 44.748,71.334 44.763,71.311C44.855,71.25 44.949,71.19 45.038,71.124C45.066,71.12 45.095,71.13 45.114,71.152L45.627,71.666C45.636,71.675 45.646,71.685 45.669,71.671C45.72,71.633 45.776,71.591 45.837,71.544L45.837,71.54L45.842,71.54C45.842,71.54 45.842,71.536 45.846,71.536C45.907,71.488 45.962,71.446 46.01,71.409C46.029,71.391 46.025,71.376 46.02,71.367L45.655,70.737C45.636,70.713 45.636,70.685 45.651,70.653C45.735,70.588 45.814,70.513 45.893,70.443C45.926,70.433 45.949,70.438 45.978,70.457L46.553,70.9C46.562,70.905 46.57,70.915 46.59,70.896C46.637,70.854 46.688,70.807 46.744,70.75L46.744,70.746L46.749,70.746L46.749,70.742C46.804,70.69 46.856,70.64 46.899,70.592C46.912,70.573 46.908,70.56 46.899,70.551L46.459,69.976C46.436,69.952 46.43,69.924 46.439,69.896C46.515,69.817 46.586,69.733 46.655,69.653C46.683,69.64 46.711,69.64 46.74,69.659L47.366,70.018C47.374,70.028 47.389,70.031 47.408,70.013C47.445,69.961 47.486,69.911 47.539,69.845L47.539,69.84L47.543,69.84C47.589,69.775 47.632,69.719 47.669,69.673C47.683,69.648 47.674,69.64 47.663,69.63L47.152,69.116C47.128,69.093 47.122,69.07 47.128,69.036C47.189,68.949 47.249,68.859 47.31,68.766C47.338,68.751 47.36,68.748 47.389,68.761L48.062,69.042C48.071,69.046 48.086,69.046 48.099,69.028C48.132,68.977 48.164,68.916 48.207,68.846L48.207,68.841L48.212,68.841L48.212,68.836C48.249,68.77 48.286,68.71 48.314,68.654C48.328,68.631 48.314,68.621 48.305,68.612L47.73,68.173C47.707,68.154 47.693,68.135 47.693,68.103C47.743,68.004 47.796,67.903 47.841,67.804C47.865,67.786 47.889,67.781 47.917,67.79L48.619,67.977C48.632,67.982 48.646,67.982 48.656,67.963C48.682,67.903 48.711,67.843 48.739,67.767L48.739,67.762L48.744,67.756C48.773,67.687 48.801,67.622 48.819,67.561C48.827,67.538 48.819,67.529 48.81,67.524L48.178,67.159C48.156,67.15 48.141,67.132 48.137,67.104C48.174,66.996 48.212,66.889 48.244,66.777C48.268,66.758 48.286,66.753 48.314,66.758L49.033,66.855C49.049,66.855 49.061,66.855 49.071,66.832C49.086,66.772 49.103,66.702 49.128,66.627L49.128,66.618C49.151,66.544 49.165,66.473 49.179,66.417C49.188,66.389 49.175,66.385 49.165,66.38L48.492,66.099C48.464,66.09 48.45,66.076 48.441,66.053C48.469,65.936 48.487,65.824 48.511,65.708C48.524,65.689 48.548,65.684 48.577,65.684L49.301,65.684C49.314,65.684 49.328,65.684 49.333,65.656C49.343,65.595 49.352,65.525 49.361,65.45L49.361,65.436C49.374,65.362 49.381,65.292 49.389,65.23C49.389,65.203 49.374,65.199 49.365,65.193L48.665,65.006C48.638,65.002 48.619,64.988 48.609,64.966C48.619,64.848 48.623,64.735 48.627,64.62C48.646,64.596 48.665,64.587 48.693,64.582L49.412,64.489C49.422,64.489 49.436,64.484 49.442,64.46L49.442,64.026C49.436,64.003 49.422,63.999 49.412,63.999ZM40.239,71.774C36.089,71.774 32.71,68.392 32.71,64.245C32.71,60.095 36.089,56.713 40.239,56.713C44.388,56.713 47.773,60.095 47.773,64.245C47.773,68.392 44.388,71.774 40.239,71.774Z" style="fill:rgb(182,37,55);"/>
        </g>
        <g transform="matrix(3.77614,0,0,3.77614,-74.9557,-164.083)">
            <path d="M39.779,68.874L39.77,68.87L39.75,68.863L39.769,68.853L39.778,68.848C39.83,68.824 39.864,68.766 39.864,68.705L39.864,68.507C39.864,68.423 39.788,68.35 39.701,68.35L38.618,68.35C38.533,68.35 38.462,68.421 38.462,68.507L38.462,68.705C38.462,68.766 38.496,68.823 38.548,68.848L38.557,68.853L38.577,68.863L38.556,68.87L38.547,68.874C38.488,68.895 38.449,68.955 38.449,69.022L38.449,69.251C38.449,69.338 38.513,69.408 38.593,69.408L39.733,69.408C39.814,69.408 39.878,69.338 39.878,69.251L39.878,69.022C39.878,68.955 39.837,68.895 39.779,68.874ZM38.779,68.596C38.779,68.563 38.809,68.536 38.847,68.536L39.485,68.536C39.522,68.536 39.552,68.563 39.552,68.596L39.552,68.726C39.552,68.759 39.522,68.787 39.485,68.787L38.847,68.787C38.809,68.787 38.779,68.759 38.779,68.726L38.779,68.596ZM39.563,69.162C39.563,69.195 39.533,69.223 39.496,69.223L38.835,69.223C38.798,69.223 38.769,69.195 38.769,69.162L38.769,69.03C38.769,68.995 38.798,68.967 38.835,68.967L39.496,68.967C39.533,68.967 39.563,68.995 39.563,69.03L39.563,69.162Z" style="fill:rgb(182,37,55);"/>
        </g>
        <g transform="matrix(3.77614,0,0,3.77614,-74.9557,-164.083)">
            <path d="M38.025,69.407L37.69,69.407L37.69,68.61C37.69,68.579 37.665,68.579 37.654,68.578C37.636,68.578 37.618,68.582 37.6,68.587L37.35,68.644L37.35,68.453L37.613,68.386C37.624,68.384 37.636,68.38 37.648,68.377C37.693,68.364 37.74,68.352 37.783,68.352L37.984,68.352C38.011,68.352 38.025,68.368 38.025,68.395L38.025,69.407Z" style="fill:rgb(182,37,55);"/>
        </g>
        <g transform="matrix(3.77614,0,0,3.77614,-74.9557,-164.083)">
            <path d="M30.104,58.987C30.215,59.15 30.077,59.415 29.976,59.549C29.865,59.692 29.562,59.599 29.42,59.543C29.238,59.472 29.092,59.359 29.2,59.174C29.207,59.162 29.246,59.066 29.25,59.009C29.262,58.867 29.279,58.679 29.464,58.8C29.532,58.835 29.325,59.182 29.336,59.224C29.349,59.269 29.382,59.271 29.428,59.285C29.622,59.179 29.449,58.82 29.739,58.887C29.839,58.987 29.697,59.179 29.783,59.241C29.869,59.302 29.881,59.002 30.04,58.968C30.055,58.964 30.098,58.98 30.104,58.987ZM30.057,57.72C30.017,57.749 29.879,57.865 29.875,57.752C29.865,57.588 29.999,57.466 30.07,57.331C30.144,57.188 30.248,57.066 30.423,57.132C30.546,57.178 30.68,57.291 30.779,57.377C30.868,57.456 30.895,57.626 30.897,57.74C30.904,57.911 30.831,58.261 30.587,58.179C30.515,57.983 30.754,57.931 30.631,57.766C30.478,57.753 30.536,57.905 30.383,57.892C30.228,57.795 30.43,57.604 30.332,57.49C30.252,57.493 30.203,57.546 30.171,57.615C30.137,57.683 30.115,57.681 30.057,57.72ZM31.714,58.2C31.774,58.188 31.957,58.197 31.988,58.243C32.144,58.432 31.957,58.599 31.935,58.778C31.858,59.036 31.733,59.117 31.891,59.382C31.996,59.56 31.877,59.898 31.642,59.873C31.562,59.809 31.635,59.637 31.581,59.592C31.285,59.55 31.288,60.099 30.876,59.933C30.868,59.93 30.85,59.909 30.848,59.901C30.808,59.733 30.947,59.704 30.98,59.596C30.926,59.511 30.795,59.523 30.745,59.433C30.712,59.092 30.891,58.788 31.046,58.52C31.119,58.395 31.227,58.299 31.38,58.368C31.581,58.459 31.429,58.743 31.515,58.88C31.765,58.876 31.619,58.382 31.685,58.226C31.689,58.219 31.703,58.203 31.714,58.2ZM31.002,59.184C30.907,59.044 31.076,58.875 31.114,58.737C31.13,58.715 31.139,58.684 31.179,58.682C31.218,58.679 31.186,58.678 31.256,58.72C31.327,58.762 31.097,59.324 31.002,59.184ZM31.368,59.284C31.368,59.284 31.368,59.285 31.366,59.285C31.352,59.486 31.173,59.495 31.152,59.43C31.137,59.384 31.241,59.155 31.343,59.215C31.352,59.22 31.37,59.251 31.369,59.261C31.369,59.265 31.369,59.27 31.368,59.276L31.368,59.284ZM32.159,57.5C32.014,57.506 31.512,57.579 31.404,57.637C31.15,57.776 31.048,57.911 30.89,58.15C30.824,58.245 30.755,58.378 30.643,58.278C30.561,58.204 30.481,58.317 30.387,58.289C30.284,58.259 30.286,58.166 30.246,58.088C30.189,57.976 30.055,58.098 29.978,58.112C29.918,58.07 29.957,57.899 29.898,57.857C29.702,57.854 29.657,57.977 29.702,58.138C29.749,58.307 29.591,58.405 29.603,58.567C29.656,58.62 29.738,58.603 29.794,58.567C29.869,58.6 29.897,58.685 29.921,58.755C29.96,58.872 30.012,58.809 30.104,58.805C30.576,58.785 30.247,59.367 30.185,59.594C30.151,59.717 30.105,59.895 30.173,60.013C30.214,60.087 30.329,60.311 30.352,60.36C30.46,60.543 30.989,60.8 30.804,60.4C30.684,60.14 30.443,59.982 30.489,59.67C30.543,59.304 30.611,59.035 30.762,58.698C30.888,58.421 31.148,58.19 31.381,58.008C31.496,57.918 31.615,57.843 31.766,57.841C31.918,57.839 32.08,57.893 32.225,57.83C32.292,57.738 32.229,57.57 32.159,57.5ZM30.416,58.729C30.333,58.638 30.502,58.376 30.584,58.54C30.596,58.65 30.491,58.756 30.416,58.729Z" style="fill:rgb(182,37,55);"/>
        </g>
        <g transform="matrix(3.77614,0,0,3.77614,-74.9557,-164.083)">
            <path d="M45.603,53.449C45.231,53.238 44.849,53.077 44.427,53.002C44.22,52.966 44.021,53.414 44.229,53.534C44.31,53.581 44.634,53.568 44.622,53.705C44.607,53.792 44.29,53.629 44.041,53.768C44.025,53.776 44.015,53.783 44.008,53.79C43.932,53.84 43.87,53.931 43.801,53.994C43.73,54.06 43.627,54.208 43.515,54.189C43.426,54.174 43.27,54.027 43.28,54.007C43.323,53.927 43.437,53.977 43.507,53.886C43.637,53.719 43.609,53.524 43.683,53.34C43.762,53.142 44.081,53.198 44.085,52.914C44.087,52.798 43.978,52.732 43.899,52.655L43.8,52.585C43.754,52.556 43.56,52.559 43.59,52.703C43.606,52.773 43.732,52.968 43.605,52.999C43.432,53.042 43.191,52.965 43.024,52.922C42.995,52.915 42.785,52.841 42.754,52.845C42.727,52.85 42.705,52.857 42.691,52.871C42.622,52.941 42.627,53.065 42.686,53.134C42.686,53.136 42.686,53.136 42.688,53.137C42.69,53.14 42.701,53.148 42.705,53.151C42.743,53.16 42.879,53.168 42.883,53.168C42.961,53.167 43.099,53.199 43.2,53.243C43.309,53.294 43.369,53.332 43.25,53.37C43.247,53.37 43.247,53.371 43.245,53.371L43.242,53.371C43.07,53.43 42.761,53.278 42.59,53.365C42.584,53.368 42.573,53.377 42.571,53.381C42.556,53.407 42.507,53.504 42.563,53.533C42.615,53.561 42.688,53.577 42.729,53.581C42.765,53.584 42.982,53.58 43.084,53.577C43.114,53.575 43.153,53.564 43.163,53.56C43.182,53.552 43.201,53.545 43.224,53.542C43.296,53.531 43.358,53.545 43.325,53.635C43.281,53.746 42.879,53.857 42.774,53.831C42.667,53.805 42.548,53.946 42.545,53.968C42.526,54.066 42.535,54.174 42.489,54.277C42.429,54.417 42.304,54.608 42.37,54.763C42.389,54.815 42.703,54.83 43.062,54.879C43.089,54.882 43.111,54.887 43.136,54.89C43.363,54.924 43.603,54.975 43.793,55.056C43.867,55.088 43.927,55.113 43.978,55.132C44.24,55.265 44.51,55.432 44.553,55.481C44.76,55.722 45.081,56.118 45.206,55.949C45.196,55.78 45.1,55.657 45.027,55.512C44.997,55.45 45.08,55.424 45.113,55.382C45.234,55.226 45.265,54.988 45.304,54.801C45.339,54.644 45.361,54.485 45.401,54.33C45.45,54.152 45.207,54.031 45.048,53.985C45.027,53.979 44.989,53.94 44.993,53.928C45.024,53.8 45.255,53.903 45.398,53.994C45.455,54.03 45.598,54.022 45.627,53.972C45.672,53.894 45.701,53.797 45.741,53.736C45.836,53.587 45.723,53.517 45.603,53.449ZM42.723,54.601C42.829,54.646 43.168,54.224 42.974,54.092C42.777,53.958 42.62,54.556 42.723,54.601ZM43.231,54.416C43.267,54.382 43.331,54.337 43.443,54.431C43.448,54.435 43.463,54.462 43.464,54.469C43.509,54.803 42.992,54.655 43.231,54.416ZM44.266,53.985C44.302,53.887 44.453,53.941 44.473,54.027C44.475,54.034 44.461,54.051 44.454,54.051C44.388,54.064 44.331,54.066 44.269,54.009C44.266,54.008 44.264,53.99 44.266,53.985ZM43.853,54.881C43.955,54.946 44.184,54.882 44.183,54.738C44.182,54.494 43.802,54.468 43.696,54.647C43.671,54.701 43.749,54.815 43.853,54.881ZM44.203,54.422C44.154,54.4 43.979,54.307 44.001,54.233C44.021,54.176 44.119,54.14 44.312,54.27C44.32,54.274 44.334,54.31 44.333,54.323C44.324,54.4 44.31,54.47 44.203,54.422ZM44.803,55.235C44.888,55.122 44.887,54.997 44.776,54.905C44.767,54.897 44.758,54.891 44.748,54.885C44.701,54.852 44.652,54.836 44.606,54.811C44.578,54.796 44.548,54.786 44.51,54.792C44.405,54.804 44.32,54.871 44.322,54.982C44.326,55.177 44.59,55.266 44.76,55.259C44.769,55.259 44.797,55.243 44.803,55.235ZM45.045,54.719C45.004,54.837 44.688,54.628 44.694,54.481C44.694,54.475 44.703,54.462 44.706,54.461C44.803,54.448 45.087,54.6 45.045,54.719ZM44.748,54.164C44.78,53.973 45.024,54.178 44.965,54.306C44.962,54.312 44.942,54.322 44.936,54.321C44.903,54.31 44.88,54.289 44.856,54.266C44.825,54.233 44.745,54.171 44.748,54.164ZM45.202,53.74C45.197,53.738 45.18,53.722 45.175,53.717C45.045,53.566 44.774,53.462 44.576,53.449C44.565,53.448 44.545,53.444 44.532,53.438C44.532,53.438 44.52,53.43 44.52,53.429C44.478,53.383 44.414,53.205 44.561,53.252C44.72,53.302 44.72,53.314 44.838,53.356C44.945,53.394 45.12,53.45 45.215,53.496C45.219,53.497 45.222,53.499 45.225,53.5C45.232,53.504 45.239,53.507 45.244,53.51L45.242,53.51C45.259,53.521 45.275,53.531 45.29,53.545C45.415,53.66 45.371,53.784 45.202,53.74Z" style="fill:rgb(182,37,55);"/>
        </g>
        <g transform="matrix(3.77614,0,0,3.77614,-74.9557,-164.083)">
            <path d="M50.921,59.924C50.907,59.867 50.865,59.712 50.859,59.611C50.854,59.347 50.791,59.117 50.755,58.857C50.74,58.743 50.678,58.322 50.875,58.325C50.887,58.325 50.924,58.282 50.924,58.268C50.942,58.06 50.808,57.979 50.622,58.054C50.52,58.096 50.461,58.11 50.364,58.046C50.343,58.031 50.143,57.919 49.961,57.797C49.844,57.721 49.49,57.451 49.49,57.451C49.332,57.355 49.17,57.111 49.075,57.389C49.199,57.637 49.477,57.726 49.667,57.898C49.76,57.981 49.824,58.16 49.634,58.096C49.447,58.029 49.234,57.8 49.12,57.734C49.013,57.673 48.765,57.649 48.85,57.845C48.901,57.961 48.994,58.063 49.109,58.117C49.173,58.147 49.398,58.22 49.412,58.271C49.446,58.343 49.431,58.522 49.38,58.585C49.296,58.688 49.072,58.524 48.965,58.44C48.958,58.435 48.912,58.405 48.847,58.367C48.778,58.324 48.623,58.252 48.519,58.204C48.466,58.181 48.357,58.142 48.325,58.132C48.21,58.099 47.851,58.009 47.921,58.265C47.923,58.268 47.932,58.282 47.944,58.291C47.979,58.316 48.067,58.373 48.167,58.427C48.261,58.479 48.693,58.613 48.852,58.698C49.002,58.778 49.175,58.819 49.301,58.938C49.356,58.989 49.374,59.032 49.385,59.079C49.396,59.125 49.452,59.403 49.452,59.502C49.452,59.755 49.387,60.053 49.328,60.245C49.267,60.442 49.092,60.769 49.412,60.78C49.73,60.792 49.718,59.745 49.736,59.515C49.742,59.445 49.767,59.129 49.904,59.245C50.135,59.439 50.075,59.752 50.103,60.01C50.111,60.083 50.176,60.104 50.24,60.124C50.26,60.13 50.344,60.126 50.354,60.111C50.406,60.027 50.414,59.92 50.408,59.824C50.399,59.655 50.319,59.42 50.386,59.252C50.433,59.156 50.504,59.123 50.539,59.241C50.54,59.246 50.541,59.25 50.542,59.254C50.551,59.289 50.567,59.4 50.567,59.423C50.563,59.612 50.634,60.114 50.644,60.126C50.718,60.225 50.855,60.279 50.951,60.148C50.985,60.109 50.933,59.982 50.921,59.924ZM50.509,58.614C50.497,58.819 50.281,58.955 50.111,59.051C49.945,59.143 49.724,58.925 49.686,58.785C49.667,58.718 49.649,58.506 49.71,58.457C49.78,58.402 49.881,58.446 49.951,58.387C49.957,58.382 49.964,58.351 49.963,58.343C49.939,58.142 50.245,58.268 50.403,58.395C50.452,58.432 50.512,58.577 50.509,58.614Z" style="fill:rgb(182,37,55);"/>
        </g>
        <g transform="matrix(3.77614,0,0,3.77614,-74.9557,-164.083)">
            <path d="M41.568,68.35L40.427,68.35C40.346,68.35 40.282,68.421 40.282,68.507L40.282,68.841C40.282,68.927 40.346,68.997 40.427,68.997L40.875,68.997L41.323,68.997C41.359,68.997 41.391,69.025 41.391,69.058L41.391,69.163C41.391,69.195 41.361,69.223 41.323,69.223L40.669,69.223C40.644,69.223 40.622,69.209 40.61,69.189L40.282,69.189L40.282,69.252C40.282,69.338 40.346,69.408 40.427,69.408L41.568,69.408C41.647,69.408 41.711,69.338 41.711,69.251L41.711,68.507C41.711,68.421 41.647,68.35 41.568,68.35ZM41.391,68.745C41.391,68.779 41.361,68.807 41.323,68.807L40.671,68.807C40.634,68.807 40.603,68.779 40.603,68.745L40.603,68.596C40.603,68.563 40.634,68.536 40.671,68.536L41.323,68.536C41.359,68.536 41.391,68.564 41.391,68.596L41.391,68.745Z" style="fill:rgb(182,37,55);"/>
        </g>
        <g transform="matrix(3.77614,0,0,3.77614,-74.9557,-164.083)">
            <path d="M42.26,69.408L43.401,69.408C43.48,69.408 43.544,69.338 43.544,69.251L43.544,68.918C43.544,68.832 43.48,68.761 43.401,68.761L42.504,68.761C42.467,68.761 42.437,68.734 42.437,68.701L42.437,68.596C42.437,68.563 42.466,68.536 42.504,68.536L43.156,68.536C43.182,68.536 43.206,68.549 43.217,68.569L43.544,68.569L43.544,68.507C43.544,68.421 43.48,68.35 43.401,68.35L42.26,68.35C42.18,68.35 42.115,68.421 42.115,68.507L42.115,69.251C42.115,69.338 42.18,69.408 42.26,69.408ZM42.437,69.013C42.437,68.98 42.466,68.952 42.504,68.952L43.156,68.952C43.192,68.952 43.224,68.98 43.224,69.013L43.224,69.163C43.224,69.197 43.192,69.223 43.156,69.223L42.504,69.222C42.467,69.222 42.437,69.195 42.437,69.162L42.437,69.013Z" style="fill:rgb(182,37,55);"/>
        </g>
        <g transform="matrix(3.77614,0,0,3.77614,-74.9557,-164.083)">
            <path d="M28.632,64.713C28.628,64.633 28.635,64.448 28.638,64.321C28.714,64.331 28.805,64.337 28.897,64.34L28.897,64.351C28.815,64.45 28.764,64.585 28.769,64.731C28.776,64.86 28.843,64.94 28.954,64.935C29.034,64.93 29.081,64.896 29.134,64.82C29.214,64.707 29.26,64.575 29.353,64.454C29.458,64.318 29.563,64.285 29.691,64.279C29.817,64.273 30.064,64.332 30.087,64.805C30.09,64.893 30.093,65.032 30.087,65.151C30.02,65.136 29.924,65.119 29.835,65.109L29.835,65.097C29.903,65.035 29.956,64.961 29.95,64.796C29.942,64.639 29.852,64.566 29.761,64.569C29.648,64.574 29.586,64.594 29.453,64.864C29.287,65.205 29.183,65.218 29.05,65.225C28.891,65.232 28.653,65.155 28.632,64.713Z" style="fill:rgb(182,37,55);"/>
        </g>
        <g transform="matrix(3.77614,0,0,3.77614,-74.9557,-164.083)">
            <path d="M29.58,66.582C29.417,66.608 29.044,66.677 28.889,66.734C28.881,66.649 28.876,66.62 28.866,66.558C28.859,66.511 28.851,66.466 28.827,66.363C29.026,66.348 29.322,66.308 29.474,66.282C29.462,66.178 29.456,66.128 29.443,66.049C29.43,65.971 29.414,65.895 29.397,65.809C29.167,65.849 28.967,65.884 28.758,65.945C28.751,65.864 28.74,65.803 28.735,65.768C28.726,65.719 28.72,65.677 28.694,65.576C28.892,65.565 29.238,65.516 29.394,65.49C29.547,65.465 30.045,65.395 30.092,65.316L30.1,65.315C30.109,65.4 30.118,65.454 30.127,65.516C30.137,65.579 30.149,65.642 30.165,65.707C30.023,65.704 29.82,65.738 29.556,65.781C29.569,65.895 29.575,65.94 29.589,66.02C29.603,66.098 29.609,66.136 29.634,66.255C29.952,66.2 30.099,66.18 30.224,66.1L30.232,66.102C30.236,66.172 30.244,66.222 30.257,66.303C30.268,66.364 30.285,66.446 30.296,66.496C30.109,66.503 29.771,66.552 29.58,66.582Z" style="fill:rgb(182,37,55);"/>
        </g>
        <g transform="matrix(3.77614,0,0,3.77614,-74.9557,-164.083)">
            <path d="M29.275,68.047C29.255,67.982 29.237,67.925 29.209,67.857C29.354,67.806 29.562,67.677 29.659,67.615C29.644,67.548 29.627,67.484 29.608,67.422C29.589,67.362 29.563,67.295 29.547,67.249C29.428,67.249 29.173,67.262 29.047,67.324C29.026,67.252 29.02,67.216 29.004,67.164C28.986,67.107 28.969,67.057 28.947,66.999C29.034,67.019 29.191,67.037 29.257,67.042C29.394,67.053 29.589,67.065 29.74,67.072C29.876,67.079 30.096,67.085 30.266,67.087C30.315,67.088 30.396,67.091 30.439,67.06L30.451,67.058C30.473,67.125 30.489,67.177 30.505,67.218C30.526,67.28 30.549,67.338 30.575,67.399C30.534,67.418 30.459,67.462 30.395,67.503C30.264,67.584 30.106,67.689 29.985,67.77C29.782,67.906 29.667,67.985 29.566,68.06C29.524,68.092 29.42,68.172 29.333,68.261C29.311,68.171 29.295,68.108 29.275,68.047ZM30.206,67.256L30.203,67.247C30.02,67.241 29.861,67.241 29.694,67.244C29.705,67.298 29.716,67.338 29.731,67.387C29.753,67.458 29.764,67.485 29.783,67.536C29.923,67.448 30.071,67.35 30.206,67.256Z" style="fill:rgb(182,37,55);"/>
        </g>
        <g transform="matrix(3.77614,0,0,3.77614,-74.9557,-164.083)">
            <path d="M30.505,69.214C30.417,69.253 30.05,69.416 29.895,69.504C29.859,69.419 29.817,69.34 29.771,69.271C29.883,69.101 30.1,68.799 30.197,68.666L30.49,68.265L30.487,68.259L30.114,68.429C30.043,68.462 29.669,68.658 29.547,68.753C29.528,68.704 29.512,68.662 29.493,68.616C29.471,68.572 29.446,68.522 29.422,68.482C29.631,68.444 30.134,68.221 30.232,68.176C30.306,68.142 30.616,68.011 30.717,67.903L30.728,67.899C30.749,67.957 30.776,68.023 30.805,68.087C30.836,68.154 30.866,68.215 30.894,68.265C30.82,68.348 30.658,68.544 30.58,68.654C30.429,68.871 30.332,69.003 30.248,69.124L30.25,69.13L30.5,69.016C30.643,68.951 31.012,68.758 31.082,68.68C31.095,68.718 31.119,68.777 31.14,68.822C31.169,68.882 31.171,68.888 31.206,68.95C31.023,68.992 30.606,69.166 30.505,69.214Z" style="fill:rgb(182,37,55);"/>
        </g>
        <g transform="matrix(3.77614,0,0,3.77614,-74.9557,-164.083)">
            <path d="M30.989,70.689C30.94,70.716 30.841,70.773 30.746,70.846C30.606,70.695 30.527,70.591 30.427,70.433C30.184,70.047 30.23,69.747 30.679,69.464C30.954,69.289 31.351,69.184 31.684,69.711C31.775,69.856 31.872,70.029 31.918,70.116C31.82,70.141 31.743,70.172 31.651,70.214L31.642,70.2C31.679,70.083 31.658,69.925 31.559,69.767C31.404,69.523 31.148,69.561 30.858,69.744C30.453,70 30.451,70.191 30.593,70.417C30.658,70.52 30.721,70.495 30.777,70.461L30.903,70.38C30.962,70.342 31.034,70.297 31.081,70.207L31.092,70.203C31.121,70.258 31.157,70.319 31.192,70.374C31.236,70.444 31.249,70.465 31.296,70.528C31.226,70.554 31.082,70.631 30.989,70.689Z" style="fill:rgb(182,37,55);"/>
        </g>
        <g transform="matrix(3.77614,0,0,3.77614,-74.9557,-164.083)">
            <path d="M32.232,71.61C32.104,71.716 31.818,71.966 31.715,72.095C31.665,72.025 31.645,72.002 31.605,71.955C31.573,71.918 31.545,71.884 31.471,71.807C31.635,71.693 31.869,71.506 31.987,71.406C31.923,71.323 31.893,71.284 31.841,71.223C31.79,71.161 31.738,71.105 31.677,71.039C31.5,71.192 31.348,71.325 31.197,71.484C31.151,71.418 31.111,71.371 31.088,71.344C31.056,71.305 31.028,71.273 30.957,71.197C31.12,71.089 31.393,70.868 31.515,70.766C31.631,70.668 32.025,70.352 32.023,70.261L32.03,70.255C32.083,70.324 32.116,70.367 32.156,70.415C32.198,70.464 32.241,70.512 32.286,70.56C32.163,70.629 32.006,70.762 31.801,70.935C31.869,71.025 31.9,71.06 31.952,71.122C32.004,71.184 32.028,71.212 32.11,71.301C32.356,71.092 32.471,71.001 32.539,70.868L32.545,70.864C32.586,70.922 32.619,70.962 32.672,71.024C32.711,71.072 32.766,71.133 32.804,71.171C32.646,71.271 32.382,71.487 32.232,71.61Z" style="fill:rgb(182,37,55);"/>
        </g>
        <g transform="matrix(3.77614,0,0,3.77614,-74.9557,-164.083)">
            <path d="M32.717,73.026C32.666,72.981 32.623,72.941 32.563,72.896C32.663,72.777 32.776,72.562 32.827,72.458C32.78,72.409 32.732,72.363 32.684,72.32C32.637,72.276 32.582,72.232 32.545,72.201C32.441,72.261 32.229,72.404 32.151,72.522C32.099,72.47 32.075,72.443 32.033,72.406C31.989,72.366 31.948,72.331 31.9,72.293C31.985,72.265 32.13,72.2 32.189,72.172C32.314,72.111 32.486,72.023 32.62,71.951C32.742,71.886 32.932,71.781 33.08,71.694C33.123,71.67 33.194,71.633 33.215,71.585L33.224,71.575C33.276,71.622 33.32,71.658 33.352,71.687C33.403,71.728 33.451,71.766 33.504,71.807C33.479,71.843 33.437,71.92 33.403,71.987C33.332,72.123 33.249,72.294 33.185,72.426C33.081,72.646 33.023,72.773 32.974,72.888C32.955,72.938 32.905,73.061 32.877,73.18C32.811,73.115 32.765,73.07 32.717,73.026ZM33.114,71.871L33.107,71.863C32.948,71.952 32.81,72.033 32.668,72.122C32.706,72.162 32.734,72.192 32.773,72.226C32.826,72.275 32.851,72.294 32.893,72.328C32.971,72.181 33.047,72.02 33.114,71.871Z" style="fill:rgb(182,37,55);"/>
        </g>
        <g transform="matrix(3.77614,0,0,3.77614,-74.9557,-164.083)">
            <path d="M33.246,73.439C33.194,73.399 33.157,73.374 33.08,73.321C33.252,73.146 33.434,72.906 33.533,72.772C33.675,72.582 33.88,72.325 33.911,72.169L33.915,72.163C33.967,72.208 34.012,72.245 34.063,72.283C34.114,72.321 34.173,72.361 34.236,72.404C34.103,72.533 33.866,72.852 33.817,72.917C33.737,73.024 33.509,73.325 33.387,73.553C33.313,73.492 33.277,73.462 33.246,73.439Z" style="fill:rgb(182,37,55);"/>
        </g>
        <g transform="matrix(3.77614,0,0,3.77614,-74.9557,-164.083)">
            <path d="M34.904,73.659C34.807,73.828 34.698,74.021 34.657,74.09C34.537,74.298 34.347,74.387 33.891,74.186L33.935,74.059C34.121,74.14 34.231,74.141 34.357,73.96C34.403,73.894 34.507,73.721 34.582,73.59C34.714,73.362 34.93,73.028 34.932,72.874L34.937,72.865C35.002,72.907 35.059,72.944 35.112,72.973C35.166,73.004 35.218,73.033 35.285,73.065C35.146,73.224 34.984,73.522 34.904,73.659Z" style="fill:rgb(182,37,55);"/>
        </g>
        <g transform="matrix(3.77614,0,0,3.77614,-74.9557,-164.083)">
            <path d="M35.255,74.655C35.169,74.608 35.13,74.586 35.094,74.569C35.034,74.539 34.994,74.521 34.909,74.485C35.045,74.279 35.18,74.01 35.254,73.861C35.358,73.647 35.512,73.356 35.514,73.198L35.516,73.191C35.575,73.225 35.625,73.252 35.683,73.281C35.741,73.31 35.805,73.337 35.876,73.369C35.768,73.52 35.594,73.878 35.559,73.949C35.5,74.069 35.332,74.408 35.255,74.655Z" style="fill:rgb(182,37,55);"/>
        </g>
        <g transform="matrix(3.77614,0,0,3.77614,-74.9557,-164.083)">
            <path d="M36.499,75.153C36.436,75.128 36.379,75.108 36.31,75.088C36.358,74.942 36.383,74.699 36.394,74.583C36.33,74.556 36.269,74.531 36.211,74.507C36.15,74.485 36.082,74.463 36.036,74.449C35.962,74.542 35.817,74.752 35.788,74.89C35.718,74.862 35.687,74.844 35.635,74.825C35.58,74.805 35.529,74.787 35.47,74.769C35.539,74.713 35.65,74.599 35.694,74.551C35.788,74.449 35.917,74.304 36.014,74.188C36.103,74.084 36.244,73.914 36.349,73.78C36.379,73.742 36.431,73.681 36.433,73.629L36.439,73.617C36.505,73.641 36.557,73.659 36.599,73.673C36.66,73.694 36.719,73.712 36.783,73.73C36.775,73.773 36.763,73.859 36.756,73.935C36.742,74.087 36.724,74.277 36.715,74.421C36.699,74.665 36.691,74.805 36.689,74.93C36.686,74.983 36.686,75.116 36.705,75.237C36.619,75.201 36.56,75.175 36.499,75.153ZM36.444,73.931L36.436,73.929C36.319,74.069 36.222,74.195 36.122,74.33C36.17,74.353 36.211,74.369 36.257,74.388C36.326,74.413 36.355,74.422 36.407,74.438C36.425,74.273 36.437,74.096 36.444,73.931Z" style="fill:rgb(182,37,55);"/>
        </g>
        <g transform="matrix(3.77614,0,0,3.77614,-74.9557,-164.083)">
            <path d="M38.371,74.909C38.297,75.23 38.115,75.594 37.541,75.459C37.193,75.377 36.903,75.203 37.041,74.615C37.122,74.272 37.302,73.914 37.875,74.049C38.366,74.165 38.478,74.457 38.371,74.909ZM37.368,74.694C37.292,75.017 37.328,75.261 37.573,75.32C37.863,75.386 37.979,75.116 38.044,74.837C38.105,74.575 38.129,74.257 37.85,74.19C37.567,74.125 37.441,74.388 37.368,74.694Z" style="fill:rgb(182,37,55);"/>
        </g>
        <g transform="matrix(3.77614,0,0,3.77614,-74.9557,-164.083)">
            <path d="M40.176,74.537L40.164,74.536C40.116,74.51 39.968,74.472 39.783,74.462C39.782,74.507 39.759,74.792 39.742,75.095C39.726,75.394 39.738,75.7 39.747,75.749C39.658,75.74 39.635,75.737 39.558,75.732C39.49,75.728 39.442,75.726 39.36,75.728C39.401,75.545 39.426,75.153 39.435,75.01C39.443,74.86 39.454,74.585 39.46,74.445C39.305,74.436 39.107,74.441 39.046,74.474L39.032,74.473C39.049,74.413 39.067,74.328 39.072,74.273C39.274,74.297 39.443,74.309 39.632,74.319C39.834,74.33 40.03,74.341 40.232,74.337C40.21,74.384 40.191,74.466 40.176,74.537Z" style="fill:rgb(182,37,55);"/>
        </g>
        <g transform="matrix(3.77614,0,0,3.77614,-74.9557,-164.083)">
            <path d="M41.6,74.974C41.622,75.303 41.555,75.703 40.965,75.742C40.608,75.766 40.281,75.683 40.242,75.079C40.22,74.73 40.286,74.334 40.873,74.296C41.376,74.264 41.57,74.51 41.6,74.974ZM40.576,75.061C40.599,75.392 40.705,75.615 40.956,75.6C41.251,75.579 41.283,75.286 41.264,75.001C41.247,74.732 41.178,74.419 40.891,74.438C40.601,74.457 40.557,74.747 40.576,75.061Z" style="fill:rgb(182,37,55);"/>
        </g>
        <g transform="matrix(3.77614,0,0,3.77614,-74.9557,-164.083)">
            <path d="M42.945,74.746C42.964,74.841 43.04,75.234 43.09,75.403C42.999,75.42 42.914,75.444 42.835,75.473C42.695,75.326 42.45,75.047 42.343,74.922L42.017,74.546L42.012,74.547L42.094,74.95C42.109,75.026 42.217,75.436 42.281,75.575C42.228,75.581 42.185,75.588 42.135,75.598C42.088,75.608 42.033,75.621 41.989,75.635C41.998,75.424 41.895,74.882 41.874,74.777C41.856,74.697 41.799,74.367 41.718,74.243L41.715,74.233C41.777,74.225 41.846,74.213 41.916,74.199C41.987,74.185 42.055,74.168 42.109,74.153C42.172,74.243 42.327,74.446 42.418,74.546C42.594,74.742 42.701,74.867 42.8,74.976L42.807,74.974L42.753,74.706C42.72,74.551 42.616,74.149 42.557,74.062C42.596,74.058 42.659,74.048 42.706,74.039C42.772,74.025 42.779,74.024 42.846,74.002C42.846,74.189 42.923,74.638 42.945,74.746Z" style="fill:rgb(182,37,55);"/>
        </g>
        <g transform="matrix(3.77614,0,0,3.77614,-74.9557,-164.083)">
            <path d="M44.49,74.612C44.507,74.666 44.54,74.776 44.59,74.885C44.409,74.987 44.292,75.039 44.114,75.1C43.683,75.249 43.401,75.135 43.228,74.634C43.121,74.325 43.111,73.914 43.699,73.71C43.861,73.656 44.053,73.6 44.148,73.576C44.149,73.678 44.161,73.76 44.182,73.859L44.167,73.863C44.061,73.802 43.902,73.785 43.726,73.846C43.452,73.942 43.431,74.198 43.544,74.523C43.699,74.976 43.884,75.021 44.137,74.935C44.251,74.895 44.243,74.829 44.222,74.767L44.171,74.624C44.149,74.559 44.122,74.479 44.045,74.411L44.044,74.401C44.104,74.385 44.169,74.363 44.232,74.343C44.311,74.316 44.334,74.308 44.405,74.276C44.414,74.35 44.458,74.508 44.49,74.612Z" style="fill:rgb(182,37,55);"/>
        </g>
        <g transform="matrix(3.77614,0,0,3.77614,-74.9557,-164.083)">
            <path d="M46.037,73.089C46.113,73.231 46.203,73.4 46.283,73.541C46.414,73.772 46.414,74.004 46.031,74.224C45.627,74.454 45.449,74.354 45.302,74.099C45.265,74.033 45.168,73.855 45.101,73.736C45.052,73.652 44.893,73.35 44.783,73.287L44.78,73.282C44.832,73.256 44.896,73.223 44.954,73.19C45.011,73.157 45.057,73.129 45.129,73.082C45.184,73.259 45.375,73.587 45.424,73.673C45.545,73.886 45.627,74.025 45.68,74.072C45.753,74.14 45.87,74.15 45.981,74.087C46.244,73.937 46.173,73.772 46.013,73.493C45.791,73.104 45.714,72.954 45.569,72.831C45.611,72.811 45.65,72.792 45.715,72.754C45.776,72.72 45.807,72.699 45.851,72.669C45.904,72.85 45.991,73.004 46.037,73.089Z" style="fill:rgb(182,37,55);"/>
        </g>
        <g transform="matrix(3.77614,0,0,3.77614,-74.9557,-164.083)">
            <path d="M47.323,72.495C47.381,72.57 47.622,72.891 47.741,73.023C47.666,73.077 47.599,73.136 47.543,73.195C47.352,73.124 47.008,72.981 46.858,72.916L46.401,72.72L46.396,72.723L46.647,73.05C46.693,73.111 46.969,73.433 47.089,73.53C47.044,73.559 47.007,73.583 46.966,73.615C46.929,73.644 46.886,73.679 46.85,73.711C46.768,73.518 46.437,73.077 46.373,72.991C46.323,72.926 46.126,72.655 45.998,72.579L45.991,72.571C46.044,72.537 46.102,72.496 46.158,72.452C46.215,72.408 46.268,72.365 46.311,72.327C46.408,72.38 46.635,72.495 46.76,72.546C47.006,72.644 47.156,72.709 47.293,72.764L47.297,72.76L47.131,72.543C47.036,72.417 46.766,72.1 46.673,72.05C46.706,72.028 46.76,71.992 46.799,71.962C46.85,71.922 46.856,71.918 46.909,71.868C46.99,72.038 47.256,72.406 47.323,72.495Z" style="fill:rgb(182,37,55);"/>
        </g>
        <g transform="matrix(3.77614,0,0,3.77614,-74.9557,-164.083)">
            <path d="M48.193,72.606C48.145,72.651 48.115,72.683 48.049,72.75C47.906,72.549 47.701,72.328 47.587,72.207C47.425,72.033 47.207,71.787 47.058,71.73L47.055,71.725C47.107,71.681 47.15,71.643 47.197,71.599C47.244,71.555 47.293,71.504 47.349,71.45C47.451,71.605 47.725,71.894 47.78,71.952C47.87,72.049 48.128,72.327 48.331,72.487C48.257,72.551 48.222,72.579 48.193,72.606Z" style="fill:rgb(182,37,55);"/>
        </g>
        <g transform="matrix(3.77614,0,0,3.77614,-74.9557,-164.083)">
            <path d="M48.395,70.697C48.462,70.815 48.568,70.994 48.658,71.151C48.749,71.31 48.929,71.624 49.01,71.758C48.955,71.816 48.902,71.884 48.857,71.954C48.632,71.849 48.403,71.748 48.166,71.646C47.983,71.569 47.806,71.493 47.683,71.445C47.608,71.415 47.503,71.382 47.451,71.382L47.445,71.377C47.493,71.334 47.543,71.28 47.589,71.224C47.638,71.168 47.686,71.113 47.727,71.06C47.772,71.1 47.851,71.146 47.907,71.178C47.998,71.231 48.162,71.306 48.341,71.384C48.472,71.443 48.565,71.487 48.677,71.53L48.682,71.523C48.627,71.423 48.509,71.231 48.449,71.14C48.301,70.917 48.185,70.752 48.067,70.678C48.108,70.64 48.139,70.607 48.177,70.565C48.215,70.522 48.244,70.49 48.28,70.441C48.311,70.535 48.357,70.626 48.395,70.697Z" style="fill:rgb(182,37,55);"/>
        </g>
        <g transform="matrix(3.77614,0,0,3.77614,-74.9557,-164.083)">
            <path d="M50.03,70.426C49.9,70.595 49.826,70.705 49.744,70.82C49.658,70.944 49.632,70.98 49.498,71.18C49.336,71.028 49.167,70.906 48.943,70.747C48.71,70.583 48.426,70.368 48.326,70.376L48.32,70.372C48.413,70.251 48.531,70.084 48.597,69.991C48.651,69.915 48.742,69.782 48.86,69.609C48.886,69.651 48.958,69.717 49.001,69.748L48.996,69.756C48.901,69.824 48.781,69.969 48.654,70.147C48.756,70.241 48.949,70.37 49.04,70.433C49.121,70.319 49.183,70.229 49.245,70.099C49.285,70.141 49.342,70.192 49.394,70.232C49.282,70.325 49.215,70.425 49.153,70.511L49.358,70.655C49.553,70.793 49.598,70.79 49.673,70.684C49.769,70.548 49.848,70.399 49.867,70.277L49.876,70.266C49.928,70.339 49.975,70.38 50.03,70.426Z" style="fill:rgb(182,37,55);"/>
        </g>
        <g transform="matrix(3.77614,0,0,3.77614,-74.9557,-164.083)">
            <path d="M50.669,69.283C50.638,69.342 50.615,69.391 50.578,69.464C50.469,69.426 50.35,69.399 50.215,69.374C50.08,69.349 49.98,69.334 49.926,69.358C49.872,69.38 49.844,69.438 49.802,69.519C49.907,69.571 50.253,69.754 50.397,69.795C50.363,69.848 50.33,69.908 50.297,69.966C50.266,70.024 50.238,70.079 50.214,70.133C50.049,70.009 49.703,69.824 49.595,69.765C49.407,69.663 49.069,69.47 48.955,69.47L48.951,69.467C49.008,69.367 49.049,69.289 49.103,69.19C49.166,69.076 49.211,68.989 49.277,68.866C49.415,68.615 49.585,68.608 49.739,68.692C49.897,68.778 49.984,68.95 49.906,69.158L49.909,69.159C49.968,69.058 50.049,69.031 50.142,69.044C50.208,69.051 50.228,69.053 50.343,69.071C50.491,69.094 50.672,69.124 50.761,69.1L50.773,69.106C50.725,69.184 50.695,69.237 50.669,69.283ZM49.32,69.068C49.287,69.126 49.267,69.167 49.252,69.208C49.336,69.263 49.444,69.322 49.475,69.339C49.557,69.383 49.602,69.411 49.678,69.452C49.704,69.406 49.721,69.38 49.74,69.347C49.809,69.221 49.801,69.104 49.608,68.998C49.446,68.911 49.362,68.988 49.32,69.068Z" style="fill:rgb(182,37,55);"/>
        </g>
        <g transform="matrix(3.77614,0,0,3.77614,-74.9557,-164.083)">
            <path d="M50.996,68.58C50.966,68.653 50.883,68.82 50.828,68.934C50.762,68.893 50.682,68.849 50.598,68.808L50.604,68.798C50.719,68.743 50.823,68.641 50.878,68.506C50.927,68.387 50.9,68.286 50.796,68.243C50.721,68.214 50.664,68.225 50.584,68.272C50.467,68.341 50.368,68.442 50.232,68.513C50.08,68.593 49.971,68.58 49.851,68.531C49.734,68.483 49.536,68.326 49.714,67.887C49.747,67.806 49.803,67.678 49.858,67.574C49.912,67.615 49.993,67.67 50.068,67.717L50.064,67.728C49.975,67.756 49.897,67.8 49.833,67.954C49.775,68.099 49.826,68.203 49.912,68.238C50.015,68.28 50.08,68.289 50.314,68.097C50.606,67.859 50.708,67.891 50.83,67.94C50.978,68 51.162,68.17 50.996,68.58Z" style="fill:rgb(182,37,55);"/>
        </g>
        <g transform="matrix(3.77614,0,0,3.77614,-74.9557,-164.083)">
            <path d="M51.335,67.597C51.314,67.661 51.304,67.702 51.28,67.793C51.056,67.691 50.769,67.6 50.61,67.549C50.384,67.479 50.072,67.373 49.915,67.396L49.908,67.394C49.934,67.331 49.953,67.275 49.971,67.214C49.99,67.153 50.007,67.085 50.029,67.01C50.193,67.095 50.574,67.21 50.651,67.234C50.778,67.274 51.139,67.389 51.395,67.426C51.362,67.517 51.346,67.559 51.335,67.597Z" style="fill:rgb(182,37,55);"/>
        </g>
        <g transform="matrix(3.77614,0,0,3.77614,-74.9557,-164.083)">
            <path d="M50.497,65.86L50.494,65.873C50.462,65.915 50.4,66.057 50.362,66.236C50.405,66.245 50.683,66.313 50.979,66.378C51.271,66.442 51.577,66.479 51.626,66.478C51.603,66.565 51.595,66.588 51.579,66.663C51.565,66.728 51.555,66.775 51.543,66.856C51.368,66.787 50.987,66.699 50.847,66.668C50.699,66.635 50.429,66.581 50.292,66.554C50.259,66.705 50.233,66.903 50.255,66.967L50.253,66.979C50.196,66.954 50.116,66.923 50.06,66.91C50.117,66.713 50.155,66.548 50.195,66.365C50.238,66.166 50.28,65.973 50.309,65.774C50.352,65.804 50.429,65.835 50.497,65.86Z" style="fill:rgb(182,37,55);"/>
        </g>
        <g transform="matrix(3.77614,0,0,3.77614,-74.9557,-164.083)">
            <path d="M50.605,64.441C50.714,64.528 50.828,64.609 51.234,64.866C51.372,64.876 51.448,64.881 51.549,64.883C51.644,64.883 51.762,64.883 51.831,64.87C51.819,64.95 51.816,65.002 51.81,65.061C51.807,65.124 51.804,65.156 51.802,65.259C51.741,65.237 51.603,65.213 51.532,65.207C51.431,65.2 51.354,65.188 51.214,65.177C50.877,65.317 50.588,65.465 50.515,65.502C50.469,65.525 50.384,65.578 50.352,65.614L50.344,65.612C50.354,65.538 50.361,65.465 50.367,65.39C50.372,65.316 50.376,65.238 50.378,65.154C50.431,65.156 50.484,65.144 50.529,65.128C50.643,65.087 50.799,65.039 51.045,64.929L51.045,64.922C50.914,64.84 50.718,64.741 50.604,64.687C50.548,64.661 50.47,64.64 50.417,64.64C50.425,64.586 50.429,64.548 50.436,64.47C50.44,64.413 50.445,64.359 50.443,64.308C50.498,64.363 50.573,64.419 50.605,64.441Z" style="fill:rgb(182,37,55);"/>
        </g>
    </g>
</svg>
