<?xml version="1.0" encoding="UTF-8" standalone="no"?>
<!DOCTYPE svg PUBLIC "-//W3C//DTD SVG 1.1//EN" "http://www.w3.org/Graphics/SVG/1.1/DTD/svg11.dtd">
<svg width="100%" height="100%" viewBox="0 0 154 157" version="1.1" xmlns="http://www.w3.org/2000/svg" xmlns:xlink="http://www.w3.org/1999/xlink" xml:space="preserve" xmlns:serif="http://www.serif.com/" style="fill-rule:evenodd;clip-rule:evenodd;stroke-linejoin:round;stroke-miterlimit:2;">
    <g>
        <g transform="matrix(3.72856,0,0,3.72856,-73.6711,-161.657)">
            <path d="M47.474,74.79C45.944,74.764 44.569,75.222 43.365,76.166C43.088,76.384 42.832,76.633 42.585,76.886C42.073,77.414 41.457,77.729 40.728,77.802C39.743,77.901 38.9,77.584 38.215,76.87C37.675,76.306 37.073,75.829 36.375,75.477C35.681,75.126 34.95,74.894 34.176,74.818C33.81,74.782 33.44,74.771 33.072,74.776C31.552,74.797 30.207,73.605 30.069,72.096C30.044,71.826 30.058,71.552 30.051,71.28C30.01,69.723 29.493,68.345 28.479,67.16C28.242,66.884 27.969,66.638 27.726,66.366C26.952,65.501 26.781,64.161 27.289,63.116C27.494,62.694 27.808,62.368 28.132,62.042C29.158,61.011 29.786,59.774 29.982,58.331C30.037,57.925 30.051,57.51 30.044,57.099C30.016,55.571 31.185,54.227 32.709,54.07C32.964,54.044 33.224,54.057 33.481,54.052C35.137,54.026 36.578,53.45 37.812,52.353C38.012,52.175 38.187,51.967 38.384,51.785C39.599,50.661 41.515,50.759 42.629,51.983C43.315,52.736 44.152,53.279 45.107,53.638C45.946,53.954 46.815,54.076 47.71,54.05C49.251,54.006 50.599,55.196 50.745,56.725C50.77,56.996 50.756,57.269 50.762,57.541C50.802,59.128 51.343,60.522 52.381,61.72C52.611,61.984 52.887,62.209 53.106,62.481C53.886,63.451 54.022,64.519 53.538,65.665C53.365,66.075 53.073,66.397 52.758,66.704C51.641,67.791 50.985,69.111 50.809,70.66C50.763,71.068 50.782,71.482 50.764,71.894C50.731,72.651 50.449,73.305 49.924,73.853C49.49,74.305 48.964,74.601 48.348,74.713C48.062,74.766 47.766,74.766 47.474,74.79ZM33.472,54.328C33.393,54.328 33.314,54.33 33.235,54.327C32.669,54.309 32.136,54.432 31.66,54.74C30.746,55.33 30.301,56.176 30.328,57.265C30.338,57.703 30.318,58.139 30.243,58.571C29.988,60.054 29.312,61.313 28.218,62.344C27.747,62.789 27.446,63.32 27.347,63.957C27.218,64.786 27.409,65.54 27.948,66.188C28.157,66.44 28.415,66.653 28.632,66.899C29.705,68.116 30.276,69.536 30.329,71.161C30.337,71.429 30.319,71.699 30.342,71.966C30.468,73.425 31.741,74.547 33.205,74.494C33.941,74.467 34.663,74.549 35.369,74.76C36.467,75.091 37.418,75.666 38.227,76.481C38.411,76.665 38.596,76.854 38.806,77.005C39.924,77.809 41.517,77.64 42.448,76.631C43.234,75.778 44.179,75.173 45.281,74.813C46.044,74.563 46.828,74.469 47.631,74.488C47.892,74.495 48.163,74.463 48.415,74.396C49.691,74.058 50.533,72.9 50.489,71.58C50.481,71.347 50.479,71.113 50.497,70.882C50.616,69.31 51.212,67.945 52.283,66.789C52.463,66.595 52.666,66.421 52.839,66.221C53.773,65.145 53.721,63.474 52.717,62.465C52.384,62.129 52.048,61.798 51.769,61.414C50.954,60.291 50.525,59.037 50.484,57.65C50.477,57.382 50.494,57.112 50.47,56.845C50.342,55.392 49.069,54.274 47.61,54.327C47.064,54.347 46.522,54.31 45.987,54.196C44.616,53.903 43.444,53.252 42.484,52.23C42.065,51.785 41.571,51.48 40.972,51.368C39.979,51.183 39.111,51.437 38.398,52.162C38.089,52.477 37.772,52.781 37.415,53.041C36.24,53.899 34.924,54.321 33.472,54.328Z" style="fill:rgb(198,0,26);fill-rule:nonzero;"/>
        </g>
        <g transform="matrix(3.72856,0,0,3.72856,-73.6711,-161.657)">
            <path d="M29.219,64.404C29.229,58.168 34.332,53.198 40.435,53.219C46.67,53.24 51.659,58.37 51.594,64.524C51.529,70.665 46.494,75.627 40.368,75.601C34.136,75.575 29.208,70.473 29.219,64.404ZM40.42,53.529C34.414,53.518 29.478,58.438 29.529,64.508C29.578,70.433 34.418,75.29 40.409,75.292C46.417,75.294 51.349,70.367 51.284,64.288C51.221,58.363 46.376,53.536 40.42,53.529Z" style="fill:rgb(198,0,26);fill-rule:nonzero;"/>
        </g>
        <g transform="matrix(3.72856,0,0,3.72856,-73.6711,-161.657)">
            <path d="M45.308,69.117L44.354,69.117C43.015,69.117 41.675,69.118 40.335,69.114C40.279,69.114 40.21,69.084 40.169,69.044C39.907,68.79 39.65,68.53 39.392,68.272C39.362,68.242 39.33,68.213 39.274,68.159C39.23,68.214 39.195,68.267 39.15,68.312C38.903,68.562 38.655,68.811 38.405,69.057C38.375,69.086 38.327,69.114 38.287,69.114C37.492,69.118 36.696,69.117 35.875,69.117C35.918,69.071 35.946,69.038 35.977,69.007C36.246,68.74 36.526,68.483 36.781,68.203C36.899,68.074 36.988,67.91 37.056,67.747C37.196,67.415 37.143,67.1 36.905,66.826C36.456,66.31 36.002,65.797 35.551,65.283C35.526,65.255 35.501,65.226 35.476,65.195C35.708,65.195 35.932,65.191 36.156,65.196C36.64,65.207 37.123,65.226 37.606,65.234C37.708,65.235 37.766,65.262 37.793,65.362C37.81,65.423 37.842,65.48 37.867,65.539C37.807,65.611 37.757,65.602 37.718,65.526C37.663,65.421 37.579,65.395 37.463,65.395C37.015,65.396 36.568,65.385 36.12,65.378C36.071,65.378 36.023,65.378 35.945,65.378C35.992,65.434 36.019,65.469 36.049,65.502C36.375,65.873 36.703,66.243 37.029,66.614C37.438,67.079 37.488,67.577 37.145,68.099C37,68.322 36.805,68.512 36.631,68.715C36.607,68.744 36.576,68.767 36.53,68.81C36.711,68.821 36.849,68.838 36.975,68.69C37.219,68.404 37.486,68.139 37.747,67.867C38.119,67.478 38.195,67.028 38.032,66.525C38.026,66.508 38.021,66.491 38.012,66.462C38.072,66.429 38.133,66.396 38.203,66.357C38.31,66.569 38.346,66.785 38.348,67.008C38.351,67.38 38.224,67.701 37.968,67.971C37.739,68.213 37.512,68.457 37.285,68.7C37.257,68.73 37.23,68.762 37.181,68.816C37.353,68.816 37.495,68.82 37.636,68.813C37.667,68.811 37.702,68.774 37.727,68.746C38.018,68.43 38.307,68.112 38.596,67.794C38.627,67.76 38.654,67.721 38.687,67.679C38.757,67.742 38.81,67.788 38.869,67.841C38.725,68.007 38.586,68.166 38.448,68.325C38.313,68.481 38.178,68.637 38.03,68.807C38.179,68.824 38.289,68.83 38.398,68.719C38.684,68.424 38.987,68.144 39.291,67.85C39.487,68.038 39.68,68.224 39.873,68.409C39.976,68.508 40.089,68.599 40.18,68.709C40.282,68.831 40.403,68.827 40.564,68.808C40.275,68.478 39.999,68.162 39.717,67.84C39.774,67.791 39.826,67.744 39.891,67.688C39.964,67.767 40.033,67.843 40.103,67.918C40.356,68.196 40.609,68.475 40.866,68.749C40.9,68.785 40.961,68.81 41.011,68.814C41.131,68.824 41.252,68.817 41.401,68.817C41.36,68.769 41.338,68.739 41.313,68.712C41.078,68.461 40.839,68.213 40.609,67.958C40.191,67.496 40.148,66.97 40.356,66.405C40.361,66.392 40.371,66.381 40.383,66.361C40.445,66.392 40.504,66.422 40.565,66.452C40.537,66.585 40.501,66.712 40.485,66.842C40.438,67.223 40.548,67.557 40.812,67.838C41.072,68.114 41.345,68.38 41.591,68.668C41.718,68.818 41.856,68.837 42.049,68.783C42.016,68.759 41.981,68.739 41.951,68.711C41.7,68.478 41.477,68.223 41.336,67.906C41.136,67.456 41.187,67.04 41.513,66.667C41.856,66.272 42.204,65.881 42.549,65.489C42.574,65.46 42.598,65.431 42.638,65.384C42.432,65.384 42.252,65.382 42.071,65.385C41.76,65.388 41.448,65.399 41.136,65.395C41.013,65.393 40.922,65.419 40.864,65.533C40.83,65.6 40.783,65.607 40.722,65.54C40.757,65.456 40.791,65.366 40.834,65.281C40.845,65.259 40.884,65.24 40.91,65.239C41.626,65.218 42.343,65.2 43.059,65.181C43.071,65.181 43.084,65.186 43.114,65.191C43.002,65.32 42.901,65.438 42.798,65.555C42.446,65.956 42.102,66.364 41.739,66.756C41.412,67.109 41.373,67.52 41.614,67.94C41.813,68.288 42.108,68.548 42.425,68.804C42.618,68.429 42.684,68.043 42.649,67.633C42.614,67.221 42.463,66.867 42.158,66.575C42.364,66.541 46.596,66.567 46.855,66.603C47.111,65.869 47.23,65.11 47.219,64.331C47.206,63.288 46.969,62.298 46.49,61.349C46.404,61.445 46.328,61.529 46.254,61.614C46.022,61.878 45.792,62.143 45.559,62.405C45.533,62.434 45.491,62.466 45.456,62.467C45.256,62.473 45.055,62.469 44.855,62.469C44.847,62.461 44.839,62.452 44.832,62.443C44.854,62.417 44.872,62.378 44.9,62.368C44.995,62.336 45.092,62.305 45.19,62.291C45.353,62.268 45.469,62.185 45.571,62.059C45.719,61.875 45.88,61.702 46.035,61.524C46.057,61.498 46.076,61.47 46.111,61.423C45.873,61.445 45.66,61.464 45.447,61.484C44.602,61.565 43.757,61.646 42.913,61.728C42.598,61.759 42.311,61.875 42.068,62.071C41.773,62.308 41.494,62.566 41.216,62.824C40.94,63.08 40.676,63.35 40.342,63.531C39.552,63.959 38.773,63.92 38.046,63.402C37.702,63.157 37.408,62.841 37.096,62.551C36.772,62.251 36.45,61.945 36.017,61.81C35.824,61.751 35.618,61.725 35.417,61.705C34.462,61.609 33.506,61.52 32.551,61.429C32.535,61.428 32.518,61.429 32.481,61.429C32.509,61.468 32.525,61.494 32.544,61.516C32.733,61.733 32.919,61.95 33.112,62.162C33.15,62.204 33.208,62.236 33.262,62.253C33.399,62.296 33.54,62.324 33.677,62.365C33.707,62.374 33.729,62.413 33.755,62.439C33.748,62.449 33.741,62.459 33.734,62.469C33.53,62.469 33.327,62.47 33.123,62.467C33.099,62.467 33.068,62.45 33.052,62.431C32.679,62.01 32.309,61.587 31.922,61.148C31.975,61.148 32.007,61.145 32.04,61.148C32.6,61.202 33.159,61.253 33.719,61.313C33.828,61.324 33.881,61.296 33.931,61.195C34.355,60.327 34.943,59.585 35.666,58.948C35.68,58.936 35.695,58.927 35.711,58.916C35.787,59.028 35.863,59.139 35.947,59.261C35.278,59.852 34.728,60.541 34.318,61.362C34.453,61.376 34.576,61.39 34.698,61.402C35.037,61.435 35.376,61.464 35.714,61.499C36.173,61.547 36.562,61.754 36.901,62.054C37.149,62.275 37.384,62.512 37.624,62.742C37.909,63.016 38.198,63.291 38.575,63.429C39.282,63.688 39.947,63.597 40.532,63.113C40.856,62.844 41.152,62.54 41.459,62.251C41.775,61.954 42.109,61.678 42.538,61.572C42.807,61.506 43.088,61.481 43.365,61.453C44.341,61.356 45.318,61.266 46.295,61.172C46.322,61.17 46.348,61.162 46.377,61.157C45.205,58.854 41.976,56.712 38.18,57.965C38.122,57.845 38.064,57.724 37.997,57.584C38.166,57.531 38.333,57.471 38.504,57.427C40.479,56.918 42.355,57.16 44.113,58.2C45.267,58.883 46.156,59.83 46.79,61.012C47.301,61.965 47.58,62.981 47.633,64.061C47.678,64.952 47.557,65.819 47.281,66.665C47.255,66.744 47.27,66.785 47.334,66.835C47.736,67.146 47.902,67.703 47.753,68.22C47.61,68.717 47.223,69.044 46.699,69.096C46.496,69.116 46.291,69.122 46.088,69.113C45.949,69.107 45.858,69.154 45.767,69.256C45.168,69.931 44.461,70.467 43.657,70.874C42.727,71.345 41.74,71.603 40.697,71.642C39.233,71.697 37.873,71.344 36.625,70.574C35.373,69.803 34.443,68.743 33.825,67.412C33.439,66.582 33.228,65.705 33.181,64.789C33.148,64.151 33.195,63.521 33.334,62.899C33.356,62.8 33.327,62.734 33.248,62.659C33.292,62.656 33.318,62.652 33.344,62.652C34.422,62.672 35.5,62.694 36.578,62.711C36.655,62.713 36.693,62.737 36.719,62.808C36.755,62.909 36.8,63.006 36.843,63.107C36.782,63.169 36.726,63.189 36.682,63.1C36.6,62.932 36.467,62.902 36.29,62.9C35.477,62.891 34.664,62.867 33.851,62.848C33.81,62.847 33.768,62.848 33.695,62.848C33.822,62.992 33.916,63.127 34.038,63.225C34.109,63.283 34.226,63.282 34.323,63.307C34.411,63.329 34.411,63.329 34.39,63.441C34.25,63.441 34.107,63.445 33.965,63.438C33.933,63.436 33.901,63.398 33.874,63.371C33.823,63.318 33.775,63.261 33.721,63.2C33.23,65.404 34.079,68.683 37.113,70.37C40.155,72.061 43.547,71.055 45.308,69.117ZM42.705,68.881L42.837,68.881C43.667,68.881 44.498,68.882 45.329,68.88C45.776,68.879 46.224,68.879 46.671,68.867C46.866,68.862 47.055,68.807 47.206,68.673C47.511,68.402 47.58,68.049 47.533,67.665C47.498,67.383 47.387,67.134 47.14,66.967C46.943,66.833 46.717,66.797 46.485,66.797C45.264,66.795 44.043,66.796 42.822,66.796C42.785,66.796 42.748,66.8 42.708,66.802C42.994,67.499 42.998,68.182 42.705,68.881Z" style="fill:rgb(198,0,26);fill-rule:nonzero;"/>
        </g>
        <g transform="matrix(3.72856,0,0,3.72856,-73.6711,-161.657)">
            <path d="M36.064,58.341C36.063,57.879 36.451,57.496 36.916,57.499C37.379,57.502 37.759,57.888 37.757,58.354C37.756,58.815 37.369,59.197 36.903,59.197C36.443,59.197 36.065,58.811 36.064,58.341Z" style="fill:rgb(198,0,26);fill-rule:nonzero;"/>
        </g>
        <g transform="matrix(3.72856,0,0,3.72856,-73.6711,-161.657)">
            <path d="M31.234,63.123C31.276,63.294 31.309,63.45 31.354,63.602C31.365,63.639 31.408,63.671 31.444,63.695C31.472,63.714 31.52,63.708 31.543,63.73C31.588,63.773 31.622,63.828 31.66,63.878C31.613,63.913 31.566,63.949 31.518,63.982C31.508,63.99 31.494,63.992 31.482,63.995C31.491,64.183 31.728,64.327 31.877,64.355C31.905,64.361 31.93,64.38 31.957,64.393C31.942,64.418 31.933,64.45 31.912,64.468C31.794,64.573 31.462,64.603 31.331,64.514C31.29,64.486 31.241,64.417 31.25,64.381C31.264,64.326 31.326,64.284 31.366,64.237C31.314,64.151 31.263,64.031 31.18,63.938C31.113,63.863 31.011,63.818 30.92,63.767C30.862,63.734 30.797,63.715 30.726,63.686C30.715,63.706 30.705,63.738 30.683,63.758C30.653,63.787 30.609,63.831 30.58,63.825C30.541,63.818 30.49,63.772 30.481,63.735C30.451,63.599 30.415,63.459 30.421,63.323C30.434,62.981 30.466,62.639 30.501,62.299C30.507,62.242 30.562,62.185 30.608,62.142C30.626,62.126 30.693,62.133 30.712,62.154C30.73,62.174 30.725,62.228 30.714,62.262C30.652,62.449 30.664,62.638 30.671,62.821C30.729,62.766 30.776,62.687 30.843,62.666C30.906,62.646 30.988,62.686 31.068,62.701C31.078,62.616 31.086,62.518 31.102,62.421C31.119,62.316 31.178,62.291 31.27,62.348C31.309,62.372 31.343,62.405 31.38,62.434C31.612,62.617 31.848,62.795 32.073,62.986C32.168,63.068 32.252,63.171 32.315,63.279C32.392,63.414 32.342,63.513 32.201,63.58C32.175,63.593 32.145,63.638 32.148,63.666C32.156,63.768 32.188,63.87 32.191,63.972C32.193,64.049 32.169,64.129 32.146,64.204C32.142,64.218 32.079,64.233 32.062,64.221C32.018,64.19 31.978,64.148 31.95,64.102C31.924,64.059 31.925,63.997 31.895,63.957C31.691,63.687 31.482,63.42 31.274,63.152C31.268,63.145 31.258,63.14 31.234,63.123ZM32.135,63.419C32.194,63.334 32.187,63.29 32.081,63.204C31.933,63.082 31.781,62.965 31.636,62.84C31.504,62.725 31.381,62.601 31.248,62.486C31.228,62.469 31.159,62.468 31.15,62.482C31.092,62.579 31.151,62.825 31.233,62.908C31.366,63.042 31.493,63.182 31.619,63.321C31.717,63.428 31.811,63.538 31.906,63.646C31.926,63.603 31.932,63.563 31.918,63.532C31.877,63.436 31.956,63.395 32.005,63.349C32.016,63.339 32.084,63.391 32.135,63.419ZM31.064,63.613C31.064,63.401 31.064,63.22 31.064,63.04C31.065,62.93 31.005,62.864 30.875,62.846C30.885,63.011 30.895,63.173 30.904,63.335C30.893,63.338 30.882,63.34 30.871,63.343C30.825,63.261 30.779,63.178 30.72,63.072C30.72,63.215 30.718,63.328 30.721,63.44C30.722,63.46 30.74,63.49 30.757,63.497C30.857,63.538 30.959,63.574 31.064,63.613Z" style="fill:rgb(198,0,26);fill-rule:nonzero;"/>
        </g>
        <g transform="matrix(3.72856,0,0,3.72856,-73.6711,-161.657)">
            <path d="M45.633,57.63C45.608,57.505 45.557,57.421 45.469,57.357C45.441,57.337 45.403,57.288 45.411,57.27C45.426,57.237 45.468,57.213 45.504,57.192C45.551,57.165 45.603,57.145 45.653,57.122C45.652,57.108 45.651,57.095 45.65,57.081C45.493,57.064 45.336,57.04 45.179,57.033C45.093,57.029 45.005,57.048 44.92,57.069C44.888,57.077 44.86,57.115 44.834,57.143C44.75,57.234 44.673,57.334 44.579,57.414C44.545,57.443 44.469,57.425 44.412,57.428C44.41,57.387 44.399,57.343 44.409,57.305C44.429,57.222 44.46,57.142 44.491,57.049C44.336,57.024 44.279,56.904 44.217,56.77C44.245,56.767 44.268,56.757 44.282,56.764C44.468,56.852 44.668,56.819 44.862,56.833C44.961,56.84 45.038,56.79 45.077,56.677C44.984,56.634 44.828,56.638 44.897,56.449C44.994,56.461 45.1,56.463 45.201,56.488C45.303,56.513 45.371,56.469 45.444,56.412C45.548,56.331 45.658,56.256 45.781,56.168C45.794,56.32 45.809,56.443 45.809,56.565C45.809,56.593 45.762,56.637 45.729,56.646C45.6,56.682 45.466,56.704 45.336,56.738C45.277,56.753 45.223,56.785 45.167,56.809C45.17,56.826 45.174,56.844 45.177,56.861C45.345,56.874 45.514,56.888 45.682,56.9C45.794,56.908 45.912,56.936 46.002,56.837C46.055,56.779 46.1,56.715 46.153,56.658C46.197,56.611 46.237,56.536 46.319,56.583C46.371,56.613 46.372,56.737 46.326,56.8C46.297,56.839 46.262,56.875 46.207,56.939C46.302,56.922 46.37,56.91 46.439,56.897C46.461,57.027 46.443,57.045 46.306,57.081C46.119,57.13 45.915,57.112 45.743,57.221C45.732,57.228 45.719,57.233 45.686,57.251C45.794,57.285 45.883,57.313 45.972,57.34C46.006,57.35 46.043,57.354 46.075,57.368C46.202,57.423 46.213,57.493 46.106,57.58C46.03,57.642 45.912,57.685 45.88,57.763C45.851,57.837 45.909,57.947 45.933,58.04C45.951,58.112 45.971,58.185 45.999,58.254C46.054,58.391 46.017,58.539 45.898,58.625C45.849,58.661 45.818,58.642 45.81,58.585C45.779,58.36 45.747,58.135 45.718,57.909C45.707,57.825 45.68,57.772 45.578,57.781C45.487,57.789 45.391,57.791 45.302,57.771C45.066,57.718 45.016,57.526 45.172,57.357C45.227,57.452 45.266,57.578 45.351,57.642C45.408,57.684 45.531,57.637 45.633,57.63ZM45.748,57.423C45.756,57.498 45.763,57.574 45.852,57.572C45.883,57.571 45.943,57.508 45.938,57.49C45.908,57.392 45.823,57.425 45.748,57.423ZM44.515,57.041C44.54,57.094 44.555,57.123 44.557,57.13C44.602,57.104 44.643,57.08 44.685,57.056C44.68,57.048 44.675,57.04 44.67,57.032C44.626,57.035 44.582,57.037 44.515,57.041Z" style="fill:rgb(198,0,26);fill-rule:nonzero;"/>
        </g>
        <g transform="matrix(3.72856,0,0,3.72856,-73.6711,-161.657)">
            <path d="M33.16,59.29C33.315,59.344 33.462,59.395 33.608,59.448C33.713,59.486 33.733,59.559 33.643,59.615C33.539,59.68 33.519,59.762 33.52,59.875C33.522,60.043 33.367,60.211 33.189,60.233C33.305,60.113 33.437,60.015 33.413,59.858C33.321,59.872 33.228,59.914 33.154,59.891C33.073,59.867 33.009,59.783 32.932,59.722C32.861,59.863 32.77,60.031 32.689,60.204C32.649,60.291 32.631,60.389 32.592,60.477C32.575,60.517 32.532,60.545 32.499,60.58C32.403,60.529 32.447,60.459 32.469,60.402C32.53,60.243 32.597,60.085 32.666,59.929C32.721,59.805 32.787,59.687 32.84,59.563C32.858,59.521 32.868,59.465 32.854,59.424C32.818,59.312 32.772,59.203 32.72,59.097C32.702,59.061 32.657,59.039 32.624,59.011C32.612,59.047 32.591,59.083 32.59,59.119C32.587,59.282 32.595,59.446 32.591,59.609C32.586,59.765 32.53,59.822 32.392,59.82C32.363,59.82 32.319,59.803 32.308,59.781C32.185,59.542 32.071,59.299 32.075,59.02C32.075,59.011 32.083,59.002 32.099,58.961C32.187,59.097 32.265,59.217 32.35,59.347C32.369,59.194 32.389,59.055 32.401,58.916C32.403,58.892 32.372,58.861 32.35,58.84C32.205,58.698 32.139,58.522 32.118,58.324C32.11,58.247 32.126,58.18 32.204,58.145C32.285,58.109 32.345,58.152 32.392,58.208C32.448,58.276 32.494,58.352 32.505,58.386C32.579,58.333 32.653,58.279 32.728,58.227C32.858,58.135 33.005,58.177 33.035,58.332C33.075,58.542 33.073,58.752 32.926,58.933C32.818,59.068 32.891,59.201 32.942,59.352C33.119,59.049 33.233,58.718 33.569,58.57C33.411,58.796 33.211,58.994 33.16,59.29ZM32.802,58.846L32.847,58.846C32.856,58.695 32.868,58.543 32.873,58.392C32.874,58.367 32.853,58.336 32.832,58.319C32.815,58.304 32.78,58.295 32.76,58.303C32.702,58.325 32.628,58.566 32.661,58.622C32.705,58.698 32.755,58.771 32.802,58.846ZM33.137,59.365C33.028,59.532 33.028,59.59 33.124,59.712C33.151,59.746 33.179,59.805 33.231,59.751C33.277,59.702 33.398,59.68 33.327,59.575C33.276,59.5 33.205,59.44 33.137,59.365ZM32.416,58.769C32.482,58.622 32.397,58.394 32.239,58.281C32.249,58.464 32.305,58.617 32.416,58.769Z" style="fill:rgb(198,0,26);fill-rule:nonzero;"/>
        </g>
        <g transform="matrix(3.72856,0,0,3.72856,-73.6711,-161.657)">
            <path d="M34.834,57.422L34.659,57.422C34.672,57.358 34.686,57.295 34.699,57.232C34.71,57.176 34.724,57.119 34.727,57.063C34.728,57.048 34.696,57.019 34.678,57.018C34.663,57.018 34.639,57.046 34.632,57.066C34.613,57.119 34.597,57.175 34.585,57.231C34.553,57.383 34.443,57.447 34.305,57.473C34.269,57.479 34.228,57.457 34.189,57.448C34.204,57.413 34.214,57.377 34.233,57.345C34.317,57.205 34.403,57.067 34.488,56.927C34.542,56.838 34.534,56.753 34.461,56.678C34.388,56.603 34.377,56.535 34.452,56.448C34.488,56.408 34.491,56.339 34.521,56.247C34.387,56.278 34.287,56.301 34.151,56.332C34.187,56.268 34.203,56.223 34.231,56.189C34.372,56.018 34.511,55.845 34.661,55.682C34.71,55.628 34.785,55.585 34.856,55.568C34.933,55.551 34.966,55.613 34.924,55.684C34.813,55.87 34.696,56.054 34.586,56.241C34.541,56.319 34.463,56.396 34.569,56.494C34.595,56.519 34.581,56.586 34.586,56.634C34.595,56.637 34.604,56.641 34.614,56.645C34.646,56.586 34.676,56.525 34.712,56.468C34.763,56.387 34.813,56.304 34.872,56.229C34.916,56.174 34.98,56.151 35.044,56.197C35.105,56.243 35.101,56.303 35.069,56.369C35.025,56.463 34.997,56.565 34.946,56.655C34.904,56.729 34.838,56.79 34.778,56.863C34.794,56.886 34.817,56.916 34.82,56.921C34.897,56.893 34.957,56.855 35.021,56.85C35.118,56.843 35.132,56.874 35.098,56.965C35.041,57.122 34.983,57.28 34.928,57.437C34.92,57.459 34.922,57.485 34.938,57.519C35.007,57.415 35.075,57.31 35.144,57.206C35.179,57.153 35.206,57.084 35.256,57.053C35.303,57.024 35.377,57.025 35.434,57.036C35.451,57.039 35.468,57.124 35.46,57.166C35.433,57.297 35.397,57.426 35.361,57.556C35.331,57.665 35.408,57.759 35.513,57.723C35.723,57.649 35.89,57.508 36.031,57.339C36.055,57.31 36.051,57.237 36.032,57.197C35.972,57.069 35.9,56.947 35.831,56.823C35.812,56.789 35.787,56.757 35.777,56.714C35.822,56.811 35.978,56.801 35.995,56.931C36.016,56.946 36.048,56.961 36.068,56.985C36.132,57.062 36.191,57.142 36.253,57.22C36.294,57.271 36.294,57.317 36.242,57.359C36.015,57.545 35.795,57.737 35.517,57.85C35.416,57.891 35.351,57.871 35.3,57.787C35.259,57.721 35.22,57.675 35.128,57.702C35.104,57.71 35.062,57.657 35.023,57.627C35.019,57.666 35.022,57.722 35.005,57.772C34.991,57.811 34.953,57.842 34.925,57.877C34.893,57.841 34.837,57.809 34.832,57.769C34.82,57.682 34.835,57.591 34.838,57.502C34.839,57.474 34.835,57.445 34.834,57.422ZM35.097,57.48C35.237,57.448 35.251,57.417 35.234,57.202C35.19,57.29 35.146,57.381 35.097,57.48ZM34.854,56.527C34.838,56.516 34.822,56.505 34.805,56.494C34.772,56.56 34.739,56.626 34.706,56.692C34.721,56.7 34.735,56.708 34.75,56.715C34.785,56.653 34.82,56.59 34.854,56.527Z" style="fill:rgb(198,0,26);fill-rule:nonzero;"/>
        </g>
        <g transform="matrix(3.72856,0,0,3.72856,-73.6711,-161.657)">
            <path d="M40.691,73.144L40.971,73.144L40.971,74.769C40.878,74.769 40.789,74.777 40.702,74.765C40.667,74.76 40.627,74.718 40.608,74.682C40.449,74.378 40.295,74.07 40.14,73.764C40.123,73.731 40.103,73.7 40.063,73.674L40.063,74.76L39.789,74.76L39.789,73.141C39.881,73.141 39.977,73.134 40.071,73.144C40.099,73.147 40.13,73.191 40.146,73.222C40.303,73.528 40.457,73.835 40.612,74.142C40.629,74.176 40.648,74.209 40.691,74.239L40.691,73.144Z" style="fill:rgb(198,0,26);fill-rule:nonzero;"/>
        </g>
        <g transform="matrix(3.72856,0,0,3.72856,-73.6711,-161.657)">
            <path d="M36.4,73.975C36.377,73.975 36.373,73.976 36.37,73.974C36.099,73.861 36.099,73.861 36.096,73.567C36.093,73.288 36.09,73.009 36.087,72.73C36.087,72.688 36.087,72.647 36.087,72.605C36.077,72.603 36.068,72.6 36.058,72.598C35.898,72.922 35.737,73.246 35.571,73.582C35.485,73.54 35.407,73.501 35.32,73.459C35.561,72.969 35.798,72.488 36.038,72C36.123,72.042 36.208,72.073 36.28,72.123C36.312,72.145 36.332,72.204 36.333,72.247C36.339,72.587 36.34,72.928 36.342,73.268C36.342,73.309 36.342,73.351 36.342,73.392C36.351,73.395 36.361,73.397 36.37,73.4C36.532,73.072 36.694,72.744 36.861,72.406C36.945,72.447 37.024,72.486 37.113,72.529C36.873,73.016 36.636,73.496 36.4,73.975Z" style="fill:rgb(198,0,26);fill-rule:nonzero;"/>
        </g>
        <g transform="matrix(3.72856,0,0,3.72856,-73.6711,-161.657)">
            <path d="M33.373,69.554C33.518,69.766 33.713,69.931 33.792,70.178C33.864,70.403 33.831,70.613 33.692,70.798C33.513,71.036 33.284,71.197 32.972,71.204C32.754,71.208 32.576,71.11 32.429,70.962C32.309,70.841 32.206,70.703 32.084,70.561C32.518,70.222 32.941,69.891 33.373,69.554ZM32.459,70.635C32.597,70.817 32.739,70.968 32.976,70.921C33.236,70.87 33.444,70.731 33.533,70.472C33.606,70.26 33.496,70.094 33.355,69.936C33.055,70.17 32.762,70.398 32.459,70.635Z" style="fill:rgb(198,0,26);fill-rule:nonzero;"/>
        </g>
        <g transform="matrix(3.72856,0,0,3.72856,-73.6711,-161.657)">
            <path d="M45.597,72.544C45.725,72.729 45.854,72.916 45.989,73.11C45.907,73.167 45.834,73.217 45.751,73.274C45.441,72.829 45.136,72.39 44.817,71.932C45.012,71.809 45.194,71.676 45.392,71.574C45.547,71.493 45.708,71.534 45.835,71.66C45.958,71.783 46.009,71.929 45.943,72.101C45.935,72.123 45.925,72.145 45.922,72.153C46.167,72.314 46.404,72.471 46.66,72.64C46.575,72.7 46.507,72.754 46.431,72.796C46.411,72.808 46.365,72.793 46.339,72.776C46.199,72.683 46.063,72.584 45.924,72.49C45.799,72.407 45.716,72.42 45.597,72.544ZM45.451,72.336C45.573,72.259 45.696,72.198 45.698,72.04C45.698,71.947 45.653,71.866 45.567,71.835C45.416,71.781 45.312,71.884 45.195,71.967C45.283,72.093 45.365,72.212 45.451,72.336Z" style="fill:rgb(198,0,26);fill-rule:nonzero;"/>
        </g>
        <g transform="matrix(3.72856,0,0,3.72856,-73.6711,-161.657)">
            <path d="M38.267,72.893C38.359,72.911 38.445,72.928 38.543,72.948C38.515,73.097 38.49,73.237 38.463,73.376C38.426,73.566 38.385,73.755 38.351,73.946C38.339,74.012 38.334,74.081 38.339,74.148C38.349,74.274 38.422,74.352 38.543,74.381C38.662,74.409 38.777,74.377 38.826,74.265C38.883,74.137 38.915,73.995 38.945,73.857C39.002,73.595 39.049,73.331 39.102,73.056C39.199,73.076 39.288,73.093 39.387,73.113C39.328,73.417 39.271,73.711 39.213,74.006C39.202,74.062 39.191,74.118 39.179,74.174C39.108,74.516 38.843,74.688 38.502,74.614C38.154,74.539 37.989,74.292 38.056,73.942C38.115,73.632 38.176,73.323 38.237,73.014C38.244,72.976 38.255,72.938 38.267,72.893Z" style="fill:rgb(198,0,26);fill-rule:nonzero;"/>
        </g>
        <g transform="matrix(3.72856,0,0,3.72856,-73.6711,-161.657)">
            <path d="M32.25,67.479C32.297,67.58 32.341,67.665 32.372,67.755C32.382,67.784 32.362,67.83 32.343,67.859C32.25,68.006 32.152,68.151 32.044,68.314C32.194,68.333 32.324,68.363 32.453,68.36C32.624,68.357 32.716,68.434 32.757,68.592C32.764,68.619 32.778,68.644 32.796,68.685C32.534,68.646 32.283,68.614 32.035,68.569C31.929,68.549 31.866,68.57 31.807,68.666C31.681,68.873 31.541,69.073 31.406,69.275C31.385,69.307 31.362,69.338 31.33,69.383C31.284,69.284 31.241,69.203 31.211,69.117C31.201,69.088 31.214,69.042 31.232,69.014C31.344,68.84 31.46,68.669 31.588,68.478C31.385,68.454 31.203,68.423 31.02,68.415C30.908,68.41 30.852,68.362 30.819,68.265C30.801,68.212 30.775,68.161 30.745,68.093C31.035,68.134 31.308,68.165 31.578,68.212C31.704,68.234 31.779,68.207 31.847,68.093C31.968,67.887 32.109,67.692 32.25,67.479Z" style="fill:rgb(198,0,26);fill-rule:nonzero;"/>
        </g>
        <g transform="matrix(3.72856,0,0,3.72856,-73.6711,-161.657)">
            <path d="M34.921,73.218C34.905,73.214 34.901,73.214 34.898,73.213C34.667,73.068 34.669,73.068 34.749,72.806C34.809,72.606 34.823,72.664 34.661,72.541C34.575,72.476 34.485,72.417 34.402,72.349C34.344,72.302 34.297,72.29 34.235,72.345C34.179,72.394 34.11,72.428 34.052,72.476C33.993,72.526 33.944,72.531 33.885,72.476C33.842,72.435 33.79,72.402 33.733,72.358C34,72.181 34.255,72.011 34.511,71.841C34.707,71.711 34.906,71.584 35.101,71.451C35.158,71.412 35.201,71.409 35.252,71.457C35.283,71.486 35.326,71.503 35.353,71.535C35.375,71.56 35.398,71.604 35.39,71.631C35.237,72.159 35.079,72.687 34.921,73.218ZM35.066,71.806C35.059,71.8 35.052,71.794 35.046,71.788C34.878,71.904 34.711,72.019 34.531,72.143C34.653,72.232 34.758,72.309 34.878,72.397C34.944,72.19 35.005,71.998 35.066,71.806Z" style="fill:rgb(198,0,26);fill-rule:nonzero;"/>
        </g>
        <g transform="matrix(3.72856,0,0,3.72856,-73.6711,-161.657)">
            <path d="M45.346,62.649C45.159,62.864 44.978,63.052 44.82,63.258C44.708,63.405 44.582,63.47 44.401,63.443C44.335,63.434 44.266,63.442 44.196,63.442C44.173,63.37 44.169,63.313 44.259,63.308C44.487,63.296 44.641,63.171 44.765,62.993C44.795,62.95 44.834,62.912 44.884,62.855C44.835,62.851 44.806,62.847 44.777,62.848C43.896,62.867 43.015,62.889 42.134,62.904C42.002,62.907 41.975,63.014 41.919,63.088C41.864,63.159 41.821,63.187 41.743,63.108C41.791,62.994 41.835,62.874 41.894,62.761C41.908,62.733 41.969,62.716 42.008,62.715C42.542,62.703 43.076,62.694 43.609,62.684C44.179,62.673 44.748,62.661 45.346,62.649Z" style="fill:rgb(198,0,26);fill-rule:nonzero;"/>
        </g>
        <g transform="matrix(3.72856,0,0,3.72856,-73.6711,-161.657)">
            <path d="M44.349,73.971C44.117,73.475 43.892,72.993 43.661,72.497C43.923,72.374 44.18,72.254 44.448,72.128C44.483,72.202 44.516,72.271 44.551,72.347C44.375,72.43 44.208,72.51 44.028,72.596C44.087,72.722 44.144,72.843 44.205,72.972C44.375,72.894 44.536,72.82 44.705,72.742C44.74,72.816 44.772,72.882 44.808,72.958C44.642,73.037 44.482,73.114 44.309,73.196C44.375,73.339 44.439,73.476 44.508,73.626C44.696,73.54 44.876,73.457 45.064,73.371C45.1,73.447 45.131,73.514 45.167,73.589C44.893,73.717 44.629,73.841 44.349,73.971Z" style="fill:rgb(198,0,26);fill-rule:nonzero;"/>
        </g>
        <g transform="matrix(3.72856,0,0,3.72856,-73.6711,-161.657)">
            <path d="M43.326,72.65C43.308,72.966 43.291,73.27 43.273,73.573C43.259,73.816 43.24,74.059 43.23,74.302C43.226,74.395 43.155,74.387 43.102,74.4C43.046,74.415 42.984,74.467 42.93,74.387C42.63,73.942 42.328,73.498 42.027,73.054C42.021,73.046 42.02,73.034 42.017,73.024C42.023,73.02 42.029,73.015 42.035,73.013C42.295,72.922 42.295,72.922 42.445,73.152C42.594,73.379 42.742,73.608 42.89,73.835C42.913,73.87 42.938,73.904 42.981,73.967C42.991,73.798 43.001,73.662 43.007,73.525C43.018,73.303 43.031,73.081 43.033,72.86C43.034,72.763 43.059,72.703 43.163,72.691C43.212,72.686 43.26,72.667 43.326,72.65Z" style="fill:rgb(198,0,26);fill-rule:nonzero;"/>
        </g>
        <g transform="matrix(3.72856,0,0,3.72856,-73.6711,-161.657)">
            <path d="M42.445,55.689C42.364,55.737 42.284,55.786 42.203,55.834C42.169,55.854 42.136,55.88 42.1,55.889C42.071,55.895 42.037,55.879 42.006,55.872C42.022,55.845 42.03,55.807 42.054,55.792C42.155,55.726 42.26,55.667 42.35,55.614C42.332,55.551 42.322,55.504 42.305,55.46C42.296,55.438 42.278,55.414 42.257,55.402C42.136,55.334 42.129,55.314 42.181,55.18C42.193,55.15 42.186,55.112 42.195,55.08C42.21,55.031 42.219,54.96 42.253,54.943C42.302,54.917 42.382,54.909 42.43,54.932C42.509,54.97 42.494,55.063 42.412,55.121C42.365,55.154 42.318,55.187 42.271,55.22C42.275,55.231 42.279,55.242 42.283,55.253C42.349,55.253 42.418,55.243 42.482,55.255C42.602,55.278 42.586,55.189 42.603,55.125C42.645,54.966 42.681,54.806 42.733,54.651C42.745,54.614 42.813,54.57 42.851,54.574C42.883,54.577 42.929,54.644 42.931,54.686C42.934,54.738 42.898,54.792 42.881,54.847C42.83,55.009 42.781,55.171 42.731,55.337C42.923,55.335 43.022,55.171 43.012,54.89C43.101,54.886 43.158,54.945 43.153,55.037C43.143,55.224 43.059,55.36 42.887,55.443C42.679,55.544 42.597,55.709 42.633,55.938C42.644,56.008 42.66,56.076 42.581,56.129C42.557,56.145 42.561,56.206 42.558,56.247C42.554,56.293 42.557,56.34 42.557,56.402C42.56,56.414 42.574,56.443 42.572,56.47C42.562,56.599 42.554,56.729 42.529,56.856C42.521,56.898 42.474,56.946 42.433,56.966C42.383,56.99 42.32,56.989 42.262,56.991C42.255,56.991 42.235,56.935 42.24,56.909C42.298,56.616 42.359,56.324 42.418,56.031C42.439,55.924 42.455,55.817 42.474,55.71C42.464,55.703 42.455,55.696 42.445,55.689Z" style="fill:rgb(198,0,26);fill-rule:nonzero;"/>
        </g>
        <g transform="matrix(3.72856,0,0,3.72856,-73.6711,-161.657)">
            <path d="M46.705,70.822C46.602,70.887 46.502,70.941 46.414,71.01C46.338,71.07 46.311,71.157 46.355,71.251C46.4,71.346 46.485,71.358 46.575,71.341C46.694,71.318 46.811,71.285 46.931,71.264C47.148,71.226 47.334,71.311 47.434,71.488C47.539,71.673 47.52,71.878 47.363,72.042C47.272,72.135 47.159,72.207 47.054,72.287C46.996,72.332 46.946,72.323 46.901,72.26C46.866,72.212 46.82,72.171 46.774,72.12C46.859,72.086 46.94,72.06 47.015,72.022C47.114,71.972 47.193,71.9 47.209,71.782C47.226,71.659 47.139,71.55 47.015,71.551C46.944,71.551 46.873,71.569 46.803,71.582C46.719,71.597 46.636,71.62 46.551,71.632C46.347,71.661 46.194,71.578 46.094,71.402C46.009,71.252 46.037,71.054 46.175,70.906C46.254,70.82 46.354,70.753 46.446,70.681C46.505,70.635 46.556,70.649 46.6,70.708C46.632,70.751 46.672,70.787 46.705,70.822Z" style="fill:rgb(198,0,26);fill-rule:nonzero;"/>
        </g>
        <g transform="matrix(3.72856,0,0,3.72856,-73.6711,-161.657)">
            <path d="M47.166,59.09C47.213,59.112 47.25,59.123 47.281,59.143C47.416,59.233 47.542,59.342 47.688,59.411C47.767,59.448 47.887,59.447 47.972,59.416C48.24,59.315 48.5,59.192 48.762,59.078C48.838,59.179 48.8,59.3 48.675,59.366C48.567,59.422 48.46,59.479 48.355,59.539C48.323,59.557 48.296,59.585 48.255,59.618C48.436,59.71 48.606,59.715 48.784,59.67C48.721,59.776 48.613,59.804 48.516,59.847C48.332,59.927 48.143,59.864 47.957,59.859C47.905,59.858 47.853,59.833 47.8,59.833C47.745,59.834 47.69,59.852 47.636,59.864C47.622,59.866 47.61,59.88 47.597,59.88C47.381,59.883 47.163,59.957 46.948,59.877C46.919,59.866 46.902,59.825 46.879,59.797C46.904,59.778 46.926,59.747 46.954,59.741C47.092,59.71 47.233,59.688 47.371,59.657C47.474,59.634 47.486,59.591 47.412,59.512C47.362,59.457 47.309,59.403 47.251,59.357C47.168,59.292 47.142,59.212 47.166,59.09Z" style="fill:rgb(198,0,26);fill-rule:nonzero;"/>
        </g>
        <g transform="matrix(3.72856,0,0,3.72856,-73.6711,-161.657)">
            <path d="M47.974,68.673C48.016,68.575 48.045,68.494 48.086,68.42C48.101,68.393 48.145,68.373 48.178,68.369C48.353,68.349 48.528,68.336 48.702,68.319C48.74,68.316 48.777,68.309 48.834,68.301C48.71,68.139 48.604,67.986 48.482,67.847C48.401,67.755 48.387,67.673 48.45,67.571C48.476,67.529 48.493,67.482 48.518,67.426C48.711,67.683 48.894,67.935 49.087,68.178C49.142,68.247 49.219,68.307 49.298,68.347C49.456,68.428 49.623,68.493 49.792,68.568C49.753,68.658 49.718,68.739 49.678,68.831C49.491,68.751 49.312,68.671 49.13,68.598C49.083,68.579 49.027,68.569 48.976,68.574C48.706,68.599 48.435,68.63 48.165,68.658C48.108,68.664 48.052,68.667 47.974,68.673Z" style="fill:rgb(198,0,26);fill-rule:nonzero;"/>
        </g>
        <g transform="matrix(3.72856,0,0,3.72856,-73.6711,-161.657)">
            <path d="M38.264,56.48C38.334,56.419 38.433,56.373 38.446,56.31C38.466,56.208 38.43,56.095 38.417,55.977C38.289,56.05 38.186,56.121 38.073,56.167C38.018,56.19 37.939,56.182 37.881,56.16C37.814,56.134 37.852,56.076 37.89,56.052C38.014,55.976 38.139,55.898 38.271,55.839C38.345,55.806 38.384,55.771 38.38,55.691C38.378,55.656 38.383,55.619 38.378,55.584C38.334,55.261 38.514,55.045 38.726,54.843C38.764,54.807 38.786,54.755 38.795,54.7C38.712,54.748 38.626,54.794 38.545,54.846C38.399,54.941 38.253,55.036 38.112,55.137C38.004,55.216 37.891,55.252 37.762,55.202C37.737,55.192 37.7,55.159 37.702,55.14C37.705,55.112 37.731,55.072 37.757,55.061C38.113,54.914 38.47,54.77 38.827,54.625C38.84,54.62 38.855,54.611 38.867,54.613C38.926,54.624 38.984,54.638 39.042,54.652C39.023,54.709 39.021,54.781 38.983,54.82C38.878,54.928 38.764,55.031 38.642,55.12C38.527,55.203 38.487,55.308 38.494,55.44C38.496,55.479 38.504,55.518 38.508,55.557C38.522,55.697 38.529,55.699 38.663,55.64C38.754,55.599 38.848,55.561 38.944,55.536C38.979,55.526 39.041,55.543 39.061,55.57C39.079,55.596 39.071,55.657 39.053,55.691C39.028,55.737 38.983,55.771 38.946,55.811C38.938,55.804 38.929,55.798 38.921,55.791C38.94,55.751 38.96,55.711 38.979,55.671C38.974,55.664 38.969,55.658 38.964,55.651C38.883,55.698 38.807,55.757 38.721,55.79C38.563,55.851 38.551,55.953 38.601,56.095C38.625,56.161 38.624,56.235 38.637,56.305C38.668,56.473 38.598,56.552 38.428,56.53C38.373,56.523 38.321,56.498 38.264,56.48Z" style="fill:rgb(198,0,26);fill-rule:nonzero;"/>
        </g>
        <g transform="matrix(3.72856,0,0,3.72856,-73.6711,-161.657)">
            <path d="M41.471,64.043C41.436,64.026 41.407,64.013 41.371,63.996C41.414,63.893 41.448,63.791 41.499,63.698C41.515,63.669 41.573,63.65 41.613,63.65C42.143,63.637 42.672,63.628 43.202,63.619C43.585,63.612 43.968,63.605 44.351,63.599C44.397,63.598 44.442,63.599 44.514,63.599C44.417,63.709 44.336,63.801 44.255,63.894C44.215,63.94 44.174,63.985 44.134,64.031C43.893,64.306 43.893,64.306 43.517,64.268C43.495,64.209 43.503,64.175 43.576,64.156C43.838,64.089 43.894,64.044 44.073,63.774C44.024,63.774 43.989,63.773 43.953,63.774C43.209,63.79 42.464,63.808 41.72,63.822C41.651,63.824 41.604,63.842 41.57,63.901C41.543,63.947 41.509,63.989 41.471,64.043Z" style="fill:rgb(198,0,26);fill-rule:nonzero;"/>
        </g>
        <g transform="matrix(3.72856,0,0,3.72856,-73.6711,-161.657)">
            <path d="M34.504,63.774C34.652,63.955 34.757,64.14 34.997,64.158C35.025,64.16 35.051,64.206 35.078,64.231C35.047,64.246 35.018,64.269 34.986,64.275C34.767,64.314 34.598,64.247 34.466,64.055C34.358,63.899 34.218,63.763 34.08,63.604C34.291,63.604 34.482,63.602 34.674,63.605C35.428,63.618 36.183,63.636 36.938,63.645C37.04,63.647 37.099,63.673 37.125,63.773C37.137,63.821 37.16,63.867 37.183,63.911C37.217,63.977 37.21,64.021 37.104,64.037C37.104,64.037 37.096,64.02 37.089,64.003C37.017,63.843 36.887,63.82 36.723,63.818C36.044,63.811 35.364,63.79 34.684,63.775C34.632,63.773 34.58,63.774 34.504,63.774Z" style="fill:rgb(198,0,26);fill-rule:nonzero;"/>
        </g>
        <g transform="matrix(3.72856,0,0,3.72856,-73.6711,-161.657)">
            <path d="M47.826,68.895C47.896,68.94 47.956,68.978 48.028,69.024C47.959,69.134 47.891,69.241 47.818,69.356C48.202,69.609 48.582,69.861 48.969,70.117C48.916,70.198 48.868,70.272 48.812,70.358C48.428,70.106 48.05,69.857 47.658,69.599C47.585,69.707 47.514,69.811 47.438,69.923C47.369,69.877 47.308,69.836 47.238,69.789C47.434,69.491 47.626,69.2 47.826,68.895Z" style="fill:rgb(198,0,26);fill-rule:nonzero;"/>
        </g>
        <g transform="matrix(3.72856,0,0,3.72856,-73.6711,-161.657)">
            <path d="M35.208,64.597C35.336,64.733 35.411,64.898 35.611,64.916C35.641,64.919 35.667,64.962 35.694,64.987C35.662,65 35.632,65.02 35.598,65.026C35.409,65.06 35.267,65 35.153,64.835C35.055,64.692 34.926,64.571 34.795,64.421C34.875,64.421 34.93,64.42 34.986,64.421C35.731,64.434 36.475,64.452 37.22,64.458C37.367,64.46 37.458,64.495 37.49,64.643C37.498,64.677 37.516,64.709 37.529,64.743C37.473,64.811 37.426,64.798 37.389,64.73C37.348,64.655 37.286,64.636 37.203,64.634C36.57,64.622 35.936,64.605 35.302,64.591C35.278,64.59 35.255,64.594 35.208,64.597Z" style="fill:rgb(198,0,26);fill-rule:nonzero;"/>
        </g>
        <g transform="matrix(3.72856,0,0,3.72856,-73.6711,-161.657)">
            <path d="M43.781,64.435C43.612,64.626 43.454,64.82 43.277,64.995C43.234,65.038 43.129,65.026 43.053,65.025C43.001,65.024 42.905,65.003 42.903,64.983C42.894,64.893 42.984,64.911 43.035,64.901C43.205,64.869 43.255,64.71 43.377,64.604C43.343,64.596 43.328,64.589 43.312,64.59C42.672,64.605 42.032,64.621 41.391,64.634C41.305,64.636 41.24,64.655 41.196,64.734C41.161,64.796 41.114,64.809 41.056,64.744C41.086,64.671 41.108,64.589 41.153,64.523C41.175,64.489 41.239,64.467 41.284,64.466C41.831,64.453 42.379,64.443 42.926,64.435C43.205,64.432 43.483,64.435 43.781,64.435Z" style="fill:rgb(198,0,26);fill-rule:nonzero;"/>
        </g>
        <g transform="matrix(3.72856,0,0,3.72856,-73.6711,-161.657)">
            <path d="M50.492,62.926C50.464,62.971 50.441,63.01 50.417,63.049C50.479,63.136 50.548,63.219 50.599,63.312C50.627,63.363 50.626,63.431 50.638,63.491C50.581,63.493 50.516,63.515 50.468,63.496C50.302,63.43 50.137,63.359 49.983,63.27C49.919,63.233 49.884,63.144 49.836,63.078C49.844,63.073 49.852,63.068 49.859,63.063C49.971,63.108 50.082,63.152 50.212,63.204C50.227,63.271 50.38,63.363 50.543,63.376C50.547,63.37 50.554,63.363 50.553,63.359C50.452,63.113 50.27,62.953 50.022,62.868C50.002,62.862 49.968,62.885 49.947,62.902C49.926,62.92 49.917,62.954 49.895,62.969C49.872,62.983 49.84,62.983 49.811,62.988C49.808,62.957 49.789,62.914 49.803,62.897C49.876,62.804 49.841,62.755 49.749,62.711C49.712,62.692 49.685,62.653 49.667,62.605C49.748,62.64 49.83,62.675 49.911,62.711C49.919,62.7 49.928,62.689 49.936,62.679C49.878,62.618 49.823,62.553 49.761,62.497C49.716,62.457 49.659,62.431 49.611,62.394C49.584,62.375 49.542,62.338 49.547,62.323C49.558,62.292 49.592,62.256 49.623,62.247C49.707,62.224 49.795,62.213 49.881,62.197C49.889,62.206 49.897,62.214 49.905,62.222C49.848,62.261 49.79,62.299 49.715,62.349C49.787,62.413 49.836,62.457 49.868,62.484C49.984,62.432 50.089,62.386 50.218,62.328C50.168,62.459 50.11,62.554 49.982,62.612C50.08,62.715 50.16,62.834 50.315,62.846C50.325,62.835 50.335,62.824 50.346,62.813C50.274,62.764 50.203,62.715 50.132,62.665C50.14,62.655 50.149,62.644 50.158,62.634C50.199,62.655 50.24,62.677 50.294,62.705C50.306,62.655 50.316,62.613 50.326,62.571C50.336,62.572 50.348,62.572 50.348,62.574C50.401,62.815 50.614,62.866 50.796,62.952C50.86,62.983 50.927,63.006 50.999,63.035C50.963,63.117 50.902,63.126 50.834,63.094C50.721,63.042 50.61,62.984 50.492,62.926Z" style="fill:rgb(198,0,26);fill-rule:nonzero;"/>
        </g>
        <g transform="matrix(3.72856,0,0,3.72856,-73.6711,-161.657)">
            <path d="M40.034,70.214C39.969,70.237 39.927,70.258 39.882,70.268C39.684,70.313 39.51,70.207 39.473,70.021C39.437,69.838 39.558,69.664 39.749,69.625C40.029,69.568 40.231,69.716 40.256,70.002C40.273,70.198 40.267,70.394 40.099,70.534C39.959,70.652 39.795,70.651 39.633,70.589C39.589,70.572 39.541,70.522 39.528,70.478C39.517,70.44 39.554,70.388 39.57,70.342C39.614,70.359 39.677,70.363 39.699,70.395C39.737,70.45 39.748,70.522 39.841,70.508C39.936,70.494 39.984,70.433 40.01,70.35C40.023,70.31 40.025,70.268 40.034,70.214ZM39.71,69.946C39.71,70.071 39.763,70.137 39.862,70.138C39.962,70.138 40.021,70.069 40.021,69.95C40.022,69.824 39.962,69.749 39.862,69.751C39.766,69.754 39.71,69.825 39.71,69.946Z" style="fill:rgb(198,0,26);fill-rule:nonzero;"/>
        </g>
        <g transform="matrix(3.72856,0,0,3.72856,-73.6711,-161.657)">
            <path d="M41.376,73.086C41.474,73.074 41.562,73.063 41.663,73.05C41.732,73.588 41.799,74.118 41.868,74.662C41.769,74.674 41.679,74.686 41.58,74.699C41.511,74.156 41.444,73.626 41.376,73.086Z" style="fill:rgb(198,0,26);fill-rule:nonzero;"/>
        </g>
        <g transform="matrix(3.72856,0,0,3.72856,-73.6711,-161.657)">
            <path d="M31.722,70.022C31.668,69.933 31.623,69.857 31.573,69.773C32.038,69.491 32.495,69.212 32.961,68.929C33.012,69.013 33.06,69.091 33.112,69.176C32.647,69.459 32.19,69.737 31.722,70.022Z" style="fill:rgb(198,0,26);fill-rule:nonzero;"/>
        </g>
        <g transform="matrix(3.72856,0,0,3.72856,-73.6711,-161.657)">
            <path d="M48.949,63.103C48.993,63.144 49.037,63.185 49.081,63.225C49.091,63.215 49.102,63.204 49.112,63.193C49.051,63.141 48.994,63.084 48.928,63.039C48.901,63.022 48.855,63.021 48.821,63.028C48.618,63.069 48.417,63.121 48.213,63.155C48.164,63.164 48.098,63.131 48.055,63.097C48.04,63.086 48.07,63.012 48.085,62.969C48.135,62.832 48.186,62.695 48.239,62.559C48.259,62.508 48.283,62.46 48.315,62.39C48.315,62.56 48.315,62.701 48.315,62.842C48.316,62.927 48.351,62.962 48.442,62.952C48.538,62.942 48.635,62.951 48.732,62.951C48.77,62.951 48.807,62.946 48.865,62.942C48.781,62.798 48.756,62.664 48.845,62.503C48.907,62.579 48.967,62.641 49.014,62.713C49.169,62.949 49.324,63.185 49.467,63.428C49.49,63.467 49.471,63.555 49.439,63.596C49.398,63.65 49.343,63.608 49.305,63.564C49.177,63.419 49.05,63.273 48.922,63.128C48.931,63.119 48.94,63.111 48.949,63.103Z" style="fill:rgb(198,0,26);fill-rule:nonzero;"/>
        </g>
        <g transform="matrix(3.72856,0,0,3.72856,-73.6711,-161.657)">
            <path d="M48.191,71.158C48.124,71.237 48.067,71.305 48.004,71.379C47.591,71.027 47.183,70.679 46.767,70.324C46.83,70.249 46.889,70.18 46.953,70.103C47.367,70.456 47.774,70.803 48.191,71.158Z" style="fill:rgb(198,0,26);fill-rule:nonzero;"/>
        </g>
        <g transform="matrix(3.72856,0,0,3.72856,-73.6711,-161.657)">
            <path d="M33.403,72.046C33.332,71.978 33.269,71.917 33.194,71.846C33.587,71.465 33.972,71.091 34.361,70.714C34.43,70.785 34.492,70.849 34.561,70.921C34.176,71.295 33.791,71.669 33.403,72.046Z" style="fill:rgb(198,0,26);fill-rule:nonzero;"/>
        </g>
        <g transform="matrix(3.72856,0,0,3.72856,-73.6711,-161.657)">
            <path d="M41.42,55.616C41.383,55.696 41.347,55.777 41.309,55.856C41.269,55.94 41.277,56.044 41.175,56.1C41.091,56.147 41.046,56.128 41,56.054C40.917,55.924 40.924,55.846 41.024,55.796C41.157,55.729 41.288,55.659 41.419,55.587C41.55,55.515 41.561,55.38 41.605,55.235C41.532,55.255 41.483,55.274 41.432,55.279C41.407,55.281 41.38,55.258 41.354,55.246C41.367,55.22 41.372,55.181 41.393,55.17C41.468,55.128 41.548,55.098 41.625,55.06C41.656,55.045 41.689,55.027 41.711,55.002C41.749,54.958 41.778,54.916 41.84,54.972C41.849,54.98 41.882,54.958 41.905,54.955C41.942,54.951 41.978,54.952 42.015,54.951C42.016,55 42.03,55.056 42.012,55.097C41.999,55.126 41.943,55.146 41.904,55.152C41.789,55.169 41.723,55.236 41.695,55.341C41.653,55.491 41.62,55.643 41.581,55.794C41.538,55.959 41.493,56.124 41.449,56.289C41.441,56.32 41.437,56.353 41.435,56.385C41.426,56.531 41.383,56.561 41.234,56.518C41.312,56.225 41.39,55.931 41.468,55.637C41.452,55.63 41.436,55.623 41.42,55.616Z" style="fill:rgb(198,0,26);fill-rule:nonzero;"/>
        </g>
        <g transform="matrix(3.72856,0,0,3.72856,-73.6711,-161.657)">
            <path d="M41.068,70.082C41.184,70.135 41.245,70.214 41.232,70.338C41.217,70.473 41.133,70.563 41.013,70.588C40.892,70.614 40.759,70.616 40.635,70.597C40.515,70.579 40.432,70.461 40.456,70.367C40.467,70.324 40.523,70.274 40.565,70.267C40.593,70.262 40.662,70.328 40.662,70.361C40.66,70.437 40.681,70.478 40.754,70.489C40.833,70.501 40.907,70.491 40.949,70.413C41.016,70.289 40.948,70.153 40.808,70.147C40.721,70.142 40.701,70.111 40.724,70.027C40.762,70.019 40.811,70.022 40.842,70C40.881,69.972 40.925,69.926 40.932,69.883C40.938,69.846 40.905,69.78 40.871,69.764C40.83,69.745 40.768,69.757 40.72,69.771C40.704,69.776 40.692,69.832 40.698,69.861C40.711,69.935 40.676,69.974 40.613,69.985C40.543,69.997 40.493,69.964 40.484,69.889C40.472,69.796 40.518,69.729 40.592,69.683C40.73,69.597 40.879,69.593 41.025,69.654C41.216,69.735 41.234,69.903 41.068,70.082Z" style="fill:rgb(198,0,26);fill-rule:nonzero;"/>
        </g>
        <g transform="matrix(3.72856,0,0,3.72856,-73.6711,-161.657)">
            <path d="M49.386,62.976C49.477,63.029 49.567,63.083 49.657,63.137C49.664,63.131 49.671,63.124 49.679,63.118C49.663,63.091 49.651,63.058 49.63,63.036C49.405,62.796 49.176,62.561 48.955,62.319C48.875,62.23 48.808,62.128 48.747,62.025C48.707,61.956 48.726,61.882 48.8,61.841C48.822,61.829 48.875,61.838 48.889,61.856C49.079,62.105 49.27,62.355 49.451,62.61C49.577,62.787 49.69,62.974 49.807,63.158C49.85,63.225 49.842,63.286 49.769,63.331C49.698,63.374 49.669,63.314 49.63,63.274C49.542,63.182 49.453,63.091 49.364,62.999C49.371,62.992 49.379,62.984 49.386,62.976Z" style="fill:rgb(198,0,26);fill-rule:nonzero;"/>
        </g>
        <g transform="matrix(3.72856,0,0,3.72856,-73.6711,-161.657)">
            <path d="M38.647,70.609C38.627,70.536 38.631,70.496 38.704,70.489C38.772,70.483 38.799,70.437 38.798,70.369C38.796,70.219 38.797,70.069 38.798,69.918C38.798,69.853 38.781,69.81 38.706,69.798C38.681,69.795 38.661,69.758 38.638,69.737C38.663,69.719 38.685,69.69 38.712,69.684C38.808,69.663 38.906,69.649 39.023,69.629C39.023,69.74 39.023,69.839 39.023,69.937C39.023,70.077 39.025,70.216 39.022,70.356C39.02,70.432 39.047,70.475 39.124,70.494C39.15,70.5 39.169,70.539 39.191,70.563C39.164,70.579 39.137,70.606 39.109,70.607C38.956,70.612 38.803,70.609 38.647,70.609Z" style="fill:rgb(198,0,26);fill-rule:nonzero;"/>
        </g>
        <g transform="matrix(3.72856,0,0,3.72856,-73.6711,-161.657)">
            <path d="M42.116,70.505C42.137,70.581 42.117,70.612 42.041,70.611C41.888,70.607 41.735,70.61 41.577,70.61C41.564,70.544 41.553,70.497 41.636,70.488C41.705,70.481 41.729,70.434 41.728,70.367C41.725,70.216 41.726,70.066 41.727,69.916C41.728,69.85 41.706,69.805 41.632,69.801C41.555,69.797 41.56,69.749 41.577,69.696C41.696,69.675 41.814,69.654 41.952,69.63L41.952,69.838C41.952,69.992 41.952,70.146 41.952,70.299C41.952,70.468 41.953,70.468 42.116,70.505Z" style="fill:rgb(198,0,26);fill-rule:nonzero;"/>
        </g>
        <g transform="matrix(3.72856,0,0,3.72856,-73.6711,-161.657)">
            <path d="M41.404,55.019C41.519,54.911 41.631,54.799 41.749,54.695C41.853,54.603 41.96,54.516 42.072,54.435C42.105,54.411 42.157,54.415 42.201,54.407C42.2,54.455 42.21,54.507 42.196,54.55C42.16,54.655 42.071,54.708 41.975,54.754C41.789,54.844 41.605,54.937 41.42,55.029C41.414,55.026 41.409,55.022 41.404,55.019Z" style="fill:rgb(198,0,26);fill-rule:nonzero;"/>
        </g>
        <g transform="matrix(3.72856,0,0,3.72856,-73.6711,-161.657)">
            <path d="M47.422,60.021C47.457,60.051 47.501,60.077 47.527,60.114C47.603,60.227 47.676,60.343 47.742,60.462C47.755,60.485 47.735,60.533 47.719,60.563C47.715,60.57 47.665,60.555 47.638,60.547C47.565,60.524 47.494,60.5 47.418,60.475C47.55,60.314 47.423,60.18 47.422,60.021Z" style="fill:rgb(198,0,26);fill-rule:nonzero;"/>
        </g>
        <g transform="matrix(3.72856,0,0,3.72856,-73.6711,-161.657)">
            <path d="M43.376,67.95L43.376,67.725C43.413,67.723 43.447,67.719 43.481,67.719C44.637,67.719 45.793,67.719 46.949,67.718C47.031,67.718 47.093,67.738 47.096,67.832C47.098,67.923 47.045,67.957 46.959,67.957C45.786,67.957 44.612,67.957 43.438,67.956C43.421,67.956 43.404,67.953 43.376,67.95Z" style="fill:rgb(198,0,26);fill-rule:nonzero;"/>
        </g>
    </g>
</svg>
