<?xml version="1.0" encoding="UTF-8" standalone="no"?>
<!DOCTYPE svg PUBLIC "-//W3C//DTD SVG 1.1//EN" "http://www.w3.org/Graphics/SVG/1.1/DTD/svg11.dtd">
<svg width="100%" height="100%" viewBox="0 0 154 157" version="1.1" xmlns="http://www.w3.org/2000/svg" xmlns:xlink="http://www.w3.org/1999/xlink" xml:space="preserve" xmlns:serif="http://www.serif.com/" style="fill-rule:evenodd;clip-rule:evenodd;stroke-linejoin:round;stroke-miterlimit:2;">
    <g>
        <g transform="matrix(3.09213,0,0,3.09215,-56.4874,-119.923)">
            <path d="M43.17,48C52.076,48 59.34,55.264 59.34,64.17C59.34,73.076 52.076,80.34 43.17,80.34C34.264,80.34 27,73.076 27,64.17C27,55.264 34.264,48 43.17,48ZM43.17,48.644C34.619,48.644 27.644,55.619 27.644,64.17C27.644,72.721 34.619,79.696 43.17,79.696C51.722,79.696 58.696,72.721 58.696,64.17C58.696,55.619 51.722,48.644 43.17,48.644Z" style="fill:rgb(0,78,162);fill-rule:nonzero;"/>
        </g>
        <g transform="matrix(3.09213,0,0,3.09215,-56.4874,-119.923)">
            <path d="M37.49,71.062C36.478,70.226 35.652,69.171 35.084,67.971C34.538,66.816 34.233,65.527 34.233,64.17C34.233,59.248 38.248,55.233 43.17,55.233C48.092,55.233 52.107,59.248 52.107,64.17C52.107,65.527 51.801,66.816 51.256,67.971C50.689,69.171 49.862,70.226 48.849,71.062L48.644,70.814C49.621,70.007 50.418,68.99 50.965,67.834C51.491,66.721 51.785,65.479 51.785,64.17C51.785,59.425 47.915,55.555 43.17,55.555C38.425,55.555 34.555,59.425 34.555,64.17C34.555,65.479 34.849,66.721 35.375,67.834C35.922,68.99 36.719,70.007 37.696,70.814L37.49,71.062Z" style="fill:rgb(0,78,162);fill-rule:nonzero;"/>
        </g>
        <g transform="matrix(3.09213,0,0,3.09215,-56.4874,-119.923)">
            <path d="M43.224,72.423L41.394,69.63C41.956,69.341 41.887,68.439 41.405,68.364C40.869,68.28 40.442,68.254 40.066,67.411L40.938,67.411L40.67,66.681C39.673,66.768 39.469,66.491 38.996,65.712L40.242,65.669L39.991,65.033C38.633,65.096 38.274,64.763 37.935,63.989L39.518,63.934L39.175,63.177C37.555,63.222 37.212,63.177 36.618,62.081L38.63,62.071L38.347,61.35C36.512,61.429 36.054,61.25 35.534,60.332L39.658,60.228C40.259,60.213 40.945,60.622 41.198,61.167L41.694,62.237L42.216,60.437C42.485,59.509 44.512,59.845 45.165,60.463L43.939,60.906L44.539,62.368C44.974,61.35 45.506,60.228 46.653,60.228L50.698,60.228C50.387,61.121 49.635,61.567 48.002,61.278L47.715,62.035L49.732,62.028C49.25,63.154 48.714,63.295 47.213,63.125L46.9,63.881L48.506,63.934C48.197,64.647 47.638,65.073 46.398,64.925L46.137,65.662L47.416,65.656C47.049,66.552 46.813,66.752 45.647,66.7L45.38,67.431L46.301,67.434C45.914,68.214 45.799,68.307 44.973,68.38C44.481,68.424 44.262,69.21 44.916,69.676L43.224,72.423Z" style="fill:rgb(0,78,162);"/>
        </g>
        <g transform="matrix(3.09213,0,0,3.09215,-56.4874,-119.923)">
            <path d="M29.323,69.567L28.713,67.931L29.047,67.816L31.841,68.242L31.414,67.094L31.747,66.978L32.305,68.477L31.972,68.593L29.177,68.167L29.656,69.452L29.323,69.567Z" style="fill:rgb(0,78,162);"/>
        </g>
        <g transform="matrix(3.09213,0,0,3.09215,-56.4874,-119.923)">
            <path d="M30.387,71.799L30.219,71.472L31.534,70.796L31.117,69.985L29.802,70.661L29.634,70.334L32.444,68.889L32.612,69.216L31.429,69.824L31.846,70.635L33.029,70.026L33.197,70.354L30.387,71.799Z" style="fill:rgb(0,78,162);"/>
        </g>
        <g transform="matrix(3.09213,0,0,3.09215,-56.4874,-119.923)">
            <path d="M31.72,73.579L30.722,72.185L33.357,70.548L34.307,71.874L34.014,72.056L33.29,71.044L32.472,71.552L33.138,72.481L32.846,72.663L32.18,71.733L31.239,72.317L32.013,73.397L31.72,73.579Z" style="fill:rgb(0,78,162);"/>
        </g>
        <g transform="matrix(3.09213,0,0,3.09215,-56.4874,-119.923)">
            <path d="M33.96,75.77L33.625,75.488L35.565,73.105L35.9,73.387L33.96,75.77Z" style="fill:rgb(0,78,162);"/>
        </g>
        <g transform="matrix(3.09213,0,0,3.09215,-56.4874,-119.923)">
            <path d="M35.462,76.82L35.859,75.975L35.378,75.626L34.661,76.324L34.333,76.071L36.607,73.824L37.063,74.103L35.852,77.039L35.462,76.82ZM36.043,75.562L36.517,74.473L36.473,74.437L35.653,75.271L36.043,75.562Z" style="fill:rgb(0,78,162);"/>
        </g>
        <g transform="matrix(3.09213,0,0,3.09215,-56.4874,-119.923)">
            <path d="M37.741,77.922L37.331,77.731L37.57,75.538L36.672,77.381L36.262,77.193L37.688,74.37L38.058,74.542L37.886,76.625L38.812,74.905L39.157,75.048L37.741,77.922Z" style="fill:rgb(0,78,162);"/>
        </g>
        <g transform="matrix(3.09213,0,0,3.09215,-56.4874,-119.923)">
            <path d="M39.863,78.555L39.599,78.468L39.623,78.22C39.561,78.273 39.479,78.307 39.377,78.322C39.274,78.338 39.172,78.329 39.068,78.295C38.849,78.224 38.687,78.052 38.582,77.779C38.477,77.507 38.498,77.132 38.645,76.655C38.806,76.134 39.003,75.771 39.238,75.566C39.473,75.362 39.83,75.248 40.145,75.35C40.485,75.458 40.706,75.876 40.608,76.454L40.202,76.421C40.272,76.173 40.237,75.787 39.995,75.708C39.799,75.644 39.579,75.705 39.44,75.861C39.3,76.017 39.164,76.311 39.03,76.744C38.904,77.155 38.869,77.454 38.925,77.644C38.98,77.833 39.077,77.95 39.212,77.994C39.347,78.038 39.47,78.02 39.58,77.94C39.691,77.86 39.78,77.708 39.849,77.487L39.905,77.304L39.421,77.146L39.519,76.83L40.315,77.09L39.863,78.555Z" style="fill:rgb(0,78,162);"/>
        </g>
        <g transform="matrix(3.09213,0,0,3.09215,-56.4874,-119.923)">
            <path d="M44.067,77.858C44.058,78.143 43.982,78.366 43.839,78.527C43.697,78.688 43.477,78.762 43.18,78.751C42.883,78.74 42.669,78.649 42.537,78.478C42.405,78.306 42.343,78.078 42.353,77.794L42.422,75.641L42.802,75.655L42.732,77.808C42.725,78.01 42.765,78.159 42.85,78.258C42.935,78.356 43.048,78.408 43.191,78.414C43.334,78.419 43.451,78.375 43.542,78.284C43.633,78.192 43.682,78.046 43.688,77.844L43.758,75.691L44.137,75.705L44.067,77.858Z" style="fill:rgb(0,78,162);"/>
        </g>
        <g transform="matrix(3.09213,0,0,3.09215,-56.4874,-119.923)">
            <path d="M46.224,78.433L45.886,78.484L44.82,76.43L44.983,78.635L44.581,78.693L44.345,75.6L44.808,75.557L45.687,76.998L45.524,75.447L45.859,75.39L46.224,78.433Z" style="fill:rgb(0,78,162);"/>
        </g>
        <g transform="matrix(3.09213,0,0,3.09215,-56.4874,-119.923)">
            <path d="M47.38,78.109L46.983,78.229L46.159,75.302L46.555,75.182L47.38,78.109Z" style="fill:rgb(0,78,162);"/>
        </g>
        <g transform="matrix(3.09213,0,0,3.09215,-56.4874,-119.923)">
            <path d="M48.449,74.399L48.951,77.631L48.56,77.824L46.847,75.081L47.224,74.922L48.414,76.793L48.084,74.558L48.449,74.399Z" style="fill:rgb(0,78,162);"/>
        </g>
        <g transform="matrix(3.09213,0,0,3.09215,-56.4874,-119.923)">
            <path d="M51.629,76.231L50.184,77.012L48.611,74.311L49.985,73.569L50.16,73.868L49.112,74.435L49.599,75.273L50.563,74.752L50.737,75.052L49.774,75.573L50.335,76.536L51.455,75.931L51.629,76.231Z" style="fill:rgb(0,78,162);"/>
        </g>
        <g transform="matrix(3.09213,0,0,3.09215,-56.4874,-119.923)">
            <path d="M53.275,75.077L52.957,75.349L51.838,74.421L51.548,74.683L52.305,75.712L51.987,76.045L50.134,73.443L50.724,73.02C50.913,72.885 51.162,72.788 51.385,72.815C51.962,72.883 52.209,73.272 52.182,73.724C52.174,73.867 52.166,74.006 52.11,74.147L53.275,75.077ZM51.278,73.244C51.043,73.18 50.858,73.362 50.688,73.495L51.304,74.308C51.492,74.172 51.58,74.143 51.722,73.897C51.784,73.602 51.652,73.347 51.278,73.244Z" style="fill:rgb(0,78,162);"/>
        </g>
        <g transform="matrix(3.09213,0,0,3.09215,-56.4874,-119.923)">
            <path d="M54.275,72.565C54.921,72.953 54.77,74.054 53.921,74.183C53.693,74.218 53.424,74.149 53.309,74.076L53.454,73.746C53.594,73.777 53.735,73.828 53.87,73.802C54.42,73.698 54.395,73.126 54.075,72.889C53.963,72.807 53.803,72.796 53.67,72.811C53.299,72.852 53.062,73.129 52.649,73.155C52.197,73.184 51.883,72.908 51.809,72.469C51.77,72.236 51.825,72.01 51.941,71.828C52.18,71.454 52.687,71.404 53.057,71.622L52.913,71.962C52.713,71.855 52.359,71.856 52.225,72.065C52.155,72.174 52.131,72.286 52.152,72.4C52.199,72.648 52.368,72.792 52.607,72.763C53.008,72.714 53.279,72.384 53.673,72.397C53.862,72.403 54.084,72.451 54.275,72.565Z" style="fill:rgb(0,78,162);"/>
        </g>
        <g transform="matrix(3.09213,0,0,3.09215,-56.4874,-119.923)">
            <path d="M55.637,72.164L55.405,72.449L52.741,70.779L52.974,70.494L55.637,72.164Z" style="fill:rgb(0,78,162);"/>
        </g>
        <g transform="matrix(3.09213,0,0,3.09215,-56.4874,-119.923)">
            <path d="M54.293,68.795L53.998,69.341L56.514,70.82L56.344,71.134L53.829,69.655L53.534,70.201L53.22,70.016L53.979,68.61L54.293,68.795Z" style="fill:rgb(0,78,162);"/>
        </g>
        <g transform="matrix(3.09213,0,0,3.09215,-56.4874,-119.923)">
            <path d="M54.754,66.717L56.289,68.088L57.313,68.527L57.188,68.872L56.239,68.505L54.054,68.454L54.159,68.104L55.684,68.129L54.604,67.135L54.754,66.717Z" style="fill:rgb(0,78,162);"/>
        </g>
        <g transform="matrix(3.09213,0,0,3.09215,-56.4874,-119.923)">
            <path d="M33.725,74.394C33.453,74.664 33.2,74.804 32.965,74.811C32.73,74.819 32.517,74.726 32.326,74.531C32.151,74.354 32.065,74.147 32.067,73.911C32.068,73.791 32.103,73.668 32.171,73.541L32.517,73.752C32.487,73.812 32.472,73.869 32.47,73.924C32.467,74.052 32.507,74.159 32.59,74.244C32.706,74.363 32.828,74.416 32.956,74.406C33.085,74.395 33.241,74.298 33.425,74.115L34.961,72.595L35.247,72.887L33.725,74.394Z" style="fill:rgb(0,78,162);"/>
        </g>
        <g transform="matrix(3.09213,0,0,3.09215,-56.4874,-119.923)">
            <path d="M38.951,73.861L37.874,73.193L37.972,73.024L38.371,73.273L39.012,72.158L38.612,71.909L38.699,71.758C38.85,71.852 38.971,71.905 39.061,71.917C39.151,71.928 39.227,71.893 39.288,71.808L39.517,71.95L38.657,73.449L39.048,73.691L38.951,73.861ZM42.162,73.181C42.179,73.095 42.149,73.018 42.072,72.948C41.994,72.879 41.877,72.833 41.719,72.811C41.575,72.791 41.452,72.801 41.35,72.839C41.247,72.877 41.187,72.939 41.169,73.027C41.156,73.091 41.169,73.147 41.207,73.197C41.245,73.247 41.307,73.296 41.394,73.344C41.433,73.364 41.491,73.394 41.57,73.431C41.649,73.468 41.721,73.499 41.787,73.523C41.914,73.482 42.004,73.433 42.058,73.38C42.111,73.325 42.146,73.258 42.162,73.181ZM42.022,74.145C42.038,74.066 42.027,74.001 41.989,73.948C41.95,73.895 41.868,73.835 41.741,73.768C41.699,73.747 41.643,73.721 41.573,73.691C41.502,73.662 41.422,73.628 41.333,73.589C41.214,73.622 41.118,73.667 41.046,73.728C40.973,73.788 40.928,73.864 40.911,73.951C40.887,74.067 40.922,74.168 41.015,74.259C41.107,74.349 41.235,74.407 41.398,74.428C41.564,74.452 41.704,74.438 41.817,74.388C41.931,74.336 41.999,74.256 42.022,74.145ZM41.354,74.619C41.208,74.598 41.077,74.566 40.962,74.521C40.847,74.476 40.753,74.422 40.679,74.356C40.606,74.294 40.556,74.224 40.527,74.147C40.498,74.071 40.492,73.994 40.508,73.914C40.529,73.811 40.591,73.722 40.694,73.647C40.797,73.572 40.935,73.521 41.108,73.491L41.109,73.484C40.975,73.409 40.879,73.335 40.822,73.26C40.765,73.185 40.747,73.099 40.767,73.002C40.796,72.857 40.904,72.749 41.091,72.677C41.279,72.604 41.502,72.587 41.76,72.622C42.029,72.659 42.235,72.735 42.378,72.85C42.522,72.962 42.579,73.091 42.551,73.232C42.533,73.317 42.478,73.397 42.383,73.47C42.288,73.543 42.164,73.593 42.008,73.619L42.007,73.627C42.168,73.703 42.286,73.785 42.359,73.871C42.434,73.958 42.458,74.06 42.434,74.176C42.401,74.34 42.282,74.464 42.076,74.549C41.87,74.634 41.629,74.658 41.354,74.619ZM45.079,73.439C45.079,73.307 45.061,73.199 45.025,73.117C44.989,73.035 44.938,72.971 44.874,72.926C44.818,72.884 44.76,72.855 44.702,72.839C44.643,72.825 44.579,72.816 44.508,72.816C44.349,72.816 44.221,72.855 44.127,72.931C44.031,73.007 43.984,73.117 43.984,73.262C43.984,73.344 43.999,73.41 44.031,73.463C44.062,73.516 44.112,73.563 44.184,73.6C44.232,73.626 44.289,73.645 44.351,73.655C44.412,73.664 44.48,73.668 44.551,73.668C44.634,73.668 44.724,73.658 44.82,73.639C44.916,73.619 45,73.593 45.071,73.562C45.073,73.548 45.075,73.531 45.077,73.51C45.079,73.489 45.079,73.466 45.079,73.439ZM43.589,73.273C43.589,73.172 43.613,73.082 43.661,73C43.71,72.917 43.777,72.846 43.862,72.786C43.941,72.729 44.04,72.685 44.157,72.652C44.273,72.62 44.391,72.605 44.511,72.605C44.645,72.605 44.766,72.619 44.874,72.649C44.982,72.679 45.076,72.722 45.155,72.779C45.256,72.85 45.333,72.943 45.388,73.057C45.443,73.173 45.471,73.319 45.471,73.495C45.471,73.655 45.444,73.807 45.39,73.95C45.336,74.094 45.257,74.213 45.152,74.307C45.04,74.407 44.906,74.484 44.749,74.537C44.592,74.59 44.399,74.616 44.169,74.616C44.117,74.616 44.062,74.615 44.004,74.611C43.945,74.607 43.89,74.599 43.839,74.589L43.839,74.34L43.859,74.34C43.892,74.353 43.942,74.365 44.012,74.376C44.08,74.387 44.151,74.393 44.222,74.393C44.476,74.393 44.677,74.337 44.822,74.226C44.968,74.113 45.05,73.953 45.069,73.745C44.966,73.792 44.867,73.827 44.773,73.849C44.678,73.871 44.576,73.881 44.465,73.881C44.357,73.881 44.26,73.873 44.171,73.857C44.083,73.842 43.994,73.811 43.904,73.767C43.8,73.713 43.722,73.647 43.668,73.566C43.615,73.484 43.589,73.387 43.589,73.273ZM47.81,71.618L47.739,73.614L47.433,73.807L47.46,71.92L46.294,72.486L46.192,72.261L47.658,71.5L47.81,71.618Z" style="fill:rgb(0,78,162);"/>
        </g>
        <g transform="matrix(3.09213,0,0,3.09215,-56.4874,-119.923)">
            <path d="M49.276,56.354C49.061,56.209 49.231,56.191 49.274,55.974C49.311,55.788 49.222,55.555 49.278,55.428C49.429,55.086 49.866,55.286 50.092,55.504C50.132,55.543 50.16,55.638 50.181,55.73C50.233,55.958 50.275,56.275 50.005,56.395C49.772,56.498 49.463,56.48 49.276,56.354Z" style="fill:rgb(0,78,162);"/>
        </g>
        <g transform="matrix(3.09213,0,0,3.09215,-56.4874,-119.923)">
            <path d="M46.738,54.922C46.732,54.915 46.725,54.909 46.719,54.903C46.731,54.877 46.743,54.852 46.754,54.83C46.839,54.831 47.648,54.668 47.653,54.65C47.9,54.577 48.133,54.478 48.282,54.259C47.762,54.226 47.193,54.387 46.703,54.233C46.503,54.09 46.4,53.91 46.272,53.781C46.276,53.77 46.278,53.762 46.281,53.754C46.095,53.489 46.156,53.268 46.47,53.287C46.907,53.585 47.777,53.536 48.297,53.544C48.416,53.539 48.749,53.552 48.865,53.492C49.224,52.902 49.408,52.24 49.687,51.65C50.016,51.274 50.194,51.706 50.353,52.007C50.373,52.045 50.403,52.116 50.425,52.219C50.433,52.222 50.493,52.552 50.246,52.652C50.008,52.901 49.818,53.208 49.696,53.556C50.044,53.641 50.358,53.432 50.742,53.579C50.763,53.792 50.691,53.938 50.464,54.018C50.133,54.04 49.784,54.039 49.412,54.056C49.211,54.346 48.927,54.687 48.599,54.857C48.551,54.882 48.328,54.968 48.28,54.975C48.028,55.012 47.787,55.084 47.538,55.057C46.851,54.982 46.855,54.95 46.738,54.922Z" style="fill:rgb(0,78,162);"/>
        </g>
        <g transform="matrix(3.09213,0,0,3.09215,-56.4874,-119.923)">
            <path d="M38.644,56.039C38.36,55.988 38.052,55.743 37.866,55.589C37.871,55.515 37.876,55.441 37.887,55.37C38.365,54.769 38.846,54.201 39.246,53.528C39.344,53.234 39.489,52.915 39.599,52.621C39.606,52.615 39.621,52.584 39.618,52.577C39.74,52.418 39.796,52.37 39.975,52.531C40.028,52.691 39.766,52.938 39.729,53.119C39.665,53.436 39.495,54.235 39.377,54.539C39.301,54.733 38.979,55.81 38.782,55.985C38.733,56.001 38.688,56.02 38.644,56.039Z" style="fill:rgb(0,78,162);"/>
        </g>
        <g transform="matrix(3.09213,0,0,3.09215,-56.4874,-119.923)">
            <path d="M41.612,53.033C41.241,53.113 41.075,52.905 40.819,52.744C40.788,52.648 40.831,52.575 40.821,52.506C40.908,52.461 41.161,52.344 41.325,52.29C41.524,52.186 41.967,51.672 42.19,51.785C42.335,52.224 41.967,52.802 41.612,53.033Z" style="fill:rgb(0,78,162);"/>
        </g>
        <g transform="matrix(3.09213,0,0,3.09215,-56.4874,-119.923)">
            <path d="M38.608,53.066C38.435,52.978 38.26,52.419 38.202,52.243C38.224,51.898 38.539,51.803 38.858,51.939C39.143,52.162 39.317,52.24 39.181,52.623C38.987,52.907 38.879,52.951 38.608,53.066Z" style="fill:rgb(0,78,162);"/>
        </g>
        <g transform="matrix(3.09213,0,0,3.09215,-56.4874,-119.923)">
            <path d="M41.256,52.08C41.173,51.917 41.314,51.486 41.223,51.414C41.138,51.451 41.055,51.508 40.963,51.538C40.715,51.489 40.402,51.283 40.435,51.052C40.551,50.824 40.5,50.887 40.752,50.804C40.966,50.632 41.181,50.464 41.4,50.295C41.792,50.111 42.04,50.287 42.17,50.684C42.166,50.965 42.045,51.216 41.929,51.466C41.741,51.642 41.578,51.826 41.413,52.007C41.358,52.03 41.307,52.055 41.256,52.08Z" style="fill:rgb(0,78,162);"/>
        </g>
        <g transform="matrix(3.09213,0,0,3.09215,-56.4874,-119.923)">
            <path d="M38.698,51.501C38.591,51.448 38.617,51.397 38.642,51.308C38.587,51.14 38.449,51.029 38.396,50.869C38.373,50.555 38.288,50.461 38.498,50.252C38.713,50.287 39.474,50.455 39.413,50.873C39.289,51.154 38.956,51.399 38.698,51.501Z" style="fill:rgb(0,78,162);"/>
        </g>
        <g transform="matrix(3.09213,0,0,3.09215,-56.4874,-119.923)">
            <path d="M33.518,62.806C33.194,63.049 32.546,62.894 32.446,62.455C32.374,62.145 31.981,61.272 31.813,60.8C31.728,60.654 31.63,60.54 31.684,60.374C31.793,60.341 31.922,60.458 32.019,60.547C32.068,60.533 32.144,60.411 32.138,60.329C32.114,59.985 32.101,59.608 32.04,59.268C31.95,59.197 31.861,59.125 31.778,59.052C31.72,59.227 31.523,59.796 31.318,59.502C31.362,59.269 31.379,58.886 31.242,58.66C31.068,58.483 30.824,58.368 30.743,58.173C30.766,57.897 31.185,57.815 31.437,57.915C31.638,57.924 31.619,57.548 31.871,58.161C31.879,58.262 31.98,58.321 32.093,58.374C32.11,58.351 32.127,58.328 32.144,58.305C32.128,58.041 32.112,57.752 32.124,57.471C31.866,57.23 31.65,57.03 31.492,56.733C31.481,56.443 31.803,56.262 32.086,56.165C32.172,56.006 32.168,55.871 32.154,55.671C32.17,55.607 32.17,55.607 32.235,55.505C32.334,55.509 32.417,55.54 32.53,55.602C32.768,55.887 32.327,56.804 32.778,56.858C32.863,56.703 32.732,56.549 32.657,56.426C32.674,56.202 33.008,55.908 33.247,55.814C33.606,55.768 33.592,55.97 33.606,56.28C33.624,56.322 33.642,56.364 33.662,56.402C34.131,56.717 34.131,56.717 34.782,57.118C34.984,57.292 35.006,57.581 35.026,57.668C35.039,57.723 35.134,58.134 34.922,58.169C34.389,57.837 33.858,57.461 33.34,57.16C33.335,57.171 33.333,57.183 33.332,57.192C33.566,57.393 33.889,57.958 33.91,58.28C33.794,58.492 33.568,58.588 33.358,58.538C33.318,58.484 33.331,58.436 33.32,58.371C33.157,58.108 32.702,57.869 32.47,57.724C32.39,57.905 32.589,58.42 32.651,58.633C32.665,58.759 32.678,58.885 32.694,59.008C32.854,59.192 33.019,59.359 33.197,59.544C33.264,59.649 33.334,59.755 33.403,59.862C33.398,59.873 33.394,59.88 33.39,59.887C33.472,60.046 33.657,60.513 33.347,60.527C33.316,60.51 33.287,60.494 33.261,60.475C33.155,60.234 32.957,59.976 32.748,59.839C32.687,60.085 32.783,60.345 32.672,60.548C32.605,60.672 32.471,60.734 32.377,60.773C32.276,60.815 32.213,60.837 32.206,60.874C32.297,60.983 32.402,61.087 32.489,61.202C32.836,61.662 33.13,62.115 33.526,62.555C33.555,62.679 33.551,62.714 33.518,62.806Z" style="fill:rgb(0,78,162);"/>
        </g>
        <g transform="matrix(3.09213,0,0,3.09215,-56.4874,-119.923)">
            <path d="M31.242,60.814C31.111,60.82 31.039,60.667 30.936,60.596C30.572,60.508 30.3,60.446 30.166,60.095C30.18,60.061 30.197,60.029 30.215,59.997C30.399,59.919 30.746,59.862 30.981,59.843C31.43,59.924 31.301,60.489 31.242,60.814Z" style="fill:rgb(0,78,162);"/>
        </g>
        <g transform="matrix(3.09213,0,0,3.09215,-56.4874,-119.923)">
            <path d="M30.262,59.794C30.187,59.854 30.172,59.841 30.136,59.84C30.085,59.757 30.064,59.695 29.98,59.664C29.583,59.671 29.16,59.39 29.218,58.982C29.287,58.897 29.366,58.944 29.519,58.982C29.851,58.903 30.342,58.674 30.385,59.21C30.356,59.407 30.304,59.607 30.262,59.794Z" style="fill:rgb(0,78,162);"/>
        </g>
        <g transform="matrix(3.09213,0,0,3.09215,-56.4874,-119.923)">
            <path d="M52.956,58.797C52.786,58.479 53.23,58.12 53.432,57.998C53.724,58.06 53.726,58.53 53.531,58.754C53.256,58.941 53.225,58.978 52.956,58.797Z" style="fill:rgb(0,78,162);"/>
        </g>
        <g transform="matrix(3.09213,0,0,3.09215,-56.4874,-119.923)">
            <path d="M52.449,61.97C52.445,61.956 52.444,61.945 52.441,61.936C52.107,61.646 51.837,61.321 51.654,60.944C51.666,60.906 51.666,60.906 51.7,60.866C51.961,60.933 52.17,61.189 52.468,61.14C52.622,61.024 52.752,60.924 52.853,60.794C52.523,60.507 52.14,60.562 51.804,60.409C51.58,60.214 51.393,59.652 51.496,59.423C51.765,59.151 51.701,59.329 52.01,59.598C52.416,59.877 52.959,60.018 53.438,60.201C53.562,60.218 53.562,60.218 53.617,60.24C53.914,60.088 54.006,60.099 54.287,60.284C54.424,60.328 54.424,60.328 54.852,60.43C54.885,60.41 54.918,60.391 54.953,60.374C54.499,60.022 53.845,60.028 53.305,59.926C53.101,59.812 53.005,59.665 52.943,59.504C52.862,59.444 52.386,59.116 52.741,59.148C52.908,59.219 53.085,59.223 53.269,59.293C53.777,59.389 54.304,59.56 54.82,59.695C54.868,59.64 54.876,59.594 54.88,59.571C54.95,59.503 54.996,59.48 55.068,59.447C54.985,59.407 54.972,59.385 54.915,59.42C54.634,59.315 54.376,59.41 54.397,59.061C54.184,59.189 53.945,59.189 53.763,59.031C53.677,58.77 53.961,58.474 54.063,58.307C54.067,58.278 54.154,58.141 54.235,57.962C54.315,57.723 54.347,57.399 54.588,57.348C54.788,57.394 54.866,57.414 54.805,57.686C54.828,57.843 54.849,58.145 54.821,58.28C54.775,58.498 54.696,58.809 54.494,58.985C54.639,59.021 54.874,59.044 54.921,58.862C54.851,58.63 55.075,58.575 55.232,58.627C55.303,58.704 55.303,58.704 55.409,58.791C55.443,58.751 55.44,58.749 55.443,58.709C55.36,58.541 55.413,58.534 55.548,58.465C55.455,58.267 55.551,58.058 55.715,58.004C56.246,58.317 56.246,58.317 56.509,58.449C56.806,58.414 57.396,58.103 57.57,58.441C57.557,58.615 57.455,58.83 57.283,58.973C57.183,59.008 57.081,59.021 56.995,59.084C57.022,59.108 57.047,59.135 57.071,59.161C57.336,59.249 57.523,59.224 57.366,59.594C57.447,59.855 57.532,59.892 57.22,60.079C56.848,60.208 56.448,60.344 56.06,60.459C56.046,60.469 56.033,60.478 56.022,60.49C56.048,60.529 56.073,60.567 56.096,60.608C56.003,60.74 55.867,60.883 55.729,61.018C55.465,61.07 55.33,60.938 55.138,60.792C54.815,60.686 54.531,60.583 54.207,60.504C54.167,60.543 54.121,60.578 54.089,60.651C54.195,60.749 54.302,60.853 54.409,60.956C54.451,61.147 54.232,61.35 54.036,61.404C53.901,61.302 53.814,61.248 53.675,61.207C53.607,61.254 53.539,61.302 53.469,61.352C53.256,61.586 52.836,62.247 52.449,61.97ZM55.861,59.838C55.858,59.824 55.854,59.816 55.851,59.808C56.036,59.644 56.091,59.58 55.9,59.446C55.846,59.458 55.745,59.482 55.743,59.417C55.741,59.346 56.081,59.268 56.132,59.239C56.229,59.323 56.372,59.484 56.383,59.648C56.249,59.803 56.072,59.835 55.861,59.838Z" style="fill:rgb(0,78,162);"/>
        </g>
    </g>
</svg>
