<?xml version="1.0" encoding="UTF-8" standalone="no"?>
<!DOCTYPE svg PUBLIC "-//W3C//DTD SVG 1.1//EN" "http://www.w3.org/Graphics/SVG/1.1/DTD/svg11.dtd">
<svg width="100%" height="100%" viewBox="0 0 157 157" version="1.1" xmlns="http://www.w3.org/2000/svg" xmlns:xlink="http://www.w3.org/1999/xlink" xml:space="preserve" xmlns:serif="http://www.serif.com/" style="fill-rule:evenodd;clip-rule:evenodd;stroke-linejoin:round;stroke-miterlimit:2;">
    <g transform="matrix(0.621891,0,0,0.621891,16.062,-120.816)">
        <path d="M100.4,240.1C56,240.1 20,276.2 20,320.5C20,364.8 56.1,400.9 100.4,400.9C144.8,400.9 180.8,364.8 180.8,320.5C180.8,276.2 144.8,240.1 100.4,240.1M100.4,398.4C57.5,398.4 22.5,363.5 22.5,320.5C22.5,277.6 57.4,242.6 100.4,242.6C143.3,242.6 178.3,277.5 178.3,320.5C178.3,363.4 143.4,398.4 100.4,398.4" style="fill:rgb(157,29,32);fill-rule:nonzero;"/>
    </g>
    <g transform="matrix(0.621891,0,0,0.621891,16.062,-120.816)">
        <path d="M162,320.8L161.8,322.9L165.3,325.4L161.5,327.3L161.3,329.5L166.9,326.5L170.8,326.8L171,324.9L167.1,324.6L162,320.8Z" style="fill:rgb(157,29,32);fill-rule:nonzero;"/>
    </g>
    <g transform="matrix(0.621891,0,0,0.621891,16.062,-120.816)">
        <path d="M162.7,330.4L161.2,330L159.6,337.2L161.1,337.6L161.7,334.9L169.3,336.5L169.7,334.7L162.1,333L162.7,330.4Z" style="fill:rgb(157,29,32);fill-rule:nonzero;"/>
    </g>
    <g transform="matrix(0.193657,-0.590983,0.590983,0.193657,-115.519,121.638)">
        <rect x="162.3" y="336.3" width="1.9" height="9.3" style="fill:rgb(157,29,32);"/>
    </g>
    <g transform="matrix(1,0,0,1,-247.5,-247.5)">
        <g transform="matrix(0.621891,0,0,0.621891,263.562,126.684)">
            <path d="M164,344.9C163.5,344.7 163,344.6 162.5,344.6C162,344.7 161.6,344.8 161.2,345.1C160.8,345.4 160.3,345.9 159.8,346.7C159.2,347.4 158.8,347.9 158.5,348C158.3,348.1 158.1,348.1 157.9,348C157.7,347.9 157.5,347.7 157.5,347.5C157.4,347.1 157.5,346.7 157.7,346.2C157.9,345.7 158.2,345.4 158.5,345.2C158.8,345 159.2,345 159.7,345.2L160.4,343.5C159.6,343.2 158.9,343.2 158.1,343.5C157.4,343.8 156.8,344.5 156.3,345.6C156,346.3 155.9,346.9 155.8,347.4C155.8,347.9 155.9,348.4 156.2,348.8C156.5,349.2 156.8,349.5 157.2,349.7C157.9,350 158.6,350 159.3,349.7C159.8,349.5 160.4,349 161,348.1C161.5,347.5 161.8,347.1 162,346.9C162.2,346.7 162.5,346.5 162.7,346.4C162.9,346.3 163.1,346.4 163.3,346.5C163.6,346.6 163.8,346.9 163.9,347.3C164,347.7 163.9,348.2 163.7,348.7C163.5,349.2 163.2,349.6 162.7,349.8C162.3,350 161.8,350 161.2,349.9L160.6,351.6C161.6,351.9 162.5,351.9 163.2,351.5C163.9,351.2 164.6,350.4 165.1,349.4C165.4,348.7 165.6,348 165.6,347.4C165.6,346.8 165.5,346.3 165.2,345.8C164.8,345.4 164.5,345.1 164,344.9" style="fill:rgb(157,29,32);fill-rule:nonzero;"/>
        </g>
        <g transform="matrix(0.621891,0,0,0.621891,263.562,126.684)">
            <path d="M158.3,354.9C157.9,355 157.5,355.1 157.1,355.3C157.4,354.6 157.5,353.9 157.4,353.3C157.2,352.7 156.9,352.2 156.3,351.8C155.8,351.5 155.4,351.3 154.8,351.3C154.3,351.3 153.9,351.4 153.5,351.7C153.1,352 152.7,352.5 152.1,353.4L150,356.7L157.8,361.7L158.8,360.1L155.5,358L155.7,357.7C155.9,357.3 156.1,357.1 156.3,357C156.5,356.9 156.7,356.8 156.9,356.7C157.1,356.7 157.7,356.6 158.6,356.6L161,356.6L162.2,354.7L160.1,354.7C159.3,354.8 158.7,354.9 158.3,354.9M155.9,354.8C155.8,355 155.6,355.5 155.1,356.3L154.4,357.5L152.4,356.2L153.2,355C153.6,354.4 153.9,354 154,353.9C154.2,353.7 154.4,353.5 154.7,353.5C155,353.5 155.2,353.5 155.5,353.7C155.7,353.9 155.9,354 156,354.2C155.9,354.3 155.9,354.5 155.9,354.8" style="fill:rgb(157,29,32);fill-rule:nonzero;"/>
        </g>
        <g transform="matrix(0.621891,0,0,0.621891,263.562,126.684)">
            <path d="M151.1,367.4L149.2,365.7L152.3,362.2L151.1,361.2L148,364.7L146.5,363.3L149.8,359.6L148.7,358.5L144.1,363.7L151,369.8L155.7,364.6L154.6,363.5L151.1,367.4Z" style="fill:rgb(157,29,32);fill-rule:nonzero;"/>
        </g>
        <g transform="matrix(0.621891,0,0,0.621891,263.562,126.684)">
            <path d="M141.7,365.9L144.4,372.6L138.2,368.8L136.6,370.2L145.2,375.1L146.7,373.8L143.2,364.6L141.7,365.9Z" style="fill:rgb(157,29,32);fill-rule:nonzero;"/>
        </g>
        <g transform="matrix(0.515236,-0.348259,0.348259,0.515236,147.584,214.537)">
            <rect x="136.5" y="370.5" width="1.9" height="9.3" style="fill:rgb(157,29,32);"/>
        </g>
        <g transform="matrix(0.621891,0,0,0.621891,263.562,126.684)">
            <path d="M130.6,373.9L133.5,379.4L127.2,375.7L125.6,376.5L129.9,384.7L131.5,383.9L128.7,378.6L134.8,382.2L136.5,381.3L132.2,373.1L130.6,373.9Z" style="fill:rgb(157,29,32);fill-rule:nonzero;"/>
        </g>
        <g transform="matrix(0.621891,0,0,0.621891,263.562,126.684)">
            <path d="M123.5,377.4L121.7,378L123.3,382.9C123.5,383.6 123.7,384.1 123.7,384.4C123.7,384.7 123.7,385 123.5,385.3C123.3,385.6 123,385.8 122.5,386C122,386.2 121.6,386.2 121.2,386.1C120.8,386 120.6,385.8 120.4,385.4C120.3,385.2 120.1,384.7 119.8,384L118.2,379.2L116.4,379.8L118,384.5C118.3,385.5 118.6,386.2 118.9,386.7C119.1,387 119.4,387.3 119.7,387.5C120.1,387.7 120.5,387.9 121,387.9C121.5,387.9 122.2,387.8 123,387.5C123.7,387.3 124.2,387 124.6,386.7C125,386.4 125.2,386 125.4,385.6C125.6,385.2 125.6,384.8 125.6,384.3C125.5,383.8 125.3,383.1 125,382L123.5,377.4Z" style="fill:rgb(157,29,32);fill-rule:nonzero;"/>
        </g>
        <g transform="matrix(0.621891,0,0,0.621891,263.562,126.684)">
            <path d="M108.6,381.3L108.9,384.9L105.3,385.3L104.9,381.7L103,381.8L104,391.1L105.8,390.9L105.4,386.9L109.1,386.5L109.5,390.5L111.4,390.3L110.4,381.1L108.6,381.3Z" style="fill:rgb(157,29,32);fill-rule:nonzero;"/>
        </g>
        <g transform="matrix(0.621891,0,0,0.621891,263.562,126.684)">
            <path d="M95.5,383.8C96,383.3 96.5,383.1 97.2,383.1C97.7,383.1 98.1,383.3 98.4,383.6C98.7,383.9 98.9,384.3 99,384.8L100.9,384.5C100.7,383.8 100.4,383.2 100,382.7C99.3,382 98.4,381.6 97.3,381.5C96,381.4 94.9,381.8 94.1,382.6C93.2,383.4 92.8,384.6 92.7,386.1C92.6,387.6 93,388.7 93.7,389.6C94.5,390.5 95.4,391 96.7,391C97.7,391.1 98.5,390.9 99.2,390.4C99.9,389.9 100.4,389.2 100.7,388.2L98.9,387.5C98.7,388.2 98.4,388.7 98,389C97.6,389.3 97.2,389.4 96.7,389.4C96,389.4 95.5,389.1 95.1,388.6C94.7,388.1 94.5,387.2 94.6,386.1C94.8,385.1 95,384.3 95.5,383.8" style="fill:rgb(157,29,32);fill-rule:nonzero;"/>
        </g>
        <g transform="matrix(0.621891,0,0,0.621891,263.562,126.684)">
            <path d="M82.6,388.9L89.6,390.3L89.9,388.8L84.8,387.8L85.3,385.3L89.9,386.2L90.2,384.7L85.6,383.7L86,381.7L91,382.7L91.3,381.2L84.5,379.8L82.6,388.9Z" style="fill:rgb(157,29,32);fill-rule:nonzero;"/>
        </g>
        <g transform="matrix(0.621891,0,0,0.621891,263.562,126.684)">
            <path d="M76.1,376.9L75.6,378.4L78.2,379.3L75.5,386.6L77.3,387.2L79.9,380L82.5,380.9L83.1,379.4L76.1,376.9Z" style="fill:rgb(157,29,32);fill-rule:nonzero;"/>
        </g>
        <g transform="matrix(0.621891,0,0,0.621891,263.562,126.684)">
            <path d="M70.8,384.6L69.1,383.8L73.1,375.4L74.8,376.2L70.8,384.6Z" style="fill:rgb(157,29,32);fill-rule:nonzero;"/>
        </g>
        <g transform="matrix(0.621891,0,0,0.621891,263.562,126.684)">
            <path d="M59,377.9L60.7,378.9L62.5,377.5L65.6,379.5L65.2,381.7L66.9,382.8L68.7,372.9L67,371.8L59,377.9ZM66,377.9L63.8,376.6L66.7,374.3L66,377.9Z" style="fill:rgb(157,29,32);fill-rule:nonzero;"/>
        </g>
        <g transform="matrix(0.621891,0,0,0.621891,263.562,126.684)">
            <path d="M61.6,368L59.2,370.7L56.4,368.3L58.8,365.6L57.4,364.3L51.3,371.4L52.7,372.6L55.3,369.5L58.1,371.9L55.5,375L56.9,376.2L63,369.2L61.6,368Z" style="fill:rgb(157,29,32);fill-rule:nonzero;"/>
        </g>
        <g transform="matrix(0.621891,0,0,0.621891,263.562,126.684)">
            <path d="M50,362.5L48.8,363.5L50.2,365.2L49.3,366C49,365.9 48.6,365.8 48.2,365.6C47.8,365.4 47.5,365.1 47.3,364.8C46.8,364.2 46.6,363.5 46.7,362.8C46.8,362.1 47.3,361.4 48.1,360.6C48.9,359.9 49.6,359.6 50.3,359.7C51,359.7 51.6,360.1 52.2,360.7C52.5,361.1 52.7,361.6 52.8,362C52.8,362.4 52.7,362.9 52.4,363.3L53.9,364.5C54.4,363.8 54.7,363.1 54.6,362.2C54.6,361.4 54.2,360.5 53.4,359.7C52.8,359 52.2,358.5 51.6,358.3C50.8,358 50,357.9 49.1,358C48.3,358.2 47.5,358.6 46.7,359.2C46,359.8 45.5,360.4 45.1,361.2C44.7,362 44.7,362.8 44.8,363.6C44.9,364.4 45.3,365.2 46,366C46.5,366.6 47.1,367.1 47.8,367.5C48.5,367.9 49.1,368.1 49.7,368.2L52.6,365.8L50,362.5Z" style="fill:rgb(157,29,32);fill-rule:nonzero;"/>
        </g>
        <g transform="matrix(0.621891,0,0,0.621891,263.562,126.684)">
            <path d="M48.4,353L43,356.2L46.4,349.7L45.5,348.2L37.5,352.9L38.4,354.4L43.6,351.3L40.3,357.6L41.2,359.2L49.2,354.5L48.4,353Z" style="fill:rgb(157,29,32);fill-rule:nonzero;"/>
        </g>
        <g transform="matrix(0.621891,0,0,0.621891,263.562,126.684)">
            <path d="M42.8,341.7L32.8,341.7L33.5,343.5L35.7,343.5L37.1,347L35.4,348.5L36.1,350.4L43.4,343.5L42.8,341.7ZM38.4,345.8L37.5,343.4L41.2,343.3L38.4,345.8Z" style="fill:rgb(157,29,32);fill-rule:nonzero;"/>
        </g>
        <g transform="matrix(0.621891,0,0,0.621891,263.562,126.684)">
            <path d="M40.8,335.2L37.2,336L36.4,332.4L40,331.6L39.6,329.8L30.5,331.8L30.9,333.6L34.9,332.7L35.7,336.3L31.7,337.2L32.1,339L41.2,337.1L40.8,335.2Z" style="fill:rgb(157,29,32);fill-rule:nonzero;"/>
        </g>
        <g transform="matrix(0.621891,0,0,0.621891,263.562,126.684)">
            <path d="M31.2,328C31.7,328.3 32.2,328.4 32.7,328.3C33.3,328.3 33.8,328.1 34.2,327.8C34.6,327.5 34.9,327.2 35.1,326.7C35.3,326.2 35.5,325.6 35.6,324.6C35.8,323.7 35.9,323.1 36.1,322.9C36.2,322.7 36.4,322.6 36.6,322.6C36.8,322.6 37,322.7 37.2,322.9C37.4,323.2 37.6,323.6 37.6,324.2C37.6,324.7 37.6,325.1 37.4,325.4C37.2,325.7 36.9,325.9 36.4,326L36.6,327.9C37.5,327.8 38.1,327.5 38.6,326.8C39.1,326.2 39.3,325.3 39.2,324.1C39.2,323.4 39,322.8 38.8,322.3C38.6,321.8 38.2,321.4 37.8,321.2C37.4,321 36.9,320.9 36.4,320.9C35.7,320.9 35.1,321.3 34.6,321.9C34.3,322.3 34,323.1 33.8,324.1C33.6,324.9 33.5,325.4 33.5,325.6C33.4,325.9 33.3,326.2 33.1,326.3C32.9,326.4 32.8,326.5 32.6,326.5C32.3,326.5 31.9,326.4 31.7,326.1C31.4,325.8 31.3,325.4 31.2,324.8C31.2,324.2 31.3,323.8 31.5,323.4C31.8,323.1 32.2,322.8 32.8,322.6L32.5,320.8C31.5,321 30.7,321.4 30.2,322.1C29.7,322.8 29.5,323.7 29.6,324.9C29.6,325.7 29.8,326.4 30.1,326.9C30.4,327.3 30.8,327.7 31.2,328" style="fill:rgb(157,29,32);fill-rule:nonzero;"/>
        </g>
        <g transform="matrix(0.621891,0,0,0.621891,263.562,126.684)">
            <rect x="77.6" y="329.7" width="1.3" height="8.5" style="fill:rgb(157,29,32);"/>
        </g>
        <g transform="matrix(0.621891,0,0,0.621891,263.562,126.684)">
            <rect x="80.3" y="327.3" width="1.3" height="9.5" style="fill:rgb(157,29,32);"/>
        </g>
        <g transform="matrix(0.621891,0,0,0.621891,263.562,126.684)">
            <rect x="85.9" y="324.1" width="1.3" height="10.3" style="fill:rgb(157,29,32);"/>
        </g>
        <g transform="matrix(0.621891,0,0,0.621891,263.562,126.684)">
            <rect x="83.1" y="325.6" width="1.3" height="9.9" style="fill:rgb(157,29,32);"/>
        </g>
        <g transform="matrix(0.621891,0,0,0.621891,263.562,126.684)">
            <rect x="88.7" y="322.9" width="1.3" height="10.6" style="fill:rgb(157,29,32);"/>
        </g>
        <g transform="matrix(0.621891,0,0,0.621891,263.562,126.684)">
            <rect x="91.5" y="322" width="1.3" height="10.8" style="fill:rgb(157,29,32);"/>
        </g>
        <g transform="matrix(0.621891,0,0,0.621891,263.562,126.684)">
            <rect x="74.8" y="332.4" width="1.3" height="7.7" style="fill:rgb(157,29,32);"/>
        </g>
        <g transform="matrix(0.621891,0,0,0.621891,263.562,126.684)">
            <rect x="72" y="336.1" width="1.3" height="5.9" style="fill:rgb(157,29,32);"/>
        </g>
        <g transform="matrix(0.621891,0,0,0.621891,263.562,126.684)">
            <rect x="69.2" y="340" width="1.3" height="4.3" style="fill:rgb(157,29,32);"/>
        </g>
        <g transform="matrix(0.621891,0,0,0.621891,263.562,126.684)">
            <rect x="66.4" y="343.1" width="1.3" height="3" style="fill:rgb(157,29,32);"/>
        </g>
        <g transform="matrix(0.621891,0,0,0.621891,263.562,126.684)">
            <rect x="63.6" y="345.4" width="1.3" height="2.2" style="fill:rgb(157,29,32);"/>
        </g>
        <g transform="matrix(0.621891,0,0,0.621891,263.562,126.684)">
            <rect x="60.9" y="347.4" width="1.3" height="1.6" style="fill:rgb(157,29,32);"/>
        </g>
        <g transform="matrix(0.621891,0,0,0.621891,263.562,126.684)">
            <rect x="122.1" y="329.7" width="1.3" height="8.5" style="fill:rgb(157,29,32);"/>
        </g>
        <g transform="matrix(0.621891,0,0,0.621891,263.562,126.684)">
            <rect x="119.3" y="327.3" width="1.3" height="9.5" style="fill:rgb(157,29,32);"/>
        </g>
        <g transform="matrix(0.621891,0,0,0.621891,263.562,126.684)">
            <rect x="113.7" y="324.1" width="1.3" height="10.3" style="fill:rgb(157,29,32);"/>
        </g>
        <g transform="matrix(0.621891,0,0,0.621891,263.562,126.684)">
            <rect x="116.5" y="325.6" width="1.3" height="9.9" style="fill:rgb(157,29,32);"/>
        </g>
        <g transform="matrix(0.621891,0,0,0.621891,263.562,126.684)">
            <rect x="110.9" y="322.9" width="1.3" height="10.6" style="fill:rgb(157,29,32);"/>
        </g>
        <g transform="matrix(0.621891,0,0,0.621891,263.562,126.684)">
            <rect x="108.1" y="322" width="1.3" height="10.8" style="fill:rgb(157,29,32);"/>
        </g>
        <g transform="matrix(0.621891,0,0,0.621891,263.562,126.684)">
            <rect x="124.8" y="332.4" width="1.3" height="7.7" style="fill:rgb(157,29,32);"/>
        </g>
        <g transform="matrix(0.621891,0,0,0.621891,263.562,126.684)">
            <rect x="127.6" y="336.1" width="1.3" height="5.9" style="fill:rgb(157,29,32);"/>
        </g>
        <g transform="matrix(0.621891,0,0,0.621891,263.562,126.684)">
            <rect x="130.4" y="340" width="1.3" height="4.3" style="fill:rgb(157,29,32);"/>
        </g>
        <g transform="matrix(0.621891,0,0,0.621891,263.562,126.684)">
            <rect x="133.2" y="343.1" width="1.3" height="3" style="fill:rgb(157,29,32);"/>
        </g>
        <g transform="matrix(0.621891,0,0,0.621891,263.562,126.684)">
            <rect x="136" y="345.4" width="1.3" height="2.2" style="fill:rgb(157,29,32);"/>
        </g>
        <g transform="matrix(0.621891,0,0,0.621891,263.562,126.684)">
            <rect x="138.7" y="347.4" width="1.3" height="1.6" style="fill:rgb(157,29,32);"/>
        </g>
        <g transform="matrix(0.621891,0,0,0.621891,263.562,126.684)">
            <path d="M91.8,364.1C92.3,363.7 92.6,363.4 92.7,363.2C93,362.9 93.1,362.6 93.3,362.2C93.4,361.9 93.5,361.6 93.5,361.3C93.5,360.7 93.3,360.2 92.9,359.8C92.5,359.4 91.9,359.2 91.2,359.2C90.5,359.2 90,359.4 89.5,359.7C89.1,360 88.8,360.6 88.7,361.4L90.1,361.5C90.1,361.1 90.2,360.8 90.4,360.6C90.6,360.4 90.8,360.3 91.1,360.3C91.4,360.3 91.6,360.4 91.8,360.6C92,360.8 92.1,361 92.1,361.3C92.1,361.6 92,361.9 91.8,362.2C91.7,362.4 91.3,362.8 90.6,363.4C89.8,364.1 89.3,364.7 89,365.2C88.7,365.6 88.6,366.1 88.5,366.6L93.5,366.6L93.5,365.3L90.7,365.3C90.8,365.2 90.9,365 91,364.9C91.1,364.8 91.4,364.5 91.8,364.1" style="fill:rgb(157,29,32);fill-rule:nonzero;"/>
        </g>
        <g transform="matrix(0.621891,0,0,0.621891,263.562,126.684)">
            <path d="M97.9,359.2C97.2,359.2 96.6,359.4 96.2,360C95.7,360.6 95.5,361.6 95.5,363C95.5,364.4 95.7,365.4 96.2,366C96.6,366.6 97.2,366.8 97.9,366.8C98.6,366.8 99.2,366.5 99.6,366C100.1,365.4 100.3,364.4 100.3,363C100.3,361.6 100.1,360.6 99.6,360C99.2,359.5 98.6,359.2 97.9,359.2M98.7,364.8C98.6,365.1 98.5,365.3 98.4,365.4C98.3,365.5 98.1,365.6 97.9,365.6C97.7,365.6 97.6,365.6 97.4,365.4C97.3,365.3 97.2,365.1 97.1,364.7C97,364.4 97,363.8 97,362.9C97,362 97,361.4 97.1,361.1C97.2,360.8 97.3,360.6 97.4,360.5C97.5,360.4 97.7,360.3 97.9,360.3C98.1,360.3 98.2,360.3 98.4,360.5C98.5,360.6 98.6,360.8 98.7,361.1C98.8,361.4 98.8,362 98.8,362.9C98.8,363.9 98.8,364.5 98.7,364.8" style="fill:rgb(157,29,32);fill-rule:nonzero;"/>
        </g>
        <g transform="matrix(0.621891,0,0,0.621891,263.562,126.684)">
            <path d="M103.3,360.4C102.9,360.7 102.5,361 102.1,361.1L102.1,362.4C102.8,362.2 103.4,361.8 103.9,361.3L103.9,366.6L105.3,366.6L105.3,359.2L104.1,359.2C104,359.7 103.7,360.1 103.3,360.4" style="fill:rgb(157,29,32);fill-rule:nonzero;"/>
        </g>
        <g transform="matrix(0.621891,0,0,0.621891,263.562,126.684)">
            <path d="M111,362.7C111.7,362.3 112.1,361.8 112.1,361.1C112.1,360.6 111.9,360.2 111.6,359.9C111.2,359.5 110.6,359.2 109.9,359.2C109.5,359.2 109.1,359.3 108.8,359.4C108.5,359.6 108.2,359.8 108,360C107.8,360.3 107.7,360.6 107.6,361.1L108.9,361.3C108.9,361 109,360.7 109.2,360.6C109.4,360.4 109.6,360.4 109.8,360.4C110,360.4 110.2,360.5 110.4,360.6C110.5,360.8 110.6,360.9 110.6,361.2C110.6,361.5 110.5,361.7 110.3,361.9C110.1,362.1 109.8,362.2 109.4,362.2L109.2,363.4C109.4,363.3 109.7,363.3 109.8,363.3C110.1,363.3 110.3,363.4 110.5,363.6C110.7,363.8 110.8,364.1 110.8,364.5C110.8,364.9 110.7,365.2 110.5,365.4C110.3,365.6 110.1,365.7 109.8,365.7C109.5,365.7 109.3,365.6 109.1,365.4C108.9,365.2 108.8,364.9 108.8,364.6L107.4,364.8C107.5,365.4 107.7,365.9 108.2,366.3C108.6,366.7 109.2,366.9 109.9,366.9C110.6,366.9 111.2,366.7 111.7,366.2C112.2,365.7 112.4,365.2 112.4,364.5C112.4,364.1 112.3,363.7 112,363.4C111.7,363 111.4,362.8 111,362.7" style="fill:rgb(157,29,32);fill-rule:nonzero;"/>
        </g>
        <g transform="matrix(0.621891,0,0,0.621891,263.562,126.684)">
            <path d="M112.4,354.6L110.6,354.6L110.6,353.9L108.9,353.9L108.9,353.2L105.2,353.2L106.6,345.5L106.6,345.3C106.6,345.2 106.6,345.2 106.5,345.1L104.8,337.4L104.8,337.3L105.7,332.2L106.7,332.2L106.7,321.4L105.4,321.4L105.4,325.6L104.6,321.7L104.6,321.5L105.8,313.7L105.8,313.4L104.3,305.6L105.3,297.9L105.3,297.5L104,289.8L105,281.9L105,281.5L101.3,281.5L101,273.8L100.3,273.8L100,281.5L96,281.5L97,289.8L95.6,297.7L95.6,297.8L96.6,305.6L95.1,313.5L95.1,313.6L96.3,321.5L95.5,325.5L95.5,321.4L94.2,321.4L94.2,332.2L95.1,332.2L96,337.4L94.2,345.2L94.2,345.4L95.6,353.2L92,353.2L92,353.9L90.3,353.9L90.3,354.6L88.6,354.6L88.6,355.4L112.4,355.4L112.4,354.6ZM100.4,330.4L103.8,337.1L97.1,337.1L100.4,330.4ZM100.4,314.5L103.5,321.1L97.3,321.1L100.4,314.5ZM103,289.4L98,289.4L100.5,282.9L103,289.4ZM100.4,298.7L103.2,305.2L97.6,305.2L100.4,298.7ZM100.4,346.2L104.2,353.2L96.6,353.2L100.4,346.2ZM101.1,345L104.3,338.6L105.7,345L101.1,345ZM101.1,329.1L104,322.8L105.3,329.1L101.1,329.1ZM101,313.2L101.6,311.7L103.7,306.9L104.9,313.1L101,313.1L101,313.2ZM101,297.4L103.4,291.3L104.5,297.4L101,297.4ZM97.5,291.2L99.1,295.3L99.9,297.3L96.5,297.3L97.5,291.2ZM97.2,307L98,308.9L99.9,313.2L96,313.2L97.2,307ZM96.9,322.8L99.8,329.1L95.5,329.1L96.9,322.8ZM96.6,338.6L99.8,345L95.2,345L96.6,338.6Z" style="fill:rgb(157,29,32);fill-rule:nonzero;"/>
        </g>
        <g transform="matrix(0.621891,0,0,0.621891,263.562,126.684)">
            <path d="M119.8,372.3C120.5,372.3 121.2,372.2 121.8,371.9C123.6,371.2 124.7,369.4 125.7,367.5C126.4,367.6 127.1,367.6 127.8,367.6C129.4,367.6 130.6,367.3 131.5,366.7C133.1,365.6 133.8,363.7 134.5,361.7C136.6,361.5 138.7,361.1 140,359.8C141.3,358.5 141.7,356.4 141.9,354.3C143.9,353.7 145.9,352.9 146.9,351.4C147.9,349.9 147.9,347.7 147.7,345.7C149.5,344.7 151.3,343.6 152.1,341.8C152.8,340.1 152.3,338 151.7,336C153.3,334.7 154.8,333.2 155.2,331.4C155.6,329.6 154.7,327.7 153.7,325.8C155,324.2 156.2,322.4 156.2,320.5C156.2,318.6 155,316.9 153.7,315.3C154.7,313.5 155.5,311.6 155.1,309.7C154.7,307.8 153.2,306.4 151.6,305C152.2,303 152.7,300.9 151.9,299.2C151.2,297.4 149.4,296.3 147.5,295.3C147.7,293.2 147.8,291.1 146.7,289.6C145.6,288 143.7,287.3 141.7,286.7C141.5,284.6 141.1,282.5 139.8,281.2C138.5,279.9 136.4,279.5 134.3,279.3C133.7,277.3 132.9,275.3 131.4,274.3C130.5,273.7 129.3,273.4 127.7,273.4C127,273.4 126.3,273.4 125.7,273.5C124.7,271.7 123.6,269.9 121.8,269.1C121.2,268.9 120.6,268.7 119.8,268.7C118.6,268.7 117.3,269 116,269.4C114.6,267.8 113.2,266.3 111.3,265.9C111,265.8 110.7,265.8 110.4,265.8C108.8,265.8 107.3,266.5 105.7,267.4C104.1,266.1 102.4,264.9 100.4,264.9C98.5,264.9 96.8,266.1 95.2,267.4C93.7,266.6 92.1,265.9 90.5,265.9C90.2,265.9 89.9,265.9 89.6,266C87.7,266.4 86.3,267.9 84.9,269.5C83.6,269.1 82.3,268.8 81.1,268.8C80.4,268.8 79.7,268.9 79.1,269.2C77.3,269.9 76.2,271.7 75.2,273.6C74.5,273.5 73.8,273.5 73.1,273.5C71.5,273.5 70.3,273.8 69.4,274.4C67.8,275.5 67.1,277.4 66.5,279.4C64.4,279.6 62.3,280 61,281.3C59.7,282.6 59.3,284.7 59.1,286.8C57.1,287.4 55.1,288.2 54.1,289.7C53.1,291.3 53.1,293.4 53.3,295.4C51.5,296.4 49.7,297.5 48.9,299.3C48.2,301 48.7,303.1 49.3,305.1C47.7,306.5 46.2,307.9 45.8,309.7C45.4,311.5 46.3,313.4 47.3,315.3C46,316.9 44.8,318.6 44.8,320.6C44.8,322.6 46,324.2 47.3,325.9C46.3,327.7 45.5,329.6 45.9,331.5C46.3,333.4 47.8,334.8 49.4,336.2C48.8,338.2 48.3,340.3 49,342C49.7,343.8 51.5,344.9 53.4,345.9C53.2,348 53.1,350.1 54.2,351.6C55.3,353.2 57.2,353.9 59.2,354.6C59.4,356.7 59.8,358.7 61.1,360.1C62.4,361.4 64.5,361.8 66.6,362C67.2,364 68,366 69.5,367C70.4,367.6 71.6,367.9 73.2,367.9C73.9,367.9 74.6,367.9 75.2,367.8C76.2,369.6 77.3,371.4 79.1,372.2C79.7,372.5 80.3,372.6 81.1,372.6C82.3,372.6 83.6,372.3 84.9,371.9C86.3,373.5 87.7,375 89.6,375.4C89.9,375.5 90.2,375.5 90.5,375.5C92.1,375.5 93.7,374.8 95.2,373.9C96.8,375.2 98.5,376.4 100.5,376.4C102.4,376.4 104.1,375.2 105.7,373.9C107.2,374.7 108.8,375.4 110.4,375.4C110.7,375.4 111,375.4 111.3,375.3C113.2,374.9 114.6,373.4 116,371.8C117.3,372 118.6,372.3 119.8,372.3M111.3,369.3C110.9,369.3 110.5,369.3 110.2,369.4C108.5,369.7 107,370.9 105.5,372.1C103.8,371.2 102.1,370.3 100.4,370.3C98.7,370.3 97,371.2 95.3,372C93.8,370.8 92.3,369.6 90.7,369.3C90.4,369.2 90,369.2 89.6,369.2C88.3,369.2 86.8,369.6 85.4,370C84.2,368.6 82.9,367.1 81.4,366.5C80.6,366.2 79.7,366 78.5,366C77.7,366 76.9,366.1 76,366.1C75.1,364.4 74.2,362.8 72.8,361.8C71.4,360.9 69.5,360.6 67.6,360.4C67,358.6 66.4,356.8 65.2,355.6C64,354.4 62.2,353.8 60.4,353.2C60.2,351.3 60,349.4 59,348C58.1,346.6 56.4,345.7 54.8,344.8C55,342.9 55.1,341 54.5,339.4C53.9,337.9 52.4,336.6 50.9,335.4C51.4,333.6 51.9,331.7 51.6,330.1C51.3,328.4 50.1,326.9 48.9,325.5C49.8,323.8 50.7,322.1 50.7,320.4C50.7,318.7 49.8,317 49,315.3C50.2,313.8 51.4,312.3 51.7,310.7C52,309 51.5,307.2 51,305.4C52.4,304.2 53.9,302.9 54.6,301.4C55.2,299.8 55.1,297.9 54.9,296C56.6,295.1 58.2,294.2 59.2,292.8C60.1,291.4 60.4,289.5 60.6,287.6C62.4,287 64.2,286.4 65.4,285.2C66.6,284 67.2,282.2 67.8,280.4C69.7,280.2 71.6,280 73,279C74.4,278.1 75.3,276.4 76.2,274.7C77,274.8 77.8,274.8 78.6,274.8C79.8,274.8 80.7,274.6 81.6,274.3C83.1,273.7 84.4,272.2 85.6,270.7C87,271.1 88.5,271.5 89.8,271.5C90.2,271.5 90.6,271.5 90.9,271.4C92.6,271.1 94.1,269.9 95.5,268.7C97.2,269.6 98.9,270.5 100.6,270.5C102.3,270.5 104,269.6 105.7,268.8C107.2,270 108.7,271.2 110.3,271.5C110.6,271.6 111,271.6 111.4,271.6C112.7,271.6 114.2,271.2 115.6,270.8C116.8,272.2 118.1,273.7 119.6,274.4C120.4,274.7 121.3,274.9 122.5,274.9C123.3,274.9 124.1,274.8 125,274.8C125.9,276.5 126.8,278.1 128.2,279.1C129.6,280 131.5,280.3 133.4,280.5C134,282.3 134.6,284.1 135.8,285.3C137,286.5 138.8,287.1 140.6,287.6C140.8,289.5 141,291.4 142,292.8C142.9,294.2 144.6,295.1 146.2,296C146,297.9 145.9,299.8 146.5,301.4C147.1,302.9 148.6,304.2 150.1,305.4C149.6,307.2 149.1,309.1 149.4,310.7C149.7,312.4 150.9,313.9 152.1,315.4C151.2,317.1 150.3,318.8 150.3,320.5C150.3,322.2 151.2,323.9 152,325.6C150.8,327.1 149.6,328.6 149.3,330.2C149,331.9 149.5,333.7 150,335.5C148.5,336.7 147.1,338 146.4,339.5C145.7,341.1 145.9,343 146.1,344.9C144.4,345.8 142.8,346.7 141.8,348.1C140.9,349.5 140.6,351.4 140.4,353.3C138.6,353.9 136.8,354.5 135.6,355.7C134.4,356.9 133.8,358.7 133.2,360.5C131.3,360.7 129.4,360.9 128,361.9C126.6,362.8 125.7,364.5 124.8,366.2C124,366.1 123.2,366.1 122.4,366.1C121.2,366.1 120.3,366.3 119.4,366.6C117.9,367.2 116.6,368.7 115.4,370.2C114.1,369.7 112.7,369.3 111.3,369.3M121.3,370.7C120.9,370.9 120.4,371 119.8,371C118.9,371 117.9,370.8 116.9,370.5C117.9,369.3 118.9,368.2 120,367.7C120.6,367.4 121.4,367.3 122.5,367.3C123.1,367.3 123.7,367.3 124.2,367.4C123.4,368.9 122.5,370.2 121.3,370.7M130.7,365.7C130,366.2 129.1,366.4 127.8,366.4C127.4,366.4 126.9,366.4 126.4,366.3C127.1,365 127.9,363.7 129,363C130,362.3 131.5,362.1 133,361.9C132.4,363.5 131.8,365 130.7,365.7M138.9,359C138,359.9 136.4,360.2 134.8,360.5C135.3,359 135.8,357.6 136.7,356.8C137.6,355.9 139,355.4 140.5,354.9C140.2,356.5 139.8,358 138.9,359M145.7,350.7C145,351.8 143.5,352.4 141.9,352.9C142.1,351.4 142.3,349.9 143,348.9C143.7,347.9 144.9,347.1 146.3,346.4C146.4,348.1 146.4,349.6 145.7,350.7M150.7,341.3C150.2,342.5 148.9,343.4 147.4,344.3C147.3,342.8 147.2,341.2 147.7,340.1C148.2,339 149.3,337.9 150.5,336.9C150.9,338.6 151.2,340.1 150.7,341.3M153.8,331.1C153.5,332.4 152.5,333.5 151.2,334.6C150.8,333.1 150.4,331.6 150.7,330.4C150.9,329.2 151.8,328 152.8,326.8C153.5,328.4 154,329.8 153.8,331.1M152.9,324.5C152.2,323.1 151.6,321.7 151.6,320.5C151.6,319.3 152.2,317.9 153,316.5C154,317.8 154.9,319.2 154.9,320.5C154.8,321.8 154,323.2 152.9,324.5M153.8,309.9C154.1,311.2 153.5,312.7 152.8,314.1C151.8,312.9 150.9,311.7 150.7,310.5C150.5,309.3 150.8,307.8 151.2,306.3C152.4,307.4 153.5,308.6 153.8,309.9M150.7,299.7C151.2,300.9 150.9,302.4 150.5,304.1C149.3,303.1 148.2,302.1 147.7,301C147.2,299.8 147.3,298.3 147.4,296.8C148.9,297.6 150.2,298.4 150.7,299.7M145.7,290.3C146.4,291.4 146.4,292.9 146.3,294.6C145,293.9 143.7,293.1 143,292.1C142.3,291.1 142.1,289.6 141.9,288.1C143.5,288.6 144.9,289.2 145.7,290.3M140.4,286.2C138.9,285.7 137.5,285.2 136.7,284.3C135.8,283.4 135.3,282 134.8,280.5C136.5,280.7 138,281 139,282C139.8,283 140.2,284.5 140.4,286.2M130.6,275.3C131.7,276 132.3,277.5 132.8,279.1C131.3,278.9 129.8,278.7 128.8,278C127.8,277.3 127,276 126.3,274.7C126.8,274.7 127.2,274.6 127.6,274.6C129,274.6 129.9,274.8 130.6,275.3M121.3,270.2C122.5,270.7 123.4,272 124.3,273.5C123.7,273.6 123.1,273.6 122.5,273.6C121.5,273.6 120.7,273.5 120.1,273.2C119,272.7 117.9,271.6 117,270.4C118,270.1 119,269.9 119.9,269.9C120.4,270 120.8,270.1 121.3,270.2M111.1,267.2C112.4,267.5 113.5,268.6 114.6,269.8C113.1,270.2 111.6,270.5 110.4,270.3C109.2,270.1 108,269.2 106.8,268.2C108.4,267.5 109.8,266.9 111.1,267.2M104.5,268C103.1,268.7 101.7,269.3 100.5,269.3C99.3,269.3 97.9,268.7 96.5,267.9C97.8,266.9 99.1,266 100.5,266C101.8,266.1 103.1,267 104.5,268M89.8,267.2C91.1,267 92.6,267.5 94,268.3C92.8,269.3 91.6,270.2 90.4,270.4C89.3,270.6 87.7,270.3 86.2,269.9C87.4,268.5 88.5,267.4 89.8,267.2M79.6,270.2C80,270 80.5,269.9 81.1,269.9C82,269.9 83,270.1 84,270.4C83,271.6 82,272.7 80.9,273.2C80.3,273.5 79.5,273.6 78.4,273.6C77.8,273.6 77.3,273.6 76.7,273.5C77.5,272 78.4,270.8 79.6,270.2M70.2,275.3C70.9,274.8 71.8,274.6 73.1,274.6C73.6,274.6 74,274.6 74.5,274.7C73.8,276 73,277.3 72,278C71,278.7 69.5,278.9 68,279.1C68.5,277.4 69.1,276 70.2,275.3M62,282C62.9,281.1 64.4,280.8 66.1,280.5C65.6,282 65.1,283.4 64.2,284.3C63.3,285.2 61.9,285.7 60.5,286.2C60.7,284.5 61.1,283 62,282M55.2,290.3C55.9,289.2 57.4,288.6 59,288.1C58.8,289.6 58.6,291.1 57.9,292.1C57.2,293.1 55.9,293.9 54.6,294.6C54.5,292.9 54.5,291.4 55.2,290.3M50.2,299.7C50.7,298.5 52,297.6 53.5,296.7C53.6,298.2 53.7,299.8 53.2,300.9C52.7,302 51.6,303 50.4,304C50,302.4 49.7,300.9 50.2,299.7M47.1,309.9C47.4,308.6 48.5,307.5 49.7,306.4C50.1,307.9 50.5,309.4 50.2,310.6C50,311.8 49.1,313 48.1,314.2C47.4,312.6 46.9,311.2 47.1,309.9M48,316.5C48.7,317.9 49.3,319.3 49.3,320.5C49.3,321.7 48.7,323.1 47.9,324.5C46.9,323.2 46,321.9 46,320.5C46.1,319.2 46.9,317.8 48,316.5M47.1,331.1C46.8,329.8 47.4,328.3 48.1,326.8C49.1,328 50,329.2 50.2,330.4C50.4,331.6 50.1,333.1 49.7,334.6C48.5,333.6 47.4,332.4 47.1,331.1M50.2,341.3C49.7,340.1 50,338.6 50.4,336.9C51.6,337.9 52.7,338.9 53.2,340C53.7,341.1 53.6,342.7 53.5,344.2C52,343.4 50.7,342.5 50.2,341.3M55.2,350.7C54.5,349.6 54.5,348.1 54.6,346.4C55.9,347.1 57.2,347.9 57.9,348.9C58.6,349.9 58.8,351.4 59,352.9C57.4,352.4 56,351.8 55.2,350.7M60.5,354.8C62,355.3 63.4,355.8 64.2,356.7C65.1,357.6 65.6,359 66.1,360.5C64.4,360.3 62.9,360 61.9,359C61.1,358 60.7,356.5 60.5,354.8M70.2,365.7C69.1,365 68.5,363.5 67.9,361.9C69.4,362.1 70.9,362.3 71.9,363C72.9,363.7 73.7,365 74.5,366.3C74,366.3 73.6,366.4 73.1,366.4C71.9,366.4 70.9,366.2 70.2,365.7M79.6,370.7C78.4,370.2 77.5,368.9 76.6,367.4C77.2,367.4 77.8,367.3 78.4,367.3C79.4,367.3 80.2,367.4 80.8,367.7C81.9,368.2 82.9,369.3 83.9,370.5C82.9,370.8 81.9,371 81,371C80.5,371 80,370.9 79.6,370.7M89.8,373.8C88.5,373.5 87.4,372.5 86.3,371.2C87.8,370.8 89.3,370.5 90.5,370.7C91.7,370.9 92.9,371.8 94.1,372.8C92.5,373.5 91.1,374.1 89.8,373.8M96.4,373C97.8,372.3 99.2,371.7 100.4,371.7C101.6,371.7 103,372.3 104.4,373.1C103.1,374.1 101.8,375 100.4,375C99.1,374.9 97.8,374 96.4,373M111.1,373.8C109.9,374 108.3,373.5 106.9,372.8C108.1,371.8 109.3,370.9 110.5,370.7C111.6,370.5 113.2,370.8 114.7,371.2C113.5,372.5 112.4,373.6 111.1,373.8" style="fill:rgb(157,29,32);fill-rule:nonzero;"/>
        </g>
        <g transform="matrix(0.621891,0,0,0.621891,263.562,126.684)">
            <path d="M72.7,297.2L68.2,297.2L68.8,296.8L67.7,295.1L66.9,295.6L67.8,297.2L63.8,297.2L63.8,298.1L72.7,298.1L72.7,297.2Z" style="fill:rgb(157,29,32);fill-rule:nonzero;"/>
        </g>
        <g transform="matrix(0.621891,0,0,0.621891,263.562,126.684)">
            <path d="M73.3,304L69.8,304L71.5,299.4L70.5,299.4L68.7,304L67.3,304L67.2,303.9L67.7,303.7L65.9,299.4L64.8,299.4L66.7,304L63.1,304L63.1,304.9L73.3,304.9L73.3,304Z" style="fill:rgb(157,29,32);fill-rule:nonzero;"/>
        </g>
        <g transform="matrix(0.621891,0,0,0.621891,263.562,126.684)">
            <path d="M62.8,316.5L63.6,317L65.1,314.5L64.2,314.1L62.8,316.5Z" style="fill:rgb(157,29,32);fill-rule:nonzero;"/>
        </g>
        <g transform="matrix(0.621891,0,0,0.621891,263.562,126.684)">
            <path d="M68.8,315.7L69.6,315.2L68.3,313L67.5,313.5L68.8,315.7Z" style="fill:rgb(157,29,32);fill-rule:nonzero;"/>
        </g>
        <g transform="matrix(0.621891,0,0,0.621891,263.562,126.684)">
            <path d="M70.8,314.3L72.8,316.8L73.6,316.2L71.5,313.7L70.8,314.3Z" style="fill:rgb(157,29,32);fill-rule:nonzero;"/>
        </g>
        <g transform="matrix(0.621891,0,0,0.621891,263.562,126.684)">
            <path d="M72.3,311.8L68.7,311.8L68.7,310.3L73.1,310.3L73.1,309.3L68.7,309.3L68.7,307.6L67.7,307.6L67.7,309.3L63.1,309.3L63.1,310.3L67.7,310.3L67.7,311.8L64.2,311.8L64.2,312.8L72.3,312.8L72.3,311.8Z" style="fill:rgb(157,29,32);fill-rule:nonzero;"/>
        </g>
        <g transform="matrix(0.621891,0,0,0.621891,263.562,126.684)">
            <path d="M69.8,316.9L67,316.9C66.8,316.9 66.7,316.8 66.7,316.6L66.7,314.2L65.7,314.2L65.7,317.1C65.7,317.3 65.7,317.8 66.4,317.8L70.4,317.8C71,317.7 71.5,316.7 71.6,316.5L70.5,316C70.5,316.4 70.2,316.8 69.8,316.9" style="fill:rgb(157,29,32);fill-rule:nonzero;"/>
        </g>
        <g transform="matrix(0.621891,0,0,0.621891,263.562,126.684)">
            <path d="M86.4,316.7L86.4,311L89.5,311L89.5,310.1L86.4,310.1L86.4,307.6L85.4,307.6L85.4,310.1L80,310.1L80,311L85,311L85,311.1C83.8,312.9 82.1,314.4 80,315.5L80,316.7C80.6,316.4 83.2,315.1 85.3,312.4L85.4,312.3L85.4,316C85.3,316.4 84.9,316.6 84.5,316.7L84.4,316.7L85,317.9C85.3,317.8 86.4,317.3 86.4,316.7" style="fill:rgb(157,29,32);fill-rule:nonzero;"/>
        </g>
        <g transform="matrix(0.621891,0,0,0.621891,263.562,126.684)">
            <path d="M120.4,318.4L121.3,318.4L121.3,308.2L112,308.2L112,318.4L112.9,318.4L112.9,317.8L120.4,317.8L120.4,318.4ZM112.9,309.1L120.4,309.1L120.4,316.8L112.9,316.8L112.9,309.1Z" style="fill:rgb(157,29,32);fill-rule:nonzero;"/>
        </g>
        <g transform="matrix(0.621891,0,0,0.621891,263.562,126.684)">
            <path d="M117.8,314.1L118.6,314.9L117.1,314.9L117.1,313.2L119.3,313.2L119.3,312.3L117.1,312.3L117.1,311L119.5,311L119.5,310.1L113.8,310.1L113.8,311L116.2,311L116.2,312.3L114.1,312.3L114.1,313.2L116.2,313.2L116.2,314.9L113.6,314.9L113.6,315.8L119.7,315.8L119.7,314.9L118.5,313.5L117.8,314.1Z" style="fill:rgb(157,29,32);fill-rule:nonzero;"/>
        </g>
        <g transform="matrix(0.621891,0,0,0.621891,263.562,126.684)">
            <path d="M137.5,297L136,295.4L135.4,296L136.8,297.7L137.5,297Z" style="fill:rgb(157,29,32);fill-rule:nonzero;"/>
        </g>
        <g transform="matrix(0.371704,-0.49857,0.49857,0.371704,148.984,267.268)">
            <rect x="132" y="296.1" width="2.2" height="0.9" style="fill:rgb(157,29,32);"/>
        </g>
        <g transform="matrix(0.621891,0,0,0.621891,263.562,126.684)">
            <path d="M131,297.2L129.9,295.3L129.1,295.8L130.3,297.6L131,297.2Z" style="fill:rgb(157,29,32);fill-rule:nonzero;"/>
        </g>
        <g transform="matrix(0.621891,0,0,0.621891,263.562,126.684)">
            <path d="M127.5,301.5L128.1,302.3C128.3,302.2 128.7,301.8 129.3,301.3L129.4,301.2L129.4,305.6L130.3,305.6L130.3,301.5L131.3,302.7L132,302.2L131,300.9L131.9,300L131.3,299.3L130.4,300.1L130.4,300C130.7,299.5 131,299 131.3,298.5C131.5,298.1 131.6,297.8 131.6,297.6L127.9,297.6L127.9,298.5L130.2,298.5L130.2,298.6C129.1,300.3 127.8,301.3 127.5,301.5" style="fill:rgb(157,29,32);fill-rule:nonzero;"/>
        </g>
        <g transform="matrix(0.621891,0,0,0.621891,263.562,126.684)">
            <path d="M131.6,301.2L132.3,302C132.4,302 132.5,301.8 132.8,301.6L132.9,301.5L132.9,305.5L133.8,305.5L133.8,305L135.9,305L135.9,305.5L136.8,305.5L136.8,301.2L136.9,301.3C137.1,301.5 137.4,301.6 137.6,301.8L138.2,301C137.6,300.6 136.2,299.6 135.3,297.7C135.3,297.7 135.4,297.5 135.4,297.4L134.3,297.4C133.3,299.9 131.9,301 131.6,301.2M135.8,304.1L133.7,304.1L133.7,301.9L135.8,301.9L135.8,304.1ZM133.4,300.9C133.9,300.4 134.3,299.7 134.6,299L134.6,298.9L134.6,299C135,299.7 135.6,300.4 136.2,300.9L136.3,301L133.4,300.9Z" style="fill:rgb(157,29,32);fill-rule:nonzero;"/>
        </g>
        <g transform="matrix(0.621891,0,0,0.621891,263.562,126.684)">
            <path d="M113.5,300.7L111.7,301.4L111.7,302.4L113.5,301.7L113.5,303.8C113.5,304.1 113.2,304.4 112.6,304.6L113.1,305.6C113.3,305.5 114.4,305 114.4,304.4L114.4,301.3L115.6,300.9L115.6,299.9L114.4,300.4L114.4,298.7L115.6,298.7L115.6,297.8L114.4,297.8L114.4,295.3L113.5,295.3L113.5,297.8L111.6,297.8L111.6,298.7L113.5,298.7L113.5,300.7Z" style="fill:rgb(157,29,32);fill-rule:nonzero;"/>
        </g>
        <g transform="matrix(0.621891,0,0,0.621891,263.562,126.684)">
            <path d="M117,300.3L117.1,300.3C117.1,300.4 117.5,301.7 118.5,303C118.1,303.5 117.7,303.8 117.4,304.1L117.3,304.1L117.3,305.4C118,305 118.6,304.4 119.2,303.8C119.9,304.5 120.7,305.1 121.5,305.5L121.5,304.3C120.9,304 120.3,303.5 119.8,303C120.4,302.2 120.8,301.2 121,300.3L121,300.2C121,300 121.1,299.6 121.2,299.3L117,299.3L117,296.7L119.9,296.7L119.9,297.2C119.9,297.5 119.6,297.8 119,298.1L119.5,299.1C119.7,299 120.7,298.5 120.8,297.9L120.8,295.8L116.1,295.8L116.1,305.5L117,305.5L117,300.3ZM120.1,300.2C119.9,300.9 119.6,301.5 119.2,302.1C118.7,301.3 118.4,300.6 118.3,300.3L118.3,300.2L120.1,300.2Z" style="fill:rgb(157,29,32);fill-rule:nonzero;"/>
        </g>
        <g transform="matrix(0.621891,0,0,0.621891,263.562,126.684)">
            <path d="M136,316.9C135.8,316.9 135.7,316.8 135.4,316.6L135.3,316.6C134.6,316.1 134.1,315.2 133.8,314L133.8,313.9L136.6,313.9L136.6,313L133.6,313C133.5,312.4 133.5,312 133.4,311.7L136.6,311.7L136.6,308.5L128.7,308.5L128.7,317C128.7,317.5 129.8,318.1 130,318.2L130.5,317.2C130.2,317 129.6,316.7 129.6,316.3L129.6,314L132.7,314C133.1,315.6 133.8,316.8 134.8,317.5C135.3,317.8 135.7,318 136.1,318C137.1,318 137.3,316.6 137.3,316.3L136.2,316.3C136.3,316.6 136.3,316.9 136,316.9M129.7,313L129.7,311.6L132.5,311.6C132.5,311.9 132.5,312.3 132.6,312.9L129.7,312.9L129.7,313ZM129.7,309.3L135.8,309.3L135.8,310.7L129.7,310.7L129.7,309.3Z" style="fill:rgb(157,29,32);fill-rule:nonzero;"/>
        </g>
        <g transform="matrix(0.621891,0,0,0.621891,263.562,126.684)">
            <path d="M81.4,300.4L83.2,300.4L83.2,303.1C83.1,303.4 82.9,303.5 82,303.7L82.1,304.6C83,304.5 83.9,304.2 84.1,303.1L84.1,299.6L81.4,299.6L81.4,298L85.1,298C85.2,299.6 85.5,301 85.9,302.2C85.4,302.9 84.8,303.4 84.2,303.8L84.2,305.1C84.9,304.6 85.7,304 86.3,303.2C86.8,304 87.6,305.2 88.7,305.2C88.9,305.2 89.1,305.2 89.3,305.1L89.3,304C88.9,304.1 88,304.3 87.1,302.2C87.7,301.3 88.3,300.3 88.8,299.3L87.7,299.3C87.4,299.9 87.1,300.5 86.8,301L86.8,301.1L86.8,301C86.5,300.1 86.4,299.1 86.3,298L89.3,298L89.3,297.1L88.2,295.2L87.1,295.2L88.2,297.1L86,297.1L86,295.2L85,295.2L85,297.1L80.3,297.1L80.3,300.5C80.3,301.5 80.2,303.9 79,304.9L80.1,305.5C80.3,305.3 81.4,303.7 81.4,300.4" style="fill:rgb(157,29,32);fill-rule:nonzero;"/>
        </g>
        <g transform="matrix(0.621891,0,0,0.621891,263.562,126.684)">
            <path d="M51.2,284.5L49.7,285.6L49.9,287L47.8,290.8L41.7,287.6L44.5,282.3L43.9,282L42.3,283.2L42.6,284.6L41.1,287.3L35.9,284.5L35,286.2L46.9,292.6L43.9,298.2L44.5,298.5L51.8,284.8L51.2,284.5Z" style="fill:rgb(157,29,32);fill-rule:nonzero;"/>
        </g>
        <g transform="matrix(0.621891,0,0,0.621891,263.562,126.684)">
            <path d="M85.8,258.6L85.9,259.2L91.1,258.2L92.1,262.8L94,262.5L93,257.8L95.4,257.3L95.2,256.6L92.9,257.1L91,247.8L89.1,248.2L91,257.5L85.8,258.6Z" style="fill:rgb(157,29,32);fill-rule:nonzero;"/>
        </g>
        <g transform="matrix(0.621891,0,0,0.621891,263.562,126.684)">
            <path d="M89.3,252.4C90,250.8 86,250.6 86,250.6L85.8,251C87.6,252 87.6,252.5 88.2,252.7C88.7,252.9 89.1,252.7 89.3,252.4" style="fill:rgb(157,29,32);fill-rule:nonzero;"/>
        </g>
        <g transform="matrix(0.621891,0,0,0.621891,263.562,126.684)">
            <path d="M89.9,256.2C90.7,254.7 86.8,254.1 86.8,254.1L86.6,254.5C88.3,255.7 88.3,256.1 88.8,256.5C89.3,256.7 89.8,256.6 89.9,256.2" style="fill:rgb(157,29,32);fill-rule:nonzero;"/>
        </g>
        <g transform="matrix(0.621891,0,0,0.621891,263.562,126.684)">
            <path d="M81.4,252.3L81.8,254.4L79.1,254.9L79.2,255.6L81.5,255.1C81.5,255.7 81.2,259.4 80.2,261.8L80.7,262.1C80.7,262.1 81.9,260.3 82.6,258.1L83.9,264.4L85.8,264L84.2,256.3C85.3,257.2 85.3,257.5 85.8,257.9C86.2,258.1 86.7,258 86.9,257.7C87.6,256.4 84.8,255.8 84,255.6L83.8,254.7L86.1,254.2L86,253.5L83.7,254L83.2,251.5C84,251.1 84.7,250.7 85.2,250.2L83.3,249.3C83.3,249.3 81.5,251.2 78.6,252.6L78.7,253.2C78.8,253.2 80,252.9 81.4,252.3" style="fill:rgb(157,29,32);fill-rule:nonzero;"/>
        </g>
        <g transform="matrix(0.621891,0,0,0.621891,263.562,126.684)">
            <path d="M157.9,282.4C158.1,282.3 158.4,282.1 158.6,281.9L164.3,292.1L162,292.8L162.4,293.5L165.4,294.1L166,293.8L165.9,291.8L164.6,291.2L163.7,289.6C164.3,289.8 165.6,290.1 167.4,290.3L166.9,287.9C166.9,287.9 164.4,288.6 163.2,288.5L160.9,284.4C161,284.5 161.1,284.5 161.2,284.5C163,284.9 162.4,280.3 162.4,280.3L161.9,280.2C161.2,282.4 160.7,282.7 160.5,283.4L160.5,283.8L159.2,281.5C159.4,281.3 159.7,280.9 159.7,280.9L159.4,280.5L159.3,280.5C157.8,281 157.1,280.5 156.2,281C155.8,281.2 155.4,281.8 155.7,282.3C156.2,283 157,282.9 157.9,282.4" style="fill:rgb(157,29,32);fill-rule:nonzero;"/>
        </g>
        <g transform="matrix(0.621891,0,0,0.621891,263.562,126.684)">
            <path d="M163,287C164.7,287.3 164.3,283 164.3,283L163.9,282.9C163.2,284.9 162.7,285.3 162.5,286C162.4,286.5 162.6,286.9 163,287" style="fill:rgb(157,29,32);fill-rule:nonzero;"/>
        </g>
        <g transform="matrix(0.621891,0,0,0.621891,263.562,126.684)">
            <path d="M151.2,291.1C153,293.5 154.7,292.5 154.7,292.5L157.3,291.1L160.1,296.2L160.7,295.9L160.6,294L159.3,293.4L157.9,290.8L158.8,290.3L161.5,291.5L162.1,291.2L158.1,284L157.5,284.3L160.5,289.6L157.9,288.6L157,289L153.5,282.8L152.9,283.1L156.4,289.3L153.8,290.7C153.5,290.9 153.4,290.7 153.2,290.3C153,290 152.2,288.2 152,287.9L151.5,288.2C152.5,290.8 151.2,291.1 151.2,291.1" style="fill:rgb(157,29,32);fill-rule:nonzero;"/>
        </g>
        <g transform="matrix(0.621891,0,0,0.621891,263.562,126.684)">
            <path d="M117.7,255.3L115.2,254.7L115,255.4L115.3,255.5C115.3,257.4 115.7,259 116.4,260.4C113.8,262 111.4,262.4 111.4,262.4L111.3,263C113.5,263.3 115.6,262.7 117.3,261.9C118.9,264.2 120.8,265.4 120.8,265.4C121.4,264.3 122.2,264.3 122.4,264.3L122.5,263.8C120.9,263.1 119.7,262.1 118.7,261.1C121.2,259.5 122.8,257.5 122.9,257.4L123.1,256.7L119.6,255.8L120.1,253.7L124.5,254.8L124.7,254.1L123.2,252.9L121.9,253.4L120.3,253L121.1,250L119.2,249.5L118.5,252.6L116,252L115.8,252.7L118.3,253.3L117.7,255.3ZM117.5,259.5C116.4,257.7 116.1,256 116.1,255.6L120.3,256.6C119.5,257.9 118.5,258.8 117.5,259.5" style="fill:rgb(157,29,32);fill-rule:nonzero;"/>
        </g>
        <g transform="matrix(0.621891,0,0,0.621891,263.562,126.684)">
            <path d="M108.5,262.3L109,262.4L110.9,262.9L112.6,256C113.5,255.8 114.1,255.6 114.5,255.4L114.7,254.7C114.1,254.8 113.5,254.9 112.9,254.9L113.6,252L115.3,252.4L115.5,251.7L113.8,251.3L114.6,248.2L112.7,247.7L112,250.8L109.8,250.3L109.6,251L111.8,251.5L110.9,255C109.3,255.1 108.1,255 108.1,255L108.2,256.8C109,256.7 109.8,256.5 110.5,256.4L109.6,260L109.6,259.9C109.5,260.4 109.4,260.6 108.3,260.4C107.8,260.3 107.4,260.1 107.4,260.1L107.3,260.5C108.7,261.1 108.5,262.3 108.5,262.3" style="fill:rgb(157,29,32);fill-rule:nonzero;"/>
        </g>
        <g transform="matrix(0.621891,0,0,0.621891,263.562,126.684)">
            <path d="M55.4,265.9C55.5,264.2 51.7,265.4 51.7,265.4L51.7,265.8C53.7,266.1 53.9,266.5 54.6,266.6C55,266.6 55.4,266.3 55.4,265.9" style="fill:rgb(157,29,32);fill-rule:nonzero;"/>
        </g>
        <g transform="matrix(0.621891,0,0,0.621891,263.562,126.684)">
            <path d="M52.7,268.8L52.7,269.2C54.7,269.5 54.9,269.9 55.6,270C56.1,270 56.4,269.7 56.5,269.3C56.5,267.6 52.7,268.8 52.7,268.8" style="fill:rgb(157,29,32);fill-rule:nonzero;"/>
        </g>
        <g transform="matrix(0.621891,0,0,0.621891,263.562,126.684)">
            <path d="M70.1,266.3L69.7,265.8L68.6,266.7L66.8,264.4L67.9,263.6L67.5,263.1L66.4,264L64.1,261.1L63,262L58.4,265.6C58.4,265.1 58.4,264.6 58.3,264.1L64.4,259.3L64,258.8L62.1,259.2L61.7,260.6L58.2,263.4C58.1,262.8 58,262.2 57.8,261.5L55.8,262.4C55.8,262.4 57.5,265.4 57.7,268.6L58.2,268.6C58.2,268.6 58.3,268.2 58.3,267.5L59.7,269.3L58.5,270.3L58.9,270.8L60.1,269.8L61.9,272.1L62.3,272.6L62.5,272.9L64,271.7L63.8,271.4L67.4,268.6C67.8,269.1 67.9,269.5 67.3,270C66.5,270.7 65,271.8 65,271.8L65.3,272.1C65.3,272.1 67.3,270.8 68,271.7C68,271.7 70.6,269.6 68.9,267.4L70.1,266.3ZM59.4,265.5L63,262.7L64.8,265L64,265.6L64,265.5C64.1,263.8 60.3,265 60.3,265L60.3,265.4C62.4,265.7 62.5,266.1 63.2,266.2L63.3,266.2L61.3,267.8L59.4,265.5ZM66.3,268.4C66.4,266.7 62.6,267.9 62.6,267.9L62.6,268.3C64.6,268.6 64.8,269 65.5,269.1L65.6,269.1L63.6,270.7L61.8,268.4L65.4,265.6L67.2,267.9L66.3,268.4Z" style="fill:rgb(157,29,32);fill-rule:nonzero;"/>
        </g>
        <g transform="matrix(0.621891,0,0,0.621891,263.562,126.684)">
            <path d="M56.1,273.2L56.5,273.7C56.5,273.7 58,273 60,275.6C60.7,276.4 61.1,277 61.1,277L62.1,276.2C62.1,276.2 59.7,273.1 59,272.1C58.3,271.1 56.5,265.6 56.2,264.7L55.7,265.1C56.1,266.5 57.4,270.9 57.4,271.9C57.3,272.8 56.1,273.2 56.1,273.2" style="fill:rgb(157,29,32);fill-rule:nonzero;"/>
        </g>
        <g transform="matrix(0.621891,0,0,0.621891,263.562,126.684)">
            <path d="M148.3,270.6L147.4,268.8L146,268.7L143,266.3C144.7,264.8 145.8,263.3 146.1,262.8L144.3,261.4C143.3,262.9 142.3,264 141.4,265L136.6,261.2L136.2,261.7L140.9,265.5C136.6,269.3 132.5,269.1 130.6,268.7L130.1,269.3C135.1,271.6 139.5,269.4 142.4,266.9C138.6,272.3 140.7,277.8 140.7,277.8C142.1,276.9 143.1,278.1 143.1,278.1L143.4,277.7C140.6,273.3 142.7,267.9 142.9,267.3L147.8,271.2L148.3,270.6Z" style="fill:rgb(157,29,32);fill-rule:nonzero;"/>
        </g>
    </g>
</svg>
