<?xml version="1.0" encoding="UTF-8" standalone="no"?>
<!DOCTYPE svg PUBLIC "-//W3C//DTD SVG 1.1//EN" "http://www.w3.org/Graphics/SVG/1.1/DTD/svg11.dtd">
<svg width="100%" height="100%" viewBox="0 0 154 157" version="1.1" xmlns="http://www.w3.org/2000/svg" xmlns:xlink="http://www.w3.org/1999/xlink" xml:space="preserve" xmlns:serif="http://www.serif.com/" style="fill-rule:evenodd;clip-rule:evenodd;stroke-linejoin:round;stroke-miterlimit:2;">
    <g>
        <g transform="matrix(5.21374,0,0,5.21376,-113.771,-255.181)">
            <path d="M35.353,69.007L35.565,68.905L35.586,68.905L35.586,69.636C35.586,69.684 35.588,69.714 35.592,69.727C35.596,69.738 35.605,69.747 35.617,69.754C35.63,69.76 35.656,69.763 35.695,69.765L35.695,69.789L35.369,69.789L35.369,69.765C35.41,69.763 35.436,69.76 35.448,69.754C35.46,69.748 35.468,69.74 35.473,69.729C35.478,69.719 35.48,69.688 35.48,69.636L35.48,69.169C35.48,69.106 35.478,69.065 35.474,69.047C35.471,69.033 35.465,69.023 35.457,69.017C35.45,69.01 35.44,69.007 35.429,69.007C35.413,69.007 35.391,69.014 35.363,69.028L35.353,69.007Z" style="fill:rgb(0,64,152);fill-rule:nonzero;"/>
        </g>
        <g transform="matrix(5.21374,0,0,5.21376,-113.771,-255.181)">
            <path d="M35.953,69.799L35.953,69.775C36.008,69.775 36.06,69.762 36.108,69.737C36.155,69.712 36.202,69.668 36.246,69.606C36.291,69.544 36.322,69.476 36.339,69.401C36.272,69.444 36.212,69.465 36.158,69.465C36.097,69.465 36.044,69.442 36.001,69.396C35.957,69.348 35.936,69.285 35.936,69.208C35.936,69.132 35.957,69.064 36.001,69.005C36.053,68.934 36.122,68.897 36.206,68.897C36.278,68.897 36.338,68.927 36.389,68.985C36.452,69.059 36.483,69.148 36.483,69.255C36.483,69.351 36.459,69.441 36.412,69.524C36.364,69.607 36.298,69.676 36.214,69.731C36.145,69.777 36.07,69.799 35.989,69.799L35.953,69.799ZM36.35,69.354C36.357,69.299 36.361,69.254 36.361,69.221C36.361,69.18 36.354,69.135 36.34,69.088C36.326,69.04 36.306,69.003 36.279,68.977C36.254,68.952 36.225,68.939 36.192,68.939C36.154,68.939 36.121,68.956 36.092,68.99C36.064,69.024 36.049,69.075 36.049,69.142C36.049,69.232 36.068,69.303 36.106,69.353C36.134,69.389 36.168,69.408 36.209,69.408C36.228,69.408 36.252,69.403 36.279,69.393C36.306,69.384 36.329,69.371 36.35,69.354Z" style="fill:rgb(0,64,152);fill-rule:nonzero;"/>
        </g>
        <g transform="matrix(5.21374,0,0,5.21376,-113.771,-255.181)">
            <path d="M37.207,68.923L37.157,69.031L36.896,69.031L36.839,69.147C36.952,69.164 37.041,69.206 37.108,69.273C37.165,69.331 37.193,69.399 37.193,69.478C37.193,69.523 37.184,69.565 37.165,69.604C37.146,69.643 37.123,69.676 37.095,69.703C37.067,69.73 37.036,69.752 37.001,69.769C36.952,69.792 36.902,69.804 36.85,69.804C36.798,69.804 36.76,69.795 36.736,69.778C36.712,69.76 36.701,69.741 36.701,69.719C36.701,69.707 36.706,69.696 36.716,69.688C36.725,69.678 36.738,69.674 36.753,69.674C36.763,69.674 36.773,69.675 36.782,69.679C36.79,69.682 36.804,69.691 36.824,69.705C36.856,69.727 36.889,69.738 36.921,69.738C36.971,69.738 37.015,69.719 37.053,69.682C37.09,69.644 37.11,69.598 37.11,69.544C37.11,69.492 37.093,69.443 37.059,69.398C37.026,69.352 36.979,69.317 36.92,69.292C36.873,69.273 36.81,69.262 36.729,69.259L36.896,68.923L37.207,68.923Z" style="fill:rgb(0,64,152);fill-rule:nonzero;"/>
        </g>
        <g transform="matrix(5.21374,0,0,5.21376,-113.771,-255.181)">
            <path d="M37.959,69.622L37.898,69.789L37.385,69.789L37.385,69.765C37.536,69.628 37.642,69.516 37.703,69.429C37.765,69.342 37.796,69.263 37.796,69.191C37.796,69.136 37.779,69.091 37.745,69.056C37.711,69.02 37.671,69.003 37.624,69.003C37.581,69.003 37.543,69.015 37.509,69.041C37.475,69.065 37.45,69.102 37.434,69.149L37.41,69.149C37.421,69.071 37.448,69.01 37.492,68.968C37.536,68.926 37.592,68.905 37.658,68.905C37.728,68.905 37.787,68.927 37.834,68.973C37.882,69.018 37.905,69.071 37.905,69.132C37.905,69.176 37.895,69.22 37.875,69.263C37.843,69.332 37.792,69.406 37.721,69.482C37.615,69.598 37.548,69.669 37.522,69.692L37.748,69.692C37.795,69.692 37.827,69.691 37.845,69.687C37.864,69.683 37.881,69.677 37.895,69.666C37.911,69.656 37.923,69.641 37.935,69.622L37.959,69.622Z" style="fill:rgb(0,64,152);fill-rule:nonzero;"/>
        </g>
        <g transform="matrix(5.21374,0,0,5.21376,-113.771,-255.181)">
            <path d="M44.624,62.028C44.581,62.031 44.538,62.034 44.535,61.99C44.446,61.953 44.336,61.613 44.331,61.527C44.327,61.484 44.407,61.391 44.364,61.394C44.362,61.351 44.315,61.311 44.315,61.311C44.269,61.27 44.266,61.227 44.263,61.184C44.22,61.187 44.22,61.187 44.175,61.147L44.129,61.107C44.082,61.066 44.08,61.023 44.033,60.983C44.031,60.939 43.987,60.943 43.984,60.899C43.942,60.902 43.895,60.862 43.892,60.819C43.85,60.822 43.669,60.704 43.666,60.661C43.611,60.491 44.043,60.504 44.093,60.587C44.141,60.671 44.012,60.68 44.019,60.766C44.062,60.764 44.059,60.72 44.102,60.717C44.144,60.714 44.184,60.668 44.27,60.662L44.31,60.616C44.353,60.613 44.393,60.567 44.393,60.567C44.433,60.52 44.516,60.471 44.559,60.468C44.556,60.425 44.599,60.422 44.599,60.422C44.645,60.462 44.645,60.462 44.648,60.506C44.612,60.595 44.488,60.691 44.402,60.696C44.316,60.702 44.276,60.749 44.19,60.755C44.193,60.798 44.15,60.801 44.15,60.801C44.15,60.801 44.111,60.847 44.153,60.844C44.157,60.887 44.199,60.884 44.199,60.884C44.239,60.838 44.282,60.835 44.325,60.832C44.368,60.829 44.368,60.829 44.411,60.826C44.408,60.783 44.451,60.78 44.494,60.777C44.534,60.731 44.534,60.731 44.577,60.728C44.62,60.725 44.617,60.681 44.661,60.679C44.746,60.672 44.792,60.713 44.752,60.759C44.755,60.802 44.715,60.848 44.673,60.851C44.673,60.851 44.63,60.854 44.586,60.857C44.589,60.901 44.546,60.904 44.504,60.907C44.504,60.907 44.461,60.909 44.417,60.913L44.374,60.916C44.374,60.916 44.335,60.961 44.291,60.965C44.291,60.965 44.248,60.968 44.251,61.011L44.294,61.008C44.337,61.005 44.383,61.045 44.426,61.042C44.426,61.042 44.466,60.996 44.51,60.993C44.555,61.033 44.516,61.08 44.558,61.077C44.558,61.077 44.604,61.117 44.601,61.073C44.601,61.073 44.555,61.033 44.552,60.99C44.549,60.947 44.635,60.941 44.678,60.938L44.718,60.892L44.761,60.889C44.764,60.932 44.767,60.975 44.813,61.015C44.902,61.053 45.022,60.914 45.074,61.041C45.077,61.084 45.081,61.127 45.083,61.17C45.043,61.217 45.003,61.263 44.914,61.226C44.868,61.185 44.908,61.139 44.822,61.145L44.779,61.148C44.782,61.191 44.739,61.194 44.742,61.237C44.702,61.284 44.61,61.203 44.567,61.206C44.524,61.209 44.524,61.209 44.481,61.212L44.484,61.256L44.441,61.259C44.401,61.304 44.407,61.391 44.493,61.385C44.536,61.382 44.533,61.339 44.531,61.296L44.573,61.292C44.619,61.333 44.625,61.419 44.711,61.413C44.708,61.37 44.745,61.281 44.785,61.235C44.871,61.228 44.84,61.404 44.929,61.442L45.012,61.392C45.055,61.389 45.049,61.304 45.049,61.304L45.092,61.3C45.095,61.344 45.138,61.34 45.138,61.34C45.184,61.38 45.23,61.421 45.276,61.461C45.276,61.461 45.282,61.547 45.285,61.59L45.288,61.634C45.208,61.727 45.116,61.646 45.027,61.609C45.027,61.609 44.941,61.615 44.898,61.618C44.855,61.621 44.812,61.623 44.766,61.583C44.724,61.586 44.68,61.589 44.637,61.592C44.594,61.595 44.594,61.595 44.549,61.555L44.551,61.598L44.555,61.642C44.6,61.682 44.646,61.722 44.649,61.765C44.696,61.806 44.702,61.892 44.664,61.981C44.664,61.981 44.621,61.984 44.624,62.028Z" style="fill:rgb(0,64,152);fill-rule:nonzero;"/>
        </g>
        <g transform="matrix(5.21374,0,0,5.21376,-113.771,-255.181)">
            <path d="M44.008,61.853C43.876,61.819 43.916,61.773 43.866,61.689C43.863,61.646 43.821,61.649 43.818,61.606C43.818,61.606 43.814,61.563 43.769,61.522C43.726,61.525 43.643,61.574 43.6,61.577L43.56,61.624C43.517,61.627 43.517,61.627 43.474,61.63C43.391,61.679 43.081,61.57 43.075,61.484C43.112,61.394 43.186,61.215 43.269,61.166C43.269,61.166 43.309,61.12 43.311,61.163C43.358,61.203 43.361,61.247 43.364,61.289C43.367,61.333 43.367,61.333 43.41,61.33C43.458,61.414 43.462,61.457 43.545,61.408C43.587,61.405 43.631,61.401 43.674,61.399C43.708,61.266 43.481,61.108 43.512,60.932C43.555,60.929 43.552,60.886 43.595,60.883C43.595,60.883 43.641,60.923 43.644,60.966C43.686,60.964 43.69,61.006 43.693,61.05C43.696,61.093 43.748,61.219 43.751,61.263C43.797,61.303 43.88,61.254 43.922,61.251C43.966,61.248 43.966,61.248 44.009,61.245L43.963,61.205C43.917,61.164 43.913,61.121 43.871,61.124C43.865,61.038 43.859,60.951 43.945,60.945L43.991,60.985C43.993,61.029 44,61.115 44.045,61.156C44.092,61.196 44.094,61.239 44.141,61.28C44.187,61.32 44.233,61.36 44.275,61.357C44.278,61.4 44.331,61.526 44.291,61.573C44.291,61.573 44.248,61.576 44.205,61.579C44.202,61.536 44.159,61.539 44.156,61.495C44.11,61.455 43.931,61.381 43.931,61.381C43.895,61.47 43.987,61.55 44.036,61.634C44.036,61.634 44.039,61.678 44.085,61.718C44.085,61.718 44.088,61.761 44.045,61.764C44.048,61.807 44.005,61.81 44.008,61.853Z" style="fill:rgb(0,64,152);fill-rule:nonzero;"/>
        </g>
        <g transform="matrix(5.21374,0,0,5.21376,-113.771,-255.181)">
            <path d="M42.874,60.047C42.788,60.044 42.704,59.955 42.664,59.867C42.621,59.866 42.579,59.822 42.581,59.778C42.539,59.734 42.496,59.689 42.496,59.689L42.498,59.646C42.499,59.603 42.5,59.559 42.501,59.516C42.504,59.429 42.507,59.343 42.508,59.3C42.509,59.256 42.561,58.954 42.561,58.954C42.519,58.909 42.432,58.95 42.388,58.992C42.344,58.991 42.302,58.99 42.258,58.988C42.171,59.029 42.085,59.027 42.043,58.982C41.957,58.98 41.873,58.891 41.833,58.803C41.834,58.76 41.79,58.759 41.792,58.715C41.752,58.627 41.881,58.631 41.924,58.632C41.966,58.677 42.008,58.721 42.049,58.766C42.177,58.813 42.393,58.819 42.481,58.735L42.483,58.692C42.484,58.649 42.484,58.649 42.441,58.647C42.401,58.559 42.358,58.515 42.274,58.425L42.233,58.381C42.233,58.381 42.234,58.337 42.236,58.295C42.236,58.295 42.237,58.251 42.28,58.252C42.281,58.209 42.368,58.168 42.41,58.212C42.453,58.214 42.452,58.257 42.494,58.302L42.535,58.346C42.535,58.346 42.577,58.391 42.619,58.435C42.619,58.435 42.663,58.437 42.705,58.438C42.747,58.483 42.746,58.526 42.832,58.528C42.875,58.53 43.008,58.403 43.009,58.36C43.055,58.274 43.057,58.188 43.187,58.191C43.188,58.149 43.231,58.15 43.231,58.15C43.273,58.194 43.273,58.194 43.316,58.195C43.315,58.239 43.314,58.282 43.355,58.327C43.354,58.37 43.397,58.371 43.395,58.415L43.394,58.457C43.348,58.587 43.26,58.627 43.174,58.625C43.131,58.624 43.088,58.622 43.087,58.666C42.999,58.707 43.171,58.755 43.171,58.755C43.257,58.758 43.383,58.848 43.338,58.933C43.295,58.932 43.295,58.932 43.338,58.933C43.293,58.975 43.335,59.02 43.291,59.062C43.246,59.104 43.162,59.058 43.12,59.014C43.12,59.014 43.078,58.969 43.035,58.968C43.036,58.925 42.908,58.878 42.864,58.919C42.864,58.919 42.819,58.962 42.818,59.005C42.773,59.09 42.811,59.265 42.807,59.395C42.849,59.44 42.804,59.481 42.846,59.526C42.842,59.656 42.84,59.742 42.836,59.873C42.878,59.917 42.877,59.96 42.875,60.003L42.874,60.047Z" style="fill:rgb(0,64,152);fill-rule:nonzero;"/>
        </g>
        <g transform="matrix(5.21374,0,0,5.21376,-113.771,-255.181)">
            <path d="M41.065,58.28C40.894,58.259 40.642,58.186 40.529,58.042C40.491,57.994 40.459,57.903 40.421,57.854C40.393,57.72 40.371,57.543 40.301,57.404L40.306,57.361C40.263,57.356 40.268,57.313 40.225,57.308C40.172,57.389 40.082,57.422 39.996,57.411C39.863,57.44 39.649,57.414 39.569,57.361C39.531,57.313 39.488,57.308 39.493,57.265C39.498,57.222 39.546,57.184 39.546,57.184C39.589,57.189 39.669,57.242 39.712,57.248C39.797,57.257 40.021,57.197 40.069,57.158C40.117,57.12 40.005,56.976 40.009,56.933C39.966,56.928 40.02,56.847 40.068,56.809C40.163,56.733 40.352,56.974 40.411,56.85C40.463,56.769 40.431,56.677 40.436,56.634C40.397,56.586 40.323,56.49 40.418,56.414C40.418,56.414 40.461,56.419 40.504,56.424C40.545,56.429 40.626,56.483 40.713,56.493C40.755,56.498 40.798,56.503 40.883,56.513C40.969,56.523 41.098,56.538 41.134,56.586C41.173,56.634 41.173,56.634 41.168,56.677C41.162,56.72 41.109,56.801 41.067,56.796L41.024,56.791L41.019,56.834C40.976,56.829 40.885,56.862 40.843,56.857C40.8,56.852 40.762,56.804 40.714,56.842L40.709,56.885C40.704,56.928 40.747,56.933 40.747,56.933C40.827,56.986 40.956,57.001 40.988,57.092C41.063,57.189 40.93,57.216 40.888,57.212C40.754,57.239 40.636,57.138 40.54,57.214C40.498,57.209 40.525,57.343 40.568,57.348C40.6,57.439 40.59,57.526 40.628,57.573C40.661,57.665 40.693,57.756 40.774,57.809C40.806,57.9 40.881,57.996 41,58.097C40.995,58.14 41.08,58.151 41.075,58.193L41.113,58.242C41.07,58.236 41.065,58.28 41.065,58.28Z" style="fill:rgb(0,64,152);fill-rule:nonzero;"/>
        </g>
        <g transform="matrix(5.21374,0,0,5.21376,-113.771,-255.181)">
            <path d="M34.983,57.002C34.897,57.002 34.854,57.002 34.854,56.959C34.811,56.785 34.94,56.785 35.026,56.785C35.069,56.785 35.155,56.742 35.199,56.699C35.199,56.699 35.241,56.699 35.241,56.655C35.241,56.612 35.155,56.568 35.112,56.525L35.112,56.438C35.112,56.438 35.069,56.395 35.112,56.395C35.112,56.352 35.155,56.352 35.199,56.352C35.199,56.308 35.241,56.308 35.285,56.265C35.285,56.222 35.328,56.178 35.371,56.135C35.414,56.048 35.414,55.962 35.457,55.875C35.5,55.832 35.543,55.832 35.586,55.832C35.629,55.832 35.716,55.745 35.716,55.701C35.716,55.701 35.716,55.658 35.673,55.658C35.629,55.701 35.586,55.701 35.543,55.701C35.5,55.745 35.457,55.745 35.414,55.788C35.414,55.788 35.371,55.788 35.328,55.832C35.285,55.832 35.241,55.875 35.155,55.919C35.112,55.962 34.983,56.005 34.94,56.048C34.897,56.048 34.897,56.092 34.897,56.092C34.854,56.135 34.811,56.178 34.768,56.222L34.725,56.222L34.681,56.178C34.638,56.135 34.595,56.092 34.595,56.005C34.595,55.919 34.768,55.701 34.854,55.701C34.897,55.658 34.94,55.745 34.897,55.745L34.897,55.832C34.94,55.875 35.155,55.745 35.155,55.745C35.199,55.745 35.199,55.701 35.241,55.701C35.155,55.701 35.155,55.615 35.112,55.572C35.112,55.572 35.069,55.528 35.026,55.528C35.026,55.485 34.983,55.485 34.983,55.485C34.94,55.442 35.069,55.399 35.112,55.355C35.155,55.355 35.241,55.355 35.328,55.312C35.371,55.312 35.414,55.355 35.457,55.399C35.5,55.442 35.543,55.528 35.5,55.572C35.5,55.615 35.457,55.615 35.457,55.615C35.543,55.615 35.586,55.615 35.673,55.572L35.759,55.572C35.802,55.572 35.845,55.528 35.888,55.528C35.974,55.485 36.017,55.572 36.06,55.615C36.104,55.658 36.146,55.701 36.146,55.745C36.06,55.788 36.06,55.832 35.974,55.832L35.802,55.832C35.759,55.875 35.759,55.875 35.716,55.875L35.673,55.875C35.629,55.875 35.673,55.919 35.673,55.962L35.673,56.005C35.629,56.048 35.586,56.092 35.543,56.092C35.457,56.135 35.414,56.222 35.371,56.265L35.328,56.308C35.371,56.308 35.586,56.222 35.629,56.265C35.629,56.352 35.586,56.438 35.5,56.482L35.457,56.482C35.414,56.525 35.457,56.525 35.457,56.568L35.414,56.612C35.543,56.612 35.716,56.525 35.802,56.568C35.845,56.568 35.888,56.612 35.931,56.655C35.931,56.699 35.931,56.785 35.888,56.785C35.845,56.828 35.802,56.785 35.759,56.785C35.716,56.828 35.673,56.828 35.586,56.828C35.543,56.828 35.5,56.872 35.457,56.872L35.328,56.872C35.285,56.872 35.285,56.915 35.241,56.915C35.199,56.915 35.155,56.959 35.112,56.959C35.069,57.002 35.026,57.002 34.983,57.002Z" style="fill:rgb(0,64,152);fill-rule:nonzero;"/>
        </g>
        <g transform="matrix(5.21374,0,0,5.21376,-113.771,-255.181)">
            <path d="M35.156,56.222L35.07,56.222C35.07,56.178 35.027,56.092 35.07,56.048C35.112,56.005 35.156,56.048 35.199,56.048L35.285,56.005L35.285,56.048C35.285,56.092 35.285,56.092 35.242,56.092L35.242,56.178C35.199,56.222 35.199,56.222 35.156,56.222Z" style="fill:rgb(0,64,152);fill-rule:nonzero;"/>
        </g>
        <g transform="matrix(5.21374,0,0,5.21376,-113.771,-255.181)">
            <path d="M35.971,61.034L37.101,60.844L35.96,60.634L35.768,59.478L35.549,60.607L34.352,60.8L35.533,61.055L35.734,62.212L35.971,61.034Z" style="fill:rgb(0,64,152);fill-rule:nonzero;"/>
        </g>
        <g transform="matrix(5.21374,0,0,5.21376,-113.771,-255.181)">
            <path d="M29.663,62.227C29.62,62.227 29.577,62.184 29.534,62.184C29.491,62.227 29.448,62.184 29.448,62.141C29.404,62.097 29.491,62.054 29.491,62.011C29.491,62.011 29.448,61.794 29.448,61.751C29.404,61.707 29.362,61.664 29.319,61.664C29.146,61.491 29.146,61.837 28.974,61.794C28.845,61.751 28.974,61.534 28.93,61.491C28.845,61.361 28.715,61.448 28.629,61.361C28.543,61.274 28.672,61.057 28.758,61.014C28.845,60.971 28.93,61.014 28.974,61.014C29.06,61.057 29.06,61.057 29.103,61.101C29.146,61.144 29.189,61.187 29.232,61.187C29.319,61.274 29.448,61.317 29.534,61.404C29.534,61.448 29.577,61.448 29.62,61.491L29.62,61.621C29.62,61.664 29.663,61.707 29.663,61.751C29.706,61.837 29.706,61.881 29.706,61.924C29.749,62.011 29.792,62.141 29.663,62.227Z" style="fill:rgb(0,64,152);fill-rule:nonzero;"/>
        </g>
        <g transform="matrix(5.21374,0,0,5.21376,-113.771,-255.181)">
            <path d="M29.749,61.014L29.663,61.014C29.577,60.97 29.491,60.928 29.404,60.928C29.404,60.884 29.362,60.884 29.362,60.884C29.319,60.841 29.232,60.841 29.189,60.797C29.146,60.754 29.103,60.711 29.06,60.667L28.974,60.667C28.845,60.667 28.801,60.624 28.758,60.537C28.715,60.494 28.758,60.407 28.758,60.364C28.801,60.32 28.845,60.32 28.887,60.278C29.017,60.278 29.017,60.451 29.103,60.451C29.146,60.451 29.146,60.408 29.146,60.364L29.146,60.32C29.146,60.278 29.189,60.191 29.275,60.191C29.275,60.191 29.319,60.191 29.362,60.234L29.362,60.278C29.404,60.364 29.362,60.451 29.362,60.494C29.319,60.537 29.319,60.537 29.319,60.581C29.362,60.624 29.362,60.624 29.404,60.667C29.404,60.667 29.448,60.667 29.448,60.711C29.491,60.754 29.577,60.797 29.62,60.797L29.706,60.797C29.749,60.754 29.749,60.711 29.749,60.667C29.749,60.581 29.792,60.537 29.792,60.494C29.835,60.494 29.878,60.451 29.878,60.451C29.921,60.407 29.964,60.451 30.007,60.451C30.051,60.494 30.094,60.494 30.094,60.537C30.094,60.667 29.921,60.884 29.878,60.97C29.835,60.97 29.749,60.97 29.749,61.014Z" style="fill:rgb(0,64,152);fill-rule:nonzero;"/>
        </g>
        <g transform="matrix(5.21374,0,0,5.21376,-113.771,-255.181)">
            <path d="M30.745,59.936L30.659,59.936C30.616,59.893 30.487,59.763 30.53,59.719C30.572,59.676 30.659,59.719 30.659,59.676C30.659,59.676 30.745,59.589 30.745,59.633L30.745,59.719C30.788,59.806 30.831,59.892 30.745,59.936Z" style="fill:rgb(0,64,152);fill-rule:nonzero;"/>
        </g>
        <g transform="matrix(5.21374,0,0,5.21376,-113.771,-255.181)">
            <path d="M31.305,58.983L31.219,58.983C31.175,58.983 31.175,58.983 31.133,58.939L31.004,58.939L30.961,58.896C31.004,58.766 31.175,58.636 31.305,58.636C31.305,58.679 31.348,58.679 31.348,58.679C31.392,58.723 31.434,58.852 31.392,58.896C31.392,58.939 31.348,58.983 31.305,58.983Z" style="fill:rgb(0,64,152);fill-rule:nonzero;"/>
        </g>
        <g transform="matrix(5.21374,0,0,5.21376,-113.771,-255.181)">
            <path d="M29.926,59.199C29.926,59.199 29.884,59.199 29.84,59.156C29.84,59.156 29.797,59.156 29.797,59.112C29.754,59.026 29.884,58.983 29.926,58.939C29.926,58.896 29.97,58.809 30.013,58.766C30.013,58.723 30.056,58.679 30.056,58.636C30.099,58.592 30.099,58.549 30.056,58.506L30.013,58.506C29.97,58.549 29.84,58.592 29.84,58.462L29.84,58.333C29.884,58.333 29.926,58.289 29.97,58.246C30.013,58.246 30.013,58.203 30.056,58.159C30.142,58.116 30.228,58.203 30.228,58.289C30.314,58.289 30.314,58.203 30.358,58.203L30.4,58.159C30.443,58.116 30.616,57.899 30.659,57.986C30.702,57.986 30.702,58.029 30.702,58.029C30.659,58.073 30.616,58.116 30.616,58.159C30.572,58.203 30.53,58.203 30.487,58.246C30.4,58.376 30.271,58.462 30.228,58.592C30.185,58.679 30.185,58.723 30.142,58.766L30.142,58.853C30.099,58.896 30.056,58.983 30.056,59.026C30.013,59.069 30.056,59.112 30.013,59.156C30.013,59.199 29.97,59.199 29.926,59.199Z" style="fill:rgb(0,64,152);fill-rule:nonzero;"/>
        </g>
        <g transform="matrix(5.21374,0,0,5.21376,-113.771,-255.181)">
            <path d="M31.133,59.503L31.047,59.503C31.004,59.503 30.831,59.503 30.831,59.459C30.831,59.416 30.917,59.416 30.917,59.372L30.917,59.329C30.917,59.286 30.788,59.199 30.746,59.199C30.659,59.199 30.659,59.286 30.616,59.286C30.53,59.329 30.271,59.069 30.271,59.026C30.314,58.983 30.357,58.852 30.357,58.809C30.401,58.766 30.401,58.723 30.443,58.636C30.443,58.636 30.487,58.592 30.487,58.549C30.53,58.506 30.573,58.506 30.573,58.462C30.616,58.42 30.659,58.333 30.702,58.375L30.746,58.375C30.788,58.375 30.788,58.375 30.788,58.42C30.788,58.462 30.788,58.549 30.746,58.636L30.746,58.723C30.746,58.766 30.831,58.766 30.831,58.852L30.831,58.896C30.831,58.896 30.831,58.939 30.788,58.939C30.875,58.983 31.047,59.156 31.09,59.199C31.09,59.242 31.133,59.242 31.133,59.242C31.176,59.286 31.176,59.372 31.176,59.416C31.176,59.459 31.133,59.503 31.133,59.503ZM30.53,59.026C30.53,58.983 30.573,58.896 30.573,58.809L30.53,58.809C30.487,58.852 30.401,58.983 30.53,59.026Z" style="fill:rgb(0,64,152);fill-rule:nonzero;"/>
        </g>
        <g transform="matrix(5.21374,0,0,5.21376,-113.771,-255.181)">
            <path d="M32.626,56.928L32.583,56.884C32.54,56.798 32.626,56.754 32.669,56.711C32.669,56.668 32.712,56.625 32.712,56.625C32.712,56.538 32.583,56.581 32.583,56.538C32.54,56.495 32.626,56.365 32.626,56.321C32.669,56.321 32.755,56.278 32.798,56.235C32.842,56.192 32.971,56.235 32.971,56.321L32.971,56.451C33.014,56.495 33.143,56.278 33.229,56.321C33.229,56.365 33.229,56.408 33.186,56.408C33.186,56.451 33.1,56.538 33.056,56.538C32.971,56.581 32.971,56.581 32.927,56.625C32.885,56.625 32.885,56.668 32.842,56.668C32.798,56.754 32.712,56.884 32.626,56.928Z" style="fill:rgb(0,64,152);fill-rule:nonzero;"/>
        </g>
        <g transform="matrix(5.21374,0,0,5.21376,-113.771,-255.181)">
            <path d="M32.41,58.054C32.238,58.011 32.281,57.751 32.195,57.751L32.152,57.795C32.152,57.795 32.109,57.838 32.109,57.881L32.023,57.925C31.936,57.925 31.936,57.838 31.936,57.795C31.936,57.751 31.936,57.708 31.98,57.708C31.98,57.665 32.023,57.665 32.066,57.665C32.109,57.621 32.152,57.535 32.152,57.491C32.152,57.448 32.152,57.448 32.109,57.405C32.109,57.318 32.109,57.231 32.066,57.188C32.023,57.145 31.98,57.145 31.98,57.101C31.936,57.058 31.894,57.058 31.894,57.014C31.851,56.971 31.936,56.885 31.936,56.841C31.98,56.755 31.894,56.581 31.98,56.538C32.023,56.494 32.023,56.494 32.066,56.494C32.109,56.494 32.152,56.451 32.195,56.451C32.195,56.451 32.238,56.494 32.281,56.494C32.281,56.538 32.324,56.581 32.281,56.668C32.281,56.711 32.152,56.798 32.109,56.841C32.066,56.841 32.066,56.885 32.023,56.885C32.023,56.928 31.98,56.928 31.98,56.971C31.98,56.971 31.98,57.014 32.023,57.014C32.066,57.058 32.066,57.058 32.109,57.058L32.109,56.971C32.109,56.928 32.152,56.885 32.152,56.841C32.195,56.798 32.238,56.798 32.281,56.798C32.41,56.755 32.453,56.928 32.497,57.014L32.497,57.101C32.54,57.188 32.583,57.231 32.583,57.318C32.626,57.361 32.626,57.405 32.626,57.448C32.712,57.535 32.841,57.795 32.798,57.924C32.798,57.968 32.712,57.968 32.712,57.968C32.669,57.924 32.669,57.881 32.626,57.838C32.583,57.795 32.497,57.751 32.453,57.665C32.453,57.621 32.497,57.621 32.497,57.621L32.583,57.708L32.626,57.708C32.626,57.665 32.583,57.535 32.54,57.535L32.54,57.491L32.497,57.448C32.453,57.491 32.453,57.491 32.453,57.535C32.41,57.578 32.41,57.578 32.368,57.621L32.368,57.708C32.368,57.795 32.453,57.968 32.41,58.054ZM32.281,57.361L32.281,57.318C32.281,57.274 32.195,57.188 32.281,57.188L32.368,57.188C32.368,57.144 32.368,57.101 32.324,57.101C32.324,57.058 32.238,56.971 32.238,57.014C32.195,57.014 32.195,57.058 32.195,57.101L32.195,57.231C32.195,57.274 32.238,57.361 32.281,57.361Z" style="fill:rgb(0,64,152);fill-rule:nonzero;"/>
        </g>
        <g transform="matrix(5.21374,0,0,5.21376,-113.771,-255.181)">
            <path d="M32.927,57.708C32.885,57.708 32.841,57.664 32.841,57.664L32.841,57.578C32.841,57.491 32.798,57.448 32.798,57.405L32.798,57.145C32.798,57.101 32.755,57.014 32.755,57.014C32.798,57.014 32.798,56.971 32.798,56.971C32.841,56.971 32.885,56.928 32.927,56.928C32.971,56.841 32.971,56.711 33.056,56.711C33.229,56.625 33.143,56.841 33.186,56.928C33.186,57.014 33.229,57.101 33.316,57.145C33.316,57.188 33.358,57.188 33.358,57.188C33.401,57.231 33.617,57.188 33.617,57.145C33.617,57.101 33.574,57.014 33.574,56.971L33.574,56.928C33.574,56.928 33.617,56.928 33.617,56.971C33.66,56.971 33.66,57.014 33.703,57.058C33.746,57.101 33.79,57.145 33.832,57.188C33.832,57.231 33.876,57.275 33.832,57.318C33.832,57.361 33.79,57.361 33.746,57.405C33.746,57.405 33.703,57.405 33.66,57.448C33.574,57.448 33.316,57.448 33.229,57.361C33.186,57.275 33.143,57.188 33.1,57.101C33.056,57.058 33.056,57.014 33.014,57.014L32.971,57.014C32.885,57.101 32.971,57.231 32.971,57.318C33.014,57.448 33.014,57.621 32.927,57.708ZM32.885,57.405L32.885,57.188L32.841,57.188L32.841,57.231C32.841,57.275 32.841,57.361 32.885,57.405Z" style="fill:rgb(0,64,152);fill-rule:nonzero;"/>
        </g>
        <g transform="matrix(5.21374,0,0,5.21376,-113.771,-255.181)">
            <path d="M38.461,55.87C38.375,55.87 38.245,55.783 38.245,55.696C38.245,55.653 38.245,55.653 38.288,55.653C38.288,55.61 38.332,55.61 38.375,55.61L38.59,55.61C38.59,55.653 38.633,55.653 38.633,55.653C38.676,55.74 38.547,55.827 38.461,55.87Z" style="fill:rgb(0,64,152);fill-rule:nonzero;"/>
        </g>
        <g transform="matrix(5.21374,0,0,5.21376,-113.771,-255.181)">
            <path d="M37.513,55.653L37.47,55.653C37.47,55.566 37.513,55.523 37.555,55.48C37.599,55.437 37.599,55.437 37.599,55.393C37.642,55.35 37.685,55.307 37.728,55.307C37.771,55.307 37.815,55.307 37.857,55.35C37.857,55.35 37.944,55.35 37.944,55.393C37.987,55.393 37.987,55.436 37.987,55.48C37.944,55.653 37.815,55.566 37.685,55.566L37.642,55.566C37.599,55.61 37.555,55.653 37.513,55.653Z" style="fill:rgb(0,64,152);fill-rule:nonzero;"/>
        </g>
        <g transform="matrix(5.21374,0,0,5.21376,-113.771,-255.181)">
            <path d="M38.59,57.04C38.546,57.04 38.46,56.997 38.417,56.953C38.331,56.91 38.245,56.78 38.245,56.693C38.245,56.607 38.245,56.433 38.288,56.39L38.288,56.347L38.245,56.347C38.245,56.347 38.201,56.347 38.159,56.39C38.116,56.477 38.072,56.52 38.029,56.607C37.987,56.607 37.987,56.65 37.944,56.693C37.9,56.736 37.858,56.736 37.814,56.736C37.771,56.736 37.728,56.736 37.728,56.693C37.685,56.65 37.858,56.607 37.9,56.607L37.9,56.563C37.944,56.477 37.987,56.433 38.029,56.347C38.029,56.303 37.987,56.217 38.029,56.173L38.072,56.173C38.159,56.173 38.159,56.26 38.245,56.26C38.288,56.26 38.331,56.173 38.417,56.173C38.46,56.173 38.504,56.173 38.504,56.26C38.504,56.26 38.417,56.303 38.417,56.347C38.374,56.39 38.331,56.563 38.331,56.607C38.331,56.65 38.331,56.65 38.374,56.693C38.374,56.736 38.504,56.823 38.546,56.78C38.59,56.736 38.59,56.693 38.633,56.65L38.676,56.65L38.719,56.693C38.719,56.693 38.719,56.953 38.676,56.953C38.676,56.997 38.633,56.997 38.59,57.04Z" style="fill:rgb(0,64,152);fill-rule:nonzero;"/>
        </g>
        <g transform="matrix(5.21374,0,0,5.21376,-113.771,-255.181)">
            <path d="M37.944,56.086L37.901,56.043L37.901,56C37.944,56 37.944,56 37.944,55.957L38.417,55.957C38.504,55.957 38.547,55.913 38.59,55.913C38.633,55.87 38.633,55.87 38.676,55.87L38.719,55.87C38.762,55.87 38.805,55.957 38.762,56C38.719,56 38.633,56.043 38.59,56.043L38.375,56.043C38.332,56.086 38.245,56.086 38.202,56.086L37.944,56.086Z" style="fill:rgb(0,64,152);fill-rule:nonzero;"/>
        </g>
        <g transform="matrix(5.21374,0,0,5.21376,-113.771,-255.181)">
            <path d="M37.555,56.867L37.513,56.867C37.47,56.823 37.384,56.52 37.47,56.52L37.513,56.607C37.555,56.563 37.599,56.39 37.555,56.347C37.513,56.347 37.341,56.433 37.341,56.433C37.254,56.476 37.168,56.693 37.082,56.693L37.082,56.563C37.125,56.52 37.168,56.52 37.211,56.433C37.168,56.39 37.125,56.433 37.082,56.433L37.039,56.433C36.953,56.39 37.039,56.217 37.082,56.173C37.125,56.13 37.168,56.217 37.211,56.217L37.297,56.217C37.297,56.217 37.341,56.217 37.341,56.173C37.384,56.13 37.384,56.043 37.384,55.956C37.426,55.913 37.426,55.827 37.47,55.783C37.47,55.74 37.47,55.74 37.513,55.74C37.555,55.783 37.513,55.87 37.513,55.956L37.599,55.956L37.642,56L37.685,56L37.728,55.87C37.685,55.827 37.599,55.827 37.599,55.827L37.599,55.783L37.642,55.74C37.728,55.74 37.815,55.696 37.858,55.783L37.858,55.87L37.815,55.913C37.815,55.956 37.771,56.043 37.771,56.086C37.728,56.086 37.685,56.13 37.685,56.173L37.728,56.173C37.771,56.173 37.771,56.217 37.771,56.217L37.771,56.26C37.728,56.303 37.685,56.303 37.685,56.347L37.685,56.433C37.685,56.476 37.642,56.52 37.642,56.563C37.642,56.693 37.642,56.78 37.555,56.867ZM37.513,56.217L37.513,56.043L37.47,56.043C37.47,56.086 37.47,56.13 37.426,56.173L37.426,56.217L37.513,56.217Z" style="fill:rgb(0,64,152);fill-rule:nonzero;"/>
        </g>
        <g transform="matrix(5.21374,0,0,5.21376,-113.771,-255.181)">
            <path d="M35.869,63.366C35.87,63.366 35.266,63.172 34.702,63.158L34.688,63.096L35.345,62.792L35.345,62.862L34.835,63.096C34.835,63.096 35.514,63.183 35.832,63.283C35.869,63.364 35.869,63.365 35.869,63.366Z" style="fill:rgb(0,64,152);fill-rule:nonzero;"/>
        </g>
        <g transform="matrix(5.21374,0,0,5.21376,-113.771,-255.181)">
            <path d="M41.045,60.161L41.084,60.214L35.509,68.443L35.452,68.407L36.446,65.51L36.529,65.386L35.621,68.154L40.941,60.282L39.345,61.028L39.429,60.904L41.045,60.161Z" style="fill:rgb(0,64,152);fill-rule:nonzero;"/>
        </g>
        <g transform="matrix(5.21374,0,0,5.21376,-113.771,-255.181)">
            <path d="M40.995,65.091L40.869,64.614L38.221,64.612L37.901,65.089L40.995,65.091ZM36.647,64.62L35.837,64.618C35.802,64.758 35.742,64.915 35.694,65.089L36.531,65.087C36.578,64.918 36.618,64.76 36.647,64.62ZM35.677,64.611L31.844,64.616L31.717,65.087L35.542,65.093C35.584,64.941 35.637,64.772 35.677,64.611Z" style="fill:rgb(0,64,152);fill-rule:nonzero;"/>
        </g>
        <g transform="matrix(5.21374,0,0,5.21376,-113.771,-255.181)">
            <path d="M31.66,63.828C31.66,62.493 33.282,61.379 35.433,61.127C34.364,61.535 33.603,62.576 33.603,63.797C33.603,64.015 33.628,64.227 33.674,64.431L31.774,64.431C31.7,64.237 31.66,64.035 31.66,63.828ZM33.72,64.61C33.769,64.777 33.834,64.937 33.911,65.09L32.182,65.09C32.048,64.938 31.929,64.777 31.845,64.61L33.72,64.61ZM33.981,65.22C34.012,65.274 34.045,65.327 34.079,65.379L32.476,65.379C32.416,65.327 32.359,65.274 32.305,65.22L33.981,65.22ZM34.171,65.509C34.308,65.693 34.467,65.86 34.643,66.006L33.483,66.006C33.167,65.862 32.882,65.696 32.638,65.509L34.171,65.509ZM34.814,66.136C34.93,66.218 35.052,66.291 35.179,66.355C35.163,66.4 35.147,66.444 35.132,66.488C34.651,66.411 34.201,66.292 33.795,66.136L34.814,66.136ZM35.292,66.406C35.423,66.464 35.571,66.519 35.712,66.557C35.562,66.545 35.402,66.529 35.258,66.508C35.268,66.477 35.281,66.437 35.292,66.406ZM37.526,61.159C37.913,61.216 38.28,61.302 38.622,61.413L38.239,61.59C38.025,61.413 37.785,61.267 37.526,61.159ZM39.988,62.077C40.657,62.553 41.059,63.163 41.059,63.828C41.059,64.052 41.013,64.271 40.926,64.48L39.194,64.48C39.247,64.261 39.275,64.032 39.275,63.797C39.275,63.598 39.255,63.404 39.217,63.216L39.988,62.077ZM40.867,64.61C40.783,64.777 40.672,64.938 40.538,65.09L38.968,65.09C39.045,64.937 39.109,64.777 39.158,64.61L40.867,64.61ZM40.415,65.22C40.361,65.274 40.303,65.327 40.243,65.379L38.8,65.379C38.834,65.327 38.866,65.274 38.897,65.22L40.415,65.22ZM40.082,65.509C39.837,65.696 39.552,65.862 39.236,66.006L38.235,66.006C38.412,65.86 38.571,65.693 38.708,65.509L40.082,65.509ZM38.925,66.136C38.424,66.328 37.858,66.465 37.249,66.534C37.544,66.445 37.819,66.31 38.065,66.136L38.925,66.136Z" style="fill:rgb(0,64,152);fill-rule:nonzero;"/>
        </g>
        <g transform="matrix(5.21374,0,0,5.21376,-113.771,-255.181)">
            <path d="M40.141,59.669L34.416,62.421C34.416,62.421 35.029,62.463 35.498,62.722C35.499,62.723 35.499,62.723 35.5,62.723C35.501,62.724 35.502,62.725 35.502,62.725C35.797,62.889 36.034,63.14 36.027,63.521L36.027,63.545L36.026,63.545L36.026,63.552C35.971,64.57 34.745,68.02 34.745,68.02L40.141,59.669ZM36.027,63.521C36.026,63.529 36.026,63.537 36.026,63.545L36.027,63.545L36.027,63.521Z" style="fill:rgb(0,64,152);fill-rule:nonzero;"/>
        </g>
        <g transform="matrix(5.21374,0,0,5.21376,-113.771,-255.181)">
            <path d="M41.027,65.512L41.237,66.005L37.27,66.005L37.62,65.513L41.027,65.512ZM36.324,66.005L36.167,66.005L36.446,65.51L36.489,65.509C36.437,65.67 36.384,65.837 36.324,66.005ZM36.047,66.002L35.419,66.002C35.477,65.827 35.52,65.666 35.568,65.512L36.369,65.505L36.047,66.002ZM35.289,66.005L31.627,66.005L31.731,65.703L31.736,65.69L31.793,65.51L35.431,65.512C35.375,65.686 35.345,65.851 35.289,66.005Z" style="fill:rgb(0,64,152);fill-rule:nonzero;"/>
        </g>
        <g transform="matrix(5.21374,0,0,5.21376,-113.771,-255.181)">
            <path d="M43.956,66.26L44.028,66.051L44.045,66.057L44.041,66.069C44.038,66.076 44.037,66.088 44.039,66.105C44.041,66.122 44.045,66.139 44.053,66.156C44.062,66.172 44.077,66.194 44.099,66.222L44.271,66.445L44.418,66.498C44.453,66.511 44.477,66.515 44.489,66.51C44.505,66.503 44.518,66.488 44.526,66.463L44.532,66.444L44.549,66.45L44.461,66.704L44.444,66.698L44.452,66.677C44.461,66.652 44.459,66.631 44.448,66.615C44.441,66.605 44.421,66.595 44.389,66.583L44.25,66.533L43.948,66.61C43.912,66.619 43.89,66.626 43.88,66.63C43.87,66.634 43.857,66.645 43.839,66.663C43.834,66.668 43.83,66.676 43.826,66.688L43.81,66.682L43.899,66.426L43.915,66.432L43.91,66.445C43.905,66.459 43.904,66.473 43.907,66.486C43.908,66.5 43.916,66.51 43.929,66.514C43.939,66.518 43.961,66.516 43.994,66.507L44.226,66.45L44.086,66.268C44.065,66.241 44.048,66.224 44.035,66.22C44.027,66.217 44.019,66.216 44.011,66.219C44.003,66.221 43.997,66.225 43.99,66.232C43.983,66.238 43.978,66.25 43.972,66.266L43.956,66.26Z" style="fill:rgb(0,64,152);fill-rule:nonzero;"/>
        </g>
        <g transform="matrix(5.21374,0,0,5.21376,-113.771,-255.181)">
            <path d="M43.561,67.224L43.694,67.286L43.685,67.302C43.661,67.293 43.643,67.288 43.631,67.288C43.61,67.289 43.593,67.294 43.578,67.305C43.564,67.315 43.551,67.332 43.538,67.355L43.498,67.435L43.919,67.656C43.953,67.674 43.976,67.681 43.988,67.679C44.005,67.674 44.019,67.661 44.03,67.639L44.04,67.619L44.055,67.627L43.933,67.866L43.918,67.859L43.929,67.838C43.94,67.815 43.942,67.794 43.933,67.776C43.928,67.766 43.909,67.752 43.878,67.736L43.457,67.514L43.423,67.582C43.41,67.608 43.402,67.628 43.4,67.641C43.398,67.658 43.402,67.676 43.411,67.694C43.421,67.712 43.437,67.728 43.461,67.743L43.453,67.759L43.327,67.684L43.561,67.224Z" style="fill:rgb(0,64,152);fill-rule:nonzero;"/>
        </g>
        <g transform="matrix(5.21374,0,0,5.21376,-113.771,-255.181)">
            <path d="M43.393,68.564L43.407,68.575L43.248,68.794L43.235,68.783L43.248,68.765C43.263,68.744 43.268,68.724 43.263,68.706C43.26,68.694 43.243,68.676 43.213,68.654L42.89,68.412C42.865,68.393 42.847,68.382 42.837,68.379C42.829,68.377 42.82,68.378 42.81,68.383C42.796,68.39 42.784,68.398 42.776,68.411L42.763,68.429L42.749,68.418L42.907,68.199L42.921,68.21L42.908,68.229C42.893,68.249 42.888,68.269 42.893,68.287C42.896,68.3 42.913,68.317 42.943,68.339L43.265,68.582C43.29,68.601 43.308,68.612 43.319,68.614C43.327,68.617 43.336,68.615 43.346,68.611C43.36,68.604 43.371,68.595 43.38,68.583L43.393,68.564Z" style="fill:rgb(0,64,152);fill-rule:nonzero;"/>
        </g>
        <g transform="matrix(5.21374,0,0,5.21376,-113.771,-255.181)">
            <path d="M42.302,68.991L42.462,69.135L42.451,69.148C42.417,69.125 42.386,69.11 42.358,69.105C42.33,69.099 42.302,69.102 42.274,69.112C42.246,69.123 42.222,69.138 42.204,69.16C42.183,69.184 42.173,69.211 42.173,69.24C42.174,69.269 42.184,69.291 42.202,69.308C42.217,69.321 42.234,69.328 42.254,69.328C42.284,69.329 42.337,69.315 42.412,69.286C42.474,69.263 42.518,69.248 42.545,69.243C42.571,69.239 42.597,69.239 42.621,69.245C42.646,69.252 42.668,69.263 42.686,69.28C42.722,69.312 42.74,69.353 42.741,69.404C42.742,69.455 42.724,69.502 42.686,69.546C42.673,69.56 42.662,69.572 42.649,69.582C42.642,69.589 42.624,69.6 42.597,69.616C42.571,69.632 42.554,69.644 42.549,69.65C42.544,69.656 42.542,69.662 42.542,69.668C42.543,69.675 42.548,69.684 42.557,69.695L42.546,69.708L42.387,69.565L42.397,69.552C42.436,69.576 42.468,69.59 42.494,69.594C42.519,69.599 42.547,69.596 42.576,69.584C42.605,69.573 42.631,69.555 42.653,69.53C42.678,69.5 42.691,69.47 42.69,69.44C42.689,69.409 42.679,69.385 42.658,69.366C42.647,69.356 42.633,69.349 42.615,69.345C42.598,69.341 42.579,69.341 42.557,69.345C42.542,69.348 42.506,69.36 42.449,69.381C42.391,69.401 42.348,69.414 42.32,69.42C42.292,69.425 42.266,69.425 42.242,69.42C42.218,69.414 42.197,69.403 42.178,69.385C42.145,69.356 42.127,69.317 42.126,69.268C42.124,69.221 42.141,69.177 42.176,69.136C42.198,69.111 42.227,69.089 42.264,69.072C42.281,69.064 42.292,69.057 42.296,69.052C42.301,69.046 42.304,69.039 42.304,69.032C42.303,69.025 42.299,69.016 42.291,69.004L42.302,68.991Z" style="fill:rgb(0,64,152);fill-rule:nonzero;"/>
        </g>
        <g transform="matrix(5.21374,0,0,5.21376,-113.771,-255.181)">
            <path d="M40.472,70.609L40.6,70.822L40.716,70.749C40.747,70.73 40.764,70.713 40.769,70.697C40.775,70.677 40.769,70.65 40.753,70.618L40.767,70.609L40.88,70.797L40.866,70.806C40.846,70.782 40.832,70.767 40.824,70.762C40.814,70.756 40.802,70.753 40.788,70.755C40.774,70.757 40.756,70.764 40.734,70.778L40.618,70.851L40.724,71.028C40.739,71.053 40.749,71.066 40.754,71.071C40.759,71.074 40.765,71.076 40.772,71.076C40.779,71.075 40.791,71.071 40.804,71.062L40.894,71.006C40.925,70.986 40.945,70.971 40.956,70.958C40.967,70.945 40.975,70.929 40.98,70.909C40.986,70.882 40.988,70.847 40.985,70.803L41,70.793L41.036,70.957L40.628,71.213L40.619,71.199L40.638,71.187C40.65,71.179 40.66,71.168 40.668,71.156C40.674,71.146 40.675,71.136 40.674,71.126C40.671,71.116 40.662,71.097 40.646,71.071L40.436,70.721C40.415,70.686 40.399,70.668 40.387,70.664C40.372,70.659 40.353,70.664 40.331,70.677L40.313,70.689L40.304,70.674L40.712,70.418L40.788,70.532L40.773,70.542C40.751,70.517 40.733,70.501 40.72,70.494C40.707,70.489 40.692,70.486 40.676,70.489C40.663,70.492 40.644,70.501 40.617,70.517L40.472,70.609Z" style="fill:rgb(0,64,152);fill-rule:nonzero;"/>
        </g>
        <g transform="matrix(5.21374,0,0,5.21376,-113.771,-255.181)">
            <path d="M39.819,70.953L39.826,70.969C39.807,70.982 39.795,70.995 39.789,71.009C39.78,71.03 39.776,71.057 39.777,71.091L39.789,71.674L39.773,71.681L39.347,71.275C39.325,71.255 39.31,71.243 39.303,71.239C39.292,71.233 39.281,71.23 39.269,71.23C39.256,71.229 39.241,71.233 39.223,71.239L39.216,71.222L39.449,71.119L39.456,71.135C39.43,71.149 39.415,71.161 39.41,71.171C39.405,71.181 39.405,71.191 39.409,71.202C39.415,71.216 39.432,71.235 39.457,71.26L39.747,71.535L39.739,71.139C39.738,71.1 39.734,71.074 39.729,71.061C39.725,71.053 39.717,71.047 39.707,71.043C39.695,71.039 39.679,71.04 39.658,71.046C39.657,71.046 39.654,71.047 39.65,71.048L39.644,71.031L39.819,70.953Z" style="fill:rgb(0,64,152);fill-rule:nonzero;"/>
        </g>
        <g transform="matrix(5.21374,0,0,5.21376,-113.771,-255.181)">
            <path d="M38.785,72.005L38.79,72.021L38.532,72.091L38.528,72.074L38.549,72.068C38.574,72.061 38.59,72.049 38.597,72.031C38.602,72.02 38.6,71.996 38.591,71.959L38.49,71.563C38.482,71.532 38.475,71.512 38.469,71.503C38.464,71.496 38.456,71.492 38.446,71.489C38.431,71.485 38.416,71.485 38.402,71.489L38.381,71.494L38.376,71.478L38.634,71.409L38.638,71.425L38.616,71.431C38.592,71.438 38.576,71.45 38.569,71.467C38.564,71.479 38.566,71.503 38.575,71.54L38.676,71.936C38.683,71.967 38.691,71.987 38.697,71.996C38.702,72.003 38.709,72.007 38.721,72.01C38.735,72.014 38.749,72.014 38.764,72.011L38.785,72.005Z" style="fill:rgb(0,64,152);fill-rule:nonzero;"/>
        </g>
        <g transform="matrix(5.21374,0,0,5.21376,-113.771,-255.181)">
            <path d="M37.133,71.616L37.3,71.596L37.73,72.023L37.69,71.66C37.685,71.621 37.679,71.597 37.669,71.589C37.656,71.577 37.638,71.572 37.613,71.576L37.592,71.578L37.59,71.561L37.804,71.535L37.806,71.552L37.785,71.555C37.759,71.558 37.741,71.568 37.731,71.586C37.727,71.596 37.726,71.619 37.73,71.654L37.789,72.185L37.772,72.187L37.309,71.729L37.353,72.117C37.357,72.155 37.363,72.179 37.373,72.188C37.386,72.199 37.404,72.203 37.429,72.201L37.45,72.198L37.452,72.215L37.238,72.241L37.236,72.224L37.257,72.221C37.283,72.218 37.3,72.207 37.31,72.19C37.316,72.18 37.316,72.156 37.312,72.121L37.264,71.684C37.243,71.664 37.228,71.652 37.218,71.646C37.208,71.64 37.194,71.636 37.175,71.632C37.166,71.631 37.153,71.631 37.135,71.633L37.133,71.616Z" style="fill:rgb(0,64,152);fill-rule:nonzero;"/>
        </g>
        <g transform="matrix(5.21374,0,0,5.21376,-113.771,-255.181)">
            <path d="M36.37,71.644L36.37,71.626L36.59,71.632L36.59,71.649L36.566,71.649C36.542,71.648 36.523,71.658 36.509,71.678C36.502,71.688 36.498,71.71 36.498,71.746L36.491,72.002C36.489,72.066 36.482,72.115 36.469,72.149C36.456,72.184 36.431,72.214 36.394,72.238C36.357,72.263 36.307,72.274 36.245,72.272C36.177,72.271 36.126,72.258 36.092,72.233C36.057,72.208 36.033,72.175 36.02,72.135C36.011,72.107 36.007,72.055 36.009,71.978L36.016,71.73C36.016,71.692 36.012,71.666 36.002,71.653C35.991,71.641 35.975,71.635 35.951,71.634L35.927,71.634L35.928,71.616L36.196,71.622L36.196,71.64L36.172,71.639C36.146,71.639 36.128,71.646 36.116,71.662C36.109,71.674 36.104,71.697 36.103,71.733L36.096,72.008C36.096,72.033 36.097,72.061 36.1,72.093C36.104,72.125 36.112,72.15 36.123,72.168C36.134,72.186 36.15,72.201 36.172,72.213C36.193,72.225 36.22,72.232 36.252,72.233C36.292,72.233 36.329,72.225 36.361,72.208C36.394,72.191 36.416,72.168 36.429,72.14C36.441,72.112 36.449,72.065 36.45,71.997L36.457,71.741C36.458,71.701 36.454,71.676 36.446,71.666C36.434,71.652 36.417,71.645 36.393,71.644L36.37,71.644Z" style="fill:rgb(0,64,152);fill-rule:nonzero;"/>
        </g>
        <g transform="matrix(5.21374,0,0,5.21376,-113.771,-255.181)">
            <path d="M34.397,71.297L34.349,71.491L34.335,71.486C34.335,71.434 34.326,71.392 34.31,71.359C34.286,71.313 34.247,71.281 34.192,71.262C34.117,71.237 34.05,71.248 33.991,71.295C33.942,71.335 33.905,71.39 33.882,71.461C33.863,71.519 33.857,71.574 33.863,71.629C33.869,71.684 33.886,71.728 33.915,71.761C33.943,71.796 33.975,71.819 34.012,71.832C34.034,71.839 34.056,71.843 34.078,71.844C34.1,71.845 34.122,71.843 34.144,71.839L34.201,71.665C34.211,71.635 34.215,71.615 34.214,71.604C34.213,71.593 34.208,71.584 34.2,71.576C34.193,71.568 34.177,71.56 34.153,71.551L34.158,71.535L34.386,71.611L34.381,71.628L34.37,71.625C34.348,71.617 34.33,71.619 34.316,71.632C34.307,71.641 34.297,71.662 34.286,71.694L34.226,71.877C34.187,71.885 34.149,71.887 34.114,71.885C34.079,71.882 34.041,71.875 34.001,71.861C33.888,71.823 33.813,71.756 33.779,71.663C33.753,71.591 33.752,71.519 33.776,71.447C33.793,71.394 33.822,71.347 33.863,71.307C33.911,71.259 33.967,71.229 34.028,71.215C34.08,71.204 34.135,71.208 34.194,71.229C34.215,71.235 34.234,71.243 34.25,71.253C34.267,71.263 34.289,71.279 34.317,71.302C34.331,71.314 34.341,71.32 34.347,71.322C34.353,71.324 34.358,71.323 34.363,71.319C34.369,71.315 34.375,71.306 34.38,71.291L34.397,71.297Z" style="fill:rgb(0,64,152);fill-rule:nonzero;"/>
        </g>
        <g transform="matrix(5.21374,0,0,5.21376,-113.771,-255.181)">
            <path d="M32.729,70.57L32.88,70.646L33.012,71.243L33.172,70.916C33.189,70.881 33.195,70.857 33.192,70.845C33.188,70.828 33.175,70.814 33.153,70.803L33.133,70.793L33.141,70.778L33.335,70.875L33.327,70.891L33.307,70.881C33.284,70.869 33.264,70.868 33.247,70.878C33.236,70.883 33.224,70.902 33.208,70.934L32.975,71.413L32.96,71.406L32.816,70.763L32.645,71.113C32.628,71.148 32.622,71.172 32.625,71.184C32.629,71.2 32.643,71.215 32.664,71.226L32.684,71.235L32.676,71.251L32.483,71.153L32.49,71.137L32.509,71.148C32.533,71.159 32.554,71.16 32.571,71.151C32.581,71.145 32.594,71.126 32.609,71.095L32.802,70.699C32.796,70.672 32.789,70.653 32.784,70.643C32.779,70.632 32.77,70.621 32.756,70.607C32.749,70.601 32.738,70.593 32.721,70.585L32.729,70.57Z" style="fill:rgb(0,64,152);fill-rule:nonzero;"/>
        </g>
        <g transform="matrix(5.21374,0,0,5.21376,-113.771,-255.181)">
            <path d="M30.82,69.375L31.026,69.58L31.15,69.451C31.172,69.428 31.186,69.411 31.19,69.401C31.193,69.393 31.193,69.384 31.19,69.373C31.186,69.358 31.178,69.345 31.168,69.335L31.152,69.319L31.164,69.307L31.354,69.496L31.342,69.509L31.326,69.493C31.316,69.482 31.303,69.475 31.289,69.471C31.279,69.468 31.268,69.468 31.259,69.473C31.25,69.477 31.234,69.491 31.213,69.513L30.932,69.806C30.91,69.829 30.897,69.846 30.892,69.856C30.889,69.863 30.889,69.873 30.892,69.884C30.897,69.899 30.904,69.911 30.915,69.922L30.93,69.937L30.918,69.95L30.729,69.76L30.741,69.748L30.756,69.764C30.774,69.782 30.793,69.789 30.812,69.787C30.824,69.785 30.843,69.77 30.869,69.744L31.002,69.605L30.796,69.4L30.663,69.538C30.641,69.561 30.628,69.577 30.624,69.587C30.621,69.595 30.621,69.605 30.624,69.616C30.628,69.63 30.635,69.643 30.646,69.654L30.662,69.669L30.65,69.682L30.46,69.492L30.472,69.48L30.488,69.495C30.506,69.514 30.525,69.522 30.544,69.519C30.555,69.517 30.575,69.502 30.601,69.475L30.882,69.182C30.904,69.16 30.917,69.143 30.921,69.132C30.924,69.125 30.924,69.116 30.922,69.105C30.917,69.09 30.91,69.077 30.899,69.067L30.884,69.051L30.896,69.039L31.085,69.228L31.074,69.241L31.058,69.225C31.047,69.215 31.035,69.207 31.021,69.203C31.01,69.2 31,69.2 30.991,69.205C30.981,69.21 30.966,69.223 30.944,69.245L30.82,69.375Z" style="fill:rgb(0,64,152);fill-rule:nonzero;"/>
        </g>
        <g transform="matrix(5.21374,0,0,5.21376,-113.771,-255.181)">
            <path d="M30.025,68.974L30.012,68.985L29.854,68.767L29.867,68.757L29.88,68.775C29.895,68.796 29.912,68.807 29.931,68.807C29.943,68.807 29.965,68.796 29.995,68.772L30.317,68.528C30.342,68.509 30.358,68.495 30.363,68.486C30.368,68.478 30.37,68.469 30.368,68.458C30.366,68.443 30.361,68.429 30.352,68.417L30.339,68.399L30.353,68.388L30.511,68.606L30.497,68.617L30.484,68.598C30.468,68.577 30.452,68.567 30.433,68.567C30.42,68.566 30.399,68.577 30.369,68.6L30.047,68.845C30.022,68.864 30.006,68.878 30.001,68.888C29.996,68.895 29.995,68.904 29.996,68.915C29.998,68.93 30.003,68.944 30.012,68.956L30.025,68.974Z" style="fill:rgb(0,64,152);fill-rule:nonzero;"/>
        </g>
        <g transform="matrix(5.21374,0,0,5.21376,-113.771,-255.181)">
            <path d="M29.854,67.537L29.644,67.669L29.715,67.788C29.734,67.818 29.751,67.836 29.766,67.841C29.787,67.846 29.812,67.841 29.844,67.824L29.852,67.838L29.668,67.954L29.659,67.94C29.683,67.92 29.697,67.905 29.702,67.897C29.708,67.887 29.711,67.874 29.709,67.86C29.708,67.846 29.701,67.828 29.687,67.805L29.616,67.687L29.441,67.797C29.418,67.811 29.404,67.821 29.4,67.827C29.396,67.832 29.395,67.838 29.395,67.845C29.395,67.852 29.4,67.864 29.409,67.879L29.464,67.97C29.482,68 29.497,68.021 29.51,68.032C29.523,68.044 29.538,68.052 29.559,68.056C29.584,68.063 29.619,68.065 29.662,68.061L29.671,68.077L29.511,68.114L29.261,67.699L29.275,67.69L29.287,67.709C29.294,67.721 29.304,67.732 29.317,67.739C29.327,67.745 29.336,67.747 29.346,67.744C29.357,67.743 29.375,67.733 29.4,67.717L29.744,67.501C29.778,67.48 29.796,67.463 29.8,67.451C29.805,67.436 29.8,67.416 29.787,67.394L29.776,67.374L29.79,67.365L30.04,67.781L29.928,67.86L29.918,67.844C29.943,67.821 29.958,67.803 29.965,67.79C29.971,67.777 29.973,67.762 29.97,67.745C29.968,67.732 29.959,67.712 29.943,67.685L29.854,67.537Z" style="fill:rgb(0,64,152);fill-rule:nonzero;"/>
        </g>
        <g transform="matrix(5.21374,0,0,5.21376,-113.771,-255.181)">
            <path d="M29.225,66.833C29.233,66.877 29.231,66.913 29.22,66.941C29.204,66.98 29.177,67.007 29.139,67.022C29.108,67.035 29.074,67.036 29.04,67.027C29.007,67.018 28.979,67.001 28.955,66.975C28.93,66.948 28.904,66.901 28.878,66.835L28.766,66.557L28.783,66.551L28.791,66.573C28.801,66.598 28.816,66.612 28.836,66.616C28.848,66.62 28.871,66.614 28.904,66.6L29.285,66.449C29.321,66.434 29.343,66.42 29.349,66.408C29.357,66.392 29.357,66.373 29.348,66.351L29.339,66.329L29.355,66.322L29.457,66.576C29.475,66.623 29.487,66.663 29.492,66.695C29.498,66.738 29.494,66.776 29.48,66.809C29.464,66.846 29.437,66.872 29.399,66.887C29.334,66.913 29.276,66.895 29.225,66.833ZM29.158,66.596C29.162,66.619 29.171,66.647 29.184,66.681C29.214,66.754 29.252,66.795 29.297,66.803C29.321,66.807 29.344,66.803 29.366,66.795C29.408,66.778 29.433,66.747 29.441,66.703C29.448,66.665 29.442,66.624 29.424,66.58C29.413,66.551 29.399,66.526 29.384,66.505L29.158,66.596ZM28.876,66.709C28.882,66.745 28.891,66.78 28.904,66.812C28.922,66.856 28.946,66.889 28.976,66.911C29.012,66.937 29.05,66.941 29.092,66.925C29.146,66.903 29.174,66.861 29.176,66.799C29.177,66.766 29.169,66.729 29.152,66.687C29.137,66.651 29.126,66.625 29.118,66.612L28.876,66.709Z" style="fill:rgb(0,64,152);fill-rule:nonzero;"/>
        </g>
        <g transform="matrix(5.21374,0,0,5.21376,-113.771,-255.181)">
            <path d="M31.852,70.501L31.652,70.36L31.559,70.416C31.536,70.43 31.521,70.442 31.514,70.452C31.5,70.471 31.513,70.495 31.551,70.527L31.541,70.541L31.378,70.426L31.388,70.412C31.412,70.423 31.43,70.428 31.44,70.426C31.462,70.423 31.493,70.409 31.536,70.382L32.019,70.085L32.033,70.095L31.908,70.652C31.9,70.69 31.896,70.718 31.898,70.733C31.901,70.759 31.914,70.781 31.937,70.8L31.927,70.815L31.723,70.67L31.733,70.656C31.769,70.679 31.794,70.681 31.808,70.661C31.816,70.65 31.824,70.629 31.831,70.597L31.852,70.501ZM31.861,70.465L31.922,70.194L31.683,70.339L31.861,70.465Z" style="fill:rgb(0,64,152);fill-rule:nonzero;"/>
        </g>
        <g transform="matrix(5.21374,0,0,5.21376,-113.771,-255.181)">
            <path d="M42.125,70.135L41.997,70.245L41.642,70.164C41.629,70.174 41.62,70.182 41.612,70.189C41.606,70.195 41.599,70.2 41.591,70.207L41.712,70.346C41.738,70.375 41.757,70.391 41.771,70.393C41.789,70.395 41.806,70.389 41.824,70.373L41.843,70.357L41.854,70.37L41.649,70.548L41.638,70.535L41.656,70.519C41.676,70.502 41.685,70.483 41.683,70.463C41.68,70.45 41.668,70.431 41.644,70.404L41.375,70.095C41.349,70.065 41.33,70.049 41.317,70.048C41.299,70.045 41.281,70.052 41.263,70.067L41.245,70.083L41.233,70.07L41.407,69.918C41.45,69.882 41.483,69.856 41.507,69.843C41.547,69.821 41.587,69.813 41.626,69.82C41.661,69.824 41.689,69.842 41.714,69.869C41.769,69.933 41.766,70.008 41.702,70.094L41.92,70.144C41.964,70.155 41.998,70.16 42.021,70.158C42.051,70.156 42.082,70.143 42.114,70.121L42.125,70.135ZM41.571,70.184C41.574,70.182 41.577,70.18 41.582,70.176C41.586,70.172 41.589,70.169 41.591,70.167C41.63,70.134 41.655,70.099 41.665,70.062C41.678,70.018 41.67,69.978 41.638,69.942C41.612,69.912 41.581,69.896 41.546,69.894C41.511,69.892 41.479,69.904 41.448,69.931C41.434,69.942 41.418,69.961 41.398,69.986L41.571,70.184Z" style="fill:rgb(0,64,152);fill-rule:nonzero;"/>
        </g>
        <g transform="matrix(5.21374,0,0,5.21376,-113.771,-255.181)">
            <path d="M46.18,64C46.18,58.704 41.887,54.41 36.59,54.41C31.294,54.41 27,58.704 27,64C27,69.297 31.294,73.59 36.59,73.59C41.887,73.59 46.18,69.297 46.18,64ZM45.905,64C45.905,69.144 41.734,73.314 36.59,73.314C31.446,73.314 27.276,69.144 27.276,64C27.276,58.856 31.446,54.686 36.59,54.686C41.734,54.686 45.905,58.856 45.905,64Z" style="fill:rgb(0,64,152);fill-rule:nonzero;"/>
        </g>
        <g transform="matrix(5.21374,0,0,5.21376,-113.771,-255.181)">
            <path d="M43.157,63.98C43.157,60.372 40.232,57.447 36.624,57.447C33.015,57.447 30.09,60.372 30.09,63.98C30.09,67.589 33.015,70.514 36.624,70.514C40.232,70.514 43.157,67.589 43.157,63.98ZM42.827,63.98C42.827,67.406 40.05,70.183 36.624,70.183C33.198,70.183 30.421,67.406 30.421,63.98C30.421,60.554 33.198,57.777 36.624,57.777C40.05,57.777 42.827,60.554 42.827,63.98Z" style="fill:rgb(0,64,152);fill-rule:nonzero;"/>
        </g>
    </g>
</svg>
