<?xml version="1.0" encoding="UTF-8" standalone="no"?>
<!DOCTYPE svg PUBLIC "-//W3C//DTD SVG 1.1//EN" "http://www.w3.org/Graphics/SVG/1.1/DTD/svg11.dtd">
<svg width="100%" height="100%" viewBox="0 0 154 157" version="1.1" xmlns="http://www.w3.org/2000/svg" xmlns:xlink="http://www.w3.org/1999/xlink" xml:space="preserve" xmlns:serif="http://www.serif.com/" style="fill-rule:evenodd;clip-rule:evenodd;stroke-linejoin:round;stroke-miterlimit:2;">
    <g>
        <g transform="matrix(4.04514,0,0,4.04514,-82.2189,-180.389)">
            <path d="M51.721,64C51.721,57.174 46.187,51.64 39.361,51.64C32.534,51.64 27,57.174 27,64C27,70.827 32.534,76.361 39.361,76.361C46.187,76.361 51.721,70.827 51.721,64ZM51.387,64C51.387,57.358 46.002,51.974 39.36,51.974C32.718,51.974 27.334,57.358 27.334,64C27.334,70.642 32.718,76.026 39.36,76.026C46.002,76.026 51.387,70.642 51.387,64Z" style="fill:rgb(1,58,137);"/>
        </g>
        <g transform="matrix(4.04514,0,0,4.04514,-82.2189,-180.389)">
            <path d="M48.948,64C48.948,58.705 44.655,54.412 39.36,54.412C34.065,54.412 29.773,58.705 29.773,64C29.773,69.295 34.065,73.588 39.36,73.588C44.655,73.588 48.948,69.295 48.948,64ZM48.815,64C48.815,58.779 44.582,54.546 39.361,54.546C34.139,54.546 29.907,58.779 29.907,64C29.907,69.221 34.139,73.454 39.361,73.454C44.582,73.454 48.815,69.221 48.815,64Z" style="fill:rgb(1,58,137);"/>
        </g>
        <g transform="matrix(4.04514,0,0,4.04514,-82.2189,-180.389)">
            <path d="M29.844,64.131C29.844,64.131 29.879,64.278 29.872,64.384L43.224,64.384C43.224,64.384 41.823,61.386 41.647,61.034C41.582,60.904 41.598,60.787 41.816,60.935C42.034,61.083 42.485,61.393 43.168,62.857C43.168,62.857 43.766,62.589 43.9,62.533C44.033,62.477 44.033,62.42 43.921,62.223C43.683,61.807 43.491,61.431 43.224,61.017C43.027,60.711 42.751,60.468 42.407,60.161C42.334,60.096 42.26,60.055 42.654,59.774C42.654,59.774 42.815,59.912 43.074,60.152C43.276,60.338 43.444,60.49 43.66,60.782C43.899,61.104 44.19,61.587 44.521,62.241C44.521,62.241 45.344,61.866 45.497,61.771C45.497,61.771 45.524,61.672 45.459,61.502C45.368,61.262 45.159,60.894 44.985,60.594C44.67,60.053 44.493,59.804 43.476,58.873C43.315,58.726 43.433,58.646 43.534,58.519C43.634,58.393 43.74,58.271 43.956,58.472C44.061,58.569 44.403,58.803 44.847,59.365C45.317,59.959 45.921,61.116 46.437,62.478L47.841,62.167C47.841,62.167 47.482,60.019 45.862,58.229C45.726,58.079 44.63,56.783 42.714,55.973C41.757,55.568 40.559,55.32 39.247,55.326C38.423,55.329 35.985,55.421 33.805,57.305C33.753,57.381 33.715,57.437 33.889,57.479C34.019,57.511 35.466,57.824 36.709,59.094C36.977,59.369 37.115,59.514 37.305,59.866C37.726,60.651 37.798,60.952 37.917,61.465C37.973,61.709 38.075,62.827 37.009,63.349C36.794,63.455 35.974,63.946 34.718,63.603C34.025,63.461 33.382,63.107 32.738,63.122C32.094,63.138 31.751,63.223 30.849,63.888C30.704,63.995 30.451,64.247 29.844,64.131ZM33.575,70.417L34.649,69.312C34.649,69.312 36.497,71.083 39.346,71.062C40.257,71.055 41.292,70.907 42.215,70.37C42.215,70.37 41.828,69.524 41.797,69.436C41.797,69.436 42.262,69.199 42.339,69.157C42.417,69.116 42.484,69.121 42.551,69.271C42.618,69.421 42.83,69.957 42.99,70.081C42.99,70.081 43.624,69.675 44.277,69.067C45.064,68.335 45.924,67.249 46.35,65.431C46.424,65.111 46.597,64.187 46.525,63.32L48.027,63.206C48.027,63.206 48.055,64.835 47.619,66.422C47.531,66.743 47.309,67.223 47.078,67.686C46.821,68.201 46.548,68.697 46.329,68.987C46.138,69.24 45.044,71.031 42.51,71.981C42.256,72.076 38.561,73.483 35.046,71.47C34.774,71.314 34.122,70.938 33.575,70.417ZM41.16,68.164L41.46,68.797L42.115,68.485L41.823,67.86L41.16,68.164ZM40.658,67.167L40.958,67.801L41.621,67.501L41.317,66.863L40.658,67.167ZM40.155,66.145L40.442,66.766L41.097,66.458L40.801,65.845L40.155,66.145ZM32.969,71.277L31.598,72.748L31.37,72.531C31.33,72.493 31.305,72.457 31.294,72.423C31.283,72.388 31.281,72.349 31.287,72.304C31.293,72.26 31.311,72.207 31.342,72.147C31.373,72.087 31.414,72.027 31.465,71.968C31.517,71.909 31.564,71.863 31.606,71.83C31.68,71.771 31.737,71.739 31.776,71.735L31.854,71.72C31.857,71.674 31.863,71.628 31.872,71.583C31.882,71.538 31.908,71.482 31.95,71.415C31.992,71.348 32.042,71.284 32.1,71.222C32.163,71.156 32.225,71.102 32.285,71.061C32.344,71.02 32.395,70.993 32.436,70.98C32.478,70.966 32.518,70.961 32.556,70.963C32.594,70.965 32.626,70.974 32.652,70.99C32.679,71.005 32.708,71.028 32.74,71.059L32.969,71.277ZM32.249,71.852L32.687,71.382L32.573,71.274C32.531,71.234 32.503,71.21 32.489,71.2C32.474,71.19 32.451,71.186 32.419,71.187C32.388,71.189 32.352,71.201 32.312,71.226C32.271,71.25 32.234,71.281 32.2,71.317C32.165,71.353 32.134,71.392 32.107,71.431C32.074,71.482 32.054,71.527 32.046,71.567C32.037,71.606 32.039,71.635 32.051,71.651C32.063,71.668 32.08,71.689 32.103,71.714L32.249,71.852ZM32.068,72.046L31.94,71.924C31.917,71.902 31.894,71.886 31.872,71.878C31.85,71.869 31.824,71.87 31.794,71.88C31.765,71.889 31.732,71.908 31.697,71.937C31.662,71.965 31.626,71.999 31.59,72.039C31.563,72.07 31.541,72.1 31.523,72.129C31.506,72.157 31.495,72.185 31.49,72.212C31.485,72.239 31.486,72.262 31.493,72.281C31.5,72.3 31.516,72.322 31.541,72.348L31.67,72.472L32.068,72.046ZM31.039,71.007L31.239,70.83L31.505,71.132L32.001,70.69L31.706,70.356L31.906,70.178L32.295,70.62L30.782,71.968L30.395,71.528L30.59,71.354L30.883,71.687L31.306,71.31L31.039,71.007ZM31.563,69.738L31.647,69.848L30.038,71.065L29.954,70.954L31.563,69.738ZM30.564,69.378L29.376,70.134L29.301,70.015L30.521,69.239C30.565,69.211 30.614,69.182 30.668,69.153C30.722,69.124 30.778,69.101 30.833,69.085C30.889,69.069 30.937,69.062 30.979,69.063C31.021,69.064 31.061,69.074 31.101,69.093C31.139,69.113 31.169,69.141 31.187,69.178C31.214,69.229 31.22,69.28 31.203,69.332C31.187,69.384 31.16,69.436 31.122,69.487C31.084,69.539 31.032,69.588 30.966,69.636L30.851,69.722L30.775,69.607C30.806,69.585 30.835,69.563 30.864,69.541C30.893,69.519 30.916,69.498 30.935,69.475C30.953,69.453 30.968,69.425 30.977,69.391C30.986,69.358 30.983,69.329 30.968,69.305C30.958,69.285 30.94,69.271 30.915,69.263C30.89,69.254 30.861,69.253 30.829,69.257C30.797,69.262 30.759,69.275 30.714,69.295C30.669,69.315 30.619,69.343 30.564,69.378ZM30.724,68.396L30.789,68.522L29.005,69.462L28.941,69.336L30.724,68.396ZM29.083,68.517L30.493,67.922L30.546,68.047L28.68,68.834L28.63,68.708L29.807,67.703L28.444,68.279L28.39,68.152L30.255,67.365L30.306,67.484L29.083,68.517ZM28.562,66.796L28.603,66.934C28.563,66.955 28.522,66.976 28.481,66.999C28.439,67.022 28.404,67.053 28.375,67.092C28.347,67.131 28.338,67.175 28.35,67.226C28.359,67.254 28.374,67.279 28.396,67.302C28.418,67.325 28.454,67.342 28.504,67.354C28.554,67.366 28.615,67.371 28.69,67.37C28.763,67.37 28.836,67.363 28.908,67.351C28.979,67.339 29.053,67.321 29.13,67.299C29.207,67.278 29.267,67.259 29.31,67.244C29.388,67.218 29.464,67.185 29.54,67.147C29.615,67.108 29.674,67.066 29.716,67.022C29.757,66.978 29.782,66.937 29.79,66.9C29.798,66.863 29.799,66.833 29.794,66.809C29.789,66.785 29.782,66.759 29.773,66.733L29.733,66.606L29.268,66.745L29.32,66.909L29.047,66.99L28.953,66.695L29.949,66.397L30.012,66.597C30.029,66.649 30.041,66.701 30.048,66.752C30.055,66.804 30.046,66.86 30.02,66.922C29.995,66.983 29.953,67.04 29.893,67.094C29.833,67.147 29.765,67.193 29.69,67.232C29.614,67.271 29.537,67.305 29.458,67.333C29.379,67.362 29.291,67.391 29.193,67.419C29.084,67.451 28.97,67.477 28.854,67.497C28.737,67.518 28.636,67.526 28.55,67.521C28.465,67.516 28.395,67.507 28.339,67.494C28.284,67.481 28.234,67.458 28.191,67.426C28.147,67.394 28.117,67.35 28.102,67.294C28.088,67.237 28.092,67.183 28.113,67.134C28.135,67.084 28.165,67.042 28.202,67.007C28.239,66.972 28.283,66.939 28.332,66.908C28.382,66.877 28.429,66.852 28.474,66.833L28.562,66.796ZM27.657,64.821L27.642,64.686L28.978,64.56C29.025,64.555 29.082,64.554 29.148,64.554C29.214,64.555 29.281,64.56 29.349,64.57C29.417,64.579 29.477,64.597 29.53,64.623C29.583,64.648 29.628,64.684 29.663,64.729C29.699,64.775 29.719,64.822 29.722,64.871C29.728,64.924 29.716,64.974 29.686,65.02C29.656,65.066 29.617,65.107 29.568,65.142C29.519,65.178 29.467,65.206 29.414,65.226C29.36,65.245 29.303,65.261 29.242,65.272C29.181,65.282 29.11,65.291 29.029,65.299L27.724,65.422L27.709,65.286L28.99,65.165C29.089,65.156 29.167,65.144 29.225,65.129C29.282,65.114 29.329,65.093 29.364,65.064C29.4,65.035 29.423,65.004 29.433,64.972C29.444,64.939 29.446,64.905 29.441,64.87C29.436,64.828 29.422,64.796 29.4,64.773C29.377,64.75 29.346,64.731 29.307,64.718C29.267,64.705 29.215,64.697 29.151,64.695C29.087,64.692 29.011,64.695 28.921,64.702L27.657,64.821ZM28.134,64.093L29.676,64.11L29.673,64.247L27.634,64.226L27.639,64.088L29.136,63.631L27.645,63.615L27.648,63.476L29.687,63.498L29.685,63.629L28.134,64.093ZM29.721,62.947L29.708,63.088L27.694,62.89L27.707,62.749L29.721,62.947ZM29.82,62.222L27.769,62.201L27.797,62.052L29.353,62.078L27.909,61.519L27.94,61.371L29.84,62.123L29.82,62.222ZM29.001,60.649L29.257,60.726L29.145,61.1L29.784,61.292L29.908,60.879L30.164,60.957L30.001,61.502L28.053,60.913L28.216,60.371L28.467,60.447L28.344,60.857L28.889,61.022L29.001,60.649ZM30.306,60.553L30.253,60.681L28.385,59.924L28.515,59.61C28.531,59.57 28.557,59.537 28.592,59.509C28.627,59.482 28.668,59.464 28.716,59.457C28.764,59.45 28.822,59.453 28.89,59.467C28.958,59.48 29.035,59.505 29.118,59.54C29.206,59.577 29.273,59.613 29.319,59.646C29.366,59.68 29.403,59.711 29.429,59.74L29.476,59.79C29.499,59.791 29.522,59.791 29.543,59.792C29.564,59.792 29.592,59.796 29.625,59.803C29.659,59.809 29.716,59.825 29.798,59.851L30.505,60.074L30.452,60.202L29.764,59.98C29.72,59.966 29.677,59.958 29.636,59.955C29.594,59.953 29.564,59.957 29.545,59.968C29.527,59.98 29.51,60.003 29.496,60.037L29.43,60.198L30.306,60.553ZM28.666,59.889L29.182,60.098L29.253,59.928C29.264,59.901 29.267,59.872 29.263,59.842C29.258,59.811 29.239,59.781 29.205,59.751C29.171,59.721 29.121,59.692 29.055,59.665C29.022,59.653 28.988,59.643 28.956,59.636C28.923,59.629 28.891,59.628 28.861,59.633C28.83,59.637 28.803,59.648 28.78,59.667C28.758,59.685 28.741,59.707 28.73,59.733L28.666,59.889ZM30.088,59.587L30.147,59.462C30.174,59.473 30.202,59.484 30.23,59.494C30.258,59.504 30.288,59.512 30.32,59.518C30.352,59.525 30.38,59.526 30.406,59.524C30.431,59.521 30.455,59.513 30.479,59.499C30.502,59.484 30.521,59.465 30.535,59.44C30.55,59.415 30.56,59.395 30.563,59.379C30.571,59.357 30.574,59.335 30.572,59.314C30.571,59.292 30.565,59.271 30.555,59.249C30.546,59.227 30.528,59.205 30.5,59.182C30.473,59.158 30.439,59.136 30.398,59.114C30.357,59.093 30.322,59.076 30.292,59.064C30.255,59.051 30.22,59.044 30.186,59.042C30.154,59.04 30.115,59.051 30.071,59.075C30.027,59.099 29.978,59.129 29.925,59.163C29.872,59.197 29.825,59.221 29.784,59.234C29.744,59.248 29.695,59.253 29.637,59.249C29.578,59.246 29.513,59.232 29.442,59.21C29.372,59.187 29.292,59.147 29.203,59.09C29.138,59.05 29.091,59.014 29.059,58.981C29.028,58.949 29.002,58.915 28.981,58.879C28.961,58.844 28.946,58.81 28.937,58.778C28.929,58.745 28.926,58.713 28.931,58.681C28.935,58.649 28.941,58.622 28.95,58.6C28.975,58.543 29.011,58.505 29.058,58.485C29.106,58.465 29.154,58.455 29.204,58.453C29.254,58.451 29.305,58.456 29.358,58.466C29.411,58.477 29.454,58.489 29.487,58.501L29.56,58.529L29.502,58.652C29.479,58.644 29.458,58.637 29.438,58.63C29.418,58.623 29.392,58.617 29.36,58.612C29.328,58.606 29.296,58.607 29.266,58.614C29.235,58.621 29.212,58.635 29.197,58.655C29.182,58.674 29.171,58.693 29.163,58.71C29.15,58.748 29.145,58.782 29.152,58.813C29.158,58.844 29.17,58.874 29.189,58.9C29.208,58.928 29.231,58.953 29.26,58.976C29.288,58.999 29.319,59.018 29.351,59.032C29.394,59.053 29.433,59.066 29.47,59.072C29.507,59.077 29.539,59.078 29.568,59.075C29.597,59.071 29.626,59.063 29.653,59.051C29.681,59.038 29.718,59.018 29.764,58.99C29.81,58.963 29.855,58.937 29.9,58.914C29.944,58.892 29.988,58.878 30.031,58.872C30.074,58.867 30.122,58.871 30.176,58.884C30.23,58.897 30.278,58.911 30.318,58.926C30.359,58.942 30.403,58.962 30.45,58.987C30.535,59.035 30.601,59.081 30.649,59.127C30.698,59.172 30.735,59.219 30.761,59.267C30.788,59.315 30.802,59.36 30.805,59.401C30.807,59.443 30.799,59.482 30.781,59.52C30.761,59.566 30.735,59.602 30.701,59.627C30.667,59.653 30.628,59.67 30.584,59.679C30.541,59.689 30.494,59.692 30.446,59.688C30.397,59.685 30.35,59.678 30.302,59.666C30.255,59.655 30.209,59.639 30.164,59.619L30.088,59.587ZM31.22,58.764L31.145,58.882L29.429,57.796L29.504,57.678L31.22,58.764ZM30.01,57.377C29.942,57.325 29.873,57.273 29.805,57.221C29.878,57.125 29.952,57.028 30.025,56.931C30.098,56.835 30.171,56.738 30.245,56.641C30.313,56.693 30.381,56.744 30.45,56.796C30.388,56.878 30.326,56.959 30.265,57.041C30.495,57.215 30.726,57.389 30.956,57.566C31.188,57.745 31.425,57.926 31.665,58.105C31.638,58.143 31.611,58.18 31.584,58.217C31.344,58.037 31.106,57.856 30.871,57.677C30.641,57.502 30.41,57.327 30.18,57.153C30.123,57.227 30.067,57.302 30.01,57.377ZM32.344,57.336L32.245,57.44L31.564,56.799L30.515,56.317L30.625,56.201L31.414,56.559L30.99,55.813L31.101,55.695L31.671,56.702L32.344,57.336ZM35.297,53.031L35.593,52.928C35.629,52.916 35.667,52.912 35.708,52.917C35.748,52.922 35.788,52.945 35.828,52.987C35.868,53.028 35.902,53.074 35.93,53.125C35.958,53.176 35.981,53.222 35.998,53.262C36.016,53.303 36.032,53.345 36.047,53.388C36.077,53.48 36.096,53.559 36.104,53.626C36.112,53.693 36.111,53.756 36.1,53.815C36.09,53.874 36.07,53.921 36.04,53.954C36.01,53.987 35.974,54.011 35.932,54.025L35.795,54.073L36.073,54.89L35.945,54.934L35.297,53.031ZM35.706,53.812L35.842,53.765C35.874,53.754 35.899,53.739 35.915,53.72C35.932,53.7 35.944,53.676 35.95,53.647C35.955,53.618 35.956,53.585 35.95,53.548C35.945,53.511 35.934,53.468 35.917,53.417C35.896,53.36 35.874,53.312 35.849,53.273C35.825,53.235 35.8,53.208 35.775,53.192C35.751,53.177 35.725,53.174 35.699,53.183L35.513,53.247L35.706,53.812ZM36.725,52.587C36.793,52.574 36.869,52.603 36.954,52.672C37.039,52.741 37.119,52.854 37.195,53.01C37.271,53.167 37.328,53.332 37.367,53.506C37.406,53.684 37.424,53.854 37.422,54.016C37.419,54.177 37.395,54.308 37.35,54.408C37.306,54.508 37.246,54.563 37.171,54.575C37.097,54.588 37.018,54.557 36.934,54.482C36.85,54.406 36.772,54.295 36.7,54.147C36.627,53.999 36.571,53.837 36.532,53.661C36.492,53.485 36.473,53.314 36.475,53.148C36.478,52.977 36.503,52.844 36.551,52.75C36.599,52.655 36.657,52.601 36.725,52.587ZM36.784,52.851C36.74,52.861 36.702,52.9 36.67,52.968C36.637,53.037 36.622,53.133 36.623,53.258C36.624,53.382 36.639,53.51 36.668,53.641C36.697,53.771 36.737,53.889 36.787,53.995C36.837,54.105 36.892,54.188 36.951,54.245C37.01,54.301 37.064,54.325 37.113,54.316C37.163,54.309 37.203,54.269 37.233,54.195C37.262,54.121 37.277,54.026 37.277,53.909C37.277,53.792 37.262,53.667 37.232,53.534C37.202,53.406 37.161,53.284 37.108,53.168C37.055,53.052 36.999,52.968 36.94,52.916C36.881,52.865 36.829,52.843 36.784,52.851ZM38.719,52.561L38.711,52.298L39.433,52.298L39.441,52.561L39.137,52.561L39.192,54.335L39.052,54.335L38.998,52.561L38.719,52.561ZM42.484,52.715C42.523,52.725 42.562,52.735 42.601,52.745C42.583,53.09 42.568,53.435 42.546,53.78C42.523,54.125 42.488,54.47 42.464,54.814C42.416,54.801 42.368,54.788 42.319,54.774C42.324,54.683 42.33,54.592 42.336,54.502C42.343,54.411 42.35,54.32 42.357,54.229C42.292,54.211 42.226,54.193 42.161,54.176C42.095,54.159 42.029,54.141 41.963,54.123C41.884,54.282 41.806,54.44 41.729,54.596C41.684,54.581 41.639,54.567 41.594,54.553C41.737,54.254 41.886,53.954 42.035,53.648C42.186,53.338 42.335,53.027 42.484,52.715ZM42.383,53.973C42.394,53.833 42.404,53.692 42.413,53.552C42.422,53.412 42.431,53.271 42.44,53.131C42.378,53.258 42.317,53.384 42.255,53.511C42.193,53.637 42.132,53.764 42.069,53.891C42.122,53.904 42.174,53.918 42.226,53.932C42.279,53.945 42.331,53.959 42.383,53.973ZM43.403,53.522L42.829,54.929L42.704,54.878L43.463,53.016L43.587,53.07L43.464,54.603L44.019,53.242L44.145,53.294L43.386,55.155L43.266,55.107L43.403,53.522ZM43.621,55.262L44.567,53.486L44.785,53.602C44.82,53.62 44.856,53.648 44.894,53.685C44.932,53.722 44.964,53.768 44.991,53.822C45.017,53.876 45.029,53.94 45.026,54.014C45.024,54.088 45.013,54.16 44.996,54.231C44.977,54.302 44.952,54.378 44.918,54.459C44.884,54.539 44.843,54.628 44.793,54.723C44.744,54.819 44.689,54.913 44.63,55.005C44.56,55.111 44.493,55.198 44.428,55.265C44.363,55.333 44.305,55.38 44.254,55.408C44.202,55.436 44.153,55.451 44.105,55.453C44.057,55.456 44.017,55.452 43.984,55.442C43.95,55.432 43.905,55.412 43.847,55.381L43.621,55.262ZM44.571,53.767L43.856,55.108L43.941,55.153C44,55.184 44.054,55.202 44.103,55.207C44.153,55.212 44.204,55.202 44.257,55.176C44.311,55.151 44.358,55.117 44.399,55.075C44.441,55.033 44.484,54.976 44.529,54.905C44.574,54.833 44.623,54.748 44.676,54.649C44.729,54.551 44.768,54.467 44.794,54.397C44.818,54.331 44.833,54.269 44.841,54.211C44.848,54.154 44.845,54.1 44.833,54.05C44.82,54.001 44.805,53.963 44.787,53.936C44.77,53.908 44.749,53.884 44.725,53.862C44.701,53.84 44.678,53.824 44.657,53.812L44.571,53.767ZM46.392,54.9C46.448,54.83 46.504,54.761 46.56,54.691C46.653,54.767 46.745,54.843 46.836,54.919C46.927,54.995 47.017,55.072 47.107,55.149C47.05,55.218 46.993,55.288 46.936,55.357C46.861,55.293 46.785,55.228 46.709,55.164C46.521,55.398 46.337,55.633 46.151,55.865C45.965,56.096 45.776,56.318 45.59,56.535C45.554,56.504 45.519,56.473 45.484,56.442C45.672,56.226 45.862,56.005 46.047,55.776C46.233,55.545 46.416,55.31 46.604,55.076C46.533,55.018 46.463,54.959 46.392,54.9ZM47.243,56.43L47.055,56.621L46.774,56.339L46.305,56.814L46.615,57.126L46.426,57.317L46.017,56.905L47.449,55.455L47.856,55.865L47.672,56.051L47.364,55.742L46.963,56.148L47.243,56.43ZM46.63,57.516L48.174,56.218L48.266,56.325L46.927,57.45L47.232,57.806L47.027,57.979L46.63,57.516ZM48.482,57.953L48.262,58.108L48.028,57.785L47.48,58.171L47.739,58.528L47.519,58.683L47.176,58.211L48.848,57.034L49.189,57.504L48.973,57.656L48.716,57.3L48.248,57.63L48.482,57.953ZM49.348,58.836L49.274,58.715C49.296,58.7 49.318,58.684 49.341,58.667C49.364,58.65 49.387,58.627 49.407,58.599C49.428,58.57 49.441,58.538 49.447,58.503C49.452,58.468 49.446,58.433 49.431,58.399C49.403,58.35 49.361,58.319 49.305,58.307C49.249,58.295 49.183,58.296 49.107,58.31C49.032,58.325 48.956,58.349 48.88,58.382C48.804,58.415 48.717,58.46 48.619,58.516C48.518,58.573 48.435,58.624 48.368,58.67C48.301,58.717 48.243,58.767 48.195,58.82C48.146,58.874 48.114,58.93 48.098,58.988C48.082,59.045 48.089,59.098 48.117,59.144C48.138,59.184 48.174,59.211 48.222,59.225C48.272,59.239 48.311,59.239 48.34,59.226L48.514,59.158L48.588,59.279C48.559,59.293 48.528,59.308 48.494,59.326C48.461,59.343 48.412,59.363 48.348,59.386C48.285,59.409 48.218,59.419 48.149,59.416C48.08,59.413 48.022,59.399 47.976,59.374C47.929,59.348 47.894,59.312 47.869,59.263C47.842,59.215 47.832,59.157 47.838,59.09C47.845,59.022 47.876,58.951 47.931,58.876C47.986,58.8 48.057,58.728 48.145,58.66C48.232,58.592 48.307,58.538 48.371,58.497C48.435,58.457 48.506,58.416 48.584,58.373C48.686,58.316 48.783,58.269 48.873,58.231C48.963,58.192 49.055,58.164 49.148,58.148C49.24,58.13 49.32,58.124 49.385,58.129C49.451,58.135 49.508,58.153 49.557,58.186C49.606,58.219 49.642,58.257 49.666,58.3C49.701,58.369 49.706,58.434 49.68,58.495C49.654,58.556 49.618,58.612 49.57,58.664C49.522,58.715 49.471,58.758 49.415,58.793L49.348,58.836ZM50.209,59.364C50.238,59.428 50.227,59.507 50.178,59.602C50.129,59.697 50.035,59.795 49.897,59.898C49.758,60.001 49.606,60.088 49.441,60.159C49.272,60.231 49.106,60.281 48.944,60.31C48.782,60.338 48.645,60.34 48.535,60.317C48.424,60.293 48.354,60.246 48.325,60.176C48.294,60.108 48.306,60.026 48.362,59.93C48.417,59.835 48.511,59.738 48.642,59.64C48.773,59.542 48.922,59.457 49.088,59.385C49.255,59.313 49.422,59.262 49.588,59.233C49.76,59.202 49.899,59.201 50.005,59.229C50.111,59.257 50.179,59.302 50.209,59.364ZM49.959,59.472C49.939,59.432 49.89,59.403 49.814,59.385C49.738,59.367 49.638,59.37 49.513,59.396C49.389,59.421 49.265,59.46 49.141,59.513C49.017,59.566 48.908,59.626 48.814,59.695C48.717,59.765 48.646,59.833 48.603,59.901C48.56,59.969 48.55,60.025 48.57,60.071C48.589,60.118 48.639,60.148 48.72,60.162C48.801,60.177 48.9,60.172 49.016,60.15C49.133,60.128 49.255,60.089 49.381,60.034C49.502,59.981 49.614,59.918 49.718,59.845C49.822,59.772 49.893,59.702 49.93,59.635C49.968,59.568 49.978,59.514 49.959,59.472ZM50.536,60.231L50.585,60.395L49.12,61.174L50.778,61.039L50.827,61.203L48.863,61.77L48.828,61.641L50.311,61.213L48.74,61.348L48.704,61.228L50.093,60.498L48.614,60.925L48.573,60.799L50.536,60.231ZM50.942,61.714L50.969,61.882L49.413,62.456L51.073,62.542L51.1,62.71L49.078,63.008L49.061,62.877L50.587,62.652L49.013,62.576L48.993,62.453L50.468,61.918L48.944,62.143L48.92,62.013L50.942,61.714ZM51.155,63.789L51.163,63.926L49.828,63.978C49.781,63.979 49.724,63.978 49.658,63.974C49.593,63.969 49.527,63.96 49.46,63.947C49.392,63.934 49.333,63.912 49.282,63.884C49.23,63.855 49.188,63.816 49.155,63.769C49.121,63.722 49.104,63.673 49.103,63.623C49.1,63.57 49.115,63.521 49.146,63.476C49.179,63.432 49.22,63.393 49.271,63.36C49.321,63.327 49.374,63.303 49.428,63.285C49.483,63.268 49.541,63.256 49.601,63.249C49.662,63.242 49.734,63.237 49.815,63.233L51.12,63.183L51.128,63.32L49.846,63.369C49.747,63.373 49.669,63.381 49.611,63.393C49.554,63.404 49.506,63.423 49.469,63.45C49.432,63.477 49.408,63.507 49.396,63.539C49.383,63.571 49.38,63.605 49.383,63.641C49.386,63.682 49.398,63.716 49.419,63.74C49.44,63.765 49.47,63.785 49.509,63.8C49.547,63.816 49.599,63.826 49.662,63.832C49.726,63.839 49.802,63.84 49.892,63.838L51.155,63.789ZM50.641,64.491L49.104,64.395L49.111,64.26L51.144,64.387L51.134,64.522L49.63,64.895L51.116,64.988L51.11,65.125L49.077,64.998L49.083,64.868L50.641,64.491ZM48.991,65.544L49.012,65.405L51.021,65.714L51,65.853L48.991,65.544ZM50.192,67.025L50.225,66.888C50.251,66.893 50.278,66.897 50.307,66.9C50.336,66.904 50.368,66.903 50.403,66.896C50.438,66.89 50.471,66.876 50.499,66.855C50.528,66.833 50.549,66.805 50.562,66.77C50.577,66.716 50.569,66.666 50.537,66.619C50.506,66.572 50.458,66.528 50.393,66.487C50.328,66.446 50.257,66.411 50.179,66.383C50.101,66.355 50.007,66.328 49.896,66.301C49.784,66.274 49.687,66.254 49.606,66.241C49.526,66.229 49.448,66.225 49.375,66.23C49.303,66.236 49.239,66.253 49.187,66.284C49.135,66.315 49.102,66.356 49.089,66.409C49.076,66.452 49.083,66.495 49.108,66.538C49.133,66.581 49.161,66.608 49.191,66.619L49.365,66.688L49.331,66.825C49.3,66.815 49.267,66.805 49.231,66.795C49.195,66.784 49.145,66.765 49.083,66.739C49.021,66.712 48.966,66.674 48.919,66.625C48.872,66.576 48.84,66.526 48.825,66.477C48.809,66.427 48.81,66.377 48.827,66.325C48.841,66.272 48.875,66.224 48.928,66.181C48.981,66.137 49.054,66.107 49.147,66.09C49.24,66.074 49.343,66.071 49.454,66.082C49.565,66.092 49.657,66.105 49.731,66.12C49.806,66.134 49.886,66.153 49.973,66.175C50.087,66.204 50.19,66.236 50.282,66.27C50.374,66.304 50.459,66.347 50.538,66.397C50.617,66.448 50.678,66.498 50.721,66.546C50.765,66.595 50.792,66.647 50.804,66.703C50.816,66.76 50.815,66.811 50.801,66.858C50.777,66.931 50.734,66.981 50.672,67.007C50.611,67.034 50.545,67.049 50.474,67.053C50.403,67.057 50.335,67.053 50.271,67.04L50.192,67.025ZM50.441,67.981L50.399,68.092L48.348,67.785L48.403,67.642L48.945,67.72L49.093,67.34L48.63,67.06L48.681,66.927L50.441,67.981ZM49.198,67.764L50.032,67.898L49.314,67.465L49.198,67.764ZM49.852,68.784L50.088,68.904L49.755,69.553L49.519,69.434L49.659,69.16L48.071,68.356L48.136,68.23L49.723,69.035L49.852,68.784ZM47.655,69.095L47.727,68.976L49.459,70.035L49.386,70.153L47.655,69.095ZM48.833,70.985C48.791,71.041 48.716,71.072 48.608,71.077C48.5,71.083 48.367,71.052 48.209,70.984C48.051,70.916 47.901,70.829 47.758,70.722C47.613,70.613 47.489,70.495 47.385,70.37C47.282,70.244 47.214,70.128 47.182,70.021C47.15,69.913 47.158,69.829 47.206,69.769C47.252,69.708 47.33,69.678 47.442,69.678C47.553,69.677 47.684,69.709 47.834,69.773C47.984,69.836 48.131,69.922 48.275,70.03C48.419,70.137 48.545,70.255 48.651,70.383C48.761,70.516 48.829,70.635 48.855,70.741C48.881,70.846 48.874,70.928 48.833,70.985ZM48.617,70.824C48.643,70.786 48.646,70.729 48.625,70.655C48.604,70.58 48.553,70.495 48.471,70.401C48.388,70.307 48.294,70.219 48.187,70.139C48.081,70.059 47.975,69.996 47.868,69.949C47.76,69.9 47.665,69.874 47.584,69.871C47.503,69.868 47.448,69.887 47.417,69.928C47.385,69.967 47.382,70.025 47.408,70.102C47.434,70.179 47.486,70.262 47.562,70.352C47.638,70.441 47.731,70.527 47.84,70.608C47.945,70.686 48.055,70.75 48.17,70.803C48.285,70.856 48.381,70.882 48.459,70.88C48.537,70.879 48.589,70.86 48.617,70.824ZM47.818,71.434L46.696,70.393L46.789,70.291L48.274,71.67L48.179,71.769L46.775,71.112L47.861,72.119L47.767,72.222L46.281,70.844L46.37,70.747L47.818,71.434ZM46.492,71.453C46.456,71.486 46.419,71.518 46.382,71.549C46.362,71.529 46.341,71.509 46.32,71.488C46.299,71.468 46.275,71.448 46.249,71.429C46.223,71.409 46.198,71.396 46.173,71.387C46.149,71.379 46.123,71.375 46.095,71.378C46.068,71.38 46.042,71.388 46.016,71.403C45.991,71.417 45.974,71.432 45.963,71.443C45.946,71.459 45.932,71.474 45.923,71.493C45.915,71.512 45.909,71.532 45.908,71.555C45.906,71.577 45.913,71.603 45.927,71.634C45.941,71.665 45.962,71.699 45.99,71.736C46.019,71.774 46.043,71.806 46.066,71.83C46.095,71.86 46.126,71.883 46.156,71.901C46.186,71.919 46.228,71.929 46.28,71.928C46.332,71.927 46.39,71.919 46.455,71.905C46.52,71.891 46.575,71.883 46.619,71.884C46.663,71.884 46.712,71.897 46.765,71.92C46.819,71.944 46.876,71.979 46.935,72.024C46.995,72.07 47.056,72.135 47.123,72.219C47.172,72.279 47.206,72.329 47.226,72.37C47.245,72.412 47.259,72.452 47.267,72.493C47.274,72.533 47.277,72.57 47.273,72.604C47.27,72.638 47.26,72.669 47.244,72.698C47.228,72.727 47.213,72.751 47.195,72.768C47.15,72.814 47.101,72.839 47.048,72.841C46.995,72.843 46.944,72.835 46.895,72.819C46.848,72.804 46.8,72.782 46.753,72.753C46.707,72.725 46.67,72.699 46.642,72.676C46.622,72.659 46.602,72.642 46.582,72.626C46.614,72.594 46.647,72.561 46.68,72.529C46.7,72.544 46.719,72.558 46.736,72.571C46.752,72.585 46.776,72.6 46.805,72.616C46.834,72.632 46.865,72.642 46.897,72.646C46.929,72.65 46.956,72.645 46.977,72.632C46.999,72.619 47.018,72.606 47.031,72.592C47.058,72.562 47.072,72.53 47.077,72.498C47.082,72.466 47.08,72.435 47.071,72.403C47.061,72.371 47.047,72.339 47.027,72.307C47.007,72.276 46.984,72.248 46.957,72.222C46.923,72.189 46.89,72.162 46.856,72.144C46.823,72.126 46.791,72.114 46.762,72.108C46.732,72.101 46.702,72.099 46.67,72.101C46.639,72.103 46.595,72.109 46.54,72.12C46.485,72.131 46.432,72.141 46.38,72.145C46.327,72.148 46.28,72.14 46.236,72.123C46.193,72.106 46.147,72.077 46.1,72.038C46.054,71.999 46.014,71.963 45.982,71.93C45.95,71.897 45.917,71.859 45.885,71.817C45.827,71.742 45.787,71.677 45.764,71.622C45.741,71.567 45.73,71.514 45.729,71.465C45.728,71.415 45.736,71.371 45.753,71.335C45.771,71.298 45.797,71.267 45.831,71.24C45.87,71.208 45.91,71.186 45.953,71.177C45.995,71.168 46.038,71.168 46.082,71.178C46.126,71.187 46.169,71.204 46.212,71.226C46.255,71.249 46.294,71.275 46.332,71.304C46.37,71.332 46.405,71.364 46.437,71.398C46.455,71.417 46.474,71.435 46.492,71.453ZM39.36,54.461C44.614,54.461 48.9,58.746 48.9,64C48.9,69.254 44.614,73.539 39.36,73.539C34.106,73.539 29.821,69.254 29.821,64C29.821,58.746 34.106,54.461 39.36,54.461ZM39.36,54.367C44.666,54.367 48.993,58.694 48.993,64C48.993,69.306 44.666,73.633 39.36,73.633C34.055,73.633 29.727,69.306 29.727,64C29.727,58.694 34.055,54.367 39.36,54.367ZM39.36,51.811C46.074,51.811 51.549,57.286 51.549,64C51.549,70.714 46.074,76.189 39.36,76.189C32.647,76.189 27.171,70.714 27.171,64C27.171,57.286 32.647,51.811 39.36,51.811ZM39.36,51.967C45.988,51.967 51.394,57.372 51.394,64C51.394,70.628 45.988,76.033 39.36,76.033C32.732,76.033 27.327,70.628 27.327,64C27.327,57.372 32.732,51.967 39.36,51.967ZM33.831,73.096C33.899,73.134 33.959,73.166 34.012,73.191C34.086,73.226 34.159,73.261 34.233,73.296C34.288,73.174 34.343,73.051 34.399,72.929C34.42,72.883 34.444,72.826 34.47,72.758C34.518,72.781 34.566,72.804 34.614,72.827C34.575,72.888 34.545,72.942 34.524,72.988C34.427,73.197 34.334,73.409 34.233,73.618C34.131,73.829 34.021,74.037 33.927,74.247C33.902,74.303 33.877,74.373 33.849,74.457C33.802,74.435 33.756,74.413 33.709,74.391C33.747,74.312 33.786,74.227 33.826,74.135C33.727,74.119 33.635,74.108 33.551,74.102C33.466,74.096 33.4,74.097 33.354,74.106C33.361,74.034 33.368,73.959 33.374,73.878C33.431,73.899 33.515,73.922 33.627,73.945C33.74,73.969 33.829,73.983 33.894,73.99C33.941,73.897 33.992,73.805 34.039,73.712C34.085,73.619 34.128,73.526 34.171,73.433C34.098,73.398 34.025,73.362 33.952,73.327C33.9,73.302 33.837,73.276 33.766,73.248C33.787,73.198 33.809,73.147 33.831,73.096ZM34.838,72.938C34.883,72.962 34.929,72.986 34.974,73.011C34.943,73.061 34.916,73.109 34.895,73.153C34.814,73.315 34.735,73.479 34.655,73.646C34.726,73.645 34.803,73.636 34.886,73.622C34.97,73.607 35.06,73.588 35.157,73.562C35.161,73.631 35.173,73.703 35.194,73.78C35.138,73.762 35.045,73.754 34.917,73.763C34.788,73.772 34.679,73.781 34.589,73.782C34.542,73.878 34.495,73.974 34.451,74.07C34.407,74.166 34.364,74.263 34.323,74.359C34.291,74.436 34.308,74.49 34.374,74.519C34.426,74.543 34.478,74.566 34.531,74.589C34.583,74.611 34.621,74.612 34.645,74.592C34.669,74.572 34.708,74.516 34.763,74.424C34.78,74.492 34.817,74.545 34.873,74.582C34.792,74.673 34.731,74.732 34.689,74.757C34.649,74.782 34.602,74.784 34.55,74.762C34.451,74.718 34.351,74.674 34.251,74.628C34.146,74.579 34.118,74.489 34.172,74.362C34.263,74.149 34.366,73.937 34.471,73.722C34.574,73.51 34.671,73.298 34.772,73.09C34.789,73.055 34.811,73.004 34.838,72.938ZM36.381,74.885C36.429,74.847 36.49,74.85 36.532,74.81C36.572,74.876 36.605,74.909 36.663,74.991C36.722,75.074 36.774,75.148 36.819,75.215C36.773,75.248 36.722,75.288 36.667,75.337C36.61,75.224 36.515,75.073 36.381,74.885ZM35.79,74.575C35.82,74.628 35.853,74.681 35.888,74.735C35.804,74.773 35.636,74.866 35.385,75.015C35.364,74.969 35.332,74.922 35.291,74.873C35.539,74.758 35.705,74.659 35.79,74.575ZM35.812,73.867L36.905,74.159C36.824,74.36 36.774,74.512 36.739,74.729L36.277,74.601L36.166,75.088C36.145,75.18 36.112,75.232 36.066,75.244C36.02,75.256 35.939,75.259 35.823,75.254C35.829,75.187 35.819,75.115 35.796,75.041C35.881,75.085 35.94,75.082 35.973,75.084C36.005,75.086 36.029,75.052 36.045,74.982L36.14,74.567L35.671,74.454C35.696,74.368 35.72,74.274 35.743,74.171C35.767,74.068 35.801,73.939 35.812,73.867ZM35.91,74.074L35.845,74.358L36.642,74.562L36.716,74.261L35.91,74.074ZM36.366,73.437C36.421,73.438 36.477,73.441 36.537,73.444C36.535,73.464 36.533,73.497 36.534,73.544C36.535,73.59 36.537,73.651 36.537,73.725C36.657,73.754 36.801,73.793 36.918,73.822C37.023,73.849 37.118,73.87 37.203,73.886C37.188,73.935 37.174,73.992 37.162,74.041C36.661,73.885 36.131,73.751 35.619,73.641C35.626,73.589 35.634,73.521 35.642,73.469C35.751,73.505 35.854,73.539 35.949,73.567C36.024,73.59 36.099,73.613 36.174,73.634C36.249,73.655 36.299,73.666 36.374,73.685C36.374,73.659 36.373,73.626 36.371,73.584C36.369,73.543 36.367,73.494 36.366,73.437ZM38.335,75.691C38.344,75.604 38.351,75.53 38.358,75.468C38.365,75.407 38.371,75.343 38.376,75.277L38.443,74.351C38.449,74.263 38.454,74.189 38.455,74.13L38.462,73.938C38.531,73.948 38.593,73.956 38.649,73.959L38.864,73.972C38.919,73.975 38.983,73.976 39.056,73.976C39.036,74.027 39.02,74.075 39.005,74.118C38.991,74.162 38.981,74.192 38.974,74.208L38.817,74.627C38.883,74.721 38.924,74.792 38.942,74.838C38.959,74.885 38.973,74.931 38.981,74.977C38.99,75.022 38.992,75.075 38.988,75.136C38.984,75.196 38.97,75.252 38.944,75.305C38.918,75.357 38.883,75.394 38.84,75.416C38.797,75.439 38.725,75.458 38.626,75.473C38.627,75.448 38.627,75.427 38.625,75.41C38.624,75.394 38.62,75.373 38.614,75.35C38.607,75.327 38.59,75.286 38.562,75.229C38.619,75.243 38.657,75.25 38.675,75.249C38.769,75.255 38.818,75.207 38.823,75.104C38.823,75.097 38.822,75.08 38.823,75.051C38.823,75.023 38.821,74.996 38.816,74.972C38.811,74.947 38.802,74.916 38.79,74.88C38.777,74.843 38.764,74.812 38.751,74.787C38.739,74.762 38.71,74.713 38.666,74.64C38.719,74.491 38.748,74.413 38.751,74.405L38.834,74.121L38.611,74.107L38.525,75.286C38.521,75.332 38.517,75.405 38.515,75.506L38.508,75.702C38.462,75.694 38.404,75.69 38.335,75.691ZM37.922,74.609L38.124,74.625L38.157,74.246L37.956,74.23L37.922,74.609ZM37.874,75.148L38.075,75.164L38.111,74.769L37.91,74.753L37.874,75.148ZM37.575,74.582L37.782,74.598L37.816,74.219L37.609,74.203L37.575,74.582ZM37.527,75.121L37.734,75.137L37.769,74.742L37.562,74.726L37.527,75.121ZM37.473,74.038C37.54,74.049 37.604,74.058 37.662,74.062L37.828,74.076L37.84,73.946C37.846,73.878 37.849,73.834 37.85,73.814L37.855,73.678C37.91,73.691 37.963,73.696 38.013,73.69C38.005,73.754 37.999,73.808 37.993,73.853C37.987,73.898 37.983,73.934 37.981,73.959L37.969,74.087L38.13,74.099C38.189,74.104 38.252,74.105 38.321,74.104C38.309,74.186 38.3,74.249 38.296,74.292C38.292,74.335 38.287,74.385 38.282,74.441L38.215,75.189C38.207,75.272 38.203,75.325 38.203,75.347L38.195,75.505C38.149,75.497 38.122,75.493 38.115,75.492C38.108,75.49 38.083,75.49 38.041,75.493C38.049,75.44 38.054,75.401 38.057,75.375L38.062,75.309L37.514,75.266L37.504,75.372C37.504,75.381 37.502,75.405 37.5,75.442L37.497,75.496C37.445,75.484 37.395,75.48 37.346,75.484C37.355,75.407 37.362,75.347 37.366,75.304C37.371,75.261 37.377,75.205 37.384,75.135L37.453,74.368C37.455,74.343 37.458,74.291 37.463,74.21L37.473,74.038ZM39.46,74.113C39.529,74.114 39.589,74.113 39.64,74.11L40.014,74.086L40.01,74.021C40.008,73.998 40.004,73.962 39.998,73.913L39.981,73.771C40.045,73.772 40.08,73.773 40.088,73.773C40.096,73.773 40.123,73.769 40.169,73.759C40.169,73.815 40.169,73.858 40.17,73.889C40.172,73.919 40.175,73.959 40.178,74.008L40.183,74.076L40.562,74.052C40.609,74.049 40.669,74.043 40.743,74.033C40.742,74.077 40.742,74.111 40.743,74.134C40.744,74.159 40.746,74.19 40.749,74.23L40.793,74.844C40.797,74.905 40.8,74.943 40.803,74.959L40.818,75.076C40.737,75.076 40.678,75.079 40.641,75.087C40.64,75.076 40.64,75.065 40.641,75.053C40.642,75.041 40.642,75.034 40.642,75.033L40.639,74.985L40.25,75.009L40.27,75.288C40.274,75.341 40.278,75.373 40.284,75.385C40.288,75.398 40.301,75.411 40.322,75.423C40.342,75.436 40.445,75.433 40.631,75.415C40.694,75.41 40.742,75.402 40.772,75.392C40.803,75.382 40.825,75.366 40.838,75.344C40.85,75.322 40.859,75.296 40.863,75.265C40.868,75.234 40.871,75.182 40.872,75.11C40.902,75.144 40.93,75.172 40.956,75.193C40.982,75.214 41.028,75.234 41.093,75.252C41.077,75.284 41.064,75.314 41.052,75.344C41.039,75.373 41.025,75.406 41.007,75.442C40.989,75.479 40.966,75.507 40.937,75.528C40.908,75.55 40.867,75.564 40.812,75.57C40.757,75.577 40.678,75.583 40.574,75.588C40.382,75.6 40.261,75.597 40.211,75.579C40.161,75.561 40.132,75.533 40.124,75.496C40.116,75.46 40.11,75.416 40.106,75.364L40.081,75.02L39.698,75.044L39.703,75.109L39.707,75.145L39.712,75.183C39.666,75.18 39.638,75.18 39.627,75.18L39.599,75.184L39.538,75.192C39.535,75.131 39.533,75.081 39.532,75.044C39.531,75.007 39.528,74.964 39.524,74.913L39.481,74.309C39.478,74.268 39.475,74.237 39.472,74.216L39.46,74.113ZM39.687,74.893L40.071,74.869L40.053,74.621L39.669,74.645L39.687,74.893ZM39.658,74.494L40.042,74.47L40.025,74.237L39.642,74.261L39.658,74.494ZM40.239,74.858L40.628,74.834L40.61,74.586L40.221,74.61L40.239,74.858ZM40.211,74.459L40.599,74.435L40.583,74.202L40.194,74.227L40.211,74.459ZM41.443,75.348L41.492,75.319C41.61,75.248 41.714,75.157 41.803,75.048C41.891,74.937 41.944,74.833 41.961,74.735C41.978,74.637 41.988,74.553 41.989,74.483C41.99,74.413 41.987,74.335 41.98,74.249L41.584,74.336C41.576,74.338 41.494,74.361 41.339,74.405C41.335,74.383 41.331,74.365 41.329,74.351C41.326,74.337 41.324,74.324 41.321,74.31C41.319,74.296 41.317,74.286 41.316,74.281L41.294,74.209C41.436,74.187 41.52,74.173 41.544,74.168L41.956,74.077C41.952,74.046 41.947,74.017 41.942,73.99C41.937,73.962 41.928,73.917 41.915,73.855L41.896,73.77C41.89,73.745 41.886,73.728 41.884,73.719L41.839,73.537C41.889,73.533 41.923,73.529 41.943,73.526C41.962,73.522 41.992,73.512 42.034,73.494L42.064,73.692C42.068,73.726 42.075,73.771 42.085,73.826C42.095,73.88 42.103,73.92 42.108,73.943L42.128,74.038L42.557,73.944C42.571,73.94 42.65,73.918 42.795,73.876C42.8,73.909 42.804,73.933 42.806,73.949C42.809,73.964 42.811,73.977 42.812,73.987C42.814,73.998 42.823,74.026 42.84,74.073C42.721,74.09 42.642,74.102 42.602,74.111L42.201,74.2C42.21,74.229 42.224,74.266 42.242,74.312C42.26,74.358 42.311,74.439 42.395,74.556C42.479,74.672 42.559,74.751 42.633,74.791C42.708,74.832 42.783,74.863 42.857,74.886C42.931,74.908 43,74.921 43.062,74.925L43.116,74.929C43.042,74.993 43.001,75.049 42.99,75.098L42.969,75.184L42.916,75.157C42.913,75.156 42.855,75.13 42.741,75.079C42.627,75.027 42.521,74.954 42.424,74.861C42.327,74.768 42.237,74.64 42.155,74.479C42.154,74.523 42.154,74.562 42.154,74.596C42.155,74.631 42.154,74.66 42.153,74.682C42.151,74.705 42.145,74.741 42.134,74.791C42.123,74.84 42.107,74.895 42.086,74.955C42.064,75.016 42.031,75.076 41.986,75.138C41.941,75.198 41.904,75.244 41.875,75.275C41.845,75.306 41.78,75.368 41.68,75.461L41.654,75.485C41.64,75.469 41.619,75.448 41.594,75.421C41.568,75.394 41.518,75.37 41.443,75.348ZM43.397,74.602C43.382,74.555 43.373,74.524 43.368,74.508C43.362,74.493 43.359,74.483 43.357,74.478L43.328,74.416C43.426,74.39 43.503,74.367 43.558,74.347L44.048,74.169L44.032,74.126L44.017,74.093L43.986,74.029L44.014,74.006C44.053,73.975 44.108,73.918 44.179,73.835L43.757,73.988C43.731,73.998 43.653,74.031 43.522,74.089C43.516,74.065 43.512,74.051 43.51,74.044C43.508,74.038 43.503,74.024 43.495,74.002L43.485,73.974L43.46,73.921C43.59,73.884 43.671,73.859 43.705,73.847L44.218,73.661C44.282,73.638 44.35,73.608 44.423,73.571C44.43,73.6 44.436,73.621 44.441,73.635L44.455,73.673C44.462,73.693 44.465,73.703 44.466,73.703L44.492,73.758L44.437,73.793C44.381,73.829 44.306,73.9 44.212,74.007L44.173,74.051L44.197,74.115L44.598,73.969C44.658,73.947 44.742,73.912 44.849,73.863C44.856,73.894 44.862,73.915 44.865,73.929C44.869,73.942 44.873,73.956 44.877,73.969C44.882,73.983 44.895,74.01 44.918,74.05C44.758,74.098 44.671,74.125 44.658,74.129L44.256,74.275L44.374,74.596C44.387,74.631 44.392,74.665 44.388,74.698C44.385,74.73 44.305,74.788 44.15,74.87C44.144,74.855 44.137,74.841 44.13,74.826C44.123,74.811 44.112,74.794 44.097,74.775C44.082,74.755 44.05,74.727 44.003,74.69L44.035,74.685C44.066,74.681 44.092,74.674 44.112,74.665C44.158,74.647 44.183,74.633 44.189,74.622C44.195,74.61 44.196,74.596 44.194,74.578C44.191,74.561 44.18,74.525 44.16,74.473L44.108,74.329L43.617,74.507C43.601,74.513 43.527,74.545 43.397,74.602ZM43.226,74.077C43.208,74.019 43.194,73.976 43.184,73.949L43.13,73.802C43.122,73.78 43.104,73.739 43.077,73.678C43.17,73.65 43.232,73.632 43.263,73.62L44.022,73.345C44.05,73.213 44.065,73.065 44.065,72.902L44.065,72.825C44.121,72.847 44.18,72.862 44.242,72.869L44.231,72.931L44.214,73.014L44.193,73.156L44.17,73.291L44.384,73.213C44.416,73.202 44.474,73.176 44.556,73.138C44.566,73.174 44.574,73.203 44.58,73.226C44.587,73.247 44.592,73.264 44.596,73.275L44.648,73.417C44.649,73.418 44.655,73.433 44.668,73.461L44.695,73.519C44.645,73.529 44.59,73.549 44.531,73.579C44.524,73.552 44.519,73.53 44.514,73.515C44.51,73.501 44.505,73.486 44.5,73.471L44.459,73.359L43.288,73.785L43.329,73.896C43.339,73.922 43.346,73.94 43.351,73.95L43.384,74.019C43.36,74.026 43.342,74.031 43.329,74.035C43.316,74.039 43.281,74.052 43.226,74.077ZM43.147,73.34C43.189,73.303 43.225,73.261 43.255,73.213L43.532,73.409C43.491,73.438 43.468,73.457 43.463,73.464L43.407,73.538L43.366,73.489C43.356,73.478 43.334,73.46 43.299,73.434C43.264,73.408 43.233,73.388 43.206,73.372L43.147,73.34ZM43.671,72.982L43.881,73.249C43.829,73.272 43.782,73.302 43.741,73.34L43.708,73.292C43.681,73.254 43.659,73.224 43.642,73.2L43.556,73.097L43.532,73.067C43.582,73.045 43.628,73.017 43.671,72.982ZM37.9,53.851C37.915,54.011 38.014,54.26 38.237,54.132C38.256,54.121 38.272,54.107 38.286,54.089C38.301,54.071 38.31,54.045 38.316,54.01C38.35,53.575 38.227,53.605 38.003,53.481C37.942,53.448 37.893,53.415 37.858,53.385C37.822,53.354 37.789,53.312 37.76,53.258C37.622,53.007 37.57,52.427 37.955,52.358C38.201,52.35 38.293,52.653 38.336,52.848L38.209,52.848C38.171,52.702 38.041,52.505 37.877,52.632C37.765,52.717 37.774,52.916 37.825,53.031C37.841,53.066 37.859,53.096 37.879,53.121C37.898,53.146 37.922,53.168 37.949,53.188C37.976,53.207 38.016,53.232 38.067,53.262C38.285,53.386 38.377,53.44 38.43,53.684C38.439,53.728 38.459,53.828 38.463,53.881C38.469,53.978 38.465,54.058 38.451,54.122C38.437,54.185 38.416,54.239 38.388,54.283C38.359,54.328 38.327,54.36 38.291,54.38C38.255,54.399 38.214,54.409 38.17,54.409C37.923,54.418 37.799,54.088 37.765,53.851L37.9,53.851ZM39.907,53.761C39.892,53.922 39.942,54.184 40.186,54.1C40.206,54.093 40.225,54.082 40.242,54.067C40.259,54.052 40.274,54.028 40.286,53.995C40.402,53.574 40.276,53.58 40.079,53.417C40.025,53.373 39.984,53.332 39.955,53.296C39.926,53.259 39.901,53.211 39.882,53.152C39.795,52.881 39.854,52.301 40.245,52.305C40.488,52.343 40.521,52.657 40.526,52.857L40.401,52.833C40.392,52.682 40.302,52.465 40.116,52.56C39.99,52.622 39.961,52.819 39.99,52.942C39.999,52.979 40.01,53.012 40.025,53.04C40.04,53.068 40.059,53.094 40.082,53.119C40.105,53.143 40.139,53.175 40.183,53.214C40.374,53.376 40.454,53.447 40.46,53.696C40.46,53.741 40.461,53.843 40.454,53.896C40.442,53.993 40.423,54.07 40.397,54.13C40.372,54.19 40.341,54.238 40.305,54.277C40.269,54.315 40.231,54.341 40.192,54.354C40.152,54.366 40.111,54.368 40.067,54.36C39.823,54.323 39.764,53.976 39.775,53.736L39.907,53.761ZM32.617,54.426C32.673,54.389 32.753,54.387 32.857,54.42C32.909,54.436 32.964,54.464 33.022,54.501C33.08,54.538 33.142,54.586 33.206,54.644C33.27,54.702 33.331,54.763 33.389,54.829C33.447,54.894 33.503,54.963 33.555,55.035C33.608,55.109 33.656,55.184 33.697,55.258C33.739,55.333 33.775,55.407 33.804,55.482C33.86,55.631 33.883,55.76 33.878,55.869C33.873,55.978 33.84,56.051 33.778,56.091C33.716,56.131 33.634,56.135 33.529,56.099C33.424,56.063 33.312,55.991 33.191,55.882C33.069,55.773 32.957,55.644 32.853,55.496C32.8,55.422 32.752,55.347 32.71,55.271C32.667,55.196 32.63,55.119 32.6,55.042C32.538,54.882 32.513,54.749 32.521,54.643C32.53,54.538 32.561,54.464 32.617,54.426ZM32.772,54.65C32.734,54.675 32.715,54.726 32.711,54.802C32.707,54.877 32.728,54.973 32.777,55.088C32.827,55.203 32.892,55.316 32.969,55.426C33.046,55.536 33.128,55.629 33.213,55.709C33.3,55.79 33.381,55.846 33.455,55.875C33.529,55.904 33.587,55.903 33.629,55.877C33.671,55.85 33.694,55.798 33.694,55.719C33.695,55.64 33.674,55.547 33.63,55.44C33.586,55.332 33.522,55.224 33.442,55.113C33.365,55.007 33.28,54.91 33.187,54.823C33.095,54.735 33.011,54.678 32.938,54.653C32.864,54.627 32.808,54.625 32.772,54.65ZM34.025,54.847L34.483,55.65L34.364,55.715L33.352,53.94L33.844,53.671L33.98,53.91L33.607,54.114L33.892,54.613L34.236,54.425L34.369,54.659L34.025,54.847Z" style="fill:rgb(1,58,137);"/>
        </g>
    </g>
</svg>
