<?xml version="1.0" encoding="UTF-8" standalone="no"?>
<!DOCTYPE svg PUBLIC "-//W3C//DTD SVG 1.1//EN" "http://www.w3.org/Graphics/SVG/1.1/DTD/svg11.dtd">
<svg width="100%" height="100%" viewBox="0 0 154 157" version="1.1" xmlns="http://www.w3.org/2000/svg" xmlns:xlink="http://www.w3.org/1999/xlink" xml:space="preserve" xmlns:serif="http://www.serif.com/" style="fill-rule:evenodd;clip-rule:evenodd;stroke-linejoin:round;stroke-miterlimit:2;">
    <g>
        <g transform="matrix(1.13636,0,0,1.13636,-10.5,6.18744)">
            <path d="M34.766,63.474C34.766,71.524 39.216,79.244 47.136,84.935C55.056,90.627 65.799,93.825 77,93.825C88.201,93.825 98.943,90.627 106.863,84.935C114.784,79.244 119.233,71.524 119.233,63.474C119.233,55.425 114.784,47.705 106.863,42.013C98.943,36.322 88.201,33.124 77,33.124C65.799,33.124 55.056,36.322 47.136,42.013C39.216,47.705 34.766,55.425 34.766,63.474Z" style="fill:white;fill-rule:nonzero;"/>
        </g>
        <g transform="matrix(1.13636,0,0,1.13636,-10.5,6.18744)">
            <path d="M107.029,58.175C103.818,52.234 97.876,48.701 91.613,46.453C85.029,44.204 77.643,43.562 70.737,44.686C64.475,45.328 57.891,47.737 52.752,51.752C47.453,55.606 44.402,62.029 46.65,68.453C50.825,79.854 65.117,83.869 76.037,84.19C82.781,84.832 90.168,83.066 96.27,80.175C102.051,77.285 107.993,72.307 108.475,65.401C108.635,62.672 107.993,60.423 107.029,58.175C107.993,60.423 105.584,55.606 107.029,58.175ZM72.986,45.328C75.716,45.007 78.446,45.007 81.175,45.328C83.905,45.81 86.475,46.453 89.044,47.577L65.278,47.577C65.599,47.095 70.737,45.65 72.986,45.328C75.716,45.168 70.737,45.65 72.986,45.328ZM61.263,80.336C54.358,77.766 46.329,71.985 46.81,63.635C46.81,54.963 56.124,49.825 63.029,47.416L63.351,47.416C63.19,47.416 63.19,47.577 63.029,47.577C59.978,49.182 57.409,51.109 55.321,53.839C51.307,58.657 50.504,65.562 53.234,71.182C55.482,75.518 59.015,78.409 63.19,80.818C63.19,80.818 63.351,80.818 63.351,80.978C62.708,80.818 61.905,80.496 61.263,80.336C61.905,80.496 58.373,79.212 61.263,80.336ZM81.015,82.745C75.555,83.387 69.774,82.905 64.796,80.496L89.044,80.496C86.475,81.62 83.745,82.423 81.015,82.745ZM63.19,79.533C63.029,79.533 62.869,79.372 62.708,79.372C60.942,78.409 59.175,77.124 57.57,75.679L57.409,75.518C70.416,75.518 83.263,75.679 96.27,75.679C96.11,75.839 95.949,76 95.628,76C94.183,77.285 92.416,78.569 90.81,79.533C90.329,80.015 89.044,79.693 88.402,79.693L77.643,79.693C72.825,79.533 68.007,79.533 63.19,79.533ZM105.102,71.343C101.891,76.161 96.431,79.533 90.971,81.139L90.65,81.139C90.81,81.139 90.81,80.978 90.971,80.978C96.431,78.088 100.767,73.431 102.051,67.328C103.497,58.496 98.037,51.591 90.81,47.416C90.65,47.416 90.489,47.416 90.489,47.255C90.971,47.416 91.453,47.577 91.774,48.058C94.825,49.182 97.555,50.467 100.124,52.394C106.548,56.569 109.278,64.438 105.102,71.343C106.387,69.416 103.657,73.591 105.102,71.343Z" style="fill:rgb(19,45,129);fill-rule:nonzero;"/>
        </g>
        <g transform="matrix(1.13636,0,0,1.13636,-10.5,6.18744)">
            <path d="M79.891,73.591C79.409,73.752 78.927,74.073 78.606,74.234L78.606,74.394C78.606,74.555 78.766,74.555 78.766,74.555C79.248,74.234 79.569,73.913 79.891,73.591ZM64.314,72.628C64.635,72.467 64.796,72.307 65.117,71.986C65.117,71.986 65.117,71.825 64.956,71.664L64.796,71.664C64.475,71.986 64.314,72.146 64.314,72.628ZM81.015,71.664C80.854,72.146 80.854,72.307 81.336,72.307L81.496,72.307C81.496,72.307 81.496,72.146 81.336,72.146C81.336,71.664 81.175,71.664 81.015,71.664Z" style="fill:rgb(19,45,129);fill-rule:nonzero;"/>
        </g>
        <g transform="matrix(1.13636,0,0,1.13636,-10.5,6.18744)">
            <path d="M50.504,42.759C51.788,42.278 49.861,40.19 52.109,41.314C52.431,42.117 51.306,42.438 51.467,43.241C51.467,44.365 52.591,43.562 52.109,42.92C52.109,42.759 52.109,42.599 51.949,42.438C52.27,42.438 52.752,42.438 53.073,42.599C53.233,42.599 53.233,42.759 53.073,42.92C52.912,43.241 52.912,43.562 52.752,43.723L52.752,44.044C52.912,44.044 52.912,44.044 52.912,44.205C52.912,43.562 53.715,42.759 54.197,43.08L54.197,43.402C53.876,43.883 53.555,44.365 53.233,44.686C53.233,44.847 53.233,44.847 53.073,45.007C53.233,45.007 54.197,45.168 54.197,45.329C54.036,45.65 53.555,45.971 53.394,46.453C53.394,46.774 54.197,47.898 54.358,48.219C54.358,50.628 53.073,48.059 52.431,47.416C52.109,47.898 51.788,48.219 51.467,48.54C51.306,48.701 50.985,48.861 50.664,48.861L50.664,48.54C50.985,47.898 51.306,47.416 51.467,46.613C51.467,46.453 51.628,46.292 51.628,45.971C51.467,45.971 51.467,46.132 51.306,46.132C50.825,46.774 50.343,47.256 50.022,47.737C49.701,48.059 49.379,48.38 48.898,48.219C48.737,48.219 48.577,48.059 48.416,48.059C49.379,47.095 50.022,46.292 50.985,45.329C50.825,45.168 50.825,45.007 50.664,44.847C50.504,45.007 50.504,45.168 50.504,45.329C50.343,45.489 50.343,45.81 50.343,45.971L50.182,46.132C49.861,46.132 49.54,45.971 49.219,45.971C49.379,45.81 49.379,45.65 49.058,45.489L48.577,45.007L49.861,45.007C50.343,45.007 50.343,45.007 50.343,44.686L50.825,44.686C50.664,44.526 50.504,44.526 50.343,44.365C50.343,44.205 50.182,44.205 50.182,44.044L50.343,43.883C50.504,43.883 50.504,43.723 50.504,43.723L50.504,43.402C49.701,43.402 49.54,44.526 48.898,44.686C47.452,45.168 48.898,43.562 49.54,43.402C50.182,43.08 50.343,43.08 50.504,42.759C50.343,42.92 50.182,42.759 50.182,42.759C49.861,42.599 49.379,42.438 49.058,42.278C48.898,42.278 48.898,42.117 48.737,42.117L48.577,41.956L48.737,41.796C49.861,41.796 50.182,41.956 50.504,42.759ZM51.628,47.577C51.788,47.577 52.752,46.774 52.431,46.453C51.949,46.774 51.788,47.256 51.628,47.577ZM51.788,43.883C51.949,44.205 52.109,44.365 52.27,44.686C52.591,44.526 52.591,44.205 52.431,43.883C52.109,43.723 52.109,43.723 51.788,43.883C52.109,43.723 51.949,44.205 51.788,43.883C52.109,43.723 51.949,44.205 51.788,43.883ZM53.233,44.044C52.912,44.365 52.591,44.686 52.431,45.007C52.591,45.168 52.752,45.168 52.752,45.007C53.073,44.847 53.073,44.526 53.233,44.044C53.233,44.205 53.233,44.205 53.233,44.044ZM51.306,41.796C51.306,41.956 51.467,41.956 51.467,42.117C51.628,41.956 51.628,41.635 51.467,41.475C51.467,41.635 51.306,41.635 51.306,41.796C51.306,41.956 51.306,41.635 51.306,41.796ZM52.912,45.329C52.912,45.489 52.912,45.65 53.073,45.81L53.233,45.81L53.233,45.489C53.233,45.489 53.073,45.489 52.912,45.329ZM99.16,43.241C99.321,42.599 99.321,41.956 99.482,41.314C99.963,41.475 99.803,41.956 100.124,42.117C100.124,42.117 100.124,41.956 100.285,41.956L100.285,40.511C100.285,40.511 100.445,40.511 100.445,40.672C100.606,40.993 100.606,41.153 100.766,41.475L100.766,42.117C101.248,42.759 101.409,41.635 101.409,41.475C101.89,41.956 102.372,41.956 102.693,41.475C103.175,41.796 103.336,42.278 102.854,42.759C103.496,42.759 104.46,42.92 104.781,43.562C104.941,44.365 104.299,44.365 103.817,44.365C103.496,44.365 102.533,44.205 102.854,44.847C102.854,45.329 101.89,45.489 101.569,45.65C101.73,45.65 101.73,45.81 101.89,45.81L102.212,46.132C102.533,46.774 101.409,46.613 101.087,46.613C101.087,46.453 101.087,46.453 101.248,46.292L101.248,46.132L100.927,46.132C100.766,46.292 100.606,46.292 100.606,46.453C100.285,46.934 99.963,47.577 99.642,47.898C99,49.343 98.518,48.38 98.036,47.416C98.197,47.416 98.358,47.577 98.358,47.577C98.679,47.737 99,47.737 99.16,47.416C99.642,46.934 99.963,46.292 100.285,45.81L100.285,45.65C99.321,45.65 98.036,46.453 97.394,45.489C97.233,45.329 97.233,45.007 97.073,44.847C97.555,44.847 97.876,45.007 98.197,45.007C99.321,45.168 100.927,45.65 101.569,44.526C101.569,44.365 99.16,44.526 99.963,44.044C100.766,44.044 101.409,44.205 102.051,44.365L102.212,44.365L103.175,43.883C103.336,43.883 103.496,43.723 103.657,43.562C103.978,43.402 103.817,43.241 103.657,43.08C103.496,43.08 103.175,42.92 103.014,42.92C102.533,43.241 102.854,43.723 102.212,43.883C101.89,44.044 101.569,43.883 101.248,43.402C101.087,43.241 101.248,42.92 101.569,42.759L101.89,42.438C101.569,42.278 101.248,42.278 101.087,42.599C101.087,42.759 101.087,42.92 100.927,42.92C100.927,43.08 100.927,43.08 100.766,43.241C100.766,43.241 100.606,43.402 100.445,43.402L100.285,43.241L100.285,43.08C100.124,42.759 100.124,42.759 99.803,42.92C99.321,43.241 99.321,43.241 99.16,43.241ZM101.409,42.92L101.087,43.241C101.087,43.241 101.087,43.402 101.248,43.402C101.409,43.241 101.409,43.241 101.409,42.92C101.569,43.08 101.569,42.92 101.409,42.92C101.569,42.92 101.248,43.08 101.409,42.92C101.569,42.92 101.248,43.08 101.409,42.92ZM81.496,38.423C82.138,38.423 82.299,37.299 82.942,37.621C83.744,38.102 82.46,39.387 82.138,39.869C81.978,40.029 82.138,40.19 82.138,40.35C82.46,40.832 83.102,40.993 83.423,41.153C83.584,41.153 83.584,41.153 83.744,41.314C83.263,41.635 82.781,41.796 82.46,41.956C81.817,42.278 81.657,41.314 81.336,40.832C80.854,41.314 80.212,41.635 79.569,41.314C79.73,41.153 79.89,41.153 80.051,41.153C81.496,40.35 80.533,40.19 80.533,39.066L80.854,39.066C81.015,39.226 81.336,39.387 81.496,39.708C81.657,39.387 81.817,39.066 81.978,38.905C81.817,38.905 81.657,39.066 81.657,39.066C81.015,39.708 80.693,38.584 81.015,38.102C80.854,38.102 80.693,38.102 80.533,38.263C80.533,38.263 80.372,38.263 80.372,38.423C80.212,38.745 79.89,39.066 79.73,39.226C79.73,40.029 79.569,40.993 79.248,41.635C78.766,42.759 78.766,40.19 78.766,40.19C78.606,40.35 78.445,40.672 78.124,40.832C77.642,40.993 77.642,40.19 77.963,40.029C78.284,39.708 78.606,39.548 78.927,39.387C79.248,39.387 79.088,38.423 79.248,38.102C79.088,38.102 79.088,38.102 79.088,38.263L78.606,38.745C78.284,38.905 77.963,38.905 77.803,38.745C77.642,38.423 77.642,38.263 77.963,38.263C78.445,38.102 78.927,37.781 79.248,37.621L79.409,37.46C79.409,36.818 79.409,36.336 79.569,35.854C79.569,35.533 80.051,35.212 80.372,35.533C80.693,35.854 80.372,36.818 80.372,37.139L80.533,36.978L80.854,36.978L80.854,37.299L80.693,37.299C80.051,37.781 80.051,37.942 80.051,38.584C80.372,38.584 80.533,38.263 80.372,37.942C80.372,37.781 80.372,37.781 80.533,37.621C80.854,37.46 81.175,37.46 81.496,37.299C81.657,37.299 81.817,37.139 81.817,36.978C81.978,36.497 82.138,36.175 82.138,35.694C82.299,35.372 82.46,35.212 82.781,35.533C83.905,36.015 82.781,36.978 82.138,37.299C81.496,37.781 81.496,38.102 81.496,38.423Z" style="fill:rgb(224,11,34);fill-rule:nonzero;"/>
        </g>
        <g transform="matrix(1.13636,0,0,1.13636,-10.5,6.18744)">
            <path d="M50.182,78.57C50.343,78.248 50.343,78.088 50.182,77.927C50.182,77.927 50.343,77.927 50.343,78.088L50.985,78.73C50.664,78.57 50.503,78.57 50.343,78.891C49.54,79.854 48.898,80.657 48.095,81.621C47.613,82.263 47.131,82.745 46.649,83.226C47.292,81.621 47.934,79.694 48.416,78.088C48.416,78.088 48.416,78.248 48.255,78.248C47.452,79.212 46.649,80.015 45.847,81.139C45.686,81.299 45.686,81.46 45.525,81.46C45.365,81.621 45.365,81.781 45.525,81.942L45.525,82.102C45.204,81.781 44.883,81.621 44.722,81.46L44.722,81.299L44.883,81.299C45.365,81.781 46.489,80.015 46.649,79.854C47.292,79.212 49.219,77.606 48.737,76.482L48.737,76.643C48.416,76.321 48.095,76.482 47.934,76.643L45.525,78.57C45.365,78.891 44.562,79.372 43.92,79.372C43.117,79.533 42.635,78.73 42.795,78.088C42.956,77.606 43.277,77.285 43.598,76.964C44.562,76.161 45.204,75.679 46.168,74.876C46.328,74.716 47.292,74.234 46.971,73.913L46.971,73.752C47.452,74.234 47.934,74.876 47.774,74.876C47.452,74.716 47.292,74.716 46.971,74.876C45.847,75.84 44.883,76.643 43.598,77.606C43.438,77.766 43.277,78.088 43.117,78.409C42.795,79.533 44.241,79.212 44.722,79.051C45.204,78.57 45.847,78.248 46.168,77.766C46.489,77.445 48.416,76.321 47.934,75.84L47.934,75.679L48.095,75.679C48.416,76.161 48.898,76.321 49.219,76.803C49.379,76.964 49.379,76.964 49.379,77.124C48.898,78.57 47.613,81.46 47.613,81.621C47.613,81.46 49.219,79.372 50.182,78.57Z" style="fill-rule:nonzero;"/>
        </g>
        <g transform="matrix(1.13636,0,0,1.13636,-10.5,6.18744)">
            <path d="M60.62,40.832C60.62,41.314 60.299,42.278 59.657,42.278C58.854,42.278 59.015,40.832 59.015,40.35C59.175,40.35 59.175,40.35 59.336,40.511L59.818,40.993C60.46,41.475 60.299,39.869 60.139,39.708C60.139,39.548 58.533,36.978 59.818,37.621C60.299,37.942 60.46,38.584 60.781,39.066L60.942,38.905C61.102,38.584 61.423,38.263 61.584,37.942C61.745,37.781 62.547,37.299 62.547,37.942C62.547,38.423 62.066,38.745 62.066,39.226C61.905,39.548 62.066,39.708 62.387,39.869C62.869,40.35 62.226,40.672 62.066,40.993C61.584,41.635 62.387,43.081 62.708,43.723C62.869,44.044 62.869,44.205 63.029,44.526C63.029,44.686 62.869,44.847 62.869,45.008C62.708,45.008 62.547,44.847 62.387,44.847C61.423,43.562 61.584,41.956 60.62,40.832C60.62,40.672 60.62,40.672 60.62,40.832ZM61.423,39.066C61.102,39.226 60.942,39.708 61.102,40.029C61.102,40.19 61.263,40.19 61.423,40.35C61.584,40.19 61.584,40.19 61.584,40.029C61.584,39.869 61.584,39.387 61.423,39.066C61.584,39.387 61.102,39.226 61.423,39.066C61.584,39.387 61.102,39.226 61.423,39.066ZM71.219,39.548C71.54,39.226 71.861,39.066 71.701,38.584L71.219,36.175C71.219,36.015 71.058,34.409 71.701,34.73C72.664,35.533 71.701,36.978 72.343,37.942L72.504,37.942C72.504,36.497 73.788,38.102 73.307,38.102L72.664,38.745C72.664,38.905 72.504,39.066 72.504,39.226C72.664,40.029 72.664,40.672 72.825,41.635C72.825,41.956 72.664,42.438 72.504,42.599C72.343,42.438 72.343,42.278 72.343,42.117C72.183,41.475 72.183,40.832 72.022,40.35C72.022,40.35 72.022,40.19 71.861,40.029C71.701,40.19 71.54,40.19 71.54,40.35C71.379,40.511 71.058,40.672 70.898,40.511C70.577,40.35 70.577,40.19 70.737,39.869C70.737,39.548 70.898,39.226 70.898,39.066C70.898,38.745 70.256,38.423 70.416,38.102C70.737,37.621 70.095,37.139 69.774,36.657C69.774,36.657 72.022,36.336 70.577,37.621C70.577,37.781 70.577,37.942 70.737,37.942C71.058,38.102 71.058,38.423 71.058,38.584L71.058,39.387C71.379,39.226 71.219,39.387 71.219,39.548C71.54,39.226 71.219,39.226 71.219,39.548Z" style="fill:rgb(224,11,34);fill-rule:nonzero;"/>
        </g>
        <g transform="matrix(1.13636,0,0,1.13636,-10.5,6.18744)">
            <path d="M69.292,92.379C68.81,92.379 68.489,92.219 68.007,92.219C68.007,92.219 67.847,92.219 67.847,92.058C67.847,92.058 68.328,91.898 68.328,91.737C68.65,90.453 68.81,89.328 68.328,88.204C68.168,87.562 68.168,87.08 68.007,86.599C68.007,86.438 67.847,86.277 67.686,85.956L67.525,85.956C67.365,86.277 67.365,86.759 67.204,87.08C67.204,86.117 67.044,86.277 66.401,85.796C66.241,86.277 66.08,86.759 66.08,87.08C65.759,88.365 65.438,89.65 64.956,90.774C64.956,91.095 64.796,91.255 65.117,91.416L65.117,91.577C64.635,91.416 64.153,91.255 63.832,91.255C63.993,91.255 63.993,91.255 63.993,91.095C64.314,91.095 64.314,90.934 64.474,90.774C64.474,90.613 65.438,87.241 65.759,85.635L65.759,85.474C64.956,85.153 64.956,85.153 64.474,86.277C64.474,85.796 64.796,85.314 64.796,84.993L64.956,84.993C65.599,85.153 66.241,85.314 66.883,85.635C67.365,85.796 68.007,85.796 68.328,85.956L68.328,86.117C67.686,86.438 68.168,87.883 68.328,88.365C68.328,88.686 68.489,89.007 68.65,89.328L69.131,88.365C69.292,87.883 69.453,87.562 69.613,87.08C69.774,86.759 69.774,86.438 69.453,86.117L69.453,85.956C69.774,85.956 70.255,86.117 70.577,86.117C70.577,86.117 70.577,86.277 70.416,86.277C70.095,86.438 69.934,86.599 69.934,86.759C69.774,87.08 67.525,92.058 68.81,92.058C69.292,92.219 69.292,92.219 69.292,92.379C69.453,92.379 69.292,92.379 69.292,92.379Z" style="fill-rule:nonzero;"/>
        </g>
        <g transform="matrix(1.13636,0,0,1.13636,-10.5,6.18744)">
            <path d="M67.365,39.066C68.007,38.905 68.328,38.584 68.649,38.102C68.81,37.781 68.81,37.621 68.81,37.299C68.649,36.657 68.489,36.978 67.847,36.978L67.847,36.818L68.007,36.657L69.292,35.372C69.452,35.372 69.452,35.212 69.452,35.051C69.613,35.051 69.934,34.891 70.095,35.051C70.095,35.051 70.576,35.693 70.095,35.693C69.774,35.854 69.613,36.015 69.292,36.175C69.131,36.336 68.971,36.336 68.81,36.496C69.131,36.657 69.452,36.818 69.452,37.139C69.452,37.139 69.613,37.139 69.613,36.978C69.774,36.818 70.255,36.978 70.255,37.139C70.255,37.46 69.934,37.942 69.774,38.102C69.452,38.423 69.613,38.745 69.774,39.066C69.934,38.905 70.095,38.905 70.255,38.745C69.774,39.226 69.934,40.19 69.934,40.672C69.774,41.796 69.131,41.153 69.131,40.19L68.81,40.511C68.007,41.314 68.007,40.35 68.489,39.708L68.971,38.745L68.971,38.263C68.81,38.263 68.81,38.263 68.81,38.102C68.649,38.423 68.489,38.745 68.168,38.905C68.007,39.708 67.686,39.708 67.365,39.066C68.007,38.905 67.686,39.708 67.365,39.066C68.007,38.905 67.686,39.708 67.365,39.066ZM69.131,40.029C69.131,39.869 69.131,39.869 69.131,40.029C68.971,40.19 68.81,40.35 68.81,40.511L68.971,40.511C68.971,40.35 69.131,40.19 69.131,40.029ZM87.92,41.314C88.883,41.635 89.686,41.635 90.489,40.832C90.168,40.672 89.847,40.672 89.686,40.832C89.525,40.832 89.365,40.832 89.204,40.672C89.044,40.35 88.883,40.029 88.883,39.708C89.686,39.708 90.489,40.19 91.292,40.029C92.095,39.708 92.576,38.102 93.219,37.46C93.54,37.942 93.54,38.745 93.219,39.226C93.058,39.548 92.416,39.869 92.416,40.19C93.058,40.19 93.379,40.029 93.701,40.672C93.54,40.993 92.576,40.832 92.416,40.832C91.613,40.832 91.292,40.993 90.649,41.475C90.328,41.956 87.92,42.759 87.92,41.314C87.759,41.475 87.759,41.475 87.92,41.314C88.722,41.635 87.92,41.475 87.92,41.314C88.722,41.635 87.92,41.475 87.92,41.314Z" style="fill:rgb(224,11,34);fill-rule:nonzero;"/>
        </g>
        <g transform="matrix(1.13636,0,0,1.13636,-10.5,6.18744)">
            <path d="M37.015,61.548C37.175,61.708 37.175,61.708 37.015,61.548C37.175,62.029 37.336,62.029 37.657,62.19C38.139,62.35 38.781,62.35 39.102,62.35C40.387,62.511 41.35,62.672 42.635,62.832C42.956,62.832 43.117,62.832 43.277,62.511L43.438,62.511C43.438,62.993 43.277,63.475 43.277,63.796L43.117,63.796C43.117,63.635 42.795,63.314 42.635,63.314C41.832,63.153 41.029,63.153 40.226,62.993C40.226,63.475 40.066,63.956 40.066,64.438C40.869,64.599 41.671,64.599 42.474,64.759C42.635,64.759 42.795,64.759 42.956,64.438L43.117,64.278C43.117,64.759 42.956,65.08 42.956,65.562L42.795,65.723C42.795,65.241 42.474,65.241 42.153,65.241C41.35,65.08 40.708,65.08 40.066,64.92C39.102,64.759 38.46,64.759 37.496,64.599C37.175,64.599 36.854,64.438 36.693,64.92L36.533,64.92L36.533,64.759C36.533,64.278 36.693,63.956 36.693,63.475L37.015,63.796C37.015,64.117 37.175,64.278 37.496,64.278C38.139,64.438 38.781,64.438 39.102,64.599C39.263,64.599 39.584,64.599 39.905,64.759C39.905,64.278 40.066,63.796 40.066,63.314C39.584,63.314 37.175,62.672 37.175,63.314L37.015,63.314L37.015,63.153C36.854,62.35 36.854,62.029 37.015,61.548C37.175,61.708 36.854,62.029 37.015,61.548ZM44.241,53.197C45.044,53.679 45.525,54 46.328,54.321C46.489,54.482 46.65,54.482 46.81,54.161L46.971,54.161C46.65,54.643 46.489,54.964 46.328,55.285L46.168,55.285L46.168,55.124C46.328,54.803 46.168,54.643 46.007,54.643C45.847,54.482 45.686,54.482 45.525,54.321C44.241,53.518 43.117,53.037 41.993,52.234C41.671,51.913 41.35,51.752 41.029,52.073L40.869,52.073C41.029,51.752 41.35,51.27 41.511,50.949C41.511,51.11 41.671,51.11 41.511,51.11C41.35,51.431 41.511,51.591 41.671,51.591C42.153,52.073 43.117,52.394 43.759,52.876C44.08,52.394 44.241,51.913 44.562,51.591C43.759,51.11 43.117,50.789 42.314,50.467C42.153,50.307 41.993,50.307 41.832,50.628L41.671,50.628L41.671,50.467C41.832,50.146 41.993,49.825 42.314,49.343L42.474,49.343L42.474,49.504C42.153,49.825 42.956,50.146 43.117,50.307C44.401,51.11 45.525,51.591 46.81,52.394C46.971,52.555 47.131,52.555 47.292,52.555C47.452,52.716 47.613,52.555 47.774,52.394L47.934,52.394L47.934,52.555L47.452,53.518C47.452,53.518 47.292,53.518 47.292,53.679L47.292,53.518C47.452,53.197 47.292,53.037 46.971,52.876C46.328,52.876 45.686,52.394 45.044,52.073C44.722,52.394 44.562,52.716 44.241,53.197ZM60.46,84.19C60.46,85.314 59.657,85.956 58.693,86.438C58.533,86.438 58.533,86.599 58.533,86.599C58.372,87.241 57.89,89.007 58.372,89.65L58.372,89.81C58.051,89.65 57.89,89.489 57.73,89.329L57.73,89.007C57.89,88.044 58.051,87.241 58.212,86.278C58.212,85.956 58.212,85.956 57.89,85.796C57.73,86.117 57.569,86.278 57.409,86.599C57.248,87.08 56.927,87.402 56.766,87.883C56.606,88.044 56.606,88.365 56.927,88.526L56.927,88.686C56.445,88.526 56.124,88.205 55.803,88.044L55.803,87.883L56.285,87.883C56.606,88.205 56.927,87.402 57.088,87.241C57.89,86.117 58.372,84.832 59.175,83.548C59.336,83.387 59.336,83.226 59.496,83.066C59.336,82.905 60.46,83.387 60.46,84.19ZM59.015,85.796C60.299,84.832 59.817,82.584 58.854,84.511C58.693,84.993 58.372,85.475 58.051,85.796C58.372,86.117 58.693,86.117 59.015,85.796ZM116.825,67.971C116.664,68.453 116.664,68.934 116.504,69.256C116.504,69.095 116.343,69.095 116.343,69.095C116.343,68.774 116.182,68.774 116.022,68.613C115.54,68.453 110.562,67.489 110.562,67.971L110.401,67.971C110.562,67.489 110.562,67.168 110.562,66.686C110.562,66.686 110.562,66.526 110.722,66.526L110.722,66.686C110.722,67.007 112.971,67.007 113.452,67.489C113.613,67.007 113.613,66.526 113.774,66.205C113.292,66.044 111.204,65.562 110.883,66.205C110.883,66.205 110.722,66.205 110.722,66.365C110.883,65.883 110.883,65.562 111.044,65.08L111.204,64.92C111.204,65.241 111.365,65.562 111.686,65.562C113.292,65.883 114.737,66.205 116.343,66.526L116.664,66.526C116.825,66.526 116.985,66.365 117.146,66.365C117.146,66.365 117.306,66.365 117.306,66.205C117.146,66.686 117.146,67.007 116.985,67.489L116.985,67.65C116.825,67.489 116.664,67.168 116.504,67.007L114.095,66.526C113.934,67.007 113.934,67.489 113.774,67.81C114.095,67.971 116.504,68.613 116.825,67.971C116.664,67.971 116.664,67.971 116.825,67.971C116.664,68.453 116.664,67.971 116.825,67.971ZM107.029,81.942C107.35,81.299 106.708,81.299 106.708,80.657C105.744,79.694 105.102,78.73 104.299,77.606C104.139,77.445 104.139,77.285 103.978,77.285C103.817,77.124 103.657,77.124 103.496,77.124L103.336,77.124L103.336,76.964C103.817,76.643 104.299,76.321 104.62,76C105.263,75.679 105.905,76.161 106.387,76.482C107.35,77.445 108.153,78.248 108.474,79.694C108.635,80.336 108.474,80.818 107.832,81.139C107.671,81.46 107.35,81.781 107.029,81.942ZM107.35,81.299C108.153,81.299 107.993,80.336 107.993,80.015C107.511,78.73 106.708,77.606 105.584,76.803C105.423,76.643 104.46,76.643 104.299,77.285C105.263,78.57 107.35,81.299 107.35,81.299ZM45.525,72.949C44.883,73.27 44.241,73.431 43.759,73.752C43.759,73.752 43.92,73.752 43.92,73.591C44.562,73.27 45.525,71.986 44.241,71.825C43.759,71.664 43.117,71.825 42.795,71.825C41.671,71.986 40.869,72.467 40.066,72.949C39.744,73.11 39.584,73.431 39.423,73.752C39.102,74.234 39.423,74.716 39.905,74.876L40.066,74.876C40.708,74.716 41.35,74.394 41.993,74.234C42.314,74.073 42.474,74.073 42.474,73.752C42.474,73.591 42.474,73.752 42.474,73.752C42.474,73.752 42.635,73.752 42.635,73.913C42.795,74.234 42.956,74.555 42.956,75.037L42.635,75.037C42.474,74.716 42.153,74.876 41.993,74.876C41.35,75.037 40.708,75.358 40.066,75.518L39.584,75.518C38.781,75.037 38.62,74.234 39.102,73.591C39.584,72.949 40.387,72.467 41.029,72.307C42.153,71.825 42.956,71.664 44.08,71.825C44.241,71.825 44.562,71.986 44.722,72.146C45.204,71.986 45.365,72.949 45.525,72.949ZM107.19,52.876C107.671,52.394 108.635,51.752 108.635,51.752L108.474,51.913C108.314,52.234 107.35,53.037 107.832,53.518C108.153,54.161 109.117,53.679 109.438,53.518C110.562,53.037 111.365,52.234 112.168,51.431C112.328,51.11 112.489,49.825 112.007,49.664L111.686,49.664C111.044,50.146 110.562,50.467 110.08,50.789C109.92,50.949 109.598,51.11 109.759,51.431L108.795,50.467L108.956,50.467C109.117,50.628 109.438,50.467 109.598,50.467C110.241,49.986 111.044,49.183 111.847,49.183C112.65,49.343 112.971,50.146 112.81,50.789C112.328,52.394 110.08,53.679 108.635,54L107.993,54C107.511,53.84 107.19,52.876 107.19,52.876ZM44.401,70.701C44.241,70.38 44.08,70.38 43.759,70.38C41.993,71.022 40.226,71.664 38.299,72.146C39.584,71.022 41.029,69.898 42.474,68.613L42.314,68.613C41.029,69.095 39.905,69.416 38.62,69.737C38.46,69.737 38.46,69.737 38.299,69.898C37.978,70.059 37.817,70.219 37.978,70.54C37.978,70.54 37.817,70.54 37.817,70.38C37.657,70.059 37.657,69.737 37.496,69.577L37.496,69.416L37.657,69.416C37.978,69.737 38.139,69.898 38.299,69.737C38.942,69.577 39.423,69.416 39.744,69.256C40.869,68.934 41.671,68.613 42.795,68.292C43.117,68.292 43.438,68.132 43.438,67.65C43.438,67.65 43.438,67.489 43.598,67.489C43.759,67.81 43.759,68.132 43.92,68.292L43.759,68.453C42.474,69.577 41.35,70.54 40.226,71.664C41.029,71.343 41.832,71.183 42.635,70.862C43.117,70.701 43.598,70.54 43.92,70.38C44.08,70.219 44.401,70.219 44.241,69.898L44.401,69.737C44.401,70.059 44.562,70.54 44.401,70.701C44.562,70.54 44.241,70.38 44.401,70.701ZM115.701,62.19C114.577,62.19 111.847,61.708 111.044,62.511C111.044,62.511 110.883,62.672 110.722,62.672L110.722,61.708C110.722,61.708 110.722,61.548 110.883,61.548C111.365,62.672 115.861,61.869 116.985,61.869L117.306,61.869L117.306,62.029C115.701,62.832 113.934,63.314 112.328,64.117C113.613,64.117 115.058,64.117 116.343,63.956C116.664,63.956 116.985,63.475 117.146,63.475L117.146,64.759C116.825,63.956 115.379,64.278 114.737,64.278C113.934,64.278 111.365,63.796 111.044,64.92C111.044,64.92 110.883,64.92 110.722,64.759C110.722,64.599 110.883,63.956 110.883,63.956C112.168,63.475 115.54,62.19 115.701,62.19ZM89.686,85.314C89.847,85.956 90.007,86.438 90.168,87.08C90.328,87.883 90.489,88.526 90.65,89.329C90.65,89.65 90.81,89.971 91.131,89.81L91.131,89.971C90.81,90.132 90.489,90.132 90.328,90.132L90.168,90.132L90.168,89.971C90.489,89.81 90.489,89.65 90.328,89.329C90.007,87.883 89.686,86.117 89.204,84.672C89.204,84.351 88.883,84.029 88.562,84.029L88.401,84.029C88.562,83.869 88.883,83.708 89.204,83.708C89.204,83.708 89.365,83.869 89.525,83.869C90.328,85.153 92.095,87.562 92.095,87.562C91.934,87.08 91.934,86.599 91.774,86.278C91.613,85.475 90.971,83.226 90.65,83.226C90.971,83.066 91.613,83.066 91.774,83.066C91.452,83.226 92.095,85.635 92.255,86.599C92.416,87.402 92.898,89.168 92.898,89.329C91.613,88.205 90.65,86.599 89.686,85.314ZM102.051,80.015C102.533,80.497 102.854,81.139 103.336,81.46C103.657,81.942 104.62,83.548 105.263,83.226L105.423,83.226C105.102,83.387 104.941,83.708 104.62,83.869L104.46,83.869L104.46,83.708C104.781,83.387 104.299,83.066 104.139,82.745C103.336,81.621 102.533,80.657 101.73,79.533C101.409,79.212 101.087,79.051 100.766,79.212L100.606,79.212C100.766,79.051 101.087,78.891 101.248,78.73L101.569,78.73C102.854,79.533 105.263,80.978 105.423,80.978C105.423,80.818 103.978,79.051 103.175,78.088C102.854,77.767 102.693,77.927 102.372,77.606L102.212,77.606C102.533,77.445 102.854,77.124 103.175,76.964L103.175,77.124C102.854,77.445 105.423,80.657 106.387,81.781L106.547,81.942C104.941,81.621 103.496,80.978 102.051,80.015ZM97.233,82.745C97.073,82.584 97.073,82.424 96.912,82.263C96.752,81.942 96.591,81.781 96.109,81.942C95.788,82.102 95.628,82.102 95.306,82.263C95.628,83.066 95.949,83.708 96.27,84.672C96.591,84.511 96.912,84.511 97.073,84.351C97.233,84.351 97.233,84.029 97.233,84.029L97.233,83.387C97.555,84.029 97.876,84.993 97.876,84.832C97.555,84.19 96.591,84.672 96.591,84.832C96.752,85.314 97.073,87.241 97.876,87.241C98.679,86.92 98.839,86.599 98.839,85.796C99,86.278 99,86.92 99.161,87.241C98.358,87.562 97.715,87.883 96.912,88.205C96.912,88.044 96.912,88.044 97.073,88.044C97.394,87.883 97.394,87.723 97.233,87.402C96.912,86.438 95.788,82.102 94.985,82.424L94.825,82.424C94.825,82.424 94.825,82.263 94.985,82.263C95.306,82.102 96.431,81.46 96.912,81.299C96.912,81.942 97.233,82.745 97.233,82.745ZM110.241,71.343C110.08,71.343 109.92,71.183 109.759,71.183C109.277,71.022 109.117,71.183 108.956,71.504C108.795,71.664 108.795,71.986 108.635,72.146C109.438,72.467 110.08,72.949 110.883,73.27C111.365,72.467 111.204,72.307 110.562,71.664L112.489,72.628C112.328,72.628 112.168,72.628 112.168,72.467C111.686,72.307 111.204,73.11 111.204,73.27C111.525,73.431 112.971,74.073 113.452,74.394C113.613,74.555 113.774,74.394 113.934,74.234C113.934,74.234 113.934,74.073 114.095,74.073C114.416,73.27 114.095,72.949 113.452,72.467C113.934,72.789 114.416,73.11 114.737,73.431C114.416,74.234 114.095,74.716 113.613,75.518L113.452,75.679L113.452,75.518C113.613,75.197 113.292,75.037 113.131,74.876C112.328,74.394 111.525,74.073 110.722,73.591C110.08,73.27 108.474,72.146 107.993,72.789L107.832,72.789L107.832,72.628L108.635,71.022C109.598,70.862 109.759,71.022 110.241,71.343Z" style="fill-rule:nonzero;"/>
        </g>
        <g transform="matrix(1.13636,0,0,1.13636,-10.5,6.18744)">
            <path d="M53.234,87.08C53.234,86.92 53.234,87.08 53.234,87.08C53.394,86.92 53.555,86.759 53.715,86.759C53.876,86.599 53.876,86.438 54.037,86.277C54.84,84.993 55.321,83.708 56.124,82.584C56.124,82.423 56.285,82.263 56.285,82.263C56.445,81.942 56.445,81.781 56.124,81.621L56.445,81.621C57.088,81.942 57.73,82.423 58.372,82.745C58.212,83.226 57.891,83.548 57.73,84.029C57.73,83.869 57.891,83.708 57.891,83.548C58.051,83.066 58.051,82.905 57.57,82.584C57.409,82.423 57.088,82.423 56.927,82.263C56.445,83.066 56.124,83.708 55.803,84.511C56.124,84.672 56.285,84.832 56.606,84.832C56.927,85.153 57.409,84.19 57.57,84.19C57.248,84.832 56.445,86.117 56.445,86.117C56.445,85.956 56.606,85.796 56.606,85.635C56.767,85.314 56.606,85.153 56.285,84.993C56.124,84.832 55.964,84.832 55.803,84.672L55.642,84.832C55.482,85.314 54.037,87.08 54.679,87.402C55.482,87.883 56.445,86.92 56.606,87.08C55.803,87.241 55.482,87.562 55.161,88.044C54.358,87.883 53.876,87.402 53.234,87.08ZM37.175,61.066C37.175,60.102 37.336,59.46 37.336,58.496C37.497,58.496 37.657,58.496 37.818,58.657C39.584,59.46 41.35,59.942 43.117,60.745C43.278,60.745 43.278,60.745 43.438,60.905C43.438,60.584 43.599,59.46 43.117,59.46C42.956,59.299 42.635,59.299 42.475,59.299L42.153,59.299C42.635,59.299 43.117,59.46 43.438,59.46L43.599,59.621C43.599,60.423 43.599,61.066 43.438,61.869C41.511,61.066 39.584,60.423 37.497,59.46C37.497,60.102 38.299,61.066 38.621,61.226C38.621,61.066 38.621,61.066 38.621,61.226C38.139,61.226 37.657,61.066 37.175,61.066ZM59.015,89.489C59.336,88.847 59.496,88.204 59.818,87.562C59.818,88.044 59.657,88.686 59.657,89.168C59.818,89.65 60.299,89.81 60.621,89.329C61.102,88.847 61.263,88.204 61.102,87.723C60.621,86.277 60.139,85.314 61.263,84.029C62.066,83.226 62.548,84.511 63.029,84.029C62.708,84.672 62.548,85.314 62.226,85.956C62.226,85.314 62.548,84.832 62.226,84.35C61.905,83.226 60.942,84.993 60.942,85.635C61.102,86.117 61.263,86.599 61.423,86.92C61.905,88.044 60.781,91.416 59.496,89.65C59.175,89.168 59.175,89.168 59.015,89.489C59.175,89.168 59.175,88.847 59.015,89.489ZM45.044,57.372C45.044,57.372 45.044,57.533 45.044,57.372C44.883,57.854 44.723,58.015 44.562,58.336L44.562,58.175C44.723,57.854 44.08,57.372 43.759,57.372C42.796,56.891 41.993,56.248 41.029,55.927C40.548,55.606 40.226,55.285 39.745,54.964C38.621,53.358 41.19,53.358 41.993,53.679C43.117,54.161 43.92,54.803 45.044,55.285C45.205,55.445 45.365,55.445 45.686,55.606C45.847,55.766 46.168,55.766 46.329,55.285C46.329,55.445 46.489,55.445 46.329,55.606C46.168,55.927 46.007,56.248 45.686,56.73L45.526,56.73L45.526,56.569C45.686,56.409 45.526,56.248 45.365,56.088L45.205,55.927C44.241,55.445 43.278,54.803 42.314,54.321C41.993,54.161 39.263,53.197 40.066,54.642C40.226,54.964 40.387,55.285 40.708,55.445C41.511,56.248 43.117,56.891 44.241,57.372C44.402,57.533 44.562,57.533 44.723,57.533C44.723,57.694 44.723,57.694 45.044,57.372ZM80.694,86.92C80.372,86.438 79.73,85.796 79.409,86.599C79.088,87.723 79.891,88.044 80.694,88.686C81.657,89.489 81.978,90.453 81.978,91.577C81.818,92.219 81.497,92.38 80.854,92.219C80.533,92.058 80.372,92.058 80.372,92.54C80.212,91.737 79.891,90.453 79.891,90.453C79.891,90.613 80.051,90.774 80.051,90.934C80.212,91.095 80.854,92.38 81.336,92.058C82.299,91.577 81.175,89.81 80.533,89.489C79.57,88.847 78.927,87.723 79.409,86.599C79.73,85.475 80.694,86.759 80.694,85.796C80.694,86.438 80.854,87.241 81.015,87.883C80.854,87.723 80.694,87.08 80.694,86.92ZM88.402,85.635C88.402,85.475 87.92,84.672 87.438,84.832C87.278,84.832 86.956,84.993 86.635,84.993C86.796,85.796 86.956,86.599 87.278,87.402C88.241,87.402 88.241,87.08 88.241,86.277C88.402,87.08 88.562,87.562 88.723,88.365C88.723,88.204 88.08,87.402 87.438,87.402C87.599,88.365 87.759,89.007 88.08,89.81C88.08,89.971 88.241,90.131 88.402,89.971C89.365,89.81 89.365,89.329 89.365,88.526C89.365,89.007 89.365,89.65 89.526,89.971C88.723,90.131 88.241,90.292 87.438,90.613L87.278,90.613C87.759,90.613 87.759,90.453 87.759,90.131C87.599,89.489 87.438,88.847 87.278,88.526C86.956,87.402 86.796,86.438 86.475,85.314C86.475,84.993 86.314,84.832 85.993,84.832C85.993,84.832 85.832,84.672 85.993,84.672C86.475,84.511 87.92,84.19 88.08,84.19C88.241,84.672 88.402,85.635 88.402,85.635ZM38.781,55.124C38.781,55.124 38.942,55.124 38.781,55.124C38.942,55.606 39.263,55.766 39.423,55.927C40.548,56.569 41.35,57.212 42.475,57.854C42.956,58.175 43.599,58.657 43.92,58.978L44.08,59.139C43.759,59.139 43.438,58.978 42.956,58.978C41.35,58.657 39.745,58.336 38.139,58.175C37.818,58.175 37.657,58.175 37.497,58.336L37.497,58.175C37.657,57.854 37.818,57.533 37.818,57.212L37.978,57.051C38.299,57.051 37.978,57.533 38.46,57.533C38.942,57.694 39.423,57.694 39.745,57.854C39.745,57.854 39.905,57.854 39.905,57.694C40.066,57.372 40.226,56.891 40.387,56.569C39.905,56.248 39.423,55.927 39.102,55.766C38.942,55.606 38.781,55.606 38.621,55.766L38.299,55.766C38.46,55.766 38.621,55.445 38.781,55.124ZM40.066,58.015C41.029,58.175 41.672,58.336 42.475,58.496C41.993,57.854 41.19,57.372 40.548,57.051C40.387,57.212 40.226,57.533 40.066,58.015ZM106.708,52.073C106.708,51.912 106.387,51.752 106.708,52.073C106.387,51.752 106.066,51.431 105.745,50.949L105.905,50.949C106.226,51.109 106.548,50.628 106.708,50.628C107.19,49.825 107.672,49.343 107.993,48.54C107.832,48.54 106.708,49.183 106.066,49.504C105.905,49.504 105.745,49.664 105.745,49.664C105.584,49.825 105.423,49.985 105.423,50.307L105.423,50.467L105.263,50.467C105.102,50.146 104.781,49.985 104.46,49.664L104.621,49.664C104.942,49.825 105.102,49.664 105.423,49.664C106.387,49.183 108.153,48.38 108.314,48.38C108.635,48.058 110.241,47.095 109.92,46.453L109.92,46.292C110.241,46.613 110.562,47.095 110.883,47.416C110.723,47.416 110.402,47.256 110.241,47.416C109.438,48.058 108.796,48.54 108.314,49.343C107.993,50.146 106.708,51.591 106.708,52.073ZM77.482,85.796L77.482,87.08C77.482,86.92 77.482,86.759 77.321,86.599C77.161,85.956 76.679,86.117 76.197,86.117L76.197,88.686C77.161,88.686 76.679,88.526 77.321,87.883L77.321,89.971C77,89.329 77.161,89.007 76.197,89.007L76.197,89.168C76.197,89.489 75.876,92.058 76.518,92.058L76.679,92.058C76.358,92.38 75.876,92.219 75.394,92.219L75.234,92.058L75.394,91.898C76.037,91.898 75.715,86.92 75.715,86.117C75.715,85.956 75.555,85.796 75.394,85.635L75.234,85.635L75.394,85.475C76.037,85.796 76.679,85.796 77.482,85.796C77.482,86.117 76.679,85.796 77.482,85.796ZM52.11,84.993C52.591,84.35 55.482,82.102 55,81.299L55,81.139L55.964,81.621C55.642,81.781 53.234,84.19 52.431,85.153L51.146,86.438C51.146,86.277 51.146,86.277 51.307,86.117C51.949,84.511 52.431,82.745 52.913,80.978C53.073,80.657 53.234,80.336 52.913,80.015L52.913,79.854C53.234,80.015 53.555,80.336 54.037,80.496L54.037,80.657L53.876,80.657C53.555,80.657 53.394,80.818 53.234,81.139L52.27,84.029C52.27,84.19 52.11,84.511 52.11,84.993C52.11,84.993 51.949,84.832 52.11,84.993ZM94.986,84.35C94.825,84.029 94.183,83.066 93.861,83.066C93.38,82.745 93.059,82.905 92.737,83.387C92.577,83.869 93.219,86.599 93.861,87.402C94.022,87.723 95.628,88.365 95.788,87.562L95.788,86.759C95.788,87.402 95.628,89.329 94.504,88.526C94.183,88.365 93.861,88.044 93.54,87.723C92.577,86.438 91.613,84.19 92.416,82.584C92.737,81.621 94.022,82.584 93.701,81.781C94.504,83.066 94.825,83.708 94.986,84.35ZM101.569,86.117C101.409,86.117 101.569,86.117 101.569,86.117C101.73,85.475 100.927,84.35 100.767,83.708C100.285,82.584 99.803,81.46 99.161,80.336C99.161,80.175 99,80.175 99.161,80.015L99.321,80.175C100.606,81.299 101.891,82.263 103.015,83.387C103.175,83.548 103.336,83.708 103.496,83.708C103.657,83.869 103.818,83.869 103.978,83.869C103.978,83.869 104.139,83.869 104.139,84.029C103.818,84.35 103.496,84.511 103.175,84.832L103.175,84.672C103.496,84.029 102.372,83.387 101.891,83.226C101.569,83.548 101.248,83.708 100.927,84.029C101.088,84.511 101.409,84.993 101.569,85.314C101.73,85.475 101.891,85.635 102.051,85.475L102.372,85.475C102.051,85.956 101.891,86.117 101.569,86.117ZM99.964,81.46C99.964,81.46 99.964,81.621 99.964,81.46C100.285,82.263 100.606,82.905 101.088,83.708C101.409,83.548 101.73,83.226 101.891,83.066C101.088,82.584 100.445,82.102 99.964,81.46ZM112.007,68.934C111.526,68.934 110.08,69.737 110.402,70.219C110.562,70.38 110.883,70.54 111.044,70.701C111.847,71.183 112.65,71.343 113.613,71.504C114.256,71.504 115.38,71.664 115.861,71.183C116.343,70.701 115.861,69.577 115.219,69.577C115.38,69.577 115.54,69.737 115.701,69.737C116.986,70.38 116.986,71.825 115.38,71.985C113.934,72.146 112.329,71.825 111.204,71.022C110.883,70.861 110.562,70.54 110.402,70.219C110.08,69.737 110.08,69.256 110.562,68.934C110.402,68.934 110.562,68.934 110.723,68.774C110.241,68.774 111.365,68.774 112.007,68.934ZM85.029,89.81C85.029,90.292 85.029,90.774 84.869,91.095C84.387,92.058 83.424,91.577 83.102,90.774C82.139,89.489 81.978,87.723 82.139,86.277C82.139,85.956 82.299,85.635 82.46,85.314C82.781,84.832 83.102,84.832 83.584,85.153C83.905,85.314 83.905,85.314 83.905,84.993L83.905,84.832L84.387,86.759C84.387,86.599 84.387,86.599 84.226,86.438C84.066,86.117 83.905,85.635 83.584,85.475C83.102,84.993 82.621,85.153 82.299,85.796C81.657,86.438 82.46,89.168 82.781,89.81C83.424,90.934 84.708,91.416 84.708,89.65C85.029,89.971 85.029,89.81 85.029,89.81ZM107.029,75.358C107.511,74.555 107.832,73.912 108.314,73.11C108.796,73.27 109.277,73.591 109.599,73.752L109.438,73.752C109.277,73.752 109.277,73.752 109.117,73.591C108.475,73.431 108.314,73.591 107.993,74.234L108.153,74.394C109.438,75.197 110.883,75.839 112.168,76.482C112.329,76.642 112.489,76.642 112.65,76.642C112.81,76.803 112.971,76.803 113.132,76.482L113.292,76.482L113.292,76.642C113.132,76.964 112.971,77.445 112.65,77.766C112.65,77.606 112.489,77.606 112.65,77.606C112.65,77.445 112.65,77.285 112.489,77.124L112.329,76.964C110.883,76.161 109.277,75.358 107.672,74.555C107.511,74.876 107.19,75.037 107.511,75.358C107.672,75.679 107.993,75.839 108.153,76C107.832,75.839 107.35,75.679 107.029,75.358C107.35,75.679 107.35,74.555 107.029,75.358ZM116.183,55.445C116.343,56.248 116.343,56.891 116.504,57.694L116.504,57.854C116.022,57.051 115.219,57.533 114.577,57.533C113.292,57.694 112.329,57.854 111.044,58.175C110.723,58.175 110.241,58.175 110.241,58.818L110.08,58.818C110.08,58.336 109.92,57.854 109.92,57.372C110.08,57.372 110.08,57.533 110.08,57.533C110.241,57.854 110.402,57.854 110.562,57.854C111.204,57.694 111.847,57.694 112.168,57.533L115.059,57.051C115.701,56.891 115.701,56.891 115.701,56.248C115.54,55.606 115.54,55.445 116.183,55.445ZM47.453,83.708C47.774,83.869 47.934,83.708 48.095,83.708L48.416,83.387C49.54,82.102 51.628,79.854 51.628,79.854C51.788,79.694 51.788,79.533 51.628,79.372L51.628,79.212L51.788,79.212C52.11,79.533 52.431,79.694 52.752,80.015L52.752,80.175L52.591,80.175C52.431,80.015 49.861,82.905 49.059,83.869C49.059,84.029 48.737,84.511 48.898,84.672L48.898,84.832L48.737,84.832C48.095,84.19 47.774,83.869 47.453,83.708ZM64.635,85.153C64.314,85.153 64.153,85.153 63.993,85.475C63.672,86.117 61.745,90.453 62.387,90.774C61.905,90.613 61.263,90.292 61.263,90.131C61.745,90.292 61.905,89.971 61.905,89.65C62.548,88.204 63.029,86.599 63.672,85.153C63.832,84.832 63.832,84.672 63.511,84.511L63.511,84.35L63.672,84.35C63.993,84.672 64.314,84.832 64.635,85.153C64.635,85.153 64.635,84.993 64.635,85.153ZM85.511,90.934C85.832,90.774 85.993,90.613 85.832,90.292C85.672,89.168 85.029,84.993 84.387,84.993L84.226,84.832C84.869,84.672 85.511,84.511 85.511,84.672C85.19,84.993 85.19,85.153 85.19,85.635C85.351,86.599 86.153,89.65 86.314,90.292C86.314,90.613 86.475,90.774 86.796,90.774L86.796,91.095C86.475,91.256 85.993,91.256 85.672,91.416C85.672,90.934 85.511,90.934 85.511,90.934Z" style="fill-rule:nonzero;"/>
        </g>
        <g transform="matrix(1.13636,0,0,1.13636,-10.5,6.18744)">
            <path d="M92.898,44.044C92.416,44.044 91.934,44.044 91.453,43.883C90.81,43.562 91.453,42.117 91.453,41.474L91.613,41.314L91.774,41.474C91.774,41.956 91.774,42.598 92.095,43.08C92.095,43.241 92.898,43.883 92.898,44.044C92.898,44.044 92.416,44.044 92.898,44.044Z" style="fill:rgb(224,11,34);fill-rule:nonzero;"/>
        </g>
        <g transform="matrix(1.13636,0,0,1.13636,-10.5,6.18744)">
            <path d="M70.095,78.248C70.255,77.606 70.255,77.124 70.416,76.642C70.416,76.482 70.576,76.482 70.737,76.482C70.576,76.964 70.576,77.445 70.416,77.927C70.416,78.248 70.255,78.569 70.255,78.73C70.255,78.891 70.095,78.891 70.095,78.891L69.934,78.73C69.773,78.248 69.773,77.606 69.613,77.124C69.613,77.445 69.452,77.766 69.452,78.088C69.452,78.409 69.292,78.569 69.292,78.891L69.131,78.891C69.131,78.891 68.971,78.891 68.971,78.73C68.81,77.927 68.649,77.285 68.489,76.321C68.649,76.161 68.81,76.321 68.81,76.482C68.971,76.964 68.971,77.445 69.131,77.766C69.131,77.927 69.131,77.927 69.292,78.088C69.452,77.445 69.452,76.964 69.613,76.482C69.613,76.321 69.773,76.321 69.773,76.321L69.934,76.482C69.934,77.124 69.934,77.766 70.095,78.248ZM77.321,76.482L77.321,78.891C77.16,79.051 77.16,78.891 77,78.73C76.679,78.088 76.518,77.445 76.197,76.964L76.197,78.891L76.036,79.051L75.876,79.051L75.876,76.642C76.036,76.642 76.197,76.642 76.357,76.803C76.518,77.285 76.839,77.927 77.16,78.248L77.16,77.606C77.16,77.285 77.16,76.964 77.321,76.482C77.16,76.482 77,76.482 77.321,76.482ZM83.584,79.051C83.102,78.248 82.781,77.766 82.46,77.124L82.46,78.891C82.46,78.891 82.46,79.051 82.299,79.051L82.138,78.891L82.138,76.642C82.299,76.482 82.46,76.642 82.62,76.803C82.781,77.445 83.102,77.927 83.423,78.248L83.423,76.482L83.584,76.642L83.584,79.051ZM79.89,76.482C80.051,76.482 80.211,76.482 80.211,76.642L80.211,77.285C80.211,77.445 80.211,77.606 80.372,77.445L81.014,77.445L81.014,76.321L81.336,76.321L81.336,78.73C81.336,78.891 81.336,79.051 81.014,78.891L81.014,77.766L80.211,77.766L80.051,77.927L80.051,78.891L79.89,78.891L79.73,78.73C79.89,78.088 79.89,77.285 79.89,76.482ZM72.825,76.482L73.146,76.482L73.146,77.285C73.146,77.445 73.146,77.606 73.467,77.445L74.109,77.445L74.109,76.321C74.27,76.321 74.43,76.321 74.43,76.482L74.43,78.569C74.43,78.73 74.43,78.73 74.109,78.73L74.109,77.606L73.146,77.606L73.146,78.569C73.146,78.73 73.146,78.891 72.825,78.73L72.825,76.482ZM72.022,76.482L72.343,76.482L72.343,78.248C72.343,78.73 72.022,78.891 71.7,78.891C71.379,78.891 71.058,78.73 71.058,78.248L71.058,76.321L71.219,76.321L71.219,78.248C71.219,78.409 71.379,78.569 71.7,78.569C71.861,78.569 72.022,78.409 72.182,78.248L72.182,77.766C72.022,77.445 72.022,76.964 72.022,76.482Z" style="fill:rgb(19,45,129);fill-rule:nonzero;"/>
        </g>
        <g transform="matrix(1.13636,0,0,1.13636,-10.5,6.18744)">
            <path d="M75.876,79.051C75.715,79.051 75.555,79.051 75.555,78.89L75.555,78.73C75.555,78.409 75.394,78.409 75.073,78.409C74.752,78.409 74.591,78.569 74.591,78.73C74.591,78.89 74.591,79.212 74.27,79.051C74.43,78.248 74.591,77.445 74.912,76.642L75.233,76.642C75.394,77.285 75.555,78.088 75.876,79.051ZM75.394,78.088C75.233,77.606 75.233,77.285 75.073,76.803C74.912,77.285 74.912,77.606 74.752,78.088L75.394,78.088ZM85.35,79.051C85.19,79.051 85.029,79.051 85.029,78.89L85.029,78.569C85.029,78.248 84.868,78.248 84.708,78.248C84.226,78.248 84.387,78.248 84.226,78.73C84.226,79.051 84.226,79.051 83.905,79.051C84.065,78.409 84.226,77.927 84.226,77.445C84.226,77.285 84.387,76.963 84.387,76.803L84.547,76.642L84.708,76.803C85.029,77.445 85.19,78.248 85.35,79.051ZM84.868,78.088C84.868,77.606 84.708,77.124 84.708,76.803C84.547,77.285 84.547,77.606 84.387,78.088L84.868,78.088ZM79.248,77.124C79.087,76.803 79.087,76.642 78.766,76.642C78.445,76.642 78.445,76.963 78.284,77.124L78.284,78.248C78.284,78.409 78.445,78.73 78.766,78.73C79.087,78.73 79.087,78.569 79.248,78.409L79.248,78.248C79.409,78.248 79.409,78.248 79.409,78.409C79.248,78.73 79.087,79.051 78.766,79.051C78.445,79.051 78.284,78.89 78.124,78.569C77.963,77.927 77.963,77.445 78.124,76.963C78.284,76.642 78.445,76.482 78.766,76.482C79.087,76.482 79.248,76.642 79.248,76.963C79.569,77.124 79.569,77.124 79.248,77.124ZM81.657,76.482C81.817,77.285 81.817,78.088 81.817,78.89L81.657,78.89L81.657,76.482ZM60.781,73.912L61.102,73.591L61.102,74.073C61.102,74.073 60.941,73.912 60.781,73.912ZM91.613,73.912C91.613,74.073 91.774,74.394 91.452,74.555L91.292,74.394C91.292,74.073 91.292,73.912 91.613,73.912ZM91.452,72.949L91.774,72.628L91.934,72.467C91.934,72.949 91.774,72.949 91.452,72.949C91.452,72.949 91.292,72.949 91.452,72.949Z" style="fill:rgb(19,45,129);fill-rule:nonzero;"/>
        </g>
        <g transform="matrix(1.13636,0,0,1.13636,-10.5,6.18744)">
            <path d="M75.394,78.088L74.752,78.088C74.913,77.606 74.913,77.285 75.073,76.803C75.234,77.124 75.234,77.606 75.394,78.088ZM84.869,78.088L84.226,78.088C84.387,77.606 84.387,77.285 84.548,76.803C84.708,77.124 84.869,77.606 84.869,78.088Z" style="fill:white;fill-rule:nonzero;"/>
        </g>
        <g transform="matrix(1.13636,0,0,1.13636,-10.5,6.18744)">
            <path d="M88.08,73.591C88.08,73.11 88.08,72.949 87.759,73.11C87.438,73.11 87.277,73.431 86.956,73.431C86.956,73.27 87.117,73.11 87.117,73.11C87.438,72.788 87.599,72.949 88.08,72.949C88.08,72.949 88.08,72.788 88.241,72.788L88.08,72.628C87.92,72.628 87.92,72.628 87.759,72.467C88.08,72.146 88.08,72.146 87.759,71.986C87.117,72.788 86.475,73.431 86.153,74.073C86.635,73.752 87.277,73.591 87.599,73.27L87.599,73.431C87.599,73.591 87.438,73.591 87.438,73.752L87.277,73.591L87.117,73.591C87.117,74.555 86.796,74.876 88.08,74.876C88.08,74.555 87.92,74.394 87.92,74.073L87.759,74.073C87.759,74.234 87.759,74.876 87.438,74.555C87.277,74.555 87.277,74.073 87.277,73.913C87.92,74.073 88.08,74.073 88.08,73.591ZM89.365,71.664C89.365,72.146 89.526,75.037 89.044,74.876C88.883,74.876 88.723,74.715 88.562,74.715C88.562,74.876 88.723,75.037 88.883,75.037C90.489,76.642 89.847,72.949 89.847,72.307L89.847,72.146C89.847,71.664 89.686,71.664 89.365,71.664C89.686,71.664 89.365,71.664 89.365,71.664Z" style="fill:white;fill-rule:nonzero;"/>
        </g>
        <g transform="matrix(1.13636,0,0,1.13636,-10.5,6.18744)">
            <path d="M88.562,72.788L88.562,73.591L88.723,73.752L88.883,73.591L88.883,73.27C88.883,72.788 88.883,72.788 88.562,72.788C88.883,72.788 88.562,73.11 88.562,72.788Z" style="fill:white;fill-rule:nonzero;"/>
        </g>
        <g transform="matrix(1.13636,0,0,1.13636,-10.5,6.18744)">
            <path d="M93.058,73.431C92.898,73.431 93.058,74.073 93.058,73.431Z" style="fill:white;fill-rule:nonzero;"/>
        </g>
        <g transform="matrix(1.13636,0,0,1.13636,-10.5,6.18744)">
            <path d="M93.861,72.788C93.861,72.788 93.701,72.628 93.54,72.788C93.219,72.788 93.058,72.949 92.737,72.949L92.576,72.949C92.576,72.628 92.737,72.628 92.897,72.467C93.058,72.467 93.219,72.467 93.219,72.306C93.219,72.306 93.379,72.146 93.379,71.985C93.058,71.985 92.576,71.664 92.255,72.146L92.095,72.306C91.773,72.306 91.452,72.467 91.131,72.628C91.131,72.788 91.131,72.788 91.292,72.949C91.292,72.949 91.452,72.949 91.613,72.788C91.613,72.949 91.452,72.949 91.452,73.109L91.452,72.949L91.292,73.109L91.131,73.27L91.292,73.431L91.613,73.431L91.613,73.591C91.292,73.752 90.81,73.912 90.489,73.912C90.649,74.394 90.81,73.912 91.131,74.073C90.971,74.233 90.971,74.394 90.81,74.555L91.131,74.555C91.131,74.555 91.131,74.394 91.292,74.394C91.613,74.715 92.095,74.876 92.095,74.233C92.255,74.233 92.255,74.073 92.416,74.073L92.255,73.912C92.416,73.912 92.576,73.431 92.576,73.431L92.576,73.27C92.897,73.431 93.058,73.27 93.379,73.27C93.379,73.431 93.379,75.197 93.54,75.036C93.861,74.555 93.219,72.628 94.343,72.949C94.022,72.949 93.861,72.788 93.861,72.788Z" style="fill:white;fill-rule:nonzero;"/>
        </g>
        <g transform="matrix(1.13636,0,0,1.13636,-10.5,6.18744)">
            <path d="M91.934,71.343C91.453,71.664 91.613,71.825 91.934,72.146C92.095,72.146 92.256,72.146 92.095,71.985C92.095,71.664 92.095,71.504 91.934,71.343C92.095,71.504 91.613,71.504 91.934,71.343Z" style="fill:white;fill-rule:nonzero;"/>
        </g>
        <g transform="matrix(1.13636,0,0,1.13636,-10.5,6.18744)">
            <path d="M82.299,74.876C82.299,74.715 82.138,74.715 82.138,74.555C81.978,74.394 81.657,74.394 81.496,74.394C81.014,74.234 80.854,73.913 80.533,73.591C80.854,73.431 81.014,73.27 81.336,73.11C81.336,72.628 80.693,73.27 80.533,73.27L80.372,73.27L80.372,72.949L80.533,72.788C80.693,72.788 80.854,72.628 81.014,72.628C80.854,72.307 80.854,72.307 80.372,72.307C80.372,71.986 80.372,71.664 80.533,71.183C80.533,71.183 80.372,71.183 80.211,71.022C80.211,71.825 80.372,72.146 79.409,72.307L78.927,72.307C79.087,72.788 79.087,72.788 79.409,72.628C79.569,72.628 79.73,72.628 80.051,72.467C80.051,73.27 80.372,74.234 79.409,74.234L79.409,74.394C79.73,74.555 80.211,74.876 80.533,75.037L80.533,73.591C80.854,73.752 81.175,73.913 81.336,74.234L81.496,74.394C81.657,75.037 81.978,74.876 82.299,74.876Z" style="fill:white;fill-rule:nonzero;"/>
        </g>
        <g transform="matrix(1.13636,0,0,1.13636,-10.5,6.18744)">
            <path d="M79.248,73.431C79.087,73.431 79.087,73.431 79.248,73.431C78.766,73.912 79.569,74.073 79.89,73.912C79.569,73.591 79.409,73.431 79.248,73.431Z" style="fill:white;fill-rule:nonzero;"/>
        </g>
        <g transform="matrix(1.13636,0,0,1.13636,-10.5,6.18744)">
            <path d="M79.73,73.912L78.606,75.036L78.445,74.876L78.445,74.715C79.088,74.394 79.409,74.073 79.73,73.912ZM81.015,71.985C81.175,72.146 81.336,72.146 81.496,72.307C81.496,72.307 81.496,72.467 81.657,72.467L81.496,72.467C81.015,72.628 80.854,72.467 81.015,71.985C81.175,72.146 80.854,72.467 81.015,71.985Z" style="fill:white;fill-rule:nonzero;"/>
        </g>
        <g transform="matrix(1.13636,0,0,1.13636,-10.5,6.18744)">
            <path d="M85.029,72.949C85.029,72.467 85.19,72.788 85.029,72.949Z" style="fill:white;fill-rule:nonzero;"/>
        </g>
        <g transform="matrix(1.13636,0,0,1.13636,-10.5,6.18744)">
            <path d="M85.993,74.876C85.511,74.716 85.029,74.555 84.708,74.394C83.905,74.394 84.869,73.913 84.869,73.752C85.029,73.752 85.029,73.591 85.029,73.591C84.869,73.431 84.708,73.431 84.387,73.431L84.387,73.27C84.708,73.27 85.832,72.628 85.029,72.628C85.19,72.628 85.029,72.789 84.869,72.789C84.869,72.146 85.511,71.183 84.387,71.343C83.584,71.504 82.942,71.664 83.584,72.628C83.584,72.949 83.745,72.949 83.905,72.789C84.226,72.628 84.226,72.628 84.548,72.949C83.905,73.11 83.263,73.27 82.781,73.431C82.781,73.431 82.621,73.431 82.621,73.591L82.621,73.752L82.781,73.752C83.102,73.752 83.263,73.591 83.584,73.591L83.584,73.752C83.263,74.234 82.942,74.555 82.299,74.876C82.781,75.037 83.263,74.876 83.423,74.555C83.423,74.394 83.584,74.394 83.745,74.394C84.066,74.555 84.548,74.716 84.869,74.876C85.029,74.876 85.029,75.037 85.19,75.197L85.35,75.358C85.832,75.358 86.475,75.518 86.635,75.197L86.635,75.037C86.314,75.037 86.153,74.876 85.993,74.876ZM84.066,72.307L84.548,71.825C84.387,71.825 84.387,71.825 84.226,71.664L84.066,71.664C84.226,71.664 84.387,71.504 84.548,71.504C84.548,71.825 84.708,72.146 84.708,72.467C84.548,72.467 84.387,72.307 84.066,72.307ZM84.226,74.073C84.066,73.913 83.905,73.913 83.905,73.591L84.066,73.431L84.226,73.591L84.226,74.073Z" style="fill:white;fill-rule:nonzero;"/>
        </g>
        <g transform="matrix(1.13636,0,0,1.13636,-10.5,6.18744)">
            <path d="M61.744,72.146C61.744,72.628 61.744,73.11 61.584,73.431C61.584,73.752 61.423,73.913 61.263,74.234C61.102,74.394 61.102,74.555 60.941,74.716C61.423,74.716 61.584,74.555 61.744,74.394C61.905,73.913 62.065,73.431 62.547,73.27L62.708,73.11C62.708,73.11 62.547,73.11 62.547,72.949L62.226,72.949C62.226,72.628 62.387,72.628 62.547,72.467C62.547,72.467 62.547,72.307 62.708,72.307L62.387,72.307L62.387,72.146C62.387,71.986 62.547,71.825 62.708,71.825C62.387,71.986 62.226,71.986 61.744,72.146ZM61.263,71.986C60.781,71.825 60.46,71.986 59.978,72.146L59.817,72.307C59.817,72.789 60.138,73.752 59.335,73.913C59.817,74.394 60.299,73.752 60.62,73.431C60.62,73.27 60.62,73.11 60.781,72.949C60.941,72.949 60.941,72.789 60.781,72.628L60.62,72.467C60.62,72.307 60.781,72.146 60.781,72.146C61.102,72.146 60.941,73.11 60.781,73.27C60.781,73.27 60.62,73.27 60.62,73.431L61.102,73.913C61.263,73.27 61.263,72.789 61.263,71.986C61.423,71.986 61.423,71.986 61.263,71.986Z" style="fill:white;fill-rule:nonzero;"/>
        </g>
        <g transform="matrix(1.13636,0,0,1.13636,-10.5,6.18744)">
            <path d="M63.19,71.825L62.708,71.825L62.868,71.986C63.029,72.307 62.868,72.949 62.868,73.431C62.868,74.234 63.029,74.555 62.065,74.555L62.065,74.716C62.387,74.876 62.868,75.037 63.19,75.197C63.19,74.073 63.029,72.949 63.19,71.825ZM62.708,71.986C62.708,71.825 62.708,71.986 62.708,71.986C62.708,71.825 62.708,71.825 62.708,71.986Z" style="fill:white;fill-rule:nonzero;"/>
        </g>
        <g transform="matrix(1.13636,0,0,1.13636,-10.5,6.18744)">
            <path d="M68.81,74.073C68.81,74.233 68.971,74.233 69.131,74.233C69.452,74.073 69.934,74.073 70.255,73.912L70.255,74.233C70.255,74.715 69.934,74.715 69.452,74.715C69.774,75.036 70.095,75.197 70.416,75.197L70.577,75.036C70.577,74.555 70.898,73.431 71.701,74.073L71.861,74.073C71.861,73.431 71.058,73.591 70.577,73.591L70.577,73.431C70.737,73.431 70.737,73.27 70.898,73.27C71.219,72.949 70.577,72.788 70.416,72.949C70.095,73.109 69.613,73.109 69.292,73.27C69.613,73.752 70.095,73.109 70.577,73.109C70.577,73.591 70.095,73.27 70.095,73.752C69.934,73.912 69.292,74.073 68.81,74.073Z" style="fill:white;fill-rule:nonzero;"/>
        </g>
        <g transform="matrix(1.13636,0,0,1.13636,-10.5,6.18744)">
            <path d="M69.453,72.146C69.453,71.825 70.577,71.664 70.737,71.664C70.737,71.343 70.255,71.343 69.934,71.664C69.774,71.664 69.613,71.825 69.453,71.664C69.131,71.504 69.131,71.664 69.131,71.985C68.971,72.949 68.65,73.752 68.007,74.555C67.847,74.555 67.686,74.555 67.686,74.715C67.847,74.715 68.489,74.555 68.489,74.234C68.65,73.752 68.971,73.11 69.131,72.628C69.131,72.788 69.292,72.788 69.292,72.949C69.453,73.431 69.453,73.431 69.934,73.27C70.095,73.27 70.416,73.11 70.577,73.27C70.737,73.27 70.737,73.27 70.898,73.11C71.058,72.788 71.058,72.628 71.219,72.307C70.577,71.664 69.934,72.146 69.453,72.146ZM70.577,72.467C70.577,72.628 70.577,72.628 70.577,72.467C70.416,72.628 69.613,72.949 69.613,72.628C69.613,72.307 69.774,72.146 70.255,72.146C70.577,71.985 70.737,72.146 70.577,72.467Z" style="fill:white;fill-rule:nonzero;"/>
        </g>
        <g transform="matrix(1.13636,0,0,1.13636,-10.5,6.18744)">
            <path d="M69.934,72.467C70.095,72.628 70.255,72.628 70.416,72.628C70.255,72.467 70.255,72.467 70.416,72.307C70.416,72.307 70.095,72.307 69.934,72.467Z" style="fill:white;fill-rule:nonzero;"/>
        </g>
        <g transform="matrix(1.13636,0,0,1.13636,-10.5,6.18744)">
            <path d="M64.474,73.752L64.474,74.073C64.474,74.394 64.314,74.555 64.635,74.715C64.635,74.394 64.956,73.912 64.956,73.431L64.956,72.788L65.117,72.628C65.277,72.467 65.277,72.307 65.117,72.307C64.956,72.146 64.153,73.431 63.993,73.591C63.993,73.752 63.832,73.752 63.832,73.912L64.474,73.752ZM66.883,73.752C66.883,73.752 66.883,73.912 66.883,73.752C67.044,74.073 67.204,74.234 67.365,74.234L67.686,74.234C67.847,74.073 67.686,73.912 67.525,73.752L66.883,73.752Z" style="fill:white;fill-rule:nonzero;"/>
        </g>
        <g transform="matrix(1.13636,0,0,1.13636,-10.5,6.18744)">
            <path d="M66.241,72.307C66.401,72.146 66.883,72.146 67.204,72.146C67.204,71.985 67.204,71.985 67.044,71.985L66.401,71.985L66.401,71.504C66.401,71.504 66.401,71.343 66.241,71.343L66.08,71.504C66.08,71.985 65.759,72.307 65.277,72.307L65.92,72.467C65.759,72.467 65.599,72.628 65.599,72.628C65.277,72.788 65.277,72.788 65.438,73.109C65.438,73.109 65.438,73.27 65.599,73.27C65.92,73.591 66.241,73.109 66.723,73.431C66.723,73.431 66.883,73.431 67.044,73.27C67.204,72.949 67.365,72.788 67.525,72.467C66.883,72.307 66.401,72.307 66.241,72.307ZM66.241,73.109C66.241,72.949 66.401,72.788 66.401,72.467C66.723,72.788 66.562,72.949 66.241,73.109Z" style="fill:white;fill-rule:nonzero;"/>
        </g>
        <g transform="matrix(1.13636,0,0,1.13636,-10.5,6.18744)">
            <path d="M65.92,72.467C65.277,72.307 65.759,72.467 65.92,72.467ZM66.401,73.752C65.92,73.27 65.598,73.591 65.117,73.591C65.277,73.752 64.956,74.234 64.795,74.394C64.795,74.555 64.956,74.555 65.117,74.555C65.277,74.234 65.277,74.073 65.438,73.912C65.598,74.073 65.438,74.555 65.759,74.715C65.92,74.876 67.204,75.037 67.204,74.715C67.204,74.555 66.562,73.752 66.401,73.752ZM66.241,73.912C66.241,74.073 66.08,74.073 65.92,73.912L66.241,73.912ZM66.562,74.394C66.08,74.715 65.759,74.394 65.759,74.073L65.759,73.912C65.92,74.073 65.92,74.234 66.08,74.394C66.241,74.394 66.401,74.234 66.562,74.234C66.562,74.234 66.722,74.394 66.562,74.394Z" style="fill:white;fill-rule:nonzero;"/>
        </g>
        <g transform="matrix(1.13636,0,0,1.13636,-10.5,6.18744)">
            <path d="M73.146,74.876C74.27,76 73.788,73.752 74.752,73.752C76.037,73.752 74.109,73.11 74.109,73.11C74.591,72.628 75.073,72.788 75.394,72.628C75.234,72.307 75.073,72.146 74.752,71.985C74.591,71.825 74.27,71.825 73.949,71.664C74.109,71.504 74.431,71.343 74.591,71.022C74.27,70.701 74.27,70.701 74.109,71.022C73.949,71.183 73.788,71.504 73.467,71.825L72.504,72.307L72.343,72.467L72.504,72.467C72.664,72.467 72.825,72.467 73.146,72.307C73.628,72.146 74.109,72.146 74.431,71.985C74.591,71.985 74.752,72.146 74.752,72.146C74.752,72.467 74.431,72.788 74.109,72.467C73.949,72.467 73.788,72.307 73.628,72.307C73.146,72.467 72.825,72.467 72.343,72.628C72.504,72.949 72.504,72.949 72.825,72.788C72.985,72.628 73.307,72.467 73.467,72.467L73.628,72.467C73.628,72.788 73.467,72.788 73.146,72.949C73.146,73.27 73.146,73.27 72.825,73.27C72.504,73.431 72.022,73.431 71.701,73.591C71.701,73.752 71.701,73.752 71.861,73.752C72.825,74.073 73.146,74.073 73.467,73.912C73.788,74.234 73.788,74.876 73.146,74.876Z" style="fill:white;fill-rule:nonzero;"/>
        </g>
        <g transform="matrix(1.13636,0,0,1.13636,-10.5,6.18744)">
            <path d="M73.146,72.307L73.467,72.307C73.307,72.146 73.307,71.985 73.146,71.825L72.825,71.825C72.664,72.146 72.825,72.307 73.146,72.307ZM72.504,72.949C72.343,72.949 72.183,73.11 72.022,73.27C72.183,73.431 72.343,73.431 72.504,73.431L72.504,72.949C72.504,73.11 72.183,73.11 72.504,72.949ZM73.949,71.504C73.628,71.664 73.467,71.664 73.307,71.664L73.628,71.985L73.788,71.985C73.788,71.825 73.949,71.664 73.949,71.504C73.949,71.664 73.628,71.664 73.949,71.504Z" style="fill:white;fill-rule:nonzero;"/>
        </g>
        <g transform="matrix(1.13636,0,0,1.13636,-10.5,6.18744)">
            <path d="M99,55.767C96.913,52.555 94.183,50.307 90.81,48.54C90.81,48.38 90.65,48.38 90.489,48.38L63.511,48.38C63.35,48.38 63.19,48.54 63.029,48.54C60.139,49.986 57.73,52.073 55.803,54.642C53.876,57.212 52.752,59.942 52.431,62.993C52.11,65.883 52.752,68.453 53.876,70.861C53.876,71.022 54.037,71.022 54.197,71.022L99.161,71.022C99.482,71.022 99.482,71.022 99.643,70.861C100.927,68.292 101.248,65.562 101.088,62.832C101.248,60.263 100.285,57.854 99,55.767ZM61.584,66.044C62.226,63.956 62.869,62.029 63.19,59.942C63.19,59.781 63.35,59.621 63.511,59.621L65.438,59.621C65.117,60.905 64.796,62.35 64.475,63.635C64.796,63.635 65.278,63.635 65.438,63.796C65.759,62.511 66.241,61.066 66.562,59.781L66.723,59.781C67.365,59.781 68.168,59.781 68.971,59.942L69.132,59.942C68.81,60.584 68.65,61.226 68.489,61.869C68.007,63.314 67.686,64.759 67.205,66.205C67.205,66.205 67.205,66.365 67.044,66.365L66.883,66.365C66.241,66.365 65.599,66.205 64.635,66.205C64.796,65.723 64.956,65.08 65.278,64.759L64.153,64.759L64.314,64.759C64.153,65.08 63.993,65.562 63.832,66.044L63.672,66.205L63.511,66.205C63.029,66.205 62.387,66.205 61.584,66.044C61.745,66.205 61.745,66.205 61.584,66.044ZM93.54,54.964C92.737,56.73 91.774,58.336 90.007,59.139C89.526,59.46 88.883,59.621 88.402,59.621L88.081,59.621C87.759,59.781 87.599,60.102 87.599,60.263C87.278,61.387 86.956,62.35 86.635,63.475C86.153,64.92 85.672,66.526 85.351,67.81C85.351,67.971 85.19,67.971 85.029,68.132C85.029,68.292 84.869,68.292 84.708,68.292C83.905,68.132 83.102,68.132 82.299,68.132L81.978,68.132C82.781,65.402 83.584,62.672 84.387,59.781C83.263,59.781 82.46,59.621 81.497,59.621C81.978,58.978 82.621,58.336 83.102,58.175C83.102,58.175 83.263,58.175 83.424,58.015L84.387,58.015C85.993,57.854 89.044,58.015 90.007,57.694C90.007,57.533 89.847,57.372 89.686,57.212C89.526,57.051 89.365,56.891 89.205,56.891C87.117,56.088 85.029,55.445 82.781,54.803C80.854,54.161 78.767,53.84 76.679,53.518C75.394,53.197 73.789,53.037 72.504,52.876L72.022,52.876C71.219,53.037 70.416,53.358 71.059,54C71.862,55.124 72.825,55.767 73.949,56.409C74.752,56.891 75.555,57.212 76.358,57.694C77.482,58.336 78.927,59.621 79.57,60.745C79.891,61.066 80.212,61.226 80.533,61.226L80.694,61.226C81.497,61.708 83.102,63.153 82.621,64.277C82.299,65.723 81.336,67.007 80.372,67.971C80.212,67.971 80.051,68.132 80.051,68.132C80.051,68.292 79.891,68.292 79.73,68.292L58.372,68.292C58.533,67.971 58.694,67.971 58.533,67.971C59.496,67.007 61.263,66.847 62.548,67.168C64.475,67.65 67.044,67.329 69.132,67.168C70.737,67.007 72.504,66.847 74.11,66.526L69.292,66.526C69.453,66.044 69.453,65.562 69.613,65.241C70.095,63.635 70.416,61.869 70.898,60.263C70.898,59.942 71.059,59.942 71.219,59.942L73.307,59.942C72.825,61.869 72.183,63.635 71.862,65.562L72.986,65.562C73.146,65.562 73.146,65.402 73.146,65.241C73.467,63.956 73.949,62.511 74.27,61.226C74.431,60.905 74.431,60.423 74.591,60.102C74.591,59.942 74.591,59.942 74.752,59.942L76.679,59.942C76.358,60.905 76.197,61.548 76.197,62.832C75.876,63.956 75.394,65.241 75.234,66.365C75.555,66.205 76.037,66.205 76.358,66.044C76.518,65.883 76.679,65.883 76.84,65.723C77.482,65.241 77.964,64.599 78.285,64.117C78.767,63.314 78.927,62.672 78.767,61.869C78.767,61.708 78.767,61.548 78.606,61.387C77.964,60.263 77.161,59.781 75.876,59.299C75.234,58.978 74.591,58.818 73.789,58.496C71.54,57.694 69.613,56.569 67.847,54.964C67.686,54.803 67.686,54.642 67.847,54.482C68.007,54.161 68.329,54 68.65,53.84C68.971,53.518 69.453,53.518 69.935,53.518C70.416,53.518 71.059,53.197 71.54,53.197C71.862,52.876 72.183,52.715 72.504,52.555C75.555,50.788 80.212,50.788 83.584,51.11C86.475,51.27 89.205,51.752 91.935,52.394C93.059,52.876 93.701,53.518 94.022,54.482C93.54,54.482 93.54,54.803 93.54,54.964Z" style="fill:white;fill-rule:nonzero;"/>
        </g>
        <g transform="matrix(1.13636,0,0,1.13636,-10.5,6.18744)">
            <path d="M77,32C52.752,32 33,46.131 33,63.635C33,81.139 52.752,95.27 77,95.27C101.248,95.27 121,80.978 121,63.475C121,46.131 101.248,32 77,32ZM77,93.825C53.715,93.825 34.927,80.336 34.927,63.475C34.927,46.774 53.876,33.124 77.161,33.124C100.445,33.124 119.394,46.774 119.394,63.475C119.234,80.336 100.285,93.825 77,93.825Z" style="fill:rgb(19,45,129);fill-rule:nonzero;"/>
        </g>
        <g transform="matrix(1.13636,0,0,1.13636,-10.5,6.18744)">
            <path d="M39.905,65.562C37.978,65.562 36.533,66.204 36.533,67.007C36.533,67.81 37.978,68.453 39.905,68.453C41.832,68.453 43.277,67.81 43.277,67.007C43.277,66.204 41.832,65.562 39.905,65.562ZM39.905,67.971C38.299,67.971 37.015,67.489 37.015,66.847C37.015,66.204 38.299,65.723 39.905,65.723C41.511,65.723 42.795,66.204 42.795,66.847C42.795,67.489 41.511,67.971 39.905,67.971ZM74.752,89.007C74.752,87.08 74.109,85.635 73.306,85.635C72.504,85.635 71.861,87.08 71.861,89.007C71.861,90.934 72.504,92.38 73.306,92.38C74.109,92.38 74.752,90.774 74.752,89.007ZM72.182,89.007C72.182,87.402 72.664,86.117 73.306,86.117C73.949,86.117 74.431,87.402 74.431,89.007C74.431,90.613 73.949,91.898 73.306,91.898C72.664,91.898 72.182,90.453 72.182,89.007ZM113.613,58.657C111.686,58.657 110.241,59.299 110.241,60.102C110.241,60.905 111.686,61.548 113.613,61.548C115.54,61.548 116.985,60.905 116.985,60.102C116.985,59.299 115.54,58.657 113.613,58.657ZM113.613,61.226C112.007,61.226 110.722,60.745 110.722,60.102C110.722,59.46 112.007,58.978 113.613,58.978C115.219,58.978 116.504,59.46 116.504,60.102C116.504,60.745 115.219,61.226 113.613,61.226ZM111.365,53.679C109.598,54.482 108.474,55.767 108.956,56.409C109.277,57.212 110.883,57.051 112.65,56.248C114.416,55.445 115.54,54.161 115.058,53.518C114.737,52.876 113.131,52.876 111.365,53.679ZM112.489,55.927C111.044,56.569 109.598,56.73 109.438,56.248C109.277,55.767 110.241,54.803 111.686,54C113.131,53.358 114.577,53.197 114.737,53.679C114.898,54.161 113.934,55.285 112.489,55.927Z" style="fill-rule:nonzero;"/>
        </g>
    </g>
</svg>
