<?xml version="1.0" encoding="UTF-8" standalone="no"?>
<!DOCTYPE svg PUBLIC "-//W3C//DTD SVG 1.1//EN" "http://www.w3.org/Graphics/SVG/1.1/DTD/svg11.dtd">
<svg width="100%" height="100%" viewBox="0 0 154 157" version="1.1" xmlns="http://www.w3.org/2000/svg" xmlns:xlink="http://www.w3.org/1999/xlink" xml:space="preserve" xmlns:serif="http://www.serif.com/" style="fill-rule:evenodd;clip-rule:evenodd;stroke-linejoin:round;stroke-miterlimit:2;">
    <g>
        <g transform="matrix(3.36653,0,0,3.36653,-63.8962,-136.46)">
            <path d="M30.801,60.62L31.126,61.446L31.939,61.091L31.585,61.904L32.41,62.228L31.585,62.553L31.939,63.364L31.126,63.011L30.801,63.836L30.478,63.011L29.664,63.364L30.019,62.551L29.194,62.228L30.019,61.904L29.664,61.091L30.478,61.446L30.801,60.62ZM52.946,60.62L53.27,61.446L54.083,61.091L53.728,61.904L54.553,62.228L53.728,62.553L54.083,63.364L53.27,63.011L52.946,63.836L52.621,63.011L51.81,63.364L52.163,62.551L51.337,62.228L52.163,61.904L51.81,61.091L52.621,61.446L52.946,60.62Z" style="fill:rgb(44,53,99);"/>
        </g>
        <g transform="matrix(3.36653,0,0,3.36653,-63.8962,-136.46)">
            <path d="M51.463,55.571C51.465,55.519 51.461,55.456 51.448,55.388C51.441,55.327 51.422,55.287 51.39,55.268C51.356,55.25 51.328,55.26 51.306,55.298C51.295,55.329 51.279,55.364 51.252,55.401C51.239,55.436 51.208,55.469 51.16,55.5C51.089,55.545 51.01,55.593 50.928,55.646C50.725,55.772 50.526,55.881 50.332,55.971C50.136,56.063 49.949,56.133 49.772,56.183C49.53,56.249 49.297,56.288 49.07,56.3C48.943,56.314 48.817,56.323 48.697,56.329C48.67,56.328 48.651,56.332 48.635,56.336C48.608,56.347 48.606,56.363 48.625,56.385C48.644,56.404 48.683,56.419 48.742,56.428C48.806,56.44 48.868,56.446 48.93,56.445C49.132,56.473 49.354,56.466 49.602,56.42C49.812,56.382 50.031,56.32 50.258,56.231C50.504,56.133 50.74,56.02 50.964,55.89C51.05,55.836 51.134,55.789 51.216,55.75C51.261,55.724 51.309,55.702 51.359,55.683C51.378,55.68 51.391,55.676 51.401,55.671C51.41,55.695 51.419,55.719 51.428,55.743C51.456,55.807 51.501,55.865 51.566,55.92C51.837,56.171 52.114,56.426 52.395,56.688C52.525,56.805 52.608,56.867 52.643,56.875C52.672,56.883 52.693,56.875 52.703,56.854C52.718,56.82 52.712,56.77 52.684,56.704C52.654,56.635 52.605,56.578 52.541,56.533C52.372,56.414 52.201,56.283 52.03,56.138C51.849,55.977 51.667,55.792 51.483,55.582C51.478,55.576 51.471,55.571 51.463,55.571ZM44.163,52.568C44.174,52.571 44.187,52.574 44.199,52.575C44.297,52.577 44.449,52.599 44.655,52.641C44.655,52.653 44.66,52.673 44.673,52.703C44.707,52.801 44.761,52.823 44.835,52.766C44.891,52.728 44.928,52.682 44.948,52.627C44.996,52.491 45.048,52.351 45.104,52.206C45.152,52.079 45.216,51.98 45.293,51.908C45.342,51.871 45.354,51.826 45.327,51.776C45.289,51.721 45.236,51.661 45.169,51.596C45.13,51.567 45.089,51.558 45.044,51.564C44.858,51.58 44.666,51.578 44.469,51.558C44.466,51.554 44.462,51.549 44.456,51.54C44.406,51.466 44.346,51.408 44.279,51.365C44.254,51.349 44.228,51.352 44.202,51.373C44.188,51.385 44.187,51.41 44.198,51.445C44.212,51.546 44.213,51.644 44.2,51.739C44.198,51.818 44.18,51.922 44.146,52.05C44.029,52.493 43.919,52.836 43.818,53.076C43.732,53.313 43.617,53.536 43.474,53.745C43.426,53.811 43.4,53.875 43.397,53.938C43.396,54.043 43.405,54.119 43.425,54.166C43.449,54.216 43.478,54.224 43.517,54.193C43.568,54.163 43.615,54.109 43.657,54.025C43.749,53.854 43.826,53.672 43.888,53.48C43.959,53.239 44.034,53.001 44.106,52.764C44.126,52.697 44.145,52.631 44.163,52.568ZM44.654,52.482C44.62,52.453 44.562,52.436 44.481,52.436C44.385,52.436 44.293,52.437 44.205,52.437C44.235,52.332 44.267,52.239 44.298,52.16C44.437,52.169 44.556,52.183 44.659,52.198C44.722,52.199 44.743,52.182 44.725,52.145C44.709,52.103 44.669,52.069 44.604,52.041C44.547,52.021 44.463,52.014 44.351,52.02C44.349,52.022 44.345,52.023 44.343,52.025C44.401,51.858 44.448,51.742 44.481,51.678C44.492,51.678 44.505,51.678 44.52,51.676C44.626,51.68 44.715,51.685 44.787,51.689C44.893,51.693 44.962,51.711 44.992,51.743C45.011,51.766 45.009,51.817 44.982,51.895C44.907,52.118 44.834,52.321 44.764,52.505C44.753,52.531 44.74,52.552 44.724,52.567C44.711,52.544 44.687,52.514 44.654,52.482ZM45.714,52.823C45.733,52.83 45.757,52.839 45.791,52.844C45.918,52.856 46.118,52.897 46.385,52.968C46.212,53.602 46.05,54.131 45.9,54.553C45.878,54.624 45.851,54.672 45.824,54.699C45.803,54.71 45.769,54.702 45.722,54.674C45.656,54.637 45.59,54.6 45.523,54.56C45.473,54.526 45.445,54.523 45.44,54.55C45.552,54.731 45.635,54.884 45.692,55.01C45.709,55.074 45.74,55.12 45.781,55.143C45.804,55.162 45.831,55.161 45.86,55.141C45.906,55.111 45.965,55.06 46.037,54.988C46.093,54.925 46.132,54.848 46.151,54.759C46.283,54.173 46.482,53.414 46.745,52.478C46.79,52.315 46.841,52.203 46.899,52.139C46.948,52.098 46.961,52.057 46.934,52.016C46.891,51.949 46.822,51.878 46.728,51.805C46.684,51.771 46.637,51.759 46.589,51.766C46.468,51.79 46.372,51.803 46.302,51.803C46.224,51.801 46.11,51.789 45.963,51.769C45.92,51.701 45.868,51.648 45.808,51.605C45.795,51.592 45.78,51.588 45.763,51.595C45.742,51.601 45.735,51.623 45.743,51.663C45.76,51.766 45.756,51.876 45.734,51.997C45.696,52.169 45.647,52.342 45.588,52.514C45.562,52.596 45.553,52.682 45.56,52.774C45.567,52.839 45.583,52.884 45.605,52.907C45.642,52.938 45.677,52.916 45.709,52.842C45.711,52.834 45.713,52.828 45.714,52.823ZM46.369,52.797C46.335,52.757 46.273,52.736 46.187,52.73C46.03,52.723 45.888,52.708 45.757,52.689C45.764,52.653 45.773,52.615 45.778,52.574C45.797,52.51 45.817,52.441 45.839,52.366C45.841,52.367 45.848,52.37 45.861,52.373C46.026,52.401 46.168,52.423 46.287,52.441C46.348,52.447 46.373,52.432 46.36,52.393C46.343,52.35 46.306,52.315 46.245,52.286C46.189,52.261 46.105,52.248 45.994,52.247C45.948,52.252 45.907,52.258 45.868,52.264C45.906,52.133 45.943,52.016 45.978,51.911C45.997,51.915 46.021,51.915 46.05,51.916C46.195,51.929 46.341,51.938 46.486,51.943C46.548,51.949 46.581,51.969 46.586,52.001C46.591,52.072 46.584,52.157 46.568,52.259C46.518,52.462 46.465,52.66 46.413,52.851C46.4,52.836 46.385,52.819 46.369,52.797ZM37.856,53.498C37.946,53.579 38.137,53.735 38.432,53.962C38.755,54.204 39.028,54.386 39.248,54.51C39.351,54.574 39.441,54.593 39.514,54.568C39.723,54.477 39.92,54.396 40.106,54.32C40.185,54.289 40.221,54.264 40.214,54.243C40.209,54.218 40.157,54.201 40.056,54.188C39.925,54.177 39.788,54.167 39.645,54.159C39.475,54.153 39.334,54.131 39.224,54.092C39.076,54.047 38.86,53.943 38.578,53.783C38.259,53.609 38.01,53.457 37.828,53.327C37.821,53.274 37.813,53.219 37.802,53.165C38.041,53.036 38.364,52.889 38.77,52.725C38.833,52.704 38.893,52.682 38.95,52.659C39.005,52.637 39.037,52.611 39.041,52.581C39.04,52.542 39.008,52.511 38.949,52.489C38.841,52.461 38.753,52.449 38.682,52.454C38.621,52.457 38.564,52.476 38.513,52.511C38.331,52.63 38.08,52.785 37.764,52.975C37.734,52.869 37.705,52.763 37.676,52.659C37.648,52.569 37.626,52.485 37.607,52.411C37.569,52.289 37.549,52.149 37.547,51.992C37.551,51.952 37.534,51.925 37.496,51.909C37.423,51.878 37.323,51.861 37.197,51.853C37.122,51.851 37.063,51.866 37.016,51.903C36.961,51.949 36.969,51.988 37.041,52.022C37.16,52.08 37.237,52.156 37.268,52.251C37.382,52.575 37.47,52.862 37.53,53.114C37.273,53.258 36.999,53.41 36.709,53.572C36.65,53.602 36.653,53.634 36.719,53.665C36.772,53.684 36.828,53.692 36.887,53.691C36.952,53.679 37.006,53.66 37.046,53.63C37.2,53.513 37.377,53.401 37.57,53.292C37.575,53.317 37.581,53.342 37.584,53.372C37.641,53.653 37.652,53.908 37.611,54.139C37.589,54.307 37.536,54.477 37.447,54.647C37.371,54.814 37.226,55.027 37.013,55.283C36.981,55.316 36.961,55.339 36.959,55.355C36.95,55.378 36.972,55.385 37.025,55.372C37.067,55.358 37.16,55.288 37.301,55.162C37.401,55.076 37.515,54.937 37.64,54.748C37.734,54.601 37.799,54.448 37.836,54.284C37.88,54.1 37.893,53.884 37.872,53.636C37.865,53.591 37.861,53.545 37.856,53.498ZM31.596,56.614C31.652,56.586 31.715,56.557 31.788,56.524C31.818,56.511 31.844,56.495 31.86,56.476C31.866,56.467 31.863,56.452 31.854,56.433C31.843,56.413 31.802,56.399 31.732,56.392C31.694,56.39 31.661,56.397 31.63,56.414C31.612,56.423 31.595,56.433 31.58,56.447C31.57,56.402 31.559,56.353 31.549,56.3C31.531,56.249 31.524,56.207 31.526,56.175C31.523,56.15 31.509,56.132 31.484,56.125C31.466,56.117 31.425,56.117 31.363,56.124C31.311,56.141 31.272,56.16 31.25,56.181C31.229,56.209 31.237,56.229 31.276,56.242C31.308,56.252 31.332,56.27 31.347,56.295C31.39,56.374 31.425,56.456 31.455,56.543C31.448,56.547 31.44,56.553 31.428,56.56C31.335,56.643 31.265,56.708 31.218,56.754C31.207,56.767 31.209,56.777 31.224,56.783C31.243,56.79 31.263,56.789 31.28,56.778C31.347,56.74 31.418,56.701 31.493,56.663C31.514,56.727 31.53,56.798 31.545,56.875C31.544,56.897 31.547,56.914 31.554,56.924C31.564,56.944 31.577,56.943 31.589,56.922C31.6,56.905 31.606,56.868 31.606,56.81C31.607,56.757 31.605,56.692 31.596,56.614ZM32.121,56.915C32.185,56.891 32.254,56.865 32.33,56.835C32.366,56.825 32.392,56.81 32.407,56.79C32.413,56.781 32.412,56.767 32.403,56.748C32.395,56.723 32.356,56.708 32.286,56.701C32.251,56.693 32.217,56.697 32.182,56.712C32.155,56.718 32.122,56.736 32.086,56.764C32.077,56.747 32.071,56.727 32.068,56.706C32.05,56.656 32.042,56.614 32.042,56.582C32.036,56.558 32.023,56.544 32.003,56.539C31.986,56.531 31.947,56.533 31.889,56.543C31.841,56.556 31.809,56.575 31.791,56.6C31.774,56.622 31.782,56.641 31.816,56.655C31.851,56.662 31.874,56.679 31.889,56.704C31.911,56.75 31.938,56.8 31.967,56.854C31.877,56.916 31.81,56.968 31.764,57.009C31.757,57.017 31.76,57.028 31.773,57.038C31.79,57.049 31.809,57.049 31.831,57.039C31.887,57.012 31.947,56.985 32.012,56.958C32.012,56.963 32.014,56.967 32.017,56.973C32.049,57.064 32.079,57.167 32.104,57.28C32.104,57.302 32.107,57.317 32.115,57.325C32.126,57.34 32.136,57.339 32.148,57.321C32.157,57.303 32.161,57.27 32.156,57.219C32.158,57.161 32.153,57.091 32.139,57.007C32.132,56.98 32.126,56.95 32.121,56.915ZM31.935,58.216C32.027,58.181 32.089,58.121 32.118,58.034C32.181,57.82 32.255,57.606 32.342,57.395C32.442,57.16 32.582,56.861 32.756,56.498C32.862,56.277 32.936,56.144 32.98,56.098C33.024,56.074 33.054,56.067 33.069,56.08C33.08,56.083 33.096,56.101 33.116,56.132C33.158,56.197 33.2,56.263 33.243,56.332C33.264,56.368 33.284,56.381 33.302,56.372C33.32,56.362 33.331,56.328 33.332,56.273C33.337,56.101 33.361,55.956 33.403,55.838C33.433,55.74 33.439,55.685 33.417,55.676C33.393,55.664 33.263,55.701 33.029,55.787C32.963,55.808 32.915,55.85 32.883,55.912C32.832,56.018 32.781,56.13 32.734,56.246C32.417,55.933 32.218,55.688 32.136,55.511C32.129,55.474 32.111,55.452 32.08,55.443C32.036,55.436 31.944,55.472 31.804,55.553C31.764,55.578 31.74,55.609 31.728,55.643C31.683,55.772 31.625,55.912 31.557,56.061C31.529,56.106 31.535,56.13 31.573,56.131C31.612,56.122 31.651,56.103 31.691,56.075C31.734,56.04 31.761,55.999 31.77,55.953C31.792,55.894 31.815,55.834 31.838,55.768C31.844,55.753 31.852,55.745 31.858,55.743C31.886,55.73 31.925,55.741 31.977,55.781C32.021,55.82 32.066,55.864 32.112,55.912C32.087,55.915 32.062,55.932 32.035,55.958C31.999,55.997 31.961,56.063 31.926,56.16C31.912,56.214 31.9,56.267 31.883,56.32C31.867,56.351 31.887,56.361 31.945,56.347C31.96,56.343 31.975,56.328 31.992,56.301C32.064,56.178 32.127,56.069 32.179,55.977C32.228,56.031 32.286,56.087 32.349,56.15C32.33,56.159 32.31,56.175 32.292,56.196C32.255,56.237 32.225,56.305 32.195,56.402C32.181,56.462 32.169,56.518 32.16,56.571C32.148,56.606 32.169,56.614 32.22,56.592C32.236,56.589 32.249,56.572 32.265,56.543C32.325,56.423 32.378,56.318 32.422,56.228C32.489,56.3 32.563,56.378 32.642,56.46C32.613,56.514 32.588,56.57 32.566,56.628C32.437,56.891 32.28,57.234 32.094,57.659C32.089,57.667 32.085,57.678 32.085,57.687C31.961,57.645 31.851,57.605 31.749,57.564L31.752,57.563C31.802,57.443 31.845,57.336 31.883,57.242C31.901,57.191 31.891,57.168 31.854,57.17C31.815,57.179 31.776,57.206 31.736,57.249C31.707,57.294 31.682,57.365 31.661,57.464C31.657,57.491 31.657,57.513 31.658,57.531C31.608,57.512 31.563,57.494 31.524,57.478C31.489,57.466 31.458,57.455 31.431,57.44C31.474,57.297 31.515,57.175 31.551,57.075C31.567,57.026 31.559,57.003 31.522,57.008C31.486,57.015 31.451,57.041 31.417,57.085C31.386,57.128 31.367,57.196 31.354,57.287C31.349,57.325 31.345,57.364 31.342,57.401C31.296,57.375 31.263,57.36 31.244,57.352C31.217,57.335 31.191,57.328 31.171,57.33C31.168,57.268 31.167,57.214 31.165,57.171C31.163,57.126 31.16,57.082 31.159,57.036C31.147,56.986 31.144,56.933 31.151,56.88C31.158,56.832 31.138,56.807 31.094,56.806C31.048,56.811 30.999,56.831 30.944,56.866C30.893,56.897 30.865,56.925 30.859,56.951C30.846,56.977 30.856,56.99 30.885,56.996C30.921,57.007 30.949,57.038 30.971,57.087C30.999,57.126 31.023,57.171 31.042,57.219C31.059,57.261 31.077,57.304 31.095,57.349C31.032,57.381 30.979,57.424 30.937,57.478C30.912,57.505 30.902,57.531 30.909,57.557C30.916,57.584 30.94,57.596 30.982,57.591C31.087,57.584 31.193,57.589 31.3,57.605C31.398,57.626 31.638,57.701 32.019,57.829C31.966,57.936 31.915,58.04 31.863,58.139C31.858,58.148 31.857,58.157 31.858,58.165C31.854,58.166 31.85,58.164 31.841,58.159C31.775,58.151 31.724,58.156 31.687,58.173C31.634,58.192 31.633,58.222 31.687,58.261C31.704,58.266 31.72,58.276 31.74,58.287C31.783,58.317 31.813,58.353 31.831,58.392C31.865,58.466 31.897,58.551 31.924,58.649C31.936,58.685 31.967,58.713 32.02,58.732C32.09,58.762 32.148,58.777 32.198,58.777C32.276,58.783 32.298,58.743 32.264,58.661C32.233,58.593 32.184,58.522 32.117,58.445C32.036,58.353 31.975,58.277 31.935,58.216ZM33.5,57.484C33.627,57.237 33.795,56.951 34,56.628C34.047,56.558 34.089,56.493 34.126,56.431C34.159,56.382 34.168,56.346 34.154,56.32C34.133,56.285 34.091,56.278 34.03,56.299C33.935,56.339 33.858,56.378 33.801,56.418C33.754,56.458 33.719,56.507 33.698,56.565C33.612,56.789 33.493,57.082 33.34,57.441C33.328,57.437 33.314,57.435 33.302,57.431C33.255,57.427 33.212,57.43 33.166,57.443C33.16,57.338 33.153,57.226 33.146,57.108C33.136,56.981 33.142,56.883 33.166,56.812C33.178,56.758 33.165,56.726 33.121,56.716C33.079,56.701 32.969,56.74 32.791,56.833C32.742,56.861 32.71,56.905 32.695,56.965C32.653,57.139 32.592,57.352 32.514,57.608C32.496,57.678 32.438,57.775 32.344,57.904C32.31,57.954 32.321,57.985 32.376,57.997C32.416,57.999 32.463,57.988 32.513,57.963C32.599,57.918 32.645,57.844 32.647,57.742C32.664,57.68 32.711,57.484 32.792,57.152C32.802,57.115 32.823,57.089 32.856,57.073C32.889,57.054 32.918,57.061 32.939,57.094C32.987,57.211 33.039,57.337 33.101,57.471C33.069,57.485 33.039,57.506 33.01,57.533C32.963,57.573 32.94,57.61 32.942,57.644C32.94,57.685 32.966,57.697 33.017,57.683C33.086,57.654 33.161,57.641 33.244,57.646C33.06,58.033 32.863,58.451 32.65,58.901C32.62,58.955 32.64,58.975 32.709,58.966C32.766,58.952 32.816,58.926 32.857,58.89C32.905,58.848 32.935,58.803 32.949,58.755C33.038,58.465 33.158,58.17 33.31,57.866C33.334,57.81 33.363,57.75 33.396,57.686C33.508,57.731 33.612,57.786 33.709,57.852C33.814,57.925 33.889,57.998 33.932,58.071C33.973,58.138 33.962,58.209 33.9,58.285C33.846,58.353 33.79,58.417 33.734,58.478C33.709,58.501 33.714,58.514 33.749,58.516C33.772,58.516 33.81,58.503 33.867,58.475C34.006,58.423 34.116,58.398 34.195,58.402C34.252,58.404 34.289,58.383 34.305,58.341C34.322,58.31 34.315,58.241 34.287,58.136C34.265,58.04 34.212,57.952 34.13,57.868C34.032,57.766 33.898,57.672 33.73,57.587C33.646,57.543 33.567,57.51 33.5,57.484ZM50.428,57.009C50.441,57.029 50.461,57.055 50.487,57.083C50.691,57.288 50.865,57.47 51.008,57.633C50.975,57.694 50.965,57.732 50.981,57.747C51.002,57.772 51.051,57.777 51.129,57.76C51.196,57.753 51.244,57.733 51.275,57.703C51.373,57.612 51.504,57.507 51.67,57.384C51.717,57.347 51.772,57.326 51.833,57.322C51.881,57.317 51.907,57.3 51.912,57.272C51.918,57.182 51.904,57.077 51.874,56.957C51.859,56.923 51.828,56.887 51.779,56.851C51.672,56.797 51.563,56.728 51.456,56.643C51.406,56.596 51.357,56.554 51.31,56.516C51.322,56.517 51.334,56.518 51.344,56.519C51.391,56.528 51.442,56.533 51.498,56.539C51.525,56.542 51.555,56.547 51.589,56.556C51.624,56.57 51.646,56.566 51.657,56.543C51.665,56.528 51.672,56.508 51.679,56.486C51.76,56.559 51.848,56.64 51.943,56.726C52.055,56.838 52.157,56.939 52.249,57.029C52.263,57.052 52.289,57.063 52.325,57.062C52.348,57.048 52.354,57.01 52.342,56.951C52.34,56.932 52.333,56.903 52.319,56.865C52.307,56.82 52.279,56.784 52.237,56.754C52.123,56.664 52.009,56.572 51.893,56.476C51.755,56.365 51.632,56.253 51.524,56.143C51.448,56.065 51.366,55.982 51.279,55.895C51.231,55.847 51.205,55.858 51.203,55.925C51.204,55.957 51.206,55.996 51.21,56.038C51.217,56.077 51.243,56.112 51.287,56.143C51.363,56.21 51.449,56.285 51.545,56.368C51.484,56.385 51.401,56.403 51.298,56.421C51.274,56.421 51.251,56.424 51.231,56.434C51.22,56.421 51.21,56.41 51.199,56.4C51.196,56.353 51.187,56.307 51.17,56.265C51.16,56.248 51.147,56.241 51.127,56.242C51.117,56.246 51.106,56.259 51.097,56.281C51.082,56.306 51.065,56.333 51.049,56.359C51.035,56.381 51.009,56.405 50.977,56.431C50.873,56.526 50.784,56.599 50.713,56.648C50.652,56.692 50.581,56.732 50.505,56.764C50.454,56.784 50.418,56.809 50.393,56.84C50.355,56.895 50.333,56.94 50.328,56.974C50.32,57.006 50.332,57.022 50.367,57.022C50.385,57.021 50.406,57.016 50.428,57.009ZM51.084,57.504C51.056,57.451 51.005,57.393 50.928,57.325C50.783,57.197 50.649,57.078 50.523,56.966C50.575,56.939 50.623,56.911 50.666,56.88C50.682,56.868 50.696,56.858 50.706,56.849C50.711,56.869 50.726,56.894 50.753,56.922C50.902,57.056 51.028,57.174 51.132,57.274C51.169,57.31 51.195,57.311 51.205,57.277C51.216,57.239 51.208,57.195 51.178,57.145C51.153,57.099 51.1,57.048 51.021,56.989C50.929,56.924 50.843,56.863 50.76,56.807C50.794,56.781 50.827,56.754 50.861,56.727C50.883,56.711 50.904,56.694 50.923,56.679C50.929,56.699 50.944,56.721 50.97,56.746C51.112,56.871 51.236,56.98 51.338,57.071C51.378,57.105 51.403,57.106 51.415,57.072C51.424,57.03 51.415,56.987 51.386,56.942C51.356,56.9 51.301,56.849 51.222,56.791C51.133,56.735 51.051,56.683 50.98,56.635C51.058,56.573 51.115,56.533 51.15,56.517C51.161,56.529 51.174,56.543 51.187,56.556C51.286,56.637 51.371,56.709 51.443,56.772C51.604,56.897 51.686,56.988 51.69,57.042C51.674,57.077 51.627,57.128 51.55,57.199C51.317,57.392 51.171,57.501 51.111,57.527C51.107,57.526 51.1,57.528 51.091,57.533C51.092,57.529 51.089,57.519 51.084,57.504ZM49.949,57.884C49.827,57.864 49.704,57.828 49.584,57.774C49.407,57.686 49.233,57.57 49.058,57.432C49.035,57.406 49.02,57.413 49.015,57.45C49.017,57.47 49.057,57.525 49.134,57.615C49.235,57.725 49.368,57.827 49.537,57.919C49.667,57.992 49.802,58.04 49.944,58.064C49.939,58.298 49.937,58.535 49.941,58.771C49.939,58.86 49.971,58.942 50.039,59.015C50.161,59.158 50.301,59.285 50.462,59.397C50.501,59.428 50.525,59.441 50.538,59.435C50.554,59.425 50.554,59.401 50.538,59.362C50.476,59.215 50.409,59.057 50.333,58.889C50.252,58.695 50.196,58.511 50.166,58.34C50.147,58.25 50.131,58.161 50.117,58.074C50.242,58.072 50.385,58.057 50.547,58.03C50.621,58.016 50.693,58.019 50.76,58.039C50.819,58.058 50.855,58.046 50.866,58.002C50.878,57.96 50.873,57.896 50.854,57.81C50.839,57.751 50.798,57.701 50.734,57.662C50.672,57.625 50.607,57.577 50.533,57.52C50.489,57.48 50.433,57.428 50.365,57.364C50.378,57.35 50.389,57.33 50.396,57.303C50.407,57.261 50.41,57.218 50.403,57.175C50.396,57.126 50.383,57.09 50.367,57.069C50.355,57.054 50.336,57.056 50.314,57.073C50.289,57.093 50.252,57.112 50.207,57.126C50.093,57.145 49.985,57.149 49.886,57.14C49.77,57.135 49.66,57.12 49.56,57.092C49.455,57.068 49.294,57.015 49.076,56.935C49.058,56.924 49.052,56.93 49.057,56.95C49.065,56.966 49.093,56.988 49.135,57.016C49.198,57.065 49.267,57.109 49.345,57.152C49.441,57.204 49.555,57.248 49.689,57.283C49.767,57.298 49.865,57.317 49.984,57.338C49.983,57.34 49.982,57.346 49.982,57.354C49.972,57.531 49.961,57.708 49.949,57.884ZM50.378,57.56C50.488,57.632 50.549,57.676 50.563,57.694C50.586,57.742 50.57,57.773 50.518,57.789C50.374,57.848 50.233,57.879 50.094,57.885C50.084,57.816 50.08,57.747 50.081,57.679C50.08,57.532 50.076,57.422 50.073,57.35C50.117,57.35 50.166,57.356 50.221,57.37C50.249,57.432 50.301,57.496 50.378,57.56Z" style="fill:rgb(44,53,99);"/>
        </g>
        <g transform="matrix(3.36653,0,0,3.36653,-63.8962,-136.46)">
            <path d="M51.863,71.328L50.182,70.105L50.491,69.678L51.316,69.976C51.407,70.009 51.5,70.044 51.596,70.083C51.69,70.12 51.789,70.162 51.893,70.207C51.8,70.157 51.71,70.105 51.621,70.048C51.534,69.992 51.435,69.924 51.324,69.843L50.701,69.39L50.968,69.02L52.65,70.244L52.351,70.655L51.47,70.347C51.378,70.316 51.283,70.28 51.189,70.241C51.094,70.202 50.996,70.158 50.896,70.111C51.029,70.19 51.154,70.268 51.269,70.344C51.385,70.418 51.491,70.491 51.586,70.561L52.131,70.957L51.863,71.328ZM53.337,66.625L53.417,66.165L53.584,66.195C53.653,66.207 53.705,66.203 53.744,66.185C53.782,66.166 53.806,66.131 53.815,66.081C53.823,66.034 53.814,65.995 53.788,65.961C53.763,65.928 53.725,65.907 53.676,65.898C53.633,65.89 53.588,65.896 53.54,65.914C53.493,65.933 53.443,65.966 53.393,66.011C53.368,66.031 53.336,66.061 53.293,66.102C53.15,66.231 53.044,66.32 52.973,66.367C52.909,66.41 52.84,66.439 52.762,66.454C52.685,66.468 52.604,66.468 52.518,66.453C52.347,66.422 52.224,66.346 52.146,66.223C52.069,66.101 52.047,65.945 52.081,65.756C52.113,65.567 52.181,65.431 52.285,65.351C52.389,65.27 52.528,65.246 52.702,65.276L52.87,65.305L52.793,65.744L52.652,65.719C52.587,65.708 52.537,65.711 52.502,65.729C52.467,65.747 52.445,65.781 52.437,65.831C52.428,65.871 52.437,65.907 52.461,65.936C52.483,65.967 52.518,65.985 52.564,65.994C52.639,66.006 52.778,65.927 52.981,65.753L52.995,65.743L53.029,65.712C53.21,65.56 53.336,65.472 53.406,65.448C53.454,65.433 53.505,65.423 53.559,65.421C53.613,65.417 53.669,65.421 53.729,65.431C53.905,65.463 54.032,65.541 54.111,65.668C54.191,65.795 54.213,65.959 54.178,66.156C54.144,66.35 54.068,66.492 53.95,66.576C53.833,66.66 53.68,66.685 53.491,66.651L53.337,66.625ZM53.724,67.865L51.747,67.223L51.893,66.776L53.869,67.419L53.724,67.865ZM52.347,69.305L52.536,68.878L52.69,68.947C52.755,68.976 52.807,68.986 52.848,68.976C52.889,68.968 52.92,68.94 52.942,68.893C52.96,68.85 52.961,68.808 52.945,68.769C52.928,68.731 52.897,68.702 52.852,68.681C52.811,68.663 52.765,68.657 52.715,68.664C52.665,68.671 52.61,68.69 52.548,68.723C52.521,68.737 52.481,68.758 52.428,68.786C52.26,68.877 52.134,68.936 52.056,68.965C51.984,68.993 51.909,69.004 51.831,68.999C51.752,68.994 51.674,68.975 51.594,68.938C51.436,68.868 51.333,68.763 51.288,68.627C51.242,68.488 51.259,68.332 51.338,68.156C51.415,67.981 51.514,67.867 51.634,67.814C51.754,67.76 51.895,67.77 52.056,67.842L52.213,67.912L52.032,68.318L51.901,68.261C51.839,68.233 51.79,68.224 51.752,68.233C51.715,68.242 51.685,68.269 51.664,68.316C51.647,68.353 51.647,68.389 51.662,68.424C51.677,68.459 51.705,68.485 51.748,68.504C51.82,68.536 51.975,68.492 52.213,68.373L52.228,68.366L52.269,68.345C52.48,68.241 52.623,68.185 52.699,68.179C52.748,68.176 52.799,68.179 52.853,68.19C52.907,68.199 52.959,68.218 53.014,68.242C53.178,68.314 53.283,68.422 53.33,68.564C53.375,68.706 53.358,68.87 53.276,69.053C53.196,69.235 53.089,69.352 52.954,69.405C52.82,69.459 52.665,69.446 52.489,69.368L52.347,69.305ZM50.723,72.656L49.229,71.21L49.959,70.453L50.249,70.732L49.845,71.152L50.141,71.439L50.498,71.069L50.783,71.344L50.427,71.715L50.762,72.038L51.178,71.606L51.466,71.887L50.723,72.656ZM49.843,73.454L48.453,71.908L48.801,71.593L50.191,73.138L49.843,73.454ZM47.728,73.08L48.292,73.917C48.33,73.973 48.366,74.007 48.402,74.02C48.437,74.033 48.477,74.025 48.519,73.997C48.56,73.969 48.582,73.935 48.583,73.897C48.584,73.859 48.568,73.812 48.531,73.756L47.966,72.919C47.929,72.863 47.892,72.829 47.854,72.816C47.818,72.805 47.78,72.812 47.737,72.84C47.697,72.868 47.676,72.9 47.673,72.939C47.672,72.977 47.691,73.024 47.728,73.08ZM47.376,73.41C47.258,73.233 47.212,73.072 47.237,72.924C47.264,72.777 47.362,72.645 47.532,72.531C47.704,72.415 47.861,72.372 48.006,72.403C48.15,72.434 48.283,72.539 48.402,72.716L48.879,73.425C49,73.604 49.047,73.766 49.02,73.913C48.996,74.06 48.898,74.19 48.728,74.307C48.559,74.421 48.4,74.463 48.253,74.432C48.106,74.4 47.973,74.295 47.854,74.119L47.376,73.41ZM45.882,75.69L45.087,73.768L45.754,73.492L46.094,74.064C46.136,74.137 46.179,74.214 46.221,74.294C46.265,74.376 46.309,74.464 46.354,74.56C46.316,74.444 46.283,74.342 46.255,74.252C46.227,74.162 46.206,74.092 46.195,74.043L46.034,73.375L46.697,73.1L47.493,75.022L47.076,75.196L46.785,74.492C46.724,74.345 46.662,74.194 46.599,74.036C46.537,73.879 46.473,73.717 46.409,73.551C46.452,73.73 46.488,73.878 46.516,73.998C46.546,74.118 46.564,74.195 46.571,74.229L46.822,75.301L46.549,75.414L45.988,74.521C45.91,74.394 45.839,74.28 45.778,74.177C45.718,74.076 45.66,73.978 45.607,73.883C45.672,74.027 45.737,74.174 45.803,74.323C45.866,74.472 45.934,74.633 46.007,74.807L46.3,75.517L45.882,75.69ZM43.838,76.131L43.898,74.015L44.522,73.918L45.215,75.916L44.72,75.993L44.617,75.631L44.296,75.68L44.306,76.057L43.838,76.131ZM44.292,75.299L44.515,75.264L44.347,74.649C44.336,74.607 44.323,74.562 44.311,74.514C44.299,74.468 44.282,74.397 44.257,74.3C44.261,74.356 44.264,74.414 44.267,74.475C44.269,74.535 44.271,74.597 44.274,74.661L44.292,75.299ZM41.438,75.58L41.901,75.605L41.893,75.773C41.889,75.843 41.899,75.895 41.922,75.931C41.946,75.966 41.982,75.986 42.033,75.989C42.081,75.991 42.12,75.977 42.15,75.948C42.179,75.918 42.197,75.878 42.199,75.828C42.201,75.784 42.19,75.739 42.166,75.696C42.142,75.652 42.103,75.605 42.052,75.559C42.029,75.54 41.995,75.509 41.95,75.471C41.805,75.345 41.703,75.25 41.648,75.187C41.597,75.129 41.561,75.063 41.536,74.988C41.513,74.912 41.504,74.832 41.508,74.745C41.518,74.57 41.578,74.439 41.689,74.347C41.801,74.254 41.954,74.215 42.145,74.224C42.338,74.235 42.479,74.286 42.571,74.379C42.663,74.472 42.705,74.608 42.696,74.784L42.688,74.955L42.243,74.932L42.251,74.789C42.255,74.722 42.246,74.673 42.222,74.64C42.201,74.608 42.165,74.59 42.115,74.587C42.073,74.586 42.038,74.597 42.012,74.624C41.984,74.651 41.971,74.687 41.969,74.734C41.964,74.811 42.061,74.94 42.258,75.12L42.269,75.131L42.304,75.163C42.476,75.324 42.579,75.437 42.611,75.506C42.633,75.551 42.648,75.6 42.657,75.654C42.667,75.706 42.67,75.763 42.667,75.823C42.657,76.003 42.595,76.139 42.479,76.234C42.362,76.328 42.205,76.37 42.005,76.358C41.807,76.349 41.659,76.291 41.561,76.183C41.463,76.077 41.42,75.928 41.43,75.736L41.438,75.58ZM39.548,76.146L40.103,74.105L40.732,74.158L40.937,76.263L40.438,76.221L40.421,75.845L40.098,75.817L40.021,76.187L39.548,76.146ZM40.185,75.446L40.41,75.465L40.39,74.826C40.389,74.783 40.388,74.737 40.388,74.688C40.386,74.639 40.385,74.566 40.386,74.467C40.376,74.523 40.365,74.58 40.355,74.639C40.342,74.699 40.329,74.759 40.318,74.822L40.185,75.446ZM38.333,75.842L38.679,74.198L38.379,74.134L38.463,73.741L39.521,73.966L39.438,74.361L39.139,74.296L38.791,75.938L38.333,75.842ZM36.917,75.332L37.707,73.408L38.143,73.587L37.351,75.51L36.917,75.332ZM35.591,73.811L35.985,74.057L35.896,74.201C35.858,74.26 35.843,74.312 35.845,74.354C35.848,74.395 35.871,74.43 35.915,74.458C35.955,74.483 35.995,74.49 36.036,74.478C36.077,74.467 36.11,74.44 36.137,74.398C36.16,74.361 36.171,74.316 36.171,74.266C36.171,74.216 36.16,74.156 36.138,74.092C36.128,74.063 36.112,74.02 36.092,73.964C36.025,73.783 35.984,73.653 35.966,73.57C35.949,73.494 35.948,73.418 35.964,73.341C35.98,73.264 36.011,73.19 36.056,73.114C36.148,72.967 36.266,72.88 36.408,72.855C36.549,72.829 36.702,72.866 36.867,72.968C37.029,73.071 37.127,73.185 37.163,73.312C37.199,73.438 37.17,73.576 37.075,73.726L36.986,73.872L36.609,73.636L36.683,73.514C36.721,73.458 36.736,73.41 36.732,73.37C36.728,73.331 36.706,73.298 36.663,73.271C36.628,73.249 36.591,73.243 36.555,73.254C36.519,73.264 36.489,73.289 36.464,73.328C36.423,73.394 36.444,73.553 36.531,73.807L36.534,73.823L36.549,73.866C36.624,74.091 36.658,74.242 36.653,74.316C36.65,74.365 36.639,74.416 36.623,74.468C36.604,74.519 36.58,74.57 36.548,74.621C36.454,74.773 36.334,74.862 36.185,74.888C36.039,74.913 35.88,74.875 35.71,74.768C35.542,74.663 35.44,74.539 35.406,74.399C35.371,74.259 35.406,74.106 35.509,73.943L35.591,73.811ZM34.805,72.64C34.887,72.704 34.952,72.737 34.997,72.739C35.042,72.743 35.086,72.718 35.128,72.666L35.202,72.575C35.245,72.521 35.263,72.472 35.252,72.43C35.241,72.387 35.199,72.335 35.123,72.275L35.11,72.263L34.805,72.64ZM33.664,73.313L34.97,71.696L35.493,72.12C35.628,72.23 35.706,72.342 35.728,72.454C35.749,72.567 35.713,72.68 35.62,72.795L35.607,72.811L35.533,72.904C35.465,72.988 35.396,73.041 35.325,73.065C35.256,73.087 35.173,73.085 35.082,73.053C35.135,73.132 35.158,73.208 35.15,73.282C35.143,73.354 35.103,73.434 35.033,73.522L34.731,73.896C34.696,73.939 34.67,73.977 34.655,74.007C34.64,74.037 34.631,74.067 34.627,74.096L34.258,73.796C34.262,73.772 34.274,73.744 34.293,73.713C34.31,73.683 34.34,73.642 34.382,73.59L34.634,73.278C34.705,73.19 34.737,73.122 34.731,73.074C34.725,73.025 34.68,72.967 34.597,72.898L34.023,73.607L33.664,73.313ZM32.409,72.056L33.916,70.624L34.639,71.386L34.349,71.664L33.949,71.241L33.649,71.525L34.002,71.898L33.714,72.173L33.362,71.799L33.025,72.12L33.437,72.555L33.146,72.833L32.409,72.056ZM31.426,70.709L32.962,69.271L33.239,69.681L32.578,70.226C32.545,70.253 32.477,70.305 32.375,70.385C32.273,70.464 32.155,70.555 32.02,70.658C32.171,70.571 32.353,70.472 32.563,70.359C32.599,70.34 32.626,70.326 32.642,70.317L33.396,69.915L33.667,70.317L31.757,71.202L31.426,70.709ZM30.662,69.385L32.529,68.473L32.736,68.896L30.868,69.808L30.662,69.385ZM29.911,67.497L31.874,66.817L32.046,67.316L31.33,67.822C31.251,67.878 31.169,67.935 31.084,67.991C30.998,68.047 30.907,68.105 30.81,68.164C30.904,68.116 30.999,68.073 31.096,68.032C31.191,67.993 31.306,67.951 31.434,67.905L32.162,67.653L32.311,68.085L30.348,68.765L30.181,68.284L30.938,67.736C31.017,67.679 31.099,67.622 31.186,67.566C31.273,67.511 31.365,67.456 31.462,67.4C31.32,67.464 31.184,67.521 31.056,67.574C30.929,67.625 30.809,67.671 30.698,67.709L30.06,67.93L29.911,67.497ZM31.619,65.733L30.086,65.907C30.018,65.914 29.97,65.931 29.942,65.956C29.917,65.981 29.905,66.018 29.911,66.066C29.917,66.116 29.935,66.151 29.969,66.17C30.002,66.189 30.052,66.195 30.117,66.187L31.651,66.015L31.703,66.483L30.247,66.647C30.034,66.67 29.869,66.638 29.751,66.548C29.632,66.458 29.562,66.312 29.539,66.108C29.517,65.907 29.553,65.75 29.65,65.637C29.745,65.522 29.899,65.454 30.111,65.429L31.567,65.266L31.619,65.733Z" style="fill:rgb(44,53,99);"/>
        </g>
        <g transform="matrix(3.36653,0,0,3.36653,-63.8962,-136.46)">
            <path d="M41.853,49C50.033,49 56.704,55.671 56.704,63.852C56.704,72.033 50.033,78.704 41.853,78.704C33.671,78.704 27,72.033 27,63.852C27,55.671 33.671,49 41.853,49ZM41.853,50.279C49.327,50.279 55.425,56.377 55.425,63.852C55.425,71.327 49.327,77.425 41.853,77.425C34.377,77.425 28.279,71.327 28.279,63.852C28.279,56.377 34.377,50.279 41.853,50.279ZM41.853,50.58C49.162,50.58 55.124,56.542 55.124,63.852C55.124,71.162 49.162,77.123 41.853,77.123C34.542,77.123 28.581,71.162 28.581,63.852C28.581,56.542 34.542,50.58 41.853,50.58ZM41.853,54.647C46.923,54.647 51.057,58.783 51.057,63.852C51.057,68.923 46.923,73.056 41.853,73.056C36.782,73.056 32.647,68.923 32.647,63.852C32.647,58.783 36.782,54.647 41.853,54.647ZM41.853,54.907C46.779,54.907 50.797,58.926 50.797,63.852C50.797,68.778 46.779,72.796 41.853,72.796C36.925,72.796 32.907,68.778 32.907,63.852C32.907,58.926 36.925,54.907 41.853,54.907ZM41.853,49.678C49.659,49.678 56.027,56.045 56.027,63.852C56.027,71.659 49.659,78.027 41.853,78.027C34.045,78.027 27.678,71.659 27.678,63.852C27.678,56.045 34.045,49.678 41.853,49.678Z" style="fill:rgb(44,53,99);"/>
        </g>
        <g transform="matrix(3.36653,0,0,3.36653,-63.8962,-136.46)">
            <path d="M43.477,60.543L43.938,60.543L43.938,60.115L44.169,60.115L44.169,60.543L44.63,60.543L44.63,60.115L44.872,60.115L44.872,60.767L43.052,60.767L43.052,60.408L43.224,60.408L43.224,60.115L43.477,60.115L43.477,60.543ZM41.896,61.59C41.979,61.596 42.06,61.612 42.135,61.639L42.231,61.379C42.13,61.345 42.025,61.324 41.917,61.317L41.896,61.317L41.896,61.59ZM42.241,61.683C42.31,61.717 42.374,61.76 42.432,61.81L42.634,61.609C42.545,61.533 42.445,61.469 42.337,61.421L42.241,61.683ZM42.514,61.89C42.549,61.928 42.582,61.969 42.608,62.014L42.903,61.934C42.852,61.844 42.79,61.762 42.717,61.687L42.514,61.89ZM42.667,62.117C42.694,62.176 42.716,62.239 42.731,62.303L43.012,62.303L43.012,62.163L43.006,62.163C42.992,62.121 42.977,62.079 42.957,62.039L42.667,62.117ZM42.645,62.368L42.636,62.368C42.622,62.289 42.598,62.214 42.563,62.145L42.562,62.145L42.554,62.125C42.508,62.043 42.451,61.967 42.38,61.904L42.355,61.886L42.358,61.884C42.215,61.765 42.033,61.694 41.835,61.694C41.434,61.694 41.099,61.986 41.034,62.368L41.026,62.368L41.026,63.633L42.645,63.633L42.645,62.368ZM40.939,62.303C40.953,62.24 40.976,62.178 41.002,62.12L40.711,62.042C40.693,62.081 40.677,62.122 40.663,62.163L40.658,62.163L40.658,62.22L40.657,62.22L40.657,62.303L40.939,62.303ZM41.06,62.016C41.088,61.974 41.117,61.933 41.149,61.896L40.946,61.693C40.876,61.766 40.815,61.849 40.765,61.938L41.06,62.016ZM41.232,61.815C41.288,61.766 41.351,61.723 41.419,61.688L41.324,61.426C41.217,61.475 41.118,61.539 41.03,61.613L41.232,61.815ZM41.525,61.643C41.605,61.613 41.691,61.595 41.78,61.59L41.78,61.317L41.752,61.317C41.64,61.324 41.532,61.346 41.43,61.383L41.525,61.643ZM42.373,61.317C42.575,61.406 42.75,61.542 42.886,61.711L42.886,61.317L42.373,61.317ZM42.993,61.869C43.036,61.944 43.075,62.023 43.103,62.106L43.361,62.106L43.361,61.869L42.993,61.869ZM40.566,62.106C40.597,62.023 40.633,61.944 40.677,61.869L40.312,61.869L40.312,62.106L40.566,62.106ZM40.777,61.721C40.914,61.547 41.092,61.407 41.298,61.317L40.777,61.317L40.777,61.721ZM42.759,62.636L43.012,62.636L43.012,62.418L42.759,62.418L42.759,62.636ZM42.759,62.969L43.012,62.969L43.012,62.751L42.759,62.751L42.759,62.969ZM42.759,63.301L43.012,63.301L43.012,63.083L42.759,63.083L42.759,63.301ZM42.759,63.633L43.012,63.633L43.012,63.415L42.759,63.415L42.759,63.633ZM40.91,62.418L40.657,62.418L40.657,62.544L40.658,62.544L40.658,62.635L40.91,62.635L40.91,62.418ZM40.657,62.969L40.91,62.969L40.91,62.751L40.657,62.751L40.657,62.969ZM40.91,63.083L40.658,63.083L40.658,63.175L40.657,63.175L40.657,63.301L40.91,63.301L40.91,63.083ZM40.657,63.633L40.91,63.633L40.91,63.415L40.657,63.415L40.657,63.633ZM40.227,63.061L40.543,63.061L40.543,62.658L40.227,62.658L40.227,63.061ZM39.692,63.061L40.114,63.061L40.114,62.658L39.692,62.658L39.692,63.061ZM40.013,63.633L40.543,63.633L40.543,63.175L40.013,63.175L40.013,63.633ZM39.69,63.633L39.898,63.633L39.898,63.175L39.69,63.175L39.69,63.633ZM40.013,62.544L40.543,62.544L40.543,62.221L40.013,62.221L40.013,62.544ZM39.69,62.543L39.898,62.543L39.898,62.22L39.69,62.22L39.69,62.543ZM39.69,62.106L40.197,62.106L40.197,61.869L39.69,61.869L39.69,62.106ZM40.012,61.755L40.662,61.755L40.662,61.317L40.012,61.317L40.012,61.755ZM39.297,61.755L39.898,61.755L39.898,61.317L39.297,61.317L39.297,61.755ZM38.83,61.755L39.183,61.755L39.183,61.317L38.83,61.317L38.83,61.755ZM44.48,61.755L44.872,61.755L44.872,61.317L44.48,61.317L44.48,61.755ZM43.764,61.755L44.366,61.755L44.366,61.317L43.764,61.317L43.764,61.755ZM43,61.755L43.65,61.755L43.65,61.317L43,61.317L43,61.755ZM38.83,61.202L39.072,61.202L39.072,60.881L38.83,60.881L38.83,61.202ZM39.188,61.202L39.626,61.202L39.626,60.881L39.188,60.881L39.188,61.202ZM39.739,61.202L40.108,61.202L40.108,60.881L39.739,60.881L39.739,61.202ZM40.223,61.202L41.007,61.202L41.007,60.881L40.223,60.881L40.223,61.202ZM41.121,61.202L41.78,61.202L41.78,60.881L41.121,60.881L41.121,61.202ZM41.896,61.202L42.554,61.202L42.554,60.881L41.896,60.881L41.896,61.202ZM42.669,61.202L43.448,61.202L43.448,60.881L42.669,60.881L42.669,61.202ZM43.564,61.202L43.932,61.202L43.932,60.881L43.564,60.881L43.564,61.202ZM44.048,61.202L44.485,61.202L44.485,60.881L44.048,60.881L44.048,61.202ZM44.599,61.202L44.871,61.202L44.871,60.881L44.599,60.881L44.599,61.202ZM44.986,61.869L44.105,61.869L44.105,63.748L39.577,63.748L39.577,61.869L38.714,61.869L38.714,59.999L39.188,59.999L39.188,60.429L39.417,60.429L39.417,59.999L39.878,59.999L39.878,60.429L40.109,60.429L40.109,59.999L40.453,59.999L40.453,59.034L40.946,59.034L40.946,59.477L41.211,59.477L41.211,59.034L41.706,59.034L41.706,59.477L41.969,59.477L41.969,59.034L42.464,59.034L42.464,59.477L42.73,59.477L42.73,59.034L43.224,59.034L43.224,59.999L43.593,59.999L43.593,60.429L43.823,60.429L43.823,59.999L44.283,59.999L44.283,60.429L44.514,60.429L44.514,59.999L44.986,59.999L44.986,61.869ZM43.476,62.106L43.99,62.106L43.99,61.869L43.476,61.869L43.476,62.106ZM40.453,60.115L40.223,60.115L40.223,60.543L39.764,60.543L39.764,60.115L39.533,60.115L39.533,60.543L39.072,60.543L39.072,60.115L38.83,60.115L38.83,60.767L40.625,60.767L40.625,60.408L40.453,60.408L40.453,60.115ZM40.74,60.767L40.74,60.408L41.395,60.408L41.395,60.767L40.74,60.767ZM41.51,60.767L41.51,60.408L42.166,60.408L42.166,60.767L41.51,60.767ZM42.281,60.767L42.281,60.408L42.936,60.408L42.936,60.767L42.281,60.767ZM43.127,63.633L43.66,63.633L43.66,63.175L43.127,63.175L43.127,63.633ZM43.775,63.633L43.99,63.633L43.99,63.175L43.775,63.175L43.775,63.633ZM43.109,59.148L43.109,59.733L40.567,59.733L40.567,59.148L40.832,59.148L40.832,59.576L40.834,59.576L40.834,59.592L41.319,59.592L41.319,59.576L41.327,59.576L41.327,59.148L41.59,59.148L41.59,59.592L42.074,59.592L42.074,59.576L42.085,59.576L42.085,59.148L42.351,59.148L42.351,59.592L42.835,59.592L42.835,59.576L42.843,59.576L42.843,59.148L43.109,59.148ZM40.567,60.293L41.075,60.293L41.075,59.848L40.567,59.848L40.567,60.293ZM41.189,60.293L41.801,60.293L41.801,59.848L41.189,59.848L41.189,60.293ZM41.917,60.293L42.528,60.293L42.528,59.848L41.917,59.848L41.917,60.293ZM42.645,60.293L43.109,60.293L43.109,59.848L42.645,59.848L42.645,60.293ZM43.56,63.061L43.99,63.061L43.99,62.658L43.56,62.658L43.56,63.061ZM43.775,62.543L43.99,62.543L43.99,62.22L43.775,62.22L43.775,62.543ZM43.127,63.061L43.445,63.061L43.445,62.658L43.127,62.658L43.127,63.061ZM43.66,62.22L43.66,62.544L43.127,62.544L43.127,62.22L43.66,62.22Z" style="fill:rgb(44,53,99);"/>
        </g>
        <g transform="matrix(3.36653,0,0,3.36653,-63.8962,-136.46)">
            <path d="M37.261,59.545L40.453,59.545L40.453,59.368L37.261,59.368L37.261,59.545ZM43.224,59.545L46.431,59.545L46.431,59.368L43.224,59.368L43.224,59.545ZM37.387,61.438L38.753,61.438L38.753,61.261L37.387,61.261L37.387,61.438ZM44.963,61.438L46.304,61.438L46.304,61.261L44.963,61.261L44.963,61.438ZM37.484,62.915L39.577,62.915L39.577,62.738L37.484,62.738L37.484,62.915ZM41.026,62.915L42.644,62.915L42.644,62.738L41.026,62.738L41.026,62.915ZM44.106,62.915L46.209,62.915L46.209,62.738L44.106,62.738L44.106,62.915ZM37.852,64.535L39.957,64.535L40.775,63.717L41.024,63.717L40.208,64.535L43.389,64.535L42.523,63.669L42.644,63.669L42.644,63.717L42.822,63.717L43.638,64.535L45.839,64.535L45.839,64.711L37.852,64.711L37.852,64.535Z" style="fill:rgb(44,53,99);"/>
        </g>
        <g transform="matrix(3.36653,0,0,3.36653,-63.8962,-136.46)">
            <path d="M38.576,56.65L36.201,58.715C36.86,58.791 37.301,59.508 37.303,60.129L37.307,61.563C37.31,62.843 37.356,65.111 38.751,65.674C39.003,65.774 40.297,66.079 40.921,66.387C41.673,66.757 41.757,67.131 41.855,67.154C41.996,67.028 42.133,66.721 42.675,66.445C43.36,66.098 44.556,65.833 44.953,65.674C46.349,65.111 46.393,62.843 46.397,61.563L46.4,60.203C46.403,59.549 46.791,58.796 47.502,58.715L45.128,56.65C44.002,57.35 43.248,57.667 41.877,57.672C40.486,57.678 39.717,57.359 38.576,56.65ZM38.611,56.962L36.661,58.619C36.705,58.611 37.202,58.871 37.436,59.592C37.531,59.882 37.539,60.244 37.534,60.606C37.531,60.948 37.54,61.291 37.538,61.583C37.555,62.773 37.563,64.891 38.843,65.458C39.081,65.553 40.315,65.833 40.902,66.122C41.613,66.471 41.768,66.727 41.855,66.759C41.988,66.64 42.134,66.454 42.645,66.195C43.291,65.868 44.478,65.602 44.853,65.451C46.106,64.921 46.123,62.771 46.165,61.563L46.159,60.66C46.16,60.271 46.123,59.966 46.256,59.594C46.398,59.191 46.65,58.804 47.049,58.623L45.094,56.936C44.011,57.609 43.194,57.89 41.862,57.895C40.592,57.899 39.677,57.623 38.611,56.962Z" style="fill:rgb(44,53,99);"/>
        </g>
        <g transform="matrix(3.36653,0,0,3.36653,-63.8962,-136.46)">
            <path d="M45.02,57.476L45.275,58.004L45.855,58.084L45.432,58.49L45.536,59.066L45.02,58.788L44.504,59.066L44.607,58.49L44.184,58.084L44.765,58.004L45.02,57.476ZM41.827,64.789L42.081,65.317L42.663,65.396L42.239,65.801L42.343,66.378L41.827,66.101L41.31,66.378L41.414,65.801L40.992,65.396L41.572,65.317L41.827,64.789ZM41.827,65.155L41.974,65.458L42.308,65.504L42.064,65.737L42.124,66.068L41.827,65.908L41.53,66.068L41.59,65.737L41.348,65.504L41.68,65.458L41.827,65.155ZM38.675,57.476L38.929,58.004L39.51,58.084L39.086,58.49L39.191,59.066L38.675,58.788L38.158,59.066L38.263,58.49L37.839,58.084L38.42,58.004L38.675,57.476ZM38.675,57.842L38.821,58.146L39.155,58.191L38.912,58.424L38.971,58.756L38.675,58.597L38.378,58.756L38.437,58.424L38.194,58.191L38.529,58.146L38.675,57.842ZM45.02,57.842L45.166,58.146L45.5,58.191L45.257,58.424L45.317,58.756L45.02,58.597L44.723,58.756L44.782,58.424L44.54,58.191L44.873,58.146L45.02,57.842Z" style="fill:rgb(44,53,99);"/>
        </g>
        <g transform="matrix(3.36653,0,0,3.36653,-63.8962,-136.46)">
            <path d="M39.112,68.391C39.086,68.394 39.077,68.408 39.083,68.433C39.085,68.459 39.083,68.479 39.076,68.492C39.071,68.496 39.063,68.508 39.051,68.527C39.012,68.569 38.985,68.6 38.969,68.618C38.949,68.641 38.942,68.653 38.945,68.653C38.95,68.657 38.97,68.648 39.002,68.628C39.014,68.619 39.049,68.598 39.107,68.567C39.145,68.546 39.169,68.532 39.182,68.522C39.189,68.516 39.207,68.509 39.232,68.497C39.265,68.482 39.278,68.468 39.267,68.457C39.216,68.414 39.165,68.391 39.112,68.391ZM41.162,68.289C41.158,68.289 41.151,68.291 41.141,68.296C41.024,68.342 40.814,68.381 40.517,68.41C40.437,68.419 40.431,68.433 40.499,68.452C40.572,68.461 40.643,68.46 40.716,68.447C40.74,68.482 40.734,68.535 40.697,68.604C40.627,68.725 40.549,68.802 40.465,68.832C40.451,68.838 40.444,68.843 40.439,68.849C40.427,68.872 40.423,68.903 40.43,68.943C40.436,68.97 40.449,68.984 40.466,68.983C40.466,68.983 40.487,68.976 40.527,68.965C40.585,68.949 40.79,68.891 41.147,68.79C41.152,68.795 41.157,68.8 41.161,68.804C41.22,68.864 41.259,68.888 41.28,68.878C41.328,68.831 41.323,68.77 41.265,68.697C41.227,68.658 41.161,68.625 41.07,68.598C40.983,68.576 40.956,68.581 40.989,68.615C41.024,68.65 41.063,68.696 41.112,68.752C40.884,68.795 40.704,68.828 40.575,68.847C40.64,68.789 40.725,68.703 40.832,68.584C40.839,68.574 40.851,68.564 40.864,68.555C40.93,68.515 40.919,68.475 40.831,68.435C41.024,68.406 41.16,68.383 41.241,68.366C41.285,68.353 41.298,68.335 41.278,68.31C41.259,68.292 41.221,68.285 41.162,68.289ZM43.125,68.268C43.103,68.27 43.1,68.284 43.117,68.307C43.138,68.332 43.135,68.383 43.109,68.464C43.034,68.748 42.941,68.949 42.827,69.065C42.787,69.109 42.794,69.116 42.845,69.086C42.981,68.99 43.089,68.826 43.17,68.594C43.199,68.636 43.249,68.726 43.318,68.86C43.352,68.916 43.374,68.956 43.387,68.979C43.402,69.048 43.476,69.074 43.612,69.058C43.626,69.06 43.637,69.06 43.647,69.061C43.692,69.058 43.721,69.053 43.735,69.044C43.75,69.036 43.743,69.027 43.715,69.016C43.502,68.888 43.362,68.768 43.295,68.656C43.249,68.599 43.215,68.562 43.193,68.542C43.209,68.48 43.23,68.426 43.255,68.383C43.261,68.369 43.263,68.359 43.264,68.349C43.247,68.321 43.201,68.295 43.125,68.268ZM44.865,69.138C44.905,69.146 44.973,69.149 45.068,69.147C45.131,69.151 45.172,69.153 45.191,69.155C45.244,69.161 45.272,69.151 45.276,69.124C45.276,69.088 45.251,69.064 45.202,69.054C45.171,69.05 45.114,69.053 45.031,69.062C44.962,69.071 44.91,69.076 44.872,69.077C44.89,68.926 44.91,68.814 44.932,68.744C44.939,68.717 44.947,68.692 44.954,68.671C44.96,68.654 44.965,68.64 44.966,68.632C44.948,68.584 44.883,68.549 44.773,68.527C44.745,68.534 44.742,68.558 44.764,68.601C44.778,68.635 44.786,68.662 44.788,68.685C44.799,68.829 44.766,69.154 44.689,69.663L44.432,69.653C44.432,69.612 44.434,69.558 44.435,69.49C44.443,69.314 44.451,69.205 44.46,69.166C44.462,69.147 44.468,69.125 44.475,69.099C44.482,69.082 44.483,69.069 44.479,69.058C44.448,69.019 44.392,68.987 44.314,68.964C44.282,68.96 44.28,68.984 44.306,69.032C44.324,69.067 44.336,69.092 44.337,69.11C44.349,69.203 44.346,69.383 44.33,69.647C44.224,69.654 44.12,69.651 44.018,69.638C43.963,69.637 43.942,69.644 43.953,69.659C43.979,69.675 44.025,69.692 44.091,69.708C44.304,69.702 44.53,69.705 44.764,69.719C44.871,69.727 44.98,69.74 45.087,69.756C45.19,69.768 45.288,69.784 45.381,69.804C45.457,69.817 45.488,69.8 45.475,69.754C45.446,69.7 45.395,69.666 45.324,69.654C45.302,69.652 45.235,69.653 45.126,69.658C44.98,69.659 44.869,69.66 44.791,69.66L44.865,69.138ZM42.545,68.352C42.617,68.45 42.68,68.506 42.732,68.517C42.801,68.497 42.81,68.457 42.76,68.391C42.605,68.316 42.535,68.302 42.545,68.352ZM42.794,68.643C42.785,68.642 42.753,68.648 42.698,68.658C42.497,68.703 42.311,68.721 42.14,68.717C42.107,68.72 42.105,68.732 42.132,68.751C42.165,68.784 42.203,68.807 42.242,68.817C42.256,68.818 42.337,68.8 42.483,68.762C42.496,68.949 42.365,69.159 42.091,69.392C42.052,69.418 42.052,69.426 42.09,69.419C42.121,69.412 42.158,69.393 42.2,69.364C42.359,69.26 42.471,69.13 42.533,68.974C42.538,68.976 42.546,68.978 42.56,68.984C42.617,69.008 42.647,69.026 42.652,69.035C42.659,69.068 42.644,69.132 42.607,69.23C42.571,69.323 42.541,69.375 42.518,69.387C42.513,69.387 42.493,69.383 42.458,69.371C42.392,69.344 42.367,69.341 42.384,69.361C42.422,69.408 42.445,69.456 42.457,69.506C42.457,69.516 42.458,69.519 42.463,69.519C42.499,69.535 42.54,69.521 42.588,69.479C42.626,69.436 42.659,69.372 42.686,69.288C42.718,69.181 42.75,69.104 42.78,69.056C42.783,69.042 42.787,69.033 42.787,69.029C42.772,68.992 42.743,68.963 42.704,68.943C42.695,68.943 42.684,68.94 42.67,68.935C42.635,68.933 42.6,68.929 42.57,68.923C42.575,68.909 42.585,68.894 42.598,68.878C42.613,68.854 42.619,68.839 42.614,68.83C42.62,68.822 42.589,68.797 42.524,68.757C42.647,68.737 42.751,68.727 42.836,68.726C42.882,68.73 42.901,68.717 42.893,68.689C42.877,68.661 42.843,68.644 42.794,68.643ZM43.042,69.083C43.046,69.088 43.053,69.097 43.061,69.111C43.137,69.205 43.187,69.251 43.21,69.247C43.273,69.219 43.286,69.175 43.244,69.114C43.098,69.051 43.03,69.042 43.042,69.083ZM42.987,69.372C43.082,69.507 43.165,69.591 43.23,69.622C43.3,69.594 43.308,69.54 43.254,69.461C43.214,69.432 43.147,69.398 43.054,69.362C42.992,69.344 42.97,69.348 42.987,69.372ZM40.974,69.2C41.04,69.191 41.111,69.179 41.187,69.161C41.255,69.153 41.287,69.138 41.286,69.116C41.28,69.089 41.246,69.077 41.182,69.081C41.169,69.081 41.15,69.084 41.123,69.09C41.095,69.091 41.046,69.1 40.975,69.118C40.974,69.082 40.978,69.046 40.989,69.008C40.993,68.995 40.992,68.984 40.987,68.974C40.909,68.934 40.849,68.915 40.808,68.917C40.789,68.919 40.79,68.935 40.811,68.971C40.841,69.028 40.858,69.086 40.862,69.145C40.821,69.15 40.767,69.161 40.699,69.173C40.624,69.187 40.584,69.194 40.579,69.194C40.512,69.21 40.524,69.225 40.615,69.239C40.688,69.244 40.771,69.237 40.865,69.218L40.885,69.448C40.699,69.476 40.524,69.499 40.359,69.516C40.332,69.523 40.311,69.526 40.299,69.526C40.235,69.534 40.211,69.545 40.225,69.558C40.249,69.565 40.296,69.574 40.369,69.583C40.374,69.583 40.389,69.58 40.416,69.574C40.792,69.496 41.178,69.464 41.576,69.479C41.653,69.479 41.679,69.459 41.655,69.414C41.62,69.371 41.561,69.348 41.474,69.342C41.462,69.343 41.437,69.347 41.402,69.354C41.284,69.378 41.145,69.403 40.984,69.429L40.974,69.2ZM38.616,68.518C38.594,68.516 38.59,68.528 38.6,68.552C38.615,68.581 38.642,68.612 38.679,68.643C38.703,68.667 38.725,68.674 38.746,68.663C38.766,68.653 38.775,68.633 38.773,68.602C38.754,68.548 38.703,68.52 38.616,68.518ZM38.97,68.93C39.082,68.916 39.155,68.901 39.193,68.885C39.23,68.856 39.204,68.843 39.119,68.845C39.105,68.846 39.081,68.851 39.041,68.859C39.012,68.871 38.99,68.876 38.972,68.878C38.971,68.87 38.974,68.856 38.981,68.838C38.985,68.825 38.986,68.814 38.985,68.805C38.984,68.793 38.972,68.778 38.949,68.762C39.102,68.732 39.202,68.711 39.249,68.698C39.274,68.686 39.28,68.671 39.265,68.651C39.245,68.64 39.217,68.635 39.179,68.638C39.175,68.64 39.16,68.643 39.134,68.649C38.973,68.698 38.791,68.735 38.586,68.761C38.548,68.769 38.544,68.78 38.576,68.795C38.601,68.805 38.642,68.808 38.693,68.804C38.727,68.802 38.763,68.796 38.801,68.788C38.825,68.808 38.844,68.845 38.857,68.901C38.797,68.914 38.734,68.926 38.665,68.936C38.641,68.951 38.654,68.964 38.706,68.972C38.747,68.973 38.8,68.966 38.867,68.951L38.878,69.061C38.732,69.086 38.626,69.103 38.556,69.107C38.523,69.12 38.524,69.132 38.559,69.146C38.586,69.153 38.632,69.154 38.697,69.148C38.747,69.144 38.792,69.138 38.831,69.13C38.852,69.124 38.87,69.12 38.882,69.119L38.895,69.358C38.884,69.359 38.864,69.363 38.839,69.37C38.513,69.415 38.318,69.438 38.254,69.439C38.223,69.441 38.218,69.452 38.236,69.467C38.269,69.493 38.306,69.512 38.346,69.523C38.349,69.521 38.366,69.518 38.397,69.511C38.513,69.462 38.792,69.411 39.233,69.356C39.345,69.345 39.481,69.343 39.642,69.345C39.654,69.345 39.661,69.344 39.661,69.344C39.708,69.336 39.71,69.313 39.668,69.272C39.626,69.242 39.577,69.228 39.523,69.233C39.5,69.235 39.443,69.246 39.349,69.267C39.273,69.287 39.222,69.298 39.196,69.3C39.257,69.243 39.298,69.2 39.322,69.173C39.337,69.154 39.331,69.139 39.305,69.128C39.265,69.11 39.225,69.105 39.187,69.113C39.169,69.114 39.167,69.125 39.177,69.146C39.187,69.17 39.19,69.19 39.188,69.203C39.17,69.249 39.149,69.287 39.126,69.319L38.986,69.344L38.979,69.111C39.013,69.104 39.064,69.095 39.133,69.085C39.231,69.068 39.294,69.056 39.324,69.049C39.358,69.037 39.365,69.023 39.347,69.008C39.324,68.997 39.287,68.993 39.234,68.998C39.228,68.999 39.198,69.002 39.152,69.012C39.088,69.021 39.028,69.03 38.973,69.04L38.97,68.93ZM38.755,69.24C38.732,69.217 38.691,69.203 38.629,69.2C38.607,69.201 38.609,69.222 38.635,69.264C38.669,69.316 38.698,69.344 38.719,69.348C38.766,69.326 38.777,69.291 38.755,69.24ZM39.21,69.461C39.197,69.462 39.151,69.472 39.07,69.492C38.94,69.526 38.826,69.553 38.733,69.574C38.7,69.551 38.669,69.542 38.64,69.549C38.619,69.555 38.62,69.57 38.644,69.594C38.658,69.615 38.675,69.658 38.695,69.727C38.706,69.773 38.719,69.813 38.731,69.847C38.747,69.884 38.766,69.904 38.788,69.906C38.803,69.9 38.809,69.878 38.801,69.841C38.814,69.84 38.865,69.833 38.955,69.821C39.147,69.791 39.274,69.775 39.334,69.769C39.351,69.763 39.352,69.754 39.337,69.742C39.324,69.727 39.303,69.715 39.278,69.708C39.306,69.642 39.342,69.595 39.387,69.569C39.408,69.555 39.398,69.533 39.357,69.507C39.302,69.477 39.253,69.462 39.21,69.461ZM38.748,69.611C38.758,69.61 38.786,69.607 38.832,69.597C38.955,69.569 39.07,69.551 39.179,69.542C39.195,69.54 39.203,69.561 39.203,69.604C39.198,69.657 39.187,69.696 39.168,69.724L38.791,69.801L38.748,69.611Z" style="fill:rgb(44,53,99);"/>
        </g>
        <g transform="matrix(3.36653,0,0,3.36653,-63.8962,-136.46)">
            <path d="M46.031,68.158C46.227,67.944 46.286,67.757 46.287,67.583C46.289,67.379 46.183,67.268 46.082,67.148C45.973,67.02 45.868,66.885 45.808,66.727C45.761,66.607 45.78,66.412 45.842,66.216C45.962,65.827 46.345,65.564 46.708,65.564L47.612,65.564L47.617,65.094C47.624,64.811 47.472,64.566 47.364,64.306C47.284,64.117 47.239,63.914 47.242,63.703L47.262,62.576L47.27,62.576C47.372,62.741 47.473,62.905 47.577,63.066C47.707,62.855 48.033,62.705 48.413,62.705C48.907,62.705 49.309,62.958 49.309,63.267C49.309,63.437 49.187,63.59 48.995,63.693L48.995,64.869C49.075,64.965 49.148,65.064 49.212,65.168C49.349,65.388 49.421,65.647 49.372,65.912C49.25,66.583 48.118,67.242 48.105,67.937C48.103,68.077 48.111,68.4 48.096,68.643C48.091,68.755 48.093,68.851 48.063,68.906C48.01,69.011 47.906,69.032 47.801,69.01C47.576,68.963 47.279,68.647 47.073,68.702C46.892,68.75 46.838,68.926 46.808,69.099C46.763,69.363 46.691,69.623 46.571,69.87C46.455,70.106 46.323,70.284 46.215,70.408C46.137,70.497 46.068,70.543 45.985,70.569C45.903,70.595 45.808,70.599 45.685,70.564C43.262,69.873 40.443,69.873 38.019,70.564C37.897,70.599 37.801,70.595 37.72,70.569C37.638,70.543 37.568,70.497 37.491,70.408C37.381,70.284 37.25,70.106 37.135,69.87C37.015,69.623 36.942,69.363 36.897,69.099C36.867,68.926 36.812,68.75 36.631,68.702C36.426,68.647 36.129,68.963 35.905,69.01C35.799,69.032 35.695,69.011 35.641,68.906C35.612,68.851 35.613,68.755 35.607,68.643C35.593,68.4 35.603,68.077 35.599,67.937C35.586,67.242 34.456,66.583 34.334,65.912C34.285,65.647 34.356,65.388 34.492,65.168C34.557,65.064 34.631,64.965 34.709,64.869L34.709,63.693C34.518,63.59 34.396,63.437 34.396,63.267C34.396,62.958 34.798,62.705 35.291,62.705C35.673,62.705 35.998,62.855 36.128,63.066C36.231,62.905 36.334,62.741 36.436,62.576L36.444,62.576L36.462,63.703C36.466,63.914 36.42,64.117 36.341,64.306C36.234,64.566 36.081,64.811 36.088,65.094L36.093,65.564L36.997,65.564C37.359,65.564 37.744,65.827 37.864,66.216C37.925,66.412 37.944,66.607 37.897,66.727C37.836,66.885 37.731,67.02 37.623,67.148C37.523,67.268 37.416,67.379 37.417,67.583C37.419,67.757 37.481,67.948 37.678,68.164C40.671,67.514 43.003,67.512 46.031,68.158ZM45.663,70.37C45.746,70.395 45.836,70.4 45.873,70.267C46.047,69.785 45.842,69.18 45.86,68.698C45.864,68.569 45.885,68.449 45.934,68.341C43.136,67.709 40.578,67.709 37.771,68.341C37.82,68.449 37.841,68.569 37.846,68.698C37.864,69.18 37.658,69.785 37.832,70.267C37.869,70.4 37.959,70.395 38.042,70.37C40.469,69.705 43.236,69.706 45.663,70.37ZM37.682,70.346C37.567,70.115 37.571,69.789 37.601,69.462C37.632,69.124 37.687,68.786 37.643,68.554C37.61,68.391 37.533,68.33 37.446,68.205C37.231,67.898 37.106,67.493 37.35,67.182C37.509,66.978 37.731,66.803 37.732,66.597C37.734,66.362 37.672,65.88 37.142,65.771L36.017,65.765C35.971,65.968 35.923,66.475 36.031,66.656C36.2,66.948 36.417,67.308 36.44,67.741L36.461,68.548C36.473,68.544 36.482,68.541 36.494,68.537C36.494,68.537 36.812,68.417 36.971,68.746C37.077,68.965 37.082,69.251 37.16,69.49C37.227,69.7 37.339,69.929 37.474,70.104C37.517,70.162 37.636,70.326 37.682,70.346ZM35.9,65.725C35.901,65.639 35.907,65.195 35.918,64.966C35.928,64.736 36.069,64.522 36.166,64.299C36.237,64.136 36.268,63.968 36.284,63.786C36.304,63.571 36.297,63.338 36.297,63.086C36.297,63.086 35.963,63.642 35.48,64.252C35.232,64.566 34.85,64.9 34.648,65.225C34.529,65.417 34.392,65.773 34.557,66.076C34.606,66.164 34.664,66.249 34.728,66.332L34.725,66.324C34.725,66.324 35.434,66.329 35.9,65.725ZM34.87,66.502C35.245,66.929 35.723,67.342 35.771,67.94C35.772,68.044 35.744,68.74 35.805,68.804C35.834,68.832 35.889,68.863 35.975,68.816C35.975,68.816 36.132,68.703 36.303,68.617C36.299,68.473 36.289,68.143 36.272,67.786C36.258,67.503 36.149,67.162 35.974,66.908C35.816,66.678 35.771,66.363 35.8,66.096C35.8,66.096 35.337,66.423 34.87,66.502ZM34.896,64.656C35.083,64.452 35.28,64.255 35.444,64.046C35.523,63.946 35.6,63.843 35.674,63.74L34.896,63.74L34.896,64.656ZM35.81,63.547C35.88,63.445 35.948,63.344 36.014,63.241C35.991,63.029 35.661,62.86 35.291,62.86C34.908,62.86 34.566,63.043 34.566,63.267C34.566,63.372 34.643,63.469 34.764,63.542C34.809,63.561 34.853,63.571 34.896,63.575L35.746,63.575C35.772,63.575 35.787,63.56 35.81,63.547ZM46.024,70.346C46.139,70.115 46.133,69.789 46.104,69.462C46.074,69.124 46.018,68.786 46.063,68.554C46.095,68.391 46.172,68.33 46.26,68.205C46.475,67.898 46.599,67.493 46.355,67.182C46.196,66.978 45.973,66.803 45.972,66.597C45.971,66.362 46.034,65.88 46.564,65.771L47.688,65.765C47.734,65.968 47.781,66.475 47.675,66.656C47.505,66.948 47.288,67.308 47.265,67.741L47.244,68.548C47.233,68.544 47.221,68.541 47.211,68.537C47.211,68.537 46.894,68.417 46.735,68.746C46.628,68.965 46.624,69.251 46.545,69.49C46.478,69.7 46.365,69.929 46.232,70.104C46.188,70.162 46.069,70.326 46.024,70.346ZM47.804,65.725C47.803,65.639 47.799,65.195 47.788,64.966C47.777,64.736 47.635,64.522 47.539,64.299C47.469,64.136 47.438,63.968 47.421,63.786C47.401,63.571 47.408,63.338 47.408,63.086C47.408,63.086 47.742,63.642 48.224,64.252C48.473,64.566 48.855,64.9 49.058,65.225C49.176,65.417 49.313,65.773 49.148,66.076C49.099,66.164 49.042,66.249 48.977,66.332L48.98,66.324C48.98,66.324 48.271,66.329 47.804,65.725ZM48.834,66.502C48.461,66.929 47.982,67.342 47.934,67.94C47.933,68.044 47.961,68.74 47.9,68.804C47.871,68.832 47.816,68.863 47.73,68.816C47.73,68.816 47.572,68.703 47.402,68.617C47.407,68.473 47.416,68.143 47.434,67.786C47.446,67.503 47.557,67.162 47.731,66.908C47.89,66.678 47.934,66.363 47.905,66.096C47.905,66.096 48.368,66.423 48.834,66.502ZM48.809,64.656C48.623,64.452 48.425,64.255 48.261,64.046C48.181,63.946 48.104,63.843 48.031,63.74L48.809,63.74L48.809,64.656ZM47.894,63.547C47.824,63.445 47.757,63.344 47.69,63.241C47.714,63.029 48.045,62.86 48.413,62.86C48.798,62.86 49.139,63.043 49.139,63.267C49.139,63.372 49.063,63.469 48.94,63.542C48.896,63.561 48.853,63.571 48.809,63.575L47.96,63.575C47.933,63.575 47.918,63.56 47.894,63.547Z" style="fill:rgb(44,53,99);"/>
        </g>
    </g>
</svg>
