<?xml version="1.0" encoding="UTF-8" standalone="no"?>
<!DOCTYPE svg PUBLIC "-//W3C//DTD SVG 1.1//EN" "http://www.w3.org/Graphics/SVG/1.1/DTD/svg11.dtd">
<svg width="100%" height="100%" viewBox="0 0 154 157" version="1.1" xmlns="http://www.w3.org/2000/svg" xmlns:xlink="http://www.w3.org/1999/xlink" xml:space="preserve" xmlns:serif="http://www.serif.com/" style="fill-rule:evenodd;clip-rule:evenodd;stroke-linejoin:round;stroke-miterlimit:2;">
    <g>
        <g transform="matrix(1.14129,0,0,1.13636,-10.6626,5.77273)">
            <path d="M33,63.977C33,88.268 52.627,108 76.813,108L76.813,106.169C53.611,106.169 34.833,87.284 34.833,63.977C34.833,40.717 53.611,21.742 76.813,21.742C99.967,21.742 118.833,40.717 118.833,63.977C118.833,87.284 99.967,106.169 76.813,106.169L76.813,108C100.95,108 120.62,88.268 120.62,63.977C120.62,39.736 100.95,20 76.813,20C52.627,20 33,39.736 33,63.977Z" style="fill:rgb(0,96,151);"/>
        </g>
        <g transform="matrix(1.14129,0,0,1.13636,-10.6626,5.77273)">
            <path d="M45.16,63.977C45.16,81.525 59.33,95.811 76.813,95.811L76.813,94.608C60.002,94.608 46.367,80.9 46.367,63.977C46.367,47.1 60.002,33.393 76.813,33.393C93.618,33.393 107.253,47.1 107.253,63.977C107.253,80.9 93.618,94.608 76.813,94.608L76.813,95.811C94.245,95.811 108.46,81.525 108.46,63.977C108.46,46.475 94.245,32.189 76.813,32.189C59.33,32.189 45.16,46.475 45.16,63.977Z" style="fill:rgb(0,96,151);"/>
        </g>
        <g transform="matrix(1.14129,0,0,1.13636,-10.6626,5.77273)">
            <path d="M66.483,38.931C66.393,39.291 66.261,39.647 65.992,40.093C65.633,40.449 65.364,40.717 65.01,40.983L65.364,41.783C65.992,41.338 66.393,40.85 66.753,40.361L68.269,43.704L69.523,43.13L67.557,38.528L66.483,38.931Z" style="fill:rgb(0,96,151);"/>
        </g>
        <g transform="matrix(1.14129,0,0,1.13636,-10.6626,5.77273)">
            <path d="M73.054,41.431L73.054,42.28C72.561,42.323 72.204,42.28 71.938,42.146C71.49,41.968 71.31,41.694 71.087,41.295L72.475,40.983C72.561,41.207 72.652,41.295 72.786,41.338C72.829,41.431 72.92,41.431 73.054,41.431ZM73.054,37.1L73.054,37.859C72.962,37.859 72.92,37.859 72.829,37.946C72.561,37.946 72.341,38.083 72.204,38.219C72.07,38.352 71.983,38.662 72.07,38.931C72.07,39.291 72.204,39.513 72.427,39.647C72.561,39.736 72.829,39.775 73.054,39.736L73.054,40.492C72.427,40.58 71.938,40.492 71.447,40.227C70.999,40.001 70.731,39.647 70.641,39.154C70.598,38.662 70.731,38.219 71.133,37.815C71.49,37.451 72.07,37.237 72.786,37.1L73.054,37.1ZM74.665,37.451C74.262,37.146 73.68,37.011 73.054,37.1L73.054,37.859C73.19,37.859 73.414,37.946 73.635,38.083C73.815,38.219 73.994,38.437 74.037,38.708C74.037,39.022 73.994,39.196 73.815,39.426C73.68,39.556 73.414,39.736 73.19,39.736L73.054,39.736L73.054,40.492C73.546,40.449 73.994,40.227 74.305,39.863C74.305,40.449 74.262,40.85 74.128,41.071C73.906,41.295 73.68,41.431 73.414,41.431C73.28,41.477 73.144,41.477 73.054,41.431L73.054,42.28L73.414,42.28C74.171,42.146 74.84,41.783 75.245,41.338C75.739,40.85 75.87,40.135 75.739,39.196C75.602,38.352 75.245,37.725 74.665,37.451Z" style="fill:rgb(0,96,151);"/>
        </g>
        <g transform="matrix(1.14129,0,0,1.13636,-10.6626,5.77273)">
            <path d="M79.403,36.965L79.403,37.725C79.269,37.815 79.223,37.815 79.135,37.815C78.998,37.859 78.864,37.992 78.777,38.172C78.643,38.437 78.554,38.888 78.509,39.426C78.42,40.001 78.42,40.449 78.509,40.629C78.554,40.85 78.643,40.983 78.777,41.115C78.911,41.207 79.044,41.295 79.223,41.295L79.403,41.295L79.403,42.058L79.135,42.058C78.42,41.968 77.881,41.783 77.436,41.295C77.078,40.94 76.853,40.227 77.034,39.196C77.078,38.306 77.436,37.682 77.926,37.324C78.375,37.011 78.777,36.877 79.403,36.965ZM79.714,36.965L79.403,36.965L79.403,37.725C79.492,37.725 79.537,37.725 79.626,37.815C79.76,37.815 79.894,37.815 80.074,37.946C80.206,37.992 80.25,38.172 80.342,38.352C80.386,38.571 80.386,39.065 80.342,39.647C80.25,40.227 80.206,40.629 80.074,40.85C79.985,41.071 79.851,41.207 79.714,41.207C79.626,41.295 79.492,41.295 79.403,41.295L79.403,42.058C79.985,42.146 80.474,41.968 80.877,41.783C81.413,41.431 81.728,40.716 81.817,39.775C81.954,38.888 81.817,38.172 81.326,37.682C80.965,37.324 80.386,37.011 79.714,36.965Z" style="fill:rgb(0,96,151);"/>
        </g>
        <g transform="matrix(1.14129,0,0,1.13636,-10.6626,5.77273)">
            <path d="M84.006,37.815L83.649,38.571L86.69,39.863C85.842,40.135 85.123,40.492 84.498,40.983C83.875,41.567 83.427,42.146 83.156,42.771L84.454,43.262C84.587,42.86 84.855,42.503 85.26,41.968C85.703,41.567 86.197,41.207 86.777,40.85C87.314,40.58 87.896,40.361 88.298,40.227L88.612,39.556L84.006,37.815Z" style="fill:rgb(0,96,151);"/>
        </g>
        <g transform="matrix(1.14129,0,0,1.13636,-10.6626,5.77273)">
            <path d="M51.282,39.196C50.926,38.797 50.08,37.946 49.181,37.325C48.381,36.654 47.529,36.255 47.036,36.609C46.545,36.965 46.679,37.146 46.637,37.589C46.501,37.859 46.277,38.083 46.053,38.306C45.785,38.528 45.16,38.931 44.848,39.375C44.802,39.647 44.354,39.513 44.311,39.736C44.22,39.913 44.086,40.093 44.174,40.272C44.445,41.207 46.411,43.13 46.411,43.13C46.411,43.13 47.351,44.067 47.351,43.979C47.976,44.692 48.69,45.272 48.872,45.406C49.227,45.448 49.675,45.406 49.583,45.272C49.227,44.6 48.243,43.979 47.842,43.396C47.261,42.639 46.637,42.058 46.053,41.339C45.922,41.207 45.785,40.94 45.651,40.717C45.562,40.629 45.562,40.449 45.651,40.227C45.696,40.093 45.922,39.863 46.143,39.556C46.411,39.065 46.859,38.571 47.036,38.083C47.215,37.946 47.482,37.725 47.482,37.725C47.707,37.502 48.11,37.589 48.335,37.682C48.604,37.725 49.406,38.437 50.389,39.427C51.059,40.093 51.242,40.001 51.416,40.76C51.509,41.071 51.148,40.983 51.148,41.115C51.017,41.477 51.017,41.783 51.733,41.968C51.865,42.058 52.134,42.187 52.267,42.058C52.356,41.968 52.267,41.829 52.222,41.567C51.908,40.717 52.088,40.361 51.282,39.196Z" style="fill:rgb(0,96,151);"/>
        </g>
        <g transform="matrix(1.14129,0,0,1.13636,-10.6626,5.77273)">
            <path d="M47.887,39.913C47.887,39.736 47.75,39.513 47.529,39.427C47.215,39.375 46.679,40.135 46.768,40.272C46.768,40.492 46.859,40.717 46.993,40.629C47.127,40.629 47.976,40.272 47.887,39.913Z" style="fill:rgb(0,96,151);"/>
        </g>
        <g transform="matrix(1.14129,0,0,1.13636,-10.6626,5.77273)">
            <path d="M49.318,40.58C48.96,40.629 48.558,40.717 48.47,40.717C48.201,41.071 48.11,41.295 47.707,41.694C47.75,41.694 47.616,42.058 47.75,42.186C47.842,42.411 48.067,42.546 48.335,42.68C48.558,42.771 49.094,42.902 49.318,42.323C49.406,42.058 49.047,41.917 48.872,41.829L48.872,41.694L49.094,41.694C49.094,41.652 49.583,41.829 49.72,41.829C49.9,41.477 50.168,40.983 49.9,40.58C49.72,40.361 49.583,40.492 49.318,40.58Z" style="fill:rgb(0,96,151);"/>
        </g>
        <g transform="matrix(1.14129,0,0,1.13636,-10.6626,5.77273)">
            <path d="M64.205,26.431C64.291,26.384 64.291,26.384 64.385,26.297C64.071,25.94 63.67,25.313 63.536,25.359C63.442,25.447 63.399,25.447 63.308,25.671C63.177,25.897 63.219,26.071 63.67,26.384C63.89,26.431 64.024,26.431 64.205,26.431Z" style="fill:rgb(0,96,151);"/>
        </g>
        <g transform="matrix(1.14129,0,0,1.13636,-10.6626,5.77273)">
            <path d="M67.423,26.915C67.466,27.013 67.557,27.144 67.557,27.278C67.466,27.589 67.332,27.723 67.243,27.857C67.109,28.083 67.198,28.348 67.332,28.437C67.825,28.574 67.914,27.765 67.914,27.098C67.914,26.787 67.825,26.516 67.825,26.297C67.914,26.071 68.314,25.897 68.406,25.94C68.451,26.162 68.537,26.516 68.762,26.879C68.896,27.229 69.256,27.589 69.39,27.635C70.016,27.857 69.745,27.366 69.745,26.915C69.745,26.879 69.657,26.879 69.611,26.879C69.434,26.879 69.3,26.915 69.164,26.787C69.12,26.742 68.674,25.809 68.674,25.671C68.762,25.537 69.12,25.359 69.164,25.18C69.256,24.997 69.164,24.734 69.12,24.734C68.939,24.825 67.958,25.94 67.825,26.071C67.694,26.162 67.557,26.162 67.466,26.071C67.423,26.025 67.332,25.537 68.092,24.508C68.314,24.154 68.269,24.154 68.092,24.017C67.958,23.974 67.778,24.154 67.557,24.154C67.332,24.154 67.198,24.105 67.198,24.017C67.109,23.886 67.198,23.663 67.109,23.529C66.975,23.169 66.393,23.395 66.127,23.751C65.858,24.105 65.01,25.714 65.364,26.025C65.724,26.205 66.084,25.447 66.393,25.09C66.753,24.734 67.109,24.734 67.198,24.734C67.557,24.734 66.753,25.94 67.064,26.879C67.064,27.098 66.707,27.366 66.483,27.229C66.483,27.229 66.127,26.653 65.858,26.516C65.724,26.516 65.499,27.098 65.724,27.366C65.858,27.723 66.573,27.589 65.499,29.021C65.23,29.284 65.23,29.692 65.23,30.001C65.23,30.402 65.364,30.759 65.633,30.759C65.992,30.847 66.218,30.402 66.261,30.265C66.393,30.137 66.617,29.558 66.707,28.926C66.753,28.486 66.617,28.083 66.753,27.723C66.93,27.453 67.109,27.229 67.423,26.915Z" style="fill:rgb(0,96,151);"/>
        </g>
        <g transform="matrix(1.14129,0,0,1.13636,-10.6626,5.77273)">
            <path d="M63.934,27.992C64.292,27.501 64.158,27.098 63.579,26.742C63.399,26.653 63.536,27.144 63.536,27.501C63.579,27.589 63.536,27.992 63.536,28.126C63.442,28.305 63.536,28.795 63.934,27.992Z" style="fill:rgb(0,96,151);"/>
        </g>
        <g transform="matrix(1.14129,0,0,1.13636,-10.6626,5.77273)">
            <path d="M64.653,31.609L64.653,30.625C64.562,30.402 64.158,29.867 63.8,28.795C63.71,28.574 63.442,28.574 63.442,28.795C63.442,28.926 63.89,30.265 63.934,31.116C64.024,31.835 64.071,32.546 64.158,33.259C64.205,33.66 64.876,34.467 65.01,34.377C65.142,34.328 65.23,34.196 65.055,33.526C64.918,32.906 64.784,32.277 64.653,31.609Z" style="fill:rgb(0,96,151);"/>
        </g>
        <g transform="matrix(1.14129,0,0,1.13636,-10.6626,5.77273)">
            <path d="M72.427,25.94C72.341,25.897 72.204,26.025 72.07,26.025C71.49,26.071 70.999,26.162 70.597,26.071C70.461,26.071 70.284,26.025 70.284,25.897C70.239,25.809 70.284,25.671 70.284,25.447C70.284,25.313 70.239,25.09 70.105,25.09C69.879,25.09 69.657,25.313 69.611,25.447C69.434,25.58 69.39,25.671 69.39,26.071C69.3,26.297 69.3,26.431 69.434,26.516C69.611,26.653 69.97,26.653 70.284,26.653C70.955,26.742 71.712,26.879 71.982,26.742C72.293,26.653 72.561,26.431 72.652,26.384C72.698,26.205 72.698,26.025 72.427,25.94Z" style="fill:rgb(0,96,151);"/>
        </g>
        <g transform="matrix(1.14129,0,0,1.13636,-10.6626,5.77273)">
            <path d="M70.105,27.946C69.879,27.857 69.745,27.992 69.523,28.218C69.3,28.437 69.434,29.33 69.163,29.692C69.163,29.646 69.03,29.558 68.939,29.33C68.896,29.199 68.896,29.021 68.674,28.926C68.537,28.837 68.537,29.065 68.406,29.199C68.182,29.51 68.048,29.692 67.958,29.773C67.6,29.911 67.778,29.199 67.466,29.021C67.332,28.795 67.064,29.199 67.109,29.558C67.109,29.773 67.243,30.137 67.243,30.353C67.332,30.582 67.332,30.893 67.332,30.984C67.466,31.341 67.557,31.786 67.778,32.058C67.958,32.323 68.269,32.277 68.092,31.609C68.092,31.25 67.778,30.625 67.958,30.265C68.092,30.047 68.406,30.047 68.537,30.225C68.674,30.402 68.674,30.847 68.805,30.893C68.939,31.116 69.163,30.847 69.256,30.625C69.3,30.582 69.3,30.265 69.434,29.911C69.434,29.692 69.611,29.558 69.657,29.33C69.745,29.065 69.745,28.837 69.97,28.837C70.239,28.795 70.371,29.155 70.505,29.33C70.505,29.558 70.597,29.692 70.641,30C70.731,30.225 70.641,30.893 70.641,31.341C70.597,31.564 70.597,31.701 70.597,31.786C70.731,31.921 70.865,31.967 70.999,30.984C71.087,29.911 71.133,29.911 70.999,29.155C70.999,28.574 70.371,27.992 70.105,27.946Z" style="fill:rgb(0,96,151);"/>
        </g>
        <g transform="matrix(1.14129,0,0,1.13636,-10.6626,5.77273)">
            <path d="M91.163,26.205C90.803,26.384 89.998,26.915 89.509,27.589C88.973,28.218 88.879,28.437 88.653,28.304C88.478,28.304 88.522,28.304 88.164,28.083C87.762,27.946 87.448,27.946 87.137,27.857C86.823,27.765 86.422,28.083 86.334,28.304C86.197,28.574 86.334,28.574 86.553,28.708C86.69,28.837 87.448,29.065 87.674,29.065C87.807,29.021 88.03,29.065 87.987,29.199C87.987,29.284 87.049,30.001 86.69,30.265C86.334,30.491 85.618,30.984 85.484,31.204C85.214,31.475 85.572,31.701 85.795,31.701C85.926,31.701 86.285,31.429 86.823,31.25C87.448,31.116 87.896,30.847 88.164,30.625C88.478,30.402 89.013,29.773 89.147,29.692C89.326,29.646 90.489,30.491 90.803,30.491C90.935,30.402 91.163,30.225 91.338,30.047C91.563,29.867 91.426,29.646 91.163,29.646C90.848,29.558 90.221,29.33 89.864,29.155C89.509,28.926 89.817,28.795 89.998,28.574C90.175,28.348 91.027,27.589 91.426,27.144C91.919,26.742 92.011,26.431 91.919,26.384C91.831,26.162 91.518,26.162 91.163,26.205Z" style="fill:rgb(0,96,151);"/>
        </g>
        <g transform="matrix(1.14129,0,0,1.13636,-10.6626,5.77273)">
            <path d="M89.457,31.25C89.326,31.25 89.147,31.609 89.013,31.786C88.973,31.921 89.104,32.189 89.104,32.457C89.147,32.771 89.509,33.393 89.727,33.526C89.864,33.617 89.998,33.393 90.312,32.994C90.577,32.546 90.577,32.546 90.221,32.058C89.951,31.609 89.727,31.25 89.457,31.25Z" style="fill:rgb(0,96,151);"/>
        </g>
        <g transform="matrix(1.14129,0,0,1.13636,-10.6626,5.77273)">
            <path d="M110.919,39.736C110.785,39.427 109.891,39.154 109.665,39.022C109.308,38.888 109.576,38.662 109.576,38.571C109.534,38.437 109.221,38.528 109.086,38.352C108.952,38.219 108.952,37.993 109.041,37.946C109.041,37.859 109.086,37.815 108.952,37.682C108.818,37.502 108.818,37.682 108.371,37.682C107.969,37.682 107.969,37.725 107.969,37.815C107.969,37.946 107.969,38.083 107.744,38.172C107.476,38.219 107.253,38.306 107.121,38.528C106.895,38.797 106.761,38.888 106.761,38.931C106.761,39.022 106.895,39.065 106.986,39.065C107.121,39.065 107.61,38.797 107.832,38.708C107.969,38.662 108.46,38.528 108.551,38.571C108.684,38.662 108.684,38.888 108.594,38.888C108.551,38.931 108.46,38.931 108.329,38.888C108.103,38.888 107.523,39.065 107.34,39.196C107.121,39.375 107.029,39.556 107.163,39.647C107.34,39.863 108.551,39.863 108.818,39.775C108.862,39.775 108.952,39.427 109.308,39.427C109.534,39.427 109.802,39.647 109.936,39.736C110.067,39.863 110.205,39.863 110.159,40.001C110.159,40.135 109.936,40.135 109.71,40.227C109.576,40.227 109.534,40.135 109.534,40.001C109.534,39.863 109.443,39.775 109.221,39.863C109.041,39.863 108.728,40.093 108.46,40.135C108.103,40.227 107.389,40.272 107.253,40.272C107.121,40.272 106.405,39.196 106.179,39.065C106.05,38.888 106.135,38.797 106.135,38.662C106.135,38.571 107.476,37.815 107.877,37.589C108.371,37.363 108.46,37.146 108.46,36.965C108.371,36.654 107.877,36.789 107.61,37.011C107.34,37.146 106.67,37.682 106.536,37.859C106.359,37.993 106.135,38.306 106.001,38.219C105.778,38.172 105.778,37.725 105.69,37.589C105.644,37.451 105.51,37.451 105.285,37.451C104.971,37.502 104.837,37.815 104.171,38.172C103.854,38.352 103.723,38.352 103.589,38.528C103.498,38.571 103.498,38.797 103.589,38.888C103.723,39.022 104.079,38.931 104.302,38.888C104.482,38.888 104.66,38.708 104.794,38.662C104.837,38.662 105.285,39.154 105.553,39.375C105.824,39.556 106.761,40.717 106.895,40.76C107.389,41.071 107.969,41.917 107.969,41.968C108.012,42.058 108.103,42.187 107.969,42.28C107.744,42.411 107.744,42.411 107.744,42.546C107.832,42.639 108.371,43.037 108.551,43.13C108.728,43.13 109.221,43.13 109.308,42.902C109.443,42.86 109.221,42.68 109.175,42.546C109.041,42.411 109.041,42.058 108.818,41.917C108.551,41.783 107.61,40.629 107.61,40.629C107.61,40.58 108.237,40.449 108.371,40.492C108.551,40.58 108.551,40.85 108.818,40.94C108.952,40.94 108.952,40.85 109.086,40.85C109.308,40.76 109.308,40.85 110.023,40.85C110.739,40.76 110.785,40.717 110.919,40.449C111.053,40.272 111.141,40.001 110.919,39.736Z" style="fill:rgb(0,96,151);"/>
        </g>
        <g transform="matrix(1.14129,0,0,1.13636,-10.6626,5.77273)">
            <path d="M106.179,41.431C106.135,41.295 105.285,40.361 105.062,40.227C104.837,40.135 104.703,40.135 104.57,40.227C104.482,40.361 104.302,40.58 104.214,40.629C104.171,40.717 104.436,40.94 104.57,40.983C104.703,41.115 104.928,41.431 105.062,41.477C105.285,41.567 105.553,41.477 105.51,41.694C105.51,41.829 105.062,42.186 104.837,42.146C104.436,42.146 104.079,41.477 103.631,41.115C103.498,40.983 103.229,40.983 103.097,40.983C102.963,40.85 102.783,40.983 102.783,41.071C102.783,41.207 102.963,41.338 102.963,41.477C103.007,41.694 103.141,41.783 103.365,41.917C103.723,42.146 104.079,42.503 104.214,42.639C104.302,42.771 104.436,42.902 103.988,43.13C103.631,43.351 103.141,43.485 102.737,43.351C102.29,43.13 102.021,42.86 101.977,42.546C101.887,42.323 101.755,42.639 101.663,42.86C101.62,43.037 101.395,43.351 101.444,43.485C101.529,43.616 101.529,43.704 101.887,43.842C102.247,43.887 103.097,44.11 103.455,44.067C104.214,43.979 104.482,43.396 104.66,43.396C104.703,43.396 104.837,43.616 104.971,43.704C105.062,43.753 105.285,44.201 105.553,44.201C105.778,44.201 106.05,44.11 105.911,43.616C105.824,43.396 105.644,43.396 105.33,42.991C105.33,42.86 105.51,42.546 105.553,42.546C105.644,42.639 106.536,42.639 106.67,42.546C106.761,42.503 106.895,42.058 106.852,41.968C106.852,41.829 106.268,41.477 106.179,41.431Z" style="fill:rgb(0,96,151);"/>
        </g>
        <g transform="matrix(1.14129,0,0,1.13636,-10.6626,5.77273)">
            <path d="M58.617,62.95C58.527,63.087 58.437,63.175 58.347,63.264C57.631,64.425 56.648,68.308 56.962,70.094C57.276,71.746 57.409,72.817 58.617,74.293L58.617,62.95ZM58.617,47.325L58.617,50.94C57.902,51.611 57.142,51.745 57.451,52.187C57.631,52.545 58.079,52.504 58.617,52.681L58.617,55.134C58.391,55.046 58.125,55.046 57.857,55.046C56.38,55.134 55.531,55.896 55.531,56.522C55.531,57.191 56.246,64.644 56.024,65.898C55.798,67.193 54.189,71.387 54.681,73.442C55.263,75.407 57.32,77.282 57.811,77.282C57.99,77.237 58.301,77.099 58.617,76.965L58.617,84.381C56.962,82.555 53.744,78.799 52.714,76.566C51.282,73.488 52.222,71.612 52.627,68.485C53.072,65.361 52.938,60.313 52.49,57.546C51.999,53.753 53.118,53.488 54.326,52.279C55.44,51.166 56.648,50.94 56.962,49.289C57.096,48.081 56.246,47.544 56.157,46.88C56.066,46.342 57.723,46.609 58.617,47.325ZM58.617,50.94L58.617,47.325C58.794,47.459 58.973,47.637 59.062,47.816C59.642,48.795 59.686,49.866 58.839,50.714C58.794,50.806 58.705,50.895 58.617,50.94ZM58.617,55.134C59.421,55.317 59.956,55.896 60.358,56.028L60.358,56.122L60.358,53.935C60.267,53.753 60.178,53.709 60.047,53.581C59.555,52.996 59.016,52.773 58.617,52.681L58.617,55.134ZM58.617,74.293C58.705,74.43 58.794,74.517 58.928,74.648C59.33,75.047 59.91,75.362 60.358,75.63L60.358,71.923C60.267,71.792 60.178,71.654 60.178,71.612C59.686,70.719 59.153,69.025 59.511,67.059C59.779,65.183 59.642,64.553 60.267,64.203L60.358,64.154L60.358,61.167C59.642,61.879 58.973,62.504 58.617,62.95L58.617,74.293ZM58.617,84.381C59.244,85.098 59.642,85.497 59.642,85.497C59.642,85.497 59.421,86.212 59.153,86.793C58.928,87.42 59.511,87.551 59.825,87.551C59.91,87.551 60.178,87.284 60.358,86.926L60.358,80.586C59.686,80.183 59.153,79.47 58.928,78.888C58.794,78.359 58.213,77.994 59.153,77.775C59.33,77.775 59.825,77.775 60.358,77.822L60.358,76.615C60.047,76.703 59.686,76.703 59.421,76.703C59.104,76.746 58.839,76.837 58.617,76.965L58.617,84.381ZM60.672,80.767L60.672,86.256C60.583,86.389 60.449,86.657 60.358,86.837L60.358,80.586C60.449,80.678 60.583,80.72 60.672,80.767ZM60.672,76.615L60.672,77.865C60.583,77.865 60.449,77.865 60.358,77.822L60.358,76.615L60.672,76.615ZM60.672,72.463L60.672,75.807L60.358,75.63L60.358,71.923C60.449,72.104 60.583,72.283 60.672,72.463ZM60.672,60.853L60.672,63.934C60.583,63.977 60.449,64.066 60.358,64.154L60.358,61.167L60.672,60.853ZM60.672,54.421L60.672,56.122C60.583,56.165 60.495,56.122 60.358,56.122L60.358,53.935C60.495,54.067 60.583,54.246 60.672,54.421ZM65.23,88.579C65.992,88.892 66.707,89.115 67.243,89.249L67.243,84.875C66.841,84.784 66.483,84.557 66.753,83.887C66.841,83.579 67.064,83.221 67.243,82.862L67.243,80.678C66.707,81.483 65.858,82.458 65.23,82.862L65.23,88.579ZM67.243,57.33C66.483,57.33 65.633,57.33 65.23,57.237L65.23,58.618C65.858,58.392 66.707,58.176 67.243,58.176L67.243,57.33ZM65.23,71.387C65.724,69.513 66.393,67.461 66.707,66.347C66.753,66.209 67.064,66.253 67.243,66.121L67.243,64.782C67.198,64.782 67.109,64.691 67.198,64.553C67.198,64.514 67.243,64.334 67.243,64.203L67.243,61.387L67.243,61.432C67.064,62.015 66.841,62.724 66.573,63.44C66.218,64.691 66.617,65.049 65.59,65.276L65.23,65.276L65.23,66.347C65.499,66.347 65.724,66.347 65.633,66.391C65.59,66.61 65.499,67.327 65.23,68.174L65.23,71.387ZM67.243,75.01C66.753,74.916 65.858,75.01 65.23,75.01L65.23,76.075C65.59,76.121 65.901,76.121 66.127,76.209C66.617,76.209 66.841,76.254 67.243,77.056L67.243,77.148L67.243,75.01ZM67.243,89.249L67.243,84.875C67.466,84.918 67.778,84.918 67.958,84.918C68.092,84.918 68.269,85.006 68.406,85.006L68.406,89.424C68.092,89.424 67.825,89.424 67.557,89.337C67.466,89.337 67.332,89.249 67.243,89.249ZM67.243,64.203L67.243,61.387C67.778,59.96 68.092,58.932 68.092,58.309C68.092,58.176 67.825,58.083 67.243,58.176L67.243,57.33L68.406,57.33L68.406,60.853C68.048,61.789 67.6,63.087 67.243,64.203ZM67.243,66.121C67.332,66.121 67.466,66.121 67.557,65.983C67.6,65.854 67.694,65.361 67.6,65.049C67.6,64.828 67.423,64.828 67.243,64.782L67.243,66.121ZM68.406,75.944L68.406,81.751C68.048,81.969 67.6,82.37 67.243,82.862L67.243,80.678C67.6,80.229 67.825,79.915 67.825,79.739C67.958,79.245 67.6,77.994 67.243,77.148L67.243,75.01C67.332,75.01 67.423,75.047 67.466,75.047C67.914,75.229 68.092,75.362 68.406,75.944ZM68.406,89.424C68.939,89.471 69.523,89.56 69.97,89.56L69.97,85.006C69.611,85.232 69.03,85.098 68.406,85.006L68.406,89.424ZM68.406,60.853C68.674,59.872 68.896,59.247 68.939,59.112C69.03,58.883 69.611,58.932 69.97,58.932L69.97,57.546C69.745,57.415 69.12,57.33 68.406,57.33L68.406,60.853ZM69.97,78.621C69.164,78.708 68.896,78.708 68.585,77.148C68.537,76.566 68.451,76.209 68.406,75.944L68.406,81.751C68.451,81.66 68.585,81.66 68.585,81.66C68.896,81.66 69.256,82.82 69.39,83.353C69.523,83.664 69.791,84.066 69.97,84.427L69.97,84.516L69.97,80.767C69.879,80.541 69.791,80.406 69.97,80.183L69.97,78.621ZM69.97,63.575C69.657,64.291 69.3,65.008 69.164,65.361C68.451,67.281 68.314,69.113 68.762,70.539C69.164,71.881 69.611,72.817 69.97,73.488L69.97,73.576L69.97,63.575ZM69.97,89.56L69.97,85.006C70.105,84.875 70.105,84.738 69.97,84.516L69.97,80.808C70.016,80.9 70.105,81.034 70.15,81.254C70.371,81.879 70.641,82.324 70.999,83.53C71.31,84.293 71.49,84.738 71.712,84.918L71.712,91.882C71.31,92.197 70.731,91.656 70.731,91.656C70.731,91.656 70.865,91.254 70.955,90.9C71.087,90.674 71.087,90.406 71.222,90.141C71.356,89.697 70.865,89.697 69.97,89.56ZM69.97,58.932C70.016,58.932 70.016,58.932 70.105,58.883C70.461,58.756 70.597,57.952 69.97,57.546L69.97,58.932ZM71.712,60.313L71.712,64.154C71.222,64.553 71.087,65.854 70.999,66.61C70.775,68.132 71.222,69.245 71.712,70.184L71.712,80.452C71.578,80.406 71.447,80.406 71.31,80.314C70.461,79.915 70.371,79.739 70.016,80.183L69.97,80.183L69.97,78.621C70.016,78.621 70.016,78.533 70.105,78.533C70.955,78.533 71.624,78.533 71.624,77.822C71.624,77.194 71.356,75.944 70.999,75.407C70.731,74.916 70.371,74.381 69.97,73.576L69.97,63.575C70.284,62.77 70.641,62.015 70.865,61.565C71.133,60.941 71.356,60.719 71.712,60.313ZM71.712,53.709L71.712,55.406C71.49,55.18 71.356,54.92 71.447,54.332C71.49,54.067 71.578,53.846 71.712,53.709ZM71.712,91.882C71.712,91.837 71.803,91.837 71.803,91.837C71.938,91.614 72.114,91.167 72.204,90.629C72.341,89.963 72.475,89.786 72.475,89.786C72.475,89.786 73.414,89.829 74.485,89.912L74.485,85.857C74.305,85.808 74.171,85.72 74.128,85.585C73.68,84.875 74.037,83.933 74.485,82.728L74.485,79.245C74.037,79.333 73.906,78.04 73.906,77.325C73.815,76.703 73.635,76.615 73.769,75.63C73.769,75.276 74.128,75.499 74.485,75.764L74.485,73.442C73.769,72.996 72.92,72.283 72.427,71.524C72.204,71.169 71.938,70.719 71.712,70.23L71.712,70.184L71.712,80.452C72.341,80.808 72.698,81.12 73.054,81.254C73.501,81.483 73.635,81.791 73.324,83.042C72.962,84.293 72.786,85.098 72.294,85.137C72.07,85.137 71.846,85.137 71.712,84.918L71.712,91.882ZM74.485,54.957C74.128,54.558 73.906,54.11 73.635,53.935C73.28,53.617 72.204,53.087 71.712,53.709L71.712,55.406C72.07,55.674 72.652,55.628 73.28,55.85C74.037,56.028 74.305,56.746 74.128,57.101C73.501,58.176 72.786,58.883 72.114,59.734C71.938,60.006 71.803,60.183 71.712,60.313L71.712,64.154C71.803,64.066 71.803,63.977 71.938,63.977C72.475,63.846 73.68,65.361 74.485,65.898L74.485,63.13C73.994,62.233 73.414,61.033 73.906,59.96C73.994,59.6 74.171,59.292 74.485,58.932L74.485,54.957ZM76.853,68.84L76.853,76.791C76.676,76.703 76.499,76.791 76.362,76.837C76.004,76.965 75.87,77.636 75.602,78.842C75.379,80.095 75.245,80.049 74.753,81.751C74.665,82.017 74.622,82.37 74.485,82.684L74.485,82.728L74.485,79.245C74.889,79.202 74.979,77.994 75.023,77.462C75.245,76.615 75.379,76.435 74.979,76.121C74.889,76.075 74.665,75.944 74.485,75.764L74.485,73.442L74.485,73.488C74.889,73.71 75.245,73.841 75.513,73.841C75.827,73.841 76.451,70.941 76.853,68.84ZM76.853,65.137L76.853,66.391C76.318,66.253 75.334,66.391 74.753,66.121C74.665,66.075 74.622,65.983 74.485,65.898L74.485,63.13L74.485,63.215C74.665,63.62 74.979,63.977 75.111,64.291C75.468,64.782 76.182,65.049 76.853,65.137ZM74.485,89.912L74.485,85.857L74.485,85.946C75.023,86.125 76.004,85.988 76.853,85.808L76.853,89.963L76.719,89.963C76.228,89.963 75.334,89.963 74.485,89.912ZM76.853,56.028L76.853,57.191C76.499,57.33 76.228,57.456 75.87,57.682C75.379,58.037 74.889,58.441 74.485,58.932L74.485,54.957C74.889,55.628 75.334,56.165 75.602,56.122C75.87,56.122 76.362,56.028 76.853,56.028ZM76.853,89.963C77.57,89.963 79.135,89.912 80.566,89.912L80.608,89.912L80.608,86.076L80.566,86.076C79.894,86.299 79.492,86.125 79.714,85.72C79.851,85.455 80.25,84.918 80.566,84.738L80.608,84.738L80.608,82.954C80.608,82.954 80.566,82.954 80.566,83.042C80.474,83.664 78.998,85.006 78.152,85.455C77.881,85.497 77.346,85.72 76.853,85.808L76.853,89.963ZM80.608,77.325L80.566,77.282C79.714,76.254 76.944,74.694 76.944,74.694C76.853,74.561 76.853,74.43 76.853,74.293L76.853,73.936C76.944,72.234 78.152,68.669 78.375,67.327C78.375,67.104 78.42,66.836 78.509,66.391C78.643,66.075 79.537,66.391 79.354,65.183C79.354,64.916 79.135,64.291 79.135,64.154C79.626,62.598 80.119,60.853 80.566,59.6L80.608,59.512L80.608,55.317L80.566,55.317C79.714,55.317 78.911,55.406 78.286,55.674C77.881,55.85 77.346,55.988 76.853,56.028L76.853,57.191C77.346,57.055 77.926,56.878 78.643,56.613C79.851,56.254 79.985,57.055 79.985,57.055C79.985,57.055 80.119,57.728 79.403,59.646C78.687,61.658 78.152,64.916 77.659,65.137C77.436,65.183 77.168,65.183 76.853,65.137L76.853,66.391C77.078,66.391 77.168,66.473 77.168,66.61C77.168,66.746 77.078,67.597 76.853,68.669L76.853,76.791C77.212,76.837 77.57,77.282 78.061,77.462C78.777,77.908 79.269,78.128 79.403,79.605C79.537,81.12 80.474,82.149 80.566,82.82L80.608,82.82L80.608,77.325ZM80.608,59.512C80.965,58.529 81.233,57.728 81.326,57.595C81.594,57.101 82.529,56.839 82.801,56.746C83.604,56.701 83.427,56.254 83.067,55.85C82.888,55.628 82.088,55.498 81.102,55.406C80.877,55.317 80.743,55.317 80.608,55.317L80.608,59.512ZM84.498,61.789L84.498,68.132C84.454,68.623 84.274,69.113 84.23,69.513C84.143,70.585 84.23,71.387 84.498,71.881L84.498,81.614C84.143,81.879 83.783,82.108 83.427,82.37C82.441,82.954 82.441,83.664 82.667,84.381C82.757,85.006 83.783,85.497 84.498,85.585L84.498,91.391C84.098,91.837 83.427,91.525 83.427,91.525C83.427,91.033 83.293,91.167 83.515,90.763C83.649,90.277 83.738,89.912 83.738,89.912L80.608,89.912L80.608,86.076C81.326,85.808 81.413,85.808 81.55,85.137C81.594,84.646 81.19,84.557 80.834,84.646C80.743,84.646 80.7,84.646 80.608,84.738L80.608,77.325C80.743,77.417 80.834,77.551 80.834,77.688C81.19,78.621 81.594,81.879 82.039,81.969C82.441,82.017 83.604,80.678 83.783,80.049C84.23,78.757 82.441,77.282 81.905,76.347C81.326,75.407 80.474,71.612 81.413,68.485C81.817,66.97 83.293,63.934 84.498,61.789ZM84.498,91.391C84.634,91.254 84.721,91.033 84.767,90.763C84.855,90.314 84.855,89.963 84.989,89.56C85.08,89.471 85.572,89.424 86.422,89.203C86.643,89.203 86.823,89.115 87.049,89.069L87.049,84.516C86.823,84.516 86.777,84.246 86.777,83.579C86.777,83.088 86.913,82.504 87.049,82.017L87.049,78.4L86.957,78.487C86.777,78.757 86.643,78.979 86.422,78.888C86.197,78.888 85.926,78.533 85.484,77.688C85.123,76.965 84.946,76.075 85.572,75.407C85.841,75.142 86.109,75.01 86.422,75.01C86.643,74.916 86.823,75.01 87.049,75.01L87.049,73.442C86.823,73.354 86.643,73.354 86.422,73.308C85.926,73.308 85.572,73.085 85.351,72.996C85.08,72.725 84.721,72.463 84.498,71.923L84.498,71.881L84.498,81.614C84.946,81.3 85.26,81.034 85.618,80.808C85.841,80.678 86.285,80.541 86.422,80.808C86.468,80.947 86.468,81.166 86.422,81.525C86.334,81.66 86.334,81.751 86.334,81.791C85.841,83.088 85.572,85.497 84.855,85.585L84.498,85.585L84.498,91.391ZM87.049,58.618C86.823,58.756 86.643,58.932 86.422,59.112C85.975,59.466 85.618,59.829 85.438,60.183C85.214,60.585 84.855,61.079 84.498,61.696L84.498,68.132L84.498,68.04C84.855,66.391 85.438,64.782 85.618,64.425C85.926,63.934 86.063,64.203 86.422,64.514C86.553,64.553 86.643,64.691 86.777,64.691C86.823,64.691 86.957,64.782 87.049,64.828L87.049,58.618ZM87.049,53.617C86.823,53.617 86.643,53.617 86.422,53.709C86.197,53.709 86.063,53.753 85.926,53.935C84.989,54.823 85.572,55.317 86.422,55.628C86.643,55.674 86.823,55.759 87.049,55.759L87.049,53.617ZM88.745,72.506L88.745,75.764C88.254,76.791 88.03,78.4 87.807,79.245C87.674,79.824 87.448,80.541 87.271,81.3C87.18,81.525 87.137,81.751 87.049,82.017L87.049,78.4C87.137,78.268 87.18,78.128 87.271,77.994C87.314,77.636 87.405,77.148 87.539,76.481C87.807,75.499 87.628,75.229 87.271,75.142C87.18,75.047 87.137,75.047 87.137,75.047L87.049,75.01L87.049,73.442L87.271,73.442C87.674,73.442 88.118,73.354 88.388,73.219C88.522,73.177 88.612,72.862 88.745,72.506ZM87.049,89.069L87.049,84.516C87.137,84.557 87.18,84.557 87.271,84.557C87.539,84.516 87.987,84.293 88.653,84.066L88.745,84.066L88.745,88.359C88.164,88.624 87.674,88.847 87.271,88.981C87.18,88.981 87.137,88.981 87.049,89.069ZM88.745,57.456L88.745,59.112C88.522,59.292 88.388,59.512 88.254,59.646C87.762,60.496 87.448,60.719 87.628,62.233C87.674,63.352 88.164,63.977 88.745,64.334L88.745,65.898C88.254,65.762 87.674,65.276 87.271,65.008C87.18,64.916 87.137,64.828 87.049,64.828L87.049,58.618C87.137,58.529 87.18,58.529 87.271,58.441C87.674,58.083 88.254,57.818 88.745,57.456ZM88.745,54.2L88.745,56.342C88.478,56.165 88.164,56.028 87.896,55.988C87.762,55.896 87.448,55.896 87.271,55.85C87.18,55.85 87.137,55.85 87.049,55.759L87.049,53.617L87.271,53.617C87.674,53.709 88.164,53.935 88.612,54.11C88.612,54.11 88.653,54.2 88.745,54.2ZM88.745,42.771L88.745,43.351C87.762,42.86 87.762,42.546 88.745,42.771ZM88.745,88.359C89.104,88.222 89.457,87.996 89.864,87.862L89.864,83.53C89.509,83.713 89.104,83.933 88.745,84.066L88.745,88.359ZM89.864,55.406C89.596,54.92 89.147,54.467 88.745,54.2L88.745,56.342C89.104,56.522 89.457,56.746 89.727,56.878C89.457,57.055 89.104,57.237 88.745,57.456L88.745,59.112C89.013,58.756 89.457,58.392 89.864,58.037L89.864,55.406ZM89.864,72.996C89.642,72.951 89.727,72.234 89.864,71.076L89.864,64.644C89.509,64.691 89.104,64.644 88.745,64.334L88.745,65.898C88.879,65.983 89.013,66.075 89.147,66.075C89.457,65.983 89.817,65.898 89.864,65.854L89.864,65.898C89.817,66.347 89.509,68.485 89.238,69.467C89.104,70.184 88.973,71.654 88.745,72.506L88.745,75.764C88.879,75.407 89.013,75.229 89.238,75.047C89.457,75.01 89.642,74.872 89.864,74.779L89.864,72.996ZM89.864,43.13C89.727,43.13 89.642,43.037 89.509,42.991C89.238,42.902 88.973,42.86 88.745,42.771L88.745,43.351C88.973,43.485 89.147,43.53 89.457,43.704C89.596,43.842 89.727,43.887 89.864,43.979L89.864,43.13ZM60.672,56.122C61.074,56.076 61.207,55.317 60.672,54.421L60.672,56.122ZM60.672,63.934L60.672,60.853C62.148,59.512 63.669,58.176 63.579,57.904C63.536,56.701 62.952,57.101 62.237,56.342C61.7,55.537 62.014,54.11 63.89,55.18C64.741,55.674 64.158,56.701 65.01,57.191C65.054,57.237 65.142,57.237 65.23,57.237L65.23,58.618C65.054,58.664 64.918,58.756 64.741,58.801C63.8,59.466 63.399,59.466 62.817,60.451C61.746,62.413 62.817,62.724 63.219,63.709C63.8,64.828 64.427,65.276 65.23,65.276L65.23,66.347C64.784,66.347 64.158,66.391 63.8,66.209C63.177,65.854 62.726,65.361 61.834,64.203C61.387,63.667 61.03,63.754 60.672,63.934ZM60.672,86.256L60.672,80.767C60.809,80.808 60.94,80.854 61.118,80.9C61.344,80.947 61.7,80.183 61.834,79.47C61.969,78.757 62.325,78.268 61.969,78.04C61.923,78.04 61.344,77.955 60.672,77.865L60.672,76.615C61.207,76.615 61.609,76.615 61.609,76.435C61.609,76.3 61.207,76.075 60.672,75.807L60.672,72.463C61.746,73.841 62.86,74.43 63.219,74.381C63.669,74.293 63.934,71.923 64.562,70.45C64.784,69.822 65.054,68.974 65.23,68.174L65.23,71.433C64.741,73.308 64.385,74.872 64.562,74.916C64.653,75.01 64.918,75.01 65.23,75.01L65.23,76.075C64.653,75.986 64.071,76.075 63.934,76.347C63.89,76.703 64.784,77.908 64.653,78.359C64.291,79.112 63.308,78.268 63.177,78.708C62.726,80.049 62.325,81.388 62.237,81.751C62.191,82.324 62.817,82.237 63.308,82.599C63.89,82.862 63.934,83.53 64.784,83.177C64.918,83.088 65.054,83.042 65.23,82.862L65.23,88.579C63.399,87.775 61.475,86.657 60.76,86.076C60.76,86.076 60.717,86.125 60.672,86.256ZM92.456,81.525L92.456,86.256C92.366,86.348 92.234,86.438 92.142,86.477C91.338,87.017 90.577,87.42 89.864,87.775L89.864,83.53C91.027,82.82 92.053,81.925 92.456,81.525ZM92.456,72.862L92.456,74.561C92.366,74.473 92.234,74.43 92.142,74.43C91.518,74.43 90.577,74.561 89.864,74.779L89.864,72.996C90.668,73.126 91.831,72.862 92.456,72.862ZM92.456,55.759L92.456,60.719C92.188,61.565 91.919,62.459 91.651,63.44C91.563,63.801 92.142,64.154 92.142,64.553C92.053,65.854 91.163,65.628 91.071,66.075C90.577,67.902 90.175,69.735 89.864,71.03L89.864,64.644C89.998,64.553 90.084,64.553 90.175,64.553C90.577,64.334 90.803,62.858 91.027,61.879C91.205,60.853 91.919,58.756 92.142,58.083C92.366,57.546 92.278,56.476 91.338,57.055C90.935,57.237 90.443,57.595 89.864,58.037L89.864,55.406C90.221,55.85 90.443,56.165 90.577,56.476C91.205,56.165 91.694,55.988 91.919,55.896C92.099,55.85 92.278,55.805 92.456,55.759ZM92.456,44.512L92.456,46.164C91.651,45.318 90.757,44.512 89.864,43.979L89.864,43.13C90.714,43.442 91.605,43.93 92.456,44.512ZM92.456,46.164L92.456,44.512C93.751,45.447 95.003,46.609 96.078,47.725L96.169,47.725L96.169,50.94L96.078,50.94C95.809,50.451 95.538,49.958 95.093,49.423C94.558,48.709 93.573,47.372 92.456,46.164ZM92.456,60.719L92.456,55.759C93.259,55.628 93.841,55.85 93.841,55.85C93.841,55.85 96.568,56.342 93.751,57.237C93.573,57.281 93.082,58.713 92.456,60.719ZM92.456,86.256L92.456,81.525L92.502,81.483C93.037,80.9 93.888,78.888 93.888,78.268C93.888,77.688 93.216,75.185 92.456,74.561L92.456,72.862C92.59,72.817 92.68,72.862 92.769,72.862C93.259,73.085 94.111,75.764 94.199,75.986C94.199,75.986 93.841,63.087 94.601,59.96C94.872,58.756 95.538,57.818 96.078,57.101L96.169,57.101L96.169,59.6L96.078,59.6C95.901,60.006 95.809,60.362 95.809,60.585C95.809,61.079 95.901,61.696 96.078,61.658L96.169,61.658L96.169,77.636C96.169,77.688 96.169,77.688 96.078,77.688C96.078,77.822 96.035,77.994 95.943,78.128C95.453,79.382 94.826,80.183 94.826,80.183C94.199,81.166 93.888,81.969 95.183,80.947C95.538,80.541 95.809,80.183 96.078,79.824C96.169,79.824 96.169,79.739 96.169,79.739L96.169,82.82L96.078,82.82C95.183,83.799 93.931,85.183 92.456,86.256ZM100.592,53.087C100.055,52.279 98.269,49.999 96.169,47.725L96.169,50.94C97.778,53.581 98.223,55.537 98.223,55.537C98.223,55.537 97.149,56.028 96.169,57.101L96.169,59.6C96.524,58.801 97.149,57.952 97.597,57.546C98.357,56.839 98.713,57.546 98.625,57.904C98.579,58.756 97.912,59.377 97.417,59.646C96.211,60.585 96.568,61.387 96.211,61.565C96.169,61.565 96.169,61.565 96.169,61.658L96.169,77.636C96.881,75.721 96.794,74.561 96.746,72.234C96.658,69.513 96.524,66.836 96.794,67.281C97.149,67.683 97.999,71.169 97.999,72.862C97.912,76.209 97.912,77.462 96.169,79.739L96.169,82.82C96.524,82.458 96.881,82.108 97.149,81.791C99.474,79.605 100.055,76.209 100.456,75.142C100.813,74.025 100.546,72.463 99.834,70.45C99.253,68.534 98.494,65.854 98.132,64.203C97.731,62.598 97.597,61.21 98.087,60.496C98.494,59.829 98.579,59.734 99.253,60.094C99.834,60.362 100.101,61.079 99.834,63.977C99.565,67.059 99.922,67.771 100.77,65.898C101.444,64.203 101.395,62.37 101.444,61.21C101.62,60.006 101.8,58.932 102.113,58.392C102.381,57.818 101.62,54.689 100.592,53.087Z" style="fill:rgb(0,96,151);"/>
        </g>
        <g transform="matrix(1.14129,0,0,1.13636,-10.6626,5.77273)">
            <path d="M39.619,76.209C39.483,76.121 39.349,76.075 39.215,75.986C38.5,75.63 38.007,75.01 37.783,74.155C37.606,73.354 37.74,72.597 38.098,71.881C38.5,71.169 39.215,70.68 40.108,70.45C40.33,70.362 40.644,70.313 40.824,70.313L40.914,70.313L40.914,71.387C40.778,71.387 40.644,71.433 40.42,71.433C39.439,71.654 38.768,72.104 38.367,72.637C38.007,73.085 38.007,73.576 38.098,74.07C38.232,74.648 38.589,75.047 39.125,75.276C39.303,75.363 39.439,75.407 39.572,75.407C39.706,75.499 39.839,75.499 40.062,75.499L40.108,75.499C40.287,75.499 40.42,75.499 40.467,75.407L40.824,75.407L40.914,75.363L40.914,76.435C40.467,76.435 40.062,76.347 39.619,76.209ZM40.914,76.435C41.182,76.435 41.405,76.347 41.673,76.254C42.521,75.986 43.237,75.584 43.684,74.872C44.086,74.07 44.22,73.354 43.997,72.597C43.818,71.792 43.371,71.259 42.655,70.807C42.521,70.719 42.39,70.68 42.296,70.585C42.253,70.585 42.253,70.585 42.253,70.539C42.122,70.539 41.983,70.45 41.807,70.45L41.807,70.362C41.673,70.362 41.538,70.362 41.405,70.313L40.914,70.313L40.914,71.387C41.493,71.259 41.898,71.259 42.296,71.3L42.296,71.387C42.476,71.387 42.61,71.433 42.747,71.433C43.237,71.654 43.507,72.104 43.684,72.597C43.818,73.177 43.729,73.666 43.461,74.07C43.015,74.561 42.296,75.01 41.316,75.276C41.182,75.363 41.045,75.363 40.914,75.363L40.914,76.435Z" style="fill:rgb(0,96,151);"/>
        </g>
        <g transform="matrix(1.14129,0,0,1.13636,-10.6626,5.77273)">
            <path d="M37.74,66.347L42.296,65.983L42.39,66.928C42.476,67.104 42.39,67.327 42.296,67.461C42.253,67.683 42.165,67.771 41.983,67.902C41.898,67.952 41.673,67.952 41.405,68.04L41.493,68.266L42.881,68.04L42.521,63.087L41.136,63.087L41.136,63.264C41.405,63.264 41.63,63.264 41.764,63.44C41.983,63.486 42.032,63.62 42.122,63.801C42.165,63.934 42.165,64.154 42.253,64.425L42.253,65.137L37.652,65.499C37.292,65.499 37.112,65.499 36.936,65.407C36.8,65.361 36.669,65.137 36.669,64.828L36.669,64.644L36.532,64.691L36.669,67.281L36.887,67.281L36.887,67.06C36.8,66.836 36.887,66.61 36.936,66.474C37.112,66.391 37.292,66.391 37.74,66.347Z" style="fill:rgb(0,96,151);"/>
        </g>
        <g transform="matrix(1.14129,0,0,1.13636,-10.6626,5.77273)">
            <path d="M47.482,82.108C47.707,82.149 47.842,82.237 47.976,82.504L48.067,82.728L48.201,82.684L47.261,80.767L47.036,80.808L47.215,80.947C47.261,81.166 47.351,81.388 47.261,81.525C47.215,81.66 46.993,81.791 46.679,82.017L43.507,83.579L45.922,78.128L45.16,76.703L45.026,76.703C45.16,76.926 45.16,76.965 45.16,77.148C45.206,77.282 45.206,77.462 45.16,77.551C45.16,77.688 45.16,77.822 45.026,78.128L41.182,80.049C40.914,80.183 40.688,80.229 40.559,80.229C40.33,80.229 40.286,80.095 40.108,79.915L40.062,79.696L39.839,79.739L40.824,81.66L40.958,81.614L40.914,81.388C40.778,81.166 40.778,80.947 40.824,80.808C40.914,80.767 41.045,80.586 41.405,80.406L44.714,78.708L42.165,84.557L42.253,84.646L46.859,82.324C47.215,82.149 47.397,82.108 47.482,82.108Z" style="fill:rgb(0,96,151);"/>
        </g>
        <g transform="matrix(1.14129,0,0,1.13636,-10.6626,5.77273)">
            <path d="M50.883,90.314L51.017,90.277L49.452,88.395L49.318,88.579C49.541,88.712 49.583,88.892 49.583,88.981L49.583,89.249C49.541,89.424 49.406,89.56 49.181,89.697L47.842,90.9C47.616,90.763 47.397,90.674 47.261,90.54C47.036,90.454 46.902,90.277 46.679,90.141C46.5,89.829 46.367,89.471 46.277,89.069C46.187,88.624 46.277,88.133 46.5,87.636C46.679,87.191 47.036,86.793 47.482,86.348C48.067,85.946 48.69,85.634 49.318,85.585C50.034,85.497 50.657,85.72 51.148,86.348C51.509,86.793 51.645,87.284 51.645,87.775C51.599,88.133 51.416,88.487 51.242,88.892L51.282,89.069L52.714,87.685L52.581,87.551C52.448,87.636 52.356,87.685 52.267,87.685C52.222,87.685 52.134,87.685 52.134,87.636C52.088,87.551 51.999,87.502 51.999,87.284C51.865,87.017 51.733,86.793 51.645,86.567C51.599,86.438 51.416,86.212 51.282,86.076C50.926,85.585 50.435,85.275 50.034,85.098C49.406,84.918 48.826,84.875 48.11,85.006C47.616,85.137 47.127,85.366 46.679,85.72C46.143,86.212 45.785,86.793 45.651,87.502C45.428,88.487 45.696,89.424 46.5,90.314C46.768,90.629 47.036,90.9 47.351,91.12C47.616,91.254 47.976,91.479 48.243,91.614L49.72,90.406C49.943,90.188 50.167,90.051 50.304,90.051C50.435,89.963 50.657,90.141 50.792,90.277L50.883,90.314Z" style="fill:rgb(0,96,151);"/>
        </g>
        <g transform="matrix(1.14129,0,0,1.13636,-10.6626,5.77273)">
            <path d="M56.112,91.254C56.291,91.167 56.471,91.254 56.648,91.391L56.872,91.525L56.962,91.391L54.904,89.786L54.817,89.912L54.949,90.051C55.129,90.141 55.172,90.277 55.263,90.406L55.263,90.674C55.263,90.763 55.129,90.9 54.904,91.167L52.267,94.428C52.134,94.649 51.999,94.737 51.865,94.737C51.733,94.783 51.645,94.783 51.599,94.737C51.509,94.649 51.509,94.517 51.599,94.383C51.645,94.118 51.645,93.892 51.645,93.8C51.645,93.665 51.599,93.665 51.509,93.577C51.416,93.446 51.282,93.446 51.148,93.446C51.017,93.446 50.926,93.532 50.883,93.665C50.746,93.8 50.657,93.938 50.746,94.155C50.746,94.383 50.926,94.608 51.148,94.737C51.373,94.962 51.733,95.099 51.999,95.099C52.356,95.099 52.627,94.962 52.85,94.783C53.118,94.649 53.427,94.428 53.699,94.029L55.621,91.745C55.798,91.391 55.978,91.254 56.112,91.254Z" style="fill:rgb(0,96,151);"/>
        </g>
        <g transform="matrix(1.14129,0,0,1.13636,-10.6626,5.77273)">
            <path d="M58.213,92.376L58.437,92.55C58.571,92.596 58.661,92.687 58.705,92.818C58.794,92.91 58.794,93.044 58.794,93.087C58.794,93.174 58.661,93.401 58.571,93.665L56.514,97.061C56.38,97.376 56.246,97.552 56.112,97.641C55.978,97.729 55.755,97.641 55.531,97.552L55.306,97.418L55.263,97.552L57.497,98.935L57.588,98.712L57.451,98.622C57.32,98.578 57.228,98.444 57.096,98.357C57.008,98.22 57.008,98.131 57.008,98.087C57.008,97.909 57.142,97.778 57.32,97.503L59.287,94.118C59.511,93.8 59.643,93.577 59.686,93.532C59.91,93.446 60.133,93.532 60.358,93.665L60.495,93.754L60.541,93.577L58.347,92.327L58.213,92.376Z" style="fill:rgb(0,96,151);"/>
        </g>
        <g transform="matrix(1.14129,0,0,1.13636,-10.6626,5.77273)">
            <path d="M69.745,97.153L69.97,97.195C70.239,97.284 70.371,97.376 70.461,97.552C70.505,97.641 70.505,97.909 70.371,98.269L69.791,100.679C69.657,101.343 69.434,101.744 69.3,102.062C69.12,102.24 68.896,102.42 68.537,102.463C68.092,102.6 67.825,102.6 67.423,102.463C67.064,102.42 66.841,102.332 66.707,102.109C66.483,101.972 66.349,101.836 66.261,101.616C66.218,101.389 66.218,101.213 66.261,100.856C66.261,100.542 66.261,100.277 66.349,100.051L67.064,97.418C67.109,97.061 67.198,96.924 67.332,96.793C67.423,96.705 67.6,96.659 67.825,96.705L68.092,96.793L68.092,96.659L65.59,95.988L65.499,96.168L65.767,96.211C65.992,96.305 66.127,96.348 66.218,96.524C66.261,96.659 66.261,96.881 66.218,97.195L65.59,99.563C65.41,100.277 65.364,100.767 65.364,101.033C65.41,101.481 65.59,101.836 65.858,102.109C66.127,102.463 66.617,102.687 67.243,102.911C67.825,103.044 68.406,103.044 68.762,102.911C69.164,102.687 69.434,102.463 69.657,102.198C69.879,101.883 70.016,101.389 70.15,100.856L70.775,98.444C70.865,98.087 70.955,97.863 70.999,97.778C71.222,97.641 71.447,97.552 71.624,97.641L71.846,97.729L71.938,97.552L69.791,97.012L69.745,97.153Z" style="fill:rgb(0,96,151);"/>
        </g>
        <g transform="matrix(1.14129,0,0,1.13636,-10.6626,5.77273)">
            <path d="M77.436,97.863L77.659,97.863C77.926,97.863 78.061,97.909 78.152,98.087C78.198,98.131 78.286,98.444 78.286,98.755L78.152,102.332L74.622,97.552L72.92,97.503L72.92,97.729C73.144,97.729 73.28,97.729 73.324,97.778C73.501,97.863 73.635,97.863 73.68,97.909C73.815,97.997 73.906,98.131 74.128,98.444L73.994,102.6C73.994,102.952 73.906,103.18 73.815,103.314C73.68,103.45 73.546,103.538 73.28,103.538L73.054,103.538L73.054,103.666L75.154,103.754L75.154,103.625L74.979,103.625C74.753,103.625 74.531,103.45 74.485,103.401C74.397,103.266 74.305,103.044 74.397,102.6L74.485,98.935L78.375,103.983L78.509,103.983L78.643,98.755C78.643,98.444 78.687,98.22 78.777,98.131C78.911,97.997 79.044,97.909 79.354,97.909L79.537,97.909L79.537,97.778L77.436,97.641L77.436,97.863Z" style="fill:rgb(0,96,151);"/>
        </g>
        <g transform="matrix(1.14129,0,0,1.13636,-10.6626,5.77273)">
            <path d="M83.918,102.911C83.783,102.818 83.738,102.818 83.649,102.777C83.649,102.6 83.604,102.42 83.515,102.109L82.801,98.22C82.667,97.863 82.667,97.641 82.757,97.503C82.888,97.376 83.025,97.284 83.247,97.195L83.427,97.153L83.427,97.012L80.834,97.503L80.877,97.641L81.55,97.641C81.594,97.729 81.682,97.729 81.728,97.778C81.817,97.863 81.817,98.131 81.905,98.444L82.667,102.332C82.757,102.687 82.757,102.911 82.667,103.044C82.667,103.18 82.441,103.266 82.173,103.314L82.039,103.401L82.039,103.538L84.587,103.044L84.587,102.911L83.918,102.911Z" style="fill:rgb(0,96,151);"/>
        </g>
        <g transform="matrix(1.14129,0,0,1.13636,-10.6626,5.77273)">
            <path d="M89.509,95.232L89.596,95.456L89.642,95.366C89.864,95.366 89.998,95.366 90.175,95.456C90.221,95.456 90.312,95.497 90.312,95.587C90.355,95.72 90.355,95.988 90.355,96.348L90.175,100.188L87.539,97.284C87.271,97.012 87.137,96.881 87.137,96.705C87.049,96.57 87.049,96.524 87.137,96.437C87.18,96.305 87.314,96.211 87.628,96.079L87.539,95.945L85.214,96.793L85.214,96.924C85.438,96.881 85.572,96.881 85.703,96.881C85.795,96.881 85.926,96.924 86.063,96.924C86.063,97.012 86.197,97.061 86.422,97.376L90.312,101.616L90.443,101.527L90.803,95.945C90.803,95.587 90.848,95.366 90.935,95.142C91.071,95.006 91.163,94.872 91.338,94.783L91.295,94.649L89.509,95.232Z" style="fill:rgb(0,96,151);"/>
        </g>
        <g transform="matrix(1.14129,0,0,1.13636,-10.6626,5.77273)">
            <path d="M98.983,95.099C99.076,95.497 98.983,95.859 98.983,96.079C98.939,96.305 98.85,96.524 98.762,96.57C98.625,96.705 98.494,96.881 98.133,97.061L97.283,97.641C97.149,97.729 97.06,97.729 96.926,97.729C96.881,97.778 96.881,97.729 96.794,97.729C96.746,97.641 96.658,97.552 96.524,97.284L95.407,95.677L96.524,94.872C96.746,94.737 96.881,94.649 97.06,94.649C97.149,94.649 97.283,94.649 97.417,94.737C97.508,94.737 97.642,94.962 97.865,95.142L97.912,95.006L96.794,93.22L96.658,93.401C96.881,93.665 96.881,93.892 96.881,94.118C96.794,94.245 96.658,94.428 96.392,94.649L95.227,95.366L93.888,93.312L95.316,92.376C95.584,92.235 95.721,92.108 95.901,92.108C96.035,92.016 96.169,92.108 96.3,92.197C96.434,92.235 96.658,92.327 96.881,92.596L97.014,92.55L96.211,91.391L92.279,93.938L92.366,94.155L92.546,94.029C92.68,93.892 92.903,93.8 93.037,93.892C93.216,93.892 93.353,94.118 93.53,94.428L95.721,97.729C95.901,97.997 96.035,98.131 96.035,98.269C96.035,98.357 96.035,98.444 95.943,98.578C95.901,98.712 95.809,98.755 95.675,98.848L95.538,98.984L95.584,99.115L99.565,96.57L99.117,94.962L98.983,95.099Z" style="fill:rgb(0,96,151);"/>
        </g>
        <g transform="matrix(1.14129,0,0,1.13636,-10.6626,5.77273)">
            <path d="M100.813,87.775L100.813,88.395L100.77,88.395C100.546,88.395 100.415,88.487 100.189,88.624C100.101,88.712 100.055,88.759 99.967,88.847C99.834,88.892 99.699,89.115 99.565,89.337L100.813,90.763L100.813,92.016L99.341,90.454C99.076,90.188 98.85,89.963 98.762,89.963C98.579,89.963 98.4,90.051 98.223,90.188L98.087,90.406L97.912,90.277L99.565,88.712C100.055,88.268 100.415,87.996 100.682,87.862C100.77,87.775 100.813,87.775 100.813,87.775ZM105.69,90.674C105.51,90.763 105.062,90.763 104.66,90.629L102.469,90.277C102.783,89.829 102.963,89.424 102.963,89.069C102.874,88.624 102.737,88.359 102.469,88.042C102.247,87.862 101.977,87.636 101.62,87.636L101.395,87.636C101.261,87.636 101.039,87.636 100.904,87.685L100.813,87.775L100.813,88.395L100.904,88.395C101.261,88.395 101.529,88.579 101.8,88.847C102.113,89.115 102.155,89.424 102.155,89.829C102.113,90.188 101.887,90.629 101.444,91.033C101.444,91.033 101.395,91.033 101.395,91.12C101.395,91.12 101.306,91.167 101.261,91.167L100.813,90.763L100.813,92.016L102.113,93.312C102.291,93.532 102.469,93.754 102.469,93.8C102.515,94.029 102.469,94.245 102.247,94.428L102.113,94.608L102.155,94.737L104.079,92.818L103.988,92.729L103.812,92.91C103.631,93.087 103.498,93.087 103.316,93.087C103.141,93.087 102.963,92.952 102.737,92.687L101.444,91.391C101.529,91.391 101.529,91.345 101.62,91.345C101.62,91.254 101.663,91.254 101.663,91.254C101.755,91.167 101.8,91.033 101.977,90.985L105.419,91.525L106.63,90.454L106.49,90.314C106.179,90.54 105.911,90.674 105.69,90.674Z" style="fill:rgb(0,96,151);"/>
        </g>
        <g transform="matrix(1.14129,0,0,1.13636,-10.6626,5.77273)">
            <path d="M109.354,84.025C109.175,83.887 108.952,83.799 108.728,83.799C108.46,83.713 108.237,83.799 107.969,83.887C107.698,83.887 107.253,84.066 106.67,84.381C106.001,84.738 105.51,84.918 105.196,84.918C104.971,85.006 104.837,84.918 104.66,84.875C104.482,84.646 104.346,84.516 104.302,84.246C104.302,83.933 104.346,83.664 104.482,83.353C104.66,83.177 104.837,83.042 105.151,82.862C105.419,82.728 105.69,82.684 106.001,82.728C106.269,82.728 106.536,82.82 106.895,83.042L107.029,82.862L105.285,81.66L105.196,81.791C105.285,81.879 105.33,82.017 105.33,82.017L105.33,82.237C105.285,82.324 105.151,82.37 104.971,82.504C104.66,82.728 104.436,82.954 104.214,83.221C103.946,83.579 103.812,84.066 103.854,84.516C103.946,85.006 104.171,85.366 104.482,85.634C104.703,85.72 104.928,85.857 105.151,85.857C105.419,85.946 105.644,85.857 105.911,85.808C106.179,85.72 106.63,85.497 107.163,85.275C107.698,85.006 108.012,84.875 108.192,84.784C108.371,84.738 108.594,84.738 108.728,84.738C108.952,84.738 109.041,84.784 109.175,84.918C109.443,85.098 109.576,85.275 109.576,85.585C109.576,85.857 109.534,86.212 109.308,86.477C109.086,86.793 108.861,86.927 108.594,87.058C108.329,87.191 108.103,87.284 107.832,87.284C107.523,87.284 107.253,87.15 106.852,87.017L106.761,87.058L108.46,88.359L108.55,88.222C108.46,88.042 108.371,87.996 108.371,87.907C108.371,87.862 108.371,87.862 108.46,87.775C108.46,87.685 108.594,87.551 108.861,87.325C109.086,87.191 109.308,87.058 109.308,87.017C109.443,86.837 109.576,86.793 109.665,86.567C110.023,86.125 110.067,85.634 110.067,85.137C109.936,84.646 109.709,84.293 109.354,84.025Z" style="fill:rgb(0,96,151);"/>
        </g>
        <g transform="matrix(1.14129,0,0,1.13636,-10.6626,5.77273)">
            <path d="M113.066,80.049C112.973,80.183 112.93,80.229 112.75,80.314C112.706,80.406 112.618,80.406 112.484,80.406C112.395,80.406 112.215,80.314 111.993,80.183L108.46,78.4C108.103,78.174 107.877,78.04 107.832,77.994C107.744,77.775 107.744,77.636 107.877,77.417L107.969,77.194L107.832,77.148L106.67,79.47L106.852,79.559L106.895,79.333C106.986,79.202 107.029,79.112 107.163,79.027C107.253,78.979 107.389,78.888 107.476,78.888C107.523,78.979 107.744,79.027 108.012,79.202L111.545,80.947C111.902,81.12 112.081,81.254 112.127,81.388C112.215,81.525 112.215,81.751 112.081,81.969L111.993,82.149L112.127,82.237L113.333,79.915L113.198,79.824L113.066,80.049Z" style="fill:rgb(0,96,151);"/>
        </g>
        <g transform="matrix(1.14129,0,0,1.13636,-10.6626,5.77273)">
            <path d="M115.165,73.71C115.12,73.936 115.031,74.07 114.897,74.155C114.763,74.204 114.541,74.204 114.183,74.07L109.665,72.862L109.891,72.012C109.936,71.792 110.023,71.612 110.159,71.433C110.293,71.387 110.429,71.259 110.651,71.259C110.739,71.169 110.919,71.169 111.141,71.259L111.23,71.076L109.891,70.719L108.551,75.63L109.891,76.075L109.936,75.855C109.665,75.764 109.534,75.63 109.354,75.499C109.221,75.363 109.175,75.229 109.175,75.047C109.175,74.916 109.175,74.694 109.221,74.43L109.443,73.71L113.957,74.916C114.315,75.01 114.451,75.142 114.585,75.229C114.672,75.363 114.672,75.584 114.585,75.764L114.585,75.986L114.763,76.075L115.388,73.488L115.257,73.488L115.165,73.71Z" style="fill:rgb(0,96,151);"/>
        </g>
        <g transform="matrix(1.14129,0,0,1.13636,-10.6626,5.77273)">
            <path d="M116.594,65.183L116.507,65.407C116.507,65.628 116.46,65.854 116.282,65.898C116.239,65.983 115.926,66.075 115.615,65.983L114.047,65.898L111.859,64.291C111.545,64.066 111.367,63.846 111.277,63.709C111.141,63.62 111.053,63.486 111.007,63.264C110.919,63.13 110.919,63.087 110.919,62.95L110.919,62.858L110.739,62.858L110.563,65.008L110.785,65.008C110.785,64.828 110.785,64.691 110.873,64.644C110.919,64.553 110.919,64.514 111.007,64.514C111.053,64.425 111.141,64.425 111.23,64.425C111.411,64.425 111.545,64.553 111.859,64.691L113.692,66.075L111.634,67.193C111.277,67.327 111.141,67.461 111.007,67.461C110.873,67.415 110.785,67.327 110.739,67.193C110.651,67.104 110.651,66.97 110.651,66.836L110.651,66.698L110.514,66.698L110.293,69.339L110.429,69.339C110.429,69.156 110.514,69.113 110.514,69.025C110.651,68.84 110.739,68.669 110.873,68.623C110.919,68.534 111.141,68.485 111.411,68.266L114.091,66.746L115.525,66.928C115.88,66.928 116.105,66.928 116.151,67.06C116.374,67.104 116.46,67.327 116.374,67.597L116.374,67.817L116.507,67.817L116.73,65.183L116.594,65.183Z" style="fill:rgb(0,96,151);"/>
        </g>
    </g>
</svg>
