<?xml version="1.0" encoding="UTF-8" standalone="no"?>
<!DOCTYPE svg PUBLIC "-//W3C//DTD SVG 1.1//EN" "http://www.w3.org/Graphics/SVG/1.1/DTD/svg11.dtd">
<svg width="100%" height="100%" viewBox="0 0 157 157" version="1.1" xmlns="http://www.w3.org/2000/svg" xmlns:xlink="http://www.w3.org/1999/xlink" xml:space="preserve" xmlns:serif="http://www.serif.com/" style="fill-rule:evenodd;clip-rule:evenodd;stroke-linejoin:round;stroke-miterlimit:2;">
    <g id="surface1" transform="matrix(1,0,0,1,-53.5,-41.5)">
        <g transform="matrix(0.383211,0,0,0.383211,81.3339,74.333)">
            <path d="M19.289,117.18L30.57,117.18C30.59,117.969 30.621,118.77 30.672,119.57L30.691,119.809L36.809,119.809L36.789,119.539C36.629,116.801 36.59,114.031 36.672,111.309L36.68,111.059L25.41,111.059C25.5,107.781 25.738,104.539 26.09,101.41C26.469,98.18 26.988,94.961 27.66,91.82C28.32,88.691 29.148,85.52 30.121,82.43C31.059,79.43 32.16,76.359 33.398,73.34L43.699,77.949L43.789,77.711C44.77,75.301 45.859,72.922 46.988,70.672C48.129,68.398 49.379,66.16 50.691,64.012C52.012,61.859 53.43,59.719 54.922,57.672C56.41,55.629 58.02,53.59 59.719,51.609L59.891,51.41L51.121,44.289C53.238,41.809 55.461,39.422 57.711,37.219C60.031,34.949 62.461,32.77 64.941,30.762C67.422,28.738 70.051,26.809 72.738,25.02C75.352,23.27 78.141,21.59 81,20.02L86.121,30.109L86.34,29.988C88.629,28.738 90.941,27.578 93.238,26.539C95.551,25.5 97.922,24.551 100.289,23.711C102.66,22.871 105.102,22.109 107.559,21.469C110.012,20.828 112.539,20.25 115.09,19.789L115.34,19.75L113,8.672C116.199,8.078 119.422,7.629 122.551,7.328C125.762,7.031 129.02,6.871 132.219,6.871C135.422,6.871 138.66,7.031 141.891,7.328C145.012,7.629 148.23,8.078 151.441,8.672L149.102,19.738L149.352,19.781C151.898,20.25 154.441,20.82 156.879,21.461C159.328,22.121 161.77,22.859 164.148,23.699C166.512,24.539 168.891,25.5 171.199,26.531C173.5,27.57 175.828,28.73 178.102,29.98L178.32,30.102L183.441,20.012C186.301,21.578 189.07,23.262 191.699,25.012C194.391,26.801 197.02,28.738 199.5,30.75C201.98,32.77 204.41,34.949 206.73,37.211C208.98,39.41 211.191,41.789 213.32,44.281L204.551,51.398L204.719,51.602C206.422,53.578 208.031,55.621 209.52,57.66C211.02,59.719 212.449,61.84 213.75,64C215.051,66.16 216.309,68.391 217.449,70.66C218.59,72.93 219.672,75.289 220.648,77.699L220.738,77.941L231.039,73.328C232.281,76.359 233.379,79.422 234.32,82.422C235.289,85.512 236.109,88.68 236.781,91.809C237.449,94.941 237.969,98.172 238.352,101.398C238.711,104.539 238.941,107.781 239.031,111.051L227.75,111.051L227.77,111.301C227.852,114.039 227.809,116.809 227.66,119.531L227.641,119.801L233.762,119.801L233.781,119.559C233.82,118.77 233.859,117.969 233.879,117.172L245.16,117.172L245.16,116.941C245.609,99.23 241.828,81.422 234.25,65.441L234.141,65.23L223.84,69.828C220.828,63.578 217.328,57.84 213.141,52.309L221.91,45.191L221.77,45.012C211.012,30.969 196.91,19.512 180.988,11.871L180.781,11.77L175.648,21.852C169.391,18.891 163.078,16.648 156.352,14.988L158.691,3.922L158.461,3.871C141.301,-0.25 123.16,-0.25 105.988,3.871L105.762,3.922L108.102,14.988C101.379,16.629 95.07,18.891 88.801,21.852L83.672,11.77L83.461,11.871C67.539,19.52 53.441,30.969 42.68,45.012L42.539,45.191L51.309,52.309C47.109,57.828 43.609,63.578 40.609,69.828L30.309,65.23L30.199,65.441C22.621,81.43 18.859,99.238 19.289,116.941L19.289,117.18Z" style="fill:rgb(30,81,162);fill-rule:nonzero;"/>
        </g>
        <g transform="matrix(0.383211,0,0,0.383211,81.3339,74.333)">
            <path d="M210.691,119.539L210.672,119.809L216.801,119.809L216.809,119.59C216.93,117.781 216.98,115.941 216.98,114.129C216.98,67.219 178.949,29.059 132.199,29.059C85.449,29.059 47.422,67.219 47.422,114.129C47.422,115.949 47.469,117.77 47.59,119.59L47.609,119.809L53.738,119.809L53.719,119.539C53.602,117.75 53.539,115.922 53.539,114.109C53.539,108.762 54.078,103.41 55.129,98.199C56.16,93.141 57.699,88.141 59.719,83.379C61.691,78.699 64.141,74.191 66.969,69.98C69.781,65.801 73.02,61.871 76.578,58.301C80.129,54.73 84.059,51.48 88.219,48.66C92.43,45.809 96.922,43.359 101.578,41.379C106.328,39.359 111.289,37.809 116.352,36.77C126.711,34.641 137.691,34.641 148.059,36.77C153.102,37.809 158.078,39.352 162.828,41.379C167.488,43.359 171.988,45.809 176.191,48.66C180.359,51.48 184.27,54.73 187.828,58.301C191.379,61.871 194.629,65.801 197.441,69.98C200.281,74.199 202.719,78.711 204.691,83.379C206.699,88.141 208.238,93.129 209.281,98.199C210.34,103.398 210.879,108.738 210.879,114.109C210.891,115.922 210.82,117.75 210.691,119.539Z" style="fill:rgb(30,81,162);fill-rule:nonzero;"/>
        </g>
        <g transform="matrix(0.383211,0,0,0.383211,81.3339,74.333)">
            <path d="M152.289,174.691C152.551,175.031 152.859,175.328 153.199,175.57C153.52,175.789 153.852,175.949 154.238,176.07C154.648,176.191 155.09,176.25 155.551,176.25C156,176.25 156.41,176.199 156.82,176.078C157.199,175.969 157.539,175.82 157.852,175.602C158.191,175.359 158.5,175.078 158.781,174.73C159.02,174.43 159.23,174.07 159.398,173.672C159.602,173.211 159.738,172.711 159.828,172.148C159.941,171.52 160,170.801 160,170.039C160,169.398 159.949,168.781 159.84,168.219C159.75,167.711 159.609,167.25 159.422,166.828C159.25,166.449 159.059,166.102 158.809,165.781C158.551,165.441 158.238,165.141 157.898,164.898C157.57,164.68 157.25,164.52 156.852,164.398C156.449,164.281 156.012,164.219 155.559,164.219C155.109,164.219 154.699,164.27 154.289,164.391C153.898,164.5 153.57,164.66 153.25,164.879C152.91,165.109 152.602,165.398 152.32,165.738C152.09,166.039 151.879,166.398 151.711,166.789C151.512,167.219 151.379,167.711 151.281,168.262C151.172,168.859 151.121,169.531 151.121,170.25C151.121,170.961 151.172,171.602 151.281,172.191C151.371,172.73 151.512,173.199 151.699,173.648C151.852,174.02 152.051,174.379 152.289,174.691ZM152.879,170.23C152.879,169.5 152.93,168.84 153.039,168.289C153.129,167.781 153.262,167.359 153.441,167C153.602,166.68 153.781,166.422 154,166.211C154.211,166.012 154.422,165.879 154.68,165.789C154.941,165.699 155.23,165.648 155.539,165.648C155.809,165.648 156.078,165.691 156.328,165.77C156.559,165.852 156.781,165.969 156.969,166.129C157.18,166.309 157.359,166.52 157.52,166.789C157.66,167.02 157.781,167.289 157.879,167.578C157.98,167.91 158.059,168.25 158.129,168.641C158.18,169.059 158.219,169.531 158.219,170.031C158.219,170.789 158.172,171.461 158.059,172.051C157.969,172.57 157.84,173.012 157.66,173.371C157.5,173.699 157.32,173.961 157.102,174.172C156.891,174.371 156.68,174.5 156.422,174.602C156.16,174.691 155.871,174.738 155.57,174.738C155.262,174.738 154.969,174.691 154.711,174.602C154.449,174.512 154.238,174.379 154.031,174.18C153.809,173.969 153.621,173.711 153.469,173.41C153.289,173.059 153.148,172.641 153.059,172.121C152.941,171.609 152.879,170.961 152.879,170.23Z" style="fill:rgb(30,81,162);fill-rule:nonzero;"/>
        </g>
        <g transform="matrix(0.383211,0,0,0.383211,81.3339,74.333)">
            <path d="M106.91,166.059C106.781,166.148 106.609,166.23 106.398,166.301C106.18,166.379 105.922,166.43 105.59,166.48C105.25,166.531 104.859,166.57 104.43,166.578L104.43,167.801L107.539,167.801L107.539,176L109.32,176L109.32,164.469L107.93,164.469C107.852,164.738 107.75,164.988 107.629,165.219C107.52,165.422 107.41,165.59 107.281,165.73C107.172,165.859 107.039,165.969 106.91,166.059Z" style="fill:rgb(30,81,162);fill-rule:nonzero;"/>
        </g>
        <g transform="matrix(0.383211,0,0,0.383211,81.3339,74.333)">
            <path d="M141.781,169.09C141.672,169.211 141.52,169.352 141.328,169.48C141.121,169.641 140.859,169.801 140.531,169.98C140.191,170.18 139.781,170.391 139.328,170.602C138.762,170.871 138.23,171.148 137.789,171.422C137.371,171.68 137.02,171.93 136.719,172.18C136.449,172.41 136.211,172.648 136.039,172.879C135.859,173.109 135.699,173.379 135.57,173.648C135.43,173.969 135.32,174.289 135.23,174.66C135.141,175.07 135.09,175.5 135.07,175.949L144.051,175.949L144.051,174.5L136.988,174.5C137.039,174.328 137.109,174.172 137.191,174.02C137.27,173.879 137.359,173.73 137.469,173.602C137.57,173.469 137.691,173.328 137.82,173.219C137.941,173.109 138.121,172.988 138.328,172.84C138.57,172.699 138.852,172.52 139.191,172.34C139.57,172.141 140,171.922 140.48,171.699C140.941,171.48 141.371,171.27 141.738,171.039C142.09,170.828 142.379,170.629 142.641,170.43C142.879,170.25 143.09,170.051 143.262,169.871C143.43,169.672 143.57,169.461 143.699,169.238C143.82,169.02 143.91,168.781 143.98,168.52C144.039,168.25 144.078,167.961 144.078,167.66C144.078,167.281 144.031,166.93 143.941,166.602C143.852,166.301 143.719,166.031 143.551,165.789C143.379,165.539 143.16,165.32 142.91,165.121C142.66,164.922 142.391,164.77 142.09,164.641C141.77,164.5 141.449,164.391 141.078,164.328C140.691,164.25 140.262,164.211 139.801,164.211C139.328,164.211 138.871,164.25 138.449,164.34C138.07,164.422 137.73,164.539 137.422,164.711C137.109,164.871 136.828,165.07 136.578,165.27C136.352,165.48 136.129,165.73 135.98,166.02C135.801,166.328 135.672,166.66 135.57,167.059C135.469,167.48 135.41,167.969 135.41,168.48L137.191,168.48C137.191,168.141 137.23,167.82 137.301,167.531C137.352,167.281 137.441,167.059 137.551,166.852C137.648,166.672 137.781,166.5 137.93,166.371C138.09,166.23 138.25,166.09 138.449,165.988C138.648,165.879 138.84,165.809 139.07,165.75C139.301,165.699 139.57,165.672 139.828,165.672C140.078,165.672 140.328,165.699 140.551,165.738C140.762,165.781 140.949,165.852 141.141,165.941C141.309,166.02 141.48,166.121 141.621,166.238C141.762,166.359 141.891,166.512 142,166.648C142.109,166.789 142.18,166.949 142.23,167.141C142.281,167.32 142.309,167.52 142.309,167.73C142.309,167.898 142.289,168.07 142.25,168.23C142.211,168.391 142.16,168.531 142.078,168.68C142,168.809 141.891,168.961 141.781,169.09Z" style="fill:rgb(30,81,162);fill-rule:nonzero;"/>
        </g>
        <g transform="matrix(0.383211,0,0,0.383211,81.3339,74.333)">
            <path d="M122.559,174.691C122.34,174.621 122.141,174.531 121.969,174.398C121.789,174.27 121.641,174.109 121.52,173.922C121.379,173.711 121.27,173.449 121.211,173.16L119.43,173.16C119.488,173.609 119.602,174 119.738,174.359C119.871,174.68 120.051,174.941 120.262,175.18C120.469,175.41 120.691,175.59 120.969,175.75C121.262,175.91 121.57,176.039 121.922,176.121C122.32,176.211 122.77,176.262 123.25,176.262C123.75,176.262 124.219,176.191 124.66,176.059C125.078,175.941 125.43,175.762 125.789,175.52C126.16,175.262 126.5,174.93 126.77,174.551C127.02,174.211 127.238,173.828 127.422,173.398C127.621,172.93 127.781,172.422 127.879,171.84C128,171.211 128.051,170.52 128.051,169.781C128.051,169.102 128,168.469 127.879,167.891C127.781,167.379 127.629,166.93 127.449,166.531C127.281,166.172 127.07,165.852 126.84,165.578C126.578,165.281 126.27,165.031 125.93,164.82C125.602,164.621 125.25,164.48 124.859,164.371C124.441,164.262 123.98,164.199 123.52,164.199C123.051,164.199 122.602,164.25 122.199,164.34C121.82,164.43 121.488,164.551 121.16,164.719C120.852,164.891 120.57,165.102 120.32,165.328C120.09,165.57 119.871,165.84 119.711,166.121C119.539,166.41 119.41,166.719 119.32,167.07C119.23,167.441 119.18,167.828 119.18,168.25C119.18,168.66 119.23,169.051 119.32,169.398C119.41,169.73 119.531,170.02 119.699,170.289C119.859,170.551 120.051,170.789 120.289,171C120.52,171.219 120.801,171.41 121.102,171.559C121.391,171.719 121.699,171.82 122.039,171.898C122.398,171.98 122.809,172.031 123.23,172.031C123.711,172.031 124.172,171.961 124.59,171.852C124.969,171.73 125.301,171.59 125.578,171.371C125.898,171.148 126.148,170.859 126.371,170.531C126.281,171.121 126.16,171.66 126.031,172.121C125.91,172.551 125.801,172.91 125.648,173.211C125.531,173.48 125.391,173.719 125.238,173.891C125.078,174.09 124.898,174.262 124.699,174.391C124.5,174.52 124.309,174.609 124.09,174.68C123.859,174.75 123.609,174.789 123.34,174.789C123.07,174.789 122.801,174.75 122.559,174.691ZM126.02,168.199C126.02,168.469 125.988,168.711 125.93,168.93C125.879,169.141 125.789,169.32 125.68,169.5C125.57,169.672 125.441,169.809 125.301,169.949C125.141,170.078 124.969,170.199 124.789,170.309C124.609,170.398 124.41,170.48 124.191,170.52C123.969,170.57 123.719,170.602 123.469,170.602C123.219,170.602 122.969,170.578 122.75,170.52C122.539,170.469 122.34,170.398 122.16,170.301C121.98,170.211 121.801,170.078 121.66,169.93C121.52,169.801 121.398,169.641 121.301,169.469C121.191,169.289 121.121,169.102 121.07,168.879C121.02,168.641 120.98,168.391 120.98,168.121C120.98,167.84 121,167.602 121.07,167.359C121.121,167.148 121.199,166.949 121.301,166.77C121.41,166.602 121.52,166.449 121.672,166.309C121.809,166.172 121.98,166.039 122.172,165.949C122.352,165.859 122.551,165.781 122.762,165.73C122.98,165.68 123.23,165.648 123.48,165.648C123.73,165.648 123.98,165.672 124.199,165.738C124.422,165.789 124.602,165.871 124.801,165.98C124.98,166.078 125.172,166.23 125.309,166.391C125.449,166.551 125.578,166.719 125.691,166.891C125.801,167.07 125.871,167.27 125.922,167.48C125.988,167.711 126.02,167.949 126.02,168.199Z" style="fill:rgb(30,81,162);fill-rule:nonzero;"/>
        </g>
        <g transform="matrix(0.383211,0,0,0.383211,81.3339,74.333)">
            <rect x="58.461" y="131.27" width="2.199" height="3.582" style="fill:rgb(30,81,162);fill-rule:nonzero;"/>
        </g>
        <g transform="matrix(0.383211,0,0,0.383211,81.3339,74.333)">
            <rect x="54.98" y="131.27" width="2.199" height="3.582" style="fill:rgb(30,81,162);fill-rule:nonzero;"/>
        </g>
        <g transform="matrix(0.383211,0,0,0.383211,81.3339,74.333)">
            <rect x="51.512" y="131.27" width="2.199" height="3.582" style="fill:rgb(30,81,162);fill-rule:nonzero;"/>
        </g>
        <g transform="matrix(0.383211,0,0,0.383211,81.3339,74.333)">
            <rect x="48.02" y="131.27" width="2.199" height="3.582" style="fill:rgb(30,81,162);fill-rule:nonzero;"/>
        </g>
        <g transform="matrix(0.383211,0,0,0.383211,81.3339,74.333)">
            <rect x="44.539" y="131.27" width="2.199" height="3.582" style="fill:rgb(30,81,162);fill-rule:nonzero;"/>
        </g>
        <g transform="matrix(0.383211,0,0,0.383211,81.3339,74.333)">
            <rect x="58.461" y="136.219" width="2.199" height="3.582" style="fill:rgb(30,81,162);fill-rule:nonzero;"/>
        </g>
        <g transform="matrix(0.383211,0,0,0.383211,81.3339,74.333)">
            <rect x="54.98" y="136.219" width="2.199" height="3.582" style="fill:rgb(30,81,162);fill-rule:nonzero;"/>
        </g>
        <g transform="matrix(0.383211,0,0,0.383211,81.3339,74.333)">
            <rect x="51.512" y="136.219" width="2.199" height="3.582" style="fill:rgb(30,81,162);fill-rule:nonzero;"/>
        </g>
        <g transform="matrix(0.383211,0,0,0.383211,81.3339,74.333)">
            <rect x="48.02" y="136.219" width="2.199" height="3.582" style="fill:rgb(30,81,162);fill-rule:nonzero;"/>
        </g>
        <g transform="matrix(0.383211,0,0,0.383211,81.3339,74.333)">
            <rect x="44.539" y="136.219" width="2.199" height="3.582" style="fill:rgb(30,81,162);fill-rule:nonzero;"/>
        </g>
        <g transform="matrix(0.383211,0,0,0.383211,81.3339,74.333)">
            <rect x="58.461" y="141.172" width="2.199" height="3.578" style="fill:rgb(30,81,162);fill-rule:nonzero;"/>
        </g>
        <g transform="matrix(0.383211,0,0,0.383211,81.3339,74.333)">
            <rect x="67.371" y="132.879" width="2.199" height="3.582" style="fill:rgb(30,81,162);fill-rule:nonzero;"/>
        </g>
        <g transform="matrix(0.383211,0,0,0.383211,81.3339,74.333)">
            <rect x="67.371" y="137.84" width="2.199" height="3.582" style="fill:rgb(30,81,162);fill-rule:nonzero;"/>
        </g>
        <g transform="matrix(0.383211,0,0,0.383211,81.3339,74.333)">
            <rect x="67.371" y="142.781" width="2.199" height="3.578" style="fill:rgb(30,81,162);fill-rule:nonzero;"/>
        </g>
        <g transform="matrix(0.383211,0,0,0.383211,81.3339,74.333)">
            <rect x="54.98" y="141.172" width="2.199" height="3.578" style="fill:rgb(30,81,162);fill-rule:nonzero;"/>
        </g>
        <g transform="matrix(0.383211,0,0,0.383211,81.3339,74.333)">
            <rect x="51.512" y="141.172" width="2.199" height="3.578" style="fill:rgb(30,81,162);fill-rule:nonzero;"/>
        </g>
        <g transform="matrix(0.383211,0,0,0.383211,81.3339,74.333)">
            <rect x="48.02" y="141.172" width="2.199" height="3.578" style="fill:rgb(30,81,162);fill-rule:nonzero;"/>
        </g>
        <g transform="matrix(0.383211,0,0,0.383211,81.3339,74.333)">
            <rect x="44.539" y="141.172" width="2.199" height="3.578" style="fill:rgb(30,81,162);fill-rule:nonzero;"/>
        </g>
        <g transform="matrix(0.383211,0,0,0.383211,81.3339,74.333)">
            <rect x="58.461" y="146.129" width="2.199" height="3.582" style="fill:rgb(30,81,162);fill-rule:nonzero;"/>
        </g>
        <g transform="matrix(0.383211,0,0,0.383211,81.3339,74.333)">
            <rect x="54.98" y="146.129" width="2.199" height="3.582" style="fill:rgb(30,81,162);fill-rule:nonzero;"/>
        </g>
        <g transform="matrix(0.383211,0,0,0.383211,81.3339,74.333)">
            <rect x="51.512" y="146.129" width="2.199" height="3.582" style="fill:rgb(30,81,162);fill-rule:nonzero;"/>
        </g>
        <g transform="matrix(0.383211,0,0,0.383211,81.3339,74.333)">
            <rect x="48.02" y="146.129" width="2.199" height="3.582" style="fill:rgb(30,81,162);fill-rule:nonzero;"/>
        </g>
        <g transform="matrix(0.383211,0,0,0.383211,81.3339,74.333)">
            <rect x="44.539" y="146.129" width="2.199" height="3.582" style="fill:rgb(30,81,162);fill-rule:nonzero;"/>
        </g>
        <g transform="matrix(0.383211,0,0,0.383211,81.3339,74.333)">
            <rect x="78.172" y="124.719" width="2.199" height="3.582" style="fill:rgb(30,81,162);fill-rule:nonzero;"/>
        </g>
        <g transform="matrix(0.383211,0,0,0.383211,81.3339,74.333)">
            <path d="M79.27,118.73C78.66,118.73 78.172,119.23 78.172,119.828L78.172,122.949L80.371,122.949L80.371,119.828C80.359,119.211 79.871,118.73 79.27,118.73Z" style="fill:rgb(30,81,162);fill-rule:nonzero;"/>
        </g>
        <g transform="matrix(0.383211,0,0,0.383211,81.3339,74.333)">
            <rect x="78.172" y="130.07" width="2.199" height="3.578" style="fill:rgb(30,81,162);fill-rule:nonzero;"/>
        </g>
        <g transform="matrix(0.383211,0,0,0.383211,81.3339,74.333)">
            <rect x="78.172" y="135.422" width="2.199" height="3.578" style="fill:rgb(30,81,162);fill-rule:nonzero;"/>
        </g>
        <g transform="matrix(0.383211,0,0,0.383211,81.3339,74.333)">
            <rect x="78.172" y="140.77" width="2.199" height="3.582" style="fill:rgb(30,81,162);fill-rule:nonzero;"/>
        </g>
        <g transform="matrix(0.383211,0,0,0.383211,81.3339,74.333)">
            <rect x="78.172" y="146.129" width="2.199" height="3.582" style="fill:rgb(30,81,162);fill-rule:nonzero;"/>
        </g>
        <g transform="matrix(0.383211,0,0,0.383211,81.3339,74.333)">
            <rect x="82.18" y="124.719" width="2.199" height="3.582" style="fill:rgb(30,81,162);fill-rule:nonzero;"/>
        </g>
        <g transform="matrix(0.383211,0,0,0.383211,81.3339,74.333)">
            <path d="M83.289,118.73C82.68,118.73 82.191,119.23 82.191,119.828L82.191,122.949L84.391,122.949L84.391,119.828C84.391,119.211 83.891,118.73 83.289,118.73Z" style="fill:rgb(30,81,162);fill-rule:nonzero;"/>
        </g>
        <g transform="matrix(0.383211,0,0,0.383211,81.3339,74.333)">
            <rect x="82.18" y="130.07" width="2.199" height="3.578" style="fill:rgb(30,81,162);fill-rule:nonzero;"/>
        </g>
        <g transform="matrix(0.383211,0,0,0.383211,81.3339,74.333)">
            <rect x="82.18" y="135.422" width="2.199" height="3.578" style="fill:rgb(30,81,162);fill-rule:nonzero;"/>
        </g>
        <g transform="matrix(0.383211,0,0,0.383211,81.3339,74.333)">
            <rect x="82.18" y="140.77" width="2.199" height="3.582" style="fill:rgb(30,81,162);fill-rule:nonzero;"/>
        </g>
        <g transform="matrix(0.383211,0,0,0.383211,81.3339,74.333)">
            <rect x="82.18" y="146.129" width="2.199" height="3.582" style="fill:rgb(30,81,162);fill-rule:nonzero;"/>
        </g>
        <g transform="matrix(0.383211,0,0,0.383211,81.3339,74.333)">
            <rect x="86.211" y="124.719" width="2.199" height="3.582" style="fill:rgb(30,81,162);fill-rule:nonzero;"/>
        </g>
        <g transform="matrix(0.383211,0,0,0.383211,81.3339,74.333)">
            <path d="M87.301,118.73C86.68,118.73 86.199,119.23 86.199,119.828L86.199,122.949L88.398,122.949L88.398,119.828C88.398,119.211 87.922,118.73 87.301,118.73Z" style="fill:rgb(30,81,162);fill-rule:nonzero;"/>
        </g>
        <g transform="matrix(0.383211,0,0,0.383211,81.3339,74.333)">
            <rect x="86.211" y="130.07" width="2.199" height="3.578" style="fill:rgb(30,81,162);fill-rule:nonzero;"/>
        </g>
        <g transform="matrix(0.383211,0,0,0.383211,81.3339,74.333)">
            <rect x="86.211" y="135.422" width="2.199" height="3.578" style="fill:rgb(30,81,162);fill-rule:nonzero;"/>
        </g>
        <g transform="matrix(0.383211,0,0,0.383211,81.3339,74.333)">
            <rect x="86.211" y="140.77" width="2.199" height="3.582" style="fill:rgb(30,81,162);fill-rule:nonzero;"/>
        </g>
        <g transform="matrix(0.383211,0,0,0.383211,81.3339,74.333)">
            <rect x="86.211" y="146.129" width="2.199" height="3.582" style="fill:rgb(30,81,162);fill-rule:nonzero;"/>
        </g>
        <g transform="matrix(0.383211,0,0,0.383211,81.3339,74.333)">
            <rect x="90.219" y="124.719" width="2.203" height="3.582" style="fill:rgb(30,81,162);fill-rule:nonzero;"/>
        </g>
        <g transform="matrix(0.383211,0,0,0.383211,81.3339,74.333)">
            <path d="M91.328,118.73C90.719,118.73 90.23,119.23 90.23,119.828L90.23,122.949L92.43,122.949L92.43,119.828C92.43,119.211 91.93,118.73 91.328,118.73Z" style="fill:rgb(30,81,162);fill-rule:nonzero;"/>
        </g>
        <g transform="matrix(0.383211,0,0,0.383211,81.3339,74.333)">
            <rect x="90.219" y="130.07" width="2.203" height="3.578" style="fill:rgb(30,81,162);fill-rule:nonzero;"/>
        </g>
        <g transform="matrix(0.383211,0,0,0.383211,81.3339,74.333)">
            <rect x="90.219" y="135.422" width="2.203" height="3.578" style="fill:rgb(30,81,162);fill-rule:nonzero;"/>
        </g>
        <g transform="matrix(0.383211,0,0,0.383211,81.3339,74.333)">
            <rect x="90.219" y="140.77" width="2.203" height="3.582" style="fill:rgb(30,81,162);fill-rule:nonzero;"/>
        </g>
        <g transform="matrix(0.383211,0,0,0.383211,81.3339,74.333)">
            <rect x="90.219" y="146.129" width="2.203" height="3.582" style="fill:rgb(30,81,162);fill-rule:nonzero;"/>
        </g>
        <g transform="matrix(0.383211,0,0,0.383211,81.3339,74.333)">
            <rect x="94.238" y="124.719" width="2.203" height="3.582" style="fill:rgb(30,81,162);fill-rule:nonzero;"/>
        </g>
        <g transform="matrix(0.383211,0,0,0.383211,81.3339,74.333)">
            <path d="M95.34,118.73C94.73,118.73 94.238,119.23 94.238,119.828L94.238,122.949L96.441,122.949L96.441,119.828C96.441,119.211 95.949,118.73 95.34,118.73Z" style="fill:rgb(30,81,162);fill-rule:nonzero;"/>
        </g>
        <g transform="matrix(0.383211,0,0,0.383211,81.3339,74.333)">
            <rect x="94.238" y="130.07" width="2.203" height="3.578" style="fill:rgb(30,81,162);fill-rule:nonzero;"/>
        </g>
        <g transform="matrix(0.383211,0,0,0.383211,81.3339,74.333)">
            <rect x="94.238" y="135.422" width="2.203" height="3.578" style="fill:rgb(30,81,162);fill-rule:nonzero;"/>
        </g>
        <g transform="matrix(0.383211,0,0,0.383211,81.3339,74.333)">
            <rect x="94.238" y="140.77" width="2.203" height="3.582" style="fill:rgb(30,81,162);fill-rule:nonzero;"/>
        </g>
        <g transform="matrix(0.383211,0,0,0.383211,81.3339,74.333)">
            <rect x="94.238" y="146.129" width="2.203" height="3.582" style="fill:rgb(30,81,162);fill-rule:nonzero;"/>
        </g>
        <g transform="matrix(0.383211,0,0,0.383211,81.3339,74.333)">
            <rect x="98.27" y="124.719" width="2.199" height="3.582" style="fill:rgb(30,81,162);fill-rule:nonzero;"/>
        </g>
        <g transform="matrix(0.383211,0,0,0.383211,81.3339,74.333)">
            <path d="M99.371,118.73C98.75,118.73 98.27,119.23 98.27,119.828L98.27,122.949L100.469,122.949L100.469,119.828C100.461,119.211 99.969,118.73 99.371,118.73Z" style="fill:rgb(30,81,162);fill-rule:nonzero;"/>
        </g>
        <g transform="matrix(0.383211,0,0,0.383211,81.3339,74.333)">
            <rect x="98.27" y="130.07" width="2.199" height="3.578" style="fill:rgb(30,81,162);fill-rule:nonzero;"/>
        </g>
        <g transform="matrix(0.383211,0,0,0.383211,81.3339,74.333)">
            <rect x="98.27" y="135.422" width="2.199" height="3.578" style="fill:rgb(30,81,162);fill-rule:nonzero;"/>
        </g>
        <g transform="matrix(0.383211,0,0,0.383211,81.3339,74.333)">
            <rect x="98.27" y="140.77" width="2.199" height="3.582" style="fill:rgb(30,81,162);fill-rule:nonzero;"/>
        </g>
        <g transform="matrix(0.383211,0,0,0.383211,81.3339,74.333)">
            <rect x="98.27" y="146.129" width="2.199" height="3.582" style="fill:rgb(30,81,162);fill-rule:nonzero;"/>
        </g>
        <g transform="matrix(0.383211,0,0,0.383211,81.3339,74.333)">
            <rect x="102.281" y="124.719" width="2.199" height="3.582" style="fill:rgb(30,81,162);fill-rule:nonzero;"/>
        </g>
        <g transform="matrix(0.383211,0,0,0.383211,81.3339,74.333)">
            <path d="M103.379,118.73C102.77,118.73 102.281,119.23 102.281,119.828L102.281,122.949L104.48,122.949L104.48,119.828C104.488,119.211 103.988,118.73 103.379,118.73Z" style="fill:rgb(30,81,162);fill-rule:nonzero;"/>
        </g>
        <g transform="matrix(0.383211,0,0,0.383211,81.3339,74.333)">
            <rect x="102.281" y="130.07" width="2.199" height="3.578" style="fill:rgb(30,81,162);fill-rule:nonzero;"/>
        </g>
        <g transform="matrix(0.383211,0,0,0.383211,81.3339,74.333)">
            <rect x="102.281" y="135.422" width="2.199" height="3.578" style="fill:rgb(30,81,162);fill-rule:nonzero;"/>
        </g>
        <g transform="matrix(0.383211,0,0,0.383211,81.3339,74.333)">
            <rect x="102.281" y="140.77" width="2.199" height="3.582" style="fill:rgb(30,81,162);fill-rule:nonzero;"/>
        </g>
        <g transform="matrix(0.383211,0,0,0.383211,81.3339,74.333)">
            <rect x="102.281" y="146.129" width="2.199" height="3.582" style="fill:rgb(30,81,162);fill-rule:nonzero;"/>
        </g>
        <g transform="matrix(0.383211,0,0,0.383211,81.3339,74.333)">
            <rect x="106.301" y="124.719" width="2.199" height="3.582" style="fill:rgb(30,81,162);fill-rule:nonzero;"/>
        </g>
        <g transform="matrix(0.383211,0,0,0.383211,81.3339,74.333)">
            <path d="M107.398,118.73C106.789,118.73 106.301,119.23 106.301,119.828L106.301,122.949L108.5,122.949L108.5,119.828C108.5,119.211 108,118.73 107.398,118.73Z" style="fill:rgb(30,81,162);fill-rule:nonzero;"/>
        </g>
        <g transform="matrix(0.383211,0,0,0.383211,81.3339,74.333)">
            <rect x="106.301" y="130.07" width="2.199" height="3.578" style="fill:rgb(30,81,162);fill-rule:nonzero;"/>
        </g>
        <g transform="matrix(0.383211,0,0,0.383211,81.3339,74.333)">
            <rect x="106.301" y="135.422" width="2.199" height="3.578" style="fill:rgb(30,81,162);fill-rule:nonzero;"/>
        </g>
        <g transform="matrix(0.383211,0,0,0.383211,81.3339,74.333)">
            <rect x="106.301" y="140.77" width="2.199" height="3.582" style="fill:rgb(30,81,162);fill-rule:nonzero;"/>
        </g>
        <g transform="matrix(0.383211,0,0,0.383211,81.3339,74.333)">
            <rect x="106.301" y="146.129" width="2.199" height="3.582" style="fill:rgb(30,81,162);fill-rule:nonzero;"/>
        </g>
        <g transform="matrix(0.383211,0,0,0.383211,81.3339,74.333)">
            <rect x="110.32" y="124.719" width="2.199" height="3.582" style="fill:rgb(30,81,162);fill-rule:nonzero;"/>
        </g>
        <g transform="matrix(0.383211,0,0,0.383211,81.3339,74.333)">
            <path d="M112.531,119.828C112.531,119.219 112.031,118.73 111.43,118.73C110.82,118.73 110.328,119.23 110.328,119.828L110.328,122.949L112.531,122.949L112.531,119.828Z" style="fill:rgb(30,81,162);fill-rule:nonzero;"/>
        </g>
        <g transform="matrix(0.383211,0,0,0.383211,81.3339,74.333)">
            <rect x="110.32" y="130.07" width="2.199" height="3.578" style="fill:rgb(30,81,162);fill-rule:nonzero;"/>
        </g>
        <g transform="matrix(0.383211,0,0,0.383211,81.3339,74.333)">
            <rect x="114.34" y="124.719" width="2.199" height="3.582" style="fill:rgb(30,81,162);fill-rule:nonzero;"/>
        </g>
        <g transform="matrix(0.383211,0,0,0.383211,81.3339,74.333)">
            <path d="M116.539,119.828C116.539,119.219 116.039,118.73 115.441,118.73C114.828,118.73 114.34,119.23 114.34,119.828L114.34,122.949L116.539,122.949L116.539,119.828Z" style="fill:rgb(30,81,162);fill-rule:nonzero;"/>
        </g>
        <g transform="matrix(0.383211,0,0,0.383211,81.3339,74.333)">
            <rect x="114.34" y="130.07" width="2.199" height="3.578" style="fill:rgb(30,81,162);fill-rule:nonzero;"/>
        </g>
        <g transform="matrix(0.383211,0,0,0.383211,81.3339,74.333)">
            <rect x="26.5" y="131.27" width="2.199" height="3.582" style="fill:rgb(30,81,162);fill-rule:nonzero;"/>
        </g>
        <g transform="matrix(0.383211,0,0,0.383211,81.3339,74.333)">
            <rect x="26.5" y="136.219" width="2.199" height="3.582" style="fill:rgb(30,81,162);fill-rule:nonzero;"/>
        </g>
        <g transform="matrix(0.383211,0,0,0.383211,81.3339,74.333)">
            <rect x="26.5" y="141.172" width="2.199" height="3.578" style="fill:rgb(30,81,162);fill-rule:nonzero;"/>
        </g>
        <g transform="matrix(0.383211,0,0,0.383211,81.3339,74.333)">
            <rect x="26.5" y="146.129" width="2.199" height="3.582" style="fill:rgb(30,81,162);fill-rule:nonzero;"/>
        </g>
        <g transform="matrix(0.383211,0,0,0.383211,81.3339,74.333)">
            <rect x="31.309" y="131.27" width="2.203" height="3.582" style="fill:rgb(30,81,162);fill-rule:nonzero;"/>
        </g>
        <g transform="matrix(0.383211,0,0,0.383211,81.3339,74.333)">
            <rect x="31.309" y="136.219" width="2.203" height="3.582" style="fill:rgb(30,81,162);fill-rule:nonzero;"/>
        </g>
        <g transform="matrix(0.383211,0,0,0.383211,81.3339,74.333)">
            <rect x="31.309" y="141.172" width="2.203" height="3.578" style="fill:rgb(30,81,162);fill-rule:nonzero;"/>
        </g>
        <g transform="matrix(0.383211,0,0,0.383211,81.3339,74.333)">
            <rect x="31.309" y="146.129" width="2.203" height="3.582" style="fill:rgb(30,81,162);fill-rule:nonzero;"/>
        </g>
        <g transform="matrix(0.383211,0,0,0.383211,81.3339,74.333)">
            <rect x="34.75" y="131.27" width="2.199" height="3.582" style="fill:rgb(30,81,162);fill-rule:nonzero;"/>
        </g>
        <g transform="matrix(0.383211,0,0,0.383211,81.3339,74.333)">
            <rect x="34.75" y="136.219" width="2.199" height="3.582" style="fill:rgb(30,81,162);fill-rule:nonzero;"/>
        </g>
        <g transform="matrix(0.383211,0,0,0.383211,81.3339,74.333)">
            <rect x="34.75" y="141.172" width="2.199" height="3.578" style="fill:rgb(30,81,162);fill-rule:nonzero;"/>
        </g>
        <g transform="matrix(0.383211,0,0,0.383211,81.3339,74.333)">
            <rect x="34.75" y="146.129" width="2.199" height="3.582" style="fill:rgb(30,81,162);fill-rule:nonzero;"/>
        </g>
        <g transform="matrix(0.383211,0,0,0.383211,81.3339,74.333)">
            <rect x="21.52" y="131.27" width="2.199" height="3.582" style="fill:rgb(30,81,162);fill-rule:nonzero;"/>
        </g>
        <g transform="matrix(0.383211,0,0,0.383211,81.3339,74.333)">
            <rect x="18.051" y="131.27" width="2.199" height="3.582" style="fill:rgb(30,81,162);fill-rule:nonzero;"/>
        </g>
        <g transform="matrix(0.383211,0,0,0.383211,81.3339,74.333)">
            <rect x="14.57" y="131.27" width="2.199" height="3.582" style="fill:rgb(30,81,162);fill-rule:nonzero;"/>
        </g>
        <g transform="matrix(0.383211,0,0,0.383211,81.3339,74.333)">
            <rect x="11.102" y="131.27" width="2.199" height="3.582" style="fill:rgb(30,81,162);fill-rule:nonzero;"/>
        </g>
        <g transform="matrix(0.383211,0,0,0.383211,81.3339,74.333)">
            <rect x="7.609" y="131.27" width="2.199" height="3.582" style="fill:rgb(30,81,162);fill-rule:nonzero;"/>
        </g>
        <g transform="matrix(0.383211,0,0,0.383211,81.3339,74.333)">
            <rect x="21.52" y="136.219" width="2.199" height="3.582" style="fill:rgb(30,81,162);fill-rule:nonzero;"/>
        </g>
        <g transform="matrix(0.383211,0,0,0.383211,81.3339,74.333)">
            <rect x="18.051" y="136.219" width="2.199" height="3.582" style="fill:rgb(30,81,162);fill-rule:nonzero;"/>
        </g>
        <g transform="matrix(0.383211,0,0,0.383211,81.3339,74.333)">
            <rect x="14.57" y="136.219" width="2.199" height="3.582" style="fill:rgb(30,81,162);fill-rule:nonzero;"/>
        </g>
        <g transform="matrix(0.383211,0,0,0.383211,81.3339,74.333)">
            <rect x="11.102" y="136.219" width="2.199" height="3.582" style="fill:rgb(30,81,162);fill-rule:nonzero;"/>
        </g>
        <g transform="matrix(0.383211,0,0,0.383211,81.3339,74.333)">
            <rect x="7.609" y="136.219" width="2.199" height="3.582" style="fill:rgb(30,81,162);fill-rule:nonzero;"/>
        </g>
        <g transform="matrix(0.383211,0,0,0.383211,81.3339,74.333)">
            <rect x="21.52" y="141.172" width="2.199" height="3.578" style="fill:rgb(30,81,162);fill-rule:nonzero;"/>
        </g>
        <g transform="matrix(0.383211,0,0,0.383211,81.3339,74.333)">
            <rect x="18.051" y="141.172" width="2.199" height="3.578" style="fill:rgb(30,81,162);fill-rule:nonzero;"/>
        </g>
        <g transform="matrix(0.383211,0,0,0.383211,81.3339,74.333)">
            <rect x="14.57" y="141.172" width="2.199" height="3.578" style="fill:rgb(30,81,162);fill-rule:nonzero;"/>
        </g>
        <g transform="matrix(0.383211,0,0,0.383211,81.3339,74.333)">
            <rect x="11.102" y="141.172" width="2.199" height="3.578" style="fill:rgb(30,81,162);fill-rule:nonzero;"/>
        </g>
        <g transform="matrix(0.383211,0,0,0.383211,81.3339,74.333)">
            <rect x="7.609" y="141.172" width="2.199" height="3.578" style="fill:rgb(30,81,162);fill-rule:nonzero;"/>
        </g>
        <g transform="matrix(0.383211,0,0,0.383211,81.3339,74.333)">
            <rect x="21.52" y="146.129" width="2.199" height="3.582" style="fill:rgb(30,81,162);fill-rule:nonzero;"/>
        </g>
        <g transform="matrix(0.383211,0,0,0.383211,81.3339,74.333)">
            <rect x="18.051" y="146.129" width="2.199" height="3.582" style="fill:rgb(30,81,162);fill-rule:nonzero;"/>
        </g>
        <g transform="matrix(0.383211,0,0,0.383211,81.3339,74.333)">
            <rect x="14.57" y="146.129" width="2.199" height="3.582" style="fill:rgb(30,81,162);fill-rule:nonzero;"/>
        </g>
        <g transform="matrix(0.383211,0,0,0.383211,81.3339,74.333)">
            <rect x="11.102" y="146.129" width="2.199" height="3.582" style="fill:rgb(30,81,162);fill-rule:nonzero;"/>
        </g>
        <g transform="matrix(0.383211,0,0,0.383211,81.3339,74.333)">
            <rect x="7.609" y="146.129" width="2.199" height="3.582" style="fill:rgb(30,81,162);fill-rule:nonzero;"/>
        </g>
        <g transform="matrix(0.383211,0,0,0.383211,81.3339,74.333)">
            <rect x="39.551" y="131.27" width="2.199" height="3.582" style="fill:rgb(30,81,162);fill-rule:nonzero;"/>
        </g>
        <g transform="matrix(0.383211,0,0,0.383211,81.3339,74.333)">
            <rect x="39.551" y="136.219" width="2.199" height="3.582" style="fill:rgb(30,81,162);fill-rule:nonzero;"/>
        </g>
        <g transform="matrix(0.383211,0,0,0.383211,81.3339,74.333)">
            <rect x="39.551" y="141.172" width="2.199" height="3.578" style="fill:rgb(30,81,162);fill-rule:nonzero;"/>
        </g>
        <g transform="matrix(0.383211,0,0,0.383211,81.3339,74.333)">
            <rect x="39.551" y="146.129" width="2.199" height="3.582" style="fill:rgb(30,81,162);fill-rule:nonzero;"/>
        </g>
        <g transform="matrix(0.383211,0,0,0.383211,81.3339,74.333)">
            <path d="M120.859,112.031L123.07,112.031L123.07,108.441L120.859,108.441L120.859,112.031Z" style="fill:rgb(30,81,162);fill-rule:nonzero;"/>
        </g>
        <g transform="matrix(0.383211,0,0,0.383211,81.3339,74.333)">
            <path d="M120.859,117.379L123.07,117.379L123.07,113.789L120.859,113.789L120.859,117.379Z" style="fill:rgb(30,81,162);fill-rule:nonzero;"/>
        </g>
        <g transform="matrix(0.383211,0,0,0.383211,81.3339,74.333)">
            <path d="M120.859,122.73L123.07,122.73L123.07,119.141L120.859,119.141L120.859,122.73Z" style="fill:rgb(30,81,162);fill-rule:nonzero;"/>
        </g>
        <g transform="matrix(0.383211,0,0,0.383211,81.3339,74.333)">
            <path d="M120.859,128.078L123.07,128.078L123.07,124.488L120.859,124.488L120.859,128.078Z" style="fill:rgb(30,81,162);fill-rule:nonzero;"/>
        </g>
        <g transform="matrix(0.383211,0,0,0.383211,81.3339,74.333)">
            <path d="M120.859,133.43L123.07,133.43L123.07,129.84L120.859,129.84L120.859,133.43Z" style="fill:rgb(30,81,162);fill-rule:nonzero;"/>
        </g>
        <g transform="matrix(0.383211,0,0,0.383211,81.3339,74.333)">
            <path d="M129.23,112.031L129.238,108.441L127.02,108.441L127.02,112.031L129.23,112.031Z" style="fill:rgb(30,81,162);fill-rule:nonzero;"/>
        </g>
        <g transform="matrix(0.383211,0,0,0.383211,81.3339,74.333)">
            <path d="M129.23,117.379L129.238,113.789L127.02,113.789L127.02,117.379L129.23,117.379Z" style="fill:rgb(30,81,162);fill-rule:nonzero;"/>
        </g>
        <g transform="matrix(0.383211,0,0,0.383211,81.3339,74.333)">
            <path d="M129.23,122.73L129.238,119.141L127.02,119.141L127.02,122.73L129.23,122.73Z" style="fill:rgb(30,81,162);fill-rule:nonzero;"/>
        </g>
        <g transform="matrix(0.383211,0,0,0.383211,81.3339,74.333)">
            <path d="M129.23,128.078L129.238,124.488L127.02,124.488L127.02,128.078L129.23,128.078Z" style="fill:rgb(30,81,162);fill-rule:nonzero;"/>
        </g>
        <g transform="matrix(0.383211,0,0,0.383211,81.3339,74.333)">
            <path d="M129.23,133.43L129.238,129.84L127.02,129.84L127.02,133.43L129.23,133.43Z" style="fill:rgb(30,81,162);fill-rule:nonzero;"/>
        </g>
        <g transform="matrix(0.383211,0,0,0.383211,81.3339,74.333)">
            <path d="M129.879,86.379L129.891,82.801L127.68,82.801L127.68,86.379L129.879,86.379Z" style="fill:rgb(30,81,162);fill-rule:nonzero;"/>
        </g>
        <g transform="matrix(0.383211,0,0,0.383211,81.3339,74.333)">
            <path d="M129.879,100.469L129.891,96.879L127.68,96.879L127.68,100.469L129.879,100.469Z" style="fill:rgb(30,81,162);fill-rule:nonzero;"/>
        </g>
        <g transform="matrix(0.383211,0,0,0.383211,81.3339,74.333)">
            <path d="M129.879,91.121L129.891,87.531L127.68,87.531L127.68,91.121L129.879,91.121Z" style="fill:rgb(30,81,162);fill-rule:nonzero;"/>
        </g>
        <g transform="matrix(0.383211,0,0,0.383211,81.3339,74.333)">
            <path d="M126.16,78.34L128.621,78.34L128.621,79.09L129,79.09L129,78.34L129.512,78.34L129.512,77.301L128.02,77.301L128.02,77.09L128.98,76.328L128.98,74.031L128.02,74.789L128.02,74.031L126.75,74.031L126.75,74.789L125.781,74.031L125.781,76.328C125.781,76.328 126.75,77.09 126.75,77.078L126.75,77.289L125.262,77.289L125.262,78.328L125.77,78.328L125.77,79.078L126.148,79.078L126.148,78.352L126.16,78.352L126.16,78.34ZM127.129,74.41L127.641,74.41L127.641,77.281L127.129,77.281L127.129,74.41ZM125.641,77.949L125.641,77.68L129.121,77.68L129.121,77.949L125.641,77.949Z" style="fill:rgb(30,81,162);fill-rule:nonzero;"/>
        </g>
        <g transform="matrix(0.383211,0,0,0.383211,81.3339,74.333)">
            <rect x="203.762" y="131.27" width="2.199" height="3.582" style="fill:rgb(30,81,162);fill-rule:nonzero;"/>
        </g>
        <g transform="matrix(0.383211,0,0,0.383211,81.3339,74.333)">
            <rect x="207.238" y="131.27" width="2.203" height="3.582" style="fill:rgb(30,81,162);fill-rule:nonzero;"/>
        </g>
        <g transform="matrix(0.383211,0,0,0.383211,81.3339,74.333)">
            <rect x="210.711" y="131.27" width="2.199" height="3.582" style="fill:rgb(30,81,162);fill-rule:nonzero;"/>
        </g>
        <g transform="matrix(0.383211,0,0,0.383211,81.3339,74.333)">
            <rect x="214.211" y="131.27" width="2.199" height="3.582" style="fill:rgb(30,81,162);fill-rule:nonzero;"/>
        </g>
        <g transform="matrix(0.383211,0,0,0.383211,81.3339,74.333)">
            <rect x="217.68" y="131.27" width="2.199" height="3.582" style="fill:rgb(30,81,162);fill-rule:nonzero;"/>
        </g>
        <g transform="matrix(0.383211,0,0,0.383211,81.3339,74.333)">
            <rect x="203.762" y="136.219" width="2.199" height="3.582" style="fill:rgb(30,81,162);fill-rule:nonzero;"/>
        </g>
        <g transform="matrix(0.383211,0,0,0.383211,81.3339,74.333)">
            <rect x="207.238" y="136.219" width="2.203" height="3.582" style="fill:rgb(30,81,162);fill-rule:nonzero;"/>
        </g>
        <g transform="matrix(0.383211,0,0,0.383211,81.3339,74.333)">
            <rect x="210.711" y="136.219" width="2.199" height="3.582" style="fill:rgb(30,81,162);fill-rule:nonzero;"/>
        </g>
        <g transform="matrix(0.383211,0,0,0.383211,81.3339,74.333)">
            <rect x="214.211" y="136.219" width="2.199" height="3.582" style="fill:rgb(30,81,162);fill-rule:nonzero;"/>
        </g>
        <g transform="matrix(0.383211,0,0,0.383211,81.3339,74.333)">
            <rect x="217.68" y="136.219" width="2.199" height="3.582" style="fill:rgb(30,81,162);fill-rule:nonzero;"/>
        </g>
        <g transform="matrix(0.383211,0,0,0.383211,81.3339,74.333)">
            <rect x="203.762" y="141.172" width="2.199" height="3.578" style="fill:rgb(30,81,162);fill-rule:nonzero;"/>
        </g>
        <g transform="matrix(0.383211,0,0,0.383211,81.3339,74.333)">
            <rect x="194.852" y="132.879" width="2.199" height="3.582" style="fill:rgb(30,81,162);fill-rule:nonzero;"/>
        </g>
        <g transform="matrix(0.383211,0,0,0.383211,81.3339,74.333)">
            <rect x="194.852" y="137.84" width="2.199" height="3.582" style="fill:rgb(30,81,162);fill-rule:nonzero;"/>
        </g>
        <g transform="matrix(0.383211,0,0,0.383211,81.3339,74.333)">
            <rect x="194.852" y="142.781" width="2.199" height="3.578" style="fill:rgb(30,81,162);fill-rule:nonzero;"/>
        </g>
        <g transform="matrix(0.383211,0,0,0.383211,81.3339,74.333)">
            <rect x="207.238" y="141.172" width="2.203" height="3.578" style="fill:rgb(30,81,162);fill-rule:nonzero;"/>
        </g>
        <g transform="matrix(0.383211,0,0,0.383211,81.3339,74.333)">
            <rect x="210.711" y="141.172" width="2.199" height="3.578" style="fill:rgb(30,81,162);fill-rule:nonzero;"/>
        </g>
        <g transform="matrix(0.383211,0,0,0.383211,81.3339,74.333)">
            <rect x="214.211" y="141.172" width="2.199" height="3.578" style="fill:rgb(30,81,162);fill-rule:nonzero;"/>
        </g>
        <g transform="matrix(0.383211,0,0,0.383211,81.3339,74.333)">
            <rect x="217.68" y="141.172" width="2.199" height="3.578" style="fill:rgb(30,81,162);fill-rule:nonzero;"/>
        </g>
        <g transform="matrix(0.383211,0,0,0.383211,81.3339,74.333)">
            <rect x="203.762" y="146.129" width="2.199" height="3.582" style="fill:rgb(30,81,162);fill-rule:nonzero;"/>
        </g>
        <g transform="matrix(0.383211,0,0,0.383211,81.3339,74.333)">
            <rect x="207.238" y="146.129" width="2.203" height="3.582" style="fill:rgb(30,81,162);fill-rule:nonzero;"/>
        </g>
        <g transform="matrix(0.383211,0,0,0.383211,81.3339,74.333)">
            <rect x="210.711" y="146.129" width="2.199" height="3.582" style="fill:rgb(30,81,162);fill-rule:nonzero;"/>
        </g>
        <g transform="matrix(0.383211,0,0,0.383211,81.3339,74.333)">
            <rect x="214.211" y="146.129" width="2.199" height="3.582" style="fill:rgb(30,81,162);fill-rule:nonzero;"/>
        </g>
        <g transform="matrix(0.383211,0,0,0.383211,81.3339,74.333)">
            <rect x="217.68" y="146.129" width="2.199" height="3.582" style="fill:rgb(30,81,162);fill-rule:nonzero;"/>
        </g>
        <g transform="matrix(0.383211,0,0,0.383211,81.3339,74.333)">
            <rect x="184.051" y="124.719" width="2.199" height="3.582" style="fill:rgb(30,81,162);fill-rule:nonzero;"/>
        </g>
        <g transform="matrix(0.383211,0,0,0.383211,81.3339,74.333)">
            <path d="M185.16,118.73C185.781,118.73 186.262,119.23 186.262,119.828L186.262,122.949L184.059,122.949L184.059,119.828C184.051,119.211 184.551,118.73 185.16,118.73Z" style="fill:rgb(30,81,162);fill-rule:nonzero;"/>
        </g>
        <g transform="matrix(0.383211,0,0,0.383211,81.3339,74.333)">
            <rect x="184.051" y="130.07" width="2.199" height="3.578" style="fill:rgb(30,81,162);fill-rule:nonzero;"/>
        </g>
        <g transform="matrix(0.383211,0,0,0.383211,81.3339,74.333)">
            <rect x="184.051" y="135.422" width="2.199" height="3.578" style="fill:rgb(30,81,162);fill-rule:nonzero;"/>
        </g>
        <g transform="matrix(0.383211,0,0,0.383211,81.3339,74.333)">
            <rect x="184.051" y="140.77" width="2.199" height="3.582" style="fill:rgb(30,81,162);fill-rule:nonzero;"/>
        </g>
        <g transform="matrix(0.383211,0,0,0.383211,81.3339,74.333)">
            <rect x="184.051" y="146.129" width="2.199" height="3.582" style="fill:rgb(30,81,162);fill-rule:nonzero;"/>
        </g>
        <g transform="matrix(0.383211,0,0,0.383211,81.3339,74.333)">
            <rect x="180.039" y="124.719" width="2.199" height="3.582" style="fill:rgb(30,81,162);fill-rule:nonzero;"/>
        </g>
        <g transform="matrix(0.383211,0,0,0.383211,81.3339,74.333)">
            <path d="M181.141,118.73C181.75,118.73 182.238,119.23 182.238,119.828L182.238,122.949L180.039,122.949L180.039,119.828C180.039,119.211 180.531,118.73 181.141,118.73Z" style="fill:rgb(30,81,162);fill-rule:nonzero;"/>
        </g>
        <g transform="matrix(0.383211,0,0,0.383211,81.3339,74.333)">
            <rect x="180.039" y="130.07" width="2.199" height="3.578" style="fill:rgb(30,81,162);fill-rule:nonzero;"/>
        </g>
        <g transform="matrix(0.383211,0,0,0.383211,81.3339,74.333)">
            <rect x="180.039" y="135.422" width="2.199" height="3.578" style="fill:rgb(30,81,162);fill-rule:nonzero;"/>
        </g>
        <g transform="matrix(0.383211,0,0,0.383211,81.3339,74.333)">
            <rect x="180.039" y="140.77" width="2.199" height="3.582" style="fill:rgb(30,81,162);fill-rule:nonzero;"/>
        </g>
        <g transform="matrix(0.383211,0,0,0.383211,81.3339,74.333)">
            <rect x="180.039" y="146.129" width="2.199" height="3.582" style="fill:rgb(30,81,162);fill-rule:nonzero;"/>
        </g>
        <g transform="matrix(0.383211,0,0,0.383211,81.3339,74.333)">
            <rect x="176.02" y="124.719" width="2.199" height="3.582" style="fill:rgb(30,81,162);fill-rule:nonzero;"/>
        </g>
        <g transform="matrix(0.383211,0,0,0.383211,81.3339,74.333)">
            <path d="M177.121,118.73C177.73,118.73 178.219,119.23 178.219,119.828L178.219,122.949L176.02,122.949L176.02,119.828C176.02,119.211 176.52,118.73 177.121,118.73Z" style="fill:rgb(30,81,162);fill-rule:nonzero;"/>
        </g>
        <g transform="matrix(0.383211,0,0,0.383211,81.3339,74.333)">
            <rect x="176.02" y="130.07" width="2.199" height="3.578" style="fill:rgb(30,81,162);fill-rule:nonzero;"/>
        </g>
        <g transform="matrix(0.383211,0,0,0.383211,81.3339,74.333)">
            <rect x="176.02" y="135.422" width="2.199" height="3.578" style="fill:rgb(30,81,162);fill-rule:nonzero;"/>
        </g>
        <g transform="matrix(0.383211,0,0,0.383211,81.3339,74.333)">
            <rect x="176.02" y="140.77" width="2.199" height="3.582" style="fill:rgb(30,81,162);fill-rule:nonzero;"/>
        </g>
        <g transform="matrix(0.383211,0,0,0.383211,81.3339,74.333)">
            <rect x="176.02" y="146.129" width="2.199" height="3.582" style="fill:rgb(30,81,162);fill-rule:nonzero;"/>
        </g>
        <g transform="matrix(0.383211,0,0,0.383211,81.3339,74.333)">
            <rect x="172" y="124.719" width="2.199" height="3.582" style="fill:rgb(30,81,162);fill-rule:nonzero;"/>
        </g>
        <g transform="matrix(0.383211,0,0,0.383211,81.3339,74.333)">
            <path d="M173.102,118.73C173.719,118.73 174.199,119.23 174.199,119.828L174.199,122.949L172,122.949L172,119.828C172,119.211 172.488,118.73 173.102,118.73Z" style="fill:rgb(30,81,162);fill-rule:nonzero;"/>
        </g>
        <g transform="matrix(0.383211,0,0,0.383211,81.3339,74.333)">
            <rect x="172" y="130.07" width="2.199" height="3.578" style="fill:rgb(30,81,162);fill-rule:nonzero;"/>
        </g>
        <g transform="matrix(0.383211,0,0,0.383211,81.3339,74.333)">
            <rect x="172" y="135.422" width="2.199" height="3.578" style="fill:rgb(30,81,162);fill-rule:nonzero;"/>
        </g>
        <g transform="matrix(0.383211,0,0,0.383211,81.3339,74.333)">
            <rect x="172" y="140.77" width="2.199" height="3.582" style="fill:rgb(30,81,162);fill-rule:nonzero;"/>
        </g>
        <g transform="matrix(0.383211,0,0,0.383211,81.3339,74.333)">
            <rect x="172" y="146.129" width="2.199" height="3.582" style="fill:rgb(30,81,162);fill-rule:nonzero;"/>
        </g>
        <g transform="matrix(0.383211,0,0,0.383211,81.3339,74.333)">
            <rect x="167.98" y="124.719" width="2.199" height="3.582" style="fill:rgb(30,81,162);fill-rule:nonzero;"/>
        </g>
        <g transform="matrix(0.383211,0,0,0.383211,81.3339,74.333)">
            <path d="M169.078,118.73C169.691,118.73 170.18,119.23 170.18,119.828L170.18,122.949L167.98,122.949L167.98,119.828C167.98,119.211 168.48,118.73 169.078,118.73Z" style="fill:rgb(30,81,162);fill-rule:nonzero;"/>
        </g>
        <g transform="matrix(0.383211,0,0,0.383211,81.3339,74.333)">
            <rect x="167.98" y="130.07" width="2.199" height="3.578" style="fill:rgb(30,81,162);fill-rule:nonzero;"/>
        </g>
        <g transform="matrix(0.383211,0,0,0.383211,81.3339,74.333)">
            <rect x="167.98" y="135.422" width="2.199" height="3.578" style="fill:rgb(30,81,162);fill-rule:nonzero;"/>
        </g>
        <g transform="matrix(0.383211,0,0,0.383211,81.3339,74.333)">
            <rect x="167.98" y="140.77" width="2.199" height="3.582" style="fill:rgb(30,81,162);fill-rule:nonzero;"/>
        </g>
        <g transform="matrix(0.383211,0,0,0.383211,81.3339,74.333)">
            <rect x="167.98" y="146.129" width="2.199" height="3.582" style="fill:rgb(30,81,162);fill-rule:nonzero;"/>
        </g>
        <g transform="matrix(0.383211,0,0,0.383211,81.3339,74.333)">
            <rect x="163.949" y="124.719" width="2.199" height="3.582" style="fill:rgb(30,81,162);fill-rule:nonzero;"/>
        </g>
        <g transform="matrix(0.383211,0,0,0.383211,81.3339,74.333)">
            <path d="M165.07,118.73C165.68,118.73 166.172,119.23 166.172,119.828L166.172,122.949L163.969,122.949L163.969,119.828C163.949,119.211 164.449,118.73 165.07,118.73Z" style="fill:rgb(30,81,162);fill-rule:nonzero;"/>
        </g>
        <g transform="matrix(0.383211,0,0,0.383211,81.3339,74.333)">
            <rect x="163.949" y="130.07" width="2.199" height="3.578" style="fill:rgb(30,81,162);fill-rule:nonzero;"/>
        </g>
        <g transform="matrix(0.383211,0,0,0.383211,81.3339,74.333)">
            <rect x="163.949" y="135.422" width="2.199" height="3.578" style="fill:rgb(30,81,162);fill-rule:nonzero;"/>
        </g>
        <g transform="matrix(0.383211,0,0,0.383211,81.3339,74.333)">
            <rect x="163.949" y="140.77" width="2.199" height="3.582" style="fill:rgb(30,81,162);fill-rule:nonzero;"/>
        </g>
        <g transform="matrix(0.383211,0,0,0.383211,81.3339,74.333)">
            <rect x="163.949" y="146.129" width="2.199" height="3.582" style="fill:rgb(30,81,162);fill-rule:nonzero;"/>
        </g>
        <g transform="matrix(0.383211,0,0,0.383211,81.3339,74.333)">
            <rect x="159.941" y="124.719" width="2.199" height="3.582" style="fill:rgb(30,81,162);fill-rule:nonzero;"/>
        </g>
        <g transform="matrix(0.383211,0,0,0.383211,81.3339,74.333)">
            <path d="M161.039,118.73C161.648,118.73 162.141,119.23 162.141,119.828L162.141,122.949L159.941,122.949L159.941,119.828C159.941,119.211 160.441,118.73 161.039,118.73Z" style="fill:rgb(30,81,162);fill-rule:nonzero;"/>
        </g>
        <g transform="matrix(0.383211,0,0,0.383211,81.3339,74.333)">
            <rect x="159.941" y="130.07" width="2.199" height="3.578" style="fill:rgb(30,81,162);fill-rule:nonzero;"/>
        </g>
        <g transform="matrix(0.383211,0,0,0.383211,81.3339,74.333)">
            <rect x="159.941" y="135.422" width="2.199" height="3.578" style="fill:rgb(30,81,162);fill-rule:nonzero;"/>
        </g>
        <g transform="matrix(0.383211,0,0,0.383211,81.3339,74.333)">
            <rect x="159.941" y="140.77" width="2.199" height="3.582" style="fill:rgb(30,81,162);fill-rule:nonzero;"/>
        </g>
        <g transform="matrix(0.383211,0,0,0.383211,81.3339,74.333)">
            <rect x="159.941" y="146.129" width="2.199" height="3.582" style="fill:rgb(30,81,162);fill-rule:nonzero;"/>
        </g>
        <g transform="matrix(0.383211,0,0,0.383211,81.3339,74.333)">
            <rect x="155.922" y="124.719" width="2.199" height="3.582" style="fill:rgb(30,81,162);fill-rule:nonzero;"/>
        </g>
        <g transform="matrix(0.383211,0,0,0.383211,81.3339,74.333)">
            <path d="M157.031,118.73C157.641,118.73 158.129,119.23 158.129,119.828L158.129,122.949L155.93,122.949L155.93,119.828C155.922,119.211 156.41,118.73 157.031,118.73Z" style="fill:rgb(30,81,162);fill-rule:nonzero;"/>
        </g>
        <g transform="matrix(0.383211,0,0,0.383211,81.3339,74.333)">
            <rect x="155.922" y="130.07" width="2.199" height="3.578" style="fill:rgb(30,81,162);fill-rule:nonzero;"/>
        </g>
        <g transform="matrix(0.383211,0,0,0.383211,81.3339,74.333)">
            <rect x="155.922" y="135.422" width="2.199" height="3.578" style="fill:rgb(30,81,162);fill-rule:nonzero;"/>
        </g>
        <g transform="matrix(0.383211,0,0,0.383211,81.3339,74.333)">
            <rect x="155.922" y="140.77" width="2.199" height="3.582" style="fill:rgb(30,81,162);fill-rule:nonzero;"/>
        </g>
        <g transform="matrix(0.383211,0,0,0.383211,81.3339,74.333)">
            <rect x="155.922" y="146.129" width="2.199" height="3.582" style="fill:rgb(30,81,162);fill-rule:nonzero;"/>
        </g>
        <g transform="matrix(0.383211,0,0,0.383211,81.3339,74.333)">
            <rect x="151.91" y="124.719" width="2.199" height="3.582" style="fill:rgb(30,81,162);fill-rule:nonzero;"/>
        </g>
        <g transform="matrix(0.383211,0,0,0.383211,81.3339,74.333)">
            <path d="M151.91,119.828C151.91,119.219 152.41,118.73 153.012,118.73C153.609,118.73 154.109,119.23 154.109,119.828L154.109,122.949L151.91,122.949L151.91,119.828Z" style="fill:rgb(30,81,162);fill-rule:nonzero;"/>
        </g>
        <g transform="matrix(0.383211,0,0,0.383211,81.3339,74.333)">
            <rect x="151.91" y="130.07" width="2.199" height="3.578" style="fill:rgb(30,81,162);fill-rule:nonzero;"/>
        </g>
        <g transform="matrix(0.383211,0,0,0.383211,81.3339,74.333)">
            <rect x="147.879" y="124.719" width="2.199" height="3.582" style="fill:rgb(30,81,162);fill-rule:nonzero;"/>
        </g>
        <g transform="matrix(0.383211,0,0,0.383211,81.3339,74.333)">
            <path d="M147.879,119.828C147.879,119.219 148.379,118.73 148.98,118.73C149.59,118.73 150.078,119.23 150.078,119.828L150.078,122.949L147.879,122.949L147.879,119.828Z" style="fill:rgb(30,81,162);fill-rule:nonzero;"/>
        </g>
        <g transform="matrix(0.383211,0,0,0.383211,81.3339,74.333)">
            <rect x="147.879" y="130.07" width="2.199" height="3.578" style="fill:rgb(30,81,162);fill-rule:nonzero;"/>
        </g>
        <g transform="matrix(0.383211,0,0,0.383211,81.3339,74.333)">
            <rect x="235.719" y="131.27" width="2.203" height="3.582" style="fill:rgb(30,81,162);fill-rule:nonzero;"/>
        </g>
        <g transform="matrix(0.383211,0,0,0.383211,81.3339,74.333)">
            <rect x="235.719" y="136.219" width="2.203" height="3.582" style="fill:rgb(30,81,162);fill-rule:nonzero;"/>
        </g>
        <g transform="matrix(0.383211,0,0,0.383211,81.3339,74.333)">
            <rect x="235.719" y="141.172" width="2.203" height="3.578" style="fill:rgb(30,81,162);fill-rule:nonzero;"/>
        </g>
        <g transform="matrix(0.383211,0,0,0.383211,81.3339,74.333)">
            <rect x="235.719" y="146.129" width="2.203" height="3.582" style="fill:rgb(30,81,162);fill-rule:nonzero;"/>
        </g>
        <g transform="matrix(0.383211,0,0,0.383211,81.3339,74.333)">
            <rect x="230.91" y="131.27" width="2.199" height="3.582" style="fill:rgb(30,81,162);fill-rule:nonzero;"/>
        </g>
        <g transform="matrix(0.383211,0,0,0.383211,81.3339,74.333)">
            <rect x="230.91" y="136.219" width="2.199" height="3.582" style="fill:rgb(30,81,162);fill-rule:nonzero;"/>
        </g>
        <g transform="matrix(0.383211,0,0,0.383211,81.3339,74.333)">
            <rect x="230.91" y="141.172" width="2.199" height="3.578" style="fill:rgb(30,81,162);fill-rule:nonzero;"/>
        </g>
        <g transform="matrix(0.383211,0,0,0.383211,81.3339,74.333)">
            <rect x="230.91" y="146.129" width="2.199" height="3.582" style="fill:rgb(30,81,162);fill-rule:nonzero;"/>
        </g>
        <g transform="matrix(0.383211,0,0,0.383211,81.3339,74.333)">
            <rect x="227.469" y="131.27" width="2.203" height="3.582" style="fill:rgb(30,81,162);fill-rule:nonzero;"/>
        </g>
        <g transform="matrix(0.383211,0,0,0.383211,81.3339,74.333)">
            <rect x="227.469" y="136.219" width="2.203" height="3.582" style="fill:rgb(30,81,162);fill-rule:nonzero;"/>
        </g>
        <g transform="matrix(0.383211,0,0,0.383211,81.3339,74.333)">
            <rect x="227.469" y="141.172" width="2.203" height="3.578" style="fill:rgb(30,81,162);fill-rule:nonzero;"/>
        </g>
        <g transform="matrix(0.383211,0,0,0.383211,81.3339,74.333)">
            <rect x="227.469" y="146.129" width="2.203" height="3.582" style="fill:rgb(30,81,162);fill-rule:nonzero;"/>
        </g>
        <g transform="matrix(0.383211,0,0,0.383211,81.3339,74.333)">
            <rect x="240.699" y="131.27" width="2.199" height="3.582" style="fill:rgb(30,81,162);fill-rule:nonzero;"/>
        </g>
        <g transform="matrix(0.383211,0,0,0.383211,81.3339,74.333)">
            <rect x="244.18" y="131.27" width="2.199" height="3.582" style="fill:rgb(30,81,162);fill-rule:nonzero;"/>
        </g>
        <g transform="matrix(0.383211,0,0,0.383211,81.3339,74.333)">
            <rect x="247.648" y="131.27" width="2.203" height="3.582" style="fill:rgb(30,81,162);fill-rule:nonzero;"/>
        </g>
        <g transform="matrix(0.383211,0,0,0.383211,81.3339,74.333)">
            <rect x="251.129" y="131.27" width="2.199" height="3.582" style="fill:rgb(30,81,162);fill-rule:nonzero;"/>
        </g>
        <g transform="matrix(0.383211,0,0,0.383211,81.3339,74.333)">
            <rect x="254.621" y="131.27" width="2.199" height="3.582" style="fill:rgb(30,81,162);fill-rule:nonzero;"/>
        </g>
        <g transform="matrix(0.383211,0,0,0.383211,81.3339,74.333)">
            <rect x="240.699" y="136.219" width="2.199" height="3.582" style="fill:rgb(30,81,162);fill-rule:nonzero;"/>
        </g>
        <g transform="matrix(0.383211,0,0,0.383211,81.3339,74.333)">
            <rect x="244.18" y="136.219" width="2.199" height="3.582" style="fill:rgb(30,81,162);fill-rule:nonzero;"/>
        </g>
        <g transform="matrix(0.383211,0,0,0.383211,81.3339,74.333)">
            <rect x="247.648" y="136.219" width="2.203" height="3.582" style="fill:rgb(30,81,162);fill-rule:nonzero;"/>
        </g>
        <g transform="matrix(0.383211,0,0,0.383211,81.3339,74.333)">
            <rect x="251.129" y="136.219" width="2.199" height="3.582" style="fill:rgb(30,81,162);fill-rule:nonzero;"/>
        </g>
        <g transform="matrix(0.383211,0,0,0.383211,81.3339,74.333)">
            <rect x="254.621" y="136.219" width="2.199" height="3.582" style="fill:rgb(30,81,162);fill-rule:nonzero;"/>
        </g>
        <g transform="matrix(0.383211,0,0,0.383211,81.3339,74.333)">
            <rect x="240.699" y="141.172" width="2.199" height="3.578" style="fill:rgb(30,81,162);fill-rule:nonzero;"/>
        </g>
        <g transform="matrix(0.383211,0,0,0.383211,81.3339,74.333)">
            <rect x="244.18" y="141.172" width="2.199" height="3.578" style="fill:rgb(30,81,162);fill-rule:nonzero;"/>
        </g>
        <g transform="matrix(0.383211,0,0,0.383211,81.3339,74.333)">
            <rect x="247.648" y="141.172" width="2.203" height="3.578" style="fill:rgb(30,81,162);fill-rule:nonzero;"/>
        </g>
        <g transform="matrix(0.383211,0,0,0.383211,81.3339,74.333)">
            <rect x="251.129" y="141.172" width="2.199" height="3.578" style="fill:rgb(30,81,162);fill-rule:nonzero;"/>
        </g>
        <g transform="matrix(0.383211,0,0,0.383211,81.3339,74.333)">
            <rect x="254.621" y="141.172" width="2.199" height="3.578" style="fill:rgb(30,81,162);fill-rule:nonzero;"/>
        </g>
        <g transform="matrix(0.383211,0,0,0.383211,81.3339,74.333)">
            <rect x="240.699" y="146.129" width="2.199" height="3.582" style="fill:rgb(30,81,162);fill-rule:nonzero;"/>
        </g>
        <g transform="matrix(0.383211,0,0,0.383211,81.3339,74.333)">
            <rect x="244.18" y="146.129" width="2.199" height="3.582" style="fill:rgb(30,81,162);fill-rule:nonzero;"/>
        </g>
        <g transform="matrix(0.383211,0,0,0.383211,81.3339,74.333)">
            <rect x="247.648" y="146.129" width="2.203" height="3.582" style="fill:rgb(30,81,162);fill-rule:nonzero;"/>
        </g>
        <g transform="matrix(0.383211,0,0,0.383211,81.3339,74.333)">
            <rect x="251.129" y="146.129" width="2.199" height="3.582" style="fill:rgb(30,81,162);fill-rule:nonzero;"/>
        </g>
        <g transform="matrix(0.383211,0,0,0.383211,81.3339,74.333)">
            <rect x="254.621" y="146.129" width="2.199" height="3.582" style="fill:rgb(30,81,162);fill-rule:nonzero;"/>
        </g>
        <g transform="matrix(0.383211,0,0,0.383211,81.3339,74.333)">
            <rect x="222.68" y="131.27" width="2.199" height="3.582" style="fill:rgb(30,81,162);fill-rule:nonzero;"/>
        </g>
        <g transform="matrix(0.383211,0,0,0.383211,81.3339,74.333)">
            <rect x="222.68" y="136.219" width="2.199" height="3.582" style="fill:rgb(30,81,162);fill-rule:nonzero;"/>
        </g>
        <g transform="matrix(0.383211,0,0,0.383211,81.3339,74.333)">
            <rect x="222.68" y="141.172" width="2.199" height="3.578" style="fill:rgb(30,81,162);fill-rule:nonzero;"/>
        </g>
        <g transform="matrix(0.383211,0,0,0.383211,81.3339,74.333)">
            <rect x="222.68" y="146.129" width="2.199" height="3.582" style="fill:rgb(30,81,162);fill-rule:nonzero;"/>
        </g>
        <g transform="matrix(0.383211,0,0,0.383211,81.3339,74.333)">
            <path d="M143.559,112.031L141.34,112.031L141.34,108.441L143.559,108.441L143.559,112.031Z" style="fill:rgb(30,81,162);fill-rule:nonzero;"/>
        </g>
        <g transform="matrix(0.383211,0,0,0.383211,81.3339,74.333)">
            <path d="M143.559,117.379L141.34,117.379L141.34,113.789L143.559,113.789L143.559,117.379Z" style="fill:rgb(30,81,162);fill-rule:nonzero;"/>
        </g>
        <g transform="matrix(0.383211,0,0,0.383211,81.3339,74.333)">
            <path d="M143.559,122.73L141.34,122.73L141.34,119.141L143.559,119.141L143.559,122.73Z" style="fill:rgb(30,81,162);fill-rule:nonzero;"/>
        </g>
        <g transform="matrix(0.383211,0,0,0.383211,81.3339,74.333)">
            <path d="M143.559,128.078L141.34,128.078L141.34,124.488L143.559,124.488L143.559,128.078Z" style="fill:rgb(30,81,162);fill-rule:nonzero;"/>
        </g>
        <g transform="matrix(0.383211,0,0,0.383211,81.3339,74.333)">
            <path d="M143.559,133.43L141.34,133.43L141.34,129.84L143.559,129.84L143.559,133.43Z" style="fill:rgb(30,81,162);fill-rule:nonzero;"/>
        </g>
        <g transform="matrix(0.383211,0,0,0.383211,81.3339,74.333)">
            <path d="M133.32,108.43L131.109,108.43L131.109,112.02L133.32,112.02L133.32,108.43Z" style="fill:rgb(30,81,162);fill-rule:nonzero;"/>
        </g>
        <g transform="matrix(0.383211,0,0,0.383211,81.3339,74.333)">
            <path d="M133.32,113.789L131.109,113.789L131.109,117.379L133.32,117.379L133.32,113.789Z" style="fill:rgb(30,81,162);fill-rule:nonzero;"/>
        </g>
        <g transform="matrix(0.383211,0,0,0.383211,81.3339,74.333)">
            <path d="M133.32,119.129L131.109,119.129L131.109,122.719L133.32,122.719L133.32,119.129Z" style="fill:rgb(30,81,162);fill-rule:nonzero;"/>
        </g>
        <g transform="matrix(0.383211,0,0,0.383211,81.3339,74.333)">
            <path d="M133.32,124.48L131.109,124.48L131.109,128.07L133.32,128.07L133.32,124.48Z" style="fill:rgb(30,81,162);fill-rule:nonzero;"/>
        </g>
        <g transform="matrix(0.383211,0,0,0.383211,81.3339,74.333)">
            <path d="M133.32,129.84L131.109,129.84L131.109,133.43L133.32,133.43L133.32,129.84Z" style="fill:rgb(30,81,162);fill-rule:nonzero;"/>
        </g>
        <g transform="matrix(0.383211,0,0,0.383211,81.3339,74.333)">
            <path d="M137.391,112.031L135.18,112.031L135.18,108.441L137.391,108.441L137.391,112.031Z" style="fill:rgb(30,81,162);fill-rule:nonzero;"/>
        </g>
        <g transform="matrix(0.383211,0,0,0.383211,81.3339,74.333)">
            <path d="M137.391,117.379L135.18,117.379L135.18,113.789L137.391,113.789L137.391,117.379Z" style="fill:rgb(30,81,162);fill-rule:nonzero;"/>
        </g>
        <g transform="matrix(0.383211,0,0,0.383211,81.3339,74.333)">
            <path d="M137.391,122.73L135.18,122.73L135.18,119.141L137.391,119.141L137.391,122.73Z" style="fill:rgb(30,81,162);fill-rule:nonzero;"/>
        </g>
        <g transform="matrix(0.383211,0,0,0.383211,81.3339,74.333)">
            <path d="M137.391,128.078L135.18,128.078L135.18,124.488L137.391,124.488L137.391,128.078Z" style="fill:rgb(30,81,162);fill-rule:nonzero;"/>
        </g>
        <g transform="matrix(0.383211,0,0,0.383211,81.3339,74.333)">
            <path d="M137.391,133.43L135.18,133.43L135.18,129.84L137.391,129.84L137.391,133.43Z" style="fill:rgb(30,81,162);fill-rule:nonzero;"/>
        </g>
        <g transform="matrix(0.383211,0,0,0.383211,81.3339,74.333)">
            <path d="M142.73,136.801L121.699,136.801L121.699,139.879L142.73,139.879L142.73,136.801ZM142.352,139.5L122.078,139.5L122.078,137.18L142.352,137.18L142.352,139.5Z" style="fill:rgb(30,81,162);fill-rule:nonzero;"/>
        </g>
        <g transform="matrix(0.383211,0,0,0.383211,81.3339,74.333)">
            <path d="M133.32,82.789L131.109,82.789L131.109,86.371L133.32,86.371L133.32,82.789Z" style="fill:rgb(30,81,162);fill-rule:nonzero;"/>
        </g>
        <g transform="matrix(0.383211,0,0,0.383211,81.3339,74.333)">
            <rect x="134.539" y="82.801" width="2.211" height="3.578" style="fill:rgb(30,81,162);fill-rule:nonzero;"/>
        </g>
        <g transform="matrix(0.383211,0,0,0.383211,81.3339,74.333)">
            <path d="M133.32,96.879L131.109,96.879L131.109,100.469L133.32,100.469L133.32,96.879Z" style="fill:rgb(30,81,162);fill-rule:nonzero;"/>
        </g>
        <g transform="matrix(0.383211,0,0,0.383211,81.3339,74.333)">
            <rect x="134.539" y="96.879" width="2.211" height="3.59" style="fill:rgb(30,81,162);fill-rule:nonzero;"/>
        </g>
        <g transform="matrix(0.383211,0,0,0.383211,81.3339,74.333)">
            <path d="M133.32,87.531L131.109,87.531L131.109,91.121L133.32,91.121L133.32,87.531Z" style="fill:rgb(30,81,162);fill-rule:nonzero;"/>
        </g>
        <g transform="matrix(0.383211,0,0,0.383211,81.3339,74.333)">
            <rect x="134.539" y="87.531" width="2.211" height="3.59" style="fill:rgb(30,81,162);fill-rule:nonzero;"/>
        </g>
        <g transform="matrix(0.383211,0,0,0.383211,81.3339,74.333)">
            <path d="M138.262,79.078L138.648,79.078L138.648,78.328L139.16,78.328L139.16,77.301L137.672,77.301L137.672,77.09L138.641,76.34L138.641,74.051L137.672,74.809L137.672,74.051L136.398,74.051L136.398,74.809L135.43,74.051L135.43,76.34L136.398,77.102L136.398,77.309L134.91,77.309L134.91,78.352L135.422,78.352L135.422,79.102L135.801,79.102L135.801,78.352L138.262,78.352L138.262,79.078ZM137.301,77.289L136.789,77.289L136.789,74.422L137.301,74.422L137.301,77.289ZM135.301,77.949L135.301,77.68L138.781,77.68L138.781,77.949L135.301,77.949Z" style="fill:rgb(30,81,162);fill-rule:nonzero;"/>
        </g>
        <g transform="matrix(0.383211,0,0,0.383211,81.3339,74.333)">
            <path d="M131.352,48.602L131.352,48.621L130.828,50.25L132.219,49.238L133.621,50.25L133.078,48.621L133.078,48.602L134.469,47.59L132.762,47.59L132.219,45.949L131.699,47.59L129.969,47.59L131.352,48.602Z" style="fill:rgb(30,81,162);fill-rule:nonzero;"/>
        </g>
        <g transform="matrix(0.383211,0,0,0.383211,81.3339,74.333)">
            <path d="M253.41,126.02C253.41,126.02 252.469,125.82 251.5,125.82L242.172,125.82C242.172,125.82 241.551,125.828 240.641,125.531C239.73,125.23 230.461,122.148 230.461,122.148C230.461,122.148 221.191,125.238 220.281,125.531C219.371,125.828 218.75,125.82 218.75,125.82L209.422,125.82C208.461,125.82 207.512,126.02 207.512,126.02L198.23,128.031L198.23,128.871L198.559,128.871L198.559,129.75L192.691,129.75L192.66,118.23L192.66,118.199L195.012,116.66L195.012,115.59C195.012,115.59 188.539,114.551 184.07,113.84C179.602,113.129 177.352,113.23 177.352,113.23L145.711,113.23L145.711,106.039L146.621,106.039L147.891,105.281L147.891,104.059L145.328,104.059L145.328,103.391L145.961,103.391L145.961,102.211L141.93,102.211L141.93,96.07L142.609,96.07L142.609,95L142.691,95L143.961,94.238L143.961,93.02L143.102,93.02L143.102,92.32L143.75,92.32L143.75,91.141L141.27,91.141L142.609,89.512L142.609,87.219L141.27,88.852L141.27,87.191L140,87.191L140,88.852L138.672,87.219L138.672,89.512L140,91.141L138.301,91.141L138.301,81.531L138.891,81.531L138.891,80.5L138.98,80.5L139.891,79.949L139.891,79.078L134,79.078C134.039,78.969 134.078,78.859 134.109,78.789C134.289,78.359 134.48,77.91 134.672,77.48L134.68,77.461C134.73,77.34 134.789,77.219 134.84,77.102C134.961,76.852 134.949,76.641 134.789,76.398C134.539,76.02 134.309,75.629 134.059,75.191C134.199,74.961 134.352,74.711 134.52,74.469C134.699,74.199 134.691,74.012 134.469,73.762C134.34,73.629 134.211,73.488 134.051,73.309C134.52,72.852 134.52,72.301 134.422,71.648L132.898,71.648L132.441,51.27L133.48,50.98L133.379,50.711C133.5,50.641 133.609,50.578 133.73,50.5L133.91,50.719L134.629,49.988L134.41,49.809C134.488,49.691 134.551,49.578 134.609,49.461L134.879,49.551L135.141,48.551L134.852,48.5C134.859,48.371 134.859,48.219 134.852,48.09L135.141,48.039L134.871,47.039L134.602,47.148L134.34,47.238C134.41,47.379 134.469,47.531 134.512,47.691C134.871,48.961 134.121,50.281 132.852,50.629C132.641,50.68 132.43,50.711 132.219,50.711C132.012,50.711 131.801,50.691 131.59,50.629C130.32,50.281 129.578,48.969 129.93,47.691C129.969,47.531 130.039,47.391 130.102,47.238L129.84,47.148L129.57,47.039L129.289,48.039L129.578,48.09C129.57,48.219 129.57,48.359 129.578,48.5L129.289,48.551L129.551,49.551L129.828,49.461C129.879,49.578 129.961,49.691 130.031,49.809L129.809,49.988L130.531,50.719L130.711,50.5C130.82,50.578 130.93,50.641 131.059,50.711L130.949,50.98L132,51.27L131.539,71.648L130.02,71.648C129.91,72.32 129.91,72.871 130.379,73.309C130.219,73.48 130.09,73.629 129.961,73.762C129.73,74 129.73,74.211 129.91,74.469C130.078,74.691 130.211,74.941 130.371,75.191C130.109,75.609 129.891,76.02 129.641,76.398C129.48,76.641 129.48,76.852 129.59,77.102C129.641,77.219 129.699,77.328 129.75,77.461L129.762,77.48C129.961,77.91 130.141,78.352 130.32,78.789C130.34,78.859 130.379,78.969 130.43,79.078L124.512,79.078L124.512,79.93L125.422,80.48L125.512,80.48L125.512,81.52L126.102,81.52L126.102,91.129L124.398,91.129L125.73,89.5L125.73,87.211L124.398,88.84L124.398,87.172L123.129,87.172L123.129,88.84L121.789,87.211L121.789,89.5L123.129,91.129L120.648,91.129L120.648,92.309L121.281,92.309L121.281,93.012L120.422,93.012L120.422,94.23L121.691,94.988L121.77,94.988L121.77,96.07L122.449,96.07L122.449,102.211L118.43,102.211L118.43,103.391L119.059,103.391L119.059,104.059L116.5,104.059L116.5,105.281L117.77,106.039L118.68,106.039L118.68,113.23L87.078,113.23C87.078,113.23 84.852,113.141 80.359,113.852C75.891,114.559 69.422,115.602 69.422,115.602L69.422,116.672L71.77,118.211L71.77,118.23L71.738,129.75L65.871,129.75L65.871,128.871L66.199,128.871L66.199,128.031L56.922,126.031C56.922,126.031 55.98,125.828 55.012,125.828L45.68,125.828C45.68,125.828 45.059,125.852 44.148,125.539C43.238,125.238 33.969,122.16 33.969,122.16C33.969,122.16 24.699,125.262 23.789,125.539C22.871,125.84 22.262,125.828 22.262,125.828L12.93,125.828C11.969,125.828 11.02,126.031 11.02,126.031L1.738,128.031L1.738,128.871L2.301,128.871L2.301,130.09L3.012,130.09L3.012,151.32L2.27,151.32L2.27,155.25L66.02,155.25L67.09,153.18L67.16,153.051C66.66,152.66 66.352,152.07 66.352,151.391C66.352,150.219 67.289,149.281 68.461,149.281C69.629,149.281 70.57,150.23 70.57,151.391C70.57,152.102 70.211,152.738 69.672,153.121L69.691,153.172L70.762,155.238L92.551,155.238C91.949,155.488 91.301,155.82 90.941,156.391C90.648,156.859 90.609,157.52 91.031,157.93C91.398,158.301 91.922,158.391 92.422,158.309C92.891,158.238 93.441,158.039 93.789,157.73C94.719,156.898 95.84,156.301 96.988,155.84C98.262,155.34 99.578,154.961 100.898,154.621C102.25,154.281 103.609,153.988 104.969,153.77C105.191,153.73 105.41,153.699 105.629,153.66C105.801,153.629 105.961,153.609 106.129,153.59L106.148,153.59C106.91,153.48 107.672,153.41 108.441,153.34C105.93,154.102 99.73,156.27 100.719,158.82C100.73,158.852 100.75,158.871 100.762,158.898C101.352,160.191 103.648,160.121 104.469,159.32L159.949,159.32C160.789,160.141 163.07,160.191 163.66,158.898C163.672,158.871 163.691,158.852 163.699,158.82C164.691,156.262 158.488,154.102 155.98,153.34C156.738,153.41 157.5,153.48 158.25,153.59L158.262,153.59C158.43,153.621 158.59,153.641 158.762,153.66C158.98,153.699 159.211,153.73 159.43,153.77C160.801,153.988 162.148,154.281 163.5,154.621C164.82,154.949 166.141,155.34 167.422,155.84C168.57,156.289 169.691,156.898 170.621,157.73C170.969,158.039 171.52,158.238 171.988,158.309C172.488,158.391 173.012,158.289 173.379,157.93C173.789,157.52 173.762,156.871 173.469,156.391C173.121,155.82 172.469,155.488 171.859,155.238L193.648,155.238L194.719,153.172L194.738,153.121C194.199,152.738 193.84,152.109 193.84,151.391C193.84,150.219 194.781,149.281 195.949,149.281C197.121,149.281 198.059,150.23 198.059,151.391C198.059,152.059 197.738,152.66 197.25,153.051L197.32,153.18L198.391,155.25L262.141,155.25L262.141,151.32L261.43,151.32L261.43,130.102L262.141,130.102L262.141,128.879L262.691,128.879L262.691,128.039L253.41,126.02ZM102.789,159.5C102.141,159.5 101.602,159.16 101.551,158.73C101.551,158.719 101.539,158.691 101.539,158.68C101.539,158.219 102.102,157.852 102.781,157.852C103.199,157.852 103.578,157.988 103.801,158.211C103.941,158.34 104.02,158.512 104.02,158.68C104.031,159.129 103.469,159.5 102.789,159.5ZM160.621,158.199C160.84,157.988 161.219,157.84 161.641,157.84C162.328,157.84 162.879,158.211 162.879,158.672C162.879,158.699 162.871,158.711 162.871,158.719C162.828,159.148 162.289,159.488 161.629,159.488C160.93,159.488 160.391,159.121 160.391,158.672C160.391,158.5 160.48,158.352 160.621,158.199ZM145.719,116.539L194.488,116.539L192.621,117.75L145.711,117.75L145.719,116.539ZM192.262,120.16L192.328,151.309L188.41,151.309L188.41,120.16L192.262,120.16ZM188.422,119.371L188.422,118.711L192.262,118.711L192.262,119.371L188.422,119.371ZM145.711,118.129L188.02,118.129L188.02,151.32L153.469,151.32L153.469,142.68L154.078,142.68L154.078,141.68L154.488,141.68L154.488,140.109L153.469,140.109L153.469,137.801L154.398,137.801L154.398,136.441L145.711,136.441L145.711,118.129ZM118.75,142.301L118.75,141.68L121.59,141.68L121.59,142.301L118.75,142.301ZM120.969,142.68L120.969,151.988L119.352,151.988L119.352,142.68L120.969,142.68ZM121.578,152.301L121.578,152.922L118.738,152.922L118.738,152.301L121.578,152.301ZM148.211,153.289L148.211,154.879L116.23,154.879L116.23,153.289L148.211,153.289ZM126.77,142.301L126.77,141.68L129.609,141.68L129.609,142.301L126.77,142.301ZM129.012,142.68L129.012,151.988L127.391,151.988L127.391,142.68L129.012,142.68ZM129.621,152.301L129.621,152.922L126.77,152.922L126.77,152.301L129.621,152.301ZM134.809,142.301L134.809,141.68L137.648,141.68L137.648,142.301L134.809,142.301ZM137.039,142.68L137.039,151.988L135.422,151.988L135.422,142.68L137.039,142.68ZM137.641,152.301L137.641,152.922L134.801,152.922L134.801,152.301L137.641,152.301ZM142.852,142.301L142.852,141.68L145.691,141.68L145.691,142.301L142.852,142.301ZM145.07,142.68L145.07,151.988L143.449,151.988L143.449,142.68L145.07,142.68ZM145.68,152.301L145.68,152.922L142.84,152.922L142.84,152.301L145.68,152.301ZM112.199,155.25L152.23,155.25L152.23,156.941L112.199,156.941L112.199,155.25ZM110.289,141.301L110.289,141.078L154.141,141.078L154.141,141.301L110.289,141.301ZM110.93,137.789L110.93,140.102L109.91,140.102L109.91,141.672L110.309,141.672L110.309,142.672L110.93,142.672L110.93,151.309L76.391,151.309L76.391,118.129L118.691,118.129L118.691,136.441L110,136.441L110,137.801L110.93,137.801L110.93,137.789ZM119.898,140.469L119.898,140.691L110.289,140.691L110.289,140.469L119.898,140.469ZM111.309,140.09L111.309,137.781L119.898,137.781L119.898,140.09L111.309,140.09ZM113.551,152.301L113.551,152.922L110.711,152.922L110.711,152.301L113.551,152.301ZM111.309,151.988L111.309,142.68L112.93,142.68L112.93,151.988L111.309,151.988ZM110.711,142.301L110.711,141.68L113.551,141.68L113.551,142.301L110.711,142.301ZM145.328,106.051L145.328,106.469L119.102,106.469L119.102,106.051L145.328,106.051ZM119.449,104.051L119.449,103.379L123.66,103.379L123.66,104.051L119.449,104.051ZM122.84,102.211L122.84,96.07L126.109,96.07L126.109,104.059L124.031,104.059L124.031,103.391L124.66,103.391L124.66,102.211L122.84,102.211ZM136.73,101.551L134.52,101.551L134.52,104.07L133.309,104.07L133.309,101.551L131.102,101.551L131.102,104.07L129.891,104.07L129.891,101.551L127.691,101.551L127.691,104.07L126.5,104.07L126.5,96.078L137.941,96.078L137.941,104.07L136.75,104.07L136.73,101.551ZM140.391,103.398L140.391,104.07L138.309,104.07L138.309,96.078L141.578,96.078L141.578,102.219L139.762,102.219L139.762,103.398L140.391,103.398ZM140.77,104.051L140.77,103.379L144.98,103.379L144.98,104.051L140.77,104.051ZM153.109,140.09L144.52,140.09L144.52,137.781L153.109,137.781L153.109,140.09ZM154.141,140.469L154.141,140.691L144.531,140.691L144.531,140.469L154.141,140.469ZM119.801,135.738L119.801,135.23L144.609,135.23L144.609,135.738L119.801,135.738ZM144.141,136.121L144.141,140.699L120.281,140.699L120.281,136.121L144.141,136.121ZM125.23,134.852L125.23,106.852L139.191,106.852L139.191,134.859L125.23,134.852ZM144.52,136.121L144.988,136.121L144.988,134.852L139.578,134.852L139.578,106.852L145.328,106.852L145.328,136.441L144.531,136.441L144.52,136.121ZM124.852,106.852L124.852,134.859L119.441,134.859L119.441,136.129L119.91,136.129L119.91,136.441L119.109,136.441L119.109,106.84L124.852,106.852ZM150.871,152.301L153.711,152.301L153.711,152.922L150.871,152.922L150.871,152.301ZM153.109,151.988L151.488,151.988L151.488,142.68L153.109,142.68L153.109,151.988ZM150.871,142.301L150.871,141.68L153.711,141.68L153.711,142.301L150.871,142.301ZM154.039,136.801L154.039,137.398L144.52,137.398L144.52,136.801L154.039,136.801ZM145.609,102.602L145.609,103.02L140.129,103.02L140.129,102.602L145.609,102.602ZM140.391,87.551L140.898,87.551L140.898,91.129L140.391,91.129L140.391,87.551ZM143.379,91.52L143.379,91.941L137.898,91.941L137.898,91.52L143.379,91.52ZM142.738,92.32L142.738,93.02L138.531,93.02L138.531,92.32L142.738,92.32ZM126.5,91.129L126.5,81.52L137.941,81.52L137.941,91.129L137.551,91.129L137.551,92.309L138.18,92.309L138.18,93.012L126.27,93.012L126.27,92.309L126.898,92.309L126.898,91.129L126.5,91.129ZM133.691,79.078L133.488,79.078L134.16,76.949L134.578,76.949C134.57,76.949 134.012,78.32 133.691,79.078ZM131.891,76.641L132.031,75.52L132.359,75.52L132.5,76.641L131.891,76.641ZM132.52,76.93L132.41,79.07L132,79.07L131.898,76.93L132.52,76.93ZM131.84,75.039L131.75,74.621L132.68,74.621L132.59,75.039L131.84,75.039ZM130.949,75.52L131.328,75.52L130.98,76.648L130.551,76.648L130.949,75.52ZM130.84,75.039L130.73,74.621L131.102,74.621L131.211,75.039L130.84,75.039ZM130.93,76.93C130.91,76.93 131.25,78.559 131.352,79.07L131.109,79.07L130.5,76.93L130.93,76.93ZM131.129,76.93L131.648,76.93L131.852,79.07L131.52,79.07L131.129,76.93ZM131.672,76.66L131.172,76.66L131.5,75.531L131.852,75.531L131.672,76.66ZM132.91,75.52L133.238,76.648L132.738,76.648L132.539,75.52L132.91,75.52ZM133.48,75.52L133.891,76.648L133.461,76.648L133.109,75.52L133.48,75.52ZM133.211,75.039L133.32,74.621L133.691,74.621L133.578,75.039L133.211,75.039ZM132.77,76.93L133.289,76.93L132.898,79.07L132.57,79.07L132.77,76.93ZM133.488,76.93L133.922,76.93L133.309,79.078L133.07,79.078C133.16,78.559 133.5,76.93 133.488,76.93ZM134.539,76.641L134.129,76.641L133.648,75.512L133.852,75.488L134.539,76.641ZM133.699,72.078L134.012,72.078L134.012,72.398L133.699,72.398L133.699,72.078ZM133.93,72.762C133.898,72.961 133.672,73.109 133.672,73.109L130.73,73.109C130.73,73.109 130.5,72.949 130.469,72.762L133.93,72.762ZM133.199,72.078L133.512,72.078L133.512,72.398L133.199,72.398L133.199,72.078ZM132.73,72.078L133.051,72.078L133.051,72.398L132.73,72.398L132.73,72.078ZM131.93,72.078L132.488,72.078L132.488,72.398L131.93,72.398L131.93,72.078ZM131.391,72.078L131.699,72.078L131.699,72.398L131.391,72.398L131.391,72.078ZM130.898,72.078L131.211,72.078L131.211,72.398L130.898,72.398L130.898,72.078ZM130.41,72.078L130.719,72.078L130.719,72.398L130.41,72.398L130.41,72.078ZM131.102,73.441C131.469,73.461 132.969,73.461 133.328,73.441C133.691,73.441 133.898,73.57 134.078,73.941L130.352,73.941C130.52,73.57 130.75,73.441 131.102,73.441ZM130.172,74.281L134.238,74.281L133.801,75.039L133.68,75.039L133.809,74.531L133.238,74.531L133.102,75.039L132.691,75.039L132.82,74.52L131.59,74.52L131.719,75.039L131.309,75.039L131.172,74.531L130.602,74.531L130.73,75.039L130.609,75.039L130.172,74.281ZM130.59,75.52L130.789,75.531L130.309,76.66L129.898,76.66L130.59,75.52ZM129.84,76.949L130.262,76.949L130.93,79.078L130.73,79.078C130.41,78.32 129.84,76.949 129.84,76.949ZM124.93,79.449L139.488,79.449L139.488,79.578L124.93,79.578L124.93,79.449ZM125.531,80.109L125.328,79.98L139.09,79.98L138.891,80.109L125.531,80.109ZM125.949,81.141L125.949,80.48L138.48,80.48L138.48,81.141L125.949,81.141ZM123.52,87.551L124.031,87.551L124.031,91.129L123.52,91.129L123.52,87.551ZM121.051,91.93L121.051,91.512L126.531,91.512L126.531,91.93L121.051,91.93ZM125.879,92.32L125.879,93.02L121.672,93.02L121.672,92.32L125.879,92.32ZM120.84,93.391L143.59,93.391L143.59,93.809L120.84,93.809L120.84,93.391ZM121.129,94.191L143.301,94.191L142.59,94.609L121.84,94.609L121.129,94.191ZM122.16,95.68L122.16,94.98L142.262,94.98L142.262,95.68L122.16,95.68ZM118.809,103.02L118.809,102.602L124.289,102.602L124.289,103.02L118.809,103.02ZM119.898,136.801L119.898,137.398L110.379,137.398L110.379,136.801L119.898,136.801ZM69.922,116.539L118.691,116.539L118.691,117.75L71.789,117.75L69.922,116.539ZM72.16,119.371L72.16,118.711L76,118.711L76,119.371L72.16,119.371ZM76.012,120.16L76.012,151.309L72.09,151.309L72.16,120.16L76.012,120.16ZM2.648,129.699L2.648,128.859L23.68,128.879L23.68,127.871L44.281,127.871L44.281,128.879L65.52,128.859L65.52,129.699L43.211,129.699L43.211,129.012L25.031,129.012L25.031,129.699L2.648,129.699ZM64.84,130.09L64.84,151.32L62.379,151.32L62.379,130.09L64.84,130.09ZM62,130.09L62,151.32L43.211,151.32L43.211,130.09L62,130.09ZM42.828,129.391L42.828,151.32L38.48,151.32L38.48,129.391L42.828,129.391ZM38.109,129.391L38.109,151.32L30.18,151.32L30.18,129.391L38.109,129.391ZM29.801,129.391L29.801,151.32L25.41,151.32L25.41,129.391L29.801,129.391ZM25.031,130.09L25.031,151.32L6.309,151.32L6.309,130.09L25.031,130.09ZM5.949,130.09L5.949,151.32L3.359,151.32L3.359,130.09L5.949,130.09ZM65.801,154.871L2.648,154.871L2.648,153.281L66.629,153.281L65.801,154.871ZM66.5,152.91L2.648,152.91L2.648,151.699L66,151.699C66.051,152.141 66.23,152.559 66.5,152.91ZM68.469,148.891C67.129,148.891 66.031,149.969 65.988,151.32L65.219,151.32L65.219,131.16L71.77,131.16L71.73,151.32L70.969,151.32C70.91,149.98 69.82,148.891 68.469,148.891ZM92.828,157.57C92.359,157.828 91.789,157.781 91.559,157.449C91.328,157.121 91.512,156.641 91.98,156.371C92.449,156.109 93.02,156.16 93.25,156.488C93.48,156.82 93.301,157.309 92.828,157.57ZM93.621,154.871L71.02,154.871L70.199,153.281L102.48,153.281C100.801,153.441 96.531,153.941 93.621,154.871ZM70.449,152.91C70.711,152.57 70.891,152.148 70.949,151.699L110.941,151.699L110.941,151.988L110.379,151.988L110.379,152.91L70.449,152.91ZM111.859,153.289L115.852,153.289L115.852,154.879L107.211,154.879C108.48,154.129 110.109,153.551 111.859,153.289ZM106.621,155.25L111.82,155.25L111.82,156.941L104.969,156.941C105.301,156.359 105.859,155.781 106.621,155.25ZM108.238,158.98L104.672,158.969C104.711,158.809 104.75,158.672 104.738,158.488C104.719,158.289 104.672,158.109 104.691,157.91C104.711,157.711 104.738,157.52 104.809,157.32L108.238,157.32L108.238,158.98ZM155.809,158.98L108.609,158.98L108.609,157.328L155.809,157.328L155.809,158.98ZM159.75,157.91C159.762,158.109 159.711,158.289 159.699,158.488C159.68,158.66 159.711,158.801 159.762,158.969L156.191,158.98L156.191,157.328L159.629,157.328C159.699,157.512 159.73,157.699 159.75,157.91ZM159.449,156.949L152.602,156.949L152.602,155.262L157.809,155.262C158.559,155.781 159.129,156.359 159.449,156.949ZM157.211,154.871L148.57,154.871L148.57,153.281L152.559,153.281C154.32,153.551 155.961,154.129 157.211,154.871ZM172.449,156.379C172.922,156.648 173.102,157.129 172.871,157.461C172.641,157.789 172.059,157.84 171.602,157.578C171.129,157.32 170.941,156.828 171.18,156.512C171.422,156.172 171.98,156.121 172.449,156.379ZM193.398,154.871L170.82,154.871C167.91,153.941 163.629,153.441 161.961,153.281L194.238,153.281L193.398,154.871ZM193.98,152.91L154.051,152.91L154.051,151.988L153.488,151.988L153.488,151.699L193.48,151.699C193.539,152.141 193.711,152.559 193.98,152.91ZM195.949,148.891C194.602,148.891 193.5,149.969 193.469,151.32L192.711,151.32L192.672,131.16L199.219,131.16L199.219,151.32L198.449,151.32C198.391,149.98 197.289,148.891 195.949,148.891ZM261.781,154.871L198.629,154.871L197.809,153.281L261.781,153.281L261.781,154.871ZM261.781,151.699L261.781,152.91L197.922,152.91C198.18,152.57 198.371,152.148 198.422,151.699L261.781,151.699ZM199.59,151.32L199.59,130.09L202.051,130.09L202.051,151.32L199.59,151.32ZM202.43,151.32L202.43,130.09L221.219,130.09L221.219,151.32L202.43,151.32ZM221.59,151.32L221.59,129.391L225.941,129.391L225.941,151.32L221.59,151.32ZM226.32,151.32L226.32,129.391L234.25,129.391L234.25,151.32L226.32,151.32ZM234.629,151.32L234.629,129.391L239.02,129.391L239.02,151.32L234.629,151.32ZM239.391,151.32L239.391,130.09L258.102,130.09L258.102,151.32L239.391,151.32ZM258.48,151.32L258.48,130.09L261.07,130.09L261.07,151.32L258.48,151.32ZM261.781,129.699L239.398,129.699L239.398,129.012L221.219,129.012L221.219,129.699L198.91,129.699L198.91,128.859L220.148,128.879L220.148,127.871L240.75,127.871L240.75,128.879L261.781,128.859L261.781,129.699Z" style="fill:rgb(30,81,162);fill-rule:nonzero;"/>
        </g>
        <g transform="matrix(0.383211,0,0,0.383211,81.3339,74.333)">
            <path d="M218.051,187.801L218.211,187.621C225.852,178.621 231.789,168.941 236.352,158.051L236.488,157.711L229.84,157.711L229.781,157.852C228.07,161.691 226.129,165.441 224.031,168.988C221.969,172.469 219.648,175.891 217.16,179.18L208.391,172.059L208.23,172.262C206.828,174.102 205.352,175.898 203.84,177.621C202.68,178.941 201.441,180.238 200.18,181.531L183.262,181.531C191.781,174.922 198.48,167.371 204.059,158.078L204.281,157.711L197.07,157.711L196.988,157.82C195.379,160.262 193.672,162.578 191.891,164.719C190.109,166.871 188.219,168.941 186.25,170.859C184.281,172.77 182.16,174.609 179.949,176.328C177.75,178.031 175.391,179.672 172.91,181.219L172.262,181.531L137.262,181.531L132.199,185.41L127.141,181.531L92.148,181.531L91.5,181.219C89.02,179.68 86.648,178.031 84.449,176.328C82.238,174.609 80.129,172.781 78.148,170.859C76.172,168.941 74.281,166.871 72.5,164.719C70.738,162.57 69.02,160.25 67.398,157.82L67.32,157.711L60.109,157.711L60.328,158.078C65.91,167.352 72.621,174.91 81.141,181.531L64.238,181.531C62.98,180.262 61.738,178.961 60.578,177.621C59.059,175.898 57.59,174.09 56.191,172.262L56.031,172.059L47.262,179.18C44.762,175.898 42.449,172.469 40.379,168.988C38.27,165.449 36.34,161.699 34.629,157.852L34.559,157.711L27.91,157.711L28.051,158.051C32.621,168.949 38.559,178.621 46.191,187.621L46.352,187.801L55.121,180.68C56.141,181.871 57.211,183.039 58.301,184.191L46.07,189.691L30.75,228.102L100.422,228.102C98.59,231.43 96.98,234.379 95.23,237.559L169.109,237.559C167.371,234.379 165.75,231.43 163.922,228.102L233.59,228.102L218.27,189.691L206.039,184.191C207.129,183.039 208.199,181.871 209.219,180.68L218.051,187.801ZM126.801,182.66L132.211,186.801L137.621,182.66L197.531,182.629L208.27,211.98L138.012,211.98C139.469,214.891 140.801,217.512 142.219,220.32L122.199,220.32C123.609,217.512 124.941,214.891 126.41,211.98L56.148,211.98L66.898,182.629L126.801,182.66ZM212.93,188.5L226.352,223.449L156.469,223.449C158.211,226.891 159.781,229.988 161.488,233.379L102.949,233.379C104.66,229.988 106.23,226.898 107.969,223.449L38.09,223.449L51.52,188.5L56.719,186.16L44.68,219.48L115.191,219.48C113.531,222.68 112.191,225.281 110.672,228.199L153.762,228.199C152.238,225.27 150.898,222.68 149.238,219.48L219.75,219.48L207.711,186.16L212.93,188.5ZM206.379,185.559L218.359,218.711L147.719,218.711C149.359,221.871 150.711,224.461 152.141,227.18L112.289,227.18C113.711,224.449 115.059,221.871 116.699,218.711L46.059,218.711L58.039,185.559L64.52,182.648L65.879,182.648C62.262,192.5 58.422,202.988 54.75,212.969L124.77,212.969C123.309,215.898 122,218.531 120.539,221.461L143.871,221.461C142.41,218.531 141.102,215.898 139.641,212.969L209.672,212.969C206,202.988 202.148,192.5 198.531,182.648L199.891,182.648L206.379,185.559Z" style="fill:rgb(30,81,162);fill-rule:nonzero;"/>
        </g>
        <g transform="matrix(0.383211,0,0,0.383211,81.3339,74.333)">
            <path d="M100.051,190.609C99.969,190.77 99.891,190.969 99.801,191.148C100.98,192.922 102.988,194.648 105.102,195.57C104.539,195.941 103.801,196.648 103.391,197.141C102.922,196.879 102.461,196.59 102.02,196.281L102.02,197.051L95.379,197.051L95.379,196.371C94.91,196.711 94.43,197.012 93.898,197.301C93.609,196.961 93.051,196.441 92.539,196.078L92.539,200.969L88.879,200.969L88.879,202.398L86.699,202.398L86.699,191.52L92.531,191.52L92.531,195.699C94.949,194.379 96.852,192.262 97.801,190.09L100.051,190.609ZM90.359,193.27L88.91,193.27L88.91,199.211L90.359,199.211L90.359,193.27ZM94.23,198.352L102.98,198.352L102.98,205.199L100.52,205.199L100.52,204.441L96.551,204.441L96.551,205.211L94.23,205.211L94.23,198.352ZM96.551,200.039L96.551,202.73L100.52,202.73L100.52,200.039L96.551,200.039ZM100.859,195.301C100.07,194.59 99.371,193.762 98.75,192.91C98.16,193.762 97.461,194.57 96.672,195.301L100.859,195.301Z" style="fill:rgb(30,81,162);fill-rule:nonzero;"/>
        </g>
        <g transform="matrix(0.383211,0,0,0.383211,81.3339,74.333)">
            <path d="M141.57,202.129L141.57,204.07L123.219,204.07L123.219,202.129L130.898,202.129L130.898,193.789L124.301,193.789L124.301,191.781L140.43,191.781L140.43,193.789L133.648,193.789L133.648,202.129L141.57,202.129Z" style="fill:rgb(30,81,162);fill-rule:nonzero;"/>
        </g>
        <g transform="matrix(0.383211,0,0,0.383211,81.3339,74.333)">
            <path d="M170.672,196.422C172,199.57 174.449,202.102 178.219,203.32C177.621,203.73 176.82,204.578 176.441,205.129C172.781,203.75 170.441,201.398 168.871,198.281C167.781,200.969 165.602,203.488 161.32,205.141C160.941,204.602 160.23,203.922 159.52,203.512C164.148,201.871 166.059,199.18 166.852,196.41L159.91,196.41L159.91,194.43L167.25,194.43C167.449,192.91 167.43,191.441 167.449,190.129L170.078,190.129C170.059,191.449 170.039,192.941 169.828,194.43L177.762,194.43L177.762,196.41L170.672,196.41L170.672,196.422Z" style="fill:rgb(30,81,162);fill-rule:nonzero;"/>
        </g>
    </g>
</svg>
