<?xml version="1.0" encoding="UTF-8" standalone="no"?>
<!DOCTYPE svg PUBLIC "-//W3C//DTD SVG 1.1//EN" "http://www.w3.org/Graphics/SVG/1.1/DTD/svg11.dtd">
<svg width="100%" height="100%" viewBox="0 0 154 157" version="1.1" xmlns="http://www.w3.org/2000/svg" xmlns:xlink="http://www.w3.org/1999/xlink" xml:space="preserve" xmlns:serif="http://www.serif.com/" style="fill-rule:evenodd;clip-rule:evenodd;stroke-linejoin:round;stroke-miterlimit:2;">
    <g>
        <g transform="matrix(3.13273,0,0,3.13273,-57.5838,-121.875)">
            <path d="M42.971,48C34.141,48 27,55.17 27,64.015C27.006,72.765 34.201,79.93 42.969,79.923C51.765,79.913 58.932,72.742 58.921,63.963C58.912,55.161 51.751,48 42.971,48ZM42.971,78.838C34.76,78.825 28.065,72.143 28.078,63.982C28.097,55.751 34.772,49.074 42.974,49.082C51.176,49.09 57.845,55.783 57.838,63.968C57.831,72.153 51.135,78.851 42.975,78.838L42.971,78.838Z" style="fill:rgb(123,2,3);fill-rule:nonzero;"/>
        </g>
        <g transform="matrix(3.13273,0,0,3.13273,-57.5838,-121.875)">
            <path d="M38.804,50.957C39.012,50.84 39.212,50.704 39.28,50.453C39.289,50.417 39.302,50.384 39.35,50.392C39.38,50.396 39.407,50.41 39.428,50.431C39.449,50.452 39.463,50.479 39.467,50.509C39.485,50.606 39.477,50.706 39.446,50.8C39.414,50.894 39.36,50.978 39.287,51.045C39.026,51.276 38.765,51.504 38.502,51.728C38.444,51.769 38.402,51.829 38.385,51.899C38.342,52.139 38.296,52.378 38.246,52.649C38.403,52.532 38.536,52.438 38.515,52.226C38.508,52.07 38.54,51.915 38.609,51.775C38.617,51.749 38.63,51.725 38.649,51.705C38.667,51.685 38.691,51.67 38.716,51.661C38.742,51.652 38.769,51.649 38.796,51.653C38.823,51.657 38.848,51.667 38.87,51.682C39.072,51.772 39.171,52.103 39.02,52.279C38.95,52.366 38.898,52.467 38.868,52.575C38.837,52.684 38.83,52.797 38.845,52.908C38.856,53.204 38.845,53.5 38.845,53.81C38.727,53.747 38.614,53.676 38.505,53.597C38.374,53.491 38.302,53.522 38.246,53.666C38.23,53.698 38.211,53.729 38.19,53.757C38.047,53.991 38.052,53.991 37.864,53.792C37.785,53.708 37.77,53.661 37.887,53.6C38.049,53.51 38.197,53.397 38.325,53.264C38.388,53.211 38.435,53.141 38.46,53.063C38.486,52.984 38.489,52.9 38.469,52.82C38.408,52.82 38.374,52.874 38.335,52.911C38.138,53.082 38.142,53.08 37.938,52.911C37.924,52.903 37.912,52.892 37.903,52.879C37.893,52.867 37.887,52.852 37.883,52.837C37.879,52.821 37.879,52.805 37.881,52.789C37.884,52.774 37.89,52.759 37.898,52.746C37.985,52.523 38.059,52.296 38.146,52.074C38.179,51.989 38.161,51.949 38.082,51.909C38.015,51.887 37.954,51.85 37.903,51.801C37.852,51.752 37.812,51.692 37.787,51.626C38.173,51.65 38.347,51.426 38.461,51.114C38.574,50.801 38.704,50.492 38.793,50.17C38.803,50.139 38.783,50.09 38.834,50.083C38.855,50.082 38.877,50.088 38.894,50.1C38.912,50.111 38.925,50.129 38.932,50.149C38.965,50.21 38.984,50.277 38.988,50.345C38.993,50.414 38.983,50.483 38.959,50.548C38.911,50.681 38.855,50.819 38.804,50.957Z" style="fill:rgb(123,2,3);fill-rule:nonzero;"/>
        </g>
        <g transform="matrix(3.13273,0,0,3.13273,-57.5838,-121.875)">
            <path d="M38.659,76.542C38.833,76.111 38.997,75.71 39.156,75.308C39.193,75.214 39.217,75.158 39.343,75.209C39.469,75.261 39.441,75.326 39.405,75.412C39.198,75.919 38.993,76.428 38.784,76.932C38.763,76.983 38.773,77.093 38.68,77.065C38.586,77.036 38.47,77.031 38.446,76.887C38.339,76.342 38.222,75.8 38.11,75.257C38.046,75.257 38.056,75.31 38.042,75.344C37.888,75.725 37.732,76.105 37.581,76.488C37.547,76.574 37.516,76.612 37.414,76.56C37.33,76.518 37.281,76.502 37.329,76.387C37.546,75.87 37.751,75.35 37.965,74.831C37.986,74.782 37.978,74.671 38.067,74.703C38.156,74.734 38.276,74.731 38.301,74.879C38.401,75.413 38.517,75.943 38.627,76.474C38.636,76.497 38.647,76.52 38.659,76.542ZM46.616,76.739C46.507,76.295 46.405,75.855 46.287,75.42C46.257,75.315 46.292,75.294 46.372,75.275C46.452,75.256 46.517,75.221 46.547,75.344C46.686,75.918 46.831,76.49 46.973,77.063C46.981,77.101 47.005,77.15 46.941,77.163C46.847,77.18 46.757,77.253 46.658,77.163C46.454,76.971 46.245,76.784 46.037,76.595L45.38,76.001C45.497,76.469 45.594,76.89 45.706,77.309C45.737,77.426 45.733,77.469 45.606,77.508C45.455,77.553 45.464,77.451 45.444,77.373C45.313,76.853 45.181,76.333 45.058,75.812C45.043,75.75 44.959,75.66 45.064,75.613C45.17,75.566 45.263,75.527 45.372,75.63C45.723,75.967 46.092,76.292 46.455,76.621C46.498,76.674 46.554,76.714 46.616,76.739ZM33.066,72.835C33.43,72.518 33.768,72.231 34.094,71.94C34.163,71.879 34.201,71.838 34.287,71.94C34.374,72.042 34.341,72.081 34.264,72.148C33.847,72.506 33.435,72.869 33.017,73.225C32.974,73.263 32.927,73.362 32.865,73.301C32.803,73.241 32.69,73.184 32.732,73.038C32.856,72.615 32.966,72.187 33.083,71.761C33.113,71.644 33.142,71.533 33.182,71.378C32.823,71.69 32.494,71.974 32.168,72.259C32.099,72.32 32.051,72.384 31.958,72.272C31.866,72.16 31.911,72.133 31.988,72.066C32.401,71.715 32.807,71.353 33.222,71.002C33.265,70.964 33.301,70.844 33.383,70.918C33.465,70.991 33.559,71.049 33.513,71.199C33.369,71.685 33.243,72.176 33.111,72.665C33.098,72.705 33.083,72.749 33.066,72.835Z" style="fill:rgb(123,2,3);fill-rule:nonzero;"/>
        </g>
        <g transform="matrix(3.13273,0,0,3.13273,-57.5838,-121.875)">
            <path d="M40.535,75.508C40.948,75.508 41.292,75.742 41.377,76.083C41.414,76.229 41.366,76.275 41.223,76.27C41.15,76.27 41.134,76.239 41.125,76.177C41.083,75.921 40.901,75.807 40.668,75.765C40.405,75.718 40.164,75.765 40.001,75.999C39.919,76.114 39.863,76.245 39.836,76.383C39.809,76.521 39.811,76.663 39.843,76.8C39.914,77.141 40.299,77.355 40.686,77.282C40.978,77.228 40.994,77.209 41.028,76.964C41.04,76.874 41.028,76.832 40.929,76.82C40.812,76.806 40.695,76.779 40.578,76.762C40.504,76.751 40.471,76.721 40.499,76.645C40.52,76.585 40.499,76.493 40.616,76.516C40.832,76.558 41.049,76.597 41.269,76.633C41.34,76.645 41.357,76.675 41.346,76.742C41.309,76.929 41.274,77.116 41.243,77.304C41.239,77.331 41.227,77.356 41.21,77.376C41.193,77.397 41.17,77.413 41.145,77.421C40.915,77.54 40.654,77.583 40.398,77.544C39.987,77.472 39.662,77.269 39.568,76.842C39.514,76.635 39.52,76.418 39.586,76.214C39.652,76.011 39.775,75.831 39.94,75.695C40.106,75.557 40.32,75.49 40.535,75.508Z" style="fill:rgb(123,2,3);fill-rule:nonzero;"/>
        </g>
        <g transform="matrix(3.13273,0,0,3.13273,-57.5838,-121.875)">
            <path d="M50.544,73.021C50.613,73.049 50.634,73.115 50.671,73.167C50.709,73.218 50.65,73.239 50.621,73.26C50.366,73.449 50.112,73.637 49.853,73.818C49.784,73.866 49.775,73.894 49.827,73.968C50.104,74.367 50.1,74.368 50.494,74.075C50.62,73.981 50.746,73.892 50.87,73.8C50.931,73.754 50.978,73.692 51.049,73.8C51.106,73.886 51.119,73.928 51.022,73.993C50.8,74.142 50.588,74.309 50.367,74.461C50.271,74.526 50.259,74.578 50.339,74.667C50.448,74.79 50.511,75.017 50.648,75.033C50.785,75.048 50.908,74.872 51.038,74.779C51.199,74.662 51.362,74.554 51.513,74.428C51.602,74.354 51.63,74.409 51.678,74.466C51.726,74.524 51.75,74.571 51.663,74.631C51.321,74.871 50.985,75.118 50.65,75.367C50.582,75.417 50.547,75.42 50.494,75.348C50.151,74.869 49.804,74.391 49.453,73.914C49.414,73.861 49.408,73.832 49.47,73.789C49.804,73.549 50.137,73.306 50.469,73.064C50.493,73.05 50.519,73.032 50.544,73.021Z" style="fill:rgb(123,2,3);fill-rule:nonzero;"/>
        </g>
        <g transform="matrix(3.13273,0,0,3.13273,-57.5838,-121.875)">
            <path d="M54.414,71.412C54.414,71.896 53.91,72.367 53.478,72.285C53.425,72.275 53.374,72.259 53.325,72.237C53.282,72.216 53.208,72.194 53.262,72.126C53.316,72.058 53.285,71.953 53.422,71.986C53.505,72.008 53.593,72.011 53.678,71.996C53.763,71.98 53.843,71.946 53.914,71.896C53.984,71.846 54.042,71.78 54.084,71.705C54.126,71.629 54.151,71.545 54.157,71.459C54.169,71.404 54.164,71.346 54.143,71.293C54.122,71.24 54.086,71.194 54.039,71.162C53.992,71.13 53.935,71.114 53.878,71.118C53.821,71.122 53.766,71.145 53.724,71.183C53.607,71.271 53.496,71.375 53.38,71.47C53.296,71.545 53.206,71.613 53.111,71.674C53.034,71.728 52.942,71.756 52.849,71.753C52.755,71.75 52.665,71.717 52.591,71.659C52.509,71.604 52.445,71.525 52.408,71.433C52.372,71.341 52.364,71.24 52.387,71.143C52.412,71.011 52.464,70.885 52.54,70.774C52.616,70.663 52.714,70.568 52.828,70.497C52.889,70.453 52.96,70.424 53.034,70.413C53.108,70.401 53.184,70.406 53.256,70.429C53.319,70.449 53.452,70.429 53.413,70.559C53.385,70.649 53.344,70.761 53.186,70.693C53.028,70.625 52.894,70.72 52.798,70.843C52.682,70.989 52.565,71.149 52.657,71.347C52.667,71.375 52.684,71.401 52.705,71.422C52.727,71.443 52.753,71.459 52.782,71.469C52.81,71.479 52.841,71.482 52.871,71.479C52.901,71.476 52.929,71.466 52.955,71.45C53.079,71.377 53.192,71.288 53.292,71.186C53.379,71.113 53.461,71.033 53.551,70.967C53.627,70.898 53.723,70.855 53.825,70.843C53.926,70.83 54.03,70.85 54.12,70.898C54.215,70.944 54.294,71.018 54.346,71.11C54.398,71.202 54.422,71.307 54.414,71.412Z" style="fill:rgb(123,2,3);fill-rule:nonzero;"/>
        </g>
        <g transform="matrix(3.13273,0,0,3.13273,-57.5838,-121.875)">
            <path d="M29.437,66.649C29.437,66.315 29.554,66.102 29.816,65.97C29.859,65.947 29.933,65.882 29.958,65.981C29.974,66.049 30.093,66.143 29.947,66.204C29.572,66.359 29.667,66.935 29.866,67.139C29.9,67.177 29.944,67.205 29.993,67.22C30.042,67.234 30.094,67.234 30.143,67.22C30.193,67.207 30.237,67.18 30.271,67.141C30.305,67.102 30.326,67.055 30.333,67.004C30.358,66.838 30.368,66.671 30.362,66.504C30.352,66.355 30.38,66.205 30.441,66.069C30.474,66.002 30.523,65.943 30.583,65.898C30.642,65.853 30.712,65.823 30.786,65.81C30.859,65.797 30.935,65.801 31.007,65.822C31.078,65.844 31.144,65.882 31.198,65.933C31.319,66.058 31.403,66.213 31.442,66.382C31.481,66.551 31.474,66.727 31.421,66.893C31.38,67.007 31.296,67.102 31.186,67.156C31.135,67.18 31.07,67.284 31.012,67.183C30.973,67.107 30.884,67.014 31.047,66.923C31.3,66.781 31.249,66.221 30.987,66.097C30.829,66.02 30.682,66.103 30.648,66.291C30.609,66.516 30.639,66.744 30.617,66.97C30.572,67.403 30.174,67.622 29.813,67.415C29.712,67.351 29.629,67.261 29.574,67.155C29.489,66.999 29.442,66.826 29.437,66.649Z" style="fill:rgb(123,2,3);fill-rule:nonzero;"/>
        </g>
        <g transform="matrix(3.13273,0,0,3.13273,-57.5838,-121.875)">
            <path d="M31.764,67.737C31.764,67.798 31.712,67.794 31.678,67.808C31.501,67.882 31.327,67.952 31.147,68.022C31.073,68.051 31.03,68.074 31.071,68.175C31.176,68.408 31.27,68.648 31.36,68.888C31.394,68.982 31.436,68.986 31.519,68.95C31.693,68.873 31.87,68.811 32.048,68.731C32.164,68.678 32.173,68.76 32.202,68.831C32.231,68.901 32.26,68.948 32.154,68.991C31.608,69.204 31.066,69.423 30.527,69.648C30.389,69.707 30.403,69.599 30.363,69.537C30.309,69.452 30.343,69.42 30.427,69.384C30.633,69.307 30.836,69.216 31.043,69.142C31.141,69.107 31.176,69.074 31.128,68.965C31.025,68.737 30.933,68.504 30.845,68.27C30.812,68.183 30.779,68.166 30.692,68.205C30.485,68.297 30.271,68.372 30.064,68.463C29.964,68.508 29.928,68.477 29.896,68.385C29.865,68.293 29.833,68.253 29.948,68.207C30.492,67.994 31.032,67.771 31.575,67.553C31.647,67.524 31.768,67.642 31.764,67.737ZM44.403,76.822C44.377,76.495 44.349,76.168 44.319,75.841C44.312,75.758 44.304,75.687 44.428,75.689C44.522,75.689 44.592,75.677 44.599,75.815C44.619,76.208 44.66,76.601 44.685,76.994C44.704,77.272 44.618,77.51 44.356,77.638C44.216,77.715 44.06,77.756 43.901,77.756C43.741,77.756 43.585,77.715 43.445,77.638C43.227,77.513 43.172,77.287 43.147,77.053C43.106,76.679 43.082,76.303 43.042,75.929C43.033,75.829 43.059,75.798 43.159,75.802C43.258,75.807 43.32,75.764 43.33,75.905C43.353,76.281 43.389,76.655 43.428,77.029C43.474,77.467 43.896,77.655 44.261,77.401C44.298,77.376 44.329,77.343 44.353,77.305C44.377,77.267 44.392,77.225 44.399,77.18C44.414,77.062 44.416,76.942 44.403,76.822Z" style="fill:rgb(123,2,3);fill-rule:nonzero;"/>
        </g>
        <g transform="matrix(3.13273,0,0,3.13273,-57.5838,-121.875)">
            <path d="M48.139,52.231C47.841,52.192 47.781,52.097 47.865,51.829C47.876,51.783 47.893,51.738 47.914,51.695C47.948,51.64 47.957,51.527 48.043,51.557C48.13,51.588 48.038,51.666 48.036,51.723C48.035,51.781 48.001,51.808 48.036,51.84C48.072,51.873 48.123,51.834 48.163,51.816C48.226,51.784 48.28,51.741 48.35,51.711C48.497,51.641 48.599,51.56 48.5,51.377C48.486,51.35 48.483,51.319 48.492,51.29C48.5,51.261 48.52,51.236 48.546,51.222C48.61,51.172 48.663,51.216 48.703,51.255C48.731,51.278 48.755,51.305 48.775,51.335C48.856,51.479 48.957,51.505 49.083,51.389C49.19,51.291 49.246,51.367 49.304,51.451C49.385,51.568 49.257,51.568 49.216,51.594C49.005,51.722 48.828,51.899 48.7,52.109C48.387,52.633 47.909,53.012 47.413,53.363C47.32,53.43 47.21,53.468 47.096,53.473C47.061,53.473 47.019,53.473 47.011,53.431C47.002,53.389 47.028,53.38 47.059,53.367C47.572,53.14 47.847,52.692 48.139,52.231Z" style="fill:rgb(123,2,3);fill-rule:nonzero;"/>
        </g>
        <g transform="matrix(3.13273,0,0,3.13273,-57.5838,-121.875)">
            <path d="M49.198,74.004C49.276,74.692 49.35,75.35 49.432,76.007C49.443,76.09 49.419,76.132 49.35,76.156C49.281,76.179 49.233,76.273 49.144,76.191C48.637,75.749 48.127,75.308 47.617,74.868C47.77,74.717 47.886,74.717 48.039,74.868C48.408,75.23 48.798,75.57 49.191,75.929C49.114,75.368 49.047,74.824 48.957,74.283C48.928,74.085 49.076,74.085 49.198,74.004Z" style="fill:rgb(123,2,3);fill-rule:nonzero;"/>
        </g>
        <g transform="matrix(3.13273,0,0,3.13273,-57.5838,-121.875)">
            <path d="M32.125,58.807C32.146,58.283 32.163,57.806 32.185,57.329C32.185,57.29 32.155,57.223 32.23,57.212C32.305,57.2 32.313,57.247 32.326,57.297C32.471,57.89 32.534,58.484 32.383,59.087C32.35,59.215 32.288,59.238 32.161,59.245C32.114,59.254 32.065,59.254 32.018,59.244C31.971,59.234 31.926,59.214 31.887,59.186C31.848,59.158 31.815,59.122 31.79,59.081C31.765,59.039 31.749,58.993 31.743,58.945C31.689,58.755 31.596,58.578 31.47,58.425C31.389,58.324 31.452,58.308 31.526,58.283C31.584,58.271 31.645,58.275 31.701,58.295C31.757,58.316 31.807,58.353 31.843,58.4C31.951,58.525 32.046,58.662 32.125,58.807Z" style="fill:rgb(123,2,3);fill-rule:nonzero;"/>
        </g>
        <g transform="matrix(3.13273,0,0,3.13273,-57.5838,-121.875)">
            <path d="M54.269,67.644C54.26,67.599 54.26,67.552 54.27,67.506C54.279,67.46 54.297,67.417 54.324,67.378C54.35,67.339 54.384,67.307 54.423,67.281C54.462,67.256 54.506,67.239 54.552,67.231C54.807,67.156 55.051,67.046 55.314,66.945C55.117,66.746 54.938,66.547 54.738,66.372C54.58,66.235 54.531,66.095 54.644,65.893C54.895,66.16 55.156,66.421 55.397,66.698C55.508,66.829 55.666,66.913 55.837,66.932C55.99,66.956 56.14,67 56.292,67.023C56.424,67.045 56.375,67.125 56.359,67.195C56.344,67.266 56.343,67.343 56.23,67.296C55.701,67.075 55.212,67.216 54.73,67.459C54.587,67.535 54.432,67.581 54.269,67.644Z" style="fill:rgb(123,2,3);fill-rule:nonzero;"/>
        </g>
        <g transform="matrix(3.13273,0,0,3.13273,-57.5838,-121.875)">
            <path d="M55.753,69.01C55.753,69.177 55.649,69.252 55.519,69.203C55.074,69.032 54.628,68.866 54.185,68.689C54.081,68.648 54.04,68.666 54.007,68.769C53.968,68.894 53.912,69.013 53.869,69.136C53.844,69.205 53.826,69.262 53.736,69.207C53.677,69.172 53.581,69.186 53.633,69.056C53.802,68.638 53.961,68.214 54.117,67.79C54.155,67.684 54.213,67.714 54.281,67.738C54.348,67.763 54.398,67.787 54.356,67.877C54.298,68.003 54.264,68.137 54.203,68.259C54.143,68.38 54.187,68.4 54.285,68.437C54.737,68.604 55.186,68.778 55.635,68.952C55.681,68.97 55.75,68.965 55.753,69.01Z" style="fill:rgb(123,2,3);fill-rule:nonzero;"/>
        </g>
        <g transform="matrix(3.13273,0,0,3.13273,-57.5838,-121.875)">
            <path d="M47.969,76.745C47.938,76.818 47.852,76.815 47.798,76.85C47.744,76.885 47.716,76.856 47.694,76.802C47.46,76.249 47.226,75.698 46.992,75.145C46.939,75.019 47.067,75.04 47.119,75.001C47.201,74.94 47.236,75.001 47.261,75.064C47.448,75.509 47.635,75.953 47.821,76.397L47.969,76.745Z" style="fill:rgb(123,2,3);fill-rule:nonzero;"/>
        </g>
        <g transform="matrix(3.13273,0,0,3.13273,-57.5838,-121.875)">
            <path d="M53.389,69.492L53.485,69.541C53.997,69.801 54.505,70.064 55.019,70.316C55.117,70.366 55.112,70.405 55.068,70.486C55.024,70.567 55.003,70.63 54.886,70.569C54.374,70.299 53.857,70.039 53.343,69.776C53.299,69.754 53.226,69.747 53.272,69.666C53.31,69.605 53.319,69.523 53.389,69.492Z" style="fill:rgb(123,2,3);fill-rule:nonzero;"/>
        </g>
        <g transform="matrix(3.13273,0,0,3.13273,-57.5838,-121.875)">
            <path d="M30.826,56.368C31.07,56.225 31.283,56.243 31.442,56.438C31.601,56.634 31.732,56.831 31.87,57.034C31.905,57.089 31.929,57.151 31.938,57.216C31.944,57.249 31.94,57.283 31.924,57.313C31.909,57.343 31.884,57.366 31.853,57.38C31.799,57.4 31.787,57.324 31.761,57.289C31.497,56.936 31.227,56.589 30.826,56.368Z" style="fill:rgb(123,2,3);fill-rule:nonzero;"/>
        </g>
        <g transform="matrix(3.13273,0,0,3.13273,-57.5838,-121.875)">
            <path d="M32.868,57.475C32.758,57.194 32.659,56.94 32.56,56.688C32.533,56.62 32.529,56.571 32.624,56.571L32.731,56.571C33.127,56.553 33.13,56.554 33.044,56.95C33.015,57.133 32.955,57.311 32.868,57.475Z" style="fill:rgb(123,2,3);fill-rule:nonzero;"/>
        </g>
        <g transform="matrix(3.13273,0,0,3.13273,-57.5838,-121.875)">
            <path d="M48.79,53.563C48.968,53.299 48.949,53.028 48.907,52.754C49.163,52.781 49.288,52.871 49.297,53.028C49.308,53.25 49.097,53.486 48.79,53.563Z" style="fill:rgb(123,2,3);fill-rule:nonzero;"/>
        </g>
        <g transform="matrix(3.13273,0,0,3.13273,-57.5838,-121.875)">
            <path d="M38.932,52.956C39.069,52.928 39.211,52.937 39.343,52.983C39.396,53.002 39.443,53.037 39.476,53.082C39.51,53.128 39.53,53.182 39.533,53.238C39.541,53.32 39.533,53.402 39.457,53.443C39.381,53.484 39.35,53.391 39.311,53.353C39.187,53.232 39.071,53.105 38.932,52.956Z" style="fill:rgb(123,2,3);fill-rule:nonzero;"/>
        </g>
        <g transform="matrix(3.13273,0,0,3.13273,-57.5838,-121.875)">
            <path d="M42.878,53.417C41.49,53.42 40.117,53.697 38.837,54.231C37.556,54.765 36.393,55.545 35.414,56.529C34.436,57.512 33.66,58.679 33.132,59.962C32.604,61.245 32.334,62.619 32.337,64.007C32.337,69.791 37.089,74.517 42.89,74.512C45.687,74.51 48.369,73.398 50.346,71.419C52.323,69.44 53.433,66.756 53.431,63.959C53.43,61.161 52.317,58.479 50.338,56.502C48.359,54.525 45.675,53.415 42.878,53.417ZM43.714,73.995C41.792,74.152 39.865,73.753 38.164,72.844C36.463,71.935 35.06,70.555 34.122,68.869L51.636,68.869C50.501,71.092 47.667,73.677 43.714,73.995ZM51.847,68.013C48.859,68.006 45.871,68.006 42.881,68.013C39.892,68.02 36.89,68.02 33.874,68.013C33.809,68.021 33.742,68.005 33.688,67.968C33.633,67.93 33.594,67.874 33.578,67.81C32.759,65.826 32.596,63.632 33.114,61.55C33.632,59.467 34.803,57.605 36.456,56.236C38.627,54.456 41.119,53.699 43.911,53.959C47.791,54.32 51.236,57.103 52.434,60.823C53.19,63.171 53.1,65.489 52.194,67.781C52.174,67.856 52.128,67.92 52.065,67.963C52.001,68.006 51.923,68.024 51.847,68.013Z" style="fill:rgb(123,2,3);fill-rule:nonzero;"/>
        </g>
        <g transform="matrix(3.13273,0,0,3.13273,-57.5838,-121.875)">
            <path d="M55.425,56.773C55.227,56.649 54.986,56.591 54.832,56.395C54.813,56.38 54.789,56.372 54.765,56.372C54.645,56.359 54.527,56.329 54.414,56.284C54.09,56.191 54.08,56.167 54.171,55.841C54.066,55.903 53.975,55.986 53.904,56.085C53.798,56.202 53.845,56.29 53.964,56.356C54.112,56.432 54.275,56.479 54.441,56.492C54.576,56.508 54.675,56.523 54.692,56.689C54.701,56.775 54.766,56.908 54.882,56.813C55.033,56.688 55.107,56.795 55.244,56.877C55.1,56.897 54.996,56.918 54.893,56.925C54.403,56.952 53.911,56.903 53.436,56.78C53.319,56.753 53.105,56.853 53.085,56.953C53.056,57.109 53.193,57.133 53.291,57.179C53.368,57.215 53.453,57.236 53.563,57.275L53.318,57.364C53.071,57.454 53.077,57.452 53.176,57.693C53.242,57.855 53.326,58.019 53.281,58.245C53.231,58.159 53.202,58.108 53.172,58.059C53.011,57.795 52.821,57.556 52.536,57.423C52.25,57.291 52.152,57.339 52.139,57.664C52.143,58.029 52.182,58.392 52.256,58.749C52.299,59.027 52.49,59.127 52.75,59.018C52.904,58.934 53.046,58.83 53.173,58.709C53.22,58.772 53.252,58.844 53.268,58.92C53.284,58.996 53.284,59.075 53.267,59.151C53.235,59.282 53.346,59.287 53.413,59.31C53.51,59.347 53.489,59.242 53.497,59.2C53.536,58.987 53.509,58.767 53.42,58.57C53.401,58.527 53.35,58.49 53.394,58.426C53.444,58.347 53.474,58.257 53.48,58.164C53.487,58.071 53.469,57.978 53.431,57.894C53.378,57.738 53.442,57.669 53.572,57.624C53.68,57.586 53.788,57.556 53.894,57.515C54.083,57.442 54.093,57.379 53.951,57.24C53.915,57.205 53.857,57.179 53.855,57.109C54.024,57.142 54.185,57.177 54.348,57.201C54.676,57.267 55.015,57.267 55.344,57.201C55.437,57.178 55.533,57.143 55.551,57.029C55.558,56.979 55.55,56.928 55.527,56.882C55.505,56.836 55.469,56.798 55.425,56.773ZM52.8,58.708C52.657,58.786 52.56,58.756 52.477,58.606C52.364,58.375 52.304,58.123 52.299,57.866C52.566,57.974 52.807,58.089 52.957,58.334C53.053,58.483 53.004,58.596 52.8,58.708Z" style="fill:rgb(123,2,3);fill-rule:nonzero;"/>
        </g>
        <g transform="matrix(3.13273,0,0,3.13273,-57.5838,-121.875)">
            <path d="M52.903,72.775C52.718,72.738 52.528,72.731 52.341,72.754C52.469,72.532 52.513,72.331 52.374,72.127C52.153,71.805 51.789,71.789 51.492,72.095C51.293,72.3 51.105,72.515 50.907,72.721C50.846,72.784 50.832,72.818 50.907,72.887C51.334,73.277 51.756,73.672 52.175,74.072C52.257,74.151 52.298,74.126 52.355,74.056C52.413,73.986 52.472,73.958 52.371,73.876C52.206,73.738 52.054,73.584 51.903,73.435C51.876,73.408 51.794,73.384 51.851,73.328C52.008,73.174 52.124,72.95 52.403,72.996C52.602,73.03 52.803,73.056 53.003,73.091C53.244,73.134 53.318,73.098 53.419,72.869C53.243,72.837 53.072,72.81 52.903,72.775ZM52.075,72.724C51.958,72.863 51.824,72.995 51.701,73.132C51.657,73.182 51.625,73.193 51.573,73.14C51.456,73.023 51.252,72.917 51.222,72.776C51.191,72.636 51.409,72.534 51.512,72.41C51.584,72.308 51.683,72.227 51.797,72.176C51.843,72.159 51.892,72.154 51.94,72.161C51.988,72.168 52.034,72.187 52.073,72.216C52.112,72.245 52.144,72.283 52.164,72.327C52.185,72.37 52.195,72.419 52.193,72.467C52.187,72.565 52.145,72.656 52.075,72.724Z" style="fill:rgb(123,2,3);fill-rule:nonzero;"/>
        </g>
        <g transform="matrix(3.13273,0,0,3.13273,-57.5838,-121.875)">
            <path d="M35.324,72.967C35.149,72.796 34.96,72.64 34.785,72.47C34.717,72.406 34.683,72.425 34.63,72.484C34.247,72.917 33.862,73.348 33.471,73.771C33.395,73.854 33.419,73.888 33.488,73.951C33.649,74.092 33.803,74.242 33.967,74.38C34.052,74.464 34.155,74.528 34.268,74.567C34.382,74.607 34.502,74.62 34.621,74.607C35.076,74.542 35.577,73.973 35.577,73.495C35.594,73.288 35.476,73.116 35.324,72.967ZM34.518,74.354C34.374,74.355 34.234,74.301 34.129,74.202C33.739,73.896 33.738,73.897 34.06,73.538C34.258,73.316 34.463,73.098 34.656,72.87C34.731,72.781 34.773,72.792 34.85,72.87C34.956,72.976 35.068,73.075 35.174,73.179C35.216,73.219 35.249,73.268 35.272,73.322C35.294,73.375 35.306,73.433 35.305,73.491C35.305,73.842 34.868,74.33 34.518,74.354Z" style="fill:rgb(123,2,3);fill-rule:nonzero;"/>
        </g>
        <g transform="matrix(3.13273,0,0,3.13273,-57.5838,-121.875)">
            <path d="M36.439,73.924C35.905,73.924 35.422,74.45 35.422,75.036C35.428,75.284 35.532,75.52 35.711,75.692C35.889,75.865 36.129,75.96 36.377,75.957C36.889,75.957 37.375,75.419 37.375,74.842C37.37,74.597 37.269,74.363 37.094,74.192C36.919,74.02 36.684,73.924 36.439,73.924ZM36.633,75.621C36.527,75.685 36.404,75.714 36.28,75.704C36.157,75.695 36.039,75.647 35.944,75.569C35.843,75.502 35.766,75.405 35.722,75.293C35.678,75.18 35.67,75.056 35.7,74.939C35.746,74.696 35.875,74.477 36.066,74.319C36.155,74.239 36.268,74.188 36.388,74.173C36.507,74.159 36.629,74.182 36.735,74.24C36.851,74.29 36.949,74.374 37.016,74.481C37.083,74.588 37.115,74.714 37.109,74.84C37.097,74.998 37.047,75.152 36.965,75.287C36.882,75.423 36.768,75.538 36.633,75.621ZM32.787,69.93C32.767,69.861 32.721,69.853 32.648,69.864C31.994,69.958 31.339,70.047 30.672,70.138C30.728,70.323 30.799,70.419 31.005,70.373C31.42,70.285 31.423,70.298 31.628,70.674C31.808,71.004 31.808,71.004 31.565,71.294C31.396,71.497 31.396,71.497 31.565,71.747C31.995,71.21 32.424,70.678 32.851,70.144C32.923,70.054 32.808,70.002 32.787,69.93ZM31.968,70.817L31.665,70.269C31.967,70.199 32.264,70.191 32.589,70.096L31.968,70.817Z" style="fill:rgb(123,2,3);fill-rule:nonzero;"/>
        </g>
        <g transform="matrix(3.13273,0,0,3.13273,-57.5838,-121.875)">
            <path d="M39.41,70.459C39.25,70.58 39.08,70.686 38.901,70.775C38.82,70.813 38.777,70.827 38.775,70.706C38.765,70.645 38.776,70.583 38.806,70.53C38.836,70.476 38.884,70.435 38.941,70.412C39.158,70.31 39.342,70.148 39.471,69.944C39.491,69.908 39.523,69.879 39.561,69.863C39.6,69.847 39.642,69.845 39.682,69.857C39.781,69.876 39.735,69.963 39.735,70.019L39.735,72.277C39.735,72.394 39.713,72.446 39.581,72.438C39.471,72.431 39.398,72.438 39.401,72.284C39.416,71.684 39.41,71.087 39.41,70.459Z" style="fill:rgb(123,2,3);fill-rule:nonzero;"/>
        </g>
        <g transform="matrix(3.13273,0,0,3.13273,-57.5838,-121.875)">
            <path d="M45.95,70.459C45.766,70.606 45.56,70.725 45.34,70.81C45.295,70.617 45.312,70.481 45.519,70.39C45.721,70.295 45.89,70.142 46.005,69.951C46.024,69.911 46.058,69.879 46.099,69.862C46.14,69.844 46.186,69.843 46.228,69.857C46.315,69.881 46.275,69.974 46.275,70.026L46.275,72.266C46.275,72.391 46.255,72.443 46.112,72.437C45.97,72.431 45.938,72.411 45.941,72.27C45.95,71.733 45.941,71.195 45.941,70.658L45.95,70.459Z" style="fill:rgb(123,2,3);fill-rule:nonzero;"/>
        </g>
        <g transform="matrix(3.13273,0,0,3.13273,-57.5838,-121.875)">
            <path d="M52.246,65.663C52.182,65.581 52.141,65.57 52.068,65.65C51.976,65.745 51.865,65.819 51.741,65.867C50.931,66.195 50.148,66.188 49.416,65.658C49.4,65.641 49.38,65.628 49.358,65.619C49.336,65.61 49.312,65.606 49.288,65.607C49.264,65.608 49.241,65.615 49.22,65.625C49.199,65.636 49.18,65.652 49.166,65.67C49.08,65.754 48.982,65.823 48.876,65.877C48.49,66.083 48.05,66.16 47.618,66.097C47.186,66.034 46.785,65.834 46.475,65.526C46.358,65.419 46.309,65.45 46.224,65.536C46.105,65.669 45.966,65.784 45.812,65.876C45.433,66.058 45.015,66.141 44.595,66.118C44.5,66.118 44.495,66.068 44.493,65.995C44.464,65.308 44.432,64.622 44.398,63.937C44.398,63.838 44.453,63.863 44.5,63.863C44.667,63.872 44.834,63.87 45.001,63.857C45.369,63.8 45.605,63.91 45.667,64.3C45.684,64.407 45.751,64.437 45.86,64.433C46.189,64.42 46.517,64.421 46.846,64.413C47.02,64.413 47.197,64.397 47.384,64.388L47.181,63.862L48.103,63.862C48.139,63.858 48.174,63.866 48.204,63.885C48.233,63.904 48.256,63.932 48.267,63.966C48.343,64.128 48.426,64.286 48.501,64.447C48.526,64.495 48.546,64.538 48.618,64.537L49.941,64.537C49.831,64.321 49.753,64.156 49.663,63.997C49.596,63.88 49.631,63.861 49.75,63.863C50.018,63.87 50.289,63.857 50.556,63.863C50.699,63.87 50.756,63.842 50.748,63.683C50.733,63.39 50.738,63.098 50.748,62.804C50.748,62.67 50.724,62.619 50.575,62.623C50.091,62.634 49.607,62.623 49.122,62.631C49.071,62.636 49.019,62.624 48.975,62.596C48.931,62.568 48.898,62.527 48.88,62.478C48.246,61.241 47.609,60.006 46.97,58.772C46.766,58.377 46.562,57.983 46.349,57.571L45.283,59.406L43.079,55.003L40.539,59.762L38.597,57.999C38.568,58.048 38.542,58.088 38.521,58.13C37.981,59.213 37.442,60.297 36.906,61.382C36.888,61.431 36.855,61.473 36.811,61.501C36.767,61.529 36.715,61.542 36.663,61.537C35.898,61.53 35.133,61.537 34.368,61.53C34.225,61.53 34.186,61.571 34.191,61.711C34.201,61.997 34.206,62.285 34.191,62.572C34.181,62.742 34.237,62.775 34.396,62.773C34.993,62.763 35.588,62.773 36.211,62.773C36.028,63.144 35.86,63.493 35.676,63.855C36.135,63.89 36.596,63.902 37.056,63.89C37.103,63.894 37.15,63.883 37.189,63.857C37.228,63.832 37.257,63.794 37.272,63.749C37.412,63.458 37.561,63.173 37.708,62.886C37.734,62.836 37.742,62.769 37.825,62.769L39.02,62.769L38.581,63.809C38.996,63.851 39.389,63.885 39.78,63.926C39.833,63.94 39.89,63.934 39.939,63.908C39.988,63.882 40.025,63.838 40.043,63.786C40.184,63.49 40.348,63.201 40.496,62.911C40.514,62.862 40.548,62.821 40.592,62.793C40.636,62.766 40.688,62.754 40.74,62.76C41.063,62.77 41.386,62.76 41.709,62.76L42.113,62.76C41.855,63.206 41.614,63.622 41.34,64.092L42.22,64.092C42.311,64.092 42.345,64.119 42.344,64.215L42.344,65.703C42.344,65.786 42.318,65.82 42.24,65.834C41.63,65.926 41.042,65.881 40.524,65.516C40.394,65.423 40.324,65.428 40.212,65.516C39.978,65.711 39.705,65.857 39.412,65.945C39.119,66.032 38.812,66.059 38.508,66.023C38.027,65.984 37.572,65.866 37.242,65.484C37.189,65.423 37.165,65.445 37.117,65.484C36.448,66.015 35.325,66.059 34.605,65.594C34.537,65.551 34.488,65.409 34.38,65.488C34.311,65.557 34.266,65.648 34.253,65.745C34.218,65.86 34.223,65.984 34.267,66.096C34.343,66.307 34.497,66.481 34.697,66.583C35.039,66.775 35.425,66.877 35.818,66.88C36.211,66.883 36.598,66.786 36.943,66.599C37.042,66.549 37.123,66.425 37.219,66.415C37.315,66.406 37.369,66.569 37.468,66.623C37.499,66.641 37.527,66.666 37.557,66.683C38.025,66.96 38.576,67.058 39.111,66.96C39.606,66.883 40.046,66.705 40.306,66.234C40.393,66.315 40.465,66.395 40.549,66.46C41.196,66.951 42.383,66.959 43.05,66.473C43.145,66.403 43.199,66.356 43.274,66.497C43.338,66.599 43.426,66.683 43.531,66.742C44.005,67.032 44.57,67.137 45.117,67.038C45.594,66.967 46.023,66.794 46.298,66.352C46.392,66.525 46.531,66.669 46.701,66.767C47.057,66.973 47.462,67.08 47.873,67.077C48.285,67.073 48.688,66.959 49.04,66.747C49.157,66.685 49.242,66.521 49.342,66.513C49.443,66.507 49.532,66.674 49.648,66.739C50.151,67.014 50.737,67.097 51.297,66.973C51.63,66.923 51.939,66.768 52.18,66.532C52.297,66.422 52.369,66.271 52.381,66.11C52.393,65.95 52.345,65.79 52.246,65.663ZM45.973,60.61C46.095,60.526 46.212,60.435 46.324,60.34C46.393,60.282 46.426,60.283 46.467,60.367C46.837,61.113 47.207,61.857 47.593,62.63L46.775,62.63C46.74,62.634 46.705,62.625 46.676,62.605C46.647,62.585 46.627,62.555 46.619,62.521C46.385,61.941 46.151,61.362 45.917,60.783C45.908,60.768 45.902,60.752 45.899,60.734C45.897,60.717 45.899,60.7 45.904,60.683C45.909,60.666 45.918,60.651 45.93,60.639C45.942,60.626 45.957,60.616 45.973,60.61ZM39.796,60.946C39.784,60.965 39.778,60.99 39.768,61.011C39.681,61.179 39.671,61.425 39.519,61.507C39.367,61.589 39.158,61.523 38.975,61.523L38.975,61.534L38.507,61.534C38.42,61.534 38.39,61.522 38.434,61.426C38.633,61.04 38.827,60.652 39.019,60.264C39.06,60.179 39.094,60.179 39.158,60.24C39.355,60.424 39.553,60.605 39.755,60.781C39.819,60.833 39.837,60.878 39.796,60.946ZM43.773,60.375C43.773,60.258 43.75,60.213 43.626,60.225C43.423,60.245 43.22,60.253 43.017,60.254C42.911,60.254 42.89,60.298 42.889,60.392C42.889,60.733 42.877,61.073 42.87,61.413C42.87,61.473 42.882,61.53 42.783,61.53L41.227,61.53L43.111,57.951C43.476,58.856 43.828,59.733 44.181,60.61C44.288,60.874 44.391,61.142 44.502,61.405C44.538,61.493 44.545,61.534 44.429,61.53L43.874,61.53C43.785,61.54 43.772,61.499 43.773,61.419L43.773,60.375ZM44.62,61.702C44.652,61.777 44.671,61.819 44.69,61.87C44.788,62.112 44.886,62.354 44.99,62.612L44.091,62.612L44.62,61.702Z" style="fill:rgb(123,2,3);fill-rule:nonzero;"/>
        </g>
        <g transform="matrix(3.13273,0,0,3.13273,-57.5838,-121.875)">
            <path d="M42.341,70.475C42.295,70.3 42.193,70.145 42.051,70.033C41.909,69.921 41.735,69.858 41.554,69.853C41.386,69.849 41.221,69.897 41.081,69.991C40.942,70.084 40.835,70.22 40.776,70.377C40.642,70.746 40.748,71.196 41.022,71.409C41.336,71.658 41.699,71.618 42.091,71.272C42.087,71.488 42.042,71.701 41.959,71.9C41.922,71.982 41.864,72.053 41.792,72.107C41.741,72.153 41.678,72.184 41.611,72.2C41.544,72.215 41.474,72.213 41.408,72.195C41.341,72.176 41.281,72.142 41.231,72.094C41.181,72.046 41.144,71.987 41.123,71.921C41.058,71.724 40.916,71.804 40.822,71.83C40.705,71.858 40.796,71.967 40.822,72.022C40.855,72.134 40.92,72.235 41.008,72.312C41.096,72.39 41.204,72.441 41.32,72.459C41.529,72.507 41.749,72.473 41.934,72.365C42.119,72.256 42.255,72.081 42.315,71.874C42.458,71.42 42.467,70.934 42.341,70.475ZM41.569,71.274C41.5,71.275 41.432,71.262 41.368,71.235C41.305,71.208 41.248,71.169 41.2,71.119C41.152,71.069 41.116,71.01 41.092,70.945C41.068,70.881 41.058,70.812 41.061,70.743C41.061,70.399 41.272,70.141 41.561,70.134C41.85,70.127 42.044,70.368 42.046,70.702C42.049,71.037 41.863,71.271 41.569,71.278L41.569,71.274Z" style="fill:rgb(123,2,3);fill-rule:nonzero;"/>
        </g>
        <g transform="matrix(3.13273,0,0,3.13273,-57.5838,-121.875)">
            <path d="M44.463,70.376C44.338,70.061 44.112,69.867 43.761,69.853C43.605,69.843 43.449,69.884 43.318,69.971C43.187,70.058 43.088,70.185 43.037,70.334C42.827,70.881 42.832,71.487 43.05,72.03C43.098,72.164 43.188,72.279 43.305,72.359C43.423,72.438 43.563,72.479 43.705,72.473C43.849,72.485 43.993,72.453 44.119,72.381C44.244,72.309 44.344,72.201 44.407,72.071C44.56,71.788 44.573,71.479 44.577,71.167C44.592,70.898 44.553,70.629 44.463,70.376ZM44.17,71.831C44.096,72.065 43.936,72.201 43.74,72.2C43.635,72.197 43.533,72.157 43.454,72.086C43.375,72.016 43.324,71.92 43.309,71.815C43.206,71.384 43.208,70.934 43.316,70.504C43.375,70.27 43.526,70.141 43.72,70.134C43.823,70.134 43.923,70.169 44.003,70.233C44.084,70.296 44.141,70.385 44.165,70.485C44.221,70.711 44.248,70.944 44.246,71.177C44.244,71.397 44.218,71.617 44.17,71.831Z" style="fill:rgb(123,2,3);fill-rule:nonzero;"/>
        </g>
    </g>
</svg>
