<?xml version="1.0" encoding="UTF-8" standalone="no"?>
<!DOCTYPE svg PUBLIC "-//W3C//DTD SVG 1.1//EN" "http://www.w3.org/Graphics/SVG/1.1/DTD/svg11.dtd">
<svg width="100%" height="100%" viewBox="0 0 154 157" version="1.1" xmlns="http://www.w3.org/2000/svg" xmlns:xlink="http://www.w3.org/1999/xlink" xml:space="preserve" xmlns:serif="http://www.serif.com/" style="fill-rule:evenodd;clip-rule:evenodd;stroke-linejoin:round;stroke-miterlimit:2;">
    <g>
        <g transform="matrix(3.49687,0,0,3.49687,-67.4155,-146.344)">
            <path d="M43.909,53.511C43.828,54.036 43.43,54.237 42.94,54.162C42.396,54.076 42.083,53.768 42.138,53.405L42.38,51.872C42.426,51.589 42.103,51.68 42.118,51.584C42.123,51.559 42.138,51.539 42.194,51.549C42.37,51.579 42.537,51.609 42.678,51.634C42.819,51.655 42.986,51.675 43.167,51.705C43.223,51.715 43.233,51.735 43.228,51.761C43.213,51.856 42.93,51.675 42.89,51.957L42.648,53.481C42.602,53.768 42.804,54.031 43.097,54.076C43.465,54.131 43.753,53.935 43.818,53.516L43.984,52.452C44.03,52.149 43.949,51.962 43.793,51.882C43.742,51.856 43.692,51.846 43.697,51.811C43.702,51.791 43.707,51.776 43.753,51.781C43.843,51.796 43.98,51.821 44.121,51.846C44.267,51.866 44.403,51.882 44.494,51.897C44.534,51.902 44.539,51.922 44.539,51.942C44.534,51.972 44.479,51.967 44.423,51.977C44.257,52.003 44.116,52.159 44.07,52.462L43.909,53.511Z" style="fill:rgb(149,0,64);fill-rule:nonzero;"/>
        </g>
        <g transform="matrix(3.49687,0,0,3.49687,-67.4155,-146.344)">
            <path d="M44.963,54.026C44.847,54.288 44.903,54.439 44.983,54.525C45.059,54.606 45.155,54.611 45.13,54.666C45.12,54.686 45.109,54.696 45.069,54.681C44.958,54.631 44.837,54.57 44.701,54.51C44.57,54.449 44.439,54.404 44.328,54.353C44.287,54.333 44.287,54.318 44.297,54.298C44.323,54.242 44.393,54.313 44.499,54.313C44.615,54.313 44.767,54.253 44.883,53.995L45.513,52.573C45.473,52.371 45.402,52.285 45.306,52.23C45.256,52.199 45.236,52.189 45.251,52.154C45.261,52.129 45.281,52.124 45.306,52.134C45.417,52.184 45.533,52.24 45.654,52.295L46.018,52.457L46.532,54.429L46.537,54.434L46.961,53.471C47.077,53.213 47.021,53.057 46.941,52.971C46.865,52.891 46.769,52.886 46.794,52.83C46.804,52.81 46.815,52.8 46.855,52.815C46.966,52.865 47.087,52.926 47.223,52.986C47.354,53.047 47.486,53.097 47.596,53.143C47.637,53.158 47.637,53.178 47.627,53.198C47.602,53.254 47.531,53.183 47.425,53.183C47.309,53.183 47.158,53.244 47.042,53.506L46.305,55.176C46.28,55.236 46.255,55.282 46.229,55.272C46.199,55.256 46.194,55.211 46.184,55.156L45.559,52.709L45.553,52.709L44.963,54.026Z" style="fill:rgb(149,0,64);fill-rule:nonzero;"/>
        </g>
        <g transform="matrix(3.49687,0,0,3.49687,-67.4155,-146.344)">
            <path d="M48.328,54.02C48.494,53.788 48.167,53.723 48.222,53.642C48.237,53.622 48.262,53.612 48.308,53.647C48.454,53.753 48.59,53.859 48.706,53.94C48.822,54.02 48.964,54.116 49.11,54.222C49.155,54.258 49.155,54.278 49.14,54.303C49.085,54.384 48.913,54.096 48.752,54.323L47.682,55.816C47.516,56.048 47.844,56.114 47.788,56.195C47.773,56.22 47.748,56.225 47.702,56.19C47.556,56.084 47.42,55.978 47.304,55.897C47.188,55.816 47.047,55.72 46.9,55.614C46.855,55.584 46.855,55.559 46.87,55.534C46.926,55.453 47.097,55.74 47.259,55.514L48.328,54.02Z" style="fill:rgb(149,0,64);fill-rule:nonzero;"/>
        </g>
        <g transform="matrix(3.49687,0,0,3.49687,-67.4155,-146.344)">
            <path d="M50.568,56.457C50.638,56.427 50.714,56.381 50.769,56.331C51.017,56.094 50.749,55.932 50.81,55.872C50.825,55.862 50.85,55.862 50.88,55.887C50.961,55.973 51.037,56.063 51.123,56.154C51.203,56.24 51.289,56.321 51.37,56.406C51.42,56.457 51.435,56.497 51.415,56.522C51.339,56.593 51.259,56.295 50.744,56.492L48.853,57.224C48.807,57.239 48.767,57.254 48.757,57.239C48.742,57.224 48.757,57.183 48.777,57.143L49.695,55.095C49.826,54.797 49.624,54.717 49.675,54.666C49.69,54.656 49.715,54.656 49.735,54.676C49.861,54.807 49.962,54.928 50.078,55.044C50.189,55.16 50.305,55.271 50.416,55.387C50.462,55.433 50.467,55.458 50.447,55.478C50.391,55.529 50.29,55.287 50.154,55.418C50.119,55.453 50.093,55.493 50.078,55.529L49.428,56.906L50.568,56.457Z" style="fill:rgb(149,0,64);fill-rule:nonzero;"/>
        </g>
        <g transform="matrix(3.49687,0,0,3.49687,-67.4155,-146.344)">
            <path d="M51.592,57.244C51.834,57.097 51.561,56.906 51.647,56.855C51.672,56.84 51.693,56.845 51.723,56.891C51.814,57.047 51.899,57.198 51.97,57.319C52.197,57.698 52.414,58.056 52.631,58.414L52.141,58.914C52.101,58.954 52.081,58.974 52.071,58.979C52.056,58.989 52.041,58.984 52.03,58.964C52.015,58.939 52.066,58.908 52.197,58.671C52.348,58.389 52.353,58.117 52.136,57.748L52.041,57.582L51.163,58.106L51.208,58.182C51.334,58.394 51.587,58.454 51.814,58.338C51.874,58.308 51.894,58.308 51.914,58.333C51.925,58.354 51.92,58.374 51.889,58.389L50.956,58.944C50.931,58.959 50.906,58.954 50.895,58.939C50.875,58.908 50.885,58.888 50.946,58.848C51.208,58.676 51.259,58.434 51.133,58.222L51.087,58.147L50.32,58.606C50.179,58.692 50.139,58.787 50.255,58.984C50.537,59.458 51.032,59.514 51.39,59.428C51.46,59.413 51.486,59.398 51.506,59.428C51.521,59.448 51.511,59.468 51.491,59.478C51.471,59.489 51.43,59.504 51.395,59.519L50.638,59.786C50.401,59.383 50.164,58.974 49.907,58.555C49.836,58.434 49.74,58.293 49.65,58.137C49.619,58.086 49.629,58.066 49.655,58.051C49.74,58 49.776,58.333 50.023,58.187L51.592,57.244Z" style="fill:rgb(149,0,64);fill-rule:nonzero;"/>
        </g>
        <g transform="matrix(3.49687,0,0,3.49687,-67.4155,-146.344)">
            <path d="M52.106,61.254C52.253,61.123 52.263,60.947 52.202,60.75L51.385,60.992C51.113,61.073 51.33,61.325 51.239,61.355C51.214,61.365 51.188,61.355 51.173,61.3C51.123,61.128 51.082,60.962 51.042,60.825C51.002,60.689 50.946,60.528 50.896,60.356C50.881,60.301 50.891,60.286 50.921,60.276C51.017,60.245 50.971,60.578 51.244,60.498L53.004,59.978C53.277,59.897 53.06,59.645 53.151,59.615C53.176,59.605 53.201,59.615 53.216,59.67C53.267,59.842 53.307,60.008 53.347,60.144C53.398,60.316 53.448,60.457 53.514,60.684C53.685,61.269 53.519,61.653 53.171,61.754C52.883,61.839 52.596,61.733 52.313,61.052L52.308,61.052C52.414,61.416 52.384,61.638 52.172,61.849L51.753,62.248C51.526,62.465 51.723,62.652 51.627,62.682C51.607,62.687 51.587,62.692 51.582,62.662C51.546,62.541 51.516,62.414 51.481,62.293L51.37,61.925L52.106,61.254ZM52.268,60.73L52.308,60.861C52.419,61.244 52.661,61.36 53.024,61.254C53.398,61.143 53.499,60.916 53.418,60.624L53.357,60.412L52.268,60.73Z" style="fill:rgb(149,0,64);fill-rule:nonzero;"/>
        </g>
        <g transform="matrix(3.49687,0,0,3.49687,-67.4155,-146.344)">
            <path d="M52.57,62.863C52.611,62.863 52.626,62.873 52.626,62.894C52.626,62.929 52.575,62.934 52.5,62.949C52.056,63.055 51.612,63.252 51.637,63.771C51.657,64.135 51.849,64.331 52.121,64.316C52.838,64.281 52.419,62.884 53.297,62.838C53.715,62.818 54.043,63.156 54.063,63.595C54.079,63.928 53.947,64.114 53.952,64.21C53.957,64.336 54.053,64.276 54.058,64.336C54.058,64.362 54.048,64.377 53.998,64.382L53.332,64.478C53.266,64.488 53.231,64.493 53.216,64.493C53.191,64.493 53.181,64.483 53.181,64.467C53.181,64.432 53.256,64.427 53.393,64.362C53.781,64.185 54.003,63.983 53.983,63.59C53.973,63.338 53.852,63.146 53.584,63.156C53.004,63.186 53.398,64.609 52.434,64.654C51.965,64.674 51.582,64.296 51.556,63.761C51.541,63.408 51.693,63.237 51.687,63.095C51.682,62.959 51.561,62.984 51.556,62.924C51.556,62.909 51.561,62.894 51.587,62.894L52.57,62.863Z" style="fill:rgb(149,0,64);fill-rule:nonzero;"/>
        </g>
        <g transform="matrix(3.49687,0,0,3.49687,-67.4155,-146.344)">
            <path d="M53.67,65.693C53.953,65.734 53.857,65.411 53.953,65.421C53.983,65.426 53.998,65.441 53.988,65.496C53.963,65.678 53.932,65.845 53.917,65.986C53.897,66.127 53.882,66.299 53.857,66.475C53.847,66.531 53.831,66.541 53.801,66.541C53.7,66.526 53.882,66.243 53.599,66.208L51.778,65.961C51.496,65.925 51.592,66.243 51.496,66.228C51.466,66.223 51.451,66.208 51.461,66.152C51.486,65.976 51.516,65.804 51.531,65.663C51.551,65.522 51.567,65.35 51.592,65.174C51.602,65.118 51.617,65.108 51.647,65.108C51.748,65.118 51.567,65.406 51.849,65.441L53.67,65.693Z" style="fill:rgb(149,0,64);fill-rule:nonzero;"/>
        </g>
        <g transform="matrix(3.49687,0,0,3.49687,-67.4155,-146.344)">
            <path d="M53.367,68.064C53.408,67.338 52.903,67.131 52.929,67.05C52.934,67.035 52.949,67.025 52.974,67.03C52.989,67.035 53.039,67.06 53.09,67.086L53.67,67.403C53.715,67.429 53.725,67.444 53.72,67.464C53.715,67.479 53.7,67.489 53.68,67.504C53.665,67.519 53.635,67.535 53.62,67.58L53.115,69.088C53.1,69.134 53.11,69.164 53.115,69.184C53.125,69.204 53.13,69.224 53.125,69.24C53.12,69.255 53.105,69.26 53.05,69.255L52.399,69.159C52.343,69.149 52.288,69.139 52.273,69.134C52.248,69.124 52.242,69.108 52.248,69.093C52.273,69.018 52.802,69.154 53.206,68.553L51.344,67.928C51.128,67.857 51.047,67.943 50.991,68.11C50.976,68.15 50.961,68.165 50.926,68.155C50.901,68.145 50.896,68.125 50.906,68.089C50.971,67.898 51.037,67.731 51.087,67.57C51.138,67.413 51.193,67.237 51.254,67.045C51.264,67.01 51.284,66.995 51.309,67.005C51.344,67.015 51.344,67.04 51.334,67.081C51.279,67.247 51.289,67.363 51.506,67.439L53.367,68.064Z" style="fill:rgb(149,0,64);fill-rule:nonzero;"/>
        </g>
        <g transform="matrix(3.49687,0,0,3.49687,-67.4155,-146.344)">
            <path d="M50.976,70.551L51.244,71.046C51.334,71.212 51.45,71.323 51.531,71.373C51.733,71.5 51.819,71.293 51.869,71.323C51.889,71.333 51.889,71.363 51.864,71.404C51.804,71.5 51.753,71.57 51.677,71.691C51.617,71.787 51.567,71.883 51.511,71.974C51.496,71.994 51.476,71.999 51.461,71.989C51.4,71.948 51.572,71.863 51.269,71.278L50.896,70.551L50.169,70.097C49.927,69.946 49.882,70.279 49.801,70.228C49.776,70.213 49.771,70.193 49.801,70.143C49.897,69.991 49.993,69.85 50.068,69.729C50.144,69.608 50.23,69.462 50.321,69.305C50.351,69.255 50.376,69.255 50.396,69.27C50.482,69.32 50.205,69.507 50.442,69.658L51.107,70.077L52.293,70.143C52.611,70.163 52.641,69.946 52.702,69.981C52.722,69.996 52.722,70.022 52.702,70.052C52.611,70.198 52.515,70.334 52.429,70.476C52.338,70.617 52.263,70.758 52.172,70.899C52.142,70.945 52.121,70.96 52.101,70.945C52.041,70.904 52.227,70.758 52.061,70.657C52.01,70.627 51.95,70.612 51.859,70.607L50.976,70.551Z" style="fill:rgb(149,0,64);fill-rule:nonzero;"/>
        </g>
        <g transform="matrix(3.49687,0,0,3.49687,-67.4155,-146.344)">
            <path d="M32.367,71.293C32.332,71.318 32.317,71.313 32.302,71.293C32.281,71.262 32.327,71.232 32.377,71.182C32.705,70.864 32.983,70.465 32.695,70.031C32.493,69.729 32.226,69.663 31.999,69.815C31.404,70.213 32.483,71.197 31.752,71.686C31.404,71.918 30.945,71.797 30.703,71.429C30.516,71.151 30.536,70.924 30.481,70.844C30.41,70.738 30.36,70.839 30.324,70.788C30.309,70.768 30.314,70.748 30.354,70.718L30.874,70.294C30.924,70.248 30.95,70.228 30.965,70.218C30.985,70.203 31,70.208 31.01,70.223C31.03,70.253 30.97,70.299 30.884,70.425C30.642,70.773 30.556,71.061 30.773,71.388C30.914,71.6 31.116,71.701 31.338,71.55C31.822,71.227 30.753,70.208 31.55,69.673C31.943,69.411 32.463,69.542 32.761,69.986C32.957,70.279 32.912,70.506 32.988,70.622C33.063,70.738 33.154,70.652 33.184,70.702C33.195,70.718 33.195,70.733 33.174,70.743L32.367,71.293Z" style="fill:rgb(149,0,64);fill-rule:nonzero;"/>
        </g>
        <g transform="matrix(3.49687,0,0,3.49687,-67.4155,-146.344)">
            <path d="M29.83,69.194C29.563,69.285 29.79,69.532 29.694,69.562C29.669,69.573 29.648,69.562 29.628,69.507C29.573,69.335 29.522,69.174 29.477,69.038C29.431,68.902 29.371,68.745 29.315,68.574C29.295,68.518 29.31,68.503 29.336,68.493C29.431,68.463 29.396,68.796 29.663,68.705L30.435,68.448L30.138,67.565L29.366,67.822C29.098,67.913 29.325,68.16 29.235,68.19C29.209,68.2 29.189,68.19 29.169,68.14C29.109,67.968 29.063,67.807 29.018,67.671C28.972,67.535 28.912,67.378 28.851,67.207C28.831,67.151 28.846,67.136 28.871,67.126C28.967,67.096 28.932,67.429 29.199,67.338L30.94,66.753C31.207,66.662 30.98,66.415 31.076,66.384C31.101,66.374 31.121,66.384 31.141,66.435C31.202,66.606 31.247,66.773 31.293,66.904C31.338,67.04 31.399,67.197 31.454,67.368C31.474,67.424 31.459,67.444 31.434,67.449C31.338,67.479 31.374,67.146 31.106,67.237L30.218,67.535L30.516,68.417L31.404,68.12C31.671,68.029 31.444,67.782 31.54,67.751C31.565,67.741 31.585,67.751 31.606,67.802C31.666,67.973 31.712,68.135 31.757,68.271C31.802,68.407 31.863,68.564 31.918,68.735C31.939,68.791 31.923,68.806 31.898,68.816C31.802,68.846 31.838,68.513 31.57,68.604L29.83,69.194Z" style="fill:rgb(149,0,64);fill-rule:nonzero;"/>
        </g>
        <g transform="matrix(3.49687,0,0,3.49687,-67.4155,-146.344)">
            <path d="M28.922,65.693C28.64,65.708 28.791,66.006 28.69,66.011C28.66,66.011 28.645,66.001 28.64,65.946C28.629,65.764 28.629,65.592 28.624,65.451C28.604,65.012 28.579,64.594 28.554,64.175L29.225,63.963C29.275,63.948 29.305,63.938 29.315,63.938C29.331,63.938 29.346,63.948 29.346,63.973C29.346,64.003 29.285,64.003 29.063,64.155C28.796,64.336 28.66,64.573 28.68,64.997L28.69,65.189L29.709,65.138L29.704,65.048C29.699,64.8 29.502,64.629 29.25,64.629C29.179,64.629 29.159,64.619 29.159,64.584C29.159,64.563 29.174,64.548 29.209,64.548L30.294,64.493C30.324,64.493 30.345,64.503 30.345,64.528C30.345,64.563 30.329,64.573 30.259,64.584C29.946,64.614 29.785,64.8 29.8,65.048L29.795,65.133L30.688,65.088C30.849,65.078 30.935,65.012 30.92,64.785C30.894,64.23 30.486,63.953 30.128,63.862C30.062,63.842 30.027,63.842 30.027,63.812C30.027,63.786 30.042,63.776 30.062,63.771C30.082,63.771 30.128,63.776 30.163,63.782L30.955,63.898C30.975,64.367 30.995,64.836 31.015,65.33C31.02,65.471 31.036,65.643 31.046,65.819C31.051,65.875 31.031,65.89 31,65.89C30.899,65.895 31.026,65.582 30.743,65.598L28.922,65.693Z" style="fill:rgb(149,0,64);fill-rule:nonzero;"/>
        </g>
        <g transform="matrix(3.49687,0,0,3.49687,-67.4155,-146.344)">
            <path d="M30.526,62.747C30.804,62.808 30.945,62.722 31.01,62.626C31.071,62.541 31.061,62.44 31.116,62.455C31.136,62.46 31.152,62.47 31.142,62.51C31.116,62.626 31.081,62.762 31.046,62.904C31.015,63.045 30.99,63.181 30.965,63.302C30.955,63.343 30.935,63.348 30.915,63.343C30.854,63.327 30.909,63.247 30.889,63.141C30.869,63.03 30.778,62.889 30.501,62.833L28.988,62.5C28.796,62.576 28.73,62.667 28.69,62.773C28.67,62.828 28.665,62.848 28.629,62.843C28.604,62.838 28.594,62.823 28.599,62.793C28.624,62.677 28.66,62.545 28.69,62.419L28.776,62.031L30.607,61.133L30.607,61.128L29.583,60.901C29.305,60.841 29.164,60.926 29.099,61.022C29.038,61.108 29.048,61.209 28.993,61.194C28.972,61.189 28.957,61.179 28.962,61.138C28.988,61.022 29.023,60.886 29.058,60.745C29.088,60.603 29.114,60.467 29.139,60.346C29.149,60.306 29.164,60.301 29.189,60.306C29.25,60.321 29.194,60.402 29.215,60.508C29.235,60.624 29.326,60.76 29.603,60.82L31.389,61.209C31.454,61.224 31.5,61.239 31.495,61.264C31.49,61.295 31.439,61.31 31.394,61.33L29.119,62.429L29.119,62.435L30.526,62.747Z" style="fill:rgb(149,0,64);fill-rule:nonzero;"/>
        </g>
        <g transform="matrix(3.49687,0,0,3.49687,-67.4155,-146.344)">
            <path d="M31.848,59.988C32.019,59.62 31.954,59.317 31.823,59.085C31.686,58.848 31.495,58.762 31.52,58.707C31.525,58.697 31.545,58.682 31.57,58.697C31.59,58.707 31.631,58.737 31.686,58.782L32.302,59.231C32.176,59.489 32.05,59.751 31.928,60.013C31.807,60.276 31.686,60.543 31.565,60.805C31.55,60.83 31.53,60.836 31.52,60.83C31.505,60.82 31.49,60.8 31.459,60.76L30.017,58.621L29.926,58.813C29.759,59.171 29.785,59.458 29.961,59.731C30.122,59.973 30.173,59.968 30.153,60.008C30.143,60.028 30.133,60.028 30.112,60.023C30.092,60.013 30.072,59.993 30.027,59.958L29.492,59.509C29.598,59.277 29.714,59.045 29.83,58.808C29.941,58.571 30.047,58.333 30.158,58.086C30.178,58.046 30.193,58.041 30.208,58.046C30.223,58.056 30.249,58.091 30.284,58.142L31.727,60.245L31.848,59.988Z" style="fill:rgb(149,0,64);fill-rule:nonzero;"/>
        </g>
        <g transform="matrix(3.49687,0,0,3.49687,-67.4155,-146.344)">
            <path d="M30.985,57.294C30.763,57.118 30.683,57.441 30.602,57.38C30.582,57.365 30.577,57.34 30.612,57.294C30.723,57.153 30.839,57.027 30.925,56.916C31.016,56.805 31.116,56.669 31.227,56.528C31.263,56.482 31.288,56.482 31.308,56.502C31.384,56.563 31.086,56.714 31.308,56.896L31.944,57.405L32.524,56.679L31.888,56.169C31.666,55.993 31.586,56.316 31.505,56.255C31.485,56.235 31.475,56.215 31.515,56.169C31.626,56.028 31.742,55.902 31.828,55.791C31.918,55.68 32.019,55.544 32.13,55.403C32.166,55.357 32.191,55.357 32.211,55.377C32.287,55.438 31.989,55.589 32.211,55.766L33.644,56.916C33.866,57.093 33.946,56.77 34.027,56.83C34.047,56.85 34.052,56.871 34.017,56.916C33.901,57.057 33.79,57.183 33.704,57.294C33.613,57.405 33.513,57.542 33.402,57.683C33.366,57.728 33.341,57.728 33.321,57.708C33.24,57.647 33.543,57.496 33.321,57.32L32.589,56.734L32.009,57.461L32.741,58.046C32.963,58.222 33.043,57.9 33.124,57.96C33.144,57.98 33.149,58.001 33.114,58.046C32.998,58.187 32.887,58.318 32.801,58.424C32.71,58.535 32.609,58.672 32.499,58.813C32.463,58.858 32.443,58.858 32.418,58.838C32.342,58.777 32.64,58.626 32.418,58.445L30.985,57.294Z" style="fill:rgb(149,0,64);fill-rule:nonzero;"/>
        </g>
        <g transform="matrix(3.49687,0,0,3.49687,-67.4155,-146.344)">
            <path d="M33.437,54.641C33.27,54.409 33.104,54.701 33.048,54.621C33.028,54.596 33.028,54.575 33.074,54.54C33.22,54.434 33.361,54.343 33.477,54.258C33.835,54 34.173,53.753 34.511,53.511L35.051,53.96C35.091,53.995 35.117,54.015 35.122,54.02C35.132,54.036 35.127,54.051 35.111,54.066C35.086,54.086 35.051,54.036 34.809,53.925C34.511,53.798 34.239,53.814 33.891,54.061L33.734,54.172L34.33,55.004L34.4,54.954C34.602,54.807 34.642,54.555 34.506,54.338C34.466,54.278 34.466,54.258 34.496,54.237C34.516,54.227 34.536,54.232 34.552,54.258L35.182,55.14C35.202,55.166 35.197,55.191 35.182,55.201C35.152,55.221 35.132,55.211 35.091,55.16C34.895,54.913 34.652,54.883 34.451,55.024L34.38,55.075L34.9,55.801C34.995,55.932 35.096,55.968 35.283,55.831C35.732,55.509 35.747,55.014 35.631,54.666C35.611,54.6 35.591,54.57 35.621,54.55C35.641,54.535 35.661,54.545 35.671,54.56C35.682,54.575 35.702,54.616 35.722,54.651L36.055,55.382C35.671,55.655 35.288,55.922 34.884,56.21C34.768,56.29 34.637,56.396 34.486,56.502C34.441,56.538 34.415,56.528 34.4,56.507C34.345,56.427 34.673,56.361 34.506,56.129L33.437,54.641Z" style="fill:rgb(149,0,64);fill-rule:nonzero;"/>
        </g>
        <g transform="matrix(3.49687,0,0,3.49687,-67.4155,-146.344)">
            <path d="M36.716,54.424C36.817,54.691 36.963,54.757 37.079,54.767C37.185,54.772 37.261,54.707 37.281,54.762C37.291,54.782 37.286,54.802 37.25,54.818C37.134,54.858 37.003,54.903 36.867,54.954C36.731,55.004 36.605,55.06 36.494,55.105C36.453,55.12 36.443,55.105 36.433,55.085C36.413,55.029 36.509,55.029 36.59,54.954C36.675,54.873 36.736,54.722 36.635,54.459L36.09,53.007C35.919,52.891 35.813,52.88 35.702,52.906C35.646,52.921 35.621,52.926 35.611,52.891C35.601,52.865 35.611,52.85 35.636,52.84C35.747,52.8 35.873,52.759 35.994,52.714L36.368,52.573L38.118,53.617L38.123,53.617L37.755,52.633C37.654,52.366 37.508,52.3 37.392,52.295C37.286,52.29 37.21,52.356 37.19,52.3C37.18,52.28 37.185,52.26 37.22,52.245C37.331,52.205 37.462,52.159 37.599,52.109C37.735,52.058 37.861,52.003 37.977,51.957C38.017,51.942 38.027,51.957 38.037,51.978C38.058,52.033 37.962,52.033 37.881,52.109C37.8,52.189 37.735,52.341 37.831,52.603L38.476,54.313C38.501,54.374 38.512,54.424 38.486,54.434C38.456,54.444 38.416,54.414 38.375,54.384L36.216,53.077L36.211,53.077L36.716,54.424Z" style="fill:rgb(149,0,64);fill-rule:nonzero;"/>
        </g>
        <g transform="matrix(3.49687,0,0,3.49687,-67.4155,-146.344)">
            <path d="M35.298,74.107C35.298,74.294 35.147,74.44 34.965,74.44C34.783,74.44 34.632,74.294 34.632,74.107C34.632,73.926 34.779,73.774 34.965,73.774C35.152,73.78 35.298,73.926 35.298,74.107Z" style="fill:rgb(149,0,64);fill-rule:nonzero;"/>
        </g>
        <g transform="matrix(3.49687,0,0,3.49687,-67.4155,-146.344)">
            <path d="M47.935,74.107C47.935,74.294 47.783,74.44 47.602,74.44C47.42,74.44 47.269,74.294 47.269,74.107C47.269,73.926 47.42,73.774 47.602,73.774C47.788,73.78 47.935,73.926 47.935,74.107Z" style="fill:rgb(149,0,64);fill-rule:nonzero;"/>
        </g>
        <g transform="matrix(3.49687,0,0,3.49687,-67.4155,-146.344)">
            <path d="M41.301,78.597C39.369,78.597 37.498,78.219 35.737,77.472C34.032,76.751 32.504,75.722 31.192,74.41C29.88,73.099 28.846,71.57 28.13,69.865C27.378,68.1 27,66.228 27,64.301C27,62.369 27.378,60.498 28.125,58.737C28.846,57.032 29.875,55.498 31.187,54.187C32.498,52.875 34.027,51.841 35.732,51.125C37.498,50.378 39.369,50 41.301,50C43.233,50 45.105,50.378 46.865,51.125C48.57,51.846 50.099,52.875 51.41,54.187C52.722,55.498 53.756,57.027 54.472,58.732C55.219,60.492 55.597,62.369 55.597,64.296C55.597,66.228 55.219,68.1 54.472,69.865C53.751,71.57 52.722,73.099 51.41,74.41C50.099,75.722 48.57,76.756 46.865,77.472C45.105,78.219 43.228,78.597 41.301,78.597ZM41.301,50.666C33.785,50.666 27.666,56.78 27.666,64.301C27.666,71.817 33.78,77.936 41.301,77.936C48.817,77.936 54.936,71.822 54.936,64.301C54.931,56.78 48.817,50.666 41.301,50.666Z" style="fill:rgb(149,0,64);fill-rule:nonzero;"/>
        </g>
        <g transform="matrix(3.49687,0,0,3.49687,-67.4155,-146.344)">
            <path d="M37.558,76.085C37.513,76.226 37.573,76.327 37.76,76.403C37.936,76.473 37.977,76.488 37.956,76.534C37.951,76.554 37.926,76.569 37.891,76.554C37.664,76.478 37.432,76.398 37.215,76.327C36.988,76.251 36.751,76.181 36.524,76.1C36.489,76.085 36.478,76.06 36.483,76.039C36.499,75.989 36.539,75.999 36.721,76.055C36.917,76.11 37.028,76.065 37.074,75.923L37.598,74.355C37.624,74.279 37.608,74.254 37.548,74.234L37.089,74.082C37.059,74.072 37.048,74.052 37.054,74.032C37.069,73.981 37.129,74.027 37.432,74.087C37.886,74.178 38.103,74.057 38.168,74.082C38.199,74.092 38.209,74.112 38.189,74.173L37.558,76.085Z" style="fill:rgb(149,0,64);fill-rule:nonzero;"/>
        </g>
        <g transform="matrix(3.49687,0,0,3.49687,-67.4155,-146.344)">
            <path d="M40.035,74.455C40.615,74.516 40.923,75.005 40.857,75.596C40.746,76.614 39.42,76.867 39.258,76.847C39.238,76.847 39.238,76.836 39.238,76.816C39.243,76.776 39.99,76.665 40.282,75.817C40.136,75.893 39.984,75.933 39.793,75.913C39.218,75.853 39.006,75.459 39.046,75.106C39.097,74.682 39.44,74.39 40.035,74.455ZM39.909,75.843C40.08,75.863 40.277,75.767 40.322,75.696C40.338,75.671 40.378,75.53 40.393,75.389C40.464,74.753 40.277,74.551 40.02,74.526C39.818,74.506 39.601,74.602 39.546,75.147C39.49,75.621 39.677,75.817 39.909,75.843Z" style="fill:rgb(149,0,64);fill-rule:nonzero;"/>
        </g>
        <g transform="matrix(3.49687,0,0,3.49687,-67.4155,-146.344)">
            <path d="M41.906,75.732C41.684,75.596 41.584,75.419 41.568,75.237C41.538,74.854 41.876,74.521 42.365,74.476C42.774,74.44 43.097,74.662 43.122,74.97C43.142,75.177 43.041,75.384 42.885,75.515C43.162,75.585 43.339,75.823 43.364,76.125C43.4,76.529 43.026,76.892 42.446,76.942C41.947,76.988 41.594,76.715 41.563,76.352C41.548,76.15 41.654,75.898 41.906,75.732ZM42.441,76.877C42.794,76.847 42.961,76.61 42.935,76.337C42.92,76.145 42.83,75.999 42.436,75.893C42.068,75.792 42.038,75.762 41.987,75.767C41.922,75.772 41.765,75.974 41.79,76.277C41.826,76.66 42.063,76.912 42.441,76.877ZM42.376,74.541C42.128,74.561 41.972,74.738 41.992,74.99C42.022,75.348 42.572,75.434 42.824,75.49C42.9,75.389 42.956,75.288 42.935,75.046C42.91,74.683 42.688,74.516 42.376,74.541Z" style="fill:rgb(149,0,64);fill-rule:nonzero;"/>
        </g>
        <g transform="matrix(3.49687,0,0,3.49687,-67.4155,-146.344)">
            <path d="M45.195,74.854C45.458,74.94 45.675,75.076 45.76,75.353C45.902,75.812 45.574,76.302 45.079,76.453C44.6,76.604 44.217,76.478 44.141,76.236C44.101,76.105 44.156,75.954 44.297,75.908C44.469,75.853 44.575,75.933 44.656,76.16C44.736,76.397 44.893,76.443 45.054,76.393C45.326,76.307 45.463,76.039 45.357,75.691C45.266,75.409 45.049,75.257 44.822,75.252C44.671,75.252 44.545,75.333 44.529,75.283C44.504,75.207 44.661,75.242 44.802,75.101C44.898,75.005 44.913,74.834 44.857,74.647C44.777,74.395 44.565,74.309 44.292,74.395C43.929,74.506 43.98,74.788 43.914,74.809C43.899,74.814 43.884,74.804 43.879,74.788C43.848,74.703 43.959,74.234 44.423,74.087C44.756,73.981 45.15,74.072 45.261,74.44C45.306,74.587 45.271,74.708 45.195,74.854Z" style="fill:rgb(149,0,64);fill-rule:nonzero;"/>
        </g>
        <g transform="matrix(3.49687,0,0,3.49687,-67.4155,-146.344)">
            <path d="M38.849,65.512C38.88,65.532 38.905,65.537 38.95,65.537C39.051,65.532 39.112,65.476 39.137,65.466C39.147,65.461 39.177,65.446 39.177,65.441C39.177,65.396 39.031,65.34 38.96,65.34C38.875,65.335 38.733,65.416 38.733,65.436C38.733,65.456 38.824,65.497 38.849,65.512Z" style="fill:rgb(149,0,64);fill-rule:nonzero;"/>
        </g>
        <g transform="matrix(3.49687,0,0,3.49687,-67.4155,-146.344)">
            <path d="M39.702,67.272C39.742,67.065 39.672,67.121 39.233,67.106C39.031,67.106 38.335,67.091 38.138,67.116C38.047,67.126 38.037,67.202 38.037,67.247C38.037,67.398 38.002,67.383 38.749,67.383L39.041,67.363C39.505,67.333 39.621,67.388 39.702,67.272Z" style="fill:rgb(149,0,64);fill-rule:nonzero;"/>
        </g>
        <g transform="matrix(3.49687,0,0,3.49687,-67.4155,-146.344)">
            <path d="M47.284,60.548C47.284,60.74 47.364,60.911 47.49,61.032L47.496,61.037L49.745,63.292C49.866,63.413 49.942,63.58 49.942,63.761L49.942,60.941C49.942,60.81 49.866,60.624 49.771,60.533L45.044,55.806C44.948,55.71 44.767,55.635 44.635,55.635L44.287,55.635C44.197,55.635 44.121,55.71 44.121,55.801L44.121,58.046C44.121,58.182 44.01,58.293 43.874,58.298L43.621,58.298L43.621,56.134C43.621,55.857 43.4,55.635 43.122,55.635L39.465,55.635C39.187,55.635 38.965,55.857 38.965,56.134L38.965,58.298L38.713,58.298C38.577,58.298 38.466,58.187 38.466,58.046L38.466,55.801C38.466,55.71 38.39,55.635 38.3,55.635L37.952,55.635C37.82,55.635 37.634,55.71 37.543,55.806L32.816,60.533C32.72,60.629 32.645,60.81 32.645,60.941L32.645,63.761C32.645,63.58 32.72,63.408 32.841,63.292L35.091,61.037L35.096,61.032C35.222,60.911 35.303,60.74 35.303,60.548L35.303,61.017C35.303,61.199 35.228,61.365 35.106,61.486L32.852,63.741C32.725,63.862 32.645,64.034 32.645,64.225L32.645,66.773C32.645,66.586 32.72,66.42 32.841,66.304L35.091,64.049L35.096,64.044C35.222,63.923 35.303,63.751 35.303,63.559L35.303,64.029C35.303,64.215 35.228,64.382 35.106,64.498L32.852,66.758C32.725,66.879 32.645,67.05 32.645,67.242L32.645,67.615C32.645,67.746 32.72,67.933 32.816,68.024L33.477,68.685L35.101,67.06C35.228,66.939 35.308,66.768 35.308,66.576L35.308,67.045C35.308,67.227 35.233,67.398 35.111,67.514L33.714,68.917L37.503,72.71L38.527,70.864C38.612,70.702 38.789,70.591 38.986,70.591L39.379,70.591C39.177,70.591 39.001,70.707 38.915,70.874L37.795,72.892C37.851,72.907 37.901,72.917 37.952,72.917L39.899,72.917L40.272,70.864C40.297,70.707 40.438,70.586 40.6,70.586L40.943,70.586C40.776,70.586 40.64,70.707 40.61,70.864L40.237,72.912L42.35,72.912L41.977,70.864C41.952,70.707 41.811,70.586 41.649,70.586L41.987,70.586C42.154,70.586 42.29,70.707 42.32,70.864L42.693,72.917L44.64,72.917C44.686,72.917 44.741,72.907 44.797,72.892L43.672,70.874C43.586,70.707 43.41,70.591 43.208,70.591L43.606,70.591C43.803,70.591 43.975,70.702 44.065,70.864L45.089,72.71L48.883,68.917L47.48,67.514C47.359,67.393 47.284,67.227 47.284,67.045L47.284,66.576C47.284,66.768 47.364,66.934 47.49,67.06L49.115,68.685L49.776,68.024C49.866,67.928 49.947,67.746 49.947,67.615L49.947,67.242C49.947,67.05 49.866,66.879 49.74,66.758L47.48,64.498C47.359,64.377 47.284,64.21 47.284,64.029L47.284,63.57C47.284,63.761 47.364,63.933 47.49,64.054L47.496,64.059L49.745,66.314C49.866,66.435 49.942,66.601 49.942,66.783L49.942,64.235C49.942,64.044 49.861,63.872 49.735,63.751L49.73,63.746L47.475,61.496C47.354,61.375 47.279,61.209 47.279,61.027L47.279,60.548L47.284,60.548ZM43.147,60.704C43.223,60.008 43.238,60.079 43.621,59.938C44.081,59.852 44.333,59.781 44.57,59.791C44.812,59.796 45.347,59.811 45.836,59.998C46.048,60.074 45.962,60.144 45.972,60.941C45.937,61.244 45.912,61.194 45.604,61.224C45.352,61.214 45.216,61.239 44.888,61.148C44.782,61.017 44.651,60.301 44.408,60.392C44.308,60.467 44.408,60.477 44.237,60.825C44.202,60.881 44.141,61.047 44.075,61.123C43.828,61.239 43.616,61.204 43.334,61.214C43.082,61.194 43.147,61.068 43.147,60.704ZM42.653,60.114C42.658,59.968 42.653,59.932 42.769,59.922C42.961,59.917 42.961,59.988 42.976,60.084C42.976,60.235 42.971,60.548 42.966,60.841C42.966,61.012 42.966,61.375 42.829,61.426C42.678,61.446 42.587,61.461 42.597,61.289C42.587,61.189 42.638,61.037 42.663,60.881C42.698,60.73 42.673,60.301 42.653,60.114ZM42.744,61.885C42.92,61.955 42.93,62.505 42.93,62.505C42.935,62.576 42.946,63.055 42.946,63.222C42.951,63.383 42.956,63.499 42.93,63.57C42.875,63.615 42.809,63.625 42.713,63.605C42.633,63.559 42.592,63.131 42.592,62.995C42.592,62.853 42.587,62.525 42.547,62.208C42.507,61.885 42.537,61.92 42.744,61.885ZM42.083,61.587C42.103,61.355 42.169,60.548 42.143,60.346C42.148,60.215 42.128,60.023 42.174,59.877C42.194,59.811 42.259,59.801 42.375,59.791C42.562,59.756 42.522,60.412 42.522,60.412C42.507,60.977 42.35,62.092 42.35,62.384C42.295,62.863 42.522,64.14 42.396,64.256C42.355,64.276 42.194,64.301 42.154,64.22C42.032,63.877 42.027,63.348 42.002,62.894C41.972,62.384 42.063,61.824 42.083,61.587ZM41.589,60.846C41.644,60.503 41.619,60.109 41.649,60.003C41.684,59.968 41.77,59.943 41.876,59.968C42.002,60.059 42.042,61.168 41.76,61.39C41.674,61.39 41.573,61.4 41.543,61.34C41.503,61.269 41.548,61.093 41.589,60.846ZM41.442,62.339C41.442,61.89 41.488,61.814 41.573,61.683C41.669,61.633 41.795,61.703 41.841,61.759C41.901,61.915 41.795,62.702 41.785,63.055C41.76,63.403 41.876,63.756 41.735,63.817C41.589,63.867 41.488,63.822 41.472,63.721C41.422,63.297 41.442,62.339 41.442,62.339ZM41.039,67.812C41.013,68.397 41.003,68.342 40.595,68.342C40.242,68.342 39.359,68.342 39.303,68.347C39.303,68.427 39.283,68.609 39.293,68.775C39.308,69.002 39.435,69.063 38.501,69.159C38.279,69.179 36.872,69.124 36.776,68.957C36.675,68.786 36.499,68.508 36.635,68.271C36.832,68.427 37.023,68.548 37.452,68.705C37.795,68.765 38.35,68.816 38.638,68.73C38.839,68.644 38.834,68.589 38.819,68.372C38.163,68.332 37.81,68.311 37.593,68.301C37.23,68.256 37.25,68.261 37.245,68.079C37.265,67.933 37.301,67.898 37.533,67.913C37.664,67.933 37.941,67.953 38.32,67.953L38.819,67.953L38.819,67.661C38.819,67.661 38.31,67.681 38.123,67.671C37.528,67.645 37.624,67.56 37.593,67.287C37.644,66.803 37.644,66.869 38.083,66.838C38.461,66.833 39.53,66.813 39.808,66.823C40.242,66.864 40.186,66.894 40.176,67.282C40.131,67.499 40.211,67.575 39.788,67.64C39.712,67.64 39.298,67.671 39.298,67.671L39.298,67.953L40.262,67.953C40.262,67.953 40.605,67.948 40.605,67.661C40.605,67.378 40.645,66.944 40.645,66.944C40.645,66.944 40.64,66.642 40.343,66.642C40.05,66.642 38.436,66.616 37.775,66.626C37.26,66.632 37.25,66.712 37.21,66.889C37.164,67.086 37.124,67.903 36.973,67.867C36.59,67.772 36.675,67.731 36.68,67.504C36.695,67.202 36.746,66.889 36.801,66.586C36.882,66.374 36.917,66.258 38.179,66.263L40.464,66.263C40.847,66.289 40.978,66.283 41.034,66.657C41.079,67.212 41.059,67.388 41.039,67.812ZM37.25,65.239C37.25,65.33 37.402,65.315 37.699,65.305C37.962,65.305 37.946,65.249 37.957,65.461C37.957,65.542 37.967,65.562 37.79,65.567C37.185,65.597 37.24,65.582 37.24,65.724C37.245,65.845 37.341,65.814 37.709,65.799C37.946,65.789 37.962,65.754 37.982,65.915C37.992,66.016 37.977,66.082 37.977,66.082C37.805,66.082 37.144,66.147 36.978,66.132C36.801,66.107 36.801,66.122 36.811,65.769C36.832,65.451 36.847,65.148 36.917,64.886C36.993,64.725 37.003,64.76 37.674,64.73C38.027,64.735 37.992,64.71 38.017,64.947C38.022,65.032 38.042,65.053 37.462,65.083C37.2,65.073 37.245,65.053 37.25,65.239ZM38.244,64.911C38.209,64.891 38.33,64.72 38.395,64.704C38.481,64.72 38.708,64.851 38.779,64.876C38.799,64.881 38.87,64.916 38.96,64.962C39.006,64.942 39.036,64.927 39.056,64.916C39.132,64.871 39.475,64.679 39.566,64.684C39.591,64.704 39.722,64.901 39.636,64.957C39.52,65.032 39.394,65.123 39.308,65.159C39.409,65.214 39.49,65.259 39.51,65.269C39.651,65.34 39.682,65.37 39.667,65.517C39.651,65.547 39.586,65.597 39.556,65.608C39.48,65.643 39.414,65.683 39.339,65.719C39.399,65.749 39.465,65.779 39.525,65.809C39.793,65.961 39.778,65.925 39.697,66.062C39.596,66.203 39.45,66.127 39.384,66.102C39.349,66.087 39.142,66.001 38.955,65.9C38.839,65.966 38.693,66.046 38.557,66.107C38.37,66.193 38.34,66.198 38.274,66.107C38.163,65.946 38.229,65.951 38.421,65.84C38.441,65.829 38.532,65.784 38.602,65.739C38.522,65.698 38.426,65.663 38.33,65.597C38.305,65.582 38.229,65.542 38.224,65.492C38.224,65.421 38.194,65.35 38.406,65.234C38.471,65.199 38.527,65.174 38.592,65.143C38.441,65.078 38.295,64.997 38.244,64.911ZM40.948,66.082C40.807,66.112 40.005,66.132 39.989,66.127C39.914,66.122 39.904,66.132 39.909,66.021C39.904,65.865 39.919,65.85 40.186,65.855C40.449,65.86 40.655,65.88 40.655,65.724C40.655,65.602 40.625,65.582 40.196,65.597C39.949,65.602 39.964,65.597 39.949,65.547C39.919,65.396 39.884,65.31 40.095,65.3C40.393,65.275 40.64,65.295 40.655,65.224C40.686,65.098 40.655,65.053 40.418,65.068C39.919,65.103 39.894,65.138 39.889,64.982C39.889,64.831 39.823,64.785 40.222,64.765C40.625,64.76 40.948,64.71 40.973,64.891C41.044,65.103 41.044,65.385 41.059,65.799C41.069,66.072 41.054,66.062 40.948,66.082ZM40.882,64.382C40.746,64.452 40.237,63.751 39.878,63.297C39.752,63.141 39.298,62.747 38.895,62.727C38.284,62.692 37.447,63.771 37.24,64.14C37.134,64.301 37.013,64.467 36.837,64.382C36.67,64.276 36.675,64.281 36.771,64.003C36.943,63.595 37.699,62.768 38.022,62.535C38.365,62.213 38.451,62.172 38.562,61.789C38.617,61.093 38.597,60.926 38.395,60.891C38.194,60.871 37.296,60.74 37.26,61.295C37.23,61.769 37.23,61.975 37.23,62.167C37.23,62.45 37.21,62.404 36.927,62.404C36.746,62.404 36.842,61.456 36.842,60.815C36.938,60.427 37.175,60.498 37.563,60.467C37.765,60.487 38.027,60.467 38.163,60.467C38.486,60.467 38.562,60.301 38.582,60.044C38.602,59.776 38.633,59.766 38.854,59.731C39.056,59.7 39.036,59.852 39.076,60.059C39.147,60.371 39.041,60.397 39.495,60.422C39.884,60.422 40.181,60.432 40.348,60.442C40.726,60.477 40.933,60.442 40.958,61.022C40.973,61.511 41.094,61.97 40.948,62.147C40.887,62.223 40.711,62.314 40.585,62.293C40.428,62.208 40.756,61.133 40.353,60.946C40.111,60.835 39.435,60.835 39.238,60.931C39.051,61.022 39.127,61.406 39.107,61.678C39.107,61.895 39.107,62.122 39.551,62.414C40,62.747 40.408,63.161 40.817,63.655C41.054,63.923 41.271,64.266 40.882,64.382ZM41.135,58.298L39.142,58.298C39.142,58.021 39.364,57.799 39.641,57.799L40.887,57.799C41.024,57.799 41.135,57.91 41.135,58.046L41.135,58.298ZM43.036,66.929C42.956,67.005 42.673,67.045 42.612,67.136C42.552,67.227 42.572,67.888 42.612,67.928C42.663,67.983 42.799,67.948 43.001,67.928C43.157,67.923 43.208,68.402 43.092,68.417C42.971,68.437 42.532,68.488 42.3,68.513C42.053,68.543 41.911,68.564 41.674,68.559C41.452,68.559 41.457,68.443 41.437,68.276C41.437,68.084 41.417,68.019 41.599,68.044C41.775,68.049 41.896,68.074 42.058,67.938C42.174,67.842 42.108,67.595 42.123,67.408C42.118,67.242 42.164,67.086 41.926,67.146C41.594,67.222 41.573,67.277 41.573,66.707C41.573,66.505 41.568,66.314 41.584,66.178C41.604,65.905 41.543,65.764 41.886,65.693C42.032,65.663 41.957,66.112 41.952,66.319C41.952,66.521 41.926,66.732 42.038,66.732C42.32,66.753 42.154,66.122 42.174,65.587C42.184,65.234 42.113,65.073 42.391,65.022C42.638,64.987 42.582,65.078 42.592,65.37C42.597,65.648 42.582,66.601 42.698,66.591C42.93,66.576 42.89,65.769 42.875,65.628C42.87,65.411 42.829,65.315 43.051,65.3C43.223,65.29 43.228,65.28 43.258,65.471C43.289,65.673 43.294,65.865 43.294,66.016C43.278,66.213 43.268,66.314 43.228,66.526C43.193,66.763 43.117,66.854 43.036,66.929ZM44.075,69.118C43.954,69.149 43.904,69.144 43.748,69.118C43.637,69.098 43.581,68.972 43.49,68.685C43.445,68.528 43.405,68.377 43.334,68.009C43.294,67.595 43.238,67.262 43.324,67.05C43.364,66.899 43.455,66.672 43.546,66.495C43.616,66.324 43.682,66.193 43.768,65.89C43.823,65.592 43.818,65.567 43.768,65.315C43.753,65.214 43.682,65.083 43.632,64.947C43.551,64.77 43.5,64.679 43.702,64.654C44,64.634 43.975,64.664 44.111,64.861C44.252,65.184 44.252,65.31 44.262,65.416C44.292,65.663 44.282,65.94 44.05,66.455C43.823,66.899 43.732,67.086 43.763,67.509C43.798,67.983 43.904,68.488 43.969,68.664C44,68.796 44.166,69.093 44.075,69.118ZM44.797,68.463C44.888,68.775 45.089,69.053 44.958,69.088C44.852,69.113 44.666,69.098 44.605,69.033C44.479,68.897 44.363,68.639 44.282,68.231C44.222,67.792 44.181,67.514 44.227,67.116C44.363,66.521 44.666,66.334 44.716,65.835C44.746,65.517 44.711,65.416 44.661,65.28C44.58,65.043 44.297,64.674 44.62,64.674C44.822,64.674 44.822,64.7 44.903,64.765C45.029,64.861 45.17,65.29 45.19,65.537C45.221,65.905 45.054,66.273 44.928,66.591C44.787,66.954 44.645,67.156 44.645,67.509C44.671,67.741 44.696,68.059 44.797,68.463ZM45.947,66.213C45.786,66.823 45.644,66.753 45.528,67.424C45.528,67.681 45.664,68.246 45.72,68.458C45.755,68.654 45.947,69.043 45.851,69.073C45.755,69.103 45.543,69.053 45.468,68.992C45.357,68.906 45.266,68.513 45.221,68.377C45.135,67.994 44.983,67.323 45.266,66.778C45.347,66.601 45.478,66.374 45.553,65.93C45.553,65.33 45.518,65.259 45.432,64.982C45.367,64.82 45.281,64.694 45.427,64.684C45.871,64.684 45.816,64.82 45.942,65.113C46.023,65.466 46.033,65.602 45.947,66.213ZM45.841,64.16C45.599,64.246 45.619,64.129 45.609,63.786C45.599,63.565 45.629,62.868 45.321,62.768C45.059,62.641 44.817,62.636 44.762,62.717C44.721,62.778 44.736,64.003 44.736,64.003C44.741,64.291 44.615,64.246 44.484,64.23C44.237,64.165 44.267,64.024 44.272,63.797C44.277,63.565 44.277,62.742 44.237,62.697C44.202,62.657 43.732,62.631 43.652,63.126C43.576,63.595 43.526,63.908 43.505,64.008C43.495,64.069 43.48,64.15 43.435,64.165C43.349,64.195 43.173,64.23 43.142,64.185C43.092,64.008 43.137,63.746 43.167,63.449C43.223,63.141 43.294,62.914 43.389,62.641C43.425,62.465 43.904,62.344 44.176,62.228C44.338,62.182 44.292,61.935 44.242,61.925C44.156,61.905 43.838,61.95 43.637,61.97C43.495,61.97 43.369,62.081 43.263,61.839C43.208,61.718 43.183,61.612 43.516,61.592L43.949,61.557C43.949,61.557 44.257,61.547 44.277,61.496C44.277,61.416 44.292,61.269 44.368,61.148C44.393,61.113 44.519,61.128 44.595,61.133C44.762,61.179 44.696,61.189 44.726,61.39C44.736,61.486 44.701,61.511 45.246,61.496C45.629,61.486 45.912,61.441 45.897,61.592C45.902,61.668 45.902,61.824 45.861,61.865C45.806,61.92 45.7,61.9 45.518,61.91C45.251,61.91 44.817,61.925 44.751,61.935C44.711,61.955 44.716,62.036 44.736,62.117C44.762,62.177 44.721,62.187 44.973,62.243C45.811,62.49 45.801,62.44 45.932,62.979C46.013,63.438 46.002,63.691 46.007,63.827C46.002,63.973 46.063,64.079 45.841,64.16Z" style="fill:rgb(149,0,64);fill-rule:nonzero;"/>
        </g>
        <g transform="matrix(3.49687,0,0,3.49687,-67.4155,-146.344)">
            <path d="M45.342,60.775L45.543,60.765C45.649,60.74 45.634,60.583 45.579,60.356C45.513,60.22 45.321,60.23 45.135,60.235C45.059,60.24 45.009,60.25 45.029,60.366C45.104,60.815 45.125,60.745 45.342,60.775Z" style="fill:rgb(149,0,64);fill-rule:nonzero;"/>
        </g>
        <g transform="matrix(3.49687,0,0,3.49687,-67.4155,-146.344)">
            <path d="M43.581,60.8L43.728,60.79C44.02,60.77 44.005,60.609 44.04,60.366C44.055,60.266 43.894,60.291 43.733,60.321C43.581,60.351 43.576,60.346 43.546,60.457C43.516,60.558 43.475,60.77 43.581,60.8Z" style="fill:rgb(149,0,64);fill-rule:nonzero;"/>
        </g>
    </g>
</svg>
