<?xml version="1.0" encoding="UTF-8" standalone="no"?>
<!DOCTYPE svg PUBLIC "-//W3C//DTD SVG 1.1//EN" "http://www.w3.org/Graphics/SVG/1.1/DTD/svg11.dtd">
<svg width="100%" height="100%" viewBox="0 0 154 157" version="1.1" xmlns="http://www.w3.org/2000/svg" xmlns:xlink="http://www.w3.org/1999/xlink" xml:space="preserve" xmlns:serif="http://www.serif.com/" style="fill-rule:evenodd;clip-rule:evenodd;">
    <g>
        <g transform="matrix(4.41374,0,0,4.41374,-92.1711,-205.428)">
            <path d="M38.328,53C44.568,53 49.657,58.089 49.657,64.328C49.657,70.568 44.568,75.656 38.328,75.656C32.089,75.656 27,70.568 27,64.328C27,58.089 32.089,53 38.328,53Z" style="fill:rgb(0,160,233);"/>
        </g>
        <g transform="matrix(4.41374,0,0,4.41374,-92.1711,-205.428)">
            <path d="M38.328,56.732C42.512,56.732 45.925,60.144 45.925,64.328C45.925,68.512 42.512,71.925 38.328,71.925C34.144,71.925 30.731,68.512 30.731,64.328C30.731,60.144 34.144,56.732 38.328,56.732Z" style="fill:white;"/>
        </g>
        <g transform="matrix(4.41374,0,0,4.41374,-92.1711,-205.428)">
            <path d="M28.371,65.164C28.373,65.216 28.46,65.227 28.563,65.262C28.625,65.283 28.688,65.339 28.756,65.346C29.206,65.429 29.327,65.256 29.495,64.909C29.594,64.901 29.694,64.893 29.794,64.885C29.926,64.811 30.01,64.701 30.087,64.586C30.059,64.36 30.075,64.156 30.133,63.976C30.102,63.914 30.071,63.852 30.039,63.79C29.975,63.796 29.865,63.795 29.807,63.77C29.756,63.993 29.756,64.096 29.738,64.215C29.822,64.491 29.738,64.647 29.566,64.626C29.591,64.458 29.59,64.348 29.425,64.081C29.281,64.1 29.144,64.082 29.021,63.981C28.896,63.841 28.771,63.702 28.646,63.562C28.424,63.664 28.256,63.83 28.083,64.002C27.735,63.927 27.505,64.059 27.409,64.308C27.652,64.281 27.866,64.251 27.991,64.358C28.125,64.599 28.3,64.785 28.516,64.916C28.705,64.824 28.903,64.761 29.07,64.966C28.835,65.128 28.441,65.099 28.371,65.164ZM28.31,64.184C28.352,64.261 28.432,64.299 28.55,64.297C28.634,64.3 28.717,64.303 28.801,64.307C28.838,64.248 28.845,64.183 28.822,64.114C28.746,64.041 28.67,63.969 28.593,63.897C28.544,63.808 28.423,63.843 28.331,63.996C28.307,64.059 28.333,64.12 28.31,64.184ZM28.945,64.522C28.971,64.508 28.997,64.494 29.023,64.48C29.024,64.448 29.025,64.415 29.027,64.382C28.984,64.384 28.984,64.347 28.941,64.348C28.956,64.393 28.93,64.477 28.945,64.522ZM29.14,64.494C29.162,64.475 29.185,64.455 29.207,64.436C29.207,64.382 29.207,64.328 29.208,64.274C29.185,64.293 29.163,64.313 29.141,64.332C29.141,64.386 29.14,64.44 29.14,64.494Z" style="fill:white;"/>
        </g>
        <g transform="matrix(4.41374,0,0,4.41374,-92.1711,-205.428)">
            <path d="M29.378,59.084C29.375,59.021 29.397,58.964 29.403,58.892C29.41,58.81 29.403,58.713 29.434,58.641C29.468,58.522 29.566,58.477 29.672,58.477C29.726,58.477 29.788,58.505 29.838,58.525C30.039,58.711 30.171,58.936 30.299,59.185C30.456,59.13 30.535,58.942 30.647,58.815C30.681,58.776 30.804,58.601 30.925,58.557C30.997,58.531 31.042,58.583 31.078,58.678C31.103,58.742 30.918,58.92 30.908,58.979C31.057,59.154 31.211,59.246 31.331,59.574C31.258,59.699 31.174,59.87 31.052,59.988C30.966,60.072 30.916,60.181 30.85,60.253C30.715,60.12 30.555,60.061 30.367,60.075C30.288,60.116 30.204,60.119 30.109,60.008C30.057,59.873 30.23,59.682 30.357,59.503C30.302,59.497 30.246,59.49 30.191,59.484C30.079,59.357 30.003,59.216 29.892,59.016C29.814,59.076 29.689,59.043 29.666,58.961C29.645,58.885 29.536,59.052 29.378,59.084ZM30.425,59.912C30.54,59.676 30.581,59.52 30.723,59.365C30.871,59.392 30.954,59.469 30.971,59.596C30.802,59.887 30.619,59.993 30.425,59.912Z" style="fill:white;"/>
        </g>
        <g transform="matrix(4.41374,0,0,4.41374,-92.1711,-205.428)">
            <path d="M47.26,58.92C47.057,59.043 46.849,59.086 46.661,59.176C46.492,59.257 46.331,59.281 46.173,59.255C46.13,59.144 46.096,59.053 46.107,58.926C46.092,58.819 45.879,58.764 45.719,58.807C45.705,58.828 45.822,58.9 45.794,59.034C45.761,59.193 45.821,59.341 45.908,59.435C45.724,59.475 45.551,59.42 45.379,59.352C45.078,59.313 45.092,59.456 45.801,59.999C46.066,60.01 46.287,59.963 46.538,59.881C46.764,60.138 47.095,60.5 47.203,60.532C47.295,60.444 47.204,60.276 47.208,60.136C47.133,60.066 47.058,60.026 46.966,59.979C46.863,59.926 46.74,59.885 46.728,59.782C46.957,59.656 47.188,59.669 47.341,59.496C47.433,59.393 47.504,59.264 47.548,59.118C47.491,58.986 47.37,59.093 47.26,58.92ZM45.947,60.101C46.137,60.394 46.29,60.682 46.148,60.981C46.037,61.151 45.957,61.036 45.871,60.977C45.802,60.841 45.71,60.695 45.778,60.604C45.883,60.463 45.835,60.257 45.947,60.101Z" style="fill:white;"/>
        </g>
        <g transform="matrix(4.41374,0,0,4.41374,-92.1711,-205.428)">
            <path d="M49.01,63.61C48.826,63.535 48.691,63.631 48.536,63.813C48.539,63.93 48.561,63.988 48.632,64.005C48.678,64.016 48.739,63.997 48.795,63.989C48.852,63.982 48.905,63.986 48.957,63.962C49.11,63.892 49.191,63.55 49.01,63.61ZM48.962,64.463C49.06,64.397 49.19,64.349 49.11,64.183C48.932,64.097 48.831,64.216 48.791,64.285C48.721,64.332 48.786,64.361 48.962,64.463ZM49.429,64.89C49.12,64.829 48.984,64.732 48.732,64.659C48.922,64.814 48.939,64.992 48.972,65.154C49.125,65.32 49.213,65.367 49.236,65.297C49.413,65.176 49.552,65.051 49.429,64.89ZM47.646,63.487C47.782,63.474 47.967,63.511 48.103,63.498C48.417,63.852 48.494,64.197 48.532,64.835C48.499,64.904 48.378,64.992 48.304,64.991C48.189,64.921 48.175,64.86 48.061,64.791C47.881,64.863 47.648,64.769 47.41,64.697C47.315,64.724 47.345,64.848 47.404,64.991C47.438,65.072 47.505,65.16 47.468,65.239C47.372,65.442 47.248,65.329 47.236,65.293C47.176,65.109 47.119,64.917 47.147,64.874C47.094,64.861 47.095,64.894 47.036,64.894C46.761,64.893 46.631,64.796 46.588,64.671C46.421,64.347 46.437,64.088 46.799,64.019C46.977,63.779 47.133,63.669 47.241,63.84C47.145,63.952 47.2,64.177 47.324,64.452C47.503,64.513 47.682,64.574 47.861,64.635C47.851,64.54 47.832,64.344 47.635,64.329C47.426,64.312 47.451,64.169 47.46,64.099C47.788,63.893 47.926,64.499 48.157,64.621C48.268,64.474 48.123,64.241 47.876,63.908C47.869,63.893 47.827,63.785 47.798,63.788C47.584,63.808 47.408,63.527 47.646,63.487ZM46.97,64.148C46.986,64.299 47.012,64.448 47.028,64.6C46.948,64.589 46.916,64.569 46.836,64.558C46.791,64.423 46.75,64.324 46.772,64.282C46.839,64.157 46.889,64.118 46.97,64.148Z" style="fill:white;"/>
        </g>
        <g transform="matrix(4.41374,0,0,4.41374,-92.1711,-205.428)">
            <path d="M33.974,54.326C33.822,54.532 33.816,54.866 33.876,55.258C33.862,55.3 33.548,55.56 33.503,55.794C33.478,55.923 33.504,56.064 33.563,56.003C33.654,55.921 33.744,55.84 33.835,55.758C33.891,55.99 33.832,56.227 33.75,56.48C33.792,56.698 33.897,56.685 33.959,56.633C34.084,56.497 34.209,56.361 34.334,56.226C34.372,56.33 34.409,56.434 34.447,56.538C34.396,56.645 34.329,56.601 34.266,56.588C34.269,56.766 34.513,56.845 34.63,56.752C34.625,56.526 34.492,56.285 34.382,56.01C34.427,55.78 34.553,55.445 34.585,55.204C34.594,55.131 34.523,55.132 34.537,55.061C34.502,55.107 34.446,55.138 34.453,55.2C34.47,55.366 34.277,55.796 34.213,55.644C34.181,55.55 34.176,55.445 34.143,55.351C34.118,55.277 34.065,55.214 34.039,55.141C33.987,54.956 34.03,54.782 34.099,54.612C34.161,54.348 34.188,54.14 33.974,54.326ZM34.828,53.982C34.887,54.159 34.93,54.407 34.966,54.593C34.844,54.656 34.722,54.655 34.6,54.718C34.59,54.827 34.615,54.877 34.649,54.97C34.679,55.09 34.623,55.265 34.729,55.341C34.773,55.347 34.849,55.32 34.893,55.326C34.779,55.559 34.691,55.638 34.772,55.788C34.795,55.897 34.87,55.925 34.954,55.863C35.067,55.829 35.166,55.757 35.279,55.724C35.314,56.264 35.664,56.527 35.857,56.901C35.804,56.298 35.728,55.812 35.675,55.208C35.87,55.034 35.748,54.777 35.453,54.779C35.239,54.242 35.004,53.803 34.828,53.982ZM34.072,55.91C34.117,55.893 34.164,55.908 34.176,55.943C34.189,55.977 34.162,56.019 34.117,56.035C34.072,56.051 34.025,56.036 34.012,56.002C34,55.967 34.026,55.926 34.072,55.91ZM34.845,55.075C34.924,55.112 35.014,55.101 35.117,55.043C35.107,54.955 35.061,54.928 34.958,54.904C34.841,54.942 34.796,54.98 34.845,55.075ZM35.012,55.538C35.09,55.576 35.11,55.459 35.213,55.401C35.172,55.267 35.097,55.315 35.094,55.313C34.977,55.351 34.963,55.443 35.012,55.538Z" style="fill:white;"/>
        </g>
        <g transform="matrix(4.41374,0,0,4.41374,-92.1711,-205.428)">
            <path d="M41.627,54.516C41.515,54.644 41.411,54.787 41.315,54.945C41.277,55.107 41.134,55.036 40.976,54.932C40.942,55.059 41.004,55.154 41.142,55.276C41.066,55.461 40.985,55.671 40.9,55.768C40.872,55.8 40.843,55.82 40.814,55.822C40.651,55.882 40.558,55.888 40.419,55.869C40.451,56.161 40.391,56.228 40.581,56.283C40.636,56.222 40.764,56.204 40.818,56.142C40.817,56.226 40.889,56.279 40.888,56.362C40.973,56.355 41.05,56.385 41.115,56.257C41.133,56.118 41.151,55.979 41.169,55.84C41.373,55.773 41.6,55.587 41.808,55.322C41.87,55.398 41.938,55.514 42.064,55.571C41.987,55.607 41.913,55.667 41.836,55.703C41.75,55.689 41.716,55.68 41.63,55.666C41.618,55.765 41.55,55.836 41.538,55.934C41.675,56.078 41.812,56.222 41.948,56.366C41.774,56.38 41.587,56.37 41.498,56.273C41.429,56.197 41.435,56.057 41.447,55.912C41.334,55.968 41.224,56.24 41.192,56.407C41.47,56.562 41.796,56.631 42.13,56.602C42.247,56.671 42.164,56.872 42.282,56.941C42.506,57.072 43.025,56.993 43.25,57.124C43.222,57.09 43.236,57.059 43.193,57.033C43.049,56.946 42.859,56.862 42.715,56.735C42.557,56.595 42.492,56.505 42.408,56.398C42.656,56.175 42.867,55.773 42.735,55.624C42.684,55.566 42.541,55.643 42.386,55.639C42.43,55.537 42.504,55.416 42.699,55.475C42.802,55.506 42.899,55.391 42.999,55.349C43.052,55.233 43.102,55.094 43.1,54.983C42.877,55.095 42.746,55.163 42.589,55.152C42.724,54.913 42.725,54.691 42.593,54.485C42.413,54.734 42.294,54.969 42.284,55.126C42.073,55.304 41.955,55.14 41.773,55.221C41.664,55.269 41.552,55.368 41.356,55.474C41.261,55.337 41.319,55.257 41.559,55.128C41.782,55.008 41.851,54.561 41.627,54.516ZM42.08,55.992C42.171,55.937 42.289,55.891 42.433,55.853C42.45,56.007 42.302,56.051 42.212,56.225C42.068,56.122 42.007,56.056 42.08,55.992Z" style="fill:white;"/>
        </g>
        <g transform="matrix(4.41374,0,0,4.41374,-92.1711,-205.428)">
            <path d="M36.599,72.87L36.646,72.87L36.435,73.697L36.259,74.468C36.244,74.535 36.237,74.579 36.237,74.597C36.237,74.62 36.248,74.637 36.272,74.646C36.295,74.656 36.33,74.662 36.378,74.667C36.423,74.669 36.468,74.675 36.514,74.685L36.482,74.761C36.302,74.738 36.148,74.726 36.02,74.726C35.892,74.726 35.754,74.738 35.607,74.761L35.633,74.685C35.756,74.66 35.843,74.639 35.892,74.623C35.942,74.606 35.978,74.565 36.002,74.5C36.027,74.435 36.046,74.376 36.061,74.324L36.227,73.688C36.282,73.44 36.309,73.304 36.309,73.279C36.309,73.241 36.294,73.222 36.262,73.222C36.239,73.222 36.137,73.264 35.957,73.348L35.925,73.269C36.123,73.177 36.262,73.108 36.342,73.062C36.423,73.016 36.509,72.952 36.599,72.87ZM37.048,74.77L37.067,74.679C37.545,74.669 37.858,74.423 38.005,73.943C37.892,74.037 37.775,74.084 37.656,74.084C37.534,74.084 37.438,74.042 37.369,73.959C37.3,73.875 37.265,73.757 37.265,73.606C37.265,73.403 37.321,73.232 37.434,73.095C37.546,72.957 37.689,72.889 37.863,72.889C38.008,72.889 38.124,72.944 38.213,73.054C38.301,73.164 38.345,73.312 38.345,73.499C38.345,73.831 38.227,74.125 37.992,74.383C37.757,74.641 37.443,74.77 37.048,74.77ZM38.033,73.823C38.063,73.659 38.077,73.528 38.077,73.43C38.077,73.283 38.054,73.17 38.008,73.092C37.962,73.013 37.898,72.974 37.816,72.974C37.726,72.974 37.656,73.023 37.607,73.123C37.557,73.223 37.533,73.362 37.533,73.54C37.533,73.685 37.554,73.791 37.597,73.859C37.64,73.928 37.693,73.962 37.756,73.962C37.836,73.962 37.928,73.916 38.033,73.823ZM39.955,72.845L40.04,72.845L39.93,73.071C39.915,73.105 39.851,73.121 39.738,73.121C39.491,73.121 39.342,73.127 39.291,73.137C39.256,73.225 39.238,73.285 39.238,73.317C39.238,73.335 39.246,73.354 39.263,73.373C39.28,73.392 39.302,73.406 39.329,73.414C39.457,73.46 39.552,73.525 39.614,73.608C39.676,73.691 39.707,73.797 39.707,73.927C39.707,74.145 39.62,74.34 39.447,74.512C39.274,74.684 39.083,74.77 38.873,74.77C38.776,74.77 38.705,74.756 38.659,74.728C38.612,74.7 38.59,74.664 38.59,74.623C38.59,74.6 38.599,74.579 38.618,74.56C38.637,74.541 38.657,74.531 38.678,74.531C38.701,74.531 38.732,74.546 38.772,74.575C38.829,74.619 38.896,74.641 38.973,74.641C39.108,74.641 39.232,74.582 39.346,74.462C39.461,74.342 39.518,74.21 39.518,74.066C39.518,73.969 39.49,73.882 39.434,73.806C39.379,73.729 39.3,73.668 39.197,73.622C39.157,73.605 39.129,73.588 39.113,73.572C39.098,73.555 39.09,73.532 39.09,73.502C39.09,73.471 39.107,73.403 39.14,73.298L39.244,72.974C39.29,72.944 39.343,72.929 39.401,72.929L39.732,72.929C39.795,72.929 39.841,72.924 39.872,72.912C39.902,72.901 39.93,72.878 39.955,72.845ZM41.578,72.885L41.56,72.977C41.071,72.993 40.758,73.24 40.622,73.716C40.735,73.622 40.852,73.575 40.971,73.575C41.097,73.575 41.194,73.619 41.261,73.707C41.328,73.795 41.361,73.91 41.361,74.053C41.361,74.261 41.305,74.432 41.191,74.567C41.078,74.703 40.936,74.77 40.763,74.77C40.617,74.77 40.499,74.716 40.411,74.607C40.323,74.498 40.279,74.344 40.279,74.144C40.279,73.943 40.332,73.742 40.439,73.543C40.546,73.344 40.698,73.184 40.894,73.065C41.09,72.945 41.318,72.885 41.578,72.885ZM40.59,73.836C40.563,73.991 40.549,74.125 40.549,74.239C40.549,74.388 40.573,74.499 40.62,74.574C40.667,74.648 40.73,74.685 40.807,74.685C40.9,74.685 40.97,74.635 41.018,74.533C41.067,74.431 41.091,74.298 41.091,74.135C41.091,73.992 41.071,73.884 41.033,73.809C40.994,73.735 40.94,73.697 40.87,73.697C40.789,73.697 40.695,73.744 40.59,73.836Z" style="fill:white;"/>
        </g>
        <g transform="matrix(4.41374,0,0,4.41374,-92.1711,-205.428)">
            <path d="M36.599,72.87L36.646,72.87L36.435,73.697L36.259,74.468C36.244,74.535 36.237,74.579 36.237,74.597C36.237,74.62 36.248,74.637 36.272,74.646C36.295,74.656 36.33,74.662 36.378,74.667C36.423,74.669 36.468,74.675 36.514,74.685L36.482,74.761C36.302,74.738 36.148,74.726 36.02,74.726C35.892,74.726 35.754,74.738 35.607,74.761L35.633,74.685C35.756,74.66 35.843,74.639 35.892,74.623C35.942,74.606 35.978,74.565 36.002,74.5C36.027,74.435 36.046,74.376 36.061,74.324L36.227,73.688C36.282,73.44 36.309,73.304 36.309,73.279C36.309,73.241 36.294,73.222 36.262,73.222C36.239,73.222 36.137,73.264 35.957,73.348L35.925,73.269C36.123,73.177 36.262,73.108 36.342,73.062C36.423,73.016 36.509,72.952 36.599,72.87ZM37.048,74.77L37.067,74.679C37.545,74.669 37.858,74.423 38.005,73.943C37.892,74.037 37.775,74.084 37.656,74.084C37.534,74.084 37.438,74.042 37.369,73.959C37.3,73.875 37.265,73.757 37.265,73.606C37.265,73.403 37.321,73.232 37.434,73.095C37.546,72.957 37.689,72.889 37.863,72.889C38.008,72.889 38.124,72.944 38.213,73.054C38.301,73.164 38.345,73.312 38.345,73.499C38.345,73.831 38.227,74.125 37.992,74.383C37.757,74.641 37.443,74.77 37.048,74.77ZM38.033,73.823C38.063,73.659 38.077,73.528 38.077,73.43C38.077,73.283 38.054,73.17 38.008,73.092C37.962,73.013 37.898,72.974 37.816,72.974C37.726,72.974 37.656,73.023 37.607,73.123C37.557,73.223 37.533,73.362 37.533,73.54C37.533,73.685 37.554,73.791 37.597,73.859C37.64,73.928 37.693,73.962 37.756,73.962C37.836,73.962 37.928,73.916 38.033,73.823ZM39.955,72.845L40.04,72.845L39.93,73.071C39.915,73.105 39.851,73.121 39.738,73.121C39.491,73.121 39.342,73.127 39.291,73.137C39.256,73.225 39.238,73.285 39.238,73.317C39.238,73.335 39.246,73.354 39.263,73.373C39.28,73.392 39.302,73.406 39.329,73.414C39.457,73.46 39.552,73.525 39.614,73.608C39.676,73.691 39.707,73.797 39.707,73.927C39.707,74.145 39.62,74.34 39.447,74.512C39.274,74.684 39.083,74.77 38.873,74.77C38.776,74.77 38.705,74.756 38.659,74.728C38.612,74.7 38.59,74.664 38.59,74.623C38.59,74.6 38.599,74.579 38.618,74.56C38.637,74.541 38.657,74.531 38.678,74.531C38.701,74.531 38.732,74.546 38.772,74.575C38.829,74.619 38.896,74.641 38.973,74.641C39.108,74.641 39.232,74.582 39.346,74.462C39.461,74.342 39.518,74.21 39.518,74.066C39.518,73.969 39.49,73.882 39.434,73.806C39.379,73.729 39.3,73.668 39.197,73.622C39.157,73.605 39.129,73.588 39.113,73.572C39.098,73.555 39.09,73.532 39.09,73.502C39.09,73.471 39.107,73.403 39.14,73.298L39.244,72.974C39.29,72.944 39.343,72.929 39.401,72.929L39.732,72.929C39.795,72.929 39.841,72.924 39.872,72.912C39.902,72.901 39.93,72.878 39.955,72.845ZM41.578,72.885L41.56,72.977C41.071,72.993 40.758,73.24 40.622,73.716C40.735,73.622 40.852,73.575 40.971,73.575C41.097,73.575 41.194,73.619 41.261,73.707C41.328,73.795 41.361,73.91 41.361,74.053C41.361,74.261 41.305,74.432 41.191,74.567C41.078,74.703 40.936,74.77 40.763,74.77C40.617,74.77 40.499,74.716 40.411,74.607C40.323,74.498 40.279,74.344 40.279,74.144C40.279,73.943 40.332,73.742 40.439,73.543C40.546,73.344 40.698,73.184 40.894,73.065C41.09,72.945 41.318,72.885 41.578,72.885ZM40.59,73.836C40.563,73.991 40.549,74.125 40.549,74.239C40.549,74.388 40.573,74.499 40.62,74.574C40.667,74.648 40.73,74.685 40.807,74.685C40.9,74.685 40.97,74.635 41.018,74.533C41.067,74.431 41.091,74.298 41.091,74.135C41.091,73.992 41.071,73.884 41.033,73.809C40.994,73.735 40.94,73.697 40.87,73.697C40.789,73.697 40.695,73.744 40.59,73.836Z" style="fill:none;stroke:white;stroke-width:0.22px;"/>
        </g>
        <g transform="matrix(4.41374,0,0,4.41374,-92.1711,-205.428)">
            <path d="M34.775,62.382C34.767,62.39 34.763,62.361 34.758,62.351C34.408,61.705 34.071,60.964 34.068,60.08C34.411,57.333 39.31,61.054 40.187,61.78C40.351,61.767 40.514,61.755 40.678,61.742C39.833,60.7 38.415,59.635 37.052,59.15C34.719,58.32 32.585,59.099 34.521,62.724C34.351,64.367 35.081,64.972 36.221,65.104C36.995,65.828 38.354,67.227 39.885,67.84C42.166,68.753 44.467,68.329 42.869,64.613L42.34,64.613C45.22,70.024 38.245,67.116 36.787,64.726C38.422,63.71 37.008,61.009 35.088,62.12C34.97,62.193 34.866,62.281 34.775,62.382Z" style="fill:rgb(240,131,0);"/>
        </g>
        <g transform="matrix(4.41374,0,0,4.41374,-92.1711,-205.428)">
            <path d="M36.939,63.592C36.939,63.462 36.934,63.336 36.924,63.215C36.914,63.094 36.878,62.978 36.818,62.867C36.667,62.566 36.39,62.414 35.987,62.414C35.403,62.444 35.096,62.787 35.066,63.442C35.055,64.116 35.363,64.448 35.987,64.439C36.531,64.439 36.828,64.237 36.878,63.834L36.35,63.834C36.299,64.006 36.178,64.086 35.987,64.076C35.755,64.086 35.645,63.925 35.655,63.592L36.939,63.592ZM35.655,63.2C35.665,62.928 35.775,62.792 35.987,62.792C36.219,62.792 36.335,62.928 36.335,63.2L35.655,63.2Z" style="fill:white;"/>
        </g>
        <g transform="matrix(4.41374,0,0,4.41374,-92.1711,-205.428)">
            <path d="M40.351,64.558C40.711,64.536 40.819,64.668 41.18,64.646C40.23,65.748 37.854,68.082 35.866,68.17C34.479,68.231 33.024,67.36 34.323,64.501C34.503,64.659 34.528,64.719 34.708,64.877C33.772,66.432 34.115,67.392 34.786,67.764C36.045,68.463 39.12,66.321 40.351,64.558Z" style="fill:rgb(0,104,183);"/>
        </g>
        <g transform="matrix(4.41374,0,0,4.41374,-92.1711,-205.428)">
            <path d="M37.106,61.779C36.794,61.798 36.7,61.684 36.389,61.704C36.951,61.099 38.067,60.077 39.311,59.373C39.856,59.065 40.427,58.761 40.986,58.719C42.217,58.624 43.96,59.387 42.826,61.829C42.67,61.692 42.585,61.766 42.429,61.63C43.3,60 42.62,59.012 41.919,59.006C40.46,58.993 38.128,60.222 37.106,61.779Z" style="fill:rgb(0,104,183);"/>
        </g>
        <g transform="matrix(4.41374,0,0,4.41374,-92.1711,-205.428)">
            <path d="M33.444,62.59L33.444,63.631C33.451,63.858 33.423,64.012 33.362,64.094C33.3,64.191 33.19,64.239 33.032,64.239C32.874,64.239 32.761,64.191 32.692,64.094C32.63,64.012 32.603,63.858 32.609,63.631L32.609,62.59L32.197,62.59L32.197,63.785C32.211,64.259 32.489,64.503 33.032,64.517C33.561,64.503 33.835,64.259 33.856,63.785L33.856,62.59L33.444,62.59Z" style="fill:rgb(0,104,183);"/>
        </g>
        <g transform="matrix(4.41374,0,0,4.41374,-92.1711,-205.428)">
            <path d="M39.879,63.061C39.857,62.653 39.619,62.438 39.166,62.416C38.608,62.446 38.318,62.676 38.295,63.106C38.295,63.385 38.525,63.578 38.985,63.683C39,63.691 39.027,63.698 39.064,63.706C39.329,63.759 39.46,63.857 39.46,64C39.453,64.174 39.314,64.264 39.042,64.271C38.808,64.257 38.691,64.128 38.691,63.887L38.238,63.887C38.231,64.347 38.499,64.577 39.042,64.577C39.63,64.562 39.928,64.336 39.936,63.898C39.943,63.612 39.702,63.419 39.212,63.321C39.181,63.314 39.162,63.31 39.155,63.31C38.883,63.272 38.755,63.174 38.77,63.015C38.778,62.85 38.891,62.759 39.11,62.744C39.329,62.744 39.441,62.85 39.449,63.061L39.879,63.061Z" style="fill:rgb(0,104,183);"/>
        </g>
        <g transform="matrix(4.41374,0,0,4.41374,-92.1711,-205.428)">
            <path d="M40.362,62.812L40.985,62.812L40.985,64.554L41.437,64.554L41.437,62.812L42.06,62.812L42.06,62.461L40.362,62.461L40.362,62.812Z" style="fill:rgb(0,104,183);"/>
        </g>
        <g transform="matrix(4.41374,0,0,4.41374,-92.1711,-205.428)">
            <path d="M44.334,62.984C44.303,62.542 44.009,62.318 43.451,62.31C42.893,62.331 42.603,62.672 42.58,63.332C42.595,63.978 42.886,64.308 43.451,64.322C44.017,64.315 44.311,64.098 44.334,63.669L43.858,63.669C43.851,63.908 43.716,64.031 43.451,64.038C43.202,64.024 43.07,63.789 43.055,63.332C43.07,62.868 43.202,62.63 43.451,62.616C43.708,62.623 43.843,62.746 43.858,62.984L44.334,62.984Z" style="fill:rgb(0,104,183);"/>
        </g>
    </g>
</svg>
