<?xml version="1.0" encoding="UTF-8" standalone="no"?>
<!DOCTYPE svg PUBLIC "-//W3C//DTD SVG 1.1//EN" "http://www.w3.org/Graphics/SVG/1.1/DTD/svg11.dtd">
<svg width="100%" height="100%" viewBox="0 0 157 157" version="1.1" xmlns="http://www.w3.org/2000/svg" xmlns:xlink="http://www.w3.org/1999/xlink" xml:space="preserve" xmlns:serif="http://www.serif.com/" style="fill-rule:evenodd;clip-rule:evenodd;stroke-linejoin:round;stroke-miterlimit:2;">
    <g id="Layer1000">
    </g>
    <g id="Layer1001" transform="matrix(1,0,0,1,-219.138,-342.445)">
        <g id="path17" transform="matrix(0.709484,0,0,0.709484,199.1,164.036)">
            <path d="M146.922,323.284L148.284,318.711L153.785,320.306L152.434,324.841C153.862,325.359 155.25,325.957 156.597,326.63L159.032,322.47L163.997,325.301L161.512,329.544C162.819,330.452 164.069,331.436 165.256,332.491L168.776,329.021L172.828,333.021L169.233,336.566C170.248,337.767 171.193,339.029 172.063,340.345L176.465,337.838L179.331,342.737L174.9,345.26C175.582,346.658 176.185,348.107 176.701,349.605L181.584,348.316L183.067,353.781L178.15,355.078C178.487,356.869 178.691,358.657 178.772,360.433L183.702,360.553L183.563,366.207L178.608,366.089C178.574,366.413 178.537,366.737 178.495,367.059C178.341,368.299 178.124,369.536 177.846,370.765L182.542,372.128L180.923,377.556L176.191,376.182C175.624,377.644 174.961,379.084 174.202,380.496L178.38,383.012L175.393,387.841L171.156,385.29C170.202,386.576 169.178,387.789 168.094,388.928L171.508,392.463L167.357,396.367L163.936,392.822C163.212,393.411 162.467,393.976 161.702,394.513L164.3,398.952L159.335,401.781L156.804,397.457C155.395,398.171 153.937,398.803 152.438,399.347L153.743,404.153L148.205,405.617L146.926,400.905C145.375,401.223 143.791,401.448 142.181,401.577L142.181,406.484L136.448,406.484L136.448,401.623C134.835,401.52 133.248,401.32 131.693,401.028L130.402,405.78L124.864,404.316L126.155,399.566C124.431,398.972 122.76,398.263 121.152,397.447L118.459,401.803L113.564,398.857L116.256,394.504C115.73,394.148 115.214,393.78 114.708,393.4C113.957,392.841 113.224,392.253 112.511,391.639L108.776,395.151L104.82,391.056L108.48,387.615C107.458,386.433 106.5,385.18 105.612,383.858L101.163,386.254L98.417,381.288L102.799,378.929C102.111,377.491 101.521,376.028 101.025,374.549L96.185,375.706C96.122,375.51 96.061,375.314 96.001,375.117L94.847,370.419C94.834,370.351 94.821,370.283 94.808,370.215L99.624,369.064C99.597,368.909 99.57,368.754 99.544,368.599C99.356,367.521 99.213,366.429 99.117,365.324L94.186,365.324C94.109,364.257 94.068,363.181 94.068,362.095C94.068,361.281 94.092,360.471 94.135,359.667L99.043,359.668C99.137,358.1 99.325,356.558 99.602,355.046L94.844,353.788C95.196,351.916 95.666,350.085 96.244,348.302L101.027,349.566C101.523,348.104 102.111,346.66 102.793,345.241L98.454,342.769C99.275,341.056 100.202,339.402 101.226,337.817L105.62,340.32C106.503,339.01 107.456,337.77 108.47,336.6L104.817,332.996C105.018,332.76 105.221,332.527 105.427,332.296L108.821,328.947L112.504,332.58C113.45,331.763 114.426,330.998 115.429,330.286C115.87,329.958 116.318,329.639 116.773,329.329L114.23,324.73L119.263,322.021L121.718,326.46C123.135,325.77 124.599,325.162 126.104,324.642L124.91,319.782L130.483,318.45L131.642,323.171C133.201,322.877 134.792,322.676 136.408,322.57L136.526,317.726L142.258,317.863L142.142,322.61C143.764,322.738 145.359,322.965 146.922,323.284ZM114.413,387.684L163.562,387.684C170.295,381.215 174.496,372.13 174.496,362.095C174.496,342.538 158.545,326.587 138.988,326.587C119.431,326.587 103.479,342.538 103.479,362.095C103.479,372.13 107.681,381.215 114.413,387.684ZM160.866,390.029L117.109,390.029C123.146,394.77 130.746,397.603 138.988,397.603C147.229,397.603 154.829,394.77 160.866,390.029Z" style="fill:rgb(192,4,21);"/>
        </g>
        <g id="Layer1002" transform="matrix(0.709484,0,0,0.709484,199.1,164.036)">
            <rect id="path19" x="126.172" y="376.059" width="27.057" height="2.197" style="fill:rgb(192,4,21);"/>
            <path id="path21" d="M121.72,378.95L157.681,378.95L157.681,386.697L121.72,386.697L121.72,378.95ZM132.123,380.108L130.864,380.108C130.697,380.968 130.12,381.397 129.135,381.397L129.135,382.56L130.455,382.56L130.455,385.861L132.122,385.861L132.123,380.108ZM137.119,384.761C136.512,384.845 136.187,384.625 136.146,384.1C136.146,383.619 136.407,383.377 136.932,383.377C137.413,383.399 137.665,383.64 137.685,384.1C137.685,384.498 137.498,384.718 137.119,384.761ZM136.899,382.466C136.438,382.445 136.198,382.246 136.176,381.868C136.198,381.471 136.449,381.261 136.932,381.24C137.372,381.261 137.602,381.471 137.622,381.868C137.602,382.246 137.361,382.445 136.899,382.466ZM135.39,382.906C134.741,383.157 134.426,383.577 134.448,384.163C134.489,385.295 135.318,385.883 136.932,385.924C138.482,385.883 139.288,385.295 139.351,384.163C139.351,383.555 139.038,383.116 138.408,382.843C138.911,382.654 139.164,382.266 139.164,381.68C139.079,380.694 138.345,380.171 136.962,380.108C135.475,380.171 134.7,380.705 134.637,381.711C134.615,382.256 134.867,382.654 135.39,382.906ZM142.684,382.843C142.244,382.822 142.013,382.571 141.992,382.088C142.013,381.585 142.254,381.324 142.715,381.303C143.176,381.345 143.428,381.585 143.47,382.026C143.47,382.529 143.208,382.802 142.684,382.843ZM140.452,384.478C140.639,385.441 141.405,385.924 142.747,385.924C144.339,385.883 145.166,384.929 145.229,383.063C145.229,381.093 144.35,380.108 142.59,380.108C141.101,380.15 140.336,380.821 140.295,382.12C140.399,383.273 141.038,383.88 142.212,383.943C142.715,383.965 143.165,383.828 143.564,383.535C143.564,384.394 143.27,384.824 142.684,384.824C142.327,384.824 142.096,384.677 141.992,384.383L140.452,384.478ZM148.751,383.252C149.211,383.273 149.452,383.525 149.474,384.006C149.452,384.509 149.2,384.771 148.719,384.792C148.257,384.751 148.007,384.498 147.965,384.038C147.985,383.514 148.248,383.252 148.751,383.252ZM150.983,381.617C150.794,380.611 150.029,380.108 148.688,380.108C147.094,380.171 146.267,381.145 146.204,383.032C146.204,384.96 147.094,385.924 148.876,385.924C150.343,385.883 151.098,385.232 151.14,383.975C151.035,382.822 150.395,382.214 149.222,382.151C148.719,382.131 148.279,382.266 147.902,382.56C147.88,381.701 148.163,381.261 148.751,381.24C149.106,381.24 149.337,381.397 149.442,381.711L150.983,381.617Z" style="fill:rgb(192,4,21);"/>
            <path id="path23" d="M139.429,352.105L139.429,334.599C139.429,334.255 139.671,333.974 139.967,333.974L142.255,333.974C142.551,333.974 142.794,334.255 142.794,334.599L142.794,352.105L139.429,352.105Z" style="fill:rgb(192,4,21);"/>
            <path id="path25" d="M143.756,352.105L143.756,335.943C143.756,335.626 143.96,335.366 144.21,335.366L146.137,335.366C146.386,335.366 146.59,335.626 146.59,335.943L146.59,339.335L148.05,338.433C148.267,338.298 148.594,338.403 148.775,338.664L155.14,347.843L157.686,351.515L158.017,351.991L157.621,352.235L155.938,353.276L155.542,353.52L155.22,353.056C155.218,353.052 155.214,353.048 155.212,353.044L152.665,349.373L146.59,340.611L146.59,352.105L143.756,352.105Z" style="fill:rgb(192,4,21);"/>
            <path id="path27" d="M125.624,344.727L138.036,344.727C138.28,344.727 138.48,344.507 138.48,344.237L138.48,342.155C138.48,341.885 138.28,341.664 138.036,341.664L125.624,341.664L125.624,344.727ZM136.717,342.136L136.972,342.136L136.972,344.335L136.717,344.335L136.717,342.136Z" style="fill:rgb(192,4,21);"/>
            <path id="path29" d="M125.624,348.324L138.036,348.324C138.28,348.324 138.48,348.095 138.48,347.814L138.48,345.65C138.48,345.369 138.28,345.14 138.036,345.14L125.624,345.14L125.624,348.324ZM136.717,345.63L136.972,345.63L136.972,347.916L136.717,347.916L136.717,345.63Z" style="fill:rgb(192,4,21);"/>
            <path id="path31" d="M125.624,352.157L138.036,352.157C138.28,352.157 138.48,351.923 138.48,351.638L138.48,349.433C138.48,349.147 138.28,348.914 138.036,348.914L125.624,348.914L125.624,352.157ZM136.717,349.413L136.972,349.413L136.972,351.741L136.717,351.741L136.717,349.413Z" style="fill:rgb(192,4,21);"/>
            <path id="path33" d="M136.625,337.122C137.691,337.122 138.56,337.934 138.56,338.93C138.56,339.863 137.795,340.635 136.821,340.728L136.821,340.751L128.832,340.751L128.832,340.311L135.381,340.311C135.274,340.226 135.177,340.132 135.091,340.028C127.705,339.658 123.94,341.469 122.544,341.873C122.594,341.566 123.1,339.723 123.513,338.824C129.102,337.756 130.324,338.029 134.781,338.382C135.03,337.653 135.763,337.122 136.625,337.122ZM136.779,338.178C137.064,338.178 137.297,338.515 137.297,338.827C137.297,339.909 136.309,340.329 135.805,340.198C136.343,339.931 136.435,339.813 136.69,339.298C135.591,339.43 135.745,338.099 136.779,338.178Z" style="fill:rgb(192,4,21);"/>
            <path id="path35" d="M163.326,352.349L163.967,352.349C164.532,352.349 164.994,352.662 164.994,353.045L164.994,356.349C164.994,356.675 164.66,356.949 164.212,357.024L164.212,359.653L164.816,359.653C165.296,359.653 165.69,359.989 165.69,360.4L165.69,364.038C165.69,364.448 165.296,364.784 164.816,364.784L164.212,364.784L164.212,367.497L164.816,367.497C165.296,367.497 165.69,367.833 165.69,368.243L165.69,371.881C165.69,372.292 165.296,372.628 164.816,372.628L162.739,372.628C162.257,372.628 161.864,372.292 161.864,371.881L161.864,368.243C161.864,367.833 162.257,367.497 162.739,367.497L163.342,367.497L163.342,364.784L162.739,364.784C162.257,364.784 161.864,364.448 161.864,364.038L161.864,360.4C161.864,359.989 162.257,359.653 162.739,359.653L163.429,359.653L163.429,357.045L163.326,357.045C162.761,357.045 162.299,356.732 162.299,356.349L162.299,353.045C162.299,352.662 162.761,352.349 163.326,352.349ZM163.258,368.106L164.296,368.106C164.537,368.106 164.734,368.362 164.734,368.675L164.734,371.45C164.734,371.763 164.537,372.019 164.296,372.019L163.258,372.019C163.017,372.019 162.821,371.763 162.821,371.45L162.821,368.675C162.821,368.362 163.017,368.106 163.258,368.106ZM163.258,360.262L164.296,360.262C164.537,360.262 164.734,360.518 164.734,360.831L164.734,363.606C164.734,363.919 164.537,364.175 164.296,364.175L163.258,364.175C163.017,364.175 162.821,363.919 162.821,363.606L162.821,360.831C162.821,360.518 163.017,360.262 163.258,360.262Z" style="fill:rgb(192,4,21);"/>
            <path id="path37" d="M126.823,354.666L127.098,354.764C127.388,354.868 127.513,355.268 127.375,355.655L117.831,382.392L120.588,383.62C121.029,383.817 121.229,384.338 121.033,384.779L119.961,387.182C119.765,387.624 119.244,387.823 118.803,387.627L111.832,384.52C111.391,384.323 111.191,383.803 111.387,383.361L112.459,380.958C112.655,380.517 113.176,380.317 113.617,380.514L116.536,381.815L126.044,355.18C126.182,354.793 126.532,354.562 126.823,354.666Z" style="fill:rgb(192,4,21);"/>
            <path id="path39" d="M152.386,353.305C152.357,355.827 152.328,358.784 152.299,361.306C159.98,359.537 162.618,357.508 166.908,353.305L152.386,353.305Z" style="fill:rgb(192,4,21);"/>
            <path id="path41" d="M118.346,352.766L151.338,352.766C151.436,358.197 151.024,360.546 151.198,361.841C143.672,362.782 147.364,373.114 151.839,374.837L127.601,374.837C131.969,374.105 134.254,364.691 128.471,362.674C127.837,362.237 127.102,361.871 126.298,361.558L127.886,354.771C127.489,353.957 126.843,353.546 125.948,354.171C124.895,356.16 124.099,358.473 123.265,360.652C121.723,360.292 120.087,360.018 118.5,359.745L118.346,352.766Z" style="fill:rgb(192,4,21);"/>
        </g>
    </g>
    <g id="path45" transform="matrix(0.709484,0,0,0.709484,-20.0381,-178.409)">
        <path d="M138.887,297.215L138.887,297.215L138.887,297.218C156.805,297.218 173.028,304.482 184.77,316.224C196.512,327.966 203.776,344.188 203.776,362.106L203.779,362.106L203.779,362.106L203.776,362.106C203.776,380.024 196.512,396.247 184.77,407.989C173.028,419.731 156.805,426.995 138.887,426.995L138.887,426.998L138.887,426.998L138.887,426.995C120.969,426.995 104.746,419.731 93.004,407.989C81.262,396.247 73.999,380.024 73.998,362.107L73.996,362.107L73.996,362.106L73.998,362.106C73.999,344.188 81.262,327.965 93.004,316.223C104.746,304.481 120.969,297.218 138.887,297.218L138.887,297.215L138.887,297.215ZM138.887,298.683L138.887,298.686L138.887,298.686L138.887,298.683C121.378,298.683 105.523,305.784 94.044,317.263C82.565,328.743 75.463,344.598 75.463,362.106L75.466,362.106L75.466,362.107L75.463,362.107C75.463,379.615 82.565,395.47 94.044,406.949C105.523,418.429 121.379,425.53 138.887,425.53L138.887,425.527L138.887,425.527L138.887,425.53C156.395,425.53 172.251,418.429 183.73,406.949C195.209,395.47 202.311,379.615 202.311,362.106L202.308,362.106L202.308,362.106L202.311,362.106C202.311,344.598 195.209,328.743 183.73,317.263C172.251,305.784 156.395,298.683 138.887,298.683Z" style="fill:rgb(192,4,21);"/>
    </g>
    <g id="path47" transform="matrix(0.709484,0,0,0.709484,-20.0381,-178.409)">
        <path d="M138.887,291.633L138.887,291.633L138.887,291.639C158.348,291.639 175.966,299.526 188.717,312.277C201.467,325.027 209.355,342.645 209.355,362.106L209.361,362.106L209.361,362.107L209.355,362.107C209.355,381.568 201.467,399.186 188.717,411.936C175.966,424.687 158.348,432.574 138.887,432.574L138.887,432.58L138.887,432.58L138.887,432.574C119.426,432.574 101.808,424.687 89.057,411.936C76.307,399.186 68.419,381.568 68.419,362.107L68.413,362.107L68.413,362.106L68.419,362.106C68.419,342.645 76.307,325.027 89.057,312.277C101.808,299.526 119.426,291.639 138.887,291.639L138.887,291.633ZM138.887,294.568L138.887,294.574L138.887,294.574L138.887,294.568C120.245,294.568 103.362,302.131 91.137,314.356C78.912,326.581 71.349,343.465 71.349,362.106L71.355,362.106L71.355,362.107L71.349,362.107C71.349,380.748 78.912,397.631 91.137,409.856C103.362,422.082 120.245,429.644 138.887,429.644L138.887,429.638L138.887,429.638L138.887,429.644C157.529,429.644 174.412,422.082 186.637,409.857C198.862,397.631 206.425,380.748 206.425,362.106L206.419,362.106L206.419,362.106L206.425,362.106C206.425,343.465 198.862,326.581 186.637,314.356C174.412,302.131 157.529,294.568 138.887,294.568Z" style="fill:rgb(192,4,21);"/>
    </g>
    <g id="path49" transform="matrix(0.709484,0,0,0.709484,-20.0381,-178.409)">
        <path d="M90.31,378.494C90.394,378.615 90.44,378.744 90.446,378.88C90.44,379.013 90.393,379.107 90.308,379.166C90.2,379.242 90.022,379.264 89.774,379.23L86.496,378.905C86.357,378.897 86.26,378.856 86.206,378.779C86.14,378.684 86.14,378.612 86.207,378.565C86.255,378.532 86.33,378.519 86.434,378.525C86.452,378.512 87.479,378.385 89.517,378.145C89.847,378.092 90.112,378.209 90.31,378.494ZM191.33,367.036C191.158,366.977 191.024,366.995 190.925,367.09C190.826,367.185 190.762,367.379 190.731,367.67L190.718,367.795L190.454,367.768L190.711,365.325L190.975,365.353L190.955,365.54C190.933,365.748 190.964,365.943 191.049,366.12C191.135,366.299 191.273,366.459 191.464,366.607L194.727,368.914L197.275,369.182C197.391,369.194 197.485,369.15 197.554,369.052C197.623,368.954 197.667,368.823 197.685,368.655L197.744,368.091L198.008,368.118L197.666,371.377L197.402,371.349L197.461,370.785C197.483,370.576 197.468,370.426 197.419,370.337C197.369,370.248 197.286,370.196 197.17,370.184L194.886,369.944L190.8,371.666C190.645,371.736 190.516,371.828 190.414,371.944C190.313,372.06 190.253,372.221 190.231,372.43L190.218,372.556L189.953,372.528L190.243,369.772L190.507,369.8L190.468,370.177C190.441,370.425 190.469,370.577 190.553,370.629C190.637,370.678 190.77,370.673 190.955,370.606L194.375,369.261L194.389,369.127L191.33,367.036ZM196.642,376.751L195.739,379.9L195.484,379.827L195.64,379.282C195.698,379.08 195.71,378.93 195.677,378.834C195.643,378.738 195.57,378.672 195.456,378.639L189.515,376.936C189.289,376.871 189.156,376.855 189.116,376.885C189.077,376.919 189.016,377.078 188.935,377.359C188.773,377.925 188.731,378.338 188.809,378.601C188.886,378.863 189.19,379.244 189.721,379.746L189.575,380.098L188.118,379.09L189.767,373.337L191.519,373.317L191.474,373.631C190.788,373.783 190.34,373.929 190.133,374.065C189.925,374.201 189.74,374.554 189.578,375.119C189.462,375.522 189.413,375.749 189.428,375.798C189.446,375.845 189.581,375.906 189.837,375.979L195.734,377.67C195.848,377.703 195.948,377.675 196.033,377.591C196.118,377.506 196.184,377.386 196.231,377.223L196.387,376.678L196.642,376.751ZM186.029,384.883L185.781,384.788L187.587,380.084L187.835,380.179L187.316,381.531C187.255,381.69 187.235,381.826 187.252,381.945C187.269,382.063 187.332,382.145 187.442,382.187L193.336,384.45C193.445,384.492 193.547,384.473 193.639,384.396C193.731,384.319 193.807,384.205 193.868,384.047L194.387,382.694L194.635,382.789L192.829,387.494L192.582,387.398L193.101,386.046C193.176,385.85 193.201,385.702 193.176,385.603C193.151,385.504 193.084,385.432 192.975,385.391L187.08,383.128C186.971,383.086 186.873,383.094 186.789,383.151C186.705,383.208 186.623,383.335 186.548,383.531L186.029,384.883ZM187.182,390.151C186.324,390.972 185.676,391.5 185.241,391.741C184.805,391.979 184.343,391.963 183.854,391.692C183.468,391.478 183.228,391.044 183.135,390.393C183.041,389.742 183.23,388.992 183.698,388.149C183.901,387.782 184.14,387.456 184.413,387.178C184.687,386.896 184.865,386.681 184.946,386.536C185.007,386.425 185.043,386.313 185.056,386.2C185.067,386.087 185.042,385.965 184.982,385.834L186.686,386.493L186.611,386.81C185.887,386.842 185.332,386.977 184.945,387.22C184.559,387.462 184.213,387.857 183.907,388.409C183.52,389.107 183.391,389.659 183.519,390.065C183.647,390.471 183.865,390.761 184.175,390.933C184.457,391.089 184.749,391.094 185.049,390.95C185.348,390.802 185.961,390.291 186.886,389.412C187.631,388.673 188.273,388.199 188.808,387.991C189.344,387.785 189.83,387.802 190.268,388.045C190.731,388.302 191.015,388.76 191.122,389.419C191.229,390.077 191.036,390.849 190.547,391.73C190.344,392.097 190.112,392.411 189.848,392.673C189.584,392.935 189.402,393.16 189.3,393.343C189.239,393.454 189.204,393.579 189.195,393.715C189.185,393.854 189.177,394.019 189.174,394.208L187.038,393.601L187.144,393.227C187.93,393.328 188.572,393.216 189.071,392.89C189.57,392.568 189.983,392.112 190.308,391.524C190.655,390.899 190.786,390.36 190.702,389.905C190.617,389.449 190.33,389.087 189.841,388.816C189.584,388.673 189.236,388.708 188.798,388.923C188.359,389.135 187.821,389.546 187.182,390.151ZM182.092,396.856L182.946,395.763C183.333,395.267 183.551,394.773 183.602,394.277C183.652,393.785 183.456,393.365 183.015,393.021C182.622,392.714 182.199,392.622 181.746,392.749C181.292,392.875 180.821,393.251 180.33,393.879L179.903,394.426C179.799,394.559 179.74,394.684 179.721,394.802C179.703,394.921 179.739,395.018 179.831,395.089L182.092,396.856ZM183.604,392.124C184.069,392.487 184.286,392.949 184.256,393.513C184.227,394.077 184.054,394.607 183.738,395.107L187.476,395.63C187.62,395.636 187.743,395.61 187.843,395.555C187.942,395.499 188.031,395.422 188.107,395.325L188.34,395.026L188.55,395.189L187.464,396.579L183.12,395.971L182.301,397.019L184.805,398.976C184.899,399.049 185.002,399.061 185.112,399.014C185.223,398.967 185.331,398.878 185.433,398.747L185.667,398.448L185.876,398.612L184.091,400.897L183.881,400.733L184.115,400.435C184.244,400.269 184.311,400.134 184.316,400.033C184.321,399.931 184.278,399.843 184.186,399.771L179.211,395.884C179.119,395.812 179.022,395.791 178.925,395.821C178.828,395.85 178.713,395.948 178.584,396.114L178.351,396.412L178.141,396.249L180.352,393.419C180.946,392.659 181.522,392.161 182.076,391.929C182.632,391.698 183.141,391.762 183.604,392.124ZM173.37,401.642L173.176,401.461L177.426,396.903L179.001,397.416L178.851,397.706C178.299,397.651 177.813,397.686 177.394,397.813C176.976,397.938 176.607,398.171 176.292,398.509L175.089,399.798C174.974,399.922 174.904,400.041 174.875,400.157C174.847,400.274 174.875,400.374 174.96,400.453L176.962,402.32L178.208,400.983C178.494,400.677 178.647,400.404 178.67,400.165C178.691,399.927 178.594,399.708 178.379,399.507L178.185,399.326L178.443,399.049L180.348,400.826L180.09,401.103L179.961,400.982C179.724,400.761 179.476,400.659 179.22,400.677C178.96,400.696 178.688,400.858 178.402,401.164L177.156,402.501L179.578,404.759C179.663,404.839 179.765,404.86 179.879,404.823C179.993,404.786 180.107,404.709 180.222,404.585L181.338,403.388C181.769,402.926 182.043,402.45 182.16,401.957C182.278,401.464 182.229,400.944 182.014,400.398L182.293,400.229L183.08,401.91L178.697,406.61L178.503,406.428L178.761,406.151C178.904,405.998 178.983,405.869 178.997,405.769C179.011,405.668 178.976,405.576 178.89,405.496L174.273,401.19C174.187,401.111 174.091,401.084 173.988,401.109C173.883,401.136 173.755,401.229 173.601,401.394L173.37,401.642ZM171.79,402.632L171.623,402.426L173.386,400.998L173.553,401.205L173.357,401.364C173.227,401.468 173.131,401.602 173.072,401.764C173.015,401.924 173.027,402.122 173.11,402.358L175.299,409.164L175.004,409.402L168.998,405.688C168.836,405.556 168.682,405.481 168.535,405.467C168.389,405.452 168.234,405.512 168.071,405.644L167.826,405.842L167.659,405.636L169.764,403.931L169.931,404.137L169.735,404.296C169.572,404.428 169.493,404.548 169.501,404.656C169.507,404.765 169.573,404.864 169.698,404.951L174.219,407.792L174.319,407.71L172.718,402.676C172.653,402.464 172.556,402.344 172.426,402.316C172.296,402.288 172.133,402.355 171.939,402.512L171.79,402.632ZM163.059,408.537L162.927,408.307L167.29,405.788L167.423,406.018L166.169,406.742C166.022,406.826 165.921,406.92 165.859,407.023C165.798,407.126 165.795,407.229 165.854,407.33L169.011,412.798C169.07,412.9 169.16,412.949 169.28,412.948C169.4,412.946 169.532,412.905 169.678,412.82L170.933,412.096L171.066,412.326L166.702,414.845L166.569,414.615L167.823,413.891C168.005,413.786 168.118,413.686 168.161,413.594C168.204,413.502 168.197,413.403 168.138,413.302L164.981,407.834C164.923,407.733 164.842,407.678 164.74,407.669C164.639,407.66 164.496,407.708 164.314,407.813L163.059,408.537ZM163.317,414.509L163.434,414.462L161.5,409.673C161.456,409.565 161.383,409.499 161.284,409.476C161.184,409.453 161.036,409.48 160.842,409.559L160.376,409.747L160.276,409.501L162.611,408.558L162.711,408.804L162.245,408.992C162.088,409.056 161.974,409.134 161.899,409.227C161.824,409.321 161.807,409.423 161.851,409.531L164.448,415.958L164.096,416.1L164.129,416.087L157.197,411.793L157.08,411.841L159.312,417.367C159.356,417.475 159.439,417.537 159.558,417.552C159.677,417.567 159.813,417.545 159.97,417.481L160.436,417.292L160.535,417.539L158.201,418.482L158.101,418.236L158.567,418.047C158.762,417.969 158.887,417.886 158.943,417.8C158.998,417.715 159.005,417.617 158.961,417.508L156.596,411.654C156.552,411.546 156.474,411.482 156.365,411.463C156.256,411.444 156.09,411.479 155.868,411.568L155.472,411.728L155.373,411.482L157.222,410.735L163.317,414.509ZM154.472,419.287C155.079,419.113 155.552,418.825 155.895,418.421C156.237,418.015 156.348,417.601 156.226,417.177L154.814,412.254C154.782,412.142 154.717,412.069 154.62,412.035C154.524,412.002 154.374,412.014 154.172,412.072L153.808,412.176L153.735,411.921L155.918,411.295L155.991,411.55L155.627,411.655C155.467,411.701 155.343,411.767 155.258,411.852C155.174,411.937 155.147,412.037 155.179,412.15L156.59,417.073C156.753,417.64 156.609,418.163 156.157,418.643C155.706,419.125 155.135,419.465 154.45,419.662C153.722,419.871 153.046,419.912 152.42,419.785C151.793,419.657 151.392,419.282 151.214,418.661L149.79,413.695C149.758,413.582 149.692,413.509 149.596,413.476C149.5,413.443 149.349,413.455 149.148,413.512L148.845,413.599L148.772,413.344L151.436,412.58L151.509,412.835L151.207,412.922C151.044,412.969 150.923,413.035 150.838,413.12C150.754,413.205 150.726,413.305 150.759,413.417L152.182,418.382C152.345,418.949 152.625,419.282 153.025,419.381C153.425,419.479 153.908,419.449 154.472,419.287ZM140.225,414.214C139.596,414.235 139.029,414.557 138.527,415.179C138.024,415.8 137.793,416.728 137.836,417.965C137.865,418.787 138.091,419.56 138.517,420.282C138.94,421.004 139.613,421.348 140.537,421.316C140.999,421.3 141.365,421.221 141.632,421.08C141.901,420.936 142.05,420.733 142.083,420.466L142.031,418.966C142.025,418.789 141.958,418.659 141.829,418.575C141.7,418.491 141.508,418.455 141.258,418.463L140.879,418.477L140.87,418.211L144.018,418.101L144.027,418.367L143.712,418.378C143.503,418.385 143.335,418.434 143.212,418.527C143.089,418.62 143.031,418.741 143.036,418.888L143.114,421.094C143.029,421.067 142.953,421.049 142.891,421.036C142.829,421.023 142.753,421.018 142.67,421.021C142.587,421.024 142.501,421.034 142.418,421.052C142.336,421.07 142.254,421.109 142.17,421.17C141.925,421.326 141.665,421.438 141.394,421.506C141.124,421.574 140.822,421.615 140.486,421.627C139.226,421.671 138.289,421.313 137.674,420.554C137.058,419.796 136.735,418.946 136.702,418.004C136.664,416.914 136.978,415.969 137.644,415.165C138.307,414.361 139.166,413.941 140.214,413.905C140.466,413.896 140.761,413.929 141.099,414.006C141.438,414.083 141.649,414.12 141.735,414.117C141.861,414.113 141.984,414.086 142.109,414.037C142.234,413.989 142.336,413.919 142.419,413.828L142.99,415.796L142.615,415.898C142.343,415.289 142.011,414.85 141.625,414.585C141.237,414.318 140.77,414.194 140.225,414.213ZM135.311,419.914L135.436,419.931L136.155,414.817C136.171,414.701 136.141,414.607 136.067,414.538C135.992,414.469 135.85,414.418 135.642,414.389L135.145,414.319L135.182,414.056L137.675,414.407L137.638,414.67L137.141,414.6C136.973,414.576 136.836,414.587 136.724,414.63C136.612,414.674 136.546,414.754 136.53,414.869L135.566,421.734L135.19,421.681L135.225,421.686L131.369,414.502L131.244,414.484L130.414,420.386C130.398,420.502 130.439,420.597 130.534,420.669C130.63,420.742 130.759,420.79 130.927,420.814L131.424,420.884L131.387,421.147L128.894,420.796L128.931,420.533L129.428,420.603C129.636,420.632 129.786,420.623 129.877,420.577C129.968,420.531 130.023,420.449 130.039,420.333L130.918,414.081C130.934,413.965 130.898,413.871 130.813,413.8C130.728,413.729 130.568,413.676 130.331,413.643L129.908,413.583L129.945,413.32L131.919,413.598L135.311,419.914ZM129.412,417.101C129.141,418.277 128.6,419.126 127.79,419.649C126.98,420.171 126.085,420.32 125.103,420.094C124.16,419.876 123.433,419.345 122.916,418.501C122.4,417.656 122.274,416.661 122.539,415.514C122.797,414.396 123.322,413.566 124.115,413.024C124.907,412.482 125.817,412.329 126.841,412.565C127.904,412.811 128.658,413.369 129.101,414.243C129.548,415.115 129.65,416.069 129.412,417.101ZM123.704,415.783C123.419,417.016 123.427,417.961 123.727,418.62C124.028,419.279 124.505,419.683 125.162,419.835C125.856,419.995 126.47,419.857 127.004,419.421C127.535,418.985 127.949,418.122 128.247,416.832C128.485,415.8 128.505,414.927 128.302,414.217C128.099,413.505 127.588,413.055 126.771,412.866C126.075,412.705 125.456,412.864 124.912,413.344C124.372,413.822 123.969,414.635 123.704,415.783ZM119.027,418.256L115.989,417.029L116.089,416.783L116.614,416.995C116.809,417.074 116.957,417.101 117.056,417.078C117.155,417.055 117.228,416.989 117.273,416.879L119.588,411.149C119.676,410.931 119.706,410.8 119.68,410.757C119.65,410.715 119.499,410.638 119.227,410.528C118.682,410.307 118.275,410.222 118.006,410.272C117.737,410.322 117.326,410.584 116.772,411.059L116.437,410.877L117.591,409.534L123.14,411.776L122.978,413.52L122.67,413.442C122.59,412.744 122.492,412.284 122.378,412.063C122.264,411.842 121.933,411.621 121.388,411.401C120.999,411.244 120.779,411.171 120.729,411.181C120.68,411.194 120.605,411.322 120.505,411.568L118.207,417.256C118.163,417.367 118.179,417.469 118.255,417.562C118.33,417.656 118.443,417.734 118.6,417.797L119.126,418.01L119.027,418.256ZM115.512,412.772C114.945,413.839 114.203,414.519 113.285,414.814C112.367,415.109 111.464,415.021 110.574,414.548C109.72,414.094 109.156,413.393 108.875,412.444C108.595,411.494 108.731,410.5 109.283,409.461C109.822,408.448 110.544,407.782 111.45,407.464C112.356,407.145 113.274,407.233 114.202,407.726C115.165,408.238 115.749,408.973 115.951,409.932C116.157,410.89 116.009,411.838 115.512,412.772ZM110.339,410.022C109.745,411.14 109.508,412.055 109.627,412.769C109.747,413.483 110.104,413.997 110.699,414.314C111.328,414.648 111.957,414.673 112.585,414.39C113.211,414.107 113.834,413.38 114.456,412.211C114.953,411.276 115.198,410.438 115.186,409.7C115.174,408.96 114.797,408.392 114.057,407.999C113.426,407.663 112.787,407.656 112.138,407.979C111.492,408.301 110.892,408.982 110.339,410.022ZM107.688,404.684L107.649,404.661L104.42,406.841L106.551,408.389L107.688,404.684ZM106.417,408.62L104.188,407.001L102.709,407.998C102.487,408.163 102.362,408.335 102.334,408.515C102.306,408.695 102.413,408.873 102.65,409.045L102.802,409.155L102.646,409.37L100.761,408.001L100.917,407.786L101.069,407.896C101.206,407.996 101.348,408.052 101.491,408.066C101.636,408.08 101.779,408.03 101.916,407.911L107.868,403.888L108.767,404.269L106.602,411.318C106.569,411.51 106.579,411.674 106.638,411.808C106.697,411.941 106.794,412.056 106.931,412.155L107.083,412.266L106.927,412.481L104.735,410.888L104.891,410.673L105.096,410.822C105.3,410.97 105.456,411.021 105.569,410.975C105.679,410.929 105.761,410.798 105.815,410.581L106.417,408.62ZM101.27,398.329L101.455,398.138L105.079,401.638L104.895,401.829L103.853,400.823C103.731,400.705 103.613,400.634 103.497,400.603C103.382,400.572 103.281,400.599 103.2,400.682L98.814,405.224C98.733,405.308 98.71,405.409 98.745,405.524C98.78,405.639 98.856,405.754 98.977,405.872L100.019,406.878L99.835,407.069L96.21,403.569L96.395,403.377L97.437,404.384C97.587,404.529 97.715,404.61 97.815,404.626C97.916,404.642 98.008,404.608 98.089,404.524L102.475,399.982C102.556,399.898 102.587,399.805 102.568,399.705C102.548,399.605 102.463,399.481 102.312,399.335L101.27,398.329ZM98.533,395.936C98.626,395.866 98.671,395.778 98.667,395.676C98.664,395.575 98.599,395.438 98.473,395.271L97.564,394.065L97.776,393.905L100.883,398.028L100.671,398.188L99.762,396.982C99.66,396.847 99.555,396.757 99.445,396.709C99.335,396.66 99.232,396.671 99.139,396.741L94.133,400.514C93.615,400.903 93.033,400.976 92.385,400.727C91.738,400.478 91.149,400.003 90.618,399.299C90.238,398.794 90.019,398.357 89.958,397.982C89.896,397.608 89.96,397.349 90.148,397.207C90.289,397.1 90.438,397.079 90.598,397.144C90.758,397.208 90.886,397.307 90.988,397.442C91.114,397.609 91.175,397.775 91.169,397.938C91.162,398.102 91.1,398.226 90.982,398.314C90.934,398.351 90.887,398.373 90.84,398.382C90.791,398.392 90.719,398.381 90.623,398.35C90.602,398.47 90.625,398.61 90.689,398.77C90.757,398.932 90.865,399.113 91.017,399.315C91.345,399.75 91.71,400.027 92.112,400.145C92.514,400.263 92.985,400.117 93.525,399.71L98.533,395.936ZM89.234,391.696L89.297,391.805L93.77,389.223C93.871,389.165 93.926,389.083 93.935,388.982C93.944,388.88 93.896,388.737 93.791,388.556L93.54,388.121L93.77,387.988L95.029,390.169L94.799,390.301L94.548,389.866C94.463,389.719 94.37,389.618 94.267,389.557C94.164,389.495 94.06,389.493 93.959,389.552L87.956,393.018L87.767,392.689L87.784,392.72L91.071,385.258L91.008,385.148L85.847,388.128C85.746,388.187 85.696,388.278 85.698,388.398C85.699,388.518 85.74,388.649 85.825,388.796L86.076,389.231L85.846,389.364L84.587,387.183L84.817,387.05L85.069,387.485C85.173,387.667 85.273,387.78 85.366,387.823C85.458,387.866 85.556,387.859 85.657,387.8L91.125,384.643C91.226,384.585 91.279,384.499 91.282,384.388C91.286,384.277 91.229,384.118 91.109,383.911L90.895,383.541L91.126,383.408L92.123,385.135L89.234,391.696ZM89.544,380.861L89.524,380.82L85.629,380.89L86.572,383.349L89.544,380.861ZM86.334,383.469L85.347,380.897L83.563,380.929C83.287,380.945 83.089,381.022 82.967,381.158C82.846,381.293 82.839,381.501 82.944,381.774L83.011,381.95L82.763,382.045L81.928,379.87L82.176,379.774L82.243,379.95C82.304,380.108 82.392,380.233 82.505,380.322C82.619,380.413 82.766,380.449 82.946,380.423L90.128,380.291L90.675,381.101L85.02,385.833C84.887,385.976 84.807,386.119 84.784,386.264C84.761,386.408 84.779,386.556 84.84,386.714L84.907,386.89L84.659,386.985L83.689,384.456L83.936,384.361L84.027,384.597C84.118,384.832 84.221,384.96 84.341,384.983C84.458,385.004 84.598,384.939 84.762,384.787L86.334,383.469ZM87.732,372.511L87.992,372.455L89.039,377.384L88.78,377.439L88.478,376.023C88.443,375.857 88.386,375.732 88.307,375.641C88.228,375.551 88.13,375.517 88.016,375.541L81.84,376.854C81.726,376.878 81.65,376.949 81.615,377.064C81.58,377.179 81.578,377.316 81.613,377.482L81.914,378.899L81.655,378.954L80.607,374.025L80.867,373.97L81.168,375.387C81.212,375.592 81.272,375.73 81.346,375.799C81.421,375.869 81.516,375.892 81.63,375.868L87.806,374.555C87.921,374.531 87.998,374.471 88.038,374.377C88.078,374.283 88.077,374.133 88.033,373.927L87.732,372.511ZM83.797,368.776L80.693,371.264C80.53,371.406 80.421,371.555 80.363,371.71C80.305,371.864 80.284,372.023 80.302,372.192L80.322,372.379L80.057,372.406L79.774,369.712L80.038,369.685L80.065,369.936C80.087,370.144 80.139,370.277 80.218,370.333C80.298,370.387 80.39,370.366 80.5,370.271L82.919,368.314L80.651,367.059C80.496,366.988 80.364,366.927 80.254,366.873C80.145,366.82 80.076,366.795 80.046,366.798C79.93,366.81 79.855,366.872 79.821,366.981C79.788,367.09 79.78,367.228 79.798,367.394L79.811,367.52L79.547,367.547L79.3,365.204L79.565,365.176L79.591,365.427C79.613,365.635 79.676,365.818 79.781,365.977C79.887,366.134 80.003,366.248 80.128,366.319L83.31,367.998L86.349,365.538C86.433,365.489 86.498,365.406 86.545,365.296C86.592,365.186 86.608,365.046 86.591,364.88L86.564,364.629L86.828,364.601L87.11,367.285L86.846,367.313L86.827,367.126C86.8,366.874 86.742,366.732 86.649,366.698C86.556,366.662 86.427,366.697 86.261,366.804L84.192,368.462L86.472,369.665C86.69,369.772 86.848,369.798 86.947,369.745C87.045,369.691 87.08,369.539 87.054,369.285L87.014,368.911L87.278,368.883L87.539,371.366L87.275,371.394L87.236,371.017C87.227,370.934 87.186,370.833 87.115,370.714C87.043,370.594 86.942,370.48 86.813,370.367L83.797,368.776Z" style="fill:rgb(192,4,21);"/>
    </g>
    <g id="path51" transform="matrix(0.709484,0,0,0.709484,-20.0381,-178.409)">
        <path d="M125.631,315.377C119.847,309.323 111.132,310.648 109.527,322.204C109.171,323.878 107.775,324.082 107.591,321.81C107.883,315.931 112.34,313.227 113.35,311.638C113.406,311.089 113.223,310.742 112.656,310.717C111.905,310.781 108.259,313.464 106.975,314.033C105.342,315.264 104.881,313.764 105.878,312.842C106.91,311.888 112.414,310.496 111.903,308.773C111.815,308.022 111.709,307.434 111.432,306.762C111.182,306.153 111.906,305.832 112.42,306.192C112.723,306.393 113.088,306.889 113.328,307.409C113.792,308.419 115.463,308.102 116.342,307.797C117.413,307.426 118.382,306.806 119.402,306.311C122.275,304.921 123.161,307.048 121.305,307.766C119.495,308.269 117.676,308.74 115.875,309.274C114.56,309.664 115.133,310.627 116.388,310.467C121.044,309.871 125.134,311.857 126.663,313.586C127.62,314.771 126.339,315.768 125.631,315.377Z" style="fill:rgb(192,4,21);"/>
    </g>
    <g id="path53" transform="matrix(0.709484,0,0,0.709484,-20.0381,-178.409)">
        <path d="M163.822,311.627C163.624,310.893 164.017,310.847 164.493,310.9C165.277,311.273 166.06,311.646 166.843,312.019C168.685,311.417 168.788,309.189 166.955,308.494C164.724,306.934 161.514,305.023 160.017,305.696C157.802,308.078 159.67,308.674 161.136,309.445C161.928,309.931 161.595,310.071 160.921,310.106C157.975,309.224 158.564,309.996 156.38,311.907C155.123,312.817 154.164,312.436 153.821,311.755C153.538,311.195 153.645,311.045 154.121,310.811C155.084,310.337 155.783,309.827 155.429,309.165C155.605,308.148 155.866,307.196 156.716,306.703C157.61,306.221 158.576,305.802 158.328,304.33C157.496,302.943 155.405,302.416 156.045,303.962C156.411,304.955 155.48,305.911 155.121,305.388C152.44,304.518 149.976,303.794 150.072,304.801C149.439,305.831 151.636,306.134 153.667,306.479C154.157,306.662 154.205,307.328 153.655,307.314C152.344,307.278 151.033,307.242 149.722,307.207C148.864,307.268 148.65,308.545 150.002,308.606C151.215,308.606 152.535,308.735 153.709,308.486C154.268,308.367 154.122,309.644 153.352,309.634C149.426,309.583 149.98,309.909 149.778,310.172C149.354,311.053 149.255,311.957 148.8,312.789C147.463,315.231 148.922,315.823 151.401,315.879C156.572,316.923 160.945,318.482 162.543,321.907C162.755,322.36 162.83,322.552 163.283,322.829C164.613,323.64 165.191,322.217 164.196,321.184C163.431,320.39 163.633,320.427 164.158,319.404C165.36,317.282 167.298,315.219 165.556,312.858C164.978,312.448 164.4,312.037 163.822,311.627ZM156.97,314.621C156.517,314.795 156.311,315.071 156.422,315.607C156.545,316.202 157.85,316.995 158.28,316.049C158.49,315.809 158.577,315.225 158.316,314.966C158.168,314.833 157.281,314.502 156.97,314.621ZM154.227,313.721C154.057,313.479 153.698,313.44 153.397,313.585C153.064,313.747 152.832,315.013 153.455,315.126C153.628,315.215 154.086,315.154 154.2,314.961C154.256,314.853 154.344,313.887 154.227,313.721ZM162.678,314.132C162.331,314.147 162.066,314.478 162.021,314.866C161.97,315.298 163.285,316.325 163.79,315.78C164.106,315.595 163.976,314.997 163.736,314.79C163.453,314.546 162.863,314.123 162.678,314.131ZM162.659,312.303C162.452,312.382 162.358,312.635 162.409,312.88C162.465,313.151 163.34,313.55 163.536,313.119C163.632,313.01 163.671,312.667 163.552,312.549C163.485,312.489 162.8,312.249 162.659,312.303ZM159.793,310.97C159.586,311.05 159.492,311.303 159.543,311.547C159.599,311.818 160.474,312.218 160.67,311.787C160.766,311.678 160.805,311.335 160.687,311.217C160.619,311.156 159.934,310.916 159.793,310.97ZM158.504,312.533C158.228,312.639 158.102,312.977 158.17,313.304C158.245,313.667 159.416,314.202 159.678,313.625C159.806,313.479 159.859,313.02 159.7,312.863C159.61,312.781 158.693,312.46 158.504,312.533ZM161.588,316.53C160.309,315.627 159.596,316.586 159.783,317.489C159.917,318.137 160.592,318.414 161.16,318.594C161.801,318.798 162.542,318.682 162.624,318.071C162.627,317.76 162.546,317.407 162.391,317.254C162.123,317.013 161.856,316.771 161.588,316.53ZM151.848,312.942C152.239,311.425 151.799,311.115 151.021,311.609C150.306,312.064 150.373,312.886 150.254,313.501C150.178,313.931 150.187,314.304 150.785,314.285C151.084,314.397 151.307,314.285 151.457,313.949C151.587,313.613 151.718,313.278 151.848,312.942ZM161.891,307.151C161.033,306.705 160.339,307.416 161.052,308.13C162.181,308.561 163.702,309.535 165.251,310.12C166.243,310.277 166.787,309.61 165.878,309.17C164.549,308.497 163.22,307.824 161.891,307.151Z" style="fill:rgb(192,4,21);"/>
    </g>
    <g id="path55" transform="matrix(0.709484,0,0,0.709484,-20.0381,-178.409)">
        <path d="M191.35,332.161C189.793,332.59 187.508,329.55 185.587,328.244C183.591,327.051 183.088,327.349 184.076,329.14C185.083,329.923 186.09,330.706 187.097,331.49C187.62,331.963 187.485,332.208 186.694,332.224C185.853,332.241 184.625,330.85 183.964,330.315C183.078,329.364 181.875,329.942 182.286,330.874C183.181,331.657 184.076,332.441 184.971,333.224C185.913,334.054 185.046,335.388 183.796,334.791C182.304,333.877 180.812,332.963 179.32,332.049C177.376,331.136 177.05,332.092 177.337,332.979C178.715,335.455 185.332,334.366 185.307,338.987C185.605,341.244 184.785,343.836 183.852,345.757C183.405,347.715 185.717,347.883 186.09,346.429C186.428,344.135 186.766,341.842 187.104,339.549C187.239,338.632 188.076,338.743 188.567,339.297C189.387,340.223 188.347,342.309 189.179,343.51C189.779,344.377 190.581,343.516 190.558,342.619C190.526,341.382 190.494,340.146 190.463,338.91C190.452,338.507 190.774,338.087 191.128,338.372C191.936,339.024 190.631,342.901 191.857,343.899C192.79,344.659 193.872,344.406 193.505,343.033C192.859,340.622 192.96,338.491 193.14,336.39C193.186,335.848 193.11,335.272 193.169,334.766C193.33,333.369 195.942,332.24 191.35,332.161ZM187.36,334.203C186.879,334.731 186.892,335.689 187.182,336.889C188.22,337.868 189.304,337.999 190.455,336.889C191.162,336.377 191.575,335.731 191.462,334.847C191.161,333.591 190.296,332.783 189.73,333.358C189.085,334.014 187.659,334.202 187.36,334.203Z" style="fill:rgb(192,4,21);"/>
    </g>
    <g id="path57" transform="matrix(0.709484,0,0,0.709484,-20.0381,-178.409)">
        <path d="M90.204,344.247C90.935,345.499 91.348,346.526 89.533,345.981C86.113,342.771 87.474,340.141 88.659,337.159C88.831,336.723 88.74,336.323 88.195,335.997C87.781,335.75 87.695,335.81 87.252,335.927C85.882,336.288 86.191,336.369 85.858,334.809C85.782,334.451 85.137,334.685 84.777,334.623C84.087,334.735 83.994,334.437 84.497,333.728C85.137,333.105 85.485,332.278 85.616,331.299C85.675,330.856 85.954,330.178 86.188,329.75C86.668,328.87 87.131,327.877 87.873,327.246C88.473,326.735 89.081,326.238 90.848,327.993C92.767,329.493 91.804,331.321 90.428,333.196C90.584,333.577 90.971,333.469 91.463,333.14C92.6,331.031 94.1,329.365 96.571,329.155C97.882,329.044 99.118,329.009 99.268,330.091C99.604,330.8 99.194,331.229 97.142,331.042C94.696,330.638 90.726,333.63 89.05,339.266C88.689,341.597 89.073,343.258 90.204,344.247ZM95.184,341.309C95.197,343.182 96.873,341.797 97.016,340.784C97.236,339.23 95.791,338.146 96.918,337.029C98.847,331.885 95.944,332.413 96.073,333.64C96.19,334.74 96.037,335.749 95.519,336.637C95.109,337.048 94.599,337.06 94.67,336.433C94.857,334.77 94.747,333.451 93.237,333.75C91.914,334.445 90.332,338.143 90.621,339.153C91.106,340.652 92.502,339.806 93.05,338.744C93.439,337.991 94.39,338.976 93.673,339.409C92.535,340.095 91.752,340.689 91.211,341.449C90.759,343.333 93.032,342.321 93.533,341.411C94.457,339.734 94.926,340.056 95.184,341.309ZM92.68,335.63C93.188,334.791 93.547,334.977 93.757,336.19C93.559,336.782 93.181,337.374 92.722,337.966C92.162,338.286 91.697,338.451 91.856,337.603C92.014,336.762 92.119,336.381 92.68,335.63ZM86.436,338.209C86.436,338.209 86.476,337.588 86.783,337.202C87.081,336.827 87.644,336.676 87.773,337.313C88.013,338.505 87,340.711 85.81,340.566C85.257,340.499 84.272,340.433 82.995,339.803C82.488,339.618 82.167,339.108 82.24,338.013C82.24,338.013 82.806,335.68 83.484,335.316C84.024,335.027 84.467,336.033 83.964,336.464C83.286,337.045 82.874,338.868 84.234,338.21C84.637,338.015 84.987,335.554 85.703,336.323C85.995,336.637 85.923,336.673 85.782,337.029C85.569,337.57 85.274,338.54 85.877,338.601C86.098,338.617 86.402,338.729 86.436,338.209ZM86.46,331.43C86.445,331.749 86.355,332.067 86.385,332.385C87.764,333.165 86.781,332.193 87.683,331.719C88.092,331.505 88.204,331.403 88.302,332.833C88.312,333.267 89.297,333.545 89.655,332.783C89.768,332.317 89.933,331.873 90.238,331.497C90.625,331.018 90.917,331.163 90.658,330.527C90.486,330.105 90.269,329.838 89.891,330.136C89.572,330.387 89.707,330.816 89.288,330.987C88.756,331.205 88.668,330.599 88.793,330.244C88.865,330.04 88.937,329.836 89.009,329.632C89.443,328.4 88.177,328.477 87.658,329.378C87.411,329.62 87.164,329.863 86.917,330.105C86.687,330.886 86.493,330.701 86.459,331.43ZM88.889,334.483C89.962,334.082 90.344,334.222 90.036,334.903C89.849,335.375 89.627,335.67 89.365,335.77C88.964,335.91 88.731,335.807 88.665,335.462C88.557,335.057 88.731,334.774 88.889,334.483Z" style="fill:rgb(192,4,21);"/>
    </g>
</svg>
