<svg width="154" height="157" viewBox="0 0 154 157" fill="none" xmlns="http://www.w3.org/2000/svg">
<g filter="url(#filter0_d_185_305)">
<rect width="128" height="128" transform="translate(13)" fill="white"/>
<path fill-rule="evenodd" clip-rule="evenodd" d="M43.3983 70.3793C41.7586 72.0163 39.4962 73.0295 36.9995 73.0295C34.5031 73.0295 32.2407 72.0163 30.6005 70.3793C28.961 68.7417 27.9462 66.4831 27.9462 63.9914C27.9462 61.4989 28.961 59.2402 30.6005 57.6025C32.2407 55.9654 34.5031 54.952 36.9995 54.952C39.4962 54.952 41.7586 55.9654 43.3983 57.6025C45.0384 59.2402 46.0531 61.4989 46.0531 63.9914C46.0531 66.4831 45.0384 68.7417 43.3983 70.3793ZM36.9995 53.9912C31.4853 53.9917 27.0004 58.4766 27 63.9914C27.0004 69.5054 31.4853 73.9902 36.9995 73.9905C42.5141 73.9902 46.9993 69.5054 46.9993 63.9914C46.9993 58.4766 42.5141 53.9917 36.9995 53.9912Z" fill="#0061A7"/>
<path fill-rule="evenodd" clip-rule="evenodd" d="M36.2936 60.7075C36.2811 60.6937 36.2668 60.6846 36.2527 60.678C36.2314 60.6681 36.2096 60.6631 36.1867 60.6599C36.1636 60.6568 36.1393 60.6556 36.1133 60.6556C36.0212 60.6556 35.9069 60.6705 35.7937 60.6848C35.6811 60.6993 35.5697 60.7132 35.4936 60.7131C35.4339 60.7131 35.3912 60.7091 35.3636 60.7027C35.3427 60.6981 35.3309 60.6924 35.3253 60.6884L35.318 60.6812C35.3158 60.6779 35.3129 60.6707 35.3112 60.6564C35.3094 60.6422 35.3093 60.622 35.3093 60.5975V59.9332L35.312 59.9311C35.3194 59.9265 35.3345 59.92 35.3546 59.9144C35.3901 59.9042 35.4404 59.8959 35.4966 59.888C35.5813 59.876 35.6796 59.8647 35.7717 59.8432C35.8178 59.8324 35.8625 59.819 35.9039 59.8006C35.945 59.7822 35.9835 59.7587 36.0149 59.7263C36.0763 59.6634 36.1045 59.5876 36.104 59.517C36.1039 59.435 36.0696 59.3623 36.0227 59.3086C35.9991 59.2817 35.9718 59.2592 35.942 59.2427C35.9119 59.2263 35.8788 59.2155 35.8431 59.2153C35.821 59.2155 35.798 59.2184 35.7722 59.2231C35.6831 59.2392 35.5601 59.2768 35.4568 59.3105C35.4284 59.3198 35.4018 59.3287 35.3779 59.3369C35.3951 59.2311 35.4171 59.0659 35.4173 58.9108C35.4169 58.8116 35.4088 58.7167 35.3797 58.6381L35.3787 58.6353L35.3774 58.6327C35.3298 58.5338 35.2446 58.4694 35.1538 58.4308C35.0625 58.392 34.9637 58.3768 34.8755 58.3768C34.8088 58.3769 34.7487 58.3852 34.6994 58.4021C34.6746 58.4108 34.6522 58.4214 34.6319 58.4384C34.6219 58.4468 34.6122 58.4572 34.6046 58.4709C34.5969 58.4843 34.5917 58.5014 34.5918 58.5189C34.592 58.5549 34.5995 58.5925 34.6093 58.6328C34.6349 58.7344 34.6593 58.8481 34.6726 58.8814C34.7117 59.136 34.7039 60.3179 34.7039 60.4554C34.7041 60.5314 34.6891 60.6265 34.663 60.6959C34.6503 60.7305 34.6344 60.7585 34.6206 60.7737C34.6138 60.7814 34.6078 60.7859 34.6038 60.7881L34.5951 60.7907C34.5615 60.7907 34.5111 60.7949 34.4458 60.801C34.2513 60.8192 33.9331 60.8551 33.7334 60.855C33.6704 60.855 33.6221 60.8549 33.5835 60.8564C33.5546 60.8577 33.531 60.8594 33.509 60.8638C33.4926 60.8672 33.4764 60.872 33.4602 60.8817C33.4482 60.8889 33.4366 60.8993 33.4281 60.9113C33.4152 60.9295 33.4103 60.9489 33.4081 60.9647C33.4059 60.9809 33.4058 60.9951 33.4057 61.0102C33.4057 61.0187 33.4059 61.0272 33.4059 61.0365C33.4059 61.0724 33.4113 61.1146 33.4215 61.1604C33.437 61.2288 33.463 61.304 33.5044 61.3675C33.5252 61.3993 33.5502 61.4285 33.5818 61.4511C33.6132 61.4736 33.653 61.4891 33.696 61.4889C33.7412 61.4887 33.8019 61.481 33.8748 61.47C33.9833 61.4535 34.116 61.4291 34.2351 61.4089C34.2947 61.3987 34.3509 61.3897 34.3985 61.3832C34.4458 61.3767 34.4853 61.373 34.5075 61.3731C34.5494 61.373 34.6074 61.3689 34.6831 61.3628C34.9089 61.3444 35.2878 61.3084 35.7432 61.3084C35.863 61.3084 35.959 61.296 36.0368 61.2736C36.1533 61.2406 36.2312 61.1814 36.2745 61.1106C36.3181 61.04 36.3266 60.9648 36.3267 60.9031C36.3265 60.8494 36.3203 60.8025 36.3206 60.7783C36.3211 60.7532 36.3105 60.7256 36.2936 60.7075Z" fill="#0061A7"/>
<path fill-rule="evenodd" clip-rule="evenodd" d="M38.8267 59.7293C38.7829 59.6942 38.7255 59.6679 38.6597 59.6679C38.5812 59.6679 38.4991 59.6677 38.4366 59.6676C38.3939 59.6675 38.361 59.6674 38.3439 59.6673C38.3474 59.6608 38.3513 59.6536 38.3572 59.645C38.3741 59.6195 38.4015 59.5859 38.4406 59.5456C38.4681 59.5163 38.4831 59.4827 38.497 59.447C38.5176 59.3935 38.5334 59.3332 38.552 59.2795C38.5702 59.2258 38.5926 59.1797 38.6137 59.1587C38.6613 59.1096 38.7054 59.0544 38.7389 58.9962C38.7721 58.9379 38.796 58.8763 38.7963 58.8112C38.7963 58.7858 38.7883 58.7623 38.7772 58.7437C38.7575 58.7109 38.7306 58.689 38.7025 58.6695C38.6601 58.6407 38.6122 58.6182 38.5719 58.5985C38.5519 58.5888 38.5337 58.58 38.5203 58.5725C38.5137 58.5687 38.5081 58.5653 38.5045 58.5629L38.5005 58.5599L38.4996 58.5593C38.4759 58.5355 38.4484 58.5212 38.4169 58.5088C38.3853 58.4971 38.3502 58.4891 38.3133 58.4889C38.2804 58.4891 38.244 58.4953 38.211 58.5203C38.195 58.5326 38.181 58.55 38.1722 58.57C38.1633 58.59 38.1595 58.6118 38.1595 58.634C38.1595 58.7544 38.1457 58.9717 38.0305 59.2023C37.9685 59.3272 37.9023 59.4869 37.8424 59.6369C37.7825 59.7866 37.7287 59.9272 37.6938 60.0098C37.6724 60.0602 37.6474 60.0912 37.6272 60.1119C37.617 60.1224 37.6081 60.13 37.5999 60.1372C37.5957 60.141 37.5917 60.1444 37.5864 60.1503C37.5834 60.1534 37.5802 60.157 37.576 60.1636C37.5722 60.1703 37.566 60.1809 37.5656 60.2C37.5656 60.2083 37.5673 60.2178 37.571 60.2264C37.578 60.2429 37.5902 60.2531 37.5986 60.258C37.6137 60.2666 37.6215 60.2669 37.6282 60.2683C37.6376 60.2697 37.6445 60.2698 37.6531 60.2701C37.6615 60.2702 37.671 60.2702 37.6825 60.2702C37.7215 60.2703 37.7565 60.2623 37.7872 60.2518C37.8804 60.2198 37.9386 60.1753 38.0961 60.1744C38.1317 60.1744 38.1603 60.1771 38.1818 60.1817C38.1977 60.1851 38.2093 60.1896 38.2175 60.1942C38.2296 60.2012 38.2342 60.2066 38.2395 60.2168C38.2446 60.2273 38.2488 60.2448 38.2488 60.2718C38.249 60.3169 38.2365 60.3857 38.2119 60.4757C38.1804 60.5906 38.1558 60.7012 38.1297 60.778C38.1168 60.8163 38.1029 60.8459 38.0923 60.8603C38.0883 60.8658 38.0856 60.8685 38.0837 60.8699C38.0819 60.8691 38.0791 60.868 38.0745 60.8649C38.0669 60.8602 38.0561 60.8514 38.0435 60.8382C37.9752 60.7676 37.9276 60.7024 37.8903 60.6521C37.8716 60.6269 37.8558 60.6056 37.8386 60.587C37.8298 60.5777 37.8207 60.569 37.8082 60.5608C37.7961 60.5528 37.7789 60.5445 37.7565 60.5444C37.7437 60.5444 37.7303 60.5476 37.7192 60.5531C37.7081 60.5586 37.6994 60.5657 37.6926 60.5728C37.6788 60.5875 37.674 60.6019 37.6712 60.6132C37.6685 60.6249 37.6679 60.6348 37.6679 60.6446C37.668 60.6657 37.671 60.6868 37.6755 60.7107C37.691 60.7931 37.7269 60.9092 37.7588 61.0201C37.7747 61.0753 37.7897 61.1288 37.8003 61.1741C37.8111 61.219 37.817 61.2572 37.8169 61.274C37.8167 61.308 37.8268 61.3407 37.844 61.3666C37.87 61.4058 37.9081 61.4295 37.9467 61.444C37.9856 61.4586 38.0265 61.4646 38.0662 61.4646C38.0976 61.4646 38.1282 61.4608 38.1567 61.4525C38.185 61.4439 38.2123 61.4319 38.2358 61.408C38.2544 61.3888 38.2838 61.3541 38.3217 61.306C38.3783 61.2341 38.4517 61.1345 38.5197 61.0279C38.5877 60.921 38.6505 60.8083 38.6856 60.7055C38.7291 60.5782 38.7764 60.4186 38.8192 60.2845C38.8408 60.2176 38.861 60.1569 38.8787 60.1111C38.8876 60.0882 38.8957 60.0691 38.9024 60.0555C38.9058 60.0487 38.9088 60.0433 38.9109 60.0399L38.9133 60.0363C38.9257 60.0235 38.9341 60.0077 38.939 59.9929C38.9439 59.9777 38.9457 59.9629 38.9458 59.9484C38.9455 59.916 38.9371 59.885 38.9237 59.8546C38.9032 59.8091 38.8707 59.7647 38.8267 59.7293Z" fill="#0061A7"/>
<path fill-rule="evenodd" clip-rule="evenodd" d="M40.5816 59.8509C40.5153 59.762 40.4283 59.691 40.3378 59.6455C40.2753 59.6144 40.2088 59.6033 40.1448 59.6033C40.0383 59.6034 39.9374 59.6333 39.8618 59.6622C39.7864 59.6912 39.7362 59.7199 39.7341 59.721L39.6964 59.7427V59.2244C39.6964 59.1518 39.7161 59.0906 39.739 59.0247C39.7617 58.9593 39.7889 58.8891 39.7892 58.804C39.7892 58.775 39.7817 58.7478 39.7702 58.7232C39.75 58.6802 39.7183 58.6438 39.681 58.6104C39.6248 58.5609 39.555 58.5189 39.4837 58.4879C39.4121 58.457 39.3404 58.4368 39.2746 58.4365C39.2039 58.4361 39.1432 58.4608 39.1015 58.5004C39.0595 58.5397 39.0364 58.5925 39.0364 58.6465C39.0361 58.6898 39.0522 58.7344 39.0851 58.7682C39.1097 58.7929 39.1404 58.8502 39.1613 58.9091C39.1719 58.9388 39.1806 58.9689 39.1864 58.996C39.1922 59.0229 39.195 59.0471 39.1949 59.0623V59.7847C39.195 59.8328 39.1911 59.9142 39.1848 60.0129C39.1666 60.3106 39.1298 60.7687 39.1298 61.0479C39.1298 61.1194 39.1319 61.1788 39.1384 61.2249C39.1504 61.3077 39.1717 61.366 39.2096 61.4081C39.2285 61.4286 39.2517 61.4437 39.2752 61.4521C39.2986 61.4605 39.3215 61.463 39.3421 61.463C39.3687 61.463 39.3922 61.4591 39.4122 61.456C39.4324 61.4527 39.4491 61.4505 39.4598 61.4505C39.4865 61.4507 39.5117 61.4407 39.5305 61.4271C39.5635 61.4025 39.5819 61.3702 39.5978 61.3346C39.621 61.281 39.6357 61.2163 39.6459 61.1467C39.6561 61.0774 39.6609 61.0039 39.6609 60.9355C39.6609 60.8391 39.6697 60.6281 39.6786 60.4118C39.6874 60.1949 39.6964 59.9719 39.6964 59.8438V59.817L39.7392 59.8369C39.8257 59.8762 39.9215 59.9705 39.9974 60.0744C40.0737 60.1777 40.1322 60.2911 40.1536 60.3583C40.1704 60.4099 40.1926 60.4646 40.2256 60.5115C40.2424 60.5347 40.262 60.5566 40.2871 60.5738C40.312 60.5909 40.3438 60.6028 40.3782 60.6028C40.4211 60.6028 40.4628 60.5849 40.5002 60.5552C40.5381 60.5255 40.5744 60.4832 40.6126 60.4257C40.6687 60.341 40.6941 60.2515 40.6939 60.1656C40.6939 60.0479 40.6479 59.9398 40.5816 59.8509Z" fill="#0061A7"/>
<path fill-rule="evenodd" clip-rule="evenodd" d="M34.3652 68.4157H34.7045V66.4676H34.4352L34.4296 66.5054C34.4137 66.6192 34.3703 66.6972 34.3022 66.7497C34.2338 66.8016 34.135 66.8305 33.9999 66.8305L33.9546 66.8295L33.906 66.8274V67.1028H34.3652V68.4157Z" fill="#0061A7"/>
<path fill-rule="evenodd" clip-rule="evenodd" d="M36.2289 67.4068C36.1774 67.4665 36.1048 67.498 35.9968 67.5019H35.9781C35.8606 67.5016 35.7822 67.4728 35.7306 67.4203C35.6786 67.3678 35.6489 67.2842 35.6489 67.1633V67.143C35.6522 67.0181 35.6836 66.9288 35.7369 66.8706C35.7895 66.8124 35.8658 66.7796 35.9771 66.7722C36.0888 66.7761 36.1661 66.8066 36.2199 66.8615C36.2742 66.9165 36.3075 67.0015 36.3146 67.1223C36.3108 67.2537 36.2797 67.3475 36.2289 67.4068ZM35.9649 68.1846L35.9474 68.1841L35.9457 68.184H35.9444C35.8524 68.1838 35.7895 68.1617 35.7444 68.1213C35.6998 68.081 35.6698 68.017 35.66 67.9232L35.6554 67.884H35.3286L35.3322 67.9306C35.343 68.09 35.3997 68.2184 35.5046 68.3065C35.6096 68.3949 35.7577 68.4399 35.9427 68.4468L35.9441 68.447L35.946 68.4468C36.1793 68.4406 36.3672 68.3413 36.4911 68.158C36.6149 67.9751 36.6813 67.7132 36.6962 67.3711V67.3684C36.6886 67.0808 36.6286 66.8596 36.5082 66.7053C36.3876 66.5507 36.2047 66.4707 35.9776 66.4678H35.9757L35.9741 66.468C35.7701 66.4782 35.6061 66.5409 35.4935 66.658C35.3803 66.7749 35.3216 66.9407 35.3104 67.1504V67.154C35.3175 67.3533 35.3734 67.5112 35.4833 67.6216C35.593 67.732 35.7535 67.7886 35.9535 67.7953L35.9551 67.7955L35.957 67.7953C36.1136 67.7914 36.241 67.7483 36.334 67.671C36.3031 67.8277 36.2604 67.9496 36.2077 68.0326C36.1385 68.1395 36.0623 68.1838 35.9649 68.1846Z" fill="#0061A7"/>
<path fill-rule="evenodd" clip-rule="evenodd" d="M37.2041 67.6942L37.6897 67.0337V67.6942H37.2041ZM37.6897 68.4159H38.018V67.9716H38.3061V67.6942H38.018V66.5127H37.7435L36.8457 67.6935V67.9716H37.6897V68.4159Z" fill="#0061A7"/>
<path fill-rule="evenodd" clip-rule="evenodd" d="M39.361 67.4068C39.3095 67.4665 39.2368 67.498 39.1288 67.5019H39.1103C38.9927 67.5016 38.9142 67.4728 38.8627 67.4203C38.8111 67.3678 38.781 67.2842 38.781 67.1633L38.7813 67.143C38.7845 67.0181 38.8157 66.9288 38.8692 66.8706C38.9214 66.8124 38.9983 66.7796 39.1097 66.7722C39.2207 66.7761 39.2984 66.8066 39.3524 66.8615C39.4062 66.9165 39.4394 67.0015 39.4465 67.1223C39.4429 67.2537 39.412 67.3475 39.361 67.4068ZM39.1101 66.4678H39.1079L39.1062 66.468C38.9023 66.4782 38.7385 66.5409 38.6257 66.658C38.5127 66.7749 38.4539 66.9407 38.4426 67.1504V67.154C38.4497 67.3533 38.5054 67.5112 38.6154 67.6216C38.7252 67.732 38.8856 67.7886 39.0857 67.7953L39.0875 67.7955L39.0893 67.7953C39.2457 67.7914 39.3734 67.7483 39.4663 67.671C39.4354 67.8277 39.3927 67.9496 39.3397 68.0326C39.2706 68.1395 39.1944 68.1838 39.097 68.1846L39.0794 68.1841L39.0781 68.184H39.0764C38.9845 68.1838 38.9214 68.1617 38.8768 68.1213C38.832 68.081 38.8019 68.017 38.792 67.9232L38.7875 67.884H38.461L38.4642 67.9306C38.4751 68.09 38.5317 68.2184 38.6368 68.3065C38.742 68.3949 38.8898 68.4399 39.0748 68.4468L39.0763 68.447L39.0785 68.4468C39.3115 68.4406 39.4994 68.3413 39.6232 68.158C39.7473 67.9751 39.8135 67.7132 39.8283 67.3711V67.3684C39.8206 67.0808 39.7606 66.8596 39.6405 66.7053C39.5202 66.5507 39.337 66.4707 39.1101 66.4678Z" fill="#0061A7"/>
<path fill-rule="evenodd" clip-rule="evenodd" d="M32.4735 63.8725C32.4735 63.8725 32.1548 63.7961 32.0184 63.7442C31.8783 63.6908 31.3775 63.4364 31.877 63.0342L31.9201 63.0194C31.9201 63.0194 31.798 63.4514 32.3693 63.6041C32.9407 63.7567 33.997 64.4903 33.3034 64.9673C33.3034 64.9673 33.4399 64.2151 32.4735 63.8725ZM31.9612 65.128C31.7596 65.3145 31.5007 65.2066 31.5007 65.2066C31.0335 64.9907 31.4374 64.8893 31.4374 64.8893C31.6836 64.8663 31.9612 65.1051 31.9612 65.1051V65.128ZM32.2581 64.8239C31.7879 64.5912 31.4722 64.6374 31.4722 64.6374C30.8159 64.7782 31.1723 65.2196 31.1723 65.2196C31.5257 65.5173 32.1664 65.223 32.1664 65.223C32.7028 65.5467 33.1448 65.2001 33.1448 65.2001C34.1516 65.0069 33.6939 64.1531 33.6939 64.1531C33.5728 63.8835 32.9366 63.4215 32.5013 63.2666C32.1806 63.1527 32.296 62.7663 32.5013 62.7464C32.7063 62.7268 32.6651 62.8248 32.9334 62.8905C33.2015 62.956 33.451 62.6941 33.4385 62.5894C33.4286 62.5081 33.3123 62.5452 33.2606 62.5658C33.2834 62.556 33.3013 62.548 33.2046 62.5894C33.0596 62.6514 32.8574 62.5337 32.8574 62.5337C32.5294 62.3278 32.4572 62.3997 32.4572 62.3997C31.311 62.7694 31.1282 63.4989 31.1282 63.4989C31.1187 64.1725 31.6742 64.2053 31.6742 64.2053C32.7094 64.3627 32.7471 64.6144 32.7471 64.6144C33.025 65.0363 32.2581 64.8239 32.2581 64.8239Z" fill="#0061A7"/>
<path fill-rule="evenodd" clip-rule="evenodd" d="M38.4799 63.8732C38.4799 63.8732 38.1611 63.7968 38.0249 63.745C37.8847 63.6915 37.3839 63.4371 37.8834 63.0349L37.9266 63.0201C37.9266 63.0201 37.8044 63.4521 38.3757 63.6049C38.947 63.7574 40.0032 64.491 39.3097 64.9681C39.3097 64.9681 39.4461 64.2159 38.4799 63.8732ZM37.9677 65.1288C37.766 65.3153 37.5072 65.2074 37.5072 65.2074C37.0399 64.9915 37.4438 64.89 37.4438 64.89C37.69 64.867 37.9677 65.1058 37.9677 65.1058V65.1288ZM38.2644 64.8246C37.7943 64.592 37.4786 64.6382 37.4786 64.6382C36.8224 64.7789 37.1786 65.2203 37.1786 65.2203C37.5321 65.518 38.1729 65.2238 38.1729 65.2238C38.7092 65.5475 39.1512 65.2008 39.1512 65.2008C40.158 65.0077 39.7002 64.1538 39.7002 64.1538C39.5793 63.8842 38.943 63.4222 38.5077 63.2674C38.1871 63.1534 38.3023 62.767 38.5077 62.7471C38.7126 62.7275 38.6715 62.8256 38.9397 62.8913C39.208 62.9567 39.4574 62.6949 39.4448 62.5901C39.4349 62.5088 39.3187 62.546 39.2671 62.5666C39.2898 62.5567 39.3078 62.5488 39.2109 62.5901C39.0661 62.6521 38.8639 62.5345 38.8639 62.5345C38.5358 62.3286 38.4636 62.4005 38.4636 62.4005C37.3174 62.7701 37.1344 63.4997 37.1344 63.4997C37.1251 64.1733 37.6806 64.2061 37.6806 64.2061C38.7156 64.3634 38.7536 64.6152 38.7536 64.6152C39.0313 65.037 38.2644 64.8246 38.2644 64.8246Z" fill="#0061A7"/>
<path fill-rule="evenodd" clip-rule="evenodd" d="M36.0215 63.7394C36.1076 64.0075 36.1279 64.655 36.0518 64.7968C35.976 64.9384 35.8083 64.8476 35.8083 64.8476C35.9656 64.4326 35.8083 63.6533 35.8083 63.6533C35.8541 62.6465 36.1021 62.5351 36.1021 62.5351C36.2594 62.3329 36.067 62.3985 36.067 62.3985C35.5043 62.6465 35.1906 62.5149 35.1906 62.5149C34.1017 62.1911 34.0609 63.1322 34.0609 63.1322L34.0639 63.1565C34.1199 63.2232 34.1568 63.1373 34.1568 63.1373C34.5873 62.6465 35.231 62.9498 35.231 62.9498C35.069 63.1019 35.084 63.4764 35.084 63.4764C34.8458 63.436 34.5165 63.4912 34.2432 63.6888C33.9694 63.8862 34.1113 64.0733 34.1113 64.0733C34.3089 63.9317 34.8512 63.8862 34.8512 63.8862C35.4743 63.8659 35.175 64.6804 35.175 64.6804C34.6437 64.6218 34.1942 64.7523 34.0455 65.0953C33.9071 65.4143 34.0757 65.3484 34.0757 65.3484C34.2534 65.1004 34.7093 65.0043 35.0535 65.0599C35.3981 65.1158 35.3525 65.2724 36.1378 65.3583C36.1432 65.3591 36.1481 65.3597 36.1535 65.36C36.917 65.4219 36.4724 63.709 36.4724 63.709C36.3606 62.6972 36.7916 62.5097 36.7916 62.5097C36.9437 62.3833 36.7207 62.3934 36.7207 62.3934C35.7579 62.3934 36.0215 63.7394 36.0215 63.7394Z" fill="#0061A7"/>
<path fill-rule="evenodd" clip-rule="evenodd" d="M41.5865 63.0676L41.5131 63.1128V62.8359C41.5131 62.8359 41.5425 62.8372 41.5865 62.8341V63.0676ZM42.1942 62.9646L42.2361 62.9842V64.7377C42.2361 64.7377 42.0696 64.8891 41.8027 64.9694V63.2155L42.1942 62.9646ZM40.8101 64.8022C40.8101 64.8022 41.4088 64.7155 41.5007 64.1027V63.409L41.5865 63.3541V65.0122C41.3627 65.0344 41.0961 64.9918 40.8101 64.8022ZM40.8488 63.7757C40.8488 63.7757 40.9445 63.6757 41.0387 63.6777L41.0373 63.7559V64.1812C41.0373 64.1812 41.029 64.6314 40.6959 64.6705C40.6959 64.6705 40.3827 64.3265 40.8488 63.7757ZM41.9919 62.5504C41.9919 62.5504 41.988 62.5296 41.9374 62.5212C41.9374 62.5212 41.2217 62.5716 41.0471 62.3617C41.0471 62.3617 40.6265 62.6933 40.2273 62.6598L40.2259 62.6594L40.198 62.6555C40.198 62.6555 40.1146 62.731 40.1936 62.7939C40.1936 62.7939 40.4894 63.0582 41.0387 62.8486V63.3727C41.0387 63.3727 39.907 63.9352 40.1726 64.7449C40.1726 64.7449 40.7392 65.9867 42.3036 65.0469C42.3036 65.0469 42.4832 65.3615 42.5788 65.3908C42.6744 65.4203 43.0783 65.3992 42.9449 65.0722C42.9449 65.0722 42.6998 64.879 42.7036 64.6481V62.8024C42.7036 62.8024 43.0488 62.5758 42.9117 62.4038C42.9117 62.4038 42.5329 62.5926 42.3789 62.4544C42.3789 62.4544 42.2831 62.4329 42.2414 62.5168C42.2414 62.5168 42.1749 62.6888 42.1127 62.7435L41.8027 62.9344V62.7853C41.8955 62.7456 41.9781 62.6756 41.9919 62.5504Z" fill="#0061A7"/>
<path fill-rule="evenodd" clip-rule="evenodd" d="M37.4652 70.9406L36.9996 71.3859L36.5338 70.9406H32.7368L32.8342 70.7685H36.5986L36.9996 71.1274L37.4002 70.7685H41.1648L41.2623 70.9406H37.4652ZM33.5717 69.4672H36.5386L36.6132 69.5337L36.9996 69.9029L37.3908 69.5292L37.4599 69.4672H40.4274L41.0937 70.6429H37.3523L36.9996 70.9586L36.6464 70.6429H32.9056L33.5717 69.4672ZM45.781 65.1137L44.7017 65.8243C44.7808 65.4855 44.8348 65.1613 44.8709 64.8615C45.9971 63.9188 45.849 63.1946 45.849 63.1946C45.7113 63.0915 45.1819 63.6675 44.9354 63.9505C44.947 63.3944 44.9027 63.0459 44.9027 63.0459C44.8884 62.9553 44.8722 62.8662 44.8552 62.7778C45.6055 61.6133 45.2046 61.0155 45.2046 61.0155C45.053 61.0662 44.7274 61.8296 44.6613 61.9882C44.5384 61.5804 44.3875 61.1991 44.2164 60.8438C44.6238 59.9642 44.2471 59.0569 44.2471 59.0569C43.9904 59.2508 43.8954 59.9956 43.8734 60.2063C43.6733 59.871 43.4572 59.5631 43.2341 59.282C43.3822 58.2976 42.7473 57.5004 42.7473 57.5004C42.668 57.3702 42.6398 57.5004 42.6398 57.5004C42.6058 58.2419 42.7812 58.7343 42.7812 58.7343L42.7927 58.7667C42.5365 58.4894 42.2792 58.2451 42.0338 58.0328C42.0378 57.8173 41.9601 57.2905 41.2587 56.5891C41.2587 56.5891 41.1415 56.4816 41.1492 56.6798C41.1492 56.6798 41.1361 57.058 41.2587 57.4292C40.7778 57.0934 40.4489 56.9328 40.4489 56.9328C39.547 56.2155 38.5136 56.4654 38.5136 56.4654C38.2698 56.4829 38.3916 56.56 38.3916 56.56C38.9836 57.264 40.2022 57.3604 40.2022 57.3604C40.5408 57.5229 40.8533 57.6971 41.1422 57.8803C40.8329 57.8597 40.3016 57.8554 40.0643 58.0382C40.0643 58.0382 39.9624 58.1061 40.1548 58.1854C40.1548 58.1854 40.9963 58.5246 41.7883 58.3359C42.0575 58.5462 42.3012 58.765 42.5213 58.9901C42.2522 58.945 41.5688 58.8679 41.1794 59.1588C41.1794 59.1588 41.1115 59.1871 41.1794 59.2381C41.1794 59.2381 41.5586 59.6107 42.9907 59.5198C43.2281 59.8173 43.4299 60.1216 43.602 60.4272C43.4024 60.3646 42.652 60.1529 42.102 60.3136C42.102 60.3136 42.0398 60.3928 42.1982 60.4777C42.1982 60.4777 43.0975 61.1176 43.8939 61.0068C44.0901 61.4468 44.2299 61.8823 44.3281 62.2976C43.6826 61.8494 43.0528 61.8306 43.0528 61.8306C42.8605 61.791 42.9113 61.9099 42.9113 61.9099C43.6053 62.6827 44.2107 62.8661 44.4474 62.9095C44.519 63.3752 44.5424 63.7998 44.5419 64.1561C43.962 63.5081 43.2455 63.1722 43.2455 63.1722C43.115 63.1098 43.1378 63.2287 43.1378 63.2287C43.542 64.0275 44.2977 64.6296 44.5152 64.7922C44.4901 65.0861 44.4566 65.2569 44.4566 65.2569C44.4079 65.4699 44.3536 65.6743 44.2947 65.871C44.1799 65.7076 43.7636 65.1588 43.2455 65.0005C43.2455 65.0005 43.2918 65.8604 44.0848 66.4916C43.9536 66.8361 43.8082 67.1523 43.6543 67.4415L43.6528 67.4402C43.6528 67.4402 43.466 66.2742 43.0755 66.0648C43.0755 66.0648 42.8014 66.8801 43.2966 68.0466C43.1138 68.3256 42.9254 68.5726 42.7393 68.7906C42.5532 67.1588 42.3623 67.3494 42.3623 67.3494C42.0079 67.6642 42.2786 68.9207 42.3473 69.2125C41.7875 69.7667 41.3024 70.0527 41.1261 70.1471L40.5864 69.1943H37.3561L36.9996 69.513L36.6428 69.1943H33.4128L33.3734 69.2635L32.872 70.1487C32.6984 70.0561 32.2108 69.77 31.6478 69.2125C31.7166 68.9207 31.9874 67.6642 31.6329 67.3494C31.6329 67.3494 31.4419 67.1588 31.2558 68.7906C31.0697 68.5726 30.8814 68.3257 30.6985 68.0467C31.1937 66.8801 30.9196 66.0648 30.9196 66.0648C30.529 66.2742 30.3423 67.4402 30.3423 67.4402L30.3407 67.4415C30.1869 67.1523 30.0416 66.8361 29.9105 66.4916C30.7034 65.8603 30.7498 65.0005 30.7498 65.0005C30.2315 65.1588 29.8151 65.7075 29.7005 65.871C29.6416 65.6743 29.5871 65.4699 29.5386 65.2569C29.5386 65.2569 29.505 65.0861 29.48 64.7922C29.6976 64.6296 30.4532 64.0274 30.8573 63.2287C30.8573 63.2287 30.88 63.1098 30.7498 63.1722C30.7498 63.1722 30.033 63.5081 29.4533 64.1561C29.4528 63.7998 29.4761 63.3752 29.5478 62.9095C29.7843 62.8661 30.3898 62.6827 31.0839 61.9099C31.0839 61.9099 31.1347 61.791 30.9423 61.8306C30.9423 61.8306 30.3124 61.8494 29.667 62.2976C29.7652 61.8823 29.9052 61.4468 30.1013 61.0068C30.8975 61.1176 31.7969 60.4777 31.7969 60.4777C31.9554 60.3928 31.8932 60.3136 31.8932 60.3136C31.3431 60.1529 30.5927 60.3646 30.3931 60.4272C30.5653 60.1216 30.7672 59.8173 31.0044 59.5198C32.4365 59.6107 32.8157 59.2381 32.8157 59.2381C32.8836 59.1871 32.8157 59.1588 32.8157 59.1588C32.4264 58.8679 31.7431 58.945 31.4738 58.9901C31.694 58.765 31.9376 58.5462 32.2067 58.3359C32.9989 58.5246 33.8402 58.1854 33.8402 58.1854C34.0327 58.1061 33.9309 58.0382 33.9309 58.0382C33.6935 57.8554 33.1622 57.8597 32.853 57.8803C33.1418 57.6971 33.4543 57.5229 33.793 57.3604C33.793 57.3604 35.0116 57.264 35.6035 56.56C35.6035 56.56 35.7252 56.4829 35.4817 56.4654C35.4817 56.4654 34.4481 56.2155 33.5461 56.9328C33.5461 56.9328 33.2172 57.0934 32.7363 57.4292C32.8592 57.058 32.8459 56.6798 32.8459 56.6798C32.8535 56.4816 32.7364 56.5891 32.7364 56.5891C32.0351 57.2905 31.9574 57.8173 31.9613 58.0328C31.7158 58.2451 31.4587 58.4894 31.2024 58.7667L31.2139 58.7343C31.2139 58.7343 31.3894 58.2419 31.3555 57.5004C31.3555 57.5004 31.3272 57.3702 31.2478 57.5004C31.2478 57.5004 30.6128 58.2976 30.761 59.282C30.538 59.5631 30.3219 59.871 30.1218 60.2063C30.0997 59.9957 30.0046 59.2508 29.7479 59.0569C29.7479 59.0569 29.3713 59.9642 29.7788 60.8438C29.6077 61.1991 29.4568 61.5803 29.3339 61.9882C29.2676 61.8295 28.942 61.0662 28.7906 61.0155C28.7906 61.0155 28.3896 61.6133 29.1398 62.7779C29.1229 62.8662 29.1068 62.9553 29.0926 63.0459C29.0926 63.0459 29.0482 63.3944 29.0598 63.9505C28.8133 63.6677 28.2838 63.0915 28.1461 63.1946C28.1461 63.1946 27.998 63.9188 29.1242 64.8615C29.1603 65.1613 29.2144 65.4855 29.2936 65.8244L28.214 65.1137C28.4008 66.1325 29.5525 66.7097 29.5525 66.7097C29.6469 66.9753 29.759 67.2441 29.8911 67.5122C29.6672 67.4039 28.8836 67.0412 28.6612 67.1571C28.6612 67.1571 29.0095 67.9896 30.2387 68.1357C30.4169 68.42 30.6211 68.6996 30.8554 68.9695L30.8404 68.9628C30.8404 68.9628 30.0366 68.7308 29.5386 68.8722C29.5386 68.8722 29.7593 69.4157 31.4348 69.5628L31.4372 69.5601C31.8002 69.8851 32.2184 70.1871 32.6984 70.4554L32.2689 71.2135H36.4341L36.4438 71.2222L35.5817 72.0844L35.8558 72.3587L36.7332 71.481L36.9996 71.7192L37.2658 71.4809L38.1434 72.3587L38.4173 72.0844L37.5551 71.2222L37.5647 71.2135H41.7302L41.2998 70.4537C41.7786 70.1858 42.1955 69.8845 42.558 69.5602L42.5604 69.5628C44.2358 69.4157 44.4566 68.8722 44.4566 68.8722C43.9585 68.7308 43.1548 68.9628 43.1548 68.9628L43.1397 68.9695C43.3741 68.6996 43.5783 68.42 43.7564 68.1357C44.9856 67.9897 45.3339 67.1571 45.3339 67.1571C45.1115 67.0412 44.3279 67.4039 44.1039 67.5122C44.2361 67.2441 44.3481 66.9753 44.4426 66.7097C44.4426 66.7097 45.5943 66.1325 45.781 65.1137Z" fill="#0061A7"/>
<path fill-rule="evenodd" clip-rule="evenodd" d="M54.0439 70.3897C54.0237 70.2013 53.902 70.0217 53.7021 70.0217C53.4731 70.0217 53.3457 70.1578 53.3457 70.3867C53.3457 70.8676 54.2148 70.7227 54.2148 71.4181C54.2148 71.8178 53.8845 72.0265 53.5137 72.0265C53.3514 72.0265 53.1951 71.9685 53.0531 71.8961C53.0386 71.7483 53.0184 71.6035 53.0039 71.4557L53.0849 71.4384C53.1198 71.6846 53.2588 71.8989 53.534 71.8989C53.731 71.8989 53.8903 71.7744 53.8903 71.5687C53.8903 71.056 53.0386 71.2152 53.0386 70.5171C53.0386 70.1405 53.3051 69.9174 53.6789 69.9174C53.76 69.9174 54.0062 69.9493 54.0961 69.9609C54.0961 70.0971 54.1076 70.2361 54.125 70.3751L54.0439 70.3897Z" fill="#0061A7"/>
<path fill-rule="evenodd" clip-rule="evenodd" d="M55.0155 71.7309C55.0155 71.8873 55.1372 71.8961 55.2416 71.8961H55.2965V71.9829C55.1691 71.9829 54.9837 71.9714 54.8273 71.9714C54.6795 71.9714 54.5057 71.9829 54.3898 71.9829V71.8961H54.4304C54.5346 71.8961 54.6447 71.8816 54.6447 71.7309V70.2129C54.6447 70.0622 54.5346 70.0478 54.4304 70.0478H54.3898V69.9609C54.5057 69.9609 54.6795 69.9724 54.8273 69.9724C54.9837 69.9724 55.1691 69.9609 55.2965 69.9609V70.0478H55.2416C55.1372 70.0478 55.0155 70.0565 55.0155 70.2129V70.8473H56.0671V70.2129C56.0671 70.0565 55.9454 70.0478 55.8412 70.0478H55.7862V69.9609C55.9136 69.9609 56.0991 69.9724 56.2555 69.9724C56.4032 69.9724 56.577 69.9609 56.693 69.9609V70.0478H56.6523C56.5481 70.0478 56.4379 70.0622 56.4379 70.2129V71.7309C56.4379 71.8816 56.5481 71.8961 56.6523 71.8961H56.693V71.9829C56.577 71.9829 56.4032 71.9714 56.2555 71.9714C56.0991 71.9714 55.9136 71.9829 55.7862 71.9829V71.8961H55.8412C55.9454 71.8961 56.0671 71.8873 56.0671 71.7309V71.0096H55.0155V71.7309Z" fill="#0061A7"/>
<path fill-rule="evenodd" clip-rule="evenodd" d="M57.6826 70.2855H57.6768L57.4074 71.1054H57.9491L57.6826 70.2855ZM57.2597 71.5689C57.2307 71.6674 57.1959 71.7427 57.1959 71.7948C57.1959 71.8818 57.3175 71.8963 57.4132 71.8963H57.445V71.9832C57.3292 71.9774 57.2104 71.9715 57.0945 71.9715C56.9902 71.9715 56.8859 71.9774 56.7816 71.9832V71.8963H56.799C56.912 71.8963 57.0076 71.8296 57.051 71.7079L57.5146 70.3782C57.5522 70.271 57.6044 70.1261 57.6218 70.019C57.7144 69.9871 57.8303 69.9292 57.8854 69.8944C57.8941 69.8914 57.8999 69.8886 57.9086 69.8886C57.9173 69.8886 57.9231 69.8886 57.9288 69.8974C57.9375 69.9205 57.9462 69.9466 57.9549 69.9697L58.488 71.4849C58.5227 71.5862 58.5575 71.6935 58.5951 71.7803C58.63 71.8615 58.6908 71.8963 58.7864 71.8963H58.8038V71.9832C58.6733 71.9774 58.543 71.9715 58.4039 71.9715C58.262 71.9715 58.1172 71.9774 57.9694 71.9832V71.8963H58.0013C58.0679 71.8963 58.1808 71.8847 58.1808 71.8122C58.1808 71.7746 58.1548 71.6964 58.123 71.6036L58.0099 71.2676H57.3524L57.2597 71.5689Z" fill="#0061A7"/>
<path fill-rule="evenodd" clip-rule="evenodd" d="M60.7597 71.4121L60.7655 71.4063V70.3198C60.7655 70.0823 60.6003 70.0475 60.5135 70.0475H60.4497V69.9606C60.5859 69.9606 60.7191 69.9722 60.8553 69.9722C60.974 69.9722 61.0928 69.9606 61.2116 69.9606V70.0475H61.1681C61.0465 70.0475 60.9103 70.0707 60.9103 70.4154V71.7336C60.9103 71.835 60.9132 71.9364 60.9277 72.0263H60.8176L59.3256 70.3633V71.5569C59.3256 71.809 59.3749 71.8958 59.598 71.8958H59.6472V71.9828C59.5226 71.9828 59.3981 71.9711 59.2735 71.9711C59.1432 71.9711 59.0099 71.9828 58.8795 71.9828V71.8958H58.9201C59.12 71.8958 59.1808 71.7597 59.1808 71.5278V70.3083C59.1808 70.1461 59.0476 70.0475 58.9172 70.0475H58.8795V69.9606C58.9896 69.9606 59.1026 69.9722 59.2127 69.9722C59.2996 69.9722 59.3836 69.9606 59.4705 69.9606L60.7597 71.4121Z" fill="#0061A7"/>
<path fill-rule="evenodd" clip-rule="evenodd" d="M63.2221 70.5258C63.1353 70.1695 62.889 70.0449 62.55 70.0449C62.0315 70.0449 61.7765 70.4273 61.7765 70.9111C61.7765 71.3891 62.0054 71.8989 62.5587 71.8989C62.6978 71.9018 62.8426 71.8787 62.8802 71.8439V71.3718C62.8802 71.253 62.7673 71.224 62.6601 71.224H62.6225V71.1371C62.7673 71.1428 62.9122 71.1487 63.0569 71.1487C63.1874 71.1487 63.3148 71.1428 63.4452 71.1371V71.224H63.4075C63.3062 71.224 63.2511 71.2703 63.2511 71.3718V71.8121L63.3177 71.8498V71.9018C63.0599 71.9743 62.8078 72.0265 62.5094 72.0265C61.8606 72.0265 61.371 71.6382 61.371 70.94C61.371 70.268 61.9445 69.9174 62.5297 69.9174C62.7093 69.9174 62.8339 69.9434 62.9469 69.9696C63.0599 69.9957 63.1584 70.0217 63.2742 70.0246C63.2742 70.1318 63.2742 70.3519 63.3091 70.52L63.2221 70.5258Z" fill="#0061A7"/>
<path fill-rule="evenodd" clip-rule="evenodd" d="M64.1874 71.7309C64.1874 71.8873 64.3091 71.8961 64.4134 71.8961H64.4683V71.9829C64.3409 71.9829 64.1555 71.9714 63.9991 71.9714C63.8513 71.9714 63.6775 71.9829 63.5616 71.9829V71.8961H63.6022C63.7064 71.8961 63.8166 71.8816 63.8166 71.7309V70.2129C63.8166 70.0622 63.7064 70.0478 63.6022 70.0478H63.5616V69.9609C63.6775 69.9609 63.8513 69.9724 63.9991 69.9724C64.1555 69.9724 64.3409 69.9609 64.4683 69.9609V70.0478H64.4134C64.3091 70.0478 64.1874 70.0565 64.1874 70.2129V70.8473H65.239V70.2129C65.239 70.0565 65.1173 70.0478 65.013 70.0478H64.958V69.9609C65.0854 69.9609 65.2709 69.9724 65.4272 69.9724C65.575 69.9724 65.7488 69.9609 65.8647 69.9609V70.0478H65.8241C65.7199 70.0478 65.6098 70.0622 65.6098 70.2129V71.7309C65.6098 71.8816 65.7199 71.8961 65.8241 71.8961H65.8647V71.9829C65.7488 71.9829 65.575 71.9714 65.4272 71.9714C65.2709 71.9714 65.0854 71.9829 64.958 71.9829V71.8961H65.013C65.1173 71.8961 65.239 71.8873 65.239 71.7309V71.0096H64.1874V71.7309Z" fill="#0061A7"/>
<path fill-rule="evenodd" clip-rule="evenodd" d="M66.8545 70.2855H66.8486L66.5792 71.1054H67.1209L66.8545 70.2855ZM66.4315 71.5689C66.4025 71.6674 66.3678 71.7427 66.3678 71.7948C66.3678 71.8818 66.4894 71.8963 66.585 71.8963H66.6169V71.9832C66.501 71.9774 66.3822 71.9715 66.2663 71.9715C66.162 71.9715 66.0577 71.9774 65.9535 71.9832V71.8963H65.9708C66.0838 71.8963 66.1794 71.8296 66.2229 71.7079L66.6865 70.3782C66.724 70.271 66.7762 70.1261 66.7936 70.019C66.8863 69.9871 67.0022 69.9292 67.0573 69.8944C67.0659 69.8914 67.0717 69.8886 67.0805 69.8886C67.0891 69.8886 67.0949 69.8886 67.1007 69.8974C67.1094 69.9205 67.118 69.9466 67.1268 69.9697L67.6598 71.4849C67.6946 71.5862 67.7293 71.6935 67.767 71.7803C67.8018 71.8615 67.8627 71.8963 67.9583 71.8963H67.9756V71.9832C67.8452 71.9774 67.7149 71.9715 67.5758 71.9715C67.4338 71.9715 67.289 71.9774 67.1412 71.9832V71.8963H67.1732C67.2397 71.8963 67.3527 71.8847 67.3527 71.8122C67.3527 71.7746 67.3267 71.6964 67.2948 71.6036L67.1818 71.2676H66.5242L66.4315 71.5689Z" fill="#0061A7"/>
<path fill-rule="evenodd" clip-rule="evenodd" d="M68.0523 71.8961H68.0929C68.1972 71.8961 68.3073 71.8816 68.3073 71.7309V70.2129C68.3073 70.0622 68.1972 70.0478 68.0929 70.0478H68.0523V69.9609C68.1653 69.9609 68.3391 69.9724 68.4811 69.9724C68.6259 69.9724 68.7998 69.9609 68.9359 69.9609V70.0478H68.8953C68.791 70.0478 68.681 70.0622 68.681 70.2129V71.7309C68.681 71.8816 68.791 71.8961 68.8953 71.8961H68.9359V71.9829C68.7968 71.9829 68.623 71.9714 68.4782 71.9714C68.3363 71.9714 68.1653 71.9829 68.0523 71.9829V71.8961Z" fill="#0061A7"/>
<path fill-rule="evenodd" clip-rule="evenodd" d="M69.822 71.8961H69.8626C69.9668 71.8961 70.077 71.8816 70.077 71.7309V70.2129C70.077 70.0622 69.9668 70.0478 69.8626 70.0478H69.822V69.9609C69.935 69.9609 70.1088 69.9724 70.2508 69.9724C70.3957 69.9724 70.5694 69.9609 70.7056 69.9609V70.0478H70.6651C70.5607 70.0478 70.4507 70.0622 70.4507 70.2129V71.7309C70.4507 71.8816 70.5607 71.8961 70.6651 71.8961H70.7056V71.9829C70.5666 71.9829 70.3927 71.9714 70.2479 71.9714C70.106 71.9714 69.935 71.9829 69.822 71.9829V71.8961Z" fill="#0061A7"/>
<path fill-rule="evenodd" clip-rule="evenodd" d="M72.6662 71.4121L72.672 71.4063V70.3198C72.672 70.0823 72.5068 70.0475 72.4199 70.0475H72.3562V69.9606C72.4923 69.9606 72.6257 69.9722 72.7618 69.9722C72.8805 69.9722 72.9993 69.9606 73.1181 69.9606V70.0475H73.0746C72.953 70.0475 72.8168 70.0707 72.8168 70.4154V71.7336C72.8168 71.835 72.8197 71.9364 72.8342 72.0263H72.7241L71.2321 70.3633V71.5569C71.2321 71.809 71.2814 71.8958 71.5045 71.8958H71.5537V71.9828C71.4291 71.9828 71.3046 71.9711 71.18 71.9711C71.0497 71.9711 70.9164 71.9828 70.786 71.9828V71.8958H70.8266C71.0265 71.8958 71.0873 71.7597 71.0873 71.5278V70.3083C71.0873 70.1461 70.9541 70.0475 70.8237 70.0475H70.786V69.9606C70.8961 69.9606 71.0091 69.9722 71.1192 69.9722C71.2061 69.9722 71.2901 69.9606 71.377 69.9606L72.6662 71.4121Z" fill="#0061A7"/>
<path fill-rule="evenodd" clip-rule="evenodd" d="M73.5527 70.1057C73.3355 70.1057 73.3267 70.1578 73.2833 70.3693H73.1964C73.208 70.2881 73.2225 70.207 73.2311 70.1231C73.2428 70.0419 73.2486 69.9608 73.2486 69.8768H73.3181C73.3413 69.9637 73.4137 69.9608 73.4919 69.9608H74.9868C75.065 69.9608 75.1374 69.9579 75.1432 69.871L75.2127 69.8827C75.2012 69.9608 75.1895 70.039 75.1809 70.1172C75.1751 70.1956 75.1751 70.2737 75.1751 70.3519L75.0882 70.3837C75.0824 70.2767 75.0679 70.1057 74.8737 70.1057H74.3987V71.647C74.3987 71.87 74.5001 71.8961 74.6392 71.8961H74.6942V71.9829C74.5812 71.9829 74.3784 71.9713 74.222 71.9713C74.0482 71.9713 73.8453 71.9829 73.7324 71.9829V71.8961H73.7874C73.9467 71.8961 74.0279 71.8816 74.0279 71.6527V70.1057H73.5527Z" fill="#0061A7"/>
<path fill-rule="evenodd" clip-rule="evenodd" d="M75.306 71.8961H75.3465C75.4509 71.8961 75.5609 71.8816 75.5609 71.7309V70.2129C75.5609 70.0622 75.4509 70.0478 75.3465 70.0478H75.306V69.9609C75.4827 69.9609 75.784 69.9724 76.0273 69.9724C76.2707 69.9724 76.572 69.9609 76.7689 69.9609C76.7632 70.0854 76.7661 70.2767 76.7748 70.4041L76.6879 70.4273C76.6734 70.2389 76.6386 70.0883 76.3345 70.0883H75.9317V70.8473H76.2765C76.4503 70.8473 76.488 70.7488 76.5054 70.5924H76.5922C76.5865 70.7053 76.5836 70.8183 76.5836 70.9314C76.5836 71.0415 76.5865 71.1515 76.5922 71.2616L76.5054 71.279C76.488 71.1052 76.4793 70.9922 76.2794 70.9922H75.9317V71.6672C75.9317 71.8555 76.0998 71.8555 76.2852 71.8555C76.6328 71.8555 76.7864 71.8323 76.8733 71.5021L76.9544 71.5224C76.9167 71.6759 76.882 71.8294 76.8559 71.9829C76.6705 71.9829 76.3373 71.9714 76.0766 71.9714C75.8159 71.9714 75.4712 71.9829 75.306 71.9829V71.8961Z" fill="#0061A7"/>
<path fill-rule="evenodd" clip-rule="evenodd" d="M77.7171 70.9401H77.859C78.1487 70.9401 78.3051 70.83 78.3051 70.4881C78.3051 70.2303 78.1401 70.0652 77.8821 70.0652C77.7953 70.0652 77.7577 70.0739 77.7171 70.0768V70.9401ZM77.3462 70.268C77.3462 70.0565 77.2304 70.0478 77.1405 70.0478H77.0884V69.9609C77.1812 69.9609 77.3607 69.9724 77.5374 69.9724C77.7112 69.9724 77.8503 69.9609 78.0038 69.9609C78.369 69.9609 78.6934 70.0595 78.6934 70.4709C78.6934 70.7315 78.5196 70.8908 78.2907 70.9806L78.786 71.7223C78.8672 71.844 78.9251 71.8788 79.067 71.8962V71.983C78.9715 71.983 78.8788 71.9714 78.7833 71.9714C78.6934 71.9714 78.6006 71.983 78.5108 71.983C78.2878 71.6904 78.0966 71.3776 77.9083 71.0444H77.7171V71.6644C77.7171 71.8874 77.8214 71.8962 77.9545 71.8962H78.0067V71.983C77.8417 71.983 77.6736 71.9714 77.5085 71.9714C77.3694 71.9714 77.2334 71.983 77.0884 71.983V71.8962H77.1405C77.2477 71.8962 77.3462 71.8469 77.3462 71.7396V70.268Z" fill="#0061A7"/>
<path fill-rule="evenodd" clip-rule="evenodd" d="M81.0332 71.4121L81.0389 71.4063V70.3198C81.0389 70.0823 80.8739 70.0475 80.7869 70.0475H80.7232V69.9606C80.8593 69.9606 80.9927 69.9722 81.1288 69.9722C81.2476 69.9722 81.3663 69.9606 81.4852 69.9606V70.0475H81.4417C81.32 70.0475 81.1838 70.0707 81.1838 70.4154V71.7336C81.1838 71.835 81.1867 71.9364 81.2012 72.0263H81.0912L79.5992 70.3633V71.5569C79.5992 71.809 79.6485 71.8958 79.8715 71.8958H79.9208V71.9828C79.7962 71.9828 79.6716 71.9711 79.547 71.9711C79.4166 71.9711 79.2834 71.9828 79.1531 71.9828V71.8958H79.1936C79.3934 71.8958 79.4544 71.7597 79.4544 71.5278V70.3083C79.4544 70.1461 79.321 70.0475 79.1906 70.0475H79.1531V69.9606C79.2631 69.9606 79.3761 69.9722 79.4862 69.9722C79.5731 69.9722 79.657 69.9606 79.7441 69.9606L81.0332 71.4121Z" fill="#0061A7"/>
<path fill-rule="evenodd" clip-rule="evenodd" d="M82.3746 70.2855H82.3687L82.0993 71.1054H82.6411L82.3746 70.2855ZM81.9516 71.5689C81.9226 71.6674 81.8878 71.7427 81.8878 71.7948C81.8878 71.8818 82.0095 71.8963 82.1051 71.8963H82.137V71.9832C82.0211 71.9774 81.9023 71.9715 81.7865 71.9715C81.6822 71.9715 81.5779 71.9774 81.4736 71.9832V71.8963H81.491C81.604 71.8963 81.6996 71.8296 81.743 71.7079L82.2066 70.3782C82.2441 70.271 82.2963 70.1261 82.3136 70.019C82.4064 69.9871 82.5224 69.9292 82.5774 69.8944C82.586 69.8914 82.5919 69.8886 82.6006 69.8886C82.6092 69.8886 82.615 69.8886 82.6208 69.8974C82.6295 69.9205 82.6382 69.9466 82.6469 69.9697L83.1799 71.4849C83.2147 71.5862 83.2494 71.6935 83.2872 71.7803C83.3218 71.8615 83.3828 71.8963 83.4784 71.8963H83.4957V71.9832C83.3653 71.9774 83.235 71.9715 83.0959 71.9715C82.9539 71.9715 82.8091 71.9774 82.6613 71.9832V71.8963H82.6932C82.7598 71.8963 82.8728 71.8847 82.8728 71.8122C82.8728 71.7746 82.8467 71.6964 82.8149 71.6036L82.7019 71.2676H82.0443L81.9516 71.5689Z" fill="#0061A7"/>
<path fill-rule="evenodd" clip-rule="evenodd" d="M83.71 70.1057C83.4927 70.1057 83.484 70.1578 83.4406 70.3693H83.3537C83.3653 70.2881 83.3798 70.207 83.3885 70.1231C83.4001 70.0419 83.4059 69.9608 83.4059 69.8768H83.4754C83.4986 69.9637 83.571 69.9608 83.6493 69.9608H85.1441C85.2223 69.9608 85.2948 69.9579 85.3005 69.871L85.37 69.8827C85.3584 69.9608 85.3469 70.039 85.3382 70.1172C85.3324 70.1956 85.3324 70.2737 85.3324 70.3519L85.2455 70.3837C85.2397 70.2767 85.2252 70.1057 85.0311 70.1057H84.556V71.647C84.556 71.87 84.6574 71.8961 84.7964 71.8961H84.8515V71.9829C84.7385 71.9829 84.5357 71.9713 84.3792 71.9713C84.2054 71.9713 84.0026 71.9829 83.8897 71.9829V71.8961H83.9447C84.104 71.8961 84.1852 71.8816 84.1852 71.6527V70.1057H83.71Z" fill="#0061A7"/>
<path fill-rule="evenodd" clip-rule="evenodd" d="M85.4486 71.8961H85.4892C85.5935 71.8961 85.7035 71.8816 85.7035 71.7309V70.2129C85.7035 70.0622 85.5935 70.0478 85.4892 70.0478H85.4486V69.9609C85.5616 69.9609 85.7354 69.9724 85.8773 69.9724C86.0222 69.9724 86.196 69.9609 86.3322 69.9609V70.0478H86.2916C86.1873 70.0478 86.0772 70.0622 86.0772 70.2129V71.7309C86.0772 71.8816 86.1873 71.8961 86.2916 71.8961H86.3322V71.9829C86.1931 71.9829 86.0193 71.9714 85.8744 71.9714C85.7325 71.9714 85.5616 71.9829 85.4486 71.9829V71.8961Z" fill="#0061A7"/>
<path fill-rule="evenodd" clip-rule="evenodd" d="M87.6031 71.8988C88.1652 71.8988 88.2636 71.4034 88.2636 70.9804C88.2636 70.5575 88.0349 70.0447 87.5539 70.0447C87.0469 70.0447 86.8963 70.4966 86.8963 70.8848C86.8963 71.4034 87.1338 71.8988 87.6031 71.8988ZM87.5598 69.9172C88.1768 69.9172 88.6693 70.2996 88.6693 70.9167C88.6693 71.5831 88.1912 72.0263 87.5742 72.0263C86.96 72.0263 86.4907 71.6091 86.4907 70.9862C86.4907 70.3836 86.9571 69.9172 87.5598 69.9172Z" fill="#0061A7"/>
<path fill-rule="evenodd" clip-rule="evenodd" d="M90.709 71.4121L90.7147 71.4063V70.3198C90.7147 70.0823 90.5497 70.0475 90.4627 70.0475H90.399V69.9606C90.5351 69.9606 90.6684 69.9722 90.8046 69.9722C90.9234 69.9722 91.0421 69.9606 91.1609 69.9606V70.0475H91.1175C90.9958 70.0475 90.8596 70.0707 90.8596 70.4154V71.7336C90.8596 71.835 90.8625 71.9364 90.877 72.0263H90.7669L89.275 70.3633V71.5569C89.275 71.809 89.3243 71.8958 89.5473 71.8958H89.5966V71.9828C89.472 71.9828 89.3475 71.9711 89.2228 71.9711C89.0924 71.9711 88.9592 71.9828 88.8288 71.9828V71.8958H88.8694C89.0692 71.8958 89.1302 71.7597 89.1302 71.5278V70.3083C89.1302 70.1461 88.9968 70.0475 88.8664 70.0475H88.8288V69.9606C88.9389 69.9606 89.0519 69.9722 89.162 69.9722C89.2489 69.9722 89.3329 69.9606 89.4198 69.9606L90.709 71.4121Z" fill="#0061A7"/>
<path fill-rule="evenodd" clip-rule="evenodd" d="M92.0513 70.2855H92.0455L91.7761 71.1054H92.3178L92.0513 70.2855ZM91.6283 71.5689C91.5994 71.6674 91.5645 71.7427 91.5645 71.7948C91.5645 71.8818 91.6862 71.8963 91.7818 71.8963H91.8138V71.9832C91.6979 71.9774 91.579 71.9715 91.4632 71.9715C91.3589 71.9715 91.2547 71.9774 91.1504 71.9832V71.8963H91.1677C91.2808 71.8963 91.3764 71.8296 91.4198 71.7079L91.8833 70.3782C91.9209 70.271 91.9731 70.1261 91.9904 70.019C92.0831 69.9871 92.1991 69.9292 92.2541 69.8944C92.2628 69.8914 92.2686 69.8886 92.2773 69.8886C92.286 69.8886 92.2917 69.8886 92.2975 69.8974C92.3062 69.9205 92.3149 69.9466 92.3236 69.9697L92.8567 71.4849C92.8914 71.5862 92.9262 71.6935 92.9639 71.7803C92.9986 71.8615 93.0595 71.8963 93.1551 71.8963H93.1724V71.9832C93.042 71.9774 92.9117 71.9715 92.7726 71.9715C92.6307 71.9715 92.4859 71.9774 92.3381 71.9832V71.8963H92.3699C92.4366 71.8963 92.5495 71.8847 92.5495 71.8122C92.5495 71.7746 92.5234 71.6964 92.4916 71.6036L92.3786 71.2676H91.7211L91.6283 71.5689Z" fill="#0061A7"/>
<path fill-rule="evenodd" clip-rule="evenodd" d="M93.9023 71.6988C93.9023 71.8147 93.9834 71.8495 94.0761 71.8611C94.1948 71.8697 94.3252 71.8697 94.4586 71.8553C94.5802 71.8408 94.6845 71.7712 94.7366 71.6988C94.7829 71.6351 94.809 71.5539 94.8264 71.4903H94.9105C94.8786 71.6554 94.838 71.8176 94.8033 71.9828C94.5483 71.9828 94.2934 71.9711 94.0384 71.9711C93.7834 71.9711 93.5286 71.9828 93.2736 71.9828V71.8958H93.3142C93.4185 71.8958 93.5315 71.8814 93.5315 71.7017V70.2127C93.5315 70.062 93.4185 70.0475 93.3142 70.0475H93.2736V69.9606C93.4272 69.9606 93.5778 69.9722 93.7314 69.9722C93.8791 69.9722 94.024 69.9606 94.1717 69.9606V70.0475H94.0992C93.9892 70.0475 93.9023 70.0505 93.9023 70.204V71.6988Z" fill="#0061A7"/>
<path fill-rule="evenodd" clip-rule="evenodd" d="M96.9419 70.3897C96.9216 70.2013 96.8 70.0217 96.6001 70.0217C96.3711 70.0217 96.2437 70.1578 96.2437 70.3867C96.2437 70.8676 97.1128 70.7227 97.1128 71.4181C97.1128 71.8178 96.7825 72.0265 96.4117 72.0265C96.2494 72.0265 96.0931 71.9685 95.9511 71.8961C95.9367 71.7483 95.9163 71.6035 95.9018 71.4557L95.983 71.4384C96.0177 71.6846 96.1569 71.8989 96.4321 71.8989C96.629 71.8989 96.7883 71.7744 96.7883 71.5687C96.7883 71.056 95.9367 71.2152 95.9367 70.5171C95.9367 70.1405 96.2032 69.9174 96.5769 69.9174C96.6579 69.9174 96.9042 69.9493 96.9941 69.9609C96.9941 70.0971 97.0056 70.2361 97.023 70.3751L96.9419 70.3897Z" fill="#0061A7"/>
<path fill-rule="evenodd" clip-rule="evenodd" d="M97.6255 70.1057C97.4082 70.1057 97.3995 70.1578 97.3561 70.3693H97.2692C97.2808 70.2881 97.2953 70.207 97.304 70.1231C97.3155 70.0419 97.3214 69.9608 97.3214 69.8768H97.3909C97.414 69.9637 97.4864 69.9608 97.5647 69.9608H99.0595C99.1378 69.9608 99.2102 69.9579 99.216 69.871L99.2855 69.8827C99.2739 69.9608 99.2624 70.039 99.2536 70.1172C99.2479 70.1956 99.2479 70.2737 99.2479 70.3519L99.161 70.3837C99.1551 70.2767 99.1407 70.1057 98.9466 70.1057H98.4714V71.647C98.4714 71.87 98.5729 71.8961 98.7118 71.8961H98.7669V71.9829C98.654 71.9829 98.4512 71.9713 98.2947 71.9713C98.1209 71.9713 97.9181 71.9829 97.8051 71.9829V71.8961H97.8602C98.0195 71.8961 98.1006 71.8816 98.1006 71.6527V70.1057H97.6255Z" fill="#0061A7"/>
<path fill-rule="evenodd" clip-rule="evenodd" d="M99.6327 70.2593C99.6327 70.0508 99.5255 70.0478 99.4096 70.0478H99.3748V69.9609C99.4994 69.9609 99.6529 69.9724 99.8354 69.9724C100.009 69.9724 100.154 69.9609 100.27 69.9609V70.0478H100.235C100.119 70.0478 100.003 70.0508 100.003 70.2593V71.2588C100.003 71.6267 100.14 71.8817 100.554 71.8817C100.936 71.8817 101.104 71.6383 101.104 71.2471V70.2593C101.104 70.0508 100.994 70.0478 100.896 70.0478H100.838V69.9609C100.954 69.9609 101.072 69.9724 101.188 69.9724C101.301 69.9724 101.411 69.9609 101.524 69.9609V70.0478H101.463C101.385 70.0478 101.278 70.0508 101.278 70.2593V71.1835C101.278 71.8381 100.931 72.0265 100.499 72.0265C99.9426 72.0265 99.6327 71.8237 99.6327 71.3051V70.2593Z" fill="#0061A7"/>
<path fill-rule="evenodd" clip-rule="evenodd" d="M102.257 71.6498C102.257 71.8526 102.349 71.8787 102.558 71.8787C103.051 71.8787 103.305 71.4673 103.305 71.0211C103.305 70.2563 102.917 70.0651 102.454 70.0651C102.387 70.0651 102.321 70.0739 102.257 70.0796V71.6498ZM101.631 71.8961H101.671C101.776 71.8961 101.886 71.8816 101.886 71.7309V70.2129C101.886 70.0622 101.776 70.0478 101.671 70.0478H101.631V69.9609C101.718 69.9609 101.909 69.9724 102.095 69.9724C102.28 69.9724 102.436 69.9609 102.561 69.9609C103.274 69.9609 103.711 70.3606 103.711 70.9661C103.711 71.5455 103.224 72.0178 102.636 71.9829C102.509 71.9772 102.306 71.9713 102.109 71.9713C101.912 71.9713 101.706 71.9829 101.631 71.9829V71.8961Z" fill="#0061A7"/>
<path fill-rule="evenodd" clip-rule="evenodd" d="M103.871 71.8961H103.912C104.016 71.8961 104.126 71.8816 104.126 71.7309V70.2129C104.126 70.0622 104.016 70.0478 103.912 70.0478H103.871V69.9609C103.984 69.9609 104.158 69.9724 104.3 69.9724C104.445 69.9724 104.619 69.9609 104.755 69.9609V70.0478H104.714C104.61 70.0478 104.5 70.0622 104.5 70.2129V71.7309C104.5 71.8816 104.61 71.8961 104.714 71.8961H104.755V71.9829C104.616 71.9829 104.442 71.9714 104.297 71.9714C104.155 71.9714 103.984 71.9829 103.871 71.9829V71.8961Z" fill="#0061A7"/>
<path fill-rule="evenodd" clip-rule="evenodd" d="M104.85 71.8961H104.891C104.995 71.8961 105.105 71.8816 105.105 71.7309V70.2129C105.105 70.0622 104.995 70.0478 104.891 70.0478H104.85V69.9609C105.027 69.9609 105.328 69.9724 105.571 69.9724C105.815 69.9724 106.116 69.9609 106.313 69.9609C106.307 70.0854 106.31 70.2767 106.319 70.4041L106.232 70.4273C106.217 70.2389 106.183 70.0883 105.878 70.0883H105.476V70.8473H105.821C105.994 70.8473 106.032 70.7488 106.049 70.5924H106.136C106.13 70.7053 106.127 70.8183 106.127 70.9314C106.127 71.0415 106.13 71.1515 106.136 71.2616L106.049 71.279C106.032 71.1052 106.023 70.9922 105.823 70.9922H105.476V71.6672C105.476 71.8555 105.644 71.8555 105.829 71.8555C106.177 71.8555 106.33 71.8323 106.417 71.5021L106.498 71.5224C106.461 71.6759 106.426 71.8294 106.4 71.9829C106.215 71.9829 105.881 71.9714 105.621 71.9714C105.36 71.9714 105.015 71.9829 104.85 71.9829V71.8961Z" fill="#0061A7"/>
<path fill-rule="evenodd" clip-rule="evenodd" d="M107.724 70.3897C107.704 70.2013 107.582 70.0217 107.382 70.0217C107.153 70.0217 107.026 70.1578 107.026 70.3867C107.026 70.8676 107.895 70.7227 107.895 71.4181C107.895 71.8178 107.565 72.0265 107.194 72.0265C107.032 72.0265 106.875 71.9685 106.733 71.8961C106.719 71.7483 106.699 71.6035 106.684 71.4557L106.765 71.4384C106.8 71.6846 106.939 71.8989 107.214 71.8989C107.411 71.8989 107.571 71.7744 107.571 71.5687C107.571 71.056 106.719 71.2152 106.719 70.5171C106.719 70.1405 106.986 69.9174 107.359 69.9174C107.44 69.9174 107.687 69.9493 107.776 69.9609C107.776 70.0971 107.788 70.2361 107.805 70.3751L107.724 70.3897Z" fill="#0061A7"/>
<path fill-rule="evenodd" clip-rule="evenodd" d="M109.129 70.2593C109.129 70.0508 109.022 70.0478 108.906 70.0478H108.871V69.9609C108.995 69.9609 109.149 69.9724 109.332 69.9724C109.505 69.9724 109.65 69.9609 109.766 69.9609V70.0478H109.731C109.615 70.0478 109.5 70.0508 109.5 70.2593V71.2588C109.5 71.6267 109.636 71.8817 110.05 71.8817C110.432 71.8817 110.6 71.6383 110.6 71.2471V70.2593C110.6 70.0508 110.49 70.0478 110.392 70.0478H110.334V69.9609C110.45 69.9609 110.569 69.9724 110.685 69.9724C110.797 69.9724 110.908 69.9609 111.02 69.9609V70.0478H110.96C110.881 70.0478 110.774 70.0508 110.774 70.2593V71.1835C110.774 71.8381 110.427 72.0265 109.995 72.0265C109.439 72.0265 109.129 71.8237 109.129 71.3051V70.2593Z" fill="#0061A7"/>
<path fill-rule="evenodd" clip-rule="evenodd" d="M112.994 71.4121L113 71.4063V70.3198C113 70.0823 112.835 70.0475 112.748 70.0475H112.684V69.9606C112.821 69.9606 112.954 69.9722 113.09 69.9722C113.209 69.9722 113.327 69.9606 113.446 69.9606V70.0475H113.403C113.281 70.0475 113.145 70.0707 113.145 70.4154V71.7336C113.145 71.835 113.148 71.9364 113.162 72.0263H113.052L111.56 70.3633V71.5569C111.56 71.809 111.61 71.8958 111.833 71.8958H111.882V71.9828C111.757 71.9828 111.633 71.9711 111.508 71.9711C111.378 71.9711 111.245 71.9828 111.114 71.9828V71.8958H111.155C111.355 71.8958 111.416 71.7597 111.416 71.5278V70.3083C111.416 70.1461 111.282 70.0475 111.152 70.0475H111.114V69.9606C111.224 69.9606 111.337 69.9722 111.447 69.9722C111.534 69.9722 111.618 69.9606 111.705 69.9606L112.994 71.4121Z" fill="#0061A7"/>
<path fill-rule="evenodd" clip-rule="evenodd" d="M113.527 71.8961H113.567C113.672 71.8961 113.782 71.8816 113.782 71.7309V70.2129C113.782 70.0622 113.672 70.0478 113.567 70.0478H113.527V69.9609C113.64 69.9609 113.813 69.9724 113.955 69.9724C114.1 69.9724 114.274 69.9609 114.41 69.9609V70.0478H114.37C114.265 70.0478 114.155 70.0622 114.155 70.2129V71.7309C114.155 71.8816 114.265 71.8961 114.37 71.8961H114.41V71.9829C114.271 71.9829 114.097 71.9714 113.953 71.9714C113.811 71.9714 113.64 71.9829 113.527 71.9829V71.8961Z" fill="#0061A7"/>
<path fill-rule="evenodd" clip-rule="evenodd" d="M115.347 70.0478H115.279C115.172 70.0478 115.129 70.0912 115.129 70.1289C115.129 70.1433 115.14 70.1839 115.155 70.2216L115.65 71.5108H115.656L116.116 70.3056C116.152 70.2157 116.154 70.1636 116.154 70.1433C116.154 70.0594 116.068 70.0478 115.969 70.0478H115.92V69.9609C116.021 69.9609 116.131 69.9724 116.256 69.9724C116.346 69.9724 116.438 69.9609 116.522 69.9609V70.0478H116.494C116.441 70.0478 116.386 70.0565 116.339 70.1491C116.317 70.1896 115.893 71.2587 115.705 71.7396C115.667 71.8352 115.622 71.9308 115.586 72.0264H115.48L114.744 70.2129C114.688 70.0767 114.628 70.0478 114.5 70.0478H114.471V69.9609C114.619 69.9609 114.77 69.9724 114.917 69.9724C115.059 69.9724 115.262 69.9609 115.347 69.9609V70.0478Z" fill="#0061A7"/>
<path fill-rule="evenodd" clip-rule="evenodd" d="M116.598 71.8961H116.639C116.744 71.8961 116.854 71.8816 116.854 71.7309V70.2129C116.854 70.0622 116.744 70.0478 116.639 70.0478H116.598V69.9609C116.776 69.9609 117.077 69.9724 117.32 69.9724C117.563 69.9724 117.865 69.9609 118.062 69.9609C118.056 70.0854 118.059 70.2767 118.067 70.4041L117.981 70.4273C117.966 70.2389 117.932 70.0883 117.627 70.0883H117.224V70.8473H117.569C117.743 70.8473 117.781 70.7488 117.798 70.5924H117.885C117.879 70.7053 117.876 70.8183 117.876 70.9314C117.876 71.0415 117.879 71.1515 117.885 71.2616L117.798 71.279C117.781 71.1052 117.772 70.9922 117.572 70.9922H117.224V71.6672C117.224 71.8555 117.393 71.8555 117.578 71.8555C117.925 71.8555 118.079 71.8323 118.166 71.5021L118.247 71.5224C118.209 71.6759 118.175 71.8294 118.148 71.9829C117.963 71.9829 117.63 71.9714 117.369 71.9714C117.109 71.9714 116.764 71.9829 116.598 71.9829V71.8961Z" fill="#0061A7"/>
<path fill-rule="evenodd" clip-rule="evenodd" d="M119.009 70.9401H119.151C119.441 70.9401 119.598 70.83 119.598 70.4881C119.598 70.2303 119.432 70.0652 119.174 70.0652C119.087 70.0652 119.05 70.0739 119.009 70.0768V70.9401ZM118.638 70.268C118.638 70.0565 118.523 70.0478 118.433 70.0478H118.381V69.9609C118.473 69.9609 118.653 69.9724 118.83 69.9724C119.003 69.9724 119.143 69.9609 119.296 69.9609C119.661 69.9609 119.986 70.0595 119.986 70.4709C119.986 70.7315 119.812 70.8908 119.583 70.9806L120.078 71.7223C120.159 71.844 120.218 71.8788 120.36 71.8962V71.983C120.263 71.983 120.171 71.9714 120.076 71.9714C119.986 71.9714 119.893 71.983 119.803 71.983C119.58 71.6904 119.389 71.3776 119.2 71.0444H119.009V71.6644C119.009 71.8874 119.113 71.8962 119.247 71.8962H119.299V71.983C119.134 71.983 118.965 71.9714 118.8 71.9714C118.661 71.9714 118.525 71.983 118.381 71.983V71.8962H118.433C118.539 71.8962 118.638 71.8469 118.638 71.7396V70.268Z" fill="#0061A7"/>
<path fill-rule="evenodd" clip-rule="evenodd" d="M121.563 70.3897C121.543 70.2013 121.421 70.0217 121.221 70.0217C120.993 70.0217 120.865 70.1578 120.865 70.3867C120.865 70.8676 121.734 70.7227 121.734 71.4181C121.734 71.8178 121.404 72.0265 121.033 72.0265C120.871 72.0265 120.714 71.9685 120.572 71.8961C120.558 71.7483 120.538 71.6035 120.523 71.4557L120.605 71.4384C120.639 71.6846 120.778 71.8989 121.053 71.8989C121.25 71.8989 121.41 71.7744 121.41 71.5687C121.41 71.056 120.558 71.2152 120.558 70.5171C120.558 70.1405 120.824 69.9174 121.198 69.9174C121.279 69.9174 121.525 69.9493 121.615 69.9609C121.615 70.0971 121.627 70.2361 121.644 70.3751L121.563 70.3897Z" fill="#0061A7"/>
<path fill-rule="evenodd" clip-rule="evenodd" d="M121.893 71.8961H121.933C122.038 71.8961 122.148 71.8816 122.148 71.7309V70.2129C122.148 70.0622 122.038 70.0478 121.933 70.0478H121.893V69.9609C122.006 69.9609 122.18 69.9724 122.322 69.9724C122.467 69.9724 122.641 69.9609 122.776 69.9609V70.0478H122.736C122.632 70.0478 122.522 70.0622 122.522 70.2129V71.7309C122.522 71.8816 122.632 71.8961 122.736 71.8961H122.776V71.9829C122.638 71.9829 122.464 71.9714 122.319 71.9714C122.177 71.9714 122.006 71.9829 121.893 71.9829V71.8961Z" fill="#0061A7"/>
<path fill-rule="evenodd" clip-rule="evenodd" d="M123.212 70.1057C122.995 70.1057 122.986 70.1578 122.942 70.3693H122.856C122.867 70.2881 122.881 70.207 122.89 70.1231C122.902 70.0419 122.908 69.9608 122.908 69.8768H122.977C123 69.9637 123.073 69.9608 123.151 69.9608H124.646C124.724 69.9608 124.797 69.9579 124.803 69.871L124.872 69.8827C124.86 69.9608 124.849 70.039 124.84 70.1172C124.835 70.1956 124.835 70.2737 124.835 70.3519L124.747 70.3837C124.742 70.2767 124.727 70.1057 124.533 70.1057H124.058V71.647C124.058 71.87 124.159 71.8961 124.298 71.8961H124.353V71.9829C124.24 71.9829 124.037 71.9713 123.881 71.9713C123.708 71.9713 123.505 71.9829 123.392 71.9829V71.8961H123.447C123.606 71.8961 123.687 71.8816 123.687 71.6527V70.1057H123.212Z" fill="#0061A7"/>
<path fill-rule="evenodd" clip-rule="evenodd" d="M125.831 71.0386L125.252 70.2448C125.164 70.1231 125.109 70.0478 124.973 70.0478H124.944V69.9609C125.101 69.9609 125.243 69.9724 125.399 69.9724C125.55 69.9724 125.689 69.9609 125.827 69.9609V70.0478H125.79C125.712 70.0478 125.64 70.0681 125.64 70.1145C125.64 70.1463 125.674 70.184 125.692 70.2101L126.129 70.8242L126.488 70.3057C126.54 70.2216 126.578 70.1724 126.578 70.1173C126.578 70.0565 126.454 70.0478 126.413 70.0478H126.361V69.9609C126.471 69.9609 126.581 69.9724 126.691 69.9724C126.783 69.9724 126.876 69.9609 126.966 69.9609V70.0478C126.868 70.0478 126.787 70.1173 126.74 70.1811L126.201 70.943V71.6354C126.201 71.8817 126.289 71.8962 126.442 71.8962H126.497V71.983C126.326 71.983 126.152 71.9714 126.025 71.9714C125.879 71.9714 125.706 71.983 125.535 71.983V71.8962H125.59C125.761 71.8962 125.831 71.8498 125.831 71.6585V71.0386Z" fill="#0061A7"/>
<path fill-rule="evenodd" clip-rule="evenodd" d="M61.0556 59.3766C60.8432 59.3968 60.634 59.5354 60.4349 59.5123C60.0907 59.4725 60.0948 59.4376 59.7558 59.3505C59.7558 59.3505 59.2865 59.2322 59.2209 59.2165C59.2171 59.282 59.2089 59.3474 59.2107 59.4127C59.2357 60.3526 59.2866 61.1477 59.2767 62.0872C59.2732 62.4047 59.1301 62.8694 59.0296 63.1811C58.864 63.6958 59.1844 63.7294 59.5487 63.7263C60.2882 63.7196 61.0309 63.6631 61.7655 63.7193C62.2268 63.7547 62.7762 63.7675 63.0427 64.2634C63.1403 64.4443 63.1324 64.7149 63.0928 64.9298C63.0189 65.3295 61.9802 65.9142 61.5774 65.8697C61.1733 65.825 60.7557 65.8067 60.3541 65.8571C59.535 65.9595 58.7252 66.1361 57.9062 66.2423C57.4868 66.296 57.0538 66.235 56.6315 66.2774C56.0816 66.3325 55.5389 66.4781 54.989 66.5089C54.5563 66.5331 54.069 66.5495 53.6915 66.3793C53.0257 66.0789 52.7676 64.7695 53.2488 64.381C53.4043 64.2555 53.6855 64.2717 53.9117 64.2498C54.5509 64.1872 55.1911 64.1355 55.8313 64.0859C56.3102 64.0492 56.4098 63.7197 56.4215 63.522C56.4775 62.5621 56.4694 61.5979 56.5432 60.6396C56.6021 59.8745 56.7623 59.1178 56.8468 58.3538C56.9076 57.7996 56.8797 57.2335 56.97 56.6857C57.0065 56.4641 57.2095 56.197 57.4109 56.0899C57.8514 55.8561 58.1297 56.1418 58.3164 56.5252C58.4714 56.8433 58.5842 57.1887 58.7831 57.4752C58.8669 57.5961 59.1305 57.6577 59.3016 57.6406C60.0803 57.5626 60.8529 57.419 61.6327 57.3619C61.8735 57.3445 62.287 57.4693 62.3441 57.6283C62.4544 57.9373 62.487 58.383 62.3364 58.6516C62.0851 59.101 61.6327 59.3214 61.0556 59.3766Z" fill="#0061A7"/>
<path fill-rule="evenodd" clip-rule="evenodd" d="M68.2427 63.7878C68.2521 63.9658 68.2228 64.1167 68.2774 64.2251C68.3214 64.3123 68.5074 64.4219 68.5602 64.393C68.7123 64.3102 68.8383 64.1706 68.9565 64.0374C69.098 63.878 69.3106 63.6139 69.4218 63.4327C69.4597 63.3714 69.4354 63.2519 69.377 63.2204C69.1856 63.1167 68.956 63.0308 68.751 63.0457C68.5996 63.057 68.3772 63.2747 68.2794 63.415C68.2096 63.5151 68.249 63.6911 68.2427 63.7878ZM71.0122 63.3422C70.9784 63.223 70.8779 63.0883 70.7694 63.0831C70.6396 63.077 70.4549 63.231 70.3249 63.3794C70.1941 63.5283 70.1222 63.7294 69.9953 63.8834C69.7377 64.1965 69.4585 64.4912 69.1938 64.798C69.1707 64.8249 69.1544 64.8979 69.1853 64.9308C69.2126 64.96 69.2686 64.9429 69.3054 64.9314C69.5314 64.8623 69.7525 64.7733 69.982 64.7197C70.3856 64.6251 71.0679 63.8308 71.0122 63.3422ZM71.4212 62.425C71.7386 62.4445 71.8097 62.4226 71.8768 62.3034C72.0986 61.9094 72.1083 61.3879 72.107 60.9373C72.1064 60.7845 71.8328 60.5901 71.6664 60.546C71.5914 60.5261 71.4268 60.5485 71.3354 60.6517C71.0867 60.9316 71.016 61.192 70.8684 61.4991C70.7713 61.7008 70.7064 61.9203 70.6505 62.138C70.6348 62.1977 70.6465 62.3131 70.7347 62.3413C70.9572 62.3852 71.122 62.4069 71.4212 62.425ZM67.3351 64.739C67.322 64.4973 67.282 64.2536 67.3056 64.0159C67.3195 63.8755 67.4458 63.7493 67.4968 63.6076C67.5186 63.5476 67.4992 63.4465 67.458 63.3983C67.4287 63.3639 67.3312 63.3789 67.2656 63.3863C67.1771 63.396 67.0796 63.4536 67.0033 63.4311C66.5042 63.2832 66.4594 63.6805 66.3299 63.977C66.1612 64.3616 65.996 64.7479 65.8269 65.1329C65.6881 65.4493 65.5522 65.767 65.4046 66.0791C65.1688 66.5777 64.6124 66.9019 64.0699 66.7932C63.9273 66.7647 63.7198 66.5043 63.73 66.3641C63.7744 65.7579 63.8985 65.1581 63.9744 64.5538C64.0352 64.0676 64.0583 63.5763 64.1174 63.0901C64.1536 62.7927 64.1639 62.4669 64.2982 62.2131C64.4574 61.9126 64.7185 62.0469 64.8896 62.2597C65.1462 62.5794 65.4421 62.9015 65.2513 63.3662C65.1953 63.5018 65.0678 63.6103 65.0232 63.7475C64.9468 63.9822 64.8974 64.2278 64.8645 64.4726C64.8545 64.5453 64.9259 64.6866 64.9791 64.6965C65.0565 64.7113 65.1983 64.6597 65.2311 64.5949C65.5534 63.9558 65.8624 63.3094 66.1673 62.6618C66.2719 62.4392 66.3088 62.0915 66.4583 61.9833C66.5119 61.9446 66.634 61.9714 66.7227 61.9894C67.1676 62.0798 67.6226 62.2075 68.0145 61.8678C68.122 61.7744 68.1426 61.5858 68.2169 61.4481C68.4843 60.9499 68.7439 60.4472 69.0323 59.9615C69.2947 59.5192 69.5996 59.102 69.865 58.6613C69.9326 58.5485 69.9274 58.5494 69.9123 58.4391C69.9023 58.3672 69.7669 58.2969 69.6869 58.279C69.2178 58.1737 68.9615 58.4391 68.7085 58.7751C68.629 58.8807 68.3824 58.9658 68.2746 58.9185C68.1394 58.8592 67.9607 58.6275 67.9877 58.516C68.1347 57.9146 68.2982 57.3091 68.5486 56.7461C68.6265 56.5716 69.0303 56.4796 69.232 56.4328C69.2952 56.4181 69.4594 56.5242 69.4777 56.5997C69.6222 57.1908 70.0235 57.3834 70.5896 57.142C70.9016 57.0088 71.2284 57.0446 71.427 57.3439C71.6195 57.6341 71.6584 57.9256 71.3831 58.2506C70.9947 58.7107 70.688 59.2388 70.3269 59.7235C70.0486 60.0965 69.723 60.4352 69.4525 60.813C69.2563 61.0867 69.1011 61.3931 68.956 61.6979C68.8799 61.8584 68.7508 62.1204 68.8326 62.202C69.0529 62.4226 69.4157 62.4989 69.7167 62.4925C69.8265 62.4901 69.9452 62.0756 69.9879 61.8361C70.0821 61.3121 70.0608 60.757 70.2267 60.2615C70.2991 60.0455 70.6996 59.8684 70.9795 59.8094C71.4122 59.7181 71.8727 59.7009 72.316 59.7306C72.7189 59.7579 72.9257 60.0629 72.9814 60.4556C73.0714 61.0876 72.9288 61.6748 72.6454 62.2389C72.622 62.2854 72.6877 62.4226 72.7472 62.4579C73.0225 62.6205 73.3491 62.7192 73.5783 62.9276C73.7117 63.0485 73.884 63.3023 73.8147 63.5077C73.7594 63.6712 73.5883 63.6379 73.4829 63.6649C73.3529 63.6981 73.172 63.6825 73.048 63.6675C72.667 63.6221 72.2966 63.4911 71.9202 63.4034C71.7984 63.3751 71.768 63.5234 71.7941 63.4556C71.6618 63.8057 71.4284 64.1405 71.7586 64.529C71.8613 64.6494 71.9109 64.9414 71.8355 65.06C71.6919 65.2858 71.4681 65.5478 71.2296 65.6093C70.5366 65.7871 69.8215 65.8838 69.112 65.9917C68.7778 66.0424 68.4195 66.1192 68.1046 66.0453C67.8962 65.9962 67.712 65.7213 67.5784 65.5091C67.4377 65.2853 67.3136 64.7477 67.3351 64.739Z" fill="#0061A7"/>
<path fill-rule="evenodd" clip-rule="evenodd" d="M89.7395 62.8637C89.9054 62.8053 90.156 62.5621 90.1928 62.3941C90.2552 62.1079 90.3162 61.8104 90.1862 61.5722C89.9879 61.2079 89.7581 60.9813 89.3798 60.6004C89.305 60.5252 89.0374 60.3447 88.9362 60.3436C88.6855 60.3413 88.5148 60.7089 88.4722 60.9023C88.3547 61.4341 88.2959 61.9802 88.2462 62.5241C88.2379 62.6143 88.3162 62.7095 88.373 62.7332C88.4397 62.7614 89.2578 63.0336 89.7395 62.8637ZM90.4431 64.5773C91.2604 64.6144 92.0985 64.4095 92.9423 64.358C93.0658 64.3507 93.2801 64.5207 93.3077 64.6419C93.3348 64.7612 93.2066 65.0121 93.0963 65.0473C92.8103 65.1386 92.8962 65.098 92.5939 65.1382C92.5682 65.1418 92.2203 65.1047 92.1122 65.1787C91.356 65.6963 90.6121 65.4977 89.846 65.4082C89.3283 65.3477 88.8205 65.2044 88.307 65.1033C88.2608 65.0942 88.1805 65.1097 88.1623 65.1412C88.1396 65.1789 88.1722 65.2459 88.17 65.3002C88.1579 65.5931 88.2109 65.9065 88.1031 66.1711C88.0424 66.3206 87.7372 66.2902 87.5731 66.241C87.4153 66.1941 87.2398 66.0326 87.1746 65.8783C86.8375 65.0779 87.1938 64.2837 87.2629 63.4916C87.3387 62.6219 87.5344 61.7631 87.675 60.8993C87.7451 60.4695 87.7844 60.0326 87.892 59.6131C87.9247 59.4854 88.1385 59.3165 88.2696 59.3165C88.8257 59.3165 89.3905 59.3283 89.9343 59.4308C90.1396 59.4695 90.3217 59.7469 90.4678 59.9491C90.6538 60.2057 90.7995 60.4927 90.9493 60.7736C91.0863 61.0313 91.3254 61.308 91.304 61.5582C91.277 61.8742 91.0316 62.1716 90.8814 62.4775C90.8159 62.6104 90.7527 62.7441 90.6887 62.8777C90.8737 62.9106 91.0582 62.9653 91.2442 62.9719C91.553 62.9833 91.8788 62.9446 91.8953 62.5472C91.906 62.2919 91.8247 62.0299 91.766 61.7755C91.6322 61.1934 91.4879 60.614 91.3456 60.0343C91.2803 59.7692 91.1578 59.5051 91.1624 59.2422C91.1646 59.1067 91.2962 58.8918 91.4741 58.8877C91.5439 58.8863 91.701 58.9151 91.8283 59.0054C92.2907 59.3855 92.0224 59.8491 92.1476 60.249C92.275 60.6553 92.4039 61.0657 92.5936 61.4431C92.7232 61.5722 93.0216 61.6063 93.1326 61.4077C93.2912 61.0222 93.4267 60.6076 93.4574 60.1949C93.4815 59.8785 93.2771 59.5473 93.2899 59.2275C93.298 59.0277 93.3755 58.7104 93.6477 58.6418C93.7773 58.6092 94.0533 58.8646 94.1446 59.0355C94.2635 59.2576 94.1814 59.6408 94.3394 59.7787C94.8328 60.2089 94.4426 60.5883 94.3559 60.9837C94.2811 61.3251 94.2085 61.672 94.081 61.9952C93.9456 62.3389 93.9949 62.4091 93.8115 62.7317C93.7552 62.8309 93.4315 63.2348 93.3421 63.3132C93.0825 63.54 92.8212 63.7296 92.5256 63.8917C92.3529 63.9861 92.0838 63.8915 91.8607 63.9123C91.099 63.9843 90.3201 63.8732 89.6078 64.1528C89.5473 64.1762 89.395 64.235 89.4042 64.3138C89.4123 64.3815 89.5186 64.3996 89.5822 64.4128C89.8557 64.4714 90.1265 64.5626 90.4431 64.5773Z" fill="#0061A7"/>
<path fill-rule="evenodd" clip-rule="evenodd" d="M125.023 60.4509C125.325 60.3871 125.415 60.0931 125.533 59.8664C125.587 59.7605 125.551 59.5605 125.483 59.4473C125.359 59.2433 125.183 59.0714 125.025 58.8887C124.987 58.8443 124.937 58.8108 124.892 58.7724C124.855 58.8268 124.811 58.8773 124.785 58.9366C124.699 59.1357 124.593 59.332 124.548 59.5408C124.499 59.7646 124.453 60.0195 124.519 60.226C124.557 60.3483 124.767 60.5048 125.023 60.4509ZM121.941 59.1319C121.912 58.6599 122.086 58.1238 122.198 57.5913C122.219 57.4915 122.332 57.3582 122.44 57.3475C122.583 57.3336 122.718 57.5186 122.731 57.6269C122.794 58.1608 123.088 58.6789 122.852 59.2437C122.823 59.313 122.918 59.51 123.044 59.5381C123.259 59.5866 123.489 59.3683 123.581 59.1977C123.764 58.8547 123.935 58.4667 123.957 58.0881C123.977 57.7407 123.779 57.3845 123.71 57.0259C123.683 56.8862 123.693 56.6427 123.774 56.5941C124.304 56.2779 124.727 56.5275 124.833 57.1937C124.867 57.4101 124.839 57.6484 124.921 57.8423C124.997 58.023 125.171 58.1684 125.321 58.3086C125.408 58.3891 125.528 58.4377 125.641 58.4833C125.763 58.5326 125.893 58.5616 126.019 58.5997C126.039 58.4007 126.107 58.1921 126.069 58.0051C125.983 57.5791 125.808 57.17 125.74 56.7426C125.674 56.3266 126.011 56.1977 126.509 56.4142C126.834 56.5548 126.969 56.8121 126.974 57.1468C126.98 57.5879 126.972 58.0291 126.973 58.4705C126.974 58.8735 127.036 59.2859 126.969 59.6774C126.863 60.31 126.407 60.7396 125.928 61.1197C125.503 61.4561 125.008 61.7134 124.624 62.0879C124.357 62.349 124.278 63.0349 124.092 63.195C123.772 63.4691 123.787 63.9011 123.728 64.3171C123.716 64.4072 123.985 64.5392 124.128 64.6482C124.318 64.7941 124.631 64.876 124.71 64.9842C124.96 65.33 124.639 65.8599 124.437 65.9755C123.742 66.3771 123.851 65.7873 123.599 66.4774C123.322 66.8749 122.932 67.2103 122.541 67.5074C122.249 67.7293 121.023 67.5012 120.764 67.2245C120.704 67.1604 120.677 66.9622 120.718 66.9281C120.835 66.8323 120.991 66.7494 121.139 66.734C121.619 66.6841 122.034 66.522 122.316 66.1196C122.358 66.0602 122.293 65.9183 122.264 65.8184C122.149 65.4204 121.84 65.4206 121.51 65.45C121.258 65.4727 121.002 65.5068 120.75 65.4824C120.563 65.4643 120.511 65.3212 120.509 65.2714C120.508 65.2377 120.554 65.0263 120.67 64.9543C121.086 64.6937 121.482 64.464 121.939 64.3008C122.397 64.137 122.56 63.9178 122.551 63.4276C122.547 63.1633 122.798 62.733 123.04 62.5464C123.289 62.3547 123.339 62.1518 123.496 61.8677C123.541 61.783 123.602 61.623 123.526 61.5426C123.422 61.4317 123.219 61.5239 123.072 61.5523C122.906 61.5844 122.752 61.6731 122.586 61.7147C122.082 61.8422 121.579 61.9975 121.066 62.0617C120.854 62.0879 120.393 61.9536 120.396 61.8124C120.396 61.7994 120.39 61.5714 120.493 61.5314C121.281 61.2217 122.13 61.094 122.951 60.878C123.139 60.8285 123.328 60.7772 123.51 60.707C123.586 60.6774 123.709 60.6251 123.707 60.538C123.703 60.3669 123.453 60.2976 123.303 60.2238C123.078 60.1123 122.892 60.1652 122.784 60.4287C122.74 60.5361 122.666 60.7053 122.542 60.7066C122.392 60.708 122.286 60.5048 122.244 60.3759C122.121 60.0019 121.972 59.6272 121.941 59.1319Z" fill="#0061A7"/>
<path fill-rule="evenodd" clip-rule="evenodd" d="M101.612 61.7747C101.432 61.1166 102.174 61.0252 102.518 60.8925C103.022 60.6978 103.328 60.3688 103.634 59.9655C104.039 59.433 104.09 58.8463 103.984 58.2354C103.964 58.122 103.708 58.0402 103.551 57.9632C103.394 57.8856 103.118 57.9466 103.061 57.7689C102.998 57.5686 103.198 57.3937 103.329 57.2748C103.967 56.6949 105.588 56.7099 106.029 57.2385C106.15 57.3838 106.202 57.6621 106.161 57.8523C106.054 58.3467 105.872 58.8246 105.741 59.3148C105.735 59.3382 105.945 59.4753 106.034 59.4581C106.532 59.3635 106.778 59.6218 106.977 60.0289C107.168 60.4204 106.933 60.6791 106.752 60.9627C106.716 61.0181 106.636 61.0467 106.604 61.1031C106.482 61.3221 106.161 61.6418 106.809 61.489C106.914 61.4643 107.13 61.678 107.199 61.8263C107.24 61.9128 107.123 62.1726 107.024 62.2092C106.388 62.4435 105.741 62.6501 105.09 62.8418C104.476 63.0226 103.852 63.1692 103.235 63.3395C102.78 63.4643 102.335 63.6375 101.873 63.7133C101.74 63.7354 101.431 63.5718 101.406 63.3759C101.384 63.2046 101.59 63.051 101.729 62.9765C102.129 62.763 102.542 62.4816 102.971 62.439C103.485 62.3881 103.841 62.1526 104.166 61.8319C104.436 61.5651 104.655 61.2441 104.878 60.9337C104.918 60.8782 104.929 60.7242 104.858 60.667C104.786 60.6085 104.644 60.6537 104.587 60.7041C104.071 61.1592 103.556 61.6152 103.065 62.0953C102.746 62.4073 102.348 62.4745 101.974 62.3869C101.814 62.3494 101.676 62.0106 101.612 61.7747Z" fill="#0061A7"/>
<path fill-rule="evenodd" clip-rule="evenodd" d="M108.948 65.4915C109.428 65.5893 109.806 65.1207 110.186 64.8212C110.503 64.5713 110.725 64.1983 110.976 63.8694C111.196 63.5813 111.009 63.0297 110.631 62.8597C110.251 62.6891 109.889 62.5379 110.047 61.9926C110.165 61.5838 110.888 61.0744 111.312 61.1064C111.538 61.1231 111.85 61.1389 111.979 61.0108C112.145 60.8448 112.215 60.5393 112.241 60.2856C112.312 59.5815 112.341 58.8729 112.382 58.1657C112.404 57.7742 112.69 57.5976 113.023 57.7953C113.702 58.1971 113.636 58.1936 113.421 59.1423C113.328 59.5553 113.276 59.9794 113.231 60.4008C113.225 60.4558 113.36 60.5907 113.441 60.5677C113.675 60.5011 113.823 60.249 114.041 60.1538C114.21 60.08 114.448 60.0755 114.628 60.1306C115.239 60.3166 115.308 60.8838 115.404 61.3899C115.472 61.7483 115.284 62.0548 114.958 62.224C114.765 62.3244 114.514 62.3182 114.331 62.4291C113.98 62.6404 113.674 62.9275 113.32 63.1326C113.091 63.2651 112.799 63.2842 112.556 63.3998C112.434 63.4578 112.341 63.6048 112.268 63.7311C111.948 64.2842 111.655 64.8537 111.322 65.398C111.127 65.7166 110.882 66.0067 110.642 66.295C110.416 66.566 109.457 66.6367 109.149 66.4568C108.977 66.3567 108.742 66.365 108.572 66.2624C108.43 66.1768 108.253 65.9435 108.252 65.8785C108.249 65.6498 108.377 65.4803 108.624 65.4915C108.717 65.496 108.856 65.4729 108.948 65.4915Z" fill="#0061A7"/>
<path fill-rule="evenodd" clip-rule="evenodd" d="M92.738 65.6822C93.2596 65.8714 93.4608 65.7053 93.9687 65.667C94.2547 65.6455 94.4839 65.5044 94.7468 65.383C94.8468 65.2791 94.8871 65.3163 94.9483 65.0368C94.9952 64.6022 95.0226 64.1653 95.0525 63.7289C95.0883 63.2087 95.1325 62.6885 95.149 62.1673C95.1716 61.4475 95.2156 60.7241 95.1686 60.0076C95.1285 59.3975 94.9889 58.7912 94.8514 58.1929C94.8302 58.1011 94.5793 57.9995 94.4407 58.0078C93.7069 58.0498 92.963 58.0647 92.247 58.2107C91.7524 58.3113 91.3297 58.3303 90.9598 57.9832C90.8218 57.8538 90.6506 57.6709 90.6626 57.4708C90.6793 57.1949 91.0156 57.2513 91.2016 57.2311C91.9788 57.1466 92.7611 57.1079 93.5389 57.0291C93.8145 57.0011 94.0967 56.9401 94.3523 56.8364C94.7801 56.6627 95.2035 56.6141 95.5884 56.877C95.9789 57.1438 95.9702 57.5787 95.97 58.009C95.97 58.4763 96.0287 58.9435 96.0516 59.4114C96.0742 59.8703 96.0846 60.3297 96.0989 60.7891C96.1145 61.2877 96.1452 61.7866 96.1379 62.2852C96.1305 62.7993 96.0806 63.3126 96.0574 63.8264C96.0376 64.263 96.0903 64.7135 95.9997 65.1337C95.896 65.6161 95.7081 66.0914 95.4818 66.5312C95.3466 66.7934 95.1021 67.049 94.8425 67.182C94.6271 67.2927 94.3152 67.2452 94.0498 67.2235C93.3455 67.1657 92.6198 67.119 92.1067 66.5466C91.9617 66.3847 91.8553 66.0971 91.8913 65.8958C91.9159 65.757 92.1952 65.4879 92.3934 65.5557C92.4343 65.5698 92.6974 65.6675 92.738 65.6822Z" fill="#0061A7"/>
<path fill-rule="evenodd" clip-rule="evenodd" d="M76.0897 61.1651C76.0359 60.4273 76.4502 59.8832 76.7784 59.2971C76.9429 59.0043 77.0346 58.6619 77.1119 58.3306C77.1929 57.9788 77.2151 57.6132 77.2701 57.2547C77.2813 57.1825 77.336 57.0801 77.3516 57.0543C77.5748 56.6947 78.2532 56.7832 78.939 57.0724C79.1304 57.1535 79.2481 57.6025 79.176 57.8061C78.9923 58.325 78.6682 58.7926 78.4231 59.2921C78.2913 59.5602 78.1989 59.8488 78.1082 60.1344C78.0923 60.1844 78.1559 60.296 78.2112 60.3262C78.8764 60.686 79.0494 61.0652 78.8951 61.8131C78.6538 62.9856 77.9759 63.8863 77.1472 64.7067C76.7688 65.0807 76.4448 65.5087 76.0793 65.8963C75.986 65.995 75.7859 66.119 75.708 66.0812C75.5001 65.9802 75.2357 65.8312 75.1687 65.6398C75.039 65.2719 75.0387 64.8602 74.9662 64.4698C74.9408 64.3339 74.8359 64.2126 74.8098 64.0767C74.7735 63.8863 74.6221 63.6279 74.7638 63.4941C74.8899 63.3745 75.1691 63.4726 75.2718 63.5686C75.929 64.1827 76.7582 64.0292 77.1293 63.2115C77.1759 63.1083 77.323 63.0433 77.4336 62.9776C77.9069 62.6966 77.8569 62.2018 77.8971 61.7682C77.9302 61.4114 77.6109 61.2011 77.3346 61.3468C77.1918 61.4223 77.0755 61.5921 76.9319 61.6131C76.608 61.66 76.2877 61.6527 76.1998 61.5637C76.1061 61.4685 76.1247 61.3041 76.0897 61.1651Z" fill="#0061A7"/>
<path fill-rule="evenodd" clip-rule="evenodd" d="M81.2266 65.0661C81.1845 64.4247 81.2104 63.78 81.2302 63.1377C81.2648 61.9965 81.3583 60.8557 81.3509 59.7154C81.3481 59.2348 81.1841 58.7453 81.035 58.2783C80.8559 57.715 81.0569 57.2943 81.6271 57.1054C81.8656 57.0266 82.2236 57.332 82.3725 57.4877C82.6955 57.8255 82.5972 57.7623 82.7862 58.0467C83.0307 58.4146 82.9121 58.7909 82.8918 59.1195C82.8431 59.9036 82.7885 60.688 82.699 61.468C82.6264 62.1006 82.4792 62.7244 82.4034 63.3566C82.3377 63.9057 82.3395 64.4627 82.2833 65.0131C82.253 65.311 82.1936 65.6722 82.0941 65.8955C82.0718 65.9458 81.9799 66.006 81.9188 66.0123C81.7175 66.0338 81.4302 65.9797 81.3477 65.8534C81.2062 65.6375 81.2503 65.428 81.2266 65.0661Z" fill="#0061A7"/>
<path fill-rule="evenodd" clip-rule="evenodd" d="M106.062 64.8564C105.895 65.3048 106.119 65.4711 106.228 65.9385C106.354 66.4825 105.942 66.7477 105.522 66.7976C105.251 66.8295 104.914 66.8044 104.695 66.666C104.371 66.4625 104.549 66.2005 104.758 65.9608C104.844 65.8626 104.951 65.6299 104.846 65.5185C104.762 65.4286 104.601 65.5513 104.479 65.5572C104.278 65.5672 104.058 65.6254 103.881 65.5627C103.472 65.4161 103.369 65.5 103.223 65.999C103.162 66.2073 102.946 66.4787 102.757 66.518C102.405 66.5918 102.199 66.3534 102.213 65.9678C102.221 65.7213 102.208 65.4739 102.215 65.2272C102.219 65.08 102.231 64.9305 102.263 64.7872C102.368 64.3197 102.683 64.333 103.071 64.4012C103.49 64.4747 103.929 64.53 104.346 64.4808C104.594 64.4516 104.801 64.1617 105.057 64.0713C105.282 63.9913 105.561 63.9709 105.791 64.0278C105.949 64.0668 106.065 64.1496 106.126 64.3955C106.175 64.5891 106.085 64.7936 106.062 64.8564Z" fill="#0061A7"/>
<path fill-rule="evenodd" clip-rule="evenodd" d="M98.452 63.2788C98.2383 63.2575 98.1486 63.4143 98.0646 63.4853C97.8078 63.7025 97.5109 63.7034 97.3044 63.4951C97.1799 63.3692 97.1595 63.0869 97.1768 62.8823C97.2332 62.2236 97.8099 62.3208 98.234 62.1901C98.4353 62.1281 98.6259 61.9372 98.8143 61.9467C99.4951 61.9808 100.016 62.4281 100.123 63.1747C100.229 63.9167 100.225 64.6781 100.217 65.4309C100.213 65.8489 100.13 66.272 100.032 66.681C99.953 67.0123 99.6742 67.1928 99.3624 67.0503C99.2369 66.9925 99.1809 66.6771 99.1777 66.4778C99.1677 65.8593 99.2178 65.2398 99.2044 64.6213C99.1983 64.3319 99.1582 64.0133 99.0251 63.7662C98.9129 63.5581 98.6981 63.3035 98.452 63.2788Z" fill="#0061A7"/>
<path fill-rule="evenodd" clip-rule="evenodd" d="M85.4976 63.1172C85.0708 63.1608 84.9547 62.7662 84.706 62.5053C84.4941 62.2835 84.1513 62.1883 83.8708 62.0296C83.7707 61.9731 83.6154 61.9029 83.6057 61.824C83.5925 61.7158 83.6449 61.5261 83.7483 61.4907C84.2576 61.3172 84.8023 61.2486 85.3371 61.205C85.7931 61.168 86.5555 61.9114 86.5913 62.3471C86.6336 62.8585 86.279 63.1169 85.4976 63.1172Z" fill="#0061A7"/>
<path fill-rule="evenodd" clip-rule="evenodd" d="M116.314 65.3739C116.311 65.7014 115.97 65.8881 115.761 65.9839C115.576 66.069 115.296 65.9956 115.073 65.9368C114.795 65.8635 114.529 65.7397 114.263 65.6263C113.992 65.5109 113.93 65.3447 114.111 65.0782C114.174 64.985 114.17 64.7979 114.121 64.6862C113.922 64.2246 114.046 64.0495 114.538 64.0063C115.159 63.9524 115.52 64.3036 115.892 64.6935C115.993 64.7992 116.315 65.0383 116.314 65.3739Z" fill="#0061A7"/>
<path fill-rule="evenodd" clip-rule="evenodd" d="M120.671 60.4355C120.559 59.5551 120.759 58.6816 120.835 57.8169C120.847 57.6954 120.996 57.4987 121.155 57.511C121.264 57.5196 121.335 57.6498 121.345 57.7438C121.425 58.5457 121.519 59.3484 121.534 60.1524C121.539 60.3861 121.313 60.6315 121.167 60.8548C121.137 60.9005 120.943 60.9108 120.908 60.8691C120.808 60.7454 120.69 60.5916 120.671 60.4355Z" fill="#0061A7"/>
<path fill-rule="evenodd" clip-rule="evenodd" d="M100.466 58.0233C100.791 58.0302 101.034 58.3062 101.073 58.4673C101.156 58.8131 100.928 59.0081 100.567 59.1122C100.236 59.2075 99.9499 59.4485 99.6221 59.5627C99.4641 59.6178 99.1436 59.5864 99.0954 59.4924C99.0139 59.3337 99.0092 58.992 99.1159 58.9063C99.5213 58.5817 99.8956 58.0113 100.466 58.0233Z" fill="#0061A7"/>
<path fill-rule="evenodd" clip-rule="evenodd" d="M119.502 62.6482C119.489 62.8233 119.392 63.0823 119.28 63.3233C119.23 63.433 119.046 63.5788 118.971 63.5587C118.718 63.4901 118.446 63.2312 118.436 63.0469C118.416 62.6595 118.56 62.2629 118.643 61.8711C118.667 61.7534 118.681 61.6105 118.755 61.5317C118.855 61.4246 118.988 61.2781 119.141 61.2892C119.32 61.3023 119.315 61.5564 119.349 61.7024C119.415 61.9818 119.531 62.2674 119.502 62.6482Z" fill="#0061A7"/>
<path fill-rule="evenodd" clip-rule="evenodd" d="M66.3672 58.8708C66.3738 59.2057 66.0033 59.5512 65.6306 59.5576C65.1852 59.5651 64.8399 59.1328 64.8411 58.5423C64.8418 58.2685 64.9348 58.0873 65.2777 58.0838C65.8676 58.0776 66.4336 58.4171 66.3672 58.8708Z" fill="#0061A7"/>
</g>
<defs>
<filter id="filter0_d_185_305" x="0" y="0" width="154" height="157" filterUnits="userSpaceOnUse" color-interpolation-filters="sRGB">
<feFlood flood-opacity="0" result="BackgroundImageFix"/>
<feColorMatrix in="SourceAlpha" type="matrix" values="0 0 0 0 0 0 0 0 0 0 0 0 0 0 0 0 0 0 127 0" result="hardAlpha"/>
<feOffset dy="16"/>
<feGaussianBlur stdDeviation="6.5"/>
<feColorMatrix type="matrix" values="0 0 0 0 0 0 0 0 0 0 0 0 0 0 0 0 0 0 0.03 0"/>
<feBlend mode="normal" in2="BackgroundImageFix" result="effect1_dropShadow_185_305"/>
<feBlend mode="normal" in="SourceGraphic" in2="effect1_dropShadow_185_305" result="shape"/>
</filter>
</defs>
</svg>
