<svg width="154" height="157" viewBox="0 0 154 157" fill="none" xmlns="http://www.w3.org/2000/svg">
<g filter="url(#filter0_d_200_129)">
<rect width="128" height="128" transform="translate(13)" fill="white"/>
<path fill-rule="evenodd" clip-rule="evenodd" d="M31.3208 54.6236C28.9203 57.0235 27.4362 60.3379 27.4362 64C27.4362 67.6627 28.9203 70.9772 31.3208 73.3777C33.7212 75.7775 37.0351 77.2609 40.6978 77.2609C44.3598 77.2609 47.6743 75.7775 50.0748 73.3777C52.4753 70.9772 53.9587 67.6627 53.9587 64C53.9587 60.3379 52.4753 57.0235 50.0748 54.6236C47.6743 52.2231 44.3598 50.7385 40.6978 50.7385C37.0351 50.7385 33.7212 52.2231 31.3208 54.6236ZM27 64C27 56.4354 33.1326 50.3029 40.6978 50.3022C48.2623 50.3029 54.3949 56.4354 54.3949 64C54.3949 71.5658 48.2623 77.6978 40.6978 77.6978C33.1326 77.6978 27 71.5658 27 64Z" fill="#1B5293"/>
<path fill-rule="evenodd" clip-rule="evenodd" d="M33.7887 57.0908C32.0202 58.8598 30.9265 61.3012 30.9265 63.9997C30.9265 66.6989 32.0202 69.1409 33.7887 70.91C35.5571 72.6778 37.9991 73.7715 40.6977 73.7715C43.3962 73.7715 45.8382 72.6778 47.6066 70.91C49.3757 69.1409 50.4688 66.6989 50.4688 63.9997C50.4688 61.3012 49.3757 58.8598 47.6066 57.0908C45.8382 55.3223 43.3962 54.2293 40.6977 54.2293C37.9991 54.2293 35.5571 55.3223 33.7887 57.0908ZM30.6192 63.9997C30.6192 58.4335 35.1314 53.9219 40.6977 53.9219C46.2639 53.9219 50.7767 58.4335 50.7767 63.9997C50.7767 69.5672 46.2639 74.0794 40.6977 74.0794C35.1314 74.0794 30.6192 69.5672 30.6192 63.9997Z" fill="#1B5293"/>
<path fill-rule="evenodd" clip-rule="evenodd" d="M28.5213 67.0623L29.0988 66.8789L29.1279 66.9706C28.8187 67.2042 28.7065 67.4341 28.7927 67.6621C28.88 67.9373 29.1657 67.998 29.6478 67.8449C30.1243 67.6931 30.3157 67.4577 30.2209 67.1379C30.1156 66.8281 29.8789 66.7178 29.5108 66.8083L29.4755 66.6986C29.9012 66.5771 30.1856 66.7321 30.33 67.1639C30.4806 67.7012 30.299 68.0717 29.7847 68.2756C29.2599 68.3815 28.8949 68.1944 28.6886 67.716C28.6458 67.581 28.6433 67.4137 28.6805 67.2135L28.5504 67.1534L28.5213 67.0623Z" fill="#1B5293"/>
<path fill-rule="evenodd" clip-rule="evenodd" d="M29.0687 65.9931L28.9875 65.4509L28.5029 65.5234C28.3871 65.5345 28.3443 65.6126 28.3722 65.7564L28.2774 65.7719L28.1491 64.9155L28.2439 64.9006C28.2631 65.0729 28.3294 65.1442 28.441 65.1144L29.6022 64.9409C29.718 64.9372 29.7602 64.8492 29.728 64.6788L29.8228 64.6646L29.951 65.5209L29.8562 65.5352C29.8407 65.3877 29.7763 65.327 29.6629 65.3499L29.0928 65.4354L29.1734 65.9782L29.7441 65.8927C29.8593 65.8815 29.9027 65.8035 29.8748 65.6585L29.9696 65.6442L30.096 66.4913L30.0012 66.5049C29.9826 66.3394 29.9176 66.2713 29.8054 66.3016L28.6448 66.4745C28.5283 66.4789 28.4868 66.5638 28.5172 66.7273L28.4224 66.741L28.2954 65.8945L28.3908 65.8803C28.4063 66.0271 28.4707 66.0891 28.5835 66.0656L29.0687 65.9931Z" fill="#1B5293"/>
<path fill-rule="evenodd" clip-rule="evenodd" d="M29.8329 63.8074L29.8564 64.7022L29.7604 64.7047C29.7622 64.5318 29.7058 64.4531 29.5906 64.4686L28.4176 64.4989C28.3017 64.4896 28.2497 64.5708 28.2602 64.7443L28.1642 64.7468L28.1413 63.8526L28.2373 63.8495C28.2348 64.023 28.2918 64.1024 28.4065 64.0856L29.5794 64.0546C29.6953 64.0652 29.7474 63.9834 29.7368 63.8111L29.8329 63.8074Z" fill="#1B5293"/>
<path fill-rule="evenodd" clip-rule="evenodd" d="M28.2155 63.6901L28.1195 63.6808L28.1752 63.0872L29.4009 62.3709L29.4021 62.361L28.5396 62.2804C28.4324 62.2575 28.3605 62.338 28.3239 62.5214L28.2285 62.5134L28.2855 61.8993L28.381 61.9086C28.3853 62.0703 28.4429 62.1497 28.552 62.1472L29.9505 62.2767L29.9288 62.5066L28.539 63.3239L28.5383 63.3338L29.5824 63.4311C29.6952 63.4608 29.7584 63.3691 29.772 63.1584L29.8675 63.1671L29.8061 63.8283L29.7101 63.819C29.733 63.6479 29.6859 63.5631 29.57 63.5649L28.4014 63.4559C28.288 63.4329 28.2254 63.511 28.2155 63.6901Z" fill="#1B5293"/>
<path fill-rule="evenodd" clip-rule="evenodd" d="M29.5276 61.0203L28.9699 61.1064L29.4204 61.4398L29.5276 61.0203ZM30.1181 61.5079L29.952 62.1604L29.8585 62.1369C29.8733 62.0018 29.7959 61.876 29.6267 61.7601L28.4946 60.9063L28.5256 60.7848L30.0989 60.5308C30.2135 60.5196 30.286 60.4595 30.3145 60.3467L30.4075 60.3709L30.1887 61.2285L30.0958 61.2043L30.12 61.1114C30.1509 61.0141 30.1348 60.9602 30.071 60.9509C30.0586 60.9472 30.0332 60.9441 29.9942 60.9404C30.0208 60.941 30.014 60.9422 29.9731 60.9453L29.672 60.9974L29.5394 61.5197L29.7067 61.6418C29.7333 61.6684 29.7792 61.6932 29.8467 61.7168C29.9223 61.7304 29.9712 61.6926 29.9936 61.6052L30.0245 61.4844L30.1181 61.5079Z" fill="#1B5293"/>
<path fill-rule="evenodd" clip-rule="evenodd" d="M29.0314 59.2527L29.4106 58.4745L29.4973 58.5166C29.4131 58.6759 29.4255 58.775 29.5345 58.8134L30.4423 59.2558C30.6325 59.3352 30.7843 59.2806 30.8965 59.0923C31.0198 58.8388 30.9554 58.6498 30.7019 58.5265L29.8976 58.1349C29.8084 58.0698 29.7111 58.1225 29.607 58.2923L29.5209 58.2502L29.7942 57.6888L29.8809 57.7303C29.8251 57.8889 29.8487 57.9862 29.9528 58.0228L30.7391 58.4063C31.0619 58.5631 31.1295 58.8345 30.9411 59.2211C30.7527 59.5929 30.5185 59.7144 30.2391 59.5855L29.366 59.1598C29.2681 59.0972 29.1857 59.1424 29.1181 59.2949L29.0314 59.2527Z" fill="#1B5293"/>
<path fill-rule="evenodd" clip-rule="evenodd" d="M29.9554 57.6013L29.8767 57.5462L30.2169 57.0567L31.6365 57.0362L31.6421 57.0288L30.9314 56.5343C30.8489 56.4618 30.7473 56.4965 30.6253 56.6378L30.5466 56.5826L30.8979 56.0776L30.9766 56.1328C30.901 56.2747 30.9115 56.3726 31.0082 56.4246L32.1613 57.2265L32.0294 57.4148L30.4171 57.4421L30.4115 57.4501L31.2722 58.0487C31.3558 58.1305 31.4556 58.0822 31.5714 57.905L31.6501 57.9601L31.2715 58.5048L31.1922 58.4496C31.2963 58.3114 31.2976 58.2148 31.1953 58.159L30.2324 57.4886C30.145 57.4123 30.0527 57.4508 29.9554 57.6013Z" fill="#1B5293"/>
<path fill-rule="evenodd" clip-rule="evenodd" d="M32.8854 56.4166L32.2905 57.0845L32.2186 57.0207C32.3382 56.8949 32.3506 56.7995 32.2564 56.732L31.3803 55.9518C31.3022 55.8651 31.2086 55.888 31.0983 56.0225L31.0265 55.9587L31.6213 55.2907L31.6932 55.3545C31.573 55.4797 31.5606 55.5763 31.6554 55.6433L32.5316 56.424C32.609 56.5095 32.7032 56.4866 32.8135 56.3521L32.8854 56.4166Z" fill="#1B5293"/>
<path fill-rule="evenodd" clip-rule="evenodd" d="M31.8219 55.1984L31.758 55.1265L32.3678 54.5824L32.4322 54.6537C32.3083 54.7566 32.2742 54.8291 32.3312 54.8737C32.2996 54.8669 32.6069 55.0527 33.2532 55.4295L33.26 55.4233C33.2439 55.3861 33.2222 55.3328 33.1944 55.2628C32.9577 54.6413 32.8455 54.3711 32.8591 54.4536C32.7997 54.3866 32.7191 54.3978 32.6187 54.4876L32.5549 54.4151L32.9707 54.0446L33.0351 54.1165C32.9527 54.2069 32.9335 54.2974 32.9787 54.3854L33.5383 55.8069L33.3871 55.9413L32.0951 55.1866C31.9861 55.1122 31.895 55.116 31.8219 55.1984Z" fill="#1B5293"/>
<path fill-rule="evenodd" clip-rule="evenodd" d="M34.4371 53.0702L34.7835 53.5678L34.6949 53.6254C34.4408 53.4005 34.1911 53.3676 33.9439 53.5287C33.8131 53.5988 33.784 53.6775 33.8578 53.7679L34.1199 54.1707C34.3082 54.0715 34.3628 53.9216 34.2853 53.719L34.3659 53.6669L34.7383 54.2395L34.6571 54.2921C34.5047 54.1391 34.3448 54.1279 34.1775 54.2593L34.4867 54.7358C34.5406 54.8306 34.6255 54.8368 34.7401 54.7544C35.0053 54.5747 35.0815 54.3144 34.9675 53.9755L35.0568 53.9185L35.3914 54.4687L34.0852 55.3176L34.0331 55.2365C34.1812 55.1485 34.2184 55.0586 34.1453 54.9688L33.5058 53.9854C33.4537 53.8813 33.3571 53.8795 33.2152 53.9786L33.1625 53.898L34.4371 53.0702Z" fill="#1B5293"/>
<path fill-rule="evenodd" clip-rule="evenodd" d="M35.4708 52.8433L35.6883 53.3254C35.9652 53.2077 36.0507 53.046 35.9442 52.8408C35.8512 52.6506 35.7236 52.5856 35.5606 52.645C35.4608 52.6897 35.4311 52.7553 35.4708 52.8433ZM36.7472 53.4283L36.8352 53.3892C36.9406 53.6228 36.8848 53.7883 36.6685 53.8862C36.4486 53.9921 36.2831 53.919 36.1691 53.6674C36.0681 53.3967 35.9212 53.3124 35.7279 53.4134L35.9367 53.8781C35.9801 54.02 36.0811 54.0491 36.2391 53.9636L36.2788 54.051L35.4813 54.4104L35.441 54.3236C35.6015 54.258 35.6523 54.1749 35.5935 54.0752L35.1114 53.0057C35.0754 52.8948 34.98 52.8793 34.8251 52.9555L34.7854 52.8681L35.5742 52.5124C35.951 52.3495 36.2032 52.4003 36.3302 52.6674C36.4318 52.9096 36.3067 53.1141 35.9522 53.2808L35.9566 53.2888C36.1747 53.212 36.3562 53.2641 36.5012 53.445C36.6406 53.6129 36.7218 53.6755 36.7435 53.6309C36.7925 53.616 36.7937 53.5479 36.7472 53.4283Z" fill="#1B5293"/>
<path fill-rule="evenodd" clip-rule="evenodd" d="M37.0575 53.719L36.8765 53.0907L36.9782 53.0609C37.1796 53.3912 37.4045 53.5232 37.6523 53.4581C37.8481 53.3949 37.9237 53.2759 37.8804 53.1018C37.85 52.9977 37.6932 52.9388 37.4094 52.9277C37.0228 52.9054 36.8016 52.7957 36.7446 52.5987C36.6653 52.2548 36.7991 52.023 37.1449 51.9028C37.2613 51.8687 37.3816 51.8681 37.5042 51.8991C37.5464 51.9071 37.5736 51.909 37.586 51.9059C37.6108 51.8985 37.6288 51.8706 37.6412 51.8198C37.6437 51.8061 37.6474 51.795 37.6511 51.7869L37.744 51.7597L37.9064 52.3235L37.8141 52.3508C37.6375 52.0608 37.4373 51.9456 37.2136 52.0032C37.0364 52.0608 36.9664 52.1643 37.003 52.313C37.0346 52.4252 37.1882 52.484 37.4646 52.4915C37.8612 52.5039 38.0929 52.6234 38.1586 52.8521C38.2305 53.1712 38.0892 53.3986 37.7348 53.5343C37.6052 53.5721 37.4689 53.5845 37.3252 53.5727C37.2768 53.5659 37.2434 53.5659 37.2248 53.5715C37.1938 53.5796 37.1715 53.6167 37.1566 53.6806L37.1498 53.6929L37.0575 53.719Z" fill="#1B5293"/>
<path fill-rule="evenodd" clip-rule="evenodd" d="M39.1435 53.2172L38.2642 53.3802L38.2463 53.2848C38.4179 53.26 38.4867 53.1918 38.4532 53.0803L38.2401 51.9272C38.2314 51.8107 38.1428 51.7722 37.9736 51.81L37.9563 51.7146L38.8355 51.5523L38.8535 51.6477C38.6819 51.6725 38.6131 51.7406 38.6465 51.8522L38.8597 53.0047C38.8684 53.1212 38.957 53.1602 39.1261 53.1224L39.1435 53.2172Z" fill="#1B5293"/>
<path fill-rule="evenodd" clip-rule="evenodd" d="M39.0007 51.5127L40.5839 51.3999L40.6353 51.9942L40.52 52.0028C40.4209 51.6881 40.2499 51.5393 40.0064 51.5567L40.0993 52.871C40.095 52.9874 40.1885 53.0352 40.38 53.0153L40.3862 53.1108L39.427 53.1783L39.4202 53.0835C39.6253 53.0748 39.7145 53.0141 39.6866 52.9007L39.5943 51.5858C39.3508 51.6032 39.2027 51.7748 39.1482 52.0995L39.0335 52.1076L39.0007 51.5127Z" fill="#1B5293"/>
<path fill-rule="evenodd" clip-rule="evenodd" d="M40.8759 51.4982L40.8834 51.4022L41.6988 51.4642L41.6908 51.5608C41.5631 51.5509 41.4968 51.5714 41.4937 51.6228C41.4919 51.6414 41.5018 51.6779 41.5235 51.7312C41.5291 51.7442 41.5315 51.7542 41.5315 51.7604L41.7527 52.2691L42.0179 51.8267C42.0477 51.7703 42.0638 51.7275 42.0669 51.6947C42.0719 51.6253 42.0043 51.585 41.8637 51.5738L41.8705 51.4778L42.4938 51.5255L42.487 51.6216C42.3389 51.6228 42.2447 51.673 42.2051 51.7734L41.7955 52.4661L41.762 52.9061C41.7403 53.0207 41.8259 53.082 42.0179 53.0901L42.0105 53.1861L41.0705 53.1143L41.0786 53.0188C41.2824 53.0405 41.3797 52.9934 41.3686 52.8763L41.4033 52.4258L41.1337 51.7882C41.0649 51.5899 40.9794 51.4933 40.8759 51.4982Z" fill="#1B5293"/>
<path fill-rule="evenodd" clip-rule="evenodd" d="M43.5245 52.6103C43.3851 53.0974 43.4452 53.3781 43.7042 53.4518C43.9545 53.5299 44.1509 53.3229 44.2916 52.8297C44.4329 52.3371 44.3765 52.0564 44.1212 51.9907C43.8622 51.9169 43.6633 52.1233 43.5245 52.6103ZM43.0808 52.4833C43.2822 51.987 43.6397 51.7862 44.1534 51.8791C44.6305 52.0768 44.8251 52.4356 44.7359 52.9567C44.5419 53.4481 44.1887 53.6439 43.6775 53.5441C43.1843 53.357 42.9848 53.0032 43.0808 52.4833Z" fill="#1B5293"/>
<path fill-rule="evenodd" clip-rule="evenodd" d="M45.3668 54.1733L44.529 53.7854L44.5693 53.6981C44.7236 53.7774 44.8197 53.7613 44.8568 53.651L45.3501 52.5864C45.4096 52.4873 45.36 52.4049 45.2001 52.3373L45.241 52.25L46.6191 52.8894L46.3824 53.4465L46.2857 53.4025C46.3421 53.0679 46.2362 52.8386 45.9691 52.7141C45.8402 52.641 45.7578 52.6589 45.7206 52.7692L45.5186 53.2055C45.7026 53.312 45.8594 53.2792 45.9889 53.1057L46.0763 53.146L45.7894 53.7656L45.702 53.7247C45.7504 53.514 45.6748 53.3728 45.4746 53.3015L45.2317 53.8245C45.1716 53.9249 45.2299 54.0116 45.4071 54.0866L45.3668 54.1733Z" fill="#1B5293"/>
<path fill-rule="evenodd" clip-rule="evenodd" d="M47.5534 53.826L47.2634 54.2449L47.3341 54.2938C47.5243 54.4264 47.6848 54.3973 47.8162 54.2071C47.9295 54.0206 47.9215 53.8749 47.792 53.769C47.7028 53.707 47.6228 53.7262 47.5534 53.826ZM46.9722 55.1204L46.2367 54.6098L46.2918 54.5311C46.4306 54.6352 46.5273 54.6365 46.5831 54.5336L47.2517 53.5695C47.3279 53.4815 47.2932 53.3922 47.1469 53.2981L47.2021 53.2194L47.9289 53.7238C48.2431 53.9574 48.323 54.1959 48.1693 54.4401C47.9903 54.6755 47.743 54.6947 47.4264 54.4989L47.1977 54.3403L46.9177 54.7431C46.834 54.8416 46.87 54.9407 47.0267 55.0405L46.9722 55.1204Z" fill="#1B5293"/>
<path fill-rule="evenodd" clip-rule="evenodd" d="M49.7081 55.225L49.3103 55.6823L49.2328 55.6111C49.389 55.3099 49.3592 55.059 49.143 54.8588C49.0432 54.7485 48.9589 54.7417 48.8902 54.8346L48.563 55.1878C48.7055 55.3452 48.8654 55.362 49.0413 55.2374L49.112 55.3025L48.6485 55.8044L48.5779 55.7387C48.6881 55.5528 48.6596 55.3948 48.4917 55.2647L48.1057 55.6811C48.027 55.7567 48.0419 55.8403 48.1497 55.932C48.3895 56.1446 48.6596 56.1551 48.9602 55.9612L49.0382 56.0337L48.5859 56.4934L47.4433 55.4351L47.5084 55.3644C47.631 55.4865 47.7271 55.5008 47.7959 55.4078L48.5927 54.5465C48.6807 54.4709 48.659 54.3767 48.5277 54.2627L48.5927 54.1927L49.7081 55.225Z" fill="#1B5293"/>
<path fill-rule="evenodd" clip-rule="evenodd" d="M49.9524 55.4743L50.9494 56.7093L50.4915 57.091L50.419 57.0018C50.6204 56.7409 50.6439 56.5153 50.4909 56.3257L49.466 57.1536C49.3681 57.2161 49.3823 57.3202 49.5081 57.4659L49.4332 57.5266L48.829 56.7781L48.904 56.7173C49.0273 56.8815 49.1283 56.9193 49.2064 56.832L50.2313 56.0035C50.0782 55.8145 49.8527 55.7904 49.5552 55.9316L49.4827 55.8418L49.9524 55.4743Z" fill="#1B5293"/>
<path fill-rule="evenodd" clip-rule="evenodd" d="M51.1571 57.5384L50.7023 57.8086C50.8504 58.0701 51.0208 58.137 51.2128 58.0081C51.3913 57.8947 51.4415 57.7596 51.3647 57.6047C51.3089 57.5105 51.2395 57.4889 51.1571 57.5384ZM50.7184 58.8719L50.7679 58.9549C50.5473 59.0857 50.3763 59.0491 50.2549 58.8446C50.1254 58.6383 50.1787 58.4654 50.416 58.3247C50.6744 58.194 50.7419 58.0385 50.6198 57.8569L50.1811 58.1178C50.0442 58.176 50.0275 58.2789 50.1303 58.4276L50.0473 58.4759L49.6005 57.7237L49.6836 57.6747C49.766 57.8266 49.854 57.8675 49.9463 57.7981L50.9557 57.1982C51.0616 57.1511 51.0672 57.0545 50.9737 56.9089L51.0561 56.8593L51.4985 57.6035C51.7017 57.9604 51.6788 58.2157 51.4285 58.3725C51.1992 58.5013 50.9817 58.3985 50.7772 58.0657L50.7686 58.0701C50.8702 58.2783 50.8386 58.4648 50.6756 58.629C50.5232 58.787 50.4699 58.8737 50.5176 58.8911C50.5381 58.9382 50.605 58.9314 50.7184 58.8719Z" fill="#1B5293"/>
<path fill-rule="evenodd" clip-rule="evenodd" d="M51.4647 59.3967C50.9919 59.5789 50.8041 59.7958 50.9008 60.0467C50.9888 60.2946 51.2726 60.3262 51.7509 60.1421C52.2299 59.9581 52.4195 59.7443 52.3192 59.5014C52.2225 59.2505 51.9375 59.2158 51.4647 59.3967ZM51.2992 58.9667C51.8166 58.8291 52.1927 58.9939 52.427 59.4599C52.5571 59.9593 52.3873 60.3311 51.917 60.5728C51.4077 60.7141 51.039 60.5499 50.8109 60.0814C50.6641 59.5745 50.8271 59.2028 51.2992 58.9667Z" fill="#1B5293"/>
<path fill-rule="evenodd" clip-rule="evenodd" d="M51.4255 62.2577L51.117 60.8784L51.2111 60.8573C51.2427 61.0283 51.3134 61.0946 51.4231 61.0568L52.5682 60.8003C52.6834 60.7879 52.7187 60.6974 52.6754 60.5301L52.7689 60.5097L52.9641 61.3815L52.8705 61.4026C52.8389 61.2334 52.7683 61.1665 52.6586 61.2043L51.5228 61.4583C51.4088 61.4763 51.3704 61.5414 51.4082 61.6511C51.4801 61.8847 51.692 62.0117 52.0452 62.0309L52.0681 62.1344L51.4255 62.2577Z" fill="#1B5293"/>
<path fill-rule="evenodd" clip-rule="evenodd" d="M53.2477 63.8534L52.6441 63.9104L52.6373 63.8045C52.9583 63.6948 53.1089 63.4922 53.0909 63.1972C53.094 63.0503 53.0388 62.9865 52.9248 63.0057L52.4446 63.0361C52.4384 63.2486 52.5425 63.3707 52.7569 63.4017L52.7625 63.4983L52.0809 63.5411L52.0747 63.4451C52.2835 63.3868 52.3715 63.2524 52.3393 63.0429L51.7729 63.0776C51.6632 63.0782 51.6168 63.1489 51.6316 63.2901C51.6583 63.6086 51.8473 63.8026 52.1986 63.8701L52.2048 63.9761L51.5604 63.9972L51.4631 62.4419L51.5591 62.4363C51.5635 62.6092 51.623 62.686 51.7376 62.6662L52.9087 62.5924C53.0246 62.5986 53.0735 62.515 53.0562 62.3427L53.1528 62.3365L53.2477 63.8534Z" fill="#1B5293"/>
<path fill-rule="evenodd" clip-rule="evenodd" d="M53.2584 64.1215L53.189 64.9846L53.0929 64.9766C53.114 64.7981 53.0656 64.7108 52.9504 64.7145L51.9435 64.6333C51.7378 64.629 51.6169 64.7356 51.5804 64.9512C51.5574 65.2325 51.6863 65.3843 51.9676 65.4066L52.8593 65.4785C52.9665 65.5064 53.0378 65.4221 53.0725 65.2257L53.1685 65.2337L53.1183 65.8571L53.0229 65.849C53.0167 65.6811 52.9591 65.5993 52.8494 65.6037L51.9769 65.533C51.6188 65.5039 51.4577 65.2753 51.4918 64.8477C51.532 64.4325 51.7055 64.2349 52.0129 64.2522L52.9808 64.3309C53.0948 64.3532 53.1555 64.2807 53.1623 64.1141L53.2584 64.1215Z" fill="#1B5293"/>
<path fill-rule="evenodd" clip-rule="evenodd" d="M51.2519 66.4858L51.4241 65.8742L51.5165 65.9008C51.4793 66.0564 51.5313 66.1543 51.6739 66.1945L52.757 66.4994C52.8536 66.5329 52.92 66.4752 52.9559 66.3253L53.0482 66.3513L52.8549 67.0366L51.6602 67.0602L51.6571 67.0682L52.6653 67.712L52.4695 68.4067L52.3771 68.3806C52.4298 68.2158 52.3995 68.1241 52.2848 68.1049L51.1552 67.7876C51.048 67.7436 50.9737 67.805 50.9328 67.9742L50.8398 67.9481L51.0722 67.124L51.1645 67.15C51.1168 67.2975 51.149 67.3818 51.2624 67.4072L52.4651 67.7461L51.1397 66.883L51.1973 66.6797L52.7731 66.6537L51.6342 66.3327C51.4861 66.2918 51.3901 66.3507 51.3442 66.5112L51.2519 66.4858Z" fill="#1B5293"/>
<path fill-rule="evenodd" clip-rule="evenodd" d="M39.3805 72.109V73.0509C39.3805 73.0986 39.3997 73.1228 39.4399 73.1228H39.5515V73.1816H39.0118V73.1228H39.1171C39.1561 73.1184 39.176 73.0967 39.176 73.0565V72.3197C39.106 72.3587 39.0403 72.3872 38.9783 72.4052L38.9523 72.3587C39.0836 72.2937 39.1958 72.21 39.2881 72.109H39.3805Z" fill="#1B5293"/>
<path fill-rule="evenodd" clip-rule="evenodd" d="M40.0266 72.4316C40.0179 72.6156 40.0576 72.7061 40.145 72.7017C40.1846 72.7017 40.2311 72.6837 40.2838 72.6484C40.2918 72.5784 40.2968 72.5195 40.2968 72.4706C40.2968 72.2686 40.2485 72.1682 40.1518 72.1682C40.0638 72.1639 40.0223 72.2519 40.0266 72.4316ZM39.9411 73.195L39.9015 73.1491C40.0991 73.0884 40.2218 72.9452 40.2701 72.7209C40.2131 72.7606 40.1561 72.7804 40.0991 72.7804C39.9188 72.7668 39.8221 72.6621 39.8091 72.4644C39.8265 72.2444 39.9411 72.1267 40.1518 72.1087C40.3842 72.1217 40.505 72.2711 40.5137 72.5567C40.492 72.8994 40.3011 73.1119 39.9411 73.195Z" fill="#1B5293"/>
<path fill-rule="evenodd" clip-rule="evenodd" d="M40.7988 72.6682L40.818 72.1354H41.1936C41.2289 72.1354 41.2487 72.1242 41.253 72.1025H41.3057L41.2791 72.2996H40.8775L40.8713 72.504C40.9153 72.491 40.9612 72.4836 41.0089 72.4836C41.2419 72.4978 41.3652 72.6131 41.3782 72.8331C41.3602 73.0617 41.2227 73.1819 40.963 73.1956C40.818 73.1912 40.7418 73.1491 40.7325 73.0698C40.7369 73.0134 40.7654 72.9843 40.818 72.9843C40.8577 72.9843 40.893 73.0109 40.924 73.0642C40.9544 73.1119 40.9872 73.1355 41.0225 73.1355C41.1192 73.1274 41.1719 73.0524 41.1805 72.9124C41.1762 72.7544 41.108 72.6707 40.9761 72.6621C40.9327 72.6621 40.8887 72.6732 40.8447 72.6949L40.7988 72.6682Z" fill="#1B5293"/>
<path fill-rule="evenodd" clip-rule="evenodd" d="M41.8473 72.6682L41.8206 72.6224C41.939 72.5263 41.9966 72.4402 41.9917 72.3652C41.9879 72.2865 41.9483 72.2444 41.8733 72.2407C41.8076 72.2407 41.755 72.2797 41.7159 72.359L41.6626 72.3398C41.7196 72.1899 41.8206 72.113 41.9656 72.1093C42.102 72.1174 42.1763 72.1793 42.1893 72.294C42.1893 72.3813 42.1305 72.46 42.0115 72.5301H42.0183C42.1763 72.5387 42.2618 72.6329 42.2748 72.8132C42.2575 73.0549 42.1174 73.1819 41.8535 73.1956C41.7048 73.1863 41.6236 73.1429 41.61 73.0642C41.6143 73.0109 41.6453 72.9824 41.7023 72.9781C41.7376 72.9781 41.7723 73.0022 41.8076 73.0506C41.8429 73.1026 41.8826 73.1299 41.926 73.1299C42.0183 73.1206 42.0666 73.0437 42.071 72.8994C42.0666 72.7451 42.0096 72.6639 41.9 72.6552C41.8907 72.6552 41.8826 72.6571 41.8733 72.662C41.8646 72.6664 41.856 72.6682 41.8473 72.6682Z" fill="#1B5293"/>
<path fill-rule="evenodd" clip-rule="evenodd" d="M38.1713 56.1527H40.231V59.5124C40.231 59.5124 39.5692 59.7887 38.8151 60.6816C38.8151 60.6816 37.8993 60.5781 37.0919 60.9431C36.0286 61.4252 35.0452 62.7438 35.6147 64.4212C36.2027 66.1543 38.0301 66.668 38.092 66.668C38.092 66.668 34.6456 67.3298 33.8605 64.221C33.2694 61.8806 34.8476 59.2199 38.1713 59.0204V56.1527Z" fill="#1B5293"/>
<path fill-rule="evenodd" clip-rule="evenodd" d="M41.2308 56.1533V59.4504C41.2308 59.4504 37.7224 60.8818 38.1685 64.006C38.3073 64.6058 38.8613 64.7446 39.1538 64.7285C39.4462 64.713 40.1384 64.6516 40.1997 63.7445C40.2617 63.0208 40.538 61.1432 42.5085 60.3129C44.109 59.6511 46.1706 60.1425 47.3553 61.528C47.3553 61.528 46.3701 59.0817 43.2775 59.0352V56.1533H41.2308Z" fill="#1B5293"/>
<path fill-rule="evenodd" clip-rule="evenodd" d="M34.691 66.2067C34.691 66.2067 36.2761 67.7602 39.0155 66.9137C40.8924 66.1293 41.0925 64.6675 41.2152 63.7288C41.3082 62.9741 41.8157 62.6048 42.4316 62.6977C42.9236 62.7597 43.4007 63.2362 43.3394 63.8515C43.2774 64.4668 43.0004 66.7911 40.2306 67.9603V70.3298C40.2306 70.3298 40.1538 70.6074 40.4618 70.6378H41.0461C41.0461 70.6378 41.2772 70.6378 41.2617 70.3459V67.8841C41.2617 67.8841 42.216 67.2992 42.5543 66.7452C42.5543 66.7452 43.884 66.8605 45.1394 65.6218C46.3397 64.4364 46.6941 61.0817 43.1392 60.6201C43.1392 60.6201 44.9857 59.8666 46.7709 61.42C48.294 62.7597 47.6936 66.1138 45.6165 67.407C44.5545 68.1456 43.2625 68.3612 43.2625 68.3612V70.1452C43.2625 70.1452 43.4162 71.0691 42.3393 71.3454H39.0614C39.0614 71.3454 38.184 71.1769 38.1685 70.2226V68.3302C38.1685 68.3302 35.8758 68.0378 34.691 66.2067Z" fill="#1B5293"/>
<path fill-rule="evenodd" clip-rule="evenodd" d="M32.3136 71.2753C32.259 71.297 32.1494 71.2753 32.1345 71.2561C32.1196 71.2362 32.1847 71.1953 32.1847 71.1953C32.2169 71.1706 32.2621 71.1767 32.2882 71.1966C32.3148 71.217 32.3681 71.253 32.3136 71.2753ZM32.7517 70.6922C32.8068 70.5652 32.5967 70.4474 32.572 70.4827C32.572 70.4827 32.5149 70.5013 32.528 70.6092C32.5404 70.7176 32.461 70.7275 32.3935 70.7864C32.326 70.844 32.1394 70.9797 32.1394 70.9797C32.1394 70.9797 31.6456 70.7752 31.6041 70.7356C31.5632 70.6953 31.5564 70.8452 31.6313 70.8892C31.7069 70.9326 31.9182 71.0194 31.9616 71.0417C32.005 71.064 32.0546 71.0819 32.0168 71.1117C31.9783 71.1414 31.8879 71.243 31.8482 71.2375C31.8086 71.2338 31.5966 71.1067 31.5483 71.2158C31.5006 71.3248 31.5204 71.4692 31.5458 71.4952C31.5719 71.5206 30.8741 71.9693 30.7087 72.1192C30.5433 72.2692 30.547 72.3324 30.6938 72.2902C30.8401 72.2469 31.047 72.0864 31.2013 71.96C31.3544 71.8348 31.6425 71.6247 31.684 71.613C31.7261 71.6006 31.9641 71.5634 32.0775 71.5578C32.1903 71.5504 32.2287 71.5206 32.3346 71.6241C32.44 71.7257 32.4852 71.7821 32.5478 71.6669C32.611 71.5504 32.6568 71.3403 32.5614 71.2505C32.466 71.1606 32.3105 71.1129 32.3278 71.0888C32.3452 71.0652 32.6959 70.8174 32.7517 70.6922ZM31.2354 71.0187C31.2137 71.1235 31.2416 71.2046 31.311 71.1557C31.3804 71.1061 31.407 70.7002 31.3798 70.5924C31.3525 70.4858 31.2744 70.4648 31.2744 70.4648C31.1393 70.4363 31.1778 70.5968 31.2391 70.6823C31.3005 70.7678 31.2565 70.9159 31.2354 71.0187Z" fill="#1B5293"/>
<path fill-rule="evenodd" clip-rule="evenodd" d="M36.4842 74.8683C36.4408 74.7339 36.346 74.7277 36.2469 74.7488C36.1484 74.7692 36.0499 74.7289 35.9755 74.7426C35.9005 74.7537 36.0418 74.8876 36.0784 74.9377C36.1143 74.9873 36.0065 75.0282 35.9179 75.0257C35.8299 75.0239 35.8045 75.0598 35.7908 75.0288C35.7778 74.9978 35.7468 74.8615 35.7115 74.7915C35.6774 74.7227 35.5857 74.711 35.5857 74.711C35.517 74.6769 35.657 74.8138 35.709 74.9322C35.7605 75.0499 35.7369 75.1484 35.7493 75.2401C35.7617 75.33 35.9185 75.3659 36.0951 75.4514C36.2717 75.5376 36.2903 75.475 36.2804 75.4458C36.2704 75.4161 36.2673 75.2804 36.2989 75.1992C36.3305 75.1168 36.3442 75.1323 36.483 75.1385C36.6212 75.1453 36.5282 75.0034 36.4842 74.8683ZM36.4743 74.0659C36.5865 74.0523 36.7228 74.0535 36.8114 74.113C36.9 74.1719 36.9886 74.1062 36.8672 73.9575C36.7451 73.8094 36.7668 73.8887 36.5889 73.8875C36.4123 73.8862 36.0759 73.8032 36.0697 73.8168C36.0697 73.8168 36.0536 73.8484 36.0895 73.8998C36.1261 73.95 36.0815 74.0002 36.1583 74.0331C36.2351 74.0665 36.3182 74.087 36.2029 74.1403C36.0883 74.1936 35.0584 74.8299 34.4815 74.9501C34.4022 74.9966 34.5243 75.0195 34.8428 74.9396C35.1613 74.8603 35.1966 74.8609 35.5238 74.6961C35.8509 74.5313 36.333 74.2648 36.3956 74.1849C36.4582 74.1068 36.3621 74.0808 36.4743 74.0659Z" fill="#1B5293"/>
<path fill-rule="evenodd" clip-rule="evenodd" d="M41.5972 74.6657C41.5972 74.6657 41.6188 74.7048 41.6554 74.7357C41.6913 74.7673 41.7198 74.9941 41.7223 75.1261C41.7242 75.2575 41.7799 75.3479 41.6486 75.4025C41.5178 75.4576 41.3412 75.4632 41.3958 75.5425C41.4509 75.6206 41.5829 75.6745 41.6238 75.6708C41.6647 75.6683 41.7316 75.7005 41.6498 75.7631C41.568 75.8263 41.1479 76.2452 41.089 76.2607C41.0296 76.2768 41.1114 76.3078 41.327 76.2737C41.5426 76.2384 41.6845 76.2278 41.8146 76.1082C41.9454 75.9899 41.9336 75.8895 41.9727 75.8598C42.0117 75.8306 41.9999 75.8232 42.0885 75.8957C42.1765 75.9688 42.4337 76.3295 42.6165 76.4583C42.7986 76.5878 42.9157 76.5414 43.2144 76.4614C43.3414 76.4001 43.2057 76.3914 43.0273 76.3257C42.8494 76.2601 42.6673 76.1907 42.3884 75.9298C42.109 75.6689 42.0427 75.6404 42.091 75.5834C42.1393 75.5276 42.2732 75.3021 42.3674 75.299C42.4609 75.2965 42.4783 75.1292 42.368 75.0629C42.2577 74.9954 42.1331 75.0356 42.0817 75.0084C42.0309 74.983 42.0049 74.7853 41.9156 74.6979C41.8264 74.6106 41.5222 74.6186 41.5972 74.6657Z" fill="#1B5293"/>
<path fill-rule="evenodd" clip-rule="evenodd" d="M45.3033 74.829C45.242 74.8271 45.1744 74.7249 45.1156 74.6815C45.0561 74.6375 45.1255 74.5718 45.1664 74.5427C45.206 74.5136 45.2804 74.4293 45.1707 74.3624C45.061 74.2961 45.0028 74.2509 44.8652 74.4064C44.7283 74.5613 44.5009 74.7026 44.5498 74.7422C44.5498 74.7422 44.6384 74.8185 44.719 74.7602C44.7995 74.702 44.859 74.6685 44.8522 74.7199C44.846 74.7707 44.8534 74.829 44.9439 74.8792C45.035 74.9306 45.1385 74.9467 45.0976 74.9845C45.0573 75.0229 44.7277 75.2671 44.6682 75.3569C44.6087 75.4468 44.6409 75.4461 44.7493 75.4158C44.8584 75.3854 45.0115 75.3166 45.1081 75.2479C45.2042 75.1785 45.2791 75.1549 45.3089 75.2726C45.338 75.3885 45.3492 75.6928 45.2643 75.7411C45.1788 75.7888 44.7884 75.9103 44.8088 75.9574C44.8293 76.0051 45.097 75.9778 45.1806 76.023C45.2649 76.0683 45.4811 76.0615 45.5276 75.7504C45.5741 75.4387 45.5667 75.3166 45.444 75.0657C45.4657 75.0397 45.5276 74.9851 45.6014 74.9783C45.6757 74.9709 45.6714 74.847 45.5462 74.7986C45.4204 74.7509 45.3653 74.8315 45.3033 74.829ZM45.6912 73.9559C45.6491 73.8847 45.6193 73.7954 45.3498 73.9132C45.0796 74.0321 44.8758 74.2688 44.7115 74.3779C44.548 74.4882 44.9662 74.0315 45.1081 73.9268C45.25 73.8227 45.198 73.6988 45.0778 73.6641C44.9582 73.63 44.8683 73.6765 44.8318 73.6957C44.7952 73.7149 44.6707 73.8692 44.5944 73.9014C44.5188 73.933 44.499 73.9417 44.5058 73.959C44.5058 73.959 44.6074 74.0941 44.6837 74.1102C44.7593 74.1276 44.7847 74.1009 44.7902 73.9999C44.7971 73.9008 44.7772 73.7874 44.8528 73.7632C44.9278 73.7397 45.0053 73.7316 44.9799 73.8153C44.9544 73.8989 44.3664 74.8445 44.3057 74.8061C44.2443 74.7664 44.1972 74.7422 44.1557 74.7596C44.1148 74.7769 44.1464 74.8036 44.1217 74.8786C44.0969 74.9548 44.0138 75.1314 44.1607 75.1822C44.3082 75.2336 44.1954 75.0062 44.3069 74.9064C44.4191 74.8067 44.4501 74.7367 44.714 74.451C44.978 74.1647 45.3145 73.9652 45.3176 74.0204C45.3207 74.0755 45.3256 74.0582 45.237 74.1077C45.1484 74.1573 45.0815 74.2949 45.1428 74.2769C45.2042 74.2595 45.2977 74.1833 45.4452 74.1406C45.5939 74.0978 45.734 74.0272 45.6912 73.9559ZM44.3051 74.3841C44.3937 74.4398 44.4631 74.508 44.5306 74.4392C44.5988 74.3692 44.491 74.1926 44.4488 74.1697C44.4073 74.1468 44.4587 74.2298 44.4166 74.236C44.3745 74.2416 44.0684 74.1889 44.1303 74.288C44.1303 74.288 44.2171 74.3289 44.3051 74.3841Z" fill="#1B5293"/>
<path fill-rule="evenodd" clip-rule="evenodd" d="M39.5036 75.4209C39.454 75.4401 39.4503 75.4432 39.4243 75.556C39.3989 75.6675 39.2743 76.0071 39.2235 76.0616C39.1721 76.1161 39.1758 76.0467 39.1708 76.0027C39.1665 75.96 39.0773 75.9575 39.0407 75.9705C39.0035 75.9841 39.0135 75.9203 39.0221 75.8441C39.0302 75.7679 39.0822 75.8069 39.1969 75.7908C39.3121 75.7735 39.156 75.6105 39.1318 75.59C39.1076 75.5708 39.1523 75.3459 39.1523 75.3459C39.3549 75.2852 39.4299 75.3242 39.5123 75.3416C39.5947 75.3583 39.5532 75.4023 39.5036 75.4209ZM39.8209 75.4946C39.6027 75.2864 39.5426 75.2263 39.1417 75.2666C39.1609 75.2393 39.1337 75.046 39.1925 75.0429C39.2508 75.0404 39.3233 75.0448 39.2533 74.8551C39.1826 74.6655 39.0271 74.5255 39.0042 74.5949C38.9819 74.6649 39.0122 74.6693 38.9961 74.818C38.98 74.9667 38.9763 75.2096 38.9366 75.2616C38.8976 75.3124 38.7061 75.349 38.5933 75.4234C38.5933 75.4234 38.6051 75.4748 38.6813 75.4568C38.7575 75.4376 38.884 75.3732 38.9137 75.3583C38.9434 75.3434 38.9657 75.2976 38.9484 75.4066C38.9317 75.5157 38.9156 75.665 38.8821 75.6557C38.848 75.6458 38.6764 75.5603 38.7005 75.6532C38.7241 75.7456 38.7408 75.815 38.7706 75.8199C38.8009 75.8243 38.8034 75.8559 38.7991 75.8819C38.7953 75.9085 38.7452 75.9308 38.703 75.9284C38.6609 75.9253 38.6758 76.0523 38.5927 75.8645C38.5103 75.6774 38.4316 75.494 38.3789 75.4853C38.3257 75.4779 38.3418 75.4996 38.3951 75.5776C38.4483 75.6557 38.4769 75.7685 38.5054 75.8819C38.5339 75.994 38.4874 76.1886 38.6336 76.1688C38.7799 76.1502 38.7848 76.1428 38.8908 76.1558C38.9973 76.1688 39.0097 76.1174 39.0277 76.1508C39.0457 76.1843 39.0729 76.4247 39.1739 76.4482C39.2743 76.4718 39.3437 76.3745 39.4794 76.1304C39.6158 75.8844 39.6145 75.7443 39.7124 75.7375C39.8103 75.7295 40.039 75.7047 39.8209 75.4946ZM38.0121 75.9389C37.9093 76.0498 37.9396 75.9848 37.8262 75.9903C37.7128 75.9953 37.8826 76.2425 37.9842 76.2357C38.0859 76.2289 38.2247 75.748 38.2247 75.748C38.2371 75.6725 38.115 75.8274 38.0121 75.9389ZM38.1831 75.5708C38.2674 75.577 38.2773 75.5126 38.281 75.4667C38.2841 75.4203 38.0753 75.1786 38.0753 75.1786C37.9551 75.1551 38.0989 75.5653 38.1831 75.5708ZM38.3858 75.1736C38.4564 75.2158 38.4756 75.1687 38.4781 75.103C38.4812 75.0379 38.2674 74.7988 38.2674 74.7988C38.1633 74.7703 38.3151 75.1315 38.3858 75.1736Z" fill="#1B5293"/>
<path fill-rule="evenodd" clip-rule="evenodd" d="M33.2336 73.4822C33.1977 73.4822 33.1549 73.4611 33.0403 73.375C32.9257 73.2888 32.7999 73.1984 32.7999 73.1984C32.7069 73.1054 32.7094 73.2634 32.7863 73.3285C32.8637 73.3929 32.9752 73.4772 33.1394 73.5993C33.3037 73.7232 33.2789 73.6922 33.29 73.6309C33.3018 73.5695 33.2696 73.4815 33.2336 73.4822ZM33.7157 73.4431C33.7882 73.489 33.826 73.4499 33.7888 73.3025C33.751 73.155 33.787 73.0583 33.7479 73.0205C33.7089 72.9827 33.8217 72.8848 33.8409 72.8613C33.8613 72.8383 33.9041 72.8588 34.0107 72.9239C34.1185 72.9883 34.2275 72.9542 34.1935 72.8148C34.16 72.6748 34.168 72.7076 33.8867 72.6574C33.6054 72.6078 33.4208 72.4721 33.4579 72.5242C33.4579 72.5242 33.4245 72.6729 33.5075 72.6872C33.5912 72.702 33.7269 72.7157 33.7163 72.7516C33.7058 72.7882 33.6407 72.8904 33.606 72.9009C33.5707 72.9127 33.5335 72.891 33.523 72.8675C33.5131 72.8433 33.4604 72.8396 33.4536 72.8836C33.4462 72.9282 33.4307 72.9716 33.4239 73.0156C33.4164 73.0596 33.3954 73.0676 33.308 73.0695C33.22 73.0713 33.1004 73.0521 33.0713 73.1637C33.0428 73.2758 33.0614 73.3626 33.1562 73.3768C33.2504 73.3904 33.2702 73.3663 33.3402 73.445C33.4102 73.5243 33.4926 73.4629 33.4877 73.4022C33.4821 73.3421 33.5713 73.2659 33.5837 73.2516C33.5961 73.2368 33.6469 73.2182 33.6451 73.2876C33.6426 73.3564 33.6432 73.3973 33.7157 73.4431ZM33.4548 72.4201C33.4914 72.3705 33.3985 72.3426 33.3985 72.3426C33.3737 72.342 33.3731 72.3668 33.3086 72.4443C33.2442 72.5211 32.9201 72.9053 32.7918 72.9747C32.6636 73.0428 32.6654 73.0955 32.6704 73.1599C32.6766 73.2262 32.8327 73.124 32.9077 73.0465C32.9833 72.9685 33.4177 72.4703 33.4548 72.4201ZM34.6885 73.0794C34.7201 72.9753 34.6854 72.7882 34.6576 72.72C34.6297 72.6506 34.5473 72.4901 34.2467 72.4393C33.9456 72.3885 33.6544 72.285 33.7064 72.3798C33.7064 72.3798 33.7653 72.4641 33.8545 72.4734C33.9431 72.4827 34.2399 72.5198 34.3267 72.5372C34.4128 72.5545 34.5107 72.6363 34.4859 72.7076C34.4624 72.7776 34.2684 73.0137 34.1346 73.1791C34.0007 73.3446 33.528 74.0987 33.4871 74.0033C33.4455 73.9085 33.4022 73.6538 33.3675 73.7312C33.3328 73.8075 33.3322 73.893 33.3043 74.0163C33.2764 74.1396 33.1686 74.3465 33.2968 74.3738C33.4257 74.4011 33.4065 74.4352 33.7758 73.9785C34.1451 73.5212 34.4283 73.1488 34.4772 73.1389C34.5256 73.1296 34.6563 73.1841 34.6885 73.0794Z" fill="#1B5293"/>
<path fill-rule="evenodd" clip-rule="evenodd" d="M47.176 73.8077C47.176 73.9099 47.0936 73.9923 46.9914 73.9923C46.8891 73.9923 46.8067 73.9099 46.8067 73.8077C46.8067 73.7061 46.8891 73.623 46.9914 73.623C47.0936 73.623 47.176 73.7061 47.176 73.8077Z" fill="#1B5293"/>
<path fill-rule="evenodd" clip-rule="evenodd" d="M48.3523 72.9484C48.3461 72.9725 48.3337 73.0017 48.3157 73.0357C48.2984 73.0692 48.2928 73.1027 48.3003 73.1355C48.3046 73.1584 48.304 73.1845 48.2972 73.2161C48.2984 73.2347 48.2984 73.2501 48.2972 73.2638C48.2928 73.2985 48.3108 73.3493 48.3504 73.415C48.3591 73.4329 48.3653 73.4416 48.369 73.4379C48.3765 73.4385 48.3845 73.4292 48.3938 73.4088C48.4267 73.3369 48.457 73.2508 48.4861 73.1504C48.4707 73.1237 48.4514 73.0909 48.4267 73.0531C48.3982 73.0178 48.3734 72.9831 48.3523 72.9484ZM48.1534 72.0053C48.141 71.9892 48.146 71.9799 48.1677 71.9743C48.3777 71.9148 48.4818 71.9043 48.4818 71.9433C48.519 71.9972 48.5574 72.0542 48.5977 72.1119C48.6349 72.1658 48.6683 72.2153 48.6993 72.2624C48.7309 72.198 48.76 72.1286 48.7854 72.0573C48.8065 71.9948 48.8567 71.9768 48.936 72.0034C49.0104 72.0468 49.0333 72.0995 49.0048 72.1608C48.9688 72.2358 48.9379 72.3058 48.9125 72.3703C48.892 72.4322 48.8616 72.4675 48.8214 72.4731C48.861 72.5704 48.8951 72.6367 48.923 72.6726C48.9812 72.7346 49.0339 72.7445 49.081 72.6999C49.1039 72.6875 49.1231 72.6726 49.1399 72.6522C49.156 72.6324 49.177 72.6063 49.2018 72.5741C49.2489 72.5035 49.2954 72.4651 49.3431 72.4595C49.415 72.4527 49.4683 72.4706 49.503 72.5146C49.5476 72.5698 49.5451 72.6231 49.4968 72.6751C49.4491 72.7197 49.3958 72.7656 49.3369 72.8133C49.2824 72.8573 49.2396 72.8883 49.2093 72.9062C49.1244 72.9614 49.0438 72.9657 48.9664 72.9174C48.8914 72.8883 48.8263 72.8244 48.7724 72.7259C48.7377 72.6571 48.7092 72.6063 48.6875 72.5716C48.6782 72.5599 48.6696 72.5537 48.6627 72.553C48.6559 72.5524 48.6479 72.5586 48.6392 72.5716C48.6088 72.654 48.5896 72.7823 48.5816 72.9571C48.5933 72.98 48.607 73.0048 48.6225 73.0314C48.6435 73.0649 48.6634 73.094 48.6826 73.1175C48.685 73.1293 48.6894 73.1386 48.6956 73.1454C48.7043 73.1646 48.7098 73.1801 48.7123 73.1913C48.7117 73.1975 48.7123 73.2068 48.7148 73.2179C48.721 73.226 48.7315 73.2464 48.7452 73.2805C48.7538 73.2985 48.7544 73.3115 48.747 73.3177C48.7464 73.3245 48.7377 73.3226 48.721 73.3096C48.677 73.2867 48.6423 73.2755 48.6175 73.2762C48.6336 73.3933 48.6324 73.4714 48.6132 73.5122C48.594 73.5606 48.5605 73.5866 48.5134 73.5934C48.431 73.5947 48.374 73.5606 48.3424 73.4887C48.3405 73.4707 48.3337 73.4503 48.3219 73.4274L48.3188 73.4112C48.2965 73.3834 48.2656 73.2935 48.2247 73.1386C48.1596 73.1776 48.0778 73.1566 47.9793 73.0748C47.9625 73.0686 47.9539 73.0636 47.9551 73.0556C47.9557 73.0488 47.9638 73.0388 47.9793 73.0258C48.0146 72.9979 48.045 72.9639 48.071 72.9236C48.1088 72.8672 48.1559 72.8133 48.2116 72.7619C48.1379 72.6782 48.0555 72.6162 47.9638 72.5741C47.9464 72.5692 47.9365 72.5605 47.934 72.5493C47.9347 72.5431 47.9427 72.5332 47.9582 72.5208C48.066 72.4527 48.1478 72.4353 48.2061 72.4669C48.2773 72.4991 48.33 72.5413 48.3641 72.5908C48.4174 72.6887 48.4744 72.7922 48.5345 72.8982C48.5543 72.6826 48.5754 72.5332 48.5983 72.4496C48.5277 72.3448 48.4632 72.2618 48.4062 72.1986C48.3486 72.1348 48.3027 72.0939 48.2693 72.0772C48.2649 72.0796 48.2618 72.0796 48.2587 72.0759C48.2067 72.0586 48.1714 72.0356 48.1534 72.0053Z" fill="#1B5293"/>
<path fill-rule="evenodd" clip-rule="evenodd" d="M50.4094 71.3563C50.3698 71.4387 50.3394 71.5217 50.3184 71.606C50.3853 71.5961 50.4367 71.5732 50.4726 71.5378C50.5228 71.5168 50.5315 71.4907 50.4999 71.4585C50.4857 71.4443 50.4677 71.4257 50.4466 71.4046C50.4324 71.3836 50.4206 71.3674 50.4094 71.3563ZM50.1802 71.2658C50.2161 71.2869 50.2446 71.2683 50.2663 71.2119C50.2341 71.1797 50.2074 71.171 50.1864 71.1853C50.1616 71.2169 50.1591 71.2435 50.1802 71.2658ZM50.2093 70.7484C50.1882 70.7484 50.1771 70.7732 50.1771 70.8228C50.1734 70.8407 50.1715 70.8562 50.1715 70.8705C50.1641 70.899 50.161 70.917 50.161 70.9238C50.1461 70.9733 50.1356 71.0273 50.1281 71.0843C50.2062 71.0409 50.2669 71.031 50.3091 71.0527C50.3171 70.9882 50.3066 70.9139 50.2781 70.8277C50.257 70.772 50.2341 70.7453 50.2093 70.7484ZM49.3895 70.5315C49.4143 70.5284 49.4515 70.5123 49.5017 70.4845C49.5085 70.477 49.5141 70.4721 49.5178 70.4677C49.589 70.412 49.6615 70.3921 49.7365 70.4107C49.8003 70.4169 49.8301 70.4336 49.827 70.4584C49.8437 70.5123 49.814 70.5638 49.7353 70.6133C49.7068 70.6338 49.6733 70.6747 49.6337 70.7348C49.5909 70.7918 49.5302 70.8841 49.4515 71.0111C49.4335 71.0434 49.4267 71.0434 49.4298 71.0111C49.4695 70.9232 49.511 70.8222 49.5543 70.7081C49.5859 70.648 49.5754 70.6164 49.5221 70.6121C49.4515 70.6053 49.405 70.5904 49.3839 70.5687C49.3697 70.5625 49.3641 70.5563 49.3678 70.5526C49.3678 70.5458 49.3753 70.539 49.3895 70.5315ZM49.8425 70.5173C49.8567 70.4541 49.8784 70.4182 49.9069 70.4113C49.9205 70.412 49.9354 70.4082 49.9497 70.4002C49.9676 70.3971 49.9831 70.3915 49.9974 70.3847C50.0333 70.3779 50.0563 70.3835 50.0668 70.4008C50.081 70.4151 50.0823 70.4454 50.0717 70.4913C50.0389 70.6511 50.0302 70.7633 50.0439 70.8271C50.1083 70.7069 50.2062 70.6629 50.3376 70.6957C50.3797 70.7026 50.4014 70.7212 50.4008 70.749C50.4045 70.7806 50.4082 70.8023 50.4113 70.8129C50.4534 70.9771 50.4565 71.101 50.4212 71.1859C50.428 71.2076 50.4367 71.22 50.4479 71.2237C50.5148 71.1413 50.5761 71.0744 50.6294 71.0217C50.6542 70.9969 50.6883 70.982 50.731 70.974C50.8661 70.9672 50.951 71.0211 50.9857 71.1357C50.9894 71.1673 50.9783 71.1846 50.9535 71.1884C50.943 71.1989 50.9324 71.2057 50.9219 71.2094C50.8971 71.2131 50.8649 71.22 50.8252 71.2305C50.8184 71.2373 50.8116 71.241 50.8048 71.241C50.7471 71.2547 50.6926 71.2602 50.6393 71.2559C50.6288 71.2602 50.6245 71.2596 50.6288 71.2559C50.6319 71.2528 50.6393 71.2454 50.6499 71.2348C50.7354 71.1784 50.7676 71.1332 50.7465 71.0967C50.6932 71.0427 50.604 71.096 50.4788 71.2559C50.5427 71.3265 50.5854 71.3662 50.6065 71.3736C50.6734 71.4337 50.718 71.4889 50.7397 71.5391C50.7391 71.5527 50.7459 71.5707 50.7602 71.5924C50.7639 71.5961 50.7695 71.6017 50.7763 71.6091C50.7942 71.6481 50.7676 71.6636 50.6963 71.6562C50.6325 71.6345 50.5594 71.6357 50.4776 71.6605C50.4528 71.6717 50.4169 71.6785 50.371 71.681C50.3462 71.6785 50.3264 71.6766 50.3122 71.676C50.319 71.7615 50.3314 71.8278 50.3487 71.8737C50.3667 71.927 50.3574 71.9536 50.3215 71.953C50.2719 71.953 50.2242 71.9437 50.1777 71.9264C50.1529 71.9152 50.1374 71.9028 50.13 71.8879V71.8774C50.1263 71.8241 50.0953 71.7677 50.0352 71.707C50.0172 71.6816 50.0246 71.6605 50.0562 71.6432C50.0885 71.6395 50.1151 71.6488 50.1362 71.6698C50.1579 71.6983 50.1808 71.6866 50.2056 71.6333C50.2917 71.4703 50.3487 71.3668 50.3778 71.3241C50.3636 71.3104 50.3493 71.2962 50.3351 71.2813C50.239 71.3346 50.1628 71.3185 50.1064 71.233C50.1064 71.254 50.1114 71.2912 50.1213 71.3445C50.1287 71.3662 50.1343 71.3823 50.1374 71.3928C50.1585 71.443 50.1511 71.4715 50.1157 71.4777C50.0265 71.5093 49.9627 71.4709 49.9243 71.3606C49.9137 71.3346 49.9137 71.3203 49.9243 71.3173C49.9348 71.3284 49.9354 71.3073 49.9249 71.2534C49.9007 71.1146 49.8871 70.9405 49.884 70.7304C49.8846 70.71 49.8809 70.7057 49.8735 70.7212C49.8158 70.8482 49.7675 70.995 49.7278 71.1617C49.7204 71.2906 49.6473 71.3761 49.5079 71.422C49.4409 71.4536 49.3908 71.4468 49.3592 71.3997C49.3486 71.3897 49.3505 71.3805 49.3647 71.3736L49.3703 71.3687C49.4484 71.3334 49.5358 71.2076 49.6324 70.9907C49.6473 70.9628 49.6671 70.9219 49.6919 70.8686C49.7421 70.7552 49.7793 70.6722 49.8047 70.6189C49.8152 70.6003 49.8282 70.5675 49.8425 70.5173Z" fill="#1B5293"/>
<path fill-rule="evenodd" clip-rule="evenodd" d="M64.0912 58.5C64.0014 58.8135 63.5298 59.2181 63.3948 59.2181C63.2603 59.2181 63.3049 58.7912 63.3049 58.7912C63.3049 58.5663 63.4846 58.3866 63.6649 58.342C63.8446 58.2973 64.1811 58.1846 64.0912 58.5ZM66.6076 58.8135C66.3151 58.1393 65.5517 57.2185 64.8323 57.3307C64.1142 57.4435 63.3725 57.9603 63.3272 57.8022C63.2826 57.6455 63.3948 55.2642 63.0354 54.59C62.676 53.9159 61.4404 54.4333 61.508 54.6576C61.508 54.6576 61.3952 54.9724 61.912 55.2865C62.4287 55.6007 62.2044 55.9824 62.2267 56.4775C62.249 56.9713 62.2044 58.2527 62.2044 58.2527C62.2044 58.2527 59.6205 59.712 59.3058 59.7572C58.9916 59.8024 59.6205 60.3422 60.0698 60.1618C60.519 59.9821 61.6201 59.3526 61.8673 59.2404C62.1146 59.1283 62.3612 58.9709 62.3612 59.2404C62.3612 59.5106 62.4963 60.2517 62.3389 60.4091C62.1815 60.5658 60.9013 61.0603 61.2155 61.6446C61.5303 62.229 62.2267 62.633 62.4287 62.6107C62.6314 62.5884 62.2044 67.1712 62.2943 68.4068C62.3841 69.6423 62.676 69.8456 62.9908 69.058C63.3049 68.2717 63.3049 66.8118 63.2826 65.7107C63.2603 64.6102 63.3278 62.633 63.4177 62.408C63.5075 62.1837 64.1588 61.0157 64.5182 60.4989C64.8782 59.9821 64.8782 59.712 65.6862 59.5998C66.4948 59.4883 66.8994 59.4883 66.6076 58.8135ZM57.9134 60.2517C57.3514 60.0045 56.992 60.274 56.992 60.274C56.4077 60.7685 57.2393 61.1502 57.823 61.1725C58.4073 61.1954 58.9017 61.8919 59.2834 62.3405C59.6651 62.791 60.115 62.9477 60.1373 62.4756C60.1596 62.0034 58.4748 60.4989 57.9134 60.2517Z" fill="#1B5293"/>
<path fill-rule="evenodd" clip-rule="evenodd" d="M72.2015 64.6328C72.0442 64.7672 71.7746 64.8342 70.9431 64.8788C70.1121 64.9252 69.2136 64.9922 69.2136 64.9922C68.4496 64.9252 69.0563 65.6211 69.6406 65.6211C70.2249 65.6211 71.0335 65.5759 72.2239 65.5083C73.4148 65.4414 73.1899 65.3962 73.0102 65.082C72.8311 64.7672 72.3589 64.4971 72.2015 64.6328ZM74.2011 62.6555C74.695 62.588 74.7179 62.2732 73.9985 61.7564C73.2797 61.2396 73.0777 60.6782 72.7629 60.6553C72.4488 60.633 72.5832 59.7797 72.5832 59.6C72.5832 59.421 72.8528 59.3528 73.5722 59.2407C74.291 59.1279 74.6504 58.5665 73.9762 58.072C73.302 57.5775 73.4594 57.6903 72.0212 58.5219C70.5843 59.3528 69.2583 59.4433 69.6183 59.5331C69.6183 59.5331 70.0223 60.3188 70.4492 60.0722C70.8761 59.8244 71.5274 59.3757 71.6178 59.5777C71.7071 59.7797 71.7975 60.4762 71.6848 60.6553C71.572 60.8356 71.3254 60.8802 71.1909 60.8133C71.0558 60.7458 70.8086 60.9255 70.9431 61.1504C71.0781 61.3747 71.168 61.6226 71.3031 61.8469C71.4381 62.0712 71.3706 62.1839 70.9883 62.521C70.6066 62.8581 70 63.2169 70.2918 63.8235C70.5843 64.4301 70.9883 64.7449 71.4605 64.4525C71.932 64.1606 71.932 63.9803 72.5386 64.0714C73.1453 64.1606 73.2797 63.5769 73.0325 63.329C72.7852 63.0818 72.898 62.4076 72.898 62.2961C72.898 62.184 73.0554 61.9144 73.302 62.2286C73.5493 62.5433 73.7067 62.723 74.2011 62.6555ZM69.2136 59.0833C69.1913 58.7239 68.6746 58.9482 68.6746 58.9482C68.5618 59.038 68.6516 59.1508 68.6516 59.7345C68.6516 60.3188 68.6516 63.2398 68.3375 64.0261C68.0227 64.8118 68.2253 65.0368 68.4949 65.3069C68.7644 65.5759 69.0786 64.5423 69.1238 63.9134C69.1684 63.2838 69.2359 59.4433 69.2136 59.0833ZM77.1667 57.3978C76.9195 56.8141 76.0656 56.1177 75.6839 55.9157C75.3016 55.713 74.3362 55.309 72.8082 56.2075C71.2808 57.1066 69.5953 57.7349 70.1797 57.9599C70.1797 57.9599 70.764 58.1166 71.1909 57.8254C71.6178 57.5329 73.0777 56.5898 73.527 56.342C73.9762 56.0954 74.7179 56.0954 74.8747 56.5C75.0321 56.904 75.0544 58.6793 75.0773 59.9148C75.0996 61.1504 75.8184 66.2723 75.2793 66.0028C74.7402 65.7326 73.5945 64.7672 73.729 65.2388C73.864 65.7103 74.1788 66.0926 74.5153 66.7439C74.8524 67.3964 75.1448 68.7218 75.8184 68.3624C76.4926 68.0024 76.5378 68.2267 76.4702 64.8118C76.4027 61.397 76.2682 58.6793 76.4473 58.4537C76.6276 58.23 77.414 57.9828 77.1667 57.3978Z" fill="#1B5293"/>
<path fill-rule="evenodd" clip-rule="evenodd" d="M87.9055 61.8468C87.2989 61.2172 86.7598 61.4421 86.2653 61.8238C85.7708 62.2062 85.1196 62.2508 84.7373 62.5209C84.3556 62.7905 85.5019 63.1499 85.8384 63.3289C86.1755 63.5093 85.681 64.026 85.1871 64.2503C84.6927 64.4747 84.6474 64.7448 84.4907 64.6104C84.3333 64.4747 83.7942 63.8011 83.4125 63.5093C83.0302 63.2168 82.4911 63.3965 82.4911 63.3965C82.0189 63.3965 83.1646 63.7788 83.7713 64.295C84.3779 64.8117 84.513 65.419 84.8271 65.8905C85.1425 66.3621 86.1085 66.1371 87.3212 66.1371C88.5344 66.1371 88.4669 65.7325 88.3318 65.5987C88.1973 65.4636 87.815 64.7225 87.7704 64.1834C87.7252 63.6431 87.838 63.6883 88.6243 63.3519C89.4107 63.0148 88.5121 62.4751 87.9055 61.8468ZM85.681 57.42C86.2653 57.039 87.0287 56.6796 87.6806 56.7694C88.3318 56.8587 88.6466 56.2526 87.5684 55.7582C86.4896 55.2643 86.8273 55.646 85.8384 56.1176C84.8501 56.5897 82.7606 57.039 82.7606 57.1288C82.7606 57.1288 82.7606 57.3537 83.0977 57.5328C83.4348 57.7125 83.3226 58.1165 83.8388 58.0942C84.3556 58.0719 84.8724 57.9604 84.3779 58.5664C83.884 59.1736 79.8849 65.4859 77.0091 67.7104C76.6943 68.182 77.4361 67.98 78.9858 66.6762C80.5361 65.3738 80.7387 65.2839 82.1094 63.4863C83.4794 61.6894 85.4338 58.9035 85.5688 58.2968C85.7033 57.6902 85.0967 57.8024 85.681 57.42Z" fill="#1B5293"/>
<path fill-rule="evenodd" clip-rule="evenodd" d="M106.44 55.2862C106.44 55.2862 106.552 55.5334 106.754 55.7361C106.957 55.9381 107.024 57.3081 106.979 58.0944C106.934 58.8814 107.226 59.4428 106.417 59.7123C105.608 59.9812 104.553 59.9366 104.845 60.4317C105.137 60.9256 105.901 61.3079 106.147 61.3079C106.395 61.3079 106.776 61.5316 106.26 61.8693C105.743 62.2063 103.047 64.5195 102.688 64.587C102.329 64.6552 102.8 64.8789 104.103 64.7673C105.406 64.6552 106.26 64.6552 107.091 64.0039C107.923 63.3521 107.9 62.7454 108.147 62.588C108.394 62.43 108.327 62.3854 108.821 62.8582C109.316 63.3285 110.686 65.5989 111.72 66.4527C112.753 67.3054 113.472 67.0811 115.291 66.7434C116.078 66.4292 115.269 66.3177 114.236 65.8449C113.202 65.374 112.146 64.8789 110.596 63.1947C109.045 61.5099 108.664 61.3079 108.978 60.9931C109.293 60.6783 110.192 59.3975 110.753 59.4211C111.315 59.4428 111.494 58.4538 110.865 58.0052C110.236 57.5553 109.473 57.735 109.18 57.5553C108.889 57.3756 108.821 56.1847 108.327 55.6233C107.833 55.0619 106.013 54.9714 106.44 55.2862Z" fill="#1B5293"/>
<path fill-rule="evenodd" clip-rule="evenodd" d="M122.795 61.7119C122.458 61.5546 122.324 60.8358 122.099 60.4541C121.875 60.0724 122.414 59.8691 122.706 59.8022C122.998 59.7347 123.605 59.4434 123.155 58.8133C122.706 58.1849 122.481 57.802 121.358 58.3423C120.234 58.8814 118.639 59.128 118.819 59.4651C118.819 59.4651 119.133 60.0947 119.718 59.9596C120.302 59.8245 120.706 59.7799 120.549 60.0488C120.392 60.319 120.302 60.6555 120.684 61.1499C121.065 61.645 121.605 61.9815 121.29 62.0936C120.976 62.2064 118.572 62.7907 118.032 63.1495C117.494 63.5089 117.673 63.5764 118.347 63.6657C119.021 63.7568 120.032 63.7338 120.729 63.5764C121.425 63.4197 121.897 63.4643 121.785 64.1831C121.672 64.9012 121.021 66.6096 120.436 66.6765C119.852 66.7434 117.403 66.4974 117.403 66.8116C117.403 67.1257 118.954 67.5979 119.313 68.0478C119.672 68.4964 120.886 68.9685 121.875 67.3507C122.863 65.7328 123.11 65.0369 123.02 63.3515C123.2 63.2617 123.672 63.1049 124.099 63.24C124.525 63.3738 124.795 62.6786 124.211 62.1159C123.627 61.5546 123.133 61.8693 122.795 61.7119ZM126.997 57.7803C126.93 57.2852 126.974 56.7245 125.199 56.7468C123.425 56.7691 121.74 57.6006 120.572 57.8256C119.403 58.0499 122.795 56.4995 123.829 56.2523C124.863 56.0051 124.863 55.1964 124.278 54.7249C123.694 54.2533 123.088 54.2979 122.841 54.3203C122.593 54.3426 121.538 54.9046 121.043 54.9046C120.549 54.9046 120.414 54.9046 120.414 55.0167C120.414 55.0167 120.661 56.0051 121.043 56.2752C121.425 56.5441 121.627 56.4549 121.897 55.9158C122.166 55.3761 122.324 54.7019 122.795 54.7472C123.268 54.7918 123.717 54.9275 123.38 55.3309C123.043 55.7355 117.561 59.5996 117.313 59.2408C117.067 58.8814 116.865 58.6336 116.595 58.6336C116.325 58.6336 116.438 58.8591 116.123 59.2185C115.809 59.5779 114.932 60.3642 115.629 60.9932C116.325 61.6221 116.235 60.0947 117.089 59.8022C117.943 59.5104 118.28 59.1956 120.414 58.2302C122.549 57.2629 124.885 56.9481 124.773 57.2629C124.661 57.5777 124.727 57.4885 124.121 57.5554C123.514 57.6229 122.818 58.2302 123.2 58.2742C123.582 58.3188 124.278 58.1168 125.199 58.2302C126.12 58.3423 127.064 58.2742 126.997 57.7803ZM118.302 56.9035C118.662 57.4203 118.886 57.96 119.426 57.7351C119.965 57.5108 119.785 56.2752 119.606 56.0497C119.426 55.826 119.516 56.4097 119.268 56.3421C119.021 56.2752 117.449 55.2646 117.561 55.9604C117.561 55.9604 117.943 56.3868 118.302 56.9035Z" fill="#1B5293"/>
<path fill-rule="evenodd" clip-rule="evenodd" d="M100.104 60.0944C99.8348 60.2518 99.8125 60.2735 99.7673 60.9476C99.7227 61.6224 99.318 63.7118 99.0708 64.0712C98.8236 64.43 98.7789 64.026 98.7114 63.7788C98.6445 63.5315 98.1277 63.5984 97.9251 63.7118C97.7231 63.824 97.7231 63.4417 97.7008 62.9924C97.6778 62.5432 98.0149 62.7229 98.6668 62.5209C99.318 62.3183 98.2622 61.5096 98.1048 61.4198C97.948 61.3299 97.9926 59.981 97.9926 59.981C99.1154 59.4425 99.5876 59.5993 100.081 59.6222C100.577 59.6445 100.374 59.9364 100.104 60.0944ZM102.014 60.2288C100.554 59.2182 100.15 58.9257 97.8575 59.533C97.948 59.3527 97.6103 58.2522 97.948 58.1846C98.2845 58.1171 98.7114 58.0719 98.1277 57.0389C97.5434 56.0048 96.5098 55.3306 96.4423 55.7581C96.3747 56.1844 96.5544 56.1844 96.5997 57.0612C96.6449 57.938 96.8469 59.3527 96.6672 59.6898C96.4875 60.0268 95.4087 60.4092 94.8244 60.9476C94.8244 60.9476 94.9372 61.2401 95.3635 61.0604C95.791 60.8807 96.4652 60.3869 96.622 60.2735C96.7794 60.1613 96.8692 59.8695 96.8692 60.5207C96.8692 61.1726 96.9144 62.0487 96.7118 62.0264C96.5098 62.0035 95.431 61.667 95.656 62.1838C95.8809 62.7 96.0377 63.0817 96.218 63.0817C96.3977 63.0817 96.4423 63.2614 96.4423 63.4194C96.4423 63.5761 96.1727 63.7565 95.9255 63.7788C95.6783 63.8011 95.8809 64.5199 95.2296 63.5092C94.5778 62.4986 93.9488 61.5096 93.6341 61.5096C93.3193 61.5096 93.4321 61.6224 93.8138 62.0264C94.1955 62.4304 94.4656 63.0594 94.7346 63.6883C95.0047 64.3172 94.9149 65.4859 95.7458 65.2386C96.5767 64.992 96.5997 64.9468 97.2286 64.9239C97.8575 64.9015 97.8805 64.5868 98.0149 64.7671C98.15 64.9474 98.5317 66.3174 99.1377 66.362C99.7443 66.4073 100.059 65.7777 100.621 64.228C101.183 62.6777 101.048 61.869 101.609 61.7339C102.171 61.6001 103.475 61.2401 102.014 60.2288ZM91.9263 64.4746C91.4325 65.2163 91.5446 64.8117 90.8934 64.9474C90.2415 65.0819 91.4554 66.362 92.0391 66.2276C92.6234 66.0925 92.9828 63.1721 92.9828 63.1721C92.9828 62.7223 92.4208 63.7341 91.9263 64.4746ZM91.5899 60.0039C90.8711 59.981 92.0843 62.2284 92.5782 62.1838C93.0721 62.1386 93.0721 61.7569 93.0497 61.4867C93.0274 61.2178 91.5899 60.0039 91.5899 60.0039ZM93.859 59.1959C93.8138 58.8136 92.3539 57.6233 92.3539 57.6233C91.725 57.5551 92.9376 59.5107 93.3875 59.6898C93.8367 59.8695 93.9042 59.5776 93.859 59.1959Z" fill="#1B5293"/>
<path fill-rule="evenodd" clip-rule="evenodd" d="M60.5355 72.1471C60.4729 72.4185 60.3632 72.6218 60.2071 72.755C60.0503 72.8888 59.8632 72.9557 59.6444 72.9557C59.2912 72.9557 59.0347 72.8312 58.873 72.5833C58.7119 72.3361 58.6313 72.0368 58.6313 71.6886C58.6313 71.3019 58.7261 70.9995 58.9157 70.7814C59.1053 70.5627 59.3495 70.4543 59.6475 70.4543C59.857 70.4543 60.0367 70.5137 60.1854 70.6339C60.3347 70.7542 60.4388 70.9295 60.4989 71.16L60.2195 71.2344C60.1724 71.0658 60.1011 70.94 60.0051 70.8552C59.9084 70.7696 59.7882 70.7275 59.6444 70.7275C59.4096 70.7275 59.2311 70.8149 59.1091 70.9878C58.9876 71.1606 58.9269 71.3936 58.9269 71.6855C58.9269 72.0219 58.9907 72.2723 59.1184 72.4359C59.2466 72.5994 59.4133 72.6812 59.6196 72.6812C59.7882 72.6812 59.9251 72.6304 60.0305 72.5276C60.1358 72.4259 60.2095 72.2723 60.2517 72.0666L60.5355 72.1471Z" fill="#1B5293"/>
<path fill-rule="evenodd" clip-rule="evenodd" d="M62.5867 72.9145H62.2998V71.7756H61.1795V72.9145H60.8945V70.4954H61.1795V71.4881H62.2998V70.4954H62.5867V72.9145Z" fill="#1B5293"/>
<path fill-rule="evenodd" clip-rule="evenodd" d="M63.105 72.9146H63.3912V70.4955H63.105V72.9146Z" fill="#1B5293"/>
<path fill-rule="evenodd" clip-rule="evenodd" d="M65.6583 72.9145H65.3659L64.2394 71.0153H64.2338V72.9145H63.963V70.4954H64.2536L65.3801 72.3946H65.3863V70.4954H65.6583V72.9145Z" fill="#1B5293"/>
<path fill-rule="evenodd" clip-rule="evenodd" d="M67.3695 71.9245C67.1929 71.4002 67.0937 71.1034 67.0714 71.0322C67.0479 70.9615 67.0231 70.8667 66.9958 70.7478H66.9884C66.9611 70.9101 66.9239 71.0607 66.8787 71.2001L66.637 71.9245H67.3695ZM68.0312 72.9146H67.709L67.4562 72.1785H66.5565L66.3179 72.9146H66.0168L66.8446 70.4949H67.1513L68.0312 72.9146Z" fill="#1B5293"/>
<path fill-rule="evenodd" clip-rule="evenodd" d="M70.9791 71.8949C70.9791 72.0188 70.9729 72.134 70.9612 72.24C70.9482 72.3453 70.9159 72.4532 70.8639 72.5653C70.8112 72.6775 70.7257 72.7704 70.6074 72.8448C70.4896 72.9179 70.3322 72.9557 70.1352 72.9557C69.9431 72.9557 69.7882 72.9228 69.6705 72.8572C69.5527 72.7909 69.4666 72.706 69.4121 72.6013C69.3563 72.4965 69.3216 72.3875 69.3061 72.2741C69.2912 72.1607 69.2838 72.0349 69.2838 71.8949V70.4951H69.5695V71.8893C69.5695 72.0355 69.5781 72.1601 69.5973 72.2654C69.6153 72.3707 69.6643 72.4631 69.7442 72.5449C69.8235 72.626 69.9462 72.6669 70.1116 72.6669C70.2796 72.6669 70.4054 72.6341 70.4896 72.5697C70.5739 72.5046 70.6284 72.4178 70.6545 72.3094C70.6799 72.201 70.6922 72.0616 70.6922 71.8893V70.4951H70.9791V71.8949Z" fill="#1B5293"/>
<path fill-rule="evenodd" clip-rule="evenodd" d="M73.3954 72.9145H73.1029L71.9764 71.0153H71.9708V72.9145H71.7V70.4954H71.9913L73.1178 72.3946H73.1234V70.4954H73.3954V72.9145Z" fill="#1B5293"/>
<path fill-rule="evenodd" clip-rule="evenodd" d="M74.1538 72.9146H74.4401V70.4955H74.1538V72.9146Z" fill="#1B5293"/>
<path fill-rule="evenodd" clip-rule="evenodd" d="M76.9424 70.4951L76.0984 72.9142H75.8066L74.9719 70.4951H75.2793L75.8394 72.253C75.8815 72.3652 75.9187 72.4959 75.9509 72.6471H75.9571C75.9863 72.5182 76.0234 72.3869 76.0687 72.253L76.6524 70.4951H76.9424Z" fill="#1B5293"/>
<path fill-rule="evenodd" clip-rule="evenodd" d="M78.8116 72.9145H77.2012V70.4954H78.7614V70.7823H77.4868V71.5215H78.679V71.809H77.4868V72.627H78.8116V72.9145Z" fill="#1B5293"/>
<path fill-rule="evenodd" clip-rule="evenodd" d="M79.3173 71.5595H79.9289C80.0528 71.5595 80.1501 71.5477 80.222 71.5242C80.2945 71.5 80.3515 71.4541 80.3948 71.3866C80.4382 71.3178 80.4599 71.2416 80.4599 71.1573C80.4599 71.047 80.424 70.9529 80.3521 70.876C80.2808 70.7992 80.1625 70.7608 79.9983 70.7608H79.3173V71.5595ZM80.9314 72.9146H80.5727C80.3583 72.5336 80.2251 72.2993 80.173 72.2132C80.121 72.1258 80.0664 72.0515 80.0094 71.9895C79.9518 71.9276 79.8979 71.8873 79.8471 71.8718C79.7969 71.8551 79.73 71.8464 79.6469 71.8464H79.3173V72.9146H79.0322V70.4949H79.9865C80.1166 70.4949 80.2257 70.5049 80.3143 70.5228C80.4023 70.5414 80.4797 70.5817 80.5466 70.6412C80.613 70.7013 80.6644 70.7769 80.6997 70.868C80.7363 70.9597 80.7536 71.0557 80.7536 71.1573C80.7536 71.3401 80.7022 71.4864 80.5993 71.5973C80.4965 71.7088 80.3465 71.7788 80.1495 71.8086V71.8154C80.2932 71.8867 80.4289 72.0341 80.5553 72.256L80.9314 72.9146Z" fill="#1B5293"/>
<path fill-rule="evenodd" clip-rule="evenodd" d="M82.2964 71.205C82.2847 71.0507 82.2351 70.9348 82.1483 70.8573C82.061 70.7793 81.9358 70.7408 81.7728 70.7408C81.626 70.7408 81.5064 70.7718 81.4141 70.8332C81.3217 70.8951 81.2765 70.985 81.2765 71.1027C81.2765 71.2068 81.3112 71.2849 81.3825 71.3357C81.4537 71.3871 81.5894 71.4379 81.7908 71.4881C81.9693 71.5321 82.1149 71.578 82.227 71.6245C82.3398 71.6703 82.4365 71.7422 82.517 71.8395C82.5976 71.9368 82.6379 72.0675 82.6379 72.2311C82.6379 72.4387 82.5641 72.6122 82.416 72.7497C82.2692 72.8867 82.0765 72.9554 81.8391 72.9554C81.5361 72.9554 81.3094 72.8798 81.1594 72.728C81.0082 72.5762 80.9289 72.3798 80.9202 72.1369L81.1904 72.1109C81.2034 72.3042 81.2703 72.4455 81.3905 72.5347C81.5114 72.6227 81.657 72.6667 81.8274 72.6667C81.9872 72.6667 82.1161 72.6301 82.2147 72.5564C82.3132 72.4827 82.3621 72.3823 82.3621 72.2559C82.3621 72.1239 82.3113 72.0272 82.2085 71.9671C82.105 71.907 81.9327 71.8475 81.6898 71.788C81.4469 71.7298 81.2728 71.6468 81.1656 71.5396C81.059 71.433 81.0057 71.2942 81.0057 71.1238C81.0057 70.9305 81.0727 70.77 81.2084 70.6436C81.3434 70.5178 81.5281 70.454 81.7611 70.454C82.0003 70.454 82.193 70.5172 82.3386 70.6429C82.4842 70.7687 82.561 70.9484 82.5697 71.1802L82.2964 71.205Z" fill="#1B5293"/>
<path fill-rule="evenodd" clip-rule="evenodd" d="M82.8899 72.9146H83.1762V70.4955H82.8899V72.9146Z" fill="#1B5293"/>
<path fill-rule="evenodd" clip-rule="evenodd" d="M85.1628 70.782H84.4496V72.9142H84.1633V70.782H83.4557V70.4951H85.1628V70.782Z" fill="#1B5293"/>
<path fill-rule="evenodd" clip-rule="evenodd" d="M87.3402 70.4951L86.4814 71.8893V72.9142H86.1945V71.8893L85.3642 70.4951H85.7112L86.1846 71.3087C86.2323 71.3905 86.2893 71.4995 86.355 71.634C86.3965 71.5429 86.614 71.1637 87.0081 70.4951H87.3402Z" fill="#1B5293"/>
<path fill-rule="evenodd" clip-rule="evenodd" d="M89.3663 72.6814C89.585 72.6814 89.7622 72.5959 89.8979 72.4243C90.0336 72.2532 90.1024 72.0141 90.103 71.7086C90.103 71.3938 90.0336 71.1509 89.8955 70.9824C89.756 70.8126 89.5819 70.7277 89.3719 70.7277C89.1569 70.7277 88.979 70.8107 88.8397 70.9768C88.7009 71.1435 88.6315 71.3981 88.6315 71.7408C88.6315 72.0221 88.6991 72.2483 88.836 72.4212C88.9722 72.5953 89.1488 72.6814 89.3663 72.6814ZM89.3694 70.4538C89.6712 70.4538 89.9184 70.5684 90.1105 70.7989C90.3026 71.0288 90.3986 71.3318 90.3986 71.7086C90.3986 72.0828 90.302 72.3846 90.1086 72.6132C89.9159 72.8413 89.6693 72.9553 89.3694 72.9553C89.0583 72.9553 88.8087 72.8376 88.6191 72.6009C88.4308 72.3642 88.3353 72.0754 88.3353 71.7346C88.3353 71.3368 88.4314 71.0245 88.6235 70.7958C88.8149 70.5678 89.0633 70.4538 89.3694 70.4538Z" fill="#1B5293"/>
<path fill-rule="evenodd" clip-rule="evenodd" d="M92.293 70.782H91.1237V71.5311H92.1369V71.8187H91.1237V72.9142H90.8387V70.4951H92.293V70.782Z" fill="#1B5293"/>
<path fill-rule="evenodd" clip-rule="evenodd" d="M93.7911 71.6473H94.3457C94.6846 71.6473 94.8544 71.4998 94.8544 71.2049C94.8544 71.1076 94.8321 71.0221 94.7881 70.9484C94.7441 70.874 94.6896 70.8275 94.6257 70.8096C94.5613 70.7916 94.4659 70.7823 94.3395 70.7823H93.7911V71.6473ZM93.5061 70.4954H94.319C94.4473 70.4954 94.5582 70.5022 94.6505 70.5171C94.7435 70.5307 94.8296 70.5679 94.9083 70.628C94.9882 70.6881 95.0483 70.7693 95.0892 70.8721C95.1295 70.975 95.15 71.0828 95.15 71.195C95.15 71.4187 95.0855 71.5971 94.9579 71.7322C94.8302 71.8667 94.6251 71.9348 94.3426 71.9348H93.7911V72.9145H93.5061V70.4954Z" fill="#1B5293"/>
<path fill-rule="evenodd" clip-rule="evenodd" d="M97.1303 72.9145H95.5199V70.4954H97.0801V70.7823H95.8055V71.5215H96.9977V71.809H95.8055V72.627H97.1303V72.9145Z" fill="#1B5293"/>
<path fill-rule="evenodd" clip-rule="evenodd" d="M98.9431 70.782H98.2299V72.9142H97.9436V70.782H97.236V70.4951H98.9431V70.782Z" fill="#1B5293"/>
<path fill-rule="evenodd" clip-rule="evenodd" d="M99.4157 71.5595H100.027C100.151 71.5595 100.248 71.5477 100.32 71.5242C100.393 71.5 100.45 71.4541 100.493 71.3866C100.537 71.3178 100.558 71.2416 100.558 71.1573C100.558 71.047 100.522 70.9529 100.451 70.876C100.379 70.7992 100.261 70.7608 100.097 70.7608H99.4157V71.5595ZM101.03 72.9146H100.671C100.457 72.5336 100.323 72.2993 100.271 72.2132C100.219 72.1258 100.165 72.0515 100.108 71.9895C100.05 71.9276 99.9963 71.8873 99.9455 71.8718C99.8953 71.8551 99.8283 71.8464 99.7453 71.8464H99.4157V72.9146H99.1306V70.4949H100.085C100.215 70.4949 100.324 70.5049 100.413 70.5228C100.501 70.5414 100.578 70.5817 100.645 70.6412C100.712 70.7013 100.763 70.7769 100.799 70.868C100.835 70.9597 100.853 71.0557 100.853 71.1573C100.853 71.3401 100.801 71.4864 100.698 71.5973C100.595 71.7088 100.445 71.7788 100.248 71.8086V71.8154C100.392 71.8867 100.527 72.0341 100.654 72.256L101.03 72.9146Z" fill="#1B5293"/>
<path fill-rule="evenodd" clip-rule="evenodd" d="M102.235 72.6814C102.454 72.6814 102.631 72.5959 102.767 72.4243C102.903 72.2532 102.972 72.0141 102.972 71.7086C102.972 71.3938 102.903 71.1509 102.765 70.9824C102.625 70.8126 102.451 70.7277 102.241 70.7277C102.025 70.7277 101.848 70.8107 101.709 70.9768C101.57 71.1435 101.5 71.3981 101.5 71.7408C101.5 72.0221 101.568 72.2483 101.705 72.4212C101.841 72.5953 102.018 72.6814 102.235 72.6814ZM102.239 70.4538C102.54 70.4538 102.788 70.5684 102.98 70.7989C103.172 71.0288 103.268 71.3318 103.268 71.7086C103.268 72.0828 103.171 72.3846 102.978 72.6132C102.785 72.8413 102.538 72.9553 102.239 72.9553C101.927 72.9553 101.678 72.8376 101.488 72.6009C101.299 72.3642 101.204 72.0754 101.204 71.7346C101.204 71.3368 101.3 71.0245 101.493 70.7958C101.684 70.5678 101.932 70.4538 102.239 70.4538Z" fill="#1B5293"/>
<path fill-rule="evenodd" clip-rule="evenodd" d="M104.981 72.9145H103.633V70.4954H103.918V72.627H104.981V72.9145Z" fill="#1B5293"/>
<path fill-rule="evenodd" clip-rule="evenodd" d="M107.17 72.9145H105.56V70.4954H107.12V70.7823H105.846V71.5215H107.038V71.809H105.846V72.627H107.17V72.9145Z" fill="#1B5293"/>
<path fill-rule="evenodd" clip-rule="evenodd" d="M109.023 71.8949C109.023 72.0188 109.017 72.134 109.005 72.24C108.992 72.3453 108.96 72.4532 108.908 72.5653C108.855 72.6775 108.769 72.7704 108.651 72.8448C108.533 72.9179 108.376 72.9557 108.179 72.9557C107.987 72.9557 107.832 72.9228 107.714 72.8572C107.596 72.7909 107.51 72.706 107.456 72.6013C107.401 72.4965 107.365 72.3875 107.35 72.2741C107.335 72.1607 107.328 72.0349 107.328 71.8949V70.4951H107.613V71.8893C107.613 72.0355 107.622 72.1601 107.641 72.2654C107.659 72.3707 107.708 72.4631 107.788 72.5449C107.867 72.626 107.99 72.6669 108.155 72.6669C108.323 72.6669 108.449 72.6341 108.533 72.5697C108.618 72.5046 108.672 72.4178 108.698 72.3094C108.724 72.201 108.736 72.0616 108.736 71.8893V70.4951H109.023V71.8949Z" fill="#1B5293"/>
<path fill-rule="evenodd" clip-rule="evenodd" d="M111.724 72.9145H111.453V70.8895H111.448L110.827 72.9145H110.571L109.954 70.8567H109.944V72.9145H109.674V70.4954H110.1L110.611 72.2081C110.667 72.3983 110.701 72.5173 110.709 72.5662H110.715C110.742 72.4727 110.78 72.3432 110.83 72.1783L111.345 70.4954H111.724V72.9145Z" fill="#1B5293"/>
<path fill-rule="evenodd" clip-rule="evenodd" d="M113.54 72.627H114.077C114.269 72.627 114.402 72.5898 114.477 72.5161C114.552 72.4423 114.588 72.3413 114.588 72.2112C114.588 72.0804 114.548 71.9788 114.47 71.9057C114.39 71.832 114.247 71.7954 114.04 71.7954H113.54V72.627ZM113.54 71.5079H114.008C114.104 71.5079 114.185 71.5029 114.25 71.4905C114.315 71.4782 114.373 71.4459 114.423 71.3951C114.472 71.3431 114.498 71.2631 114.498 71.1541C114.498 71.0388 114.472 70.9546 114.421 70.9C114.371 70.8455 114.311 70.8127 114.241 70.8009C114.171 70.7885 114.081 70.7817 113.971 70.7817H113.54V71.5079ZM114.48 71.6275C114.615 71.6733 114.716 71.7483 114.783 71.8524C114.851 71.9565 114.884 72.0761 114.884 72.2112C114.884 72.3469 114.854 72.4708 114.793 72.5848C114.732 72.6976 114.646 72.7813 114.534 72.8345C114.423 72.8872 114.271 72.9145 114.08 72.9145H113.255V70.4954H114.063C114.325 70.4954 114.51 70.5592 114.617 70.6863C114.725 70.8139 114.778 70.9564 114.778 71.1126C114.778 71.2179 114.754 71.3152 114.704 71.405C114.654 71.4949 114.58 71.5692 114.48 71.6275Z" fill="#1B5293"/>
<path fill-rule="evenodd" clip-rule="evenodd" d="M116.888 72.9145H115.278V70.4954H116.838V70.7823H115.563V71.5215H116.756V71.809H115.563V72.627H116.888V72.9145Z" fill="#1B5293"/>
<path fill-rule="evenodd" clip-rule="evenodd" d="M117.144 72.9146H117.431V70.4955H117.144V72.9146Z" fill="#1B5293"/>
<path fill-rule="evenodd" clip-rule="evenodd" d="M118.788 72.1404C118.788 72.4366 118.735 72.646 118.629 72.7706C118.523 72.8939 118.374 72.9552 118.184 72.9552C117.991 72.9552 117.846 72.8951 117.749 72.773C117.653 72.6516 117.604 72.4688 117.604 72.2247L117.86 72.185C117.863 72.3461 117.891 72.4663 117.944 72.5463C117.998 72.6262 118.078 72.6671 118.184 72.6671C118.281 72.6671 118.353 72.6411 118.401 72.5896C118.448 72.5376 118.476 72.4781 118.487 72.4099C118.498 72.3424 118.503 72.2575 118.503 72.1565V70.4953H118.788V72.1404Z" fill="#1B5293"/>
<path fill-rule="evenodd" clip-rule="evenodd" d="M119.426 72.9146H119.713V70.4955H119.426V72.9146Z" fill="#1B5293"/>
<path fill-rule="evenodd" clip-rule="evenodd" d="M122.04 72.9145H121.748L120.621 71.0153H120.616V72.9145H120.345V70.4954H120.636L121.763 72.3946H121.768V70.4954H122.04V72.9145Z" fill="#1B5293"/>
<path fill-rule="evenodd" clip-rule="evenodd" d="M124.552 72.5762C124.28 72.829 123.984 72.9554 123.661 72.9554C123.33 72.9554 123.064 72.8427 122.861 72.6159C122.659 72.3909 122.558 72.0898 122.558 71.7143C122.558 71.4857 122.599 71.2725 122.682 71.0748C122.765 70.8778 122.887 70.7254 123.049 70.6169C123.21 70.5085 123.407 70.454 123.64 70.454C123.882 70.454 124.076 70.5134 124.223 70.6324C124.37 70.7526 124.468 70.9317 124.52 71.1696L124.264 71.2508C124.223 71.0767 124.151 70.9466 124.048 70.8592C123.943 70.7718 123.808 70.7278 123.64 70.7278C123.38 70.7278 123.184 70.8164 123.052 70.9955C122.92 71.1734 122.853 71.407 122.853 71.6945C122.853 71.9107 122.886 72.0898 122.95 72.2329C123.014 72.3761 123.109 72.4839 123.235 72.5576C123.361 72.6307 123.498 72.6667 123.646 72.6667C123.871 72.6667 124.081 72.5837 124.275 72.4176V71.9696H123.64V71.6802H124.552V72.5762Z" fill="#1B5293"/>
</g>
<defs>
<filter id="filter0_d_200_129" x="0" y="0" width="154" height="157" filterUnits="userSpaceOnUse" color-interpolation-filters="sRGB">
<feFlood flood-opacity="0" result="BackgroundImageFix"/>
<feColorMatrix in="SourceAlpha" type="matrix" values="0 0 0 0 0 0 0 0 0 0 0 0 0 0 0 0 0 0 127 0" result="hardAlpha"/>
<feOffset dy="16"/>
<feGaussianBlur stdDeviation="6.5"/>
<feColorMatrix type="matrix" values="0 0 0 0 0 0 0 0 0 0 0 0 0 0 0 0 0 0 0.03 0"/>
<feBlend mode="normal" in2="BackgroundImageFix" result="effect1_dropShadow_200_129"/>
<feBlend mode="normal" in="SourceGraphic" in2="effect1_dropShadow_200_129" result="shape"/>
</filter>
</defs>
</svg>
