<svg width="154" height="157" viewBox="0 0 154 157" fill="none" xmlns="http://www.w3.org/2000/svg">
<g filter="url(#filter0_d_185_286)">
<rect width="128" height="128" transform="translate(13)" fill="white"/>
<path fill-rule="evenodd" clip-rule="evenodd" d="M116.668 50.5475C116.603 50.4994 116.539 50.4526 116.474 50.4059C115.873 51.2504 115.271 52.0949 114.67 52.9394C115.46 52.2338 116.474 51.6891 116.668 50.5475ZM96.4492 57.5293C96.9196 56.8924 96.7353 56.0892 95.8536 55.2928C95.9513 56.1318 96.0352 56.8525 96.1177 57.5746C96.2291 57.5595 96.3391 57.5444 96.4492 57.5293ZM115.192 57.6943C115.269 57.3587 115.487 56.9722 115.392 56.6944C115.148 55.9778 114.767 55.3079 114.462 54.667C113.934 55.4427 115.648 56.5843 114.038 57.2074C114.43 57.3725 114.813 57.5334 115.195 57.6943H115.192ZM118.052 58.6007C117.258 59.1358 116.5 59.6461 115.704 60.1839C116.493 61.049 117.169 60.613 117.835 60.4108C117.895 60.3558 117.954 60.3008 118.013 60.2471C118.365 59.7355 118.657 59.2224 118.052 58.6007ZM66.8401 65.361C67.1289 66.2509 67.371 67.1642 67.7424 68.0197C67.8345 68.2329 68.3434 68.2646 68.6598 68.3787C68.7505 68.028 69.0311 67.5356 68.8963 67.3513C68.3448 66.5948 67.664 65.9332 67.0312 65.2358C66.968 65.2771 66.9033 65.3197 66.8401 65.361ZM114.602 58.0849C114.196 58.5925 113.822 59.1316 113.377 59.6007C112.924 60.0779 112.917 60.5841 113.184 61.1013C113.297 61.32 113.646 61.6322 113.765 61.5854C114.004 61.4919 114.236 61.2113 114.331 60.9541C114.496 60.5057 114.579 60.0229 114.654 59.547C114.729 59.0849 114.751 58.6145 114.796 58.1496C114.732 58.1276 114.667 58.1056 114.602 58.0849ZM119.577 53.9792C120.206 53.7358 120.543 53.3204 120.297 52.6368C120.087 52.0564 119.369 51.8528 118.628 52.1128C119.317 53.297 117.98 53.6918 117.65 54.7522C118.379 54.4593 118.975 54.2117 119.577 53.9792ZM78.2163 56.4619C77.7803 55.821 77.4158 55.9392 76.9729 56.4619C76.4516 57.0781 75.8561 57.631 75.2839 58.2032C75.0267 58.4604 74.7488 58.6984 74.3087 59.1014C76.2577 58.8263 77.4557 57.9446 78.2163 56.4619ZM61.0027 51.7455C60.8899 52.2159 61.1141 52.8995 61.4236 53.3108C61.7991 53.8073 62.2667 53.3837 62.59 53.0453C63.4496 52.143 64.2914 51.2215 65.2597 50.1775C64.6806 50.4141 64.235 50.597 63.7893 50.7786C63.3451 50.9602 62.9008 51.139 62.4263 51.3315C62.341 50.9643 62.2832 50.7167 62.1677 50.2243C61.6835 50.8226 61.1265 51.2311 61.0027 51.7455ZM49.3431 62.5469C50.0143 64.5096 50.0198 66.7213 52.281 67.907C52.5974 66.035 51.05 63.3047 49.3431 62.5469ZM113.298 52.2916C112.419 52.9463 111.56 53.6285 110.704 54.3149C110.48 54.4937 110.296 54.7275 110.094 54.9366C110.381 55.1442 110.641 55.4565 110.96 55.5404C111.839 55.7701 113.014 55.0411 113.524 53.9985C113.923 53.1856 114.284 52.3535 114.722 51.3962C114.198 51.7235 113.725 51.9752 113.298 52.2916ZM75.9565 55.616C76.2453 55.5596 76.6029 55.5005 76.7804 55.3024C77.4365 54.5693 78.0265 53.7771 78.651 53.0151C78.9604 52.6368 79.3552 52.3122 79.6 51.8968C79.9948 51.2256 79.4529 50.8034 79.0058 50.4815C78.8463 50.3673 78.3112 50.4953 78.1737 50.6809C77.5836 51.4801 77.0458 52.3232 76.552 53.187C76.2109 53.7839 75.9702 54.4386 75.6786 55.081C75.7914 55.3065 75.907 55.6256 75.9565 55.616ZM120.2 55.5362C119.308 56.301 118.51 56.9846 117.602 57.7631C117.708 56.7109 118.896 55.693 120.2 55.5362ZM115.195 57.6943C114.943 58.2624 115.315 58.5966 115.722 58.7795C116.013 58.9088 116.465 58.9281 116.742 58.7905C117.565 58.382 118.37 57.9213 119.118 57.3876C119.768 56.9241 120.365 56.367 120.911 55.7824C121.076 55.605 120.995 55.1993 121.027 54.898C120.752 54.876 120.44 54.7605 120.209 54.8499C119.565 55.0975 118.931 55.3918 118.335 55.7412C117.271 56.3643 116.238 57.041 115.192 57.6943H115.195ZM112.069 56.0919C111.582 58.3999 111.043 60.6983 110.646 63.0228C110.458 64.1314 110.481 65.2909 110.542 66.4187C110.563 66.7928 111.003 67.145 111.249 67.5067C111.496 67.2619 111.91 67.0473 111.961 66.7667C112.129 65.8424 112.326 64.8741 112.213 63.9594C112.049 62.6129 111.781 61.2237 112.386 60.0174C112.853 59.089 112.883 58.14 113.155 57.217C113.434 56.2694 113.062 55.9269 112.236 55.7123C112.18 55.8375 112.096 55.9585 112.069 56.0919ZM85.0977 66.559C84.3824 66.2509 83.7607 65.9855 83.1377 65.7186C83.6259 66.3802 84.2036 66.9208 84.7937 67.4489C85.403 67.995 86.099 67.8079 86.3273 67.0115C86.4126 66.7131 86.3851 66.3775 86.3906 66.0597C86.414 64.6059 86.4387 63.1534 86.4497 61.701C86.458 60.8262 86.6918 59.8703 85.6258 59.3778C86.7372 58.3765 88.4524 58.5058 89.4427 57.0038C88.9626 56.975 88.6545 56.8622 88.4414 56.9598C87.1251 57.5623 85.8253 58.2018 84.531 58.8497C84.0069 59.1124 83.509 59.426 82.9258 59.7602V58.8909C82.5696 59.5415 82.3014 60.0491 82.9245 60.5552C83.5076 61.0298 83.8776 60.5263 84.2944 60.2788C84.6121 60.0917 84.8968 59.8455 85.0977 59.697V66.559ZM83.4774 55.942C82.7787 57.2569 82.157 58.4247 81.5353 59.5938C81.5229 57.1125 81.7787 56.6338 83.4774 55.942ZM83.3907 54.8802C82.8034 54.7357 82.8337 54.4208 82.9602 53.9669C83.139 53.3245 83.3495 52.6753 83.3921 52.0179C83.4072 51.7552 83.0125 51.4649 82.8048 51.1857C82.6095 51.359 82.3234 51.4952 82.2354 51.7111C82.0084 52.2751 81.8145 52.8638 81.6989 53.4593C81.2753 55.649 80.4459 57.4811 78.1049 58.2582C77.7404 58.3779 77.4832 59.0134 77.3072 59.4618C77.1132 59.9542 77.0706 60.5057 76.9372 61.1549C76.5617 60.5662 76.2811 60.1233 75.8533 59.448C75.3705 61.0628 75.2303 62.4382 75.4159 63.8095C75.4847 64.3143 76.0376 64.5275 76.4902 64.0612C76.7102 63.8329 76.8656 63.4987 76.9482 63.1851C77.2535 62.0366 77.5052 60.8757 77.8037 59.7258C77.856 59.5236 77.9921 59.2623 78.1627 59.1839C78.9618 58.8139 79.7857 58.4989 80.622 58.1565C80.4253 58.9171 80.8228 59.9239 79.915 60.7024C79.5134 61.0463 79.2575 61.5896 79.0072 62.0778C78.6826 62.7064 78.9962 63.1397 79.6908 63.0049C80.0484 62.9347 80.3703 62.6762 80.6852 62.5139C80.8365 62.9334 80.9878 63.3584 81.1405 63.7834C81.2437 63.7765 81.3482 63.771 81.4514 63.7641C81.4514 63.4079 81.549 63.0159 81.4335 62.7023C81.0621 61.7037 81.1598 60.7712 81.6673 59.8648C82.0937 59.1055 82.4843 58.3174 82.9919 57.6159C83.2862 57.2088 83.78 56.9474 84.1857 56.6201C84.2366 56.6889 84.2889 56.7563 84.3412 56.825C84.1514 57.1029 83.9602 57.3807 83.6892 57.7741C85.3948 56.5266 86.9614 55.3808 88.528 54.2351C88.4661 54.1182 88.4042 54.0026 88.3437 53.8857C86.6189 53.5322 85.5268 55.0658 84.0908 55.4826C83.8419 55.2584 83.6479 54.9421 83.3907 54.8802ZM66.4907 55.4317C66.0836 55.5583 65.6751 55.6834 65.2019 55.8306C65.389 54.2997 67.0904 54.1938 67.6846 53.1127C66.9473 52.1953 65.7356 53.7454 65.1441 52.5006C66.1455 51.9147 67.188 51.3975 68.1151 50.7208C68.569 50.3893 69.1934 49.5393 69.0628 49.3041C68.6818 48.6233 67.9762 49.0167 67.3751 49.289C67.5498 49.333 67.7011 49.3715 67.9858 49.4444C67.0863 50.2518 66.2693 50.9492 65.4963 51.6919C65.1084 52.0646 64.5816 52.4841 64.5059 52.9463C64.3808 53.6973 64.0479 54.07 63.3918 54.2997C63.1841 54.3726 63.0177 54.5569 62.7619 54.7412C63.169 55.2612 63.8155 55.7261 63.8402 56.2226C63.8664 56.7067 63.2584 57.2253 62.8981 57.7782C63.4496 58.1482 64.1181 58.686 63.5734 59.3944C63.1924 59.8909 62.4221 60.0876 61.6945 60.4906C61.9806 60.7368 62.3575 61.2072 62.4854 61.1467C63.2364 60.7959 63.7948 61.474 64.7783 61.2883C64.4564 62.0036 64.3588 62.7862 63.9778 62.9677C62.048 63.892 60.0399 64.6499 58.0703 65.4917C57.8089 65.6017 57.4211 65.8589 57.4238 66.0432C57.4279 66.3775 57.6026 66.8217 57.8584 67.0033C58.0483 67.1367 58.5269 67.006 58.7937 66.8506C59.2366 66.5934 59.5764 66.1505 60.0248 65.9112C61.1994 65.2826 62.4111 64.7228 63.6078 64.1341C63.224 65.9208 62.2475 67.1381 60.9491 68.1889C61.6161 68.0321 62.2598 67.8217 62.799 67.4558C64.0149 66.636 64.7728 65.4422 65.2033 64.0557C65.3738 63.5028 65.7177 63.2745 66.2362 63.1534C67.3944 62.8838 68.5442 62.584 69.6982 62.2993C70.2567 62.1604 70.6239 61.811 70.3901 61.2567C70.3268 61.1082 69.6391 61.1109 69.2897 61.2168C68.1357 61.5648 67.0065 61.9912 66.1606 62.2855C65.6819 61.7175 65.3064 61.3172 64.9915 60.8757C64.8718 60.7079 64.7824 60.3627 64.8718 60.232C65.0726 59.9404 65.3725 59.7011 65.6709 59.4989C66.1675 59.1619 66.261 58.6599 65.7603 58.338C65.2115 57.9845 65.3477 57.7273 65.6709 57.3119C66.0684 56.803 66.3793 56.2267 66.7273 55.6793C66.6489 55.5954 66.5691 55.5142 66.4907 55.4317ZM50.5383 55.8925C50.3967 56.0025 49.9744 55.7467 49.6801 55.6573C49.8149 55.4138 49.8919 55.0796 50.0968 54.9448C50.5549 54.6477 51.0761 54.4496 51.5727 54.2117C51.6648 54.3259 51.757 54.4386 51.8478 54.5528C51.42 55.0095 51.028 55.5156 50.5383 55.8925ZM51.4269 58.6626C50.8423 58.8992 50.2454 59.1083 49.6429 59.2967C49.4669 59.3517 49.2344 59.3503 49.0735 59.2747C48.991 59.2348 48.936 58.8868 49.0006 58.829C49.6154 58.2899 50.2041 57.6709 50.9193 57.3229C51.2041 57.1854 51.7886 57.6682 52.237 57.8676C52.226 57.9777 52.2178 58.0891 52.2081 58.1991C51.9495 58.3559 51.7047 58.5498 51.4269 58.6626ZM52.171 56.9681C51.9633 56.8594 51.7955 56.6779 51.6098 56.5293C51.7707 56.3409 51.9248 56.1442 52.0967 55.9668C52.6166 55.4358 53.2232 54.9668 53.6345 54.363C53.8532 54.0439 53.849 53.4607 53.7211 53.0687C53.6688 52.9092 53.0045 52.8349 52.6579 52.9092C51.8203 53.0866 51.006 53.3741 50.0473 53.656C50.123 52.6877 50.3829 51.7937 50.2014 51C50.0198 50.2078 49.3967 49.5173 48.8809 48.6384C48.7228 48.9699 48.6609 49.0414 48.6567 49.1171C48.599 50.3096 48.5371 51.5021 48.4986 52.6946C48.4229 55.048 48.4862 54.8719 46.3144 55.059C45.8412 56.6902 47.2744 56.1827 48.0172 56.4949C47.8329 57.5609 47.6733 58.5911 47.4587 59.6117C47.4175 59.8056 47.1548 59.9528 46.9938 60.1233C46.8439 59.9253 46.628 59.7492 46.5578 59.5264C46.3116 58.7506 46.1149 57.9584 45.9004 57.1716C45.8206 57.1826 45.7422 57.1937 45.6624 57.2047C45.474 57.8827 45.3364 58.5815 45.082 59.2348C44.8275 59.884 44.5125 60.4823 45.3186 60.9472C43.624 62.115 41.6434 62.7559 40.3367 64.4353C42.4824 63.9402 44.3943 62.8852 46.5881 61.8949C45.811 64.7091 44.4039 66.9043 42.6997 68.9949C43.4204 68.6043 44.2017 68.2192 44.6803 67.6002C46.1548 65.6939 47.445 63.661 48.1918 61.331C48.2469 61.1604 48.4931 61.0119 48.6829 60.9293C49.6938 60.4947 50.7034 60.0601 51.7336 59.6763C52.3512 59.448 53.021 59.3613 53.6345 59.1234C54.0182 58.9748 54.3401 58.6654 54.8641 58.3105C53.7665 57.7672 52.9632 57.3793 52.171 56.9681ZM124.9 65.1341C123.892 63.8549 122.609 62.9114 121.481 62.6541C122.013 63.4161 122.514 64.1327 123.08 64.9456C121.673 65.0254 120.433 65.1024 119.191 65.1616C118.608 65.1891 118.298 64.936 118.225 64.3061C118.151 63.6651 117.951 63.0393 117.804 62.3983C118.283 61.8523 118.837 61.2622 119.332 60.6267C119.447 60.4782 119.363 60.1756 119.369 59.9445C119.176 60.0394 118.95 60.0986 118.793 60.2375C118.207 60.7547 117.645 61.2966 117.073 61.8303C117.059 61.8014 117.045 61.7739 117.03 61.745C117.359 61.2457 117.686 60.7464 118.013 60.2471C117.954 60.3008 117.895 60.3558 117.835 60.4108C116.865 61.1384 115.87 61.8344 114.934 62.6033C114.084 63.3006 114.113 63.335 114.96 64.0365C114.623 64.5426 114.238 65.0254 113.965 65.5646C113.77 65.9525 113.727 66.416 113.616 66.8479C114.417 67.0033 114.401 66.2757 114.573 65.8672C115.128 64.555 116.236 63.8081 117.324 62.8123C117.265 63.5496 117.191 64.0956 117.184 64.6417C117.167 65.8878 117.724 66.5343 118.939 66.5013C120.206 66.4669 121.478 66.3403 122.732 66.1464C123.471 66.0322 124.178 65.7118 124.9 65.4834V65.1341ZM36.513 56.2859C36.5941 56.3808 36.6767 56.4757 36.7592 56.5706C36.2668 57.0052 35.7757 57.4371 35.2847 57.8704C35.1788 57.7493 35.0729 57.6269 34.967 57.5059C35.4828 57.1001 35.9986 56.693 36.513 56.2859ZM36.0151 55.5803C35.8294 55.7343 35.4195 55.6146 35.1114 55.6201C35.2435 55.2515 35.2682 54.7247 35.5282 54.5487C36.1114 54.1539 36.8128 53.9339 37.4662 53.6409C37.5487 53.7275 37.6312 53.8114 37.7137 53.8967C37.1539 54.4662 36.6244 55.0727 36.0151 55.5803ZM28.9453 56.2075C29.1062 56.5114 29.3827 56.8072 29.4061 57.1208C29.4804 58.129 29.5588 59.155 29.4473 60.1522C29.3359 61.137 29.849 61.6597 30.5009 62.1741C30.9039 62.4932 31.2189 62.4121 31.3537 61.9224C31.5366 61.254 31.6659 60.569 31.8324 59.8317C32.1473 59.7712 32.527 59.6983 32.9575 59.6144C32.9974 59.8317 33.062 59.9954 33.0496 60.1536C32.8048 63.3212 32.5435 66.4861 32.3055 69.6538C32.278 70.0114 32.3702 70.3786 32.4087 70.7404C32.4898 70.739 32.5723 70.7376 32.6549 70.7362C32.7429 70.5657 32.8846 70.4048 32.9135 70.2259C33.4664 66.8107 34.0303 63.3983 34.5296 59.9762C34.6245 59.3311 34.8762 59.0037 35.4511 58.7658C36.0316 58.5265 36.5749 58.1881 37.1154 57.8621C37.7165 57.4976 37.887 57.0011 37.4194 56.4069C37.0618 55.9503 37.2502 55.6889 37.6243 55.3313C38.2914 54.6945 38.9021 53.9889 39.4716 53.2599C39.6339 53.0536 39.7026 52.4869 39.5857 52.403C39.301 52.1953 38.8554 52.0399 38.5225 52.1073C38.0562 52.1994 37.6436 52.5323 37.1938 52.729C36.5529 53.0096 35.8982 53.2585 35.0275 53.612C35.2159 51.6836 35.5708 49.9217 33.5407 48.9108C33.4664 49.2972 33.3453 49.6521 33.3385 50.0097C33.311 51.3439 33.3756 52.6822 33.2862 54.0109C33.2573 54.4263 32.8667 54.8251 32.6109 55.2116C32.4087 55.5184 32.1583 55.7935 31.93 56.0837C32.2904 56.1937 32.6521 56.301 33.0111 56.4152C33.0606 56.4317 33.1019 56.477 33.2463 56.5788C33.1913 57.1441 33.1308 57.7713 33.0771 58.3298C32.56 58.6007 32.113 58.8359 31.5463 59.1344C30.9645 58.1193 30.3895 57.0891 29.783 56.0782C29.6028 55.7797 29.5601 55.1938 28.9453 55.5074V56.2075ZM101.37 53.2461C102.342 52.8748 103.306 52.4841 104.286 52.1403C104.595 52.0316 104.945 52.0468 105.528 51.9739C104.523 53.5226 103.645 54.8774 102.74 56.2707C103.757 56.1882 104.696 56.1126 105.636 56.0355C105.7 56.1841 105.766 56.3326 105.831 56.4798C105.304 56.9653 104.85 57.5939 104.236 57.9075C103.083 58.4948 101.834 58.8909 100.633 59.3847C100.237 59.5484 99.83 59.7217 99.4875 59.9734C98.9401 60.375 98.709 60.8537 99.2055 61.5167C99.4517 61.8481 99.5247 62.3103 99.7048 62.7848C100.19 62.6308 100.644 62.4533 101.115 62.346C102.545 62.0173 102.806 62.507 102.324 63.5908C101.779 63.6981 101.237 63.7655 100.721 63.9168C100.002 64.1272 99.8011 64.5729 100.105 65.3101C100.564 66.4215 100.673 67.5658 100.117 68.6951C100.04 68.8478 99.9373 68.9867 99.8052 69.2012C98.8259 68.4406 97.8727 67.702 96.9209 66.9648C96.9485 66.9235 96.976 66.8836 97.0021 66.8424C97.8865 67.2564 98.7709 67.6704 99.6553 68.083C99.7557 68.006 99.8548 67.9276 99.9552 67.8492C99.6402 66.8561 99.3238 65.8644 98.9758 64.7668C98.438 64.9731 97.958 65.1533 97.4835 65.3431C96.694 65.6581 96.1672 65.4284 95.91 64.6582C95.7752 64.2552 95.8275 64.0365 96.3144 63.9127C97.1176 63.7077 97.892 63.3969 98.7448 63.1094C98.5838 62.5537 98.4656 62.0792 98.3088 61.6184C98.0337 60.8221 98.1987 60.122 98.9098 59.7093C100.284 58.9088 101.706 58.1895 103.115 57.4495C103.581 57.2033 104.068 56.9956 104.545 56.7714C104.509 56.682 104.472 56.594 104.438 56.5059C103.87 56.6875 103.253 56.7824 102.743 57.0671C100.108 58.5402 97.5041 60.0656 94.8825 61.562C94.3791 61.8495 93.8441 62.0792 93.331 62.3488C92.7148 62.672 92.4054 62.3007 92.1633 61.8275C91.88 61.2746 92.2362 61.0669 92.6818 60.8647C93.342 60.5662 93.9679 60.1935 94.624 59.884C96.379 59.0574 98.141 58.2445 99.9029 57.4316C100.318 57.239 100.741 57.0657 101.35 56.803C100.687 56.2611 100.185 55.7769 99.6113 55.4028C99.0529 55.037 98.8328 54.4978 98.6141 53.9325C98.958 54.1594 99.3018 54.385 99.6539 54.6175C100.157 53.9504 100.58 53.3892 101.003 52.828C100.958 52.7675 100.914 52.707 100.868 52.6464C100.481 52.8927 100.101 53.1512 99.7035 53.3796C99.3513 53.5831 98.9786 53.7509 98.6155 53.9352C98.4037 53.9105 98.1918 53.8857 97.936 53.8555C98.1272 54.6285 98.1905 55.44 97.4202 56.1621C97.6994 54.4703 96.5991 53.3947 96.0627 52.033C96.3116 52.2297 96.5688 52.4167 96.8082 52.6258C97.0475 52.8335 97.2689 53.0618 97.5041 53.286C97.7696 53.1512 98.0282 52.9312 98.3115 52.8927C99.4806 52.7331 100.156 51.9367 100.853 51.1032C101.56 50.2601 102.368 49.5022 103.101 48.6797C103.375 48.3716 103.563 47.9823 103.79 47.6316H104.138C103.546 48.5091 102.992 49.4169 102.353 50.2573C101.818 50.9602 101.181 51.5846 100.501 52.3425C100.941 52.4539 101.208 52.5227 101.497 52.5969C101.428 52.8211 101.37 53.0109 101.313 53.1994C100.851 53.7028 100.387 54.2048 99.907 54.7247C100.167 54.9709 100.368 55.1621 100.673 55.4523C100.753 54.9297 100.818 54.5088 100.889 54.0356C101.412 54.0301 101.86 54.3699 101.8 54.8705C101.753 55.246 101.255 55.5665 100.922 55.953C101.119 56.1236 101.468 56.8058 101.981 56.1772C102.944 54.9998 103.773 53.7152 104.659 52.4745C104.109 52.5282 103.698 52.806 103.245 52.9312C102.639 53.099 101.998 53.1471 101.37 53.2461Z" fill="#363C44"/>
<path d="M124.983 76.9271C124.891 76.8239 124.797 76.7483 124.701 76.7001C124.604 76.6534 124.497 76.6286 124.38 76.6286C124.25 76.6286 124.141 76.6616 124.056 76.7263C123.969 76.7923 123.926 76.8735 123.926 76.9711C123.926 77.0674 123.955 77.1527 124.013 77.2297C124.069 77.3067 124.177 77.403 124.335 77.5199C124.6 77.7166 124.787 77.8899 124.896 78.0398C125.003 78.187 125.056 78.3479 125.056 78.5199C125.056 78.7881 124.958 79.0109 124.763 79.1883C124.566 79.3657 124.321 79.4538 124.023 79.4538C123.86 79.4538 123.721 79.4455 123.606 79.4263C123.49 79.4084 123.349 79.374 123.181 79.3217V78.5776C123.307 78.7234 123.434 78.8307 123.56 78.9022C123.686 78.9737 123.815 79.0081 123.948 79.0081C124.076 79.0081 124.184 78.9724 124.267 78.9009C124.351 78.8293 124.394 78.7386 124.394 78.6299C124.394 78.5405 124.36 78.4566 124.291 78.3741C124.226 78.2929 124.098 78.1829 123.907 78.0426C123.666 77.8651 123.497 77.7042 123.4 77.5598C123.302 77.4181 123.254 77.26 123.254 77.0853C123.254 76.8294 123.361 76.6162 123.574 76.4471C123.787 76.2765 124.056 76.1926 124.379 76.1926C124.497 76.1926 124.599 76.2022 124.686 76.2215C124.772 76.2394 124.871 76.2738 124.983 76.3247V76.9271ZM122.247 79.4538C121.991 79.4538 121.804 79.3809 121.686 79.2351C121.569 79.0907 121.51 78.8568 121.51 78.5364V76.6919H121.048V76.6905L122.158 75.5709H122.163V76.2614H122.924V76.6919H122.163V78.2764C122.163 78.4868 122.2 78.6436 122.276 78.7482C122.35 78.8527 122.464 78.905 122.614 78.905C122.706 78.905 122.79 78.894 122.867 78.8733C122.946 78.8527 123.038 78.8156 123.146 78.7619L122.888 79.3616C122.774 79.3988 122.673 79.4235 122.588 79.4359C122.503 79.4483 122.389 79.4538 122.247 79.4538ZM119.182 78.4703V77.1747C119.182 77.0069 119.173 76.8556 119.152 76.7208C119.133 76.586 119.096 76.4333 119.044 76.2614H119.834V76.8157L120.343 76.2696C120.493 76.2174 120.638 76.1926 120.777 76.1926C120.891 76.1926 120.988 76.2132 121.068 76.2559L120.936 76.9271L120.906 76.9078C120.783 76.8212 120.638 76.7785 120.47 76.7785C120.345 76.7785 120.182 76.8226 119.983 76.9106L119.834 76.9739V78.4703C119.834 78.7152 119.845 78.9022 119.867 79.0356C119.888 79.1691 119.924 79.286 119.976 79.385H119.044C119.096 79.2887 119.133 79.1746 119.152 79.0398C119.173 78.9064 119.182 78.7165 119.182 78.4703ZM115.634 77.4195H116.863L116.25 76.0592H116.247L115.634 77.4195ZM114.665 78.0797L116.278 74.7924H116.28L117.891 78.0797C118.078 78.458 118.231 78.7427 118.349 78.9339C118.467 79.125 118.583 79.2763 118.697 79.385H117.528C117.553 79.2956 117.54 79.1553 117.493 78.9641C117.447 78.7729 117.372 78.5666 117.273 78.3424L117.119 77.9944H115.375L115.353 78.0605C115.232 78.3259 115.14 78.5886 115.075 78.8445C115.012 79.1017 114.994 79.2818 115.022 79.385H113.842C113.97 79.2626 114.093 79.1058 114.214 78.9132C114.334 78.722 114.485 78.4442 114.665 78.0797ZM111.16 77.4676C111.158 77.1967 111.106 76.9876 111.003 76.8446C110.9 76.7001 110.748 76.6286 110.549 76.6286H110.553C110.336 76.6286 110.168 76.7167 110.05 76.8941C109.956 77.0358 109.898 77.2269 109.879 77.4676H111.16ZM110.734 79.4538C110.283 79.4538 109.913 79.3107 109.626 79.0219C109.337 78.733 109.193 78.3631 109.193 77.9105C109.193 77.4181 109.319 77.0082 109.572 76.6823C109.827 76.3549 110.143 76.1926 110.524 76.1926H110.531C110.904 76.1926 111.19 76.315 111.392 76.5626C111.593 76.8102 111.695 77.1623 111.695 77.6203V77.9023H109.884C109.916 78.1856 110.003 78.4208 110.143 78.6093C110.322 78.8472 110.564 78.9655 110.871 78.9655C111.01 78.9655 111.146 78.9476 111.281 78.9132C111.414 78.8788 111.536 78.8293 111.644 78.7647L111.385 79.3644C111.242 79.4015 111.128 79.4249 111.04 79.4373C110.952 79.4483 110.851 79.4538 110.734 79.4538ZM106.106 78.4703V77.1747C106.106 77.0041 106.097 76.8528 106.077 76.718C106.057 76.5832 106.021 76.4319 105.969 76.2614H106.759V76.8047L107.256 76.2586C107.424 76.2146 107.564 76.1926 107.677 76.1926C107.973 76.1926 108.198 76.2806 108.354 76.4581C108.508 76.6355 108.585 76.8941 108.585 77.2324V78.4703C108.585 78.7317 108.593 78.9284 108.611 79.0618C108.627 79.1952 108.658 79.3025 108.702 79.385H107.794C107.846 79.2887 107.882 79.1746 107.902 79.0398C107.922 78.9064 107.931 78.7165 107.931 78.4703V77.3191C107.931 77.1362 107.887 77.0014 107.799 76.912C107.711 76.8226 107.576 76.7785 107.394 76.7785C107.27 76.7785 107.107 76.8226 106.907 76.9106L106.759 76.9739V78.4703C106.759 78.7152 106.77 78.9022 106.791 79.0356C106.812 79.1691 106.849 79.286 106.901 79.385H105.969C106.021 79.2887 106.057 79.1746 106.077 79.0398C106.097 78.9064 106.106 78.7165 106.106 78.4703ZM104.936 74.9561C105.058 74.9561 105.163 75.0029 105.248 75.0964C105.333 75.1913 105.376 75.3055 105.376 75.4416C105.376 75.5778 105.333 75.6919 105.248 75.7855C105.163 75.8776 105.058 75.9244 104.936 75.9244C104.813 75.9244 104.709 75.8776 104.623 75.7855C104.538 75.6919 104.494 75.5778 104.494 75.4416C104.494 75.3055 104.538 75.1913 104.623 75.0964C104.709 75.0029 104.813 74.9561 104.936 74.9561ZM104.623 78.4703V77.1747C104.623 77.0069 104.614 76.8556 104.595 76.7208C104.574 76.586 104.538 76.4333 104.486 76.2614H105.418C105.366 76.3604 105.329 76.4773 105.308 76.6121C105.288 76.7455 105.277 76.9326 105.277 77.1747V78.4703C105.277 78.7152 105.288 78.9022 105.308 79.0356C105.329 79.1691 105.366 79.286 105.418 79.385H104.486C104.538 79.2887 104.574 79.1746 104.595 79.0398C104.614 78.9064 104.623 78.7165 104.623 78.4703ZM101.604 78.0797V76.1857C101.604 75.9038 101.593 75.6686 101.569 75.476C101.545 75.2848 101.501 75.0868 101.439 74.8818H104.017L103.837 75.2491L103.652 75.6204C103.471 75.5283 103.292 75.4636 103.117 75.4265C102.943 75.3894 102.734 75.3701 102.489 75.3701H102.321V76.8446H103.845L103.629 77.2091L103.412 77.5749C103.26 77.4869 103.101 77.4236 102.937 77.3879C102.772 77.3507 102.567 77.3328 102.321 77.3328V78.0797C102.321 78.3631 102.332 78.601 102.357 78.7936C102.381 78.9848 102.424 79.1828 102.486 79.385H101.442C101.503 79.1856 101.545 78.9903 101.569 78.7991C101.593 78.6079 101.604 78.3672 101.604 78.0797ZM98.4325 76.6919V78.4703C98.4325 78.7152 98.4422 78.9022 98.4642 79.0356C98.4848 79.1691 98.5206 79.286 98.5728 79.385H97.6403C97.6926 79.2887 97.7297 79.1746 97.749 79.0398C97.7696 78.9064 97.7792 78.7165 97.7792 78.4703V76.6919H97.4244V76.6836L97.6623 76.2614H97.7792V76.0111C97.7792 75.6562 97.8769 75.3811 98.0708 75.183C98.2661 74.9863 98.5385 74.8873 98.8892 74.8873C99.0116 74.8873 99.1203 74.8942 99.2152 74.9079C99.3101 74.9231 99.4077 74.9478 99.5054 74.9822L99.3527 75.5998C99.2674 75.5076 99.1877 75.4402 99.112 75.3976C99.035 75.355 98.9566 75.333 98.8741 75.333C98.7255 75.333 98.6155 75.3756 98.5426 75.4636C98.4683 75.5503 98.4325 75.6823 98.4325 75.8584V76.2614H99.0873V76.6919H98.4325ZM96.1452 78.6271C96.2484 78.4387 96.2992 78.2186 96.2992 77.9656C96.2992 77.5667 96.1988 77.2476 95.9994 77.0069C95.7986 76.7662 95.5262 76.641 95.1838 76.6286C95.0077 76.6974 94.8674 76.8281 94.7643 77.0179C94.6611 77.2091 94.6102 77.4305 94.6102 77.6836C94.6102 78.0825 94.7106 78.4016 94.91 78.6409C95.1109 78.8802 95.3832 79.0054 95.7257 79.0178C95.9017 78.9462 96.042 78.8169 96.1452 78.6271ZM94.342 79.0164C94.0669 78.7234 93.9307 78.3576 93.9307 77.916C93.9307 77.4223 94.082 77.011 94.3888 76.6836C94.6941 76.3563 95.0765 76.1926 95.5359 76.1926C95.9513 76.1926 96.2951 76.3384 96.5688 76.6314C96.8425 76.9257 96.9801 77.2916 96.9801 77.7331C96.9801 78.2269 96.8274 78.6368 96.5221 78.9641C96.2167 79.2901 95.8343 79.4538 95.3736 79.4538C94.9609 79.4538 94.6171 79.308 94.342 79.0164ZM91.4164 77.1747L90.8773 78.5542C90.6709 79.0769 90.4839 79.4744 90.3188 79.7467C90.151 80.0191 89.9708 80.2268 89.7742 80.3684H88.909C89.1318 80.1979 89.3244 80.0108 89.4867 79.8073C89.6504 79.6037 89.8099 79.3492 89.9667 79.0425L90.0534 78.8871V78.8885L89.2804 77.1747C89.191 76.9739 89.1029 76.8061 89.0177 76.6726C88.9324 76.5378 88.8279 76.4003 88.7027 76.2614H89.5995C89.6119 76.3288 89.6339 76.4099 89.6682 76.5048C89.7026 76.6011 89.759 76.7387 89.836 76.9188L90.4014 78.2668L90.8745 76.9188C90.9226 76.7827 90.9529 76.6671 90.9653 76.5695C90.979 76.4732 90.9777 76.37 90.9612 76.2614H91.9033C91.8098 76.3797 91.7259 76.5062 91.6544 76.641C91.5829 76.7744 91.5045 76.9532 91.4164 77.1747ZM84.0303 78.4703V77.1747C84.0303 77.0069 84.0193 76.8556 84.0001 76.7208C83.9794 76.586 83.9437 76.4333 83.8914 76.2614H84.6823V76.8611L85.0908 76.3783L85.238 76.2958C85.3783 76.227 85.5378 76.1926 85.718 76.1926C85.9766 76.1926 86.1746 76.2696 86.3094 76.4251C86.4112 76.5392 86.4731 76.6946 86.4951 76.89L86.9806 76.3728L87.1141 76.3013C87.2543 76.2284 87.4029 76.1926 87.5624 76.1926C87.8155 76.1926 88.0081 76.2683 88.1401 76.4196C88.2735 76.5709 88.3396 76.7923 88.3396 77.0825V78.4703C88.3396 78.7358 88.3478 78.9352 88.3643 79.0687C88.3795 79.2034 88.4083 79.308 88.451 79.385H87.5487C87.601 79.2887 87.6367 79.1746 87.6574 79.0398C87.6766 78.9064 87.6862 78.7165 87.6862 78.4703V77.2792C87.6862 77.11 87.6463 76.9849 87.5638 76.9023C87.4813 76.8198 87.3548 76.7785 87.187 76.7785C87.0288 76.7785 86.8568 76.8294 86.6684 76.9312L86.5116 77.022V78.4703C86.5116 78.7152 86.5212 78.9022 86.5432 79.0356C86.5639 79.1691 86.601 79.286 86.6519 79.385H85.7207C85.7716 79.2887 85.8088 79.1746 85.828 79.0398C85.8486 78.9064 85.8583 78.7165 85.8583 78.4703V77.282C85.8583 77.11 85.8184 76.9849 85.7359 76.9023C85.6533 76.8198 85.5282 76.7785 85.3576 76.7785C85.2132 76.7785 85.0358 76.8308 84.8267 76.9367L84.6823 77.0082V78.4703C84.6823 78.7152 84.6933 78.9022 84.7139 79.0356C84.7359 79.1691 84.7717 79.286 84.8239 79.385H83.8914C83.9437 79.2887 83.9794 79.1746 84.0001 79.0398C84.0193 78.9064 84.0303 78.7165 84.0303 78.4703ZM82.8818 77.4676C82.8804 77.1967 82.8282 76.9876 82.725 76.8446C82.6205 76.7001 82.4706 76.6286 82.2725 76.6286H82.2753C82.0579 76.6286 81.8901 76.7167 81.7718 76.8941C81.6783 77.0358 81.6205 77.2269 81.6013 77.4676H82.8818ZM82.4568 79.4538C82.0057 79.4538 81.6357 79.3107 81.3468 79.0219C81.058 78.733 80.9149 78.3631 80.9149 77.9105C80.9149 77.4181 81.0415 77.0082 81.2946 76.6823C81.549 76.3549 81.8654 76.1926 82.2464 76.1926H82.2532C82.626 76.1926 82.9121 76.315 83.1143 76.5626C83.3151 76.8102 83.4169 77.1623 83.4169 77.6203V77.9023H81.6068C81.6384 78.1856 81.7251 78.4208 81.8654 78.6093C82.0442 78.8472 82.2863 78.9655 82.593 78.9655C82.7319 78.9655 82.8681 78.9476 83.0029 78.9132C83.1377 78.8788 83.2573 78.8293 83.366 78.7647L83.1074 79.3644C82.9643 79.4015 82.8502 79.4249 82.7622 79.4373C82.6755 79.4483 82.5737 79.4538 82.4568 79.4538ZM79.0567 76.6341C78.7651 76.6341 78.5561 76.729 78.4268 76.9175C78.2989 77.1059 78.2356 77.414 78.2356 77.8418C78.2356 78.1829 78.3126 78.4538 78.468 78.6533C78.6235 78.8541 78.8339 78.9545 79.098 78.9545C79.2259 78.9545 79.3456 78.9311 79.4556 78.8857L79.6482 78.7867V76.8157C79.4955 76.6946 79.2988 76.6341 79.0567 76.6341ZM78.8752 79.4538C78.4722 79.4538 78.1531 79.3327 77.9179 79.092C77.6827 78.8513 77.5644 78.524 77.5644 78.1127C77.5644 77.5625 77.7267 77.1045 78.054 76.74C78.3786 76.3742 78.7871 76.1926 79.2782 76.1926C79.4116 76.1926 79.534 76.2091 79.6482 76.2435V76C79.6482 75.7965 79.6385 75.6273 79.6179 75.4939C79.5986 75.3591 79.5615 75.2229 79.5092 75.0854L79.9673 74.996L80.4267 74.9052C80.3799 75.0304 80.3455 75.1817 80.329 75.3563C80.3097 75.5296 80.3015 75.7759 80.3015 76.0908V78.4703C80.3015 78.7152 80.3111 78.9022 80.3331 79.0356C80.3538 79.1691 80.3895 79.286 80.4418 79.385H79.6482V78.96L79.2603 79.3795C79.1104 79.4304 78.9811 79.4552 78.8752 79.4538ZM76.2687 78.9105V78.0508H75.4269C75.4063 78.0508 75.3802 78.11 75.3485 78.2255C75.3183 78.341 75.3018 78.4387 75.3018 78.5171C75.3018 78.6643 75.3527 78.7757 75.4531 78.8486C75.5535 78.9229 75.7034 78.96 75.9042 78.96C76.028 78.96 76.1477 78.9435 76.2618 78.9105H76.2687ZM75.6278 79.4538C75.3086 79.4538 75.0638 79.3891 74.8905 79.2585C74.7186 79.1292 74.6319 78.9421 74.6319 78.7014C74.6319 78.5405 74.6925 78.3892 74.8149 78.2475C74.9359 78.1045 75.0996 77.9931 75.3059 77.9105L76.2687 77.5309V77.2462C76.2687 77.0756 76.2123 76.9408 76.1037 76.8404C75.9922 76.74 75.8437 76.6891 75.658 76.6891C75.537 76.6891 75.4214 76.7084 75.3087 76.7483C75.1972 76.7868 75.0735 76.8514 74.94 76.9408L75.1188 76.3412C75.2481 76.2903 75.3719 76.2518 75.4916 76.2284C75.6126 76.2036 75.735 76.1926 75.8588 76.1926C76.2123 76.1926 76.4764 76.2806 76.6552 76.4567C76.8326 76.6327 76.9207 76.8955 76.9207 77.2462V78.4703C76.9207 78.7317 76.9289 78.9284 76.9454 79.0618C76.9633 79.1952 76.9936 79.3025 77.0376 79.385H76.2687V79.0865L75.7598 79.4483L75.6278 79.4538ZM74.0034 79.3644C73.8548 79.4015 73.7351 79.4249 73.6444 79.4373C73.5536 79.4483 73.4449 79.4538 73.3211 79.4538C72.8879 79.4538 72.5275 79.308 72.24 79.0178C71.9526 78.7262 71.8082 78.3603 71.8082 77.9188C71.8082 77.425 71.9677 77.0137 72.2868 76.685C72.6059 76.3563 73.0034 76.1926 73.4834 76.1926C73.6114 76.1926 73.7241 76.1967 73.819 76.205C73.914 76.2132 74.046 76.2325 74.2138 76.2614L74.1808 76.9821C74.0611 76.8569 73.9415 76.7675 73.8218 76.7125C73.7035 76.6561 73.5715 76.6286 73.4298 76.6286C73.141 76.6286 72.9126 76.7332 72.7435 76.9408C72.5743 77.1485 72.489 77.4305 72.489 77.784C72.489 78.1457 72.5798 78.4332 72.7586 78.6464C72.9374 78.8596 73.1795 78.9655 73.4848 78.9655C73.5894 78.9655 73.6966 78.9504 73.8094 78.9215C73.9222 78.8926 74.0735 78.8403 74.2633 78.7647L74.0034 79.3644ZM68.503 77.4195H69.7326L69.1205 76.0592H69.1164L68.503 77.4195ZM67.5347 78.0797L69.1467 74.7924H69.1494L70.7614 78.0797C70.9485 78.458 71.0998 78.7427 71.2181 78.9339C71.3364 79.125 71.4533 79.2763 71.5675 79.385H70.397C70.4217 79.2956 70.4093 79.1553 70.3626 78.9641C70.3158 78.7729 70.2429 78.5666 70.1411 78.3424L69.9884 77.9944H68.2444L68.2224 78.0605C68.1027 78.3259 68.0106 78.5886 67.9459 78.8445C67.8813 79.1017 67.8634 79.2818 67.8909 79.385H66.7108C66.8387 79.2626 66.9639 79.1058 67.0835 78.9132C67.2046 78.722 67.3545 78.4442 67.5347 78.0797ZM63.7426 78.4703V76C63.7426 75.7965 63.7329 75.6273 63.7123 75.4939C63.6931 75.3591 63.6559 75.2229 63.6037 75.0854L64.0699 74.996L64.5362 74.9052C64.4839 75.0469 64.4482 75.2037 64.4262 75.3783C64.4055 75.553 64.3959 75.791 64.3959 76.0908V78.4703C64.3959 78.7152 64.4055 78.9022 64.4262 79.0356C64.4482 79.1691 64.4839 79.286 64.5362 79.385H63.6037C63.6559 79.2887 63.6931 79.1746 63.7123 79.0398C63.7329 78.9064 63.7426 78.7165 63.7426 78.4703ZM62.2997 78.9105V78.0508H61.4566C61.4373 78.0508 61.4112 78.11 61.3809 78.2255C61.3493 78.341 61.3342 78.4387 61.3342 78.5171C61.3342 78.6643 61.3837 78.7757 61.4841 78.8486C61.5845 78.9229 61.7344 78.96 61.9352 78.96C62.059 78.96 62.1787 78.9435 62.2929 78.9105H62.2997ZM61.6588 79.4538C61.3397 79.4538 61.0949 79.3891 60.9215 79.2585C60.7496 79.1292 60.663 78.9421 60.663 78.7014C60.663 78.5405 60.7235 78.3892 60.8445 78.2475C60.9669 78.1045 61.1306 77.9931 61.3369 77.9105L62.2997 77.5309V77.2462C62.2997 77.0756 62.2433 76.9408 62.1333 76.8404C62.0233 76.74 61.8747 76.6891 61.689 76.6891C61.568 76.6891 61.4525 76.7084 61.3397 76.7483C61.2283 76.7868 61.1045 76.8514 60.9711 76.9408L61.1499 76.3412C61.2792 76.2903 61.4029 76.2518 61.524 76.2284C61.6437 76.2036 61.7661 76.1926 61.8899 76.1926C62.2433 76.1926 62.5088 76.2806 62.6849 76.4567C62.8623 76.6327 62.9517 76.8955 62.9517 77.2462V78.4703C62.9517 78.7317 62.9599 78.9284 62.9778 79.0618C62.9943 79.1952 63.0246 79.3025 63.0686 79.385H62.2997V79.0865L61.7908 79.4483L61.6588 79.4538ZM58.6521 78.4703V77.1747C58.6521 77.0069 58.6411 76.8556 58.6218 76.7208C58.6012 76.586 58.5654 76.4333 58.5131 76.2614H59.304V76.8157L59.8129 76.2696C59.9629 76.2174 60.1073 76.1926 60.2448 76.1926C60.359 76.1926 60.4566 76.2132 60.5364 76.2559L60.4044 76.9271L60.3741 76.9078C60.2517 76.8212 60.1073 76.7785 59.9381 76.7785C59.8143 76.7785 59.652 76.8226 59.4512 76.9106L59.304 76.9739V78.4703C59.304 78.7152 59.315 78.9022 59.3357 79.0356C59.3563 79.1691 59.3934 79.286 59.4457 79.385H58.5131C58.5654 79.2887 58.6012 79.1746 58.6218 79.0398C58.6411 78.9064 58.6521 78.7165 58.6521 78.4703ZM57.4004 79.4538C57.1432 79.4538 56.9562 79.3809 56.8392 79.2351C56.7223 79.0907 56.6632 78.8568 56.6632 78.5364V76.6919H56.1997V76.6905L57.311 75.5709H57.3165V76.2614H58.0771V76.6919H57.3165V78.2764C57.3165 78.4868 57.3537 78.6436 57.4279 78.7482C57.5036 78.8527 57.6177 78.905 57.7677 78.905C57.8598 78.905 57.9437 78.894 58.0207 78.8733C58.0978 78.8527 58.1913 78.8156 58.3 78.7619L58.0414 79.3616C57.9272 79.3988 57.8268 79.4235 57.7415 79.4359C57.6562 79.4483 57.5421 79.4538 57.4004 79.4538ZM53.2989 78.4703V77.1747C53.2989 77.0041 53.2879 76.8528 53.2686 76.718C53.248 76.5832 53.2122 76.4319 53.1599 76.2614H53.9508V76.8047L54.4473 76.2586C54.6152 76.2146 54.7554 76.1926 54.8682 76.1926C55.1653 76.1926 55.3909 76.2806 55.545 76.4581C55.699 76.6355 55.776 76.8941 55.776 77.2324V78.4703C55.776 78.7317 55.7843 78.9284 55.8022 79.0618C55.8187 79.1952 55.8503 79.3025 55.8943 79.385H54.9851C55.0374 79.2887 55.0732 79.1746 55.0938 79.0398C55.1144 78.9064 55.1241 78.7165 55.1241 78.4703V77.3191C55.1241 77.1362 55.0801 77.0014 54.992 76.912C54.9026 76.8226 54.7678 76.7785 54.5849 76.7785C54.4611 76.7785 54.2988 76.8226 54.098 76.9106L53.9508 76.9739V78.4703C53.9508 78.7152 53.9618 78.9022 53.9825 79.0356C54.0031 79.1691 54.0402 79.286 54.0925 79.385H53.1599C53.2122 79.2887 53.248 79.1746 53.2686 79.0398C53.2879 78.9064 53.2989 78.7165 53.2989 78.4703ZM52.105 77.4676C52.1036 77.1967 52.0513 76.9876 51.9482 76.8446C51.8436 76.7001 51.6937 76.6286 51.4957 76.6286H51.4984C51.2811 76.6286 51.1133 76.7167 50.995 76.8941C50.9015 77.0358 50.8437 77.2269 50.8244 77.4676H52.105ZM51.68 79.4538C51.2288 79.4538 50.8588 79.3107 50.57 79.0219C50.2825 78.733 50.1381 78.3631 50.1381 77.9105C50.1381 77.4181 50.2646 77.0082 50.5177 76.6823C50.7722 76.3549 51.0885 76.1926 51.4695 76.1926H51.475C51.8491 76.1926 52.1366 76.315 52.3374 76.5626C52.5382 76.8102 52.64 77.1623 52.64 77.6203V77.9023H50.8299C50.8616 78.1856 50.9482 78.4208 51.0885 78.6093C51.2673 78.8472 51.5094 78.9655 51.8161 78.9655C51.9551 78.9655 52.0912 78.9476 52.226 78.9132C52.3608 78.8788 52.4818 78.8293 52.5891 78.7647L52.3305 79.3644C52.1875 79.4015 52.0733 79.4249 51.9853 79.4373C51.8987 79.4483 51.7969 79.4538 51.68 79.4538ZM49.764 79.1113C49.4985 79.242 49.2619 79.3314 49.0584 79.3809C48.8534 79.4304 48.6114 79.4538 48.3335 79.4538C47.6596 79.4538 47.0984 79.2433 46.65 78.8211C46.203 78.4002 45.9788 77.872 45.9788 77.2352C45.9788 76.5392 46.2167 75.9629 46.6912 75.5021C47.1658 75.0427 47.7613 74.813 48.4779 74.813C48.7049 74.813 48.9126 74.8282 49.1024 74.8598C49.2908 74.8914 49.4861 74.9437 49.687 75.0166V75.7607C49.504 75.6301 49.3018 75.531 49.0804 75.4623C48.8589 75.3935 48.6306 75.3577 48.3968 75.3577C47.9278 75.3577 47.5371 75.5269 47.2249 75.8653C46.9141 76.2022 46.7586 76.6245 46.7586 77.132C46.7586 77.6409 46.9044 78.0646 47.1988 78.4016C47.4917 78.7399 47.859 78.9077 48.3005 78.9077C48.5976 78.9077 48.8603 78.8665 49.09 78.7839C49.3197 78.7014 49.5563 78.5625 49.8011 78.3686L49.764 79.1113ZM42.7671 78.9105V78.0508H41.9253C41.9047 78.0508 41.88 78.11 41.8483 78.2255C41.8167 78.341 41.8016 78.4387 41.8016 78.5171C41.8016 78.6643 41.8511 78.7757 41.9515 78.8486C42.0519 78.9229 42.2018 78.96 42.4026 78.96C42.5278 78.96 42.6461 78.9435 42.7602 78.9105H42.7671ZM42.1262 79.4538C41.8071 79.4538 41.5622 79.3891 41.3889 79.2585C41.217 79.1292 41.1303 78.9421 41.1303 78.7014C41.1303 78.5405 41.1909 78.3892 41.3133 78.2475C41.4343 78.1045 41.598 77.9931 41.8043 77.9105L42.7671 77.5309V77.2462C42.7671 77.0756 42.7121 76.9408 42.6021 76.8404C42.4906 76.74 42.3421 76.6891 42.1564 76.6891C42.0354 76.6891 41.9198 76.7084 41.8071 76.7483C41.6956 76.7868 41.5719 76.8514 41.4384 76.9408L41.6186 76.3412C41.7465 76.2903 41.8703 76.2518 41.9914 76.2284C42.111 76.2036 42.2334 76.1926 42.3572 76.1926C42.7107 76.1926 42.9762 76.2806 43.1536 76.4567C43.331 76.6327 43.4191 76.8955 43.4191 77.2462V78.4703C43.4191 78.7317 43.4287 78.9284 43.4452 79.0618C43.4617 79.1952 43.4933 79.3025 43.536 79.385H42.7671V79.0865L42.2582 79.4483L42.1262 79.4538ZM38.081 78.4703V77.1747C38.081 77.0041 38.0714 76.8528 38.0521 76.718C38.0315 76.5832 37.9943 76.4319 37.9434 76.2614H38.7343V76.8047L39.2295 76.2586C39.3987 76.2146 39.539 76.1926 39.6517 76.1926C39.9475 76.1926 40.173 76.2806 40.3285 76.4581C40.4825 76.6355 40.5595 76.8941 40.5595 77.2324V78.4703C40.5595 78.7317 40.5678 78.9284 40.5857 79.0618C40.6022 79.1952 40.6324 79.3025 40.6764 79.385H39.7687C39.8209 79.2887 39.8567 79.1746 39.8759 79.0398C39.8966 78.9064 39.9062 78.7165 39.9062 78.4703V77.3191C39.9062 77.1362 39.8622 77.0014 39.7742 76.912C39.6861 76.8226 39.5513 76.7785 39.3684 76.7785C39.2446 76.7785 39.0823 76.8226 38.8815 76.9106L38.7343 76.9739V78.4703C38.7343 78.7152 38.7439 78.9022 38.766 79.0356C38.7866 79.1691 38.8237 79.286 38.8746 79.385H37.9434C37.9943 79.2887 38.0315 79.1746 38.0521 79.0398C38.0714 78.9064 38.081 78.7165 38.081 78.4703ZM36.9105 74.9561C37.0329 74.9561 37.1374 75.0029 37.2227 75.0964C37.308 75.1913 37.3506 75.3055 37.3506 75.4416C37.3506 75.5778 37.308 75.6919 37.2227 75.7855C37.1374 75.8776 37.0329 75.9244 36.9105 75.9244C36.7867 75.9244 36.6835 75.8776 36.5983 75.7855C36.5116 75.6919 36.469 75.5778 36.469 75.4416C36.469 75.3055 36.5116 75.1913 36.5983 75.0964C36.6835 75.0029 36.7867 74.9561 36.9105 74.9561ZM36.5983 78.4703V77.1747C36.5983 77.0069 36.5886 76.8556 36.5694 76.7208C36.5487 76.586 36.513 76.4333 36.4607 76.2614H37.3933C37.341 76.3604 37.3039 76.4773 37.2832 76.6121C37.2626 76.7455 37.2516 76.9326 37.2516 77.1747V78.4703C37.2516 78.7152 37.2626 78.9022 37.2832 79.0356C37.3039 79.1691 37.341 79.286 37.3933 79.385H36.4607C36.513 79.2887 36.5487 79.1746 36.5694 79.0398C36.5886 78.9064 36.5983 78.7165 36.5983 78.4703ZM33.2903 78.4703V76C33.2903 75.7965 33.2807 75.6273 33.2601 75.4939C33.2408 75.3591 33.2051 75.2229 33.1528 75.0854L33.6191 74.996L34.084 74.9052C34.0317 75.0469 33.9959 75.2037 33.9753 75.3783C33.9533 75.553 33.9437 75.791 33.9437 76.0908V76.8047L34.4402 76.2586C34.608 76.2146 34.7483 76.1926 34.8611 76.1926C35.1568 76.1926 35.3824 76.2806 35.5378 76.4581C35.6918 76.6355 35.7689 76.8941 35.7689 77.2324V78.4703C35.7689 78.7317 35.7771 78.9284 35.7936 79.0618C35.8115 79.1952 35.8418 79.3025 35.8858 79.385H34.978C35.0303 79.2887 35.066 79.1746 35.0853 79.0398C35.1059 78.9064 35.1169 78.7165 35.1169 78.4703V77.3191C35.1169 77.1362 35.0715 77.0014 34.9835 76.912C34.8955 76.8226 34.7607 76.7785 34.5777 76.7785C34.454 76.7785 34.2903 76.8226 34.0908 76.9106L33.9437 76.9739V78.4703C33.9437 78.7152 33.9533 78.9022 33.9753 79.0356C33.9959 79.1691 34.0317 79.286 34.084 79.385H33.1528C33.2051 79.2887 33.2408 79.1746 33.2601 79.0398C33.2807 78.9064 33.2903 78.7165 33.2903 78.4703ZM32.7319 79.1113C32.4651 79.242 32.2285 79.3314 32.0249 79.3809C31.82 79.4304 31.5793 79.4538 31.3001 79.4538C30.6261 79.4538 30.0649 79.2433 29.6165 78.8211C29.1695 78.4002 28.9453 77.872 28.9453 77.2352C28.9453 76.5392 29.1833 75.9629 29.6578 75.5021C30.1323 75.0427 30.7279 74.813 31.4445 74.813C31.6714 74.813 31.8791 74.8282 32.0689 74.8598C32.2574 74.8914 32.4527 74.9437 32.6535 75.0166V75.7607C32.4706 75.6301 32.2684 75.531 32.0469 75.4623C31.8255 75.3935 31.5972 75.3577 31.3633 75.3577C30.8943 75.3577 30.5037 75.5269 30.1915 75.8653C29.8806 76.2022 29.7252 76.6245 29.7252 77.132C29.7252 77.6409 29.871 78.0646 30.1653 78.4016C30.4583 78.7399 30.8255 78.9077 31.2671 78.9077C31.5642 78.9077 31.8269 78.8665 32.0566 78.7839C32.2863 78.7014 32.5228 78.5625 32.7677 78.3686L32.7319 79.1113Z" fill="#363C44"/>
</g>
<defs>
<filter id="filter0_d_185_286" x="0" y="0" width="154" height="157" filterUnits="userSpaceOnUse" color-interpolation-filters="sRGB">
<feFlood flood-opacity="0" result="BackgroundImageFix"/>
<feColorMatrix in="SourceAlpha" type="matrix" values="0 0 0 0 0 0 0 0 0 0 0 0 0 0 0 0 0 0 127 0" result="hardAlpha"/>
<feOffset dy="16"/>
<feGaussianBlur stdDeviation="6.5"/>
<feColorMatrix type="matrix" values="0 0 0 0 0 0 0 0 0 0 0 0 0 0 0 0 0 0 0.03 0"/>
<feBlend mode="normal" in2="BackgroundImageFix" result="effect1_dropShadow_185_286"/>
<feBlend mode="normal" in="SourceGraphic" in2="effect1_dropShadow_185_286" result="shape"/>
</filter>
</defs>
</svg>
