<svg width="154" height="157" viewBox="0 0 154 157" fill="none" xmlns="http://www.w3.org/2000/svg">
<g filter="url(#filter0_d_185_280)">
<rect width="128" height="128" transform="translate(13)" fill="white"/>
<path fill-rule="evenodd" clip-rule="evenodd" d="M72.2026 58.2526C71.8072 58.4832 71.2799 58.5623 70.9767 58.9248C70.8185 59.116 70.6867 59.406 70.5285 59.6498C70.2319 60.1178 69.9222 60.566 69.5794 61.0471C69.3751 61.3371 69.1247 61.6403 68.9665 61.9369C68.7556 62.3456 68.4062 62.6949 68.1294 63.1101C67.8131 63.5715 67.5758 64.0592 67.1803 64.4481C67.0485 64.9358 66.686 65.4038 66.396 65.8981C65.8489 66.8472 65.2558 67.6711 64.5571 68.5213C64.1089 69.0684 63.7596 69.7999 63.1598 70.0834C62.6853 70.3075 62.0855 70.2613 61.5384 70.2481C61.7625 69.9186 62.1382 69.7736 62.4282 69.5231C62.7116 69.2793 62.9885 69.042 63.2653 68.7981C63.8716 68.0665 64.4846 67.3876 65.0514 66.6231C65.6183 65.8585 66.073 65.0215 66.6135 64.224C67.6681 62.6685 68.749 61.0603 69.5728 59.3137C68.7885 59.0171 67.2726 59.0237 67.0617 57.9757C68.6106 58.4173 69.9353 57.6066 70.634 56.6905C71.5369 56.8289 72.0313 57.376 72.1961 58.2526H72.2026Z" fill="#E62129"/>
<path fill-rule="evenodd" clip-rule="evenodd" d="M104.624 60.3221C104.637 60.2562 104.683 60.2892 104.736 60.3221C104.696 60.1508 104.835 60.1573 104.788 59.986C104.716 59.9267 104.63 59.5905 104.512 59.7619C104.683 59.9333 104.492 60.1705 104.624 60.3221ZM102.337 56.8619C103.101 57.1782 103.747 57.6066 104.571 57.8637C104.538 58.2064 104.591 58.9182 104.683 59.3137C105.21 59.4126 105.461 60.2233 105.968 59.986C106.12 60.4342 106.746 60.6912 106.64 61.2119C106.746 61.403 107.01 61.436 107.089 61.6601C106.858 61.9105 106.838 62.3521 106.64 62.6092C106.397 62.9322 106.028 62.9321 105.639 63.1101C105.322 63.6506 104.413 63.5913 104.578 64.6194C104.36 64.7579 104.11 64.8567 103.905 65.0083C103.78 65.5488 103.338 66.287 103.569 67.1833C103.127 67.4008 102.686 67.592 102.396 67.9677C102.165 68.2642 102.165 68.6861 101.948 68.9695C101.19 69.0354 100.847 69.5034 100.386 69.8659C99.977 69.7011 99.7727 70.0175 99.4959 70.1427C99.3377 70.0834 99.2256 69.9647 99.219 69.7538C99.0147 69.7736 99.0213 69.9977 98.7181 69.9186C98.6918 69.5165 98.9554 69.4111 99.107 69.1936C99.0806 68.719 99.4431 68.6333 99.6672 68.4158C99.7002 68.2115 99.72 68.2181 99.72 67.9149C100.063 67.7172 100.267 67.3876 100.445 67.0251C100.939 67.2426 101.065 66.7022 101.282 66.4649C101.282 66.2606 101.084 66.254 101.005 66.1288C101.032 65.9179 101.104 65.7465 101.229 65.6279C101.15 65.239 100.775 65.1533 100.616 64.8435C100.485 64.8435 100.452 64.9424 100.28 64.9028C99.9572 64.5206 99.3377 64.4349 99.2784 63.789C100.109 64.0131 101.223 63.8944 101.737 63.3408C101.836 63.2353 101.849 63.031 101.961 62.8399C102.152 62.5235 102.396 62.2928 102.462 61.7787C102.317 61.324 102.541 60.7044 102.462 59.9926C102.58 59.8476 102.679 59.9464 102.798 59.8805C102.805 59.7026 102.594 59.4587 102.745 59.3203C102.534 59.116 102.383 58.8128 102.356 58.4832C102.343 58.2921 102.468 58.068 102.468 57.8703C102.462 57.4946 102.178 57.1848 102.356 56.8684L102.337 56.8619Z" fill="#E62129"/>
<path fill-rule="evenodd" clip-rule="evenodd" d="M87.6058 61.8842C87.1114 62.5565 86.2348 62.8531 85.5955 63.3935C85.1012 63.2947 84.7189 63.7297 84.3696 63.9537C84.3959 64.5865 83.8159 65.0017 83.7566 65.5751C83.7303 65.8124 83.8753 65.9442 83.9214 66.1354C83.9609 66.2804 83.895 66.4188 83.9214 66.4715C84.04 66.722 84.4091 67.0515 84.7057 67.3613C84.9759 67.6447 85.345 68.0599 85.5955 68.1456C85.6944 68.1786 85.8987 68.1324 86.0437 68.1456C86.5578 68.2049 86.9401 68.284 87.2169 67.9215C87.3092 67.8029 87.2301 67.559 87.3289 67.3613C87.4673 67.091 87.7705 67.012 87.8298 66.7483C87.8957 66.4385 87.731 66.0958 87.7771 65.6872C87.4278 65.3181 86.0437 64.2767 86.9928 63.901C87.1971 64.0394 87.3157 63.9669 87.6058 63.9537C87.8694 63.4594 87.9287 62.7542 87.9946 62.0555C87.8628 61.9962 87.8167 61.8644 87.6058 61.8908V61.8842ZM91.1187 65.3972C91.6131 64.8567 91.7581 64.5931 92.1799 63.9999C92.3644 63.7428 92.6281 63.466 92.6281 63.2749C92.6281 62.919 91.824 62.2665 91.5669 62.161C91.1781 61.9962 90.0971 61.8908 89.8401 61.8842C89.7939 61.8974 89.7742 61.9303 89.7808 61.9962C89.616 62.6553 90.453 63.2485 90.3937 63.8944C90.3805 64.046 90.2619 64.1251 90.1169 64.3426C90.0115 64.4942 89.9455 64.7051 89.8401 64.8435C89.5764 65.1929 89.1019 65.3972 88.9503 65.6806C88.7328 66.076 88.8383 66.5308 89.1151 67.0186C89.873 66.6231 90.5915 65.9838 91.1253 65.3972H91.1187ZM88.1594 57.1387C88.4164 57.3694 88.7064 57.31 88.9964 57.4155C89.5105 58.5228 89.4446 59.5048 89.4446 61.2119C89.7017 61.4558 90.2487 61.6469 90.6706 61.548C91.0462 61.8578 91.7251 61.7919 92.3447 61.9962C92.6478 62.0951 92.8785 62.3126 93.1817 62.3324C93.3531 62.629 94.0451 63.176 94.0715 63.5583C94.0979 63.8747 93.821 64.2503 93.5706 64.5074C93.3663 64.7117 92.9906 64.8172 92.7863 65.0676C92.6281 65.2654 92.549 65.5751 92.3974 65.7926C92.2656 65.9838 92.114 66.254 91.9492 66.4056C91.679 66.6561 90.9671 66.8999 90.9474 67.3547C90.9276 67.704 91.3428 67.9545 91.3956 68.3565C91.4285 68.6268 91.356 68.7915 91.2835 69.1936C90.4992 69.3188 89.1349 69.5693 88.3242 69.1409C87.6782 69.3847 87.2432 69.7604 86.5973 69.4177C86.4194 69.3254 86.0569 68.9893 85.8723 68.8047C85.7866 68.719 85.7998 68.6004 85.7075 68.5279C85.4571 68.3368 85.2594 68.3038 85.0353 68.0797C84.6794 67.7238 84.0071 67.2426 83.638 66.9065C83.5589 66.4254 83.2689 66.1617 83.1898 65.6806C83.0909 65.4104 82.6823 65.4433 82.5768 65.1797C82.768 63.7099 84.3828 63.2222 85.4769 62.5565C86.3139 62.049 86.973 61.3042 87.9353 61.2712C88.3044 60.0189 87.9748 58.4437 88.1594 57.1387Z" fill="#E62129"/>
<path fill-rule="evenodd" clip-rule="evenodd" d="M53.9588 58.536C53.8402 58.8523 54.0313 59.0632 54.0116 59.4323C53.6622 59.6169 53.3327 59.7421 53.0097 59.6564C52.4165 59.4982 52.1661 58.5096 51.7245 58.2064C51.6981 58.0285 51.8959 58.0812 51.8365 57.8703C52.0804 57.8307 52.1529 57.9626 52.3968 57.9296C52.41 57.8703 52.5088 57.8901 52.5088 57.8176C52.99 58.0614 53.5568 58.2196 53.9588 58.5426V58.536Z" fill="#E62129"/>
<path fill-rule="evenodd" clip-rule="evenodd" d="M82.1946 58.648C82.2868 58.6348 82.2934 58.7007 82.3593 58.7007C82.6559 59.4982 83.1568 60.2694 83.0843 61.2646C82.9855 61.3503 82.8668 61.4162 82.7482 61.4887C82.3396 61.3042 82.0561 60.9878 81.463 60.9878C81.7332 60.3946 82.2077 59.7355 82.0232 58.8655C82.1023 58.8194 82.2407 58.8194 82.188 58.6414L82.1946 58.648Z" fill="#E62129"/>
<path fill-rule="evenodd" clip-rule="evenodd" d="M45.529 59.5378C45.5949 59.5312 45.6278 59.551 45.641 59.5905C46.0497 60.3155 45.9508 61.1987 45.9772 62.049C46.0101 63.2551 46.0826 64.3294 46.1419 65.4565C46.1749 66.0233 46.0694 66.6297 46.1419 67.1833C46.2013 67.6447 46.6231 68.2511 46.254 68.6927C46.0035 68.7718 45.4301 68.3631 45.3049 68.0797C45.1665 67.7633 45.2587 66.9395 45.2521 66.2408C45.2258 64.481 45.3642 62.4971 45.4169 61.1658C45.4433 60.6121 45.3774 60.0914 45.529 59.551V59.5378Z" fill="#E62129"/>
<path fill-rule="evenodd" clip-rule="evenodd" d="M118.689 60.8758C118.821 60.889 118.814 61.0274 118.742 61.0999C118.61 61.0867 118.616 60.9483 118.689 60.8758Z" fill="#E62129"/>
<path fill-rule="evenodd" clip-rule="evenodd" d="M118.854 61.0471C119.038 61.1526 119.183 61.4228 119.467 61.2712C119.414 61.5151 119.177 61.5744 118.854 61.548V61.0471Z" fill="#E62129"/>
<path fill-rule="evenodd" clip-rule="evenodd" d="M32.2482 64.3953C31.2595 64.2899 30.9366 63.5122 30.1852 63.1694C28.9659 62.8465 27.6674 62.6026 27.0017 61.7194C26.9886 61.6271 27.0545 61.6205 27.0545 61.5546C27.1006 61.5414 27.1072 61.5019 27.1665 61.5019C27.5883 61.5876 28.142 61.581 28.6165 61.726C28.6429 61.7326 28.6561 61.8315 28.6693 61.838C28.7286 61.8644 28.7813 61.7853 28.7813 61.7853C29.0911 61.8908 29.3349 62.0555 29.6184 62.1742C29.9479 62.3192 30.2577 62.4049 30.5675 62.5631C30.8047 62.6883 30.9893 62.919 31.2397 63.064C31.5627 63.2551 32.0043 63.3606 32.1888 63.7362C32.2877 63.9406 32.2679 64.191 32.2416 64.4085L32.2482 64.3953Z" fill="#E62129"/>
<path fill-rule="evenodd" clip-rule="evenodd" d="M122.538 65.2851C123.533 65.1138 124.634 65.4894 124.489 66.2342C124.423 66.5901 124.014 66.5176 123.764 66.7945C123.415 66.5967 123.052 66.8472 122.815 67.0713C122.749 67.7765 122.907 68.3763 122.815 68.9102C122.769 69.1936 122.498 69.5956 122.367 69.912C122.202 70.314 121.885 70.5777 121.642 70.9138C121.2 70.8809 121.029 71.4279 120.64 71.5861C119.803 71.9157 118.742 71.395 118.181 71.5861C117.746 71.4082 117.226 71.3093 116.896 71.0259C116.824 70.8545 116.856 70.5777 116.784 70.4129C117.687 70.782 119.308 70.4722 120.244 69.912C121.101 69.3979 121.635 68.5411 121.529 67.4536C121.22 66.9856 120.495 67.1899 120.02 67.0647C119.776 67.1965 119.539 67.302 119.236 67.4536C118.175 67.9874 117.555 66.9065 117.285 66.0563C117.608 66.3924 118.214 66.2672 118.458 66.3331C118.834 66.1485 119.414 66.0233 119.967 65.9442C120.383 65.8849 120.917 65.9969 121.081 65.6081C121.055 65.1929 120.725 65.4301 120.409 65.3313C119.724 64.7447 120.257 63.6044 120.633 63.0969C120.356 62.9387 120.06 63.3606 119.684 63.4331C119.032 63.5517 118.326 63.4067 118.234 62.8201C118.682 63.0903 119.012 62.9717 119.631 62.7608C120.152 62.5828 120.541 62.4378 120.804 62.0885C121.543 62.1083 122.175 62.2401 122.703 62.4774C123.349 63.2419 121.859 63.5385 121.978 64.4283C122.024 64.7974 122.367 64.7974 122.538 65.2654V65.2851Z" fill="#E62129"/>
<path fill-rule="evenodd" clip-rule="evenodd" d="M80.4084 62.9981C80.4743 62.9915 80.5073 63.0113 80.5205 63.0574C80.6061 63.6044 80.3689 63.8088 80.4084 64.2306C80.448 64.6326 80.6259 65.1204 80.7973 65.4565C80.9489 65.7399 81.2323 65.8981 81.2982 66.2936C81.3509 66.6033 81.1861 66.9131 81.2455 67.2426C81.3641 67.3745 81.4827 67.1833 81.5816 67.3547C81.2784 68.3631 82.1748 69.5034 81.4696 70.09C80.9225 69.9384 80.8039 69.5034 80.5205 68.9761C80.448 68.8442 80.2964 68.7718 80.2436 68.6399C79.9339 67.9215 79.8482 66.7681 79.9075 65.9047C79.9273 65.6542 80.0591 65.4367 80.0723 65.1797C80.0986 64.7776 80.0064 64.3953 80.0723 64.0658C80.1382 63.7231 80.3623 63.321 80.4084 63.0047V62.9981Z" fill="#E62129"/>
<path fill-rule="evenodd" clip-rule="evenodd" d="M106.97 69.4704C106.581 69.154 106.12 68.9036 105.968 68.3565C106.258 67.7567 105.915 66.8538 106.304 66.3463C106.482 66.4715 106.911 66.4451 107.194 66.5704C107.313 66.6231 107.398 66.7681 107.583 66.9065C107.721 67.0054 107.939 67.0581 108.031 67.1306C108.209 67.2756 108.354 67.5261 108.532 67.6908C108.908 68.0467 109.152 68.0468 108.98 68.6927C108.901 68.9958 108.407 69.6484 108.031 69.6945C107.603 69.7538 107.372 69.3056 106.97 69.4704Z" fill="#E62129"/>
<path fill-rule="evenodd" clip-rule="evenodd" d="M118.854 61.548C119.177 61.5744 119.414 61.5151 119.467 61.2712C119.183 61.4228 119.038 61.1526 118.854 61.0471V61.548ZM118.742 61.0999C118.814 61.0274 118.814 60.8955 118.689 60.8758C118.616 60.9483 118.616 61.0867 118.742 61.0999ZM122.479 57.2507C122.624 57.3891 122.854 57.4287 123.039 57.5275C123.243 57.2112 123.105 56.73 123.098 56.5257C122.736 56.295 122.235 56.1962 121.925 55.9128C121.951 55.7875 122.202 55.893 122.314 55.86C122.558 55.603 123.045 55.5898 123.263 55.2998C124.14 55.4448 125.794 56.3346 124.489 57.086C124.357 57.3957 124.265 57.7582 124.041 57.9757C124.047 58.5887 123.751 59.1555 123.876 59.7026C123.889 59.9398 123.705 59.9794 123.764 60.2628C124.851 60.2233 126.44 59.9069 127 60.8758C126.815 61.2185 126.209 61.4096 125.827 61.3767C125.741 61.1789 126.018 61.3437 125.992 61.2119C125.919 61.1065 125.636 61.2646 125.491 61.2646C125.253 61.0933 124.772 61.1658 124.601 60.9285C125.069 60.968 125.247 60.7176 125.603 60.6517C125.458 60.388 125.128 60.6319 124.878 60.6517C124.403 60.6912 124.001 60.5858 123.705 60.7637C123.27 61.0274 123.408 61.5283 123.144 61.8776C122.67 61.7787 122.301 61.5678 122.36 60.9285C121.938 60.8494 121.569 61.1065 121.134 61.2646C120.422 61.5151 119.605 61.5942 119.012 61.9896C118.952 62.2203 118.999 62.2335 119.012 62.4906C118.801 62.4049 118.709 62.2006 118.511 62.1017C118.155 62.1742 117.918 62.3653 117.621 62.4906C117.595 62.8728 117.74 63.0772 117.786 63.3869C117.522 63.1694 117.344 62.8597 117.173 62.5499C116.211 62.8333 115.248 63.1167 114.662 63.7758C114.563 64.4217 113.996 64.5997 113.66 65.0017C113.08 64.949 112.506 64.5008 112.599 64.2174C112.724 63.8285 113.436 63.2287 113.489 62.7081C113.587 62.7081 113.633 62.6685 113.653 62.596C114.069 62.6883 114.312 62.6685 114.655 62.8728C115.558 62.7146 116.342 62.4444 117.166 62.2006C117.219 60.5528 116.402 59.3269 115.545 58.4041C115.242 58.2657 115.004 58.0482 114.82 57.7912C116.566 58.0548 117.179 60.4605 117.443 62.0292C117.68 62.0819 118.049 61.8315 118.339 61.7524C118.458 60.2958 117.904 57.5407 116.777 56.9541C118.405 57.1519 118.491 59.373 118.9 60.9746C119.335 60.6714 119.308 60.2299 119.625 59.8608C119.434 59.5642 119.196 59.3203 118.9 59.1358C119.13 59.0105 119.46 59.5246 119.684 59.4126C119.836 58.9512 120.053 58.4964 120.02 57.9626C119.849 57.8175 119.796 58.1537 119.519 58.0746C119.117 57.8044 118.788 57.4682 118.682 56.9014C118.946 56.6444 119.196 55.9919 118.847 55.6162C119.447 55.7216 119.842 56.0314 120.073 56.506C120.561 56.6773 121.319 56.8553 121.635 57.1782C122.189 57.7385 121.609 58.0417 121.299 58.6282C121.094 59.0171 121.068 59.4389 120.739 59.6301C120.666 59.7948 120.772 59.9201 120.739 60.1903C120.284 60.3683 120.271 60.9878 119.849 61.1921C120.159 61.3767 120.383 61.0801 120.686 60.968C121.174 60.7901 121.833 60.7505 122.307 60.5792C122.485 60.5133 122.755 60.4408 122.755 60.1903C122.775 59.9464 122.525 59.9728 122.419 59.8542C122.208 59.5246 122.044 59.1489 121.859 58.793C122.189 59.1555 122.479 58.9446 122.973 59.0171C123.125 58.9051 123.019 58.5426 123.138 58.4041C122.749 58.0812 122.189 57.5407 122.413 56.9541C122.498 57.0728 122.617 57.1585 122.749 57.231C122.742 57.3562 122.61 57.1585 122.472 57.231L122.479 57.2507Z" fill="#E62129"/>
<path fill-rule="evenodd" clip-rule="evenodd" d="M51.3883 62.5499C50.7622 62.7608 50.7688 61.871 50.3865 61.6601C50.3008 61.6865 50.4063 61.7326 50.3865 61.8249C50.2745 61.8117 50.2745 61.6733 50.1624 61.6601C50.1624 61.4558 50.3602 61.4492 50.4392 61.324C50.9336 61.7787 51.4081 62.2533 51.6652 62.9453C51.4279 62.9585 51.507 62.6553 51.3883 62.5565V62.5499ZM50.2745 64.224C49.5165 64.6063 48.9695 65.1863 48.2642 65.6213C48.251 65.5751 48.284 65.5685 48.317 65.5619C48.8245 64.8765 49.7142 64.1515 50.4392 63.499C50.4327 63.2353 50.6238 63.1628 50.6633 62.9387C50.8347 62.8992 50.8281 63.0376 50.9995 62.9915C50.8874 63.5319 50.4854 63.7824 50.2745 64.2174V64.224ZM48.8772 61.7655C48.8574 61.6205 48.9563 61.581 49.1013 61.6008C49.0551 61.6799 49.0156 61.7787 48.8772 61.7655ZM54.0643 65.4499C53.8336 64.8963 53.57 64.4876 53.504 63.9999C53.5963 63.5187 54.2225 63.4331 54.2884 62.9981C54.3806 62.3719 53.7216 62.0819 53.1152 61.8842C53.069 62.2994 52.9438 62.6421 52.7263 62.886C52.0145 62.3192 51.4015 61.6403 50.9995 60.7637C51.0324 60.4935 51.362 60.533 51.3883 60.2628C51.4477 59.3335 50.7227 59.5246 49.9911 59.4258C49.8988 59.4126 49.7472 59.2676 49.6549 59.261C49.5561 59.2478 49.5231 59.3401 49.4308 59.3203C49.1606 59.2412 48.9497 59.0369 48.7585 59.0435C48.6201 59.3796 47.7435 59.518 48.2576 59.9926C48.4817 59.8871 48.719 59.8344 48.9299 59.8805C48.6333 60.3023 48.0204 60.0651 47.6447 60.1046C48.0863 60.3155 48.4751 60.5792 48.7585 60.9417C48.4158 61.3635 47.8885 61.6008 47.5326 62.0028C47.3613 62.0424 47.3679 61.904 47.1965 61.9501C46.9263 62.5235 47.1438 63.5517 47.6974 63.5715C47.9347 63.5781 48.6795 62.8992 48.8706 62.7344C49.042 62.5894 49.2001 62.5301 49.3715 62.4576C49.4506 62.4246 49.3781 62.2401 49.4836 62.2335C49.7472 62.2335 49.767 61.7655 49.9845 61.8974C50.0372 62.4444 49.8856 62.4906 49.7604 62.8992C49.3188 63.0574 49.2199 63.4001 48.8706 63.7362C48.6597 63.934 48.3235 64.0922 48.1456 64.2965C48.0665 64.3822 48.0269 64.5469 47.9215 64.6853C47.6249 65.0808 47.0515 65.5092 46.8603 65.7992C46.656 66.1156 46.6363 66.7681 47.0251 66.8604C47.414 66.7483 47.6315 66.4649 48.0863 66.4122C48.2049 66.0826 48.574 66.1749 48.8113 66.076C49.5956 65.7465 50.3667 64.916 50.8743 64.514C51.0852 64.3426 51.1774 64.224 51.3224 64.0131C51.5663 63.6572 51.7574 63.3606 51.9354 63.064C52.087 63.2156 52.2188 63.3737 52.2715 63.6242C51.8431 64.5338 51.0983 65.1335 50.5447 65.9113C49.879 66.3001 49.2595 67.1372 48.2576 66.9131C48.106 66.8801 47.961 66.689 47.8094 66.7483C48.4488 67.5129 49.0485 68.1522 50.0965 68.0863C50.5908 68.0533 50.9138 67.737 51.2104 67.5854C51.5927 67.3942 52.1661 67.7106 52.4363 67.3086C52.2781 67.1372 52.3836 66.689 52.2122 66.5242C52.0409 66.399 51.5531 66.5836 51.5399 66.3001C52.1463 65.9179 52.4759 65.2588 53.0493 64.8501C53.57 65.5224 53.4645 66.8142 54.3345 67.1372C54.5981 66.5638 54.3345 66.1485 54.0577 65.4631L54.0643 65.4499Z" fill="#E62129"/>
<path fill-rule="evenodd" clip-rule="evenodd" d="M35.8732 60.1508C35.7084 60.5858 35.6161 61.2778 35.7084 61.6601C36.1039 61.614 35.9984 61.0537 36.3807 60.9878C36.4466 60.5199 36.8025 60.4276 36.9409 59.9267C36.5059 59.9201 36.1962 60.0387 35.8798 60.1508H35.8732ZM33.5268 55.2932C34.3902 55.3262 35.1284 55.5173 35.5371 56.0775C35.6623 56.2423 35.7941 56.5455 35.8139 56.6905C35.9589 57.5605 35.4975 58.3514 35.8666 59.0896C36.6312 59.0171 37.4353 58.6876 37.9889 58.5887C38.1273 58.503 38.1339 58.2855 38.2657 58.1998C39.3796 58.3514 41.7919 58.5887 41.113 60.0387C39.9596 60.6187 38.6941 61.0735 38.0416 62.161C38.2196 62.5037 38.6875 62.6619 38.5425 63.1628C37.5275 63.3935 36.5323 63.644 35.9193 64.2767C35.9391 65.0347 35.5832 65.8124 35.5305 66.6231C35.5173 66.8472 35.5964 67.0779 35.5832 67.2954C35.5766 67.4602 35.4843 67.6315 35.4711 67.7963C35.4316 68.2708 35.5371 68.752 35.4711 69.1936C35.4448 69.3715 35.3261 69.5231 35.3064 69.6945C35.2602 70.09 35.2471 70.4788 35.1943 70.8084C35.1416 71.1643 35.2009 71.5268 35.1416 71.7575C35.1021 71.9025 34.9636 71.975 34.9175 72.0936C34.8384 72.2847 34.9768 72.5813 34.7527 72.7066C34.2386 72.3441 34.4561 71.5532 34.4166 70.9204C34.4034 70.6832 34.3243 70.4591 34.3045 70.1954C34.1793 68.4949 34.5286 66.3397 34.3045 65.1203C34.1793 64.4415 33.0588 64.0131 33.6916 63.0574C33.7707 62.9717 33.975 63.0112 34.1398 62.9981C34.3507 62.4246 34.3902 61.1394 34.1925 60.5462C33.6916 60.6319 33.1379 61.034 32.4063 61.0471C31.8527 61.0603 31.1079 60.968 30.8443 60.5989C31.4111 60.3814 31.8922 60.1969 32.4063 60.0387C32.7754 59.9267 33.1775 59.8344 33.5795 59.7026C33.8564 59.6103 34.12 59.6103 34.2518 59.3137C34.3507 59.083 34.3309 58.5689 34.3045 58.1998C34.2782 57.6462 34.0475 57.1123 33.9684 56.6378C33.9223 56.3544 34.0145 56.1237 33.9684 55.9655C33.8761 55.6755 33.5927 55.6755 33.5202 55.2932H33.5268Z" fill="#E62129"/>
<path fill-rule="evenodd" clip-rule="evenodd" d="M56.8589 70.9204C55.5209 71.5136 54.7629 70.2547 54.0709 69.5825C53.7677 69.2924 53.3788 69.1013 53.3459 68.7454C53.2931 68.5477 53.5304 68.6531 53.57 68.6927C53.7413 68.5015 53.2734 68.4752 53.3459 68.1917C53.4579 68.4949 53.8336 68.3565 53.9588 68.4158C54.0511 68.462 54.1236 68.6202 54.2356 68.6927C54.5322 68.8772 54.8882 68.9629 55.2968 69.1409C55.7845 68.9234 55.6198 68.2906 55.857 67.9149C55.712 65.7069 55.5473 63.4397 55.2968 60.8296C55.2309 60.1508 55.1057 59.4917 54.9079 58.7667C54.7102 58.0417 54.5718 57.02 54.1236 56.7564C53.2404 56.7103 52.5615 57.0069 51.8893 57.2046C51.5993 57.2903 51.3027 57.3166 51.0522 57.4287C50.6106 57.6198 50.2283 57.9362 49.8263 58.1537C49.154 58.5228 48.4685 58.8721 47.6513 58.826C47.9281 58.4569 48.429 58.2196 48.9365 57.9889C49.879 57.5671 50.7886 57.1651 51.8365 56.8157C52.3638 56.6444 52.9965 56.4269 53.4579 56.3675C54.9079 56.183 55.567 56.9146 56.582 57.3166C56.7402 57.6726 57.1159 57.9164 57.0829 58.3778C57.0566 58.7271 56.7007 58.938 56.6348 59.2148C56.5095 59.7685 56.7007 60.6517 56.7468 61.2778C56.7666 61.6074 56.7139 61.9633 56.7468 62.339C56.7798 62.6685 56.8984 63.0112 56.9116 63.3408C56.9511 64.1317 56.905 64.7974 57.0236 65.4631C57.0895 65.8058 57.0829 66.221 57.1357 66.5242C57.1818 66.7813 57.1884 66.9131 57.1884 67.2492C57.1884 67.3942 57.2873 67.4997 57.3004 67.6381C57.4323 68.9299 57.0302 69.8461 56.8523 70.9336L56.8589 70.9204Z" fill="#E62129"/>
<path fill-rule="evenodd" clip-rule="evenodd" d="M72.8749 63.8351C73.9492 64.1515 75.4322 64.046 75.3334 65.8454C74.8918 66.0629 74.549 66.3067 74.1602 66.6824C74.0415 66.801 73.8899 66.9065 73.7713 67.0713C73.7054 67.157 73.4286 67.9281 73.4352 68.1324C73.4417 68.284 73.6197 68.4883 73.5999 68.6333C73.5604 68.9168 73.2704 69.0815 73.099 69.2463C72.4597 69.1013 71.8995 69.444 71.649 69.8593C70.8976 69.7933 70.812 69.0617 70.0869 68.9629C69.8628 68.6399 69.6519 68.3302 69.4147 68.0138C69.2038 67.7304 69.0192 67.3349 68.7424 67.1174C68.4524 66.8867 67.9844 66.8142 67.6812 66.5572C67.4308 66.3463 67.2726 66.0365 67.121 65.7201C67.8328 65.7926 68.4722 65.931 68.9599 66.221C69.329 67.0779 69.7903 67.8424 70.4692 68.3961C70.6801 68.2511 70.4626 67.737 70.6933 67.5063C70.8317 67.3876 70.812 67.4272 71.0295 67.4536C71.5304 67.0845 71.8467 66.5176 72.0313 65.8322C71.7676 65.2983 71.0163 65.2522 70.634 64.8304C71.3326 64.7644 72.6179 64.6722 72.8683 63.8285L72.8749 63.8351Z" fill="#E62129"/>
</g>
<defs>
<filter id="filter0_d_185_280" x="0" y="0" width="154" height="157" filterUnits="userSpaceOnUse" color-interpolation-filters="sRGB">
<feFlood flood-opacity="0" result="BackgroundImageFix"/>
<feColorMatrix in="SourceAlpha" type="matrix" values="0 0 0 0 0 0 0 0 0 0 0 0 0 0 0 0 0 0 127 0" result="hardAlpha"/>
<feOffset dy="16"/>
<feGaussianBlur stdDeviation="6.5"/>
<feColorMatrix type="matrix" values="0 0 0 0 0 0 0 0 0 0 0 0 0 0 0 0 0 0 0.03 0"/>
<feBlend mode="normal" in2="BackgroundImageFix" result="effect1_dropShadow_185_280"/>
<feBlend mode="normal" in="SourceGraphic" in2="effect1_dropShadow_185_280" result="shape"/>
</filter>
</defs>
</svg>
