<svg width="154" height="157" viewBox="0 0 154 157" fill="none" xmlns="http://www.w3.org/2000/svg">
<g filter="url(#filter0_d_185_51)">
<rect width="128" height="128" transform="translate(13)" fill="white"/>
<path d="M115.087 64.2208C114.891 64.2208 114.646 64.2208 114.449 64.2699C113.223 64.4171 111.664 64.2699 110.536 64.5643C109.309 64.9078 109.603 65.3863 110.143 65.9261C110.438 66.2206 110.536 66.4169 111.272 66.7972C112.057 67.1898 113.861 66.3064 115.087 66.2574H115.431C116.118 66.3555 116.56 66.1592 116.56 66.4537C116.658 67.2757 116.658 67.9627 116.265 68.6374C116.167 68.8337 115.676 68.9319 115.087 68.981C113.811 69.03 112.008 68.9319 112.351 69.4226C112.842 69.8643 113.713 70.1955 114.253 70.6863C114.597 70.9807 114.891 71.312 115.087 71.5573C115.382 71.9009 115.578 72.1462 115.725 72.2321C116.118 72.5265 116.805 72.3302 117.48 71.7904C117.774 71.5451 118.02 71.2506 118.265 70.8703C118.608 70.3305 119.001 69.5085 119.295 68.8828C119.639 68.0118 119.246 66.1102 119.639 65.7298C119.688 65.6808 119.737 65.6808 119.786 65.6808C119.982 65.6317 120.179 65.6317 120.326 65.5826C121.209 65.4845 121.553 65.6317 122.669 65.9261C123.405 66.0733 124.816 65.7298 124.473 64.8097C124.08 63.6933 123.933 63.6442 123.197 63.0553C122.902 62.859 122.51 63.2516 121.835 63.3007C121.344 63.3498 120.804 63.4479 120.326 63.497C120.081 63.546 119.835 63.546 119.639 63.546C119.099 63.5951 118.756 63.497 118.756 63.2516C118.756 62.9572 119.148 62.5278 119.639 62.1352C119.835 61.988 120.081 61.8407 120.326 61.6935C120.522 61.5954 120.719 61.4972 120.915 61.4481C121.651 61.2028 121.553 60.6262 121.847 60.2826C123.651 59.5588 125.761 60.7243 126.681 59.1662C126.73 59.019 126.73 58.9208 126.73 58.8227V58.6755C126.681 58.0866 126.092 57.7553 125.552 57.2155C124.669 56.4426 124.141 56.3445 122.522 56.6757C122.08 56.7739 122.915 55.363 123.209 54.8845C123.651 54.2098 123.749 53.5718 124.191 52.9461C124.485 52.5045 124.779 52.0751 124.681 51.7806C123.994 50.1735 123.651 50.2225 123.172 50.0753C122.682 49.9281 121.945 50.4679 121.418 50.517C120.976 50.566 120.633 50.566 120.338 50.6642C120.142 50.7133 119.995 50.8605 120.044 51.0077C120.093 51.1059 120.191 51.2531 120.338 51.3512C120.584 51.5475 120.878 51.6947 121.172 51.891C121.467 52.0873 121.761 52.3327 121.86 52.4308C122.154 52.6271 121.958 53.0197 121.761 52.8725C121.663 52.8234 120.878 52.7744 120.4 52.6762C120.154 52.6271 119.958 52.4799 119.958 52.3327C120.056 51.891 119.909 51.707 119.663 51.5598C119.516 51.4616 119.32 51.3635 119.32 51.1181C119.369 50.7746 119.418 50.7255 119.516 50.6765C119.565 50.5783 119.663 50.5292 119.713 50.4311C120.056 50.0876 120.252 49.8054 120.4 49.511C120.694 48.9711 120.645 48.689 120.4 48.3945C120.252 48.1982 120.007 47.9038 119.713 47.6707C119.467 47.4744 119.173 47.2781 118.878 47.3272C117.75 47.4253 118.338 49.0325 117.799 49.6091C117.75 49.6582 117.651 49.7563 117.553 49.8054C117.112 50.0017 116.67 49.6582 116.277 49.3637C116.032 49.1674 115.59 49.1184 115.149 49.2165C115.1 49.2165 115.051 49.2165 115.001 49.2656C114.756 49.3147 114.805 49.8545 114.462 49.7073C114.069 49.511 113.186 49.3147 112.854 49.6091C112.511 49.8545 112.854 50.8728 112.854 51.6457C112.658 52.8602 112.904 55.6329 112.805 57.7185C112.707 58.013 111.971 57.9639 111.971 57.4732C111.971 56.6021 112.118 55.3385 112.118 54.0748C112.118 53.8295 112.462 53.9276 112.167 53.2528C111.677 52.2346 111.235 51.6457 110.806 51.4126C110.413 51.2163 110.119 51.3635 110.02 51.9524C109.922 52.345 109.971 53.167 110.217 53.7068C110.413 54.8232 110.462 58.5651 110.168 58.8104C109.824 59.1049 109.579 59.2521 109.137 59.203C108.843 59.1539 108.646 58.9086 108.303 58.8595C107.91 58.8104 107.714 59.1049 107.469 59.3502C107.272 59.5465 107.027 59.7428 106.929 60.1232C106.88 60.5648 107.076 60.9942 107.027 61.534C106.978 62.3069 106.782 62.9449 106.536 63.7669V64.0122C106.634 64.6011 107.223 65.4722 107.898 65.325C108.438 65.1777 108.683 64.7852 108.929 64.3067C109.125 63.9141 109.37 63.4356 109.616 62.9449C109.91 62.4051 109.959 61.0556 110.499 60.6139C111.039 60.1232 111.91 59.9882 112.302 59.9391C112.744 59.8901 112.891 59.7919 113.284 59.7428C113.529 59.6938 113.971 59.7428 114.462 59.6447C114.756 59.5956 114.903 59.3012 115.149 59.1049L115.198 59.0558C115.492 58.8595 115.885 58.8104 116.081 58.7614C116.523 58.6632 117.013 58.6141 117.541 58.5651C117.983 58.516 118.424 58.516 118.817 58.4669C119.111 58.4178 119.406 58.4178 119.7 58.4178C119.946 58.4178 120.191 58.3688 120.387 58.3688C121.369 58.3197 122.044 58.2706 122.142 58.3197C122.436 58.4669 122.24 58.8595 121.896 58.9086C121.553 58.9577 121.013 58.9577 120.387 59.0558C120.191 59.0558 119.946 59.1049 119.7 59.1049C119.111 59.1539 118.523 59.2521 117.946 59.3502L117.553 59.3993C116.67 59.5465 115.848 59.6938 115.161 59.841C114.572 59.9882 114.032 60.1354 113.701 60.2826C113.358 60.4299 112.425 60.9574 112.094 61.1537C111.309 61.5954 111.456 61.9266 111.799 62.2701C112.634 62.9449 113.799 62.6136 113.995 62.3683C114.437 61.9266 114.781 61.7794 115.124 61.6935C115.419 61.6444 115.664 61.5954 116.007 61.4972C116.449 61.35 117.517 60.8715 117.517 61.35C117.467 61.8407 117.222 61.6444 117.075 62.0248C116.928 62.4174 115.517 62.5646 115.468 63.0921C115.419 63.4356 116.057 63.7669 115.762 64.1595C115.566 64.1717 115.32 64.2208 115.087 64.2208ZM115.86 56.0623C115.811 56.3077 115.468 56.6021 115.075 56.7861C114.781 56.9824 114.437 57.0806 114.339 56.9824C114.094 56.2586 114.584 56.2586 114.633 55.4734C114.682 55.0318 114.928 54.9827 115.075 54.9336C115.124 54.9336 115.173 54.8845 115.173 54.8845C115.958 54.7496 115.958 55.179 115.86 56.0623ZM116.007 52.1241C115.958 52.5658 115.468 53.0443 115.124 53.2406C114.977 53.3387 114.83 53.3387 114.781 53.2896C114.781 52.5658 114.879 51.9278 114.977 51.1549C114.977 51.0568 114.928 50.9096 115.075 50.8114H115.124C115.811 50.7133 116.057 51.3022 116.007 52.1241ZM117.185 54.0135C117.136 53.7681 117.185 53.719 117.332 53.4246C117.382 53.3264 117.431 53.2774 117.48 53.2774C117.529 53.2774 117.529 53.2283 117.529 53.2283C117.823 53.1792 117.823 53.2774 117.774 53.6209C117.774 53.719 117.627 53.8663 117.48 53.9153C117.382 54.0135 117.234 54.0625 117.185 54.0135ZM117.909 57.0315C117.811 57.1297 117.615 57.1297 117.467 57.0806C117.418 57.0806 117.369 57.0315 117.369 56.9824C117.418 56.7861 117.418 56.7861 117.467 56.688L117.615 56.5408C117.762 56.3445 117.86 56.5898 117.909 56.5408C118.204 56.688 118.154 56.7861 117.909 57.0315ZM119.823 56.3445C119.774 56.3936 119.725 56.3936 119.627 56.3936C119.479 56.3936 119.234 56.3445 119.234 56.2463C119.332 55.9519 119.283 55.8537 119.578 55.8047H119.627C119.823 55.8047 119.872 55.8047 119.97 55.9028C120.166 56.1114 119.97 56.2463 119.823 56.3445ZM121.038 54.0135C120.939 54.1607 120.694 54.1607 120.351 54.1116H120.203C119.958 54.1607 119.713 54.0626 119.663 53.9644V53.9153C119.614 53.719 119.516 53.4737 119.663 53.3755C119.713 53.3755 119.713 53.3264 119.762 53.3264H120.351C120.596 53.3264 120.841 53.3755 121.038 53.4737C121.136 53.6332 121.136 53.9153 121.038 54.0135ZM96.6724 67.3738C95.5928 67.0794 94.6236 66.6009 93.8384 66.0611C90.759 63.9264 88.4158 60.8593 87.5325 58.7246C87.238 57.8535 89.2868 57.7063 90.5628 57.0192C91.5442 56.4794 92.3662 56.1973 92.7588 55.7065C93.0532 55.2649 92.906 54.9827 92.6607 54.7373C91.0044 52.7989 90.71 54.0626 89.8757 54.2957C89.1887 54.4919 88.6979 54.6392 88.2686 54.4919C88.1213 54.3447 87.9741 54.2957 88.1213 53.2774C88.4158 51.339 88.2195 51.8665 87.9741 51.4862C87.4343 50.7623 86.8454 50.2716 86.0234 50.1244C85.5818 50.0753 85.3364 50.2716 84.5635 50.7501C84.22 50.9464 83.7783 51.339 83.9255 51.9156C84.22 53.0811 84.1709 54.5901 84.1218 55.5102C84.1218 55.7065 83.4348 55.8047 82.3674 55.8047C82.073 55.8047 81.0056 55.7065 80.2205 55.5593C78.6624 55.363 77.2883 55.9519 78.9445 59.3012C79.7788 60.2704 80.748 59.9759 83.4348 59.6938C83.6802 59.7919 83.3857 62.2211 81.5823 63.5829C80.8952 64.1227 80.5026 64.9937 77.5337 65.0919C77.2883 65.1409 76.9939 65.1409 77.1902 65.6317C77.5337 66.3064 79.7788 66.7972 80.1223 67.0916C80.4168 67.337 81.4473 67.6314 82.1221 67.0426C83.6802 65.828 85.2015 62.9204 85.8885 61.3132C85.9376 61.166 86.0848 61.166 86.0848 61.215C86.7718 62.4296 90.6241 68.5025 91.9 69.1773C93.1759 69.852 97.568 69.1282 98.7826 68.5025C99.5432 68.0976 98.2305 67.7664 96.6724 67.3738ZM69.1175 63.5338C69.3629 62.3683 69.6083 61.2028 69.5592 60.2336C69.2648 58.5283 67.2159 58.197 66.8724 58.4424C66.1363 58.9331 66.3326 61.6444 65.4615 61.7917C64.7745 62.0861 62.7257 62.6627 62.7257 62.1843C62.6275 61.5954 62.6766 60.0005 62.6766 58.3442C62.6766 56.4058 62.7257 54.4061 63.1673 53.6822C63.4127 53.0075 61.8055 51.4984 61.0204 51.4003C60.5787 51.3512 59.0206 51.842 59.3641 53.4369C59.4132 53.535 59.4623 53.8785 59.4623 53.9767C59.6095 54.9459 59.4623 61.988 59.5604 63.0553C59.6095 63.2516 58.7262 63.4479 57.9533 63.546C57.3644 63.6442 56.8246 63.7423 56.6405 63.5951C56.3952 62.5768 56.7387 60.9697 55.9535 59.706C55.6591 59.1662 55.4137 58.9822 55.0702 58.884C53.8924 58.7368 53.9415 59.4239 53.9415 60.0495C54.0396 61.2641 53.8924 63.0062 53.4998 63.9877C53.1072 64.8588 52.6656 65.3495 53.3035 66.1715C53.9415 66.9444 54.2359 67.9259 54.7635 67.7787C55.0088 67.6805 55.7449 67.9259 55.8922 67.7296C56.0885 67.4842 57.0699 66.6132 57.254 66.4659C57.5975 66.1224 59.7444 65.693 61.8424 65.7912C62.3822 65.693 62.5294 65.1164 62.922 64.9201C63.6581 64.5275 64.9217 64.2944 65.4125 64.3312C65.5597 64.4785 65.5597 64.6257 65.5597 65.2023C65.5597 66.2696 65.8051 68.2081 66.6393 68.024C67.1791 67.6314 68.7372 66.0365 68.7863 65.644C68.8722 65.3372 68.9703 64.3558 69.1175 63.5338ZM42.7404 50.0876C42.0534 50.0876 41.1332 50.7133 40.3971 50.8114C39.9555 50.8605 39.5629 50.8605 39.2194 50.8114C38.8268 50.8114 38.4833 50.7623 38.2379 50.7623C38.1397 49.7931 38.287 48.5786 38.287 47.5112C38.287 46.7383 36.5816 45.9531 36.2381 46.0022C34.8763 46.2966 33.9439 47.4131 34.3365 48.235C34.3856 48.3823 34.4837 48.5786 34.4837 48.7749C34.4347 49.7441 34.5819 50.8114 34.631 51.8297C33.9439 52.0751 33.5023 52.2714 32.8766 52.6026C32.5821 52.7989 32.1895 52.9952 31.7479 53.2283C31.2571 53.5227 30.9627 53.7681 30.5701 53.67C29.6868 52.897 28.5213 53.6209 28.2759 54.0626C27.9815 54.8355 27.8343 55.5225 27.7852 56.3445C27.7361 56.688 27.7361 56.8843 27.638 57.0683C27.3926 57.51 27.2944 57.8412 27 58.5773C27 59.3502 27.4417 59.7428 27.8833 60.3317C28.4231 61.1537 28.4722 61.9389 28.8648 62.2701C29.3555 62.6136 29.9935 62.7118 30.521 62.5646C30.7664 62.5155 30.9136 62.1229 31.1099 61.9389C31.3062 61.7426 31.5025 61.5463 31.6988 61.3991C32.1405 61.2028 32.5331 61.0556 32.8766 60.9083C33.3673 60.712 33.809 60.5648 34.1893 60.5157L34.3365 69.7416C34.3856 71.9745 35.0236 73.3853 35.6492 73.4835C36.5816 73.3363 37.1583 71.7291 37.4036 69.9379C37.5018 66.5886 37.7962 63.3866 37.8453 59.9882C38.287 59.6938 38.7777 59.4484 39.2071 59.2644C39.845 58.9699 40.483 58.8227 41.1578 58.8718C41.6976 58.8718 41.8448 58.7246 42.0902 58.6264C42.7772 58.332 43.3661 56.9702 43.1207 56.6389C42.7281 56.3445 42.7281 56.0991 42.7772 55.7679C42.7281 55.5225 43.6605 54.3079 44.1881 54.0135L44.6297 53.8663C45.1695 53.5718 45.6603 52.9952 45.4149 52.21C45.0837 51.4494 43.7219 50.0876 42.7404 50.0876ZM33.9439 57.4118C33.4532 57.7063 33.2569 57.8044 32.8643 57.8044C32.668 57.8044 32.4717 57.7553 32.1773 57.7553C31.7356 57.6572 31.3921 55.1299 31.7356 55.3262C32.0791 55.4243 32.4717 55.4243 32.8643 55.3262C33.1097 55.2771 33.306 55.179 33.5513 55.0318C33.6495 54.9827 33.8949 54.6392 34.0421 54.8845C34.1402 55.179 34.2384 57.2278 33.9439 57.4118ZM39.8573 54.9459C39.7592 55.1422 39.5629 55.3875 39.2194 55.6206C38.8758 55.866 38.4833 56.0623 38.1397 56.0132C37.8453 55.866 37.9925 53.4859 38.1888 53.0933C38.4342 52.9952 38.7777 52.848 39.2194 52.7989C39.661 52.7498 40.1027 52.7498 40.3971 52.9952C40.6916 53.5841 40.2008 54.4061 39.8573 54.9459ZM50.7026 76.5506V76.3543H49.1445V76.5506C49.3408 76.5506 49.488 76.5506 49.5862 76.5997C49.6843 76.6487 49.7334 76.7469 49.7334 76.845C49.7334 76.9432 49.6843 77.0413 49.6353 77.2376L49.488 77.5321L48.7029 78.8448L47.8686 77.2376C47.8686 77.1885 47.8195 77.1395 47.7705 77.0413C47.7214 76.9432 47.7214 76.8941 47.7214 76.845C47.7214 76.7469 47.7705 76.6978 47.8195 76.6487C47.8686 76.5997 48.0649 76.5997 48.3103 76.5997V76.4034H45.967V76.5997C46.1633 76.5997 46.3105 76.6487 46.4577 76.845C46.5068 76.8941 46.5068 76.8941 46.5559 76.9922L47.8318 79.3233V80.3415C47.8318 80.636 47.7827 80.7832 47.6846 80.8813C47.6355 80.9304 47.4392 80.9795 47.1938 80.9795V81.1267H49.6353V80.9795C49.3408 80.9304 49.1936 80.9304 49.0954 80.8323C48.9973 80.7832 48.9482 80.5869 48.9482 80.2925V78.9797L50.31 76.796C50.3591 76.6978 50.4082 76.6487 50.5063 76.5997C50.5554 76.5506 50.6045 76.5506 50.7026 76.5506ZM117.234 77.7652H117.431C117.48 77.2744 117.676 76.9432 117.97 76.7469C118.167 76.6487 118.412 76.5506 118.805 76.5506V80.2434C118.805 80.5378 118.756 80.7341 118.657 80.7832C118.608 80.8323 118.412 80.8813 118.118 80.8813V81.0286H120.608V80.8691C120.314 80.8691 120.166 80.82 120.068 80.7709C119.97 80.7219 119.921 80.5256 119.921 80.2311V76.5383C120.265 76.5383 120.559 76.5874 120.755 76.7346C121.05 76.9309 121.246 77.2744 121.295 77.7529H121.491V76.342H117.247V77.7652H117.234ZM55.2419 77.7652H55.4873C55.5364 77.2744 55.7327 76.9432 56.0271 76.7469C56.2234 76.6487 56.4688 76.5506 56.8123 76.5506V80.2434C56.8123 80.5378 56.7632 80.7341 56.6651 80.7832C56.616 80.8323 56.4197 80.8813 56.1253 80.8813V81.0286H58.6158V80.8691C58.3213 80.8691 58.1741 80.82 58.0759 80.7709C57.9778 80.7219 57.9287 80.5256 57.9287 80.2311V76.5383C58.2722 76.5383 58.5667 76.5874 58.763 76.7346C59.0574 76.9309 59.2537 77.2744 59.3028 77.7529H59.4991V76.342H55.3033L55.2419 77.7652ZM54.8984 80.7219C54.8003 80.6237 54.7021 80.3783 54.5058 79.9489L52.9477 76.2561H52.7514L52.457 76.98L51.1811 80.0839C51.0339 80.3783 50.9848 80.5746 50.8866 80.6728C50.8376 80.7709 50.7394 80.8691 50.5922 80.8691C50.5431 80.8691 50.5431 80.9182 50.494 80.9182V81.0654H51.9049V80.9182C51.7577 80.9182 51.6105 80.9182 51.5123 80.8691C51.3651 80.82 51.316 80.7219 51.316 80.6237C51.316 80.5746 51.3651 80.4765 51.3651 80.3293C51.4142 80.182 51.5123 79.9857 51.6105 79.7036H53.1808C53.279 79.9489 53.3771 80.0962 53.3771 80.1943C53.4753 80.3906 53.5244 80.5869 53.5244 80.636C53.5244 80.7341 53.4753 80.8323 53.4262 80.8323C53.3281 80.8813 53.1808 80.8813 52.9845 80.8813V81.0286H55.2297V80.8691C55.1438 80.9182 54.9966 80.8691 54.8984 80.7219ZM52.457 79.4705H51.77L52.4079 77.7652L52.457 77.8142L53.144 79.4705H52.457ZM115.811 80.3906V76.9922C115.811 76.796 115.86 76.6487 116.007 76.5506C116.106 76.5015 116.253 76.5015 116.449 76.5015V76.3052H114.008V76.5506H114.057C114.253 76.5506 114.4 76.5506 114.498 76.5997C114.646 76.6487 114.695 76.796 114.695 77.0413V80.4397C114.695 80.636 114.646 80.7341 114.597 80.7832C114.548 80.8323 114.351 80.8813 114.057 80.9304V81.0776H116.498V80.9304C116.302 80.9304 116.106 80.8813 116.007 80.8323C115.86 80.7709 115.811 80.636 115.811 80.3906ZM34.3856 76.5506C34.68 76.5506 34.8763 76.5997 34.9745 76.7469C35.0726 76.845 35.0726 76.9923 35.0726 77.2376V79.3723C35.0726 79.7649 35.0236 80.0962 34.9254 80.2925C34.7291 80.685 34.3856 80.8813 33.8458 80.8813C33.5023 80.8813 33.2569 80.7832 33.0606 80.5378C32.8643 80.3415 32.8152 79.998 32.8152 79.5196V77.1885C32.8152 76.8941 32.8643 76.6978 33.0115 76.6487C33.0606 76.5997 33.2569 76.5506 33.5513 76.5506V76.3543H31.159V76.5506C31.4044 76.5506 31.5516 76.5997 31.6007 76.6487C31.6988 76.7469 31.7479 76.8941 31.7479 77.1885V79.5196C31.7479 79.8631 31.797 80.1452 31.8951 80.3415C31.9442 80.4888 32.0914 80.636 32.2386 80.7832C32.4349 80.9795 32.6803 81.0776 33.0238 81.1758C33.2201 81.2249 33.4655 81.2249 33.6618 81.2249C33.9071 81.2249 34.1525 81.1758 34.3979 81.1267C34.6923 81.0286 34.8886 80.8813 35.0849 80.7341C35.2321 80.5869 35.3303 80.3906 35.3793 80.1084C35.4284 79.8631 35.4775 79.6177 35.4775 79.3846V77.1517C35.4775 76.9554 35.5266 76.7592 35.6247 76.7101C35.6738 76.661 35.821 76.6119 36.0664 76.5629V76.3666H34.3856V76.5506ZM125.442 76.3052V76.5506C125.638 76.5506 125.785 76.5506 125.884 76.5997C125.982 76.6487 126.031 76.7469 126.031 76.845C126.031 76.9432 125.982 77.0413 125.933 77.2376L125.785 77.5321L125 78.8448L124.166 77.2376C124.166 77.1885 124.117 77.1395 124.068 77.0413C124.019 76.9432 124.019 76.8941 124.019 76.845C124.019 76.7469 124.068 76.6978 124.117 76.6487C124.166 76.5997 124.313 76.5997 124.559 76.5997V76.4034H122.215V76.5997C122.412 76.5997 122.559 76.6487 122.706 76.845C122.706 76.8941 122.755 76.8941 122.804 76.9922L124.08 79.3233V80.3415C124.08 80.636 124.031 80.7832 123.933 80.8813C123.884 80.9304 123.688 80.9795 123.393 80.9795V81.1267H125.835V80.9795C125.54 80.9304 125.393 80.9304 125.295 80.8323C125.197 80.7832 125.147 80.5869 125.147 80.2925V78.9797L126.509 76.796C126.558 76.6978 126.607 76.6487 126.706 76.5997C126.755 76.5506 126.902 76.5506 127 76.5015V76.3052H125.442ZM29.5518 78.489L28.5213 77.9492C28.2268 77.802 28.0305 77.6547 27.9324 77.5566C27.8343 77.4585 27.7852 77.3112 27.7852 77.1149C27.7852 76.9186 27.8833 76.7223 28.0305 76.6242C28.1778 76.5261 28.3741 76.477 28.5704 76.477C28.9629 76.477 29.2574 76.6242 29.5518 76.9677C29.7481 77.2131 29.8954 77.5075 29.9935 77.7897H30.1898V76.2807H29.9935C29.9935 76.3298 29.9444 76.3788 29.9444 76.3788C29.8954 76.4279 29.8463 76.477 29.7481 76.477C29.6991 76.477 29.6009 76.4279 29.3555 76.3788C29.1102 76.2807 28.8648 76.2807 28.6685 76.2807C28.2268 76.2807 27.8833 76.3788 27.5889 76.6242C27.2944 76.8696 27.0981 77.2131 27.0981 77.6425C27.0981 77.8878 27.1472 78.1332 27.2454 78.3172C27.4417 78.6117 27.7852 78.9061 28.2759 79.1392L28.7667 79.3355C29.0611 79.4827 29.2574 79.5809 29.3555 79.679C29.5028 79.8263 29.5518 79.9735 29.5518 80.2188C29.5518 80.4642 29.4537 80.6605 29.3065 80.8077C29.1592 80.955 28.9139 81.004 28.6685 81.004C28.2759 81.004 27.9324 80.8568 27.638 80.5133C27.4417 80.2679 27.2944 79.9244 27.1963 79.495H27.0123V81.2494H27.2086C27.2086 81.2003 27.2576 81.1022 27.2576 81.0531C27.3067 81.004 27.3067 81.004 27.4049 81.004L27.9937 81.1512C28.19 81.2003 28.3863 81.2494 28.6317 81.2494C29.2206 81.2494 29.6623 81.0531 29.9935 80.7096C30.2389 80.4151 30.3861 80.1207 30.3861 79.7404C30.3861 79.3969 30.2879 79.1147 30.0916 78.8693C29.8954 78.6853 29.7481 78.5871 29.5518 78.489ZM39.8082 76.5506H39.8573C40.1027 76.5506 40.299 76.5997 40.3971 76.7469C40.4953 76.845 40.4953 77.0413 40.4953 77.2376V79.3723L38.0539 76.3543H36.5326V76.5506C36.5816 76.5506 36.6798 76.5506 36.7289 76.5997C36.827 76.6487 36.9252 76.796 37.1215 77.0413V80.3415C37.1215 80.5378 37.0724 80.6851 36.9742 80.7832C36.9252 80.8323 36.7779 80.8813 36.5326 80.8813V81.0286H38.1397V80.8691C37.8944 80.82 37.6981 80.7709 37.5999 80.6728C37.5018 80.5746 37.4527 80.3783 37.4527 80.133V77.3112L40.5812 81.1022H40.7775V76.98C40.7775 76.7837 40.8265 76.6365 40.8756 76.5874C40.9247 76.4892 41.0719 76.4402 41.3173 76.4402V76.2439H39.8082V76.5506ZM97.4944 76.5506H97.4453C97.8379 76.5506 98.0342 76.6487 98.0342 76.845C98.0342 76.8941 98.0342 76.9923 97.9852 77.0413C97.9361 77.1395 97.9361 77.2376 97.887 77.3358L97.0037 79.6668L96.0713 77.483C96.0222 77.4339 96.0222 77.3358 95.9241 77.1885C95.875 77.0413 95.8259 76.9432 95.8259 76.8941C95.8259 76.7469 95.875 76.6978 95.9731 76.6487C96.0222 76.5997 96.2185 76.5997 96.4639 76.5997V76.4034H94.1206V76.5997C94.3169 76.6487 94.415 76.6487 94.5132 76.6978C94.5623 76.7469 94.6604 76.8941 94.7586 77.0904L96.562 81.2617H96.7583L98.3655 77.1395C98.4636 76.9432 98.5127 76.796 98.6108 76.6978C98.709 76.6487 98.8071 76.5506 99.0034 76.5506V76.3543H97.4944V76.5506ZM89.0905 76.5506C89.385 76.5506 89.5322 76.5997 89.6304 76.7469C89.6794 76.845 89.7285 77.0413 89.7285 77.2376V79.3723L87.2871 76.3666H85.7781V76.5629C85.8271 76.5629 85.9253 76.5629 85.9744 76.6119C86.0725 76.661 86.2197 76.8082 86.416 77.0536V80.3538C86.416 80.5501 86.367 80.6973 86.2688 80.7955C86.2197 80.8445 86.0234 80.8936 85.8271 80.8936V81.0408H87.4343V80.8691C87.1399 80.82 86.9926 80.7709 86.8945 80.6728C86.7963 80.5746 86.7473 80.3783 86.7473 80.133V77.3112L89.8757 81.1022H90.072V76.98C90.072 76.7837 90.1211 76.6365 90.1702 76.5874C90.2192 76.4892 90.3665 76.4402 90.6118 76.4402V76.2439H89.0905V76.5506ZM92.9551 80.3906V76.9922C92.9551 76.796 93.0042 76.6487 93.1514 76.5506C93.2495 76.5015 93.3968 76.5015 93.5931 76.5015V76.3052H91.1516V76.5506H91.2007C91.397 76.5506 91.5442 76.5506 91.6424 76.5997C91.7896 76.6487 91.8387 76.796 91.8387 77.0413V80.4397C91.8387 80.636 91.7896 80.7341 91.7405 80.7832C91.6915 80.8323 91.4952 80.8813 91.2007 80.9304V81.0776H93.6421V80.9304C93.3968 80.9304 93.2495 80.8813 93.1514 80.8323C93.0042 80.7709 92.9551 80.636 92.9551 80.3906ZM102.917 80.6728C102.623 80.82 102.328 80.8691 101.887 80.8691C101.641 80.8691 101.494 80.82 101.396 80.7709C101.298 80.7219 101.249 80.6237 101.249 80.4765V78.7834C101.641 78.7834 101.887 78.8325 102.083 79.0288C102.279 79.176 102.377 79.4705 102.426 79.8999H102.623V77.5198H102.426C102.377 77.9615 102.23 78.1946 102.083 78.3418C101.936 78.489 101.641 78.5381 101.298 78.5381V76.9432C101.298 76.796 101.347 76.6978 101.396 76.6487C101.445 76.5997 101.592 76.5997 101.837 76.5997C102.377 76.5997 102.721 76.6487 102.966 76.796C103.261 76.9923 103.408 77.2867 103.506 77.7652H103.702V76.3543H99.6537V76.5506C99.85 76.5506 99.9972 76.5506 100.095 76.5997C100.243 76.6487 100.292 76.796 100.292 77.0413V80.4397C100.292 80.636 100.243 80.7832 100.095 80.8323C100.046 80.8813 99.899 80.8813 99.6537 80.9304V81.0776H103.751L104.046 79.6177H103.751C103.555 80.1452 103.261 80.4888 102.917 80.6728ZM83.717 76.5506C84.0114 76.5506 84.2077 76.5997 84.3059 76.7469C84.3549 76.845 84.404 76.9923 84.404 77.2376V79.3723C84.404 79.7649 84.3549 80.0962 84.2568 80.2925C84.0605 80.685 83.717 80.8813 83.1281 80.8813C82.7846 80.8813 82.5392 80.7832 82.3429 80.5378C82.1957 80.3415 82.0975 79.998 82.0975 79.5196V77.1885C82.0975 76.8941 82.1466 76.6978 82.2938 76.6487C82.3429 76.5997 82.5392 76.5506 82.7846 76.5506V76.3543H80.3922V76.5506C80.6376 76.5506 80.7848 76.5997 80.8339 76.6487C80.932 76.7469 80.9811 76.8941 80.9811 77.1885V79.5196C80.9811 79.8631 81.0302 80.1452 81.1283 80.3415C81.1774 80.4888 81.3246 80.636 81.4718 80.7832C81.6681 80.9795 81.9135 81.0776 82.257 81.1758C82.4533 81.2249 82.6987 81.2249 82.895 81.2249C83.1404 81.2249 83.3857 81.1758 83.6311 81.1267C83.9255 81.0286 84.1218 80.8813 84.3181 80.7341C84.4653 80.5869 84.5635 80.3906 84.6126 80.1084C84.6616 79.8631 84.6616 79.6177 84.6616 79.3846V77.1517C84.6616 76.9554 84.7107 76.7592 84.8089 76.7101C84.8579 76.661 85.0052 76.6119 85.2505 76.5629V76.3666H83.7415V76.5506H83.717ZM108.978 80.82L107.567 78.8325C107.861 78.7344 108.107 78.6362 108.254 78.489C108.548 78.2927 108.646 77.9983 108.646 77.6179C108.646 77.2254 108.499 76.9432 108.156 76.6978C107.861 76.5015 107.371 76.4034 106.843 76.3543H104.451V76.5506C104.696 76.5506 104.843 76.5997 104.892 76.6487C104.99 76.6978 105.04 76.8941 105.04 77.1885V80.2925C105.04 80.5869 104.99 80.7341 104.892 80.8323C104.843 80.8813 104.647 80.9304 104.402 80.9795V81.1267H106.794V80.9795C106.549 80.9304 106.352 80.8813 106.303 80.8323C106.205 80.7832 106.156 80.5869 106.156 80.3415V78.9797H106.352L106.794 79.6545L107.824 81.1635H109.235V81.0163C109.186 81.0163 109.137 81.0163 109.088 80.9672C109.027 80.8691 108.978 80.8691 108.978 80.82ZM107.125 78.489C107.076 78.5381 106.929 78.5872 106.782 78.6362C106.585 78.6853 106.389 78.6853 106.144 78.6853V76.8941C106.144 76.7469 106.193 76.6978 106.242 76.6487C106.291 76.5997 106.389 76.5997 106.585 76.5997H106.782C106.978 76.6487 107.125 76.6978 107.223 76.845C107.371 76.9923 107.42 77.2867 107.42 77.6179C107.456 78.0596 107.309 78.3418 107.125 78.489ZM71.3627 80.6728C71.1173 80.82 70.7738 80.8691 70.3321 80.8691C70.0867 80.8691 69.9395 80.82 69.8414 80.7709C69.7432 80.7219 69.7432 80.6237 69.7432 80.4765V78.7834C70.0867 78.7834 70.3812 78.8325 70.5284 79.0288C70.7247 79.176 70.8228 79.4705 70.8719 79.8999H71.0682V77.5198H70.8719C70.8228 77.9615 70.6756 78.1946 70.5284 78.3418C70.3812 78.489 70.0867 78.5381 69.7432 78.5381V76.9432C69.7432 76.796 69.7923 76.6978 69.8414 76.6487C69.8904 76.5997 70.0377 76.5997 70.234 76.5997C70.7738 76.5997 71.1173 76.6487 71.3627 76.796C71.6571 76.9923 71.8043 77.2867 71.9025 77.7652H72.0988V76.3543H68.0502V76.5506C68.2465 76.5506 68.3937 76.5506 68.4918 76.5997C68.6391 76.6487 68.6881 76.796 68.6881 77.0413V80.4397C68.6881 80.636 68.6391 80.7832 68.5409 80.8323C68.4918 80.8813 68.2955 80.8813 68.0993 80.9304V81.0776H72.1969L72.4913 79.6177H72.2951C72.0006 80.1452 71.7062 80.4888 71.3627 80.6728ZM112.499 78.489L111.468 77.9492C111.174 77.802 110.977 77.6547 110.879 77.5566C110.781 77.4585 110.732 77.3112 110.732 77.1149C110.732 76.9186 110.83 76.7223 110.977 76.6242C111.125 76.5261 111.321 76.477 111.517 76.477C111.91 76.477 112.204 76.6242 112.499 76.9677C112.695 77.2131 112.842 77.5075 112.94 77.7897H113.137V76.2807H112.94C112.94 76.3298 112.891 76.3788 112.891 76.3788C112.842 76.4279 112.793 76.477 112.695 76.477C112.646 76.477 112.548 76.4279 112.302 76.3788C112.057 76.2807 111.812 76.2807 111.615 76.2807C111.174 76.2807 110.83 76.3788 110.536 76.6242C110.241 76.8696 110.045 77.2131 110.045 77.6425C110.045 77.8878 110.094 78.1332 110.192 78.3172C110.389 78.6117 110.732 78.9061 111.223 79.1392L111.714 79.3355C112.008 79.4827 112.204 79.5809 112.253 79.679C112.401 79.8263 112.499 79.9735 112.499 80.2188C112.499 80.4642 112.401 80.6605 112.253 80.8077C112.106 80.955 111.861 81.004 111.566 81.004C111.174 81.004 110.83 80.8568 110.536 80.5133C110.339 80.2679 110.192 79.9244 110.094 79.495H109.898V81.2494H110.094C110.094 81.2003 110.143 81.1022 110.143 81.0531C110.192 81.004 110.192 81.004 110.29 81.004L110.879 81.1512C111.076 81.2003 111.272 81.2494 111.517 81.2494C112.106 81.2494 112.548 81.0531 112.879 80.7096C113.124 80.4151 113.272 80.1207 113.272 79.7404C113.272 79.3969 113.173 79.1147 112.977 78.8693C112.83 78.6853 112.683 78.5871 112.499 78.489ZM76.2946 76.5506H76.3436C76.589 76.5506 76.7853 76.5997 76.8834 76.7469C76.9816 76.845 76.9816 77.0413 76.9816 77.2376V79.3723L74.5402 76.3666H73.0312V76.5629C73.0802 76.5629 73.1784 76.5629 73.2275 76.6119C73.3256 76.661 73.4238 76.8082 73.62 77.0536V80.3538C73.62 80.5501 73.571 80.6973 73.4728 80.7955C73.4238 80.8445 73.2765 80.8936 73.0312 80.8936V81.0408H74.6383V80.8691C74.393 80.82 74.1967 80.7709 74.0985 80.6728C74.0004 80.5746 73.9513 80.3783 73.9513 80.133V77.3112L77.0797 81.1022H77.276V76.98C77.276 76.7837 77.3251 76.6365 77.3742 76.5874C77.4233 76.4892 77.5705 76.4402 77.8158 76.4402V76.2439H76.3068V76.5506H76.2946ZM66.4307 78.489L65.4002 77.9492C65.1058 77.802 64.9095 77.6547 64.8113 77.5566C64.7132 77.4585 64.6641 77.3112 64.6641 77.1149C64.6641 76.9186 64.7622 76.7223 64.9095 76.6242C65.0567 76.5261 65.253 76.477 65.4493 76.477C65.8419 76.477 66.1363 76.6242 66.4307 76.9677C66.627 77.2131 66.7743 77.5075 66.8724 77.7897H67.0687V76.2807H66.8724C66.8724 76.3298 66.8233 76.3788 66.8233 76.3788C66.7743 76.4279 66.7252 76.477 66.627 76.477C66.578 76.477 66.4798 76.4279 66.2345 76.3788C65.9891 76.2807 65.7437 76.2807 65.5474 76.2807C65.1058 76.2807 64.7622 76.3788 64.4678 76.6242C64.1734 76.8696 63.9771 77.2131 63.9771 77.6425C63.9771 77.8878 64.0261 78.1332 64.1243 78.3172C64.3206 78.6117 64.6641 78.9061 65.1548 79.1392L65.6456 79.3355C65.94 79.4827 66.1363 79.5809 66.2345 79.679C66.3817 79.8263 66.4307 79.9735 66.4307 80.2188C66.4307 80.4642 66.3326 80.6605 66.1854 80.8077C66.0382 80.955 65.7928 81.004 65.4983 81.004C65.1058 81.004 64.7622 80.8568 64.4678 80.5133C64.2715 80.2679 64.1243 79.9244 64.0261 79.495H63.8298V81.2494H64.0261C64.0261 81.2003 64.0752 81.1022 64.0752 81.0531C64.1243 81.004 64.1243 81.004 64.2224 81.004L64.8113 81.1512C65.0076 81.2003 65.2039 81.2494 65.4493 81.2494C66.0382 81.2494 66.4798 81.0531 66.8111 80.7096C67.0564 80.4151 67.2037 80.1207 67.2037 79.7404C67.2037 79.3969 67.1055 79.1147 66.9092 78.8693C66.8233 78.6853 66.627 78.5871 66.4307 78.489ZM60.5174 79.0779H62.9588V79.8999H60.5174V79.0779Z" fill="#262535"/>
</g>
<defs>
<filter id="filter0_d_185_51" x="0" y="0" width="154" height="157" filterUnits="userSpaceOnUse" color-interpolation-filters="sRGB">
<feFlood flood-opacity="0" result="BackgroundImageFix"/>
<feColorMatrix in="SourceAlpha" type="matrix" values="0 0 0 0 0 0 0 0 0 0 0 0 0 0 0 0 0 0 127 0" result="hardAlpha"/>
<feOffset dy="16"/>
<feGaussianBlur stdDeviation="6.5"/>
<feColorMatrix type="matrix" values="0 0 0 0 0 0 0 0 0 0 0 0 0 0 0 0 0 0 0.03 0"/>
<feBlend mode="normal" in2="BackgroundImageFix" result="effect1_dropShadow_185_51"/>
<feBlend mode="normal" in="SourceGraphic" in2="effect1_dropShadow_185_51" result="shape"/>
</filter>
</defs>
</svg>
