<svg width="154" height="157" viewBox="0 0 154 157" fill="none" xmlns="http://www.w3.org/2000/svg">
<g filter="url(#filter0_d_185_311)">
<rect width="128" height="128" transform="translate(13)" fill="white"/>
<path fill-rule="evenodd" clip-rule="evenodd" d="M27 56.0493H43.3879V57.8603H27V56.0493ZM43.3879 66.1616V65.3294H41.3467V66.1616H36.1806V64.5914H43.3879V62.7751H36.1806V61.252H43.3879V59.3887H27V61.252H34.1864V62.7804H27V64.5914H34.1864V66.1616H27V67.9726H43.3879V66.1616ZM43.3879 69.5009V71.3119H27V69.5009H43.3879Z" fill="#D7000F"/>
<path fill-rule="evenodd" clip-rule="evenodd" d="M117.984 70.4745V69.7313H118.586L117.984 68.161V67.1142H118.633L120.329 71.3119H119.214L118.89 70.4745H117.984ZM124.987 69.1032H124.569V68.8729L125.773 67.6219H125.914V68.4541H126.887V69.1032H125.914V70.1238C125.914 70.3593 125.914 70.4954 126.008 70.5896C126.053 70.6262 126.105 70.6534 126.161 70.6696C126.217 70.6858 126.275 70.6906 126.333 70.6839C126.412 70.6908 126.492 70.6744 126.563 70.6368C126.675 70.6212 126.784 70.5894 126.887 70.5425V71.1968C126.739 71.2553 126.581 71.2872 126.422 71.291C126.287 71.3299 126.148 71.3458 126.008 71.3381C125.864 71.3481 125.719 71.3281 125.583 71.2795C125.447 71.2308 125.323 71.1546 125.218 71.0555C125.041 70.763 124.96 70.4226 124.987 70.0819V69.1032ZM121.376 71.3119V68.4332H122.255V69.2235C122.378 68.9856 122.535 68.767 122.721 68.5745C122.779 68.511 122.851 68.4611 122.93 68.4285C123.01 68.3959 123.096 68.3814 123.182 68.3861C123.261 68.3782 123.342 68.3947 123.412 68.4332C123.53 68.4768 123.64 68.5405 123.737 68.6216L123.506 69.4067L123.229 69.2707C123.175 69.234 123.11 69.2173 123.046 69.2235C122.955 69.2231 122.866 69.2437 122.786 69.2837C122.705 69.3237 122.634 69.3819 122.58 69.4538C122.436 69.6329 122.326 69.8369 122.255 70.0558V71.3119H121.376ZM117.989 67.088V68.2029L117.34 69.7313H117.989V70.4745H117.058L116.691 71.3119H115.577L117.429 67.088H117.989ZM107.924 71.3591V70.6734C108.01 70.6781 108.096 70.6636 108.176 70.631C108.255 70.5984 108.327 70.5485 108.385 70.485C108.496 70.303 108.561 70.0962 108.573 69.883C108.568 69.6687 108.503 69.4601 108.385 69.2811C108.329 69.2124 108.259 69.1563 108.179 69.1166C108.1 69.0769 108.013 69.0545 107.924 69.0508V68.3861C108.128 68.3769 108.331 68.4093 108.522 68.4813C108.713 68.5533 108.887 68.6634 109.034 68.8048C109.187 68.9312 109.309 69.0916 109.39 69.2733C109.471 69.455 109.509 69.653 109.5 69.8516C109.504 70.0497 109.464 70.2462 109.384 70.4271C109.303 70.6081 109.184 70.769 109.034 70.8985C108.887 71.0399 108.713 71.15 108.522 71.222C108.331 71.294 108.128 71.3263 107.924 71.3172V71.3591ZM110.892 71.3119V69.0404H110.52V68.4332H110.908V68.1087C110.902 67.9552 110.928 67.8021 110.984 67.659C111.04 67.5159 111.124 67.3857 111.232 67.2765C111.485 67.0897 111.8 67.0073 112.112 67.0462H112.342C112.422 67.0433 112.503 67.0576 112.577 67.088V67.7371H112.253C112.112 67.7371 111.976 67.7371 111.928 67.8313C111.86 67.9766 111.827 68.1365 111.834 68.2971V68.4332H112.206V69.0404H111.834V71.3119H110.892ZM107.924 68.3861V69.0404C107.834 69.0387 107.744 69.0587 107.663 69.0988C107.582 69.1389 107.512 69.1978 107.458 69.2707C107.32 69.4393 107.253 69.6551 107.27 69.8726C107.26 70.0892 107.326 70.3025 107.458 70.4745C107.514 70.5425 107.586 70.5953 107.667 70.6283C107.749 70.6612 107.837 70.6731 107.924 70.6629V71.3591C107.498 71.37 107.084 71.2206 106.762 70.9403C106.627 70.802 106.521 70.6383 106.449 70.4586C106.377 70.279 106.341 70.087 106.344 69.8935C106.337 69.6995 106.371 69.5062 106.443 69.326C106.515 69.1458 106.624 68.9825 106.762 68.8467C107.084 68.5665 107.498 68.417 107.924 68.428V68.3861ZM91.0182 71.3591V70.7519H91.3427C91.5218 70.765 91.7014 70.7345 91.8661 70.6629C92.0688 70.6071 92.259 70.513 92.4262 70.3855V70.9874C92.2436 71.1149 92.0398 71.2089 91.8243 71.2648C91.5959 71.319 91.3627 71.3505 91.1281 71.3591H91.0182ZM91.0182 70.0139V69.5952H91.573C91.5409 69.43 91.4788 69.2721 91.3898 69.1293C91.2872 69.0394 91.1547 68.9909 91.0182 68.9932V68.3861C91.2122 68.3794 91.4055 68.4131 91.5857 68.4852C91.766 68.5573 91.9292 68.6661 92.065 68.8048C92.2035 68.972 92.3076 69.1648 92.3714 69.3723C92.4352 69.5798 92.4573 69.7978 92.4366 70.0139H91.0182ZM100.9 72.7042H99.9162L100.754 70.8461L99.7068 68.4332H100.68L101.24 69.8255L101.889 68.4332H102.816L100.916 72.7042H100.9ZM93.8499 71.3119V68.4332H94.7292V68.8048C94.8532 68.6575 95.0139 68.5456 95.195 68.4803C95.3559 68.3966 95.5384 68.3637 95.7184 68.3861C95.8973 68.3836 96.075 68.4156 96.2418 68.4803C96.4001 68.5739 96.5177 68.7233 96.5716 68.899C96.7315 68.7291 96.9191 68.5875 97.1264 68.4803C97.3049 68.4185 97.4923 68.3867 97.6812 68.3861C97.8115 68.3731 97.9429 68.3921 98.0642 68.4413C98.1855 68.4906 98.293 68.5686 98.3773 68.6687C98.4777 68.7813 98.5541 68.9132 98.6018 69.0563C98.6495 69.1994 98.6675 69.3507 98.6547 69.501V71.3119H97.7283V69.5952C97.753 69.4336 97.7196 69.2686 97.6341 69.1293C97.6066 69.0817 97.5655 69.0433 97.5161 69.0191C97.4667 68.9949 97.4112 68.9859 97.3567 68.9932C97.2202 68.9909 97.0877 69.0394 96.9851 69.1293C96.8839 69.2298 96.7911 69.3383 96.7077 69.4538V71.3119H95.8283V69.5952C95.8297 69.435 95.7976 69.2764 95.7341 69.1293C95.6917 69.0863 95.6412 69.0521 95.5855 69.0288C95.5298 69.0054 95.47 68.9934 95.4096 68.9934C95.3492 68.9934 95.2894 69.0054 95.2337 69.0288C95.178 69.0521 95.1275 69.0863 95.0851 69.1293C94.9558 69.2141 94.8453 69.3245 94.7606 69.4538V71.3119H93.8499ZM91.0182 68.3861V68.9932C90.8813 68.9882 90.7479 69.0371 90.6466 69.1293C90.5383 69.2616 90.4742 69.4245 90.4634 69.5952H91.0182V70.0139H90.4948C90.4828 70.1183 90.4977 70.2241 90.538 70.3212C90.5783 70.4183 90.6427 70.5035 90.7251 70.5687C90.8143 70.6586 90.9266 70.722 91.0496 70.7519V71.3591C90.8552 71.3695 90.6608 71.3375 90.48 71.2652C90.2992 71.1928 90.1364 71.082 90.0028 70.9403C89.8609 70.7927 89.7507 70.6177 89.6787 70.426C89.6067 70.2343 89.5745 70.03 89.5841 69.8255C89.5848 69.4443 89.716 69.0749 89.9557 68.7786C90.2718 68.5271 90.6667 68.3954 91.0705 68.407L91.0182 68.3861ZM86.6582 71.3591V70.6734H86.7524C86.8323 70.6851 86.9138 70.6684 86.9827 70.6263L87.2601 70.485V69.2811C87.1948 69.2175 87.1162 69.1692 87.0298 69.1398C86.9426 69.1018 86.8473 69.0856 86.7524 69.0927H86.6582V68.3861C86.7359 68.3971 86.8128 68.4128 86.8885 68.4332C87.0289 68.482 87.1561 68.5626 87.2601 68.6687V67.0985H88.1395V71.3224H87.3072V71.0869C87.1889 71.16 87.0645 71.223 86.9356 71.2753C86.8554 71.3216 86.7661 71.3501 86.6739 71.3591H86.6582ZM86.6582 68.3861V69.1032C86.5794 69.1054 86.5019 69.1231 86.43 69.1555C86.3581 69.1878 86.2934 69.2341 86.2395 69.2916C86.1093 69.4643 86.0444 69.6775 86.0563 69.8935C86.0465 69.9936 86.0577 70.0947 86.0893 70.1903C86.1208 70.2858 86.172 70.3737 86.2395 70.4483C86.3427 70.5788 86.4931 70.6634 86.6582 70.6839V71.38H86.475C86.2908 71.3891 86.1069 71.3562 85.9373 71.2836C85.7677 71.2111 85.6169 71.1008 85.4962 70.9613C85.3656 70.8219 85.2656 70.6568 85.2025 70.4765C85.1394 70.2963 85.1147 70.1048 85.1299 69.9144C85.1147 69.7241 85.1394 69.5326 85.2025 69.3523C85.2656 69.1721 85.3656 69.007 85.4962 68.8676C85.6169 68.7281 85.7677 68.6178 85.9373 68.5453C86.1069 68.4727 86.2908 68.4398 86.475 68.4489L86.6582 68.3861ZM82.3453 71.2648V70.799C82.3924 70.799 82.4343 70.7519 82.4814 70.7519C82.5549 70.6983 82.6338 70.6527 82.7169 70.6158V69.9197C82.5909 69.9588 82.4668 70.0042 82.3453 70.0558V69.5952C82.4657 69.5393 82.5899 69.4921 82.7169 69.4538V69.3596C82.7231 69.3046 82.713 69.249 82.6879 69.1997C82.6628 69.1504 82.6237 69.1095 82.5756 69.0822C82.5108 69.0279 82.4298 68.9966 82.3453 68.9932V68.3861H82.4343C82.7635 68.3436 83.0965 68.4278 83.366 68.6216C83.4642 68.7162 83.5401 68.8316 83.5881 68.9593C83.6361 69.0869 83.655 69.2237 83.6434 69.3596V70.6734C83.6905 70.7205 83.6905 70.7205 83.7376 70.7205H83.8737C83.9208 70.6734 83.9679 70.6734 84.015 70.6263V71.1497C83.8849 71.2318 83.744 71.2952 83.5963 71.3381C83.4764 71.3769 83.3504 71.3928 83.2246 71.3852C83.1101 71.3825 82.9983 71.3501 82.9001 71.291C82.8581 71.2693 82.823 71.2362 82.7989 71.1955C82.7748 71.1547 82.7627 71.108 82.764 71.0607C82.6331 71.1523 82.4927 71.2295 82.3453 71.291V71.2648ZM82.3453 68.3861V68.9932H82.1569C81.9777 68.9774 81.7974 69.0081 81.6335 69.0822C81.4576 69.1778 81.2999 69.3036 81.1676 69.4538V68.7106C81.3465 68.616 81.534 68.5389 81.7277 68.4803C81.9233 68.4224 82.1257 68.3907 82.3296 68.3861H82.3453ZM82.3453 69.5952V70.0558C82.256 70.0785 82.1757 70.1278 82.115 70.1971C82.0623 70.2231 82.0173 70.2623 81.9843 70.311C81.9512 70.3596 81.9314 70.4159 81.9266 70.4745C81.9285 70.5618 81.962 70.6455 82.0208 70.71C82.0852 70.7651 82.1664 70.7965 82.2511 70.799H82.3453V71.2648C82.1954 71.3187 82.0385 71.3505 81.8795 71.3591C81.6469 71.3829 81.4141 71.3153 81.2305 71.1706C81.1052 70.9965 81.0492 70.7819 81.0734 70.5687C81.0697 70.4604 81.0931 70.3529 81.1416 70.256C81.19 70.1591 81.262 70.0759 81.3508 70.0139C81.6624 69.8127 82.0084 69.6708 82.3715 69.5952H82.3453ZM74.0597 70.4745V69.7313H74.6617L74.0597 68.161V67.1142H74.7088L76.3627 71.3119H75.2636L74.9391 70.4745H74.0597ZM79.8539 71.1968L79.4352 71.3381C79.2639 71.3788 79.0876 71.3947 78.9118 71.3852C78.6934 71.3982 78.4746 71.3679 78.268 71.2961C78.0614 71.2242 77.8711 71.1122 77.7079 70.9665C77.5508 70.8432 77.4262 70.6834 77.345 70.5009C77.2638 70.3185 77.2285 70.1189 77.2421 69.9197C77.229 69.7205 77.2645 69.5211 77.3457 69.3387C77.4268 69.1563 77.5511 68.9965 77.7079 68.8729C78.0233 68.5864 78.439 68.4359 78.8646 68.4541C79.0215 68.4439 79.1789 68.4598 79.3305 68.5012C79.4942 68.5043 79.6538 68.5532 79.7911 68.6426V69.3387C79.6486 69.3065 79.51 69.2591 79.3776 69.1974C79.2572 69.1613 79.1316 69.1454 79.006 69.1503C78.7884 69.1317 78.5722 69.1993 78.404 69.3387C78.2521 69.5023 78.1677 69.7173 78.1677 69.9406C78.1677 70.1639 78.2521 70.3789 78.404 70.5425C78.5869 70.6888 78.8203 70.7565 79.0531 70.731C79.177 70.7358 79.3008 70.7199 79.4195 70.6839L79.8382 70.5425L79.8539 71.1968ZM74.0597 67.088V68.2029L73.4107 69.7313H74.0597V70.4745H73.1281L72.7565 71.3119H71.6521L73.5049 67.088H74.0597ZM66.5907 71.2753V70.8095C66.6378 70.8095 66.6797 70.7624 66.7268 70.7624L67.0094 70.6263V69.9197C66.821 69.9668 66.7268 70.0139 66.5907 70.0558V69.5952L67.0094 69.4538V69.3596C67.0156 69.3046 67.0055 69.249 66.9804 69.1997C66.9553 69.1504 66.9162 69.1095 66.8681 69.0822C66.7859 69.0269 66.6897 68.9961 66.5907 68.9932V68.3861H66.7268C66.8825 68.3646 67.0409 68.3744 67.1928 68.4148C67.3447 68.4553 67.4869 68.5256 67.6113 68.6216C67.7096 68.7162 67.7855 68.8316 67.8335 68.9593C67.8815 69.0869 67.9004 69.2237 67.8888 69.3596V70.5216C67.8888 70.5687 67.9359 70.6158 67.9359 70.6629C67.9359 70.71 67.983 70.71 68.0301 70.71H68.1662C68.1662 70.6629 68.2604 70.6629 68.3075 70.6158V71.1392C68.173 71.2128 68.033 71.2758 67.8888 71.3277C67.7683 71.3637 67.6428 71.3796 67.5171 71.3748C67.4015 71.3801 67.2874 71.347 67.1926 71.2805C67.15 71.2591 67.1141 71.2262 67.0892 71.1855C67.0642 71.1448 67.0511 71.098 67.0513 71.0502C66.9228 71.1427 66.7841 71.22 66.6378 71.2805L66.5907 71.2753ZM52.9507 70.9508C52.7021 71.0885 52.4387 71.1973 52.1655 71.2753C51.8936 71.3531 51.6105 71.3849 51.3281 71.3695C51.012 71.3622 50.6991 71.3039 50.4016 71.1968C50.1256 71.1085 49.8745 70.9561 49.6689 70.7519C49.4619 70.5601 49.3039 70.3213 49.2083 70.0558C49.096 69.7755 49.0323 69.4781 49.0198 69.1764C49.0148 68.8842 49.0698 68.5941 49.1815 68.324C49.2931 68.0539 49.459 67.8096 49.6689 67.6062C50.1539 67.1875 50.7826 66.9735 51.4223 67.0095C51.6721 67.0188 51.9206 67.0486 52.1655 67.0985C52.4194 67.1563 52.668 67.2351 52.9088 67.334V68.3547C52.6874 68.2117 52.4546 68.0874 52.2126 67.9831C51.9683 67.9289 51.7195 67.8973 51.4694 67.8889C51.2903 67.8808 51.1115 67.9096 50.944 67.9736C50.7766 68.0375 50.624 68.1351 50.4959 68.2605C50.3617 68.3717 50.2574 68.5148 50.1925 68.6765C50.1276 68.8383 50.1042 69.0138 50.1242 69.1869C50.1114 69.361 50.1335 69.5358 50.1892 69.7012C50.2449 69.8666 50.3332 70.0192 50.4488 70.15C50.5801 70.2679 50.7343 70.3576 50.9018 70.4134C51.0693 70.4692 51.2464 70.49 51.4223 70.4745C51.676 70.4721 51.9274 70.426 52.1655 70.3384C52.4432 70.2515 52.7074 70.1264 52.9507 69.9668V70.9403V70.9508ZM66.5907 68.3966V69.0037H66.4494C66.2702 68.9879 66.0899 69.0185 65.926 69.0927C65.7313 69.1854 65.5542 69.3111 65.4026 69.4643L65.4497 68.7211C65.619 68.6111 65.807 68.533 66.0045 68.4908C66.1866 68.4366 66.3747 68.4049 66.5645 68.3966H66.5907ZM66.5907 69.6056V70.0662C66.5063 70.1028 66.4271 70.1503 66.3552 70.2076C66.2761 70.2793 66.2274 70.3785 66.2191 70.485C66.2191 70.5792 66.2191 70.6734 66.3133 70.7205C66.377 70.7767 66.4587 70.8082 66.5436 70.8095H66.5907V71.2753C66.4422 71.3338 66.2845 71.3657 66.1249 71.3695C66.018 71.3842 65.9093 71.3764 65.8057 71.3467C65.702 71.317 65.6057 71.2659 65.5229 71.1968C65.3714 71.0334 65.2889 70.8177 65.2926 70.5949C65.2982 70.4831 65.3305 70.3744 65.387 70.2778C65.4435 70.1812 65.5225 70.0997 65.6172 70.0401C65.9156 69.8463 66.2448 69.7048 66.5907 69.6213V69.6056ZM61.1158 71.3119V68.4332H62.0423V68.8048C62.1599 68.6709 62.302 68.5608 62.461 68.4803C62.6354 68.4039 62.8259 68.3716 63.0158 68.3861C63.1461 68.3731 63.2775 68.3921 63.3988 68.4413C63.5201 68.4906 63.6276 68.5686 63.7119 68.6687C63.8133 68.7809 63.8906 68.9126 63.9392 69.0557C63.9878 69.1988 64.0066 69.3503 63.9946 69.501V71.3119H63.0629V69.5952C63.0629 69.4067 63.0629 69.2707 62.9739 69.1764C62.9491 69.1222 62.9093 69.0762 62.8593 69.0437C62.8092 69.0113 62.7509 68.9938 62.6913 68.9932C62.5562 68.9896 62.4249 69.0384 62.3249 69.1293C62.2205 69.2282 62.1259 69.3369 62.0423 69.4538V71.3119H61.1158ZM58.6558 67.5329C58.6542 67.4718 58.6661 67.4111 58.6905 67.355C58.7149 67.2989 58.7513 67.2489 58.7971 67.2084C58.8984 67.1162 59.0318 67.0673 59.1688 67.0723C59.2595 67.0728 59.3481 67.1001 59.4234 67.1507C59.4987 67.2013 59.5574 67.2731 59.5921 67.357C59.6267 67.4409 59.6359 67.5331 59.6183 67.6221C59.6007 67.7112 59.5572 67.793 59.4933 67.8574C59.4528 67.9033 59.4027 67.9397 59.3467 67.9641C59.2906 67.9885 59.2299 68.0003 59.1688 67.9988C59.0311 68.0024 58.8976 67.9516 58.7971 67.8574C58.7513 67.817 58.7149 67.7669 58.6905 67.7109C58.6661 67.6548 58.6542 67.5941 58.6558 67.5329ZM58.7029 71.3381V68.4594H59.6137V71.3381H58.7029ZM54.3429 71.3381V67.088H55.2275V68.8048C55.3542 68.6629 55.5118 68.5519 55.6881 68.4803C55.8494 68.3978 56.0315 68.365 56.2115 68.3861C56.3483 68.3786 56.4851 68.3998 56.6131 68.4485C56.7411 68.4972 56.8575 68.5722 56.9547 68.6687C57.046 68.7855 57.1134 68.9191 57.1529 69.0619C57.1924 69.2047 57.2033 69.3539 57.185 69.501V71.3119H56.2952V69.5952C56.2974 69.4501 56.2651 69.3066 56.201 69.1764C56.1622 69.1254 56.1134 69.0829 56.0577 69.0514C56.0019 69.0199 55.9402 69.0001 55.8765 68.9932C55.7559 68.9998 55.6412 69.0479 55.552 69.1293C55.4212 69.2122 55.3103 69.323 55.2275 69.4538V71.3119L54.3429 71.3381Z" fill="#3E3A39"/>
<path fill-rule="evenodd" clip-rule="evenodd" d="M78.1836 56.7455C78.2778 56.7455 78.5552 56.8397 78.5552 56.7926C78.7138 56.8738 78.8558 56.9838 78.9739 57.1171C79.0525 57.1628 79.1133 57.2336 79.1466 57.3182C79.1799 57.4027 79.1836 57.4961 79.1571 57.583C79.1485 57.6809 79.1181 57.7757 79.0681 57.8604C78.9381 57.9437 78.7905 57.9956 78.637 58.0119C78.4834 58.0283 78.3282 58.0086 78.1836 57.9546C77.9913 57.7661 77.8616 57.5231 77.8119 57.2585H77.7648C77.6759 57.07 77.4403 56.934 77.6288 56.6984C77.8148 56.6689 78.0052 56.6851 78.1836 56.7455Z" fill="#3E3A39"/>
<path fill-rule="evenodd" clip-rule="evenodd" d="M91.9607 57.3947C92.0266 57.5994 92.0085 57.822 91.9103 58.0133C91.8122 58.2047 91.642 58.3493 91.4373 58.4153C91.2489 58.7869 91.6676 58.7869 91.6676 59.2057C91.8304 59.1087 91.9861 59.0003 92.1335 58.8811C92.2695 58.7398 92.5941 58.9282 92.6883 58.7869C92.7087 58.7112 92.7244 58.6343 92.7354 58.5566C92.7096 58.5313 92.6931 58.4982 92.6883 58.4624C92.6412 58.0908 92.9657 57.8134 93.3844 57.5831C93.6147 57.5831 93.7089 57.9966 93.8502 58.0437C93.8921 58.0908 93.9392 58.1379 93.9863 57.9966C94.1695 57.9076 94.2166 57.3947 94.5097 57.3947C94.9703 57.3476 94.7871 57.8605 95.2059 57.9181C95.6194 57.7767 95.5723 58.1484 95.4833 58.3316C95.1772 58.6272 94.7883 58.8226 94.3684 58.8916C94.2271 58.9387 93.9497 58.9858 93.9026 59.2161C93.8816 59.4005 93.8816 59.5866 93.9026 59.7709C93.9497 59.9123 94.18 59.8652 94.18 59.9594C94.3538 60.0803 94.4869 60.2511 94.5617 60.4492C94.6364 60.6473 94.6493 60.8634 94.5987 61.069C94.5097 61.3045 94.5987 61.629 94.2271 61.629C93.6723 61.6761 93.9026 61.069 93.7037 61.1632C93.6259 61.5595 93.5943 61.9635 93.6095 62.367V62.4142C93.4902 62.7104 93.4281 63.0265 93.4263 63.3458C93.2379 63.4819 93.285 63.9006 93.0076 63.9006C92.8662 63.872 92.7382 63.7975 92.6435 63.6887C92.5489 63.5798 92.4928 63.4427 92.4841 63.2987C92.3952 63.2516 92.3009 62.9271 92.3009 62.8329C92.4213 62.5841 92.4991 62.317 92.5313 62.0425C92.5608 61.8409 92.5447 61.6352 92.4841 61.4406C92.301 61.4406 92.301 61.718 92.2067 61.8593C92.1596 62.1367 91.9293 62.2781 91.7461 62.5084C91.6989 62.5424 91.6421 62.5608 91.5839 62.5608C91.5256 62.5608 91.4689 62.5424 91.4216 62.5084C91.2332 62.4142 91.4216 62.2781 91.3274 62.0896C91.5106 61.3935 91.9764 61.0428 92.2538 60.3729C92.301 60.2368 92.4841 60.1897 92.4841 60.0012C92.4841 59.8128 92.7197 59.4464 92.5784 59.3993C92.437 59.3522 92.0549 59.6767 91.7461 59.4464C91.4216 59.5406 91.6048 60.0483 91.3745 60.1897C91.1861 60.4671 90.8197 60.7131 91.0029 61.1161C90.9558 61.9536 90.9558 62.5555 90.8616 63.4348C90.7255 63.5761 90.6784 64.0367 90.49 64.0367C90.1236 64.0367 89.8409 63.3877 89.7991 63.0632C90.0294 62.7387 89.888 62.4142 89.9822 62.1367C90.0765 61.9536 89.9822 61.7651 90.0294 61.5348C89.9822 61.4406 89.9822 61.3464 89.9351 61.3045C89.6577 61.4406 89.3332 62.0425 88.9145 61.9064C88.9145 61.8122 88.7313 61.629 88.8203 61.5348C89.0087 61.4406 89.15 61.1632 89.2861 61.0114C89.4048 60.9016 89.5485 60.8225 89.7048 60.7811C89.7048 60.645 89.8409 60.5979 89.888 60.5037C89.9351 60.4095 89.9351 60.2734 90.0765 60.2734C90.2293 60.0983 90.3676 59.911 90.49 59.7134C90.5371 59.4831 90.49 59.2528 90.5371 59.0172C90.5842 58.7817 90.1707 58.834 90.1236 58.6037C90.0294 58.2792 90.3068 58.2792 90.3539 58.0803C90.5005 58.0605 90.6423 58.0144 90.7726 57.9442C90.9087 57.6616 90.7255 57.4784 90.6784 57.201C90.6707 57.1459 90.6802 57.0897 90.7055 57.0401C90.7307 56.9905 90.7706 56.9498 90.8197 56.9236C91.139 56.8765 91.3431 56.8294 91.5106 57.1068L91.9607 57.3947Z" fill="#3E3A39"/>
<path fill-rule="evenodd" clip-rule="evenodd" d="M96.5975 57.1172C96.6917 57.1644 96.833 57.3057 96.922 57.2115C97.0633 57.3475 97.2936 57.3475 97.3878 57.536C97.3407 57.8134 97.3407 58.3211 97.0162 58.3682C96.8801 58.4153 96.6917 58.3211 96.5556 58.3682C96.4343 58.4312 96.3301 58.5228 96.252 58.6351C96.0689 58.5933 95.9746 58.9178 95.7914 58.6822C95.6972 58.5933 95.7914 58.5462 95.8333 58.4048C95.7443 58.3577 95.9746 58.1745 95.9746 58.1274C95.9746 58.0803 95.9746 57.9861 96.0217 57.8971C96.0217 57.6145 95.6972 57.5726 95.7914 57.2952C95.8857 57.1068 95.9746 56.9655 96.1578 56.9236C96.3201 56.9759 96.5085 56.9759 96.5975 57.1172Z" fill="#3E3A39"/>
<path fill-rule="evenodd" clip-rule="evenodd" d="M81.524 57.7663C81.4467 57.9583 81.4008 58.1615 81.388 58.3682C81.1995 58.5566 80.8646 58.5566 80.6447 58.7398C80.5034 58.7869 80.4563 58.7869 80.3673 58.8811C80.2783 58.9753 80.2731 59.1585 80.4144 59.2056C80.786 59.1585 80.875 58.9753 81.1106 58.9282C81.1995 58.9282 81.1106 59.3417 81.1524 59.4516C81.0602 59.6466 80.8946 59.7971 80.6918 59.8704C80.5976 59.9175 80.3673 59.9646 80.3673 60.0536C80.226 60.1949 80.1318 60.1007 80.1318 60.3781C80.1318 60.4723 79.9486 60.5665 80.0428 60.6136L80.5034 60.4252C80.7389 60.3781 80.7389 60.1949 81.0268 60.2891C81.121 60.3362 81.3513 60.0536 81.3513 60.242C81.3513 60.3362 81.4455 60.6136 81.3513 60.7654C81.2571 60.9172 81.1629 60.8596 81.0268 60.9067L80.8855 60.8596C80.6552 60.8596 80.5139 61.137 80.3307 61.2783C80.2533 61.3597 80.1585 61.4224 80.0533 61.4615C79.8648 61.6029 79.6345 61.5086 79.6345 61.6971C79.7288 61.7389 79.7288 62.0163 79.8648 62.0163C79.965 62.0505 80.0719 62.0602 80.1766 62.0448C80.2813 62.0293 80.3808 61.989 80.4668 61.9274C80.8384 61.9274 81.3984 61.7389 81.6287 62.0163C81.7701 62.2519 81.3513 62.5764 81.0739 62.5764C80.7862 62.7137 80.5065 62.8675 80.2365 63.037V63.0841C80.2836 63.1312 80.0533 63.1312 80.1422 63.1783C80.6836 63.3485 81.209 63.5656 81.7125 63.8273C81.993 64.0226 82.307 64.1645 82.6389 64.2461C82.9482 64.3707 83.279 64.433 83.6125 64.4293C84.3093 64.5071 85.0134 64.4913 85.7061 64.3822C85.8474 64.4293 85.659 64.8009 85.3345 64.9056C85.2202 65.1214 85.0614 65.3105 84.8686 65.4604C84.6854 65.7849 84.2667 65.6017 83.8951 65.6017C83.4345 65.5075 82.8483 65.6488 82.3667 65.3243C82.0893 65.3243 81.7648 65.2772 81.6706 65.0417C81.5304 64.9736 81.4164 64.8615 81.3461 64.7224C81.119 64.4382 80.8509 64.1895 80.5505 63.9844C80.4144 63.9373 80.4563 63.7959 80.3202 63.7488C79.6712 63.4714 79.6241 63.0056 79.4828 63.2254C79.3467 63.5184 79.1587 63.7844 78.9279 64.0105C78.8808 64.1519 78.6034 64.199 78.6034 64.3822C78.5092 64.4764 78.326 64.5235 78.2318 64.6177C78.1224 64.8547 77.9386 65.0495 77.7084 65.1725C77.3839 65.2196 77.185 65.2196 76.8709 65.2667C76.6877 65.3138 76.269 65.3138 76.1748 65.1725C76.1748 65.0783 76.5464 64.8951 76.6406 64.848C76.8041 64.77 76.96 64.6772 77.1065 64.5706C77.2399 64.4245 77.3624 64.2688 77.4729 64.1048C77.52 64.0576 77.6613 64.0105 77.7084 63.9216C77.9387 63.7802 77.9858 63.5499 78.1219 63.3981C78.169 63.3092 78.169 63.215 78.08 63.1678C77.991 63.1207 77.9858 63.0736 77.9387 63.0736C77.7974 63.1207 77.6142 63.2621 77.52 63.2621C77.323 63.2429 77.1331 63.1784 76.9652 63.0736C76.918 63.0265 77.0594 62.7962 77.1065 62.6601C77.2426 62.613 77.3368 62.4246 77.4729 62.4246C77.6613 62.2885 77.9963 62.4246 78.169 62.3775C78.3417 62.3304 78.5406 62.2885 78.5877 62.1472C78.5406 61.9169 78.729 61.7285 78.4935 61.5924C78.1219 61.5924 77.9387 61.8227 77.5671 61.5924C77.4729 61.4982 77.2897 61.3097 77.3839 61.1737C77.7503 60.8491 77.9858 60.9852 78.4307 60.8491C78.5249 60.802 79.085 60.8491 79.3153 60.6607C79.3578 60.5582 79.374 60.4466 79.3624 60.3362C79.3222 60.2916 79.2674 60.2629 79.2079 60.2552C79.1483 60.2475 79.088 60.2614 79.0379 60.2943C78.7552 60.3833 78.4307 60.5717 78.2475 60.5246C78.2004 60.4304 77.923 60.2943 77.923 60.153C78.0643 59.9646 78.2946 59.9646 78.4778 59.8756C78.661 59.7866 79.2682 59.5511 79.5246 59.4098C79.5869 59.2794 79.6034 59.132 79.5717 58.991C79.2472 59.1795 78.7395 59.0853 78.415 59.2737C78.1795 59.0381 77.6718 59.504 77.5775 59.0381C77.7931 58.8143 78.0668 58.6548 78.3679 58.5775C78.7105 58.473 79.0604 58.3943 79.4147 58.342C79.5089 58.253 79.6031 58.342 79.6974 58.2949C80.1108 58.1588 80.1108 57.8814 80.8541 57.8343C81.1524 57.8134 81.4769 57.5883 81.524 57.7663Z" fill="#3E3A39"/>
<path fill-rule="evenodd" clip-rule="evenodd" d="M98.1787 58.5566C98.3148 58.834 98.5922 59.2056 98.3619 59.5301C98.1787 59.7604 97.6657 59.7133 97.3883 59.6662C97.2051 59.7604 97.1109 59.6662 96.9225 59.8076C96.7837 59.7701 96.6358 59.7869 96.509 59.8547C96.509 60.085 96.6922 59.9018 96.7393 60.085C96.9225 60.1321 96.7864 60.5037 96.8806 60.645C96.8335 61.5714 96.9696 61.6918 96.8806 62.545C97.0638 62.8224 96.9696 63.6598 96.9696 63.8901C96.9372 64.272 96.7935 64.636 96.5561 64.937C96.2735 65.0259 96.0327 65.3976 95.7187 65.2615C95.5355 65.1673 95.6244 64.937 95.4884 64.7956C95.3258 64.6504 95.1352 64.5399 94.9283 64.4711C94.6509 64.2879 93.7716 64.7956 93.6774 64.2879C93.6303 64.2408 93.8187 64.0053 93.9077 63.9634C94.023 63.9054 94.1502 63.8752 94.2793 63.8752C94.4083 63.8752 94.5356 63.9054 94.6509 63.9634H95.2999C95.7187 63.8692 95.7658 63.3144 95.8547 62.9166C95.8129 62.8695 95.7658 62.6863 95.8129 62.6392C95.8129 62.1158 95.949 61.7075 95.949 61.2469C95.9168 60.9985 95.9328 60.7461 95.9961 60.5037V60.3624C95.964 60.2269 95.9482 60.0881 95.949 59.9489C95.8129 59.9907 95.4255 59.9489 95.2999 60.1321C95.1167 60.1321 94.9754 60.1792 94.8393 60.085C94.7032 59.9907 94.4206 59.6662 94.5148 59.4359C94.7922 59.2056 95.3942 59.3888 95.7658 59.1585C96.0432 59.1585 96.2264 58.834 96.4619 58.8811C96.7864 58.8811 96.9853 58.6927 97.2523 58.6037C97.4354 58.5095 97.6186 58.2321 97.9431 58.3682L98.1787 58.5566Z" fill="#3E3A39"/>
<path fill-rule="evenodd" clip-rule="evenodd" d="M126.238 59.0644C126.144 58.9754 126.144 58.8341 125.961 58.787C125.819 58.4624 125.495 58.4153 125.17 58.2635C124.93 58.2334 124.686 58.2811 124.474 58.3996C124.291 58.4467 124.103 58.5881 123.919 58.541C123.967 58.3054 124.197 58.2164 124.15 57.9809H124.197C124.15 57.6564 124.103 57.5674 123.872 57.4575L123.642 57.4104L123.176 57.0649H123.082V58.5514C123.09 58.5406 123.101 58.5318 123.113 58.5257C123.125 58.5197 123.139 58.5165 123.153 58.5165C123.166 58.5165 123.18 58.5197 123.192 58.5257C123.204 58.5318 123.215 58.5406 123.223 58.5514L123.778 58.6404V58.6875C123.595 58.7346 123.365 58.8288 123.082 58.923V59.5773C123.454 59.436 123.778 59.2999 124.014 59.2057C124.197 59.2057 124.568 59.0644 124.663 59.1586C124.752 59.1586 124.705 59.3889 124.752 59.4831C124.616 59.6244 123.825 59.8076 123.825 60.1321C123.689 60.0379 123.406 59.8547 123.176 59.9489C123.129 59.9908 123.129 59.9908 123.082 59.9908V61.0376L123.318 60.9905C123.642 60.9486 123.689 60.6241 124.014 60.577C124.15 60.4357 123.825 60.3415 123.919 60.1583C124.15 60.3415 124.291 60.0641 124.616 60.0641C124.893 60.1583 125.139 59.6925 125.406 59.8809C125.73 59.928 125.867 59.6925 126.097 59.5564C126.144 59.2057 126.379 59.3418 126.238 59.0644ZM123.098 57.0702C122.731 57.0702 122.124 57.0231 121.988 57.2115C121.894 57.536 122.171 57.7663 122.218 57.8605C122.496 58.185 122.218 58.4624 122.124 58.8341C122.171 58.9283 122.449 58.8812 122.543 58.8341C122.637 58.787 122.914 58.6038 123.098 58.5567V57.0649V57.0702ZM123.098 58.9283V59.5773C122.903 59.6455 122.701 59.6911 122.496 59.7134C122.124 59.8076 121.847 59.6663 121.569 59.7134C121.428 59.9489 121.616 60.4095 121.428 60.6869C121.475 60.7811 121.569 60.6869 121.664 60.6869C121.8 60.5037 122.265 60.4566 122.449 60.3624V60.3205C122.538 60.2749 122.633 60.2431 122.731 60.2263C122.821 60.1063 122.951 60.0227 123.098 59.9908V61.0376H123.009C122.731 61.0376 122.218 61.2732 122.035 61.1789C121.941 61.2732 121.8 61.1789 121.758 61.1789C121.522 61.1789 121.292 60.9486 121.151 61.1318C121.015 61.4092 120.873 61.5035 120.454 61.5035C120.083 61.4092 120.224 61.0376 119.9 60.7602C119.9 60.7131 119.853 60.666 119.853 60.6241C119.853 60.0641 120.69 59.928 120.502 59.2319C120.48 59.1395 120.491 59.0426 120.533 58.9576C120.575 58.8726 120.645 58.8048 120.732 58.766C120.941 58.8292 121.133 58.9403 121.292 59.0905C121.37 59.1879 121.432 59.2975 121.475 59.415C122.036 59.3534 122.581 59.1884 123.082 58.9283H123.098Z" fill="#3E3A39"/>
<path fill-rule="evenodd" clip-rule="evenodd" d="M112.043 59.8075C111.672 59.4359 111.63 59.2527 111.394 59.2056C111.305 59.2527 110.934 59.2527 110.793 59.2998C110.702 59.3159 110.62 59.3643 110.562 59.4359C110.421 59.3888 109.866 59.5772 109.819 59.4359V59.2998L109.96 58.8811C110.049 58.5566 110.285 58.5095 110.327 58.3577C110.562 57.3109 110.976 57.5726 111.164 57.1538C111.117 56.7822 110.84 56.107 110.468 55.95C110.234 55.9799 110.02 56.0956 109.866 56.2745C109.589 56.4577 109.447 56.3635 109.123 56.5519C108.94 56.599 108.845 56.5519 108.704 56.6409C108.563 56.7299 108.893 57.337 109.029 57.337C109.17 57.4312 109.306 57.2481 109.494 57.2952C109.636 57.4784 108.893 57.4312 108.704 57.7087H108.657V58.1117C108.704 58.0646 108.751 58.0646 108.94 58.2059C108.94 58.2059 109.217 58.1117 109.264 58.1588C109.353 58.342 108.94 58.342 108.657 58.4362V59.1323C108.704 59.1794 108.845 59.2265 108.845 59.2736C108.845 59.3208 108.982 59.5511 108.94 59.5982C108.867 59.6784 108.765 59.7272 108.657 59.7342V60.4775H108.893C109.123 60.4304 109.264 60.2943 109.542 60.3833C109.827 60.2981 110.123 60.2524 110.421 60.2472C110.515 60.3833 110.421 60.4304 110.374 60.6659C110.421 60.8491 110.327 60.9433 110.238 61.2207C110.468 61.4039 110.656 61.5452 110.84 61.4981C111.023 61.451 111.258 61.0794 111.536 61.0323C111.719 60.6659 111.996 60.8491 112.059 60.4775C112.012 60.3833 112.106 59.9227 112.059 59.8285L112.043 59.8075ZM108.657 56.5414V55.9605C108.709 56.1507 108.709 56.3513 108.657 56.5414ZM108.657 57.7453C108.474 57.6511 108.521 57.6092 108.333 57.5621C108.008 57.6092 107.919 57.6092 107.809 57.4208L107.903 57.2847C108.188 57.0732 108.442 56.823 108.657 56.5414V55.9134C108.568 55.772 108.38 55.4946 108.244 55.4946C108.107 55.4946 107.961 55.6778 107.872 55.8191C107.783 55.9605 107.594 56.3426 107.453 56.5153C107.265 56.8398 106.987 56.2379 106.574 56.6985C106.433 56.7927 106.71 57.2219 106.757 57.3475C106.851 57.3475 106.71 57.5359 106.71 57.6249C106.71 57.7139 106.616 57.7191 106.385 57.9075C106.358 57.9759 106.357 58.0521 106.383 58.121C106.41 58.1898 106.461 58.2463 106.527 58.2792C106.898 58.2321 107.082 57.6249 107.265 57.6249C107.353 57.6411 107.434 57.6865 107.494 57.7539C107.553 57.8212 107.589 57.9066 107.594 57.9965C107.594 58.1378 107.406 58.2321 107.359 58.2792C107.138 58.3656 106.899 58.3962 106.663 58.3681C106.557 58.4078 106.461 58.4724 106.385 58.5566C106.338 58.834 106.616 58.834 106.804 59.0172C106.851 59.0643 106.48 59.3888 106.757 59.4359C106.91 59.3952 107.066 59.3637 107.223 59.3417C107.308 59.4652 107.417 59.5701 107.544 59.6502C107.671 59.7303 107.813 59.7838 107.961 59.8075C107.872 59.9017 106.914 59.9488 106.291 60.132C106.061 60.2262 106.014 60.0849 106.014 60.132C105.878 60.1791 106.108 59.8546 105.967 59.8075C105.925 59.7604 105.736 59.6662 105.784 59.5772C105.831 59.4882 105.689 59.1585 105.831 59.2527C106.48 59.7761 106.385 58.9753 106.354 58.834C106.323 58.6927 106.171 58.9753 106.03 58.8811C105.941 58.6927 105.893 58.834 105.893 58.6927C106.077 58.6456 106.265 58.5566 106.307 58.4153C106.354 58.3681 106.307 58.2321 106.265 58.1378C105.982 57.8604 105.658 58.185 105.616 58.0907C105.574 57.9965 105.244 57.9547 105.658 57.9075C106.077 57.7662 106.59 57.4417 106.354 57.023C106.265 56.8869 106.354 56.5624 106.124 56.5624C105.913 56.7093 105.735 56.8981 105.6 57.1172C105.506 57.1643 105.412 57.3056 105.318 57.2585C105.134 57.672 104.669 57.3475 104.533 57.7819C104.438 58.0593 104.297 58.1535 104.81 58.2478C105.04 58.2949 104.857 59.0329 104.904 59.1742C104.951 59.3719 104.981 59.5733 104.993 59.7761C104.904 59.9645 105.6 60.0535 105.6 60.242C105.284 60.3482 104.955 60.4099 104.622 60.4251C104.485 60.1948 104.344 59.8232 104.02 59.7761L103.742 60.1006C103.677 60.3907 103.661 60.6898 103.695 60.9852C103.623 61.0867 103.562 61.1955 103.512 61.3097C103.559 61.6342 103.235 61.9116 103.14 62.189C103.132 62.3046 103.154 62.4203 103.202 62.5254C103.251 62.6306 103.325 62.7219 103.418 62.791C103.695 62.791 103.973 62.5135 104.114 62.4193C104.161 62.1419 104.533 62.0948 104.533 61.7703C104.622 61.5871 104.533 61.0742 104.622 60.8439H104.857C105.087 60.8439 105.229 60.9852 105.459 60.8439C105.553 60.891 105.689 60.891 105.736 60.9381C106.108 60.9381 106.433 60.7968 106.663 60.7968C107.082 60.6607 107.636 60.6607 108.055 60.5665C108.247 60.4928 108.452 60.4607 108.657 60.4723V59.7133H108.568C108.521 59.7133 108.333 59.8546 108.38 59.483C108.427 59.2998 107.825 59.2056 108.055 58.5095C108.149 58.3681 108.333 58.321 108.38 58.2792C108.521 58.2321 108.568 58.1378 108.657 58.0907V57.7191V57.7453ZM108.657 58.4414V59.1376C108.616 59.1122 108.569 59.0961 108.521 59.0905C108.474 59.0433 108.333 58.813 108.38 58.7188C108.427 58.6246 108.474 58.4624 108.657 58.4153V58.4414Z" fill="#3E3A39"/>
<path fill-rule="evenodd" clip-rule="evenodd" d="M119.141 59.6819C119.16 59.5058 119.242 59.3425 119.371 59.2213C119.654 58.8497 120.208 58.7555 120.255 58.3368V58.2478C120.241 58.1355 120.209 58.0261 120.161 57.9233C119.924 57.7668 119.653 57.6699 119.371 57.6406C119.094 57.6848 118.827 57.7807 118.586 57.9233V58.7084C118.68 58.7084 118.769 58.6613 118.863 58.7084V58.9439C118.769 59.0329 118.769 59.3574 118.586 59.4045V59.9646C118.747 60.1126 118.86 60.306 118.91 60.5194C118.863 60.6607 118.727 60.6136 118.586 60.5194V62.4665C118.727 62.4194 119.005 62.4194 119.046 62.3304C119.277 62.1562 119.468 61.935 119.606 61.6813C119.741 61.3242 119.757 60.9336 119.654 60.5665C119.559 60.2053 119.235 60.0378 119.141 59.6819ZM118.586 57.9233C118.316 58.0377 118.065 58.193 117.843 58.3839C117.39 58.5988 116.925 58.7858 116.45 58.9439C116.356 59.08 116.686 59.3574 116.822 59.4045C116.868 59.4246 116.918 59.4308 116.968 59.4224C117.017 59.414 117.063 59.3914 117.099 59.3574C117.335 59.2684 117.377 59.1271 117.518 59.1742C117.549 59.9104 117.455 60.6465 117.241 61.3516C117.251 61.7781 117.187 62.2031 117.052 62.6078C117.052 62.702 117.005 62.8381 117.005 62.8852L116.963 63.0213C116.878 63.3887 116.815 63.761 116.775 64.1361L116.686 64.2303C116.679 64.5241 116.693 64.8179 116.728 65.1097C116.775 65.3452 116.822 65.7587 117.099 65.8058C117.706 65.8529 117.795 65.2824 118.078 64.9265C118.094 64.5836 118.062 64.2401 117.984 63.9058V62.6392C118.026 62.545 118.078 61.4772 118.167 61.5243C118.167 61.5243 118.35 61.5714 118.35 61.7075C118.35 61.8436 118.214 62.4508 118.586 62.4508V60.5037H118.539C118.539 60.4566 118.308 60.5508 118.308 60.4566C118.167 60.3205 118.308 60.1321 118.492 59.9332H118.586V59.4097C118.444 59.64 118.308 59.2737 118.261 59.2266C118.214 59.1794 118.167 58.9491 118.12 58.8078C118.261 58.7607 118.214 58.7136 118.308 58.7136C118.403 58.7207 118.499 58.7045 118.586 58.6665V57.9233Z" fill="#3E3A39"/>
<path fill-rule="evenodd" clip-rule="evenodd" d="M56.2015 56.9339C56.0602 56.8397 56.0602 56.9339 55.8299 57.0229H55.7357C55.6886 57.1171 55.3641 56.7926 55.2123 56.7926C55.0239 56.6513 54.558 56.7926 54.3748 56.8397C54.2812 56.8476 54.1884 56.8634 54.0974 56.8868V58.457C54.1916 58.4099 54.3277 58.3628 54.3277 58.457C54.3288 58.4925 54.3212 58.5277 54.3057 58.5596C54.2902 58.5915 54.2672 58.6191 54.2387 58.6402C54.1916 58.6873 54.1445 58.7345 54.0974 58.7345V59.4777C54.3938 59.5192 54.6959 59.4869 54.9767 59.3835C55.1353 59.3024 55.2773 59.1923 55.3955 59.059C55.3955 59.0119 55.5787 58.7816 55.5368 58.7345C55.5011 58.6695 55.4464 58.617 55.3799 58.5843C55.3134 58.5515 55.2384 58.54 55.1652 58.5513H54.7936C54.6993 58.5042 54.6051 58.5984 54.558 58.5042C54.469 57.9493 55.0239 58.1796 55.3013 58.0383C55.72 57.8551 55.72 57.808 55.8613 57.4835C55.9503 57.3055 56.2486 57.2113 56.2015 56.9339ZM54.1079 56.8868C53.9798 56.9564 53.8295 56.9733 53.6892 56.9339C53.4118 56.8868 53.5531 56.6094 53.4118 56.4105C53.506 56.1802 53.2704 55.9918 53.3175 55.7615C53.2286 55.6673 53.1343 55.437 53.0401 55.437L52.993 55.3899L52.8569 55.2957L52.5848 55.4945C52.4537 55.6488 52.3863 55.8472 52.3963 56.0494C52.4617 56.4946 52.4775 56.9458 52.4434 57.3945C52.4161 57.4427 52.3753 57.4817 52.326 57.5068C52.2766 57.5319 52.221 57.542 52.166 57.5358C52.0683 57.5455 51.9737 57.5758 51.8886 57.6248V58.321C51.8886 58.3099 51.893 58.2992 51.9009 58.2914C51.9087 58.2835 51.9194 58.2791 51.9305 58.2791C52.0247 58.232 52.0718 58.0907 52.2603 58.1378H52.3963C52.4304 58.3299 52.3912 58.5279 52.2864 58.6926C52.1914 58.8008 52.0583 58.8683 51.9148 58.881C51.9155 58.8869 51.915 58.8929 51.9133 58.8986C51.9115 58.9043 51.9085 58.9096 51.9046 58.9141C51.9006 58.9185 51.8957 58.9221 51.8903 58.9245C51.8848 58.9269 51.8789 58.9282 51.8729 58.9281V59.3416H52.009C52.009 59.3887 51.9619 59.4358 51.8729 59.4829V60.4094C52.009 60.3623 52.2446 60.132 52.3335 60.3204C52.2446 60.781 52.3806 61.1526 52.2864 61.5713C52.2864 62.1733 52.2864 62.7752 52.2864 63.4242C52.2834 64.0508 52.2043 64.6747 52.0509 65.2823C52.098 65.4184 52.0038 66.2087 52.1922 66.2558C52.4696 66.303 52.7941 65.9313 53.0715 65.8371C53.1186 65.5126 53.4432 65.4184 53.4432 65.0939C53.4537 64.9543 53.4377 64.814 53.3961 64.6804C53.6264 64.157 53.4432 63.7487 53.5374 63.241C53.5845 63.0055 53.4903 62.8223 53.6264 62.6391C53.6569 62.2201 53.6429 61.799 53.5845 61.3829C53.4907 60.8778 53.4907 60.3597 53.5845 59.8545C53.6079 59.7581 53.6599 59.6711 53.7337 59.6047C53.8075 59.5384 53.8996 59.496 53.998 59.4829H54.1393V58.7397C54.0451 58.7397 53.998 58.7397 53.9561 58.7868C53.9142 58.8339 53.8567 58.7397 53.8567 58.635H53.9038C53.9509 58.4989 53.9927 58.546 54.087 58.4989C54.087 58.4927 54.0882 58.4866 54.0905 58.4809C54.0929 58.4752 54.0964 58.47 54.1007 58.4656C54.1051 58.4612 54.1103 58.4578 54.116 58.4554C54.1217 58.453 54.1279 58.4518 54.1341 58.4518L54.1079 56.8868ZM51.8886 57.6248C51.7944 57.6248 51.7473 57.6719 51.7002 57.6719C51.5641 57.7661 51.4228 57.9964 51.2815 58.0436C51.1402 58.0907 51.0983 58.5094 50.957 58.6455C50.868 58.6926 50.6325 58.7397 50.6796 58.5565C50.7267 58.3733 50.5853 58.4152 50.6796 58.321C50.6325 57.9075 50.8209 57.4887 50.6325 57.2113C50.5435 57.2113 50.4493 56.9339 50.4022 57.0229C50.2608 56.9758 50.1247 56.8397 50.0305 56.8397C49.9834 56.9339 49.8944 56.9339 49.9363 57.0229L49.8944 57.5463C49.8944 57.5934 49.9834 57.5934 49.8944 57.6824C49.8944 57.8237 49.8002 57.965 49.8002 58.1011C49.8002 58.2372 49.6118 58.1953 49.5228 58.4256C49.2873 58.567 49.3344 59.0747 49.2873 59.2631C49.1983 59.3521 49.2873 59.5876 49.1512 59.5876V59.7237C49.1512 59.8179 49.057 59.865 49.1041 59.9121C49.1512 59.9592 49.0099 60.0482 48.9628 60.1424C48.9498 60.3424 48.982 60.5428 49.057 60.7286L49.3344 60.9642C49.5228 61.0532 49.6118 61.0061 49.8002 60.9642C50.0195 60.8149 50.2078 60.6248 50.355 60.4041L50.6796 60.6815C51.203 60.87 51.3757 60.4983 51.8415 60.4512L51.8886 60.4041V59.4829C51.7473 59.53 51.5641 59.53 51.5641 59.6242C51.3667 59.6896 51.1634 59.7352 50.957 59.7603C50.957 59.3887 51.517 59.3416 51.8886 59.3416V58.9281C51.7002 59.0171 51.2396 58.881 51.3652 58.8339C51.5537 58.5565 51.6897 58.3105 51.8886 58.3105V57.6248Z" fill="#3E3A39"/>
<path fill-rule="evenodd" clip-rule="evenodd" d="M70.2075 60.6868V60.4565C70.164 60.3852 70.1321 60.3075 70.1133 60.2262C70.0576 60.0302 70.0277 59.8279 70.0243 59.6242C69.8359 59.3887 69.9772 59.1008 69.883 58.7868C69.9301 58.6455 69.6056 57.7661 69.6527 57.7661C69.6927 57.3284 69.6447 56.887 69.5114 56.4681C69.3055 56.3267 69.0885 56.2024 68.8623 56.0965C68.721 56.0494 68.7681 56.0022 68.5378 56.0022C68.3075 56.0022 68.1662 55.9133 67.9359 55.8662C67.8417 55.7248 67.4701 55.6777 67.334 55.6777C67.2869 55.7719 67.0513 55.7719 66.9152 55.8191V56.5414L67.7946 56.4C68.721 56.5885 68.7681 56.8659 68.721 57.3736C68.8152 57.562 68.721 57.8394 68.8152 58.0226C68.8152 58.0697 68.8623 58.2581 68.8152 58.3471C68.9778 58.7447 69.0267 59.1796 68.9565 59.6033C68.7681 59.3678 68.721 58.9543 68.5378 58.813C68.3566 58.7959 68.1796 58.7481 68.0144 58.6716C67.7004 58.7158 67.3892 58.7787 67.0827 58.8601C66.9938 58.9543 67.0827 59.0433 67.1298 59.0904C67.2873 59.0963 67.4372 59.1597 67.551 59.2687C67.6649 59.3777 67.7348 59.5247 67.7475 59.6818C67.7475 59.776 67.7475 59.9645 67.6114 60.0063C67.4753 60.0482 67.6585 60.1476 67.6585 60.2419C67.6114 60.4251 67.6114 60.4251 67.4701 60.5193C67.443 60.5328 67.4131 60.5397 67.3828 60.5396C67.3525 60.5395 67.3227 60.5323 67.2957 60.5185C67.2688 60.5048 67.2454 60.4849 67.2275 60.4605C67.2096 60.4361 67.1977 60.4078 67.1927 60.378C67.0841 60.2516 66.9909 60.1128 66.9152 59.9645V62.5815C67.0513 62.4402 67.0984 62.0581 67.2398 61.8854C67.5172 61.8854 67.3758 62.1157 67.5643 62.257C67.6585 62.4873 68.1191 62.4873 68.2604 62.6757C68.3546 62.7176 68.3965 63.2305 68.6791 62.906C68.9094 62.6757 68.4907 62.2099 68.5378 61.7912C68.4907 61.4666 68.3546 61.744 68.2133 61.744C68.0989 61.7217 67.9937 61.6661 67.9108 61.5841C67.8279 61.5022 67.7711 61.3976 67.7475 61.2834C67.983 60.8647 68.2133 60.5402 67.8417 60.1215C68.2133 59.797 68.5378 60.1215 68.721 60.1215C68.8152 60.1215 68.9565 59.797 69.0926 59.8912C69.2728 60.9027 69.2887 61.9366 69.1397 62.9531C69.2811 63.0892 69.0508 63.1834 69.1397 63.3666C69.1719 63.5784 69.1352 63.7949 69.0351 63.9842C68.9879 64.3506 68.7524 64.5076 68.475 64.6804C68.3958 64.7914 68.2815 64.8725 68.1505 64.9107C68.0144 65.141 67.5015 64.7222 67.3183 64.9578C67.1351 65.1933 67.5957 65.3294 67.7789 65.3713C67.8601 65.4577 67.9656 65.5175 68.0814 65.5427C68.1973 65.568 68.3181 65.5575 68.4279 65.5126C68.6163 65.5126 68.7995 65.4655 69.0351 65.4655C69.2706 65.4655 69.5899 65.4184 69.726 65.1881C69.9615 65.0939 69.9615 64.6333 70.0505 64.3977C70.3331 63.5655 70.1447 63.0997 70.2389 62.3041C70.1447 62.1628 70.286 62.0686 70.2389 61.9743C70.2625 61.7289 70.2625 61.4818 70.2389 61.2363C70.2467 61.0484 70.2308 60.8603 70.1918 60.6763L70.2075 60.6868ZM66.9414 64.3925V63.5184C66.9829 63.4817 67.0286 63.4501 67.0775 63.4242C67.2188 63.3771 67.3601 63.4713 67.402 63.4713C67.5139 63.621 67.6383 63.7611 67.7736 63.89C67.8084 63.9543 67.8267 64.0263 67.8267 64.0994C67.8267 64.1725 67.8084 64.2445 67.7736 64.3088C67.6847 64.4919 67.2502 64.3977 66.9414 64.3977V64.3925ZM66.9414 55.8138C66.8943 55.8609 66.8472 55.8609 66.8001 55.908C66.6169 55.997 66.5227 55.8609 66.3395 55.997C66.3395 56.0441 66.104 56.0441 66.104 56.0441L66.015 56.1383V56.6984C66.0792 56.6998 66.1426 56.6835 66.1982 56.6513C66.3814 56.6513 66.6169 56.5623 66.8472 56.5623H66.9414V55.8191V55.8138ZM66.015 64.7118H66.0569C66.2453 64.6699 66.3395 64.4344 66.5803 64.4344C66.6965 64.3957 66.8194 64.3815 66.9414 64.3925V63.5184C66.753 63.5655 66.5698 63.6597 66.4756 63.6126C66.3814 63.5655 66.1982 63.6597 66.015 63.7016V64.7222V64.7118ZM66.015 63.3247C66.1982 63.2305 66.3814 63.1834 66.4285 63.0421C66.6169 62.906 66.753 62.7176 66.9519 62.5815V59.9016C66.7635 59.7603 66.7163 59.3782 66.5332 59.2055C66.5332 59.0642 66.8577 58.9752 66.9048 58.881C66.9173 58.881 66.9292 58.876 66.9381 58.8672C66.9469 58.8584 66.9519 58.8464 66.9519 58.8339V58.635C66.9048 58.5931 66.9048 58.546 66.8577 58.4989C66.7395 58.3656 66.5975 58.2555 66.4389 58.1744C66.3918 58.1273 66.1615 58.2215 66.0673 58.1744C66.0681 58.1685 66.0675 58.1625 66.0658 58.1568C66.064 58.1511 66.061 58.1458 66.0571 58.1413C66.0531 58.1369 66.0482 58.1333 66.0428 58.1309C66.0373 58.1285 66.0314 58.1272 66.0254 58.1273V59.8441C66.0673 59.8912 66.0673 59.9802 66.1144 60.0273C66.2557 60.0273 66.2086 60.1686 66.2557 60.2628C66.338 60.2982 66.4035 60.3638 66.4389 60.446C66.5332 60.5873 66.6745 60.5402 66.7635 60.9694C66.6745 61.1526 66.5332 61.1997 66.4389 61.3358C66.3037 61.3901 66.1657 61.4373 66.0254 61.4771V63.3457L66.015 63.3247ZM66.015 60.9118V60.6763C66.0569 60.7705 66.015 60.8176 66.015 60.9118ZM66.015 60.6763V60.3989C66.015 60.446 66.0569 60.446 66.0569 60.4931C65.9417 60.5507 66.0307 60.6449 65.9888 60.6868L66.015 60.6763ZM66.015 56.1331C65.7654 56.2974 65.5008 56.4376 65.2246 56.5518H65.0571L64.9682 56.6408C64.7326 56.5518 64.5494 56.735 64.4081 56.8292C64.0909 57.0609 63.737 57.2379 63.3613 57.3526C63.3194 57.3998 63.2252 57.5411 63.3194 57.5882C63.4394 57.6551 63.5746 57.6902 63.712 57.6902C63.8494 57.6902 63.9845 57.6551 64.1045 57.5882C64.2459 57.5882 64.429 57.494 64.5704 57.6772C64.6175 57.9598 64.6646 58.143 64.8949 58.2372C65.1723 58.4204 65.1723 58.3733 65.2665 58.6507V58.6978C65.1723 58.8862 64.7065 59.1636 64.6175 59.305C64.5704 59.2579 64.2459 59.5824 64.2459 59.5353C63.9552 59.6059 63.6519 59.6059 63.3613 59.5353C63.2252 59.3468 63.3613 59.1165 63.3613 58.9333C63.3613 58.7501 63.5497 58.1901 63.3613 58.0488C63.131 58.0017 62.9949 58.3733 62.8379 58.4675C62.8379 58.6088 62.6966 58.6978 62.7437 58.8391C62.6547 58.8862 62.6547 59.0694 62.6547 59.2107C62.5605 59.305 62.5605 59.7656 62.5134 59.9069C62.3721 60.1843 62.2831 60.4617 62.1418 60.692C62.0159 61.1145 61.9387 61.55 61.9114 61.9901C61.8936 62.1898 61.8231 62.3812 61.7073 62.5449C61.6602 62.8694 61.5712 63.3352 61.8015 63.5917C61.8957 63.7749 62.0789 63.8691 62.126 64.0523C62.3145 64.1465 62.3145 64.4239 62.5919 64.3768C62.7076 64.2918 62.8016 64.1806 62.8662 64.0524C62.9308 63.9241 62.9641 63.7824 62.9635 63.6388C63.0996 63.2201 62.7751 62.8013 62.8693 62.4297C62.9051 61.6329 63.0137 60.841 63.1938 60.0639C63.2363 60.0233 63.2904 59.9969 63.3485 59.9885C63.4067 59.98 63.466 59.9899 63.5183 60.0168L64.1202 60.111C64.3505 60.2052 64.1202 60.2994 64.1202 60.4355C64.0731 60.76 63.7957 60.6658 63.7015 60.9589C63.8317 61.1542 63.9885 61.3304 64.1673 61.4823C64.5861 61.4823 64.4919 61.252 64.8164 61.2049C64.9106 61.3881 64.6751 61.6237 64.5861 61.7598C64.539 61.7598 64.539 61.8069 64.4919 61.9011C64.3331 62.0205 64.1564 62.1141 63.9684 62.1785C63.8172 62.1458 63.6745 62.0816 63.5497 61.9901C63.5026 62.0372 63.3142 61.9482 63.2723 62.0372C63.131 62.2727 63.2723 62.3617 63.3613 62.5606C63.5968 62.7019 63.6387 62.9322 63.8847 63.084C64.1307 63.2358 64.2563 63.084 64.5337 63.2253C64.764 63.1782 65.1357 62.8537 65.4131 62.7595C65.5544 62.9479 65.1357 63.1782 65.0885 63.2829C64.9525 63.3771 64.9053 63.5603 64.764 63.6074C64.6279 63.8848 64.1621 63.7016 63.9789 63.8848C63.7957 64.068 63.6073 64.4082 63.6963 64.6751C63.9789 65.0415 64.2197 65.1357 65.0414 65.0415C65.325 64.875 65.6447 64.7798 65.9731 64.7641V63.7016C65.7376 63.7958 65.5073 63.8429 65.4497 63.6597C65.4968 63.5184 65.7271 63.4242 65.9731 63.3352V61.4771C65.8251 61.5191 65.684 61.5826 65.5544 61.6655C65.5073 61.4771 65.8789 61.2468 65.926 61.0584C65.9228 61.0336 65.9255 61.0084 65.9336 60.9848C65.9418 60.9612 65.9553 60.9398 65.9731 60.9223V60.6868V60.4094C65.9052 60.3084 65.8262 60.2153 65.7376 60.1319C65.4602 60.1319 65.277 60.1791 65.2142 60.0377C65.1514 59.8964 65.1671 59.8074 65.3084 59.7132C65.3484 59.6765 65.3962 59.6493 65.4483 59.6339C65.5004 59.6185 65.5553 59.6152 65.6089 59.6243C65.6624 59.6334 65.7132 59.6546 65.7573 59.6864C65.8014 59.7181 65.8376 59.7595 65.8632 59.8074C65.9103 59.8074 65.9103 59.8074 65.9574 59.8545V58.1378C65.756 58.0233 65.6062 57.836 65.5387 57.6143C65.3502 57.4783 64.9368 57.6615 64.7954 57.384C64.9368 57.0124 65.2613 57.1066 65.4916 56.8606C65.6748 56.8606 65.7219 56.7193 65.8632 56.7664C65.8632 56.7193 65.9103 56.7193 65.9574 56.6722L66.015 56.1331Z" fill="#3E3A39"/>
<path fill-rule="evenodd" clip-rule="evenodd" d="M109.819 61.0585C109.904 61.2494 109.921 61.4639 109.866 61.6657C109.697 61.7399 109.522 61.8011 109.343 61.8489C109.207 61.9431 108.741 62.1734 108.463 62.3147C108.186 62.456 108.139 62.4979 108.605 62.6392C109.009 62.599 109.411 62.5361 109.809 62.4508C110.133 62.4979 110.363 62.3147 110.599 62.545C110.735 62.6392 110.876 63.0684 110.782 63.1469C110.782 63.3772 110.411 63.2882 110.227 63.3772C109.876 63.3542 109.526 63.3087 109.181 63.2411C108.992 63.194 108.762 63.3353 108.484 63.3353C108.207 63.5656 108.39 63.9373 108.437 64.3089C108.484 64.3979 108.437 64.5392 108.437 64.6805C108.443 64.8803 108.399 65.0783 108.307 65.2559C108.215 65.4336 108.08 65.585 107.914 65.6959C107.82 65.743 107.725 65.8843 107.589 65.8843C107.459 65.9284 107.32 65.9427 107.184 65.9264C107.047 65.9101 106.915 65.8636 106.799 65.7901C106.591 65.7327 106.39 65.6556 106.197 65.5598C106.009 65.4185 105.501 65.5598 105.36 65.4185C105.313 65.3295 105.407 65.2353 105.407 65.1882C105.637 65.094 106.244 65.1411 106.427 65.0469C106.569 65.1411 106.982 64.9108 107.124 64.9579C107.26 64.7695 107.218 64.5392 107.218 64.2618C107.289 64.1531 107.334 64.0295 107.349 63.9006C107.365 63.7716 107.35 63.6409 107.307 63.5185C107.076 63.4243 106.26 63.7959 106.056 63.7017C105.705 63.6944 105.356 63.6646 105.009 63.6127C105.009 63.3772 104.548 63.3772 104.732 63.0527C104.732 63.0527 104.779 63.0998 104.779 63.0527C105.316 62.9788 105.859 62.9491 106.401 62.9637L107.097 62.8695C107.239 62.7753 107.05 62.6392 107.097 62.4508L107.192 62.3147C107.328 62.2676 107.61 62.2676 107.746 62.2205C107.818 62.2162 107.888 62.1972 107.952 62.1648C108.016 62.1324 108.072 62.0872 108.118 62.032C108.212 61.896 108.395 61.6657 108.024 61.6657C107.614 61.7183 107.211 61.8113 106.82 61.9431C106.59 62.1263 106.773 62.032 106.448 62.1263C106.195 62.0502 105.946 61.9575 105.705 61.8489C105.657 61.8178 105.616 61.7771 105.584 61.7294C105.553 61.6816 105.532 61.6278 105.522 61.5714C105.616 61.3359 105.982 61.4301 106.171 61.3359L106.218 61.383C106.951 61.3346 107.662 61.1102 108.291 60.7288C108.477 60.7524 108.665 60.7524 108.851 60.7288C109.217 60.8282 109.636 60.6869 109.819 61.0585Z" fill="#3E3A39"/>
<path fill-rule="evenodd" clip-rule="evenodd" d="M124.663 61.5242C124.704 61.6184 124.521 61.8958 124.338 62.0476C124.185 62.1894 123.987 62.2728 123.778 62.2831C123.689 62.3302 123.176 62.2831 123.129 62.3302C123.082 62.3773 123.082 62.4192 123.176 62.4663C123.27 62.5134 123.365 62.4663 123.454 62.5134C123.542 62.5605 123.689 62.9322 123.689 62.9793C123.548 63.1153 123.642 63.2567 123.548 63.3928C123.548 63.5812 123.27 64.2773 123.406 64.3663C123.589 64.4369 123.786 64.4613 123.981 64.4376C124.175 64.4139 124.361 64.3426 124.521 64.2302C124.752 64.2773 125.359 64.3663 125.495 64.2302C125.819 63.9528 125.636 63.3509 126.332 63.0682C126.515 63.0211 126.468 63.1625 126.563 63.2096C126.332 63.733 126.704 63.8586 126.61 64.136C126.69 64.2687 126.801 64.3801 126.934 64.4605C126.981 64.6489 127.075 64.8792 126.887 65.0153L126.515 65.1095L126.097 65.2509C125.787 65.2811 125.475 65.2652 125.17 65.2038C124.794 65.2017 124.419 65.2492 124.055 65.3451C123.746 65.3157 123.434 65.3298 123.129 65.3869C122.946 65.3869 122.715 65.1566 122.48 65.1095C122.297 64.8321 122.48 64.0889 122.527 63.7173L122.48 63.3928C122.344 63.4399 122.061 63.8115 121.925 63.9162C121.925 64.0523 121.742 64.0523 121.742 64.1936C121.459 64.3768 121.601 64.8897 121.182 64.9839C120.952 65.0258 120.627 64.9839 120.439 65.0258C120.303 64.9839 119.654 65.3555 119.606 65.1671C119.634 65.0522 119.68 64.9425 119.743 64.8426L119.978 64.471C120.058 64.4328 120.123 64.3681 120.161 64.2878C120.35 64.0523 120.533 64.0523 120.685 63.822C120.774 63.7748 120.962 63.4032 121.051 63.3614C121.239 63.1258 121.574 63.0316 121.47 62.7542C121.47 62.6181 121.192 62.6652 121.098 62.7123C121.013 62.7136 120.932 62.7451 120.868 62.8013C120.727 62.7542 120.172 63.0316 120.125 62.8955C119.989 62.6181 120.727 62.1052 120.868 61.8749C120.98 61.793 121.106 61.731 121.239 61.6917C121.475 61.7042 121.712 61.6722 121.936 61.5975C122.213 61.409 123.092 61.4561 123.375 61.2729C123.689 61.2939 124.516 61.3358 124.663 61.5242Z" fill="#3E3A39"/>
<path fill-rule="evenodd" clip-rule="evenodd" d="M81.9417 55.8191C81.9888 55.9133 81.9417 56.0494 82.0359 56.1436C82.098 56.2906 82.1144 56.453 82.083 56.6094C81.9888 56.7455 81.7114 56.8397 81.6643 56.8868C81.523 57.0229 81.5701 57.1171 81.3869 57.2114C81.1353 57.2322 80.8863 57.2777 80.6436 57.3474H80.5023C80.2581 57.5584 79.9457 57.6737 79.623 57.672C79.4817 57.672 79.4817 57.6249 79.4346 57.5359C79.6701 57.3474 79.8533 57.1643 80.1307 56.9758C80.2249 56.7926 80.272 56.7926 80.3191 56.6094C80.3662 56.4262 80.7379 56.1907 80.7379 56.0494C80.9211 55.9604 80.9211 55.9604 80.9682 55.8191C81.0153 55.6778 80.9682 55.4475 81.1514 55.4475C81.1514 55.3533 81.2456 55.3533 81.2927 55.3062C81.4337 55.3343 81.566 55.3955 81.6788 55.4847C81.7916 55.5738 81.8817 55.6884 81.9417 55.8191Z" fill="#3E3A39"/>
</g>
<defs>
<filter id="filter0_d_185_311" x="0" y="0" width="154" height="157" filterUnits="userSpaceOnUse" color-interpolation-filters="sRGB">
<feFlood flood-opacity="0" result="BackgroundImageFix"/>
<feColorMatrix in="SourceAlpha" type="matrix" values="0 0 0 0 0 0 0 0 0 0 0 0 0 0 0 0 0 0 127 0" result="hardAlpha"/>
<feOffset dy="16"/>
<feGaussianBlur stdDeviation="6.5"/>
<feColorMatrix type="matrix" values="0 0 0 0 0 0 0 0 0 0 0 0 0 0 0 0 0 0 0.03 0"/>
<feBlend mode="normal" in2="BackgroundImageFix" result="effect1_dropShadow_185_311"/>
<feBlend mode="normal" in="SourceGraphic" in2="effect1_dropShadow_185_311" result="shape"/>
</filter>
</defs>
</svg>
