<svg width="154" height="157" viewBox="0 0 154 157" fill="none" xmlns="http://www.w3.org/2000/svg">
<g filter="url(#filter0_d_185_294)">
<rect width="128" height="128" transform="translate(13)" fill="white"/>
<path fill-rule="evenodd" clip-rule="evenodd" d="M40.0638 59.9132C39.4191 59.9132 38.8962 59.4744 38.8962 58.9335C38.8962 58.3926 39.4191 57.9546 40.0638 57.9546C40.7085 57.9546 41.2305 58.3926 41.2305 58.9335C41.2305 59.4744 40.7085 59.9132 40.0638 59.9132ZM40.7528 55.4687C39.6195 55.0045 38.5702 55.6466 38.302 56.8123C38.1476 57.4797 38.0555 58.1705 38.0456 58.7357C38.033 59.487 38.1576 60.1038 38.2307 60.7196C38.2957 61.2569 38.4817 61.7644 38.8511 62.1626C39.2971 62.6448 39.8624 62.839 40.5135 62.6502C41.1618 62.4633 41.5908 62.0254 41.7398 61.3734C42.0955 59.8157 42.1091 58.249 41.7271 56.6922C41.5944 56.1477 41.3 55.6926 40.7528 55.4687Z" fill="#811F45"/>
<path fill-rule="evenodd" clip-rule="evenodd" d="M48.8192 64.8626C48.3912 65.2409 47.8656 65.3999 47.3121 65.4703C47.108 65.4965 46.8994 65.492 46.6926 65.4884C46.4362 65.4848 46.3603 65.6085 46.3513 65.855C46.3368 66.2938 46.3269 66.7399 46.2393 67.1679C46.0876 67.9093 45.5133 68.2768 44.8704 68.5549C44.5462 68.6958 44.2067 68.8096 43.8987 68.9794C43.4346 69.2367 43.3262 69.5952 43.4915 70.1045C43.7091 70.7727 44.0775 71.3597 44.529 71.8789C44.9923 72.4107 45.4853 72.93 46.0307 73.3733C46.7748 73.9802 47.583 74.5057 48.3568 75.0764C48.4878 75.1739 48.5835 75.3193 48.6946 75.443C48.5745 75.5469 48.4625 75.6633 48.3316 75.7509C48.1618 75.8665 47.9749 75.9559 47.7979 76.0607C47.2543 76.3821 46.745 76.3 46.2601 75.9315C45.3869 75.2696 44.5534 74.5635 43.8644 73.7065C43.0499 72.6952 42.3664 71.6026 42.0088 70.3438C41.8986 69.9564 41.8471 69.523 41.8941 69.1256C41.9952 68.2705 42.6111 67.8425 43.3569 67.5445C43.7082 67.4045 44.055 67.2339 44.3665 67.0217C44.8126 66.7173 44.8306 66.2207 44.7981 65.743C44.7927 65.6518 44.6058 65.5019 44.4992 65.4992C43.7904 65.4839 43.0797 65.4974 42.425 65.8306C42.3393 65.8739 42.2679 65.9453 42.1939 66.0076C41.9961 66.1719 41.793 66.1015 41.7343 65.8478C41.6277 65.3908 41.9799 64.589 42.3745 64.3091C42.7501 64.0427 43.1709 63.9921 43.6062 63.9903C43.8906 63.9894 44.1751 64.0047 44.4595 64.0228C44.7078 64.0391 44.8288 63.9397 44.8252 63.6842C44.8153 63.0936 44.8081 62.5022 44.8072 61.9116C44.8063 61.6506 44.7331 61.4303 44.5299 61.2551C43.9574 60.7603 44.0306 59.5837 44.7385 59.0653C45.3426 58.622 46.0641 58.6157 46.5879 59.0337C47.2127 59.5331 47.3356 60.4785 46.7757 61.0492C46.373 61.4592 46.3125 61.8953 46.3585 62.4182C46.3928 62.8074 46.3549 63.2038 46.3495 63.5975C46.345 63.9659 46.4091 64.0318 46.7667 64.0282C47.7329 64.0192 48.3288 63.4241 48.3316 62.4579C48.3343 61.6786 48.3117 60.8993 48.3325 60.121C48.3577 59.1412 47.8981 58.3782 47.2823 57.6919C46.8416 57.2016 46.3079 56.7925 45.9016 56.2787C45.1982 55.392 45.0663 54.3336 46.0759 53.5137C46.1644 53.4433 46.3251 53.3774 46.41 53.4117C46.4949 53.446 46.5626 53.6067 46.5752 53.7187C46.6222 54.1503 46.7612 54.5495 47.0195 54.8908C47.4412 55.4461 47.8819 55.9879 48.3298 56.5243C49.1009 57.4481 49.6436 58.4585 49.6165 59.7065L49.6174 63.0196C49.5949 63.7338 49.3709 64.3759 48.8192 64.8626ZM40.8448 64.5366C40.852 66.5783 40.843 68.6191 40.843 70.6598C40.843 72.2184 40.8493 73.777 40.8502 75.3347C40.8502 75.7257 40.6958 75.9315 40.3156 75.9839C40.0881 76.0155 39.8425 76.0074 39.6212 75.9523C39.4993 75.9225 39.372 75.7744 39.3169 75.6498C39.2528 75.5026 39.2465 75.3229 39.2465 75.1577C39.242 73.3914 39.2438 71.626 39.2438 69.8607H39.2411C39.2411 68.0556 39.2375 66.2505 39.2465 64.4463C39.2474 64.1754 39.1408 64.0318 38.8961 63.9379C37.9074 63.5578 37.3457 62.7911 37.0603 61.8077C36.719 60.6329 36.6188 59.4211 36.6612 58.2048C36.6937 57.2801 36.7985 56.3591 37.2744 55.5238C37.538 55.0615 37.9489 54.7725 38.3652 54.4745C38.6063 54.3011 38.8411 54.1043 39.0289 53.8767C39.1436 53.7377 39.1968 53.5227 39.2185 53.3358C39.2537 53.0333 39.2438 52.7254 39.2456 52.4193C39.2483 51.9091 39.5373 51.6057 40.0402 51.5948C40.5315 51.584 40.8222 51.8648 40.843 52.375C40.8493 52.543 40.8583 52.7119 40.8412 52.878C40.768 53.5778 41.0724 54.1007 41.653 54.4303C42.5731 54.9522 43.0337 55.7513 43.2368 56.7573C43.5944 58.5235 43.5105 60.2745 43.0273 61.9965C42.77 62.9112 42.156 63.5776 41.2674 63.9479C40.9875 64.0643 40.8439 64.216 40.8448 64.5366ZM38.3227 65.9254C38.302 66.1223 38.1466 66.2135 37.9832 66.0672C37.4324 65.5769 36.7596 65.5227 36.077 65.5028C35.248 65.4784 35.2959 65.4098 35.3302 66.2785C35.3483 66.7435 35.6354 67.0226 35.9939 67.2212C36.3605 67.4244 36.775 67.5427 37.1461 67.7404C38.199 68.2985 38.3841 69.0317 38.1566 70.0919C37.9778 70.9244 37.594 71.6721 37.1488 72.4044C36.2892 73.8185 35.1415 74.9373 33.843 75.9315C33.2054 76.4192 32.6149 76.2611 32.0126 75.9017C31.8356 75.797 31.6658 75.6769 31.5033 75.5496C31.3516 75.4295 31.3642 75.3202 31.5322 75.2019C32.4144 74.5797 33.3264 73.9919 34.1608 73.3092C35.1315 72.5146 35.9587 71.5737 36.4915 70.4124C36.5691 70.2436 36.6278 70.063 36.673 69.8824C36.7551 69.5564 36.6197 69.2033 36.2901 69.029C35.8837 68.8132 35.4458 68.657 35.0268 68.4646C34.2349 68.0998 33.7689 67.5138 33.7843 66.6027C33.7888 66.367 33.7599 66.1313 33.7617 65.8947C33.7635 65.6166 33.6551 65.4766 33.3599 65.4784C32.7964 65.483 32.2483 65.4188 31.729 65.157C31.1385 64.8599 30.7421 64.4039 30.6147 63.7664C30.5136 63.258 30.4703 62.7315 30.4603 62.2123C30.4441 61.3066 30.463 60.3991 30.4865 59.4934C30.51 58.5759 30.8378 57.7632 31.3994 57.0453C31.9087 56.3961 32.4542 55.7739 32.9336 55.1048C33.2389 54.6786 33.5116 54.2172 33.5414 53.6555C33.5576 53.3503 33.7635 53.288 34.0136 53.4902C34.8931 54.2018 34.9518 55.2439 34.2484 56.1947C33.9414 56.6092 33.5648 56.9821 33.1775 57.3271C32.2591 58.1452 31.739 59.1286 31.7616 60.3819C31.7751 61.1097 31.6911 61.8475 31.7751 62.5654C31.8979 63.6183 32.4415 64.0698 33.5079 64.0318C33.7527 64.0228 33.7807 63.8485 33.7807 63.6571L33.7653 62.2394C33.8123 61.7698 33.6958 61.3951 33.321 61.061C32.9174 60.7025 32.8795 59.9069 33.1567 59.4058C33.4149 58.9398 34.0145 58.696 34.5735 58.7439C35.6643 58.8387 36.1167 59.9458 35.8548 60.7558C35.7989 60.9273 35.6634 61.0709 35.5848 61.2371C35.4837 61.4511 35.3401 61.6705 35.3248 61.8944C35.2869 62.4534 35.313 63.0169 35.3076 63.5785C35.304 63.9695 35.3519 64.0129 35.7402 64.0065C36.1519 64.0002 36.5691 63.9731 36.9746 64.0264C38.0482 64.1673 38.4212 64.9998 38.3227 65.9254ZM53.0127 64.3271H53.01C53.01 61.0239 53.0028 57.7199 53.0145 54.4167C53.0181 53.5056 52.8854 52.6288 52.4781 51.8143C52.2289 51.3158 51.9688 50.8101 51.6284 50.3758C51.0992 49.7022 50.4699 49.1098 49.6689 48.7639C49.0865 48.5129 48.4941 48.2456 47.8783 48.1237C47.2398 47.9973 46.568 48.009 45.9097 48.0072C42.0024 47.9973 38.0952 48.0027 34.187 48C32.9869 47.9991 31.8049 48.0416 30.687 48.5933C30.1813 48.8434 29.728 49.1504 29.2828 49.4809C28.7808 49.8548 28.3762 50.3243 28.0782 50.8661C27.7712 51.4224 27.4543 51.9922 27.2791 52.5963C27.0488 53.3873 26.9982 54.219 27 55.0533C27.0109 60.586 27.0055 66.1178 27.0073 71.6504C27.0082 72.3204 27.0515 72.9932 27.0181 73.6614C26.9594 74.8606 27.1788 75.9929 27.7559 77.0422C28.0114 77.5055 28.2679 77.9958 28.6354 78.3615C29.2846 79.0071 29.9872 79.5923 30.8721 79.9426C31.5105 80.1955 32.139 80.3932 32.8244 80.3941C37.5588 80.3996 42.2932 80.4014 47.0267 80.4086C48.3117 80.4113 49.4431 79.9562 50.4608 79.2212C51.1236 78.7426 51.6726 78.1439 52.0871 77.4206C52.665 76.4119 53.0217 75.3572 53.0172 74.1788C53.0037 70.8955 53.0127 67.6113 53.0127 64.3271Z" fill="#811F45"/>
<path d="M79.1355 52.6577C79.0831 52.6342 79.0325 52.6161 78.9856 52.59C78.9142 52.5502 78.842 52.5096 78.7761 52.4599C78.6921 52.3994 78.674 52.3109 78.7102 52.217C78.7354 52.1529 78.7734 52.0933 78.8059 52.0319C78.8176 52.0102 78.8357 51.9985 78.8628 52.0003C79.1282 52.0202 79.3793 52.0807 79.5752 52.2766C79.7035 52.4048 79.7631 52.5647 79.7703 52.7453C79.7721 52.7859 79.7757 52.8274 79.7847 52.8672C79.8263 53.0559 79.7865 53.2266 79.6728 53.381C79.587 53.4975 79.475 53.5851 79.3531 53.66C79.3079 53.6889 79.2574 53.7106 79.2113 53.7395C79.0939 53.8117 78.9684 53.8162 78.8384 53.7828C78.7959 53.772 78.7535 53.7602 78.7129 53.744C78.6325 53.7115 78.6162 53.6609 78.6596 53.5842C78.6695 53.567 78.6831 53.5508 78.6948 53.5336C78.7788 53.409 78.8628 53.2853 78.9458 53.1598C78.9585 53.1408 78.9657 53.1182 78.9738 53.0965C79.0208 52.9737 79.0668 52.85 79.1138 52.7263C79.121 52.7055 79.1273 52.683 79.1355 52.6577ZM85.4276 54.1729C85.4411 54.0826 85.4592 53.9869 85.4682 53.8894C85.4763 53.8081 85.5097 53.744 85.5612 53.6826C85.6416 53.5878 85.7147 53.4875 85.7933 53.3909C85.8213 53.3566 85.833 53.3223 85.8339 53.278C85.8393 53.0685 85.8484 52.8591 85.8556 52.6496C85.8565 52.6243 85.861 52.599 85.8646 52.5629C85.926 52.5593 85.9838 52.5547 86.0425 52.5529C86.1355 52.5484 86.2276 52.5566 86.3179 52.5836C86.4841 52.6342 86.6033 52.739 86.6719 52.897C86.7505 53.0776 86.7631 53.2681 86.7225 53.4595C86.689 53.6194 86.6502 53.7774 86.6114 53.9354C86.5987 53.9851 86.5807 54.0348 86.5572 54.0799C86.5346 54.1242 86.4967 54.1476 86.4416 54.1377C86.4209 54.1341 86.3956 54.1377 86.3766 54.1467C86.3017 54.181 86.2276 54.2172 86.1554 54.2578C86.0904 54.2957 86.0226 54.3138 85.9486 54.3075C85.7752 54.2912 85.6082 54.2497 85.4447 54.191C85.4411 54.1892 85.4375 54.1838 85.4276 54.1729ZM88.6422 60.9707C88.5601 60.9716 88.4896 60.9499 88.4363 60.8822C88.3749 60.8027 88.3117 60.7251 88.2485 60.6456C88.2395 60.6339 88.2305 60.6212 88.2214 60.6077C88.1311 60.4686 88.0273 60.344 87.89 60.2438C87.7483 60.1399 87.6291 60.009 87.5352 59.8582C87.4801 59.7697 87.4412 59.674 87.4295 59.5692C87.4196 59.4934 87.4196 59.4175 87.5081 59.3787C87.5189 59.3742 87.527 59.3543 87.5288 59.3408C87.5379 59.2749 87.5785 59.2342 87.6327 59.2044C87.7401 59.1457 87.8584 59.134 87.9767 59.1286C87.9975 59.1277 88.021 59.1421 88.039 59.1557C88.207 59.2767 88.3767 59.3949 88.5402 59.5205C88.6215 59.5837 88.691 59.6622 88.7677 59.7309C88.8391 59.795 88.9104 59.8591 88.9863 59.9178C89.0305 59.9521 89.0829 59.9756 89.1308 60.0054C89.1569 60.0207 89.1894 60.0352 89.2048 60.0587C89.277 60.1688 89.333 60.2898 89.2924 60.4226C89.249 60.5652 89.1876 60.7025 89.1308 60.8416C89.1253 60.8569 89.1046 60.8732 89.0874 60.8768C88.9646 60.9075 88.8418 60.9346 88.719 60.9617C88.6937 60.9671 88.6675 60.9671 88.6422 60.9707ZM86.1436 59.6144C86.1843 59.5882 86.2258 59.5575 86.2701 59.5322C86.3134 59.5087 86.3333 59.4717 86.3387 59.4275C86.3441 59.3913 86.3459 59.3543 86.3441 59.3191C86.3387 59.2487 86.308 59.2116 86.2403 59.1909C86.14 59.1602 86.0479 59.1963 85.9531 59.2243C85.9423 59.3182 85.9323 59.4076 85.9242 59.4871C86.001 59.5313 86.0678 59.5701 86.1436 59.6144ZM86.0551 56.1135C86.1554 56.1008 86.2412 56.09 86.3278 56.0791C86.4118 56.0692 86.4786 56.0331 86.5139 55.9509C86.5193 55.9365 86.5292 55.9238 86.5391 55.9121C86.5689 55.8796 86.568 55.8426 86.559 55.8028C86.5401 55.7198 86.522 55.6367 86.5039 55.5536C86.4967 55.5202 86.4895 55.4868 86.4795 55.4434C86.457 55.4696 86.4425 55.4841 86.4299 55.4994C86.3468 55.6024 86.2692 55.7089 86.1807 55.8073C86.1057 55.8913 86.0822 55.9906 86.0551 56.1135ZM85.6578 57.5339C85.842 57.5339 86.019 57.5348 86.1969 57.5339C86.2493 57.5339 86.2845 57.505 86.3017 57.4571C86.3342 57.3668 86.3477 57.2747 86.345 57.179C86.066 57.1402 85.7237 57.2765 85.6578 57.5339ZM86.4768 57.952C86.1527 58.1398 85.8393 58.3213 85.5206 58.5064C85.5413 58.5678 85.5603 58.6256 85.5802 58.687C85.6578 58.687 85.731 58.6843 85.8023 58.6879C85.9188 58.6933 86.0118 58.64 86.0949 58.5687C86.1635 58.5091 86.2366 58.4703 86.3297 58.4676C86.4091 58.4658 86.4859 58.4423 86.5662 58.4089C86.5373 58.2599 86.5084 58.1136 86.4768 57.952ZM84.9255 56.7257C84.9336 56.5884 84.9417 56.4494 84.949 56.3103C84.9607 56.1135 84.9652 55.9166 84.986 55.7207C85.0004 55.5825 85.0375 55.447 85.0655 55.3098C85.0799 55.2394 85.0953 55.1689 85.1133 55.0877C85.1341 55.1102 85.1503 55.1247 85.1639 55.1418C85.284 55.2872 85.4366 55.3694 85.6244 55.3802C85.7138 55.3856 85.7951 55.3703 85.87 55.3098C86.047 55.1662 86.2303 55.0308 86.4091 54.8899C86.4452 54.8619 86.4723 54.8231 86.5066 54.7924C86.5581 54.7463 86.6087 54.6958 86.6683 54.6623C86.8236 54.5757 86.9952 54.5341 87.1712 54.5179C87.3473 54.5025 87.4945 54.5711 87.6083 54.7075C87.695 54.8095 87.7492 54.9296 87.7826 55.0597C87.7889 55.084 87.788 55.1102 87.7889 55.1364C87.7889 55.2601 87.7889 55.3847 87.788 55.5094C87.788 55.606 87.7979 55.7008 87.8313 55.792C87.8422 55.82 87.8458 55.8516 87.8494 55.8823C87.8575 55.9383 87.872 55.9536 87.9262 55.932C87.9821 55.9094 88.0381 55.8796 88.0869 55.8417C88.2747 55.6945 88.4734 55.5653 88.6883 55.4606C88.9005 55.3558 89.1217 55.2791 89.3547 55.2412C89.4513 55.2249 89.5497 55.2222 89.6473 55.2484C89.7728 55.2827 89.8604 55.3613 89.9127 55.4787C89.9579 55.5807 89.9687 55.6881 89.9651 55.7983C89.9642 55.8272 89.9525 55.8471 89.929 55.8624C89.8378 55.9238 89.743 55.9717 89.6274 55.9654C89.5579 55.9609 89.4874 55.9672 89.4179 55.9636C89.3583 55.959 89.3059 55.9735 89.2572 56.006C89.1876 56.0521 89.1154 56.0927 89.0513 56.1442C88.6802 56.444 88.2846 56.7094 87.8964 56.9848C87.7934 57.058 87.6896 57.1311 87.5848 57.2016C87.5514 57.2241 87.5343 57.2503 87.5279 57.2883C87.4927 57.4851 87.4566 57.6811 87.4214 57.877C87.4205 57.8833 87.4223 57.8915 87.4232 57.905C87.4476 57.8978 87.4692 57.8924 87.49 57.8851C87.7564 57.7876 88.0273 57.7009 88.2883 57.5899C88.5546 57.4761 88.8319 57.4526 89.1136 57.4463C89.2924 57.4418 89.4721 57.4427 89.6473 57.4761C89.7303 57.4914 89.8143 57.5149 89.8902 57.551C90.0328 57.6179 90.0753 57.7298 90.0238 57.8788C89.9832 57.9935 89.9218 58.0937 89.8188 58.1642C89.7746 58.194 89.7276 58.2048 89.6726 58.1976C89.5389 58.1795 89.4053 58.1669 89.2716 58.1569C89.0504 58.1398 88.8282 58.128 88.607 58.1127C88.3587 58.0946 88.1185 58.1163 87.8855 58.2138C87.6191 58.3258 87.3663 58.4585 87.1496 58.6527C87.1153 58.6834 87.0837 58.7177 87.052 58.752C86.9762 58.8324 86.9356 58.929 86.9356 59.0401C86.9365 59.3272 86.9365 59.6153 86.9419 59.9024C86.9455 60.1228 86.9545 60.3431 86.9645 60.5625C86.9753 60.8009 86.9897 61.0384 87.0024 61.2759C87.0042 61.3048 87.0024 61.3328 87.0024 61.3671C86.913 61.3662 86.8263 61.377 86.7441 61.3635C86.6511 61.3481 86.5599 61.3129 86.4705 61.2813C86.4488 61.2741 86.4299 61.2515 86.4181 61.2298C86.3667 61.1377 86.3152 61.0447 86.2682 60.949C86.2204 60.8506 86.159 60.7621 86.0831 60.6835C86.0362 60.6348 85.9793 60.5878 85.9567 60.5291C85.9341 60.4695 85.9495 60.3964 85.9477 60.3286C85.9459 60.2356 85.9459 60.1426 85.9414 60.0496C85.9323 59.879 85.8276 59.8049 85.6623 59.8058C85.6109 59.8067 85.5603 59.823 85.5097 59.8284C85.4637 59.8329 85.4492 59.86 85.442 59.8988C85.4294 59.9629 85.405 60.0252 85.4023 60.0894C85.3987 60.1706 85.4104 60.2537 85.4167 60.3359C85.4185 60.353 85.4239 60.3702 85.4285 60.3937C85.4655 60.3873 85.5016 60.3837 85.535 60.3756C85.5657 60.3684 85.591 60.3738 85.6136 60.3946C85.6253 60.4054 85.638 60.4144 85.6506 60.4235C85.6967 60.4569 85.7454 60.4876 85.7526 60.5526C85.7635 60.6402 85.7436 60.7224 85.703 60.7991C85.6948 60.8145 85.6777 60.8244 85.6623 60.8343C85.4077 60.996 85.1521 61.1603 84.8948 61.3183C84.8271 61.3599 84.7503 61.3861 84.6781 61.4195C84.6257 61.4429 84.5796 61.4276 84.5435 61.3888C84.5101 61.3536 84.4767 61.3156 84.4541 61.2723C84.4036 61.1739 84.3593 61.0718 84.3151 60.9698C84.3042 60.9454 84.3024 60.9147 84.3015 60.8867C84.3006 60.7783 84.3042 60.6691 84.3015 60.5598C84.2997 60.4984 84.3124 60.4406 84.3431 60.3892C84.3891 60.3115 84.437 60.2347 84.4884 60.1598C84.5074 60.1318 84.5146 60.1047 84.5074 60.0731C84.4911 59.9891 84.474 59.906 84.4559 59.8185C84.3548 59.8076 84.2582 59.8221 84.1652 59.851C84.1336 59.86 84.1029 59.8889 84.0803 59.9169C84.0397 59.9693 84.0044 60.027 83.9683 60.0839C83.9539 60.1047 83.943 60.1282 83.9322 60.149C83.8302 60.1399 83.7326 60.1318 83.6351 60.1237C83.6026 60.1219 83.5818 60.1047 83.5728 60.0749C83.562 60.0379 83.5493 60 83.5484 59.962C83.5466 59.8013 83.5475 59.6406 83.5511 59.4807C83.552 59.4555 83.5674 59.4247 83.5854 59.4058C83.6622 59.3254 83.7408 59.2469 83.8211 59.1701C83.8455 59.1466 83.8762 59.1304 83.9033 59.1123C84.1968 58.9236 84.4921 58.7358 84.7846 58.5452C84.8424 58.5073 84.911 58.4685 84.9417 58.4116C84.9697 58.3583 84.9544 58.2807 84.9562 58.2138C84.958 58.1542 84.9553 58.0946 84.9571 58.035C84.9607 57.9565 84.9246 57.8951 84.8722 57.8427C84.8334 57.8039 84.7855 57.7858 84.7313 57.7912C84.6772 57.7957 84.623 57.8084 84.5688 57.8057C84.4171 57.7994 84.2645 57.7903 84.1137 57.7759C84.0008 57.765 83.8979 57.7217 83.813 57.644C83.7426 57.5799 83.6685 57.5185 83.6044 57.4481C83.4906 57.3262 83.4428 57.1781 83.4617 57.0119C83.5006 56.6805 83.5412 56.3491 83.5818 56.0177C83.59 55.9482 83.5909 55.9491 83.6622 55.9419C83.711 55.9374 83.7606 55.9329 83.8085 55.9256C83.9024 55.9103 83.9719 55.95 84.018 56.0268C84.0541 56.0882 84.0875 56.155 84.1047 56.2236C84.1299 56.3184 84.1444 56.4169 84.1543 56.5135C84.1706 56.6832 84.2645 56.7808 84.4343 56.8015C84.567 56.8178 84.7855 56.7862 84.9255 56.7257ZM106.644 53.1561C106.733 53.1607 106.818 53.1598 106.903 53.1697C107.118 53.1941 107.331 53.2338 107.537 53.3069C107.75 53.3819 107.947 53.4866 108.109 53.6501C108.326 53.8677 108.432 54.1314 108.428 54.4402C108.427 54.4935 108.412 54.5359 108.369 54.5684C108.326 54.6009 108.285 54.6371 108.24 54.666C108.172 54.7102 108.101 54.7283 108.02 54.6985C107.975 54.6822 107.924 54.6795 107.875 54.6768C107.705 54.6669 107.535 54.6596 107.364 54.6515C107.215 54.6452 107.074 54.6073 106.936 54.554C106.91 54.5431 106.885 54.5296 106.861 54.5142C106.836 54.498 106.826 54.4763 106.826 54.4429C106.827 54.3291 106.823 54.2154 106.819 54.1016C106.815 53.9932 106.757 53.9101 106.682 53.8406C106.627 53.79 106.591 53.7304 106.555 53.6672C106.534 53.6293 106.532 53.595 106.542 53.5553C106.576 53.4252 106.609 53.2952 106.644 53.1561ZM107.861 56.2886C107.803 56.2146 107.747 56.1424 107.695 56.0746C107.584 56.1135 107.509 56.1758 107.447 56.2597C107.383 56.3437 107.313 56.4232 107.245 56.5054C107.146 56.6255 107.048 56.7447 106.948 56.8666C106.998 56.8991 107.023 56.9406 107.015 56.9993C107.011 57.0282 107.025 57.0508 107.056 57.0553C107.127 57.0643 107.199 57.0724 107.278 57.0616C107.301 56.9036 107.416 56.8061 107.517 56.7004C107.52 56.6959 107.524 56.6923 107.528 56.6887C107.643 56.5631 107.768 56.4458 107.861 56.2886ZM106.906 59.6604C106.94 59.664 106.968 59.6668 106.995 59.6686C107.09 59.6767 107.186 59.6803 107.28 59.692C107.388 59.7065 107.48 59.7616 107.567 59.8212C107.606 59.8474 107.616 59.8781 107.603 59.9205C107.57 60.037 107.543 60.1562 107.502 60.27C107.431 60.4713 107.441 60.7684 107.501 60.9319C107.518 60.9346 107.538 60.94 107.557 60.94C107.692 60.9409 107.826 60.9445 107.961 60.94C108.016 60.9382 108.073 60.9246 108.126 60.9084C108.24 60.8723 108.351 60.8307 108.463 60.7928C108.49 60.7829 108.517 60.772 108.545 60.7693C108.616 60.7621 108.648 60.7196 108.665 60.6564C108.691 60.5634 108.682 60.4704 108.667 60.3792C108.64 60.2149 108.602 60.0541 108.574 59.8907C108.558 59.7968 108.551 59.7011 108.543 59.6063C108.537 59.5295 108.514 59.4609 108.483 59.3913C108.394 59.2062 108.326 59.0121 108.304 58.808C108.29 58.6753 108.347 58.5552 108.418 58.4324C108.504 58.4558 108.589 58.4793 108.676 58.5028C108.762 58.5281 108.849 58.5534 108.939 58.5804C108.946 58.6319 108.947 58.6834 108.961 58.7331C108.996 58.873 109.029 59.0148 109.078 59.1502C109.108 59.2315 109.158 59.3074 109.21 59.3778C109.38 59.6135 109.583 59.8221 109.79 60.0252C109.911 60.1453 110.036 60.2618 110.159 60.3801C110.169 60.3891 110.181 60.3964 110.187 60.4072C110.285 60.5761 110.358 60.7522 110.308 60.9526C110.286 61.042 110.23 61.1106 110.153 61.1585C110.105 61.1883 110.052 61.2154 109.999 61.2307C109.88 61.2651 109.759 61.2921 109.639 61.3201C109.614 61.3265 109.587 61.3256 109.562 61.3238C109.412 61.3174 109.262 61.312 109.112 61.303C109.034 61.2976 108.959 61.3048 108.882 61.3219C108.635 61.3779 108.388 61.4285 108.142 61.4836C108.089 61.4953 108.038 61.5152 107.989 61.5378C107.814 61.6217 107.636 61.694 107.447 61.7427C107.295 61.7825 107.142 61.7897 106.997 61.7418C106.889 61.7057 106.781 61.6786 106.674 61.6434C106.61 61.6226 106.585 61.5811 106.582 61.5161C106.576 61.3752 106.598 61.2371 106.629 61.1007C106.691 60.8253 106.758 60.5517 106.823 60.2772C106.829 60.2546 106.832 60.232 106.838 60.2004C106.73 60.1959 106.628 60.1887 106.525 60.1878C106.507 60.1878 106.485 60.2086 106.471 60.2248C106.312 60.3964 106.157 60.5697 105.998 60.7395C105.75 61.0041 105.498 61.2642 105.222 61.5007C105.149 61.563 105.07 61.6172 104.994 61.6741C104.978 61.685 104.962 61.6922 104.946 61.7003C104.819 61.7617 104.731 61.7129 104.72 61.5721C104.71 61.4429 104.741 61.3192 104.771 61.1964C104.791 61.1125 104.829 61.0384 104.882 60.968C105.121 60.6429 105.357 60.3151 105.595 59.9891C105.629 59.9422 105.657 59.8934 105.666 59.8365C105.686 59.7345 105.711 59.6333 105.72 59.5304C105.729 59.4365 105.694 59.3471 105.648 59.2658C105.612 59.1999 105.569 59.1385 105.526 59.0762C105.485 59.0157 105.466 58.9498 105.479 58.8775C105.493 58.7908 105.508 58.7042 105.528 58.6184C105.543 58.5579 105.582 58.5227 105.646 58.5091C105.694 58.4983 105.743 58.4766 105.788 58.454C105.846 58.4251 105.9 58.398 105.965 58.4369C106.072 58.3249 106.176 58.2165 106.28 58.1082C106.299 58.0874 106.316 58.0639 106.338 58.0468C106.388 58.0088 106.394 57.9601 106.371 57.9086C106.339 57.8382 106.309 57.765 106.265 57.7036C106.197 57.607 106.093 57.5899 105.991 57.6467C105.941 57.6747 105.891 57.7027 105.844 57.7361C105.818 57.7542 105.796 57.7813 105.777 57.8084C105.592 58.0775 105.41 58.3475 105.227 58.6175C105.211 58.6409 105.194 58.6626 105.175 58.6897C105.086 58.613 105.001 58.5416 104.918 58.4676C104.897 58.4495 104.884 58.4224 104.869 58.398C104.742 58.1876 104.616 57.9763 104.489 57.7659C104.474 57.7416 104.459 57.7172 104.442 57.691C104.334 57.6928 104.225 57.6946 104.117 57.6964C104.102 57.6964 104.085 57.7018 104.071 57.6991C103.999 57.6874 103.951 57.7208 103.906 57.775C103.783 57.9276 103.692 58.0973 103.612 58.2752C103.456 58.6265 103.343 58.9931 103.254 59.3652C103.182 59.6649 103.122 59.9665 103.061 60.2681C103.041 60.372 103.035 60.4785 103.023 60.5842C103.014 60.6718 103.005 60.7594 102.999 60.847C102.99 60.9707 102.928 61.061 102.83 61.1305C102.715 61.2109 102.585 61.2488 102.448 61.2696C102.308 61.2903 102.175 61.2651 102.045 61.219C102.001 61.2037 101.967 61.182 101.957 61.1305C101.952 61.1034 101.936 61.0772 101.921 61.0538C101.885 60.9924 101.859 60.9291 101.863 60.856C101.864 60.8397 101.855 60.8217 101.849 60.8054C101.845 60.7964 101.838 60.7883 101.831 60.7811C101.745 60.6917 101.708 60.5824 101.681 60.4641C101.644 60.3007 101.592 60.1399 101.549 59.9774C101.532 59.9124 101.512 59.8474 101.508 59.7805C101.5 59.6767 101.558 59.627 101.657 59.6568C101.717 59.674 101.755 59.655 101.784 59.6126C101.82 59.562 101.854 59.5096 101.876 59.4518C101.934 59.3019 101.972 59.1457 101.981 58.9841C102.007 58.5416 102.032 58.0991 102.053 57.6567C102.059 57.5248 102.091 57.402 102.145 57.2828C102.18 57.2025 102.212 57.1203 102.239 57.0372C102.267 56.9514 102.321 56.8955 102.402 56.862C102.458 56.8386 102.516 56.8142 102.57 56.7853C102.604 56.7681 102.636 56.76 102.674 56.7663C102.74 56.7781 102.808 56.7826 102.873 56.7979C102.911 56.807 102.951 56.825 102.985 56.8485C103.086 56.9207 103.197 56.9478 103.32 56.9451C103.409 56.9433 103.5 56.9523 103.597 56.9569C103.598 56.9361 103.601 56.9207 103.599 56.9072C103.578 56.7943 103.547 56.686 103.457 56.6038C103.412 56.5632 103.398 56.5072 103.401 56.4485C103.405 56.3726 103.412 56.2986 103.417 56.2236C103.426 56.0864 103.442 55.9491 103.444 55.8128C103.446 55.6439 103.483 55.485 103.543 55.3288C103.576 55.2421 103.607 55.1536 103.632 55.0642C103.655 54.9802 103.653 54.8935 103.618 54.8131C103.599 54.7716 103.57 54.7355 103.542 54.6921C103.523 54.7075 103.512 54.7138 103.505 54.7228C103.404 54.8511 103.302 54.9784 103.206 55.1093C103.166 55.1635 103.14 55.224 103.126 55.2926C103.118 55.3396 103.087 55.3902 103.05 55.4236C102.963 55.5075 102.871 55.5879 102.773 55.6602C102.685 55.7261 102.586 55.7803 102.492 55.8389C102.417 55.8859 102.333 55.9031 102.247 55.9013C102.09 55.8985 101.932 55.9049 101.779 55.8525C101.716 55.8317 101.648 55.8245 101.579 55.8101C101.551 55.68 101.555 55.5509 101.573 55.4236C101.582 55.364 101.609 55.3531 101.691 55.3586C101.725 55.1184 101.854 54.9251 102.003 54.7445C102.325 54.3544 102.696 54.0185 103.14 53.7693C103.18 53.7467 103.218 53.7359 103.264 53.7395C103.378 53.7467 103.492 53.753 103.606 53.7548C103.652 53.7566 103.69 53.7702 103.727 53.7982C103.803 53.856 103.88 53.9119 103.956 53.9688C104.067 54.051 104.143 54.1621 104.21 54.2795C104.223 54.3029 104.232 54.3327 104.231 54.3589C104.22 54.61 104.207 54.861 104.196 55.112C104.195 55.1463 104.183 55.1707 104.16 55.1933C104.121 55.2321 104.087 55.2746 104.047 55.3116C104.013 55.3432 103.993 55.3793 103.986 55.4245C103.963 55.5671 103.941 55.7107 103.916 55.8534C103.898 55.9518 103.928 56.0367 103.981 56.118C104.016 56.1722 104.048 56.2281 104.079 56.285C104.192 56.4999 104.3 56.7176 104.372 56.9514C104.381 56.9839 104.4 57.0038 104.426 57.0237C104.493 57.077 104.567 57.1059 104.654 57.1004C104.705 57.0977 104.756 57.1049 104.809 57.1068C104.819 57.0598 104.829 57.0228 104.835 56.9848C104.853 56.8503 104.91 56.732 104.981 56.62C105.069 56.4828 105.16 56.3482 105.251 56.2119C105.305 56.1306 105.361 56.0493 105.417 55.969C105.506 55.8435 105.584 55.7125 105.636 55.5671C105.671 55.4651 105.74 55.3983 105.835 55.3522C105.847 55.3468 105.859 55.3414 105.871 55.3351C105.99 55.2619 106.116 55.2701 106.243 55.3062C106.262 55.3116 106.28 55.3251 106.296 55.3378C106.324 55.3604 106.346 55.3902 106.377 55.41C106.462 55.466 106.477 55.5491 106.471 55.6403C106.462 55.7649 106.466 55.8886 106.486 56.0114C106.492 56.0448 106.496 56.0791 106.506 56.1107C106.523 56.1667 106.55 56.1821 106.606 56.1658C106.662 56.1487 106.721 56.1324 106.772 56.1026C106.958 55.9916 107.142 55.876 107.326 55.7604C107.343 55.7495 107.361 55.7297 107.368 55.7089C107.397 55.6204 107.456 55.5581 107.529 55.5057C107.686 55.392 107.866 55.3278 108.051 55.2773C108.071 55.2719 108.093 55.2719 108.113 55.2728C108.394 55.2881 108.676 55.3017 108.958 55.3197C109.01 55.3233 109.064 55.3387 109.115 55.3567C109.291 55.42 109.364 55.5608 109.35 55.7477C109.349 55.7712 109.343 55.7938 109.34 55.8173C109.334 55.8669 109.313 55.9013 109.269 55.9301C108.952 56.1442 108.639 56.3654 108.318 56.5731C108.105 56.7112 107.881 56.8304 107.662 56.9587C107.578 57.0074 107.494 57.0571 107.401 57.1113C107.441 57.1546 107.477 57.1907 107.509 57.2314C107.529 57.2594 107.547 57.2919 107.558 57.3244C107.579 57.3939 107.592 57.4652 107.612 57.5348C107.623 57.5727 107.617 57.6043 107.606 57.6395C107.559 57.7858 107.494 57.9176 107.361 58.0061C107.351 58.0125 107.344 58.0233 107.332 58.0359C107.343 58.0432 107.351 58.0513 107.359 58.054C107.446 58.0793 107.498 58.1407 107.543 58.2174C107.598 58.3114 107.666 58.3971 107.73 58.4847C107.775 58.5461 107.778 58.5931 107.725 58.6509C107.695 58.6825 107.661 58.7132 107.624 58.7349C107.459 58.8351 107.313 58.9606 107.194 59.1114C107.103 59.227 107.026 59.3534 106.951 59.4807C106.923 59.5295 106.923 59.5945 106.906 59.6604ZM71.7715 60.2636C71.7878 60.3937 71.8058 60.5246 71.8176 60.6176C71.8085 60.7856 71.7977 60.9147 71.7499 61.0375C71.6577 61.2723 71.4808 61.4023 71.2388 61.452C71.2261 61.4547 71.2126 61.4556 71.1999 61.4574C71.0275 61.4872 71.0166 61.4827 70.9056 61.3463C70.6608 61.0447 70.4306 60.7323 70.2437 60.391C70.1208 60.1679 70.017 59.9367 69.9646 59.6866C69.9303 59.5232 69.9159 59.3588 69.9764 59.1963C69.9827 59.18 69.9827 59.1611 69.9854 59.143C69.9989 59.0193 70.064 58.9471 70.185 58.9173C70.2798 58.8947 70.3764 58.9037 70.4694 58.9245C70.5723 58.948 70.6726 58.9805 70.7728 59.0148C70.8044 59.0256 70.836 59.05 70.8577 59.0771C71.1439 59.4275 71.4275 59.7805 71.7128 60.1318C71.7444 60.1715 71.7661 60.2131 71.7715 60.2636ZM69.868 57.0336C69.7876 57.0146 69.7073 56.9993 69.6179 56.9803C69.6179 56.9063 69.6152 56.8395 69.6188 56.7726C69.6233 56.7076 69.6621 56.6571 69.7055 56.6119C69.8021 56.5126 69.9177 56.4385 70.0396 56.3753C70.1606 56.313 70.2852 56.257 70.4089 56.1983C70.445 56.1812 70.4811 56.1794 70.5209 56.1857C70.603 56.1974 70.6852 56.202 70.7764 56.211C70.7629 56.2281 70.7566 56.2417 70.7466 56.2507C70.4884 56.5008 70.2283 56.7492 69.9709 57.0002C69.9402 57.03 69.9095 57.0426 69.868 57.0336ZM68.6264 57.1673C68.5848 57.3984 68.5424 57.6296 68.5027 57.8617C68.4964 57.9005 68.4792 57.9195 68.444 57.933C68.2372 58.0125 68.0304 58.0928 67.8236 58.1732C67.8047 58.1804 67.7839 58.1876 67.7649 58.1876C67.6195 58.1885 67.4751 58.1885 67.3207 58.1876C67.3107 58.091 67.299 57.9971 67.2927 57.9023C67.2918 57.8869 67.3107 57.868 67.3252 57.8544C67.3956 57.7903 67.4678 57.7271 67.5392 57.663C67.5925 57.616 67.634 57.561 67.6602 57.495C67.6846 57.4345 67.7288 57.3939 67.7821 57.3578C67.876 57.2946 67.969 57.2296 68.0602 57.1609C68.1017 57.1284 68.1433 57.1059 68.1975 57.1004C68.3437 57.086 68.4882 57.067 68.6435 57.049C68.6372 57.0923 68.6327 57.1302 68.6264 57.1673ZM73.4078 56.7618C73.3725 56.7293 73.3292 56.7022 73.2849 56.6823C73.2235 56.6562 73.1594 56.6363 73.0944 56.62C72.9039 56.5713 72.7088 56.5496 72.512 56.5388C72.2573 56.5243 72.0018 56.5099 71.7462 56.4981C71.7002 56.4954 71.6532 56.5072 71.6072 56.5063C71.5557 56.5045 71.5268 56.5279 71.5051 56.5731C71.451 56.686 71.3751 56.7826 71.283 56.8684C71.2351 56.9135 71.19 56.9686 71.162 57.0282C71.0925 57.179 70.9832 57.2774 70.8342 57.3488C70.734 57.3966 70.6365 57.4336 70.5263 57.4418C70.4703 57.4463 70.4143 57.4589 70.3583 57.4671C70.3394 57.4698 70.3213 57.4671 70.3023 57.4671C70.3096 57.4445 70.3204 57.4345 70.3331 57.4255C70.3881 57.3876 70.4161 57.337 70.4134 57.2675C70.4125 57.2377 70.4224 57.207 70.4279 57.1727C70.4694 57.1564 70.5082 57.1366 70.5507 57.1248C70.6825 57.0869 70.7855 57.0137 70.8541 56.8918C70.8929 56.8232 70.9534 56.7745 71.0211 56.7338C71.0582 56.7121 71.097 56.6869 71.1259 56.6544C71.3191 56.4349 71.5115 56.2146 71.7029 55.9934C71.7155 55.9789 71.7273 55.9581 71.7282 55.9392C71.7318 55.8859 71.73 55.8317 71.73 55.7775C71.7101 55.773 71.6975 55.7694 71.6848 55.7676C71.5467 55.7505 71.4085 55.7324 71.2704 55.7161C71.1548 55.7035 71.0419 55.6683 70.9245 55.6845C70.8785 55.69 70.8315 55.6945 70.7855 55.699C70.5976 55.7161 70.4098 55.7387 70.222 55.7495C70.0847 55.7577 69.9601 55.801 69.8364 55.8534C69.8084 55.866 69.7795 55.8742 69.7461 55.8868C69.7461 55.8498 69.7452 55.8209 69.7461 55.7929C69.756 55.3703 69.766 54.9486 69.775 54.526C69.775 54.4863 69.7669 54.4438 69.7524 54.4059C69.6666 54.1756 69.5818 53.9454 69.486 53.7178C69.4255 53.5724 69.3966 53.4252 69.403 53.2663C69.4111 53.0505 69.4048 53.0505 69.2738 52.8798C69.272 52.878 69.2702 52.8753 69.2684 52.8744C69.2504 52.8609 69.2332 52.8437 69.2133 52.8356C69.1411 52.8076 69.0689 52.7814 68.9948 52.7561C68.9713 52.748 68.9451 52.7417 68.9199 52.7408C68.8521 52.7362 68.8232 52.7561 68.8097 52.822C68.7971 52.8771 68.7889 52.934 68.788 52.9909C68.7835 53.1959 68.7844 53.4009 68.779 53.6049C68.7772 53.6979 68.7645 53.7909 68.7546 53.8831C68.7438 53.986 68.7185 54.088 68.7194 54.191C68.7212 54.6542 68.7284 55.1184 68.7356 55.5825C68.7366 55.6909 68.7438 55.8001 68.7456 55.9085C68.7474 56.0457 68.7456 56.183 68.7456 56.3248C68.7158 56.3356 68.6932 56.3437 68.6715 56.3509C68.4169 56.4431 68.1604 56.5315 67.9076 56.6291C67.7324 56.6968 67.5608 56.7763 67.3893 56.8539C67.2909 56.8991 67.1969 56.9551 67.1292 57.0454C67.1139 57.0643 67.0913 57.0806 67.0687 57.0923C66.9658 57.1483 66.8357 57.0887 66.8077 56.9758C66.7807 56.8648 66.7536 56.7546 66.7256 56.6444C66.7138 56.5993 66.7057 56.5514 66.6831 56.5117C66.6181 56.397 66.5522 56.2832 66.4773 56.1749C66.3779 56.0322 66.2497 55.9283 66.07 55.9022C66.0203 55.8949 65.9851 55.9049 65.9743 55.9536C65.9634 56.0006 65.9571 56.0521 65.9634 56.099C65.977 56.1929 65.9951 56.2877 66.0212 56.3798C66.1865 56.9677 66.3553 57.5546 66.5233 58.1407C66.5332 58.1741 66.5531 58.2066 66.5766 58.2319C66.6299 58.2915 66.6876 58.3466 66.7472 58.4071C66.7156 58.4215 66.6895 58.4324 66.6642 58.4423C65.8 58.7701 64.9358 59.097 64.0726 59.4257C63.9633 59.4672 63.8549 59.5069 63.7358 59.5051C63.6915 59.5051 63.6482 59.5141 63.6048 59.516C63.5669 59.5187 63.5506 59.534 63.5461 59.5728C63.5335 59.6776 63.5181 59.7832 63.5001 59.888C63.4919 59.9404 63.5001 59.9828 63.5416 60.0198C63.5651 60.0397 63.5859 60.0641 63.603 60.0903C63.6662 60.1869 63.7565 60.2374 63.8676 60.2591C63.9091 60.2672 63.9471 60.2709 63.9886 60.26C64.0879 60.2356 64.1891 60.2104 64.2902 60.1941C64.3841 60.1788 64.4789 60.1697 64.5701 60.1372C64.6839 60.0966 64.7995 60.0605 64.9142 60.0207C65.4334 59.8401 65.9526 59.6586 66.4718 59.4798C66.5892 59.4401 66.7066 59.404 66.8339 59.4049C66.8818 59.4049 66.9315 59.3922 66.9793 59.3823C67.0696 59.3642 67.159 59.3426 67.2511 59.3218C67.2601 59.3417 67.2701 59.3597 67.2782 59.3787C67.3351 59.5006 67.3893 59.6234 67.4471 59.7453C67.4895 59.832 67.5455 59.8365 67.5925 59.7516C67.6304 59.6848 67.6638 59.6126 67.6828 59.5385C67.7234 59.3724 67.7514 59.2035 67.7514 59.0319C67.7505 58.9904 67.7622 58.966 67.801 58.9471C67.9311 58.8848 68.0602 58.8188 68.1902 58.7556C68.202 58.7493 68.2164 58.7475 68.2336 58.7421C68.2336 58.7565 68.2345 58.7647 68.2327 58.7719C68.1406 59.2071 68.0458 59.6415 67.9121 60.0668C67.867 60.2122 67.8074 60.353 67.7505 60.4948C67.7216 60.5652 67.6638 60.6095 67.5915 60.6339C67.5292 60.6537 67.4633 60.6528 67.4191 60.6014C67.3784 60.5544 67.3279 60.5363 67.2746 60.5183C67.2015 60.4939 67.1274 60.4704 67.0543 60.4442C67.0181 60.4316 66.9856 60.4334 66.9495 60.4469C66.8195 60.4975 66.6895 60.5454 66.5585 60.5932C66.4592 60.6293 66.3978 60.7034 66.3526 60.7937C66.3328 60.8352 66.3355 60.8777 66.3436 60.9228C66.3553 60.9833 66.3671 61.0447 66.3689 61.1061C66.3707 61.1702 66.3879 61.2271 66.4231 61.2804C66.4574 61.3328 66.4872 61.387 66.5179 61.4402C66.5531 61.5007 66.5829 61.5649 66.6217 61.6226C66.7174 61.7662 66.8493 61.8592 67.0181 61.8999C67.1689 61.936 67.3207 61.9342 67.4715 61.9062C67.7369 61.8556 67.9582 61.7238 68.1514 61.5387C68.3844 61.3156 68.555 61.0483 68.6941 60.7594C68.9253 60.2817 69.0842 59.7796 69.2115 59.2658C69.2729 59.0139 69.3208 58.7601 69.337 58.501C69.3389 58.4793 69.3515 58.4576 69.365 58.4387C69.4138 58.3664 69.4662 58.296 69.514 58.222C69.5402 58.1822 69.5736 58.1624 69.6197 58.1515C70.4107 57.9691 71.2017 57.7858 71.9928 57.5998C72.2998 57.5276 72.6086 57.4707 72.9247 57.4553C73.0393 57.4499 73.1405 57.3993 73.2064 57.2991C73.284 57.1808 73.3572 57.058 73.4312 56.937C73.471 56.8702 73.4655 56.8133 73.4078 56.7618ZM93.494 53.4505C93.5076 53.5255 93.513 53.5932 93.5329 53.6564C93.5554 53.7323 93.5825 53.8099 93.6223 53.8776C93.7099 54.0302 93.8534 54.098 94.0223 54.1052C94.1532 54.1115 94.286 54.107 94.4178 54.1016C94.4738 54.0998 94.5298 54.0862 94.584 54.0709C94.6445 54.0537 94.6544 54.0221 94.6526 53.9589C94.6481 53.7982 94.6454 53.6374 94.6472 53.4776C94.649 53.4009 94.6968 53.3449 94.7618 53.3124C94.8232 53.2817 94.8901 53.2564 94.9578 53.2428C95.0941 53.2157 95.2323 53.1986 95.3705 53.1769C95.375 53.176 95.3804 53.1787 95.393 53.1814C95.393 53.2519 95.3948 53.3241 95.3921 53.3954C95.3903 53.4352 95.403 53.4641 95.431 53.4912C95.5511 53.6094 95.6694 53.7286 95.7876 53.8487C95.812 53.874 95.8373 53.8894 95.8752 53.8885C96.0784 53.884 96.2834 53.8903 96.4866 53.8749C96.6193 53.8641 96.7502 53.8271 96.8803 53.7964C96.9354 53.7837 96.9733 53.7431 97.0139 53.7006C97.1042 53.6067 97.2099 53.5237 97.3164 53.4478C97.3887 53.3972 97.4799 53.4081 97.5657 53.4126C97.6424 53.4153 97.7201 53.4207 97.7968 53.4234C97.8293 53.4243 97.8573 53.4297 97.8817 53.4532C97.9079 53.4776 97.9386 53.4975 97.9666 53.521C98.1698 53.6925 98.3946 53.828 98.6375 53.9336C98.6872 53.9553 98.7368 53.9788 98.7838 54.0059C98.9418 54.0944 99.0005 54.2361 98.9545 54.4131C98.9301 54.5043 98.8858 54.5865 98.8353 54.665C98.8172 54.6939 98.7937 54.7048 98.7585 54.7048C98.5544 54.7021 98.3495 54.7048 98.1454 54.7021C98.0451 54.7003 97.9449 54.6903 97.8438 54.6858C97.7517 54.6831 97.6704 54.7129 97.5864 54.7553C97.3778 54.8619 97.1638 54.9594 96.9498 55.056C96.7945 55.1265 96.6374 55.1915 96.4802 55.2601C96.3782 55.1111 96.4197 54.9495 96.4143 54.7906C96.4468 54.7806 96.473 54.7716 96.5001 54.7644C96.7358 54.703 96.9317 54.5702 97.1105 54.4104C97.1494 54.3743 97.1828 54.3291 97.2099 54.2822C97.2379 54.237 97.2198 54.2045 97.1665 54.2054C97.0943 54.2063 97.0229 54.2163 96.9507 54.2235C96.8098 54.237 96.669 54.256 96.5272 54.2632C96.4504 54.2677 96.3954 54.293 96.3547 54.3589C96.2942 54.4601 96.2112 54.5404 96.1299 54.6244C96.0703 54.6858 96.0342 54.7698 95.9899 54.8456C95.9836 54.8574 95.9926 54.88 95.998 54.8971C96.0215 54.9621 96.0468 55.0272 96.0739 55.1021C96.0134 55.1238 95.9538 55.1454 95.8933 55.1635C95.8789 55.1671 95.8581 55.1581 95.8418 55.1509C95.7876 55.1283 95.7335 55.1012 95.6784 55.0804C95.6215 55.0579 95.5628 55.0362 95.5032 55.0208C95.4617 55.01 95.431 54.9919 95.4048 54.9558C95.3551 54.8836 95.3054 54.8077 95.2422 54.7481C95.1221 54.6353 94.9921 54.5332 94.8612 54.423C94.7862 54.4844 94.7149 54.5431 94.6436 54.6027C94.5596 54.6714 94.4765 54.7409 94.3934 54.8113C94.2219 54.9567 94.025 55.0579 93.82 55.1463C93.6566 55.2177 93.4877 55.1978 93.317 55.1752C93.1437 55.1518 93.0461 55.0371 92.9676 54.898C92.9414 54.852 92.9405 54.8032 92.9513 54.749C92.9649 54.6813 92.9685 54.61 92.9649 54.5413C92.954 54.3237 92.9279 54.1079 92.8836 53.8948C92.8737 53.8451 92.88 53.8063 92.9143 53.7666C92.9766 53.697 93.0308 53.6212 93.0913 53.5498C93.1066 53.5318 93.1292 53.511 93.1518 53.5065C93.2629 53.4848 93.3748 53.4695 93.494 53.4505ZM95.5917 61.6344C95.5926 61.6299 95.5926 61.6263 95.5935 61.6217C95.6296 61.6217 95.6657 61.6235 95.7019 61.6217C95.9782 61.6073 96.1606 61.4574 96.2238 61.1874C96.2446 61.0944 96.2572 60.9987 96.2635 60.9039C96.2726 60.7874 96.2717 60.67 96.2373 60.5571C96.2003 60.4379 96.1344 60.3973 96.0134 60.428C95.9466 60.4442 95.8798 60.4659 95.8156 60.493C95.589 60.5914 95.3632 60.6944 95.1366 60.7919C94.9515 60.8723 94.7673 60.9535 94.565 60.9797C94.5496 60.9824 94.5307 60.9942 94.5216 61.0068C94.4982 61.0384 94.4765 61.0709 94.4611 61.1061C94.4187 61.2046 94.4359 61.2795 94.518 61.349C94.6065 61.4258 94.7041 61.4899 94.8205 61.5143C94.9217 61.536 95.0237 61.5522 95.1248 61.5676C95.2802 61.591 95.4364 61.6127 95.5917 61.6344ZM97.6803 56.1026C97.534 56.1135 97.3986 56.1216 97.2613 56.1333C97.2388 56.1351 97.2171 56.146 97.1954 56.1532C97.0627 56.2029 96.9281 56.2489 96.7972 56.304C96.613 56.3826 96.4207 56.4142 96.2229 56.4078C96.0974 56.4042 95.9863 56.4322 95.8752 56.4882C95.7226 56.5641 95.5619 56.6227 95.4075 56.695C95.3307 56.7311 95.2585 56.7763 95.1872 56.8232C95.1194 56.8666 95.058 56.918 94.9921 56.9632C94.9379 56.9993 94.8837 57.0336 94.8251 57.0616C94.7664 57.0905 94.7266 57.1311 94.6932 57.1871C94.63 57.2937 94.5605 57.3966 94.4918 57.4996C94.4323 57.5881 94.3654 57.6702 94.3112 57.7614C94.2083 57.933 94.0584 58.0377 93.8724 58.0991C93.8218 58.1154 93.7731 58.1407 93.727 58.1687C93.6439 58.2211 93.5654 58.2797 93.4805 58.3312C93.4408 58.3547 93.4317 58.3827 93.438 58.4269C93.4579 58.5759 93.4335 58.7204 93.373 58.8586C93.3234 58.9732 93.2457 59.0663 93.1374 59.1295C93.0669 59.171 92.992 59.208 92.9161 59.2405C92.8565 59.2667 92.833 59.2577 92.7987 59.2035C92.7536 59.1313 92.6877 59.0915 92.61 59.0635C92.4529 59.0076 92.3563 58.8504 92.3788 58.6861C92.4159 58.4125 92.4095 58.1389 92.3797 57.8653C92.3707 57.7822 92.3698 57.6991 92.3662 57.6169C92.3599 57.4896 92.3535 57.3632 92.3481 57.2368C92.3472 57.2187 92.3481 57.2007 92.3481 57.1781C92.4402 57.16 92.5305 57.142 92.6217 57.1248C92.6822 57.1131 92.7436 57.1031 92.8041 57.0914C92.8213 57.0878 92.8385 57.0797 92.8547 57.0733C92.8592 57.0715 92.8637 57.0679 92.8683 57.0652C93.2918 56.7519 93.7649 56.5225 94.2273 56.2742C94.3203 56.2245 94.4079 56.1658 94.4891 56.0963C94.5397 56.0539 94.6029 56.0259 94.6598 55.9897C94.8232 55.885 95.0075 55.8552 95.1962 55.8344C95.4418 55.8055 95.6874 55.7685 95.933 55.7342C96.1624 55.7026 96.3927 55.6683 96.6229 55.6349C96.7349 55.6186 96.8478 55.6033 96.9597 55.587C97.1557 55.559 97.3525 55.5644 97.5485 55.578C97.8501 55.6006 98.1472 55.6556 98.437 55.7459C98.5833 55.7911 98.7224 55.8525 98.8407 55.9536C99.015 56.1017 99.0881 56.2868 99.0366 56.5153C99.0303 56.5442 99.0159 56.574 98.9978 56.5975C98.9355 56.6796 98.8678 56.7591 98.8046 56.8413C98.782 56.8702 98.7567 56.8801 98.7197 56.8819C98.5066 56.8918 98.2998 56.9253 98.1038 57.0174C97.9413 57.095 97.7697 57.1546 97.6054 57.2287C97.5431 57.2576 97.4835 57.2982 97.432 57.3442C97.3327 57.4318 97.2306 57.5104 97.1114 57.5718C96.9191 57.6693 96.7493 57.8012 96.6012 57.9592C96.5353 58.0296 96.5082 58.119 96.4902 58.212C96.4577 58.3728 96.4739 58.5317 96.5254 58.687C96.5886 58.8766 96.6798 59.0536 96.7846 59.2234C96.8071 59.2595 96.8351 59.2703 96.8731 59.2749C97.1638 59.3037 97.4537 59.3354 97.7444 59.3661C97.8934 59.3823 98.0415 59.3995 98.1905 59.4166C98.2601 59.4247 98.3287 59.4392 98.3865 59.4834C98.4361 59.5214 98.4677 59.5692 98.4578 59.6361C98.4334 59.8049 98.409 59.9747 98.3829 60.1426C98.3774 60.1751 98.3639 60.2076 98.3485 60.2374C98.3251 60.2808 98.289 60.2844 98.2546 60.2492C98.2348 60.2284 98.2203 60.204 98.1996 60.176C98.1183 60.176 98.0325 60.1733 97.9476 60.176C97.8691 60.1788 97.7932 60.167 97.7201 60.1381C97.6099 60.0948 97.497 60.0767 97.3796 60.0803C97.2785 60.0848 97.1774 60.0812 97.0762 60.0812C97.0527 60.0812 97.0293 60.0803 97.0067 60.0839C96.9272 60.0975 96.8911 60.1526 96.9137 60.2302C96.9597 60.3937 96.9263 60.5598 96.9345 60.7242C96.874 60.9174 96.8749 61.1179 96.8604 61.3156C96.8505 61.4529 96.846 61.5901 96.8424 61.7274C96.8288 62.1744 96.604 62.4679 96.1732 62.5861C95.9204 62.6557 95.6621 62.6719 95.4084 62.5979C95.1501 62.5229 94.9244 62.3911 94.7501 62.1798C94.6896 62.1057 94.6255 62.0344 94.5641 61.9613C94.4982 61.8809 94.4395 61.7951 94.4034 61.6967C94.3835 61.6416 94.3456 61.6091 94.2896 61.5883C94.2002 61.5567 94.1126 61.5197 94.025 61.4809C93.8688 61.4131 93.7442 61.3066 93.6503 61.1657C93.5103 60.9571 93.3703 60.7485 93.2358 60.5363C93.1915 60.4677 93.1662 60.3864 93.1301 60.3124C93.1012 60.2537 93.0696 60.1959 93.0335 60.1291C93.0633 60.1291 93.0904 60.1291 93.1175 60.1291C93.4046 60.13 93.6927 60.1264 93.9798 60.1318C94.1821 60.1354 94.3817 60.1155 94.5776 60.0659C94.9605 59.9702 95.3434 59.8735 95.7262 59.7778C95.7434 59.7733 95.7606 59.767 95.784 59.7598C95.7849 59.674 95.7858 59.5891 95.784 59.5042C95.7831 59.488 95.7732 59.469 95.7624 59.4555C95.626 59.2712 95.5574 59.0563 95.4951 58.8396C95.4806 58.789 95.4571 58.7556 95.4048 58.7484C95.3118 58.7367 95.2666 58.678 95.2296 58.5967C95.1908 58.5127 95.1384 58.4351 95.0878 58.3565C95.0409 58.2834 95.0318 58.1488 95.0842 58.0811C95.1483 57.9989 95.1817 57.9059 95.2016 57.8057C95.2197 57.7172 95.2404 57.6287 95.263 57.542C95.2702 57.5113 95.282 57.4815 95.2973 57.4553C95.3352 57.3876 95.3957 57.3551 95.4743 57.3786C95.5411 57.3984 95.6043 57.393 95.6639 57.3713C95.7723 57.3316 95.8698 57.3451 95.9637 57.4084C95.9827 57.421 96.0053 57.4282 96.0251 57.44C96.0549 57.458 96.082 57.4562 96.1136 57.4445C96.2319 57.3984 96.3556 57.3768 96.4821 57.3632C96.6301 57.347 96.7647 57.281 96.8965 57.2169C96.9173 57.2079 96.9317 57.1871 96.9471 57.17C97.1187 56.9821 97.2884 56.7934 97.46 56.6065C97.5268 56.5343 97.5954 56.4638 97.6659 56.3961C97.7002 56.3636 97.7119 56.3302 97.7047 56.2859C97.6948 56.2272 97.6885 56.1685 97.6803 56.1026ZM78.9576 59.9629C79.0316 59.8203 79.1418 59.7083 79.2664 59.609C79.3079 59.5755 79.354 59.5837 79.3982 59.6017C79.4425 59.6207 79.456 59.6595 79.4515 59.7038C79.4461 59.7444 79.4434 59.7887 79.4253 59.8239C79.3865 59.9015 79.3802 59.981 79.3829 60.065C79.3865 60.204 79.363 60.1652 79.4831 60.2356C79.4967 60.2429 79.5102 60.2528 79.5238 60.2582C79.6637 60.3052 79.7179 60.4253 79.7775 60.549C79.6836 60.5869 79.5933 60.6239 79.5021 60.6582C79.4849 60.6655 79.4606 60.6646 79.4425 60.6582C79.3097 60.614 79.1815 60.5598 79.0705 60.4731C78.8962 60.3359 78.8564 60.1598 78.9576 59.9629ZM81.5049 57.5212C81.5004 57.5077 81.4896 57.4941 81.4787 57.4842C81.3577 57.3786 81.225 57.3153 81.0598 57.3641C80.8774 57.4192 80.6931 57.4689 80.5125 57.5303C80.425 57.5592 80.3392 57.6007 80.2633 57.6531C80.1197 57.7515 79.968 57.8346 79.8118 57.9086C79.7802 57.924 79.7432 57.9321 79.708 57.9321C79.5147 57.9339 79.3206 57.9339 79.1264 57.9312C79.0912 57.9312 79.0542 57.9231 79.0217 57.9095C78.8935 57.8553 78.7661 57.7985 78.6388 57.7416C78.6217 57.7334 78.6045 57.7226 78.5855 57.7127C78.6325 57.6007 78.6767 57.4923 78.7228 57.3858C78.7309 57.3677 78.7427 57.347 78.7589 57.337C78.8917 57.2585 79.0172 57.1636 79.1662 57.1149C79.4768 57.0146 79.7676 56.8684 80.0574 56.7203C80.0755 56.7112 80.0972 56.7022 80.1089 56.6869C80.1504 56.6291 80.1893 56.5686 80.2299 56.5081C80.0854 56.3681 79.931 56.2579 79.7522 56.1839C79.6267 56.1315 79.4976 56.1035 79.3603 56.1053C79.2465 56.1071 79.1499 56.1315 79.0686 56.22C79.0063 56.2877 78.9323 56.3446 78.87 56.3997C78.8167 56.3482 78.7698 56.3022 78.7192 56.2534C78.7363 56.2372 78.7544 56.2191 78.7734 56.202C78.8953 56.0909 79.0226 55.9843 79.1255 55.8525C79.1897 55.7703 79.2736 55.7098 79.3594 55.6502C79.4461 55.5897 79.5256 55.5193 79.6077 55.4525C79.6195 55.4425 79.633 55.4308 79.6375 55.4172C79.6655 55.3369 79.7305 55.3125 79.8046 55.2971C80.0231 55.2529 80.2182 55.1545 80.3988 55.0253C80.424 55.0082 80.4493 54.9919 80.452 54.9549C80.4629 54.7933 80.4015 54.6289 80.2082 54.5684C80.1179 54.5413 80.0258 54.5359 79.9319 54.5468C79.8299 54.5585 79.7269 54.5684 79.6249 54.5847C79.4515 54.6118 79.279 54.6452 79.1147 54.7075C79.075 54.7228 79.0361 54.7481 79.0054 54.777C78.9206 54.8565 78.8375 54.9387 78.758 55.0235C78.7228 55.0615 78.6858 55.0741 78.6352 55.0741C78.4961 55.0741 78.3553 55.0732 78.2171 55.0849C77.9751 55.1057 77.734 55.1337 77.4929 55.1617C77.1444 55.2014 76.7967 55.2041 76.4472 55.1743C76.4147 55.1707 76.3813 55.1734 76.3488 55.1734C76.3443 55.1834 76.3398 55.1897 76.3389 55.1969C76.3118 55.4154 76.2928 55.6349 76.3037 55.8552C76.3064 55.9229 76.3109 55.9897 76.3217 56.0566C76.3353 56.146 76.3551 56.2354 76.4066 56.3121C76.4716 56.4105 76.5357 56.4259 76.6405 56.3762C77.0261 56.1902 77.4116 56.0015 77.8008 55.8218C77.9498 55.7532 78.1088 55.7053 78.2641 55.6493C78.2848 55.6421 78.3092 55.643 78.3309 55.6394C78.3128 55.6719 78.2903 55.689 78.2695 55.708C78.0735 55.8805 77.8722 56.0484 77.6835 56.229C77.576 56.332 77.4857 56.4539 77.3936 56.5722C77.3322 56.6507 77.3015 56.7447 77.2979 56.8467C77.2906 57.0607 77.2807 57.2756 77.2771 57.4905C77.2762 57.542 77.2599 57.57 77.2148 57.5926C76.9358 57.7343 76.6613 57.8833 76.3804 58.0206C76.1204 58.147 75.8558 58.2644 75.5912 58.38C75.4512 58.4414 75.3059 58.4883 75.1514 58.4965C75.0097 58.5037 74.867 58.5118 74.7252 58.5154C74.6792 58.5163 74.6548 58.5317 74.6385 58.5741C74.6205 58.622 74.5997 58.6698 74.5753 58.7159C74.5491 58.7683 74.5392 58.8215 74.5401 58.8802C74.5419 58.976 74.55 59.0744 74.5329 59.1674C74.5067 59.3092 74.4625 59.4473 74.4236 59.5873C74.4038 59.6613 74.3604 59.7345 74.3613 59.8085C74.3622 59.8826 74.4047 59.9566 74.4281 60.0307C74.4318 60.0406 74.4327 60.0505 74.4381 60.0596C74.4453 60.0704 74.4525 60.083 74.4634 60.0875C74.569 60.1327 74.6756 60.1742 74.7884 60.1083C74.8462 60.0749 74.9022 60.0379 74.9591 60.0009C75.1262 59.8934 75.2914 59.7814 75.4612 59.6776C75.7772 59.4852 76.1195 59.3579 76.4789 59.2758C76.7335 59.2171 76.9872 59.1575 77.2455 59.1259C77.278 59.1213 77.3186 59.115 77.3439 59.1295C77.4342 59.1827 77.52 59.2441 77.6085 59.3037C77.5995 59.3281 77.5941 59.3453 77.5868 59.3606C77.4929 59.5683 77.4044 59.7787 77.2608 59.9593C77.2229 60.0063 77.1985 60.0623 77.2013 60.1237C77.204 60.1905 77.2121 60.2573 77.2175 60.3241C77.2915 60.3594 77.3656 60.3946 77.4396 60.4307C77.4938 60.4569 77.5245 60.4984 77.539 60.5598C77.5733 60.7007 77.6184 60.8388 77.6509 60.9797C77.6726 61.0745 77.7313 61.1242 77.818 61.1404C78.1106 61.1955 78.4131 61.1025 78.5521 60.7774C78.5612 60.7567 78.5711 60.7359 78.5792 60.7178C78.5855 60.716 78.5883 60.7142 78.5901 60.7151C78.6027 60.7196 78.6144 60.7242 78.6262 60.7296C78.9883 60.8948 79.3332 61.0872 79.5978 61.3942C79.6818 61.4917 79.782 61.5486 79.9066 61.5676C79.9382 61.5721 79.9735 61.5748 80.0042 61.5676C80.1261 61.5414 80.2155 61.4637 80.2985 61.3761C80.3112 61.3635 80.3166 61.3391 80.3175 61.3201C80.3238 61.2452 80.3265 61.1702 80.3319 61.0953C80.3455 60.9066 80.3617 60.7187 80.3753 60.53C80.3888 60.344 80.4177 60.1598 80.4114 59.972C80.4078 59.8609 80.4123 59.7489 80.4105 59.6379C80.4096 59.5882 80.4195 59.5421 80.4367 59.4952C80.4818 59.3751 80.5098 59.2532 80.4972 59.1231C80.4773 58.9118 80.359 58.7782 80.1694 58.7005C80.0385 58.6473 79.9003 58.6319 79.7603 58.6211C79.698 58.6166 79.6466 58.6283 79.5933 58.6626C79.2872 58.8604 78.9793 59.0554 78.6713 59.2514C78.5386 59.3363 78.5386 59.3372 78.4031 59.2487C78.3183 59.1936 78.2361 59.1349 78.1765 59.05C78.1214 58.9723 78.1277 58.9046 78.2054 58.8486C78.274 58.7999 78.3481 58.7556 78.4248 58.7195C78.7824 58.5534 79.1571 58.4423 79.549 58.3917C79.6998 58.3719 79.8488 58.343 79.9897 58.2788C80.1369 58.2111 80.2895 58.1542 80.4403 58.0937C80.4809 58.0775 80.5234 58.063 80.5658 58.0558C80.8286 58.0116 81.0905 57.97 81.3532 57.9267C81.4417 57.9122 81.5302 57.896 81.625 57.8788C81.5844 57.756 81.5456 57.6377 81.5049 57.5212ZM62.5158 56.0909C62.4914 56.1902 62.4463 56.2805 62.3813 56.3591C62.3343 56.416 62.281 56.4647 62.2106 56.4873C62.0381 56.5415 61.8656 56.5939 61.6932 56.6462C61.6868 56.648 61.6787 56.6453 61.6634 56.6444C61.6254 56.5406 61.5866 56.434 61.5496 56.3275C61.5451 56.3148 61.5505 56.2977 61.555 56.2832C61.62 56.0683 61.685 55.8534 61.751 55.6385C61.7528 55.6313 61.7591 55.6258 61.7672 55.6132C61.7916 55.6276 61.8169 55.6385 61.8386 55.6547C61.8873 55.6881 61.9406 55.7035 61.9975 55.7098C62.1329 55.7252 62.2684 55.7414 62.4038 55.7577C62.4752 55.7658 62.5023 55.7893 62.5185 55.8606C62.5357 55.9374 62.5348 56.015 62.5158 56.0909ZM59.9865 57.8382C59.9847 57.8544 59.9739 57.8734 59.9612 57.8842C59.8691 57.9691 59.7743 58.054 59.675 58.1434C59.6127 58.1019 59.5576 58.0648 59.5016 58.0278C59.4555 57.9971 59.4375 57.952 59.4483 57.9005C59.4592 57.8499 59.47 57.7975 59.4953 57.7533C59.5639 57.6359 59.6407 57.5221 59.7138 57.4075C59.7337 57.3758 59.7599 57.3695 59.7942 57.3786C59.8754 57.3975 59.9296 57.4472 59.9612 57.5248C60.0019 57.6269 59.9946 57.7325 59.9865 57.8382ZM64.2532 55.0371C63.9787 54.8664 63.7069 54.6921 63.4341 54.5188C63.4143 54.5061 63.3944 54.4953 63.3727 54.4826C63.3466 54.498 63.3222 54.5124 63.2978 54.5269C62.9745 54.7219 62.6467 54.9071 62.3099 55.0795C62.0941 55.1906 61.8638 55.2357 61.6291 55.2746C61.5749 55.2836 61.5478 55.2601 61.5433 55.2023C61.5415 55.1716 61.5433 55.14 61.5433 55.1093C61.5442 55.0398 61.5496 54.9694 61.546 54.8998C61.5333 54.6353 61.4846 54.3761 61.4295 54.1169C61.4232 54.0862 61.4051 54.0555 61.3852 54.0284C61.1026 53.6483 60.8191 53.269 60.5355 52.8898C60.522 52.8717 60.5066 52.8545 60.4868 52.8302C60.4416 52.8979 60.3992 52.9593 60.3594 53.0216C60.2014 53.2681 60.0506 53.5182 59.9405 53.7909C59.8899 53.9147 59.8574 54.0411 59.8565 54.1756C59.8556 54.6678 59.8547 55.1599 59.8538 55.6529C59.8529 55.8489 59.8529 56.0457 59.8529 56.2516C59.8384 56.2597 59.8231 56.2688 59.8077 56.2769C59.479 56.4611 59.125 56.5984 58.818 56.8223C58.7024 56.9072 58.4966 56.8801 58.4026 56.7275C58.3819 56.6923 58.362 56.6553 58.344 56.6182C58.288 56.5017 58.2022 56.4151 58.0893 56.3555C57.9322 56.2742 57.7769 56.2814 57.6225 56.3636C57.58 56.3862 57.5592 56.4133 57.5656 56.462C57.5755 56.5361 57.5791 56.611 57.5927 56.6851C57.6523 57.0137 57.7696 57.3226 57.9223 57.6188C58.1832 58.1253 58.5327 58.566 58.9345 58.9669C59.0221 59.0554 59.023 59.0572 59.1503 59.0464C59.3463 59.0292 59.5422 59.0383 59.7382 59.0554C59.7924 59.0599 59.8456 59.0735 59.8971 59.0879C59.9504 59.1024 59.9883 59.134 59.9937 59.1954C59.9991 59.2523 60.0118 59.3083 60.0163 59.3642C60.0371 59.6875 60.0587 60.0108 60.0759 60.3332C60.0867 60.5436 60.0976 60.7522 60.1734 60.9517C60.2014 61.0267 60.2213 61.1052 60.252 61.1793C60.3314 61.3725 60.4118 61.5658 60.4994 61.7563C60.5301 61.8231 60.5762 61.8854 60.624 61.9423C60.6701 61.9974 60.7234 61.9974 60.7685 61.9396C60.8091 61.8872 60.8471 61.8294 60.8714 61.768C60.9229 61.6362 60.9726 61.5016 61.0087 61.3644C61.0845 61.079 61.1694 60.7973 61.2751 60.5219C61.3338 60.3675 61.3862 60.2095 61.4367 60.0523C61.5668 59.6469 61.6697 59.236 61.6941 58.8089C61.6959 58.7773 61.7121 58.7629 61.7356 58.7502C62.1745 58.5082 62.6124 58.2653 63.0531 58.0251C63.1127 57.9917 63.1822 57.9736 63.2481 57.9547C63.3718 57.9185 63.4766 57.8571 63.5515 57.7506C63.6743 57.5745 63.6924 57.3731 63.6825 57.1645C63.6617 57.1645 63.6464 57.1627 63.631 57.1645C63.5389 57.1772 63.4468 57.1916 63.3547 57.2034C63.2563 57.216 63.1587 57.2097 63.0648 57.1745C62.989 57.1474 62.961 57.0905 62.9854 57.0137C63.0161 56.9162 63.0648 56.834 63.1614 56.7799C63.4775 56.602 63.7565 56.3771 63.9769 56.0846C64.1863 55.8073 64.3119 55.4976 64.311 55.1436C64.311 55.0949 64.2965 55.0651 64.2532 55.0371Z" fill="#231F20"/>
<path d="M60.5115 65.1335C60.5945 65.1335 60.6894 65.138 60.795 65.1489C60.8998 65.1597 61.0072 65.1723 61.1147 65.1886C61.2221 65.2039 61.3287 65.2211 61.4334 65.2401C61.5373 65.259 61.6276 65.2744 61.7043 65.287C61.7287 65.2915 61.7414 65.3024 61.7414 65.3186V66.2948C61.7414 66.3164 61.7287 66.3264 61.7043 66.3264H61.4379C61.4271 66.3264 61.4181 66.3246 61.4109 66.32C61.4045 66.3164 61.4009 66.3101 61.4009 66.302L61.2628 65.5769C61.2628 65.5642 61.2537 65.5543 61.2357 65.5453C61.1959 65.5371 61.1436 65.5254 61.0813 65.511C61.018 65.4965 60.953 65.4821 60.8871 65.4685C60.8212 65.455 60.7526 65.4441 60.6812 65.4351C60.6108 65.427 60.5431 65.4225 60.4781 65.4225C60.1701 65.4225 59.8965 65.4667 59.6572 65.5552C59.4179 65.6428 59.2166 65.7683 59.0522 65.9299C58.8888 66.0916 58.7642 66.2848 58.6784 66.5106C58.5926 66.7363 58.5502 66.9846 58.5502 67.2555C58.5502 67.5391 58.5953 67.8082 58.6847 68.0619C58.775 68.3157 58.9032 68.5396 59.0694 68.7329C59.2355 68.9261 59.436 69.0787 59.6708 69.1898C59.9056 69.3008 60.1656 69.3568 60.451 69.3568C60.4997 69.3568 60.5611 69.3541 60.6325 69.3505C60.7047 69.346 60.776 69.3397 60.8465 69.3315C60.9178 69.3225 60.9873 69.3126 61.0578 69.2999C61.1273 69.2873 61.1869 69.2683 61.2357 69.243C61.2537 69.2322 61.2628 69.2214 61.2628 69.2087L61.4009 68.4809C61.4009 68.4764 61.4045 68.471 61.4109 68.4656C61.4181 68.4592 61.4271 68.4556 61.4379 68.4556H61.7043C61.7287 68.4556 61.7414 68.4665 61.7414 68.4872V69.4607C61.7414 69.4733 61.7287 69.4832 61.7043 69.4923C61.6276 69.5112 61.5436 69.5293 61.4515 69.5483C61.3594 69.5672 61.2592 69.5853 61.1499 69.6024C61.0415 69.6187 60.9232 69.6331 60.7977 69.6449C60.6722 69.6566 60.5331 69.662 60.3796 69.662C60.1286 69.662 59.892 69.6359 59.6708 69.5844C59.4495 69.5329 59.2455 69.4589 59.0594 69.3613C58.8725 69.2638 58.7073 69.1473 58.5619 69.0119C58.4174 68.8764 58.2955 68.7256 58.1962 68.5613C58.0978 68.396 58.021 68.2154 57.9659 68.0195C57.9108 67.8235 57.8828 67.6204 57.8828 67.41C57.8828 67.1689 57.9154 66.9449 57.9795 66.739C58.0436 66.5331 58.1339 66.3453 58.2522 66.1756C58.3696 66.0058 58.5095 65.8559 58.6703 65.7268C58.831 65.5976 59.0071 65.4893 59.2003 65.4008C59.3936 65.3123 59.6021 65.2464 59.8261 65.2003C60.0491 65.1561 60.2776 65.1335 60.5115 65.1335Z" fill="#231F20"/>
<path d="M64.8328 66.2479C64.85 66.2479 64.859 66.2551 64.859 66.2713V67.0461C64.859 67.0633 64.85 67.0723 64.8328 67.0723H64.6369C64.6197 67.0723 64.6107 67.066 64.6107 67.0533L64.505 66.4935C64.505 66.4808 64.4969 66.4745 64.4797 66.4745H63.2697C63.2517 66.4745 63.2435 66.4817 63.2435 66.498V67.7188C63.2435 67.7351 63.2517 67.7423 63.2697 67.7423H63.9966C64.0156 67.7423 64.0255 67.736 64.0255 67.7234L64.077 67.3233C64.077 67.3107 64.0851 67.3035 64.1023 67.3035H64.2477C64.2648 67.3035 64.273 67.3116 64.273 67.3278V68.4006C64.273 68.4169 64.2648 68.425 64.2477 68.425H64.1023C64.0851 68.425 64.077 68.4187 64.077 68.406L64.0255 67.9816C64.0255 67.9672 64.0156 67.9599 63.9966 67.9599H63.2697C63.2517 67.9599 63.2435 67.969 63.2435 67.9861V69.3199C63.2435 69.3361 63.2517 69.3442 63.2697 69.3442H64.552C64.5709 69.3442 64.58 69.3379 64.58 69.3244L64.6856 68.7744C64.6856 68.7618 64.6947 68.7555 64.7118 68.7555H64.9078C64.9249 68.7555 64.934 68.7636 64.934 68.7799V69.5465C64.934 69.5628 64.9249 69.5709 64.9078 69.5709H62.3071C62.29 69.5709 62.2809 69.5628 62.2809 69.5465V69.4183C62.2809 69.4011 62.29 69.3921 62.3071 69.3921L62.7559 69.3533C62.7731 69.3533 62.7812 69.346 62.7812 69.3298V66.479C62.7749 66.4691 62.7659 66.4646 62.7559 66.4646L62.3071 66.423C62.29 66.423 62.2809 66.4158 62.2809 66.3996V66.2713C62.2809 66.2551 62.29 66.2479 62.3071 66.2479H64.8328Z" fill="#231F20"/>
<path d="M65.2779 66.2714C65.2779 66.2551 65.2861 66.247 65.3032 66.247H66.2351C66.2433 66.2488 66.2505 66.2524 66.2559 66.2569L68.2163 68.6806V66.508C68.2163 66.4917 68.2091 66.4836 68.1937 66.4836L67.8036 66.4457C67.7865 66.4457 67.7783 66.4366 67.7783 66.4186V66.2714C67.7783 66.2551 67.7865 66.247 67.8036 66.247H68.9026C68.9206 66.247 68.9288 66.2551 68.9288 66.2714V66.4186C68.9288 66.4366 68.9206 66.4457 68.9026 66.4457L68.5062 66.4836C68.4881 66.4836 68.48 66.4917 68.48 66.508V69.5854C68.48 69.6016 68.4691 69.6098 68.4484 69.6098H68.3481C68.34 69.608 68.331 69.6025 68.3229 69.5944L66.0437 66.7753V69.3082C66.0437 69.3253 66.0509 69.3343 66.0645 69.3343L66.4518 69.3732C66.469 69.3732 66.4771 69.3813 66.4771 69.3967V69.5466C66.4771 69.5628 66.469 69.5709 66.4518 69.5709H65.352C65.3339 69.5709 65.324 69.5628 65.324 69.5466V69.3967C65.324 69.3813 65.3339 69.3732 65.352 69.3732L65.752 69.3343C65.771 69.3343 65.7809 69.3253 65.7809 69.3082V66.508C65.7809 66.4917 65.771 66.4836 65.752 66.4836L65.3032 66.4457C65.2861 66.4457 65.2779 66.4366 65.2779 66.4186V66.2714Z" fill="#231F20"/>
<path d="M72.0636 66.2479C72.0808 66.2479 72.0898 66.2551 72.0898 66.2713V67.0461C72.0898 67.0633 72.0808 67.0723 72.0636 67.0723H71.8677C71.8505 67.0723 71.8415 67.066 71.8415 67.0533L71.7358 66.4935C71.7358 66.4808 71.7277 66.4745 71.7105 66.4745H70.8536C70.8401 66.4745 70.8328 66.4817 70.8328 66.498V69.3298C70.8328 69.3442 70.8419 69.3524 70.859 69.3533L71.3593 69.3921C71.3782 69.3939 71.3873 69.4029 71.3873 69.4183V69.5465C71.3873 69.5628 71.3782 69.5709 71.3593 69.5709H69.8449C69.826 69.5709 69.8161 69.5628 69.8161 69.5465V69.4183C69.8161 69.4029 69.826 69.3939 69.8449 69.3921L70.3452 69.3533C70.3624 69.3524 70.3714 69.3442 70.3714 69.3298V66.498C70.3714 66.4817 70.3642 66.4745 70.3506 66.4745H69.4937C69.4765 66.4745 69.4675 66.4808 69.4675 66.4935L69.3618 67.0533C69.3618 67.066 69.3537 67.0723 69.3366 67.0723H69.1397C69.1225 67.0723 69.1144 67.0633 69.1144 67.0461V66.2713C69.1144 66.2551 69.1225 66.2479 69.1397 66.2479H72.0636Z" fill="#231F20"/>
<path d="M73.3638 67.7929C73.3638 67.8091 73.371 67.8173 73.3845 67.8173C73.6293 67.8173 73.7999 67.8137 73.8984 67.8055C74.1494 67.7848 74.3327 67.6918 74.4474 67.5283C74.5133 67.4344 74.5458 67.3206 74.5458 67.1852C74.5458 66.7111 74.2225 66.4745 73.576 66.4745H73.39C73.3728 66.4745 73.3638 66.4817 73.3638 66.498V67.7929ZM73.6636 66.2479C74.1413 66.2479 74.4853 66.3165 74.6957 66.4546C74.9413 66.6172 75.0641 66.8375 75.0641 67.1156C75.0641 67.4353 74.8971 67.6782 74.5612 67.8444C74.4582 67.8958 74.3471 67.9356 74.2279 67.9645C74.4104 68.0466 74.5819 68.2317 74.7418 68.5189L75.196 69.3343C75.2032 69.347 75.2158 69.3533 75.2348 69.3533L75.6195 69.3921C75.6366 69.3921 75.6448 69.4011 75.6448 69.4183V69.5465C75.6448 69.5628 75.6366 69.5709 75.6195 69.5709H74.7914C74.7725 69.5709 74.7589 69.5646 74.7526 69.551L74.2984 68.6616C74.0799 68.2336 73.7972 68.0204 73.4514 68.0204H73.39C73.3728 68.0204 73.3638 68.0268 73.3638 68.0394V69.3298C73.3638 69.3442 73.3728 69.3524 73.39 69.3533L73.8902 69.3921C73.9092 69.3939 73.9191 69.4029 73.9191 69.4183V69.5465C73.9191 69.5628 73.9092 69.5709 73.8902 69.5709H72.4165C72.3994 69.5709 72.3912 69.5628 72.3912 69.5465V69.4183C72.3912 69.4011 72.3994 69.3921 72.4165 69.3921L72.8662 69.3533C72.8834 69.3533 72.8915 69.346 72.8915 69.3298V66.489C72.8915 66.4727 72.8834 66.4646 72.8662 66.4646L72.4165 66.423C72.3994 66.423 72.3912 66.4158 72.3912 66.3996V66.2713C72.3912 66.2551 72.3994 66.2479 72.4165 66.2479H73.6636Z" fill="#231F20"/>
<path d="M77.4468 66.9133C77.4396 66.9034 77.4333 66.8989 77.426 66.8989C77.4161 66.8989 77.4089 66.9034 77.4053 66.9133L76.9077 68.0945C76.8969 68.117 76.905 68.1288 76.9312 68.1288H77.8857C77.9128 68.1288 77.9227 68.117 77.9137 68.0945L77.4468 66.9133ZM77.9606 69.5709C77.9435 69.5709 77.9344 69.5627 77.9344 69.5465V69.4192C77.9344 69.4011 77.9435 69.3921 77.9606 69.3921L78.3733 69.3532C78.3832 69.3532 78.3904 69.3505 78.3941 69.3442C78.3968 69.3379 78.3968 69.3298 78.3941 69.3198L78.0013 68.35C77.9949 68.341 77.9877 68.3356 77.9814 68.3356H76.8301C76.821 68.3374 76.8147 68.3419 76.8093 68.35L76.3912 69.3298C76.3831 69.3505 76.3912 69.3614 76.4174 69.3632L76.8147 69.3921C76.8319 69.3939 76.8409 69.4029 76.8409 69.4192V69.5465C76.8409 69.5627 76.8319 69.5709 76.8147 69.5709H75.6715C75.6544 69.5709 75.6448 69.5628 75.6448 69.5465L75.6453 69.4192C75.6453 69.4011 75.6544 69.3921 75.6715 69.3921L76.105 69.3532C76.114 69.3523 76.1203 69.3469 76.1257 69.3388L77.4703 66.1774C77.4766 66.1675 77.4838 66.163 77.4911 66.163H77.622C77.631 66.1648 77.6373 66.1693 77.6428 66.1774L78.879 69.3343C78.8826 69.3442 78.8898 69.3487 78.9024 69.3487L79.3223 69.3921C79.3386 69.3921 79.3458 69.4011 79.3458 69.4192V69.5465C79.3458 69.5627 79.3368 69.5709 79.3178 69.5709H77.9606Z" fill="#231F20"/>
<path d="M79.5985 66.2714C79.5985 66.2551 79.6075 66.247 79.6247 66.247H81.0568C81.074 66.247 81.0821 66.2551 81.0821 66.2714V66.3996C81.0821 66.415 81.074 66.424 81.0568 66.424L80.5818 66.4646C80.5647 66.4646 80.5557 66.4727 80.5557 66.489V69.3199C80.5557 69.3362 80.5647 69.3443 80.5818 69.3443H81.8072C81.8244 69.3443 81.8334 69.338 81.8334 69.3244L81.9391 68.7745C81.9391 68.7618 81.9481 68.7555 81.9652 68.7555H82.1612C82.1783 68.7555 82.1865 68.7637 82.1865 68.7799V69.5466C82.1865 69.5628 82.1783 69.5709 82.1612 69.5709H79.6247C79.6075 69.5709 79.5985 69.5628 79.5985 69.5466V69.4192C79.5985 69.4012 79.6075 69.3921 79.6247 69.3921L80.068 69.3533C80.0852 69.3533 80.0942 69.3452 80.0942 69.3298V66.489C80.0942 66.4727 80.0852 66.4646 80.068 66.4646L79.6247 66.424C79.6075 66.424 79.5985 66.415 79.5985 66.3996V66.2714Z" fill="#231F20"/>
<path d="M87.0351 65.12C87.1164 65.12 87.2085 65.1254 87.3114 65.1363C87.4153 65.1462 87.5191 65.1598 87.6248 65.176C87.7304 65.1914 87.8343 65.2085 87.9363 65.2275C88.0383 65.2464 88.1268 65.2618 88.2018 65.2744C88.2262 65.279 88.2379 65.2898 88.2379 65.306V66.2831C88.2379 66.3039 88.2262 66.3138 88.2018 66.3138H87.9408C87.93 66.3138 87.9219 66.312 87.9146 66.3075C87.9083 66.3039 87.9047 66.2975 87.9047 66.2894L87.7702 65.5643C87.7702 65.5517 87.7611 65.5417 87.7431 65.5327C87.7042 65.5246 87.6537 65.5128 87.5923 65.4984C87.53 65.4839 87.4677 65.4695 87.4026 65.4559C87.3376 65.4424 87.2708 65.4316 87.2013 65.4225C87.1326 65.4144 87.0658 65.4099 87.0017 65.4099C86.701 65.4099 86.4337 65.4541 86.1998 65.5426C85.966 65.6302 85.7682 65.7557 85.6084 65.9174C85.4476 66.079 85.3257 66.2723 85.2418 66.498C85.1587 66.7238 85.1171 66.9721 85.1171 67.243C85.1171 67.5265 85.1605 67.7956 85.249 68.0494C85.3366 68.304 85.4621 68.527 85.6246 68.7203C85.7872 68.9135 85.9831 69.0661 86.2125 69.1772C86.4428 69.2883 86.6965 69.3443 86.9755 69.3443C87.0243 69.3443 87.083 69.3424 87.1534 69.3379C87.2238 69.3334 87.2934 69.3271 87.3629 69.319C87.4324 69.3108 87.5011 69.3 87.5688 69.2874C87.6374 69.2747 87.6952 69.2558 87.7431 69.2305C87.7611 69.2205 87.7702 69.2088 87.7702 69.1962L87.9047 68.4683C87.9047 68.4647 87.9083 68.4593 87.9146 68.453C87.9219 68.4467 87.93 68.4431 87.9408 68.4431H88.2018C88.2262 68.4431 88.2379 68.4539 88.2379 68.4747V69.4481C88.2379 69.4607 88.2262 69.4716 88.2018 69.4797C88.1268 69.4987 88.0447 69.5176 87.9544 69.5366C87.8641 69.5556 87.7656 69.5727 87.66 69.5899C87.5525 69.607 87.4379 69.6206 87.315 69.6323C87.1922 69.644 87.0559 69.6495 86.9069 69.6495C86.6604 69.6495 86.4292 69.6242 86.2125 69.5727C85.9967 69.5212 85.7971 69.4463 85.6147 69.3488C85.4323 69.2512 85.2707 69.1348 85.1289 68.9993C84.9871 68.8639 84.8679 68.714 84.7713 68.5487C84.6747 68.3844 84.5988 68.2038 84.5456 68.0069C84.4914 67.811 84.4643 67.6078 84.4643 67.3974C84.4643 67.1563 84.4959 66.9323 84.5582 66.7265C84.6214 66.5206 84.7099 66.3328 84.8255 66.163C84.9411 65.9932 85.0774 65.8433 85.2336 65.7142C85.3908 65.5851 85.5641 65.4767 85.7529 65.3882C85.9416 65.2997 86.1457 65.2329 86.3642 65.1878C86.5827 65.1426 86.8067 65.12 87.0351 65.12Z" fill="#231F20"/>
<path d="M90.5217 66.3246C90.1271 66.3246 89.8164 66.4726 89.5889 66.7688C89.3848 67.0361 89.2828 67.3639 89.2828 67.754C89.2828 68.0339 89.3324 68.2931 89.4318 68.5315C89.5437 68.797 89.7063 69.0092 89.9203 69.1663C90.1343 69.3243 90.3781 69.4038 90.6526 69.4038C91.0481 69.4038 91.3524 69.2512 91.5665 68.9469C91.7498 68.6832 91.8419 68.3527 91.8419 67.9554C91.8419 67.5102 91.7263 67.1327 91.4951 66.823C91.2468 66.4907 90.9217 66.3246 90.5217 66.3246ZM90.5831 66.0988C91.1141 66.0988 91.543 66.2659 91.8699 66.6C92.1904 66.926 92.3503 67.344 92.3503 67.8542C92.3503 68.3617 92.1895 68.7816 91.8671 69.1139C91.5367 69.458 91.1086 69.6295 90.5831 69.6295C90.0557 69.6295 89.6223 69.4634 89.2828 69.1311C88.9442 68.7988 88.7744 68.3798 88.7744 67.8741C88.7744 67.363 88.9414 66.9413 89.2756 66.6072C89.616 66.2686 90.0521 66.0988 90.5831 66.0988Z" fill="#231F20"/>
<path d="M92.6554 66.2C92.6554 66.1828 92.6644 66.1747 92.6815 66.1747H93.6089C93.617 66.1765 93.6243 66.1801 93.6297 66.1846L95.5811 68.6525V66.4402C95.5811 66.4239 95.5738 66.4158 95.5585 66.4158L95.1702 66.3761C95.153 66.3761 95.1449 66.367 95.1449 66.3499V66.2C95.1449 66.1828 95.153 66.1747 95.1702 66.1747H96.2646C96.2818 66.1747 96.2908 66.1828 96.2908 66.2V66.3499C96.2908 66.367 96.2818 66.3761 96.2646 66.3761L95.8691 66.4158C95.852 66.4158 95.8438 66.4239 95.8438 66.4402V69.5727C95.8438 69.5889 95.833 69.5971 95.8122 69.5971H95.7129C95.7039 69.5962 95.6957 69.5907 95.6867 69.5826L93.4184 66.7129V69.2909C93.4184 69.309 93.4256 69.318 93.4392 69.318L93.8247 69.3569C93.8419 69.3569 93.85 69.365 93.85 69.3812V69.5338C93.85 69.5501 93.8419 69.5582 93.8247 69.5582H92.7303C92.7113 69.5582 92.7014 69.5501 92.7014 69.5338V69.3812C92.7014 69.365 92.7113 69.3569 92.7303 69.3569L93.1285 69.318C93.1475 69.318 93.1565 69.309 93.1565 69.2909V66.4402C93.1565 66.4239 93.1475 66.4158 93.1285 66.4158L92.6815 66.3761C92.6644 66.3761 92.6554 66.367 92.6554 66.3499V66.2Z" fill="#231F20"/>
<path d="M98.3272 67.0298C98.3101 67.0298 98.3019 67.0226 98.3019 67.0099L98.1963 66.4447C98.1963 66.4356 98.1891 66.4275 98.1737 66.4203C98.0229 66.3571 97.8604 66.3246 97.6852 66.3246C97.5037 66.3246 97.3502 66.3706 97.2229 66.4627C97.0829 66.5638 97.0125 66.6984 97.0125 66.8673C97.0125 67.0298 97.0748 67.1671 97.2003 67.2799C97.2843 67.3549 97.4206 67.4343 97.6112 67.5183L97.9525 67.6682C98.2198 67.7856 98.4139 67.9048 98.5358 68.0258C98.6884 68.1784 98.7643 68.3671 98.7643 68.5938C98.7643 68.9306 98.6288 69.1925 98.3588 69.3794C98.1168 69.5455 97.8143 69.6295 97.4495 69.6295C97.2626 69.6295 97.0477 69.6033 96.8039 69.551C96.7361 69.5365 96.6738 69.5185 96.617 69.4968C96.5998 69.4905 96.5917 69.4823 96.5917 69.4724V68.7139C96.5917 68.6976 96.5998 68.6895 96.617 68.6895H96.8328C96.8499 68.694 96.8581 68.7003 96.8581 68.7085L96.9637 69.2756C96.9655 69.281 96.9691 69.2846 96.9736 69.2882L96.9863 69.3026C97.11 69.3622 97.2816 69.3911 97.5001 69.3911C97.7159 69.3911 97.8974 69.3433 98.0428 69.2467C98.2089 69.1365 98.292 68.983 98.292 68.7852C98.292 68.5098 98.0997 68.2868 97.7159 68.1143L97.3691 67.9599C97.1163 67.847 96.9276 67.7314 96.8039 67.614C96.6413 67.4578 96.5601 67.2745 96.5601 67.0641C96.5601 66.8528 96.6278 66.665 96.7632 66.5015C96.8951 66.3426 97.0685 66.2297 97.2825 66.1629C97.4188 66.1205 97.5642 66.0988 97.7159 66.0988C97.92 66.0988 98.1295 66.1223 98.3426 66.1701C98.4013 66.1828 98.4645 66.1999 98.5331 66.2189C98.5503 66.2225 98.5584 66.2306 98.5584 66.2442V67.0054C98.5584 67.0217 98.5503 67.0298 98.5331 67.0298H98.3272Z" fill="#231F20"/>
<path d="M101.635 66.1747C101.653 66.1747 101.662 66.1828 101.662 66.2V66.9874C101.662 67.0055 101.653 67.0145 101.635 67.0145H101.44C101.423 67.0145 101.415 67.0082 101.415 66.9955L101.309 66.4257C101.309 66.4122 101.301 66.4059 101.284 66.4059H100.08C100.062 66.4059 100.053 66.414 100.053 66.4302V67.6728C100.053 67.689 100.062 67.6971 100.08 67.6971H100.804C100.823 67.6971 100.832 67.6908 100.832 67.6773L100.883 67.27C100.883 67.2574 100.891 67.2502 100.909 67.2502H101.053C101.07 67.2502 101.078 67.2583 101.078 67.2745V68.3672C101.078 68.3843 101.07 68.3925 101.053 68.3925H100.909C100.891 68.3925 100.883 68.3852 100.883 68.3726L100.832 67.9401C100.832 67.9256 100.823 67.9184 100.804 67.9184H100.08C100.062 67.9184 100.053 67.9274 100.053 67.9455V69.3027C100.053 69.3189 100.062 69.328 100.08 69.328H101.355C101.374 69.328 101.384 69.3207 101.384 69.3081L101.489 68.7482C101.489 68.7347 101.498 68.7284 101.515 68.7284H101.71C101.728 68.7284 101.736 68.7365 101.736 68.7528V69.5338C101.736 69.5501 101.728 69.5582 101.71 69.5582H99.1215C99.1043 69.5582 99.0953 69.5501 99.0953 69.5338V69.4038C99.0953 69.3858 99.1043 69.3767 99.1215 69.3767L99.5685 69.337C99.5847 69.337 99.5938 69.3289 99.5938 69.3126V66.4104C99.5865 66.4013 99.5784 66.3959 99.5685 66.3959L99.1215 66.3544C99.1043 66.3544 99.0953 66.3463 99.0953 66.33V66.2C99.0953 66.1828 99.1043 66.1747 99.1215 66.1747H101.635Z" fill="#231F20"/>
<path d="M103.136 67.7486C103.136 67.7649 103.144 67.773 103.157 67.773C103.4 67.773 103.571 67.7694 103.668 67.7613C103.918 67.7396 104.101 67.6457 104.215 67.4786C104.28 67.3838 104.313 67.2673 104.313 67.1301C104.313 66.647 103.991 66.4059 103.347 66.4059H103.162C103.144 66.4059 103.136 66.414 103.136 66.4302V67.7486ZM103.434 66.1747C103.91 66.1747 104.252 66.2451 104.462 66.386C104.707 66.5512 104.829 66.7761 104.829 67.0587C104.829 67.3847 104.662 67.6321 104.328 67.8001C104.225 67.8525 104.115 67.894 103.997 67.9229C104.178 68.0069 104.349 68.1947 104.508 68.4882L104.96 69.318C104.967 69.3307 104.979 69.337 104.998 69.337L105.381 69.3767C105.398 69.3767 105.407 69.3858 105.407 69.4038V69.5338C105.407 69.5501 105.398 69.5582 105.381 69.5582H104.557C104.538 69.5582 104.525 69.5519 104.518 69.5384L104.066 68.6327C103.849 68.1974 103.568 67.9798 103.224 67.9798H103.162C103.144 67.9798 103.136 67.9861 103.136 67.9997V69.3126C103.136 69.328 103.144 69.3361 103.162 69.337L103.66 69.3767C103.679 69.3785 103.688 69.3876 103.688 69.4038V69.5338C103.688 69.5501 103.679 69.5582 103.66 69.5582H102.194C102.176 69.5582 102.167 69.5501 102.167 69.5338V69.4038C102.167 69.3858 102.176 69.3767 102.194 69.3767L102.641 69.337C102.658 69.337 102.666 69.3289 102.666 69.3126V66.4203C102.666 66.4041 102.658 66.3959 102.641 66.3959L102.194 66.3544C102.176 66.3544 102.167 66.3463 102.167 66.33V66.2C102.167 66.1837 102.176 66.1747 102.194 66.1747H103.434Z" fill="#231F20"/>
<path d="M106.838 66.1747C106.855 66.1747 106.864 66.1828 106.864 66.2V66.33C106.864 66.3463 106.855 66.3544 106.838 66.3544L106.427 66.3959C106.417 66.3959 106.41 66.3995 106.406 66.4059C106.403 66.4122 106.403 66.4203 106.406 66.4302L107.38 68.9198L108.385 66.4203C108.393 66.3995 108.385 66.3878 108.359 66.386L107.963 66.3544C107.946 66.3526 107.938 66.3445 107.938 66.33V66.2C107.938 66.1828 107.946 66.1747 107.963 66.1747H109.106C109.123 66.1747 109.132 66.1828 109.132 66.2V66.33C109.132 66.3463 109.123 66.3544 109.106 66.3544L108.675 66.3959C108.667 66.3977 108.659 66.4022 108.654 66.4104L107.345 69.6151C107.341 69.6241 107.333 69.6296 107.321 69.6296H107.185C107.175 69.6296 107.168 69.6241 107.164 69.6151L105.924 66.4158C105.921 66.4059 105.913 66.4013 105.903 66.4013L105.482 66.3544C105.466 66.3544 105.459 66.3463 105.459 66.33V66.2C105.459 66.1828 105.468 66.1747 105.487 66.1747H106.838Z" fill="#231F20"/>
<path d="M110.946 66.8529C110.938 66.8429 110.932 66.8384 110.925 66.8384C110.915 66.8384 110.908 66.8429 110.904 66.8529L110.408 68.0556C110.398 68.0782 110.406 68.09 110.432 68.09H111.382C111.41 68.09 111.419 68.0782 111.411 68.0556L110.946 66.8529ZM111.457 69.5582C111.439 69.5582 111.431 69.5501 111.431 69.5339V69.4038C111.431 69.3858 111.439 69.3767 111.457 69.3767L111.868 69.337C111.878 69.337 111.885 69.3343 111.888 69.328C111.892 69.3207 111.892 69.3126 111.888 69.3027L111.498 68.3157C111.491 68.3058 111.484 68.3013 111.477 68.3013H110.332C110.323 68.3031 110.316 68.3076 110.311 68.3157L109.894 69.3126C109.886 69.3343 109.894 69.3451 109.921 69.3469L110.316 69.3767C110.333 69.3785 110.341 69.3876 110.341 69.4038V69.5339C110.341 69.5501 110.333 69.5582 110.316 69.5582H109.178C109.161 69.5582 109.152 69.5501 109.152 69.5339V69.4038C109.152 69.3858 109.161 69.3767 109.178 69.3767L109.61 69.337C109.618 69.3361 109.625 69.3307 109.63 69.3226L110.968 66.1043C110.975 66.0943 110.983 66.0889 110.989 66.0889H111.12C111.129 66.0907 111.135 66.0961 111.141 66.1043L112.371 69.318C112.374 69.328 112.382 69.3325 112.394 69.3325L112.813 69.3767C112.828 69.3767 112.836 69.3858 112.836 69.4038V69.5339C112.836 69.5501 112.827 69.5582 112.808 69.5582H111.457Z" fill="#231F20"/>
<path d="M115.929 66.1747C115.945 66.1747 115.954 66.1828 115.954 66.2V66.9874C115.954 67.0055 115.945 67.0145 115.929 67.0145H115.733C115.716 67.0145 115.708 67.0082 115.708 66.9955L115.602 66.4257C115.602 66.4122 115.594 66.4059 115.577 66.4059H114.724C114.71 66.4059 114.704 66.414 114.704 66.4302V69.3126C114.704 69.328 114.712 69.3361 114.729 69.337L115.228 69.3767C115.247 69.3785 115.256 69.3876 115.256 69.4038V69.5338C115.256 69.5501 115.247 69.5582 115.228 69.5582H113.72C113.701 69.5582 113.692 69.5501 113.692 69.5338V69.4038C113.692 69.3876 113.701 69.3785 113.72 69.3767L114.218 69.337C114.235 69.3361 114.243 69.328 114.243 69.3126V66.4302C114.243 66.414 114.237 66.4059 114.223 66.4059H113.37C113.353 66.4059 113.345 66.4122 113.345 66.4257L113.239 66.9955C113.239 67.0082 113.231 67.0145 113.214 67.0145H113.018C113.001 67.0145 112.993 67.0055 112.993 66.9874V66.2C112.993 66.1828 113.001 66.1747 113.018 66.1747H115.929Z" fill="#231F20"/>
<path d="M118.007 66.3246C117.613 66.3246 117.302 66.4726 117.074 66.7688C116.87 67.0361 116.769 67.3639 116.769 67.754C116.769 68.0339 116.819 68.2931 116.918 68.5315C117.029 68.797 117.192 69.0092 117.406 69.1663C117.62 69.3243 117.864 69.4038 118.138 69.4038C118.533 69.4038 118.839 69.2512 119.053 68.9469C119.236 68.6832 119.327 68.3527 119.327 67.9554C119.327 67.5102 119.212 67.1327 118.98 66.823C118.732 66.4907 118.408 66.3246 118.007 66.3246ZM118.068 66.0988C118.599 66.0988 119.028 66.2659 119.355 66.6C119.676 66.926 119.836 67.344 119.836 67.8542C119.836 68.3617 119.675 68.7816 119.353 69.1139C119.023 69.458 118.594 69.6295 118.068 69.6295C117.541 69.6295 117.108 69.4634 116.769 69.1311C116.429 68.7988 116.261 68.3798 116.261 67.8741C116.261 67.363 116.427 66.9413 116.761 66.6072C117.102 66.2686 117.537 66.0988 118.068 66.0988Z" fill="#231F20"/>
<path d="M121.2 67.7486C121.2 67.7649 121.208 67.773 121.221 67.773C121.464 67.773 121.635 67.7694 121.732 67.7613C121.982 67.7396 122.165 67.6457 122.28 67.4786C122.345 67.3838 122.377 67.2673 122.377 67.1301C122.377 66.647 122.055 66.4059 121.411 66.4059H121.226C121.209 66.4059 121.2 66.414 121.2 66.4302V67.7486ZM121.498 66.1747C121.974 66.1747 122.317 66.2451 122.526 66.386C122.771 66.5512 122.893 66.7761 122.893 67.0587C122.893 67.3847 122.726 67.6321 122.392 67.8001C122.289 67.8525 122.179 67.894 122.061 67.9229C122.242 68.0069 122.413 68.1947 122.572 68.4882L123.024 69.318C123.031 69.3307 123.043 69.337 123.062 69.337L123.445 69.3767C123.462 69.3767 123.471 69.3858 123.471 69.4038V69.5338C123.471 69.5501 123.462 69.5582 123.445 69.5582H122.621C122.602 69.5582 122.589 69.5519 122.582 69.5384L122.131 68.6327C121.913 68.1974 121.632 67.9798 121.288 67.9798H121.226C121.209 67.9798 121.2 67.9861 121.2 67.9997V69.3126C121.2 69.328 121.209 69.3361 121.226 69.337L121.724 69.3767C121.743 69.3785 121.752 69.3876 121.752 69.4038V69.5338C121.752 69.5501 121.743 69.5582 121.724 69.5582H120.258C120.241 69.5582 120.232 69.5501 120.232 69.5338V69.4038C120.232 69.3858 120.241 69.3767 120.258 69.3767L120.705 69.337C120.722 69.337 120.73 69.3289 120.73 69.3126V66.4203C120.73 66.4041 120.722 66.3959 120.705 66.3959L120.258 66.3544C120.241 66.3544 120.232 66.3463 120.232 66.33V66.2C120.232 66.1837 120.241 66.1747 120.258 66.1747H121.498Z" fill="#231F20"/>
<path d="M126.271 66.4257C126.275 66.4221 126.276 66.4185 126.276 66.4131C126.276 66.395 126.267 66.386 126.248 66.386L125.886 66.3544C125.869 66.3544 125.86 66.3463 125.86 66.33V66.2C125.86 66.1828 125.869 66.1747 125.886 66.1747H126.975C126.993 66.1747 127.001 66.1828 127.001 66.2V66.33C127.001 66.3463 126.993 66.3544 126.975 66.3544L126.58 66.3914C126.571 66.3923 126.564 66.3959 126.559 66.4013L125.513 68.1143C125.51 68.1198 125.509 68.1279 125.509 68.1396V69.3126C125.509 69.3289 125.517 69.337 125.534 69.337L125.981 69.3767C125.998 69.3767 126.006 69.3858 126.006 69.4038V69.5338C126.006 69.5501 125.998 69.5582 125.981 69.5582H124.576C124.559 69.5582 124.55 69.5501 124.55 69.5338V69.4038C124.55 69.3858 124.559 69.3767 124.576 69.3767L125.023 69.337C125.04 69.337 125.048 69.3289 125.048 69.3126V68.1667C125.048 68.1532 125.047 68.1423 125.044 68.1342L124.019 66.4059C124.012 66.3995 124.004 66.3959 123.998 66.3959L123.551 66.3544C123.532 66.3544 123.523 66.3463 123.523 66.33V66.2C123.523 66.1828 123.532 66.1747 123.551 66.1747H124.948C124.967 66.1747 124.977 66.1828 124.977 66.2V66.33C124.977 66.3463 124.967 66.3544 124.948 66.3544L124.571 66.386C124.561 66.386 124.553 66.3914 124.55 66.4013C124.547 66.4113 124.547 66.4194 124.55 66.4257L125.392 67.8841L126.271 66.4257Z" fill="#231F20"/>
<path d="M60.0817 72.0984C59.6473 72.0984 59.3042 72.27 59.0522 72.6131C58.8274 72.922 58.7145 73.3012 58.7145 73.7518C58.7145 74.076 58.7696 74.3767 58.8798 74.653C59.0026 74.96 59.1814 75.2047 59.418 75.3871C59.6545 75.5704 59.9236 75.6616 60.2261 75.6616C60.6632 75.6616 60.9991 75.4856 61.2357 75.1334C61.438 74.8282 61.5391 74.4453 61.5391 73.9848C61.5391 73.4701 61.4118 73.033 61.1562 72.6754C60.8826 72.2908 60.5241 72.0984 60.0817 72.0984ZM60.1494 71.8375C60.7354 71.8375 61.2095 72.0307 61.5707 72.4163C61.9238 72.7937 62.1008 73.2777 62.1008 73.8683C62.1008 74.4561 61.9229 74.942 61.568 75.3266C61.2032 75.724 60.73 75.9226 60.1494 75.9226C59.5679 75.9226 59.0893 75.7303 58.7145 75.3465C58.3407 74.9618 58.1538 74.4769 58.1538 73.8918C58.1538 73.3003 58.338 72.8118 58.7064 72.4253C59.083 72.0334 59.5633 71.8375 60.1494 71.8375Z" fill="#231F20"/>
<path d="M65.2998 72.5165C65.3178 72.5165 65.326 72.5246 65.326 72.5409V73.3147C65.326 73.3328 65.3178 73.3418 65.2998 73.3418H65.1192C65.1011 73.3418 65.093 73.3355 65.093 73.322L64.9964 72.763C64.9964 72.7504 64.9873 72.7432 64.9702 72.7432H63.8911C63.8758 72.7432 63.8676 72.7513 63.8676 72.7675V74.0633C63.8676 74.076 63.8758 74.0823 63.8911 74.0823H64.5413C64.5575 74.0823 64.5656 74.076 64.5656 74.0633L64.6162 73.6624C64.6162 73.6498 64.6243 73.6434 64.6397 73.6434H64.7724C64.7905 73.6434 64.7986 73.6516 64.7986 73.6669V74.7189C64.7986 74.7352 64.7905 74.7433 64.7724 74.7433H64.6397C64.6243 74.7433 64.6162 74.737 64.6162 74.7234L64.5656 74.3189C64.5656 74.3053 64.5575 74.299 64.5413 74.299H63.8911C63.8758 74.299 63.8676 74.3053 63.8676 74.3189V75.5993C63.8676 75.6156 63.8758 75.6237 63.8911 75.6237L64.3101 75.6616C64.3263 75.6616 64.3345 75.6707 64.3345 75.6887V75.8161C64.3345 75.8323 64.3263 75.8404 64.3101 75.8404H62.9935C62.9773 75.8404 62.9691 75.8323 62.9691 75.8161V75.6887C62.9691 75.6707 62.9773 75.6616 62.9935 75.6616L63.4125 75.6237C63.4288 75.6237 63.436 75.6156 63.436 75.5993V72.7486C63.4333 72.7386 63.4288 72.7341 63.4224 72.7341H63.4125L62.9935 72.6926C62.9773 72.6926 62.9691 72.6854 62.9691 72.6691V72.5409C62.9691 72.5246 62.9755 72.5165 62.989 72.5165H65.2998Z" fill="#231F20"/>
<path d="M69.879 75.0602L71.1215 72C71.1251 71.9882 71.1324 71.9828 71.1441 71.9828H71.7762V75.6138C71.7762 75.6309 71.787 75.6408 71.8078 75.6427L72.3297 75.6878C72.3487 75.6896 72.3577 75.7004 72.3577 75.7194V75.8702C72.3577 75.8892 72.3487 75.8982 72.3297 75.8982H70.6962C70.6773 75.8982 70.6673 75.8892 70.6673 75.8702V75.7194C70.6673 75.7004 70.6773 75.6896 70.6962 75.6878L71.2434 75.6427C71.2624 75.6408 71.2714 75.6309 71.2714 75.6138V72.3837H71.2489L69.814 75.9379C69.8104 75.9461 69.8013 75.9497 69.786 75.9497H69.7264C69.711 75.9497 69.7011 75.9461 69.6975 75.9379L68.2401 72.4235L67.9818 75.6138C67.9818 75.6327 67.9917 75.6427 68.0107 75.6427L68.4929 75.6878C68.5137 75.6878 68.5236 75.6986 68.5236 75.7194V75.8702C68.5236 75.8892 68.5137 75.8982 68.4929 75.8982H67.1628C67.1438 75.8982 67.1339 75.8892 67.1339 75.8702V75.7194C67.1339 75.7004 67.1438 75.6896 67.1628 75.6878L67.6811 75.6427C67.7001 75.6408 67.71 75.6309 67.71 75.6138L67.9683 72.2672V71.9828H68.6175L69.879 75.0602Z" fill="#231F20"/>
<path d="M73.0902 72.4902C73.0902 72.4722 73.0821 72.4631 73.064 72.4631L72.6062 72.418C72.5881 72.418 72.5791 72.409 72.5791 72.3909V72.25C72.5791 72.232 72.5881 72.2229 72.6062 72.2229H74.0835C74.1016 72.2229 74.1097 72.232 74.1097 72.25V72.3909C74.1097 72.409 74.1016 72.418 74.0835 72.418L73.5941 72.4631C73.5742 72.4631 73.5643 72.4722 73.5643 72.4902V74.4606C73.5643 74.7333 73.5796 74.9428 73.6094 75.09C73.6329 75.2037 73.6799 75.3022 73.7503 75.3834C73.9408 75.602 74.2144 75.7112 74.5729 75.7112C74.9585 75.7112 75.2457 75.5586 75.4353 75.2525C75.4958 75.1568 75.5355 75.0069 75.5554 74.8019C75.5662 74.6917 75.5717 74.559 75.5717 74.4019V72.4902C75.5717 72.4722 75.5626 72.4631 75.5446 72.4631L75.0813 72.418C75.0642 72.418 75.0551 72.409 75.0551 72.3909V72.25C75.0551 72.232 75.0642 72.2229 75.0813 72.2229H76.3464C76.3636 72.2229 76.3726 72.232 76.3726 72.25V72.3909C76.3726 72.409 76.3636 72.418 76.3464 72.418L75.8985 72.4631C75.8814 72.4631 75.8724 72.4722 75.8724 72.4902V74.3811C75.8724 74.978 75.7495 75.3952 75.5048 75.6318C75.2673 75.8611 74.9314 75.9758 74.4989 75.9758C74.0104 75.9758 73.6438 75.853 73.3963 75.6074C73.288 75.499 73.2139 75.3861 73.1733 75.2688C73.1182 75.1107 73.0902 74.9067 73.0902 74.6583V72.4902Z" fill="#231F20"/>
<path d="M78.4377 73.1512C78.4206 73.1512 78.4115 73.144 78.4115 73.1295L78.3023 72.5164C78.3023 72.5065 78.2941 72.4965 78.2788 72.4902C78.1226 72.4207 77.9537 72.3855 77.7731 72.3855C77.5844 72.3855 77.4245 72.436 77.2936 72.5354C77.1482 72.6455 77.0751 72.7918 77.0751 72.9751C77.0751 73.1512 77.1401 73.3002 77.2692 73.423C77.3568 73.5052 77.4986 73.591 77.6954 73.6822L78.0494 73.8447C78.3266 73.9729 78.528 74.1021 78.6535 74.2339C78.8115 74.3992 78.891 74.605 78.891 74.8498C78.891 75.2164 78.7501 75.5008 78.4702 75.7031C78.2201 75.8846 77.9058 75.9758 77.5275 75.9758C77.3342 75.9758 77.1121 75.9469 76.8593 75.89C76.7888 75.8747 76.7238 75.8548 76.6651 75.8313C76.648 75.8241 76.6389 75.816 76.6389 75.8051V74.9807C76.6389 74.9635 76.648 74.9536 76.6651 74.9536H76.8891C76.9071 74.959 76.9153 74.9662 76.9153 74.9753L77.0245 75.5911C77.0263 75.5965 77.0299 75.601 77.0354 75.6047L77.0489 75.6209C77.1762 75.685 77.3541 75.7166 77.5808 75.7166C77.8047 75.7166 77.9916 75.6643 78.1424 75.5595C78.3149 75.4403 78.4007 75.2733 78.4007 75.0583C78.4007 74.7595 78.202 74.5165 77.8047 74.3296L77.4453 74.1617C77.1825 74.0389 76.9875 73.9142 76.8593 73.786C76.6913 73.6172 76.6064 73.4185 76.6064 73.1882C76.6064 72.9598 76.6769 72.7557 76.8168 72.5778C76.9532 72.4053 77.1329 72.2825 77.355 72.2103C77.4968 72.1633 77.6467 72.1408 77.8047 72.1408C78.016 72.1408 78.2318 72.166 78.454 72.2175C78.5145 72.232 78.5804 72.25 78.6508 72.2708C78.6689 72.2753 78.6779 72.2834 78.6779 72.2979V73.125C78.6779 73.1422 78.6689 73.1512 78.6508 73.1512H78.4377Z" fill="#231F20"/>
<path d="M80.7273 72.2229C80.7453 72.2229 80.7544 72.232 80.7544 72.25V72.3909C80.7544 72.409 80.7453 72.418 80.7273 72.418L80.2649 72.4631C80.2469 72.4631 80.2378 72.4722 80.2378 72.4902V75.6318C80.2378 75.6498 80.2469 75.6579 80.2649 75.6579L80.7273 75.7013C80.7453 75.7013 80.7544 75.7112 80.7544 75.7302V75.872C80.7544 75.8891 80.7453 75.8981 80.7273 75.8981H79.2608C79.2436 75.8981 79.2346 75.8891 79.2346 75.872V75.7302C79.2346 75.7112 79.2436 75.7013 79.2608 75.7013L79.724 75.6579C79.7421 75.6579 79.7511 75.6498 79.7511 75.6318V72.4902C79.7511 72.4722 79.7421 72.4631 79.724 72.4631L79.2608 72.418C79.2436 72.418 79.2346 72.409 79.2346 72.3909V72.25C79.2346 72.232 79.2436 72.2229 79.2608 72.2229H80.7273Z" fill="#231F20"/>
<path d="M83.2397 72.1408C83.3056 72.1408 83.3797 72.1453 83.4637 72.1543C83.5467 72.1624 83.6316 72.1742 83.7165 72.1868C83.8014 72.2004 83.8854 72.2157 83.9675 72.2311C84.0506 72.2473 84.1219 72.2609 84.1824 72.2717C84.2014 72.2753 84.2113 72.2834 84.2113 72.2979V73.125C84.2113 73.1422 84.2014 73.1512 84.1824 73.1512H83.972C83.963 73.1512 83.9558 73.1494 83.9504 73.1458C83.945 73.1422 83.9423 73.1368 83.9423 73.1295L83.8339 72.5164C83.8339 72.5056 83.8267 72.4974 83.8122 72.4902C83.7806 72.483 83.7391 72.4731 83.6894 72.4604C83.6397 72.4478 83.5892 72.436 83.5368 72.4243C83.4844 72.4126 83.4303 72.4035 83.3743 72.3963C83.3183 72.39 83.265 72.3855 83.2135 72.3855C82.9697 72.3855 82.7539 72.4234 82.5652 72.4983C82.3765 72.5724 82.2166 72.678 82.0875 72.8153C81.9575 72.9526 81.859 73.116 81.7922 73.3074C81.7245 73.4989 81.6911 73.7084 81.6911 73.9377C81.6911 74.1779 81.7263 74.4055 81.7967 74.6204C81.8681 74.8362 81.9692 75.0249 82.101 75.1884C82.232 75.3527 82.39 75.4818 82.576 75.5758C82.7611 75.6697 82.967 75.7166 83.1919 75.7166C83.2307 75.7166 83.2785 75.7148 83.3354 75.7112C83.3923 75.7076 83.4492 75.7031 83.5052 75.6959C83.5603 75.6886 83.6163 75.6796 83.6714 75.6688C83.7264 75.6579 83.7734 75.6426 83.8122 75.6209C83.8267 75.6119 83.8339 75.6019 83.8339 75.5911L83.9423 74.9753C83.9423 74.9717 83.945 74.9671 83.9504 74.9617C83.9558 74.9572 83.963 74.9545 83.972 74.9545H84.1824C84.2014 74.9545 84.2113 74.9626 84.2113 74.9807V75.8051C84.2113 75.816 84.2014 75.8241 84.1824 75.8313C84.1219 75.8476 84.0551 75.8638 83.9829 75.8792C83.9097 75.8954 83.8303 75.9108 83.7445 75.9252C83.6587 75.9388 83.5657 75.9514 83.4664 75.9604C83.367 75.9704 83.2569 75.9758 83.1359 75.9758C82.9372 75.9758 82.7503 75.9541 82.576 75.9099C82.4008 75.8665 82.2401 75.8033 82.0929 75.7211C81.9457 75.6381 81.8148 75.5396 81.7001 75.425C81.5854 75.3103 81.4897 75.183 81.4112 75.0439C81.3335 74.9039 81.2721 74.7513 81.2287 74.5852C81.1854 74.4181 81.1637 74.2465 81.1637 74.0687C81.1637 73.8646 81.189 73.675 81.2396 73.5007C81.2901 73.3264 81.3624 73.1675 81.4554 73.023C81.5484 72.8794 81.6586 72.753 81.785 72.6437C81.9123 72.5336 82.0514 72.4415 82.2049 72.3674C82.3575 72.2925 82.5218 72.2365 82.6979 72.1976C82.8749 72.1597 83.0555 72.1408 83.2397 72.1408Z" fill="#231F20"/>
</g>
<defs>
<filter id="filter0_d_185_294" x="0" y="0" width="154" height="157" filterUnits="userSpaceOnUse" color-interpolation-filters="sRGB">
<feFlood flood-opacity="0" result="BackgroundImageFix"/>
<feColorMatrix in="SourceAlpha" type="matrix" values="0 0 0 0 0 0 0 0 0 0 0 0 0 0 0 0 0 0 127 0" result="hardAlpha"/>
<feOffset dy="16"/>
<feGaussianBlur stdDeviation="6.5"/>
<feColorMatrix type="matrix" values="0 0 0 0 0 0 0 0 0 0 0 0 0 0 0 0 0 0 0.03 0"/>
<feBlend mode="normal" in2="BackgroundImageFix" result="effect1_dropShadow_185_294"/>
<feBlend mode="normal" in="SourceGraphic" in2="effect1_dropShadow_185_294" result="shape"/>
</filter>
</defs>
</svg>
