<svg width="154" height="157" viewBox="0 0 154 157" fill="none" xmlns="http://www.w3.org/2000/svg">
<g filter="url(#filter0_d_185_161)">
<rect width="128" height="128" transform="translate(13)" fill="white"/>
<path d="M30.0873 76.8349L29.9193 77.4142C29.835 77.3527 29.741 77.3057 29.6412 77.2752C29.5375 77.2462 29.4303 77.2313 29.3226 77.2308C29.1902 77.2242 29.058 77.2467 28.9352 77.2968C28.8124 77.3468 28.7021 77.4232 28.612 77.5204C28.4287 77.7431 28.3351 78.0261 28.3494 78.3141C28.3448 78.4107 28.3595 78.5072 28.3927 78.5981C28.4258 78.6889 28.4768 78.7723 28.5425 78.8432C28.6123 78.9094 28.6949 78.9606 28.7852 78.9938C28.8755 79.027 28.9716 79.0415 29.0677 79.0363C29.1684 79.0356 29.2686 79.0206 29.3651 78.9919C29.4714 78.9606 29.5738 78.9172 29.6702 78.8625L29.6065 79.5133C29.4895 79.547 29.3709 79.5747 29.2512 79.5963C29.1405 79.6117 29.0289 79.6194 28.9171 79.6195C28.7473 79.6291 28.5775 79.6029 28.4185 79.5427C28.2595 79.4825 28.1149 79.3896 27.994 79.27C27.7603 79.0006 27.6404 78.6509 27.66 78.2948C27.6611 78.0828 27.6984 77.8725 27.77 77.673C27.8307 77.4852 27.9278 77.3113 28.0558 77.1612C28.1915 76.9979 28.3644 76.8695 28.5599 76.7866C28.7734 76.7042 29.001 76.6642 29.2299 76.6688C29.3687 76.6683 29.5072 76.6819 29.6432 76.7094C29.7931 76.742 29.9407 76.7839 30.0854 76.8349H30.0873ZM30.5508 76.7345H31.2344L31.0355 77.7946H31.8156L32.0184 76.7345H32.702L32.169 79.5538H31.4816L31.7094 78.3604H30.9273L30.7033 79.5538H30.0178L30.5508 76.7345ZM33.3122 76.7345H33.9842L33.4474 79.5538H32.7773L33.3122 76.7345ZM34.608 76.7345H35.4345L35.8207 78.1654C35.8574 78.2909 35.8844 78.401 35.9037 78.4937C35.923 78.5864 35.9327 78.6675 35.9443 78.7544H35.9732C35.977 78.6669 35.9867 78.5798 36.0022 78.4937C36.0157 78.401 36.0331 78.2871 36.0601 78.1596L36.3266 76.7345H36.9388L36.4039 79.5538H35.5832L35.1564 77.9781C35.1371 77.9047 35.1197 77.8313 35.1042 77.7579C35.0899 77.68 35.0796 77.6014 35.0733 77.5223H35.0463C35.0463 77.6247 35.0212 77.7251 35.0116 77.8197C35.0019 77.9144 34.9826 77.9974 34.9671 78.0785L34.6891 79.5538H34.0731L34.608 76.7345ZM38.6342 77.2868L38.0762 78.4203H38.754L38.6342 77.2868ZM38.2982 76.7345H39.1305L39.5361 79.5538H38.8698L38.8042 78.9533H37.8116L37.5104 79.5538H36.8113L38.2982 76.7345ZM41.3397 76.7345H42.0136L41.7085 78.3064C41.6923 78.3731 41.6807 78.4408 41.6737 78.5091C41.6664 78.5732 41.6625 78.6377 41.6622 78.7022C41.6607 78.7512 41.6689 78.8 41.6865 78.8458C41.7041 78.8915 41.7306 78.9333 41.7645 78.9687C41.7966 79.0037 41.8357 79.0316 41.8793 79.0506C41.9229 79.0695 41.97 79.0791 42.0175 79.0788C42.0817 79.0806 42.1454 79.0655 42.202 79.035C42.2586 79.0045 42.3062 78.9597 42.34 78.905C42.4441 78.7084 42.514 78.4955 42.5466 78.2755L42.8517 76.7306H43.5005L43.178 78.486C43.1431 78.8077 43.008 79.1103 42.7918 79.3511C42.5705 79.5444 42.2817 79.6423 41.9885 79.6234C41.7221 79.641 41.4594 79.5537 41.2566 79.38C41.1681 79.2867 41.0997 79.1761 41.0558 79.0552C41.012 78.9342 40.9936 78.8055 41.0017 78.6771V78.484C41.0017 78.4261 41.021 78.3566 41.0307 78.3006L41.3358 76.7364L41.3397 76.7345ZM44.1204 76.7345H44.945L45.3428 78.1615C45.3795 78.2871 45.4084 78.3971 45.4258 78.4898C45.4432 78.5825 45.4548 78.6636 45.4664 78.7505H45.4953C45.5001 78.6631 45.5098 78.5761 45.5243 78.4898C45.5378 78.3971 45.5571 78.2832 45.5822 78.1557L45.8506 76.7306H46.4628L45.9221 79.5538H45.0937L44.6669 77.9781C44.6476 77.9047 44.6302 77.8313 44.6167 77.7579C44.6008 77.6802 44.5898 77.6015 44.5839 77.5223H44.5588C44.5472 77.6247 44.5317 77.7251 44.5221 77.8197C44.5124 77.9144 44.4931 77.9974 44.4777 78.0785L44.1996 79.5538H43.5836L44.1204 76.7345ZM47.0692 76.7345H47.7392L47.2043 79.5538H46.5342L47.0692 76.7345ZM48.7666 76.7345L48.9114 78.2581C48.9114 78.3315 48.923 78.4048 48.9268 78.4744C48.9307 78.5439 48.9268 78.6153 48.9268 78.6849V78.9784H48.9442C48.9713 78.8838 49.0002 78.7853 49.035 78.6849C49.0697 78.5844 49.118 78.4782 49.174 78.3643L49.9349 76.7345H50.6397L49.2455 79.5538H48.4325L48.1023 76.7345H48.7666ZM51.0336 76.7345H52.8064L52.704 77.2578H51.6033L51.4971 77.8236H52.5341L52.4395 78.3315H51.3986L51.2692 79.0267H52.4105L52.3081 79.5538H50.4968L51.0336 76.7345ZM53.8936 77.2501L53.7738 77.9086H54.0133C54.1409 77.9157 54.2677 77.8834 54.3763 77.8159C54.4176 77.7835 54.4506 77.7417 54.4724 77.694C54.4943 77.6463 54.5044 77.5941 54.5018 77.5417C54.5053 77.501 54.4992 77.4602 54.4841 77.4223C54.4691 77.3844 54.4454 77.3506 54.4149 77.3235C54.3392 77.2694 54.247 77.2434 54.1543 77.2501H53.8936ZM53.3393 76.7345H54.2894C54.5271 76.716 54.7643 76.7771 54.9634 76.9083C55.0407 76.9712 55.1017 77.0517 55.1414 77.1431C55.181 77.2345 55.1981 77.3341 55.1912 77.4335C55.1988 77.6176 55.1336 77.7973 55.0097 77.9337C54.8714 78.0645 54.6902 78.1407 54.4999 78.148C54.5645 78.1908 54.6186 78.2476 54.6583 78.3141C54.7054 78.4018 54.7362 78.4973 54.749 78.596L54.9421 79.5616H54.2817L54.104 78.6559C54.0945 78.5919 54.0631 78.5333 54.0152 78.4898C53.952 78.4516 53.8784 78.4341 53.8047 78.4396H53.685L53.4745 79.5616H52.8141L53.3471 76.7422L53.3393 76.7345ZM57.522 76.7982L57.3676 77.3466C57.2782 77.302 57.1843 77.267 57.0875 77.2423C56.9925 77.2207 56.8954 77.2097 56.7979 77.2095C56.6788 77.2029 56.5601 77.2282 56.4542 77.2829C56.4166 77.3043 56.3855 77.3356 56.3644 77.3734C56.3433 77.4112 56.333 77.454 56.3344 77.4972C56.3344 77.5996 56.4252 77.6904 56.6028 77.7753L56.7728 77.8603C56.9377 77.9384 57.0834 78.0518 57.1995 78.1924C57.2798 78.3156 57.3196 78.4607 57.3135 78.6076C57.3192 78.7461 57.2937 78.8842 57.2389 79.0115C57.1841 79.1389 57.1013 79.2523 56.9968 79.3433C56.7561 79.5376 56.4521 79.6359 56.1433 79.6195C55.9963 79.6202 55.8496 79.608 55.7049 79.5828C55.567 79.5562 55.4319 79.5168 55.3013 79.465L55.4461 78.8857C55.5425 78.9404 55.6449 78.9838 55.7512 79.0151C55.8451 79.0444 55.9426 79.06 56.0409 79.0614C56.1828 79.0691 56.3238 79.0348 56.4464 78.9629C56.4921 78.938 56.53 78.9011 56.5562 78.8562C56.5824 78.8112 56.5959 78.76 56.5951 78.708C56.5951 78.5728 56.4657 78.4435 56.2089 78.3218C56.1433 78.2928 56.093 78.2716 56.0564 78.2523C55.9273 78.196 55.8168 78.1042 55.7377 77.9877C55.665 77.868 55.6281 77.73 55.6315 77.5899C55.6276 77.4646 55.652 77.34 55.7028 77.2253C55.7536 77.1107 55.8296 77.0089 55.925 76.9276C56.1407 76.7473 56.4168 76.6555 56.6975 76.6707C56.8577 76.6698 57.0178 76.6808 57.1764 76.7036C57.3002 76.719 57.4216 76.7501 57.5375 76.7963L57.522 76.7982ZM58.1902 76.7345H58.8603L58.3254 79.5538H57.6553L58.1902 76.7345ZM59.3006 76.7345H61.2471L61.1428 77.279H60.4997L60.0691 79.5538H59.3913L59.8239 77.279H59.2001L59.3006 76.7345ZM61.3031 76.7345H62.035L62.2705 77.5552C62.2705 77.5552 62.2821 77.6035 62.2995 77.673C62.3169 77.7425 62.3285 77.8101 62.3439 77.8757C62.3825 77.7985 62.4192 77.7328 62.4521 77.673C62.4849 77.6131 62.51 77.5745 62.5274 77.5475L63.0565 76.7345H63.8405L62.5969 78.4898L62.4038 79.5538H61.7376L61.9307 78.4898L61.3185 76.7345H61.3031ZM66.6695 77.839C66.6792 77.671 66.6374 77.5039 66.5498 77.3601C66.5112 77.3064 66.4601 77.263 66.4008 77.2337C66.3415 77.2045 66.276 77.1902 66.2099 77.1921C66.1045 77.1922 66.0023 77.2283 65.9203 77.2945C65.8196 77.3758 65.7367 77.477 65.6769 77.5919C65.6116 77.7136 65.5629 77.8434 65.5321 77.9781C65.4964 78.1241 65.4783 78.2738 65.478 78.4242C65.4691 78.5909 65.5123 78.7562 65.6016 78.8973C65.6381 78.9513 65.6877 78.9953 65.7458 79.025C65.8039 79.0547 65.8686 79.0692 65.9338 79.0672C66.0374 79.0677 66.1382 79.033 66.2196 78.9687C66.3239 78.8859 66.4094 78.7819 66.4706 78.6636C66.5355 78.5417 66.5842 78.4119 66.6154 78.2774C66.651 78.132 66.6692 77.9829 66.6695 77.8333V77.839ZM66.2524 76.6688C66.4036 76.6605 66.5548 76.6848 66.6958 76.7401C66.8367 76.7954 66.9641 76.8804 67.0692 76.9894C67.2752 77.2387 67.3794 77.5567 67.3608 77.8796C67.3613 78.082 67.3333 78.2835 67.2778 78.4782C67.2306 78.6614 67.1536 78.8356 67.0499 78.9938C66.9251 79.1877 66.7547 79.3482 66.5537 79.4611C66.3582 79.5713 66.1369 79.6273 65.9125 79.6234C65.7602 79.6313 65.6079 79.6064 65.466 79.5505C65.3241 79.4945 65.1958 79.4087 65.0899 79.2989C64.8825 79.0472 64.7777 78.7266 64.7964 78.401C64.7963 78.2056 64.821 78.0109 64.8698 77.8217C64.9129 77.6488 64.9833 77.4839 65.0783 77.3331C65.2037 77.128 65.3782 76.9574 65.5862 76.8368C65.7898 76.724 66.0196 76.6667 66.2524 76.6707V76.6688ZM68.112 76.7345H69.794L69.6916 77.2578H68.6778L68.5658 77.868H69.5372L69.4387 78.3971H68.4635L68.2472 79.5538H67.5771L68.112 76.7345ZM71.8235 77.2423L71.6826 77.9974H71.8602C71.998 78.0079 72.1349 77.9689 72.2464 77.8873C72.2896 77.8494 72.3239 77.8024 72.3466 77.7496C72.3693 77.6968 72.3799 77.6396 72.3778 77.5822C72.3816 77.536 72.3745 77.4896 72.357 77.4466C72.3396 77.4037 72.3123 77.3655 72.2773 77.335C72.1944 77.2722 72.0914 77.242 71.9877 77.2501L71.8235 77.2423ZM71.2442 76.7345H71.9915C72.2667 76.715 72.5409 76.7826 72.7756 76.9276C72.8614 76.9963 72.9291 77.0851 72.9725 77.1861C73.016 77.2871 73.0339 77.3973 73.0247 77.5069C73.0326 77.6487 73.011 77.7906 72.9611 77.9236C72.9112 78.0566 72.8342 78.1777 72.735 78.2793C72.5173 78.4725 72.232 78.5718 71.9413 78.5555H71.5822L71.3891 79.5828H70.7228L71.2558 76.7634L71.2442 76.7345ZM75.1411 77.839C75.1508 77.671 75.109 77.5039 75.0214 77.3601C74.9824 77.3064 74.9309 77.263 74.8713 77.2337C74.8118 77.2045 74.7459 77.1902 74.6796 77.1921C74.5742 77.1922 74.472 77.2283 74.3899 77.2945C74.2893 77.3754 74.207 77.4768 74.1485 77.5919C74.0826 77.7135 74.0332 77.8434 74.0018 77.9781C73.967 78.1243 73.9489 78.2739 73.9477 78.4242C73.9388 78.5909 73.9819 78.7562 74.0713 78.8973C74.108 78.9516 74.1579 78.9958 74.2164 79.0255C74.2748 79.0552 74.3399 79.0696 74.4054 79.0672C74.509 79.0674 74.6097 79.0327 74.6912 78.9687C74.7943 78.8852 74.8791 78.7813 74.9403 78.6636C75.0068 78.5425 75.0556 78.4124 75.0851 78.2774C75.1213 78.1321 75.1401 77.983 75.1411 77.8333V77.839ZM74.724 76.6688C74.8749 76.6602 75.0259 76.6844 75.1666 76.7398C75.3073 76.7951 75.4343 76.8803 75.5389 76.9894C75.7456 77.2384 75.8505 77.5564 75.8324 77.8796C75.8319 78.082 75.804 78.2834 75.7494 78.4782C75.7014 78.6611 75.6245 78.8352 75.5215 78.9938C75.3957 79.1869 75.2256 79.3471 75.0253 79.4611C74.8291 79.5713 74.6071 79.6273 74.3822 79.6234C74.2302 79.6311 74.0782 79.6062 73.9366 79.5502C73.7951 79.4943 73.6671 79.4086 73.5615 79.2989C73.3533 79.0477 73.2484 78.7267 73.268 78.401C73.2682 78.2057 73.2922 78.0112 73.3394 77.8217C73.3832 77.6487 73.4543 77.4838 73.5499 77.3331C73.6742 77.1272 73.849 76.9563 74.0578 76.8368C74.2613 76.7235 74.4912 76.6662 74.724 76.6707V76.6688ZM76.6493 76.7345H77.3252L76.8945 78.9938H77.9354L77.8253 79.5538H76.1124L76.6493 76.7345ZM78.7542 76.7345H79.4242L78.8893 79.5538H78.2192L78.7542 76.7345ZM79.8645 76.7345H81.811L81.7068 77.279H81.0656L80.6331 79.5538H79.9553L80.3878 77.279H79.7641L79.8645 76.7345ZM82.2185 76.7345H82.8886L82.3537 79.5538H81.6817L82.2185 76.7345ZM85.5612 76.8349L85.3951 77.4142C85.3101 77.3527 85.2155 77.3057 85.1151 77.2752C85.0114 77.2461 84.9042 77.2312 84.7965 77.2308C84.6641 77.2246 84.532 77.2473 84.4093 77.2973C84.2865 77.3474 84.1762 77.4235 84.0858 77.5204C83.9047 77.746 83.8144 78.0312 83.8329 78.3199C83.8279 78.4165 83.8424 78.5132 83.8756 78.6041C83.9087 78.695 83.9599 78.7783 84.026 78.849C84.0956 78.9154 84.1782 78.9669 84.2686 79.0001C84.3589 79.0333 84.4551 79.0476 84.5512 79.0421C84.6513 79.0413 84.7508 79.0263 84.8467 78.9977C84.9531 78.9668 85.0556 78.9234 85.1518 78.8683L85.0861 79.5171C84.9693 79.5513 84.8507 79.579 84.7308 79.6002C84.6208 79.6154 84.5098 79.6232 84.3987 79.6234C84.2286 79.6329 84.0585 79.6067 83.8992 79.5465C83.7399 79.4863 83.5949 79.3934 83.4737 79.2738C83.2406 79.0042 83.1215 78.6545 83.1415 78.2986C83.1418 78.087 83.177 77.8769 83.2458 77.6768C83.308 77.4898 83.405 77.3161 83.5316 77.1651C83.6679 77.0024 83.8405 76.8741 84.0356 76.7905C84.2493 76.7082 84.4768 76.6682 84.7057 76.6727C84.8445 76.6721 84.9829 76.6857 85.119 76.7132C85.2688 76.7458 85.4165 76.7877 85.5612 76.8388V76.8349ZM87.1215 77.2868L86.5634 78.4203H87.247L87.1273 77.2868H87.1215ZM86.7835 76.7345H87.6178L88.0233 79.5538H87.3571L87.2914 78.9533H86.3066L86.0053 79.5538H85.2985L86.7835 76.7345ZM88.9232 76.7345H89.601L89.1703 78.9938H90.2112L90.1011 79.5538H88.3883L88.9232 76.7345ZM93.6562 76.7982L93.5017 77.3466C93.4124 77.302 93.3185 77.267 93.2217 77.2423C93.1267 77.2207 93.0295 77.2097 92.9321 77.2095C92.813 77.2029 92.6943 77.2282 92.5883 77.2829C92.5507 77.3043 92.5197 77.3356 92.4986 77.3734C92.4775 77.4112 92.4671 77.454 92.4686 77.4972C92.4686 77.5996 92.5594 77.6904 92.737 77.7753L92.907 77.8603C93.0719 77.9384 93.2176 78.0518 93.3337 78.1924C93.4134 78.3158 93.4525 78.4609 93.4457 78.6076C93.4518 78.746 93.4267 78.884 93.3722 79.0114C93.3177 79.1387 93.2353 79.2522 93.131 79.3433C92.8903 79.5376 92.5863 79.6359 92.2774 79.6195C92.1305 79.6202 91.9838 79.608 91.8391 79.5828C91.7012 79.5562 91.566 79.5168 91.4355 79.465L91.5803 78.8857C91.6767 78.9404 91.7791 78.9838 91.8854 79.0151C91.9793 79.0443 92.0768 79.0599 92.1751 79.0614C92.317 79.0689 92.4579 79.0346 92.5806 78.9629C92.6262 78.938 92.6642 78.9011 92.6904 78.8562C92.7166 78.8112 92.73 78.76 92.7293 78.708C92.7293 78.5728 92.598 78.4435 92.3431 78.3218C92.2774 78.2928 92.2272 78.2716 92.1905 78.2523C92.0615 78.196 91.951 78.1042 91.8719 77.9877C91.7992 77.868 91.7623 77.73 91.7657 77.5899C91.7618 77.4646 91.7862 77.34 91.837 77.2253C91.8878 77.1107 91.9638 77.0089 92.0592 76.9276C92.2749 76.7473 92.5509 76.6555 92.8316 76.6707C92.9919 76.6698 93.1519 76.6808 93.3105 76.7036C93.4344 76.719 93.5557 76.7501 93.6717 76.7963L93.6562 76.7982ZM96.3539 76.8349L96.1879 77.4142C96.1028 77.3527 96.0082 77.3057 95.9078 77.2752C95.8041 77.2461 95.6969 77.2312 95.5892 77.2308C95.4568 77.2243 95.3246 77.2469 95.2019 77.297C95.0791 77.347 94.9688 77.4233 94.8786 77.5204C94.6974 77.746 94.6072 78.0312 94.6256 78.3199C94.621 78.4165 94.6358 78.513 94.6689 78.6039C94.7021 78.6947 94.753 78.778 94.8187 78.849C94.8889 78.9153 94.9718 78.9666 95.0624 78.9998C95.1531 79.033 95.2495 79.0474 95.3459 79.0421C95.446 79.0413 95.5454 79.0263 95.6413 78.9977C95.7478 78.9668 95.8502 78.9234 95.9465 78.8683L95.8789 79.5133C95.7619 79.547 95.6433 79.5747 95.5236 79.5963C95.4135 79.6116 95.3025 79.6193 95.1914 79.6195C95.0214 79.629 94.8512 79.6028 94.6919 79.5426C94.5326 79.4824 94.3877 79.3895 94.2664 79.27C94.0333 79.0003 93.9142 78.6506 93.9343 78.2948C93.9335 78.0831 93.9688 77.8728 94.0386 77.673C94.1007 77.4859 94.1977 77.3123 94.3244 77.1612C94.4606 76.9985 94.6333 76.8702 94.8284 76.7866C95.042 76.7044 95.2696 76.6644 95.4985 76.6688C95.6372 76.6682 95.7757 76.6818 95.9117 76.7094C96.0616 76.742 96.2093 76.7839 96.3539 76.8349ZM96.8386 76.7345H97.5087L96.9719 79.5538H96.3018L96.8386 76.7345ZM98.1363 76.7345H99.909L99.8067 77.2578H98.706L98.6017 77.8236H99.6367L99.5421 78.3315H98.5032L98.3719 79.0267H99.5131L99.4127 79.5538H97.6014L98.1363 76.7345ZM101.263 76.7345L101.649 78.1654C101.686 78.2909 101.715 78.401 101.732 78.4937C101.749 78.5864 101.761 78.6675 101.772 78.7544H101.801C101.806 78.667 101.816 78.58 101.83 78.4937C101.844 78.401 101.863 78.2871 101.888 78.1596L102.157 76.7345H102.769L102.232 79.5538H101.408L100.979 77.9781C100.961 77.9047 100.942 77.8313 100.929 77.7579C100.914 77.68 100.903 77.6014 100.896 77.5223H100.871C100.859 77.6247 100.846 77.7251 100.834 77.8197C100.822 77.9144 100.805 77.9974 100.79 78.0785L100.512 79.5538H99.8955L100.432 76.7345H101.263ZM105.414 76.8349L105.248 77.4142C105.163 77.3527 105.069 77.3057 104.968 77.2752C104.865 77.2461 104.758 77.2312 104.65 77.2308C104.517 77.2243 104.385 77.2469 104.262 77.297C104.14 77.347 104.029 77.4233 103.939 77.5204C103.758 77.746 103.668 78.0312 103.686 78.3199C103.681 78.4165 103.696 78.5132 103.729 78.6041C103.762 78.695 103.813 78.7783 103.879 78.849C103.949 78.9154 104.032 78.9669 104.122 79.0001C104.212 79.0333 104.308 79.0476 104.405 79.0421C104.505 79.0413 104.604 79.0263 104.7 78.9977C104.806 78.9668 104.909 78.9234 105.005 78.8683L104.939 79.5171C104.823 79.5513 104.704 79.579 104.584 79.6002C104.474 79.6154 104.363 79.6232 104.252 79.6234C104.082 79.6329 103.912 79.6067 103.753 79.5465C103.593 79.4863 103.448 79.3934 103.327 79.2738C103.094 79.0042 102.975 78.6545 102.995 78.2986C102.994 78.087 103.029 77.8767 103.099 77.6768C103.161 77.4898 103.258 77.3161 103.385 77.1651C103.521 77.0024 103.694 76.8741 103.889 76.7905C104.103 76.7082 104.33 76.6682 104.559 76.6727C104.698 76.6721 104.836 76.6857 104.972 76.7132C105.122 76.7458 105.27 76.7877 105.414 76.8388V76.8349ZM105.884 76.7345H107.656L107.554 77.2578H106.453L106.347 77.8236H107.384L107.29 78.3315H106.251L106.119 79.0267H107.261L107.16 79.5538H105.349L105.884 76.7345ZM110.252 77.2868L109.694 78.4203H110.372L110.252 77.2868ZM110.748 76.7345L111.154 79.5538H110.487L110.42 78.9533H109.435L109.134 79.5538H108.427L109.912 76.7345H110.748ZM112.809 76.7345L113.195 78.1654C113.231 78.2909 113.26 78.401 113.278 78.4937C113.295 78.5864 113.307 78.6675 113.318 78.7544H113.347C113.347 78.6771 113.363 78.5864 113.376 78.4937C113.39 78.401 113.409 78.2871 113.434 78.1596L113.703 76.7345H114.315L113.778 79.5538H112.953L112.525 77.9781C112.507 77.9047 112.488 77.8313 112.474 77.7579C112.459 77.68 112.449 77.6014 112.442 77.5223H112.417C112.405 77.6247 112.391 77.7251 112.38 77.8197C112.368 77.9144 112.351 77.9974 112.337 78.0785L112.057 79.5538H111.441L111.978 76.7345H112.809ZM115.508 77.279L115.182 78.9977H115.464C115.59 79.0011 115.717 78.9821 115.836 78.9417C115.939 78.9037 116.031 78.8407 116.103 78.7582C116.195 78.6521 116.265 78.5296 116.312 78.3971C116.363 78.2561 116.389 78.107 116.389 77.9568C116.4 77.7752 116.342 77.5961 116.225 77.4567C116.164 77.3958 116.092 77.3484 116.012 77.3177C115.932 77.2871 115.847 77.2739 115.761 77.279H115.508ZM114.929 76.7345H115.765C116.207 76.7345 116.537 76.8349 116.754 77.0434C116.869 77.1695 116.957 77.3178 117.012 77.4792C117.068 77.6407 117.09 77.8118 117.076 77.9819C117.079 78.2101 117.041 78.437 116.964 78.652C116.898 78.8434 116.789 79.0171 116.646 79.1599C116.507 79.2974 116.339 79.4005 116.153 79.4611C115.924 79.5285 115.685 79.5598 115.446 79.5538H114.396L114.929 76.7345ZM118.876 76.7345H119.552L119.121 78.9938H120.16L120.052 79.5538H118.339L118.876 76.7345ZM122.058 77.2868L121.5 78.4203H122.176L122.058 77.2868ZM122.555 76.7345L122.96 79.5538H122.292L122.228 78.9533H121.234L120.935 79.5538H120.228L121.713 76.7345H122.555ZM123.503 76.7345H124.13L124.117 77.9935C124.117 78.0746 124.117 78.2021 124.101 78.3797C124.086 78.5574 124.073 78.7544 124.055 78.9861H124.08C124.113 78.8548 124.146 78.737 124.179 78.6269C124.212 78.5169 124.233 78.4338 124.258 78.3546L124.828 76.7383H125.648L125.631 78.2832V78.6694C125.631 78.7737 125.619 78.8895 125.612 78.9842H125.637C125.656 78.8895 125.681 78.7911 125.714 78.6868C125.747 78.5825 125.781 78.4512 125.834 78.3006L126.336 76.7441H127L125.938 79.5635H125.115L125.137 78.0727C125.137 77.9221 125.137 77.785 125.148 77.6498C125.16 77.5146 125.16 77.3852 125.169 77.2636H125.14C125.104 77.393 125.069 77.5127 125.036 77.6208C125.003 77.729 124.97 77.8294 124.938 77.9259L124.387 79.5635H123.551L123.511 76.7441L123.503 76.7345Z" fill="#9B0D14"/>
<path d="M37.9024 49.8327C37.8155 50.7654 38.8679 52.0361 37.5973 52.5884C37.4215 53.2662 36.6761 53.9401 37.0179 54.6643C38.3311 54.1989 39.8199 54.0714 41.135 53.606C42.5369 53.4361 42.842 54.9192 43.6319 55.5545C44.1571 56.2342 43.7188 57.1669 43.4117 57.7173C42.6393 58.565 41.9769 60.1331 40.4881 59.7102C39.2618 59.6677 37.9912 60.6429 37.0276 61.6181C36.3266 63.5665 36.765 66.0267 36.6414 68.23C36.5101 69.2477 36.3343 70.2229 36.1586 71.1981C35.896 72.3007 36.904 73.9537 35.3263 74.2086C34.494 73.2431 34.4071 72.0845 34.5829 70.9007C35.195 69.2477 34.7142 67.5947 34.7586 65.8143C34.5288 65.2234 34.8378 64.2887 34.5288 63.6515C33.8722 63.8214 33.3895 64.5842 32.5977 64.2038C32.1594 63.7789 32.4664 63.0586 32.3795 62.5083C32.8179 61.3632 35.2259 61.5427 34.7451 59.7102C34.9632 58.9053 34.9632 58.0568 34.7451 57.2519C33.9997 57.3369 33.9128 58.3951 33.0805 58.3101C32.665 58.7124 32.3495 59.2065 32.1594 59.7526C32.6421 60.4304 31.5028 60.8958 32.2038 61.4481C32.0081 62.0977 31.8787 62.7654 31.8176 63.441C31.1166 63.694 30.1974 64.2462 29.452 63.8272C29.2763 63.0219 28.1814 63.1069 28.1389 62.3866C28.1389 61.6663 26.7369 61.8343 27.044 60.8611C27.3838 60.7278 27.5769 60.2605 27.2602 60.0095L27.042 59.8376C27.2602 59.1579 27.7855 58.8721 28.2238 58.3951C28.8379 58.1846 29.8015 58.4376 30.1955 58.7813C31.9469 57.9761 32.6923 56.3655 34.5751 55.8982C35.4074 54.9617 35.056 53.3087 34.9247 52.2852C34.1812 51.3197 35.2761 50.2151 35.6256 49.3249C36.2822 48.8093 37.6397 48.8575 37.9024 49.8327ZM39.874 55.7244C39.2947 56.2342 38.5609 56.6147 38.472 57.3369C38.0356 57.0395 37.0701 56.8271 37.2902 56.2767C38.0356 55.597 38.9104 55.9793 39.6983 55.5043L39.874 55.7148V55.7244ZM121.775 51.7059L121.95 53.019C122.336 53.2816 122.958 52.8877 123.263 53.3705C122.877 54.5079 121.294 54.8149 121.075 56.0411C120.987 56.829 119.585 58.1865 121.207 58.538C121.338 58.9242 121.593 59.2834 121.294 59.6773C122.433 59.7642 123.746 59.6329 124.229 60.9036C124.271 61.647 125.194 62.1298 124.928 62.8733C124.14 64.0995 122.696 62.8733 121.775 63.356C121.601 63.1803 121.425 63.3985 121.294 63.5298C121.041 63.4854 120.461 63.4854 120.286 63.8311C120.154 63.7866 119.981 63.8755 119.899 63.7442C119.513 63.918 119.899 64.1825 119.988 64.4007C119.899 65.4087 119.33 66.4148 118.805 67.2973C119.374 67.3417 119.287 67.9095 119.813 68.0852C120.469 67.699 121.257 67.4731 121.958 67.9983C122.178 68.4791 122.396 68.9638 122.396 69.5316C121.782 69.8811 120.863 69.7942 120.206 69.8367C119.637 70.976 120.162 73.0345 118.629 73.3841C117.578 73.4285 117.798 72.2892 116.966 71.8083C116.704 71.4221 116.79 71.2831 116.877 70.8428C116.922 70.5802 117.534 70.3619 117.229 69.9661C117.534 69.5799 118.235 69.3983 118.455 68.8712C118.279 68.3459 117.489 68.6529 117.623 67.952C117.71 67.2954 117.754 66.6002 118.061 66.0209L117.93 65.8896C117.798 66.4689 117.271 66.7219 116.746 66.8107C116.308 66.3724 116.265 65.9784 116.659 65.4956L118.805 63.6129C119.461 63.8311 119.506 63.1301 120.12 63.2614C120.907 62.9119 121.782 62.3422 122.659 62.0352C122.79 61.6856 123.491 61.2473 123.142 60.8534C122.615 60.5038 122.045 60.722 121.564 60.4671C119.506 61.4752 118.235 63.0509 116.35 64.3293C115.342 65.5555 113.898 66.299 113.021 67.6121C112.585 67.9983 112.233 67.2259 111.839 67.699C111.49 67.6121 111.453 67.3128 111.138 67.0868C111.314 66.5597 110.789 66.3415 110.962 65.8162C112.102 65.5536 112.627 64.4645 113.504 64.2385C114.073 64.7638 114.029 63.5375 114.686 63.6592C114.299 63.1784 114.817 62.5218 114.774 62.039C114.292 61.1643 114.554 60.0249 114.073 59.1926C114.423 58.8856 113.853 58.6133 113.811 58.3179C113.682 57.8321 113.638 57.3279 113.679 56.8271H113.504C114.029 56.0392 112.847 55.7766 112.803 54.9887C112.716 54.6372 112.671 54.2008 113.11 54.0676C113.898 53.8049 114.462 54.112 115.08 54.5503C115.255 55.3382 115.694 56.2149 115.3 57.0472C116.001 57.5281 115.475 56.3907 115.869 56.1705C115.912 55.9079 115.738 55.5139 116.043 55.3382C115.562 55.0756 116.306 54.8574 115.956 54.5503C116.744 54.5503 116.306 53.7625 117.138 53.8049C119.11 55.0756 117.051 57.1785 117.358 58.8856C117.839 58.0977 117.937 56.7846 118.934 56.3462C118.496 55.96 119.32 55.6897 119.241 55.2513C119.11 54.1564 120.206 53.0171 119.722 51.7908C119.722 51.4413 120.118 51.4046 120.38 51.31C120.861 52.0979 121.386 50.6959 121.78 51.6962L121.775 51.7059ZM118.53 71.146C118.549 71.226 118.537 71.3102 118.497 71.3818C118.456 71.4534 118.39 71.5071 118.312 71.5322C118.049 71.4878 118.049 71.0494 118.312 70.9181C118.443 70.8756 118.617 71.0069 118.53 71.1382V71.146ZM116.427 62.2553L116.344 61.9405C116.389 62.0274 116.52 62.0719 116.476 62.1588L116.427 62.2553ZM119.407 59.8897C119.318 60.6351 118.706 60.8978 118.223 61.4674L118.049 61.3786L118.223 59.1888C118.399 59.7681 119.1 59.6715 119.407 59.8897ZM92.2118 53.102C92.4744 53.5385 92.3875 53.9343 92.2987 54.4538C91.6865 54.8033 91.5996 55.5487 91.2482 56.1164C92.036 55.7302 93.0441 56.381 93.7006 56.6436C93.7648 56.7237 93.8124 56.8159 93.8406 56.9146C93.8688 57.0133 93.877 57.1167 93.8648 57.2186C93.8526 57.3206 93.8202 57.4191 93.7694 57.5083C93.7187 57.5976 93.6507 57.6759 93.5693 57.7385C93.2623 58.0881 92.6945 58.5264 92.3875 57.9123C91.9047 58.2194 90.7229 57.8698 90.9411 58.789C91.0724 60.2335 92.5188 58.8759 92.9128 59.9709C92.3875 61.7243 90.3734 62.6435 90.4159 64.6054H91.337C91.4683 64.169 91.5108 63.4236 92.1249 63.2054C92.5307 63.351 92.9028 63.5774 93.2188 63.8708C93.5348 64.1641 93.788 64.5185 93.9633 64.9125C94.0054 65.3952 93.8678 65.8766 93.577 66.2642C92.8336 66.2217 91.7812 66.3955 91.2115 65.7834C90.2054 65.8703 90.3811 67.5349 89.1549 66.8783C88.6721 66.5713 88.7687 65.739 88.7687 65.2137C89.207 64.6885 89.7767 63.862 89.5585 63.1996C90.302 62.7612 90.0393 61.7532 90.8272 61.3593C90.8302 61.2858 90.8161 61.2127 90.7859 61.1457C90.7558 61.0786 90.7104 61.0195 90.6534 60.9731C90.3908 61.4114 90.2672 61.4539 89.7767 61.5524C89.1645 61.508 89.1646 61.0271 88.9 60.5869V60.2026C88.3323 61.2975 86.799 60.8147 86.1424 61.9541C85.6597 63.8851 85.3101 65.8162 84.3465 67.5542L84.0395 69.9622C83.688 70.3137 83.2072 70.3137 82.6877 70.3137C82.205 70.0066 81.5484 69.9622 81.1989 69.437C81.2858 68.736 80.9787 68.035 81.4171 67.2915C81.8033 67.1602 81.6353 66.635 82.1625 66.8107C82.6877 66.1522 83.4756 65.5825 83.4756 64.7078C83.914 64.225 84.3523 63.7422 84.2635 63.0432C84.9645 61.9927 85.7099 61.423 85.8412 60.108C86.6291 59.8453 86.9786 58.6635 87.8997 58.4878L88.1179 58.6191C89.4697 57.6536 90.5279 55.9484 90.0895 54.197C89.8994 53.6371 89.9305 53.0257 90.1764 52.488C90.8774 52.2253 92.0167 52.1384 92.2349 53.102H92.2118ZM59.5825 56.0353C57.524 57.8312 58.4451 60.9403 58.0067 63.2614C57.9866 64.1701 58.1818 65.0707 58.5764 65.8896C58.8815 66.7219 57.6553 67.2915 58.5764 67.9481C58.8815 68.9986 58.839 70.2248 58.9626 71.2309C58.9216 71.3641 58.8501 71.4859 58.7537 71.5865C58.6574 71.6872 58.5389 71.7641 58.4077 71.8109C58.2765 71.8578 58.1361 71.8734 57.9978 71.8565C57.8595 71.8397 57.727 71.7907 57.6109 71.7137C57.1281 71.2309 57.2594 70.2673 57.4351 69.6552L57.3038 69.5239C57.2169 69.6108 57.1281 69.6977 56.9968 69.6552C56.9524 69.5663 57.0837 69.5239 57.1281 69.435C56.6028 68.9542 57.4351 69.0855 57.3907 68.6472C57.6109 66.2816 56.6473 64.0126 57.0045 61.6837C56.8348 60.8912 56.9117 60.0657 57.2247 59.3182C57.0489 59.1868 57.2671 58.8798 57.0045 58.7929C56.5237 59.2313 55.6914 59.3182 55.1661 58.8798C54.9035 58.4936 55.1217 58.399 54.946 58.005C55.1661 57.6536 55.7339 57.698 56.1297 57.5223C56.3035 57.7849 56.655 57.6536 56.9176 57.698L57.1223 57.4373C56.7361 57.306 57.2111 57.1302 57.1223 56.912C57.0354 55.9909 56.5971 55.1161 56.9041 54.1525C55.2395 53.7663 53.5749 54.5909 52.48 55.8596C51.5145 56.8251 51.2538 58.007 50.5084 59.013C50.9467 59.1444 51.779 59.1888 52.173 58.7079C51.4295 58.2696 52.173 57.6999 52.0861 57.1302C52.5669 57.306 53.2679 56.7807 53.7507 57.306C54.189 58.1808 53.8376 59.8897 54.0577 60.975C54.4072 60.8881 54.4439 60.668 54.7567 60.975C55.2395 60.7568 55.7648 61.0194 56.1085 61.3612C56.6762 62.2804 55.3631 62.4117 55.7126 63.3328C55.3631 63.945 55.9772 64.3389 55.8015 64.9974C56.1877 66.3492 55.5388 67.5812 54.5308 68.3691H54.2836C54.2836 68.2378 54.1523 68.1934 54.0654 68.062C52.5322 68.0176 51.1302 71.173 49.904 68.763C49.8481 68.5702 49.8614 68.364 49.9414 68.18C50.0215 67.9959 50.1633 67.8456 50.3423 67.755C51.6554 68.1065 52.9705 67.5368 54.0654 66.9671C53.4958 66.7045 53.5827 65.961 53.4513 65.5652C53.0651 66.1445 52.0996 66.5307 51.7868 67.1428C51.4005 67.4924 50.9545 67.1428 50.5161 67.1428C50.4292 66.7566 50.0797 66.4863 50.211 66.0035L50.8232 65.2156C50.6049 65.2156 50.5605 64.953 50.6049 64.7773C51.1843 64.5147 50.7807 63.9006 51.2171 63.5066C50.8309 63.1571 50.1666 62.9814 50.4292 62.2379C50.7082 61.517 51.0753 60.8333 51.5222 60.2026C51.0838 59.94 50.3404 60.8147 50.0333 59.8955C49.2049 61.5543 49.3787 63.8311 49.2474 65.5825C49.1392 66.9302 48.9045 68.2646 48.5464 69.5683C48.1602 70.0066 47.7141 69.7884 47.2758 69.5683C46.5323 68.989 47.1001 68.0794 46.7949 67.3784C46.6636 66.4592 46.4087 65.3643 46.7505 64.4451C46.5099 63.6302 46.5099 62.7632 46.7505 61.9483C46.3122 61.4674 46.8374 60.9827 46.8818 60.5038C46.9687 58.5728 47.3627 57.0858 47.4612 55.1606C47.8107 54.896 47.6794 54.2839 48.1621 54.195C48.643 54.3263 49.1682 54.5445 49.344 55.0698C49.4309 56.2535 48.5561 57.1283 48.643 58.2232C48.5561 59.9747 47.1985 61.2898 47.6774 63.217C47.6125 63.3615 47.579 63.5181 47.579 63.6766C47.579 63.835 47.6125 63.9916 47.6774 64.1362C47.5905 64.3119 47.4148 64.5224 47.5905 64.7155C47.6774 64.8468 47.8088 64.758 47.9401 64.8024C48.0714 63.8832 48.5541 63.4506 48.3784 62.4368C48.7202 59.6233 49.4656 57.1302 51.3059 54.9887C52.1807 53.5867 54.0654 53.0576 55.7281 52.6231C56.0351 52.7544 56.5604 52.8413 56.823 52.5787C58.6633 52.6675 58.839 54.813 59.5825 56.0392V56.0353ZM47.7585 66.0209L47.6697 66.1097V65.627C47.801 65.6714 47.7141 65.8896 47.7585 66.0132V66.0209ZM54.3705 65.8896C54.2632 65.695 54.2069 65.4765 54.2069 65.2543C54.2069 65.0321 54.2632 64.8135 54.3705 64.6189C54.8977 64.8391 54.2836 65.4956 54.3705 65.8896ZM54.6332 64.0068C54.647 64.0925 54.6275 64.1803 54.5787 64.2522C54.5299 64.324 54.4554 64.3744 54.3705 64.393H54.2392C54.1967 64.2617 54.3705 63.7789 54.6254 64.0068H54.6332ZM53.9766 63.0413C53.9341 62.7342 54.0654 62.3403 54.1523 62.0332C54.5385 62.3403 54.021 62.6898 53.9766 63.0413ZM52.6635 61.5543C52.4877 61.9039 52.2773 61.6856 52.0069 61.6412C51.7423 61.2917 52.3931 61.116 52.3931 60.7665C52.6982 60.8534 52.6113 61.2473 52.6557 61.5543H52.6635ZM104.213 54.3708C104.432 55.7225 103.599 56.6494 103.161 57.7443C103.731 57.8756 103.686 57.2191 104.126 56.912C105.048 57.1302 106.185 56.9989 106.71 57.9181C106.492 58.6191 106.274 59.2332 105.528 59.5827C104.52 60.0211 103.294 58.5322 102.945 60.108C102.9 61.3786 102.506 62.2109 102.558 63.524C103.215 63.4815 103.696 64.1033 104.266 64.0068C104.88 65.0148 106.237 65.233 107.201 65.8027C107.944 65.4956 108.296 66.2835 108.69 66.6775C108.819 66.9047 108.887 67.1615 108.887 67.4229C108.887 67.6842 108.819 67.9411 108.69 68.1682C108.514 68.8248 107.682 68.9117 107.114 68.736C106.019 68.3498 105.667 66.3724 104.266 66.7663C103.696 66.1966 102.865 66.1966 102.251 65.8008C101.375 67.0714 101.243 69.9603 99.0111 69.5239C98.7485 69.0855 98.2213 68.4714 98.5283 67.9462C98.3101 67.2027 98.9145 66.7644 98.9145 66.1078C99.0033 65.7216 99.3007 65.6694 99.6155 65.4937L100.098 65.625C101.017 64.0493 101.017 62.3847 101.587 60.6757C100.931 61.1585 100.71 62.2959 100.272 63.1282C99.6599 63.2595 99.1347 63.6109 98.4337 63.6109C98.0577 63.3883 97.7315 63.0909 97.4751 62.7372C97.2186 62.3835 97.0375 61.9809 96.9429 61.5543C97.1611 61.0716 97.3291 60.2026 98.1247 60.3725C99.7024 60.1968 101.716 59.3645 102.242 57.6999C102.373 56.605 102.024 55.6414 101.892 54.7647C102.066 54.2394 102.197 53.4516 102.943 53.4129C103.644 53.6331 104.038 53.5443 104.213 54.3785V54.3708ZM73.5113 54.0637C73.7739 55.9484 71.5397 56.9603 71.3215 58.7948C71.3618 58.8568 71.4218 58.9034 71.4919 58.9273C71.5619 58.9511 71.6379 58.9507 71.7077 58.9261C71.8834 58.0494 72.9339 58.3468 73.1965 57.5242C73.4406 57.5214 73.6811 57.4659 73.9017 57.3616C74.1224 57.2573 74.3179 57.1066 74.4749 56.9198C74.9113 57.1824 75.5698 57.5763 75.5698 58.2329C75.481 59.1096 74.3861 58.2773 74.1679 59.1984C72.4589 58.6191 71.4084 60.4247 70.3057 61.2569C69.8249 61.3883 69.4734 61.0387 69.1664 60.9074C68.8169 62.0023 67.8533 63.0528 67.7664 64.2347C68.1526 63.6225 68.9482 63.7538 69.429 63.8484L70.7441 65.2002C71.7096 63.9295 71.8834 62.3982 71.8834 60.778C72.146 60.4266 72.6269 60.8205 72.8895 60.6892C73.4147 61.0754 73.855 61.479 73.7662 62.1781C73.6349 63.4487 72.4956 64.3679 72.2773 65.5072C71.9259 65.683 71.9259 66.0325 72.1016 66.2951C72.4511 66.8223 73.6349 66.7779 73.5036 67.5658C73.6349 67.8728 74.0732 67.5658 73.8898 68.0041C74.809 67.9597 75.3786 68.4425 76.3422 68.4849C76.8231 68.792 77.2614 68.8712 77.694 68.7476C77.9122 68.6607 78.001 68.9233 78.1748 69.0546C77.7384 69.9313 76.8231 69.2747 76.2051 69.9313C75.2859 69.7112 74.6275 70.9818 73.8396 70.0626C73.2603 69.8869 73.6214 69.1415 72.9629 69.1859C72.9204 68.7476 72.3951 68.7997 72.0881 68.5738C71.7366 68.1354 71.3427 67.6971 71.0801 67.3031C70.3791 68.2223 69.2417 68.5294 68.365 69.0546C68.3206 68.6684 68.058 69.099 67.8397 69.0546C66.963 67.6527 67.5327 66.1213 67.357 64.6305C67.1388 64.9376 66.7448 65.3759 66.8761 65.8143C65.957 66.3395 65.7812 67.2587 65.4742 68.091C65.1751 68.4068 64.8028 68.6439 64.3901 68.7813C63.9775 68.9188 63.5373 68.9523 63.1086 68.8789C61.8399 68.1798 61.7569 66.7335 61.8399 65.3315C62.1894 64.8932 62.3652 64.281 62.8054 63.9295C63.0237 63.6669 63.5933 63.7558 63.5933 64.1497C63.9795 65.289 63.1106 66.1213 63.7246 67.1718C65.4336 66.689 63.7691 65.4203 63.9873 64.4567C63.9004 62.7477 64.7327 61.6528 64.7751 59.9882C64.0317 59.9013 63.1994 59.77 62.8923 59.0227C62.8054 58.4974 62.6297 57.754 63.0237 57.3156C64.2943 56.7904 65.8701 57.4469 66.6599 56.045C67.2276 55.9581 67.7973 56.1763 67.973 56.746C68.1487 58.0591 66.3084 58.0977 66.4397 59.5055C66.0535 59.855 66.1771 60.4247 65.9589 60.8572C66.4397 61.2067 67.4477 60.0249 67.7548 61.2434C68.0174 61.8228 68.1043 60.9808 68.4538 61.3747C68.1043 60.7626 68.8053 60.6313 69.0235 60.0616C69.0798 60.1005 69.1437 60.1269 69.211 60.1391C69.2783 60.1514 69.3474 60.1491 69.4138 60.1324C69.4801 60.1158 69.5421 60.0852 69.5957 60.0427C69.6493 60.0002 69.6932 59.9467 69.7245 59.8859C69.7505 59.8203 69.7606 59.7495 69.7541 59.6793C69.7476 59.609 69.7246 59.5413 69.6869 59.4817C69.6493 59.422 69.5981 59.3721 69.5375 59.3359C69.4769 59.2998 69.4086 59.2785 69.3383 59.2737C69.5249 59.1968 69.6905 59.0763 69.821 58.9223L69.9079 59.0092C70.4776 58.7041 70.0836 57.783 70.5201 57.4334C70.6514 56.688 71.7038 55.9871 71.0897 55.2436C71.5725 54.8921 71.3524 54.2356 71.8795 53.8918C72.4473 53.7605 73.1483 53.1909 73.4997 54.0656L73.5113 54.0637ZM70.3134 67.6855C70.3579 68.0717 69.8326 67.9037 69.7438 68.1682L69.5256 67.9481L70.0605 67.4673L70.3231 67.6855H70.3134ZM69.962 66.5037C69.8781 66.7766 69.7186 67.0202 69.5019 67.2061C69.2852 67.392 69.0202 67.5127 68.7377 67.5542C68.562 66.9845 68.869 66.4592 69.1741 66.0209C69.4812 66.1097 69.8751 66.1522 69.962 66.5037ZM67.0654 62.823C66.9766 63.524 66.32 64.2694 65.7947 64.8391C66.1443 64.225 65.6634 63.3502 66.2756 62.823H67.0654ZM85.4241 56.7363C85.3797 57.3156 84.8544 57.7443 84.503 58.0881C83.8464 58.3507 83.3211 57.9123 82.7515 57.8254C82.7959 57.1689 81.6566 56.6436 82.5333 56.0295C81.9636 55.68 82.4444 55.3286 82.5333 54.9346C82.631 54.8214 82.7519 54.7306 82.8879 54.6684C83.0238 54.6062 83.1716 54.5739 83.3211 54.5739C83.4707 54.5739 83.6184 54.6062 83.7544 54.6684C83.8904 54.7306 84.0113 54.8214 84.109 54.9346C84.4605 55.5487 85.4608 56.0295 85.4241 56.7305V56.7363Z" fill="#9B0D14"/>
<path d="M84.7231 60.9847C85.1614 61.9927 83.8908 62.3364 83.5393 62.9563L83.0585 63.1301L82.8403 62.5508L82.5757 62.6396C82.8403 61.6741 81.1313 60.2296 82.7515 59.5731C83.6707 59.5731 84.1978 60.4053 84.7231 60.975V60.9847Z" fill="#9B0D14"/>
</g>
<defs>
<filter id="filter0_d_185_161" x="0" y="0" width="154" height="157" filterUnits="userSpaceOnUse" color-interpolation-filters="sRGB">
<feFlood flood-opacity="0" result="BackgroundImageFix"/>
<feColorMatrix in="SourceAlpha" type="matrix" values="0 0 0 0 0 0 0 0 0 0 0 0 0 0 0 0 0 0 127 0" result="hardAlpha"/>
<feOffset dy="16"/>
<feGaussianBlur stdDeviation="6.5"/>
<feColorMatrix type="matrix" values="0 0 0 0 0 0 0 0 0 0 0 0 0 0 0 0 0 0 0.03 0"/>
<feBlend mode="normal" in2="BackgroundImageFix" result="effect1_dropShadow_185_161"/>
<feBlend mode="normal" in="SourceGraphic" in2="effect1_dropShadow_185_161" result="shape"/>
</filter>
</defs>
</svg>
