<svg width="154" height="157" viewBox="0 0 154 157" fill="none" xmlns="http://www.w3.org/2000/svg">
<g filter="url(#filter0_d_185_15)">
<rect width="128" height="128" transform="translate(13)" fill="white"/>
<path fill-rule="evenodd" clip-rule="evenodd" d="M42.053 48.9465C46.2095 48.9468 49.9733 50.6325 52.6973 53.3563C55.4211 56.08 57.1062 59.8433 57.1062 63.9998C57.1062 68.1564 55.4209 71.9202 52.6971 74.6441C49.9733 77.3678 46.2101 79.0529 42.0537 79.0529C37.8971 79.0529 34.1332 77.3678 31.4093 74.6439C28.6856 71.9202 27.0006 68.1569 27.0005 64.0005C27.0006 59.8439 28.6856 56.08 31.4095 53.356C34.1332 50.6323 37.8965 48.9468 42.053 48.9465ZM42.0535 49.2809C37.9904 49.2809 34.3102 50.929 31.6462 53.5929C28.9821 56.257 27.334 59.9367 27.334 63.9999C27.334 68.063 28.9821 71.7432 31.6461 74.4072C34.3102 77.0713 37.9899 78.7194 42.0532 78.7194C46.1163 78.7194 49.7964 77.0713 52.4603 74.4073C55.1244 71.7432 56.7727 68.0635 56.7727 64.0003C56.7727 59.9372 55.1246 56.257 52.4605 53.5931C49.7964 50.929 46.1167 49.2809 42.0535 49.2809Z" fill="#D7000F"/>
<path fill-rule="evenodd" clip-rule="evenodd" d="M42.0529 52.7624C45.1559 52.7624 47.9658 54.0209 49.9991 56.0542C52.0326 58.0874 53.2902 60.8968 53.2904 63.9997C53.2902 67.1028 52.0326 69.9128 49.9991 71.9461C47.9658 73.9793 45.1565 75.2372 42.0536 75.2373C38.9505 75.2372 36.1405 73.9793 34.1072 71.946C32.0739 69.9127 30.8161 67.1034 30.816 64.0004C30.8161 60.8974 32.0739 58.0874 34.1073 56.0542C36.1406 54.0209 38.9499 52.7624 42.0529 52.7624ZM42.0534 53.0965C39.0438 53.0965 36.3175 54.3174 34.3441 56.2908C32.3705 58.2644 31.1496 60.9901 31.1496 63.9999C31.1496 67.0095 32.3705 69.7358 34.3439 71.7092C36.3175 73.6828 39.0433 74.9037 42.0531 74.9037C45.0627 74.9037 47.7889 73.6828 49.7623 71.7094C51.7359 69.7358 52.9568 67.0101 52.9568 64.0002C52.9568 60.9906 51.7359 58.2644 49.7625 56.291C47.7889 54.3174 45.0632 53.0965 42.0534 53.0965Z" fill="#D7000F"/>
<path fill-rule="evenodd" clip-rule="evenodd" d="M45.0339 66.1236H48.157V68.1821H45.964C45.4524 68.1821 45.0339 67.7652 45.0339 67.2558V66.1236ZM48.3085 57.816H38.1507C38.1507 57.816 37.5254 57.847 37.4885 58.6267C37.4516 59.4067 37.4885 68.4211 37.4885 68.4211C37.4885 68.4211 37.3543 70.0857 39.2874 70.3273H42.5798C42.5798 70.3273 42.9516 70.3413 43.2609 70.0588C43.5702 69.7763 43.9009 69.182 43.9009 69.182C43.9009 69.182 44.0424 70.1931 44.6868 70.3005C45.3311 70.4079 48.4755 70.3005 48.4755 70.3005L46.3216 72.4255H43.8818C43.8818 72.4255 43.2216 72.3708 43.0461 71.4972C43.0461 71.4972 42.8035 72.2727 42.3003 72.3678C41.7969 72.4628 37.569 72.3678 37.569 72.3678C37.569 72.3678 35.4749 72.2604 35.4749 69.7635V57.6817C35.4749 57.6817 35.4749 55.6949 37.408 55.6949H46.2948L48.3085 57.816ZM45.0339 64.0889H48.1569V61.9123H45.0339V64.0889ZM39.6867 64.0889H42.9754V61.9123H39.6867V64.0889ZM39.6867 66.1236H42.9754V67.2558C42.9754 67.7652 42.5347 68.1821 41.996 68.1821H40.1765C39.9072 68.1821 39.6867 67.878 39.6867 67.6233V66.1236Z" fill="#D7000F"/>
<path fill-rule="evenodd" clip-rule="evenodd" d="M36.1037 75.0324L35.5506 74.7373L35.3291 75.1572L35.8821 75.4524L35.9371 75.3545L36.1037 75.0324ZM36.9417 75.2358C36.9748 75.2499 37.0006 75.261 37.0192 75.2692C37.0882 75.299 37.1309 75.3182 37.1474 75.3271C37.1613 75.3344 37.1648 75.3443 37.1582 75.3567C37.0575 75.5451 36.9712 75.7094 36.8991 75.8494C36.827 75.9894 36.7615 76.118 36.7026 76.235C36.6931 76.2529 36.6786 76.2567 36.6594 76.2464L36.4839 76.1528C36.4675 76.144 36.464 76.1306 36.4735 76.1127L36.5154 76.0343L35.9872 75.7524C35.9101 75.8968 35.8306 76.0489 35.749 76.2085C35.6672 76.3682 35.6256 76.4529 35.624 76.4626C35.6164 76.4834 35.6057 76.4901 35.592 76.4827L35.3836 76.3715C35.3713 76.3649 35.3716 76.3526 35.3846 76.3349L35.7767 75.64L35.2278 75.3471L35.1794 75.4379C35.1691 75.4571 35.1621 75.4684 35.1585 75.4718C35.1486 75.4807 35.1367 75.4813 35.1229 75.474C35.0982 75.4608 35.0739 75.4483 35.0502 75.4365C35.0264 75.4248 35.0035 75.4129 34.9815 75.4012C34.9609 75.3902 34.9454 75.3802 34.9352 75.3712C34.925 75.3622 34.9296 75.3444 34.9492 75.3177C34.9658 75.2964 34.9911 75.2556 35.0252 75.1952C35.0592 75.1347 35.1148 75.0322 35.1919 74.8878C35.269 74.7433 35.3465 74.5982 35.4243 74.4524C35.4382 74.4262 35.4535 74.4176 35.47 74.4264L35.652 74.5474L36.2009 74.8403L36.3646 74.5089C36.3737 74.4819 36.3796 74.4656 36.3826 74.4601C36.3914 74.4436 36.4027 74.439 36.4165 74.4464C36.4666 74.475 36.5162 74.5045 36.5653 74.5351C36.6144 74.5657 36.6408 74.5891 36.6445 74.6053C36.6464 74.615 36.6383 74.6267 36.6206 74.6402C36.6028 74.6537 36.5839 74.6674 36.564 74.6816L36.4155 74.9549L36.9417 75.2358ZM36.6167 75.8445L36.8403 75.4256L36.3121 75.1437L36.1371 75.4665L36.0864 75.5615L36.6167 75.8445Z" fill="#D7000F"/>
<path fill-rule="evenodd" clip-rule="evenodd" d="M38.4291 75.8365L38.0391 75.7476L37.9212 76.2653L38.2686 76.3516C38.297 76.283 38.3259 76.2016 38.3553 76.1075C38.3848 76.0135 38.4094 75.9232 38.4291 75.8365ZM39.1793 75.7867C39.2135 75.7913 39.2488 75.7962 39.2852 75.8012C39.3216 75.8064 39.3413 75.8093 39.3444 75.81C39.3581 75.8131 39.363 75.823 39.3592 75.8398C39.3311 75.9629 39.304 76.0839 39.2777 76.2026C39.2514 76.3213 39.226 76.4379 39.2016 76.5523L39.4313 76.5974C39.451 76.602 39.4639 76.6049 39.47 76.6062C39.4852 76.6097 39.4908 76.6166 39.4869 76.6269L39.4422 76.823C39.4416 76.8325 39.4397 76.8377 39.4363 76.8384C39.4328 76.8393 39.4244 76.8381 39.4107 76.835C39.3984 76.8323 39.3878 76.8298 39.3787 76.8278L38.6143 76.6343C38.643 76.7401 38.6706 76.8259 38.6972 76.892C38.7237 76.958 38.7494 77.0098 38.7745 77.0475C38.828 77.1285 38.9043 77.2074 39.0035 77.2844C39.0731 77.3371 39.15 77.3858 39.2341 77.4306C39.2942 77.4618 39.3295 77.4787 39.3402 77.4811C39.3321 77.4952 39.324 77.5102 39.3156 77.5259C39.3078 77.5321 39.242 77.5715 39.1183 77.6441C39.0944 77.6578 39.0086 77.6095 38.8611 77.4991C38.7 77.3776 38.5934 77.263 38.5412 77.1551C38.4977 77.0652 38.4626 76.9788 38.4359 76.896C38.4093 76.8131 38.3916 76.7307 38.3832 76.6488C38.2569 76.8376 38.1003 76.9842 37.9134 77.0888C37.7743 77.1658 37.6307 77.2139 37.4823 77.2328C37.3586 77.2494 37.2934 77.2481 37.2865 77.229C37.2765 77.2027 37.2513 77.1586 37.2111 77.0966C37.1791 77.0478 37.1644 77.0172 37.1672 77.0051C37.1683 77.0005 37.1737 76.9978 37.1835 76.9968C37.2078 77.0024 37.2687 76.9986 37.366 76.9856C37.5143 76.9666 37.6485 76.9284 37.7687 76.8711C37.9388 76.7915 38.0732 76.679 38.1719 76.5335C38.0746 76.5113 37.962 76.4877 37.8343 76.4625C37.7064 76.4375 37.566 76.4099 37.4129 76.3798C37.4007 76.3769 37.3886 76.3742 37.3764 76.3714C37.3676 76.3678 37.3644 76.3607 37.3669 76.3501L37.411 76.1563C37.4138 76.144 37.4236 76.1399 37.4403 76.1437C37.4509 76.1462 37.4593 76.148 37.4654 76.1494L37.701 76.2103L37.8611 75.5079C37.8673 75.4805 37.8788 75.4688 37.8955 75.4726C37.9503 75.4851 37.9957 75.4978 38.0319 75.5108C38.0681 75.5239 38.0865 75.5329 38.087 75.5378L38.4792 75.6272L38.5252 75.3834C38.5233 75.3638 38.5215 75.3433 38.5199 75.3222C38.5234 75.307 38.5385 75.2968 38.5653 75.2918C38.5774 75.2945 38.5903 75.2975 38.604 75.3006C38.6177 75.3037 38.6361 75.3071 38.6593 75.3108C38.7064 75.3215 38.7456 75.3325 38.7766 75.3435C38.8076 75.3546 38.822 75.3654 38.8195 75.3761C38.8171 75.3867 38.8108 75.3985 38.8007 75.4114C38.7906 75.4242 38.7802 75.4367 38.7694 75.4487L38.7164 75.6812L39.1793 75.7867ZM38.9766 76.5082L39.0951 75.9882L38.6663 75.8906C38.6473 75.9741 38.6232 76.0622 38.5941 76.1548C38.565 76.2473 38.5354 76.3317 38.5052 76.4079L38.9766 76.5082Z" fill="#D7000F"/>
<path fill-rule="evenodd" clip-rule="evenodd" d="M40.9676 76.4972L40.416 76.4767L40.4066 76.7292L40.9856 76.7694C40.9811 76.724 40.9767 76.6754 40.9723 76.6238C40.968 76.5721 40.9664 76.5299 40.9676 76.4972ZM41.7083 75.8365L41.863 75.8328C41.877 75.8334 41.8838 75.8406 41.8832 75.8546C41.8686 76.2473 41.8645 76.4641 41.8708 76.5049C41.8731 76.5268 41.8626 76.5374 41.8392 76.5365L41.6593 76.5298L41.6408 76.5221L41.2037 76.5059C41.202 76.5527 41.2015 76.5963 41.2024 76.637C41.2032 76.6775 41.2057 76.7252 41.21 76.78C41.2988 76.7833 41.3837 76.7849 41.4649 76.7847C41.7473 76.7844 41.8956 76.7844 41.9096 76.7849C41.9346 76.7842 41.9502 76.784 41.9565 76.7843C41.9689 76.7847 41.9742 76.7904 41.9722 76.8013L41.9646 77.0046C41.9674 77.0156 41.961 77.0208 41.9453 77.0203C41.9298 77.0197 41.9149 77.0191 41.9009 77.0186L41.2378 76.9777C41.2459 77.0107 41.2534 77.0395 41.2603 77.064C41.2672 77.0884 41.277 77.118 41.2898 77.1527C41.3338 77.2699 41.4026 77.3692 41.4964 77.4507C41.637 77.5729 41.7311 77.6232 41.7787 77.6016C41.7994 77.5899 41.8154 77.5382 41.8266 77.4466C41.8272 77.431 41.8289 77.4127 41.8321 77.3918C41.8352 77.3708 41.8422 77.3605 41.8531 77.3609C41.8898 77.3826 41.9254 77.4018 41.9598 77.4187C41.9943 77.4356 42.0287 77.4447 42.063 77.4459C42.0677 77.4461 42.0697 77.4532 42.0693 77.4673C42.0671 77.5233 42.0432 77.602 41.9973 77.7033C41.9446 77.8184 41.8964 77.8775 41.8526 77.8805C41.8041 77.885 41.7329 77.8667 41.6393 77.8258C41.5149 77.7728 41.4067 77.7009 41.3149 77.6101C41.1945 77.4918 41.11 77.3498 41.0616 77.1841C41.0423 77.1147 41.0262 77.0432 41.0133 76.9693L40.3956 76.9629L40.3739 77.5495C40.4947 77.5337 40.6077 77.5145 40.7131 77.4919C40.7382 77.4865 40.8564 77.4582 41.0673 77.4067C41.0721 77.4053 41.079 77.4064 41.0883 77.4098C41.0898 77.4114 41.0913 77.4123 41.0929 77.4123L41.0852 77.6204C41.0847 77.6328 41.079 77.6396 41.068 77.6408C40.9359 77.6687 40.8054 77.6958 40.6764 77.7222C40.5475 77.7487 40.4109 77.7725 40.2666 77.7937C40.257 77.7995 40.249 77.804 40.2427 77.8068C40.222 77.8154 40.2031 77.8218 40.1858 77.8258C40.1638 77.8296 40.1378 77.7944 40.1078 77.7199C40.0778 77.6454 40.0683 77.6053 40.0794 77.5995C40.0938 77.5907 40.107 77.5505 40.119 77.4792C40.1217 77.4076 40.1255 77.3055 40.1304 77.173C40.1353 77.0405 40.142 76.8586 40.1506 76.6273C40.1592 76.3958 40.1693 76.1438 40.181 75.8712C40.1818 75.8478 40.1807 75.8271 40.1774 75.809C40.1742 75.7909 40.1727 75.7795 40.1728 75.7749C40.173 75.7702 40.1832 75.7682 40.2035 75.769C40.2315 75.77 40.2688 75.7753 40.3152 75.7849L41.7083 75.8365ZM41.6418 76.3068L41.6513 76.0497L40.4359 76.0047L40.424 76.2617L41.6418 76.3068Z" fill="#D7000F"/>
<path fill-rule="evenodd" clip-rule="evenodd" d="M42.7561 76.2857L42.6027 76.3038C42.5856 76.3053 42.5747 76.3062 42.5701 76.3066C42.5561 76.3079 42.5486 76.303 42.5477 76.2921L42.5293 76.0824C42.5284 76.0716 42.5341 76.0656 42.5465 76.0645C42.5589 76.0634 42.5706 76.0624 42.5815 76.0614C42.6126 76.0587 42.6827 76.0549 42.7918 76.0501C42.901 76.0452 42.9749 76.0411 43.0138 76.0377C43.0589 76.0338 43.1293 76.0253 43.2252 76.0122C43.3211 75.9991 43.3831 75.9913 43.411 75.9889C43.4373 75.985 43.4535 75.9829 43.4597 75.9823C43.4722 75.9812 43.478 75.9861 43.4775 75.9971L43.4962 76.2116C43.4988 76.2223 43.4937 76.2282 43.4813 76.2293C43.4641 76.2292 43.4478 76.2298 43.4323 76.2312C43.3903 76.2349 43.3175 76.2393 43.2138 76.2444C43.1102 76.2496 43.0498 76.2529 43.0327 76.2544L42.9978 76.2575C42.9972 76.2873 42.9971 76.3213 42.9973 76.3597C42.9976 76.398 43.0005 76.449 43.0061 76.5126L43.2531 76.4911L43.4213 76.4552C43.4275 76.4547 43.4342 76.4956 43.4414 76.5779C43.4543 76.7255 43.463 76.9189 43.4675 77.1579C43.472 77.397 43.4683 77.5476 43.4566 77.6097C43.4412 77.6846 43.3978 77.7432 43.3264 77.7855C43.2713 77.8184 43.2089 77.838 43.139 77.8441C43.0877 77.8486 43.0599 77.8448 43.0558 77.8325C43.0417 77.7978 43.0282 77.7634 43.015 77.7294C43.0019 77.6953 42.9906 77.6693 42.9812 77.6513C42.9793 77.6468 42.9798 77.6436 42.9827 77.6418C42.9857 77.6399 42.9918 77.6386 43.0012 77.6378C43.0089 77.6371 43.0241 77.6365 43.0468 77.6362C43.0695 77.6357 43.0831 77.6353 43.0878 77.6349C43.1251 77.6317 43.1535 77.6252 43.173 77.6157C43.2029 77.6005 43.2253 77.5782 43.2399 77.5488C43.2664 77.4933 43.2734 77.333 43.2612 77.0679C43.2554 76.9479 43.2473 76.8281 43.2368 76.7085L43.0248 76.727L43.0266 76.7481C43.0336 76.8272 43.0351 76.9481 43.0313 77.1104C43.0275 77.2727 43.0174 77.4023 43.0008 77.4993C42.979 77.6265 42.9563 77.7247 42.9326 77.794C42.9162 77.8205 42.9005 77.8477 42.8858 77.8756C42.8454 77.8432 42.805 77.8193 42.7645 77.8041C42.7093 77.7823 42.6817 77.7706 42.6816 77.7691C42.7017 77.7313 42.7173 77.6948 42.7283 77.6593C42.7493 77.5949 42.767 77.5202 42.7815 77.4352C42.796 77.3501 42.805 77.2515 42.8085 77.1393C42.8119 77.0271 42.8066 76.8909 42.7927 76.731L42.7561 76.2857ZM43.1441 75.97C43.117 75.9833 43.0797 75.9952 43.0321 76.0056C42.9845 76.016 42.9531 76.0243 42.938 76.0302C42.9274 76.0344 42.9171 76.0235 42.907 75.9978C42.8603 75.8766 42.8144 75.7805 42.769 75.7093L42.7703 75.6975C42.7838 75.69 42.8151 75.681 42.8643 75.6705C42.9134 75.6599 42.9477 75.6498 42.9673 75.6403L42.984 75.6435C43.0313 75.7192 43.0728 75.7912 43.1085 75.8592C43.1442 75.9273 43.1561 75.9643 43.1441 75.97ZM44.0668 76.4269L44.2395 76.4141C44.2829 76.4103 44.3411 76.4037 44.4139 76.3943C44.4866 76.3847 44.5377 76.3787 44.5672 76.3761C44.5811 76.3733 44.5903 76.3718 44.595 76.3713C44.6043 76.3705 44.6086 76.3756 44.6081 76.3866L44.6254 76.5847C44.6279 76.5955 44.6229 76.6013 44.6105 76.6024C44.5994 76.6018 44.5917 76.6017 44.587 76.6022C44.5574 76.6047 44.5119 76.6067 44.4502 76.6082C44.3885 76.6098 44.3475 76.6113 44.3273 76.6131L44.3054 76.6573C44.3062 76.6854 44.3082 76.7259 44.3113 76.7789C44.3144 76.8318 44.3171 76.8715 44.3194 76.8979C44.4002 76.8908 44.473 76.8825 44.5379 76.8729C44.6028 76.8633 44.6715 76.853 44.7441 76.8419C44.7704 76.8381 44.7867 76.8359 44.7929 76.8353C44.8006 76.8347 44.8043 76.8398 44.8036 76.8508L44.8218 77.0582C44.8242 77.0689 44.8193 77.0749 44.8069 77.076C44.7912 77.0758 44.7772 77.0762 44.7647 77.0773C44.696 77.0787 44.6339 77.0801 44.5785 77.0819C44.5231 77.0835 44.4627 77.0873 44.3975 77.093C44.4234 77.1565 44.4445 77.2008 44.4608 77.226C44.4974 77.287 44.5426 77.3378 44.5962 77.3785C44.6499 77.4192 44.711 77.4561 44.7797 77.4892C44.8009 77.4999 44.8294 77.5123 44.8651 77.5264C44.8755 77.538 44.881 77.5477 44.8817 77.5555C44.8829 77.5694 44.8751 77.5866 44.858 77.6068C44.8055 77.6677 44.7759 77.7064 44.7695 77.7226C44.7308 77.7088 44.692 77.6957 44.6534 77.6834C44.581 77.6428 44.5178 77.5998 44.4637 77.5544C44.4299 77.5261 44.3972 77.4918 44.3654 77.4515C44.3337 77.4112 44.3049 77.3672 44.2788 77.3194C44.2432 77.4321 44.1807 77.5315 44.0912 77.6176C44.0233 77.683 43.9473 77.735 43.863 77.7737C43.7908 77.8066 43.7494 77.8173 43.739 77.8057C43.7164 77.7795 43.6801 77.7412 43.6303 77.6908C43.6029 77.6634 43.5888 77.6451 43.5879 77.6358C43.5872 77.6264 43.602 77.6173 43.6326 77.6084C43.71 77.5812 43.7696 77.5557 43.8113 77.5317C43.9394 77.4579 44.0251 77.3635 44.0683 77.2486C44.072 77.2373 44.0772 77.2204 44.0838 77.1979C44.0905 77.1754 44.0956 77.1491 44.0992 77.1191C44.0138 77.1266 43.9375 77.1352 43.8702 77.145C43.803 77.1548 43.7439 77.1635 43.6929 77.1711C43.6773 77.1724 43.6673 77.1733 43.6626 77.1737C43.6501 77.1748 43.6435 77.1699 43.6425 77.159L43.6248 76.9563C43.6237 76.9439 43.6278 76.9372 43.6371 76.9365C43.6497 76.9369 43.6614 76.9367 43.6723 76.9358C43.7473 76.9338 43.8261 76.9313 43.9087 76.9279C43.9915 76.9246 44.0592 76.9207 44.112 76.916C44.1082 76.8726 44.1046 76.8318 44.1013 76.7937C44.0979 76.7556 44.0956 76.7194 44.0941 76.6852C44.0921 76.6618 44.09 76.6464 44.0877 76.6388L43.9996 76.6512C43.9418 76.7955 43.8927 76.8695 43.8523 76.873C43.8492 76.8733 43.8428 76.8723 43.8333 76.87C43.7924 76.8501 43.7577 76.8344 43.7294 76.8227C43.7009 76.8112 43.6779 76.803 43.6603 76.7983C43.6766 76.7703 43.6988 76.733 43.7268 76.6868C43.7549 76.6405 43.7769 76.5932 43.7931 76.5448C43.8399 76.3998 43.8621 76.3142 43.8597 76.2877C43.8552 76.2709 43.8525 76.2579 43.8516 76.2485C43.85 76.2299 43.8616 76.2195 43.8865 76.2173C43.9098 76.2152 43.9635 76.2293 44.0475 76.2596C44.0975 76.2771 44.1231 76.2921 44.1242 76.3045C44.1252 76.3154 44.1163 76.3302 44.0976 76.3491C44.0948 76.3525 44.0896 76.3568 44.0823 76.3622L44.0668 76.4269ZM43.8508 75.8894L44.2083 75.8698C44.272 75.8643 44.3332 75.8577 44.3921 75.8502C44.4509 75.8427 44.5205 75.8332 44.6009 75.8214C44.6225 75.8179 44.6364 75.8159 44.6426 75.8154C44.6519 75.8146 44.6563 75.8197 44.6556 75.8307L44.6746 76.0474C44.6772 76.0582 44.6729 76.0639 44.6621 76.0649C44.6479 76.0646 44.6347 76.065 44.6223 76.0661C44.5974 76.0682 44.5351 76.0713 44.4353 76.0754C44.3354 76.0794 44.2661 76.0831 44.2272 76.0865C44.1667 76.0918 44.1039 76.0989 44.0389 76.1077C43.974 76.1165 43.8973 76.1264 43.8091 76.1372L43.7996 76.1639C43.7812 76.239 43.7517 76.3183 43.7113 76.4017C43.6708 76.4851 43.6427 76.5258 43.6269 76.5241C43.6111 76.5224 43.5714 76.5063 43.5076 76.4759C43.4766 76.4613 43.4493 76.4536 43.4257 76.4525C43.4444 76.4149 43.469 76.3658 43.4997 76.3051C43.5373 76.233 43.5652 76.1628 43.5834 76.0947C43.6018 76.0266 43.6174 75.9591 43.6303 75.8923C43.6432 75.8254 43.6485 75.7772 43.6458 75.7476C43.6387 75.7201 43.6347 75.7009 43.6337 75.69C43.6328 75.6792 43.6362 75.6733 43.6439 75.6726C43.6735 75.6701 43.7237 75.6716 43.7946 75.6771C43.8656 75.6826 43.9017 75.6939 43.9033 75.7111C43.9043 75.7235 43.9002 75.7391 43.8909 75.7579C43.8816 75.7767 43.8716 75.796 43.8608 75.8157L43.8508 75.8894Z" fill="#D7000F"/>
<path fill-rule="evenodd" clip-rule="evenodd" d="M46.2092 75.7127C46.2942 75.6867 46.4016 75.6514 46.5315 75.6068C46.834 75.5029 46.9994 75.4466 47.0277 75.438C47.0472 75.432 47.0598 75.4281 47.0658 75.4263C47.0747 75.4236 47.0801 75.4228 47.0821 75.4237C47.0856 75.4244 47.0879 75.4293 47.0892 75.4387L47.1514 75.6423C47.1566 75.6538 47.1531 75.6613 47.1412 75.665C47.1263 75.6696 47.1129 75.6736 47.1009 75.6773C47.0338 75.6978 46.9055 75.7338 46.7158 75.7853C46.526 75.8368 46.3886 75.8755 46.3036 75.9015C46.3722 76.0191 46.4408 76.1156 46.5095 76.1908C46.5633 76.2493 46.626 76.3052 46.6977 76.3583C46.7925 76.4287 46.9073 76.4866 47.0418 76.5319C47.1401 76.5655 47.2433 76.5909 47.3513 76.6085C47.4039 76.6152 47.4572 76.6217 47.5114 76.628C47.5087 76.6615 47.5064 76.6947 47.5051 76.7277C47.4835 76.7849 47.4538 76.8445 47.4157 76.9067C47.4089 76.917 47.3538 76.9094 47.2497 76.8841C47.1301 76.8555 47.0098 76.8139 46.8888 76.7596C46.7338 76.6896 46.6068 76.6078 46.5081 76.5141C46.4666 76.4746 46.4253 76.4314 46.384 76.3844C46.3428 76.3375 46.3052 76.2908 46.2714 76.244L46.2704 76.3127C46.2593 76.5379 46.2043 76.7472 46.1052 76.9405C46.0316 77.0837 45.9386 77.2091 45.8265 77.3168C45.7345 77.4053 45.681 77.4436 45.666 77.4319C45.651 77.4202 45.6066 77.3922 45.5327 77.3479C45.4787 77.3155 45.4497 77.2925 45.4456 77.2792C45.4438 77.2732 45.4469 77.2673 45.455 77.2616C45.4743 77.2557 45.5216 77.2184 45.5969 77.1497C45.7074 77.0475 45.797 76.9353 45.8657 76.8132C45.9649 76.6361 46.017 76.4465 46.022 76.2444C46.0246 76.1621 46.0213 76.0767 46.0121 75.9881L45.2578 76.2408C45.2429 76.2454 45.2332 76.2483 45.2287 76.2497C45.2168 76.2533 45.209 76.2492 45.2054 76.2372L45.1438 76.0359C45.1397 76.0226 45.1458 76.0133 45.1622 76.0083C45.1712 76.0056 45.1787 76.0033 45.1846 76.0015L45.9833 75.7817C45.9684 75.7064 45.9526 75.6346 45.9358 75.5664C45.919 75.4981 45.902 75.4357 45.8846 75.379C45.8759 75.3506 45.868 75.3257 45.8606 75.3044C45.8532 75.283 45.8473 75.2649 45.8427 75.2499C45.8404 75.2425 45.8367 75.2355 45.8314 75.229C45.8176 75.2104 45.8102 75.1995 45.8093 75.1966C45.8048 75.1816 45.8123 75.1663 45.8319 75.1505C45.8394 75.1483 45.8446 75.1467 45.8476 75.1458C45.861 75.1417 45.8741 75.1368 45.8871 75.1312C45.9453 75.1134 45.9937 75.1011 46.0323 75.0941C46.071 75.0873 46.0921 75.0897 46.0958 75.1017C46.0995 75.1135 46.1007 75.1311 46.0997 75.1542C46.0986 75.1774 46.0982 75.1897 46.0987 75.1912C46.1089 75.2354 46.1212 75.2887 46.1354 75.3512C46.1616 75.4688 46.1861 75.5893 46.2092 75.7127Z" fill="#D7000F"/>
<path fill-rule="evenodd" clip-rule="evenodd" d="M47.9824 74.7719C47.9727 74.7874 47.9534 74.8112 47.9244 74.8435C47.869 74.9032 47.8386 74.938 47.8329 74.9477C47.7896 74.9139 47.7461 74.8801 47.7025 74.8462C47.6458 74.7964 47.5832 74.7478 47.5154 74.7001L47.5099 74.6845C47.516 74.6726 47.5303 74.654 47.5523 74.6287C47.6006 74.5726 47.629 74.5372 47.6374 74.5224C47.6401 74.521 47.6472 74.5192 47.6583 74.517C47.7338 74.559 47.8089 74.6087 47.8838 74.666C47.9584 74.7233 47.9913 74.7586 47.9824 74.7719ZM48.4361 74.4672C48.4196 74.4862 48.3967 74.5066 48.3676 74.5284C48.2975 74.5799 48.2608 74.6073 48.2574 74.6109C48.2503 74.6179 48.2163 74.5888 48.1551 74.5237C48.094 74.4587 48.0276 74.3988 47.9561 74.3443L47.9518 74.3307C47.9616 74.3188 47.9874 74.2985 48.0298 74.2699C48.072 74.2414 48.1027 74.2162 48.1213 74.1945L48.139 74.1933C48.2184 74.2527 48.2898 74.3107 48.3538 74.3674C48.4175 74.4241 48.445 74.4574 48.4361 74.4672ZM49.1611 74.3393L49.2943 74.2609C49.3068 74.2545 49.3163 74.2576 49.3227 74.2701L49.4374 74.4952C49.4771 74.573 49.5109 74.6309 49.5391 74.6691C49.5511 74.6857 49.5468 74.6993 49.5259 74.71L49.3653 74.7917C49.3501 74.7995 49.3379 74.7944 49.3288 74.7763L49.2151 74.5534L47.8082 75.2701L47.9135 75.4765C47.9185 75.4862 47.9232 75.4959 47.9282 75.5057C47.9298 75.5154 47.9228 75.5242 47.9076 75.5319C47.8826 75.5447 47.8588 75.5572 47.8361 75.5696C47.8137 75.582 47.7912 75.5938 47.769 75.6052C47.7565 75.6115 47.744 75.6162 47.7315 75.6191C47.7188 75.622 47.7091 75.6112 47.7018 75.5869C47.6925 75.5514 47.632 75.4239 47.5201 75.2043C47.5095 75.1835 47.5119 75.1691 47.5271 75.1614L47.6417 75.1135L49.1611 74.3393ZM48.9363 73.9445C48.9379 73.9543 48.9338 73.966 48.9241 73.9797C48.9143 73.9934 48.9096 74.002 48.9096 74.0054L48.8855 74.2671C48.8796 74.3279 48.8687 74.3811 48.8526 74.4269C48.8365 74.4727 48.8206 74.4953 48.8045 74.4947L48.5868 74.4797C48.5922 74.4559 48.5977 74.4322 48.6031 74.4084C48.6303 74.3419 48.6478 74.285 48.655 74.2375C48.6598 74.2019 48.663 74.1613 48.665 74.1155C48.6673 74.0699 48.6662 74.0324 48.6616 74.0031C48.6546 73.9858 48.6503 73.9739 48.6489 73.9676C48.646 73.9552 48.6514 73.9436 48.6653 73.933C48.6743 73.9267 48.7206 73.9223 48.8043 73.9199C48.888 73.9175 48.932 73.9258 48.9363 73.9445ZM48.9443 75.1402L48.6203 75.3026C48.5244 75.3515 48.4271 75.4016 48.3279 75.4529C48.229 75.5042 48.1607 75.5446 48.1233 75.5743C48.1185 75.5785 48.112 75.5827 48.1036 75.5869C48.0911 75.5933 48.0813 75.5896 48.0743 75.5757L47.9936 75.4172C47.9829 75.3965 47.9915 75.3824 48.0194 75.3752C48.0457 75.3687 48.1213 75.3365 48.2456 75.2783C48.3699 75.2202 48.467 75.1734 48.5364 75.138C48.6324 75.0892 48.7102 75.0486 48.7698 75.0165C48.8295 74.9843 48.891 74.9477 48.954 74.9068L49.0187 74.8634L49.0425 74.8486L49.1019 74.8105C49.1131 74.8048 49.138 74.821 49.1766 74.8591C49.2151 74.8971 49.2335 74.9211 49.2315 74.9308C49.1988 75.042 49.1596 75.1504 49.1137 75.256C49.0795 75.3365 49.0436 75.4072 49.0064 75.4682C49.0829 75.4292 49.2015 75.3657 49.3624 75.2777C49.523 75.1897 49.6348 75.1297 49.6972 75.0978C49.7167 75.0879 49.7292 75.0816 49.7348 75.0787C49.7487 75.0717 49.7571 75.0726 49.7598 75.0817L49.8449 75.2484C49.8496 75.2546 49.8512 75.2592 49.8492 75.2619C49.8456 75.2655 49.8376 75.2704 49.8251 75.2768C49.814 75.2825 49.8043 75.2874 49.7959 75.2916L49.0579 75.6467L49.1791 75.8895C49.189 75.9089 49.1945 75.935 49.1954 75.9678C49.1965 76.011 49.1859 76.0488 49.1639 76.081C49.1487 76.1027 49.1264 76.125 49.0969 76.1479C49.0675 76.1708 49.0382 76.1897 49.0089 76.2046C48.9658 76.2265 48.9429 76.2347 48.9402 76.2291C48.905 76.1945 48.8642 76.1628 48.8179 76.1338C48.8054 76.1228 48.7939 76.112 48.7832 76.1017C48.793 76.0967 48.8052 76.0905 48.8197 76.0831C48.8343 76.0756 48.8479 76.0688 48.8603 76.0624C48.8812 76.0518 48.8964 76.044 48.9062 76.039C48.9311 76.0263 48.9486 76.0148 48.9583 76.0047C48.9679 75.9945 48.9642 75.9727 48.9472 75.9393C48.9352 75.9192 48.9261 75.9029 48.9198 75.8904C48.9084 75.8681 48.8969 75.8456 48.8853 75.8227C48.8735 75.7997 48.8624 75.7761 48.8517 75.7517C48.7446 75.8063 48.6262 75.8689 48.496 75.9396C48.3658 76.0104 48.2224 76.0882 48.0661 76.173C48.0523 76.1801 48.0432 76.1847 48.0391 76.1868C48.0267 76.1932 48.0178 76.1915 48.0128 76.1818L47.9291 76.0172C47.9241 76.0074 47.9294 75.9987 47.9446 75.9909C47.9543 75.9859 47.962 75.9821 47.9675 75.9792C48.0217 75.9516 48.1426 75.8935 48.3302 75.8049C48.5178 75.7163 48.6596 75.6476 48.7553 75.5988C48.7512 75.5939 48.7462 75.5894 48.7406 75.5853C48.7335 75.5783 48.729 75.5728 48.727 75.5686C48.7226 75.5602 48.7229 75.5523 48.7279 75.5446C48.7567 75.5018 48.7803 75.4653 48.798 75.4352C48.8497 75.3477 48.8985 75.2493 48.9443 75.1402Z" fill="#D7000F"/>
<path fill-rule="evenodd" clip-rule="evenodd" d="M28.532 66.8316L28.5436 66.8286L30.3295 66.3583L30.2194 65.9401L28.1282 66.4908L28.3127 67.1915L29.9636 67.2643L29.9667 67.2758L28.5568 68.1185L28.7502 68.853L30.8414 68.3023L30.7313 67.8842L28.9454 68.3545L28.9309 68.3464L30.5824 67.319L30.4843 66.9462L28.532 66.8316ZM27.9795 65.1359L28.0264 65.6013L30.1779 65.3846L30.1311 64.9192L27.9795 65.1359ZM30.1479 62.4295L27.9871 62.3448L27.9701 62.7773L29.6635 62.8438L29.675 62.8557L27.9376 63.6065L27.9105 64.2958L30.0713 64.3805L30.0883 63.948L28.3013 63.8778L28.2902 63.8659L30.1218 63.0953L30.1479 62.4295ZM30.2252 62.0064L30.6337 60.3976L30.2823 60.3084L30.0149 61.3617L28.8835 59.9774L28.532 59.8882L28.1467 61.406L28.4981 61.4952L28.7454 60.5212L29.8739 61.9171L30.2252 62.0064ZM29.4017 57.7261L30.4694 58.2295C30.7055 58.3321 30.8504 58.4353 30.9055 58.5383C30.9743 58.6485 30.9702 58.7844 30.8939 58.9464C30.8173 59.1088 30.7135 59.2015 30.5813 59.2258C30.4667 59.2489 30.295 59.2027 30.0657 59.0857L28.998 58.5823L28.7985 59.0054L30.0249 59.5837C30.518 59.7985 30.9027 59.6315 31.1794 59.081C31.4213 58.5319 31.304 58.132 30.8277 57.8813L29.6013 57.3031L29.4017 57.7261ZM31.4352 54.6616L32.3494 55.4084C32.5537 55.5649 32.6694 55.6999 32.6978 55.8133C32.7379 55.937 32.7012 56.0679 32.5879 56.2067C32.4743 56.3455 32.3511 56.4104 32.217 56.402C32.1002 56.3968 31.9448 56.3104 31.7505 56.1414L30.8364 55.3946L30.5404 55.7569L31.5905 56.6148C32.017 56.9426 32.4307 56.8734 32.8324 56.4063C33.2 55.932 33.1828 55.5155 32.7813 55.1571L31.7312 54.2991L31.4352 54.6616ZM35.348 54.0326L33.9652 52.37L33.6323 52.6468L34.716 53.9498L34.7148 53.9661L32.9943 53.1776L32.4641 53.6186L33.8469 55.2812L34.1797 55.0042L33.0361 53.6292L33.0375 53.6131L34.8357 54.4586L35.348 54.0326ZM35.1837 51.6663L34.7735 51.8913L35.8137 53.7871L36.2238 53.5621L35.1837 51.6663ZM37.2674 53.0279L37.7311 52.8335L37.6278 50.5318L37.2074 50.7081L37.3501 52.4991L37.3391 52.5036L36.1616 51.1468L35.698 51.3412L37.2674 53.0279ZM38.8235 52.4807L40.2766 52.1785L40.2027 51.8235L39.2072 52.0306L39.0906 51.4701L39.9831 51.2843L39.9092 50.9295L39.0167 51.1151L38.9145 50.6235L39.8758 50.4234L39.802 50.0684L38.3831 50.3637L38.8235 52.4807ZM41.2363 50.2705L41.6223 50.2653C41.8401 50.2546 41.9505 50.3429 41.9529 50.5298C41.9556 50.7324 41.8477 50.8349 41.6298 50.8379L41.2439 50.8428L41.2363 50.2705ZM41.2486 51.2054L41.7393 51.199C41.8565 51.1974 41.9241 51.29 41.9419 51.4767C41.9526 51.679 41.982 51.8737 42.0314 52.0599L42.534 52.0533C42.4781 51.9682 42.4369 51.7972 42.4101 51.5409C42.4099 51.5248 42.4061 51.5018 42.3977 51.4705C42.3782 51.1591 42.2474 51.0012 42.006 50.9964L42.0058 50.9851C42.2931 50.9109 42.4389 50.734 42.4427 50.4531C42.4304 50.0872 42.1786 49.9035 41.6873 49.9019L40.7643 49.9141L40.7927 52.0762L41.2599 52.0701L41.2486 51.2054ZM44.7728 50.7966C44.8104 50.3767 44.599 50.1217 44.1399 50.0314C43.5648 49.9799 43.2337 50.1716 43.1467 50.6081C43.1054 50.8934 43.3122 51.1244 43.767 51.3002C43.7811 51.3104 43.8072 51.3222 43.8446 51.3351C44.1067 51.4286 44.2269 51.5484 44.2057 51.6949C44.1726 51.8709 44.0166 51.9426 43.7375 51.9102C43.5009 51.8603 43.3999 51.7117 43.4358 51.4649L42.9733 51.3979C42.8972 51.8671 43.137 52.1422 43.6923 52.2228C44.2962 52.2945 44.6342 52.1073 44.7069 51.6611C44.7568 51.3691 44.5386 51.1364 44.0521 50.9635C44.0221 50.9517 44.0035 50.9449 43.9955 50.9438C43.7237 50.8651 43.607 50.746 43.6463 50.5858C43.6783 50.4175 43.8077 50.3415 44.0335 50.3588C44.257 50.3912 44.3569 50.516 44.3335 50.7328L44.7728 50.7966ZM46.1287 50.5185L45.6796 50.3876L45.0747 52.4637L45.5237 52.5946L46.1287 50.5185ZM46.5725 51.0368L47.1675 51.2802L46.486 52.946L46.919 53.1231L47.6004 51.4572L48.1954 51.7006L48.3326 51.3651L46.7098 50.7013L46.5725 51.0368ZM48.3315 53.8951L48.7126 54.1449L49.0971 53.5585L50.5043 52.7339L50.1134 52.4775L49.1874 53.0585L49.3605 51.9841L48.9009 51.6829L48.7158 53.3087L48.3315 53.8951ZM50.7604 55.9776C51.2297 56.4453 51.7313 56.4394 52.2653 55.9608C52.7839 55.4316 52.8197 54.923 52.3733 54.4336C51.8982 53.9604 51.3858 53.9713 50.8345 54.4663C50.3275 54.9731 50.3026 55.4769 50.7604 55.9776ZM52.1283 54.6682C52.3762 54.9273 52.3088 55.2396 51.9259 55.6062C51.5487 55.9674 51.2365 56.0184 50.9886 55.7594C50.735 55.4946 50.7969 55.182 51.1739 54.8209C51.5568 54.4543 51.8749 54.4032 52.1283 54.6682ZM51.9976 57.5333L52.783 57.0472L53.2444 57.7928L53.5522 57.6023L53.0908 56.8566L53.5279 56.5862L54.0202 57.3813L54.3282 57.1905L53.5964 56.0078L51.7576 57.1456L51.9976 57.5333ZM54.916 60.4978C55.3738 60.3182 55.5188 59.9529 55.3504 59.4015C55.1524 58.859 54.701 58.6889 53.9959 58.8899C53.3181 59.1232 53.0606 59.5208 53.2242 60.0822C53.41 60.6364 53.7323 60.8521 54.1921 60.7295L54.0424 60.2617C53.7879 60.3353 53.6155 60.2433 53.5247 59.986C53.461 59.7362 53.6683 59.5268 54.1456 59.3573C54.6406 59.2155 54.9344 59.2644 55.0276 59.5048C55.1007 59.7595 55.0138 59.9344 54.7663 60.0299L54.916 60.4978ZM53.6999 61.8159L54.63 61.6393L54.7847 62.4546L53.8548 62.6312L53.9399 63.079L56.0643 62.6756L55.9772 62.2164L55.1388 62.3756L54.9861 61.5716L55.8243 61.4124L55.7395 60.9646L53.6148 61.3681L53.6999 61.8159ZM56.0636 64.043L56.0494 63.5755L53.8879 63.6416L53.9022 64.1092L56.0636 64.043ZM53.6377 66.5933L55.7828 66.866L55.8375 66.4366L54.1563 66.2228L54.1459 66.2099L55.9421 65.6134L56.0292 64.9292L53.8841 64.6564L53.8294 65.0859L55.6036 65.3114L55.6136 65.3242L53.7217 65.9323L53.6377 66.5933ZM53.3898 67.3695L53.7661 67.6741L53.4848 68.4797L53.0007 68.4839L52.8465 68.9255L55.1386 68.9209L55.3196 68.4024L53.5361 66.9499L53.3898 67.3695ZM54.0701 67.9038L54.8375 68.5062L54.8334 68.5175L53.8657 68.4891L54.0701 67.9038Z" fill="#D7000F"/>
<path fill-rule="evenodd" clip-rule="evenodd" d="M122.452 59.2718C122.452 58.6484 122.861 58.8915 123.326 58.8915L123.394 58.9753L123.427 59.1977C123.331 59.4002 123.009 59.7281 122.718 59.7281C122.611 59.7281 122.452 59.5415 122.452 59.3859V59.2718ZM121.393 58.6783L121.427 58.6994L121.577 58.7795C121.578 58.9531 121.634 59.3859 121.388 59.3859C121.331 59.3859 121.345 59.3111 121.198 59.2718L121.145 59.033L121.393 58.6783ZM123.136 56.7242V56.8762C123.136 57.2065 123.402 57.4043 123.402 57.6369V57.8648C123.402 58.1019 123.219 58.2453 122.984 58.2453C122.358 58.2453 122.832 57.185 122.832 56.8383V56.7624C122.832 56.5793 122.584 56.3819 122.452 56.3819C122.316 56.3819 122.201 56.438 122.139 56.5246C122.096 56.5831 122.093 56.6308 122.064 56.6782C122.006 56.7723 122.032 56.682 121.958 56.7998C121.932 56.8411 121.768 57.4345 121.768 57.5228C121.738 57.5441 121.674 57.5987 121.654 57.5987C121.539 57.5987 121.432 57.3649 121.377 57.2678C121.338 57.1977 121.06 57.0284 121.008 57.0284H120.894C120.66 57.0284 120.306 57.1589 120.226 57.3104C120.122 57.508 119.983 57.7893 119.983 58.0552C119.81 58.1706 119.796 58.3099 119.794 58.5885C119.792 58.8246 119.679 59.1168 119.679 59.2338V59.3859C119.679 59.3986 119.816 59.8661 119.842 59.9065C119.89 59.9777 120.169 60.1464 120.286 60.1464H120.477C120.891 60.1464 121.049 59.7661 121.312 59.7661H121.388C121.648 59.7661 121.664 59.9374 121.793 60.0304L121.768 60.2604C121.318 60.5618 121.375 60.5771 120.784 60.7962C120.236 60.9992 120.173 61.0398 120.173 61.6293C120.926 62.0281 122.191 60.915 122.697 60.6581C123.006 60.5016 125.681 59.8963 125.681 60.5647V60.6407C125.681 60.8862 124.845 61.2648 124.845 61.6673V61.7433C124.845 61.8287 124.875 61.8269 124.922 61.8873L125.187 61.9335C125.898 61.5569 126.375 61.5157 126.601 60.5733C126.712 60.1125 126.7 59.8348 126.264 59.6769C126.021 59.5892 126.154 59.4996 125.757 59.5C125.548 59.5002 125.295 59.4238 125.071 59.4515L124.503 59.538C124.435 59.5497 124.319 59.4534 124.275 59.4239C124.275 59.1359 124.192 58.6069 124.397 58.4047C124.503 58.3004 125.149 57.993 125.149 57.9411C125.149 57.2031 124.047 57.9735 124.047 57.2567C124.047 57.0253 124.359 56.7365 124.494 56.6008C124.814 56.2787 124.826 56.4765 125.045 56.0124L124.53 55.8497L124.541 55.4314V55.3933C124.541 55.218 124.457 55.0891 124.275 55.0891H124.123C123.845 55.0891 123.814 55.7263 123.683 55.9414C123.504 56.2358 123.136 56.31 123.136 56.7242Z" fill="#D7000F"/>
<path fill-rule="evenodd" clip-rule="evenodd" d="M65.7358 60.7168L65.6219 60.8688C65.6219 61.132 65.5459 61.1914 65.5459 61.4012C65.5459 62.2069 65.8558 62.77 66.6475 62.77C67.0744 62.77 67.4453 62.3888 67.4453 62.0096C67.4453 61.6351 67.3434 60.8475 67.1933 60.5887C67.1232 60.4676 67.147 60.3932 67.0905 60.2734C67.0474 60.1819 66.9834 60.157 66.9063 60.0393C66.8224 59.9107 66.5349 59.7281 66.3437 59.7281C65.8626 59.7281 65.7358 60.2163 65.7358 60.7168Z" fill="#D7000F"/>
<path fill-rule="evenodd" clip-rule="evenodd" d="M118.501 62.1997C118.244 62.3359 118.384 62.396 118.288 62.6325C118.214 62.8131 118.121 62.7462 118.121 63.1123V63.4165C118.121 63.5855 118.291 63.5119 118.314 63.7516L118.425 63.7968C119.119 63.739 119.177 63.5287 119.413 63.0363C118.813 61.9019 119.489 61.9154 119.489 61.5533C119.489 61.3702 119.417 61.3496 119.299 61.2871C119.048 61.4079 118.92 61.2896 118.767 61.5916C118.631 61.8622 118.501 61.8448 118.501 62.1997Z" fill="#D7000F"/>
<path fill-rule="evenodd" clip-rule="evenodd" d="M111.739 62.1617C111.966 61.6896 111.739 61.8948 112.202 61.5603C112.39 61.4246 112.651 61.2749 112.894 61.1883C113.018 61.1442 113.516 60.9147 113.617 60.847C113.756 60.7534 114.019 60.3797 114.019 60.1844V60.1084C114.019 59.7076 113.305 59.6521 112.879 59.6521C112.775 59.4964 112.726 59.5139 112.625 59.2979C112.524 59.0801 112.584 59.1093 112.413 58.9394C112.291 58.8179 112.279 58.7188 112.094 58.6507C112.001 58.6167 111.71 58.4733 111.701 58.4733H111.587C111.469 58.4733 111.496 58.5568 111.345 58.6108C111.229 58.6523 111.145 58.6346 111.064 58.7099C111.052 58.7206 110.811 59.1824 110.804 59.21C110.754 59.3945 110.751 59.6955 110.752 59.9183C110.754 60.5285 110.638 60.2008 110.562 60.4886C110.079 60.4994 109.923 60.6554 109.589 60.7322C109.26 60.8083 109.438 60.8106 109.199 60.95C109.034 61.0464 109.061 61.1604 109.038 61.3996C108.942 62.3901 110.41 61.8966 110.41 62.3898V62.4279C110.41 62.8383 109.697 63.4491 109.688 63.8348C109.387 63.9943 109.121 64.7281 108.89 64.7473L108.783 65.3188C108.836 65.3862 108.822 65.4317 108.928 65.4317C108.969 65.4317 109.697 65.1221 109.757 65.0828C109.938 64.9639 110.224 64.6824 110.357 64.504C110.504 64.3062 111.217 63.1883 111.36 63.1883H111.549C111.856 63.1883 112.197 63.6949 112.358 63.9001C112.499 64.0804 112.785 64.7 112.935 64.8052C113.183 64.9782 113.454 65.3486 113.785 65.4752C114.21 65.6376 114.383 65.736 115.006 65.736C115.465 65.736 116.286 65.5038 116.564 65.3177L116.588 65.2813L115.943 64.8614L115.918 64.8994C115.872 64.728 115.754 64.7093 115.538 64.7093C115.286 64.3331 115.09 64.6157 114.878 64.3813C114.807 64.3029 114.403 64.0664 114.246 64.0629L113.253 63.1877L113.026 62.9975L112.993 63.0362C112.938 62.8022 112.634 62.6505 112.411 62.5543C111.955 62.3577 112.074 62.3859 111.739 62.1617Z" fill="#D7000F"/>
<path fill-rule="evenodd" clip-rule="evenodd" d="M100.761 65.736H100.837V65.6599H100.761V65.736ZM101.673 65.0156L101.717 65.1249L101.558 65.1276L101.561 65.0586L101.673 65.0156ZM102.47 62.3518C102.603 62.3208 102.774 62.1977 102.774 62.3899V62.504C102.774 62.6562 102.672 62.5957 102.546 62.656L102.424 62.5501L102.47 62.3518ZM100.761 65.6599H100.609C100.589 65.6961 100.457 65.977 100.457 66.0022V66.2303C100.457 66.3179 100.483 66.3444 100.571 66.3444H100.723C100.974 66.3444 102.067 65.7527 102.28 65.6217C102.778 65.3155 103.06 64.6517 103.382 64.4812C103.835 64.5868 104.501 66.0402 105.319 66.0402H105.433C105.721 66.0402 105.759 65.4669 106.041 65.3177L105.874 65.14C105.832 64.9377 105.255 64.4874 104.977 64.4812C104.922 64.2434 104.779 64.3243 104.559 64.177C104.199 64.177 103.928 64.078 103.8 63.8348C103.95 63.521 103.904 63.5114 104.111 63.1958C104.331 62.8608 104.374 62.9828 104.68 62.8152C104.913 62.6882 105.091 62.658 105.327 62.5116C105.522 62.3902 105.701 62.2222 105.927 62.1617C105.829 62.0146 105.841 61.8388 105.687 61.7935C105.526 61.7461 105.277 61.7856 105.106 61.7656C104.739 61.7229 104.598 62.11 104.408 62.2378L104.257 62.1596L104.256 61.9716L103.811 61.5409C104.008 61.1607 104.094 61.1638 104.36 60.8975C104.527 60.7302 104.825 60.5238 104.825 60.2225C104.825 60.1901 104.699 59.9563 104.635 59.9563C104.604 59.9563 103.496 60.3982 103.496 60.0705C103.496 59.8747 103.812 59.4814 103.92 59.3161C104.059 59.1024 104.347 58.9583 104.55 58.8059C104.73 58.67 105.813 57.8985 105.813 57.7511C105.813 57.448 105.401 57.5417 105.168 57.5619C104.75 57.5986 104.782 57.7143 104.521 57.7889C104.269 57.8615 103.705 58.389 103.572 58.5875L103.34 58.4012C103.485 58.1297 104.065 57.7216 104.065 57.2946C104.065 57.107 103.548 56.7625 103.268 56.7625H103.116C102.734 56.7625 102.328 57.3543 102.318 57.7889C102.094 57.9076 101.9 58.5455 101.9 58.9297V59.0818C101.9 59.2488 101.934 59.5381 102.09 59.5381H102.242C102.246 59.5381 102.849 59.2164 102.888 59.1578C103.047 59.1578 103.306 59.0648 103.306 59.2719V59.4621C103.067 59.5258 102.459 60.0812 102.367 60.3095C101.949 61.3514 102.414 60.9484 102.546 61.5153C102.478 61.6431 102.318 61.7556 102.318 61.8576V61.9716C102.137 61.9757 102.105 61.9879 102.09 62.1617L101.902 62.1152L101.9 61.8956H101.862C101.862 62.553 101.292 62.8953 101.292 63.4546C101.292 63.618 101.361 63.7172 101.444 63.7968C101.744 63.727 102.428 63.5306 102.698 63.5306C102.747 63.5306 102.891 63.5896 102.964 63.6067L102.916 63.8713L102.318 64.5948C102.16 64.5988 102.077 64.6749 101.953 64.5811C101.874 64.5214 101.806 64.3445 101.748 64.5192H101.634L101.446 64.1882L101.423 64.224L101.16 64.7199L101.215 64.9001C100.995 65.0169 100.761 65.3246 100.761 65.6599Z" fill="#D7000F"/>
<path fill-rule="evenodd" clip-rule="evenodd" d="M81.501 63.0361C81.0628 63.0361 80.9033 63.1884 80.825 63.5384C80.6801 64.1873 80.9997 63.892 81.3019 64.148C81.5183 64.3312 81.7052 64.5251 81.7742 64.8541C81.8111 65.0314 81.9187 64.9821 81.9529 65.2834C81.9815 65.5336 81.9738 65.5438 82.1469 65.6598V65.85L82.4028 66.0464L82.8676 66.1249L82.9445 66.1161C83.7142 66.1161 83.7459 64.4655 83.4025 64.1367C83.3043 64.0428 83.2417 63.9082 83.0686 63.7485C83.0497 63.731 82.677 63.4811 82.6389 63.4561C82.3288 63.253 82.6425 63.3577 82.1612 63.2119C82.0017 63.1636 81.8699 63.0361 81.6149 63.0361H81.501Z" fill="#D7000F"/>
<path fill-rule="evenodd" clip-rule="evenodd" d="M89.8581 59.462C90.0659 59.3518 90.493 59.2464 90.7553 59.1431C91.0885 59.0116 91.1686 58.8312 91.4054 58.6152C91.7571 58.2947 92.5932 58.0536 92.5932 57.4086V57.2185C92.5932 56.8376 92.1234 56.5341 91.7954 56.5341H91.6055C91.2074 56.5341 91.255 56.7011 90.8449 56.7614C90.6006 56.7973 90.6539 56.8599 90.5051 56.9155C90.3889 56.9588 90.2333 56.9561 90.1004 57.0048C89.869 57.0899 89.6596 57.26 89.4774 57.3701C89.3046 57.4742 89.0984 57.669 89.0984 57.941C89.0984 58.2328 89.5289 58.4061 89.7601 58.3768C89.9078 58.358 90.0895 58.292 90.1725 58.2178C90.3755 58.0361 90.3161 58.1255 90.5418 58.017L90.7045 58.1559C90.4529 58.625 89.7383 58.7704 89.7061 59.1577C89.5362 59.044 89.3863 58.6152 89.0566 58.5962C88.7781 58.5801 88.446 58.8507 88.3094 59.0145C88.0129 59.3701 87.8067 60.2366 87.8067 60.9069C87.4914 61.3782 87.405 63.7245 87.4267 64.4811L87.4701 65.089L87.752 65.6303C88.1978 65.6218 88.2795 65.8119 88.5664 65.8119H88.6424C89.227 65.8119 89.8336 64.9225 90.0736 64.5066C90.5048 63.759 90.6947 63.593 90.9218 62.6179L91.1917 62.7218C91.1877 63.155 91.2952 63.5375 91.3993 63.8888C91.5445 64.3777 92.5018 65.2738 92.9267 65.6302C93.0966 65.7728 93.641 66.1161 93.9228 66.1161H94.0748C94.2184 66.1161 94.3282 66.0233 94.4166 65.964C94.4166 65.5879 94.3978 65.3534 94.518 65.0769C94.58 64.9346 94.6056 64.8883 94.6585 64.7231C94.7245 64.5162 94.8345 64.4938 94.8345 64.405C94.8345 64.3398 94.6283 64.1146 94.5305 64.0628C94.3379 64.1649 94.1127 64.4806 94.1127 64.7853H93.9607C93.7048 64.7853 93.2098 64.1197 93.0383 63.9215C92.9002 63.7622 92.7774 63.5308 92.6409 63.3686C92.4941 63.1941 92.0234 62.3512 92.0234 62.0856C92.0234 61.5696 92.8212 61.0061 92.8212 60.6787C92.8212 60.5253 92.5494 60.3365 92.4031 60.3365C92.3412 60.3365 91.8405 60.5967 91.7575 60.6406C91.527 60.2961 91.7652 59.7661 91.1495 59.7661H90.9976C90.7362 59.7661 90.3898 59.9662 90.3898 60.2224V60.4886C90.3898 60.658 90.5418 60.5473 90.5418 60.7167V61.0969C90.3588 61.1122 90.329 61.1419 90.3138 61.3251C90.1038 61.3741 89.896 61.667 89.896 61.9335V61.9715C89.896 62.1068 90.0042 62.1048 90.0859 62.1616C90.192 62.0906 90.2462 62.0475 90.4279 62.0475H90.4658C90.5827 62.0475 90.6178 62.1589 90.6178 62.2757V62.3137C90.6178 62.5889 90.5157 62.6601 90.3519 62.77C90.3519 62.99 89.594 63.9194 89.4523 64.189C89.3785 64.3289 89.3345 64.5951 89.1744 64.5951H89.0984C88.8457 64.5951 88.7533 63.63 88.7552 63.3018C88.7579 62.7917 88.8398 62.2524 88.938 61.8491C89.0428 61.4201 89.1245 60.9192 89.2883 60.5646C89.4459 60.2228 89.5739 59.715 89.6682 59.3098L89.8581 59.462Z" fill="#D7000F"/>
<path fill-rule="evenodd" clip-rule="evenodd" d="M81.121 59.538C81.121 59.335 81.2998 59.1197 81.501 59.1197C81.6657 59.1197 81.7668 59.2118 81.7668 59.3859C81.7668 59.6513 81.5137 59.9182 81.273 59.9182C81.197 59.9182 81.121 59.7602 81.121 59.652V59.538ZM83.0964 58.6254C83.0964 58.2108 82.6994 58.0665 82.5647 57.8648C82.3195 57.8648 81.7966 57.8462 81.5001 57.8276C81.0738 57.8011 81.197 57.4515 81.197 57.1425C81.197 56.9173 81.2303 56.0503 81.1838 55.9389C81.1031 55.7454 80.9618 55.7299 80.7413 55.6975C80.5246 55.6655 80.3025 55.5455 80.2093 55.5455C80.1542 55.5455 79.9398 55.7982 79.8953 55.8511L80.0736 57.2165L80.0573 58.0551C80.0573 58.1894 79.6712 58.2616 79.5029 58.3745C79.392 58.4494 79.0696 58.6867 79.0696 58.8155V58.9676C79.0696 59.0704 79.3318 59.4999 79.5635 59.4999C79.6794 59.4999 79.7168 59.4634 79.7914 59.4239C79.9203 59.4539 80.0954 59.4992 80.0954 59.652C80.0954 59.8374 80.046 60.4758 80.0049 60.6261C79.9214 60.931 79.8296 61.1032 79.8296 61.5152C79.6485 61.6111 79.5698 61.7814 79.3736 61.7814H79.2216C79.137 61.7814 78.9968 61.5766 78.9557 61.5152L78.9081 60.9838L78.9178 60.1844C78.9178 59.8165 79.0154 59.3718 78.8811 59.1184C78.821 59.0051 78.3646 58.6254 78.196 58.6254H77.968C77.792 58.6254 77.5502 58.8419 77.5502 59.0056C77.5502 59.6467 77.584 60.0576 77.7006 60.5661C77.7527 60.7934 77.7782 61.8773 77.7782 62.1616L77.0568 62.2426L76.9127 62.3982C76.5303 62.3898 76.1546 62.5733 76.0307 62.808C75.7526 62.808 75.7097 62.8529 75.6129 63.0361C75.327 63.0425 75.195 63.2445 75.195 63.5305V63.5685C75.195 63.8545 75.3636 63.7323 75.4228 63.9868C75.6576 63.9868 75.6768 64.0628 75.8406 64.0628C76.8549 64.0628 77.8875 62.8461 78.9178 62.8461H78.9936C79.1483 62.8461 79.198 62.9061 79.2597 62.9981C79.1966 63.2686 78.8822 63.5848 78.6989 63.7679C78.546 63.9207 78.4948 63.9523 78.3367 64.0895C77.9696 64.4077 76.3229 65.2958 76.2206 65.7359C76.0468 65.7503 76.0346 65.7824 76.0307 65.964L75.8252 66.1386L75.9268 66.3396L76.1067 66.3443C76.3413 66.3443 76.484 66.2272 76.6432 66.1589C76.7768 66.1015 77.0724 66.0849 77.2174 66.0492C77.4762 65.9858 77.9594 65.7192 78.1477 65.5735C78.7012 65.1447 79.129 64.7608 79.5181 64.1695C80.9554 61.9846 79.771 62.2757 83.1343 62.2757C83.524 62.2757 83.8836 62.0716 83.9491 61.7595C83.9893 61.569 83.8836 61.4285 83.7375 61.3679C83.5898 61.3066 83.3943 61.173 83.2865 61.173H83.0964C82.7006 61.173 82.2342 61.4392 81.653 61.4392H81.273C81.0489 61.4392 81.0112 61.316 80.969 61.135C81.1162 60.9151 81.3993 60.7838 81.6375 60.6252C81.9263 60.4328 82.0323 60.3171 82.2836 60.1312C82.5885 59.9056 83.0964 59.1539 83.0964 58.6254Z" fill="#D7000F"/>
<path fill-rule="evenodd" clip-rule="evenodd" d="M98.2538 60.4886C98.2538 60.4342 99.3393 59.4119 99.5201 59.3226C100.088 59.0421 101.141 59.187 101.141 58.5114V57.9411C101.141 57.5902 100.366 57.3706 99.9252 57.3706H99.8494C98.7059 57.3706 99.5205 58.6094 99.0428 58.997C98.8422 59.1597 98.8388 59.0003 98.7635 59.3257C98.7218 59.5054 98.6406 59.5933 98.5074 59.6779C98.367 59.7672 97.9262 60.1263 97.9119 60.2986C97.6794 60.3178 97.7815 60.3683 97.7046 60.4712C97.6143 60.5922 97.6431 60.4555 97.5086 60.6173C97.384 60.7671 97.2872 60.8558 97.1474 60.9782C97.0987 61.0209 96.8727 61.3113 96.811 61.3639C96.7096 61.4506 96.5824 61.642 96.5824 61.8195C96.5824 61.9377 96.6835 62.1236 96.8103 62.1236C96.8961 62.1236 97.1817 61.9616 97.2738 61.9413C97.4544 61.9013 97.6147 61.8814 97.794 61.8535C98.3246 61.771 98.3835 61.4013 98.5578 61.4013H98.6716C98.7733 61.4013 98.7839 61.4561 98.8236 61.5152C98.7578 62.3075 97.8972 62.9459 97.874 63.2264L97.7234 63.2691C97.7143 63.6132 97.2752 63.7015 97.2661 64.1009C96.9467 64.1275 97.0762 64.7107 97.0762 64.9754C97.3625 65.1673 98.0673 65.1024 98.1837 64.7531C98.2831 64.4547 98.5212 63.9684 98.6866 63.6976C98.864 63.4071 99.7403 61.8955 100.001 61.8955C100.055 61.8955 100.191 62.0953 100.191 62.1617V62.1997C100.191 63.2571 99.7884 63.7582 99.393 64.4047C99.2467 64.6441 98.9028 65.0015 98.6115 65.1053C98.1388 65.2736 98.1018 65.4394 98.1018 66.0782V66.2303C98.1018 66.3179 98.1283 66.3443 98.2159 66.3443H98.2538C98.2808 66.3443 99.048 66.1566 99.1031 66.1297C99.2778 66.0447 99.4763 65.75 99.5906 65.591C99.7784 65.329 100.224 64.5937 100.329 64.2765C100.507 63.7375 100.71 63.3804 100.876 62.7328C100.941 62.4781 100.953 62.1014 100.987 61.8159C101.042 61.3518 100.685 61.4198 100.685 61.097C100.685 60.9416 101.863 60.0406 101.863 59.8042C101.863 59.5767 101.291 59.4247 100.998 59.4705C100.787 59.5033 100.219 59.6815 100.038 59.7653C99.8367 59.8588 99.3658 60.0917 99.1963 60.2154C99.0831 60.298 98.5571 60.7549 98.4818 60.7549C98.3833 60.7549 98.4427 60.7293 98.2919 60.7168C98.2787 60.5605 98.2538 60.6319 98.2538 60.4886Z" fill="#D7000F"/>
<path fill-rule="evenodd" clip-rule="evenodd" d="M70.4087 59.7281C70.4087 59.1424 70.8787 59.0488 71.3964 59.0057C71.4792 59.0612 71.6242 59.1155 71.6242 59.2338V59.3859C71.6242 59.5812 70.8803 60.1464 70.6746 60.1464H70.5986C70.4312 60.1464 70.4087 59.9021 70.4087 59.7281ZM69.0792 67.8272C69.4711 67.6195 69.798 67.4577 69.8023 66.8401C69.8057 66.3151 69.9226 65.8506 70.0063 65.3712C70.1635 64.4726 70.0004 63.0151 70.1821 62.2011C70.3012 61.6673 70.7767 61.7295 71.2065 61.5153C71.5745 61.3319 71.7993 61.0022 72.0888 60.7254C72.2165 60.6033 72.4304 60.4751 72.5434 60.344C72.6727 60.1942 72.8063 60.0525 72.9451 59.9095C73.4011 59.4395 73.1525 59.0035 73.3337 58.6255C73.1363 58.2521 73.0438 57.9728 72.4603 57.9787C72.3004 57.9803 71.9077 57.9588 71.7462 57.9327C71.408 57.8782 71.4441 57.9789 71.1305 57.9789H70.7885C70.7034 57.9789 70.4847 57.8215 70.4847 57.7129V57.2945C70.4847 57.1072 70.5593 56.8547 70.5986 56.6864C70.3268 56.2798 70.2236 56.0777 69.5349 56.0777C69.1472 56.0777 69.0059 56.5419 68.9684 56.8799C68.9117 57.3946 69.0081 57.6455 68.7684 58.0102C68.4941 58.427 68.483 58.4043 68.0676 58.6776C67.87 58.8076 67.6355 59.2463 67.6355 59.576C67.6355 60.2011 67.829 60.0783 68.2981 60.1676C68.6134 60.2276 68.889 60.4617 68.889 60.7928V60.8308C68.889 61.3421 67.9395 61.3494 67.9395 62.0856V62.1236C67.9395 62.579 68.106 62.5039 68.4333 62.5039C68.9038 62.5039 68.6992 63.6265 68.6992 64.1008V65.926C68.6992 66.2144 68.5853 66.4023 68.5853 66.5724C68.5853 66.6008 68.6613 66.6714 68.6613 66.8766C68.5039 66.9986 68.6996 67.665 69.0792 67.8272ZM122.528 67.0672C122.799 66.9127 122.96 66.7179 123.143 66.4656C123.278 66.2793 123.442 65.8698 123.44 65.5462C123.437 64.9174 123.348 64.8987 123.744 64.6332C124.548 64.6332 124.997 64.502 124.997 63.6826C124.997 63.5666 124.961 63.5292 124.921 63.4545L124.158 63.3717C124.093 63.3863 124.095 63.4164 124.01 63.4164H123.592C123.388 63.4164 123.06 63.2346 123.06 62.9982C123.06 62.858 123.478 62.4767 123.478 61.7053V61.5152C123.478 61.3595 123.182 61.287 123.022 61.287H122.908C122.907 61.287 122.393 61.4028 122.353 61.4164C122.179 61.4757 122.069 61.5633 122.036 61.746C121.918 62.4068 122.49 62.1332 122.49 62.5419V63.0742C122.49 63.1097 122.383 63.2643 122.333 63.3729C122.273 63.5013 122.156 63.4559 121.958 63.4545C121.493 63.4513 121.551 63.4592 121.274 63.6446H120.895L121.03 63.3889L120.857 63.3784C120.273 63.3784 120.653 63.4858 120.135 63.6066C120.337 63.8827 120.467 63.4188 120.667 63.8347C120.047 63.8485 119.594 64.2568 119.375 64.6712L119.62 65.4263C119.688 65.4515 119.69 65.4697 119.793 65.4697H119.831C119.889 65.4697 120.392 65.4103 120.551 65.3919C120.654 65.38 121.042 65.2474 121.166 65.209C121.401 65.1362 122.138 64.8614 122.376 64.8614H122.452C122.615 64.8614 122.756 64.9785 122.756 65.1275C122.756 65.2388 122.524 65.6514 122.454 65.6996C122.289 65.8123 121.935 65.7739 121.654 65.7739C121.55 65.844 121.237 66.266 121.237 66.4203V66.8766C121.348 67.5332 122.097 67.3137 122.528 67.0672Z" fill="#D7000F"/>
<path fill-rule="evenodd" clip-rule="evenodd" d="M67.8543 70.4311V72.88H68.4239V70.0309H67.4691L66.8225 72.1099H66.8067L66.2062 70.0309H65.2056V72.88H65.7752V70.4468L65.7902 70.4311L66.5453 72.88H67.0533L67.8543 70.4311ZM69.1505 72.88H69.7668V70.0309H69.1505V72.88ZM73.0502 72.88V70.0309H72.4799V72.2637L72.4647 72.2794L71.3865 70.0309H70.4778V72.88H71.0481V70.5237L71.0633 70.5086L72.1723 72.88H73.0502ZM73.6074 72.88H75.7942V72.4023H74.3623L75.7631 70.5086V70.0309H73.6999V70.5086H75.0241L73.6074 72.4023V72.88ZM78.2764 70.0309V71.5862C78.2871 71.9253 78.2455 72.1559 78.1537 72.2794C78.0609 72.4233 77.8966 72.495 77.6607 72.495C77.4243 72.495 77.2553 72.4233 77.1521 72.2794C77.0603 72.1559 77.0187 71.9253 77.0294 71.5862V70.0309H76.4131V71.8175C76.4339 72.5259 76.8493 72.8905 77.6607 72.9109C78.4513 72.8905 78.8619 72.5259 78.8927 71.8175V70.0309H78.2764ZM82.4345 70.0309V71.5862C82.445 71.9253 82.4037 72.1559 82.3116 72.2794C82.219 72.4233 82.0548 72.495 81.8189 72.495C81.5823 72.495 81.4135 72.4233 81.3103 72.2794C81.2182 72.1559 81.1769 71.9253 81.1873 71.5862V70.0309H80.571V71.8175C80.5921 72.5259 81.0074 72.8905 81.8189 72.9109C82.6094 72.8905 83.02 72.5259 83.0509 71.8175V70.0309H82.4345ZM86.396 72.88V70.0309H85.8257V72.2637L85.8105 72.2794L84.7323 70.0309H83.8235V72.88H84.3938V70.5237L84.409 70.5086L85.5181 72.88H86.396ZM87.0918 72.88H87.7081V70.0309H87.0918V72.88ZM89.2509 72.88H89.9133L90.9607 70.0309H90.36L89.6209 72.2794H89.605L88.8657 70.0309H88.2035L89.2509 72.88ZM91.4414 72.88H93.397V72.4023H92.0573V71.648H93.2582V71.1703H92.0573V70.5086H93.351V70.0309H91.4414V72.88ZM94.6783 70.5086H95.1866C95.4738 70.4981 95.6179 70.6163 95.6179 70.8628C95.6179 71.1296 95.4738 71.2629 95.1866 71.2629H94.6783V70.5086ZM94.6783 71.7406H95.3248C95.479 71.7406 95.5666 71.8635 95.5868 72.1099C95.5975 72.3767 95.6329 72.6336 95.6948 72.88H96.357C96.2848 72.767 96.2336 72.541 96.2027 72.2026C96.2027 72.1816 96.1979 72.1513 96.1875 72.1099C96.1671 71.6992 95.9976 71.4889 95.6796 71.4785V71.4634C96.0593 71.3707 96.2544 71.14 96.2644 70.7701C96.2544 70.2878 95.9259 70.0414 95.2787 70.0309H94.0624V72.88H94.6783V71.7406ZM99.0392 70.847C99.0091 70.2925 98.6851 70 98.0692 69.9691C97.3097 70.0106 96.9141 70.3233 96.8832 70.9088C96.8832 71.2886 97.1968 71.5507 97.8229 71.694C97.8433 71.7045 97.8793 71.715 97.9306 71.7249C98.2899 71.7972 98.4694 71.9305 98.4694 72.1257C98.4596 72.3616 98.2698 72.4844 97.8998 72.495C97.5817 72.4746 97.422 72.2998 97.422 71.9713H96.8063C96.7959 72.5975 97.1605 72.9109 97.8998 72.9109C98.7008 72.8905 99.1061 72.5824 99.1166 71.987C99.1266 71.5967 98.7981 71.3346 98.1311 71.2012C98.0896 71.1913 98.064 71.1861 98.0536 71.1861C97.6843 71.1348 97.5094 71.0014 97.5305 70.7852C97.5404 70.5598 97.6947 70.4363 97.9923 70.416C98.2899 70.416 98.444 70.5598 98.4544 70.847H99.0392ZM99.7506 72.88H100.367V70.0309H99.7506V72.88ZM100.862 70.5086H101.709V72.88H102.326V70.5086H103.173V70.0309H100.862V70.5086ZM104.454 72.88H105.055V71.9562L106.009 70.0309H105.394L104.793 71.3398L104.208 70.0309H103.483L104.454 71.9562V72.88ZM108.689 72.9109C109.562 72.8905 110.013 72.4076 110.044 71.4634C110.013 70.4875 109.562 69.9902 108.689 69.9691C107.806 69.9902 107.349 70.4875 107.318 71.4634C107.339 72.4076 107.795 72.8905 108.689 72.9109ZM108.689 70.416C109.161 70.416 109.397 70.7649 109.397 71.4634C109.397 72.1514 109.161 72.495 108.689 72.495C108.206 72.495 107.965 72.1514 107.965 71.4634C107.965 70.7649 108.206 70.416 108.689 70.416ZM111.31 72.88V71.6631H112.465V71.1861H111.31V70.5086H112.542V70.0309H110.709V72.88H111.31ZM116.238 70.9548C116.197 70.3082 115.797 69.9797 115.037 69.9691C114.277 70 113.882 70.4981 113.851 71.4634C113.871 72.4076 114.267 72.8905 115.037 72.9109C115.807 72.9004 116.207 72.5824 116.238 71.9562H115.591C115.581 72.3051 115.396 72.4844 115.037 72.495C114.698 72.4746 114.519 72.1303 114.497 71.4634C114.519 70.7852 114.698 70.4363 115.037 70.416C115.386 70.4265 115.57 70.6059 115.591 70.9548H116.238ZM117.427 72.88V71.6329H118.52V72.88H119.121V70.0309H118.505V71.1552H117.427V70.0309H116.826V72.88H117.427ZM119.848 72.88H120.464V70.0309H119.848V72.88ZM123.748 72.88V70.0309H123.177V72.2637L123.162 72.2794L122.084 70.0309H121.175V72.88H121.745V70.5237L121.761 70.5086L122.87 72.88H123.748ZM124.828 72.88L125.044 72.2794H126.168L126.384 72.88H127L125.999 70.0309H125.275L124.243 72.88H124.828ZM125.198 71.8017L125.614 70.5855H125.629L126.015 71.8017H125.198Z" fill="#D7000F"/>
</g>
<defs>
<filter id="filter0_d_185_15" x="0" y="0" width="154" height="157" filterUnits="userSpaceOnUse" color-interpolation-filters="sRGB">
<feFlood flood-opacity="0" result="BackgroundImageFix"/>
<feColorMatrix in="SourceAlpha" type="matrix" values="0 0 0 0 0 0 0 0 0 0 0 0 0 0 0 0 0 0 127 0" result="hardAlpha"/>
<feOffset dy="16"/>
<feGaussianBlur stdDeviation="6.5"/>
<feColorMatrix type="matrix" values="0 0 0 0 0 0 0 0 0 0 0 0 0 0 0 0 0 0 0.03 0"/>
<feBlend mode="normal" in2="BackgroundImageFix" result="effect1_dropShadow_185_15"/>
<feBlend mode="normal" in="SourceGraphic" in2="effect1_dropShadow_185_15" result="shape"/>
</filter>
</defs>
</svg>
