<svg width="154" height="157" viewBox="0 0 154 157" fill="none" xmlns="http://www.w3.org/2000/svg">
<g clip-path="url(#clip0_3_246)">
<g filter="url(#filter0_d_3_246)">
<path d="M141 0H13V128H141V0Z" fill="white"/>
<path d="M37.3812 69.8199L37.396 69.5983H37.894V69.3324H37.1349L37.071 70.1064C37.071 70.1064 37.2123 70.0692 37.3835 70.079C37.5332 70.0875 37.6737 70.1591 37.6781 70.2858C37.6818 70.4006 37.5656 70.4645 37.4602 70.4834C37.3471 70.504 37.194 70.4773 37.1204 70.4473L37.0565 70.6962C37.146 70.7429 37.3636 70.7658 37.5041 70.7429C37.8163 70.6922 37.9717 70.5212 37.9717 70.2611C37.9717 70.0469 37.815 69.805 37.3812 69.8199Z" fill="#236840"/>
<path d="M38.6396 70.2018C38.6396 70.2018 39.0652 69.8991 39.0652 69.6579C39.0652 69.4663 38.9024 69.318 38.6477 69.318C38.4646 69.318 38.2892 69.3974 38.1676 69.4998L38.3024 69.7336C38.4004 69.64 38.5223 69.5846 38.6216 69.5846C38.7132 69.5846 38.7676 69.6305 38.7652 69.6988C38.7595 69.8569 38.2102 70.244 38.2102 70.244L38.1872 70.4656H39.0983L39.1348 70.2018H38.6396Z" fill="#236840"/>
<path d="M36.2809 69.9877C36.1599 69.9877 36.1032 69.8877 36.1032 69.7799C36.1032 69.6505 36.1708 69.5488 36.2819 69.5488C36.4076 69.5488 36.4772 69.6667 36.4755 69.7661C36.4772 69.8684 36.4174 69.9877 36.2809 69.9877ZM36.2789 69.2917C36.0005 69.2934 35.8086 69.5123 35.8086 69.7779C35.8086 70.0238 35.9667 70.2228 36.211 70.2228C36.3474 70.2228 36.463 70.1694 36.5224 70.0853C36.538 70.2796 36.4508 70.4424 36.2488 70.4873C36.1596 70.5073 36.0346 70.4931 35.9701 70.4657L35.9066 70.7144C36.0126 70.7613 36.1914 70.7728 36.3238 70.7394C36.6623 70.6539 36.8062 70.3863 36.8062 69.984C36.8062 69.5982 36.6285 69.2904 36.2789 69.2917Z" fill="#236840"/>
<path d="M36.9721 52.1946C30.478 52.1946 25.1946 57.4779 25.1946 63.9718C25.1946 70.4659 30.478 75.7493 36.9721 75.7493C43.4663 75.7493 48.7493 70.4659 48.7493 63.9718C48.7493 57.4779 43.4663 52.1946 36.9721 52.1946ZM36.9721 75.9439C30.3709 75.9439 25 70.5733 25 63.9718C25 57.3705 30.3709 52 36.9721 52C43.5734 52 48.9439 57.3705 48.9439 63.9718C48.9439 70.5733 43.5734 75.9439 36.9721 75.9439Z" fill="#236840"/>
<path d="M36.9722 55.4544C32.2756 55.4544 28.4544 59.2753 28.4544 63.9719C28.4544 68.6684 32.2756 72.4893 36.9722 72.4893C41.6684 72.4893 45.4896 68.6684 45.4896 63.9719C45.4896 59.2753 41.6684 55.4544 36.9722 55.4544ZM36.9722 72.6839C32.1682 72.6839 28.2601 68.7758 28.2601 63.9719C28.2601 59.1682 32.1682 55.2598 36.9722 55.2598C41.7758 55.2598 45.6838 59.1682 45.6838 63.9719C45.6838 68.7758 41.7758 72.6839 36.9722 72.6839Z" fill="#236840"/>
<path d="M36.9717 61.6035C36.9717 61.6035 39.0112 63.4856 41.7051 65.0869L41.7058 63.3295C38.7596 61.4657 36.9717 59.6637 36.9717 59.6637C36.9717 59.6637 35.1843 61.4657 32.238 63.3295L32.2387 65.0869C34.9323 63.4856 36.9717 61.6035 36.9717 61.6035Z" fill="#236840"/>
<path d="M36.9719 58.4665C36.9719 58.4665 38.5806 60.0888 40.5468 61.3415L40.5475 59.6486C38.3705 58.0834 36.9719 56.5267 36.9719 56.5267C36.9719 56.5267 35.5733 58.0834 33.3966 59.6486L33.3973 61.3415C35.3635 60.0888 36.9719 58.4665 36.9719 58.4665Z" fill="#236840"/>
<path d="M36.9717 66.9656C36.2707 66.4045 34.913 66.3694 34.913 66.3694L36.9717 64.7407L39.0308 66.3694C39.0308 66.3694 37.6731 66.4045 36.9717 66.9656ZM43.2345 66.5167H41.9068C39.5744 65.2484 36.9717 62.8008 36.9717 62.8008C36.9717 62.8008 34.3694 65.2484 32.0367 66.5167H30.709L29.9215 67.8825C29.9215 67.8825 30.4458 68.1619 31.5147 68.0339C31.9083 67.9869 32.8164 67.791 33.8502 67.7602C34.6147 67.7373 35.5714 67.8633 36.0525 68.3437L36.9717 68.3433L37.8913 68.3437C38.3724 67.8633 39.3291 67.7373 40.0936 67.7602C41.1274 67.791 42.0355 67.9869 42.4291 68.0339C43.498 68.1619 44.0223 67.8825 44.0223 67.8825L43.2345 66.5167Z" fill="#236840"/>
<path d="M28.5223 69.6325L28.305 69.642C28.305 69.642 28.3115 69.7237 28.4054 69.8386C28.4169 69.8521 28.4334 69.8707 28.4537 69.893L28.2088 70.0491C28.1088 69.996 27.9892 69.8748 27.9243 69.7731C27.727 69.4633 27.7966 69.2163 28.0523 69.0531C28.3118 68.8876 28.5932 68.9643 28.7655 69.2346C28.8594 69.3819 28.9057 69.5775 28.8787 69.7234L29.1202 69.743C29.1493 69.5545 29.0925 69.3116 28.9598 69.1109C28.6736 68.6785 28.2662 68.6116 27.9159 68.8349C27.5652 69.0582 27.4348 69.4494 27.7132 69.8859C27.8355 70.0778 28.0348 70.2464 28.2078 70.3106L28.7388 69.9724L28.6206 69.7869L28.5223 69.6325Z" fill="#236840"/>
<path d="M27.4683 64.6429L27.4673 64.6327L27.4619 64.5709C27.4619 64.5709 27.4 64.5919 27.3869 64.65L26.0399 64.7679L26.0622 65.0216L27.4902 64.8966L27.4683 64.6429Z" fill="#236840"/>
<path d="M27.7764 66.4576L27.7737 66.4478L27.7564 66.388C27.7564 66.388 27.6997 66.4204 27.698 66.4799L26.3973 66.8495L26.4669 67.0947L27.846 66.7028L27.7764 66.4576Z" fill="#236840"/>
<path d="M27.6242 65.8063L27.6225 65.7962L27.6117 65.7354C27.6117 65.7354 27.5519 65.7614 27.5438 65.8205L27.3979 65.8465L27.3215 65.86L26.6617 65.9766C26.529 65.9999 26.4165 65.9313 26.3925 65.7962C26.3726 65.683 26.4161 65.5617 26.5023 65.4486L26.3006 65.3415C26.1939 65.4638 26.1253 65.6367 26.1597 65.8303C26.2114 66.1246 26.4097 66.28 26.7003 66.2286L27.6688 66.0573L27.6242 65.8063Z" fill="#236840"/>
<path d="M27.9272 66.9973C27.9272 66.9973 27.8748 67.0362 27.8799 67.0956L26.6329 67.6189L26.7316 67.8537L27.6316 67.476L28.0532 67.2973L27.9272 66.9973Z" fill="#236840"/>
<path d="M28.3676 68.0468L27.4136 68.4475L27.3139 68.489C27.3139 68.489 27.4166 68.4211 27.5041 68.2424C27.6524 67.9306 27.8366 67.6306 27.9497 67.4549C27.8007 67.4775 27.5866 67.5525 27.446 67.785C27.3285 67.9931 27.1751 68.288 27.0491 68.61L27.144 68.8366L28.4663 68.2819L28.3676 68.0468Z" fill="#236840"/>
<path d="M26.4026 62.1616L26.4895 61.6873L26.8634 61.7555L26.777 62.2298C26.7476 62.4014 26.6709 62.5105 26.5472 62.4879C26.4151 62.4639 26.3695 62.3325 26.4026 62.1616ZM26.8763 62.5105C26.8868 62.6707 26.9884 62.7852 27.1435 62.8136C27.3614 62.8531 27.5303 62.6923 27.585 62.3923L27.6878 61.8308C27.707 61.7234 27.7273 61.6443 27.7273 61.6443C27.7273 61.6443 27.4948 61.6433 27.3898 62.1805C27.3783 62.2433 27.3675 62.3008 27.3614 62.3369C27.3371 62.4761 27.2563 62.566 27.1425 62.545C27.0256 62.5237 26.9773 62.4102 27.0026 62.2714L27.0898 61.7967L27.4057 61.8545C27.4611 61.692 27.5584 61.6234 27.5584 61.6234L27.4601 61.6055L26.3094 61.3954L26.1709 62.1524C26.1121 62.4751 26.2229 62.7014 26.4648 62.7457C26.652 62.7798 26.8077 62.6916 26.8763 62.5105Z" fill="#236840"/>
<path d="M26.2744 63.3392L26.6467 63.3534L26.6156 64.1831L26.845 64.1919L26.8761 63.3619L27.2041 63.374C27.2068 63.3602 27.2099 63.347 27.2129 63.3345C27.2136 63.3311 27.2146 63.3281 27.2153 63.3251C27.2187 63.3132 27.222 63.3021 27.2254 63.2913L27.2261 63.2899C27.2301 63.2781 27.2345 63.2673 27.2386 63.2568C27.2393 63.2551 27.2399 63.2534 27.2409 63.2517C27.2453 63.2416 27.2497 63.2321 27.2538 63.2234C27.2876 63.1565 27.3224 63.1234 27.3224 63.1234L27.2578 63.121L27.223 63.12L26.8859 63.1071L26.6562 63.0987L26.2839 63.0849L26.0545 63.0761L26.0447 63.3308L26.0099 64.2656L26.2393 64.2744L26.2744 63.3392Z" fill="#236840"/>
<path d="M27.482 63.2673C27.4864 63.1805 27.4925 63.12 27.4925 63.12C27.4925 63.12 27.2637 63.1521 27.2357 63.6967L27.2137 64.2856L27.4438 64.2943L27.482 63.2673Z" fill="#236840"/>
<path d="M37.4946 73.5217L36.2433 73.5082L36.2406 73.7383L36.7392 73.7433L36.7261 74.9477L36.9808 74.9504L36.994 73.7464L37.4923 73.7514L37.4946 73.5217Z" fill="#236840"/>
<path d="M31.4816 72.6397C31.3107 72.8886 31.0438 72.9332 30.8043 72.7714C30.5675 72.6062 30.5138 72.339 30.685 72.09C30.8556 71.8407 31.1246 71.7947 31.3637 71.9566C31.6012 72.1218 31.6529 72.3907 31.4816 72.6397ZM31.4996 71.7589C31.1448 71.5157 30.7256 71.5755 30.4725 71.9441C30.2195 72.3126 30.3144 72.7255 30.6688 72.969C31.0235 73.2123 31.4411 73.1538 31.6941 72.7856C31.9472 72.4167 31.8539 72.0028 31.4996 71.7589Z" fill="#236840"/>
<path d="M40.0862 73.0011C40.0862 73.0011 39.9436 73.3653 39.8659 73.7684C39.5821 73.4721 39.2642 73.2437 39.2642 73.2437L39.0051 73.3204C39.0051 73.3204 39.4487 73.6464 39.8088 74.0248L39.9592 74.5342L40.0811 74.4981L40.2038 74.4619L40.0531 73.9525C40.15 73.4393 40.3456 72.9245 40.3456 72.9245L40.0862 73.0011Z" fill="#236840"/>
<path d="M35.21 73.7529C35.2249 73.6654 35.3489 73.6218 35.4604 73.6407C35.5695 73.6593 35.6911 73.7049 35.8603 73.8437L36.0005 73.6393L36.0472 73.5714C35.9928 73.5518 35.9492 73.5741 35.9337 73.5843C35.8208 73.5002 35.6779 73.4387 35.5225 73.4123C35.2053 73.3586 34.9661 73.4809 34.9239 73.7292C34.8374 74.2363 35.6411 74.1991 35.5908 74.4961C35.5735 74.5957 35.437 74.6468 35.3036 74.6245C35.1523 74.5984 34.9678 74.49 34.8445 74.3349L34.6992 74.5363C34.8276 74.6984 35.034 74.818 35.26 74.8565C35.5708 74.9096 35.8276 74.7941 35.8732 74.5272C35.962 74.017 35.1607 74.0417 35.21 73.7529Z" fill="#236840"/>
<path d="M32.7562 73.8442V73.8401C32.7552 73.8219 32.7541 73.803 32.7535 73.7841C32.7369 73.5685 32.6417 73.5229 32.6417 73.5229C32.7038 73.5385 32.7572 73.5418 32.7572 73.5418C32.9288 73.5624 33.1004 73.4773 33.191 73.3023C33.3275 73.0398 33.2048 72.7807 32.8879 72.6158L32.4484 72.3875C32.3511 72.3375 32.2819 72.2949 32.2819 72.2949C32.2819 72.2949 32.2129 72.5152 32.6927 72.7733L32.7474 72.8016C32.7474 72.802 32.7474 72.802 32.7477 72.802L32.7815 72.8196C32.9808 72.9233 33.0403 73.0581 32.9687 73.1959C32.8977 73.3324 32.7484 73.3513 32.5569 73.252L32.1836 73.0577L32.3879 72.6642C32.2599 72.5716 32.2183 72.4685 32.2129 72.4527L32.2116 72.451L31.6265 73.5763L31.8525 73.6939L32.0771 73.2614L32.4663 73.4635C32.4822 73.4719 32.5099 73.4837 32.5251 73.4895C32.4987 73.7878 32.5359 74.0489 32.5359 74.0489L32.791 74.1817C32.791 74.1817 32.7663 74.0307 32.7562 73.8442Z" fill="#236840"/>
<path d="M38.9631 74.4922L38.9634 74.4925C38.9624 74.4911 38.9614 74.4901 38.9607 74.4891C38.9492 74.4746 38.9381 74.4597 38.9266 74.4445C38.7884 74.2776 38.6844 74.2955 38.6844 74.2955C38.7438 74.2729 38.7894 74.2445 38.7894 74.2445C38.9418 74.1624 39.0327 73.9939 39.006 73.7986C38.9661 73.5057 38.7164 73.3645 38.3624 73.4128L37.8719 73.4793C37.7634 73.4945 37.682 73.4999 37.682 73.4999C37.682 73.4999 37.753 73.7195 38.2938 73.654L38.3546 73.6455L38.3931 73.6405C38.6158 73.6101 38.7421 73.6861 38.7627 73.8401C38.7837 73.9922 38.6725 74.0942 38.459 74.1232L38.0415 74.18L37.9817 73.7405C37.8239 73.7388 37.7307 73.6783 37.7168 73.6685L37.7148 73.6682L37.8857 74.9249L38.1384 74.8905L38.0725 74.4077L38.5063 74.3486C38.5246 74.3459 38.554 74.3395 38.5698 74.3354C38.7205 74.5945 38.9009 74.7867 38.9009 74.7867L39.1857 74.7479C39.1857 74.7479 39.0789 74.6388 38.9631 74.4922Z" fill="#236840"/>
<path d="M29.9478 70.8009C29.8441 70.6637 29.8424 70.5448 29.8424 70.5448L29.7968 70.5908L29.5353 70.8563L29.3745 71.0201L28.9519 71.4492L29.1337 71.6279L29.5559 71.1989L30.1478 71.7816L30.309 71.6178L29.7171 71.035L29.9478 70.8009Z" fill="#236840"/>
<path d="M30.066 70.5337C29.9994 70.4671 29.9548 70.4168 29.9548 70.4168C29.9548 70.4168 29.8241 70.6073 30.2075 70.9951L30.6271 71.4083L30.7886 71.2445L30.066 70.5337Z" fill="#236840"/>
<path d="M33.4997 74.1309L33.6216 73.7789L34.4068 74.0512L34.4818 73.8343L33.6973 73.562L33.8047 73.2519C33.7922 73.2454 33.7804 73.2387 33.7693 73.2319C33.7666 73.2299 33.7639 73.2286 33.7608 73.2265C33.7507 73.2201 33.7412 73.2137 33.7318 73.2073L33.7308 73.2063C33.7203 73.1988 33.7115 73.1917 33.7027 73.1846C33.7014 73.1833 33.7 73.1819 33.6983 73.1809C33.6899 73.1738 33.6821 73.1667 33.6754 73.16C33.6206 73.1086 33.5997 73.0657 33.5997 73.0657L33.5784 73.1265L33.5669 73.1596L33.4564 73.4786L33.3811 73.6954L33.2591 74.0471L33.1835 74.2647L33.4243 74.3481L34.3088 74.6545L34.3838 74.4377L33.4997 74.1309Z" fill="#236840"/>
<path d="M33.7838 72.9546C33.7024 72.9256 33.6463 72.9016 33.6463 72.9016C33.6463 72.9016 33.6098 73.1296 34.1227 73.3154L34.6794 73.5087L34.7547 73.2914L33.7838 72.9546Z" fill="#236840"/>
<path d="M46.4426 62.8846L46.5085 64.1666L46.7382 64.1552L46.7119 63.641L47.9142 63.5795L47.9014 63.3248L46.6987 63.3866L46.6724 62.8728L46.4426 62.8846Z" fill="#236840"/>
<path d="M43.9488 70.4768L43.9417 70.4842L43.8998 70.5298C43.8998 70.5298 43.9569 70.5616 44.0089 70.5318L45.0048 71.4463L45.1775 71.2585L44.1211 70.2889L43.9488 70.4768Z" fill="#236840"/>
<path d="M46.471 64.6629L46.4707 64.673L46.4673 64.7348C46.4673 64.7348 46.5315 64.723 46.5524 64.6669L47.9027 64.7372L47.9159 64.4828L46.4842 64.4085L46.471 64.6629Z" fill="#236840"/>
<path d="M44.9831 69.1611C44.9831 69.1611 45.2736 69.7232 45.6898 70.2425C45.0638 70.0158 44.4381 69.9222 44.4381 69.9222L44.2858 70.1354C44.2858 70.1354 45.0118 70.2634 45.778 70.5141L45.8563 70.4046L45.8969 70.3479L45.9756 70.2381C45.4912 69.5942 45.1354 68.9479 45.1354 68.9479L44.9831 69.1611Z" fill="#236840"/>
<path d="M46.2011 61.6162C46.2011 61.6162 46.5518 61.7896 46.9464 61.9014C46.6272 62.1588 46.3728 62.4558 46.3728 62.4558L46.4268 62.721C46.4268 62.721 46.7893 62.3064 47.1971 61.9804L47.7173 61.874L47.692 61.7494L47.6667 61.6244L47.1461 61.7304C46.6434 61.5902 46.1471 61.3514 46.1471 61.3514L46.2011 61.6162Z" fill="#236840"/>
<path d="M46.6725 65.8248C46.5854 65.8076 46.5452 65.6826 46.5671 65.5714C46.5888 65.4627 46.6377 65.3427 46.781 65.1772L46.5806 65.0313L46.5138 64.9833C46.4931 65.0367 46.5138 65.0806 46.5239 65.0968C46.4367 65.2073 46.3712 65.3485 46.3408 65.5032C46.2779 65.8187 46.3942 66.0613 46.6411 66.1103C47.1452 66.2103 47.13 65.4059 47.4259 65.4647C47.5249 65.4843 47.5725 65.6221 47.5462 65.7549C47.5161 65.9056 47.4026 66.0866 47.2441 66.2059L47.4414 66.3566C47.6073 66.2329 47.7327 66.0299 47.7772 65.8049C47.8387 65.4954 47.7303 65.2356 47.4651 65.1833C46.957 65.0802 46.96 65.8819 46.6725 65.8248Z" fill="#236840"/>
<path d="M42.6427 71.6613C42.6427 71.6613 42.6957 71.6992 42.7508 71.6758L43.6342 72.7002L43.8271 72.5336L43.1893 71.7944L42.889 71.4488L42.6427 71.6613Z" fill="#236840"/>
<path d="M43.5045 70.9178L44.1805 71.7016L44.2511 71.7834C44.2511 71.7834 44.1548 71.7063 43.9575 71.6783C43.6153 71.634 43.2731 71.552 43.071 71.4986C43.1386 71.633 43.2761 71.8134 43.5403 71.8753C43.7751 71.9229 44.1028 71.9776 44.4481 71.9979L44.6345 71.8374L43.6974 70.7513L43.5045 70.9178Z" fill="#236840"/>
<path d="M42.6539 72.975C42.859 72.7423 42.7411 72.4598 42.6823 72.3511L42.3803 71.8436L42.1614 71.974L42.5948 72.7027C42.6492 72.7943 42.6671 72.8892 42.6533 72.9757L42.6539 72.975Z" fill="#236840"/>
<path d="M42.862 72.717L42.8617 72.7167C42.8563 73.0468 42.4556 73.2407 42.4556 73.2407C42.2725 73.338 42.0576 73.2819 41.9435 73.09L41.51 72.361L41.2921 72.491L41.7256 73.2197C41.9208 73.5485 42.2532 73.6265 42.5897 73.4265C42.8296 73.2839 42.9401 73.0758 42.9117 72.8481C42.8975 72.767 42.862 72.717 42.862 72.717Z" fill="#236840"/>
<path d="M47.2852 66.8129C47.2835 66.8133 47.2829 66.8133 47.2812 66.8136C47.2636 66.8177 47.245 66.8214 47.2264 66.8251C47.0156 66.8754 46.9859 66.9768 46.9859 66.9768C46.9916 66.9133 46.9866 66.8595 46.9866 66.8595C46.9798 66.6869 46.8687 66.5312 46.6815 66.469C46.4008 66.3758 46.1643 66.5379 46.0515 66.8768L45.8954 67.3467C45.8609 67.4504 45.8298 67.5261 45.8298 67.5261C45.8298 67.5261 46.0585 67.5592 46.2376 67.0447L46.2572 66.9862L46.2694 66.9494C46.3403 66.7362 46.4639 66.6565 46.6116 66.7055C46.7575 66.7538 46.7998 66.8987 46.7318 67.1031L46.5991 67.5028L46.1781 67.3629C46.1069 67.5038 46.0116 67.5609 45.9971 67.5693L45.9957 67.5707L47.1991 67.9707L47.2791 67.7288L46.817 67.5751L46.9548 67.1595C46.9609 67.1423 46.968 67.1129 46.971 67.0967C47.27 67.0758 47.5224 66.9984 47.5224 66.9984L47.6129 66.7258C47.6129 66.7258 47.4676 66.7734 47.2852 66.8129Z" fill="#236840"/>
<path d="M46.4079 69.0906L46.0755 68.9234L46.4484 68.1815L46.243 68.0782L45.8701 68.8204L45.5768 68.6728C45.5687 68.6842 45.5603 68.695 45.5522 68.7052L45.5461 68.7126C45.5383 68.7221 45.5306 68.7309 45.5228 68.739C45.5224 68.7396 45.5218 68.7403 45.5218 68.7403C45.5133 68.7494 45.5049 68.7575 45.4968 68.7653C45.4951 68.7667 45.4937 68.7677 45.4924 68.769C45.4846 68.7761 45.4765 68.7829 45.4691 68.7893C45.4106 68.8363 45.3654 68.8515 45.3654 68.8515L45.4228 68.8805L45.4542 68.8964L45.7556 69.0481L45.961 69.1511L46.2934 69.3183L46.4991 69.4214L46.6133 69.194L47.0336 68.3579L46.8282 68.2545L46.4079 69.0906Z" fill="#236840"/>
<path d="M45.2793 68.6545C45.2398 68.7315 45.2087 68.7839 45.2087 68.7839C45.2087 68.7839 45.43 68.8497 45.6814 68.366L45.9466 67.8393L45.7408 67.7362L45.2793 68.6545Z" fill="#236840"/>
<path d="M35.3073 69.3342L34.8735 69.5201L34.9803 69.7268L35.1674 69.6744L35.1661 70.4656H35.483V69.3342H35.3073Z" fill="#236840"/>
<path d="M29.3983 56.3792C29.376 56.4228 29.356 56.3735 29.354 56.3042C29.3523 56.2336 29.3486 56.1728 29.305 56.113C29.2624 56.0545 29.23 56.0424 29.1655 55.9437C29.0996 55.8447 28.8618 55.9471 28.8185 56.0809C28.7739 56.2157 28.9793 56.3535 29.1074 56.4292C29.2358 56.5052 29.3141 56.6738 29.4195 56.8295C29.5256 56.9849 29.4668 57.0332 29.4114 57.1322C29.3567 57.2315 29.3249 57.187 29.2327 57.1065C29.1408 57.0255 29.1648 57.0785 29.0929 57.0163C28.8226 56.7812 28.7736 56.6484 28.7736 56.6484C28.7736 56.6484 28.7364 56.5356 28.6506 56.5552C28.5648 56.5755 28.5202 56.4934 28.3432 56.5697C28.1665 56.6464 28.0398 56.8981 28.1594 57.0917C28.279 57.2856 28.4108 57.2552 28.4736 57.2147C28.5344 57.1734 28.779 57.2785 28.8364 57.3272C28.8932 57.3768 28.7692 57.4157 28.7381 57.6082C28.7057 57.8008 28.8364 57.8207 28.9155 57.8717C29.0003 57.9268 29.0307 57.8494 29.0753 57.8417C29.1202 57.8329 29.1594 57.8467 29.1908 57.8116C29.2222 57.7755 29.2483 57.7096 29.279 57.6984C29.3091 57.6883 29.4249 57.8011 29.3986 57.8562C29.3712 57.9109 29.2608 58.0261 29.3334 58.1771C29.4405 58.3994 29.6381 58.3498 29.7222 58.2555C29.8053 58.1596 29.7486 58.0092 29.7908 58.0204C30.0104 58.0812 30.1212 57.9788 30.1398 57.838C30.1587 57.6961 29.9912 57.5866 29.9118 57.563C29.8317 57.5407 29.7999 57.5049 29.7479 57.468C29.6952 57.4326 29.6165 57.3011 29.6057 57.187C29.5955 57.0718 29.6449 57.0522 29.6722 57.0761C29.6983 57.0988 29.7743 57.1859 29.8989 57.217C30.0249 57.2484 30.078 57.2055 30.1107 57.1917C30.1432 57.1788 30.1391 57.2738 30.1391 57.2738C30.1391 57.2738 30.227 57.1782 30.2719 57.1278C30.3161 57.0761 30.3766 56.9724 30.3955 56.9214C30.4148 56.8691 30.3851 56.8018 30.3124 56.7636C30.2391 56.7261 30.1766 56.7505 30.132 56.7954C30.0871 56.8403 29.954 57.0302 29.8841 56.9883C29.8459 56.9653 29.7547 56.8018 29.7172 56.7109C29.681 56.6211 29.7104 56.5626 29.7567 56.4569C29.8023 56.3488 29.8925 56.2697 29.7489 56.1762C29.6053 56.0826 29.4206 56.3356 29.3983 56.3792Z" fill="#236840"/>
<path d="M32.2421 55.9814C32.2329 55.9882 32.2245 55.9943 32.216 56C32.1333 56.0595 32.1367 56.0939 32.1826 56.1443C32.2336 56.198 32.2343 56.221 32.2992 56.2392C32.2992 56.2392 32.3542 56.2328 32.3931 56.2095C32.4015 56.2037 32.4106 56.1983 32.4181 56.1916C32.4471 56.1673 32.4671 56.1314 32.4377 56.0608C32.4019 55.9706 32.3519 55.9112 32.2421 55.9814Z" fill="#236840"/>
<path d="M32.1558 55.1883C32.1639 55.1677 32.172 55.1481 32.1737 55.135C32.1815 55.0897 32.2548 55.1333 32.2439 55.1637C32.2389 55.1775 32.2179 55.2025 32.195 55.2252C32.1693 55.2525 32.1406 55.2785 32.1338 55.2826C32.1037 55.3015 32.1335 55.2404 32.1558 55.1883ZM32.1021 54.187C31.969 54.2414 31.8348 54.4228 31.7176 54.6383C31.7017 54.6664 31.6858 54.6975 31.6706 54.7292C31.596 54.8856 31.523 55.0711 31.4355 55.2306C31.4082 55.2809 31.3788 55.3292 31.349 55.3721C31.2011 55.5799 31.1896 55.4907 31.1571 55.5589C31.1274 55.6187 31.123 55.742 31.1693 55.7924L31.1771 55.7998C31.1811 55.8022 31.1862 55.8059 31.1906 55.8083C31.2031 55.8137 31.3136 55.8599 31.3646 55.8501C31.4159 55.842 31.3926 55.8251 31.4561 55.7998C31.519 55.7745 31.5206 55.7556 31.5828 55.6789C31.6274 55.6248 31.7007 55.2194 31.7129 55.1552C31.7264 55.0907 31.9017 54.7799 31.9159 54.7921C31.9338 54.8076 31.9129 54.838 31.9217 54.9018C31.924 54.9191 31.9237 54.9414 31.921 54.9657C31.9149 55.035 31.8977 55.1268 31.9061 55.1998C31.9173 55.2968 31.9021 55.3502 31.9943 55.5029C32.0875 55.6559 32.1909 55.4883 32.2021 55.4853C32.2135 55.4829 32.225 55.4937 32.2646 55.5393C32.3061 55.5839 32.3916 55.7194 32.4244 55.7653C32.4737 55.8349 32.5166 55.8876 32.4892 55.9211C32.4771 55.937 32.4504 55.962 32.4514 55.9883C32.4524 56.0218 32.4852 56.0555 32.5173 56.0697C32.5767 56.0947 32.5831 56.1481 32.6507 56.1596C32.7193 56.1701 32.8125 56.0515 32.7879 56.0103C32.7618 55.9694 32.6811 55.8214 32.6527 55.7741C32.6237 55.7262 32.6108 55.6356 32.6118 55.6201C32.6118 55.6187 32.6176 55.614 32.6331 55.6403C32.6416 55.6542 32.6521 55.6721 32.6673 55.6917C32.6852 55.7157 32.7135 55.7383 32.751 55.7518C32.8024 55.7708 32.8683 55.7724 32.9473 55.7349C33.0818 55.6701 33.0689 55.4775 32.895 55.4697C32.72 55.463 32.6429 55.5444 32.6091 55.5961C32.6058 55.6008 32.5902 55.6113 32.5875 55.6143C32.5693 55.6376 32.4716 55.3478 32.4673 55.2981C32.4639 55.2488 32.5216 55.2306 32.5081 55.1647C32.4946 55.0991 32.446 55.0758 32.4416 55.0393C32.4362 54.9964 32.4825 54.9279 32.424 54.8316C32.3666 54.7366 32.275 54.7664 32.1764 54.8475C32.1247 54.8907 32.0227 55.1897 32.0071 55.1637C31.9879 55.1322 31.9801 55.0802 31.9798 55.0218C31.9791 54.9198 31.9983 54.8008 32.0122 54.7505C32.0345 54.6728 32.174 54.4782 32.2808 54.3657C32.3869 54.2535 32.2338 54.1319 32.1021 54.187Z" fill="#236840"/>
<path d="M31.6223 54.1943C31.6223 54.1943 31.6631 54.1396 31.7033 54.0842C31.7435 54.0291 31.7435 53.9859 31.7101 53.9142C31.675 53.8436 31.5469 53.8048 31.4138 53.8724C31.2807 53.9399 31.2952 54.023 31.3679 54.1267C31.4402 54.2318 31.5635 54.2132 31.6223 54.1943Z" fill="#236840"/>
<path d="M36.4489 54.2288C36.3864 54.2352 36.2486 54.2271 36.1347 54.2048C36.0222 54.1829 35.881 54.1045 35.882 54.0788C35.8834 54.0528 35.8314 53.7994 35.828 53.7663C35.8249 53.7339 36.007 53.6369 36.0327 53.6268C36.057 53.6167 36.0483 53.5667 36.0317 53.5123C36.0155 53.4589 35.8739 53.4471 35.8466 53.4346C35.8195 53.4234 35.8398 53.3613 35.8344 53.318C35.8037 53.0721 35.9053 53.0332 35.8854 52.9427C35.8651 52.8521 35.7496 52.8822 35.7003 52.9096C35.6513 52.9369 35.6334 52.9423 35.6388 52.9896C35.6429 53.0369 35.6418 53.0636 35.6469 53.1109C35.6513 53.1586 35.6716 53.4677 35.6776 53.5183C35.6827 53.5704 35.6793 53.5406 35.6253 53.6278C35.5709 53.715 35.2868 53.966 35.2408 53.9964C35.1959 54.0264 35.1895 53.8197 35.2077 53.7437C35.226 53.668 35.329 53.5545 35.4121 53.5305C35.4945 53.5075 35.5189 53.4531 35.5033 53.4109C35.4922 53.3792 35.3206 53.3359 35.2841 53.3069C35.2476 53.2775 35.2476 53.2775 35.2358 53.2298C35.2233 53.1832 35.2091 52.915 35.2057 52.8815C35.202 52.8494 35.1148 52.7947 35.0469 52.7832C34.979 52.7721 34.8459 52.8812 34.8446 52.9336C34.8422 52.9852 34.8138 53.0403 34.8513 53.1143C34.8885 53.1886 34.929 53.3315 34.9412 53.4531C34.954 53.5734 34.8864 53.6437 34.805 53.7109C34.7226 53.7785 34.7544 53.7643 34.6611 53.8291C34.5679 53.8944 34.3385 53.9376 34.3709 53.9923C34.478 54.1697 34.6037 54.1423 34.6371 54.1393C34.6702 54.1352 34.7209 54.1227 34.7628 54.0967C34.8047 54.07 34.8584 54.0197 34.8804 54.0217C34.9027 54.0231 34.8773 54.0954 34.8692 54.167C34.8618 54.2379 34.7121 54.5119 34.5726 54.671C34.4902 54.7646 34.5422 54.8106 34.655 54.8258C34.7672 54.8403 34.9263 54.5832 34.9277 54.5535C34.9283 54.5244 34.9564 54.5099 34.9641 54.5204C34.9733 54.5308 34.9935 54.769 35.0033 54.8237C35.0118 54.8778 35.0077 54.8673 35.0344 54.9129C35.0611 54.9585 35.1016 54.9943 35.1986 54.9997C35.2952 55.0048 35.2787 54.9112 35.256 54.8393C35.2341 54.767 35.1902 54.4048 35.1891 54.3643C35.1891 54.3234 35.1952 54.271 35.2195 54.2612C35.2442 54.2514 35.3128 54.2626 35.3418 54.2602C35.3716 54.2568 35.3918 54.14 35.3885 54.1001C35.3807 54.0085 35.6503 53.8356 35.653 53.8616C35.6554 53.8876 35.6554 53.9318 35.6537 53.9835C35.6503 54.1028 35.5206 54.345 35.504 54.4025C35.4874 54.4599 35.3168 54.5619 35.2925 54.6126C35.2679 54.6633 35.2868 54.7018 35.3128 54.7399C35.3385 54.7781 35.3989 54.7531 35.4216 54.718C35.4442 54.6822 35.4753 54.6271 35.4996 54.5764C35.5243 54.5261 35.5456 54.4835 35.577 54.4288C35.6087 54.3731 35.6925 54.1322 35.7243 54.3872C35.7351 54.4714 35.7422 54.6666 35.7564 54.8058C35.7702 54.945 35.8459 54.9937 35.8928 55.0291C35.9415 55.0656 36.0114 54.9872 36.0047 54.9139C35.9966 54.8406 35.9162 54.5163 35.906 54.4582C35.8949 54.3954 35.8726 54.3514 35.9192 54.3389C35.9658 54.3271 36.0168 54.417 36.1131 54.4214C36.2101 54.4268 36.4162 54.37 36.4476 54.3217C36.48 54.2717 36.5462 54.2785 36.5685 54.2349C36.5898 54.1916 36.5111 54.2224 36.4489 54.2288Z" fill="#236840"/>
<path d="M38.9282 54.1335C38.9028 54.1744 38.7704 54.3804 38.7583 54.4021C38.7454 54.424 38.7272 54.4304 38.7218 54.4058C38.7143 54.3747 38.642 54.3264 38.6316 54.3081C38.6211 54.2882 38.7211 54.075 38.7431 54.0521C38.7464 54.049 38.7501 54.047 38.7549 54.0453C38.7931 54.0301 38.889 54.0335 38.9181 54.0463C38.9515 54.0612 38.9535 54.0916 38.9282 54.1335ZM38.6515 54.6737C38.6427 54.6774 38.6224 54.6764 38.6042 54.675C38.5863 54.6727 38.5708 54.671 38.5708 54.671C38.565 54.6314 38.5701 54.6017 38.5745 54.5713C38.5789 54.5412 38.5978 54.5108 38.6309 54.4993C38.6363 54.4977 38.6424 54.496 38.6474 54.4943C38.6741 54.4892 38.6985 54.4939 38.6944 54.523C38.689 54.5578 38.6694 54.6672 38.6515 54.6737ZM38.4539 54.2169C38.4508 54.2162 38.4481 54.2162 38.4451 54.2159C38.4322 54.2125 38.4201 54.2027 38.4285 54.1629C38.4363 54.1277 38.4762 54.1392 38.4822 54.1399C38.5025 54.1436 38.4721 54.2173 38.4539 54.2169ZM39.4951 52.8636C39.3802 52.8386 39.2843 52.9338 39.2745 52.9936C39.265 53.0551 39.2316 53.1044 39.2096 53.1676C39.188 53.2304 39.1491 53.2936 39.1491 53.2936C39.1491 53.2936 39.2025 53.2467 39.237 53.2071C39.2714 53.1676 39.293 53.1494 39.311 53.1761C39.3282 53.2027 39.1724 53.6071 39.1346 53.6622C39.0981 53.7186 38.9968 53.9081 38.9667 53.9321C38.9366 53.9561 38.8816 53.9733 38.8221 53.9619C38.8035 53.9585 38.789 53.9541 38.7789 53.9477C38.7535 53.9328 38.7491 53.9092 38.7552 53.8659C38.7657 53.8031 38.8106 53.5622 38.839 53.5173C38.8647 53.4757 38.8674 53.4561 38.9018 53.4342C38.9052 53.4318 38.9099 53.4291 38.9147 53.4261C38.962 53.4007 39.0474 53.3568 39.0721 53.3315C39.0971 53.3071 39.1086 53.2798 39.1214 53.2467C39.1333 53.2125 39.1356 53.1507 39.0863 53.0764C39.0498 53.0237 38.9775 52.9842 38.9569 52.9683C38.9072 52.9311 38.8096 52.9311 38.7458 52.9625C38.7164 52.9761 38.6937 52.997 38.687 53.0247C38.6745 53.0693 38.6883 53.1088 38.7039 53.1379C38.7184 53.1629 38.7336 53.1811 38.7373 53.1899C38.7437 53.2068 38.7397 53.2321 38.7272 53.2801C38.7154 53.3288 38.5833 53.8412 38.5792 53.8693C38.5741 53.8973 38.5647 53.9294 38.5414 53.9561C38.5322 53.9666 38.5184 53.975 38.5015 53.9804C38.4748 53.9906 38.4431 53.9967 38.4191 54.0027C38.3755 54.0146 38.161 53.9896 38.1559 54.0196C38.1515 54.0497 38.1174 54.1244 38.1674 54.2436C38.2177 54.3629 38.2968 54.375 38.3353 54.3727C38.365 54.372 38.3877 54.3656 38.4029 54.3919C38.4079 54.3997 38.4123 54.4115 38.4147 54.4277C38.4272 54.495 38.3934 54.6514 38.4083 54.6953C38.4272 54.751 38.2029 54.6821 38.1228 54.6814C38.0424 54.6808 38.0417 54.8787 38.0731 54.927C38.1228 55.0034 38.1931 55.0152 38.2552 55.0078C38.3056 55.0014 38.3498 54.9828 38.3735 54.9737C38.4059 54.9608 38.4718 54.9429 38.5393 54.9416C38.5836 54.9395 39.0224 54.9804 39.0616 54.9936C39.0991 55.0068 39.1843 54.9848 39.2228 54.9169C39.2623 54.8497 39.2167 54.7284 39.14 54.7186C39.063 54.7091 38.7464 54.696 38.7501 54.6723C38.7535 54.6487 38.8647 54.4517 38.9035 54.3987C38.9427 54.3446 39.065 54.3595 39.1123 54.3622C39.1596 54.3649 39.1687 54.3656 39.215 54.3446C39.261 54.3233 39.3133 54.2933 39.3474 54.2723C39.3714 54.2575 39.4414 54.198 39.4613 54.123L39.4633 54.1135C39.4694 54.0848 39.4687 54.0554 39.4545 54.025C39.4045 53.9078 39.1643 53.9007 39.1221 53.9142C39.0802 53.9264 39.1099 53.8994 39.1356 53.8588C39.161 53.8169 39.4609 53.2659 39.4981 53.2288C39.5346 53.1916 39.5714 53.1548 39.6373 53.1288C39.7028 53.1034 39.6954 53.0615 39.7001 53.0169C39.7039 52.973 39.6099 52.8889 39.4951 52.8636Z" fill="#236840"/>
<path d="M42.3546 56.4658C42.3391 56.4438 42.2925 56.4421 42.2445 56.3999C42.1945 56.3573 42.031 56.1323 41.9959 56.0269C41.9607 55.9205 41.8482 55.5364 41.8449 55.5094C41.8411 55.4813 41.8492 55.4624 41.8665 55.4141C41.8827 55.3668 41.9057 55.3307 41.9607 55.2675C42.0158 55.2043 42.1046 55.1661 42.1878 55.1986C42.2719 55.2317 42.3921 55.2965 42.4178 55.3155C42.4452 55.3337 42.4405 55.3303 42.4682 55.328C42.4959 55.3242 42.4972 55.3188 42.5276 55.3104C42.5594 55.3016 42.5688 55.2888 42.5614 55.2688C42.5553 55.2509 42.5452 55.2293 42.5195 55.1584C42.4935 55.0878 42.4394 55.0516 42.4141 55.0479C42.3881 55.0442 42.3415 55.0016 42.3046 54.9601C42.2692 54.9202 42.353 54.8121 42.3881 54.7634C42.4225 54.7145 42.5296 54.6712 42.5773 54.6658C42.6256 54.6601 42.7404 54.6243 42.7915 54.5716C42.8431 54.5178 42.8452 54.3982 42.8374 54.3418C42.829 54.2857 42.7962 54.2513 42.7536 54.2243C42.7117 54.1976 42.5259 54.1138 42.4796 54.1256C42.4347 54.1395 42.4158 54.2016 42.4155 54.2584C42.4161 54.3141 42.4888 54.379 42.4631 54.4151C42.4388 54.4513 42.3864 54.5091 42.3584 54.5408C42.3313 54.5726 42.2256 54.707 42.1597 54.7726C42.0925 54.8395 41.9361 54.9692 41.8898 54.9547C41.8449 54.9391 41.8128 54.9283 41.7185 54.8543C41.6242 54.7807 41.5465 54.8236 41.5185 54.8638C41.4908 54.9026 41.454 54.952 41.4624 54.984C41.4722 55.0155 41.4986 55.0168 41.5188 55.0347C41.5793 55.0712 41.6391 55.1611 41.6469 55.1871C41.6547 55.2114 41.5932 55.255 41.5817 55.2628C41.5699 55.2719 41.3307 55.4503 41.3026 55.4668C41.2739 55.4827 40.9476 55.6364 40.8574 55.6361C40.7685 55.6354 40.7773 55.6111 40.7499 55.558C40.7222 55.5053 40.6648 55.4921 40.6364 55.5033C40.6087 55.5155 40.602 55.5408 40.5851 55.5692C40.5689 55.5969 40.5486 55.6232 40.557 55.6516C40.6124 55.8327 40.8851 55.8428 40.9496 55.8428C41.2871 55.8435 41.6219 55.4371 41.6969 55.4861C41.7563 55.5249 41.7503 55.6003 41.757 55.6337C41.7651 55.6665 41.7749 56.0668 41.7938 56.1675C41.8131 56.2678 41.8344 56.3668 41.8807 56.3982C41.9253 56.4296 42.0891 56.4621 42.1171 56.4773C42.1459 56.4915 42.1506 56.5053 42.1796 56.5148C42.2101 56.5242 42.2911 56.5083 42.335 56.506C42.38 56.5023 42.3702 56.4877 42.3546 56.4658Z" fill="#236840"/>
<path d="M43.8375 57.816C43.797 57.8406 43.7149 57.82 43.6987 57.8119C43.6922 57.8082 43.6875 57.8021 43.6858 57.7964C43.6787 57.7538 43.7639 57.7683 43.7872 57.7575C43.8287 57.7295 43.8926 57.7464 43.9034 57.7572C43.9085 57.7629 43.9115 57.7687 43.9112 57.7758C43.9098 57.7974 43.8635 57.8001 43.8375 57.816ZM44.353 57.845C44.3128 57.8004 44.2041 57.6964 44.1895 57.6815C44.1595 57.6508 44.176 57.6004 44.2007 57.5687C44.2483 57.5085 44.3899 57.4923 44.4426 57.4815C44.5101 57.468 44.522 57.4305 44.523 57.4291C44.5345 57.4011 44.4696 57.3274 44.4291 57.3075C44.3885 57.2876 44.3892 57.2899 44.3318 57.2541C44.2747 57.2193 44.2868 57.2095 44.2652 57.2038C44.2436 57.2004 44.1811 57.2288 44.1716 57.2595C44.1632 57.2903 44.1777 57.3068 44.197 57.3288C44.2166 57.3497 44.2905 57.3551 44.3078 57.3639C44.3237 57.3734 44.3419 57.4109 44.2963 57.4149C44.2503 57.4204 44.1652 57.443 44.1203 57.4869C44.101 57.5055 44.0872 57.5295 44.0764 57.5531C44.0571 57.5923 44.0483 57.6231 44.0483 57.6231C44.0483 57.6231 43.9929 57.5913 43.9497 57.5886C43.9172 57.5862 43.6321 57.5606 43.6034 57.5771C43.5737 57.5943 43.5115 57.6893 43.5075 57.7048C43.5024 57.7224 43.4987 57.747 43.4946 57.7835C43.4916 57.8139 43.5091 57.918 43.5145 57.943C43.5227 57.991 43.5777 58.0119 43.7037 57.9687C43.7301 57.9619 43.8338 57.9518 43.8618 57.942C43.9345 57.9173 44.0301 57.8484 44.0301 57.8484C44.0301 57.8484 44.1402 57.869 44.2905 58.0193C44.3318 58.0602 44.3625 57.9778 44.3868 57.9497C44.4125 57.9224 44.3956 57.8896 44.353 57.845Z" fill="#236840"/>
<path d="M44.7043 56.9923C44.704 56.9876 44.7043 56.9845 44.7063 56.9801C44.7154 56.9585 44.8499 56.892 44.904 56.8477C44.9594 56.8035 45.0783 56.7693 45.0975 56.7849C45.1165 56.7991 45.03 56.8801 45.0215 56.8964C45.0097 56.9163 44.9908 57.0146 44.9594 57.0203C44.9273 57.0274 44.7026 57.0551 44.7043 56.9923ZM44.7394 56.6872C44.7111 56.7122 44.6388 56.747 44.6388 56.747C44.6418 56.7295 44.6421 56.719 44.6479 56.7095C44.6536 56.7011 44.6627 56.693 44.68 56.6808C44.7198 56.6518 44.7452 56.6484 44.7611 56.644C44.7746 56.6403 44.7678 56.6606 44.7431 56.6842C44.7425 56.6856 44.7404 56.6859 44.7394 56.6872ZM45.2306 57.5382C45.2506 57.5112 45.2232 57.4639 45.1827 57.4153C45.1614 57.3896 45.0523 57.2791 44.9634 57.222C44.8725 57.1643 44.7891 57.1068 44.7563 57.0953C44.7239 57.0835 44.7661 57.0801 44.8019 57.0866C44.8388 57.0926 44.9854 57.122 45.0036 57.143C45.0225 57.1639 45.11 57.1896 45.1597 57.1751C45.2077 57.1602 45.2249 57.0406 45.2246 56.9974C45.2232 56.9538 45.2381 56.947 45.2864 56.9143C45.3543 56.868 45.4026 56.8639 45.4539 56.8646C45.5056 56.8666 45.7695 56.9102 45.8026 56.9058C45.8367 56.9011 45.8418 56.8612 45.8286 56.842C45.8144 56.8231 45.7867 56.7703 45.7718 56.7528C45.7566 56.7339 45.8093 56.6558 45.8249 56.6281C45.8516 56.5801 45.807 56.5467 45.7712 56.5129C45.7354 56.4795 45.7208 56.5048 45.6708 56.516C45.6232 56.5278 45.4992 56.6038 45.4553 56.6214C45.4107 56.6389 45.1925 56.6899 45.1266 56.6977C45.0624 56.7045 44.9502 56.7264 44.9597 56.716C44.9692 56.7045 45.006 56.697 45.0404 56.6731C45.0749 56.6487 45.2604 56.5653 45.3448 56.5406C45.3658 56.5349 45.3837 56.5234 45.3965 56.5095C45.435 56.47 45.4364 56.4072 45.4019 56.3683C45.358 56.3177 45.3009 56.2991 45.2614 56.2967C45.2219 56.2937 45.1529 56.3041 45.1398 56.3342C45.1262 56.3649 45.1485 56.3984 45.156 56.417C45.1621 56.4359 45.1519 56.4305 45.1168 56.4606C45.0803 56.4916 45.0749 56.491 45.0408 56.5136C45.0083 56.5359 45.0705 56.441 45.0938 56.393C45.1175 56.3443 45.1009 56.3376 45.0904 56.2812C45.079 56.2264 45.06 56.1805 44.9898 56.1352C44.9583 56.1153 44.9333 56.1052 44.9094 56.1102L44.9063 56.1112C44.88 56.1193 44.8553 56.1474 44.8246 56.2021C44.7665 56.3099 44.6732 56.4095 44.5877 56.472C44.5016 56.5335 44.3952 56.5896 44.3337 56.6572C44.2834 56.7102 44.285 56.7508 44.304 56.8014C44.3097 56.8136 44.3154 56.8264 44.3225 56.8406C44.3455 56.8879 44.4229 56.8798 44.4459 56.8781C44.4698 56.8764 44.4861 56.8528 44.5036 56.8376C44.5212 56.822 44.5431 56.8366 44.5394 56.8602C44.5337 56.8822 44.5171 56.9423 44.5043 56.9511C44.48 56.9683 44.4367 56.9953 44.3969 56.9778C44.356 56.9602 44.1915 56.8781 44.1344 56.8467C44.1117 56.8345 44.0918 56.8231 44.079 56.8136C44.0317 56.7808 44.0465 56.7555 44.0215 56.7268C43.9972 56.6991 43.9313 56.644 43.8844 56.642C43.8388 56.6383 43.7445 56.6433 43.7063 56.7325C43.6398 56.8872 43.8229 56.9244 43.8229 56.9244C43.9364 56.9386 44.5361 57.1122 44.5648 57.1136C44.5975 57.1163 44.6371 57.116 44.6769 57.1207C44.7705 57.1288 45.009 57.3241 45.0161 57.3315C45.0749 57.396 45.0695 57.4173 44.9401 57.4295C44.8513 57.4369 44.7306 57.4126 44.6641 57.396C44.6327 57.3886 44.6127 57.3825 44.6127 57.3825C44.6225 57.3893 44.6323 57.3953 44.6418 57.4021C44.7097 57.4433 44.7867 57.4724 44.8668 57.4997C44.8931 57.5089 44.9208 57.5186 44.9485 57.5281C45.0681 57.569 45.2019 57.5798 45.2306 57.5382Z" fill="#236840"/>
<path d="M62.8926 59.0094C62.6095 59.079 62.7537 58.7983 63.0554 58.5202C63.3632 58.2402 63.6199 57.9861 63.7172 57.5601C63.8128 57.1429 63.7422 56.9527 63.9311 56.2811C64.1175 55.6034 62.7378 54.9395 61.9733 55.2662C61.1993 55.5899 61.3797 57.0405 61.5395 57.9061C61.6997 58.7716 61.2514 59.777 60.9676 60.8526C60.6838 61.9273 60.2409 61.853 59.5828 61.9901C58.9281 62.1327 59.0041 61.8165 59.0041 61.0938C59.0102 60.3685 58.8649 60.6807 58.8649 60.1185C58.8649 58.0006 59.2676 57.2672 59.2676 57.2672C59.2676 57.2672 59.6257 56.6635 59.2055 56.3574C58.7842 56.0524 58.9757 55.5348 57.948 55.0423C56.92 54.5504 55.3079 54.9629 54.9062 56.248C54.5049 57.5328 55.1525 58.004 55.5765 58.124C55.9974 58.2375 56.4781 59.7364 56.4825 60.1803C56.4812 60.628 55.8258 60.2246 54.8464 60.8327C53.8633 61.4357 54.2812 62.0969 54.3592 62.6482C54.443 63.2394 54.9065 63.0749 55.1146 63.2428C55.3275 63.4087 55.418 63.6374 55.696 63.6411C55.9805 63.6425 56.3751 63.5012 56.545 63.5972C56.7062 63.6901 56.6508 64.6468 56.3041 64.7421C55.9545 64.832 55.0099 64.7857 54.619 65.6961C54.043 67.0373 55.0305 67.7268 55.7775 67.735C56.5288 67.7346 56.9788 66.8981 57.092 67.1296C57.673 68.3437 58.5599 68.4414 59.2605 67.9789C59.9676 67.512 59.8048 66.34 59.6017 65.8931C59.3919 65.4495 59.4301 65.1705 59.3913 64.7948C59.3453 64.4218 59.6267 63.5604 60.0946 63.0691C60.5673 62.5763 60.8477 62.7208 60.8456 62.934C60.846 63.1391 60.7524 63.8181 61.0973 64.4958C61.4456 65.1786 61.8429 65.2485 62.0321 65.3407C62.2162 65.436 61.7753 65.786 61.7753 65.786C61.7753 65.786 62.5443 65.8069 62.9429 65.8123C63.3449 65.8083 64.0415 65.6772 64.3439 65.5634C64.6513 65.4458 64.8361 65.0526 64.7246 64.5793C64.6074 64.1083 64.2557 63.9232 63.8821 63.8979C63.5077 63.8732 62.1432 64.0151 62.0608 63.5421C62.0152 63.2816 62.3892 62.2381 62.6503 61.7198C62.9094 61.2094 63.2841 61.1138 63.9365 60.9097C64.5959 60.6942 65.2979 60.7901 65.1577 59.7861C65.0185 58.7824 63.1746 58.9402 62.8926 59.0094Z" fill="#236840"/>
<path d="M72.0506 66.3472C71.9857 66.3516 71.9273 66.354 71.8685 66.3567C71.2864 66.3874 71.1986 66.5641 71.2634 66.9466C71.3422 67.3618 71.2746 67.4739 71.5307 67.7621C71.5307 67.7621 71.8148 67.9006 72.0732 67.909C72.132 67.9057 72.1925 67.909 72.2496 67.9003C72.4634 67.8712 72.6685 67.7614 72.7462 67.3313C72.8499 66.7871 72.7952 66.3472 72.0506 66.3472Z" fill="#236840"/>
<path d="M74.0772 62.2705C74.181 62.1985 74.2786 62.1279 74.3276 62.0688C74.5056 61.8759 74.7235 62.3127 74.5769 62.4242C74.5097 62.4752 74.3323 62.5303 74.1519 62.5698C73.9441 62.6211 73.7273 62.6569 73.6816 62.6569C73.4783 62.6546 73.8093 62.4519 74.0772 62.2705ZM76.9032 57.2949C76.0985 57.1476 74.8945 57.606 73.6685 58.2797C73.5046 58.3661 73.3327 58.4671 73.1634 58.5719C72.3205 59.0928 71.3989 59.76 70.4871 60.2566C70.2023 60.4137 69.9135 60.5543 69.6361 60.6695C68.2851 61.211 68.5057 60.7468 68.1402 60.9756C67.8125 61.1722 67.4118 61.7509 67.4787 62.1336L67.4929 62.1934C67.5054 62.2191 67.5186 62.2505 67.5311 62.2765C67.576 62.3407 67.9638 62.9039 68.2392 63.0147C68.5108 63.1319 68.4503 62.9796 68.8327 63.0525C69.2141 63.1255 69.28 63.0397 69.8138 62.8617C70.1942 62.7394 71.7969 61.0195 72.053 60.7479C72.3168 60.4806 74.1151 59.5263 74.1465 59.6296C74.1837 59.7587 73.9908 59.8415 73.8357 60.1739C73.7955 60.2644 73.7225 60.3698 73.6347 60.4783C73.3935 60.7924 73.0283 61.1826 72.8435 61.5583C72.5972 62.0583 72.36 62.2671 72.334 63.285C72.3097 64.3076 73.3222 63.8208 73.3847 63.84C73.4489 63.8647 73.4698 63.9515 73.5195 64.2917C73.581 64.6353 73.5762 65.5491 73.5918 65.8694C73.6134 66.3559 73.6573 66.7427 73.4219 66.8187C73.3158 66.8565 73.1114 66.8951 73.0333 67.0238C72.9354 67.1873 72.9887 67.4521 73.0999 67.6197C73.308 67.9224 73.1732 68.1981 73.4644 68.4609C73.7607 68.7234 74.5745 68.4413 74.5823 68.167C74.5826 67.89 74.6516 66.9305 74.6607 66.6167C74.6681 66.2964 74.8853 65.8204 74.9377 65.7501C74.9418 65.7437 74.986 65.7387 74.9779 65.9137C74.9779 66.0059 74.9725 66.1228 74.9843 66.2653C74.9972 66.4349 75.0634 66.6319 75.2005 66.8126C75.3894 67.0609 75.7009 67.2721 76.1961 67.3346C77.0424 67.4373 77.5731 66.4738 76.761 65.9005C75.9421 65.3282 75.3225 65.4819 74.9992 65.6255C74.9681 65.639 74.8614 65.6417 74.8404 65.6478C74.6799 65.7035 75.1026 64.01 75.2363 63.7573C75.3718 63.5096 75.7063 63.6009 75.8438 63.2427C75.9806 62.8867 75.8181 62.6255 75.9096 62.4353C76.0171 62.2127 76.4488 62.0249 76.465 61.385C76.4813 60.7506 75.9495 60.6104 75.2252 60.6972C74.8448 60.7458 73.4343 61.8684 73.4381 61.6945C73.4441 61.4847 73.5668 61.2114 73.7458 60.9296C74.0566 60.4364 74.5151 59.9256 74.7367 59.7259C75.0833 59.4205 76.3509 58.9165 77.2117 58.704C78.067 58.4918 77.7076 57.4371 76.9032 57.2949Z" fill="#236840"/>
<path d="M74.5764 55.8534C74.5764 55.8534 74.9412 55.7159 75.3054 55.5744C75.6689 55.4328 75.803 55.2261 75.8601 54.7785C75.9111 54.3322 75.4152 53.7498 74.5669 53.6653C73.72 53.5795 73.5348 54.0241 73.5625 54.745C73.5869 55.473 74.2368 55.7636 74.5764 55.8534Z" fill="#236840"/>
<path d="M93.0822 63.6759C92.715 63.6678 91.9177 63.5205 91.2725 63.3063C90.6323 63.0965 89.8661 62.5374 89.8918 62.3877C89.9178 62.2384 89.7988 60.7253 89.8049 60.5286C89.8107 60.3368 90.9434 59.9053 91.0985 59.8651C91.2478 59.8253 91.2343 59.526 91.1752 59.1986C91.1211 58.8756 90.3046 58.702 90.1549 58.6108C90.0066 58.5246 90.1694 58.1787 90.1694 57.9216C90.1694 56.4679 90.7907 56.3152 90.7407 55.7737C90.6911 55.2314 89.9938 55.3213 89.6874 55.4449C89.3809 55.5686 89.2739 55.5878 89.2698 55.8669C89.2597 56.1459 89.234 56.3007 89.2296 56.5801C89.2198 56.8591 89.1124 58.6746 89.109 58.975C89.1022 59.2814 89.1043 59.1067 88.7269 59.5739C88.3455 60.0422 86.5057 61.2959 86.2171 61.4398C85.934 61.583 86.0472 60.3726 86.2084 59.9449C86.3702 59.5172 87.0529 58.931 87.5546 58.8516C88.0506 58.778 88.2333 58.4794 88.1742 58.2223C88.1313 58.0294 87.1638 57.652 86.9732 57.4544C86.782 57.2574 86.782 57.2574 86.7482 56.9709C86.7087 56.6905 86.8222 55.1179 86.8279 54.921C86.8283 54.7301 86.3604 54.348 85.9742 54.2325C85.5881 54.1169 84.7317 54.6568 84.6858 54.9602C84.6341 55.2591 84.4297 55.5601 84.5925 56.0166C84.756 56.4777 84.8868 57.3405 84.8689 58.0567C84.8567 58.7672 84.4111 59.1263 83.8868 59.4584C83.3577 59.7912 83.5544 59.7317 82.9638 60.0425C82.3726 60.3526 81.0037 60.4381 81.152 60.7803C81.6466 61.8918 82.4 61.8242 82.5969 61.8296C82.7932 61.83 83.0963 61.7945 83.3598 61.6742C83.6219 61.5492 83.9729 61.2965 84.1006 61.3242C84.2277 61.3465 84.0263 61.7502 83.9287 62.1624C83.8317 62.5688 82.7625 64.0549 81.8321 64.8789C81.2834 65.3651 81.5534 65.6708 82.2007 65.8421C82.8422 66.0076 83.9567 64.6276 83.9864 64.4556C84.0108 64.285 84.1858 64.2208 84.2236 64.2891C84.2675 64.3563 84.2135 65.7583 84.229 66.0846C84.2395 66.4063 84.2233 66.3414 84.3452 66.6265C84.4662 66.911 84.677 67.1505 85.2368 67.2519C85.7969 67.3535 85.7688 66.7948 85.6895 66.3593C85.6151 65.9232 85.6232 63.7813 85.6469 63.5441C85.6776 63.307 85.7506 63.0063 85.8999 62.9668C86.0503 62.9276 86.4415 63.0425 86.6114 63.0502C86.7864 63.0526 86.9915 62.3854 87.0009 62.1506C87.0232 61.6121 88.7195 60.803 88.7158 60.956C88.7117 61.1094 88.6796 61.3671 88.6323 61.6671C88.5232 62.358 87.5904 63.6739 87.4533 63.9968C87.3158 64.3191 86.2462 64.7894 86.0672 65.0657C85.8874 65.3424 85.9675 65.5819 86.0915 65.8228C86.2144 66.0634 86.583 65.9627 86.7418 65.7745C86.9009 65.5816 87.1219 65.285 87.3019 65.0076C87.481 64.7313 87.636 64.4999 87.8577 64.2036C88.0833 63.9012 88.7475 62.5604 88.7475 64.0698C88.7475 64.5678 88.6472 65.7107 88.6272 66.5316C88.608 67.3515 89.0114 67.6893 89.261 67.9312C89.5161 68.1778 89.9799 67.7741 89.9931 67.3417C90.0015 66.9093 89.7698 64.9603 89.7529 64.6161C89.7343 64.2408 89.636 63.9698 89.9164 63.9303C90.1978 63.8962 90.4276 64.4563 90.987 64.5522C91.5471 64.6539 92.789 64.4755 93.0062 64.2171C93.2322 63.9489 93.6133 64.036 93.7755 63.7995C93.9302 63.5631 93.4488 63.684 93.0822 63.6759Z" fill="#236840"/>
<path d="M100.604 61.9285C100.493 62.1795 99.913 63.4508 99.862 63.5819C99.8059 63.718 99.709 63.7687 99.6566 63.6329C99.5911 63.4636 99.1441 63.2478 99.0708 63.1535C98.9935 63.0491 99.387 61.7657 99.4938 61.6181C99.511 61.5978 99.5283 61.5829 99.5556 61.5694C99.758 61.4525 100.302 61.3951 100.477 61.4437C100.678 61.5005 100.715 61.6724 100.604 61.9285ZM99.4755 65.2031C99.4303 65.2315 99.3147 65.242 99.21 65.2491C99.1073 65.2498 99.0198 65.2528 99.0198 65.2528C98.9536 65.0342 98.959 64.8609 98.959 64.6876C98.959 64.5133 99.0428 64.3254 99.2191 64.2336C99.2478 64.2197 99.282 64.2062 99.31 64.1927C99.457 64.142 99.5972 64.1491 99.5978 64.318C99.5945 64.5183 99.5728 65.1525 99.4755 65.2031ZM97.9921 62.7809C97.9749 62.7792 97.959 62.7832 97.9428 62.7819C97.8675 62.7748 97.7898 62.7295 97.807 62.4978C97.8212 62.2917 98.0567 62.3248 98.0901 62.3228C98.2083 62.3282 98.0965 62.7687 97.9921 62.7809ZM102.785 54.2976C102.116 54.2503 101.65 54.8644 101.644 55.2117C101.639 55.5648 101.49 55.8712 101.417 56.2445C101.343 56.6181 101.177 57.0053 101.177 57.0053C101.177 57.0053 101.439 56.6982 101.604 56.4472C101.765 56.1955 101.873 56.0756 101.996 56.2117C102.114 56.3489 101.561 58.758 101.392 59.1009C101.23 59.4495 100.811 60.6005 100.66 60.7603C100.51 60.9201 100.213 61.061 99.8664 61.0444C99.7593 61.0397 99.6735 61.0268 99.6103 60.9981C99.4576 60.9356 99.4117 60.8059 99.4134 60.5566C99.4201 60.1927 99.481 58.7961 99.6049 58.5195C99.7161 58.2644 99.7154 58.1499 99.8934 57.9982C99.9103 57.9837 99.9347 57.9644 99.958 57.9441C100.204 57.7607 100.651 57.4445 100.771 57.2816C100.894 57.1252 100.938 56.9607 100.982 56.7634C101.022 56.561 100.985 56.2097 100.646 55.8296C100.4 55.5617 99.958 55.3959 99.8293 55.3239C99.5201 55.1536 98.9681 55.2317 98.6313 55.4607C98.4756 55.5604 98.3654 55.6969 98.3496 55.8583C98.3144 56.1215 98.4249 56.3327 98.5354 56.4844C98.6387 56.6141 98.7381 56.7046 98.7661 56.7506C98.8164 56.8425 98.8144 56.9887 98.783 57.2685C98.7553 57.5539 98.4202 60.5549 98.4195 60.7181C98.4151 60.8799 98.3871 61.0677 98.2783 61.2373C98.2337 61.3035 98.1631 61.3623 98.0722 61.4083C97.9293 61.4863 97.755 61.5464 97.6246 61.5998C97.3874 61.7025 96.156 61.7329 96.1506 61.9069C96.1506 62.0802 96.0161 62.5299 96.3969 63.1633C96.778 63.7967 97.233 63.8018 97.4492 63.7572C97.6144 63.7285 97.7398 63.6755 97.8455 63.8113C97.8803 63.8515 97.9134 63.9143 97.9428 64.0045C98.0644 64.3744 98.0002 65.2852 98.1195 65.5207C98.2712 65.8207 96.9492 65.6119 96.4969 65.6727C96.0408 65.7329 96.1965 66.8514 96.4124 67.0994C96.7557 67.4906 97.1624 67.5017 97.5073 67.4088C97.7867 67.3325 98.0225 67.1916 98.1485 67.122C98.3205 67.0234 98.6786 66.8686 99.059 66.8065C99.3087 66.7595 101.82 66.6376 102.05 66.6805C102.273 66.7237 102.737 66.5318 102.9 66.1176C103.07 65.7041 102.713 65.0565 102.272 65.0639C101.832 65.0721 100.03 65.2514 100.032 65.1156C100.034 64.9805 100.502 63.7778 100.68 63.4467C100.858 63.1106 101.561 63.0951 101.829 63.0714C102.097 63.0484 102.151 63.0471 102.394 62.891C102.638 62.7343 102.908 62.5207 103.085 62.3745C103.208 62.2721 103.554 61.8805 103.608 61.4397L103.612 61.386C103.623 61.2184 103.595 61.0525 103.49 60.891C103.114 60.2687 101.752 60.4225 101.525 60.5323C101.297 60.6353 101.443 60.4593 101.556 60.209C101.667 59.9529 102.916 56.5979 103.096 56.3594C103.271 56.1202 103.451 55.882 103.801 55.6817C104.151 55.4857 104.075 55.256 104.067 54.9992C104.052 54.7482 103.454 54.3496 102.785 54.2976Z" fill="#236840"/>
<path d="M124.269 66.9783C124.232 67.2462 123.844 67.5358 123.75 67.5763C123.71 67.5908 123.667 67.5929 123.635 67.578C123.423 67.455 123.793 67.1317 123.829 66.9891C123.854 66.7054 124.162 66.4831 124.248 66.474C124.291 66.4723 124.328 66.4814 124.357 66.5081C124.449 66.5922 124.293 66.8054 124.269 66.9783ZM126.26 64.804C125.916 64.8206 125.066 64.9267 124.946 64.9375C124.703 64.9588 124.538 64.7044 124.489 64.4797C124.395 64.053 124.833 63.3689 124.976 63.0973C125.16 62.7494 125.038 62.5608 125.036 62.5531C124.953 62.3997 124.393 62.4213 124.159 62.5294C123.924 62.6358 123.937 62.6416 123.572 62.7662C123.212 62.8923 123.211 62.8027 123.108 62.8791C123.016 62.9615 122.914 63.3406 123.017 63.4919C123.122 63.6412 123.248 63.6368 123.415 63.6301C123.577 63.6203 123.868 63.3129 123.969 63.2689C124.069 63.2318 124.3 63.2868 124.155 63.5027C124.011 63.7267 123.805 64.1841 123.836 64.5416C123.849 64.6919 123.905 64.8412 123.97 64.973C124.075 65.1993 124.178 65.349 124.178 65.349C124.178 65.349 123.839 65.4801 123.67 65.6605C123.543 65.7959 122.398 66.9645 122.368 67.1506C122.337 67.3435 122.532 67.9614 122.588 68.0341C122.645 68.1216 122.742 68.227 122.889 68.3753C123.011 68.4999 123.536 68.7976 123.666 68.8634C123.906 68.9999 124.197 68.8334 124.46 68.1216C124.526 67.9793 124.856 67.4847 124.915 67.325C125.067 66.9158 125.108 66.2436 125.108 66.2436C125.108 66.2436 125.597 65.8311 126.803 65.7094C127.133 65.6763 126.88 65.2419 126.845 65.0334C126.816 64.8216 126.61 64.777 126.26 64.804Z" fill="#236840"/>
<path d="M123.758 60.1752C123.737 60.1596 123.723 60.1468 123.713 60.1218C123.65 60.0042 123.84 59.1688 123.841 58.7704C123.846 58.3664 124.124 57.7167 124.261 57.6887C124.393 57.657 124.439 58.3319 124.481 58.4262C124.526 58.5502 124.891 58.9894 124.805 59.1495C124.718 59.316 124.03 60.4096 123.758 60.1752ZM122.538 58.9177C122.545 59.1336 122.438 59.5806 122.438 59.5806C122.372 59.5015 122.328 59.4613 122.306 59.4032C122.289 59.3481 122.287 59.2775 122.294 59.1569C122.31 58.8765 122.386 58.7529 122.425 58.6671C122.457 58.5927 122.523 58.6958 122.538 58.8894C122.541 58.8978 122.536 58.9086 122.538 58.9177ZM128.071 59.8201C128.023 59.6339 127.716 59.5839 127.356 59.5873C127.165 59.5897 126.282 59.6711 125.709 59.8603C125.127 60.0522 124.572 60.2133 124.402 60.3154C124.232 60.4174 124.369 60.2184 124.528 60.0833C124.687 59.9427 125.346 59.4008 125.504 59.3968C125.667 59.388 126.096 59.0938 126.211 58.8225C126.318 58.5556 125.852 58.0485 125.66 57.8941C125.461 57.7424 125.486 57.6519 125.514 57.3201C125.554 56.8539 125.712 56.6245 125.901 56.4016C126.097 56.1793 127.241 55.1702 127.342 55.0094C127.443 54.8425 127.286 54.6756 127.153 54.6641C127.019 54.657 126.686 54.5898 126.554 54.5918C126.416 54.5915 126.263 54.0763 126.195 53.908C126.08 53.6158 125.769 53.6942 125.492 53.7283C125.215 53.7672 125.273 53.9239 125.143 54.1827C125.022 54.4371 124.911 55.2594 124.829 55.5178C124.747 55.7762 124.186 56.9255 123.981 57.2455C123.78 57.5543 123.472 58.1296 123.46 58.0485C123.443 57.9651 123.542 57.7759 123.561 57.5374C123.579 57.2978 123.878 56.1756 124.074 55.7137C124.125 55.5999 124.138 55.4806 124.124 55.3722C124.088 55.0597 123.815 54.8263 123.522 54.8384C123.137 54.8509 122.849 55.0364 122.697 55.2012C122.54 55.3651 122.338 55.707 122.423 55.8746C122.509 56.0445 122.739 56.0668 122.847 56.1019C122.953 56.1414 122.892 56.1691 122.898 56.4333C122.904 56.7046 122.881 56.7276 122.859 56.959C122.84 57.184 122.645 56.5664 122.516 56.2884C122.386 56.0107 122.297 56.0587 122.01 55.9016C121.727 55.7533 121.454 55.6719 121.002 55.8185C120.801 55.8854 120.664 55.9607 120.601 56.084L120.594 56.1009C120.534 56.2465 120.57 56.4553 120.702 56.7891C120.967 57.4374 121.072 58.2073 121.04 58.8117C121.001 59.4133 120.863 60.086 120.94 60.6012C120.992 61.0174 121.178 61.1559 121.47 61.2532C121.545 61.2731 121.623 61.2951 121.711 61.3143C122.003 61.3836 122.246 61.0123 122.322 60.9039C122.399 60.7924 122.354 60.6356 122.352 60.5035C122.345 60.3694 122.488 60.3238 122.579 60.4272C122.656 60.5306 122.862 60.8208 122.855 60.9099C122.842 61.0799 122.807 61.3687 122.584 61.4812C122.359 61.5988 121.403 62.0268 121.058 62.167C120.922 62.2231 120.799 62.2704 120.712 62.2934C120.396 62.3846 120.336 62.2272 120.121 62.2322C119.911 62.241 119.429 62.3326 119.25 62.5332C119.07 62.7197 118.753 63.1559 119.008 63.6471C119.451 64.5011 120.275 63.8251 120.275 63.8251C120.749 63.3744 123.682 61.3515 123.791 61.2285C123.92 61.0951 124.061 60.9177 124.229 60.7593C124.601 60.3748 126.325 60.0248 126.384 60.0214C126.88 59.9951 126.956 60.0944 126.541 60.7106C126.255 61.1312 125.711 61.5738 125.397 61.8099C125.252 61.9214 125.153 61.9876 125.153 61.9876C125.218 61.9687 125.28 61.9488 125.344 61.9292C125.77 61.7792 126.178 61.543 126.588 61.2883C126.723 61.2049 126.865 61.1187 127.008 61.0312C127.621 60.6474 128.15 60.0971 128.071 59.8201Z" fill="#236840"/>
<path d="M117.44 65.9859C117.297 65.9295 117.071 66.0664 116.707 66.0147C116.337 65.967 114.853 65.4025 114.355 65.0089C113.855 64.6083 112.119 63.1232 112.02 63.0042C111.915 62.8819 111.893 62.7664 111.825 62.4826C111.754 62.2059 111.752 61.9613 111.817 61.488C111.884 61.0137 112.189 60.5546 112.689 60.4495C113.194 60.3452 113.971 60.2783 114.153 60.2884C114.339 60.2925 114.307 60.2901 114.432 60.1935C114.553 60.0887 114.544 60.0594 114.661 59.9229C114.787 59.7813 114.79 59.6915 114.695 59.6188C114.607 59.5529 114.494 59.4806 114.149 59.2229C113.803 58.9651 113.432 58.9621 113.299 59.0232C113.164 59.0861 112.807 59.029 112.503 58.9452C112.209 58.8641 112.273 58.0867 112.287 57.7442C112.3 57.4023 112.645 56.7162 112.785 56.479C112.942 56.2114 113.189 55.7314 113.243 55.3185C113.308 54.8243 113.279 54.5952 113.048 54.3094C112.844 54.0564 112.55 54.0294 112.261 54.0317C111.978 54.0361 111.325 54.2088 111.143 54.4101C110.972 54.6155 111.075 54.9729 111.249 55.2449C111.427 55.5091 111.571 55.5919 111.559 55.8449C111.555 56.0939 111.486 56.5344 111.45 56.7743C111.419 57.0084 111.335 57.9817 111.225 58.5006C111.112 59.0307 110.77 60.1387 110.503 60.2124C110.24 60.28 110.053 60.3266 109.37 60.2681C108.69 60.21 108.452 60.6577 108.445 60.937C108.433 61.2097 108.41 61.5614 108.552 61.6877C108.695 61.8076 108.827 61.732 108.98 61.7529C109.383 61.7394 109.949 61.9826 110.066 62.082C110.179 62.1738 110.022 62.5735 109.992 62.6482C109.963 62.7279 109.376 64.3279 109.295 64.4951C109.206 64.6606 108.126 66.412 107.696 66.692C107.266 66.967 107.233 66.8221 106.937 66.6555C106.641 66.4893 106.325 66.6052 106.223 66.7481C106.129 66.8924 106.175 67.0346 106.183 67.2228C106.192 67.4052 106.179 67.595 106.306 67.7042C107.136 68.3967 108.471 67.5934 108.781 67.3927C110.395 66.3437 110.727 63.3549 111.239 63.3549C111.646 63.3549 111.851 63.7343 111.988 63.8728C112.128 64.0046 113.424 65.888 113.829 66.3106C114.235 66.7282 114.645 67.1356 114.964 67.1417C115.275 67.1525 116.158 66.7967 116.341 66.7822C116.522 66.7592 116.589 66.8113 116.757 66.766C116.932 66.7163 117.268 66.3886 117.473 66.239C117.675 66.0812 117.583 66.0424 117.44 65.9859Z" fill="#236840"/>
<path d="M72.6537 72.6976L72.455 73.0418C72.455 73.0418 72.5875 73.1124 72.8567 73.08C72.8881 73.0763 72.9334 73.0688 72.9881 73.0597L72.9878 73.5905C72.8081 73.6925 72.5034 73.758 72.2824 73.758C71.6101 73.758 71.298 73.4077 71.298 72.8523C71.298 72.2895 71.6926 71.931 72.2794 71.931C72.599 71.931 72.9459 72.052 73.1442 72.2374L73.4118 71.8844C73.1496 71.6537 72.7192 71.5023 72.2794 71.5097C71.3314 71.526 70.827 72.0885 70.827 72.8486C70.827 73.6087 71.3017 74.1945 72.2493 74.1945C72.6652 74.1945 73.1209 74.0533 73.3908 73.8492V72.6976H72.9881H72.6537Z" fill="#236840"/>
<path d="M62.8219 71.5267H62.803H62.6898C62.6898 71.5267 62.7179 71.6426 62.8219 71.676V74.149H63.2881V71.5267H62.8219Z" fill="#236840"/>
<path d="M65.1375 71.5262H65.1183H65.0051C65.0051 71.5262 65.0331 71.6424 65.1375 71.6755V71.9464V72.0887V73.3137C65.1375 73.5609 64.9777 73.7414 64.7267 73.7414C64.5166 73.7414 64.3122 73.6245 64.1358 73.4332L63.8784 73.7623C64.0649 73.9937 64.3544 74.1721 64.7142 74.1721C65.2608 74.1721 65.6037 73.8647 65.6037 73.3251V71.5262H65.1375Z" fill="#236840"/>
<path d="M66.4516 71.5267H66.4324H66.3192C66.3192 71.5267 66.3473 71.6426 66.4516 71.676V74.149H66.9175V71.5267H66.4516Z" fill="#236840"/>
<path d="M122.594 71.5254H120.246V71.9457H121.187V74.1487H121.653V71.9457H122.594V71.5254Z" fill="#236840"/>
<path d="M92.2002 71.5254H89.911V71.9457H90.8225V74.1487H91.2887V71.9457H92.2002V71.5254Z" fill="#236840"/>
<path d="M106.374 71.5262H106.355H106.242C106.242 71.5262 106.27 71.6421 106.374 71.6755V74.1485H106.84V71.5262H106.374Z" fill="#236840"/>
<path d="M119.164 71.5262H119.145H119.032C119.032 71.5262 119.06 71.6421 119.164 71.6755V74.1485H119.63V71.5262H119.164Z" fill="#236840"/>
<path d="M79.5657 71.5097C78.7789 71.5104 78.2083 72.0344 78.2083 72.8523C78.2083 73.6698 78.7789 74.1938 79.5657 74.1945C80.3521 74.1938 80.9217 73.6739 80.9217 72.856C80.9217 72.0385 80.3521 71.5104 79.5657 71.5097ZM80.4501 72.856C80.4501 73.4087 80.094 73.7563 79.5657 73.7563C79.0373 73.7563 78.6795 73.405 78.6795 72.8523H78.6707C78.6707 72.8523 78.6795 72.8526 78.6795 72.8523C78.6795 72.2999 79.0373 71.9405 79.5657 71.9483C80.0937 71.9557 80.4501 72.3037 80.4501 72.856Z" fill="#236840"/>
<path d="M109.561 71.5254C109.561 71.5254 109.034 72.5561 108.705 73.7277C108.376 72.5558 107.849 71.5251 107.849 71.5251H107.37C107.37 71.5251 107.952 72.7416 108.394 74.148L108.641 74.1483L108.768 74.148L108.769 74.1487H109.016C109.458 72.7419 110.041 71.5254 110.041 71.5254H109.561Z" fill="#236840"/>
<path d="M97.59 71.5254C97.59 71.5254 97.1508 72.0902 96.8062 72.7568C96.4613 72.0902 96.0224 71.5254 96.0224 71.5254H95.5278C95.5278 71.5254 96.1373 72.3271 96.5731 73.1771V74.1487H96.8062H97.0393V73.1771C97.4751 72.3271 98.0845 71.5254 98.0845 71.5254H97.59Z" fill="#236840"/>
<path d="M124.961 71.5254C124.961 71.5254 124.522 72.0902 124.177 72.7568C123.832 72.0902 123.393 71.5254 123.393 71.5254H122.899C122.899 71.5254 123.508 72.3271 123.944 73.1771V74.1487H124.177H124.41V73.1771C124.846 72.3271 125.456 71.5254 125.456 71.5254H124.961Z" fill="#236840"/>
<path d="M88.0561 72.2197C88.0561 72.0572 88.2663 71.9407 88.4737 71.9407C88.676 71.9407 88.9085 71.9859 89.2568 72.1842L89.447 71.7724L89.5098 71.6356C89.4061 71.6174 89.3348 71.6704 89.3095 71.6937C89.0798 71.5768 88.8034 71.5096 88.5149 71.5096C87.9267 71.5096 87.5332 71.8045 87.5332 72.265C87.5332 73.2052 88.9706 72.892 88.9706 73.4433C88.9706 73.6281 88.7399 73.7623 88.4926 73.7623C88.2112 73.7623 87.846 73.6227 87.5761 73.3812L87.3757 73.7889C87.6565 74.0423 88.0652 74.1947 88.4852 74.1947C89.0622 74.1947 89.4892 73.9075 89.4892 73.4129C89.4933 72.465 88.0561 72.7559 88.0561 72.2197Z" fill="#236840"/>
<path d="M117.001 72.2197C117.001 72.0572 117.212 71.9407 117.419 71.9407C117.621 71.9407 117.854 71.9859 118.202 72.1842L118.392 71.7724L118.455 71.6356C118.351 71.6174 118.28 71.6704 118.255 71.6937C118.025 71.5768 117.749 71.5096 117.46 71.5096C116.872 71.5096 116.478 71.8045 116.478 72.265C116.478 73.2052 117.916 72.892 117.916 73.4433C117.916 73.6281 117.685 73.7623 117.438 73.7623C117.157 73.7623 116.791 73.6227 116.521 73.3812L116.321 73.7889C116.602 74.0423 117.01 74.1947 117.43 74.1947C118.008 74.1947 118.435 73.9075 118.435 73.4129C118.438 72.465 117.001 72.7559 117.001 72.2197Z" fill="#236840"/>
<path d="M67.5934 71.5267C67.5934 71.5267 67.6214 71.6426 67.7255 71.676V74.15L68.1917 74.1493V72.3642L68.1883 71.5267H67.5934Z" fill="#236840"/>
<path d="M69.6749 71.5267L69.6752 73.4196V73.6169C69.6752 73.6169 69.6333 73.3956 69.3934 73.121C68.9725 72.6507 68.5972 72.1284 68.381 71.8129C68.3141 72.0798 68.2826 72.4983 68.581 72.8956C68.8435 73.2456 69.2377 73.7091 69.6911 74.1493L70.1411 74.15V71.5267H69.6749Z" fill="#236840"/>
<path d="M102.927 71.5254C102.927 71.5254 102.955 71.6416 103.059 71.6747V74.1487L103.525 74.1483V72.3629L103.522 71.5254H102.927Z" fill="#236840"/>
<path d="M105.008 71.5254L105.008 73.4183V73.6156C105.008 73.6156 104.967 73.3943 104.727 73.1196L104.727 73.12C104.306 72.6494 103.93 72.1271 103.714 71.8115C103.647 72.0784 103.616 72.497 103.914 72.8943C104.177 73.2446 104.571 73.7078 105.024 74.148L105.474 74.1487V71.5254H105.008Z" fill="#236840"/>
<path d="M101.602 73.5608C102.142 73.3865 102.22 72.8321 102.229 72.6064V71.5267H101.763V73.0777C101.763 73.2723 101.703 73.4382 101.6 73.5615L101.602 73.5608Z" fill="#236840"/>
<path d="M102.17 73.3497V73.3486C101.853 73.8632 101.041 73.7932 101.041 73.7932C100.663 73.775 100.378 73.4865 100.378 73.0777V71.5267H99.9135V73.0777C99.9135 73.7773 100.363 74.2108 101.079 74.2108C101.589 74.2108 101.958 73.9868 102.126 73.6027C102.179 73.4622 102.17 73.3497 102.17 73.3497Z" fill="#236840"/>
<path d="M58.6482 72.7632C58.9327 72.692 59.1053 72.471 59.1053 72.1825C59.1053 71.7778 58.7604 71.5268 58.2023 71.5268H57.158L57.159 71.5264C56.959 71.5271 56.8101 71.517 56.8101 71.517C56.8101 71.517 56.884 71.9548 57.885 71.948C58.0019 71.9474 58.109 71.9477 58.1759 71.9474C58.4344 71.9457 58.6225 72.0605 58.6225 72.2724C58.6225 72.4906 58.4344 72.6143 58.1759 72.6143L57.2938 72.6139V72.0264C56.983 71.9805 56.8276 71.8274 56.8276 71.8274V72.0102V74.1497H58.2357C58.8354 74.1497 59.2063 73.8764 59.2063 73.4264C59.2063 73.0781 58.9965 72.8268 58.6482 72.7632ZM58.1759 73.7298H57.2938V73.0342H58.1759C58.4942 73.0305 58.7151 73.1325 58.7151 73.3629C58.7151 73.6082 58.4942 73.7335 58.1759 73.7298Z" fill="#236840"/>
<path d="M60.3452 73.7294V73.0483H61.8641V72.628H60.3452V72.0277C60.3196 72.024 60.2956 72.0192 60.2719 72.0142C60.2662 72.0128 60.2601 72.0118 60.2544 72.0105C60.2331 72.0051 60.2118 72 60.1925 71.9939C60.1915 71.9936 60.1902 71.9936 60.1892 71.9932C60.1679 71.9868 60.1476 71.9797 60.128 71.9726C60.1253 71.9713 60.1219 71.9699 60.1186 71.9689C60.1 71.9618 60.0827 71.9544 60.0662 71.947C59.9415 71.8902 59.879 71.829 59.879 71.829V71.947V72.0108V72.628V73.0483V73.7294V74.15H60.3452H62.0564V73.7294H60.3452Z" fill="#236840"/>
<path d="M60.1308 71.5267C59.972 71.525 59.8608 71.5176 59.8608 71.5176C59.8608 71.5176 59.9352 71.9331 60.9324 71.947H62.0101V71.5267H60.1308Z" fill="#236840"/>
<path d="M83.6002 73.6301V73.6304C83.5992 73.6284 83.5978 73.6264 83.5965 73.6237C83.5792 73.595 83.5623 73.5652 83.5451 73.5348C83.3367 73.1987 83.1431 73.2054 83.1431 73.2054C83.2566 73.1784 83.3468 73.1385 83.3468 73.1385C83.6424 73.0274 83.8488 72.7443 83.8488 72.3838C83.8488 71.8426 83.4309 71.5257 82.7769 71.5257L81.8715 71.5254C81.6718 71.5261 81.5232 71.5159 81.5232 71.5159C81.5232 71.5159 81.5968 71.9318 82.5934 71.946H82.7063H82.7769C83.1877 71.946 83.3978 72.1149 83.3978 72.3987C83.3978 72.6798 83.1711 72.8372 82.7769 72.8372L82.007 72.8369L82.0066 72.0257C81.7212 71.9835 81.5671 71.8514 81.5441 71.8301L81.5408 71.8288V74.1487H82.007V73.2571H82.808C82.8418 73.2571 82.8961 73.2527 82.9262 73.249C83.135 73.7558 83.4151 74.1487 83.4151 74.1487H83.9407C83.9407 74.1487 83.7742 73.9243 83.6002 73.6301Z" fill="#236840"/>
<path d="M94.8467 73.6301V73.6304C94.8454 73.6284 94.8444 73.6264 94.843 73.6237C94.8258 73.595 94.8089 73.5652 94.7917 73.5348C94.5832 73.1987 94.3897 73.2054 94.3897 73.2054C94.5032 73.1784 94.593 73.1385 94.593 73.1385C94.889 73.0274 95.0954 72.7443 95.0954 72.3838C95.0954 71.8426 94.6775 71.5257 94.0234 71.5257L93.1181 71.5254C92.9184 71.5261 92.7694 71.5159 92.7694 71.5159C92.7694 71.5159 92.8434 71.9318 93.84 71.946H93.9528H94.0234C94.4342 71.946 94.6444 72.1149 94.6444 72.3987C94.6444 72.6798 94.4177 72.8372 94.0234 72.8372L93.2532 72.8369V72.0257C92.9677 71.9835 92.8133 71.8514 92.7907 71.8301L92.787 71.8288V74.1487H93.2532V73.2571H94.0545C94.0883 73.2571 94.1427 73.2527 94.1728 73.249C94.3815 73.7558 94.6616 74.1487 94.6616 74.1487H95.1873C95.1873 74.1487 95.0207 73.9243 94.8467 73.6301Z" fill="#236840"/>
<path d="M115.519 73.6301V73.6304C115.518 73.6284 115.517 73.6264 115.515 73.6237C115.499 73.595 115.482 73.5652 115.464 73.5348C115.256 73.1987 115.062 73.2054 115.062 73.2054C115.176 73.1784 115.266 73.1385 115.266 73.1385C115.562 73.0274 115.768 72.7443 115.768 72.3838C115.768 71.8426 115.35 71.5257 114.696 71.5257L113.791 71.5254C113.591 71.5261 113.442 71.5159 113.442 71.5159C113.442 71.5159 113.516 71.9318 114.513 71.946H114.626H114.696C115.107 71.946 115.317 72.1149 115.317 72.3987C115.317 72.6798 115.09 72.8372 114.696 72.8372L113.926 72.8369V72.0257C113.64 71.9835 113.486 71.8514 113.463 71.8301L113.46 71.8288V74.1487H113.926V73.2571H114.727C114.761 73.2571 114.815 73.2527 114.845 73.249C115.054 73.7558 115.334 74.1487 115.334 74.1487H115.86C115.86 74.1487 115.693 73.9243 115.519 73.6301Z" fill="#236840"/>
<path d="M76.066 72.026C75.7555 71.9801 75.6001 71.827 75.6001 71.827V71.8274V71.9463V72.6274V73.0476V74.149H76.066V73.0476H77.5852V72.6274H76.066V72.026Z" fill="#236840"/>
<path d="M75.8775 71.5259C75.7052 71.5249 75.5823 71.5164 75.5823 71.5164C75.5823 71.5164 75.6566 71.9327 76.6542 71.9462H77.7312V71.5259H75.8775Z" fill="#236840"/>
<path d="M85.1033 73.7282V73.0471H86.6225V72.6269H85.1033V72.0265C85.0776 72.0228 85.0536 72.0181 85.03 72.013C85.0242 72.0117 85.0185 72.0107 85.0124 72.009C84.9911 72.0039 84.9702 71.9985 84.9506 71.9928L84.9476 71.9917C84.9263 71.9853 84.9057 71.9786 84.8864 71.9711C84.8834 71.9698 84.88 71.9688 84.8769 71.9674C84.8584 71.9603 84.8408 71.9532 84.8246 71.9458C84.6999 71.889 84.6371 71.8279 84.6371 71.8279V71.9458V72.0096V72.6269V73.0471V73.7282V74.1485H85.1033H86.8144V73.7282H85.1033Z" fill="#236840"/>
<path d="M84.8889 71.5254C84.7301 71.5237 84.6193 71.5163 84.6193 71.5163C84.6193 71.5163 84.6932 71.9322 85.6905 71.9457H86.7686V71.5254H84.8889Z" fill="#236840"/>
<path d="M111.052 73.7282V73.0471H112.571V72.6269H111.052V72.0265C111.026 72.0228 111.002 72.0181 110.978 72.013C110.973 72.0117 110.967 72.0107 110.961 72.009C110.94 72.0039 110.918 71.9985 110.899 71.9928C110.898 71.9924 110.897 71.9921 110.896 71.9917C110.874 71.9853 110.854 71.9786 110.835 71.9711C110.832 71.9698 110.828 71.9688 110.825 71.9674C110.807 71.9603 110.789 71.9532 110.773 71.9458C110.648 71.889 110.586 71.8279 110.586 71.8279V71.9458V72.0096V72.6269V73.0471V73.7282V74.1485H111.052H112.763V73.7282H111.052Z" fill="#236840"/>
<path d="M110.837 71.5254C110.678 71.5237 110.567 71.5163 110.567 71.5163C110.567 71.5163 110.642 71.9322 111.639 71.9457H112.717V71.5254H110.837Z" fill="#236840"/>
</g>
</g>
<defs>
<filter id="filter0_d_3_246" x="0" y="0" width="154" height="157" filterUnits="userSpaceOnUse" color-interpolation-filters="sRGB">
<feFlood flood-opacity="0" result="BackgroundImageFix"/>
<feColorMatrix in="SourceAlpha" type="matrix" values="0 0 0 0 0 0 0 0 0 0 0 0 0 0 0 0 0 0 127 0" result="hardAlpha"/>
<feOffset dy="16"/>
<feGaussianBlur stdDeviation="6.5"/>
<feColorMatrix type="matrix" values="0 0 0 0 0 0 0 0 0 0 0 0 0 0 0 0 0 0 0.03 0"/>
<feBlend mode="normal" in2="BackgroundImageFix" result="effect1_dropShadow_3_246"/>
<feBlend mode="normal" in="SourceGraphic" in2="effect1_dropShadow_3_246" result="shape"/>
</filter>
<clipPath id="clip0_3_246">
<rect width="154" height="157" fill="white"/>
</clipPath>
</defs>
</svg>
