<svg width="154" height="157" viewBox="0 0 154 157" fill="none" xmlns="http://www.w3.org/2000/svg">
<g filter="url(#filter0_d_100_630)">
<rect width="128" height="128" transform="translate(13)" fill="white"/>
<path fill-rule="evenodd" clip-rule="evenodd" d="M35.5924 51.0387C33.9156 51.7468 32.4123 52.7614 31.1206 54.0535C29.8285 55.3448 28.8147 56.8499 28.1062 58.525C27.3724 60.2596 27 62.1011 27 64.0011C27 65.9001 27.3724 67.743 28.1062 69.4769C28.8147 71.152 29.8285 72.6556 31.1206 73.9477C32.4123 75.2394 33.9156 76.2533 35.5924 76.9617C37.3257 77.6956 39.1675 78.0673 41.0668 78.0673C42.9655 78.0673 44.8084 77.6956 46.543 76.9617C48.2181 76.2533 49.7224 75.2394 51.0141 73.9477C52.3066 72.6556 53.3204 71.152 54.0282 69.4769C54.7627 67.743 55.1344 65.9001 55.1344 64.0011C55.1344 62.1011 54.7627 60.2596 54.0282 58.525C53.3204 56.8499 52.3066 55.3448 51.0141 54.0535C49.7224 52.7614 48.2181 51.7468 46.543 51.0387C44.8084 50.3067 42.9655 49.9329 41.0668 49.9329C39.1675 49.9329 37.3257 50.3067 35.5924 51.0387ZM35.773 76.5329C34.1533 75.8484 32.6987 74.8678 31.45 73.618C30.1995 72.37 29.2185 70.9139 28.5347 69.2953C27.8252 67.6189 27.4662 65.8377 27.4662 64.0011C27.4662 62.1646 27.8252 60.383 28.5347 58.7052C29.2185 57.0858 30.1995 55.6312 31.45 54.3825C32.6987 53.1331 34.1533 52.151 35.773 51.4658C37.4488 50.7566 39.2303 50.3966 41.0668 50.3966C42.9034 50.3966 44.6842 50.7566 46.361 51.4658C47.9818 52.151 49.4354 53.1331 50.6848 54.3825C51.9352 55.6312 52.9149 57.0858 53.6004 58.7052C54.3099 60.383 54.6693 62.1646 54.6693 64.0011C54.6693 65.8377 54.3099 67.6189 53.6004 69.2953C52.9149 70.9139 51.9352 72.37 50.6848 73.618C49.4354 74.8678 47.9818 75.8484 46.361 76.5329C44.6842 77.2424 42.9034 77.6004 41.0668 77.6004C39.2303 77.6004 37.4488 77.2424 35.773 76.5329Z" fill="#7E181C"/>
<path fill-rule="evenodd" clip-rule="evenodd" d="M37.017 54.4146C35.7789 54.9379 34.6656 55.688 33.7124 56.644C32.7564 57.6004 32.006 58.7115 31.4819 59.95C30.9399 61.2333 30.6652 62.5952 30.6652 63.9994C30.6652 65.404 30.9399 66.7659 31.4819 68.0491C32.006 69.2872 32.7564 70.3988 33.7124 71.3548C34.6656 72.3101 35.7789 73.0605 37.017 73.5838C38.3006 74.1283 39.6611 74.4023 41.066 74.4023C42.4706 74.4023 43.8328 74.1283 45.1161 73.5838C46.3553 73.0605 47.4679 72.3101 48.4232 71.3548C49.3785 70.3988 50.1271 69.2879 50.6515 68.0491C51.1935 66.7659 51.47 65.404 51.47 63.9994C51.47 62.5952 51.1935 61.2333 50.6515 59.95C50.1271 58.7115 49.3785 57.6004 48.4232 56.644C47.4679 55.688 46.3553 54.9379 45.1161 54.4146C43.8328 53.8715 42.4706 53.5975 41.066 53.5975C39.6611 53.5975 38.3006 53.8715 37.017 54.4146ZM37.1408 73.2947C35.9397 72.7876 34.8599 72.0601 33.9328 71.133C33.0064 70.2059 32.28 69.1282 31.7715 67.9267C31.2464 66.6833 30.9787 65.3627 30.9787 63.9994C30.9787 62.6378 31.2464 61.3168 31.7715 60.0724C32.28 58.8702 33.0064 57.7911 33.9328 56.8662C34.8599 55.9391 35.9397 55.2116 37.1408 54.7045C38.3838 54.1773 39.7038 53.9114 41.066 53.9114C42.4279 53.9114 43.7496 54.1773 44.9941 54.7045C46.1955 55.2116 47.2739 55.9391 48.2003 56.8662C49.1274 57.7911 49.8542 58.8702 50.3627 60.0724C50.8892 61.3168 51.1547 62.6378 51.1547 63.9994C51.1547 65.3627 50.8892 66.6833 50.3627 67.9267C49.8542 69.1282 49.1274 70.2059 48.2003 71.133C47.2739 72.0601 46.1955 72.7876 44.9941 73.2947C43.7496 73.8218 42.4279 74.0877 41.066 74.0877C39.7038 74.0877 38.3838 73.8218 37.1408 73.2947Z" fill="#7E181C"/>
<path fill-rule="evenodd" clip-rule="evenodd" d="M36.2689 76.0244L36.2491 76.0329C36.1342 75.9716 35.9914 75.9028 35.8214 75.8266C35.6549 75.7512 35.4779 75.6746 35.2921 75.5985L35.284 75.5784L35.3189 75.5015L35.339 75.4948C35.3848 75.5103 35.4285 75.5258 35.4705 75.5396C35.5456 75.5674 35.5943 75.5805 35.6193 75.5819C35.6369 75.5819 35.6563 75.5713 35.6775 75.5519C35.7117 75.5181 35.7925 75.3632 35.9191 75.0815L36.0612 74.7669C36.1049 74.6721 36.1574 74.5522 36.2195 74.4048L36.2601 74.3085C36.2795 74.2669 36.2795 74.2422 36.2622 74.2337C36.2551 74.2309 36.2248 74.2284 36.174 74.2288C36.0344 74.2295 35.9138 74.232 35.8133 74.2348L35.8027 74.2193C35.8193 74.1692 35.8348 74.1117 35.8482 74.0458L35.8538 74.037C36.1165 74.0768 36.4173 74.1071 36.7548 74.1262L36.7732 74.1569C36.7471 74.2055 36.709 74.2778 36.6589 74.373C36.6392 74.4083 36.5915 74.5067 36.515 74.6664L36.2865 75.1633C36.1257 75.5181 36.045 75.712 36.045 75.7437C36.0439 75.766 36.0517 75.785 36.0675 75.7952C36.0926 75.8178 36.1677 75.8622 36.2939 75.9275L36.3038 75.9469L36.2689 76.0244Z" fill="#7E181C"/>
<path fill-rule="evenodd" clip-rule="evenodd" d="M40.1016 76.3185C40.0868 76.4261 40.0533 76.5206 39.9976 76.5967C39.8939 76.7449 39.7469 76.8358 39.5543 76.869C39.4746 76.8841 39.3805 76.8827 39.2722 76.8686C39.0395 76.8372 38.8716 76.7346 38.7679 76.5601C38.721 76.4832 38.7059 76.3866 38.721 76.2716C38.7397 76.1323 38.805 76.0248 38.9171 75.9503C38.9538 75.9274 39.0314 75.8932 39.1495 75.8548C38.9576 75.7229 38.8744 75.561 38.8995 75.3699C38.9287 75.1544 39.0585 75.012 39.2895 74.9404C39.3903 74.9108 39.5004 74.9034 39.621 74.9192C39.7969 74.9418 39.932 75.0007 40.023 75.0938C40.1097 75.183 40.1439 75.2874 40.1288 75.4094C40.1062 75.5748 39.9898 75.6975 39.78 75.7758C39.9168 75.8495 40.0096 75.9313 40.0579 76.0205C40.1034 76.0988 40.1168 76.2007 40.1016 76.3185ZM39.7359 76.4324C39.7543 76.2995 39.7007 76.1891 39.5772 76.1055C39.4968 76.0498 39.4097 75.9969 39.3156 75.9468L39.2757 75.9274C39.1163 76.0071 39.0271 76.1242 39.0063 76.2773C38.9943 76.3654 39.0021 76.4377 39.0324 76.4969C39.0959 76.6288 39.2013 76.7061 39.3466 76.7258C39.4496 76.7392 39.5356 76.7181 39.6069 76.6652C39.6799 76.6087 39.7236 76.5319 39.7359 76.4324ZM39.8615 75.4133C39.8728 75.3223 39.8534 75.2468 39.8001 75.183C39.7469 75.1202 39.6693 75.0814 39.5667 75.0684C39.4732 75.055 39.397 75.0712 39.3353 75.1164C39.2775 75.1576 39.2458 75.2137 39.2348 75.2856C39.2264 75.3551 39.2507 75.4242 39.3082 75.4895C39.3399 75.5258 39.3882 75.5621 39.4513 75.6005C39.4732 75.6161 39.5078 75.6354 39.5529 75.6619L39.6323 75.706C39.7663 75.6503 39.8428 75.5519 39.8615 75.4133Z" fill="#7E181C"/>
<path fill-rule="evenodd" clip-rule="evenodd" d="M43.3691 75.6111C43.4029 75.8576 43.3814 76.0667 43.306 76.2409C43.2277 76.4243 43.1106 76.5787 42.9544 76.7015C42.7943 76.8284 42.6092 76.906 42.4007 76.9349L42.2664 76.8612L42.296 76.8023C42.3281 76.8072 42.3662 76.8072 42.4127 76.8013C42.5721 76.7794 42.7051 76.706 42.8109 76.5823C42.8525 76.5329 42.8895 76.4691 42.9205 76.3918C42.9706 76.2698 42.9932 76.0963 42.9875 75.8745C42.8525 76.0219 42.7749 76.0988 42.7583 76.1037C42.6938 76.1348 42.6218 76.1552 42.5439 76.1665C42.4064 76.1855 42.2893 76.1552 42.1913 76.0773C42.0848 75.9919 42.0199 75.866 41.9973 75.6982C41.9589 75.4277 42.0375 75.2137 42.2301 75.055C42.3214 74.9802 42.4392 74.933 42.5859 74.9136C42.8606 74.8744 43.0725 74.9636 43.2206 75.177C43.2947 75.2828 43.343 75.427 43.3691 75.6111ZM42.9477 75.524C42.923 75.3533 42.8779 75.2309 42.8109 75.1551C42.7439 75.0811 42.6624 75.0507 42.5679 75.0624C42.4494 75.08 42.3768 75.1477 42.3514 75.2701C42.3369 75.335 42.3348 75.4094 42.3471 75.4947C42.3679 75.6372 42.4127 75.7437 42.4811 75.8117C42.5464 75.8766 42.6268 75.9017 42.7206 75.8883C42.8429 75.8731 42.9167 75.8128 42.9445 75.7105C42.9572 75.6636 42.9572 75.6012 42.9477 75.524Z" fill="#7E181C"/>
<path fill-rule="evenodd" clip-rule="evenodd" d="M46.6348 75.0338C46.6792 75.1333 46.6982 75.231 46.6915 75.3241C46.6792 75.5043 46.5995 75.6591 46.4521 75.7874C46.3911 75.8421 46.3107 75.8904 46.2098 75.9331C45.9944 76.0258 45.799 76.0258 45.6209 75.9313C45.5402 75.8883 45.477 75.8135 45.4309 75.7106C45.3744 75.5804 45.3744 75.4528 45.4309 75.3315C45.4499 75.2927 45.4996 75.225 45.5811 75.1294C45.3469 75.1164 45.1921 75.0211 45.1156 74.8455C45.0281 74.6456 45.0655 74.4555 45.227 74.2753C45.2968 74.1967 45.3871 74.1339 45.4986 74.0835C45.6611 74.0136 45.8068 73.9928 45.9327 74.0263C46.0526 74.0574 46.1383 74.13 46.1866 74.2422C46.2546 74.3956 46.2176 74.5609 46.0783 74.7362C46.2331 74.7284 46.3555 74.7493 46.4426 74.7997C46.5219 74.8455 46.5861 74.9228 46.6348 75.0338ZM45.9602 74.3839C45.9228 74.301 45.8657 74.245 45.7881 74.2192C45.7098 74.1924 45.6241 74.1998 45.5296 74.2422C45.4446 74.2788 45.3861 74.3321 45.3571 74.4023C45.33 74.4678 45.33 74.5317 45.3593 74.5976C45.3882 74.6636 45.4446 74.708 45.5275 74.7362C45.5723 74.7489 45.6322 74.7567 45.7066 74.7567C45.7331 74.7577 45.7726 74.7577 45.8251 74.7567L45.9154 74.7517C46.0014 74.6354 46.0162 74.5119 45.9602 74.3839ZM46.3816 75.3202C46.3283 75.1975 46.2257 75.1312 46.0762 75.122C45.9778 75.1164 45.8762 75.1167 45.7701 75.1238L45.7257 75.1255C45.6312 75.2765 45.6146 75.4242 45.6766 75.5649C45.7119 75.6457 45.7574 75.7042 45.8128 75.7412C45.9365 75.8216 46.0653 75.8308 46.2003 75.7723C46.2941 75.7317 46.359 75.6675 46.3922 75.584C46.4253 75.4997 46.4211 75.4115 46.3816 75.3202Z" fill="#7E181C"/>
<path fill-rule="evenodd" clip-rule="evenodd" d="M29.1355 67.6023C29.2342 67.5652 29.3252 67.5529 29.4113 67.5667C29.4969 67.5779 29.5756 67.6129 29.6472 67.665C29.7209 67.7211 29.7847 67.7931 29.8411 67.8784C29.8972 67.9637 29.9476 68.0646 29.9921 68.181L30.0464 68.3203L30.5319 68.1362C30.5612 68.1259 30.5841 68.1108 30.6007 68.0903C30.6183 68.0713 30.6279 68.0431 30.6279 68.0075C30.6289 67.9881 30.6261 67.9577 30.6183 67.9186C30.6116 67.8784 30.6049 67.8435 30.5968 67.8184L30.6931 67.7814L31.0546 68.7286L30.9586 68.7642C30.947 68.7424 30.9322 68.712 30.9121 68.675C30.8927 68.6366 30.8772 68.6122 30.8645 68.5981C30.8395 68.5717 30.8151 68.5562 30.7922 68.5533C30.7689 68.5512 30.7425 68.5558 30.7083 68.5678L29.4864 69.0336C29.4575 69.0453 29.4349 69.059 29.4183 69.0784C29.401 69.095 29.3912 69.1232 29.3901 69.1617C29.389 69.1881 29.3922 69.2209 29.3993 69.2625C29.4056 69.3034 29.4113 69.3341 29.4169 69.3531L29.3206 69.3898L28.9574 68.4345C28.871 68.2123 28.8428 68.0304 28.8717 67.8932C28.902 67.7567 28.9891 67.6587 29.1355 67.6023ZM29.3767 68.0519C29.248 68.1016 29.1605 68.1644 29.1182 68.2409C29.0745 68.3188 29.0791 68.4222 29.1295 68.5562L29.1679 68.6581L29.9282 68.3668L29.9078 68.3153C29.8577 68.1841 29.7886 68.0949 29.7004 68.048C29.6123 68.0011 29.5047 68.0032 29.3767 68.0519Z" fill="#7E181C"/>
<path fill-rule="evenodd" clip-rule="evenodd" d="M28.6432 64.6909L28.6541 64.7928C28.5889 64.8242 28.5226 64.876 28.457 64.9451C28.3918 65.0156 28.3572 65.0802 28.3512 65.1426C28.3484 65.1673 28.3484 65.2032 28.3523 65.2501C28.3562 65.2956 28.3597 65.3355 28.3636 65.363L28.395 65.6292L29.1048 65.5464L29.0826 65.3584C29.0773 65.3115 29.0674 65.2702 29.0509 65.2325C29.0354 65.1955 29.01 65.163 28.9743 65.1348C28.9532 65.1179 28.9155 65.102 28.8622 65.0865C28.8107 65.0735 28.7652 65.0654 28.7282 65.0636L28.7166 64.9617L29.4821 64.8725L29.4948 64.9751C29.4589 64.9825 29.4148 65.0005 29.3622 65.0294C29.3101 65.0572 29.2741 65.0802 29.2554 65.102C29.2272 65.1338 29.2099 65.169 29.2032 65.2085C29.1955 65.2501 29.1955 65.2942 29.2011 65.3447L29.223 65.5333L29.7547 65.4688C29.8101 65.4631 29.8538 65.4547 29.8859 65.4427C29.9166 65.43 29.9399 65.4127 29.9554 65.3873C29.9688 65.3655 29.9755 65.3334 29.9766 65.2942C29.9776 65.2565 29.9748 65.2057 29.9667 65.1415C29.9632 65.1112 29.9596 65.0752 29.9522 65.0322C29.9476 64.9899 29.9399 64.9532 29.9321 64.9232C29.9244 64.8873 29.9138 64.8545 29.9011 64.8238C29.8884 64.7935 29.8739 64.7713 29.8545 64.7575C29.808 64.7208 29.7385 64.682 29.6451 64.6401C29.5523 64.5988 29.4843 64.5724 29.4377 64.5607L29.4271 64.4666L30.0041 64.4355L30.2054 66.1628L30.1046 66.1748C30.1 66.1504 30.0922 66.1176 30.0823 66.0764C30.0718 66.0348 30.0622 66.0059 30.0541 65.9893C30.0358 65.9568 30.0153 65.9385 29.9931 65.9286C29.9713 65.9195 29.9427 65.9166 29.9095 65.9219L28.6101 66.0729C28.5794 66.0764 28.5536 66.0831 28.5346 66.0958C28.5152 66.1085 28.4997 66.1339 28.4881 66.1709C28.4799 66.1949 28.4743 66.228 28.4704 66.2703C28.4669 66.313 28.4644 66.3433 28.4644 66.3655L28.3629 66.3779L28.1717 64.7459L28.6432 64.6909Z" fill="#7E181C"/>
<path fill-rule="evenodd" clip-rule="evenodd" d="M30.3076 61.2614L30.2039 61.9864C30.0187 62.0714 29.8646 62.149 29.7387 62.2213C29.6125 62.2929 29.4545 62.3849 29.2634 62.4967L29.2539 62.5627L29.8322 62.6466C29.8646 62.6505 29.8904 62.6494 29.914 62.6417C29.9369 62.6328 29.9574 62.6134 29.9778 62.5813C29.9867 62.5672 29.9972 62.5454 30.0078 62.5168C30.0198 62.4868 30.0293 62.4572 30.0367 62.4272L30.1379 62.4417L29.999 63.4168L29.8974 63.4023C29.8999 63.3794 29.9013 63.3462 29.9038 63.3029C29.907 63.2598 29.9052 63.2302 29.9013 63.2108C29.8936 63.1794 29.8798 63.1544 29.8604 63.1385C29.8414 63.1241 29.8142 63.1149 29.7811 63.1075L28.4795 62.9238C28.4491 62.9199 28.4223 62.9199 28.4012 62.9276C28.3786 62.934 28.3575 62.9548 28.3359 62.9865C28.3194 63.0109 28.3049 63.044 28.2922 63.0796C28.2785 63.1156 28.2689 63.1459 28.2633 63.1688L28.1624 63.1544L28.306 62.1462L28.4075 62.1617C28.4065 62.1882 28.4054 62.2213 28.4047 62.2587C28.4047 62.2971 28.4065 62.3303 28.4118 62.3567C28.4178 62.3927 28.4319 62.4174 28.4551 62.4311C28.4781 62.4463 28.5034 62.4555 28.5327 62.46L29.153 62.5482L29.1608 62.4946C29.1086 62.4195 29.0465 62.3303 28.9728 62.2287C28.8991 62.1268 28.837 62.0471 28.7894 61.9896C28.7217 61.9117 28.6681 61.8514 28.6286 61.8129C28.5881 61.7742 28.5511 61.7519 28.5193 61.7474C28.5034 61.7452 28.4904 61.76 28.4781 61.7886C28.4647 61.8189 28.4534 61.8669 28.4407 61.9311L28.3388 61.917L28.4534 61.1193L28.5539 61.1341C28.5511 61.2311 28.5581 61.3147 28.5726 61.3827C28.5881 61.4515 28.6202 61.5206 28.6681 61.594C28.7383 61.6966 28.7993 61.7823 28.8515 61.8503C28.903 61.9187 28.97 62.0055 29.0511 62.1127C29.1646 62.0457 29.3022 61.9632 29.4655 61.8694C29.628 61.7742 29.7871 61.6793 29.9422 61.5841C29.9817 61.559 30.0205 61.5308 30.0582 61.4987C30.096 61.4656 30.1284 61.4268 30.1542 61.3859C30.1669 61.3651 30.1778 61.3418 30.1862 61.3157C30.1961 61.2893 30.2014 61.2663 30.2056 61.247L30.3076 61.2614Z" fill="#7E181C"/>
<path fill-rule="evenodd" clip-rule="evenodd" d="M31.0081 59.4211L30.6241 60.3764L30.5292 60.339C30.5373 60.3157 30.5468 60.2836 30.5613 60.2388C30.574 60.1965 30.5814 60.1651 30.5814 60.1457C30.5814 60.1108 30.574 60.084 30.5585 60.066C30.5429 60.047 30.5193 60.0304 30.4886 60.0181L29.2681 59.5297C29.2403 59.5194 29.2149 59.5138 29.1888 59.517C29.1645 59.5194 29.1391 59.5314 29.1144 59.5579C29.0975 59.5738 29.0784 59.5991 29.0537 59.6344C29.0308 59.669 29.0111 59.6996 28.998 59.7243L28.9028 59.6873L29.2847 58.7306L29.3796 58.7687C29.3729 58.7941 29.3637 58.8262 29.3542 58.8646C29.3436 58.9023 29.338 58.9351 29.3362 58.9637C29.3341 59.0007 29.3418 59.0261 29.3595 59.0466C29.3775 59.0659 29.4011 59.0815 29.43 59.091L30.6494 59.5797C30.6777 59.5931 30.7055 59.5974 30.7288 59.5942C30.7549 59.5914 30.7803 59.5783 30.8043 59.5515C30.8191 59.5371 30.8378 59.5131 30.8596 59.4768C30.8818 59.4405 30.9002 59.4077 30.9122 59.3819L31.0081 59.4211Z" fill="#7E181C"/>
<path fill-rule="evenodd" clip-rule="evenodd" d="M31.3066 55.6579C31.2943 55.6787 31.2777 55.7084 31.2573 55.7514C31.2372 55.7909 31.2273 55.8332 31.228 55.878C31.228 55.9189 31.2484 55.9612 31.2865 56.0049C31.3253 56.0501 31.3898 56.104 31.4791 56.1679L32.5592 56.9437L32.4234 57.132L30.5855 57.2325L31.2922 57.7382C31.3807 57.802 31.4512 57.8443 31.5045 57.8662C31.5588 57.8866 31.6067 57.8902 31.6452 57.8792C31.6751 57.8722 31.7108 57.8524 31.7527 57.8193C31.7954 57.7847 31.8271 57.7579 31.8486 57.7361L31.9319 57.7949L31.4678 58.4431L31.3842 58.3835C31.4015 58.3542 31.4191 58.319 31.4367 58.2781C31.454 58.2375 31.4632 58.1973 31.4635 58.162C31.4618 58.119 31.4445 58.0771 31.4107 58.0383C31.3764 57.9977 31.3105 57.9427 31.2125 57.8729L30.498 57.3598C30.4624 57.3348 30.4247 57.3157 30.3859 57.3041C30.346 57.2917 30.3062 57.2903 30.2677 57.2963C30.2254 57.3041 30.1863 57.3192 30.1496 57.3422C30.1122 57.3633 30.0763 57.3922 30.0389 57.4282L29.9557 57.3679L30.3626 56.8016L31.9745 56.7145L31.4008 56.3029C31.3105 56.238 31.2372 56.1954 31.1846 56.1756C31.1314 56.1541 31.0859 56.1502 31.0453 56.1601C31.0139 56.1693 30.9783 56.1887 30.9385 56.2215C30.8979 56.2532 30.8658 56.2779 30.844 56.3008L30.7639 56.243L31.2248 55.5987L31.3066 55.6579Z" fill="#7E181C"/>
<path fill-rule="evenodd" clip-rule="evenodd" d="M34.5198 54.1304C34.5004 54.1491 34.4842 54.1677 34.4694 54.1822C34.4549 54.1977 34.4401 54.2196 34.4218 54.2471C34.4003 54.2792 34.3946 54.307 34.4024 54.3356C34.4101 54.3624 34.4218 54.3867 34.4401 54.4097L34.5748 54.5782C34.603 54.6114 34.6256 54.6396 34.6429 54.6579C34.6605 54.6791 34.6813 54.7045 34.7067 54.7341C34.6722 54.8289 34.603 54.9492 34.4994 55.0903C34.396 55.2327 34.2881 55.3494 34.1767 55.4376C34.072 55.5233 33.9605 55.5854 33.8442 55.627C33.7267 55.67 33.6079 55.6862 33.4873 55.6774C33.3684 55.67 33.251 55.6347 33.1353 55.5727C33.0204 55.5117 32.9146 55.4207 32.8176 55.3008C32.7277 55.1869 32.6617 55.0677 32.623 54.9432C32.582 54.818 32.5708 54.6918 32.5852 54.5652C32.5997 54.441 32.6413 54.3204 32.7101 54.2034C32.7802 54.0863 32.8751 53.9794 32.995 53.8825C33.0775 53.8169 33.1618 53.765 33.2471 53.7294C33.3335 53.6924 33.4083 53.6681 33.4721 53.655L33.4901 53.5478L33.5793 53.4752L34.0145 53.9967L33.9246 54.0687C33.7454 53.9502 33.5895 53.8835 33.4555 53.8634C33.3229 53.8454 33.2006 53.8796 33.0899 53.9681C32.9601 54.0729 32.9051 54.2104 32.9259 54.3814C32.9467 54.5525 33.0366 54.7376 33.1967 54.9369C33.3674 55.1491 33.5359 55.2881 33.7017 55.3512C33.8671 55.4147 34.0138 55.3963 34.1411 55.2944C34.2 55.2461 34.2455 55.195 34.2786 55.1403C34.3096 55.085 34.3287 55.0352 34.3357 54.9922L34.1012 54.6985C34.0815 54.6745 34.061 54.6562 34.0392 54.6495C34.0166 54.6385 33.9877 54.6385 33.951 54.6484C33.9228 54.6562 33.8907 54.6678 33.8558 54.6868C33.8202 54.7045 33.7898 54.721 33.7687 54.7341L33.7045 54.6562L34.456 54.05L34.5198 54.1304Z" fill="#7E181C"/>
<path fill-rule="evenodd" clip-rule="evenodd" d="M38.8399 51.3547C38.8159 51.3645 38.7821 51.3797 38.7373 51.4012C38.6936 51.4217 38.659 51.4481 38.6332 51.4788C38.6061 51.5077 38.5934 51.5518 38.5948 51.61C38.5959 51.6667 38.6124 51.75 38.6403 51.8603L38.8187 52.5258C38.8709 52.7211 38.8459 52.896 38.745 53.0505C38.6431 53.2057 38.483 53.3125 38.264 53.3721C38.0084 53.4381 37.7947 53.4349 37.6236 53.3573C37.453 53.2794 37.3405 53.138 37.2862 52.9324L37.0411 52.0176C37.034 51.9873 37.0217 51.9644 37.004 51.9467C36.9878 51.9284 36.9614 51.9154 36.9251 51.9058C36.8997 51.9009 36.87 51.9002 36.8365 51.9009C36.8027 51.9044 36.7752 51.9058 36.7554 51.909L36.729 51.8099L37.6677 51.5592L37.6942 51.6579C37.6677 51.6667 37.6409 51.677 37.6152 51.6897C37.5877 51.7017 37.5616 51.7154 37.5355 51.7323C37.5051 51.75 37.4886 51.7743 37.4833 51.8007C37.4791 51.8275 37.4812 51.8547 37.4886 51.8861L37.7294 52.7871C37.7777 52.9645 37.8507 53.084 37.9502 53.1429C38.051 53.2032 38.1759 53.2117 38.3261 53.1732C38.4717 53.133 38.5761 53.0586 38.6354 52.9468C38.6953 52.8354 38.7024 52.6933 38.6558 52.5208L38.495 51.9136C38.4657 51.8057 38.4368 51.7281 38.4076 51.677C38.3786 51.629 38.3455 51.5952 38.3088 51.5796C38.2817 51.5676 38.2393 51.5609 38.1808 51.5609C38.1226 51.5599 38.081 51.5609 38.0584 51.5638L38.0313 51.4622L38.8138 51.2534L38.8399 51.3547Z" fill="#7E181C"/>
<path fill-rule="evenodd" clip-rule="evenodd" d="M42.3426 51.2231C42.3179 51.2248 42.2833 51.2287 42.2378 51.234C42.1934 51.2414 42.1514 51.2584 42.1155 51.2837C42.0823 51.3077 42.0591 51.3479 42.0449 51.405C42.0301 51.4611 42.0227 51.5454 42.0217 51.6568L42.0033 52.9852L41.7706 52.9828L40.6386 51.5309L40.6263 52.4013C40.6249 52.5092 40.6305 52.5913 40.6439 52.6474C40.6577 52.7045 40.6809 52.7451 40.7123 52.7715C40.7352 52.7923 40.7726 52.8082 40.8245 52.8237C40.8752 52.8403 40.9154 52.8512 40.9468 52.8562L40.9458 52.9588L40.1492 52.9468L40.1499 52.8466C40.1841 52.8431 40.2218 52.8364 40.2662 52.8276C40.311 52.8184 40.3477 52.8026 40.377 52.7835C40.4115 52.7578 40.4348 52.7211 40.4485 52.6696C40.4623 52.6192 40.4697 52.5335 40.4697 52.4132L40.4824 51.5327C40.4831 51.4883 40.4775 51.4481 40.4641 51.4089C40.4514 51.3691 40.4313 51.3359 40.4031 51.3077C40.3727 51.2774 40.3382 51.2534 40.299 51.2361C40.2606 51.2196 40.2147 51.2044 40.1654 51.1945V51.0908L40.8629 51.1011L41.8559 52.3741L41.8662 51.6685C41.8672 51.557 41.8619 51.4738 41.8478 51.4177C41.8334 51.3631 41.8108 51.3222 41.7791 51.2954C41.7551 51.2763 41.717 51.258 41.669 51.2425C41.6193 51.2266 41.5795 51.2178 41.5491 51.21L41.552 51.1113L42.3443 51.1219L42.3426 51.2231Z" fill="#7E181C"/>
<path fill-rule="evenodd" clip-rule="evenodd" d="M44.3416 53.4416L43.3444 53.1849L43.3701 53.0844C43.3923 53.0893 43.4265 53.0967 43.472 53.1038C43.5165 53.1126 43.5482 53.1147 43.5676 53.1126C43.6018 53.1084 43.6265 53.0967 43.6441 53.078C43.6607 53.0615 43.6734 53.0354 43.6822 53.0047L44.0119 51.7309C44.0186 51.7027 44.0197 51.6749 44.0147 51.6502C44.0087 51.6262 43.9925 51.6026 43.9636 51.5814C43.946 51.567 43.9188 51.5518 43.8807 51.531C43.8441 51.5123 43.8113 51.4971 43.7827 51.4866L43.8081 51.3885L44.8054 51.6463L44.7793 51.7451C44.7542 51.7412 44.7218 51.7355 44.6826 51.7309C44.6435 51.7257 44.6096 51.7239 44.5814 51.7257C44.5458 51.7281 44.5197 51.7405 44.5021 51.7599C44.4859 51.7807 44.4732 51.8057 44.4654 51.8343L44.136 53.107C44.1279 53.1369 44.1279 53.1648 44.1329 53.1884C44.1389 53.2124 44.1561 53.2364 44.1844 53.2586C44.1995 53.2709 44.2281 53.2857 44.2665 53.3041C44.3053 53.3203 44.3392 53.3337 44.3663 53.3436L44.3416 53.4416Z" fill="#7E181C"/>
<path fill-rule="evenodd" clip-rule="evenodd" d="M47.9929 53.193C47.9661 53.1828 47.9393 53.1737 47.9129 53.1694C47.8854 53.1634 47.8554 53.1617 47.8237 53.1634C47.781 53.1648 47.744 53.1722 47.7147 53.1849C47.6847 53.198 47.6509 53.2163 47.6128 53.2463C47.5609 53.2876 47.4862 53.3468 47.3892 53.4272C47.2922 53.5065 47.1811 53.5936 47.0567 53.6963C46.9459 53.7865 46.825 53.8874 46.6941 53.9967C46.5626 54.1043 46.4364 54.2104 46.3161 54.3088L46.0855 54.1868C46.1176 53.8645 46.1507 53.5397 46.1825 53.2079C46.2163 52.8764 46.2389 52.6454 46.2484 52.5146C46.2516 52.4677 46.2505 52.4292 46.2435 52.4014C46.2368 52.3721 46.2223 52.3382 46.1966 52.2977C46.1786 52.2709 46.161 52.2476 46.144 52.2307C46.1271 52.2152 46.1031 52.1958 46.0721 52.1736L46.1211 52.0829L47.008 52.5534L46.9615 52.6422C46.8719 52.6073 46.8081 52.5851 46.7717 52.5816C46.7351 52.5766 46.7135 52.5826 46.7037 52.5992C46.6994 52.608 46.6963 52.6179 46.6938 52.6285C46.6913 52.6387 46.6885 52.6542 46.6843 52.675C46.673 52.7561 46.6596 52.8901 46.642 53.0802C46.6254 53.2696 46.5972 53.5587 46.5566 53.9424C46.7382 53.7904 46.8899 53.6614 47.0136 53.5552C47.1364 53.4494 47.245 53.3549 47.3377 53.2738C47.3839 53.2336 47.4252 53.1966 47.4601 53.1592C47.4957 53.1243 47.519 53.0968 47.5303 53.0739C47.5437 53.0499 47.5363 53.0195 47.508 52.9829C47.4812 52.949 47.4213 52.9 47.3282 52.8415L47.3765 52.7494L48.0416 53.101L47.9929 53.193Z" fill="#7E181C"/>
<path fill-rule="evenodd" clip-rule="evenodd" d="M50.0101 55.3491L49.9347 55.2793C49.965 55.2105 49.9816 55.1287 49.9847 55.0342C49.9879 54.9404 49.9727 54.8674 49.9371 54.817C49.9223 54.7937 49.8973 54.7673 49.8641 54.7366C49.8313 54.702 49.8031 54.6773 49.7812 54.6562L49.5841 54.476L49.1024 55.0032L49.241 55.1333C49.2759 55.164 49.3119 55.1887 49.3475 55.206C49.3835 55.2236 49.4251 55.2328 49.4709 55.2299C49.4977 55.2282 49.5362 55.2158 49.5848 55.1922C49.6335 55.1686 49.6733 55.1453 49.7033 55.1224L49.7777 55.1904L49.2576 55.7607L49.1818 55.6919C49.2033 55.6623 49.2244 55.6192 49.2456 55.5642C49.2675 55.5082 49.2787 55.4658 49.2787 55.4376C49.2787 55.3964 49.2689 55.3579 49.2488 55.3227C49.2276 55.2881 49.1983 55.2539 49.1606 55.219L49.021 55.0924L48.6602 55.4874C48.6225 55.5283 48.5964 55.5642 48.5787 55.5935C48.5636 55.6231 48.5579 55.6524 48.5636 55.6803C48.5671 55.7063 48.583 55.736 48.6066 55.7642C48.6316 55.7938 48.6669 55.8308 48.7156 55.8756C48.7381 55.8947 48.7649 55.92 48.797 55.9483C48.8288 55.9758 48.858 55.9983 48.8852 56.017C48.9141 56.0389 48.9448 56.0572 48.973 56.072C49.0037 56.0876 49.0287 56.0932 49.052 56.0921C49.1102 56.0886 49.1895 56.072 49.2861 56.0428C49.3835 56.0124 49.4536 55.9885 49.4949 55.9666L49.5637 56.0301L49.1493 56.4314L47.8668 55.2599L47.9366 55.1851C47.9549 55.2 47.9821 55.219 48.017 55.2447C48.0515 55.2687 48.0769 55.2842 48.0953 55.2906C48.1291 55.3036 48.1573 55.305 48.1796 55.298C48.2028 55.2895 48.2261 55.2722 48.2476 55.2476L49.1306 54.2831C49.1518 54.2605 49.1652 54.2372 49.1719 54.2164C49.1793 54.1939 49.174 54.1646 49.1585 54.1265C49.1493 54.1043 49.1313 54.0764 49.1063 54.0415C49.082 54.007 49.0636 53.9826 49.0499 53.9657L49.1176 53.8913L50.3303 54.9982L50.0101 55.3491Z" fill="#7E181C"/>
<path fill-rule="evenodd" clip-rule="evenodd" d="M50.9726 58.9908L50.5872 58.391C50.6785 58.1868 50.749 58.0207 50.7974 57.8923C50.8467 57.7636 50.9 57.6085 50.9575 57.4283L50.9204 57.3708L50.4496 57.6755C50.4221 57.6913 50.4028 57.7104 50.3915 57.7322C50.3795 57.7537 50.3767 57.783 50.3826 57.8193C50.3855 57.8352 50.3929 57.862 50.4066 57.8959C50.4193 57.929 50.432 57.9576 50.4426 57.9794L50.3562 58.0348L49.8184 57.2008L49.9045 57.1447C49.9203 57.1652 49.9418 57.1916 49.9686 57.2248C49.9962 57.2569 50.0163 57.2787 50.0318 57.2886C50.0614 57.3098 50.0885 57.3182 50.1118 57.3172C50.1362 57.3158 50.163 57.3052 50.1898 57.2865L51.291 56.578C51.3157 56.5604 51.3351 56.5421 51.3468 56.5227C51.3609 56.5036 51.3626 56.4733 51.3566 56.4349C51.3499 56.4045 51.3401 56.3714 51.3253 56.3344C51.3119 56.2991 51.3006 56.2705 51.2918 56.2504L51.3778 56.1954L51.942 57.0693C52.0679 57.266 52.1332 57.4342 52.1381 57.5753C52.1416 57.7157 52.0817 57.8253 51.9575 57.9068C51.8482 57.9773 51.7393 58.0027 51.6328 57.9833C51.5252 57.9632 51.412 57.9008 51.2928 57.7975C51.2597 57.8877 51.2226 57.9939 51.1814 58.1152C51.1384 58.2354 51.0971 58.3603 51.0551 58.4883C51.0407 58.5288 51.0262 58.5835 51.0107 58.6491C50.9941 58.715 50.9913 58.7655 51.0019 58.8021C51.0079 58.8226 51.0156 58.8455 51.0301 58.8744C51.0428 58.903 51.0523 58.9224 51.0583 58.9337L50.9726 58.9908ZM51.6511 57.497C51.7558 57.4297 51.8119 57.3514 51.8228 57.2611C51.8338 57.1729 51.8041 57.0756 51.7347 56.9681L51.6779 56.8813L51.0273 57.302L51.0802 57.3856C51.1489 57.4931 51.2315 57.558 51.3253 57.5802C51.4205 57.6028 51.5294 57.5753 51.6511 57.497Z" fill="#7E181C"/>
<path fill-rule="evenodd" clip-rule="evenodd" d="M51.4919 60.5131C51.4556 60.4056 51.4351 60.2998 51.4302 60.1982C51.4256 60.0963 51.4302 60.0071 51.4453 59.9309L51.3293 59.8734L51.2948 59.7684L51.9256 59.5413L51.9612 59.6488C51.9091 59.6932 51.8569 59.7444 51.8022 59.8033C51.7483 59.8629 51.7038 59.927 51.6668 59.993C51.6287 60.0603 51.6026 60.133 51.5892 60.2081C51.5758 60.2811 51.5825 60.3597 51.6104 60.4437C51.6481 60.5555 51.7038 60.6323 51.7782 60.6746C51.8526 60.7159 51.932 60.7237 52.0152 60.6951C52.0836 60.6729 52.1323 60.6277 52.1612 60.5618C52.1901 60.4955 52.2035 60.4024 52.2017 60.2853C52.2017 60.2081 52.2017 60.1376 52.2007 60.0723C52.2 60.0071 52.2017 59.9464 52.2035 59.8883C52.2113 59.7546 52.2494 59.6435 52.3181 59.5578C52.3858 59.4711 52.475 59.4076 52.5837 59.3738C52.6514 59.3498 52.7219 59.3424 52.7949 59.3512C52.8682 59.3589 52.9405 59.3847 53.0093 59.4242C53.0745 59.4633 53.1362 59.5208 53.1941 59.5949C53.2533 59.6707 53.2988 59.7574 53.332 59.8576C53.3651 59.9556 53.382 60.0512 53.3838 60.1457C53.3859 60.2409 53.3813 60.3157 53.3708 60.3746L53.4695 60.425L53.5062 60.5336L52.9095 60.7455L52.8735 60.638C52.9285 60.5914 52.985 60.5396 53.0403 60.4839C53.0953 60.4278 53.1394 60.3746 53.1712 60.322C53.2057 60.2652 53.2269 60.2056 53.2385 60.1439C53.2487 60.0812 53.2427 60.0138 53.2184 59.9422C53.1884 59.853 53.1387 59.7892 53.0703 59.7479C53.0001 59.7077 52.9285 59.6996 52.8555 59.7253C52.7861 59.7483 52.7367 59.7923 52.7096 59.8558C52.6813 59.92 52.6679 60.011 52.6697 60.1252C52.669 60.1944 52.6697 60.2642 52.6708 60.3347C52.6708 60.4056 52.6697 60.4684 52.6669 60.5248C52.6619 60.6602 52.6284 60.7727 52.5681 60.8619C52.5082 60.9529 52.4176 61.0185 52.2963 61.0576C52.2211 61.0827 52.1407 61.0901 52.0582 61.0784C51.9746 61.0661 51.8992 61.0382 51.8322 60.9931C51.7578 60.9448 51.6925 60.8813 51.6351 60.803C51.5793 60.7258 51.5307 60.6288 51.4919 60.5131Z" fill="#7E181C"/>
<path fill-rule="evenodd" clip-rule="evenodd" d="M52.0993 63.3647L51.9945 62.341L52.095 62.3304C52.0993 62.3526 52.1056 62.3864 52.1137 62.4326C52.1225 62.4781 52.1303 62.5088 52.1398 62.5243C52.1553 62.5564 52.1747 62.5772 52.198 62.5857C52.2195 62.5952 52.2474 62.598 52.2802 62.5952L53.5878 62.4602C53.6174 62.4573 53.6435 62.4489 53.6653 62.4355C53.6858 62.4217 53.7024 62.3977 53.7119 62.3635C53.7193 62.3424 53.7246 62.3096 53.7292 62.2676C53.7341 62.2256 53.7369 62.19 53.7369 62.1608L53.8396 62.1512L53.9446 63.1746L53.8438 63.1855C53.8378 63.1598 53.8311 63.127 53.8226 63.09C53.8138 63.0515 53.8032 63.018 53.7912 62.9926C53.7768 62.9605 53.7567 62.9394 53.7323 62.9309C53.7077 62.9221 53.6787 62.9175 53.6491 62.9221L52.3433 63.0568C52.3109 63.0607 52.2855 63.0678 52.2636 63.0826C52.2435 63.0963 52.228 63.1206 52.2174 63.1545C52.2114 63.1739 52.2075 63.2049 52.2036 63.2472C52.2008 63.2903 52.2001 63.3262 52.2019 63.3544L52.0993 63.3647Z" fill="#7E181C"/>
<path fill-rule="evenodd" clip-rule="evenodd" d="M53.2363 66.3613L53.2486 66.2601C53.3308 66.2435 53.419 66.2104 53.5156 66.1621C53.6133 66.1134 53.6679 66.0651 53.6806 66.0154C53.6866 65.9893 53.694 65.9537 53.7021 65.9138C53.7088 65.8733 53.7148 65.8391 53.7177 65.8115L53.7244 65.7488L52.2821 65.5774C52.2507 65.5746 52.2225 65.5756 52.1978 65.5852C52.1724 65.594 52.1509 65.6134 52.1329 65.6451C52.1241 65.6638 52.1124 65.6934 52.099 65.7347C52.0853 65.7773 52.0754 65.8115 52.0691 65.8401L51.9671 65.8285L52.0892 64.7981L52.19 64.81C52.19 64.8358 52.19 64.8721 52.189 64.9173C52.1879 64.9642 52.19 64.9945 52.1957 65.0121C52.2055 65.047 52.221 65.0735 52.2433 65.0865C52.2648 65.102 52.2926 65.1091 52.3247 65.114L53.7797 65.2865L53.7871 65.2251C53.791 65.1965 53.7931 65.1609 53.7949 65.1193C53.7981 65.0791 53.7991 65.0456 53.7991 65.0167C53.7981 64.967 53.7564 64.9056 53.6729 64.8368C53.59 64.7667 53.5121 64.7138 53.4366 64.6782L53.4479 64.5759L53.9761 64.639L53.7639 66.4244L53.2363 66.3613Z" fill="#7E181C"/>
<path fill-rule="evenodd" clip-rule="evenodd" d="M52.633 69.5724C52.6407 69.5417 52.6457 69.5124 52.6474 69.4867C52.6492 69.4592 52.6485 69.432 52.6436 69.4052C52.6379 69.3633 52.6242 69.3213 52.6048 69.2839C52.5843 69.2448 52.5603 69.2042 52.5332 69.1637C52.476 69.0822 52.4129 68.9951 52.3449 68.902C52.2754 68.8089 52.2006 68.7074 52.1181 68.598C52.0649 68.5268 52.0236 68.4796 51.9905 68.4542C51.9566 68.4309 51.8942 68.4013 51.8032 68.3667L51.5581 68.2722C51.5292 68.2613 51.4999 68.2556 51.4745 68.2592C51.4485 68.2623 51.4227 68.2757 51.3973 68.3022C51.3853 68.3145 51.3681 68.3392 51.3398 68.3812C51.3137 68.4221 51.2954 68.4542 51.2866 68.4743L51.1896 68.4376L51.562 67.4685L51.6579 67.5042C51.6498 67.5285 51.6417 67.5623 51.6297 67.6064C51.6181 67.6523 51.6121 67.6843 51.6114 67.7037C51.6131 67.7394 51.623 67.7658 51.6396 67.7863C51.6579 67.8039 51.6819 67.8215 51.7122 67.8332L52.0176 67.9495C52.0448 67.9598 52.0677 67.9682 52.0892 67.9753C52.1093 67.9813 52.128 67.9855 52.1435 67.9855C52.1611 67.9855 52.1841 67.9852 52.214 67.9802C52.2433 67.9753 52.281 67.9693 52.3276 67.9615C52.4616 67.9411 52.5892 67.9224 52.7095 67.8998C52.8308 67.8801 52.944 67.8589 53.0505 67.8395C53.1048 67.8303 53.1521 67.8155 53.1905 67.7972C53.2289 67.7806 53.2621 67.7598 53.2903 67.7376C53.3104 67.7196 53.3301 67.6981 53.3488 67.6671C53.3668 67.6392 53.382 67.6128 53.3936 67.5884L53.4888 67.6265L53.1087 68.6174L53.0128 68.5808C53.0456 68.488 53.0621 68.4235 53.0653 68.3886C53.0681 68.3526 53.0593 68.3297 53.041 68.324C53.0322 68.3202 53.0117 68.3202 52.981 68.3202C52.95 68.3223 52.8996 68.3279 52.8319 68.3357C52.7684 68.3427 52.6806 68.3565 52.567 68.3724C52.4538 68.3917 52.3198 68.4136 52.1668 68.4411C52.3526 68.6897 52.4838 68.8601 52.5582 68.9549C52.6347 69.0501 52.6834 69.1023 52.7049 69.1115C52.7331 69.1207 52.7599 69.1133 52.7881 69.0847C52.8153 69.0568 52.8453 69.0057 52.8781 68.9316L52.9729 68.9676L52.7289 69.6084L52.633 69.5724Z" fill="#7E181C"/>
<path fill-rule="evenodd" clip-rule="evenodd" d="M50.6357 64.0004C50.6357 69.2841 46.3529 73.5679 41.0686 73.5679C35.7829 73.5679 31.499 69.2841 31.499 64.0004C31.499 58.714 35.7829 54.4312 41.0686 54.4312C46.3529 54.4312 50.6357 58.714 50.6357 64.0004ZM47.0148 68.863C46.6968 68.1235 46.3364 67.4405 45.9417 66.836C45.5277 66.1985 45.0753 65.643 44.5971 65.1867C44.0837 64.6962 43.535 64.315 42.9683 64.054C42.5938 63.8816 42.2112 63.7621 41.8236 63.6944V63.25C41.8236 62.8328 41.4851 62.4933 41.0672 62.4933C40.6504 62.4933 40.3115 62.8328 40.3115 63.25V63.6944C39.9236 63.7621 39.541 63.8816 39.1679 64.054C38.6008 64.315 38.0532 64.6962 37.5373 65.1867C37.0594 65.643 36.6066 66.1985 36.1937 66.836C35.7994 67.4405 35.438 68.1235 35.121 68.863C34.9619 69.2343 35.1333 69.6642 35.5036 69.825C35.8749 69.9826 36.3044 69.8106 36.4642 69.4399C37.0369 68.1017 37.7573 66.9975 38.5472 66.2446C39.115 65.7016 39.7064 65.3489 40.3115 65.1892V66.3779C40.3115 66.787 40.011 66.9471 39.8721 67.0314C39.8277 67.0585 39.7321 67.116 39.6873 67.1439C39.4063 67.3255 39.0839 67.6065 38.7828 67.9937C38.2394 68.6906 37.8155 69.6406 37.5919 70.6692C37.5052 71.0649 37.7552 71.4525 38.1498 71.5389C38.5451 71.6242 38.933 71.3756 39.0194 70.9803C39.1985 70.1618 39.5226 69.4195 39.9352 68.8923C40.1443 68.6229 40.5717 68.1701 41.0672 68.1701C41.5634 68.1701 41.9901 68.6229 42.2002 68.8923C42.6125 69.4195 42.938 70.1618 43.116 70.9803C43.2017 71.3756 43.591 71.6242 43.9846 71.5389C44.3788 71.4525 44.6303 71.0649 44.5439 70.6692C44.32 69.6406 43.8964 68.6906 43.3527 67.9937C43.0515 67.6065 42.7285 67.3255 42.4495 67.1439C42.4033 67.116 42.3078 67.0585 42.2623 67.0314C42.1248 66.9471 41.8236 66.787 41.8236 66.3779V65.1892C42.4291 65.3489 43.0194 65.7016 43.5882 66.2446C44.3771 66.9975 45.0975 68.1017 45.6713 69.4399C45.83 69.8106 46.2595 69.9826 46.6308 69.825C47.0011 69.6642 47.1739 69.2343 47.0148 68.863ZM41.7157 56.735V56.7597C41.7157 56.7597 41.7157 59.9465 41.7157 61.0795C41.7157 61.2855 41.7157 61.4233 41.7157 61.4618C41.7157 61.7107 41.8962 62.0715 42.2866 62.1551C43.164 62.3409 44.1655 62.8533 45.0704 63.6005C45.9583 64.3326 46.7923 65.2943 47.5494 66.4619C47.7688 66.8001 48.2223 66.896 48.5608 66.6766C48.7766 66.5363 48.893 66.3025 48.893 66.0627C48.893 65.9262 48.8556 65.788 48.7749 65.6642C47.9366 64.3746 47.0032 63.3019 46.0006 62.4732C45.1102 61.7375 44.1796 61.2111 43.2278 60.9014V59.2229C44.5982 59.5991 46.0271 60.3788 47.2567 61.4322C47.5635 61.6935 48.0244 61.6582 48.2872 61.3518C48.5499 61.046 48.5129 60.5841 48.2068 60.322C47.4218 59.6489 46.5261 59.0508 45.6187 58.5941C44.8182 58.1889 44.0167 57.8952 43.2278 57.7139V56.735C43.2278 56.3182 42.8896 55.9793 42.4725 55.9793C42.0535 55.9793 41.7157 56.3182 41.7157 56.735ZM39.6637 55.9793C39.2462 55.9793 38.9076 56.3182 38.9076 56.735V57.7139C38.1188 57.8952 37.3172 58.1889 36.5164 58.5941C35.6083 59.0508 34.7137 59.6489 33.928 60.322C33.6212 60.5841 33.5856 61.046 33.8483 61.3518C34.111 61.6582 34.5712 61.6935 34.8787 61.4322C36.1084 60.3788 37.5362 59.5991 38.9076 59.2229V60.9014C37.9558 61.2111 37.0256 61.7375 36.1337 62.4732C35.1319 63.3019 34.1981 64.3746 33.3599 65.6642C33.2805 65.788 33.2414 65.9262 33.2414 66.0627C33.2414 66.3025 33.3599 66.5363 33.5753 66.6766C33.9135 66.896 34.366 66.8001 34.5849 66.4619C35.3428 65.2943 36.1764 64.3326 37.0644 63.6005C37.9692 62.8533 38.9718 62.3409 39.8488 62.1551C40.2395 62.0715 40.4187 61.7107 40.4187 61.4618C40.4187 61.4233 40.4187 61.2855 40.4187 61.0795C40.4187 59.9465 40.4187 56.7597 40.4187 56.7597V56.735C40.4187 56.3182 40.0805 55.9793 39.6637 55.9793Z" fill="#7E181C"/>
<path fill-rule="evenodd" clip-rule="evenodd" d="M64.3141 73.7101C64.3141 73.9446 64.2679 74.1523 64.1762 74.3321C64.0852 74.513 63.9586 74.6625 63.7964 74.7803C63.6366 74.8992 63.461 74.9852 63.2699 75.0402C63.0784 75.0952 62.8746 75.1231 62.6605 75.1231H62.1584V76.4804C62.1584 76.5548 62.1704 76.6194 62.1954 76.6747C62.219 76.7308 62.2695 76.7728 62.346 76.8027C62.3851 76.8175 62.4518 76.8309 62.5484 76.8433C62.645 76.8567 62.7342 76.8637 62.815 76.8655V77.0908H60.8934V76.8655C60.9432 76.8616 61.0148 76.8546 61.1093 76.8433C61.2034 76.8334 61.2697 76.8193 61.3067 76.8027C61.3688 76.7749 61.4132 76.735 61.4418 76.6821C61.4697 76.6296 61.4834 76.5622 61.4834 76.4801V73.2407C61.4834 73.1677 61.4732 73.1011 61.452 73.0415C61.4312 72.9826 61.3819 72.9381 61.305 72.9085C61.2256 72.8821 61.1456 72.8623 61.0669 72.851C60.9887 72.839 60.9217 72.8316 60.8652 72.8271V72.6017H62.9102C63.3263 72.6017 63.6649 72.7019 63.9244 72.9046C64.1843 73.1056 64.3141 73.3747 64.3141 73.7101ZM63.351 74.4725C63.4212 74.3716 63.4688 74.2669 63.4914 74.1586C63.515 74.0507 63.5266 73.9527 63.5266 73.867C63.5266 73.7474 63.5122 73.6251 63.4839 73.5013C63.4557 73.3768 63.4064 73.2689 63.3387 73.1765C63.2646 73.0781 63.168 73.0009 63.0491 72.9459C62.9296 72.8919 62.7808 72.8644 62.602 72.8644H62.1584V74.8413H62.4793C62.706 74.8413 62.8897 74.8068 63.0312 74.7355C63.1733 74.665 63.2794 74.5779 63.351 74.4725Z" fill="#1A1919"/>
<path fill-rule="evenodd" clip-rule="evenodd" d="M68.6019 75.7698L68.5162 77.0908H64.7969V76.8655C64.8593 76.8616 64.9436 76.8528 65.049 76.8387C65.1538 76.8253 65.2225 76.8108 65.2539 76.7971C65.3209 76.7646 65.3678 76.7237 65.3946 76.6726C65.4211 76.6229 65.4334 76.5576 65.4334 76.4801V73.2537C65.4334 73.1843 65.4225 73.1222 65.3992 73.0686C65.3763 73.0154 65.3273 72.9709 65.2539 72.9371C65.1972 72.9099 65.121 72.8852 65.0254 72.8648C64.9295 72.8433 64.8533 72.8316 64.7969 72.8271V72.6017H68.2644V73.6797H68.0303C67.988 73.5232 67.8966 73.3557 67.7563 73.1793C67.6159 73.0023 67.483 72.906 67.3571 72.8891C67.2918 72.8807 67.2139 72.8747 67.1233 72.8704C67.0323 72.8665 66.929 72.8644 66.813 72.8644H66.1084V74.6354H66.6123C66.7738 74.6354 66.8923 74.6202 66.9664 74.5892C67.0408 74.5592 67.1064 74.5081 67.1635 74.4362C67.2097 74.3762 67.2481 74.2947 67.2809 74.1925C67.3137 74.0913 67.3356 73.9946 67.3451 73.904H67.5796V75.6662H67.3451C67.3373 75.5643 67.3148 75.4574 67.277 75.3442C67.2411 75.231 67.203 75.1488 67.1635 75.0974C67.0982 75.0152 67.0245 74.9623 66.9413 74.9355C66.8584 74.9108 66.7491 74.8981 66.6123 74.8981H66.1084V76.2396C66.1084 76.3743 66.1183 76.4801 66.1362 76.5569C66.1556 76.6356 66.1927 76.6945 66.2477 76.734C66.302 76.7735 66.376 76.8006 66.4709 76.8108C66.5643 76.8225 66.6987 76.8281 66.8729 76.8281C66.9424 76.8281 67.0334 76.8281 67.1469 76.8281C67.2598 76.8281 67.3553 76.8246 67.4333 76.8154C67.5126 76.8077 67.5948 76.7918 67.6794 76.7699C67.7647 76.7484 67.825 76.7188 67.8607 76.6804C67.9573 76.5792 68.0581 76.4265 68.1646 76.2216C68.2701 76.0167 68.3385 75.8661 68.3678 75.7698H68.6019Z" fill="#1A1919"/>
<path fill-rule="evenodd" clip-rule="evenodd" d="M73.2238 77.0908H71.9642C71.7212 76.716 71.4518 76.3436 71.1556 75.9737C70.8583 75.6045 70.5476 75.2458 70.2229 74.8981H70.1407V76.4585C70.1407 76.528 70.1544 76.5901 70.1791 76.6447C70.2059 76.6998 70.2528 76.7431 70.3212 76.7773C70.354 76.7918 70.4161 76.8101 70.506 76.8309C70.5967 76.8521 70.6714 76.8637 70.7317 76.8655V77.0908H68.8758V76.8655C68.9244 76.8616 68.995 76.8556 69.0888 76.8472C69.1819 76.8383 69.2467 76.826 69.2848 76.8084C69.3487 76.7819 69.3952 76.7407 69.4234 76.6871C69.452 76.6335 69.4661 76.5686 69.4661 76.4924V73.2537C69.4661 73.1818 69.4545 73.1194 69.4287 73.0669C69.4047 73.0147 69.3568 72.9709 69.2848 72.9371C69.2281 72.9099 69.1607 72.8852 69.0814 72.8648C69.0031 72.8433 68.935 72.8316 68.8758 72.8271V72.6017H70.7317V72.8271C70.6735 72.8288 70.6009 72.8383 70.5138 72.8553C70.4267 72.8725 70.3625 72.8881 70.3212 72.9032C70.2507 72.9276 70.2028 72.9706 70.1777 73.0291C70.1537 73.0884 70.1407 73.1539 70.1407 73.2231V74.7761H70.2042C70.3946 74.6153 70.5804 74.4485 70.7645 74.2736C70.9479 74.0987 71.1147 73.9259 71.2646 73.7527C71.4307 73.5598 71.553 73.4064 71.6303 73.2915C71.7068 73.1758 71.7452 73.0739 71.7452 72.9854C71.7452 72.9533 71.7255 72.9276 71.6867 72.9071C71.6475 72.8877 71.6035 72.8708 71.5527 72.8577C71.4938 72.8464 71.4409 72.8383 71.3943 72.8345C71.3481 72.8316 71.3101 72.8288 71.2811 72.8271V72.6017H72.9618V72.8271C72.9551 72.8271 72.9421 72.8274 72.9213 72.8302C72.8998 72.8323 72.8754 72.8341 72.8486 72.8366C72.8194 72.8383 72.7897 72.8433 72.7608 72.8489C72.7319 72.8553 72.6931 72.8627 72.6473 72.8708C72.5736 72.8881 72.4978 72.9152 72.4195 72.9515C72.3405 72.9886 72.2763 73.0348 72.2259 73.0901C72.0093 73.3373 71.7837 73.5933 71.5477 73.8582C71.3108 74.122 71.0773 74.3635 70.8453 74.5811C71.1658 74.9433 71.4314 75.2546 71.6408 75.5152C71.8517 75.7758 72.0742 76.0548 72.3109 76.3517C72.4011 76.4652 72.4918 76.5559 72.582 76.6243C72.6723 76.6931 72.7495 76.7431 72.8151 76.7773C72.8691 76.8052 72.9382 76.826 73.0197 76.8408C73.1008 76.8556 73.1695 76.8637 73.2238 76.8655V77.0908Z" fill="#1A1919"/>
<path fill-rule="evenodd" clip-rule="evenodd" d="M75.4729 77.0908H73.448V76.8655C73.5059 76.8616 73.5873 76.8556 73.6953 76.8472C73.8028 76.8383 73.8793 76.826 73.9238 76.8084C73.9936 76.7819 74.044 76.7438 74.0754 76.6969C74.1071 76.6493 74.1237 76.5827 74.1237 76.4984V73.2474C74.1237 73.1737 74.111 73.1123 74.0884 73.063C74.0648 73.0125 74.0102 72.9709 73.9238 72.9371C73.8603 72.9117 73.7799 72.8891 73.6843 72.8665C73.5884 72.8443 73.5098 72.8316 73.448 72.8271V72.6017H75.4729V72.8271C75.407 72.8288 75.3294 72.8366 75.2381 72.851C75.1481 72.8644 75.0681 72.8814 75.0007 72.9029C74.9203 72.9276 74.8667 72.9695 74.8392 73.0256C74.8117 73.0831 74.7983 73.1458 74.7983 73.2157V76.4638C74.7983 76.5344 74.8131 76.5947 74.8442 76.6493C74.8745 76.7036 74.9267 76.7452 75.0007 76.7773C75.0455 76.7946 75.1164 76.8126 75.218 76.8327C75.3181 76.8524 75.4027 76.8637 75.4729 76.8655V77.0908Z" fill="#1A1919"/>
<path fill-rule="evenodd" clip-rule="evenodd" d="M80.4988 72.8271C80.4392 72.8288 80.3486 72.8464 80.2255 72.8771C80.1021 72.9085 80.0146 72.9424 79.9617 72.9759C79.8856 73.0281 79.8341 73.1289 79.8076 73.2791C79.7812 73.4294 79.7678 73.6194 79.7678 73.849V77.1377H79.4902L76.7689 73.4629V75.778C76.7689 76.0378 76.7855 76.2367 76.8179 76.375C76.8504 76.5157 76.9004 76.6137 76.9671 76.6726C77.0158 76.7199 77.1156 76.7629 77.2654 76.8027C77.4174 76.8429 77.5172 76.8637 77.5655 76.8655V77.0908H75.729V76.8655C75.7854 76.8616 75.8806 76.8408 76.0146 76.8045C76.1497 76.7675 76.234 76.7343 76.2678 76.7047C76.3408 76.6458 76.3916 76.5552 76.4191 76.4342C76.4466 76.3126 76.4596 76.1056 76.4596 75.8125V73.6015C76.4596 73.5045 76.4427 73.4071 76.4092 73.3105C76.375 73.2143 76.3309 73.1395 76.2742 73.0855C76.1983 73.0164 76.0957 72.9568 75.9663 72.9071C75.8376 72.8577 75.7336 72.8316 75.6535 72.8271V72.6017H76.9343L79.4585 76.0262V73.8899C79.4585 73.6286 79.4416 73.4276 79.4077 73.2869C79.3746 73.1472 79.3259 73.0534 79.2635 73.0076C79.2046 72.9671 79.1083 72.9276 78.9757 72.8898C78.8424 72.8521 78.7409 72.8316 78.6714 72.8271V72.6017H80.4988V72.8271Z" fill="#1A1919"/>
<path fill-rule="evenodd" clip-rule="evenodd" d="M85.2057 75.2912C85.1542 75.2976 85.0862 75.3074 84.9998 75.3208C84.9134 75.3346 84.8439 75.3543 84.7906 75.3801C84.7272 75.4118 84.682 75.4566 84.6549 75.5148C84.6281 75.5733 84.6157 75.6407 84.6157 75.7186V76.0681C84.6157 76.3216 84.6168 76.493 84.62 76.5815C84.6228 76.6704 84.6263 76.743 84.6312 76.8005C84.3512 76.9275 84.0723 77.0244 83.7948 77.0925C83.5162 77.1591 83.2436 77.1941 82.9763 77.1941C82.69 77.1941 82.4142 77.1398 82.1497 77.0329C81.8838 76.9246 81.6521 76.7716 81.4554 76.5731C81.2551 76.3731 81.0957 76.1287 80.9779 75.8424C80.8594 75.5546 80.8009 75.2341 80.8009 74.8797C80.8009 74.5373 80.8569 74.2202 80.9698 73.9279C81.0826 73.6359 81.241 73.3817 81.4472 73.1669C81.6472 72.9553 81.8859 72.7913 82.1621 72.6743C82.4392 72.5575 82.7354 72.4983 83.0497 72.4983C83.3028 72.4983 83.5218 72.5297 83.7098 72.5935C83.8963 72.6556 84.0621 72.7303 84.2045 72.8167L84.334 72.6016H84.5868L84.6157 74.1666H84.3534C84.3086 73.9928 84.2539 73.8218 84.189 73.6528C84.1238 73.485 84.0399 73.3337 83.9372 73.1993C83.8346 73.0664 83.7091 72.9595 83.561 72.8806C83.4132 72.8005 83.2355 72.7607 83.0306 72.7607C82.8063 72.7607 82.6053 72.8069 82.429 72.8996C82.2527 72.9909 82.0989 73.1278 81.9695 73.3097C81.8415 73.485 81.7424 73.7043 81.6736 73.9663C81.6042 74.2287 81.5689 74.5214 81.5689 74.8448C81.5689 75.1304 81.6031 75.3991 81.6722 75.6527C81.7406 75.9052 81.8404 76.1227 81.9709 76.3068C82.1014 76.4944 82.2647 76.6429 82.4604 76.7504C82.6568 76.8591 82.8793 76.9127 83.1279 76.9127C83.3134 76.9127 83.482 76.8841 83.6347 76.8266C83.7874 76.7698 83.8953 76.7102 83.9591 76.6461C83.975 76.536 83.9845 76.4253 83.9859 76.3139C83.9873 76.201 83.9877 76.1055 83.9877 76.0275V75.7803C83.9877 75.6911 83.9746 75.6125 83.9506 75.5437C83.9263 75.4749 83.8769 75.4249 83.8004 75.3924C83.731 75.3607 83.6364 75.3374 83.5173 75.3208C83.3984 75.306 83.3046 75.2958 83.2376 75.2912V75.0666H85.2057V75.2912Z" fill="#1A1919"/>
<path fill-rule="evenodd" clip-rule="evenodd" d="M91.6618 72.8271C91.6019 72.8288 91.5151 72.8412 91.4009 72.8648C91.2866 72.8877 91.1928 72.9223 91.1212 72.9685C91.0489 73.0171 90.9992 73.1169 90.9721 73.2689C90.9446 73.4209 90.9301 73.6064 90.9301 73.8257V75.7755C90.9301 76.023 90.8793 76.2396 90.7753 76.4226C90.6723 76.606 90.5358 76.7565 90.3676 76.8747C90.2012 76.9886 90.0249 77.0704 89.8404 77.1194C89.6564 77.1684 89.48 77.1942 89.3111 77.1942C89.041 77.1942 88.8005 77.1585 88.5896 77.088C88.3794 77.0175 88.2014 76.9219 88.0589 76.8013C87.9171 76.6818 87.8106 76.5439 87.739 76.3894C87.6675 76.2346 87.6318 76.0731 87.6318 75.9042V73.253C87.6318 73.1797 87.6195 73.118 87.5948 73.0683C87.5715 73.0185 87.5218 72.973 87.4474 72.9307C87.3949 72.9018 87.3265 72.8771 87.2439 72.8606C87.1618 72.8422 87.0948 72.8316 87.0412 72.8271V72.6017H88.8964V72.8271C88.8386 72.8288 88.7656 72.8383 88.6774 72.8553C88.5893 72.8725 88.5247 72.8881 88.4835 72.9029C88.4129 72.9276 88.3657 72.9699 88.3417 73.0284C88.3188 73.087 88.3064 73.1518 88.3064 73.2213V75.6976C88.3064 75.8171 88.3195 75.944 88.3459 76.0749C88.372 76.2064 88.4249 76.3291 88.5025 76.4434C88.5854 76.5583 88.6982 76.6539 88.84 76.7276C88.9814 76.8013 89.1761 76.8376 89.4247 76.8376C89.6567 76.8376 89.8524 76.8013 90.0097 76.7276C90.1677 76.6539 90.2918 76.5566 90.3832 76.4363C90.4699 76.3235 90.5309 76.2039 90.5672 76.0805C90.6028 75.956 90.6212 75.8305 90.6212 75.7035V73.8659C90.6212 73.6318 90.6039 73.441 90.5708 73.2922C90.5362 73.1444 90.4868 73.0464 90.4216 73.0006C90.3472 72.9484 90.2453 72.9068 90.118 72.8771C89.99 72.8482 89.8923 72.8316 89.8249 72.8271V72.6017H91.6618V72.8271Z" fill="#1A1919"/>
<path fill-rule="evenodd" clip-rule="evenodd" d="M96.714 72.8271C96.6548 72.8288 96.5638 72.8464 96.4407 72.8771C96.3176 72.9085 96.2298 72.9424 96.1769 72.9759C96.1011 73.0281 96.0489 73.1289 96.0225 73.2791C95.9964 73.4294 95.9833 73.6194 95.9833 73.849V77.1377H95.7058L92.9841 73.4629V75.778C92.9841 76.0378 93.001 76.2367 93.0331 76.375C93.0656 76.5157 93.1153 76.6137 93.1834 76.6726C93.2306 76.7199 93.3304 76.7629 93.481 76.8027C93.6326 76.8429 93.7324 76.8637 93.7811 76.8655V77.0908H91.9442V76.8655C92.0006 76.8616 92.0962 76.8408 92.2305 76.8045C92.3649 76.7675 92.4485 76.7343 92.4823 76.7047C92.556 76.6458 92.6071 76.5552 92.6339 76.4342C92.66 76.3126 92.6752 76.1056 92.6752 75.8125V73.6015C92.6752 73.5045 92.6576 73.4071 92.6244 73.3105C92.5913 73.2143 92.5461 73.1395 92.4894 73.0855C92.4135 73.0164 92.3116 72.9568 92.1826 72.9071C92.0531 72.8577 91.9495 72.8316 91.8687 72.8271V72.6017H93.1492L95.6741 76.0262V73.8899C95.6741 73.6286 95.6568 73.4276 95.6236 73.2869C95.5898 73.1472 95.5418 73.0534 95.4787 73.0076C95.4198 72.9671 95.3239 72.9276 95.1906 72.8898C95.0569 72.8521 94.9568 72.8316 94.8866 72.8271V72.6017H96.714V72.8271Z" fill="#1A1919"/>
<path fill-rule="evenodd" clip-rule="evenodd" d="M98.9106 77.0908H96.8865V76.8655C96.9429 76.8616 97.0254 76.8556 97.1333 76.8472C97.242 76.8383 97.3167 76.826 97.3615 76.8084C97.4317 76.7819 97.4814 76.7438 97.5138 76.6969C97.5452 76.6493 97.5614 76.5827 97.5614 76.4984V73.2474C97.5614 73.1737 97.5498 73.1123 97.5269 73.063C97.5026 73.0125 97.4479 72.9709 97.3615 72.9371C97.2984 72.9117 97.2183 72.8891 97.1231 72.8665C97.0261 72.8443 96.9478 72.8316 96.8865 72.8271V72.6017H98.9106V72.8271C98.8451 72.8288 98.7668 72.8366 98.6761 72.851C98.5852 72.8644 98.5065 72.8814 98.4388 72.9029C98.3584 72.9276 98.3048 72.9695 98.277 73.0256C98.2487 73.0831 98.236 73.1458 98.236 73.2157V76.4638C98.236 76.5344 98.2512 76.5947 98.2812 76.6493C98.3126 76.7036 98.3644 76.7452 98.4388 76.7773C98.4832 76.7946 98.5552 76.8126 98.655 76.8327C98.7555 76.8524 98.8412 76.8637 98.9106 76.8655V77.0908Z" fill="#1A1919"/>
<path fill-rule="evenodd" clip-rule="evenodd" d="M103.651 72.8271C103.596 72.8288 103.53 72.8412 103.452 72.863C103.373 72.8852 103.309 72.9117 103.259 72.9438C103.186 72.9882 103.129 73.045 103.085 73.1137C103.043 73.1843 103 73.2668 102.958 73.3613C102.816 73.6967 102.605 74.2189 102.321 74.9281C102.039 75.6387 101.748 76.3771 101.448 77.1473H101.185C100.882 76.3312 100.588 75.5452 100.305 74.7874C100.023 74.0306 99.8304 73.5189 99.7292 73.2537C99.7042 73.1882 99.671 73.131 99.6277 73.081C99.586 73.0316 99.5303 72.984 99.4605 72.9406C99.4041 72.9046 99.3406 72.8771 99.2701 72.8606C99.2013 72.8422 99.1364 72.8316 99.0782 72.8271V72.6017H100.932V72.8271C100.775 72.8345 100.642 72.851 100.533 72.874C100.425 72.8972 100.371 72.9381 100.371 72.997C100.371 73.021 100.374 73.0485 100.383 73.0795C100.391 73.112 100.399 73.137 100.405 73.1557C100.482 73.3624 100.609 73.6991 100.784 74.166C100.96 74.634 101.209 75.3001 101.532 76.163C101.692 75.772 101.877 75.3111 102.086 74.7796C102.295 74.2475 102.435 73.8825 102.507 73.684C102.576 73.4918 102.617 73.3592 102.629 73.2851C102.64 73.2118 102.646 73.1515 102.646 73.1049C102.646 73.0559 102.624 73.0161 102.581 72.9829C102.538 72.9505 102.48 72.9223 102.409 72.9C102.339 72.8775 102.269 72.8627 102.197 72.8521C102.125 72.8412 102.052 72.833 101.979 72.8271V72.6017H103.651V72.8271Z" fill="#1A1919"/>
<path fill-rule="evenodd" clip-rule="evenodd" d="M107.594 75.7698L107.509 77.0908H103.789V76.8655C103.852 76.8616 103.937 76.8528 104.042 76.8387C104.146 76.8253 104.215 76.8108 104.246 76.7971C104.314 76.7646 104.36 76.7237 104.387 76.6726C104.413 76.6229 104.426 76.5576 104.426 76.4801V73.2537C104.426 73.1843 104.415 73.1222 104.392 73.0686C104.368 73.0154 104.32 72.9709 104.246 72.9371C104.19 72.9099 104.113 72.8852 104.018 72.8648C103.922 72.8433 103.846 72.8316 103.789 72.8271V72.6017H107.257V73.6797H107.022C106.98 73.5232 106.889 73.3557 106.749 73.1793C106.608 73.0023 106.475 72.906 106.349 72.8891C106.284 72.8807 106.205 72.8747 106.116 72.8704C106.025 72.8665 105.921 72.8644 105.806 72.8644H105.101V74.6354H105.604C105.766 74.6354 105.884 74.6202 105.959 74.5892C106.033 74.5592 106.099 74.5081 106.156 74.4362C106.201 74.3762 106.241 74.2947 106.273 74.1925C106.306 74.0913 106.328 73.9946 106.339 73.904H106.572V75.6662H106.339C106.33 75.5643 106.307 75.4574 106.27 75.3442C106.234 75.231 106.194 75.1488 106.156 75.0974C106.09 75.0152 106.016 74.9623 105.933 74.9355C105.851 74.9108 105.741 74.8981 105.604 74.8981H105.101V76.2396C105.101 76.3743 105.11 76.4801 105.13 76.5569C105.148 76.6356 105.185 76.6945 105.24 76.734C105.294 76.7735 105.368 76.8006 105.463 76.8108C105.558 76.8225 105.691 76.8281 105.866 76.8281C105.934 76.8281 106.025 76.8281 106.139 76.8281C106.252 76.8281 106.348 76.8246 106.425 76.8154C106.505 76.8077 106.587 76.7918 106.672 76.7699C106.757 76.7484 106.817 76.7188 106.853 76.6804C106.949 76.5792 107.051 76.4265 107.157 76.2216C107.262 76.0167 107.33 75.8661 107.36 75.7698H107.594Z" fill="#1A1919"/>
<path fill-rule="evenodd" clip-rule="evenodd" d="M112.434 77.0908H111.218C110.951 76.6733 110.71 76.3122 110.495 76.0079C110.279 75.7035 110.046 75.39 109.793 75.0667H109.333V76.4822C109.333 76.5552 109.344 76.6197 109.367 76.6758C109.39 76.7311 109.439 76.7735 109.515 76.8034C109.552 76.8175 109.618 76.8309 109.712 76.844C109.806 76.8567 109.887 76.8637 109.951 76.8655V77.0908H108.067V76.8655C108.118 76.8616 108.189 76.8546 108.283 76.8433C108.378 76.8334 108.443 76.8193 108.481 76.8027C108.543 76.7749 108.587 76.735 108.615 76.6821C108.643 76.6296 108.658 76.5622 108.658 76.4801V73.2347C108.658 73.161 108.647 73.0961 108.627 73.0386C108.606 72.9815 108.557 72.9381 108.481 72.9085C108.429 72.8898 108.362 72.8725 108.279 72.8574C108.196 72.8412 108.125 72.8316 108.067 72.8271V72.6017H110.138C110.327 72.6017 110.505 72.6211 110.671 72.6603C110.838 72.6994 110.989 72.7625 111.124 72.8489C111.254 72.9336 111.358 73.0443 111.436 73.1804C111.514 73.3162 111.554 73.4801 111.554 73.6734C111.554 73.8469 111.527 73.9989 111.474 74.1318C111.421 74.2655 111.343 74.3808 111.239 74.4774C111.143 74.5684 111.029 74.6474 110.897 74.714C110.761 74.7803 110.615 74.8368 110.454 74.8837C110.676 75.1763 110.86 75.4228 111.008 75.6235C111.154 75.8234 111.333 76.0671 111.548 76.3531C111.641 76.4794 111.725 76.5728 111.799 76.6324C111.874 76.692 111.949 76.7407 112.023 76.778C112.078 76.8059 112.146 76.8264 112.228 76.8408C112.311 76.8556 112.38 76.8637 112.434 76.8655V77.0908ZM110.775 73.7474C110.775 73.4763 110.697 73.2615 110.54 73.1028C110.382 72.9438 110.161 72.8644 109.874 72.8644H109.333V74.7853H109.749C110.042 74.7853 110.288 74.6925 110.482 74.5067C110.678 74.3198 110.775 74.0673 110.775 73.7474Z" fill="#1A1919"/>
<path fill-rule="evenodd" clip-rule="evenodd" d="M115.4 75.037C115.494 75.1424 115.564 75.2577 115.61 75.384C115.654 75.5098 115.677 75.6562 115.677 75.8233C115.677 76.2211 115.531 76.5491 115.238 76.8069C114.946 77.065 114.582 77.1941 114.148 77.1941C113.948 77.1941 113.748 77.1606 113.548 77.0932C113.347 77.0259 113.174 76.9483 113.03 76.8591L112.894 77.0907H112.641L112.594 75.5543H112.847C112.9 75.7451 112.962 75.9171 113.033 76.0713C113.104 76.2247 113.197 76.3685 113.313 76.5015C113.423 76.627 113.552 76.7275 113.699 76.8012C113.846 76.8756 114.017 76.9127 114.211 76.9127C114.357 76.9127 114.485 76.8936 114.594 76.8555C114.703 76.8174 114.791 76.7642 114.859 76.6944C114.926 76.6242 114.977 76.5424 115.009 76.4486C115.042 76.3548 115.059 76.2462 115.059 76.1234C115.059 75.9443 115.008 75.7764 114.907 75.6209C114.805 75.4654 114.655 75.348 114.455 75.2679C114.318 75.2133 114.16 75.1526 113.984 75.0863C113.806 75.0204 113.654 74.9573 113.525 74.8991C113.272 74.7848 113.075 74.6353 112.935 74.4505C112.795 74.2654 112.725 74.0242 112.725 73.7255C112.725 73.5541 112.76 73.3944 112.83 73.2466C112.898 73.0985 112.997 72.967 113.126 72.8509C113.248 72.7406 113.391 72.6552 113.559 72.5928C113.725 72.5297 113.898 72.4983 114.079 72.4983C114.285 72.4983 114.469 72.5311 114.633 72.5946C114.795 72.658 114.944 72.7321 115.079 72.8167L115.209 72.6016H115.461L115.49 74.0919H115.236C115.191 73.9212 115.137 73.7579 115.08 73.6028C115.022 73.4472 114.947 73.3062 114.854 73.1803C114.763 73.0586 114.652 72.961 114.521 72.889C114.391 72.8164 114.23 72.7793 114.04 72.7793C113.84 72.7793 113.669 72.8442 113.528 72.9726C113.386 73.101 113.316 73.2586 113.316 73.4437C113.316 73.6373 113.36 73.7985 113.451 73.9258C113.542 74.0531 113.673 74.1578 113.846 74.2403C113.999 74.314 114.151 74.3782 114.299 74.4322C114.447 74.4858 114.591 74.5436 114.73 74.6057C114.856 74.6607 114.977 74.7217 115.094 74.7915C115.212 74.8617 115.313 74.9432 115.4 75.037Z" fill="#1A1919"/>
<path fill-rule="evenodd" clip-rule="evenodd" d="M118.196 77.0908H116.172V76.8655C116.228 76.8616 116.311 76.8556 116.419 76.8472C116.526 76.8383 116.602 76.826 116.647 76.8084C116.717 76.7819 116.767 76.7438 116.799 76.6969C116.83 76.6493 116.846 76.5827 116.846 76.4984V73.2474C116.846 73.1737 116.834 73.1123 116.812 73.063C116.788 73.0125 116.733 72.9709 116.647 72.9371C116.583 72.9117 116.504 72.8891 116.408 72.8665C116.312 72.8443 116.233 72.8316 116.172 72.8271V72.6017H118.196V72.8271C118.13 72.8288 118.053 72.8366 117.961 72.851C117.871 72.8644 117.791 72.8814 117.724 72.9029C117.644 72.9276 117.59 72.9695 117.562 73.0256C117.534 73.0831 117.521 73.1458 117.521 73.2157V76.4638C117.521 76.5344 117.536 76.5947 117.566 76.6493C117.597 76.7036 117.65 76.7452 117.724 76.7773C117.769 76.7946 117.84 76.8126 117.941 76.8327C118.04 76.8524 118.126 76.8637 118.196 76.8655V77.0908Z" fill="#1A1919"/>
<path fill-rule="evenodd" clip-rule="evenodd" d="M122.417 73.8204H122.2C122.182 73.7443 122.147 73.6529 122.097 73.5486C122.048 73.4438 121.991 73.3447 121.93 73.252C121.866 73.1554 121.797 73.0693 121.722 72.996C121.647 72.923 121.574 72.8814 121.504 72.8708C121.439 72.8627 121.356 72.8563 121.255 72.8521C121.156 72.8482 121.064 72.8461 120.98 72.8461H120.795V76.4384C120.795 76.5076 120.81 76.5721 120.839 76.6306C120.869 76.6885 120.921 76.7333 120.994 76.7646C121.032 76.7795 121.112 76.8006 121.233 76.8246C121.354 76.8496 121.449 76.8637 121.516 76.8655V77.0908H119.398V76.8655C119.458 76.8616 119.547 76.8528 119.668 76.8405C119.788 76.8281 119.872 76.8126 119.919 76.7932C119.988 76.7653 120.039 76.7266 120.071 76.6747C120.104 76.6229 120.12 76.5534 120.12 76.467V72.8461H119.937C119.871 72.8461 119.79 72.8475 119.694 72.85C119.597 72.8535 119.504 72.8606 119.415 72.8708C119.346 72.8796 119.273 72.9212 119.199 72.996C119.125 73.0711 119.055 73.1564 118.992 73.252C118.929 73.3472 118.873 73.4488 118.825 73.5546C118.776 73.6621 118.743 73.7503 118.724 73.8204H118.499V72.6017H122.417V73.8204Z" fill="#1A1919"/>
<path fill-rule="evenodd" clip-rule="evenodd" d="M127 72.8271C126.965 72.8288 126.907 72.8433 126.83 72.8694C126.751 72.8955 126.696 72.9216 126.662 72.9466C126.58 72.997 126.524 73.0369 126.495 73.064C126.465 73.0908 126.408 73.1628 126.323 73.2791C126.159 73.5108 126.008 73.7464 125.868 73.9844C125.729 74.2225 125.555 74.5254 125.347 74.8925C125.269 75.0272 125.217 75.1358 125.192 75.218C125.166 75.3001 125.154 75.4193 125.154 75.5759V76.4328C125.154 76.5079 125.169 76.5742 125.2 76.6306C125.23 76.6864 125.282 76.7311 125.356 76.7646C125.399 76.7819 125.478 76.8013 125.592 76.8264C125.705 76.85 125.797 76.8637 125.866 76.8655V77.0908H123.767V76.8655C123.825 76.8616 123.914 76.8539 124.033 76.8426C124.151 76.8306 124.233 76.8151 124.28 76.7971C124.355 76.7646 124.408 76.7223 124.437 76.6666C124.465 76.6112 124.479 76.5439 124.479 76.4638V75.3731C124.479 75.34 124.458 75.2769 124.417 75.1883C124.377 75.0977 124.327 74.9986 124.271 74.8897C124.145 74.6442 124.004 74.3801 123.85 74.0948C123.697 73.8099 123.564 73.5672 123.45 73.3641C123.38 73.2446 123.319 73.1543 123.265 73.0926C123.211 73.0312 123.15 72.9776 123.08 72.9307C123.029 72.9001 122.97 72.8757 122.898 72.8577C122.828 72.8412 122.764 72.8316 122.708 72.8271V72.6017H124.622V72.8271C124.408 72.8316 124.255 72.8464 124.167 72.8708C124.078 72.8965 124.034 72.9318 124.034 72.979C124.034 72.9914 124.04 73.0132 124.053 73.045C124.066 73.0767 124.084 73.1166 124.106 73.1652C124.134 73.2195 124.166 73.2827 124.203 73.3532C124.241 73.4244 124.277 73.4918 124.31 73.5574C124.409 73.7446 124.508 73.9319 124.611 74.1195C124.714 74.305 124.847 74.5483 125.013 74.8473C125.346 74.3134 125.599 73.8966 125.773 73.5983C125.948 73.2999 126.035 73.1208 126.035 73.063C126.035 73.014 126.017 72.9759 125.981 72.9459C125.946 72.917 125.899 72.8941 125.84 72.8771C125.778 72.8606 125.712 72.8493 125.64 72.8443C125.568 72.839 125.503 72.833 125.441 72.8271V72.6017H127V72.8271Z" fill="#1A1919"/>
<path fill-rule="evenodd" clip-rule="evenodd" d="M75.8106 63.5674C75.6822 63.5801 75.5535 63.5931 75.4248 63.6058C75.0669 63.7123 74.6761 63.8576 74.2678 63.9916C73.8502 64.1284 73.2483 64.3573 72.8036 64.03C72.7722 63.9905 72.7891 64.0202 72.7645 63.9528C73.1629 63.5275 73.1541 63.2733 73.767 62.989C73.7762 62.5676 73.9395 62.0655 73.7289 61.7939C73.7737 61.1613 74.5188 61.4685 75.0778 61.3309C75.4209 61.2477 75.8391 61.1215 76.1191 60.9462C76.4478 60.7399 76.7793 60.2878 76.9288 59.9052C76.9898 59.7479 76.9189 59.4267 77.0064 59.2884C77.0064 59.1851 77.0064 59.0825 77.0064 58.9795C76.9768 58.9217 76.0218 58.6078 75.8878 58.5176C75.7894 58.4509 75.544 58.246 75.5017 58.1321C75.465 58.0302 75.5084 57.929 75.4639 57.8613C75.4167 57.7654 75.3761 57.7738 75.3091 57.7072C75.1166 57.7252 75.0605 57.7901 74.9759 57.8666C74.9498 57.8902 74.9015 57.9089 74.8852 57.9389C74.8687 57.9688 74.8852 58.0038 74.8852 58.0369C74.8852 58.3511 74.8852 58.6653 74.8852 58.9795C74.7921 59.1865 74.3746 59.3085 74.1916 59.4422C74.0371 59.6093 73.8827 59.7765 73.7289 59.9436C73.4994 59.9235 73.4817 59.8435 73.3435 59.7507C73.0095 58.1907 72.8657 56.8908 71.801 56.0886C71.545 55.8953 71.3479 55.5106 71.0302 55.3946C70.9177 55.7031 70.772 56.0237 70.6849 56.3361C70.6645 56.4091 70.6945 56.4719 70.6754 56.5459C70.486 57.2615 70.3369 57.9914 70.1436 58.7482C70.0978 58.927 69.8774 59.8996 69.9123 60.0593C70.0787 60.8284 70.2942 61.807 70.4903 62.5267C70.5816 62.8624 70.5107 63.1047 70.6059 63.4133C70.7791 63.9733 71.2763 65.4187 71.6854 65.6878C72.1452 65.9904 72.9013 66.1328 73.4972 65.8807C73.6796 65.8031 73.839 65.5425 73.9596 65.4949C74.1528 65.4949 74.3457 65.4949 74.5382 65.4949C75.1039 65.3405 75.6695 65.1871 76.2348 65.0326C76.4372 64.9487 76.9383 64.6786 77.0822 64.5311C77.2871 64.3227 77.3026 63.9116 77.5456 63.6834C77.5505 63.4059 77.5226 63.292 77.4295 63.1435C76.7162 63.1597 76.3007 63.3829 75.8106 63.5674Z" fill="#7E181C"/>
<path fill-rule="evenodd" clip-rule="evenodd" d="M67.2906 58.5175C67.2863 58.0026 67.3008 57.4158 67.213 57.0131C67.1403 56.6799 67.2923 56.2504 67.1749 55.9728C66.8208 55.1399 65.3101 54.4001 64.4758 53.9681C64.1549 53.8016 64.152 53.4804 63.7049 53.3897C63.6044 53.37 63.3946 53.5943 63.3967 53.6599C63.3752 54.1923 63.779 54.399 64.0519 54.7389C64.2183 54.9459 64.3178 55.1843 64.4758 55.3945C64.724 55.7228 65.1398 56.0084 65.2854 56.4351C65.5214 57.1235 65.5295 58.8613 65.3627 59.635C65.3627 59.8924 65.3627 60.1488 65.3627 60.4059C65.3369 60.7017 65.3115 60.9969 65.2854 61.2935C65.0696 61.212 64.9293 60.998 64.7071 60.907C64.54 60.8819 64.3728 60.8559 64.2064 60.8305C64.0508 60.7342 63.9496 60.5547 63.744 60.4828C63.5113 60.4024 63.2972 60.4926 63.0497 60.4059C62.782 60.3124 62.6985 60.0977 62.2788 60.0977C62.1945 60.11 62.0334 60.2384 62.0475 60.2902C62.1036 60.6171 62.3776 60.779 62.4717 61.0614C62.4717 61.1644 62.4717 61.2674 62.4717 61.3697C62.5338 61.613 62.6043 61.9462 62.6639 62.2178C62.7612 62.6586 62.4774 62.9107 62.3938 63.1819C62.0545 64.2853 61.8578 65.3982 60.9945 65.9702C60.9614 65.9921 60.9363 66.0146 60.9141 66.0541C60.894 66.088 60.8894 66.1828 60.8884 66.2047C60.8661 66.8391 60.7695 68.0762 61.3535 68.2705C61.3743 68.2864 61.411 68.3093 61.411 68.3093C61.472 68.3371 61.9914 68.3343 62.0859 68.3093C62.2929 68.2031 62.6646 67.6653 62.8949 67.4996C63.2429 67.251 63.6231 67.0881 63.975 66.844C64.0392 66.7672 64.1034 66.6907 64.1672 66.6131C64.5216 66.35 64.8658 66.076 65.1694 65.7646C65.2089 65.7452 65.2618 65.7396 65.2854 65.7646C65.3147 65.8933 65.3694 66.1828 65.2854 66.3045C65.278 66.9675 65.2071 67.4407 65.4783 67.8466C65.6286 67.8515 65.8518 67.8674 65.9406 67.8082C66.2432 67.6953 66.391 67.1854 66.519 66.8825C66.8494 66.1035 66.928 65.1863 67.1361 64.2617C67.1491 63.9401 67.1615 63.6191 67.1749 63.2975C67.365 62.43 67.3286 61.3651 67.3286 60.3674C67.3417 59.9693 67.3551 59.5705 67.3674 59.1723C67.3276 58.9833 67.292 58.7481 67.2906 58.5175ZM65.2854 64.1072C65.2854 64.2736 65.2854 64.4415 65.2854 64.608C65.2131 64.7673 64.8559 64.8943 64.7071 64.9934C64.5784 65.0808 64.4296 65.2371 64.2832 65.302C64.0113 65.4229 63.7828 65.4275 63.5508 65.5724C63.3413 65.7029 63.1079 65.8979 62.8949 66.0344C62.7373 66.1363 62.1854 66.3574 61.9315 66.1892C61.893 66.1758 61.8542 66.1631 61.8158 66.1504C61.8444 65.7361 62.1441 65.546 62.3169 65.2635C62.6551 64.7109 63.0973 64.2567 63.4351 63.7221C63.4609 63.6315 63.487 63.5419 63.512 63.4516C63.6365 63.2619 63.8858 63.1043 63.975 62.8737C64.6503 62.8874 65.0069 62.5471 65.1317 62.0249C65.2311 62.0326 65.2618 62.0425 65.3242 62.0633C65.333 62.4946 65.3387 62.9932 65.3242 63.4132C65.3172 63.6206 65.3729 63.9686 65.2854 64.1072Z" fill="#7E181C"/>
<path fill-rule="evenodd" clip-rule="evenodd" d="M116.598 56.8594C116.721 57.0245 116.941 57.1542 117.061 57.3218C117.465 57.8867 117.571 59.0508 117.794 59.7895C118.486 59.7828 118.781 59.1819 119.104 58.787C119.103 57.8306 118.124 56.3608 117.562 55.9729C117.237 55.749 116.851 55.6523 116.521 55.433C116.174 55.202 115.981 54.8702 115.557 54.7006C115.499 54.6829 115.372 54.8173 115.364 54.8547C115.364 55.0603 115.364 55.2655 115.364 55.4718C115.505 55.5875 115.648 55.7031 115.788 55.8184C116.062 56.182 116.328 56.4969 116.598 56.8594Z" fill="#7E181C"/>
<path fill-rule="evenodd" clip-rule="evenodd" d="M124.847 57.9389C125.446 57.1634 126.248 56.4475 126.621 55.4718C126.728 55.1925 127.191 54.5126 126.891 54.1222C126.758 53.9237 126.385 54.0422 126.119 53.9681C126 53.935 125.912 53.8052 125.811 53.7756C125.635 53.7216 125.453 53.8578 125.349 53.8909C124.862 54.0461 124.443 54.0954 123.999 54.276C123.802 54.3564 123.239 54.697 122.997 54.5461C122.958 54.5341 122.919 54.5207 122.881 54.508C122.923 53.7671 123.443 53.3313 123.691 52.7346C123.763 52.5614 123.983 52.1012 123.845 51.8865C123.824 51.5413 123.466 51.3029 123.266 51.1153C123.203 51.0627 122.914 51.1593 122.919 51.2697C122.934 52.2508 122.521 53.3143 121.956 53.698C121.775 53.82 121.619 53.7671 121.378 53.8528C120.996 53.9858 120.593 54.3726 120.144 54.045C119.914 54.0454 119.883 54.082 119.758 54.1607C119.8 54.5447 120.026 54.8667 120.337 54.97C120.415 55.0134 120.691 54.9749 120.877 54.97C120.869 55.2715 120.632 55.5314 120.452 55.664C120.452 55.793 120.464 55.8928 120.491 55.9729C120.907 56.0505 120.985 55.8329 121.378 55.8184C121.314 56.2564 120.961 56.4634 120.761 56.7822C120.498 56.8351 120.116 56.8718 119.874 56.8979C119.853 56.9 119.833 56.9278 119.836 56.9363C119.843 57.2297 119.954 57.333 120.144 57.4378C120.04 57.8405 119.714 58.1212 119.488 58.4403C119.4 58.5648 119.143 58.7362 119.296 58.9795C119.347 59.0698 119.413 59.0758 119.527 59.0948C119.916 58.7217 120.575 58.5465 120.761 57.9773C121.373 58.0161 121.372 58.1635 121.725 58.4019C121.705 58.6202 121.606 58.8416 121.493 58.9795C121.492 59.1266 121.499 59.2708 121.532 59.3653C121.992 59.3445 122.682 58.7376 122.997 58.9407C123.022 58.9407 123.048 58.9407 123.074 58.9407C123.018 59.2006 122.727 59.208 122.534 59.3265C122.125 59.5808 121.636 59.7451 121.184 59.9821C120.574 60.3023 119.899 60.6641 119.334 61.0231C119.167 61.0746 119 61.1253 118.833 61.1768C117.914 61.7209 117.045 62.3927 116.096 62.9118C116.071 62.9785 116.088 62.9495 116.057 62.989C116.059 63.1079 116.071 63.1869 116.096 63.2592C117.271 63.5042 118.209 62.9626 119.026 62.6424C120.127 62.2108 121.171 61.4938 122.072 60.8305C122.365 60.6144 122.576 60.2568 122.881 60.0593C123.119 59.9052 123.328 59.8431 123.536 59.6735C123.601 59.6735 123.665 59.6735 123.73 59.6735C123.662 59.9094 123.495 60.0022 123.382 60.175C123.343 60.2779 123.306 60.3806 123.266 60.4828C123.061 60.6764 122.855 60.8693 122.65 61.0615C122.552 61.1913 122.467 61.3884 122.341 61.4857C122.032 61.7238 121.69 61.9505 121.455 62.2566C121.423 62.3102 121.476 62.5172 121.493 62.6424C122.108 62.5923 122.467 62.1938 122.919 61.9868C123.198 61.8588 123.5 61.8334 123.768 61.6786C123.946 61.5746 124.037 61.3694 124.192 61.2548C124.942 60.6972 125.62 60.2635 125.464 58.9026C125.274 58.8349 124.997 58.8236 124.847 58.7101C124.577 58.7101 124.307 58.7101 124.037 58.7101C124.166 58.2605 124.605 58.2534 124.847 57.9389ZM123.613 57.4378C123.466 57.6356 123.352 57.874 123.229 58.0937C123.128 58.0852 123.097 58.0757 123.035 58.0545C122.923 57.4875 122.881 57.0516 122.689 56.6277C122.554 56.6024 122.485 56.5823 122.38 56.6669C122.152 56.8573 122.317 57.3619 122.033 57.5919C121.921 57.7072 121.628 57.2738 121.532 57.2064C121.603 56.3834 122.396 55.7659 122.804 55.2401C123.545 55.2553 124.077 55.622 124.77 55.664C124.75 56.5759 124.017 56.9007 123.613 57.4378Z" fill="#7E181C"/>
<path fill-rule="evenodd" clip-rule="evenodd" d="M115.365 60.9847C115.465 61.2125 115.709 61.4703 115.788 61.7175C115.95 61.7482 116.031 61.7312 116.213 61.7175C116.511 61.4072 116.696 61.1282 116.791 60.5978C116.872 60.1422 115.941 59.0071 115.635 58.9027C115.558 58.8512 115.383 58.859 115.249 58.8639C115.189 59.1266 115.336 59.9292 115.365 60.2131C115.365 60.4702 115.365 60.7276 115.365 60.9847Z" fill="#7E181C"/>
<path fill-rule="evenodd" clip-rule="evenodd" d="M122.111 63.2207C121.814 63.6076 120.588 63.5857 120.068 63.799C119.355 64.0907 118.595 64.3329 117.871 64.6464C117.389 64.8556 116.889 65.1437 116.406 65.3404C116.277 65.3665 116.149 65.3919 116.02 65.418C115.814 65.5041 115.589 65.7216 115.403 65.8035C115.224 65.8162 115.043 65.8288 114.864 65.8415C114.671 65.9301 114.574 66.1177 114.44 66.2661C114.451 66.9559 114.807 67.1548 114.979 67.5441C115.013 67.6227 114.976 67.7031 115.057 67.8082C115.116 67.8713 115.291 67.9401 115.403 67.9623C115.676 68.018 116.064 67.773 116.252 67.6922C116.974 67.3808 117.509 66.8497 118.14 66.459C118.367 66.3187 118.711 66.1529 118.95 66.0732C119.228 65.9798 119.435 66.0609 119.682 65.9572C120.131 65.7703 119.942 65.4674 120.608 65.6878C120.635 65.7911 120.7 65.8754 120.723 65.9572C120.798 66.2263 120.635 66.5549 120.685 66.7672C120.738 66.9964 120.812 67.0444 120.801 67.3456C120.71 67.4425 120.676 67.6125 120.57 67.6922C120.24 67.939 119.706 68.0378 119.258 68.1549C118.953 68.2346 118.57 68.024 118.333 68.1937C118.307 68.1937 118.282 68.1937 118.256 68.1937C118.264 68.3255 118.275 68.3908 118.333 68.4634C118.447 68.8132 118.663 68.6944 119.028 68.8104C119.383 68.9247 119.764 69.429 120.377 69.0802C120.506 69.0065 120.553 68.8217 120.723 68.772C121.025 68.6845 121.302 68.8266 121.495 68.6563C121.677 68.5653 121.71 68.3354 121.802 68.1549C121.885 67.9969 122.023 67.7567 122.073 67.5765C122.145 67.3131 122.004 67.0733 121.957 66.9217C121.931 66.7672 121.906 66.6131 121.88 66.459C121.735 66.1018 121.503 65.9054 121.495 65.3796C121.49 65.3186 121.558 65.2459 121.61 65.2248C122.04 65.1207 122.464 65.0217 123.037 65.0326C123.221 64.846 123.473 64.7212 123.615 64.493C123.707 64.3446 123.708 64.1348 123.808 63.9916C123.807 63.621 123.676 63.5843 123.538 63.3748C122.981 63.3664 122.644 63.2165 122.111 63.2207Z" fill="#7E181C"/>
<path fill-rule="evenodd" clip-rule="evenodd" d="M108.155 58.3627C108.265 58.197 108.266 58.0524 108.425 57.9389C108.545 57.8567 108.388 57.4258 108.309 57.3986C106.867 57.0742 106.743 58.1381 105.996 58.7101C105.654 58.9724 105.267 59.1414 104.917 59.4037C104.891 59.4037 104.865 59.4037 104.84 59.4037C104.7 58.6346 104.801 57.6229 104.801 56.7822C104.801 56.4482 104.801 56.1139 104.801 55.7803C104.829 55.7109 104.961 55.6238 104.994 55.5487C105.127 55.2429 105.069 54.7531 104.917 54.508C104.709 54.1702 104.274 54.081 103.953 53.8528C103.784 53.7318 103.656 53.5132 103.452 53.4286C103.136 53.297 102.793 53.4226 102.527 53.2353C102.355 53.2618 102.297 53.3207 102.18 53.3898C101.841 54.2763 102.674 55.524 102.912 56.1658C103.119 56.7212 103.127 58.4544 102.99 59.0948C102.885 59.579 103.055 60.3005 102.796 60.6376C102.65 60.839 101.387 61.266 101.062 61.4085C100.79 61.527 100.473 61.6945 100.175 61.7939C99.8449 61.9043 99.5286 61.9339 99.25 62.1028C98.8212 62.3603 98.1363 62.8282 97.6691 62.989C97.5277 63.0024 97.387 63.0151 97.2449 63.0278C97.0477 63.0916 96.7938 63.2038 96.5897 63.2591C96.4729 63.2909 96.3146 63.3064 96.2811 63.2976C96.1411 63.1632 95.9616 62.9583 95.8572 62.7965C95.8019 62.7242 95.738 62.6815 95.6929 62.7122C95.6665 62.7122 95.6322 62.7485 95.6255 62.8353C95.5927 64.0335 95.506 64.2857 96.0501 65.1095C97.1754 65.3461 97.9822 64.7953 98.7101 64.3001C99.0324 64.0801 99.3463 63.9475 99.6739 63.7222C99.9182 63.5529 100.105 63.2524 100.368 63.1047C100.484 63.0786 100.599 63.0536 100.715 63.0278C101.22 62.8275 101.741 62.5239 102.411 62.4879C102.405 63.7606 101.315 65.0604 100.522 65.5725C100.403 65.6486 100.275 65.7403 100.134 65.801C99.9803 65.8666 99.84 65.9346 99.7127 65.9963C99.6093 66.009 99.5071 66.0221 99.4041 66.0344C99.2165 66.1272 98.9629 66.2894 98.7873 66.4199C98.5285 66.6124 98.563 66.7979 98.4019 67.0373C98.4019 67.0627 98.4019 67.0885 98.4019 67.1135C100.46 67.1008 101.733 66.2016 102.873 65.2636C103.302 64.9123 103.832 64.6027 104.069 64.0681C104.354 63.4252 104.458 62.6371 104.647 61.948C104.686 61.6786 104.724 61.4085 104.763 61.1387C104.876 60.9367 105.44 60.6359 105.649 60.4828C105.852 60.3358 106.024 60.0938 106.228 59.9436C106.639 59.6389 107.052 59.3639 107.461 59.0564C107.681 58.8917 108.004 58.5937 108.155 58.3627Z" fill="#7E181C"/>
<path fill-rule="evenodd" clip-rule="evenodd" d="M108.233 64.1845C107.853 63.8869 107.693 63.4461 106.998 63.4517C106.963 63.4866 106.932 63.5039 106.883 63.5286C106.862 64.4377 106.982 64.5647 107.23 65.2248C107.256 65.3405 107.281 65.4561 107.308 65.5725C107.399 65.7499 107.758 66.1575 107.539 66.4971C107.582 66.8498 108.174 66.9781 108.58 66.8441C109.014 66.7017 109.466 66.4005 109.736 66.0733C109.731 65.0753 108.812 64.638 108.233 64.1845Z" fill="#7E181C"/>
<path fill-rule="evenodd" clip-rule="evenodd" d="M86.4506 52.2328C86.5024 52.272 86.5539 52.3104 86.605 52.3488C86.7471 52.553 86.9161 52.888 86.9905 53.1201C87.1477 53.6067 87.1908 54.4231 86.8364 54.6622C86.7824 54.6914 86.8268 55.0515 86.952 55.0476C87.5653 54.9725 88.1817 54.5423 88.4172 54.0838C89.4822 54.1138 90.0718 53.8052 89.9981 52.7346C89.8955 52.625 89.8472 52.4398 89.7273 52.3488C89.4106 52.1073 89.0509 51.865 88.7255 51.6548C88.5735 51.5565 88.3806 51.5572 88.2243 51.4623C87.6788 51.1294 87.2359 50.7884 86.3349 50.8067C85.8892 51.3339 86.1653 51.3227 86.3733 51.7702C86.3994 51.9246 86.4252 52.0784 86.4506 52.2328Z" fill="#7E181C"/>
<path fill-rule="evenodd" clip-rule="evenodd" d="M85.602 59.2884C85.8926 59.3621 86.5654 59.2132 86.7975 59.1335C87.4445 58.9131 88.1262 57.7702 88.6862 57.3601C89.0596 57.0875 89.4825 56.6852 89.9201 56.512C90.0872 56.4866 90.254 56.4609 90.4215 56.4351C90.5883 56.2553 90.7558 56.0754 90.9226 55.8952C90.9103 55.6745 90.8606 55.5056 90.7682 55.5098C90.6144 55.5098 90.46 55.5098 90.3059 55.5098C90.1059 55.6399 89.7339 55.5916 89.4962 55.6639C89.0579 55.799 88.5987 55.9986 88.1854 56.1276C88.0694 56.1396 87.9541 56.152 87.8384 56.1657C86.5629 56.645 85.2346 57.1951 84.0215 57.7071C83.9404 57.8979 83.7707 58.1899 83.9442 58.4018C84.0789 58.7848 85.1619 59.1755 85.602 59.2884Z" fill="#7E181C"/>
<path fill-rule="evenodd" clip-rule="evenodd" d="M89.4572 62.7193C88.9843 62.7207 88.5633 62.6212 88.1468 62.758C87.9497 62.8226 87.8583 62.9851 87.646 63.0278C87.6866 62.7778 88.1747 62.4777 88.34 62.295C88.4737 62.1469 88.6049 61.9523 88.7639 61.8324C88.8976 61.7315 89.0869 61.655 89.1878 61.5242C89.2562 61.4353 89.2964 61.2847 89.3807 61.2156C89.4445 61.2029 89.5097 61.1906 89.5732 61.1768C89.6716 61.0872 89.6956 60.9116 89.8046 60.8305C90.1293 60.589 90.4397 60.5329 90.653 60.1749C90.6953 60.0991 90.616 59.9383 90.537 59.8664C90.2824 59.6626 89.0224 59.4968 88.571 59.6351C88.3432 59.7052 88.0234 59.8421 87.8386 59.9821C87.7744 60.0716 87.7099 60.1619 87.646 60.2522C87.4531 60.2779 87.2603 60.303 87.0677 60.3291C86.835 60.4701 86.6382 60.748 86.4125 60.907C85.946 61.2353 85.4487 61.5111 84.9473 61.7939C84.7297 61.9202 84.4747 61.3976 84.3298 61.2935C84.2357 61.2248 84.1094 61.2121 84.0216 61.1387C83.9324 61.1475 83.9133 61.1461 83.8678 61.1768C83.7783 61.2061 83.7811 61.217 83.7134 61.2547C83.6965 61.528 83.8195 61.8563 83.7518 62.1413C83.6009 62.7767 83.3205 63.9429 83.5589 64.6852C83.5977 64.8058 83.7398 64.9543 83.7903 65.0707C83.8534 65.2152 83.8273 65.356 83.9063 65.4949C84.0174 65.6913 84.2822 65.7551 84.369 65.9963C84.7054 65.9301 85.289 64.8665 85.551 64.4546C85.5521 64.4525 85.5521 64.4507 85.5531 64.4493C85.6095 64.3516 85.6018 64.2882 85.6018 64.2208V64.2095C85.6018 63.8928 85.6021 63.5762 85.6021 63.2591C85.7291 63.2267 85.9879 63.1795 86.1039 63.1047C86.288 63.105 86.3476 63.1262 86.4502 63.1819C86.439 63.3018 86.0105 64.3495 85.9495 64.4158C85.9795 64.6838 86.1547 64.7773 86.373 64.84C86.3071 65.3665 85.7206 65.4797 85.3708 65.7259C84.9564 66.0186 84.4987 66.3419 84.0604 66.6131C83.8869 66.7207 83.6933 66.7365 83.5205 66.8441C83.4151 66.9107 83.3188 67.05 83.2126 67.1135C83.031 67.2235 82.8381 67.2285 82.672 67.3456C82.5895 67.4041 82.556 67.5437 82.4414 67.5765C82.2824 67.6224 82.1544 67.4831 82.0556 67.4612C81.8162 67.4076 81.6497 67.5734 81.4773 67.616C81.4304 68.5653 81.8451 69.5337 82.9037 69.5429C83.4334 68.9815 84.0121 68.511 84.485 67.8851C84.6518 67.7444 84.8186 67.6026 84.9861 67.4612C85.0996 67.2937 85.1289 67.1438 85.2558 66.9982C85.3024 66.945 85.387 66.9647 85.448 66.9217C85.5894 66.7672 85.7312 66.6131 85.8716 66.459C86.0024 66.3649 86.1255 66.3575 86.2193 66.2273C86.2986 66.2428 86.2944 66.2372 86.3346 66.2661C86.4351 66.4012 86.4319 66.6272 86.5278 66.7672C86.5345 67.1114 86.561 67.5064 86.3346 67.616C86.2193 67.6407 86.1039 67.6672 85.9872 67.6922C85.8917 67.7641 85.8592 67.9249 85.7566 68.0004C85.7566 68.078 85.7566 68.1549 85.7566 68.2328C85.7837 68.2853 86.4619 68.5079 86.5659 68.5791C86.6477 68.6348 86.8043 68.8291 86.836 68.9257C86.836 69.0421 86.836 69.1578 86.836 69.2734C86.8833 69.3782 87.0723 69.509 87.1446 69.6197C87.2684 69.6483 87.529 69.7005 87.646 69.6197C87.6845 69.6067 87.7229 69.5943 87.7614 69.5816C87.743 68.4003 87.6714 67.3173 87.3375 66.4199C87.2236 66.1155 86.7994 65.5545 87.0677 65.1482C87.0681 64.5763 87.4609 64.7371 87.7998 64.5311C88.2716 64.2451 88.7822 63.9701 89.2262 63.6446C89.398 63.5183 89.4713 63.3029 89.6117 63.1435C89.5824 62.9576 89.5041 62.8762 89.4572 62.7193Z" fill="#7E181C"/>
<path fill-rule="evenodd" clip-rule="evenodd" d="M91.694 65.302C91.2906 64.7498 90.8632 64.2413 89.8825 64.2617C89.812 64.309 89.6614 64.3051 89.5352 64.3002C89.3423 65.0992 89.3659 65.7428 89.7661 66.3427C89.8695 66.4329 89.9717 66.5225 90.0747 66.6131C90.3018 66.951 90.4302 67.2828 90.8459 67.4228C91.267 67.6947 91.7656 67.1671 91.9635 67.0374C92.0202 66.812 92.2092 66.0828 92.0791 65.8807C92.0608 65.557 91.8362 65.4974 91.694 65.302Z" fill="#7E181C"/>
</g>
<defs>
<filter id="filter0_d_100_630" x="0" y="0" width="154" height="157" filterUnits="userSpaceOnUse" color-interpolation-filters="sRGB">
<feFlood flood-opacity="0" result="BackgroundImageFix"/>
<feColorMatrix in="SourceAlpha" type="matrix" values="0 0 0 0 0 0 0 0 0 0 0 0 0 0 0 0 0 0 127 0" result="hardAlpha"/>
<feOffset dy="16"/>
<feGaussianBlur stdDeviation="6.5"/>
<feColorMatrix type="matrix" values="0 0 0 0 0 0 0 0 0 0 0 0 0 0 0 0 0 0 0.03 0"/>
<feBlend mode="normal" in2="BackgroundImageFix" result="effect1_dropShadow_100_630"/>
<feBlend mode="normal" in="SourceGraphic" in2="effect1_dropShadow_100_630" result="shape"/>
</filter>
</defs>
</svg>
