<svg width="154" height="157" viewBox="0 0 154 157" fill="none" xmlns="http://www.w3.org/2000/svg">
<g filter="url(#filter0_d_185_278)">
<rect width="128" height="128" transform="translate(13)" fill="white"/>
<path fill-rule="evenodd" clip-rule="evenodd" d="M46.18 68.4267C45.3804 71.5896 38.4054 76.4833 30.075 72.4429C33.5244 74.6676 38.068 75.1063 42.8619 73.0281C44.9305 72.0347 46.5987 70.6754 47.5862 68.6821C49.7361 63.5811 44.2115 59.8025 39.612 60.5031C38.0803 60.692 36.606 61.3444 35.1686 62.5452L35.0496 62.6789C38.8807 57.2 49.1549 58.9796 50.199 65.7329C50.236 58.4312 40.2803 56.3955 33.9619 61.1434C37.243 55.9568 47.9925 55.8896 50.6111 61.7159C48.5991 55.1947 37.8685 54.7192 32.6559 59.9363C34.9429 55.1275 45.08 53.3238 49.2049 57.5595C46.3491 52.8667 35.1744 53.5616 31.3811 58.9676C32.1248 55.7919 39.0055 50.6421 47.4113 54.543C43.9242 52.3792 39.3682 52.0197 34.6186 54.1772C32.5681 55.2011 30.9189 56.5908 29.9683 58.5954C27.944 63.6603 33.1747 67.4573 37.7995 66.8296C38.8683 66.7015 39.9117 66.3421 40.9181 65.7201C41.5051 65.3727 42.0427 64.9588 42.5369 64.5016C42.4868 64.5682 42.6493 64.605 42.5993 64.6722C38.737 69.9869 28.4185 67.9328 27.4876 61.2099C27.431 68.5059 37.3185 70.7914 43.668 66.1532C40.2926 71.279 29.5127 71.09 27 65.2206C28.8996 71.7721 39.6744 72.5102 44.9799 67.378C42.6116 72.15 32.3809 73.7046 28.3372 69.3953C31.1061 74.1369 42.2931 73.7718 46.18 68.4267Z" fill="#E60012"/>
<path fill-rule="evenodd" clip-rule="evenodd" d="M58.9401 60.6611L58.8849 60.6677L58.5982 60.6412L58.6842 61.2344L58.499 61.6446L58.1925 62.0306L57.9058 62.1563L57.7183 62.1739L57.9058 61.8696L58.1483 61.1528L58.1925 60.6853L58.0491 60.7228L57.7823 61.627L57.683 61.7703L57.4956 61.9137L57.1471 62.0747L57.0898 62.057L57.0457 61.9688L57.0038 61.7703V61.4572L57.0898 60.156L56.9465 59.5011L56.759 58.7226L56.8031 58.4006L56.9024 58.05L57.1471 57.5582L57.3147 57.073L57.3324 56.7246L57.2706 56.3563L57.1714 56.1314L57.0038 55.9704L56.6157 55.6837L56.1503 55.4786L55.7578 55.397H55.3719L54.8602 55.4786L54.3045 55.5778L53.9186 55.7631L53.5878 55.988L53.4268 56.3365L53.4885 56.6606L53.676 56.9098L54.0002 57.1348L54.0443 57.0113L54.0818 56.7863L54.1237 56.5989L54.3685 56.5813L54.5294 56.6232L54.6728 56.7665L54.9418 57.1105L55.1271 57.6839L55.2462 58.2573V59.1967L55.1844 60.0326L54.4743 60.8485L53.8767 61.3579L53.7576 61.3778L53.5878 61.3579L53.3276 61.2344L53.0784 61.2785L52.9593 61.3579L52.8799 62.5664L52.9791 62.9722L53.1225 63.1597L53.6517 63.1773L54.1876 63.1332L54.2869 62.8487V62.5422L54.4302 62.4231L54.7169 62.0945L55.2087 61.6645H55.2638L55.3079 61.6887L55.3278 61.8872L55.2903 62.3614L54.7786 64.0749L54.5118 65.0717L54.2428 66.1743L54.2692 66.461L54.331 66.7036L54.5294 66.9704L55.1271 67.1094L55.5505 67.1711L55.5946 66.8844L55.6387 66.7036L55.7203 66.5801L56.1878 66.2736L56.4922 66.0685L56.6796 65.87L57.1097 65.0717L57.2905 64.8225L57.4956 64.7034L57.7823 64.4057L58.0315 64.0374L58.4174 62.8487L58.9401 61.713V60.6611ZM58.9401 59.5011V59.7834L58.7416 59.7084L58.7857 59.5386L58.9401 59.5011ZM58.9401 59.7834L58.9467 59.7878L59.0525 59.726L59.1341 59.5011L59.0084 59.4834L58.9401 59.5011V59.7834ZM58.9401 61.713V60.6611L59.1077 60.6412L59.2334 60.5861L59.2135 60.3545L59.1959 60.2376L59.2334 60.1759L59.4826 60.0943L59.5642 59.951L59.6435 59.7635L59.5002 59.6202L59.4583 59.5386L59.4826 59.3974L59.8067 58.9475L59.8883 59.0534L59.9677 59.1151L60.0934 59.0909L60.3184 58.8042L60.3978 58.6057L60.2809 58.4359L60.2169 58.319L60.2368 58.2132L60.5036 58.1492L60.6844 58.1757L60.8101 57.7015L60.6844 57.6641L60.5852 57.6464L60.5036 57.7015L59.4208 58.705L59.3767 58.6057L59.4208 58.3808L59.906 57.8692L60.336 57.459L60.5036 57.3333L60.7286 57.1105L60.8278 56.8238L60.9094 56.5614L61.2777 56.1931L61.6261 55.9263L61.8753 55.6396L62.2987 55.1721L62.4663 54.9471L62.5479 54.7244L62.6913 53.8643L62.7089 53.4343L62.753 53.2094L62.8523 53.0925L63.2823 53.0484L63.5072 53.066L63.5888 53.1476L63.6307 53.6394L63.5888 54.2128L63.3264 54.806L63.2382 55.128V55.3154L63.4631 55.558L63.8932 55.7454L64.1424 55.827L64.2614 55.9263L64.3232 56.1755V57.234L63.7741 57.4391L63.2823 57.6023L62.9956 57.7258L62.753 57.8692L62.5656 58.1139L62.323 58.48L62.098 58.9718L61.9128 59.565L61.8114 60.2178L61.7871 60.7471L61.893 61.5211L61.9922 61.8696L62.098 61.9931L62.2789 62.0129L62.6648 62.0747H62.8104L62.914 62.0129L63.0772 61.7703L63.2646 61.5652L63.569 61.4572L63.9549 61.5013L64.6099 61.7439L64.8326 61.8872L65.0024 62.0306L65.0399 62.1563L65.0024 62.4606L64.8966 62.7054L64.6341 63.0163L64.1424 63.4199L63.4874 63.8499L62.7288 64.2998L61.9547 64.6041L61.5622 64.785L61.3196 64.946L61.1762 65.0099L61.0527 64.9901L60.8895 64.7673L60.766 64.4608L60.7286 64.1366L60.7903 63.8058L60.9094 63.5831V63.4397L60.8719 63.3405L60.6668 62.9722L60.5609 62.4804L60.5411 61.6887L60.5609 61.0712L60.6227 60.4979L60.8719 59.4393L60.991 59.0093L61.1145 58.705L61.3196 58.3367L61.3394 58.1933L61.3019 58.1316L61.0329 58.2573L60.8101 58.48L60.2544 59.3158L59.5377 60.4427L58.9908 61.6005L58.9401 61.713ZM72.4894 64.3241L72.216 64.4233L72.0109 64.4057L71.6867 64.1741L71.7683 64.4851L71.991 64.9658L72.3152 65.3958L72.4894 65.5392V64.3241ZM72.4894 56.729V57.3774L72.4409 57.3597L72.2777 57.234L72.0109 57.3156L71.7859 57.5031L71.1751 57.9706L71.0516 58.1139L71.0075 58.2132L71.0516 58.2573L71.1332 58.2374L71.2126 58.2132L71.2942 58.2573L71.3824 58.3367L70.9523 58.705L70.9082 58.8483L70.9523 59.0093L71.0317 59.2342L71.2126 59.3776L71.4176 59.3974L71.4816 59.1725V58.8858L71.4992 58.8042L71.5808 58.7226L71.7859 58.5793L72.1344 58.4359L72.4894 58.319V59.3092L72.2976 59.3401L72.0925 59.4217L71.9491 59.6202L71.9116 59.7635L71.9293 59.8892L71.991 60.0326L72.216 60.3369L72.3152 60.381L72.4211 60.3369L72.4894 60.2994V62.1739H72.4211L71.991 62.2379L71.7859 62.3812L71.5808 62.5863L71.4375 62.9105L70.8266 63.6691L70.809 63.8323L70.8884 63.9756L71.0692 63.9315L71.1949 63.8698V64.2182L71.1332 64.6041L71.0075 65.2701L70.9523 65.376L70.8465 65.44L70.5399 65.5193H70.379L70.2091 65.4135L69.9864 65.1092L69.8431 64.785L69.724 64.3616L69.6997 64.2006L69.7615 64.0374L69.9666 63.7882L70.2091 63.5632L70.379 63.3581L71.1949 62.1122L71.3383 61.7086L71.2942 61.2344L70.9898 60.7052L70.584 60.2376L70.379 59.951L70.1915 59.6202L69.9489 59.135H69.8232L69.6622 59.1526L69.3138 59.2783L68.7206 59.3776L68.0237 59.4217H67.7172L67.4944 59.4834L67.2695 59.6202L67.0445 59.8253L66.7402 59.9686L66.5351 59.9069L66.3719 59.8076L66.2661 59.4834V59.2144L66.3102 59.0093L66.4094 58.8307L66.5351 58.705L66.7402 58.6057L67.4746 58.2573L69.2123 57.1348L71.8675 55.4786L72.0726 55.4962L72.0351 55.5778L71.8675 55.6639L71.6624 55.9064L70.4782 56.643L68.2905 58.0698L68.1053 58.2749L67.823 58.6057V58.7226L67.9046 58.7667H68.1295L68.2905 58.7491L68.6147 58.6851L69.1065 58.5793L69.3557 58.48L69.7857 58.2132L69.9666 57.9882L70.0482 57.8449L70.2974 57.7633L70.8884 57.4149L71.0692 57.459L71.1332 57.5582L71.3383 57.3774L71.7484 57.0289L71.6426 56.9914L71.4176 56.9672L71.3824 56.9297L71.4176 56.8481L71.7043 56.6805L71.8675 56.643L71.9734 56.7048L72.0351 56.804L72.0726 56.9098H72.216L72.3417 56.8238L72.4409 56.7422L72.4894 56.729ZM72.4894 55.2162V55.3154H72.3792L72.4034 55.2537L72.4894 55.2162ZM72.4894 55.3154V55.2162L72.6019 55.1721L72.5843 55.3154H72.4894ZM73.0628 59.9002V65.8501L72.8335 65.7443L72.5468 65.5833L72.4894 65.5392V64.3241L72.5027 64.3175L72.6636 64.2623L72.7893 64.1565L72.8886 63.9756L72.9327 62.7054L72.8886 62.4231L72.7893 62.2555L72.6636 62.1739H72.4894V60.2994L72.5644 60.2553L72.7695 60.0127L73.0628 59.9002ZM73.0628 58.1382V59.2144L73.0143 59.2342L72.7452 59.2783L72.4894 59.3092V58.319L72.5644 58.2948L73.0628 58.1382ZM73.0628 56.4864V56.7422L72.8335 56.8657L72.7695 56.9473V57.0289L72.807 57.1105L72.5843 57.4149L72.4894 57.3774V56.729L72.5843 56.7048L72.6636 56.6606L72.6901 56.5989L72.6636 56.5173L72.5644 56.2946L72.6636 56.2571L72.8335 56.5173L73.0319 56.4997L73.0628 56.4864ZM73.0628 52.7683V53.1608L72.9768 52.9668L72.9503 52.8433L73.0628 52.7683ZM76.47 62.3172L76.2473 62.2004L75.8172 62.1122L75.568 62.1364L75.4048 62.2996L75.4688 62.4429L75.5063 62.5664L75.6496 62.7473L75.8172 62.9722L76.1039 63.4397L76.1216 63.7507V64.28L76.1855 64.5667L76.2847 64.7409L76.4281 64.9283L76.47 64.979V62.3172ZM76.47 57.4457V57.9441L76.4457 57.9706L76.2208 58.1492L75.9606 58.4006L75.6298 58.7667L75.5305 59.135L75.4489 59.3974L75.3056 59.565L75.0807 59.726L74.7962 59.9311L74.7521 60.156L74.8337 60.4185L74.7962 60.5243L74.5646 60.811L74.4036 61.0095L74.322 61.2587L74.1963 61.6887L74.1412 62.1739L74.2404 62.8289L74.322 63.6889L74.3397 64.2623L74.3661 65.1092L74.322 66.031L74.0155 66.0486L73.6053 66.0067L73.2811 65.9494L73.0628 65.8501V59.9002L73.1576 59.8694L74.1787 58.8858L74.2228 58.8042V58.705L74.1787 58.6057L74.0353 58.5616L73.9537 58.5793L73.892 58.6851L73.7729 58.8307L73.5237 58.9101L73.1995 59.1725L73.0628 59.2144V58.1382L73.1576 58.1139L73.7928 57.8692L74.4279 57.5406L75.1005 57.2539L75.4048 57.234L75.7555 57.2539L76.159 57.3156L76.3906 57.3774L76.47 57.4457ZM76.47 54.8302V55.2537H76.3906L75.9981 55.3529L75.6121 55.4588L75.3629 55.5778L75.1821 55.7829L75.1005 55.6837L75.0189 55.6021L74.913 55.5778L74.7322 55.622L74.6528 55.7631L74.6087 55.8888L74.5095 55.988L74.2603 56.1314L73.3627 56.5813L73.0628 56.7422V56.4864L73.4443 56.2946L73.5855 56.1137L73.6296 56.0321L73.5678 55.7454L73.5855 55.6639L73.6494 55.6396H73.7288L74.0971 55.8645L74.2603 55.7631L74.322 55.4786L74.483 55.2978L74.1412 54.9471L73.9361 54.8677H73.6671L73.3429 54.9052L73.7928 54.6185L73.9979 54.3936L74.0794 54.2503L73.9979 54.1069L73.8545 53.9702L73.6494 53.8026L73.462 53.7033L73.3429 53.6592L73.2811 53.7386L73.1995 53.4343L73.0628 53.1608V52.7683L73.076 52.7617L73.462 52.6007H73.6671L73.892 52.6624L74.3661 52.9227L74.5271 53.1476L74.5646 53.3968V53.7033L74.7322 54.1069L74.8513 54.4553L74.8954 54.7045L74.913 55.3154H75.4489L75.6121 55.1544L76.0157 55.0486L76.4281 54.8435L76.47 54.8302ZM76.47 55.2537V54.8302L77.1867 54.581L77.7535 54.5369L77.9343 54.6185L78.0777 54.742L78.2409 55.1544L78.2585 55.2978L78.221 55.3154L77.9343 55.2096L76.47 55.2537ZM76.47 57.9441V57.4457L76.5075 57.4766L76.6133 57.6464L76.5891 57.8074L76.47 57.9441ZM76.47 64.979V62.3172L76.9375 62.5664L77.1867 62.7671L77.3874 62.9524L77.4933 63.0715L77.5307 63.4397V63.6448L77.4734 63.8323L77.3301 64.1565L77.2242 64.4608L77.1448 64.9041L77.0809 65.1092L76.9574 65.1908L76.6133 65.0893L76.4898 65.0099L76.47 64.979ZM84.3517 60.6544L84.1709 60.8904L84.1268 61.0712L84.1709 61.2146L84.3341 61.3579L84.3517 61.3646V60.6544ZM84.3517 57.8383L83.8666 58.6609L83.9658 58.705L84.0893 58.4999L84.3143 58.1316L84.3517 58.0809V57.8383ZM84.3517 54.151V55.3353L84.1533 55.4962L83.7607 55.9263L83.2932 56.5813L83.1675 56.6805L83.1057 56.8238L83.0683 56.9473L83.1499 57.0466L83.2491 57.0907L83.4167 57.1899L83.3726 57.7015L83.2116 58.4006L83.0065 59.2783L82.8808 60.0502L82.8632 61.3778L82.8433 61.7086L82.8808 61.9313L82.9448 61.9931L83.0065 61.9688L83.2491 61.788L83.2733 61.6005L83.1873 61.4219L83.2314 61.2587L83.3549 61.0536L83.3726 60.7228L83.3108 60.6236V60.4185L83.4983 60.156L83.5534 60.1318L83.6174 60.1759L83.6416 60.2553L83.6593 61.0712L83.5799 62.7473L83.3108 64.0374L83.2116 64.119L83.0065 64.1366L82.6757 63.8698L82.4949 63.6448L82.4133 63.3581L82.4331 62.1122L82.4772 61.2146L82.5566 59.8253L82.8433 58.6234L83.0683 57.9066L83.044 57.7457L83.0065 57.6641L82.9448 57.6839L82.7375 58.05L82.6581 58.3367L82.2082 59.4834L82.1023 60.0326L81.9832 60.542L81.8598 60.9919L81.7605 61.4572L81.6547 61.8255L81.4297 62.2996L81.1254 62.7473L80.982 62.8906L80.8828 62.9524L80.552 62.809L80.3469 62.7054L80.2653 62.5863L80.0845 62.2996L80.0227 62.0945L80.122 61.8078L80.8188 60.811L81.2687 60.2178L81.4496 59.8694L81.5731 59.4834L81.6789 58.8858L81.798 58.4359L82.0031 57.1105L82.228 55.9704L82.4949 55.4147L82.7 55.128L82.9249 54.8677L83.2314 54.6428L83.4167 54.5193L83.9835 54.2944L84.1092 54.1687L84.2327 54.1069L84.3517 54.151ZM84.3517 55.3353L84.6627 55.0905L84.806 54.9052L84.8435 54.7619L84.806 54.6428L84.3517 54.151V55.3353ZM84.3517 61.3646V60.6544L84.3958 60.6059L84.7443 60.2376L85.0685 59.8076L85.2559 59.5386L85.6859 58.8042L86.0719 58.0698L86.3586 57.3156L86.5019 57.1546V57.0289L86.3387 56.9297L85.9903 56.8238L85.7036 56.9098L85.1302 57.2539L84.6627 57.7015L84.3517 58.0809V57.8383L84.6384 57.3597L84.9692 56.9473L85.2361 56.6805L85.4345 56.374L85.8293 55.9263L86.3387 55.622L86.7688 55.4411L86.9121 55.2713L87.0312 55.0111L87.1988 53.9261L87.1745 53.4343L87.1988 53.066L87.2539 52.8234L87.4612 52.5808L87.8097 52.3559L88.5683 52.25L88.6874 52.3118L88.769 52.3934L88.8131 52.4926L88.7932 52.6801L88.6256 52.8433L88.3191 53.1476L88.0324 53.4784L87.9089 53.9459L87.8913 54.2128L87.7281 54.4995L87.7898 54.6185L87.8538 54.742L87.9971 54.8435L88.3632 54.9846L88.544 55.0111L88.5881 54.9295H88.6697L88.8131 55.0287L89.2233 55.3154L89.3048 55.4147L89.3423 55.4962L89.3225 55.5778L88.6499 56.0321L88.3389 56.1931L88.0324 56.4181L87.9089 56.5614L87.8273 56.7048L87.8538 56.9297L87.9332 56.9914L88.0963 56.9672L88.9741 56.5438L89.5033 56.4556L89.9576 56.4798L90.3634 56.5173L90.5508 56.5813L90.6743 56.7246L90.7118 57.0907L90.5883 57.3156L90.1385 57.5825L89.8341 57.7633L89.5651 57.9507L89.0998 58.3565L88.9123 58.5616L88.8131 58.7491L88.769 59.1151L88.6697 59.3158L88.544 59.5386L88.5264 59.6643L88.544 59.726H88.9917L89.9157 59.6819L89.9775 59.7635L89.9951 59.8892L89.9576 60.156L89.8143 60.5243L89.5651 60.7052L89.0799 61.0338L88.7932 61.2587L88.5264 61.5652L88.3191 61.8078L88.2198 62.0129L88.0963 62.5245L87.9706 65.1533L87.8913 67.4578L87.9332 67.8261L88.0522 68.3179L88.2198 68.7214L88.2838 69.2772L88.2198 69.769L88.0147 70.1108L87.7104 70.3181L87.523 70.36L87.3796 70.2365L87.1988 69.6256L87.0731 68.9706L87.137 64.3175L87.2363 62.6855V62.4804L87.1745 62.3988L86.9937 62.4231L86.4203 62.7473L86.1336 62.8487L85.9285 62.8289L85.5602 62.5047L85.4345 62.3172L85.4169 62.1122L85.5602 61.6645L85.8028 61.3579L86.3387 60.7471L86.8503 60.1119L87.1172 59.726L87.2363 59.5209L87.2164 59.3974L87.1172 59.3577L87.0554 59.3974L86.868 59.6643L86.2329 60.4185L85.6044 61.0712L85.2559 61.3778L85.0067 61.4836L84.6825 61.4572L84.3517 61.3646ZM98.7987 65.3275L98.6686 65.2966L98.7987 65.5458V65.3275ZM98.7987 53.3461V56.407L98.4987 56.643L98.2562 56.9672L98.1944 57.1348L98.2562 57.234H98.4987L98.6686 57.1899L98.7987 57.1039V61.0911L98.706 61.2146L98.6862 61.2962L98.7987 61.3094V64.3858L98.7678 64.3792L98.4811 64.2623L98.2385 63.9756L98.1569 63.7066L98.0952 63.4397L98.0334 63.3207L97.9518 63.303L97.8085 63.5015L97.7644 63.7705L97.932 64.5225L97.9518 64.9901L97.932 65.5193L97.8085 65.5833H97.6828L97.5394 65.6009L97.2528 65.5568L96.9308 65.3958L96.8051 65.215L96.7235 64.946L96.6617 64.4057L96.6816 63.9756L96.7433 63.464L96.7852 62.7671L97.03 61.1352L97.1734 60.2376L97.3344 59.6643L97.3961 59.296L97.3344 59.1151L97.1359 59.0534L96.9043 59.0909L96.6617 59.1967L96.4368 59.3577L96.0068 59.8253L95.784 59.9884L95.5966 60.0127L95.1908 59.8517L95.0056 59.726L94.9416 59.5209V59.135L95.0056 58.9475L95.2106 58.7667L95.8458 58.3808L96.1325 58.1757L96.2934 57.9882L96.9043 57.2781L97.0719 56.8657L96.6816 57.2164L96.1501 57.6839L95.7024 57.9507L95.1908 58.1933L94.1256 58.4999L93.7221 58.5418L93.3913 58.5175L93.1862 58.4006L93.0605 58.2132L93.023 58.0323L93.0605 57.8692L93.1487 57.7457L93.292 57.6464L93.8015 57.4149L94.5557 57.2781L95.1489 57.1546L96.7433 56.3365L97.3167 56.0321L97.621 55.8447L97.846 55.6639L97.9518 55.3529L98.0136 55.1103L98.1569 54.8854L98.276 54.6428L98.3003 54.3561L98.2187 54.1951L98.0511 54.0518L97.8702 53.9261L97.7445 53.7827L97.6828 53.6019L97.7026 53.4784L97.8261 53.2358L97.9695 53.1719L98.0952 53.1476L98.2562 53.1719L98.587 53.2909L98.7987 53.3461ZM99.4713 65.365V66.2493L99.1978 66.0685L98.8295 65.6009L98.7987 65.5458V65.3275L98.8295 65.3341L99.0721 65.4135L99.2596 65.44L99.4713 65.365ZM99.4713 61.1771V62.057L99.4404 62.0747L99.4029 62.1364L99.3588 62.218L99.2794 62.3172L99.2155 62.3988L99.1537 62.5245L99.1361 62.7473V62.9524L99.178 63.0163L99.2596 63.034L99.4713 63.0913V64.2932L99.2794 64.3417L99.0545 64.4057L98.7987 64.3858V61.3094L98.8913 61.3204L99.1537 61.2962L99.4647 61.197L99.4713 61.1771ZM99.4713 53.3836V58.125L99.4206 58.1492L99.4713 58.1933V60.2553H99.4029L99.3213 60.317L99.2596 60.4185L99.2155 60.5618L99.1361 60.7228L98.8737 60.9919L98.7987 61.0911V57.1039L99.178 56.8481L99.3412 56.7246L99.4029 56.6232L99.2794 56.3563L99.1162 56.2571L98.9552 56.2747L98.8119 56.4004L98.7987 56.407V53.3461L98.8295 53.3527H99.2971L99.4713 53.3836ZM99.4713 58.125V53.3836L99.8087 53.4343L100.12 53.7651L100.325 54.0077L100.424 54.1687L100.567 54.2944L100.748 54.3385L101.427 54.2326L101.732 54.1687L102.1 54.151L102.486 54.3385L102.773 54.5369L102.916 54.7619L102.94 54.8677L102.898 54.9471L102.226 55.0486L101.465 55.1103H101.178L100.874 55.1544L100.748 55.3353L100.711 55.4147L100.649 55.4411H100.345L100.058 55.5404L99.9322 55.7013L99.9763 55.7631L100.12 55.827L101.059 56.3122L101.383 56.5173L101.632 56.6805L101.752 56.8657L101.796 57.234L101.714 57.3597L101.509 57.4391L100.792 57.5031L100.424 57.5825L100.157 57.7015L99.6896 58.0125L99.4713 58.125ZM99.4713 66.2493V65.365L99.5022 65.3584L99.7271 65.1334L99.7889 64.8467L99.7712 64.4851L99.6698 64.3417L99.5463 64.28L99.4713 64.2932V63.0913L99.4845 63.0957H99.5639L99.6455 63.034L99.7889 62.8906L99.8087 62.5863L99.7889 62.2798L99.7514 62.1739L99.608 62.057L99.5022 62.0306L99.4713 62.057V61.1771L99.5463 61.0712L99.5838 60.8485V60.4604L99.5639 60.3369L99.4845 60.2553H99.4713V58.1933L100.014 58.6057L100.201 58.8042L100.406 59.0732L100.55 59.3776L100.587 59.726L100.488 60.317L100.38 60.7228V61.7086L100.461 62.9347L100.629 64.1741L100.731 65.2525V65.806L100.748 66.0927L100.731 66.3177L100.649 66.4786L100.488 66.5426L99.8506 66.3728L99.4845 66.2559L99.4713 66.2493ZM112.211 61.7196L110.809 61.402L111.177 61.8696L111.589 62.3172L112.099 62.9722L112.211 63.2148V61.7196ZM112.211 56.5063V58.0632L111.768 58.319L110.791 58.8307L110.648 58.9718L110.399 59.3158L109.706 60.8904L109.276 62.218L108.928 63.1773L108.828 63.4023L108.661 63.5831L108.418 63.7264L107.333 63.9492L106.517 64.055L105.476 64.0749L105.309 63.9933L105.209 63.8698L105.148 63.7264V63.5456L105.022 63.464L104.94 63.4199V63.3581L105.046 63.2148L105.227 63.034L105.452 62.9347L105.719 62.9105L105.845 62.9524L105.82 62.9921L105.882 63.0538L106.149 62.9921L106.903 62.648L107.234 62.4429L107.477 62.2798L107.682 62.0945L107.951 61.7086L108.068 61.4836L108.149 61.1771V60.9919L108.006 60.811L107.825 60.7052L107.701 60.6853L107.477 60.7228H106.985L106.661 60.6853L106.436 60.5861L106.275 60.3986L106.149 60.1759L106.006 59.8253L105.964 59.5209L105.988 59.296L106.07 59.1725L106.599 59.1151H106.985L107.091 59.1725L107.333 59.2342L107.582 59.1967L107.746 59.1151L108.398 58.4624L108.562 58.2573L108.784 57.9507L108.89 57.4766L108.947 56.7665L109.009 55.622L108.972 55.1103L108.804 54.2944L108.685 53.8268L108.747 53.4585L108.947 53.3351L109.053 53.2909L109.296 53.2358L109.6 53.2909L109.913 53.3968L110.255 53.5776L110.485 53.8268L110.648 54.0253L110.747 54.376L110.648 54.9846L110.665 55.2713L110.648 55.5205L110.504 55.7013L110.379 55.9439L110.317 56.3122L110.255 56.7048L110.317 57.0466L110.361 57.1899L110.46 57.234L110.91 57.1105L111.364 56.8856L111.607 56.643L111.733 56.5614L111.894 56.5173L112.211 56.5063ZM112.211 58.0632V56.5063L112.304 56.4997L112.71 56.5173L113.157 56.7246L113.365 56.8238L113.532 56.9297L113.614 57.0289V57.459L113.488 57.6641L113.407 57.7457L113.327 57.7831L112.959 57.7633L112.734 57.7831L112.549 57.8692L112.211 58.0632ZM112.211 63.2148V61.7196L112.423 61.7703L113.184 61.9931L113.651 62.218L113.837 62.3371L113.936 62.4606L114.062 62.7914L114.099 63.1597L114.079 63.5632L114 63.9933L113.676 64.5865L113.508 64.7673L113.301 64.8467H113.102L112.897 64.7409L112.71 64.5865L112.566 64.3417L112.341 63.6272L112.225 63.2391L112.211 63.2148ZM119.489 64.7475V66.0001L119.356 65.9869L118.847 65.7818L118.397 65.5392L118.029 65.215L117.844 64.946L117.782 64.7034L117.861 64.5424L118.049 64.4851L118.496 64.5225L119.07 64.6593L119.489 64.7475ZM119.489 60.8221V62.1364L119.213 62.1122L118.882 62.0129L118.622 61.8255L118.435 61.6645L118.23 61.3579L118.172 61.0712L118.192 60.8485L118.353 60.6412L118.64 60.4185L118.909 60.7052L119.008 60.811L119.196 60.8904L119.489 60.8221ZM119.489 57.459V58.4183L119.438 58.4624L119.275 58.705L119.295 58.9917V59.1151L119.251 59.1725L118.803 59.3974L118.13 59.6819L117.557 59.9686L117.25 60.1318L116.964 60.1935H116.778L116.635 60.1318L116.516 60.0127L116.434 59.8892L116.41 59.726L116.454 59.565L116.741 59.1725L117.045 58.8659L117.8 58.1492L118.172 57.6641L118.516 57.2164L118.739 56.9914L118.909 56.9098H119.026L119.213 57.073L119.295 57.2539L119.394 57.3972L119.482 57.459H119.489ZM119.489 55.3772V56.5746L119.312 56.4997L119.107 56.4004L118.971 56.2946L118.64 55.9064L118.516 55.8072L118.417 55.5778V55.3154L118.516 55.1544L118.66 55.0486L118.783 55.0111L118.971 55.0486L119.233 55.2537L119.482 55.3772H119.489ZM120.479 64.6284V66.0067L119.886 66.031L119.489 66.0001V64.7475L119.562 64.7673L119.992 64.7232L120.479 64.6284ZM120.479 60.4494V61.9313L120.029 62.0945L119.5 62.1364H119.489V60.8221L119.806 60.7471L120.479 60.4494ZM120.479 58.0125L120.397 58.05L120.011 58.319L119.824 58.48L119.705 58.6234L119.787 59.2342L119.848 59.3401L119.967 59.3974L120.336 59.4393L120.479 59.4283V58.0125ZM120.479 57.1216V57.7148L120.111 57.9507L119.787 58.1933L119.562 58.3565L119.489 58.4183V57.459H119.581L120.459 57.1348L120.479 57.1216ZM120.479 56.138V56.6298L120.459 56.643L120.172 56.7246H119.848L119.643 56.643L119.489 56.5746V55.3772L119.824 55.4147L120.029 55.4962L120.192 55.622L120.479 56.138ZM120.479 54.5237V54.8744L120.422 54.7619L120.397 54.6185L120.479 54.5237ZM120.479 56.6298L120.558 56.5813L120.503 56.1755L120.479 56.138V56.6298ZM122.098 57.6949L122.036 57.7015L121.729 57.8449L121.524 57.9706L121.077 58.1316L120.933 58.0941L120.889 58.0323L120.808 57.8692L120.479 58.0125V59.4283L120.602 59.4217L120.827 59.3776L120.933 59.3974L120.988 59.4834L121.033 59.6025L121.077 60.1318L121.033 60.2178L120.909 60.2751L120.684 60.3545L120.479 60.4494V61.9313L120.541 61.9137L120.909 61.7262L121.213 61.627L121.643 61.5454L121.787 61.627L121.848 61.7703L121.873 62.0129L121.767 63.7507L121.705 63.9117L121.562 64.0374L121.302 64.2182L120.479 64.6284V66.0067L121.992 66.1302L122.098 66.1236V58.7799L121.811 59.0291L121.668 59.0534L121.5 58.9299L121.463 58.8483L121.5 58.705L121.586 58.5793L121.787 58.5616L122.073 58.4999L122.098 58.48V57.6949ZM122.098 56.2196V56.8106L121.992 56.8481L121.562 57.1105L121.052 57.3774L120.558 57.6641L120.479 57.7148V57.1216L121.381 56.5989L121.624 56.4181L121.811 56.2571H122.036L122.098 56.2196ZM122.098 55.4213L121.873 55.5778L121.705 55.7454L121.562 55.9263L121.586 56.0079L121.668 56.0498L121.91 55.8645L122.098 55.7388V55.4213ZM122.098 53.7033V54.7045L121.992 55.0728L121.93 55.2096L121.811 55.397L121.668 55.4962L121.562 55.5404L121.463 55.5205L120.79 55.1919L120.503 54.9052L120.479 54.8744V54.5237L120.503 54.4995L120.827 54.3561L121.114 54.2745L121.401 54.1951L121.643 54.0694L121.831 53.9878L121.974 53.882L122.098 53.7033ZM122.098 54.7045L122.135 54.5612L122.241 54.0077L122.296 53.4343L122.135 53.6394L122.098 53.7033V54.7045ZM123.013 53.8511V55.6594L122.933 55.7212L122.978 55.8645L123.013 55.9064V56.4688L122.098 56.8106V56.2196L122.296 56.1137L122.442 55.9064L122.503 55.7631V55.6396L122.384 55.5778L122.179 55.6837L122.098 55.7388V55.4213L122.296 55.2713L122.422 54.9471L122.583 54.581L122.808 54.1687L123.013 53.8511ZM123.013 52.83V53.055L122.933 53.0925L122.852 53.0285L123.013 52.83ZM122.689 57.62L122.627 57.8273L122.689 57.8449L122.87 57.8692H122.995L123.013 57.8515V59.0358L122.978 59.0534L122.726 59.1967L122.583 59.3158L122.548 59.5011L122.583 59.6643L122.609 59.726L122.753 59.7459L123.013 59.7326V62.0813L122.995 62.2996L122.933 63.5632V64.4057L122.832 64.8666L122.726 65.2327L122.627 65.6009L122.528 65.9075L122.503 66.0927L122.098 66.1236V58.7799L122.135 58.7491L122.296 58.6057L122.422 58.4359L122.484 58.2749L122.627 58.1492L122.726 58.0323L122.689 57.9882L122.627 58.0125L122.34 58.2573L122.217 58.3808L122.098 58.48V57.6949L122.466 57.6641L122.609 57.4766L122.933 57.234L123.013 57.1965V57.4149L122.852 57.5406L122.689 57.62ZM123.013 55.6594L123.139 55.558L123.405 55.4411L123.65 55.2537L123.937 54.9471L124.733 53.9459L125.631 53.3527L125.675 53.1917L125.631 52.9491L125.511 52.5367L125.225 52.2699L124.715 51.884L124.402 51.8024L124.142 51.8465L123.668 52.1067L123.156 52.6624L123.013 52.83V53.055L123.119 53.0043L123.262 52.8852L123.463 52.7793H123.507L123.487 52.8609L123.405 53.066L123.238 53.496L123.013 53.8511V55.6594ZM123.013 62.0813V59.7326L123.487 59.7084L124.634 59.6444H125.101L125.531 59.7459L125.798 59.9311L126.023 60.1318L126.14 60.4185V60.7052L126.061 60.9279L125.798 60.9919L124.815 60.9279L123.586 60.9919L123.262 61.1771L123.077 61.4395L123.013 62.0813ZM123.013 57.8515L123.094 57.7831L123.344 57.459L123.405 57.2958L123.381 57.2781L123.238 57.2958L123.013 57.4149V57.1965L123.364 57.0466L123.835 56.9098L124.446 56.7665L124.876 56.5813L125.119 56.4379L125.201 56.3365L125.119 56.1931L125.037 56.1314L124.914 56.1137L124.303 56.1755L123.094 56.4379L123.013 56.4688V55.9064L123.039 55.9263L123.156 55.8888L123.835 55.7454L124.466 55.6396L125.631 55.5404L126.491 55.6396L126.757 55.7454L126.901 55.8645L126.963 56.0321L127 56.4379L126.938 56.6606L126.74 56.8481L126.471 56.9672L125.573 56.9914L124.859 57.1348L124.466 57.234L124.402 57.4149L124.385 57.6839L124.285 57.8692L124.016 57.9706L123.855 58.05L123.749 58.1492L123.549 58.3565L123.405 58.4624L123.344 58.5175L123.262 58.6432L123.238 58.8483L123.2 58.9475L123.013 59.0358V57.8515Z" fill="black"/>
<path d="M54.1249 73.4091H54.6439C55.2901 73.4091 55.5683 73.2042 55.5683 72.7213C55.5683 72.2383 55.2901 72.0708 54.749 72.0708H54.1249V71.8286H54.9013C55.6209 71.8286 56.0416 72.1857 56.0416 72.6894C56.0416 73.0991 55.7579 73.4616 55.059 73.5461V73.499C55.8783 73.5668 56.2146 73.9349 56.2146 74.3861C56.2146 74.8649 55.8202 75.3479 54.8279 75.3479H54.1249V75.1057H54.702C55.3856 75.1057 55.7164 74.8483 55.7164 74.3861C55.7164 73.8976 55.3953 73.6512 54.6605 73.6512H54.1249V73.4091ZM53.8883 73.4575C53.8883 72.9164 53.8883 72.3698 53.873 71.8286H54.3768C54.3616 72.3587 54.3616 72.9053 54.3616 73.4575V73.6402C54.3616 74.2602 54.3616 74.8068 54.3768 75.3479H53.873C53.8883 74.8165 53.8883 74.2712 53.8883 73.7191V73.4575ZM54.1249 75.0587V75.3479H53.3887V75.1376L54.0723 75.0587H54.1249ZM53.3887 72.039V71.8286H54.1249V72.1179H54.0723L53.3887 72.039Z" fill="black"/>
<path d="M58.5411 73.4838L58.6199 72.9261H58.8566V74.1716H58.6199L58.5411 73.5876V73.4838ZM59.5388 74.4124L59.5029 75.3479H57.5225V75.085H59.3188L59.0822 75.3479L59.2455 74.4124H59.5388ZM58.7099 73.672H57.5225V73.4312H58.7099V73.672ZM58.977 71.8286L59.2136 72.0916H57.5225V71.8286H59.3977L59.4337 72.7642H59.1403L58.977 71.8286ZM57.2859 73.4575C57.2859 72.9164 57.2859 72.3698 57.2706 71.8286H57.7744C57.7591 72.3587 57.7591 72.9053 57.7591 73.4575V73.6568C57.7591 74.2602 57.7591 74.8068 57.7744 75.3479H57.2706C57.2859 74.8165 57.2859 74.2712 57.2859 73.7191V73.4575ZM57.5225 75.0587V75.3479H56.7877V75.1376L57.4699 75.0587H57.5225ZM56.7877 72.039V71.8286H57.5225V72.1179H57.4699L56.7877 72.039Z" fill="black"/>
<path d="M60.6894 73.4561C60.6894 72.9164 60.6894 72.3698 60.6741 71.8286H61.1779C61.1627 72.3587 61.1627 72.9053 61.1627 73.4561V73.7191C61.1627 74.2602 61.1627 74.8068 61.1779 75.3479H60.6741C60.6894 74.8165 60.6894 74.2712 60.6894 73.7191V73.4561ZM60.9786 75.0587L61.6609 75.1376V75.3479H60.1912V75.1376L60.8734 75.0587H60.9786ZM60.1912 72.039V71.8286H61.6609V72.039L60.9786 72.1179H60.8734L60.1912 72.039Z" fill="black"/>
<path d="M62.3804 71.8286H63.9041V72.039L63.2205 72.1179H63.1153L62.3804 72.039V71.8286ZM63.4211 71.8286C63.4045 72.3587 63.4045 72.9053 63.4045 73.4575V74.292C63.4045 74.8801 63.3948 75.1472 63.3423 75.4157C63.2426 75.9402 62.8011 76.1976 62.3652 76.1976C62.1701 76.1976 61.9653 76.145 61.9182 75.9457C61.9501 75.7575 62.0705 75.6939 62.2338 75.6939C62.3652 75.6939 62.4745 75.7354 62.6226 75.8461L62.7956 75.9776L62.7541 76.0357L62.7112 76.0412L62.7015 75.9983C62.9008 75.8461 62.9686 75.6524 62.9686 75.3216C62.9686 75.0061 62.9423 74.4594 62.916 71.8286H63.4211Z" fill="black"/>
<path d="M65.0545 73.4561C65.0545 72.9164 65.0545 72.3698 65.0379 71.8286H65.543C65.5264 72.3587 65.5264 72.9053 65.5264 73.4561V73.7191C65.5264 74.2602 65.5264 74.8068 65.543 75.3479H65.0379C65.0545 74.8165 65.0545 74.2712 65.0545 73.7191V73.4561ZM65.3424 75.0587L66.026 75.1376V75.3479H64.5549V75.1376L65.2372 75.0587H65.3424ZM64.5549 72.039V71.8286H66.026V72.039L65.3424 72.1179H65.2372L64.5549 72.039Z" fill="black"/>
<path d="M69.432 71.8286H69.6949V75.3839L69.432 75.1209V71.8286ZM68.8812 71.8286H70.1419V72.039L69.6161 72.1179H69.5109L68.8812 72.039V71.8286ZM67.1486 71.8286L67.4115 72.039V75.3479H67.1486V71.8286ZM67.0323 71.9919L67.3589 72.1179L66.7279 72.039V71.8286H67.5153L69.6949 74.8276V75.3839H69.5275L67.0323 71.9919ZM66.7016 75.1376L67.2537 75.0587H67.3589L67.9623 75.1376V75.3479H66.7016V75.1376Z" fill="black"/>
<path d="M72.6157 73.8879V73.6775H73.9816V73.8879L73.4031 73.9405H73.2979L72.6157 73.8879ZM73.6508 75.1168C73.2882 75.305 72.9312 75.4268 72.4953 75.4268C71.4449 75.4268 70.7308 74.6435 70.7308 73.5876C70.7308 72.533 71.4504 71.7498 72.516 71.7498C72.952 71.7498 73.2772 71.8286 73.5719 72.0016L73.5927 72.7642H73.2716L73.1415 71.9864L73.4668 72.0916V72.3905C73.1831 72.1276 72.8938 72.0127 72.5575 72.0127C71.8227 72.0127 71.2816 72.5856 71.2816 73.5876C71.2816 74.5854 71.7756 75.1583 72.5949 75.1583C72.8938 75.1583 73.1153 75.0905 73.4142 74.9424L73.1775 75.1901V74.8857C73.1775 74.4857 73.172 74.0761 73.1623 73.6775H73.666C73.655 74.0706 73.6508 74.476 73.6508 74.8857V75.1168Z" fill="black"/>
<path d="M77.7936 74.5231C77.7936 74.1813 77.5888 74.029 77.1321 73.8505L76.9314 73.7716C76.3972 73.5613 76.0291 73.2568 76.0291 72.7213C76.0291 72.1179 76.5384 71.7498 77.2054 71.7498C77.5569 71.7498 77.8351 71.8605 78.0607 72.0279L78.0302 72.7116H77.7147L77.568 71.9186L77.9043 72.0916V72.3545C77.6469 72.1026 77.4518 72.0127 77.1736 72.0127C76.764 72.0127 76.454 72.2175 76.454 72.6119C76.454 72.9427 76.6699 73.1364 77.0532 73.2831L77.258 73.362C77.9514 73.6305 78.2184 73.9349 78.2184 74.429C78.2184 75.0476 77.6995 75.4268 76.9799 75.4268C76.5854 75.4268 76.2021 75.2995 75.9599 75.1472L75.9918 74.4124H76.3073L76.4443 75.222L76.1025 75.0739V74.822C76.4277 75.0587 76.6062 75.1638 76.9633 75.1638C77.4628 75.1638 77.7936 74.9327 77.7936 74.5231Z" fill="black"/>
<path d="M80.0996 73.9557H79.5792V73.7135H80.1785C80.8234 73.7135 81.0766 73.3731 81.0766 72.8735C81.0766 72.3642 80.7929 72.0708 80.1563 72.0708H79.5792V71.8286H80.256C81.1292 71.8286 81.5748 72.259 81.5748 72.8735C81.5748 73.4616 81.1707 73.9557 80.0996 73.9557ZM79.3426 73.4561C79.3426 72.9164 79.3426 72.3698 79.3274 71.8286H79.8311C79.8159 72.3587 79.8159 72.9053 79.8159 73.4561V73.7772C79.8159 74.3127 79.8159 74.8068 79.8311 75.3479H79.3274C79.3426 74.8165 79.3426 74.2712 79.3426 73.7191V73.4561ZM79.6318 75.0587L80.3141 75.1376V75.3479H78.8444V75.1376L79.5267 75.0587H79.6318ZM78.8444 72.039V71.8286H79.5792V72.1179H79.5267L78.8444 72.039Z" fill="black"/>
<path d="M83.7868 75.1638C84.5272 75.1638 84.8372 74.3764 84.8372 73.5876C84.8372 72.8001 84.5272 72.0127 83.7868 72.0127C83.0464 72.0127 82.7309 72.8001 82.7309 73.5876C82.7309 74.3764 83.0464 75.1638 83.7868 75.1638ZM85.388 73.5876C85.388 74.7376 84.6005 75.4268 83.7868 75.4268C82.9731 75.4268 82.1801 74.786 82.1801 73.5876C82.1801 72.4376 82.9772 71.7498 83.7868 71.7498C84.595 71.7498 85.388 72.3905 85.388 73.5876Z" fill="black"/>
<path d="M86.7123 73.4838H87.3682C87.9356 73.4838 88.2083 73.178 88.2083 72.7531C88.2083 72.3116 87.9716 72.0708 87.425 72.0708H86.7123V71.8286H87.4305C88.2345 71.8286 88.7065 72.1705 88.7065 72.7531C88.7065 73.2001 88.3549 73.6042 87.6671 73.6623L87.6838 73.6194C88.0616 73.6568 88.2927 73.8298 88.4338 74.3031L88.6912 75.1735L88.5279 75.0739L89.069 75.1376V75.3479C88.9749 75.3784 88.849 75.3991 88.6912 75.3991C88.366 75.3991 88.2235 75.3161 88.1612 75.0739L87.9453 74.2186C87.8401 73.7924 87.6464 73.7191 87.2105 73.7191H86.7123V73.4838ZM86.4756 73.4575C86.4756 72.9164 86.4756 72.3698 86.459 71.8286H86.9641C86.9475 72.3753 86.9475 72.8901 86.9475 73.5087V73.6665C86.9475 74.2602 86.9475 74.8068 86.9641 75.3479H86.459C86.4756 74.8165 86.4756 74.2712 86.4756 73.7191V73.4575ZM86.7635 75.0587L87.4471 75.1376V75.3479H85.976V75.1376L86.6597 75.0587H86.7635ZM85.976 72.039V71.8286H86.7123V72.1179H86.6597L85.976 72.039Z" fill="black"/>
<path d="M90.5652 73.4561C90.5652 72.9164 90.5652 72.3698 90.5486 71.8286H91.0538C91.0371 72.3587 91.0371 72.9053 91.0371 73.4561V73.7191C91.0371 74.2602 91.0371 74.8068 91.0538 75.3479H90.5486C90.5652 74.8165 90.5652 74.2712 90.5652 73.7191V73.4561ZM90.8531 75.0587L91.5893 75.1376V75.3479H90.0131V75.1376L90.7493 75.0587H90.8531ZM89.5508 72.0916L89.7875 71.8286L89.62 72.7642H89.3253L89.3682 71.8286H92.2342L92.2771 72.7642H91.9823L91.8149 71.8286L92.0515 72.0916H89.5508Z" fill="black"/>
<path d="M97.931 72.117L97.3532 72.038V71.8274H98.6155V72.038L98.0363 72.117H97.931ZM96.9846 75.0616C97.5901 75.0616 97.895 74.7207 97.895 73.7785V71.8274H98.1583V73.9156C98.1583 75.02 97.622 75.4302 96.9112 75.4302C96.149 75.4302 95.6335 75.0048 95.6335 74.0265V73.4584C95.6335 72.9166 95.6335 72.3692 95.6183 71.8274H96.1227C96.1075 72.3595 96.1075 72.9055 96.1075 73.4584V73.8741C96.1075 74.7775 96.4483 75.0616 96.9846 75.0616ZM95.1874 72.038V71.8274H96.659V72.038L95.9758 72.117H95.8705L95.1874 72.038Z" fill="black"/>
<path d="M101.776 71.8273H102.039V75.3871L101.776 75.1252V71.8273ZM101.225 71.8273H102.487V72.0379L101.96 72.1169H101.855L101.225 72.0379V71.8273ZM99.4896 71.8273L99.7529 72.0379V75.3511H99.4896V71.8273ZM99.3732 71.9908L99.6989 72.1169L99.0684 72.0379V71.8273H99.8568L102.039 74.8301V75.3871H101.872L99.3732 71.9908ZM99.0421 75.1405L99.595 75.0615H99.6989L100.304 75.1405V75.3511H99.0421V75.1405Z" fill="black"/>
<path d="M103.465 73.4583C103.465 72.9164 103.465 72.3691 103.448 71.8273H103.954C103.937 72.3594 103.937 72.9054 103.937 73.4583V73.7215C103.937 74.262 103.937 74.8093 103.954 75.3511H103.448C103.465 74.8204 103.465 74.273 103.465 73.7215V73.4583ZM103.753 75.0615L104.438 75.1405V75.3511H102.965V75.1405L103.648 75.0615H103.753ZM102.965 72.0379V71.8273H104.438V72.0379L103.753 72.1169H103.648L102.965 72.0379Z" fill="black"/>
<path d="M107.566 72.1169L107.04 72.0642V71.8273H108.256V72.0379L107.671 72.1169H107.566ZM105.148 71.8273H105.652L106.704 74.8148H106.593L107.603 71.8273H107.887L106.683 75.3871H106.472L105.148 71.8273ZM105.52 72.1169L104.837 72.0379V71.8273H106.258V72.0642L105.626 72.1169H105.52Z" fill="black"/>
<path d="M110.383 73.4846L110.462 72.9275H110.699V74.1733H110.462L110.383 73.5899V73.4846ZM111.382 74.4144L111.346 75.3511H109.364V75.0878H111.162L110.925 75.3511L111.089 74.4144H111.382ZM110.552 73.673H109.364V73.4319H110.552V73.673ZM110.82 71.8273L111.057 72.0906H109.364V71.8273H111.241L111.277 72.764H110.983L110.82 71.8273ZM109.127 73.4583C109.127 72.9164 109.127 72.3691 109.111 71.8273H109.616C109.601 72.3594 109.601 72.9054 109.601 73.4583V73.6578C109.601 74.262 109.601 74.8093 109.616 75.3511H109.111C109.127 74.8204 109.127 74.273 109.127 73.7215V73.4583ZM109.364 75.0615V75.3511H108.628V75.1405L109.311 75.0615H109.364ZM108.628 72.0379V71.8273H109.364V72.1169H109.311L108.628 72.0379Z" fill="black"/>
<path d="M112.623 73.4846H113.28C113.848 73.4846 114.123 73.1797 114.123 72.7529C114.123 72.3123 113.886 72.0698 113.338 72.0698H112.623V71.8273H113.344C114.148 71.8273 114.621 72.1696 114.621 72.7529C114.621 73.2005 114.269 73.6051 113.581 73.6633L113.596 73.6204C113.974 73.6578 114.206 73.831 114.348 74.3049L114.606 75.1779L114.443 75.0781L114.984 75.1405V75.3511C114.889 75.383 114.763 75.4038 114.606 75.4038C114.279 75.4038 114.138 75.3192 114.074 75.0781L113.859 74.2204C113.754 73.795 113.56 73.7215 113.124 73.7215H112.623V73.4846ZM112.386 73.4583C112.386 72.9164 112.386 72.3691 112.371 71.8273H112.875C112.86 72.3746 112.86 72.8901 112.86 73.5109V73.6689C112.86 74.262 112.86 74.8093 112.875 75.3511H112.371C112.386 74.8204 112.386 74.273 112.386 73.7215V73.4583ZM112.676 75.0615L113.359 75.1405V75.3511H111.887V75.1405L112.571 75.0615H112.676ZM111.887 72.0379V71.8273H112.623V72.1169H112.571L111.887 72.0379Z" fill="black"/>
<path d="M117.194 74.5253C117.194 74.183 116.989 74.032 116.53 73.8518L116.331 73.7729C115.794 73.5636 115.427 73.2588 115.427 72.7225C115.427 72.117 115.937 71.7498 116.605 71.7498C116.957 71.7498 117.235 71.8592 117.461 72.0283L117.429 72.7114H117.115L116.967 71.9174L117.303 72.0906V72.3539C117.046 72.1017 116.852 72.0117 116.573 72.0117C116.163 72.0117 115.853 72.2167 115.853 72.6117C115.853 72.9428 116.069 73.1368 116.453 73.2851L116.658 73.3627C117.351 73.6315 117.619 73.9364 117.619 74.4311C117.619 75.0518 117.098 75.4301 116.378 75.4301C115.984 75.4301 115.6 75.304 115.358 75.1516L115.39 74.4144H115.706L115.841 75.2251L115.501 75.0782V74.8246C115.826 75.0615 116.005 75.1669 116.363 75.1669C116.863 75.1669 117.194 74.9355 117.194 74.5253Z" fill="black"/>
<path d="M118.597 73.4583C118.597 72.9164 118.597 72.3691 118.58 71.8273H119.086C119.07 72.3594 119.07 72.9054 119.07 73.4583V73.7215C119.07 74.262 119.07 74.8093 119.086 75.3511H118.58C118.597 74.8204 118.597 74.273 118.597 73.7215V73.4583ZM118.887 75.0615L119.57 75.1405V75.3511H118.097V75.1405L118.781 75.0615H118.887ZM118.097 72.0379V71.8273H119.57V72.0379L118.887 72.1169H118.781L118.097 72.0379Z" fill="black"/>
<path d="M121.238 73.4583C121.238 72.9164 121.238 72.3691 121.222 71.8273H121.727C121.711 72.3594 121.711 72.9054 121.711 73.4583V73.7215C121.711 74.262 121.711 74.8093 121.727 75.3511H121.222C121.238 74.8204 121.238 74.273 121.238 73.7215V73.4583ZM121.526 75.0615L122.264 75.1405V75.3511H120.685V75.1405L121.422 75.0615H121.526ZM120.222 72.0906L120.459 71.8273L120.292 72.764H119.997L120.04 71.8273H122.911L122.952 72.764H122.657L122.489 71.8273L122.726 72.0906H120.222Z" fill="black"/>
<path d="M125.79 72.1169L125.207 72.0379V71.8273H126.416V72.0379L125.89 72.1169H125.79ZM124.575 73.7728H125.049C125.049 74.3728 125.049 74.8827 125.064 75.3511H124.56C124.575 74.8938 124.575 74.3784 124.575 73.7728ZM124.865 75.0615L125.6 75.1405V75.3511H124.023V75.1405L124.759 75.0615H124.865ZM124.665 74.1677L123.513 71.8273H124.061L125.017 73.9003H124.833L125.816 71.8273H126.085L124.955 74.1677H124.665ZM123.218 72.0379V71.8273H124.691V72.0379L124.008 72.1169H123.903L123.218 72.0379Z" fill="black"/>
</g>
<defs>
<filter id="filter0_d_185_278" x="0" y="0" width="154" height="157" filterUnits="userSpaceOnUse" color-interpolation-filters="sRGB">
<feFlood flood-opacity="0" result="BackgroundImageFix"/>
<feColorMatrix in="SourceAlpha" type="matrix" values="0 0 0 0 0 0 0 0 0 0 0 0 0 0 0 0 0 0 127 0" result="hardAlpha"/>
<feOffset dy="16"/>
<feGaussianBlur stdDeviation="6.5"/>
<feColorMatrix type="matrix" values="0 0 0 0 0 0 0 0 0 0 0 0 0 0 0 0 0 0 0.03 0"/>
<feBlend mode="normal" in2="BackgroundImageFix" result="effect1_dropShadow_185_278"/>
<feBlend mode="normal" in="SourceGraphic" in2="effect1_dropShadow_185_278" result="shape"/>
</filter>
</defs>
</svg>
