<svg width="154" height="157" viewBox="0 0 154 157" fill="none" xmlns="http://www.w3.org/2000/svg">
<g filter="url(#filter0_d_185_172)">
<rect width="128" height="128" transform="translate(13)" fill="white"/>
<path fill-rule="evenodd" clip-rule="evenodd" d="M56.4115 71.9506V70.3793H57.0012C57.1212 70.3793 57.2176 70.3954 57.29 70.4268C57.3628 70.4587 57.4196 70.5077 57.4604 70.5739C57.5014 70.6398 57.5224 70.7089 57.5224 70.7813C57.5224 70.8484 57.504 70.9116 57.4675 70.9709C57.4312 71.0301 57.376 71.078 57.3025 71.1146C57.3977 71.1425 57.4703 71.19 57.5217 71.257C57.5728 71.3243 57.5985 71.4036 57.5985 71.4951C57.5985 71.5687 57.5827 71.6371 57.5516 71.7003C57.5205 71.7636 57.4821 71.8123 57.4363 71.8467C57.3906 71.8811 57.3331 71.9067 57.2645 71.9242C57.1957 71.9418 57.1111 71.9506 57.0109 71.9506H56.4115ZM56.6196 71.0396H56.9595C57.0514 71.0396 57.1177 71.0334 57.158 71.0213C57.2105 71.0056 57.2504 70.9796 57.2772 70.9431C57.3039 70.9065 57.3175 70.8608 57.3175 70.8059C57.3175 70.7539 57.3051 70.7078 57.2801 70.6683C57.2549 70.6284 57.219 70.6013 57.1731 70.5867C57.1264 70.5721 57.0467 70.5648 56.9336 70.5648H56.6196V71.0396ZM56.6196 71.7652H57.0109C57.0781 71.7652 57.1255 71.7626 57.1526 71.7578C57.2004 71.749 57.2402 71.7348 57.2725 71.7146C57.3046 71.6949 57.331 71.6656 57.3517 71.6275C57.3722 71.5892 57.3828 71.5452 57.3828 71.4951C57.3828 71.4366 57.368 71.3857 57.3378 71.3422C57.3079 71.299 57.2662 71.2687 57.2129 71.2511C57.1599 71.2339 57.083 71.2251 56.9831 71.2251H56.6196V71.7652Z" fill="#013A89"/>
<path fill-rule="evenodd" clip-rule="evenodd" d="M58.011 71.9506V70.3793H59.1469V70.5648H58.2187V71.0458H59.0879V71.2302H58.2187V71.7652H59.1834V71.9506H58.011Z" fill="#013A89"/>
<path fill-rule="evenodd" clip-rule="evenodd" d="M59.628 71.9506H59.8358V70.3793H59.628V71.9506Z" fill="#013A89"/>
<path fill-rule="evenodd" clip-rule="evenodd" d="M60.2184 71.5046L60.4062 71.4791C60.4109 71.599 60.4336 71.6813 60.4734 71.7256C60.5137 71.7698 60.5688 71.7918 60.6396 71.7918C60.6919 71.7918 60.7369 71.7801 60.7746 71.756C60.8126 71.7321 60.8385 71.6996 60.8529 71.6587C60.867 71.6173 60.8746 71.5518 60.8746 71.4618V70.3793H61.0822V71.4501C61.0822 71.5815 61.0664 71.6835 61.0346 71.7556C61.0028 71.8277 60.9523 71.8825 60.8835 71.9206C60.8145 71.9583 60.7336 71.9773 60.6407 71.9773C60.5026 71.9773 60.3973 71.9378 60.3237 71.8584C60.2507 71.779 60.2155 71.6612 60.2184 71.5046Z" fill="#013A89"/>
<path fill-rule="evenodd" clip-rule="evenodd" d="M61.5795 71.9506H61.7873V70.3793H61.5795V71.9506Z" fill="#013A89"/>
<path fill-rule="evenodd" clip-rule="evenodd" d="M62.2737 71.9506V70.3793H62.487L63.3124 71.6129V70.3793H63.5118V71.9506H63.2985L62.4731 70.7159V71.9506H62.2737Z" fill="#013A89"/>
<path fill-rule="evenodd" clip-rule="evenodd" d="M64.7182 71.3342V71.1502L65.3839 71.149V71.7318C65.2818 71.8134 65.1765 71.8745 65.0678 71.9158C64.9591 71.9568 64.8474 71.9773 64.7333 71.9773C64.5789 71.9773 64.4385 71.9444 64.3126 71.8782C64.1863 71.8123 64.0913 71.7165 64.0269 71.5917C63.9626 71.4666 63.9303 71.3269 63.9303 71.1725C63.9303 71.0195 63.9626 70.8768 64.0265 70.7444C64.0901 70.6116 64.1823 70.5132 64.3025 70.4488C64.4224 70.3848 64.5606 70.3526 64.7173 70.3526C64.8307 70.3526 64.9334 70.3709 65.0251 70.4079C65.1171 70.4444 65.1892 70.4957 65.241 70.5615C65.2934 70.6273 65.333 70.7129 65.3603 70.8187L65.1727 70.8703C65.1489 70.7901 65.1196 70.7272 65.0848 70.6815C65.0496 70.6358 64.9997 70.5992 64.9346 70.5717C64.8698 70.5443 64.7972 70.5304 64.7182 70.5304C64.6233 70.5304 64.5408 70.545 64.4717 70.5739C64.4022 70.6028 64.3465 70.6408 64.3039 70.6881C64.2615 70.7353 64.2285 70.7868 64.2046 70.8436C64.1648 70.9405 64.1448 71.0459 64.1448 71.1596C64.1448 71.2998 64.1688 71.4169 64.2171 71.5112C64.2652 71.6056 64.3357 71.6755 64.4279 71.7212C64.52 71.7669 64.6176 71.79 64.7213 71.79C64.8116 71.79 64.8995 71.7724 64.9851 71.7377C65.0709 71.7033 65.1357 71.6664 65.18 71.6268V71.3342H64.7182Z" fill="#013A89"/>
<path fill-rule="evenodd" clip-rule="evenodd" d="M67.3311 70.3793H67.5392V71.2873C67.5392 71.445 67.5213 71.5705 67.4855 71.6634C67.4497 71.7563 67.3853 71.8317 67.292 71.8899C67.1986 71.9484 67.0765 71.9773 66.925 71.9773C66.7779 71.9773 66.6572 71.9521 66.5639 71.9012C66.4703 71.8507 66.4031 71.7772 66.3633 71.681C66.3232 71.5848 66.3034 71.4538 66.3034 71.2873V70.3793H66.5113V71.2862C66.5113 71.4227 66.524 71.5233 66.5493 71.5876C66.5745 71.6525 66.6183 71.7022 66.6798 71.7373C66.7416 71.7724 66.8175 71.79 66.9066 71.79C67.0596 71.79 67.1687 71.7553 67.2338 71.6857C67.2986 71.6166 67.3311 71.4834 67.3311 71.2862V70.3793Z" fill="#013A89"/>
<path fill-rule="evenodd" clip-rule="evenodd" d="M68.0051 71.9506V70.3793H68.2185L69.0436 71.6129V70.3793H69.2431V71.9506H69.0297L68.2043 70.7159V71.9506H68.0051Z" fill="#013A89"/>
<path fill-rule="evenodd" clip-rule="evenodd" d="M69.7501 71.9506H69.9579V70.3793H69.7501V71.9506Z" fill="#013A89"/>
<path fill-rule="evenodd" clip-rule="evenodd" d="M70.8953 71.9506L70.2867 70.3793H70.512L70.9202 71.5207C70.9532 71.6121 70.9806 71.6982 71.0025 71.7779C71.027 71.6923 71.0553 71.6067 71.0874 71.5207L71.5119 70.3793H71.724L71.1086 71.9506H70.8953Z" fill="#013A89"/>
<path fill-rule="evenodd" clip-rule="evenodd" d="M72.0369 71.9506V70.3793H73.1728V70.5648H72.2448V71.0458H73.1139V71.2302H72.2448V71.7652H73.2093V71.9506H72.0369Z" fill="#013A89"/>
<path fill-rule="evenodd" clip-rule="evenodd" d="M73.622 71.9506V70.3793H74.3185C74.4585 70.3793 74.565 70.3935 74.6378 70.4217C74.7107 70.4499 74.7689 70.4997 74.8127 70.571C74.8563 70.6427 74.8778 70.7217 74.8778 70.808C74.8778 70.9196 74.842 71.0133 74.7696 71.0898C74.6975 71.1662 74.586 71.2149 74.4351 71.2357C74.4905 71.2621 74.532 71.288 74.5608 71.314C74.6213 71.3696 74.6788 71.4395 74.7333 71.5229L75.0067 71.9506H74.7451L74.5372 71.6235C74.4764 71.5295 74.4264 71.4571 74.3868 71.4073C74.3477 71.3572 74.3126 71.322 74.2815 71.3023C74.2503 71.2822 74.219 71.2683 74.1867 71.2602C74.1629 71.2555 74.1245 71.2529 74.0707 71.2529H73.8296V71.9506H73.622ZM73.8296 71.073H74.2767C74.3715 71.073 74.4462 71.0631 74.4995 71.0433C74.5532 71.0235 74.594 70.9921 74.6218 70.9489C74.6496 70.9057 74.6633 70.8589 74.6633 70.808C74.6633 70.7338 74.6367 70.6727 74.5827 70.6248C74.5287 70.5769 74.4436 70.553 74.3269 70.553H73.8296V71.073Z" fill="#013A89"/>
<path fill-rule="evenodd" clip-rule="evenodd" d="M75.2551 71.4457L75.4512 71.4285C75.4604 71.5072 75.4821 71.5716 75.516 71.6221C75.5499 71.6726 75.6027 71.7132 75.6739 71.7443C75.7453 71.7754 75.8257 71.7908 75.915 71.7908C75.9945 71.7908 76.0642 71.779 76.1251 71.7556C76.1859 71.7318 76.2311 71.6996 76.2608 71.6587C76.2905 71.6173 76.3054 71.5727 76.3054 71.524C76.3054 71.4747 76.2912 71.4319 76.2622 71.3949C76.2337 71.3579 76.1866 71.3272 76.121 71.3024C76.0786 71.2859 75.9858 71.2603 75.8413 71.2255C75.697 71.1907 75.5957 71.1582 75.5379 71.1275C75.463 71.0883 75.4069 71.0392 75.3699 70.9811C75.3333 70.923 75.3152 70.8578 75.3152 70.7854C75.3152 70.7064 75.3373 70.6321 75.3824 70.5633C75.4274 70.4941 75.4931 70.4418 75.5796 70.406C75.6664 70.3705 75.7621 70.3526 75.8679 70.3526C75.9846 70.3526 76.0871 70.3712 76.1762 70.4089C76.2653 70.4462 76.3336 70.5015 76.3815 70.5743C76.4291 70.6471 76.455 70.7298 76.4588 70.822L76.2594 70.837C76.2483 70.7378 76.212 70.6625 76.1503 70.612C76.0885 70.5611 75.9973 70.5359 75.8766 70.5359C75.7508 70.5359 75.6593 70.5589 75.6016 70.605C75.544 70.6511 75.5153 70.7067 75.5153 70.7715C75.5153 70.8282 75.5358 70.8746 75.5763 70.9109C75.6166 70.9474 75.7208 70.9847 75.8898 71.0228C76.0588 71.0612 76.1748 71.0945 76.2377 71.1231C76.3292 71.1655 76.3971 71.2189 76.4404 71.2833C76.484 71.3481 76.5055 71.4227 76.5055 71.5069C76.5055 71.5907 76.4819 71.6693 76.4338 71.7432C76.386 71.8171 76.3172 71.8745 76.2276 71.9158C76.138 71.9568 76.0369 71.9773 75.9249 71.9773C75.7826 71.9773 75.6633 71.9568 75.5676 71.9152C75.4712 71.8737 75.396 71.8116 75.3411 71.7282C75.2867 71.6451 75.2577 71.5508 75.2551 71.4457Z" fill="#013A89"/>
<path fill-rule="evenodd" clip-rule="evenodd" d="M76.9473 71.9506H77.1552V70.3793H76.9473V71.9506Z" fill="#013A89"/>
<path fill-rule="evenodd" clip-rule="evenodd" d="M78.0439 71.9506V70.5648H77.526V70.3793H78.7715V70.5648H78.2515V71.9506H78.0439Z" fill="#013A89"/>
<path fill-rule="evenodd" clip-rule="evenodd" d="M79.5492 71.9506V71.2851L78.9439 70.3793H79.1966L79.5065 70.8531C79.5636 70.9416 79.6166 71.0301 79.6659 71.119C79.7133 71.0367 79.7703 70.9442 79.8375 70.8413L80.142 70.3793H80.3843L79.7571 71.2851V71.9506H79.5492Z" fill="#013A89"/>
<path fill-rule="evenodd" clip-rule="evenodd" d="M81.0774 71.1853C81.0774 70.9244 81.1472 70.7203 81.2875 70.5728C81.4275 70.4254 81.6082 70.3515 81.83 70.3515C81.9748 70.3515 82.1058 70.3862 82.2222 70.4554C82.3384 70.5249 82.4273 70.6215 82.4886 70.7455C82.5496 70.8691 82.58 71.01 82.58 71.1669C82.58 71.3265 82.5482 71.4692 82.4836 71.5947C82.4193 71.7205 82.3283 71.8156 82.2105 71.8804C82.0924 71.9451 81.9653 71.9773 81.8289 71.9773C81.6806 71.9773 81.5486 71.9418 81.4324 71.8701C81.3155 71.7988 81.2273 71.7011 81.1675 71.5774C81.1074 71.4542 81.0774 71.3232 81.0774 71.1853ZM81.2917 71.1886C81.2917 71.3781 81.3426 71.527 81.4444 71.636C81.5465 71.745 81.674 71.7995 81.8277 71.7995C81.9844 71.7995 82.1131 71.7446 82.214 71.6345C82.3151 71.5244 82.366 71.3682 82.366 71.1659C82.366 71.0382 82.3439 70.9266 82.3007 70.8311C82.2576 70.7357 82.1944 70.6617 82.1112 70.6091C82.0278 70.5568 81.9347 70.5304 81.831 70.5304C81.6837 70.5304 81.5571 70.5808 81.451 70.6822C81.345 70.7832 81.2917 70.9522 81.2917 71.1886Z" fill="#013A89"/>
<path fill-rule="evenodd" clip-rule="evenodd" d="M82.9808 71.9506V70.3793H84.041V70.5648H83.1889V71.0513H83.9262V71.2369H83.1889V71.9506H82.9808Z" fill="#013A89"/>
<path fill-rule="evenodd" clip-rule="evenodd" d="M84.921 71.9506V70.3793H85.5135C85.6179 70.3793 85.6976 70.3844 85.7525 70.3943C85.8298 70.4071 85.8944 70.4316 85.9467 70.4678C85.9988 70.5037 86.0408 70.5546 86.0726 70.6193C86.1044 70.6844 86.1202 70.7557 86.1202 70.8336C86.1202 70.9672 86.0778 71.0806 85.9929 71.1732C85.9076 71.2654 85.7539 71.3118 85.5319 71.3118H85.1286V71.9506H84.921ZM85.1286 71.1264H85.5352C85.6693 71.1264 85.765 71.1014 85.8213 71.0513C85.8777 71.0012 85.9057 70.931 85.9057 70.8403C85.9057 70.7744 85.8895 70.7181 85.856 70.6712C85.8228 70.6244 85.7792 70.5937 85.7247 70.5786C85.6896 70.5695 85.6252 70.5648 85.531 70.5648H85.1286V71.1264Z" fill="#013A89"/>
<path fill-rule="evenodd" clip-rule="evenodd" d="M86.4438 71.1853C86.4438 70.9244 86.5136 70.7203 86.6538 70.5728C86.7938 70.4254 86.9746 70.3515 87.1964 70.3515C87.3411 70.3515 87.4722 70.3862 87.5884 70.4554C87.7048 70.5249 87.7937 70.6215 87.855 70.7455C87.916 70.8691 87.9464 71.01 87.9464 71.1669C87.9464 71.3265 87.9144 71.4692 87.85 71.5947C87.7857 71.7205 87.6947 71.8156 87.5768 71.8804C87.4585 71.9451 87.3317 71.9773 87.1952 71.9773C87.047 71.9773 86.915 71.9418 86.7986 71.8701C86.6819 71.7988 86.5937 71.7011 86.5339 71.5774C86.4738 71.4542 86.4438 71.3232 86.4438 71.1853ZM86.6581 71.1886C86.6581 71.3781 86.709 71.527 86.8108 71.636C86.9129 71.745 87.0404 71.7995 87.1941 71.7995C87.3508 71.7995 87.4795 71.7446 87.5804 71.6345C87.6815 71.5244 87.7322 71.3682 87.7322 71.1659C87.7322 71.0382 87.7103 70.9266 87.6671 70.8311C87.624 70.7357 87.5608 70.6617 87.4776 70.6091C87.3942 70.5568 87.3011 70.5304 87.1974 70.5304C87.0501 70.5304 86.9235 70.5808 86.8172 70.6822C86.7113 70.7832 86.6581 70.9522 86.6581 71.1886Z" fill="#013A89"/>
<path fill-rule="evenodd" clip-rule="evenodd" d="M88.2657 71.4457L88.4618 71.4285C88.471 71.5072 88.4927 71.5716 88.5266 71.6221C88.5606 71.6726 88.6134 71.7132 88.6848 71.7443C88.756 71.7754 88.8366 71.7908 88.9257 71.7908C89.0051 71.7908 89.0751 71.779 89.1357 71.7556C89.1965 71.7318 89.2417 71.6996 89.2714 71.6587C89.3011 71.6173 89.316 71.5727 89.316 71.524C89.316 71.4747 89.3018 71.4319 89.2728 71.3949C89.2443 71.3579 89.1972 71.3272 89.1317 71.3024C89.0892 71.2859 88.9964 71.2603 88.8519 71.2255C88.7076 71.1907 88.6063 71.1582 88.5485 71.1275C88.4736 71.0883 88.4177 71.0392 88.3805 70.9811C88.3439 70.923 88.3258 70.8578 88.3258 70.7854C88.3258 70.7064 88.3479 70.6321 88.393 70.5633C88.438 70.4941 88.5037 70.4418 88.5903 70.406C88.677 70.3705 88.7727 70.3526 88.8785 70.3526C88.9952 70.3526 89.0977 70.3712 89.1868 70.4089C89.2759 70.4462 89.3443 70.5015 89.3921 70.5743C89.4397 70.6471 89.4656 70.7298 89.4694 70.822L89.27 70.837C89.2589 70.7378 89.2229 70.6625 89.1609 70.612C89.0991 70.5611 89.0079 70.5359 88.8872 70.5359C88.7616 70.5359 88.6699 70.5589 88.6122 70.605C88.5547 70.6511 88.5259 70.7067 88.5259 70.7715C88.5259 70.8282 88.5462 70.8746 88.587 70.9109C88.6273 70.9474 88.7314 70.9847 88.9004 71.0228C89.0694 71.0612 89.1854 71.0945 89.2483 71.1231C89.3398 71.1655 89.4074 71.2189 89.451 71.2833C89.4946 71.3481 89.5163 71.4227 89.5163 71.5069C89.5163 71.5907 89.4925 71.6693 89.4444 71.7432C89.3966 71.8171 89.3278 71.8745 89.2382 71.9158C89.1486 71.9568 89.0475 71.9773 88.9356 71.9773C88.7932 71.9773 88.6739 71.9568 88.5782 71.9152C88.4818 71.8737 88.4066 71.8116 88.3517 71.7282C88.2973 71.6451 88.2683 71.5508 88.2657 71.4457Z" fill="#013A89"/>
<path fill-rule="evenodd" clip-rule="evenodd" d="M90.3225 71.9506V70.5648H89.8047V70.3793H91.0501V70.5648H90.5302V71.9506H90.3225Z" fill="#013A89"/>
<path fill-rule="evenodd" clip-rule="evenodd" d="M91.3149 71.4457L91.511 71.4285C91.5199 71.5072 91.5416 71.5716 91.5755 71.6221C91.6097 71.6726 91.6623 71.7132 91.7337 71.7443C91.8051 71.7754 91.8855 71.7908 91.9748 71.7908C92.0543 71.7908 92.124 71.779 92.1848 71.7556C92.2454 71.7318 92.2909 71.6996 92.3206 71.6587C92.3501 71.6173 92.3652 71.5727 92.3652 71.524C92.3652 71.4747 92.3508 71.4319 92.322 71.3949C92.2935 71.3579 92.2461 71.3272 92.1808 71.3024C92.1384 71.2859 92.0455 71.2603 91.9008 71.2255C91.7568 71.1907 91.6555 71.1582 91.5975 71.1275C91.5225 71.0883 91.4667 71.0392 91.4296 70.9811C91.3931 70.923 91.3747 70.8578 91.3747 70.7854C91.3747 70.7064 91.3971 70.6321 91.4421 70.5633C91.4872 70.4941 91.5529 70.4418 91.6394 70.406C91.7259 70.3705 91.8219 70.3526 91.9277 70.3526C92.0444 70.3526 92.1469 70.3712 92.236 70.4089C92.3248 70.4462 92.3934 70.5015 92.4413 70.5743C92.4889 70.6471 92.5148 70.7298 92.5184 70.822L92.3192 70.837C92.3081 70.7378 92.2718 70.6625 92.2101 70.612C92.1481 70.5611 92.0571 70.5359 91.9364 70.5359C91.8105 70.5359 91.7191 70.5589 91.6613 70.605C91.6038 70.6511 91.5748 70.7067 91.5748 70.7715C91.5748 70.8282 91.5954 70.8746 91.6361 70.9109C91.6762 70.9474 91.7806 70.9847 91.9496 71.0228C92.1186 71.0612 92.2346 71.0945 92.2975 71.1231C92.389 71.1655 92.4566 71.2189 92.5 71.2833C92.5436 71.3481 92.5653 71.4227 92.5653 71.5069C92.5653 71.5907 92.5415 71.6693 92.4936 71.7432C92.4455 71.8171 92.3769 71.8745 92.2871 71.9158C92.1976 71.9568 92.0967 71.9773 91.9847 71.9773C91.8424 71.9773 91.7231 71.9568 91.6272 71.9152C91.531 71.8737 91.4556 71.8116 91.4007 71.7282C91.3462 71.6451 91.3175 71.5508 91.3149 71.4457Z" fill="#013A89"/>
<path fill-rule="evenodd" clip-rule="evenodd" d="M93.7752 71.9506L94.3789 70.3793H94.6028L95.246 71.9506H95.0089L94.8255 71.4747H94.1686L93.9963 71.9506H93.7752ZM94.2285 71.3052H94.7617L94.5974 70.8702C94.5476 70.7382 94.5104 70.6295 94.4861 70.5443C94.4661 70.6452 94.4378 70.7451 94.4013 70.8446L94.2285 71.3052Z" fill="#013A89"/>
<path fill-rule="evenodd" clip-rule="evenodd" d="M95.532 71.9506V70.3793H95.7453L96.5707 71.6129V70.3793H96.7699V71.9506H96.5566L95.7314 70.7159V71.9506H95.532Z" fill="#013A89"/>
<path fill-rule="evenodd" clip-rule="evenodd" d="M97.2413 71.9506V70.3793H97.7824C97.9045 70.3793 97.9979 70.3869 98.0622 70.402C98.1523 70.4225 98.2291 70.4602 98.2927 70.5143C98.3755 70.5846 98.4377 70.6738 98.4787 70.7828C98.52 70.8918 98.5405 71.0162 98.5405 71.1563C98.5405 71.2756 98.5266 71.3814 98.4983 71.4736C98.4705 71.5657 98.4351 71.6422 98.391 71.7026C98.3477 71.7629 98.3 71.8105 98.2482 71.8449C98.1966 71.8797 98.1339 71.9059 98.0608 71.9239C97.9873 71.9418 97.9031 71.9506 97.8084 71.9506H97.2413ZM97.4492 71.7652H97.7846C97.888 71.7652 97.9696 71.7556 98.0285 71.7362C98.0874 71.7168 98.1343 71.6897 98.1695 71.6546C98.2187 71.6056 98.2574 71.539 98.2847 71.4559C98.3121 71.3726 98.326 71.2719 98.326 71.1531C98.326 70.9888 98.2989 70.8626 98.2451 70.7744C98.1909 70.6859 98.1256 70.627 98.0483 70.597C97.9927 70.5753 97.9026 70.5648 97.7794 70.5648H97.4492V71.7652Z" fill="#013A89"/>
<path fill-rule="evenodd" clip-rule="evenodd" d="M99.7969 71.9506V70.5648H99.2793V70.3793H100.524V70.5648H100.005V71.9506H99.7969Z" fill="#013A89"/>
<path fill-rule="evenodd" clip-rule="evenodd" d="M100.864 71.9506V70.3793H102V70.5648H101.072V71.0458H101.941V71.2302H101.072V71.7652H102.037V71.9506H100.864Z" fill="#013A89"/>
<path fill-rule="evenodd" clip-rule="evenodd" d="M102.437 71.9506V70.3793H102.645V71.7652H103.419V71.9506H102.437Z" fill="#013A89"/>
<path fill-rule="evenodd" clip-rule="evenodd" d="M103.793 71.9506V70.3793H104.929V70.5648H104.001V71.0458H104.87V71.2302H104.001V71.7652H104.965V71.9506H103.793Z" fill="#013A89"/>
<path fill-rule="evenodd" clip-rule="evenodd" d="M106.496 71.3996L106.704 71.4524C106.66 71.6228 106.582 71.7531 106.469 71.8431C106.355 71.9327 106.217 71.9773 106.053 71.9773C105.884 71.9773 105.746 71.943 105.64 71.8741C105.534 71.805 105.453 71.7051 105.398 71.5745C105.343 71.4435 105.315 71.303 105.315 71.1531C105.315 70.9895 105.346 70.8468 105.408 70.725C105.471 70.6031 105.56 70.5106 105.675 70.4473C105.791 70.384 105.918 70.3526 106.056 70.3526C106.214 70.3526 106.346 70.3925 106.453 70.4726C106.56 70.5527 106.635 70.665 106.677 70.8103L106.472 70.8586C106.436 70.7441 106.383 70.6609 106.313 70.6086C106.244 70.5563 106.157 70.5304 106.052 70.5304C105.931 70.5304 105.83 70.5593 105.749 70.6171C105.668 70.6752 105.611 70.7528 105.579 70.8505C105.546 70.9478 105.529 71.0485 105.529 71.152C105.529 71.2859 105.549 71.4022 105.587 71.5021C105.626 71.6016 105.687 71.6763 105.769 71.7256C105.851 71.7751 105.94 71.7995 106.036 71.7995C106.152 71.7995 106.251 71.7658 106.332 71.6989C106.413 71.6316 106.467 71.5317 106.496 71.3996Z" fill="#013A89"/>
<path fill-rule="evenodd" clip-rule="evenodd" d="M107.019 71.1853C107.019 70.9244 107.089 70.7203 107.229 70.5728C107.369 70.4254 107.55 70.3515 107.771 70.3515C107.916 70.3515 108.047 70.3862 108.163 70.4554C108.28 70.5249 108.369 70.6215 108.43 70.7455C108.491 70.8691 108.521 71.01 108.521 71.1669C108.521 71.3265 108.49 71.4692 108.425 71.5947C108.361 71.7205 108.27 71.8156 108.152 71.8804C108.033 71.9451 107.907 71.9773 107.77 71.9773C107.622 71.9773 107.49 71.9418 107.374 71.8701C107.257 71.7988 107.169 71.7011 107.109 71.5774C107.049 71.4542 107.019 71.3232 107.019 71.1853ZM107.233 71.1886C107.233 71.3781 107.284 71.527 107.386 71.636C107.488 71.745 107.615 71.7995 107.769 71.7995C107.926 71.7995 108.054 71.7446 108.155 71.6345C108.256 71.5244 108.307 71.3682 108.307 71.1659C108.307 71.0382 108.285 70.9266 108.242 70.8311C108.199 70.7357 108.136 70.6617 108.053 70.6091C107.969 70.5568 107.876 70.5304 107.772 70.5304C107.625 70.5304 107.498 70.5808 107.392 70.6822C107.286 70.7832 107.233 70.9522 107.233 71.1886Z" fill="#013A89"/>
<path fill-rule="evenodd" clip-rule="evenodd" d="M108.905 71.9506V70.3793H109.218L109.59 71.4918C109.624 71.5953 109.649 71.673 109.665 71.7245C109.683 71.6674 109.711 71.5833 109.748 71.4724L110.125 70.3793H110.404V71.9506H110.204V70.6353L109.747 71.9506H109.56L109.105 70.613V71.9506H108.905Z" fill="#013A89"/>
<path fill-rule="evenodd" clip-rule="evenodd" d="M110.855 71.9506V70.3793H111.168L111.54 71.4918C111.574 71.5953 111.6 71.673 111.615 71.7245C111.633 71.6674 111.661 71.5833 111.699 71.4724L112.075 70.3793H112.355V71.9506H112.154V70.6353L111.698 71.9506H111.51L111.056 70.613V71.9506H110.855Z" fill="#013A89"/>
<path fill-rule="evenodd" clip-rule="evenodd" d="M113.843 70.3793H114.051V71.2873C114.051 71.445 114.033 71.5705 113.998 71.6634C113.962 71.7563 113.897 71.8317 113.804 71.8899C113.711 71.9484 113.589 71.9773 113.437 71.9773C113.29 71.9773 113.169 71.9521 113.076 71.9012C112.982 71.8507 112.916 71.7772 112.876 71.681C112.835 71.5848 112.816 71.4538 112.816 71.2873V70.3793H113.023V71.2862C113.023 71.4227 113.036 71.5233 113.061 71.5876C113.087 71.6525 113.131 71.7022 113.192 71.7373C113.254 71.7724 113.33 71.79 113.419 71.79C113.572 71.79 113.681 71.7553 113.746 71.6857C113.811 71.6166 113.843 71.4834 113.843 71.2862V70.3793Z" fill="#013A89"/>
<path fill-rule="evenodd" clip-rule="evenodd" d="M114.517 71.9506V70.3793H114.731L115.556 71.6129V70.3793H115.755V71.9506H115.542L114.717 70.7159V71.9506H114.517Z" fill="#013A89"/>
<path fill-rule="evenodd" clip-rule="evenodd" d="M116.262 71.9506H116.47V70.3793H116.262V71.9506Z" fill="#013A89"/>
<path fill-rule="evenodd" clip-rule="evenodd" d="M118.08 71.3996L118.288 71.4524C118.244 71.6228 118.166 71.7531 118.053 71.8431C117.939 71.9327 117.801 71.9773 117.637 71.9773C117.467 71.9773 117.33 71.943 117.224 71.8741C117.118 71.805 117.037 71.7051 116.982 71.5745C116.927 71.4435 116.899 71.303 116.899 71.1531C116.899 70.9895 116.93 70.8468 116.992 70.725C117.055 70.6031 117.144 70.5106 117.259 70.4473C117.375 70.384 117.502 70.3526 117.64 70.3526C117.797 70.3526 117.93 70.3925 118.037 70.4726C118.144 70.5527 118.219 70.665 118.261 70.8103L118.056 70.8586C118.02 70.7441 117.967 70.6609 117.897 70.6086C117.828 70.5563 117.741 70.5304 117.636 70.5304C117.515 70.5304 117.414 70.5593 117.333 70.6171C117.252 70.6752 117.195 70.7528 117.162 70.8505C117.129 70.9478 117.113 71.0485 117.113 71.152C117.113 71.2859 117.132 71.4022 117.171 71.5021C117.21 71.6016 117.271 71.6763 117.353 71.7256C117.435 71.7751 117.524 71.7995 117.62 71.7995C117.736 71.7995 117.835 71.7658 117.916 71.6989C117.997 71.6316 118.051 71.5317 118.08 71.3996Z" fill="#013A89"/>
<path fill-rule="evenodd" clip-rule="evenodd" d="M118.493 71.9506L119.097 70.3793H119.321L119.964 71.9506H119.727L119.543 71.4747H118.886L118.714 71.9506H118.493ZM118.946 71.3052H119.479L119.315 70.8702C119.265 70.7382 119.228 70.6295 119.204 70.5443C119.184 70.6452 119.156 70.7451 119.119 70.8446L118.946 71.3052Z" fill="#013A89"/>
<path fill-rule="evenodd" clip-rule="evenodd" d="M120.489 71.9506V70.5648H119.971V70.3793H121.217V70.5648H120.697V71.9506H120.489Z" fill="#013A89"/>
<path fill-rule="evenodd" clip-rule="evenodd" d="M121.587 71.9506H121.795V70.3793H121.587V71.9506Z" fill="#013A89"/>
<path fill-rule="evenodd" clip-rule="evenodd" d="M122.221 71.1853C122.221 70.9244 122.29 70.7203 122.431 70.5728C122.571 70.4254 122.752 70.3515 122.973 70.3515C123.118 70.3515 123.249 70.3862 123.365 70.4554C123.482 70.5249 123.571 70.6215 123.632 70.7455C123.693 70.8691 123.723 71.01 123.723 71.1669C123.723 71.3265 123.691 71.4692 123.627 71.5947C123.563 71.7205 123.471 71.8156 123.354 71.8804C123.235 71.9451 123.109 71.9773 122.972 71.9773C122.824 71.9773 122.692 71.9418 122.575 71.8701C122.459 71.7988 122.371 71.7011 122.311 71.5774C122.251 71.4542 122.221 71.3232 122.221 71.1853ZM122.435 71.1886C122.435 71.3781 122.486 71.527 122.588 71.636C122.69 71.745 122.817 71.7995 122.971 71.7995C123.127 71.7995 123.256 71.7446 123.357 71.6345C123.458 71.5244 123.509 71.3682 123.509 71.1659C123.509 71.0382 123.487 70.9266 123.444 70.8311C123.401 70.7357 123.337 70.6617 123.254 70.6091C123.171 70.5568 123.078 70.5304 122.974 70.5304C122.827 70.5304 122.7 70.5808 122.594 70.6822C122.488 70.7832 122.435 70.9522 122.435 71.1886Z" fill="#013A89"/>
<path fill-rule="evenodd" clip-rule="evenodd" d="M124.111 71.9506V70.3793H124.324L125.15 71.6129V70.3793H125.349V71.9506H125.136L124.31 70.7159V71.9506H124.111Z" fill="#013A89"/>
<path fill-rule="evenodd" clip-rule="evenodd" d="M125.75 71.4457L125.946 71.4285C125.955 71.5072 125.977 71.5716 126.011 71.6221C126.045 71.6726 126.097 71.7132 126.169 71.7443C126.24 71.7754 126.321 71.7908 126.41 71.7908C126.489 71.7908 126.559 71.779 126.62 71.7556C126.681 71.7318 126.726 71.6996 126.756 71.6587C126.785 71.6173 126.8 71.5727 126.8 71.524C126.8 71.4747 126.786 71.4319 126.757 71.3949C126.728 71.3579 126.681 71.3272 126.616 71.3024C126.573 71.2859 126.48 71.2603 126.336 71.2255C126.192 71.1907 126.09 71.1582 126.033 71.1275C125.958 71.0883 125.902 71.0392 125.865 70.9811C125.828 70.923 125.81 70.8578 125.81 70.7854C125.81 70.7064 125.832 70.6321 125.877 70.5633C125.922 70.4941 125.988 70.4418 126.074 70.406C126.161 70.3705 126.257 70.3526 126.363 70.3526C126.479 70.3526 126.582 70.3712 126.671 70.4089C126.76 70.4462 126.828 70.5015 126.876 70.5743C126.924 70.6471 126.95 70.7298 126.954 70.822L126.754 70.837C126.743 70.7378 126.707 70.6625 126.645 70.612C126.583 70.5611 126.492 70.5359 126.371 70.5359C126.245 70.5359 126.154 70.5589 126.096 70.605C126.039 70.6511 126.01 70.7067 126.01 70.7715C126.01 70.8282 126.03 70.8746 126.071 70.9109C126.111 70.9474 126.216 70.9847 126.385 71.0228C126.554 71.0612 126.67 71.0945 126.732 71.1231C126.824 71.1655 126.892 71.2189 126.935 71.2833C126.979 71.3481 127 71.4227 127 71.5069C127 71.5907 126.976 71.6693 126.929 71.7432C126.881 71.8171 126.812 71.8745 126.722 71.9158C126.633 71.9568 126.532 71.9773 126.42 71.9773C126.277 71.9773 126.158 71.9568 126.062 71.9152C125.966 71.8737 125.891 71.8116 125.836 71.7282C125.781 71.6451 125.752 71.5508 125.75 71.4457Z" fill="#013A89"/>
<path fill-rule="evenodd" clip-rule="evenodd" d="M59.5263 61.8745C59.5263 61.8745 60.2881 59.1761 59.598 59.1268C58.9081 59.0776 58.4645 59.7676 58.6616 60.9011C58.8588 62.0347 58.7603 61.5419 58.7603 61.5419C58.7603 61.5419 56.9367 61.739 56.9367 62.2318C56.9367 62.7247 57.5281 62.8726 58.366 62.5769C59.2037 62.2811 58.366 63.809 58.366 64.1048C58.366 64.4005 56.9859 65.4847 56.5424 65.534C56.0988 65.5833 56.4438 66.7661 57.8731 65.8791C59.3024 64.9919 61.7667 63.5626 61.7667 63.5626C61.7667 63.5626 61.7667 64.8933 62.6046 65.3369C63.4423 65.7804 61.4709 65.9283 61.816 66.2733C62.161 66.6183 63.6396 66.3719 64.428 65.4355C65.2167 64.499 63.4423 64.499 62.9002 64.154C62.3581 63.809 62.999 61.9361 64.8716 61.9854C66.7445 62.0347 65.0196 60.8519 63.3931 61.1476C63.3931 61.1476 63.6889 57.9933 62.6539 57.944C61.6189 57.8947 61.1258 57.5497 61.7667 58.8311C62.4073 60.1126 61.9145 62.1333 61.9145 62.1333C61.9145 62.1333 59.8938 63.6119 59.4502 63.7597C59.0066 63.9076 59.5263 61.8745 59.5263 61.8745Z" fill="#013A89"/>
<path fill-rule="evenodd" clip-rule="evenodd" d="M71.5625 58.6748C71.455 58.7286 72.0464 57.4923 71.67 57.2236C71.2938 56.9548 74.4114 56.901 73.9276 57.8148C73.4439 58.7286 71.67 58.6211 71.5625 58.6748ZM67.4775 61.6312C67.9075 61.4161 74.4114 58.0836 77.0452 58.5136C77.0452 58.5136 77.8513 59.3198 75.8627 59.7499C73.8738 60.1799 67.8 62.8674 67.8 62.8674C67.8 62.8674 67.0474 61.8462 67.4775 61.6312ZM72.1046 64.3137C72.1046 64.3137 70.3298 64.1165 71.0793 62.8544C71.6881 61.8289 73.2864 60.5954 74.1816 61.1206C74.7817 61.4727 74.6976 61.7605 74.4124 62.2097C74.1618 62.6048 73.7859 63.1502 73.5641 63.2489L73.3668 64.5898C73.3668 64.5898 75.891 64.3531 75.457 65.9702C75.457 65.9702 74.3924 66.5618 73.8795 65.7335C73.8795 65.7335 73.3668 65.0631 73.2879 65.2603C73.2089 65.4574 73.5641 67.8238 72.0653 66.6407C72.0653 66.6407 71.04 65.4969 71.9469 65.8519L72.1046 64.3137ZM73.0022 61.8261C73.0022 61.8261 71.7819 62.6766 72.7064 62.7506C72.7064 62.7506 73.15 62.8615 73.446 62.085C73.7418 61.3084 73.0022 61.8261 73.0022 61.8261ZM71.3751 65.4131C71.4121 65.3391 70.7095 65.8199 70.3027 65.8199C69.8959 65.8199 68.8604 65.7459 69.3412 66.4485C69.8221 67.151 70.7835 67.4099 71.0793 66.8922C71.3751 66.3745 71.3381 65.487 71.3751 65.4131Z" fill="#013A89"/>
<path fill-rule="evenodd" clip-rule="evenodd" d="M80.4392 58.659C80.4392 58.659 82.1096 56.71 82.3184 56.4664C82.5273 56.2228 84.337 56.5708 83.467 57.3017C82.597 58.0325 82.2836 58.0325 82.2836 58.0325L82.4 58.3599C82.4 58.3599 84.6502 57.5801 83.9542 58.8678L82.5622 59.7031C82.5622 59.7031 82.0401 60.3296 83.0145 60.0164C83.9891 59.7031 85.1028 59.8075 84.1979 60.8864C83.2931 61.9653 83.2931 61.6869 83.2931 61.6869C83.2931 61.6869 83.0145 62.1045 84.163 62.1045C85.3116 62.1045 84.0586 63.0442 82.9449 63.1138L82.771 63.7055C82.771 63.7055 83.001 63.715 83.2594 63.7349C83.9964 63.7921 84.2385 63.9457 83.4248 64.4588C82.585 64.9883 81.0068 64.956 80.9613 64.7844C80.9054 64.5748 80.7524 64.5059 81.5875 64.2623C82.4229 64.0188 81.7964 63.7403 81.4485 63.8099C81.2868 63.8422 81.0652 63.9645 80.8743 64.0863C80.5181 64.3132 80.5658 64.4663 80.2336 64.2137C80.0644 64.0849 79.9133 63.9067 80.1955 63.8099C80.6706 63.6468 81.2047 63.2531 81.2047 63.2531C81.2047 63.2531 80.9613 62.2438 80.5087 62.557C80.0562 62.8702 78.3508 63.0094 79.2557 62.2438C80.1606 61.4781 80.9264 60.6428 80.9264 60.6428C80.9264 60.6428 80.1955 60.0859 80.822 59.8075C81.4485 59.5291 81.5529 59.355 81.5529 59.355L81.5875 58.485L80.4392 58.659ZM81.5654 60.9223C82.0214 60.8565 81.8607 60.6564 81.8018 60.3906C81.7601 60.2026 80.9356 61.0129 81.5654 60.9223ZM85.4264 59.4149C86.0899 58.8931 87.3691 58.0773 88.0778 58.871C89.0638 59.9753 87.0919 61.0401 87.0919 61.0401C87.0919 61.0401 89.2611 62.9727 85.8297 64.5898C85.8297 64.5898 85.8693 69.3227 85.4354 69.4015C85.0625 69.4693 84.7188 68.8963 84.6547 65.9553C84.6227 64.4896 84.6389 63.0043 84.7316 61.5412C84.7582 61.1209 84.7884 60.8006 84.8185 60.5564C84.9095 59.8248 84.9079 59.8225 85.4264 59.4149ZM86.8041 60.359C86.8041 60.359 86.6231 60.7861 86.3235 60.8847C86.0239 60.9833 87.6505 62.2318 87.0318 62.9219C86.4133 63.6119 85.5513 63.809 85.5513 63.809L85.5582 60.8518C85.561 59.6485 87.2298 59.24 86.8041 60.359Z" fill="#013A89"/>
<path fill-rule="evenodd" clip-rule="evenodd" d="M93.8756 57.3328C93.8756 57.3328 94.0726 56.1102 95.2559 57.1751C96.4391 58.2399 94.3882 58.2793 94.3882 58.2793L92.1007 60.0148C92.1007 60.0148 91.5879 61.0402 93.7573 59.8964C95.9264 58.7527 95.2165 58.516 97.8983 58.9104C97.8983 58.9104 99.9888 60.0936 97.228 61.119C97.228 61.119 96.2024 61.2374 97.4646 60.3303C98.7266 59.4231 96.3208 59.1076 95.9264 59.4231C95.5814 59.6992 95.055 59.8243 95.9592 60.2212C96.4572 60.4398 96.6805 60.4648 96.4728 61.1794C96.3788 61.5029 96.1332 61.9374 95.5715 62.4995C95.5715 62.4995 94.6666 62.9352 96.1626 63.0342C96.6373 63.0654 96.7512 63.0184 96.861 63.6071C96.9522 64.0956 96.746 64.8253 95.1771 65.4574C95.1771 65.4574 94.3887 67.0339 97.1493 66.6694C97.3531 66.6426 97.954 66.5541 97.697 67.0086C97.3649 67.5954 94.4672 67.3694 94.4672 65.9702L92.831 65.9668C91.103 65.9632 92.2221 64.3889 93.0473 63.2883C90.7299 63.4814 93.5779 60.5996 93.8716 60.8364C94.4205 61.2787 93.8544 61.4295 93.5341 61.6886C93.0511 62.0792 92.5641 62.6277 93.4023 62.7756C94.5521 62.9783 94.2553 62.9209 94.3043 62.1702L94.364 61.2607C94.4057 60.6255 94.7449 60.2135 93.9845 60.3037C93.4765 60.364 92.6443 60.6076 92.1007 61.5134C91.2725 62.8938 91.7001 62.5055 91.5879 62.6178C91.4759 62.73 90.8409 63.1593 90.9175 61.3557C90.9423 60.7703 92.224 59.1263 93.0834 58.399C93.8772 57.7274 93.8171 58.5599 93.8756 57.3328ZM94.0394 64.2012C94.1756 63.5773 93.1463 63.9717 93.1463 64.7234C93.1463 65.4751 93.8949 65.2756 94.3545 65.1529C95.5998 64.8208 93.8409 65.1077 94.0394 64.2012ZM95.1967 64.6101C95.1295 64.6038 95.1962 63.0045 96.0747 63.6476C97.0689 64.3754 95.5493 64.643 95.1967 64.6101Z" fill="#013A89"/>
<path fill-rule="evenodd" clip-rule="evenodd" d="M102.659 60.4579L104.212 60.1251C104.212 60.1251 104.377 57.9433 104.155 57.6845C103.933 57.4257 105.869 57.5568 105.861 58.3668C105.853 59.1768 105.617 59.0527 105.395 59.0897C105.174 59.1267 105.395 59.8293 105.395 59.8293C105.395 59.8293 106.801 59.1267 106.801 59.9402C106.801 60.7537 105.543 60.347 104.989 60.8277C104.573 61.1882 104.487 61.4794 104.841 61.6943C105.253 61.9451 105.349 61.5964 105.893 62.1858C106.652 63.0081 108.109 64.7018 109.611 64.6118C109.611 64.6118 108.329 66.1278 106.357 64.2667C105.895 63.8305 105.809 63.4455 105.535 63.1456C104.714 62.2461 104.397 61.9001 104.397 61.9001C104.397 61.9001 101.993 65.0063 101.069 65.0802C100.144 65.1542 103.14 63.2683 103.51 61.7152C103.51 61.7152 103.916 61.1605 103.288 61.1975C102.473 61.3582 102.363 60.4951 102.659 60.4579Z" fill="#013A89"/>
<path fill-rule="evenodd" clip-rule="evenodd" d="M115.16 59.5376C115.16 59.5376 114.864 61.2461 114.01 60.4904C114.01 60.4904 113.517 60.1619 113.352 60.9504C113.188 61.739 111.972 61.4433 112.071 60.0632C112.17 58.6833 112.63 57.2047 113.484 57.9932C113.484 57.9932 113.813 59.1761 114.043 58.1575C114.272 57.139 114.897 56.7447 114.963 57.8618C115.028 58.979 115.784 59.1432 115.817 57.8947C115.85 56.6461 115.587 56.1861 116.047 56.0546C116.507 55.9232 116.474 56.2189 116.507 56.5475C116.54 56.8761 117.493 56.1861 117.525 56.7775C117.558 57.3689 117 57.4675 116.737 57.5332C116.737 57.5332 116.46 57.8947 116.657 57.951C116.854 58.0073 117.896 57.5285 117.417 58.2326C116.939 58.9367 116.77 58.5143 116.572 58.7114C116.375 58.9086 117.361 58.993 117.361 59.5845C117.361 60.1759 117.079 60.4857 117.079 60.4857C117.079 60.4857 118.797 60.3167 119.023 60.7673C119.248 61.218 119.192 62.3163 117.586 62.2881C115.981 62.26 117.164 61.9221 117.361 61.8094C117.558 61.6967 117.615 61.2461 116.516 61.5277C115.418 61.8094 114.038 62.6261 113.503 62.7388C112.968 62.8514 112.32 62.26 112.742 62.0065C113.165 61.753 115.362 61.2461 115.728 61.0771C116.094 60.9082 116.91 60.0351 115.728 59.5C115.687 59.4817 115.243 59.4949 115.16 59.5376ZM112.179 61.8094C112.038 61.7249 110.461 62.8796 110.996 64.2033C111.163 64.6169 111.377 64.4566 111.586 64.4394C112.044 64.4014 112.475 63.8653 112.32 63.2457C112.095 62.3445 112.32 61.8939 112.179 61.8094ZM114.995 64.147C114.995 64.147 115.39 63.2457 114.291 63.2739C113.193 63.302 114.291 62.5979 115.164 62.429C116.037 62.26 116.854 61.753 116.657 62.8514C116.657 62.8514 116.741 63.2457 116.094 63.5837L116.122 64.0906C116.122 64.0906 118.15 63.5555 117.755 64.2877C117.361 65.02 116.995 65.0482 116.432 65.02C116.432 65.02 116.46 67.1604 115.502 67.4984C114.545 67.8364 113.784 67.3857 113.982 66.8788C114.179 66.3719 114.179 66.3155 114.826 66.5127C115.474 66.7098 115.164 65.6678 115.136 65.358C115.108 65.0482 114.094 65.4988 113.7 65.9213C113.306 66.3437 111.362 65.4706 112.63 65.1045C113.897 64.7384 114.995 64.147 114.995 64.147Z" fill="#013A89"/>
<path fill-rule="evenodd" clip-rule="evenodd" d="M51.721 64C51.721 57.1736 46.1869 51.6395 39.3605 51.6395C32.534 51.6395 27 57.1736 27 64C27 70.8265 32.534 76.3605 39.3605 76.3605C46.1869 76.3605 51.721 70.8265 51.721 64ZM51.3869 64C51.3869 57.358 46.0024 51.9735 39.3604 51.9735C32.7184 51.9735 27.334 57.358 27.334 64C27.334 70.642 32.7184 76.0264 39.3604 76.0264C46.0024 76.0264 51.3869 70.642 51.3869 64Z" fill="#013A89"/>
<path fill-rule="evenodd" clip-rule="evenodd" d="M48.9479 63.9999C48.9479 58.7049 44.6553 54.4122 39.3602 54.4122C34.0651 54.4122 29.7725 58.7049 29.7725 63.9999C29.7725 69.2951 34.0651 73.5877 39.3602 73.5877C44.6553 73.5877 48.9479 69.2951 48.9479 63.9999ZM48.8147 64C48.8147 58.7787 44.5819 54.5459 39.3606 54.5459C34.1392 54.5459 29.9065 58.7787 29.9065 64C29.9065 69.2213 34.1392 73.4541 39.3606 73.4541C44.5819 73.4541 48.8147 69.2213 48.8147 64Z" fill="#013A89"/>
<path fill-rule="evenodd" clip-rule="evenodd" d="M29.8438 64.1307C29.8438 64.1307 29.879 64.2785 29.872 64.3841H43.2239C43.2239 64.3841 41.8233 61.3857 41.6473 61.0337C41.5824 60.904 41.5981 60.7874 41.8162 60.9352C42.0344 61.0831 42.4849 61.3927 43.1676 62.8567C43.1676 62.8567 43.7659 62.5892 43.8996 62.533C44.0333 62.4767 44.0333 62.4203 43.9208 62.2233C43.6826 61.8066 43.4905 61.4307 43.224 61.0167C43.027 60.7108 42.751 60.4682 42.4074 60.161C42.3344 60.0956 42.2596 60.0554 42.6538 59.7738C42.6538 59.7738 42.8149 59.9119 43.0738 60.1515C43.2755 60.3381 43.4436 60.4901 43.6598 60.7817C43.8987 61.1041 44.1904 61.5865 44.5207 62.2409C44.5207 62.2409 45.3443 61.866 45.4974 61.771C45.4974 61.771 45.5237 61.6724 45.4591 61.5016C45.3682 61.2615 45.1593 60.8944 44.9846 60.5939C44.6705 60.0533 44.493 59.8035 43.4756 58.8729C43.3146 58.7257 43.4333 58.646 43.5336 58.5193C43.6339 58.3926 43.7395 58.2711 43.9559 58.4718C44.0611 58.5693 44.4032 58.8027 44.8471 59.3647C45.3165 59.9591 45.9209 61.1163 46.437 62.4784L47.8412 62.167C47.8412 62.167 47.4822 60.0185 45.8616 58.2289C45.7257 58.0789 44.63 56.7831 42.714 55.9728C41.7571 55.5682 40.5588 55.3203 39.2472 55.3255C38.4234 55.3289 35.9849 55.4206 33.8047 57.3052C33.7534 57.3807 33.715 57.4371 33.8892 57.4794C34.0189 57.5107 35.4657 57.824 36.7086 59.0941C36.9774 59.3688 37.1154 59.5135 37.3045 59.8658C37.7257 60.6505 37.7983 60.9524 37.9169 61.4649C37.9734 61.7088 38.0753 62.8268 37.009 63.3494C36.7944 63.4546 35.9743 63.946 34.7179 63.6028C34.0249 63.4607 33.3824 63.1066 32.7384 63.1224C32.0944 63.1382 31.7512 63.2228 30.8485 63.8879C30.7038 63.9945 30.4508 64.2468 29.8438 64.1307ZM33.5754 70.4167L34.6489 69.3122C34.6489 69.3122 36.4966 71.0826 39.3458 71.0619C40.2574 71.0553 41.2916 70.907 42.2154 70.3702C42.2154 70.3702 41.8284 69.5238 41.7974 69.4361C41.7974 69.4361 42.2619 69.1986 42.3393 69.1573C42.4167 69.116 42.4838 69.1213 42.551 69.2709C42.618 69.4206 42.8296 69.9573 42.9896 70.0812C42.9896 70.0812 43.6242 69.675 44.2774 69.0669C45.0639 68.3346 45.924 67.2494 46.3497 65.4309C46.4244 65.1114 46.5974 64.1869 46.5251 63.3199L48.0271 63.2063C48.0271 63.2063 48.0554 64.8346 47.6192 66.4218C47.5308 66.7432 47.309 67.2229 47.0776 67.6864C46.8209 68.2005 46.5475 68.6971 46.329 68.987C46.1383 69.2401 45.0438 71.0309 42.5097 71.9806C42.2559 72.0757 38.5613 73.4826 35.0463 71.4696C34.7743 71.3139 34.1224 70.938 33.5754 70.4167ZM41.1602 68.1637L41.4601 68.7972L42.1147 68.4846L41.8233 67.8597L41.1602 68.1637ZM40.6577 67.1671L40.9575 67.8005L41.6206 67.5007L41.3165 66.863L40.6577 67.1671ZM40.1552 66.1451L40.4423 66.7659L41.0969 66.4576L40.8013 65.8452L40.1552 66.1451ZM32.9693 71.2773L31.5977 72.748L31.3696 72.5311C31.3299 72.4934 31.3048 72.4571 31.2941 72.4226C31.2833 72.3881 31.2812 72.3485 31.2871 72.3042C31.293 72.2599 31.3114 72.2074 31.3421 72.1471C31.3727 72.0868 31.4137 72.0273 31.4653 71.9682C31.5172 71.9087 31.5638 71.8629 31.606 71.8295C31.6804 71.7705 31.7369 71.7389 31.7755 71.7348L31.8539 71.7199C31.8565 71.6738 31.863 71.628 31.8724 71.5829C31.8819 71.5378 31.9078 71.4819 31.9498 71.4151C31.9924 71.3481 32.0421 71.2837 32.0997 71.222C32.1632 71.1555 32.2247 71.1017 32.2845 71.0608C32.3443 71.0199 32.3946 70.9928 32.4361 70.9796C32.4776 70.9663 32.5177 70.9607 32.5557 70.9629C32.5937 70.9651 32.6257 70.974 32.652 70.99C32.6785 71.0054 32.7077 71.0285 32.7401 71.0592L32.9693 71.2773ZM32.2486 71.8518L32.6866 71.3821L32.573 71.2741C32.5313 71.2344 32.503 71.2096 32.4885 71.2C32.4739 71.1903 32.451 71.1858 32.4194 71.187C32.3875 71.1885 32.3519 71.2011 32.3115 71.2259C32.2714 71.2501 32.2342 71.2806 32.1995 71.317C32.1649 71.3533 32.1337 71.3917 32.1066 71.4311C32.0743 71.4822 32.054 71.5274 32.0458 71.5667C32.0372 71.6064 32.039 71.6345 32.0509 71.6514C32.0628 71.6682 32.0804 71.6891 32.1032 71.7136L32.2486 71.8518ZM32.068 72.0455L31.9401 71.9239C31.9166 71.9016 31.8939 71.8863 31.872 71.8778C31.8504 71.8691 31.8243 71.87 31.7944 71.8796C31.7645 71.8893 31.7319 71.9082 31.6967 71.9365C31.6615 71.9648 31.6258 71.9988 31.5902 72.0385C31.5633 72.0704 31.5409 72.1004 31.5235 72.129C31.506 72.1574 31.4948 72.1849 31.4898 72.212C31.4849 72.2386 31.486 72.2617 31.4933 72.2805C31.5003 72.2997 31.5161 72.3223 31.5405 72.3483L31.6704 72.4718L32.068 72.0455ZM31.0394 71.007L31.2386 70.8295L31.5052 71.1322L32.0013 70.6904L31.7063 70.3556L31.9055 70.1781L32.2947 70.62L30.7818 71.9676L30.3946 71.528L30.5897 71.3543L30.8826 71.6868L31.306 71.3097L31.0394 71.007ZM31.5633 69.7375L31.6469 69.848L30.0378 71.0647L29.9542 70.9541L31.5633 69.7375ZM30.5635 69.3779L29.3758 70.1338L29.3009 70.0151L30.5212 69.2386C30.5649 69.2107 30.6137 69.1824 30.668 69.1532C30.7223 69.1241 30.7776 69.1013 30.8329 69.0852C30.8885 69.0693 30.9371 69.0619 30.9792 69.0628C31.0209 69.064 31.0615 69.0741 31.1006 69.0933C31.1392 69.1126 31.1685 69.1409 31.1873 69.1783C31.2141 69.2285 31.2195 69.2797 31.2031 69.3318C31.1867 69.3839 31.1598 69.4356 31.1222 69.4873C31.0841 69.5393 31.0321 69.5884 30.9658 69.6356L30.8506 69.7215L30.7748 69.6071C30.8058 69.5849 30.8353 69.563 30.8637 69.5413C30.8926 69.5195 30.9159 69.4975 30.9349 69.4753C30.9535 69.4532 30.9676 69.4252 30.9769 69.3914C30.9864 69.3579 30.9833 69.3291 30.9681 69.3051C30.9579 69.2851 30.94 69.2711 30.9151 69.2629C30.8899 69.2545 30.8613 69.2529 30.8293 69.2575C30.797 69.2624 30.7586 69.2748 30.7137 69.2951C30.6688 69.3153 30.6188 69.3428 30.5635 69.3779ZM30.7239 68.3964L30.7886 68.5218L29.0052 69.4617L28.9405 69.3363L30.7239 68.3964ZM29.0827 68.5167L30.4925 67.9215L30.5458 68.0465L28.6805 68.8341L28.6299 68.7079L29.807 67.7031L28.4436 68.2788L28.3896 68.1523L30.255 67.3647L30.306 67.4844L29.0827 68.5167ZM28.5622 66.7958L28.6028 66.9344C28.5632 66.9546 28.5223 66.9761 28.4808 66.999C28.4388 67.022 28.4036 67.053 28.3752 67.0918C28.3467 67.1305 28.3383 67.1754 28.3502 67.2262C28.3591 67.2541 28.374 67.2793 28.3961 67.3019C28.4179 67.3248 28.4539 67.3419 28.5037 67.3538C28.5535 67.3658 28.6153 67.3712 28.6896 67.3704C28.7634 67.3701 28.8363 67.3633 28.9079 67.3507C28.9791 67.3387 29.0534 67.3213 29.1301 67.2994C29.2068 67.2777 29.2668 67.2592 29.3103 67.244C29.3877 67.2177 29.4642 67.1853 29.5399 67.1466C29.6154 67.1078 29.674 67.0661 29.7158 67.0218C29.7569 66.9777 29.782 66.937 29.7902 66.9C29.7983 66.863 29.7994 66.8327 29.7939 66.8086C29.7885 66.7848 29.7815 66.7593 29.7731 66.7327L29.7331 66.6064L29.268 66.7452L29.3198 66.9086L29.047 66.99L28.9535 66.6948L29.9493 66.3975L30.0124 66.5967C30.0291 66.6493 30.0407 66.7013 30.0478 66.7524C30.055 66.8038 30.0456 66.8602 30.0205 66.9215C29.9954 66.9828 29.953 67.0401 29.8928 67.0937C29.8332 67.1472 29.7653 67.1934 29.6896 67.232C29.6141 67.2709 29.5369 67.3047 29.4581 67.3333C29.3793 67.3622 29.2908 67.3907 29.1931 67.4188C29.0836 67.4505 28.9702 67.4765 28.8536 67.4974C28.7369 67.5181 28.6355 67.5261 28.5503 67.5213C28.4651 67.5161 28.3947 67.5072 28.3391 67.494C28.2835 67.4806 28.234 67.4582 28.1906 67.4262C28.1468 67.3943 28.1173 67.3503 28.1017 67.2942C28.0877 67.2368 28.0917 67.1831 28.1135 67.1337C28.1353 67.0844 28.1649 67.0421 28.202 67.0069C28.2391 66.9718 28.2827 66.9386 28.3323 66.9078C28.382 66.8767 28.4293 66.8518 28.4738 66.8331L28.5622 66.7958ZM27.6574 64.8212L27.6425 64.6855L28.9779 64.5598C29.0249 64.5554 29.082 64.5535 29.1481 64.5542C29.2142 64.5549 29.2807 64.56 29.3489 64.5696C29.4169 64.5791 29.4772 64.5968 29.5301 64.6226C29.5831 64.6483 29.6275 64.6842 29.6632 64.7294C29.6993 64.7746 29.7189 64.8221 29.7222 64.8714C29.7281 64.9245 29.7162 64.974 29.6864 65.02C29.6562 65.0661 29.6172 65.107 29.5679 65.1424C29.5186 65.1778 29.4674 65.2055 29.4138 65.2256C29.3597 65.2454 29.3026 65.2607 29.2419 65.2715C29.1811 65.2821 29.11 65.2913 29.029 65.2989L27.7235 65.4218L27.7086 65.286L28.9902 65.1654C29.0894 65.1561 29.1674 65.1439 29.2247 65.1292C29.2819 65.1143 29.3286 65.0927 29.3643 65.0639C29.4001 65.0353 29.4233 65.0043 29.4335 64.9716C29.4442 64.9388 29.4461 64.9048 29.4407 64.8696C29.4361 64.8284 29.4224 64.7961 29.3998 64.7728C29.3774 64.7497 29.3462 64.7315 29.3069 64.7181C29.2675 64.7051 29.2155 64.6972 29.1513 64.6948C29.087 64.6923 29.0106 64.6948 28.9213 64.7023L27.6574 64.8212ZM28.1344 64.0933L29.6759 64.1098L29.6733 64.2474L27.6337 64.2256L27.6393 64.0881L29.136 63.6307L27.6451 63.6147L27.6477 63.4757L29.6874 63.4975L29.6849 63.6291L28.1344 64.0933ZM29.7208 62.9471L29.7075 63.0875L27.6937 62.8897L27.7071 62.7493L29.7208 62.9471ZM29.8197 62.2218L27.7694 62.2014L27.797 62.0518L29.3528 62.0777L27.9094 61.5187L27.9397 61.3709L29.84 62.123L29.8197 62.2218ZM29.0007 60.6485L29.2572 60.726L29.1453 61.0995L29.7837 61.2925L29.9075 60.8793L30.1639 60.9568L30.0005 61.502L28.0533 60.9134L28.2157 60.371L28.4667 60.4469L28.3439 60.8572L28.8889 61.0219L29.0007 60.6485ZM30.3063 60.553L30.2533 60.6808L28.3848 59.9243L28.5149 59.6103C28.5313 59.5704 28.5568 59.5367 28.5918 59.5091C28.6267 59.4817 28.6683 59.4644 28.7162 59.4572C28.7641 59.4501 28.822 59.4533 28.8903 59.4668C28.9581 59.4804 29.0345 59.5047 29.1181 59.5397C29.2055 59.5773 29.2725 59.6127 29.3194 59.6463C29.3662 59.68 29.4031 59.7112 29.4294 59.7404L29.4762 59.7902C29.4994 59.791 29.5217 59.7914 29.5428 59.7919C29.564 59.7924 29.5915 59.7961 29.6254 59.8026C29.6589 59.8093 29.7164 59.8251 29.7979 59.8506L30.5047 60.0736L30.4518 60.2015L29.7636 59.9796C29.72 59.9661 29.6773 59.958 29.6357 59.9552C29.5941 59.9525 29.5638 59.9568 29.5454 59.9683C29.527 59.9796 29.5104 60.0025 29.4962 60.0367L29.4295 60.198L30.3063 60.553ZM28.6657 59.8888L29.1822 60.0979L29.2525 59.9283C29.264 59.9005 29.2671 59.8717 29.2626 59.8416C29.2576 59.8113 29.2388 59.7813 29.2048 59.7509C29.1714 59.7205 29.1214 59.6919 29.0552 59.6651C29.0215 59.6526 28.9882 59.643 28.956 59.6363C28.9232 59.6294 28.8914 59.6281 28.8606 59.6325C28.8297 59.6369 28.8031 59.6483 28.7802 59.6665C28.7577 59.6851 28.741 59.7071 28.7301 59.7332L28.6657 59.8888ZM30.0881 59.5866L30.1468 59.4624C30.1742 59.4731 30.2022 59.4836 30.2299 59.4936C30.2581 59.5036 30.2882 59.512 30.3199 59.5183C30.3521 59.5247 30.3803 59.5264 30.4055 59.524C30.4309 59.5213 30.455 59.5129 30.4785 59.4986C30.5015 59.4841 30.5207 59.4648 30.5354 59.4397C30.5504 59.4151 30.5596 59.3946 30.5627 59.3785C30.5712 59.357 30.5742 59.3353 30.5721 59.3136C30.5706 59.2919 30.5652 59.2705 30.5554 59.2485C30.546 59.227 30.5275 59.2046 30.5004 59.1816C30.4734 59.1585 30.4392 59.1362 30.3981 59.1143C30.3569 59.0925 30.3218 59.0758 30.2923 59.0637C30.2547 59.0511 30.2195 59.0438 30.1864 59.0418C30.1537 59.0399 30.1149 59.0511 30.071 59.0754C30.0267 59.0994 29.9782 59.1286 29.9247 59.1626C29.8716 59.1968 29.8246 59.2206 29.7844 59.2345C29.7439 59.2482 29.6945 59.2534 29.6365 59.2494C29.578 59.2456 29.5132 59.2324 29.4424 59.2095C29.3715 59.1869 29.2915 59.1469 29.2028 59.0899C29.1384 59.05 29.0906 59.0138 29.059 58.9812C29.0276 58.9485 29.0016 58.9147 28.9809 58.8794C28.9606 58.8442 28.9459 58.8102 28.9372 58.7779C28.9286 58.7453 28.9264 58.7133 28.931 58.6812C28.9349 58.6491 28.9411 58.6219 28.9499 58.5995C28.9745 58.5429 29.0105 58.5047 29.0579 58.4848C29.1057 58.4653 29.1543 58.4547 29.2043 58.453C29.2538 58.4513 29.3052 58.4559 29.3584 58.4664C29.411 58.4768 29.4542 58.4885 29.4873 58.5013L29.5599 58.5285L29.5017 58.6516C29.479 58.6441 29.4577 58.6371 29.438 58.6303C29.4183 58.6233 29.3922 58.6173 29.36 58.6118C29.3275 58.6062 29.2964 58.607 29.2655 58.6143C29.2348 58.6213 29.2122 58.6349 29.1974 58.6545C29.1824 58.6742 29.1709 58.6926 29.1629 58.7097C29.1495 58.7475 29.1455 58.7819 29.1519 58.8133C29.1578 58.8444 29.1704 58.8735 29.1889 58.9004C29.2079 58.9276 29.2313 58.9527 29.26 58.9758C29.2883 58.9988 29.3186 59.0176 29.3513 59.0322C29.3935 59.0529 29.4331 59.0662 29.4701 59.0719C29.5066 59.0773 29.5391 59.0784 29.5682 59.0748C29.5972 59.0714 29.6256 59.0634 29.6533 59.0509C29.6811 59.0382 29.718 59.0181 29.764 58.9905C29.8096 58.9625 29.8551 58.9373 29.8995 58.9144C29.9443 58.8917 29.9879 58.8775 30.0312 58.8724C30.074 58.867 30.1225 58.8709 30.1763 58.8835C30.2304 58.8967 30.2775 58.9106 30.3183 58.926C30.359 58.9416 30.4029 58.9621 30.4497 58.9874C30.5348 59.0346 30.6011 59.0809 30.6493 59.1268C30.6976 59.1724 30.7347 59.2192 30.7613 59.267C30.7879 59.3148 30.8024 59.3597 30.8047 59.401C30.8069 59.4425 30.7989 59.482 30.781 59.5198C30.7614 59.5659 30.7349 59.6017 30.7007 59.627C30.6668 59.6525 30.6282 59.6702 30.5841 59.6794C30.5406 59.6887 30.4945 59.6918 30.4458 59.6884C30.3971 59.685 30.3497 59.6777 30.3025 59.6662C30.2554 59.6547 30.2091 59.6392 30.1643 59.6191L30.0881 59.5866ZM31.2202 58.7644L31.1455 58.8822L29.4294 57.7958L29.504 57.6779L31.2202 58.7644ZM30.0101 57.3767C29.9415 57.3248 29.8732 57.2729 29.805 57.2211C29.878 57.1245 29.9516 57.0277 30.0247 56.931C30.0978 56.8345 30.1712 56.7376 30.2446 56.6406C30.3129 56.6925 30.3813 56.7444 30.4496 56.7963C30.388 56.8778 30.3264 56.9593 30.2646 57.0407C30.4947 57.2152 30.7257 57.3894 30.9555 57.5662C31.188 57.7451 31.4248 57.926 31.6647 58.1047C31.6375 58.1426 31.6106 58.1801 31.5836 58.2174C31.3437 58.0374 31.1059 57.8558 30.8714 57.6772C30.6405 57.5015 30.41 57.3273 30.1798 57.1528C30.1232 57.2274 30.0667 57.3022 30.0101 57.3767ZM32.344 57.3358L32.2454 57.4403L31.5638 56.7986L30.5153 56.3167L30.6245 56.2009L31.4135 56.5594L30.9901 55.8131L31.1013 55.6952L31.6708 56.702L32.344 57.3358ZM35.297 53.0306L35.5934 52.9283C35.6291 52.9159 35.667 52.9124 35.7075 52.9172C35.7477 52.9219 35.7878 52.945 35.8277 52.9867C35.8675 53.028 35.9015 53.0744 35.9297 53.125C35.9579 53.1756 35.9808 53.2215 35.9984 53.2624C36.0161 53.3033 36.0322 53.3453 36.0469 53.3882C36.077 53.4798 36.096 53.5591 36.1043 53.6262C36.1124 53.6933 36.1111 53.7562 36.1004 53.8154C36.0896 53.8742 36.0695 53.9206 36.0398 53.9538C36.0103 53.9869 35.9744 54.0105 35.9321 54.0251L35.7945 54.0727L36.0727 54.8899L35.9448 54.934L35.297 53.0306ZM35.7059 53.8124L35.8421 53.7653C35.874 53.7543 35.8986 53.7389 35.9153 53.7197C35.9322 53.7 35.9438 53.6758 35.9495 53.6471C35.9554 53.6179 35.9557 53.5847 35.9504 53.548C35.9452 53.5114 35.9341 53.4677 35.9168 53.4171C35.8962 53.3596 35.8738 53.3119 35.8492 53.2734C35.8245 53.235 35.7997 53.2077 35.7751 53.1922C35.7506 53.1766 35.7252 53.1737 35.6988 53.1828L35.5134 53.2468L35.7059 53.8124ZM36.7248 52.5867C36.7929 52.5742 36.8692 52.6028 36.9541 52.6718C37.039 52.7409 37.1193 52.8537 37.1949 53.0101C37.2706 53.1665 37.3279 53.3318 37.3671 53.5062C37.4062 53.6841 37.4242 53.8541 37.4217 54.0159C37.419 54.1772 37.395 54.3079 37.3504 54.4077C37.3056 54.5076 37.2458 54.5634 37.1713 54.5748C37.0974 54.5883 37.0184 54.5572 36.9342 54.4818C36.8499 54.4063 36.7717 54.2947 36.6996 54.147C36.6272 53.9988 36.5713 53.8368 36.5319 53.661C36.4922 53.4846 36.4733 53.3138 36.4753 53.1484C36.4778 52.9769 36.5031 52.8439 36.551 52.7496C36.5993 52.6553 36.6572 52.6009 36.7248 52.5867ZM36.784 52.8506C36.7401 52.8607 36.7021 52.9 36.6696 52.9683C36.6371 53.0366 36.6217 53.1332 36.6229 53.2577C36.6243 53.3822 36.6394 53.5099 36.6682 53.6408C36.697 53.7711 36.7366 53.8893 36.787 53.995C36.8373 54.1045 36.8921 54.1879 36.9511 54.2446C37.0098 54.3015 37.064 54.3252 37.1133 54.3163C37.1633 54.3092 37.2028 54.269 37.2325 54.1951C37.2621 54.1212 37.2767 54.0257 37.2768 53.9092C37.2768 53.7922 37.2616 53.6671 37.2317 53.5339C37.2022 53.4062 37.1609 53.2843 37.1079 53.1681C37.0553 53.0519 36.9991 52.9678 36.9396 52.9162C36.8805 52.8645 36.8285 52.8426 36.784 52.8506ZM38.7195 52.5613L38.7114 52.2978H39.4331L39.4412 52.5613H39.1373L39.1916 54.3351H39.0523L38.998 52.5613H38.7195ZM42.4844 52.7149C42.5232 52.7248 42.562 52.7347 42.6009 52.7446C42.5826 53.0899 42.5683 53.4352 42.5457 53.7802C42.5233 54.1253 42.4882 54.4699 42.4638 54.8143C42.4156 54.8011 42.3676 54.7878 42.3194 54.774C42.3243 54.6833 42.3299 54.5923 42.3363 54.5016C42.3427 54.4109 42.3498 54.3197 42.3569 54.2288C42.2916 54.211 42.2261 54.1931 42.1605 54.1759C42.0949 54.1587 42.0292 54.1414 41.9633 54.1227C41.8838 54.2823 41.806 54.4397 41.7293 54.5957C41.6843 54.5808 41.639 54.5667 41.594 54.5528C41.7368 54.2536 41.8857 53.9544 42.035 53.6477C42.1858 53.3378 42.3345 53.0265 42.4844 52.7149ZM42.3829 53.9732C42.3941 53.8329 42.4039 53.6922 42.4129 53.5519C42.4218 53.4116 42.431 53.2709 42.44 53.1305C42.3783 53.2575 42.3166 53.3842 42.255 53.5108C42.1934 53.6374 42.1317 53.7638 42.0694 53.8909C42.1218 53.9041 42.174 53.918 42.2262 53.9316C42.2785 53.9452 42.3307 53.9593 42.3829 53.9732ZM43.4025 53.5216L42.8288 54.9285L42.7036 54.8776L43.4627 53.016L43.5867 53.0697L43.4636 54.6029L44.0185 53.2423L44.1451 53.2938L43.386 55.1553L43.2662 55.1066L43.4025 53.5216ZM43.6214 55.2616L44.5674 53.4863L44.7845 53.6016C44.8195 53.6202 44.8558 53.6481 44.8941 53.6851C44.9323 53.722 44.9643 53.7677 44.9906 53.8219C45.0165 53.8763 45.0286 53.9401 45.026 54.0138C45.0235 54.0876 45.013 54.1601 44.9955 54.231C44.9774 54.3023 44.9517 54.3781 44.9178 54.4587C44.8839 54.5394 44.8426 54.6275 44.7932 54.7234C44.7438 54.8194 44.6894 54.9132 44.6304 55.0046C44.5602 55.1106 44.4927 55.1975 44.4279 55.2652C44.3631 55.3328 44.3053 55.3801 44.2538 55.4078C44.2024 55.4355 44.1527 55.4505 44.1049 55.4532C44.0571 55.4558 44.0166 55.4521 43.9837 55.4421C43.9504 55.4325 43.9046 55.4121 43.8465 55.3812L43.6214 55.2616ZM44.5708 53.7669L43.8563 55.1077L43.9407 55.1526C43.9997 55.184 44.0541 55.2019 44.1034 55.207C44.153 55.212 44.2044 55.2015 44.2574 55.1763C44.3107 55.1507 44.3581 55.1168 44.3994 55.0745C44.4405 55.0327 44.4837 54.9759 44.5287 54.9046C44.5737 54.8328 44.623 54.7477 44.676 54.6491C44.7291 54.5506 44.7684 54.4665 44.794 54.397C44.8177 54.331 44.8332 54.2693 44.8406 54.2113C44.8479 54.1537 44.8451 54.1001 44.8325 54.0503C44.8197 54.0011 44.8046 53.9628 44.7871 53.9356C44.7695 53.9085 44.7486 53.8837 44.7248 53.8619C44.7007 53.8404 44.6781 53.8239 44.6566 53.8124L44.5708 53.7669ZM46.3917 54.8996C46.4478 54.8304 46.5037 54.7608 46.5604 54.6906C46.6526 54.7668 46.7449 54.8428 46.8361 54.9191C46.9273 54.9953 47.0174 55.0718 47.1072 55.1486C47.0496 55.2179 46.9926 55.2875 46.9361 55.3569C46.8605 55.2928 46.7849 55.2285 46.7089 55.1643C46.5207 55.3984 46.3372 55.6334 46.151 55.8651C45.9653 56.0962 45.776 56.3184 45.5895 56.5349C45.5542 56.5039 45.5189 56.4731 45.4841 56.4422C45.6717 56.2259 45.8615 56.0052 46.0465 55.7759C46.2326 55.545 46.4158 55.3102 46.6038 55.0761C46.5333 55.0176 46.4625 54.9585 46.3917 54.8996ZM47.2433 56.4296L47.0547 56.6205L46.7744 56.3385L46.3049 56.8139L46.6149 57.1259L46.4264 57.3169L46.0172 56.9051L47.4493 55.455L47.8564 55.8646L47.6717 56.0515L47.3638 55.7417L46.963 56.1476L47.2433 56.4296ZM46.6302 57.5156L48.1743 56.218L48.266 56.3251L46.9273 57.4501L47.2324 57.8063L47.027 57.9789L46.6302 57.5156ZM48.4821 57.953L48.262 58.1081L48.0277 57.7847L47.4796 58.1707L47.7389 58.5283L47.5187 58.6833L47.1765 58.2113L48.8483 57.0342L49.1887 57.5037L48.9731 57.6555L48.7156 57.3003L48.2478 57.6298L48.4821 57.953ZM49.3477 58.8361L49.2741 58.7147C49.2956 58.7002 49.3179 58.6843 49.341 58.6675C49.3643 58.6502 49.3866 58.6273 49.4073 58.5987C49.4281 58.5704 49.4414 58.5384 49.4466 58.5029C49.4519 58.4677 49.4464 58.4332 49.4306 58.3993C49.4033 58.3502 49.3614 58.3194 49.3054 58.3072C49.2493 58.2948 49.1834 58.2959 49.1074 58.3104C49.0315 58.3251 48.9557 58.3487 48.8796 58.3818C48.8036 58.415 48.7168 58.4596 48.6187 58.516C48.5184 58.5727 48.4351 58.6241 48.3682 58.6704C48.3014 58.7167 48.2434 58.7668 48.1946 58.8204C48.1462 58.8737 48.1136 58.9297 48.0978 58.9877C48.0824 59.0455 48.0885 59.0976 48.1166 59.1441C48.1384 59.184 48.1736 59.2108 48.2225 59.2248C48.2717 59.2385 48.3106 59.2391 48.3401 59.226L48.5139 59.1575L48.5875 59.279C48.5585 59.2929 48.5275 59.3083 48.4941 59.3255C48.4605 59.3426 48.4118 59.363 48.3481 59.3862C48.2845 59.4093 48.2181 59.4193 48.1491 59.416C48.0802 59.4129 48.0224 59.3987 47.9757 59.3736C47.9291 59.3484 47.8937 59.3116 47.8691 59.2632C47.8417 59.215 47.8315 59.1572 47.8382 59.0898C47.8452 59.0223 47.8762 58.951 47.9308 58.8755C47.9859 58.8 48.0572 58.7279 48.1446 58.6597C48.2316 58.5917 48.3072 58.5375 48.3708 58.4974C48.4347 58.4572 48.5057 58.4157 48.584 58.3726C48.6862 58.3162 48.7827 58.2689 48.8734 58.2305C48.9634 58.1921 49.0552 58.1645 49.1476 58.1475C49.2404 58.1304 49.3197 58.1244 49.3852 58.1294C49.4511 58.1346 49.5082 58.1534 49.557 58.186C49.6058 58.2185 49.6418 58.2565 49.6656 58.2997C49.7005 58.3688 49.7055 58.434 49.6797 58.4953C49.6544 58.5563 49.6179 58.6124 49.57 58.6637C49.5222 58.7149 49.4706 58.7579 49.4152 58.7928L49.3477 58.8361ZM50.2092 59.3644C50.2377 59.4276 50.2273 59.5065 50.1783 59.6015C50.1292 59.6965 50.0354 59.7955 49.8968 59.8983C49.7581 60.0012 49.6062 60.0881 49.441 60.1594C49.2722 60.2313 49.1063 60.2812 48.9437 60.3099C48.7816 60.3384 48.6452 60.3404 48.5347 60.3167C48.4241 60.2928 48.3542 60.246 48.325 60.1765C48.2941 60.1079 48.3064 60.0259 48.362 59.9304C48.4175 59.8348 48.5107 59.7381 48.6415 59.6404C48.7726 59.5422 48.9216 59.4572 49.0882 59.3854C49.2553 59.3134 49.4218 59.2623 49.5877 59.2325C49.7601 59.2018 49.8992 59.2007 50.0049 59.2286C50.1107 59.2569 50.1788 59.3022 50.2092 59.3644ZM49.959 59.4723C49.9385 59.4318 49.8901 59.4029 49.8141 59.3847C49.7381 59.3666 49.6377 59.3704 49.5133 59.3955C49.389 59.4208 49.2648 59.4598 49.1407 59.5127C49.017 59.5655 48.9082 59.6263 48.8142 59.6951C48.7166 59.7646 48.6462 59.8333 48.6033 59.9011C48.5603 59.9685 48.5495 60.0253 48.5701 60.0709C48.589 60.1176 48.6385 60.148 48.7196 60.1623C48.8006 60.1766 48.8996 60.1723 49.0162 60.15C49.1333 60.1275 49.2549 60.0888 49.3812 60.0343C49.502 59.9814 49.6142 59.9182 49.7179 59.845C49.8218 59.772 49.8927 59.7017 49.9302 59.6346C49.9679 59.5677 49.9776 59.5135 49.959 59.4723ZM50.5358 60.2315L50.5848 60.3952L49.1202 61.1741L50.7776 61.0387L50.8266 61.2025L48.8633 61.7698L48.828 61.6413L50.3106 61.213L48.7401 61.3478L48.7041 61.2275L50.0933 60.4979L48.6136 60.9254L48.5725 60.7987L50.5358 60.2315ZM50.9421 61.7141L50.969 61.882L49.4129 62.4555L51.0734 62.5417L51.1 62.7096L49.0783 63.0084L49.0606 62.8772L50.5874 62.6515L49.0129 62.5763L48.9934 62.453L50.468 61.918L48.9443 62.1433L48.9205 62.013L50.9421 61.7141ZM51.1552 63.7892L51.1632 63.9262L49.8282 63.9775C49.7811 63.9793 49.7242 63.9779 49.6585 63.9736C49.5927 63.9692 49.5268 63.9602 49.4595 63.9468C49.3923 63.9336 49.3332 63.9124 49.2818 63.8836C49.2304 63.8548 49.1881 63.8164 49.1549 63.769C49.1212 63.7217 49.1041 63.6729 49.1032 63.6233C49.1001 63.5697 49.1145 63.5207 49.1464 63.4762C49.1788 63.4317 49.2197 63.3929 49.2705 63.3602C49.3214 63.3274 49.3737 63.3025 49.428 63.2854C49.4828 63.2684 49.5405 63.2564 49.6014 63.2489C49.6624 63.2417 49.7336 63.2365 49.8146 63.2333L51.1198 63.1832L51.1279 63.3202L49.8464 63.3694C49.7472 63.3731 49.669 63.381 49.6114 63.3927C49.5537 63.4043 49.5061 63.4235 49.4691 63.4503C49.4321 63.477 49.4075 63.5067 49.3956 63.539C49.3833 63.5713 49.3797 63.6053 49.3833 63.6408C49.3857 63.6825 49.3979 63.7156 49.419 63.7403C49.4403 63.7647 49.4703 63.7847 49.5088 63.8002C49.5473 63.8156 49.5986 63.8264 49.6624 63.8323C49.7262 63.8385 49.8024 63.8402 49.8915 63.8378L51.1552 63.7892ZM50.6407 64.4909L49.1042 64.3949L49.1105 64.2595L51.1436 64.3866L51.1342 64.5218L49.6299 64.8949L51.1158 64.9878L51.1097 65.1247L49.0765 64.9976L49.0825 64.868L50.6407 64.4909ZM48.991 65.5442L49.0119 65.4048L51.0208 65.7135L50.9999 65.8529L48.991 65.5442ZM50.1915 67.0252L50.2251 66.8885C50.2508 66.8928 50.2782 66.8966 50.3066 66.9002C50.3357 66.9038 50.368 66.9025 50.4031 66.8962C50.4382 66.8901 50.4705 66.8763 50.4994 66.8545C50.5283 66.833 50.5489 66.8046 50.5617 66.7696C50.577 66.716 50.5689 66.6656 50.5373 66.6188C50.5059 66.5718 50.4579 66.5279 50.393 66.4865C50.3281 66.4455 50.2569 66.4108 50.1788 66.3828C50.1007 66.3548 50.0067 66.3276 49.8961 66.3013C49.7838 66.2735 49.6874 66.2536 49.6065 66.2412C49.5256 66.2289 49.4484 66.2253 49.3752 66.2304C49.3026 66.2356 49.2394 66.2534 49.1868 66.2841C49.1346 66.3148 49.1019 66.3562 49.089 66.4086C49.0763 66.4518 49.0826 66.4949 49.1075 66.5382C49.1332 66.5814 49.1607 66.6082 49.1911 66.6189L49.3646 66.6881L49.331 66.8248C49.3003 66.8151 49.2671 66.805 49.2309 66.7945C49.1947 66.784 49.1452 66.7654 49.083 66.7387C49.0208 66.712 48.9661 66.674 48.919 66.6248C48.8717 66.5757 48.8403 66.5264 48.8247 66.4766C48.8091 66.427 48.8099 66.3767 48.8267 66.3253C48.8413 66.2723 48.8752 66.2241 48.9279 66.1805C48.9811 66.1371 49.054 66.1072 49.1468 66.0904C49.24 66.074 49.3425 66.071 49.4537 66.0816C49.5645 66.0921 49.6573 66.1048 49.7315 66.1195C49.806 66.1342 49.8864 66.1528 49.9732 66.1753C50.0867 66.2044 50.1896 66.2362 50.2819 66.2704C50.3739 66.3041 50.4594 66.3469 50.5377 66.3975C50.6166 66.4484 50.6779 66.498 50.721 66.5461C50.7646 66.5945 50.7922 66.6469 50.8042 66.7032C50.816 66.7596 50.8148 66.8112 50.8012 66.8583C50.7769 66.9313 50.7342 66.9813 50.6722 67.0075C50.6107 67.0339 50.5445 67.0491 50.4737 67.0532C50.4029 67.0573 50.3353 67.0529 50.2707 67.0401L50.1915 67.0252ZM50.4414 67.9811L50.3985 68.0915L48.3479 67.7848L48.4033 67.6423L48.9451 67.7202L49.0928 67.3403L48.6297 67.0601L48.6813 66.9273L50.4414 67.9811ZM49.1982 67.7637L50.0324 67.8978L49.3143 67.4647L49.1982 67.7637ZM49.8519 68.7841L50.0876 68.9036L49.7545 69.5533L49.5187 69.4338L49.659 69.1603L48.0714 68.3558L48.1356 68.2304L49.7233 69.0348L49.8519 68.7841ZM47.6546 69.0946L47.7274 68.9757L49.4587 70.0345L49.3859 70.1534L47.6546 69.0946ZM48.8331 70.9848C48.7908 71.0412 48.7158 71.0719 48.6078 71.0774C48.4999 71.0828 48.3669 71.0517 48.2089 70.9839C48.051 70.9161 47.9006 70.8289 47.7578 70.7224C47.6127 70.6131 47.4886 70.4952 47.3849 70.3695C47.2816 70.2442 47.2142 70.1276 47.182 70.0205C47.1501 69.9131 47.1579 69.8294 47.2056 69.7694C47.2515 69.7083 47.3303 69.6777 47.4418 69.6775C47.5533 69.6774 47.684 69.7091 47.8338 69.7727C47.9841 69.8364 48.1311 69.922 48.275 70.0295C48.4194 70.1373 48.5449 70.2551 48.6512 70.3831C48.7613 70.5162 48.8293 70.6354 48.8553 70.7406C48.8812 70.846 48.8738 70.9275 48.8331 70.9848ZM48.6171 70.8235C48.6431 70.7855 48.6455 70.7292 48.6249 70.6546C48.6044 70.58 48.5528 70.4954 48.4707 70.4009C48.3884 70.3065 48.294 70.2191 48.1873 70.1387C48.081 70.0586 47.9745 69.9955 47.8683 69.9491C47.7597 69.8999 47.6647 69.8737 47.584 69.8708C47.5034 69.8676 47.4478 69.8868 47.4172 69.9275C47.3848 69.9672 47.3817 70.0252 47.408 70.1022C47.4343 70.1792 47.4858 70.2624 47.5618 70.3516C47.6381 70.4412 47.731 70.5266 47.84 70.608C47.9451 70.6855 48.0552 70.7504 48.1702 70.803C48.2849 70.8559 48.3814 70.8816 48.4591 70.8802C48.5366 70.8791 48.5894 70.8602 48.6171 70.8235ZM47.8182 71.4342L46.6958 70.3926L46.7888 70.2914L48.274 71.6696L48.1787 71.7687L46.7751 71.1119L47.8606 72.1192L47.7665 72.2217L46.2814 70.8435L46.3704 70.7466L47.8182 71.4342ZM46.4922 71.4534C46.4555 71.4861 46.4187 71.518 46.382 71.5492C46.3618 71.5287 46.3409 71.5085 46.32 71.4883C46.2989 71.4678 46.2751 71.4478 46.2491 71.4287C46.2228 71.4094 46.1976 71.396 46.1734 71.3872C46.1492 71.3785 46.1233 71.3753 46.0954 71.3775C46.0677 71.3796 46.0415 71.3881 46.0163 71.4028C45.9912 71.4174 45.9742 71.432 45.9626 71.4429C45.9458 71.4587 45.932 71.4743 45.9233 71.4933C45.9146 71.5123 45.9093 71.5322 45.9078 71.5548C45.9063 71.5766 45.9127 71.603 45.9268 71.6338C45.9411 71.665 45.9621 71.6992 45.9902 71.7364C46.0187 71.7739 46.0432 71.8058 46.0661 71.8298C46.0951 71.8599 46.1257 71.8828 46.1563 71.901C46.1861 71.9189 46.2277 71.9289 46.2797 71.9277C46.332 71.9265 46.3903 71.9193 46.4553 71.9053C46.5201 71.8915 46.5747 71.8831 46.6186 71.8837C46.6627 71.8844 46.7115 71.8969 46.7651 71.9203C46.8193 71.944 46.8757 71.9787 46.9348 72.024C46.9947 72.0701 47.0564 72.1355 47.1233 72.2188C47.1715 72.279 47.2063 72.3286 47.2258 72.3703C47.2453 72.4117 47.259 72.4522 47.2667 72.4927C47.2744 72.5329 47.2766 72.5702 47.2733 72.6036C47.2699 72.6375 47.26 72.6688 47.2441 72.6978C47.2281 72.7268 47.2125 72.7507 47.195 72.7684C47.1501 72.8144 47.1006 72.8385 47.0476 72.8405C46.9945 72.8426 46.9438 72.8351 46.8954 72.8193C46.8477 72.8036 46.8004 72.7817 46.7534 72.7533C46.7068 72.7251 46.6696 72.6992 46.6422 72.6758C46.6223 72.6589 46.6018 72.6424 46.5817 72.6256C46.6144 72.5935 46.6474 72.5614 46.6803 72.5291C46.7001 72.5441 46.7186 72.558 46.7355 72.5714C46.7522 72.5845 46.7755 72.5995 46.8049 72.6159C46.8343 72.6324 46.8646 72.6423 46.8972 72.6463C46.9294 72.6501 46.956 72.6454 46.9774 72.632C46.9988 72.6187 47.0176 72.6064 47.0305 72.5921C47.0578 72.5617 47.0722 72.5299 47.0769 72.4979C47.0816 72.4662 47.0796 72.4347 47.0705 72.403C47.0612 72.3705 47.0472 72.3389 47.0271 72.307C47.0073 72.2756 46.9838 72.2481 46.9574 72.2224C46.9231 72.1888 46.89 72.1618 46.8561 72.1437C46.8227 72.126 46.7914 72.1144 46.7619 72.1075C46.7323 72.1007 46.702 72.0985 46.6703 72.1007C46.6386 72.1029 46.5948 72.1091 46.54 72.12C46.4851 72.1309 46.4316 72.1414 46.3798 72.1449C46.3274 72.1484 46.2798 72.1396 46.2361 72.1229C46.1928 72.1063 46.1471 72.0773 46.1003 72.0382C46.0535 71.9992 46.0144 71.9631 45.9819 71.9296C45.95 71.8968 45.9175 71.8588 45.8847 71.8166C45.8268 71.742 45.7866 71.6774 45.7638 71.6215C45.7412 71.5665 45.7296 71.5143 45.7286 71.4647C45.7275 71.4147 45.7357 71.3714 45.7532 71.335C45.771 71.2982 45.7974 71.2672 45.8308 71.2401C45.8704 71.208 45.9104 71.1862 45.953 71.1772C45.9954 71.1683 46.0382 71.1683 46.0824 71.1778C46.1262 71.1872 46.1692 71.2035 46.212 71.2263C46.2547 71.2491 46.2944 71.2748 46.3323 71.3037C46.3697 71.3322 46.4051 71.3638 46.4373 71.3977C46.4552 71.4167 46.4738 71.4351 46.4922 71.4534ZM39.3602 54.4606C44.6142 54.4606 48.8995 58.7459 48.8995 63.9999C48.8995 69.2541 44.6142 73.5393 39.3602 73.5393C34.106 73.5393 29.8207 69.2541 29.8207 63.9999C29.8207 58.7459 34.106 54.4606 39.3602 54.4606ZM39.3602 54.367C44.6657 54.367 48.993 58.6944 48.993 63.9999C48.993 69.3056 44.6657 73.6329 39.3602 73.6329C34.0545 73.6329 29.7272 69.3056 29.7272 63.9999C29.7272 58.6944 34.0545 54.367 39.3602 54.367ZM39.3602 51.8108C46.0737 51.8108 51.5493 57.2864 51.5493 63.9999C51.5493 70.7135 46.0737 76.1892 39.3602 76.1892C32.6465 76.1892 27.1709 70.7135 27.1709 63.9999C27.1709 57.2864 32.6465 51.8108 39.3602 51.8108ZM39.3602 51.9666C45.9878 51.9666 51.3935 57.3722 51.3935 63.9999C51.3935 70.6277 45.9878 76.0333 39.3602 76.0333C32.7324 76.0333 27.3268 70.6277 27.3268 63.9999C27.3268 57.3722 32.7324 51.9666 39.3602 51.9666ZM33.8311 73.0957C33.8993 73.134 33.9594 73.1655 34.0119 73.1905C34.0859 73.2257 34.1593 73.261 34.233 73.2958C34.2881 73.1736 34.3431 73.0511 34.3989 72.9288C34.4199 72.8827 34.4436 72.826 34.4701 72.7579C34.5182 72.7809 34.5662 72.8041 34.6143 72.8272C34.575 72.8883 34.5446 72.9419 34.5235 72.9876C34.4267 73.1969 34.3336 73.4093 34.2327 73.6179C34.1308 73.8289 34.0212 74.0372 33.9271 74.2474C33.9023 74.3028 33.8772 74.3732 33.8488 74.4566C33.8021 74.4349 33.7557 74.4133 33.7091 74.3915C33.7465 74.312 33.7855 74.2266 33.8257 74.1351C33.7273 74.1191 33.6352 74.1079 33.5509 74.1018C33.4661 74.0957 33.4003 74.097 33.3539 74.1059C33.3612 74.0344 33.3679 73.9585 33.3739 73.8778C33.4307 73.8994 33.5149 73.922 33.6271 73.9453C33.7396 73.9687 33.8287 73.9834 33.8942 73.9897C33.9413 73.897 33.9915 73.8045 34.0385 73.7115C34.085 73.6194 34.1279 73.5258 34.1709 73.4328C34.0977 73.3978 34.0247 73.3624 33.9515 73.3272C33.8997 73.3024 33.8374 73.276 33.7657 73.2484C33.7874 73.1976 33.8092 73.1466 33.8311 73.0957ZM34.8375 72.9383C34.8831 72.9623 34.9285 72.9864 34.974 73.0108C34.9429 73.0614 34.9164 73.1087 34.8947 73.1525C34.8142 73.3147 34.7348 73.4793 34.6553 73.6456C34.7257 73.6452 34.8026 73.6363 34.8863 73.6218C34.97 73.6073 35.0602 73.5877 35.1573 73.5623C35.1606 73.6306 35.1727 73.7033 35.1943 73.7804C35.1381 73.7624 35.0452 73.7542 34.9168 73.7632C34.7876 73.7724 34.6786 73.7812 34.5894 73.7824C34.5421 73.8782 34.495 73.974 34.4506 74.0704C34.4065 74.1663 34.3642 74.2626 34.3234 74.3587C34.2908 74.4359 34.308 74.4895 34.3735 74.5189C34.426 74.5425 34.4784 74.5655 34.5309 74.5885C34.5829 74.611 34.6211 74.6123 34.6449 74.5921C34.6689 74.5717 34.7083 74.5156 34.7634 74.4244C34.7804 74.4922 34.8166 74.5446 34.873 74.5815C34.7916 74.6732 34.7308 74.7323 34.6893 74.7574C34.6485 74.7822 34.6019 74.7842 34.5502 74.7617C34.451 74.7184 34.3509 74.674 34.2511 74.6275C34.1457 74.5786 34.118 74.4888 34.172 74.3624C34.2629 74.1491 34.3664 73.9368 34.4707 73.7223C34.5738 73.5103 34.6714 73.2982 34.7719 73.0896C34.7886 73.0548 34.8107 73.0044 34.8375 72.9383ZM36.3811 74.8853C36.4286 74.8472 36.4898 74.8499 36.5321 74.8104C36.5721 74.8762 36.605 74.9085 36.6633 74.9911C36.7215 75.0735 36.7735 75.1483 36.819 75.215C36.7728 75.2475 36.7221 75.2881 36.667 75.3367C36.6102 75.2236 36.5146 75.0731 36.3811 74.8853ZM35.7898 74.5752C35.82 74.6279 35.8528 74.6812 35.888 74.735C35.8039 74.7728 35.6363 74.8658 35.3854 75.0145C35.364 74.9692 35.3324 74.9221 35.2907 74.8727C35.5386 74.7578 35.7049 74.6586 35.7898 74.5752ZM35.8124 73.867L36.9054 74.1592C36.824 74.3604 36.7742 74.5115 36.7392 74.7292L36.2772 74.6005L36.1658 75.0881C36.1447 75.1801 36.1115 75.2321 36.0655 75.244C36.0196 75.2555 35.9389 75.259 35.8234 75.2537C35.8287 75.1865 35.8192 75.1154 35.7956 75.0412C35.8812 75.0845 35.94 75.0821 35.9726 75.0841C36.005 75.0861 36.0294 75.0521 36.0455 74.9817L36.1402 74.5673L35.6712 74.4536C35.6956 74.368 35.7197 74.2735 35.7433 74.1705C35.7668 74.0675 35.8009 73.9385 35.8124 73.867ZM35.9101 74.0737L35.845 74.3584L36.6424 74.5623L36.7158 74.2609L35.9101 74.0737ZM36.3664 73.4365C36.4208 73.4383 36.4774 73.4409 36.5366 73.4441C36.5347 73.4637 36.5335 73.4969 36.5341 73.5436C36.5347 73.5904 36.5366 73.6509 36.5374 73.7248C36.657 73.7545 36.8005 73.7925 36.9176 73.8222C37.0233 73.849 37.1182 73.8701 37.2032 73.8858C37.1882 73.9348 37.1739 73.9917 37.1617 74.0405C36.6606 73.8846 36.1306 73.7515 35.6188 73.6405C35.6262 73.589 35.6338 73.5208 35.6421 73.4692C35.7511 73.5054 35.8536 73.5385 35.9487 73.5673C36.0238 73.5901 36.0988 73.6127 36.1741 73.6338C36.2489 73.6547 36.2991 73.6658 36.3742 73.6845C36.3737 73.6591 36.3729 73.6256 36.3709 73.5843C36.3689 73.5429 36.3671 73.4936 36.3664 73.4365ZM38.3348 75.6912C38.3435 75.6044 38.3511 75.5301 38.358 75.4682C38.365 75.4066 38.3708 75.3427 38.3756 75.277L38.443 74.3509C38.4494 74.2626 38.4535 74.189 38.4554 74.1296L38.4624 73.9377C38.5313 73.9483 38.5934 73.9555 38.6488 73.9589L38.8644 73.9719C38.9192 73.9752 38.9831 73.9764 39.0558 73.9757C39.0365 74.0274 39.0196 74.0747 39.0051 74.1182C38.9907 74.1616 38.9805 74.1919 38.9744 74.2084L38.8167 74.6274C38.8827 74.7214 38.9243 74.7916 38.942 74.8384C38.9594 74.8848 38.9726 74.931 38.9812 74.9765C38.9897 75.0221 38.9923 75.0751 38.9882 75.1357C38.9844 75.1961 38.9696 75.2524 38.9438 75.3046C38.918 75.3566 38.8832 75.3938 38.8401 75.4161C38.7966 75.4386 38.7252 75.4576 38.6263 75.4726C38.6269 75.4476 38.6266 75.427 38.6253 75.4103C38.6244 75.3936 38.6204 75.3734 38.6138 75.35C38.607 75.3265 38.5898 75.2859 38.5615 75.2287C38.6192 75.243 38.6569 75.2497 38.6746 75.2494C38.7686 75.2551 38.818 75.2067 38.8234 75.1037C38.8226 75.0972 38.8224 75.0797 38.8226 75.0512C38.8228 75.0228 38.8205 74.9963 38.8159 74.9716C38.8109 74.9466 38.8022 74.9159 38.7896 74.8796C38.7766 74.8433 38.7639 74.8124 38.7514 74.787C38.7388 74.7618 38.7103 74.7127 38.6656 74.6399C38.7191 74.4912 38.7477 74.413 38.7505 74.4051L38.8338 74.1207L38.6111 74.1072L38.5253 75.2861C38.5207 75.3321 38.5172 75.4054 38.5148 75.5055L38.5075 75.7017C38.4617 75.6935 38.4039 75.69 38.3348 75.6912ZM37.9224 74.6092L38.1236 74.6251L38.1574 74.2461L37.9563 74.2302L37.9224 74.6092ZM37.8742 75.1479L38.0754 75.1637L38.1107 74.7687L37.9096 74.7529L37.8742 75.1479ZM37.575 74.5818L37.7817 74.5981L37.8155 74.2191L37.609 74.2029L37.575 74.5818ZM37.5269 75.1205L37.7335 75.1368L37.7689 74.7418L37.5622 74.7256L37.5269 75.1205ZM37.4731 74.0375C37.5403 74.0493 37.6036 74.0577 37.6619 74.0624L37.8284 74.0755L37.84 73.9457C37.8461 73.878 37.8494 73.834 37.85 73.8138L37.8551 73.6778C37.9099 73.6913 37.9628 73.6955 38.0134 73.6902C38.0053 73.7537 37.9986 73.8084 37.9927 73.8532C37.9869 73.8983 37.9828 73.9337 37.9805 73.9589L37.9692 74.0865L38.1302 74.0993C38.1888 74.1038 38.2523 74.1054 38.3207 74.1043C38.3088 74.1863 38.3004 74.2488 38.2959 74.2919C38.2915 74.3352 38.2867 74.3849 38.2817 74.4407L38.2148 75.1888C38.2074 75.2725 38.2032 75.3253 38.2025 75.3465L38.1954 75.5047C38.149 75.4969 38.1221 75.4928 38.1152 75.4916C38.108 75.4903 38.0832 75.4904 38.0405 75.4925C38.0489 75.4397 38.0542 75.4007 38.0565 75.3752L38.0623 75.3094L37.5138 75.2662L37.5044 75.3721C37.5035 75.3813 37.5021 75.4045 37.4999 75.4421L37.497 75.496C37.4454 75.4837 37.395 75.4797 37.3456 75.4841C37.3547 75.407 37.3616 75.3472 37.366 75.304C37.3705 75.2608 37.3765 75.2047 37.3839 75.1353L37.4526 74.3675C37.4547 74.3433 37.4582 74.2908 37.463 74.2096L37.4731 74.0375ZM39.46 74.1129C39.5288 74.1137 39.5886 74.1127 39.6396 74.1095L40.0143 74.0861L40.0096 74.0207C40.008 73.9979 40.0042 73.9624 39.9982 73.9134L39.981 73.7707C40.0447 73.7721 40.0803 73.773 40.0883 73.7731C40.0962 73.7733 40.123 73.7686 40.1691 73.7589C40.1686 73.8148 40.1689 73.8581 40.1705 73.8887C40.1721 73.9192 40.1747 73.9589 40.1782 74.0081L40.183 74.0756L40.5617 74.052C40.6087 74.0491 40.6693 74.0425 40.7432 74.0328C40.7418 74.0765 40.7415 74.1106 40.7426 74.1344C40.7437 74.1585 40.7457 74.19 40.7485 74.2297L40.7926 74.8437C40.797 74.9047 40.8004 74.9431 40.8028 74.9589L40.8181 75.0759C40.7375 75.0755 40.6781 75.0791 40.6406 75.0869C40.6399 75.0764 40.6399 75.0648 40.641 75.0528C40.6419 75.0408 40.6424 75.0344 40.6422 75.033L40.6388 74.9852L40.2501 75.0094L40.2701 75.2876C40.2739 75.3408 40.2784 75.3732 40.2836 75.3855C40.2884 75.3978 40.3012 75.4107 40.3218 75.4234C40.3422 75.436 40.4452 75.433 40.6305 75.415C40.6943 75.4097 40.7415 75.402 40.7724 75.3922C40.8031 75.3821 40.825 75.3661 40.8378 75.3442C40.8501 75.3219 40.8589 75.2955 40.863 75.2645C40.8675 75.2336 40.8705 75.1823 40.8724 75.1103C40.9022 75.1445 40.9301 75.1721 40.9559 75.193C40.9818 75.2139 41.0276 75.2338 41.0932 75.2522C41.0774 75.2838 41.0638 75.3144 41.0517 75.3438C41.0395 75.3731 41.0245 75.4061 41.007 75.4423C40.9893 75.4788 40.966 75.5075 40.9374 75.5284C40.9085 75.5496 40.8669 75.5635 40.812 75.5703C40.7571 75.5771 40.6778 75.5831 40.5736 75.5883C40.3817 75.6002 40.2607 75.5972 40.2107 75.5788C40.1608 75.5608 40.1316 75.5333 40.1238 75.4964C40.1157 75.4597 40.1098 75.4155 40.1061 75.3639L40.0814 75.0199L39.6979 75.0439L39.7026 75.1093L39.707 75.1452L39.7115 75.1828C39.666 75.1804 39.6382 75.1795 39.6273 75.1802L39.5993 75.184L39.5375 75.1916C39.5352 75.1307 39.5335 75.0814 39.5321 75.0443C39.5306 75.007 39.528 74.9635 39.5244 74.913L39.481 74.3088C39.4781 74.2678 39.4753 74.2369 39.4725 74.2157L39.46 74.1129ZM39.687 74.8929L40.0706 74.869L40.0527 74.6207L39.6692 74.6446L39.687 74.8929ZM39.6583 74.4937L40.0418 74.4698L40.0251 74.2371L39.6416 74.261L39.6583 74.4937ZM40.2393 74.8584L40.628 74.8342L40.6101 74.5859L40.2214 74.6102L40.2393 74.8584ZM40.2106 74.4592L40.5993 74.435L40.5826 74.2023L40.1939 74.2265L40.2106 74.4592ZM41.4431 75.3481L41.4918 75.3192C41.6104 75.2481 41.7142 75.1572 41.8027 75.0475C41.8914 74.9374 41.9442 74.8332 41.9613 74.7351C41.9783 74.6367 41.9876 74.5528 41.9888 74.4833C41.9902 74.4134 41.9874 74.3354 41.98 74.2486L41.5841 74.3362C41.5758 74.338 41.494 74.361 41.3385 74.4048C41.3348 74.3827 41.3313 74.3646 41.3288 74.3509C41.3263 74.3372 41.3239 74.3235 41.3214 74.3097C41.3189 74.296 41.3171 74.2863 41.3159 74.2814L41.2941 74.2085C41.4361 74.1866 41.5196 74.1729 41.5441 74.1675L41.9559 74.0765C41.9515 74.0461 41.9466 74.0173 41.9416 73.9898C41.9367 73.9624 41.9278 73.9174 41.915 73.8551L41.8957 73.7696C41.8901 73.7451 41.8862 73.7282 41.8842 73.7192L41.8394 73.5374C41.8886 73.5331 41.9232 73.5293 41.9425 73.5257C41.9621 73.522 41.9924 73.5115 42.034 73.4943L42.0639 73.6917C42.0678 73.726 42.0748 73.7707 42.085 73.8255C42.0949 73.8804 42.1026 73.9198 42.1078 73.943L42.1275 74.0384L42.5568 73.9435C42.5706 73.9404 42.6503 73.918 42.7954 73.8764C42.8003 73.9095 42.8038 73.9334 42.8063 73.9485C42.8085 73.9637 42.8105 73.9765 42.8122 73.9869C42.814 73.9976 42.8232 74.0259 42.8397 74.0727C42.7208 74.0896 42.6417 74.1022 42.6019 74.111L42.2007 74.1998C42.2098 74.2291 42.2236 74.2664 42.2418 74.3121C42.2599 74.3575 42.3112 74.4388 42.3951 74.5556C42.4791 74.672 42.5585 74.7509 42.6333 74.7914C42.7081 74.8319 42.7826 74.8631 42.8571 74.8857C42.9314 74.9078 42.9997 74.9209 43.0619 74.9249L43.1162 74.9292C43.0424 74.9929 43.0005 75.0491 42.9904 75.0976L42.9693 75.1838L42.9156 75.157C42.9129 75.1562 42.8545 75.1301 42.7406 75.0785C42.6265 75.0267 42.521 74.9544 42.4239 74.861C42.3265 74.7677 42.2371 74.6403 42.1551 74.4789C42.154 74.5226 42.1538 74.562 42.1543 74.5963C42.1547 74.6311 42.1543 74.6597 42.1525 74.6823C42.1511 74.7053 42.1448 74.7414 42.1336 74.7906C42.1228 74.8399 42.1066 74.8947 42.0855 74.9554C42.0643 75.0158 42.0309 75.0764 41.986 75.1375C41.9407 75.1983 41.9037 75.2441 41.8746 75.2752C41.8451 75.3061 41.7804 75.3682 41.6802 75.4609L41.6542 75.4852C41.6396 75.4692 41.6194 75.4479 41.5938 75.4209C41.568 75.3939 41.5179 75.3698 41.4431 75.3481ZM43.397 74.6023C43.382 74.5548 43.3725 74.5236 43.368 74.5081C43.3625 74.493 43.3588 74.483 43.3568 74.4778L43.3281 74.4156C43.4258 74.39 43.5026 74.3672 43.5581 74.347L44.0484 74.1689L44.0338 74.1294L44.0324 74.1255L44.0165 74.093L43.9856 74.0294L44.0144 74.0061C44.0527 73.9751 44.1075 73.918 44.1786 73.8352L43.7569 73.9884C43.7313 73.9977 43.653 74.0312 43.5216 74.0888C43.5155 74.0654 43.5116 74.0505 43.5098 74.0439C43.5081 74.0375 43.5033 74.0235 43.4954 74.0023L43.485 73.974L43.4597 73.9212C43.5896 73.8838 43.6714 73.8592 43.7047 73.8471L44.2181 73.6606C44.2816 73.6376 44.3499 73.6076 44.4233 73.5712C44.4303 73.5999 44.4362 73.6212 44.4414 73.635L44.4552 73.6727C44.4615 73.6933 44.4652 73.7033 44.4663 73.7029L44.4922 73.7578L44.437 73.7928C44.3808 73.8289 44.3059 73.9003 44.2117 74.0071L44.173 74.0511L44.1966 74.1151L44.5984 73.9692C44.6585 73.9473 44.742 73.9119 44.8489 73.8633C44.8562 73.8935 44.8616 73.9152 44.8653 73.9288C44.869 73.9424 44.8731 73.9559 44.8773 73.9693C44.8817 73.9827 44.8951 74.0096 44.9177 74.0499C44.7577 74.0982 44.671 74.1246 44.6576 74.1294L44.2558 74.2754L44.374 74.5959C44.387 74.631 44.3918 74.665 44.3883 74.6976C44.3846 74.7304 44.3053 74.7876 44.1501 74.8696C44.1435 74.8552 44.1367 74.8405 44.13 74.8258C44.1233 74.8111 44.1121 74.794 44.097 74.7747C44.0818 74.7554 44.05 74.7271 44.0025 74.6903L44.0345 74.6849C44.0659 74.6808 44.0919 74.6743 44.1124 74.6654C44.1576 74.6475 44.1831 74.6328 44.1889 74.6215C44.1946 74.61 44.1964 74.5955 44.1936 74.5782C44.191 74.5606 44.1798 74.5252 44.1604 74.4725L44.1075 74.3292L43.6172 74.5073C43.6007 74.5133 43.5272 74.5451 43.397 74.6023ZM43.2256 74.0766C43.2082 74.0187 43.1944 73.9762 43.1842 73.9486L43.13 73.8015C43.122 73.7799 43.1042 73.7386 43.0768 73.6775C43.1701 73.6504 43.2324 73.6315 43.2634 73.6202L44.0221 73.3446C44.0504 73.2132 44.0647 73.0653 44.0645 72.9015V72.8245C44.1209 72.8468 44.1799 72.8618 44.2417 72.8692L44.2306 72.9309L44.2139 73.0141L44.1928 73.1564L44.1704 73.2907L44.3839 73.2132C44.416 73.2015 44.4735 73.1763 44.5564 73.1378C44.5659 73.1741 44.5741 73.2032 44.5803 73.2255C44.5865 73.2473 44.5917 73.264 44.5958 73.2753L44.6481 73.4169C44.6485 73.4181 44.6552 73.4326 44.6681 73.4607L44.6953 73.5194C44.6446 73.5291 44.5897 73.549 44.5305 73.5793C44.5239 73.5518 44.5185 73.5303 44.5143 73.5154C44.5102 73.5005 44.5054 73.4858 44.4998 73.4707L44.4587 73.3594L43.2883 73.7846L43.3293 73.8959C43.3391 73.9223 43.3463 73.9401 43.3512 73.95L43.3842 74.019C43.3603 74.0262 43.342 74.0314 43.3288 74.0351C43.3155 74.0385 43.2812 74.0524 43.2256 74.0766ZM43.1467 73.3397C43.1888 73.3032 43.2247 73.2606 43.2548 73.2128L43.5316 73.4093C43.4907 73.4384 43.4678 73.4569 43.4631 73.4641L43.4072 73.5381L43.3663 73.4887C43.356 73.4782 43.3335 73.4601 43.2987 73.4341C43.2641 73.4083 43.2331 73.3875 43.2057 73.3718L43.1467 73.3397ZM43.671 72.9824L43.8809 73.2485C43.8286 73.2715 43.7821 73.3019 43.7406 73.3399L43.7078 73.292C43.6814 73.2545 43.6594 73.2239 43.6417 73.2003L43.5563 73.0967L43.5322 73.0671C43.5818 73.0448 43.6281 73.0166 43.671 72.9824ZM37.8997 53.8508C37.9151 54.0113 38.0137 54.2598 38.2371 54.1317C38.2559 54.1211 38.2722 54.1069 38.2865 54.0887C38.3006 54.071 38.3104 54.0447 38.3157 54.0103C38.3495 53.5747 38.2272 53.6047 38.0032 53.4811C37.9419 53.4477 37.8934 53.4153 37.8578 53.385C37.8221 53.3541 37.7892 53.3116 37.7595 53.2575C37.6223 53.0073 37.5704 52.4272 37.9551 52.3579C38.2011 52.3503 38.2933 52.6525 38.3359 52.8477H38.2091C38.1709 52.7015 38.0414 52.5047 37.8772 52.6322C37.7646 52.7168 37.7735 52.9155 37.825 53.0308C37.8411 53.0662 37.8587 53.0961 37.8786 53.1209C37.8983 53.1456 37.9218 53.1679 37.949 53.1876C37.9764 53.2074 38.0158 53.2321 38.0671 53.262C38.2847 53.386 38.3771 53.4403 38.43 53.6843C38.4391 53.7278 38.4588 53.8282 38.4626 53.8813C38.4685 53.9785 38.4646 54.0584 38.4506 54.1216C38.4369 54.1848 38.4159 54.2385 38.3877 54.283C38.3595 54.3276 38.3273 54.3599 38.2912 54.3797C38.2548 54.3994 38.2144 54.409 38.17 54.409C37.9229 54.4184 37.799 54.0884 37.7649 53.8508H37.8997ZM39.9074 53.761C39.8921 53.9215 39.9418 54.1841 40.1855 54.1C40.206 54.093 40.2246 54.0822 40.2422 54.067C40.2594 54.0522 40.2739 54.0282 40.2856 53.9954C40.4015 53.5738 40.2757 53.5804 40.0793 53.4172C40.0253 53.3729 39.9838 53.332 39.9546 53.2956C39.9255 53.2585 39.9012 53.2107 39.8823 53.152C39.795 52.8805 39.854 52.3008 40.245 52.3048C40.4879 52.3432 40.5211 52.6572 40.5259 52.8569L40.4014 52.8333C40.3918 52.6824 40.3018 52.4651 40.1164 52.5596C39.9899 52.6218 39.9609 52.8186 39.9897 52.9415C39.9987 52.9793 40.0103 53.0119 40.0252 53.04C40.0398 53.068 40.0586 53.0942 40.0817 53.1187C40.1047 53.1432 40.1387 53.1749 40.1834 53.2138C40.3736 53.3763 40.454 53.4468 40.4597 53.6964C40.4604 53.7409 40.4607 53.8431 40.4544 53.896C40.4418 53.9926 40.4227 54.0704 40.397 54.1298C40.3716 54.1895 40.3408 54.2382 40.3047 54.2767C40.2686 54.3152 40.2308 54.341 40.1916 54.3536C40.1521 54.3662 40.1107 54.3682 40.067 54.3598C39.8226 54.323 39.7635 53.9757 39.7751 53.7359L39.9074 53.761ZM32.6167 54.4265C32.6727 54.3887 32.7533 54.387 32.8569 54.4198C32.9089 54.4363 32.9638 54.4635 33.022 54.5007C33.0801 54.5379 33.1415 54.5856 33.2058 54.6436C33.2702 54.7015 33.3313 54.7633 33.3893 54.8285C33.4474 54.8938 33.5028 54.9626 33.5547 55.035C33.6077 55.1093 33.6556 55.1835 33.6974 55.2581C33.7391 55.3325 33.775 55.4068 33.8035 55.482C33.86 55.6309 33.8832 55.7603 33.8782 55.8693C33.8732 55.9782 33.8396 56.0512 33.7778 56.091C33.7161 56.1308 33.6339 56.1346 33.5289 56.099C33.4244 56.0634 33.3115 55.9912 33.1905 55.8824C33.069 55.7731 32.9569 55.644 32.8527 55.4962C32.8002 55.4217 32.7522 55.3469 32.7097 55.2712C32.6674 55.1957 32.6304 55.1193 32.6002 55.0421C32.5376 54.882 32.5125 54.7489 32.521 54.6434C32.5296 54.5376 32.5608 54.4643 32.6167 54.4265ZM32.7715 54.6495C32.7345 54.6745 32.7154 54.726 32.711 54.8017C32.7067 54.8773 32.7282 54.9731 32.7773 55.088C32.8265 55.2031 32.8917 55.3157 32.9694 55.4262C33.0464 55.5357 33.1279 55.6294 33.2132 55.7087C33.3004 55.7898 33.3805 55.8462 33.455 55.8752C33.5293 55.9041 33.5867 55.9034 33.629 55.8766C33.6713 55.8498 33.6935 55.7984 33.6942 55.7191C33.6948 55.6401 33.6741 55.5467 33.6302 55.4401C33.5859 55.3324 33.5219 55.2237 33.4417 55.1128C33.3651 55.0066 33.28 54.91 33.1872 54.8226C33.0947 54.7353 33.0114 54.6784 32.9378 54.6525C32.8644 54.6268 32.8082 54.6247 32.7715 54.6495ZM34.0249 54.8466L34.4828 55.6499L34.3637 55.7149L33.3519 53.9396L33.844 53.6712L33.9802 53.9103L33.6072 54.1138L33.8917 54.6128L34.2358 54.425L34.3691 54.6588L34.0249 54.8466Z" fill="#013A89"/>
</g>
<defs>
<filter id="filter0_d_185_172" x="0" y="0" width="154" height="157" filterUnits="userSpaceOnUse" color-interpolation-filters="sRGB">
<feFlood flood-opacity="0" result="BackgroundImageFix"/>
<feColorMatrix in="SourceAlpha" type="matrix" values="0 0 0 0 0 0 0 0 0 0 0 0 0 0 0 0 0 0 127 0" result="hardAlpha"/>
<feOffset dy="16"/>
<feGaussianBlur stdDeviation="6.5"/>
<feColorMatrix type="matrix" values="0 0 0 0 0 0 0 0 0 0 0 0 0 0 0 0 0 0 0.03 0"/>
<feBlend mode="normal" in2="BackgroundImageFix" result="effect1_dropShadow_185_172"/>
<feBlend mode="normal" in="SourceGraphic" in2="effect1_dropShadow_185_172" result="shape"/>
</filter>
</defs>
</svg>
