<svg width="154" height="157" viewBox="0 0 154 157" fill="none" xmlns="http://www.w3.org/2000/svg">
<g filter="url(#filter0_d_185_9)">
<rect width="128" height="128" transform="translate(13)" fill="white"/>
<path fill-rule="evenodd" clip-rule="evenodd" d="M54.4879 61.5835L53.4785 65.2397C53.4785 65.2397 53.3148 65.5673 52.9053 65.6491C52.9053 65.6491 52.1689 65.9765 52.005 66.4679C52.0053 66.4678 50.4498 68.2958 49.9039 67.2591C49.904 67.259 49.8495 66.6588 49.5219 66.6862C49.522 66.6861 49.3222 66.5185 50.0129 66.3714C50.0129 66.3714 51.2181 66.5626 52.0413 65.1665C52.0413 65.1663 52.6583 63.9756 51.6444 63.6817C51.6444 63.6817 50.6156 63.6375 50.7329 63.0205C50.7329 63.0205 50.7479 62.8145 51.2328 62.7706C51.2328 62.7705 52.7761 62.4617 52.1881 61.5067C52.1881 61.5067 51.2473 60.3603 52.6145 60.169C52.6145 60.169 54.3336 59.7942 54.4879 61.5835Z" fill="#004098"/>
<path d="M35.3532 69.0072L35.5646 68.9047H35.5857V69.6358C35.5857 69.6838 35.5879 69.7144 35.5915 69.7266C35.596 69.7383 35.6046 69.7472 35.6172 69.7535C35.6302 69.7603 35.6563 69.7634 35.6954 69.7648V69.7886H35.369V69.7648C35.4099 69.7634 35.436 69.7603 35.4481 69.7544C35.4603 69.7477 35.4683 69.7396 35.4733 69.7293C35.4778 69.7189 35.48 69.6875 35.48 69.6358V69.1686C35.48 69.1057 35.4782 69.0648 35.4737 69.0473C35.4706 69.0333 35.4652 69.0234 35.4571 69.0171C35.4495 69.0104 35.44 69.0072 35.4292 69.0072C35.413 69.0072 35.391 69.0139 35.3631 69.0275L35.3532 69.0072Z" fill="#004098"/>
<path d="M35.9526 69.7989V69.7751C36.0079 69.7747 36.0596 69.7617 36.1077 69.7374C36.1553 69.7122 36.2016 69.6682 36.2457 69.6061C36.2907 69.544 36.3217 69.4757 36.3392 69.4011C36.2722 69.4443 36.212 69.4654 36.1576 69.4654C36.0965 69.4654 36.0438 69.442 36.0007 69.3957C35.9571 69.348 35.9355 69.2851 35.9355 69.2078C35.9355 69.1322 35.9571 69.0643 36.0007 69.0054C36.0533 68.9335 36.1216 68.8975 36.2061 68.8975C36.2776 68.8975 36.3383 68.9268 36.3891 68.9852C36.4516 69.0585 36.4826 69.148 36.4826 69.2554C36.4826 69.3512 36.4593 69.4411 36.4116 69.5243C36.3644 69.607 36.2983 69.6762 36.2142 69.7311C36.145 69.7765 36.0699 69.7989 35.989 69.7989L35.9526 69.7989ZM36.3496 69.3538C36.3572 69.2986 36.3612 69.2545 36.3612 69.2212C36.3612 69.1799 36.354 69.1353 36.3401 69.0877C36.3257 69.0396 36.306 69.0027 36.2794 68.9771C36.2542 68.9515 36.225 68.9389 36.1917 68.9389C36.154 68.9389 36.1207 68.9555 36.0919 68.9901C36.0636 69.0239 36.0492 69.0751 36.0492 69.1417C36.0492 69.232 36.0681 69.3026 36.1063 69.3529C36.1338 69.3894 36.1679 69.4078 36.2088 69.4078C36.2282 69.4078 36.2516 69.4033 36.2785 69.3934C36.3055 69.3844 36.3293 69.3709 36.3496 69.3538Z" fill="#004098"/>
<path d="M37.2069 68.9227L37.157 69.0315H36.8958L36.8391 69.1475C36.9515 69.1641 37.0414 69.2059 37.1075 69.2734C37.1646 69.3309 37.1929 69.3993 37.1929 69.4779C37.1929 69.5234 37.1839 69.5651 37.1651 69.6042C37.1462 69.6429 37.1228 69.6758 37.0949 69.7032C37.067 69.7301 37.0356 69.7522 37.001 69.7688C36.9515 69.7922 36.9016 69.8039 36.8495 69.8039C36.7977 69.8039 36.7595 69.7954 36.7357 69.7778C36.7123 69.7598 36.7006 69.7405 36.7006 69.7193C36.7006 69.7067 36.7056 69.6964 36.7155 69.6879C36.7249 69.678 36.7375 69.6735 36.7528 69.6735C36.7631 69.6735 36.773 69.6753 36.7816 69.6789C36.7901 69.682 36.8041 69.691 36.8243 69.7049C36.8562 69.7274 36.8886 69.7382 36.9214 69.7382C36.9713 69.7382 37.0154 69.7193 37.0527 69.682C37.0904 69.6438 37.1098 69.5979 37.1098 69.544C37.1098 69.4918 37.0927 69.4428 37.059 69.3978C37.0257 69.352 36.9789 69.317 36.9196 69.2922C36.8728 69.2733 36.8099 69.2621 36.7294 69.2589L36.8958 68.9226L37.2069 68.9227Z" fill="#004098"/>
<path d="M37.9586 69.6218L37.8975 69.7886H37.3849V69.7648C37.536 69.6281 37.6421 69.5162 37.7033 69.4289C37.7648 69.3421 37.7959 69.2626 37.7959 69.1907C37.7959 69.1358 37.7788 69.0908 37.7451 69.0558C37.7113 69.0198 37.6709 69.0027 37.6241 69.0027C37.5814 69.0027 37.5432 69.0153 37.509 69.0405C37.4749 69.0648 37.4501 69.1016 37.4339 69.1493H37.4101C37.4209 69.0706 37.4483 69.0104 37.4924 68.9681C37.5365 68.9259 37.5918 68.9052 37.6583 68.9052C37.7284 68.9052 37.7873 68.9272 37.8341 68.9726C37.8817 69.0176 37.9051 69.0706 37.9051 69.1322C37.9051 69.1758 37.8952 69.2199 37.8745 69.2635C37.8426 69.3323 37.7918 69.4056 37.7212 69.4824C37.6147 69.5984 37.5481 69.6686 37.5216 69.6919H37.7482C37.7945 69.6919 37.8269 69.6906 37.8453 69.687C37.8638 69.6834 37.8808 69.6766 37.8952 69.6663C37.9105 69.6555 37.9235 69.6412 37.9348 69.6218H37.9586Z" fill="#004098"/>
<path d="M44.6241 62.0278C44.5814 62.0305 44.5382 62.0336 44.5351 61.9901C44.4461 61.9527 44.3364 61.6129 44.3305 61.5265C44.3274 61.4838 44.407 61.3912 44.3643 61.3939C44.3616 61.3512 44.3153 61.3107 44.3153 61.3107C44.2694 61.2703 44.2663 61.2271 44.2631 61.1835C44.2204 61.1871 44.2204 61.1871 44.1745 61.1466L44.1287 61.1066C44.0824 61.0656 44.0797 61.023 44.0334 60.9825C44.0307 60.9393 43.9875 60.9425 43.9844 60.8989C43.9417 60.9016 43.8953 60.8616 43.8922 60.8189C43.8495 60.8216 43.6688 60.7037 43.6656 60.661C43.6108 60.4906 44.0433 60.5037 44.0927 60.5873C44.1413 60.6709 44.0122 60.6799 44.0185 60.7662C44.0617 60.7635 44.0585 60.7199 44.1017 60.7172C44.1444 60.7141 44.1844 60.6682 44.2703 60.662L44.3103 60.6161C44.353 60.6129 44.393 60.5666 44.393 60.5666C44.433 60.5203 44.5158 60.4709 44.5589 60.4677C44.5562 60.425 44.5994 60.4218 44.5994 60.4218C44.6453 60.4619 44.6453 60.4619 44.6484 60.5055C44.6115 60.5949 44.4883 60.6907 44.402 60.6961C44.3162 60.7024 44.2761 60.7487 44.1903 60.7545C44.1934 60.7977 44.1503 60.8009 44.1503 60.8009C44.1503 60.8009 44.1107 60.8467 44.1534 60.844C44.1566 60.8872 44.1993 60.8841 44.1993 60.8841C44.2393 60.8378 44.2824 60.835 44.3251 60.8315C44.3679 60.8288 44.3679 60.8288 44.411 60.8261C44.4083 60.7829 44.451 60.7798 44.4942 60.7767C44.5338 60.7308 44.5338 60.7308 44.5769 60.7276C44.6201 60.7249 44.6174 60.6813 44.6605 60.6786C44.746 60.6723 44.7923 60.7128 44.7518 60.7591C44.755 60.8023 44.7149 60.8481 44.6727 60.8513C44.6727 60.8513 44.6295 60.854 44.5864 60.8571C44.5891 60.9007 44.5459 60.9039 44.5036 60.9066C44.5036 60.9066 44.4605 60.9093 44.4173 60.9129L44.3742 60.9156C44.3742 60.9156 44.3346 60.9614 44.2914 60.9646C44.2914 60.9646 44.2483 60.9677 44.2514 61.0109L44.2941 61.0077C44.3373 61.005 44.3832 61.0451 44.4263 61.0419C44.4263 61.0419 44.4659 60.9956 44.5095 60.9929C44.5549 61.0329 44.5158 61.0797 44.558 61.0765C44.558 61.0765 44.6039 61.1165 44.6012 61.0734C44.6012 61.0734 44.5549 61.0329 44.5518 60.9902C44.549 60.9466 44.6354 60.9407 44.6781 60.9376L44.7176 60.8917L44.7608 60.8886C44.764 60.9318 44.7671 60.9753 44.8134 61.0154C44.902 61.0527 45.022 60.9138 45.0742 61.0406C45.0773 61.0842 45.0805 61.1269 45.0832 61.1705C45.0431 61.2168 45.0031 61.2627 44.9137 61.2258C44.8683 61.1853 44.9083 61.139 44.8224 61.1449L44.7788 61.148C44.7819 61.1912 44.7392 61.1944 44.7424 61.2375C44.7024 61.2838 44.6102 61.2034 44.567 61.206C44.5243 61.2092 44.5243 61.2092 44.4812 61.2123L44.4843 61.2559L44.4411 61.2586C44.4011 61.3045 44.407 61.3913 44.4933 61.385C44.5365 61.3823 44.5333 61.3391 44.5306 61.2959L44.5729 61.2923C44.6192 61.3328 44.625 61.4187 44.7113 61.4133C44.7082 61.3701 44.7451 61.2806 44.7851 61.2348C44.8709 61.2285 44.8404 61.4038 44.9289 61.4416L45.0121 61.3921C45.0548 61.3894 45.049 61.3036 45.049 61.3036L45.0921 61.3C45.0953 61.3436 45.138 61.34 45.138 61.34C45.1843 61.38 45.2302 61.4209 45.276 61.461C45.276 61.461 45.2819 61.5473 45.285 61.5904L45.2877 61.634C45.2082 61.7266 45.1164 61.6458 45.027 61.6089C45.027 61.6089 44.9411 61.6147 44.8979 61.6179C44.8552 61.6206 44.8121 61.6232 44.7662 61.5833C44.7235 61.5864 44.6803 61.5891 44.6372 61.5918C44.594 61.5954 44.594 61.5954 44.5486 61.5554L44.5513 61.5981L44.5545 61.6417C44.5999 61.6817 44.6462 61.7222 44.6493 61.7653C44.6956 61.8058 44.7015 61.8921 44.6642 61.9811C44.6642 61.9811 44.621 61.9842 44.6241 62.0278Z" fill="#004098"/>
<path d="M44.0078 61.8533C43.8756 61.8191 43.9156 61.7728 43.8661 61.6892C43.8634 61.646 43.8207 61.6487 43.8176 61.6056C43.8176 61.6056 43.8144 61.5625 43.7686 61.5224C43.7259 61.5251 43.6427 61.5741 43.5995 61.5773L43.5595 61.624C43.5168 61.6267 43.5168 61.6267 43.4737 61.6299C43.3909 61.6789 43.0812 61.5701 43.0749 61.4838C43.1122 61.3939 43.1859 61.2154 43.2691 61.1659C43.2691 61.1659 43.3087 61.1196 43.3113 61.1632C43.3581 61.2032 43.3608 61.2468 43.364 61.2895C43.3667 61.3331 43.3667 61.3331 43.4103 61.3299C43.4584 61.414 43.4615 61.4567 43.5447 61.4077C43.5874 61.405 43.631 61.4014 43.6737 61.3987C43.7079 61.2656 43.4808 61.1078 43.5119 60.9321C43.5546 60.9289 43.5519 60.8858 43.5946 60.8826C43.5946 60.8826 43.6409 60.9226 43.644 60.9662C43.6863 60.9635 43.6895 61.0063 43.6926 61.0499C43.6958 61.0925 43.7479 61.2194 43.751 61.263C43.7965 61.3034 43.8796 61.254 43.9223 61.2508C43.9659 61.2481 43.9659 61.2481 44.0087 61.2445L43.9628 61.2045C43.9165 61.1645 43.9134 61.1213 43.8706 61.1245C43.8648 61.0377 43.8585 60.9514 43.9448 60.9451L43.9907 60.9851C43.9934 61.0288 43.9997 61.1155 44.0455 61.1555C44.0918 61.1955 44.0945 61.2391 44.1408 61.2796C44.1867 61.3196 44.2326 61.3601 44.2753 61.3573C44.2784 61.4 44.3306 61.5264 44.2905 61.5727C44.2905 61.5727 44.2478 61.5763 44.2047 61.579C44.2015 61.5358 44.1588 61.5385 44.1557 61.4954C44.1098 61.4549 43.9313 61.3812 43.9313 61.3812C43.8949 61.4697 43.9866 61.5502 44.0356 61.6339C44.0356 61.6339 44.0388 61.6775 44.0846 61.7175C44.0846 61.7175 44.0878 61.7606 44.0446 61.7642C44.0478 61.8069 44.0051 61.8097 44.0078 61.8533Z" fill="#004098"/>
<path d="M42.8744 60.0467C42.788 60.0444 42.7044 59.955 42.6639 59.8673C42.6212 59.8659 42.579 59.8215 42.5808 59.7783C42.5385 59.7338 42.4963 59.6888 42.4963 59.6888L42.4976 59.6461C42.499 59.6025 42.5003 59.5594 42.5012 59.5157C42.5039 59.4294 42.5066 59.3427 42.5075 59.2995C42.5088 59.2559 42.561 58.9542 42.561 58.9542C42.5192 58.9092 42.432 58.9502 42.3875 58.9924C42.3443 58.9911 42.3016 58.9897 42.258 58.9884C42.1708 59.0293 42.0849 59.0271 42.0431 58.9821C41.9568 58.9798 41.8731 58.8908 41.8327 58.8027C41.834 58.7595 41.7904 58.7586 41.7918 58.715C41.7517 58.6269 41.8808 58.6305 41.9239 58.6323C41.9657 58.6768 42.0076 58.7213 42.0494 58.7658C42.177 58.813 42.3929 58.8189 42.4814 58.7353L42.4828 58.6917C42.4837 58.6485 42.4837 58.6485 42.4409 58.6467C42.4005 58.5586 42.3582 58.515 42.2742 58.4251L42.2328 58.381C42.2328 58.381 42.2341 58.3374 42.2355 58.2947C42.2355 58.2947 42.2368 58.2511 42.2796 58.252C42.2805 58.2088 42.3681 58.1679 42.4104 58.2124C42.4531 58.2137 42.4522 58.2574 42.4936 58.3023L42.5354 58.3464C42.5354 58.3464 42.5772 58.3909 42.619 58.4354C42.619 58.4354 42.6626 58.4367 42.7053 58.4381C42.7471 58.4826 42.7462 58.5258 42.8321 58.528C42.8752 58.5298 43.0083 58.403 43.0092 58.3603C43.0551 58.2744 43.0573 58.1877 43.1868 58.1913C43.1882 58.1486 43.2309 58.1495 43.2309 58.1495C43.2727 58.1944 43.2727 58.1944 43.3158 58.1953C43.3145 58.2385 43.3136 58.2821 43.3554 58.3271C43.3541 58.3698 43.3968 58.3711 43.3954 58.4147L43.3941 58.4574C43.3478 58.5865 43.2601 58.6274 43.1742 58.6251C43.1311 58.6238 43.0879 58.6224 43.0866 58.6656C42.9993 58.7065 43.1706 58.7546 43.1706 58.7546C43.2565 58.7578 43.3828 58.8477 43.3379 58.9331C43.2947 58.9317 43.2947 58.9317 43.3379 58.9331C43.2934 58.9754 43.3352 59.0198 43.2907 59.0616C43.2462 59.1039 43.1616 59.058 43.1198 59.0136C43.1198 59.0136 43.078 58.9695 43.0349 58.9677C43.0362 58.9245 42.9081 58.8778 42.864 58.9191C42.864 58.9191 42.819 58.9619 42.8182 59.0046C42.7727 59.0904 42.8105 59.2649 42.8065 59.3948C42.8487 59.4398 42.8042 59.4811 42.846 59.5261C42.8424 59.6556 42.8402 59.7423 42.8361 59.8727C42.878 59.9168 42.8766 59.9604 42.8752 60.0031L42.8744 60.0467Z" fill="#004098"/>
<path d="M41.0648 58.2797C40.8939 58.2594 40.6422 58.1857 40.5289 58.0419C40.4911 57.9938 40.4587 57.9025 40.421 57.8544C40.3931 57.7204 40.3711 57.5433 40.3009 57.4039L40.3059 57.3608C40.2631 57.3558 40.2681 57.3127 40.2254 57.3077C40.1723 57.3886 40.082 57.4219 39.9961 57.4115C39.863 57.4399 39.649 57.4142 39.5686 57.3612C39.5308 57.3127 39.4881 57.3077 39.493 57.2645C39.498 57.2218 39.5456 57.1836 39.5456 57.1836C39.5888 57.1886 39.6693 57.2421 39.712 57.2475C39.7969 57.2574 40.0213 57.1967 40.0694 57.1584C40.117 57.1203 40.0046 56.9759 40.0092 56.9332C39.966 56.9278 40.0199 56.8469 40.0676 56.8091C40.1625 56.7332 40.3517 56.9737 40.4106 56.8496C40.4628 56.7687 40.4309 56.6774 40.4358 56.6342C40.3971 56.5861 40.3225 56.4904 40.4183 56.4139C40.4183 56.4139 40.461 56.4189 40.5037 56.4243C40.5455 56.4292 40.6264 56.4827 40.7127 56.4926C40.7554 56.4975 40.7982 56.5029 40.8831 56.5128C40.9695 56.5232 41.0976 56.538 41.1344 56.5861C41.1731 56.6342 41.1731 56.6342 41.1682 56.6774C41.1623 56.72 41.1093 56.801 41.0666 56.796L41.0239 56.7911L41.0189 56.8342C40.9757 56.8293 40.8854 56.8617 40.8427 56.8567C40.8 56.8518 40.7622 56.8041 40.7141 56.8419L40.7091 56.8851C40.7042 56.9278 40.7469 56.9332 40.7469 56.9332C40.8274 56.9862 40.956 57.0011 40.9883 57.0923C41.0634 57.1885 40.9299 57.2164 40.8881 57.2115C40.7536 57.2393 40.6363 57.1377 40.5401 57.2137C40.4978 57.2088 40.5248 57.3432 40.5675 57.3481C40.6003 57.4394 40.59 57.5257 40.6278 57.5734C40.6606 57.6647 40.6934 57.7555 40.7739 57.809C40.8058 57.8998 40.8813 57.9964 40.9996 58.0971C40.9946 58.1403 41.08 58.1507 41.0751 58.1934L41.1129 58.2415C41.0697 58.236 41.0648 58.2797 41.0648 58.2797Z" fill="#004098"/>
<path d="M34.9828 57.0016C34.8965 57.0016 34.8538 57.0016 34.8538 56.9585C34.8111 56.7849 34.9401 56.7849 35.026 56.7849C35.0691 56.7849 35.155 56.7418 35.1986 56.6986C35.1986 56.6986 35.2413 56.6986 35.2413 56.655C35.2413 56.6118 35.155 56.5682 35.1123 56.5251V56.4383C35.1123 56.4383 35.0691 56.3952 35.1123 56.3952C35.1123 56.352 35.155 56.352 35.1986 56.352C35.1986 56.3084 35.2413 56.3084 35.2849 56.2652C35.2849 56.222 35.3276 56.1784 35.3713 56.1353C35.414 56.0481 35.414 55.9618 35.4567 55.875C35.4998 55.8318 35.5434 55.8318 35.5862 55.8318C35.6289 55.8318 35.7161 55.745 35.7161 55.7014C35.7161 55.7014 35.7161 55.6583 35.6725 55.6583C35.6289 55.7014 35.5862 55.7014 35.5434 55.7014C35.4998 55.745 35.4567 55.745 35.414 55.7882C35.414 55.7882 35.3712 55.7882 35.3276 55.8318C35.2849 55.8318 35.2413 55.875 35.155 55.9185C35.1123 55.9617 34.9828 56.0049 34.9401 56.0481C34.8965 56.0481 34.8965 56.0916 34.8965 56.0916C34.8538 56.1353 34.8111 56.1784 34.7684 56.222H34.7247L34.6811 56.1784C34.6384 56.1353 34.5953 56.0916 34.5953 56.0049C34.5953 55.9186 34.7684 55.7014 34.8538 55.7014C34.8965 55.6583 34.9401 55.745 34.8965 55.745V55.8318C34.9401 55.875 35.155 55.745 35.155 55.745C35.1986 55.745 35.1986 55.7014 35.2413 55.7014C35.155 55.7014 35.155 55.6151 35.1123 55.5715C35.1123 55.5715 35.0691 55.5284 35.026 55.5284C35.026 55.4852 34.9828 55.4852 34.9828 55.4852C34.9401 55.442 35.0691 55.3985 35.1123 55.3553C35.155 55.3553 35.2413 55.3553 35.3276 55.3117C35.3713 55.3117 35.414 55.3553 35.4567 55.3985C35.4998 55.442 35.5434 55.5284 35.4998 55.5715C35.4998 55.6151 35.4567 55.6151 35.4567 55.6151C35.5434 55.6151 35.5862 55.6151 35.6725 55.5715H35.7588C35.8015 55.5715 35.8451 55.5284 35.8878 55.5284C35.9737 55.4852 36.0173 55.5715 36.06 55.6151C36.1036 55.6583 36.1463 55.7014 36.1463 55.745C36.06 55.7883 36.06 55.8318 35.9737 55.8318H35.8015C35.7588 55.875 35.7588 55.875 35.7161 55.875H35.6725C35.6289 55.875 35.6725 55.9186 35.6725 55.9618V56.0049C35.6289 56.0481 35.5862 56.0917 35.5434 56.0917C35.4567 56.1353 35.414 56.222 35.3713 56.2652L35.3276 56.3084C35.3713 56.3084 35.5862 56.2221 35.6289 56.2652C35.6289 56.352 35.5862 56.4383 35.4998 56.4819H35.4567C35.414 56.525 35.4567 56.525 35.4567 56.5682L35.414 56.6118C35.5434 56.6118 35.7161 56.525 35.8015 56.5682C35.8451 56.5682 35.8878 56.6118 35.931 56.655C35.931 56.6986 35.931 56.7849 35.8878 56.7849C35.8451 56.8281 35.8015 56.7849 35.7588 56.7849C35.7161 56.8281 35.6725 56.8281 35.5862 56.8281C35.5434 56.8281 35.4998 56.8717 35.4567 56.8717H35.3276C35.2849 56.8717 35.2849 56.9149 35.2413 56.9149C35.1986 56.9149 35.155 56.9585 35.1123 56.9585C35.0691 57.0017 35.026 57.0016 34.9828 57.0016Z" fill="#004098"/>
<path d="M35.1555 56.2219H35.0696C35.0696 56.1783 35.0265 56.0915 35.0696 56.0483C35.1123 56.0052 35.1555 56.0483 35.1986 56.0483L35.285 56.0052V56.0483C35.285 56.0915 35.285 56.0915 35.2418 56.0915V56.1783C35.1986 56.2219 35.1986 56.2219 35.1555 56.2219Z" fill="#004098"/>
<path d="M35.9706 61.0337L37.1008 60.8444L35.9598 60.6336L35.7683 59.4777L35.5489 60.6066L34.3521 60.7995L35.5327 61.0553L35.7345 62.2116L35.9706 61.0337Z" fill="#004098"/>
<path d="M29.6629 62.2272C29.6202 62.2272 29.5766 62.184 29.5339 62.184C29.4907 62.2272 29.4475 62.184 29.4475 62.1409C29.4044 62.0973 29.4907 62.0541 29.4907 62.0105C29.4907 62.0105 29.4475 61.7938 29.4475 61.7506C29.4044 61.7074 29.3617 61.6639 29.3185 61.6639C29.1459 61.4908 29.1459 61.837 28.9737 61.7938C28.8447 61.7506 28.9737 61.5339 28.9305 61.4908C28.8447 61.3608 28.7152 61.4476 28.6289 61.3608C28.5425 61.2737 28.672 61.0574 28.7583 61.0142C28.8447 60.9706 28.9305 61.0142 28.9737 61.0142C29.0596 61.0574 29.0596 61.0574 29.1027 61.1006C29.1459 61.1441 29.189 61.1873 29.2317 61.1873C29.3185 61.2737 29.4475 61.3173 29.5339 61.404C29.5339 61.4476 29.5766 61.4476 29.6202 61.4908V61.6207C29.6202 61.6639 29.6629 61.7074 29.6629 61.7506C29.7061 61.837 29.7061 61.881 29.7061 61.9237C29.7492 62.0105 29.7924 62.1409 29.6629 62.2272Z" fill="#004098"/>
<path d="M29.7492 61.0144H29.6629C29.5766 60.9704 29.4907 60.9276 29.4044 60.9276C29.4044 60.8836 29.3617 60.8836 29.3617 60.8836C29.3185 60.8409 29.2317 60.8409 29.189 60.7968C29.1459 60.7541 29.1027 60.7105 29.0596 60.6673H28.9737C28.8446 60.6673 28.801 60.6242 28.7583 60.5374C28.7152 60.4938 28.7583 60.4074 28.7583 60.3639C28.801 60.3202 28.8446 60.3202 28.8874 60.2775C29.0168 60.2775 29.0168 60.4506 29.1027 60.4506C29.1459 60.4506 29.1459 60.4075 29.1459 60.3639V60.3202C29.1459 60.2776 29.189 60.1908 29.2754 60.1908C29.2754 60.1908 29.3185 60.1908 29.3617 60.2335V60.2775C29.4044 60.3639 29.3617 60.4506 29.3617 60.4938C29.3185 60.5374 29.3185 60.5374 29.3185 60.5805C29.3617 60.6242 29.3617 60.6242 29.4044 60.6673C29.4044 60.6673 29.4475 60.6673 29.4475 60.7105C29.4907 60.7541 29.5766 60.7968 29.6202 60.7968H29.7056C29.7492 60.754 29.7492 60.7105 29.7492 60.6673C29.7492 60.5805 29.7924 60.5374 29.7924 60.4938C29.8351 60.4938 29.8782 60.4506 29.8782 60.4506C29.9214 60.4074 29.9641 60.4506 30.0073 60.4506C30.0509 60.4938 30.094 60.4938 30.094 60.5374C30.094 60.6673 29.9214 60.8835 29.8782 60.9703C29.8351 60.9703 29.7492 60.9704 29.7492 61.0144Z" fill="#004098"/>
<path d="M30.745 59.936H30.6587C30.616 59.8925 30.4865 59.7625 30.5297 59.7189C30.5724 59.6762 30.6587 59.7189 30.6587 59.6762C30.6587 59.6762 30.745 59.5894 30.745 59.6326V59.7189C30.7882 59.8057 30.8309 59.8924 30.745 59.936Z" fill="#004098"/>
<path d="M31.3052 58.9827H31.2189C31.1753 58.9827 31.1753 58.9827 31.133 58.939H31.0036L30.9608 58.8959C31.0036 58.7655 31.1753 58.636 31.3052 58.636C31.3052 58.6787 31.3479 58.6787 31.3479 58.6787C31.3916 58.7228 31.4343 58.8523 31.3916 58.8959C31.3916 58.939 31.3479 58.9827 31.3052 58.9827Z" fill="#004098"/>
<path d="M29.9263 59.1992C29.9263 59.1992 29.8836 59.1992 29.8405 59.1556C29.8405 59.1556 29.7973 59.1556 29.7973 59.1124C29.7537 59.0256 29.8836 58.9825 29.9263 58.9393C29.9263 58.8958 29.9695 58.809 30.0131 58.7658C30.0131 58.7226 30.0558 58.6791 30.0558 58.6359C30.0985 58.5923 30.0985 58.5491 30.0558 58.5059H30.0131C29.9695 58.5491 29.8405 58.5923 29.8405 58.4624V58.3328C29.8836 58.3328 29.9263 58.2892 29.9695 58.2457C30.0131 58.2457 30.0131 58.2025 30.0558 58.1589C30.1417 58.1157 30.228 58.2025 30.228 58.2893C30.3143 58.2893 30.3143 58.2025 30.3575 58.2025L30.4002 58.1588C30.4434 58.1157 30.616 57.899 30.6587 57.9858C30.7019 57.9858 30.7019 58.0294 30.7019 58.0294C30.6587 58.0726 30.616 58.1157 30.616 58.1589C30.5724 58.2025 30.5297 58.2025 30.4865 58.2457C30.4002 58.376 30.2712 58.4624 30.228 58.5923C30.1848 58.6791 30.1848 58.7226 30.1417 58.7658V58.8525C30.0985 58.8957 30.0558 58.9825 30.0558 59.0256C30.0131 59.0688 30.0558 59.1124 30.0131 59.1556C30.0131 59.1992 29.9695 59.1992 29.9263 59.1992Z" fill="#004098"/>
<path d="M31.133 59.5025H31.0467C31.0035 59.5025 30.8309 59.5025 30.8309 59.4589C30.8309 59.4157 30.9172 59.4157 30.9172 59.3721V59.329C30.9172 59.2858 30.7882 59.1991 30.7455 59.1991C30.6592 59.1991 30.6592 59.2858 30.616 59.2858C30.5297 59.329 30.2707 59.0691 30.2707 59.0255C30.3143 58.9828 30.357 58.8524 30.357 58.8093C30.4006 58.7657 30.4006 58.7229 30.4434 58.6357C30.4434 58.6357 30.487 58.5921 30.487 58.5489C30.5297 58.5058 30.5728 58.5058 30.5728 58.4622C30.616 58.4195 30.6592 58.3327 30.7023 58.3754H30.7455C30.7882 58.3754 30.7882 58.3754 30.7882 58.4195C30.7882 58.4622 30.7882 58.5489 30.7455 58.6357V58.7229C30.7455 58.7657 30.8309 58.7657 30.8309 58.8524V58.896C30.8309 58.896 30.8309 58.9392 30.7882 58.9392C30.8745 58.9828 31.0467 59.1559 31.0903 59.1991C31.0903 59.2422 31.133 59.2422 31.133 59.2422C31.1757 59.2858 31.1757 59.3721 31.1757 59.4157C31.1757 59.4589 31.133 59.5025 31.133 59.5025ZM30.5297 59.0255C30.5297 58.9828 30.5728 58.896 30.5728 58.8093H30.5297C30.487 58.8524 30.4006 58.9828 30.5297 59.0255Z" fill="#004098"/>
<path d="M32.6261 56.9279L32.5825 56.8843C32.5402 56.7976 32.6261 56.7544 32.6693 56.7108C32.6693 56.6681 32.712 56.6245 32.712 56.6245C32.712 56.5377 32.5825 56.5809 32.5825 56.5377C32.5402 56.4945 32.6261 56.3646 32.6261 56.321C32.6693 56.321 32.7547 56.2778 32.7983 56.2347C32.8415 56.1915 32.9705 56.2347 32.9705 56.321V56.4514C33.0136 56.4946 33.1431 56.2779 33.229 56.321C33.229 56.3646 33.229 56.4078 33.1858 56.4078C33.1858 56.4514 33.1 56.5377 33.0564 56.5377C32.9705 56.5809 32.9705 56.5809 32.9273 56.6245C32.8846 56.6245 32.8846 56.6681 32.8415 56.6681C32.7983 56.7544 32.712 56.8843 32.6261 56.9279Z" fill="#004098"/>
<path d="M32.4103 58.0545C32.2381 58.0108 32.2812 57.751 32.1954 57.751L32.1522 57.7946C32.1522 57.7946 32.1086 57.8377 32.1086 57.8814L32.0227 57.9245C31.9364 57.9245 31.9364 57.8377 31.9364 57.7946C31.9364 57.751 31.9364 57.7078 31.9796 57.7078C31.9796 57.6646 32.0227 57.6646 32.0659 57.6646C32.1086 57.6211 32.1522 57.5347 32.1522 57.4911C32.1522 57.448 32.1522 57.448 32.1086 57.4048C32.1086 57.318 32.1086 57.2312 32.0659 57.1877C32.0227 57.1445 31.9796 57.1445 31.9796 57.1009C31.9364 57.0577 31.8937 57.0577 31.8937 57.0141C31.8505 56.971 31.9364 56.8846 31.9364 56.8411C31.9796 56.7547 31.8937 56.5812 31.9796 56.538C32.0227 56.4944 32.0227 56.4944 32.0659 56.4944C32.1086 56.4944 32.1522 56.4512 32.1954 56.4512C32.1954 56.4512 32.2381 56.4944 32.2812 56.4944C32.2812 56.538 32.3244 56.5812 32.2812 56.6679C32.2812 56.7111 32.1522 56.7978 32.1086 56.841C32.0659 56.841 32.0659 56.8846 32.0227 56.8846C32.0227 56.9278 31.9796 56.9278 31.9796 56.971C31.9796 56.971 31.9796 57.014 32.0227 57.014C32.0659 57.0576 32.0659 57.0576 32.1086 57.0576V56.9709C32.1086 56.9277 32.1522 56.8845 32.1522 56.841C32.1954 56.7978 32.2381 56.7978 32.2812 56.7978C32.4103 56.7546 32.4534 56.9277 32.4966 57.014V57.1008C32.5402 57.1876 32.5825 57.2312 32.5825 57.3179C32.6261 57.3611 32.6261 57.4047 32.6261 57.4479C32.7119 57.5347 32.8414 57.7945 32.7982 57.9244C32.7982 57.9676 32.7119 57.9676 32.7119 57.9676C32.6692 57.9244 32.6692 57.8813 32.6261 57.8376C32.5825 57.7945 32.4966 57.7509 32.4534 57.6646C32.4534 57.621 32.4966 57.621 32.4966 57.621L32.5825 57.7077H32.6261C32.6261 57.6646 32.5825 57.5347 32.5402 57.5347V57.491L32.4966 57.4479C32.4534 57.491 32.4534 57.491 32.4534 57.5347C32.4103 57.5778 32.4103 57.5778 32.3675 57.621V57.7078C32.3675 57.7945 32.4534 57.9677 32.4103 58.0545ZM32.2812 57.3611V57.3179C32.2812 57.2744 32.1954 57.1876 32.2812 57.1876H32.3675C32.3675 57.1444 32.3675 57.1009 32.3244 57.1009C32.3244 57.0576 32.2381 56.9709 32.2381 57.014C32.1954 57.014 32.1954 57.0576 32.1954 57.1009V57.2312C32.1954 57.2744 32.2381 57.3611 32.2812 57.3611Z" fill="#004098"/>
<path d="M32.9273 57.7079C32.8846 57.7079 32.8414 57.6644 32.8414 57.6644V57.5776C32.8414 57.4912 32.7982 57.4477 32.7982 57.4045V57.1446C32.7982 57.1011 32.7551 57.0142 32.7551 57.0142C32.7982 57.0142 32.7982 56.9712 32.7982 56.9712C32.8414 56.9712 32.8846 56.928 32.9273 56.928C32.9709 56.8412 32.9709 56.7108 33.0563 56.7108C33.229 56.6245 33.1431 56.8412 33.1862 56.928C33.1862 57.0142 33.229 57.1011 33.3157 57.1446C33.3157 57.1878 33.3584 57.1878 33.3584 57.1878C33.4011 57.2314 33.6169 57.1878 33.6169 57.1446C33.6169 57.1011 33.5738 57.0142 33.5738 56.9711V56.928C33.5738 56.928 33.6169 56.928 33.6169 56.9711C33.6597 56.9711 33.6597 57.0142 33.7028 57.0579C33.746 57.1011 33.7896 57.1446 33.8323 57.1878C33.8323 57.2314 33.8755 57.2745 33.8323 57.3178C33.8323 57.3613 33.7896 57.3613 33.746 57.4045C33.746 57.4045 33.7028 57.4045 33.6597 57.4477C33.5738 57.4477 33.3157 57.4477 33.229 57.3613C33.1862 57.2746 33.1431 57.1878 33.0999 57.1011C33.0563 57.0579 33.0563 57.0143 33.0141 57.0143H32.9709C32.8846 57.1011 32.9709 57.2314 32.9709 57.3178C33.0141 57.4477 33.014 57.6212 32.9273 57.7079ZM32.8846 57.4045V57.1878H32.8414V57.2314C32.8414 57.2746 32.8414 57.3613 32.8846 57.4045Z" fill="#004098"/>
<path d="M38.4608 55.8699C38.3745 55.8699 38.245 55.7831 38.245 55.6963C38.245 55.6532 38.245 55.6532 38.2881 55.6532C38.2881 55.6096 38.3317 55.6096 38.3745 55.6096H38.5903C38.5903 55.6532 38.633 55.6532 38.633 55.6532C38.6757 55.74 38.5466 55.8267 38.4608 55.8699Z" fill="#004098"/>
<path d="M37.5126 55.6531H37.4699C37.4699 55.5664 37.5126 55.5232 37.5553 55.4796C37.5989 55.4365 37.5989 55.4365 37.5989 55.3933C37.6416 55.3501 37.6848 55.3065 37.7275 55.3065C37.7711 55.3065 37.8147 55.3065 37.8574 55.3501C37.8574 55.3501 37.9437 55.3501 37.9437 55.3933C37.9869 55.3933 37.9869 55.4364 37.9869 55.4796C37.9437 55.6531 37.8147 55.5664 37.6848 55.5664H37.6416C37.5989 55.61 37.5553 55.6531 37.5126 55.6531Z" fill="#004098"/>
<path d="M38.5898 57.0398C38.5462 57.0398 38.4604 56.9966 38.4172 56.953C38.3313 56.9099 38.245 56.7799 38.245 56.6931C38.245 56.6068 38.245 56.4333 38.2877 56.3901V56.3465H38.245C38.245 56.3465 38.2014 56.3465 38.1587 56.3901C38.1155 56.4765 38.0724 56.5201 38.0292 56.6068C37.9865 56.6068 37.9865 56.65 37.9438 56.6931C37.9002 56.7363 37.8575 56.7363 37.8143 56.7363C37.7711 56.7363 37.7275 56.7363 37.7275 56.6931C37.6848 56.65 37.8575 56.6068 37.9002 56.6068V56.5633C37.9438 56.4765 37.9865 56.4333 38.0292 56.3465C38.0292 56.3034 37.9865 56.2166 38.0292 56.1731H38.0724C38.1587 56.1731 38.1587 56.2602 38.245 56.2602C38.2877 56.2602 38.3313 56.1731 38.4172 56.1731C38.4604 56.1731 38.5035 56.1731 38.5035 56.2602C38.5035 56.2602 38.4172 56.3034 38.4172 56.3465C38.374 56.3902 38.3313 56.5633 38.3313 56.6069C38.3313 56.65 38.3313 56.65 38.374 56.6932C38.374 56.7363 38.5035 56.8231 38.5462 56.7799C38.5899 56.7363 38.5899 56.6932 38.6326 56.65H38.6757L38.7189 56.6932C38.7189 56.6932 38.7189 56.953 38.6757 56.953C38.6757 56.9966 38.6326 56.9966 38.5898 57.0398Z" fill="#004098"/>
<path d="M37.9438 56.0864L37.9006 56.0432V55.9996C37.9438 55.9996 37.9438 55.9996 37.9438 55.9565H38.4172C38.5035 55.9565 38.5467 55.9133 38.5903 55.9133C38.633 55.8697 38.633 55.8697 38.6757 55.8697H38.7193C38.762 55.8697 38.8052 55.9565 38.762 55.9996C38.7193 55.9996 38.633 56.0432 38.5903 56.0432H38.3745C38.3318 56.0864 38.245 56.0864 38.2018 56.0864L37.9438 56.0864Z" fill="#004098"/>
<path d="M37.5554 56.8667H37.5126C37.4699 56.8231 37.3836 56.52 37.4699 56.52L37.5126 56.6068C37.5554 56.5632 37.599 56.3901 37.5554 56.3465C37.5126 56.3465 37.3409 56.4333 37.3409 56.4333C37.2541 56.4764 37.1678 56.6931 37.0815 56.6931V56.5632C37.1251 56.52 37.1678 56.52 37.211 56.4333C37.1678 56.3901 37.1251 56.4333 37.0815 56.4333H37.0388C36.9525 56.3901 37.0388 56.2166 37.0815 56.1734C37.1251 56.1302 37.1678 56.2166 37.211 56.2166H37.2973C37.2973 56.2166 37.3409 56.2166 37.3409 56.1734C37.3836 56.1302 37.3836 56.043 37.3836 55.9563C37.4263 55.9131 37.4263 55.8268 37.4699 55.7832C37.4699 55.74 37.4699 55.74 37.5126 55.74C37.5554 55.7832 37.5126 55.8699 37.5126 55.9562H37.599L37.6417 55.9998H37.6848L37.7275 55.8699C37.6848 55.8267 37.599 55.8267 37.599 55.8267V55.7832L37.6417 55.74C37.7275 55.74 37.8148 55.6964 37.8575 55.7832V55.8699L37.8148 55.9131C37.8148 55.9562 37.7711 56.043 37.7711 56.0862C37.7275 56.0862 37.6848 56.1302 37.6848 56.1734H37.7275C37.7711 56.1734 37.7711 56.2166 37.7711 56.2166V56.2597C37.7275 56.3033 37.6848 56.3033 37.6848 56.3465V56.4333C37.6848 56.4764 37.6417 56.52 37.6417 56.5632C37.6417 56.6931 37.6417 56.7799 37.5554 56.8667ZM37.5126 56.2166V56.043H37.4699C37.4699 56.0862 37.4699 56.1302 37.4263 56.1734V56.2166L37.5126 56.2166Z" fill="#004098"/>
<path d="M35.869 63.3656C35.8699 63.3656 35.2661 63.1718 34.7023 63.1584L34.6875 63.0959L35.3448 62.7924V62.8625L34.8354 63.0959C34.8354 63.0959 35.5138 63.1826 35.8317 63.2833C35.8694 63.3638 35.8685 63.3652 35.869 63.3656Z" fill="#004098"/>
<path d="M41.0445 60.161L41.0841 60.214L35.5093 68.4425L35.4517 68.407L36.4457 65.5099L36.5285 65.3858L35.6208 68.1544L40.9407 60.2815L39.3451 61.0282L39.4287 60.9037L41.0445 60.161Z" fill="#004098"/>
<path d="M40.9951 65.0913L40.8692 64.6143L38.2212 64.6121L37.9011 65.0886L40.9951 65.0913ZM36.6472 64.6197L35.837 64.6179C35.8015 64.7578 35.7422 64.9147 35.6936 65.0887L36.5312 65.0869C36.5779 64.9183 36.6175 64.7605 36.6472 64.6197ZM35.677 64.6108L31.8443 64.6157L31.717 65.0869L35.5416 65.0932C35.5844 64.9412 35.6365 64.7722 35.677 64.6108Z" fill="#004098"/>
<path d="M31.6604 63.8277C31.6604 62.4925 33.2816 61.3789 35.4328 61.1266C34.3637 61.5353 33.6035 62.5761 33.6035 63.7967C33.6035 64.0148 33.6277 64.227 33.674 64.4311H31.7737C31.6995 64.2369 31.6604 64.035 31.6604 63.8277ZM33.7203 64.61C33.7694 64.7773 33.8336 64.9373 33.9105 65.0895H32.1819C32.0479 64.9378 31.9292 64.7773 31.8447 64.61H33.7203ZM33.9811 65.2204C34.0121 65.2743 34.0445 65.3274 34.0791 65.3791H32.4763C32.4161 65.3274 32.359 65.2743 32.3046 65.2204H33.9811ZM34.1708 65.5094C34.308 65.6933 34.4667 65.8601 34.6433 66.0058H33.4825C33.1665 65.8619 32.8823 65.6956 32.6378 65.5094H34.1708ZM34.8142 66.1362C34.9297 66.2175 35.0516 66.2913 35.1788 66.3547C35.1631 66.3996 35.1473 66.4441 35.132 66.4877C34.6514 66.4113 34.201 66.2922 33.7945 66.1362H34.8142ZM35.2921 66.4055C35.4234 66.4639 35.5708 66.5192 35.7116 66.557C35.5623 66.5449 35.4018 66.5287 35.2575 66.5084C35.2678 66.4765 35.2813 66.437 35.2921 66.4055ZM37.5256 61.1586C37.9127 61.2161 38.28 61.3024 38.6222 61.4126L38.2387 61.5897C38.0251 61.4126 37.785 61.2665 37.5256 61.1586ZM39.988 62.0771C40.6574 62.5527 41.0594 63.1628 41.0594 63.8277C41.0594 64.0525 41.0131 64.2706 40.9263 64.4796H39.1936C39.2471 64.2607 39.2754 64.0319 39.2754 63.7967C39.2754 63.598 39.2552 63.4038 39.2165 63.2163L39.988 62.0771ZM40.8669 64.61C40.7829 64.7773 40.6718 64.9378 40.5378 65.0895H38.9679C39.0452 64.9373 39.1086 64.7773 39.1585 64.61H40.8669ZM40.4146 65.2204C40.3607 65.2743 40.3031 65.3274 40.2434 65.3791H38.7997C38.8339 65.3274 38.8663 65.2743 38.8973 65.2204H40.4146ZM40.0815 65.5094C39.8369 65.6956 39.5523 65.8619 39.2363 66.0058H38.2346C38.4117 65.8601 38.5705 65.6933 38.7076 65.5094H40.0815ZM38.9247 66.1362C38.4243 66.3277 37.8579 66.4653 37.2491 66.5336C37.5436 66.445 37.8188 66.3097 38.0647 66.1362H38.9247Z" fill="#004098"/>
<path d="M40.1409 59.6689L34.4163 62.4213C34.4163 62.4213 35.0286 62.4627 35.498 62.7225C35.4989 62.723 35.4994 62.723 35.5003 62.7234C35.5007 62.7243 35.5016 62.7248 35.5021 62.7248C35.797 62.8893 36.0344 63.1402 36.0267 63.5214C36.0267 63.5291 36.0267 63.5372 36.0267 63.5453L36.0258 63.5448C36.0258 63.5475 36.0258 63.5498 36.0258 63.552C35.971 64.5699 34.7454 68.02 34.7454 68.02L40.1409 59.6689ZM36.0267 63.5214C36.0263 63.5291 36.0263 63.5372 36.0258 63.5448L36.0267 63.5453C36.0267 63.5372 36.0267 63.5291 36.0267 63.5214Z" fill="#004098"/>
<path d="M41.027 65.5122L41.2374 66.0054H37.2703L37.6201 65.5126L41.027 65.5122ZM36.3243 66.0054H36.1674L36.4462 65.5095L36.4889 65.509C36.4367 65.67 36.3837 65.8372 36.3243 66.0054ZM36.0474 66.0018H35.4189C35.4773 65.8273 35.52 65.6664 35.5681 65.5122L36.3689 65.505L36.0474 66.0018ZM35.289 66.0054H31.6266L31.7314 65.7028L31.7359 65.6902L31.7934 65.5104L35.431 65.5122C35.3748 65.6862 35.3447 65.8507 35.289 66.0054Z" fill="#004098"/>
<path d="M43.956 66.2598L44.0284 66.0508L44.0446 66.0566L44.0406 66.0687C44.0378 66.0763 44.0374 66.088 44.0387 66.1051C44.0406 66.1222 44.045 66.1393 44.0531 66.1559C44.0617 66.1721 44.0765 66.1941 44.0985 66.2216L44.2707 66.4454L44.4177 66.4981C44.4533 66.5106 44.4771 66.5151 44.4892 66.5098C44.5054 66.503 44.5176 66.4877 44.5257 66.4634L44.5324 66.4437L44.5486 66.4495L44.4605 66.7039L44.4443 66.6981L44.4515 66.677C44.4605 66.6518 44.4591 66.6307 44.4479 66.615C44.4411 66.6051 44.4209 66.5947 44.3885 66.5826L44.2496 66.5331L43.9475 66.61C43.912 66.6185 43.8899 66.6257 43.88 66.6298C43.8701 66.6343 43.8567 66.6451 43.8391 66.6631C43.8342 66.668 43.8297 66.6761 43.8256 66.6878L43.8099 66.682L43.8985 66.4257L43.9147 66.4316L43.9102 66.445C43.9052 66.4586 43.9039 66.4725 43.9066 66.4864C43.9084 66.5004 43.916 66.5098 43.9286 66.5138C43.9389 66.5179 43.961 66.5156 43.9942 66.5075L44.2262 66.45L44.0864 66.2679C44.0653 66.2409 44.0482 66.2243 44.0351 66.2202C44.027 66.2166 44.0189 66.2162 44.0109 66.2189C44.0032 66.2207 43.9965 66.2252 43.9897 66.2315C43.9834 66.2382 43.9776 66.25 43.9722 66.2656L43.956 66.2598Z" fill="#004098"/>
<path d="M43.5613 67.2242L43.6935 67.2862L43.6854 67.3019C43.6615 67.293 43.6427 67.2884 43.6305 67.2884C43.6103 67.2889 43.5932 67.2943 43.5784 67.3046C43.5635 67.3154 43.5505 67.3321 43.5384 67.355L43.4979 67.4346L43.9192 67.6562C43.9529 67.6742 43.9758 67.6814 43.9879 67.6787C44.005 67.6742 44.0185 67.6612 44.0297 67.6391L44.0396 67.6194L44.0549 67.627L43.9331 67.8662L43.9183 67.8586L43.9286 67.8383C43.9403 67.8145 43.9421 67.7942 43.9327 67.7763C43.9277 67.7659 43.9093 67.752 43.8783 67.7359L43.4574 67.5142L43.4228 67.5821C43.4098 67.6082 43.4021 67.6275 43.3999 67.641C43.3981 67.6581 43.4017 67.6761 43.4111 67.6936C43.4206 67.7116 43.4372 67.7277 43.461 67.743L43.4529 67.7588L43.3271 67.6841L43.5613 67.2242Z" fill="#004098"/>
<path d="M43.3932 68.5644L43.4066 68.5747L43.2479 68.7936L43.2349 68.7833L43.2475 68.7653C43.2628 68.7442 43.2682 68.724 43.2628 68.7055C43.2596 68.6943 43.243 68.6763 43.2129 68.6538L42.8901 68.4119C42.8649 68.3926 42.8469 68.3818 42.8366 68.3787C42.8289 68.3769 42.8195 68.3778 42.81 68.3827C42.7957 68.3895 42.7844 68.3984 42.7759 68.4106L42.7628 68.429L42.7489 68.4182L42.9072 68.1993L42.9211 68.2101L42.9076 68.2285C42.8928 68.2492 42.8878 68.2686 42.8928 68.2874C42.8964 68.2995 42.9126 68.3166 42.9427 68.3391L43.265 68.5819C43.2902 68.6008 43.3082 68.6115 43.3185 68.6142C43.3266 68.6165 43.3356 68.6151 43.3459 68.6106C43.3599 68.6043 43.3707 68.5949 43.3797 68.5828L43.3932 68.5644Z" fill="#004098"/>
<path d="M42.3016 68.9906L42.4621 69.1349L42.4513 69.1484C42.4167 69.1246 42.3857 69.1101 42.3578 69.1048C42.3304 69.0989 42.302 69.1016 42.2742 69.1124C42.2458 69.1228 42.2225 69.1385 42.204 69.1601C42.1829 69.1843 42.173 69.2109 42.1735 69.2401C42.1744 69.2693 42.1838 69.2914 42.2022 69.308C42.2166 69.3211 42.2337 69.3278 42.2544 69.3282C42.2841 69.3291 42.3367 69.3147 42.4122 69.2864C42.4742 69.263 42.5183 69.2482 42.5448 69.2432C42.5714 69.2387 42.597 69.2392 42.6213 69.245C42.646 69.2518 42.6676 69.2635 42.686 69.2801C42.7215 69.3116 42.7395 69.3529 42.7408 69.4042C42.7422 69.4545 42.7238 69.5022 42.6855 69.5463C42.6734 69.5602 42.6617 69.5719 42.6487 69.5822C42.6415 69.5885 42.6244 69.6002 42.5974 69.6164C42.5705 69.6325 42.5543 69.6438 42.5493 69.6501C42.5439 69.6559 42.5421 69.6622 42.5421 69.6681C42.5426 69.6748 42.5475 69.6838 42.557 69.695L42.5457 69.7081L42.3866 69.5646L42.3974 69.552C42.436 69.5758 42.4684 69.5898 42.494 69.5943C42.5192 69.5992 42.5466 69.5956 42.5759 69.5844C42.6051 69.5727 42.6307 69.5547 42.6527 69.5295C42.6779 69.5003 42.6905 69.4702 42.6896 69.4396C42.6891 69.4091 42.6788 69.3848 42.6581 69.3664C42.6469 69.356 42.6325 69.3488 42.6154 69.3447C42.5983 69.3407 42.5785 69.3411 42.557 69.3452C42.5421 69.3483 42.5062 69.36 42.4486 69.3811C42.3911 69.4013 42.3484 69.4144 42.32 69.4198C42.2917 69.4248 42.2656 69.4248 42.2423 69.4198C42.2184 69.4139 42.1973 69.4027 42.178 69.3852C42.1447 69.3555 42.1272 69.3168 42.1258 69.2683C42.124 69.2206 42.1411 69.1766 42.1762 69.1361C42.1978 69.1105 42.2274 69.0893 42.2638 69.0718C42.2805 69.0637 42.2917 69.0569 42.2962 69.052C42.3011 69.0457 42.3039 69.039 42.3039 69.0318C42.3034 69.0246 42.2994 69.0156 42.2908 69.0035L42.3016 68.9906Z" fill="#004098"/>
<path d="M40.4717 70.6091L40.5999 70.8222L40.7163 70.7489C40.7469 70.7296 40.764 70.7125 40.7685 70.6968C40.7752 70.6765 40.7694 70.65 40.7527 70.6181L40.7671 70.6091L40.88 70.797L40.8656 70.806C40.8463 70.7821 40.8323 70.7673 40.8242 70.762C40.8139 70.7561 40.8017 70.7534 40.7878 70.7552C40.7743 70.7566 40.7559 70.7642 40.7339 70.7777L40.6179 70.8514L40.7244 71.0285C40.7388 71.0528 40.7487 71.0663 40.7541 71.0708C40.759 71.0744 40.7649 71.0762 40.7721 71.0762C40.7793 71.0753 40.7905 71.0708 40.8044 71.0618L40.8944 71.0056C40.9245 70.9863 40.9447 70.9705 40.956 70.9579C40.9668 70.9454 40.9748 70.9287 40.9798 70.9085C40.9861 70.882 40.9879 70.8465 40.9847 70.8028L41 70.793L41.036 70.9566L40.6278 71.2133L40.6192 71.199L40.6377 71.1873C40.6502 71.1792 40.6601 71.1684 40.6678 71.1558C40.6736 71.1459 40.6754 71.136 40.6736 71.1257C40.6709 71.1158 40.6624 71.0969 40.6462 71.0708L40.4358 70.7206C40.4151 70.6864 40.3989 70.6675 40.3872 70.664C40.3715 70.659 40.3531 70.6635 40.331 70.6774L40.3126 70.6891L40.3036 70.6743L40.7118 70.418L40.7883 70.5322L40.773 70.5417C40.7509 70.5169 40.733 70.5012 40.7199 70.4944C40.7069 70.4886 40.6921 70.4863 40.6759 70.489C40.6628 70.4917 40.6435 70.5012 40.6174 70.5174L40.4717 70.6091Z" fill="#004098"/>
<path d="M39.8194 70.953L39.8262 70.9688C39.8073 70.9818 39.7952 70.9948 39.7889 71.0088C39.7799 71.0295 39.7758 71.0569 39.7767 71.0911L39.7889 71.6737L39.7731 71.6805L39.3465 71.2754C39.3245 71.2547 39.3101 71.2426 39.3033 71.239C39.2925 71.2331 39.2808 71.23 39.2687 71.2295C39.2561 71.2291 39.2408 71.2327 39.2233 71.2385L39.2161 71.2223L39.449 71.1185L39.4557 71.1347C39.4301 71.149 39.4153 71.1612 39.4103 71.1711C39.4054 71.181 39.4049 71.1913 39.4094 71.2016C39.4153 71.2161 39.4315 71.2354 39.4571 71.2596L39.7471 71.5348L39.7385 71.1392C39.7376 71.1 39.734 71.074 39.7286 71.0614C39.725 71.0533 39.7174 71.047 39.7066 71.0434C39.6949 71.0394 39.6792 71.0398 39.658 71.0457C39.6567 71.0461 39.6544 71.0466 39.6504 71.0475L39.6441 71.0312L39.8194 70.953Z" fill="#004098"/>
<path d="M38.7854 72.0046L38.7899 72.0212L38.5319 72.0905L38.5278 72.0739L38.5489 72.068C38.5737 72.0613 38.5898 72.0491 38.5975 72.0312C38.6024 72.0199 38.5997 71.9956 38.5907 71.9588L38.49 71.5631C38.4819 71.5321 38.4747 71.5119 38.4689 71.5029C38.464 71.4961 38.4563 71.4916 38.4455 71.4885C38.4307 71.4849 38.4163 71.4849 38.4019 71.4885L38.3808 71.4944L38.3763 71.4777L38.6343 71.4085L38.6384 71.4251L38.6164 71.4314C38.5921 71.4377 38.5759 71.4498 38.5687 71.4673C38.5638 71.479 38.566 71.5032 38.575 71.5401L38.6757 71.9358C38.6834 71.9668 38.6905 71.987 38.6968 71.996C38.7018 72.0027 38.7094 72.0073 38.7207 72.0104C38.7351 72.014 38.7494 72.014 38.7638 72.0108L38.7854 72.0046Z" fill="#004098"/>
<path d="M37.1327 71.6157L37.3004 71.5955L37.7298 72.0226L37.6897 71.6598C37.6852 71.6211 37.6785 71.5973 37.6686 71.5887C37.656 71.577 37.6376 71.5721 37.6133 71.5757L37.5922 71.5779L37.5899 71.5609L37.8044 71.5353L37.8062 71.5523L37.785 71.5546C37.759 71.5582 37.7414 71.5681 37.7315 71.5856C37.7266 71.5959 37.7261 71.6189 37.7297 71.6544L37.7891 72.1854L37.7724 72.1872L37.3094 71.7286L37.3525 72.1166C37.3566 72.1552 37.3633 72.1791 37.3728 72.1876C37.3858 72.1988 37.4042 72.2033 37.4285 72.2006L37.4496 72.1979L37.4519 72.215L37.2375 72.2411L37.2357 72.224L37.2568 72.2208C37.2833 72.2181 37.3004 72.2073 37.3103 72.1903C37.3157 72.1795 37.3161 72.1565 37.3121 72.121L37.2635 71.6836C37.2433 71.6642 37.228 71.6521 37.2181 71.6463C37.2082 71.6404 37.1938 71.6359 37.1745 71.6319C37.166 71.6305 37.153 71.6305 37.135 71.6328L37.1327 71.6157Z" fill="#004098"/>
<path d="M36.3698 71.644L36.3703 71.6265L36.5901 71.6315L36.5897 71.649L36.5663 71.6485C36.542 71.6476 36.5227 71.658 36.5092 71.6782C36.5024 71.6881 36.4984 71.7101 36.4979 71.7456L36.4912 72.0023C36.4894 72.0662 36.4822 72.1152 36.4687 72.1493C36.4557 72.1844 36.4305 72.2141 36.3936 72.2384C36.3568 72.2626 36.3073 72.2739 36.2453 72.2725C36.1774 72.2707 36.1261 72.2577 36.092 72.233C36.0573 72.2082 36.0335 72.1754 36.0196 72.1349C36.0106 72.1066 36.007 72.0545 36.0088 71.978L36.0155 71.7303C36.0164 71.6917 36.0119 71.666 36.0016 71.6534C35.9913 71.6413 35.9746 71.635 35.9508 71.6341L35.9274 71.6337L35.9279 71.6161L36.1963 71.6224L36.1958 71.6395L36.172 71.6391C36.1464 71.6386 36.1279 71.6463 36.1162 71.6624C36.1086 71.6737 36.1041 71.697 36.1032 71.7326L36.096 72.0082C36.0956 72.0333 36.0969 72.0612 36.1005 72.0931C36.1041 72.1251 36.1117 72.1503 36.123 72.1682C36.1338 72.1862 36.15 72.201 36.1716 72.2131C36.1931 72.2253 36.2201 72.2316 36.2516 72.2325C36.2925 72.2334 36.3289 72.2248 36.3613 72.2077C36.3936 72.1907 36.4161 72.1677 36.4287 72.1399C36.4413 72.112 36.4485 72.0648 36.4503 71.9973L36.4566 71.7406C36.4575 71.7011 36.4539 71.6764 36.4458 71.666C36.4341 71.6521 36.4166 71.6449 36.3932 71.6444L36.3698 71.644Z" fill="#004098"/>
<path d="M34.3966 71.2965L34.3494 71.4911L34.3345 71.4862C34.3345 71.4336 34.3264 71.3918 34.3098 71.3594C34.286 71.3131 34.2469 71.2807 34.192 71.2623C34.1169 71.2367 34.0499 71.2479 33.991 71.2951C33.9416 71.3351 33.9052 71.3904 33.8822 71.4606C33.8634 71.5186 33.8571 71.5743 33.8629 71.6292C33.8692 71.6836 33.8863 71.7276 33.9146 71.7613C33.9425 71.7955 33.9749 71.8185 34.0117 71.8315C34.0338 71.8387 34.0558 71.8427 34.0778 71.8441C34.0998 71.845 34.1219 71.8432 34.1444 71.8391L34.2014 71.6651C34.2113 71.635 34.2154 71.6148 34.214 71.6035C34.2127 71.5932 34.2082 71.5837 34.2001 71.5756C34.1925 71.5676 34.1767 71.5595 34.1529 71.5514L34.1583 71.5348L34.3862 71.6112L34.3808 71.6283L34.37 71.6247C34.3476 71.617 34.3296 71.6193 34.3161 71.6323C34.3066 71.6409 34.2968 71.662 34.286 71.6939L34.2257 71.8773C34.1866 71.8846 34.1493 71.8872 34.1138 71.8846C34.0787 71.8823 34.0414 71.8747 34.0014 71.8612C33.8881 71.823 33.8134 71.7564 33.7788 71.6625C33.7528 71.5914 33.7519 71.5195 33.7757 71.4467C33.7932 71.3936 33.8224 71.3469 33.8629 71.3069C33.9115 71.2592 33.9668 71.2291 34.0283 71.2151C34.0796 71.2039 34.1349 71.2084 34.1938 71.2286C34.2149 71.2354 34.2343 71.2434 34.2504 71.2534C34.2666 71.2628 34.2891 71.279 34.317 71.3019C34.3314 71.3136 34.3413 71.3204 34.3467 71.3217C34.3525 71.324 34.3579 71.3226 34.3633 71.319C34.3687 71.3149 34.3745 71.3059 34.3804 71.2911L34.3966 71.2965Z" fill="#004098"/>
<path d="M32.729 70.5695L32.8801 70.6459L33.0118 71.2434L33.1719 70.9157C33.1885 70.8811 33.1953 70.8572 33.1921 70.8447C33.1876 70.828 33.1746 70.8136 33.1526 70.8028L33.1332 70.793L33.1409 70.7777L33.3346 70.8752L33.327 70.891L33.3072 70.8811C33.2838 70.869 33.2636 70.868 33.2465 70.8775C33.2362 70.8833 33.2236 70.9022 33.2078 70.9337L32.9745 71.4129L32.9597 71.4057L32.8163 70.7628L32.6454 71.1126C32.6283 71.1476 32.6216 71.1715 32.6247 71.1836C32.6292 71.2002 32.6427 71.2146 32.6639 71.2255L32.6836 71.2353L32.676 71.251L32.4827 71.153L32.4903 71.1373L32.5092 71.1476C32.5335 71.1593 32.5537 71.1602 32.5708 71.1507C32.5811 71.1449 32.5942 71.126 32.6095 71.0945L32.8023 70.6994C32.7956 70.6719 32.7893 70.653 32.7843 70.6427C32.7785 70.6324 32.7695 70.6206 32.7556 70.6072C32.7488 70.6005 32.7376 70.5933 32.7214 70.5852L32.729 70.5695Z" fill="#004098"/>
<path d="M30.8197 69.375L31.0256 69.5804L31.1501 69.451C31.1721 69.4276 31.1856 69.4109 31.1897 69.4006C31.1928 69.3925 31.1928 69.3835 31.1901 69.3727C31.1856 69.3579 31.1784 69.3453 31.1676 69.3349L31.1524 69.3192L31.164 69.3066L31.3538 69.4959L31.3416 69.5085L31.3259 69.4928C31.3155 69.4824 31.3034 69.4752 31.289 69.4707C31.2787 69.4675 31.2683 69.468 31.2589 69.4725C31.2495 69.4774 31.2342 69.4914 31.213 69.5134L30.932 69.8061C30.91 69.829 30.8965 69.8456 30.8925 69.8555C30.8893 69.8632 30.8893 69.8731 30.892 69.8835C30.8965 69.8987 30.9037 69.9108 30.9145 69.9216L30.9302 69.9374L30.9181 69.9495L30.7288 69.7602L30.7405 69.7481L30.7563 69.7638C30.7742 69.7818 30.7927 69.7894 30.8116 69.7867C30.8241 69.7849 30.843 69.7701 30.8691 69.7436L31.0017 69.6052L30.7958 69.3997L30.6632 69.5377C30.6412 69.5607 30.6281 69.5773 30.6241 69.5872C30.6209 69.5953 30.6209 69.6047 30.6241 69.6159C30.6281 69.6303 30.6353 69.6429 30.6461 69.6537L30.6618 69.6694L30.6502 69.6816L30.4604 69.4923L30.4721 69.4797L30.4878 69.4954C30.5058 69.5139 30.5247 69.5215 30.5436 69.5188C30.5553 69.5166 30.5746 69.5022 30.6007 69.4752L30.8817 69.1821C30.9037 69.1596 30.9172 69.1425 30.9213 69.1322C30.9244 69.1245 30.9244 69.1156 30.9217 69.1048C30.9172 69.0899 30.9096 69.0769 30.8992 69.067L30.8835 69.0512L30.8956 69.0387L31.0854 69.2279L31.0737 69.2405L31.0575 69.2248C31.0467 69.2145 31.0346 69.2068 31.0206 69.2027C31.0103 69.1996 31.0004 69.2 30.9909 69.2045C30.9811 69.2095 30.9658 69.223 30.9442 69.245L30.8197 69.375Z" fill="#004098"/>
<path d="M30.0252 68.9744L30.0118 68.9847L29.8535 68.7671L29.867 68.7568L29.88 68.7752C29.8953 68.7959 29.9124 68.8067 29.9313 68.8067C29.9434 68.8072 29.9645 68.7955 29.9947 68.7725L30.317 68.528C30.3422 68.5091 30.3579 68.4947 30.3633 68.4857C30.3678 68.4781 30.3696 68.4691 30.3683 68.4578C30.366 68.4425 30.3606 68.4286 30.3521 68.4169L30.3386 68.399L30.3525 68.3882L30.5108 68.6062L30.4973 68.6165L30.4838 68.5981C30.4685 68.5774 30.4519 68.5666 30.433 68.5666C30.4204 68.5662 30.3993 68.577 30.3692 68.5999L30.0468 68.8445C30.0216 68.8638 30.0059 68.8781 30.0005 68.8876C29.996 68.8948 29.9947 68.9038 29.996 68.915C29.9978 68.9303 30.0032 68.9442 30.0118 68.9564L30.0252 68.9744Z" fill="#004098"/>
<path d="M29.8535 67.5371L29.6444 67.6688L29.7155 67.7875C29.7344 67.8181 29.751 67.8356 29.7663 67.8405C29.7865 67.8464 29.8121 67.841 29.8436 67.8239L29.8522 67.8379L29.6678 67.9543L29.6593 67.9395C29.6827 67.9197 29.697 67.9054 29.702 67.8972C29.7083 67.8869 29.7105 67.8743 29.7092 67.8604C29.7078 67.846 29.7006 67.8275 29.6872 67.8051L29.6157 67.6868L29.4412 67.7965C29.4179 67.8113 29.4039 67.8213 29.4003 67.8266C29.3963 67.832 29.3945 67.8379 29.3949 67.8451C29.3949 67.8523 29.3999 67.8639 29.4089 67.8788L29.4637 67.9696C29.4821 68.0002 29.4974 68.0213 29.51 68.0321C29.5226 68.0438 29.5383 68.0519 29.5586 68.0564C29.5842 68.0627 29.6188 68.0645 29.662 68.0613L29.6714 68.0771L29.5105 68.1144L29.2605 67.699L29.2749 67.6896L29.2866 67.7089C29.2942 67.721 29.3041 67.7319 29.3171 67.739C29.3266 67.7453 29.336 67.7471 29.3464 67.7444C29.3567 67.7426 29.3747 67.7331 29.4003 67.717L29.7443 67.5007C29.778 67.4796 29.7964 67.4634 29.8 67.4513C29.8049 67.4355 29.8004 67.4162 29.787 67.3942L29.7757 67.3744L29.7901 67.3654L30.0401 67.7813L29.9277 67.86L29.9182 67.8442C29.943 67.8213 29.9583 67.8033 29.9646 67.7898C29.9708 67.7768 29.9731 67.7619 29.9704 67.7453C29.9681 67.7319 29.9587 67.7116 29.9425 67.6851L29.8535 67.5371Z" fill="#004098"/>
<path d="M29.225 66.8326C29.2327 66.8771 29.2309 66.9131 29.2201 66.9409C29.2043 66.9796 29.1774 67.0066 29.1391 67.0223C29.1077 67.0349 29.0744 67.0362 29.0398 67.0273C29.0065 67.0183 28.9786 67.0008 28.9553 66.9751C28.9296 66.9481 28.904 66.9014 28.8775 66.8348L28.7664 66.557L28.7826 66.5507L28.7912 66.5728C28.8011 66.5975 28.8159 66.6123 28.8357 66.6163C28.8483 66.6195 28.8712 66.6136 28.9045 66.6002L29.2848 66.4487C29.3212 66.4338 29.3428 66.4203 29.3487 66.4082C29.3572 66.392 29.3568 66.3727 29.3478 66.3507L29.3388 66.3286L29.3549 66.3219L29.4566 66.5759C29.4754 66.6231 29.4871 66.6627 29.4921 66.6946C29.4979 66.7378 29.4939 66.776 29.4795 66.8088C29.4637 66.8457 29.4368 66.8717 29.3986 66.887C29.3338 66.9126 29.2763 66.8946 29.225 66.8326ZM29.1576 66.5962C29.1621 66.6191 29.1711 66.647 29.1841 66.6807C29.2138 66.7544 29.2515 66.7949 29.2974 66.8025C29.3208 66.8066 29.3437 66.8034 29.3657 66.7949C29.4075 66.7782 29.4327 66.7472 29.4408 66.7027C29.4476 66.6654 29.4422 66.624 29.4242 66.58C29.4129 66.5507 29.399 66.526 29.3837 66.5053L29.1576 66.5962ZM28.8761 66.7086C28.882 66.7454 28.891 66.7796 28.904 66.8124C28.9216 66.856 28.9458 66.8888 28.9755 66.9109C29.0115 66.9365 29.0501 66.941 29.0915 66.9248C29.1459 66.9028 29.1738 66.861 29.1756 66.7989C29.1765 66.7661 29.1688 66.7288 29.1522 66.687C29.1374 66.6506 29.1257 66.6254 29.1176 66.6119L28.8761 66.7086Z" fill="#004098"/>
<path d="M31.8519 70.5012L31.6518 70.3596L31.5588 70.4162C31.5359 70.4302 31.5206 70.4418 31.5138 70.4521C31.5003 70.4706 31.5129 70.4953 31.5507 70.5268L31.5408 70.5407L31.378 70.4256L31.3879 70.4117C31.4122 70.4229 31.4297 70.4279 31.4401 70.4261C31.4617 70.4234 31.4931 70.4086 31.5359 70.3825L32.0192 70.0853L32.0326 70.0948L31.9081 70.6523C31.9 70.6904 31.8964 70.7175 31.8982 70.7332C31.9005 70.7593 31.9135 70.7813 31.9373 70.8002L31.9274 70.8145L31.7233 70.6698L31.7332 70.6558C31.7692 70.6792 31.7944 70.681 31.8083 70.6613C31.8159 70.65 31.8236 70.6289 31.8308 70.5974L31.8519 70.5012ZM31.8609 70.4648L31.9216 70.1941L31.6833 70.3393L31.8609 70.4648Z" fill="#004098"/>
<path d="M42.1249 70.1348L41.9972 70.2454L41.6416 70.1635C41.6294 70.1739 41.62 70.1824 41.6124 70.1892C41.6061 70.1946 41.5989 70.2004 41.5912 70.2072L41.7117 70.3456C41.7378 70.3753 41.7571 70.3915 41.7706 70.3928C41.7886 70.3951 41.8061 70.3888 41.8241 70.3731L41.8425 70.3569L41.8538 70.3703L41.6492 70.5484L41.638 70.5353L41.656 70.5195C41.6762 70.502 41.6847 70.4827 41.6825 70.4625C41.6802 70.4504 41.6681 70.431 41.6443 70.404L41.3754 70.0951C41.3493 70.065 41.33 70.0493 41.317 70.0475C41.299 70.0452 41.2806 70.0515 41.2626 70.0672L41.2446 70.083L41.2329 70.0704L41.4073 69.9184C41.4501 69.8815 41.4833 69.8559 41.5072 69.8433C41.5467 69.8209 41.5867 69.8132 41.6263 69.8195C41.6605 69.8244 41.6892 69.8415 41.7135 69.8689C41.7693 69.9328 41.7657 70.0079 41.7018 70.0942L41.9199 70.1445C41.9644 70.1554 41.9981 70.1599 42.0206 70.1576C42.0511 70.1558 42.0822 70.1432 42.1136 70.1212L42.1249 70.1348ZM41.5714 70.1842C41.5741 70.1824 41.5773 70.1797 41.5818 70.1757C41.5858 70.1721 41.5894 70.169 41.5912 70.1672C41.6299 70.1339 41.6546 70.0988 41.6654 70.0624C41.6784 70.0183 41.6695 69.9783 41.638 69.9419C41.6119 69.9122 41.5813 69.8961 41.5463 69.8938C41.5112 69.8916 41.4788 69.9042 41.4483 69.9307C41.4343 69.9419 41.4177 69.9608 41.3984 69.9855L41.5714 70.1842Z" fill="#004098"/>
<path d="M46.1801 64.0001C46.1801 58.7035 41.8866 54.41 36.5901 54.41C31.294 54.41 27 58.7035 27 64.0001C27 69.2965 31.294 73.59 36.5901 73.59C41.8866 73.59 46.1801 69.2965 46.1801 64.0001ZM45.9045 64.0001C45.9045 69.1441 41.7342 73.3144 36.5901 73.3144C31.4459 73.3144 27.2756 69.1441 27.2756 64.0001C27.2756 58.8559 31.4459 54.6856 36.5901 54.6856C41.7342 54.6856 45.9045 58.8559 45.9045 64.0001Z" fill="#004098"/>
<path d="M43.1572 63.9803C43.1572 60.3719 40.2322 57.4469 36.6238 57.4469C33.0154 57.4469 30.09 60.3719 30.09 63.9803C30.09 67.5888 33.0154 70.5138 36.6238 70.5138C40.2322 70.5138 43.1572 67.5888 43.1572 63.9803ZM42.8267 63.9803C42.8267 67.4063 40.0496 70.1833 36.6238 70.1833C33.198 70.1833 30.4209 67.4063 30.4209 63.9803C30.4209 60.5544 33.198 57.7774 36.6238 57.7774C40.0496 57.7774 42.8267 60.5544 42.8267 63.9803Z" fill="#004098"/>
<path fill-rule="evenodd" clip-rule="evenodd" d="M57.1999 59.0081C57.1999 59.0081 55.9065 59.0811 56.0828 60.2618C56.0828 60.2618 56.5089 61.2232 56.2298 61.5296C56.2298 61.5295 55.8915 62.3017 55.98 62.7973C55.98 62.7973 56.0828 62.8851 55.921 63.3077C55.921 63.3077 55.7742 64.8671 56.2298 65.2171C56.2298 65.2171 56.7883 65.858 58.214 65.9744C58.214 65.9744 59.61 66.2083 59.4484 65.0567C59.4484 65.0566 59.1691 64.5754 58.5811 64.7067C58.5811 64.7067 57.0233 65.2749 56.9791 64.3277C56.9793 64.3277 56.832 63.1034 57.2584 62.3313C57.2587 62.3312 57.4057 61.9226 58.2433 61.9226C58.2433 61.9226 59.4191 61.9374 59.1986 60.9905C59.1988 60.9905 59.0223 60.5967 58.3755 60.9027C58.3755 60.9026 57.5673 61.4565 57.435 60.8301C57.435 60.83 57.3615 60.4366 57.7141 60.1449C57.7141 60.1449 58.4636 59.2412 57.1999 59.0081Z" fill="#004098"/>
<path fill-rule="evenodd" clip-rule="evenodd" d="M63.9603 59.1109C63.9603 59.1109 63.5051 59.2871 63.9898 59.6398C63.9898 59.6398 64.7835 59.8751 64.5775 60.272C64.5775 60.272 64.3665 60.5531 63.7521 60.7034C63.7383 60.7065 63.7245 60.7097 63.7104 60.7129C63.0637 60.8599 62.329 61.0509 62.329 61.0509C62.329 61.0508 61.6675 60.742 61.4619 61.5801C61.4619 61.5801 61.5059 62.4912 62.329 62.1825C62.329 62.1825 62.4613 61.5945 63.1518 61.5801C63.152 61.5801 63.5636 61.6679 64.0193 61.2122C64.0193 61.2122 65.6801 60.4338 68.0316 60.6395C68.0316 60.6395 68.6046 60.8157 68.6779 60.3601C68.6781 60.36 68.6779 60.066 68.2224 59.9926L66.3558 60.0077C66.3558 60.0077 65.9444 60.0224 66.1357 59.684C66.1357 59.684 66.4588 59.0814 65.6946 58.8316C65.6946 58.8316 65.5625 58.7877 65.3567 58.8463C65.3567 58.8462 65.0334 58.8757 64.8863 58.7435C64.8863 58.7434 64.71 58.5524 63.9603 59.1109Z" fill="#004098"/>
<path fill-rule="evenodd" clip-rule="evenodd" d="M63.49 62.623C63.49 62.623 63.2106 63.6817 63.6665 64.5192C63.6665 64.5192 63.9164 64.7544 64.3865 64.784C64.3868 64.7837 64.7101 64.7102 64.7836 65.6656L64.7982 66.0184C64.7982 66.0184 64.8862 66.8414 64.0487 66.1653C64.0487 66.1653 63.8426 66.1064 64.0487 66.3856L64.7689 67.1207C64.7689 67.1207 64.9305 67.297 64.7836 67.4583C64.7836 67.4583 65.4891 67.5173 65.724 66.8119C65.724 66.8119 65.974 65.4306 65.6947 64.3432C65.6947 64.3432 66.4882 64.0194 66.2679 63.2552C66.2679 63.2552 67.3848 62.388 67.4583 62.3297C67.4583 62.3296 68.0315 61.7267 67.1352 61.6678C67.1352 61.6678 65.6657 61.6243 64.5628 62.1823C64.5631 62.1823 64.1367 62.4913 63.9459 62.4913C63.9459 62.4913 63.549 62.5208 63.49 62.623ZM65.2831 62.7702C65.2831 62.7702 64.3718 62.7264 64.2985 63.1375C64.2985 63.1375 64.2692 63.7109 64.6218 63.8137C64.6218 63.8137 65.739 63.1966 65.2978 62.8287L65.2831 62.7702Z" fill="#004098"/>
<path fill-rule="evenodd" clip-rule="evenodd" d="M61.8882 66.2096C61.8882 66.2096 61.6383 66.7832 61.7411 67.2535C61.7411 67.2535 61.8439 67.7088 62.2996 67.5322C62.2996 67.5321 62.4611 67.4589 62.6377 67.0327C62.6377 67.0327 62.7849 66.5333 63.1081 66.4743C63.1081 66.4743 63.1519 66.2834 62.961 66.3276C62.961 66.3276 62.5641 66.4154 62.3291 66.0777C62.3291 66.0775 61.9764 65.9011 61.8882 66.2096Z" fill="#004098"/>
<path fill-rule="evenodd" clip-rule="evenodd" d="M66.5176 64.8871C66.5176 64.8871 67.3259 63.7851 68.5165 64.9313C68.5165 64.9313 68.8691 65.4748 68.2079 66.195C68.2079 66.1948 67.7375 66.5923 67.3256 66.004L66.5176 64.8871Z" fill="#004098"/>
<path fill-rule="evenodd" clip-rule="evenodd" d="M72.923 59.1568C72.923 59.1568 72.5365 59.1365 72.4751 59.9501C72.4753 59.9501 72.4142 60.5202 72.1089 60.6424C72.1089 60.6424 71.336 60.7848 71.6614 61.3134C71.6614 61.3134 72.2721 62.0259 72.0279 62.8395C72.0279 62.8395 71.8853 63.206 71.9464 63.8164C71.9464 63.8163 72.1091 64.1621 71.2749 64.1824C71.2749 64.1824 70.4816 63.9991 70.2575 65.0374C70.2575 65.0374 70.0948 65.5253 70.6237 65.4438C70.6237 65.4438 71.1325 65.2608 71.2341 65.0578C71.2341 65.0577 71.6612 64.8337 71.6818 65.3224C71.6821 65.3224 71.4376 66.2988 71.9869 66.6245C71.9869 66.6245 72.1295 66.6444 72.1906 66.2785L72.5163 64.9356C72.5163 64.9356 73.2485 64.4267 73.33 64.203C73.33 64.203 73.5943 63.9587 73.6147 64.203L73.6353 65.1998C73.6353 65.1998 73.6147 65.566 73.4522 65.4238L73.2487 65.0169C73.2487 65.0169 72.9844 64.7931 73.0043 65.3224C73.0043 65.3224 73.1265 65.6882 73.2281 65.7288C73.2281 65.7287 73.411 66.2377 73.33 66.4413C73.33 66.4413 73.3909 67.0721 73.8793 66.9907C73.8793 66.9907 74.2661 66.7873 74.2661 66.2377C74.2661 66.2377 74.327 64.9964 74.2455 64.8337C74.2455 64.8337 74.1642 64.3046 74.2661 63.9788C74.2661 63.9788 74.3677 63.3485 74.2455 63.1856C74.2455 63.1856 74.205 62.7377 74.3066 62.3105C74.3066 62.3105 74.7133 61.0495 73.5541 60.8051C73.5541 60.8051 72.9434 60.8459 72.5973 61.8631L72.2721 61.3744C72.2721 61.3744 71.8652 60.9477 72.4142 60.8459C72.4145 60.8459 74.5712 60.6829 74.327 59.5434C74.327 59.5432 74.2455 59.0755 73.8184 59.1568C73.8184 59.1568 73.086 59.3809 72.923 59.1568ZM73.6353 62.8194C73.6353 62.8194 73.4726 61.7612 73.208 61.7001C73.208 61.7001 72.5772 61.578 72.6179 63.267C72.6179 63.267 72.8214 63.2059 72.8415 62.9005C72.8415 62.9005 72.8415 62.1888 73.2892 62.6968C73.2892 62.6968 73.6353 63.0431 73.6353 62.8194Z" fill="#004098"/>
<path fill-rule="evenodd" clip-rule="evenodd" d="M75.6499 60.2961C75.6499 60.2961 75.9752 59.6247 76.6465 59.5433C76.6467 59.5432 77.6638 59.218 77.9692 60.0315C77.9692 60.0315 78.0099 60.2962 77.6437 60.5201C77.6437 60.5201 77.359 60.9065 77.8067 60.825C77.8067 60.825 78.3967 60.8658 78.8034 60.5812C78.8037 60.5811 79.0477 60.5812 78.8442 60.8862C78.8442 60.8862 78.3763 61.4558 77.359 61.2727C77.359 61.2727 77.0333 61.0693 76.5856 61.5373C76.5856 61.5372 75.5481 62.2698 75.1411 62.087C75.1411 62.0868 74.8763 61.7001 75.3039 61.5983C75.3039 61.5983 76.3416 61.4762 76.3416 60.968C76.3416 60.9679 76.1786 60.6219 75.8735 60.5608L75.6499 60.2961Z" fill="#004098"/>
<path fill-rule="evenodd" clip-rule="evenodd" d="M75.7104 62.7987C75.7104 62.7987 76.8497 62.6562 77.1347 62.1273C77.1347 62.1273 77.6842 61.5576 78.0097 62.2291C78.0097 62.2291 78.1317 62.3313 77.7453 62.6765C77.7453 62.6765 77.1548 63.877 77.8062 64.6912C77.8062 64.6912 78.9659 66.0341 79.2713 64.8948L79.3525 64.0601C79.3525 64.0601 79.5155 64.0194 79.8611 65.0166C79.8611 65.0165 80.3495 66.3187 79.475 66.4002C79.475 66.4002 79.19 66.2784 78.8847 66.4616C78.8847 66.4616 77.2162 66.1766 76.9719 64.732L76.8703 63.7347C76.8703 63.7347 76.9518 63.1651 76.443 63.2465C76.443 63.2464 76.1581 63.3687 76.1379 63.7347C76.1379 63.7347 75.7104 65.8916 74.8356 66.0749C74.8356 66.0749 74.53 65.9731 74.7134 65.6677C74.7134 65.6676 74.8962 65.3827 74.9168 64.9963C74.9168 64.9963 74.9372 64.7726 75.1002 64.508C75.1002 64.508 75.8733 63.2059 75.7104 62.7987Z" fill="#004098"/>
<path fill-rule="evenodd" clip-rule="evenodd" d="M83.0361 59.3191C83.0361 59.3191 83.3005 58.8512 83.8294 58.7902C83.8294 58.7902 84.8065 58.2408 85.4165 58.8716C85.4167 58.8714 85.9454 59.3802 85.6609 59.767C85.6609 59.7669 85.3352 59.9498 85.6202 60.1534L87.5535 59.6041C87.5535 59.6041 87.7971 59.4616 88.082 59.6855C88.082 59.6855 89.2012 60.3366 88.5707 60.8249C88.5707 60.8247 88.2244 61.008 87.9598 60.947L86.5966 61.2116C86.5966 61.2116 86.3526 61.3334 86.495 61.5977C86.495 61.5977 86.6174 61.9239 86.3322 62.1067C86.3325 62.1066 85.2945 62.636 85.2537 62.8395L84.9894 63.1444C84.9894 63.1444 84.6639 63.3278 84.9894 63.4495L85.885 63.1242C85.885 63.1242 86.3121 63.0024 86.2306 63.6327C86.2306 63.6327 85.8848 64.1417 85.4368 64.2838C85.4368 64.2838 85.4369 64.5074 85.3352 64.6906C85.3352 64.6906 85.3149 65.057 85.498 65.0774L86.9834 64.6906C86.9834 64.6906 87.248 64.6095 87.4308 64.813C87.4308 64.813 87.919 65.0978 87.7973 65.566C87.7975 65.566 87.5123 65.9524 86.963 65.8709C86.963 65.8709 84.5618 65.952 83.219 66.9088C83.219 66.9088 82.7509 67.2546 82.4662 66.7256C82.4662 66.7256 82.3442 66.0339 82.9141 65.8913C82.9141 65.8913 84.8672 65.8302 84.4197 65.1588L84.1144 64.8739C84.1144 64.8739 83.4023 64.4064 83.6257 63.9585C83.6257 63.9584 85.0908 63.2667 85.2334 62.1881C85.2334 62.188 85.1315 61.2931 85.6813 61.1505C85.6813 61.1505 86.4137 61.2931 86.6577 60.7027C86.6577 60.7027 86.9019 60.0923 86.251 60.4584C86.251 60.4584 84.7044 60.9266 84.2162 61.3949L83.1579 61.8826C83.1579 61.8826 82.853 61.8826 82.6086 62.3305C82.6088 62.3305 82.0799 63.3074 81.4486 62.7784C81.4486 62.7784 80.8183 62.2695 81.3065 61.4962C81.3065 61.4962 81.6928 60.6823 82.4255 60.377C82.4255 60.377 82.7711 60.4787 82.6901 60.7027C82.6901 60.7027 82.5269 61.1709 82.853 61.1302C82.853 61.1302 83.8498 61.232 84.3385 60.5402C84.3385 60.54 84.2024 60.2103 83.9493 60.0622C83.9439 60.0586 83.9374 60.0551 83.931 60.0519C83.6665 59.9094 83.2438 59.3219 83.0361 59.3191Z" fill="#004098"/>
<path fill-rule="evenodd" clip-rule="evenodd" d="M84.6198 62.141C84.6198 62.141 84.4355 62.5594 84.3346 62.7271C84.3346 62.7271 83.9501 63.5305 83.5647 62.8941C83.5647 62.8941 83.3137 62.6934 83.4474 62.141C83.4474 62.141 83.6488 61.9403 83.7155 62.1076C83.7155 62.1076 84.0335 62.4253 84.4688 62.0238C84.4688 62.0237 84.6863 61.9571 84.6198 62.141Z" fill="#004098"/>
<path fill-rule="evenodd" clip-rule="evenodd" d="M84.6198 62.1413C84.6198 62.1413 84.4355 62.5597 84.3348 62.7274C84.3348 62.7274 83.9501 63.5308 83.5647 62.8945C83.5647 62.8945 83.3137 62.6938 83.4474 62.1413C83.4474 62.1413 83.649 61.9406 83.7155 62.108C83.7155 62.108 84.0335 62.4256 84.4688 62.0241C84.4688 62.0241 84.6865 61.9575 84.6198 62.1413Z" fill="#004098"/>
<path fill-rule="evenodd" clip-rule="evenodd" d="M84.6198 62.1413C84.6198 62.1413 84.4355 62.5597 84.3348 62.7274C84.3348 62.7274 83.9501 63.5308 83.5647 62.8945C83.5647 62.8945 83.3137 62.6938 83.4474 62.1413C83.4474 62.1413 83.649 61.9406 83.7155 62.108C83.7155 62.108 84.0335 62.4256 84.4688 62.0241C84.4688 62.0241 84.6865 61.9575 84.6198 62.1413Z" stroke="black" stroke-width="0.3833"/>
<path fill-rule="evenodd" clip-rule="evenodd" d="M92.6483 58.7188C92.6483 58.7188 92.1568 58.6767 91.9 59.4727C91.9 59.4727 92.007 59.9329 91.5792 60.1007C91.5792 60.1006 91.3867 60.3937 91.5792 60.7496C91.5792 60.7496 91.8143 60.4983 92.3275 59.954L93.033 59.9121C93.033 59.9121 93.8453 60.0589 93.7813 59.1372C93.7813 59.1372 93.61 58.5721 92.6483 58.7188Z" fill="#004098"/>
<path fill-rule="evenodd" clip-rule="evenodd" d="M91.8088 61.0641C91.8088 61.0641 91.3468 61.1532 91.5405 61.7493V63.2542C91.5405 63.2542 91.4358 63.865 90.9146 63.7158L90.4531 63.5818C90.4531 63.5818 90.1702 63.4179 90.0211 64.1479C90.0211 64.1479 89.812 64.9671 90.3484 64.8928C90.3484 64.8927 90.8104 64.6099 91.0488 64.878L90.8404 65.3096C90.8404 65.3096 90.4976 65.6972 90.7956 66.2779C90.7956 66.2779 91.079 66.2484 91.2574 65.4883C91.2574 65.4883 91.5107 64.4157 91.8982 64.4308C91.8982 64.4308 92.8367 63.6412 92.9556 64.386C92.9556 64.3857 93.209 65.2199 92.8515 65.3098C92.8515 65.3096 92.7025 65.2796 92.6428 64.937C92.6428 64.937 92.345 64.5943 92.3 65.2202C92.3 65.2202 92.9259 67.1119 93.4029 66.486C93.4029 66.486 93.6857 64.6838 93.3727 63.8051C93.3727 63.8051 93.3279 63.5666 93.5366 63.3729C93.5366 63.3729 93.7897 62.9559 93.4771 62.9261C93.4773 62.9261 93.0154 63.0156 93.313 62.5243C93.3132 62.5243 93.5811 62.0623 93.4771 61.7493C93.4773 61.7493 93.4921 61.4664 93.6857 61.3469C93.6857 61.3469 93.8344 61.2579 93.6113 60.9449C93.6113 60.9447 93.2383 60.4386 92.7618 60.751C92.7618 60.751 92.2256 61.0641 92.3 61.3774H92.8662C92.8662 61.3774 93.0596 61.3469 93.0449 61.6005C93.0449 61.6005 93.2383 62.2411 92.8215 62.1515C92.8217 62.1514 92.5981 61.9131 92.3298 62.0919C92.33 62.0919 92.0174 62.2856 92.0024 62.0026C92.0024 62.0026 92.2553 61.2874 91.8088 61.0641ZM92.0324 62.5389C92.0324 62.5389 91.9874 63.2242 91.9874 63.4179C91.9874 63.4179 92.3895 63.552 92.3895 63.0753C92.3895 63.0753 92.3155 62.4498 92.0324 62.5389Z" fill="#004098"/>
<path fill-rule="evenodd" clip-rule="evenodd" d="M96.9929 59.2762C96.9929 59.2762 97.4841 59.3359 97.3207 59.8127L96.8735 60.5425C96.8735 60.5425 95.8013 60.8557 95.4733 60.0513C95.4735 60.0511 95.3991 59.5444 95.9203 59.3956C95.9203 59.3955 96.7688 59.5596 96.9929 59.2762Z" fill="#004098"/>
<path fill-rule="evenodd" clip-rule="evenodd" d="M94.222 61.6896L96.6354 61.064C96.6354 61.064 97.6778 60.5131 97.8117 60.3643C97.812 60.3643 98.0056 60.2596 98.1995 60.4681C98.1995 60.4681 98.4371 60.7665 98.2288 60.9598C98.229 60.9598 95.2349 62.0324 95.1605 62.0324C95.1605 62.0324 94.9966 62.0173 94.9069 62.241C94.9071 62.241 94.8179 62.3902 94.6091 62.2259C94.6091 62.2258 94.237 62.3452 94.1921 62.0173C94.1923 62.0173 94.1328 61.7492 94.222 61.6896Z" fill="#004098"/>
<path fill-rule="evenodd" clip-rule="evenodd" d="M95.5777 62.5986C95.5777 62.5986 96.1736 62.8366 96.4269 62.36C96.4269 62.36 96.9481 61.8388 97.2757 62.2411C97.2757 62.2411 97.4406 62.3645 97.1905 62.5854C97.1799 62.5944 97.1682 62.6037 97.1563 62.6134C96.8587 62.8517 96.8439 62.7921 96.8882 63.4474C96.8882 63.4474 96.799 64.7734 97.3804 65.0563C97.3804 65.0562 98.095 65.4585 98.3778 64.7284L98.5862 64.3262C98.5862 64.3262 98.6909 64.0581 98.87 64.4308L99.0784 65.5182C99.0784 65.5182 98.8101 66.4564 97.8569 66.0546C97.8569 66.0544 96.5611 65.5779 96.3967 64.4905L96.352 63.4624C96.352 63.4624 96.5154 62.956 96.0837 63.0901C96.0837 63.09 95.8156 63.1645 95.7411 63.5667C95.7411 63.5667 95.4583 65.3245 94.4755 65.5779C94.4755 65.5778 94.0283 65.7713 93.9391 65.4287C93.9391 65.4287 93.8942 65.2501 94.3709 65.1457C94.3709 65.1457 95.2351 64.5797 95.101 63.5071C95.101 63.507 94.9815 63.0156 94.8773 62.8964C94.8773 62.8962 94.7731 62.2259 95.5777 62.5986Z" fill="#004098"/>
<path fill-rule="evenodd" clip-rule="evenodd" d="M102.549 59.738C102.549 59.738 104.455 59.2917 105.171 58.8895C105.171 58.8894 105.796 58.5315 105.96 59.2018C105.96 59.2018 105.751 60.0811 105.141 60.2745C105.141 60.2745 104.56 60.3194 104.53 60.7363C104.53 60.7363 104.351 61.0642 104.917 61.1684C104.917 61.1684 105.26 61.228 105.588 61.1092C105.588 61.109 106.228 60.8704 106.496 61.4366C106.496 61.4365 106.437 61.7795 105.528 61.988C105.528 61.988 104.693 62.1368 104.679 62.6282C104.679 62.6281 104.595 62.7486 104.858 62.9568C104.889 62.9802 104.923 63.0052 104.962 63.0305C104.962 63.0305 107.45 65.3841 109.267 65.3392C109.267 65.3392 109.609 65.4733 109.207 65.5926C109.207 65.5926 107.494 66.6653 106.094 65.4884L104.083 63.7903C104.083 63.7903 103.859 63.6412 103.711 63.9391C103.711 63.9391 103.085 65.1307 102.057 65.3543C102.057 65.3542 100.746 65.7864 100.657 65.2051C100.657 65.2051 100.583 64.8479 101.029 64.8479C101.029 64.8479 102.757 64.6094 102.802 63.4923C102.802 63.4923 102.593 63.0157 102.102 62.9412C102.102 62.9412 101.729 62.956 101.863 62.4348C101.863 62.4348 101.863 61.9578 102.474 61.9578C102.474 61.9577 103.517 62.0473 103.442 61.4811C103.443 61.4811 103.04 60.5426 102.727 60.4829C102.727 60.4829 102.4 60.4535 102.325 60.1109C102.325 60.1109 102.31 59.7831 102.549 59.738Z" fill="#004098"/>
<path fill-rule="evenodd" clip-rule="evenodd" d="M113.379 58.8149C113.379 58.8149 112.574 58.9933 112.797 59.6784C112.797 59.6784 112.857 60.1403 113.065 60.2895C113.066 60.2895 113.408 61.4516 112.842 61.5709C112.842 61.5709 111.77 61.9728 111.233 61.8237C111.233 61.8236 110.31 61.6749 110.28 62.3751C110.28 62.3751 110.191 62.9264 111.159 62.837C111.159 62.8369 112.723 62.6134 112.723 63.2985C112.723 63.2984 112.842 64.4757 111.219 64.8183C111.219 64.8183 110.22 64.9222 110.206 65.429C110.206 65.429 110.98 66.4265 112.47 65.25C112.47 65.2499 113.111 64.3859 113.245 63.9093C113.245 63.9091 113.498 63.4477 113.9 63.8201L115.702 65.8607C115.702 65.8607 115.941 66.1288 116.596 66.0246C116.596 66.0246 118.443 66.5164 118.309 65.6669C118.309 65.6669 117.55 65.3547 116.894 64.8183C116.894 64.8183 115.151 63.522 114.988 63.4326C114.988 63.4326 114.197 62.9261 114.481 62.2561C114.481 62.2561 114.763 61.7198 115.628 61.8089C115.628 61.8088 116.522 61.6454 116.164 61.2578C116.164 61.2578 115.866 60.9598 115.822 60.7812C115.822 60.7812 115.747 60.5875 115.196 60.8704C115.196 60.8703 114.317 61.3919 114.228 60.8409C114.228 60.8408 114.154 60.617 114.406 60.3045C114.406 60.3045 114.988 59.6784 114.302 59.1575C114.302 59.1575 113.855 59.0383 113.766 58.9933L113.379 58.8149Z" fill="#004098"/>
<path fill-rule="evenodd" clip-rule="evenodd" d="M119.798 58.5079C119.798 58.5079 120.553 58.9174 120.566 59.8265L120.696 61.3371C120.696 61.3371 121.049 61.7542 121.242 61.1769L120.969 59.0915C120.969 59.0915 120.552 58.4984 121.177 58.4022C121.177 58.4022 121.707 58.2737 121.739 58.8669L121.643 60.1502L121.659 60.9202C121.659 60.9202 121.755 61.1449 121.899 60.9364C121.899 60.9364 122.332 60.9364 122.252 60.3267C122.252 60.3267 122.092 59.9098 122.268 59.8778C122.268 59.8778 122.717 59.8936 122.669 59.6693C122.669 59.6693 122.573 59.5569 122.364 59.637C122.364 59.6369 122.027 59.7332 122.043 59.4927L121.996 58.6906L122.477 58.5142C122.477 58.5142 122.765 58.4022 122.733 58.0172C122.733 58.0171 122.605 57.4398 123.166 57.3914C123.166 57.3914 123.888 57.199 123.888 58.033C123.888 58.033 123.824 58.2737 123.407 58.3861C123.407 58.386 123.134 58.5785 123.215 58.7869C123.215 58.7868 123.166 58.9473 123.375 58.9635C123.375 58.9634 123.728 59.1078 123.551 59.3963C123.551 59.3962 122.765 60.3586 123.487 60.7599C123.487 60.7597 124.08 60.8879 123.984 60.5194C123.984 60.5193 123.551 60.2144 123.663 59.9739C123.664 59.9739 124.594 59.8136 124.434 59.605C124.434 59.605 123.92 59.4608 123.792 59.1558C123.792 59.1558 123.567 58.7388 123.872 58.8193C123.872 58.8191 124.899 59.0116 124.802 58.4984C124.803 58.4983 124.882 58.0814 124.434 57.873C124.434 57.873 124.257 57.5841 124.545 57.6322C124.546 57.6321 125.155 57.2471 125.203 56.9744C125.203 56.9744 125.235 56.9105 125.428 56.9744C125.428 56.9744 126.053 56.7339 126.278 57.3436C126.278 57.3436 126.342 57.6964 125.781 57.9692C125.781 57.969 125.54 58.2257 125.492 58.5142L124.914 59.9254C124.914 59.9254 124.578 60.5833 125.268 60.4709L126.278 60.1986C126.278 60.1986 126.551 60.0701 126.807 60.4228C126.807 60.4228 127.032 60.5032 126.983 60.7117L127 61.0964C127 61.0964 125.299 61.4657 124.562 61.2891C124.562 61.2891 124.065 61.1607 123.952 61.0326C123.952 61.0325 123.663 60.9041 123.503 61.0807C123.503 61.0807 123.134 61.3853 122.797 61.2571C122.797 61.2571 122.092 61.8342 121.691 61.8023C121.691 61.8022 121.161 61.9627 120.841 62.2673C120.841 62.2673 120.311 62.5881 120.023 62.9089C120.023 62.9088 119.429 63.7109 119.028 63.0374C119.028 63.0373 118.9 62.2354 119.509 61.3853C119.509 61.3852 119.894 61.0645 119.975 61.4976C119.975 61.4975 120.007 61.7222 120.215 61.7061C120.424 61.6899 120.263 61.7061 120.263 61.7061C120.263 61.706 120.424 61.6741 120.295 61.4334C120.295 61.4333 120.151 61.0326 120.215 60.8079C120.215 60.8079 120.295 60.391 120.087 60.2464C120.087 60.2463 119.959 59.9739 120.071 59.9098C120.071 59.9096 120.119 59.6851 119.926 59.5569C119.926 59.5569 119.524 58.9663 119.798 58.5079Z" fill="#004098"/>
<path fill-rule="evenodd" clip-rule="evenodd" d="M121.723 62.2516C121.874 62.2364 122.461 62.2354 123.087 61.8184C123.087 61.8184 123.728 61.3853 124.065 61.5618C124.065 61.5618 124.546 61.61 124.482 61.8184C124.482 61.8184 124.37 62.1073 123.856 62.1712C123.856 62.1712 123.167 62.412 123.167 62.925C123.167 62.925 123.087 63.3102 123.552 63.294L124.578 63.0052C124.578 63.0052 124.963 62.8451 125.22 63.3421C125.22 63.3421 125.3 63.7591 124.867 63.743C124.867 63.7429 124.755 63.5667 124.498 63.6148L123.744 63.8551C123.744 63.8551 123.472 63.9675 123.6 64.4969C123.6 64.4969 123.646 65.9591 123.286 66.3353C123.279 66.3431 123.271 66.3508 123.263 66.3574C122.878 66.6943 122.557 67.416 122.044 66.8067C122.044 66.8066 121.226 66.3574 121.146 65.6516C121.146 65.6515 121.21 65.4112 121.563 65.5716C121.563 65.5716 122.589 65.9243 122.926 65.2989C122.926 65.2989 122.942 64.8819 122.862 64.7216C122.862 64.7214 122.83 64.2245 122.317 64.2883C122.317 64.2883 121.531 64.2565 121.098 64.4807C121.098 64.4807 120.617 64.8015 120.36 64.0156C120.36 64.0156 120.664 63.711 121.018 63.743C121.018 63.7429 122.317 63.9999 122.573 63.4706L122.606 62.6043C122.606 62.6043 122.445 62.4601 122.124 62.6524C122.124 62.6523 121.531 63.1817 121.306 62.7166C121.306 62.7165 120.905 62.3316 121.723 62.2516Z" fill="#004098"/>
<path fill-rule="evenodd" clip-rule="evenodd" d="M50.9272 71.047V68.7332H51.7957C51.9725 68.7332 52.1141 68.7569 52.2207 68.8032C52.3281 68.8501 52.4115 68.9223 52.4719 69.0198C52.5321 69.1168 52.5628 69.2186 52.5628 69.3252C52.5628 69.4238 52.5361 69.5171 52.482 69.6044C52.4288 69.6916 52.3473 69.7622 52.2392 69.816C52.3792 69.857 52.4864 69.927 52.5618 70.0256C52.6372 70.1247 52.6749 70.2417 52.6749 70.3763C52.6749 70.4846 52.6517 70.5853 52.6061 70.6785C52.5602 70.7717 52.5038 70.8434 52.4363 70.894C52.3689 70.9447 52.2844 70.9824 52.183 71.0083C52.0818 71.0341 51.9573 71.047 51.8097 71.047H50.9272ZM51.234 69.7056H51.7344C51.8695 69.7056 51.9671 69.6965 52.0263 69.6787C52.1038 69.6555 52.1626 69.6172 52.2019 69.5634C52.2413 69.5095 52.2612 69.4421 52.2612 69.3614C52.2612 69.2848 52.2429 69.217 52.2062 69.1588C52.1692 69.1 52.1162 69.0602 52.0483 69.0387C51.98 69.0171 51.8627 69.0063 51.6962 69.0063H51.234V69.7056ZM51.234 70.7739H51.8097C51.9088 70.7739 51.9783 70.7701 52.0181 70.7631C52.0888 70.7502 52.1476 70.7292 52.1949 70.6996C52.2424 70.6704 52.2811 70.6273 52.3118 70.5713C52.342 70.5148 52.3576 70.4501 52.3576 70.3763C52.3576 70.2901 52.3356 70.2152 52.2914 70.1511C52.2471 70.0875 52.1858 70.0429 52.1071 70.017C52.0291 69.9916 51.9158 69.9788 51.7688 69.9788H51.234V70.7739ZM55.6214 71.047V68.7332H57.2942V69.0063H55.9275V69.7147H57.2073V69.9863H55.9275V70.7739H57.348V71.047H55.6214ZM60.3418 71.047V68.7332H60.6479V71.047H60.3418ZM63.7154 71.047V68.7332H64.0219V69.6835H65.2245V68.7332H65.531V71.047H65.2245V69.9567H64.0219V71.047H63.7154ZM68.3052 71.047L69.194 68.7332H69.5237L70.4708 71.047H70.1217L69.8517 70.3461H68.8842L68.6304 71.047H68.3052ZM68.9725 70.0967H69.7574L69.5155 69.4561C69.4422 69.2617 69.3874 69.1017 69.3518 68.9762C69.3221 69.1249 69.2806 69.272 69.2268 69.4184L68.9725 70.0967ZM73.2307 71.047V68.7332H73.5449L74.7601 70.5498V68.7332H75.0538V71.047H74.7398L73.5243 69.2288V71.047H73.2307ZM79.1698 70.1392V69.8683L80.1497 69.8667V70.7248C79.9994 70.845 79.8444 70.935 79.6843 70.9958C79.5243 71.0562 79.36 71.0864 79.1918 71.0864C78.9647 71.0864 78.7577 71.0379 78.5725 70.9404C78.3866 70.8434 78.2466 70.7022 78.1518 70.5186C78.0569 70.3343 78.0094 70.1285 78.0094 69.9012C78.0094 69.676 78.0569 69.4659 78.1511 69.2708C78.2449 69.0753 78.3808 68.9304 78.5573 68.8361C78.7341 68.7413 78.9376 68.6938 79.1682 68.6938C79.3351 68.6938 79.4866 68.7208 79.6217 68.7752C79.7571 68.8291 79.8631 68.9045 79.9397 69.0015C80.0167 69.0985 80.075 69.2245 80.1153 69.3802L79.839 69.4561C79.8039 69.3382 79.7608 69.2455 79.7095 69.1782C79.658 69.1109 79.584 69.057 79.4883 69.0165C79.393 68.9762 79.2862 68.9557 79.1698 68.9557C79.0298 68.9557 78.9085 68.9773 78.8067 69.0198C78.7043 69.0623 78.6226 69.1184 78.5594 69.1879C78.4971 69.2573 78.4484 69.3333 78.4135 69.4168C78.3548 69.5596 78.3253 69.7147 78.3253 69.8823C78.3253 70.0886 78.3606 70.261 78.4318 70.4C78.503 70.539 78.6062 70.6419 78.742 70.7092C78.8778 70.7766 79.0216 70.8105 79.174 70.8105C79.3073 70.8105 79.4365 70.7846 79.5627 70.7335C79.6892 70.6828 79.7845 70.6284 79.8498 70.5703V70.1392H79.1698ZM85.3565 68.7332H85.663V70.0703C85.663 70.3025 85.6365 70.4873 85.5838 70.6241C85.5311 70.761 85.4361 70.8719 85.2989 70.9576C85.1614 71.0438 84.9816 71.0864 84.7585 71.0864C84.5419 71.0864 84.3642 71.0492 84.2267 70.9743C84.0888 70.8999 83.9902 70.7917 83.9314 70.65C83.8722 70.5083 83.8432 70.3155 83.8432 70.0703V68.7332H84.1492V70.0687C84.1492 70.2697 84.1679 70.4178 84.2052 70.5126C84.2424 70.608 84.307 70.6812 84.3976 70.7329C84.4885 70.7846 84.6002 70.8105 84.7315 70.8105C84.9568 70.8105 85.1172 70.7594 85.2132 70.657C85.3085 70.5551 85.3565 70.3591 85.3565 70.0687V68.7332ZM88.6881 71.047V68.7332H89.0021L90.2176 70.5498V68.7332H90.5112V71.047H90.197L88.9818 69.2288V71.047H88.6881ZM93.5966 71.047V68.7332H93.9026V71.047H93.5966ZM97.622 71.047L96.7257 68.7332H97.0575L97.6588 70.414C97.7073 70.5487 97.7475 70.6753 97.7798 70.7927C97.8161 70.6667 97.8576 70.5406 97.9049 70.414L98.5298 68.7332H98.8422L97.9362 71.047H97.622ZM101.642 71.047V68.7332H103.315V69.0063H101.948V69.7147H103.228V69.9863H101.948V70.7739H103.369V71.047H101.642ZM106.315 71.047V68.7332H107.341C107.547 68.7332 107.704 68.7542 107.811 68.7957C107.918 68.8371 108.004 68.9104 108.069 69.0155C108.133 69.1211 108.165 69.2374 108.165 69.3646C108.165 69.5289 108.112 69.6668 108.005 69.7794C107.899 69.892 107.735 69.9636 107.513 69.9943C107.594 70.0331 107.656 70.0714 107.698 70.1096C107.787 70.1915 107.872 70.2944 107.952 70.4173L108.354 71.047H107.969L107.663 70.5654C107.574 70.427 107.5 70.3203 107.442 70.247C107.384 70.1732 107.332 70.1215 107.287 70.0924C107.241 70.0628 107.194 70.0423 107.147 70.0305C107.112 70.0234 107.056 70.0197 106.976 70.0197H106.621V71.047H106.315ZM106.621 69.7546H107.28C107.419 69.7546 107.529 69.7401 107.608 69.711C107.687 69.6819 107.747 69.6355 107.788 69.572C107.828 69.5084 107.849 69.4395 107.849 69.3646C107.849 69.2552 107.81 69.1652 107.73 69.0947C107.651 69.0241 107.525 68.9891 107.353 68.9891H106.621V69.7546ZM111.059 70.3036L111.348 70.2783C111.362 70.3941 111.393 70.4889 111.444 70.5632C111.494 70.6376 111.571 70.6974 111.676 70.7432C111.781 70.789 111.9 70.8116 112.031 70.8116C112.148 70.8116 112.251 70.7943 112.341 70.7599C112.43 70.7248 112.497 70.6775 112.54 70.6171C112.584 70.5563 112.606 70.4905 112.606 70.4189C112.606 70.3461 112.585 70.2831 112.543 70.2287C112.501 70.1743 112.431 70.129 112.335 70.0924C112.272 70.0682 112.135 70.0305 111.923 69.9793C111.71 69.9281 111.561 69.8801 111.476 69.8349C111.366 69.7772 111.283 69.705 111.229 69.6194C111.175 69.5337 111.148 69.4379 111.148 69.3312C111.148 69.2148 111.181 69.1055 111.247 69.0042C111.313 68.9024 111.41 68.8253 111.537 68.7725C111.665 68.7203 111.806 68.6938 111.962 68.6938C112.134 68.6938 112.285 68.7213 112.416 68.7768C112.547 68.8318 112.648 68.9132 112.718 69.0203C112.788 69.1275 112.826 69.2493 112.832 69.385L112.538 69.4072C112.522 69.2611 112.469 69.1502 112.378 69.0758C112.287 69.001 112.152 68.9638 111.975 68.9638C111.79 68.9638 111.655 68.9977 111.57 69.0656C111.485 69.1335 111.443 69.2153 111.443 69.3107C111.443 69.3942 111.473 69.4626 111.532 69.5159C111.592 69.5698 111.745 69.6248 111.994 69.6808C112.243 69.7374 112.414 69.7864 112.507 69.8284C112.641 69.8909 112.741 69.9696 112.805 70.0644C112.869 70.1597 112.901 70.2697 112.901 70.3935C112.901 70.5169 112.866 70.6327 112.795 70.7416C112.725 70.8504 112.623 70.935 112.492 70.9958C112.359 71.0562 112.211 71.0864 112.046 71.0864C111.836 71.0864 111.661 71.0562 111.52 70.9948C111.378 70.9339 111.267 70.8423 111.186 70.7195C111.106 70.5972 111.063 70.4582 111.059 70.3036ZM115.89 71.047V68.7332H116.196V71.047H115.89ZM119.844 71.047V69.0063H119.081V68.7332H120.915V69.0063H120.15V71.047H119.844ZM124.4 71.047V70.0671L123.508 68.7332H123.88L124.337 69.4308C124.421 69.5612 124.499 69.6916 124.572 69.8225C124.641 69.7013 124.725 69.565 124.824 69.4136L125.272 68.7332H125.629L124.706 70.0671V71.047H124.4Z" fill="#004098"/>
</g>
<defs>
<filter id="filter0_d_185_9" x="0" y="0" width="154" height="157" filterUnits="userSpaceOnUse" color-interpolation-filters="sRGB">
<feFlood flood-opacity="0" result="BackgroundImageFix"/>
<feColorMatrix in="SourceAlpha" type="matrix" values="0 0 0 0 0 0 0 0 0 0 0 0 0 0 0 0 0 0 127 0" result="hardAlpha"/>
<feOffset dy="16"/>
<feGaussianBlur stdDeviation="6.5"/>
<feColorMatrix type="matrix" values="0 0 0 0 0 0 0 0 0 0 0 0 0 0 0 0 0 0 0.03 0"/>
<feBlend mode="normal" in2="BackgroundImageFix" result="effect1_dropShadow_185_9"/>
<feBlend mode="normal" in="SourceGraphic" in2="effect1_dropShadow_185_9" result="shape"/>
</filter>
</defs>
</svg>
