<svg width="154" height="157" viewBox="0 0 154 157" fill="none" xmlns="http://www.w3.org/2000/svg">
<g filter="url(#filter0_d_185_308)">
<rect width="128" height="128" transform="translate(13)" fill="white"/>
<path fill-rule="evenodd" clip-rule="evenodd" d="M27 54.8192L27.1608 65.7604C27.1498 66.9522 28.7425 73.7758 36.2771 75.6315C44.9332 73.4011 45.5311 65.8753 45.5311 65.8753C45.5311 65.8753 45.9216 56.9777 45.669 54.8881C39.0725 51.3305 33.7239 51.7552 27 54.8192Z" fill="white"/>
<path fill-rule="evenodd" clip-rule="evenodd" d="M43.8421 59.6914H44.2592V59.8533H43.8421L43.2274 60.3001V60.1125L43.7235 59.7757L43.2274 59.4324V59.2446L43.8421 59.6914ZM43.3458 61.3501H43.2274V60.3915H43.3458V60.7932H44.2592V60.9485H43.3458V61.3501ZM43.2274 61.7328H44.2592V61.5709H43.2274V61.7328ZM43.5262 62.0378V62.1867C43.3947 62.1953 43.3251 62.2947 43.3178 62.4846C43.3215 62.6617 43.3817 62.7502 43.4981 62.7502C43.5731 62.7502 43.6165 62.7027 43.6277 62.6078L43.6954 62.271C43.7328 62.0938 43.8269 62.0054 43.9773 62.0054C44.0827 62.0054 44.1596 62.0484 44.2085 62.1351C44.2537 62.2298 44.276 62.3422 44.276 62.4716C44.276 62.6402 44.2459 62.7587 44.1858 62.8278C44.1295 62.9143 44.0432 62.9551 43.9265 62.951V62.7954C44.0843 62.7913 44.1651 62.6832 44.1689 62.4716C44.1651 62.2644 44.1069 62.1588 43.9941 62.1544C43.9417 62.1544 43.9022 62.1715 43.8757 62.2061C43.8495 62.2406 43.8269 62.3097 43.8082 62.4132L43.7629 62.6594C43.7218 62.8278 43.6391 62.9121 43.5149 62.9121C43.406 62.9076 43.3233 62.8604 43.267 62.7694C43.2217 62.7048 43.1993 62.6141 43.1993 62.4976C43.1993 62.1997 43.3083 62.0463 43.5262 62.0378ZM43.3403 63.9619V63.5605C43.3403 63.4181 43.3984 63.3469 43.5149 63.3469C43.6352 63.3469 43.6954 63.4267 43.6954 63.5863V63.9619H43.3403ZM43.8137 63.9619H44.2592V64.1239H43.2274V63.5734C43.2274 63.4526 43.2463 63.3621 43.2837 63.3015C43.3215 63.2194 43.3947 63.1783 43.5036 63.1783C43.6165 63.1783 43.7387 63.294 43.7914 63.4061L44.2592 63.1369V63.3339L43.8137 63.5734V63.9619ZM44.135 64.3964H44.2592V65.2707H43.2274V64.4094H43.3458V65.1088H43.6672V64.4613H43.7913V65.1088H44.135V64.3964ZM44.0399 66.0589L43.1898 65.6482L43.2039 65.4672L44.1987 65.9805L44.1851 66.1545L43.1227 66.5069L43.1369 66.3262L44.0399 66.0589ZM43.0674 66.7012L44.0789 66.9043L44.047 67.0632L43.0355 66.8598L43.0674 66.7012ZM43.7371 67.5043L42.9409 67.2542L42.9876 67.1061L43.9719 67.4152L43.9175 67.5881L42.9409 67.9128L42.939 67.9189L43.7351 68.1689L43.6886 68.3173L42.7042 68.0082L42.7624 67.8229L43.7371 67.5043ZM42.5372 68.3493L43.116 68.6416C43.2836 68.7264 43.3216 68.8641 43.2297 69.0544C43.1387 69.2261 43.0081 69.2716 42.8386 69.1906L42.26 68.8984L42.1869 69.0429L42.8008 69.3529C42.9081 69.4072 43.0126 69.4091 43.1137 69.3587C43.1978 69.3092 43.2689 69.2267 43.3272 69.1112C43.3974 68.9723 43.4231 68.8547 43.4044 68.7583C43.3764 68.6471 43.3097 68.5627 43.2042 68.5048L42.6103 68.2048L42.5372 68.3493ZM41.9894 69.8913C41.8231 69.7503 41.6392 69.7897 41.4378 70.0092C41.3589 70.0951 41.3142 70.1771 41.3038 70.2553C41.2837 70.3602 41.3129 70.4511 41.3901 70.528C41.4817 70.6119 41.5997 70.6057 41.7437 70.5095L41.9435 70.3586C42.0273 70.2949 42.0906 70.2593 42.1333 70.2515C42.1761 70.244 42.2168 70.2581 42.2555 70.2936C42.3356 70.3731 42.3071 70.4902 42.17 70.6456C42.024 70.7989 41.8914 70.8238 41.7723 70.7203L41.6672 70.8349C41.7503 70.9169 41.8416 70.9451 41.9415 70.9193C42.0326 70.909 42.1349 70.8421 42.2488 70.7178C42.3362 70.6224 42.3957 70.5245 42.4265 70.4241C42.4489 70.3275 42.4214 70.2436 42.3438 70.1724C42.233 70.0707 42.1038 70.0723 41.9565 70.1775L41.679 70.38C41.6066 70.4422 41.5426 70.4481 41.4872 70.3973C41.4014 70.3185 41.4169 70.2128 41.5338 70.0795C41.6676 69.9447 41.7861 69.9184 41.8889 70.001L41.9894 69.8913ZM41.7074 71.1386L41.1746 71.6115L40.9464 71.3544L41.4307 70.9247L41.3483 70.8318L40.8641 71.2615L40.6507 71.0211L41.1737 70.5569L41.0952 70.4684L40.4511 71.04L41.1359 71.8118L41.7898 71.2314L41.7074 71.1386ZM40.253 71.2844L40.1202 71.377L40.7098 72.2236L40.8426 72.1311L40.253 71.2844ZM39.2673 72.0639L39.6751 72.7529L39.9426 72.5946C40.1299 72.4705 40.1623 72.2963 40.0395 72.072C39.9039 71.851 39.7318 71.7976 39.5237 71.9122L39.2673 72.0639ZM39.596 72.9372L40.0083 72.6932C40.1682 72.5985 40.2515 72.477 40.2591 72.3286C40.2725 72.2158 40.2439 72.0995 40.1731 71.9799C40.1003 71.8568 40.0087 71.7781 39.8976 71.7431C39.7661 71.699 39.6296 71.7184 39.4885 71.8019L39.0705 72.0493L39.596 72.9372ZM38.7108 72.3051L38.9687 72.9C39.0434 73.0724 38.9844 73.2026 38.792 73.2902C38.6122 73.3639 38.4828 73.3153 38.4042 73.1446L38.1465 72.5498L37.9979 72.6142L38.2713 73.2452C38.3192 73.3556 38.3982 73.4238 38.5083 73.4499C38.6044 73.4655 38.712 73.4475 38.8307 73.3961C38.9734 73.3342 39.0685 73.2602 39.1158 73.1742C39.1653 73.0709 39.168 72.9633 39.124 72.8513L38.8594 72.2409L38.7108 72.3051ZM36.9344 73.1586L36.8867 73.0503L37.7642 72.6644L37.8118 72.7729L37.444 72.9345L37.8116 73.7707L37.6694 73.8332L37.3019 72.997L36.9344 73.1586ZM36.8496 73.3004L36.7123 73.3582C36.6534 73.2402 36.5347 73.2147 36.3569 73.2815C36.1951 73.3538 36.1369 73.4436 36.1822 73.5509C36.2113 73.62 36.2718 73.6416 36.3636 73.6152L36.7002 73.5469C36.8781 73.5126 36.996 73.5651 37.0543 73.7036C37.0952 73.8008 37.0854 73.8884 37.0246 73.9669C36.9548 74.0454 36.8599 74.1097 36.7405 74.1599C36.5853 74.2252 36.4643 74.2434 36.3773 74.2149C36.2757 74.1966 36.2045 74.1328 36.1632 74.0237L36.3065 73.9633C36.3716 74.1072 36.5025 74.1397 36.6991 74.0612C36.8886 73.9773 36.9633 73.8826 36.9236 73.777C36.9033 73.7286 36.8722 73.6989 36.8301 73.6879C36.7881 73.6772 36.7156 73.6831 36.6128 73.7059L36.3683 73.7598C36.1973 73.7872 36.0875 73.7436 36.0393 73.6292C36.0012 73.5271 36.0126 73.4324 36.0746 73.3453C36.1166 73.2786 36.1915 73.2227 36.299 73.1776C36.5736 73.0619 36.7572 73.1029 36.8496 73.3004ZM34.5367 73.4096L34.3578 72.3998L34.1824 72.3163L33.7385 73.2475L33.8789 73.3144L34.238 72.5612L34.2437 72.564L34.4283 73.5764L34.5919 73.6545L35.036 72.7232L34.8958 72.6563L34.5367 73.4096ZM33.143 72.415L33.4496 72.6084C33.3871 72.7157 33.3031 72.7716 33.1982 72.7765C33.1157 72.7777 33.0342 72.753 32.9538 72.7023C32.7311 72.5617 32.6962 72.3707 32.8485 72.1293C33.002 71.9103 33.1866 71.8602 33.4028 71.979C33.565 72.0859 33.6265 72.2111 33.5867 72.3549L33.718 72.4378C33.7939 72.2368 33.7117 72.0516 33.4713 71.8822C33.1712 71.7106 32.9173 71.7613 32.7091 72.0345C32.6072 72.1881 32.5829 72.3437 32.6363 72.502C32.671 72.6083 32.7563 72.7042 32.8913 72.7895C33.0356 72.8762 33.1712 72.9041 33.2981 72.8729C33.4833 72.8218 33.527 72.7508 33.5926 72.6731L33.6443 72.5913L33.2061 72.3148L33.143 72.415ZM32.6576 71.435L32.528 71.3379L31.9094 72.1635L32.0389 72.2606L32.6576 71.435ZM31.7513 71.8033L31.2167 71.3325L31.4439 71.0744L31.9298 71.5025L32.0118 71.4092L31.5259 70.9814L31.7385 70.7401L32.2632 71.2025L32.3415 71.1137L31.6951 70.5443L31.0131 71.3184L31.6693 71.8964L31.7513 71.8033ZM30.89 69.8135L30.6207 70.0449L30.8655 70.3296C30.9695 70.4509 31.0672 70.4722 31.1584 70.3938C31.2468 70.3179 31.2445 70.2259 31.1517 70.118L30.89 69.8135ZM30.5309 70.122L30.7842 70.4166L30.6024 70.8888L30.7334 71.041L30.7506 71.0263L30.9273 70.5301C31.0404 70.6082 31.1913 70.5878 31.2769 70.5143C31.3595 70.4433 31.3882 70.3645 31.3633 70.2775C31.3523 70.2072 31.3075 70.1262 31.2287 70.0346L30.8701 69.6171L30.0876 70.2895L30.1931 70.4123L30.5309 70.122ZM30.2397 69.6971C30.3771 69.6276 30.476 69.5241 30.5357 69.386C30.5801 69.2507 30.5646 69.103 30.4893 68.9429C30.4214 68.7984 30.3323 68.6969 30.2222 68.6392C30.07 68.572 29.9116 68.575 29.7466 68.6478C29.6191 68.7125 29.526 68.8064 29.4677 68.9294C29.4164 69.068 29.4323 69.2251 29.5149 69.4008C29.5921 69.5648 29.6969 69.6732 29.8294 69.7254C29.9616 69.7681 30.0984 69.7587 30.2397 69.6971ZM30.1708 69.5506C30.4083 69.4197 30.4789 69.2339 30.3823 68.9932C30.2599 68.7596 30.0718 68.6955 29.8183 68.8004C29.5821 68.9257 29.515 69.1098 29.6168 69.3531C29.7407 69.5808 29.9252 69.6467 30.1708 69.5506ZM29.3427 67.838L28.8998 67.9886L28.8476 67.8353L29.8244 67.5031L30.0893 68.2817L29.9771 68.3198L29.7646 67.6945L29.4603 67.798L29.6479 68.3497L29.5304 68.3896L29.3427 67.838ZM28.844 65.5968H28.9625V66.1148H28.8289C28.7244 66.0993 28.6251 66.0637 28.5395 65.9723C28.4454 65.8816 28.3967 65.752 28.3931 65.5837C28.3931 65.424 28.4287 65.3008 28.5 65.2145C28.6054 65.085 28.75 65.0225 28.9343 65.0267C29.2764 65.057 29.4548 65.2447 29.4697 65.59C29.4548 65.8838 29.342 66.0521 29.1316 66.0953V65.9399C29.2744 65.8967 29.3475 65.778 29.3513 65.5837C29.3365 65.3376 29.1955 65.2083 28.9285 65.1952C28.6429 65.1952 28.5 65.3268 28.5 65.59C28.5 65.6852 28.5226 65.7672 28.5677 65.8363C28.6278 65.9225 28.7199 65.9637 28.844 65.9592V65.5968ZM28.6071 64.5622H29.4417V64.7175H28.4099V64.5362L29.2444 63.9338V63.9274H28.4099V63.7718H29.4417V63.9661L28.6071 64.5622ZM28.4099 63.3916H29.4417V63.2297H28.4099V63.3916ZM28.7425 62.1758V62.3247H28.6692C28.5563 62.3247 28.5 62.3853 28.5 62.5061C28.5 62.6312 28.5602 62.6939 28.6805 62.6939H29.4417V62.8559H28.6861C28.5883 62.8559 28.5133 62.8277 28.4606 62.7715C28.4154 62.7024 28.3931 62.6163 28.3931 62.5127C28.3967 62.301 28.4794 62.1888 28.641 62.1758H28.7425ZM28.4099 61.8926H29.4417V61.7307H28.4099V61.8926ZM28.534 61.3894H28.4099V60.5152H29.4417V61.3765H29.3232V60.6769H29.0019V61.3244H28.8778V60.6769H28.534V61.3894ZM28.8891 59.4483V59.7591C28.8891 59.9491 28.8309 60.0443 28.7144 60.0443C28.5942 60.0399 28.532 59.9555 28.5282 59.7914V59.4483H28.8891ZM28.4099 59.2864H29.4417V59.811C29.4341 60.0224 29.3475 60.1327 29.1823 60.1412C29.0808 60.1412 29.0093 60.0896 28.968 59.986C28.9229 60.1327 28.8383 60.2059 28.7144 60.2059C28.6391 60.2059 28.5754 60.178 28.5226 60.1219C28.4474 60.0484 28.4099 59.9406 28.4099 59.798V59.2864ZM29.3287 59.4483V59.7334C29.3287 59.8973 29.2781 59.9793 29.1767 59.9793C29.0601 59.9837 29.0038 59.9017 29.0074 59.7334V59.4483H29.3287ZM43.8431 57.6188L43.9277 57.8914L44.1816 57.8988L43.9801 58.0747L44.0523 58.352L43.8431 58.1881L43.6339 58.352L43.7062 58.0747L43.5046 57.8988L43.7585 57.8914L43.8431 57.6188ZM28.8664 57.589L28.951 57.8617L29.2049 57.8691L29.0034 58.0451L29.0756 58.3223L28.8664 58.1583L28.6572 58.3223L28.7294 58.0451L28.5279 57.8691L28.7818 57.8617L28.8664 57.589ZM27.4993 55.3077L27.6514 65.6664C27.6411 66.7947 29.149 73.255 36.2824 75.0119C44.4776 72.9003 45.0437 65.7752 45.0437 65.7752C45.0437 65.7752 45.4133 57.3513 45.1742 55.3729C38.929 52.0048 33.8652 52.4069 27.4993 55.3077ZM27.63 55.4357L27.7798 65.6419C27.7696 66.7536 29.2553 73.1188 36.2838 74.8498C44.3584 72.7694 44.9162 65.7491 44.9162 65.7491C44.9162 65.7491 45.2803 57.4492 45.0447 55.5C38.8914 52.1814 33.9022 52.5774 27.63 55.4357ZM27 54.8189L27.1607 65.7601C27.1498 66.9519 28.7425 73.7755 36.2771 75.6312C44.9331 73.4008 45.5311 65.875 45.5311 65.875C45.5311 65.875 45.9215 56.9774 45.6689 54.8877C39.0725 51.3302 33.7239 51.7548 27 54.8189ZM27.2502 55.0638L27.4066 65.7132C27.396 66.873 28.9462 73.5146 36.2797 75.3209C44.7048 73.15 45.2869 65.825 45.2869 65.825C45.2869 65.825 45.6668 57.1648 45.421 55.131C39.0006 51.6683 33.7947 52.0816 27.2502 55.0638ZM30.2017 57.8668C33.7347 56.1473 38.5423 55.5693 42.4962 57.9122C42.6625 59.2883 42.4055 66.0631 42.4055 66.0631C42.4055 66.0631 42.0117 71.2058 36.3111 72.3389C31.0881 71.1168 30.3004 66.7723 30.3076 65.9875L30.2017 57.8668Z" fill="#262852"/>
<path fill-rule="evenodd" clip-rule="evenodd" d="M38.1106 59.2921L41.5162 59.3239L41.548 66.0078C41.548 66.0078 40.8703 71.7447 34.5459 70.0499C37.2194 69.9544 38.0469 67.6627 38.1106 66.2941V59.2921Z" fill="white"/>
<path fill-rule="evenodd" clip-rule="evenodd" d="M31.2041 59.2921L33.679 59.3146L34.7051 59.3239L34.6927 65.976C34.6927 65.976 34.9055 68.9607 37.506 67.5673C36.4688 70.2727 31.999 70.6782 31.2677 66.4534L31.2041 59.2921Z" fill="#FCEF11"/>
<path fill-rule="evenodd" clip-rule="evenodd" d="M35.3447 59.2921H37.4742V60.1299H36.2524V61.2471H37.2647V62.0848H36.2524V64.0746H35.3447V59.2921Z" fill="white"/>
<path fill-rule="evenodd" clip-rule="evenodd" d="M33.0679 63.2777C33.7975 63.2777 34.1577 62.9457 34.1485 62.2823C34.1398 61.8918 33.9997 61.6431 33.7301 61.5362C33.9369 61.3587 34.0452 61.1215 34.0539 60.8258C34.0631 60.2686 33.7255 59.9963 33.0408 60.0078H31.8525V63.2777H33.0679ZM32.9601 60.772C33.1941 60.7485 33.3065 60.8311 33.2978 61.0207C33.2978 61.2102 33.2034 61.3049 33.0143 61.3049H32.6766V60.772H32.9601ZM32.933 61.9093C33.1042 61.9093 33.2211 61.9275 33.284 61.9631C33.3474 62.01 33.3785 62.0927 33.3785 62.2117C33.3877 62.4248 33.2708 62.5256 33.0275 62.5135H32.6766V61.9093H32.933Z" fill="#262852"/>
<path fill-rule="evenodd" clip-rule="evenodd" d="M41.0854 60.9499C40.994 60.2795 40.5939 59.9386 39.8845 59.9265C39.1044 59.9506 38.7043 60.2968 38.6842 60.9672C38.8056 61.6378 39.1654 61.9899 39.7633 62.0253C40.0875 62.0839 40.2645 62.196 40.2949 62.3609C40.2949 62.5136 40.1632 62.5896 39.9001 62.5896C39.7982 62.5896 39.7127 62.5662 39.6413 62.5196C39.5707 62.4602 39.52 62.3721 39.4896 62.2547H38.6084C38.6992 62.9252 39.1148 63.2773 39.8541 63.3127C40.7055 63.3014 41.1412 62.9364 41.1613 62.2193C41.0401 61.5843 40.6852 61.2434 40.0972 61.1968C39.7633 61.138 39.581 61.0259 39.5506 60.8612C39.5506 60.7324 39.6517 60.6677 39.8541 60.6677C39.9558 60.6677 40.0317 60.6911 40.0824 60.7377C40.1632 60.7731 40.2088 60.8439 40.2192 60.9499H41.0854Z" fill="#262852"/>
<path fill-rule="evenodd" clip-rule="evenodd" d="M34.1504 58.2848H34.031V57.5233C34.0022 57.5509 33.9645 57.5783 33.9177 57.6057C33.8711 57.6331 33.8292 57.6537 33.792 57.6674V57.552C33.8587 57.5205 33.9172 57.4824 33.9673 57.4377C34.0171 57.393 34.0525 57.3496 34.0734 57.3076H34.1504V58.2848Z" fill="white"/>
<path fill-rule="evenodd" clip-rule="evenodd" d="M35.7855 57.6302C35.7855 57.5616 35.7672 57.5072 35.7308 57.4669C35.6943 57.4266 35.6502 57.4065 35.599 57.4065C35.5458 57.4065 35.4997 57.4282 35.4602 57.4715C35.4208 57.5149 35.4011 57.5711 35.4011 57.6402C35.4011 57.7021 35.4199 57.7524 35.4572 57.7912C35.4946 57.8299 35.5408 57.8493 35.5956 57.8493C35.651 57.8493 35.6964 57.8299 35.732 57.7912C35.7676 57.7524 35.7855 57.6988 35.7855 57.6302ZM35.2963 58.0597L35.411 58.049C35.4208 58.1031 35.4394 58.1423 35.4668 58.1666C35.4943 58.1909 35.5294 58.2031 35.5725 58.2031C35.6091 58.2031 35.6413 58.1946 35.669 58.1779C35.6966 58.161 35.7193 58.1386 35.7371 58.1105C35.7547 58.0824 35.7695 58.0444 35.7814 57.9967C35.7935 57.9488 35.7994 57.9002 35.7994 57.8506C35.7994 57.8453 35.7992 57.8374 35.7987 57.8267C35.7748 57.8648 35.7422 57.8957 35.7009 57.9193C35.6594 57.943 35.6146 57.9548 35.5664 57.9548C35.4858 57.9548 35.4178 57.9256 35.3619 57.8671C35.3062 57.8087 35.2783 57.7317 35.2783 57.6361C35.2783 57.5375 35.3074 57.4581 35.3656 57.3978C35.4238 57.3376 35.4967 57.3076 35.5844 57.3076C35.6476 57.3076 35.7055 57.3246 35.758 57.3586C35.8104 57.3928 35.8502 57.4413 35.8774 57.5043C35.9047 57.5675 35.9183 57.6587 35.9183 57.7783C35.9183 57.9026 35.9048 58.0016 35.8777 58.0752C35.8508 58.149 35.8106 58.2051 35.7573 58.2435C35.7039 58.2821 35.6414 58.3013 35.5698 58.3013C35.4936 58.3013 35.4315 58.2801 35.3831 58.2379C35.3349 58.1957 35.306 58.1362 35.2963 58.0597Z" fill="white"/>
<path fill-rule="evenodd" clip-rule="evenodd" d="M37.2375 57.9422V57.5034L36.9328 57.9422H37.2375ZM37.2375 58.2847V58.0517H36.8154V57.9422L37.2594 57.3115H37.357V57.9422H37.4884V58.0517H37.357V58.2847H37.2375Z" fill="white"/>
<path fill-rule="evenodd" clip-rule="evenodd" d="M38.8848 58.2848H38.7653V57.5233C38.7366 57.5509 38.6988 57.5783 38.6521 57.6057C38.6055 57.6331 38.5636 57.6537 38.5264 57.6674V57.552C38.5931 57.5205 38.6515 57.4824 38.7016 57.4377C38.7515 57.393 38.7869 57.3496 38.8078 57.3076H38.8848V58.2848Z" fill="white"/>
<path fill-rule="evenodd" clip-rule="evenodd" d="M30.122 55.0708L30.0976 55.0549L30.0652 55.0339L30.0275 55.021L29.9038 54.9983L29.8569 55.0082L29.8398 55.0259L29.8239 55.0502L29.8216 55.0717L29.8272 55.0985L29.8991 55.272L29.9394 55.3962L29.9469 55.4646L30.112 56.2407L30.1598 56.4333L30.224 56.6364L30.2487 56.6871L30.2883 56.7416L30.3235 56.7761L30.3479 56.7919L30.3695 56.7943L30.391 56.7967L30.411 56.7925L30.4296 56.7814L30.4469 56.7638L30.456 56.7409L30.4585 56.7194L30.4508 56.6511L30.4286 56.5789L30.361 56.4255L30.3068 56.2692L30.2578 56.1047L30.217 55.9457L30.1896 55.7836L30.1607 55.615L30.1467 55.4501L30.146 55.2824L30.1604 55.2514L30.1652 55.2084L30.1648 55.1736L30.1643 55.1386L30.1424 55.1013L30.122 55.0708ZM31.4447 56.5238L31.4352 56.5118L31.3306 56.513L31.2852 56.5297L31.2398 56.5464L31.1957 56.5697L31.1532 56.5997L31.0868 56.6488L31.0614 56.6612L31.0346 56.6668L31.0064 56.6658L30.9835 56.6567L30.9592 56.641L30.9415 56.6237L30.9292 56.5984L30.8997 56.4928L30.8783 56.3924L30.8614 56.3121L30.8361 56.2266L30.8439 56.197L30.8582 56.166L30.8792 56.1335L30.9085 56.1063L30.9629 56.0668L31.0242 56.0258L31.1434 55.8955L31.1898 55.8507L31.2215 55.8021L31.245 55.7481L31.256 55.6688L31.2518 55.6488L31.2408 55.6302L31.2245 55.6196L31.2032 55.6171L31.1816 55.6148L31.1629 55.6257L31.0447 55.7277L30.9347 55.835L30.8234 55.8377L30.7823 55.5458L30.7495 55.4897L30.7099 55.4353L30.6651 55.3889L30.6503 55.385L30.6288 55.3825L30.6072 55.3802L30.582 55.3925L30.5633 55.4035L30.5527 55.4197L30.5504 55.4412L30.5522 55.4828L30.5607 55.5229L30.576 55.5616L30.8362 56.7859L30.7792 56.8471L30.7558 56.901L30.7457 56.9521L30.7552 56.964L30.7633 56.9693L30.8196 56.9713L30.8799 56.9585L30.9319 56.9404L31.1586 56.8223L31.459 56.5907L31.4704 56.5463L31.4595 56.5276L31.4447 56.5238ZM30.1196 56.5398L30.1276 56.5451L30.0956 56.8874L30.0954 56.9854L30.0819 57.0861L30.0741 57.1158L30.0597 57.1468L30.0373 57.1725L30.0067 57.193L29.9746 57.2068L29.9412 57.214L29.9064 57.2143L29.8767 57.2067L29.82 57.1698L29.7913 57.1339L29.7447 57.0459L29.7314 56.9509L29.7545 56.862L29.7681 56.7612L29.7735 56.6553L29.7803 56.5558L29.7725 56.4527L29.7446 56.2559L29.8157 56.2617L29.9268 56.3569L30.0449 56.5835L30.0679 56.5927L30.0812 56.5899L30.0918 56.5736L30.0957 56.5588L30.1061 56.5426L30.1196 56.5398Z" fill="#262852"/>
<path fill-rule="evenodd" clip-rule="evenodd" d="M32.4862 55.8631L32.3501 56.0093L32.3309 56.0193L32.3128 56.036L32.3025 56.0584L32.2989 56.0797L32.3032 56.1068L32.322 56.1384L32.3399 56.1633L32.3711 56.186L32.4046 56.2223L32.4493 56.2429L32.4562 56.2419L32.4996 56.1657L32.5151 56.0456L32.5239 55.9264L32.5197 55.8994L32.5029 55.8813L32.4862 55.8631ZM33.0939 54.4096L33.1052 54.3939L33.1088 54.3725L33.0999 54.3602L33.0608 54.3318L33.0171 54.3179L32.989 54.3155L32.9551 54.3207L32.9236 54.3396L32.893 54.3652L32.8646 54.4043L32.8508 54.4482L32.8503 54.4897L32.0243 55.1329L31.7605 55.2163L31.7079 55.3216L31.6565 55.4336L31.6504 55.483L31.6671 55.5012L31.6874 55.498L31.7756 55.4425L32.8596 54.5921L33.0939 54.4096ZM32.4745 54.5215L32.5663 54.5762L32.5876 54.5798L32.6147 54.5756L32.6271 54.5666L32.6384 54.551L32.6409 54.5229L32.6348 54.4407L32.6153 54.3607L32.5839 54.338L32.5537 54.322L32.5167 54.307L32.4808 54.299L32.4403 54.3054L32.3998 54.3118L32.3614 54.3318L32.3002 54.383L32.3013 54.3897L32.3817 54.4601L32.4745 54.5215ZM33.1761 54.6667L33.1548 54.6631L33.0635 54.6984L33.0194 54.7261L32.6721 54.9819L32.7707 55.0355L32.9026 54.9939L32.9374 54.9953L32.9451 55.001L32.953 55.0067L32.9484 55.0213L32.9122 55.0547L32.8723 55.1095L32.8414 55.1767L32.8332 55.2126L32.8319 55.2475L32.845 55.287L32.8639 55.3186L32.8941 55.3345L32.9301 55.3427L32.9649 55.3441L32.9987 55.3388L33.0382 55.3256L33.0755 55.2989L33.106 55.2733L33.1277 55.2353L33.1427 55.1982L33.1405 55.1847L33.1317 55.1723L33.0878 55.1584L33.0453 55.1514L32.998 55.1588L32.988 55.1397L32.9926 55.1251L33.1763 54.7981L33.2139 54.7299L33.2075 54.6894L33.1918 54.678L33.1761 54.6667ZM32.5774 55.4332L32.594 55.4512L32.6165 55.4616L32.6367 55.4584L32.6571 55.4552L32.6762 55.4453L32.7026 55.3926L32.7221 55.341L32.7271 55.2848L32.7128 55.2386L32.6882 55.2147L32.6277 55.1828L32.5616 55.1587L32.4887 55.1356L32.419 55.1328L32.514 55.3393L32.5774 55.4332ZM33.1859 55.69L33.1624 55.6729L33.1254 55.658L33.0973 55.6555L33.022 55.6606L32.9487 55.6791L32.9374 55.6947L32.9328 55.7093L32.9381 55.7431L32.9559 55.768L32.9648 55.7804L32.9893 55.8043L33.0139 55.8281L33.0441 55.844L33.1461 55.8764L33.1934 55.8689L33.2116 55.8521L33.2297 55.8354L33.2322 55.8073L33.2293 55.7455L33.2104 55.7138L33.1859 55.69ZM32.949 56.0738L32.961 56.1065L32.9653 56.1334L32.9639 56.1684L32.9546 56.1975L32.9227 56.2579L32.89 56.2701L32.8305 56.2448L32.7619 56.1173L32.574 55.9808L32.6079 55.9755L32.6494 55.9757L32.7135 55.9864L32.7498 55.953L32.7544 55.9384L32.7511 55.9181L32.6922 55.5466L32.7026 55.5242L32.7218 55.5143L32.741 55.5043L32.7691 55.5067L32.7836 55.5114L32.8446 55.7648L32.8999 56.0262L32.9244 56.05L32.949 56.0738Z" fill="#262852"/>
<path fill-rule="evenodd" clip-rule="evenodd" d="M35.2916 54.6243L35.267 54.6004L35.2368 54.5845L35.1999 54.5695L35.0796 54.5539L35.0177 54.5567L34.8984 54.5895L34.7966 54.6473L34.7458 54.6761L34.7049 54.7241L34.659 54.4336L34.6229 54.2939L34.613 54.2747L34.604 54.2623L34.5828 54.2587L34.4736 54.269L34.4207 54.2844L34.388 54.2965L34.3438 54.3243L34.3009 54.3588L34.2589 54.4L34.2305 54.4391L34.1963 54.4861L34.1562 54.5825L34.1228 54.6777L34.0962 54.772L34.1435 54.7646L34.3016 54.5387L34.3947 54.427L34.4185 54.4024L34.43 54.3867L34.4637 54.3814L34.4975 54.3761L34.5189 54.3796L34.5366 54.4045L34.5783 54.5364L34.6131 54.6693L34.6346 54.8045L34.656 54.9396L34.6649 55.0836L34.6651 55.2151L34.6594 55.3546L34.6701 55.4221L34.6875 55.4886L34.7107 55.5472L34.7195 55.5597L34.7488 55.5689L34.7612 55.5601L34.7975 55.5266L34.8067 55.4974L34.8134 55.3648L34.8201 55.2322L34.8054 55.0959L34.7744 54.9001L34.8007 54.8474L34.8358 54.8072L34.8777 54.7659L34.914 54.7325L34.9659 54.7104L35.0267 54.7008L35.0559 54.7101L35.0862 54.7261L35.1039 54.7509L35.1218 54.7758L35.1349 54.8153L35.1492 54.8614L35.1499 54.9099L35.1002 55.0769L35.1508 55.0897L35.2359 54.9724L35.3123 54.8426L35.3273 54.8056L35.3355 54.7696L35.3291 54.7291L35.3237 54.6954L35.3104 54.6558L35.2916 54.6243ZM34.3399 54.955L34.352 54.9877L34.3563 55.0148L34.3481 55.0506L34.3389 55.0799L34.3115 55.1257L34.2763 55.1659L34.239 55.1927L34.195 55.2204L34.2055 55.1564L34.1988 55.0258L34.1877 54.9999L34.1497 54.9782L34.0878 54.9811L34.0805 55.1969L34.0652 55.4071L34.0365 55.6194L34.0252 55.6351L34.0137 55.6507L33.9868 55.655L33.9712 55.6436L33.9309 55.6084L33.9142 55.5903L33.9045 55.5295L33.9443 55.3431L33.9997 55.1682L34.0676 54.9844L33.8218 55.0509L33.793 54.8685L33.8271 54.8216L33.8797 54.7163L33.9294 54.5492L33.9443 54.5121L33.951 54.5111L33.9777 54.5484L34.0136 54.6881L34.043 54.829L34.0824 54.8158L34.1307 54.815L34.1734 54.8221L34.2172 54.8359L34.2563 54.8644L34.2887 54.8939L34.3222 54.9302L34.3399 54.955Z" fill="#262852"/>
<path fill-rule="evenodd" clip-rule="evenodd" d="M36.7592 54.7956L36.7114 54.7819L36.7387 54.8641L36.7798 54.9461L36.8002 54.9529H36.8208L36.8412 54.9461L36.8551 54.9256L36.8618 54.8982V54.8777L36.8482 54.8504L36.7592 54.7956ZM37.2038 55.6574L37.1901 55.5685L37.1697 55.4932L37.0875 55.2265L37.0534 55.0966L37.0328 54.9529L37.0191 54.8162L37.0122 54.6794V54.5426L37.0191 54.3989L37.0328 54.269L37.0534 54.1322L37.0944 53.8791L37.1012 53.7629L37.0875 53.7218L37.0738 53.7013L37.0534 53.6945L37.0261 53.6876L36.9712 54.0501L36.9234 54.4126L36.9097 54.5562V54.8504L36.9234 55.0008L36.9439 55.1445L36.9645 55.2881L36.9781 55.4318V55.6028L36.9371 55.6438L36.9097 55.6507L36.9508 55.678L36.9849 55.719L37.0122 55.7805L37.0534 55.8352L37.1081 55.8832L37.1286 55.8968H37.1491L37.1765 55.89L37.197 55.8764L37.2107 55.8558L37.2175 55.8352L37.2107 55.7464L37.2038 55.6574ZM36.3762 54.2143L36.4515 54.1732L36.5131 54.1253L36.5814 54.0706L36.6361 54.0159L36.8071 53.8723L36.9645 53.7286V53.7149L36.9576 53.7082L36.7729 53.7971L36.6841 53.8518L36.3694 54.0706L36.0479 54.2826L36.0753 54.2895L36.1095 54.2963L36.1368 54.2895L36.2189 54.2759L36.3009 54.2485L36.3762 54.2143ZM36.3215 55.5138L36.3146 55.5412V55.548L36.3215 55.5617H36.3352L36.4446 55.5548L36.5472 55.5344L36.6567 55.507L36.7661 55.4728L36.7866 55.4522L36.7935 55.4249V55.4044L36.7798 55.3771L36.3215 55.5138ZM36.4994 54.5836L36.4788 54.5972V54.6041L36.2395 54.8094H36.3009L36.3284 54.8231L36.3557 54.8367L36.3762 54.8641L36.3899 54.8915L36.4035 54.9461L36.4172 55.0008V55.0624L36.4515 55.0351L36.4994 54.9666L36.5472 54.8915L36.5951 54.8162L36.6293 54.7341L36.6567 54.6589V54.6384L36.6498 54.6178L36.6361 54.6041L36.6156 54.5972L36.5951 54.6041L36.5745 54.4399L36.6361 54.2759L36.6429 54.2416L36.6361 54.2006L36.6293 54.1938H36.6156L36.5199 54.2553L36.4378 54.3237L36.2326 54.4399L36.2531 54.5084L36.3421 54.5015L36.4241 54.4879L36.4515 54.4811L36.4651 54.4879L36.4856 54.5015L36.4994 54.5152L36.5062 54.5358V54.5631L36.4994 54.5836ZM36.4651 55.3497L36.5472 55.3222L36.5951 55.3086L36.6498 55.2744L36.6908 55.2402L36.7045 55.2128V55.1787L36.6841 55.0282L36.6772 55.0145L36.6635 55.0008L36.6498 54.9941L36.6361 55.0487L36.6156 55.1035L36.5335 55.2197L36.5131 55.2471L36.4788 55.2608L36.4583 55.2676H36.4241L36.3968 55.2608L36.3762 55.2471L36.3694 55.2334V55.1649H36.3625L36.3009 55.2539L36.2531 55.3565V55.3702L36.2599 55.3907L36.2736 55.3975L36.2941 55.4044L36.3968 55.3771L36.4651 55.3497ZM36.0479 54.8504L36.0548 54.9529V55.0624L36.0411 55.1582L36.0342 55.2608L36.0138 55.3565L35.9795 55.4591L35.9589 55.507L35.9316 55.5548L35.8906 55.5822L35.8838 55.5891L35.8701 55.5822L35.8291 55.548L35.8018 55.4932L35.8428 55.4112L35.8769 55.3222L35.9043 55.2334L35.9248 55.1445L35.9385 55.0555L35.9522 54.8298L35.9589 54.6041L35.9864 54.6109L36.0069 54.6315L36.0205 54.6589L36.0342 54.7478L36.0479 54.8504Z" fill="#262852"/>
<path fill-rule="evenodd" clip-rule="evenodd" d="M39.1043 54.7835L39.1272 54.8039L39.1585 54.8193L39.1734 54.8162L39.1818 54.8114L39.2242 54.759L39.2397 54.7277L39.2551 54.6966L39.2667 54.6005L39.2336 54.5916L39.1971 54.596L39.1772 54.5907L39.1441 54.688L39.1043 54.7835ZM38.8171 55.089L38.7907 55.0819L38.766 55.0682L38.7432 55.0479L38.7352 55.0245L38.7296 54.9663L38.7742 54.8793L38.8382 54.8256L38.9546 54.708L38.9147 54.6195L38.868 54.5291L38.9611 54.5257L39.0575 54.5091L39.136 54.4805L39.1925 54.3752L39.2442 54.2617L39.1949 54.2342L39.1588 54.2104L39.1196 54.1717L39.084 54.1195L39.0743 54.1028L39.0748 54.0746L39.4091 54.1217L39.4355 54.1289L39.4518 54.1473L39.4615 54.164L39.4491 54.2103L39.3777 54.3186L39.3176 54.4371L39.377 54.453L39.4365 54.4689L39.4095 54.5962L39.3789 54.7367L39.3854 54.7385L39.4035 54.7505L39.418 54.7756L39.4194 54.7971L39.4153 54.8386L39.4046 54.8782L39.4025 54.913L39.3953 54.9395L39.3786 54.9491L39.1671 54.9987L38.9586 55.0632L38.9185 55.0807L38.8669 55.0881L38.8171 55.089ZM38.4836 54.8013L38.4386 54.8105L38.3919 54.8263L38.2416 54.8852L38.16 54.8987L37.8975 54.9275L37.9343 55.0012L37.9621 55.0298L37.9999 55.047L38.0378 55.0643L38.0708 55.0731L38.1057 55.0753L38.147 55.0794L38.1854 55.0685L38.2124 55.0473L38.2511 55.0081L38.293 54.984L38.3414 54.9615L38.3948 54.9475L38.4464 54.94L38.501 54.9476L38.362 55.1228L38.2247 55.2914L38.1974 55.3407L38.17 55.39L38.155 55.4992L38.1576 55.5424L38.1668 55.5874L38.1909 55.6292L38.2169 55.6645L38.2494 55.7016L38.3213 55.5652L38.3885 55.4202L38.449 55.2736L38.5309 55.0477L38.621 54.8169L38.5351 54.7939L38.4836 54.8013ZM39.3666 55.0734L39.3186 55.0676L39.267 55.075L39.2221 55.0842L39.182 55.1018L39.14 55.1259L39.051 55.1941L38.9504 55.2522L38.9914 55.2844L39.024 55.3215L39.053 55.3717L39.0608 55.3951L39.0604 55.4233L39.0467 55.4479L39.0008 55.5135L39.0237 55.5338L39.0365 55.5655L39.0492 55.5973L39.0526 55.6902L39.0869 55.7207L39.1248 55.7379L39.1693 55.757L39.1776 55.752L39.1926 55.749L39.2164 55.7128L39.2288 55.6666L39.2303 55.582L39.2176 55.5503L39.1613 55.4432L39.163 55.4365L39.1736 55.3969L39.1891 55.3656L39.213 55.3296L39.2416 55.3018L39.2769 55.2759L39.317 55.2583L39.3422 55.2438L39.3624 55.2209L39.3695 55.1945L39.3784 55.1615L39.3854 55.135L39.3794 55.1051L39.3666 55.0734ZM38.8488 55.4728L38.8462 55.4296L38.8437 55.3864L38.834 55.3697L38.8225 55.3595L38.8046 55.3477L38.7895 55.3507L38.7728 55.3604L38.7625 55.3718L38.7087 55.5202L38.6827 55.591L38.702 55.6246L38.7297 55.6533L38.7495 55.6586L38.7711 55.6573L38.786 55.6543L38.8047 55.6379L38.8213 55.6283L38.8332 55.6102L38.8469 55.5856L38.8474 55.5573L38.8488 55.4728ZM38.406 54.3769L38.3948 54.2606L38.441 54.273L38.489 54.2787L38.5322 54.2761L38.5621 54.2701L38.5868 54.2838L38.6114 54.2974L38.626 54.3225L38.6351 54.3675L38.52 54.5066L38.4998 54.5295L38.4662 54.5488L38.4278 54.5598L38.3913 54.5642L38.3517 54.5535L38.3808 54.4977L38.3967 54.4382L38.406 54.3769Z" fill="#262852"/>
<path fill-rule="evenodd" clip-rule="evenodd" d="M41.2266 55.994L41.2089 55.9539L41.1861 55.9336L41.1535 55.8966L41.106 55.8626L41.0633 55.8369L41.0104 55.8228L40.9642 55.8104L40.9131 55.7896L40.9469 55.8483L40.9742 55.9051L40.9913 55.9734L41.0072 56.0202L41.0295 56.0687L41.0603 56.1123L41.0995 56.1511L41.1175 56.1631L41.1374 56.1684L41.1571 56.1737L41.1823 56.1592L41.2026 56.1364L41.218 56.105L41.2287 56.0654L41.231 56.0306L41.2266 55.994ZM41.0709 55.3858L40.9942 55.4078L40.9409 55.4218L40.8845 55.4208L40.8315 55.4066L40.6359 55.7932L40.6002 55.8474L40.5561 55.9064L40.5054 55.9636L40.4498 56.0125L40.3893 56.0529L40.3356 56.0951L40.2637 56.1255L40.2002 56.151L40.1253 56.1662L40.0606 56.1702L39.9381 56.1515L39.9249 56.148L39.917 56.1247L39.9205 56.1114L39.9936 56.1027L40.0602 56.0922L40.1219 56.0733L40.241 55.999L40.3253 55.9224L40.3962 55.8423L40.4625 55.7539L40.6191 55.5126L40.6227 55.4994L40.6112 55.4892L40.5963 55.4924L40.561 55.5183L40.5292 55.531L40.4975 55.5437L40.4213 55.5375L40.3618 55.5216L40.306 55.4925L40.2583 55.4584L40.2126 55.4179L40.1752 55.3724L40.1721 55.3574L40.1907 55.3411L40.2423 55.3337L40.2902 55.3396L40.3647 55.3524L40.4426 55.352L40.514 55.3499L40.7268 55.322L40.7993 55.1573L40.8567 54.9956L40.8745 54.9296L40.8856 54.8617L40.8901 54.7922L40.8879 54.7207L40.8775 54.6542L40.8217 54.5189L40.8138 54.4956L40.8076 54.4656L40.8094 54.4589L40.8177 54.4541L40.8773 54.4701L40.9741 54.5314L41.0133 54.5703L41.0488 54.6223L41.0779 54.6725L41.0822 54.709L41.0866 54.7457L41.0827 54.7871L41.0738 54.8201L41.0565 54.858L40.9686 55.054L40.8987 55.2618L40.9234 55.2755L40.9763 55.2897L40.9996 55.2818L41.0816 55.24L41.157 55.1964L41.1989 55.1723L41.2474 55.1499L41.2606 55.1535L41.2804 55.1587L41.2901 55.1755L41.2932 55.1905L41.2741 55.235L41.2551 55.2794L41.2247 55.3137L41.1894 55.3397L41.1494 55.3573L41.0709 55.3858Z" fill="#262852"/>
<path fill-rule="evenodd" clip-rule="evenodd" d="M42.362 56.9582L42.3501 56.9214L42.3196 56.9059L42.2829 56.9025L42.2552 56.9115L42.1723 56.969L42.1843 56.9905L42.2056 57.009L42.23 57.0214L42.2575 57.0278L42.2942 57.0157L42.3311 57.0038L42.3526 56.9765L42.362 56.9582ZM42.956 56.8924L42.9465 56.9259L42.928 56.9472L42.9095 56.9684L42.8788 56.9835L42.8206 56.9923L42.8083 56.9861L42.7476 56.9397L42.6072 56.8835L42.5797 56.8772L42.5461 56.8832L42.5185 56.892L42.5061 56.9164L42.4844 56.9438L42.4781 56.9714L42.4687 57.005L42.4531 57.0507L42.4252 57.0902L42.4005 57.1237L42.3297 57.172L42.2899 57.1748L42.2565 57.1654L42.0583 57.0721L42.0339 57.0597L42.0157 57.0351L42.0068 57.0074L42.001 56.9738L42.0133 56.9494L42.0474 56.8977L42.0875 56.849L42.1367 56.8127L42.1858 56.7917L42.238 56.7645L42.2993 56.7497L42.3575 56.7409L42.4004 56.7322L42.5153 56.5066L42.5248 56.4731L42.525 56.4425L42.519 56.4088L42.5102 56.3812L42.492 56.3566L42.4647 56.335L42.4402 56.3225L42.4066 56.3131L42.3884 56.3038L42.3701 56.2944L42.358 56.273L42.3613 56.2515L42.3705 56.2333L42.3798 56.215L42.3952 56.1998L42.4136 56.1939L42.4504 56.1972L42.49 56.2097L42.5266 56.2284L42.6057 56.2841L42.63 56.2965L42.6514 56.315L42.6664 56.3457L42.6754 56.3732L42.6752 56.4039L42.6564 56.4557L42.607 56.5226L42.56 56.6599L42.5568 56.6813L42.5689 56.7028L42.5933 56.7152L42.7794 56.7717L42.8435 56.7966L42.9562 56.8618L42.956 56.8924ZM43.621 55.9186L43.6027 55.9093L43.4899 55.8594L43.3739 55.8157L43.2518 55.7842L43.1206 55.7557L42.7259 55.7619L42.3221 55.7711L42.2823 55.7738L42.2457 55.7551L42.145 55.7269L42.09 55.7295L42.0745 55.7447L42.0682 55.7721L42.0648 55.8088L42.0859 55.8427L42.0979 55.8794L42.1283 55.9103L42.1649 55.9288L42.2106 55.9446L42.2595 55.9541L42.3085 55.9484L42.3575 55.9425L42.4066 55.9215L42.6882 55.8809L42.9823 55.8464L43.0525 55.8592L43.1318 55.8842L43.1532 55.9028L43.153 55.9181L43.1434 55.9669L43.1156 56.0065L43.0726 56.0306L43.0235 56.0516L43.0814 56.0734L43.1394 56.0801L43.2649 56.0749L43.3874 56.0605L43.5008 56.0339L43.6204 55.995L43.6298 55.9767L43.639 55.9585L43.633 55.9401L43.621 55.9186ZM43.8495 55.6358L43.8284 55.5867L43.8042 55.5437L43.771 55.5037L43.7345 55.4698L43.701 55.445L43.6553 55.4294L43.6519 55.4661L43.6425 55.4996L43.6238 55.5362L43.5962 55.5604L43.5684 55.5847L43.5409 55.5937L43.5102 55.5935L43.4828 55.5872L43.4524 55.5717L43.4553 55.5808L43.5344 55.6365L43.5771 55.6582L43.6259 55.6677L43.6687 55.6741L43.7206 55.6777L43.7604 55.6749L43.8003 55.6721L43.837 55.6602L43.8494 55.6511L43.8495 55.6358ZM42.5731 55.3385L42.6367 55.4247L42.6793 55.4618L42.7188 55.4895L42.7615 55.5113L42.8229 55.4658L42.8723 55.4143L42.9187 55.3535L42.6166 55.2533L42.5952 55.25L42.5797 55.2652L42.5705 55.2835L42.5703 55.314L42.5731 55.3385ZM43.0836 55.3761L43.0784 55.2507L43.4689 55.4035L43.484 55.4189L43.4197 55.4398L43.3522 55.4516L43.2911 55.4511L43.2299 55.4507L43.1689 55.4348L43.1384 55.4193L43.0836 55.3761Z" fill="#262852"/>
<path fill-rule="evenodd" clip-rule="evenodd" d="M51.0662 72.252C51.0662 72.6295 51.0662 72.9402 51.0465 73.1054C51.0308 73.2194 51.0111 73.3059 50.9325 73.3216C50.8971 73.3295 50.8499 73.3374 50.8145 73.3374C50.7909 73.3374 50.783 73.3492 50.783 73.361C50.783 73.3845 50.8027 73.3924 50.846 73.3924C50.9049 73.3924 50.9954 73.3845 51.074 73.3845C51.1566 73.3806 51.2235 73.3806 51.2313 73.3806C51.2471 73.3806 51.3572 73.3845 51.4712 73.3924C51.5852 73.3963 51.7111 73.4042 51.7543 73.4042C52.4268 73.4042 52.7571 72.9677 52.7571 72.547C52.7571 72.0869 52.3678 71.8077 52.0768 71.7172C52.2616 71.5245 52.4464 71.3319 52.4464 71.0094C52.4464 70.8128 52.3049 70.4196 51.66 70.4196C51.4791 70.4196 51.3257 70.4314 51.2313 70.4314C51.2117 70.4314 50.9639 70.4196 50.787 70.4196C50.7437 70.4196 50.7241 70.4274 50.7241 70.451C50.7241 70.4667 50.7398 70.4746 50.7555 70.4746C50.7909 70.4746 50.8578 70.4785 50.8892 70.4864C51.019 70.5139 51.0504 70.5768 51.0583 70.7105C51.0662 70.8364 51.0662 70.9465 51.0662 71.5599V72.252ZM51.3808 70.5926C51.3808 70.569 51.3926 70.5572 51.4279 70.5493C51.4909 70.5336 51.5734 70.5297 51.6167 70.5297C52.0021 70.5297 52.1476 70.8796 52.1476 71.206C52.1476 71.3673 52.0886 71.5088 52.006 71.6032C51.9234 71.6976 51.8684 71.7054 51.6482 71.7054C51.5027 71.7054 51.4319 71.6936 51.4083 71.6897C51.3886 71.6818 51.3808 71.674 51.3808 71.6464V70.5926ZM51.3808 71.8391C51.3808 71.8195 51.3886 71.8116 51.4044 71.8116C51.4633 71.8116 51.66 71.8116 51.7111 71.8195C51.8055 71.8313 51.9038 71.8431 52.0375 71.9335C52.3403 72.1419 52.4189 72.484 52.4189 72.72C52.4189 73.1643 52.0768 73.2784 51.8644 73.2784C51.7937 73.2784 51.6246 73.2705 51.5184 73.2194C51.3965 73.1604 51.3965 73.1054 51.3847 72.9127C51.3808 72.8537 51.3808 72.3661 51.3808 72.0633V71.8391Z" fill="#262852"/>
<path fill-rule="evenodd" clip-rule="evenodd" d="M53.6143 72.4211C53.6143 72.7436 53.6143 73.0071 53.5946 73.1447C53.5789 73.243 53.571 73.3098 53.5042 73.3216C53.4727 73.3256 53.4295 73.3374 53.398 73.3374C53.3784 73.3374 53.3705 73.3531 53.3705 73.3649C53.3705 73.3846 53.3901 73.3924 53.4255 73.3924C53.4806 73.3924 53.5592 73.3885 53.6261 73.3846C53.7008 73.3806 53.7677 73.3806 53.7755 73.3806C53.8266 73.3806 53.9171 73.3806 54.0626 73.3885C54.2041 73.3924 54.4047 73.4003 54.6642 73.4003C54.7979 73.4003 54.8333 73.4003 54.8569 73.3138C54.8766 73.243 54.9041 73.0149 54.9041 72.9913C54.9041 72.9677 54.9002 72.9402 54.8805 72.9402C54.8608 72.9402 54.853 72.952 54.8451 72.9913C54.8255 73.125 54.7783 73.184 54.6878 73.2233C54.5974 73.2587 54.4322 73.2587 54.3418 73.2587C53.9997 73.2587 53.9367 73.2155 53.9289 72.9913C53.9249 72.9245 53.9289 72.5352 53.9289 72.4211V72.1419C53.9289 72.1301 53.9328 72.1183 53.9525 72.1183C54.0115 72.1183 54.3811 72.1223 54.4755 72.1341C54.6092 72.1498 54.6406 72.1891 54.6524 72.2363C54.6682 72.2796 54.6682 72.315 54.6682 72.3464C54.6682 72.3661 54.676 72.3779 54.6918 72.3779C54.7154 72.3779 54.7232 72.3425 54.7232 72.315C54.7232 72.2914 54.7311 72.1655 54.7389 72.0987C54.7468 71.9886 54.7665 71.9335 54.7665 71.9139C54.7665 71.8942 54.7586 71.8863 54.7468 71.8863C54.735 71.8863 54.7193 71.906 54.6957 71.9296C54.6603 71.965 54.6092 71.9689 54.5266 71.9768C54.448 71.9846 53.9918 71.9846 53.9485 71.9846C53.9289 71.9846 53.9289 71.9728 53.9289 71.9493V71.0409C53.9289 71.0173 53.9328 71.0055 53.9485 71.0055C53.9879 71.0055 54.389 71.0094 54.448 71.0173C54.6367 71.0409 54.6721 71.0645 54.6957 71.1195C54.7114 71.1588 54.7154 71.2139 54.7154 71.2375C54.7154 71.265 54.7232 71.2808 54.7429 71.2808C54.7586 71.2808 54.7704 71.2611 54.7743 71.2454C54.7822 71.206 54.7901 71.0566 54.794 71.0251C54.8019 70.9308 54.8215 70.8914 54.8215 70.8679C54.8215 70.8521 54.8176 70.8364 54.8058 70.8364C54.7901 70.8364 54.7743 70.8482 54.7586 70.8521C54.7311 70.8561 54.6682 70.8679 54.6013 70.8718C54.5227 70.8757 53.7991 70.8718 53.7755 70.8718C53.7559 70.8718 53.5317 70.8639 53.3744 70.8639C53.3351 70.8639 53.3194 70.8718 53.3194 70.8914C53.3194 70.9032 53.3351 70.919 53.3469 70.919C53.3784 70.919 53.4373 70.9229 53.4649 70.9268C53.5789 70.9426 53.5986 70.9976 53.6064 71.1117C53.6143 71.2178 53.6143 71.3122 53.6143 71.8313V72.4211Z" fill="#262852"/>
<path fill-rule="evenodd" clip-rule="evenodd" d="M56.097 71.8313C56.097 71.3122 56.097 71.2178 56.101 71.1117C56.1088 70.9937 56.1285 70.9465 56.2229 70.9268C56.2622 70.919 56.2858 70.919 56.3094 70.919C56.3212 70.919 56.3369 70.9032 56.3369 70.8914C56.3369 70.8718 56.3212 70.8639 56.2818 70.8639C56.1757 70.8639 55.9515 70.8718 55.9358 70.8718C55.9161 70.8718 55.6999 70.8639 55.5858 70.8639C55.5465 70.8639 55.5308 70.8718 55.5308 70.8914C55.5308 70.9032 55.5426 70.919 55.5583 70.919C55.5819 70.919 55.6251 70.9229 55.6645 70.9308C55.7392 70.9465 55.7667 70.9976 55.7746 71.1117C55.7824 71.2178 55.7824 71.3122 55.7824 71.8313V72.4211C55.7824 72.7436 55.7785 73.0071 55.7628 73.1447C55.751 73.243 55.7392 73.3059 55.6723 73.3216C55.6409 73.3295 55.5976 73.3374 55.5662 73.3374C55.5465 73.3374 55.5386 73.3531 55.5386 73.3649C55.5386 73.3846 55.5583 73.3924 55.5937 73.3924C55.6999 73.3924 55.9161 73.3806 55.9358 73.3806C55.9515 73.3806 56.1757 73.3924 56.3684 73.3924C56.4077 73.3924 56.4234 73.3806 56.4234 73.3649C56.4234 73.3531 56.4155 73.3374 56.3959 73.3374C56.3644 73.3374 56.2897 73.3295 56.2386 73.3216C56.1363 73.3059 56.1245 73.243 56.1127 73.1447C56.097 73.0071 56.097 72.7436 56.097 72.4211V71.8313Z" fill="#262852"/>
<path fill-rule="evenodd" clip-rule="evenodd" d="M57.6281 71.8313C57.6281 71.3122 57.6281 71.2178 57.632 71.1117C57.6399 70.9937 57.6595 70.9465 57.7539 70.9268C57.7932 70.919 57.8168 70.919 57.8404 70.919C57.8522 70.919 57.8679 70.9032 57.8679 70.8914C57.8679 70.8718 57.8522 70.8639 57.8129 70.8639C57.7067 70.8639 57.4904 70.8718 57.4747 70.8718C57.455 70.8718 57.2309 70.8639 57.0736 70.8639C57.0343 70.8639 57.0185 70.8718 57.0185 70.8914C57.0185 70.9032 57.0343 70.919 57.0461 70.919C57.0775 70.919 57.1365 70.9229 57.164 70.9268C57.2781 70.9426 57.2977 70.9976 57.3056 71.1117C57.3135 71.2178 57.3135 71.3122 57.3135 71.8313V72.7986C57.3135 73.6598 57.2073 73.8328 56.9832 74.057C56.9517 74.0845 56.9045 74.1238 56.8612 74.1474C56.8298 74.1671 56.818 74.1828 56.818 74.2025C56.818 74.2182 56.8337 74.2221 56.8416 74.2221C56.8534 74.2221 56.8612 74.2182 56.8652 74.2182C56.9006 74.1986 56.9596 74.1632 57.0067 74.1317C57.2859 73.9469 57.4393 73.7896 57.514 73.6205C57.6163 73.3846 57.6281 73.1761 57.6281 72.6335V71.8313Z" fill="#262852"/>
<path fill-rule="evenodd" clip-rule="evenodd" d="M59.0803 71.8313C59.0803 71.3122 59.0803 71.2178 59.0842 71.1117C59.0921 70.9937 59.1118 70.9465 59.2061 70.9268C59.2455 70.919 59.269 70.919 59.2926 70.919C59.3044 70.919 59.3202 70.9032 59.3202 70.8914C59.3202 70.8718 59.3044 70.8639 59.2651 70.8639C59.1589 70.8639 58.9348 70.8718 58.9191 70.8718C58.8994 70.8718 58.6831 70.8639 58.5691 70.8639C58.5298 70.8639 58.514 70.8718 58.514 70.8914C58.514 70.9032 58.5258 70.919 58.5416 70.919C58.5652 70.919 58.6084 70.9229 58.6477 70.9308C58.7225 70.9465 58.75 70.9976 58.7578 71.1117C58.7657 71.2178 58.7657 71.3122 58.7657 71.8313V72.4211C58.7657 72.7436 58.7618 73.0071 58.746 73.1447C58.7343 73.243 58.7225 73.3059 58.6556 73.3216C58.6241 73.3295 58.5809 73.3374 58.5494 73.3374C58.5298 73.3374 58.5219 73.3531 58.5219 73.3649C58.5219 73.3846 58.5416 73.3924 58.577 73.3924C58.6831 73.3924 58.8994 73.3806 58.9191 73.3806C58.9348 73.3806 59.1589 73.3924 59.3516 73.3924C59.391 73.3924 59.4067 73.3806 59.4067 73.3649C59.4067 73.3531 59.3988 73.3374 59.3792 73.3374C59.3477 73.3374 59.273 73.3295 59.2219 73.3216C59.1196 73.3059 59.1078 73.243 59.096 73.1447C59.0803 73.0071 59.0803 72.7436 59.0803 72.4211V71.8313Z" fill="#262852"/>
<path fill-rule="evenodd" clip-rule="evenodd" d="M60.3229 71.3594C60.429 71.4774 60.8183 71.8863 61.2194 72.3071C61.5851 72.6885 62.0846 73.1801 62.12 73.2115C62.3126 73.3885 62.348 73.416 62.3834 73.416C62.407 73.416 62.4109 73.3963 62.4109 73.1761L62.4188 71.2178C62.4188 71.0173 62.4267 70.9504 62.5407 70.9268C62.58 70.919 62.6076 70.919 62.6233 70.919C62.6469 70.919 62.6626 70.8993 62.6626 70.8875C62.6626 70.8678 62.6351 70.8639 62.5997 70.8639C62.4581 70.8639 62.3441 70.8718 62.3048 70.8718C62.2654 70.8718 62.1003 70.8639 61.943 70.8639C61.9037 70.8639 61.8761 70.8678 61.8761 70.8875C61.8761 70.8993 61.8801 70.919 61.9037 70.919C61.9312 70.919 62.0098 70.9229 62.0728 70.9347C62.1789 70.9544 62.1986 71.0291 62.2025 71.2454L62.2379 72.9205C62.1317 72.8104 61.7621 72.4133 61.42 72.0593C60.8852 71.5088 60.3818 70.974 60.3268 70.919C60.2914 70.8836 60.2324 70.8167 60.1931 70.8167C60.1656 70.8167 60.1459 70.8521 60.1459 70.9858V72.9009C60.1459 73.2037 60.1341 73.2941 60.0476 73.3177C59.9965 73.3334 59.9336 73.3374 59.906 73.3374C59.8903 73.3374 59.8785 73.3492 59.8785 73.3649C59.8785 73.3885 59.8982 73.3924 59.9336 73.3924C60.0909 73.3924 60.2364 73.3806 60.2678 73.3806C60.2993 73.3806 60.4369 73.3924 60.6335 73.3924C60.6728 73.3924 60.6964 73.3846 60.6964 73.3649C60.6964 73.3492 60.6846 73.3374 60.6689 73.3374C60.6375 73.3374 60.5588 73.3334 60.4959 73.3177C60.4015 73.2941 60.3701 73.2115 60.3622 72.9363L60.3229 71.3594Z" fill="#262852"/>
<path fill-rule="evenodd" clip-rule="evenodd" d="M65.0692 73.1172C65.0692 73.1801 65.0417 73.1958 64.9984 73.2194C64.908 73.2705 64.7468 73.2823 64.6249 73.2823C64.3063 73.2823 64.0153 73.1879 63.7401 72.9323C63.6182 72.8183 63.3744 72.4801 63.3744 72.0082C63.3744 71.6189 63.5159 71.3201 63.7165 71.1667C63.9799 70.9662 64.2316 70.9504 64.44 70.9504C64.8883 70.9504 65.1518 71.0841 65.2383 71.21C65.2934 71.2886 65.313 71.3869 65.3169 71.4302C65.3169 71.4616 65.3209 71.4813 65.3405 71.4813C65.3641 71.4813 65.3799 71.4656 65.3799 71.4105C65.3799 71.0763 65.3995 70.9858 65.3995 70.9386C65.3995 70.9229 65.3917 70.9072 65.3563 70.9072C65.2698 70.9072 65.1479 70.8875 65.0771 70.8718C65.0102 70.8561 64.7664 70.8167 64.5462 70.8167C64.2827 70.8167 63.9367 70.8403 63.626 71.0291C63.3193 71.2139 63.048 71.5914 63.048 72.1262C63.048 72.543 63.2485 72.9009 63.4609 73.0778C63.8463 73.4042 64.3378 73.4357 64.6013 73.4357C64.8018 73.4357 65.1164 73.4003 65.3366 73.2862C65.3799 73.2626 65.3838 73.2587 65.3838 73.1054V72.7318C65.3838 72.5902 65.3838 72.4919 65.3877 72.3857C65.3956 72.2678 65.4231 72.2166 65.5175 72.2009C65.5568 72.1931 65.5804 72.193 65.604 72.193C65.6158 72.193 65.6315 72.1773 65.6315 72.1655C65.6315 72.1419 65.6158 72.138 65.5765 72.138C65.4703 72.138 65.254 72.1459 65.2383 72.1459C65.2186 72.1459 64.9866 72.138 64.8293 72.138C64.79 72.138 64.7743 72.1419 64.7743 72.1655C64.7743 72.1773 64.79 72.193 64.8018 72.193C64.8333 72.193 64.8923 72.197 64.9198 72.2009C65.0613 72.2284 65.0692 72.2678 65.0692 72.5391V73.1172Z" fill="#262852"/>
<path fill-rule="evenodd" clip-rule="evenodd" d="M67.6056 72.252C67.6056 72.6295 67.6056 72.9402 67.586 73.1054C67.5702 73.2194 67.5506 73.3059 67.4719 73.3216C67.4365 73.3295 67.3894 73.3374 67.354 73.3374C67.3304 73.3374 67.3225 73.3492 67.3225 73.361C67.3225 73.3846 67.3422 73.3924 67.3854 73.3924C67.5034 73.3924 67.7511 73.3806 67.7708 73.3806C67.7905 73.3806 68.0382 73.3924 68.2545 73.3924C68.2977 73.3924 68.3174 73.3806 68.3174 73.361C68.3174 73.3492 68.3095 73.3374 68.2859 73.3374C68.2505 73.3374 68.164 73.3295 68.109 73.3216C67.991 73.3059 67.9674 73.2194 67.9556 73.1054C67.936 72.9402 67.9359 72.6295 67.9359 72.252V71.9178C67.9359 71.8903 67.9438 71.8824 67.9635 71.8824C68.0303 71.8824 68.459 71.8824 68.5573 71.8942C68.6792 71.9099 68.7421 71.9807 68.7617 72.0358C68.7775 72.0829 68.7814 72.138 68.7853 72.1773C68.7853 72.197 68.7932 72.2127 68.8129 72.2127C68.8404 72.2127 68.8404 72.1734 68.8404 72.138C68.8404 72.1105 68.8483 71.9532 68.8561 71.8745C68.8679 71.7448 68.8876 71.6779 68.8876 71.6543C68.8876 71.6347 68.8836 71.6229 68.8679 71.6229C68.8522 71.6229 68.8404 71.6425 68.8247 71.6622C68.7893 71.7133 68.7381 71.7251 68.6438 71.733C68.5887 71.7369 68.5337 71.7369 68.4668 71.7369L67.9635 71.7408C67.9399 71.7408 67.9359 71.729 67.9359 71.7054V70.6201C67.9359 70.5887 67.9477 70.5769 67.9713 70.5769L68.5769 70.5886C68.7303 70.5926 68.8207 70.6634 68.8443 70.7145C68.8679 70.7656 68.8797 70.8325 68.8797 70.8639C68.8797 70.8914 68.8876 70.9111 68.9072 70.9111C68.9269 70.9111 68.9348 70.8875 68.9387 70.8678C68.9466 70.8207 68.9544 70.6476 68.9584 70.6083C68.9702 70.4982 68.9898 70.451 68.9898 70.4235C68.9898 70.4038 68.982 70.3881 68.9662 70.3881C68.9505 70.3881 68.9348 70.4038 68.9112 70.4117C68.8758 70.4235 68.8129 70.4235 68.7382 70.4274C68.6477 70.4314 67.8494 70.4353 67.7708 70.4314L67.6096 70.4235C67.5231 70.4196 67.4169 70.4196 67.3264 70.4196C67.2832 70.4196 67.2635 70.4274 67.2635 70.451C67.2635 70.4667 67.2792 70.4746 67.295 70.4746C67.3304 70.4746 67.3972 70.4785 67.4287 70.4864C67.5584 70.5139 67.5899 70.5769 67.5978 70.7106C67.6056 70.8364 67.6056 70.9465 67.6056 71.5599V72.252Z" fill="#262852"/>
<path fill-rule="evenodd" clip-rule="evenodd" d="M69.4499 72.1223C69.4499 72.7239 69.8549 73.4357 70.8026 73.4357C71.6363 73.4357 72.1907 72.8183 72.1907 72.0711C72.1907 71.2925 71.6009 70.8167 70.8223 70.8167C69.8667 70.8167 69.4499 71.5835 69.4499 72.1223ZM69.8077 72.0318C69.8077 71.3043 70.2246 70.9426 70.8026 70.9426C71.3492 70.9426 71.8368 71.3633 71.8368 72.1655C71.8368 73.1329 71.2116 73.298 70.9009 73.298C70.2757 73.298 69.8077 72.8104 69.8077 72.0318Z" fill="#262852"/>
<path fill-rule="evenodd" clip-rule="evenodd" d="M72.9143 72.4211C72.9143 72.7436 72.9143 73.0071 72.8946 73.1447C72.8789 73.243 72.871 73.3059 72.8042 73.3216C72.7727 73.3295 72.7295 73.3374 72.698 73.3374C72.6784 73.3374 72.6705 73.3531 72.6705 73.3649C72.6705 73.3846 72.6902 73.3924 72.7255 73.3924C72.8317 73.3924 73.0637 73.3806 73.0677 73.3806C73.0834 73.3806 73.3036 73.3924 73.4924 73.3924C73.5317 73.3924 73.5474 73.3806 73.5474 73.3649C73.5474 73.3531 73.5435 73.3374 73.5199 73.3374C73.4884 73.3374 73.4137 73.3295 73.3665 73.3216C73.2603 73.3059 73.2407 73.243 73.2289 73.1447C73.2132 73.0071 73.2132 72.7475 73.2132 72.4251V72.3464C73.2132 72.3268 73.221 72.3189 73.2367 72.3189L73.6772 72.3268C73.7008 72.3268 73.7086 72.3307 73.7244 72.3464C73.7991 72.4369 73.9524 72.6531 74.0979 72.834C74.2945 73.0857 74.4204 73.2469 74.5698 73.3256C74.6563 73.3728 74.7428 73.3924 74.9395 73.3924H75.1557C75.2187 73.3924 75.2383 73.3846 75.2383 73.3649C75.2383 73.3531 75.2265 73.3374 75.2069 73.3374C75.1872 73.3374 75.1518 73.3374 75.085 73.3256C74.9984 73.3138 74.8844 73.2823 74.6996 73.0936C74.499 72.8852 74.2592 72.5824 73.976 72.2284C74.2985 71.9532 74.4007 71.7133 74.4007 71.4656C74.4007 71.2336 74.2474 71.0723 74.1609 71.0094C73.98 70.8836 73.7362 70.8639 73.5159 70.8639C73.4098 70.8639 73.1188 70.8718 73.0834 70.8718C73.0637 70.8718 72.8317 70.8639 72.6744 70.8639C72.6351 70.8639 72.6194 70.8718 72.6194 70.8914C72.6194 70.9032 72.6351 70.919 72.6469 70.919C72.6784 70.919 72.7373 70.9229 72.7649 70.9268C72.8789 70.9426 72.8986 70.9976 72.9064 71.1117C72.9143 71.2178 72.9143 71.3122 72.9143 71.8313V72.4211ZM73.2132 71.0409C73.2132 71.0212 73.225 71.0094 73.2407 71.0016C73.2761 70.9937 73.3862 70.9819 73.4884 70.9819C73.8581 70.9819 74.0861 71.2218 74.0861 71.6386C74.0861 71.8942 73.9957 72.0712 73.8777 72.1498C73.7951 72.2049 73.7008 72.2088 73.6182 72.2088C73.4648 72.2088 73.2879 72.1852 73.2367 72.1577C73.221 72.1459 73.2132 72.1341 73.2132 72.1144V71.0409Z" fill="#262852"/>
<path fill-rule="evenodd" clip-rule="evenodd" d="M75.5568 72.4211C75.5568 72.7436 75.5568 73.0071 75.5371 73.1447C75.5214 73.243 75.5135 73.3098 75.4467 73.3216C75.4152 73.3256 75.372 73.3374 75.3405 73.3374C75.3208 73.3374 75.313 73.3531 75.313 73.3649C75.313 73.3846 75.3326 73.3924 75.368 73.3924C75.4231 73.3924 75.5017 73.3885 75.5686 73.3846C75.6433 73.3806 75.7101 73.3806 75.718 73.3806C75.7691 73.3806 75.8596 73.3806 76.0051 73.3885C76.1466 73.3924 76.3472 73.4003 76.6067 73.4003C76.7404 73.4003 76.7758 73.4003 76.7994 73.3138C76.8191 73.243 76.8466 73.0149 76.8466 72.9913C76.8466 72.9677 76.8427 72.9402 76.823 72.9402C76.8033 72.9402 76.7955 72.952 76.7876 72.9913C76.7679 73.125 76.7208 73.184 76.6303 73.2233C76.5399 73.2587 76.3747 73.2587 76.2843 73.2587C75.9421 73.2587 75.8792 73.2155 75.8714 72.9913C75.8674 72.9245 75.8714 72.5352 75.8714 72.4211V72.1419C75.8714 72.1301 75.8753 72.1183 75.895 72.1183C75.9539 72.1183 76.3236 72.1223 76.418 72.1341C76.5517 72.1498 76.5831 72.1891 76.5949 72.2363C76.6107 72.2796 76.6106 72.315 76.6106 72.3464C76.6106 72.3661 76.6185 72.3779 76.6342 72.3779C76.6578 72.3779 76.6657 72.3425 76.6657 72.315C76.6657 72.2914 76.6736 72.1655 76.6814 72.0987C76.6893 71.9886 76.709 71.9335 76.709 71.9139C76.709 71.8942 76.7011 71.8863 76.6893 71.8863C76.6775 71.8863 76.6618 71.906 76.6382 71.9296C76.6028 71.965 76.5517 71.9689 76.4691 71.9768C76.3904 71.9846 75.9343 71.9846 75.891 71.9846C75.8714 71.9846 75.8714 71.9728 75.8714 71.9493V71.0409C75.8714 71.0173 75.8753 71.0055 75.891 71.0055C75.9304 71.0055 76.3315 71.0094 76.3904 71.0173C76.5792 71.0409 76.6146 71.0645 76.6382 71.1195C76.6539 71.1588 76.6578 71.2139 76.6578 71.2375C76.6578 71.265 76.6657 71.2808 76.6854 71.2808C76.7011 71.2808 76.7129 71.2611 76.7168 71.2454C76.7247 71.206 76.7326 71.0566 76.7365 71.0251C76.7444 70.9308 76.764 70.8914 76.764 70.8679C76.764 70.8521 76.7601 70.8364 76.7483 70.8364C76.7326 70.8364 76.7168 70.8482 76.7011 70.8521C76.6736 70.8561 76.6106 70.8679 76.5438 70.8718C76.4652 70.8757 75.7416 70.8718 75.718 70.8718C75.6983 70.8718 75.4742 70.8639 75.3169 70.8639C75.2776 70.8639 75.2619 70.8718 75.2619 70.8914C75.2619 70.9032 75.2776 70.919 75.2894 70.919C75.3208 70.919 75.3798 70.9229 75.4074 70.9268C75.5214 70.9426 75.5411 70.9976 75.5489 71.1117C75.5568 71.2178 75.5568 71.3122 75.5568 71.8313V72.4211Z" fill="#262852"/>
<path fill-rule="evenodd" clip-rule="evenodd" d="M78.0381 71.8313C78.0381 71.3122 78.0381 71.2178 78.042 71.1117C78.0499 70.9937 78.0696 70.9465 78.1639 70.9268C78.2033 70.919 78.2268 70.919 78.2504 70.919C78.2622 70.919 78.278 70.9032 78.278 70.8914C78.278 70.8718 78.2622 70.8639 78.2229 70.8639C78.1167 70.8639 77.8926 70.8718 77.8769 70.8718C77.8572 70.8718 77.6409 70.8639 77.5269 70.8639C77.4876 70.8639 77.4718 70.8718 77.4718 70.8914C77.4718 70.9032 77.4836 70.919 77.4994 70.919C77.523 70.919 77.5662 70.9229 77.6055 70.9308C77.6802 70.9465 77.7078 70.9976 77.7156 71.1117C77.7235 71.2178 77.7235 71.3122 77.7235 71.8313V72.4211C77.7235 72.7436 77.7196 73.0071 77.7038 73.1447C77.692 73.243 77.6802 73.3059 77.6134 73.3216C77.5819 73.3295 77.5387 73.3374 77.5072 73.3374C77.4876 73.3374 77.4797 73.3531 77.4797 73.3649C77.4797 73.3846 77.4994 73.3924 77.5347 73.3924C77.6409 73.3924 77.8572 73.3806 77.8769 73.3806C77.8926 73.3806 78.1167 73.3924 78.3094 73.3924C78.3487 73.3924 78.3645 73.3806 78.3645 73.3649C78.3645 73.3531 78.3566 73.3374 78.337 73.3374C78.3055 73.3374 78.2308 73.3295 78.1797 73.3216C78.0774 73.3059 78.0656 73.243 78.0538 73.1447C78.0381 73.0071 78.0381 72.7436 78.0381 72.4211V71.8313Z" fill="#262852"/>
<path fill-rule="evenodd" clip-rule="evenodd" d="M80.8301 73.1172C80.8301 73.1801 80.8026 73.1958 80.7593 73.2194C80.6689 73.2705 80.5076 73.2823 80.3857 73.2823C80.0672 73.2823 79.7762 73.1879 79.501 72.9323C79.3791 72.8183 79.1353 72.4801 79.1353 72.0082C79.1353 71.6189 79.2768 71.3201 79.4774 71.1667C79.7408 70.9662 79.9925 70.9504 80.2009 70.9504C80.6492 70.9504 80.9127 71.0841 80.9992 71.21C81.0542 71.2886 81.0739 71.3869 81.0778 71.4302C81.0778 71.4616 81.0818 71.4813 81.1014 71.4813C81.125 71.4813 81.1408 71.4656 81.1408 71.4105C81.1408 71.0763 81.1604 70.9858 81.1604 70.9386C81.1604 70.9229 81.1525 70.9072 81.1172 70.9072C81.0306 70.9072 80.9087 70.8875 80.838 70.8718C80.7711 70.8561 80.5273 70.8167 80.3071 70.8167C80.0436 70.8167 79.6976 70.8403 79.3869 71.0291C79.0802 71.2139 78.8089 71.5914 78.8089 72.1262C78.8089 72.543 79.0094 72.9009 79.2218 73.0778C79.6071 73.4042 80.0987 73.4357 80.3621 73.4357C80.5627 73.4357 80.8773 73.4003 81.0975 73.2862C81.1408 73.2626 81.1447 73.2587 81.1447 73.1054V72.7318C81.1447 72.5902 81.1447 72.4919 81.1486 72.3857C81.1565 72.2678 81.184 72.2166 81.2784 72.2009C81.3177 72.1931 81.3413 72.193 81.3649 72.193C81.3767 72.193 81.3924 72.1773 81.3924 72.1655C81.3924 72.1419 81.3767 72.138 81.3374 72.138C81.2312 72.138 81.0149 72.1459 80.9992 72.1459C80.9795 72.1459 80.7475 72.138 80.5902 72.138C80.5509 72.138 80.5352 72.1419 80.5352 72.1655C80.5352 72.1773 80.5509 72.193 80.5627 72.193C80.5942 72.193 80.6531 72.197 80.6807 72.2009C80.8222 72.2284 80.8301 72.2678 80.8301 72.5391V73.1172Z" fill="#262852"/>
<path fill-rule="evenodd" clip-rule="evenodd" d="M82.2929 71.3594C82.3991 71.4774 82.7884 71.8863 83.1895 72.3071C83.5552 72.6885 84.0546 73.1801 84.09 73.2115C84.2827 73.3885 84.3181 73.416 84.3534 73.416C84.377 73.416 84.381 73.3963 84.381 73.1761L84.3888 71.2178C84.3888 71.0173 84.3967 70.9504 84.5107 70.9268C84.5501 70.919 84.5776 70.919 84.5933 70.919C84.6169 70.919 84.6326 70.8993 84.6326 70.8875C84.6326 70.8678 84.6051 70.8639 84.5697 70.8639C84.4282 70.8639 84.3141 70.8718 84.2748 70.8718C84.2355 70.8718 84.0703 70.8639 83.913 70.8639C83.8737 70.8639 83.8462 70.8678 83.8462 70.8875C83.8462 70.8993 83.8501 70.919 83.8737 70.919C83.9012 70.919 83.9799 70.9229 84.0428 70.9347C84.149 70.9544 84.1686 71.0291 84.1726 71.2454L84.208 72.9205C84.1018 72.8104 83.7321 72.4133 83.39 72.0593C82.8552 71.5088 82.3519 70.974 82.2968 70.919C82.2614 70.8836 82.2025 70.8167 82.1631 70.8167C82.1356 70.8167 82.1159 70.8521 82.1159 70.9858V72.9009C82.1159 73.2037 82.1041 73.2941 82.0176 73.3177C81.9665 73.3334 81.9036 73.3374 81.8761 73.3374C81.8603 73.3374 81.8485 73.3492 81.8485 73.3649C81.8485 73.3885 81.8682 73.3924 81.9036 73.3924C82.0609 73.3924 82.2064 73.3806 82.2378 73.3806C82.2693 73.3806 82.4069 73.3924 82.6036 73.3924C82.6429 73.3924 82.6665 73.3846 82.6665 73.3649C82.6665 73.3492 82.6547 73.3374 82.6389 73.3374C82.6075 73.3374 82.5288 73.3334 82.4659 73.3177C82.3715 73.2941 82.3401 73.2115 82.3322 72.9363L82.2929 71.3594Z" fill="#262852"/>
<path fill-rule="evenodd" clip-rule="evenodd" d="M86.9174 73.4475C87.1297 73.4475 87.3421 73.4003 87.5112 73.2823C87.7825 73.0896 87.8454 72.7908 87.8454 72.6295C87.8454 72.315 87.7353 72.0711 87.2713 71.7054L87.1612 71.6189C86.7837 71.324 86.6814 71.1824 86.6814 70.9583C86.6814 70.6712 86.8938 70.5021 87.1651 70.5021C87.5269 70.5021 87.6331 70.6673 87.6567 70.7106C87.6803 70.7538 87.7039 70.86 87.7078 70.9072C87.7117 70.9386 87.7157 70.9583 87.7392 70.9583C87.7589 70.9583 87.7668 70.9308 87.7668 70.8678C87.7668 70.6004 87.7825 70.4707 87.7825 70.451C87.7825 70.4314 87.7746 70.4235 87.7432 70.4235C87.7117 70.4235 87.6803 70.4196 87.6055 70.4038C87.5072 70.3802 87.3932 70.3645 87.2398 70.3645C86.7404 70.3645 86.4258 70.6516 86.4258 71.0723C86.4258 71.3397 86.5202 71.5835 86.937 71.9257L87.114 72.0711C87.4522 72.3503 87.5662 72.5076 87.5662 72.779C87.5662 73.0306 87.3814 73.302 87.0039 73.302C86.7404 73.302 86.4809 73.1919 86.4219 72.9009C86.4101 72.8458 86.4101 72.7908 86.4101 72.7554C86.4101 72.7239 86.4062 72.7121 86.3826 72.7121C86.3629 72.7121 86.3551 72.7318 86.3511 72.775C86.3472 72.838 86.3315 72.9953 86.3315 73.1919C86.3315 73.298 86.3354 73.3138 86.3904 73.3413C86.5517 73.4199 86.7326 73.4475 86.9174 73.4475Z" fill="#262852"/>
<path fill-rule="evenodd" clip-rule="evenodd" d="M89.5481 71.0173L89.9807 71.0251C90.311 71.033 90.3857 71.1077 90.3975 71.21L90.4014 71.2454C90.4054 71.2925 90.4132 71.3043 90.429 71.3043C90.4447 71.3043 90.4604 71.2886 90.4604 71.2611C90.4604 71.2218 90.4722 70.9819 90.4722 70.8796C90.4722 70.86 90.4722 70.8403 90.4565 70.8403C90.4408 70.8403 90.4093 70.8482 90.3582 70.8561C90.3031 70.8639 90.2245 70.8718 90.1104 70.8718H88.8049C88.7656 70.8718 88.6319 70.8678 88.5336 70.8561C88.4392 70.8443 88.4038 70.8167 88.3802 70.8167C88.3684 70.8167 88.3527 70.86 88.3448 70.8796C88.3409 70.9072 88.2701 71.206 88.2701 71.2414C88.2701 71.2611 88.2858 71.2689 88.2937 71.2689C88.3094 71.2689 88.3212 71.265 88.3291 71.2375C88.3409 71.2139 88.3448 71.1903 88.3841 71.1313C88.4353 71.0527 88.5178 71.0291 88.7341 71.0251L89.2335 71.0173V72.4211C89.2335 72.7436 89.2335 73.007 89.2178 73.1447C89.206 73.243 89.1863 73.3098 89.1155 73.3256C89.0841 73.3334 89.0448 73.3413 89.0133 73.3413C88.9936 73.3413 88.9858 73.3531 88.9858 73.3649C88.9858 73.3846 89.0015 73.3924 89.0408 73.3924C89.1431 73.3924 89.3829 73.3806 89.3987 73.3806C89.4183 73.3806 89.6386 73.3924 89.8273 73.3924C89.8666 73.3924 89.8824 73.3806 89.8824 73.3649C89.8824 73.3531 89.8784 73.3374 89.8548 73.3374C89.8234 73.3374 89.7447 73.3295 89.6975 73.3216C89.5914 73.3059 89.5756 73.243 89.5638 73.1447C89.5481 73.007 89.5481 72.7436 89.5481 72.4211V71.0173Z" fill="#262852"/>
<path fill-rule="evenodd" clip-rule="evenodd" d="M91.0149 72.3228C91.0149 72.8104 91.1486 73.0424 91.3176 73.1997C91.5614 73.4278 91.9232 73.4357 92.0373 73.4357C92.2417 73.4357 92.5091 73.4082 92.7608 73.1919C93.0361 72.9559 93.0833 72.5509 93.0833 72.1891V71.8313C93.0833 71.3122 93.0793 71.2178 93.0872 71.1117C93.0951 71.0016 93.1147 70.9465 93.2091 70.9268C93.2524 70.919 93.272 70.919 93.2956 70.919C93.3113 70.919 93.3231 70.9032 93.3231 70.8914C93.3231 70.8718 93.3074 70.8639 93.2681 70.8639C93.1658 70.8639 93.0007 70.8718 92.9771 70.8718C92.9574 70.8718 92.7569 70.8639 92.6035 70.8639C92.5642 70.8639 92.5485 70.8718 92.5485 70.8914C92.5485 70.9032 92.5603 70.919 92.576 70.919C92.6075 70.919 92.6664 70.9229 92.694 70.9268C92.808 70.9426 92.8277 71.0055 92.8316 71.1117C92.8355 71.2178 92.8395 71.3122 92.8395 71.8313V72.252C92.8395 72.5942 92.8041 72.8694 92.6428 73.0621C92.5249 73.2037 92.3204 73.298 92.108 73.298C91.9114 73.298 91.762 73.2705 91.5929 73.1172C91.4435 72.9835 91.3373 72.7829 91.3373 72.2992V71.8313C91.3373 71.3122 91.3373 71.2178 91.3452 71.1117C91.353 71.0016 91.3727 70.9426 91.4631 70.9268C91.5064 70.919 91.5261 70.919 91.5497 70.919C91.5654 70.919 91.5811 70.9032 91.5811 70.8914C91.5811 70.8718 91.5614 70.8639 91.5221 70.8639C91.4199 70.8639 91.2036 70.8718 91.1721 70.8718C91.1407 70.8718 90.9323 70.8639 90.775 70.8639C90.7357 70.8639 90.7199 70.8718 90.7199 70.8914C90.7199 70.9032 90.7357 70.919 90.7475 70.919C90.7789 70.919 90.8379 70.9229 90.8654 70.9268C90.9795 70.9426 90.9991 71.0055 91.007 71.1117C91.0149 71.2178 91.0149 71.3122 91.0149 71.8313V72.3228Z" fill="#262852"/>
<path fill-rule="evenodd" clip-rule="evenodd" d="M94.0703 72.4211C94.0703 72.7436 94.0703 73.0071 94.0507 73.1447C94.0349 73.243 94.0271 73.3059 93.9602 73.3216C93.9287 73.3295 93.8855 73.3374 93.854 73.3374C93.8344 73.3374 93.8265 73.3531 93.8265 73.3649C93.8265 73.3846 93.8462 73.3924 93.8816 73.3924C93.9366 73.3924 94.0192 73.3885 94.09 73.3846C94.1608 73.3846 94.2237 73.3806 94.2315 73.3806C94.2473 73.3806 94.3652 73.3885 94.5147 73.4003C94.6641 73.4082 94.8489 73.42 94.9984 73.42C95.5882 73.42 95.8989 73.1879 96.0483 73.0346C96.241 72.838 96.4219 72.5155 96.4219 72.0947C96.4219 71.6976 96.2567 71.4184 96.0837 71.2454C95.6747 70.8325 95.0416 70.8639 94.6956 70.8639C94.4911 70.8639 94.2709 70.8718 94.2315 70.8718C94.2119 70.8718 93.9877 70.8639 93.8304 70.8639C93.7911 70.8639 93.7754 70.8718 93.7754 70.8915C93.7754 70.9032 93.7911 70.919 93.8029 70.919C93.8344 70.919 93.8934 70.9229 93.9209 70.9268C94.0349 70.9426 94.0546 70.9976 94.0625 71.1117C94.0703 71.2178 94.0703 71.3122 94.0703 71.8313V72.4211ZM94.3849 71.0763C94.3849 71.0369 94.3967 71.0212 94.4282 71.0094C94.4596 70.9976 94.5697 70.9858 94.6366 70.9858C95.0495 70.9858 95.4309 71.0291 95.7573 71.3594C95.8989 71.501 96.0837 71.7723 96.0837 72.197C96.0837 72.5037 95.9932 72.8222 95.8123 72.9913C95.6039 73.1879 95.3208 73.2941 95.0023 73.2941C94.5933 73.2941 94.4714 73.2233 94.4282 73.1604C94.4006 73.125 94.3928 73.0031 94.3888 72.9205C94.3849 72.8576 94.3849 72.547 94.3849 72.1931V71.0763Z" fill="#262852"/>
<path fill-rule="evenodd" clip-rule="evenodd" d="M97.5347 71.8313C97.5347 71.3122 97.5347 71.2178 97.5386 71.1117C97.5465 70.9937 97.5662 70.9465 97.6605 70.9268C97.6999 70.919 97.7235 70.919 97.7471 70.919C97.7589 70.919 97.7746 70.9032 97.7746 70.8914C97.7746 70.8718 97.7588 70.8639 97.7195 70.8639C97.6133 70.8639 97.3892 70.8718 97.3735 70.8718C97.3538 70.8718 97.1375 70.8639 97.0235 70.8639C96.9842 70.8639 96.9684 70.8718 96.9684 70.8914C96.9684 70.9032 96.9802 70.919 96.996 70.919C97.0196 70.919 97.0628 70.9229 97.1021 70.9308C97.1769 70.9465 97.2044 70.9976 97.2122 71.1117C97.2201 71.2178 97.2201 71.3122 97.2201 71.8313V72.4211C97.2201 72.7436 97.2162 73.0071 97.2005 73.1447C97.1887 73.243 97.1769 73.3059 97.11 73.3216C97.0786 73.3295 97.0353 73.3374 97.0038 73.3374C96.9842 73.3374 96.9763 73.3531 96.9763 73.3649C96.9763 73.3846 96.996 73.3924 97.0314 73.3924C97.1375 73.3924 97.3538 73.3806 97.3735 73.3806C97.3892 73.3806 97.6134 73.3924 97.806 73.3924C97.8454 73.3924 97.8611 73.3806 97.8611 73.3649C97.8611 73.3531 97.8532 73.3374 97.8336 73.3374C97.8021 73.3374 97.7274 73.3295 97.6763 73.3216C97.574 73.3059 97.5622 73.243 97.5504 73.1447C97.5347 73.0071 97.5347 72.7436 97.5347 72.4211V71.8313Z" fill="#262852"/>
<path fill-rule="evenodd" clip-rule="evenodd" d="M98.6712 72.4211C98.6712 72.7436 98.6712 73.0071 98.6515 73.1447C98.6358 73.243 98.6279 73.3098 98.5611 73.3216C98.5296 73.3256 98.4864 73.3374 98.4549 73.3374C98.4352 73.3374 98.4274 73.3531 98.4274 73.3649C98.4274 73.3846 98.447 73.3924 98.4824 73.3924C98.5375 73.3924 98.6161 73.3885 98.683 73.3846C98.7577 73.3806 98.8246 73.3806 98.8324 73.3806C98.8835 73.3806 98.974 73.3806 99.1195 73.3885C99.261 73.3924 99.4616 73.4003 99.7211 73.4003C99.8548 73.4003 99.8902 73.4003 99.9138 73.3138C99.9335 73.243 99.961 73.0149 99.961 72.9913C99.961 72.9677 99.9571 72.9402 99.9374 72.9402C99.9177 72.9402 99.9099 72.952 99.902 72.9913C99.8824 73.125 99.8352 73.184 99.7447 73.2233C99.6543 73.2587 99.4891 73.2587 99.3987 73.2587C99.0566 73.2587 98.9936 73.2155 98.9858 72.9913C98.9818 72.9245 98.9858 72.5352 98.9858 72.4211V72.1419C98.9858 72.1301 98.9897 72.1183 99.0094 72.1183C99.0684 72.1183 99.438 72.1223 99.5324 72.1341C99.6661 72.1498 99.6975 72.1891 99.7093 72.2363C99.7251 72.2796 99.7251 72.315 99.7251 72.3464C99.7251 72.3661 99.7329 72.3779 99.7487 72.3779C99.7722 72.3779 99.7801 72.3425 99.7801 72.315C99.7801 72.2914 99.788 72.1655 99.7958 72.0987C99.8037 71.9886 99.8234 71.9335 99.8234 71.9139C99.8234 71.8942 99.8155 71.8863 99.8037 71.8863C99.7919 71.8863 99.7762 71.906 99.7526 71.9296C99.7172 71.965 99.6661 71.9689 99.5835 71.9768C99.5048 71.9846 99.0487 71.9846 99.0054 71.9846C98.9858 71.9846 98.9858 71.9728 98.9858 71.9493V71.0409C98.9858 71.0173 98.9897 71.0055 99.0054 71.0055C99.0448 71.0055 99.4459 71.0094 99.5048 71.0173C99.6936 71.0409 99.729 71.0645 99.7526 71.1195C99.7683 71.1588 99.7723 71.2139 99.7723 71.2375C99.7723 71.265 99.7801 71.2808 99.7998 71.2808C99.8155 71.2808 99.8273 71.2611 99.8312 71.2454C99.8391 71.206 99.847 71.0566 99.8509 71.0251C99.8588 70.9308 99.8784 70.8914 99.8784 70.8679C99.8784 70.8521 99.8745 70.8364 99.8627 70.8364C99.847 70.8364 99.8312 70.8482 99.8155 70.8521C99.788 70.8561 99.7251 70.8679 99.6582 70.8718C99.5796 70.8757 98.856 70.8718 98.8324 70.8718C98.8128 70.8718 98.5886 70.8639 98.4313 70.8639C98.392 70.8639 98.3763 70.8718 98.3763 70.8914C98.3763 70.9032 98.392 70.919 98.4038 70.919C98.4353 70.919 98.4942 70.9229 98.5218 70.9268C98.6358 70.9426 98.6555 70.9976 98.6633 71.1117C98.6712 71.2178 98.6712 71.3122 98.6712 71.8313V72.4211Z" fill="#262852"/>
<path fill-rule="evenodd" clip-rule="evenodd" d="M101.05 73.4357C101.239 73.4357 101.455 73.4121 101.601 73.3177C101.849 73.1565 101.923 72.9441 101.923 72.7475C101.923 72.4604 101.778 72.2284 101.357 71.9414L101.259 71.8745C100.917 71.6425 100.81 71.5206 100.81 71.3083C100.81 71.0723 101.019 70.9465 101.27 70.9465C101.581 70.9465 101.695 71.0723 101.719 71.1116C101.738 71.147 101.766 71.2375 101.77 71.2768C101.774 71.3043 101.778 71.3201 101.801 71.3201C101.825 71.3201 101.829 71.2965 101.829 71.2453C101.829 71.0173 101.845 70.9072 101.845 70.8914C101.845 70.8718 101.837 70.8678 101.809 70.8678C101.782 70.8678 101.754 70.8678 101.687 70.8521C101.605 70.8325 101.467 70.8128 101.329 70.8128C100.873 70.8128 100.563 71.0487 100.563 71.442C100.563 71.674 100.685 71.8785 101.058 72.1577L101.215 72.2756C101.522 72.5037 101.652 72.6177 101.652 72.8576C101.652 73.1093 101.475 73.302 101.133 73.302C100.901 73.302 100.641 73.2155 100.586 72.9716C100.574 72.9245 100.574 72.8773 100.574 72.8497C100.574 72.8222 100.563 72.8104 100.543 72.8104C100.523 72.8104 100.515 72.8301 100.515 72.8655C100.512 72.9205 100.496 73.0542 100.496 73.2194C100.496 73.3098 100.5 73.3216 100.547 73.3452C100.688 73.4121 100.889 73.4357 101.05 73.4357Z" fill="#262852"/>
<path fill-rule="evenodd" clip-rule="evenodd" d="M103.854 72.1341C103.854 72.7082 104.003 72.9834 104.196 73.1683C104.475 73.4317 104.872 73.4475 105.006 73.4475C105.238 73.4475 105.533 73.4081 105.816 73.1565C106.131 72.8773 106.178 72.4054 106.178 71.9807V71.5599C106.178 70.9465 106.178 70.8364 106.186 70.7105C106.194 70.5729 106.225 70.51 106.331 70.4864C106.379 70.4785 106.402 70.4746 106.43 70.4746C106.445 70.4746 106.461 70.4667 106.461 70.451C106.461 70.4274 106.442 70.4196 106.398 70.4196C106.28 70.4196 106.095 70.4314 106.068 70.4314C106.044 70.4314 105.828 70.4196 105.651 70.4196C105.608 70.4196 105.588 70.4274 105.588 70.451C105.588 70.4667 105.604 70.4746 105.62 70.4746C105.655 70.4746 105.722 70.4785 105.753 70.4864C105.883 70.5139 105.915 70.5768 105.922 70.7105C105.93 70.8364 105.93 70.9465 105.93 71.5599V72.0515C105.93 72.4565 105.883 72.7908 105.702 73.0149C105.561 73.184 105.325 73.298 105.085 73.298C104.861 73.298 104.684 73.2626 104.491 73.0818C104.322 72.9205 104.196 72.6767 104.196 72.1105V71.5599C104.196 70.9465 104.196 70.8364 104.204 70.7105C104.212 70.5729 104.243 70.5021 104.349 70.4864C104.397 70.4785 104.42 70.4746 104.448 70.4746C104.464 70.4746 104.479 70.4667 104.479 70.451C104.479 70.4274 104.46 70.4196 104.416 70.4196C104.298 70.4196 104.062 70.4314 104.027 70.4314C103.992 70.4314 103.752 70.4196 103.575 70.4196C103.532 70.4196 103.512 70.4274 103.512 70.451C103.512 70.4667 103.528 70.4746 103.543 70.4746C103.579 70.4746 103.646 70.4785 103.677 70.4864C103.807 70.5139 103.838 70.5768 103.846 70.7105C103.854 70.8364 103.854 70.9465 103.854 71.5599V72.1341Z" fill="#262852"/>
<path fill-rule="evenodd" clip-rule="evenodd" d="M107.244 71.3594C107.35 71.4774 107.739 71.8863 108.14 72.3071C108.506 72.6885 109.005 73.1801 109.041 73.2115C109.233 73.3885 109.269 73.416 109.304 73.416C109.328 73.416 109.332 73.3963 109.332 73.1761L109.34 71.2178C109.34 71.0173 109.347 70.9504 109.462 70.9268C109.501 70.919 109.528 70.919 109.544 70.919C109.568 70.919 109.583 70.8993 109.583 70.8875C109.583 70.8678 109.556 70.8639 109.521 70.8639C109.379 70.8639 109.265 70.8718 109.226 70.8718C109.186 70.8718 109.021 70.8639 108.864 70.8639C108.824 70.8639 108.797 70.8678 108.797 70.8875C108.797 70.8993 108.801 70.919 108.824 70.919C108.852 70.919 108.931 70.9229 108.994 70.9347C109.1 70.9544 109.119 71.0291 109.123 71.2454L109.159 72.9205C109.053 72.8104 108.683 72.4133 108.341 72.0593C107.806 71.5088 107.303 70.974 107.248 70.919C107.212 70.8836 107.153 70.8167 107.114 70.8167C107.086 70.8167 107.067 70.8521 107.067 70.9858V72.9009C107.067 73.2037 107.055 73.2941 106.968 73.3177C106.917 73.3334 106.854 73.3374 106.827 73.3374C106.811 73.3374 106.799 73.3492 106.799 73.3649C106.799 73.3885 106.819 73.3924 106.854 73.3924C107.012 73.3924 107.157 73.3806 107.189 73.3806C107.22 73.3806 107.358 73.3924 107.554 73.3924C107.594 73.3924 107.617 73.3846 107.617 73.3649C107.617 73.3492 107.605 73.3374 107.59 73.3374C107.558 73.3374 107.48 73.3334 107.417 73.3177C107.322 73.2941 107.291 73.2115 107.283 72.9363L107.244 71.3594Z" fill="#262852"/>
<path fill-rule="evenodd" clip-rule="evenodd" d="M110.653 71.8313C110.653 71.3122 110.653 71.2178 110.657 71.1117C110.665 70.9937 110.684 70.9465 110.779 70.9268C110.818 70.919 110.842 70.919 110.865 70.919C110.877 70.919 110.893 70.9032 110.893 70.8914C110.893 70.8718 110.877 70.8639 110.838 70.8639C110.732 70.8639 110.508 70.8718 110.492 70.8718C110.472 70.8718 110.256 70.8639 110.142 70.8639C110.102 70.8639 110.087 70.8718 110.087 70.8914C110.087 70.9032 110.099 70.919 110.114 70.919C110.138 70.919 110.181 70.9229 110.22 70.9308C110.295 70.9465 110.323 70.9976 110.331 71.1117C110.338 71.2178 110.338 71.3122 110.338 71.8313V72.4211C110.338 72.7436 110.334 73.0071 110.319 73.1447C110.307 73.243 110.295 73.3059 110.228 73.3216C110.197 73.3295 110.154 73.3374 110.122 73.3374C110.102 73.3374 110.095 73.3531 110.095 73.3649C110.095 73.3846 110.114 73.3924 110.15 73.3924C110.256 73.3924 110.472 73.3806 110.492 73.3806C110.508 73.3806 110.732 73.3924 110.924 73.3924C110.964 73.3924 110.979 73.3806 110.979 73.3649C110.979 73.3531 110.972 73.3374 110.952 73.3374C110.92 73.3374 110.846 73.3295 110.795 73.3216C110.692 73.3059 110.681 73.243 110.669 73.1447C110.653 73.0071 110.653 72.7436 110.653 72.4211V71.8313Z" fill="#262852"/>
<path fill-rule="evenodd" clip-rule="evenodd" d="M111.973 71.2729C111.922 71.1392 111.879 71.0369 111.879 70.9937C111.879 70.9701 111.883 70.9504 111.918 70.9347C111.949 70.9229 112.005 70.919 112.044 70.919C112.067 70.919 112.079 70.9032 112.079 70.8875C112.079 70.8718 112.048 70.8639 111.985 70.8639C111.851 70.8639 111.698 70.8718 111.662 70.8718C111.619 70.8718 111.423 70.8639 111.257 70.8639C111.202 70.8639 111.167 70.8679 111.167 70.8875C111.167 70.8993 111.175 70.919 111.194 70.919C111.214 70.919 111.273 70.919 111.328 70.9308C111.442 70.9583 111.489 70.9937 111.568 71.1824L112.417 73.2312C112.484 73.3924 112.508 73.4357 112.547 73.4357C112.583 73.4357 112.602 73.3846 112.697 73.184C112.775 73.0189 112.929 72.6571 113.141 72.1695C113.318 71.7605 113.487 71.3594 113.526 71.265C113.617 71.0369 113.672 70.9898 113.719 70.9583C113.782 70.919 113.861 70.919 113.884 70.919C113.912 70.919 113.924 70.9032 113.924 70.8875C113.924 70.8718 113.904 70.8639 113.868 70.8639C113.766 70.8639 113.617 70.8718 113.597 70.8718C113.554 70.8718 113.397 70.8639 113.259 70.8639C113.204 70.8639 113.18 70.8718 113.18 70.8914C113.18 70.9072 113.2 70.919 113.22 70.919C113.259 70.919 113.298 70.919 113.338 70.9308C113.373 70.9426 113.385 70.974 113.385 71.0016C113.385 71.0291 113.369 71.0763 113.353 71.1274C113.279 71.3673 112.826 72.5076 112.626 72.9559L111.973 71.2729Z" fill="#262852"/>
<path fill-rule="evenodd" clip-rule="evenodd" d="M114.433 72.4211C114.433 72.7436 114.433 73.0071 114.414 73.1447C114.398 73.243 114.39 73.3098 114.323 73.3216C114.292 73.3256 114.249 73.3374 114.217 73.3374C114.197 73.3374 114.19 73.3531 114.19 73.3649C114.19 73.3846 114.209 73.3924 114.245 73.3924C114.3 73.3924 114.378 73.3885 114.445 73.3846C114.52 73.3806 114.587 73.3806 114.595 73.3806C114.646 73.3806 114.736 73.3806 114.882 73.3885C115.023 73.3924 115.224 73.4003 115.483 73.4003C115.617 73.4003 115.652 73.4003 115.676 73.3138C115.696 73.243 115.723 73.0149 115.723 72.9913C115.723 72.9677 115.719 72.9402 115.7 72.9402C115.68 72.9402 115.672 72.952 115.664 72.9913C115.645 73.125 115.597 73.184 115.507 73.2233C115.416 73.2587 115.251 73.2587 115.161 73.2587C114.819 73.2587 114.756 73.2155 114.748 72.9913C114.744 72.9245 114.748 72.5352 114.748 72.4211V72.1419C114.748 72.1301 114.752 72.1183 114.772 72.1183C114.831 72.1183 115.2 72.1223 115.295 72.1341C115.428 72.1498 115.46 72.1891 115.472 72.2363C115.487 72.2796 115.487 72.315 115.487 72.3464C115.487 72.3661 115.495 72.3779 115.511 72.3779C115.534 72.3779 115.542 72.3425 115.542 72.315C115.542 72.2914 115.55 72.1655 115.558 72.0987C115.566 71.9886 115.586 71.9335 115.586 71.9139C115.586 71.8942 115.578 71.8863 115.566 71.8863C115.554 71.8863 115.538 71.906 115.515 71.9296C115.479 71.965 115.428 71.9689 115.346 71.9768C115.267 71.9846 114.811 71.9846 114.768 71.9846C114.748 71.9846 114.748 71.9728 114.748 71.9493V71.0409C114.748 71.0173 114.752 71.0055 114.768 71.0055C114.807 71.0055 115.208 71.0094 115.267 71.0173C115.456 71.0409 115.491 71.0645 115.515 71.1195C115.531 71.1588 115.534 71.2139 115.534 71.2375C115.534 71.265 115.542 71.2808 115.562 71.2808C115.578 71.2808 115.59 71.2611 115.593 71.2454C115.601 71.206 115.609 71.0566 115.613 71.0251C115.621 70.9308 115.641 70.8914 115.641 70.8679C115.641 70.8521 115.637 70.8364 115.625 70.8364C115.609 70.8364 115.593 70.8482 115.578 70.8521C115.55 70.8561 115.487 70.8679 115.42 70.8718C115.342 70.8757 114.618 70.8718 114.595 70.8718C114.575 70.8718 114.351 70.8639 114.194 70.8639C114.154 70.8639 114.138 70.8718 114.138 70.8914C114.138 70.9032 114.154 70.919 114.166 70.919C114.197 70.919 114.256 70.9229 114.284 70.9268C114.398 70.9426 114.418 70.9976 114.426 71.1117C114.433 71.2178 114.433 71.3122 114.433 71.8313V72.4211Z" fill="#262852"/>
<path fill-rule="evenodd" clip-rule="evenodd" d="M116.599 72.4211C116.599 72.7436 116.599 73.0071 116.579 73.1447C116.563 73.243 116.556 73.3059 116.489 73.3216C116.457 73.3295 116.414 73.3374 116.383 73.3374C116.363 73.3374 116.355 73.3531 116.355 73.3649C116.355 73.3846 116.375 73.3924 116.41 73.3924C116.516 73.3924 116.748 73.3806 116.752 73.3806C116.768 73.3806 116.988 73.3924 117.177 73.3924C117.216 73.3924 117.232 73.3806 117.232 73.3649C117.232 73.3531 117.228 73.3374 117.204 73.3374C117.173 73.3374 117.098 73.3295 117.051 73.3216C116.945 73.3059 116.925 73.243 116.913 73.1447C116.898 73.0071 116.898 72.7475 116.898 72.4251V72.3464C116.898 72.3268 116.906 72.3189 116.921 72.3189L117.362 72.3268C117.385 72.3268 117.393 72.3307 117.409 72.3464C117.484 72.4369 117.637 72.6531 117.782 72.834C117.979 73.0857 118.105 73.2469 118.254 73.3256C118.341 73.3728 118.427 73.3924 118.624 73.3924H118.84C118.903 73.3924 118.923 73.3846 118.923 73.3649C118.923 73.3531 118.911 73.3374 118.891 73.3374C118.872 73.3374 118.836 73.3374 118.769 73.3256C118.683 73.3138 118.569 73.2823 118.384 73.0936C118.184 72.8852 117.944 72.5824 117.661 72.2284C117.983 71.9532 118.085 71.7133 118.085 71.4656C118.085 71.2336 117.932 71.0723 117.845 71.0094C117.664 70.8836 117.421 70.8639 117.2 70.8639C117.094 70.8639 116.803 70.8718 116.768 70.8718C116.748 70.8718 116.516 70.8639 116.359 70.8639C116.32 70.8639 116.304 70.8718 116.304 70.8914C116.304 70.9032 116.32 70.919 116.331 70.919C116.363 70.919 116.422 70.9229 116.449 70.9268C116.563 70.9426 116.583 70.9976 116.591 71.1117C116.599 71.2178 116.599 71.3122 116.599 71.8313V72.4211ZM116.898 71.0409C116.898 71.0212 116.909 71.0094 116.925 71.0016C116.961 70.9937 117.071 70.9819 117.173 70.9819C117.543 70.9819 117.771 71.2218 117.771 71.6386C117.771 71.8942 117.68 72.0712 117.562 72.1498C117.48 72.2049 117.385 72.2088 117.303 72.2088C117.149 72.2088 116.972 72.1852 116.921 72.1577C116.906 72.1459 116.898 72.1341 116.898 72.1144V71.0409Z" fill="#262852"/>
<path fill-rule="evenodd" clip-rule="evenodd" d="M119.422 73.4357C119.611 73.4357 119.827 73.4121 119.973 73.3177C120.22 73.1565 120.295 72.9441 120.295 72.7475C120.295 72.4604 120.15 72.2284 119.729 71.9414L119.631 71.8745C119.288 71.6425 119.182 71.5206 119.182 71.3083C119.182 71.0723 119.391 70.9465 119.642 70.9465C119.953 70.9465 120.067 71.0723 120.091 71.1116C120.11 71.147 120.138 71.2375 120.142 71.2768C120.146 71.3043 120.15 71.3201 120.173 71.3201C120.197 71.3201 120.201 71.2965 120.201 71.2453C120.201 71.0173 120.216 70.9072 120.216 70.8914C120.216 70.8718 120.209 70.8678 120.181 70.8678C120.154 70.8678 120.126 70.8678 120.059 70.8521C119.977 70.8325 119.839 70.8128 119.701 70.8128C119.245 70.8128 118.935 71.0487 118.935 71.442C118.935 71.674 119.056 71.8785 119.43 72.1577L119.587 72.2756C119.894 72.5037 120.024 72.6177 120.024 72.8576C120.024 73.1093 119.847 73.302 119.505 73.302C119.273 73.302 119.013 73.2155 118.958 72.9716C118.946 72.9245 118.946 72.8773 118.946 72.8497C118.946 72.8222 118.935 72.8104 118.915 72.8104C118.895 72.8104 118.887 72.8301 118.887 72.8655C118.883 72.9205 118.868 73.0542 118.868 73.2194C118.868 73.3098 118.872 73.3216 118.919 73.3452C119.06 73.4121 119.261 73.4357 119.422 73.4357Z" fill="#262852"/>
<path fill-rule="evenodd" clip-rule="evenodd" d="M121.506 71.8313C121.506 71.3122 121.506 71.2178 121.51 71.1117C121.518 70.9937 121.538 70.9465 121.632 70.9268C121.672 70.919 121.695 70.919 121.719 70.919C121.73 70.919 121.746 70.9032 121.746 70.8914C121.746 70.8718 121.73 70.8639 121.691 70.8639C121.585 70.8639 121.361 70.8718 121.345 70.8718C121.325 70.8718 121.109 70.8639 120.995 70.8639C120.956 70.8639 120.94 70.8718 120.94 70.8914C120.94 70.9032 120.952 70.919 120.968 70.919C120.991 70.919 121.034 70.9229 121.074 70.9308C121.149 70.9465 121.176 70.9976 121.184 71.1117C121.192 71.2178 121.192 71.3122 121.192 71.8313V72.4211C121.192 72.7436 121.188 73.0071 121.172 73.1447C121.16 73.243 121.149 73.3059 121.082 73.3216C121.05 73.3295 121.007 73.3374 120.975 73.3374C120.956 73.3374 120.948 73.3531 120.948 73.3649C120.948 73.3846 120.968 73.3924 121.003 73.3924C121.109 73.3924 121.325 73.3806 121.345 73.3806C121.361 73.3806 121.585 73.3924 121.778 73.3924C121.817 73.3924 121.833 73.3806 121.833 73.3649C121.833 73.3531 121.825 73.3374 121.805 73.3374C121.774 73.3374 121.699 73.3295 121.648 73.3216C121.546 73.3059 121.534 73.243 121.522 73.1447C121.506 73.0071 121.506 72.7436 121.506 72.4211V71.8313Z" fill="#262852"/>
<path fill-rule="evenodd" clip-rule="evenodd" d="M123.476 71.0173L123.909 71.0251C124.239 71.033 124.314 71.1077 124.326 71.21L124.33 71.2454C124.334 71.2925 124.342 71.3043 124.357 71.3043C124.373 71.3043 124.389 71.2886 124.389 71.2611C124.389 71.2218 124.401 70.9819 124.401 70.8796C124.401 70.86 124.401 70.8403 124.385 70.8403C124.369 70.8403 124.338 70.8482 124.287 70.8561C124.231 70.8639 124.153 70.8718 124.039 70.8718H122.733C122.694 70.8718 122.56 70.8678 122.462 70.8561C122.368 70.8443 122.332 70.8167 122.309 70.8167C122.297 70.8167 122.281 70.86 122.273 70.8796C122.269 70.9072 122.198 71.206 122.198 71.2414C122.198 71.2611 122.214 71.2689 122.222 71.2689C122.238 71.2689 122.25 71.265 122.257 71.2375C122.269 71.2139 122.273 71.1903 122.313 71.1313C122.364 71.0527 122.446 71.0291 122.662 71.0251L123.162 71.0173V72.4211C123.162 72.7436 123.162 73.007 123.146 73.1447C123.134 73.243 123.115 73.3098 123.044 73.3256C123.012 73.3334 122.973 73.3413 122.942 73.3413C122.922 73.3413 122.914 73.3531 122.914 73.3649C122.914 73.3846 122.93 73.3924 122.969 73.3924C123.071 73.3924 123.311 73.3806 123.327 73.3806C123.347 73.3806 123.567 73.3924 123.756 73.3924C123.795 73.3924 123.811 73.3806 123.811 73.3649C123.811 73.3531 123.807 73.3374 123.783 73.3374C123.752 73.3374 123.673 73.3295 123.626 73.3216C123.52 73.3059 123.504 73.243 123.492 73.1447C123.476 73.007 123.476 72.7436 123.476 72.4211V71.0173Z" fill="#262852"/>
<path fill-rule="evenodd" clip-rule="evenodd" d="M125.592 72.8104C125.592 72.8655 125.592 73.0071 125.584 73.1447C125.576 73.243 125.553 73.3059 125.482 73.3216C125.45 73.3295 125.411 73.3374 125.38 73.3374C125.36 73.3374 125.352 73.3531 125.352 73.3649C125.352 73.3846 125.368 73.3924 125.407 73.3924C125.509 73.3924 125.73 73.3806 125.745 73.3806C125.765 73.3806 125.989 73.3924 126.182 73.3924C126.217 73.3924 126.237 73.3806 126.237 73.3649C126.237 73.3531 126.229 73.3374 126.209 73.3374C126.178 73.3374 126.099 73.3295 126.052 73.3216C125.95 73.3059 125.926 73.243 125.918 73.1447C125.907 73.0071 125.907 72.8655 125.907 72.8104V72.5234C125.907 72.4133 125.891 72.3071 125.95 72.1891C126.021 72.0476 126.508 71.2611 126.622 71.1274C126.697 71.0369 126.728 71.0016 126.795 70.9622C126.85 70.9308 126.917 70.919 126.957 70.919C126.984 70.919 127 70.8993 127 70.8836C127 70.8718 126.98 70.8639 126.957 70.8639C126.89 70.8639 126.642 70.8718 126.618 70.8718C126.591 70.8718 126.469 70.8639 126.379 70.8639C126.343 70.8639 126.323 70.8718 126.323 70.8836C126.323 70.8993 126.343 70.915 126.375 70.9229C126.414 70.9347 126.43 70.9622 126.43 71.0094C126.43 71.0527 126.414 71.1077 126.371 71.1824C126.308 71.2925 125.875 72.0082 125.804 72.1498L125.175 71.1077C125.152 71.0645 125.128 71.0251 125.128 70.978C125.128 70.9504 125.144 70.9347 125.171 70.9229C125.203 70.9111 125.226 70.8993 125.226 70.8875C125.226 70.8718 125.218 70.8639 125.179 70.8639C125.045 70.8639 124.904 70.8718 124.88 70.8718C124.865 70.8718 124.605 70.8639 124.538 70.8639C124.507 70.8639 124.495 70.8718 124.495 70.8875C124.495 70.9032 124.511 70.919 124.53 70.919C124.558 70.919 124.625 70.9347 124.676 70.9662C124.739 71.0094 124.821 71.0841 124.904 71.21C125.022 71.3869 125.49 72.1301 125.517 72.1813C125.568 72.2756 125.592 72.3425 125.592 72.5234V72.8104Z" fill="#262852"/>
<path fill-rule="evenodd" clip-rule="evenodd" d="M84.193 61.3514L84.069 61.1861L83.9039 61.0622L83.6973 60.9384L82.9952 60.7318L82.6234 60.6906L81.88 60.7731L80.8887 61.1449L80.5996 61.3928V59.6167L80.5169 58.7492L80.4757 58.6254L80.4343 58.5427L80.3104 58.5015L79.6496 58.4601L79.3191 58.5015L79.1126 58.5427L78.8235 58.6666L78.5345 58.8319L78.2453 59.0384L77.7909 59.4928L77.4605 60.0297L77.1714 60.5666L76.9235 61.1036H77.2126L78.3692 59.9058L79.03 59.3275L79.1953 59.2036L79.2779 59.121H79.6909L79.8147 59.1623L79.8974 59.3275L80.0213 60.1536L80.1038 60.9796V62.6318L80.0213 63.4992L79.8974 64.2839L79.7323 65.1101V65.5231L79.7735 65.9361L79.8561 66.3079L79.8974 66.3905L79.98 66.4318L80.0626 66.4731L80.1453 66.4318L80.3931 66.2666L80.4757 66.1014L80.806 64.5318L80.8474 63.7058V62.5079L81.054 62.2188L81.3017 62.0123L81.5909 61.8058L81.8386 61.6405L82.1691 61.5579H82.5408L82.706 61.6405L82.8712 61.7644L83.0364 62.0949L83.0778 62.3427L83.119 62.6318L83.0778 62.921L82.6234 63.8709L82.9126 63.9949L83.5321 63.3753L84.1104 62.6731L84.2342 62.4666L84.3169 62.2601V61.8058L84.2756 61.5579L84.193 61.3514ZM78.2039 62.4253L78.2453 62.6318V62.7971L78.1626 63.0036L78.0801 63.1687L77.8736 63.4166L77.6257 63.6231L77.3779 63.747L77.0888 63.8709L77.2126 63.4992L77.2952 62.7144L77.254 62.5492L77.0474 62.3839L76.6758 62.3427L76.428 63.6231L76.1386 64.8623L75.7671 66.1014L75.6018 66.2666H75.4366L75.354 66.184L75.1475 65.9361L75.0649 65.8122V65.4405L75.478 64.3665L75.9736 63.3753L76.5518 62.3427L75.0237 62.5079V61.3928L75.2714 61.1449L75.6845 60.5666L76.1386 59.6167L76.2627 59.4102H76.3039L76.428 59.6579L76.5105 60.5253L76.5518 61.3928L76.7996 61.3514L77.0888 61.3928L77.3367 61.4753L77.5844 61.5993L77.7909 61.8058L77.9561 62.0123L78.1213 62.2601L78.2039 62.4253Z" fill="#262852"/>
<path fill-rule="evenodd" clip-rule="evenodd" d="M55.1979 55.982L54.9088 55.6929L54.7022 55.569L54.0001 55.2798H53.711L53.5871 55.3625L53.4631 55.4864L53.4218 55.6103V55.7755L53.6283 56.8907L53.711 57.6755L53.6696 58.0885V62.8796L53.711 64.0776L53.8348 65.3579L53.9175 65.6883L54.0826 66.0601L54.2479 66.3079L54.3717 66.4318L54.4956 66.473L54.6196 66.5145H54.7435L54.8674 66.473L54.9914 66.3906L55.0739 66.2666L55.1153 66.1427L55.1565 65.7297L55.1153 65.2752L54.9088 64.2841L54.7848 63.2927L54.7022 62.2601L54.6609 61.2688L54.7022 60.2776L54.7435 59.2449L54.8674 58.2536L55.0739 57.2623L55.1979 57.0972L55.2804 56.8493L55.363 56.4363L55.2804 56.1885L55.1979 55.982ZM61.1869 66.2253L61.1456 66.1427L60.5261 66.0188L59.9477 66.1014L59.6586 66.1839L59.3695 66.3079L58.9152 66.5145L58.7499 66.5557H58.5848L58.4195 66.5145L58.2956 66.4318L58.1717 66.3079L58.089 66.1839L58.0478 66.0188L58.0066 65.3579V64.2427L57.9652 63.7058L58.0478 63.5405L58.1717 63.3753L58.3369 63.2101L58.5434 63.0862L58.9152 62.921L59.3283 62.7558L60.1955 62.1362L60.5261 61.9297L60.7738 61.6819L60.9804 61.3928L61.1456 60.9384V60.8145L61.1042 60.6906L61.0217 60.608L60.7738 60.5254L60.6499 60.5666L59.8239 61.021L59.0391 61.5167L58.3782 61.3928L58.5022 59.6167L58.3782 59.2449L58.213 58.8733L58.0066 58.5428L57.9239 58.5015L57.6761 58.4189L57.5109 58.4601L57.3869 58.5015L57.3044 58.5841L57.263 58.708L57.2218 58.9558V59.2037L57.263 59.4514V67.0101L56.85 67.2991L56.6435 67.5882L56.5196 67.8773L56.5608 67.96L56.6022 68.0014L56.9326 68.0839H57.3044L57.6348 68.0427L59.1217 67.6296L61.1869 66.6383L61.3108 66.3906L61.2695 66.2666L61.1869 66.2253ZM53.3392 64.6557L53.3804 64.6969L52.7609 66.6796L52.6371 67.2578L52.4305 67.8361L52.3479 68.0014L52.224 68.1665L52.0588 68.2904L51.8522 68.3731L51.6457 68.4144H51.4392L51.2327 68.3731L51.0675 68.2904L50.7783 68.0014L50.6545 67.7535L50.4893 67.1752L50.5305 66.5969L50.7783 66.1014L50.9848 65.5231L51.1501 64.9036L51.3153 64.3253L51.398 63.7058L51.4805 62.5079L51.8936 62.6319L52.4305 63.334L52.8435 64.8209L52.9674 64.9036H53.05L53.1327 64.8209L53.1739 64.7384L53.2566 64.6557H53.3392Z" fill="#262852"/>
<path fill-rule="evenodd" clip-rule="evenodd" d="M66.8868 65.5231L65.9367 66.2665L65.8128 66.3079L65.6889 66.3905L65.6064 66.5144L65.5649 66.6383V66.8035L65.6476 67.01L65.7302 67.1753L65.8955 67.3404L66.0606 67.5883L66.3085 67.7535H66.3498L66.6801 67.3404L66.8868 66.6383L67.052 65.9361V65.771L66.9692 65.647L66.8868 65.5231ZM71.8843 57.4276L71.9671 57.3449L72.0084 57.221L71.9671 57.1385L71.7605 56.9319L71.5128 56.8081L71.3475 56.7666H71.1409L70.9344 56.8493L70.7279 56.9732L70.5215 57.1798L70.3976 57.4276L70.3562 57.6753L64.8215 60.7318L63.1693 60.9796L62.7563 61.5579L62.3434 62.1775L62.2606 62.4666L62.3434 62.5906H62.4671L63.0455 62.3427L70.315 58.295L71.8843 57.4276ZM68.0844 57.5102L68.5801 57.9232L68.7041 57.9645H68.8693L68.9519 57.9232L69.0345 57.8406L69.0757 57.6753L69.1172 57.1798L69.0757 56.6842L68.9107 56.5189L68.7454 56.395L68.5388 56.271L68.3323 56.1885H67.8367L67.5889 56.271L67.1757 56.5189V56.5602L67.5889 57.0558L68.0844 57.5102ZM72.1323 59.0384L72.0084 58.9972L71.4301 59.121L71.1409 59.2449L68.8279 60.4427L69.3649 60.8557L70.1909 60.7318L70.3976 60.7731L70.4388 60.8145L70.48 60.8557L70.4388 60.9384L70.1909 61.1036L69.9019 61.3928L69.6541 61.7644L69.5714 61.9709L69.5301 62.1775L69.5714 62.4253L69.6541 62.6318L69.8193 62.7557L70.0257 62.8383L70.2323 62.8796H70.4388L70.6866 62.8383L70.9344 62.7144L71.1409 62.5906L71.3063 62.384L71.4301 62.1775V62.0949L71.3887 62.0123L71.1409 61.8883L70.8932 61.8058H70.6041L70.5627 61.6818L70.6041 61.5993L72.0084 59.8232L72.2975 59.4514V59.2036L72.1323 59.0384ZM67.8367 63.0449L67.9193 63.1687L68.0432 63.2514H68.2911L68.415 63.2101L68.6214 62.921L68.7866 62.6318L68.8693 62.3014L68.8279 62.0123L68.7041 61.8471L68.3735 61.5993L68.002 61.3928L67.5889 61.1861L67.1757 61.1036L67.5476 62.4253L67.8367 63.0449ZM71.2236 65.1513L71.0997 65.0274L70.8932 64.9036L70.7279 64.8622L70.2736 64.8209L69.8193 64.8622L69.7366 64.9448L69.6954 65.0274V65.234L69.8193 65.4818L69.9431 65.647L70.0671 65.8122L70.2323 65.9361L70.8106 66.2253H71.0997L71.3475 66.06L71.3887 65.8949L71.4301 65.5231L71.3475 65.3166L71.2236 65.1513ZM69.4475 67.2165L69.4889 67.4231V67.5883L69.4475 67.7948L69.3649 67.96L69.1172 68.2905L68.9107 68.3318L68.5801 68.1252L68.2911 67.2992L67.2998 66.3079H67.5063L67.7541 66.3491L68.1258 66.4731L68.3735 66.3079L68.415 66.2253V63.8296L68.4976 63.7058L68.7454 63.6231L68.9107 63.6644L68.9932 63.7058L69.1172 65.2753L69.1998 66.8861L69.4475 67.2165Z" fill="#262852"/>
<path fill-rule="evenodd" clip-rule="evenodd" d="M115.047 63.9123L114.881 63.7058L114.716 63.6231L114.468 63.4579L114.138 63.334L113.849 63.2514H113.229L112.899 63.2101L113.188 63.4992L113.436 63.7884L113.642 64.1601L113.808 64.408L114.014 64.6557L114.262 64.8623L114.551 65.0275L114.675 65.0687H114.923L115.047 64.9448L115.129 64.7796L115.171 64.5731V64.3253L115.129 64.1188L115.047 63.9123ZM113.188 60.608L112.775 60.8558L112.486 61.021L112.155 61.1036H111.825L111.288 63.6644L111.164 64.0362L110.999 64.4492L110.792 64.8623L110.545 65.234L110.255 65.5644L110.008 65.8948L109.636 66.1839L109.305 66.4318L108.892 66.6383L108.521 66.7622L107.777 66.8449H107.695L107.612 66.721V66.6383L108.025 66.473L108.397 66.3079L108.727 66.1014L109.305 65.4817L109.677 64.9036L109.966 64.3253L110.214 63.7058L110.751 62.0536V61.971L110.668 61.9297L110.586 61.971L110.421 62.1776L110.09 62.4254L109.636 62.5079H109.264L108.892 62.4254L108.562 62.3015L108.232 62.1362L107.943 61.9297L107.901 61.8471L107.984 61.7232L108.273 61.5993L108.562 61.5579L109.016 61.5167L109.471 61.3928L109.884 61.2688L111.082 60.7733L111.247 59.6993L111.329 58.6668V58.2536L111.288 57.8406L111.206 57.4276L111.082 57.0146L110.916 56.6428L110.379 55.9406L110.297 55.8168L110.214 55.6515V55.6103L110.255 55.569H110.627L111.288 55.7755L111.577 55.9406L111.866 56.1885L112.114 56.4363L112.279 56.8493L112.321 57.0972V57.3037L112.279 57.5515L112.073 58.8319L111.99 60.1536L112.155 60.195H112.486L112.61 60.1123L113.023 59.7406L113.601 59.1623L113.849 58.9558H114.055L114.138 59.0384L114.179 59.121L114.097 59.6993L113.973 59.9471L113.808 60.1536L113.601 60.3189L113.188 60.608Z" fill="#262852"/>
<path fill-rule="evenodd" clip-rule="evenodd" d="M122.44 66.4318L122.275 66.2665H122.068L121.862 66.3491L121.738 66.473L121.449 67.01L121.573 67.0927L121.738 67.1339H121.903L122.068 67.0927L122.399 66.7622L122.44 66.5557V66.4318ZM125.455 64.4492L125.496 64.6557L125.414 64.9862L125.29 65.1513L125.001 65.3578H124.918L124.464 65.2753L123.555 65.3578L123.39 65.3992L123.225 65.5231L123.101 65.647V65.8122L123.06 66.0187L123.101 66.184L123.142 66.3905L123.184 66.6797L123.142 66.9687L123.101 67.2165L122.853 67.6708L122.647 67.7948L122.44 67.8361L121.118 67.8773H120.953L120.788 67.7948L120.664 67.6708L120.54 67.5057V67.3404L120.581 66.9687L120.664 66.597L120.829 66.2665L121.036 66.0187L121.242 65.7296L121.531 65.4818L121.82 65.2753L122.027 65.1101V63.5818L121.986 63.3753L121.903 63.2101L121.779 63.0449L121.655 62.921L121.49 62.8383L121.284 62.7971H121.118L120.912 62.8383H120.664L120.54 62.7557L120.499 62.6318V62.3841L120.54 62.2601L120.623 62.1775L120.829 62.0949L121.077 62.0536H121.325L121.903 62.1362H122.068L122.233 62.1775L122.399 62.3014L122.523 62.4253L122.605 62.5906L122.647 62.921L122.564 63.4166L122.688 64.2839L122.729 64.4079L122.853 64.4905H123.018L124.175 64.2839L124.588 64.2427L125.373 64.2839L125.455 64.4492ZM126.364 57.3863H126.24L125.496 57.4276L124.753 57.5102L124.01 57.6753L123.225 57.882L121.118 58.9972L118.971 60.1536L118.764 60.2775H118.516L117.897 60.4015L117.607 60.5666L117.566 60.6906L117.607 60.8558L117.69 61.0622L117.897 61.1863L118.062 61.3514L118.31 61.434H118.558L118.847 61.3928L119.136 61.3101L119.631 60.9796L119.838 60.7319L121.242 59.7406L122.729 58.7493L123.142 58.6254L123.638 58.5428L123.803 58.5841L123.844 58.6667L123.927 58.9558L123.886 59.2449L123.72 59.4928L123.514 59.7406L123.886 59.6993L124.216 59.5753L124.877 59.2037L125.496 58.7906L126.033 58.3363L126.571 57.7994V57.5514L126.488 57.469L126.364 57.3863ZM126.818 55.2385L126.571 55.032L126.323 54.8667L126.033 54.7428L125.744 54.6602L125.496 54.6189L125.207 54.6602L125.29 54.8667L125.331 55.0733V55.3211L125.166 55.7341L125.042 55.858L124.877 55.9406L124.712 55.982H124.505L124.546 56.0233L125.125 56.1059H125.414L125.703 56.0233L125.951 55.9406L126.24 55.8168L126.653 55.569L126.818 55.4037L126.86 55.3211L126.818 55.2385ZM119.136 57.1385L119.714 57.4276L120.045 57.5102L120.334 57.5514H120.623L120.829 57.1385L120.953 56.7254L121.036 56.271L119.136 56.5602L119.012 56.6015L118.971 56.7254V56.8493L119.053 57.0146L119.136 57.1385ZM121.986 55.9406L121.614 55.2798L124.133 55.032L124.257 55.0733L123.968 55.3624L123.638 55.6103L122.977 55.9406L122.605 56.0233H122.399L121.986 55.9406Z" fill="#262852"/>
<path fill-rule="evenodd" clip-rule="evenodd" d="M102.862 60.4428L103.027 60.5254L103.234 60.5667L103.316 60.5254L103.358 60.4842L103.523 60.1124L103.606 59.6994L103.523 59.1211H103.316L103.11 59.2037H102.986L102.945 59.8233L102.862 60.4428ZM101.664 62.6732H101.499L101.334 62.6319L101.169 62.5493L101.086 62.4254L100.962 62.095L101.086 61.5167L101.375 61.1037L101.871 60.2363L101.499 59.782L101.086 59.3276L101.623 59.1624L102.16 58.9145L102.573 58.6255L102.738 57.9233L102.862 57.1799L102.532 57.0972L102.284 57.0146L101.995 56.8494L101.706 56.6016L101.623 56.519L101.582 56.3537L103.606 56.1059H103.771L103.895 56.1886L103.977 56.2712V56.5602L103.729 57.3038L103.564 58.0885H104.308L104.349 58.8732L104.39 59.7406H104.432L104.556 59.782L104.68 59.9059L104.721 60.0298L104.762 60.2777V60.5254L104.803 60.7319V60.8971L104.721 60.9798L103.564 61.5993L102.449 62.3015L102.243 62.4667L101.953 62.5907L101.664 62.6732ZM99.2687 61.5167L99.0209 61.6406L98.773 61.8059L97.9883 62.384L97.5339 62.5907L96.047 63.1688L96.3775 63.5406L96.584 63.6645L97.0796 63.7471H97.2861L97.4926 63.7058L97.7404 63.6645L97.947 63.5406L98.0708 63.3755L98.2361 63.0863L98.4426 62.8796L98.6905 62.6732L98.9795 62.508L99.2687 62.384L99.5991 62.3428L99.0622 63.5818L98.5252 64.7797L98.36 65.4404L98.4426 66.1014L98.5252 66.3492L98.6491 66.597L98.8557 66.8035L99.0622 66.9687L99.3101 67.1339L99.5166 66.2253L99.6816 65.2753L99.8057 64.3254L99.9295 62.8796L100.095 61.3929H99.5578L99.2687 61.5167ZM104.845 61.7232L104.556 61.7645L104.266 61.8885L104.019 62.0124L103.812 62.1775L103.606 62.384L103.192 62.9211L102.697 63.4167L102.986 63.5406L103.234 63.7058L103.482 63.9536L103.564 64.0775L103.606 64.2428L103.564 64.4079L103.399 64.8623L103.564 64.9449L103.812 65.2753L103.977 65.8122L104.225 65.9361L104.473 65.9775L104.762 66.0187L104.803 65.9775L104.886 65.9361L104.969 65.6883V65.3992L104.845 64.9036L104.721 64.7383L104.225 64.2015V63.9123L104.266 63.7058L104.349 63.4579L104.473 63.2515L104.638 63.045L104.845 62.8796L104.969 62.7558L105.051 62.5907V62.0536L104.969 61.8885L104.845 61.7232ZM102.449 64.8623L102.284 64.3666L102.201 64.284L102.119 64.2428L101.995 64.2015L101.912 64.2428L101.83 64.3254L101.788 64.4079L101.706 65.3579L101.664 65.8122L101.83 65.9775L102.036 66.1014H102.16L102.284 66.0601L102.366 66.0187L102.449 65.8948L102.532 65.8122L102.573 65.6883L102.614 65.5231L102.449 64.8623ZM98.1535 59.1624L97.9057 58.5016H98.1948L98.4838 58.4602L98.7317 58.3777L98.897 58.295L99.2273 58.3777L99.3513 58.5016L99.4751 58.7493L99.0209 59.7406L98.9382 59.9059L98.773 60.071L98.5665 60.195L98.36 60.2777H98.1122L98.1948 59.9059V59.5341L98.1535 59.1624Z" fill="#262852"/>
<path fill-rule="evenodd" clip-rule="evenodd" d="M91.3384 61.5993L91.0494 61.5167L91.2145 62.0123L91.4623 62.5079L91.5863 62.5492H91.7102L91.8339 62.5079L91.9165 62.384L91.9581 62.2188V62.0949L91.8754 61.9297L91.3384 61.5993ZM94.0231 66.8034L93.9405 66.2666L93.8167 65.8123L93.3209 64.2014L93.1145 63.4166L92.9906 62.5492L92.908 61.7232L92.8667 60.8971V60.071L92.908 59.2037L92.9906 58.4189L93.1145 57.5928L93.3624 56.0645L93.4036 55.3624L93.3209 55.1146L93.2384 54.9907L93.1145 54.9493L92.9494 54.9081L92.6187 57.0972L92.3297 59.2863L92.2472 60.1536V61.9297L92.3297 62.8383L92.5775 64.5731L92.6602 65.4405V66.473L92.5361 66.5969L92.4124 66.7209L92.2472 66.7622L92.495 66.9274L92.7014 67.1752L92.8667 67.547L93.1145 67.8773L93.4449 68.1665L93.5689 68.2492H93.6926L93.8578 68.2079L93.9819 68.1252L94.0646 68.0012L94.1058 67.8773L94.0231 66.8034ZM89.0254 58.0885L89.4798 57.8406L89.8515 57.5515L90.2645 57.2211L90.595 56.8907L91.6275 56.0233L92.5775 55.1559V55.0732L92.5361 55.032L91.421 55.5689L90.8841 55.8994L88.9842 57.2211L87.043 58.5015L87.208 58.5428L87.4146 58.584L87.5798 58.5428L88.0755 58.4601L88.5711 58.295L89.0254 58.0885ZM88.695 65.9361L88.6537 66.1014V66.1426L88.695 66.2253H88.7776L89.4383 66.1839L90.0581 66.0601L90.7188 65.8948L91.3798 65.6883L91.5037 65.5644L91.5449 65.3992V65.2752L91.4623 65.1101L88.695 65.9361ZM89.7689 60.3189L89.6451 60.4015V60.4428L88.1994 61.6818H88.5711L88.9016 61.8471L89.0254 62.0123L89.108 62.1775L89.2733 62.8383V63.2101L89.4798 63.0449L89.7689 62.6318L90.3473 61.7232L90.5537 61.2275L90.7188 60.7731V60.6492L90.6776 60.5254L90.595 60.4428L90.4711 60.4015L90.3473 60.4428L90.2231 59.4514L90.595 58.4601L90.6363 58.2536L90.595 58.0059L90.5537 57.9645H90.4711L89.8928 58.3363L89.3972 58.7493L88.1581 59.4514L88.282 59.8645L88.8189 59.8232L89.3145 59.7406L89.4798 59.6993L89.5624 59.7406L89.6864 59.8232L89.7689 59.9058L89.8102 60.0297V60.195L89.7689 60.3189ZM89.5624 64.9448L90.0581 64.7796L90.3473 64.6969L90.6776 64.4904L90.9253 64.284L91.008 64.1188V63.9123L90.8841 63.0036L90.8428 62.921L90.7603 62.8383L90.6776 62.7971L90.595 63.1275L90.4711 63.4579L89.9754 64.16L89.8515 64.3253L89.6451 64.408L89.5209 64.4492H89.3145L89.1495 64.408L89.0254 64.3253L88.9842 64.2427V63.8297H88.9429L88.5711 64.3666L88.282 64.9861V65.0687L88.3232 65.1926L88.4058 65.234L88.5297 65.2752L89.1495 65.1101L89.5624 64.9448ZM87.043 61.9297L87.0842 62.5492V63.2101L87.0015 63.7883L86.9603 64.408L86.8364 64.9861L86.6298 65.6057L86.5059 65.8948L86.3408 66.1839L86.0929 66.3491L86.0515 66.3906L85.9689 66.3491L85.7211 66.1426L85.5559 65.8123L85.8036 65.3166L86.0102 64.7796L86.1755 64.2427L86.2994 63.7058L86.3821 63.1687L86.4646 61.8058L86.5059 60.4428L86.6711 60.484L86.7951 60.608L86.8777 60.7731L86.9603 61.3101L87.043 61.9297Z" fill="#262852"/>
</g>
<defs>
<filter id="filter0_d_185_308" x="0" y="0" width="154" height="157" filterUnits="userSpaceOnUse" color-interpolation-filters="sRGB">
<feFlood flood-opacity="0" result="BackgroundImageFix"/>
<feColorMatrix in="SourceAlpha" type="matrix" values="0 0 0 0 0 0 0 0 0 0 0 0 0 0 0 0 0 0 127 0" result="hardAlpha"/>
<feOffset dy="16"/>
<feGaussianBlur stdDeviation="6.5"/>
<feColorMatrix type="matrix" values="0 0 0 0 0 0 0 0 0 0 0 0 0 0 0 0 0 0 0.03 0"/>
<feBlend mode="normal" in2="BackgroundImageFix" result="effect1_dropShadow_185_308"/>
<feBlend mode="normal" in="SourceGraphic" in2="effect1_dropShadow_185_308" result="shape"/>
</filter>
</defs>
</svg>
