<svg width="154" height="157" viewBox="0 0 154 157" fill="none" xmlns="http://www.w3.org/2000/svg">
<g filter="url(#filter0_d_185_316)">
<rect width="128" height="128" transform="translate(13)" fill="white"/>
<path fill-rule="evenodd" clip-rule="evenodd" d="M101.823 54.5122C102.236 54.672 102.1 54.642 102.535 54.8476C102.215 55.3563 101.957 57.0481 101.361 57.2792L101.487 57.3631C101.564 57.1945 102.467 57.232 102.955 57.0697C103.038 57.2095 103.137 57.2191 103.248 57.3211V57.6146C102.485 57.7544 101.763 57.7006 100.984 57.9081C100.996 58.0224 100.671 58.5272 100.397 58.6628C100.411 58.621 100.425 58.5789 100.439 58.5372C100.305 58.6293 100.297 58.5461 100.313 58.6628C100.205 58.6134 100.211 58.5335 100.23 58.5789C100.221 58.5321 100.215 58.0286 100.481 58.0758C100.4 57.8924 100.477 57.9224 100.439 57.7825L100.607 57.8244C100.565 57.7124 100.523 57.6008 100.481 57.489C101.02 57.1915 101.619 55.0675 101.529 54.8057H101.697C101.608 54.7269 101.67 54.7726 101.613 54.638C101.694 54.5796 101.638 54.6336 101.697 54.5539C101.828 54.5316 101.735 54.6112 101.823 54.5122Z" fill="#E83819"/>
<path fill-rule="evenodd" clip-rule="evenodd" d="M98.6782 55.183C98.9771 55.2146 99.0481 55.3315 99.3491 55.4346C99.419 55.941 99.7046 56.7445 99.894 56.902C99.894 56.902 99.8506 57.3573 99.894 57.4471C99.9458 57.5538 99.8814 57.4726 99.9782 57.5308C99.8976 57.6325 99.9513 57.5986 99.8103 57.6566C99.9326 57.8395 100.115 58.6558 99.9359 58.4953C99.8693 58.6188 99.8527 58.6382 99.7264 58.7047H99.3072C99.1501 58.539 99.0455 58.3089 98.8877 58.2018C98.8601 58.2296 98.8321 58.2577 98.8042 58.2856C98.7621 58.2996 98.7202 58.3134 98.6782 58.3274C98.626 58.334 98.6417 58.4029 98.5523 58.4534C98.1562 58.6775 97.683 58.652 97.1271 58.8307C97.0377 58.8593 97.0619 58.7825 97.0852 58.7467C96.9173 58.7151 96.8682 58.5458 96.7913 58.3693C96.8193 58.2437 96.8474 58.1179 96.8754 57.992C97.4732 57.9871 98.307 57.8791 98.8458 57.489C98.6529 57.0336 98.4634 55.5733 98.6782 55.183Z" fill="#E83819"/>
<path fill-rule="evenodd" clip-rule="evenodd" d="M126.078 54.5737C126.168 54.6705 126.094 54.6904 126.204 54.6158C126.096 54.5957 126.19 54.6437 126.078 54.5737Z" fill="#E83819"/>
<path fill-rule="evenodd" clip-rule="evenodd" d="M126.12 54.7414C126.148 54.7973 126.176 54.8534 126.204 54.9093C126.218 54.8673 126.232 54.8252 126.246 54.7833V54.7414H126.12Z" fill="#E83819"/>
<path fill-rule="evenodd" clip-rule="evenodd" d="M126.833 56.5444C126.902 56.6547 126.909 56.6304 127 56.5444H126.833Z" fill="#E83819"/>
<path fill-rule="evenodd" clip-rule="evenodd" d="M103.353 57.1312L103.311 57.2572L103.395 57.1312H103.353Z" fill="#E83819"/>
<path fill-rule="evenodd" clip-rule="evenodd" d="M110.403 54.6577C110.599 54.711 110.84 54.7183 111.032 54.9931C111.386 55.499 111.129 58.9851 111.032 59.3116C111.444 59.2107 112.008 59.1834 112.248 58.9762C112.242 58.7999 112.211 58.8705 112.458 58.7666C112.85 58.8518 114.478 58.6558 114.302 59.3116C114.246 59.5073 114.191 59.7029 114.135 59.8986C113.623 59.7746 111.252 59.9173 111.074 60.3177V60.4436C111.194 60.9903 113.08 63.3459 113.841 63.9234C114.554 64.3147 115.267 64.7062 115.98 65.0974L115.938 65.2232H115.728C115.838 65.4291 115.863 65.4206 115.896 65.6844H115.686L115.77 65.8103C115.462 65.8383 115.155 65.8662 114.847 65.8938C114.325 65.7981 113.715 65.3233 113.296 65.1812C112.985 64.8097 112.362 63.8504 112.122 63.4203C112.118 63.4142 112.118 63.3326 112.08 63.3785C111.721 62.8665 110.788 61.4127 110.697 61.4499L110.655 61.3659C110.58 61.9834 109.28 64.8864 109.145 64.8878C109.103 64.9297 109.061 64.9716 109.02 65.0135C108.827 65.1716 108.432 65.6424 108.432 65.6424C108.01 65.8058 107.307 65.7387 106.839 65.8938C106.811 65.8523 106.783 65.8103 106.755 65.7684V65.7263C108.349 64.6432 108.738 63.8106 109.523 62.3304C109.676 61.7993 109.83 61.268 109.984 60.7371L109.9 60.6952C108.806 61.0268 107.501 61.7179 106.378 60.1921H106.546C107.402 59.8775 108.858 59.9305 109.103 59.7727C109.425 59.5658 109.94 59.4521 110.193 59.4793L110.319 58.9762C110.291 59.0042 110.263 59.0321 110.235 59.0599C110.398 57.9956 110.284 57.1898 110.445 56.0832C110.526 55.5237 110.249 55.2384 110.403 54.6577Z" fill="#E83819"/>
<path fill-rule="evenodd" clip-rule="evenodd" d="M68.7712 54.4814C70.181 54.609 70.6478 56.049 69.9453 57.1648C69.9871 57.1788 70.029 57.1929 70.0709 57.2069C70.1287 57.1185 72.3271 56.9883 72.4188 57.2486C72.5935 57.3589 72.6322 57.825 72.5445 57.7519C72.6571 58.0491 72.5902 58.0231 72.4188 58.171C70.5802 58.0299 69.8407 58.376 68.1423 58.2968C67.835 58.3947 67.5273 58.4927 67.2199 58.5903C65.8791 58.6693 65.3309 59.5973 64.2011 58.0453C64.3346 57.3507 67.3357 57.4073 67.4716 57.3746C67.7574 57.3052 68.812 57.2824 68.7712 57.2486H68.855C68.8271 57.2069 68.7991 57.1648 68.7712 57.123C68.746 57.1098 68.2092 56.8095 68.2263 56.7038C68.3381 56.6784 68.4773 56.5011 68.6035 56.5359C68.3563 55.8207 68.3023 55.491 67.8489 55.0267C67.9305 54.5599 68.5932 54.6369 68.7712 54.4814Z" fill="#E83819"/>
<path fill-rule="evenodd" clip-rule="evenodd" d="M59.2039 55.4543C60.7796 55.6809 60.029 56.7922 60.2521 57.8859C60.3272 58.2531 60.5798 58.9521 60.5036 59.2276C61.4245 58.8744 61.8834 59.1371 62.2226 60.0661C62.0209 60.3152 61.9536 60.589 61.6776 60.7371C61.4169 60.8769 60.812 60.6678 60.6294 60.9047C60.2398 61.5675 60.3813 62.972 60.1263 63.6298C60.2241 63.602 60.3219 63.574 60.4199 63.5461C60.9893 63.7535 61.3277 63.6015 61.8872 64.0492V64.259L61.7195 64.5944C60.8366 64.8637 58.2881 64.7012 58.2395 63.9234C58.4894 63.7959 58.5369 63.5943 58.8685 63.6298C58.8374 63.4229 58.992 60.1526 58.9944 60.15C58.9244 60.108 58.8545 60.0661 58.7848 60.0244C59.2708 59.4806 59.0002 57.8375 59.1202 57.0055C59.1838 56.5638 58.8961 55.8797 59.1202 55.5803C59.148 55.5382 59.1759 55.4963 59.2039 55.4543Z" fill="#E83819"/>
<path fill-rule="evenodd" clip-rule="evenodd" d="M55.8917 57.0055C56.2689 57.1033 56.6462 57.2013 57.0235 57.2991C57.5763 57.7652 57.6799 60.3917 57.5688 61.1563C57.6107 61.1703 57.6526 61.1843 57.6944 61.1981C57.6804 61.1703 57.6664 61.1423 57.6526 61.1144C57.89 60.9046 58.1276 60.6949 58.3652 60.4855C58.3374 60.5552 58.3095 60.6252 58.2815 60.6949C58.4071 60.6252 58.5329 60.5552 58.6589 60.4855L58.7008 60.6112C58.608 60.7185 58.6503 60.6355 58.6589 60.779C58.4779 60.7721 58.084 60.957 58.0298 61.324C58.1883 61.371 58.1037 61.3789 58.2815 61.3659C58.1963 61.7917 57.8958 61.9042 57.7365 62.2883C57.6414 62.517 57.5267 63.4202 57.5267 63.4202C56.2589 64.3395 55.5225 64.3054 54.8433 65.936C54.5446 65.9327 53.9475 66.0204 53.8371 65.7681C52.9611 65.3178 54.7513 63.4803 54.8016 63.1269C54.9915 63.23 54.8395 63.3163 55.0949 63.2107L55.137 63.6718H55.1789V63.5879C55.3494 63.4967 55.4556 63.4153 55.5563 63.2527C55.4238 62.8252 55.0823 62.4157 55.1789 62.2462C55.2378 62.3404 55.2615 62.3516 55.3465 62.4141C55.3873 62.3297 55.3498 62.324 55.4303 62.3722C55.6321 62.4737 55.5757 62.4945 55.6401 62.4559C55.7262 62.3991 55.7074 62.4091 55.7657 62.3301C55.6378 62.2476 55.8253 61.5728 55.6819 61.4917C55.5283 61.4638 55.3744 61.4356 55.2208 61.4077C55.1779 61.1781 55.0565 60.9806 54.8016 60.8209C54.6208 60.8128 53.6531 60.6457 53.418 60.15H53.5016C53.7165 59.175 55.1176 59.6055 55.3884 59.3115C55.2135 58.6714 55.0299 57.8189 55.137 57.257C55.3629 57.1499 55.6078 57.1592 55.8917 57.0055Z" fill="#E83819"/>
<path fill-rule="evenodd" clip-rule="evenodd" d="M92.4522 58.1794L92.4103 58.3054C92.4382 58.2774 92.4662 58.2495 92.4941 58.2214L92.4522 58.1794Z" fill="#E83819"/>
<path fill-rule="evenodd" clip-rule="evenodd" d="M121.97 59.313C121.997 59.1022 121.886 58.9883 121.928 58.6841C121.815 58.6688 121.918 58.6985 121.802 58.6422C121.789 58.6702 121.775 58.6981 121.761 58.7262C121.822 58.5121 121.873 58.7227 121.845 58.5164C122.105 58.6761 123 58.442 123.102 58.3487C123.37 58.4713 124.376 58.5531 124.653 58.5164C124.667 58.5725 124.682 58.6282 124.696 58.6841C124.486 58.7682 124.276 58.852 124.067 58.9357L124.235 59.0195C123.945 59.2477 123.528 58.5138 123.396 58.6422C122.828 58.6979 122.413 59.1261 121.97 59.313ZM122.39 59.9841C122.292 59.9422 122.194 59.9 122.096 59.8581C122.035 59.7936 122.131 59.8286 122.054 59.6485C122.199 59.6071 122.414 59.558 122.474 59.439H122.515C122.633 59.6174 122.496 59.7914 122.39 59.9841ZM121.425 57.9294C121.71 57.0198 121.371 56.9475 121.761 56.1267C121.858 56.1657 122.501 57.1634 122.515 57.2586C122.373 57.3084 122.419 57.285 122.432 57.3846C122.399 57.4143 121.831 57.7008 121.593 57.7619C121.733 57.8791 121.698 57.8332 121.802 57.8038C121.711 57.9668 121.676 57.9162 121.425 57.9294ZM123.941 59.5646C124.084 59.3799 123.946 59.3226 124.109 59.1873C124.613 59.548 125.467 59.1062 126.247 59.1036C126.275 58.9497 126.303 58.7961 126.331 58.6422C125.65 57.7322 124.778 57.7465 123.941 57.5521C123.775 57.6288 123.792 57.5598 123.731 57.7619H123.312C123.336 57.6688 123.287 57.6763 123.438 57.678C123.347 57.4747 123.253 57.5507 123.018 57.5521C123.481 57.0418 124.499 56.172 125.199 56.001C125.202 55.9159 125.26 55.5899 125.325 55.5817C125.143 55.0097 124.236 54.4961 124.235 54.4914H124.15L123.899 54.6174C123.768 55.2821 123.518 55.8015 123.018 56.0429C122.77 54.9652 121.867 55.121 121.635 54.6593C121.607 54.6872 121.579 54.7152 121.551 54.7431C121.591 55.3048 121.52 55.2997 121.299 56.001L121.258 55.9171C121.203 55.9437 120.901 55.3121 120.88 55.2463C120.796 55.1902 120.713 55.1343 120.629 55.0786C120.067 55.4182 119.522 57.6262 120.461 58.1393C120.265 58.1812 120.069 58.2231 119.874 58.2649C119.804 58.0414 119.734 57.8176 119.664 57.594C119.497 57.5095 119.536 57.6936 119.497 57.5103C118.875 57.6684 118.64 58.9953 118.281 59.1873C118.305 59.2236 118.093 59.3328 117.987 59.355C118.032 59.7569 118.121 60.0115 118.029 60.3195C118.228 60.4187 118.292 60.3807 118.322 60.6128C118.351 60.5709 118.378 60.529 118.406 60.487V60.6549C118.576 60.6224 118.535 60.5314 118.574 60.6969C118.827 60.5031 119.073 60.2771 119.287 60.2776C119.259 60.2075 119.231 60.1376 119.203 60.0678C119.286 60.0585 119.223 60.014 119.287 60.0678L119.371 60.026C119.158 59.8027 119.585 59.8548 119.706 59.3969C119.734 59.3829 119.762 59.3689 119.79 59.355C119.762 59.425 119.734 59.4949 119.706 59.5646C119.79 59.425 119.874 59.2851 119.958 59.1455L121.173 58.6841C121.174 58.7779 121.231 58.693 121.258 58.6422V58.8101L121.341 58.6841V58.8518C121.369 58.8101 121.397 58.7682 121.425 58.7262H121.467C121.236 59.4785 120.556 59.8878 120.964 60.9063C121.137 60.8899 121.289 60.8392 121.341 60.9482C121.638 60.8053 121.788 60.6016 121.886 60.2355L122.012 60.2776C122.11 60.529 122.208 60.7805 122.306 61.0321C122.306 61.0321 118.606 61.6855 118.532 61.7031H118.406C118.364 61.7309 118.322 61.7588 118.281 61.7868C118.887 62.7532 120.07 62.0263 120.922 61.7449C121.355 61.6891 121.789 61.6331 122.222 61.5772L122.306 61.661C122.701 61.9033 122.574 65.3469 121.886 65.5602C122.041 65.7121 120.356 65.4203 120.209 65.4346H120.125C120.703 66.2723 121.28 66.2555 122.264 66.5248C123.435 65.7496 123.329 62.8907 122.977 61.4933C123.312 61.4653 123.648 61.4374 123.983 61.4096C124.305 61.5006 125.097 61.86 125.534 61.661C125.743 61.69 125.792 61.6184 125.828 61.3677C125.59 61.2557 125.352 61.1439 125.115 61.0321L122.977 60.9903C122.844 60.8453 122.926 60.5857 122.725 60.4032C123.013 59.9394 123.678 59.9042 123.941 59.5646Z" fill="#E83819"/>
<path fill-rule="evenodd" clip-rule="evenodd" d="M99.0975 60.843C99.1255 60.8848 99.1535 60.9267 99.1814 60.9688C99.0453 60.9602 98.8645 61.2282 98.5942 61.3462C98.5806 61.2903 98.5663 61.2342 98.5523 61.1784C98.6643 61.1086 98.7761 61.0387 98.8877 60.9688C98.8427 60.8865 98.8956 60.9063 98.8041 60.9267C98.9716 60.5399 99.2977 60.3661 99.4749 60.0885H99.5168C99.5593 60.4058 99.3044 60.7756 99.0975 60.843ZM103.961 61.5139C104.254 60.5756 101.514 60.5822 101.11 60.8011C101.082 60.7172 101.054 60.6334 101.026 60.5494C101.224 60.6304 101.642 59.2657 101.99 59.0402C101.963 58.8567 101.938 58.7563 101.823 58.6628C101.666 58.523 101.584 58.5772 101.445 58.5372C101.222 59.0961 100.998 59.6551 100.775 60.2139C100.655 60.3444 100.38 60.5962 100.313 60.8011H100.062C100.196 60.57 100.242 60.6935 100.397 60.4657C100.248 60.2945 100.106 60.0738 99.8522 59.8787C99.7404 59.9346 99.6285 59.9905 99.5168 60.0464C99.9263 58.9235 99.4197 59.3911 99.0556 58.8305C98.9136 58.9088 98.916 58.8826 98.8458 59.0402C98.9723 58.907 98.8458 59.3336 98.8458 59.3336C98.7604 59.3279 98.4281 60.2618 97.8818 60.6334C97.5069 60.8881 97.309 61.2205 97.0012 61.6396L96.4144 61.8493C96.3689 61.9656 96.186 62.4032 96.3723 62.562C96.3286 62.7037 96.8155 62.9862 97.0012 62.9392C97.0925 62.9983 97.106 62.9789 97.1687 62.8975C97.4318 62.5582 97.8317 62.5126 98.1753 62.3105C98.0808 62.6036 97.368 63.9304 97.085 64.0713C97.0988 64.2531 97.1132 64.4348 97.1271 64.6165C97.3452 64.9729 97.5571 64.9545 97.8818 64.9938C98.0511 64.402 99.8042 63.6616 99.9782 63.0231C100.089 62.9831 99.9965 62.9135 99.9782 62.8136C100.062 62.7855 100.146 62.7577 100.23 62.7298C100.188 62.604 100.146 62.4782 100.104 62.3524C100.165 62.4232 100.145 62.2969 100.146 62.2686C100.43 62.4177 101.206 63.3744 101.278 63.5264C101.685 63.4909 101.722 63.3664 102.116 63.2748C101.787 62.0654 101.231 62.1506 100.146 61.8912C100.136 62.0855 100.099 62.0671 100.23 62.1847C99.9639 62.2546 99.6983 62.3245 99.433 62.3943C99.1552 62.6347 99.1566 62.83 98.8041 62.9811C99.23 62.1739 99.72 61.1788 100.104 60.9688C100.122 61.0893 100.21 61.2066 100.23 61.3462C100.421 61.3369 100.498 61.3634 100.565 61.3042C100.683 61.2721 100.74 61.1716 100.817 61.0107C101.236 60.9968 101.655 60.9828 102.074 60.9688C102.368 61.0387 102.661 61.1086 102.955 61.1784C103.16 62.5044 102.685 64.6483 101.445 65.4971C101.055 65.3001 100.87 65.2447 100.733 64.7842C100.607 64.7561 100.481 64.7281 100.355 64.7003L100.313 65.0356C100.721 65.281 101.118 66.3893 101.236 66.6707C101.662 66.7848 101.685 66.6793 102.116 66.7548C102.783 65.7141 104.271 62.9756 103.961 61.5139Z" fill="#E83819"/>
<path fill-rule="evenodd" clip-rule="evenodd" d="M81.4644 58.1644C81.4532 58.6939 80.6267 58.8234 80.3743 59.204C80.4162 59.2708 80.4578 59.3373 80.4999 59.4041C80.2903 59.4439 80.0805 59.4839 79.871 59.5239C79.8291 58.9549 79.7994 58.597 79.9549 58.0844C80.2361 57.9342 80.6779 57.9513 81.003 57.9644C80.9891 57.9378 80.9751 57.9111 80.9611 57.8845C81.2488 57.9937 81.3778 57.9202 81.5481 58.1644H81.4644ZM78.7388 59.6837C78.3969 59.809 78.094 59.6747 77.649 59.7638C77.2741 59.3574 77.3927 59.0216 77.1457 58.7641C77.4539 58.4551 77.934 58.4516 78.1939 58.4444L78.152 58.3244C78.3324 58.4312 78.5253 58.3894 78.7809 58.3244C78.6359 58.7849 78.8548 59.1785 78.7388 59.6837ZM83.351 58.2842C83.2772 57.724 82.9916 57.3512 82.3028 57.1648C81.4644 57.2048 80.6257 57.2448 79.787 57.2848C79.9024 56.9342 79.8416 54.0468 79.787 53.9661C79.6336 53.7393 79.4056 53.659 79.2421 53.6062C79.1163 53.6597 78.9907 53.7129 78.8647 53.7662C78.8368 54.0461 78.8088 54.326 78.7809 54.6058C78.9374 55.6461 78.6563 56.5855 78.7809 57.4046C78.3761 57.2818 77.7524 57.6606 77.7327 57.6845H77.3973C76.9004 57.8541 76.2783 57.6794 76.0975 57.8445C75.9718 58.2177 75.8461 58.5908 75.7202 58.964C75.9679 60.0586 75.6597 60.6174 77.2717 61.1632C77.3693 60.9869 77.384 60.9911 77.6071 61.0031C77.5791 60.9366 77.5512 60.87 77.5231 60.8033C77.7166 60.7165 77.9963 60.5061 77.9844 60.4434C78.3158 60.5227 78.4402 60.5156 78.7388 60.4434C78.8204 61.9657 78.8726 63.3612 78.6133 64.9616V66.801C78.7388 66.9072 78.8647 67.0141 78.9907 67.1209C79.0882 67.1341 79.1862 67.1474 79.2842 67.1609C79.9548 66.7385 79.6498 66.3019 79.745 65.5615C79.8062 65.0881 79.7983 64.3413 79.8291 63.4421C79.787 63.2159 79.745 62.9889 79.7035 62.7625C79.8893 62.2538 80.0253 60.8438 79.9129 60.2434C80.191 60.2991 81.2474 59.9871 81.3806 60.2036C81.4995 60.1309 81.5477 60.0442 81.7998 60.0434V59.4839C82.3583 59.3978 83.1985 59.081 83.4348 58.2842H83.351Z" fill="#E83819"/>
<path fill-rule="evenodd" clip-rule="evenodd" d="M69.6936 59.9739C69.8143 60.2597 69.5811 60.4543 69.3999 60.8963C69.2044 60.952 69.0086 61.0079 68.8131 61.064C68.7572 61.0361 68.7011 61.0079 68.6454 60.9801C68.6927 60.8138 68.6087 60.2875 68.5196 60.1835C68.7801 59.8934 69.105 59.9383 69.5259 59.7223C69.6651 59.7723 69.6651 59.7302 69.7353 59.806C69.8117 59.7377 69.7743 59.9077 69.8194 60.0156C69.7773 60.0018 69.7353 59.9879 69.6936 59.9739ZM70.1127 58.8419C69.8139 59.1527 68.6309 59.2887 68.0163 59.3869C67.7681 59.286 67.5233 59.2142 67.2618 59.2611C67.2338 59.2472 67.2059 59.2332 67.1781 59.2192C67.2524 60.1187 67.1746 61.9076 68.0163 62.4055C68.0687 62.4857 68.1955 62.5077 68.3938 62.5315C68.5477 62.4052 68.7448 62.2053 68.7712 62.3218C68.79 62.3065 68.8884 62.9565 68.855 63.1184C68.6899 63.9203 68.7759 64.8258 68.6035 65.676C68.5476 65.6898 68.4917 65.7038 68.4358 65.7178C68.1562 65.5501 67.8767 65.3825 67.5972 65.2146C67.5553 65.2426 67.5135 65.2707 67.4714 65.2985C67.7974 65.8586 68.5858 66.9076 69.2324 66.5567C69.7598 66.273 69.4775 65.6061 69.5678 65.089C69.6357 64.6998 69.7614 62.2112 69.6099 61.8603C69.6712 61.9314 69.6504 61.8052 69.6516 61.7768C69.906 61.8243 70.0742 61.6543 70.4481 61.7348C70.6981 61.3606 71.6352 60.423 71.6222 59.848C71.9073 59.2262 70.5817 58.8986 70.1127 58.8419Z" fill="#E83819"/>
<path fill-rule="evenodd" clip-rule="evenodd" d="M102.892 59.605C102.878 59.6467 102.864 59.6886 102.85 59.7307C102.878 59.7028 102.906 59.6747 102.934 59.6467C102.92 59.6329 102.906 59.6189 102.892 59.605Z" fill="#E83819"/>
<path fill-rule="evenodd" clip-rule="evenodd" d="M89.6748 61.5778C89.6468 61.6591 89.6189 61.7401 89.5911 61.8212C89.4983 61.9765 88.7468 63.4329 88.7525 63.5245C88.6423 63.5821 89.2845 64.069 89.3393 64.1731C89.1302 64.0734 88.2711 64.0851 88.1236 64.2949C88.1096 64.2678 88.0957 64.2407 88.0817 64.2138C87.7978 63.8901 87.8029 61.3029 87.9138 60.8479C88.1547 61.0198 88.41 61.28 88.501 61.3752C88.9723 61.4954 89.4349 61.2992 89.6566 61.3547C89.6669 61.3423 89.6854 61.3451 89.7167 61.3752C89.7001 61.3645 89.6783 61.36 89.6566 61.3547C89.6253 61.3925 89.6748 61.5778 89.6748 61.5778ZM92.7356 56.2653C92.7498 56.1437 92.7634 56.0221 92.7774 55.9002C92.603 55.824 92.689 55.7146 92.5679 55.6164C92.2881 55.3897 92.0851 55.4999 91.7711 55.4543C91.5059 55.7087 91.015 55.4217 90.6393 55.5759C90.0051 55.8359 88.5137 55.6091 88.0398 55.7787C87.6535 55.9167 87.4173 56.002 86.9916 56.1031C86.9776 56.1706 86.9635 56.2382 86.9495 56.3058C88.0195 56.785 87.7688 57.2387 88.8783 56.8329C89.0831 56.944 89.5191 56.8344 89.7586 56.7114C89.7485 56.8391 89.7235 56.7703 89.8007 56.8329C89.6192 57.2249 89.4373 57.6171 89.2558 58.0091C88.4562 59.0758 87.6235 59.6209 89.5492 59.915C89.7703 59.5796 89.9702 59.4902 90.0102 59.185C90.1225 59.1792 90.0357 59.181 90.1781 59.1445C90.0259 59.4397 89.9723 59.8647 90.0521 60.0774C89.6956 60.0777 88.5522 60.345 88.1236 60.4828C87.9612 60.3492 87.9687 60.3106 87.9138 60.1584C87.965 60.1053 87.9657 58.3618 87.9557 58.3335C87.9977 58.3471 88.0398 58.3606 88.0817 58.3742C87.9758 58.1233 88.0377 57.8437 88.0817 57.4819C87.9697 57.4144 87.8579 57.3468 87.7463 57.2792C87.7044 57.2656 87.6623 57.2521 87.6203 57.2385C87.4427 57.6258 87.131 57.9768 86.9495 58.4146C87.1818 58.7928 86.5159 60.4098 86.74 61.1317C86.812 61.3645 86.5776 63.0119 86.6981 63.2406C87.0007 63.8148 87.0278 64.7804 87.327 65.552C87.5924 65.5655 87.8583 65.5791 88.1236 65.5925C88.2077 65.4982 88.2912 65.4033 88.3752 65.3087C88.2912 65.1196 88.2077 64.9301 88.1236 64.7409C88.1516 64.7138 88.1795 64.6871 88.2077 64.6598C88.1362 64.9318 89.1016 64.9255 89.2558 64.8627C89.7693 64.6532 90.6305 64.8735 91.2682 64.6193C91.4815 64.7547 92.3164 64.9032 92.3164 64.9032C92.4559 64.7952 92.5959 64.6871 92.7356 64.5788C92.5082 63.8045 90.1003 64.0066 89.7167 64.1731V64.0922L89.6328 64.1326C89.8673 63.2607 90.3445 63.0579 90.4295 62.2672C90.4434 62.2401 90.4574 62.2132 90.4716 62.1861C90.7993 62.2639 90.9338 63.2137 91.6455 63.0783C91.9519 63.1242 92.0127 62.9557 92.2325 62.8348C91.884 62.1145 91.3125 61.753 90.681 61.8212C90.6534 61.767 90.6253 61.7129 90.5973 61.6591C90.797 61.5473 90.6127 60.9929 90.8908 60.8074C90.84 60.7419 91.9369 60.5679 92.1904 60.6451C92.2935 60.5649 92.2072 60.6219 92.3164 60.6046C92.2465 60.3881 92.1764 60.172 92.1065 59.9556C91.7472 59.9463 91.3784 59.7498 91.0164 59.8745C90.9663 59.4004 90.8819 59.4303 90.681 59.023C90.6534 59.0365 90.6253 59.0501 90.5973 59.0634C90.9324 58.7313 91.7732 58.6563 92.2744 58.6581L92.2325 58.5362C92.2612 58.4897 92.2032 58.1576 91.9809 58.0091C91.6674 57.7699 91.2126 57.8529 90.681 58.0498C90.8604 57.6096 90.8304 57.1211 90.5973 56.5492C90.6113 56.5221 90.6253 56.495 90.6393 56.4681C91.126 56.4283 92.1595 56.0824 92.7356 56.2653Z" fill="#E83819"/>
<path fill-rule="evenodd" clip-rule="evenodd" d="M82.2216 60.2758C82.1185 60.3579 82.2048 60.2997 82.096 60.3177C82.1099 60.3738 82.1239 60.4295 82.1379 60.4856C82.152 60.4575 82.166 60.4295 82.1796 60.4016C82.1936 60.3596 82.2076 60.3177 82.2216 60.2758Z" fill="#E83819"/>
<path fill-rule="evenodd" clip-rule="evenodd" d="M82.3056 60.2758C82.2916 60.3177 82.2776 60.3596 82.2637 60.4016C82.2916 60.3738 82.3196 60.3455 82.3475 60.3177L82.3056 60.2758Z" fill="#E83819"/>
<path fill-rule="evenodd" clip-rule="evenodd" d="M58.1975 60.695C58.1836 60.7371 58.1696 60.7788 58.1556 60.8209C58.1836 60.793 58.2115 60.7648 58.2395 60.7371C58.2255 60.7231 58.2115 60.7089 58.1975 60.695Z" fill="#E83819"/>
<path fill-rule="evenodd" clip-rule="evenodd" d="M101.592 61.5756C101.578 61.6034 101.564 61.6313 101.55 61.6593C101.578 61.6313 101.606 61.6034 101.634 61.5756H101.592Z" fill="#E83819"/>
<path fill-rule="evenodd" clip-rule="evenodd" d="M66.4232 62.8249C66.4863 62.9364 66.484 62.9086 66.4651 63.0346C66.549 62.9925 66.6327 62.9507 66.7167 62.9086C66.7586 63.1044 66.8005 63.3001 66.8423 63.4956C67.0514 63.4159 67.2852 63.4082 67.2617 63.6635C67.3779 64.3712 67.1567 64.6657 66.8844 65.3404C66.6187 65.3827 66.3533 65.4244 66.0878 65.4663C65.4445 64.1547 65.7066 63.8003 66.4232 62.8249Z" fill="#E83819"/>
<path fill-rule="evenodd" clip-rule="evenodd" d="M70.8253 62.8669C71.1188 62.8947 71.4125 62.9226 71.706 62.9506C72.008 63.6029 72.1301 63.561 72.2928 64.1665C72.1384 64.2381 72.1018 64.2807 71.9995 64.5019C71.0594 64.6324 70.5622 63.8524 69.8612 63.1183C69.8891 63.0903 69.9171 63.0624 69.945 63.0346C70.0312 63.025 70.826 62.8674 70.8253 62.8669Z" fill="#E83819"/>
<path fill-rule="evenodd" clip-rule="evenodd" d="M99.8038 63.5717C100.063 63.6367 100.153 63.681 100.265 63.949C100.237 63.977 100.209 64.0049 100.181 64.0329C100.086 63.8744 100.102 64.0096 99.9714 63.949C100.026 64.6097 98.1213 65.9606 98.0844 66.255C97.861 66.2131 97.6376 66.1712 97.4136 66.1292C97.4024 66.033 97.3928 66.0057 97.3301 65.8777C97.3437 65.8357 97.3581 65.7938 97.372 65.7521C97.8897 65.7129 98.5781 64.8101 99.007 64.3683C99.2214 64.1475 99.8454 63.8653 99.8454 63.8653H99.9294C99.8594 63.8093 99.7895 63.7533 99.72 63.6976C99.8471 63.616 99.7636 63.6838 99.8038 63.5717Z" fill="#E83819"/>
<path fill-rule="evenodd" clip-rule="evenodd" d="M91.4458 63.4623C91.4498 63.5925 91.4203 63.5109 91.4878 63.6298C91.5157 63.5881 91.5438 63.546 91.5718 63.5041C91.4841 63.538 91.5519 63.5308 91.4878 63.4623H91.4458Z" fill="#E83819"/>
<path fill-rule="evenodd" clip-rule="evenodd" d="M27.7832 54.7951L30.136 57.6016C30.136 57.6016 34.5728 55.5587 38.1913 55.5589C41.879 55.5589 45.9714 57.6465 46.0883 57.5156C46.3636 57.2955 48.3997 54.7745 48.3997 54.7745C48.3997 54.7745 41.6584 51.8165 37.9162 52.009C34.174 52.2017 30.6657 53.6188 27.7832 54.7951Z" fill="#45478B"/>
<path fill-rule="evenodd" clip-rule="evenodd" d="M32.7571 55.7342C32.507 56.0102 32.3702 55.9134 32.3419 55.8631C32.3167 55.8186 32.1252 55.2363 32.1252 55.2363C32.1252 55.2363 32.2412 55.1407 32.3634 55.0633C32.4855 54.9861 33.0375 55.4382 32.7571 55.7342ZM31.9111 54.6095C31.9111 54.6095 31.8801 54.5131 32.1209 54.4442C32.298 54.4065 32.6472 54.5218 32.0589 55.0221L31.9111 54.6095ZM33.335 55.201C33.1767 54.8916 32.8948 54.8502 32.6264 54.8294C33.1991 54.2449 32.7091 54.0583 32.4732 54.1329C32.4193 54.1502 31.1475 54.5889 31.1475 54.5889L31.1733 54.6558C31.3332 54.6429 31.3513 54.759 31.3513 54.759C31.3513 54.759 31.6944 55.7445 31.7692 55.9508C31.844 56.1571 31.8258 56.1933 31.764 56.2681C31.6916 56.3404 31.7872 56.3706 31.7872 56.3706C31.7872 56.3706 32.5508 56.0953 32.9154 55.9576C33.28 55.8201 33.4931 55.5106 33.335 55.201Z" fill="#D02C1E"/>
<path fill-rule="evenodd" clip-rule="evenodd" d="M34.9756 53.5569C34.9756 53.5569 35.1821 53.4898 35.1924 53.8871C35.2027 54.2843 35.1562 55.2027 35.6206 55.2749C36.0849 55.3472 36.4203 55.2543 36.6008 55.0942C36.7813 54.9344 36.9051 54.8982 36.6731 53.7117C36.6163 53.3918 36.8295 53.3506 36.8295 53.3506C36.8365 53.323 36.8262 53.2784 36.8262 53.2784L36.1829 53.3506V53.4227C36.1829 53.4227 36.3824 53.4192 36.434 53.722C36.4857 54.0247 36.7126 54.8537 36.4133 54.9844C36.1586 55.0944 35.9214 55.0668 35.8492 54.8432C35.7771 54.6198 35.746 53.8114 35.7427 53.7496C35.7392 53.6876 35.7495 53.471 35.9113 53.471C35.9179 53.3986 35.9179 53.3712 35.9179 53.3712L34.9756 53.4743V53.5569Z" fill="#D02C1E"/>
<path fill-rule="evenodd" clip-rule="evenodd" d="M40.5094 54.0833L40.5989 54.0798L40.506 53.3265C40.506 53.3265 40.2376 53.3764 39.9593 53.2989C39.6754 53.2629 38.8603 53.1855 38.8086 54.207C38.8448 55.1098 39.5362 55.2389 39.9488 55.2646C40.3615 55.2286 40.3873 55.2646 40.4183 55.2751C40.4855 55.1459 40.6917 54.6972 40.6917 54.6972L40.6246 54.6661C40.6246 54.6661 40.3873 55.2595 39.7734 54.9498C39.2988 54.6402 39.2574 53.6652 39.9024 53.5569C40.1501 53.5518 40.3377 53.65 40.5094 54.0833Z" fill="#D02C1E"/>
<path fill-rule="evenodd" clip-rule="evenodd" d="M42.8739 55.827L42.9103 55.7601C42.9103 55.7601 42.7141 55.729 42.8226 55.4299C42.9309 55.1306 43.1835 54.4082 43.1835 54.4082L43.333 55.5639L44.1639 54.759L43.8285 55.7702C43.8285 55.7702 43.7822 56.0385 43.5605 55.9819C43.5551 56.0179 43.5498 56.0694 43.5498 56.0694L44.3807 56.3481L44.4064 56.2758C44.4064 56.2758 44.2722 56.2707 44.3858 55.9147C44.4991 55.5588 44.7727 54.79 44.7727 54.79C44.7727 54.79 44.8293 54.6147 44.9636 54.6507C44.9946 54.5889 44.9946 54.5681 44.9946 54.5681L44.1742 54.2793L44.133 54.3721C44.133 54.3721 44.2568 54.4082 44.0762 54.5424C43.9368 54.6766 43.7666 54.8261 43.7666 54.8261L43.7306 54.2844C43.7306 54.2844 43.7654 54.2328 43.8129 54.2379L43.8388 54.1761L42.9824 53.8562L42.9412 53.949C42.9412 53.949 43.1166 53.9387 42.9721 54.2895C42.8432 54.6301 42.6007 55.3729 42.6007 55.3729C42.6007 55.3729 42.5541 55.6463 42.3738 55.5794L42.3633 55.6463L42.8739 55.827Z" fill="#D02C1E"/>
<path fill-rule="evenodd" clip-rule="evenodd" d="M29.2594 68.7385C27.3745 65.5321 26.5244 61.2957 27.2675 55.6206L29.3931 58.1383C29.3931 58.1383 28.1753 63.8548 30.7753 68.5921C32.1379 70.7337 34.0226 72.5359 37.4929 74.1115C37.7509 75.4219 37.8338 75.7519 37.8338 75.7519C37.8338 75.7519 32.0827 73.5402 29.2594 68.7385Z" fill="#45478B"/>
<path fill-rule="evenodd" clip-rule="evenodd" d="M38.7687 74.0908L38.3975 75.7005C38.3975 75.7005 51.9764 70.2796 48.7569 55.8337C47.6425 57.072 46.707 58.2414 46.707 58.2414C46.707 58.2414 50.0502 68.4911 38.7687 74.0908Z" fill="#45478B"/>
<path fill-rule="evenodd" clip-rule="evenodd" d="M32.4956 60.0575C32.4956 60.0575 34.5045 60.3601 34.2568 62.1486C34.4578 62.6187 34.542 62.93 34.4442 63.3645C34.3555 63.7588 34.1081 64.2766 33.7425 65.0877C33.9627 64.8264 34.3153 64.5256 34.4907 64.4223C34.6661 64.3191 35.2543 63.865 35.3367 63.5659C35.2852 64.123 35.1304 64.6183 34.9138 65.0517C34.697 65.4852 34.3462 65.8669 33.4381 65.8978C33.3557 66.352 33.1183 67.2496 33.5826 68.0752C33.5723 67.1257 33.6859 66.9607 34.1399 66.4035C34.6041 65.9287 35.1407 65.6606 35.3367 65.5884C35.1098 65.8978 34.7485 66.5686 34.697 67.0227C34.6144 67.5076 34.2017 68.1884 33.7374 68.4569C33.9439 68.8797 34.3979 69.7003 35.2129 70.242C34.8932 69.7673 34.212 69.1688 35.4091 67.0019C35.3986 67.4868 35.3781 67.817 35.6463 68.7457C35.8011 69.6744 35.5224 70.2832 35.4503 70.4172C35.8526 70.6752 37.4107 71.5368 39.8874 71.5368C39.7789 71.7253 39.7739 71.7381 39.7739 71.7381C39.7739 71.7381 36.2501 71.7227 34.3927 69.7932C33.5464 70.1234 32.7366 70.3349 31.7355 69.3648C30.8586 68.3949 30.8482 68.3022 30.6729 67.9101C30.9721 68.1474 31.6531 68.4466 32.2413 68.5188C32.8396 68.6322 33.3763 68.756 33.9952 69.3339C33.5723 68.7457 33.2215 67.9409 33.1183 67.3425C32.3444 66.8679 32.1896 66.744 31.8182 65.9287C31.4468 65.1136 31.1164 64.7525 31.0236 64.7525C31.4365 64.8349 32.8396 65.2736 33.1027 66.4242C33.211 65.6915 33.5826 65 33.6032 64.866C33.2526 64.5874 32.8808 64.278 32.6642 63.3801C32.4993 62.6165 32.2619 62.3069 32.1587 62.1729C32.5818 62.3586 34.0625 63.1325 33.6962 64.7009C33.8205 64.4487 34.114 63.8909 34.2959 63.3198C34.3684 62.939 34.3499 62.5172 34.1296 62.0903C33.4486 61.6672 33.2835 61.2236 33.1286 60.9346C33.1286 60.9346 32.7227 60.2021 32.4956 60.0575Z" fill="#1F8D3F"/>
<path fill-rule="evenodd" clip-rule="evenodd" d="M43.6963 60.0575C43.6963 60.0575 41.6875 60.3601 41.9354 62.1486C41.7343 62.6187 41.6501 62.93 41.7479 63.3645C41.8365 63.7588 42.0838 64.2766 42.4493 65.0877C42.2294 64.8264 41.8767 64.5256 41.7014 64.4223C41.5259 64.3191 40.9378 63.865 40.8552 63.5659C40.9069 64.123 41.0615 64.6183 41.2783 65.0517C41.4951 65.4852 41.8459 65.8669 42.754 65.8978C42.8364 66.352 43.0739 67.2496 42.6093 68.0752C42.6198 67.1257 42.5061 66.9607 42.0521 66.4035C41.5879 65.9287 41.0512 65.6606 40.8552 65.5884C41.0823 65.8978 41.4434 66.5686 41.4951 67.0227C41.5776 67.5076 41.9904 68.1884 42.4546 68.4569C42.2481 68.8797 41.7944 69.7003 40.9791 70.242C41.2991 69.7673 41.9799 69.1688 40.7831 67.0019C40.7934 67.4868 40.814 67.817 40.5456 68.7457C40.391 69.6744 40.6695 70.2832 40.7416 70.4172C40.3393 70.6752 38.7812 71.5368 36.3047 71.5368C36.4132 71.7253 36.4182 71.7381 36.4182 71.7381C36.4182 71.7381 39.9421 71.7227 41.7994 69.7932C42.6455 70.1234 43.4556 70.3349 44.4564 69.3648C45.3336 68.3949 45.3438 68.3022 45.5193 67.9101C45.2201 68.1474 44.5391 68.4466 43.9508 68.5188C43.3523 68.6322 42.8157 68.756 42.1967 69.3339C42.6198 68.7457 42.9706 67.9409 43.0739 67.3425C43.8476 66.8679 44.0022 66.744 44.374 65.9287C44.7454 65.1136 45.0756 64.7525 45.1684 64.7525C44.7557 64.8349 43.3523 65.2736 43.0892 66.4242C42.9807 65.6915 42.6093 65 42.5887 64.866C42.9395 64.5874 43.3111 64.278 43.5277 63.3801C43.6928 62.6165 43.9302 62.3069 44.0333 62.1729C43.6102 62.3586 42.1294 63.1325 42.4958 64.7009C42.3716 64.4487 42.0779 63.8909 41.8962 63.3198C41.8237 62.939 41.8422 62.5172 42.0625 62.0903C42.7435 61.6672 42.9088 61.2236 43.0634 60.9346C43.0634 60.9346 43.4694 60.2021 43.6963 60.0575Z" fill="#1F8D3F"/>
<path fill-rule="evenodd" clip-rule="evenodd" d="M37.6999 56.673C37.6637 57.1426 37.3213 57.4984 36.7995 57.5578C36.1418 57.5982 35.9199 57.2074 35.9199 56.7401C35.9664 56.3479 36.2863 55.9636 36.8512 55.9197C37.4186 55.9017 37.6999 56.2057 37.6999 56.673Z" fill="#1F8D3F"/>
<path fill-rule="evenodd" clip-rule="evenodd" d="M36.4229 57.6741C36.4229 57.6741 36.8631 57.8495 37.386 57.4711C37.4136 57.8427 37.4342 58.1522 37.4342 58.1522C37.4342 58.1522 36.9181 58.4894 36.5811 58.7577C36.5193 58.3585 36.4229 57.6741 36.4229 57.6741Z" fill="#1F8D3F"/>
<path fill-rule="evenodd" clip-rule="evenodd" d="M36.6982 59.4729C36.6982 59.4729 37.4963 59.1771 37.5237 59.1495C37.5445 59.3492 37.854 63.0845 37.854 63.0845C37.854 63.0845 37.4825 63.2426 37.2555 63.1875C37.2005 62.8437 36.6982 59.4729 36.6982 59.4729Z" fill="#1F8D3F"/>
<path fill-rule="evenodd" clip-rule="evenodd" d="M37.4551 64.5083L37.9643 64.3364L38.3013 68.5119H38.0672L37.4551 64.5083Z" fill="#1F8D3F"/>
<path fill-rule="evenodd" clip-rule="evenodd" d="M38.1572 69.1173L38.3705 69.1585L38.4532 70.3211L38.3499 70.3486L38.1572 69.1173Z" fill="#1F8D3F"/>
<path fill-rule="evenodd" clip-rule="evenodd" d="M35.1787 59.9956C35.1787 59.9956 35.213 59.0188 36.5132 58.9842C37.2148 58.4546 37.741 57.9525 38.7935 57.7977C39.815 57.7254 40.558 58.551 39.939 60.2432C39.2785 61.9355 37.9061 62.9159 37.9681 62.9159C37.9267 62.4823 37.8615 61.5642 37.8615 61.5642C37.8615 61.5642 39.619 59.2629 38.6492 58.8503C38.6492 58.8503 38.1952 58.5613 36.6163 59.3453C36.3584 59.7994 36.0866 60.0851 35.4056 60.0851C35.4734 60.0059 35.5129 59.9825 35.6464 59.8974C35.7599 59.8252 35.7987 59.7531 35.7987 59.7531C35.7987 59.7531 35.3368 59.9406 35.1787 59.9956Z" fill="#D02C1E"/>
<path fill-rule="evenodd" clip-rule="evenodd" d="M35.9373 59.2681C35.9373 59.2681 36.0107 59.299 36.0315 59.3328C36.021 59.2681 36.0173 59.2566 36.0199 59.2204C36.0611 59.214 36.1321 59.2101 36.1218 59.3134C36.105 59.3687 36.0302 59.4101 35.9631 59.3869C35.9189 59.3715 35.8858 59.3224 35.9373 59.2681Z" fill="white"/>
<path fill-rule="evenodd" clip-rule="evenodd" d="M37.0426 62.6715L37.1251 63.2974C37.1251 63.2974 37.2421 63.4489 38.3289 63.0705C39.292 62.878 40.6919 62.6062 41.569 64.7936C41.9507 66.1662 41.6308 67.6245 40.4064 68.56C39.2508 69.3718 37.8749 69.3991 36.3477 67.8445C36.8981 68.2985 38.5698 69.3373 40.1382 67.9821C41.1288 66.964 41.1494 65.9597 40.6471 64.8591C40.1244 63.8615 39.4639 63.7997 38.4115 64.0611C37.2627 64.3844 36.6831 64.7834 36.4855 63.7997C36.4855 63.7997 36.3838 63.2356 37.0426 62.6715Z" fill="#D02C1E"/>
<path fill-rule="evenodd" clip-rule="evenodd" d="M54.1203 70.4549C54.249 70.4849 54.376 70.4998 54.5015 70.4998C54.7022 70.4998 54.8554 70.4545 54.9608 70.364C55.0661 70.2737 55.1189 70.1619 55.1189 70.0289C55.1189 69.9412 55.0949 69.8569 55.0472 69.7758C54.9995 69.6947 54.9218 69.631 54.8144 69.5845C54.7066 69.5379 54.5735 69.5145 54.4148 69.5145C54.346 69.5145 54.2873 69.5157 54.2384 69.518C54.1896 69.52 54.1502 69.5241 54.1203 69.5295V70.4549ZM54.1203 69.3764C54.1613 69.3841 54.2082 69.3899 54.2609 69.3939C54.3135 69.3978 54.3715 69.3997 54.4349 69.3997C54.5969 69.3997 54.7186 69.3822 54.8002 69.3473C54.8816 69.3123 54.9442 69.2589 54.9873 69.1867C55.0306 69.1146 55.0523 69.0358 55.0523 68.9504C55.0523 68.8185 54.9985 68.7058 54.8909 68.6125C54.7833 68.5194 54.6262 68.4727 54.4199 68.4727C54.309 68.4727 54.209 68.485 54.1203 68.5093V69.3764ZM54.9924 69.4664C55.1487 69.4996 55.2658 69.5529 55.3435 69.6261C55.4511 69.7281 55.5049 69.853 55.5049 70.0005C55.5049 70.1126 55.4695 70.2199 55.3984 70.3224C55.3274 70.4252 55.2301 70.5001 55.1065 70.5471C54.9826 70.5944 54.7937 70.618 54.5397 70.618H53.4746V70.5564H53.5595C53.6538 70.5564 53.7215 70.5263 53.7625 70.4664C53.788 70.4278 53.8008 70.345 53.8008 70.2185V68.7606C53.8008 68.6209 53.7847 68.5327 53.7526 68.496C53.7092 68.4472 53.6449 68.4228 53.5595 68.4228H53.4746V68.3613H54.4498C54.6318 68.3613 54.7777 68.3746 54.8876 68.4011C55.0539 68.4411 55.1809 68.5119 55.2686 68.6134C55.3563 68.7149 55.4001 68.8317 55.4001 68.9638C55.4001 69.0768 55.3657 69.178 55.2969 69.2674C55.228 69.3567 55.1265 69.4231 54.9924 69.4664Z" fill="#231916"/>
<path fill-rule="evenodd" clip-rule="evenodd" d="M56.4036 68.4844V69.3764H56.8995C57.0283 69.3764 57.1142 69.357 57.1574 69.318C57.2152 69.267 57.2473 69.1774 57.254 69.0485H57.3157V69.8341H57.254C57.2384 69.7244 57.2229 69.6538 57.2075 69.6229C57.1874 69.5839 57.1548 69.5533 57.1093 69.5312C57.0637 69.509 56.9939 69.498 56.8995 69.498H56.4036V70.2418C56.4036 70.3418 56.4079 70.4024 56.4168 70.4242C56.4257 70.4457 56.4413 70.4628 56.4635 70.4756C56.4857 70.4885 56.5278 70.4948 56.59 70.4948H56.9727C57.1003 70.4948 57.193 70.4859 57.2507 70.4681C57.3083 70.4504 57.3639 70.4155 57.4172 70.3632C57.4858 70.2944 57.5564 70.1908 57.6285 70.0521H57.6951L57.5003 70.618H55.7612V70.5563H55.841C55.8943 70.5563 55.9448 70.5435 55.9925 70.5182C56.028 70.5004 56.0521 70.4738 56.065 70.4382C56.0776 70.4026 56.084 70.3299 56.084 70.2203V68.7539C56.084 68.6109 56.0695 68.5226 56.0407 68.4893C56.0009 68.4449 55.9342 68.4227 55.841 68.4227H55.7612V68.3612H57.5003L57.5253 68.8554H57.4603C57.4371 68.7368 57.4114 68.6554 57.3829 68.6109C57.3546 68.5665 57.3129 68.5326 57.2573 68.5094C57.2129 68.4928 57.1348 68.4844 57.0227 68.4844H56.4036Z" fill="#231916"/>
<path fill-rule="evenodd" clip-rule="evenodd" d="M58.825 70.5564V70.618H57.8581V70.5564H57.9379C58.0312 70.5564 58.0988 70.5293 58.1411 70.4748C58.1676 70.4393 58.1809 70.3539 58.1809 70.2185V68.7606C58.1809 68.6464 58.1738 68.5709 58.1593 68.5344C58.1483 68.5066 58.1255 68.4827 58.0911 68.4628C58.0424 68.4361 57.9914 68.4228 57.9379 68.4228H57.8581V68.3613H58.825V68.4228H58.7434C58.6514 68.4228 58.5843 68.45 58.5422 68.5044C58.5144 68.5398 58.5006 68.6252 58.5006 68.7606V70.2185C58.5006 70.3329 58.5078 70.4082 58.5221 70.4447C58.5333 70.4727 58.5565 70.4964 58.5922 70.5163C58.6397 70.5431 58.6903 70.5564 58.7434 70.5564H58.825Z" fill="#231916"/>
<path fill-rule="evenodd" clip-rule="evenodd" d="M59.2476 68.4228V68.3611H60.2146V68.4228H60.133C60.0409 68.4228 59.9739 68.4501 59.9318 68.5044C59.905 68.5398 59.8918 68.6253 59.8918 68.7607V69.864C59.8918 70.0339 59.8731 70.1713 59.836 70.2767C59.7988 70.3822 59.7347 70.4739 59.6437 70.5522C59.5528 70.6304 59.443 70.6694 59.3142 70.6694C59.2099 70.6694 59.1278 70.6437 59.0679 70.5922C59.008 70.5405 58.9781 70.4814 58.9781 70.4149C58.9781 70.3605 58.9919 70.3195 59.0197 70.2917C59.0562 70.2575 59.099 70.2402 59.1477 70.2402C59.1834 70.2402 59.2152 70.2519 59.2435 70.2751C59.2718 70.2983 59.3076 70.3605 59.3509 70.4615C59.3764 70.5214 59.4091 70.5515 59.4491 70.5515C59.4789 70.5515 59.5069 70.533 59.5331 70.4965C59.5591 70.4598 59.5721 70.395 59.5721 70.3018V68.7607C59.5721 68.6464 59.5649 68.5709 59.5506 68.5344C59.5394 68.5065 59.5162 68.4827 59.4805 68.4628C59.433 68.4361 59.3823 68.4228 59.3292 68.4228H59.2476Z" fill="#231916"/>
<path fill-rule="evenodd" clip-rule="evenodd" d="M61.2863 70.5564V70.618H60.3194V70.5564H60.3992C60.4925 70.5564 60.5601 70.5293 60.6024 70.4748C60.6289 70.4393 60.6422 70.3539 60.6422 70.2185V68.7606C60.6422 68.6464 60.635 68.5709 60.6205 68.5344C60.6095 68.5066 60.5868 68.4827 60.5524 68.4628C60.5037 68.4361 60.4527 68.4228 60.3992 68.4228H60.3194V68.3613H61.2863V68.4228H61.2047C61.1127 68.4228 61.0456 68.45 61.0035 68.5044C60.9757 68.5398 60.9619 68.6252 60.9619 68.7606V70.2185C60.9619 70.3329 60.9691 70.4082 60.9834 70.4447C60.9946 70.4727 61.0178 70.4964 61.0534 70.5163C61.101 70.5431 61.1516 70.5564 61.2047 70.5564H61.2863Z" fill="#231916"/>
<path fill-rule="evenodd" clip-rule="evenodd" d="M61.3246 68.3612H61.937L63.3166 70.0537V68.7524C63.3166 68.6137 63.3011 68.5272 63.27 68.4928C63.2289 68.4461 63.1641 68.4229 63.0754 68.4229H62.9971V68.3612H63.7825V68.4229H63.7027C63.6073 68.4229 63.5397 68.4517 63.4997 68.5094C63.4754 68.545 63.4632 68.6259 63.4632 68.7524V70.6546H63.4031L61.9154 68.8373V70.227C61.9154 70.3657 61.9304 70.4522 61.9603 70.4864C62.0024 70.533 62.0674 70.5563 62.1551 70.5563H62.2349V70.618H61.4493V70.5563H61.5276C61.6242 70.5563 61.6923 70.5275 61.7323 70.4698C61.7568 70.4343 61.7688 70.3533 61.7688 70.227V68.6575C61.7035 68.581 61.6539 68.5305 61.62 68.506C61.5861 68.4816 61.5365 68.459 61.471 68.4377C61.4388 68.4278 61.3901 68.4229 61.3246 68.4229V68.3612Z" fill="#231916"/>
<path fill-rule="evenodd" clip-rule="evenodd" d="M65.923 68.3097L65.9811 69.0219H65.923C65.8643 68.8446 65.7883 68.7108 65.695 68.6208C65.5606 68.491 65.3882 68.4262 65.1774 68.4262C64.89 68.4262 64.6714 68.5398 64.5217 68.7672C64.3963 68.9594 64.3336 69.1877 64.3336 69.4531C64.3336 69.6681 64.3753 69.8645 64.4585 70.0422C64.5416 70.2197 64.6507 70.3498 64.7855 70.4323C64.9202 70.5151 65.0587 70.5563 65.2008 70.5563C65.2839 70.5563 65.3643 70.5458 65.442 70.5249C65.5196 70.5037 65.5945 70.4726 65.6667 70.4316V69.7791C65.6667 69.666 65.6581 69.592 65.6408 69.557C65.6237 69.5219 65.597 69.4954 65.561 69.4772C65.525 69.4589 65.4614 69.4496 65.3704 69.4496V69.3864H66.2441V69.4496H66.2027C66.116 69.4496 66.0566 69.4784 66.0245 69.5362C66.0023 69.5773 65.9913 69.6584 65.9913 69.7791V70.4698C65.8636 70.5387 65.7376 70.5891 65.6134 70.6213C65.4892 70.6534 65.351 70.6695 65.199 70.6695C64.763 70.6695 64.4318 70.5297 64.2055 70.2501C64.0357 70.0404 63.9508 69.7985 63.9508 69.5245C63.9508 69.3259 63.9985 69.1358 64.0941 68.9538C64.2071 68.7374 64.3624 68.5709 64.56 68.4545C64.7252 68.3579 64.9206 68.3097 65.1457 68.3097C65.2279 68.3097 65.3024 68.3163 65.3697 68.3296C65.4368 68.3429 65.5318 68.3722 65.655 68.4178C65.7172 68.4411 65.7588 68.4528 65.7799 68.4528C65.8009 68.4528 65.819 68.4432 65.8339 68.4236C65.8489 68.4042 65.858 68.3661 65.8613 68.3097H65.923Z" fill="#231916"/>
<path fill-rule="evenodd" clip-rule="evenodd" d="M68.7705 68.4228V68.3611H69.5694V68.4228H69.4845C69.3957 68.4228 69.3274 68.46 69.2797 68.5344C69.2565 68.5687 69.2448 68.6487 69.2448 68.7739V69.6894C69.2448 69.9156 69.2223 70.0913 69.1774 70.2161C69.1325 70.3408 69.0442 70.4479 68.9127 70.5373C68.7813 70.6264 68.6024 70.6712 68.376 70.6712C68.1299 70.6712 67.9428 70.6285 67.8152 70.5431C67.6877 70.4575 67.5972 70.3427 67.5439 70.1986C67.5085 70.0999 67.4907 69.9145 67.4907 69.6427V68.7607C67.4907 68.6221 67.4716 68.5309 67.4334 68.4878C67.3949 68.4445 67.3331 68.4228 67.2478 68.4228H67.1629V68.3611H68.1381V68.4228H68.0516C67.9583 68.4228 67.8918 68.4523 67.8519 68.511C67.8242 68.5509 67.8102 68.6342 67.8102 68.7607V69.7442C67.8102 69.8317 67.8182 69.9324 67.8345 70.0454C67.8504 70.1588 67.8795 70.2468 67.9218 70.3101C67.9639 70.3733 68.0245 70.4255 68.104 70.4664C68.1833 70.5076 68.2806 70.5281 68.3961 70.5281C68.5436 70.5281 68.6756 70.4959 68.7921 70.4315C68.9087 70.3672 68.9883 70.2847 69.031 70.1844C69.0736 70.084 69.0951 69.914 69.0951 69.6743V68.7607C69.0951 68.6199 69.0795 68.5316 69.0484 68.496C69.0051 68.4473 68.9408 68.4228 68.8554 68.4228H68.7705Z" fill="#231916"/>
<path fill-rule="evenodd" clip-rule="evenodd" d="M69.5609 68.3612H70.1734L71.553 70.0537V68.7524C71.553 68.6137 71.5374 68.5272 71.5063 68.4928C71.4653 68.4461 71.4005 68.4229 71.3117 68.4229H71.2335V68.3612H72.0189V68.4229H71.9391C71.8437 68.4229 71.7761 68.4517 71.7361 68.5094C71.7118 68.545 71.6996 68.6259 71.6996 68.7524V70.6546H71.6395L70.1517 68.8373V70.227C70.1517 70.3657 70.1668 70.4522 70.1966 70.4864C70.2387 70.533 70.3037 70.5563 70.3914 70.5563H70.4713V70.618H69.6857V70.5563H69.7639C69.8605 70.5563 69.9287 70.5275 69.9687 70.4698C69.9931 70.4343 70.0052 70.3533 70.0052 70.227V68.6575C69.9398 68.581 69.8902 68.5305 69.8563 68.506C69.8224 68.4816 69.7728 68.459 69.7073 68.4377C69.6752 68.4278 69.6264 68.4229 69.5609 68.4229V68.3612Z" fill="#231916"/>
<path fill-rule="evenodd" clip-rule="evenodd" d="M73.119 70.5564V70.618H72.152V70.5564H72.2319C72.3252 70.5564 72.3928 70.5293 72.435 70.4748C72.4616 70.4393 72.4749 70.3539 72.4749 70.2185V68.7606C72.4749 68.6464 72.4677 68.5709 72.4532 68.5344C72.4422 68.5066 72.4195 68.4827 72.3851 68.4628C72.3363 68.4361 72.2853 68.4228 72.2319 68.4228H72.152V68.3613H73.119V68.4228H73.0374C72.9453 68.4228 72.8782 68.45 72.8361 68.5044C72.8084 68.5398 72.7946 68.6252 72.7946 68.7606V70.2185C72.7946 70.3329 72.8017 70.4082 72.8161 70.4447C72.8272 70.4727 72.8505 70.4964 72.8861 70.5163C72.9336 70.5431 72.9843 70.5564 73.0374 70.5564H73.119Z" fill="#231916"/>
<path fill-rule="evenodd" clip-rule="evenodd" d="M75.6222 68.3612V68.4229C75.5421 68.4374 75.4817 68.4627 75.4406 68.4994C75.3819 68.5539 75.3297 68.6369 75.2843 68.749L74.4971 70.6695H74.4356L73.5901 68.7241C73.5469 68.6243 73.5163 68.5632 73.4985 68.541C73.4709 68.5066 73.4367 68.4798 73.3962 68.4603C73.3556 68.4409 73.3009 68.4285 73.2323 68.4229V68.3612H74.1543V68.4229C74.0499 68.4328 73.9823 68.4507 73.9512 68.476C73.9201 68.5017 73.9045 68.5343 73.9045 68.5743C73.9045 68.6297 73.93 68.7162 73.9812 68.8339L74.5554 70.1569L75.0879 68.8505C75.14 68.7218 75.1662 68.6325 75.1662 68.5827C75.1662 68.5504 75.1499 68.5197 75.1178 68.4901C75.0857 68.4608 75.0313 68.44 74.9548 68.4278C74.9492 68.4267 74.9398 68.425 74.9265 68.4229V68.3612H75.6222Z" fill="#231916"/>
<path fill-rule="evenodd" clip-rule="evenodd" d="M76.376 68.4844V69.3764H76.872C77.0007 69.3764 77.0867 69.357 77.1298 69.318C77.1877 69.267 77.2198 69.1774 77.2264 69.0485H77.2881V69.8341H77.2264C77.2109 69.7244 77.1954 69.6538 77.18 69.6229C77.1599 69.5839 77.1272 69.5533 77.0818 69.5312C77.0362 69.509 76.9663 69.498 76.872 69.498H76.376V70.2418C76.376 70.3418 76.3804 70.4024 76.3893 70.4242C76.3982 70.4457 76.4138 70.4628 76.4359 70.4756C76.4581 70.4885 76.5002 70.4948 76.5624 70.4948H76.9452C77.0727 70.4948 77.1655 70.4859 77.2231 70.4681C77.2808 70.4504 77.3363 70.4155 77.3896 70.3632C77.4583 70.2944 77.5289 70.1908 77.601 70.0521H77.6676L77.4728 70.618H75.7337V70.5563H75.8135C75.8668 70.5563 75.9173 70.5435 75.965 70.5182C76.0004 70.5004 76.0245 70.4738 76.0375 70.4382C76.05 70.4026 76.0565 70.3299 76.0565 70.2203V68.7539C76.0565 68.6109 76.042 68.5226 76.0132 68.4893C75.9733 68.4449 75.9066 68.4227 75.8135 68.4227H75.7337V68.3612H77.4728L77.4978 68.8554H77.4328C77.4095 68.7368 77.3839 68.6554 77.3554 68.6109C77.3271 68.5665 77.2853 68.5326 77.2298 68.5094C77.1854 68.4928 77.1073 68.4844 76.9951 68.4844H76.376Z" fill="#231916"/>
<path fill-rule="evenodd" clip-rule="evenodd" d="M78.4463 69.458C78.4674 69.458 78.4856 69.4582 78.5011 69.4589C78.5167 69.4594 78.5294 69.4598 78.5394 69.4598C78.7546 69.4598 78.9169 69.4129 79.0263 69.3198C79.1355 69.2267 79.1901 69.1079 79.1901 68.9638C79.1901 68.8228 79.1461 68.7082 79.0579 68.62C78.9697 68.5318 78.853 68.4877 78.7076 68.4877C78.6432 68.4877 78.556 68.4982 78.4463 68.5194V69.458ZM80.049 70.618H79.4464L78.6827 69.5628C78.626 69.5649 78.5799 69.5661 78.5445 69.5661C78.53 69.5661 78.5146 69.5658 78.4978 69.5653C78.4812 69.5647 78.4641 69.5639 78.4463 69.5628V70.2186C78.4463 70.3605 78.4618 70.4487 78.4929 70.4831C78.535 70.5319 78.5983 70.5563 78.6827 70.5563H78.7707V70.618H77.8039V70.5563H77.8888C77.984 70.5563 78.0523 70.5252 78.0934 70.4632C78.1168 70.4288 78.1283 70.3472 78.1283 70.2186V68.7606C78.1283 68.6186 78.1128 68.5304 78.0819 68.496C78.0385 68.4472 77.9741 68.4228 77.8888 68.4228H77.8039V68.3613H78.626C78.8656 68.3613 79.0424 68.3787 79.1561 68.4137C79.2698 68.4486 79.3662 68.5131 79.4456 68.6067C79.5249 68.7005 79.5645 68.8123 79.5645 68.9421C79.5645 69.0808 79.5195 69.201 79.429 69.3032C79.3385 69.4052 79.1985 69.4774 79.0088 69.5197L79.4747 70.1669C79.5813 70.3156 79.6728 70.4145 79.7494 70.4632C79.8259 70.512 79.9258 70.5431 80.049 70.5563V70.618Z" fill="#231916"/>
<path fill-rule="evenodd" clip-rule="evenodd" d="M81.5817 68.3097V69.0902H81.52C81.5001 68.9403 81.4643 68.8212 81.4127 68.7325C81.3612 68.6435 81.2876 68.5731 81.1923 68.5211C81.0969 68.4688 80.998 68.4428 80.896 68.4428C80.7807 68.4428 80.6851 68.4781 80.6098 68.5485C80.5342 68.6191 80.4966 68.6991 80.4966 68.7889C80.4966 68.8579 80.5204 68.9204 80.5681 68.977C80.6369 69.0602 80.8006 69.1713 81.0591 69.31C81.2698 69.423 81.4138 69.5099 81.491 69.5703C81.568 69.6308 81.6274 69.7022 81.669 69.7841C81.7106 69.8662 81.7314 69.9522 81.7314 70.0422C81.7314 70.213 81.6652 70.3603 81.5326 70.484C81.4 70.6077 81.2293 70.6695 81.0209 70.6695C80.9554 70.6695 80.8937 70.6644 80.836 70.6547C80.8016 70.6491 80.7304 70.6286 80.6222 70.5939C80.5141 70.5589 80.4456 70.5413 80.4168 70.5413C80.389 70.5413 80.367 70.5497 80.3509 70.5664C80.3348 70.583 80.323 70.6174 80.3151 70.6695H80.2536V69.8956H80.3151C80.3441 70.0577 80.3829 70.1788 80.4316 70.2593C80.4805 70.3397 80.5551 70.4066 80.6556 70.4599C80.7559 70.513 80.8661 70.5399 80.9858 70.5399C81.1245 70.5399 81.234 70.5032 81.3145 70.43C81.3949 70.3566 81.4353 70.2701 81.4353 70.1702C81.4353 70.1148 81.4199 70.0588 81.3893 70.0022C81.3589 69.9456 81.3116 69.893 81.2471 69.8441C81.2038 69.8109 81.0857 69.7401 80.8927 69.6318C80.6996 69.5237 80.5623 69.4375 80.4807 69.3731C80.3991 69.3088 80.3373 69.2377 80.2952 69.1601C80.2531 69.0824 80.2319 68.9971 80.2319 68.9037C80.2319 68.7419 80.2941 68.6023 80.4183 68.4853C80.5426 68.3682 80.7007 68.3097 80.8927 68.3097C81.0125 68.3097 81.1395 68.339 81.2738 68.3979C81.3359 68.4255 81.3797 68.4395 81.4052 68.4395C81.434 68.4395 81.4576 68.4308 81.476 68.4138C81.4943 68.3965 81.509 68.3619 81.52 68.3097H81.5817Z" fill="#231916"/>
<path fill-rule="evenodd" clip-rule="evenodd" d="M82.9663 70.5564V70.618H81.9994V70.5564H82.0792C82.1725 70.5564 82.2401 70.5293 82.2824 70.4748C82.309 70.4393 82.3222 70.3539 82.3222 70.2185V68.7606C82.3222 68.6464 82.3149 68.5709 82.3006 68.5344C82.2896 68.5066 82.2667 68.4827 82.2324 68.4628C82.1837 68.4361 82.1327 68.4228 82.0792 68.4228H81.9994V68.3613H82.9663V68.4228H82.8848C82.7927 68.4228 82.7256 68.45 82.6835 68.5044C82.6557 68.5398 82.6419 68.6252 82.6419 68.7606V70.2185C82.6419 70.3329 82.6491 70.4082 82.6634 70.4447C82.6744 70.4727 82.6978 70.4964 82.7333 70.5163C82.781 70.5431 82.8316 70.5564 82.8848 70.5564H82.9663Z" fill="#231916"/>
<path fill-rule="evenodd" clip-rule="evenodd" d="M85.0216 68.3612L85.0466 68.8904H84.9833C84.9711 68.7973 84.9543 68.7307 84.9334 68.6909C84.8989 68.6266 84.8532 68.5791 84.796 68.5485C84.7389 68.5179 84.6638 68.5027 84.5705 68.5027H84.2527V70.227C84.2527 70.3657 84.2678 70.4522 84.2975 70.4864C84.3399 70.533 84.4047 70.5563 84.4924 70.5563H84.5705V70.618H83.6135V70.5563H83.6934C83.7889 70.5563 83.8565 70.5275 83.8967 70.4698C83.921 70.4343 83.9332 70.3533 83.9332 70.227V68.5027H83.6619C83.5564 68.5027 83.4816 68.5104 83.4372 68.526C83.3796 68.5471 83.33 68.5876 83.2891 68.6475C83.2481 68.7073 83.2236 68.7883 83.2159 68.8904H83.1527L83.1792 68.3612H85.0216Z" fill="#231916"/>
<path fill-rule="evenodd" clip-rule="evenodd" d="M86.7558 68.3612H87.543V68.4229H87.4996C87.4708 68.4229 87.4287 68.4356 87.3731 68.4611C87.3176 68.4866 87.2673 68.5233 87.2217 68.5709C87.1761 68.6187 87.1202 68.6963 87.0536 68.8039L86.5094 69.661V70.227C86.5094 70.3657 86.525 70.4522 86.5559 70.4864C86.5982 70.533 86.6648 70.5563 86.7558 70.5563H86.829V70.618H85.8704V70.5563H85.9502C86.0456 70.5563 86.1132 70.5275 86.1532 70.4698C86.1775 70.4343 86.1899 70.3533 86.1899 70.227V69.6926L85.5708 68.7473C85.4976 68.6364 85.448 68.5672 85.4218 68.5394C85.3958 68.5116 85.3416 68.4783 85.2597 68.4395C85.2375 68.4285 85.2052 68.4229 85.1631 68.4229V68.3612H86.1283V68.4229H86.0783C86.0262 68.4229 85.9782 68.4351 85.9345 68.4594C85.8907 68.4839 85.8687 68.5205 85.8687 68.5693C85.8687 68.6093 85.9025 68.6814 85.9702 68.7857L86.4411 69.513L86.8838 68.8172C86.9504 68.7131 86.9837 68.6353 86.9837 68.5841C86.9837 68.5532 86.9757 68.5254 86.9596 68.5011C86.9434 68.4767 86.9203 68.4575 86.8905 68.4437C86.8606 68.4299 86.8157 68.4229 86.7558 68.4229V68.3612Z" fill="#231916"/>
<path fill-rule="evenodd" clip-rule="evenodd" d="M89.5333 68.4312C89.3313 68.4312 89.1694 68.5061 89.0473 68.6558C88.8953 68.8422 88.8193 69.1151 88.8193 69.4746C88.8193 69.8431 88.8981 70.1264 89.0557 70.325C89.1766 70.476 89.3362 70.5515 89.535 70.5515C89.7469 70.5515 89.922 70.4686 90.06 70.3034C90.1982 70.1381 90.2672 69.8773 90.2672 69.5211C90.2672 69.135 90.1912 68.8473 90.0392 68.6576C89.9171 68.5066 89.7483 68.4312 89.5333 68.4312ZM89.5649 68.3097C89.8577 68.3097 90.1117 68.4208 90.3262 68.6434C90.5411 68.8658 90.6484 69.1434 90.6484 69.4762C90.6484 69.8191 90.5402 70.1037 90.3238 70.3299C90.1073 70.5563 89.8455 70.6695 89.5382 70.6695C89.2276 70.6695 88.9666 70.5591 88.7552 70.3383C88.544 70.1175 88.4381 69.8319 88.4381 69.4813C88.4381 69.123 88.5602 68.8305 88.8043 68.6041C89.0162 68.4077 89.2697 68.3097 89.5649 68.3097Z" fill="#231916"/>
<path fill-rule="evenodd" clip-rule="evenodd" d="M91.4773 68.4844V69.3715H91.8883C91.9827 69.3715 92.0517 69.3507 92.0955 69.3091C92.1392 69.2674 92.1684 69.1851 92.1829 69.0619H92.2445V69.8259H92.1829C92.1817 69.7382 92.1705 69.6739 92.1488 69.6327C92.1271 69.5918 92.0971 69.5609 92.0588 69.5404C92.0206 69.5198 91.9636 69.5095 91.8883 69.5095H91.4773V70.2186C91.4773 70.3328 91.4844 70.4083 91.4988 70.4448C91.5099 70.4726 91.5332 70.4965 91.5686 70.5165C91.6176 70.543 91.6686 70.5563 91.7219 70.5563H91.8034V70.618H90.8347V70.5563H90.9146C91.0079 70.5563 91.0755 70.5292 91.1177 70.4749C91.1445 70.4392 91.1578 70.3538 91.1578 70.2186V68.7606C91.1578 68.6465 91.1504 68.5709 91.1361 68.5343C91.1249 68.5066 91.1022 68.4826 91.0678 68.4627C91.0201 68.4362 90.9691 68.4227 90.9146 68.4227H90.8347V68.3612H92.5141L92.5359 68.8572H92.4776C92.4486 68.7517 92.4151 68.6744 92.3768 68.625C92.3385 68.5756 92.2912 68.5398 92.2353 68.5176C92.1794 68.4954 92.0924 68.4844 91.9748 68.4844H91.4773Z" fill="#231916"/>
<path fill-rule="evenodd" clip-rule="evenodd" d="M95.5794 68.3097L95.6309 69.077H95.5794C95.5105 68.8472 95.4124 68.682 95.2846 68.581C95.1571 68.48 95.0041 68.4295 94.8255 68.4295C94.6757 68.4295 94.5403 68.4674 94.4194 68.5434C94.2985 68.6194 94.2033 68.7407 94.1341 68.9072C94.0646 69.0735 94.03 69.2805 94.03 69.5279C94.03 69.7321 94.0626 69.9089 94.1282 70.0588C94.1935 70.2085 94.292 70.3233 94.4236 70.4033C94.5551 70.4831 94.705 70.5231 94.8738 70.5231C95.0202 70.5231 95.1494 70.4917 95.2616 70.4291C95.3734 70.3662 95.4966 70.2418 95.6309 70.0554L95.6826 70.0888C95.5692 70.2895 95.4373 70.4366 95.2864 70.5297C95.1356 70.6229 94.9564 70.6695 94.7489 70.6695C94.3748 70.6695 94.0854 70.531 93.8801 70.2535C93.7271 70.0471 93.6505 69.8042 93.6505 69.5245C93.6505 69.2994 93.701 69.0923 93.802 68.9037C93.9028 68.7152 94.0419 68.5689 94.2188 68.4653C94.3958 68.3616 94.5892 68.3097 94.7988 68.3097C94.962 68.3097 95.1229 68.3497 95.2815 68.4295C95.3282 68.4538 95.3613 68.4662 95.3813 68.4662C95.4113 68.4662 95.4373 68.4556 95.4595 68.4344C95.4883 68.4046 95.509 68.363 95.521 68.3097H95.5794Z" fill="#231916"/>
<path fill-rule="evenodd" clip-rule="evenodd" d="M96.5015 69.408H97.5499V68.7623C97.5499 68.647 97.5427 68.5709 97.5284 68.5344C97.5172 68.5066 97.494 68.4827 97.4585 68.4627C97.4107 68.4362 97.3602 68.4227 97.3069 68.4227H97.227V68.3612H98.1924V68.4227H98.1126C98.0593 68.4227 98.0088 68.4357 97.9609 68.4612C97.9255 68.479 97.9014 68.5057 97.8886 68.5419C97.8759 68.5779 97.8694 68.6514 97.8694 68.7623V70.2186C97.8694 70.3329 97.8767 70.4083 97.8911 70.4448C97.9023 70.4726 97.925 70.4964 97.9594 70.5165C98.0081 70.543 98.0593 70.5563 98.1126 70.5563H98.1924V70.618H97.227V70.5563H97.3069C97.3991 70.5563 97.466 70.5292 97.5085 70.4747C97.5361 70.4393 97.5499 70.3538 97.5499 70.2186V69.5312H96.5015V70.2186C96.5015 70.3329 96.5087 70.4083 96.5232 70.4448C96.5342 70.4726 96.5574 70.4964 96.5929 70.5165C96.6408 70.543 96.6912 70.5563 96.7445 70.5563H96.8259V70.618H95.859V70.5563H95.939C96.0321 70.5563 96.0999 70.5292 96.142 70.4747C96.1687 70.4393 96.182 70.3538 96.182 70.2186V68.7623C96.182 68.647 96.1748 68.5709 96.1603 68.5344C96.1492 68.5066 96.1266 68.4827 96.092 68.4627C96.0433 68.4362 95.9923 68.4227 95.939 68.4227H95.859V68.3612H96.8259V68.4227H96.7445C96.6912 68.4227 96.6408 68.4357 96.5929 68.4612C96.5587 68.479 96.5347 68.5057 96.5214 68.5419C96.5082 68.5779 96.5015 68.6514 96.5015 68.7623V69.408Z" fill="#231916"/>
<path fill-rule="evenodd" clip-rule="evenodd" d="M99.314 70.5564V70.618H98.3472V70.5564H98.4271C98.5202 70.5564 98.588 70.5293 98.6301 70.4748C98.6566 70.4393 98.6699 70.3539 98.6699 70.2185V68.7606C98.6699 68.6464 98.6627 68.5709 98.6482 68.5344C98.6372 68.5066 98.6145 68.4827 98.5801 68.4628C98.5314 68.4361 98.4803 68.4228 98.4271 68.4228H98.3472V68.3613H99.314V68.4228H99.2324C99.1404 68.4228 99.0733 68.45 99.0312 68.5044C99.0034 68.5398 98.9896 68.6252 98.9896 68.7606V70.2185C98.9896 70.3329 98.9968 70.4082 99.0113 70.4447C99.0223 70.4727 99.0455 70.4964 99.081 70.5163C99.1286 70.5431 99.1793 70.5564 99.2324 70.5564H99.314Z" fill="#231916"/>
<path fill-rule="evenodd" clip-rule="evenodd" d="M99.3524 68.3612H99.9647L101.344 70.0537V68.7524C101.344 68.6137 101.329 68.5272 101.298 68.4928C101.257 68.4461 101.192 68.4229 101.103 68.4229H101.025V68.3612H101.81V68.4229H101.731C101.635 68.4229 101.568 68.4517 101.527 68.5094C101.503 68.545 101.491 68.6259 101.491 68.7524V70.6546H101.431L99.9432 68.8373V70.227C99.9432 70.3657 99.9581 70.4522 99.9881 70.4864C100.03 70.533 100.095 70.5563 100.183 70.5563H100.263V70.618H99.4772V70.5563H99.5554C99.652 70.5563 99.72 70.5275 99.7602 70.4698C99.7846 70.4343 99.7967 70.3533 99.7967 70.227V68.6575C99.7312 68.581 99.6815 68.5305 99.6477 68.506C99.6139 68.4816 99.5643 68.459 99.4988 68.4377C99.4665 68.4278 99.4178 68.4229 99.3524 68.4229V68.3612Z" fill="#231916"/>
<path fill-rule="evenodd" clip-rule="evenodd" d="M102.571 68.4844V69.3764H103.067C103.196 69.3764 103.282 69.357 103.325 69.318C103.383 69.267 103.415 69.1774 103.421 69.0485H103.483V69.8341H103.421C103.406 69.7244 103.39 69.6538 103.375 69.6229C103.355 69.5839 103.322 69.5533 103.277 69.5312C103.231 69.509 103.161 69.498 103.067 69.498H102.571V70.2418C102.571 70.3418 102.575 70.4024 102.584 70.4242C102.593 70.4457 102.609 70.4628 102.631 70.4756C102.653 70.4885 102.695 70.4948 102.757 70.4948H103.14C103.268 70.4948 103.361 70.4859 103.418 70.4681C103.476 70.4504 103.531 70.4155 103.585 70.3632C103.653 70.2944 103.724 70.1908 103.796 70.0521H103.863L103.668 70.618H101.929V70.5563H102.009C102.062 70.5563 102.112 70.5435 102.16 70.5182C102.196 70.5004 102.22 70.4738 102.232 70.4382C102.245 70.4026 102.252 70.3299 102.252 70.2203V68.7539C102.252 68.6109 102.237 68.5226 102.208 68.4893C102.168 68.4449 102.102 68.4227 102.009 68.4227H101.929V68.3612H103.668L103.693 68.8554H103.628C103.605 68.7368 103.579 68.6554 103.55 68.6109C103.522 68.5665 103.48 68.5326 103.425 68.5094C103.38 68.4928 103.302 68.4844 103.19 68.4844H102.571Z" fill="#231916"/>
<path fill-rule="evenodd" clip-rule="evenodd" d="M105.503 68.3097V69.0902H105.442C105.422 68.9403 105.386 68.8212 105.334 68.7325C105.283 68.6435 105.209 68.5731 105.114 68.5211C105.018 68.4688 104.92 68.4428 104.818 68.4428C104.702 68.4428 104.607 68.4781 104.531 68.5485C104.456 68.6191 104.418 68.6991 104.418 68.7889C104.418 68.8579 104.442 68.9204 104.49 68.977C104.558 69.0602 104.722 69.1713 104.981 69.31C105.191 69.423 105.335 69.5099 105.412 69.5703C105.49 69.6308 105.549 69.7022 105.591 69.7841C105.632 69.8662 105.653 69.9522 105.653 70.0422C105.653 70.213 105.587 70.3603 105.454 70.484C105.322 70.6077 105.151 70.6695 104.942 70.6695C104.877 70.6695 104.815 70.6644 104.758 70.6547C104.723 70.6491 104.652 70.6286 104.544 70.5939C104.436 70.5589 104.367 70.5413 104.338 70.5413C104.311 70.5413 104.289 70.5497 104.272 70.5664C104.256 70.583 104.245 70.6174 104.237 70.6695H104.175V69.8956H104.237C104.266 70.0577 104.304 70.1788 104.353 70.2593C104.402 70.3397 104.477 70.4066 104.577 70.4599C104.677 70.513 104.787 70.5399 104.908 70.5399C105.046 70.5399 105.156 70.5032 105.236 70.43C105.317 70.3566 105.357 70.2701 105.357 70.1702C105.357 70.1148 105.341 70.0588 105.311 70.0022C105.28 69.9456 105.233 69.893 105.169 69.8441C105.126 69.8109 105.007 69.7401 104.814 69.6318C104.621 69.5237 104.484 69.4375 104.402 69.3731C104.321 69.3088 104.259 69.2377 104.217 69.1601C104.175 69.0824 104.154 68.9971 104.154 68.9037C104.154 68.7419 104.216 68.6023 104.34 68.4853C104.464 68.3682 104.622 68.3097 104.814 68.3097C104.934 68.3097 105.061 68.339 105.195 68.3979C105.257 68.4255 105.301 68.4395 105.327 68.4395C105.356 68.4395 105.379 68.4308 105.398 68.4138C105.416 68.3965 105.431 68.3619 105.442 68.3097H105.503Z" fill="#231916"/>
<path fill-rule="evenodd" clip-rule="evenodd" d="M106.548 68.4844V69.3764H107.044C107.173 69.3764 107.259 69.357 107.302 69.318C107.36 69.267 107.392 69.1774 107.399 69.0485H107.46V69.8341H107.399C107.383 69.7244 107.368 69.6538 107.352 69.6229C107.332 69.5839 107.3 69.5533 107.254 69.5312C107.209 69.509 107.139 69.498 107.044 69.498H106.548V70.2418C106.548 70.3418 106.553 70.4024 106.562 70.4242C106.571 70.4457 106.586 70.4628 106.608 70.4756C106.63 70.4885 106.673 70.4948 106.735 70.4948H107.117C107.245 70.4948 107.338 70.4859 107.395 70.4681C107.453 70.4504 107.509 70.4155 107.562 70.3632C107.631 70.2944 107.701 70.1908 107.773 70.0521H107.84L107.645 70.618H105.906V70.5563H105.986C106.039 70.5563 106.09 70.5435 106.137 70.5182C106.173 70.5004 106.197 70.4738 106.21 70.4382C106.223 70.4026 106.229 70.3299 106.229 70.2203V68.7539C106.229 68.6109 106.214 68.5226 106.186 68.4893C106.145 68.4449 106.079 68.4227 105.986 68.4227H105.906V68.3612H107.645L107.67 68.8554H107.605C107.582 68.7368 107.556 68.6554 107.528 68.6109C107.499 68.5665 107.458 68.5326 107.402 68.5094C107.358 68.4928 107.28 68.4844 107.167 68.4844H106.548Z" fill="#231916"/>
<path fill-rule="evenodd" clip-rule="evenodd" d="M110.165 70.6179L109.293 68.7191V70.227C109.293 70.3657 109.308 70.4521 109.338 70.4864C109.379 70.533 109.444 70.5563 109.532 70.5563H109.612V70.6179H108.827V70.5563H108.907C109.002 70.5563 109.07 70.5274 109.11 70.4698C109.134 70.4343 109.146 70.3533 109.146 70.227V68.7523C109.146 68.6524 109.135 68.5804 109.113 68.5361C109.097 68.5037 109.069 68.4768 109.027 68.4552C108.986 68.4337 108.919 68.4229 108.827 68.4229V68.3612H109.466L110.285 70.1269L111.09 68.3612H111.729V68.4229H111.651C111.554 68.4229 111.486 68.4517 111.446 68.5093C111.422 68.545 111.41 68.6259 111.41 68.7523V70.227C111.41 70.3657 111.425 70.4521 111.456 70.4864C111.497 70.533 111.562 70.5563 111.651 70.5563H111.729V70.6179H110.771V70.5563H110.851C110.947 70.5563 111.015 70.5274 111.054 70.4698C111.078 70.4343 111.09 70.3533 111.09 70.227V68.7191L110.22 70.6179H110.165Z" fill="#231916"/>
<path fill-rule="evenodd" clip-rule="evenodd" d="M112.513 68.4844V69.3764H113.009C113.138 69.3764 113.224 69.357 113.267 69.318C113.325 69.267 113.357 69.1774 113.364 69.0485H113.425V69.8341H113.364C113.348 69.7244 113.332 69.6538 113.317 69.6229C113.297 69.5839 113.264 69.5533 113.219 69.5312C113.173 69.509 113.103 69.498 113.009 69.498H112.513V70.2418C112.513 70.3418 112.517 70.4024 112.526 70.4242C112.535 70.4457 112.551 70.4628 112.573 70.4756C112.595 70.4885 112.637 70.4948 112.7 70.4948H113.082C113.21 70.4948 113.303 70.4859 113.36 70.4681C113.418 70.4504 113.473 70.4155 113.527 70.3632C113.595 70.2944 113.666 70.1908 113.738 70.0521H113.805L113.61 70.618H111.871V70.5563H111.951C112.004 70.5563 112.054 70.5435 112.102 70.5182C112.138 70.5004 112.162 70.4738 112.175 70.4382C112.187 70.4026 112.194 70.3299 112.194 70.2203V68.7539C112.194 68.6109 112.179 68.5226 112.15 68.4893C112.11 68.4449 112.044 68.4227 111.951 68.4227H111.871V68.3612H113.61L113.635 68.8554H113.57C113.547 68.7368 113.521 68.6554 113.492 68.6109C113.464 68.5665 113.422 68.5326 113.367 68.5094C113.322 68.4928 113.244 68.4844 113.132 68.4844H112.513Z" fill="#231916"/>
<path fill-rule="evenodd" clip-rule="evenodd" d="M114.585 70.4549C114.726 70.486 114.844 70.5015 114.939 70.5015C115.197 70.5015 115.41 70.411 115.58 70.2302C115.75 70.0494 115.835 69.8041 115.835 69.4945C115.835 69.1829 115.75 68.9371 115.58 68.7573C115.41 68.5776 115.192 68.4878 114.926 68.4878C114.826 68.4878 114.712 68.5038 114.585 68.5362V70.4549ZM113.941 70.618V70.5564H114.026C114.121 70.5564 114.189 70.5258 114.229 70.465C114.253 70.4283 114.265 70.3462 114.265 70.2185V68.7606C114.265 68.6198 114.25 68.5316 114.219 68.496C114.175 68.4472 114.111 68.4228 114.026 68.4228H113.941V68.3613H114.859C115.197 68.3613 115.453 68.3995 115.629 68.4761C115.805 68.5526 115.947 68.6803 116.053 68.8588C116.161 69.0375 116.214 69.2439 116.214 69.4779C116.214 69.7919 116.119 70.0543 115.928 70.2651C115.714 70.5004 115.388 70.618 114.949 70.618H113.941Z" fill="#231916"/>
<path fill-rule="evenodd" clip-rule="evenodd" d="M117.396 70.5564V70.618H116.429V70.5564H116.509C116.602 70.5564 116.67 70.5293 116.712 70.4748C116.738 70.4393 116.752 70.3539 116.752 70.2185V68.7606C116.752 68.6464 116.745 68.5709 116.73 68.5344C116.719 68.5066 116.696 68.4827 116.662 68.4628C116.613 68.4361 116.562 68.4228 116.509 68.4228H116.429V68.3613H117.396V68.4228H117.314C117.222 68.4228 117.155 68.45 117.113 68.5044C117.085 68.5398 117.071 68.6252 117.071 68.7606V70.2185C117.071 70.3329 117.079 70.4082 117.093 70.4447C117.104 70.4727 117.127 70.4964 117.163 70.5163C117.21 70.5431 117.261 70.5564 117.314 70.5564H117.396Z" fill="#231916"/>
<path fill-rule="evenodd" clip-rule="evenodd" d="M119.531 68.3097L119.583 69.077H119.531C119.462 68.8472 119.364 68.682 119.236 68.581C119.109 68.48 118.956 68.4295 118.777 68.4295C118.627 68.4295 118.492 68.4674 118.371 68.5434C118.25 68.6194 118.155 68.7407 118.086 68.9072C118.016 69.0735 117.982 69.2805 117.982 69.5279C117.982 69.7321 118.014 69.9089 118.08 70.0588C118.145 70.2085 118.244 70.3233 118.375 70.4033C118.507 70.4831 118.657 70.5231 118.826 70.5231C118.972 70.5231 119.101 70.4917 119.213 70.4291C119.325 70.3662 119.448 70.2418 119.583 70.0554L119.634 70.0888C119.521 70.2895 119.389 70.4366 119.238 70.5297C119.087 70.6229 118.908 70.6695 118.701 70.6695C118.327 70.6695 118.037 70.531 117.832 70.2535C117.679 70.0471 117.602 69.8042 117.602 69.5245C117.602 69.2994 117.653 69.0923 117.754 68.9037C117.855 68.7152 117.994 68.5689 118.171 68.4653C118.348 68.3616 118.541 68.3097 118.751 68.3097C118.914 68.3097 119.075 68.3497 119.233 68.4295C119.28 68.4538 119.313 68.4662 119.333 68.4662C119.363 68.4662 119.389 68.4556 119.411 68.4344C119.44 68.4046 119.461 68.363 119.473 68.3097H119.531Z" fill="#231916"/>
<path fill-rule="evenodd" clip-rule="evenodd" d="M120.804 70.5564V70.618H119.837V70.5564H119.917C120.01 70.5564 120.078 70.5293 120.12 70.4748C120.147 70.4393 120.16 70.3539 120.16 70.2185V68.7606C120.16 68.6464 120.153 68.5709 120.138 68.5344C120.127 68.5066 120.105 68.4827 120.07 68.4628C120.022 68.4361 119.971 68.4228 119.917 68.4228H119.837V68.3613H120.804V68.4228H120.723C120.631 68.4228 120.563 68.45 120.521 68.5044C120.494 68.5398 120.48 68.6252 120.48 68.7606V70.2185C120.48 70.3329 120.487 70.4082 120.501 70.4447C120.512 70.4727 120.536 70.4964 120.571 70.5163C120.619 70.5431 120.669 70.5564 120.723 70.5564H120.804Z" fill="#231916"/>
<path fill-rule="evenodd" clip-rule="evenodd" d="M120.843 68.3612H121.455L122.834 70.0537V68.7524C122.834 68.6137 122.819 68.5272 122.788 68.4928C122.747 68.4461 122.682 68.4229 122.593 68.4229H122.515V68.3612H123.301V68.4229H123.221C123.125 68.4229 123.058 68.4517 123.018 68.5094C122.993 68.545 122.981 68.6259 122.981 68.7524V70.6546H122.921L121.433 68.8373V70.227C121.433 70.3657 121.448 70.4522 121.478 70.4864C121.52 70.533 121.585 70.5563 121.673 70.5563H121.753V70.618H120.967V70.5563H121.046C121.142 70.5563 121.21 70.5275 121.25 70.4698C121.275 70.4343 121.287 70.3533 121.287 70.227V68.6575C121.221 68.581 121.172 68.5305 121.138 68.506C121.104 68.4816 121.054 68.459 120.989 68.4377C120.957 68.4278 120.908 68.4229 120.843 68.4229V68.3612Z" fill="#231916"/>
<path fill-rule="evenodd" clip-rule="evenodd" d="M124.061 68.4844V69.3764H124.557C124.686 69.3764 124.772 69.357 124.815 69.318C124.873 69.267 124.905 69.1774 124.912 69.0485H124.973V69.8341H124.912C124.896 69.7244 124.881 69.6538 124.865 69.6229C124.845 69.5839 124.812 69.5533 124.767 69.5312C124.721 69.509 124.652 69.498 124.557 69.498H124.061V70.2418C124.061 70.3418 124.066 70.4024 124.074 70.4242C124.083 70.4457 124.099 70.4628 124.121 70.4756C124.143 70.4885 124.185 70.4948 124.248 70.4948H124.63C124.758 70.4948 124.851 70.4859 124.908 70.4681C124.966 70.4504 125.021 70.4155 125.075 70.3632C125.143 70.2944 125.214 70.1908 125.286 70.0521H125.353L125.158 70.618H123.419V70.5563H123.499C123.552 70.5563 123.602 70.5435 123.65 70.5182C123.686 70.5004 123.71 70.4738 123.723 70.4382C123.735 70.4026 123.742 70.3299 123.742 70.2203V68.7539C123.742 68.6109 123.727 68.5226 123.699 68.4893C123.658 68.4449 123.592 68.4227 123.499 68.4227H123.419V68.3612H125.158L125.183 68.8554H125.118C125.095 68.7368 125.069 68.6554 125.041 68.6109C125.012 68.5665 124.97 68.5326 124.915 68.5094C124.871 68.4928 124.792 68.4844 124.68 68.4844H124.061Z" fill="#231916"/>
</g>
<defs>
<filter id="filter0_d_185_316" x="0" y="0" width="154" height="157" filterUnits="userSpaceOnUse" color-interpolation-filters="sRGB">
<feFlood flood-opacity="0" result="BackgroundImageFix"/>
<feColorMatrix in="SourceAlpha" type="matrix" values="0 0 0 0 0 0 0 0 0 0 0 0 0 0 0 0 0 0 127 0" result="hardAlpha"/>
<feOffset dy="16"/>
<feGaussianBlur stdDeviation="6.5"/>
<feColorMatrix type="matrix" values="0 0 0 0 0 0 0 0 0 0 0 0 0 0 0 0 0 0 0.03 0"/>
<feBlend mode="normal" in2="BackgroundImageFix" result="effect1_dropShadow_185_316"/>
<feBlend mode="normal" in="SourceGraphic" in2="effect1_dropShadow_185_316" result="shape"/>
</filter>
</defs>
</svg>
