<svg width="154" height="157" viewBox="0 0 154 157" fill="none" xmlns="http://www.w3.org/2000/svg">
<g filter="url(#filter0_d_185_281)">
<rect width="128" height="128" transform="translate(13)" fill="white"/>
<path fill-rule="evenodd" clip-rule="evenodd" d="M93.6484 65.8792C93.2749 65.8628 93.1669 65.7546 92.9566 65.6966C92.6706 65.6195 92.394 65.3658 92.3339 65.2347C92.3053 65.1723 92.3011 65.0974 92.3126 65.0485C92.6292 63.7432 93.3649 63.8025 94.502 63.4703C94.6788 63.4189 94.8425 63.4663 95.1777 63.4155C95.4601 63.3727 95.7486 63.4694 96.0487 63.4416C96.2806 63.4203 96.5088 63.3687 96.7322 63.2709C96.8839 63.2038 97.0081 63.0982 97.1044 62.9773C97.1802 62.882 97.2401 62.7608 97.2618 62.6359C97.2965 62.4369 97.3054 62.2259 97.2533 62.0307C97.1562 61.6695 96.8827 61.4105 96.7841 61.2763C96.7128 61.1792 96.6393 61.0741 96.6219 60.9636C96.5098 60.2559 97.1864 59.9808 97.3121 59.4665C97.3326 59.3832 97.147 59.5304 97.0723 59.5339C96.4347 59.5656 95.7222 59.7526 95.137 59.8541C94.8072 59.9116 94.3743 59.7961 94.2278 59.6571C93.8156 59.2653 93.9523 59.0176 94.1419 58.6947C94.4962 58.0939 94.9659 58.0439 95.6217 57.9234C95.8371 57.8843 96.0587 57.9796 96.2739 57.9512C96.4902 57.9234 96.6817 57.7782 96.9085 57.7598C97.1424 57.7413 97.5065 57.7329 97.8699 57.6917C98.0697 57.67 98.2779 57.6787 98.4715 57.7329C98.9916 57.8797 99.3313 57.8098 99.6408 58.5517C99.7498 58.8148 99.6146 59.3874 99.2062 59.4961C98.7348 59.6208 98.4202 59.524 98.0975 59.7552C97.9859 59.8355 97.8881 59.9766 97.9825 60.2007C98.2511 60.8296 98.768 61.6715 98.4915 62.5691C98.4429 62.7268 98.3598 62.8912 98.2579 63.0397C97.9296 63.5182 97.3718 63.821 96.8918 63.8693C96.3588 63.9221 95.8221 63.7448 95.3042 63.7767C95.1697 63.7853 95.074 63.9408 94.9385 63.9533C94.6563 63.9814 94.2776 63.9224 94.447 64.0371C94.7509 64.2439 94.96 64.1487 95.4541 64.274C96.0708 64.4304 96.7212 64.4265 97.3571 64.4215C97.8369 64.4185 98.0949 64.2613 98.6048 64.3395C99.3005 64.4463 99.9931 63.9738 100.7 64.3827C100.907 64.5034 100.775 65.0369 100.534 65.3283C99.9619 66.0221 98.599 65.8718 97.8781 65.8842C97.6217 65.8886 97.3888 65.9929 97.1498 65.9855C95.962 65.9456 94.7058 65.926 93.6484 65.8792Z" fill="#0068AB"/>
<path fill-rule="evenodd" clip-rule="evenodd" d="M70.385 68.5061C70.0277 68.3583 70.0372 67.9381 70.027 67.7388C69.988 66.9817 70.0447 66.3516 69.9743 65.7402C69.9644 65.6531 69.8641 65.6179 69.8503 65.6237C69.6004 65.7236 69.3304 65.7927 69.1082 65.9573C68.8615 66.1387 68.6181 66.4061 68.3823 66.6453C68.2065 66.8237 67.9927 66.9711 67.8421 67.1619C67.6668 67.3825 67.5244 67.6622 67.2864 67.7743C67.119 67.8532 66.9165 67.8674 66.7451 67.8391C66.4242 67.7873 66.4988 67.501 66.5425 67.3981C66.9025 66.5515 67.5671 65.9056 68.1923 65.2702C68.3721 65.0888 68.4974 64.8886 68.6863 64.7373C68.892 64.5712 69.3754 64.0301 69.3488 63.789C69.3428 63.7313 69.2735 63.6926 69.2711 63.6419C69.2558 63.1266 69.4607 63.2217 69.7027 62.8491C69.8789 62.577 69.8331 62.4699 69.7318 62.3021C69.4179 61.781 69.7378 61.2758 69.8825 60.9206C69.9131 60.8459 69.9059 60.762 69.8663 60.7108C69.8261 60.6575 69.7398 60.6591 69.6959 60.6735C69.2884 60.8089 68.5606 60.9078 68.4283 61.3466C68.4058 61.4229 68.4095 61.5091 68.429 61.6042C68.4884 61.8854 68.8639 62.7645 68.558 63.1876C68.5046 63.26 68.4407 63.3336 68.3571 63.3584C68.1796 63.4111 67.9668 63.482 67.7999 63.3908C67.6117 63.2877 67.5591 63.0237 67.4264 62.8489C67.3712 62.7766 67.2964 62.7473 67.2714 62.6837C67.1068 62.2533 67.0035 61.9352 66.9585 61.6279C66.9401 61.4988 66.9787 61.3634 66.9427 61.2561C66.8198 60.9 66.9047 59.915 66.9528 59.5972C66.9668 59.5054 67.0654 59.4508 67.0914 59.3758C67.2508 58.9207 67.5144 58.6786 67.4748 58.2591C67.4634 58.1331 67.3138 58.0749 67.2735 57.9794C67.0002 57.3374 67.3573 57.0629 67.827 56.7706C68.1791 56.5525 68.4925 56.6647 68.9723 56.6584C69.2681 56.6543 69.5702 56.6918 69.8546 56.6188C69.9412 56.5968 69.9956 56.4802 70.0237 56.382C70.1053 56.1035 70.1528 56.0398 70.1775 55.8553C70.2464 55.3297 70.3685 55.0438 70.872 55.1492C71.023 55.1804 71.1563 55.3419 71.229 55.4979C71.4596 55.9946 71.2829 55.9792 71.9275 56.1455C71.992 56.162 72.1499 56.2122 72.3301 56.1574C72.5063 56.1037 72.7076 56.1169 72.9026 56.1735C73.0314 56.2106 73.1621 56.3089 73.2594 56.4253C73.4167 56.6134 73.7228 57.0505 73.3398 57.3781C73.1174 57.5676 72.873 57.7466 72.5985 57.8402C72.3344 57.9302 72.1933 57.9401 72.0408 57.9858C71.8933 58.0303 71.7158 57.952 71.5769 58.0214C71.3008 58.1568 71.1453 58.4056 71.3777 58.7884C71.4116 58.8437 71.5073 58.8217 71.5791 58.794C71.9777 58.6395 73.0203 58.5495 73.514 58.8008C73.8306 58.9608 73.9994 59.0535 74.1975 59.5131C74.2972 59.7431 74.3981 59.9936 74.3854 60.2425C74.3676 60.6091 74.2581 60.976 74.1406 61.331C74.072 61.5404 73.9422 61.737 73.8338 61.9342C73.68 62.2137 73.4129 62.4783 73.2005 62.6736C72.8964 62.9533 72.5783 63.2621 72.1967 63.4023C71.5784 63.6297 71.2066 63.7659 71.7655 64.341C72.0959 64.6799 72.7331 65.0236 73.3939 65.1921C73.5905 65.2421 73.8037 65.1582 74.0133 65.2262C74.4147 65.3546 74.9842 65.3452 74.8512 66.1034C74.8125 66.3306 74.7736 66.4101 74.559 66.5625C74.3948 66.6784 74.2085 66.7869 74.0177 66.8211C73.1763 66.9695 72.2183 66.5679 71.6783 66.1584C71.3738 65.9272 71.2092 65.7324 71.1047 65.852C70.8913 66.0976 71.1585 66.6779 71.1087 67.1895C71.0672 67.6197 71.187 68.252 70.617 68.4964C70.546 68.5267 70.4589 68.5368 70.385 68.5061ZM71.4048 62.4941C71.2334 62.3125 71.5886 61.936 71.7585 61.9404C71.8809 61.4285 71.7719 61.1354 71.4769 60.8853C71.3839 60.8183 71.3061 60.7674 71.2288 60.7174C70.9942 60.0822 72.1867 60.0673 72.5423 60.0295C72.9451 60.0406 73.177 60.0631 73.1791 60.6757C73.103 61.0277 73.0272 61.396 72.9501 61.7647C72.7493 61.9202 72.5639 62.092 72.3791 62.2639C71.9922 62.3819 71.6668 62.3084 71.4048 62.4941ZM69.351 59.1981C69.1966 59.1452 69.0567 59.1089 68.9172 59.0729C68.9162 58.7025 69.3338 58.6339 69.5808 58.4797C69.6739 58.4667 69.7668 58.4685 69.8756 58.4721C69.9686 58.6843 70.0156 59.0073 69.7378 59.193C69.5992 59.1888 69.4749 59.1852 69.351 59.1981Z" fill="#0068AB"/>
<path fill-rule="evenodd" clip-rule="evenodd" d="M58.0278 68.9448C57.6122 68.8623 57.4432 68.6914 57.4082 68.4838C57.3297 68.0161 57.4715 67.5194 57.2906 67.098C57.0897 66.6317 56.8024 66.778 56.4641 66.8427C56.2605 66.8824 56.0451 66.8495 55.8599 66.8084C55.3962 66.7052 55.2579 66.4902 55.4178 66.1761C55.7008 65.6169 55.966 65.6325 56.6022 65.4868C56.6848 65.4678 56.7766 65.469 56.8492 65.4056C56.9131 65.3496 56.9549 65.2521 56.9581 65.1602C56.9708 64.8127 56.6483 65.0032 56.599 65.0121C56.3653 65.055 56.1173 65.0313 55.8938 65.112C54.8923 65.4707 53.9003 65.6324 52.9058 65.6003C52.8135 65.5976 52.7586 65.4681 52.7472 65.3901C52.6608 64.7959 52.653 64.4086 53.1939 64.1382C53.7116 63.879 54.5288 63.9926 55.2537 63.9394C55.2537 63.9394 55.2713 63.9842 55.2875 63.9684C55.4933 63.7632 56.3051 63.8637 56.7049 63.6587C56.8154 63.6019 56.969 63.5368 57.004 63.4144C57.1059 63.0627 57.2311 62.2742 57.0732 61.985C57.0396 61.9226 56.9414 61.905 56.8781 61.9197C56.625 61.9768 56.4295 62.1435 56.3179 62.2619C56.087 62.5051 56.0935 63.1039 55.7778 63.3145C55.3786 63.5806 54.7909 63.5269 54.513 63.344C54.2887 63.1975 53.9148 63.1952 53.7854 63.1289C53.4451 62.955 53.4021 62.7671 53.4463 62.616C53.6081 62.0593 53.8183 61.9982 54.4029 61.8484C54.6016 61.7972 54.8185 61.7335 54.9538 61.5864C55.0925 61.4344 55.129 61.2074 55.1496 61.0173C55.168 60.8438 55.1572 60.646 55.0653 60.5171C54.9476 60.3531 54.6683 60.3462 54.5815 60.1886C54.1991 59.4872 54.8019 59.2685 55.4559 59.1586C55.4908 59.1525 55.5414 59.1233 55.5302 59.0895C55.4503 58.8478 55.2522 58.6749 55.1516 58.6745C54.488 58.6665 54.0638 58.9204 53.8474 58.3739C53.6141 57.787 54.0004 57.4646 54.435 57.1111C54.6493 56.9375 54.9842 56.8787 55.0972 56.635C55.3322 56.1269 55.2551 55.817 55.7666 55.6206C56.2672 55.4285 56.4058 55.4898 56.6461 56.1736C56.73 56.412 56.3789 56.6624 56.5545 57.0825C56.7001 57.4327 56.5858 58.0669 56.5045 58.5429C56.4957 58.5871 56.4415 58.6094 56.4316 58.6433C56.4042 58.7391 56.3013 58.8933 56.3892 58.9311C56.6843 59.0602 57.3748 59.0884 57.6444 58.7758C57.8822 58.5006 57.702 58.0039 57.8115 57.8143C57.9452 57.5812 58.373 57.0663 58.4836 56.8296C58.707 56.3491 59.0135 55.8033 59.2285 55.3335C59.3164 55.1409 59.4299 54.9172 59.6347 54.8288C59.9102 54.7109 60.1082 54.6063 60.3745 54.9808C60.5479 55.2254 60.4023 55.5891 60.5046 55.8898C60.588 56.1371 61.0722 56.1578 61.0125 56.7706C60.9438 57.4661 60.0591 57.4973 59.5747 57.6682C59.1453 57.8189 58.8536 58.2382 58.5235 58.4583C58.5055 58.4699 58.4678 58.5294 58.4978 58.5388C58.6205 58.5744 58.7523 58.591 58.8978 58.5881C59.3238 58.5814 59.7883 58.433 60.305 58.5645C60.4792 58.6088 60.5452 58.6786 60.4922 58.9625C60.4233 59.3323 59.478 59.7521 59.1453 59.806C58.7553 59.8688 58.5425 59.7668 58.3309 60.1344C58.2594 60.2575 58.2542 60.3938 58.5026 60.5334C58.6952 60.6427 58.9669 60.6571 59.1695 60.5634C59.4964 60.4136 59.6216 59.9116 60.0113 59.7424C60.2579 59.635 60.7444 59.7053 60.9766 60.1621C61.0908 60.387 61.3604 60.5814 61.3262 61.039C61.3112 61.2356 61.1388 61.3924 61.0973 61.5942C61.0686 61.7337 61.1514 61.8897 61.0973 62.0213C61.0211 62.2068 60.5511 62.571 60.533 62.7439C60.5298 62.775 60.4759 62.7342 60.4699 62.7485C60.4453 62.809 60.4187 62.8781 60.4363 62.9408C60.4459 62.9744 60.5162 62.9814 60.566 62.978C61.2127 62.946 61.8591 62.7922 62.52 62.8509C62.8504 62.8805 63.1938 63.5931 62.7732 63.9252C62.4861 64.15 62.1254 63.9848 61.9104 64.0357C61.7302 64.078 61.6103 64.2553 61.4386 64.2915C61.1445 64.3552 60.8352 64.284 60.5542 64.3252C60.3943 64.3492 60.2546 64.463 60.1068 64.4853C59.6064 64.5588 59.2764 64.4907 58.9925 64.8363C58.9619 64.8727 58.9441 64.9923 59.0052 65.0092C59.3611 65.105 59.7839 64.9 60.3022 64.9932C60.4237 65.0143 61.1169 65.4317 60.8207 65.7937C60.5817 66.0856 60.1295 66.2941 59.8171 66.359C59.2913 66.4684 58.9264 66.3825 58.7689 66.7526C58.6642 66.9995 58.6228 67.3895 58.5405 67.7356C58.465 68.0521 58.4921 68.3991 58.2838 68.7674C58.2316 68.8596 58.1273 68.9645 58.0278 68.9448ZM58.857 62.9937C58.4608 62.7696 58.6299 62.4875 58.6113 62.2351C58.7557 61.8291 58.6952 61.8651 59.1671 61.831C59.2642 61.8547 59.3626 61.8955 59.4602 61.9359C59.6485 62.3337 59.405 62.6998 59.1046 62.9119C59.0108 62.9352 58.9333 62.9556 58.857 62.9937ZM56.4915 61.3938C56.0066 61.2714 55.9788 61.0989 56.0032 60.7808C56.1548 60.6903 56.3412 60.6448 56.5883 60.5641C56.9392 60.3794 57.0408 60.2449 57.1435 60.792C57.1356 60.9031 57.1445 61.0132 57.1525 61.1234C57.0782 61.1926 57.02 61.2601 56.9617 61.3277C56.8036 61.3393 56.6476 61.3667 56.4915 61.3938Z" fill="#0068AB"/>
<path fill-rule="evenodd" clip-rule="evenodd" d="M113.531 67.1547C113.338 67.1484 113.122 67.1955 112.971 67.1042C112.421 66.7734 111.943 66.6546 111.595 66.4666C111.152 66.2273 110.621 65.8319 110.452 65.5631C110.235 65.2168 110.022 65.2227 109.871 65.1592C109.808 65.133 109.749 65.0692 109.748 65.0109C109.742 64.2409 109.682 63.9982 110.397 63.7799C110.506 63.7472 110.661 63.7603 110.764 63.8395C111.069 64.0746 111.648 64.592 112.125 64.9423C112.762 65.4109 113.732 65.5068 114.666 65.762C114.863 65.8157 115.088 65.8395 115.253 65.9891C115.337 66.0663 115.309 66.2287 115.306 66.3605C115.303 66.4181 115.269 66.4878 115.204 66.5174C114.96 66.6303 114.673 66.6315 114.426 66.7496C114.229 66.8441 114.093 67.0427 113.885 67.1335C113.767 67.1848 113.645 67.1584 113.531 67.1547ZM103.884 66.7173C103.275 66.4513 104.068 65.9418 104.271 65.6383C104.326 65.5573 104.272 65.4421 104.327 65.3829C104.729 64.9507 105.475 64.6808 105.889 64.2285C105.995 64.1128 106.06 64.0367 106.188 63.9338C106.673 63.5414 107.153 63.0125 107.47 62.4666C107.528 62.3654 107.521 62.1722 107.417 62.1277C107.166 62.0201 106.86 62.1772 106.615 62.1019C106.485 62.0621 106.441 62.0095 106.412 61.935C106.287 61.6158 106.199 61.403 106.197 61.1418C106.188 60.2113 107.383 60.4823 108.114 60.3847C108.294 60.3606 108.367 60.3402 108.458 60.1706C108.642 59.8325 108.704 59.6124 108.823 59.3159C108.895 59.1356 109.055 58.9898 109.111 58.8114C109.219 58.4721 109.28 58.2431 109.411 58.0024C109.555 57.7363 109.744 57.4977 109.915 57.2647C109.93 57.2465 109.992 57.2828 109.997 57.2506C110.037 56.9651 110.477 56.9019 110.669 56.7752C110.878 56.6372 111.027 56.4362 111.32 56.523C111.712 56.6392 111.789 57.1311 111.75 57.6122C111.734 57.8142 111.662 58.0224 111.57 58.2162C111.486 58.3928 111.375 58.5473 111.249 58.7039C110.922 59.1119 110.492 59.3197 110.361 59.8785C110.307 60.1088 110.818 60.0875 111.144 60.0004C111.377 59.9378 111.595 59.7832 111.857 59.7982C112.246 59.8206 112.746 60.2743 112.53 60.8306C112.414 61.1272 112.26 61.128 112.038 61.1524C111.126 61.2527 110.224 61.304 109.623 61.8932C109.464 62.0501 109.513 62.3272 109.394 62.5282C109.237 62.7925 109.005 62.9729 108.826 63.2157C108.597 63.5272 108.319 63.8167 108.028 64.0889C107.622 64.4693 107.264 64.8722 106.822 65.1582C106.671 65.2553 106.449 65.2511 106.35 65.3836C106.05 65.7861 105.224 66.1331 104.724 66.5352C104.493 66.7204 104.144 66.8309 103.884 66.7173Z" fill="#0068AB"/>
<path fill-rule="evenodd" clip-rule="evenodd" d="M86.3469 67.1554C86.1737 67.1687 85.9994 67.1148 85.8562 67.0599C85.7014 67.0016 85.5621 66.9165 85.4705 66.8069C85.1152 66.3775 85.2971 66.0689 85.3455 65.6177C85.3873 65.2373 85.1073 65.1606 84.9563 65.0989C84.9345 65.09 84.9508 65.0566 84.9359 65.0501C84.2715 64.7722 84.036 64.3848 84.183 63.926C84.4685 63.0364 85.1831 63.1846 86.0866 62.93C86.2514 62.8839 86.4276 62.8069 86.5501 62.6778C86.6073 62.6178 86.6127 62.4703 86.5491 62.4445C86.1449 62.2807 85.9207 62.4757 85.6582 62.3303C85.3637 62.1686 85.464 61.7317 85.2847 61.5936C85.1898 61.5207 85.1363 61.8228 85.0219 61.8469C84.4852 61.9601 84.2666 61.3758 84.1334 61.1338C83.9924 60.8749 83.8942 60.5928 83.8204 60.3084C83.7032 59.8562 83.6264 59.3921 83.5815 58.9449C83.5534 58.6631 83.5678 58.3927 83.6018 58.1279C83.6197 57.987 83.7302 57.8841 83.7389 57.7501C83.8079 56.7185 84.0414 56.6744 85.1251 56.7283C85.2296 56.7325 85.3266 56.7998 85.447 56.803C85.6628 56.8074 86.2444 56.743 86.5929 56.7645C86.9933 56.7887 87.3919 56.5445 87.8086 56.5535C88.0765 56.5593 88.5193 56.3943 88.9324 56.6668C89.0633 56.7525 89.2417 56.7659 89.3654 56.8828C89.5926 57.0983 89.6535 57.6999 89.5172 58.2038C89.4392 58.4919 89.602 58.8781 89.5188 59.3013C89.4805 59.4971 89.5527 59.7391 89.4393 59.9908C89.3962 60.086 89.4382 60.2092 89.3808 60.3113C89.1964 60.6402 89.0046 60.8078 88.8286 61.1369C88.758 61.2675 88.5379 61.2702 88.4493 61.3984C88.0976 61.9117 87.752 61.5672 87.7558 62.3347C87.7564 62.4859 87.7488 62.6823 87.8589 62.8102C88.0219 62.998 88.3817 62.9145 88.5352 63.3738C88.6241 63.6413 88.546 64.1173 88.4519 64.4453C88.3488 64.8018 87.803 64.815 88.2331 65.2781C88.3844 65.4412 88.5262 65.4799 88.4783 65.8752C88.4618 66.0153 88.3798 66.1219 88.2665 66.3576C88.2141 66.4657 88.1272 66.5628 88.0197 66.6099C87.6465 66.7718 87.3006 66.8628 87.1143 66.9627C86.8786 67.0894 86.6005 67.1361 86.3469 67.1554ZM81.0814 66.014C80.8832 65.986 80.8752 66.0031 80.729 65.9748C79.8894 65.8116 79.5031 65.3254 79.6576 64.6088C79.7123 64.3556 79.8464 64.0272 79.9299 63.8221C80.0049 63.6371 80.2018 63.5227 80.2926 63.3445C80.323 63.2851 80.3017 63.2238 80.2798 63.1792C80.2592 63.1366 80.2093 63.1171 80.1747 63.1039C79.9865 63.0343 79.7539 63.0555 79.6282 62.9296C79.4072 62.7095 79.4197 62.5686 79.3595 62.4684C78.9379 61.767 78.893 61.5447 79.1185 60.8547C79.2596 60.4214 79.6806 60.452 80.0322 60.1849C80.4057 59.9011 81.0091 60.0436 81.2572 59.6742C81.304 59.6048 81.279 59.5221 81.2577 59.4574C81.2309 59.3791 81.1873 59.2892 81.1276 59.2838C80.8632 59.2609 80.6001 59.4216 80.3355 59.3791C80.1072 59.3419 79.878 59.3113 79.674 59.2132C79.0927 58.9349 79.0478 58.7724 79.0896 58.3257C79.1395 57.7879 79.2288 57.8294 79.709 57.7285C80.7645 57.5078 81.8741 57.4535 82.9689 57.4776C83.1112 57.4804 83.1504 57.637 83.2376 57.9391C83.2882 58.1149 83.3604 58.4993 83.1458 58.6955C82.6251 59.1725 82.6883 58.9815 82.7854 59.8392C82.795 59.9279 82.9534 60.0739 82.9776 60.3906C83.0071 60.772 83.0865 61.1642 83.0008 61.5536C82.9558 61.7596 82.9038 61.9488 82.7478 62.1557C82.5474 62.4208 82.2401 62.5684 82.0325 62.8106C81.931 62.9296 81.7798 63.1612 81.6529 63.2896C81.5459 63.3988 81.45 63.5189 81.4153 63.6575C81.346 63.9355 81.1225 64.6623 81.7876 64.378C82.0144 64.2805 82.0892 63.9873 82.2417 63.7934C82.2559 63.775 82.3199 63.803 82.3232 63.7706C82.3423 63.5884 82.5314 63.3486 82.7114 63.408C82.7468 63.4186 82.7856 63.4557 82.8018 63.4999C82.8303 63.5788 82.8781 63.6871 82.8405 63.7808C82.7288 64.0541 82.6984 64.551 82.5742 64.8661C82.4405 65.2063 81.8154 65.4863 81.5767 65.7426C81.4345 65.8953 81.1973 66.0307 81.0814 66.014ZM85.8702 64.8621C85.393 64.7938 84.9723 64.6668 85.1263 64.2859C85.2999 63.8584 85.5716 63.9873 86.0277 63.8838C86.1297 63.8599 86.4136 63.6057 86.6523 63.7858C86.7236 63.8393 86.7813 63.9472 86.7903 64.0584C86.8015 64.1989 86.8342 64.4112 86.7072 64.4975C86.4132 64.6949 86.1861 64.907 85.8702 64.8621ZM80.6398 62.2353C80.1931 62.1201 80.0913 61.9112 80.2892 61.5799C80.4952 61.238 80.6832 61.2004 81.099 61.0683C81.2407 61.0232 81.3202 60.8052 81.6003 60.8791C81.6686 60.8971 81.7617 61.1716 81.658 61.4078C81.5442 61.6661 81.4069 61.9226 81.1951 62.0931C81.0372 62.2188 80.819 62.2822 80.6398 62.2353ZM85.3899 61.2358C85.33 61.2404 85.269 61.1957 85.2516 61.1632C85.071 60.837 84.8876 60.5079 84.8084 60.1655C84.7107 59.7447 84.6911 59.3055 84.7097 58.8906C84.7161 58.7429 84.7643 58.5635 84.8785 58.4952C85.2028 58.3003 85.7191 58.0854 86.2523 58.1729C86.4129 58.1988 86.4415 58.3789 86.4136 58.5429C86.4042 58.6022 86.3382 58.655 86.2752 58.6868C85.7882 58.9334 85.2736 58.998 85.3467 59.591C85.3633 59.7267 85.5046 60.2993 85.9813 60.058C86.0552 60.0204 86.1735 60.0084 86.2647 60.0532C86.5621 60.1994 86.2156 60.6612 86.0565 60.8016C85.8939 60.9444 85.6656 61.0037 85.4818 61.1293C85.4429 61.1551 85.437 61.2324 85.3899 61.2358ZM87.6579 60.6448C87.5633 60.6622 87.5176 60.6279 87.5009 60.5396C87.4327 60.1812 87.4603 59.809 87.3995 59.4492C87.3375 59.0829 86.8431 58.1023 87.0027 57.9811C87.3214 57.7405 88.106 57.6092 88.4874 58.0162C88.6577 58.1985 88.6657 58.518 88.5947 58.7573C88.521 59.0044 88.5837 59.4161 88.525 59.7948C88.4927 60.0003 88.4571 60.2264 88.3038 60.3785C88.1316 60.5476 87.8855 60.6013 87.6579 60.6448Z" fill="#0068AB"/>
<path fill-rule="evenodd" clip-rule="evenodd" d="M121.688 68.2878C121.037 68.1283 121.2 67.5905 121.191 67.2507C121.359 66.874 121.608 67.1095 122.044 67.0979C122.203 67.0131 122.362 66.9274 122.521 66.8427C122.644 66.6133 122.784 66.3825 122.923 66.1684C122.947 65.8611 122.96 65.7476 123.069 65.5988C123.11 65.3392 123.102 65.0168 123.032 64.8405C122.608 64.6903 122.176 64.8475 121.887 64.9522C121.242 64.9699 120.792 65.0953 120.261 65.1752C119.806 65.0745 119.856 64.5399 119.851 64.3454C120.149 64.0303 120.223 63.8342 120.842 63.9793C121.392 63.9638 122.051 63.849 122.68 63.7994C122.837 63.6337 122.734 63.3939 122.699 63.3293C122.678 63.1526 122.658 62.9914 122.653 62.8295C122.444 62.8353 122.233 62.8416 122.023 62.8637C121.644 63.1806 121.115 62.7269 120.999 62.6174C120.632 61.6087 121.541 61.7614 122.3 61.7081C122.572 61.6522 122.891 61.4811 123.245 61.4071C123.424 61.4833 123.604 61.5587 123.8 61.6346C124.085 61.9983 124.225 62.3832 123.899 62.8763C123.907 63.1676 123.834 63.4118 124.245 63.6753C124.471 63.6689 124.713 63.6623 124.956 63.6715C125.007 63.751 125.057 63.8309 125.124 63.91C125.138 64.4261 124.401 64.6732 124.119 64.9718C124.091 65.1344 124.063 65.2966 124.035 65.4757C123.889 66.0291 123.486 66.6387 123.325 67.2573C122.994 67.5728 122.679 67.8892 122.365 68.2049C122.108 68.2764 121.865 68.2663 121.688 68.2878ZM117.632 63.0169C117.158 62.8515 117.025 62.6939 117.015 62.3544C117.041 62.1274 117.068 61.9167 117.11 61.7049C117.163 61.2833 117.215 60.797 117.582 60.6417C117.64 60.365 118.056 60.2403 118.379 60.1989C118.425 60.1167 118.487 60.0507 118.55 59.985C118.542 59.6612 118.472 59.4689 118.42 59.3896C118.398 59.1642 118.376 58.9385 118.37 58.7285C118.427 58.4356 118.5 58.1432 118.573 57.8658C118.585 57.7207 118.613 57.574 118.642 57.4278C118.622 56.7333 118.801 56.7929 118.982 56.2705C119.029 56.2212 119.687 56.0893 119.901 56.2289C119.923 56.4388 119.962 56.6472 119.999 56.8574C119.893 57.0864 119.802 57.3319 119.713 57.5764C119.73 57.6235 119.748 57.6721 119.765 57.7363C120.016 57.4705 120.171 57.1919 120.404 56.8941C120.539 56.4705 120.624 56.031 120.974 55.8442C121.281 55.8348 121.456 55.7505 121.647 56.214C121.602 56.3602 121.574 56.5061 121.546 56.6528C121.388 56.819 121.334 57.16 121.161 57.3425C121.088 57.6356 120.93 57.7686 121.214 58.1168C121.308 58.0017 121.402 57.8857 121.513 57.7856C121.576 57.7509 121.639 57.7169 121.704 57.6991C121.707 57.8124 121.71 57.9257 121.729 58.0536C121.606 58.252 121.498 58.4643 121.391 58.6771C121.364 58.8561 121.243 59.183 121.088 59.3972C121.078 59.623 121.068 59.8502 121.058 60.0771C121.096 60.2703 121.374 60.3919 121.626 60.1259C121.683 59.8659 121.66 59.6238 121.654 59.4462C121.84 59.1015 122.024 58.7577 122.224 58.4124C122.281 58.1039 122.226 57.8788 122.207 57.75C122.09 57.6242 121.989 57.4978 121.889 57.3709C121.804 56.6462 121.813 56.3707 122.185 55.8104C122.47 55.5926 122.704 55.2792 123.241 55.4098C123.324 55.5206 123.363 55.7295 123.469 56.034C123.377 56.2312 123.285 56.4268 123.21 56.6234C123.148 56.7375 122.93 56.9866 123.13 57.24C123.193 57.2054 123.258 57.1877 123.322 57.1701C123.475 56.8586 123.567 56.6937 123.789 56.5106C124.052 56.0993 124.485 55.9733 125.049 55.9102C125.114 55.9075 125.292 55.9355 125.408 56.045C125.494 56.2209 125.596 56.3962 125.698 56.5864C125.74 56.9423 125.798 57.2956 125.857 57.6498C125.877 57.8106 126.048 58.1459 125.878 58.4248C125.85 58.6036 125.824 58.7986 125.797 58.9934C125.658 59.2392 125.473 59.5191 125.3 59.7021C125.309 60.0407 125.759 59.9966 126.131 59.9862C126.597 59.8763 126.692 59.7926 126.982 60.3508C126.987 60.544 127.055 61.2221 126.883 61.4687C126.804 61.4871 126.739 61.5212 126.675 61.5558C126.32 61.5652 126.154 61.4078 126.071 61.3294C126.052 61.2165 126.033 61.1039 126.013 60.9912C125.819 60.9807 125.641 60.9696 125.463 60.9745C125.301 60.9464 125.139 60.9189 124.976 60.9069C123.871 61.2601 122.656 61.1488 121.653 61.1602C121.138 61.2068 120.622 61.2532 120.122 61.2987C119.079 61.5868 118.905 61.7041 118.446 62.6543C118.144 62.8727 117.937 62.943 117.632 63.0169ZM119.655 60.1638C119.555 60.0695 119.597 59.8427 119.597 59.8263C119.627 59.7776 119.675 59.7273 119.722 59.6773C119.796 59.433 119.755 59.1427 119.782 58.9157C119.827 58.8174 119.889 58.7185 119.951 58.6208C120.088 58.8751 120.093 59.0531 119.99 59.4282C119.979 59.6377 119.969 59.8487 119.975 60.0739C119.863 60.0939 119.751 60.1288 119.655 60.1638ZM122.557 59.9219C122.491 59.8763 122.425 59.8296 122.359 59.7828C122.352 59.4921 122.36 59.2006 122.369 58.925C122.415 58.844 122.46 58.7622 122.506 58.6793C122.572 58.6778 122.635 58.6757 122.718 58.6895C122.802 58.8493 122.904 59.0074 123.005 59.1832C122.947 59.3948 122.888 59.6068 122.83 59.8346C122.733 59.8531 122.637 59.8885 122.557 59.9219ZM123.476 59.8325C123.427 59.8022 123.394 59.7702 123.361 59.7552C123.409 59.7537 123.438 59.6236 123.542 59.2814C123.523 58.5869 123.268 58.1407 123.576 57.5834C123.671 57.5161 123.782 57.4479 123.894 57.3971C124.094 57.036 124.383 56.9465 124.838 57.0474C124.987 57.1885 125.026 57.3976 125.034 57.7367C124.986 57.7386 124.938 57.756 124.907 57.7724C124.641 57.5213 124.676 57.6178 124.401 57.625C123.752 58.0951 123.876 57.9305 123.738 58.7908C123.731 59.0979 123.723 59.4217 123.716 59.7457C123.635 59.7636 123.555 59.7984 123.476 59.8325ZM124.798 59.1011C124.792 58.8745 124.785 58.6489 124.779 58.4226C124.843 58.4216 124.908 58.4192 124.973 58.4178C124.978 58.5954 124.983 58.7888 124.988 58.983C124.94 58.9845 124.892 59.0019 124.843 59.0193C124.828 59.0354 124.812 59.0689 124.798 59.1011Z" fill="#0068AB"/>
<path fill-rule="evenodd" clip-rule="evenodd" d="M52.6494 73.214V70.3179H53.8151V70.7363H53.0959V71.496H53.6141V71.9144H53.0959V72.7792H53.8151V73.214H52.6494ZM54.1199 73.214L54.5964 70.3179H55.1796L55.6541 73.214H55.1953L55.1058 72.5871H54.6546L54.5582 73.214H54.1199ZM54.7106 72.1762H55.0511L54.8993 70.9668H54.8712L54.7106 72.1762ZM55.9412 72.4791L56.3678 72.4148C56.376 72.5618 56.404 72.6705 56.4519 72.7402C56.4997 72.8106 56.5708 72.8455 56.6645 72.8455C56.7458 72.8455 56.8115 72.8196 56.8627 72.7683C56.9133 72.717 56.9386 72.6494 56.9386 72.5653C56.9386 72.4141 56.8183 72.2193 56.5784 71.98L56.5359 71.9383C56.3014 71.703 56.1504 71.5226 56.0833 71.3961C56.017 71.2703 55.9835 71.1363 55.9835 70.9947C55.9835 70.7903 56.0506 70.6181 56.1845 70.4786C56.3192 70.3392 56.4826 70.2694 56.6768 70.2694C56.8648 70.2694 57.0186 70.3337 57.139 70.4629C57.2592 70.5914 57.3283 70.7658 57.3454 70.9866L56.9085 71.0481C56.9004 70.9189 56.8778 70.8259 56.8395 70.7698C56.8012 70.7138 56.7431 70.6857 56.6645 70.6857C56.592 70.6857 56.5346 70.7104 56.4908 70.7589C56.4477 70.8074 56.4258 70.8731 56.4258 70.9545C56.4258 71.1227 56.566 71.3421 56.8463 71.6135L56.8723 71.6395C57.0781 71.8399 57.2128 72.0032 57.2771 72.1304C57.3413 72.2569 57.3735 72.3997 57.3735 72.557C57.3735 72.7683 57.3078 72.9413 57.1773 73.0773C57.046 73.2126 56.8805 73.2803 56.6802 73.2803C56.4587 73.2803 56.283 73.2092 56.1524 73.0678C56.0225 72.9262 55.952 72.7299 55.9412 72.4791ZM57.5983 70.7363V70.3179H58.9724V70.7363H58.5075V73.214H58.0611V70.7363H57.5983ZM59.9576 72.4709V70.9866C59.9576 70.7582 60.0199 70.5797 60.1437 70.4499C60.2681 70.3207 60.4398 70.2557 60.6592 70.2557C60.8657 70.2557 61.0298 70.3221 61.1507 70.4546C61.2718 70.5881 61.332 70.7692 61.332 70.9989V71.2772H60.8732V70.9585C60.8732 70.8587 60.8541 70.7835 60.8151 70.7337C60.7761 70.6837 60.7187 70.6584 60.6428 70.6584C60.5669 70.6584 60.5095 70.6837 60.4705 70.7337C60.4315 70.7835 60.4124 70.8587 60.4124 70.9585V72.5748C60.4124 72.6753 60.4315 72.7505 60.4705 72.8018C60.5095 72.8524 60.5669 72.8777 60.6428 72.8777C60.7187 72.8777 60.7761 72.8524 60.8151 72.8018C60.8541 72.7505 60.8732 72.6753 60.8732 72.5748V72.1804H61.332V72.4832C61.332 72.7368 61.2725 72.9323 61.1529 73.0698C61.0332 73.2072 60.863 73.2762 60.6428 73.2762C60.4172 73.2762 60.2462 73.2079 60.1306 73.0718C60.0151 72.9357 59.9576 72.7355 59.9576 72.4709ZM61.8807 70.3179H62.3232V71.5H62.7703V70.3179H63.2167V73.214H62.7703V71.9184H62.3232V73.214H61.8807V70.3179ZM63.8442 73.214V70.3179H64.2988V73.214H63.8442ZM64.914 73.214V70.3179H65.3147L65.8815 72.0483C65.8924 72.0818 65.9054 72.1256 65.9205 72.1804C65.9362 72.235 65.9518 72.2938 65.9676 72.3567C65.9532 72.2726 65.941 72.1947 65.9321 72.1236C65.9225 72.0517 65.9177 71.9998 65.9177 71.9663V70.3179H66.3361V73.214H65.9177L65.3728 71.6135C65.3701 71.6074 65.3667 71.5972 65.3625 71.5834C65.325 71.4741 65.2969 71.3797 65.2784 71.299C65.2941 71.4009 65.3065 71.485 65.3154 71.5526C65.3242 71.6203 65.3284 71.6689 65.3284 71.6997V73.214H64.914ZM66.7531 73.214L67.2296 70.3179H67.8128L68.2872 73.214H67.8285L67.7389 72.5871H67.2878L67.1913 73.214H66.7531ZM67.3438 72.1762H67.6843L67.5325 70.9668H67.5044L67.3438 72.1762ZM69.3429 70.3179H69.7996V72.5611C69.7996 72.6452 69.8215 72.7122 69.8645 72.7621C69.9083 72.812 69.9651 72.8373 70.0361 72.8373C70.1066 72.8373 70.162 72.8127 70.2023 72.7635C70.2426 72.7136 70.2624 72.6466 70.2624 72.5611V70.3179H70.7171V72.4832C70.7171 72.7382 70.6583 72.9337 70.54 73.0711C70.4218 73.2079 70.2522 73.2762 70.032 73.2762C69.8091 73.2762 69.6382 73.2072 69.52 73.0698C69.4017 72.9323 69.3429 72.7327 69.3429 72.4709V70.3179ZM71.3165 73.214V70.3179H71.7172L72.284 72.0483C72.2949 72.0818 72.3079 72.1256 72.323 72.1804C72.3387 72.235 72.3543 72.2938 72.3701 72.3567C72.3557 72.2726 72.3435 72.1947 72.3346 72.1236C72.325 72.0517 72.3202 71.9998 72.3202 71.9663V70.3179H72.7386V73.214H72.3202L71.7753 71.6135C71.7726 71.6074 71.7692 71.5972 71.765 71.5834C71.7275 71.4741 71.6994 71.3797 71.6809 71.299C71.6967 71.4009 71.709 71.485 71.7179 71.5526C71.7267 71.6203 71.7309 71.6689 71.7309 71.6997V73.214H71.3165ZM73.362 73.214V70.3179H73.8167V73.214H73.362ZM74.2418 70.3179H74.678L74.9447 72.0326C74.9618 72.142 74.9741 72.2453 74.9815 72.3416C74.9891 72.4388 74.9925 72.5364 74.9925 72.635V72.6876C74.9966 72.5604 75.0028 72.4414 75.0116 72.33C75.0205 72.2186 75.0308 72.1194 75.0425 72.0326L75.3009 70.3179H75.7399L75.227 73.214H74.7601L74.2418 70.3179ZM76.1732 73.214V70.3179H77.3389V70.7363H76.6197V71.496H77.1379V71.9144H76.6197V72.7792H77.3389V73.214H76.1732ZM78.2925 70.7363V71.5779H78.4689C78.5721 71.5779 78.6433 71.5472 78.6836 71.485C78.7239 71.4227 78.7437 71.3073 78.7437 71.139C78.7437 70.9866 78.7225 70.8813 78.6809 70.8232C78.6385 70.765 78.5626 70.7363 78.4532 70.7363H78.2925ZM78.2925 71.9963V73.214H77.8461V70.3179H78.501C78.7472 70.3179 78.9242 70.3843 79.0343 70.5162C79.1437 70.6482 79.1984 70.8615 79.1984 71.1555C79.1984 71.3366 79.1766 71.4836 79.132 71.5958C79.0883 71.7078 79.0158 71.7988 78.916 71.8686L79.2442 73.214H78.7821L78.5052 71.9963H78.2925ZM79.5915 72.4791L80.0181 72.4148C80.0263 72.5618 80.0543 72.6705 80.1022 72.7402C80.15 72.8106 80.2211 72.8455 80.3148 72.8455C80.3961 72.8455 80.4618 72.8196 80.513 72.7683C80.5636 72.717 80.5889 72.6494 80.5889 72.5653C80.5889 72.4141 80.4686 72.2193 80.2286 71.98L80.1863 71.9383C79.9517 71.703 79.8007 71.5226 79.7336 71.3961C79.6673 71.2703 79.6338 71.1363 79.6338 70.9947C79.6338 70.7903 79.7009 70.6181 79.8348 70.4786C79.9695 70.3392 80.1329 70.2694 80.3271 70.2694C80.5152 70.2694 80.669 70.3337 80.7893 70.4629C80.9095 70.5914 80.9786 70.7658 80.9957 70.9866L80.5588 71.0481C80.5507 70.9189 80.5281 70.8259 80.4898 70.7698C80.4515 70.7138 80.3934 70.6857 80.3148 70.6857C80.2423 70.6857 80.1849 70.7104 80.1411 70.7589C80.098 70.8074 80.0761 70.8731 80.0761 70.9545C80.0761 71.1227 80.2163 71.3421 80.4967 71.6135L80.5226 71.6395C80.7284 71.8399 80.8631 72.0032 80.9274 72.1304C80.9916 72.2569 81.0238 72.3997 81.0238 72.557C81.0238 72.7683 80.9581 72.9413 80.8276 73.0773C80.6963 73.2126 80.5308 73.2803 80.3305 73.2803C80.109 73.2803 79.9332 73.2092 79.8027 73.0678C79.6728 72.9262 79.6023 72.7299 79.5915 72.4791ZM81.5028 73.214V70.3179H81.9575V73.214H81.5028ZM82.3184 70.7363V70.3179H83.6926V70.7363H83.2277V73.214H82.7812V70.7363H82.3184ZM83.7848 70.3179H84.2381L84.5287 71.4755H84.5567L84.8329 70.3179H85.2869L84.7665 72.0121V73.214H84.3201V72.0662L83.7848 70.3179ZM87.1663 72.5755V70.9585C87.1663 70.8587 87.1472 70.7835 87.1082 70.7337C87.0692 70.6837 87.0119 70.6584 86.936 70.6584C86.86 70.6584 86.8027 70.6837 86.7637 70.7337C86.7246 70.7835 86.7055 70.8587 86.7055 70.9585V72.5755C86.7055 72.6753 86.7246 72.7505 86.7637 72.8018C86.8027 72.8524 86.86 72.8777 86.936 72.8777C87.0119 72.8777 87.0692 72.8524 87.1082 72.8018C87.1472 72.7505 87.1663 72.6753 87.1663 72.5755ZM86.2508 70.9866C86.2508 70.7582 86.3131 70.5797 86.4369 70.4499C86.5612 70.3207 86.7329 70.2557 86.9523 70.2557C87.1588 70.2557 87.3229 70.3221 87.4439 70.4554C87.5649 70.5881 87.6251 70.7692 87.6251 70.9989V72.4832C87.6251 72.7368 87.5656 72.9323 87.446 73.0698C87.3263 73.2072 87.1561 73.2762 86.936 73.2762C86.7131 73.2762 86.5428 73.2079 86.4259 73.0711C86.309 72.9344 86.2508 72.7341 86.2508 72.4709V70.9866ZM88.1979 73.214V70.3179H89.3616V70.7363H88.6443V71.496H89.1612V71.9144H88.6443V73.214H88.1979ZM90.2655 72.4791L90.6921 72.4148C90.7002 72.5618 90.7283 72.6705 90.7761 72.7402C90.824 72.8106 90.8951 72.8455 90.9888 72.8455C91.0702 72.8455 91.1358 72.8196 91.1871 72.7683C91.2377 72.717 91.263 72.6494 91.263 72.5653C91.263 72.4141 91.1427 72.2193 90.9026 71.98L90.8602 71.9383C90.6257 71.703 90.4747 71.5226 90.4076 71.3961C90.3412 71.2703 90.3078 71.1363 90.3078 70.9947C90.3078 70.7903 90.3748 70.6181 90.5088 70.4786C90.6435 70.3392 90.8068 70.2694 91.0011 70.2694C91.1892 70.2694 91.343 70.3337 91.4634 70.4629C91.5836 70.5914 91.6527 70.7658 91.6698 70.9866L91.2329 71.0481C91.2247 70.9189 91.2022 70.8259 91.1639 70.7698C91.1256 70.7138 91.0675 70.6857 90.9888 70.6857C90.9162 70.6857 90.8588 70.7104 90.8151 70.7589C90.772 70.8074 90.7501 70.8731 90.7501 70.9545C90.7501 71.1227 90.8903 71.3421 91.1707 71.6135L91.1967 71.6395C91.4025 71.8399 91.5371 72.0032 91.6014 72.1304C91.6657 72.2569 91.6979 72.3997 91.6979 72.557C91.6979 72.7683 91.6322 72.9413 91.5016 73.0773C91.3704 73.2126 91.2048 73.2803 91.0045 73.2803C90.7829 73.2803 90.6072 73.2092 90.4767 73.0678C90.3468 72.9262 90.2763 72.7299 90.2655 72.4791ZM92.1229 72.4709V70.9866C92.1229 70.7582 92.1852 70.5797 92.3089 70.4499C92.4333 70.3207 92.605 70.2557 92.8244 70.2557C93.0308 70.2557 93.1949 70.3221 93.3159 70.4546C93.437 70.5881 93.4972 70.7692 93.4972 70.9989V71.2772H93.0384V70.9585C93.0384 70.8587 93.0192 70.7835 92.9802 70.7337C92.9413 70.6837 92.8839 70.6584 92.808 70.6584C92.7321 70.6584 92.6747 70.6837 92.6357 70.7337C92.5967 70.7835 92.5776 70.8587 92.5776 70.9585V72.5748C92.5776 72.6753 92.5967 72.7505 92.6357 72.8018C92.6747 72.8524 92.7321 72.8777 92.808 72.8777C92.8839 72.8777 92.9413 72.8524 92.9802 72.8018C93.0192 72.7505 93.0384 72.6753 93.0384 72.5748V72.1804H93.4972V72.4832C93.4972 72.7368 93.4376 72.9323 93.318 73.0698C93.1983 73.2072 93.0282 73.2762 92.808 73.2762C92.5823 73.2762 92.4114 73.2079 92.2958 73.0718C92.1804 72.9357 92.1229 72.7355 92.1229 72.4709ZM94.0459 73.214V70.3179H94.5006V73.214H94.0459ZM95.1158 73.214V70.3179H96.2815V70.7363H95.5622V71.496H96.0805V71.9144H95.5622V72.7792H96.2815V73.214H95.1158ZM96.7927 73.214V70.3179H97.1934L97.7602 72.0483C97.7711 72.0818 97.7841 72.1256 97.7992 72.1804C97.8149 72.235 97.8305 72.2938 97.8463 72.3567C97.8319 72.2726 97.8197 72.1947 97.8108 72.1236C97.8012 72.0517 97.7964 71.9998 97.7964 71.9663V70.3179H98.2148V73.214H97.7964L97.2515 71.6135C97.2487 71.6074 97.2453 71.5972 97.2412 71.5834C97.2037 71.4741 97.1756 71.3797 97.1571 71.299C97.1728 71.4009 97.1852 71.485 97.1941 71.5526C97.2029 71.6203 97.2071 71.6689 97.2071 71.6997V73.214H96.7927ZM98.7842 72.4709V70.9866C98.7842 70.7582 98.8465 70.5797 98.9702 70.4499C99.0946 70.3207 99.2663 70.2557 99.4857 70.2557C99.6921 70.2557 99.8562 70.3221 99.9772 70.4546C100.098 70.5881 100.158 70.7692 100.158 70.9989V71.2772H99.6997V70.9585C99.6997 70.8587 99.6805 70.7835 99.6415 70.7337C99.6026 70.6837 99.5452 70.6584 99.4693 70.6584C99.3934 70.6584 99.336 70.6837 99.297 70.7337C99.258 70.7835 99.2388 70.8587 99.2388 70.9585V72.5748C99.2388 72.6753 99.258 72.7505 99.297 72.8018C99.336 72.8524 99.3934 72.8777 99.4693 72.8777C99.5452 72.8777 99.6026 72.8524 99.6415 72.8018C99.6805 72.7505 99.6997 72.6753 99.6997 72.5748V72.1804H100.158V72.4832C100.158 72.7368 100.099 72.9323 99.9793 73.0698C99.8596 73.2072 99.6894 73.2762 99.4693 73.2762C99.2436 73.2762 99.0727 73.2079 98.9571 73.0718C98.8417 72.9357 98.7842 72.7355 98.7842 72.4709ZM100.707 73.214V70.3179H101.873V70.7363H101.154V71.496H101.672V71.9144H101.154V72.7792H101.873V73.214H100.707ZM102.844 73.214L103.321 70.3179H103.904L104.379 73.214H103.92L103.83 72.5871H103.379L103.283 73.214H102.844ZM103.435 72.1762H103.776L103.624 70.9668H103.596L103.435 72.1762ZM104.802 73.214V70.3179H105.202L105.769 72.0483C105.78 72.0818 105.793 72.1256 105.808 72.1804C105.824 72.235 105.84 72.2938 105.855 72.3567C105.841 72.2726 105.829 72.1947 105.82 72.1236C105.81 72.0517 105.805 71.9998 105.805 71.9663V70.3179H106.224V73.214H105.805L105.26 71.6135C105.258 71.6074 105.254 71.5972 105.25 71.5834C105.213 71.4741 105.185 71.3797 105.166 71.299C105.182 71.4009 105.194 71.485 105.203 71.5526C105.212 71.6203 105.216 71.6689 105.216 71.6997V73.214H104.802ZM107.29 72.7874H107.516C107.595 72.7874 107.653 72.7628 107.691 72.7136C107.729 72.6637 107.748 72.5871 107.748 72.4832V71.0892C107.748 70.9702 107.72 70.8834 107.662 70.828C107.605 70.7726 107.515 70.7445 107.392 70.7445H107.29V72.7874ZM106.847 73.214V70.3179H107.482C107.728 70.3179 107.91 70.3829 108.028 70.5121C108.146 70.642 108.205 70.8423 108.205 71.1131V72.4066C108.205 72.6883 108.149 72.8934 108.037 73.0219C107.925 73.1497 107.746 73.214 107.502 73.214H106.847ZM109.191 70.7363V70.3179H110.565V70.7363H110.1V73.214H109.654V70.7363H109.191ZM110.938 73.214V70.3179H112.103V70.7363H111.384V71.496H111.902V71.9144H111.384V72.7792H112.103V73.214H110.938ZM112.561 72.4709V70.9866C112.561 70.7582 112.623 70.5797 112.747 70.4499C112.871 70.3207 113.043 70.2557 113.262 70.2557C113.469 70.2557 113.633 70.3221 113.754 70.4546C113.875 70.5881 113.935 70.7692 113.935 70.9989V71.2772H113.476V70.9585C113.476 70.8587 113.457 70.7835 113.418 70.7337C113.379 70.6837 113.322 70.6584 113.246 70.6584C113.17 70.6584 113.112 70.6837 113.073 70.7337C113.034 70.7835 113.015 70.8587 113.015 70.9585V72.5748C113.015 72.6753 113.034 72.7505 113.073 72.8018C113.112 72.8524 113.17 72.8777 113.246 72.8777C113.322 72.8777 113.379 72.8524 113.418 72.8018C113.457 72.7505 113.476 72.6753 113.476 72.5748V72.1804H113.935V72.4832C113.935 72.7368 113.875 72.9323 113.756 73.0698C113.636 73.2072 113.466 73.2762 113.246 73.2762C113.02 73.2762 112.849 73.2079 112.734 73.0718C112.618 72.9357 112.561 72.7355 112.561 72.4709ZM114.484 70.3179H114.926V71.5H115.373V70.3179H115.82V73.214H115.373V71.9184H114.926V73.214H114.484V70.3179ZM116.447 73.214V70.3179H116.848L117.415 72.0483C117.425 72.0818 117.438 72.1256 117.454 72.1804C117.469 72.235 117.485 72.2938 117.501 72.3567C117.486 72.2726 117.474 72.1947 117.465 72.1236C117.456 72.0517 117.451 71.9998 117.451 71.9663V70.3179H117.869V73.214H117.451L116.906 71.6135C116.903 71.6074 116.9 71.5972 116.896 71.5834C116.858 71.4741 116.83 71.3797 116.811 71.299C116.827 71.4009 116.84 71.485 116.848 71.5526C116.857 71.6203 116.861 71.6689 116.861 71.6997V73.214H116.447ZM119.354 72.5755V70.9585C119.354 70.8587 119.335 70.7835 119.296 70.7337C119.257 70.6837 119.2 70.6584 119.124 70.6584C119.048 70.6584 118.99 70.6837 118.951 70.7337C118.912 70.7835 118.893 70.8587 118.893 70.9585V72.5755C118.893 72.6753 118.912 72.7505 118.951 72.8018C118.99 72.8524 119.048 72.8777 119.124 72.8777C119.2 72.8777 119.257 72.8524 119.296 72.8018C119.335 72.7505 119.354 72.6753 119.354 72.5755ZM118.439 70.9866C118.439 70.7582 118.501 70.5797 118.625 70.4499C118.749 70.3207 118.921 70.2557 119.14 70.2557C119.346 70.2557 119.511 70.3221 119.632 70.4554C119.753 70.5881 119.813 70.7692 119.813 70.9989V72.4832C119.813 72.7368 119.753 72.9323 119.634 73.0698C119.514 73.2072 119.344 73.2762 119.124 73.2762C118.901 73.2762 118.731 73.2079 118.614 73.0711C118.497 72.9344 118.439 72.7341 118.439 72.4709V70.9866ZM120.386 73.214V70.3179H120.828V72.7956H121.521V73.214H120.386ZM122.8 72.5755V70.9585C122.8 70.8587 122.781 70.7835 122.742 70.7337C122.703 70.6837 122.645 70.6584 122.569 70.6584C122.493 70.6584 122.436 70.6837 122.397 70.7337C122.358 70.7835 122.339 70.8587 122.339 70.9585V72.5755C122.339 72.6753 122.358 72.7505 122.397 72.8018C122.436 72.8524 122.493 72.8777 122.569 72.8777C122.645 72.8777 122.703 72.8524 122.742 72.8018C122.781 72.7505 122.8 72.6753 122.8 72.5755ZM121.884 70.9866C121.884 70.7582 121.947 70.5797 122.07 70.4499C122.195 70.3207 122.366 70.2557 122.586 70.2557C122.792 70.2557 122.956 70.3221 123.077 70.4554C123.198 70.5881 123.259 70.7692 123.259 70.9989V72.4832C123.259 72.7368 123.199 72.9323 123.079 73.0698C122.96 73.2072 122.79 73.2762 122.569 73.2762C122.346 73.2762 122.176 73.2079 122.059 73.0711C121.942 72.9344 121.884 72.7341 121.884 72.4709V70.9866ZM123.777 72.4709V70.9866C123.777 70.7582 123.84 70.5797 123.963 70.4499C124.088 70.3207 124.259 70.2557 124.479 70.2557C124.689 70.2557 124.85 70.3187 124.959 70.4438C125.069 70.5696 125.124 70.7541 125.124 70.9989V71.2649H124.693V70.9585C124.693 70.8587 124.674 70.7835 124.635 70.7337C124.596 70.6837 124.538 70.6584 124.462 70.6584C124.386 70.6584 124.329 70.6837 124.29 70.7337C124.251 70.7835 124.232 70.8587 124.232 70.9585V72.5748C124.232 72.6753 124.251 72.7505 124.29 72.8018C124.329 72.8524 124.386 72.8777 124.462 72.8777C124.538 72.8777 124.596 72.8524 124.635 72.8018C124.674 72.7505 124.693 72.6753 124.693 72.5748V72.1222H124.422V71.7536H125.124V73.214H124.909L124.823 73.0138C124.773 73.1033 124.714 73.1696 124.645 73.212C124.575 73.2551 124.491 73.2762 124.393 73.2762C124.193 73.2762 124.041 73.2072 123.935 73.0698C123.83 72.9323 123.777 72.7327 123.777 72.4709ZM125.424 70.3179H125.878L126.168 71.4755H126.196L126.472 70.3179H126.926L126.406 72.0121V73.214H125.959V72.0662L125.424 70.3179Z" fill="#0068AB"/>
<path fill-rule="evenodd" clip-rule="evenodd" d="M37.7749 53.2253C43.7247 53.2253 48.5497 58.0503 48.5497 64.0001C48.5497 69.9499 43.7247 74.7749 37.7749 74.7749C31.8251 74.7749 27 69.9499 27 64.0001C27 58.0503 31.8251 53.2253 37.7749 53.2253Z" fill="#FEFEFE"/>
<path fill-rule="evenodd" clip-rule="evenodd" d="M38.6156 55.9527C38.5392 55.9413 38.5194 55.9168 38.4774 55.9004C38.4204 55.8785 38.369 55.8204 38.3595 55.7923C38.355 55.7789 38.3557 55.7634 38.3591 55.7536C38.452 55.4924 38.6018 55.5203 38.8423 55.4764C38.8797 55.4697 38.9123 55.4828 38.9822 55.4796C39.0411 55.4768 39.0982 55.5029 39.1605 55.5036C39.2085 55.5042 39.2565 55.4984 39.3045 55.4832C39.337 55.4726 39.3648 55.4536 39.3872 55.4308C39.4048 55.4129 39.4197 55.3892 39.4267 55.3641C39.4382 55.324 39.4445 55.2809 39.438 55.2396C39.4257 55.1634 39.3751 55.1044 39.3577 55.0747C39.3453 55.0533 39.3324 55.0302 39.3312 55.0071C39.3232 54.8594 39.4681 54.8174 39.5049 54.7144C39.5108 54.6978 39.4696 54.7241 39.4542 54.7232C39.3226 54.7161 39.1723 54.7392 39.05 54.7476C38.9811 54.7523 38.8947 54.7193 38.8676 54.6877C38.7913 54.5984 38.8247 54.5505 38.8705 54.4882C38.9561 54.3725 39.0536 54.3722 39.1908 54.3615C39.2358 54.3581 39.2793 54.3824 39.3241 54.3812C39.3692 54.3801 39.4116 54.3543 39.4585 54.3554C39.5069 54.3566 39.5818 54.3627 39.6573 54.362C39.6988 54.3618 39.7414 54.3681 39.7799 54.3833C39.8836 54.4246 39.9548 54.4175 40.0025 54.5764C40.0193 54.6328 39.9793 54.7475 39.8931 54.7611C39.7936 54.7765 39.7311 54.7499 39.66 54.7905C39.6353 54.8046 39.6122 54.8316 39.6269 54.8796C39.6685 55.0143 39.7567 55.1983 39.6807 55.3766C39.6673 55.408 39.6467 55.44 39.6226 55.4683C39.545 55.5595 39.424 55.6098 39.3244 55.6094C39.2139 55.6089 39.1074 55.561 39.0004 55.5565C38.9726 55.5553 38.9498 55.5852 38.9216 55.5849C38.8631 55.5846 38.7866 55.5644 38.8189 55.5916C38.8769 55.6405 38.9219 55.6255 39.0206 55.6618C39.1439 55.707 39.2775 55.7202 39.4082 55.7328C39.5067 55.7423 39.563 55.7156 39.666 55.7426C39.8066 55.7794 39.9589 55.6972 40.0954 55.7962C40.1352 55.8255 40.0966 55.9321 40.041 55.9869C39.9086 56.117 39.6321 56.0571 39.4838 56.0442C39.4311 56.0396 39.381 56.056 39.3322 56.0494C39.0891 56.0157 38.8316 55.9849 38.6156 55.9527Z" fill="#0068AB"/>
<path fill-rule="evenodd" clip-rule="evenodd" d="M32.3679 58.7939C32.298 58.8398 32.2509 58.8387 32.2177 58.8136C32.143 58.7573 32.0953 58.6662 32.0124 58.6307C31.9206 58.5916 31.9 58.6524 31.8611 58.7087C31.8377 58.7427 31.8029 58.7679 31.7711 58.7877C31.6917 58.8373 31.6429 58.8256 31.6228 58.7581C31.5866 58.6385 31.6261 58.6039 31.6961 58.4946C31.7051 58.4804 31.7182 58.4678 31.7198 58.4486C31.7212 58.4316 31.7138 58.4119 31.7018 58.3982C31.6563 58.3465 31.6367 58.4186 31.6309 58.4268C31.6038 58.4654 31.5656 58.4964 31.5451 58.539C31.4526 58.7297 31.3346 58.8907 31.1899 59.0242C31.1765 59.0366 31.1512 59.0256 31.1389 59.016C31.0458 58.9425 30.992 58.888 31.0315 58.774C31.0693 58.6648 31.2 58.5676 31.2952 58.4593C31.2952 58.4593 31.3037 58.4633 31.3038 58.4588C31.3049 58.4007 31.4332 58.3024 31.4617 58.2174C31.4696 58.1939 31.4824 58.1632 31.4706 58.1408C31.4371 58.076 31.3475 57.9452 31.2857 57.9256C31.2726 57.9212 31.2563 57.9324 31.2494 57.9432C31.2215 57.9867 31.2022 58.0378 31.196 58.0721C31.1737 58.1203 31.2271 58.1489 31.2523 58.1971C31.2704 58.2317 31.2912 58.2631 31.284 58.2967C31.2639 58.3903 31.1993 58.4558 31.1362 58.4488C31.1272 58.4478 31.1161 58.4458 31.1079 58.4498C31.0718 58.4731 31.0195 58.5455 30.9776 58.5466C30.9059 58.5689 30.8743 58.5478 30.8599 58.52C30.807 58.4175 30.8284 58.3795 30.8904 58.2767C30.9115 58.2418 30.9334 58.2025 30.9325 58.1626C30.9314 58.1214 30.9056 58.0837 30.8826 58.0536C30.8617 58.026 30.8332 57.9991 30.8027 57.9933C30.7638 57.986 30.7234 58.0238 30.6897 58.0132C30.5402 57.9655 30.5955 57.8503 30.6729 57.7437C30.6769 57.738 30.6801 57.7268 30.674 57.7235C30.6297 57.6998 30.5783 57.7024 30.564 57.7164C30.4693 57.8073 30.444 57.9028 30.3391 57.8542C30.2939 57.8318 30.2651 57.8005 30.2487 57.766C30.2211 57.7084 30.2655 57.6645 30.2501 57.591C30.2567 57.5363 30.3316 57.5214 30.2787 57.4306C30.2427 57.3249 30.1897 57.2911 30.2352 57.1917C30.2796 57.0945 30.3075 57.0842 30.4345 57.1491C30.5089 57.1947 30.4407 57.2412 30.5453 57.2925C30.6304 57.3399 30.6669 57.4012 30.6992 57.4979C30.704 57.5054 30.7372 57.5279 30.7404 57.5341C30.7496 57.5517 30.7561 57.5881 30.7736 57.5814C30.8328 57.559 30.9341 57.4672 30.9296 57.3847C30.9257 57.3121 30.8326 57.2658 30.8223 57.2233C30.8094 57.1712 30.7996 57.0377 30.7831 56.9883C30.7491 56.8882 30.7181 56.7671 30.6846 56.6697C30.6707 56.6298 30.6562 56.5819 30.6732 56.5407C30.696 56.4855 30.7097 56.4429 30.7983 56.4599C30.8559 56.4709 30.8849 56.5435 30.9403 56.5725C30.9858 56.5965 31.0569 56.5323 31.1318 56.6287C31.2168 56.7383 31.0962 56.8656 31.0512 56.9574C31.0111 57.0387 31.027 57.1396 31.0104 57.217C31.0094 57.2211 31.0123 57.2349 31.0178 57.2322C31.0398 57.2202 31.0607 57.2043 31.0809 57.1837C31.14 57.1235 31.1854 57.0377 31.2762 56.9849C31.3068 56.9671 31.3257 56.968 31.3568 57.0161C31.3975 57.0788 31.3212 57.2705 31.2816 57.3245C31.2525 57.3639 31.2245 57.3845 31.2124 57.4145C31.2053 57.4326 31.1813 57.4489 31.2114 57.4848C31.2528 57.5396 31.2528 57.5587 31.2934 57.5364C31.2999 57.5347 31.3109 57.526 31.3166 57.522C31.3457 57.5009 31.3747 57.4651 31.3881 57.4301C31.3967 57.4075 31.4096 57.3922 31.407 57.366C31.4019 57.3139 31.3619 57.251 31.3952 57.195C31.4153 57.1453 31.496 57.0791 31.5827 57.1317C31.6018 57.1384 31.6294 57.1304 31.6526 57.1357C31.6864 57.1433 31.723 57.157 31.7572 57.1989C31.7818 57.2292 31.7789 57.2758 31.8004 57.3106C31.8154 57.3346 31.8483 57.3455 31.8585 57.372C31.8731 57.4092 31.851 57.5156 31.872 57.543C31.8757 57.5479 31.8597 57.5732 31.869 57.5636C31.8531 57.5844 31.8713 57.5974 31.8823 57.6041C31.8883 57.6075 31.9073 57.5908 31.9138 57.5833C31.9741 57.5131 31.9823 57.53 31.9988 57.4966C32.0242 57.4455 32.0512 57.438 32.0671 57.4107C32.0641 57.3972 32.1266 57.3288 32.1723 57.2937C32.2228 57.2521 32.3684 57.3069 32.3542 57.4131C32.3467 57.4877 32.2647 57.5237 32.2413 57.5609C32.2216 57.592 32.2336 57.6093 32.2063 57.6447C32.1735 57.6947 32.1296 57.7337 32.0955 57.7788C32.0692 57.7972 32.0681 57.833 32.0447 57.8543C31.9842 57.9343 31.9403 57.9967 31.9281 58.0612C31.9287 58.0707 31.9592 58.0982 31.9701 58.0922C32.0333 58.0566 32.0651 57.9684 32.1509 57.9097C32.1609 57.8608 32.3063 57.8523 32.3331 57.9529C32.3344 58 32.3396 58.0258 32.3236 58.0456C32.2919 58.0846 32.2812 58.1327 32.2598 58.1648C32.2217 58.2216 32.1588 58.2604 32.1489 58.3175C32.1356 58.3513 32.1457 58.3558 32.1558 58.3827C32.1622 58.3999 32.1808 58.4178 32.1924 58.4373C32.2145 58.4744 32.2524 58.5087 32.2757 58.5488C32.308 58.6048 32.3591 58.651 32.3799 58.7329C32.3851 58.7534 32.3932 58.7858 32.3679 58.7939ZM31.6748 57.8229C31.5884 57.8457 31.5739 57.7817 31.5369 57.7479C31.5021 57.6695 31.4984 57.6831 31.5603 57.6126C31.5772 57.6026 31.5966 57.5947 31.6159 57.587C31.6966 57.6181 31.7122 57.7046 31.6986 57.7768C31.6885 57.7932 31.6804 57.8068 31.6748 57.8229ZM31.1233 57.9213C31.102 57.9338 31.095 57.9495 31.081 57.9515C31.0324 57.9584 31.0009 57.9378 30.9709 57.901C30.9726 57.8946 30.9695 57.8847 30.9725 57.8786C30.9851 57.8532 31.0045 57.8258 31.0239 57.7886C31.0483 57.7132 31.0443 57.6798 31.1333 57.7443C31.1474 57.7613 31.1739 57.7748 31.1797 57.7907C31.1867 57.8097 31.1847 57.8287 31.1806 57.8466C31.1599 57.8701 31.1416 57.8958 31.1233 57.9213Z" fill="#0068AB"/>
<path fill-rule="evenodd" clip-rule="evenodd" d="M42.4256 57.4394C42.3916 57.4216 42.3487 57.4114 42.3295 57.382C42.2593 57.2753 42.1838 57.2129 42.1376 57.1492C42.0786 57.068 42.0175 56.9514 42.0103 56.8886C42.001 56.8078 41.9624 56.7905 41.9409 56.7661C41.9319 56.756 41.9266 56.7394 41.9316 56.7289C41.9967 56.5902 42.0069 56.5414 42.1539 56.5639C42.1763 56.5674 42.2031 56.5831 42.2147 56.6061C42.2492 56.6747 42.3085 56.8174 42.364 56.9213C42.438 57.0602 42.6035 57.1609 42.7493 57.2872C42.7799 57.3138 42.8183 57.3374 42.835 57.3784C42.8434 57.3995 42.8244 57.4263 42.8125 57.4496C42.807 57.4598 42.795 57.4693 42.7807 57.4691C42.7273 57.4683 42.6757 57.4439 42.6212 57.4438C42.5777 57.4438 42.5362 57.4677 42.491 57.466C42.4654 57.465 42.4457 57.4497 42.4256 57.4394ZM40.7324 56.53C40.6461 56.4298 40.8321 56.4068 40.8948 56.3698C40.9116 56.36 40.9119 56.3346 40.9269 56.3289C41.0362 56.2859 41.1932 56.3017 41.3065 56.2562C41.3355 56.2446 41.3537 56.2365 41.3854 56.2289C41.5064 56.2004 41.638 56.1469 41.7419 56.0762C41.761 56.0629 41.7763 56.0276 41.7616 56.0107C41.7259 55.9699 41.6574 55.9717 41.6199 55.937C41.6 55.9188 41.5967 55.9055 41.5978 55.8896C41.603 55.8216 41.6054 55.7759 41.6275 55.7287C41.7062 55.5611 41.8972 55.7126 42.0368 55.7581C42.0711 55.7692 42.0859 55.7718 42.117 55.7492C42.179 55.7045 42.2091 55.6702 42.256 55.6273C42.2844 55.6011 42.3258 55.5888 42.3512 55.5616C42.3998 55.51 42.4304 55.4742 42.4746 55.4422C42.5233 55.4068 42.5778 55.3803 42.6287 55.3533C42.6328 55.3513 42.6409 55.3631 42.6445 55.3578C42.6763 55.3101 42.7608 55.3366 42.8061 55.3305C42.8554 55.3236 42.8995 55.3004 42.9445 55.3412C43.0048 55.3958 42.9763 55.4906 42.9279 55.5737C42.9077 55.6086 42.8768 55.6397 42.8436 55.6665C42.8134 55.691 42.7802 55.7092 42.744 55.7264C42.6503 55.7715 42.5551 55.7717 42.4836 55.8608C42.4541 55.8975 42.5476 55.9376 42.6135 55.95C42.6607 55.9588 42.7132 55.9499 42.7588 55.9751C42.8266 56.0126 42.8774 56.1371 42.7907 56.2183C42.7444 56.2616 42.7166 56.2484 42.6747 56.2337C42.5024 56.1732 42.3362 56.1047 42.1776 56.1587C42.1355 56.1731 42.1204 56.2271 42.0818 56.2528C42.0308 56.2868 41.9736 56.2992 41.9207 56.3274C41.8528 56.3635 41.778 56.3915 41.7023 56.4153C41.5967 56.4486 41.4976 56.49 41.3938 56.5034C41.3584 56.5078 41.3188 56.4878 41.2896 56.5031C41.2011 56.5494 41.0231 56.5406 40.8987 56.5697C40.8413 56.583 40.7692 56.5728 40.7324 56.53Z" fill="#0068AB"/>
<path fill-rule="evenodd" clip-rule="evenodd" d="M36.9452 56.2881C36.9106 56.2949 36.8743 56.2882 36.8441 56.2805C36.8116 56.2725 36.7815 56.2587 36.7605 56.2389C36.6786 56.1609 36.7079 56.0944 36.7069 56.0025C36.7061 55.9249 36.648 55.9161 36.6161 55.9073C36.6114 55.9061 36.6139 55.8989 36.6108 55.898C36.4704 55.858 36.4138 55.7856 36.4323 55.6897C36.4686 55.5038 36.616 55.5166 36.7917 55.4437C36.8238 55.4305 36.8575 55.4108 36.879 55.3818C36.8891 55.3684 36.8866 55.3386 36.8732 55.3349C36.7879 55.3116 36.7474 55.3562 36.6911 55.3332C36.6413 55.3131 36.6369 55.2525 36.6178 55.2163C36.6127 55.2067 36.6064 55.1855 36.5981 55.1806C36.5948 55.1786 36.5945 55.1804 36.592 55.1816C36.59 55.1825 36.5864 55.1901 36.5851 55.1927C36.5778 55.2068 36.5676 55.2457 36.5515 55.2512C36.4462 55.2868 36.3882 55.1744 36.3556 55.1289C36.321 55.0801 36.2945 55.0257 36.2728 54.9702C36.2384 54.882 36.2118 54.7904 36.1921 54.7014C36.1797 54.6453 36.1761 54.5906 36.1767 54.5364C36.1769 54.5077 36.1966 54.4844 36.1952 54.4571C36.1844 54.2478 36.2304 54.2334 36.4498 54.2183C36.471 54.2167 36.492 54.2279 36.5164 54.2257C36.5599 54.2214 36.6755 54.1945 36.7461 54.1904C36.8273 54.1858 36.9017 54.127 36.9858 54.119C37.0399 54.1137 37.1251 54.0698 37.2148 54.1148C37.2431 54.129 37.2794 54.1274 37.307 54.1479C37.358 54.1859 37.3846 54.3055 37.3692 54.4102C37.3604 54.4701 37.4025 54.544 37.3958 54.6311C37.3928 54.6715 37.4131 54.7184 37.3963 54.7719C37.3899 54.792 37.4013 54.8158 37.3922 54.8377C37.363 54.9084 37.3283 54.9467 37.3008 55.0171C37.2897 55.0452 37.2454 55.051 37.2307 55.0788C37.2023 55.133 37.1658 55.1423 37.1416 55.1594C37.116 55.1778 37.0862 55.1789 37.098 55.2613C37.1005 55.2818 37.106 55.3029 37.1095 55.3161C37.1127 55.3281 37.1217 55.3648 37.1338 55.3739C37.1691 55.4004 37.2533 55.3857 37.2953 55.4744C37.3196 55.5261 37.3152 55.6239 37.3041 55.6921C37.2919 55.7664 37.1823 55.7821 37.28 55.8651C37.3143 55.8942 37.3439 55.8987 37.3437 55.9793C37.3437 56.0079 37.3297 56.0314 37.3125 56.0815C37.3046 56.1046 37.2894 56.1262 37.2689 56.1382C37.1977 56.1797 37.1301 56.2064 37.0951 56.231C37.0507 56.2621 36.9958 56.2781 36.9452 56.2881ZM35.8579 56.1842C35.8173 56.1834 35.8161 56.187 35.7861 56.1848C35.6132 56.172 35.5238 56.0834 35.5377 55.9355C35.5427 55.8832 35.5618 55.8138 35.5737 55.7706C35.5844 55.7315 35.6213 55.7038 35.6353 55.6657C35.64 55.653 35.6343 55.6412 35.6287 55.6328C35.6236 55.6247 35.6131 55.6219 35.6058 55.6202C35.5663 55.6106 35.5199 55.6205 35.4917 55.5981C35.4419 55.5591 35.441 55.5305 35.4265 55.5117C35.3249 55.3806 35.3105 55.3369 35.3394 55.1927C35.3574 55.1021 35.4429 55.0981 35.5073 55.0359C35.5756 54.9698 35.7006 54.9841 35.7417 54.9038C35.7494 54.8888 35.7424 54.8727 35.7366 54.8602C35.7293 54.8451 35.7184 54.828 35.7062 54.8284C35.6525 54.8301 35.6033 54.8687 35.5491 54.8664C35.5022 54.8644 35.4553 54.8638 35.4119 54.8489C35.2883 54.8068 35.2754 54.7752 35.2731 54.6843C35.2702 54.5748 35.2893 54.581 35.3835 54.5492C35.5906 54.4795 35.8127 54.4421 36.0337 54.4207C36.0624 54.4178 36.074 54.4485 36.0989 54.5072C36.1132 54.5414 36.1369 54.617 36.0985 54.6616C36.005 54.7701 36.0132 54.7302 36.0532 54.9005C36.0572 54.9181 36.0927 54.9437 36.1051 55.0069C36.1202 55.083 36.1456 55.16 36.1376 55.2405C36.1335 55.283 36.1275 55.3224 36.1011 55.3677C36.0671 55.4259 36.0088 55.463 35.9728 55.5167C35.9551 55.5431 35.9303 55.5933 35.9078 55.6221C35.8889 55.6467 35.8724 55.6732 35.8687 55.7019C35.8615 55.7595 35.8339 55.9112 35.961 55.838C36.0043 55.813 36.0124 55.7522 36.0384 55.7095C36.0408 55.7055 36.0543 55.7095 36.0542 55.703C36.0538 55.6658 36.0861 55.613 36.1237 55.6207C36.1311 55.6219 36.1398 55.6284 36.1441 55.637C36.1518 55.6522 36.164 55.6729 36.1586 55.6927C36.1427 55.7503 36.1484 55.8511 36.1309 55.9175C36.1122 55.9892 35.993 56.0605 35.9512 56.1178C35.9262 56.1519 35.8816 56.1848 35.8579 56.1842ZM36.7944 55.8378C36.6966 55.8354 36.609 55.82 36.6309 55.7396C36.6555 55.6494 36.7134 55.6688 36.8027 55.6371C36.8227 55.6298 36.8737 55.5719 36.9261 55.6024C36.9417 55.6115 36.9559 55.6318 36.9604 55.654C36.966 55.6821 36.9777 55.724 36.9541 55.7444C36.8997 55.7912 36.859 55.8393 36.7944 55.8378ZM35.6787 55.4342C35.586 55.4216 35.5605 55.3821 35.5924 55.3106C35.6257 55.2368 35.6627 55.2248 35.7432 55.1883C35.7706 55.1758 35.7813 55.13 35.8396 55.1382C35.8538 55.1401 35.8791 55.1932 35.8639 55.2433C35.847 55.298 35.8256 55.3528 35.7871 55.3923C35.7583 55.4214 35.7159 55.4393 35.6787 55.4342ZM36.6077 55.1283C36.6016 55.1295 36.6013 55.1271 36.5929 55.1227C36.5888 55.1205 36.5852 55.1122 36.5828 55.1098C36.5823 55.1092 36.5817 55.1086 36.5814 55.108C36.5372 55.0467 36.4924 54.9848 36.4683 54.9178C36.4386 54.8354 36.4241 54.7475 36.4179 54.6635C36.4157 54.6336 36.4211 54.5963 36.4425 54.5799C36.5031 54.5329 36.6019 54.4773 36.7113 54.4822C36.7442 54.4835 36.7542 54.519 36.7526 54.5527C36.7521 54.565 36.7401 54.5771 36.7282 54.585C36.636 54.6464 36.534 54.6717 36.5629 54.7893C36.5695 54.8162 36.6116 54.9281 36.7018 54.8681C36.7158 54.8587 36.7393 54.8535 36.7588 54.8604C36.7888 54.8752 36.7909 54.9233 36.7838 54.9508C36.7761 54.981 36.7477 55.0015 36.7347 55.016C36.7055 55.0486 36.6609 55.066 36.6269 55.0957C36.6149 55.1054 36.6171 55.1266 36.6077 55.1283ZM37.0533 54.9461C37.0348 54.9519 37.0161 54.9487 37.0105 54.9313C37.0047 54.9126 37.0006 54.9026 36.9984 54.8843C36.9962 54.8659 36.9913 54.8333 36.9935 54.8188C37.0012 54.7689 37.0022 54.7421 36.9853 54.6937C36.9757 54.666 36.9573 54.6281 36.9252 54.5833C36.9043 54.554 36.8866 54.5384 36.8719 54.4991C36.8581 54.4625 36.8477 54.4352 36.8577 54.4256C36.9162 54.3695 37.071 54.3243 37.1575 54.3972C37.1961 54.4297 37.2054 54.4939 37.1967 54.5437C37.1879 54.5952 37.2104 54.6766 37.2076 54.7543C37.206 54.7964 37.2042 54.8428 37.1771 54.877C37.1464 54.9152 37.0981 54.9319 37.0533 54.9461Z" fill="#0068AB"/>
<path fill-rule="evenodd" clip-rule="evenodd" d="M34.2892 57.3008C34.2678 57.3031 34.2419 57.3003 34.226 57.2924C34.1855 57.272 34.1616 57.227 34.1467 57.2029C34.0682 57.0749 34.0136 56.947 33.9435 56.8474C33.9335 56.8332 33.9099 56.8358 33.908 56.8381C33.874 56.8791 33.8412 56.9196 33.8182 56.9693C33.7925 57.0242 33.7728 57.0942 33.7545 57.158C33.7409 57.2058 33.7125 57.2331 33.7044 57.2806C33.6948 57.3355 33.6924 57.3984 33.6617 57.4405C33.6401 57.47 33.6238 57.5095 33.5912 57.5208C33.579 57.5252 33.562 57.5328 33.5534 57.5325C33.5192 57.5312 33.5086 57.4949 33.5074 57.4572C33.4929 57.2752 33.5455 57.1173 33.5939 56.9476C33.608 56.899 33.6108 56.8523 33.6293 56.8082C33.6492 56.7598 33.682 56.6199 33.6545 56.5805C33.6481 56.5711 33.6323 56.5709 33.6271 56.5624C33.5756 56.4742 33.6202 56.4713 33.627 56.3836C33.6318 56.3196 33.6137 56.3053 33.5802 56.2857C33.4762 56.2249 33.484 56.1068 33.4755 56.0313C33.4737 56.0155 33.4645 56.0015 33.4528 55.9964C33.4407 55.991 33.4259 55.9994 33.4196 56.006C33.3825 56.0459 33.3124 56.0871 33.285 56.145C33.2742 56.168 33.2609 56.1774 33.2574 56.1928C33.2539 56.2072 33.2499 56.2266 33.2563 56.2427C33.2617 56.2636 33.2759 56.2728 33.2876 56.2879C33.3136 56.3184 33.3948 56.3853 33.4361 56.458C33.4536 56.4887 33.4684 56.5096 33.4608 56.5412C33.4584 56.5589 33.4535 56.5875 33.4413 56.5996C33.4155 56.6256 33.3852 56.6581 33.3476 56.6581C33.3051 56.658 33.271 56.6171 33.2313 56.5993C33.2148 56.592 33.199 56.594 33.1887 56.5853C33.1193 56.526 33.0712 56.4806 33.0343 56.4314C33.0188 56.4107 33.0126 56.3835 32.9963 56.3682C32.9411 56.318 32.8683 56.1538 32.8465 56.094C32.8357 56.0685 32.8397 56.0302 32.8388 56.0161C32.8247 55.9314 32.8693 55.8663 32.872 55.7825C32.871 55.7748 32.8595 55.7546 32.8422 55.7595C32.8033 55.7703 32.7542 55.7761 32.7433 55.7673C32.6958 55.7299 32.6654 55.7375 32.6631 55.6542C32.6619 55.6112 32.6945 55.5584 32.7249 55.5048C32.7654 55.4335 32.8305 55.4233 32.9133 55.3768C32.9643 55.348 33.0204 55.3259 33.0628 55.2863C33.0759 55.2742 33.0743 55.2488 33.0699 55.229C33.0576 55.1729 33.0599 55.1574 33.0467 55.123C33.0088 55.0251 33.003 54.9638 33.1005 54.9344C33.1296 54.9255 33.1681 54.9409 33.1956 54.9611C33.2201 54.9792 33.2339 54.9863 33.247 55.0037C33.2613 55.0227 33.2675 55.0362 33.2907 55.045C33.3082 55.0517 33.3423 55.0392 33.3752 55.0228C33.3888 55.0159 33.4315 54.9996 33.4513 54.9747C33.4725 54.9432 33.5112 54.9286 33.5505 54.92C33.5764 54.9142 33.6084 54.9189 33.6364 54.9299C33.6815 54.9477 33.7762 54.9947 33.7407 55.0879C33.72 55.142 33.6944 55.1963 33.6556 55.2385C33.6182 55.2792 33.5946 55.2942 33.5725 55.3167C33.5511 55.3384 33.5127 55.3416 33.4951 55.3668C33.4754 55.3948 33.4575 55.4099 33.4683 55.4447C33.478 55.4762 33.4963 55.4943 33.528 55.5186C33.5402 55.5266 33.5535 55.5172 33.5642 55.5085C33.5723 55.5022 33.6099 55.4724 33.6117 55.4702C33.6575 55.433 33.7004 55.4172 33.7332 55.3946C33.7841 55.3598 33.7819 55.3509 33.8342 55.3303C33.8614 55.3196 33.8799 55.3195 33.9057 55.3187C33.976 55.3165 34.021 55.3035 34.0989 55.3646C34.1381 55.3952 34.172 55.437 34.1933 55.4814C34.225 55.5469 34.2413 55.6263 34.2545 55.6991C34.2624 55.742 34.2585 55.7886 34.2584 55.8331C34.2581 55.8962 34.2461 55.9393 34.2277 55.9934C34.221 56.0127 34.2109 56.0444 34.2039 56.064C34.1994 56.0769 34.1765 56.1116 34.1715 56.1242C34.1658 56.1383 34.1718 56.1575 34.1562 56.1896C34.1439 56.2149 34.1343 56.219 34.1129 56.2434C34.0767 56.2848 34.0248 56.3164 34.0057 56.3442C33.9836 56.3762 33.9994 56.3818 34.0229 56.4118C34.0393 56.4328 34.0845 56.4342 34.1338 56.4495C34.1759 56.4624 34.2735 56.4764 34.3378 56.4684C34.3971 56.4611 34.4849 56.4358 34.5517 56.4144C34.5994 56.3991 34.5899 56.387 34.651 56.3652C34.7058 56.3456 34.7415 56.338 34.7778 56.3336C34.8243 56.3278 34.8618 56.3477 34.911 56.4373C34.9258 56.4805 34.9025 56.5051 34.8716 56.5506C34.854 56.5863 34.8354 56.6166 34.8055 56.6405C34.7589 56.6879 34.708 56.7106 34.6318 56.7278C34.5888 56.7375 34.5289 56.7542 34.4842 56.759C34.4336 56.7646 34.3488 56.7685 34.309 56.7671C34.2656 56.7618 34.2085 56.7567 34.1862 56.7558C34.1689 56.7553 34.1483 56.7473 34.1428 56.7603C34.1384 56.78 34.1579 56.8133 34.1707 56.8356C34.1988 56.8846 34.257 56.9579 34.2843 57.0222C34.3179 57.101 34.3941 57.2067 34.3273 57.2703C34.3178 57.2822 34.3049 57.2992 34.2892 57.3008ZM33.8892 56.1606C33.8813 56.1625 33.8722 56.1538 33.8664 56.1463C33.8552 56.1317 33.8511 56.1227 33.8513 56.1079C33.8518 56.0749 33.871 56.0702 33.8948 56.0173C33.8928 55.946 33.883 55.9357 33.8543 55.9088C33.8275 55.8836 33.8021 55.8705 33.761 55.8661C33.7413 55.8745 33.7084 55.8698 33.6902 55.8684C33.6657 55.8471 33.6456 55.819 33.6515 55.7918C33.6576 55.7646 33.6899 55.7381 33.7116 55.7163C33.7578 55.6695 33.8327 55.6301 33.8627 55.6095C33.9183 55.5811 33.9789 55.5679 34.0207 55.6124C34.032 55.6246 34.0465 55.6395 34.0563 55.6589C34.0804 55.7212 34.0986 55.7985 34.1067 55.8499C34.1101 55.9108 34.0848 55.9742 34.0694 55.9993C34.0581 56.018 34.0309 56.0145 34.024 56.0352C33.9806 56.0794 33.9533 56.0922 33.9178 56.1224C33.9049 56.1333 33.9062 56.1444 33.8892 56.1606ZM33.2073 55.8038C33.1751 55.8104 33.1348 55.836 33.0888 55.8371C33.0559 55.7979 33.0678 55.7575 33.0884 55.7267C33.1227 55.6748 33.1077 55.6557 33.1645 55.6244C33.1795 55.6133 33.2172 55.5991 33.2423 55.5957C33.2816 55.614 33.3272 55.6875 33.3149 55.7239C33.3113 55.7347 33.3059 55.7417 33.2985 55.751C33.274 55.7634 33.2275 55.7898 33.2073 55.8038Z" fill="#0068AB"/>
<path fill-rule="evenodd" clip-rule="evenodd" d="M43.1984 58.6989C43.1798 58.6628 43.1708 58.6273 43.1759 58.6025C43.1881 58.5436 43.2508 58.5176 43.2867 58.4846C43.3043 58.4793 43.3188 58.4694 43.3299 58.4721C43.3697 58.4815 43.3822 58.5432 43.4292 58.5945C43.4635 58.6075 43.498 58.6206 43.5323 58.6338C43.5841 58.622 43.6383 58.6126 43.69 58.6054C43.7404 58.568 43.7598 58.5548 43.7972 58.5517C43.8426 58.5232 43.8911 58.4787 43.909 58.4444C43.8754 58.3591 43.7932 58.3135 43.7385 58.2831C43.6494 58.1862 43.5701 58.1338 43.4866 58.0626C43.4412 57.9791 43.5302 57.9152 43.5595 57.8884C43.6479 57.8922 43.6881 57.8774 43.7485 57.9921C43.8244 58.0747 43.9303 58.1608 44.0221 58.2509C44.0686 58.2529 44.0918 58.205 44.0971 58.1911C44.1215 58.1641 44.1436 58.1394 44.1678 58.117C44.139 58.0856 44.1098 58.054 44.0783 58.0246C43.9788 58.0087 43.9779 57.8665 43.9791 57.834C44.0853 57.6425 44.1835 57.8029 44.2932 57.9125C44.3383 57.947 44.4073 57.9733 44.4661 58.0178C44.4783 58.0555 44.4908 58.0933 44.5054 58.1338C44.4875 58.2262 44.447 58.2993 44.3274 58.3151C44.2837 58.3554 44.2362 58.3767 44.2507 58.4753C44.2818 58.5091 44.3153 58.5456 44.3464 58.5842C44.3409 58.6027 44.3354 58.6211 44.3321 58.6419C44.2546 58.7132 44.118 58.6329 44.0342 58.6293C44.0054 58.6468 43.9768 58.6643 43.9454 58.6839C43.8407 58.7355 43.6928 58.7549 43.576 58.813C43.4833 58.8043 43.3923 58.7981 43.3018 58.7921C43.2562 58.762 43.2254 58.7234 43.1984 58.6989ZM43.4671 57.3692C43.428 57.2745 43.4356 57.2324 43.4865 57.1854C43.5249 57.159 43.5609 57.1349 43.5993 57.1132C43.6712 57.0649 43.753 57.0077 43.8261 57.0435C43.8764 57.0153 43.9513 57.0628 44.0009 57.1069C44.0197 57.103 44.0382 57.1038 44.0567 57.1045C44.1055 57.06 44.1257 57.0235 44.131 57.005C44.1627 56.9714 44.1946 56.9379 44.2261 56.9088C44.2788 56.8783 44.3336 56.8504 44.3861 56.8246C44.4101 56.807 44.4364 56.7918 44.4627 56.7766C44.567 56.6806 44.5818 56.7161 44.6863 56.674C44.7002 56.6746 44.8087 56.7584 44.8159 56.8101C44.7865 56.8415 44.7596 56.8753 44.7323 56.9092C44.6827 56.9234 44.6328 56.9425 44.5831 56.9613C44.5782 56.9702 44.5731 56.9795 44.5656 56.9908C44.6401 56.9939 44.7036 56.9804 44.7808 56.9765C44.8639 56.9404 44.943 56.8947 45.0185 56.9236C45.0612 56.9697 45.0976 56.9853 45.0518 57.0769C45.0233 57.0895 44.997 57.1046 44.9706 57.1199C44.924 57.1179 44.8642 57.1551 44.813 57.153C44.7581 57.181 44.7164 57.1745 44.7009 57.2648C44.7313 57.2639 44.7616 57.2628 44.7918 57.2664C44.8057 57.2715 44.8193 57.2767 44.8307 57.2843C44.8137 57.2999 44.7967 57.3155 44.7795 57.3357C44.7325 57.3432 44.6854 57.3551 44.6383 57.367C44.6071 57.3868 44.5406 57.412 44.4868 57.4167C44.4507 57.4454 44.4145 57.4743 44.3781 57.5031C44.357 57.5302 44.3655 57.5637 44.4128 57.5931C44.4158 57.5949 44.425 57.6021 44.4286 57.6027C44.4341 57.6038 44.443 57.6069 44.4532 57.6008C44.4627 57.5951 44.4705 57.5768 44.4854 57.5662C44.5003 57.5557 44.5395 57.5163 44.5551 57.5105C44.5665 57.5061 44.5784 57.5019 44.5853 57.5003C44.5923 57.4988 44.609 57.4975 44.6159 57.4954C44.6323 57.4902 44.6378 57.4874 44.6485 57.485C44.701 57.4732 44.7378 57.47 44.7905 57.4599C44.7982 57.4553 44.8141 57.4509 44.8192 57.4442C44.8317 57.4277 44.8426 57.4168 44.8582 57.4054C44.8693 57.3973 44.8879 57.3843 44.8902 57.3686C44.8952 57.3338 44.8999 57.3013 44.9061 57.269C45.0062 57.1588 45.0498 57.1232 45.1859 57.1056C45.2576 57.1204 45.3372 57.1144 45.3889 57.2146C45.383 57.2422 45.356 57.2761 45.3233 57.3332C45.2807 57.3455 45.2382 57.3575 45.1979 57.3722C45.1721 57.378 45.1045 57.3777 45.0923 57.4424C45.0898 57.457 45.1186 57.457 45.126 57.4622C45.1294 57.4645 45.1343 57.4622 45.1368 57.4618C45.158 57.4578 45.1682 57.4437 45.1802 57.4409C45.2238 57.4307 45.2551 57.4378 45.2992 57.4453C45.3978 57.4309 45.4686 57.4816 45.5539 57.56C45.5629 57.5695 45.5825 57.6007 45.5811 57.6332C45.5655 57.67 45.5521 57.7092 45.5365 57.7503C45.4874 57.8044 45.4408 57.8607 45.3942 57.9171C45.372 57.9418 45.3355 58.0069 45.2697 58.018C45.2385 58.0376 45.2012 58.0628 45.1676 58.0848C45.1008 58.1093 45.0394 58.1114 44.9881 58.1093C44.9728 58.1171 44.9651 58.107 44.9566 58.1122C44.9475 58.1178 44.9463 58.1225 44.9576 58.1433C44.9777 58.1807 45.0428 58.2412 45.0711 58.272C45.1503 58.329 45.1759 58.3324 45.1288 58.4518C45.0997 58.4785 45.0044 58.5796 44.9434 58.5861C44.93 58.5763 44.9161 58.5709 44.9023 58.5658C44.8532 58.5124 44.8552 58.4657 44.8562 58.4425C44.871 58.4244 44.8858 58.4063 44.9005 58.3883C44.8762 58.357 44.8541 58.3281 44.8295 58.3014C44.8121 58.2727 44.7946 58.2439 44.7748 58.2174C44.5725 58.0945 44.4269 57.8924 44.291 57.7396C44.2149 57.6665 44.1422 57.5846 44.0683 57.5138C44.0322 57.4872 43.986 57.4577 43.9597 57.4427C43.8825 57.3987 43.8195 57.3931 43.7584 57.4107C43.7222 57.4211 43.6484 57.4483 43.6318 57.4458C43.5728 57.4356 43.4739 57.3855 43.4671 57.3692ZM44.1771 57.2987C44.1783 57.2707 44.2188 57.2469 44.2212 57.2446C44.2328 57.2427 44.247 57.2433 44.261 57.2439C44.3084 57.2226 44.3477 57.1775 44.3863 57.1512C44.4074 57.145 44.4309 57.1413 44.4543 57.1378C44.4334 57.1929 44.4067 57.2174 44.3351 57.2518C44.3014 57.2781 44.2676 57.3048 44.2337 57.3359C44.2157 57.3213 44.1953 57.3088 44.1771 57.2987ZM44.5916 57.7203C44.5858 57.7122 44.5833 57.7027 44.5844 57.6894C44.5849 57.6833 44.5859 57.675 44.5911 57.6692C44.6313 57.6323 44.6802 57.5921 44.7207 57.559C44.7241 57.5563 44.727 57.5528 44.731 57.5507C44.7336 57.5493 44.7386 57.5459 44.7416 57.5452C44.7549 57.5426 44.7668 57.5434 44.7801 57.5404C44.7824 57.54 44.785 57.538 44.7872 57.539C44.7902 57.5403 44.7917 57.544 44.7939 57.5464C44.8006 57.554 44.8072 57.5621 44.8139 57.5729C44.8017 57.6046 44.7932 57.6333 44.7812 57.669C44.7802 57.672 44.7806 57.6784 44.7764 57.6832C44.7727 57.6875 44.7668 57.6898 44.7626 57.6917C44.7292 57.7077 44.6968 57.7213 44.6616 57.7389C44.6587 57.7404 44.6538 57.7446 44.6506 57.7455C44.6448 57.7472 44.6401 57.7452 44.6357 57.7438C44.619 57.7383 44.5975 57.7262 44.5916 57.7203ZM44.7298 57.8478C44.7221 57.8373 44.7208 57.8199 44.7254 57.8141C44.7428 57.818 44.7612 57.8111 44.8182 57.7856C44.8292 57.7806 44.8346 57.7778 44.8432 57.7694C44.8492 57.7637 44.855 57.7578 44.8606 57.7521C44.9344 57.6751 44.9757 57.5959 45.0607 57.5621C45.0732 57.557 45.0924 57.5581 45.1073 57.5549C45.1235 57.5588 45.1394 57.5629 45.154 57.5703C45.1597 57.5733 45.166 57.5813 45.1703 57.581C45.2243 57.5752 45.2632 57.586 45.3004 57.6055C45.3336 57.623 45.3331 57.6475 45.3505 57.6795C45.3486 57.7214 45.3217 57.7554 45.2706 57.8021C45.2639 57.7949 45.2548 57.7899 45.248 57.7872C45.2512 57.7128 45.241 57.731 45.2031 57.6897C45.0656 57.6576 45.078 57.651 44.987 57.7103C44.9807 57.7144 44.962 57.7374 44.9543 57.7453C44.936 57.7641 44.9139 57.7741 44.9024 57.7814C44.8609 57.8157 44.8305 57.8331 44.8113 57.8785C44.8067 57.8893 44.7963 57.8934 44.7741 57.8842C44.7605 57.8742 44.7419 57.8556 44.7298 57.8478ZM45.0098 57.9593C44.9984 57.9475 45.014 57.9342 45.0245 57.9278C45.0542 57.9093 45.0718 57.8862 45.0979 57.8623C45.1031 57.8576 45.1291 57.8633 45.1344 57.8584C45.143 57.8681 45.1487 57.874 45.1575 57.8837C45.1742 57.9016 45.066 57.9773 45.0546 57.9756C45.0425 57.9716 45.0411 57.9601 45.032 57.955C45.0253 57.9522 45.0152 57.9606 45.0098 57.9593Z" fill="#0068AB"/>
<path fill-rule="evenodd" clip-rule="evenodd" d="M37.7748 56.8025C41.7493 56.8025 44.9726 60.0257 44.9726 64.0002C44.9726 67.9748 41.7493 71.198 37.7748 71.198C33.8001 71.198 30.5768 67.9748 30.5768 64.0002C30.5768 60.0257 33.8001 56.8025 37.7748 56.8025ZM39.6827 66.2745L40.3188 67.0887C40.3873 67.0627 40.4557 67.0348 40.5236 67.005C40.5879 66.9766 40.6511 66.947 40.7132 66.9161L40.5328 65.899C40.6518 65.8248 40.7642 65.7437 40.87 65.6569L41.783 66.1424C41.835 66.0908 41.886 66.0375 41.9359 65.9827C41.9832 65.9307 42.0288 65.8779 42.073 65.8244L41.4958 64.9702C41.5738 64.8546 41.6439 64.7343 41.706 64.6103L42.7357 64.6825C42.7622 64.6141 42.7872 64.5447 42.8105 64.4743C42.8324 64.4076 42.8528 64.3408 42.8712 64.2739L41.9989 63.73C42.0238 63.5923 42.0396 63.4529 42.0464 63.3126L43.0121 62.9613C43.0087 62.888 43.0032 62.8144 42.9957 62.7406C42.9888 62.6707 42.9802 62.6015 42.9699 62.5328L41.958 62.3916C41.9245 62.2551 41.8818 62.1196 41.8296 61.9861L42.5646 61.2764C42.5317 61.2109 42.4968 61.1459 42.4599 61.0814C42.4252 61.0205 42.3891 60.9607 42.3517 60.9022L41.3747 61.1833C41.2861 61.0686 41.1909 60.9612 41.0898 60.8612L41.4706 59.9192C41.4137 59.8728 41.3554 59.8275 41.2956 59.7837C41.239 59.7421 41.1817 59.7022 41.1239 59.664L40.3496 60.3148C40.2217 60.2462 40.0895 60.1864 39.9542 60.1357L39.919 59.1243C39.8482 59.105 39.7765 59.0874 39.704 59.0717C39.6354 59.0567 39.5669 59.0435 39.4984 59.0321L39.0577 59.938C38.9125 59.9271 38.7662 59.926 38.6199 59.9348L38.1782 59.0293C38.1058 59.0404 38.0331 59.0535 37.9605 59.0685C37.8918 59.0828 37.8238 59.0987 37.7566 59.1161L37.7225 60.1203C37.5862 60.1696 37.452 60.2286 37.3205 60.2975L36.5493 59.6504C36.4876 59.6901 36.4266 59.7316 36.3664 59.7749C36.3094 59.8159 36.2537 59.858 36.1996 59.9012L36.5327 60.7237C36.8297 60.8528 37.2341 61.1718 37.3896 61.3969C37.4836 61.3209 37.585 61.2513 37.6933 61.1894C38.7817 60.568 40.1683 60.9467 40.7896 62.0351C41.411 63.1234 41.0323 64.5099 39.944 65.1312C39.8616 65.1782 39.7778 65.2195 39.6927 65.2551L39.6827 66.2745ZM36.4113 62.778V66.9701C36.4113 67.1689 36.6652 67.3302 36.9781 67.3302C37.291 67.3302 37.5449 67.1689 37.5449 66.9701V62.8406C37.5396 61.7799 36.5265 60.9244 35.278 60.9244C34.0294 60.9244 33.0163 61.7799 33.0111 62.8366L33.011 62.8447C33.011 62.8955 33.011 62.8957 33.011 62.8447L33.0113 66.6441L34.1444 67.7787V62.778C34.1444 62.3804 34.652 62.0579 35.2779 62.0579C35.9038 62.0579 36.4113 62.3804 36.4113 62.778ZM38.1135 67.1768V63.0346L39.2469 63.0353L39.247 67.1142C39.2417 68.1748 38.2286 69.0303 36.9801 69.0303C35.7315 69.0303 34.7184 68.1748 34.7131 67.1182L34.7131 67.11C34.7131 67.0591 34.7131 67.0592 34.7131 67.11L34.7196 63.0206L35.8465 63.024V67.1768C35.8465 67.5743 36.3541 67.8968 36.98 67.8968C37.6058 67.8968 38.1135 67.5743 38.1135 67.1768Z" fill="#0068AB"/>
<path fill-rule="evenodd" clip-rule="evenodd" d="M29.4899 59.0734L30.8896 59.9032L30.5666 60.4872L30.3643 60.3673L30.5637 60.007L30.1966 59.7893L30.053 60.0489L29.8507 59.929L29.9944 59.6695L29.5763 59.4216L29.377 59.7819L29.1668 59.6573L29.4899 59.0734ZM29.1223 59.7223L30.491 60.6476L30.3597 60.9555L28.777 60.5325L28.8802 60.2902L29.2198 60.3887L29.3215 60.1504L29.0236 59.9536L29.1223 59.7223ZM29.5182 60.2756L29.4416 60.4554L30.0921 60.6566L30.0984 60.6418L29.5182 60.2756ZM29.1383 60.7144L29.0996 60.9602C29.0202 60.9388 28.9578 60.9351 28.9126 60.9491C28.8671 60.9629 28.8365 60.9959 28.8206 61.0473C28.8067 61.092 28.8092 61.1327 28.8276 61.1699C28.8462 61.2067 28.8779 61.2326 28.9224 61.2473C29.0025 61.274 29.1264 61.2422 29.2943 61.1525L29.3236 61.1365C29.4884 61.0491 29.6098 60.9978 29.6884 60.9833C29.7664 60.969 29.8431 60.9742 29.9182 60.9991C30.0267 61.0352 30.1066 61.1023 30.1577 61.2005C30.2087 61.299 30.2178 61.4011 30.1847 61.5079C30.1526 61.6112 30.0923 61.6844 30.0032 61.7277C29.9145 61.7713 29.8103 61.7784 29.6902 61.749L29.7322 61.498C29.8021 61.5163 29.8553 61.5203 29.8915 61.5092C29.9278 61.4979 29.9526 61.471 29.9659 61.4277C29.9784 61.3879 29.9751 61.352 29.9567 61.3195C29.9384 61.2873 29.9073 61.2636 29.8642 61.2494C29.7749 61.2197 29.6346 61.2581 29.4429 61.3642L29.4246 61.374C29.2833 61.4517 29.1737 61.497 29.0953 61.51C29.0173 61.523 28.936 61.5155 28.8527 61.4878C28.7405 61.4505 28.66 61.384 28.6102 61.2884C28.5608 61.1923 28.553 61.0896 28.5873 60.9794C28.625 60.8577 28.6927 60.7737 28.79 60.7268C28.8873 60.6803 29.0034 60.6763 29.1383 60.7144ZM29.8087 61.7311L30.036 61.7844L29.866 62.5578L29.6387 62.5045L29.6962 62.2428L28.3504 61.9267L28.4056 61.6755L29.7515 61.9916L29.8087 61.7311ZM28.5673 63.1802L29.3932 63.2216C29.5203 63.2279 29.6179 63.2688 29.6867 63.3438C29.7553 63.419 29.7866 63.5198 29.7806 63.6462C29.7748 63.7653 29.7335 63.8579 29.6564 63.924C29.5788 63.9901 29.4764 64.0197 29.3485 64.0132L29.1937 64.0055L29.2063 63.7411L29.3836 63.75C29.4392 63.7528 29.4816 63.7439 29.5104 63.7228C29.5393 63.7017 29.5549 63.6694 29.557 63.6256C29.559 63.5819 29.5465 63.548 29.5198 63.5242C29.4932 63.5004 29.4519 63.4872 29.3963 63.4844L28.497 63.4393C28.4411 63.4365 28.3987 63.4454 28.369 63.4665C28.3399 63.4876 28.3242 63.52 28.3221 63.5636C28.32 63.6074 28.3325 63.6412 28.3596 63.665C28.3871 63.689 28.4284 63.7021 28.4843 63.7049L28.7038 63.7159L28.6912 63.9803L28.5227 63.9718C28.3816 63.9648 28.2744 63.925 28.2011 63.8522C28.128 63.7795 28.0942 63.6795 28.1003 63.5525C28.1066 63.4225 28.1492 63.3258 28.2281 63.2631C28.307 63.2003 28.4201 63.1728 28.5673 63.1802ZM29.7289 64.0663L29.7426 64.3211L29.085 64.3596L29.0988 64.6172L29.7563 64.5787L29.7701 64.836L28.159 64.9301L28.1453 64.6729L28.866 64.6308L28.8522 64.3731L28.1316 64.4153L28.1179 64.1604L29.7289 64.0663ZM28.2013 65.2019L29.7984 64.9627L29.8344 65.2224L28.2373 65.4616L28.2013 65.2019ZM28.2533 65.7205L29.8176 65.3098L29.8723 65.5339L29.0148 66.0964C28.9982 66.1072 28.9764 66.1207 28.9489 66.1369C28.9215 66.1534 28.8919 66.1706 28.86 66.1883C28.9035 66.1683 28.9439 66.1504 28.9811 66.1353C29.0186 66.1198 29.046 66.1098 29.0642 66.105L29.9545 65.8712L30.0116 66.1053L28.4472 66.516L28.3902 66.282L29.1804 65.7502C29.1833 65.7478 29.1884 65.7445 29.1952 65.7401C29.2492 65.7036 29.2964 65.6745 29.3374 65.6528C29.2845 65.676 29.2407 65.6949 29.2054 65.7094C29.17 65.724 29.1444 65.7332 29.1278 65.7376L28.3098 65.9523L28.2533 65.7205ZM28.4587 66.6495L30.0647 66.3296L30.1768 66.6455L28.7534 67.4802L28.6653 67.2318L28.9759 67.0583L28.8893 66.8139L28.5429 66.8868L28.4587 66.6495ZM29.1149 66.7623L29.1803 66.9466L29.7836 66.6231L29.7783 66.6079L29.1149 66.7623ZM30.5331 67.5567L30.6648 67.7821L29.5955 68.4532C29.5554 68.4784 29.5298 68.5092 29.5184 68.5453C29.5072 68.5819 29.5115 68.6175 29.532 68.6525C29.5523 68.6873 29.58 68.7073 29.6151 68.7124C29.6506 68.7174 29.6882 68.7072 29.729 68.6816L30.7982 68.0104L30.9293 68.2348L29.8972 68.8826C29.7756 68.9589 29.6655 68.9884 29.5658 68.9711C29.4665 68.9536 29.3851 68.8904 29.3216 68.7818C29.2573 68.6718 29.2409 68.5669 29.2724 68.4674C29.3037 68.3679 29.3819 68.2792 29.5068 68.2008L30.5331 67.5567ZM29.6689 69.315L30.9546 68.304L31.0894 68.488L30.512 69.3525C30.5008 69.3693 30.4858 69.3905 30.4666 69.4166C30.4475 69.4429 30.4268 69.4707 30.4041 69.4998C30.4367 69.4638 30.467 69.431 30.4957 69.4021C30.5244 69.3727 30.5458 69.3523 30.5607 69.3406L31.2925 68.7651L31.4333 68.9574L30.1476 69.9685L30.0068 69.7762L30.5338 68.9671C30.5357 68.9636 30.5391 68.9585 30.5438 68.9519C30.5797 68.8964 30.6121 68.8506 30.6417 68.814C30.6018 68.8566 30.5686 68.8917 30.5416 68.9194C30.5145 68.9472 30.4943 68.966 30.4807 68.9767L29.8083 69.5054L29.6689 69.315ZM30.3237 70.1689L31.5196 69.0457L31.6896 69.24L30.4938 70.3631L30.3237 70.1689ZM31.6861 69.2629L31.8615 69.4371L31.307 70.258C31.2717 70.3104 31.2368 70.3583 31.2027 70.4015C31.1683 70.4449 31.1318 70.487 31.0938 70.5281L31.0736 70.55C31.1243 70.4986 31.1727 70.4515 31.2192 70.4087C31.2658 70.3658 31.3082 70.3285 31.3464 70.297L32.1118 69.6856L32.2881 69.8609L30.9648 70.8629L30.777 70.6766L31.6861 69.2629ZM31.2908 71.1868L32.3242 69.9023L32.8229 70.3326L32.6736 70.5181L32.3659 70.2526L32.0948 70.5895L32.3166 70.7809L32.1673 70.9664L31.9456 70.7751L31.6369 71.1587L31.9446 71.4242L31.7895 71.6171L31.2908 71.1868ZM32.9229 70.6826L32.6618 71.0863L32.7435 71.1429C32.7913 71.176 32.8337 71.184 32.8717 71.1671C32.9097 71.1503 32.9547 71.1011 33.0068 71.0205C33.0541 70.9473 33.0769 70.8901 33.0757 70.8488C33.0741 70.8073 33.0479 70.7692 32.9973 70.7342L32.9229 70.6826ZM32.5321 71.287L32.1544 71.8711L31.9479 71.7279L32.846 70.3387L33.1492 70.5488C33.2631 70.6277 33.3245 70.7163 33.3344 70.8149C33.3442 70.9134 33.3033 71.0332 33.2121 71.1742C33.156 71.2611 33.1002 71.3246 33.0449 71.3642C32.9899 71.4039 32.9281 71.4242 32.8603 71.4257L32.5949 72.1763L32.381 72.0281L32.6305 71.3552L32.5321 71.287ZM32.8719 71.8652L33.0974 71.9511C33.0618 72.0278 33.0464 72.0906 33.051 72.1392C33.0554 72.188 33.0807 72.2255 33.1264 72.2514C33.1662 72.274 33.2052 72.2791 33.244 72.2674C33.2825 72.2555 33.313 72.2283 33.3356 72.1858C33.3762 72.1093 33.3698 71.9774 33.317 71.7898L33.3075 71.7568C33.2562 71.5727 33.231 71.4395 33.2322 71.3569C33.2336 71.2748 33.2533 71.1978 33.2914 71.1262C33.3463 71.0228 33.4252 70.9542 33.5281 70.9209C33.6313 70.8878 33.7298 70.8979 33.8245 70.9518C33.9163 71.004 33.9742 71.0793 33.9981 71.178C34.0223 71.2765 34.0092 71.3838 33.9582 71.5003L33.7285 71.4101C33.7592 71.3425 33.7732 71.2892 33.7695 71.2502C33.7659 71.2112 33.7451 71.1808 33.7067 71.159C33.6713 71.1389 33.6366 71.1354 33.6023 71.1478C33.5682 71.1604 33.54 71.1875 33.5181 71.2286C33.4729 71.3137 33.4824 71.4637 33.5462 71.6788L33.5519 71.6991C33.5985 71.8576 33.6204 71.9777 33.6175 72.0598C33.6149 72.1417 33.5922 72.2229 33.55 72.3024C33.4932 72.4093 33.4148 72.4785 33.3145 72.5111C33.214 72.5431 33.1151 72.5313 33.0173 72.4758C32.9092 72.4142 32.8425 72.3295 32.8169 72.2216C32.7915 72.1139 32.8099 71.9951 32.8719 71.8652ZM33.5436 72.7036L34.2212 71.1862L34.4511 71.2962L33.7735 72.8136L33.5436 72.7036ZM34.3599 71.5257L34.4428 71.2999L35.1584 71.5812L35.0755 71.8069L34.8335 71.7117L34.3426 73.0485L34.1101 72.9572L34.601 71.6204L34.3599 71.5257ZM35.0475 71.5627L35.2917 71.6294L35.283 72.318L35.2981 72.3221L35.6119 71.717L35.8565 71.7837L35.3347 72.6525L35.1634 73.3231L34.9229 73.2575L35.0865 72.6169L35.0475 71.5627ZM36.9098 73.2725L36.9856 72.3427C36.9903 72.2852 36.9832 72.2412 36.9639 72.2105C36.9445 72.18 36.9139 72.1627 36.8718 72.159C36.8296 72.1554 36.7965 72.1672 36.7726 72.194C36.7486 72.2209 36.7344 72.2632 36.7297 72.3206L36.6539 73.2504C36.6492 73.3078 36.6563 73.352 36.6755 73.3833C36.6949 73.4142 36.7255 73.4315 36.7676 73.4352C36.8098 73.4388 36.8429 73.427 36.8669 73.3998C36.8909 73.3722 36.9051 73.3299 36.9098 73.2725ZM36.4761 72.3149C36.4868 72.1836 36.5297 72.084 36.6045 72.0152C36.6796 71.9468 36.7779 71.9177 36.8997 71.9283C37.0144 71.9381 37.1023 71.9842 37.1632 72.0667C37.2242 72.1487 37.2491 72.2558 37.2384 72.3879L37.1687 73.2415C37.1569 73.3873 37.1146 73.4968 37.0418 73.5702C36.9689 73.6434 36.8712 73.675 36.7489 73.6644C36.6252 73.6537 36.534 73.6063 36.4754 73.522C36.4169 73.4378 36.3941 73.3198 36.4064 73.1684L36.4761 72.3149ZM37.3627 73.6735L37.386 72.0024L38.0342 72.0115L38.0308 72.253L37.6313 72.2473L37.6252 72.6856L37.9132 72.6897L37.9098 72.9311L37.6218 72.927L37.6113 73.677L37.3627 73.6735ZM38.8264 73.1955L39.0566 73.1235C39.0727 73.2068 39.0968 73.2666 39.1288 73.3025C39.1607 73.3387 39.2026 73.3527 39.2543 73.345C39.2991 73.3382 39.3333 73.318 39.3576 73.2845C39.3814 73.251 39.39 73.2103 39.3833 73.1623C39.3714 73.076 39.2896 72.9747 39.1383 72.8577L39.1116 72.8375C38.9637 72.7225 38.8661 72.6319 38.8191 72.5652C38.7725 72.4989 38.7435 72.4251 38.7323 72.3443C38.7162 72.2276 38.7394 72.1236 38.8023 72.0329C38.8654 71.9421 38.9501 71.8887 39.0572 71.8727C39.1609 71.8572 39.2508 71.8812 39.3273 71.9451C39.4038 72.0085 39.4558 72.1025 39.4827 72.2271L39.2466 72.2983C39.2319 72.2252 39.212 72.1739 39.1865 72.1451C39.1609 72.1163 39.1267 72.105 39.0833 72.1115C39.0434 72.1175 39.0137 72.1363 38.9934 72.1677C38.9735 72.1989 38.9665 72.2382 38.973 72.2847C38.9863 72.3807 39.081 72.4945 39.257 72.6264L39.2735 72.6391C39.4028 72.7365 39.49 72.8186 39.5355 72.886C39.581 72.9529 39.61 73.0319 39.6224 73.1217C39.6392 73.2423 39.6166 73.3465 39.5554 73.435C39.4938 73.5232 39.4079 73.5755 39.2974 73.5921C39.1753 73.6103 39.0727 73.5842 38.9895 73.5142C38.9067 73.4441 38.8523 73.3379 38.8264 73.1955ZM39.7321 73.0527L39.5437 72.2189C39.5147 72.0907 39.5258 71.9822 39.5764 71.8929C39.6275 71.8039 39.7124 71.7448 39.8314 71.7158C39.9434 71.6886 40.0408 71.7041 40.1232 71.7626C40.2059 71.8215 40.2615 71.9153 40.2907 72.0444L40.326 72.2007L40.0771 72.2612L40.0367 72.0823C40.024 72.0263 40.0041 71.9865 39.9766 71.9636C39.9492 71.9407 39.9148 71.9341 39.8736 71.9441C39.8324 71.9541 39.8045 71.9759 39.7897 72.0091C39.7749 72.0423 39.774 72.0871 39.7867 72.1432L39.9919 73.051C40.0047 73.1075 40.0245 73.1473 40.0522 73.1709C40.0798 73.1942 40.1141 73.2008 40.1553 73.1908C40.1965 73.1807 40.2245 73.159 40.2392 73.1254C40.2538 73.0914 40.2546 73.0466 40.2418 72.9902L40.1918 72.7686L40.4406 72.7081L40.4791 72.8782C40.5112 73.0206 40.5038 73.1383 40.4564 73.2314C40.4089 73.3243 40.3253 73.3856 40.2059 73.4147C40.0835 73.4444 39.9821 73.4286 39.9022 73.3674C39.8222 73.3062 39.7656 73.2013 39.7321 73.0527ZM40.7596 73.2063L40.2832 71.6101L40.5253 71.5324L41.0016 73.1286L40.7596 73.2063ZM41.2392 73.0386L40.6565 71.4808L41.2621 71.2372L41.3463 71.4623L40.9726 71.6125L41.1255 72.0211L41.3947 71.9128L41.4789 72.138L41.2097 72.2462L41.3836 72.7114L41.7573 72.5611L41.8448 72.795L41.2392 73.0386ZM42.1251 72.6575L41.3633 71.1851L41.5601 71.0757L42.2935 71.8008C42.3077 71.8149 42.3256 71.8335 42.3474 71.8573C42.3695 71.8808 42.3927 71.9064 42.417 71.9341C42.3878 71.8953 42.3612 71.859 42.3382 71.8253C42.3147 71.7914 42.2986 71.7662 42.2898 71.7493L41.8562 70.9112L42.0616 70.797L42.8234 72.2693L42.618 72.3836L41.9293 71.7186C41.9264 71.7162 41.922 71.7119 41.9164 71.7061C41.8692 71.6607 41.8307 71.6204 41.8003 71.5844C41.8348 71.632 41.863 71.6713 41.8851 71.7034C41.9073 71.7353 41.9221 71.7588 41.9302 71.7745L42.3284 72.5444L42.1251 72.6575ZM42.7774 71.8005L42.3129 71.0923C42.2415 70.9834 42.2143 70.8781 42.2308 70.7759C42.2477 70.6739 42.3064 70.5872 42.4076 70.516C42.5028 70.449 42.5991 70.4273 42.6965 70.4513C42.7939 70.4757 42.8783 70.5426 42.9502 70.6522L43.0373 70.785L42.8258 70.9339L42.7261 70.7818C42.6949 70.7343 42.6626 70.7045 42.6289 70.6934C42.5953 70.6823 42.561 70.6888 42.526 70.7135C42.491 70.7381 42.4725 70.7688 42.4701 70.8053C42.4678 70.8417 42.4824 70.8838 42.5137 70.9314L43.0194 71.7025C43.0509 71.7505 43.0832 71.7802 43.1172 71.792C43.1511 71.8034 43.1854 71.7968 43.2204 71.7723C43.2554 71.7476 43.2739 71.7169 43.2761 71.6801C43.278 71.643 43.2632 71.601 43.2319 71.5529L43.1084 71.3647L43.3199 71.2159L43.4147 71.3603C43.494 71.4814 43.5277 71.594 43.5156 71.6984C43.5034 71.8028 43.4466 71.8909 43.3451 71.9624C43.2411 72.0357 43.141 72.0585 43.0451 72.0311C42.9493 72.0037 42.8602 71.9267 42.7774 71.8005ZM43.8244 71.5712L42.8053 70.2766L43.3089 69.8513L43.4561 70.0383L43.1454 70.3008L43.4126 70.6403L43.6365 70.4512L43.7838 70.6382L43.5599 70.8273L43.8643 71.2139L44.1749 70.9514L44.3279 71.1458L43.8244 71.5712ZM44.6379 70.853L43.6577 69.4983L43.8827 69.2554L45.2298 70.2137L45.0528 70.4049L44.7662 70.1919L44.5921 70.38L44.807 70.6704L44.6379 70.853ZM44.4486 70.1926L44.58 70.0507L44.0354 69.6312L44.0245 69.6428L44.4486 70.1926ZM45.304 70.0812L44.0472 69.0346L44.1871 68.8544L45.1361 69.2247C45.1545 69.2318 45.178 69.2419 45.207 69.2548C45.2362 69.2675 45.2672 69.2817 45.3 69.2973C45.2585 69.2734 45.2204 69.2508 45.1865 69.2291C45.152 69.2075 45.1277 69.1908 45.1131 69.1788L44.3978 68.5831L44.5439 68.3948L45.8008 69.4413L45.6546 69.6295L44.7697 69.2964C44.7661 69.2954 44.7604 69.2932 44.7531 69.2901C44.6925 69.2675 44.6417 69.246 44.6003 69.2252C44.6499 69.2549 44.6908 69.2798 44.7233 69.3003C44.7557 69.3207 44.7783 69.3363 44.7916 69.3475L45.4488 69.8948L45.304 70.0812ZM45.8665 68.8819L45.933 68.7708C45.9561 68.7323 45.9617 68.6959 45.9495 68.6625C45.9371 68.6286 45.9065 68.5959 45.8573 68.5644L45.1975 68.1408C45.1412 68.1047 45.0916 68.0923 45.0486 68.1038C45.0055 68.1151 44.9657 68.1509 44.9295 68.2112L44.8996 68.2612L45.8665 68.8819ZM45.9384 69.2285L44.5677 68.3486L44.7541 68.0373C44.8264 67.9165 44.9106 67.8471 45.0065 67.8283C45.1028 67.8098 45.2148 67.8418 45.343 67.9241L45.9553 68.3171C46.0886 68.4027 46.1692 68.4924 46.1971 68.5866C46.2247 68.6804 46.2027 68.7875 46.1309 68.9072L45.9384 69.2285ZM45.2652 67.5797L45.0521 67.4825L45.3614 66.7567L45.5745 66.8541L45.4699 67.0996L46.7326 67.6759L46.6321 67.9117L45.3694 67.3354L45.2652 67.5797ZM46.889 67.3117L45.3619 66.7739L45.5715 66.137L45.7921 66.2148L45.6627 66.6078L46.0633 66.7488L46.1565 66.4656L46.3771 66.5434L46.2839 66.8265L46.7399 66.9871L46.8693 66.5941L47.0985 66.6748L46.889 67.3117ZM46.749 66.3006L45.9427 66.1112C45.8187 66.0821 45.7294 66.0243 45.6742 65.9381C45.6194 65.8516 45.6053 65.7468 45.6324 65.6232C45.658 65.507 45.7143 65.4232 45.8014 65.372C45.8888 65.3208 45.9946 65.3101 46.1194 65.3394L46.2706 65.3749L46.2138 65.6331L46.0408 65.5925C45.9865 65.5797 45.9433 65.5809 45.9113 65.5964C45.8794 65.6121 45.8586 65.6411 45.8492 65.6838C45.8398 65.7265 45.8465 65.7621 45.8687 65.7904C45.891 65.8187 45.9295 65.839 45.9837 65.8518L46.8616 66.058C46.9163 66.0708 46.9594 66.0696 46.9922 66.0542C47.0245 66.0388 47.0453 66.0096 47.0547 65.9669C47.064 65.9242 47.0574 65.8887 47.0348 65.8603C47.0118 65.8318 46.9733 65.8114 46.9187 65.7987L46.7043 65.7483L46.7612 65.4902L46.9257 65.5287C47.0634 65.5611 47.1623 65.6195 47.2222 65.7044C47.282 65.7893 47.2985 65.8939 47.2712 66.0178C47.2432 66.1448 47.185 66.2322 47.0968 66.2799C47.0086 66.3275 46.8926 66.3343 46.749 66.3006ZM45.7519 65.1978L45.7812 64.9443L46.4352 65.0248L46.4648 64.7685L45.8109 64.6881L45.8404 64.4323L47.4424 64.6294L47.4128 64.8852L46.6962 64.7971L46.6665 65.0533L47.3832 65.1414L47.3539 65.3949L45.7519 65.1978ZM47.4394 64.3775L45.8258 64.3841L45.8252 64.1529L46.7883 63.8219C46.807 63.8154 46.8314 63.8079 46.8617 63.7991C46.8923 63.7899 46.9249 63.7807 46.96 63.7715C46.9132 63.7799 46.8698 63.7872 46.8302 63.7926C46.7902 63.7981 46.7612 63.8011 46.7426 63.8011L45.8242 63.805L45.8235 63.5635L47.437 63.5568L47.4377 63.7982L46.5469 64.1164C46.5435 64.1179 46.5378 64.12 46.5302 64.1224C46.4694 64.1443 46.4168 64.1607 46.3718 64.1716C46.4286 64.1623 46.4754 64.1549 46.5131 64.1497C46.5508 64.1444 46.5778 64.142 46.5949 64.1419L47.4387 64.1384L47.4394 64.3775ZM47.0085 62.8349L46.1129 62.9361C46.0576 62.9424 46.0171 62.958 45.9917 62.9835C45.9665 63.009 45.9559 63.0435 45.9604 63.0871C45.9649 63.1306 45.9824 63.1619 46.0124 63.1812C46.0424 63.2004 46.0852 63.2067 46.1405 63.2004L47.0361 63.0993C47.0914 63.093 47.1318 63.0772 47.1579 63.0517C47.1836 63.0262 47.1942 62.9917 47.1896 62.9481C47.1851 62.9046 47.1676 62.8732 47.1373 62.8541C47.1065 62.8349 47.0638 62.8286 47.0085 62.8349ZM46.1832 63.4595C46.0568 63.4738 45.9542 63.4493 45.8748 63.3864C45.7958 63.3231 45.7496 63.2287 45.7364 63.1028C45.7241 62.9844 45.7509 62.8862 45.8176 62.8084C45.8837 62.7307 45.9805 62.6848 46.1077 62.6704L46.9299 62.5775C47.0704 62.5616 47.1823 62.5835 47.2655 62.6435C47.3488 62.7036 47.3972 62.7969 47.4104 62.9232C47.4238 63.051 47.3961 63.153 47.3273 63.2286C47.2586 63.3042 47.1512 63.3501 47.0054 63.3666L46.1832 63.4595ZM47.2813 62.2948L45.6984 62.6202L45.6508 62.3699L47.005 62.0915L46.9302 61.6991L47.1588 61.6521L47.2813 62.2948ZM46.6474 61.159L45.7915 61.4509C45.7387 61.4689 45.7022 61.493 45.6825 61.5233C45.6629 61.5537 45.6595 61.5897 45.6727 61.6313C45.6859 61.6729 45.7093 61.6999 45.7424 61.7122C45.7756 61.7245 45.8188 61.7215 45.8716 61.7034L46.7275 61.4115C46.7803 61.3935 46.8169 61.3695 46.8372 61.3389C46.8571 61.3084 46.8605 61.2723 46.8474 61.2308C46.8342 61.1892 46.8109 61.1622 46.7773 61.15C46.7434 61.1378 46.7003 61.141 46.6474 61.159ZM45.9654 61.9475C45.8445 61.9887 45.7393 61.9869 45.649 61.9425C45.559 61.8976 45.4948 61.8153 45.4566 61.695C45.4209 61.5818 45.4274 61.48 45.477 61.3896C45.5261 61.2993 45.6116 61.2336 45.7332 61.1921L46.5189 60.9242C46.6532 60.8785 46.767 60.8757 46.8605 60.9165C46.954 60.9573 47.0202 61.0381 47.0584 61.1588C47.0972 61.2809 47.0905 61.3866 47.0385 61.4754C46.9864 61.5641 46.8904 61.6322 46.7512 61.6796L45.9654 61.9475ZM46.4511 60.7665L45.6908 61.1043C45.5739 61.1563 45.4689 61.164 45.3751 61.1279C45.2818 61.0914 45.2108 61.0151 45.1627 60.8987C45.1165 60.7871 45.1136 60.6876 45.1537 60.6011C45.1941 60.5144 45.2767 60.4434 45.402 60.3878L45.5383 60.3273L45.6326 60.5557L45.4758 60.6253C45.4247 60.648 45.3904 60.6753 45.3733 60.7073C45.3563 60.7394 45.3559 60.7755 45.3726 60.8159C45.3892 60.8561 45.4148 60.8807 45.4488 60.89C45.483 60.8994 45.5257 60.8924 45.5768 60.8697L46.4046 60.5019C46.4561 60.4789 46.4904 60.4517 46.5081 60.4193C46.5255 60.3872 46.5259 60.351 46.5092 60.3108C46.4926 60.2705 46.4671 60.2458 46.4326 60.2366C46.3978 60.2276 46.3551 60.2346 46.3036 60.2575L46.0719 60.3605L46.1312 60.5041L45.9424 60.5879L45.7887 60.2159L46.5366 59.8836L46.5836 59.9974L46.4999 60.0887C46.5566 60.0944 46.6036 60.1109 46.6405 60.1378C46.6778 60.165 46.7071 60.2048 46.7287 60.257C46.7724 60.3629 46.7704 60.4591 46.7232 60.5465C46.6759 60.6336 46.5851 60.707 46.4511 60.7665ZM45.0529 60.6252L44.9336 60.3948L45.4257 59.9311L45.4184 59.9169L44.7773 60.0923L44.6578 59.8616L45.6268 59.6637L46.217 59.3356L46.3345 59.5625L45.7707 59.8759L45.0529 60.6252Z" fill="#0068AB"/>
</g>
<defs>
<filter id="filter0_d_185_281" x="0" y="0" width="154" height="157" filterUnits="userSpaceOnUse" color-interpolation-filters="sRGB">
<feFlood flood-opacity="0" result="BackgroundImageFix"/>
<feColorMatrix in="SourceAlpha" type="matrix" values="0 0 0 0 0 0 0 0 0 0 0 0 0 0 0 0 0 0 127 0" result="hardAlpha"/>
<feOffset dy="16"/>
<feGaussianBlur stdDeviation="6.5"/>
<feColorMatrix type="matrix" values="0 0 0 0 0 0 0 0 0 0 0 0 0 0 0 0 0 0 0.03 0"/>
<feBlend mode="normal" in2="BackgroundImageFix" result="effect1_dropShadow_185_281"/>
<feBlend mode="normal" in="SourceGraphic" in2="effect1_dropShadow_185_281" result="shape"/>
</filter>
</defs>
</svg>
