<svg width="154" height="157" viewBox="0 0 154 157" fill="none" xmlns="http://www.w3.org/2000/svg">
<g clip-path="url(#clip0_185_68)" filter="url(#filter0_d_185_68)">
<path d="M41 0H113C131.667 0 141 9.33333 141 28V100C141 118.667 131.667 128 113 128H41C22.3333 128 13 118.667 13 100V28C13 9.33333 22.3333 0 41 0Z" fill="white"/>
<path d="M34.7661 63.4744C34.7661 71.5238 39.2157 79.2435 47.136 84.9353C55.0564 90.6271 65.7986 93.8248 76.9997 93.8248C88.2007 93.8248 98.943 90.6271 106.863 84.9353C114.784 79.2435 119.233 71.5238 119.233 63.4744C119.233 55.425 114.784 47.7052 106.863 42.0134C98.943 36.3216 88.2007 33.124 76.9997 33.124C65.7986 33.124 55.0564 36.3216 47.136 42.0134C39.2157 47.7052 34.7661 55.425 34.7661 63.4744Z" fill="white"/>
<path d="M107.029 58.1751C103.818 52.2335 97.8761 48.7007 91.6133 46.4525C85.0294 44.2043 77.6425 43.562 70.7374 44.6861C64.4747 45.3284 57.8907 47.7372 52.752 51.7518C47.4528 55.6058 44.4017 62.0291 46.6498 68.4525C50.825 79.854 65.117 83.8686 76.0367 84.1897C82.7812 84.8321 90.1681 83.0656 96.2703 80.1751C102.051 77.2846 107.993 72.3065 108.475 65.4014C108.635 62.6715 107.993 60.4233 107.029 58.1751C107.993 60.4233 105.584 55.6058 107.029 58.1751ZM72.9856 45.3284C75.7155 45.0072 78.4455 45.0072 81.1754 45.3284C83.9053 45.8102 86.4747 46.4525 89.044 47.5766H65.2776C65.5987 47.0948 70.7374 45.6496 72.9856 45.3284C75.7155 45.1678 70.7374 45.6496 72.9856 45.3284ZM61.263 80.3357C54.3579 77.7664 46.3287 71.9853 46.8104 63.635C46.8104 54.9634 56.1243 49.8248 63.0294 47.416H63.3506C63.19 47.416 63.19 47.5766 63.0294 47.5766C59.9783 49.1824 57.409 51.1094 55.3214 53.8394C51.3068 58.6569 50.5039 65.562 53.2338 71.1824C55.482 75.5182 59.0148 78.4087 63.19 80.8175C63.19 80.8175 63.3506 80.8175 63.3506 80.978C62.7082 80.8175 61.9053 80.4963 61.263 80.3357C61.9053 80.4963 58.3725 79.2116 61.263 80.3357ZM81.0148 82.7445C75.555 83.3868 69.7739 82.9051 64.7958 80.4963H89.044C86.4747 81.6204 83.7447 82.4233 81.0148 82.7445ZM63.19 79.5328C63.0294 79.5328 62.8688 79.3722 62.7082 79.3722C60.9418 78.4087 59.1754 77.124 57.5696 75.6788L57.409 75.5182C70.4163 75.5182 83.263 75.6788 96.2703 75.6788C96.1097 75.8394 95.9491 75.9999 95.6279 75.9999C94.1827 77.2846 92.4163 78.5693 90.8104 79.5328C90.3287 80.0145 89.044 79.6934 88.4017 79.6934H77.6425C72.825 79.5328 68.0075 79.5328 63.19 79.5328ZM105.102 71.343C101.891 76.1605 96.4309 79.5328 90.971 81.1386H90.6498C90.8104 81.1386 90.8104 80.978 90.971 80.978C96.4309 78.0875 100.767 73.4306 102.051 67.3284C103.497 58.4963 98.0367 51.5912 90.8104 47.416C90.6498 47.416 90.4893 47.416 90.4893 47.2554C90.971 47.416 91.4528 47.5766 91.7739 48.0583C94.825 49.1824 97.555 50.4671 100.124 52.3941C106.548 56.5693 109.278 64.4379 105.102 71.343C106.387 69.416 103.657 73.5912 105.102 71.343Z" fill="#132D81"/>
<path d="M79.8906 73.5913C79.4089 73.7519 78.9271 74.0731 78.6059 74.2337V74.3942C78.6059 74.5548 78.7665 74.5548 78.7665 74.5548C79.2483 74.2337 79.5694 73.9125 79.8906 73.5913ZM64.314 72.6278C64.6351 72.4672 64.7957 72.3066 65.1169 71.9855C65.1169 71.9855 65.1169 71.8249 64.9563 71.6643H64.7957C64.4745 71.9855 64.314 72.1461 64.314 72.6278ZM81.0147 71.6643C80.8541 72.1461 80.8541 72.3066 81.3359 72.3066H81.4964C81.4964 72.3066 81.4964 72.1461 81.3359 72.1461C81.3359 71.6643 81.1753 71.6643 81.0147 71.6643Z" fill="#132D81"/>
<path d="M50.5035 42.7593C51.7882 42.2775 49.8612 40.1899 52.1093 41.314C52.4305 42.1169 51.3064 42.4381 51.467 43.241C51.467 44.3651 52.5911 43.5622 52.1093 42.9198C52.1093 42.7593 52.1093 42.5987 51.9488 42.4381C52.2699 42.4381 52.7517 42.4381 53.0729 42.5987C53.2334 42.5987 53.2334 42.7593 53.0729 42.9198C52.9123 43.241 52.9123 43.5622 52.7517 43.7228V44.0439C52.9123 44.0439 52.9123 44.0439 52.9123 44.2045C52.9123 43.5622 53.7152 42.7593 54.1969 43.0804V43.4016C53.8758 43.8833 53.5546 44.3651 53.2334 44.6863C53.2334 44.8468 53.2334 44.8468 53.0729 45.0074C53.2334 45.0074 54.1969 45.168 54.1969 45.3286C54.0364 45.6498 53.5546 45.9709 53.394 46.4527C53.394 46.7738 54.1969 47.8979 54.3575 48.2191C54.3575 50.6279 53.0729 48.0585 52.4305 47.4162C52.1093 47.8979 51.7882 48.2191 51.467 48.5403C51.3064 48.7009 50.9853 48.8614 50.6641 48.8614V48.5403C50.9853 47.8979 51.3064 47.4162 51.467 46.6133C51.467 46.4527 51.6276 46.2921 51.6276 45.9709C51.467 45.9709 51.467 46.1315 51.3064 46.1315C50.8247 46.7738 50.3429 47.2556 50.0218 47.7374C49.7006 48.0585 49.3794 48.3797 48.8977 48.2191C48.7371 48.2191 48.5765 48.0585 48.4159 48.0585C49.3794 47.095 50.0218 46.2921 50.9853 45.3286C50.8247 45.168 50.8247 45.0074 50.6641 44.8468C50.5035 45.0074 50.5035 45.168 50.5035 45.3286C50.3429 45.4892 50.3429 45.8103 50.3429 45.9709L50.1823 46.1315C49.8612 46.1315 49.54 45.9709 49.2188 45.9709C49.3794 45.8103 49.3794 45.6498 49.0583 45.4892L48.5765 45.0074H49.8612C50.3429 45.0074 50.3429 45.0074 50.3429 44.6863H50.8247C50.6641 44.5257 50.5035 44.5257 50.3429 44.3651C50.3429 44.2045 50.1823 44.2045 50.1823 44.0439L50.3429 43.8833C50.5035 43.8833 50.5035 43.7228 50.5035 43.7228V43.4016C49.7006 43.4016 49.54 44.5257 48.8977 44.6863C47.4524 45.168 48.8977 43.5622 49.54 43.4016C50.1823 43.0804 50.3429 43.0804 50.5035 42.7593C50.3429 42.9198 50.1823 42.7593 50.1823 42.7593C49.8612 42.5987 49.3794 42.4381 49.0583 42.2775C48.8977 42.2775 48.8977 42.1169 48.7371 42.1169L48.5765 41.9563L48.7371 41.7957C49.8612 41.7957 50.1823 41.9563 50.5035 42.7593ZM51.6276 47.5768C51.7882 47.5768 52.7517 46.7738 52.4305 46.4527C51.9488 46.7738 51.7882 47.2556 51.6276 47.5768ZM51.7882 43.8833C51.9488 44.2045 52.1093 44.3651 52.2699 44.6863C52.5911 44.5257 52.5911 44.2045 52.4305 43.8833C52.1093 43.7228 52.1093 43.7228 51.7882 43.8833C52.1093 43.7228 51.9488 44.2045 51.7882 43.8833C52.1093 43.7228 51.9488 44.2045 51.7882 43.8833ZM53.2334 44.0439C52.9123 44.3651 52.5911 44.6863 52.4305 45.0074C52.5911 45.168 52.7517 45.168 52.7517 45.0074C53.0729 44.8468 53.0729 44.5257 53.2334 44.0439C53.2334 44.2045 53.2334 44.2045 53.2334 44.0439ZM51.3064 41.7957C51.3064 41.9563 51.467 41.9563 51.467 42.1169C51.6276 41.9563 51.6276 41.6352 51.467 41.4746C51.467 41.6352 51.3064 41.6352 51.3064 41.7957C51.3064 41.9563 51.3064 41.6352 51.3064 41.7957ZM52.9123 45.3286C52.9123 45.4892 52.9123 45.6498 53.0729 45.8103H53.2334V45.4892C53.2334 45.4892 53.0729 45.4892 52.9123 45.3286ZM99.1604 43.241C99.321 42.5987 99.321 41.9563 99.4816 41.314C99.9634 41.4746 99.8028 41.9563 100.124 42.1169C100.124 42.1169 100.124 41.9563 100.285 41.9563V40.5111C100.285 40.5111 100.445 40.5111 100.445 40.6717C100.606 40.9928 100.606 41.1534 100.766 41.4746V42.1169C101.248 42.7593 101.409 41.6352 101.409 41.4746C101.89 41.9563 102.372 41.9563 102.693 41.4746C103.175 41.7957 103.336 42.2775 102.854 42.7593C103.496 42.7593 104.46 42.9198 104.781 43.5622C104.941 44.3651 104.299 44.3651 103.817 44.3651C103.496 44.3651 102.533 44.2045 102.854 44.8468C102.854 45.3286 101.89 45.4892 101.569 45.6498C101.73 45.6498 101.73 45.8103 101.89 45.8103L102.212 46.1315C102.533 46.7738 101.409 46.6133 101.087 46.6133C101.087 46.4527 101.087 46.4527 101.248 46.2921V46.1315H100.927C100.766 46.2921 100.606 46.2921 100.606 46.4527C100.285 46.9344 99.9634 47.5768 99.6422 47.8979C98.9999 49.3432 98.5181 48.3797 98.0364 47.4162C98.1969 47.4162 98.3575 47.5768 98.3575 47.5768C98.6787 47.7374 98.9999 47.7374 99.1604 47.4162C99.6422 46.9344 99.9634 46.2921 100.285 45.8103V45.6498C99.321 45.6498 98.0364 46.4527 97.394 45.4892C97.2334 45.3286 97.2334 45.0074 97.0729 44.8468C97.5546 44.8468 97.8758 45.0074 98.1969 45.0074C99.321 45.168 100.927 45.6498 101.569 44.5257C101.569 44.3651 99.1604 44.5257 99.9634 44.0439C100.766 44.0439 101.409 44.2045 102.051 44.3651H102.212L103.175 43.8833C103.336 43.8833 103.496 43.7228 103.657 43.5622C103.978 43.4016 103.817 43.241 103.657 43.0804C103.496 43.0804 103.175 42.9198 103.014 42.9198C102.533 43.241 102.854 43.7228 102.212 43.8833C101.89 44.0439 101.569 43.8833 101.248 43.4016C101.087 43.241 101.248 42.9198 101.569 42.7593L101.89 42.4381C101.569 42.2775 101.248 42.2775 101.087 42.5987C101.087 42.7593 101.087 42.9198 100.927 42.9198C100.927 43.0804 100.927 43.0804 100.766 43.241C100.766 43.241 100.606 43.4016 100.445 43.4016L100.285 43.241V43.0804C100.124 42.7593 100.124 42.7593 99.8028 42.9198C99.321 43.241 99.321 43.241 99.1604 43.241ZM101.409 42.9198L101.087 43.241C101.087 43.241 101.087 43.4016 101.248 43.4016C101.409 43.241 101.409 43.241 101.409 42.9198C101.569 43.0804 101.569 42.9198 101.409 42.9198C101.569 42.9198 101.248 43.0804 101.409 42.9198C101.569 42.9198 101.248 43.0804 101.409 42.9198ZM81.4962 38.4235C82.1385 38.4235 82.2991 37.2994 82.9415 37.6206C83.7444 38.1023 82.4597 39.387 82.1385 39.8687C81.978 40.0293 82.1385 40.1899 82.1385 40.3505C82.4597 40.8322 83.1021 40.9928 83.4232 41.1534C83.5838 41.1534 83.5838 41.1534 83.7444 41.314C83.2626 41.6352 82.7809 41.7957 82.4597 41.9563C81.8174 42.2775 81.6568 41.314 81.3356 40.8322C80.8539 41.314 80.2115 41.6352 79.5692 41.314C79.7298 41.1534 79.8904 41.1534 80.051 41.1534C81.4962 40.3505 80.5327 40.1899 80.5327 39.0658H80.8539C81.0145 39.2264 81.3356 39.387 81.4962 39.7082C81.6568 39.387 81.8174 39.0658 81.978 38.9052C81.8174 38.9052 81.6568 39.0658 81.6568 39.0658C81.0145 39.7082 80.6933 38.5841 81.0145 38.1023C80.8539 38.1023 80.6933 38.1023 80.5327 38.2629C80.5327 38.2629 80.3721 38.2629 80.3721 38.4235C80.2115 38.7447 79.8904 39.0658 79.7298 39.2264C79.7298 40.0293 79.5692 40.9928 79.248 41.6352C78.7663 42.7593 78.7663 40.1899 78.7663 40.1899C78.6057 40.3505 78.4451 40.6717 78.1239 40.8322C77.6422 40.9928 77.6422 40.1899 77.9634 40.0293C78.2845 39.7082 78.6057 39.5476 78.9269 39.387C79.248 39.387 79.0875 38.4235 79.248 38.1023C79.0875 38.1023 79.0875 38.1023 79.0875 38.2629L78.6057 38.7447C78.2845 38.9052 77.9634 38.9052 77.8028 38.7447C77.6422 38.4235 77.6422 38.2629 77.9634 38.2629C78.4451 38.1023 78.9269 37.7811 79.248 37.6206L79.4086 37.46C79.4086 36.8176 79.4086 36.3359 79.5692 35.8541C79.5692 35.533 80.051 35.2118 80.3721 35.533C80.6933 35.8541 80.3721 36.8176 80.3721 37.1388L80.5327 36.9782H80.8539V37.2994H80.6933C80.051 37.7811 80.051 37.9417 80.051 38.5841C80.3721 38.5841 80.5327 38.2629 80.3721 37.9417C80.3721 37.7811 80.3721 37.7811 80.5327 37.6206C80.8539 37.46 81.175 37.46 81.4962 37.2994C81.6568 37.2994 81.8174 37.1388 81.8174 36.9782C81.978 36.4965 82.1385 36.1753 82.1385 35.6936C82.2991 35.3724 82.4597 35.2118 82.7809 35.533C83.905 36.0147 82.7809 36.9782 82.1385 37.2994C81.4962 37.7811 81.4962 38.1023 81.4962 38.4235Z" fill="#E00B22"/>
<path d="M50.1823 78.5695C50.3429 78.2483 50.3429 78.0877 50.1823 77.9271C50.1823 77.9271 50.3429 77.9271 50.3429 78.0877L50.9852 78.7301C50.664 78.5695 50.5034 78.5695 50.3429 78.8906C49.5399 79.8541 48.8976 80.6571 48.0947 81.6206C47.6129 82.2629 47.1312 82.7447 46.6494 83.2264C47.2918 81.6206 47.9341 79.6936 48.4159 78.0877C48.4159 78.0877 48.4159 78.2483 48.2553 78.2483C47.4524 79.2118 46.6494 80.0147 45.8465 81.1388C45.6859 81.2994 45.6859 81.46 45.5253 81.46C45.3648 81.6206 45.3648 81.7811 45.5253 81.9417V82.1023C45.2042 81.7811 44.883 81.6206 44.7224 81.46V81.2994H44.883C45.3648 81.7811 46.4888 80.0147 46.6494 79.8541C47.2918 79.2118 49.2188 77.606 48.737 76.4819V76.6425C48.4159 76.3213 48.0947 76.4819 47.9341 76.6425L45.5253 78.5695C45.3648 78.8906 44.5618 79.3724 43.9195 79.3724C43.1166 79.533 42.6348 78.7301 42.7954 78.0877C42.956 77.606 43.2772 77.2848 43.5983 76.9636C44.5618 76.1607 45.2042 75.679 46.1677 74.876C46.3283 74.7155 47.2918 74.2337 46.9706 73.9125V73.752C47.4524 74.2337 47.9341 74.876 47.7735 74.876C47.4524 74.7155 47.2918 74.7155 46.9706 74.876C45.8465 75.8395 44.883 76.6425 43.5983 77.606C43.4378 77.7665 43.2772 78.0877 43.1166 78.4089C42.7954 79.533 44.2407 79.2118 44.7224 79.0512C45.2042 78.5695 45.8465 78.2483 46.1677 77.7665C46.4888 77.4454 48.4159 76.3213 47.9341 75.8395V75.679H48.0947C48.4159 76.1607 48.8976 76.3213 49.2188 76.803C49.3794 76.9636 49.3794 76.9636 49.3794 77.1242C48.8976 78.5695 47.6129 81.46 47.6129 81.6206C47.6129 81.46 49.2188 79.3724 50.1823 78.5695Z" fill="black"/>
<path d="M60.6204 40.8323C60.6204 41.314 60.2992 42.2775 59.6569 42.2775C58.854 42.2775 59.0146 40.8323 59.0146 40.3505C59.1752 40.3505 59.1752 40.3505 59.3357 40.5111L59.8175 40.9929C60.4598 41.4746 60.2992 39.8688 60.1387 39.7082C60.1387 39.5476 58.5328 36.9783 59.8175 37.6206C60.2992 37.9418 60.4598 38.5841 60.781 39.0659L60.9416 38.9053C61.1022 38.5841 61.4233 38.2629 61.5839 37.9418C61.7445 37.7812 62.5474 37.2994 62.5474 37.9418C62.5474 38.4235 62.0657 38.7447 62.0657 39.2264C61.9051 39.5476 62.0657 39.7082 62.3868 39.8688C62.8686 40.3505 62.2263 40.6717 62.0657 40.9929C61.5839 41.6352 62.3868 43.0805 62.708 43.7228C62.8686 44.044 62.8686 44.2045 63.0292 44.5257C63.0292 44.6863 62.8686 44.8469 62.8686 45.0075C62.708 45.0075 62.5474 44.8469 62.3868 44.8469C61.4233 43.5622 61.5839 41.9564 60.6204 40.8323C60.6204 40.6717 60.6204 40.6717 60.6204 40.8323ZM61.4233 39.0659C61.1022 39.2264 60.9416 39.7082 61.1022 40.0294C61.1022 40.1899 61.2627 40.1899 61.4233 40.3505C61.5839 40.1899 61.5839 40.1899 61.5839 40.0294C61.5839 39.8688 61.5839 39.387 61.4233 39.0659C61.5839 39.387 61.1022 39.2264 61.4233 39.0659C61.5839 39.387 61.1022 39.2264 61.4233 39.0659ZM71.219 39.5476C71.5401 39.2264 71.8613 39.0659 71.7007 38.5841L71.219 36.1753C71.219 36.0148 71.0584 34.4089 71.7007 34.7301C72.6642 35.533 71.7007 36.9783 72.343 37.9418H72.5036C72.5036 36.4965 73.7883 38.1024 73.3065 38.1024L72.6642 38.7447C72.6642 38.9053 72.5036 39.0659 72.5036 39.2264C72.6642 40.0294 72.6642 40.6717 72.8248 41.6352C72.8248 41.9564 72.6642 42.4381 72.5036 42.5987C72.343 42.4381 72.343 42.2775 72.343 42.117C72.1825 41.4746 72.1825 40.8323 72.0219 40.3505C72.0219 40.3505 72.0219 40.1899 71.8613 40.0294C71.7007 40.1899 71.5401 40.1899 71.5401 40.3505C71.3795 40.5111 71.0584 40.6717 70.8978 40.5111C70.5766 40.3505 70.5766 40.1899 70.7372 39.8688C70.7372 39.5476 70.8978 39.2264 70.8978 39.0659C70.8978 38.7447 70.2555 38.4235 70.416 38.1024C70.7372 37.6206 70.0949 37.1389 69.7737 36.6571C69.7737 36.6571 72.0219 36.3359 70.5766 37.6206C70.5766 37.7812 70.5766 37.9418 70.7372 37.9418C71.0584 38.1024 71.0584 38.4235 71.0584 38.5841V39.387C71.3795 39.2264 71.219 39.387 71.219 39.5476C71.5401 39.2264 71.219 39.2264 71.219 39.5476Z" fill="#E00B22"/>
<path d="M69.2919 92.3795C68.8101 92.3795 68.489 92.219 68.0072 92.219C68.0072 92.219 67.8466 92.219 67.8466 92.0584C67.8466 92.0584 68.3284 91.8978 68.3284 91.7372C68.6495 90.4525 68.8101 89.3284 68.3284 88.2044C68.1678 87.562 68.1678 87.0803 68.0072 86.5985C68.0072 86.4379 67.8466 86.2773 67.686 85.9562H67.5255C67.3649 86.2773 67.3649 86.7591 67.2043 87.0803C67.2043 86.1168 67.0437 86.2773 66.4014 85.7956C66.2408 86.2773 66.0802 86.7591 66.0802 87.0803C65.759 88.3649 65.4379 89.6496 64.9561 90.7737C64.9561 91.0949 64.7955 91.2554 65.1167 91.416V91.5766C64.6349 91.416 64.1532 91.2554 63.832 91.2554C63.9926 91.2554 63.9926 91.2554 63.9926 91.0949C64.3138 91.0949 64.3138 90.9343 64.4744 90.7737C64.4744 90.6131 65.4379 87.2409 65.759 85.635V85.4744C64.9561 85.1533 64.9561 85.1533 64.4744 86.2773C64.4744 85.7956 64.7955 85.3138 64.7955 84.9927H64.9561C65.5985 85.1533 66.2408 85.3138 66.8831 85.635C67.3649 85.7956 68.0072 85.7956 68.3284 85.9562V86.1168C67.686 86.4379 68.1678 87.8832 68.3284 88.3649C68.3284 88.6861 68.489 89.0073 68.6495 89.3284L69.1313 88.3649C69.2919 87.8832 69.4525 87.562 69.6131 87.0803C69.7736 86.7591 69.7736 86.4379 69.4525 86.1168V85.9562C69.7736 85.9562 70.2554 86.1168 70.5766 86.1168C70.5766 86.1168 70.5766 86.2773 70.416 86.2773C70.0948 86.4379 69.9342 86.5985 69.9342 86.7591C69.7736 87.0803 67.5255 92.0584 68.8101 92.0584C69.2919 92.219 69.2919 92.219 69.2919 92.3795C69.4525 92.3795 69.2919 92.3795 69.2919 92.3795Z" fill="black"/>
<path d="M67.3647 39.0657C68.0071 38.9051 68.3282 38.584 68.6494 38.1022C68.81 37.781 68.81 37.6205 68.81 37.2993C68.6494 36.6569 68.4888 36.9781 67.8465 36.9781V36.8175L68.0071 36.6569L69.2918 35.3723C69.4523 35.3723 69.4523 35.2117 69.4523 35.0511C69.6129 35.0511 69.9341 34.8905 70.0947 35.0511C70.0947 35.0511 70.5764 35.6934 70.0947 35.6934C69.7735 35.854 69.6129 36.0146 69.2918 36.1752C69.1312 36.3358 68.9706 36.3358 68.81 36.4964C69.1312 36.6569 69.4523 36.8175 69.4523 37.1387C69.4523 37.1387 69.6129 37.1387 69.6129 36.9781C69.7735 36.8175 70.2553 36.9781 70.2553 37.1387C70.2553 37.4599 69.9341 37.9416 69.7735 38.1022C69.4523 38.4234 69.6129 38.7445 69.7735 39.0657C69.9341 38.9051 70.0947 38.9051 70.2553 38.7445C69.7735 39.2263 69.9341 40.1898 69.9341 40.6715C69.7735 41.7956 69.1312 41.1533 69.1312 40.1898L68.81 40.511C68.0071 41.3139 68.0071 40.3504 68.4888 39.708L68.9706 38.7445V38.2628C68.81 38.2628 68.81 38.2628 68.81 38.1022C68.6494 38.4234 68.4888 38.7445 68.1677 38.9051C68.0071 39.708 67.6859 39.708 67.3647 39.0657C68.0071 38.9051 67.6859 39.708 67.3647 39.0657C68.0071 38.9051 67.6859 39.708 67.3647 39.0657ZM69.1312 40.0292C69.1312 39.8686 69.1312 39.8686 69.1312 40.0292C68.9706 40.1898 68.81 40.3504 68.81 40.511H68.9706C68.9706 40.3504 69.1312 40.1898 69.1312 40.0292ZM87.9195 41.3139C88.883 41.635 89.6859 41.6351 90.4888 40.8321C90.1677 40.6715 89.8465 40.6715 89.6859 40.8321C89.5253 40.8321 89.3647 40.8321 89.2042 40.6715C89.0436 40.3504 88.883 40.0292 88.883 39.708C89.6859 39.708 90.4888 40.1898 91.2917 40.0292C92.0947 39.708 92.5764 38.1022 93.2188 37.4599C93.5399 37.9416 93.5399 38.7445 93.2188 39.2263C93.0582 39.5475 92.4158 39.8686 92.4158 40.1898C93.0582 40.1898 93.3793 40.0292 93.7005 40.6715C93.5399 40.9927 92.5764 40.8321 92.4158 40.8321C91.6129 40.8321 91.2918 40.9927 90.6494 41.4745C90.3282 41.9562 87.9195 42.7591 87.9195 41.3139C87.7589 41.4745 87.7589 41.4745 87.9195 41.3139C88.7224 41.635 87.9195 41.4745 87.9195 41.3139C88.7224 41.635 87.9195 41.4745 87.9195 41.3139Z" fill="#E00B22"/>
<path d="M37.0145 61.5476C37.1751 61.7082 37.1751 61.7082 37.0145 61.5476C37.1751 62.0293 37.3356 62.0293 37.6568 62.1899C38.1386 62.3505 38.7809 62.3505 39.1021 62.3505C40.3867 62.5111 41.3502 62.6717 42.6349 62.8323C42.9561 62.8323 43.1167 62.8323 43.2772 62.5111H43.4378C43.4378 62.9928 43.2772 63.4746 43.2772 63.7958H43.1167C43.1167 63.6352 42.7955 63.314 42.6349 63.314C41.832 63.1534 41.0291 63.1534 40.2261 62.9928C40.2261 63.4746 40.0656 63.9563 40.0656 64.4381C40.8685 64.5987 41.6714 64.5987 42.4743 64.7593C42.6349 64.7593 42.7955 64.7593 42.9561 64.4381L43.1167 64.2775C43.1167 64.7593 42.9561 65.0804 42.9561 65.5622L42.7955 65.7228C42.7955 65.241 42.4743 65.241 42.1532 65.241C41.3502 65.0804 40.7079 65.0804 40.0656 64.9198C39.1021 64.7593 38.4597 64.7593 37.4962 64.5987C37.1751 64.5987 36.8539 64.4381 36.6933 64.9198H36.5327V64.7593C36.5327 64.2775 36.6933 63.9563 36.6933 63.4746L37.0145 63.7958C37.0145 64.1169 37.1751 64.2775 37.4962 64.2775C38.1386 64.4381 38.7809 64.4381 39.1021 64.5987C39.2626 64.5987 39.5838 64.5987 39.905 64.7593C39.905 64.2775 40.0656 63.7958 40.0656 63.314C39.5838 63.314 37.1751 62.6717 37.1751 63.314H37.0145V63.1534C36.8539 62.3505 36.8539 62.0293 37.0145 61.5476C37.1751 61.7082 36.8539 62.0293 37.0145 61.5476ZM44.2407 53.1972C45.0437 53.679 45.5254 54.0001 46.3283 54.3213C46.4889 54.4819 46.6495 54.4819 46.8101 54.1607H46.9707C46.6495 54.6425 46.4889 54.9636 46.3283 55.2848H46.1678V55.1242C46.3283 54.8031 46.1678 54.6425 46.0072 54.6425C45.8466 54.4819 45.686 54.4819 45.5254 54.3213C44.2407 53.5184 43.1167 53.0366 41.9926 52.2337C41.6714 51.9125 41.3502 51.752 41.0291 52.0731H40.8685C41.0291 51.752 41.3502 51.2702 41.5108 50.949C41.5108 51.1096 41.6714 51.1096 41.5108 51.1096C41.3502 51.4308 41.5108 51.5914 41.6714 51.5914C42.1532 52.0731 43.1167 52.3943 43.759 52.8761C44.0802 52.3943 44.2407 51.9125 44.5619 51.5914C43.759 51.1096 43.1167 50.7885 42.3137 50.4673C42.1532 50.3067 41.9926 50.3067 41.832 50.6279H41.6714V50.4673C41.832 50.1461 41.9926 49.825 42.3137 49.3432H42.4743V49.5038C42.1532 49.825 42.9561 50.1461 43.1167 50.3067C44.4013 51.1096 45.5254 51.5914 46.8101 52.3943C46.9707 52.5549 47.1313 52.5549 47.2918 52.5549C47.4524 52.7155 47.613 52.5549 47.7736 52.3943H47.9342V52.5549L47.4524 53.5184C47.4524 53.5184 47.2918 53.5184 47.2918 53.679V53.5184C47.4524 53.1972 47.2918 53.0366 46.9707 52.8761C46.3283 52.8761 45.686 52.3943 45.0437 52.0731C44.7225 52.3943 44.5619 52.7155 44.2407 53.1972ZM60.4597 84.1899C60.4597 85.314 59.6568 85.9563 58.6933 86.4381C58.5327 86.4381 58.5327 86.5987 58.5327 86.5987C58.3721 87.241 57.8904 89.0074 58.3721 89.6498V89.8104C58.051 89.6498 57.8904 89.4892 57.7298 89.3286V89.0074C57.8904 88.0439 58.051 87.241 58.2115 86.2775C58.2115 85.9563 58.2115 85.9563 57.8904 85.7958C57.7298 86.1169 57.5692 86.2775 57.4086 86.5987C57.248 87.0804 56.9269 87.4016 56.7663 87.8834C56.6057 88.0439 56.6057 88.3651 56.9269 88.5257V88.6863C56.4451 88.5257 56.124 88.2045 55.8028 88.0439V87.8834H56.2845C56.6057 88.2045 56.9269 87.4016 57.0875 87.241C57.8904 86.1169 58.3721 84.8323 59.1751 83.5476C59.3356 83.387 59.3356 83.2264 59.4962 83.0658C59.3356 82.9052 60.4597 83.387 60.4597 84.1899ZM59.0145 85.7958C60.2991 84.8323 59.8174 82.5841 58.8539 84.5111C58.6933 84.9928 58.3721 85.4746 58.051 85.7958C58.3721 86.1169 58.6933 86.1169 59.0145 85.7958ZM116.825 67.9709C116.664 68.4527 116.664 68.9344 116.504 69.2556C116.504 69.095 116.343 69.095 116.343 69.095C116.343 68.7739 116.182 68.7739 116.022 68.6133C115.54 68.4527 110.562 67.4892 110.562 67.9709H110.401C110.562 67.4892 110.562 67.168 110.562 66.6863C110.562 66.6863 110.562 66.5257 110.722 66.5257V66.6863C110.722 67.0074 112.971 67.0074 113.452 67.4892C113.613 67.0074 113.613 66.5257 113.774 66.2045C113.292 66.0439 111.204 65.5622 110.883 66.2045C110.883 66.2045 110.722 66.2045 110.722 66.3651C110.883 65.8834 110.883 65.5622 111.044 65.0804L111.204 64.9198C111.204 65.241 111.365 65.5622 111.686 65.5622C113.292 65.8833 114.737 66.2045 116.343 66.5257H116.664C116.825 66.5257 116.985 66.3651 117.146 66.3651C117.146 66.3651 117.306 66.3651 117.306 66.2045C117.146 66.6863 117.146 67.0074 116.985 67.4892V67.6498C116.825 67.4892 116.664 67.168 116.504 67.0074L114.095 66.5257C113.934 67.0074 113.934 67.4892 113.774 67.8104C114.095 67.9709 116.504 68.6133 116.825 67.9709C116.664 67.9709 116.664 67.9709 116.825 67.9709C116.664 68.4527 116.664 67.9709 116.825 67.9709ZM107.029 81.9417C107.35 81.2994 106.708 81.2994 106.708 80.6571C105.744 79.6936 105.102 78.7301 104.299 77.606C104.139 77.4454 104.139 77.2848 103.978 77.2848C103.817 77.1242 103.657 77.1242 103.496 77.1242H103.336V76.9636C103.817 76.6425 104.299 76.3213 104.62 76.0001C105.263 75.679 105.905 76.1607 106.387 76.4819C107.35 77.4454 108.153 78.2483 108.474 79.6936C108.635 80.3359 108.474 80.8177 107.832 81.1388C107.671 81.46 107.35 81.7812 107.029 81.9417ZM107.35 81.2994C108.153 81.2994 107.993 80.3359 107.993 80.0147C107.511 78.7301 106.708 77.606 105.584 76.8031C105.423 76.6425 104.46 76.6425 104.299 77.2848C105.263 78.5695 107.35 81.2994 107.35 81.2994ZM45.5254 72.949C44.8831 73.2702 44.2407 73.4308 43.759 73.752C43.759 73.752 43.9196 73.752 43.9196 73.5914C44.5619 73.2702 45.5254 71.9855 44.2407 71.825C43.759 71.6644 43.1167 71.825 42.7955 71.825C41.6714 71.9855 40.8685 72.4673 40.0656 72.949C39.7444 73.1096 39.5838 73.4308 39.4232 73.752C39.1021 74.2337 39.4232 74.7155 39.905 74.8761H40.0656C40.7079 74.7155 41.3502 74.3943 41.9926 74.2337C42.3137 74.0731 42.4743 74.0731 42.4743 73.752C42.4743 73.5914 42.4743 73.752 42.4743 73.752C42.4743 73.752 42.6349 73.752 42.6349 73.9125C42.7955 74.2337 42.9561 74.5549 42.9561 75.0366H42.6349C42.4743 74.7155 42.1532 74.8761 41.9926 74.8761C41.3502 75.0366 40.7079 75.3578 40.0656 75.5184H39.5838C38.7809 75.0366 38.6203 74.2337 39.1021 73.5914C39.5838 72.949 40.3867 72.4673 41.0291 72.3067C42.1532 71.825 42.9561 71.6644 44.0802 71.825C44.2407 71.825 44.5619 71.9855 44.7225 72.1461C45.2042 71.9855 45.3648 72.949 45.5254 72.949ZM107.19 52.8761C107.671 52.3943 108.635 51.752 108.635 51.752L108.474 51.9125C108.314 52.2337 107.35 53.0366 107.832 53.5184C108.153 54.1607 109.117 53.679 109.438 53.5184C110.562 53.0366 111.365 52.2337 112.168 51.4308C112.328 51.1096 112.489 49.825 112.007 49.6644H111.686C111.044 50.1461 110.562 50.4673 110.08 50.7885C109.92 50.949 109.598 51.1096 109.759 51.4308L108.795 50.4673H108.956C109.117 50.6279 109.438 50.4673 109.598 50.4673C110.241 49.9855 111.044 49.1826 111.847 49.1826C112.65 49.3432 112.971 50.1461 112.81 50.7885C112.328 52.3943 110.08 53.679 108.635 54.0001H107.993C107.511 53.8396 107.19 52.8761 107.19 52.8761ZM44.4013 70.7009C44.2407 70.3797 44.0802 70.3797 43.759 70.3797C41.9926 71.022 40.2261 71.6644 38.2991 72.1461C39.5838 71.022 41.0291 69.8979 42.4743 68.6133H42.3137C41.0291 69.095 39.905 69.4162 38.6203 69.7374C38.4597 69.7374 38.4597 69.7374 38.2991 69.8979C37.978 70.0585 37.8174 70.2191 37.978 70.5403C37.978 70.5403 37.8174 70.5403 37.8174 70.3797C37.6568 70.0585 37.6568 69.7374 37.4962 69.5768V69.4162H37.6568C37.978 69.7374 38.1386 69.8979 38.2991 69.7374C38.9415 69.5768 39.4232 69.4162 39.7444 69.2556C40.8685 68.9344 41.6714 68.6133 42.7955 68.2921C43.1167 68.2921 43.4378 68.1315 43.4378 67.6498C43.4378 67.6498 43.4378 67.4892 43.5984 67.4892C43.759 67.8104 43.759 68.1315 43.9196 68.2921L43.759 68.4527C42.4743 69.5768 41.3502 70.5403 40.2261 71.6644C41.0291 71.3432 41.832 71.1826 42.6349 70.8615C43.1167 70.7009 43.5984 70.5403 43.9196 70.3797C44.0802 70.2191 44.4013 70.2191 44.2407 69.8979L44.4013 69.7374C44.4013 70.0585 44.5619 70.5403 44.4013 70.7009C44.5619 70.5403 44.2407 70.3797 44.4013 70.7009ZM115.701 62.1899C114.577 62.1899 111.847 61.7082 111.044 62.5111C111.044 62.5111 110.883 62.6717 110.722 62.6717V61.7082C110.722 61.7082 110.722 61.5476 110.883 61.5476C111.365 62.6717 115.861 61.8688 116.985 61.8688H117.306V62.0293C115.701 62.8323 113.934 63.314 112.328 64.1169C113.613 64.1169 115.058 64.1169 116.343 63.9563C116.664 63.9563 116.985 63.4746 117.146 63.4746V64.7593C116.825 63.9563 115.379 64.2775 114.737 64.2775C113.934 64.2775 111.365 63.7958 111.044 64.9198C111.044 64.9198 110.883 64.9198 110.722 64.7593C110.722 64.5987 110.883 63.9563 110.883 63.9563C112.168 63.4746 115.54 62.1899 115.701 62.1899ZM89.686 85.314C89.8466 85.9563 90.0072 86.4381 90.1678 87.0804C90.3283 87.8834 90.4889 88.5257 90.6495 89.3286C90.6495 89.6498 90.8101 89.9709 91.1313 89.8104V89.9709C90.8101 90.1315 90.4889 90.1315 90.3283 90.1315H90.1678V89.9709C90.4889 89.8104 90.4889 89.6498 90.3283 89.3286C90.0072 87.8834 89.686 86.1169 89.2043 84.6717C89.2043 84.3505 88.8831 84.0293 88.5619 84.0293H88.4013C88.5619 83.8687 88.8831 83.7082 89.2043 83.7082C89.2043 83.7082 89.3648 83.8688 89.5254 83.8688C90.3283 85.1534 92.0948 87.5622 92.0948 87.5622C91.9342 87.0804 91.9342 86.5987 91.7736 86.2775C91.613 85.4746 90.9707 83.2264 90.6495 83.2264C90.9707 83.0658 91.613 83.0658 91.7736 83.0658C91.4524 83.2264 92.0948 85.6352 92.2553 86.5987C92.4159 87.4016 92.8977 89.168 92.8977 89.3286C91.613 88.2045 90.6495 86.5987 89.686 85.314ZM102.051 80.0147C102.533 80.4965 102.854 81.1388 103.336 81.46C103.657 81.9417 104.62 83.5476 105.263 83.2264H105.423C105.102 83.387 104.941 83.7082 104.62 83.8688H104.46V83.7082C104.781 83.387 104.299 83.0658 104.139 82.7447C103.336 81.6206 102.533 80.6571 101.73 79.533C101.409 79.2118 101.087 79.0512 100.766 79.2118H100.606C100.766 79.0512 101.087 78.8907 101.248 78.7301H101.569C102.854 79.533 105.263 80.9782 105.423 80.9782C105.423 80.8177 103.978 79.0512 103.175 78.0877C102.854 77.7666 102.693 77.9271 102.372 77.606H102.212C102.533 77.4454 102.854 77.1242 103.175 76.9636V77.1242C102.854 77.4454 105.423 80.6571 106.387 81.7812L106.547 81.9417C104.941 81.6206 103.496 80.9782 102.051 80.0147ZM97.2334 82.7447C97.0729 82.5841 97.0729 82.4235 96.9123 82.2629C96.7517 81.9417 96.5911 81.7812 96.1094 81.9417C95.7882 82.1023 95.6276 82.1023 95.3064 82.2629C95.6276 83.0658 95.9488 83.7082 96.2699 84.6717C96.5911 84.5111 96.9123 84.5111 97.0729 84.3505C97.2334 84.3505 97.2334 84.0293 97.2334 84.0293V83.387C97.5546 84.0293 97.8758 84.9928 97.8758 84.8323C97.5546 84.1899 96.5911 84.6717 96.5911 84.8323C96.7517 85.314 97.0729 87.241 97.8758 87.241C98.6787 86.9198 98.8393 86.5987 98.8393 85.7958C98.9999 86.2775 98.9999 86.9198 99.1605 87.241C98.3575 87.5622 97.7152 87.8834 96.9123 88.2045C96.9123 88.0439 96.9123 88.0439 97.0729 88.0439C97.394 87.8834 97.394 87.7228 97.2334 87.4016C96.9123 86.4381 95.7882 82.1023 94.9853 82.4235H94.8247C94.8247 82.4235 94.8247 82.2629 94.9853 82.2629C95.3064 82.1023 96.4305 81.46 96.9123 81.2994C96.9123 81.9417 97.2334 82.7447 97.2334 82.7447ZM110.241 71.3432C110.08 71.3432 109.92 71.1826 109.759 71.1826C109.277 71.022 109.117 71.1826 108.956 71.5038C108.795 71.6644 108.795 71.9855 108.635 72.1461C109.438 72.4673 110.08 72.949 110.883 73.2702C111.365 72.4673 111.204 72.3067 110.562 71.6644L112.489 72.6279C112.328 72.6279 112.168 72.6279 112.168 72.4673C111.686 72.3067 111.204 73.1096 111.204 73.2702C111.525 73.4308 112.971 74.0731 113.452 74.3943C113.613 74.5549 113.774 74.3943 113.934 74.2337C113.934 74.2337 113.934 74.0731 114.095 74.0731C114.416 73.2702 114.095 72.949 113.452 72.4673C113.934 72.7885 114.416 73.1096 114.737 73.4308C114.416 74.2337 114.095 74.7155 113.613 75.5184L113.452 75.679V75.5184C113.613 75.1972 113.292 75.0366 113.131 74.8761C112.328 74.3943 111.525 74.0731 110.722 73.5914C110.08 73.2702 108.474 72.1461 107.993 72.7885H107.832V72.6279L108.635 71.022C109.598 70.8615 109.759 71.022 110.241 71.3432Z" fill="black"/>
<path d="M53.2337 87.0803C53.2337 86.9197 53.2337 87.0803 53.2337 87.0803C53.3943 86.9197 53.5549 86.7591 53.7154 86.7591C53.876 86.5986 53.876 86.438 54.0366 86.2774C54.8395 84.9927 55.3213 83.708 56.1242 82.584C56.1242 82.4234 56.2848 82.2628 56.2848 82.2628C56.4454 81.9416 56.4454 81.781 56.1242 81.6205H56.4454C57.0877 81.9416 57.73 82.4234 58.3724 82.7445C58.2118 83.2263 57.8906 83.5475 57.73 84.0292C57.73 83.8686 57.8906 83.708 57.8906 83.5475C58.0512 83.0657 58.0512 82.9051 57.5695 82.584C57.4089 82.4234 57.0877 82.4234 56.9271 82.2628C56.4454 83.0657 56.1242 83.7081 55.803 84.511C56.1242 84.6716 56.2848 84.8321 56.6059 84.8321C56.9271 85.1533 57.4089 84.1898 57.5695 84.1898C57.2483 84.8321 56.4454 86.1168 56.4454 86.1168C56.4454 85.9562 56.6059 85.7956 56.6059 85.6351C56.7665 85.3139 56.6059 85.1533 56.2848 84.9927C56.1242 84.8321 55.9636 84.8321 55.803 84.6716L55.6424 84.8321C55.4819 85.3139 54.0366 87.0803 54.6789 87.4015C55.4819 87.8832 56.4454 86.9197 56.6059 87.0803C55.803 87.2409 55.4819 87.5621 55.1607 88.0438C54.3578 87.8832 53.876 87.4015 53.2337 87.0803ZM37.1753 61.0657C37.1753 60.1022 37.3359 59.4599 37.3359 58.4964C37.4965 58.4964 37.657 58.4964 37.8176 58.657C39.5841 59.4599 41.3505 59.9416 43.1169 60.7445C43.2775 60.7445 43.2775 60.7445 43.4381 60.9051C43.4381 60.584 43.5986 59.4599 43.1169 59.4599C42.9563 59.2993 42.6351 59.2993 42.4746 59.2993H42.1534C42.6351 59.2993 43.1169 59.4599 43.4381 59.4599L43.5987 59.6205C43.5987 60.4234 43.5987 61.0657 43.4381 61.8686C41.5111 61.0657 39.5841 60.4234 37.4965 59.4599C37.4965 60.1022 38.2994 61.0657 38.6205 61.2263C38.6205 61.0657 38.6205 61.0657 38.6205 61.2263C38.1388 61.2263 37.657 61.0657 37.1753 61.0657ZM59.0147 89.4891C59.3359 88.8467 59.4965 88.2044 59.8176 87.5621C59.8176 88.0438 59.657 88.6862 59.657 89.1679C59.8176 89.6497 60.2994 89.8102 60.6205 89.3285C61.1023 88.8467 61.2629 88.2044 61.1023 87.7226C60.6205 86.2774 60.1388 85.3139 61.2629 84.0292C62.0658 83.2263 62.5476 84.511 63.0293 84.0292C62.7081 84.6716 62.5476 85.3139 62.2264 85.9562C62.2264 85.3139 62.5476 84.8321 62.2264 84.3504C61.9052 83.2263 60.9417 84.9927 60.9417 85.6351C61.1023 86.1168 61.2629 86.5986 61.4235 86.9197C61.9052 88.0438 60.7811 91.4161 59.4965 89.6497C59.1753 89.1679 59.1753 89.1679 59.0147 89.4891C59.1753 89.1679 59.1753 88.8467 59.0147 89.4891ZM45.0439 57.3723C45.0439 57.3723 45.0439 57.5329 45.0439 57.3723C44.8833 57.854 44.7227 58.0146 44.5622 58.3358V58.1752C44.7227 57.854 44.0804 57.3723 43.7592 57.3723C42.7957 56.8905 41.9928 56.2482 41.0293 55.927C40.5476 55.6059 40.2264 55.2847 39.7446 54.9635C38.6205 53.3577 41.1899 53.3577 41.9928 53.6789C43.1169 54.1606 43.9198 54.8029 45.0439 55.2847C45.2045 55.4453 45.3651 55.4453 45.6862 55.6059C45.8468 55.7664 46.168 55.7664 46.3286 55.2847C46.3286 55.4453 46.4892 55.4453 46.3286 55.6059C46.168 55.927 46.0074 56.2482 45.6862 56.7299H45.5257V56.5694C45.6862 56.4088 45.5257 56.2482 45.3651 56.0876L45.2045 55.927C44.241 55.4453 43.2775 54.8029 42.314 54.3212C41.9928 54.1606 39.2629 53.1971 40.0658 54.6424C40.2264 54.9635 40.387 55.2847 40.7081 55.4453C41.5111 56.2482 43.1169 56.8905 44.241 57.3723C44.4016 57.5329 44.5622 57.5329 44.7227 57.5329C44.7227 57.6935 44.7227 57.6935 45.0439 57.3723ZM80.6935 86.9197C80.3724 86.438 79.73 85.7956 79.4089 86.5986C79.0877 87.7227 79.8906 88.0438 80.6935 88.6862C81.657 89.4891 81.9782 90.4526 81.9782 91.5767C81.8176 92.219 81.4965 92.3796 80.8541 92.219C80.533 92.0584 80.3724 92.0584 80.3724 92.5402C80.2118 91.7373 79.8906 90.4526 79.8906 90.4526C79.8906 90.6132 80.0512 90.7737 80.0512 90.9343C80.2118 91.0949 80.8541 92.3796 81.3359 92.0584C82.2994 91.5767 81.1753 89.8102 80.533 89.4891C79.5695 88.8467 78.9271 87.7227 79.4089 86.5986C79.73 85.4745 80.6935 86.7591 80.6935 85.7956C80.6935 86.438 80.8541 87.2409 81.0147 87.8832C80.8541 87.7226 80.6935 87.0803 80.6935 86.9197ZM88.4016 85.6351C88.4016 85.4745 87.9198 84.6716 87.4381 84.8321C87.2775 84.8321 86.9563 84.9927 86.6352 84.9927C86.7957 85.7956 86.9563 86.5986 87.2775 87.4015C88.241 87.4015 88.241 87.0803 88.241 86.2774C88.4016 87.0803 88.5622 87.5621 88.7227 88.365C88.7227 88.2044 88.0804 87.4015 87.4381 87.4015C87.5987 88.365 87.7592 89.0073 88.0804 89.8102C88.0804 89.9708 88.241 90.1314 88.4016 89.9708C89.3651 89.8102 89.3651 89.3285 89.3651 88.5256C89.3651 89.0073 89.3651 89.6497 89.5257 89.9708C88.7227 90.1314 88.241 90.292 87.4381 90.6132H87.2775C87.7592 90.6132 87.7592 90.4526 87.7592 90.1314C87.5987 89.4891 87.4381 88.8467 87.2775 88.5256C86.9563 87.4015 86.7957 86.438 86.4746 85.3139C86.4746 84.9927 86.314 84.8321 85.9928 84.8321C85.9928 84.8321 85.8322 84.6716 85.9928 84.6716C86.4746 84.511 87.9198 84.1898 88.0804 84.1898C88.241 84.6716 88.4016 85.6351 88.4016 85.6351ZM38.7811 55.1241C38.7811 55.1241 38.9417 55.1241 38.7811 55.1241C38.9417 55.6059 39.2629 55.7664 39.4235 55.927C40.5476 56.5694 41.3505 57.2117 42.4746 57.854C42.9563 58.1752 43.5987 58.657 43.9198 58.9781L44.0804 59.1387C43.7592 59.1387 43.4381 58.9781 42.9563 58.9781C41.3505 58.657 39.7446 58.3358 38.1388 58.1752C37.8176 58.1752 37.657 58.1752 37.4965 58.3358V58.1752C37.657 57.854 37.8176 57.5329 37.8176 57.2117L37.9782 57.0511C38.2994 57.0511 37.9782 57.5329 38.46 57.5329C38.9417 57.6935 39.4235 57.6935 39.7446 57.854C39.7446 57.854 39.9052 57.854 39.9052 57.6935C40.0658 57.3723 40.2264 56.8905 40.387 56.5694C39.9052 56.2482 39.4235 55.927 39.1023 55.7664C38.9417 55.6059 38.7811 55.6059 38.6205 55.7664H38.2994C38.46 55.7664 38.6205 55.4453 38.7811 55.1241ZM40.0658 58.0146C41.0293 58.1752 41.6716 58.3358 42.4746 58.4964C41.9928 57.854 41.1899 57.3723 40.5476 57.0511C40.387 57.2117 40.2264 57.5329 40.0658 58.0146ZM106.708 52.073C106.387 51.7518 106.066 51.4307 105.745 50.9489H105.905C106.226 51.1095 106.548 50.6278 106.708 50.6278C107.19 49.8248 107.672 49.3431 107.993 48.5402C107.832 48.5402 106.708 49.1825 106.066 49.5037C105.905 49.5037 105.745 49.6643 105.745 49.6643C105.584 49.8248 105.423 49.9854 105.423 50.3066V50.4672H105.263C105.102 50.146 104.781 49.9854 104.46 49.6643H104.621C104.942 49.8248 105.102 49.6643 105.423 49.6643C106.387 49.1825 108.153 48.3796 108.314 48.3796C108.635 48.0584 110.241 47.0949 109.92 46.4526V46.292C110.241 46.6132 110.562 47.0949 110.883 47.4161C110.723 47.4161 110.402 47.2555 110.241 47.4161C109.438 48.0584 108.796 48.5402 108.314 49.3431C107.993 50.146 106.708 51.5913 106.708 52.073C106.869 51.9124 106.869 51.9124 106.708 52.073C106.708 51.9124 106.708 51.9124 106.708 52.073C106.708 51.9124 106.387 51.7518 106.708 52.073ZM77.4819 85.7956V87.0803C77.4819 86.9197 77.4819 86.7591 77.3213 86.5986C77.1607 85.9562 76.6789 86.1168 76.1972 86.1168V88.6862C77.1607 88.6862 76.6789 88.5256 77.3213 87.8832V89.9708C77.0001 89.3285 77.1607 89.0073 76.1972 89.0073V89.1679C76.1972 89.4891 75.876 92.0584 76.5184 92.0584H76.6789C76.3578 92.3796 75.876 92.219 75.3943 92.219L75.2337 92.0584L75.3943 91.8978C76.0366 91.8978 75.7154 86.9197 75.7154 86.1168C75.7154 85.9562 75.5549 85.7956 75.3943 85.6351H75.2337L75.3943 85.4745C76.0366 85.7956 76.6789 85.7956 77.4819 85.7956C77.4819 86.1168 76.6789 85.7956 77.4819 85.7956ZM52.1096 84.9927C52.5914 84.3504 55.4819 82.1022 55.0001 81.2993V81.1387L55.9636 81.6205C55.6424 81.781 53.2337 84.1898 52.4308 85.1533L51.1461 86.438C51.1461 86.2774 51.1461 86.2774 51.3067 86.1168C51.949 84.511 52.4308 82.7445 52.9125 80.9781C53.0731 80.657 53.2337 80.3358 52.9125 80.0146V79.854C53.2337 80.0146 53.5549 80.3358 54.0366 80.4964V80.657H53.876C53.5549 80.657 53.3943 80.8175 53.2337 81.1387L52.2702 84.0292C52.2702 84.1898 52.1096 84.511 52.1096 84.9927C52.1096 84.9927 51.949 84.8321 52.1096 84.9927ZM94.9855 84.3504C94.8249 84.0292 94.1826 83.0657 93.8614 83.0657C93.3797 82.7445 93.0585 82.9051 92.7373 83.3869C92.5768 83.8686 93.2191 86.5986 93.8614 87.4015C94.022 87.7226 95.6278 88.365 95.7884 87.5621V86.7591C95.7884 87.4015 95.6278 89.3285 94.5038 88.5256C94.1826 88.365 93.8614 88.0438 93.5403 87.7226C92.5768 86.438 91.6133 84.1898 92.4162 82.584C92.7373 81.6205 94.022 82.584 93.7008 81.781C94.5038 83.0657 94.8249 83.708 94.9855 84.3504ZM101.569 86.1168C101.409 86.1168 101.569 86.1168 101.569 86.1168C101.73 85.4745 100.927 84.3504 100.767 83.708C100.285 82.584 99.803 81.4599 99.1607 80.3358C99.1607 80.1752 99.0001 80.1752 99.1607 80.0146L99.3213 80.1752C100.606 81.2993 101.891 82.2628 103.015 83.3869C103.175 83.5475 103.336 83.708 103.496 83.708C103.657 83.8686 103.818 83.8686 103.978 83.8686C103.978 83.8686 104.139 83.8686 104.139 84.0292C103.818 84.3504 103.496 84.511 103.175 84.8321V84.6716C103.496 84.0292 102.372 83.3869 101.891 83.2263C101.569 83.5475 101.248 83.708 100.927 84.0292C101.088 84.511 101.409 84.9927 101.569 85.3139C101.73 85.4745 101.891 85.6351 102.051 85.4745H102.372C102.051 85.9562 101.891 86.1168 101.569 86.1168ZM99.9636 81.4599C99.9636 81.4599 99.9636 81.6205 99.9636 81.4599C100.285 82.2628 100.606 82.9051 101.088 83.708C101.409 83.5475 101.73 83.2263 101.891 83.0657C101.088 82.584 100.445 82.1022 99.9636 81.4599ZM112.007 68.9343C111.526 68.9343 110.08 69.7372 110.402 70.219C110.562 70.3796 110.883 70.5402 111.044 70.7008C111.847 71.1825 112.65 71.3431 113.613 71.5037C114.256 71.5037 115.38 71.6643 115.861 71.1825C116.343 70.7008 115.861 69.5767 115.219 69.5767C115.38 69.5767 115.54 69.7372 115.701 69.7372C116.986 70.3796 116.986 71.8248 115.38 71.9854C113.934 72.146 112.329 71.8248 111.204 71.0219C110.883 70.8613 110.562 70.5402 110.402 70.219C110.08 69.7372 110.08 69.2555 110.562 68.9343C110.402 68.9343 110.562 68.9343 110.723 68.7737C110.241 68.7737 111.365 68.7737 112.007 68.9343ZM85.0293 89.8102C85.0293 90.292 85.0293 90.7737 84.8687 91.0949C84.387 92.0584 83.4235 91.5767 83.1023 90.7737C82.1388 89.4891 81.9782 87.7227 82.1388 86.2774C82.1388 85.9562 82.2994 85.6351 82.46 85.3139C82.7811 84.8321 83.1023 84.8321 83.584 85.1533C83.9052 85.3139 83.9052 85.3139 83.9052 84.9927V84.8321L84.387 86.7591C84.387 86.5986 84.387 86.5986 84.2264 86.438C84.0658 86.1168 83.9052 85.6351 83.584 85.4745C83.1023 84.9927 82.6205 85.1533 82.2994 85.7956C81.657 86.438 82.46 89.1679 82.7811 89.8102C83.4235 90.9343 84.7081 91.4161 84.7081 89.6497C85.0293 89.9708 85.0293 89.8102 85.0293 89.8102ZM107.029 75.3577C107.511 74.5548 107.832 73.9124 108.314 73.1095C108.796 73.2701 109.277 73.5913 109.599 73.7518H109.438C109.277 73.7518 109.277 73.7518 109.117 73.5913C108.475 73.4307 108.314 73.5913 107.993 74.2336L108.153 74.3942C109.438 75.1971 110.883 75.8394 112.168 76.4818C112.329 76.6424 112.489 76.6424 112.65 76.6424C112.81 76.8029 112.971 76.8029 113.132 76.4818H113.292V76.6424C113.132 76.9635 112.971 77.4453 112.65 77.7664C112.65 77.6059 112.489 77.6059 112.65 77.6059C112.65 77.4453 112.65 77.2847 112.489 77.1241L112.329 76.9635C110.883 76.1606 109.277 75.3577 107.672 74.5548C107.511 74.8759 107.19 75.0365 107.511 75.3577C107.672 75.6789 107.993 75.8394 108.153 76C107.832 75.8394 107.35 75.6789 107.029 75.3577C107.35 75.6789 107.35 74.5548 107.029 75.3577ZM116.183 55.4453C116.343 56.2482 116.343 56.8905 116.504 57.6935V57.854C116.022 57.0511 115.219 57.5329 114.577 57.5329C113.292 57.6935 112.329 57.854 111.044 58.1752C110.723 58.1752 110.241 58.1752 110.241 58.8175H110.08C110.08 58.3358 109.92 57.854 109.92 57.3723C110.08 57.3723 110.08 57.5329 110.08 57.5329C110.241 57.854 110.402 57.854 110.562 57.854C111.204 57.6935 111.847 57.6935 112.168 57.5329L115.059 57.0511C115.701 56.8905 115.701 56.8905 115.701 56.2482C115.54 55.6059 115.54 55.4453 116.183 55.4453ZM47.4527 83.708C47.7738 83.8686 47.9344 83.708 48.095 83.708L48.4162 83.3869C49.5403 82.1022 51.6278 79.854 51.6278 79.854C51.7884 79.6935 51.7884 79.5329 51.6278 79.3723V79.2117H51.7884C52.1096 79.5329 52.4308 79.6935 52.7519 80.0146V80.1752H52.5914C52.4308 80.0146 49.8614 82.9051 49.0585 83.8686C49.0585 84.0292 48.7373 84.511 48.8979 84.6716V84.8321H48.7373C48.095 84.1898 47.7738 83.8686 47.4527 83.708ZM64.6351 85.1533C64.314 85.1533 64.1534 85.1533 63.9928 85.4745C63.6716 86.1168 61.7446 90.4526 62.387 90.7737C61.9052 90.6132 61.2629 90.292 61.2629 90.1314C61.7446 90.292 61.9052 89.9708 61.9052 89.6497C62.5476 88.2044 63.0293 86.5986 63.6716 85.1533C63.8322 84.8321 63.8322 84.6716 63.5111 84.511V84.3504H63.6716C63.9928 84.6716 64.314 84.8321 64.6351 85.1533C64.6351 85.1533 64.6351 84.9927 64.6351 85.1533ZM85.5111 90.9343C85.8322 90.7737 85.9928 90.6132 85.8322 90.292C85.6716 89.1679 85.0293 84.9927 84.387 84.9927L84.2264 84.8321C84.8687 84.6716 85.5111 84.511 85.5111 84.6716C85.1899 84.9927 85.1899 85.1533 85.1899 85.6351C85.3505 86.5986 86.1534 89.6497 86.314 90.292C86.314 90.6132 86.4746 90.7737 86.7957 90.7737V91.0949C86.4746 91.2555 85.9928 91.2555 85.6716 91.4161C85.6716 90.9343 85.5111 90.9343 85.5111 90.9343Z" fill="black"/>
<path d="M92.8977 44.0436C92.416 44.0436 91.9342 44.0436 91.4525 43.8831C90.8101 43.5619 91.4525 42.1166 91.4525 41.4743L91.6131 41.3137L91.7736 41.4743C91.7736 41.9561 91.7736 42.5984 92.0948 43.0801C92.0948 43.2407 92.8977 43.8831 92.8977 44.0436C92.8977 44.0436 92.416 44.0436 92.8977 44.0436Z" fill="#E00B22"/>
<path d="M70.0946 78.2482C70.2552 77.6058 70.2552 77.1241 70.4158 76.6423C70.4158 76.4817 70.5764 76.4817 70.7369 76.4817C70.5764 76.9635 70.5764 77.4452 70.4158 77.927C70.4158 78.2482 70.2552 78.5693 70.2552 78.7299C70.2552 78.8905 70.0946 78.8905 70.0946 78.8905L69.934 78.7299C69.7734 78.2482 69.7734 77.6058 69.6129 77.1241C69.6129 77.4452 69.4523 77.7664 69.4523 78.0876C69.4523 78.4087 69.2917 78.5693 69.2917 78.8905H69.1311C69.1311 78.8905 68.9705 78.8905 68.9705 78.7299C68.8099 77.927 68.6494 77.2847 68.4888 76.3212C68.6494 76.1606 68.8099 76.3212 68.8099 76.4817C68.9705 76.9635 68.9705 77.4452 69.1311 77.7664C69.1311 77.927 69.1311 77.927 69.2917 78.0876C69.4523 77.4452 69.4523 76.9635 69.6129 76.4817C69.6129 76.3212 69.7734 76.3212 69.7734 76.3212L69.934 76.4817C69.934 77.1241 69.934 77.7664 70.0946 78.2482ZM77.3209 76.4817V78.8905C77.1603 79.0511 77.1603 78.8905 76.9997 78.7299C76.6786 78.0876 76.518 77.4452 76.1968 76.9635V78.8905L76.0362 79.0511H75.8756V76.6423C76.0362 76.6423 76.1968 76.6423 76.3574 76.8029C76.518 77.2847 76.8391 77.927 77.1603 78.2482V77.6058C77.1603 77.2847 77.1603 76.9635 77.3209 76.4817C77.1603 76.4817 76.9997 76.4817 77.3209 76.4817ZM83.5837 79.0511C83.1019 78.2482 82.7807 77.7664 82.4596 77.1241V78.8905C82.4596 78.8905 82.4596 79.0511 82.299 79.0511L82.1384 78.8905V76.6423C82.299 76.4817 82.4596 76.6423 82.6202 76.8029C82.7807 77.4452 83.1019 77.927 83.4231 78.2482V76.4817L83.5837 76.6423V79.0511ZM79.8902 76.4817C80.0508 76.4817 80.2114 76.4817 80.2114 76.6423V77.2847C80.2114 77.4452 80.2114 77.6058 80.372 77.4452H81.0143V76.3212H81.3355V78.7299C81.3355 78.8905 81.3355 79.0511 81.0143 78.8905V77.7664H80.2114L80.0508 77.927V78.8905H79.8902L79.7296 78.7299C79.8902 78.0876 79.8902 77.2847 79.8902 76.4817ZM72.8245 76.4817H73.1457V77.2847C73.1457 77.4452 73.1457 77.6058 73.4669 77.4452H74.1092V76.3212C74.2698 76.3212 74.4304 76.3212 74.4304 76.4817V78.5693C74.4304 78.7299 74.4304 78.7299 74.1092 78.7299V77.6058H73.1457V78.5693C73.1457 78.7299 73.1457 78.8905 72.8245 78.7299V76.4817ZM72.0216 76.4817H72.3428V78.2482C72.3428 78.7299 72.0216 78.8905 71.7004 78.8905C71.3793 78.8905 71.0581 78.7299 71.0581 78.2482V76.3212H71.2187V78.2482C71.2187 78.4087 71.3793 78.5693 71.7004 78.5693C71.861 78.5693 72.0216 78.4087 72.1822 78.2482V77.7664C72.0216 77.4452 72.0216 76.9635 72.0216 76.4817Z" fill="#132D81"/>
<path d="M75.8757 79.051C75.7151 79.051 75.5545 79.051 75.5545 78.8904V78.7298C75.5545 78.4086 75.3939 78.4086 75.0727 78.4086C74.7516 78.4086 74.591 78.5692 74.591 78.7298C74.591 78.8904 74.591 79.2116 74.2698 79.051C74.4304 78.2481 74.591 77.4451 74.9121 76.6422H75.2333C75.3939 77.2846 75.5545 78.0875 75.8757 79.051ZM75.3939 78.0875C75.2333 77.6057 75.2333 77.2846 75.0727 76.8028C74.9121 77.2846 74.9121 77.6057 74.7516 78.0875H75.3939ZM85.3501 79.051C85.1895 79.051 85.0289 79.051 85.0289 78.8904V78.5692C85.0289 78.2481 84.8684 78.2481 84.7078 78.2481C84.226 78.2481 84.3866 78.2481 84.226 78.7298C84.226 79.051 84.226 79.051 83.9049 79.051C84.0654 78.4086 84.226 77.9269 84.226 77.4451C84.226 77.2846 84.3866 76.9634 84.3866 76.8028L84.5472 76.6422L84.7078 76.8028C85.0289 77.4451 85.1895 78.2481 85.3501 79.051ZM84.8684 78.0875C84.8684 77.6057 84.7078 77.124 84.7078 76.8028C84.5472 77.2846 84.5472 77.6057 84.3866 78.0875H84.8684ZM79.2479 77.124C79.0873 76.8028 79.0873 76.6422 78.7662 76.6422C78.445 76.6422 78.445 76.9634 78.2844 77.124V78.2481C78.2844 78.4086 78.445 78.7298 78.7662 78.7298C79.0873 78.7298 79.0873 78.5692 79.2479 78.4086V78.2481C79.4085 78.2481 79.4085 78.2481 79.4085 78.4086C79.2479 78.7298 79.0873 79.051 78.7662 79.051C78.445 79.051 78.2844 78.8904 78.1238 78.5692C77.9632 77.9269 77.9632 77.4451 78.1238 76.9634C78.2844 76.6422 78.445 76.4816 78.7662 76.4816C79.0873 76.4816 79.2479 76.6422 79.2479 76.9634C79.5691 77.124 79.5691 77.124 79.2479 77.124ZM81.6567 76.4816C81.8173 77.2846 81.8173 78.0875 81.8173 78.8904H81.6567V76.4816ZM60.7808 73.9123L61.1019 73.5911V74.0729C61.1019 74.0729 60.9413 73.9123 60.7808 73.9123ZM91.6129 73.9123C91.6129 74.0729 91.7735 74.394 91.4523 74.5546L91.2917 74.394C91.2917 74.0729 91.2917 73.9123 91.6129 73.9123ZM91.4523 72.9488L91.7735 72.6276L91.934 72.467C91.934 72.9488 91.7735 72.9488 91.4523 72.9488C91.4523 72.9488 91.2917 72.9488 91.4523 72.9488Z" fill="#132D81"/>
<path d="M75.3943 78.0876H74.752C74.9125 77.6059 74.9125 77.2847 75.0731 76.803C75.2337 77.1241 75.2337 77.6059 75.3943 78.0876ZM84.8687 78.0876H84.2264C84.387 77.6059 84.387 77.2847 84.5476 76.803C84.7082 77.1241 84.8687 77.6059 84.8687 78.0876Z" fill="white"/>
<path d="M88.0803 73.5913C88.0803 73.1096 88.0803 72.949 87.7592 73.1096C87.438 73.1096 87.2774 73.4307 86.9562 73.4307C86.9562 73.2702 87.1168 73.1096 87.1168 73.1096C87.438 72.7884 87.5986 72.949 88.0803 72.949C88.0803 72.949 88.0803 72.7884 88.2409 72.7884L88.0803 72.6278C87.9197 72.6278 87.9197 72.6278 87.7592 72.4672C88.0803 72.1461 88.0803 72.1461 87.7592 71.9855C87.1168 72.7884 86.4745 73.4307 86.1533 74.0731C86.6351 73.7519 87.2774 73.5913 87.5986 73.2702V73.4307C87.5986 73.5913 87.438 73.5913 87.438 73.7519L87.2774 73.5913H87.1168C87.1168 74.5548 86.7957 74.876 88.0803 74.876C88.0803 74.5548 87.9197 74.3942 87.9197 74.0731H87.7592C87.7592 74.2337 87.7592 74.876 87.438 74.5548C87.2774 74.5548 87.2774 74.0731 87.2774 73.9125C87.9197 74.0731 88.0803 74.0731 88.0803 73.5913ZM89.365 71.6643C89.365 72.1461 89.5256 75.0366 89.0438 74.876C88.8833 74.876 88.7227 74.7154 88.5621 74.7154C88.5621 74.876 88.7227 75.0366 88.8833 75.0366C90.4891 76.6424 89.8468 72.949 89.8468 72.3066V72.1461C89.8468 71.6643 89.6862 71.6643 89.365 71.6643C89.6862 71.6643 89.365 71.6643 89.365 71.6643Z" fill="white"/>
<path d="M88.562 72.7883V73.5912L88.7226 73.7518L88.8832 73.5912V73.2701C88.8832 72.7883 88.8832 72.7883 88.562 72.7883C88.8832 72.7883 88.562 73.1095 88.562 72.7883Z" fill="white"/>
<path d="M93.0582 73.4307C92.8976 73.4307 93.0582 74.073 93.0582 73.4307V73.4307Z" fill="white"/>
<path d="M93.861 72.7882C93.861 72.7882 93.7005 72.6276 93.5399 72.7882C93.2187 72.7882 93.0581 72.9488 92.7369 72.9488H92.5764C92.5764 72.6276 92.7369 72.6276 92.8975 72.467C93.0581 72.467 93.2187 72.467 93.2187 72.3064C93.2187 72.3064 93.3793 72.1458 93.3793 71.9852C93.0581 71.9852 92.5764 71.6641 92.2552 72.1458L92.0946 72.3064C91.7734 72.3064 91.4523 72.467 91.1311 72.6276C91.1311 72.7882 91.1311 72.7882 91.2917 72.9488C91.2917 72.9488 91.4523 72.9488 91.6129 72.7882C91.6129 72.9488 91.4523 72.9488 91.4523 73.1093V72.9488L91.2917 73.1093L91.1311 73.2699L91.2917 73.4305H91.6129V73.5911C91.2917 73.7517 90.8099 73.9123 90.4888 73.9123C90.6494 74.394 90.8099 73.9123 91.1311 74.0728C90.9705 74.2334 90.9705 74.394 90.8099 74.5546H91.1311C91.1311 74.5546 91.1311 74.394 91.2917 74.394C91.6129 74.7152 92.0946 74.8758 92.0946 74.2334C92.2552 74.2334 92.2552 74.0728 92.4158 74.0728L92.2552 73.9123C92.4158 73.9123 92.5764 73.4305 92.5764 73.4305V73.2699C92.8975 73.4305 93.0581 73.2699 93.3793 73.2699C93.3793 73.4305 93.3793 75.1969 93.5399 75.0363C93.861 74.5546 93.2187 72.6276 94.3428 72.9488C94.0216 72.9488 93.861 72.7882 93.861 72.7882Z" fill="white"/>
<path d="M91.9344 71.343C91.4527 71.6642 91.6133 71.8248 91.9344 72.1459C92.095 72.1459 92.2556 72.1459 92.095 71.9854C92.095 71.6642 92.095 71.5036 91.9344 71.343C92.095 71.5036 91.6133 71.5036 91.9344 71.343Z" fill="white"/>
<path d="M82.299 74.876C82.299 74.7154 82.1384 74.7154 82.1384 74.5548C81.9779 74.3942 81.6567 74.3942 81.4961 74.3942C81.0144 74.2337 80.8538 73.9125 80.5326 73.5913C80.8538 73.4307 81.0144 73.2702 81.3355 73.1096C81.3355 72.6278 80.6932 73.2702 80.5326 73.2702H80.372V72.949L80.5326 72.7884C80.6932 72.7884 80.8538 72.6278 81.0144 72.6278C80.8538 72.3066 80.8538 72.3066 80.372 72.3066C80.372 71.9855 80.372 71.6643 80.5326 71.1826C80.5326 71.1826 80.372 71.1826 80.2114 71.022C80.2114 71.8249 80.372 72.1461 79.4085 72.3066H78.9268C79.0873 72.7884 79.0873 72.7884 79.4085 72.6278C79.5691 72.6278 79.7297 72.6278 80.0508 72.4672C80.0508 73.2702 80.372 74.2337 79.4085 74.2337V74.3942C79.7297 74.5548 80.2114 74.876 80.5326 75.0366V73.5913C80.8538 73.7519 81.1749 73.9125 81.3355 74.2337L81.4961 74.3942C81.6567 75.0366 81.9779 74.876 82.299 74.876Z" fill="white"/>
<path d="M79.2479 73.4307C79.0873 73.4307 79.0873 73.4307 79.2479 73.4307C78.7661 73.9124 79.5691 74.073 79.8902 73.9124C79.5691 73.5912 79.4085 73.4307 79.2479 73.4307Z" fill="white"/>
<path d="M79.73 73.9124L78.6059 75.0364L78.4453 74.8759V74.7153C79.0876 74.3941 79.4088 74.0729 79.73 73.9124ZM81.0147 71.9854C81.1752 72.1459 81.3358 72.1459 81.4964 72.3065C81.4964 72.3065 81.4964 72.4671 81.657 72.4671H81.4964C81.0147 72.6277 80.8541 72.4671 81.0147 71.9854C81.1752 72.1459 80.8541 72.4671 81.0147 71.9854Z" fill="white"/>
<path d="M85.0293 72.949C85.0293 72.4673 85.1899 72.7884 85.0293 72.949V72.949Z" fill="white"/>
<path d="M85.9927 74.8761C85.511 74.7155 85.0292 74.5549 84.7081 74.3943C83.9052 74.3943 84.8687 73.9126 84.8687 73.752C85.0292 73.752 85.0292 73.5914 85.0292 73.5914C84.8687 73.4308 84.7081 73.4308 84.3869 73.4308V73.2702C84.7081 73.2702 85.8322 72.6279 85.0292 72.6279C85.1898 72.6279 85.0292 72.7885 84.8687 72.7885C84.8687 72.1461 85.511 71.1826 84.3869 71.3432C83.584 71.5038 82.9417 71.6644 83.584 72.6279C83.584 72.9491 83.7446 72.9491 83.9052 72.7885C84.2263 72.6279 84.2263 72.6279 84.5475 72.9491C83.9052 73.1096 83.2628 73.2702 82.7811 73.4308C82.7811 73.4308 82.6205 73.4308 82.6205 73.5914V73.752H82.7811C83.1022 73.752 83.2628 73.5914 83.584 73.5914V73.752C83.2628 74.2337 82.9417 74.5549 82.2993 74.8761C82.7811 75.0366 83.2628 74.8761 83.4234 74.5549C83.4234 74.3943 83.584 74.3943 83.7446 74.3943C84.0657 74.5549 84.5475 74.7155 84.8687 74.8761C85.0292 74.8761 85.0292 75.0366 85.1898 75.1972L85.3504 75.3578C85.8322 75.3578 86.4745 75.5184 86.6351 75.1972V75.0366C86.3139 75.0366 86.1533 74.8761 85.9927 74.8761ZM84.0657 72.3067L84.5475 71.825C84.3869 71.825 84.3869 71.825 84.2263 71.6644H84.0657C84.2263 71.6644 84.3869 71.5038 84.5475 71.5038C84.5475 71.825 84.7081 72.1461 84.7081 72.4673C84.5475 72.4673 84.3869 72.3067 84.0657 72.3067ZM84.2263 74.0731C84.0657 73.9126 83.9052 73.9126 83.9052 73.5914L84.0657 73.4308L84.2263 73.5914V74.0731Z" fill="white"/>
<path d="M61.7442 72.1461C61.7442 72.6279 61.7442 73.1096 61.5836 73.4308C61.5836 73.752 61.423 73.9125 61.2625 74.2337C61.1019 74.3943 61.1019 74.5549 60.9413 74.7155C61.423 74.7155 61.5836 74.5549 61.7442 74.3943C61.9048 73.9125 62.0654 73.4308 62.5471 73.2702L62.7077 73.1096C62.7077 73.1096 62.5471 73.1096 62.5471 72.949H62.226C62.226 72.6279 62.3865 72.6279 62.5471 72.4673C62.5471 72.4673 62.5471 72.3067 62.7077 72.3067H62.3865V72.1461C62.3865 71.9855 62.5471 71.825 62.7077 71.825C62.3865 71.9855 62.226 71.9855 61.7442 72.1461ZM61.2625 71.9855C60.7807 71.825 60.4595 71.9855 59.9778 72.1461L59.8172 72.3067C59.8172 72.7885 60.1384 73.752 59.3354 73.9125C59.8172 74.3943 60.299 73.752 60.6201 73.4308C60.6201 73.2702 60.6201 73.1096 60.7807 72.949C60.9413 72.949 60.9413 72.7885 60.7807 72.6279L60.6201 72.4673C60.6201 72.3067 60.7807 72.1461 60.7807 72.1461C61.1019 72.1461 60.9413 73.1096 60.7807 73.2702C60.7807 73.2702 60.6201 73.2702 60.6201 73.4308L61.1019 73.9125C61.2625 73.2702 61.2625 72.7885 61.2625 71.9855C61.423 71.9855 61.423 71.9855 61.2625 71.9855Z" fill="white"/>
<path d="M63.1895 71.825H62.7078L62.8683 71.9855C63.0289 72.3067 62.8683 72.949 62.8683 73.4308C62.8683 74.2337 63.0289 74.5549 62.0654 74.5549V74.7155C62.3866 74.876 62.8683 75.0366 63.1895 75.1972C63.1895 74.0731 63.0289 72.949 63.1895 71.825ZM62.7078 71.9855C62.7078 71.825 62.7078 71.9855 62.7078 71.9855C62.7078 71.825 62.7078 71.825 62.7078 71.9855Z" fill="white"/>
<path d="M68.8101 74.0728C68.8101 74.2334 68.9706 74.2334 69.1312 74.2334C69.4524 74.0728 69.9341 74.0728 70.2553 73.9122V74.2334C70.2553 74.7152 69.9341 74.7152 69.4524 74.7152C69.7736 75.0363 70.0947 75.1969 70.4159 75.1969L70.5765 75.0363C70.5765 74.5546 70.8977 73.4305 71.7006 74.0728H71.8612C71.8612 73.4305 71.0582 73.5911 70.5765 73.5911V73.4305C70.7371 73.4305 70.7371 73.2699 70.8977 73.2699C71.2188 72.9487 70.5765 72.7882 70.4159 72.9487C70.0947 73.1093 69.613 73.1093 69.2918 73.2699C69.613 73.7517 70.0947 73.1093 70.5765 73.1093C70.5765 73.5911 70.0947 73.2699 70.0947 73.7517C69.9341 73.9122 69.2918 74.0728 68.8101 74.0728Z" fill="white"/>
<path d="M69.4525 72.146C69.4525 71.8248 70.5765 71.6642 70.7371 71.6642C70.7371 71.343 70.2554 71.343 69.9342 71.6642C69.7736 71.6642 69.613 71.8248 69.4525 71.6642C69.1313 71.5036 69.1313 71.6642 69.1313 71.9854C68.9707 72.9489 68.6495 73.7518 68.0072 74.5547C67.8466 74.5547 67.686 74.5547 67.686 74.7153C67.8466 74.7153 68.489 74.5547 68.489 74.2336C68.6495 73.7518 68.9707 73.1095 69.1313 72.6277C69.1313 72.7883 69.2919 72.7883 69.2919 72.9489C69.4525 73.4306 69.4525 73.4306 69.9342 73.2701C70.0948 73.2701 70.416 73.1095 70.5765 73.2701C70.7371 73.2701 70.7371 73.2701 70.8977 73.1095C71.0583 72.7883 71.0583 72.6277 71.2189 72.3066C70.5765 71.6642 69.9342 72.146 69.4525 72.146ZM70.5765 72.4671C70.5765 72.6277 70.5765 72.6277 70.5765 72.4671C70.416 72.6277 69.613 72.9489 69.613 72.6277C69.613 72.3066 69.7736 72.146 70.2554 72.146C70.5765 71.9854 70.7371 72.146 70.5765 72.4671Z" fill="white"/>
<path d="M69.9341 72.4672C70.0947 72.6278 70.2552 72.6278 70.4158 72.6278C70.2552 72.4672 70.2552 72.4672 70.4158 72.3066C70.4158 72.3066 70.0947 72.3066 69.9341 72.4672Z" fill="white"/>
<path d="M64.4744 73.7518V74.073C64.4744 74.3942 64.3138 74.5548 64.635 74.7153C64.635 74.3942 64.9561 73.9124 64.9561 73.4307V73.2701C64.6349 72.9489 64.6349 72.9489 64.9561 72.7883L65.1167 72.6278C65.2773 72.4672 65.2773 72.3066 65.1167 72.3066C64.9561 72.146 64.1532 73.4307 63.9926 73.5913C63.9926 73.7518 63.832 73.7518 63.832 73.9124L64.4744 73.7518ZM66.8831 73.7518C66.8831 73.7518 66.8831 73.9124 66.8831 73.7518C67.0437 74.073 67.2043 74.2336 67.3649 74.2336H67.686C67.8466 74.073 67.686 73.9124 67.5255 73.7518H66.8831Z" fill="white"/>
<path d="M66.2408 72.3065C66.4014 72.1459 66.8832 72.1459 67.2044 72.1459C67.2044 71.9854 67.2044 71.9854 67.0438 71.9854H66.4014V71.5036C66.4014 71.5036 66.4014 71.343 66.2408 71.343L66.0803 71.5036C66.0803 71.9854 65.7591 72.3065 65.2773 72.3065L65.9197 72.4671C65.7591 72.4671 65.5985 72.6277 65.5985 72.6277C65.2773 72.7883 65.2773 72.7883 65.4379 73.1094C65.4379 73.1094 65.4379 73.27 65.5985 73.27C65.9197 73.5912 66.2408 73.1094 66.7226 73.4306C66.7226 73.4306 66.8832 73.4306 67.0438 73.27C67.2044 72.9489 67.3649 72.7883 67.5255 72.4671C66.8832 72.3065 66.4014 72.3065 66.2408 72.3065ZM66.2408 73.1094C66.2408 72.9489 66.4014 72.7883 66.4014 72.4671C66.7226 72.7883 66.562 72.9489 66.2408 73.1094Z" fill="white"/>
<path d="M65.9195 72.4671C65.2772 72.3065 65.7589 72.4671 65.9195 72.4671V72.4671ZM66.4012 73.7518C65.9195 73.27 65.5983 73.5912 65.1166 73.5912C65.2772 73.7518 64.956 74.2335 64.7954 74.3941C64.7954 74.5547 64.956 74.5547 65.1166 74.5547C65.2772 74.2335 65.2772 74.073 65.4377 73.9124C65.5983 74.073 65.4377 74.5547 65.7589 74.7153C65.9195 74.8759 67.2042 75.0365 67.2042 74.7153C67.2042 74.5547 66.5618 73.7518 66.4012 73.7518ZM66.2407 73.9124C66.2407 74.073 66.0801 74.073 65.9195 73.9124H66.2407ZM66.5618 74.3941C66.0801 74.7153 65.7589 74.3941 65.7589 74.073V73.9124C65.9195 74.073 65.9195 74.2335 66.0801 74.3941C66.2407 74.3941 66.4012 74.2335 66.5618 74.2335C66.5618 74.2335 66.7224 74.3941 66.5618 74.3941Z" fill="white"/>
<path d="M73.1459 74.8759C74.27 76 73.7883 73.7518 74.7518 73.7518C76.0365 73.7518 74.1094 73.1095 74.1094 73.1095C74.5912 72.6277 75.0729 72.7883 75.3941 72.6277C75.2335 72.3066 75.0729 72.146 74.7518 71.9854C74.5912 71.8248 74.27 71.8248 73.9489 71.6642C74.1094 71.5036 74.4306 71.343 74.5912 71.0219C74.27 70.7007 74.27 70.7007 74.1094 71.0219C73.9489 71.1825 73.7883 71.5036 73.4671 71.8248L72.5036 72.3066L72.343 72.4671H72.5036C72.6642 72.4671 72.8248 72.4671 73.1459 72.3066C73.6277 72.146 74.1094 72.146 74.4306 71.9854C74.5912 71.9854 74.7518 72.146 74.7518 72.146C74.7518 72.4671 74.4306 72.7883 74.1094 72.4671C73.9489 72.4671 73.7883 72.3066 73.6277 72.3066C73.1459 72.4671 72.8248 72.4671 72.343 72.6277C72.5036 72.9489 72.5036 72.9489 72.8248 72.7883C72.9854 72.6277 73.3065 72.4671 73.4671 72.4671H73.6277C73.6277 72.7883 73.4671 72.7883 73.1459 72.9489C73.1459 73.2701 73.1459 73.2701 72.8248 73.2701C72.5036 73.4306 72.0219 73.4306 71.7007 73.5912C71.7007 73.7518 71.7007 73.7518 71.8613 73.7518C72.8248 74.073 73.1459 74.073 73.4671 73.9124C73.7883 74.2336 73.7883 74.8759 73.1459 74.8759Z" fill="white"/>
<path d="M73.1461 72.3066H73.4672C73.3066 72.146 73.3066 71.9854 73.1461 71.8248H72.8249C72.6643 72.146 72.8249 72.3066 73.1461 72.3066ZM72.5037 72.9489C72.3431 72.9489 72.1826 73.1095 72.022 73.2701C72.1826 73.4307 72.3431 73.4307 72.5037 73.4307V72.9489C72.5037 73.1095 72.1826 73.1095 72.5037 72.9489ZM73.949 71.5037C73.6278 71.6642 73.4672 71.6642 73.3066 71.6642L73.6278 71.9854H73.7884C73.7884 71.8248 73.949 71.6642 73.949 71.5037C73.949 71.6642 73.6278 71.6642 73.949 71.5037Z" fill="white"/>
<path d="M99.0002 55.7665C96.9126 52.5548 94.1826 50.3066 90.8104 48.5402C90.8104 48.3796 90.6498 48.3796 90.4892 48.3796H63.5111C63.3505 48.3796 63.1899 48.5402 63.0294 48.5402C60.1388 49.9855 57.7301 52.0731 55.8031 54.6424C53.8761 57.2118 52.752 59.9417 52.4308 62.9928C52.1097 65.8833 52.752 68.4526 53.8761 70.8614C53.8761 71.022 54.0367 71.022 54.1972 71.022H99.1608C99.4819 71.022 99.4819 71.022 99.6425 70.8614C100.927 68.292 101.248 65.5621 101.088 62.8322C101.248 60.2629 100.285 57.8541 99.0002 55.7665ZM61.5841 66.0439C62.2264 63.9563 62.8688 62.0293 63.1899 59.9417C63.1899 59.7811 63.3505 59.6205 63.5111 59.6205H65.4381C65.117 60.9052 64.7958 62.3504 64.4746 63.6351C64.7958 63.6351 65.2775 63.6351 65.4381 63.7957C65.7593 62.511 66.241 61.0658 66.5622 59.7811H66.7228C67.3651 59.7811 68.168 59.7811 68.971 59.9417H69.1315C68.8104 60.584 68.6498 61.2264 68.4892 61.8687C68.0075 63.3139 67.6863 64.7592 67.2045 66.2045C67.2045 66.2045 67.2045 66.365 67.044 66.365H66.8834C66.241 66.365 65.5987 66.2045 64.6352 66.2045C64.7958 65.7227 64.9564 65.0804 65.2775 64.7592H64.1534H64.314C64.1534 65.0804 63.9929 65.5621 63.8323 66.0439L63.6717 66.2045H63.5111C63.0294 66.2045 62.387 66.2045 61.5841 66.0439C61.7447 66.2045 61.7447 66.2045 61.5841 66.0439ZM93.5403 54.9636C92.7374 56.73 91.7739 58.3358 90.0075 59.1388C89.5257 59.4599 88.8834 59.6205 88.4016 59.6205H88.0805C87.7593 59.7811 87.5987 60.1023 87.5987 60.2629C87.2775 61.3869 86.9564 62.3504 86.6352 63.4745C86.1535 64.9198 85.6717 66.5256 85.3505 67.8103C85.3505 67.9709 85.1899 67.9709 85.0294 68.1315C85.0294 68.292 84.8688 68.292 84.7082 68.292C83.9053 68.1315 83.1024 68.1315 82.2994 68.1315H81.9783C82.7812 65.4015 83.5841 62.6716 84.387 59.7811C83.2629 59.7811 82.46 59.6205 81.4965 59.6205C81.9783 58.9782 82.6206 58.3358 83.1024 58.1753C83.1024 58.1753 83.2629 58.1753 83.4235 58.0147H84.387C85.9929 57.8541 89.044 58.0147 90.0075 57.6935C90.0075 57.5329 89.8469 57.3723 89.6863 57.2118C89.5257 57.0512 89.3651 56.8906 89.2045 56.8906C87.117 56.0877 85.0294 55.4453 82.7812 54.803C80.8542 54.1607 78.7666 53.8395 76.679 53.5183C75.3943 53.1972 73.7885 53.0366 72.5038 52.876H72.0221C71.2191 53.0366 70.4162 53.3577 71.0586 54.0001C71.8615 55.1242 72.825 55.7665 73.9491 56.4088C74.752 56.8906 75.5549 57.2118 76.3578 57.6935C77.4819 58.3358 78.9272 59.6205 79.5695 60.7446C79.8907 61.0658 80.2118 61.2264 80.533 61.2264H80.6936C81.4965 61.7081 83.1024 63.1534 82.6206 64.2774C82.2994 65.7227 81.3359 67.0074 80.3724 67.9709C80.2118 67.9709 80.0513 68.1315 80.0513 68.1315C80.0513 68.292 79.8907 68.292 79.7301 68.292H58.3724C58.533 67.9709 58.6936 67.9709 58.533 67.9709C59.4965 67.0074 61.2629 66.8468 62.5476 67.168C64.4746 67.6497 67.044 67.3285 69.1315 67.168C70.7374 67.0074 72.5038 66.8468 74.1097 66.5256H69.2921C69.4527 66.0439 69.4527 65.5621 69.6133 65.241C70.0951 63.6351 70.4162 61.8687 70.898 60.2629C70.898 59.9417 71.0586 59.9417 71.2191 59.9417H73.3067C72.825 61.8687 72.1826 63.6351 71.8615 65.5621H72.9856C73.1462 65.5621 73.1462 65.4015 73.1462 65.241C73.4673 63.9563 73.9491 62.511 74.2702 61.2264C74.4308 60.9052 74.4308 60.4234 74.5914 60.1023C74.5914 59.9417 74.5914 59.9417 74.752 59.9417H76.679C76.3578 60.9052 76.1972 61.5475 76.1972 62.8322C75.8761 63.9563 75.3943 65.241 75.2337 66.365C75.5549 66.2045 76.0367 66.2045 76.3578 66.0439C76.5184 65.8833 76.679 65.8833 76.8396 65.7227C77.4819 65.241 77.9637 64.5986 78.2848 64.1169C78.7666 63.3139 78.9272 62.6716 78.7666 61.8687C78.7666 61.7081 78.7666 61.5475 78.606 61.3869C77.9637 60.2629 77.1607 59.7811 75.8761 59.2993C75.2337 58.9782 74.5914 58.8176 73.7885 58.4964C71.5403 57.6935 69.6133 56.5694 67.8469 54.9636C67.6863 54.803 67.6863 54.6424 67.8469 54.4818C68.0075 54.1607 68.3286 54.0001 68.6498 53.8395C68.971 53.5183 69.4527 53.5183 69.9345 53.5183C70.4162 53.5183 71.0586 53.1972 71.5403 53.1972C71.8615 52.876 72.1826 52.7154 72.5038 52.5548C75.5549 50.7884 80.2118 50.7884 83.5841 51.1096C86.4746 51.2702 89.2045 51.7519 91.9345 52.3942C93.0586 52.876 93.7009 53.5183 94.0221 54.4818C93.5403 54.4818 93.5403 54.803 93.5403 54.9636Z" fill="white"/>
<path d="M77 32C52.7518 32 33 46.1314 33 63.635C33 81.1387 52.7518 95.2701 77 95.2701C101.248 95.2701 121 80.9781 121 63.4745C121 46.1314 101.248 32 77 32ZM77 93.8248C53.7153 93.8248 34.927 80.3358 34.927 63.4745C34.927 46.7737 53.8759 33.1241 77.1606 33.1241C100.445 33.1241 119.394 46.7737 119.394 63.4745C119.234 80.3358 100.285 93.8248 77 93.8248Z" fill="#132D81"/>
<path d="M39.905 65.5621C37.978 65.5621 36.5327 66.2044 36.5327 67.0073C36.5327 67.8103 37.978 68.4526 39.905 68.4526C41.832 68.4526 43.2772 67.8103 43.2772 67.0073C43.2772 66.2044 41.832 65.5621 39.905 65.5621ZM39.905 67.9708C38.2991 67.9708 37.0145 67.4891 37.0145 66.8468C37.0145 66.2044 38.2991 65.7227 39.905 65.7227C41.5108 65.7227 42.7955 66.2044 42.7955 66.8468C42.7955 67.4891 41.5108 67.9708 39.905 67.9708ZM74.7517 89.0073C74.7517 87.0803 74.1094 85.6351 73.3064 85.6351C72.5035 85.6351 71.8612 87.0803 71.8612 89.0073C71.8612 90.9343 72.5035 92.3796 73.3064 92.3796C74.1094 92.3796 74.7517 90.7738 74.7517 89.0073ZM72.1824 89.0073C72.1824 87.4015 72.6641 86.1168 73.3064 86.1168C73.9488 86.1168 74.4305 87.4015 74.4305 89.0073C74.4305 90.6132 73.9488 91.8979 73.3064 91.8979C72.6641 91.8979 72.1824 90.4526 72.1824 89.0073ZM113.613 58.657C111.686 58.657 110.241 59.2993 110.241 60.1022C110.241 60.9051 111.686 61.5475 113.613 61.5475C115.54 61.5475 116.985 60.9051 116.985 60.1022C116.985 59.2993 115.54 58.657 113.613 58.657ZM113.613 61.2263C112.007 61.2263 110.722 60.7446 110.722 60.1022C110.722 59.4599 112.007 58.9781 113.613 58.9781C115.219 58.9781 116.504 59.4599 116.504 60.1022C116.504 60.7446 115.219 61.2263 113.613 61.2263ZM111.365 53.6789C109.598 54.4818 108.474 55.7665 108.956 56.4088C109.277 57.2117 110.883 57.0511 112.65 56.2482C114.416 55.4453 115.54 54.1606 115.058 53.5183C114.737 52.876 113.131 52.876 111.365 53.6789ZM112.489 55.927C111.044 56.5694 109.598 56.73 109.438 56.2482C109.277 55.7665 110.241 54.803 111.686 54C113.131 53.3577 114.577 53.1971 114.737 53.6789C114.898 54.1606 113.934 55.2847 112.489 55.927Z" fill="black"/>
</g>
<defs>
<filter id="filter0_d_185_68" x="0" y="0" width="154" height="157" filterUnits="userSpaceOnUse" color-interpolation-filters="sRGB">
<feFlood flood-opacity="0" result="BackgroundImageFix"/>
<feColorMatrix in="SourceAlpha" type="matrix" values="0 0 0 0 0 0 0 0 0 0 0 0 0 0 0 0 0 0 127 0" result="hardAlpha"/>
<feOffset dy="16"/>
<feGaussianBlur stdDeviation="6.5"/>
<feColorMatrix type="matrix" values="0 0 0 0 0 0 0 0 0 0 0 0 0 0 0 0 0 0 0.03 0"/>
<feBlend mode="normal" in2="BackgroundImageFix" result="effect1_dropShadow_185_68"/>
<feBlend mode="normal" in="SourceGraphic" in2="effect1_dropShadow_185_68" result="shape"/>
</filter>
<clipPath id="clip0_185_68">
<rect width="128" height="128" fill="white" transform="translate(13)"/>
</clipPath>
</defs>
</svg>
