<svg width="154" height="157" viewBox="0 0 154 157" fill="none" xmlns="http://www.w3.org/2000/svg">
<g filter="url(#filter0_d_185_226)">
<rect width="128" height="128" transform="translate(13)" fill="white"/>
<path fill-rule="evenodd" clip-rule="evenodd" d="M58.0472 72.2066H57.9291C57.9197 72.2963 57.8796 72.3412 57.8087 72.3412C57.778 72.3412 57.7237 72.327 57.6434 72.2963C57.4734 72.2373 57.3294 72.2066 57.2113 72.2066C56.6729 72.2161 56.3895 72.4711 56.3588 72.9693C56.3399 73.2881 56.5572 73.5573 57.0153 73.7746L57.2703 73.9092C57.5679 74.0178 57.7143 74.1736 57.7025 74.372C57.6836 74.6412 57.523 74.7805 57.2255 74.79C56.8264 74.79 56.5619 74.5208 56.4344 73.9847H56.3305V74.8962H56.4344C56.4533 74.8277 56.4934 74.7923 56.5548 74.7923C56.5832 74.7923 56.6398 74.8018 56.7178 74.823C56.8972 74.8726 57.0602 74.8986 57.2113 74.8986C57.7993 74.8797 58.1133 74.6199 58.1511 74.1217C58.1511 73.8124 58.0118 73.5786 57.7331 73.4204L57.1806 73.1512C57.0106 73.0709 56.9019 73.0024 56.8524 72.9434C56.8028 72.8843 56.7792 72.797 56.7792 72.6883C56.7886 72.4687 56.9279 72.3483 57.1971 72.3294C57.5466 72.3388 57.7945 72.5726 57.9433 73.0307H58.0472V72.2066ZM59.8112 72.3388C60.2386 72.3601 60.4629 72.7663 60.4842 73.5644C60.4842 74.372 60.2598 74.7805 59.8112 74.79C59.3531 74.7805 59.124 74.372 59.124 73.5644C59.1429 72.7686 59.372 72.3601 59.8112 72.3388ZM59.8112 72.2066C58.954 72.2656 58.5006 72.719 58.451 73.5668C58.5006 74.4121 58.954 74.8561 59.8112 74.8962C60.6589 74.8561 61.1052 74.4121 61.1548 73.5668C61.1052 72.719 60.6589 72.2656 59.8112 72.2066ZM63.9648 72.2656H63.1289V72.3554C63.3981 72.3554 63.5233 72.4853 63.502 72.7426V73.9068C63.5209 74.4546 63.2966 74.7286 62.829 74.7286C62.4512 74.7286 62.267 74.4806 62.2765 73.9824V72.7119C62.2765 72.5632 62.3024 72.4687 62.352 72.4286C62.3827 72.379 62.4819 72.353 62.6519 72.353V72.2633H61.3532V72.353C61.4925 72.3625 61.5775 72.3932 61.6058 72.4427C61.646 72.4829 61.6649 72.5726 61.6649 72.7119V73.9824C61.6554 74.3106 61.7451 74.5444 61.9341 74.6837C62.1135 74.823 62.3709 74.8939 62.711 74.8939C63.0392 74.8844 63.2895 74.7994 63.4572 74.6412C63.587 74.5019 63.6579 74.2587 63.6673 73.9092V72.6836C63.6461 72.4734 63.7476 72.3648 63.9648 72.3554V72.2656ZM65.998 74.7593C65.8185 74.7498 65.7194 74.7238 65.7005 74.6837C65.6509 74.6436 65.6249 74.5491 65.6249 74.4003V72.3837C66.0736 72.3743 66.3168 72.5868 66.3569 73.026H66.475L66.4608 72.2633H64.175L64.1608 73.026H64.2647C64.3143 72.5868 64.5623 72.3743 65.0109 72.3837V74.4003C65.0109 74.5491 64.985 74.6436 64.9354 74.6837C64.9165 74.7238 64.8173 74.7475 64.6378 74.7593V74.849H65.998V74.7593ZM69.4787 74.7593C69.3394 74.7404 69.2544 74.7144 69.2237 74.6837C69.1741 74.6436 69.1481 74.5751 69.1481 74.4735V72.6364C69.1386 72.4475 69.2473 72.353 69.4763 72.353V72.2633H68.1776V72.353C68.4161 72.353 68.5318 72.4475 68.5223 72.6364V73.4274H67.6108V72.6364C67.6014 72.4475 67.7147 72.353 67.9532 72.353V72.2633H66.6545V72.353C66.8835 72.353 66.9921 72.4475 66.9827 72.6364V74.4735C66.9827 74.5727 66.9567 74.6436 66.9095 74.6837C66.8788 74.7144 66.7938 74.738 66.6545 74.7593V74.849H67.9532V74.7593C67.8139 74.7404 67.7242 74.7144 67.684 74.6837C67.6344 74.6436 67.6085 74.5751 67.6085 74.4735V73.6069H68.52V74.4735C68.52 74.5727 68.4963 74.6436 68.4444 74.6837C68.4043 74.7144 68.3145 74.738 68.1752 74.7593V74.849H69.474V74.7593H69.4787ZM73.0208 74.2681C72.7421 74.5963 72.4422 74.7569 72.1234 74.7451C71.8637 74.7262 71.6701 74.6105 71.5402 74.4003C71.4316 74.2209 71.3749 73.9422 71.3749 73.5644C71.3749 72.7474 71.6087 72.3388 72.0786 72.3388C72.4469 72.3601 72.7468 72.6175 72.9759 73.1157H73.0656V72.2208H72.9617C72.9216 72.3388 72.8673 72.4002 72.7964 72.4002C72.7775 72.4002 72.7161 72.3814 72.617 72.3412C72.3879 72.2515 72.199 72.2066 72.0502 72.2066C71.2143 72.2656 70.7656 72.7238 70.7066 73.5809C70.7656 74.4263 71.219 74.8655 72.0668 74.8962C72.4753 74.9057 72.8342 74.7262 73.1412 74.3578L73.0208 74.2681ZM76.1567 74.7593C76.0174 74.7404 75.9324 74.7144 75.9017 74.6837C75.8521 74.6436 75.8261 74.5751 75.8261 74.4735V72.6364C75.8166 72.4475 75.9253 72.353 76.1543 72.353V72.2633H74.8556V72.353C75.0941 72.353 75.2098 72.4475 75.2003 72.6364V73.4274H74.2888V72.6364C74.2794 72.4475 74.3927 72.353 74.6336 72.353V72.2633H73.3348V72.353C73.5639 72.353 73.6725 72.4475 73.6631 72.6364V74.4735C73.6631 74.5727 73.6371 74.6436 73.5875 74.6837C73.5568 74.7144 73.4718 74.738 73.3325 74.7593V74.849H74.6312V74.7593C74.4919 74.7404 74.4022 74.7144 74.362 74.6837C74.3124 74.6436 74.2865 74.5751 74.2865 74.4735V73.6069H75.198V74.4735C75.198 74.5727 75.172 74.6436 75.1224 74.6837C75.0823 74.7144 74.9925 74.738 74.8532 74.7593V74.849H76.152V74.7593H76.1567ZM77.6514 74.7593C77.3917 74.7593 77.2665 74.6648 77.2783 74.4759V72.6387C77.2689 72.4498 77.3822 72.3554 77.6231 72.3554H77.6538V72.2656H76.3078V72.3554C76.5581 72.3554 76.6762 72.4498 76.6667 72.6387V74.4759C76.6667 74.5751 76.6431 74.6459 76.5912 74.6861C76.551 74.7168 76.4566 74.7404 76.3078 74.7616V74.8514H77.6538V74.7593H77.6514ZM78.6385 74.849V74.7593C78.3787 74.7593 78.2607 74.6294 78.2796 74.372V72.8465L79.9821 74.8939H80.086V72.6694C80.0648 72.4805 80.1663 72.3743 80.3836 72.3554V72.2656H79.5618V72.3554C79.8216 72.3648 79.9396 72.4947 79.9207 72.7426V73.8926L78.5913 72.2633H77.7837V72.353C77.8333 72.3436 77.9419 72.438 78.1119 72.6364V74.4452C78.1119 74.5538 78.0859 74.6294 78.0364 74.6695C77.9962 74.7097 77.9065 74.738 77.7672 74.7593V74.849H78.6385ZM81.177 73.954L81.5359 73.0118L81.9232 73.954H81.177ZM83.0897 74.7593C83.0094 74.7593 82.9457 74.7238 82.8961 74.6554C82.8559 74.6152 82.7827 74.4712 82.6718 74.2232L81.8193 72.2066H81.7154L80.8629 74.313C80.7732 74.6129 80.648 74.7616 80.4898 74.7616V74.8514H81.2667V74.7616H81.2526C81.0542 74.7309 80.9527 74.6766 80.9527 74.5987C80.9432 74.5491 81.0023 74.3838 81.1321 74.1052H81.9846C82.0932 74.3437 82.1546 74.5137 82.1641 74.6129C82.1829 74.7026 82.0956 74.7522 81.8949 74.7616H81.85V74.8514H83.0897V74.7593ZM85.0922 74.849V74.7593C84.8324 74.7593 84.7144 74.6294 84.7332 74.372V72.8465L86.4358 74.8939H86.5397V72.6694C86.5185 72.4805 86.62 72.3743 86.8372 72.3554V72.2656H86.0155V72.3554C86.2752 72.3648 86.3933 72.4947 86.3744 72.7426V73.8926L85.0449 72.2633H84.2374V72.353C84.2869 72.3436 84.3979 72.438 84.5656 72.6364V74.4452C84.5656 74.5538 84.5396 74.6294 84.49 74.6695C84.4499 74.7097 84.3601 74.738 84.2208 74.7593V74.849H85.0922ZM88.4099 72.3388C88.8373 72.3601 89.0617 72.7663 89.0806 73.5644C89.0806 74.372 88.8562 74.7805 88.4099 74.79C87.9518 74.7805 87.7228 74.372 87.7228 73.5644C87.744 72.7686 87.9731 72.3601 88.4099 72.3388ZM88.4099 72.2066C87.5527 72.2656 87.0993 72.719 87.0498 73.5668C87.0993 74.4121 87.5527 74.8561 88.4099 74.8962C89.2553 74.8561 89.704 74.4121 89.7536 73.5668C89.7063 72.719 89.2577 72.2656 88.4099 72.2066ZM90.9508 72.549C90.9319 72.4286 91.0098 72.379 91.1893 72.4002C91.4986 72.4002 91.6521 72.5844 91.6521 72.9528C91.6521 73.1819 91.6025 73.3354 91.501 73.4156C91.4112 73.4959 91.2271 73.5337 90.9484 73.5337V72.549H90.9508ZM92.625 74.7593C92.5754 74.7593 92.5258 74.7357 92.4762 74.6837L91.6993 73.5927C92.1079 73.4747 92.3062 73.2551 92.2968 72.9363C92.2873 72.4971 91.9284 72.2727 91.2223 72.2633H89.9968V72.353C90.1361 72.3625 90.2211 72.3884 90.2518 72.4286C90.3014 72.4782 90.3274 72.5726 90.3274 72.7119V74.4003C90.3274 74.5397 90.3061 74.6341 90.2683 74.6837C90.2376 74.7238 90.1479 74.7475 89.9991 74.7593V74.849H91.2837V74.7593C91.1232 74.7404 91.0334 74.7097 91.0145 74.6695C90.9744 74.6294 90.9555 74.5397 90.9555 74.4003V73.6541H91.0594L91.8505 74.849H92.6274V74.7593H92.625ZM96.1647 74.7593C96.0065 74.7404 95.912 74.7097 95.8814 74.6695C95.8412 74.6294 95.8223 74.5397 95.8223 74.4003V72.7119C95.8223 72.5726 95.8483 72.4782 95.8979 72.4286C95.9286 72.3884 96.0183 72.3648 96.1671 72.353V72.2633H95.1965L94.4338 74.0721L93.6711 72.2633H92.7006V72.353C92.9485 72.3625 93.0642 72.4569 93.0453 72.6364V74.4452C93.0453 74.5656 93.0264 74.6436 92.9863 74.6837C92.9461 74.7238 92.8517 74.7475 92.7029 74.7593V74.849H93.5837V74.7593C93.4326 74.7498 93.3334 74.7144 93.2838 74.6554C93.2342 74.6058 93.2083 74.5113 93.2083 74.372V72.5939L94.1646 74.849H94.2685L95.2249 72.5325H95.2391V74.4594C95.2391 74.568 95.2131 74.6436 95.1635 74.6837C95.1328 74.7144 95.0431 74.738 94.8943 74.7593V74.849H96.1647V74.7593ZM96.9581 73.954L97.3171 73.0118L97.7043 73.954H96.9581ZM98.8709 74.7593C98.7906 74.7593 98.7268 74.7238 98.6772 74.6554C98.6371 74.6152 98.5639 74.4712 98.4529 74.2232L97.6004 72.2066H97.4965L96.6441 74.313C96.5543 74.6129 96.4292 74.7616 96.271 74.7616V74.8514H97.0479V74.7616H97.0313C96.833 74.7309 96.7314 74.6766 96.7314 74.5987C96.722 74.5491 96.781 74.3838 96.9109 74.1052H97.7634C97.872 74.3437 97.931 74.5137 97.9428 74.6129C97.9617 74.7026 97.8744 74.7522 97.6736 74.7616H97.6288V74.8514H98.8685V74.7593H98.8709ZM101.426 73.9847H101.322C101.143 74.5019 100.819 74.7522 100.351 74.7309C100.101 74.7522 99.9878 74.6813 100.009 74.5231V72.7143C100.009 72.5655 100.035 72.4711 100.085 72.4309C100.125 72.3813 100.229 72.3554 100.399 72.3554V72.2656H99.0692V72.3554C99.2983 72.3554 99.4069 72.4498 99.3975 72.6387V74.4759C99.3975 74.5751 99.3738 74.6459 99.3219 74.6861C99.2912 74.7168 99.2062 74.7404 99.0669 74.7616V74.8514H101.279L101.426 73.9847ZM105.159 72.2656H104.323V72.3554C104.593 72.3554 104.718 72.4853 104.696 72.7426V73.9068C104.715 74.4546 104.491 74.7286 104.023 74.7286C103.646 74.7286 103.461 74.4806 103.471 73.9824V72.7119C103.471 72.5632 103.497 72.4687 103.546 72.4286C103.577 72.379 103.676 72.353 103.846 72.353V72.2633H102.548V72.353C102.687 72.3625 102.772 72.3932 102.8 72.4427C102.84 72.4829 102.859 72.5726 102.859 72.7119V73.9824C102.85 74.3106 102.94 74.5444 103.128 74.6837C103.308 74.823 103.565 74.8939 103.905 74.8939C104.234 74.8844 104.484 74.7994 104.652 74.6412C104.781 74.5019 104.85 74.2587 104.862 73.9092V72.6836C104.84 72.4734 104.942 72.3648 105.159 72.3554V72.2656ZM106.163 74.849V74.7593C105.903 74.7593 105.785 74.6294 105.804 74.372V72.8465L107.506 74.8939H107.61V72.6694C107.589 72.4805 107.691 72.3743 107.908 72.3554V72.2656H107.086V72.3554C107.346 72.3648 107.464 72.4947 107.445 72.7426V73.8926L106.116 72.2633H105.308V72.353C105.358 72.3436 105.469 72.438 105.636 72.6364V74.4452C105.636 74.5538 105.613 74.6294 105.561 74.6695C105.521 74.7097 105.431 74.738 105.291 74.7593V74.849H106.163ZM109.405 74.7593C109.145 74.7593 109.02 74.6648 109.032 74.4759V72.6387C109.022 72.4498 109.136 72.3554 109.377 72.3554H109.407V72.2656H108.061V72.3554C108.309 72.3554 108.43 72.4498 108.42 72.6387V74.4759C108.42 74.5751 108.397 74.6459 108.345 74.6861C108.305 74.7168 108.21 74.7404 108.061 74.7616V74.8514H109.407V74.7593H109.405ZM111.332 72.2656V72.3554C111.471 72.3648 111.556 72.3814 111.585 72.4002C111.634 72.4191 111.66 72.464 111.66 72.5348C111.66 72.575 111.641 72.6435 111.601 72.745C111.592 72.7757 111.587 72.7946 111.587 72.804L111.093 74.0579L110.6 72.8465C110.52 72.6883 110.482 72.5773 110.482 72.5183C110.482 72.4475 110.501 72.4097 110.541 72.3979C110.569 72.379 110.659 72.3625 110.81 72.353V72.2633H109.525V72.353C109.674 72.353 109.785 72.4427 109.854 72.6222L110.827 74.8939H110.93L111.797 72.6671C111.868 72.4593 111.981 72.353 112.142 72.353V72.2656H111.332ZM112.274 72.3554C112.513 72.3554 112.628 72.4498 112.619 72.6387V74.4759C112.619 74.5751 112.595 74.6459 112.543 74.6861C112.513 74.7168 112.423 74.7404 112.274 74.7616V74.8514H114.515L114.664 74.0603H114.56C114.371 74.5184 114.038 74.7427 113.559 74.7333C113.32 74.7427 113.212 74.6743 113.23 74.5255V73.5998C113.438 73.5998 113.589 73.64 113.679 73.7203C113.769 73.81 113.828 73.9635 113.859 74.1831H113.948V72.8985H113.859C113.828 73.1181 113.769 73.2669 113.679 73.3472C113.589 73.4274 113.441 73.4652 113.23 73.4652V72.5844C113.212 72.4451 113.306 72.3861 113.514 72.405C113.814 72.405 114.022 72.4498 114.142 72.5396C114.272 72.6293 114.352 72.7946 114.38 73.0331H114.487V72.2704H112.274V72.3554ZM115.814 72.549C115.795 72.4286 115.873 72.379 116.052 72.4002C116.362 72.4002 116.515 72.5844 116.515 72.9528C116.515 73.1819 116.466 73.3354 116.366 73.4156C116.277 73.4959 116.092 73.5337 115.814 73.5337V72.549ZM117.488 74.7593C117.438 74.7593 117.389 74.7357 117.339 74.6837L116.562 73.5927C116.971 73.4747 117.169 73.2551 117.16 72.9363C117.15 72.4971 116.791 72.2727 116.085 72.2633H114.86V72.353C114.999 72.3625 115.084 72.3884 115.115 72.4286C115.164 72.4782 115.19 72.5726 115.19 72.7119V74.4003C115.19 74.5397 115.169 74.6341 115.131 74.6837C115.101 74.7238 115.011 74.7475 114.862 74.7593V74.849H116.147V74.7593C115.986 74.7404 115.896 74.7097 115.878 74.6695C115.837 74.6294 115.819 74.5397 115.819 74.4003V73.6541H115.922L116.714 74.849H117.49V74.7593H117.488ZM119.356 72.2066H119.238C119.228 72.2963 119.188 72.3412 119.117 72.3412C119.087 72.3412 119.032 72.327 118.952 72.2963C118.782 72.2373 118.638 72.2066 118.52 72.2066C117.982 72.2161 117.698 72.4711 117.667 72.9693C117.649 73.2881 117.866 73.5573 118.324 73.7746L118.579 73.9092C118.877 74.0178 119.023 74.1736 119.011 74.372C118.992 74.6412 118.832 74.7805 118.532 74.79C118.133 74.79 117.871 74.5208 117.741 73.9847H117.637V74.8962H117.741C117.76 74.8277 117.8 74.7923 117.861 74.7923C117.889 74.7923 117.946 74.8018 118.024 74.823C118.204 74.8726 118.369 74.8986 118.518 74.8986C119.106 74.8797 119.42 74.6199 119.457 74.1217C119.457 73.8124 119.318 73.5786 119.039 73.4204L118.487 73.1512C118.317 73.0709 118.208 73.0024 118.159 72.9434C118.109 72.8843 118.085 72.797 118.085 72.6883C118.095 72.4687 118.234 72.3483 118.503 72.3294C118.853 72.3388 119.101 72.5726 119.25 73.0307H119.356V72.2066ZM121.044 74.7593C120.785 74.7593 120.662 74.6648 120.671 74.4759V72.6387C120.662 72.4498 120.775 72.3554 121.014 72.3554H121.044V72.2656H119.698V72.3554C119.946 72.3554 120.067 72.4498 120.057 72.6387V74.4759C120.057 74.5751 120.034 74.6459 119.984 74.6861C119.944 74.7168 119.849 74.7404 119.701 74.7616V74.8514H121.047V74.7593H121.044ZM123.061 74.7593C122.881 74.7498 122.782 74.7238 122.763 74.6837C122.714 74.6436 122.688 74.5491 122.688 74.4003V72.3837C123.136 72.3743 123.38 72.5868 123.42 73.026H123.538L123.524 72.2633H121.238L121.224 73.026H121.328C121.377 72.5868 121.625 72.3743 122.074 72.3837V74.4003C122.074 74.5491 122.048 74.6436 121.998 74.6837C121.979 74.7238 121.878 74.7475 121.701 74.7593V74.849H123.061V74.7593ZM125.481 72.2656V72.3554C125.701 72.3648 125.805 72.4239 125.795 72.5348C125.786 72.634 125.736 72.7497 125.647 72.8796L125.229 73.5975L124.766 72.7001C124.766 72.6907 124.756 72.6742 124.737 72.6553C124.697 72.575 124.676 72.5207 124.676 72.49C124.648 72.3908 124.752 72.3459 124.99 72.3554V72.2656H123.706V72.3554C123.835 72.3648 123.935 72.4357 124.005 72.5655L124.707 73.836V74.4051C124.707 74.5444 124.683 74.6341 124.634 74.6743C124.603 74.7238 124.508 74.7545 124.35 74.764V74.8537H125.68V74.764C125.521 74.7545 125.425 74.7286 125.396 74.6884C125.356 74.6483 125.337 74.5538 125.337 74.4051V73.7014L126.069 72.5065C126.119 72.4262 126.199 72.3766 126.308 72.3577H126.322V72.2656H125.481Z" fill="#004073"/>
<path fill-rule="evenodd" clip-rule="evenodd" d="M59.4664 58.4634C60.0827 58.4634 59.9079 60.0526 59.9079 60.0526L58.4982 60.8011C58.4982 60.8011 57.7945 61.4552 58.85 61.4552C59.9079 61.4552 61.1406 60.428 61.1406 60.428L60.9635 62.4848C60.9635 62.4848 56.9113 64.8226 56.3824 64.8226C55.8534 64.8226 55.3245 65.4767 56.2053 65.9442C57.0861 66.4118 56.7342 66.3173 57.7024 65.5711C58.6706 64.8226 60.8737 63.4223 60.8737 63.4223L60.9611 65.0115L59.3743 66.1331C59.3743 66.1331 58.4061 66.6337 59.3743 67.2548C60.3424 67.8758 61.0485 67.1603 61.0485 67.1603C61.0485 67.1603 60.9611 68.282 60.8714 68.844C60.784 69.406 60.2551 69.6847 61.1359 70.6198C62.0167 71.5549 62.4889 71.1487 62.4889 70.3081C62.4889 69.4674 62.2811 65.9442 62.2811 65.9442C62.2811 65.9442 63.339 65.6632 63.5138 65.1957C63.6909 64.7281 63.5138 64.6337 62.633 64.6337C61.7522 64.6337 61.7522 64.3526 61.7522 64.3526L62.0214 62.6761C62.0214 62.6761 64.4253 61.9606 65.5351 61.4316C66.4584 60.9924 66.4891 60.6736 66.2624 60.5154C65.972 60.3123 65.1927 60.3548 64.6874 60.5248C63.4949 60.9216 62.1206 61.741 62.1206 61.741L62.2811 60.4257C62.2811 60.4257 62.4582 59.304 63.1619 59.304C63.8656 59.304 65.188 58.5554 65.1006 58.0879C65.0133 57.6203 64.7653 57.7242 64.1466 57.8187C63.9034 57.8565 63.6531 57.1032 63.5374 57.174C63.0816 57.4574 63.4453 58.7231 62.47 58.5554C62.2315 58.5153 62.4866 58.2437 62.3638 58.206C62.0922 58.1186 61.7805 58.1587 61.5869 58.5011L61.0131 59.5165C61.0131 59.5165 60.5195 58.3689 60.9588 57.9013C61.4003 57.4338 64.9235 55.2849 64.9235 55.2849C64.9235 55.2849 65.3651 54.0688 64.3946 54.4443C63.4264 54.8174 61.7522 56.501 61.7522 56.501C61.7522 56.501 61.4003 57.2496 61.1359 56.6876C60.8714 56.1256 61.313 55.5659 60.8714 55.4715C60.4298 55.377 59.6387 54.9095 59.6387 55.658C59.6387 55.9508 59.4286 55.9863 59.2916 56.1303C59.1074 56.3216 59.1358 56.4066 59.1452 56.4633C59.157 56.527 59.1735 56.5506 59.3436 56.6215C59.6387 56.7466 59.6387 57.2472 59.6387 57.2472C59.3743 57.3511 59.0673 57.3818 58.9374 57.5873C58.7272 57.9297 58.8618 58.4634 59.4664 58.4634Z" fill="#004073"/>
<path fill-rule="evenodd" clip-rule="evenodd" d="M83.4557 56.952C83.4557 56.952 83.9775 57.37 83.9775 57.8683C83.9775 58.3665 83.2195 59.8259 82.5442 60.5791C82.0176 61.1671 81.2431 62.0385 80.9077 62.473C80.7543 62.6713 80.6645 62.8012 80.9573 62.9169C81.184 63.009 81.5288 63.035 81.661 62.8224C81.8688 62.48 84.7308 59.278 85.1346 58.7656C85.5526 58.2296 85.5195 57.7313 85.0402 57.3464C84.0153 56.5175 83.4557 56.952 83.4557 56.952ZM81.8287 65.6231C81.7224 67.276 81.9656 67.5122 82.2325 67.5476C82.497 67.5806 83.2432 67.5027 83.1888 65.8946C83.1369 64.2865 81.8381 64.1732 81.8381 64.1732L81.8287 65.6231ZM84.2656 63.7387C84.2042 63.7883 83.5076 64.1661 83.5242 64.5911C83.5383 65.0185 83.5549 65.9041 84.0177 65.9536C84.4829 66.0032 84.9457 65.6419 84.8229 64.8532C84.7001 64.0669 84.327 63.6891 84.2656 63.7387ZM84.4569 60.8483C84.4569 60.8483 83.3872 62.3525 82.9787 62.6713C82.5725 62.9901 83.0849 63.2192 83.4722 63.3325C83.8571 63.4459 84.4569 63.6064 84.6505 62.9689C84.8442 62.3313 84.8206 61.9417 84.9929 61.8519C85.1653 61.7622 85.2928 61.1671 85.0803 60.9853C84.8654 60.8035 84.4569 60.8483 84.4569 60.8483ZM85.3708 64.1802C85.3708 64.1802 85.1984 64.9619 85.7486 64.8532C86.2964 64.7446 87.0167 64.0716 87.0332 64.4164C87.0497 64.7611 87.019 68.4827 87.019 68.7802C87.019 69.0778 87.411 69.4131 87.6164 69.4131C87.8219 69.4131 88.2871 69.1958 88.2871 68.3056V64.4849C88.2871 64.4849 88.8467 64.9005 89.7606 63.316C90.3887 62.2274 89.9495 61.9157 89.6142 61.8259C89.3285 61.7504 89.3403 61.7905 89.1159 61.9464C88.8349 62.1447 88.3485 62.4635 88.1171 62.4635C87.7817 62.4635 88.0982 62.1872 87.9305 62.1872C87.7629 62.1872 87.3142 62.0692 87.3142 62.2864C87.3142 62.5037 87.2953 63.4742 87.2953 63.4742L85.3708 64.1802ZM88.6295 62.6548C88.5185 62.7918 88.1785 63.2215 88.3367 63.3278C88.4949 63.434 88.7452 63.5214 88.9223 63.2215C89.097 62.9216 89.5245 62.6477 89.2553 62.5485C88.9861 62.4494 88.6295 62.6548 88.6295 62.6548ZM86.1736 61.4623C86.3271 61.715 86.6081 61.9983 87.0355 61.9511C87.7983 61.8685 88.9719 60.8672 89.3639 60.513C89.7559 60.1588 90.1856 59.7219 89.8527 59.3866C89.5197 59.0537 89.1679 59.1151 88.5421 59.6369C88.0911 60.01 87.0261 60.6122 86.4405 60.9121C86.0721 61.0986 85.9021 61.0136 86.1736 61.4623Z" fill="#004073"/>
<path fill-rule="evenodd" clip-rule="evenodd" d="M101.237 57.0158C100.982 56.7442 100.344 56.8788 99.936 57.4243C99.5274 57.9674 99.5534 58.6192 99.7565 58.7302C99.9619 58.8388 100.968 58.8246 101.539 58.1091C102 57.5353 101.237 57.0158 101.237 57.0158ZM97.3762 58.6499C97.0338 58.4515 96.597 58.3996 96.4104 58.6711C96.2262 58.9403 95.9122 59.3158 96.46 59.7101C97.0055 60.1045 97.5226 60.376 97.8461 59.9274C98.5168 58.8577 97.3762 58.6499 97.3762 58.6499ZM100.144 61.101C100.569 61.0632 100.427 61.552 100.144 61.7787C99.8604 62.0054 99.5038 62.532 99.5038 63.1341C99.5038 63.7363 100.321 63.963 100.64 63.963C100.958 63.963 100.675 63.2853 100.675 62.8342C100.675 62.3832 101.206 61.7433 101.705 61.2899C102.201 60.8389 101.775 60.2367 101.138 60.0856C100.498 59.9345 99.7187 60.99 99.7187 60.99L100.144 61.101ZM99.0811 63.4718L98.6915 63.0586C98.6915 63.0586 98.5498 64.9784 98.3373 65.6561C98.1248 66.3338 98.4436 67.6137 99.2252 67.727C100.007 67.8404 102.205 67.8026 102.704 67.6515C103.199 67.5003 103.698 66.8226 103.27 65.7317C102.845 64.6407 102.63 64.3385 102.453 64.3762C102.276 64.414 102.205 64.7517 102.312 65.2429C102.418 65.7317 102.737 66.4094 102.17 66.5983C101.603 66.7872 99.4023 67.2382 99.296 66.0717C99.1874 64.9028 99.3645 64.2251 99.0811 63.4718ZM94.5425 58.7018C94.1199 59.0064 93.3855 59.781 93.4563 60.3501C93.5508 61.1199 93.8318 61.4528 94.4292 61.3537C94.9511 61.2663 95.2793 59.618 95.2085 58.8482C95.1612 58.3594 94.8424 58.4846 94.5425 58.7018ZM96.0515 61.0608L96.042 61.5662L95.454 61.9416C95.454 61.9416 95.5414 62.284 95.983 62.1919C96.4246 62.0975 95.924 62.9405 95.6288 62.9098C95.3336 62.8791 95.0408 62.8791 94.9818 63.0964C94.9227 63.316 93.9522 63.2522 93.9522 63.2522C93.9522 63.2522 93.1871 64.0952 93.5413 64.4707C93.8932 64.8461 94.4528 64.2841 94.6299 64.1897C94.807 64.0952 95.0715 63.7528 95.4234 64.1283C95.7752 64.5037 95.7162 64.5651 95.3053 64.8461C94.8944 65.1272 95.0408 65.3444 95.2462 65.5026C95.4517 65.6585 95.5107 65.9088 94.8354 65.9088C94.1576 65.9088 94.4245 65.7222 94.3654 65.5664C94.3064 65.4105 93.0997 65.9725 92.866 66.6597C92.6298 67.3469 93.1611 67.7837 93.6618 67.6279C94.1624 67.472 95.0148 66.3787 95.4564 66.5983C95.898 66.8179 95.5438 67.0659 95.31 67.5665C95.0739 68.0647 95.1919 69.0116 95.5981 69.3895C96.0042 69.7673 96.4104 68.9573 96.4104 68.4166C96.4104 67.8758 96.2593 66.3362 96.486 66.1473C96.715 65.9584 96.9937 65.3373 97.2463 65.1744C97.499 65.0114 97.7021 64.7422 97.7021 64.3361C97.7021 63.9299 97.6005 63.8496 97.2463 63.7694C96.8921 63.6891 97.0952 63.0137 97.2959 62.9594C97.499 62.9051 97.8792 62.6359 97.8532 62.3384C97.8272 62.0408 97.6997 61.663 97.3975 61.689C97.0928 61.7173 97.27 61.1766 96.8142 60.9876C96.3561 60.7916 96.0255 60.7916 96.0515 61.0608Z" fill="#004073"/>
<path fill-rule="evenodd" clip-rule="evenodd" d="M115.242 67.8144C115.242 67.8144 114.102 68.0033 113.318 67.5877C112.534 67.1721 111.322 66.3031 111.322 66.3031C111.322 66.3031 111.07 66.0929 111.058 66.4235C111.046 66.7541 111.417 67.2878 111.596 67.4909C111.776 67.694 112.531 69.4603 113.308 69.3989C114.09 69.3328 115.242 67.8144 115.242 67.8144ZM111.358 59.7975C111.358 59.3819 110.966 58.3972 110.503 57.9816C110.04 57.566 109.719 57.566 109.932 58.5483C110.146 59.5307 109.932 63.0869 109.61 63.8048C109.289 64.5226 108.47 64.7493 107.473 64.8627C106.477 64.976 105.728 64.5604 106.047 65.2783C106.368 65.9961 106.581 66.8297 107.258 66.4117C107.936 65.9961 109.433 64.8603 109.395 65.7317C109.36 66.6006 108.184 68.5677 106.474 68.2654C106.474 68.2654 106.189 68.9833 107.188 69.1722C108.184 69.3611 110.253 67.6609 110.111 65.0138C110.111 65.0138 112.428 64.0315 113.353 63.5781C114.279 63.1247 113.603 62.7091 113.389 62.6335C113.174 62.558 112.746 62.1801 112.283 62.5957C111.821 63.0113 110.751 63.9559 110.503 63.5403C110.253 63.1247 110.68 62.1022 111.001 61.4977C111.322 60.8932 111.358 59.7975 111.358 59.7975Z" fill="#004073"/>
<path fill-rule="evenodd" clip-rule="evenodd" d="M76.7045 60.82L73.0207 63.1837L72.9853 62.48C72.9853 62.48 75.6655 60.0053 75.9725 59.7078C76.2795 59.4079 75.564 58.7018 75.3349 59.0277C75.1058 59.3535 74.6714 59.6251 74.3903 59.4622C74.1093 59.2992 74.7729 58.7278 74.6454 58.2933C74.5179 57.8588 72.7067 56.527 72.7067 56.527L72.8059 59.9392C72.7822 60.7113 71.0443 61.4174 70.3665 61.3654C69.6912 61.3135 69.3086 61.1624 69.3393 61.8613C69.37 62.5603 71.0372 62.7398 71.4717 62.7634C71.9062 62.787 71.9274 63.5285 71.5236 63.7009C71.1198 63.8732 69.3724 64.754 68.8009 65.0138C68.2295 65.2735 68.1681 66.296 68.1681 67.6633C68.1681 69.0305 69.004 69.3564 69.3913 69.3564C69.7786 69.3564 69.84 68.596 69.8612 67.923C69.8825 67.25 69.311 66.6644 69.1481 66.185C68.9851 65.708 70.5555 64.8603 70.9026 64.839C71.2497 64.8178 71.2284 65.3609 71.4929 65.6632C71.7574 65.9678 72.2273 65.6207 72.4115 65.4034C72.5957 65.1862 72.983 65.1862 73.0632 65.3822C73.1435 65.5782 72.8791 65.6655 72.4516 65.8379C72.0242 66.0127 72.1045 66.1425 72.2675 66.4684C72.4304 66.7943 72.2462 67.2288 71.84 67.2288C71.4315 67.2288 71.33 67.7506 71.33 67.7506C71.33 67.7506 71.3229 67.7601 71.363 67.8923C71.4032 68.0222 72.3454 69.1533 72.7964 69.2383C73.2474 69.3257 73.4505 68.9549 73.9015 67.8923C74.3526 66.8273 75.2334 68.3056 75.5403 68.8038C75.8473 69.3044 76.8509 70.1073 76.9123 68.6952C76.9737 67.2831 77.4295 64.0905 77.8994 62.1116C78.3669 60.1304 76.7045 60.82 76.7045 60.82ZM73.127 64.2983C72.8106 64.5864 72.3076 64.6053 72.0951 64.4258C71.8802 64.2487 72.3832 63.9394 72.709 63.7434C73.0349 63.545 73.5922 63.4458 73.6961 63.545C73.6937 63.5474 73.4434 64.0126 73.127 64.2983ZM76.3668 65.564C76.3668 65.5475 76.2488 68.008 75.7576 67.8498C75.2664 67.6916 74.7327 67.5806 74.3455 65.9725C73.9582 64.3644 75.4294 63.6867 75.5049 63.6395C75.5781 63.5922 75.682 63.2758 75.3255 63.1979C74.9689 63.12 74.8508 62.8201 75.2948 62.5981C75.7411 62.3785 76.9454 61.2899 76.9005 62.2982C76.858 63.3089 76.3668 65.5805 76.3668 65.564Z" fill="#004073"/>
<path fill-rule="evenodd" clip-rule="evenodd" d="M125.368 60.454C125.368 60.454 126.079 59.0537 126.619 58.6239C127.16 58.1941 127.059 57.4763 126.721 57.1173C126.383 56.7584 125.876 56.9379 125.505 57.2614C125.132 57.5849 123.172 58.9828 122.969 58.9828C122.766 58.9828 122.258 58.7679 122.766 58.3736C123.273 57.9792 124.532 57.8942 123.994 56.7962C123.458 55.6981 122.799 56.2224 122.799 56.2224C122.799 56.2224 123.103 56.867 123.035 57.1551C122.966 57.4432 122.223 58.3027 122.223 58.3027L119.686 56.7608C119.686 56.7608 119.247 56.7608 119.247 57.0489C119.247 57.3346 119.417 57.5164 119.788 57.7667C120.159 58.017 120.633 58.3759 120.633 59.023C120.633 59.6676 120.702 60.7798 120.499 60.709C120.296 60.6382 119.923 60.5295 119.923 60.0266C119.923 59.5236 118.976 59.3441 118.841 59.5236C118.706 59.703 118.841 59.9911 118.943 60.6712C119.044 61.3513 118.739 61.8543 119.11 61.9983C119.483 62.1424 119.753 62.1424 119.753 62.4635C119.753 62.787 117.249 64.8674 117.453 65.1909C117.656 65.5144 117.757 66.2677 118.399 66.0528C119.042 65.8379 121.951 63.3608 122.796 62.8224C123.642 62.284 125.434 60.9215 125.772 61.2427C126.109 61.5662 124.386 63.0373 123.878 63.1436C123.37 63.2522 123.269 63.1082 122.593 63.6111C121.918 64.1141 121.073 64.329 121.41 64.5085C121.748 64.6879 122.796 64.2936 122.73 64.6525C122.662 65.0114 122.966 65.5498 122.494 65.6207C122.022 65.6915 120.938 65.8356 120.161 66.2299C119.384 66.6243 117.828 67.4508 118.064 67.8451C118.3 68.2395 119.483 68.9219 120.227 69.4603C120.971 69.9987 121.649 70.5371 121.918 70.7166C122.189 70.896 123.474 71.1841 123.474 69.9633C123.474 68.7424 123.441 66.518 123.441 66.518H125.505C125.505 66.518 125.977 66.4094 125.911 65.8356C125.843 65.2618 125.335 64.8674 125.066 64.8674C124.794 64.8674 124.659 64.9382 124.659 65.2263H123.746V64.5085C123.746 64.5085 124.489 64.0787 124.489 63.7552C124.489 63.4317 124.355 63.3963 124.964 62.9665C125.573 62.5367 126.688 61.8189 126.688 61.1364C126.686 60.454 125.942 60.454 125.368 60.454ZM121.094 59.252C121.068 58.9569 121.372 59.1174 121.372 59.1174C121.372 59.1174 121.776 59.226 121.776 59.5212C121.776 59.8164 121.649 59.8447 121.295 59.8447C120.943 59.8424 121.12 59.5472 121.094 59.252ZM121.094 60.8649C121.651 60.7043 121.701 60.4894 121.727 60.7586C121.753 61.0278 121.776 61.0538 122.005 60.9995C122.232 60.9451 122.336 60.8389 122.31 61.1884C122.284 61.5378 122.284 61.4576 121.805 61.5922C121.323 61.7268 121.401 61.4835 121.021 61.8873C120.64 62.2911 120.336 61.9133 120.336 61.9133C120.336 61.9133 120.537 61.0254 121.094 60.8649ZM120.943 63.3372C120.716 63.4718 119.677 64.6006 119.323 64.3054C118.969 64.0102 120.208 63.0161 120.539 62.7469C120.539 62.7469 122.515 61.5922 122.768 61.8614C123.018 62.1258 121.169 63.2026 120.943 63.3372ZM123.172 60.7019C122.919 60.7822 122.768 60.6216 122.69 60.3784C122.615 60.1375 123.221 60.1375 123.221 60.1375C123.221 60.1375 123.424 60.2721 123.424 60.513C123.424 60.7562 123.424 60.6216 123.172 60.7019ZM125.12 60.0573C125.044 60.1919 124.943 60.1635 124.815 60.3524C124.688 60.5413 124.664 60.6216 124.638 60.9168C124.612 61.212 124.612 61.2403 124.258 61.2663C123.904 61.2923 123.979 61.0774 123.979 60.8908C123.979 60.7019 124.005 60.6759 124.005 60.3524C124.005 60.0313 124.081 60.2981 124.31 60.1635C124.537 60.0289 124.563 59.8943 124.69 59.5991C124.818 59.304 124.664 59.2756 124.438 59.1434C124.211 59.0088 124.31 58.9828 124.31 58.7136C124.31 58.4444 124.589 58.4728 124.969 58.1233C125.349 57.7738 125.628 57.7195 125.956 57.9627C126.284 58.2036 125.451 59.226 125.247 59.7101C125.247 59.7078 125.198 59.9227 125.12 60.0573ZM122.145 69.7578C122.036 70.1026 121.783 69.5666 120.376 68.6055C118.969 67.6444 119.691 67.8357 120.376 67.4909C121.061 67.1461 122.18 66.9147 122.18 66.9147C122.18 66.9147 122.253 69.4107 122.145 69.7578Z" fill="#004073"/>
<path fill-rule="evenodd" clip-rule="evenodd" d="M49.8887 62.2532C51.0032 62.8341 51.7919 63.6818 52.1887 64.8531C51.4968 65.1837 50.8025 65.5142 50.1083 65.8448C50.7742 64.6736 50.6136 63.474 49.8887 62.2532Z" fill="#A6AFB5"/>
<path fill-rule="evenodd" clip-rule="evenodd" d="M29.3 62.2532C28.1854 62.8341 27.3967 63.6818 27 64.8507C27.6942 65.1813 28.3861 65.5119 29.0804 65.8425C28.4168 64.6736 28.5774 63.474 29.3 62.2532Z" fill="#A6AFB5"/>
<path fill-rule="evenodd" clip-rule="evenodd" d="M27 64.853V67.3703C28.1405 67.7693 29.2433 68.218 30.0745 69.0138C30.7097 68.669 31.1277 68.0149 31.3237 67.0562C30.8443 66.2439 29.6755 65.4882 27 64.853Z" fill="#D8E8F7"/>
<path fill-rule="evenodd" clip-rule="evenodd" d="M52.1909 64.853V67.3703C51.0503 67.7693 49.9476 68.218 49.1164 69.0138C48.4811 68.669 48.0632 68.0149 47.8672 67.0562C48.3465 66.2439 49.5131 65.4882 52.1909 64.853Z" fill="#D8E8F7"/>
<path fill-rule="evenodd" clip-rule="evenodd" d="M50.7554 70.7424C49.3764 69.7719 48.3893 68.7305 47.8863 67.5781C47.1425 68.7659 47.3196 70.4189 48.4295 71.6066C49.5204 71.5027 49.6645 70.8463 50.7554 70.7424Z" fill="#A6AFB5"/>
<path fill-rule="evenodd" clip-rule="evenodd" d="M28.332 70.8912C29.7465 69.7719 30.8493 68.6762 31.3263 67.5215C32.0701 68.7659 31.7678 70.5511 30.658 71.7956C29.567 71.687 29.4254 70.9998 28.332 70.8912Z" fill="#A6AFB5"/>
<path fill-rule="evenodd" clip-rule="evenodd" d="M30.9037 55.7546H48.1395V66.1684C48.1395 67.7623 47.1076 69.2807 45.66 70.544C43.8654 72.112 41.4261 73.2903 39.5629 73.7153H39.4779C37.126 73.1817 34.8661 72.0175 33.258 70.3693C31.8199 68.8934 30.9014 67.0303 30.9014 64.8838V55.7546H30.9037Z" fill="#004073"/>
<path fill-rule="evenodd" clip-rule="evenodd" d="M31.291 56.1396V64.8839C31.291 66.9217 32.1647 68.6928 33.5367 70.1002C35.081 71.6847 37.2535 72.8087 39.5204 73.3305C41.3222 72.9102 43.6718 71.7697 45.405 70.256C46.7723 69.0612 47.7499 67.6396 47.7499 66.1708V56.1396H31.291Z" fill="#D8E8F7"/>
<path fill-rule="evenodd" clip-rule="evenodd" d="M33.7159 56.7275H35.1611V60.468L36.618 62.3783L36.6629 62.4374L36.618 62.494L35.775 63.637L35.6971 63.7409L35.6215 63.637L34.4314 62.0336L31.789 65.6914L31.6143 65.6347V63.4386L31.6331 63.3819L33.7159 60.4703V56.7275Z" fill="#004073"/>
<path fill-rule="evenodd" clip-rule="evenodd" d="M45.2351 56.7275V60.4703L47.3178 63.3819L47.3344 63.4386V65.6347L47.1596 65.6914L44.5172 62.0336L43.3295 63.637L43.2515 63.7409L43.1736 63.637L42.3306 62.494L42.2881 62.4374L42.3306 62.3783L43.7876 60.468V56.7275H45.2351Z" fill="#004073"/>
<path fill-rule="evenodd" clip-rule="evenodd" d="M45.0408 56.9211H43.9806V60.4986L43.9593 60.5577L42.5283 62.4373L43.2509 63.4173L44.441 61.8139L44.519 61.7077L44.5969 61.8139L47.1401 65.3371V63.4693L45.0597 60.5577L45.0408 60.501V56.9211Z" fill="white"/>
<path fill-rule="evenodd" clip-rule="evenodd" d="M43.1661 71.9137L40.3584 67.8993L41.8437 65.7575L41.8838 65.6985L41.8413 65.6442L41.0621 64.6359L40.9818 64.532L40.9062 64.6382L39.4917 66.662L38.0773 64.6382L38.0017 64.532L37.9214 64.6359L37.1422 65.6442L37.0973 65.6985L37.1374 65.7575L38.6251 67.8993L35.8151 71.9137L35.7607 71.994L35.841 72.0483L36.8753 72.7543L36.9556 72.8086L37.0099 72.7307L39.4917 69.1509L41.9736 72.7307L42.0279 72.8086L42.1058 72.7543L43.1424 72.0483L43.2227 71.994L43.1661 71.9137Z" fill="#004073"/>
<path fill-rule="evenodd" clip-rule="evenodd" d="M42.9515 71.9444L40.1226 67.9017L41.6456 65.7056L40.9892 64.8579L39.4921 66.9973L37.9926 64.8579L37.3385 65.7056L38.8592 67.9017L36.0303 71.9444L36.9063 72.5419L39.4921 68.8132L42.0778 72.5419L42.9515 71.9444Z" fill="white"/>
<path fill-rule="evenodd" clip-rule="evenodd" d="M28.332 71.2667V73.5313C29.6591 73.8926 30.795 74.2019 32.1102 74.6789C34.5354 75.5621 37.14 76.5987 39.6502 76.6082C42.191 76.6152 44.5855 75.3613 46.9775 74.4829C48.2314 74.0224 49.4475 73.5572 50.7558 73.6021V71.0896C48.9776 71.3612 47.294 71.9137 45.4403 72.6883C43.6527 73.4345 41.74 74.2964 39.7918 74.2397C37.8862 74.1854 34.7999 73.3235 32.9674 72.5891C31.0807 71.8287 30.0889 71.4249 28.332 71.2667Z" fill="#004073"/>
<path fill-rule="evenodd" clip-rule="evenodd" d="M27 65.3206V67.8378C28.1405 68.2369 29.2433 68.6855 30.0745 69.4837C30.7097 69.1389 31.1277 68.4848 31.3237 67.5261C30.8443 66.7138 29.6755 65.9558 27 65.3206Z" fill="#004073"/>
<path fill-rule="evenodd" clip-rule="evenodd" d="M52.1909 65.3206V67.8378C51.0503 68.2369 49.9476 68.6855 49.1164 69.4837C48.4811 69.1389 48.0632 68.4848 47.8672 67.5261C48.3465 66.7138 49.5131 65.9558 52.1909 65.3206Z" fill="#004073"/>
<path fill-rule="evenodd" clip-rule="evenodd" d="M36.075 50H42.9513V50.9658H49.1358L48.0496 52.052H30.9153L29.8291 50.9658H36.075V50Z" fill="#004073"/>
<path fill-rule="evenodd" clip-rule="evenodd" d="M30.8818 51.967H48.1365V56.1703H30.8818V51.967ZM33.2054 53.202C33.3306 53.202 33.2952 53.5232 33.2952 53.5232L33.0118 53.6743C33.0118 53.6743 32.8701 53.8066 33.0826 53.8066C33.2952 53.8066 33.5455 53.5988 33.5455 53.5988L33.5101 54.0144C33.5101 54.0144 32.693 54.4866 32.5868 54.4866C32.4805 54.4866 32.3742 54.6189 32.5513 54.7133C32.7284 54.8078 32.6576 54.7889 32.8536 54.6378C33.0496 54.4866 33.4935 54.2033 33.4935 54.2033L33.5124 54.5244L33.1936 54.7511C33.1936 54.7511 32.9976 54.8527 33.1936 54.9778C33.3896 55.103 33.5313 54.9589 33.5313 54.9589C33.5313 54.9589 33.5148 55.1856 33.4959 55.299C33.4794 55.4123 33.3707 55.469 33.5502 55.6579C33.7273 55.8468 33.8218 55.7642 33.8218 55.5941C33.8218 55.4241 33.7793 54.7133 33.7793 54.7133C33.7793 54.7133 33.9918 54.6567 34.0272 54.5622C34.0626 54.4677 34.0272 54.4489 33.8501 54.4489C33.673 54.4489 33.673 54.3922 33.673 54.3922L33.7273 54.0545C33.7273 54.0545 34.2114 53.9105 34.4357 53.8042C34.6223 53.7168 34.6294 53.6507 34.5821 53.62C34.5231 53.5799 34.3672 53.587 34.2657 53.6224C34.0248 53.7027 33.7486 53.868 33.7486 53.868L33.7816 53.6035C33.7816 53.6035 33.817 53.3768 33.9587 53.3768C34.1004 53.3768 34.3672 53.2257 34.3507 53.1312C34.3318 53.0367 34.2822 53.058 34.1594 53.0769C34.1099 53.084 34.0603 52.9328 34.0366 52.947C33.9446 53.0037 34.0178 53.2587 33.8218 53.2257C33.7745 53.2162 33.8241 53.1619 33.8005 53.1548C33.7462 53.1383 33.6824 53.1454 33.6447 53.2139L33.5289 53.4193C33.5289 53.4193 33.4298 53.1879 33.5171 53.0934C33.6069 52.999 34.3177 52.5645 34.3177 52.5645C34.3177 52.5645 34.4074 52.3189 34.2114 52.3945C34.0154 52.47 33.6777 52.8101 33.6777 52.8101C33.6777 52.8101 33.6069 52.9612 33.5526 52.8478C33.4983 52.7345 33.588 52.6211 33.4983 52.6023C33.4085 52.5834 33.2503 52.4889 33.2503 52.64C33.2503 52.6991 33.2078 52.7062 33.1795 52.7345C33.1417 52.7723 33.1488 52.7912 33.1511 52.803C33.1535 52.8148 33.1582 52.8195 33.1913 52.8337C33.2503 52.8596 33.2503 52.9612 33.2503 52.9612C33.196 52.9824 33.1346 52.9872 33.1086 53.0297C33.0567 53.0934 33.0826 53.202 33.2054 53.202ZM38.0439 52.8974C38.0439 52.8974 38.1502 52.9824 38.1502 53.0816C38.1502 53.1832 37.9967 53.476 37.8621 53.6271C37.7558 53.7452 37.6 53.9223 37.5315 54.0096C37.5008 54.0498 37.4819 54.0758 37.5409 54.0994C37.5882 54.1183 37.6567 54.123 37.6826 54.0805C37.7251 54.012 38.3013 53.365 38.384 53.2634C38.469 53.1548 38.4619 53.0556 38.3651 52.9777C38.1573 52.8077 38.0439 52.8974 38.0439 52.8974ZM37.7157 54.6449C37.6944 54.9778 37.744 55.025 37.7983 55.0321C37.8526 55.0392 38.0014 55.0227 37.992 54.6992C37.9802 54.3757 37.7204 54.352 37.7204 54.352L37.7157 54.6449ZM38.2069 54.2647C38.195 54.2741 38.0534 54.3497 38.0581 54.4371C38.0605 54.5221 38.0652 54.7015 38.1573 54.711C38.2517 54.7204 38.3438 54.6472 38.3202 54.489C38.2942 54.3308 38.2187 54.2552 38.2069 54.2647ZM38.2446 53.6814C38.2446 53.6814 38.0298 53.986 37.9471 54.0498C37.8645 54.1135 37.9684 54.1608 38.0463 54.182C38.1242 54.2056 38.2446 54.2363 38.2848 54.1088C38.3226 53.9789 38.3202 53.901 38.3533 53.8845C38.3887 53.8656 38.4147 53.7475 38.3698 53.7097C38.3273 53.672 38.2446 53.6814 38.2446 53.6814ZM38.4288 54.3544C38.4288 54.3544 38.3934 54.5126 38.5044 54.489C38.6154 54.4677 38.7594 54.3308 38.7641 54.4016C38.7689 54.4701 38.7618 55.221 38.7618 55.2824C38.7618 55.3415 38.8397 55.4099 38.8822 55.4099C38.9247 55.4099 39.0168 55.3651 39.0168 55.1856V54.4158C39.0168 54.4158 39.1302 54.4984 39.3143 54.1797C39.4419 53.9601 39.3521 53.8963 39.286 53.8798C39.227 53.8632 39.2317 53.8727 39.1868 53.9034C39.1302 53.9435 39.031 54.0073 38.9861 54.0073C38.9176 54.0073 38.9814 53.9506 38.9483 53.9506C38.9153 53.9506 38.8232 53.927 38.8232 53.9695C38.8232 54.0144 38.8185 54.208 38.8185 54.208L38.4288 54.3544ZM39.0877 54.0474C39.064 54.0758 38.9956 54.1608 39.0286 54.182C39.0593 54.2033 39.1113 54.2198 39.1467 54.1608C39.1821 54.1017 39.2671 54.0451 39.2128 54.0262C39.1585 54.0049 39.0877 54.0474 39.0877 54.0474ZM38.5918 53.8066C38.6225 53.8562 38.6791 53.9152 38.7665 53.9057C38.92 53.8892 39.1561 53.6861 39.2364 53.6153C39.3143 53.5444 39.4017 53.4547 39.3356 53.3886C39.2695 53.3201 39.1986 53.3343 39.0711 53.4382C38.9814 53.5137 38.7641 53.6342 38.6461 53.6956C38.5705 53.7334 38.5375 53.7145 38.5918 53.8066ZM41.6285 52.9092C41.5766 52.8549 41.449 52.8809 41.3664 52.9919C41.2837 53.1005 41.2885 53.2327 41.331 53.254C41.3711 53.2752 41.5766 53.2729 41.6899 53.1288C41.782 53.0131 41.6285 52.9092 41.6285 52.9092ZM40.8516 53.2375C40.7831 53.1973 40.6934 53.1879 40.658 53.2422C40.6202 53.2965 40.5564 53.3721 40.6674 53.4524C40.7784 53.5326 40.8823 53.587 40.9461 53.4972C41.0807 53.28 40.8516 53.2375 40.8516 53.2375ZM41.4089 53.7334C41.4939 53.7263 41.4656 53.8255 41.4089 53.8703C41.3522 53.9152 41.2814 54.0214 41.2814 54.1442C41.2814 54.2647 41.4467 54.3119 41.5104 54.3119C41.5742 54.3119 41.5175 54.1749 41.5175 54.0852C41.5175 53.9931 41.6238 53.8656 41.7253 53.7735C41.8245 53.6814 41.7395 53.561 41.612 53.5303C41.4821 53.4996 41.3262 53.7121 41.3262 53.7121L41.4089 53.7334ZM41.194 54.2104L41.1161 54.1277C41.1161 54.1277 41.0877 54.515 41.0452 54.6519C41.0027 54.7889 41.0665 55.0463 41.2247 55.0699C41.3829 55.0935 41.8269 55.0864 41.926 55.0557C42.0252 55.025 42.1268 54.8881 42.0394 54.6685C41.9544 54.4489 41.9119 54.3875 41.8741 54.3945C41.8387 54.4016 41.8245 54.4701 41.8458 54.5693C41.867 54.6685 41.9308 54.8054 41.8174 54.8432C41.7041 54.881 41.2601 54.9731 41.2365 54.7369C41.2153 54.5008 41.2507 54.3638 41.194 54.2104ZM40.2802 53.2493C40.1951 53.3107 40.0464 53.4665 40.0605 53.5822C40.0794 53.7381 40.1361 53.8042 40.2565 53.7853C40.3604 53.7688 40.4289 53.4358 40.4124 53.28C40.4053 53.1808 40.3392 53.2068 40.2802 53.2493ZM40.5824 53.7239L40.5801 53.8255L40.462 53.901C40.462 53.901 40.4785 53.9695 40.5682 53.9506C40.658 53.9317 40.5564 54.1017 40.4974 54.0947C40.4384 54.0876 40.3793 54.0876 40.3675 54.1324C40.3557 54.1773 40.1597 54.1631 40.1597 54.1631C40.1597 54.1631 40.0062 54.3332 40.0771 54.4087C40.1479 54.4843 40.2613 54.3709 40.2967 54.352C40.3321 54.3332 40.3864 54.2647 40.4573 54.3402C40.5281 54.4158 40.5163 54.4276 40.4336 54.4843C40.351 54.541 40.3793 54.5858 40.4218 54.6165C40.4643 54.6472 40.4762 54.6992 40.3392 54.6992C40.2022 54.6992 40.2565 54.6614 40.2447 54.6307C40.2329 54.6 39.9897 54.7133 39.9425 54.8503C39.8952 54.9896 40.0015 55.077 40.1031 55.0463C40.2046 55.0156 40.377 54.7936 40.4643 54.8385C40.5541 54.8834 40.4809 54.9329 40.4336 55.0345C40.3864 55.136 40.41 55.3249 40.4927 55.4029C40.5753 55.4784 40.6556 55.3155 40.6556 55.2069C40.6556 55.0982 40.6249 54.7865 40.6698 54.7488C40.7146 54.711 40.7713 54.5858 40.8233 54.5528C40.8752 54.5197 40.9154 54.4654 40.9154 54.3827C40.9154 54.3001 40.8941 54.2859 40.8233 54.2694C40.7524 54.2529 40.7926 54.1159 40.8327 54.1065C40.8729 54.0947 40.9508 54.0403 40.9461 53.9813C40.9413 53.9223 40.9154 53.8443 40.854 53.8514C40.7926 53.8562 40.828 53.7475 40.7359 53.7097C40.6462 53.6696 40.5777 53.6696 40.5824 53.7239ZM44.4551 55.0864C44.4551 55.0864 44.226 55.1242 44.0678 55.0416C43.9096 54.9589 43.6664 54.7818 43.6664 54.7818C43.6664 54.7818 43.6168 54.7393 43.6121 54.8054C43.6097 54.8715 43.6853 54.9802 43.7207 55.0203C43.7561 55.0605 43.9096 55.417 44.0655 55.4052C44.2213 55.3934 44.4551 55.0864 44.4551 55.0864ZM43.6711 53.4712C43.6711 53.3862 43.5932 53.1902 43.4987 53.1052C43.4043 53.0202 43.3405 53.0202 43.383 53.2186C43.4255 53.4169 43.383 54.1348 43.3193 54.2788C43.2555 54.4229 43.0902 54.4701 42.8871 54.4914C42.6864 54.515 42.5353 54.43 42.599 54.574C42.6628 54.7181 42.7077 54.8857 42.8446 54.8031C42.9816 54.7204 43.2838 54.4914 43.2744 54.6661C43.2673 54.8408 43.0312 55.2376 42.684 55.1762C42.684 55.1762 42.6274 55.3202 42.8281 55.358C43.0288 55.3958 43.4468 55.0534 43.4161 54.5197C43.4161 54.5197 43.8836 54.3213 44.0702 54.2292C44.2567 54.1372 44.1198 54.0545 44.0773 54.038C44.0348 54.0238 43.9474 53.9459 43.8553 54.0309C43.7608 54.1159 43.546 54.3048 43.4964 54.2222C43.4468 54.1372 43.5318 53.9317 43.5979 53.8113C43.664 53.6909 43.6711 53.4712 43.6711 53.4712ZM35.8951 53.4996C35.8903 53.6554 35.5409 53.7971 35.4039 53.7877C35.2669 53.7782 35.1914 53.7475 35.1961 53.8868C35.2032 54.0285 35.5385 54.064 35.6259 54.0687C35.7132 54.0734 35.718 54.2222 35.6353 54.2576C35.5527 54.293 35.2008 54.4701 35.0851 54.5221C34.9694 54.574 34.9576 54.7818 34.9576 55.0557C34.9576 55.3297 35.1252 55.3981 35.2032 55.3981C35.2811 55.3981 35.2929 55.2446 35.2976 55.11C35.3024 54.9731 35.1866 54.855 35.1536 54.7606C35.1205 54.6637 35.437 54.4937 35.5078 54.489C35.5786 54.4843 35.5739 54.5953 35.6259 54.6543C35.6802 54.7157 35.7746 54.6449 35.8101 54.6023C35.8478 54.5575 35.9258 54.5575 35.9423 54.5976C35.9588 54.6378 35.9045 54.6543 35.8195 54.6897C35.7321 54.7251 35.7487 54.7511 35.7817 54.8172C35.8148 54.8834 35.777 54.9707 35.6943 54.9707C35.6117 54.9707 35.5928 55.0746 35.5928 55.0746C35.5928 55.0746 35.5904 55.077 35.5999 55.103C35.6093 55.1289 35.7982 55.358 35.888 55.3745C35.9777 55.3911 36.0202 55.3178 36.1099 55.103C36.1997 54.8881 36.3791 55.1856 36.4405 55.2872C36.5019 55.3887 36.705 55.5493 36.7168 55.2659C36.7286 54.9802 36.8207 54.3379 36.9152 53.9388C37.0096 53.5397 36.6743 53.679 36.6743 53.679L35.9305 54.156L35.9234 54.0144C35.9234 54.0144 36.4642 53.5161 36.5255 53.4547C36.5869 53.3933 36.4429 53.2516 36.3957 53.3178C36.3484 53.3839 36.2611 53.4382 36.2044 53.4051C36.1477 53.3721 36.2823 53.2564 36.2564 53.169C36.2304 53.0816 35.8644 52.8124 35.8644 52.8124L35.8951 53.4996ZM36.6129 54.633C36.6129 54.6354 36.7121 54.1773 36.7215 53.9742C36.731 53.7711 36.4878 53.9907 36.398 54.0356C36.3083 54.0805 36.3319 54.1419 36.4051 54.156C36.476 54.1726 36.4571 54.2363 36.4405 54.2458C36.4264 54.2552 36.1288 54.3922 36.2068 54.7157C36.2847 55.0392 36.3933 55.0628 36.4925 55.0935C36.5893 55.1266 36.6129 54.6307 36.6129 54.633ZM36.0745 54.2269C36.0533 54.208 35.9423 54.2269 35.8762 54.267C35.81 54.3072 35.7085 54.3686 35.7534 54.404C35.7959 54.4394 35.8974 54.4371 35.9612 54.378C36.0249 54.319 36.0745 54.2269 36.0745 54.2269ZM45.9782 52.7487C45.9782 52.7487 46.0396 52.8785 46.0254 52.9376C46.0112 52.9966 45.8625 53.169 45.8625 53.169L45.3501 52.8573C45.3501 52.8573 45.2603 52.8573 45.2603 52.9163C45.2603 52.973 45.2934 53.0108 45.3689 53.0604C45.4445 53.11 45.539 53.1832 45.539 53.313C45.539 53.4429 45.5531 53.6672 45.5106 53.6531C45.4705 53.6389 45.3949 53.6177 45.3949 53.5161C45.3949 53.4146 45.2036 53.3792 45.1777 53.4146C45.1517 53.45 45.1777 53.509 45.1989 53.646C45.2202 53.7829 45.1588 53.8845 45.232 53.9128C45.3075 53.9412 45.3619 53.9412 45.3619 54.0073C45.3619 54.0734 44.8565 54.4914 44.899 54.5575C44.9392 54.6236 44.9604 54.7747 45.0903 54.7322C45.2202 54.6897 45.8058 54.1891 45.9758 54.0805C46.1458 53.9719 46.5071 53.6979 46.5756 53.7617C46.6441 53.8278 46.297 54.123 46.1931 54.1442C46.0915 54.1655 46.0703 54.1372 45.9333 54.2387C45.7964 54.3402 45.6263 54.3827 45.6948 54.4205C45.7633 54.4559 45.9735 54.378 45.9617 54.4489C45.9475 54.5221 46.0089 54.6307 45.9144 54.6449C45.82 54.659 45.6004 54.6874 45.4445 54.7676C45.2887 54.8479 44.9746 55.0132 45.0218 55.0935C45.069 55.1738 45.3075 55.3108 45.4587 55.4194C45.6098 55.528 45.7444 55.6366 45.7987 55.6721C45.853 55.7075 46.1128 55.7665 46.1128 55.5209C46.1128 55.2753 46.1057 54.8267 46.1057 54.8267H46.5213C46.5213 54.8267 46.6181 54.8054 46.6039 54.6897C46.5898 54.574 46.4882 54.4937 46.4339 54.4937C46.3796 54.4937 46.3513 54.5079 46.3513 54.5669H46.1671V54.4229C46.1671 54.4229 46.3182 54.3355 46.3182 54.2718C46.3182 54.2056 46.2899 54.1986 46.4127 54.1135C46.5355 54.0262 46.7598 53.8821 46.7598 53.7452C46.7598 53.6082 46.6087 53.6082 46.493 53.6082C46.493 53.6082 46.637 53.3272 46.7456 53.2398C46.8543 53.1525 46.8354 53.0084 46.7669 52.9352C46.6984 52.862 46.5969 52.8998 46.5213 52.9635C46.4481 53.0226 46.0537 53.3059 46.0112 53.3059C45.9711 53.3059 45.8672 53.2634 45.9711 53.1832C46.0726 53.1029 46.3277 53.0863 46.219 52.8644C46.1104 52.6424 45.9782 52.7487 45.9782 52.7487ZM45.853 54.9046C45.853 54.9046 45.6263 54.9518 45.4894 55.0203C45.3524 55.0912 45.206 55.051 45.4894 55.2446C45.7727 55.4383 45.8247 55.5469 45.8459 55.4784C45.8672 55.4099 45.853 54.9046 45.853 54.9046ZM45.4799 53.8963C45.4799 53.8963 45.5413 53.9719 45.6169 53.8916C45.6925 53.8113 45.6783 53.8585 45.7751 53.8325C45.8719 53.8066 45.8719 53.8231 45.8766 53.7522C45.8814 53.6814 45.8601 53.7027 45.8152 53.7145C45.7704 53.7239 45.7657 53.7192 45.7586 53.6649C45.7538 53.6106 45.742 53.6531 45.6311 53.6861C45.5224 53.7168 45.4799 53.8963 45.4799 53.8963ZM45.5224 54.064C45.4563 54.1183 45.206 54.319 45.2768 54.378C45.3477 54.4371 45.5579 54.2104 45.6027 54.182C45.6499 54.156 46.0207 53.9388 45.9711 53.8845C45.9191 53.8325 45.5224 54.064 45.5224 54.064ZM45.6901 53.3319C45.6901 53.3319 45.6287 53.2989 45.6334 53.3579C45.6381 53.4169 45.6027 53.476 45.6736 53.476C45.7444 53.476 45.7704 53.4712 45.7704 53.4098C45.7727 53.3555 45.6901 53.3319 45.6901 53.3319ZM46.0632 53.5397C46.0632 53.5397 45.9404 53.5397 45.9546 53.5893C45.9711 53.6389 45.9994 53.6696 46.0514 53.6554C46.1033 53.6389 46.1033 53.6672 46.1033 53.6177C46.1033 53.5657 46.0632 53.5397 46.0632 53.5397ZM46.4717 53.4524C46.5119 53.3555 46.6819 53.1477 46.6134 53.1005C46.5473 53.0509 46.4906 53.0627 46.415 53.1336C46.3395 53.2044 46.2828 53.1973 46.2828 53.2516C46.2828 53.3059 46.2615 53.3107 46.3088 53.339C46.3536 53.365 46.3843 53.3721 46.3607 53.4311C46.3347 53.4901 46.33 53.5185 46.2852 53.5444C46.2379 53.5728 46.2238 53.5185 46.2238 53.5822C46.2238 53.646 46.219 53.6531 46.219 53.6909C46.219 53.7286 46.2049 53.7711 46.2757 53.7664C46.3466 53.7617 46.3466 53.7546 46.3536 53.6956C46.3584 53.6365 46.3631 53.62 46.3891 53.5822C46.415 53.5444 46.4363 53.5492 46.4505 53.5232C46.4623 53.4949 46.4717 53.4524 46.4717 53.4524Z" fill="#004073"/>
<path fill-rule="evenodd" clip-rule="evenodd" d="M33.2059 53.2022C33.331 53.2022 33.2956 53.5233 33.2956 53.5233L33.0122 53.6744C33.0122 53.6744 32.8705 53.8067 33.0831 53.8067C33.2956 53.8067 33.5459 53.5989 33.5459 53.5989L33.5105 54.0145C33.5105 54.0145 32.6934 54.4868 32.5872 54.4868C32.4809 54.4868 32.3747 54.619 32.5518 54.7134C32.7289 54.8079 32.658 54.789 32.854 54.6379C33.05 54.4868 33.4939 54.2034 33.4939 54.2034L33.5105 54.5245L33.1917 54.7512C33.1917 54.7512 32.9957 54.8528 33.1917 54.9779C33.3877 55.1031 33.5294 54.959 33.5294 54.959C33.5294 54.959 33.5105 55.1857 33.4939 55.2991C33.4751 55.4124 33.3688 55.4691 33.5483 55.658C33.7254 55.8469 33.8198 55.7643 33.8198 55.5942C33.8198 55.4242 33.7773 54.7134 33.7773 54.7134C33.7773 54.7134 33.9898 54.6568 34.0253 54.5623C34.0607 54.4679 34.0253 54.449 33.8482 54.449C33.6711 54.449 33.6711 54.3923 33.6711 54.3923L33.7254 54.0546C33.7254 54.0546 34.2094 53.9106 34.4338 53.8043C34.6203 53.7169 34.6251 53.6508 34.5802 53.6201C34.5212 53.58 34.3653 53.5871 34.2614 53.6225C34.0205 53.7028 33.7443 53.8681 33.7443 53.8681L33.7773 53.6036C33.7773 53.6036 33.8127 53.3769 33.9544 53.3769C34.0961 53.3769 34.3629 53.2258 34.344 53.1313C34.3275 53.0369 34.2756 53.0581 34.1528 53.077C34.1032 53.0841 34.0536 52.933 34.03 52.9471C33.9379 53.0038 34.0111 53.2588 33.8151 53.2258C33.7679 53.2163 33.8198 53.162 33.7938 53.1549C33.7395 53.1384 33.6758 53.1455 33.638 53.214L33.5223 53.4194C33.5223 53.4194 33.4231 53.188 33.5105 53.0935C33.6002 52.9991 34.311 52.5646 34.311 52.5646C34.311 52.5646 34.4007 52.319 34.2047 52.3946C34.0087 52.4701 33.6711 52.8102 33.6711 52.8102C33.6711 52.8102 33.6002 52.9613 33.5459 52.848C33.4916 52.7346 33.5813 52.6213 33.4916 52.6024C33.4019 52.5835 33.2436 52.489 33.2436 52.6402C33.2436 52.6992 33.2011 52.7063 33.1728 52.7346C33.135 52.7724 33.1421 52.7913 33.1445 52.8031C33.1468 52.8149 33.1492 52.8196 33.1846 52.8338C33.2436 52.8598 33.2436 52.9613 33.2436 52.9613C33.1893 52.9826 33.1279 52.9873 33.102 53.0298C33.0571 53.0935 33.0831 53.2022 33.2059 53.2022Z" fill="white"/>
<path fill-rule="evenodd" clip-rule="evenodd" d="M38.0444 52.8974C38.0444 52.8974 38.1506 52.9825 38.1506 53.0816C38.1506 53.1808 37.9971 53.476 37.8625 53.6271C37.7563 53.7452 37.6004 53.9223 37.5319 54.0097C37.5013 54.0498 37.4824 54.0758 37.5414 54.0994C37.5886 54.1183 37.6571 54.123 37.6831 54.0805C37.7256 54.012 38.3018 53.365 38.3844 53.2635C38.4694 53.1548 38.4623 53.0557 38.3655 52.9777C38.1577 52.8077 38.0444 52.8974 38.0444 52.8974ZM37.7161 54.6449C37.6949 54.9778 37.7445 55.0251 37.7964 55.0321C37.8507 55.0392 37.9995 55.0227 37.9901 54.6992C37.9783 54.3757 37.7185 54.3521 37.7185 54.3521L37.7161 54.6449ZM38.2073 54.2647C38.1955 54.2741 38.0538 54.3521 38.0585 54.4371C38.0609 54.5244 38.0656 54.7015 38.1577 54.711C38.2522 54.7204 38.3443 54.6472 38.3207 54.489C38.2947 54.3308 38.2191 54.2552 38.2073 54.2647ZM38.2451 53.6814C38.2451 53.6814 38.0302 53.9837 37.9476 54.0498C37.8649 54.1136 37.9688 54.1608 38.0467 54.182C38.1247 54.2056 38.2451 54.2363 38.2852 54.1088C38.323 53.979 38.3207 53.901 38.3537 53.8821C38.3891 53.8632 38.4151 53.7452 38.3702 53.7074C38.3277 53.672 38.2451 53.6814 38.2451 53.6814ZM38.4293 54.3544C38.4293 54.3544 38.3939 54.5126 38.5048 54.489C38.6158 54.4678 38.7599 54.3308 38.7646 54.4016C38.7693 54.4701 38.7622 55.221 38.7622 55.2824C38.7622 55.3415 38.8402 55.41 38.8827 55.41C38.9252 55.41 39.0173 55.3651 39.0173 55.1856V54.4158C39.0173 54.4158 39.1306 54.4985 39.3148 54.1797C39.4423 53.9601 39.3526 53.8963 39.2865 53.8798C39.2274 53.8656 39.2321 53.8727 39.1873 53.9034C39.1306 53.9435 39.0314 54.0073 38.9866 54.0073C38.9181 54.0073 38.9818 53.9506 38.9488 53.9506C38.9157 53.9506 38.826 53.927 38.826 53.9695C38.826 54.0144 38.8213 54.208 38.8213 54.208L38.4293 54.3544ZM39.0881 54.0474C39.0645 54.0758 38.996 54.1608 39.0291 54.182C39.0598 54.2033 39.1117 54.2222 39.1471 54.1608C39.1826 54.1017 39.2676 54.0451 39.2133 54.0262C39.1589 54.0049 39.0881 54.0474 39.0881 54.0474ZM38.5922 53.8066C38.6229 53.8585 38.6796 53.9152 38.767 53.9058C38.9204 53.8892 39.1566 53.6861 39.2369 53.6153C39.3148 53.5445 39.4022 53.4547 39.336 53.3886C39.2699 53.3201 39.1991 53.3343 39.0716 53.4382C38.9818 53.5138 38.7646 53.6342 38.6465 53.6956C38.571 53.7334 38.5379 53.7145 38.5922 53.8066Z" fill="white"/>
<path fill-rule="evenodd" clip-rule="evenodd" d="M41.6292 52.9092C41.5773 52.8549 41.4498 52.8809 41.3671 52.9919C41.2845 53.1005 41.2892 53.2327 41.3317 53.254C41.3718 53.2752 41.5773 53.2729 41.6906 53.1288C41.7827 53.0131 41.6292 52.9092 41.6292 52.9092ZM40.8523 53.2374C40.7839 53.1973 40.6941 53.1879 40.6587 53.2422C40.6209 53.2965 40.5572 53.372 40.6681 53.4523C40.7791 53.5326 40.883 53.5869 40.9468 53.4972C41.0814 53.2799 40.8523 53.2374 40.8523 53.2374ZM41.4096 53.7333C41.4946 53.7263 41.4663 53.8254 41.4096 53.8703C41.3529 53.9152 41.2821 54.0214 41.2821 54.1442C41.2821 54.2646 41.4474 54.3119 41.5112 54.3119C41.5749 54.3119 41.5182 54.1749 41.5182 54.0852C41.5182 53.9931 41.6245 53.8656 41.726 53.7735C41.8252 53.6814 41.7402 53.561 41.6127 53.5303C41.4828 53.4996 41.327 53.7121 41.327 53.7121L41.4096 53.7333ZM41.1947 54.2103L41.1168 54.1277C41.1168 54.1277 41.0885 54.515 41.046 54.6519C41.0035 54.7889 41.0672 55.0463 41.2254 55.0699C41.3836 55.0935 41.8276 55.084 41.9268 55.0534C42.0259 55.0227 42.1275 54.8857 42.0401 54.6661C41.9551 54.4465 41.9126 54.3851 41.8748 54.3922C41.8394 54.3992 41.8252 54.4677 41.8465 54.5669C41.8677 54.6661 41.9315 54.803 41.8181 54.8408C41.7048 54.8786 41.2609 54.9707 41.2372 54.7346C41.216 54.5008 41.2514 54.3638 41.1947 54.2103ZM40.2809 53.2493C40.1959 53.3106 40.0471 53.4665 40.0613 53.5822C40.0802 53.7381 40.1368 53.8042 40.2573 53.7853C40.3635 53.7664 40.4296 53.4358 40.4131 53.2799C40.406 53.1808 40.3399 53.2044 40.2809 53.2493ZM40.5831 53.7239L40.5808 53.8254L40.4627 53.901C40.4627 53.901 40.4792 53.9695 40.569 53.9506C40.6587 53.9317 40.5572 54.1017 40.4981 54.0946C40.4391 54.0875 40.3801 54.0875 40.3682 54.1324C40.3564 54.1773 40.1604 54.1631 40.1604 54.1631C40.1604 54.1631 40.007 54.3331 40.0778 54.4087C40.1486 54.4843 40.262 54.3709 40.2974 54.352C40.3328 54.3331 40.3871 54.2646 40.458 54.3402C40.5288 54.4158 40.517 54.4276 40.4344 54.4843C40.3517 54.5409 40.3801 54.5858 40.4226 54.6165C40.4651 54.6472 40.4769 54.6991 40.3399 54.6991C40.2029 54.6991 40.2573 54.6614 40.2455 54.6307C40.2336 54.6 39.9904 54.7133 39.9432 54.8503C39.896 54.9896 40.0022 55.077 40.1038 55.0463C40.2053 55.0156 40.3753 54.7936 40.4651 54.8385C40.5548 54.8833 40.4816 54.9329 40.4344 55.0345C40.3871 55.136 40.4108 55.3249 40.4934 55.4028C40.576 55.4784 40.6563 55.3155 40.6563 55.2068C40.6563 55.0982 40.6256 54.7865 40.6705 54.7487C40.7154 54.7109 40.772 54.5858 40.824 54.5527C40.8759 54.5197 40.9161 54.4654 40.9161 54.3851C40.9161 54.3024 40.8948 54.2859 40.824 54.2717C40.7532 54.2552 40.7933 54.1182 40.8334 54.1088C40.8736 54.097 40.9515 54.0427 40.9468 53.9836C40.9421 53.9246 40.9161 53.8467 40.8547 53.8538C40.7933 53.8585 40.8287 53.7499 40.7366 53.7121C40.6469 53.6696 40.5784 53.6696 40.5831 53.7239Z" fill="white"/>
<path fill-rule="evenodd" clip-rule="evenodd" d="M44.4534 55.0863C44.4534 55.0863 44.2244 55.1241 44.0662 55.0414C43.9079 54.9564 43.6647 54.7817 43.6647 54.7817C43.6647 54.7817 43.6151 54.7392 43.6128 54.8053C43.6104 54.8714 43.686 54.98 43.7214 55.0202C43.7568 55.0603 43.9103 55.4169 44.0662 55.4051C44.222 55.3933 44.4534 55.0863 44.4534 55.0863ZM43.6718 53.4711C43.6718 53.3861 43.5939 53.1878 43.4994 53.1051C43.405 53.0225 43.3412 53.0225 43.3837 53.2208C43.4262 53.4192 43.3837 54.137 43.32 54.2811C43.2562 54.4251 43.0909 54.4723 42.8878 54.4936C42.6871 54.5172 42.536 54.4322 42.5997 54.5786C42.6635 54.7227 42.7084 54.8903 42.843 54.8077C42.9799 54.725 43.2822 54.496 43.2751 54.6707C43.268 54.8454 43.0319 55.2422 42.6848 55.1808C42.6848 55.1808 42.6281 55.3248 42.8288 55.3626C43.0295 55.4004 43.4475 55.058 43.4191 54.5243C43.4191 54.5243 43.8867 54.3259 44.0732 54.2338C44.2598 54.1418 44.1228 54.0591 44.0803 54.0426C44.0378 54.0284 43.9505 53.9505 43.8584 54.0355C43.7639 54.1181 43.549 54.3094 43.4994 54.2268C43.4498 54.1441 43.5349 53.9363 43.601 53.8159C43.6647 53.6907 43.6718 53.4711 43.6718 53.4711Z" fill="white"/>
<path fill-rule="evenodd" clip-rule="evenodd" d="M36.6813 53.6767L35.9374 54.1537L35.9303 54.012C35.9303 54.012 36.4711 53.5138 36.5325 53.4524C36.5939 53.391 36.4498 53.2493 36.4026 53.3154C36.3554 53.3815 36.268 53.4358 36.2113 53.4028C36.1547 53.3697 36.2893 53.254 36.2633 53.1666C36.2373 53.0793 35.8713 52.8101 35.8713 52.8101L35.8902 53.4972C35.8855 53.6531 35.536 53.7948 35.399 53.7853C35.2621 53.7759 35.1865 53.7452 35.1912 53.8845C35.1983 54.0262 35.5336 54.0616 35.621 54.0663C35.7084 54.071 35.7131 54.2198 35.6304 54.2552C35.5501 54.2906 35.1959 54.4678 35.0826 54.5197C34.9669 54.5717 34.9551 54.7795 34.9551 55.0534C34.9551 55.3273 35.1227 55.3958 35.2007 55.3958C35.2786 55.3958 35.2904 55.2423 35.2951 55.1077C35.2998 54.9731 35.1841 54.8527 35.1511 54.7582C35.118 54.6614 35.4344 54.4914 35.5053 54.4866C35.5761 54.4819 35.5714 54.5905 35.6234 54.6519C35.6777 54.7133 35.7721 54.6425 35.8075 54.6C35.8453 54.5551 35.9232 54.5551 35.9398 54.5953C35.9563 54.6354 35.902 54.6519 35.817 54.6874C35.732 54.7228 35.7461 54.7488 35.7792 54.8149C35.8123 54.881 35.7745 54.9684 35.6918 54.9684C35.6092 54.9684 35.5879 55.0723 35.5879 55.0723C35.5879 55.0723 35.5856 55.0746 35.595 55.1006C35.6021 55.1266 35.7934 55.3556 35.8831 55.3722C35.9752 55.3887 36.0153 55.3155 36.1074 55.1006C36.1972 54.8857 36.3766 55.1833 36.438 55.2848C36.4994 55.3863 36.7025 55.5469 36.7143 55.2635C36.7261 54.9778 36.8182 54.3355 36.9127 53.9364C37.0166 53.5374 36.6813 53.6767 36.6813 53.6767ZM35.961 54.378C35.8973 54.4371 35.7957 54.4394 35.7532 54.404C35.7107 54.3686 35.8123 54.3048 35.876 54.267C35.9421 54.2269 36.0531 54.208 36.0744 54.2269C36.0744 54.2269 36.0248 54.319 35.961 54.378ZM36.6128 54.633C36.6128 54.6307 36.5892 55.1266 36.49 55.0935C36.3908 55.0605 36.2822 55.0392 36.2043 54.7157C36.1263 54.3922 36.4239 54.2552 36.438 54.2458C36.4522 54.2363 36.4734 54.1726 36.4026 54.156C36.3318 54.1395 36.3082 54.0805 36.3979 54.0356C36.4876 53.9908 36.7308 53.7711 36.7214 53.9742C36.7119 54.1773 36.6128 54.6354 36.6128 54.633Z" fill="white"/>
<path fill-rule="evenodd" clip-rule="evenodd" d="M46.4957 53.6034C46.4957 53.6034 46.6398 53.32 46.7484 53.235C46.857 53.1476 46.8381 53.0036 46.7696 52.9304C46.7012 52.8572 46.5996 52.895 46.5241 52.9587C46.4485 53.0248 46.0518 53.3059 46.0116 53.3059C45.9715 53.3059 45.8676 53.2633 45.9715 53.1831C46.073 53.1028 46.3281 53.0862 46.2194 52.8643C46.1108 52.6423 45.9786 52.7486 45.9786 52.7486C45.9786 52.7486 46.04 52.8784 46.0258 52.9375C46.0116 52.9965 45.8629 53.1689 45.8629 53.1689L45.3505 52.8572C45.3505 52.8572 45.2607 52.8572 45.2607 52.9162C45.2607 52.9753 45.2938 53.0107 45.3693 53.0603C45.4449 53.1122 45.5394 53.1831 45.5394 53.3129C45.5394 53.4428 45.5535 53.6671 45.511 53.653C45.4709 53.6388 45.3953 53.6176 45.3953 53.516C45.3953 53.4145 45.2041 53.3791 45.1757 53.4145C45.1497 53.4499 45.1757 53.5089 45.197 53.6459C45.2182 53.7829 45.1568 53.8844 45.23 53.9127C45.3056 53.9411 45.3599 53.9411 45.3599 54.0072C45.3599 54.0733 44.8546 54.4913 44.8971 54.5574C44.9372 54.6211 44.9585 54.7746 45.0883 54.7298C45.2182 54.6873 45.8038 54.1867 45.9739 54.078C46.1439 53.9694 46.5052 53.6955 46.5737 53.7592C46.6421 53.8254 46.295 54.1205 46.1911 54.1418C46.0896 54.163 46.0683 54.1347 45.9314 54.2362C45.7944 54.3378 45.6244 54.3803 45.6929 54.4181C45.7613 54.4535 45.9715 54.3756 45.9597 54.4464C45.9455 54.5196 46.0069 54.6282 45.9125 54.6424C45.818 54.6566 45.5984 54.6849 45.4425 54.7652C45.2843 54.8455 44.9726 55.0108 45.0199 55.0911C45.0671 55.1714 45.3056 55.3083 45.4567 55.4169C45.6078 55.5256 45.7424 55.6342 45.7968 55.6696C45.8511 55.705 46.1108 55.7641 46.1108 55.5185C46.1108 55.2729 46.1037 54.8242 46.1037 54.8242H46.5193C46.5193 54.8242 46.6138 54.803 46.602 54.6873C46.5878 54.5716 46.4863 54.4913 46.432 54.4913C46.3777 54.4913 46.3493 54.5054 46.3493 54.5645H46.1651V54.4204C46.1651 54.4204 46.3163 54.3331 46.3163 54.2693C46.3163 54.2032 46.2879 54.1961 46.4107 54.1111C46.5335 54.0237 46.7578 53.8797 46.7578 53.7427C46.7626 53.6034 46.6114 53.6034 46.4957 53.6034ZM45.6338 53.3602C45.6291 53.3011 45.6905 53.3342 45.6905 53.3342C45.6905 53.3342 45.7731 53.3554 45.7731 53.4145C45.7731 53.4735 45.7472 53.4782 45.6763 53.4782C45.6031 53.4782 45.6385 53.4192 45.6338 53.3602ZM45.6338 53.686C45.7472 53.653 45.7566 53.6105 45.7613 53.6648C45.7661 53.7191 45.7708 53.7238 45.818 53.7144C45.8652 53.7026 45.8841 53.6813 45.8794 53.7522C45.8747 53.823 45.8747 53.8065 45.7779 53.8324C45.681 53.8608 45.6952 53.8112 45.6197 53.8915C45.5417 53.9741 45.4827 53.8962 45.4827 53.8962C45.4827 53.8962 45.5228 53.7167 45.6338 53.686ZM45.6031 54.1843C45.5559 54.2103 45.3481 54.4393 45.2749 54.3803C45.204 54.3213 45.4544 54.1205 45.5205 54.0662C45.5205 54.0662 45.9196 53.8324 45.9691 53.8868C46.0235 53.9387 45.6504 54.156 45.6031 54.1843ZM46.0541 53.653C46.0022 53.6695 45.9715 53.6364 45.9573 53.5869C45.9432 53.5373 46.0636 53.5373 46.0636 53.5373C46.0636 53.5373 46.1037 53.5632 46.1037 53.6128C46.1037 53.6624 46.1037 53.6364 46.0541 53.653ZM46.4461 53.5231C46.432 53.5514 46.4107 53.5444 46.3847 53.5821C46.3588 53.6199 46.354 53.6364 46.3493 53.6955C46.3446 53.7545 46.3446 53.7616 46.2738 53.7663C46.2029 53.771 46.2171 53.7285 46.2171 53.6908C46.2171 53.653 46.2218 53.6483 46.2218 53.5821C46.2218 53.5184 46.236 53.5703 46.2832 53.5444C46.3281 53.516 46.3352 53.49 46.3588 53.431C46.3847 53.372 46.354 53.3649 46.3068 53.3389C46.262 53.3106 46.2808 53.3059 46.2808 53.2515C46.2808 53.1972 46.3375 53.202 46.4131 53.1335C46.4886 53.0626 46.5453 53.0532 46.6114 53.1004C46.6776 53.15 46.5099 53.3554 46.4674 53.4523C46.4721 53.4523 46.4627 53.4948 46.4461 53.5231ZM45.8463 55.4783C45.8251 55.5468 45.7731 55.4405 45.4898 55.2469C45.2064 55.0533 45.3505 55.0911 45.4898 55.0226C45.6291 54.9541 45.8534 54.9069 45.8534 54.9069C45.8534 54.9069 45.8676 55.4099 45.8463 55.4783Z" fill="white"/>
<path fill-rule="evenodd" clip-rule="evenodd" d="M32.2871 68.8202L38.2968 60.2554V56.7771H38.4055H40.5449H40.6511V60.2554L46.8451 69.0563L46.668 69.1791L40.4575 60.3499L40.4386 60.2885V56.992H40.2875L39.4964 57.3958L38.7219 56.992H38.5117V60.2885L38.4928 60.3499L32.4619 68.943L32.2871 68.8202Z" fill="#004073"/>
<path fill-rule="evenodd" clip-rule="evenodd" d="M36.0751 51.8325V51.2634H30.8564L31.3901 51.8325H36.0751Z" fill="#C30D23"/>
<path fill-rule="evenodd" clip-rule="evenodd" d="M42.9512 51.2634V51.8325H47.6196L48.1108 51.2634H42.9512Z" fill="#C30D23"/>
<path fill-rule="evenodd" clip-rule="evenodd" d="M37.6186 50.314V51.8087H37.0708V50.9515L36.6387 51.0838V50.6493C36.9622 50.6493 37.1511 50.5383 37.2054 50.314H37.6186ZM38.0768 51.4498L38.5065 51.4238C38.5349 51.4994 38.601 51.5395 38.7002 51.5395C38.8631 51.5395 38.9457 51.4285 38.9457 51.2042C38.8348 51.2798 38.7096 51.3152 38.5679 51.3105C38.2421 51.2939 38.0626 51.1357 38.0343 50.8382C38.0461 50.5005 38.2586 50.3258 38.6742 50.3163C39.1654 50.3163 39.4109 50.5714 39.4109 51.0838C39.3944 51.5679 39.163 51.8158 38.7191 51.8276C38.3436 51.8253 38.1287 51.7001 38.0768 51.4498ZM38.7002 51.0247C38.8466 51.0129 38.9198 50.9421 38.9198 50.8122C38.908 50.6989 38.8371 50.6351 38.7096 50.6257C38.5821 50.6304 38.5136 50.6989 38.5089 50.8287C38.5136 50.9539 38.5774 51.02 38.7002 51.0247ZM39.4912 51.2939H39.9446C39.9446 51.3601 39.9659 51.4144 40.0084 51.4569C40.0509 51.4899 40.1075 51.5088 40.1808 51.5135C40.313 51.5088 40.3862 51.4522 40.398 51.3412C40.4027 51.2207 40.3012 51.1664 40.091 51.1782V50.9185C40.2847 50.9303 40.3815 50.8807 40.3815 50.7721C40.3815 50.6847 40.3177 50.6422 40.1926 50.6422C40.0674 50.6422 39.9966 50.6941 39.9848 50.798H39.5503C39.5739 50.4934 39.7935 50.3329 40.2091 50.3163C40.6058 50.3281 40.8136 50.4627 40.8325 50.7248C40.8325 50.8665 40.7687 50.9633 40.6436 51.0177C40.7947 51.072 40.8726 51.1759 40.8774 51.327C40.8679 51.6529 40.6271 51.8205 40.1501 51.8253C39.7179 51.8134 39.4959 51.6387 39.4912 51.2939ZM40.9671 51.2939H41.4181C41.4181 51.3601 41.4394 51.4144 41.4819 51.4569C41.5244 51.4899 41.5811 51.5088 41.6543 51.5135C41.7865 51.5088 41.8597 51.4522 41.8715 51.3412C41.8762 51.2231 41.7747 51.1688 41.5622 51.1806V50.9185C41.7558 50.9303 41.8526 50.8807 41.8526 50.7721C41.8526 50.6847 41.7889 50.6422 41.6637 50.6422C41.5362 50.6422 41.4677 50.6941 41.4559 50.798H41.0214C41.045 50.4934 41.2646 50.3329 41.6802 50.3163C42.0769 50.3281 42.2847 50.4627 42.3036 50.7248C42.3036 50.8665 42.2399 50.9633 42.1147 51.0177C42.2659 51.072 42.3438 51.1759 42.3509 51.327C42.3438 51.6529 42.1029 51.8205 41.6259 51.8253C41.1914 51.8134 40.9718 51.6387 40.9671 51.2939Z" fill="white"/>
<path fill-rule="evenodd" clip-rule="evenodd" d="M33.0477 69.5548L39.4281 60.4965L45.9975 69.6351L45.4473 70.216C45.8676 69.8452 46.2478 69.4556 46.576 69.0471L40.4577 60.3501L40.4388 60.2887V56.9922H40.29L39.499 57.396L38.7244 56.9922H38.5143V60.2887L38.4954 60.3501L32.5234 68.8558C32.6864 69.0967 32.8611 69.3304 33.0477 69.5548Z" fill="#E1E4E6"/>
<path fill-rule="evenodd" clip-rule="evenodd" d="M33.9069 56.9211V60.501L33.8904 60.5577L31.8076 63.4693V65.3371L34.3532 61.8139L34.4288 61.7077L34.509 61.8139L35.6968 63.4173L36.4218 62.4373L34.9884 60.5577L34.9672 60.4986V56.9211H33.9069Z" fill="white"/>
<path fill-rule="evenodd" clip-rule="evenodd" d="M34.4529 57.2825V61.0064L36.1012 62.8719L36.0398 62.9522L34.408 61.1008L32.2332 63.9817L32.1553 63.9227L34.3537 61.0087V57.2825H34.4529Z" fill="#004073"/>
<path fill-rule="evenodd" clip-rule="evenodd" d="M32.1877 64.0527C32.2468 64.0527 32.2963 64.0031 32.2963 63.9441C32.2963 63.885 32.2468 63.8354 32.1877 63.8354C32.1287 63.8354 32.0791 63.885 32.0791 63.9441C32.0791 64.0031 32.1287 64.0527 32.1877 64.0527Z" fill="#004073"/>
<path fill-rule="evenodd" clip-rule="evenodd" d="M34.4172 57.3818C34.4763 57.3818 34.5258 57.3322 34.5258 57.2732C34.5258 57.2141 34.4763 57.1646 34.4172 57.1646C34.3582 57.1646 34.3086 57.2141 34.3086 57.2732C34.3086 57.3322 34.3558 57.3818 34.4172 57.3818Z" fill="#004073"/>
<path fill-rule="evenodd" clip-rule="evenodd" d="M44.4959 57.2825V60.8009L42.8477 62.8719L42.9091 62.9522L44.5408 60.8954L46.7156 63.9817L46.7935 63.9227L44.5951 60.8033V57.2825H44.4959Z" fill="#004073"/>
<path fill-rule="evenodd" clip-rule="evenodd" d="M46.76 64.0527C46.819 64.0527 46.8686 64.0031 46.8686 63.9441C46.8686 63.885 46.819 63.8354 46.76 63.8354C46.701 63.8354 46.6514 63.885 46.6514 63.9441C46.6514 64.0031 46.6986 64.0527 46.76 64.0527Z" fill="#004073"/>
<path fill-rule="evenodd" clip-rule="evenodd" d="M44.5305 57.3818C44.5895 57.3818 44.6391 57.3322 44.6391 57.2732C44.6391 57.2141 44.5895 57.1646 44.5305 57.1646C44.4715 57.1646 44.4219 57.2141 44.4219 57.2732C44.4219 57.3322 44.4715 57.3818 44.5305 57.3818Z" fill="#004073"/>
<path fill-rule="evenodd" clip-rule="evenodd" d="M39.5459 60.6617V58.0264H39.3311V60.6333L39.4279 60.4987L39.5459 60.6617Z" fill="#004073"/>
<path fill-rule="evenodd" clip-rule="evenodd" d="M33.04 69.5641L39.4276 60.4988L46.056 69.7105L45.3358 70.334L39.463 61.9298L33.5548 70.334L33.04 69.5641Z" fill="#004073"/>
<path fill-rule="evenodd" clip-rule="evenodd" d="M37.7232 65.1838L39.4895 67.753L41.2511 65.224L41.3314 65.2807L39.5485 67.838L42.5286 72.1735L42.4483 72.2279L39.4895 67.9254L36.4787 72.2467L36.3984 72.1901L39.4305 67.838L37.6429 65.2381L37.7232 65.1838Z" fill="#00538F"/>
<path fill-rule="evenodd" clip-rule="evenodd" d="M39.4874 67.9559C39.5488 67.9559 39.6007 67.9064 39.6007 67.8426C39.6007 67.7788 39.5511 67.7292 39.4874 67.7292C39.426 67.7292 39.374 67.7788 39.374 67.8426C39.374 67.9064 39.4236 67.9559 39.4874 67.9559Z" fill="#004073"/>
<path fill-rule="evenodd" clip-rule="evenodd" d="M27 67.8379V68.2134C28.0272 68.5723 28.9883 68.9784 29.7368 69.6939C29.8478 69.6325 29.9659 69.5593 30.084 69.4767L30.0745 69.4814C29.2433 68.6856 28.1405 68.237 27 67.8379Z" fill="#C30D23"/>
<path fill-rule="evenodd" clip-rule="evenodd" d="M52.1914 67.8379V68.2134C51.1642 68.5723 50.2031 68.9784 49.4545 69.6939C49.3436 69.6325 49.2255 69.5593 49.1074 69.4767C49.1098 69.4791 49.1145 69.4814 49.1169 69.4814C49.9481 68.6856 51.0485 68.237 52.1914 67.8379Z" fill="#C30D23"/>
<path fill-rule="evenodd" clip-rule="evenodd" d="M28.332 70.8911V71.2666C30.0889 71.4248 31.0807 71.8262 32.9674 72.5866C34.7975 73.3234 37.8862 74.1829 39.7918 74.2372C41.74 74.2939 43.6527 73.432 45.4403 72.6858C47.2916 71.9136 48.9776 71.3587 50.7558 71.0871V70.7117C48.9776 70.9832 47.294 71.5358 45.4403 72.3103C43.6527 73.0565 41.74 73.9184 39.7918 73.8618C37.8862 73.8074 34.7999 72.9455 32.9674 72.2112C31.0807 71.4531 30.0889 71.0493 28.332 70.8911Z" fill="#D8E8F7"/>
<path fill-rule="evenodd" clip-rule="evenodd" d="M28.332 73.5312V73.928C29.6591 74.2893 30.795 74.5986 32.1102 75.0756C34.5354 75.9588 37.14 76.9954 39.6502 77.0048C42.191 77.0119 44.5855 75.758 46.9775 74.8796C48.2314 74.4191 49.4475 73.9539 50.7558 73.9988V73.6021C49.4475 73.5572 48.2314 74.0224 46.9775 74.4829C44.5855 75.3613 42.191 76.6176 39.6502 76.6081C37.14 76.6011 34.5354 75.5644 32.1102 74.6789C30.795 74.2019 29.6591 73.8925 28.332 73.5312Z" fill="#C30D23"/>
<path fill-rule="evenodd" clip-rule="evenodd" d="M29.6094 72.9221L29.6354 72.693L29.6755 72.7072C29.6802 72.8394 29.7274 72.9197 29.8125 72.948C29.8857 72.9669 29.9352 72.941 29.9565 72.8654C29.9683 72.8111 29.9329 72.7379 29.8455 72.6458C29.7416 72.5301 29.6991 72.4285 29.718 72.3412C29.7534 72.2184 29.8408 72.1735 29.9754 72.2066C30.0108 72.2184 30.051 72.242 30.0982 72.2774C30.1124 72.2845 30.1194 72.2892 30.1265 72.2916C30.1289 72.2916 30.136 72.2916 30.1454 72.2869C30.1407 72.2892 30.1454 72.2869 30.1549 72.2845L30.1761 72.2916L30.1525 72.4947L30.1124 72.4828C30.1029 72.3695 30.0604 72.2963 29.9778 72.2656C29.914 72.2514 29.8739 72.2703 29.8573 72.3199C29.8479 72.3648 29.8786 72.4262 29.9518 72.5041C30.0132 72.5749 30.058 72.634 30.0864 72.6812C30.1147 72.7497 30.1242 72.8111 30.11 72.8654C30.0651 73.0024 29.9754 73.0543 29.8361 73.0165C29.7794 72.9929 29.7345 72.9693 29.6967 72.9504C29.6779 72.9339 29.666 72.9244 29.6637 72.9244C29.6519 72.9244 29.6424 72.9291 29.6377 72.9386L29.6094 72.9221Z" fill="white"/>
<path fill-rule="evenodd" clip-rule="evenodd" d="M35.329 74.2704L35.3408 74.2231L35.6714 74.327L35.6595 74.3743L35.643 74.3695C35.5863 74.3507 35.5509 74.3743 35.5415 74.4357L35.4305 74.9221C35.4116 74.9859 35.4329 75.0237 35.4919 75.0402L35.5084 75.0449L35.4966 75.0945L35.166 74.9906L35.1778 74.9434L35.1896 74.9481C35.2392 74.967 35.2723 74.9457 35.2864 74.8867L35.3974 74.3955C35.414 74.3365 35.3951 74.2963 35.3408 74.2798L35.329 74.2704Z" fill="white"/>
<path fill-rule="evenodd" clip-rule="evenodd" d="M30.2796 72.7566C30.3622 72.504 30.5299 72.4142 30.7825 72.4851C31.0092 72.5843 31.1013 72.759 31.0541 73.007C30.9691 73.2596 30.8038 73.3494 30.5582 73.2714C30.3244 73.1746 30.2323 73.0046 30.2796 72.7566ZM30.4472 72.7543C30.3906 73.0046 30.4401 73.1652 30.5936 73.236C30.7282 73.2785 30.8274 73.1982 30.8888 72.9975C30.9384 72.7519 30.8888 72.5937 30.7448 72.5276C30.6007 72.4922 30.5015 72.5654 30.4472 72.7543Z" fill="white"/>
<path fill-rule="evenodd" clip-rule="evenodd" d="M31.7318 72.9149L31.7436 72.8677L32.0104 72.9645L31.9986 73.0117L31.9892 73.0094C31.9231 72.9858 31.8829 73.007 31.8711 73.0755L31.7932 73.3801C31.7365 73.5832 31.6137 73.654 31.4224 73.5903C31.2241 73.5147 31.1462 73.3872 31.191 73.203L31.2855 72.8417C31.3044 72.7851 31.2855 72.7496 31.2335 72.7355L31.2146 72.7284L31.2264 72.6812L31.5476 72.7969L31.5358 72.8441L31.5193 72.8394C31.4697 72.8252 31.439 72.8441 31.4248 72.8937L31.3303 73.2573C31.2973 73.3872 31.3421 73.4769 31.4649 73.5242C31.5948 73.5714 31.6798 73.5194 31.7247 73.373L31.8003 73.0779C31.8262 72.9929 31.8073 72.9409 31.7483 72.922L31.7318 72.9149Z" fill="white"/>
<path fill-rule="evenodd" clip-rule="evenodd" d="M34.2143 74.3955L34.2591 74.412C34.2261 74.4852 34.1859 74.5537 34.1411 74.6104C34.1245 74.6009 34.1056 74.5915 34.082 74.5844C34.0584 74.5797 34.0372 74.5726 34.0135 74.5655C33.9805 74.5584 33.9427 74.5466 33.9026 74.5348C33.6759 74.4356 33.5838 74.2609 33.6263 74.0129C33.7089 73.7768 33.8742 73.6894 34.1269 73.7555C34.1765 73.7721 34.2261 73.8075 34.2827 73.8547C34.2969 73.8665 34.3064 73.8736 34.3134 73.876C34.3205 73.8831 34.33 73.8807 34.3371 73.8736L34.3654 73.8831L34.3182 74.1003L34.278 74.0861C34.2757 73.9515 34.2213 73.8618 34.1198 73.8217C33.9569 73.7815 33.8459 73.8594 33.7845 74.0554C33.7396 74.275 33.7963 74.4238 33.9569 74.497C34.0513 74.5301 34.1387 74.497 34.2143 74.3955Z" fill="white"/>
<path fill-rule="evenodd" clip-rule="evenodd" d="M32.4693 73.2219L32.3158 73.7768C32.2922 73.8406 32.3134 73.8807 32.3795 73.8996L32.4031 73.9091L32.389 73.9563L32.0206 73.8146L32.0348 73.7674L32.0702 73.7815C32.1221 73.8052 32.1576 73.7863 32.1741 73.7225L32.3276 73.1676L32.2024 73.1204C32.141 73.0802 32.0891 73.1133 32.0537 73.2195L32.0088 73.203L32.0914 72.9834L32.1221 72.9952C32.1245 73.007 32.1292 73.0165 32.1363 73.0235C32.1387 73.0306 32.1481 73.0377 32.1623 73.0401L32.6534 73.229C32.67 73.2384 32.6889 73.2361 32.7078 73.2219L32.7455 73.2361L32.6983 73.4698L32.6582 73.4557C32.6794 73.3423 32.6558 73.2809 32.585 73.2715L32.4693 73.2219Z" fill="white"/>
<path fill-rule="evenodd" clip-rule="evenodd" d="M33.116 74.183L33.1325 74.1901C33.1821 74.2137 33.2152 74.1924 33.2341 74.1239L33.2931 73.9114L32.9531 73.7815L32.8917 73.9988C32.8704 74.0602 32.8893 74.1003 32.9484 74.1192L32.9649 74.1263L32.9507 74.1735L32.6201 74.046L32.6343 73.9988L32.6508 74.0059C32.7004 74.0295 32.7335 74.0082 32.7524 73.9445L32.8846 73.4604C32.9011 73.4037 32.8822 73.3659 32.8326 73.347L32.8161 73.34L32.8303 73.2927L33.1609 73.4202L33.1467 73.4675L33.1302 73.4604C33.0735 73.4391 33.0381 73.4557 33.0263 73.5147L32.972 73.7083L33.312 73.8406L33.364 73.6517C33.3805 73.5926 33.3616 73.5501 33.3049 73.5289L33.2955 73.5265L33.3096 73.4793L33.6402 73.6068L33.6261 73.654L33.6048 73.6469C33.5505 73.6257 33.5174 73.6446 33.5056 73.7036L33.3734 74.1877C33.3521 74.2491 33.371 74.2892 33.4301 74.3081L33.4466 74.3152L33.4324 74.3624L33.1018 74.2349L33.116 74.183Z" fill="white"/>
<path fill-rule="evenodd" clip-rule="evenodd" d="M34.776 74.7993L34.7925 74.8041C34.8421 74.8253 34.8752 74.8017 34.8917 74.7356L34.9437 74.5207L34.5989 74.4026L34.5446 74.6222C34.5257 74.686 34.5446 74.7238 34.6036 74.7403L34.6202 74.745L34.6083 74.7922L34.2754 74.6789L34.2872 74.6317L34.3037 74.6388C34.3533 74.66 34.3864 74.6364 34.4029 74.5726L34.521 74.0838C34.5351 74.0272 34.5163 73.9894 34.4643 73.9728L34.4478 73.9681L34.4596 73.9209L34.7925 74.0342L34.7807 74.0815L34.7642 74.0767C34.7075 74.0579 34.6745 74.0767 34.6627 74.1358L34.6154 74.3318L34.9602 74.4475L35.0074 74.2562C35.0216 74.1972 35.0027 74.157 34.9437 74.1358L34.9366 74.1334L34.9484 74.0862L35.2813 74.1995L35.2695 74.2468L35.2483 74.2397C35.194 74.2208 35.1609 74.242 35.1515 74.2987L35.0334 74.7875C35.0145 74.8513 35.0334 74.8891 35.0924 74.9056L35.109 74.9103L35.0972 74.9575L34.7642 74.8442L34.776 74.7993Z" fill="white"/>
<path fill-rule="evenodd" clip-rule="evenodd" d="M35.841 74.5466L35.7418 75.0118C35.7182 75.0826 35.7465 75.1275 35.8221 75.144L35.8126 75.1936L35.5576 75.118L35.5671 75.0708L35.5765 75.0732C35.6261 75.0921 35.6592 75.0732 35.671 75.0189L35.7914 74.4474C35.7725 74.4285 35.7465 74.412 35.7158 74.4002L35.7253 74.3506L35.9378 74.4143L36.2566 75.0684L36.3345 74.6953C36.3581 74.6174 36.3345 74.5726 36.2589 74.5607L36.2471 74.5584L36.2566 74.5112L36.5281 74.5914L36.5187 74.6387L36.5069 74.6363C36.4431 74.6174 36.4124 74.6292 36.4077 74.6741L36.2684 75.3306L36.2117 75.314L35.841 74.5466Z" fill="white"/>
<path fill-rule="evenodd" clip-rule="evenodd" d="M36.9318 75.2055L36.7004 75.1488L36.6319 75.2834C36.6106 75.3188 36.6035 75.3448 36.613 75.359C36.6201 75.3755 36.6484 75.3873 36.6956 75.3967L36.7074 75.3991L36.698 75.4487L36.417 75.3779L36.4264 75.3283L36.443 75.333C36.4902 75.3519 36.5303 75.3212 36.5681 75.2409L36.8562 74.6931L36.8491 74.6553L37.0073 74.6954L37.1042 75.3826C37.1112 75.4676 37.1396 75.5125 37.1915 75.5219L37.1821 75.5715L36.8397 75.4841L36.8491 75.4345L36.8869 75.444C36.9152 75.4511 36.9341 75.4487 36.9436 75.4369C36.9554 75.4227 36.9577 75.3991 36.953 75.3637L36.9318 75.2055ZM36.9223 75.1323L36.8751 74.8135L36.7311 75.085L36.9223 75.1323Z" fill="white"/>
<path fill-rule="evenodd" clip-rule="evenodd" d="M37.7535 75.059L37.6968 75.5337C37.6803 75.6092 37.711 75.6494 37.7889 75.6541L37.7842 75.7037L37.5244 75.6612L37.5291 75.6116L37.5386 75.614C37.5905 75.6258 37.6212 75.6045 37.6283 75.5478L37.6968 74.9646C37.6755 74.948 37.6496 74.9362 37.6165 74.9268L37.6212 74.8772L37.8385 74.9126L38.2139 75.5242L38.2588 75.144C38.2753 75.0637 38.247 75.0212 38.1714 75.0189L38.1596 75.0165L38.1667 74.9669L38.443 75.0118L38.4359 75.0614L38.4241 75.059C38.3603 75.0496 38.3273 75.0661 38.3296 75.1086L38.2494 75.7792L38.1927 75.7698L37.7535 75.059Z" fill="white"/>
<path fill-rule="evenodd" clip-rule="evenodd" d="M38.4717 75.4321C38.5071 75.1653 38.6559 75.0354 38.9157 75.0425C39.1565 75.085 39.2746 75.2314 39.2722 75.4865C39.2321 75.7556 39.0857 75.8832 38.833 75.8666C38.5898 75.8312 38.4694 75.6872 38.4717 75.4321ZM38.6346 75.3896C38.6252 75.6494 38.7008 75.7934 38.8613 75.8241C39.003 75.8336 39.0833 75.7297 39.1093 75.5195C39.114 75.2668 39.0384 75.1252 38.885 75.0945C38.7409 75.0945 38.6559 75.1913 38.6346 75.3896Z" fill="white"/>
<path fill-rule="evenodd" clip-rule="evenodd" d="M39.581 75.5715V75.7675C39.5787 75.8336 39.607 75.8667 39.6661 75.8619H39.6991V75.9115H39.3237V75.8619H39.3402C39.4039 75.869 39.437 75.8383 39.4323 75.7675V75.2645C39.4346 75.2031 39.4063 75.17 39.3425 75.17H39.3213V75.1205H39.3496C39.3969 75.1134 39.4346 75.111 39.4606 75.111C39.5362 75.1063 39.5952 75.1039 39.6377 75.1016C39.7912 75.1016 39.8904 75.1323 39.9376 75.1913C39.9707 75.2338 39.9872 75.281 39.9872 75.3353C39.9825 75.4392 39.9282 75.5054 39.8266 75.5384C39.8526 75.5644 39.8857 75.6093 39.9234 75.673C39.9565 75.7297 39.9872 75.7722 40.0132 75.7982C40.0462 75.8478 40.0958 75.8737 40.1572 75.8785V75.9186H40.0911C39.973 75.9233 39.8951 75.8973 39.855 75.843C39.829 75.8171 39.803 75.7816 39.7794 75.7391C39.744 75.6777 39.7038 75.6211 39.6661 75.5738H39.581V75.5715ZM39.581 75.1535V75.5219H39.6235C39.7605 75.5266 39.829 75.4652 39.829 75.3377C39.8266 75.222 39.7629 75.1582 39.6401 75.1535H39.581Z" fill="white"/>
<path fill-rule="evenodd" clip-rule="evenodd" d="M40.6082 75.8595L40.3367 75.2479L40.332 75.7013C40.3201 75.7958 40.3508 75.8359 40.4264 75.8217L40.4288 75.8713L40.1879 75.8855L40.1855 75.8359C40.254 75.8454 40.28 75.7981 40.2706 75.6942L40.2753 75.229C40.28 75.1653 40.254 75.1369 40.195 75.1393L40.1926 75.0897L40.4193 75.0755L40.6531 75.595L40.8302 75.0496L41.0616 75.0354L41.064 75.085C40.9931 75.0826 40.9695 75.1157 40.9931 75.1842L41.038 75.6564C41.0309 75.7485 41.064 75.7863 41.1372 75.7745L41.1395 75.8241L40.8019 75.8454L40.7995 75.7958H40.816C40.8751 75.8029 40.9034 75.7722 40.8987 75.706C40.8987 75.6848 40.8963 75.6659 40.8916 75.647L40.8467 75.196L40.6366 75.8572L40.6082 75.8595Z" fill="white"/>
<path fill-rule="evenodd" clip-rule="evenodd" d="M41.6198 75.4323L41.3884 75.4748L41.3671 75.6306C41.3577 75.6731 41.36 75.6991 41.3742 75.7085C41.386 75.7203 41.4167 75.7203 41.4639 75.7085L41.4757 75.7062L41.4828 75.7558L41.1995 75.8077L41.1924 75.7581L41.2089 75.7558C41.2585 75.7534 41.2868 75.7085 41.2986 75.6188L41.4025 74.986L41.3837 74.9529L41.5419 74.9246L41.8394 75.5244C41.8725 75.5999 41.9126 75.6306 41.9622 75.6188L41.9693 75.6684L41.6222 75.7322L41.6151 75.6826L41.6529 75.6755C41.6812 75.6708 41.6977 75.6613 41.7048 75.6448C41.7119 75.6259 41.7072 75.6023 41.6906 75.5716L41.6198 75.4323ZM41.5915 75.3661L41.4521 75.0899L41.4002 75.4039L41.5915 75.3661Z" fill="white"/>
<path fill-rule="evenodd" clip-rule="evenodd" d="M42.6131 75.2597L42.5777 75.4982L42.0086 75.6423L41.9992 75.5927L42.0204 75.588C42.0795 75.5761 42.1031 75.5407 42.0913 75.4793L42.0015 74.9764C41.9897 74.9173 41.959 74.8961 41.9024 74.9102L41.8835 74.915L41.874 74.8654L42.233 74.7756L42.2424 74.8252L42.2093 74.8347C42.155 74.8488 42.1338 74.8843 42.1479 74.9409L42.24 75.4534C42.2424 75.5006 42.2637 75.5147 42.3038 75.4982L42.4408 75.4652C42.4809 75.4557 42.521 75.4038 42.5612 75.314C42.5659 75.2975 42.5706 75.2857 42.5754 75.2739L42.6131 75.2597Z" fill="white"/>
<path fill-rule="evenodd" clip-rule="evenodd" d="M43.2774 74.5017L43.2656 74.4545L43.5324 74.3577L43.5442 74.4049L43.5372 74.4073C43.471 74.4309 43.4474 74.4757 43.471 74.5419L43.549 74.8465C43.5986 75.0519 43.5301 75.1912 43.3412 75.2668C43.1404 75.3353 43.0177 75.2786 42.9657 75.0991L42.8712 74.7378C42.8594 74.6788 42.8287 74.6623 42.7768 74.6835L42.7579 74.6906L42.7461 74.6434L43.0672 74.5277L43.079 74.5749L43.0625 74.5796C43.0153 74.6009 42.9964 74.6363 43.0106 74.6859L43.105 75.0472C43.1381 75.1771 43.2184 75.2219 43.3435 75.1794C43.4734 75.1322 43.5206 75.033 43.4876 74.8843L43.412 74.5891C43.3931 74.5017 43.353 74.471 43.2939 74.4946L43.2774 74.5017Z" fill="white"/>
<path fill-rule="evenodd" clip-rule="evenodd" d="M43.7442 74.4261L43.8764 74.8795C43.8882 74.955 43.9331 74.9739 44.0063 74.9385L44.0204 74.9857L43.7725 75.0873L43.7583 75.0401L43.7678 75.0377C43.8197 75.0212 43.8363 74.9857 43.8221 74.9314L43.6592 74.3741C43.6332 74.3718 43.6048 74.3741 43.5718 74.3836L43.5576 74.3364L43.7654 74.2514L44.3345 74.5938L44.2283 74.2301C44.2117 74.1498 44.1716 74.1262 44.1007 74.1663L44.0889 74.1711L44.0748 74.1238L44.3392 74.0176L44.3534 74.0648L44.3416 74.0695C44.2802 74.0955 44.2589 74.1262 44.2755 74.1663L44.462 74.8063L44.4077 74.8275L43.7442 74.4261Z" fill="white"/>
<path fill-rule="evenodd" clip-rule="evenodd" d="M47.3013 73.4863L47.2139 73.2785L47.2541 73.2619C47.3202 73.3682 47.3981 73.4036 47.4831 73.3706C47.554 73.3375 47.5823 73.2832 47.5634 73.2053C47.5492 73.151 47.4831 73.1155 47.365 73.0966C47.2234 73.0683 47.1407 73.014 47.1171 72.929C47.0888 72.8038 47.1384 72.7094 47.2659 72.648C47.2989 72.6338 47.3462 72.6267 47.4028 72.6244C47.417 72.622 47.4264 72.6196 47.4312 72.6173C47.4335 72.6173 47.4383 72.6102 47.4453 72.6008C47.443 72.6055 47.4453 72.6008 47.4501 72.5937L47.4713 72.5842L47.5469 72.7684L47.5067 72.7849C47.4453 72.6976 47.3745 72.6645 47.2918 72.6929C47.2328 72.7236 47.2068 72.7661 47.2186 72.818C47.2304 72.8605 47.2871 72.8912 47.3839 72.9101C47.4689 72.929 47.5327 72.9455 47.5776 72.9668C47.6342 73.0046 47.6697 73.0494 47.6838 73.1037C47.7122 73.2478 47.6626 73.3493 47.528 73.4107C47.4689 73.4272 47.4217 73.4391 47.3816 73.4485C47.358 73.4485 47.3438 73.4461 47.3414 73.4485C47.332 73.4579 47.3273 73.465 47.3273 73.4768L47.3013 73.4863Z" fill="white"/>
<path fill-rule="evenodd" clip-rule="evenodd" d="M44.4126 74.0296L44.3984 73.9823L44.7196 73.843L44.7338 73.8902L44.7172 73.8973C44.6606 73.9209 44.644 73.9634 44.6653 74.0201L44.8117 74.4948C44.8282 74.5585 44.8636 74.5774 44.9179 74.5491L44.9345 74.542L44.9486 74.5892L44.6275 74.7285L44.6133 74.6813L44.6251 74.6766C44.6771 74.6601 44.6936 74.6199 44.6747 74.5609L44.5283 74.0815C44.5141 74.0225 44.4787 74.0036 44.4268 74.0248L44.4126 74.0296Z" fill="white"/>
<path fill-rule="evenodd" clip-rule="evenodd" d="M46.585 73.4556L46.6417 73.6398C46.6582 73.7036 46.6936 73.7225 46.7479 73.6941L46.7786 73.68L46.7928 73.7272L46.441 73.8783L46.4268 73.8311L46.4433 73.824C46.5047 73.8051 46.526 73.7626 46.5024 73.6965L46.356 73.2242C46.3418 73.1652 46.304 73.1463 46.245 73.1723L46.2261 73.1794L46.2119 73.1321C46.2166 73.1298 46.2261 73.125 46.2403 73.1203C46.2828 73.0943 46.3158 73.0755 46.3418 73.066C46.4126 73.0329 46.4669 73.0046 46.5047 72.9857C46.6488 72.9243 46.7503 72.9125 46.8117 72.9503C46.8542 72.9763 46.8849 73.0141 46.9014 73.066C46.9251 73.1652 46.8944 73.2502 46.8093 73.3234C46.8424 73.3376 46.8849 73.3683 46.9392 73.4108C46.9864 73.4509 47.0266 73.4769 47.0597 73.4934C47.1045 73.5265 47.1588 73.5312 47.2179 73.5099L47.2297 73.5477C47.2155 73.5548 47.1943 73.5643 47.1659 73.5761C47.0573 73.628 46.9746 73.6351 46.9227 73.5997C46.892 73.5855 46.8566 73.5619 46.8212 73.5312C46.7692 73.4863 46.7173 73.4509 46.6653 73.4226L46.585 73.4556ZM46.4646 73.0613L46.5708 73.4084L46.611 73.3919C46.7409 73.3399 46.7881 73.2549 46.7527 73.1369C46.7173 73.0282 46.6393 72.9952 46.5213 73.04L46.4646 73.0613Z" fill="white"/>
<path fill-rule="evenodd" clip-rule="evenodd" d="M45.3437 74.4214L44.9092 73.9232C44.8596 73.8594 44.8124 73.8429 44.7722 73.8736L44.7651 73.8783L44.751 73.8311L45.1028 73.6729L45.117 73.7201L45.1005 73.7272C45.058 73.7461 45.0343 73.7673 45.0296 73.7909C45.0225 73.8098 45.0343 73.8334 45.0627 73.8618L45.3508 74.19L45.3626 73.6823C45.3626 73.6351 45.3342 73.6233 45.2776 73.6445L45.254 73.6563L45.2398 73.6091L45.4972 73.4934L45.5113 73.5406L45.5066 73.543C45.4547 73.5595 45.4287 73.6186 45.4287 73.7225L45.4074 74.3955L45.3437 74.4214Z" fill="white"/>
<path fill-rule="evenodd" clip-rule="evenodd" d="M46.0113 73.3117L45.7894 73.4108L45.8767 73.6753L46.042 73.5998C46.0963 73.5809 46.1129 73.5431 46.0893 73.4817L46.1294 73.4628L46.2073 73.6989L46.1672 73.7178C46.153 73.6564 46.1129 73.6423 46.0491 73.6753L45.9004 73.7438L45.9688 73.9587C45.9783 74.0083 45.9972 74.0201 46.0279 74.0012L46.1979 73.9256C46.2593 73.9044 46.2853 73.8477 46.2735 73.7532L46.3136 73.7344L46.3632 73.9256L45.7563 74.2019L45.7421 74.1547L45.7823 74.1358C45.8366 74.1145 45.8531 74.0744 45.8342 74.0177L45.6784 73.5384C45.6619 73.4793 45.6241 73.4628 45.565 73.4935L45.5532 73.4982L45.5391 73.451L46.094 73.2007L46.1625 73.366L46.1223 73.3825C46.0845 73.3117 46.0491 73.2881 46.0113 73.3117Z" fill="white"/>
<path fill-rule="evenodd" clip-rule="evenodd" d="M47.6671 72.5488L47.6553 72.5016L47.9859 72.3906L47.9977 72.4379L47.9811 72.4426C47.9245 72.4615 47.9056 72.5016 47.9221 72.5606L48.0402 73.0447C48.052 73.1085 48.0874 73.1321 48.1441 73.1085L48.1606 73.1038L48.1724 73.151L47.8418 73.262L47.83 73.2147L47.8418 73.21C47.8938 73.1959 47.9127 73.1581 47.8985 73.099L47.7804 72.6102C47.7686 72.5488 47.7356 72.5276 47.6812 72.5465L47.6671 72.5488Z" fill="white"/>
<path fill-rule="evenodd" clip-rule="evenodd" d="M48.5028 72.2844L48.6303 72.8465C48.6397 72.9149 48.6751 72.9362 48.7413 72.9102L48.7649 72.9031L48.7767 72.9504L48.4012 73.0684L48.3894 73.0212L48.4272 73.0094C48.4815 72.9952 48.5028 72.9574 48.4886 72.8913L48.3611 72.3269L48.2336 72.3671C48.1627 72.3718 48.1344 72.4332 48.1556 72.5466L48.1108 72.5607L48.0801 72.3222L48.1131 72.3128C48.1202 72.3222 48.1297 72.3246 48.1391 72.3269C48.1462 72.3317 48.1556 72.3317 48.1675 72.3222L48.6657 72.164C48.6846 72.1616 48.6988 72.1475 48.7082 72.1239L48.746 72.1121L48.8145 72.3388L48.7743 72.3506C48.7413 72.2419 48.6917 72.2042 48.6279 72.2419L48.5028 72.2844Z" fill="white"/>
<path fill-rule="evenodd" clip-rule="evenodd" d="M49.4403 72.4591L49.4662 72.6315C49.471 72.6976 49.5064 72.7236 49.5725 72.7047L49.589 72.7023L49.5961 72.7519L49.2301 72.8275L49.223 72.7779L49.2513 72.7708C49.3033 72.7637 49.3269 72.7283 49.3175 72.6669L49.2915 72.4898L49.0081 72.1805C48.9798 72.1427 48.9444 72.1285 48.9042 72.1403L48.8948 72.1427L48.8877 72.0931L49.2372 72.0199L49.2443 72.0695L49.2277 72.0719C49.1994 72.0813 49.1829 72.0907 49.1781 72.1026C49.1711 72.1167 49.1758 72.1309 49.1923 72.1451L49.4025 72.3741L49.4922 72.1167C49.504 72.0813 49.504 72.0553 49.4922 72.0412C49.4851 72.0294 49.4662 72.0246 49.4355 72.0294L49.4237 72.0317L49.4166 71.9821L49.6693 71.9302L49.6764 71.9798C49.6221 71.9916 49.5843 72.0294 49.5701 72.0931L49.4403 72.4591Z" fill="white"/>
</g>
<defs>
<filter id="filter0_d_185_226" x="0" y="0" width="154" height="157" filterUnits="userSpaceOnUse" color-interpolation-filters="sRGB">
<feFlood flood-opacity="0" result="BackgroundImageFix"/>
<feColorMatrix in="SourceAlpha" type="matrix" values="0 0 0 0 0 0 0 0 0 0 0 0 0 0 0 0 0 0 127 0" result="hardAlpha"/>
<feOffset dy="16"/>
<feGaussianBlur stdDeviation="6.5"/>
<feColorMatrix type="matrix" values="0 0 0 0 0 0 0 0 0 0 0 0 0 0 0 0 0 0 0.03 0"/>
<feBlend mode="normal" in2="BackgroundImageFix" result="effect1_dropShadow_185_226"/>
<feBlend mode="normal" in="SourceGraphic" in2="effect1_dropShadow_185_226" result="shape"/>
</filter>
</defs>
</svg>
