<svg width="154" height="157" viewBox="0 0 154 157" fill="none" xmlns="http://www.w3.org/2000/svg">
<g filter="url(#filter0_d_185_18)">
<rect width="128" height="128" transform="translate(13)" fill="white"/>
<path fill-rule="evenodd" clip-rule="evenodd" d="M30.8334 61.3725C31.2009 61.4766 30.5824 62.7105 30.3548 63.2677C30.3252 63.3392 30.1231 63.7607 30.0741 63.8485C29.969 64.0403 29.8894 64.2485 29.8343 64.4588C29.7179 64.8956 29.7108 65.3538 29.7394 65.8008C29.8006 66.7469 30.1211 67.5256 30.0976 68.4687C29.7557 68.5238 29.5199 68.8596 29.178 68.8483C28.3371 68.0543 26.8144 66.2438 28.7494 65.6192C28.8647 65.5814 28.9719 64.6557 29.0035 64.519C29.1025 64.0934 29.2076 63.6648 29.3618 63.2514C29.5291 62.8003 29.7516 62.2686 30.1109 61.9185C30.2844 61.7501 30.614 61.4399 30.8334 61.3725ZM43.702 61.8471C43.7531 60.6581 43.8704 59.4732 43.8908 58.2801L43.8919 58.1873H43.8929V58.0964L43.8939 58.0046V57.8107C43.898 57.4412 43.9215 57.082 43.9674 56.7197L43.9715 56.6952L43.9776 56.6462L43.9817 56.6217L43.9847 56.5962L43.9888 56.5717L43.9919 56.5472L43.996 56.5217L44 56.4972L44.0031 56.4727L44.0082 56.4472L44.0123 56.4227L44.0154 56.3982L44.0194 56.3727L44.0235 56.3482L44.0286 56.3226C44.0817 56.0226 44.2134 55.5684 43.8755 55.3715C43.3765 55.0806 42.4314 55.6858 42.0242 55.896C39.5564 57.1738 37.158 58.5833 34.6647 59.8151C34.1728 60.058 33.6737 60.2978 33.1502 60.4775C32.6919 60.6336 32.2235 60.6683 31.7632 60.8336C31.2907 61.002 30.9467 61.05 30.4283 61.0286C30.2303 60.1019 31.8581 59.3426 32.545 58.9721C33.0532 58.6986 33.587 58.4659 34.1197 58.2393C34.4555 58.0974 35.4332 57.8688 35.6343 57.5831C36.2773 56.6645 36.6865 55.5256 36.7998 54.11C35.2485 54.5427 31.3101 56.3114 31.0171 56.4819C30.5313 56.7615 30.1149 56.9717 29.4393 56.6952C28.6627 56.3778 29.6108 55.2337 30.1068 54.8632C30.1211 55.0602 30.0353 55.4786 30.2456 55.5888C30.365 55.6501 30.7671 55.5041 30.8916 55.4674C31.7857 55.2 32.6664 54.7591 33.5084 54.3733C34.5157 53.912 35.4945 53.3936 36.4844 52.8996C36.7896 52.7475 37.1897 52.7424 37.3509 52.4311C37.5152 52.1117 37.4805 51.533 37.5305 51.1768C37.6459 50.3451 37.7612 49.5143 38.0306 48.7111C38.1245 48.4284 38.3072 48.1508 38.3756 47.8661L38.3817 47.8354L38.3858 47.8191L38.3889 47.8038L38.3909 47.7885L38.394 47.7722L38.396 47.7558L38.398 47.7405L38.4062 47.6752L38.4072 47.6589L38.4093 47.6425L38.4103 47.6262L38.4113 47.6089V47.5925L38.4123 47.5762V47.5589L38.4133 47.5425V47.3894L38.4123 47.3721V47.3374L38.4113 47.3211C38.4082 47.2292 38.4021 47.1384 38.397 47.0486V47.0322H38.396V47.0159L38.395 46.9986V46.9822L38.3929 46.9496V46.9169H38.3919V46.8679L38.3909 46.8526L38.3899 44.5696C38.3899 43.7143 38.3899 42.8601 38.3899 42.0069C39.0522 41.8497 41.5802 44.445 41.6741 44.5859C42.6416 46.0433 41.0342 50.3022 40.6148 51.432C42.1099 51.5085 43.352 50.489 44.64 50.043C44.9421 49.9389 43.798 49.2061 43.7327 49.1765C43.5265 49.0836 43.302 49.0081 43.1213 48.8744L43.1142 48.8693L43.0958 48.854L43.0887 48.8489C42.9693 48.7438 42.8631 48.5672 42.8601 48.4274V48.4202C43.4418 48.3957 44.0633 48.5621 44.6593 48.5641C45.0135 48.5662 45.3687 48.557 45.7238 48.5529C45.9739 48.5498 46.2933 48.4509 46.5372 48.5192C46.7985 48.5927 46.8261 48.7866 47.0312 48.9234C47.2037 49.0397 47.5068 49.0091 47.6027 49.1346C48.0018 49.6725 47.4384 50.1481 46.9608 50.3042C46.1749 50.5614 45.4289 50.8829 44.6542 51.1677C43.8806 51.4514 43.1234 51.7708 42.3508 52.0566C41.9364 52.2097 41.5241 52.3689 41.1057 52.5128C40.8587 52.5965 40.0208 52.7271 39.8728 52.92C39.4656 53.4548 39.1502 54.0457 38.8583 54.6407C38.5838 55.201 38.1398 55.8624 38.0112 56.4594C38.7308 56.4849 39.6452 56.0012 40.2953 55.7664C41.4129 55.3623 42.5212 54.9275 43.6459 54.5407C44.0245 54.4111 44.4236 54.208 44.8216 54.1468C45.1543 54.0957 45.0574 54.1008 45.2737 54.3233C45.483 54.5366 45.7779 54.5897 45.8892 54.8867C46.0453 55.298 45.8259 55.9083 45.8075 56.3349C45.7453 57.7974 45.584 59.2599 45.4595 60.7173C45.2758 62.9105 45.089 65.1038 44.8849 67.295C44.8553 67.6104 44.7879 67.9175 44.7737 68.2349C44.7594 68.5421 44.9002 69.2913 44.5991 69.5107C43.9092 70.0108 42.0844 68.3809 41.6047 67.9992C41.2383 67.7104 40.8964 67.395 40.4902 67.1541C40.3668 67.0817 40.1902 66.8316 40.03 66.8847C39.7738 66.9715 39.8432 67.1399 39.7024 67.2674C39.3849 67.5552 38.1572 67.4348 37.7898 67.3317C37.2989 67.195 37.2693 66.7357 37.3305 66.3142C37.3458 66.207 36.4048 66.2009 36.2905 66.0325C36.2599 65.9897 36.2507 65.7784 36.2211 65.7019C36.065 65.3089 36.3844 65.2161 36.6824 65.0303C37.0468 64.8048 37.4173 64.6455 37.8602 64.6272C37.997 64.621 37.7398 64.1393 37.6959 64.0954C37.5479 63.9454 37.3183 63.8913 37.1254 63.8107C36.7733 63.6627 36.3283 63.5698 36.5304 63.133C36.7192 62.7248 37.4336 62.2941 37.8602 62.1471C37.9122 62.1288 38.1388 61.4348 38.197 61.3348C38.347 61.0796 38.5328 60.8459 38.7073 60.6061C39.0369 60.1519 39.5156 59.5018 39.4207 58.9211C39.4094 58.8486 39.2686 58.5965 38.2848 59.3691C37.9541 59.6273 37.6673 60.0968 37.4019 60.4172C37.0958 60.7847 36.7549 61.1306 36.461 61.5072C36.1732 61.8736 36.0466 62.2053 35.5077 62.1696C35.0556 62.14 34.6096 61.9594 34.2279 61.744C33.6595 61.4235 33.4002 61.3205 33.636 60.6683C33.6186 60.7183 35.4618 60.5999 35.6486 60.5356C36.2426 60.3305 36.7294 59.9233 37.2244 59.5671C37.6734 59.2446 38.1051 58.8966 38.4991 58.5169C38.8849 58.1454 39.09 58.0638 39.5983 57.8841C39.9942 57.7443 40.3025 57.4494 40.7046 57.3208C41.3251 57.1248 42.2487 57.6841 41.866 58.3465C41.7292 58.5822 41.3761 58.7516 41.1934 58.968C40.9934 59.2048 40.8423 59.4712 40.6025 59.6794C39.9126 60.2774 39.142 60.9459 38.7267 61.7481C39.1247 61.8624 39.7942 61.5083 40.0596 61.8267C40.2637 62.0726 40.1616 62.4809 40.1249 62.7605C40.0851 63.0606 39.7085 63.2065 39.6687 63.4433C39.6156 63.7525 40.0147 63.679 40.1953 63.7464C40.3912 63.8209 40.3443 63.6944 40.4249 63.9138C40.4923 64.1026 40.3035 64.5272 40.2667 64.7231C40.2137 65.017 40.1402 65.2997 40.2167 65.6059C40.4586 66.5642 40.7046 66.5071 41.3169 66.7816C42.016 67.095 43.7071 67.7808 43.4234 66.7092C43.1785 65.7825 43.749 64.6619 43.701 63.775L43.6959 63.6821L43.6918 63.5903L43.6826 63.3147L43.6806 63.2228L43.6786 63.0391V62.7636L43.6816 62.489H43.6826L43.6888 62.2135L43.6949 62.0308L43.7031 61.8481L43.702 61.8471Z" fill="#711A5F"/>
<path fill-rule="evenodd" clip-rule="evenodd" d="M57.4536 59.6018C58.1507 59.4793 57.9864 60.5182 58.0364 60.9061C58.1048 61.4347 58.1925 61.9614 58.2762 62.489C58.3916 63.2289 58.7233 64.0076 58.7528 64.7516C58.7835 65.4916 56.3239 66.1447 56.3004 65.9417C56.1718 64.8598 56.4524 63.6219 56.6372 62.5523C56.7331 62.0052 56.8484 61.4592 56.9974 60.9214C57.0393 60.7673 57.2893 59.6314 57.4536 59.6018ZM63.4129 63.1657L63.3945 63.182C63.3026 63.2749 63.2802 63.5055 63.2485 63.6157C63.174 63.8821 62.9985 64.2495 63.025 64.5292C63.0699 64.9874 63.6813 64.9262 64.0864 65.1129C64.2059 64.5281 64.5529 63.5024 63.9609 63.0401C63.8772 63.2248 63.5445 63.0707 63.4139 63.1646V63.1657H63.4129ZM70.9264 64.52C70.9264 64.8874 70.904 65.2548 70.8938 65.6222V65.6416L70.8927 65.66V65.6977L70.8917 65.7161C70.8795 66.2427 71.0601 66.5765 70.659 66.9898C70.4957 67.1562 69.9171 67.8399 69.6415 67.7828C69.37 67.7256 65.8 66.5734 64.4008 65.9151C63.7466 65.6069 63.0679 65.3793 62.4025 65.1037C62.0412 64.9517 61.5819 64.5955 61.6748 64.1781C61.389 64.2015 60.6215 64.1434 60.6593 63.7321C60.6828 63.4861 61.1451 63.332 61.3309 63.2371C61.5993 63.0993 61.8105 62.9993 61.9146 62.7135C62.182 61.9767 61.1216 62.1828 60.645 62.1726C60.6593 61.6154 60.9675 61.3949 61.4472 61.1408C61.9228 60.8877 62.3127 60.5999 62.826 60.3988C63.4904 60.1386 64.0099 59.7059 64.6151 59.3507C65.2887 58.9557 65.5428 59.3987 66.2368 59.415C66.4818 60.2539 65.7745 60.3141 65.2989 60.7938C65.4989 61.0316 65.9592 60.8397 66.2389 60.8989C66.3971 62.4533 66.8727 64.6128 65.205 65.5548C65.3397 65.4783 66.0674 65.7406 66.2389 65.7753C66.6287 65.8549 67.0196 65.9284 67.4136 65.9876C68.1229 66.0968 68.9118 66.2213 69.6272 66.1407C69.9181 64.9282 69.1435 63.6168 69.2108 62.3808C68.4301 59.5936 69.6129 54.9734 69.2323 51.5891C68.7842 51.5248 69.0659 53.07 69.0516 53.2598C69.021 53.6609 68.7209 53.7977 68.425 54.0569C68.0208 54.41 67.8096 54.8193 67.5901 55.2847C67.4677 55.5439 67.3391 55.799 67.1941 56.0491C67.0941 56.2195 66.792 56.5349 66.7747 56.7257C66.7267 57.283 67.3023 58.0035 66.3093 57.9362C65.9306 57.9106 65.5153 57.8025 65.202 57.5953C65.0978 57.5269 64.608 56.9176 64.5508 56.9237C63.6037 57.0156 63.5986 58.0127 63.5884 58.6955C63.5884 59.0976 63.0924 59.7804 62.5607 59.8977L62.5311 59.9039L62.5015 59.9079H62.5005L62.4709 59.912L62.4413 59.9141H62.38L62.3504 59.912L62.3198 59.909L62.2902 59.9039L62.2606 59.8977L62.231 59.8896C62.2004 59.4987 62.4321 59.1619 62.526 58.7935C62.5862 58.5567 62.5647 58.1964 62.5107 57.9678C62.0596 58.1699 61.5564 59.0711 61.1012 59.0741C60.84 59.0762 60.3684 58.5975 60.2776 58.3913C59.8449 57.4095 62.5311 57.1626 63.0679 56.9237C63.1036 56.9084 63.2659 55.6153 63.3088 55.4582C63.4343 55.0091 63.6547 54.459 63.5721 53.9967C63.6047 53.8283 62.4219 54.5121 62.2953 54.5886C61.8799 54.8387 61.4819 55.1122 61.0584 55.3479C60.2694 55.7858 59.0907 56.2359 58.1558 55.996C57.9854 55.9532 57.8547 55.8123 57.721 55.7164C58.1446 55.005 59.3428 54.4509 60.0847 54.0763C61.0124 53.6089 61.9881 53.2292 62.9607 52.8557C63.0944 52.8046 63.0016 52.6373 63.0924 52.5781C63.2149 52.4974 63.5506 52.5536 63.6986 52.5536C64.0252 52.5536 64.4988 52.4352 64.7886 52.6301C65.1672 52.8842 64.9621 53.4099 64.8498 53.7497C64.5539 54.6366 64.0364 55.3551 64.1283 56.3277C66.7247 56.8747 66.793 55.055 67.8351 54.1457C68.0218 52.5679 68.4168 51.1839 68.8944 49.8796C69.221 49.8602 69.4976 49.8337 69.8211 49.8317C70.0783 49.8317 70.5274 49.7112 70.7713 49.7755V49.7766H70.7733L70.7744 49.7776H70.7754L70.7774 49.7786H70.7815L70.7825 49.7796L70.7876 49.7806L70.7907 49.7817V49.7827H70.7948C71.301 49.9705 71.0714 51.337 71.1081 51.7606C71.403 55.1357 70.2681 58.4699 70.5886 62.4778L70.6213 62.5349L70.6519 62.5921L70.6662 62.6217H70.6672C70.9509 63.1983 70.9336 63.9035 70.9274 64.519L70.9264 64.52ZM63.0669 61.4868C63.0669 61.7185 63.0669 61.9501 63.0669 62.1818C63.4527 61.8144 64.2477 61.6695 64.3773 61.0622C63.716 60.9397 63.8987 61.201 63.0669 61.4868Z" fill="#711A5F"/>
<path fill-rule="evenodd" clip-rule="evenodd" d="M82.8041 61.0969C82.208 60.8714 81.8845 60.5458 81.8233 59.5079C82.2029 59.516 82.1897 59.8926 82.4581 60.0049C83.3715 59.7355 84.4901 59.6589 85.0014 59.0129C85.033 58.971 85.8526 58.9149 85.9781 58.8731C86.2445 58.7843 86.4863 58.6506 86.7221 58.5067C87.0262 58.3199 87.4324 58.2352 87.71 58.0239C88.1377 57.6984 88.0529 57.0595 88.1397 56.5972C88.3652 55.3939 88.8572 54.2437 89.0439 53.0302C89.1593 52.2882 88.5867 50.6726 89.8206 50.5645C90.0666 50.543 90.1992 50.7594 90.3033 50.9288C90.4748 51.2105 90.5085 51.1258 90.7738 51.286L90.7942 51.2993L90.8147 51.3105L90.834 51.3238L90.8545 51.336L90.8739 51.3483L90.8922 51.3605L90.9116 51.3728L90.93 51.385H90.931C91.2729 51.6136 91.4933 51.8565 91.4985 52.2617L91.4995 52.2842C91.4995 52.6291 91.476 52.9802 91.426 53.3241L91.4199 53.365L91.4168 53.3864L91.4137 53.4058L91.4097 53.4272L91.4076 53.4476L91.4035 53.468L91.4005 53.4884L91.3964 53.5089L91.3933 53.5293L91.3892 53.5497L91.3862 53.5711L91.3821 53.5905L91.378 53.6109C91.3433 53.7956 91.3137 54.011 91.2106 54.1773C91.0698 54.4049 90.9728 54.4713 90.9065 54.7274C90.833 55.0061 90.784 55.2745 90.681 55.547C90.4819 56.0695 90.238 56.5645 90.1901 57.1268C90.781 57.4126 91.4209 56.8921 91.9914 56.8288C91.8403 56.141 91.8403 56.2287 91.9914 55.5398C92.0159 55.4327 92.8915 55.5674 92.9875 55.5694C93.1304 55.5704 93.2998 55.5878 93.4294 55.5164C93.5345 55.4572 93.5294 55.3 93.6376 55.2459C93.7713 55.1785 94.0897 55.2428 94.2387 55.2439C94.7245 55.2479 95.2113 55.2418 95.6982 55.2418C96.2646 56.8941 94.2336 56.888 92.4762 57.48L92.3996 57.5055V57.5065L92.3221 57.532L92.2465 57.5575L92.17 57.5841L92.0945 57.6096C90.6085 58.1209 89.343 58.6149 89.343 58.6149C88.75 61.8011 86.9691 65.1977 83.3674 66.1488C82.3438 66.4193 80.9905 66.652 79.927 66.5469C79.7607 66.5295 80.2108 66.2785 80.1975 66.2917C80.3934 66.0896 80.3455 66.0407 80.718 65.9376C81.3824 65.7529 82.0192 65.4967 82.6265 65.1803C83.7736 64.5833 84.7881 63.7994 85.8475 63.0799C85.9352 63.0197 86.0046 62.3625 86.0557 62.2247C86.1536 61.9634 86.2832 61.7144 86.4159 61.4643C86.6598 61.0041 87.3467 60.0294 87.3273 59.512C86.8211 59.9028 86.3935 60.1825 85.7821 60.408C85.3494 60.5672 84.8105 60.9755 84.3482 61.0275C84.1859 61.0459 83.0806 61.2021 82.8041 61.0969ZM90.6146 60.4999C90.5299 60.4938 91.0463 60.8183 91.0912 60.8367C91.1841 60.8765 91.3076 60.8847 91.379 60.9653C91.4607 61.0592 91.4209 61.2184 91.5127 61.3C91.6097 61.3868 91.9046 61.4123 92.0353 61.4613C92.3608 61.5848 92.6599 61.7542 92.9436 61.944C93.1161 62.0583 94.401 63.1616 94.5347 63.0799C95.2185 62.6625 96.0819 63.1728 96.8096 62.9707C97.0719 62.8983 97.4444 62.7595 97.3923 63.1565C97.3842 63.2218 96.9096 63.8648 96.8637 63.874C95.592 64.125 95.0817 64.969 94.1101 64.866C93.3049 64.7792 91.4627 62.6176 91.4627 62.4849C90.83 61.8869 90.1329 61.349 89.6614 60.5999C89.9257 60.5162 90.2288 60.4703 90.6146 60.4999Z" fill="#711A5F"/>
<path fill-rule="evenodd" clip-rule="evenodd" d="M120.43 52.8986C120.43 52.6016 120.43 52.3036 120.43 52.0056V52.8986ZM121.207 61.541C121.542 61.6695 121.782 61.9073 121.755 62.338C121.704 63.1035 121.07 63.3545 120.34 63.3801C119.859 63.3974 118.474 63.0912 118.168 63.5627C117.96 63.8842 118.411 64.4711 118.471 64.8099C118.558 65.2998 118.598 65.7968 118.622 66.2938C118.667 67.2175 118.657 68.1472 118.647 69.0719C118.638 69.8271 118.042 70.466 117.248 70.6681C116.71 70.8059 116.129 70.5578 115.592 70.5099C114.964 70.4538 114.372 70.6109 113.813 70.2751C113.429 70.0455 113.061 70.0394 112.643 69.8618L112.62 69.8516L112.596 69.8414L112.572 69.8312L112.547 69.821L112.522 69.8108L112.497 69.8006L112.444 69.7802L112.418 69.7689L112.392 69.7598L112.365 69.7485C111.899 69.5607 111.352 69.3189 111.331 68.8392L111.33 68.8116C111.767 69.1382 112.405 69.0678 112.932 69.1076C113.517 69.1515 114.106 69.175 114.691 69.2331C115.148 69.278 115.608 69.3352 116.067 69.3413C116.623 69.3474 117.07 68.8974 117.465 68.5748C117.556 68.1503 117.548 67.7339 117.665 67.3154C117.758 66.9776 117.607 66.651 117.532 66.3234C117.43 65.8744 117.375 65.4161 117.276 64.966C117.22 64.7109 117.158 64.2465 117.008 64.0363C116.85 63.8179 116.944 63.9077 116.671 63.9393C116.601 63.9475 116 63.9975 115.981 64.0108C114.641 65.0365 112.933 65.7182 111.427 66.5898C110.863 66.5898 110.296 66.5898 109.731 66.5898C109.62 66.5898 109.176 66.1152 109.109 66.0295C108.516 65.2641 109.261 65.0753 109.912 64.8752C110.529 64.6854 111.106 64.3619 111.688 64.0924C112.861 63.5485 113.967 62.8912 115.219 62.5064C116.02 62.2594 116.834 62.09 117.676 62.0268C117.756 62.0145 117.951 61.7226 118.068 61.6716C118.236 61.5971 118.443 61.6093 118.624 61.5859C119.084 61.5256 119.527 61.4175 119.994 61.4032C120.359 61.3909 120.84 61.4011 121.208 61.541H121.207ZM120.113 52.9976C120.131 52.8823 120.28 52.8904 120.43 52.8986C120.43 52.6016 120.43 52.3036 120.43 52.0056C120.097 52.1199 120.173 51.8505 120.006 51.8076C120.042 52.1862 119.65 52.8313 120.113 52.9976ZM115.134 51.7086C115.409 51.6678 115.44 51.3994 115.558 51.2116C115.391 51.1697 115.467 50.9003 115.134 51.0136V51.7086ZM116.723 51.4106C117.076 51.4106 117.429 51.4106 117.783 51.4106C117.585 50.9707 118.396 50.6094 117.783 50.4186C117.37 50.6941 117.106 51.1075 116.723 51.4106ZM115.134 49.5256C115.134 49.8236 115.134 50.1206 115.134 50.4186C115.785 50.3992 116.012 49.9838 116.194 49.5256C115.785 49.4358 115.678 49.4317 115.134 49.5256ZM120.219 50.4186C121.472 49.8807 122.115 52.2301 121.277 53.1966C122.494 52.7802 123.208 51.8954 123.608 50.7156C123.715 50.7156 123.82 50.7156 123.926 50.7156C124.155 49.5082 125.075 48.9479 124.986 47.4415C123.105 46.9282 121.66 48.2059 120.219 48.7326C120.286 49.2714 120.678 49.9736 120.219 50.4186ZM108.992 61.1654C109.023 61.2746 113.74 58.9027 114.13 58.6915C114.78 58.3383 115.477 58.1546 116.154 57.8617C116.664 57.6392 117.149 57.3708 117.628 57.0973C118.337 56.6932 120.918 55.844 121.349 55.8267C122.234 55.792 122.708 56.2227 122.627 57.1473C122.544 58.1342 121.467 58.7721 120.644 59.2171C119.497 59.8376 118.365 60.4224 117.293 61.1593C117.155 60.4591 118.028 60.0264 118.455 59.5865C119.207 58.8088 119.921 57.9475 120.565 57.0881C119.583 56.7952 118.408 57.4566 117.598 57.9066C117.166 58.1444 116.748 58.4098 116.288 58.5986C115.954 58.7374 115.586 58.818 115.269 58.9946C114.924 59.1885 114.79 59.4804 114.516 59.7376C114.259 59.9733 113.908 60.0397 113.643 60.2958C113.177 60.748 112.565 61.0582 112.011 61.4062C111.372 61.8053 110.733 62.2074 110.043 62.5258C109.39 62.8279 108.697 63.3729 107.947 63.4148C106.961 63.4688 106.469 62.5615 106.894 61.7736C107.243 61.1256 107.838 61.2144 108.443 60.9562C108.878 60.7714 109.251 60.455 109.63 60.1887C110.473 59.5947 111.424 59.263 112.334 58.7782C112.907 58.4741 113.452 58.1301 114.012 57.8087C114.292 57.6495 114.575 57.4943 114.865 57.3535C115.116 57.231 115.57 57.1392 115.769 56.9667C116.782 56.0951 118.264 55.6654 118.842 54.3877C118.915 54.2213 118.1 54.3172 118.044 54.2887C117.827 54.1815 117.777 53.8018 117.728 53.6089C117.745 53.6753 116.838 54.1182 116.754 54.1621C116.502 54.2938 115.437 54.7153 115.285 54.3213C115.194 54.0835 115.816 53.6794 115.957 53.5518C116.348 53.1976 116.616 52.8068 116.935 52.4026C116.889 52.4618 116.091 51.9607 115.917 51.9954C115.527 52.0719 115.416 52.5792 115.265 52.8731C114.967 53.463 114.533 54.4785 113.651 54.0029C113.134 54.5785 112.642 55.2449 112.278 55.9175C112.114 56.2206 112.024 56.786 111.773 57.0014C111.519 57.2188 111.163 57.1218 111.104 57.5515C109.318 56.9789 109.936 54.353 109.98 52.9966C109.995 52.4689 109.984 51.9433 109.955 51.4167C110.715 51.4882 111.257 51.6851 111.486 52.4138C111.717 53.1425 111.672 53.9437 111.64 54.6928C112.012 54.5448 112.402 54.257 112.697 53.9988C112.959 53.7702 113.286 53.4405 113.31 53.0935C113.337 52.6955 113.28 52.2842 113.235 51.8872C113.199 51.5606 113.061 51.5963 112.941 51.3371C112.804 51.0411 112.911 50.5451 112.852 50.2185C112.788 49.8715 112.671 49.5388 112.536 49.2112C112.408 48.8999 112.259 48.5968 112.142 48.2825C112.039 48.0049 112.024 47.3507 111.851 47.1445C111.773 47.0517 111.658 46.9945 111.532 46.9455C111.451 46.572 111.662 46.472 111.639 46.1525C111.865 46.1056 111.841 46.2944 111.851 46.4505C111.842 46.3209 112.954 46.7292 113.041 46.7832C113.389 46.9976 113.666 47.2935 113.95 47.5762C114.339 47.9671 114.776 48.3703 115.368 48.4509C115.669 48.4927 115.957 48.4141 116.253 48.3886C116.638 48.356 117.043 48.4325 117.409 48.2805C117.589 48.207 117.765 48.107 117.867 47.9416C117.96 47.7906 117.93 47.5997 118.023 47.4487C118.113 47.3058 118.294 47.2364 118.396 47.1017C118.515 46.9435 118.58 46.7557 118.674 46.5863C118.829 46.3148 119.14 46.1484 119.315 45.8933C119.464 45.6769 119.492 45.4014 119.711 45.2289C119.915 45.0687 121.427 44.8686 121.489 45.1595C121.743 46.3352 121.216 46.82 120.537 47.3425C120.508 47.365 120.78 47.4415 120.834 47.4262C120.938 47.3987 120.972 47.2548 121.037 47.1905C121.124 47.1058 121.161 47.0108 121.275 46.9486C122.149 46.474 122.994 46.0443 124.032 45.9443C124.954 45.8555 126.257 45.9035 126.892 46.6485C127.183 46.9894 126.811 48.2121 126.647 48.5734C126.538 48.8193 126.384 49.0541 126.187 49.248C125.961 49.4694 125.95 49.7164 125.833 49.9899C125.73 50.2328 125.423 50.3686 125.267 50.5849C125.109 50.8054 124.99 51.0473 124.854 51.28C124.718 51.5106 124.583 51.7453 124.396 51.9433C124.262 52.0852 124.06 52.1771 123.951 52.3383C123.844 52.4914 123.868 52.7374 123.74 52.869C123.678 52.9303 123.498 52.9476 123.461 52.9956C123.258 53.2558 123.337 53.511 123.047 53.7671L123.035 53.7784L123.023 53.7886L123.012 53.7988L123 53.808L122.977 53.8284L122.965 53.8376L122.954 53.8467L122.943 53.8569L122.909 53.8845C122.718 54.0447 122.558 54.1886 122.55 54.4703V54.4866C121.526 54.9837 120.726 55.396 119.478 54.9827C118.006 56.3166 110.83 60.2366 108.992 61.1664V61.1654Z" fill="#711A5F"/>
<path fill-rule="evenodd" clip-rule="evenodd" d="M27.0349 75.5893C27.4279 75.578 28.029 75.624 28.7536 75.624C29.0853 75.624 29.4047 75.6117 29.5517 75.6005C29.6129 75.7617 29.7232 75.9108 30.0069 76.2333C31.0499 77.4865 33.0758 79.8666 33.8239 80.683C33.8372 80.683 33.8484 80.6718 33.8606 80.6718C33.8606 79.2001 33.8862 77.4978 33.8116 76.7272C33.7749 76.3486 33.6647 76.1761 33.284 76.0832C33.0513 76.0261 32.8298 75.9914 32.5104 75.9577C32.4737 75.9118 32.4859 75.6117 32.5226 75.5893C32.8298 75.5893 33.3942 75.624 34.1678 75.624C34.77 75.624 35.3456 75.5893 35.5671 75.5893C35.6048 75.624 35.6048 75.9118 35.5671 75.9577C35.3711 75.9914 35.2241 76.0149 35.0649 76.0608C34.72 76.1639 34.6097 76.3139 34.5608 76.7395C34.4873 77.7172 34.4761 79.3838 34.4628 81.0862C34.4628 81.6026 34.4761 82.27 34.4873 82.6732C34.3036 82.6497 33.5912 82.6609 33.383 82.6834C32.6829 81.7638 29.7232 78.1877 28.9373 77.2457C28.9138 77.211 28.8761 77.2334 28.8761 77.2457C28.8516 78.4867 28.8638 80.8902 28.9016 81.4199C28.9261 81.9026 29.0976 82.0751 29.4405 82.1435C29.6374 82.1904 29.8589 82.2241 30.1651 82.2588C30.2028 82.3047 30.2028 82.5813 30.1406 82.6385C29.7477 82.6385 29.1955 82.6038 28.5934 82.6038C27.9188 82.6038 27.3789 82.6385 27.0349 82.6385C26.986 82.5925 26.9972 82.3047 27.0349 82.2588C27.3054 82.2241 27.5136 82.2006 27.7228 82.1323C27.9923 82.0516 28.1147 81.8679 28.1525 81.477C28.2249 80.8667 28.2627 78.7745 28.2739 76.8426C28.2739 76.6017 28.1525 76.2792 27.8698 76.1639C27.6361 76.0608 27.3901 76.0036 27.0217 75.9679C26.986 75.923 26.9972 75.624 27.0349 75.5893Z" fill="#711A5F"/>
<path fill-rule="evenodd" clip-rule="evenodd" d="M39.3105 80.3269C38.9544 80.4534 38.291 80.6371 38.1307 80.7525C38.094 80.7872 38.0215 81.0168 38.0215 81.1321C38.0215 81.6608 38.4257 81.9476 38.8441 81.9476C38.9789 81.9476 39.1268 81.9139 39.236 81.8445C39.2983 81.8108 39.335 81.7302 39.335 81.6149C39.3595 81.2924 39.3595 80.58 39.3595 80.3851C39.3595 80.3728 39.3228 80.3269 39.3105 80.3269ZM39.1871 79.0042C38.9911 78.7399 38.6472 78.6245 38.3155 78.6245C38.046 78.6245 37.8246 78.6939 37.7511 78.7623C37.6409 78.8542 37.4071 79.292 37.3082 79.4982C37.2602 79.5451 36.8795 79.3726 36.8918 79.292C36.904 79.1767 37.0755 78.6245 37.1622 78.5674C37.7511 78.1643 38.6227 77.8662 38.9789 77.8662C39.6045 77.8662 40.0831 78.1418 40.3546 78.5337C40.5995 78.8664 40.6608 79.292 40.6608 79.6941C40.6608 80.2463 40.624 81.0403 40.624 81.5006C40.624 81.7302 40.7098 81.9476 41.0047 81.9476C41.165 81.9476 41.2629 81.9374 41.4221 81.8904C41.4344 81.9374 41.3976 82.2813 41.3609 82.316C41.0537 82.6038 40.5138 82.7416 40.1321 82.7416C39.7402 82.7416 39.5065 82.6038 39.4208 82.4079L39.3473 82.1905C39.3473 82.167 39.3105 82.167 39.2983 82.167C38.6972 82.5467 38.1307 82.7416 37.8981 82.7416C37.6409 82.7416 37.3816 82.6385 37.1857 82.466C36.8918 82.2007 36.7193 81.7986 36.7193 81.3618C36.7193 81.2005 36.856 80.7984 36.9285 80.6831C37.3082 80.4881 38.8064 80.1544 39.2616 79.9595C39.3105 79.936 39.3473 79.8788 39.3595 79.8319C39.3718 79.7513 39.3718 79.7064 39.3718 79.6257C39.3718 79.4186 39.3228 79.1879 39.1871 79.0042Z" fill="#711A5F"/>
<path fill-rule="evenodd" clip-rule="evenodd" d="M42.8571 82.1905C43.0275 82.1435 43.0898 81.9833 43.1153 81.7526C43.1265 81.4077 43.1398 80.5218 43.1398 79.9472C43.1398 79.6135 43.1265 79.1879 43.1153 79.0389C43.0898 78.9246 42.9918 78.7746 42.5132 78.6133C42.5009 78.5439 42.5376 78.349 42.5754 78.3031C43.249 78.2337 44.0726 78.004 44.4523 77.8203C44.4778 77.8315 44.5023 77.8785 44.5023 77.9009C44.5023 78.0275 44.49 78.349 44.49 78.5439C44.49 78.5786 44.539 78.5898 44.5513 78.5786C45.1534 78.1306 45.7413 77.8662 46.1597 77.8662C46.7241 77.8662 47.117 78.0846 47.3987 78.4755C47.6457 78.8317 47.7192 79.292 47.7192 79.8319C47.7192 80.5106 47.7192 81.5118 47.7314 81.8904C47.7314 81.971 47.7804 82.0517 47.8416 82.0864C48.0141 82.1905 48.1856 82.2241 48.4428 82.2589C48.4673 82.3272 48.4428 82.5814 48.3815 82.6385C48.1978 82.6385 47.8294 82.6038 47.0435 82.6038C46.4047 82.6038 46.1097 82.6273 45.73 82.6385C45.7055 82.5814 45.6923 82.3048 45.73 82.2589C45.9015 82.2354 46.0362 82.2129 46.123 82.1905C46.2699 82.1323 46.3189 82.0292 46.3312 81.8108C46.3434 81.3505 46.3689 79.9125 46.2822 79.4533C46.2454 79.2461 46.1352 79.0154 45.926 78.8787C45.7668 78.7511 45.5698 78.7052 45.3249 78.7052C45.1157 78.7052 44.8207 78.7858 44.6125 78.9246C44.539 78.9705 44.5023 79.0736 44.5023 79.1767C44.5145 79.9472 44.5145 81.178 44.5258 81.7873C44.539 82.0751 44.6125 82.1435 44.784 82.1905C44.9075 82.2241 44.9809 82.2354 45.1902 82.2589C45.2146 82.316 45.2014 82.5814 45.1534 82.6385C44.7717 82.6273 44.3676 82.6038 43.7777 82.6038C43.0275 82.6038 42.6846 82.6273 42.4519 82.6385C42.4142 82.5691 42.4142 82.316 42.4519 82.2589C42.5989 82.2476 42.7091 82.2241 42.8571 82.1905Z" fill="#711A5F"/>
<path fill-rule="evenodd" clip-rule="evenodd" d="M52.3709 78.0275C53.2302 78.0275 54.2365 77.9928 54.8254 77.9346C54.8754 77.9816 54.8877 78.2571 54.8254 78.3143C54.359 78.3949 54.0651 78.4868 53.8069 78.7286C53.4752 79.0501 53.0333 79.4645 52.7271 79.7747C52.7138 79.786 52.7271 79.8094 52.7271 79.8319C52.9843 80.2575 54.1386 81.6608 54.5927 82.018C54.8387 82.2129 54.9489 82.2354 55.4153 82.2589C55.4521 82.316 55.4153 82.5926 55.3541 82.6385C55.1214 82.6732 54.3345 82.6834 53.8804 82.6834C53.5619 82.6732 53.316 82.5467 53.1925 82.4313C52.8863 82.1558 52.2964 81.3271 51.8422 80.7178C51.7443 80.5912 51.634 80.4534 51.4861 80.4198C51.4861 81.0056 51.4861 81.2924 51.4983 81.7067C51.5106 82.0517 51.584 82.1211 51.8178 82.1782C51.9535 82.2129 52.076 82.2354 52.2474 82.2589C52.2842 82.3282 52.2474 82.5926 52.1862 82.6385C51.9045 82.6385 51.4861 82.6038 50.787 82.6038C50.1113 82.6038 49.7307 82.6385 49.4245 82.6385C49.3622 82.5926 49.3622 82.3048 49.4245 82.2589C49.6082 82.2354 49.7307 82.2241 49.8531 82.1782C50.0379 82.1211 50.0746 82.018 50.1001 81.7526C50.1236 81.4312 50.1236 80.3381 50.1236 79.8094C50.1236 76.9467 50.1236 76.2792 50.1001 76.0384C50.0868 75.8761 50.0379 75.7618 49.8786 75.7046C49.7541 75.6699 49.5704 75.6352 49.3755 75.6118C49.3255 75.5434 49.3377 75.3015 49.3755 75.2678C50.1236 75.2321 51.1554 75.0606 51.5595 74.9106C51.584 74.9229 51.6463 75.0606 51.6463 75.0953C51.5473 75.2443 51.5238 75.475 51.4983 76.2568C51.4861 77.0151 51.4738 77.9234 51.4861 80.1197C51.6463 80.0972 51.8422 80.0054 52.0392 79.8554C52.4811 79.5104 53.0578 78.8542 53.0823 78.6705C53.0823 78.5786 53.0455 78.5215 52.8986 78.4868C52.7383 78.4408 52.4077 78.4072 52.3209 78.3949C52.2842 78.3265 52.3209 78.0612 52.3709 78.0275Z" fill="#711A5F"/>
<path fill-rule="evenodd" clip-rule="evenodd" d="M58.7895 80.3269C58.4343 80.4534 57.7709 80.6371 57.6117 80.7525C57.575 80.7872 57.5005 81.0168 57.5005 81.1321C57.5005 81.6608 57.9057 81.9476 58.3241 81.9476C58.4588 81.9476 58.6058 81.9139 58.716 81.8445C58.7772 81.8108 58.815 81.7302 58.815 81.6149C58.8395 81.2924 58.8395 80.58 58.8395 80.3851C58.8395 80.3728 58.8028 80.3269 58.7895 80.3269ZM58.668 79.0042C58.4711 78.7399 58.1271 78.6245 57.7954 78.6245C57.526 78.6245 57.3045 78.6939 57.231 78.7623C57.1198 78.8542 56.8871 79.292 56.7881 79.4982C56.7401 79.5451 56.3584 79.3726 56.3717 79.292C56.3829 79.1767 56.5554 78.6245 56.6422 78.5674C57.231 78.1643 58.1026 77.8662 58.4588 77.8662C59.0844 77.8662 59.5641 78.1418 59.8335 78.5337C60.0785 78.8664 60.1407 79.292 60.1407 79.6941C60.1407 80.2463 60.103 81.0403 60.103 81.5006C60.103 81.7302 60.1897 81.9476 60.4847 81.9476C60.6439 81.9476 60.7419 81.9374 60.9021 81.8904C60.9143 81.9374 60.8776 82.2813 60.8398 82.316C60.5337 82.6038 59.9938 82.7416 59.6131 82.7416C59.2192 82.7416 58.9865 82.6038 58.9007 82.4079L58.8272 82.1905C58.8272 82.167 58.7895 82.167 58.7772 82.167C58.1761 82.5467 57.6117 82.7416 57.378 82.7416C57.1198 82.7416 56.8626 82.6385 56.6667 82.466C56.3717 82.2007 56.1992 81.7986 56.1992 81.3618C56.1992 81.2005 56.3339 80.7984 56.4074 80.6831C56.7881 80.4881 58.2874 80.1544 58.7415 79.9595C58.7895 79.936 58.8272 79.8788 58.8395 79.8319C58.8517 79.7513 58.8517 79.7064 58.8517 79.6257C58.8517 79.4186 58.8028 79.1879 58.668 79.0042Z" fill="#711A5F"/>
<path fill-rule="evenodd" clip-rule="evenodd" d="M63.675 76.9804C63.576 77.0498 63.0116 77.1069 62.8769 77.0385C62.681 76.9579 62.5575 76.7742 62.4972 76.5436C62.4717 76.4282 62.484 76.1527 62.5707 76.0496C62.7167 75.923 63.0861 75.8077 63.3811 75.8077C63.6383 75.8077 63.822 75.8873 63.872 75.9455C63.9577 76.0384 63.9822 76.2445 63.9822 76.3364C63.9822 76.566 63.8587 76.8426 63.675 76.9804ZM64.6691 82.6385C64.4241 82.6385 63.9944 82.6038 63.2698 82.6038C62.6442 82.6038 62.1778 82.6385 61.9073 82.6385C61.8706 82.5926 61.8594 82.3048 61.9073 82.2589C62.1043 82.2354 62.2513 82.2129 62.387 82.167C62.5462 82.1088 62.583 82.0057 62.5952 81.7302C62.6064 81.4648 62.6197 80.73 62.6197 80.1544C62.6197 79.7513 62.6064 79.3032 62.6064 79.096C62.6064 79.0042 62.583 78.8899 62.5085 78.8195C62.4115 78.7174 62.288 78.6592 61.9931 78.5562C61.9563 78.498 61.9808 78.2683 62.0298 78.2224C62.337 78.2224 63.4301 78.0612 64.0067 77.8428C64.0067 78.3265 63.9944 79.1542 63.9944 79.8207C63.9944 80.4198 63.9944 81.1893 64.0067 81.7179C64.0067 82.018 64.0812 82.1088 64.2404 82.167C64.3506 82.2007 64.4731 82.2241 64.7191 82.2589C64.7558 82.316 64.7313 82.5926 64.6691 82.6385Z" fill="#711A5F"/>
<path fill-rule="evenodd" clip-rule="evenodd" d="M68.584 75.5893C68.9647 75.5893 69.6771 75.624 70.3639 75.624C71.0886 75.624 71.703 75.5893 72.1326 75.5893C72.1816 75.6352 72.1816 75.8996 72.1326 75.9577C71.9122 75.9914 71.7152 76.0261 71.5682 76.0608C71.2733 76.119 71.1753 76.3017 71.1631 76.6701C71.1386 77.5897 71.1631 78.8093 71.1631 79.4186C71.1753 79.8666 71.2121 80.4197 71.31 80.7759C71.4815 81.523 72.1204 82.0517 73.3114 82.0517C74.1952 82.0517 75.128 81.7761 75.2515 80.1319C75.3128 79.2685 75.325 77.6244 75.276 76.8201C75.2515 76.3364 75.1413 76.1414 74.7351 76.072C74.5637 76.0261 74.3187 75.9914 74.0472 75.9577C74.0115 75.8996 74.0115 75.6577 74.0595 75.5893C74.4402 75.5893 74.9566 75.624 75.571 75.624C76.3681 75.624 76.7365 75.5893 76.9947 75.5893C77.0437 75.6352 77.0559 75.9108 76.9947 75.9577C76.81 75.9914 76.6263 76.0149 76.4793 76.0608C76.1588 76.1414 76.0609 76.3251 76.0374 76.8885C76.0006 77.9234 75.9762 79.2685 75.8894 80.0513C75.7057 82.1323 74.4289 82.811 72.7338 82.811C70.6099 82.811 69.8363 81.8567 69.6893 80.6953C69.5791 79.8901 69.6036 77.7509 69.5914 76.6466C69.5791 76.3486 69.4924 76.1527 69.2107 76.072C69.0627 76.0261 68.7933 75.9802 68.5728 75.9577C68.5351 75.8996 68.5351 75.6352 68.584 75.5893Z" fill="#711A5F"/>
<path fill-rule="evenodd" clip-rule="evenodd" d="M78.3185 82.1905C78.4899 82.1435 78.5511 81.9833 78.5756 81.7526C78.5889 81.4077 78.6001 80.5218 78.6001 79.9472C78.6001 79.6135 78.5889 79.1879 78.5756 79.0389C78.5511 78.9246 78.4532 78.7746 77.9745 78.6133C77.9623 78.5439 77.999 78.349 78.0357 78.3031C78.7114 78.2337 79.534 78.004 79.9146 77.8203C79.9391 77.8315 79.9636 77.8785 79.9636 77.9009C79.9636 78.0275 79.9514 78.349 79.9514 78.5439C79.9514 78.5786 80.0004 78.5898 80.0126 78.5786C80.6148 78.1306 81.2026 77.8662 81.6211 77.8662C82.1865 77.8662 82.5784 78.0846 82.8611 78.4755C83.107 78.8317 83.1805 79.292 83.1805 79.8319C83.1805 80.5106 83.1805 81.5118 83.1928 81.8904C83.1928 81.971 83.2418 82.0517 83.303 82.0864C83.4744 82.1905 83.6469 82.2241 83.9051 82.2589C83.9286 82.3272 83.9051 82.5814 83.8429 82.6385C83.6592 82.6385 83.2907 82.6038 82.5049 82.6038C81.866 82.6038 81.5721 82.6273 81.1914 82.6385C81.1669 82.5814 81.1547 82.3048 81.1914 82.2589C81.3629 82.2354 81.4976 82.2129 81.5843 82.1905C81.7313 82.1323 81.7813 82.0292 81.7925 81.8108C81.8048 81.3505 81.8293 79.9125 81.7435 79.4533C81.7068 79.2461 81.5956 79.0154 81.3874 78.8787C81.2281 78.7511 81.0322 78.7052 80.7862 78.7052C80.577 78.7052 80.2831 78.7858 80.0739 78.9246C80.0004 78.9705 79.9636 79.0736 79.9636 79.1767C79.9759 79.9472 79.9759 81.178 79.9881 81.7873C80.0004 82.0751 80.0739 82.1435 80.2453 82.1905C80.3688 82.2241 80.4423 82.2354 80.6515 82.2589C80.676 82.316 80.6627 82.5814 80.6148 82.6385C80.2331 82.6273 79.8279 82.6038 79.239 82.6038C78.4899 82.6038 78.146 82.6273 77.9133 82.6385C77.8755 82.5691 77.8755 82.316 77.9133 82.2589C78.0602 82.2476 78.1705 82.2241 78.3185 82.1905Z" fill="#711A5F"/>
<path fill-rule="evenodd" clip-rule="evenodd" d="M86.7028 76.9804C86.6038 77.0498 86.0394 77.1069 85.9047 77.0385C85.7077 76.9579 85.5852 76.7742 85.524 76.5436C85.4985 76.4282 85.5117 76.1527 85.5975 76.0496C85.7444 75.923 86.1129 75.8077 86.4078 75.8077C86.665 75.8077 86.8507 75.8873 86.8987 75.9455C86.9844 76.0384 87.0089 76.2445 87.0089 76.3364C87.0089 76.566 86.8865 76.8426 86.7028 76.9804ZM87.6978 82.6385C87.4508 82.6385 87.0222 82.6038 86.2976 82.6038C85.6709 82.6038 85.2045 82.6385 84.9341 82.6385C84.8984 82.5926 84.8851 82.3048 84.9341 82.2589C85.1311 82.2354 85.279 82.2129 85.4127 82.167C85.573 82.1088 85.6097 82.0057 85.622 81.7302C85.6352 81.4648 85.6464 80.73 85.6464 80.1544C85.6464 79.7513 85.6352 79.3032 85.6352 79.096C85.6352 79.0042 85.6097 78.8899 85.5362 78.8195C85.4382 78.7174 85.3148 78.6592 85.0208 78.5562C84.9831 78.498 85.0076 78.2683 85.0576 78.2224C85.3637 78.2224 86.4568 78.0612 87.0334 77.8428C87.0334 78.3265 87.0222 79.1542 87.0222 79.8207C87.0222 80.4198 87.0222 81.1893 87.0334 81.7179C87.0334 82.018 87.1069 82.1088 87.2682 82.167C87.3774 82.2007 87.5008 82.2241 87.7458 82.2589C87.7825 82.316 87.758 82.5926 87.6978 82.6385Z" fill="#711A5F"/>
<path fill-rule="evenodd" clip-rule="evenodd" d="M88.4939 77.9928C88.8501 78.004 89.4022 78.0275 89.9054 78.0275C90.5075 78.0275 90.9249 78.004 91.1944 77.9928C91.2566 78.0387 91.2679 78.3031 91.2199 78.3602C91.0596 78.3949 90.8647 78.4296 90.778 78.4643C90.7035 78.4868 90.6912 78.5674 90.7035 78.6133C90.8514 79.0624 91.4893 80.6147 91.6985 81.0862C91.7108 81.1086 91.7343 81.0974 91.7475 81.0862C91.9802 80.5463 92.4589 79.4298 92.6191 78.9246C92.7293 78.6133 92.6436 78.5215 92.5079 78.4755C92.3242 78.4184 92.166 78.3837 91.9557 78.3602C91.92 78.2918 91.9557 78.0275 92.0057 77.9928C92.1772 77.9928 92.6558 78.0275 93.11 78.0275C93.5029 78.0275 93.9571 78.004 94.1908 77.9928C94.2398 78.0275 94.2276 78.3031 94.1776 78.3602C94.0061 78.3949 93.8836 78.4071 93.7489 78.4521C93.5519 78.5215 93.4172 78.6827 93.257 79.0042C92.9386 79.6247 92.4966 80.58 92.0792 81.5567C91.8822 82.0404 91.7598 82.3619 91.6618 82.6385C91.4771 82.6273 91.0596 82.615 90.8749 82.6497C90.778 82.3507 90.6432 82.018 90.4953 81.6496C90.1881 80.8668 89.7962 79.9707 89.5624 79.4298C89.2052 78.6368 89.145 78.5439 88.8623 78.4521C88.7154 78.4071 88.5684 78.3837 88.4327 78.3602C88.4204 78.2918 88.4449 78.0275 88.4939 77.9928Z" fill="#711A5F"/>
<path fill-rule="evenodd" clip-rule="evenodd" d="M96.4227 79.6482C96.4227 79.6594 96.4472 79.7176 96.4961 79.7176C96.8156 79.7298 97.8352 79.7176 98.0556 79.6717C98.1056 79.6604 98.1291 79.6135 98.1423 79.5686C98.0801 78.8899 97.7729 78.3143 97.2463 78.3143C96.7666 78.3143 96.4349 78.8664 96.4227 79.6482ZM99.5906 81.3965C99.6028 81.5006 99.5538 81.7179 99.5405 81.7526C99.0017 82.3619 98.1056 82.7416 97.38 82.7416C96.6809 82.7416 96.1532 82.5344 95.7848 82.1905C95.2684 81.7179 95.0602 81.0056 95.0602 80.3157C95.0602 79.3604 95.5388 78.6368 96.1889 78.2459C96.5941 78.0152 97.1595 77.8662 97.6137 77.8662C98.9282 77.8662 99.3813 78.8787 99.4803 79.5216C99.4926 79.5798 99.5906 79.637 99.6763 79.6604C99.6885 79.7064 99.6273 79.936 99.5906 79.9595C99.1731 80.086 97.4177 80.1891 96.4961 80.2238C96.4604 80.2238 96.4349 80.2922 96.4349 80.3381C96.4604 80.6718 96.6186 81.0739 96.9136 81.3505C97.2208 81.6496 97.6137 81.7873 98.1291 81.7873C98.6455 81.7873 99.0752 81.6608 99.5405 81.3271C99.5538 81.3393 99.5906 81.3618 99.5906 81.3965Z" fill="#711A5F"/>
<path fill-rule="evenodd" clip-rule="evenodd" d="M105.004 78.1765C105.016 78.2112 105.016 78.349 105.004 78.4072C104.968 78.5674 104.684 79.142 104.513 79.3492C104.488 79.3726 104.39 79.3951 104.365 79.3839C104.108 79.142 103.776 78.9358 103.444 78.9358C103.286 78.9358 103.114 79.0389 102.99 79.1767C102.953 79.2226 102.917 79.3267 102.917 79.4186C102.904 80.0738 102.917 81.523 102.929 81.6955C102.953 81.9945 102.99 82.0976 103.236 82.1558C103.444 82.2129 103.653 82.2354 103.911 82.2589C103.936 82.316 103.911 82.5814 103.85 82.6385C103.628 82.6385 102.966 82.6038 102.192 82.6038C101.677 82.6038 101.123 82.6385 100.841 82.6385C100.805 82.5814 100.793 82.3048 100.841 82.2589C101.001 82.2476 101.173 82.2241 101.32 82.167C101.431 82.1323 101.504 82.0404 101.516 81.8108C101.542 81.6026 101.554 80.7412 101.554 79.9931C101.554 79.59 101.554 79.2461 101.53 79.0736C101.516 78.9246 101.443 78.7746 100.891 78.5898C100.891 78.5337 100.914 78.3265 100.952 78.2918C101.418 78.2571 102.401 78.0499 102.831 77.8203C102.868 77.8203 102.904 77.855 102.917 77.8785C102.904 78.0275 102.868 78.5786 102.868 78.7623C102.868 78.798 102.917 78.798 102.941 78.7858C103.187 78.5215 103.407 78.3031 103.665 78.1081C103.837 77.9816 104.095 77.8662 104.34 77.8662C104.635 77.8662 104.893 77.9816 105.004 78.1765Z" fill="#711A5F"/>
<path fill-rule="evenodd" clip-rule="evenodd" d="M109.398 79.3145C109.349 79.3492 109.067 79.3726 109.018 79.3379C108.92 78.8542 108.796 78.5562 108.515 78.3949C108.367 78.3143 108.183 78.2571 107.975 78.2571C107.593 78.2571 107.311 78.4868 107.311 78.8093C107.311 79.142 107.457 79.3379 108.49 79.786C109.472 80.2003 109.767 80.5912 109.767 81.2005C109.767 82.1558 108.796 82.7304 107.655 82.7304C107.077 82.7304 106.55 82.6273 106.194 82.512C106.132 82.2589 106.022 81.3505 106.009 81.1321C106.047 81.0862 106.33 81.0056 106.403 81.0168C106.6 81.6271 106.832 81.9598 107.176 82.1558C107.373 82.2701 107.631 82.316 107.827 82.316C108.256 82.316 108.526 82.0976 108.526 81.7873C108.526 81.4424 108.305 81.2464 107.68 80.9596C106.501 80.431 106.145 80.0054 106.145 79.3379C106.145 78.5439 106.807 77.8662 108.134 77.8662C108.354 77.8662 108.747 77.9009 108.981 77.9346L109.545 78.004C109.46 78.3837 109.435 78.8317 109.398 79.3145Z" fill="#711A5F"/>
<path fill-rule="evenodd" clip-rule="evenodd" d="M112.772 76.9804C112.674 77.0498 112.109 77.1069 111.974 77.0385C111.778 76.9579 111.656 76.7742 111.595 76.5436C111.569 76.4282 111.582 76.1527 111.667 76.0496C111.815 75.923 112.182 75.8077 112.477 75.8077C112.736 75.8077 112.92 75.8873 112.968 75.9455C113.056 76.0384 113.081 76.2445 113.081 76.3364C113.081 76.566 112.957 76.8426 112.772 76.9804ZM113.767 82.6385C113.521 82.6385 113.092 82.6038 112.367 82.6038C111.742 82.6038 111.274 82.6385 111.005 82.6385C110.968 82.5926 110.956 82.3048 111.005 82.2589C111.201 82.2354 111.349 82.2129 111.484 82.167C111.643 82.1088 111.679 82.0057 111.692 81.7302C111.705 81.4648 111.716 80.73 111.716 80.1544C111.716 79.7513 111.705 79.3032 111.705 79.096C111.705 79.0042 111.679 78.8899 111.606 78.8195C111.508 78.7174 111.385 78.6592 111.09 78.5562C111.054 78.498 111.078 78.2683 111.128 78.2224C111.434 78.2224 112.527 78.0612 113.104 77.8428C113.104 78.3265 113.092 79.1542 113.092 79.8207C113.092 80.4198 113.092 81.1893 113.104 81.7179C113.104 82.018 113.178 82.1088 113.338 82.167C113.448 82.2007 113.57 82.2241 113.816 82.2589C113.853 82.316 113.829 82.5926 113.767 82.6385Z" fill="#711A5F"/>
<path fill-rule="evenodd" clip-rule="evenodd" d="M116.897 78.6705C116.872 78.6705 116.848 78.7174 116.848 78.7399C116.835 79.2114 116.835 80.086 116.835 80.6371C116.835 81.074 116.848 81.2822 116.897 81.4883C116.959 81.7526 117.216 81.9374 117.559 81.9374C117.843 81.9374 118.026 81.9027 118.248 81.7639C118.285 81.8108 118.26 82.0752 118.236 82.1558C117.904 82.5579 117.339 82.7416 116.848 82.7416C116.308 82.7416 115.866 82.5579 115.644 82.1782C115.461 81.8792 115.461 81.5689 115.461 80.8903C115.461 80.2922 115.473 79.2573 115.473 78.7746C115.473 78.7399 115.448 78.6827 115.398 78.6705C115.227 78.6592 114.97 78.648 114.785 78.6245C114.785 78.5439 114.846 78.2684 114.895 78.1765C115.056 78.154 115.325 78.0959 115.412 78.0612C115.436 78.0612 115.461 78.0153 115.473 77.9693V76.9926C115.805 76.8885 116.467 76.5558 116.639 76.4058C116.688 76.3946 116.848 76.3823 116.897 76.3946C116.872 76.6242 116.848 77.1763 116.848 77.9469C116.848 77.9816 116.872 78.0275 116.897 78.0275C117.265 78.0275 118.014 77.9928 118.297 77.9693C118.248 78.1541 118.187 78.498 118.173 78.6827C117.831 78.6705 117.327 78.6705 116.897 78.6705Z" fill="#711A5F"/>
<path fill-rule="evenodd" clip-rule="evenodd" d="M118.971 77.9928C119.143 77.9928 119.707 78.0275 120.42 78.0275C121.083 78.0275 121.487 77.9928 121.782 77.9928C121.832 78.0499 121.832 78.2918 121.808 78.3602C121.648 78.3949 121.487 78.4296 121.414 78.4643C121.316 78.5102 121.305 78.6245 121.316 78.6705C121.513 79.2226 122.176 80.7984 122.311 81.0627H122.36C122.716 80.3269 123.146 79.2226 123.207 78.844C123.22 78.6939 123.22 78.5439 122.986 78.4755C122.863 78.4296 122.692 78.3949 122.447 78.3602C122.432 78.2571 122.458 78.0275 122.495 77.9928C122.728 77.9928 123.146 78.0275 123.6 78.0275C124.017 78.0275 124.41 78.004 124.766 77.9928C124.803 78.0499 124.815 78.2806 124.779 78.3602C124.583 78.3949 124.459 78.4184 124.337 78.4755C124.116 78.5562 123.969 78.7174 123.821 79.1083C123.048 81.0168 122.017 82.9947 121.059 84.6052C120.911 84.8573 120.727 85.1563 120.641 85.3176L120.505 85.3522C120.334 85.341 119.855 85.1675 119.733 85.0073C119.721 84.9614 119.721 84.8226 119.745 84.7889C120.161 84.3286 121.059 83.3172 121.487 82.5007C121.451 82.4538 121.403 82.3619 121.34 82.2354C121.059 81.5924 120.58 80.4759 120.15 79.5339C119.794 78.7511 119.683 78.5562 119.34 78.4521C119.216 78.4184 119.069 78.3949 118.909 78.3602C118.898 78.2683 118.922 78.0387 118.971 77.9928Z" fill="#711A5F"/>
</g>
<defs>
<filter id="filter0_d_185_18" x="0" y="0" width="154" height="157" filterUnits="userSpaceOnUse" color-interpolation-filters="sRGB">
<feFlood flood-opacity="0" result="BackgroundImageFix"/>
<feColorMatrix in="SourceAlpha" type="matrix" values="0 0 0 0 0 0 0 0 0 0 0 0 0 0 0 0 0 0 127 0" result="hardAlpha"/>
<feOffset dy="16"/>
<feGaussianBlur stdDeviation="6.5"/>
<feColorMatrix type="matrix" values="0 0 0 0 0 0 0 0 0 0 0 0 0 0 0 0 0 0 0.03 0"/>
<feBlend mode="normal" in2="BackgroundImageFix" result="effect1_dropShadow_185_18"/>
<feBlend mode="normal" in="SourceGraphic" in2="effect1_dropShadow_185_18" result="shape"/>
</filter>
</defs>
</svg>
