<svg width="154" height="157" viewBox="0 0 154 157" fill="none" xmlns="http://www.w3.org/2000/svg">
<g filter="url(#filter0_d_269_517)">
<rect width="128" height="128" transform="translate(13)" fill="white"/>
<path fill-rule="evenodd" clip-rule="evenodd" d="M118.417 60.5856C118.751 60.2151 118.985 59.6539 119.406 59.3379C120.159 58.7688 120.783 57.9373 121.641 57.5739C121.921 57.3303 122.628 56.956 123.101 57.1175C123.36 57.2058 123.325 57.2862 123.198 57.4833C122.834 58.0484 122.334 58.5205 121.876 58.9966C121.59 59.2937 121.899 59.1195 122.085 59.0265C122.859 58.638 123.681 58.0791 124.596 57.8064C124.811 57.6362 124.984 57.4218 125.103 57.1483C125.151 56.6825 124.862 56.1433 124.655 56.1536C123.957 56.0905 123.495 56.3254 122.93 56.5177C121.838 56.8905 120.621 57.3792 119.8 58.0098C119.609 58.1572 119.489 58.411 119.223 58.3676C119.026 57.8868 119.308 57.5731 119.451 57.3154C119.54 57.1554 119.59 56.9575 119.67 56.8362C120.157 56.0945 120.967 55.5073 121.916 55.341C122.098 55.2866 122.184 55.1376 122.111 55.0312C121.876 54.459 120.931 54.0814 120.169 54.2919C120.006 54.3368 119.817 54.4921 119.891 54.7735C120.058 55.0367 120.517 54.9421 120.673 55.2172C120.525 55.683 120.127 55.9408 119.827 56.2907C119.545 56.6218 119.252 57.0159 118.983 57.3989C118.777 57.6921 118.453 58.113 118.282 58.4007C117.929 58.9911 117.541 59.5649 117.586 60.4122C117.802 60.8039 118.104 60.9332 118.417 60.5856Z" fill="#A82126"/>
<path fill-rule="evenodd" clip-rule="evenodd" d="M66.4827 62.4004C66.221 62.7346 66.0004 63.1074 65.678 63.3856C65.6867 63.6583 65.4313 63.8199 65.4778 64.0382C65.9901 63.6678 66.2943 63.1019 66.6884 62.6447C66.8311 62.4792 66.9257 62.357 67.0652 62.2088C67.2339 62.0299 67.5137 61.8281 67.6902 61.68C68.1151 61.3237 68.6518 60.917 69.1681 60.6995C69.4179 60.5946 70.1037 60.4149 70.1888 60.1808C69.3494 59.5818 68.0158 60.0602 67.0786 60.3558C66.9399 60.3992 66.8374 60.4874 66.6916 60.5111C66.2888 60.5741 66.1217 60.7073 65.8033 60.7972C65.3123 60.9351 64.7826 61.0029 64.3885 61.2441C64.6289 61.3568 65.0537 61.5736 65.3288 61.6011C65.957 61.6634 66.7507 61.3615 67.3174 61.4695C67.144 61.8762 66.8004 62.1261 66.4827 62.4004Z" fill="#A82126"/>
<path fill-rule="evenodd" clip-rule="evenodd" d="M85.3865 61.8385C85.1374 61.8724 84.9081 61.5122 84.7331 61.3537C84.4958 61.1386 84.2964 61.0558 84.1774 60.8012C84.6086 60.1904 85.3983 59.611 86.3339 59.7632C86.3402 60.0516 86.233 60.359 86.1053 60.6625C85.9981 60.9163 85.6947 61.7975 85.3865 61.8385ZM81.6623 61.8731C81.3045 62.0032 80.6684 62.1262 80.2901 62.0119C80.1506 61.3459 80.03 60.445 79.963 59.5559C79.9527 59.4179 79.8889 59.2737 79.8975 59.1752C79.9622 58.4745 80.6786 59.0081 80.7141 59.4865C80.7338 59.7482 80.5904 59.8136 80.5502 60.0737C81.001 59.8002 81.3013 59.1027 81.8255 59.2099C81.6489 60.0863 81.6394 61.2221 81.6623 61.8731ZM92.0191 64.3977C91.7488 64.4395 91.5281 64.4521 91.3271 64.4616C90.6902 64.4923 90.4025 64.4332 89.7728 64.3386C89.3385 64.274 88.9073 64.2149 88.4904 64.1557C88.153 64.1085 87.5469 63.8326 87.0858 63.6718C86.8746 63.5977 86.7028 63.3549 86.4316 63.1871C86.1597 63.0192 85.8909 62.9041 85.9745 62.5999C86.0304 62.3973 86.7178 62.1979 86.955 62.0804C87.6399 61.7423 88.2366 61.5713 88.8498 61.3198C89.1115 61.2119 89.3503 61.1346 89.5734 61.0471C89.7042 60.9959 89.9824 60.9439 89.943 60.776C89.7483 59.9437 88.7205 60.456 87.9678 60.3165C87.2056 60.1754 86.8896 59.3557 86.8573 58.5872C87.275 58.1647 87.7952 57.7154 88.4336 57.5815C88.6977 57.5271 88.7064 57.5704 88.7465 57.8644C88.8451 58.5722 88.2185 59.2217 88.0001 59.8317C88.1791 59.8696 88.3832 59.8136 88.555 59.7632C88.8632 59.6733 89.102 59.4983 89.3724 59.3478C89.4165 59.3178 89.5529 59.332 89.7247 59.224C89.9399 59.0901 90.1401 58.9206 90.2741 58.7243C90.4341 58.4902 90.5074 58.4753 90.65 58.2916C90.8944 57.9779 90.9945 57.4766 90.8755 57.1692C90.691 56.6924 90.0739 56.4275 89.5032 56.4425C88.1215 56.478 87.29 57.077 86.4647 57.7225C85.9067 58.1592 85.4291 58.7204 84.9136 59.1618C84.6172 59.4148 84.5203 59.5212 84.2594 59.7971C84.0765 59.9902 83.874 60.162 83.6872 60.3512C83.4097 60.6333 83.1756 61.0487 82.7398 61.1464C82.7327 61.1196 82.7122 61.107 82.6751 61.1118C82.601 60.7523 82.6633 60.3504 82.6452 59.9988C82.6349 59.7915 82.5908 59.7923 82.657 59.5874C82.7981 59.1492 82.8375 58.8197 82.8383 58.4169C82.8391 58.2144 82.8927 58.0812 82.9392 57.8849C83.1685 56.9146 83.2694 55.9862 84.0143 55.3359C84.0765 55.2815 84.1814 55.2831 84.2428 55.2319C84.3217 55.1664 84.3445 55.0892 84.4391 55.0246C84.3981 54.8953 84.2562 54.8724 84.2105 54.7479C83.6667 54.606 83.2694 54.5138 82.8706 54.7479C82.668 54.8669 82.5317 55.1152 82.348 55.2319C81.7096 55.637 81.0325 55.9058 80.257 56.1659C80.238 56.2904 80.2948 56.333 80.3224 56.4078C80.9521 56.5166 81.7821 56.076 82.2826 56.2699C82.1029 57.0502 82.0138 57.5491 81.9232 58.5178C81.6789 58.7827 81.4526 58.4753 81.1066 58.4493C80.599 58.4106 80.1655 58.7188 79.8644 58.6219C79.6832 58.2829 79.7068 58.1103 79.6367 57.6185C79.3876 57.2015 79.4349 56.4709 78.9501 56.3046C78.9643 56.9178 79.3718 57.5184 79.2441 58.2065C79.4459 58.3405 79.3545 58.543 79.375 58.7259C79.397 58.9253 79.5105 59.1373 79.5381 59.3833C79.6406 60.2983 79.6209 61.1788 79.5704 61.8731C79.5389 62.3043 79.5775 62.8308 79.505 63.2225C79.4301 63.6308 79.2552 63.7845 79.1133 64.0872C78.9501 64.4348 78.8824 64.6957 78.6561 64.8478C78.3109 65.0803 77.8412 65.0228 77.4471 65.193C77.2185 65.4925 77.7174 66.2917 78.0351 66.3698C78.4812 66.4785 78.6002 66.2074 78.8193 65.9891C79.1992 65.6107 79.3182 65.42 79.5381 64.951C79.5854 64.8509 79.6966 64.7926 79.7344 64.7091C79.9472 64.2385 79.9716 63.7183 80.1592 63.3266C80.6857 63.2107 81.2887 63.5654 81.9232 63.6371C81.8767 64.2109 82.0895 64.3788 82.0209 64.9865C81.7522 65.204 81.4723 65.2167 81.0412 65.1591C80.99 65.3365 81.1295 65.4184 81.2335 65.5367C81.336 65.6541 81.6749 66.1404 81.7663 66.2807C82.0304 66.6827 82.3748 66.7836 82.5443 67.4425C82.5175 67.6198 82.5703 67.7136 82.642 67.7877C82.8824 67.7483 83.1268 67.6356 83.3041 67.4496C83.5106 67.2321 83.4673 67.1312 83.4208 66.8466C83.3427 66.3729 83.1701 65.8243 83.0992 65.4358C83.0322 65.0661 82.9494 64.6641 82.9037 64.2945C82.8438 63.8129 82.8485 63.31 82.7729 62.8418C82.7453 62.6732 82.6373 62.5431 82.6751 62.3571C82.7098 62.1829 83.0976 61.7935 83.3277 61.7344C83.7218 61.6343 83.7297 61.8842 83.9165 62.1498C84.0844 62.3894 84.3019 62.5565 84.4604 62.7315C84.6803 62.9758 84.7378 63.1303 85.0365 63.4361C85.3581 63.7624 85.6316 64.1518 86.0076 64.3977C86.5759 64.7705 87.394 65.0425 88.2287 65.2277C88.4478 65.2766 89.8477 65.3908 90.1172 65.3703C90.6461 65.327 91.8118 64.9179 92.0191 64.3977Z" fill="#A82126"/>
<path fill-rule="evenodd" clip-rule="evenodd" d="M98.7073 59.5611C98.7278 59.457 98.708 59.4736 98.8223 59.3632C99.0706 59.1252 99.2913 58.7634 99.5837 58.6744C99.6397 58.657 99.6405 58.6767 99.6696 58.6247C99.6886 58.5932 99.7067 58.5617 99.7272 58.5317C99.769 58.4663 99.7619 58.4655 99.832 58.4434C100.032 58.378 100.195 58.2503 100.429 58.2842C100.508 58.296 100.535 58.3134 100.548 58.3599C100.602 58.5585 100.681 58.7224 100.589 58.8958C100.543 58.9825 100.543 58.955 100.455 58.9715C100.141 59.029 99.8194 59.316 99.5483 59.4105C99.3843 59.4665 99.4592 59.4137 99.3157 59.5272C99.1857 59.6312 99.021 59.6959 98.9051 59.8172C98.8578 59.8677 98.831 59.8724 98.7892 59.859C98.6481 59.8157 98.682 59.6864 98.7073 59.5611ZM100.324 55.3222C100.497 55.1819 100.746 55.0976 100.999 55.1251C101.129 55.1393 101.133 55.1338 101.245 55.0692C101.629 54.8477 102.145 55.163 102.55 55.2788C102.606 55.2954 102.627 55.3687 102.614 55.427C102.495 55.9378 101.743 55.6824 101.423 55.8716C101.354 55.9118 101.311 56.1198 101.196 56.1388C100.682 56.2901 100.474 55.8771 100.298 55.4948C100.254 55.3994 100.246 55.386 100.324 55.3222ZM102.913 56.1569C102.923 56.4958 102.718 56.5864 102.584 56.7567C102.42 56.9632 102.498 56.949 102.323 57.027C102.146 57.1051 102.022 57.2485 101.997 57.5055C101.984 57.6387 101.975 57.6505 101.9 57.6907C101.529 57.8901 101.064 57.9153 100.832 57.5607C100.735 57.4117 100.74 57.3849 100.817 57.2336C100.933 57.0066 101.118 56.8095 101.234 56.5518C101.304 56.3981 101.279 56.3965 101.508 56.3011C101.951 56.1159 102.499 55.8944 102.913 56.1569ZM98.3707 60.5786C98.5354 60.4691 98.5299 60.4029 98.6466 60.3209C98.8042 60.2098 99.0336 60.1908 99.2196 60.0726C99.4277 59.9402 99.5262 59.9386 99.7563 59.8535C100.284 59.6596 100.805 59.3751 101.315 59.327C101.873 59.2742 101.572 59.3089 102.137 59.1496C102.433 59.0677 102.763 59.0464 103.042 59.0377C103.78 58.7839 104.631 58.8769 105.58 58.7729C105.739 58.7603 105.795 58.9014 105.795 59.033C105.474 59.5674 104.826 59.8953 104.288 60.1719C104.217 60.2082 104.142 60.1703 104.069 60.1995C103.84 60.2894 103.658 60.5282 103.435 60.6007C103.34 60.6307 103.265 60.5968 103.362 60.6716C103.771 60.9869 104.716 60.711 105.151 60.5755C106.003 60.3099 107.171 59.8984 107.69 59.249C107.894 58.9936 107.908 58.7437 108.026 58.4718C107.991 58.3465 107.928 58.3023 107.86 58.2692C107.783 58.2306 107.738 58.1904 107.656 58.1778C106.956 58.0675 106.34 58.0895 105.534 58.0556C105.411 58.0501 105.359 58.0848 105.326 57.9705C105.241 57.6789 105.405 57.47 105.564 57.3005C105.965 56.8702 106.557 56.4848 106.782 55.8448C106.846 55.6611 106.816 55.7029 106.949 55.5768C107.216 55.3222 107.16 54.7681 107.059 54.3669C107.049 54.2905 106.881 54.0311 106.819 54.0516C106.017 53.7521 105.476 53.9949 104.724 54.158C104.659 54.1651 104.711 54.3094 104.625 54.292C104.552 54.1628 104.253 54.2763 104.216 54.3779C104.199 54.4252 104.236 54.4213 104.272 54.4268C104.653 54.4859 105.259 54.3488 105.683 54.4733C105.823 54.5143 105.832 54.5222 105.905 54.6404C106.015 54.817 106.103 55.0148 106.119 55.2891C106.126 55.4176 106.128 55.4254 106.067 55.5374C105.997 55.6658 105.921 55.7872 105.875 55.9433C105.843 56.0528 105.865 56.041 105.762 56.1104C105.628 56.1994 105.494 56.2412 105.374 56.3697C105.163 56.592 105.065 57.0657 104.727 57.1035C104.463 57.1319 104.342 56.9001 104.204 56.8134C103.989 56.6787 103.681 56.7039 103.586 56.5888C103.185 56.0978 103.626 55.4286 103.672 54.8146C103.678 54.7255 103.654 54.6972 103.748 54.6593C103.821 54.6294 103.917 54.6254 103.977 54.5781C104.04 54.5316 104.036 54.5088 103.964 54.4962C103.741 54.4583 103.466 54.657 103.178 54.6246C102.848 54.5876 102.509 54.2164 102.61 53.7852C102.77 53.1113 103.819 53.2997 103.871 52.4193C103.641 52.1781 103.477 52.4382 103.24 52.6053C102.911 52.8386 102.627 52.9434 102.412 53.1626C102.1 52.9899 102.347 52.5288 102.285 52.1994C102.244 51.985 102.104 51.9133 102.082 51.7139C101.867 51.6705 101.865 51.8132 101.738 51.7036C101.534 51.9093 101.404 52.279 101.332 52.7188C101.302 52.9001 101.181 53.0601 101.16 53.2264C101.114 53.5653 101.202 53.9271 101.034 54.2503C100.966 54.3811 100.742 54.6231 100.615 54.7161C100.258 54.9778 99.9282 54.7744 99.7839 54.3149C99.7256 54.1297 99.7792 53.868 99.7792 53.6181C99.7792 53.507 99.7879 53.5133 99.7209 53.4329C99.6026 53.2902 99.512 53.1294 99.363 53.0223C99.2889 52.9687 99.2732 52.9482 99.1967 52.9962C99.0076 53.116 99.1242 53.321 99.151 53.5409C99.1778 53.7561 99.1045 53.8767 99.1021 54.1218C99.0958 54.6956 99.315 55.8818 98.7924 56.0647C98.634 55.7139 98.6552 55.2142 98.455 54.8556C98.4251 54.8036 98.3281 54.8091 98.2714 54.7468C98.1398 54.6057 98.2091 54.5159 98.0602 54.5009C97.7914 54.4749 97.5455 55.1543 97.5329 55.375C97.5281 55.4759 97.6345 55.6422 97.6755 55.8251C97.7441 56.1309 97.7244 56.5155 97.7709 56.7866C97.7874 56.886 97.8726 56.9734 97.8868 57.0649C97.8923 57.0988 97.8198 57.1752 97.8205 57.1997C97.83 57.4109 97.9758 57.604 98.0215 57.7877C98.0688 57.9776 98.0743 58.2385 98.2044 58.3402C98.269 58.3914 98.2785 58.3796 98.3329 58.3402C98.4881 58.2275 98.6671 58.1415 98.7017 57.8878C98.7128 57.8105 98.7112 57.8003 98.7506 57.7679C98.9303 57.6221 99.1187 57.4897 99.3268 57.3746C99.4363 57.3132 99.4466 57.3352 99.5207 57.3605C99.698 57.4204 99.9195 57.3463 99.8974 57.708C99.8746 58.0887 99.3591 58.5317 98.995 58.6428C98.8034 58.7012 98.8665 58.6539 98.6844 58.7839C97.7354 59.457 96.2867 59.8519 95.6444 60.9333C95.5127 61.1548 95.4205 61.7302 95.4544 62.0234C95.5372 62.7335 96.3853 63.0441 96.8724 62.65C97.3807 62.2378 97.7638 60.9814 98.3707 60.5786Z" fill="#A82126"/>
<path fill-rule="evenodd" clip-rule="evenodd" d="M72.9987 59.7842C72.2791 59.4563 71.6107 59.1583 70.8612 58.404C70.3386 57.8783 69.7727 57.3991 69.1949 56.9333C68.7567 56.5967 68.3429 56.5573 68.2806 56.5187C68.2365 56.4919 68.2373 56.4162 68.1908 56.3815C68.1514 56.3524 67.8069 56.1853 67.5878 56.1159C67.6587 56.0127 67.777 55.777 67.8487 55.6477C67.9252 55.509 68.0111 55.282 68.0749 55.1331C68.3713 54.4371 68.6077 53.8341 68.3484 53.146C68.2696 52.841 67.4909 52.3074 67.0849 52.4083C67.0329 52.4217 67.0195 52.4926 66.9762 52.4966C66.9076 52.5029 66.8217 52.4304 66.7216 52.4501C66.6144 52.4706 66.6026 52.5423 66.5017 52.5707C66.7468 52.7535 67.0369 52.8899 67.1441 53.2209C67.297 54.1108 67.0771 54.5797 66.7555 55.2316C66.0721 56.6212 64.8898 58.2015 64.0134 59.517C63.6831 60.0703 62.1138 61.9887 62.0185 62.1046C61.6906 62.5074 60.7085 63.1616 60.5611 63.2435C60.45 63.3058 60.2797 63.2955 60.2324 63.4524C60.9292 63.4847 62.1603 63.0276 62.7002 62.5665C63.1976 62.1432 63.892 61.3684 63.9519 61.2983C64.7976 60.5385 66.6711 57.6206 67.4704 56.3138C67.5066 56.2617 67.5421 56.2066 67.6903 56.3146C68.1766 56.67 69.1342 57.6497 69.459 57.9619C69.7459 58.2401 69.7025 58.5609 70.1715 58.9747C70.2952 59.1788 71.0582 59.9915 71.2836 60.168C71.6399 60.4439 71.963 60.6756 72.324 60.9428C72.8096 61.3006 73.3463 61.4307 73.9706 61.4134C74.2606 61.4047 75.3002 60.9499 75.3483 60.715C75.1686 60.6788 74.9613 60.6307 74.7595 60.566C74.2622 60.4037 73.4819 60.0041 72.9987 59.7842Z" fill="#A82126"/>
<path fill-rule="evenodd" clip-rule="evenodd" d="M70.4979 66.8247C70.2962 66.7041 70.0558 66.5347 69.8122 66.5134C69.5986 66.4953 68.9389 66.7128 68.8569 66.4945C68.812 66.3754 69.0012 66.2154 69.0942 66.0925C69.4008 65.6803 69.6002 65.3413 69.7791 64.9141C70.1567 64.4223 70.6422 63.8942 70.4641 62.9783C70.3971 62.79 70.2591 62.7545 70.1448 62.7104C69.9549 62.7301 69.7768 62.6245 69.6932 62.6434C69.3196 62.7214 69.1367 62.8601 68.894 63.0383C68.4668 63.3504 67.945 63.5805 67.4626 63.7949C66.8817 64.0527 66.1936 64.3561 65.4851 64.4964C65.359 64.5208 65.2171 64.1725 65.1524 64.3537C65.046 64.7786 64.9286 65.5116 64.9901 65.9948C64.998 66.0562 65.0697 66.1201 65.0823 66.1879C65.1595 66.6253 65.1233 67.1731 65.2455 67.5301C65.4512 68.1292 66.2993 68.5895 66.8707 68.1694C67.0938 67.7043 66.6043 66.7719 66.3127 66.381C66.1235 66.1287 66.0242 65.815 65.8713 65.5408C65.7286 65.283 65.5126 65.0198 65.5316 64.7108C65.8728 64.5413 66.1984 64.8448 66.5751 64.8393C67.1678 64.8322 68.0648 64.5398 68.7292 64.617C68.529 65.1577 68.3667 65.6677 67.9994 66.1051C67.681 66.4866 67.171 66.7758 67.2609 67.3788C67.2821 67.5286 67.4469 67.7177 67.5856 67.7776C67.6857 67.7627 67.733 67.6972 67.8638 67.7106C68.7119 67.9589 70.1409 67.7918 71.1064 67.5822C71.6014 67.475 70.6083 66.8901 70.4979 66.8247Z" fill="#A82126"/>
<path fill-rule="evenodd" clip-rule="evenodd" d="M116.132 56.7588C116.163 56.5042 116.325 56.3939 116.379 56.1385C116.452 55.7941 116.391 55.9438 116.625 55.6459C116.743 55.4961 116.858 55.3464 117.03 55.2455C117.192 55.1509 117.25 55.21 117.093 55.0185C116.868 54.7426 116.385 54.3564 116.196 54.4321C115.295 54.7962 114.034 56.1905 112.81 56.0573C112.66 56.0408 112.671 56.0226 112.721 56.211C112.845 56.6761 113.196 56.8266 113.591 56.9354C113.754 56.9811 113.733 56.9937 113.884 56.9117C114.24 56.7178 114.57 56.4089 114.93 56.2788C115.136 56.2039 115.104 56.2228 115.139 56.4467C115.166 56.6106 115.197 56.7486 115.194 56.8928C115.183 57.2806 114.965 57.6542 114.967 57.9789C114.97 58.5228 115.598 58.8743 115.628 59.1683C115.655 59.4363 115.324 59.7508 115.184 59.9581C115.029 60.1906 114.901 60.3766 114.758 60.5666C114.669 60.6832 114.709 60.7155 114.797 60.7526C115.124 60.8937 115.433 61.3075 115.734 61.3201C116.058 61.3335 116.307 60.9165 116.562 60.5839C116.894 60.148 117.175 59.7398 117.25 59.2117C116.897 58.44 115.965 58.0972 116.132 56.7588Z" fill="#A82126"/>
<path fill-rule="evenodd" clip-rule="evenodd" d="M103.063 66.47C102.716 66.8956 102.715 67.0525 102.045 67.0895C101.913 67.0966 101.749 67.1337 101.645 67.1171C101.142 67.1565 100.665 66.7821 100.649 66.7719C100.51 66.7396 100.518 66.5544 100.376 66.5244C100.097 65.7283 101.096 65.4186 101.843 65.4272C102.195 65.432 102.049 65.4493 102.368 65.3342C102.825 65.1703 103.444 65.2018 103.553 65.8009C103.513 66.0775 103.26 66.2304 103.063 66.47ZM107.541 64.7368C107.529 64.6832 107.283 64.5524 107.246 64.5437C106.887 64.3947 106.796 64.5768 106.52 64.4515C105.749 64.0999 105.349 63.8911 104.353 64.0637C104.142 64.0873 103.129 63.9786 102.828 62.9697C102.783 62.2445 104.021 62.0727 103.412 61.2412C102.878 61.0189 102.634 61.1285 102.072 61.1655C102.017 61.1852 101.537 61.0615 101.265 61.0039C100.745 60.8944 100.058 61.1907 100.177 61.826C100.207 61.9836 100.407 62.1405 100.51 62.1791C100.745 62.2674 101.129 62.0254 101.387 62.1035C101.574 62.1602 101.633 62.3407 101.781 62.492C101.814 63.1636 100.889 63.4339 101.15 63.787C101.389 64.111 102.255 63.8398 102.14 64.5161C102.044 64.5933 101.972 64.7494 101.861 64.8085C101.719 64.7447 101.59 64.8558 101.457 64.8795C101.406 64.8889 101.181 64.9709 101.11 65.0056C100.998 65.06 100.801 65.1191 100.69 65.1695C100.402 65.3776 99.2201 65.7536 98.8402 65.9419C98.186 66.5008 99.0869 66.6411 99.4873 66.9768C99.6402 67.1037 99.7245 67.3094 99.9854 67.2582C100.505 67.4962 100.883 67.8785 101.518 67.9983C101.861 68.2742 102.352 68.6021 102.751 68.5154C102.806 68.5036 102.86 68.4271 102.943 68.3845C103.197 68.2505 103.46 68.1292 103.583 67.8557C103.67 67.6649 103.714 67.6531 103.812 67.5199C104.026 67.2338 104.19 66.8925 104.368 66.6395C104.593 66.3147 104.557 66.5134 104.625 66.1035C104.726 65.4982 105.143 65.1687 105.408 64.7541C105.545 64.4767 106.713 65.0332 107.157 64.8077C107.289 64.7407 107.572 64.881 107.541 64.7368Z" fill="#A82126"/>
<path fill-rule="evenodd" clip-rule="evenodd" d="M115.758 62.8354C115.552 63.1341 115.295 63.3927 115.111 63.7001C114.912 64.0327 114.819 64.4417 114.526 64.664C114.301 63.7765 114.549 62.8575 114.544 61.8675C114.54 60.6111 115.006 58.8795 113.84 58.6249C113.49 58.8803 113.665 59.4123 113.627 60.0815C113.592 60.6852 113.527 61.3079 113.457 61.94C113.43 62.1867 113.405 62.4681 113.397 62.7172C113.356 64.0248 113.275 65.1188 113.313 66.1899C113.343 67.027 113.6 68.0359 114.26 67.9744C114.611 67.9421 114.861 67.4337 114.961 66.9734C115.003 66.7842 114.979 66.5423 115.028 66.3641C115.072 66.2081 115.204 66.037 115.276 65.8502C115.496 65.2693 115.686 64.6774 115.891 64.1107C116.125 63.466 116.716 62.9639 116.468 62.1024C116.166 62.2017 115.96 62.5422 115.758 62.8354Z" fill="#A82126"/>
<path fill-rule="evenodd" clip-rule="evenodd" d="M121.198 65.8419C122.092 66.3866 123.05 67.4152 124.097 67.8282C124.431 67.959 124.862 68.123 125.194 68.0244C125.659 67.8889 126.1 66.9651 126.199 66.4402C126.228 66.2888 126.182 66.0894 126.211 65.9341C126.263 65.652 126.402 65.4336 126.421 65.22C126.457 64.8126 126.333 64.625 126.388 64.2774C126.006 64.4421 125.867 64.7416 125.591 65.0805C125.456 65.2468 125.283 65.44 125.167 65.6007C125.002 65.8301 124.941 66.0855 124.777 66.221C124.464 66.4788 124.174 66.3684 123.876 66.277C123.38 66.1233 123.292 66.0642 122.822 65.8301C122.214 65.5306 121.565 65.2815 121.018 64.9056C121.188 63.3922 122.868 63.3158 122.665 61.5124C122.514 61.525 122.364 61.4446 122.161 61.4289C121.773 61.4005 121.276 61.5983 121.039 61.3674C121.082 60.7021 121.763 60.5201 121.93 59.8879C121.865 59.7106 121.738 59.6081 121.65 59.4607C121.418 59.3504 121.271 59.4056 121.149 59.4781C121.014 59.5585 120.787 59.4891 120.65 59.5293C120.507 59.5711 120.432 59.713 120.275 59.7784C119.883 59.9423 119.487 60.0338 119.048 60.0574C119.292 60.5406 119.824 60.2663 120.181 60.4562C120.168 60.6864 119.982 60.7928 119.905 60.9701C119.764 61.2964 119.612 61.9625 119.392 62.3022C119.228 62.5583 118.663 62.7223 118.621 62.9698C118.566 63.2882 118.879 63.6382 119.118 63.6933C119.544 63.7918 119.919 63.3962 120.316 63.4143C120.55 63.6311 120.212 64.1678 119.917 64.5225C119.741 64.7322 119.62 64.852 119.453 65.0782C119.068 65.6007 118.239 66.5797 117.982 66.5631C118.166 66.7562 118.739 66.9013 119.053 66.8618C119.402 66.8177 119.622 66.545 119.89 66.3606C120.267 66.0997 120.577 65.7852 121.198 65.8419Z" fill="#A82126"/>
<path fill-rule="evenodd" clip-rule="evenodd" d="M75.9339 76.3297H79.2435V75.5872H76.7197V74.0668H78.873V73.3693H76.7197V71.8922H79.2435V71.1505H75.9339V76.3297Z" fill="#A82126"/>
<path fill-rule="evenodd" clip-rule="evenodd" d="M88.0385 74.4893C88.0385 75.2026 87.5806 75.5872 86.9839 75.5872C86.3873 75.5872 85.9286 75.2026 85.9286 74.4893V71.1505H85.1435V74.5768C85.1435 75.6526 85.9577 76.3738 86.9839 76.3738C88.0094 76.3738 88.8244 75.6526 88.8244 74.5768V71.1505H88.0385V74.4893Z" fill="#A82126"/>
<path fill-rule="evenodd" clip-rule="evenodd" d="M80.5245 76.3295H81.3103V71.1503H80.5245V76.3295Z" fill="#A82126"/>
<path fill-rule="evenodd" clip-rule="evenodd" d="M93.4652 74.8309H93.451L91.1085 71.1509H90.3668V76.3293H91.1526V72.6484H91.1668L93.5085 76.3293H94.251V71.1509H93.4652V74.8309Z" fill="#A82126"/>
<path fill-rule="evenodd" clip-rule="evenodd" d="M64.47 73.3693H62.4183V71.1505H61.6333V76.3297H62.4183V74.0668H64.47V76.3297H65.2558V71.1505H64.47V73.3693Z" fill="#A82126"/>
<path fill-rule="evenodd" clip-rule="evenodd" d="M71.4826 76.3297H72.2684V74.118H74.4218V73.4189H72.2684V71.8922H74.7922V71.1505H71.4826V76.3297Z" fill="#A82126"/>
<path fill-rule="evenodd" clip-rule="evenodd" d="M66.8924 76.3297H70.202V75.5872H67.6774V74.0668H69.8308V73.3693H67.6774V71.8922H70.202V71.1505H66.8924V76.3297Z" fill="#A82126"/>
<path fill-rule="evenodd" clip-rule="evenodd" d="M117.195 76.3295H117.981V71.1503H117.195V76.3295Z" fill="#A82126"/>
<path fill-rule="evenodd" clip-rule="evenodd" d="M114.401 73.3758C114.153 73.3467 113.958 73.3175 113.819 73.2962C113.296 73.2158 113.085 72.9242 113.085 72.6342C113.085 72.1392 113.469 71.8917 113.95 71.8917C114.408 71.8917 114.852 72.0517 115.23 72.2921L115.667 71.6442C115.194 71.3321 114.626 71.1059 113.986 71.1059C112.917 71.1059 112.298 71.7317 112.298 72.6192C112.298 73.3688 112.779 73.9504 113.673 74.0742C113.942 74.1104 114.124 74.1396 114.357 74.1688C114.823 74.2263 115.034 74.5037 115.034 74.8671C115.034 75.2959 114.648 75.5867 114.007 75.5867C113.455 75.5867 112.932 75.3834 112.538 75.0712L112.022 75.66C112.567 76.14 113.237 76.3733 114.001 76.3733C115.114 76.3733 115.819 75.8192 115.819 74.8671C115.819 74.1617 115.368 73.4925 114.401 73.3758Z" fill="#A82126"/>
<path fill-rule="evenodd" clip-rule="evenodd" d="M119.078 71.8486H120.496V76.3295H121.282V71.8486H122.701V71.1503H119.078V71.8486Z" fill="#A82126"/>
<path fill-rule="evenodd" clip-rule="evenodd" d="M95.8876 76.3295H96.6734V71.1503H95.8876V76.3295Z" fill="#A82126"/>
<path fill-rule="evenodd" clip-rule="evenodd" d="M126.171 71.1507L125.073 73.4491L123.973 71.1507H123.144L124.701 74.1986V76.3299H125.443V74.1986L127 71.1507H126.171Z" fill="#A82126"/>
<path fill-rule="evenodd" clip-rule="evenodd" d="M99.794 75.0926H99.7798L98.6007 71.1501H97.7715L99.4811 76.3293H100.093L101.802 71.1501H100.972L99.794 75.0926Z" fill="#A82126"/>
<path fill-rule="evenodd" clip-rule="evenodd" d="M108.276 73.4189V71.8488H109.505C109.774 71.8488 109.934 71.8993 110.08 72.008C110.24 72.1247 110.342 72.3281 110.342 72.5976C110.342 73.0335 110.051 73.4189 109.462 73.4189H108.276ZM111.083 72.5976C111.083 72.1318 110.858 71.7393 110.567 71.4918C110.29 71.2522 109.949 71.1505 109.512 71.1505H107.49V76.3297H108.276V74.118H109.279L110.349 76.3297H111.28L110.08 74.0305C110.706 73.8122 111.083 73.2668 111.083 72.5976Z" fill="#A82126"/>
<path fill-rule="evenodd" clip-rule="evenodd" d="M102.9 76.3297H106.21V75.5872H103.686V74.0668H105.838V73.3693H103.686V71.8922H106.21V71.1505H102.9V76.3297Z" fill="#A82126"/>
<path fill-rule="evenodd" clip-rule="evenodd" d="M43.1253 65.0181V68.0511C43.1285 68.9528 42.2268 69.6732 41.3929 69.7898C40.9168 69.8568 40.399 69.7961 39.9773 69.5557C39.5761 69.3248 39.141 68.8779 38.9913 68.4404C38.914 68.204 38.9243 68.0298 38.9203 67.802L38.918 64.6193C38.4206 63.1367 35.8953 62.6433 34.5215 62.4778V67.6798C34.5372 68.0928 34.9408 68.7943 35.3956 69.1995C36.5794 70.2509 39.5162 70.6915 41.0524 70.6915C42.6572 70.6915 45.5687 70.3329 46.7975 69.1955C47.2255 68.8022 47.5305 68.2402 47.5416 67.6459V62.4801C46.8314 62.5692 45.642 62.8632 44.7198 63.2731C43.9908 63.5946 43.1253 64.1338 43.1253 65.0181Z" fill="#ED6D00"/>
<path fill-rule="evenodd" clip-rule="evenodd" d="M34.5241 60.8493V61.9062C35.3778 61.9638 36.2329 62.1734 36.992 62.4997C37.7967 62.8505 38.4761 63.3817 38.9246 64.0777C38.9246 64.0028 38.9246 63.868 38.927 63.7916C38.0481 62.0773 35.8144 61.0069 34.5241 60.8493Z" fill="#ED6D00"/>
<path fill-rule="evenodd" clip-rule="evenodd" d="M38.9247 63.3194V62.9884C38.7017 62.4043 38.0309 61.4388 37.1592 60.7412C36.2874 60.0445 35.2975 59.6654 34.5195 59.5203V60.3511C35.2415 60.4291 36.1487 60.7357 36.9487 61.2512C37.826 61.814 38.5677 62.6116 38.9247 63.3194Z" fill="#ED6D00"/>
<path fill-rule="evenodd" clip-rule="evenodd" d="M41.0315 62.3742C42.4298 62.3742 43.5695 61.2369 43.5695 59.841C43.5695 58.4475 42.4298 57.3093 41.0315 57.3093C39.6341 57.3093 38.4943 58.4475 38.4943 59.841C38.4943 61.2369 39.6341 62.3742 41.0315 62.3742Z" fill="#ED6D00"/>
<path fill-rule="evenodd" clip-rule="evenodd" d="M45.0716 62.5407C45.8298 62.2105 46.6858 62.0016 47.537 61.9441V60.8887C46.2491 61.0456 44.0154 62.1159 43.1342 63.8294C43.1366 63.9075 43.1366 64.043 43.1366 64.1187C43.5866 63.4204 44.2668 62.8876 45.0716 62.5407Z" fill="#ED6D00"/>
<path fill-rule="evenodd" clip-rule="evenodd" d="M44.9024 60.7821C44.0307 61.4789 43.3607 62.4444 43.1369 63.0276C43.1369 63.1104 43.1385 63.2775 43.1385 63.3603C43.4939 62.6517 44.2356 61.8548 45.1121 61.2905C45.9129 60.775 46.8201 60.4652 47.5421 60.3904V59.5588C46.7634 59.7046 45.7734 60.0861 44.9024 60.7821Z" fill="#ED6D00"/>
<path fill-rule="evenodd" clip-rule="evenodd" d="M36.3553 53.1715C36.3782 53.2282 36.3506 53.2534 36.3593 53.3149C36.4413 53.2219 36.461 53.0446 36.5863 53.0327C36.6076 53.2416 36.6832 53.4978 36.7329 53.6436C36.6619 53.6972 36.5272 53.7689 36.4342 53.7689C36.3561 53.6286 36.2671 53.4339 36.1906 53.2385C36.1796 53.2085 36.1544 53.1801 36.1496 53.1573C36.1165 52.9949 36.3144 53.0659 36.3553 53.1715ZM37.6401 52.8467C37.6606 52.9114 37.6582 52.9878 37.6503 53.0651C37.6432 53.1289 37.6362 53.3488 37.5692 53.3788C37.5156 53.404 37.4391 53.3386 37.3887 53.3149C37.3209 53.2834 37.2696 53.2779 37.2255 53.2282C37.2807 53.0611 37.4186 52.8767 37.6401 52.8467ZM36.0014 53.0919C36.0204 53.1352 36.0606 53.1754 36.0834 53.2282C36.1693 53.4276 36.2261 53.627 36.2623 53.787C36.2852 53.8864 36.3293 54.0022 36.3404 54.0952C36.3514 54.193 36.323 54.2395 36.312 54.3167C36.2994 54.4066 36.3017 54.4704 36.2615 54.5201C36.1993 54.5957 36.0897 54.6154 36.0125 54.6809C35.9817 54.7644 36.1496 54.9102 36.2261 54.9055C36.3341 54.8992 36.3419 54.8298 36.3766 54.766C36.4357 54.6548 36.4499 54.6036 36.4673 54.483C36.4704 54.4562 36.4917 54.4365 36.4941 54.4144C36.5098 54.2938 36.4799 54.1748 36.4949 54.0739C36.6052 54.0117 36.7652 54.0503 36.9134 54.0227C36.9425 54.1551 37.0017 54.178 37.0285 54.3199C36.9827 54.3869 36.9205 54.4089 36.8196 54.4263C36.8204 54.4688 36.8574 54.4783 36.8889 54.498C36.9205 54.5169 37.0292 54.6028 37.06 54.6288C37.1475 54.7006 37.2318 54.6998 37.3154 54.8361C37.3217 54.8779 37.3398 54.896 37.3611 54.9078C37.4123 54.8818 37.4596 54.8401 37.4872 54.7857C37.5187 54.7226 37.5014 54.7029 37.4714 54.6422C37.421 54.5406 37.3445 54.4294 37.302 54.3467C37.2618 54.2678 37.2153 54.1835 37.179 54.1031C37.1325 53.9991 37.0994 53.8848 37.0497 53.7847C37.0316 53.7484 36.9985 53.7271 36.9946 53.683C36.9906 53.6412 37.0513 53.5269 37.0986 53.4978C37.1806 53.4481 37.1995 53.5041 37.2594 53.5498C37.3146 53.5931 37.3745 53.616 37.4226 53.6444C37.4888 53.6838 37.5124 53.7145 37.6007 53.7626C37.6953 53.8138 37.7835 53.8832 37.8852 53.9132C38.0389 53.9573 38.2415 53.9628 38.4425 53.947C38.4953 53.9423 38.8184 53.8722 38.8775 53.8485C38.9934 53.8028 39.2283 53.6302 39.2385 53.4986C39.181 53.5269 39.1321 53.5451 39.0872 53.5608C38.9461 53.6121 38.8775 53.6176 38.7286 53.6397C38.6269 53.6554 38.5252 53.672 38.4275 53.6869C38.3487 53.7003 38.1934 53.6799 38.0775 53.6751C38.0255 53.6728 37.9703 53.6302 37.8978 53.6113C37.8245 53.5916 37.756 53.5845 37.7544 53.5096C37.7528 53.4607 37.8939 53.3685 37.9388 53.326C38.0697 53.2022 38.1926 53.1226 38.3132 53.0241C38.3644 52.9815 38.4133 52.9476 38.4574 52.9129C38.4835 52.8924 38.5426 52.8609 38.5221 52.8262C38.4212 52.6521 38.2249 52.8381 38.0452 52.8586C37.8639 52.8798 37.737 52.7167 37.6763 52.5456C37.7418 52.4227 37.8277 52.2848 37.9625 52.2107C38.0176 52.1807 38.0232 52.1894 38.0523 52.2532C38.1233 52.4061 38.0263 52.5953 38.02 52.7474C38.0626 52.7435 38.1043 52.7167 38.1398 52.6938C38.2029 52.6521 38.2446 52.5961 38.2951 52.5441C38.303 52.5346 38.3345 52.5275 38.366 52.492C38.4054 52.4463 38.4385 52.3951 38.4551 52.3415C38.4748 52.2777 38.4905 52.269 38.5103 52.2185C38.5434 52.1311 38.5315 52.0113 38.4835 51.9498C38.4094 51.8552 38.2525 51.8386 38.1248 51.8812C37.8159 51.9837 37.67 52.176 37.5282 52.3785C37.4336 52.5149 37.3642 52.6741 37.2783 52.8089C37.2294 52.8861 37.2145 52.9169 37.1751 52.9973C37.1475 53.0532 37.1136 53.106 37.0844 53.1612C37.0411 53.244 37.0174 53.3535 36.926 53.4056C36.9221 53.4 36.9165 53.3985 36.9087 53.4024C36.8677 53.3267 36.8535 53.2314 36.8259 53.1533C36.8086 53.1076 36.7991 53.1108 36.7999 53.0603C36.8015 52.9516 36.7873 52.8751 36.7605 52.7845C36.7463 52.738 36.7494 52.7049 36.7463 52.6576C36.7305 52.4235 36.6895 52.2075 36.8125 52.0097C36.8227 51.9931 36.8464 51.986 36.8566 51.9703C36.87 51.9506 36.87 51.9316 36.8866 51.9104C36.8685 51.8836 36.8353 51.8883 36.8164 51.8639C36.684 51.8694 36.5886 51.8757 36.5146 51.9561C36.4775 51.9971 36.4633 52.0617 36.4302 52.1011C36.3144 52.2359 36.1804 52.3431 36.0243 52.455C36.0282 52.485 36.044 52.4905 36.055 52.5054C36.2048 52.4865 36.3609 52.3297 36.487 52.3391C36.5004 52.5267 36.5146 52.6457 36.5611 52.8704C36.524 52.946 36.4523 52.8924 36.3727 52.9106C36.2552 52.9366 36.1788 53.0367 36.1047 53.0351C36.0401 52.9713 36.0338 52.9311 35.9841 52.8247C35.899 52.7482 35.8596 52.5803 35.739 52.5764C35.7847 52.7135 35.9179 52.8207 35.936 52.9847C35.9912 53.0004 35.9849 53.0525 36.0014 53.0919Z" fill="#A82126"/>
<path fill-rule="evenodd" clip-rule="evenodd" d="M31.9289 57.9503C31.9778 57.9913 31.9652 58.0622 32.0109 58.089C32.0282 57.9408 31.9778 57.7982 31.9612 57.6571C31.9549 57.6058 31.9486 57.5704 31.9447 57.5223C31.9408 57.4648 31.9502 57.3836 31.9526 57.3292C31.9581 57.1991 31.9723 57.0407 32.0172 56.917C32.0385 56.8571 32.1157 56.7089 32.0889 56.6569C31.8517 56.7081 31.7224 57.0155 31.6255 57.2252C31.6105 57.2567 31.6097 57.2882 31.5908 57.3174C31.538 57.3978 31.5341 57.4482 31.4994 57.5168C31.445 57.6248 31.3725 57.7272 31.352 57.8336C31.4103 57.81 31.5151 57.7706 31.564 57.7272C31.6743 57.6279 31.7476 57.4427 31.8564 57.3607C31.8998 57.4561 31.8887 57.5554 31.8856 57.6539C31.9021 57.7525 31.9321 57.8502 31.9289 57.9503Z" fill="#A82126"/>
<path fill-rule="evenodd" clip-rule="evenodd" d="M30.3956 56.0803C30.5746 56.1954 30.6211 56.3081 30.6833 56.4673C30.8158 56.807 30.9032 57.2633 30.9923 57.6243C31.0364 57.7702 31.12 58.3471 31.1255 58.3826C31.1428 58.504 31.1011 58.7775 31.0916 58.8161C31.0845 58.846 31.0561 58.8736 31.0759 58.9067C31.1917 58.7909 31.3084 58.5047 31.3139 58.3377C31.3194 58.1832 31.295 57.9396 31.2926 57.9183C31.295 57.6503 31.0853 56.8614 30.9844 56.5154C30.9813 56.5004 30.9773 56.4862 31.0199 56.4775C31.1586 56.4491 31.481 56.4381 31.5874 56.4318C31.6812 56.4255 31.7301 56.4838 31.8759 56.4681C31.9318 56.4791 32.1943 56.4759 32.2605 56.4649C32.3653 56.4468 32.4568 56.4271 32.56 56.4066C32.6995 56.379 32.8075 56.3073 32.9037 56.1954C32.9478 56.1441 33.0345 55.8911 33.0006 55.8454C32.9667 55.8706 32.9249 55.8998 32.8816 55.9242C32.7744 55.9841 32.5813 56.0566 32.4662 56.1055C32.2944 56.1788 32.1368 56.2474 31.8869 56.2576C31.7127 56.2647 31.5393 56.2876 31.3667 56.3144C31.2382 56.3364 31.1657 56.4019 31.1492 56.4066C31.1373 56.4105 31.1247 56.3979 31.1113 56.4003C31.0995 56.4026 31.016 56.4365 30.9694 56.4633C30.9624 56.435 30.9403 56.3766 30.9293 56.3435C30.9174 56.3081 30.8914 56.2576 30.8757 56.2229C30.8024 56.0606 30.7346 55.9234 30.5738 55.8588C30.5084 55.8241 30.2916 55.8753 30.2451 55.962C30.2388 55.9731 30.249 55.9865 30.2435 55.9952C30.2333 56.0078 30.2073 56.0109 30.1947 56.0314C30.1805 56.0535 30.1915 56.0669 30.1805 56.0889C30.2514 56.0755 30.3208 56.0464 30.3956 56.0803Z" fill="#A82126"/>
<path fill-rule="evenodd" clip-rule="evenodd" d="M32.9742 57.8914C32.9466 57.8804 32.9489 57.8221 32.9419 57.7858C32.919 57.6676 32.8922 57.5793 32.8457 57.48C32.8205 57.3366 32.8055 57.1687 32.6187 57.0536C32.5753 57.0355 32.547 57.0536 32.521 57.067C32.4942 57.1025 32.4477 57.1166 32.4374 57.134C32.3925 57.212 32.387 57.2656 32.3791 57.3358C32.3665 57.4603 32.3231 57.5864 32.2837 57.7054C32.2364 57.8465 32.1797 58.0144 32.0914 58.1602C32.0756 58.1854 31.9921 58.1547 32.0142 58.1949C32.0709 58.2808 32.1797 58.4179 32.2735 58.4842C32.2853 58.4928 32.3074 58.4897 32.3216 58.4991C32.4098 58.5551 32.4989 58.6481 32.5809 58.6836C32.7172 58.7427 32.9324 58.6686 32.9497 58.5031C32.904 58.3896 32.6652 58.3265 32.5501 58.3155C32.4768 58.3084 32.4067 58.2753 32.3342 58.2587C32.2664 58.243 32.1868 58.2382 32.1363 58.1854C32.1608 58.0995 32.2648 58.0916 32.3247 58.0254C32.4169 57.9206 32.5091 57.7188 32.6274 57.6156C32.6896 57.7362 32.7527 57.8449 32.77 57.9789C32.7858 58.0948 32.7551 58.2296 32.8741 58.3092C32.904 58.3289 32.9631 58.3312 32.9955 58.3163C33.0089 58.2966 33.0049 58.2777 33.0278 58.2572C33.2051 58.1492 33.4037 57.8741 33.5204 57.6731C33.5803 57.5699 33.321 57.6495 33.2918 57.6581C33.239 57.6747 33.172 57.6897 33.1294 57.7283C33.0924 57.763 33.0254 57.9119 32.9742 57.8914Z" fill="#A82126"/>
<path fill-rule="evenodd" clip-rule="evenodd" d="M44.413 52.8585C44.4256 52.8372 44.4201 52.8388 44.454 52.8231C44.5273 52.7892 44.6037 52.7253 44.6755 52.7277C44.6897 52.7285 44.6881 52.7332 44.6991 52.7237C44.7054 52.7174 44.7117 52.7119 44.7188 52.7072C44.733 52.6954 44.7314 52.6946 44.7488 52.6954C44.7984 52.6962 44.8441 52.6796 44.8938 52.7056C44.9103 52.7135 44.9159 52.7198 44.9143 52.7308C44.9111 52.7797 44.9167 52.8223 44.8828 52.8538C44.8662 52.8696 44.8686 52.8633 44.8473 52.8601C44.7732 52.8491 44.6794 52.8885 44.6116 52.8893C44.5714 52.8893 44.5919 52.883 44.5509 52.8971C44.5139 52.9105 44.4729 52.9121 44.4374 52.931C44.4232 52.9381 44.4169 52.9373 44.4083 52.931C44.3807 52.9105 44.398 52.8845 44.413 52.8585ZM45.0601 52.5007C45.1035 52.4589 45.1594 52.429 45.2051 52.3801C45.2319 52.3517 45.2272 52.3494 45.2855 52.3454C45.3982 52.3383 45.537 52.3304 45.6087 52.4203C45.5858 52.4967 45.533 52.5015 45.4897 52.5291C45.4376 52.5622 45.4566 52.5653 45.4116 52.5693C45.3659 52.5732 45.3281 52.5961 45.3029 52.6512C45.2895 52.6796 45.2863 52.6812 45.2666 52.6851C45.1689 52.7009 45.0633 52.6709 45.0388 52.5748C45.0286 52.5346 45.0317 52.5291 45.0601 52.5007ZM45.0956 52.0372C45.1452 52.0191 45.2075 52.0191 45.2619 52.0451C45.2895 52.0577 45.2903 52.0569 45.3202 52.0506C45.4227 52.0309 45.5141 52.1405 45.5953 52.1972C45.6063 52.2051 45.6055 52.2232 45.5976 52.2351C45.533 52.3399 45.3848 52.2256 45.2989 52.243C45.28 52.2469 45.2548 52.2902 45.228 52.2855C45.1027 52.28 45.0869 52.172 45.0767 52.0735C45.0743 52.0491 45.0735 52.0451 45.0956 52.0372ZM43.769 53.4071C43.9141 53.3543 44.0946 53.1037 44.2609 53.0595C44.3058 53.0477 44.309 53.0327 44.3413 53.0233C44.3854 53.0106 44.4382 53.024 44.4879 53.0114C44.5446 52.998 44.5667 53.0051 44.6242 53.0043C44.7574 53.0004 44.8946 52.9768 45.012 53.0043C45.1405 53.0359 45.0703 53.0201 45.2083 53.028C45.2808 53.0319 45.3557 53.0524 45.4187 53.0721C45.6024 53.0713 45.7852 53.1565 46.0044 53.2061C46.0406 53.2156 46.0422 53.251 46.0327 53.2802C45.92 53.3748 45.7506 53.3992 45.6103 53.4189C45.5913 53.4221 45.5772 53.4087 45.559 53.4087C45.5015 53.4118 45.4424 53.4512 45.3872 53.4505C45.3636 53.4497 45.3494 53.4363 45.3659 53.4599C45.4329 53.5624 45.6646 53.5718 45.771 53.575C45.9815 53.5813 46.2731 53.5774 46.4379 53.4725C46.5033 53.4315 46.5246 53.3772 46.5718 53.3251C46.5742 53.2944 46.5632 53.2802 46.5506 53.2676C46.5364 53.2526 46.5293 53.2408 46.5119 53.2313C46.3646 53.1533 46.2258 53.1115 46.0485 53.043C46.0217 53.0327 46.0075 53.0359 46.0083 53.0083C46.0122 52.9366 46.0643 52.9027 46.1131 52.8767C46.2345 52.812 46.3961 52.7703 46.4954 52.6457C46.5238 52.6095 46.5135 52.6166 46.5521 52.5984C46.6318 52.5622 46.6609 52.4345 46.6688 52.3367C46.6727 52.3194 46.6546 52.2485 46.6396 52.2485C46.4836 52.1208 46.3449 52.1342 46.1644 52.1129C46.1494 52.1097 46.1502 52.1452 46.1328 52.135C46.1257 52.1003 46.0509 52.1034 46.0351 52.1231C46.0272 52.1326 46.0359 52.1342 46.0438 52.1381C46.1242 52.1799 46.27 52.1957 46.3543 52.2556C46.3827 52.2753 46.3835 52.2784 46.3914 52.3107C46.4024 52.358 46.4071 52.4085 46.3898 52.4707C46.3811 52.4999 46.3811 52.5023 46.359 52.522C46.3338 52.5456 46.3078 52.5669 46.2857 52.5984C46.27 52.6197 46.2755 52.6189 46.2479 52.6268C46.2109 52.6363 46.1778 52.6355 46.1415 52.6552C46.0777 52.6891 46.0193 52.7868 45.9413 52.7695C45.8798 52.7553 45.8711 52.6946 45.8467 52.6646C45.8097 52.6181 45.7387 52.6008 45.7261 52.5677C45.6741 52.4282 45.8239 52.3123 45.8806 52.1791C45.8885 52.1594 45.8853 52.1515 45.909 52.1499C45.9279 52.1492 45.95 52.1555 45.9665 52.1499C45.9839 52.1436 45.9846 52.1381 45.9697 52.1302C45.9232 52.1042 45.8467 52.1279 45.7852 52.0987C45.7143 52.0656 45.667 51.9576 45.7222 51.8686C45.8089 51.7306 46.0288 51.8528 46.1068 51.6605C46.0745 51.5888 46.0178 51.6345 45.9523 51.6542C45.8617 51.681 45.79 51.6825 45.7253 51.7149C45.6694 51.6526 45.7592 51.569 45.7703 51.491C45.7774 51.4398 45.7521 51.413 45.7616 51.3673C45.7175 51.3413 45.7064 51.3728 45.6867 51.3389C45.6252 51.3696 45.5677 51.4414 45.5188 51.5336C45.4983 51.5722 45.4589 51.5982 45.4416 51.6345C45.4061 51.7062 45.3974 51.7937 45.336 51.8528C45.3107 51.8764 45.2422 51.9135 45.2067 51.9245C45.1074 51.9553 45.0491 51.8851 45.0522 51.7716C45.0538 51.7259 45.0853 51.6715 45.1042 51.6163C45.1129 51.5919 45.1145 51.5935 45.1058 51.5706C45.0901 51.5296 45.0822 51.4871 45.0569 51.4516C45.0443 51.4343 45.0428 51.428 45.0215 51.4335C44.9702 51.4453 44.9805 51.5005 44.9702 51.5517C44.96 51.6014 44.934 51.6226 44.9151 51.677C44.8701 51.8047 44.8284 52.0853 44.6983 52.0861C44.6897 51.9962 44.7322 51.8859 44.7149 51.7913C44.7125 51.7771 44.6904 51.7708 44.6826 51.7527C44.6636 51.7117 44.6857 51.6967 44.6542 51.6818C44.5966 51.6557 44.4895 51.7882 44.4697 51.837C44.4611 51.8591 44.4721 51.904 44.4674 51.9482C44.4595 52.0207 44.4256 52.105 44.4154 52.1689C44.4122 52.1925 44.424 52.2185 44.4201 52.2398C44.4193 52.2485 44.3972 52.2595 44.3957 52.265C44.3815 52.3123 44.3988 52.3667 44.3957 52.4116C44.3917 52.4573 44.3728 52.5165 44.3941 52.548C44.4043 52.5645 44.4075 52.563 44.4225 52.5582C44.4658 52.5448 44.5123 52.5393 44.5391 52.4849C44.5478 52.4692 44.5478 52.4668 44.5596 52.4629C44.61 52.4439 44.6629 52.4282 44.7172 52.4187C44.7464 52.4132 44.7472 52.4187 44.7622 52.4298C44.7968 52.4573 44.852 52.4573 44.8189 52.5362C44.785 52.6189 44.6368 52.6788 44.5478 52.6757C44.4997 52.6741 44.5178 52.6686 44.4674 52.6835C44.2041 52.7616 43.8518 52.7395 43.6264 52.931C43.5799 52.9705 43.516 53.0918 43.5011 53.1596C43.4656 53.3236 43.6303 53.4576 43.769 53.4071Z" fill="#A82126"/>
<path fill-rule="evenodd" clip-rule="evenodd" d="M45.0177 54.6171C44.9877 54.6762 44.92 54.6904 44.8577 54.729C44.7481 54.7976 44.7355 54.8323 44.5842 54.7897C44.5535 54.781 44.514 54.7771 44.492 54.7653C44.3769 54.7361 44.2997 54.6163 44.2973 54.6132C44.2681 54.595 44.2847 54.554 44.2547 54.5367C44.2532 54.3381 44.4999 54.3452 44.6654 54.4043C44.7434 54.4319 44.7095 54.4248 44.7891 54.4232C44.9034 54.4216 45.039 54.4752 45.0177 54.6171ZM44.7166 54.2679C44.6898 54.2427 44.6528 54.2577 44.6212 54.253C44.6086 54.2506 44.5527 54.2522 44.5338 54.2545C44.5046 54.2577 44.4565 54.2561 44.4281 54.2585C44.3477 54.2829 44.0561 54.2774 43.9576 54.2908C43.7692 54.3649 43.9592 54.465 44.023 54.5698C44.0466 54.61 44.0498 54.662 44.1121 54.6707C44.2098 54.7629 44.265 54.8772 44.3974 54.9521C44.4526 55.0396 44.5369 55.1499 44.6323 55.161C44.6457 55.1625 44.6638 55.1499 44.6851 55.1468C44.7521 55.1365 44.8199 55.1286 44.8679 55.0774C44.9018 55.0411 44.9129 55.0427 44.9444 55.0207C45.0138 54.9726 45.0768 54.9095 45.1359 54.8662C45.2108 54.811 45.1872 54.852 45.2337 54.7669C45.3022 54.6392 45.4205 54.5974 45.5103 54.5257C45.5623 54.4736 45.7799 54.6872 45.8965 54.6707C45.9312 54.666 45.9832 54.718 45.9872 54.6841C45.9887 54.6707 45.9438 54.6226 45.9367 54.6179C45.8674 54.558 45.8335 54.5919 45.7815 54.5422C45.6364 54.4059 45.5631 54.3286 45.3282 54.2916C45.2794 54.2805 45.0618 54.1789 45.0721 53.9314C45.117 53.7666 45.4055 53.8226 45.3338 53.5909C45.2313 53.501 45.169 53.5065 45.0406 53.4719C45.0272 53.4719 44.9294 53.408 44.8735 53.3741C44.7655 53.3103 44.5897 53.3245 44.5684 53.475C44.5629 53.5121 44.5952 53.5625 44.6157 53.5791C44.6614 53.6161 44.7647 53.5917 44.8167 53.6287C44.8538 53.6555 44.8538 53.7004 44.875 53.7454C44.8317 53.8975 44.6047 53.8872 44.6362 53.9858C44.6646 54.0764 44.8782 54.0819 44.8009 54.2238C44.7734 54.2333 44.7458 54.2624 44.7166 54.2679Z" fill="#A82126"/>
<path fill-rule="evenodd" clip-rule="evenodd" d="M50.6335 56.4124C50.4719 56.4235 50.3088 56.4243 50.1504 56.5456C50.1031 56.6394 50.118 56.7159 50.2276 56.7301C50.3443 56.7458 50.4846 56.7159 50.6012 56.7553C50.8124 56.8262 51.0568 56.8365 51.242 56.9539C51.3263 56.976 51.4934 57.0635 51.525 57.177C51.5423 57.2385 51.5226 57.2424 51.4666 57.244C51.309 57.2487 51.1506 57.2148 50.9969 57.1896C50.9015 57.1738 50.9764 57.2101 51.019 57.2337C51.1979 57.333 51.4162 57.4174 51.5912 57.5585C51.6527 57.5774 51.7173 57.5829 51.7859 57.5695C51.8828 57.5167 51.949 57.3882 51.9191 57.3496C51.8387 57.2053 51.7315 57.1478 51.6188 57.0635C51.4004 56.9011 51.1435 56.7301 50.9118 56.6552C50.8574 56.6371 50.7927 56.6481 50.7652 56.5906C50.8329 56.4889 50.9307 56.5015 51 56.4944C51.0426 56.4905 51.0883 56.4739 51.1222 56.4731C51.3311 56.4692 51.5533 56.548 51.7118 56.7096C51.7464 56.738 51.7874 56.7348 51.7977 56.7064C51.8773 56.5843 51.8245 56.3509 51.6826 56.2311C51.6519 56.2051 51.5967 56.1894 51.5518 56.2414C51.5234 56.3084 51.6022 56.3848 51.5699 56.4518C51.4603 56.4857 51.3571 56.4424 51.2491 56.4313C51.1474 56.4203 51.0316 56.4164 50.9212 56.4148C50.8369 56.414 50.7123 56.4069 50.6335 56.4124Z" fill="#A82126"/>
<path fill-rule="evenodd" clip-rule="evenodd" d="M49.7434 56.0176C49.7087 56.0161 49.7079 56.0279 49.7118 56.05C49.7284 56.1327 49.6898 56.2478 49.7268 56.3077C49.7678 56.3723 49.8821 56.3652 49.9806 56.37C50.1091 56.3763 50.2257 56.3763 50.3384 56.3203C50.4409 56.1493 50.3834 55.9231 50.6655 55.7765C50.7191 55.7489 50.7617 55.7662 50.8184 55.7418C50.8949 55.7103 50.8579 55.7181 50.9469 55.7237C50.9918 55.7268 51.036 55.7292 51.0785 55.7497C51.1187 55.7678 51.1148 55.7875 51.1314 55.7315C51.155 55.6504 51.1652 55.5053 51.125 55.4793C50.9343 55.3524 50.4961 55.2941 50.3581 55.0387C50.3416 55.0072 50.3471 55.0072 50.3172 55.0419C50.2431 55.1278 50.2604 55.2161 50.2919 55.3075C50.3053 55.3445 50.2998 55.343 50.3361 55.3611C50.4212 55.4044 50.5252 55.4265 50.5978 55.4793C50.6403 55.5093 50.6324 55.5053 50.5938 55.5424C50.5654 55.57 50.5426 55.5936 50.5142 55.6125C50.4377 55.6622 50.3361 55.6701 50.273 55.7134C50.1682 55.7859 50.1832 55.9554 50.1304 56.0003C50.0823 56.0413 49.9767 56.0184 49.9183 56.0192C49.8521 56.02 49.7993 56.02 49.7434 56.0176Z" fill="#A82126"/>
<path fill-rule="evenodd" clip-rule="evenodd" d="M48.5278 56.9108C48.5703 56.8934 48.6137 56.8564 48.6546 56.843C48.6909 56.8304 48.7413 56.8335 48.7879 56.8225C48.9297 56.7878 49.07 56.7452 49.2072 56.7098C49.3632 56.6696 49.5398 56.7169 49.6738 56.5537C49.6139 56.5088 49.5209 56.5143 49.4365 56.5135C49.3514 56.5135 49.2671 56.4985 49.1827 56.5033C49.0913 56.5096 48.9999 56.5458 48.9171 56.5182C49.0598 56.3567 49.2718 56.2818 49.4625 56.1494C49.7061 55.9807 50.1041 55.8404 49.9977 55.5811C49.9016 55.5464 49.822 55.6512 49.6872 55.7332C49.565 55.8065 49.4357 55.8774 49.3033 55.9484C49.2521 55.9752 49.1938 56.0083 49.1449 56.0398C48.8856 56.2069 48.6625 56.3362 48.46 56.4867C48.3015 56.6042 48.14 56.7886 48.2401 56.9084C48.2929 56.9722 48.4253 56.9525 48.5278 56.9108Z" fill="#A82126"/>
<path fill-rule="evenodd" clip-rule="evenodd" d="M50.8315 57.3183C50.8575 57.2829 50.8607 57.2442 50.8772 57.2072C50.8677 57.1473 50.837 57.1268 50.8071 57.1126C50.7732 57.0968 50.7566 57.0432 50.7306 57.022C50.7038 56.9999 50.666 57.0046 50.6321 56.9833C50.5485 56.929 50.4776 56.8643 50.4145 56.7816C50.3531 56.8935 50.4776 56.9605 50.4886 57.0551C50.4421 57.0834 50.3964 57.0614 50.3515 57.07C50.2695 57.0866 50.1198 57.1457 50.0244 57.1481C49.9534 57.1504 49.8463 57.0622 49.7927 57.0874C49.7233 57.1197 49.6973 57.2261 49.7178 57.2805C49.7556 57.3759 49.8825 57.3964 49.9322 57.4752C49.9211 57.55 49.7722 57.5564 49.6634 57.5461C49.5995 57.5398 49.5601 57.5319 49.4939 57.5303C49.341 57.5248 49.0407 57.4949 49.01 57.4421C48.9966 57.5035 49.0455 57.6344 49.0951 57.6903C49.1495 57.7526 49.2323 57.7581 49.3032 57.7857C49.4041 57.8243 49.5065 57.8425 49.5783 57.9709C49.5917 58.2169 49.5199 58.54 49.5798 58.7978C49.5988 58.8797 49.6248 58.9853 49.6878 59.0374C49.7761 59.1091 50.0141 59.0713 50.1292 59.0208C50.1631 59.0058 50.1954 58.9704 50.2293 58.9554C50.2908 58.9278 50.3515 58.9254 50.3956 58.901C50.4792 58.8537 50.4997 58.8041 50.5745 58.7686C50.4918 58.7166 50.4145 58.7292 50.3121 58.7213C50.2616 58.7174 50.2009 58.7095 50.1544 58.7087C50.0882 58.7071 50.0307 58.7292 49.9818 58.715C49.8904 58.689 49.8731 58.618 49.851 58.5479C49.8147 58.4312 49.8147 58.406 49.7974 58.2839C49.7745 58.1262 49.7367 57.9662 49.7359 57.8102C50.0528 57.6415 50.2916 57.9575 50.6139 57.6777C50.5919 57.6501 50.5872 57.6107 50.5635 57.569C50.517 57.4901 50.4122 57.42 50.4256 57.3428C50.5604 57.2624 50.6873 57.3703 50.8315 57.3183Z" fill="#A82126"/>
<path fill-rule="evenodd" clip-rule="evenodd" d="M41.0307 73.1329C35.8389 73.1329 31.6292 69.0437 31.6292 64.0001C31.6292 58.9565 35.8389 54.8681 41.0307 54.8681C46.2241 54.8681 50.433 58.9565 50.433 64.0001C50.433 69.0437 46.2241 73.1329 41.0307 73.1329ZM50.7002 64.0001C50.7002 58.8138 46.3699 54.6096 41.0307 54.6096C35.6915 54.6096 31.3612 58.8138 31.3612 64.0001C31.3612 69.1864 35.6915 73.3906 41.0307 73.3906C46.3699 73.3906 50.7002 69.1864 50.7002 64.0001Z" fill="#A82126"/>
<path fill-rule="evenodd" clip-rule="evenodd" d="M30.7473 66.6003L29.8787 66.7832L29.71 65.98L30.5786 65.7971L30.514 65.4898L28.4859 65.9162L28.5514 66.2243L29.4365 66.0375L29.606 66.8407L28.72 67.0267L28.7847 67.3349L30.8119 66.9077L30.7473 66.6003Z" fill="#A82126"/>
<path fill-rule="evenodd" clip-rule="evenodd" d="M30.5205 69.3213L30.7751 69.2078L30.4251 68.422L30.9642 68.1816L31.3749 69.103L31.646 68.9824L31.1069 67.7733L29.216 68.6167L29.7543 69.825L30.0255 69.7052L29.6148 68.783L30.1697 68.5347L30.5205 69.3213Z" fill="#A82126"/>
<path fill-rule="evenodd" clip-rule="evenodd" d="M31.4893 70.4344L31.9875 70.0821L32.5707 70.9058L32.8127 70.7347L32.0482 69.6541L30.3583 70.8506L30.5396 71.1067L31.2615 70.596L31.7589 71.2983L31.9867 71.1375L31.4893 70.4344Z" fill="#A82126"/>
<path fill-rule="evenodd" clip-rule="evenodd" d="M33.326 71.7063L34.0575 72.4015L34.2624 72.1871L33.3032 71.2744L31.8765 72.7759L32.835 73.687L33.0399 73.4726L32.3085 72.7767L32.727 72.3361L33.3505 72.9296L33.5436 72.727L32.9193 72.1343L33.326 71.7063Z" fill="#A82126"/>
<path fill-rule="evenodd" clip-rule="evenodd" d="M34.0114 74.5481L33.7508 74.3699L34.92 72.6602L35.1806 72.8385L34.0114 74.5481Z" fill="#A82126"/>
<path fill-rule="evenodd" clip-rule="evenodd" d="M37.7659 75.4863C37.6863 75.7322 37.4813 75.8559 37.2291 75.7747C36.9777 75.6936 36.8831 75.4744 36.9627 75.2277L37.3718 73.9556L37.073 73.8602L36.6522 75.1647C36.5229 75.5659 36.7373 75.9466 37.1329 76.0735C37.5294 76.2012 37.9251 76.0175 38.0543 75.6155L38.4744 74.3111L38.1749 74.2149L37.7659 75.4863Z" fill="#A82126"/>
<path fill-rule="evenodd" clip-rule="evenodd" d="M40.4321 76.0618L39.6494 74.5161L39.3247 74.4877L39.1457 76.552L39.4587 76.5788L39.5856 75.1128L40.3682 76.6584L40.693 76.686L40.8719 74.6225L40.559 74.5949L40.4321 76.0618Z" fill="#A82126"/>
<path fill-rule="evenodd" clip-rule="evenodd" d="M41.9929 76.6316L41.8124 74.5684L42.1253 74.541L42.3058 76.6043L41.9929 76.6316Z" fill="#A82126"/>
<path fill-rule="evenodd" clip-rule="evenodd" d="M44.0347 75.7984L43.1843 74.3868L42.8627 74.4687L44.0072 76.3162L44.3004 76.2414L44.4257 74.0731L44.1041 74.1534L44.0347 75.7984Z" fill="#A82126"/>
<path fill-rule="evenodd" clip-rule="evenodd" d="M46.136 75.2746L45.8727 74.7268L46.6483 74.3525L46.5277 74.101L45.7513 74.4746L45.4952 73.9418L46.4047 73.5044L46.2763 73.2364L45.083 73.811L45.9815 75.6782L47.1748 75.1036L47.0463 74.8364L46.136 75.2746Z" fill="#A82126"/>
<path fill-rule="evenodd" clip-rule="evenodd" d="M48.114 73.066L47.738 73.3545L47.3557 72.8556L47.7459 72.5568C47.9004 72.4378 48.0675 72.4276 48.1936 72.5907C48.3189 72.7547 48.2732 72.9438 48.114 73.066ZM48.4293 72.411C48.2094 72.1241 47.8484 72.1265 47.578 72.333L46.9364 72.8248L48.196 74.469L48.4458 74.2775L47.9075 73.576L48.2259 73.3316L49.1032 73.7738L49.3987 73.5468L48.4592 73.1094C48.6042 72.8879 48.59 72.6207 48.4293 72.411Z" fill="#A82126"/>
<path fill-rule="evenodd" clip-rule="evenodd" d="M50.6607 71.3334C50.3943 71.1032 50.0932 71.1592 49.8394 71.3736C49.6936 71.4981 49.4713 71.7519 49.2703 71.5793C49.1182 71.4485 49.1505 71.264 49.2711 71.1229C49.3917 70.985 49.5556 70.892 49.7267 70.84L49.6447 70.5389C49.4161 70.6035 49.2001 70.7241 49.0433 70.9078C48.7982 71.1915 48.7588 71.5533 49.0614 71.8134C49.3215 72.0373 49.61 71.9829 49.8607 71.7764C50.0277 71.6353 50.224 71.372 50.4557 71.5706C50.6213 71.7133 50.5243 71.9324 50.4069 72.0696C50.2681 72.2304 50.0743 72.3399 49.867 72.3801L49.9103 72.6899C50.2027 72.6505 50.451 72.4991 50.6425 72.2769C50.8932 71.9852 50.9846 71.6116 50.6607 71.3334Z" fill="#A82126"/>
<path fill-rule="evenodd" clip-rule="evenodd" d="M51.7633 70.7351L49.9949 69.6541L50.1584 69.3866L51.9267 70.4676L51.7633 70.7351Z" fill="#A82126"/>
<path fill-rule="evenodd" clip-rule="evenodd" d="M51.3514 67.5149L51.0936 67.4077L50.5364 68.7452L50.7941 68.8524L51.0125 68.3291L52.6669 69.018L52.7875 68.7279L51.1331 68.039L51.3514 67.5149Z" fill="#A82126"/>
<path fill-rule="evenodd" clip-rule="evenodd" d="M52.6186 66.3266L51.5561 65.4636L51.4867 65.7875L52.2946 66.4094L51.3039 66.6467L51.2345 66.9706L52.5563 66.6167L53.3902 66.7948L53.4517 66.5048L52.6186 66.3266Z" fill="#A82126"/>
<path fill-rule="evenodd" clip-rule="evenodd" d="M29.3384 64.8421C29.589 64.8421 29.7948 64.6371 29.7948 64.3857C29.7948 64.1343 29.589 63.9301 29.3384 63.9301C29.0854 63.9301 28.8789 64.1343 28.8789 64.3857C28.8789 64.6371 29.0854 64.8421 29.3384 64.8421Z" fill="#A82126"/>
<path fill-rule="evenodd" clip-rule="evenodd" d="M52.6942 64.8422C52.9464 64.8422 53.1514 64.6381 53.1514 64.3851C53.1514 64.1329 52.9464 63.9303 52.6942 63.9303C52.442 63.9303 52.2379 64.1329 52.2379 64.3851C52.2379 64.6381 52.442 64.8422 52.6942 64.8422Z" fill="#A82126"/>
<path fill-rule="evenodd" clip-rule="evenodd" d="M41.0306 77.5919C33.5238 77.5919 27.4382 71.5071 27.4382 63.9996C27.4382 56.4936 33.5238 50.4072 41.0306 50.4072C48.5373 50.4072 54.6229 56.4936 54.6229 63.9996C54.6229 71.5071 48.5373 77.5919 41.0306 77.5919ZM41.0306 49.969C33.2819 49.969 27 56.2524 27 63.9996C27 71.7483 33.2819 78.0309 41.0306 78.0309C48.78 78.0309 55.0611 71.7483 55.0611 63.9996C55.0611 56.2524 48.78 49.969 41.0306 49.969Z" fill="#A82126"/>
</g>
<defs>
<filter id="filter0_d_269_517" x="0" y="0" width="154" height="157" filterUnits="userSpaceOnUse" color-interpolation-filters="sRGB">
<feFlood flood-opacity="0" result="BackgroundImageFix"/>
<feColorMatrix in="SourceAlpha" type="matrix" values="0 0 0 0 0 0 0 0 0 0 0 0 0 0 0 0 0 0 127 0" result="hardAlpha"/>
<feOffset dy="16"/>
<feGaussianBlur stdDeviation="6.5"/>
<feColorMatrix type="matrix" values="0 0 0 0 0 0 0 0 0 0 0 0 0 0 0 0 0 0 0.03 0"/>
<feBlend mode="normal" in2="BackgroundImageFix" result="effect1_dropShadow_269_517"/>
<feBlend mode="normal" in="SourceGraphic" in2="effect1_dropShadow_269_517" result="shape"/>
</filter>
</defs>
</svg>
