<svg width="154" height="157" viewBox="0 0 154 157" fill="none" xmlns="http://www.w3.org/2000/svg">
<g filter="url(#filter0_d_185_37)">
<rect width="128" height="128" transform="translate(13)" fill="white"/>
<path fill-rule="evenodd" clip-rule="evenodd" d="M27 63.9916C27 72.9376 34.2595 80.2044 43.2055 80.2044V79.53C34.6237 79.53 27.6779 72.5749 27.6779 63.9916C27.6779 55.4251 34.6237 48.4372 43.2055 48.4372C51.7696 48.4372 58.7479 55.4251 58.7479 63.9916C58.7479 72.5749 51.7696 79.53 43.2055 79.53V80.2044C52.1333 80.2044 59.4088 72.9376 59.4088 63.9916C59.4088 55.0641 52.1333 47.7957 43.2055 47.7957C34.2595 47.7957 27 55.0641 27 63.9916Z" fill="#006097"/>
<path fill-rule="evenodd" clip-rule="evenodd" d="M31.4978 63.9916C31.4978 70.454 36.7389 75.7155 43.2055 75.7155V75.2722C36.9876 75.2722 31.944 70.2239 31.944 63.9916C31.944 57.7762 36.9876 52.7279 43.2055 52.7279C49.4212 52.7279 54.4648 57.7762 54.4648 63.9916C54.4648 70.2239 49.4212 75.2722 43.2055 75.2722V75.7155C49.6533 75.7155 54.911 70.454 54.911 63.9916C54.911 57.5461 49.6533 52.2846 43.2055 52.2846C36.7389 52.2846 31.4978 57.5461 31.4978 63.9916Z" fill="#006097"/>
<path fill-rule="evenodd" clip-rule="evenodd" d="M39.3845 54.7677C39.3515 54.9002 39.3025 55.0312 39.2029 55.1956C39.0703 55.3265 38.9708 55.4251 38.8398 55.5232L38.9708 55.818C39.2029 55.6542 39.3515 55.4745 39.4847 55.2942L40.0454 56.5254L40.5092 56.3138L39.7818 54.6192L39.3845 54.7677Z" fill="#006097"/>
<path fill-rule="evenodd" clip-rule="evenodd" d="M41.815 55.6881V56.001C41.6329 56.0169 41.5008 56.001 41.4023 55.9517C41.2367 55.8859 41.1701 55.7852 41.0876 55.6383L41.6009 55.5232C41.6329 55.6059 41.6664 55.6383 41.716 55.6542C41.7319 55.6881 41.7655 55.6881 41.815 55.6881ZM41.815 54.0932V54.3726C41.7809 54.3726 41.7655 54.3726 41.7319 54.405C41.6329 54.405 41.5514 54.4553 41.5008 54.5052C41.4513 54.5545 41.4188 54.6685 41.4513 54.7676C41.4513 54.9002 41.5008 54.9819 41.5834 55.0312C41.6329 55.064 41.7319 55.0784 41.815 55.064V55.3424C41.5834 55.3748 41.4023 55.3424 41.2207 55.2449C41.0551 55.1616 40.956 55.0312 40.9225 54.8498C40.9065 54.6685 40.956 54.5052 41.1046 54.3567C41.2367 54.2226 41.4513 54.1436 41.716 54.0932H41.815ZM42.4109 54.2226C42.2618 54.1102 42.0467 54.0603 41.815 54.0932V54.3726C41.8656 54.3726 41.9481 54.405 42.0302 54.4553C42.0967 54.5052 42.1628 54.5858 42.1787 54.6855C42.1787 54.8011 42.1628 54.8652 42.0967 54.95C42.0467 54.9978 41.9481 55.064 41.8656 55.064H41.815V55.3424C41.9971 55.3265 42.1628 55.2449 42.2778 55.1107C42.2778 55.3265 42.2618 55.4744 42.2123 55.5556C42.1303 55.6383 42.0467 55.6881 41.9481 55.6881C41.8986 55.7051 41.8486 55.7051 41.815 55.6881V56.001H41.9481C42.2283 55.9517 42.4759 55.818 42.6255 55.6542C42.8082 55.4744 42.8566 55.2109 42.8082 54.8652C42.7576 54.5545 42.6255 54.3233 42.4109 54.2226Z" fill="#006097"/>
<path fill-rule="evenodd" clip-rule="evenodd" d="M44.1635 54.0434V54.3233C44.1139 54.3567 44.0969 54.3567 44.0644 54.3567C44.0138 54.3726 43.9643 54.4219 43.9318 54.4882C43.8823 54.5858 43.8493 54.7517 43.8328 54.95C43.7997 55.1616 43.7997 55.3265 43.8328 55.3928C43.8493 55.4744 43.8823 55.5232 43.9318 55.572C43.9813 55.6059 44.0309 55.6383 44.0969 55.6383H44.1635V55.9193H44.0644C43.7997 55.8859 43.6006 55.818 43.436 55.6383C43.3034 55.5073 43.2204 55.2449 43.2875 54.8652C43.3034 54.5375 43.436 54.3074 43.6171 54.1759C43.7832 54.0603 43.9318 54.011 44.1635 54.0434ZM44.2785 54.0434H44.1635V54.3233C44.1965 54.3233 44.213 54.3233 44.246 54.3567C44.2955 54.3567 44.3451 54.3567 44.4116 54.405C44.4606 54.4219 44.4766 54.4882 44.5107 54.5545C44.5272 54.6351 44.5272 54.817 44.5107 55.0312C44.4766 55.2449 44.4606 55.3928 44.4116 55.4744C44.3786 55.5556 44.3291 55.6059 44.2785 55.6059C44.246 55.6383 44.1965 55.6383 44.1635 55.6383V55.9193C44.3786 55.9517 44.5597 55.8859 44.7088 55.818C44.9069 55.6881 45.0235 55.4251 45.0565 55.0784C45.1071 54.7517 45.0565 54.4882 44.8749 54.3074C44.7413 54.1759 44.5272 54.0603 44.2785 54.0434Z" fill="#006097"/>
<path fill-rule="evenodd" clip-rule="evenodd" d="M45.866 54.3567L45.7339 54.6351L46.8586 55.1107C46.545 55.2109 46.2792 55.3424 46.0481 55.5232C45.8175 55.7385 45.6519 55.9517 45.5518 56.1818L46.0316 56.3626C46.0811 56.2147 46.1802 56.0832 46.3298 55.8859C46.4938 55.7385 46.6765 55.606 46.8911 55.4745C47.0897 55.3748 47.3049 55.2942 47.4535 55.2449L47.5695 54.9978L45.866 54.3567Z" fill="#006097"/>
<path fill-rule="evenodd" clip-rule="evenodd" d="M33.7621 54.8652C33.6306 54.7184 33.3174 54.405 32.9851 54.1759C32.689 53.9288 32.3738 53.782 32.1917 53.9124C32.0101 54.0434 32.0596 54.1102 32.0441 54.2735C31.9936 54.3726 31.911 54.4554 31.8279 54.5376C31.7289 54.6192 31.4978 54.7677 31.3822 54.931C31.3652 55.0312 31.1995 54.9819 31.1836 55.0641C31.15 55.1293 31.1005 55.1956 31.133 55.2613C31.2331 55.606 31.9605 56.3138 31.9605 56.3138C31.9605 56.3138 32.3083 56.659 32.3083 56.6267C32.5394 56.8891 32.8035 57.1028 32.8706 57.1521C33.0022 57.1675 33.1678 57.1521 33.1337 57.1028C33.0022 56.8552 32.6379 56.6267 32.4899 56.4119C32.2747 56.133 32.0441 55.9193 31.8279 55.6542C31.7795 55.606 31.7289 55.5073 31.6794 55.4252C31.6463 55.3928 31.6463 55.3265 31.6794 55.2449C31.6959 55.1956 31.7795 55.1107 31.8615 54.9978C31.9605 54.817 32.1262 54.6351 32.1917 54.4554C32.2577 54.405 32.3567 54.3233 32.3567 54.3233C32.4398 54.2412 32.5889 54.2735 32.672 54.3074C32.7716 54.3233 33.0682 54.5858 33.4319 54.9501C33.6795 55.1956 33.7472 55.1616 33.8116 55.4411C33.8462 55.5556 33.7126 55.5233 33.7126 55.572C33.6641 55.7051 33.6641 55.8181 33.9288 55.8859C33.9778 55.9193 34.0773 55.9665 34.1263 55.9193C34.1594 55.8859 34.1263 55.835 34.1098 55.7385C33.9937 55.4252 34.0603 55.2942 33.7621 54.8652Z" fill="#006097"/>
<path fill-rule="evenodd" clip-rule="evenodd" d="M32.5064 55.1293C32.5064 55.0641 32.4558 54.9819 32.3738 54.9501C32.2577 54.931 32.0596 55.2109 32.0926 55.2613C32.0926 55.3424 32.1261 55.4252 32.1757 55.3928C32.2252 55.3928 32.5394 55.2613 32.5064 55.1293Z" fill="#006097"/>
<path fill-rule="evenodd" clip-rule="evenodd" d="M33.0357 55.3748C32.9031 55.3928 32.7546 55.4251 32.7221 55.4251C32.6225 55.5556 32.5889 55.6383 32.4398 55.7852C32.4558 55.7852 32.4063 55.9193 32.4558 55.9665C32.4899 56.0492 32.573 56.0991 32.672 56.1484C32.7546 56.1818 32.9527 56.23 33.0357 56.0169C33.0682 55.9193 32.9356 55.8674 32.8706 55.835V55.7852H32.9527C32.9527 55.7698 33.1337 55.835 33.1843 55.835C33.2509 55.7051 33.3499 55.5232 33.2509 55.3748C33.1843 55.2942 33.1337 55.3424 33.0357 55.3748Z" fill="#006097"/>
<path fill-rule="evenodd" clip-rule="evenodd" d="M38.5421 50.1642C38.574 50.1467 38.574 50.1467 38.6087 50.1149C38.4926 49.9834 38.344 49.7522 38.2945 49.7692C38.2599 49.8015 38.2439 49.8015 38.2103 49.8842C38.1619 49.9675 38.1773 50.0316 38.344 50.1467C38.4255 50.1642 38.475 50.1642 38.5421 50.1642Z" fill="#006097"/>
<path fill-rule="evenodd" clip-rule="evenodd" d="M39.7323 50.3424C39.7483 50.3784 39.7818 50.4267 39.7818 50.476C39.7483 50.5905 39.6987 50.6398 39.6657 50.6891C39.6162 50.7724 39.6492 50.8699 39.6987 50.9028C39.8809 50.9532 39.9139 50.6552 39.9139 50.4097C39.9139 50.2952 39.8809 50.1955 39.8809 50.1149C39.9139 50.0316 40.0619 49.9675 40.096 49.9834C40.1125 50.065 40.1445 50.1955 40.2275 50.3291C40.2771 50.4579 40.4102 50.5905 40.4597 50.6075C40.6914 50.6891 40.5913 50.5083 40.5913 50.3424C40.5913 50.3291 40.5588 50.3291 40.5417 50.3291C40.4762 50.3291 40.4267 50.3424 40.3761 50.2952C40.3601 50.2787 40.1951 49.9351 40.1951 49.8842C40.2275 49.8349 40.3601 49.7692 40.3761 49.7034C40.4102 49.6361 40.3761 49.5391 40.3601 49.5391C40.293 49.5725 39.9304 49.9834 39.8809 50.0316C39.8324 50.065 39.7818 50.065 39.7483 50.0316C39.7323 50.0147 39.6987 49.8349 39.9799 49.4558C40.0619 49.3254 40.0454 49.3254 39.9799 49.275C39.9304 49.2591 39.8638 49.3254 39.7818 49.3254C39.6987 49.3254 39.6492 49.3073 39.6492 49.275C39.6162 49.2267 39.6492 49.1446 39.6162 49.0952C39.5667 48.9627 39.3515 49.0459 39.253 49.1769C39.1534 49.3073 38.8398 49.9001 38.9708 50.0147C39.1039 50.0809 39.237 49.8015 39.3515 49.67C39.4847 49.5391 39.6162 49.5391 39.6492 49.5391C39.7818 49.5391 39.4847 49.9834 39.5997 50.3291C39.5997 50.4097 39.4676 50.5083 39.3845 50.4579C39.3845 50.4579 39.253 50.2458 39.1534 50.1955C39.1039 50.1955 39.0208 50.4097 39.1039 50.5083C39.1534 50.6398 39.4181 50.5905 39.0208 51.1181C38.9212 51.2146 38.9212 51.3652 38.9212 51.4786C38.9212 51.6266 38.9708 51.7581 39.0703 51.7581C39.203 51.7904 39.2866 51.6266 39.3025 51.5762C39.3515 51.529 39.4341 51.3159 39.4676 51.0831C39.4847 50.9208 39.4341 50.7724 39.4847 50.6398C39.5502 50.5407 39.6162 50.4579 39.7323 50.3424Z" fill="#006097"/>
<path fill-rule="evenodd" clip-rule="evenodd" d="M38.442 50.739C38.5741 50.5582 38.5245 50.4097 38.3105 50.2787C38.2439 50.2459 38.2945 50.4267 38.2945 50.5582C38.3105 50.5905 38.2945 50.739 38.2945 50.7883C38.2599 50.854 38.2945 51.0348 38.442 50.739Z" fill="#006097"/>
<path fill-rule="evenodd" clip-rule="evenodd" d="M38.7077 52.0709V51.7088C38.6741 51.6266 38.5245 51.4293 38.3924 51.0348C38.3589 50.9532 38.2598 50.9532 38.2598 51.0348C38.2598 51.0831 38.4255 51.5762 38.442 51.8896C38.475 52.1542 38.4926 52.4161 38.5245 52.6786C38.5421 52.8265 38.7902 53.1234 38.8398 53.0905C38.8888 53.0725 38.9212 53.0237 38.8563 52.7772C38.8057 52.5486 38.7562 52.3169 38.7077 52.0709Z" fill="#006097"/>
<path fill-rule="evenodd" clip-rule="evenodd" d="M41.5833 49.9834C41.5514 49.9675 41.5008 50.0147 41.4513 50.0147C41.2367 50.0316 41.0551 50.065 40.9065 50.0316C40.8559 50.0316 40.7904 50.0147 40.7904 49.9675C40.7739 49.9351 40.7904 49.8842 40.7904 49.8015C40.7904 49.7522 40.7739 49.67 40.7244 49.67C40.6408 49.67 40.5588 49.7522 40.5417 49.8015C40.4762 49.8508 40.4597 49.8842 40.4597 50.0316C40.4267 50.1149 40.4267 50.1642 40.4762 50.1955C40.5417 50.2459 40.6743 50.2459 40.7904 50.2459C41.0386 50.2787 41.3187 50.3291 41.4188 50.2787C41.5338 50.2459 41.6329 50.1642 41.6664 50.1467C41.6835 50.0809 41.6835 50.0147 41.5833 49.9834Z" fill="#006097"/>
<path fill-rule="evenodd" clip-rule="evenodd" d="M40.7244 50.722C40.6408 50.6891 40.5912 50.739 40.5092 50.8222C40.4267 50.9028 40.4762 51.2315 40.3761 51.3652C40.3761 51.3482 40.3266 51.3158 40.293 51.2315C40.277 51.1833 40.277 51.1181 40.195 51.0831C40.1444 51.0502 40.1444 51.134 40.096 51.1833C40.0129 51.2978 39.9634 51.3652 39.9304 51.3948C39.7978 51.4457 39.8638 51.1833 39.7482 51.1181C39.6987 51.0348 39.5997 51.1833 39.6162 51.3158C39.6162 51.3948 39.6657 51.529 39.6657 51.6085C39.6987 51.6928 39.6987 51.8074 39.6987 51.8408C39.7482 51.9723 39.7818 52.1361 39.8638 52.2363C39.9304 52.3339 40.0454 52.3169 39.9799 52.0709C39.9799 51.9389 39.8638 51.7087 39.9304 51.5762C39.9799 51.4956 40.096 51.4956 40.1444 51.5613C40.195 51.6266 40.195 51.7904 40.2435 51.8074C40.293 51.8896 40.3761 51.7904 40.4102 51.7087C40.4267 51.6928 40.4267 51.5762 40.4762 51.4457C40.4762 51.3652 40.5417 51.3158 40.5587 51.2315C40.5912 51.134 40.5912 51.0502 40.6743 51.0502C40.7739 51.0348 40.8229 51.1674 40.8724 51.2315C40.8724 51.3158 40.9065 51.3652 40.9225 51.4786C40.956 51.5613 40.9225 51.8074 40.9225 51.9723C40.9065 52.0545 40.9065 52.1048 40.9065 52.1361C40.956 52.186 41.0055 52.2029 41.0551 51.8408C41.0875 51.4457 41.1046 51.4457 41.0551 51.1674C41.0551 50.9532 40.8229 50.739 40.7244 50.722Z" fill="#006097"/>
<path fill-rule="evenodd" clip-rule="evenodd" d="M48.5132 50.0809C48.3801 50.1467 48.0824 50.3424 47.9013 50.5905C47.7032 50.8222 47.6686 50.9028 47.585 50.854C47.52 50.854 47.5365 50.854 47.4039 50.7724C47.2554 50.722 47.1393 50.722 47.0242 50.6891C46.9081 50.6552 46.7596 50.7724 46.7271 50.854C46.6765 50.9532 46.7271 50.9532 46.808 51.0025C46.8586 51.0502 47.1393 51.134 47.2229 51.134C47.2719 51.1181 47.3544 51.134 47.3384 51.1833C47.3384 51.2146 46.9917 51.4786 46.8586 51.5762C46.7271 51.6594 46.4624 51.8408 46.4129 51.9219C46.3128 52.0216 46.4454 52.1048 46.5279 52.1048C46.5764 52.1048 46.709 52.0046 46.9081 51.9389C47.1393 51.8896 47.3049 51.7904 47.4039 51.7088C47.52 51.6266 47.7181 51.3949 47.7676 51.3652C47.8337 51.3482 48.264 51.6594 48.3801 51.6594C48.4291 51.6266 48.5132 51.5614 48.5782 51.4956C48.6612 51.4293 48.6106 51.3482 48.5132 51.3482C48.3966 51.3159 48.1649 51.2315 48.0328 51.1674C47.9013 51.0831 48.0153 51.0348 48.0824 50.9532C48.1479 50.8699 48.4631 50.5905 48.6106 50.4267C48.7928 50.2787 48.8269 50.1642 48.7928 50.1467C48.7603 50.065 48.6447 50.065 48.5132 50.0809Z" fill="#006097"/>
<path fill-rule="evenodd" clip-rule="evenodd" d="M47.8821 51.9389C47.8337 51.9389 47.7676 52.0709 47.7181 52.1361C47.7032 52.186 47.7517 52.2846 47.7517 52.3832C47.7676 52.4988 47.9013 52.7279 47.9822 52.7772C48.0328 52.8106 48.0824 52.7279 48.1985 52.581C48.2964 52.4161 48.2964 52.4161 48.1649 52.2363C48.0648 52.0709 47.9822 51.9389 47.8821 51.9389Z" fill="#006097"/>
<path fill-rule="evenodd" clip-rule="evenodd" d="M55.8206 55.0641C55.7711 54.9501 55.4404 54.8498 55.3567 54.8011C55.2247 54.7518 55.3237 54.6685 55.3237 54.6351C55.3083 54.5858 55.1927 54.6192 55.1427 54.5545C55.0931 54.5052 55.0931 54.422 55.1262 54.405C55.1262 54.3726 55.1427 54.3567 55.0931 54.3074C55.0436 54.2411 55.0436 54.3074 54.878 54.3074C54.7294 54.3074 54.7294 54.3233 54.7294 54.3567C54.7294 54.405 54.7294 54.4554 54.6464 54.4882C54.5473 54.5052 54.4648 54.5375 54.4158 54.6192C54.3322 54.7184 54.2826 54.7518 54.2826 54.7677C54.2826 54.8011 54.3322 54.817 54.3657 54.817C54.4158 54.817 54.5968 54.7184 54.6788 54.6855C54.7294 54.6685 54.911 54.6192 54.9446 54.6351C54.9941 54.6685 54.9941 54.7518 54.9605 54.7518C54.9446 54.7677 54.911 54.7677 54.8626 54.7518C54.7789 54.7518 54.5643 54.817 54.4967 54.8652C54.4158 54.931 54.3817 54.9978 54.4312 55.0312C54.4967 55.1107 54.9446 55.1107 55.0436 55.0784C55.0596 55.0784 55.0931 54.9501 55.2247 54.9501C55.3083 54.9501 55.4073 55.0312 55.4569 55.0641C55.5053 55.1107 55.5564 55.1107 55.5394 55.1616C55.5394 55.2109 55.4569 55.2109 55.3733 55.2449C55.3237 55.2449 55.3083 55.2109 55.3083 55.1616C55.3083 55.1107 55.2747 55.0784 55.1927 55.1107C55.1262 55.1107 55.0101 55.1956 54.911 55.2109C54.779 55.2449 54.5148 55.2613 54.4648 55.2613C54.4158 55.2613 54.1511 54.8652 54.0675 54.817C54.0196 54.7518 54.051 54.7184 54.051 54.6685C54.051 54.6351 54.5473 54.3567 54.6953 54.2735C54.878 54.1902 54.911 54.1102 54.911 54.0434C54.878 53.9288 54.6953 53.9787 54.5968 54.0603C54.4967 54.1102 54.2491 54.3074 54.1996 54.3726C54.1341 54.422 54.051 54.5375 54.0015 54.5052C53.9189 54.4882 53.9189 54.3233 53.8864 54.2735C53.8694 54.2226 53.8199 54.2226 53.7368 54.2226C53.6207 54.2411 53.5712 54.3567 53.3246 54.4882C53.2075 54.5545 53.159 54.5545 53.1095 54.6192C53.0759 54.6351 53.0759 54.7184 53.1095 54.7518C53.159 54.8011 53.2905 54.7677 53.3731 54.7518C53.4396 54.7518 53.5057 54.6855 53.5552 54.6685C53.5712 54.6685 53.7368 54.8498 53.8358 54.931C53.936 54.9978 54.2826 55.4251 54.3322 55.4411C54.5148 55.5556 54.7294 55.8674 54.7294 55.8859C54.7454 55.9193 54.779 55.9665 54.7294 56.001C54.6464 56.0492 54.6464 56.0492 54.6464 56.0991C54.6788 56.133 54.878 56.2799 54.9446 56.3138C55.0101 56.3138 55.1927 56.3138 55.2247 56.23C55.2747 56.2147 55.1927 56.1484 55.1757 56.0991C55.1262 56.0492 55.1262 55.9193 55.0436 55.8674C54.9446 55.8181 54.5968 55.3928 54.5968 55.3928C54.5968 55.3748 54.8285 55.3265 54.878 55.3424C54.9446 55.3748 54.9446 55.4745 55.0436 55.5073C55.0931 55.5073 55.0931 55.4745 55.1427 55.4745C55.2247 55.4411 55.2247 55.4745 55.4893 55.4745C55.754 55.4411 55.7711 55.4251 55.8206 55.3265C55.8701 55.2613 55.9026 55.1616 55.8206 55.0641Z" fill="#006097"/>
<path fill-rule="evenodd" clip-rule="evenodd" d="M54.0675 55.6881C54.0509 55.6383 53.7368 55.2942 53.6542 55.2449C53.5711 55.2109 53.5216 55.2109 53.4721 55.2449C53.4396 55.2942 53.373 55.3748 53.3406 55.3928C53.3246 55.4251 53.4226 55.5073 53.4721 55.5232C53.5216 55.572 53.6047 55.6881 53.6542 55.7051C53.7368 55.7385 53.8358 55.7051 53.8198 55.7852C53.8198 55.835 53.6542 55.9665 53.5711 55.9517C53.4226 55.9517 53.2905 55.7051 53.1249 55.572C53.0759 55.5232 52.9763 55.5232 52.9273 55.5232C52.8778 55.4745 52.8112 55.5232 52.8112 55.5556C52.8112 55.606 52.8778 55.6542 52.8778 55.7051C52.8943 55.7852 52.9438 55.818 53.0264 55.8674C53.159 55.9517 53.2905 56.0832 53.3406 56.133C53.373 56.1818 53.4226 56.23 53.2569 56.3138C53.1249 56.3955 52.9438 56.4448 52.7942 56.3955C52.6291 56.3138 52.5295 56.2147 52.513 56.0991C52.48 56.0169 52.431 56.133 52.3969 56.2147C52.3809 56.2799 52.2979 56.3955 52.316 56.4448C52.3474 56.493 52.3474 56.5254 52.48 56.5763C52.6131 56.5927 52.9273 56.6749 53.0599 56.659C53.3406 56.6267 53.4396 56.4119 53.5056 56.4119C53.5216 56.4119 53.5711 56.493 53.6207 56.5254C53.6542 56.5434 53.7368 56.7083 53.8358 56.7083C53.9189 56.7083 54.0195 56.6749 53.9684 56.493C53.9359 56.4119 53.8694 56.4119 53.7533 56.2629C53.7533 56.2147 53.8198 56.0991 53.8358 56.0991C53.8694 56.133 54.1995 56.133 54.2491 56.0991C54.2826 56.0832 54.3321 55.9193 54.3161 55.8859C54.3161 55.835 54.1005 55.7051 54.0675 55.6881Z" fill="#006097"/>
<path fill-rule="evenodd" clip-rule="evenodd" d="M36.4753 63.6135C36.4418 63.6639 36.4088 63.6962 36.3752 63.7291C36.1105 64.1565 35.7468 65.5865 35.8629 66.2445C35.979 66.8527 36.0285 67.2472 36.4753 67.7907V63.6135ZM36.4753 57.8589V59.1903C36.2107 59.4374 35.9295 59.4867 36.044 59.6495C36.1105 59.7815 36.2762 59.7661 36.4753 59.8314V60.7349C36.3917 60.7025 36.2932 60.7025 36.1941 60.7025C35.6478 60.7349 35.3336 61.0154 35.3336 61.246C35.3336 61.4926 35.5982 64.237 35.5162 64.6989C35.4326 65.1761 34.8373 66.7206 35.0194 67.4773C35.2345 68.2011 35.9955 68.8914 36.1771 68.8914C36.2431 68.875 36.3582 68.8241 36.4753 68.7748V71.506C35.8629 70.8336 34.6727 69.4503 34.2919 68.6279C33.7621 67.4943 34.1098 66.8034 34.2595 65.6517C34.424 64.5011 34.3745 62.6421 34.2089 61.623C34.0273 60.2264 34.4411 60.1288 34.8878 59.6834C35.3 59.2736 35.7468 59.1903 35.8629 58.5821C35.9124 58.1373 35.5982 57.9395 35.5652 57.6951C35.5317 57.4967 36.1446 57.5954 36.4753 57.8589ZM36.4753 59.1903V57.8589C36.5408 57.9082 36.6069 57.974 36.6399 58.0397C36.8545 58.4003 36.8705 58.7948 36.5573 59.1071C36.5408 59.141 36.5078 59.1739 36.4753 59.1903ZM36.4753 60.7349C36.7725 60.8022 36.9706 61.0154 37.1192 61.0641V61.0986V60.2932C37.0856 60.2264 37.0526 60.2099 37.0041 60.1628C36.822 59.9475 36.6228 59.8653 36.4753 59.8314V60.7349ZM36.4753 67.7907C36.5078 67.841 36.5408 67.8734 36.5903 67.9216C36.7389 68.0685 36.9535 68.1846 37.1192 68.2832V66.9179C37.0856 66.8696 37.0526 66.8187 37.0526 66.8034C36.8705 66.4746 36.6734 65.8505 36.806 65.1268C36.9051 64.4359 36.8545 64.2036 37.0856 64.0748L37.1192 64.0568V62.9565C36.8545 63.219 36.6069 63.4491 36.4753 63.6135V67.7907ZM36.4753 71.506C36.707 71.77 36.8545 71.9169 36.8545 71.9169C36.8545 71.9169 36.7725 72.1804 36.6734 72.3941C36.5903 72.6253 36.806 72.6735 36.9221 72.6735C36.9535 72.6735 37.0526 72.5749 37.1192 72.4434V70.1083C36.8705 69.9598 36.6734 69.6974 36.5903 69.4832C36.5408 69.288 36.3257 69.1539 36.6734 69.0733C36.7389 69.0733 36.9221 69.0733 37.1192 69.0903V68.6459C37.0041 68.6783 36.8705 68.6783 36.7725 68.6783C36.6553 68.6942 36.5573 68.7276 36.4753 68.7748V71.506ZM37.2352 70.1751V72.1963C37.2022 72.2457 37.1527 72.3443 37.1192 72.4106V70.1083C37.1527 70.1422 37.2022 70.1576 37.2352 70.1751ZM37.2352 68.6459V69.1062C37.2022 69.1062 37.1527 69.1062 37.1192 69.0903V68.6459H37.2352ZM37.2352 67.1167V68.3485L37.1192 68.2832V66.9179C37.1527 66.9847 37.2022 67.0504 37.2352 67.1167ZM37.2352 62.8409V63.9756C37.2022 63.9915 37.1527 64.0244 37.1192 64.0568V62.9565L37.2352 62.8409ZM37.2352 60.4724V61.0986C37.2022 61.1145 37.1697 61.0986 37.1192 61.0986V60.2932C37.1697 60.342 37.2022 60.4077 37.2352 60.4724ZM38.9212 73.0521C39.2029 73.1672 39.4676 73.2494 39.6657 73.2987V71.6878C39.5171 71.6544 39.3845 71.5707 39.4847 71.3241C39.5171 71.2106 39.5997 71.0786 39.6657 70.9466V70.1422C39.4676 70.4386 39.1534 70.7976 38.9212 70.9466V73.0521ZM39.6657 61.5435C39.3845 61.5435 39.0703 61.5435 38.9212 61.5095V62.018C39.1534 61.9348 39.4676 61.8552 39.6657 61.8552V61.5435ZM38.9212 66.7206C39.1039 66.0303 39.3515 65.2747 39.4676 64.8643C39.4847 64.8134 39.5997 64.8298 39.6657 64.7811V64.2879C39.6492 64.2879 39.6162 64.2545 39.6492 64.2036C39.6492 64.1893 39.6657 64.123 39.6657 64.0748V63.0377V63.0541C39.5997 63.2688 39.5171 63.5302 39.4181 63.7938C39.2866 64.2545 39.4341 64.3866 39.0544 64.4698H38.9212V64.8643C39.0208 64.8643 39.1039 64.8643 39.0703 64.8807C39.0544 64.9613 39.0208 65.2254 38.9212 65.5372V66.7206ZM39.6657 68.0547C39.4847 68.0202 39.1534 68.0547 38.9212 68.0547V68.4471C39.0544 68.464 39.1694 68.464 39.253 68.4964C39.4341 68.4964 39.5171 68.5128 39.6657 68.8082V68.8421V68.0547ZM39.6657 73.2987V71.6878C39.7483 71.7038 39.8638 71.7038 39.9304 71.7038C39.9799 71.7038 40.0454 71.7361 40.096 71.7361V73.3634C39.9799 73.3634 39.8809 73.3634 39.7818 73.331C39.7483 73.331 39.6987 73.2987 39.6657 73.2987ZM39.6657 64.0748V63.0377C39.8638 62.5122 39.9799 62.1336 39.9799 61.904C39.9799 61.8552 39.8809 61.8208 39.6657 61.8552V61.5435H40.096V62.8409C39.9634 63.1856 39.7978 63.6639 39.6657 64.0748ZM39.6657 64.7811C39.6987 64.7811 39.7483 64.7811 39.7818 64.7302C39.7978 64.683 39.8324 64.5011 39.7978 64.3866C39.7978 64.3049 39.7323 64.3049 39.6657 64.2879V64.7811ZM40.096 68.3988V70.5372C39.9634 70.6178 39.7978 70.7652 39.6657 70.9466V70.1422C39.7978 69.9768 39.8809 69.8612 39.8809 69.7965C39.9304 69.6146 39.7978 69.1539 39.6657 68.8421V68.0547C39.6987 68.0547 39.7323 68.0685 39.7483 68.0685C39.9139 68.1353 39.9799 68.1846 40.096 68.3988ZM40.096 73.3634C40.293 73.3803 40.5092 73.4132 40.6743 73.4132V71.7361C40.5417 71.8193 40.3266 71.77 40.096 71.7361V73.3634ZM40.096 62.8409C40.195 62.4799 40.2771 62.2497 40.293 62.1999C40.3266 62.1156 40.5417 62.1336 40.6743 62.1336V61.623C40.5913 61.5748 40.3601 61.5435 40.096 61.5435V62.8409ZM40.6743 69.3845C40.3761 69.4169 40.2771 69.4169 40.162 68.8421C40.1445 68.6279 40.1125 68.4964 40.096 68.3988V70.5372C40.1125 70.5038 40.162 70.5038 40.162 70.5038C40.2771 70.5038 40.4102 70.9312 40.4597 71.1274C40.5092 71.2419 40.6083 71.3899 40.6743 71.5229V71.5558V70.1751C40.6408 70.0919 40.6083 70.042 40.6743 69.9598V69.3845ZM40.6743 63.8436C40.5588 64.1071 40.4267 64.3712 40.3761 64.5011C40.1125 65.2084 40.0619 65.8829 40.2275 66.4083C40.3761 66.9025 40.5417 67.2472 40.6743 67.4943V67.5266V63.8436ZM40.6743 73.4132V71.7361C40.7244 71.6879 40.7244 71.6375 40.6743 71.5558V70.1899C40.6914 70.2239 40.7244 70.2732 40.7409 70.3543C40.8229 70.5844 40.9225 70.7483 41.0551 71.1926C41.1701 71.4736 41.2367 71.6375 41.3187 71.7038V74.2685C41.1701 74.3846 40.956 74.1852 40.956 74.1852C40.956 74.1852 41.0056 74.0373 41.0386 73.9069C41.0876 73.8236 41.0876 73.725 41.1376 73.6274C41.1872 73.4636 41.0056 73.4636 40.6743 73.4132ZM40.6743 62.1336C40.6914 62.1336 40.6914 62.1336 40.7244 62.1156C40.8559 62.0689 40.9065 61.7725 40.6743 61.623V62.1336ZM41.3187 62.6421V64.0568C41.1376 64.2036 41.0876 64.683 41.0551 64.9613C40.972 65.5218 41.1376 65.9317 41.3187 66.2774V70.059C41.2692 70.042 41.2207 70.042 41.1701 70.0081C40.8559 69.8612 40.8229 69.7965 40.6914 69.9598H40.6743V69.3845C40.6914 69.3845 40.6914 69.3522 40.7244 69.3522C41.0386 69.3522 41.2862 69.3522 41.2862 69.0903C41.2862 68.8591 41.1872 68.3988 41.0551 68.2011C40.956 68.0202 40.8229 67.823 40.6743 67.5266V63.8436C40.7904 63.5472 40.9225 63.2688 41.0056 63.1034C41.1046 62.8733 41.1872 62.7916 41.3187 62.6421ZM41.3187 60.2099V60.8351C41.2367 60.7518 41.1872 60.6559 41.2207 60.4395C41.2367 60.342 41.2692 60.2603 41.3187 60.2099ZM41.3187 74.2685C41.3187 74.252 41.3522 74.252 41.3522 74.252C41.4023 74.1699 41.4673 74.005 41.5008 73.8072C41.5514 73.5617 41.6009 73.4965 41.6009 73.4965C41.6009 73.4965 41.9481 73.5124 42.3443 73.5431V72.0495C42.2778 72.0314 42.2283 71.9991 42.2123 71.9493C42.0467 71.6878 42.1787 71.3411 42.3443 70.8973V69.6146C42.1787 69.647 42.1303 69.1708 42.1303 68.9073C42.0967 68.6783 42.0302 68.6459 42.0797 68.2832C42.0797 68.1528 42.2123 68.235 42.3443 68.3325V67.4773C42.0797 67.3129 41.7655 67.0504 41.5834 66.771C41.5008 66.6401 41.4023 66.4746 41.3187 66.2943V66.2774V70.059C41.5514 70.1899 41.6835 70.305 41.815 70.3543C41.9806 70.4386 42.0302 70.5521 41.9151 71.0129C41.7809 71.4736 41.716 71.77 41.5338 71.7844C41.4513 71.7844 41.3682 71.7844 41.3187 71.7038V74.2685ZM42.3443 60.6697C42.2123 60.5228 42.1303 60.3579 42.0302 60.2932C41.8986 60.176 41.5008 59.9809 41.3187 60.2099V60.8351C41.4513 60.9337 41.6664 60.9167 41.8986 60.9984C42.1787 61.0641 42.2778 61.3287 42.2123 61.4592C41.9806 61.8552 41.716 62.1156 41.4673 62.429C41.4023 62.5292 41.3522 62.5944 41.3187 62.6421V64.0568C41.3522 64.0244 41.3522 63.9915 41.4023 63.9915C41.6009 63.9433 42.0467 64.5011 42.3443 64.6989V63.6798C42.1628 63.3494 41.9481 62.9072 42.1303 62.5122C42.1628 62.3796 42.2283 62.2662 42.3443 62.1336V60.6697ZM43.2204 65.7827V68.7106C43.1549 68.6783 43.0894 68.7106 43.0388 68.7276C42.9062 68.7748 42.8566 69.0219 42.7576 69.4662C42.675 69.9275 42.6255 69.9105 42.4434 70.5372C42.4109 70.6353 42.3949 70.7652 42.3443 70.8808V70.8973V69.6146C42.494 69.5987 42.527 69.1539 42.5435 68.9577C42.6255 68.6459 42.675 68.5796 42.527 68.464C42.494 68.4471 42.4109 68.3988 42.3443 68.3325V67.4773V67.4943C42.494 67.5759 42.6255 67.6242 42.7246 67.6242C42.8407 67.6242 43.0718 66.5563 43.2204 65.7827ZM43.2204 64.4189V64.8807C43.0223 64.8298 42.6585 64.8807 42.4434 64.7811C42.4109 64.7641 42.3949 64.7302 42.3443 64.6989V63.6798V63.7111C42.4109 63.8601 42.527 63.9915 42.576 64.1071C42.7081 64.2879 42.9722 64.3866 43.2204 64.4189ZM42.3443 73.5431V72.0495V72.0823C42.5435 72.1481 42.9062 72.0977 43.2204 72.0314V73.5617H43.1708C42.9892 73.5617 42.6585 73.5617 42.3443 73.5431ZM43.2204 61.0641V61.4926C43.0894 61.5435 42.9892 61.5901 42.8566 61.6734C42.675 61.8038 42.494 61.9528 42.3443 62.1336V60.6697C42.494 60.9167 42.6585 61.1145 42.7576 61.0986C42.8566 61.0986 43.0388 61.0641 43.2204 61.0641ZM43.2204 73.5617C43.4856 73.5617 44.0644 73.5431 44.5938 73.5431H44.6092V72.1301H44.5938C44.3451 72.2122 44.1965 72.1481 44.2785 71.9991C44.3291 71.9015 44.4766 71.7038 44.5938 71.6375H44.6092V70.9805C44.6092 70.9805 44.5938 70.9805 44.5938 71.0129C44.5597 71.2419 44.0138 71.7361 43.7007 71.9015C43.6006 71.9169 43.4025 71.9991 43.2204 72.0314V73.5617ZM44.6092 68.9073L44.5938 68.8914C44.2785 68.5128 43.2539 67.9386 43.2539 67.9386C43.2204 67.8893 43.2204 67.841 43.2204 67.7907V67.6592C43.2539 67.0324 43.7007 65.7196 43.7832 65.2254C43.7832 65.1432 43.7998 65.0446 43.8328 64.8807C43.8823 64.7641 44.213 64.8807 44.1454 64.4359C44.1454 64.3373 44.0644 64.1071 44.0644 64.0568C44.246 63.4836 44.4281 62.8409 44.5938 62.3796L44.6092 62.3473V60.8022H44.5938C44.2785 60.8022 43.9813 60.8351 43.7502 60.9337C43.6006 60.9984 43.4025 61.0493 43.2204 61.0641V61.4926C43.4025 61.4422 43.6171 61.377 43.8823 61.2794C44.3291 61.1474 44.3786 61.4422 44.3786 61.4422C44.3786 61.4422 44.4281 61.6903 44.1635 62.3966C43.8988 63.1373 43.7007 64.3373 43.5186 64.4189C43.436 64.4359 43.337 64.4359 43.2204 64.4189V64.8807C43.3034 64.8807 43.337 64.911 43.337 64.9613C43.337 65.0112 43.3034 65.3245 43.2204 65.7196V68.7106C43.353 68.7276 43.4856 68.8914 43.6672 68.9577C43.9318 69.1221 44.1139 69.2032 44.1635 69.7472C44.213 70.305 44.5597 70.6841 44.5938 70.9312H44.6092V68.9073ZM44.6092 62.3473C44.7413 61.9852 44.8403 61.6903 44.8749 61.641C44.974 61.4592 45.3196 61.3627 45.4202 61.3287C45.7174 61.3118 45.6519 61.1474 45.5188 60.9984C45.4527 60.9167 45.1566 60.869 44.7919 60.8351C44.7088 60.8022 44.6593 60.8022 44.6092 60.8022V62.3473ZM46.0481 63.1856V65.5218C46.0316 65.7026 45.965 65.8829 45.949 66.0303C45.9166 66.4253 45.949 66.7206 46.0481 66.9025V70.4869C45.9166 70.5844 45.7834 70.6687 45.6519 70.7652C45.2871 70.9805 45.2871 71.2419 45.3707 71.506C45.4043 71.7361 45.7834 71.9169 46.0481 71.9493V74.0877C45.9001 74.2521 45.6519 74.137 45.6519 74.137C45.6519 73.9557 45.6024 74.005 45.6844 73.8565C45.7339 73.6773 45.7669 73.5431 45.7669 73.5431H44.6092V72.1301C44.8749 72.0314 44.9069 72.0314 44.9575 71.7844C44.974 71.6035 44.8243 71.5707 44.6928 71.6035C44.6593 71.6035 44.6433 71.6035 44.6092 71.6375V68.9073C44.6593 68.9413 44.6928 68.9906 44.6928 69.0409C44.8243 69.3845 44.974 70.5844 45.1385 70.6178C45.2871 70.6353 45.7174 70.1422 45.7834 69.9105C45.949 69.4349 45.2871 68.8914 45.089 68.5473C44.8749 68.2011 44.5597 66.8034 44.9069 65.6517C45.0565 65.0939 45.6024 63.9756 46.0481 63.1856ZM46.0481 74.0877C46.0982 74.0373 46.1306 73.9557 46.1477 73.8565C46.1802 73.6911 46.1802 73.5617 46.2297 73.4132C46.2632 73.3803 46.4454 73.3634 46.7596 73.2817C46.8416 73.2817 46.9081 73.2494 46.9917 73.2324V71.5558C46.9081 71.5558 46.8911 71.4561 46.8911 71.2106C46.8911 71.0298 46.9412 70.8146 46.9917 70.6353V69.3034L46.9577 69.3352C46.8911 69.4349 46.8416 69.5166 46.7596 69.4832C46.6765 69.4832 46.5764 69.3522 46.4129 69.0409C46.2792 68.7748 46.2137 68.4471 46.4454 68.2011C46.545 68.1035 46.644 68.0547 46.7596 68.0547C46.8416 68.0202 46.9081 68.0547 46.9917 68.0547V67.4773C46.9081 67.4449 46.8416 67.4449 46.7596 67.428C46.5764 67.428 46.4454 67.3458 46.3634 67.3129C46.2632 67.2132 46.1306 67.1167 46.0481 66.9179V66.9025V70.4869C46.2137 70.3713 46.3298 70.2732 46.4624 70.1899C46.5449 70.1422 46.709 70.0919 46.7596 70.1899C46.7766 70.2414 46.7766 70.322 46.7596 70.454C46.7271 70.5038 46.7271 70.5372 46.7271 70.5521C46.545 71.0298 46.4454 71.9169 46.1802 71.9493H46.0481V74.0877ZM46.9917 62.018C46.9081 62.0689 46.8416 62.1336 46.7596 62.1999C46.5945 62.3303 46.4624 62.464 46.3958 62.5944C46.3128 62.7423 46.1802 62.9242 46.0481 63.1517V65.5218V65.4879C46.1802 64.8807 46.3958 64.2879 46.4624 64.1565C46.5764 63.9756 46.627 64.0748 46.7596 64.1893C46.808 64.2036 46.8416 64.2545 46.8911 64.2545C46.9081 64.2545 46.9577 64.2879 46.9917 64.3049V62.018ZM46.9917 60.176C46.9081 60.176 46.8416 60.176 46.7596 60.2099C46.6765 60.2099 46.627 60.2264 46.5764 60.2932C46.2297 60.6203 46.4454 60.8022 46.7596 60.9167C46.8416 60.9337 46.9081 60.965 46.9917 60.965V60.176ZM47.6191 67.1326V68.3325C47.4375 68.7106 47.3544 69.3034 47.2719 69.6146C47.2229 69.8278 47.1393 70.0919 47.0738 70.3713C47.0402 70.454 47.0242 70.5372 46.9917 70.6353V69.3034C47.0242 69.2546 47.0402 69.2032 47.0738 69.1539C47.0897 69.0218 47.1233 68.8421 47.1728 68.5966C47.2719 68.235 47.2058 68.1353 47.0738 68.1035C47.0402 68.0685 47.0242 68.0685 47.0242 68.0685L46.9917 68.0547V67.4773H47.0738C47.2229 67.4773 47.3869 67.4449 47.487 67.3951C47.5365 67.3797 47.5695 67.2636 47.6191 67.1326ZM46.9917 73.2324V71.5558C47.0242 71.5707 47.0402 71.5707 47.0738 71.5707C47.1728 71.5558 47.3384 71.4736 47.585 71.3899H47.6191V72.971C47.4039 73.0686 47.2229 73.1508 47.0738 73.2001C47.0402 73.2001 47.0242 73.2001 46.9917 73.2324ZM47.6191 61.5901V62.1999C47.5365 62.2662 47.487 62.3473 47.4375 62.3966C47.2553 62.7095 47.1393 62.7916 47.2058 63.3494C47.2229 63.7614 47.4039 63.9915 47.6191 64.123V64.6989C47.4375 64.649 47.2229 64.4698 47.0738 64.3712C47.0402 64.3373 47.0242 64.3049 46.9917 64.3049V62.018C47.0242 61.9852 47.0402 61.9852 47.0738 61.9528C47.2229 61.8208 47.4375 61.7232 47.6191 61.5901ZM47.6191 60.3907V61.1797C47.52 61.1145 47.4039 61.0641 47.3049 61.0493C47.2553 61.0154 47.1393 61.0154 47.0738 60.9984C47.0402 60.9984 47.0242 60.9984 46.9917 60.965V60.176H47.0738C47.2229 60.2099 47.4039 60.2932 47.5695 60.3579C47.5695 60.3579 47.585 60.3907 47.6191 60.3907ZM47.6191 56.1818V56.3955C47.2553 56.2147 47.2553 56.0991 47.6191 56.1818ZM47.6191 72.971C47.7517 72.9206 47.8821 72.8374 48.0328 72.7881V71.1926C47.9013 71.26 47.7517 71.3411 47.6191 71.3899V72.971ZM48.0328 60.8351C47.9338 60.6559 47.7676 60.4894 47.6191 60.3907V61.1797C47.7517 61.246 47.8821 61.3287 47.9823 61.377C47.8821 61.4422 47.7517 61.5095 47.6191 61.5901V62.1999C47.7181 62.0689 47.8821 61.9348 48.0328 61.8038V60.8351ZM48.0328 67.3129C47.9508 67.2965 47.9823 67.0324 48.0328 66.6061V64.237C47.9013 64.2545 47.7517 64.237 47.6191 64.123V64.6989C47.6686 64.7302 47.7181 64.7641 47.7676 64.7641C47.8821 64.7302 48.0153 64.6989 48.0328 64.683V64.6989C48.0153 64.8643 47.9013 65.6517 47.8012 66.0133C47.7517 66.2774 47.7032 66.8187 47.6191 67.1326V68.3325C47.6686 68.2011 47.7181 68.1353 47.8012 68.0685C47.8821 68.0547 47.9508 68.0038 48.0328 67.9699V67.3129ZM48.0328 56.3138C47.9823 56.3138 47.9508 56.2799 47.9013 56.2629C47.8012 56.23 47.7032 56.2147 47.6191 56.1818V56.3955C47.7032 56.4448 47.7676 56.4612 47.8821 56.5254C47.9338 56.5763 47.9823 56.5927 48.0328 56.6266V56.3138ZM37.2352 61.0986C37.3838 61.0816 37.4333 60.8022 37.2352 60.4724V61.0986ZM37.2352 63.9756V62.8409C37.7811 62.3473 38.344 61.8552 38.3104 61.755C38.2944 61.3118 38.0788 61.4592 37.8141 61.1797C37.6155 60.8833 37.7316 60.3579 38.4254 60.7518C38.7402 60.9337 38.5245 61.3118 38.8398 61.4926C38.8563 61.5095 38.8888 61.5095 38.9212 61.5095V62.018C38.8563 62.035 38.8057 62.0689 38.7402 62.0854C38.3924 62.3303 38.2439 62.3303 38.0287 62.693C37.6325 63.4157 38.0287 63.5302 38.1773 63.8929C38.3924 64.3049 38.6241 64.4698 38.9212 64.4698V64.8643C38.7562 64.8643 38.5245 64.8807 38.3924 64.8134C38.1618 64.683 37.9952 64.5011 37.665 64.0748C37.4999 63.8775 37.3678 63.9094 37.2352 63.9756ZM37.2352 72.1963V70.1751C37.2858 70.1899 37.3343 70.2069 37.4003 70.2239C37.4839 70.2414 37.6155 69.9598 37.665 69.6974C37.7151 69.4349 37.8466 69.2546 37.7151 69.1708C37.698 69.1708 37.4839 69.1396 37.2352 69.1062V68.6459C37.4333 68.6459 37.5819 68.6459 37.5819 68.5796C37.5819 68.5298 37.4333 68.4471 37.2352 68.3485V67.1167C37.6325 67.6242 38.0447 67.841 38.1773 67.823C38.344 67.7907 38.442 66.9179 38.6741 66.3755C38.7562 66.1443 38.8563 65.832 38.9212 65.5372V66.7376C38.7402 67.428 38.6086 68.0038 38.6741 68.0202C38.7077 68.0547 38.8057 68.0547 38.9212 68.0547V68.4471C38.7077 68.4142 38.4925 68.4471 38.442 68.5473C38.4254 68.6783 38.7562 69.1221 38.7077 69.288C38.574 69.5653 38.2103 69.2546 38.1618 69.4169C37.9952 69.9105 37.8466 70.4036 37.8141 70.5372C37.7971 70.7483 38.0287 70.7165 38.2103 70.8496C38.4254 70.9466 38.442 71.1926 38.7562 71.0627C38.8057 71.0298 38.8563 71.0129 38.9212 70.9466V73.0521C38.2439 72.7557 37.5324 72.3443 37.2677 72.1301C37.2677 72.1301 37.2517 72.1481 37.2352 72.1963ZM48.9914 70.454V72.1963C48.9584 72.2303 48.9094 72.2637 48.8753 72.278C48.5782 72.4768 48.2964 72.6253 48.0328 72.7557V71.1926C48.4631 70.9312 48.8423 70.6014 48.9914 70.454ZM48.9914 67.2636V67.8893C48.9584 67.8569 48.9094 67.841 48.8753 67.841C48.6447 67.841 48.2964 67.8893 48.0328 67.9699V67.3129C48.33 67.3612 48.7603 67.2636 48.9914 67.2636ZM48.9914 60.965V62.7916C48.8923 63.1034 48.7928 63.4327 48.6937 63.7938C48.6612 63.9269 48.8753 64.0568 48.8753 64.2036C48.8423 64.683 48.5132 64.5997 48.4791 64.7641C48.2964 65.437 48.1479 66.1119 48.0328 66.5891V64.237C48.0824 64.2036 48.1143 64.2036 48.1479 64.2036C48.2964 64.123 48.3801 63.5796 48.4631 63.219C48.5286 62.8409 48.7928 62.0689 48.8753 61.8208C48.9584 61.623 48.9259 61.229 48.5782 61.4422C48.429 61.5095 48.2469 61.641 48.0328 61.8038V60.8351C48.1649 60.9984 48.2469 61.1145 48.2964 61.229C48.5286 61.1145 48.7097 61.0493 48.7928 61.0154C48.8593 60.9984 48.9259 60.982 48.9914 60.965ZM48.9914 56.8228V57.4315C48.6937 57.1198 48.363 56.8228 48.0328 56.6266V56.3138C48.347 56.4289 48.6767 56.6086 48.9914 56.8228ZM48.9914 57.4315V56.8228C49.4707 57.1675 49.9334 57.5954 50.3312 58.0063H50.3648V59.1903H50.3312C50.2317 59.01 50.1315 58.8287 49.967 58.6314C49.7689 58.3684 49.4046 57.8764 48.9914 57.4315ZM48.9914 62.7916V60.965C49.2885 60.9167 49.5037 60.9984 49.5037 60.9984C49.5037 60.9984 50.5123 61.1797 49.4707 61.5095C49.4046 61.5254 49.223 62.053 48.9914 62.7916ZM48.9914 72.1963V70.454L49.0084 70.4386C49.2065 70.2239 49.5213 69.4832 49.5213 69.2546C49.5213 69.0409 49.2726 68.1194 48.9914 67.8893V67.2636C49.0409 67.2472 49.0745 67.2636 49.1075 67.2636C49.2885 67.3458 49.6038 68.3325 49.6363 68.4142C49.6363 68.4142 49.5037 63.6639 49.7849 62.5122C49.885 62.0689 50.1315 61.7232 50.3312 61.4592H50.3648V62.3796H50.3312C50.2657 62.5292 50.2317 62.6601 50.2317 62.7423C50.2317 62.9242 50.2657 63.1517 50.3312 63.1373H50.3648V69.0219C50.3648 69.0409 50.3648 69.0409 50.3312 69.0409C50.3312 69.0903 50.3153 69.1539 50.2812 69.2032C50.1001 69.665 49.8679 69.9598 49.8679 69.9598C49.6363 70.322 49.5213 70.6178 50 70.2414C50.1315 70.0919 50.2317 69.9598 50.3312 69.8278C50.3648 69.8278 50.3648 69.7965 50.3648 69.7965V70.9312H50.3312C50 71.2918 49.5372 71.8013 48.9914 72.1963ZM52.0007 59.9809C51.8021 59.6834 51.1418 58.8435 50.3648 58.0063V59.1903C50.9602 60.1628 51.1247 60.8833 51.1247 60.8833C51.1247 60.8833 50.7274 61.0641 50.3648 61.4592V62.3796C50.4963 62.0854 50.7274 61.7725 50.8931 61.623C51.1742 61.3627 51.3058 61.623 51.2733 61.755C51.2563 62.0689 51.0097 62.2975 50.8265 62.3966C50.3802 62.7423 50.5123 63.0377 50.3802 63.1034C50.3648 63.1034 50.3648 63.1034 50.3648 63.1373V69.0219C50.6284 68.3166 50.5959 67.8893 50.5783 67.0324C50.5459 66.0303 50.4963 65.0446 50.5959 65.2084C50.7274 65.3564 51.0416 66.6401 51.0416 67.2636C51.0097 68.4964 51.0097 68.9577 50.3648 69.7965V70.9312C50.4963 70.7976 50.6284 70.6687 50.7274 70.5521C51.5875 69.7472 51.8021 68.4964 51.9507 68.1035C52.0827 67.692 51.9837 67.1167 51.7206 66.3755C51.5055 65.6697 51.2248 64.683 51.0912 64.0748C50.9426 63.4836 50.8931 62.9724 51.0741 62.7095C51.2248 62.464 51.2563 62.429 51.5055 62.5615C51.7206 62.6601 51.8191 62.9242 51.7206 63.9915C51.621 65.1268 51.7531 65.3887 52.0668 64.6989C52.316 64.0748 52.2979 63.3998 52.316 62.9724C52.381 62.5292 52.4475 62.1336 52.5636 61.9348C52.6627 61.7232 52.381 60.571 52.0007 59.9809Z" fill="#006097"/>
<path fill-rule="evenodd" clip-rule="evenodd" d="M29.448 68.4964C29.398 68.4641 29.3485 68.4471 29.2989 68.4142C29.0343 68.2832 28.8521 68.0547 28.7691 67.7398C28.7036 67.445 28.7531 67.1661 28.8857 66.9025C29.0343 66.6401 29.2989 66.4603 29.6291 66.3755C29.7111 66.3431 29.8272 66.3251 29.8938 66.3251H29.9273V66.7207C29.8767 66.7207 29.8272 66.7376 29.7447 66.7376C29.3815 66.8188 29.1333 66.9847 28.9853 67.1809C28.8521 67.3458 28.8521 67.5266 28.8857 67.7085C28.9352 67.9216 29.0673 68.0685 29.2654 68.1528C29.3314 68.1846 29.3815 68.2011 29.431 68.2011C29.4805 68.235 29.5295 68.235 29.6121 68.235H29.6291C29.6951 68.235 29.7447 68.235 29.7617 68.2011H29.8938L29.9273 68.1846V68.5796C29.7617 68.5796 29.6121 68.5473 29.448 68.4964ZM29.9273 68.5796C30.0264 68.5796 30.1089 68.5473 30.208 68.5128C30.5216 68.4142 30.7863 68.2663 30.9519 68.0038C31.1005 67.7085 31.15 67.445 31.0675 67.1661C31.0014 66.8697 30.8358 66.6735 30.5712 66.507C30.5216 66.4746 30.4732 66.4603 30.4386 66.4253C30.4226 66.4253 30.4226 66.4253 30.4226 66.4084C30.3741 66.4084 30.3225 66.3755 30.2575 66.3755V66.3431C30.208 66.3431 30.1579 66.3431 30.1089 66.3251H29.9273V66.7207C30.1414 66.6735 30.291 66.6735 30.4386 66.6883V66.7207C30.5051 66.7207 30.5546 66.7376 30.6052 66.7376C30.7863 66.8188 30.8864 66.9847 30.9519 67.1661C31.0014 67.3797 30.9684 67.56 30.8694 67.7085C30.7043 67.8893 30.4386 68.0547 30.0759 68.1528C30.0264 68.1846 29.9758 68.1846 29.9273 68.1846V68.5796Z" fill="#006097"/>
<path fill-rule="evenodd" clip-rule="evenodd" d="M28.7531 64.8643L30.4386 64.7302L30.4732 65.0785C30.5051 65.1432 30.4732 65.2254 30.4386 65.2747C30.4226 65.3564 30.3901 65.3887 30.3225 65.437C30.291 65.4555 30.208 65.4555 30.1089 65.4879L30.1414 65.5711L30.6548 65.4879L30.5216 63.6639H30.0093V63.7291C30.1089 63.7291 30.192 63.7291 30.2415 63.7938C30.3225 63.8108 30.3406 63.8601 30.3741 63.9269C30.3901 63.9757 30.3901 64.0568 30.4226 64.1565V64.4189L28.7206 64.552C28.5875 64.552 28.5209 64.552 28.4559 64.5181C28.4053 64.5011 28.3569 64.4189 28.3569 64.3049V64.2371L28.3063 64.2546L28.3569 65.2084H28.4378V65.1268C28.4053 65.0446 28.4378 64.9614 28.4559 64.911C28.5209 64.8808 28.5875 64.8808 28.7531 64.8643Z" fill="#006097"/>
<path fill-rule="evenodd" clip-rule="evenodd" d="M32.3567 70.6688C32.4398 70.6841 32.4899 70.7165 32.5394 70.8146L32.5729 70.8973L32.6225 70.8808L32.2747 70.1751L32.1916 70.19L32.2577 70.2414C32.2747 70.322 32.3083 70.4036 32.2747 70.454C32.2577 70.5039 32.1757 70.5521 32.0596 70.6354L30.8864 71.2107L31.7795 69.2032L31.4978 68.6783H31.4482C31.4978 68.7605 31.4978 68.7748 31.4978 68.8421C31.5148 68.8914 31.5148 68.9577 31.4978 68.9906C31.4978 69.0409 31.4978 69.0903 31.4482 69.2032L30.0264 69.9105C29.9273 69.9598 29.8437 69.9768 29.7958 69.9768C29.7111 69.9768 29.6951 69.9275 29.6291 69.8612L29.6121 69.7806L29.5295 69.7965L29.8938 70.5039L29.9433 70.4869L29.9273 70.4036C29.8767 70.322 29.8767 70.2414 29.8938 70.19C29.9273 70.1751 29.9758 70.1083 30.1089 70.042L31.3327 69.4169L30.3901 71.5707L30.4226 71.6036L32.1261 70.7483C32.2577 70.6841 32.3253 70.6688 32.3567 70.6688Z" fill="#006097"/>
<path fill-rule="evenodd" clip-rule="evenodd" d="M33.6146 73.6911L33.6641 73.6773L33.0852 72.9843L33.0357 73.0521C33.1182 73.1009 33.1337 73.1672 33.1337 73.2001V73.2987C33.1182 73.3634 33.0682 73.4132 32.9851 73.4636L32.4898 73.9069C32.4062 73.8565 32.3253 73.8236 32.2747 73.7743C32.1916 73.7425 32.1421 73.6773 32.0596 73.6274C31.9935 73.5124 31.944 73.3804 31.911 73.2324C31.8774 73.0686 31.911 72.8878 31.9935 72.7048C32.0596 72.541 32.1916 72.3941 32.3567 72.2303C32.5729 72.0823 32.8035 71.9673 33.0357 71.9493C33.3004 71.9169 33.5309 71.9991 33.7125 72.2303C33.8462 72.3941 33.8963 72.5749 33.8963 72.7557C33.8792 72.8878 33.8116 73.0182 33.7472 73.1672L33.7621 73.2324L34.2919 72.7229L34.2424 72.6736C34.1934 72.7048 34.1593 72.7229 34.1263 72.7229C34.1098 72.7229 34.0773 72.7229 34.0773 72.7048C34.0603 72.6736 34.0273 72.6555 34.0273 72.5749C33.9777 72.4768 33.9287 72.3941 33.8963 72.3109C33.8792 72.2637 33.8116 72.1804 33.7621 72.1301C33.6305 71.9493 33.4489 71.8353 33.3004 71.77C33.0682 71.7038 32.8536 71.6879 32.5889 71.7361C32.4062 71.7844 32.2252 71.8687 32.0596 71.9991C31.8615 72.1804 31.7289 72.3941 31.6793 72.6555C31.5968 73.0182 31.6958 73.3634 31.9935 73.6911C32.0926 73.8072 32.1916 73.9069 32.3083 73.988C32.4062 74.0373 32.5394 74.12 32.6379 74.1699L33.1843 73.725C33.2668 73.6444 33.3499 73.594 33.4005 73.594C33.4489 73.5617 33.5309 73.6274 33.581 73.6773L33.6146 73.6911Z" fill="#006097"/>
<path fill-rule="evenodd" clip-rule="evenodd" d="M35.5487 74.0373C35.6148 74.005 35.6813 74.0373 35.7468 74.0877L35.8299 74.137L35.8629 74.0877L35.1019 73.4965L35.0695 73.5431L35.1185 73.594C35.185 73.6274 35.201 73.6773 35.2345 73.725V73.8236C35.2345 73.8565 35.185 73.9069 35.1019 74.005L34.1264 75.2059C34.0774 75.2876 34.0273 75.3199 33.9778 75.3199C33.9288 75.3369 33.8963 75.3369 33.8793 75.3199C33.8462 75.2876 33.8462 75.2388 33.8793 75.1895C33.8963 75.0919 33.8963 75.0087 33.8963 74.9748C33.8963 74.9249 33.8793 74.9249 33.8462 74.8926C33.8116 74.8443 33.7621 74.8443 33.7126 74.8443C33.6641 74.8443 33.6306 74.8761 33.6146 74.9249C33.564 74.9748 33.531 75.0257 33.564 75.1057C33.564 75.1895 33.6306 75.2722 33.7126 75.3199C33.7956 75.4027 33.9288 75.453 34.0273 75.453C34.1594 75.453 34.2595 75.4027 34.342 75.3369C34.4411 75.2876 34.5556 75.2059 34.6562 75.0591L35.3671 74.2181C35.4326 74.0877 35.4992 74.0373 35.5487 74.0373Z" fill="#006097"/>
<path fill-rule="evenodd" clip-rule="evenodd" d="M36.3257 74.4504L36.4088 74.5145C36.4583 74.5315 36.4913 74.5649 36.5078 74.6131C36.5408 74.6471 36.5408 74.6964 36.5408 74.7123C36.5408 74.7441 36.4913 74.8279 36.4583 74.9249L35.6973 76.1757C35.6478 76.2919 35.5982 76.3565 35.5487 76.3894C35.4992 76.4218 35.4167 76.3894 35.3336 76.3565L35.2505 76.3072L35.2345 76.3565L36.061 76.8661L36.0946 76.7839L36.044 76.7505C35.9955 76.7346 35.9614 76.6853 35.9124 76.6529C35.88 76.6026 35.88 76.5697 35.88 76.5538C35.88 76.488 35.9295 76.4398 35.9955 76.3385L36.723 75.0919C36.806 74.9748 36.8545 74.8926 36.8705 74.8761C36.9535 74.8443 37.0361 74.8761 37.1192 74.9249L37.1697 74.9578L37.1868 74.8926L36.3752 74.4323L36.3257 74.4504Z" fill="#006097"/>
<path fill-rule="evenodd" clip-rule="evenodd" d="M40.5913 76.2097L40.6743 76.225C40.7739 76.2579 40.8229 76.2919 40.8559 76.3565C40.8724 76.3894 40.8724 76.488 40.8229 76.6206L40.6083 77.5082C40.5588 77.7526 40.4762 77.9006 40.4267 78.0178C40.3601 78.083 40.2771 78.1493 40.1445 78.1652C39.9799 78.2155 39.8809 78.2155 39.7323 78.1652C39.5997 78.1493 39.5171 78.1169 39.4676 78.0347C39.3845 77.9844 39.335 77.9345 39.3025 77.8534C39.2866 77.7696 39.2866 77.7049 39.3025 77.5734C39.3025 77.4578 39.3025 77.3603 39.335 77.277L39.5997 76.3072C39.6162 76.1757 39.6492 76.1254 39.6987 76.0771C39.7323 76.0448 39.7978 76.0278 39.8809 76.0448L39.9799 76.0771V76.0278L39.0544 75.7807L39.0208 75.847L39.1199 75.8629C39.203 75.8974 39.253 75.9133 39.2866 75.978C39.3025 76.0278 39.3025 76.1095 39.2866 76.225L39.0544 77.0973C38.9878 77.3603 38.9708 77.5406 38.9708 77.6386C38.9878 77.8035 39.0544 77.9345 39.1534 78.0347C39.253 78.1652 39.4341 78.2479 39.6657 78.3301C39.8809 78.3794 40.096 78.3794 40.2275 78.3301C40.3761 78.2479 40.4762 78.1652 40.5588 78.0676C40.6408 77.9515 40.6914 77.7696 40.7409 77.5734L40.972 76.6853C41.0056 76.5538 41.0386 76.4711 41.0551 76.4398C41.1376 76.3894 41.2207 76.3565 41.2862 76.3894L41.3682 76.4218L41.4023 76.3565L40.6083 76.1577L40.5913 76.2097Z" fill="#006097"/>
<path fill-rule="evenodd" clip-rule="evenodd" d="M43.436 76.4711H43.5186C43.6171 76.4711 43.6672 76.488 43.7007 76.5538C43.7177 76.5697 43.7502 76.6853 43.7502 76.7998L43.7007 78.1169L42.3949 76.3565L41.7655 76.3385V76.4218C41.8486 76.4218 41.8986 76.4218 41.9151 76.4398C41.9806 76.4711 42.0302 76.4711 42.0467 76.488C42.0967 76.5204 42.1303 76.5697 42.2123 76.6853L42.1628 78.2155C42.1628 78.3454 42.1303 78.4292 42.0967 78.4785C42.0467 78.5289 41.9971 78.5612 41.8986 78.5612H41.815V78.6084L42.592 78.6408V78.5931H42.527C42.4434 78.5931 42.3614 78.5289 42.3443 78.5109C42.3119 78.461 42.2778 78.3794 42.3119 78.2155L42.3443 76.8661L43.7832 78.7251H43.8328L43.8823 76.7998C43.8823 76.6853 43.8988 76.6026 43.9318 76.5697C43.9813 76.5204 44.0309 76.488 44.1454 76.488H44.213V76.4398L43.436 76.3894V76.4711Z" fill="#006097"/>
<path fill-rule="evenodd" clip-rule="evenodd" d="M45.8335 78.3301C45.7834 78.2961 45.7669 78.2961 45.7339 78.2808C45.7339 78.2155 45.7174 78.1493 45.6844 78.0347L45.4202 76.6026C45.3707 76.4711 45.3707 76.3894 45.4043 76.3385C45.4527 76.2919 45.5033 76.2579 45.5853 76.225L45.6519 76.2097V76.1577L44.6928 76.3385L44.7088 76.3894H44.9575C44.974 76.4218 45.0065 76.4218 45.0235 76.4398C45.0565 76.4711 45.0565 76.5697 45.089 76.6853L45.3707 78.1169C45.4043 78.2479 45.4043 78.3301 45.3707 78.3794C45.3707 78.4292 45.2871 78.461 45.1881 78.4785L45.1385 78.5109V78.5612L46.0811 78.3794V78.3301H45.8335Z" fill="#006097"/>
<path fill-rule="evenodd" clip-rule="evenodd" d="M47.9013 75.5023L47.9338 75.5845L47.9508 75.5517C48.0328 75.5517 48.0824 75.5517 48.1479 75.5845C48.1649 75.5845 48.1985 75.5999 48.1985 75.6328C48.2144 75.6821 48.2144 75.7807 48.2144 75.9133L48.1479 77.3274L47.1728 76.2579C47.0738 76.1577 47.0242 76.1095 47.0242 76.0448C46.9917 75.9949 46.9917 75.978 47.0242 75.9461C47.0402 75.8974 47.0897 75.8629 47.2058 75.8141L47.1728 75.7648L46.3128 76.0771V76.1254C46.3958 76.1095 46.4454 76.1095 46.4938 76.1095C46.5279 76.1095 46.5764 76.1254 46.627 76.1254C46.627 76.1577 46.6765 76.1757 46.7596 76.2919L48.1985 77.8534L48.2469 77.8205L48.3801 75.7648C48.3801 75.6328 48.3966 75.5517 48.429 75.4689C48.4791 75.4191 48.5132 75.3698 48.5782 75.3369L48.5622 75.2876L47.9013 75.5023Z" fill="#006097"/>
<path fill-rule="evenodd" clip-rule="evenodd" d="M51.4059 75.453C51.44 75.5999 51.4059 75.733 51.4059 75.8141C51.3894 75.8974 51.3564 75.978 51.3239 75.9949C51.2733 76.0448 51.2248 76.1095 51.0912 76.1757L50.777 76.3894C50.7275 76.4218 50.6944 76.4218 50.6449 76.4218C50.6284 76.4398 50.6284 76.4218 50.5959 76.4218C50.5783 76.3894 50.5459 76.3565 50.4963 76.2579L50.0831 75.6662L50.4963 75.3698C50.5783 75.3199 50.6284 75.2876 50.6944 75.2876C50.7275 75.2876 50.777 75.2876 50.8265 75.3199C50.8601 75.3199 50.9096 75.4027 50.9921 75.4689L51.0097 75.4191L50.5959 74.7611L50.5459 74.8279C50.6284 74.9249 50.6284 75.0087 50.6284 75.0919C50.5959 75.1386 50.5459 75.2059 50.4473 75.2876L50.0165 75.5517L49.5213 74.795L50.0495 74.4504C50.1486 74.3984 50.1992 74.3517 50.2657 74.3517C50.3153 74.3178 50.3648 74.3517 50.4133 74.3846C50.4628 74.3984 50.5459 74.4323 50.6284 74.5315L50.6774 74.5145L50.3802 74.0877L48.9259 75.0257L48.9584 75.1057L49.025 75.0591C49.0745 75.0087 49.157 74.9748 49.2065 75.0087C49.2726 75.0087 49.3232 75.0919 49.3887 75.2059L50.1992 76.4218C50.2657 76.5204 50.3153 76.5697 50.3153 76.6206C50.3153 76.6529 50.3153 76.6853 50.2812 76.7346C50.2657 76.7839 50.2317 76.7998 50.1821 76.8338L50.1316 76.8841L50.1486 76.9324L51.621 75.9949L51.4554 75.4027L51.4059 75.453Z" fill="#006097"/>
<path fill-rule="evenodd" clip-rule="evenodd" d="M52.0827 72.7557V72.9843H52.0668C51.9837 72.9843 51.9352 73.0182 51.8516 73.0686C51.8191 73.1009 51.8021 73.1184 51.7696 73.1508C51.7206 73.1672 51.6706 73.2494 51.621 73.331L52.0827 73.8565V74.3178L51.538 73.7425C51.44 73.6444 51.3564 73.5617 51.3239 73.5617C51.2563 73.5617 51.1902 73.594 51.1247 73.6444L51.0741 73.725L51.0097 73.6773L51.621 73.1009C51.8021 72.9376 51.9352 72.8374 52.0343 72.7881C52.0668 72.7557 52.0827 72.7557 52.0827 72.7557ZM53.8864 73.8236C53.8199 73.8565 53.6542 73.8565 53.5057 73.8072L52.6952 73.6773C52.8112 73.5124 52.8778 73.3634 52.8778 73.2324C52.8448 73.0686 52.7942 72.971 52.6952 72.8544C52.6131 72.7881 52.513 72.7048 52.381 72.7048H52.2979C52.2484 72.7048 52.1664 72.7048 52.1163 72.7229L52.0827 72.7557V72.9843H52.1163C52.2484 72.9843 52.3474 73.0521 52.4475 73.1508C52.5636 73.2494 52.5791 73.3634 52.5791 73.5124C52.5636 73.6444 52.48 73.8072 52.316 73.9557C52.316 73.9557 52.2979 73.9557 52.2979 73.988C52.2979 73.988 52.2649 74.005 52.2484 74.005L52.0827 73.8565V74.3178L52.5636 74.795C52.6291 74.8761 52.6952 74.9578 52.6952 74.9748C52.7122 75.0591 52.6952 75.1386 52.6131 75.2059L52.5636 75.2722L52.5791 75.3199L53.2905 74.6131L53.257 74.5803L53.192 74.6471C53.1249 74.7123 53.0759 74.7123 53.0083 74.7123C52.9438 74.7123 52.8778 74.6625 52.7942 74.5649L52.316 74.0877C52.3474 74.0877 52.3474 74.0707 52.381 74.0707C52.381 74.0373 52.3969 74.0373 52.3969 74.0373C52.431 74.005 52.4475 73.9557 52.513 73.9382L53.7863 74.137L54.2342 73.7425L54.1825 73.6911C54.0675 73.7743 53.9684 73.8236 53.8864 73.8236Z" fill="#006097"/>
<path fill-rule="evenodd" clip-rule="evenodd" d="M55.2417 71.375C55.1757 71.3241 55.0931 71.2918 55.0101 71.2918C54.911 71.26 54.8285 71.2918 54.7294 71.3241C54.6293 71.3241 54.4647 71.3899 54.2491 71.506C54.0014 71.6375 53.8198 71.7038 53.7038 71.7038C53.6207 71.7361 53.5712 71.7038 53.5057 71.6879C53.4396 71.6036 53.3896 71.5558 53.3731 71.4562C53.3731 71.3411 53.3896 71.2419 53.4396 71.1274C53.5057 71.0627 53.5712 71.0129 53.6872 70.9466C53.7863 70.8973 53.8864 70.8809 54.0014 70.8973C54.1005 70.8973 54.1995 70.9312 54.3321 71.0129L54.3817 70.9466L53.7368 70.5039L53.7038 70.5521C53.7368 70.5845 53.7533 70.6354 53.7533 70.6354V70.7165C53.7368 70.7483 53.6872 70.7653 53.6207 70.8146C53.5057 70.8973 53.4226 70.9805 53.3406 71.0786C53.2415 71.2107 53.192 71.3899 53.2074 71.5558C53.2415 71.7361 53.3246 71.8687 53.4396 71.9673C53.5216 71.9991 53.6047 72.0495 53.6872 72.0495C53.7863 72.0824 53.8694 72.0495 53.9684 72.0315C54.0675 71.9991 54.2342 71.9169 54.4312 71.8353C54.6293 71.7361 54.7454 71.6879 54.8119 71.6545C54.878 71.6375 54.9605 71.6375 55.0101 71.6375C55.0931 71.6375 55.1261 71.6545 55.1757 71.7038C55.2747 71.77 55.3237 71.8353 55.3237 71.9493C55.3237 72.0495 55.3083 72.1804 55.2247 72.278C55.1427 72.3941 55.0596 72.4434 54.9605 72.4917C54.8625 72.541 54.7789 72.5749 54.6788 72.5749C54.5643 72.5749 54.4647 72.5256 54.3162 72.4768L54.2826 72.4917L54.911 72.971L54.9445 72.9206C54.911 72.8544 54.878 72.8374 54.878 72.8045C54.878 72.7881 54.878 72.7881 54.911 72.7557C54.911 72.7229 54.9605 72.6736 55.0596 72.5903C55.1427 72.541 55.2247 72.4917 55.2247 72.4768C55.2747 72.4106 55.3237 72.3941 55.3567 72.3109C55.4893 72.1481 55.5053 71.9673 55.5053 71.7844C55.4568 71.6036 55.3732 71.4736 55.2417 71.375Z" fill="#006097"/>
<path fill-rule="evenodd" clip-rule="evenodd" d="M56.6146 69.9105C56.5805 69.9598 56.5645 69.9768 56.498 70.0081C56.4815 70.042 56.449 70.042 56.3994 70.042C56.3664 70.042 56.2999 70.0081 56.2178 69.9598L54.911 69.3034C54.779 69.2202 54.6953 69.1709 54.6788 69.1539C54.6464 69.0733 54.6464 69.0219 54.6953 68.9413L54.7294 68.8591L54.6788 68.8421L54.2491 69.6974L54.3162 69.7302L54.3322 69.647C54.3657 69.5988 54.3817 69.5653 54.4312 69.5341C54.4648 69.5166 54.5148 69.4832 54.5473 69.4832C54.5643 69.5166 54.6464 69.5341 54.7454 69.5987L56.0522 70.2414C56.1843 70.305 56.2503 70.3543 56.2674 70.4036C56.2999 70.454 56.2999 70.5373 56.2503 70.6179L56.2178 70.6841L56.2674 70.7165L56.7136 69.8612L56.6636 69.8278L56.6146 69.9105Z" fill="#006097"/>
<path fill-rule="evenodd" clip-rule="evenodd" d="M57.391 67.5759C57.3745 67.6592 57.3415 67.7085 57.292 67.7398C57.2424 67.7578 57.1604 67.7578 57.0278 67.7085L55.3567 67.2636L55.4404 66.9508C55.4569 66.8697 55.4893 66.8034 55.5394 66.7376C55.5889 66.7207 55.6395 66.6735 55.7215 66.6735C55.754 66.6401 55.8206 66.6401 55.9026 66.6735L55.9356 66.6061L55.4404 66.4746L54.9446 68.2832L55.4404 68.4471L55.4569 68.366C55.3567 68.3326 55.3083 68.2832 55.2417 68.235C55.1927 68.1846 55.1757 68.1353 55.1757 68.0685C55.1757 68.0203 55.1757 67.9386 55.1927 67.841L55.2747 67.5759L56.9442 68.0203C57.0768 68.0547 57.1269 68.1035 57.1764 68.1353C57.2089 68.1846 57.2089 68.2663 57.1764 68.3326V68.4142L57.2424 68.4471L57.4736 67.4943H57.4251L57.391 67.5759Z" fill="#006097"/>
<path fill-rule="evenodd" clip-rule="evenodd" d="M57.9198 64.4359L57.8873 64.5181C57.8873 64.5997 57.8703 64.683 57.8043 64.6989C57.7883 64.7302 57.6727 64.7641 57.5577 64.7302L56.9778 64.6989L56.1683 64.1071C56.0522 64.0244 55.9862 63.9433 55.9532 63.8929C55.9026 63.8601 55.8701 63.8107 55.8531 63.7291C55.8206 63.6798 55.8206 63.6639 55.8206 63.6135V63.5796H55.754L55.689 64.3712H55.7711C55.7711 64.3049 55.7711 64.2546 55.8035 64.2371C55.8206 64.2037 55.8206 64.1893 55.8531 64.1893C55.8701 64.1565 55.9026 64.1565 55.9356 64.1565C56.0027 64.1565 56.0522 64.2037 56.1683 64.2546L56.8462 64.7641L56.0852 65.1761C55.9532 65.2254 55.9026 65.2747 55.8531 65.2747C55.8035 65.2577 55.7711 65.2254 55.754 65.1761C55.7215 65.1432 55.7215 65.0939 55.7215 65.0446V64.9937H55.6709L55.5889 65.9661H55.6395C55.6395 65.8988 55.6709 65.8829 55.6709 65.8505C55.7215 65.7827 55.754 65.7196 55.8035 65.7026C55.8206 65.6697 55.9026 65.6517 56.0027 65.5711L56.9937 65.0112L57.5241 65.0785C57.6557 65.0785 57.7388 65.0785 57.7558 65.1268C57.8383 65.1432 57.8703 65.2254 57.8383 65.3246V65.4057H57.8873L57.9699 64.4359H57.9198Z" fill="#006097"/>
<path fill-rule="evenodd" clip-rule="evenodd" d="M66.4038 59.6801C66.535 58.2198 66.4915 55.0535 68.6171 55.752C68.0658 56.367 73.2951 56.4199 72.9721 55.5133C73.608 55.4737 73.8324 55.4533 74.0107 55.5396C76.2576 56.7058 75.5524 62.0341 75.2491 64.2159C74.725 65.2559 73.7043 67.4238 73.0607 67.5558C71.7042 63.4771 73.277 65.3591 73.8685 64.712C74.6325 62.4339 74.4109 57.8898 73.2609 57.2204C72.4543 57.2204 70.2725 58.038 69.1201 57.782C67.3341 58.4411 67.7238 65.5235 67.4466 67.6715C66.6903 67.4545 66.6678 67.3069 66.3428 66.8309C66.3492 64.8342 66.4038 60.4445 66.4038 59.6801Z" fill="#006097"/>
<path fill-rule="evenodd" clip-rule="evenodd" d="M69.4734 59.3655C69.4586 59.3986 69.4529 59.9352 69.6223 59.9463C70.9283 60.0314 71.7298 59.9913 71.6907 59.5304C71.6638 59.2138 71.7037 59.1212 71.5486 59.0093C71.4121 58.9105 70.864 58.8992 70.5452 58.9269C70.0512 58.9698 69.6782 58.9083 69.4734 59.3655Z" fill="#006097"/>
<path fill-rule="evenodd" clip-rule="evenodd" d="M70.1267 63.256C70.231 65.5958 68.7231 64.0298 68.4419 63.0264C68.409 59.7121 74.9265 62.4627 71.6627 64.1786C70.3249 64.994 70.9358 62.2416 70.1267 63.256Z" fill="#006097"/>
<path fill-rule="evenodd" clip-rule="evenodd" d="M83.7186 54.7848C82.7847 55.4103 83.3854 56.7065 84.5106 56.8116C85.306 56.8859 84.4441 55.8902 84.4441 55.5003C84.4441 55.3941 84.6048 54.8994 84.4015 54.764C84.3385 54.7221 83.6852 54.6075 83.7186 54.7848Z" fill="#006097"/>
<path fill-rule="evenodd" clip-rule="evenodd" d="M83.8019 57.1346C84.0348 57.8788 83.9747 58.2922 83.5421 58.7529C82.9765 59.3554 81.9677 59.3446 82.7235 58.3336C82.87 58.1375 82.9739 57.2596 82.9213 56.9386C82.8638 56.5896 83.8684 56.9928 83.8019 57.1346Z" fill="#006097"/>
<path fill-rule="evenodd" clip-rule="evenodd" d="M81.1606 68.6413C80.6916 68.2245 80.5555 67.8357 80.4039 66.8057C80.9746 64.6713 82.007 63.3733 82.0709 59.5894C82.0709 59.5478 82.5821 59.6558 82.5821 59.7618C82.5821 61.2148 82.7622 63.5515 82.1977 64.5104C81.9317 64.7939 81.929 66.6623 81.929 67.123C81.7558 68.1153 81.5071 68.8078 81.1606 68.6413Z" fill="#006097"/>
<path fill-rule="evenodd" clip-rule="evenodd" d="M86.2973 57.7072C85.5486 58.638 85.9514 59.138 86.1374 59.5185C86.1374 60.3164 84.7166 61.3422 84.1755 61.9183C83.8012 62.3173 83.3947 62.9693 83.8107 63.6785C84.928 63.8758 85.3405 63.381 85.8398 62.5389C86.131 62.0513 86.7794 61.0017 87.195 60.1216C87.125 60.1799 87.9634 59.1843 88.4899 59.2879C88.795 60.2468 87.362 60.163 87.4855 61.5145C88.1927 62.268 88.8387 60.0639 88.9185 59.8352C89.3263 58.9335 90.1546 57.7946 90.2083 59.0374C90.3106 60.2334 90.2492 60.6119 90.5821 61.3655C90.9831 62.005 91.9824 61.6172 91.6645 60.766C91.1237 60.1898 90.7054 60.5588 90.8077 58.4708C90.8077 58.1163 90.9915 58.3959 91.7074 57.8407C91.5766 57.8028 92.4347 57.0363 91.5397 56.9986C91.4148 57.0429 89.2097 58.8601 88.9185 58.1953C88.5858 57.4862 90.2795 56.8228 90.7295 56.2902C90.9135 56.0679 91.0706 55.9522 91.0821 55.403C90.4805 55.3219 88.8593 55.6496 90.0004 54.0733C90.2417 53.4494 88.5403 53.8057 88.4623 53.9155C87.7571 54.2748 86.6842 55.2034 86.2989 56.0399C85.7832 57.4371 86.6464 56.9068 87.3793 56.6884C87.7937 56.3536 88.2718 55.759 89.1041 55.759C90.1188 55.9116 88.0449 57.885 88.0449 58.1953C87.8881 58.6243 87.9338 58.9869 87.8225 59.1459C86.7153 59.8505 86.9975 57.4098 86.2973 57.7072Z" fill="#006097"/>
<path fill-rule="evenodd" clip-rule="evenodd" d="M92.8228 58.029C93.4472 58.827 93.4783 58.6275 92.7605 59.3922C92.4483 59.7247 94.1025 60.0572 94.165 60.1237C94.5395 60.5227 97.1299 60.3564 95.8817 61.6864C94.9765 62.6506 92.7291 61.3206 92.1675 60.7222C91.9802 60.5227 90.8254 59.6249 91.2624 59.1594C91.6057 58.7937 92.2612 58.0955 92.8228 58.029Z" fill="#006097"/>
<path fill-rule="evenodd" clip-rule="evenodd" d="M87.147 62.0674C86.7412 62.0674 86.3746 63.7254 86.2904 64.2133C86.1641 65.0894 86.1044 65.6202 86.1044 66.4514C86.1044 67.3824 86.9548 67.4933 86.9548 66.6288C86.9548 65.8309 87.0606 64.9648 87.3103 64.3995C87.6536 63.668 88.3098 64.1742 88.1412 65.3105C87.9832 67.3155 88.7961 65.6755 89.4514 64.9772C89.578 64.7693 90.7451 62.4429 91.2312 63.8808C91.818 64.8003 89.8714 67.8851 90.0764 68.1035C90.6382 68.7019 91.7897 66.0597 92.0394 65.5277C92.3739 64.4406 92.3553 63.3054 91.8631 62.5624C91.3012 61.9639 90.8172 62.1221 90.2867 62.6874C90.193 62.7871 89.6741 64.3724 89.3075 64.0117C89.089 63.6792 89.4301 62.8674 89.0002 62.7135C88.6178 62.8243 87.9086 63.8503 87.4793 63.6218C87.3856 63.522 87.3562 62.6406 87.4548 62.4844C87.5423 61.9844 87.257 62.0502 87.147 62.0674Z" fill="#006097"/>
<path fill-rule="evenodd" clip-rule="evenodd" d="M105.288 55.2348C104.76 56.1511 104.067 56.9735 103.738 58.4267C103.643 59.3551 103.717 60.4448 103.078 60.4649C102.421 60.4649 101.413 60.3916 101.059 60.7684C100.586 60.7888 99.4681 62.6251 100.327 62.6251C101.035 62.6251 101.698 62.5849 102.102 62.1543C103.124 61.6497 103.485 61.7574 103.024 62.5577C102.536 63.5625 102.16 64.4263 101.672 65.4311C101.293 66.2654 100.826 67.1073 101.711 67.3288C102.38 67.008 103.682 64.7455 104.084 64.3685C104.406 63.7964 104.602 63.0179 104.742 62.2912C104.71 61.4021 105.083 61.7891 106.34 61.7416C107.644 61.6326 107.62 61.9564 107.866 60.1966C107.586 59.4903 106.847 60.4607 106.568 60.5696C105.851 60.5528 105.205 60.7281 105.056 60.4736C104.708 59.661 106.21 56.7611 106.21 55.5962C106.255 54.8117 105.601 55.0531 105.288 55.2348Z" fill="#006097"/>
<path fill-rule="evenodd" clip-rule="evenodd" d="M106.88 65.7944C107.284 66.2251 108.016 66.6207 108.471 66.6207C108.818 66.6207 108.806 64.6288 108.531 64.5232C108.119 64.4362 107.442 63.9091 107.291 63.7476C105.725 62.7731 105.767 64.8917 106.88 65.7944Z" fill="#006097"/>
<path fill-rule="evenodd" clip-rule="evenodd" d="M117.164 59.0454C116.9 58.0149 118.033 53.9215 116.948 54.1959C116.095 54.4113 116.77 57.8606 116.34 58.5439C115.731 58.8432 114.847 57.5935 114.7 58.8568C114.638 59.5553 114.775 60.2272 114.713 60.9256C114.373 63.2172 115.555 61.7995 115.871 60.8524C115.975 59.7057 117.838 60.0743 119.055 59.8884C120.671 60.0211 121.399 59.2334 122.77 59.6052C123.285 59.6052 121.681 61.1259 124.032 60.2408C124.266 60.0959 125.392 58.5701 124.816 58.4577C123.91 58.4577 122.88 58.6702 121.975 58.6702C119.046 59.2279 121.845 57.6879 123.158 55.9223C123.61 55.0442 123.664 54.66 123.266 53.9812C122.706 53.357 121.856 53.941 121.809 54.0408C121.413 54.4565 121.041 54.9121 120.507 54.9157C120.273 55.1152 120.539 54.4932 120.351 54.2937C119.424 54.1819 119.967 55.0571 119.383 54.8989C118.636 55.0861 119.477 54.1805 118.646 54.2071C118.212 54.2071 118.06 54.7005 118.015 55.2128C118.001 55.4389 117.66 55.2327 117.64 55.5099C117.7 55.9576 118.209 55.3934 118.106 56C118.114 56.4019 117.707 56.9856 117.707 57.3847C117.826 58.6232 118.562 58.3359 118.508 57.5099C118.488 57.0323 119.333 54.6088 119.564 55.9784C119.254 56.6194 118.39 59.5158 119.805 57.909C120.179 57.5099 120.226 57.3103 120.554 56.7615C120.943 55.8943 120.249 55.087 122.275 55.0291C122.478 55.4489 121.031 57.1619 120.689 57.7835C120.042 59.0276 118.911 59.423 117.164 59.0454Z" fill="#006097"/>
<path fill-rule="evenodd" clip-rule="evenodd" d="M117.678 62.9345C117.522 60.5215 120.093 61.8057 121.116 60.894C121.55 60.5073 122.315 61.8944 121.894 62.3434C119.244 64.5573 123.387 63.1591 123.177 64.2448C123.123 65.2196 122.006 64.4557 121.356 64.9302C121.436 65.8157 119.2 71.0835 117.628 67.7411C118.103 66.9007 119.323 68.4914 120.235 65.8829C120.739 63.5788 118.821 65.4421 118.259 65.4421C115.075 65.4421 117.38 63.7767 119.335 63.8739C120.552 63.8739 120.466 61.7473 119.618 62.4987C119.009 63.1472 118.427 63.0343 117.678 62.9345Z" fill="#006097"/>
<path fill-rule="evenodd" clip-rule="evenodd" d="M69.793 70.0503V71.2244H69.6972C69.6393 70.9526 69.5759 70.7583 69.5063 70.6407C69.4365 70.5216 69.3406 70.4276 69.2184 70.3582C69.1506 70.3187 69.0315 70.3004 68.8618 70.3004H68.5907V73.6434C68.5907 73.8646 68.6007 74.0035 68.6212 74.0589C68.642 74.1148 68.6822 74.1625 68.7418 74.204C68.8026 74.2464 68.8841 74.2671 68.9877 74.2671H69.1084V74.3852H67.2021V74.2671H67.3234C67.4288 74.2671 67.5139 74.2444 67.5782 74.1996C67.6248 74.1702 67.6615 74.1191 67.688 74.0458C67.7081 73.9957 67.7185 73.8612 67.7185 73.6434V70.3004H67.4542C67.2099 70.3004 67.0311 70.3611 66.9202 70.4855C66.764 70.658 66.6659 70.9048 66.6248 71.2244H66.5234V70.0503H69.793ZM72.2918 69.9904C72.8718 69.9639 73.3428 70.1659 73.7058 70.5935C74.0677 71.0225 74.2491 71.5581 74.2491 72.202C74.2491 72.7516 74.1143 73.2351 73.8441 73.653C73.4857 74.2074 72.98 74.4845 72.3261 74.4845C71.6719 74.4845 71.165 74.2203 70.8067 73.6911C70.5243 73.2732 70.3827 72.7781 70.3827 72.2054C70.3827 71.5614 70.5668 71.0244 70.9342 70.5959C71.3025 70.1659 71.7545 69.9639 72.2918 69.9904ZM72.3243 70.1943C71.9909 70.1943 71.7379 70.3973 71.5636 70.8022C71.4224 71.1338 71.352 71.6115 71.352 72.2334C71.352 72.9733 71.4609 73.52 71.6796 73.8733C71.8316 74.1211 72.045 74.2444 72.3188 74.2444C72.503 74.2444 72.6572 74.191 72.781 74.0849C72.9374 73.9485 73.0604 73.7306 73.1484 73.4303C73.2365 73.1314 73.2803 72.7409 73.2803 72.2599C73.2803 71.6857 73.2356 71.2573 73.1455 70.9733C73.056 70.6884 72.9425 70.4879 72.8031 70.3698C72.6645 70.2532 72.5048 70.1943 72.3243 70.1943ZM76.0895 70.0503L77.8859 72.7386V70.875C77.8859 70.6156 77.8545 70.4397 77.7922 70.3481C77.7062 70.2247 77.5622 70.1649 77.3596 70.1693V70.0503H78.5619V70.1693C78.4079 70.1919 78.3052 70.2228 78.2524 70.2599C78.1989 70.297 78.1578 70.3582 78.1282 70.4421C78.0993 70.526 78.0845 70.6711 78.0845 70.875V74.4845H77.993L75.5312 70.875V73.6313C75.5312 73.88 75.5791 74.0478 75.675 74.1355C75.7704 74.2237 75.8804 74.2671 76.0031 74.2671H76.0895V74.3852H74.7981V74.2671C74.9989 74.2652 75.1379 74.216 75.217 74.1201C75.2959 74.0242 75.3352 73.8612 75.3352 73.6313V70.5718L75.2574 70.4561C75.1803 70.3418 75.1125 70.2662 75.0528 70.2291C74.9941 70.1934 74.909 70.1736 74.7981 70.1693V70.0503H76.0895ZM82.7606 69.9524V71.4795H82.6605C82.5405 71.0615 82.3609 70.7443 82.1207 70.527C81.8817 70.31 81.6192 70.2011 81.3342 70.2011C81.0622 70.2011 80.836 70.2927 80.6555 70.4749C80.475 70.6571 80.3464 70.9102 80.2713 71.2365C80.1962 71.5624 80.1586 71.8974 80.1586 72.2401C80.1586 72.6557 80.1999 73.0201 80.2821 73.3334C80.3636 73.6467 80.4967 73.8766 80.6809 74.0242C80.8641 74.1712 81.0821 74.2444 81.3342 74.2444C81.4224 74.2444 81.5121 74.2334 81.604 74.2107C81.6963 74.1885 81.7909 74.1562 81.8881 74.1134V73.2124C81.8881 73.0423 81.8777 72.9309 81.8578 72.8817C81.8384 72.8316 81.7971 72.7858 81.7356 72.7453C81.6745 72.7048 81.5993 72.6841 81.5112 72.6841H81.4179V72.5665H83.1867V72.6841C83.0529 72.6952 82.9592 72.7168 82.9062 72.7496C82.8536 72.7834 82.8125 72.8378 82.7844 72.9145C82.7676 72.9545 82.7606 73.0538 82.7606 73.2124V74.1134C82.5275 74.2367 82.2858 74.3307 82.0337 74.3929C81.7827 74.4561 81.5216 74.4879 81.2509 74.4879C80.9054 74.4879 80.6184 74.431 80.3904 74.3197C80.1624 74.2074 79.9604 74.0612 79.7863 73.8791C79.6125 73.6968 79.4759 73.4915 79.3767 73.2635C79.2523 72.969 79.1889 72.6392 79.1889 72.2748C79.1889 71.6236 79.3814 71.0726 79.7662 70.6233C80.1513 70.1736 80.6352 69.949 81.2189 69.949C81.3994 69.949 81.5627 69.9654 81.7076 69.9991C81.7862 70.0165 81.9135 70.0656 82.0905 70.1452C82.2663 70.2247 82.3708 70.2652 82.4031 70.2652C82.4532 70.2652 82.4994 70.2435 82.5423 70.1997C82.5854 70.1563 82.6247 70.0734 82.6605 69.9524H82.7606ZM84.3003 70.1693V70.0503H86.2356V70.1693H86.1174C86.0103 70.1693 85.9243 70.191 85.8601 70.2358C85.8152 70.2662 85.7794 70.3168 85.7529 70.3896C85.7324 70.4412 85.7224 70.5752 85.7224 70.7921V72.9145C85.7224 73.33 85.6875 73.6323 85.6179 73.8212C85.5483 74.0097 85.4248 74.1669 85.2461 74.2946C85.0682 74.4214 84.8537 74.4845 84.6034 74.4845C84.2976 74.4845 84.0502 74.3886 83.861 74.1963C83.6713 74.0044 83.5771 73.7928 83.5771 73.5604C83.5771 73.411 83.6156 73.291 83.6927 73.1979C83.7696 73.1054 83.8641 73.0586 83.975 73.0586C84.084 73.0586 84.1754 73.1001 84.2497 73.183C84.3239 73.2669 84.3615 73.3681 84.3615 73.4905C84.3615 73.5493 84.355 73.6019 84.3425 73.6467C84.336 73.6684 84.3075 73.7219 84.2578 73.8077C84.2083 73.894 84.1845 73.9552 84.1845 73.9924C84.1845 74.0468 84.2075 74.095 84.2541 74.1355C84.3221 74.1953 84.4112 74.2256 84.5203 74.2256C84.5972 74.2256 84.6604 74.202 84.7108 74.1548C84.76 74.108 84.7958 74.0348 84.817 73.9354C84.8373 73.8376 84.8473 73.5614 84.8473 73.1097V70.7921C84.8473 70.5708 84.8373 70.432 84.817 70.3765C84.7958 70.3211 84.7556 70.273 84.6962 70.2315C84.6356 70.19 84.555 70.1693 84.4531 70.1693H84.3003ZM88.5563 74.2671V74.3852H86.6528V74.2671H86.7736C86.879 74.2671 86.9641 74.2444 87.0284 74.1996C87.0754 74.1702 87.1112 74.1191 87.1355 74.0458C87.1561 73.9957 87.166 73.8612 87.166 73.6434V70.7921C87.166 70.5708 87.1561 70.432 87.1355 70.3765C87.1165 70.3211 87.0772 70.273 87.0166 70.2315C86.9568 70.19 86.8755 70.1693 86.7736 70.1693H86.6528V70.0503H88.5563V70.1693H88.435C88.3297 70.1693 88.2446 70.191 88.1803 70.2358C88.1337 70.2662 88.097 70.3168 88.0705 70.3896C88.0515 70.4412 88.0409 70.5752 88.0409 70.7921V73.6434C88.0409 73.8646 88.0515 74.0035 88.0714 74.0589C88.0926 74.1148 88.1328 74.1625 88.1927 74.204C88.2528 74.2464 88.3334 74.2671 88.435 74.2671H88.5563ZM90.1868 70.0503H92.0654V70.1693H91.9718C91.8306 70.1693 91.7338 70.1866 91.6803 70.2219C91.6275 70.2565 91.59 70.3057 91.5677 70.3669C91.546 70.4291 91.5339 70.5838 91.5339 70.8306V72.9526C91.5339 73.3411 91.5586 73.5976 91.6079 73.7238C91.6578 73.8492 91.7382 73.9533 91.8509 74.0371C91.9636 74.1201 92.1056 74.1615 92.2782 74.1615C92.4748 74.1615 92.6427 74.109 92.7813 74.0035C92.9207 73.8974 93.0243 73.7523 93.0926 73.5667C93.1615 73.3811 93.1962 73.0586 93.1962 72.5978V70.8306C93.1962 70.6364 93.1789 70.4975 93.1451 70.4146C93.1111 70.3317 93.068 70.2739 93.0166 70.2426C92.9361 70.1934 92.8224 70.1693 92.675 70.1693V70.0503H93.9343V70.1693H93.8592C93.7574 70.1693 93.6723 70.1934 93.6042 70.2426C93.5364 70.2912 93.4867 70.3645 93.4569 70.4628C93.4337 70.5313 93.422 70.6537 93.422 70.8306V72.4768C93.422 72.9863 93.3935 73.3541 93.3374 73.5797C93.2808 73.8058 93.1434 74.0131 92.9251 74.203C92.707 74.3929 92.4079 74.4879 92.0305 74.4879C91.7161 74.4879 91.4727 74.4373 91.3003 74.337C91.0664 74.2006 90.9007 74.0261 90.8035 73.8135C90.7071 73.5995 90.6587 73.3136 90.6587 72.9526V70.8306C90.6587 70.5819 90.6477 70.4267 90.6238 70.3654C90.6009 70.3048 90.5604 70.2565 90.503 70.2204C90.446 70.1833 90.3406 70.1669 90.1868 70.1693V70.0503ZM95.6726 70.0503L97.469 72.7386V70.875C97.469 70.6156 97.4379 70.4397 97.3754 70.3481C97.2894 70.2247 97.1456 70.1649 96.9428 70.1693V70.0503H98.1455V70.1693C97.9913 70.1919 97.889 70.2228 97.8356 70.2599C97.7826 70.297 97.741 70.3582 97.7121 70.4421C97.6827 70.526 97.6677 70.6711 97.6677 70.875V74.4845H97.5762L95.1148 70.875V73.6313C95.1148 73.88 95.1623 74.0478 95.2586 74.1355C95.3536 74.2237 95.4636 74.2671 95.5867 74.2671H95.6726V74.3852H94.3813V74.2671C94.5823 74.2652 94.7215 74.216 94.8004 74.1201C94.879 74.0242 94.9184 73.8612 94.9184 73.6313V70.5718L94.8406 70.4561C94.7637 70.3418 94.6957 70.2662 94.636 70.2291C94.5777 70.1934 94.4922 70.1736 94.3813 70.1693V70.0503H95.6726ZM100.563 74.2671V74.3852H98.6594V74.2671H98.7803C98.8859 74.2671 98.9714 74.2444 99.035 74.1996C99.0821 74.1702 99.1179 74.1191 99.1424 74.0458C99.1627 73.9957 99.1727 73.8612 99.1727 73.6434V70.7921C99.1727 70.5708 99.1627 70.432 99.1424 70.3765C99.1234 70.3211 99.0841 70.273 99.0233 70.2315C98.9637 70.19 98.8821 70.1693 98.7803 70.1693H98.6594V70.0503H100.563V70.1693H100.442C100.337 70.1693 100.251 70.191 100.187 70.2358C100.141 70.2662 100.104 70.3168 100.077 70.3896C100.058 70.4412 100.048 70.5752 100.048 70.7921V73.6434C100.048 73.8646 100.058 74.0035 100.078 74.0589C100.099 74.1148 100.14 74.1625 100.199 74.204C100.259 74.2464 100.341 74.2671 100.442 74.2671H100.563ZM104.879 70.0503V70.1693C104.747 70.1943 104.628 70.2782 104.525 70.4214C104.45 70.5284 104.338 70.7781 104.189 71.1729L102.935 74.4845H102.847L101.598 71.0389C101.447 70.6233 101.346 70.379 101.296 70.3066C101.245 70.2339 101.149 70.1876 101.008 70.1693V70.0503H102.752V70.1693H102.694C102.536 70.1693 102.429 70.1919 102.371 70.2392C102.33 70.2705 102.31 70.3177 102.31 70.3799C102.31 70.418 102.317 70.4638 102.331 70.5164C102.346 70.5674 102.394 70.7082 102.476 70.9362L103.252 73.0934L103.971 71.1729C104.058 70.9406 104.111 70.7849 104.13 70.7063C104.15 70.6277 104.159 70.5597 104.159 70.5043C104.159 70.4412 104.145 70.3843 104.116 70.3351C104.088 70.2859 104.046 70.2488 103.991 70.2237C103.914 70.1866 103.811 70.1693 103.684 70.1693V70.0503H104.879ZM106.709 70.3004V72.0646H106.781C107.013 72.0646 107.179 71.9784 107.284 71.8058C107.387 71.6333 107.453 71.3782 107.483 71.0422H107.584V73.3117H107.483C107.46 73.0639 107.416 72.8619 107.347 72.7039C107.277 72.5457 107.197 72.4397 107.106 72.3852C107.015 72.3317 106.882 72.3042 106.709 72.3042V73.5252C106.709 73.7643 106.717 73.9094 106.735 73.9629C106.751 74.0165 106.783 74.0598 106.83 74.0941C106.876 74.1288 106.951 74.1452 107.055 74.1452H107.273C107.613 74.1452 107.885 74.0512 108.09 73.8637C108.295 73.6771 108.442 73.3912 108.532 73.0071H108.631L108.468 74.3852H105.321V74.2671H105.441C105.547 74.2671 105.632 74.2444 105.696 74.1996C105.743 74.1702 105.779 74.1191 105.803 74.0458C105.824 73.9957 105.834 73.8612 105.834 73.6434V70.7921C105.834 70.5959 105.829 70.4759 105.82 70.431C105.802 70.3568 105.769 70.2989 105.721 70.2589C105.652 70.1987 105.559 70.1693 105.441 70.1693H105.321V70.0503H108.368V71.3325H108.266C108.214 71.0191 108.142 70.7945 108.047 70.658C107.954 70.5216 107.821 70.4214 107.648 70.3582C107.548 70.3187 107.361 70.3004 107.085 70.3004H106.709ZM110.614 72.4093V73.6245C110.614 73.8593 110.626 74.0063 110.65 74.0666C110.675 74.1278 110.716 74.177 110.777 74.2126C110.839 74.2488 110.952 74.2671 111.119 74.2671V74.3852H109.255V74.2671C109.423 74.2671 109.537 74.2488 109.597 74.2107C109.657 74.1736 109.699 74.1254 109.724 74.0656C109.748 74.0053 109.76 73.8593 109.76 73.6245V70.8119C109.76 70.5771 109.748 70.4301 109.724 70.3688C109.699 70.3076 109.657 70.2599 109.596 70.2237C109.536 70.1866 109.422 70.1693 109.255 70.1693V70.0503H110.947C111.388 70.0503 111.709 70.0873 111.914 70.1597C112.117 70.2315 112.284 70.3654 112.413 70.5612C112.541 70.755 112.607 70.9844 112.607 71.2462C112.607 71.5657 112.509 71.8299 112.316 72.0391C112.192 72.1712 112.02 72.2705 111.798 72.3361L112.674 73.8034C112.788 73.9933 112.87 74.1114 112.917 74.1582C112.991 74.2247 113.076 74.2608 113.173 74.2671V74.3852H112.027L110.853 72.4093H110.614ZM110.614 70.284V72.1822H110.767C111.016 72.1822 111.202 72.1563 111.325 72.1013C111.449 72.0469 111.546 71.949 111.617 71.8067C111.687 71.6651 111.723 71.4809 111.723 71.2529C111.723 70.9222 111.658 70.6788 111.528 70.5207C111.399 70.3626 111.19 70.284 110.901 70.284H110.614ZM115.982 69.9524L116.012 71.3965H115.901C115.85 71.0346 115.722 70.7434 115.519 70.5216C115.316 70.3014 115.097 70.191 114.86 70.191C114.678 70.191 114.533 70.2488 114.427 70.3654C114.319 70.4812 114.266 70.6156 114.266 70.767C114.266 70.8619 114.285 70.9483 114.323 71.0225C114.375 71.1227 114.458 71.2221 114.572 71.3195C114.657 71.3903 114.851 71.5146 115.155 71.6935C115.581 71.9432 115.868 72.1789 116.016 72.4006C116.164 72.6219 116.237 72.875 116.237 73.1608C116.237 73.5233 116.118 73.8352 115.882 74.096C115.645 74.3568 115.343 74.4879 114.979 74.4879C114.864 74.4879 114.755 74.4734 114.653 74.4464C114.551 74.418 114.423 74.3654 114.269 74.2893C114.183 74.2464 114.112 74.2256 114.057 74.2256C114.011 74.2256 113.961 74.2464 113.91 74.2893C113.857 74.3317 113.815 74.3972 113.783 74.4845H113.684V72.848H113.783C113.862 73.3083 114.013 73.6583 114.239 73.9007C114.463 74.1427 114.705 74.2642 114.964 74.2642C115.165 74.2642 115.325 74.1987 115.444 74.0685C115.563 73.9388 115.623 73.787 115.623 73.6149C115.623 73.5122 115.6 73.4129 115.554 73.317C115.508 73.2221 115.439 73.1304 115.346 73.0442C115.252 72.9579 115.089 72.8455 114.852 72.7072C114.521 72.513 114.283 72.3481 114.138 72.2117C113.992 72.0753 113.881 71.9225 113.803 71.7547C113.726 71.5865 113.686 71.4009 113.686 71.1979C113.686 70.8533 113.793 70.5588 114.006 70.3154C114.219 70.0734 114.488 69.9524 114.812 69.9524C114.93 69.9524 115.044 69.9683 115.155 70.0025C115.24 70.0285 115.342 70.0753 115.462 70.1452C115.583 70.2141 115.669 70.2488 115.716 70.2488C115.763 70.2488 115.799 70.2315 115.826 70.1977C115.854 70.164 115.878 70.0821 115.901 69.9524H115.982ZM118.746 74.2671V74.3852H116.842V74.2671H116.964C117.069 74.2671 117.154 74.2444 117.218 74.1996C117.265 74.1702 117.301 74.1191 117.326 74.0458C117.346 73.9957 117.356 73.8612 117.356 73.6434V70.7921C117.356 70.5708 117.346 70.432 117.326 70.3765C117.306 70.3211 117.267 70.273 117.206 70.2315C117.147 70.19 117.065 70.1693 116.964 70.1693H116.842V70.0503H118.746V70.1693H118.625C118.52 70.1693 118.434 70.191 118.37 70.2358C118.323 70.2662 118.287 70.3168 118.261 70.3896C118.241 70.4412 118.231 70.5752 118.231 70.7921V73.6434C118.231 73.8646 118.241 74.0035 118.261 74.0589C118.282 74.1148 118.322 74.1625 118.382 74.204C118.443 74.2464 118.523 74.2671 118.625 74.2671H118.746ZM122.616 70.0503V71.2244H122.52C122.462 70.9526 122.399 70.7583 122.329 70.6407C122.26 70.5216 122.164 70.4276 122.041 70.3582C121.974 70.3187 121.854 70.3004 121.685 70.3004H121.414V73.6434C121.414 73.8646 121.424 74.0035 121.444 74.0589C121.465 74.1148 121.506 74.1625 121.565 74.204C121.626 74.2464 121.707 74.2671 121.811 74.2671H121.932V74.3852H120.026V74.2671H120.146C120.252 74.2671 120.337 74.2444 120.401 74.1996C120.448 74.1702 120.484 74.1191 120.511 74.0458C120.532 73.9957 120.541 73.8612 120.541 73.6434V70.3004H120.278C120.033 70.3004 119.854 70.3611 119.743 70.4855C119.587 70.658 119.489 70.9048 119.448 71.2244H119.346V70.0503H122.616ZM127 70.0503V70.1693C126.88 70.1876 126.787 70.2291 126.723 70.2937C126.633 70.3833 126.492 70.6277 126.299 71.0259L125.51 72.5949V73.6434C125.51 73.867 125.519 74.0063 125.539 74.0612C125.558 74.1148 125.598 74.1625 125.655 74.204C125.714 74.2464 125.791 74.2671 125.888 74.2671H126.092V74.3852H124.049V74.2671H124.239C124.346 74.2671 124.432 74.2444 124.494 74.1996C124.541 74.1702 124.578 74.1191 124.604 74.0458C124.624 73.9957 124.634 73.8612 124.634 73.6434V72.7738L123.778 70.9164C123.607 70.5501 123.488 70.3351 123.418 70.2696C123.348 70.204 123.255 70.1712 123.139 70.1693V70.0503H124.883V70.1693H124.806C124.7 70.1693 124.626 70.1866 124.584 70.2237C124.542 70.2599 124.522 70.298 124.522 70.3385C124.522 70.4146 124.593 70.6079 124.736 70.9164L125.394 72.3524L126.05 71.0442C126.212 70.7246 126.293 70.513 126.293 70.4083C126.293 70.3515 126.27 70.3033 126.223 70.2652C126.163 70.2117 126.05 70.1804 125.888 70.1693V70.0503H127Z" fill="#006097"/>
</g>
<defs>
<filter id="filter0_d_185_37" x="0" y="0" width="154" height="157" filterUnits="userSpaceOnUse" color-interpolation-filters="sRGB">
<feFlood flood-opacity="0" result="BackgroundImageFix"/>
<feColorMatrix in="SourceAlpha" type="matrix" values="0 0 0 0 0 0 0 0 0 0 0 0 0 0 0 0 0 0 127 0" result="hardAlpha"/>
<feOffset dy="16"/>
<feGaussianBlur stdDeviation="6.5"/>
<feColorMatrix type="matrix" values="0 0 0 0 0 0 0 0 0 0 0 0 0 0 0 0 0 0 0.03 0"/>
<feBlend mode="normal" in2="BackgroundImageFix" result="effect1_dropShadow_185_37"/>
<feBlend mode="normal" in="SourceGraphic" in2="effect1_dropShadow_185_37" result="shape"/>
</filter>
</defs>
</svg>
