<svg width="154" height="157" viewBox="0 0 154 157" fill="none" xmlns="http://www.w3.org/2000/svg">
<g filter="url(#filter0_d_185_88)">
<rect width="128" height="128" transform="translate(13)" fill="white"/>
<path fill-rule="evenodd" clip-rule="evenodd" d="M42.6395 69.4009H42.0487V62.9366C42.0431 62.4878 41.9638 62.1194 41.3984 62.0967C40.9975 62.0807 40.6813 62.3687 40.6759 62.9366C40.631 64.8653 40.5819 66.7943 40.5412 68.7232C40.5167 69.8879 41.075 70.8302 42.3441 70.8302C43.6132 70.8301 44.1715 69.8879 44.147 68.7232C44.1063 66.7942 44.0573 64.8654 44.0124 62.9366C44.0069 62.3687 43.6906 62.0807 43.2898 62.0967C42.7244 62.1194 42.6451 62.4878 42.6395 62.9366V69.4009Z" fill="#BD2319"/>
<path fill-rule="evenodd" clip-rule="evenodd" d="M30.6614 59.1197C30.6095 59.1555 30.4767 59.0652 30.3682 59.1197C30.26 59.1737 30.2163 59.239 30.1839 59.3042C30.1511 59.3694 30.1839 59.5646 30.4009 59.7058C30.6179 59.8465 31.3679 59.9929 31.515 59.9704C31.662 59.9474 31.7753 59.6422 31.6508 59.6196C31.5264 59.5968 31.2096 59.5063 31.119 59.3596C31.0285 59.2121 30.8815 58.9406 30.8928 58.4089C30.9042 57.8772 31.0938 57.5842 31.1668 57.5276C31.2398 57.4711 31.3467 57.5714 31.3706 57.6045C31.3944 57.6372 31.5516 58.0934 31.5727 58.1145C31.5942 58.1362 31.5901 58.2576 31.4923 58.2052C31.3947 58.1527 31.2889 58.1145 31.1982 58.1826C31.1077 58.2504 31.0285 58.3296 31.1304 58.4426C31.2322 58.5558 31.3566 58.5447 31.4246 58.5219C31.4923 58.4994 31.6168 58.4655 31.5829 58.5334C31.5489 58.6012 31.5603 58.884 31.5603 58.884C31.5603 58.884 31.4582 59.0085 31.5603 59.0991C31.662 59.1894 31.8432 59.1894 31.8432 59.1103C31.8432 59.0312 31.8432 58.7933 31.8658 58.6577C31.8884 58.5219 31.9338 58.2956 32.0243 58.2504C32.1148 58.2052 32.1827 58.2392 32.3297 58.1487C32.4767 58.0583 32.6353 57.8206 32.6467 57.6847C32.6578 57.549 32.7483 56.825 32.8278 56.7117C32.9069 56.5986 33.1105 56.5305 32.918 56.3496C32.7257 56.1687 31.9677 56.0894 31.6056 56.3721C31.2435 56.655 30.9492 57.051 30.7569 57.594C30.5646 58.1374 30.5306 58.4204 30.5985 58.7033C30.6664 58.9857 30.7125 59.084 30.6614 59.1197ZM31.8165 58.1031C31.8165 58.1031 31.7764 58.1233 31.7562 58.1831C31.7365 58.2431 31.7264 57.7423 31.7264 57.562C31.7264 57.3815 31.5962 57.3815 31.4658 57.3917C31.3357 57.4015 31.3357 57.4015 31.2654 57.4115C31.3326 57.244 31.3934 57.1207 31.5153 56.9536C31.6725 56.7387 31.911 56.5071 32.1873 56.4797C32.347 56.4638 32.2575 56.9807 32.2474 57.1209C32.2376 57.2613 32.2173 57.7022 32.2073 57.7924C32.1975 57.8825 32.1074 57.8625 31.9771 57.8926C31.8467 57.9224 31.8165 58.1031 31.8165 58.1031Z" fill="#BD2319"/>
<path fill-rule="evenodd" clip-rule="evenodd" d="M36.3852 52.4284C36.2759 52.4872 36.2255 52.5629 36.3264 52.7392C36.4272 52.9156 36.5448 52.8822 36.6371 53.2012C36.7295 53.5204 36.9143 54.1672 36.9563 54.2679C36.9983 54.3685 36.9815 54.5535 36.9815 54.629C36.9815 54.7046 37.0319 54.9313 37.1999 54.8978C37.3678 54.864 37.2922 54.6627 37.2754 54.5618C37.2587 54.4611 37.0319 53.6296 36.9731 53.5036C36.9143 53.3776 36.805 53.0669 36.7884 52.9492C36.7715 52.8317 36.7715 52.7224 36.6707 52.6132C36.5699 52.504 36.4943 52.3697 36.3852 52.4284Z" fill="#BD2319"/>
<path fill-rule="evenodd" clip-rule="evenodd" d="M37.1747 52.2605C37.1243 52.2773 37.0402 52.3026 37.0319 52.4033C37.0234 52.504 37.1326 52.6302 37.1998 52.7057C37.2671 52.7812 37.3341 52.8653 37.3594 52.9577C37.3846 53.0499 37.6114 53.6296 37.687 53.6632C37.7626 53.6968 37.8382 53.596 37.8382 53.4447C37.8382 53.2936 37.8045 53.1005 37.7374 53.0333C37.6702 52.9661 37.6282 52.8737 37.6282 52.7393C37.6282 52.6049 37.5359 52.4621 37.4434 52.3445C37.3511 52.2269 37.2251 52.2437 37.1747 52.2605Z" fill="#BD2319"/>
<path fill-rule="evenodd" clip-rule="evenodd" d="M37.7038 50.925C37.642 50.9334 37.519 50.9755 37.4939 51.0427C37.4687 51.11 37.4939 51.219 37.5945 51.3198C37.6954 51.4207 37.7543 51.5216 37.771 51.597C37.7877 51.6725 38.1321 52.437 38.2161 52.6385C38.3 52.84 38.4345 53.2349 38.5521 53.4868C38.6697 53.7388 38.8476 54.203 38.9973 54.2847C39.147 54.3662 39.2152 54.1269 39.1252 54.0105C39.0352 53.894 39.0392 53.9404 38.9048 53.7135C38.7705 53.4868 38.2329 52.2269 38.1994 52.1262C38.1658 52.0253 38.0407 51.6483 38.0407 51.5223C38.0407 51.3963 38.1405 51.2275 38.065 51.11C38.0316 50.9921 37.7657 50.9168 37.7038 50.925Z" fill="#BD2319"/>
<path fill-rule="evenodd" clip-rule="evenodd" d="M47.3691 53.9814C47.3907 54.1841 47.4849 54.8069 47.8035 54.8286C48.1221 54.8503 48.1437 54.4883 48.0712 54.3652C47.9989 54.242 47.5789 53.7787 47.5789 53.7787C47.4014 53.5849 47.3556 53.8571 47.3691 53.9814Z" fill="#BD2319"/>
<path fill-rule="evenodd" clip-rule="evenodd" d="M54.5208 58.1121C54.4892 58.126 54.426 58.1912 54.4024 58.2386C54.3786 58.2859 54.3313 58.3729 54.2917 58.3808C54.2522 58.3886 54.0074 58.444 53.9521 58.4597C53.8969 58.4755 53.7311 58.4992 53.6995 58.5466C53.6678 58.5939 53.581 58.6809 53.581 58.6809C53.581 58.6809 53.581 58.7756 53.6521 58.7756C53.7231 58.7756 53.7231 58.8388 53.7231 58.8388C53.7231 58.8388 53.7152 58.973 53.6759 58.9494C53.6362 58.9256 53.6219 58.9415 53.5651 58.8887C53.5084 58.8361 53.0542 58.4023 53.0542 58.4023C53.0543 58.4021 52.953 58.2442 52.9286 58.1994C52.9043 58.1548 52.9002 58.0779 52.8232 58.0779C52.746 58.0778 52.6529 58.1265 52.6285 58.1955C52.6179 58.2256 52.6108 58.3634 52.6893 58.454C52.7902 58.5703 52.9944 58.6473 53.1083 58.7225C53.311 58.8563 53.4518 58.987 53.5671 59.115C53.6824 59.243 53.9341 59.5204 54.0023 59.6697C54.0705 59.819 54.0067 59.8747 53.9552 59.8618C53.9043 59.8489 53.7975 59.785 53.7548 59.7509C53.7122 59.7166 53.6737 59.7465 53.6737 59.7465C53.6737 59.7465 53.6858 59.7893 53.7707 59.9194C53.8556 60.0495 53.9177 60.2533 53.9687 60.2587C54.0197 60.2645 54.3024 60.089 54.2516 59.9025C54.2006 59.7157 54.0932 59.5234 54.0592 59.4782C54.0253 59.4328 54.048 59.3706 54.1327 59.4103C54.2177 59.4499 54.3195 59.5121 54.4665 59.5121C54.6137 59.5121 54.6645 59.5629 54.7099 59.5007C54.7551 59.4384 54.8512 59.3254 54.8625 59.2914C54.8739 59.2575 54.9474 59.2631 55.0267 59.348C55.1058 59.4328 55.2416 59.5121 55.2982 59.4272C55.3547 59.3424 55.2756 59.2348 55.3491 59.2065C55.4227 59.1782 55.4454 59.1161 55.485 59.167C55.5245 59.2179 55.5583 59.2744 55.5866 59.2406C55.6149 59.2065 55.6715 59.1613 55.7111 59.0991C55.7508 59.0368 55.7281 58.9237 55.6657 58.9294C55.6037 58.935 55.5075 58.9633 55.4565 58.9802C55.4057 58.9973 55.3321 59.0029 55.3038 59.0482C55.2756 59.0934 55.2643 59.1161 55.2247 59.1161C55.185 59.1161 55.1285 59.1388 55.0661 59.0764C55.004 59.0143 54.9926 58.969 54.9304 58.9633C54.8683 58.9575 54.7268 59.0029 54.7211 59.0312C54.7155 59.0595 54.7607 59.1274 54.6476 59.1388C54.5344 59.15 54.2516 59.1047 54.2119 59.1274C54.1723 59.15 54.2177 59.2236 54.161 59.2406C54.1044 59.2575 54.0139 59.3197 53.9687 59.2914C53.9235 59.2631 53.8386 59.1501 53.8386 59.1501C53.8386 59.15 53.7594 59.0199 53.8895 59.0199C54.0197 59.0199 54.2177 58.986 54.2573 58.9802C54.297 58.9745 54.3591 58.9916 54.3478 58.935C54.3364 58.8784 54.4496 58.9123 54.4044 58.8557C54.3591 58.7992 54.3195 58.7597 54.4044 58.7483C54.4892 58.737 54.806 58.7483 54.9814 58.7201C55.1567 58.6918 55.1681 58.6239 55.185 58.5617C55.202 58.4994 55.0719 58.3806 55.0153 58.3976C54.9587 58.4145 54.8966 58.5221 54.8173 58.5559C54.7382 58.5898 54.4836 58.6577 54.4553 58.6692C54.427 58.6804 54.2496 58.7201 54.2119 58.7201C54.1743 58.7201 53.9932 58.5842 54.1384 58.5673C54.2836 58.5503 54.4571 58.5069 54.5344 58.4485C54.6117 58.39 54.6872 58.194 54.6759 58.1487C54.6645 58.1034 54.5523 58.0985 54.5208 58.1121Z" fill="#BD2319"/>
<path fill-rule="evenodd" clip-rule="evenodd" d="M53.0954 58.9828C53.0212 59.0125 52.969 59.0869 52.9914 59.1537C53.0136 59.2206 53.1327 59.2354 53.1475 59.3172C53.1724 59.4544 52.9487 59.4808 52.8651 59.4808C52.8651 59.4808 52.6049 59.1984 52.5752 59.1463C52.5453 59.0943 52.4488 58.8191 52.3594 58.8712C52.2703 58.9232 52.2034 59.0719 52.2555 59.1611C52.3075 59.2504 52.3968 59.3024 52.4933 59.3989C52.5899 59.4956 52.6866 59.5997 52.6866 59.6369C52.6866 59.6739 52.6345 59.7632 52.5379 59.7856C52.4414 59.8078 52.1811 59.8376 52.1366 59.7781C52.092 59.7185 52.0473 59.5922 52.0623 59.5031C52.077 59.4138 52.0844 59.2132 51.9879 59.28C51.8912 59.3469 51.921 59.4065 51.8614 59.4659C51.802 59.5254 51.75 59.7113 51.817 59.7856C51.8838 59.8598 52.0547 59.9491 52.2629 59.9417C52.471 59.9343 52.5677 59.897 52.6345 59.897C52.7016 59.897 52.7982 59.8152 52.8055 59.8822C52.813 59.9491 52.8577 60.2241 52.969 60.2093C53.0806 60.1944 53.2219 60.135 53.1995 60.0383C53.1773 59.9417 53.0434 59.7113 53.0434 59.7113C53.0434 59.7111 53.0212 59.5402 53.0806 59.5626C53.1401 59.5848 53.2664 59.6071 53.3482 59.6145C53.43 59.6219 53.5861 59.57 53.5489 59.4659C53.5117 59.3619 53.3184 59.1611 53.2813 59.1017C53.2441 59.0421 53.1697 58.953 53.0954 58.9828Z" fill="#BD2319"/>
<path fill-rule="evenodd" clip-rule="evenodd" d="M47.8665 52.1513C47.8469 52.1554 47.7166 52.3419 47.5758 52.545C47.568 52.5444 47.5613 52.5441 47.5565 52.5441C47.4914 52.5441 47.2202 52.5658 47.1225 52.5007C47.0249 52.4355 46.8836 52.3271 46.8186 52.3162C46.7534 52.3053 46.6666 52.3487 46.6342 52.4573C46.6015 52.5658 46.6124 52.6744 46.7643 52.8371C46.9163 52.9999 46.9488 52.9781 47.09 52.9456C47.1553 52.9303 47.237 52.92 47.3197 52.9109C47.2636 52.9888 47.2207 53.0448 47.203 53.0584C47.1275 53.1171 46.8923 53.3944 46.7495 53.4953C46.6067 53.596 46.2193 53.7689 46.2371 53.7807C46.255 53.7927 46.1482 53.8081 46.1364 53.6884C46.1246 53.5685 46.0524 53.6715 45.9348 53.7388C45.8172 53.806 45.8929 53.9488 45.8759 54.0327C45.8593 54.1167 45.8617 54.1779 46.0211 54.1528C46.1809 54.1274 46.3365 53.9572 46.5212 53.8648C46.7061 53.7724 47.0352 53.6211 47.1778 53.47C47.2907 53.3504 47.5138 53.0524 47.6356 52.8748C47.8 52.8586 48.1172 52.8588 48.1859 52.8588C48.2618 52.8586 48.3377 52.9238 48.4571 52.9129C48.5764 52.9022 48.7067 52.8479 48.6307 52.7501C48.5548 52.6526 48.4898 52.5332 48.3703 52.5658C48.2509 52.5983 48.1347 52.586 48.0587 52.5968C48.0246 52.6015 47.9325 52.5915 47.836 52.5788C47.8938 52.5022 47.9525 52.4281 47.9841 52.3782C48.0429 52.2856 48.0765 52.2605 48.1186 52.2354C48.1605 52.2101 48.253 52.1262 48.3032 52.0422C48.3536 51.9581 48.32 51.7314 48.253 51.681C48.1857 51.6305 48.0597 51.6642 48.0009 51.7734C47.9422 51.8825 47.9084 52.143 47.8665 52.1513Z" fill="#BD2319"/>
<path fill-rule="evenodd" clip-rule="evenodd" d="M42.3259 57.066C42.2732 57.066 42.2204 57.0669 42.168 57.0689C42.1282 56.7948 41.9766 56.464 41.6461 56.4538C41.3958 56.4463 41.2409 56.4641 40.9853 56.4626C40.7333 56.4609 40.5652 56.3732 40.4547 56.2309C40.5195 56.5715 40.6177 56.9141 40.9954 56.9733C41.1605 56.9991 41.3387 56.9898 41.5059 56.9907C41.7557 56.992 41.8877 57.025 41.9802 57.0807C41.3386 57.1378 40.7576 57.3712 40.5582 57.9485C40.3804 58.4629 40.432 59.718 40.3167 60.2952C40.0464 60.2952 39.776 60.2952 39.5057 60.2952C38.8024 60.2819 38.5947 60.8723 38.5472 61.6159C38.4255 63.7098 38.287 65.8029 38.1822 67.8977C38.0996 69.5499 37.7503 70.2975 37.2281 70.8641C37.6115 70.8641 37.9947 70.8641 38.3779 70.8641C38.5348 70.7105 38.6629 70.5134 38.94 70.1078C38.829 70.4773 38.7265 70.6891 38.6182 70.8641C38.9509 70.8641 39.2832 70.8641 39.6159 70.8641C39.8054 70.4912 39.8555 70.047 39.8765 69.592C39.9846 67.2471 40.0842 64.902 40.188 62.557C40.2002 62.1792 40.3256 61.9541 40.632 61.95C41.1387 61.9499 41.6454 61.95 42.1521 61.95C42.1521 60.9113 42.1521 59.8725 42.1521 58.8338C41.7902 58.754 41.5178 58.4302 41.5178 58.0448C41.5178 57.5998 41.8808 57.2368 42.3259 57.2368C42.7709 57.2368 43.1339 57.5998 43.1339 58.0448C43.1339 58.4302 42.8617 58.754 42.4997 58.8338C42.4997 59.8725 42.4997 60.9113 42.4997 61.95C43.0064 61.9499 43.513 61.95 44.0197 61.95C44.3262 61.9541 44.4516 62.1792 44.4638 62.557C44.5676 64.9019 44.6671 67.2472 44.7753 69.592C44.7962 70.0469 44.8464 70.4914 45.0358 70.8641C45.3684 70.8641 45.7009 70.8641 46.0335 70.8641C45.9252 70.689 45.8228 70.4774 45.7118 70.1078C45.9889 70.5133 46.1169 70.7106 46.2739 70.8641C46.6572 70.8641 47.0403 70.8641 47.4235 70.8641C46.9015 70.2973 46.5522 69.5499 46.4696 67.8977C46.3646 65.8029 46.2264 63.7098 46.1046 61.6159C46.0571 60.8723 45.8493 60.2819 45.146 60.2952C44.8759 60.2952 44.6054 60.2952 44.3351 60.2952C44.2199 59.718 44.2713 58.4631 44.0935 57.9485C43.8942 57.3712 43.3132 57.138 42.6715 57.0807C42.7642 57.0249 42.896 56.992 43.1459 56.9907C43.313 56.9896 43.4912 56.9991 43.6564 56.9733C44.034 56.914 44.1323 56.5715 44.197 56.2309C44.0866 56.3732 43.9185 56.4609 43.6665 56.4626C43.4109 56.4641 43.256 56.4463 43.0057 56.4538C42.6751 56.464 42.5236 56.7948 42.4838 57.0689C42.4313 57.0669 42.3785 57.066 42.3259 57.066Z" fill="#BD2319"/>
<path fill-rule="evenodd" clip-rule="evenodd" d="M42.3007 49C50.728 49 57.6013 55.8733 57.6013 64.3007C57.6013 72.7279 50.728 79.6013 42.3007 79.6013C33.8734 79.6013 27 72.728 27 64.3007C27 55.8733 33.8733 49 42.3007 49ZM42.3007 49.5387C34.1701 49.5387 27.5387 56.1701 27.5387 64.3007C27.5387 72.4312 34.1701 79.0626 42.3007 79.0626C50.4312 79.0626 57.0627 72.4312 57.0627 64.3007C57.0627 56.1701 50.4312 49.5387 42.3007 49.5387Z" fill="#BD2319"/>
<path fill-rule="evenodd" clip-rule="evenodd" d="M28.8794 63.8841L29.5884 63.8715L29.5897 63.9443C29.4212 63.9707 29.2819 64.0501 29.1726 64.1833C29.0635 64.3158 29.0102 64.4675 29.0131 64.6374C29.015 64.7468 29.0419 64.8349 29.0943 64.9019C29.1463 64.9685 29.2123 65.0014 29.2927 65.0001C29.4162 64.9978 29.5445 64.8357 29.6781 64.5137L29.6795 64.5094C29.6877 64.4896 29.6997 64.4602 29.7157 64.4207C29.8056 64.1984 29.8997 64.0495 29.9984 63.9741C30.0428 63.9408 30.0902 63.9151 30.1407 63.8974C30.1916 63.8797 30.2445 63.8703 30.3009 63.8692C30.4804 63.8661 30.6294 63.9314 30.749 64.0653C30.8681 64.1991 30.9296 64.3722 30.9332 64.5842C30.9352 64.699 30.9143 64.8195 30.8706 64.9456C30.8269 65.0713 30.8056 65.14 30.8058 65.1511C30.8063 65.1831 30.8163 65.2055 30.8356 65.2181C30.855 65.2306 30.8905 65.2387 30.9418 65.2416L30.9432 65.3186L30.3178 65.3295L30.3167 65.2634C30.465 65.2337 30.5843 65.1608 30.6751 65.0434C30.7664 64.9264 30.8104 64.7907 30.8078 64.6356C30.8061 64.5385 30.7827 64.461 30.7372 64.4029C30.6916 64.3448 30.6328 64.3162 30.561 64.3174C30.4562 64.3192 30.3546 64.4449 30.2565 64.6941L30.2441 64.7255C30.1726 64.9042 30.1173 65.0292 30.0789 65.1006C30.0404 65.1716 30.0021 65.2255 29.9634 65.2616C29.9056 65.3171 29.8417 65.3589 29.7728 65.3879C29.7034 65.4163 29.6295 65.4315 29.5501 65.4329C29.3592 65.4362 29.2025 65.3696 29.0799 65.2329C28.9574 65.0963 28.8945 64.9164 28.8906 64.6939C28.8885 64.5682 28.9081 64.4368 28.9498 64.3C28.9914 64.1628 29.0121 64.0893 29.012 64.0778C29.0114 64.0452 28.9995 64.0187 28.9766 63.9981C28.9537 63.9774 28.9219 63.9656 28.8807 63.9624L28.8794 63.8841ZM29.562 66.9815C29.4635 66.9989 29.3971 67.0295 29.3625 67.0735C29.328 67.1175 29.3166 67.1851 29.3278 67.2759L29.2575 67.2883L29.0657 66.2007L29.136 66.1882C29.1557 66.2776 29.1895 66.3373 29.2374 66.3667C29.2849 66.3962 29.3584 66.4022 29.4569 66.3848L30.6788 66.1694C30.7773 66.1521 30.8442 66.1209 30.8786 66.0764C30.9135 66.0319 30.9249 65.9647 30.913 65.875L30.9833 65.8626L31.175 66.9502L31.1034 66.9628C31.0826 66.8727 31.0489 66.8131 31.0024 66.7839C30.9555 66.7547 30.8824 66.7487 30.784 66.766L29.562 66.9815ZM30.4322 69.6195C30.2606 69.5762 30.1162 69.4989 29.9985 69.3876C29.8809 69.2764 29.7945 69.136 29.7392 68.9657C29.6983 68.8396 29.6812 68.7159 29.6883 68.5938C29.6956 68.4723 29.7269 68.3549 29.783 68.2426C29.8417 68.1183 29.9258 68.0116 30.0345 67.9219C30.1438 67.8326 30.2732 67.7633 30.4235 67.7145C30.707 67.6224 30.9664 67.6357 31.2009 67.7553C31.436 67.8746 31.599 68.0747 31.6903 68.3555C31.7294 68.4755 31.7482 68.6003 31.7469 68.7295C31.7457 68.8587 31.7468 68.9273 31.7493 68.935C31.7581 68.9619 31.7715 68.9801 31.7902 68.9896C31.8094 68.999 31.8399 69.0032 31.8823 69.001L31.9053 69.0714L31.311 69.2646L31.2881 69.194C31.4273 69.1211 31.5241 69.0283 31.578 68.9157C31.6313 68.8028 31.6371 68.6811 31.5947 68.5505C31.5433 68.3922 31.4364 68.2941 31.274 68.2557C31.1117 68.2174 30.8995 68.2411 30.6373 68.3263C30.3634 68.4152 30.169 68.5233 30.0547 68.6499C29.9398 68.7763 29.908 68.9185 29.9591 69.0759C29.9916 69.1755 30.0508 69.262 30.1376 69.3354C30.2244 69.4093 30.3347 69.4666 30.4678 69.5078L30.4322 69.6195ZM31.1379 70.9467L31.6351 70.6361L31.9498 71.1398L31.4527 71.4504C31.3678 71.5033 31.2979 71.5251 31.243 71.5158C31.1882 71.5067 31.1345 71.4641 31.0816 71.3883L31.0211 71.4261L31.6063 72.3627L31.6668 72.3249C31.6218 72.2474 31.6069 72.1812 31.6227 72.1262C31.6385 72.0711 31.6888 72.0171 31.7737 71.9642L32.8259 71.3065C32.9107 71.2536 32.9813 71.232 33.0367 71.242C33.0924 71.2518 33.1454 71.2943 33.1958 71.3694L33.2574 71.3309L32.6722 70.3942L32.6117 70.432C32.6561 70.5121 32.6709 70.5791 32.6554 70.6328C32.6398 70.6865 32.5897 70.7399 32.5049 70.7929L32.0711 71.0639L31.7564 70.5602L32.1902 70.2893C32.275 70.2363 32.345 70.2146 32.4 70.2241C32.4551 70.2337 32.5088 70.2764 32.5613 70.3513L32.6217 70.3136L32.0365 69.377L31.9761 69.4147C32.0207 69.4934 32.0353 69.56 32.0197 69.6144C32.0043 69.6685 31.954 69.7225 31.8691 69.7755L30.817 70.433C30.7321 70.486 30.6615 70.5075 30.6054 70.4981C30.5492 70.4885 30.4962 70.4461 30.4458 70.371L30.3854 70.4088L30.9706 71.3453L31.0311 71.3074C30.9862 71.2267 30.9714 71.1597 30.9872 71.1064C31.003 71.053 31.0532 70.9997 31.1379 70.9467ZM33.7567 73.6476L34.4038 73.0442C34.4776 72.9753 34.5166 72.9134 34.5215 72.8584C34.5265 72.8034 34.4999 72.7412 34.4414 72.6714L34.4936 72.6228L34.9218 73.0819L34.8696 73.1305C34.8051 73.067 34.7446 73.0358 34.6881 73.0369C34.6318 73.0376 34.5667 73.0722 34.4935 73.1404L33.8506 73.7399C33.7501 73.8336 33.6643 73.8992 33.5928 73.9365C33.5215 73.9736 33.4477 73.9941 33.3724 73.9981C33.2723 74.0017 33.1689 73.9765 33.0626 73.922C32.9558 73.8671 32.8529 73.7864 32.7533 73.6796C32.5762 73.4896 32.4874 73.3081 32.486 73.1347C32.4846 72.9613 32.571 72.7936 32.7453 72.6312L33.4263 71.9961C33.4995 71.9279 33.5386 71.8653 33.5432 71.8092C33.5482 71.7529 33.5213 71.6903 33.4625 71.6216L33.5146 71.5729L34.2677 72.3806L34.2156 72.4292C34.1498 72.3657 34.089 72.3341 34.0331 72.3352C33.9772 72.3362 33.9126 72.371 33.8395 72.4392L33.0623 73.1639C32.9541 73.2648 32.8956 73.3599 32.8864 73.4497C32.8775 73.5391 32.9166 73.6308 33.004 73.7246C33.1078 73.8359 33.2226 73.8853 33.3479 73.8724C33.4733 73.8595 33.6096 73.7847 33.7567 73.6476ZM34.3737 74.6582L34.6421 74.4842L35.0539 74.7833L34.9517 75.1391C34.9478 75.1558 34.9425 75.1714 34.9356 75.1866C34.929 75.2012 34.9212 75.2145 34.9125 75.2265C34.8877 75.2605 34.8598 75.2753 34.8291 75.2713C34.7981 75.2665 34.7417 75.2343 34.6593 75.1744L34.6174 75.2322L35.4485 75.836L35.4904 75.7783C35.4555 75.753 35.4341 75.7238 35.4259 75.6906C35.4179 75.6575 35.422 75.608 35.4389 75.5416L35.9012 73.7581L35.7276 73.6322L34.1941 74.6023C34.1344 74.6399 34.0819 74.6608 34.036 74.6655C33.99 74.6693 33.9481 74.6578 33.9094 74.6297L33.8675 74.6873L34.3436 75.0332L34.3857 74.9755L34.3639 74.9598C34.3097 74.9204 34.2767 74.8829 34.2651 74.8467C34.2539 74.8107 34.2626 74.7727 34.2919 74.7325C34.3006 74.7205 34.3117 74.7085 34.3255 74.696C34.339 74.684 34.3548 74.6711 34.3737 74.6582ZM34.7505 74.4138L35.2461 74.0949L35.0877 74.6588L34.7505 74.4138ZM36.9082 74.7619C36.9505 74.6713 36.9632 74.5986 36.9467 74.5449C36.9302 74.4907 36.8817 74.4429 36.8014 74.4012L36.8316 74.3364L37.5646 74.6783L37.9251 76.0946L38.254 75.3894C38.2962 75.2989 38.3092 75.2268 38.2932 75.1739C38.2771 75.1215 38.2283 75.0733 38.1465 75.03L38.1773 74.964L38.7484 75.2304L38.7183 75.2949C38.6347 75.2602 38.5669 75.254 38.5148 75.2761C38.463 75.2978 38.4155 75.3545 38.3732 75.4451L37.6996 76.8896L37.5014 76.7972L37.0057 74.8645L36.5032 75.9421C36.4608 76.0328 36.4479 76.1048 36.4641 76.1584C36.4803 76.2118 36.5292 76.26 36.61 76.3029L36.5799 76.3673L36.0087 76.1011L36.0389 76.0365C36.122 76.0721 36.1897 76.0789 36.2419 76.0563C36.2942 76.0336 36.3416 75.9772 36.3839 75.8865L36.9082 74.7619ZM41.7328 76.9604L41.8099 76.0789C41.8188 75.9783 41.8063 75.9062 41.7732 75.862C41.7401 75.8178 41.6787 75.7894 41.5885 75.7767L41.5947 75.7056L42.2202 75.7604L42.214 75.8314C42.1235 75.8273 42.0576 75.8446 42.0164 75.8832C41.975 75.9214 41.9497 75.9909 41.941 76.0905L41.8644 76.966C41.8524 77.1029 41.8326 77.2092 41.8043 77.2845C41.7761 77.3599 41.735 77.4245 41.6818 77.4781C41.6098 77.5475 41.5161 77.598 41.4006 77.6288C41.2845 77.6594 41.154 77.6682 41.0086 77.6555C40.7498 77.6328 40.5624 77.5573 40.4453 77.4294C40.3283 77.3015 40.2803 77.1191 40.3011 76.8817L40.3823 75.954C40.3909 75.8543 40.3781 75.7817 40.3441 75.7369C40.3101 75.6917 40.2482 75.6632 40.1585 75.6516L40.1647 75.5805L41.2649 75.6767L41.2587 75.7477C41.1672 75.7446 41.1009 75.7618 41.06 75.8001C41.0192 75.8383 40.9945 75.9072 40.9857 76.0068L40.8931 77.0656C40.8802 77.2128 40.9004 77.3228 40.9536 77.3955C41.0068 77.4679 41.0973 77.51 41.225 77.5212C41.3766 77.5343 41.4949 77.4944 41.5795 77.4008C41.6641 77.3074 41.7152 77.1606 41.7328 76.9604ZM42.7945 76.0967C42.7807 75.9978 42.7518 75.93 42.7086 75.894C42.6653 75.8575 42.5986 75.8437 42.5085 75.8524L42.4986 75.7819L43.2993 75.6693L44.3734 76.6607L44.2649 75.8902C44.251 75.7911 44.2227 75.7237 44.1804 75.688C44.1383 75.6529 44.0712 75.6391 43.979 75.6473L43.9689 75.5753L44.593 75.4875L44.603 75.5581C44.5139 75.5745 44.4536 75.6062 44.4219 75.6531C44.3903 75.6995 44.3813 75.773 44.3953 75.872L44.6171 77.4503L44.4006 77.4807L42.9322 76.1297L43.0976 77.3071C43.1115 77.4062 43.1398 77.4739 43.1826 77.5099C43.2253 77.5458 43.2925 77.5597 43.3837 77.5517L43.3937 77.6223L42.7697 77.7099L42.7597 77.6394C42.8488 77.6239 42.9092 77.5927 42.9408 77.5453C42.9722 77.4978 42.9812 77.4246 42.9674 77.3255L42.7945 76.0967ZM46.299 76.6958C46.3265 76.7919 46.364 76.855 46.4114 76.8847C46.4589 76.9143 46.5271 76.9187 46.6165 76.898L46.636 76.9666L45.5743 77.271L45.5546 77.2024C45.6416 77.1735 45.6973 77.1337 45.7216 77.0829C45.746 77.0326 45.7443 76.959 45.7166 76.8629L45.3746 75.6701C45.3471 75.5739 45.309 75.5107 45.2612 75.4812C45.2132 75.4511 45.1453 75.4466 45.0573 75.4679L45.0377 75.3994L46.0993 75.0949L46.1193 75.1648C46.0319 75.195 45.9762 75.2349 45.952 75.2842C45.9279 75.3338 45.9294 75.407 45.957 75.5032L46.299 76.6958ZM48.0948 76.3977L48.2031 76.3398L48.0296 74.4966C48.0229 74.4263 48.0296 74.3643 48.0493 74.3115C48.0694 74.2585 48.1002 74.2199 48.1424 74.1953L48.109 74.1323L47.5965 74.4048L47.63 74.4678C47.6947 74.4377 47.7469 74.4236 47.7864 74.4257C47.8261 74.428 47.8556 74.4469 47.8745 74.4824C47.8815 74.4955 47.8874 74.5108 47.8924 74.5282C47.8974 74.5455 47.9013 74.5663 47.9034 74.5907L48.0015 75.5753L47.2061 74.906C47.1889 74.8898 47.1762 74.8772 47.1686 74.8681C47.1604 74.8589 47.1541 74.8499 47.1494 74.841C47.1323 74.8088 47.1314 74.7796 47.1471 74.7532C47.1625 74.7272 47.1972 74.6996 47.2507 74.6711L47.2657 74.6632L47.2315 74.5988L46.3392 75.0733L46.3727 75.1364C46.4242 75.1121 46.4717 75.1048 46.5145 75.1139C46.5576 75.1235 46.6144 75.1569 46.6843 75.215L48.0948 76.3977ZM49.5725 75.5899L49.5277 75.5345C49.5962 75.4754 49.6318 75.4176 49.6344 75.3607C49.6369 75.3038 49.607 75.2363 49.544 75.1587L48.7632 74.1944C48.7003 74.1166 48.6406 74.0733 48.5849 74.0648C48.5291 74.0557 48.4649 74.0783 48.3922 74.1323L48.3472 74.0768L49.6741 73.0023L50.0086 73.4155L49.9552 73.4588C49.8434 73.3553 49.7404 73.3033 49.6449 73.3031C49.5496 73.3026 49.4367 73.3554 49.3052 73.4618L49.0904 73.6357L49.5683 74.2259L49.5932 74.2057C49.6761 74.1385 49.7186 74.0649 49.7207 73.9837C49.7224 73.9029 49.6837 73.8019 49.6038 73.6812L49.6602 73.6354L50.2489 74.3623L50.1925 74.4082C50.0892 74.3027 49.9972 74.2431 49.9171 74.2286C49.8369 74.214 49.7537 74.242 49.6681 74.3112L49.6496 74.3263L50.029 74.7948C50.0883 74.868 50.1355 74.9037 50.1715 74.9017C50.207 74.8999 50.2703 74.8624 50.3603 74.7896C50.5012 74.6754 50.5852 74.5587 50.6127 74.4391C50.6403 74.3195 50.6162 74.1772 50.5406 74.0123L50.6027 73.9621L50.9039 74.5118L49.5725 75.5899ZM51.3842 72.6707L51.4085 72.6418C51.486 72.5494 51.5179 72.4594 51.5037 72.3713C51.4899 72.2835 51.4286 72.1941 51.3206 72.1033C51.2081 72.0089 51.1074 71.9644 51.0175 71.9695C50.9275 71.9747 50.8381 72.0308 50.7486 72.1374L51.3842 72.6707ZM51.8879 73.0934L51.4743 72.7464L51.5149 72.6981L52.5123 72.8984L52.9756 72.3463L52.9209 72.3005C52.8844 72.3367 52.844 72.3603 52.8 72.3703C52.7564 72.3805 52.6926 72.3777 52.6097 72.3618L51.8448 72.2245C51.8968 72.1083 51.9121 71.9969 51.8915 71.8897C51.8702 71.7825 51.8159 71.6918 51.7278 71.618C51.5973 71.5085 51.4541 71.4776 51.2977 71.5256C51.1408 71.5733 50.978 71.6979 50.8092 71.8992L50.1172 72.7238L50.1718 72.7697C50.2329 72.7029 50.2917 72.6686 50.3482 72.6667C50.4047 72.6648 50.4713 72.6956 50.5483 72.7602L51.4985 73.5574C51.5751 73.6217 51.6173 73.6822 51.6257 73.7386C51.6341 73.7948 51.61 73.8585 51.554 73.9296L51.6087 73.9753L52.3306 73.1151L52.2751 73.0703C52.2099 73.145 52.149 73.1843 52.0921 73.188C52.0354 73.1915 51.9675 73.1601 51.8879 73.0934ZM53.4686 71.7813L52.8484 71.4376L52.8837 71.374C53.0428 71.4353 53.2031 71.4362 53.3642 71.3755C53.525 71.3153 53.6472 71.2107 53.7294 71.0621C53.7826 70.9661 53.8033 70.8765 53.7914 70.7922C53.7799 70.7087 53.7391 70.6472 53.6687 70.6082C53.5607 70.5483 53.3686 70.6246 53.0918 70.8366L53.0885 70.8396C53.0714 70.8526 53.0464 70.8721 53.0127 70.8984C52.8238 71.0458 52.6678 71.1279 52.5445 71.1438C52.4895 71.1504 52.4355 71.1491 52.383 71.1391C52.3302 71.1289 52.2795 71.1108 52.23 71.0834C52.073 70.9963 51.9768 70.8652 51.9401 70.6896C51.9039 70.5141 51.9373 70.3335 52.0401 70.1481C52.0957 70.0476 52.1741 69.9537 52.275 69.8663C52.3757 69.7793 52.4285 69.7304 52.4339 69.7208C52.4495 69.6927 52.4519 69.6683 52.4415 69.6479C52.4311 69.6271 52.4042 69.6026 52.3612 69.5744L52.3986 69.5069L52.9457 69.8102L52.9136 69.8679C52.7702 69.8196 52.6304 69.8232 52.4932 69.8795C52.3557 69.9351 52.2496 70.0306 52.1744 70.1662C52.1273 70.2512 52.1087 70.33 52.1192 70.4031C52.1296 70.4761 52.1662 70.5304 52.229 70.5653C52.3207 70.616 52.4716 70.558 52.681 70.3912L52.7074 70.3702C52.8588 70.2512 52.9691 70.1707 53.0381 70.128C53.1069 70.0856 53.167 70.0583 53.2186 70.0463C53.2965 70.0271 53.3727 70.0228 53.4468 70.0323C53.5211 70.0422 53.5928 70.0661 53.6624 70.1046C53.8292 70.1971 53.9316 70.3333 53.9693 70.5128C54.0072 70.6924 53.9718 70.8796 53.8638 71.0742C53.8029 71.1843 53.72 71.2883 53.6156 71.3858C53.5111 71.4838 53.4563 71.5371 53.4507 71.5471C53.435 71.5756 53.4321 71.6046 53.4415 71.6339C53.451 71.6632 53.4727 71.6894 53.5067 71.7127L53.4686 71.7813ZM54.4905 68.7879L53.3322 68.3432C53.2388 68.3072 53.1794 68.2646 53.1541 68.2154C53.1293 68.1664 53.1311 68.0979 53.1597 68.0099L53.0918 67.9839L52.6961 69.0149L52.7625 69.0404C52.7985 68.9573 52.843 68.9058 52.8959 68.8856C52.9482 68.8651 53.0216 68.8729 53.1151 68.9087L54.2735 69.3534C54.3668 69.3892 54.4265 69.4322 54.4521 69.482C54.4781 69.5318 54.4763 69.6004 54.4471 69.6872L54.5138 69.7126L54.9095 68.6815L54.843 68.656C54.8058 68.7396 54.7611 68.7917 54.709 68.8117C54.6566 68.8316 54.5839 68.8236 54.4905 68.7879ZM53.6678 65.8041L54.1584 65.9174L54.1428 65.9844C54.008 65.9666 53.9048 65.9817 53.834 66.0292C53.7631 66.0765 53.713 66.1638 53.6834 66.2916L53.6553 66.4141L55.0865 66.7445C55.1839 66.7671 55.2571 66.7648 55.306 66.7383C55.3549 66.7117 55.3919 66.654 55.4172 66.5651L55.4868 66.581L55.2384 67.6572L55.1688 67.6412C55.1862 67.5533 55.1786 67.4858 55.1458 67.4389C55.1128 67.392 55.0476 67.3574 54.9504 67.3348L53.5188 67.0044L53.4907 67.127C53.4612 67.2547 53.468 67.3551 53.5111 67.4278C53.5541 67.5007 53.6404 67.5589 53.7695 67.6019L53.7534 67.6713L53.2629 67.5582L53.6678 65.8041ZM54.7262 64.2931L55.2915 64.3031C55.3913 64.3047 55.4624 64.2873 55.5046 64.2513C55.547 64.2152 55.5712 64.151 55.5775 64.0588L55.6488 64.06L55.6294 65.1641L55.5582 65.1629C55.5569 65.0724 55.5356 65.008 55.4937 64.9695C55.4517 64.9309 55.3807 64.9105 55.2807 64.9088L54.831 64.901L53.946 65.3817C53.8705 65.4224 53.8186 65.4619 53.7902 65.4996C53.7623 65.5374 53.7477 65.5827 53.7466 65.6348L53.674 65.6335L53.6919 64.6102L53.7646 64.6114C53.7637 64.664 53.7692 64.702 53.7817 64.7261C53.7937 64.7502 53.8135 64.7625 53.8418 64.7631C53.8523 64.7632 53.8628 64.762 53.875 64.7589C53.8864 64.7557 53.8991 64.7507 53.9126 64.7433L54.6128 64.3822L53.9725 64.0249C53.9569 64.0146 53.9402 64.0067 53.923 64.0016C53.9059 63.9971 53.8888 63.9943 53.872 63.994C53.8404 63.9934 53.8157 64.0089 53.799 64.0411C53.782 64.0728 53.7731 64.1196 53.7722 64.1813L53.7719 64.1967L53.6991 64.1954L53.7088 63.6432L53.7814 63.6446L53.7811 63.6599C53.7805 63.6962 53.7918 63.7304 53.8153 63.7615C53.8386 63.7928 53.8744 63.8217 53.9237 63.849L54.7262 64.2931Z" fill="#BD2319"/>
<path fill-rule="evenodd" clip-rule="evenodd" d="M39.677 73.632L39.6757 73.5444C39.8303 73.5444 39.9286 73.5357 39.9706 73.5185C40.012 73.5014 40.0329 73.4676 40.0329 73.4168V72.5537C40.0329 72.511 40.0228 72.4817 40.0022 72.4664C39.9817 72.451 39.9431 72.4438 39.8862 72.4438C39.8729 72.4438 39.8431 72.4452 39.796 72.4484C39.7695 72.4497 39.7472 72.4508 39.7298 72.4515V72.3637C39.8333 72.3561 39.9338 72.3385 40.0313 72.3116C40.1285 72.2847 40.2238 72.2481 40.3175 72.2013L40.4129 72.2013V73.4167C40.4129 73.4655 40.4334 73.4986 40.4745 73.5159C40.5152 73.5327 40.6024 73.5424 40.7364 73.5444V73.632C40.6503 73.6287 40.5639 73.6265 40.4767 73.6248C40.3898 73.6231 40.3026 73.6224 40.2148 73.6224C40.0938 73.6224 39.9903 73.6231 39.9051 73.6248C39.8199 73.6264 39.7438 73.6287 39.677 73.632ZM41.6165 72.9859C41.5395 73.0212 41.4812 73.062 41.4414 73.1085C41.4018 73.1553 41.3819 73.2062 41.3819 73.2614C41.3819 73.343 41.418 73.4128 41.4894 73.4703C41.5609 73.5277 41.6463 73.5563 41.7469 73.5563C41.8372 73.5563 41.9138 73.5334 41.9762 73.4872C42.0391 73.441 42.0703 73.3859 42.0703 73.3218C42.0704 73.2589 42.0348 73.2013 41.9643 73.1488C41.8937 73.0958 41.7777 73.0417 41.6165 72.9859ZM41.8107 72.763C41.8701 72.7268 41.9147 72.6876 41.9441 72.6455C41.9736 72.6032 41.9887 72.5574 41.9887 72.5083C41.9887 72.4441 41.9621 72.3906 41.9087 72.3485C41.8552 72.3063 41.7872 72.2854 41.7055 72.2854C41.631 72.2854 41.5685 72.3026 41.5176 72.3375C41.4667 72.3721 41.4411 72.4152 41.4411 72.4664C41.4411 72.5215 41.4689 72.5717 41.5249 72.6169C41.581 72.6617 41.6764 72.7104 41.8107 72.763ZM41.4436 72.9188C41.3434 72.8629 41.2686 72.8055 41.2198 72.7468C41.171 72.6876 41.1467 72.6252 41.1467 72.5597C41.1467 72.4534 41.2023 72.3664 41.3136 72.2993C41.4244 72.2321 41.5707 72.1986 41.7521 72.1986C41.9082 72.1986 42.0345 72.2266 42.1311 72.2826C42.2274 72.3388 42.2757 72.4122 42.2757 72.5022C42.2757 72.5627 42.2504 72.6176 42.2004 72.6667C42.1503 72.7162 42.0661 72.7673 41.9471 72.8205C42.087 72.8706 42.1892 72.9285 42.2544 72.9943C42.3199 73.0599 42.3522 73.1384 42.3522 73.2295C42.3522 73.3583 42.2934 73.4633 42.1748 73.5438C42.0567 73.624 41.9009 73.6643 41.708 73.6643C41.5091 73.6642 41.35 73.6291 41.2305 73.5586C41.1112 73.4882 41.0513 73.3959 41.0513 73.2819C41.0513 73.2022 41.0833 73.1324 41.148 73.073C41.2122 73.0138 41.3106 72.9624 41.4436 72.9188ZM42.5784 73.5426L42.7088 73.4423C42.7511 73.4723 42.7938 73.4945 42.837 73.5091C42.88 73.5237 42.9252 73.5311 42.9732 73.5311C43.1199 73.5311 43.2418 73.478 43.3386 73.3713C43.4348 73.265 43.4831 73.1281 43.4831 72.9607V72.9547C43.4218 73.0317 43.3539 73.0896 43.2781 73.1278C43.2025 73.166 43.1194 73.1852 43.0296 73.1852C42.8868 73.1852 42.7724 73.1461 42.6874 73.0676C42.6023 72.989 42.5595 72.883 42.5595 72.7494C42.5595 72.585 42.6177 72.4531 42.7336 72.3531C42.8499 72.2531 43.0022 72.2033 43.1914 72.2033C43.3985 72.2033 43.5589 72.2593 43.6726 72.3717C43.7859 72.484 43.8429 72.6422 43.8429 72.8468C43.8429 72.962 43.8224 73.07 43.7808 73.17C43.7393 73.2696 43.6799 73.3567 43.6024 73.4308C43.5194 73.5078 43.4262 73.5663 43.3226 73.6055C43.2193 73.6447 43.1067 73.6643 42.9856 73.6643C42.903 73.6642 42.8281 73.6543 42.7614 73.6347C42.6942 73.6148 42.6334 73.5841 42.5784 73.5426ZM43.2063 72.9965C43.2795 72.9965 43.3394 72.972 43.3848 72.9232C43.4301 72.874 43.4531 72.8099 43.4531 72.7309C43.4531 72.6029 43.4262 72.5016 43.3723 72.4265C43.3185 72.3518 43.2456 72.3142 43.1545 72.3142C43.0836 72.3141 43.0287 72.3415 42.9898 72.396C42.9509 72.4504 42.9316 72.5279 42.9316 72.6275C42.9316 72.7423 42.9565 72.8328 43.0057 72.8982C43.0548 72.9637 43.1216 72.9965 43.2063 72.9965ZM44.7209 72.869C44.646 72.869 44.5856 72.8943 44.5412 72.9444C44.4962 72.9946 44.474 73.063 44.474 73.1494C44.474 73.2692 44.5014 73.3666 44.5557 73.4407C44.6101 73.5151 44.6793 73.5522 44.7637 73.5522C44.8372 73.5522 44.8942 73.5261 44.9348 73.474C44.9754 73.4217 44.9954 73.3484 44.9954 73.2534C44.9954 73.1308 44.9715 73.0361 44.9237 72.9693C44.8753 72.9025 44.8081 72.869 44.7209 72.869ZM45.3488 72.325L45.2184 72.4242C45.1769 72.3948 45.1341 72.3731 45.0901 72.3584C45.0464 72.3438 45.001 72.3365 44.954 72.3365C44.8072 72.3364 44.685 72.3896 44.5882 72.4964C44.4912 72.6026 44.4428 72.7395 44.4428 72.9069V72.9128C44.5049 72.8352 44.5732 72.7767 44.649 72.7378C44.7248 72.6988 44.8072 72.6794 44.8977 72.6794C45.0396 72.6793 45.1538 72.7189 45.2394 72.798C45.325 72.8773 45.3678 72.984 45.3678 73.1182C45.3678 73.2817 45.3094 73.4132 45.1936 73.5128C45.0772 73.6124 44.9249 73.6624 44.7358 73.6624C44.5288 73.6623 44.3683 73.6061 44.2547 73.4938C44.1412 73.3815 44.0843 73.2231 44.0843 73.0179C44.0843 72.9025 44.1049 72.7952 44.1459 72.6963C44.1866 72.5972 44.2465 72.5106 44.3252 72.4358C44.4077 72.3588 44.5009 72.3006 44.6045 72.2618C44.708 72.2229 44.8205 72.2033 44.9416 72.2033C45.0243 72.2033 45.099 72.2133 45.1654 72.2329C45.2317 72.2528 45.2928 72.2834 45.3488 72.325Z" fill="#BD2319"/>
<path fill-rule="evenodd" clip-rule="evenodd" d="M42.3007 54.2306C47.8471 54.2306 52.3708 58.7543 52.3708 64.3007C52.3708 68.0896 50.2593 71.4009 47.1531 73.1191L46.9585 72.7303C49.9226 71.0839 51.9363 67.9202 51.9363 64.3007C51.9363 58.9936 47.6078 54.665 42.3007 54.665C36.9935 54.6649 32.665 58.9936 32.665 64.3007C32.665 67.9368 34.6971 71.1132 37.6833 72.7531L37.489 73.1419C34.3605 71.4302 32.2306 68.1064 32.2306 64.3007C32.2306 58.7541 36.7543 54.2306 42.3007 54.2306Z" fill="#BD2319"/>
<path fill-rule="evenodd" clip-rule="evenodd" d="M62.6808 74.3163L63.0444 74.3138C63.0552 74.6298 63.1279 74.8689 63.2618 75.0316C63.3958 75.195 63.586 75.2765 63.8313 75.2765C64.0314 75.2764 64.1916 75.2257 64.314 75.1248C64.4355 75.0239 64.4966 74.8925 64.4966 74.7307C64.4966 74.5951 64.4569 74.4833 64.3768 74.3952C64.2967 74.3079 64.1131 74.2029 63.8263 74.08C63.3966 73.8977 63.104 73.7206 62.947 73.5486C62.7908 73.3765 62.7121 73.1605 62.7121 72.9012C62.7121 72.5782 62.8254 72.3139 63.0526 72.108C63.2792 71.9021 63.5719 71.7987 63.9304 71.7987C64.0733 71.7986 64.2314 71.8098 64.4025 71.8326C64.5736 71.8546 64.7687 71.8894 64.9885 71.9352L64.9859 71.9503C64.9809 72.1639 64.9785 72.3249 64.9785 72.4343C64.9785 72.5384 64.9809 72.6945 64.9859 72.9012L64.9885 72.9164H64.6952C64.6902 72.6477 64.6282 72.4453 64.5075 72.3071C64.3877 72.169 64.2132 72.0996 63.9857 72.0996C63.8098 72.0995 63.671 72.1445 63.5684 72.2334C63.4662 72.3233 63.4147 72.4436 63.4147 72.5962C63.4147 72.7316 63.4544 72.8418 63.5347 72.9257C63.6147 73.0104 63.8017 73.1138 64.095 73.2359C64.1355 73.2544 64.1949 73.2792 64.2742 73.3105C64.5825 73.4366 64.7909 73.5495 64.8992 73.6486C65.0116 73.7562 65.0951 73.8723 65.1496 73.9985C65.2033 74.1239 65.2306 74.2689 65.2306 74.4325C65.2306 74.79 65.1099 75.0765 64.8687 75.2909C64.6273 75.5052 64.3016 75.6121 63.8917 75.6121C63.6652 75.612 63.4503 75.5901 63.2461 75.5451C63.042 75.5001 62.8452 75.4323 62.6567 75.3409C62.666 75.2154 62.6734 75.0883 62.6784 74.9604C62.6832 74.8315 62.6858 74.7045 62.6858 74.5791C62.6858 74.5045 62.6849 74.4494 62.6841 74.413C62.6832 74.3765 62.6825 74.3442 62.6808 74.3163ZM65.947 75.54V75.3164H65.9761C66.1388 75.3164 66.2462 75.29 66.2992 75.2367C66.3512 75.1841 66.3777 75.0663 66.3777 74.8841V72.419C66.3777 72.297 66.3495 72.2097 66.2933 72.1588C66.2363 72.1071 66.142 72.0818 66.0098 72.0818L65.947 72.0816V71.8681C66.0959 71.8834 66.2414 71.8936 66.3851 71.9004C66.5289 71.9072 66.6719 71.9106 66.8141 71.9106C66.9537 71.9106 67.0966 71.9072 67.2422 71.9004C67.3875 71.8935 67.5332 71.8835 67.6802 71.8682V72.0767C67.5208 72.0767 67.4099 72.0996 67.3495 72.1461C67.2892 72.1927 67.2588 72.2775 67.2588 72.4021V74.8841C67.2588 75.0646 67.2853 75.1816 67.3371 75.2358C67.3901 75.2892 67.4942 75.3164 67.6512 75.3164H67.6802V75.5348C67.5414 75.5231 67.4001 75.5146 67.2562 75.5087C67.1131 75.5026 66.9653 75.5002 66.8141 75.5002C66.6893 75.5001 66.5562 75.5036 66.414 75.5104C66.2718 75.5171 66.1164 75.5264 65.947 75.54ZM71.558 71.9723C71.5498 72.1062 71.5439 72.2309 71.54 72.3461C71.5358 72.4612 71.5332 72.5716 71.5332 72.6775C71.5332 72.7291 71.5341 72.7834 71.5358 72.8418C71.5374 72.8994 71.54 72.9808 71.5432 73.0851L71.2118 73.0849C71.1812 72.7503 71.0968 72.5003 70.9589 72.3351C70.8208 72.1699 70.6274 72.0868 70.3786 72.0868C70.029 72.0868 69.7563 72.2199 69.5603 72.4851C69.3653 72.7512 69.2677 73.1224 69.2677 73.5986C69.2677 74.085 69.3744 74.4782 69.5877 74.7764C69.8 75.0756 70.0768 75.2248 70.4175 75.2248C70.61 75.2248 70.7887 75.1731 70.9539 75.0697C71.1192 74.9663 71.2877 74.7994 71.4589 74.5698L71.6985 74.7256C71.5019 75.0349 71.2804 75.2604 71.034 75.4011C70.7878 75.5416 70.4934 75.6121 70.1513 75.6121C69.5926 75.612 69.1511 75.4417 68.8272 75.1002C68.5025 74.7594 68.3405 74.2977 68.3405 73.7155C68.3405 73.1376 68.5215 72.6741 68.8826 72.3241C69.2438 71.9741 69.7223 71.7987 70.3183 71.7987C70.5249 71.7986 70.8961 71.8487 71.4316 71.9479C71.4869 71.958 71.5284 71.9656 71.558 71.9723ZM72.2431 75.54V75.3164H72.2746C72.4358 75.3164 72.5432 75.29 72.596 75.2367C72.6497 75.1841 72.676 75.0663 72.676 74.8841V72.419C72.676 72.297 72.648 72.2097 72.5919 72.1588C72.5349 72.1071 72.4406 72.0818 72.3083 72.0818L72.2431 72.0816V71.8681C72.3497 71.8834 72.4677 71.8936 72.5975 71.9004C72.7273 71.9072 72.8976 71.9106 73.1077 71.9106C73.2903 71.9106 73.4564 71.9072 73.606 71.8995C73.7565 71.8919 73.8739 71.8817 73.9596 71.8682V72.0767C73.7985 72.0767 73.6878 72.0996 73.6275 72.1461C73.568 72.1927 73.5382 72.2775 73.5382 72.4021V73.435H75.0714V72.4021C75.0714 72.2859 75.04 72.2029 74.9779 72.1521C74.9161 72.102 74.8111 72.0768 74.6648 72.0768L74.64 72.0767V71.8681C74.7615 71.8834 74.892 71.8936 75.0326 71.9004C75.1731 71.9072 75.3293 71.9106 75.5019 71.9106C75.6732 71.9106 75.8252 71.9072 75.9583 71.9004C76.0914 71.8935 76.2136 71.8835 76.3253 71.8682V72.0816H76.279C76.1533 72.0816 76.0633 72.1072 76.0094 72.1588C75.9559 72.2096 75.9286 72.297 75.9286 72.419V74.8841C75.9286 75.0484 75.9574 75.1612 76.0144 75.2231C76.0716 75.2849 76.1757 75.3164 76.3253 75.3164V75.54C76.1625 75.5264 76.0129 75.5171 75.8763 75.5104C75.74 75.5036 75.6136 75.5002 75.4971 75.5002C75.4326 75.5001 75.326 75.5027 75.1764 75.5087C75.0268 75.5146 74.8516 75.5231 74.65 75.5349V75.3164H74.6787C74.8359 75.3164 74.9401 75.2892 74.9929 75.2358C75.045 75.1815 75.0714 75.0646 75.0714 74.8841V73.7154H73.5382V74.8841C73.5382 75.0646 73.5647 75.1816 73.6167 75.2358C73.6697 75.2892 73.7737 75.3164 73.9309 75.3164H73.9596V75.5324C73.7713 75.5223 73.6036 75.5146 73.4571 75.5087C73.311 75.5026 73.1944 75.5002 73.1077 75.5002C72.977 75.5001 72.8407 75.5036 72.6985 75.5104C72.5564 75.5171 72.4043 75.5264 72.2431 75.54ZM77.3127 72.419C77.3127 72.2987 77.2838 72.2122 77.2268 72.1597C77.1698 72.1079 77.0748 72.0818 76.9424 72.0818L76.9011 72.0816V71.8706C77.0707 71.8859 77.2277 71.897 77.3706 71.9046C77.5145 71.9122 77.6458 71.9157 77.7657 71.9157C77.8756 71.9156 78.0005 71.9123 78.1418 71.9046C78.2831 71.897 78.4419 71.886 78.6178 71.8707V72.0816C78.455 72.0816 78.3434 72.1046 78.2847 72.1503C78.226 72.1953 78.1962 72.2792 78.1962 72.4021V74.0705C78.1962 74.3282 78.2079 74.5146 78.231 74.6274C78.2549 74.7408 78.2938 74.835 78.3492 74.9096C78.4187 75.0002 78.5121 75.0697 78.6302 75.118C78.7476 75.1663 78.8855 75.19 79.0444 75.19C79.3634 75.1899 79.5924 75.1045 79.7304 74.9333C79.8683 74.7621 79.9377 74.4706 79.9377 74.0604V74.0358L79.9303 72.4885C79.9303 72.3249 79.9031 72.2182 79.8492 72.1674C79.7955 72.1174 79.6824 72.0885 79.5112 72.0818L79.5089 71.8706C79.6237 71.8824 79.7237 71.8911 79.8089 71.897C79.8948 71.9029 79.9759 71.9055 80.051 71.9055C80.1271 71.9054 80.208 71.9029 80.2947 71.897C80.3808 71.891 80.4767 71.8826 80.5817 71.8707V72.0816C80.451 72.0884 80.3669 72.1114 80.3295 72.1512C80.2925 72.191 80.2725 72.2987 80.2692 72.4741L80.2378 74.1722C80.228 74.6799 80.1088 75.0476 79.8809 75.2731C79.6518 75.4993 79.2856 75.6121 78.7798 75.6121C78.3005 75.612 77.9359 75.5104 77.6872 75.3078C77.4376 75.1052 77.3127 74.8079 77.3127 74.4155V72.419ZM82.4684 72.8188L81.9436 74.085H82.8999L82.4684 72.8188ZM81.5659 75.0009C81.556 75.0256 81.5485 75.0511 81.5436 75.0765C81.5395 75.1027 81.5369 75.1273 81.5369 75.1527C81.5371 75.2435 81.6659 75.2977 81.9237 75.3138L81.9387 75.3164V75.5348C81.8255 75.5247 81.7187 75.518 81.6196 75.5129C81.5206 75.5078 81.4295 75.5053 81.3477 75.5053C81.2923 75.5052 81.2271 75.507 81.151 75.5112C81.0758 75.5155 80.9542 75.5247 80.7881 75.54V75.3164C80.9046 75.2967 80.9972 75.2562 81.0675 75.196C81.1377 75.1357 81.2071 75.0316 81.2749 74.8841L82.6023 71.8681H82.9603L84.1347 75.0731C84.1671 75.1579 84.214 75.218 84.276 75.2553C84.338 75.2925 84.4265 75.3129 84.5415 75.3164V75.5348C84.3802 75.5247 84.2314 75.518 84.0949 75.5129C83.9579 75.5078 83.8329 75.5053 83.7181 75.5053C83.5974 75.5052 83.4602 75.5078 83.3073 75.5137C83.1553 75.5196 82.9916 75.5282 82.8172 75.54L82.8148 75.3164C83.0073 75.3095 83.1296 75.2943 83.1834 75.2706C83.2363 75.2459 83.2627 75.2036 83.2627 75.1426C83.2628 75.129 83.2603 75.1112 83.2545 75.0893C83.2488 75.0672 83.2421 75.0426 83.2338 75.0163L82.9892 74.3308H81.8394L81.5659 75.0009ZM88.0499 74.2188V72.4444C88.0499 72.3003 88.0177 72.2029 87.9531 72.1521C87.8885 72.102 87.7581 72.0768 87.563 72.0768V71.8681C87.6514 71.8748 87.7448 71.8801 87.8423 71.8843C87.9399 71.8884 88.044 71.8902 88.1538 71.8902C88.2622 71.8902 88.363 71.8885 88.4565 71.886C88.55 71.8824 88.6381 71.8766 88.7225 71.8682V72.0816H88.6888C88.5696 72.0816 88.4846 72.1088 88.4333 72.1639C88.383 72.2181 88.3572 72.3106 88.3572 72.4394V75.54H88.0257L85.7033 72.5808V74.8841C85.7033 75.0713 85.7322 75.19 85.79 75.2409C85.8488 75.2908 85.9801 75.3164 86.1851 75.3164V75.5348C86.0736 75.5247 85.9636 75.518 85.8546 75.5129C85.7454 75.5078 85.6389 75.5053 85.5337 75.5053C85.4404 75.5052 85.343 75.5078 85.2429 75.5137C85.1427 75.5196 85.0405 75.5282 84.9355 75.54V75.3164C85.1279 75.3164 85.2519 75.2909 85.3073 75.2409C85.3628 75.1899 85.3908 75.0714 85.3908 74.8841V72.4394C85.3908 72.3003 85.3636 72.2089 85.3082 72.1639C85.2536 72.1189 85.142 72.0953 84.9742 72.0919V71.8681C85.1455 71.8834 85.276 71.8928 85.3669 71.8978C85.4571 71.9029 85.5347 71.9055 85.5992 71.9055C85.6784 71.9054 85.7685 71.9029 85.8702 71.8978C85.972 71.8927 86.0851 71.8851 86.2091 71.8733L88.0499 74.2188ZM92.1691 72.419C92.1691 72.2987 92.1402 72.2122 92.0832 72.1597C92.0261 72.1079 91.9312 72.0818 91.7988 72.0818L91.7575 72.0816V71.8706C91.9271 71.8859 92.0839 71.897 92.227 71.9046C92.3709 71.9122 92.5023 71.9157 92.622 71.9157C92.7321 71.9156 92.8569 71.9123 92.9982 71.9046C93.1396 71.897 93.2981 71.886 93.4742 71.8707L93.4743 72.0816C93.3114 72.0816 93.1997 72.1046 93.141 72.1503C93.0826 72.1953 93.0528 72.2792 93.0528 72.4021V74.0705C93.0528 74.3282 93.0643 74.5146 93.0874 74.6274C93.1113 74.7408 93.1502 74.835 93.2057 74.9096C93.2751 75.0002 93.3685 75.0697 93.4864 75.118C93.6038 75.1663 93.7419 75.19 93.9008 75.19C94.2198 75.1899 94.4486 75.1045 94.5867 74.9333C94.7248 74.7621 94.7941 74.4706 94.7941 74.0604V74.0358L94.7867 72.4885C94.7867 72.3249 94.7595 72.2182 94.7058 72.1674C94.6521 72.1174 94.5386 72.0885 94.3677 72.0818L94.3653 71.8706C94.4801 71.8824 94.5801 71.8911 94.6652 71.897C94.7512 71.9029 94.8321 71.9055 94.9074 71.9055C94.9835 71.9054 95.0644 71.9029 95.1513 71.897C95.2373 71.891 95.3331 71.8826 95.4381 71.8707V72.0816C95.3075 72.0884 95.2231 72.1114 95.1859 72.1512C95.1487 72.191 95.1289 72.2987 95.1255 72.4741L95.0942 74.1722C95.0843 74.6799 94.9652 75.0476 94.7373 75.2731C94.5082 75.4993 94.142 75.6121 93.6362 75.6121C93.1568 75.612 92.7923 75.5104 92.5435 75.3078C92.294 75.1052 92.1691 74.8079 92.1691 74.4155V72.419ZM99.0672 74.2188V72.4444C99.0672 72.3003 99.035 72.2029 98.9704 72.1521C98.9059 72.102 98.7754 72.0768 98.5803 72.0768V71.8681C98.6688 71.8748 98.7621 71.8801 98.8596 71.8843C98.9572 71.8884 99.0611 71.8902 99.1712 71.8902C99.2796 71.8902 99.3804 71.8885 99.4738 71.886C99.5671 71.8824 99.6558 71.8766 99.7399 71.8682V72.0816H99.706C99.5869 72.0816 99.5019 72.1088 99.4506 72.1639C99.4003 72.2181 99.3745 72.3106 99.3745 72.4394V75.54H99.0431L96.7206 72.5808V74.8841C96.7206 75.0713 96.7495 75.19 96.8075 75.2409C96.8661 75.2908 96.9974 75.3164 97.2024 75.3164V75.5348C97.0909 75.5247 96.9809 75.518 96.8719 75.5129C96.7627 75.5078 96.6562 75.5053 96.5511 75.5053C96.4577 75.5052 96.3603 75.5078 96.2602 75.5137C96.1602 75.5196 96.0576 75.5282 95.9528 75.54V75.3164C96.1454 75.3164 96.2693 75.2909 96.3248 75.2409C96.3801 75.1899 96.4081 75.0714 96.4081 74.8841L96.4083 72.4394C96.4083 72.3003 96.3809 72.2089 96.3255 72.1639C96.2711 72.1189 96.1593 72.0953 95.9917 72.0919V71.8681C96.1628 71.8834 96.2933 71.8928 96.3842 71.8978C96.4742 71.9029 96.552 71.9055 96.6164 71.9055C96.6958 71.9054 96.786 71.9029 96.8875 71.8978C96.9891 71.8927 97.1026 71.8851 97.2265 71.8733L99.0672 74.2188ZM100.328 75.54V75.3164H100.357C100.52 75.3164 100.627 75.29 100.68 75.2367C100.732 75.1841 100.759 75.0663 100.759 74.8841L100.759 72.419C100.759 72.297 100.731 72.2097 100.675 72.1588C100.617 72.1071 100.523 72.0818 100.391 72.0818L100.328 72.0816V71.8681C100.477 71.8834 100.622 71.8936 100.766 71.9004C100.91 71.9072 101.053 71.9106 101.195 71.9106C101.335 71.9106 101.478 71.9072 101.623 71.9004C101.769 71.8935 101.914 71.8835 102.061 71.8682L102.061 72.0767C101.902 72.0767 101.791 72.0996 101.731 72.1461C101.67 72.1927 101.64 72.2775 101.64 72.4021V74.8841C101.64 75.0646 101.666 75.1816 101.718 75.2358C101.771 75.2892 101.875 75.3164 102.033 75.3164H102.061V75.5348C101.923 75.5231 101.781 75.5146 101.637 75.5087C101.494 75.5026 101.346 75.5002 101.195 75.5002C101.07 75.5001 100.937 75.5036 100.795 75.5104C100.653 75.5171 100.498 75.5264 100.328 75.54ZM104.506 75.5748H104.104L102.964 72.397C102.925 72.2927 102.871 72.2139 102.802 72.1614C102.732 72.1079 102.649 72.0818 102.552 72.0818L102.498 72.0816V71.8732C102.66 71.8851 102.811 71.8928 102.952 71.8978C103.094 71.9029 103.225 71.9055 103.346 71.9055C103.43 71.9054 103.533 71.9029 103.655 71.8978C103.779 71.8927 103.968 71.8835 104.225 71.8682V72.0816H104.189C104.063 72.0816 103.973 72.097 103.918 72.1275C103.865 72.158 103.837 72.2072 103.837 72.2758C103.837 72.2935 103.839 72.3114 103.842 72.33C103.846 72.3477 103.851 72.3673 103.857 72.3868L104.624 74.5993L105.489 72.397C105.505 72.3571 105.518 72.3199 105.528 72.2851C105.537 72.2503 105.542 72.2258 105.542 72.2105C105.542 72.1665 105.514 72.1334 105.457 72.1131C105.401 72.0918 105.312 72.0818 105.191 72.0818L105.14 72.0816V71.8732C105.216 71.8817 105.295 71.8868 105.379 71.8902C105.462 71.8935 105.549 71.8953 105.642 71.8953C105.753 71.8953 105.852 71.8936 105.938 71.8894C106.024 71.8851 106.105 71.8784 106.181 71.8682L106.184 72.0816C106.105 72.0816 106.042 72.1012 105.994 72.1411C105.946 72.1809 105.896 72.2631 105.845 72.3868L104.506 75.5748ZM106.608 75.54V75.3164H106.679C106.821 75.3164 106.922 75.2909 106.982 75.2392C107.042 75.1883 107.071 75.1019 107.071 74.9816L107.071 72.4292C107.071 72.3063 107.042 72.2199 106.982 72.169C106.922 72.1174 106.821 72.0919 106.679 72.0919L106.608 72.0918V71.8681C106.736 71.88 106.877 71.8877 107.032 71.8928C107.187 71.8978 107.427 71.9004 107.749 71.9004L108.29 71.9003C108.539 71.9003 108.747 71.8978 108.914 71.8928C109.081 71.8876 109.229 71.8809 109.362 71.8707C109.365 71.9979 109.372 72.1351 109.38 72.2817C109.389 72.4275 109.4 72.5901 109.415 72.7691L109.173 72.7689C109.157 72.5359 109.086 72.3716 108.962 72.2758C108.839 72.1809 108.629 72.1334 108.335 72.1334C108.161 72.1333 108.051 72.1461 108.004 72.1707C107.957 72.1953 107.933 72.2444 107.933 72.3173L107.934 73.5418H108.41C108.561 73.5418 108.673 73.4994 108.748 73.4147C108.823 73.3307 108.861 73.2029 108.861 73.0325L109.054 73.035C109.049 73.1342 109.046 73.2359 109.043 73.3393C109.041 73.4425 109.039 73.5477 109.039 73.6537C109.039 73.7579 109.041 73.8622 109.044 73.9672C109.047 74.0722 109.05 74.1782 109.054 74.2842L108.851 74.2841C108.847 74.0934 108.814 73.9613 108.752 73.8868C108.689 73.8122 108.578 73.7749 108.42 73.7749L107.934 73.7749V75.0264C107.934 75.0976 107.955 75.1493 107.998 75.1816C108.04 75.2138 108.109 75.2298 108.202 75.2298C108.628 75.2297 108.927 75.1757 109.098 75.0663C109.269 74.9569 109.392 74.7604 109.467 74.4774L109.689 74.4773C109.647 74.6647 109.609 74.846 109.575 75.0223C109.541 75.1985 109.51 75.3714 109.481 75.54C109.277 75.5264 109.058 75.5171 108.824 75.5104C108.588 75.5036 108.328 75.5002 108.043 75.5002C107.755 75.5001 107.495 75.5036 107.261 75.5104C107.028 75.5171 106.81 75.5263 106.608 75.54ZM110.254 75.54V75.3164C110.411 75.3164 110.515 75.2892 110.568 75.2358C110.62 75.1815 110.647 75.0646 110.647 74.8841V72.4198C110.647 72.2987 110.618 72.2122 110.561 72.1597C110.504 72.1079 110.408 72.0818 110.274 72.0818L110.235 72.0816V71.8732C110.35 71.8851 110.464 71.8928 110.579 71.8978C110.694 71.9029 110.809 71.9055 110.928 71.9055C111.068 71.9054 111.255 71.9004 111.488 71.8894C111.721 71.8783 111.883 71.8733 111.974 71.8733C112.408 71.8732 112.733 71.9435 112.947 72.0843C113.162 72.2249 113.269 72.4359 113.269 72.7173C113.269 72.952 113.196 73.1562 113.049 73.33C112.902 73.5036 112.685 73.6435 112.397 73.7494C112.545 73.8095 112.692 73.9317 112.842 74.1164C112.991 74.3003 113.157 74.5689 113.34 74.9214C113.35 74.9434 113.368 74.9774 113.39 75.0231C113.513 75.2696 113.63 75.3934 113.741 75.3934H113.77V75.5748C113.562 75.5535 113.34 75.5392 113.104 75.5324C113.063 75.5307 113.035 75.5298 113.022 75.5298C112.877 75.5205 112.771 75.4875 112.705 75.4316C112.639 75.3764 112.565 75.2494 112.485 75.0511C112.448 74.956 112.397 74.8256 112.334 74.6587C112.179 74.2435 112.054 74.0045 111.959 73.9435C111.925 73.9222 111.883 73.9054 111.832 73.8944C111.781 73.8824 111.723 73.8766 111.657 73.8766C111.642 73.8764 111.624 73.8774 111.602 73.8791C111.58 73.8808 111.548 73.8842 111.504 73.8893V74.8841C111.504 75.0578 111.529 75.1731 111.577 75.2282C111.627 75.2832 111.723 75.3129 111.865 75.3164L111.865 75.5348C111.677 75.5231 111.515 75.5146 111.375 75.5087C111.235 75.5026 111.136 75.5002 111.078 75.5002C110.948 75.5001 110.815 75.5036 110.678 75.5104C110.541 75.5171 110.4 75.5264 110.254 75.54ZM111.504 73.618H111.717C111.974 73.618 112.163 73.5579 112.286 73.4367C112.409 73.3163 112.47 73.1309 112.47 72.8808C112.47 72.6163 112.407 72.4249 112.281 72.3063C112.155 72.1884 111.953 72.1292 111.673 72.1292C111.628 72.1292 111.593 72.1292 111.569 72.13C111.545 72.1309 111.523 72.1326 111.504 72.1343V73.618ZM114.443 74.3163L114.806 74.3138C114.817 74.6298 114.89 74.8689 115.024 75.0316C115.158 75.195 115.348 75.2765 115.593 75.2765C115.793 75.2764 115.954 75.2257 116.076 75.1248C116.197 75.0239 116.259 74.8925 116.259 74.7307C116.259 74.5951 116.219 74.4833 116.139 74.3952C116.059 74.3079 115.875 74.2029 115.588 74.08C115.158 73.8977 114.866 73.7206 114.709 73.5486C114.553 73.3765 114.474 73.1605 114.474 72.9012C114.474 72.5782 114.587 72.3139 114.815 72.108C115.041 71.9021 115.334 71.7987 115.692 71.7987C115.835 71.7986 115.993 71.8098 116.164 71.8326C116.335 71.8546 116.53 71.8894 116.75 71.9352L116.748 71.9503C116.743 72.1639 116.74 72.3249 116.74 72.4343C116.741 72.5384 116.743 72.6945 116.748 72.9012L116.75 72.9164H116.457C116.452 72.6477 116.39 72.4453 116.269 72.3071C116.149 72.169 115.975 72.0996 115.748 72.0996C115.572 72.0995 115.433 72.1445 115.33 72.2334C115.228 72.3233 115.177 72.4436 115.177 72.5962C115.177 72.7316 115.216 72.8418 115.296 72.9257C115.377 73.0104 115.563 73.1138 115.857 73.2359C115.897 73.2544 115.957 73.2792 116.036 73.3105C116.345 73.4366 116.553 73.5495 116.661 73.6486C116.774 73.7562 116.857 73.8723 116.911 73.9985C116.965 74.1239 116.992 74.2689 116.992 74.4325C116.993 74.79 116.872 75.0765 116.63 75.2909C116.389 75.5052 116.064 75.6121 115.653 75.6121C115.427 75.612 115.212 75.5901 115.008 75.5451C114.804 75.5001 114.607 75.4323 114.419 75.3409C114.428 75.2154 114.435 75.0883 114.44 74.9604C114.445 74.8315 114.448 74.7045 114.448 74.5791C114.448 74.5045 114.447 74.4494 114.446 74.413C114.445 74.3765 114.445 74.3442 114.443 74.3163ZM117.709 75.54V75.3164H117.738C117.901 75.3164 118.008 75.29 118.061 75.2367C118.113 75.1841 118.14 75.0663 118.14 74.8841V72.419C118.14 72.297 118.111 72.2097 118.055 72.1588C117.998 72.1071 117.904 72.0818 117.772 72.0818L117.709 72.0816V71.8681C117.858 71.8834 118.003 71.8936 118.147 71.9004C118.291 71.9072 118.434 71.9106 118.576 71.9106C118.716 71.9106 118.859 71.9072 119.004 71.9004C119.15 71.8935 119.295 71.8835 119.442 71.8682V72.0767C119.283 72.0767 119.172 72.0996 119.112 72.1461C119.051 72.1927 119.021 72.2775 119.021 72.4021V74.8841C119.021 75.0646 119.047 75.1816 119.099 75.2358C119.152 75.2892 119.256 75.3164 119.413 75.3164H119.442V75.5348C119.303 75.5231 119.162 75.5146 119.018 75.5087C118.875 75.5026 118.727 75.5002 118.576 75.5002C118.451 75.5001 118.318 75.5036 118.176 75.5104C118.034 75.5171 117.878 75.5264 117.709 75.54ZM120.608 75.54V75.3164H120.683C120.83 75.3164 120.935 75.2909 120.997 75.2392C121.059 75.1883 121.09 75.1019 121.09 74.9816L121.09 72.1537H120.991C120.747 72.1537 120.562 72.2029 120.435 72.3004C120.308 72.3978 120.224 72.5563 120.183 72.7741L120.003 72.774L120.044 71.8681C120.111 71.8748 120.188 71.8792 120.278 71.8809C120.368 71.8824 120.522 71.8835 120.741 71.8835L122.317 71.8834C122.54 71.8834 122.697 71.8817 122.787 71.8801C122.877 71.8783 122.955 71.8741 123.021 71.8682L123.058 72.774H122.879C122.837 72.5562 122.753 72.3978 122.626 72.3004C122.499 72.2029 122.314 72.1538 122.07 72.1538L121.971 72.1537V74.9612C121.971 75.0984 122 75.1925 122.059 75.2417C122.117 75.2917 122.228 75.3164 122.393 75.3164H122.429V75.54C122.234 75.5264 122.061 75.5171 121.911 75.5104C121.76 75.5036 121.627 75.5002 121.511 75.5002C121.369 75.5001 121.224 75.5036 121.075 75.5104C120.927 75.5171 120.771 75.5264 120.608 75.54ZM125.656 73.9281V74.8841C125.656 75.0646 125.684 75.1816 125.74 75.2358C125.796 75.2892 125.91 75.3164 126.083 75.3164H126.187V75.5348C125.974 75.5231 125.787 75.5146 125.627 75.5087C125.465 75.5026 125.345 75.5002 125.265 75.5002C125.133 75.5001 124.988 75.5036 124.827 75.5104C124.666 75.5171 124.485 75.5264 124.283 75.54L124.284 75.3164H124.393C124.567 75.3164 124.681 75.2892 124.736 75.2358C124.791 75.1815 124.818 75.0646 124.818 74.8841V73.924L123.872 72.3571L123.867 72.3495C123.759 72.1707 123.639 72.0818 123.508 72.0818L123.459 72.0816V71.8732C123.598 71.8851 123.74 71.8928 123.883 71.8978C124.027 71.9029 124.174 71.9055 124.322 71.9055C124.493 71.9054 124.651 71.9029 124.797 71.897C124.941 71.891 125.077 71.8826 125.201 71.8707V72.0816C125.046 72.0816 124.939 72.0919 124.879 72.1114C124.819 72.1317 124.789 72.1648 124.789 72.2105C124.789 72.2224 124.792 72.2368 124.798 72.2546C124.803 72.2715 124.812 72.2902 124.823 72.3097L125.547 73.618L126.272 72.2901C126.281 72.2706 126.289 72.2529 126.294 72.2384C126.298 72.2232 126.301 72.2097 126.301 72.1987C126.301 72.1588 126.27 72.1292 126.208 72.1105C126.146 72.0909 126.045 72.0818 125.906 72.0818V71.8732C126.025 71.8851 126.132 71.8928 126.228 71.8978C126.323 71.9029 126.407 71.9055 126.48 71.9055C126.572 71.9054 126.661 71.9029 126.747 71.897C126.833 71.891 126.918 71.8826 127 71.8707V72.0816C126.904 72.0851 126.831 72.0996 126.781 72.1249C126.732 72.1512 126.683 72.2046 126.635 72.2851L125.656 73.9281Z" fill="#BD2319"/>
<path fill-rule="evenodd" clip-rule="evenodd" d="M67.9701 61.0493C67.7609 60.9557 67.7931 60.3689 67.419 60.131C67.0448 59.8927 66.759 59.8793 66.4937 59.8995C66.2284 59.9198 65.6773 60.3895 65.6433 61.335C65.6094 62.2807 66.5621 64.907 66.9097 65.3255C67.2573 65.744 68.4278 65.5241 68.2646 65.0914C68.1013 64.6586 67.7893 63.4952 68.0802 62.9348C68.3709 62.3744 68.9456 61.4026 70.634 60.4379C72.3222 59.473 73.5974 59.517 73.912 59.6397C74.2268 59.762 74.1135 60.2851 74.0549 60.4222C73.9967 60.559 72.8625 61.9095 72.8356 62.0166C72.8085 62.1237 72.4196 62.3391 72.4004 61.9346C72.3809 61.53 72.301 61.1258 71.9179 60.9699C71.5349 60.8138 71.1377 60.7145 70.9745 61.2465C70.8114 61.7785 71.0809 62.1475 71.2794 62.3176C71.478 62.4878 71.8187 62.8142 71.5419 62.8356C71.2653 62.8567 70.3998 63.4243 70.3998 63.4243C70.3998 63.4243 69.8182 63.3391 69.7259 63.8286C69.6337 64.3181 69.9743 64.8857 70.2225 64.7367C70.4707 64.5878 71.2157 64.1408 71.6839 63.9564C72.152 63.7717 72.9466 63.4881 73.2587 63.6867C73.5709 63.8853 73.5921 64.162 74.1525 64.4529C74.7129 64.7437 75.7558 64.7934 76.2027 64.5735C76.6497 64.3535 79.0899 63.2753 79.5935 63.3107C80.0972 63.3461 80.693 63.8569 80.8989 62.9135C81.1046 61.97 79.9269 59.4445 78.3592 58.8414C76.7915 58.2385 74.9966 58.0614 72.9323 58.4798C70.868 58.8983 69.9174 59.324 69.1584 60.069C68.3993 60.8138 68.1791 61.1431 67.9701 61.0493ZM73.3304 62.7584C73.3304 62.7584 73.1921 62.6705 72.9658 62.7208C72.7397 62.771 74.2915 61.7971 74.8571 61.4579C75.4225 61.1186 75.1775 60.7102 74.901 60.3207C74.6246 59.9312 74.6246 59.9312 74.4611 59.7301C75.1124 59.6254 75.6133 59.584 76.367 59.6522C77.3359 59.7397 78.5113 60.0522 79.1168 60.8673C79.4669 61.3388 77.678 62.0296 77.2194 62.262C76.7608 62.4945 75.3408 63.2611 75.0392 63.3993C74.7378 63.5374 74.631 63.2171 74.2915 62.8652C73.9524 62.5134 73.3304 62.7584 73.3304 62.7584Z" fill="#BD2319"/>
<path fill-rule="evenodd" clip-rule="evenodd" d="M87.7194 57.9022C87.2683 57.9472 86.9918 58.1314 87.0841 58.8684C87.1762 59.6053 87.6201 59.6572 87.4834 60.8643C87.3464 62.0712 87.0606 64.5134 87.0606 64.9126C87.0606 65.3117 86.744 65.9117 86.6377 66.1668C86.5315 66.4218 86.3827 67.258 86.9968 67.3808C87.6109 67.5036 87.6394 66.7171 87.7242 66.3534C87.8094 65.9896 88.2133 62.8648 88.1919 62.357C88.1706 61.849 88.2391 60.6469 88.3477 60.2264C88.4563 59.8061 88.6099 59.4376 88.4232 58.9274C88.2367 58.4171 88.1704 57.8575 87.7194 57.9022ZM90.62 58.4453C90.4263 58.4312 90.1072 58.3982 89.9374 58.7266C89.7673 59.0547 89.9585 59.6336 90.0789 59.9832C90.1997 60.3326 90.3081 60.7106 90.2633 61.0578C90.2184 61.4049 90.169 63.6796 90.3768 63.8991C90.5846 64.1189 90.9814 63.885 91.1939 63.375C91.4064 62.8646 91.5647 62.1656 91.4325 61.8442C91.3003 61.523 91.2883 61.1523 91.4774 60.6988C91.6663 60.2452 91.5551 59.6335 91.4087 59.1068C91.2623 58.5801 90.8135 58.4595 90.62 58.4453ZM94.2832 54.6829C94.0629 54.624 93.5887 54.593 93.4093 54.7844C93.2299 54.9756 93.1613 55.3796 93.3597 55.8615C93.5582 56.3433 93.6147 56.7661 93.5651 57.0447C93.5157 57.3235 93.6031 60.3869 93.6031 61.1853C93.6032 61.9836 93.5016 63.5048 93.5441 64.5203C93.5868 65.536 93.5338 67.3528 93.9245 67.8389C94.3151 68.3249 94.8819 67.6132 94.7418 67.0937C94.6019 66.5741 94.5503 66.7359 94.4157 65.7816C94.2811 64.8273 94.2384 59.8201 94.2667 59.4327C94.2951 59.0452 94.403 57.597 94.5804 57.1719C94.7575 56.7466 95.3319 56.3173 95.2422 55.8142C95.2947 55.3702 94.5036 54.7414 94.2832 54.6829Z" fill="#BD2319"/>
<path fill-rule="evenodd" clip-rule="evenodd" d="M106.286 63.8775C106.658 64.5231 107.894 66.4656 108.991 66.0669C110.089 65.6681 109.626 64.4258 109.201 64.1214C108.777 63.8169 106.688 62.8891 106.688 62.8891C105.808 62.5043 106.057 63.4814 106.286 63.8775ZM105.241 57.0229C105.369 56.9328 105.097 56.0128 105.132 55.5608C105.167 55.1087 105.538 54.8101 105.837 54.8791C106.137 54.9482 106.584 55.6566 106.54 56.012C106.496 56.3673 106.311 56.7848 106.208 56.9311C106.105 57.0774 106.03 57.2114 105.97 57.6073C105.938 57.8208 105.852 58.1562 105.771 58.4971C106.113 58.3963 106.436 58.2946 106.543 58.2277C106.781 58.0791 107.188 57.9487 107.539 57.6631C107.889 57.3776 108.284 57.6803 108.682 57.8945C109.081 58.1085 108.726 58.4826 108.343 58.6956C107.96 58.9084 107.609 58.8032 107.355 58.9154C107.126 59.017 106.065 59.4863 105.54 59.7832C105.396 60.5571 105.091 61.8838 104.89 62.4504C104.636 63.1671 103.76 64.1593 103.279 64.7414C102.798 65.3236 102.53 66.1238 102.033 66.4441C101.537 66.7644 101.438 66.5633 101.37 66.2577C101.302 65.9521 100.838 65.5866 101.132 65.1879C101.426 64.7893 101.514 64.3382 101.731 64.7212C101.948 65.1041 102.282 64.8945 102.205 64.8809C102.127 64.8675 103.167 63.7165 103.495 63.1683C103.824 62.6201 104.2 61.3456 104.365 61.0373C104.404 60.9656 104.465 60.7148 104.538 60.3715C104.274 60.5241 104.016 60.68 103.82 60.8272C103.397 61.1447 103.32 61.2654 102.571 60.946C101.822 60.6265 101.626 60.2799 101.574 59.869C101.522 59.458 101.748 59.1845 101.982 59.1244C102.216 59.0644 102.848 59.2185 103.271 59.2916C103.693 59.3646 104.568 58.8909 104.786 58.7947C104.802 58.7874 104.825 58.7788 104.852 58.7693C105.022 57.8817 105.182 57.0654 105.241 57.0229Z" fill="#BD2319"/>
<path fill-rule="evenodd" clip-rule="evenodd" d="M116.798 56.1356C116.812 56.2606 116.97 56.5525 117.11 56.6868C117.249 56.8211 117.501 57.0812 117.485 57.2277C117.47 57.374 117.395 58.2886 117.39 58.4987C117.385 58.7086 117.287 59.3132 117.417 59.4752C117.548 59.6369 117.756 60.035 117.756 60.035C117.757 60.0349 118.087 60.1385 118.165 59.8903C118.242 59.6424 118.463 59.7113 118.463 59.7113C118.463 59.7113 118.923 59.8854 118.797 59.9974C118.671 60.1092 118.711 60.1765 118.465 60.3172C118.219 60.4575 116.21 61.5687 116.21 61.5687C116.21 61.5686 115.547 61.7498 115.365 61.7861C115.183 61.8222 114.91 61.7523 114.826 62.0211C114.742 62.2899 114.81 62.6684 115.023 62.8286C115.117 62.8983 115.591 63.0736 115.992 62.8985C116.509 62.6732 116.999 62.045 117.386 61.7294C118.074 61.168 118.684 60.8195 119.256 60.5572C119.829 60.2948 121.071 59.7192 121.667 59.644C122.262 59.5687 122.386 59.8526 122.286 60.0173C122.185 60.1819 121.845 60.4843 121.68 60.5959C121.514 60.7076 121.576 60.8743 121.576 60.8743C121.576 60.8743 121.738 60.8786 122.285 60.7245C122.832 60.5704 123.61 60.5757 123.685 60.404C123.761 60.2326 123.458 59.0543 122.751 59.0281C122.044 59.0022 121.255 59.1672 121.06 59.2364C120.865 59.3053 120.673 59.1585 120.904 58.9056C121.134 58.6528 121.463 58.3654 121.623 57.8522C121.784 57.3389 122.017 57.2168 121.849 56.991C121.682 56.765 121.392 56.3061 121.286 56.2295C121.18 56.153 121.28 55.9027 121.662 55.7189C122.044 55.5351 122.469 55.1479 122.235 54.8579C122 54.5679 121.539 54.7269 121.52 54.4393C121.502 54.1519 121.31 54.0051 121.53 53.9225C121.751 53.8399 121.986 53.7832 121.898 53.6475C121.81 53.5116 121.714 53.2649 121.54 53.0589C121.367 52.8527 120.947 52.8083 120.899 53.0315C120.851 53.2548 120.844 53.6213 120.848 53.8175C120.852 54.0135 120.791 54.2764 120.918 54.4245C121.045 54.5725 121.112 54.6367 121.069 54.775C121.025 54.9131 121.043 55.1352 120.758 55.2845C120.473 55.4336 120.302 55.4238 120.215 55.6346C120.127 55.8456 120.131 56.3884 120.223 56.439C120.316 56.4897 120.602 56.4059 120.518 56.813C120.434 57.22 119.967 58.1579 120.003 58.3206C120.039 58.4835 120.345 58.4058 120.342 58.6216C120.34 58.8375 120.458 59.2214 120.31 59.3485C120.162 59.4754 119.675 59.6481 119.675 59.6481C119.675 59.6481 119.134 59.7824 119.276 59.3283C119.418 58.8744 119.516 58.1465 119.539 58.0022C119.563 57.8578 119.69 57.6591 119.48 57.6369C119.27 57.6145 119.512 57.2569 119.266 57.3531C119.019 57.4492 118.837 57.5442 118.89 57.2358C118.944 56.9273 119.329 55.8343 119.421 55.1916C119.514 54.5487 119.29 54.4353 119.091 54.308C118.893 54.181 118.336 54.5053 118.333 54.7211C118.331 54.9371 118.638 55.2716 118.67 55.585C118.702 55.8983 118.661 56.8609 118.67 56.9717C118.678 57.0825 118.623 57.7445 118.582 57.8761C118.541 58.0077 117.869 58.4911 117.969 57.9661C118.068 57.4409 118.106 56.7882 117.986 56.4546C117.867 56.1211 117.265 55.6439 117.095 55.634C116.924 55.6239 116.785 56.0105 116.798 56.1356ZM118.28 62.0584C118.257 61.7664 118.65 61.6044 118.898 61.5397C119.146 61.4748 120.057 61.0196 120.461 61.0034C120.864 60.9873 120.876 61.5888 120.76 61.8659C120.645 62.1431 120.43 62.5598 120.287 62.743C120.144 62.926 120.765 63.0349 120.765 63.0349C120.765 63.0348 121.715 62.8195 122.077 62.847C122.438 62.8747 122.492 63.4326 122.422 63.8378C122.352 64.2429 121.344 64.0986 121.102 64.0514C120.861 64.0044 121.04 64.4308 120.967 64.6642C120.894 64.8976 120.919 65.2754 120.717 66.0097C120.516 66.7441 120.018 67.2433 119.686 67.3956C119.354 67.5478 118.762 67.1635 118.619 66.8912C118.477 66.6186 118.237 66.6577 118.109 66.2474C117.981 65.8373 118.673 66.0822 118.968 66.2314C119.263 66.3805 119.753 66.3629 120.009 66.2722C120.265 66.1814 120.445 65.2412 120.473 64.8797C120.501 64.5181 120.246 64.2393 120.116 64.1987C119.987 64.158 119.518 64.3818 119.075 64.6135C118.633 64.8452 118.354 65.0997 117.986 65.1839C117.618 65.2681 117.172 64.8724 117.088 64.5044C117.004 64.1364 118.069 64.0994 118.283 64.0525C118.497 64.0054 119.766 63.4058 119.766 63.4058C119.858 63.1137 120.01 62.3046 119.504 62.2418C119.203 62.2045 119.021 62.6032 118.763 62.608C118.505 62.6127 118.303 62.3501 118.28 62.0584Z" fill="#BD2319"/>
</g>
<defs>
<filter id="filter0_d_185_88" x="0" y="0" width="154" height="157" filterUnits="userSpaceOnUse" color-interpolation-filters="sRGB">
<feFlood flood-opacity="0" result="BackgroundImageFix"/>
<feColorMatrix in="SourceAlpha" type="matrix" values="0 0 0 0 0 0 0 0 0 0 0 0 0 0 0 0 0 0 127 0" result="hardAlpha"/>
<feOffset dy="16"/>
<feGaussianBlur stdDeviation="6.5"/>
<feColorMatrix type="matrix" values="0 0 0 0 0 0 0 0 0 0 0 0 0 0 0 0 0 0 0.03 0"/>
<feBlend mode="normal" in2="BackgroundImageFix" result="effect1_dropShadow_185_88"/>
<feBlend mode="normal" in="SourceGraphic" in2="effect1_dropShadow_185_88" result="shape"/>
</filter>
</defs>
</svg>
