<svg width="154" height="157" viewBox="0 0 154 157" fill="none" xmlns="http://www.w3.org/2000/svg">
<g filter="url(#filter0_d_185_35)">
<rect width="128" height="128" transform="translate(13)" fill="white"/>
<path fill-rule="evenodd" clip-rule="evenodd" d="M72.5352 49.4234L72.5809 49.3741L72.6305 49.3351L72.6799 49.3068L72.7329 49.2858L72.7822 49.2751L72.8355 49.2717L72.8882 49.2787L72.9412 49.2891L72.9978 49.3104L73.0508 49.3351L73.1038 49.3671L73.1568 49.4058L73.2098 49.4447L73.2628 49.4941L73.3155 49.5434L73.3651 49.5964L73.4638 49.7094L73.5558 49.8331L73.6441 49.9603L73.7218 50.084L73.7888 50.204L73.8701 50.3663L73.8911 50.4157L73.9088 50.4583L73.9231 50.497L73.9688 50.6523L74.0044 50.8007L74.0291 50.942L74.0431 51.0796L74.0467 51.2139L74.0431 51.3446L74.0254 51.4682L74.0008 51.5953L73.9688 51.7155L73.9267 51.8389L73.8771 51.9592L73.8208 52.0826L73.7571 52.2062L73.6898 52.3335L73.6122 52.4605L73.5311 52.5948L73.3828 52.8455L73.2379 53.0998L73.1038 53.3577L72.9765 53.619L72.7222 54.1451L72.5989 54.4064L72.4716 54.6713L72.3622 54.908L72.2632 55.1553L72.1643 55.4059L72.0726 55.6566L71.9736 55.9039L71.8713 56.1475L71.7616 56.3842L71.7016 56.5008L71.6383 56.6102L71.7193 56.5182L71.8113 56.4405L71.9136 56.3772L72.0196 56.3275L72.1289 56.2922L72.2419 56.2675L72.3586 56.2605L72.4716 56.2642L72.5246 56.2746L72.5809 56.2852L72.6342 56.2995L72.6869 56.3169L72.7365 56.3382L72.7859 56.3665L72.8319 56.3948L72.8742 56.4265L72.9165 56.4618L72.9555 56.5042L72.9908 56.5465L73.0225 56.5925L73.0508 56.6455L73.0755 56.6985L73.0968 56.7585L73.1145 56.8185L73.1355 56.9315L73.1495 57.0445L73.1532 57.1575V57.2705L73.1425 57.3836L73.1249 57.4966L73.1038 57.6061L73.0791 57.719L73.0472 57.8285L73.0119 57.938L72.9308 58.1535L72.8425 58.3618L72.7472 58.5631L72.6622 58.7361L72.5705 58.9127L72.4786 59.0963L72.3799 59.287L72.2773 59.4777L72.1786 59.672L71.9806 60.0711L71.8853 60.2688L71.7936 60.4701L71.7089 60.6714L71.631 60.8692L71.5603 61.0669L71.5003 61.2612L71.451 61.4554L71.412 61.6426L71.4263 61.6179L71.444 61.5967L71.4863 61.5543L71.6029 61.5931L71.7089 61.6426L71.8042 61.7026L71.8889 61.7698L71.9666 61.8474L72.0373 61.9287L72.0939 62.0205L72.1466 62.1158L72.1926 62.2183L72.2279 62.3242L72.2596 62.4372L72.2809 62.5537L72.3019 62.6738L72.3126 62.7974L72.3232 62.9245L72.3269 63.0552L72.3196 63.313L72.3019 63.5779L72.2739 63.8392L72.2419 64.0935L72.2066 64.3336L72.1856 64.4502L72.1715 64.5632L72.1539 64.6691L72.1396 64.7715L72.1256 64.8669L72.1149 64.9552L72.0939 65.2023L72.0866 65.4496L72.0832 65.7003L72.0902 65.9546L72.1043 66.2054L72.1256 66.4561L72.1502 66.7033L72.1786 66.9505L72.2139 67.1765L72.2562 67.4096L72.3056 67.6462L72.3479 67.8863L72.3656 68.0064L72.3799 68.1265L72.3903 68.2465L72.3939 68.3631L72.3903 68.4797L72.3833 68.5962L72.3656 68.7092L72.3409 68.8186L72.2986 68.9529L72.2456 69.0694L72.2173 69.1259L72.1856 69.1753L72.1502 69.2248L72.1149 69.2671L72.076 69.3096L72.0373 69.3449L71.9983 69.3766L71.9559 69.4049L71.9136 69.4296L71.8713 69.4508L71.8253 69.4649L71.7793 69.4755L71.7336 69.4826L71.6876 69.4861L71.5957 69.4791L71.5499 69.4649L71.504 69.4508L71.412 69.4014L71.3663 69.3696L71.324 69.3343L71.278 69.2919L71.2356 69.2425L71.1967 69.1895L71.1543 69.133L71.1154 69.0694L71.0803 68.9988L71.052 68.9388L71.0273 68.8823L70.992 68.7657L70.9637 68.6491L70.946 68.5326L70.939 68.4161V68.2995L70.9424 68.183L70.953 68.07L70.967 67.9535L70.985 67.8369L71.02 67.6038L71.0343 67.4873L71.045 67.3672L71.052 67.2507L71.0554 67.1306L71.0484 66.6362L71.0377 66.1488L71.0307 65.6579V65.4107L71.0343 65.1635L71.0377 65.054L71.0413 64.941L71.0554 64.7009L71.0697 64.4502L71.0767 64.1959V63.9452L71.073 63.8215L71.0626 63.7015L71.052 63.585L71.0343 63.4719L71.0094 63.3624L70.9813 63.26L70.9107 63.4154L70.8294 63.5743L70.7411 63.7368L70.6494 63.8992L70.5504 64.0652L70.4444 64.2277L70.3351 64.3936L70.2221 64.5561L69.9854 64.8775L69.8654 65.0328L69.7451 65.1812L69.6215 65.3295L69.5015 65.4707L69.3815 65.605L69.2649 65.7321L69.2368 65.7639L69.2015 65.7992L69.1589 65.8346L69.1165 65.8769L69.0178 65.9581L68.9648 65.997L68.9118 66.0323L68.8552 66.0641L68.7988 66.0888L68.7459 66.11L68.6892 66.1205H68.6362L68.5835 66.1135L68.5305 66.0924L68.5092 66.0782L68.4845 66.0605L68.4562 66.0287L68.4349 65.9935L68.4245 65.9581L68.4209 65.9158L68.4245 65.8769L68.4315 65.8346L68.4456 65.7886L68.4632 65.7463L68.5056 65.6579L68.5552 65.5732L68.6009 65.4955L68.6222 65.4637L68.6362 65.4319L68.7175 65.2554L68.7952 65.0753L68.9472 64.708L69.1061 64.3442L69.1872 64.1641L69.2721 63.9911L70.0418 62.4937L70.4234 61.7379L70.607 61.3565L70.787 60.9751L70.96 60.5902L71.1297 60.2017L71.2886 59.8133L71.4369 59.4213L71.5746 59.0222L71.7053 58.6232L71.8183 58.2205L71.8713 58.0157L71.9206 57.8108L71.843 57.8427L71.7653 57.8815L71.6913 57.9274L71.6133 57.9733L71.465 58.0757L71.391 58.1252L71.3133 58.1746L71.2356 58.217L71.158 58.2559L71.0767 58.2876L70.9954 58.3088L70.907 58.3194H70.8187L70.727 58.3053L70.6777 58.2912L70.6281 58.2735L70.5787 58.2524L70.5364 58.2311L70.4551 58.1817L70.388 58.1216L70.3351 58.0581L70.2927 57.9874L70.2608 57.9097L70.2397 57.8285L70.2291 57.7473V57.659L70.2361 57.5743L70.2504 57.486L70.2714 57.3977L70.2961 57.3094L70.3667 57.1399L70.4091 57.0621L70.7941 56.3735L71.172 55.6813L71.5463 54.982L71.9136 54.2757L71.9806 54.1487L72.0549 54.011L72.136 53.8591L72.2243 53.7001L72.3975 53.3611L72.4822 53.1845L72.5635 53.0078L72.6376 52.8278L72.7046 52.6478L72.7612 52.4675L72.7859 52.3829L72.8035 52.2945L72.8212 52.2099L72.8355 52.1252L72.8425 52.0439L72.8459 51.9626V51.8849L72.8425 51.8109L72.8319 51.7366L72.8142 51.6659L72.7822 51.5672L72.7505 51.4719L72.7152 51.3799L72.6765 51.2952L72.5989 51.1293L72.5246 50.9667L72.4892 50.8856L72.4575 50.8007L72.4292 50.716L72.4079 50.6277L72.3869 50.5323L72.3762 50.4334L72.3692 50.3274V50.2144L72.3729 50.158L72.3799 50.0944L72.4009 49.9637L72.4292 49.8331L72.4575 49.706L72.4716 49.6494L72.4856 49.593L72.4999 49.5471L72.5105 49.5047L72.5282 49.4447L72.5352 49.4304V49.4234ZM80.9438 66.0358L80.8555 65.9687L80.7636 65.9052L80.5695 65.7886L80.4706 65.7251L80.3752 65.665L80.2869 65.5979L80.2022 65.5273L80.1492 65.4778L80.1033 65.4319L80.0679 65.3895L80.0396 65.3542L80.0186 65.3189L80.0009 65.2836L79.9936 65.2518L79.9903 65.2165L79.9936 65.1812L80.0043 65.1459L80.0149 65.107L80.0326 65.0611L80.0539 65.0152L80.0786 64.9587L80.1069 64.8987L80.1386 64.828L80.1809 64.7257L80.2233 64.6197L80.2656 64.5067L80.3046 64.3901L80.3752 64.15L80.4106 64.0264L80.4386 63.9027L80.4635 63.7756L80.4846 63.652L80.5023 63.5284L80.5165 63.4048L80.5236 63.2883V63.1717L80.5199 63.0588L80.5095 62.9528L80.4916 62.8504L80.4669 62.755L80.4352 62.6632L80.3963 62.582L80.3469 62.5113L80.2903 62.4478L80.2233 62.3948L80.1456 62.3489L80.0609 62.3172L79.9656 62.2995L79.856 62.2924H79.7996L79.7396 62.2959L79.6723 62.3065L79.6087 62.3172L79.5383 62.3347L79.464 62.3524L79.39 62.3772L79.3087 62.4054L79.2274 62.4372L79.1427 62.4725L79.0367 62.5219L78.9273 62.5749L78.7154 62.688L78.5071 62.808L78.2987 62.9387L78.0938 63.0728L77.8925 63.2035L77.6912 63.3378L77.4935 63.4648L77.3981 63.5284L77.3062 63.5991L77.2145 63.6732L77.1262 63.7509L76.9566 63.9133L76.7872 64.0828L76.6212 64.2453L76.5365 64.3266L76.4516 64.4043L76.2749 64.5455L76.1833 64.6091L76.0879 64.6656L76.1939 64.5031L76.2926 64.3301L76.3776 64.15L76.4586 63.9628L76.5293 63.7721L76.5965 63.5779L76.6599 63.3801L76.7202 63.1788L76.8365 62.7798L76.8966 62.582L76.9602 62.3878L77.0272 62.197L77.1015 62.0099L77.1828 61.8298L77.2709 61.6603L77.2922 61.7026L77.3168 61.7485L77.3665 61.8474L77.4265 61.9534L77.4935 62.0593L77.5675 62.1617L77.6454 62.2571L77.6841 62.2959L77.7231 62.3347L77.7654 62.3666L77.8078 62.3948L77.8854 62.4372L77.9561 62.4654L78.0231 62.4866L78.0868 62.4972L78.1431 62.5008L78.1998 62.4972L78.2491 62.4831L78.2951 62.4619L78.3341 62.4336L78.3728 62.4019L78.4081 62.363L78.4398 62.3172L78.4681 62.2677L78.4928 62.2147L78.5177 62.1546L78.5387 62.0946L78.5707 61.9639L78.5987 61.8262L78.62 61.6849L78.6341 61.5473L78.6447 61.4095L78.6554 61.2824L78.6624 61.2223L78.6694 61.1129L78.6764 61.0669L78.7471 60.5337L78.8107 60.0004L78.945 58.9339L79.026 58.3688L79.111 57.8038L79.1993 57.2423L79.2804 56.6772L79.298 56.5642L79.3193 56.4476L79.3757 56.2075L79.4357 55.9569L79.496 55.7026L79.5523 55.4446L79.5736 55.3176L79.5913 55.194L79.6053 55.0703L79.616 54.9539V54.8373L79.6087 54.7243L79.5983 54.6466L79.5843 54.576L79.563 54.5124L79.5383 54.4523L79.51 54.3994L79.4783 54.35L79.443 54.3077L79.404 54.2687L79.3617 54.237L79.3193 54.2087L79.2697 54.184L79.2203 54.1627L79.1674 54.1487L79.1144 54.1344L79.058 54.1274L78.998 54.1204H78.8777L78.7577 54.131L78.6307 54.1521L78.5071 54.1804L78.3834 54.2193L78.2634 54.2617L78.1504 54.3077L78.0444 54.357L77.9455 54.41L77.8501 54.4666L77.7548 54.5266L77.6628 54.5937L77.5711 54.6643L77.4828 54.735L77.3168 54.8903L77.1579 55.0563L77.0095 55.2329L76.8719 55.4166L76.7449 55.6002L76.6142 55.8049L76.4835 56.0132L76.3599 56.2252L76.2399 56.4405L76.1266 56.6595L76.0136 56.8821L75.9076 57.1081L75.8053 57.3342L75.71 57.5601L75.6146 57.7933L75.5263 58.0263L75.445 58.2593L75.3674 58.4925L75.2933 58.729L75.2227 58.9692L75.159 59.2058L75.1486 59.1493L75.1414 59.0893V58.9692L75.1557 58.8421L75.1767 58.7185L75.205 58.5914L75.2367 58.4642L75.272 58.3442L75.304 58.2276L75.3674 57.991L75.438 57.7579L75.5123 57.5283L75.59 57.2988L75.6746 57.0728L75.763 56.8502L75.8549 56.6312L75.9536 56.4122L76.0526 56.2005L76.1586 55.9886L76.2679 55.7766L76.3809 55.5719L76.4976 55.367L76.7449 54.9643L76.8755 54.7667L77.0062 54.5724L77.1438 54.3817L77.4228 54.0004L77.7195 53.6331L78.0268 53.2691L78.3481 52.9161L78.6764 52.5701L79.019 52.2312L79.3687 51.8989L79.4253 51.8496L79.4887 51.7896L79.5663 51.7225L79.6477 51.6449L79.8207 51.4789L79.909 51.3869L79.9936 51.2952L80.0713 51.1999L80.1456 51.1046L80.2056 51.0126L80.2339 50.9667L80.2586 50.9209L80.2763 50.875L80.2939 50.8326L80.3046 50.79L80.3116 50.7479V50.709L80.3082 50.67L80.3009 50.6347L80.2869 50.5994L80.2586 50.55L80.2269 50.511L80.1879 50.476L80.1492 50.4477L80.1069 50.4264L80.0609 50.4123L80.0149 50.4053L79.9656 50.4017H79.9126L79.8596 50.4087L79.8066 50.4193L79.75 50.4334L79.6936 50.451L79.6336 50.4723L79.517 50.5253L79.4006 50.5853L79.284 50.6523L79.171 50.7196L79.065 50.79L78.8777 50.9243L78.7967 50.9773L78.7647 51.002L78.733 51.0233L78.5071 51.1823L78.2844 51.3516L78.0691 51.5282L77.8538 51.7155L77.6454 51.9026L77.4405 52.0932L77.0342 52.4782L76.9779 52.5312L76.9142 52.5878L76.7836 52.6972L76.6459 52.8138L76.5046 52.9338L76.3633 53.0611L76.2256 53.1881L76.0986 53.3188L76.0349 53.3858L75.9786 53.4528L75.9253 53.5554L75.8689 53.6577L75.8089 53.7497L75.7453 53.8378L75.7876 53.7391L75.8406 53.6437L75.9043 53.5484L75.9786 53.4528L76.0562 53.2798L76.1232 53.0998L76.1796 52.9125L76.2222 52.7218L76.2399 52.6265L76.2539 52.5312L76.2646 52.4358L76.2716 52.3371L76.2749 52.2415V52.1499L76.2679 52.0545L76.2575 51.9626L76.2433 51.8745L76.2256 51.7859L76.2043 51.6976L76.1762 51.6166L76.1409 51.5353L76.1019 51.4576L76.0596 51.3836L76.0103 51.3129L75.9573 51.2456L75.8973 51.1823L75.83 51.1256L75.756 51.0726L75.6783 51.0233L75.5936 50.9809L75.5016 50.942L75.4027 50.9103V50.9137H75.3957L75.3816 50.9103L75.378 50.9066H75.385L75.4027 50.9103L75.3816 50.8643L75.3603 50.829L75.3393 50.8007L75.318 50.783L75.2967 50.7724H75.272L75.251 50.776L75.2263 50.79L75.205 50.8079L75.1803 50.8326L75.159 50.8609L75.1344 50.8926L75.1133 50.9313L75.0884 50.9737L75.046 51.0656L75.0037 51.1646L74.965 51.2669L74.9297 51.3693L74.8977 51.4682L74.8697 51.5599L74.8554 51.5989L74.8484 51.6376L74.8377 51.6696L74.8307 51.6976L74.8237 51.7189L74.82 51.7366L74.7707 51.9202L74.7177 52.0969L74.6541 52.2699L74.5907 52.4395L74.4527 52.7748L74.3821 52.9478L74.3151 53.1211L74.2974 53.1704L74.2797 53.2304L74.2584 53.3011L74.2374 53.3788L74.2161 53.4634L74.1951 53.5588L74.1738 53.6541L74.1525 53.7601L74.1314 53.8697L74.1138 53.9791L74.0784 54.2087L74.0571 54.4417L74.0501 54.5583L74.0467 54.675L74.0431 54.7843L74.0501 54.8939L74.0571 54.9963L74.0714 55.0952L74.0891 55.1906L74.1101 55.2753L74.1421 55.3529L74.1774 55.4236L74.2197 55.4836L74.2691 55.5329L74.3257 55.5719L74.3894 55.6002L74.4598 55.6142L74.4987 55.6179L74.5834 55.6106L74.6294 55.6002L74.6787 55.5896L74.7283 55.5719L74.7954 55.5436L74.8624 55.5046L74.926 55.4623L74.9897 55.4093L75.0497 55.3529L75.1097 55.2929L75.1697 55.2256L75.2297 55.1586L75.3427 55.021L75.4523 54.8833L75.5053 54.816L75.5583 54.7526L75.6113 54.6926L75.6606 54.6396L75.816 54.4807L75.9749 54.3217L76.2962 53.9897L76.4586 53.8237L76.6246 53.6614L76.7906 53.5024L76.9602 53.3505L77.2922 53.0434L77.6171 52.7255L77.9314 52.4005L78.2457 52.0685L78.3021 52.0085L78.4221 51.8672L78.4894 51.7932L78.6234 51.6342L78.7717 51.4789L78.846 51.4046L78.9237 51.3339L79.0014 51.2706L79.079 51.2139L79.1603 51.1646L79.238 51.1222L79.3193 51.0903L79.4006 51.0726L79.4076 51.1116V51.1469L79.404 51.1893L79.3933 51.2282L79.3793 51.2706L79.3617 51.3129L79.3404 51.3552L79.3157 51.4012L79.2557 51.4895L79.185 51.5812L79.1074 51.6732L79.0227 51.7613L78.9307 51.8532L78.839 51.9415L78.7471 52.0262L78.6554 52.1075L78.5707 52.1815L78.4928 52.2522L78.4221 52.3192L78.3657 52.3758L78.0551 52.7078L77.7512 53.0504L77.4545 53.3964L77.1651 53.7424L77.0272 53.9121L76.8932 54.085L76.7625 54.2653L76.6352 54.4453L76.3846 54.816L76.1479 55.201L75.9219 55.5896L75.7066 55.9849L75.5053 56.3842L75.318 56.7832L75.1344 57.1999L75.0497 57.4048L74.972 57.6096L74.8943 57.8179L74.8237 58.0228L74.7564 58.2311L74.693 58.4395L74.6294 58.6478L74.5728 58.8562L74.4704 59.2835L74.3787 59.7215L74.3361 59.9439L74.2974 60.1699L74.2551 60.403L74.2021 60.6467L74.1491 60.8939L74.0925 61.1482L74.0431 61.399L74.0254 61.526L74.0078 61.6497L73.9938 61.7732L73.9831 61.8968L73.9795 62.0134V62.13L73.9867 62.2076L74.0078 62.2924L74.0397 62.3878L74.0784 62.4902L74.1278 62.5926L74.1844 62.695L74.2514 62.7974L74.3221 62.8963L74.3998 62.9845L74.4811 63.0623L74.5234 63.0976L74.5657 63.1294L74.6117 63.1577L74.6577 63.1788L74.7034 63.2L74.7494 63.2141L74.7954 63.2212L74.8413 63.2247L74.8907 63.2212L74.9367 63.2141L74.986 63.1965L75.032 63.1753L75.0814 63.14L75.1167 63.0976L75.1486 63.0446L75.1697 62.9881L75.1837 62.921L75.1944 62.8539L75.198 62.7798V62.702L75.191 62.5466L75.1803 62.3948L75.1767 62.3207L75.1733 62.25V62.1864L75.1767 62.13L75.191 62.0205L75.212 61.911L75.2333 61.805L75.2614 61.6991L75.318 61.4908L75.371 61.2788L75.438 60.9928L75.6183 60.1346L75.6853 59.8521L75.756 59.5696L75.8373 59.287L75.883 59.1458L75.9326 59.008L76.0243 58.7609L76.1232 58.5172L76.2256 58.277L76.3352 58.0369L76.4482 57.8038L76.5646 57.5672L76.6882 57.3376L76.8155 57.1081L76.9425 56.8785L77.0768 56.6561L77.3522 56.2075L77.6418 55.7696L77.9384 55.3389L78.0091 55.2433L78.0868 55.1446L78.1681 55.0526L78.2564 54.9643L78.3411 54.8833L78.4294 54.8126L78.4717 54.7843L78.5104 54.756L78.553 54.735L78.5917 54.7173L78.6307 54.703L78.666 54.696L78.7011 54.6926L78.7367 54.696L78.7647 54.7067L78.793 54.7207L78.8214 54.742L78.8424 54.7737L78.8637 54.809L78.8777 54.8513L78.892 54.9043L78.9024 54.9643L78.906 55.035L78.9097 55.1129L78.906 55.201L78.899 55.2966L78.8707 55.5329L78.832 55.7696L78.786 56.0062L78.7367 56.2392L78.6834 56.4725L78.6307 56.7055L78.5847 56.9421L78.5424 57.1823L78.5104 57.433L78.4858 57.6838L78.4504 58.1887L78.4081 58.9445L78.387 59.1952L78.3764 59.3082L78.3694 59.4248L78.3657 59.5484L78.3587 59.6755L78.3481 59.9368L78.3341 60.2052L78.3091 60.4701L78.2951 60.6008L78.274 60.7244L78.2527 60.848L78.2244 60.9645L78.1927 61.074L78.1538 61.1764L78.1081 61.1411L78.0655 61.1058L77.9914 61.0317L77.9314 60.9574L77.8784 60.8833L77.8395 60.8056L77.8114 60.7279L77.7935 60.6503L77.7865 60.569L77.7831 60.4913L77.7901 60.4101L77.8008 60.3289L77.8218 60.2476L77.8431 60.1629L77.8714 60.0781L77.9031 59.9969L77.9384 59.9122L78.0127 59.7391L78.1608 59.393L78.1927 59.3047L78.2244 59.2164L78.2491 59.1281L78.2704 59.0398L78.2844 58.9516L78.2917 58.8633L78.2951 58.7715L78.2881 58.6832L78.274 58.5949L78.2491 58.5066L78.2281 58.4536L78.1927 58.3971L78.1504 58.3336L78.0974 58.2664L78.0338 58.1958L77.9668 58.1252L77.8961 58.0546L77.8218 57.9839L77.7441 57.9168L77.6665 57.8533L77.5888 57.7967L77.5111 57.7438L77.4405 57.7014L77.3735 57.6661L77.3098 57.6413L77.2568 57.6307L77.2075 57.6272H77.1579L77.0662 57.6413L77.0238 57.6555L76.9815 57.6731L76.9038 57.7155L76.8329 57.7685L76.7659 57.8321L76.7059 57.9062L76.6529 57.9874L76.6069 58.0722L76.5646 58.1605L76.5259 58.2524L76.4939 58.3477L76.4692 58.4395L76.4482 58.5278L76.4305 58.6126L76.4199 58.6938L76.4129 58.7926L76.4056 58.8915V58.994L76.4129 59.0999L76.4199 59.2058L76.4305 59.3118L76.4622 59.5237L76.5046 59.7356L76.5506 59.9439L76.5999 60.1452L76.6529 60.3395L76.6812 60.4419L76.7025 60.5337L76.7202 60.6184L76.7342 60.6997L76.7449 60.7738L76.7482 60.848L76.7519 60.9151L76.7482 60.9822L76.7412 61.0528L76.7272 61.12L76.7129 61.1906L76.6919 61.2647L76.6669 61.3424L76.6389 61.4271L76.6069 61.5154L76.5682 61.6143L76.4129 61.9993L76.2539 62.3772L76.0879 62.7515L75.9183 63.1258L75.5723 63.871L75.3993 64.2453L75.2297 64.6232L75.0284 65.0788L74.82 65.5308L74.6011 65.9758L74.4881 66.1983L74.3681 66.4172L74.3187 66.502L74.2621 66.5938L74.2021 66.6891L74.1351 66.788L74.0044 66.9929L73.9371 67.1024L73.8735 67.2083L73.8135 67.3178L73.7571 67.4272L73.7111 67.5367L73.6688 67.6462L73.6405 67.7557L73.6194 67.8616L73.6122 67.9641L73.6158 68.017L73.6194 68.0664L73.6335 68.1547L73.6548 68.2325L73.6758 68.2995L73.7041 68.3525L73.7324 68.3949L73.7641 68.4267L73.7995 68.4514L73.8384 68.4655L73.8771 68.4726L73.9161 68.469L73.9584 68.4584L74.0008 68.4443L74.0467 68.4232L74.0925 68.3949L74.1384 68.3631L74.2304 68.2854L74.2797 68.2395L74.3681 68.1442L74.4564 68.0418L74.5374 67.9358L74.6117 67.8334L74.6754 67.738L74.7034 67.6956L74.7283 67.6568L74.7494 67.6215L74.7671 67.5897L74.8907 67.3637L75.0214 67.1411L75.1557 66.9223L75.2933 66.7033L75.438 66.4878L75.5863 66.2795L75.7417 66.0711L75.9006 65.8663L76.1903 65.5167L76.4905 65.1777L76.8049 64.8457L76.9638 64.6868L77.1296 64.5279L77.2955 64.3724L77.4652 64.2241L77.8114 63.9345L77.9878 63.8004L78.1681 63.6662L78.3517 63.539L78.5354 63.419L78.6271 63.3589L78.7224 63.2954L78.8284 63.2212L78.938 63.1506L79.0507 63.0799L79.1603 63.0128L79.2697 62.9528L79.3793 62.9033L79.4287 62.8857L79.4783 62.8716L79.5276 62.861L79.5736 62.8539H79.616L79.6547 62.8574L79.6936 62.868L79.729 62.8857L79.7606 62.9069L79.789 62.9387L79.81 62.974L79.8313 63.0199L79.8456 63.0728L79.856 63.1365L79.8633 63.2071V63.2883L79.856 63.4084L79.842 63.5249L79.8173 63.6414L79.789 63.758L79.7573 63.871L79.7183 63.9805L79.676 64.0935L79.63 64.2029L79.5347 64.4184L79.337 64.8492L79.2946 64.9552L79.252 65.0647L79.2027 65.0434L79.1533 65.0187L79.0403 64.9693L78.9167 64.9234L78.786 64.8775L78.6484 64.8351L78.5071 64.7998L78.3621 64.768L78.2208 64.7503L78.0761 64.7397H78.0091L77.9418 64.7432L77.8748 64.7503L77.8114 64.7609L77.7478 64.7786L77.6878 64.7963L77.6311 64.821L77.5782 64.8527L77.5288 64.8846L77.4792 64.9269L77.4368 64.9693L77.3981 65.0222L77.3628 65.0788L77.3345 65.1423L77.3132 65.1988L77.2992 65.2589L77.2885 65.3189L77.2851 65.3789V65.4425L77.2885 65.5061L77.2955 65.5696L77.3098 65.6333L77.3239 65.6968L77.3452 65.7603L77.3945 65.8875L77.4581 66.0147L77.5322 66.1382L77.6135 66.2583L77.7054 66.3713L77.8008 66.4773L77.8995 66.5762L78.0021 66.6609L78.1081 66.7386L78.1574 66.7703L78.2104 66.7986L78.2598 66.8269L78.3091 66.8481L78.3728 66.8728L78.4858 66.9081L78.5424 66.9152L78.5917 66.9223H78.6411L78.6907 66.9187L78.7367 66.9081L78.7824 66.894L78.8284 66.8763L78.8777 66.8552L78.9237 66.8234L78.9731 66.7915L79.0227 66.7528L79.072 66.7103L79.125 66.6609L79.1533 66.6326L79.1816 66.5938L79.2133 66.5514L79.245 66.502L79.277 66.449L79.3123 66.396L79.3793 66.2866L79.4146 66.2336L79.45 66.1842L79.4853 66.1382L79.5206 66.0959L79.556 66.0605L79.5913 66.0358L79.6264 66.0182L79.6619 66.0111L79.69 66.0147L79.7253 66.0323L79.7606 66.057L79.803 66.0888L79.8456 66.1276L79.8913 66.1736L79.9833 66.2724L80.075 66.3784L80.1209 66.4278L80.1633 66.4773L80.1986 66.5196L80.2339 66.5585L80.2903 66.615L80.4563 66.7457L80.5446 66.8057L80.6329 66.8622L80.7249 66.9152L80.8202 66.9611L80.9155 67.0035L81.0145 67.0388L81.1026 67.067L81.1802 67.0847L81.2475 67.0953L81.3075 67.1024H81.3605L81.4028 67.0953L81.4418 67.0811L81.4699 67.0635L81.4948 67.0423L81.5088 67.0141L81.5195 66.9823L81.5265 66.947L81.5195 66.8692L81.5088 66.8234L81.4948 66.7774L81.4735 66.7315L81.4522 66.6821L81.3958 66.5797L81.3322 66.4738L81.2582 66.3713L81.1802 66.276L81.0992 66.1842L81.0215 66.1029L80.9825 66.0676L80.9438 66.0358ZM77.3098 59.0893L77.2851 59.0646L77.2605 59.0363L77.2392 59.001L77.1862 58.8739L77.1579 58.7821L77.1368 58.6973L77.1296 58.6584L77.1225 58.6232L77.1192 58.5949L77.1155 58.5737L77.1119 58.5595V58.556L77.1509 58.5383L77.1828 58.5243L77.2145 58.5137L77.2709 58.5066H77.2955L77.3345 58.5172L77.3665 58.5419L77.3911 58.5737L77.4088 58.6126L77.4192 58.6584V58.7114L77.4158 58.7679L77.4088 58.8244L77.3945 58.8809L77.3805 58.9409L77.3592 58.994L77.3345 59.0434L77.3098 59.0893ZM79.019 65.4884L78.998 65.5414L78.9697 65.5908L78.9307 65.6368L78.8847 65.6827L78.8354 65.7215L78.779 65.7533L78.7224 65.7815L78.6624 65.7992L78.5987 65.8063L78.5387 65.8027L78.4787 65.7851L78.447 65.7709L78.4187 65.7568L78.3904 65.7357L78.3621 65.7109L78.3374 65.6827L78.3128 65.6509L78.2917 65.612L78.2704 65.5696L78.2491 65.5238L78.2314 65.4743L78.2174 65.4213L78.2068 65.3755L78.1998 65.3366V65.2977L78.2034 65.2695L78.2104 65.2412L78.2208 65.22L78.2351 65.2023L78.2527 65.1883L78.274 65.1812L78.2987 65.1742L78.3234 65.1706L78.3834 65.1742L78.4504 65.1883L78.5211 65.2094L78.6764 65.273L78.7507 65.3083L78.8247 65.3472L78.8954 65.3825L78.959 65.4178L79.0157 65.4461L79.019 65.4884Z" fill="#0E419C"/>
<path fill-rule="evenodd" clip-rule="evenodd" d="M88.4418 57.7897L88.4208 57.7755L88.3958 57.7649L88.3924 57.7791L88.3888 57.7897H88.4418ZM90.5183 54.7773L90.0593 55.0703L89.8297 55.2186L89.6073 55.3669L89.3847 55.5223L89.1657 55.6812L88.9504 55.8438L88.7384 56.0168L88.6821 56.0698L88.6291 56.1262L88.5831 56.1828L88.5408 56.2465L88.5054 56.3135L88.4735 56.3805L88.4454 56.4478L88.4208 56.5184L88.3995 56.5925L88.3818 56.6631L88.3605 56.8114L88.3465 56.9561L88.3428 57.101L88.3501 57.2388L88.3605 57.3659L88.3675 57.4259L88.3748 57.4824L88.3818 57.5354L88.3924 57.5848L88.4065 57.6696L88.4171 57.7014L88.4241 57.7332L88.4311 57.7579L88.4348 57.7755L88.4384 57.7862L88.4418 57.7897H88.4384L88.4348 57.7862L88.4171 57.7791L88.3958 57.7685V57.7649L88.3395 57.7437L88.2935 57.7296L88.2548 57.7226L88.2194 57.7261L88.1945 57.7367L88.1771 57.7543L88.1628 57.7791L88.1522 57.8109L88.1488 57.8462L88.1558 57.9344L88.1665 57.9839L88.1805 58.0369L88.1981 58.0934L88.2371 58.2134L88.2865 58.3406L88.3395 58.4678L88.3958 58.5913L88.4488 58.7114L88.4771 58.7679L88.4984 58.8209L88.5195 58.8703L88.5408 58.9163L88.5584 58.9551L88.5688 58.9904L88.5795 59.0187L88.5865 59.0433L88.5938 59.0893L88.6008 59.1388L88.6041 59.2517L88.5971 59.5025L88.5901 59.6402L88.5831 59.7814L88.5761 59.9263V60.0676L88.5831 60.2053L88.6008 60.3395L88.6254 60.4666L88.6431 60.5266L88.6644 60.5832L88.6891 60.6361L88.7174 60.6856L88.7491 60.7314L88.7878 60.7738L88.8301 60.8126L88.8797 60.8445L88.9327 60.8727L88.9891 60.8974L89.0387 60.908L89.0811 60.9115L89.1234 60.908L89.1657 60.894L89.2047 60.8727L89.24 60.848L89.2717 60.8126L89.3034 60.7738L89.3317 60.7314L89.36 60.6785L89.3847 60.6255L89.406 60.569L89.4271 60.5055L89.4447 60.4418L89.4764 60.3041L89.5013 60.1593L89.519 60.0145L89.533 59.8662L89.5401 59.5908L89.5367 59.5307L89.533 59.4707L89.5294 59.4142L89.526 59.3648L89.519 59.3189L89.5117 59.2765L89.4977 59.2165L89.48 59.1564L89.4341 59.0363L89.3741 58.9233L89.307 58.8138L89.2328 58.7043L89.1551 58.5949L88.9927 58.383L88.9151 58.277L88.8408 58.1676L88.7738 58.0581L88.7174 57.9486L88.6925 57.8886L88.6748 57.832L88.6574 57.7755L88.6431 57.7155L88.6325 57.6554L88.6291 57.5919V57.5284L88.6325 57.4648L88.6397 57.4153L88.6501 57.3659L88.6854 57.2706L88.7278 57.1751L88.7844 57.0834L88.8514 56.9951L88.9257 56.9068L89.0068 56.8221L89.0917 56.7408L89.1834 56.6595L89.2754 56.5818L89.459 56.4301L89.5507 56.3558L89.639 56.2818L89.7203 56.2145L89.798 56.1439L89.971 55.9851L90.1476 55.8262L90.3276 55.6672L90.5113 55.5119L90.6983 55.3565L90.8892 55.2116L91.0833 55.0703L91.2776 54.9396L91.3095 54.9186L91.3446 54.8939L91.3872 54.8656L91.4295 54.8373L91.5282 54.7703L91.6342 54.6996L91.7509 54.6253L91.8745 54.5513L91.9981 54.4806L92.1252 54.417L92.2488 54.357L92.3654 54.311L92.4218 54.2933L92.4784 54.2793L92.5772 54.2653H92.6231L92.6655 54.2687L92.7044 54.2793L92.7361 54.297L92.7681 54.3217L92.7927 54.35L92.8104 54.3889L92.8244 54.4313L92.8314 54.4843L92.8281 54.5443L92.8174 54.6113L92.7998 54.6819L92.7785 54.756L92.7468 54.8339L92.7151 54.9116L92.6798 54.9892L92.6021 55.1482L92.5668 55.2259L92.5278 55.2965L92.4925 55.3669L92.4641 55.4306L92.4361 55.4872L92.4148 55.5365L92.3725 55.6565L92.3335 55.7802L92.2982 55.9038L92.2665 56.0275L92.2028 56.2745L92.1711 56.3982L91.9909 57.0304L91.8498 57.5425L91.7862 57.7967L91.7225 58.0545L91.6625 58.3123L91.6095 58.5702L91.5742 58.4854L91.4895 58.3088L91.4402 58.2205L91.3872 58.1322L91.3306 58.0439L91.2069 57.8674L91.0729 57.6943L90.9316 57.5354L90.8573 57.4613L90.7833 57.3906L90.709 57.3235L90.6313 57.26L90.5396 57.1929L90.4406 57.1363L90.3417 57.0869L90.243 57.0481L90.144 57.0234L90.045 57.0057H89.9533L89.8687 57.0161L89.8263 57.0234L89.7873 57.0374L89.752 57.0551L89.7167 57.0764L89.685 57.1045L89.6567 57.1328L89.632 57.1646L89.6107 57.2034L89.5897 57.2423L89.5754 57.2882L89.5614 57.3412L89.5543 57.3941L89.5507 57.4542V57.5177L89.5543 57.5848L89.5647 57.659L89.5897 57.7685L89.625 57.8744L89.6707 57.9804L89.7237 58.0828L89.7837 58.1817L89.8473 58.2806L90.1229 58.662L90.1863 58.7574L90.2463 58.8526L90.2993 58.9481L90.3453 59.0433L90.3806 59.1422L90.4053 59.2411L90.4123 59.28V59.3223L90.4053 59.4107L90.3843 59.5025L90.3489 59.5978L90.3066 59.6967L90.2536 59.7956L90.197 59.898L90.1333 60.0004L90.0027 60.2088L89.939 60.3112L89.879 60.4101L89.8263 60.509L89.7767 60.6043L89.738 60.6961L89.7097 60.7844L89.7837 60.7491L89.851 60.7067L89.9144 60.6608L89.9744 60.6114L90.031 60.5549L90.0804 60.4984L90.1793 60.3783L90.2746 60.2547L90.3666 60.1311L90.416 60.0746L90.4689 60.0181L90.5219 59.9686L90.5783 59.9227L90.6279 59.8909L90.6736 59.8627L90.7196 59.8486L90.762 59.838L90.8043 59.8344L90.8433 59.838L90.882 59.8486L90.9176 59.8662L90.9529 59.8874L90.9846 59.9121L91.0163 59.9439L91.0479 59.9792L91.0799 60.0181L91.1082 60.0604L91.1682 60.1488L91.2282 60.2477L91.2882 60.35L91.3519 60.4524L91.4189 60.5513L91.4895 60.6432L91.5672 60.7279L91.6095 60.7632L91.6519 60.795L91.6979 60.8232L91.7472 60.848L91.8285 60.8798L91.9028 60.9009L91.9628 60.908L92.0122 60.9009L92.0545 60.8868L92.0865 60.8621L92.1145 60.8268L92.1358 60.788L92.1498 60.735L92.1605 60.682L92.1675 60.6184L92.1748 60.5513L92.1818 60.403L92.1922 60.2477L92.2028 60.1099L92.2205 59.9686L92.2595 59.6967L92.3088 59.4248L92.3654 59.1528L92.4254 58.8421L92.4748 58.5278L92.5668 57.8992L92.6161 57.5848L92.6725 57.2741L92.7044 57.1187L92.7398 56.9634L92.8244 56.6595L92.9128 56.3911L93.0044 56.1192L93.1034 55.8508L93.2058 55.5825L93.4037 55.0456L93.492 54.7736L93.5731 54.5019L93.5944 54.4206L93.6084 54.343L93.619 54.2723L93.6261 54.2053V54.1416L93.6227 54.085L93.6157 54.032L93.605 53.9827L93.5873 53.9367L93.566 53.898L93.545 53.8627L93.5167 53.8307L93.4847 53.799L93.453 53.7743L93.4143 53.7567L93.3754 53.739L93.2871 53.7107L93.1847 53.7H93.0751L92.9587 53.7107L92.8351 53.7284L92.7008 53.7601L92.5668 53.7954L92.4254 53.8414L92.2805 53.8907L92.1358 53.9473L91.9875 54.0073L91.8428 54.071L91.6979 54.138L91.5566 54.2053L91.4189 54.2723L91.2846 54.343L91.1576 54.41L91.0376 54.477L90.9246 54.537L90.8186 54.597L90.7266 54.6502L90.6456 54.6996L90.5749 54.7419L90.543 54.7596L90.5183 54.7773ZM90.2853 57.8603L90.3347 57.8709L90.3806 57.8886L90.423 57.9133L90.4653 57.9415L90.5006 57.9733L90.536 58.0087L90.596 58.0934L90.6456 58.1852L90.6843 58.2841L90.7126 58.3865L90.7266 58.4819L90.7726 58.5172L90.7266 58.503L90.6773 58.4819L90.6279 58.4572L90.5819 58.4253L90.5326 58.3901L90.4902 58.3512L90.4476 58.3053L90.4089 58.2594L90.3736 58.2134L90.3417 58.1605L90.3136 58.1111L90.2959 58.0581L90.2817 58.0087L90.2746 57.9556V57.9062L90.2853 57.8603ZM87.9155 63.2988L87.9262 63.3519L87.9402 63.3977L87.9615 63.4437L87.9722 63.4649L87.9898 63.486L88.2935 63.3801L88.5971 63.2706L89.1977 63.0375L89.791 62.7903L90.3876 62.5432L90.9846 62.2994L91.2846 62.1829L91.8922 61.964L92.1958 61.8651L92.5067 61.7697L92.8174 61.685L92.9057 61.6602L92.987 61.639L93.0611 61.6179L93.1317 61.5967L93.1951 61.579L93.3154 61.5508L93.3717 61.5437L93.432 61.5402L93.4884 61.5437L93.5484 61.5472L93.612 61.5613L93.679 61.579L93.7497 61.6073L93.8274 61.639L93.9123 61.6814L94.05 61.7556L94.117 61.7909L94.184 61.8297L94.244 61.8686L94.297 61.9074L94.343 61.9463L94.382 61.9887L94.41 62.031L94.4277 62.077L94.4313 62.1229V62.1476L94.4243 62.1723L94.4136 62.197L94.3996 62.2218L94.382 62.25L94.3573 62.2748L94.3323 62.303L94.3006 62.3312L94.2653 62.363L94.223 62.3912L94.163 62.4301L94.096 62.4655L94.025 62.4972L93.951 62.522L93.7957 62.5714L93.4637 62.6561L93.3011 62.7021L93.1458 62.755L93.0717 62.7833L93.0044 62.8186L92.8704 62.8963L92.7325 62.9775L92.5984 63.0587L92.4608 63.1399L92.3231 63.2141L92.1782 63.2812L92.1041 63.3094L92.0298 63.3342L91.9558 63.3554L91.8781 63.3731L91.9062 63.313L91.9381 63.253L91.9735 63.1964L92.0158 63.1435L92.0581 63.0941L92.1075 63.0446L92.2099 62.9528L92.3158 62.8645L92.4288 62.7833L92.5384 62.7021L92.6444 62.6244L92.5348 62.6173L92.4218 62.6208L92.3018 62.6314L92.1782 62.6491L92.0511 62.6703L91.9239 62.7021L91.7898 62.7338L91.6592 62.7727L91.3978 62.8539L91.2706 62.8963L91.1469 62.9422L91.0269 62.9846L90.9103 63.0269L90.8009 63.0693L90.6983 63.1081L90.5573 63.1647L90.423 63.2282L90.2923 63.2919L90.1653 63.3625L90.0416 63.4402L89.9216 63.5178L89.805 63.6026L89.6954 63.6873L89.5824 63.7791L89.4764 63.871L89.2647 64.0687L89.0564 64.2771L88.8478 64.496L88.7597 64.5878L88.6714 64.6797L88.5901 64.7609L88.5054 64.8351L88.4241 64.9022L88.3428 64.9586L88.2618 65.0046L88.2228 65.0223L88.1839 65.0364L88.1415 65.047L88.1028 65.054L88.0638 65.0576H88.0215L87.9828 65.054L87.9402 65.0435L87.8979 65.0294L87.8555 65.0117L87.8132 64.9869L87.7708 64.9586L87.7285 64.9269L87.6862 64.888L87.6402 64.8422L87.5942 64.7927L87.5485 64.7362L87.5025 64.6727L87.4319 64.5773L87.3612 64.4749L87.2942 64.3619L87.2339 64.2453L87.2059 64.1853L87.1846 64.1217L87.1669 64.0617L87.1562 63.9981L87.1492 63.9346V63.871L87.1562 63.811L87.1705 63.7474L87.1846 63.7085L87.1986 63.6767L87.2305 63.6167L87.2692 63.5708L87.3118 63.5355L87.3612 63.5072L87.4106 63.486L87.4635 63.4684L87.5165 63.4578L87.6262 63.4366L87.6789 63.426L87.7319 63.4119L87.7815 63.3907L87.8272 63.366L87.8698 63.3306L87.9085 63.2847L87.9155 63.2988Z" fill="#0E419C"/>
<path fill-rule="evenodd" clip-rule="evenodd" d="M101.311 62.8362L101.395 62.7374L101.484 62.642L101.667 62.4619L101.858 62.2889L102.056 62.13L102.253 61.9745L102.649 61.6709L102.843 61.5154L103.027 61.3601L103.204 61.1941L103.369 61.0211L103.447 60.9292L103.521 60.8339L103.592 60.7385L103.659 60.6361L103.719 60.5266L103.776 60.4171L103.829 60.3006L103.875 60.1806L103.913 60.0534L103.949 59.9192L103.998 59.679L104.044 59.4354L104.079 59.1881L104.111 58.9409L104.136 58.6938L104.157 58.4466L104.175 58.1958L104.189 57.9451L104.21 57.4436L104.224 56.9458L104.242 56.4475L104.267 55.9569L104.288 55.6989L104.32 55.4342L104.355 55.1693L104.387 54.9009L104.415 54.6326L104.426 54.4983L104.436 54.364L104.44 54.2334L104.436 54.1027L104.429 53.972L104.418 53.845L104.411 53.8061L104.397 53.7601L104.38 53.7074L104.362 53.6471L104.337 53.5871L104.316 53.5237L104.27 53.3894L104.228 53.2588L104.214 53.1951L104.203 53.1351L104.196 53.0785V53.0291L104.207 52.9832L104.221 52.9478L104.256 52.9021L104.298 52.8668L104.348 52.8385L104.401 52.8242L104.461 52.8138H104.521L104.588 52.8208L104.652 52.8348L104.719 52.8525L104.782 52.8738L104.846 52.8985L104.909 52.9268L104.966 52.9585L105.019 52.9868L105.068 53.0185L105.107 53.0468L105.153 53.0858L105.188 53.1245L105.224 53.1668L105.252 53.2091L105.277 53.2588L105.294 53.3047L105.308 53.3577L105.319 53.4071L105.326 53.4634L105.33 53.5201V53.6331L105.315 53.7531L105.294 53.8767L105.266 54.0004L105.234 54.1274L105.164 54.3783L105.132 54.5017L105.104 54.6183L105.079 54.735L105.065 54.8443L105.012 55.3742L104.987 55.6389L104.966 55.9039L104.948 56.1722L104.938 56.4372L104.934 56.7018L104.938 56.9634L104.945 57.1787V57.606L104.938 57.8179L104.927 58.0298L104.913 58.2417L104.895 58.4536L104.874 58.6655L104.849 58.8739L104.818 59.0858L104.786 59.2941L104.747 59.5025L104.705 59.7144L104.659 59.9228L104.609 60.1311L104.553 60.3395L104.962 60.0498L105.178 59.9051L105.404 59.7567L105.52 59.679L105.644 59.6013L105.771 59.5201L105.902 59.4354L106.039 59.3506L106.181 59.2588L106.329 59.167L106.484 59.0717L106.435 59.0257L106.378 58.9834L106.318 58.9445L106.251 58.9056L106.11 58.8315L105.965 58.7608L105.831 58.6832L105.767 58.6408L105.714 58.5949L105.665 58.5454L105.623 58.4925L105.594 58.4324L105.573 58.3688L105.679 58.3794L105.785 58.383H105.891L105.997 58.3794L106.209 58.3618L106.421 58.3406L106.633 58.3124L106.845 58.2876L107.056 58.2665L107.265 58.2559H107.477L107.54 58.2594L107.597 58.2629L107.65 58.2665L107.699 58.2735L107.742 58.2806L107.784 58.2876L107.819 58.2982L107.851 58.3088L107.883 58.3194L107.908 58.33L107.929 58.3442L107.964 58.3688L107.985 58.4006L107.996 58.436V58.4712L107.985 58.5101L107.964 58.5489L107.936 58.5914L107.9 58.6337L107.855 58.6796L107.805 58.722L107.752 58.7679L107.692 58.8139L107.632 58.8597L107.364 59.0363L107.229 59.1175L107.166 59.1529L107.106 59.1881L107.046 59.2199L106.996 59.2517L106.947 59.2765L106.908 59.3011L106.83 59.3471L106.749 59.393L106.576 59.4919L106.392 59.5943L106.205 59.7038L106.011 59.8168L105.813 59.9368L105.616 60.0604L105.421 60.1876L105.234 60.3218L105.058 60.4595L104.888 60.6043L104.811 60.6749L104.733 60.7491L104.662 60.8233L104.595 60.901L104.475 61.0563L104.426 61.134L104.38 61.2152L104.337 61.2965L104.305 61.3777L104.231 61.6002L104.164 61.8262L104.104 62.0522L104.044 62.2818L103.984 62.5078L103.921 62.7338L103.846 62.9599L103.804 63.0693L103.758 63.1788L103.663 63.3978L103.564 63.6167L103.458 63.8321L103.348 64.0476L103.122 64.4713L102.889 64.8916L102.826 65.0011L102.766 65.107L102.702 65.2094L102.642 65.3083L102.575 65.4001L102.511 65.4849L102.441 65.5662L102.366 65.6403L102.289 65.7074L102.208 65.7639L102.119 65.8169L102.024 65.8592L101.921 65.8946L101.808 65.9193L101.688 65.9334L101.561 65.937H101.445L101.395 65.9405H101.289L101.169 65.944H101.042L100.908 65.9405L100.774 65.9334L100.643 65.9193L100.513 65.9016L100.396 65.8733L100.34 65.8557L100.287 65.8381L100.241 65.8169L100.195 65.7921L100.156 65.7674L100.124 65.7392L100.096 65.7074L100.071 65.6721L100.057 65.6332L100.046 65.5908L100.043 65.545L100.05 65.4955L100.23 65.4602L100.4 65.4213L100.569 65.3755L100.732 65.326L100.887 65.273L101.039 65.213L101.187 65.1459L101.328 65.0717L101.466 64.9905L101.6 64.9057L101.734 64.8104L101.861 64.708L101.985 64.5949L102.105 64.4749L102.225 64.3442L102.342 64.2065L102.441 64.0758L102.54 63.9416L102.631 63.8004L102.723 63.6556L102.812 63.5037L102.9 63.3484L102.981 63.1894L103.059 63.0305L103.129 62.868L103.2 62.7021L103.264 62.5396L103.324 62.3736L103.38 62.2112L103.43 62.0452L103.472 61.8862L103.511 61.7273L103.398 61.7874L103.281 61.8545L103.165 61.9251L103.041 62.0028L102.917 62.0875L102.797 62.1723L102.674 62.2641L102.557 62.3595L102.441 62.4548L102.328 62.5572L102.218 62.6597L102.116 62.7656L102.024 62.8716L101.936 62.981L101.858 63.087L101.791 63.1965L101.763 63.2495L101.734 63.3095L101.706 63.373L101.678 63.4402L101.65 63.5037L101.618 63.5673L101.582 63.6273L101.547 63.6803L101.505 63.7262L101.462 63.7615L101.413 63.7898L101.388 63.7969L101.36 63.8039H101.332L101.3 63.8004L101.268 63.7933L101.236 63.7827L101.201 63.7686L101.162 63.7474L101.124 63.7227L101.085 63.6909L101.042 63.6485L101.003 63.592L100.972 63.5285L100.943 63.4542L100.919 63.3765L100.905 63.2953L100.894 63.2106V63.1258L100.901 63.0482L100.915 62.974L100.943 62.9069L100.979 62.8504L101 62.8257L101.021 62.8044L101.049 62.7868L101.081 62.7727L101.113 62.7621L101.148 62.7586H101.187L101.229 62.7621L101.233 62.7656L101.24 62.7798L101.251 62.7904L101.265 62.8044L101.286 62.8186L101.311 62.8362ZM109.511 65.0788L109.476 65.1247L109.44 65.1671L109.405 65.2059L109.363 65.2412L109.324 65.2695L109.281 65.2977L109.19 65.3436L109.094 65.3755L108.988 65.4001L108.882 65.4142L108.769 65.4249L108.649 65.4319L108.526 65.439L108.399 65.4425L108.268 65.4496L108.134 65.4602L107.996 65.4744L107.855 65.4955L107.71 65.5273L107.583 65.5626L107.463 65.6014L107.35 65.6368L107.24 65.6756L107.138 65.7109L107.039 65.7427L106.943 65.7674L106.848 65.7851L106.76 65.7886L106.668 65.7815L106.626 65.7745L106.58 65.7639L106.537 65.7463L106.491 65.725L106.449 65.7003L106.403 65.6721L106.357 65.6368L106.311 65.5979L106.265 65.552L106.219 65.5025L106.173 65.4461L106.124 65.3825L106.057 65.2871L106 65.1883L105.951 65.0859L105.909 64.9799L105.87 64.8739L105.838 64.7645L105.781 64.5419L105.732 64.316L105.679 64.0899L105.651 63.977L105.619 63.8639L105.58 63.7544L105.538 63.645L105.34 63.2071L105.135 62.7762L104.719 61.9145L104.701 61.8756L104.676 61.8333L104.652 61.7838L104.623 61.7344L104.574 61.6285L104.553 61.572L104.535 61.5225L104.524 61.4731L104.521 61.4271L104.524 61.3848L104.542 61.353L104.567 61.3282L104.588 61.3177L104.609 61.3107L104.634 61.3036H104.697L104.736 61.3071L104.779 61.3177L104.825 61.3388L104.871 61.3671L104.916 61.4025L104.962 61.4448L105.008 61.4908L105.051 61.5437L105.097 61.5967L105.178 61.7097L105.255 61.8192L105.287 61.8687L105.319 61.9145L105.344 61.9569L105.368 61.9922L105.506 62.197L105.637 62.4019L105.771 62.6066L106.039 63.0093L106.184 63.2035L106.339 63.3942L106.502 63.5779L106.65 63.7262L106.806 63.871L106.972 64.0087L107.145 64.1394L107.325 64.263L107.509 64.369L107.604 64.4184L107.699 64.4643L107.795 64.5067L107.89 64.5419L108.006 64.5773L108.123 64.602L108.24 64.6162L108.356 64.6232L108.582 64.6303L108.692 64.6338L108.801 64.6409L108.904 64.6515L109.006 64.6691L109.105 64.6974L109.151 64.7186L109.197 64.7398L109.239 64.7645L109.285 64.7963L109.324 64.8316L109.366 64.8704L109.405 64.9128L109.44 64.9622L109.476 65.0152L109.511 65.0753V65.0788Z" fill="#0E419C"/>
<path fill-rule="evenodd" clip-rule="evenodd" d="M119.326 52.0634H119.375L119.425 52.0704L119.471 52.088L119.52 52.1127L119.566 52.148L119.609 52.187L119.651 52.2327L119.69 52.2823L119.725 52.3353L119.76 52.3917L119.789 52.4483L119.813 52.5047L119.835 52.5613L119.852 52.6177L119.863 52.6673L119.87 52.7166V52.7803L119.863 52.8437L119.849 52.9039L119.831 52.9603L119.81 53.0203L119.782 53.0733L119.75 53.1263L119.714 53.1793L119.637 53.2816L119.556 53.3736L119.471 53.4653L119.39 53.5502L119.213 53.7409L119.04 53.9315L118.701 54.3269L118.365 54.7225L118.044 55.1217L118.037 55.0828L118.03 55.0441V55.0015L118.037 54.9558L118.044 54.9098L118.055 54.8602L118.086 54.7578L118.129 54.6518L118.182 54.5389L118.242 54.4259L118.309 54.3092L118.447 54.0832L118.517 53.9739L118.584 53.8679L118.648 53.7655L118.708 53.6736L118.757 53.5926L118.796 53.5183L118.81 53.4899L118.824 53.4583L118.842 53.4193L118.856 53.3806L118.874 53.3346L118.892 53.2853L118.93 53.1793L118.973 53.0663L119.015 52.9463L119.107 52.6953L119.153 52.5753L119.199 52.4587L119.245 52.353L119.269 52.3034L119.291 52.2577L119.315 52.2151L119.337 52.1763L119.358 52.1447L119.379 52.1163L119.4 52.0914L119.418 52.0704L119.439 52.0597L119.457 52.0527L119.326 52.0634ZM117.747 58.6214L117.705 58.8121L117.67 59.0028L117.638 59.197L117.61 59.3913L117.589 59.5855L117.571 59.7797L117.564 59.974V60.1965L117.567 60.2317L117.578 60.3095L117.589 60.3978L117.603 60.4931L117.617 60.5955L117.627 60.6979L117.634 60.8039L117.638 60.9063V61.0016L117.624 61.0899L117.603 61.1676L117.589 61.1994L117.571 61.2277L117.55 61.2559L117.525 61.2771L117.497 61.2912L117.461 61.3018L117.426 61.3089H117.384L117.338 61.3018L117.288 61.2877L117.214 61.2594L117.147 61.2206L117.094 61.1711L117.048 61.1182L117.009 61.0547L116.981 60.9875L116.963 60.9133L116.949 60.8357L116.942 60.7509V60.6626L116.949 60.5708L116.963 60.4754L116.981 60.3766L117.002 60.2777L117.027 60.1753L117.059 60.0728L117.126 59.868L117.207 59.6632L117.292 59.469L117.377 59.2853L117.419 59.2006L117.461 59.1194L117.504 59.0416L117.543 58.971L117.578 58.9075L117.613 58.8509L117.642 58.8015L117.67 58.7591L117.747 58.6214ZM119.185 54.6555L119.238 54.6661L119.291 54.6802L119.351 54.7015L119.411 54.7261L119.471 54.7544L119.531 54.7861L119.587 54.8215L119.64 54.8602L119.686 54.9061L119.729 54.9521L119.76 54.9981L119.785 55.0508L119.799 55.1041L119.803 55.1605L119.799 55.1888L119.792 55.2171L119.782 55.2488L119.767 55.2771L119.739 55.3264L119.714 55.3654L119.686 55.4041L119.661 55.4358L119.633 55.4607L119.605 55.4854L119.577 55.5031L119.552 55.5171L119.496 55.5384L119.442 55.5491L119.386 55.5524H119.333L119.284 55.5491L119.231 55.5524L119.181 55.5594L119.135 55.5737L119.111 55.5844L119.089 55.602L119.068 55.6194L119.047 55.6444L119.026 55.6691L119.008 55.7007L118.987 55.7397L118.969 55.7821L118.973 55.7254V55.662L118.969 55.5914L118.966 55.5135L118.959 55.4324L118.955 55.3477L118.952 55.2628V55.1781L118.955 55.0968L118.962 55.0121L118.976 54.9378L119.001 54.8638L119.029 54.8002L119.072 54.7402L119.121 54.6942L119.185 54.6555ZM126.092 56.3611L125.916 56.3787L125.739 56.4037L125.559 56.4317L125.383 56.4637L125.026 56.5343L124.669 56.619L124.313 56.7073L123.963 56.8026L123.617 56.898L123.274 56.9897L123.292 56.8697L123.313 56.7497L123.341 56.6296L123.412 56.3894L123.454 56.2694L123.543 56.0293L123.642 55.7927L123.744 55.5561L123.846 55.3264L123.942 55.1004L124.157 54.5989L124.387 54.1009L124.627 53.6102L124.881 53.1226L124.931 53.031L124.987 52.932L125.044 52.826L125.104 52.713L125.16 52.6L125.213 52.4836L125.256 52.3704L125.291 52.2577L125.301 52.201L125.312 52.1447L125.319 52.0421L125.316 51.9927L125.309 51.9433L125.294 51.8974L125.277 51.855L125.252 51.8161L125.22 51.7774L125.185 51.742L125.139 51.7101L125.09 51.682L125.03 51.6571L124.966 51.6394L124.892 51.6218L124.853 51.6184L124.807 51.6148H124.761L124.705 51.6184L124.648 51.6254L124.588 51.6361L124.457 51.6607L124.316 51.6961L124.171 51.7384L124.023 51.7878L123.875 51.8444L123.73 51.9078L123.592 51.975L123.465 52.0457L123.405 52.081L123.348 52.1197L123.299 52.155L123.249 52.194L123.207 52.2327L123.172 52.2717L123.14 52.3104L123.115 52.3493L123.098 52.3883L123.087 52.427L123.136 52.434L123.186 52.4377L123.235 52.434L123.285 52.427L123.338 52.4164L123.387 52.4023L123.493 52.367L123.599 52.321L123.705 52.2647L123.917 52.1447L124.023 52.081L124.125 52.0244L124.228 51.9714L124.327 51.9291L124.426 51.8937L124.471 51.8833L124.517 51.8761L124.563 51.8691L124.652 51.8761L124.694 51.8867L124.733 51.9044L124.765 51.9257L124.789 51.9504L124.811 51.982L124.825 52.0174L124.835 52.0597L124.839 52.1021V52.1517L124.835 52.201L124.828 52.254L124.814 52.3104L124.8 52.3704L124.761 52.494L124.712 52.6213L124.659 52.752L124.539 53.0063L124.422 53.2393L124.369 53.3382L124.348 53.3842L124.327 53.4266L124.309 53.4653L124.295 53.4972L124.122 53.9175L123.956 54.3446L123.627 55.2064L123.458 55.6337L123.281 56.061L123.098 56.4813L122.903 56.891L122.879 56.9369L122.854 56.9897L122.797 57.0922L122.769 57.1417L122.737 57.1876L122.706 57.23L122.674 57.2653L122.638 57.2935L122.603 57.3112L122.564 57.3182L122.529 57.3147L122.508 57.3076L122.49 57.297L122.469 57.2829L122.451 57.2653L122.43 57.2441L122.412 57.2158L122.391 57.184L122.37 57.1487L122.342 57.0922L122.324 57.0427L122.317 57.0003V56.9616L122.324 56.9263L122.338 56.8943L122.356 56.8626L122.409 56.8097L122.441 56.785L122.511 56.7356L122.589 56.679L122.628 56.6473L122.663 56.612L122.713 56.559L122.759 56.506L122.797 56.4566L122.829 56.407L122.857 56.3611L122.882 56.3153L122.9 56.2694L122.914 56.2234L122.925 56.181L122.932 56.1351V56.0504L122.925 55.9657L122.907 55.8808L122.882 55.7997L122.854 55.7114L122.826 55.6267L122.797 55.5348L122.769 55.4394L122.748 55.3441L122.734 55.2381L122.73 55.1288L122.734 55.0934L122.737 55.0508L122.741 55.0085L122.748 54.9628L122.769 54.8602L122.794 54.7438L122.819 54.6238L122.847 54.4965L122.872 54.3659L122.896 54.2352L122.917 54.1045L122.932 53.9775L122.939 53.8539V53.7409L122.925 53.6349L122.914 53.5853L122.9 53.5429L122.882 53.5006L122.861 53.4653L122.836 53.4299L122.808 53.4016L122.776 53.377L122.72 53.3416L122.695 53.3312L122.642 53.3169L122.596 53.3136L122.55 53.324L122.511 53.3416L122.473 53.3666L122.434 53.3983L122.359 53.4725L122.289 53.5502L122.25 53.5853L122.211 53.6172L122.169 53.6455L122.123 53.6629L122.088 53.6702L122.049 53.6736H122.006L121.957 53.6666L121.851 53.6489L121.742 53.6206L121.632 53.5889L121.579 53.5676L121.53 53.5502L121.484 53.5325L121.445 53.5112L121.41 53.4972L121.381 53.4793L121.431 53.4053L121.484 53.3312L121.544 53.2536L121.611 53.1756L121.756 53.0167L121.915 52.865L122.077 52.713L122.243 52.5753L122.321 52.5117L122.402 52.4517L122.476 52.3953L122.55 52.3423L122.589 52.321L122.631 52.3L122.723 52.261L122.819 52.2223L122.864 52.201L122.907 52.1763L122.942 52.1517L122.974 52.1197L123.002 52.088L123.016 52.0491L123.023 52.0033V51.9504L123.006 51.8937L122.995 51.862L122.978 51.8267L122.96 51.795L122.942 51.7667L122.925 51.742L122.907 51.7207L122.875 51.689L122.84 51.6677L122.808 51.6607H122.776L122.744 51.6677L122.713 51.6854L122.684 51.7067L122.653 51.7314L122.6 51.7914L122.547 51.8478L122.522 51.8761L122.497 51.8974L122.363 52.0244L122.225 52.1623L122.091 52.3L121.953 52.4447L121.678 52.7307L121.544 52.8686L121.406 53.0026L121.339 53.0663L121.283 53.1156L121.233 53.158L121.191 53.1899L121.152 53.211L121.117 53.2253L121.085 53.2356H121.021L120.986 53.2323L120.947 53.2253L120.901 53.2146L120.852 53.2076L120.792 53.2003L120.721 53.1969L120.64 53.1933L120.537 53.1969L120.442 53.2146L120.35 53.2393L120.265 53.2782L120.223 53.3029L120.188 53.3312L120.152 53.3629L120.121 53.3983L120.092 53.437L120.068 53.4793L120.043 53.5253L120.025 53.5783L120.096 53.5959L120.17 53.6102L120.325 53.6383L120.481 53.6666L120.559 53.6842L120.629 53.7089L120.601 53.7513L120.566 53.7939L120.491 53.8715L120.407 53.9419L120.325 54.0128L120.251 54.0869L120.216 54.1292L120.188 54.1682L120.166 54.2105L120.149 54.2565L120.138 54.3058L120.135 54.3588L120.198 54.3482L120.258 54.3305L120.315 54.3092L120.364 54.2812L120.414 54.2492L120.46 54.2139L120.548 54.1362L120.633 54.0586L120.721 53.9809L120.767 53.9456L120.813 53.9139L120.862 53.8856L120.915 53.8609L120.951 53.8502L120.989 53.8396L121.035 53.8362L121.081 53.8326L121.18 53.8362L121.283 53.8469L121.385 53.8643L121.484 53.8856L121.533 53.8996L121.576 53.9102L121.615 53.9245L121.65 53.9352L121.632 54.0162L121.604 54.1009L121.569 54.1858L121.523 54.2705L121.473 54.3588L121.417 54.4472L121.357 54.5355L121.155 54.7895L121.085 54.8708L121.014 54.9485L120.947 55.0228L120.82 55.1568L120.76 55.2171L120.718 55.1745L120.672 55.1428L120.626 55.1217L120.58 55.1145H120.53L120.484 55.1251L120.431 55.1464L120.382 55.1745L120.333 55.2098L120.28 55.2521L120.227 55.3018L120.177 55.3548L120.124 55.4148L120.071 55.4784L120.018 55.5454L119.969 55.6161L119.866 55.7608L119.767 55.9127L119.672 56.061L119.584 56.2057L119.541 56.273L119.499 56.3364L119.46 56.3964L119.421 56.4494L119.386 56.499L119.354 56.5413L119.322 56.5767L119.294 56.605L119.248 56.5696L119.206 56.5377L119.167 56.5096L119.128 56.4883L119.054 56.4494L118.987 56.4211L118.93 56.407L118.877 56.4037L118.832 56.4107L118.793 56.4283L118.757 56.4494L118.733 56.4813L118.711 56.52L118.694 56.5624L118.683 56.6083L118.68 56.6613V56.7143L118.683 56.771L118.694 56.831L118.708 56.8873L118.726 56.9473L118.75 57.004L118.775 57.0569L118.807 57.1099L118.842 57.1557L118.881 57.1982L118.923 57.237L118.966 57.2688L119.015 57.29L119.065 57.3041L119.118 57.3112L119.174 57.3076L119.234 57.2935L119.294 57.2653L119.34 57.237L119.382 57.2087L119.425 57.1699L119.464 57.1311L119.503 57.0887L119.541 57.0427L119.612 56.9403L119.676 56.8273L119.736 56.7073L119.796 56.5767L119.849 56.446L119.951 56.181L120.001 56.0467L120.05 55.9234L120.103 55.8031L120.152 55.6901L120.23 55.5454L120.258 55.5031L120.294 55.5171L120.325 55.5277L120.354 55.5454L120.378 55.5594L120.417 55.5984L120.442 55.6371L120.456 55.6831L120.463 55.7324L120.456 55.7854L120.442 55.8421L120.417 55.8984L120.385 55.9621L120.35 56.0257L120.308 56.0927L120.258 56.1634L120.209 56.2307L120.096 56.3753L119.983 56.5237L119.87 56.6683L119.817 56.7426L119.764 56.8133L119.718 56.8837L119.676 56.9546L119.64 57.0216L119.612 57.0887L119.591 57.1487L119.577 57.2123L119.573 57.2688L119.58 57.3218L119.598 57.3747L119.626 57.4207L119.725 57.3677L119.817 57.3076L119.898 57.2335L119.976 57.1557L120.046 57.071L120.11 56.9793L120.174 56.8837L120.234 56.785L120.35 56.5873L120.414 56.492L120.474 56.4L120.541 56.3117L120.612 56.227L120.689 56.153L120.774 56.0857L120.855 56.167L120.929 56.2553L121.004 56.354L121.071 56.4566L121.198 56.665L121.258 56.7673L121.314 56.8663L121.219 56.891L121.12 56.905L120.922 56.9263L120.82 56.9369L120.721 56.9546L120.622 56.9756L120.576 56.9933L120.527 57.011L120.576 57.025L120.626 57.0323L120.732 57.0427H120.838L121.049 57.0356H121.152L121.251 57.0463L121.3 57.0533L121.346 57.0676L121.396 57.0852L121.442 57.1063L121.526 57.1523L121.604 57.2017L121.643 57.2264L121.682 57.2441L121.717 57.2618L121.756 57.2759L121.798 57.2794H121.84L121.886 57.2723L121.936 57.2547L121.989 57.2264L122.045 57.1876L122.066 57.2158L122.084 57.2441L122.091 57.2723L122.095 57.297L122.091 57.3218L122.084 57.3465L122.049 57.3959L122.021 57.4171L121.992 57.4419L121.953 57.463L121.915 57.4842L121.869 57.5054L121.819 57.5266L121.766 57.5513L121.71 57.5725L121.583 57.6149L121.445 57.6643L121.293 57.7102L121.131 57.7632L120.961 57.8198L120.785 57.8798L120.601 57.9433L120.414 58.0139L120.322 58.0493L120.227 58.0882L120.128 58.1269L120.025 58.1658L119.81 58.2471L119.58 58.3283L119.347 58.4059L119.111 58.4836L118.87 58.5578L118.637 58.6214L118.623 58.4236L118.609 58.2329L118.595 58.0493L118.577 57.8762L118.56 57.7067L118.542 57.5442L118.524 57.3924L118.507 57.2441L118.485 57.1028L118.468 56.9723L118.447 56.845L118.425 56.725L118.408 56.612L118.387 56.506L118.369 56.4037L118.348 56.3117L118.33 56.2234L118.312 56.1423L118.295 56.068L118.277 55.9974L118.263 55.9338L118.245 55.8774L118.231 55.8244L118.217 55.7821L118.206 55.7397L118.196 55.7044L118.185 55.6761L118.178 55.6548L118.171 55.6371L118.168 55.6231L118.164 55.6161V55.6124L118.139 55.6301L118.115 55.6548L118.093 55.6867L118.076 55.722L118.058 55.768L118.044 55.8174L118.03 55.8704L118.019 55.9304L118.012 55.994L118.005 56.061L117.998 56.2057L117.995 56.3611V56.5237L118.002 56.8486L118.009 57.0073L118.016 57.1593L118.019 57.23L118.023 57.297L118.026 57.3571V57.4171L118.03 57.4701V57.5654L118.026 57.6008L118.023 57.6749L118.026 57.7455L118.037 57.8798L118.055 58.0033L118.083 58.1234L118.115 58.2435L118.143 58.3636L118.171 58.4907L118.192 58.6285L118.196 58.6814L118.192 58.7344L118.185 58.7909L118.178 58.8438L118.16 58.9533L118.153 59.0064L118.15 59.0558L118.153 59.1052L118.16 59.1476L118.175 59.19L118.203 59.2288L118.238 59.2606L118.284 59.2889L118.312 59.2995L118.344 59.31L118.383 59.3171L118.422 59.3241L118.464 59.3277H118.507L118.552 59.3206L118.605 59.31L118.655 59.2995L118.711 59.2818L118.824 59.2394L118.948 59.1829L119.075 59.1194L119.202 59.0487L119.333 58.9745L119.464 58.8933L119.591 58.8156L119.714 58.7344L119.835 58.6602L119.944 58.5896L120.046 58.5225L120.138 58.4695L120.177 58.4448L120.216 58.4236L120.435 58.3106L120.657 58.2011L120.887 58.0951L121.12 57.9927L121.357 57.8974L121.597 57.8056L121.84 57.7208L122.084 57.6431L122.098 57.7526L122.116 57.8515L122.134 57.9398L122.158 58.0175L122.183 58.0811L122.211 58.1305L122.239 58.1694L122.275 58.1941L122.314 58.2046L122.331 58.2082L122.352 58.2046L122.374 58.1976L122.398 58.187L122.419 58.1729L122.444 58.1552L122.473 58.134L122.497 58.1093L122.525 58.0811L122.554 58.0493L122.582 58.0139L122.645 57.9292L122.677 57.8798L122.734 57.795L122.79 57.7208L122.843 57.6537L122.893 57.5902L122.946 57.5372L122.999 57.4878L123.052 57.4454L123.105 57.4065L123.165 57.3712L123.228 57.3359L123.292 57.3041L123.366 57.2759L123.444 57.2441L123.528 57.2158L123.62 57.184L124.065 57.0463L124.404 56.9473L124.747 56.8556L124.92 56.8167L125.093 56.778L125.167 56.7603L125.248 56.7426L125.33 56.7213L125.418 56.7003L125.602 56.658L125.792 56.6154L125.979 56.58L126.071 56.566L126.159 56.5554L126.244 56.552L126.329 56.5483L126.407 56.5554L126.477 56.566L126.46 56.6296L126.435 56.6933L126.407 56.7533L126.368 56.8133L126.325 56.8697L126.28 56.9227L126.227 56.9793L126.17 57.0286L126.11 57.078L126.047 57.1275L125.909 57.2194L125.761 57.3041L125.602 57.3853L125.439 57.4595L125.273 57.5266L125.107 57.5902L124.945 57.6466L124.789 57.6997L124.641 57.7491L124.57 57.7703L124.507 57.7915L124.443 57.8126L124.383 57.8304L124.079 57.9292L123.772 58.0245L123.161 58.2117L122.857 58.3071L122.25 58.5119L121.893 58.6461L121.837 58.6708L121.773 58.6991L121.706 58.7273L121.562 58.7909L121.41 58.8615L121.247 58.9427L121.085 59.031L120.919 59.1228L120.756 59.2217L120.601 59.3277L120.453 59.4372L120.385 59.4937L120.318 59.5502L120.255 59.6067L120.195 59.6667L120.142 59.7268L120.092 59.7868L120.05 59.8469L120.011 59.9069L119.979 59.9669L119.955 60.0304L119.933 60.0905L119.923 60.154L119.916 60.2494L119.923 60.3306L119.94 60.3978L119.969 60.4578L120.008 60.5037L120.057 60.5425L120.114 60.5708L120.181 60.5885L120.251 60.599L120.333 60.6026L120.417 60.599L120.506 60.5885L120.601 60.5743L120.7 60.5531L120.799 60.5284L120.901 60.5002L121.113 60.4331L121.321 60.3554L121.526 60.2777L121.625 60.2388L121.72 60.2035L121.809 60.1646L121.893 60.1328L121.975 60.1011L122.045 60.0764L122.112 60.0516L122.169 60.034L122.218 60.0234L122.257 60.0163L122.204 60.0976L122.144 60.1788L122.017 60.3342L121.879 60.4825L121.738 60.6308L121.6 60.7791L121.466 60.9345L121.403 61.0122L121.346 61.0935L121.29 61.1782L121.24 61.2665L121.208 61.33L121.187 61.383L121.17 61.429L121.155 61.4713L121.148 61.5032L121.138 61.5349L121.131 61.5596L121.124 61.5808L121.109 61.602L121.092 61.6232L121.071 61.6408L121.039 61.6585L121 61.6797L120.947 61.7009L120.884 61.7291L120.848 61.7432L120.806 61.7574L120.375 61.9128L120.159 61.9869L119.944 62.0681L119.729 62.16L119.52 62.2518L118.478 62.7462L118.266 62.838L118.182 62.8769L118.097 62.9157L117.917 63.0075L117.733 63.1064L117.546 63.2088L117.359 63.3042L117.267 63.3501L117.172 63.3889L117.08 63.4278L116.992 63.4595L116.903 63.4878L116.815 63.509L116.769 63.5161H116.716L116.663 63.5126L116.603 63.5055L116.483 63.4878L116.363 63.4737L116.307 63.4701L116.254 63.4737L116.204 63.4807L116.158 63.4949L116.119 63.5161L116.088 63.5478L116.066 63.5903L116.052 63.6432V63.6785L116.063 63.7174L116.077 63.7597L116.102 63.8057L116.13 63.8516L116.162 63.9011L116.201 63.9505L116.239 63.9999L116.324 64.0988L116.405 64.1871L116.441 64.2259L116.476 64.2613L116.504 64.2931L116.529 64.3177L116.61 64.406L116.692 64.4802L116.773 64.5438L116.854 64.5967L116.932 64.6356L117.013 64.6673L117.091 64.685L117.172 64.6991H117.257L117.341 64.6956L117.43 64.6815L117.521 64.6603L117.613 64.6321L117.712 64.6002L117.814 64.5579L117.92 64.5155L118.143 64.4131L118.358 64.3036L118.567 64.1871L118.976 63.9328L119.379 63.6715L119.584 63.5409L119.658 63.4949L119.739 63.449L119.827 63.396L119.919 63.3431L120.018 63.2901L120.121 63.2336L120.336 63.1241L120.559 63.0216L120.668 62.9722L120.778 62.9263L120.887 62.8875L120.993 62.8522L121.095 62.8239L121.191 62.7992L121.233 63.0747L121.268 63.3537L121.318 63.9328L121.339 64.2224L121.36 64.5084L121.385 64.791L121.413 65.0664L121.431 65.2218L121.445 65.3701L121.456 65.5114L121.459 65.6421V65.7656L121.449 65.8787L121.427 65.9811L121.399 66.0764L121.378 66.1188L121.353 66.1577L121.325 66.1965L121.297 66.2283L121.261 66.2601L121.223 66.2884L121.131 66.3378L121.078 66.3554L121.021 66.3731L120.958 66.3837L120.891 66.3943L120.82 66.4014H120.657L120.566 66.3979L120.449 66.3872L120.336 66.3731L120.103 66.3307L119.873 66.2742L119.647 66.2107L119.421 66.1365L119.199 66.0553L118.98 65.974L118.764 65.8928L118.666 65.8505L118.56 65.8045L118.454 65.755L118.344 65.6986L118.125 65.5855L117.899 65.4655L117.677 65.3525L117.564 65.303L117.458 65.2536L117.352 65.2112L117.25 65.1724L117.147 65.1406L117.052 65.1195L117.066 65.1689L117.087 65.2183L117.112 65.2677L117.182 65.3666L117.228 65.4196L117.274 65.469L117.327 65.522L117.384 65.5715L117.444 65.6244L117.574 65.7268L117.716 65.8257L117.864 65.9211L118.016 66.0164L118.168 66.1047L118.319 66.1859L118.468 66.2636L118.605 66.3342L118.733 66.3943L118.789 66.4225L118.846 66.4473L118.895 66.4685L118.941 66.4897L119.068 66.5426L119.199 66.592L119.471 66.691L119.75 66.7793L120.036 66.8605L120.322 66.9382L120.608 67.0052L120.891 67.0653L121.166 67.1147L121.283 67.1324L121.389 67.1395L121.484 67.143L121.576 67.1395L121.657 67.1324L121.731 67.1183L121.795 67.097L121.855 67.0723L121.908 67.0406L121.953 67.0052L121.996 66.9664L122.028 66.9205L122.059 66.8711L122.084 66.8181L122.102 66.7651L122.116 66.705L122.126 66.6415L122.134 66.5744L122.137 66.4331L122.13 66.2848L122.112 66.1294L122.091 65.9634L122.063 65.7974L122.035 65.628L122.01 65.4584L121.96 65.1159L121.904 64.7698L121.851 64.4237L121.798 64.0741L121.756 63.7245L121.738 63.5514L121.724 63.3749L121.713 63.2018L121.706 63.0252L121.703 62.8522L121.706 62.6756L121.826 62.6367L121.953 62.5908L122.088 62.5379L122.222 62.4813L122.504 62.3613L122.645 62.3048L122.79 62.2482L122.932 62.1953L123.073 62.1494L123.214 62.1141L123.352 62.0858L123.483 62.0681L123.55 62.0647H123.613L123.677 62.0717L123.737 62.0787L123.797 62.0893L123.853 62.107L123.892 62.1211L123.938 62.1353L123.984 62.1529L124.037 62.1705L124.094 62.1882L124.154 62.2094L124.277 62.2482L124.411 62.2871L124.549 62.3189L124.687 62.3437L124.754 62.3506L124.888 62.3578L124.952 62.3542L125.012 62.3472L125.068 62.3331L125.125 62.3154L125.174 62.2942L125.22 62.266L125.263 62.2306L125.298 62.1882L125.33 62.1423L125.358 62.0858L125.376 62.0223L125.386 61.9481L125.393 61.8669L125.39 61.7786L125.379 61.6797L125.361 61.5808L125.34 61.489L125.316 61.4043L125.284 61.33L125.252 61.263L125.217 61.1994L125.174 61.1465L125.132 61.1005L125.086 61.0581L125.04 61.0228L124.987 60.991L124.934 60.9664L124.821 60.931L124.761 60.9204L124.701 60.9133L124.577 60.9063L124.447 60.9133L124.316 60.9275L124.185 60.9487L123.924 60.9981L123.8 61.0193L123.68 61.037L123.613 61.0475L123.55 61.0547L123.493 61.0616L123.44 61.0687L123.341 61.0864L123.292 61.097L123.239 61.1076L123.179 61.1217L123.115 61.1393L123.045 61.1571L122.963 61.1782L122.872 61.2065L122.766 61.2347L122.709 61.2489L122.645 61.2665L122.582 61.2841L122.511 61.3054L122.388 61.3406L122.271 61.376L122.031 61.4501L121.911 61.489L121.78 61.5349L121.646 61.5808L121.498 61.6338L121.505 61.5702L121.523 61.5067L121.547 61.4501L121.586 61.3972L121.629 61.3477L121.682 61.2983L121.742 61.2559L121.805 61.21L121.876 61.1711L121.953 61.1288L122.031 61.0935L122.112 61.0547L122.282 60.9804L122.621 60.8251L122.776 60.7403L122.847 60.6944L122.914 60.645L122.978 60.5955L123.03 60.5425L123.08 60.4825L123.119 60.4224L123.151 60.3554L123.172 60.2848L123.179 60.2071V60.1294L123.165 60.041L123.14 59.9492L123.108 59.868L123.069 59.7974L123.023 59.7338L122.974 59.6808L122.917 59.6385L122.857 59.6031L122.794 59.5749L122.723 59.5573L122.653 59.5431L122.575 59.5361H122.497L122.416 59.5396L122.331 59.5467L122.246 59.5608L122.158 59.5784L122.07 59.5961L121.89 59.642L121.71 59.6949L121.533 59.7515L121.357 59.8009L121.191 59.8469L121.113 59.868L121.035 59.8821L120.965 59.8963L120.894 59.9033L120.827 59.9069L120.767 59.9033L120.915 59.7868L121.064 59.6738L121.208 59.5678L121.353 59.4655L121.643 59.2747L121.788 59.1864L122.084 59.0239L122.236 58.9463L122.391 58.8756L122.554 58.8086L122.72 58.7414L122.889 58.6814L123.066 58.6214L123.249 58.5684L123.574 58.473L123.899 58.3707L124.224 58.2577L124.542 58.1376L124.856 58.0069L125.167 57.8692L125.471 57.7173L125.768 57.5548L125.831 57.5231L125.902 57.4842L125.979 57.4489L126.064 57.4065L126.248 57.3218L126.431 57.2264L126.608 57.1205L126.689 57.0676L126.763 57.011L126.83 56.951L126.887 56.891L126.933 56.831L126.95 56.799L126.965 56.7673L126.982 56.7213L126.993 56.6756L126.996 56.6367L127 56.5977L126.996 56.566L126.986 56.5343L126.975 56.506L126.958 56.4777L126.94 56.4566L126.919 56.4353L126.862 56.4L126.799 56.3753L126.724 56.3577L126.647 56.3434L126.565 56.3364H126.392L126.311 56.3434L126.23 56.347L126.159 56.354L126.092 56.3611ZM121.099 55.6407L121.081 55.5914L121.074 55.5348L121.081 55.4784L121.099 55.4148L121.124 55.3477L121.155 55.2805L121.194 55.2098L121.24 55.1428L121.29 55.0758L121.339 55.0121L121.396 54.9485L121.449 54.8921L121.505 54.8391L121.558 54.7932L121.611 54.7544L121.657 54.7225L121.667 54.9485L121.685 55.1711L121.706 55.3901L121.731 55.6054L121.788 56.0397L121.816 56.2587L121.84 56.4813L121.745 56.3894L121.646 56.2907L121.54 56.1881L121.438 56.0821L121.339 55.9727L121.247 55.8634L121.205 55.8067L121.166 55.7537L121.131 55.6971L121.099 55.6407ZM122.081 55.8704L122.059 55.7148L122.035 55.5594L122.006 55.4007L121.982 55.2418L121.964 55.0828L121.957 54.9274V54.8461L121.96 54.7685L121.968 54.6872L121.978 54.6095L121.985 54.6978V54.6378L121.992 54.5742L122.003 54.5105L122.021 54.4435L122.045 54.3765L122.07 54.3129L122.102 54.2458L122.137 54.1822L122.176 54.1222L122.218 54.0656L122.264 54.0128L122.314 53.9632L122.363 53.9209L122.416 53.8856L122.469 53.8572L122.522 53.8362L122.543 53.8996L122.557 53.9702L122.564 54.0409V54.1152L122.557 54.1929L122.547 54.2742L122.533 54.3518L122.518 54.4329L122.479 54.5955L122.441 54.7578L122.427 54.8355L122.412 54.9132L122.402 54.9875L122.398 55.0581L122.402 55.1288L122.409 55.2028L122.444 55.3511L122.49 55.5031L122.54 55.6514L122.564 55.7254L122.585 55.7961L122.603 55.8667L122.614 55.9338L122.617 56.001V56.0647L122.607 56.1247L122.585 56.181L122.561 56.2377L122.533 56.2834L122.508 56.326L122.483 56.3611L122.462 56.3894L122.437 56.4107L122.416 56.4283L122.395 56.4424L122.374 56.4494H122.331L122.314 56.4424L122.296 56.4317L122.278 56.4177L122.243 56.3824L122.211 56.333L122.183 56.2764L122.158 56.213L122.137 56.1457L122.102 56.0044L122.091 55.9338L122.081 55.8704Z" fill="#0E419C"/>
<path fill-rule="evenodd" clip-rule="evenodd" d="M71.3235 72.9704H72.6257C72.9034 72.9349 73.0423 73.1259 73.0423 73.5426H73.2766V72.6049H69.9169V72.8393H69.9956C70.2902 72.8227 70.4292 73.0137 70.4125 73.4126V76.0947C70.4292 76.3725 70.299 76.5024 70.0213 76.4858H69.9169V76.7458H71.8968V76.4858H71.7656C71.4368 76.5203 71.289 76.3292 71.3235 75.9125V74.8448H72.3657C72.6945 74.827 72.8511 74.9836 72.8335 75.3137H73.0945V73.9859H72.8335C72.8691 74.3326 72.6779 74.4893 72.2612 74.4537H71.3235V72.9704ZM76.4805 76.7713H76.6104L77.678 76.5636V76.3547C77.6081 76.3725 77.5481 76.3814 77.4959 76.3814C77.3392 76.4158 77.2704 76.2858 77.287 75.9903V73.9593H77.1569L75.9337 74.1937V74.3503L76.2459 74.4537C76.4192 74.4893 76.4971 74.6192 76.4805 74.8448V76.0425C76.1849 76.2158 75.9594 76.3036 75.8025 76.3036C75.5248 76.2858 75.3781 76.0692 75.3604 75.6525V73.9593H75.2305L74.2671 74.1937V74.3503L74.4227 74.4281C74.5271 74.4459 74.5705 74.567 74.5528 74.7926V75.9125C74.5705 76.4681 74.8139 76.7547 75.2827 76.7713C75.5425 76.7891 75.9415 76.6247 76.4805 76.2769V76.7713ZM80.7507 76.7713H80.9073L82.0274 76.5369V76.3292C81.9396 76.3469 81.8707 76.3547 81.8185 76.3547C81.6273 76.3902 81.5406 76.2247 81.5585 75.8603V72.2927H81.3239L80.3085 72.6315V72.7871C80.6208 72.8227 80.7683 72.9526 80.7507 73.1782V74.037C80.5595 73.9859 80.3608 73.9593 80.1519 73.9593C79.1973 74.0115 78.6762 74.5415 78.5897 75.5481C78.624 76.3292 78.9796 76.7369 79.6573 76.7713C79.9872 76.7713 80.3519 76.6069 80.7507 76.2769V76.7713ZM80.7507 75.9903C80.5595 76.1992 80.3608 76.3114 80.1519 76.3292C79.683 76.2769 79.4319 75.9036 79.3963 75.2092C79.4139 74.567 79.6485 74.237 80.0994 74.2204C80.2906 74.2026 80.5073 74.2981 80.7507 74.5059V75.9903ZM85.5164 76.2514C85.4642 76.3036 85.4032 76.3292 85.3343 76.3292C85.2476 76.3469 85.2045 76.2425 85.2045 76.0169V74.767C85.1689 74.2981 84.8042 74.0293 84.1098 73.9593C83.6244 73.9937 83.2599 74.1248 83.0165 74.3503C82.8433 74.5059 82.7911 74.7236 82.8599 75.0015L83.6155 74.7403C83.581 74.4103 83.6932 74.237 83.9543 74.2204C84.2143 74.237 84.3532 74.3848 84.3712 74.6626V74.9225C84.1966 75.0615 83.9366 75.1836 83.5901 75.287C83.3121 75.3748 83.1209 75.4703 83.0165 75.5737C82.8778 75.7125 82.8077 75.8948 82.8077 76.1203C82.8256 76.5369 83.0778 76.7547 83.5633 76.7713C83.8755 76.7891 84.1532 76.668 84.3966 76.4069C84.4309 76.6325 84.5875 76.7547 84.8655 76.7713C85.1432 76.7547 85.3954 76.6325 85.6209 76.4069L85.5164 76.2514ZM84.3712 76.1725C84.1966 76.3469 84.0498 76.4336 83.9278 76.4336C83.7199 76.4158 83.6067 76.2681 83.5901 75.9903C83.5722 75.7303 83.72 75.5392 84.0322 75.4181C84.1888 75.3481 84.301 75.2792 84.3712 75.2092V76.1725ZM89.4746 75.1048C89.4913 74.3237 89.2567 73.9426 88.7712 73.9593C88.4413 73.9593 88.0247 74.1326 87.5213 74.4804V73.8815H87.4168L86.2713 74.2715V74.4281L86.4014 74.4537C86.6269 74.5237 86.7313 74.6281 86.7137 74.767V76.0692C86.7313 76.398 86.6092 76.5547 86.3492 76.5369H86.297V76.7458H87.9901V76.5369H87.9379C87.6602 76.5369 87.5213 76.3902 87.5213 76.0947V74.7403C87.7992 74.5492 88.0423 74.4537 88.2501 74.4537C88.5102 74.437 88.6413 74.6881 88.6413 75.2092V75.7826C88.658 76.2858 88.5369 76.5369 88.2758 76.5369V76.7458H89.8391V76.5369C89.5778 76.5547 89.4567 76.4247 89.4746 76.1469V75.1048ZM95.5675 72.866H95.6722C96.0533 72.8482 96.2354 73.0738 96.2187 73.5426V75.1569C96.2011 75.9558 95.7675 76.3636 94.9166 76.3814C94.1355 76.3636 93.7355 75.9992 93.7188 75.287V73.3082C93.7188 73.0137 93.8744 72.866 94.1877 72.866H94.2911V72.6049H92.2078V72.866H92.339C92.6689 72.8482 92.8245 72.996 92.8079 73.3082V75.287C92.8245 76.2769 93.4754 76.7803 94.7599 76.798C95.9933 76.7803 96.6177 76.2081 96.6354 75.0792V73.4126C96.6177 73.0304 96.8177 72.8482 97.2341 72.866H97.2863V72.6049H95.5675V72.866ZM101.062 75.1048C101.079 74.3237 100.845 73.9426 100.359 73.9593C100.029 73.9593 99.6122 74.1326 99.1091 74.4804V73.8815H99.0046L97.8591 74.2715V74.4281L97.989 74.4537C98.2147 74.5237 98.3191 74.6281 98.3012 74.767V76.0692C98.3191 76.398 98.1968 76.5547 97.9368 76.5369H97.8846V76.7458H99.5779V76.5369H99.5257C99.248 76.5369 99.1091 76.3902 99.1091 76.0947V74.7403C99.3868 74.5492 99.6301 74.4537 99.838 74.4537C100.098 74.437 100.229 74.6881 100.229 75.2092V75.7826C100.246 76.2858 100.124 76.5369 99.8634 76.5369V76.7458H101.427V76.5369C101.166 76.5547 101.045 76.4247 101.062 76.1469V75.1048ZM103.77 76.5369C103.493 76.5203 103.354 76.3814 103.354 76.1203V73.8815H103.249L102.104 74.2715V74.4281L102.312 74.5059C102.486 74.5415 102.564 74.637 102.546 74.7926V76.0692C102.564 76.398 102.442 76.5547 102.182 76.5369H102.104V76.7458H103.77V76.5369ZM102.937 72.3704C102.607 72.406 102.425 72.5538 102.391 72.8137C102.425 73.1093 102.607 73.2648 102.937 73.2827C103.249 73.2482 103.423 73.0915 103.458 72.8137C103.441 72.536 103.267 72.3882 102.937 72.3704ZM104.394 74.2459C104.638 74.2459 104.811 74.3848 104.915 74.6626L105.905 76.7458H106.295L107.26 74.637C107.346 74.3759 107.529 74.2459 107.806 74.2459V74.037H106.478V74.2459C106.912 74.2637 107.051 74.437 106.894 74.767L106.374 75.938L105.775 74.6103C105.671 74.3848 105.697 74.2637 105.853 74.2459H106.087V74.037H104.394V74.2459ZM111.034 75.8347C110.722 76.1814 110.453 76.3469 110.228 76.3292C109.777 76.2769 109.507 75.947 109.42 75.3392H111.269V75.1569C111.2 75.1225 111.148 75.027 111.113 74.8703C111.061 74.6103 110.965 74.4103 110.826 74.2715C110.618 74.0637 110.34 73.9593 109.993 73.9593C109.108 74.0293 108.63 74.5237 108.561 75.4436C108.596 76.2947 109.004 76.7369 109.784 76.7713C110.34 76.7547 110.809 76.4858 111.191 75.9647L111.034 75.8347ZM109.394 75.1048C109.377 74.6192 109.533 74.3415 109.863 74.2715C110.158 74.2892 110.315 74.567 110.332 75.1048H109.394ZM113.899 76.5369H113.717C113.404 76.5547 113.257 76.4069 113.274 76.0947V75.0015C113.412 74.7926 113.543 74.697 113.665 74.7148C113.769 74.7148 113.951 74.767 114.211 74.8703C114.35 74.6803 114.455 74.4459 114.524 74.1682L114.003 73.9859C113.968 73.9682 113.925 73.9593 113.872 73.9593C113.769 73.9593 113.682 74.0026 113.612 74.0892C113.543 74.1592 113.439 74.3415 113.3 74.637H113.274V73.8815H113.144L112.05 74.2981V74.4537L112.233 74.5326C112.406 74.5848 112.484 74.7314 112.467 74.9748V76.0692C112.484 76.398 112.354 76.5547 112.076 76.5369H112.05V76.7458H113.899V76.5369ZM115.331 76.7458H115.513C115.565 76.728 115.608 76.7203 115.643 76.7203C115.661 76.7203 115.704 76.728 115.774 76.7458C115.964 76.7636 116.155 76.7713 116.346 76.7713C116.902 76.7547 117.197 76.4858 117.232 75.9647C117.232 75.6169 116.972 75.3048 116.451 75.027C116.086 74.8192 115.904 74.637 115.904 74.4804C115.921 74.3415 116.025 74.2637 116.216 74.2459C116.512 74.2459 116.719 74.437 116.842 74.8192H117.05V74.0892C116.806 74.0026 116.555 73.9593 116.294 73.9593C115.635 73.9937 115.287 74.2715 115.253 74.7926C115.253 75.1048 115.504 75.4092 116.008 75.7036C116.337 75.9125 116.503 76.0858 116.503 76.2247C116.468 76.4158 116.355 76.5203 116.164 76.5369C115.817 76.5024 115.583 76.3114 115.461 75.9647H115.253L115.331 76.7458ZM119.68 76.5369C119.402 76.5203 119.263 76.3814 119.263 76.1203V73.8815H119.159L118.013 74.2715V74.4281L118.221 74.5059C118.395 74.5415 118.473 74.637 118.455 74.7926V76.0692C118.473 76.398 118.351 76.5547 118.091 76.5369H118.013V76.7458H119.68V76.5369ZM118.847 72.3704C118.517 72.406 118.334 72.5538 118.3 72.8137C118.334 73.1093 118.517 73.2648 118.847 73.2827C119.159 73.2482 119.332 73.0915 119.368 72.8137C119.35 72.536 119.176 72.3882 118.847 72.3704ZM121.606 74.4026H122.387L122.466 74.037H121.606V73.2037H121.424C121.216 73.6726 120.886 74.0115 120.435 74.2204V74.4026H120.799V75.9903C120.799 76.5114 121.05 76.7713 121.553 76.7713C121.954 76.7547 122.275 76.5725 122.518 76.2247L122.414 76.0169C122.24 76.2425 122.075 76.3547 121.919 76.3547C121.71 76.3547 121.606 76.2425 121.606 76.0169V74.4026ZM124.55 76.668L124.419 76.928C124.263 77.2402 124.046 77.4147 123.768 77.4491C123.594 77.4658 123.473 77.5091 123.404 77.5791C123.352 77.6657 123.316 77.7613 123.3 77.8657C123.316 78.1091 123.455 78.2391 123.716 78.2557C123.959 78.2557 124.167 78.0913 124.34 77.7613L125.825 74.767C125.964 74.437 126.155 74.2637 126.398 74.2459V74.037H125.148V74.2459C125.53 74.2637 125.652 74.437 125.513 74.767L124.992 75.7826L124.445 74.637C124.376 74.4981 124.367 74.4026 124.419 74.3503C124.454 74.2804 124.558 74.2459 124.732 74.2459V74.037H123.013V74.2459C123.256 74.2115 123.473 74.4103 123.664 74.8448L124.55 76.668Z" fill="#0E419C"/>
<path d="M27 65.1112C27 64.4093 27 63.7074 27 63.0056C27.0152 62.9512 27.0368 62.898 27.0456 62.8424C27.2006 61.8639 27.2831 60.8672 27.5211 59.9098C28.3388 56.6209 30.1812 53.9702 32.7518 51.8038C34.934 49.9643 37.4403 48.839 40.2676 48.4383C40.7373 48.3716 41.2099 48.3231 41.6807 48.2664C42.4019 48.2664 43.1236 48.2664 43.8448 48.2664C44.3724 48.3313 44.9023 48.3804 45.4269 48.4629C48.9983 49.0255 51.966 50.7065 54.4015 53.3508C56.4931 55.6213 57.8406 58.2621 58.3027 61.3316C58.3834 61.8691 58.4513 62.4084 58.525 62.9471C58.525 63.6489 58.525 64.3508 58.525 65.0527C58.5057 65.1662 58.477 65.2796 58.4688 65.3937C58.377 66.7114 58.1068 67.9923 57.6827 69.2411C56.8259 71.7619 55.3361 73.8646 53.3908 75.6538C51.1653 77.7003 48.5777 79.0327 45.5743 79.5088C45.0573 79.5907 44.5379 79.6585 44.0203 79.7334C43.143 79.7334 42.2656 79.7334 41.3883 79.7334C41.3046 79.7147 41.2216 79.6854 41.1368 79.6778C39.9307 79.5667 38.7534 79.3193 37.6052 78.9339C35.1516 78.1098 33.0811 76.692 31.3054 74.832C29.0413 72.4615 27.6194 69.6704 27.1714 66.4049C27.1117 65.9739 27.0567 65.5422 27 65.1112ZM42.8534 79.052C51.029 79.1737 58.0658 72.1813 57.8512 63.6577C57.6529 55.7851 51.0004 48.8852 42.4931 49.0472C34.7416 49.1946 27.8124 55.6395 27.8042 64.0677C27.7966 72.4182 34.7287 79.2012 42.8534 79.052Z" fill="#0E419C"/>
<path d="M42.7587 53.5169C48.5748 53.3338 53.475 58.2797 53.4598 64.152C53.4446 69.9658 48.5771 74.7537 42.8236 74.7385C36.8729 74.7227 32.1675 69.8453 32.1833 64.1075C32.1997 58.1229 37.2139 53.29 42.7587 53.5169ZM42.923 54.3287C37.5046 54.2065 33.0571 58.692 33.0109 64.0244C32.9647 69.3855 37.3321 73.9372 42.8242 73.9307C48.3549 73.9243 52.7164 69.3218 52.6293 63.9578C52.5392 58.451 47.9244 54.2545 42.923 54.3287Z" fill="#0E419C"/>
<path d="M39.5915 76.9148C39.3932 76.8774 39.1914 76.8505 38.9967 76.8002C38.6697 76.7148 38.3831 76.5651 38.1866 76.2697C37.8368 75.7427 37.9404 74.9981 38.4562 74.6279C38.8399 74.3524 39.2821 74.4448 39.6956 74.5542C40.5355 74.7765 40.8672 75.3877 40.663 76.3177C40.5969 76.62 40.501 76.9183 40.3911 77.2084C40.1951 77.7255 39.5798 78.1162 39.0312 78.0946C38.3217 78.0671 37.7485 77.6717 37.569 77.0839C37.552 77.0289 37.5163 76.9593 37.535 76.9166C37.6122 76.7399 37.7064 76.5709 37.7947 76.399C37.9135 76.5101 38.0743 76.5996 38.1433 76.7359C38.4147 77.2728 38.7656 77.4997 39.2067 77.3365C39.3698 77.2763 39.5003 77.1254 39.6453 77.016C39.6272 76.9821 39.6096 76.9482 39.5915 76.9148ZM39.4289 76.172C39.7758 76.1726 40.029 75.9702 40.039 75.6848C40.0466 75.459 39.5506 75.0783 39.2377 75.0695C39.0014 75.0631 38.7452 75.3479 38.7405 75.6216C38.7352 75.9357 39.0294 76.1714 39.4289 76.172Z" fill="#0E419C"/>
<path d="M46.0224 77.0944C46.0399 77.9787 45.4942 78.69 44.7672 78.6648C43.815 78.6315 43.2669 78.2718 43.0804 77.3354C42.9798 76.83 42.8815 76.3182 43.0827 75.8106C43.2716 75.3339 43.5851 75.0034 44.1197 74.942C44.714 74.8742 45.2421 74.9473 45.579 75.5409C45.8562 76.0276 46.0124 76.5376 46.0224 77.0944ZM43.7612 76.7236C43.8126 76.93 43.853 77.202 43.9501 77.4512C44.0852 77.7974 44.3396 77.9542 44.6122 77.9191C44.9105 77.8805 45.2076 77.5986 45.238 77.2699C45.2831 76.7926 45.1678 76.3387 44.9111 75.9346C44.7777 75.7246 44.5595 75.624 44.3051 75.6638C44.0396 75.7053 43.9086 75.8983 43.8495 76.1387C43.8085 76.3077 43.7963 76.4838 43.7612 76.7236Z" fill="#0E419C"/>
<path d="M48.2677 75.841C47.9788 75.2286 47.7297 74.7034 47.4834 74.1764C47.408 74.0149 47.4284 73.9009 47.6138 73.8067C48.0993 73.5605 48.5742 73.2944 49.0497 73.03C49.2866 72.8984 49.4656 72.9838 49.606 73.1739C49.7545 73.3757 49.7031 73.5704 49.5095 73.7067C49.3363 73.8284 49.1433 73.9237 48.955 74.022C48.7579 74.1249 48.5555 74.2173 48.3333 74.3249C48.3964 74.4963 48.4555 74.6566 48.535 74.873C48.7333 74.7326 48.9146 74.6273 49.0685 74.4911C49.6212 74.0038 50.3891 74.1214 50.7617 74.7595C51.0799 75.3052 51.0302 76.0141 50.643 76.4528C50.1669 76.992 49.4861 77.1815 48.9076 76.9178C48.714 76.8294 48.4549 76.7528 48.5526 76.4428C48.638 76.1709 48.8333 76.0995 49.1726 76.1954C49.6656 76.3346 49.8914 76.2504 50.1774 75.8211C50.3441 75.5702 50.295 75.2514 50.0546 75.0332C49.8236 74.8233 49.6405 74.8432 49.3592 75.0596C49.0234 75.3181 48.6707 75.5538 48.2677 75.841Z" fill="#0E419C"/>
<path d="M32.6834 54.7212C32.8565 54.8727 33.0314 55.0224 33.2022 55.1762C33.3759 55.3324 33.5537 55.4851 33.7157 55.6529C33.99 55.9372 34.2556 56.2296 34.7662 56.1238C34.6164 56.5694 34.3187 56.7783 34.0076 56.9683C33.9736 56.9888 33.8491 56.9338 33.8257 56.8853C33.5379 56.2951 32.9752 55.9594 32.5453 55.5032C32.2851 55.2265 32.0377 54.9013 31.5996 54.8703C31.5458 54.8668 31.4972 54.7926 31.4118 54.7224C31.6692 54.4481 31.9066 54.1808 32.1646 53.9339C32.2108 53.8895 32.3447 53.9135 32.4295 53.9363C33.0735 54.1117 33.7157 54.2954 34.3784 54.4416C33.9526 54.0901 33.7648 53.4438 33.0454 53.4643C32.8039 53.4713 32.8635 53.2186 32.9495 53.1145C33.0987 52.9332 33.3016 52.7963 33.4665 52.6542C34.1977 53.4678 34.8972 54.2369 35.5815 55.0195C35.6564 55.1055 35.6464 55.2657 35.6757 55.3915C35.5523 55.3979 35.4195 55.4371 35.3072 55.4049C34.4854 55.1686 33.6678 54.9177 32.8489 54.6727C32.8138 54.6621 32.7758 54.6604 32.7395 54.6545C32.7208 54.6773 32.7021 54.699 32.6834 54.7212Z" fill="#0E419C"/>
<path d="M52.2912 53.1315C52.9001 53.6854 53.5563 54.0965 53.9149 54.7885C54.0272 55.0049 54.0798 55.3002 54.0389 55.5383C53.9564 56.0121 53.5119 56.239 53.0054 56.1355C52.6018 56.053 52.5918 56.0507 52.4947 56.4501C52.4263 56.7321 52.3754 57.0192 52.3433 57.3076C52.324 57.4778 52.2432 57.5205 52.0958 57.5158C51.6864 57.5029 51.4378 57.0631 51.6332 56.6858C51.7268 56.5051 51.8391 56.3337 51.9297 56.1513C52.0678 55.8734 52.0479 55.6073 51.8093 55.3312C51.5133 55.5629 51.1594 55.7255 51.0869 56.1641C51.0729 56.2478 51.0115 56.3507 50.9413 56.3881C50.9003 56.4104 50.7828 56.3367 50.7284 56.2788C50.5482 56.0881 50.3675 55.8951 50.2125 55.6845C50.0663 55.4857 50.1388 55.3394 50.3798 55.35C50.6225 55.3605 50.7787 55.2523 50.9325 55.0873C51.2372 54.7598 51.5478 54.4364 51.8718 54.1281C52.0877 53.9234 52.2356 53.7035 52.2263 53.3947C52.2234 53.3315 52.2561 53.2666 52.2912 53.1315ZM53.4434 55.0365C53.4399 54.8148 53.0264 54.3486 52.8334 54.3492C52.662 54.3492 52.1865 54.844 52.1953 55.0131C52.2087 55.2651 52.5796 55.6009 52.8398 55.5968C53.1545 55.5909 53.4481 55.3184 53.4434 55.0365Z" fill="#0E419C"/>
<path d="M54.6302 58.3692C54.6699 58.7511 54.7085 59.0412 54.729 59.3319C54.7647 59.8261 54.4904 60.1408 53.9903 60.1958C53.2446 60.2782 52.6597 59.832 52.5111 59.0546C52.4766 58.8745 52.4602 58.6868 52.4684 58.5037C52.4766 58.3224 52.4655 58.203 52.2561 58.1311C52.0684 58.0668 52.0736 57.9042 52.2421 57.8047C52.4924 57.6568 52.7521 57.5181 53.0211 57.4094C53.1118 57.3725 53.244 57.4368 53.3575 57.455C53.33 57.5579 53.3364 57.6977 53.2703 57.7585C52.8585 58.1381 52.9276 58.5943 53.0358 59.0593C53.0527 59.1324 53.0872 59.2254 53.144 59.2611C53.3054 59.3629 53.4943 59.5272 53.6511 59.5068C53.9026 59.4734 53.9634 59.212 53.9441 58.9739C53.9166 58.6253 53.8534 58.2785 53.8376 57.9293C53.8195 57.5304 53.9172 57.1789 54.326 56.9847C55.0045 56.6619 55.721 57.0707 55.8859 57.8814C55.9608 58.2504 56.0538 58.6166 56.1146 58.9886C56.1292 59.078 56.0743 59.2266 56.0029 59.2728C55.8438 59.3769 55.6572 59.4442 55.4747 59.5044C55.4046 59.5272 55.3145 59.4904 55.2338 59.4804C55.2484 59.398 55.2355 59.2909 55.2823 59.2365C55.7227 58.7236 55.5321 58.2013 55.3198 57.6778C55.2472 57.4988 55.1045 57.3579 54.9191 57.4263C54.8097 57.4667 54.708 57.6369 54.6793 57.7656C54.6296 57.9896 54.6389 58.227 54.6302 58.3692Z" fill="#0E419C"/>
<path d="M28.237 62.34C28.3213 61.7106 28.3944 61.0269 28.5108 60.3513C28.5769 59.9671 28.8418 59.7811 29.2618 59.7378C29.9625 59.6653 30.638 59.8045 31.2954 60.0238C31.7405 60.1724 32.0435 60.6198 31.9985 61.1251C31.9528 61.634 31.8265 62.137 31.7201 62.6388C31.6972 62.7459 31.6107 62.84 31.582 62.8898C31.0118 62.7675 30.4807 62.6336 29.9426 62.5447C29.4004 62.4552 28.8518 62.4119 28.237 62.34ZM31.3615 62.1276C31.4136 61.9405 31.4691 61.7855 31.499 61.6252C31.5978 61.0947 31.4884 60.8309 30.9901 60.6274C30.6462 60.487 30.2666 60.418 29.8964 60.3607C29.1471 60.2455 29.0068 60.3572 28.8605 61.1111C28.8295 61.2702 28.8161 61.4322 28.7903 61.6235C29.6548 61.7931 30.49 61.9569 31.3615 62.1276Z" fill="#0E419C"/>
<path d="M40.2027 50.3462C40.2536 50.8253 40.3133 51.3037 40.353 51.7833C40.3835 52.15 40.4519 52.4939 40.7888 52.7279C40.4946 53.0063 40.1711 53.0098 39.8535 52.9969C39.8073 52.9952 39.7132 52.8226 39.7336 52.7601C39.9343 52.1524 39.7342 51.5622 39.6629 50.9703C39.6108 50.5387 39.4839 50.1164 39.3845 49.6625C39.8758 49.3888 40.2384 49.4432 40.6309 49.9292C40.8935 50.2544 41.1274 50.603 41.3848 50.9323C41.5018 51.082 41.6445 51.2119 41.8375 51.323C41.7925 50.8656 41.7708 50.4035 41.6901 49.9526C41.662 49.7941 41.4895 49.6607 41.3649 49.4911C41.6322 49.18 41.9983 49.3233 42.3697 49.3221C41.982 50.045 42.2919 50.7685 42.289 51.4838C42.2879 51.7851 42.3341 52.0863 42.3294 52.3869C42.3276 52.4922 42.2358 52.5957 42.1855 52.6998C42.0948 52.6443 41.9744 52.6103 41.9182 52.5308C41.4678 51.8956 41.0309 51.2511 40.5852 50.6129C40.5063 50.4995 40.4051 50.4018 40.3139 50.2965C40.2764 50.3135 40.2396 50.3299 40.2027 50.3462Z" fill="#0E419C"/>
<path d="M47.5752 53.8C48.2917 53.1063 48.7912 52.3278 49.1743 51.4721C49.2878 51.2183 49.3451 51.1773 49.5732 51.3224C50.1318 51.678 50.6909 52.0313 51.2448 52.3945C51.5864 52.6185 51.5566 52.9268 51.1624 53.1414C50.9787 52.6004 50.4956 52.3904 50.0505 52.1325C49.9183 52.0559 49.8382 52.0658 49.7253 52.1746C49.2001 52.6799 49.2053 52.7852 49.8469 53.1303C49.9762 53.1999 50.137 53.2192 50.2862 53.2391C50.4172 53.2566 50.5523 53.2426 50.6857 53.2426C50.6816 53.676 50.4459 54.0082 50.071 54.1275C49.9358 53.7281 49.665 53.442 49.2784 53.287C49.1848 53.2496 49.0024 53.2847 48.9351 53.3566C48.4432 53.8836 48.4689 54.024 49.0439 54.451C49.3334 54.6662 49.6223 54.8095 49.9856 54.6539C50.0201 54.6393 50.0622 54.6399 50.1008 54.6399C50.1283 54.6399 50.1552 54.651 50.1809 54.6569C50.2575 55.0663 49.9429 55.3587 49.5685 55.2113C49.3626 55.13 49.172 55.0043 48.9866 54.8803C48.6146 54.6311 48.2461 54.3755 47.8858 54.11C47.7601 54.0182 47.6618 53.8883 47.5752 53.8Z" fill="#0E419C"/>
<path d="M29.9461 67.2624C30.187 66.8928 30.4146 66.8103 30.8205 66.8875C30.8918 67.2776 30.9573 67.6402 31.0258 68.0023C31.062 68.1953 31.1989 68.2713 31.3674 68.2093C31.7148 68.0824 32.1657 68.1415 32.347 67.687C32.3593 67.656 32.5599 67.6484 32.5746 67.6783C32.7325 68.004 32.8705 68.3392 33.0495 68.7527C32.3371 68.5837 31.8359 68.9206 31.3013 69.089C30.762 69.2586 30.1625 69.3142 29.7267 69.8359C29.6057 69.6645 29.4723 69.5318 29.4068 69.3715C29.1857 68.8328 28.9769 68.2877 28.7874 67.7373C28.7061 67.501 28.65 67.2472 28.9921 67.1162C29.2922 67.001 29.4524 67.0747 29.3793 67.3835C29.2711 67.8397 29.4571 68.2 29.6413 68.5755C29.6542 68.6018 29.6618 68.6346 29.6823 68.6521C29.9467 68.8767 30.1625 68.6205 30.3929 68.5638C30.5263 68.531 30.748 68.5053 30.6573 68.245C30.5169 67.8444 30.4403 67.4034 29.9461 67.2624Z" fill="#0E419C"/>
<path d="M28.4698 65.4393C29.3752 65.3867 30.2192 65.3287 31.065 65.2931C31.3533 65.2808 31.5229 65.1533 31.5212 64.8807C31.52 64.645 31.4732 64.3999 31.3908 64.1794C31.3568 64.0882 31.1784 63.9952 31.0667 63.9964C30.376 64.0022 29.6846 64.0274 28.995 64.0671C28.9079 64.0724 28.833 64.2069 28.7441 64.2695C28.6617 64.3274 28.5593 64.4175 28.4827 64.4035C28.4148 64.3906 28.3388 64.2596 28.3213 64.1701C28.2669 63.8928 28.2446 63.6109 28.4265 63.3401C28.9097 63.6764 29.4425 63.5045 29.9566 63.5062C30.307 63.5074 30.6573 63.4776 31.0071 63.4846C31.499 63.494 31.8166 63.7209 31.892 64.2087C31.9534 64.6041 31.9347 65.0211 31.8879 65.4212C31.8522 65.7247 31.6311 65.9072 31.3013 65.9329C30.6708 65.9815 30.0402 66.0318 29.4115 66.1008C29.2044 66.1236 28.998 66.1903 28.802 66.2646C28.5997 66.3412 28.4762 66.3236 28.4698 66.0809C28.4651 65.8692 28.4698 65.6575 28.4698 65.4393Z" fill="#0E419C"/>
<path d="M33.3262 57.9831C33.2378 57.9287 33.1823 57.8895 33.1232 57.858C32.6319 57.593 32.5401 57.6141 32.2266 58.0598C31.8762 58.5575 31.9727 58.8458 32.557 59.0564C32.629 59.0821 32.6986 59.1155 32.8214 59.1669C32.605 59.4787 32.402 59.7706 32.2096 60.0478C32.1201 60.0133 32.0955 60.0115 32.0862 59.9987C31.4106 59.0447 30.7339 58.0925 30.0648 57.135C30.0081 57.0537 29.9472 56.8853 29.9835 56.8467C30.0631 56.7613 30.2145 56.6736 30.3181 56.6917C31.055 56.8215 31.7873 56.9818 32.5225 57.1233C32.7986 57.1766 33.0811 57.1988 33.3577 57.2497C33.704 57.3128 33.7414 57.4076 33.5478 57.6883C33.4823 57.7837 33.4092 57.8732 33.3262 57.9831ZM31.6136 57.5158C31.4048 57.4626 31.2311 57.4181 31.0568 57.3737C31.0451 57.3918 31.034 57.4099 31.0223 57.4287C31.1392 57.5597 31.2556 57.6901 31.3837 57.834C31.4375 57.7696 31.4697 57.7357 31.4972 57.6977C31.5305 57.6497 31.5598 57.6 31.6136 57.5158Z" fill="#0E419C"/>
<path d="M56.8335 67.1127C56.734 67.5156 56.634 67.9186 56.5188 68.3848C55.9444 67.8789 55.4888 68.3649 54.9899 68.3842C55.2975 68.7381 55.5408 69.1311 56.0093 69.2773C56.083 69.3001 56.169 69.4165 56.1766 69.4973C56.2082 69.8137 56.1328 70.0927 55.8655 70.2219C55.3823 69.6926 54.9519 69.1487 54.4436 68.6901C54.1014 68.3813 53.6575 68.1865 53.1592 68.4491C52.9252 68.572 52.8147 68.4901 52.8644 68.2356C52.9293 67.9023 53.0153 67.5724 53.1159 67.2478C53.1422 67.163 53.2452 67.0828 53.3323 67.0454C53.3674 67.0302 53.4692 67.1255 53.5148 67.1893C53.6002 67.3092 53.6411 67.5221 53.7452 67.5554C54.0535 67.6531 54.3863 67.7397 54.7039 67.7227C55.0975 67.7022 55.4929 67.5993 55.8725 67.4841C56.1719 67.3928 56.4486 67.2279 56.7352 67.0963C56.7685 67.1004 56.8007 67.1068 56.8335 67.1127Z" fill="#0E419C"/>
<path d="M56.6866 65.1281C55.8818 65.1007 55.077 65.0673 54.2716 65.055C54.1868 65.0539 54.1032 65.1814 54.0137 65.2416C53.923 65.3024 53.8131 65.4112 53.7353 65.3937C53.6616 65.3767 53.5727 65.2252 53.5709 65.1311C53.5639 64.8024 53.5832 64.4725 53.6119 64.1444C53.6201 64.0508 53.6926 63.9625 53.7604 63.8197C54.2412 64.4081 54.8864 64.2344 55.4671 64.3122C55.7368 64.3485 56.0111 64.3941 56.2801 64.3795C56.4322 64.3707 56.6375 64.2836 56.7083 64.1654C56.7644 64.0718 56.6849 63.8578 56.6065 63.7338C56.5398 63.6273 56.3907 63.5735 56.2778 63.4963C56.2948 63.4565 56.3117 63.4168 56.3287 63.377C56.4521 63.3144 56.5691 63.2278 56.6995 63.1945C57.0733 63.0992 57.2054 63.2027 57.1902 63.584C57.1622 64.314 57.1124 65.0427 57.0861 65.7727C57.075 66.0745 56.8902 66.1535 56.6469 66.1581C56.5615 66.1599 56.4398 66.1148 56.4006 66.0511C56.3702 66.002 56.4351 65.8856 56.472 65.806C56.5597 65.6177 56.6568 65.4335 56.7498 65.2475C56.7293 65.2065 56.7077 65.1673 56.6866 65.1281Z" fill="#0E419C"/>
<path d="M35.1539 73.7506C34.9896 73.5968 34.8469 73.4652 34.7059 73.3324C34.5369 73.1733 34.6047 73.0171 34.7164 72.8651C34.8235 72.7188 34.9545 72.6703 35.1165 72.7849C35.3803 72.9709 35.633 72.8773 35.888 72.7592C36.1804 72.6241 36.3214 72.6808 36.5846 72.9598C36.7858 73.1727 36.6208 73.323 36.5173 73.4681C35.9406 74.277 35.3499 75.0759 34.7708 75.8837C34.6264 76.0855 34.4813 76.1492 34.2626 75.9907C33.9391 75.7562 33.8678 75.5947 34.0345 75.3508C34.3971 74.8215 34.7702 74.2986 35.1539 73.7506Z" fill="#0E419C"/>
<path d="M35.6394 51.0691C36.0207 50.9381 36.3723 50.8171 36.7185 50.6983C36.7507 50.7697 36.7694 50.7919 36.7641 50.8018C36.5471 51.2037 36.6899 51.5663 36.8688 51.9348C37.0344 52.2752 37.1665 52.6326 37.3303 52.9741C37.5385 53.4105 37.7573 53.4888 38.1983 53.3116C38.7048 53.1081 38.7762 52.9566 38.5849 52.4489C38.4205 52.0126 38.2656 51.571 38.0708 51.1481C37.9409 50.8662 37.7491 50.6123 37.5666 50.3158C37.7368 50.0965 38.0076 50.059 38.3428 50.0935C38.2088 50.6024 38.4837 51.0066 38.6264 51.4423C38.7621 51.8576 38.9124 52.2688 39.0236 52.6905C39.1511 53.1753 38.9973 53.4467 38.5387 53.6374C38.503 53.652 38.4668 53.6661 38.4305 53.6807C37.5473 54.0398 36.9753 53.9059 36.6361 52.9092C36.5483 52.6519 36.429 52.4062 36.3278 52.1535C36.205 51.847 36.1044 51.53 35.8067 51.3306C35.7418 51.2867 35.7137 51.189 35.6394 51.0691Z" fill="#0E419C"/>
<path d="M45.5299 49.6765C45.896 49.7707 46.1961 49.8409 46.4909 49.9263C46.6833 49.9818 46.709 50.1386 46.5944 50.2661C46.3944 50.4889 46.416 50.7457 46.4177 51.0066C46.4195 51.3183 46.4084 51.6301 46.4224 51.9412C46.4289 52.0757 46.4838 52.2085 46.5166 52.3419C46.5458 52.3483 46.5751 52.3547 46.6043 52.3606C46.8324 52.0623 47.0623 51.7652 47.2875 51.4651C47.5138 51.1633 47.7712 50.8738 47.6992 50.4375C48.0742 50.3989 48.3736 50.4585 48.6263 50.7597C47.8648 51.2464 47.4852 52.0284 46.9488 52.6764C46.8125 52.8414 46.6862 53.0162 46.5347 53.1666C46.4604 53.2408 46.3318 53.3204 46.2423 53.3063C46.075 53.28 45.93 53.1993 45.9136 52.9712C45.8603 52.2535 45.7919 51.5365 45.7141 50.8212C45.6755 50.4679 45.6018 50.1181 45.5299 49.6765Z" fill="#0E419C"/>
<path d="M56.6785 60.4245C56.7042 60.4596 56.7966 60.535 56.82 60.628C56.913 60.9941 56.9914 61.365 57.0575 61.737C57.0709 61.8124 57.0083 61.9019 56.9808 61.9844C56.9025 61.951 56.7948 61.9399 56.7504 61.8808C56.6299 61.7206 56.496 61.6674 56.2977 61.7065C55.6028 61.8428 54.9057 61.9668 54.2091 62.0955C54.0213 62.13 53.9002 62.209 53.8762 62.4289C53.8651 62.5312 53.7435 62.6213 53.6721 62.7172C53.5955 62.6272 53.4768 62.5476 53.4504 62.4447C53.3498 62.051 53.2604 61.6521 53.2083 61.2503C53.1919 61.1269 53.3077 60.986 53.3627 60.8526C53.4662 60.9374 53.6078 61.0023 53.6651 61.1111C53.7639 61.2989 53.8774 61.3533 54.0827 61.3141C54.7688 61.1836 55.4648 61.0959 56.1415 60.9292C56.3363 60.8813 56.479 60.6204 56.6785 60.4245Z" fill="#0E419C"/>
<path d="M44.2852 52.8197C43.8957 52.7723 43.5781 52.7478 43.2658 52.691C43.0605 52.6536 42.9985 52.4963 43.1622 52.3577C43.402 52.1541 43.4067 51.8845 43.4342 51.6184C43.488 51.0961 43.5395 50.5732 43.5717 50.0491C43.5793 49.9274 43.5243 49.79 43.4635 49.6783C43.3231 49.4209 43.3681 49.3104 43.6647 49.3268C43.9238 49.3408 44.1846 49.3899 44.4355 49.4584C44.649 49.5163 44.687 49.7034 44.504 49.8233C44.3098 49.9508 44.2805 50.1269 44.2566 50.3193C44.1963 50.8019 44.1215 51.2832 44.0893 51.7675C44.0747 51.9892 44.1431 52.2167 44.1817 52.4407C44.2004 52.5425 44.2361 52.6413 44.2852 52.8197Z" fill="#0E419C"/>
<path d="M40.6806 68.1953C38.7586 68.2672 36.8624 68.1684 35.0042 68.6024C34.7708 68.6568 34.5848 68.5995 34.4977 68.3801C34.3801 68.0836 34.2877 67.7765 34.2088 67.4677C34.1947 67.4115 34.2848 67.2799 34.3497 67.2606C34.7012 67.1559 35.0557 67.0261 35.4166 66.9969C36.522 66.9074 37.6304 66.8465 38.7387 66.8009C39.3973 66.774 40.0582 66.7957 40.7496 66.7957C40.7817 64.9158 40.942 63.1196 41.755 61.4427C41.7158 61.4252 41.6772 61.4077 41.638 61.3901C41.5287 61.5153 41.39 61.6252 41.3158 61.7679C41.0011 62.3704 40.6823 62.9734 40.4144 63.5975C40.3033 63.8566 40.3103 64.1683 40.277 64.4579C40.1343 65.7019 39.5465 66.3751 38.3088 66.5664C37.6397 66.6699 36.9484 66.7062 36.2728 66.6681C35.2089 66.6079 34.2643 65.6428 34.1017 64.5005C33.9198 63.2243 33.9713 61.958 34.3655 60.7169C34.4649 60.4046 34.6252 60.1613 34.9165 59.9975C36.3658 59.1827 37.8468 59.1769 39.3458 59.8314C39.7921 60.0261 39.8886 60.4631 39.9769 60.8883C39.998 60.9912 40.0097 61.0959 40.022 61.1784C40.5794 60.4648 41.1362 59.7536 41.6989 59.0336C41.5959 58.8429 41.4789 58.8739 41.3368 58.9991C40.9806 59.312 40.5852 59.5471 40.1091 59.6372C39.812 59.6933 39.595 59.5927 39.4312 59.3535C39.2686 59.1166 39.3564 58.9119 39.5231 58.7201C39.8875 58.3007 40.2437 57.8749 40.6168 57.4637C41.1455 56.88 41.3877 56.1706 41.5737 55.426C41.6199 55.24 41.7351 55.0458 41.8737 54.9142C42.1334 54.668 42.5955 54.6276 42.8534 54.8083C43.1576 55.0212 43.3055 55.333 43.2178 55.698C43.1114 56.1407 42.9552 56.5706 42.8283 57.0087C42.7856 57.1555 42.7283 57.3146 42.747 57.4591C42.7879 57.7714 42.9821 57.8814 43.3652 57.8556C44.9777 57.7457 46.5897 57.6252 48.2034 57.5304C48.6093 57.5064 49.0217 57.5421 49.427 57.586C49.8967 57.6369 50.2488 58.0516 50.2277 58.4785C50.2108 58.8271 49.9996 59.0546 49.6522 59.0365C48.9527 59.0002 48.2543 58.8985 47.5554 58.8944C46.4961 58.8879 45.434 58.9084 44.3776 58.9868C43.9647 59.0172 43.5535 59.2079 43.1628 59.3752C42.7411 59.5565 42.6616 59.7957 42.7949 60.225C42.8125 60.2806 42.8248 60.3408 42.854 60.3894C43.2149 60.9842 43.1424 61.5761 42.9137 62.2049C42.2545 64.0198 42.1521 65.9095 42.2381 67.8186C42.2855 68.879 42.3229 69.94 42.382 70.9993C42.406 71.4262 42.4809 71.8497 42.5259 72.2755C42.5429 72.4393 42.5616 72.6083 42.5417 72.7697C42.5095 73.0247 42.4417 73.2768 42.1416 73.3528C41.7807 73.4441 41.4778 73.3681 41.3204 73.0768C41.1707 72.8001 41.0496 72.4913 40.9929 72.1831C40.7689 70.9642 40.6782 69.7318 40.6917 68.4918C40.694 68.4064 40.6858 68.321 40.6806 68.1953ZM38.8721 62.4739C38.8721 62.2323 38.8873 62.037 38.8692 61.8446C38.8095 61.2006 38.5387 60.9263 37.9012 60.8538C37.6982 60.831 37.4929 60.8251 37.2888 60.8117C36.0506 60.7304 35.3394 61.3954 35.409 62.626C36.5512 62.5757 37.6941 62.526 38.8721 62.4739ZM35.547 63.9081C35.5096 64.6111 35.8979 65.1708 36.5495 65.2872C36.9355 65.3562 37.3391 65.3586 37.7333 65.3445C38.5849 65.3141 39.0914 64.6292 38.9083 63.7659C37.7754 63.5109 36.6624 63.7624 35.547 63.9081Z" fill="#0E419C"/>
<path d="M46.84 66.1347C47.3296 66.0938 47.7489 66.0827 48.159 66.0131C48.3227 65.9856 48.4771 65.8452 48.6128 65.7288C48.752 65.6101 48.8485 65.4405 48.9907 65.3258C49.1808 65.172 49.3942 65.0398 49.6569 65.1843C49.8885 65.3118 50.0862 65.6352 50.0131 65.9002C49.7469 66.8647 49.4615 67.8239 49.1562 68.7767C49.1258 68.872 48.9111 68.9556 48.7778 68.9615C48.3315 68.9826 47.8829 68.9597 47.436 68.9656C46.9775 68.9714 46.9605 68.9954 47.0623 69.4317C47.2044 70.0371 47.3676 70.6384 47.4916 71.2472C47.5431 71.4999 47.5296 71.769 47.5214 72.0298C47.5144 72.2497 47.3717 72.3574 47.1541 72.3597C46.7605 72.3632 46.4985 72.1544 46.3072 71.8321C45.934 71.2034 45.7539 70.5079 45.6082 69.8008C45.4831 69.1919 45.4258 69.1522 44.8309 69.3604C44.5753 69.4499 44.3355 69.5838 44.0858 69.6914C43.8898 69.7762 43.6939 69.8652 43.4909 69.9289C43.1388 70.0389 42.923 69.9646 42.7826 69.7113C42.6177 69.4142 42.6446 69.0592 42.9026 68.8603C43.0979 68.71 43.3336 68.593 43.5693 68.5182C44.1495 68.3333 44.7403 68.1813 45.3363 68.0134C45.3363 67.7923 45.3363 67.5367 45.3363 67.1992C44.9561 67.3039 44.6227 67.3881 44.294 67.4887C43.9507 67.594 43.6149 67.7245 43.271 67.8274C43.0248 67.9011 42.785 67.9145 42.6598 67.6116C42.5335 67.3051 42.613 66.9694 42.8639 66.8074C43.3184 66.5137 43.8431 66.5202 44.3537 66.4588C44.68 66.4196 45.0046 66.3558 45.3257 66.2827C45.393 66.2675 45.4398 66.1622 45.496 66.0985C45.417 66.0645 45.3374 66.0008 45.2585 66.0014C44.9672 66.0043 44.6754 66.0458 44.3847 66.0388C44.1425 66.033 43.9162 65.9517 43.8542 65.6721C43.7846 65.3603 43.9665 65.1428 44.3232 65.1217C45.1877 65.0702 46.0533 65.0275 46.9184 64.9819C46.957 64.9796 46.9968 64.9766 47.0354 64.9819C47.1681 65.0006 47.3003 65.0229 47.4331 65.0439C47.4056 65.2012 47.4173 65.3814 47.3419 65.5106C47.2208 65.7154 47.043 65.8873 46.84 66.1347ZM46.84 67.9666C47.2114 67.9344 47.5524 67.9216 47.8858 67.8648C47.9905 67.8467 48.1203 67.7256 48.1578 67.6227C48.2204 67.4496 48.218 67.2524 48.2508 67.0068C47.7425 67.0548 47.2933 67.0975 46.84 67.1407C46.84 67.4297 46.84 67.68 46.84 67.9666Z" fill="#0E419C"/>
<path d="M46.3008 64.8094C45.6884 64.8094 45.0754 64.7977 44.463 64.8129C43.9173 64.8269 43.5395 64.6216 43.3085 64.142C43.057 63.6197 43.1289 63.1922 43.4839 62.7693C43.8436 62.3411 44.3197 62.2201 44.8362 62.1961C45.9247 62.1464 47.0138 62.0873 48.1022 62.0803C48.6234 62.0768 49.1463 62.1715 49.6656 62.2452C49.799 62.2639 49.9493 62.3441 50.0411 62.4429C50.4172 62.8488 50.5032 63.3436 50.3324 63.8537C50.1692 64.3403 49.7867 64.6064 49.2738 64.6368C48.2835 64.6965 47.2927 64.7386 46.3019 64.7877C46.3019 64.7959 46.3014 64.8029 46.3008 64.8094ZM49.0299 63.415C49.0182 63.3782 49.0059 63.3413 48.9942 63.3039C48.7667 63.2822 48.5386 63.2366 48.3116 63.2425C47.1442 63.2729 45.9773 63.3109 44.8105 63.3618C44.6292 63.3694 44.3157 63.3021 44.3244 63.5834C44.3332 63.8771 44.6566 63.8086 44.8432 63.8004C46.1165 63.7431 47.3887 63.6677 48.6602 63.584C48.786 63.5758 48.9065 63.4741 49.0299 63.415Z" fill="#0E419C"/>
<path d="M46.4704 61.8744C45.6351 61.8422 44.7993 61.8223 43.9659 61.7685C43.8015 61.758 43.6073 61.6527 43.4927 61.5299C43.0119 61.0152 43.1254 60.0396 43.7343 59.6957C44.0431 59.5214 44.425 59.419 44.7806 59.3962C45.8861 59.3255 46.995 59.3003 48.1034 59.274C48.6216 59.2617 49.1299 59.3407 49.6065 59.5664C50.0078 59.7565 50.2078 60.0694 50.2183 60.5116C50.2295 60.9748 50.1066 61.3819 49.6358 61.5498C49.2656 61.6814 48.8731 61.7943 48.4841 61.8194C47.8156 61.8627 47.1424 61.8317 46.471 61.8317C46.4715 61.8452 46.471 61.8598 46.4704 61.8744ZM48.9778 60.7602C48.948 60.4116 48.8199 60.304 48.5502 60.3104C47.7823 60.3274 47.0131 60.3151 46.2452 60.3309C45.7112 60.342 45.1778 60.373 44.6449 60.4093C44.4507 60.4227 44.2835 60.5438 44.3437 60.7473C44.3712 60.8403 44.5747 60.9368 44.6987 60.9362C45.7679 60.9333 46.8371 60.9175 47.9057 60.8854C48.2584 60.8754 48.6087 60.8052 48.9778 60.7602Z" fill="#0E419C"/>
</g>
<defs>
<filter id="filter0_d_185_35" x="0" y="0" width="154" height="157" filterUnits="userSpaceOnUse" color-interpolation-filters="sRGB">
<feFlood flood-opacity="0" result="BackgroundImageFix"/>
<feColorMatrix in="SourceAlpha" type="matrix" values="0 0 0 0 0 0 0 0 0 0 0 0 0 0 0 0 0 0 127 0" result="hardAlpha"/>
<feOffset dy="16"/>
<feGaussianBlur stdDeviation="6.5"/>
<feColorMatrix type="matrix" values="0 0 0 0 0 0 0 0 0 0 0 0 0 0 0 0 0 0 0.03 0"/>
<feBlend mode="normal" in2="BackgroundImageFix" result="effect1_dropShadow_185_35"/>
<feBlend mode="normal" in="SourceGraphic" in2="effect1_dropShadow_185_35" result="shape"/>
</filter>
</defs>
</svg>
