<svg width="154" height="157" viewBox="0 0 154 157" fill="none" xmlns="http://www.w3.org/2000/svg">
<g filter="url(#filter0_d_185_24)">
<rect width="128" height="128" transform="translate(13)" fill="white"/>
<path fill-rule="evenodd" clip-rule="evenodd" d="M43.0932 67.9157V67.8354L43.0754 67.755L43.0574 67.6747L43.0307 67.5943L42.9861 67.514L42.9593 67.4872L42.8879 67.4337L42.8521 67.4158L42.8076 67.4069H42.7272L42.7004 67.4158L42.6469 67.4515L42.6112 67.5051L42.5844 67.5765L42.6023 67.63L42.638 67.6836L42.7272 67.7818L42.7986 67.8711L42.8254 67.9246L42.8343 67.9782L42.8789 67.996V68.0496L42.8968 68.0942L42.8611 68.112H42.7808L42.7004 68.0853H42.6469L42.5755 68.1567L42.5219 68.2549L42.629 68.3709L42.6558 68.3977L42.7272 68.4333L42.7718 68.4423L42.8254 68.4601L42.8701 68.4512L42.9058 68.4423L42.9236 68.4155L42.9682 68.353L42.9951 68.3173L43.0307 68.2905L43.0842 68.2727L43.1111 68.2638L43.1379 68.237L43.0574 68.0496L43.0932 67.9157ZM42.4862 68.5137L42.4595 68.5762L42.5933 68.7636L42.6469 68.8172L42.7004 68.8618L42.7808 68.9064L42.8611 68.9332L42.9682 68.9421L42.9951 68.9154L43.0218 68.8707L43.0486 68.7725L42.9414 68.6922L42.8166 68.6119L42.6737 68.5494L42.5309 68.4959L42.513 68.5226L42.4862 68.5137ZM43.2449 68.844L43.2807 68.9778L43.2895 69.0492V69.1206L43.3342 69.1296L43.361 69.1028L43.3787 69.076L43.3967 69.0314V68.8975L43.3877 68.835L43.3699 68.603L43.3787 68.487L43.3967 68.353L43.4235 68.2281L43.4592 68.1031L43.5127 67.9782L43.5752 67.8532L43.6198 67.8443L43.6733 67.8532L43.6823 67.8889L43.7002 67.9246L43.7358 67.996L43.7715 68.0674L43.7805 68.112V68.1477L43.7895 68.1656L43.8162 68.1745L43.843 68.0585L43.8608 67.9425V67.8889L43.843 67.7818L43.8162 67.7372L43.7983 67.7193L43.7715 67.6926L43.7002 67.6657L43.6287 67.6479H43.593L43.5662 67.6568L43.5395 67.6747L43.5037 67.6926L43.4592 67.7372L43.4145 67.8086L43.3787 67.88L43.3074 68.0496L43.2449 68.362L43.2539 68.4244V68.487L43.2449 68.603L43.236 68.7279V68.7904L43.2449 68.844ZM43.2539 69.201L43.2271 69.2545L43.236 69.3974L43.3342 69.4866L43.3877 69.558L43.4412 69.6205L43.4948 69.6562L43.5485 69.683H43.602L43.6287 69.6741L43.6465 69.6473L43.6645 69.6205L43.6823 69.5848L43.7002 69.5312L43.709 69.4688L43.602 69.4063L43.486 69.3349L43.3787 69.2724L43.2807 69.201H43.2539ZM44.6462 68.9064L44.5927 68.844L44.5302 68.7904L44.4677 68.7279L44.4499 68.7012L44.4321 68.6654L44.4587 68.5941L44.5214 68.4691L44.6107 68.2816L44.5837 68.1924L44.4946 68.1477L44.4677 68.1567L44.4409 68.1656L44.3964 68.2102L44.3517 68.2638L44.3159 68.3352L44.2446 68.487L44.1911 68.6119L44.1286 68.6208L44.0751 68.6119L44.0393 68.5941L44.0126 68.5762L43.9858 68.5405L43.9679 68.5048L43.9323 68.4244L43.9055 68.3887L43.8786 68.362L43.8608 68.3352L43.8518 68.2905L43.8162 68.2816H43.7805L43.7448 68.2905L43.718 68.3084L43.6645 68.3798L43.6465 68.4333L43.6287 68.487L43.6198 68.5405L43.611 68.5941V68.6298L43.6198 68.6654L43.6733 68.6833H43.709L43.7448 68.6565L43.7715 68.6208H43.7983L43.843 68.6654L43.9233 68.7993L43.959 68.8083L43.9946 68.8172H44.0393L44.0751 68.8083H44.1018L44.1286 68.8172L44.1554 68.8618L44.1018 69.0135L44.0751 69.1563L44.0571 69.2992L44.0393 69.442L44.0483 69.4777V69.558L44.0393 69.6027L44.0839 69.6294L44.1106 69.6027L44.1643 69.5848L44.2446 69.2634L44.3339 68.8975L44.3427 68.8886L44.4054 68.9154L44.4677 68.96L44.5392 69.0046L44.6195 69.0582V69.1385L44.6462 69.2277L44.6642 69.317L44.6909 69.4063L44.6374 69.442L44.5749 69.4599L44.5659 69.4866L44.6909 69.5223L44.7177 69.4866L44.7534 69.5045L44.7802 69.4599L44.798 69.4241L44.807 69.3795L44.8158 69.3438V69.2545L44.798 69.1742L44.7623 69.0939L44.7267 69.0225L44.682 68.96L44.6462 68.9064Z" fill="#004098"/>
<path fill-rule="evenodd" clip-rule="evenodd" d="M30.9809 69.6562L30.9987 69.683L30.972 69.7276L30.9541 69.7722L30.9363 69.8258L30.9273 69.8793L30.9095 70.0133V70.1471L30.9273 70.4149L30.9363 70.6202L30.8292 70.7094L30.7042 70.5488L30.6507 70.4684L30.6149 70.3881V70.3167L30.6328 70.2007L30.6685 70.0578L30.7131 69.8972L30.8113 69.5937L30.8827 69.3974V69.3884H30.7935L30.7042 69.3974L30.365 69.4331L30.2847 69.442L30.1954 69.4331L30.1597 69.4241L30.1329 69.4152L30.008 69.3438L29.9455 69.317L29.883 69.2992L29.8295 69.2724L29.8027 69.2545L29.7849 69.2277L29.7581 69.201L29.7402 69.1563H29.7581L29.7938 69.1653L29.8652 69.1921L29.9544 69.2277L30.008 69.2456L30.1062 69.2634H30.3115L30.4275 69.2456L30.6417 69.2099L30.847 69.1563L30.9184 69.1385L30.9809 69.1028L31.0344 69.0582L31.0523 69.0314L31.0612 69.0046L30.9898 68.9689L30.9363 68.9243L30.8738 68.8707L30.8202 68.7993L30.8381 68.7011L30.847 68.603L30.963 68.6119L31.0255 68.6208L31.0701 68.6387L31.1237 68.6654L31.1772 68.7011L31.2933 68.7904L31.3558 68.835L31.4183 68.8707L31.4718 68.8886L31.5165 68.8975L31.6057 68.8797L31.6949 68.835L31.7842 68.7815L31.8735 68.7101L31.9716 68.6476L32.0609 68.5851L32.1502 68.5405L32.1948 68.5226L32.2394 68.5137L32.3733 68.5762L32.3822 68.7101L32.2394 68.8172L32.0877 68.9064L31.9359 68.9778L31.8645 69.0225L31.811 69.0671V69.0849L31.9627 69.2367L32.0163 69.326L32.0342 69.3706L32.0252 69.4063L32.0163 69.4509L31.9627 69.4866H31.927L31.8913 69.4777L31.8467 69.4598L31.7485 69.4152L31.6503 69.3527L31.5521 69.2992L31.4272 69.2099L31.3736 69.2367L31.3112 69.2545L31.1594 69.2903L31.088 69.3081L31.0255 69.3349L30.9898 69.3617L30.9809 69.3795V69.3974L31.0255 69.4331L31.0612 69.4866V69.5223L31.0255 69.6116L30.9809 69.6562Z" fill="#004098"/>
<path fill-rule="evenodd" clip-rule="evenodd" d="M33.5515 71.7092L33.4891 71.7002H33.4355L33.3284 71.6913L33.2213 71.6735L33.1677 71.6556L33.1053 71.6288L33.1231 71.602L33.1321 71.5842L33.2034 71.5931H33.2748L33.3373 71.5842L33.3909 71.5664L33.5158 71.5306H33.6408L33.7122 71.3789L33.7479 71.2986L33.7747 71.2182L33.7658 71.2093L33.6944 71.2271L33.6051 71.2539H33.5605L33.5069 71.245L33.4623 71.2361L33.4177 71.2004L33.3909 71.1915L33.3552 71.1379V71.0665L33.3641 71.0308L33.3998 70.9594L33.4534 70.888L33.6408 70.7005L33.6944 70.638L33.7301 70.5845V70.5756L33.6408 70.5577L33.5784 70.5399L33.5515 70.522L33.5337 70.5042L33.5248 70.4685V70.4238L33.5426 70.3792L33.5515 70.3613L33.5694 70.3435L33.6141 70.3167L33.6676 70.2989L33.7301 70.2899H33.7836L33.9086 70.281L34.0246 70.2721L34.0603 70.2542L34.096 70.2275L34.1496 70.1382L34.2478 69.9418L34.337 69.9597L34.3727 69.9775L34.4174 70.0043L34.4084 70.0578V70.1471L34.4174 70.1739L34.4352 70.2007L34.4531 70.2186L34.5423 70.2721L34.5959 70.3078L34.6137 70.3257L34.6316 70.3524L34.6673 70.4238L34.6048 70.4863L34.5513 70.5131L34.4977 70.5309H34.4531L34.3459 70.522L34.2835 70.5131L34.2031 70.522L34.1317 70.5488L34.0603 70.5845L33.9889 70.638L33.9264 70.7005L33.8015 70.8433L33.6944 70.9683V70.9862L33.7569 70.9951H33.8193L33.864 70.9862L33.9086 70.9594L33.9532 70.9237L33.98 70.8791L34.0335 70.7541L34.0871 70.763L34.1585 70.7898L34.1496 70.8344V70.8701L34.1585 70.8969L34.1763 70.9237L34.2031 70.9594L34.2388 71.0219L34.2031 71.0665L34.096 71.12L34.0425 71.129L34.0246 71.1647L33.9979 71.2004L33.9443 71.2807L33.8907 71.3699L33.8729 71.4146V71.4592L33.8818 71.4949L33.9264 71.5038L33.9711 71.5217L33.9979 71.5395L34.0157 71.5753L33.9979 71.6645L33.9354 71.6824L33.8729 71.6913L33.8193 71.7092L33.7747 71.7181L33.7479 71.7627L33.7301 71.8163L33.7033 71.9234L33.6676 72.0394L33.6408 72.0929L33.6141 72.1376L33.5873 72.1643L33.5694 72.1733L33.5515 72.1911L33.5605 72.209L34.1942 72.5125L34.2121 72.5303L34.221 72.5571V72.5839L34.2121 72.6196L34.1228 72.6731L34.0692 72.6642L34.0068 72.6553L33.8461 72.6374L33.7658 72.6196L33.6944 72.6017L33.623 72.5749L33.5694 72.5393L33.1142 72.1108L32.9535 71.968L32.8911 71.9323L32.8197 71.8966L32.7482 71.8787L32.6679 71.8609L32.5162 71.8341L32.4448 71.8163L32.3823 71.7895V71.7449L32.4091 71.727L32.4358 71.7181L32.4894 71.7092L32.5519 71.7002L32.5697 71.6913L32.5965 71.6735V71.4503L32.6143 71.3789L32.6411 71.3253L32.6768 71.2718L32.7214 71.2182L32.775 71.1557L32.8375 71.0665L32.8554 71.0397L32.8643 71.004V70.9326L32.8554 70.8701L32.8643 70.8344L32.8821 70.8077L32.9089 70.7898H32.9714L33.0071 70.8077L33.0785 70.8344L33.1321 70.8791L33.141 70.9415L33.1321 70.9772L33.1231 71.0308L33.0606 71.0665L33.0071 71.1022L32.9446 71.1379L32.8911 71.1736L32.8375 71.2182L32.7929 71.2718L32.7571 71.3521L32.7393 71.4503L32.8018 71.6288L32.8464 71.7359L32.8821 71.7984L32.9178 71.8252L32.9803 71.8698L33.1677 71.9769L33.3463 72.084L33.4355 72.1197L33.4266 72.1108V72.0662L33.4355 72.0126L33.5069 71.8163L33.5515 71.7092Z" fill="#004098"/>
<path fill-rule="evenodd" clip-rule="evenodd" d="M36.9255 72.6999L36.9166 72.6642L36.9077 72.6107V72.4946L36.9791 72.4589L37.0594 72.4143L37.104 72.4054L37.1397 72.3875H37.1844L37.229 72.3965V72.3608L37.2558 72.3518V72.2268L37.1754 72.209H37.1308L37.1129 72.2179L37.104 72.2268H36.9612L36.9791 71.9769L37.0326 71.9055L37.0951 71.843L37.1665 71.7806L37.229 71.7181L37.3004 71.6199L37.3718 71.5038L37.4343 71.3967L37.4789 71.2896L37.4968 71.2361L37.5146 71.129L37.4968 71.0219L37.4879 70.9772L37.47 70.9326L37.4164 70.8612L37.3807 70.8344L37.345 70.8077L37.3004 70.7898L37.2558 70.7809H37.1576L37.0505 70.8166L36.9969 70.8433L36.9077 70.9148L36.8095 70.9772L36.7202 71.0397V71.0933H36.7024L36.6845 71.1111L36.6488 71.1468L36.6399 71.1915V71.2361L36.6578 71.245L36.6845 71.2539L36.7649 71.2182L36.8363 71.1736L36.9701 71.0754L37.0505 71.0308L37.1308 70.9951L37.229 70.9683H37.3539L37.3986 71.0219L37.4075 71.0665V71.1111L37.3896 71.2093L37.3629 71.3075L37.3182 71.4057L37.2647 71.4949L37.2111 71.5753L37.1487 71.6377L37.0951 71.6824L37.0594 71.6556L37.0772 71.5931L37.1219 71.5217L37.1397 71.486L37.1665 71.4592L37.1933 71.4414L37.229 71.4324V71.2896L37.1844 71.2629L37.1665 71.245L37.1576 71.2182H37.104V71.1736L36.9969 71.129H36.9791L36.9701 71.1736L36.9612 71.2093L36.9345 71.2718L36.8987 71.3253L36.863 71.361L36.8273 71.4057L36.8006 71.4414L36.7827 71.486V71.5395L36.8006 71.5664L36.8809 71.6199L36.9077 71.6377L36.9166 71.6645V71.6913L36.8898 71.727V71.7359L36.8809 71.7627L36.8452 71.7984L36.8095 71.8163H36.747L36.7381 71.8341L36.7202 71.852H36.6935L36.6756 71.4771L36.5952 71.4414H36.5506L36.5149 71.4771L36.4881 71.5217L36.4524 71.5931L36.4257 71.6645L36.4078 71.7449L36.3989 71.8163V71.8877L36.4078 71.9234L36.4257 71.9502L36.4346 71.968L36.4703 71.9769V72.0126L36.5506 72.0483L36.5863 72.0394L36.6131 72.0305L36.6309 72.0037L36.6488 71.9858L36.7381 72.0126H36.8541L36.863 72.084L36.8541 72.1554L36.8363 72.2179L36.8095 72.2804L36.7738 72.325L36.6845 72.3965L36.6309 72.4054V72.45L36.6488 72.5036L36.6667 72.5214L36.7113 72.5571L36.7559 72.6017L36.7202 72.7624L36.6309 72.7802L36.5417 72.807L36.4703 72.8427L36.4346 72.8516L36.39 72.8606V72.8963L36.3989 72.9231L36.4257 72.9498L36.4435 72.9766L36.4703 73.0212L36.7649 72.9587L36.9166 72.9409H36.9969L37.0772 72.9498L37.1487 72.9587L37.2111 72.9855L37.2825 72.9944H37.3539L37.3807 72.9855L37.4075 72.9677L37.4432 72.932L37.4789 72.8873L37.4968 72.8695L37.5236 72.8606L37.5146 72.8159L37.5057 72.7892L37.4521 72.7356L37.4253 72.7178L37.3896 72.7088L37.3004 72.6999H36.9255ZM36.4257 72.1376H36.4167L36.3721 72.1733L36.3364 72.2179L36.2739 72.3072L36.2115 72.4143L36.1668 72.5125L36.1133 72.6196L36.0508 72.7178L35.9794 72.807L35.9347 72.8427L35.8901 72.8784L35.8991 72.7713L35.9347 72.575L35.9705 72.4946L36.0329 72.325L36.0865 72.1644V72.1019L36.0776 72.0483L36.0597 71.9948V71.9412L36.1579 71.5842L36.1936 71.5395L36.2293 71.486L36.2918 71.4057L36.3275 71.361L36.3543 71.3164L36.3721 71.2629V71.2004L36.3275 71.1558H36.2561L36.1936 71.1825L35.908 71.2896L35.8455 71.3164L35.7919 71.361L35.7473 71.4057V71.4949L35.7919 71.5485L35.8366 71.5574H35.8812L36.0062 71.5217L36.0865 71.5128L35.9972 71.8966L35.9615 71.9144H35.9258L35.8455 71.9323L35.7651 71.9412L35.6937 71.9769L35.6759 72.0037L35.658 72.0394L35.6402 72.0929L35.6223 72.1554L35.6134 72.2179V72.2715L35.6313 72.325L35.6402 72.3429L35.658 72.3518L35.6848 72.3697H35.7116L35.7651 72.3786L35.8812 72.3518L35.9526 72.2715L35.9615 72.2893V72.3786L35.9437 72.4589L35.8991 72.6196L35.8723 72.6999L35.8544 72.7892L35.8366 72.9855L35.8812 73.0212L35.9258 73.0123L35.9615 72.9855L36.0419 72.9052L36.1133 72.7892L36.1936 72.6553L36.3275 72.3786L36.4257 72.1733V72.1376ZM35.7919 72.2536L35.7562 72.2625L35.7384 72.2179V72.1822L35.7473 72.1465L35.7741 72.1197L35.8812 72.0305L35.9169 72.0394L35.9437 72.0483L35.9169 72.1108L35.8812 72.1644L35.8366 72.2179L35.7919 72.2536Z" fill="#004098"/>
<path fill-rule="evenodd" clip-rule="evenodd" d="M39.148 71.3432L39.2283 71.3253L39.2997 71.3075H39.3622L39.4247 71.3164L39.4693 71.3432L39.505 71.3878L39.5407 71.4414L39.5675 71.5217L39.5318 71.6377L39.4782 71.7627L39.4515 71.8163L39.4158 71.8698L39.3711 71.9144L39.3265 71.9501L39.3354 71.968L39.3533 71.9769L39.4158 71.968L39.4693 71.9501L39.5764 71.9055L39.7371 71.8609L39.8621 71.8341H39.9692L40.0852 71.843L40.0941 71.8877V71.968L40.0852 72.0037L40.0138 72.1465L39.9156 72.1554L39.7014 72.209L39.6032 72.2447L39.3979 72.325L39.2283 72.4054L39.1391 72.4589L39.0944 72.4768L39.0498 72.4857L38.9516 72.5482L38.8534 72.6196L38.7642 72.6731L38.7106 72.691L38.6481 72.6999L38.5857 72.6374L38.5589 72.5928L38.541 72.5303L38.6303 72.4054L38.7285 72.2893L38.782 72.2536L38.8356 72.2268L38.8981 72.209L38.9606 72.1822L39.023 72.1465L39.0766 72.1108L39.148 72.0394L39.1926 71.9501L39.2373 71.843L39.2819 71.7627L39.2908 71.7092V71.6556L39.273 71.6377L39.2283 71.6645L39.1926 71.6913L39.1212 71.7627L39.0766 71.7984L39.032 71.8163L38.9695 71.8252H38.907L38.8623 71.7895L38.8534 71.7627L38.8356 71.727L38.8534 71.6645L38.8802 71.611L38.9159 71.5664L38.9606 71.5217L39.0587 71.4414L39.1034 71.3967L39.148 71.3432Z" fill="#004098"/>
<path fill-rule="evenodd" clip-rule="evenodd" d="M41.8079 70.04L41.8525 70.0936L41.8614 70.1293L41.8525 70.1561V70.2007L41.8168 70.2721L41.799 70.2989L41.7365 70.3435L41.6829 70.397L41.6204 70.4506L41.6026 70.4774L41.5758 70.5131L41.558 70.6023L41.5669 70.6559L41.5758 70.7273L41.6026 70.8344L41.6204 70.8701L41.7008 70.8433H41.7722L41.8347 70.8612L41.8882 70.879L42.0042 70.9415L42.0578 70.9594L42.1292 70.9772H42.3613L42.5844 70.9683L42.8076 70.9505L43.0486 70.9415L43.0664 70.9862L43.0219 71.0129L42.9861 71.0486L42.9682 71.0843L42.9414 71.12L42.9146 71.1914L42.8969 71.2182L42.8701 71.2539L42.7896 71.3075L42.7094 71.3432L42.629 71.361H42.5487L42.4684 71.3521L42.3881 71.3253L42.3077 71.2896L42.2185 71.245L42.0667 71.1557L41.915 71.0576L41.7722 70.9683L41.7008 70.9326L41.6383 70.9148L41.6026 70.9415L41.6294 71.0486L41.6472 71.1468L41.6294 71.3253L41.5758 71.486L41.5223 71.6556L41.5044 71.727L41.4866 71.7716L41.4598 71.8073L41.433 71.8519L41.3973 71.8787L41.3527 71.9055H41.2634L41.2277 71.8877L41.2455 71.8787L41.3348 71.6466L41.4062 71.4324L41.4241 71.3253L41.433 71.2093V71.0843L41.4152 70.9415L41.4419 70.9237L41.3616 70.7987L41.2991 70.8612L41.2366 70.9058L41.1652 70.9505L41.0938 70.9772L41.0313 70.9326L41.0046 70.9058L40.9867 70.8612L41.1563 70.6648L41.2455 70.5577L41.3259 70.4506L41.2902 70.3881L41.2723 70.3167L41.2366 70.1918L41.2098 70.0578L41.1652 69.924L41.1474 69.8793L41.1206 69.8347L41.0581 69.7544L40.9956 69.683L40.9778 69.6473L40.9689 69.6205V69.558L41.076 69.5045L41.1117 69.5223L41.2009 69.558L41.2366 69.5848L41.2902 69.6562L41.3259 69.7276L41.3616 69.8169L41.3795 69.915L41.4062 70.0936L41.433 70.2453L41.4687 70.2632V70.2453L41.549 70.2096L41.6294 70.1471L41.7186 70.0847L41.8079 70.04Z" fill="#004098"/>
<path fill-rule="evenodd" clip-rule="evenodd" d="M37.2289 53.8666L36.7023 53.8844L36.1846 53.9201L35.9258 53.9557L35.6759 53.9914L35.417 54.0272L34.9172 54.1342L34.4352 54.2592L34.1852 54.3307L33.9532 54.411L33.7122 54.4913L33.4801 54.5805L33.2481 54.6788L33.0249 54.7768L32.7929 54.8751L32.5786 54.9911L32.3555 55.1071L32.1413 55.2232L31.927 55.3482L31.5165 55.616L31.3112 55.7588L31.1148 55.9015L30.7221 56.2051L30.5346 56.3657L30.3561 56.5264L29.9991 56.8655L29.6599 57.2226L29.4992 57.4011L29.3386 57.5886L29.0351 57.9812L28.8922 58.1777L28.7494 58.383L28.4817 58.7935L28.3567 59.0077L28.2407 59.222L28.0086 59.6682L27.9104 59.8914L27.8033 60.1146L27.6248 60.5787L27.4642 61.0607L27.3214 61.5427L27.2678 61.7926L27.2142 62.0336L27.1606 62.2835L27.125 62.5424L27.0892 62.7923L27.0535 63.0511L27.0178 63.5688L27.0089 63.8366L27 64.0955L27.0089 64.3632L27.0178 64.6221L27.0535 65.1397L27.125 65.6575L27.1606 65.9074L27.3214 66.6571L27.4642 67.1392L27.5445 67.3801L27.6248 67.6122L27.8033 68.0763L27.9104 68.3084L28.0086 68.5316L28.1247 68.7547L28.2407 68.9689L28.3567 69.1921L28.4817 69.3974L28.6156 69.6116L28.7494 69.8169L28.8922 70.0221L29.0351 70.2186L29.1868 70.4149L29.3386 70.6023L29.6599 70.9772L29.9991 71.3343L30.1776 71.5038L30.3561 71.6645L30.5346 71.8341L30.7221 71.9858L30.9184 72.1465L31.1148 72.2893L31.3112 72.4411L31.5165 72.5749L31.7217 72.7178L31.927 72.8427L32.3555 73.0926L32.5786 73.2087L32.7929 73.3158L33.0249 73.4229L33.2481 73.5211L33.4801 73.6193L33.7122 73.7085L33.9532 73.7888L34.1852 73.8692L34.4352 73.9406L34.9172 74.0656L35.1671 74.1191L35.417 74.1637L35.6759 74.2084L35.9258 74.2441L36.4435 74.2976L36.7023 74.3155L36.9701 74.3244H37.4967L37.7556 74.3155L38.0144 74.2976L38.5321 74.2441L38.791 74.2084L39.2908 74.1191L39.5407 74.0656L39.7906 74.0031L40.0317 73.9406L40.2726 73.8692L40.5136 73.7888L40.7457 73.7085L40.9778 73.6193L41.4419 73.4229L41.8882 73.2087L42.1024 73.0926L42.3256 72.9677L42.5309 72.8427L42.7451 72.7178L42.9504 72.5749L43.1557 72.4411L43.352 72.2893L43.5485 72.1465L43.7358 71.9858L43.9233 71.8341L44.1107 71.6645L44.2892 71.5038L44.6374 71.1557L44.798 70.9772L44.9676 70.7898L45.1193 70.6023L45.2801 70.4149L45.4229 70.2186L45.5746 70.0221L45.7084 69.8169L45.8512 69.6116L45.9762 69.3974L46.1012 69.1921L46.2262 68.9689L46.3423 68.7547L46.5564 68.3084L46.7527 67.8443L46.8331 67.6122L46.9224 67.3801L47.0027 67.1392L47.0742 66.8981L47.1365 66.6571L47.199 66.4072L47.2527 66.1573L47.3418 65.6575L47.3775 65.3986L47.4311 64.8809L47.449 64.6221L47.4578 64.3632V63.8366L47.449 63.5688L47.4311 63.31L47.3775 62.7923L47.3418 62.5424L47.2972 62.2835L47.2527 62.0336L47.199 61.7926L47.1365 61.5427L47.0742 61.3017L47.0027 61.0607L46.9224 60.8197L46.8331 60.5787L46.7527 60.3466L46.6546 60.1146L46.5564 59.8914L46.3423 59.4451L46.2262 59.222L45.9762 58.7935L45.8512 58.5882L45.7084 58.383L45.5746 58.1777L45.4229 57.9812L45.2801 57.7849L45.1193 57.5886L44.9676 57.4011L44.798 57.2226L44.6374 57.044L44.2892 56.6959L44.1107 56.5264L43.7358 56.2051L43.5485 56.0533L43.352 55.9015L43.1557 55.7588L42.9504 55.616L42.7451 55.4821L42.5309 55.3482L42.3256 55.2232L42.1024 55.1071L41.8882 54.9911L41.6651 54.8751L41.4419 54.7768L40.9778 54.5805L40.7457 54.4913L40.5136 54.411L40.2726 54.3307L40.0317 54.2592L39.7906 54.1967L39.5407 54.1342L39.0409 54.0272L38.791 53.9914L38.2733 53.9201L37.7556 53.8844L37.4967 53.8754L37.2289 53.8666ZM37.4789 73.7888H36.979L36.7291 73.7799L36.4881 73.7621L36.2382 73.7353L35.7562 73.6817L35.2742 73.5925L34.8101 73.4854L34.578 73.4229L34.3459 73.3515L34.1228 73.2801L33.6765 73.1194L33.4623 73.0301L33.2391 72.932L33.0249 72.8338L32.6143 72.6196L32.2037 72.3875L31.811 72.1376L31.6236 72.0037L31.2487 71.7181L31.0701 71.5753L30.7131 71.2718L30.3739 70.9505L30.2133 70.7809L30.0615 70.6113L29.9009 70.4417L29.7492 70.2632L29.6063 70.0847L29.4635 69.8972L29.3296 69.7098L29.1958 69.5134L29.0708 69.326L28.9458 69.1207L28.8209 68.9243L28.7137 68.719L28.5977 68.5137L28.4995 68.2995L28.3924 68.0853L28.3032 67.8711L28.2139 67.6479L28.1247 67.4337L28.0532 67.2105L27.9729 66.9784L27.9104 66.7553L27.7855 66.2912L27.7408 66.0502L27.6873 65.8181L27.6159 65.3361L27.5891 65.0862L27.5713 64.8452L27.5534 64.5953L27.5356 64.0955L27.5534 63.5956L27.5713 63.3546L27.5891 63.1047L27.6159 62.8637L27.6873 62.3817L27.7408 62.1407L27.7855 61.9086L27.9729 61.2124L28.0532 60.9893L28.1247 60.7661L28.2139 60.543L28.3032 60.3288L28.3924 60.1056L28.4995 59.9003L28.5977 59.6861L28.7137 59.4808L28.8209 59.2755L28.9458 59.0702L29.1958 58.6775L29.4635 58.3025L29.6063 58.1152L29.7492 57.9367L29.9009 57.7581L30.0615 57.5796L30.2133 57.4101L30.5436 57.0798L30.7131 56.928L30.8916 56.7674L31.0701 56.6245L31.2487 56.4729L31.4361 56.3301L31.811 56.0623L32.2037 55.8123L32.409 55.6873L32.6143 55.5802L32.8196 55.4642L33.0249 55.3661L33.2391 55.2589L33.4623 55.1696L33.6765 55.0804L33.8996 54.9911L34.1228 54.9198L34.3459 54.8393L35.0421 54.652L35.2742 54.6073L35.7562 54.518L35.9972 54.4823L36.2382 54.4555L36.4881 54.4377L36.7291 54.42L36.979 54.411H37.4789L37.7288 54.42L37.9787 54.4377L38.2197 54.4555L38.4607 54.4823L38.7106 54.518L38.9427 54.5627L39.1837 54.6073L39.4158 54.652L39.6567 54.7145L39.8799 54.7768L40.112 54.8393L40.3351 54.9198L40.5672 54.9911L40.7814 55.0804L41.0046 55.1696L41.2188 55.2589L41.433 55.3661L41.6383 55.4642L41.8525 55.5802L42.0578 55.6873L42.6469 56.0623L42.8433 56.1961L43.0307 56.3301L43.2182 56.4729L43.3967 56.6245L43.5752 56.7674L43.7448 56.928L43.9143 57.0798L44.2446 57.4101L44.4054 57.5796L44.7087 57.9367L44.8515 58.1152L45.1371 58.49L45.2711 58.6775L45.5211 59.0702L45.7531 59.4808L45.8602 59.6861L45.9673 59.9003L46.0655 60.1056L46.1637 60.3288L46.253 60.543L46.4136 60.9893L46.485 61.2124L46.5564 61.4445L46.6189 61.6766L46.7259 62.1407L46.7706 62.3817L46.8421 62.8637L46.8689 63.1047L46.8956 63.3546L46.9134 63.5956L46.9224 63.8455V64.3454L46.9134 64.5953L46.8956 64.8452L46.8689 65.0862L46.8421 65.3361L46.7706 65.8181L46.7259 66.0502L46.6724 66.2912L46.6189 66.5233L46.5564 66.7553L46.485 66.9784L46.4136 67.2105L46.3333 67.4337L46.253 67.6479L46.1637 67.8711L45.9673 68.2995L45.8602 68.5137L45.7531 68.719L45.6371 68.9243L45.5211 69.1207L45.3961 69.326L45.2711 69.5134L45.1371 69.7098L44.8515 70.0847L44.7087 70.2632L44.557 70.4417L44.4054 70.6113L44.0839 70.9505L43.7448 71.2718L43.5752 71.4235L43.3967 71.5753L43.2182 71.7181L42.8433 72.0037L42.6469 72.1376L42.2542 72.3875L42.0578 72.5036L41.8525 72.6196L41.6383 72.7267L41.433 72.8338L41.0046 73.0301L40.7814 73.1194L40.5672 73.1998L40.3351 73.2801L40.112 73.3515L39.8799 73.4229L39.6567 73.4854L39.4158 73.5389L39.1837 73.5925L38.9427 73.6371L38.7106 73.6817L38.4607 73.7085L37.9787 73.7621L37.7288 73.7799L37.4789 73.7888Z" fill="#004098"/>
<path fill-rule="evenodd" clip-rule="evenodd" d="M42.1203 63.8098H43.37L43.352 63.5242L43.3252 63.2475L43.2807 62.9708L43.1557 62.4352L43.0754 62.1674L42.9861 61.9175L42.8789 61.6587L42.6469 61.1767L42.513 60.9446L42.3702 60.7215L42.2185 60.4983L42.0578 60.2841L41.8882 60.0788L41.7097 59.8825L41.5223 59.6861L41.3259 59.5076L40.9153 59.1684L40.469 58.8649L40.237 58.731L40.0049 58.6061L39.755 58.49L39.505 58.383L39.2551 58.2847L38.9963 58.2044L38.7285 58.133L38.4607 58.0705L37.9073 57.9812V57.7224L37.8806 57.7136L37.7824 57.6868L37.6931 57.6689L37.5771 57.6599L37.4253 57.6509L37.2379 57.6421L37.0415 57.6509L36.8898 57.6599L36.7648 57.6689L36.6756 57.6778L36.5774 57.7046L36.5506 57.7136V57.9902L36.2739 58.0259L35.9972 58.0705L35.7294 58.133L35.4617 58.2044L35.2028 58.2937L34.9529 58.383L34.703 58.49L34.462 58.6061L34.221 58.731L33.9889 58.8738L33.7658 59.0166L33.5515 59.1684L33.3373 59.338L33.132 59.5076L32.9357 59.695L32.7571 59.8825L32.5786 60.0788L32.4001 60.2841L32.2395 60.4983L32.0877 60.7215L31.9449 60.9446L31.8199 61.1767L31.695 61.4177L31.5789 61.6676L31.4808 61.9175L31.3915 62.1674L31.3112 62.4352L31.2398 62.703L31.1862 62.9708L31.1416 63.2475L31.1059 63.5242L31.088 63.8098H32.3376L32.3555 63.5867L32.3823 63.3724L32.418 63.1582L32.5251 62.7476L32.5875 62.5423L32.7304 62.1496L32.8196 61.9622L32.9178 61.7747L33.016 61.5962L33.132 61.4177L33.2481 61.2481L33.373 61.0785L33.498 60.9268L33.6408 60.7661L33.7836 60.6233L34.0871 60.3377L34.2477 60.2127L34.4174 60.0878L34.5869 59.9717L34.7654 59.8646L34.944 59.7664L35.1314 59.6682L35.3189 59.5879L35.5152 59.5076L35.7205 59.4362L35.9169 59.3737L36.1222 59.3291L36.3364 59.2844L36.5506 59.2487V59.7129L36.5417 59.7753L36.506 59.8289L36.4703 59.8914L36.4167 59.945L36.3632 59.9896L36.3007 60.0342L36.2471 60.061L36.2025 60.0788L36.0419 60.1235L35.7383 60.2306L35.5866 60.2931L35.4349 60.3644L35.1492 60.5073L34.8815 60.6858L34.7565 60.7751L34.6226 60.8732L34.5066 60.9714L34.3817 61.0785L34.2745 61.1945L34.1585 61.3106L34.0603 61.4266L33.9532 61.5516L33.864 61.6855L33.7658 61.8104L33.6854 61.9532L33.6051 62.0871L33.5248 62.2299L33.4533 62.3728L33.3909 62.5245L33.2838 62.828L33.2302 62.9886L33.1588 63.31L33.132 63.4706L33.1053 63.6402L33.0963 63.8098H34.2031L34.221 63.667L34.2745 63.3814L34.3103 63.2475L34.3548 63.1136L34.4084 62.9797L34.5155 62.7298L34.5869 62.6048L34.7298 62.3728L34.8101 62.2567L34.8993 62.1496L35.0779 61.9532L35.185 61.8551L35.2832 61.7658L35.3903 61.6765L35.5063 61.5962L35.6134 61.5248L35.7383 61.4534L35.8544 61.382L35.9794 61.3284L36.2471 61.2213L36.381 61.1767L36.5149 61.141L36.6488 61.1142L36.7916 61.0874L36.9344 61.0696L37.0861 61.0607H37.3807L37.5235 61.0696L37.6663 61.0874L37.9519 61.141L38.0858 61.1767L38.2197 61.2213L38.3536 61.2749L38.6035 61.382L38.7285 61.4534L38.9606 61.5962L39.0677 61.6765L39.2819 61.8551L39.4783 62.0514L39.5675 62.1496L39.6479 62.2567L39.8085 62.4888L39.88 62.6048L40.0049 62.8547L40.0585 62.9797L40.1477 63.2475L40.1834 63.3814L40.2191 63.5242L40.2548 63.8098H41.3706L41.3349 63.4706L41.2991 63.31L41.2723 63.1493L41.2277 62.9886L41.1831 62.8369L41.076 62.5334L41.0046 62.3817L40.9421 62.2389L40.8618 62.096L40.7011 61.8283L40.6119 61.6944L40.4155 61.4445L40.0942 61.0964L39.9781 60.9893L39.6032 60.6947L39.4693 60.6054L39.3355 60.5251L39.1927 60.4448L39.0498 60.3734L38.907 60.3109L38.6035 60.1859L38.3001 60.0967L38.2465 60.0699L38.184 60.0431L38.1215 60.0074L38.0501 59.9628L37.9966 59.9092L37.9519 59.8467L37.9163 59.7753L37.9073 59.7396V59.2487L38.1215 59.2844L38.3269 59.3201L38.5411 59.3737L38.7374 59.4362L38.9427 59.5076L39.1391 59.5879L39.3265 59.6682L39.514 59.7664L39.6925 59.8646L39.871 59.9717L40.0406 60.0878L40.2102 60.2127L40.3708 60.3377L40.5315 60.4715L40.6743 60.6144L40.96 60.9179L41.0938 61.0785L41.2099 61.2481L41.3349 61.4177L41.442 61.5962L41.5401 61.7747L41.6383 61.9622L41.7276 62.1496L41.8079 62.346L41.8793 62.5423L41.9418 62.7476L41.9953 62.9529L42.04 63.1582L42.0757 63.3724L42.1024 63.5867L42.1203 63.8098Z" fill="#004098"/>
<path fill-rule="evenodd" clip-rule="evenodd" d="M41.7901 65.8984L41.7276 66.0412L41.6562 66.193L41.5134 66.4786L41.3438 66.7553L41.1652 67.0142L40.96 67.273L40.7458 67.5051L40.5226 67.7283L40.2727 67.9335L40.0138 68.1299L39.7461 68.2995L39.4694 68.4601L39.3176 68.5316L39.1748 68.5941L39.0231 68.6565L38.8713 68.7101L38.7107 68.7636L38.5589 68.8172L38.0769 68.9243L37.9074 68.9511V68.1924L38.1573 68.1388L38.4072 68.0763L38.6393 67.996L38.8802 67.9067L39.1034 67.7996L39.3176 67.6836L39.5318 67.5497L39.7282 67.4069L39.9246 67.2552L40.1031 67.0856L40.2727 66.916L40.4423 66.7285L40.5851 66.5322L40.7279 66.3269L40.8529 66.1127L40.9689 65.8984H39.6836L39.5765 66.0323L39.4604 66.1662L39.3355 66.2912L39.2016 66.4072L39.0677 66.5143L38.9249 66.6214L38.7821 66.7107L38.6214 66.7999L38.4697 66.8713L38.3001 66.9428L38.1305 67.0053L37.9609 67.0499L37.7824 67.0856L37.6039 67.1124L37.4164 67.1302L37.229 67.1391L37.0416 67.1302L36.863 67.1124L36.6756 67.0856L36.4971 67.0499L36.3275 67.0053L36.1579 66.9428L35.8366 66.7999L35.5331 66.6214L35.3903 66.5143L35.2564 66.4072L35.1225 66.2912L35.0064 66.1662L34.8904 66.0323L34.7833 65.8984H33.4891L33.6051 66.1127L33.7301 66.3269L33.8729 66.5322L34.0246 66.7285L34.1853 66.9071L34.3549 67.0856L34.5334 67.2552L34.7298 67.4069L34.9261 67.5497L35.1403 67.6836L35.3546 67.7996L35.5777 67.9067L35.8098 67.996L36.0508 68.0763L36.3007 68.1388L36.5506 68.1924V68.9511L36.381 68.9243L36.0597 68.8529L35.7384 68.7636L35.4349 68.6565L35.2832 68.5941L35.1403 68.5226L34.9886 68.4512L34.7119 68.2995L34.4442 68.121L34.1853 67.9335L33.9443 67.7283L33.7122 67.5051L33.498 67.2641L33.3016 67.0142L33.1142 66.7553L32.9535 66.4786L32.8018 66.193L32.7393 66.0412L32.6768 65.8984H31.3469L31.4272 66.1305L31.5165 66.3626L31.6057 66.5857L31.7128 66.8089L31.8199 67.0231L32.0699 67.4337L32.2038 67.639L32.3466 67.8354L32.4983 68.0228L32.6501 68.2013L32.8197 68.3798L32.9893 68.5494L33.3463 68.8707L33.739 69.1563L33.9354 69.2903L34.1406 69.4152L34.5691 69.6473L34.7922 69.7455L35.0243 69.8347L35.2475 69.924L35.4885 69.9954L35.7205 70.0668L35.9705 70.1204L36.2115 70.165L36.4614 70.2007L36.7202 70.2275L36.9701 70.2453H37.4879L37.7467 70.2275L37.9966 70.2007L38.2466 70.165L38.4965 70.1204L38.7374 70.0668L38.9784 69.9954L39.2105 69.924L39.4426 69.8347L39.6657 69.7455L39.8889 69.6473L40.3173 69.4152L40.5226 69.2903L40.7279 69.1563L40.9243 69.0135L41.1117 68.8707L41.2991 68.7101L41.4688 68.5494L41.6473 68.3798L41.9686 68.0228L42.1114 67.8354L42.2542 67.639L42.397 67.4337L42.522 67.2284L42.638 67.0231L42.7541 66.8089L42.9504 66.3626L43.1112 65.8984H41.7901Z" fill="#004098"/>
<path fill-rule="evenodd" clip-rule="evenodd" d="M38.1215 64.3096L37.8895 64.3275L37.7913 64.3543L37.6128 64.4257L37.5414 64.4614L37.4164 64.5507L37.3271 64.6399L37.2647 64.7202L37.229 64.7738L37.22 64.7917L37.1576 64.7024L37.0148 64.5596L36.9434 64.506L36.863 64.4614L36.7916 64.4167L36.7113 64.39L36.6398 64.3632L36.506 64.3275L36.3899 64.3096H31.088L31.0969 64.5863L31.1326 64.8541L31.1683 65.1308L31.2219 65.3986H36.381L36.3721 65.3896L36.4613 65.3986L36.5506 65.4165L36.6577 65.4432L36.7738 65.4879L36.8898 65.5504L37.0058 65.6307L37.0594 65.6842L37.1219 65.7378L37.1665 65.8003L37.22 65.8717L37.2647 65.8003L37.3182 65.7288L37.3985 65.6485L37.5057 65.5682L37.5682 65.5236L37.6396 65.4879L37.7199 65.4522L37.8091 65.4254L37.9073 65.4075L38.0144 65.3896V65.3986H43.245L43.2895 65.1308L43.3342 64.8541L43.361 64.5863L43.3788 64.3096H38.1215Z" fill="#004098"/>
<path fill-rule="evenodd" clip-rule="evenodd" d="M30.2133 65.8538L28.7316 66.1395L28.6691 65.827L28.6513 65.7199L28.6602 65.6396L28.6691 65.6039L28.6959 65.5593L28.7227 65.5236L28.7584 65.4789L28.803 65.4432L28.8566 65.4075L28.9815 65.3451L29.1333 65.2915L29.3207 65.2468L29.4367 65.2201L29.5528 65.2111H29.6599L29.7581 65.2201L29.8473 65.229L29.9188 65.2468L29.9812 65.2736L30.0348 65.3093L30.0794 65.354L30.1062 65.3986L30.133 65.4522L30.1508 65.5236L30.2133 65.8538ZM30.0169 65.7646L29.9812 65.5682L29.9634 65.5146L29.9455 65.47L29.892 65.3986L29.8563 65.3807L29.8117 65.3629L29.767 65.3451H29.7135L29.6242 65.3361L29.4457 65.354L29.2315 65.3896L29.1422 65.4165L29.0619 65.4522L28.9905 65.4879L28.9369 65.5236L28.8922 65.5593L28.8655 65.595L28.8388 65.6396V65.6664L28.8298 65.7021L28.8388 65.7913L28.8833 65.9877L30.0169 65.7646Z" fill="#004098"/>
<path fill-rule="evenodd" clip-rule="evenodd" d="M30.0526 64.9523L28.5174 64.6846L28.5084 64.5507L29.9991 64.0865L30.008 64.2293L29.5528 64.3632L29.5795 64.747L30.0437 64.8274L30.0526 64.9523ZM29.4099 64.7203L29.3921 64.4078L28.9815 64.5328L28.6691 64.6132L28.8119 64.6221L28.9637 64.6489L29.4099 64.7203Z" fill="#004098"/>
<path fill-rule="evenodd" clip-rule="evenodd" d="M30.008 63.9169L28.4995 63.8277V63.7027L29.8384 63.783L29.8652 63.3278L30.0437 63.3368L30.008 63.9169Z" fill="#004098"/>
<path fill-rule="evenodd" clip-rule="evenodd" d="M28.5977 62.7565L30.0967 62.9796L30.0794 63.0958L28.5804 62.8727L28.5977 62.7565Z" fill="#004098"/>
<path fill-rule="evenodd" clip-rule="evenodd" d="M30.1151 62.7833L28.7316 62.0693L28.7673 61.9443L30.3293 61.9354L30.2936 62.0693H29.8206L29.7313 62.4442L30.1508 62.6495L30.1151 62.7833ZM29.5795 62.3728L29.651 62.0693L29.2225 62.0603L28.9012 62.0425L29.169 62.1674L29.5795 62.3728Z" fill="#004098"/>
<path fill-rule="evenodd" clip-rule="evenodd" d="M30.3828 61.7747L28.9726 61.2124L29.0172 61.0964L30.3114 61.0875L29.2047 60.6412L29.2403 60.534L30.6506 61.0964L30.606 61.2124L29.3207 61.2213L30.4275 61.6676L30.3828 61.7747Z" fill="#004098"/>
<path fill-rule="evenodd" clip-rule="evenodd" d="M30.0526 59.1148L30.124 59.0077L30.8559 59.4897L31.0166 59.6058L31.1416 59.7129L31.1862 59.7664L31.2219 59.82L31.2487 59.8825L31.2576 59.936L31.2665 59.9896L31.2576 60.0521L31.2398 60.1056L31.213 60.1592L31.1594 60.2216L31.0969 60.2752L31.0612 60.2931L31.0166 60.302L30.9363 60.3109L30.847 60.2931L30.731 60.2573L30.5971 60.1859L30.4543 60.0967L29.7224 59.6147L29.7849 59.5165L30.5168 59.9985L30.6685 60.0878L30.7846 60.1413L30.8292 60.1502L30.8649 60.1592H30.9095L30.9452 60.1502L30.972 60.1413L31.0077 60.1235L31.0345 60.0967L31.0523 60.0699L31.0791 60.0164L31.0969 59.9628V59.9092L31.0791 59.8557L31.0434 59.8021L30.9809 59.7396L30.8917 59.6682L30.7846 59.5968L30.0526 59.1148Z" fill="#004098"/>
<path fill-rule="evenodd" clip-rule="evenodd" d="M31.5611 59.6236L30.4186 58.6239L30.4989 58.5258L31.7128 58.9453L30.8202 58.1597L30.9006 58.0705L32.0342 59.0702L31.9538 59.1684L30.7399 58.7489L31.6325 59.5344L31.5611 59.6236Z" fill="#004098"/>
<path fill-rule="evenodd" clip-rule="evenodd" d="M31.3201 57.6689L32.3539 58.774L32.2663 58.856L31.2324 57.7509L31.3201 57.6689Z" fill="#004098"/>
<path fill-rule="evenodd" clip-rule="evenodd" d="M32.7839 58.4097L31.57 57.4278L31.6771 57.3476L32.5429 58.0705L32.7303 58.24L32.6143 58.017L32.1413 56.9905L32.2484 56.9102L32.8821 58.3383L32.7839 58.4097Z" fill="#004098"/>
<path fill-rule="evenodd" clip-rule="evenodd" d="M33.3284 58.017L32.5697 56.7049L33.1499 56.3657L33.2391 56.5174L32.7661 56.7942L32.9982 57.1958L33.4355 56.937L33.5337 57.0977L33.0874 57.3476L33.3462 57.7939L33.8372 57.5171L33.9264 57.6689L33.3284 58.017Z" fill="#004098"/>
<path fill-rule="evenodd" clip-rule="evenodd" d="M34.1495 57.5528L33.5783 56.1515L33.9532 55.9998L34.0157 55.973L34.0603 55.964H34.1495L34.1852 55.973L34.2924 56.0533L34.328 56.098L34.3638 56.1426L34.4173 56.2496L34.4441 56.3301L34.462 56.4014L34.4709 56.4729L34.462 56.5354L34.4441 56.5977L34.4173 56.6514L34.3816 56.6959L34.337 56.7317L34.3906 56.7584L34.4352 56.7852L34.5244 56.8477L34.6048 56.928L34.9082 57.2493L34.7654 57.3028L34.5334 57.062L34.4173 56.937L34.337 56.8745L34.2835 56.8387L34.2388 56.8209H34.1942L34.1406 56.8299L34.0067 56.8834L34.2656 57.5081L34.1495 57.5528ZM33.9443 56.7227L34.1852 56.6245L34.2566 56.5889L34.3013 56.5532L34.3191 56.4996L34.328 56.4461V56.3746L34.3013 56.3033L34.2745 56.2496L34.2477 56.214L34.2209 56.1783L34.1852 56.1515L34.1138 56.1336H34.0692L34.0246 56.1515L33.7568 56.2586L33.9443 56.7227Z" fill="#004098"/>
<path fill-rule="evenodd" clip-rule="evenodd" d="M34.935 56.7317L35.0421 56.687L35.0868 56.7852L35.1314 56.8655L35.185 56.9102L35.2474 56.9459L35.3188 56.9637H35.3545L35.3902 56.9548L35.4438 56.937L35.5152 56.8834L35.542 56.8477L35.5509 56.8031L35.5598 56.7495V56.7049L35.5509 56.6514L35.533 56.5889L35.4973 56.5354L35.4617 56.4996L35.417 56.4729L35.3367 56.4549L35.2028 56.4371L35.0868 56.4104L35.0421 56.4014L34.9975 56.3836L34.935 56.3389L34.8815 56.2764L34.8368 56.1961L34.8101 56.1068L34.7922 56.0176L34.7833 55.9373L34.7922 55.857L34.819 55.7945L34.8547 55.732L34.8993 55.6784L34.9529 55.6427L35.0153 55.6159L35.0689 55.607H35.1136L35.1671 55.6159L35.2117 55.6249L35.2474 55.6427L35.2921 55.6695L35.3278 55.7052L35.3635 55.7498L35.3992 55.7945L35.4259 55.848L35.4438 55.9015L35.4706 55.973L35.3545 56.0087L35.3367 55.9462L35.301 55.8926L35.2742 55.848L35.2028 55.7945L35.1136 55.7765L35.0689 55.7855L35.0243 55.8033L34.9796 55.8302L34.9529 55.857L34.9261 55.8926L34.9082 55.964V56.0087L34.9172 56.0623L34.9261 56.098L34.9439 56.1336L34.9707 56.1603L34.9886 56.1873L35.0243 56.2051L35.0689 56.2228L35.1939 56.2408L35.3188 56.2586L35.3992 56.2764L35.4438 56.2943L35.4884 56.3211L35.5241 56.3568L35.5598 56.3924L35.5955 56.4371L35.6223 56.4906L35.658 56.5977L35.6759 56.6602L35.6848 56.7227V56.7852L35.6759 56.8387L35.6669 56.9012L35.6491 56.9459L35.6223 56.9905L35.5955 57.0352L35.5598 57.062L35.5241 57.0977L35.4795 57.1155L35.4259 57.1333L35.3456 57.1423H35.2742L35.1939 57.1155L35.1314 57.0708L35.0689 57.0084L35.0153 56.928L34.9707 56.8387L34.935 56.7317Z" fill="#004098"/>
<path fill-rule="evenodd" clip-rule="evenodd" d="M36.0329 56.9815L35.8008 55.4821L35.9169 55.4642L36.1579 56.9548L36.0329 56.9815Z" fill="#004098"/>
<path fill-rule="evenodd" clip-rule="evenodd" d="M36.6845 56.9012L36.5952 55.5624L36.2917 55.5892L36.2739 55.4107L37.0147 55.3571L37.0237 55.5357L36.7202 55.5535L36.8095 56.8924L36.6845 56.9012Z" fill="#004098"/>
<path fill-rule="evenodd" clip-rule="evenodd" d="M37.5771 56.8834L37.6128 56.2496L37.3093 55.3482L37.461 55.3571L37.6128 55.8302L37.6931 56.089L37.8091 55.8302L38.0144 55.3929L38.1573 55.4017L37.7377 56.2496L37.702 56.8924L37.5771 56.8834Z" fill="#004098"/>
<path fill-rule="evenodd" clip-rule="evenodd" d="M38.7731 56.2764L38.8266 56.1068L38.8891 55.9551L38.9248 55.8926L38.9605 55.8302L39.0051 55.7765L39.0498 55.732L39.1391 55.6605L39.1837 55.6338L39.2283 55.616L39.2729 55.607L39.3176 55.5982H39.3622L39.4068 55.607L39.4604 55.6249L39.5139 55.6605L39.5585 55.7052L39.6032 55.7498L39.6299 55.8123L39.6567 55.8838L39.6746 55.964L39.6835 56.0533L39.6924 56.1515L39.6835 56.2586L39.6656 56.3657L39.6389 56.4817L39.5942 56.6334L39.5407 56.7674L39.4693 56.8834L39.3979 56.9815L39.3443 57.0262L39.2551 57.0977L39.1658 57.1333L39.1123 57.1423L39.0676 57.1333H39.0141L38.9695 57.1155L38.9248 57.0887L38.8891 57.062L38.8534 57.0262L38.8266 56.9815L38.7998 56.937L38.7731 56.8745L38.7552 56.812L38.7374 56.6959V56.5621L38.7463 56.4282L38.7731 56.2764ZM38.898 56.3121L38.8713 56.4461L38.8623 56.5621V56.6602L38.8802 56.7584L38.907 56.8387L38.9516 56.8924L38.9962 56.937L39.0587 56.9637L39.1212 56.9727L39.1926 56.9548L39.2551 56.9192L39.3176 56.8655L39.38 56.7942L39.4336 56.6959L39.4782 56.5799L39.5139 56.4461L39.5407 56.3479L39.5496 56.2586L39.5585 56.1783V56.089L39.5407 55.9818L39.5228 55.9283L39.4961 55.8838L39.4693 55.839L39.4425 55.8123L39.4068 55.7855L39.3622 55.7765L39.2997 55.7677L39.2283 55.7855L39.1658 55.8123L39.1034 55.8658L39.0409 55.9463L38.9873 56.0443L38.9427 56.1693L38.898 56.3121Z" fill="#004098"/>
<path fill-rule="evenodd" clip-rule="evenodd" d="M39.6211 57.2761L40.1834 55.8658L40.7636 56.098L40.6922 56.2676L40.228 56.0801L40.0585 56.5174L40.4601 56.6782L40.3887 56.8387L39.9871 56.687L39.7372 57.3208L39.6211 57.2761Z" fill="#004098"/>
<path fill-rule="evenodd" clip-rule="evenodd" d="M40.8974 57.8742L41.5848 56.7317L41.3259 56.5709L41.4152 56.4193L42.0489 56.8031L41.9507 56.9548L41.6919 56.7942L41.0045 57.9367L40.8974 57.8742Z" fill="#004098"/>
<path fill-rule="evenodd" clip-rule="evenodd" d="M41.433 58.2133L42.3702 57.0262L42.8968 57.4368L42.7808 57.5796L42.3524 57.2405L42.0667 57.6064L42.4684 57.9189L42.3613 58.0617L41.9507 57.7492L41.6383 58.1509L42.0846 58.499L41.9685 58.6418L41.433 58.2133Z" fill="#004098"/>
<path fill-rule="evenodd" clip-rule="evenodd" d="M42.9951 58.9096L43.0486 59.0345L42.9414 59.1059L42.8521 59.1505L42.7629 59.1863L42.6737 59.2041L42.5308 59.1863L42.4684 59.1505L42.4148 59.1059L42.3702 59.0613L42.3434 59.0077L42.3256 58.9542L42.3166 58.8917L42.3256 58.8292L42.3434 58.7578L42.3702 58.6775L42.4059 58.5972L42.4594 58.508L42.5219 58.4275L42.6826 58.249L42.7718 58.1687L42.8611 58.0973L42.9504 58.0437L43.0306 57.9992L43.1111 57.9634L43.1914 57.9367L43.2627 57.9277H43.3252L43.3877 57.9367L43.4502 57.9545L43.5037 57.9812L43.5484 58.0259L43.584 58.0795L43.6109 58.133L43.6287 58.1955V58.267L43.6109 58.3473L43.584 58.4187L43.5395 58.508L43.4859 58.5972L43.3699 58.5348L43.4055 58.4723L43.4412 58.4187L43.4592 58.3561L43.468 58.3115L43.477 58.258L43.468 58.2133L43.4502 58.1777L43.4234 58.142L43.352 58.0884L43.2627 58.0705H43.2181L43.1646 58.0795L43.1111 58.1062L43.0486 58.133L42.9861 58.1687L42.9146 58.2133L42.8433 58.2758L42.7718 58.3383L42.6737 58.4455L42.5933 58.5436L42.5308 58.6329L42.4951 58.7221L42.4773 58.8025V58.8738L42.4951 58.9363L42.5308 58.9899L42.5755 59.0167L42.6112 59.0345L42.6647 59.0434H42.7183L42.7808 59.0345L42.8521 59.0077L42.9236 58.9631L42.9951 58.9096Z" fill="#004098"/>
<path fill-rule="evenodd" clip-rule="evenodd" d="M42.8521 59.5522L44.0751 58.6596L44.1464 58.7578L43.6465 59.1238L43.9323 59.5165L44.4321 59.1505L44.5034 59.2488L43.2807 60.1413L43.2092 60.0432L43.7805 59.6147L43.5037 59.2309L42.9236 59.6504L42.8521 59.5522Z" fill="#004098"/>
<path fill-rule="evenodd" clip-rule="evenodd" d="M43.4324 60.3823L44.7712 59.6683L44.8248 59.7754L44.0036 60.7662L45.0568 60.2038L45.1103 60.3109L43.7715 61.025L43.718 60.9089L44.5392 59.9182L43.486 60.4805L43.4324 60.3823Z" fill="#004098"/>
<path fill-rule="evenodd" clip-rule="evenodd" d="M44.5749 60.9982L44.7535 60.9446L44.914 60.9179L44.9855 60.9089H45.1193L45.1818 60.9179L45.2889 60.9536L45.3336 60.9714L45.3782 60.9982L45.4139 61.0339L45.4674 61.1053L45.4854 61.1499L45.4942 61.2035L45.5032 61.266L45.4942 61.3284L45.4407 61.4534L45.3961 61.5159L45.3426 61.5695L45.2711 61.6319L45.1908 61.6855L45.1015 61.739L45.0033 61.7837L44.8963 61.8283L44.7355 61.8729L44.5927 61.9086L44.4587 61.9175L44.3339 61.9086L44.2714 61.8908L44.2179 61.8818L44.1644 61.8551L44.1196 61.8283L44.0839 61.8015L44.0483 61.7658L44.0216 61.7212L44.0036 61.6766L43.9946 61.6319L43.9858 61.5784V61.5337L44.0036 61.4802L44.0216 61.4355L44.0483 61.382L44.0751 61.3374L44.1196 61.2838L44.2089 61.2035L44.316 61.1231L44.441 61.0607L44.5749 60.9982ZM44.6195 61.1231L44.4946 61.1678L44.3874 61.2302L44.3071 61.2838L44.2357 61.3552L44.1911 61.4266L44.1644 61.4891L44.1554 61.5516L44.1644 61.6141L44.1999 61.6766L44.2446 61.7212L44.3071 61.7569L44.3874 61.7747L44.4857 61.7837L44.5927 61.7747L44.7177 61.748L44.8515 61.7123L44.9408 61.6766L45.0211 61.6319L45.1015 61.5962L45.164 61.5427L45.2176 61.5069L45.2532 61.4713L45.2889 61.4266L45.3068 61.382L45.3246 61.3374L45.3336 61.2927V61.2481L45.3246 61.2035L45.2889 61.1499L45.2443 61.0964L45.1818 61.0696L45.1015 61.0428L45.0033 61.0339L44.8873 61.0428L44.7623 61.0785L44.6195 61.1231Z" fill="#004098"/>
<path fill-rule="evenodd" clip-rule="evenodd" d="M44.2267 62.3014L45.7084 61.9889L45.7352 62.105L44.4321 62.3906L44.5302 62.8369L44.3517 62.8726L44.2267 62.3014Z" fill="#004098"/>
<path fill-rule="evenodd" clip-rule="evenodd" d="M45.1283 62.9975L45.3068 62.9886L45.4674 63.0065L45.6102 63.0333L45.6727 63.0511L45.7799 63.1047L45.8245 63.1404L45.8692 63.1672L45.8959 63.2029L45.9227 63.2475L45.9405 63.2832L45.9583 63.3278L45.9672 63.3724V63.4349L45.9495 63.4974L45.9227 63.551L45.887 63.6045L45.8422 63.6581L45.7174 63.7473L45.6371 63.7919L45.4406 63.8455L45.3336 63.8634L45.2176 63.8812L45.0568 63.8902L44.9051 63.8812L44.7802 63.8545L44.6552 63.8098L44.5482 63.7562L44.4767 63.6848L44.4409 63.6402L44.4054 63.551L44.3964 63.5063V63.4528L44.4054 63.4081L44.4409 63.3189L44.5124 63.2296L44.557 63.1939L44.6107 63.1582L44.7177 63.0958L44.8427 63.0511L44.9765 63.0154L45.1283 62.9975ZM45.1283 63.1225L45.0033 63.1404L44.8873 63.1672L44.789 63.2029L44.7087 63.2564L44.6462 63.31L44.6017 63.3635L44.5749 63.426L44.5659 63.4885L44.5837 63.551L44.6195 63.6134L44.673 63.6581L44.7445 63.7027L44.8337 63.7384L44.9408 63.7562H45.2086L45.3068 63.7473L45.3961 63.7295L45.6102 63.6581L45.6549 63.6223L45.6995 63.5956L45.7352 63.551L45.762 63.5152L45.7799 63.4706L45.7887 63.4349V63.3903L45.7799 63.3278L45.7442 63.2653L45.6906 63.2207L45.6192 63.1761L45.5299 63.1404L45.4139 63.1225H45.1283Z" fill="#004098"/>
<path fill-rule="evenodd" clip-rule="evenodd" d="M45.0211 64.6578L45.1998 64.6667L45.1818 65.0594L44.6195 65.0237L44.5214 64.9255L44.4857 64.872L44.4499 64.8274L44.4321 64.7738L44.4142 64.7202L44.4054 64.6756V64.6221L44.4142 64.5596L44.4321 64.4971L44.4677 64.4435L44.5124 64.39L44.566 64.3454L44.6285 64.3007L44.6998 64.265L44.789 64.2382L44.8783 64.2204L44.9855 64.2025H45.2086L45.3336 64.2115L45.5479 64.265L45.6371 64.2918L45.7262 64.3364L45.7977 64.381L45.8512 64.4257L45.896 64.4792L45.9315 64.5328L45.9583 64.5863L45.9673 64.6488V64.7649L45.9495 64.8184L45.9315 64.8541L45.878 64.9255L45.8423 64.9612L45.8067 64.988L45.7532 65.0059L45.7085 65.0326L45.646 65.0416L45.4942 65.0683L45.4586 64.9523L45.5657 64.9345L45.646 64.9077L45.7085 64.872L45.7532 64.8274L45.7887 64.7738L45.7977 64.7024V64.6578L45.7887 64.6131L45.771 64.5685L45.7442 64.5238L45.7085 64.4881L45.6639 64.4525L45.6102 64.4257L45.5479 64.3989L45.4764 64.3721L45.3961 64.3543L45.3068 64.3364L45.2176 64.3275H45.0748L44.9498 64.3364L44.8427 64.3632L44.7535 64.3989L44.682 64.4435L44.6285 64.4971L44.6017 64.5596L44.5838 64.631V64.6667L44.5927 64.7024L44.6195 64.7827L44.673 64.8541L44.7267 64.9077L45.0033 64.9255L45.0211 64.6578Z" fill="#004098"/>
<path fill-rule="evenodd" clip-rule="evenodd" d="M44.3071 65.5147L44.9408 65.6485L45.8691 65.479L45.8334 65.6218L45.3514 65.711L45.0836 65.7467L45.7262 66.1751L45.6906 66.3091L44.914 65.7646L44.2892 65.6396L44.3071 65.5147Z" fill="#004098"/>
<path fill-rule="evenodd" clip-rule="evenodd" d="M35.9257 66.7375H36.0954V65.8895H35.9257V66.7375Z" fill="#004098"/>
<path fill-rule="evenodd" clip-rule="evenodd" d="M37.0861 66.2109L37.0772 66.1395L37.0593 66.0769L37.0236 66.0145L36.979 65.9609L36.8719 65.8895L36.8005 65.8717L36.7291 65.8627L36.6577 65.8717L36.5863 65.8895L36.5238 65.9252L36.4791 65.9609L36.4345 66.0145L36.3988 66.0769L36.381 66.1395L36.372 66.2109L36.381 66.2823L36.3988 66.3447L36.4345 66.4072L36.5238 66.4965L36.5863 66.5322L36.6577 66.55L36.7291 66.5589L36.622 66.7464H36.8094L37.0147 66.4162L37.0415 66.3715L37.0683 66.318L37.0861 66.2109ZM36.5327 66.2466V66.1662L36.5416 66.1305L36.5595 66.1037L36.613 66.0502L36.6487 66.0323L36.6845 66.0234L36.7291 66.0145L36.7648 66.0234L36.8094 66.0323L36.8362 66.0502L36.8719 66.0769L36.9076 66.1305L36.9255 66.1662V66.2466L36.8898 66.318L36.8719 66.3447L36.8362 66.3715L36.8094 66.3894L36.7648 66.3983H36.6845L36.6487 66.3894L36.613 66.3715L36.5595 66.318L36.5416 66.2823L36.5327 66.2466Z" fill="#004098"/>
<path fill-rule="evenodd" clip-rule="evenodd" d="M38.8088 66.2644V66.1395L38.7553 66.0145L38.7106 65.9609L38.6571 65.9252L38.5946 65.8895L38.5232 65.8717L38.4518 65.8627L38.3804 65.8717L38.3179 65.8895L38.2554 65.9252L38.2018 65.9609L38.1573 66.0145L38.1215 66.0769L38.1037 66.1395L38.0947 66.2109L38.1037 66.2823L38.1215 66.3447L38.1573 66.4072L38.2018 66.4518L38.2554 66.4965L38.3179 66.5322L38.3804 66.55L38.4518 66.5589L38.3447 66.7464H38.5321L38.7374 66.4162L38.7731 66.3715L38.8088 66.2644ZM38.2554 66.2466V66.1662L38.2733 66.1305L38.2911 66.1037L38.3447 66.0502L38.3804 66.0323L38.4518 66.0145L38.4964 66.0234L38.5321 66.0323L38.5678 66.0502L38.6214 66.1037L38.6392 66.1305L38.6482 66.1662V66.2466L38.6392 66.2823L38.6214 66.318L38.5678 66.3715L38.5321 66.3894L38.4964 66.3983H38.4161L38.3804 66.3894L38.3447 66.3715L38.2911 66.318L38.2554 66.2466Z" fill="#004098"/>
<path fill-rule="evenodd" clip-rule="evenodd" d="M37.9698 66.3983H37.8716V66.0948H37.702V66.3983H37.4075L37.6753 65.836H37.5146L37.1308 66.5768H37.702V66.7642H37.8716V66.5768H37.9698V66.3983Z" fill="#004098"/>
<path fill-rule="evenodd" clip-rule="evenodd" d="M38.3804 62.8637L37.6039 63.7384H37.3271V63.5242L37.9609 62.6227L37.1843 61.7301L36.4078 62.6227L37.0415 63.5242V63.7384H36.7648L35.9883 62.8637L35.0154 63.1047L35.4706 63.8723H37.0326V64.3364H37.3361V63.8723H38.8981L39.3533 63.1047L38.3804 62.8637Z" fill="#004098"/>
<path fill-rule="evenodd" clip-rule="evenodd" d="M51.84 70.1611H53.056C53.2952 70.1611 53.4888 70.1937 53.6368 70.2585C53.7842 70.3239 53.9062 70.417 54.0025 70.5384C54.0986 70.6605 54.1683 70.8017 54.2121 70.9632C54.2552 71.1248 54.2768 71.2956 54.2768 71.4763C54.2768 71.7593 54.2447 71.9788 54.18 72.1348C54.1159 72.2908 54.0265 72.4215 53.9118 72.5263C53.7977 72.6318 53.6751 72.7021 53.5436 72.7372C53.3643 72.7853 53.2015 72.8093 53.056 72.8093H51.84V70.1611ZM52.6582 70.761V72.2075H52.8586C53.0301 72.2075 53.1515 72.189 53.2237 72.1508C53.2958 72.1132 53.3525 72.0466 53.3939 71.9522C53.4345 71.8579 53.4548 71.7044 53.4548 71.4923C53.4548 71.2118 53.4092 71.02 53.318 70.9164C53.2261 70.8128 53.0745 70.761 52.8624 70.761H52.6582ZM55.6819 71.512L54.9797 71.438C55.0062 71.3153 55.0444 71.2185 55.0943 71.1483C55.1442 71.0779 55.2159 71.0169 55.3102 70.9651C55.3774 70.9275 55.4704 70.8985 55.5882 70.8781C55.7059 70.8578 55.8336 70.8473 55.9711 70.8473C56.1913 70.8473 56.3689 70.8596 56.5021 70.8843C56.6357 70.909 56.7474 70.9608 56.8361 71.0391C56.8991 71.0934 56.9484 71.1698 56.9848 71.269C57.0205 71.369 57.0384 71.4633 57.0384 71.554V72.4011C57.0384 72.4911 57.0446 72.5621 57.0558 72.6133C57.0674 72.6644 57.0921 72.7298 57.131 72.8093H56.441C56.4133 72.76 56.3953 72.7224 56.3867 72.6965C56.378 72.6706 56.37 72.6299 56.3613 72.5744C56.2653 72.6675 56.1691 72.7335 56.0742 72.773C55.944 72.826 55.793 72.8525 55.6209 72.8525C55.3922 72.8525 55.2182 72.7995 55.0994 72.6934C54.9808 72.588 54.9216 72.4572 54.9216 72.3019C54.9216 72.1557 54.9643 72.0361 55.0499 71.9424C55.1357 71.8481 55.2928 71.7784 55.5229 71.7328C55.7991 71.6773 55.978 71.6384 56.0599 71.6162C56.1412 71.594 56.2283 71.5644 56.3195 71.5286C56.3195 71.438 56.301 71.3751 56.264 71.3388C56.2264 71.303 56.1611 71.2845 56.0666 71.2845C55.9465 71.2845 55.8564 71.3042 55.796 71.3425C55.7492 71.3727 55.711 71.4294 55.6819 71.512ZM56.3195 71.8986C56.2184 71.935 56.1129 71.9671 56.0038 71.9948C55.8546 72.0343 55.7596 72.0737 55.7201 72.112C55.6789 72.152 55.6586 72.1971 55.6586 72.2476C55.6586 72.3055 55.6789 72.3524 55.719 72.3894C55.7596 72.4258 55.8188 72.4443 55.8971 72.4443C55.9791 72.4443 56.055 72.4246 56.126 72.3851C56.1962 72.345 56.2461 72.2963 56.2757 72.2396C56.3053 72.1822 56.3195 72.1076 56.3195 72.0164V71.8986ZM57.8585 72.8093H58.596V70.1611H57.8585V72.8093ZM59.4461 70.6617H60.1817V70.1611H59.4461V70.6617ZM59.4461 72.8093H60.1817V70.8911H59.4461V72.8093ZM61.675 71.512L60.9727 71.438C60.9993 71.3153 61.0374 71.2185 61.0874 71.1483C61.1373 71.0779 61.2088 71.0169 61.3031 70.9651C61.3703 70.9275 61.4635 70.8985 61.5813 70.8781C61.6991 70.8578 61.8267 70.8473 61.9642 70.8473C62.1843 70.8473 62.3619 70.8596 62.495 70.8843C62.6289 70.909 62.7405 70.9608 62.8293 71.0391C62.8921 71.0934 62.9415 71.1698 62.9779 71.269C63.0136 71.369 63.0314 71.4633 63.0314 71.554V72.4011C63.0314 72.4911 63.0377 72.5621 63.0487 72.6133C63.0604 72.6644 63.0851 72.7298 63.124 72.8093H62.434C62.4063 72.76 62.3883 72.7224 62.3798 72.6965C62.3711 72.6706 62.3631 72.6299 62.3545 72.5744C62.2583 72.6675 62.1621 72.7335 62.0671 72.773C61.9371 72.826 61.786 72.8525 61.6141 72.8525C61.3851 72.8525 61.2113 72.7995 61.0923 72.6934C60.9739 72.588 60.9147 72.4572 60.9147 72.3019C60.9147 72.1557 60.9572 72.0361 61.043 71.9424C61.1287 71.8481 61.286 71.7784 61.5158 71.7328C61.7921 71.6773 61.971 71.6384 62.053 71.6162C62.1344 71.594 62.2213 71.5644 62.3126 71.5286C62.3126 71.438 62.294 71.3751 62.257 71.3388C62.2194 71.303 62.154 71.2845 62.0597 71.2845C61.9395 71.2845 61.8496 71.3042 61.7891 71.3425C61.7422 71.3727 61.7039 71.4294 61.675 71.512ZM62.3126 71.8986C62.2115 71.935 62.106 71.9671 61.9969 71.9948C61.8477 72.0343 61.7528 72.0737 61.7132 72.112C61.6718 72.152 61.6515 72.1971 61.6515 72.2476C61.6515 72.3055 61.6718 72.3524 61.712 72.3894C61.7528 72.4258 61.8119 72.4443 61.8902 72.4443C61.9722 72.4443 62.0479 72.4246 62.1189 72.3851C62.1893 72.345 62.2392 72.2963 62.2688 72.2396C62.2984 72.1822 62.3126 72.1076 62.3126 72.0164V71.8986ZM63.8263 70.8911H64.5113V71.2031C64.6136 71.0755 64.7172 70.9848 64.822 70.9299C64.9269 70.8751 65.0544 70.8473 65.2049 70.8473C65.4083 70.8473 65.5675 70.9084 65.6827 71.0292C65.7975 71.1501 65.8548 71.3369 65.8548 71.5897V72.8093H65.1161V71.7543C65.1161 71.6341 65.0939 71.549 65.0495 71.4991C65.0045 71.4485 64.9423 71.4238 64.8616 71.4238C64.7726 71.4238 64.6999 71.4578 64.6451 71.5249C64.5895 71.5922 64.5618 71.7136 64.5618 71.8881V72.8093H63.8263V70.8911ZM69.4068 70.1611H70.2239V71.7402C70.2239 71.8968 70.1991 72.0441 70.1505 72.1835C70.1017 72.3222 70.0252 72.4443 69.9211 72.5485C69.8169 72.6527 69.7076 72.7255 69.593 72.768C69.434 72.8266 69.2434 72.8562 69.0201 72.8562C68.8913 72.8562 68.7508 72.8476 68.5985 72.8291C68.4461 72.8112 68.3191 72.7754 68.2168 72.7218C68.1144 72.6681 68.0207 72.5917 67.9356 72.493C67.8506 72.3944 67.7925 72.2926 67.7611 72.1878C67.7106 72.0195 67.6853 71.8703 67.6853 71.7402V70.1611H68.5023V71.7777C68.5023 71.9227 68.5423 72.0355 68.6218 72.1163C68.702 72.1977 68.8129 72.2383 68.9554 72.2383C69.096 72.2383 69.207 72.1983 69.2871 72.1181C69.3668 72.0386 69.4068 71.9245 69.4068 71.7777V70.1611ZM71.0704 70.8911H71.7553V71.2031C71.8577 71.0755 71.9613 70.9848 72.0661 70.9299C72.171 70.8751 72.2985 70.8473 72.449 70.8473C72.6526 70.8473 72.8116 70.9084 72.9268 71.0292C73.0416 71.1501 73.0989 71.3369 73.0989 71.5897V72.8093H72.3602V71.7543C72.3602 71.6341 72.338 71.549 72.2936 71.4991C72.2486 71.4485 72.1864 71.4238 72.1055 71.4238C72.0168 71.4238 71.944 71.4578 71.8892 71.5249C71.8336 71.5922 71.8059 71.7136 71.8059 71.8881V72.8093H71.0704V70.8911ZM73.9189 70.6617H74.6545V70.1611H73.9189V70.6617ZM73.9189 72.8093H74.6545V70.8911H73.9189V72.8093ZM75.2593 70.8911H76.0251L76.3975 72.1064L76.7823 70.8911H77.5246L76.7096 72.8093H76.0578L75.2593 70.8911ZM80.1254 72.0324H78.6517C78.6647 72.1508 78.6967 72.2383 78.7472 72.2963C78.8182 72.3795 78.9113 72.4209 79.0254 72.4209C79.0975 72.4209 79.1666 72.403 79.2313 72.3666C79.2715 72.3438 79.314 72.3037 79.3596 72.2457L80.084 72.3124C79.973 72.5053 79.84 72.6435 79.6833 72.7274C79.5267 72.8106 79.3022 72.8525 79.0093 72.8525C78.7552 72.8525 78.5555 72.8167 78.4094 72.7452C78.2639 72.6737 78.143 72.5596 78.0474 72.4036C77.9519 72.2476 77.9037 72.0645 77.9037 71.8536C77.9037 71.554 77.9999 71.311 78.1916 71.126C78.384 70.9404 78.6491 70.8473 78.9878 70.8473C79.2622 70.8473 79.4791 70.8892 79.6377 70.9725C79.7967 71.0551 79.9182 71.176 80.0009 71.3332C80.084 71.4911 80.1254 71.6964 80.1254 71.9492V72.0324ZM79.378 71.6803C79.3633 71.5379 79.325 71.4362 79.2633 71.3751C79.2011 71.3135 79.1197 71.2827 79.0186 71.2827C78.9015 71.2827 78.8083 71.3295 78.7381 71.422C78.6937 71.48 78.6652 71.5656 78.6536 71.6803H79.378ZM80.8245 70.8911H81.5127V71.2049C81.5793 71.0693 81.6476 70.9756 81.718 70.9244C81.7882 70.8732 81.8752 70.8473 81.9788 70.8473C82.0873 70.8473 82.2057 70.8812 82.3346 70.9485L82.107 71.4725C82.0207 71.4362 81.9516 71.4183 81.9011 71.4183C81.8049 71.4183 81.7302 71.4584 81.6772 71.5373C81.6015 71.6495 81.5632 71.8591 81.5632 72.1662V72.8093H80.8245V70.8911ZM82.7746 72.2784L83.5048 72.2094C83.5349 72.2963 83.5769 72.3586 83.6311 72.3956C83.6854 72.4332 83.7575 72.4517 83.8482 72.4517C83.9469 72.4517 84.0232 72.4308 84.0776 72.3882C84.1194 72.3574 84.1405 72.3179 84.1405 72.2711C84.1405 72.218 84.1127 72.1773 84.0579 72.1484C84.0177 72.128 83.9123 72.1027 83.7416 72.0725C83.4862 72.0275 83.3087 71.9868 83.2095 71.9485C83.1101 71.9103 83.0262 71.8462 82.9584 71.7562C82.89 71.6662 82.856 71.5632 82.856 71.4473C82.856 71.3209 82.893 71.2118 82.9664 71.1204C83.0398 71.0286 83.141 70.9602 83.2698 70.9152C83.3987 70.8701 83.5713 70.8473 83.7884 70.8473C84.0171 70.8473 84.186 70.8652 84.2953 70.8997C84.4044 70.9349 84.4951 70.9891 84.5678 71.0625C84.6405 71.1359 84.701 71.2352 84.7496 71.3604L84.0524 71.4294C84.0338 71.3677 84.0042 71.3227 83.9617 71.2937C83.9037 71.2549 83.834 71.2358 83.752 71.2358C83.6693 71.2358 83.6084 71.2506 83.5708 71.2802C83.5325 71.3098 83.5139 71.3455 83.5139 71.3875C83.5139 71.4349 83.538 71.4701 83.5862 71.4941C83.6342 71.5182 83.7391 71.5398 83.9006 71.5595C84.1448 71.5872 84.3266 71.6254 84.4456 71.6748C84.5653 71.7241 84.6566 71.7944 84.7194 71.8863C84.783 71.9775 84.8143 72.078 84.8143 72.1878C84.8143 72.2988 84.7811 72.4067 84.7139 72.5115C84.6473 72.6163 84.5418 72.6996 84.3982 72.7612C84.2539 72.8235 84.0579 72.8544 83.8099 72.8544C83.4598 72.8544 83.2101 72.8044 83.0615 72.7045C82.9129 72.6046 82.8172 72.4622 82.7746 72.2784ZM85.5456 70.6617H86.2812V70.1611H85.5456V70.6617ZM85.5456 72.8093H86.2812V70.8911H85.5456V72.8093ZM87.9916 70.1611V70.8911H88.3961V71.4275H87.9916V72.1083C87.9916 72.1903 87.9995 72.2445 88.0149 72.2711C88.039 72.3118 88.0809 72.3327 88.1413 72.3327C88.1957 72.3327 88.2715 72.3167 88.3688 72.2852L88.4232 72.7933C88.2413 72.8328 88.0718 72.8525 87.9139 72.8525C87.7308 72.8525 87.5957 72.8291 87.5094 72.7822C87.4225 72.7353 87.3583 72.6638 87.317 72.5683C87.2752 72.4727 87.2547 72.3173 87.2547 72.1027V71.4275H86.9834V70.8911H87.2547V70.5384L87.9916 70.1611ZM88.8874 70.8911H89.6637L90.0595 72.168L90.4263 70.8911H91.1508L90.3899 72.9413C90.3037 73.1749 90.2149 73.3328 90.1242 73.4142C89.9967 73.5301 89.8024 73.5881 89.5409 73.5881C89.435 73.5881 89.2716 73.5733 89.0496 73.5443L88.9923 73.0313C89.0976 73.0652 89.216 73.0819 89.3462 73.0819C89.4324 73.0819 89.5028 73.0621 89.5563 73.0227C89.61 72.9826 89.6557 72.9117 89.6927 72.8093L88.8874 70.8911ZM92.6466 71.4867C92.6466 71.0545 92.7673 70.7178 93.0079 70.4774C93.2489 70.2363 93.5844 70.116 94.0142 70.116C94.455 70.116 94.7947 70.2344 95.0334 70.4712C95.2714 70.7073 95.3909 71.0391 95.3909 71.4651C95.3909 71.7747 95.3387 72.0287 95.2344 72.2266C95.1302 72.4246 94.9797 72.5787 94.7831 72.6891C94.5857 72.7995 94.341 72.8544 94.0468 72.8544C93.7485 72.8544 93.5011 72.8069 93.3051 72.7119C93.1096 72.6163 92.951 72.4659 92.829 72.2599C92.7077 72.054 92.6466 71.7963 92.6466 71.4867ZM93.4654 71.4904C93.4654 71.758 93.5147 71.9498 93.614 72.067C93.7132 72.1835 93.8489 72.242 94.0197 72.242C94.1954 72.242 94.3317 72.1847 94.4279 72.0706C94.5241 71.9559 94.5728 71.7507 94.5728 71.4547C94.5728 71.2049 94.5222 71.023 94.4216 70.9078C94.3212 70.7931 94.185 70.7357 94.0123 70.7357C93.8476 70.7357 93.7151 70.7937 93.6153 70.9108C93.5153 71.0274 93.4654 71.221 93.4654 71.4904ZM96.9552 70.8911H97.3055V71.4294H96.9552V72.8093H96.2178V71.4294H95.9434V70.8911H96.2178V70.8041C96.2178 70.7259 96.2264 70.6395 96.2431 70.5458C96.2603 70.4521 96.2918 70.375 96.338 70.3158C96.3843 70.256 96.4497 70.2079 96.5328 70.1709C96.6167 70.1345 96.7393 70.116 96.901 70.116C97.0298 70.116 97.2167 70.1308 97.4627 70.1611L97.3813 70.6056C97.2932 70.5908 97.2222 70.584 97.168 70.584C97.1021 70.584 97.0545 70.5951 97.0256 70.6173C96.9966 70.6395 96.9763 70.6747 96.9638 70.7228C96.9577 70.7493 96.9552 70.8054 96.9552 70.8911ZM98.9953 70.1611H101.483V70.8153H100.648V72.8093H99.8296V70.8153H98.9953V70.1611ZM104.065 72.0324H102.592C102.605 72.1508 102.637 72.2383 102.687 72.2963C102.758 72.3795 102.851 72.4209 102.965 72.4209C103.038 72.4209 103.107 72.403 103.171 72.3666C103.212 72.3438 103.254 72.3037 103.3 72.2457L104.024 72.3124C103.913 72.5053 103.78 72.6435 103.623 72.7274C103.467 72.8106 103.242 72.8525 102.95 72.8525C102.695 72.8525 102.496 72.8167 102.35 72.7452C102.204 72.6737 102.083 72.5596 101.987 72.4036C101.892 72.2476 101.844 72.0645 101.844 71.8536C101.844 71.554 101.94 71.311 102.132 71.126C102.324 70.9404 102.589 70.8473 102.928 70.8473C103.202 70.8473 103.419 70.8892 103.578 70.9725C103.737 71.0551 103.858 71.176 103.941 71.3332C104.024 71.4911 104.065 71.6964 104.065 71.9492V72.0324ZM103.318 71.6803C103.303 71.5379 103.265 71.4362 103.203 71.3751C103.141 71.3135 103.06 71.2827 102.959 71.2827C102.842 71.2827 102.749 71.3295 102.678 71.422C102.634 71.48 102.605 71.5656 102.594 71.6803H103.318ZM106.188 72.0595L106.887 72.1391C106.849 72.2846 106.785 72.411 106.698 72.5177C106.61 72.6243 106.497 72.707 106.36 72.7662C106.224 72.8247 106.05 72.8544 105.839 72.8544C105.636 72.8544 105.466 72.8352 105.331 72.7976C105.196 72.7594 105.079 72.6983 104.982 72.6133C104.884 72.5281 104.807 72.4289 104.752 72.3142C104.697 72.2001 104.669 72.0484 104.669 71.8591C104.669 71.6619 104.702 71.4972 104.77 71.3659C104.82 71.2697 104.887 71.1834 104.972 71.1069C105.058 71.0305 105.146 70.9731 105.236 70.9361C105.379 70.8769 105.563 70.8473 105.787 70.8473C106.1 70.8473 106.339 70.9034 106.503 71.0157C106.667 71.1273 106.783 71.2913 106.849 71.5071L106.158 71.599C106.136 71.517 106.096 71.4553 106.039 71.414C105.982 71.3721 105.905 71.3517 105.809 71.3517C105.687 71.3517 105.588 71.3955 105.513 71.4824C105.438 71.57 105.4 71.7019 105.4 71.8789C105.4 72.0367 105.438 72.1564 105.513 72.2383C105.587 72.3204 105.682 72.3611 105.798 72.3611C105.894 72.3611 105.975 72.3364 106.041 72.2871C106.106 72.2378 106.156 72.1619 106.188 72.0595ZM107.515 70.1611H108.251V71.1365C108.351 71.0329 108.45 70.9589 108.549 70.9145C108.647 70.8695 108.764 70.8473 108.899 70.8473C109.099 70.8473 109.256 70.9084 109.372 71.0299C109.486 71.152 109.544 71.3381 109.544 71.5897V72.8093H108.805V71.7543C108.805 71.6341 108.783 71.549 108.738 71.4991C108.693 71.4485 108.631 71.4238 108.551 71.4238C108.462 71.4238 108.389 71.4578 108.334 71.5249C108.278 71.5922 108.251 71.7136 108.251 71.8881V72.8093H107.515V70.1611ZM110.337 70.8911H111.022V71.2031C111.124 71.0755 111.228 70.9848 111.333 70.9299C111.437 70.8751 111.565 70.8473 111.715 70.8473C111.919 70.8473 112.078 70.9084 112.193 71.0292C112.308 71.1501 112.365 71.3369 112.365 71.5897V72.8093H111.627V71.7543C111.627 71.6341 111.604 71.549 111.56 71.4991C111.515 71.4485 111.453 71.4238 111.372 71.4238C111.283 71.4238 111.21 71.4578 111.156 71.5249C111.1 71.5922 111.072 71.7136 111.072 71.8881V72.8093H110.337V70.8911ZM113.068 71.8554C113.068 71.5632 113.167 71.3215 113.364 71.1322C113.562 70.9423 113.828 70.8473 114.164 70.8473C114.549 70.8473 114.839 70.9589 115.035 71.1815C115.193 71.3609 115.272 71.5823 115.272 71.845C115.272 72.1397 115.174 72.3814 114.978 72.5701C114.783 72.7582 114.512 72.8525 114.166 72.8525C113.858 72.8525 113.609 72.7742 113.418 72.6176C113.185 72.424 113.068 72.1699 113.068 71.8554ZM113.805 71.8536C113.805 72.025 113.839 72.1514 113.909 72.2328C113.978 72.3148 114.065 72.3561 114.17 72.3561C114.276 72.3561 114.363 72.3155 114.431 72.2347C114.499 72.1539 114.533 72.025 114.533 71.8462C114.533 71.6803 114.499 71.5564 114.43 71.475C114.362 71.3943 114.277 71.3535 114.175 71.3535C114.068 71.3535 113.979 71.3949 113.91 71.4769C113.84 71.5595 113.805 71.6853 113.805 71.8536ZM116.005 72.8093H116.742V70.1611H116.005V72.8093ZM117.475 71.8554C117.475 71.5632 117.574 71.3215 117.771 71.1322C117.969 70.9423 118.236 70.8473 118.572 70.8473C118.956 70.8473 119.246 70.9589 119.442 71.1815C119.6 71.3609 119.679 71.5823 119.679 71.845C119.679 72.1397 119.581 72.3814 119.385 72.5701C119.19 72.7582 118.919 72.8525 118.573 72.8525C118.265 72.8525 118.016 72.7742 117.826 72.6176C117.592 72.424 117.475 72.1699 117.475 71.8554ZM118.212 71.8536C118.212 72.025 118.247 72.1514 118.316 72.2328C118.385 72.3148 118.472 72.3561 118.577 72.3561C118.683 72.3561 118.77 72.3155 118.838 72.2347C118.906 72.1539 118.94 72.025 118.94 71.8462C118.94 71.6803 118.906 71.5564 118.837 71.475C118.769 71.3943 118.684 71.3535 118.583 71.3535C118.476 71.3535 118.387 71.3949 118.317 71.4769C118.247 71.5595 118.212 71.6853 118.212 71.8536ZM121.722 70.8911H122.411V72.7027L122.412 72.7877C122.412 72.908 122.386 73.0227 122.335 73.1318C122.284 73.241 122.216 73.3291 122.131 73.3963C122.046 73.4641 121.938 73.5129 121.808 73.5425C121.677 73.5727 121.527 73.5881 121.359 73.5881C120.974 73.5881 120.709 73.5301 120.565 73.4142C120.421 73.2989 120.349 73.1442 120.349 72.9505C120.349 72.9258 120.35 72.8938 120.353 72.8525L121.066 72.9339C121.084 73.0005 121.112 73.0461 121.149 73.0714C121.204 73.1084 121.272 73.1275 121.354 73.1275C121.46 73.1275 121.539 73.0991 121.591 73.0424C121.644 72.9857 121.669 72.887 121.669 72.7458V72.4554C121.597 72.5405 121.525 72.6028 121.453 72.6416C121.34 72.7014 121.217 72.7316 121.086 72.7316C120.829 72.7316 120.622 72.6195 120.465 72.3956C120.353 72.2365 120.297 72.0263 120.297 71.7654C120.297 71.4664 120.369 71.2389 120.513 71.0822C120.658 70.9257 120.847 70.8473 121.081 70.8473C121.23 70.8473 121.353 70.8726 121.45 70.9232C121.547 70.9737 121.638 71.0576 121.722 71.1747V70.8911ZM121.03 71.8209C121.03 71.9596 121.059 72.0626 121.119 72.1292C121.178 72.1958 121.256 72.2297 121.352 72.2297C121.443 72.2297 121.52 72.1946 121.582 72.1255C121.644 72.0565 121.675 71.9517 121.675 71.8123C121.675 71.6723 121.642 71.5656 121.577 71.4917C121.513 71.4177 121.433 71.3807 121.339 71.3807C121.245 71.3807 121.17 71.4146 121.114 71.4824C121.058 71.5502 121.03 71.6637 121.03 71.8209ZM123.059 70.8911H123.835L124.231 72.168L124.598 70.8911H125.323L124.562 72.9413C124.475 73.1749 124.387 73.3328 124.296 73.4142C124.168 73.5301 123.974 73.5881 123.713 73.5881C123.607 73.5881 123.443 73.5733 123.221 73.5443L123.164 73.0313C123.269 73.0652 123.388 73.0819 123.518 73.0819C123.604 73.0819 123.674 73.0621 123.728 73.0227C123.782 72.9826 123.827 72.9117 123.864 72.8093L123.059 70.8911Z" fill="#004098"/>
<path fill-rule="evenodd" clip-rule="evenodd" d="M103.721 61.857C104.418 62.7058 104.433 61.6152 105.332 61.8722C105.478 61.9137 105.54 62.1005 105.54 62.1005L105.436 62.3911L105.353 62.4949C105.353 62.4949 104.612 64.4313 102.28 66.4616C102.28 66.4616 101.372 67.2391 102.971 67.1095C102.971 67.1095 105.13 66.116 106.081 63.6539C106.081 63.6539 106.383 62.9627 106.772 63.5675C106.772 63.5675 108.284 66.4616 109.191 67.1959C109.191 67.1959 110.012 68.0166 110.573 68.0166C111.686 68.0839 112.103 67.197 112.733 67.3686L112.949 67.0663C112.949 67.0663 112.733 66.6775 111.739 66.4616C110.746 66.2456 107.549 64.0858 107.204 63.0059C107.204 63.0059 106.426 62.6171 106.642 61.7532C106.642 61.7532 106.815 60.9325 107.506 60.9325C107.506 60.9325 108.673 60.371 109.277 60.371C109.882 60.371 109.839 59.723 109.839 59.723L109.277 59.3775L107.463 59.4207C107.463 59.4207 107.333 59.2047 107.463 58.9887C107.593 58.7728 107.895 57.8657 107.895 57.8657C107.895 57.8657 108.629 56.4402 108.284 55.5763C107.938 54.7123 107.549 54.8852 107.204 54.8852C106.858 54.8852 106.599 55.3603 106.599 55.3603C106.599 55.3603 106.902 55.8786 106.902 56.2242C106.902 56.5697 106.686 57.4768 106.729 57.8657C106.772 58.2544 106.21 60.4142 105.433 60.4574C104.296 60.8199 102.703 60.6154 103.721 61.857Z" fill="#004098"/>
<path fill-rule="evenodd" clip-rule="evenodd" d="M94.4925 61.5373C94.4925 61.5373 93.4911 61.4195 93.8446 60.9483C94.198 60.477 94.4337 59.0633 97.1432 59.24C97.1432 59.24 98.4391 59.4757 97.9679 61.0071L96.4115 62.4649C96.3033 62.5661 96.298 62.6218 96.4425 62.668C96.7975 62.7813 97.8118 62.7456 98.5568 62.8331C99.5582 62.9506 100.206 63.2454 100.206 63.2454C100.206 63.2454 100.501 64.0701 100.147 64.3057C99.7938 64.5413 95.4938 64.4235 95.0226 64.718C94.5514 65.0126 92.8433 65.4249 92.8433 65.4249L92.1953 65.6605C92.1953 65.6605 91.3707 65.6605 91.3118 65.0715C91.2528 64.4824 91.5473 64.129 91.5473 64.129C91.5473 64.129 93.0199 63.3633 94.0214 63.3044C95.0226 63.2454 95.6706 62.4797 95.6706 62.4797L96.613 61.4195C96.613 61.4195 96.4364 60.8893 96.024 60.9483C95.6117 61.0071 95.1405 61.4784 95.1405 61.4784L94.4925 61.5373Z" fill="#004098"/>
<path fill-rule="evenodd" clip-rule="evenodd" d="M83.0774 57.1617C83.0774 57.1617 83.5531 57.4391 83.9099 57.2805C84.2666 57.122 84.8612 56.2498 85.1388 56.131C85.4162 56.012 86.4471 55.4173 86.8038 55.6949C87.1605 55.9723 87.1198 57.2409 86.9612 57.4391C86.8027 57.6373 86.1298 59.1041 86.1298 59.1041L85.6541 59.5402L85.5352 59.3023L85.5749 59.0248L85.9713 58.4301L86.1695 57.796L86.011 57.2012H85.2973L85.0594 57.3599L84.7424 57.9148L84.4648 58.0734H84.0684L83.8305 58.8266C83.8305 58.8266 83.9099 59.2231 84.1081 59.2231C84.3063 59.2231 84.663 59.3023 84.663 59.3023L84.5045 59.7384L84.4648 60.2537L83.7909 60.5709L83.3153 60.5312L83.1962 58.668C83.1962 58.668 82.6016 58.4301 82.4431 58.8266C82.2846 59.2231 81.8881 59.5798 82.0467 60.1744C82.2052 60.7691 81.8088 61.0863 82.2846 61.3638C82.7602 61.6412 83.7117 61.4034 83.9496 61.4034C84.1873 61.4034 84.2269 61.7998 84.2269 61.998C84.2269 62.1963 84.2144 63.0973 84.2144 63.0973C84.2144 63.0973 84.339 63.3062 83.9496 63.3459C83.5599 63.3855 82.8395 63.663 83.0377 63.9009C83.2359 64.1387 83.2359 64.4162 83.2359 64.4162L84.0155 64.3427V64.9771C84.0155 65.2149 83.7513 65.6055 83.7513 65.6055C83.7513 65.6055 82.007 65.8037 81.9277 66.2398C81.8485 66.6759 82.3637 66.7948 82.3637 66.7948L83.3548 66.7155L87.1605 66.6362L87.8742 66.2398L87.7552 65.4073C87.7552 65.4073 85.337 65.5658 85.1388 65.3677C84.9406 65.1694 84.848 65.1356 84.7687 64.8185C84.6895 64.5013 84.7687 64.1446 84.7687 64.1446L85.1388 63.7027C85.1388 63.7027 85.7334 63.5837 86.1298 63.5837C86.5262 63.5837 86.4471 62.7909 86.4471 62.7909L84.9803 62.6323L85.0198 61.2844C85.0198 61.2844 85.2577 60.7476 85.5749 60.5097C85.8919 60.2719 87.1209 58.668 87.1209 58.668C87.1209 58.668 88.1912 56.7256 87.7552 55.7741C87.3191 54.8227 86.7244 54.8227 85.9713 54.8624C85.2181 54.9019 83.4738 56.0516 83.3548 56.3687C83.2359 56.6859 83.0774 57.1617 83.0774 57.1617ZM81.5312 62.5134C81.5312 62.5134 80.8574 63.6234 80.3817 64.2973C79.9059 64.9713 78.7959 66.3984 78.7959 66.3984C78.7959 66.3984 78.4391 66.7552 78.7959 66.8741C79.1528 66.993 79.351 66.9138 79.5492 66.7552C79.7474 66.5966 80.3817 65.4073 80.5799 65.1694C80.7781 64.9316 81.9673 63.0288 81.9673 63.0288L81.8881 62.4341L81.5312 62.5134ZM79.0876 61.5132L78.4179 61.9225C78.4179 61.9225 77.9341 62.2574 78.3062 62.5179C78.6784 62.7784 79.1249 62.5551 79.1994 62.3691C79.2737 62.183 79.0876 61.4759 79.0876 61.5132ZM78.3203 58.8266L78.5581 59.0645L79.2319 58.8663H79.6285C79.6285 58.8663 80.0452 58.7473 79.9264 59.1834C79.8074 59.6195 79.7513 60.452 79.7513 60.452C79.7513 60.452 78.9546 60.8778 78.6373 60.957C78.3203 61.0363 77.6154 61.9275 77.6154 61.9275C77.6154 61.9275 77.1705 62.4737 77.6066 62.8305C78.0427 63.1873 78.1617 63.5045 78.4391 63.5441C78.7167 63.5837 79.787 63.4648 79.787 63.4648C79.787 63.4648 79.9456 63.3459 80.1835 62.7909C80.4213 62.2359 80.1041 62.117 80.1438 61.7205C80.1835 61.3241 80.0899 61.1259 80.2485 60.452C80.407 59.778 80.4213 59.9763 80.6987 59.2627C80.9763 58.5491 81.1348 58.3906 81.3727 58.113C81.6106 57.8355 81.8088 57.2012 81.5709 57.003C81.333 56.8048 80.8574 56.6463 80.5402 56.8445C80.2231 57.0427 78.5185 57.9148 78.3994 58.113C78.2806 58.3113 78.2409 58.6284 78.3203 58.8266Z" fill="#004098"/>
<path fill-rule="evenodd" clip-rule="evenodd" d="M65.9089 60.155C65.9089 60.155 66.6865 60.0686 66.9023 60.587C67.1183 61.1053 66.6432 61.4077 66.5136 61.6236C66.3841 61.8396 65.5604 62.7901 65.7331 63.3515C65.9059 63.9128 66.3841 65.2521 67.2479 65.5545C68.1119 65.8568 69.019 66.0728 69.2781 66.116C69.5373 66.1592 69.6668 66.4616 70.4875 66.2888L70.5308 63.9562C70.5308 63.9562 68.8893 64.5609 68.5006 64.5177C68.1119 64.4746 68.1982 64.129 68.1982 64.129L70.3148 63.0923L70.7035 62.7036L70.7468 61.2781H70.0988C70.0988 61.2781 70.0124 61.7532 69.6237 61.71C69.235 61.6668 68.371 61.2349 68.371 61.2349C68.371 61.2349 68.371 59.939 68.587 59.8094C68.803 59.6798 69.235 59.2479 69.3213 58.7728C69.4077 58.2975 69.4941 57.6497 69.4941 57.6497L68.371 57.8224L68.0687 57.3906L68.155 57.0449C68.155 57.0449 70.2715 55.8786 70.4875 55.7059C70.7035 55.533 70.79 55.2308 70.79 55.2308V53.719L71.9131 53.6757L72.2586 54.3236L72.3018 54.7123L73.8136 55.1012L73.8569 55.6195L73.5978 56.1377C73.5978 56.1377 71.6971 56.6562 71.5244 57.0449C71.3515 57.4337 69.8828 58.9023 70.0124 59.4207C70.1421 59.939 70.0557 60.2846 70.0557 60.2846L70.7468 60.0254L71.1787 59.2047L71.3947 58.6432C71.3947 58.6432 71.9995 58.2544 72.1291 58.6432C72.2586 59.0319 72.4746 59.3775 72.4746 59.3775L72.3882 59.8526L71.6971 60.6302L71.6107 62.142C71.6107 62.142 72.9498 62.3148 72.7338 62.7467C72.5178 63.1787 72.1291 63.2651 72.1291 63.2651L71.5675 63.6539C71.5675 63.6539 71.2651 65.8136 71.438 66.2888C71.6107 66.7639 72.3451 66.8503 72.8633 66.9367C73.3818 67.0231 74.332 66.6775 74.5912 66.7207C74.8504 66.7639 75.3256 67.4119 75.3256 67.4119L74.9367 68.1462C74.9367 68.1462 73.4249 68.4486 72.5611 68.4486C71.6971 68.4486 69.5804 66.9799 68.4142 66.6775C67.2479 66.3752 66.2976 66.4184 65.9521 66.4184H64.613C64.613 66.4184 64.0947 65.8569 64.6994 65.8136C65.3041 65.7705 65.2609 65.6841 65.2609 65.6841L65.1745 64.9065L64.9154 64.5609C64.9154 64.5609 64.613 63.4379 64.9154 63.3083C65.2178 63.1787 65.3041 62.574 65.3041 62.574C65.5023 62.2462 65.4508 62.2069 65.5376 61.8032V61.5835C65.5291 61.4873 65.5209 61.3914 65.5128 61.2955C65.4187 61.0924 65.3554 61.0242 65.2178 60.9757L65.3905 60.4142C65.6065 60.371 65.9089 60.155 65.9089 60.155Z" fill="#004098"/>
<path fill-rule="evenodd" clip-rule="evenodd" d="M57.0179 57.7966C57.0179 57.7966 57.4487 54.0269 57.1974 54.0269C57.3241 53.772 56.3402 53.6226 56.1562 54.0987C55.9721 54.5748 55.5458 54.9244 55.5458 58.0121C55.5458 58.0121 54.8995 58.8378 54.6483 58.8737C54.397 58.9096 52.0991 60.238 52.0991 60.238C52.0991 60.238 51.7122 60.9864 52.5274 61.1194C52.7021 61.1476 52.7001 61.1036 52.8531 61.0638H54.361C54.361 61.0638 54.3599 61.4664 54.1946 62.1276C54.0293 62.7888 52.6656 65.9295 50.806 66.9627C50.806 66.9627 50.6407 67.5 51.3432 67.2933C51.3432 67.2933 54.2772 66.0949 55.1037 63.2021C55.1037 63.2021 55.3517 62.5408 55.9717 63.4087L58.5751 67.0453C58.5751 67.0453 58.6578 67.376 59.4016 67.376C59.4016 67.376 61.0134 67.5 61.1787 67.1694C61.1787 67.1694 60.724 66.2602 60.1455 66.0949C59.5669 65.9296 56.7568 63.5327 56.4676 62.7475L55.6823 62.2516L55.641 61.673C55.641 61.673 55.8063 59.8134 57.5006 59.3175C57.5006 59.3175 59.3604 59.0695 59.4016 58.4084C59.4016 58.4084 59.6083 57.6645 58.1206 57.6645L57.0179 57.7966Z" fill="#004098"/>
<path fill-rule="evenodd" clip-rule="evenodd" d="M121.732 61.9733C121.732 61.9733 122.016 62.3045 122.3 62.3518C122.584 62.3991 122.394 63.1088 122.158 63.1561C121.921 63.2034 121.59 63.3926 121.59 63.3926C121.59 63.3926 121.022 63.7238 121.543 63.8184C122.063 63.913 121.921 64.6227 121.921 64.6227C121.921 64.6227 118.515 64.9538 118.089 65.8054C118.089 65.8054 117.853 66.1839 118.846 66.1366C118.846 66.1366 121.637 65.2377 122.063 65.7581C122.063 65.7581 122.063 67.6505 121.07 67.9817L120.36 68.2655L119.887 67.9817L119.508 68.2182C119.508 68.2182 119.981 69.259 120.36 69.259C120.36 69.259 122.252 69.3536 123.34 65.7108L125.044 65.6162C125.044 65.6162 125.517 65.8527 125.753 65.7108C125.99 65.5689 126.416 65.1431 126.416 65.1431C126.416 65.1431 125.848 64.4335 125.422 64.4335C124.996 64.4335 123.766 64.3388 123.766 64.3388L123.293 64.2442L122.962 63.8657L123.104 63.3453L123.482 62.9196L123.814 62.1626L123.908 61.6422C123.908 61.6422 123.814 61.2637 123.435 61.2637C123.057 61.2637 121.874 61.5949 121.874 61.5949L121.732 61.9733Z" fill="#004098"/>
<path fill-rule="evenodd" clip-rule="evenodd" d="M119.049 60.6795L118.892 61.3101L120.468 60.627L122.57 59.8913C122.57 59.8913 124.251 59.471 124.724 59.5235C125.197 59.5761 126.248 59.8388 125.88 60.2066C125.513 60.5744 124.935 61.0473 124.935 61.0473L124.567 61.4151L125.355 61.4677C125.355 61.4677 126.16 61.0715 126.458 60.7321C126.683 60.4768 126.875 60.2246 126.939 60.104C127.184 59.6399 126.626 59.0691 126.46 59.0142C125.81 58.7972 122.192 57.7749 119.049 60.6795Z" fill="#004098"/>
<path fill-rule="evenodd" clip-rule="evenodd" d="M117.972 61.3338C117.935 61.6768 117.971 62.4236 117.894 62.8864C117.789 63.517 117.21 64.0424 116.948 63.9899C116.685 63.9373 115.949 63.5695 116.265 63.2017C116.58 62.8339 116.632 61.9406 116.632 61.9406C116.632 61.9406 117.527 61.5395 117.896 61.2977C117.933 61.2828 117.977 61.2841 117.972 61.3338Z" fill="#004098"/>
<path fill-rule="evenodd" clip-rule="evenodd" d="M122.045 55.2673L122.57 55.7928L122.833 56.6861L123.306 56.4233L124.199 54.9521L124.882 54.0063L125.828 54.1114L126.248 55.1623L125.565 56.4233C125.565 56.4233 123.358 57.9473 122.938 57.9473C122.518 57.9473 121.677 57.7895 121.677 57.7895C121.677 57.7895 120.889 57.0538 120.941 56.5811C120.994 56.1081 120.731 55.0047 121.204 55.1623C121.677 55.3199 122.045 55.2673 122.045 55.2673Z" fill="#004098"/>
<path fill-rule="evenodd" clip-rule="evenodd" d="M120.026 55.9046L120.091 58.622C120.091 58.622 120.285 59.2044 119.638 59.0749C118.991 58.9455 118.861 58.8808 118.797 58.2985C118.732 57.7163 118.602 56.8104 119.055 56.4869C119.508 56.1634 120.026 55.9046 120.026 55.9046Z" fill="#004098"/>
</g>
<defs>
<filter id="filter0_d_185_24" x="0" y="0" width="154" height="157" filterUnits="userSpaceOnUse" color-interpolation-filters="sRGB">
<feFlood flood-opacity="0" result="BackgroundImageFix"/>
<feColorMatrix in="SourceAlpha" type="matrix" values="0 0 0 0 0 0 0 0 0 0 0 0 0 0 0 0 0 0 127 0" result="hardAlpha"/>
<feOffset dy="16"/>
<feGaussianBlur stdDeviation="6.5"/>
<feColorMatrix type="matrix" values="0 0 0 0 0 0 0 0 0 0 0 0 0 0 0 0 0 0 0.03 0"/>
<feBlend mode="normal" in2="BackgroundImageFix" result="effect1_dropShadow_185_24"/>
<feBlend mode="normal" in="SourceGraphic" in2="effect1_dropShadow_185_24" result="shape"/>
</filter>
</defs>
</svg>
