<svg width="154" height="157" viewBox="0 0 154 157" fill="none" xmlns="http://www.w3.org/2000/svg">
<g filter="url(#filter0_d_185_296)">
<rect width="128" height="128" transform="translate(13)" fill="white"/>
<path fill-rule="evenodd" clip-rule="evenodd" d="M39.8082 63.1645H41.4608V58.1609L37.5546 60.1346V68.5855H39.8082V63.1645Z" fill="#A7202C"/>
<path fill-rule="evenodd" clip-rule="evenodd" d="M44.4602 68.5855H46.7137V60.1346L42.8076 58.161V63.1645H44.4602V68.5855Z" fill="#A7202C"/>
<path fill-rule="evenodd" clip-rule="evenodd" d="M40.2302 67.9845H44.1421V67.6224H40.2302V67.9845Z" fill="#A7202C"/>
<path fill-rule="evenodd" clip-rule="evenodd" d="M40.2302 68.6723H44.1421V68.3102H40.2302V68.6723Z" fill="#A7202C"/>
<path fill-rule="evenodd" clip-rule="evenodd" d="M39.0015 69.3467H45.4293V68.9846H39.0015V69.3467Z" fill="#A7202C"/>
<path fill-rule="evenodd" clip-rule="evenodd" d="M37.1081 70.216H47.3228V69.7582H37.1081V70.216Z" fill="#A7202C"/>
<path fill-rule="evenodd" clip-rule="evenodd" d="M42.2394 78.7482C34.2481 78.7482 27.7304 72.2307 27.7304 64.2392C27.7304 56.2483 34.2481 49.7304 42.2394 49.7304C50.2305 49.7304 56.748 56.2483 56.748 64.2392C56.748 72.2307 50.2305 78.7482 42.2394 78.7482ZM42.2394 49C33.8458 49 27 55.8458 27 64.2392C27 72.6327 33.8458 79.4786 42.2394 79.4786C50.6327 79.4786 57.4786 72.6327 57.4786 64.2392C57.4786 55.8458 50.6327 49 42.2394 49Z" fill="#A7202C"/>
<path fill-rule="evenodd" clip-rule="evenodd" d="M42.1667 55.6426C46.8616 55.6426 50.6909 59.472 50.6909 64.1665C50.6909 68.8617 46.8616 72.6908 42.1667 72.6908C37.4717 72.6908 33.6428 68.8617 33.6428 64.1665C33.6428 59.472 37.4717 55.6426 42.1667 55.6426ZM42.1667 73.4962C47.3051 73.4962 51.4959 69.305 51.4959 64.1665C51.4959 59.0282 47.3051 54.8377 42.1667 54.8377C37.0282 54.8377 32.8373 59.0282 32.8373 64.1665C32.8373 69.305 37.0282 73.4962 42.1667 73.4962Z" fill="#A7202C"/>
<path fill-rule="evenodd" clip-rule="evenodd" d="M47.505 54.7231L47.4117 54.6495L47.3296 54.5648C47.3296 54.5648 47.2655 54.5087 47.2494 54.4869C47.233 54.4652 47.1908 54.3983 47.1908 54.3983L47.1563 54.3058L47.1234 54.2205C47.1234 54.2205 47.107 54.1452 47.1002 54.1051C47.0935 54.0653 47.0615 54.0102 47.0615 54.0102L47.0106 53.8963L46.9324 53.814L46.8547 53.8273L46.8269 53.8822L46.8112 53.9446L46.8473 54.0557L46.8765 54.1268L46.9027 54.2144L46.9268 54.3063L46.9422 54.3933L46.9617 54.4944L47.0071 54.6409L47.0407 54.7565L47.0851 54.8189L47.1576 54.8799C47.1576 54.8799 47.2421 54.9603 47.272 54.9663C47.3016 54.972 47.3956 55.0341 47.3956 55.0341C47.3956 55.0341 47.5028 55.08 47.5284 55.0837C47.5541 55.0869 47.6219 55.1036 47.6219 55.1036L47.6678 55.0772L47.7319 55.0376L47.7622 54.9785L47.7373 54.9094L47.6914 54.8821L47.505 54.7231Z" fill="#A7202C"/>
<path fill-rule="evenodd" clip-rule="evenodd" d="M45.4795 54.3199L45.525 54.3591L45.5975 54.3667L45.6924 54.3517L45.7576 54.3307L45.8429 54.2922L45.9271 54.2768L46.035 54.2038L46.1162 54.1625L46.1801 54.1229L46.2191 54.1109L46.3157 54.1027L46.4226 54.0648L46.5497 53.9973L46.616 53.8998L46.684 53.8089L46.7174 53.7333L46.7962 53.643L46.9199 53.5498L47.0431 53.4799L47.2321 53.4732L47.424 53.4924L47.5422 53.4851L47.6392 53.4236L47.676 53.3621L47.6925 53.2763L47.6369 53.1715L47.5268 53.0879L47.4355 53.0633H47.3757L47.3055 53.0513L47.2516 53.0072L47.2603 52.9469L47.3058 52.8902L47.3893 52.8445L47.4437 52.8231L47.4718 52.7681L47.4612 52.7139L47.4688 52.6355L47.4792 52.5398L47.4658 52.4484L47.4404 52.3913L47.4049 52.3224L47.3345 52.3099L47.2542 52.286L47.1732 52.2733L47.1225 52.3086L47.0825 52.3867L47.0656 52.4842C47.0656 52.4842 47.0985 52.5695 47.1148 52.5909C47.131 52.6126 47.1485 52.6529 47.1485 52.6529L47.1305 52.7319L47.0972 52.8073L47.0526 52.8943L47.0208 52.9351L47.0045 52.9673L46.9536 52.9608L46.8493 52.9402L46.7423 52.9359L46.6427 52.9065L46.5149 52.8896L46.4203 52.893L46.3089 52.8982L46.1775 52.9093L46.1714 53.0072L46.1827 53.0914L46.2097 53.1672L46.2448 53.2478L46.291 53.3177L46.36 53.3645L46.4341 53.4325L46.5049 53.487L46.5171 53.5479L46.4373 53.6616L46.3613 53.7896L46.2559 53.8998L46.1664 53.9895L45.9746 54.0661C45.9746 54.0661 45.8559 54.0847 45.8278 54.0863C45.8002 54.0875 45.7119 54.0886 45.7119 54.0886L45.6274 54.0618L45.5363 54.0373L45.4505 54.0878L45.4055 54.1445L45.4027 54.2028L45.4371 54.2528L45.4795 54.3199Z" fill="#A7202C"/>
<path fill-rule="evenodd" clip-rule="evenodd" d="M52.055 57.542L52.1613 57.5167L52.2262 57.4389L52.254 57.3456L52.2392 57.2239L52.2431 57.0766L52.2464 56.9954L52.325 56.8878L52.3785 56.8252C52.3785 56.8252 52.4309 56.7531 52.4536 56.7222C52.4759 56.6916 52.5383 56.628 52.5383 56.628L52.6022 56.5075L52.607 56.4029L52.5883 56.286L52.5424 56.1962L52.514 56.2133L52.4313 56.2171L52.3356 56.2938L52.2648 56.4671L52.2574 56.6197L52.2163 56.7854L52.1511 56.8963L52.0452 57.031L51.9389 57.1988L51.9083 57.306L51.9023 57.4015L51.9421 57.5113L52.055 57.542Z" fill="#A7202C"/>
<path fill-rule="evenodd" clip-rule="evenodd" d="M52.2524 58.8019L52.3747 58.7651L52.4761 58.7356L52.559 58.6982L52.6422 58.6278L52.6578 58.541L52.5255 58.46L52.3176 58.4061L52.0425 58.3354L51.8591 58.3025L51.7865 58.3149L51.7556 58.4225L51.7612 58.5026L51.8097 58.578L51.9228 58.6088L52.0362 58.6062L52.1495 58.6038L52.0785 58.6681L51.9851 58.7969C51.9851 58.7969 51.9527 58.819 51.9537 58.8617C51.9544 58.9041 51.9858 58.9483 51.9858 58.9483L51.9756 59.0064L51.9317 59.0774L51.8357 59.078L51.7086 59.0771L51.5707 59.0583C51.5707 59.0583 51.4728 59.0072 51.4284 59.0024C51.3842 58.9975 51.2859 58.9795 51.2859 58.9795L51.1878 58.928L51.1254 58.9914L51.1542 59.0834L51.2127 59.1341L51.2699 59.2086L51.4085 59.2701L51.5295 59.2575L51.6783 59.2937L51.779 59.3305L51.8537 59.3701L51.8112 59.4505L51.7302 59.5397L51.664 59.6415L51.6363 59.7013L51.5804 59.745L51.4609 59.734L51.3344 59.6998L51.2175 59.6742L51.1297 59.7073C51.1297 59.7073 51.1785 59.7494 51.2005 59.7851C51.2222 59.8208 51.2859 59.8758 51.2859 59.8758L51.3617 59.9245L51.4869 59.9826L51.6484 59.9797L51.772 59.9525L51.8598 59.8862L51.963 59.7996L52.0429 59.7013L52.1092 59.5993L52.1545 59.5044L52.2846 59.5334L52.3336 59.5757L52.3899 59.6079L52.4847 59.6307L52.5614 59.6134L52.5969 59.4765L52.5932 59.3728L52.5703 59.2948L52.4629 59.2019L52.3706 59.1973L52.2872 59.1582L52.2225 59.094L52.2171 59.0141L52.227 58.8799L52.2524 58.8019Z" fill="#A7202C"/>
<path fill-rule="evenodd" clip-rule="evenodd" d="M50.8842 57.9452L51.0096 57.9699L51.1305 57.9571L51.258 57.8915C51.258 57.8915 51.4098 57.8803 51.4494 57.8811C51.4887 57.8816 51.655 57.8833 51.655 57.8833L51.9244 57.94L52.1113 57.9676L52.2784 58.0119C52.2784 58.0119 52.5 58.0358 52.5359 58.0414C52.5714 58.0474 52.6736 58.0604 52.6736 58.0604L52.8765 58.11L53.0091 58.1577L53.1438 58.2575L53.267 58.3725L53.2958 58.5732L53.3149 58.6568L53.265 58.7142L53.189 58.8076L53.1072 58.8541L53.039 58.9039L53.1089 58.9394L53.2012 58.9436L53.2895 58.9866L53.3952 59.0276L53.4857 59.0891L53.571 59.0707C53.571 59.0707 53.5988 58.9776 53.6128 58.9477C53.6267 58.9178 53.5964 58.85 53.5957 58.8074C53.5947 58.7647 53.5728 58.7289 53.5611 58.6687C53.5494 58.6083 53.5336 58.5862 53.5336 58.5862L53.5124 58.4843L53.4671 58.3277L53.4246 58.2657L53.3846 58.1893L53.314 58.1115L53.2391 58.0719C53.2391 58.0719 53.1498 58.0195 53.1215 58.0037C53.0933 57.9875 52.9985 57.9645 52.9985 57.9645L52.9077 57.9361L52.9144 57.8833L53.0022 57.8502L53.1031 57.8538L53.1847 57.8406L53.3214 57.8499L53.4145 57.7876L53.4704 57.7107L53.4591 57.617L53.413 57.5271L53.4201 57.4409L53.4322 57.3592L53.4699 57.2743L53.5522 57.1615L53.6367 57.1005L53.7306 57.081L53.8498 57.0924L53.9864 57.1349L54.0743 57.2111L54.1765 57.2239L54.2447 57.1739L54.269 57.0859L54.2515 56.9787L54.23 56.9099L54.1603 56.8413L54.1649 56.7366L54.1702 56.5985L54.1512 56.5151L54.0498 56.4358L53.9771 56.4148L53.91 56.474L53.8772 56.563L53.8777 56.6386L53.8549 56.7027L53.8071 56.8122L53.6982 56.8519L53.5732 56.903L53.4325 56.9322L53.2425 56.9523L53.1178 56.9703L53.0827 57.0403L53.1091 57.1135L53.1726 57.168L53.2423 57.2367L53.2258 57.2813L53.163 57.3023L53.1052 57.403L53.1364 57.4805L53.2074 57.5251L53.1906 57.6027L53.1198 57.667L53.0554 57.7118L52.9601 57.7549L52.8281 57.7499L52.715 57.7192L52.6407 57.6464L52.644 57.5654L52.6942 57.4747L52.7559 57.4446L52.8257 57.3709L52.8302 57.2993L52.8209 57.2243L52.7581 57.1028L52.7215 57.0548L52.7442 56.9904L52.8365 56.8861L52.9272 56.8053C52.9272 56.8053 53.0255 56.7143 53.0491 56.6929C53.0727 56.6715 53.0879 56.6175 53.1018 56.5877C53.1158 56.5578 53.1282 56.4094 53.1371 56.3756L53.0557 56.3887L52.9694 56.3979L52.8999 56.4382L52.8092 56.519L52.781 56.6451L52.801 56.738L52.7531 56.8475L52.6955 56.9484L52.6195 57.0415L52.5632 57.1186L52.485 57.3025L52.4476 57.4628L52.4833 57.6109L52.5223 57.7869L52.5509 57.8788L52.5 57.9268L52.3984 57.8474L52.297 57.7679L52.1972 57.7406L52.1076 57.7215L52.0066 57.7179L51.8646 57.7376L51.7071 57.7352L51.6045 57.7555L51.4076 57.7194C51.4076 57.7194 51.2968 57.7075 51.2637 57.6871C51.2307 57.6665 51.1565 57.67 51.1565 57.67L51.0731 57.6646L51.0649 57.599L51.1467 57.5526L51.0766 57.5502L50.9406 57.5836L50.8372 57.5946L50.7182 57.659L50.6946 57.7897L50.7751 57.8759L50.8842 57.9452Z" fill="#A7202C"/>
<path fill-rule="evenodd" clip-rule="evenodd" d="M32.7484 57.5559L32.7041 57.63L32.6679 57.6971L32.6308 57.772L32.5328 57.9076L32.4851 57.9498L32.4537 57.9071L32.4295 57.8303L32.4301 57.7242L32.4693 57.5986L32.4942 57.5695L32.5774 57.4678L32.6962 57.405L32.7517 57.4266L32.7948 57.5291L32.7484 57.5559ZM33.0373 57.6243C33.0373 57.6243 33.1722 57.1819 32.9498 57.0693C32.7272 56.9563 32.4784 57.3164 32.4702 57.3237C32.4624 57.3305 32.2553 57.738 32.2553 57.738L32.1651 57.6702L32.1735 57.3959L32.2127 57.2347L32.2382 57.0015L32.2374 56.8757L32.1739 56.7633L32.0819 56.7462L31.9767 56.7826L31.9481 56.8779L31.8939 57.1434L31.8233 57.3606L31.7196 57.5154L31.6754 57.5895L31.8209 57.5804L31.9078 57.5461L31.9758 57.5843L32.0284 57.6993C32.0284 57.6993 32.1269 58.02 32.0815 58.3688C32.0362 58.7181 32.2896 58.6138 32.3194 58.4401C32.3422 58.3071 32.3443 58.287 32.3441 58.285L32.4028 58.2402L32.5042 58.2699L32.6934 58.4893L32.653 58.7916L32.5702 59.0547L32.4975 59.3223L32.5135 59.4417L32.6434 59.3765L32.7647 59.2903L32.8067 59.106L32.8349 58.9124L32.9429 58.719L33.4505 59.43L33.2143 59.6383L33.5733 59.694C33.5733 59.694 33.9092 59.7279 33.8604 59.448C33.8115 59.1679 33.7437 59.1926 33.7437 59.1926L33.1266 58.36C33.1266 58.36 33.3106 58.0644 33.3372 58.02C33.3637 57.9754 33.3288 57.8656 33.313 57.8443C33.2972 57.8233 33.1239 57.8571 33.0995 57.9134C33.0754 57.9699 32.9212 58.19 32.9212 58.19L32.8524 58.1244L32.873 57.8041L33.0373 57.6243Z" fill="#A7202C"/>
<path fill-rule="evenodd" clip-rule="evenodd" d="M30.9452 57.791C30.8737 57.6856 30.9329 56.945 30.788 57.2131C30.6431 57.4816 30.6594 58.0923 30.7953 58.436C30.9311 58.7798 31.0658 58.7381 31.1917 58.4446C31.3177 58.1508 31.2198 57.8578 31.2789 57.4474C31.3383 57.0368 31.6347 56.4733 31.9713 56.071C32.3078 55.6686 32.5336 55.7857 32.557 55.8351C32.5806 55.8847 32.5475 55.9562 32.538 56.1753C32.5351 56.2436 32.5529 56.1717 32.622 56.1206C32.7738 56.0088 33.0475 55.7608 33.0003 55.648C32.9603 55.5532 32.8778 55.5614 32.7073 55.5517C32.622 55.5465 32.5546 55.5421 32.4247 55.5685C32.3658 55.5807 32.2805 55.5608 32.198 55.6183C31.7051 55.9607 31.5466 56.3546 31.3865 56.6292C31.2263 56.9036 31.1319 57.4718 31.0808 57.7064C31.0299 57.9409 31.0169 57.8965 30.9452 57.791Z" fill="#A7202C"/>
<path fill-rule="evenodd" clip-rule="evenodd" d="M30.8879 56.2223C30.9407 56.2366 30.9804 56.4086 30.9804 56.4086C30.9804 56.4086 30.9756 56.4331 31.0551 56.3549C31.1348 56.2763 31.2341 56.2299 31.2562 56.0844C31.2785 55.9387 31.1495 55.8575 31.0735 55.8635C30.9975 55.8692 30.8316 55.8003 30.7211 55.9508C30.6105 56.1011 30.7415 56.262 30.7415 56.262C30.7415 56.262 30.8352 56.2076 30.8879 56.2223Z" fill="#A7202C"/>
<path fill-rule="evenodd" clip-rule="evenodd" d="M37.3791 52.6604L37.4417 52.7232L37.5506 52.7245L37.6474 52.7215L37.7555 52.65L37.7789 52.5914L37.8109 52.5017L37.8008 52.3882L37.7739 52.2772L37.7064 52.2269L37.6039 52.2308L37.4866 52.2615L37.3846 52.338L37.3376 52.3876L37.3549 52.5184L37.3791 52.6604Z" fill="#A7202C"/>
<path fill-rule="evenodd" clip-rule="evenodd" d="M37.651 54.5638L37.6237 54.6409L37.6358 54.7788L37.6053 54.8866L37.5795 54.9817L37.6061 55.0863L37.6687 55.1493L37.7711 55.2063L37.8647 55.1671L37.8809 55.0919L37.9243 55.0003L38.0176 54.9553L38.0823 54.8483L38.0925 54.7071L38.0516 54.5679L37.9621 54.4605L37.871 54.5295L37.8272 54.6151L37.7712 54.6302L37.651 54.5638Z" fill="#A7202C"/>
<path fill-rule="evenodd" clip-rule="evenodd" d="M37.7123 53.196L37.5808 53.1317L37.489 53.1282L37.4171 53.2179L37.3777 53.2911L37.3719 53.4193L37.4384 53.524L37.4925 53.6183L37.5442 53.6834L37.6365 53.693L37.7203 53.6072L37.784 53.4883L37.8125 53.3564L37.7876 53.2692L37.7123 53.196Z" fill="#A7202C"/>
<path fill-rule="evenodd" clip-rule="evenodd" d="M39.1452 54.0026L39.0549 54.0169L38.9969 53.9412L38.9722 53.8601L39.0066 53.7941L39.0603 53.7553C39.0603 53.7553 39.0885 53.7508 39.088 53.7452L39.1625 53.8121L39.1892 53.9171L39.1452 54.0026ZM38.4726 54.672L38.5607 54.6337L38.6214 54.5455L38.6621 54.4239L38.6285 54.3019L38.616 54.0975L38.6393 53.9728L38.6835 53.7597L38.7511 53.4944L38.7866 53.3131L38.8303 53.1609L38.8275 53.0641L38.8769 52.9775L38.9414 52.9311L39.0019 52.9034L39.027 52.9298L39.0319 52.9836L39.0562 53.0648L39.1092 53.0806L39.2284 53.0739L39.3373 53.0752L39.3693 53.1128L39.3936 53.1938L39.401 53.2776L39.3771 53.33L39.3332 53.4154L39.278 53.5031L39.2141 53.5553L39.0807 53.5336L38.9631 53.4974L38.8656 53.495L38.8371 53.5598L38.8358 53.6752L38.8449 53.971L38.8713 54.2034L38.9163 54.3236L39.0176 54.3682L39.0818 54.3825L39.1508 54.3232L39.2106 54.2229L39.2719 54.1404L39.3397 54.0691L39.415 54.015L39.5066 54.0797L39.6695 54.1752L39.7784 54.2432L39.8248 54.3147L39.9029 54.3571C39.9029 54.3571 39.9547 54.3611 39.9891 54.3617C40.0236 54.3624 40.1024 54.3502 40.1024 54.3502L40.1979 54.3292L40.2668 54.2695L40.3348 54.1988L40.4006 54.1031L40.4068 54.0418L40.3389 54.0522L40.2174 54.0349L40.1188 54.0198L39.9956 53.9845L39.877 53.9368L39.7583 53.8887L39.6606 53.819L39.5748 53.7536L39.5014 53.6984L39.4672 53.6369L39.519 53.5745L39.619 53.4132L39.652 53.3354L39.661 53.2428L39.6374 53.1072L39.5441 52.958L39.4676 52.867L39.3786 52.8324C39.3786 52.8324 39.2964 52.809 39.2667 52.7951C39.237 52.7819 39.1547 52.7585 39.1547 52.7585L39.1664 52.6959L39.1991 52.6119L39.2712 52.5219L39.3488 52.4309L39.4202 52.3347L39.4744 52.3018L39.5432 52.3033L39.5638 52.3427L39.5369 52.4257L39.5058 52.5275L39.4887 52.5909L39.5805 52.5944L39.6691 52.5626L39.7877 52.5439L39.8646 52.5076L39.9285 52.4552L39.9863 52.3978L39.9644 52.2799L39.8886 52.2007L39.7672 52.1225L39.6985 52.0547L39.6444 52.0268L39.5612 51.9913L39.4016 51.9978L39.2946 52.0147L39.232 52.0186L39.2407 51.8594L39.2537 51.7485L39.2617 51.6441L39.2957 51.5114L39.3154 51.4114L39.3468 51.3156L39.3247 51.2583L39.2522 51.2151L39.1796 51.1718L39.056 51.197L38.9399 51.2394L38.9221 51.2972L38.9358 51.4523L38.9484 51.7234L38.9594 51.9764C38.9594 51.9764 39.0016 52.2548 39.0042 52.2847C39.0068 52.3146 39.0263 52.5357 39.0263 52.5357L38.96 52.6251L38.9079 52.6819L38.8024 52.783L38.6837 52.8623L38.679 52.8084V52.6814L38.6837 52.5409L38.6528 52.194L38.6199 52.0173L38.5813 51.9021L38.5202 51.8572L38.4566 51.9157L38.4057 52.0511L38.3645 52.1665L38.3767 52.3038L38.4228 52.9513C38.4228 52.9513 38.4717 53.1806 38.4687 53.2114C38.4657 53.2421 38.4641 53.5455 38.4641 53.5455L38.4594 53.6856L38.4531 53.808L38.4252 53.9455L38.3946 54.1142L38.3606 54.2467L38.3615 54.386L38.3502 54.5154L38.3463 54.6006L38.391 54.6541L38.4726 54.672Z" fill="#A7202C"/>
<path fill-rule="evenodd" clip-rule="evenodd" d="M31.8021 66.597L29.8828 66.8688L31.6334 65.4034L31.5779 65.0144L29.2051 65.3505L29.2491 65.662L31.1687 65.39L31.1702 65.4029L29.4217 66.8812L29.4734 67.2439L31.8462 66.908L31.8021 66.597Z" fill="#A7202C"/>
<path fill-rule="evenodd" clip-rule="evenodd" d="M29.73 68.1514L31.9957 67.3684L32.1027 67.6779L29.8369 68.4609L29.73 68.1514Z" fill="#A7202C"/>
<path fill-rule="evenodd" clip-rule="evenodd" d="M33.0285 69.6897L31.3178 70.6018L32.4612 68.626L32.2767 68.2795L30.1616 69.4071L30.3097 69.6845L32.0203 68.7726L32.0263 68.784L30.8888 70.7711L31.0614 71.0943L33.1764 69.9669L33.0285 69.6897Z" fill="#A7202C"/>
<path fill-rule="evenodd" clip-rule="evenodd" d="M33.1629 71.8168L32.9589 72.0007L33.4502 72.5451C33.2419 72.7449 33.0273 72.8266 32.8067 72.7907C32.6354 72.7573 32.4855 72.669 32.3566 72.526C31.9998 72.131 32.0678 71.7109 32.5608 71.2667C33.0386 70.8705 33.4569 70.8455 33.8162 71.1918C34.073 71.4894 34.1073 71.7815 33.9197 72.0686L34.1298 72.3017C34.4349 71.9099 34.4011 71.4814 34.0289 71.0173C33.5351 70.5218 32.9732 70.5179 32.3423 71.0049C32.0186 71.285 31.8542 71.6041 31.848 71.9625C31.8415 72.2031 31.9471 72.4435 32.1633 72.683C32.3976 72.9305 32.6574 73.0488 32.9424 73.0386L32.7716 73.2989L32.9119 73.4544L33.865 72.5945L33.1629 71.8168Z" fill="#A7202C"/>
<path fill-rule="evenodd" clip-rule="evenodd" d="M35.1284 73.5285L34.6673 73.1818L35.116 72.5854L35.5771 72.9317C35.8419 73.1309 35.9038 73.3247 35.7624 73.5131C35.6067 73.7349 35.3954 73.74 35.1284 73.5285ZM35.2217 74.4508C35.0469 74.6684 34.8239 74.6814 34.553 74.4891L33.9986 74.0718L34.5023 73.402L35.0049 73.7797C35.3122 74.0108 35.3845 74.2345 35.2217 74.4508ZM36.0316 73.6998C36.2484 73.3823 36.1914 73.0873 35.8601 72.8167L35.0119 72.1789L33.5716 74.0948L34.3988 74.7167C34.6294 74.8898 34.8557 74.9512 35.0796 74.901C35.2438 74.8715 35.3779 74.7865 35.4829 74.647C35.6561 74.4168 35.6561 74.1706 35.4816 73.9092C35.7068 73.9579 35.89 73.8882 36.0316 73.6998Z" fill="#A7202C"/>
<path fill-rule="evenodd" clip-rule="evenodd" d="M37.9148 75.3522C37.6439 75.9014 37.2608 76.09 36.7649 75.9181C36.2846 75.6864 36.1534 75.2801 36.3704 74.6985C36.6434 74.1222 37.03 73.9253 37.5305 74.1088C37.9995 74.3446 38.1273 74.7595 37.9148 75.3522ZM37.6379 73.8554C37.3401 73.7296 37.0651 73.7081 36.8121 73.7904C36.4799 73.9249 36.2285 74.1831 36.057 74.5661C35.9357 74.8752 35.9078 75.1762 35.9736 75.4694C36.0715 75.7763 36.3013 76.0064 36.663 76.1591C37.0008 76.3018 37.3102 76.3098 37.5917 76.1827C37.8601 76.0404 38.0684 75.8063 38.2163 75.4796C38.3475 75.1467 38.3722 74.8206 38.2888 74.5009C38.1845 74.2103 37.9672 73.9951 37.6379 73.8554Z" fill="#A7202C"/>
<path fill-rule="evenodd" clip-rule="evenodd" d="M40.9421 76.4085C40.8664 76.8383 40.6173 77.0213 40.195 76.9557C39.8094 76.8791 39.6498 76.6252 39.7165 76.1939L39.9767 74.7103L39.6539 74.654L39.3782 76.2275C39.3299 76.5025 39.3827 76.7337 39.5361 76.9202C39.6786 77.0692 39.8787 77.166 40.1364 77.2115C40.4464 77.2658 40.6907 77.2372 40.8692 77.127C41.0717 76.9854 41.2012 76.7775 41.2577 76.5042L41.5243 74.9816L41.2018 74.9253L40.9421 76.4085Z" fill="#A7202C"/>
<path fill-rule="evenodd" clip-rule="evenodd" d="M43.4422 74.8694L43.5795 76.8028L42.2399 74.9548L41.8481 74.9829L42.0177 77.3735L42.3317 77.3511L42.194 75.4175L42.2069 75.4167L43.5597 77.2639L43.9251 77.2381L43.7557 74.8473L43.4422 74.8694Z" fill="#A7202C"/>
<path fill-rule="evenodd" clip-rule="evenodd" d="M44.8799 77.0377L44.3382 74.7033L44.6569 74.6294L45.1986 76.9637L44.8799 77.0377Z" fill="#A7202C"/>
<path fill-rule="evenodd" clip-rule="evenodd" d="M46.7468 73.9469L46.833 76.1031L45.4632 74.4413L45.1211 74.573L46.8016 76.4942L47.1312 76.3671L47.0892 73.8154L46.7468 73.9469Z" fill="#A7202C"/>
<path fill-rule="evenodd" clip-rule="evenodd" d="M48.715 75.2255L48.2912 74.5487L49.4006 73.8538L49.2479 73.6093L48.1379 74.3045L47.7416 73.6719L48.9402 72.9209L48.7945 72.6879L47.3184 73.6128L48.5905 75.6438L50.0892 74.7049L49.9359 74.461L48.715 75.2255Z" fill="#A7202C"/>
<path fill-rule="evenodd" clip-rule="evenodd" d="M50.5576 72.437L50.0308 72.9838L49.4367 72.4115L50 71.8266C50.1999 71.6196 50.3972 71.6098 50.5921 71.7975C50.7932 71.9914 50.7816 72.2045 50.5576 72.437ZM51.8476 72.5705L51.5183 72.2893C51.3362 72.1139 51.159 72.0771 50.9884 72.1789C51.0575 71.931 50.9985 71.7153 50.8097 71.5334C50.6274 71.3579 50.4472 71.3003 50.2688 71.3588C50.1215 71.3865 49.9625 71.4881 49.7932 71.6639L49.0208 72.4654L50.7465 74.1285L50.9741 73.8929L50.2287 73.1748L50.7738 72.6088C50.9797 72.3952 51.1837 72.3914 51.3853 72.5979C51.5984 72.7913 51.7554 72.9184 51.855 72.9782L52.1374 72.6854L52.0993 72.649C52.0137 72.688 51.9295 72.662 51.8476 72.5705Z" fill="#A7202C"/>
<path fill-rule="evenodd" clip-rule="evenodd" d="M53.0703 70.1582C52.7771 69.9681 52.4965 69.9995 52.2288 70.2526L51.7264 70.739C51.6 70.8856 51.4637 70.9118 51.3171 70.8172C51.0904 70.6699 51.0702 70.4438 51.2573 70.1381C51.4806 69.8254 51.7257 69.7442 51.9917 69.896L52.1554 69.6434C51.7212 69.3825 51.3399 69.5053 51.0122 70.0107C50.884 70.2086 50.8283 70.3906 50.8453 70.5575C50.8548 70.783 50.9646 70.9673 51.172 71.1128C51.4139 71.2693 51.6681 71.2312 51.9332 70.9978L52.292 70.6368C52.4426 70.4846 52.5628 70.396 52.652 70.3706C52.7416 70.3451 52.8371 70.3661 52.9395 70.4324C53.1546 70.5822 53.1516 70.8349 52.9315 71.1912C52.6912 71.5459 52.415 71.6271 52.1028 71.4348L51.9317 71.6988C52.1543 71.8532 52.3679 71.893 52.5727 71.8172C52.7657 71.7757 52.9551 71.6128 53.1401 71.3269C53.2824 71.1071 53.3623 70.8878 53.3783 70.6703C53.3783 70.4616 53.2757 70.2912 53.0703 70.1582Z" fill="#A7202C"/>
<path fill-rule="evenodd" clip-rule="evenodd" d="M53.9693 69.7206L51.7784 68.7484L51.9112 68.4493L54.102 69.4216L53.9693 69.7206Z" fill="#A7202C"/>
<path fill-rule="evenodd" clip-rule="evenodd" d="M52.9416 66.2355L52.6787 66.1551L52.1139 68.0099L52.377 68.0898L52.6135 67.313L54.6435 67.9313L54.7349 67.6309L52.7051 67.0127L52.9416 66.2355Z" fill="#A7202C"/>
<path fill-rule="evenodd" clip-rule="evenodd" d="M54.1483 65.0132L52.8035 63.9896L52.771 64.3681L53.8592 65.159L52.6526 65.7387L52.6196 66.1162L54.12 65.3392L55.0854 65.4229L55.1135 65.0964L54.1483 65.0132Z" fill="#A7202C"/>
<path fill-rule="evenodd" clip-rule="evenodd" d="M85.1256 76.1446C84.4625 76.1308 84.1314 75.5396 84.1314 74.3719C84.1596 73.2192 84.4907 72.629 85.1256 72.5992C85.7452 72.629 86.0693 73.2192 86.0975 74.3719C86.0975 75.5396 85.7737 76.1308 85.1256 76.1446ZM85.1256 72.4056C83.8858 72.4915 83.2303 73.1471 83.1584 74.3719C83.2303 75.597 83.8858 76.2388 85.1256 76.2958C86.3502 76.2388 86.9986 75.597 87.0705 74.3719C86.9986 73.1471 86.3502 72.4915 85.1256 72.4056Z" fill="#A7202C"/>
<path fill-rule="evenodd" clip-rule="evenodd" d="M76.704 74.7834C76.9496 74.7972 77.1006 74.8265 77.1579 74.8691C77.2298 74.9125 77.2656 75.014 77.2656 75.1726V75.7551C77.2953 76.0295 77.1071 76.1594 76.704 76.1445C75.9838 76.1308 75.623 75.5396 75.623 74.3719C75.623 73.1908 75.9615 72.5992 76.6397 72.5992C77.1725 72.6289 77.6054 73.0035 77.9363 73.7236H78.0664V72.427H77.9141C77.857 72.5992 77.7775 72.6861 77.677 72.6861C77.6476 72.6861 77.562 72.6575 77.4169 72.5992C77.0861 72.4702 76.8121 72.4056 76.5962 72.4056C75.3854 72.4914 74.7295 73.1547 74.6292 74.3942C74.7158 75.6189 75.3854 76.2527 76.6397 76.296C77.3165 76.2675 77.8133 76.1668 78.1309 75.9935V75.2806C78.1309 75.0783 78.1595 74.9486 78.2176 74.8913C78.2602 74.8332 78.3902 74.7972 78.606 74.7834V74.6532H76.704V74.7834Z" fill="#A7202C"/>
<path fill-rule="evenodd" clip-rule="evenodd" d="M67.871 72.6217C68.2316 72.6217 68.4046 72.7579 68.3907 73.0322V75.6911C68.3907 75.8349 68.3546 75.9365 68.2827 75.9934C68.2244 76.0369 68.0878 76.0729 67.871 76.1013V76.2314H69.8174V76.1013C69.4421 76.1013 69.2621 75.9651 69.2766 75.6911V73.0322C69.2621 72.7579 69.428 72.6217 69.7738 72.6217H69.8174V72.4915H67.871V72.6217Z" fill="#A7202C"/>
<path fill-rule="evenodd" clip-rule="evenodd" d="M92.6906 72.6217C93.0801 72.6217 93.2597 72.8088 93.2315 73.1832V74.8691C93.2597 75.6623 92.9352 76.058 92.2583 76.058C91.7104 76.058 91.444 75.6983 91.4588 74.9784V73.1397C91.4588 72.9242 91.4947 72.7877 91.5666 72.7297C91.6099 72.6574 91.754 72.6217 91.9993 72.6217V72.4915H90.1185V72.6217C90.3208 72.6364 90.4425 72.6788 90.4858 72.7516C90.5438 72.8088 90.5726 72.9387 90.5726 73.1397V74.9784C90.5577 75.4531 90.6876 75.7918 90.9616 75.9934C91.2206 76.1955 91.5952 76.2959 92.0859 76.2959C92.5608 76.2821 92.9212 76.1595 93.1663 75.9291C93.3537 75.727 93.4543 75.3738 93.4693 74.8691V73.0976C93.4398 72.7943 93.5845 72.6364 93.9009 72.6217V72.4915H92.6906V72.6217Z" fill="#A7202C"/>
<path fill-rule="evenodd" clip-rule="evenodd" d="M66.189 72.6217C66.5645 72.6364 66.7368 72.8235 66.708 73.1832V74.8481L64.7844 72.4915H63.6167V72.6217C63.6886 72.6067 63.8473 72.7442 64.0929 73.0322V75.6476C64.0929 75.8065 64.0567 75.9142 63.9849 75.9724C63.9266 76.0296 63.7975 76.0729 63.5957 76.1013V76.2314H64.8491V76.1013C64.4745 76.1013 64.3012 75.9142 64.3305 75.5397V73.3345L66.7947 76.2959H66.9462V73.0755C66.9166 72.8014 67.0614 72.6502 67.3774 72.6217V72.4915H66.189V72.6217Z" fill="#A7202C"/>
<path fill-rule="evenodd" clip-rule="evenodd" d="M72.8599 72.6217C73.2352 72.6364 73.408 72.8235 73.3794 73.1832V74.8481L71.4555 72.4915H70.2878V72.6217C70.3597 72.6067 70.5183 72.7442 70.7638 73.0322V75.6476C70.7638 75.8065 70.7277 75.9142 70.6557 75.9724C70.5977 76.0296 70.4686 76.0729 70.2664 76.1013V76.2314H71.52V76.1013C71.1454 76.1013 70.9721 75.9142 71.0018 75.5397V73.3345L73.4662 76.2959H73.6172V73.0755C73.5877 72.8014 73.7326 72.6502 74.0492 72.6217V72.4915H72.8599V72.6217Z" fill="#A7202C"/>
<path fill-rule="evenodd" clip-rule="evenodd" d="M80.8064 76.058C80.5759 76.0729 80.4679 75.9573 80.4828 75.7125V74.3285H80.6342C81.1957 74.3435 81.4768 74.6386 81.4768 75.2151C81.4768 75.7779 81.2538 76.058 80.8064 76.058ZM80.4828 72.9242C80.4679 72.7516 80.5621 72.6648 80.7631 72.6648C81.1522 72.6648 81.3469 72.903 81.3469 73.3779C81.3469 73.6951 81.2899 73.9045 81.1743 74.0048C81.0595 74.1204 80.8284 74.1776 80.4828 74.1776V72.9242ZM81.3902 74.2205V74.1997C81.9669 74.0696 82.2555 73.796 82.2555 73.3779C82.2406 72.8014 81.7585 72.5064 80.8064 72.4915H79.0993V72.6217C79.4453 72.6217 79.6105 72.7579 79.5967 73.0322V75.6909C79.5967 75.8349 79.5603 75.9365 79.4886 75.9934C79.4306 76.0369 79.3011 76.0729 79.0993 76.1011V76.2314H80.8932C81.8737 76.203 82.3846 75.857 82.4279 75.1939C82.4139 74.6607 82.0682 74.3359 81.3902 74.2205Z" fill="#A7202C"/>
<path fill-rule="evenodd" clip-rule="evenodd" d="M115.644 74.1563L114.844 73.7669C114.599 73.6517 114.44 73.551 114.368 73.4642C114.297 73.378 114.261 73.255 114.261 73.0975C114.275 72.7805 114.476 72.6066 114.866 72.5782C115.37 72.5929 115.731 72.9314 115.946 73.5947H116.097V72.4056H115.926C115.911 72.5347 115.853 72.5992 115.752 72.5992C115.709 72.5992 115.629 72.5782 115.514 72.5347C115.269 72.4483 115.06 72.4056 114.888 72.4056C114.109 72.4193 113.698 72.7876 113.656 73.5079C113.627 73.9691 113.943 74.3581 114.606 74.6743L114.974 74.8691C115.406 75.0279 115.615 75.2511 115.601 75.5396C115.572 75.929 115.341 76.1308 114.909 76.1445C114.332 76.1445 113.951 75.7551 113.764 74.9783H113.612V76.296H113.764C113.792 76.1956 113.85 76.1445 113.937 76.1445C113.979 76.1445 114.059 76.1594 114.174 76.1882C114.434 76.2601 114.671 76.296 114.888 76.296C115.738 76.2675 116.192 75.8928 116.249 75.1726C116.249 74.7254 116.048 74.3867 115.644 74.1563Z" fill="#A7202C"/>
<path fill-rule="evenodd" clip-rule="evenodd" d="M116.871 72.6217C117.232 72.6217 117.404 72.7579 117.391 73.0322V75.6911C117.391 75.8349 117.355 75.9365 117.283 75.9934C117.225 76.0369 117.088 76.0729 116.871 76.1013V76.2314H118.818V76.1013C118.442 76.1013 118.262 75.9651 118.277 75.6911V73.0322C118.262 72.7579 118.428 72.6217 118.774 72.6217H118.818V72.4915H116.871V72.6217Z" fill="#A7202C"/>
<path fill-rule="evenodd" clip-rule="evenodd" d="M119.375 72.4915L119.354 73.5945H119.504C119.577 72.96 119.936 72.6501 120.585 72.665V75.5833C120.585 75.799 120.549 75.9365 120.477 75.9935C120.448 76.0515 120.305 76.0874 120.045 76.1013V76.2313H122.012V76.1013C121.752 76.0874 121.608 76.0515 121.58 75.9935C121.507 75.9365 121.471 75.799 121.471 75.5833V72.665C122.12 72.6501 122.473 72.96 122.531 73.5945H122.703L122.682 72.4915H119.375Z" fill="#A7202C"/>
<path fill-rule="evenodd" clip-rule="evenodd" d="M96.9668 72.6217C97.3423 72.6364 97.5142 72.8235 97.4859 73.1832V74.8481L95.562 72.4915H94.3945V72.6217C94.4664 72.6067 94.625 72.7442 94.8705 73.0322V75.6476C94.8705 75.8065 94.8342 75.9142 94.7627 75.9724C94.7042 76.0296 94.5752 76.0729 94.3733 76.1013V76.2314H95.6265V76.1013C95.2523 76.1013 95.0788 75.9142 95.1085 75.5397V73.3345L97.5727 76.2959H97.7239V73.0755C97.6944 72.8014 97.8388 72.6502 98.1555 72.6217V72.4915H96.9668V72.6217Z" fill="#A7202C"/>
<path fill-rule="evenodd" clip-rule="evenodd" d="M125.79 72.4915V72.6217C126.107 72.6364 126.259 72.7218 126.244 72.8807C126.229 73.0247 126.157 73.1908 126.028 73.3779L125.422 74.4154L124.752 73.1187C124.752 73.1038 124.738 73.0827 124.709 73.054C124.651 72.9387 124.623 72.8593 124.623 72.8162C124.579 72.6722 124.73 72.6066 125.076 72.6217V72.4915H123.218V72.6217C123.405 72.6364 123.549 72.7371 123.65 72.9242L124.666 74.7613V75.5833C124.666 75.7851 124.63 75.9142 124.558 75.9723C124.514 76.0441 124.378 76.0874 124.148 76.1013V76.2313H126.071V76.1013C125.84 76.0874 125.703 76.0515 125.66 75.9935C125.603 75.9365 125.573 75.799 125.573 75.5833V74.5666L126.633 72.8374C126.705 72.7218 126.82 72.6501 126.979 72.6217H127V72.4915H125.79Z" fill="#A7202C"/>
<path fill-rule="evenodd" clip-rule="evenodd" d="M103.66 72.6217C103.861 72.6364 103.983 72.6574 104.027 72.6862C104.099 72.7146 104.135 72.7804 104.135 72.8807C104.135 72.9387 104.106 73.0394 104.049 73.1832C104.034 73.2269 104.027 73.2551 104.027 73.2698L103.314 75.086L102.6 73.3345C102.485 73.1039 102.428 72.9452 102.428 72.8594C102.428 72.7579 102.456 72.7007 102.514 72.6862C102.557 72.6574 102.687 72.6364 102.903 72.6217V72.4915H101.044V72.6217C101.26 72.6217 101.419 72.7516 101.519 73.0108L102.925 76.2959H103.076L104.329 73.0755C104.431 72.7728 104.596 72.6217 104.826 72.6217V72.4915H103.66V72.6217Z" fill="#A7202C"/>
<path fill-rule="evenodd" clip-rule="evenodd" d="M98.649 72.6217C99.0096 72.6217 99.182 72.7579 99.1679 73.0322V75.6911C99.1679 75.8349 99.132 75.9365 99.0603 75.9934C99.0022 76.0369 98.8656 76.0729 98.649 76.1013V76.2314H100.595V76.1013C100.219 76.1013 100.04 75.9651 100.054 75.6911V73.0322C100.04 72.7579 100.206 72.6217 100.552 72.6217H100.595V72.4915H98.649V72.6217Z" fill="#A7202C"/>
<path fill-rule="evenodd" clip-rule="evenodd" d="M107.157 76.058C106.811 76.0729 106.653 75.9724 106.682 75.7552V74.4154C106.985 74.4154 107.2 74.4736 107.33 74.5886C107.461 74.7179 107.546 74.9422 107.59 75.2584H107.72V73.3999H107.59C107.546 73.7163 107.461 73.9329 107.33 74.0485C107.2 74.1638 106.985 74.2205 106.682 74.2205V72.9452C106.653 72.7442 106.79 72.6574 107.092 72.6862C107.525 72.6862 107.827 72.7516 108 72.8806C108.188 73.0108 108.303 73.2488 108.346 73.5946H108.498V72.4915H105.299V72.6217C105.644 72.6217 105.81 72.7579 105.795 73.0322V75.6909C105.795 75.8349 105.76 75.9365 105.688 75.9934C105.644 76.0369 105.515 76.0729 105.299 76.1011V76.2314H108.54L108.757 75.086H108.606C108.332 75.7489 107.849 76.0729 107.157 76.058Z" fill="#A7202C"/>
<path fill-rule="evenodd" clip-rule="evenodd" d="M111.497 74.1564C111.368 74.2716 111.102 74.3286 110.697 74.3286V72.903C110.669 72.7296 110.784 72.6576 111.044 72.6862C111.49 72.6862 111.714 72.9526 111.714 73.4858C111.714 73.818 111.642 74.041 111.497 74.1564ZM111.778 74.4156C112.37 74.2431 112.658 73.9258 112.643 73.4643C112.629 72.83 112.109 72.5063 111.087 72.4915H109.314V72.6217C109.516 72.6364 109.639 72.6722 109.682 72.7296C109.754 72.8014 109.79 72.9387 109.79 73.1397V75.5833C109.79 75.7851 109.76 75.9214 109.704 75.9935C109.66 76.0515 109.53 76.0875 109.314 76.1013V76.2313H111.174V76.1013C110.943 76.0729 110.813 76.0296 110.784 75.9723C110.727 75.9142 110.697 75.7851 110.697 75.5833V74.502H110.849L111.995 76.2313H113.119V76.1013C113.047 76.1013 112.975 76.0654 112.903 75.9935L111.778 74.4156Z" fill="#A7202C"/>
<path fill-rule="evenodd" clip-rule="evenodd" d="M106.439 59.9615L107.168 59.7892L107.592 59.6138L107.869 59.2655L107.927 58.9935L107.879 58.6577L107.542 58.3437L107.033 58.1765L106.668 58.2012L106.448 58.2774L106.175 58.3218L105.922 58.228L105.878 57.9956L105.973 57.7312L106.221 57.4581L106.394 57.3111L106.427 57.0744L106.32 56.8891L106.248 56.59L106.166 56.2275L106.001 55.9083L105.836 55.7316L105.618 55.523L105.345 55.5679L105.019 55.5811L104.707 55.6374L104.565 55.8314L104.518 56.167L104.579 56.5452C104.579 56.5452 104.808 56.8169 104.895 56.8752C104.981 56.9345 105.097 57.0601 105.097 57.0601L105.129 57.3715L105.103 57.691L105.05 58.0662L104.985 58.2553L104.966 58.3941L104.77 58.4342L104.363 58.4909L103.965 58.6107L103.563 58.6286L103.073 58.7291L102.731 58.8604L102.328 59.0199L101.861 59.2266L101.962 59.5936L102.11 59.8886L102.304 60.1324L102.535 60.384L102.794 60.5805L103.105 60.6656L103.463 60.8215L103.791 60.9308L103.914 61.1395L103.765 61.6571L103.647 62.2216L103.4 62.7591L103.185 63.2018L102.579 63.7246C102.579 63.7246 102.167 63.9437 102.067 63.9836C101.966 64.0234 101.645 64.139 101.645 64.139L101.301 64.1483L100.936 64.1733L100.686 64.4665L100.591 64.7311L100.656 64.9477L100.845 65.0893L101.085 65.2812L101.301 65.3675L101.576 65.3032L101.906 65.1281L102.119 64.9693L102.382 64.72L102.671 64.557L102.975 64.1533L103.221 63.8998L103.404 63.6743L103.532 63.579L103.877 63.4277L104.22 63.1544L104.601 62.7462L104.72 62.3039L104.855 61.8854L104.881 61.5657L105.056 61.1348L105.392 60.6365L105.755 60.2249L106.439 59.9615Z" fill="#A7202C"/>
<path fill-rule="evenodd" clip-rule="evenodd" d="M109.904 64.5468L109.021 64.1993L108.585 64.0471L108.177 63.8402C108.177 63.8402 107.871 63.7151 107.784 63.656C107.697 63.5973 107.458 63.4048 107.458 63.4048L107.214 63.1104L106.985 62.8391C106.985 62.8391 106.831 62.5833 106.756 62.4458C106.68 62.3075 106.493 62.1468 106.493 62.1468L106.163 61.7931L105.772 61.5896L105.504 61.7368L105.471 61.9735L105.493 62.2215L105.766 62.584L105.962 62.8077L106.169 63.0948L106.374 63.4017L106.541 63.7008L106.739 64.0473L107.091 64.5271L107.36 64.9085L107.602 65.0809L107.946 65.2134C107.946 65.2134 108.356 65.4014 108.473 65.3854C108.59 65.3685 109.012 65.4774 109.012 65.4774C109.012 65.4774 109.465 65.5112 109.562 65.4908C109.66 65.4709 109.93 65.4464 109.93 65.4464L110.066 65.2918L110.25 65.0662L110.286 64.8098L110.108 64.5893L109.904 64.5468Z" fill="#A7202C"/>
<path fill-rule="evenodd" clip-rule="evenodd" d="M126.912 61.4195C126.903 61.292 126.673 61.1176 126.591 60.9747C126.508 60.8316 126.367 60.7513 126.215 60.5679C126.061 60.3847 125.966 60.3394 125.966 60.3394L125.703 60.0325L125.257 59.5858L124.996 59.4554L124.717 59.2705L124.332 59.138L124.004 59.1434C124.004 59.1434 123.602 59.1338 123.476 59.1319C123.35 59.1308 122.985 59.2287 122.985 59.2287L122.624 59.3026L122.547 59.1103L122.784 58.8344L123.134 58.6572L123.386 58.4597L123.867 58.2358L124.067 57.851L124.114 57.4841L123.9 57.1875L123.575 56.9677L123.438 56.6623L123.325 56.3619L123.295 56.0038L123.363 55.466L123.536 55.1005L123.818 54.859L124.244 54.6733L124.787 54.5628L125.229 54.6566L125.6 54.5095L125.739 54.212L125.656 53.8681L125.396 53.5365L125.194 53.3429L124.83 53.2403L124.649 52.8754L124.408 52.397L124.188 52.1493L123.694 52.0698L123.409 52.1348L123.292 52.4616L123.347 52.8247L123.49 53.0814L123.533 53.3416L123.575 53.8025L123.28 54.142L122.951 54.5492L122.527 54.9114L121.919 55.3348L121.53 55.6289L121.541 55.9329L121.768 56.1315L122.087 56.1993L122.452 56.3019L122.479 56.4836L122.304 56.6725L122.296 57.1233L122.547 57.3274L122.873 57.3462L122.961 57.6413L122.841 57.9924L122.705 58.2648L122.463 58.5899L122.005 58.8196L121.564 58.9266L121.174 58.819L121.034 58.5377L121.035 58.1362L121.189 57.9179L121.287 57.5368L121.168 57.2853L120.997 57.0482L120.556 56.7533L120.342 56.6575L120.299 56.3974L120.416 55.8699L120.573 55.4256C120.573 55.4256 120.737 54.9327 120.777 54.8159C120.817 54.6988 120.768 54.4874 120.76 54.3601C120.75 54.2325 120.516 53.7052 120.482 53.5725L120.23 53.77L119.954 53.9627L119.794 54.2304L119.637 54.6739L119.777 55.1557L120.019 55.4333L120.061 55.8944L120.054 56.345L119.97 56.8048L119.923 57.1718L120.002 57.9419L120.175 58.5563L120.573 58.9929L121.035 59.5178L121.305 59.7759L121.221 60.0349L120.235 59.8749L119.845 59.9682L119.505 60.0718L119.155 60.2485L118.71 60.5811L118.17 60.8682L117.859 61.1289L117.124 61.3747C117.124 61.3747 116.724 61.5408 116.574 61.5341C116.424 61.5271 116.178 61.6759 116.178 61.6759L115.884 61.8143L115.734 61.6066L115.925 61.2956L115.682 61.4197L115.283 61.7874L114.952 62.0181L114.669 62.4603L114.833 62.9475L115.268 63.0907L115.768 63.1212L116.24 62.9703L116.627 62.7009L116.938 62.2392C116.938 62.2392 117.432 61.9174 117.567 61.8453C117.702 61.7736 118.27 61.4671 118.27 61.4671L119.291 61.1568L119.978 60.9008L120.629 60.7376C120.629 60.7376 121.426 60.4044 121.558 60.3572C121.69 60.3102 122.061 60.1629 122.061 60.1629L122.843 59.952L123.383 59.8658L124.027 59.9524L124.661 60.1127L125.135 60.7405L125.355 60.9885L125.293 61.2766L125.21 61.7363L125.019 62.0475L124.881 62.3444L125.184 62.334L125.506 62.1761L125.886 62.1562L126.322 62.098L126.745 62.1378L127 61.9156C127 61.9156 126.921 61.5471 126.912 61.4195Z" fill="#A7202C"/>
<path fill-rule="evenodd" clip-rule="evenodd" d="M124.245 64.7715L124.021 64.5479L123.482 64.4335L123.16 64.5912L122.804 64.6158L122.464 64.5188L122.296 64.2568L122.079 63.7838L122.018 63.4696L122.365 63.1164L122.654 62.8263L122.866 62.5447L123.017 62.1493L122.907 61.8249L122.306 61.7976L121.5 62.0033L120.432 62.2783L119.749 62.5101L119.524 62.6883L119.621 63.111L119.79 63.3728L120.096 63.5379L120.537 63.4315L121.298 62.99L121.178 63.3414L121.101 63.9532C121.101 63.9532 121.033 64.0894 121.115 64.2323C121.198 64.3755 121.387 64.4658 121.387 64.4658L121.461 64.6826L121.445 65.0057L121.12 65.1876L120.687 65.4221L120.184 65.617C120.184 65.617 119.755 65.6263 119.595 65.6926C119.436 65.7593 119.068 65.8823 119.068 65.8823L118.638 65.8911L118.546 66.2234L118.815 66.4815L119.11 66.5441L119.443 66.6905L120.029 66.6391L120.416 66.3697L120.989 66.2151L121.4 66.1515L121.728 66.1458L121.734 66.4986L121.626 66.9531L121.591 67.4229L121.609 67.6782L121.501 67.9311L121.075 68.1173L120.581 68.238L120.136 68.3698L119.9 68.646C119.9 68.646 120.145 68.6984 120.286 68.7783C120.426 68.8584 120.745 68.9262 120.745 68.9262L121.095 68.9506L121.628 68.913L122.171 68.6015L122.54 68.2776L122.715 67.888L122.903 67.4003L122.99 66.9165L123.024 66.4466L123.001 66.0395L123.498 65.8938L123.743 65.9462L123.994 65.9492L124.359 65.8509L124.586 65.6479L124.452 65.1172L124.245 64.7715Z" fill="#A7202C"/>
<path fill-rule="evenodd" clip-rule="evenodd" d="M117.951 56.0494L118.122 56.6883L118.109 57.1877L118 57.843L117.953 58.6117L118.05 59.0342L118.209 59.3693L118.549 59.6679L118.99 59.5607L119.304 59.2755L119.378 58.8891L119.299 58.5212L119.021 58.1351L118.758 57.6271L118.617 57.3462L118.683 56.8323L118.748 56.5202C118.748 56.5202 118.791 56.1774 118.81 56.0304C118.828 55.8836 118.921 55.552 118.921 55.552L118.913 55.0225L118.733 54.6579L118.451 54.2965L118.126 54.0769L118.062 54.1886L117.789 54.3567L117.607 54.7954L117.691 55.5169L117.951 56.0494Z" fill="#A7202C"/>
<path fill-rule="evenodd" clip-rule="evenodd" d="M71.9791 61.0373L71.7744 61.0037L71.4591 61.1176L71.1856 61.2296L70.8902 61.3634L70.2633 61.5289L70.0156 61.5375L70.0257 61.3327L70.1431 61.0425L70.4056 60.7264L70.8316 60.4453L70.9779 60.4197L71.4773 60.3195L71.9878 60.4239L72.1019 60.6242L71.9791 61.0373ZM71.5113 59.6233C71.4702 59.625 69.8471 60.3377 69.8471 60.3377L69.744 59.9123L70.4431 59.1104L70.9571 58.7237L71.6064 58.087L71.9139 57.708L71.9994 57.2145L71.7658 56.9365L71.3602 56.7879L71.0403 57.004L70.2248 57.6669L69.4796 58.1438L68.7886 58.3529L68.4737 58.4664L68.9319 58.7975L69.2773 58.9075L69.3873 59.1895L69.2609 59.664C69.2609 59.664 68.7695 60.8674 67.7753 61.803C66.7809 62.7383 67.797 63.0491 68.3139 62.601C68.7048 62.2619 68.7635 62.2043 68.7689 62.1963L69.0551 62.2061L69.2858 62.545L69.3139 63.6684L68.4497 64.4766L67.5547 65.0609L66.6791 65.6854L66.4327 66.0828L66.9834 66.2058L67.5592 66.2463L68.138 65.7961L68.6987 65.2853L69.498 64.9701L69.2719 68.3506L68.0527 68.395L68.9917 69.4442C68.9917 69.4442 69.916 70.3713 70.4578 69.4113C70.9994 68.4517 70.7356 68.3592 70.7356 68.3592L70.9309 64.3458C70.9309 64.3458 72.2102 63.9108 72.3988 63.8428C72.5882 63.7748 72.7528 63.3598 72.7576 63.2574C72.7626 63.1546 72.1597 62.8295 71.9481 62.9393C71.7361 63.0491 70.733 63.3306 70.733 63.3306L70.6888 62.9646L71.5371 62.0549L72.4718 61.9189C72.4718 61.9189 73.9643 60.9245 73.5742 60.0392C73.1842 59.154 71.5527 59.622 71.5113 59.6233Z" fill="#A7202C"/>
<path fill-rule="evenodd" clip-rule="evenodd" d="M69.4728 52.43C69.596 52.6028 69.2915 53.2171 69.2915 53.2171C69.2915 53.2171 69.2168 53.2788 69.6484 53.2394C70.08 53.2004 70.4925 53.3038 70.9167 52.9219C71.341 52.5393 71.1536 51.9787 70.9109 51.8104C70.6686 51.6417 70.3405 51.0271 69.6399 51.2062C68.9394 51.3853 68.9357 52.1894 68.9357 52.1894C68.9357 52.1894 69.3504 52.2567 69.4728 52.43Z" fill="#A7202C"/>
<path fill-rule="evenodd" clip-rule="evenodd" d="M76.5786 54.892C76.3348 54.667 76.1442 54.487 75.6886 54.2481C75.4817 54.1394 75.2758 53.8702 74.8864 53.8397C72.5673 53.655 71.1236 54.4458 69.9687 54.8761C68.8131 55.3066 67.1325 56.7775 66.4035 57.3563C65.6738 57.9345 65.7439 57.7682 65.7885 57.2762C65.8331 56.7838 67.8313 54.7083 66.7372 55.157C65.643 55.6053 64.1904 57.4774 63.7529 58.8421C63.3152 60.2068 63.8207 60.4135 64.9212 59.842C66.0217 59.2707 66.4471 58.1517 67.634 57.0662C68.8216 55.9806 71.0959 55.0195 73.0944 54.6401C75.0926 54.2613 75.4817 55.167 75.4304 55.3731C75.3791 55.5791 75.1045 55.7122 74.5378 56.3457C74.3602 56.5434 74.5909 56.3714 74.9231 56.3888C75.6535 56.4267 77.0843 56.3556 77.2198 55.9009C77.3333 55.5189 77.0658 55.3406 76.5786 54.892Z" fill="#A7202C"/>
<path fill-rule="evenodd" clip-rule="evenodd" d="M88.9603 64.0836L88.6063 64.0741L88.4376 63.7445L88.401 63.4179L88.5779 63.1905L88.8102 63.0803C88.8102 63.0803 88.9205 63.0833 88.9228 63.0602L89.1604 63.3687L89.1881 63.7876L88.9603 64.0836ZM93.0274 64.9585L92.6617 64.8329L92.2166 64.6116L91.3794 64.0782L91.0551 63.7445L90.7738 63.4346L90.5319 63.1725L90.4452 62.9146L90.6861 62.7122L90.9331 62.4397L91.1807 62.1675L91.3615 61.8933L91.4605 61.5473L91.4661 61.013L91.2149 60.379L90.986 59.9778L90.6715 59.7835C90.6715 59.7835 90.3748 59.6361 90.2707 59.5639C90.1665 59.4912 89.8698 59.3443 89.8698 59.3443L89.9578 59.1141L90.1407 58.817L90.479 58.5236L90.8389 58.231L91.1791 57.9147L91.4093 57.828L91.6703 57.8811L91.7214 58.0454L91.5605 58.343L91.3708 58.7101L91.2606 58.9394L91.6081 59.0184L91.9689 58.9585L92.4336 58.9704L92.7522 58.8861L93.0328 58.7309L93.2934 58.552L93.2929 58.0872L93.0595 57.7327L92.6517 57.3495L92.4365 57.0419L92.2504 56.8977L91.9577 56.7034L91.3448 56.6179L90.9243 56.6066L90.683 56.5768L90.8275 55.9767L90.9554 55.5616L91.0589 55.1694L91.2814 54.6876L91.4265 54.3194L91.614 53.9759L91.5694 53.7421L91.0771 53.3107L90.5884 53.3211L90.1148 53.4014L90.0071 53.6078L89.9502 54.2103L89.8083 55.2528L89.6734 56.2249C89.6734 56.2249 89.6377 57.3161 89.6271 57.4319C89.6161 57.5476 89.5361 58.4054 89.5361 58.4054L89.22 58.699L88.9813 58.8785L88.5084 59.1915L87.9997 59.4104L88.0196 59.2018L88.1093 58.7163L88.2255 58.1851L88.3512 56.8405L88.3498 56.143L88.2825 55.6763L88.0807 55.4624L87.7978 55.6406L87.5087 56.1205L87.2707 56.5326L87.2209 57.066L86.9425 59.5683C86.9425 59.5683 86.9684 60.4752 86.9357 60.5908C86.9028 60.7056 86.6832 61.8619 86.6832 61.8619L86.5672 62.3932L86.4576 62.8553L86.2545 63.3609L86.0195 63.9825L85.7969 64.4641L85.7027 64.9964L85.5684 65.4806L85.4941 65.8037L85.6275 66.04L85.926 66.1642L86.2889 66.0807L86.5825 65.7864L86.8225 65.3515L86.7803 64.8623L86.8758 64.0749L87.052 63.6147L87.3693 62.833L87.8143 61.8689L88.0763 61.2019L88.3498 60.6515L88.4064 60.281L88.656 59.9853L88.9345 59.8535L89.1845 59.7907L89.2622 59.9089L89.2429 60.1172L89.2789 60.4436L89.4692 60.5419L89.9298 60.6004L90.3435 60.6812L90.4392 60.8464L90.4749 61.1724L90.4446 61.4973L90.3166 61.6798L90.089 61.9757L89.8177 62.2708L89.537 62.4257L89.0432 62.2504L88.6201 62.0296L88.2504 61.9499L88.096 62.1785L88.0103 62.6177L87.8379 63.7518L87.7755 64.6564L87.8626 65.1465L88.2173 65.3885L88.4521 65.4877L88.7568 65.3099L89.055 64.9691L89.3466 64.6982L89.6561 64.4741L89.9809 64.3199L90.2846 64.63L90.8389 65.1096L91.2071 65.4447L91.3335 65.7502L91.6014 65.9666C91.6014 65.9666 91.7967 66.0183 91.9275 66.0449C92.0579 66.0713 92.368 66.0798 92.368 66.0798L92.7461 66.0664L93.0513 65.8892L93.3609 65.6647L93.6788 65.3479L93.7445 65.1172L93.479 65.1098L93.0274 64.9585Z" fill="#A7202C"/>
<path fill-rule="evenodd" clip-rule="evenodd" d="M82.9275 61.46L83.0783 61.7429L83.4239 61.8451L83.8041 61.5759L84.1309 61.1664L84.3312 60.6841L84.2975 60.3344L84.0621 60.0031L83.6054 59.6653L83.258 59.5864L82.9199 59.8794L82.7192 60.13L82.6073 60.6151L82.7872 61.0611L82.9275 61.46Z" fill="#A7202C"/>
<path fill-rule="evenodd" clip-rule="evenodd" d="M84.7187 56.3022L84.3246 56.2456L83.8559 56.2794L83.4137 56.4999L83.1993 56.6567L83.1734 57.1677L83.166 57.7249L83.3613 58.009L83.775 58.09L84.1468 58.1461L84.6093 57.9491L84.7393 57.7435L84.9246 57.4232L84.9658 56.9828L84.9405 56.5406L84.7187 56.3022Z" fill="#A7202C"/>
<path fill-rule="evenodd" clip-rule="evenodd" d="M84.1272 65.0008L83.7313 65.1996L83.5041 65.4954L83.2807 65.5127L82.8685 65.1766L82.7096 65.451L82.6596 65.9844L82.4679 66.3744L82.3025 66.7185L82.3302 67.1377L82.5251 67.4217L82.8755 67.7097L83.2603 67.6269L83.3747 67.3511L83.6044 67.0319L83.9914 66.926L84.3138 66.5628L84.4524 66.032L84.3937 65.4727L84.1272 65.0008Z" fill="#A7202C"/>
</g>
<defs>
<filter id="filter0_d_185_296" x="0" y="0" width="154" height="157" filterUnits="userSpaceOnUse" color-interpolation-filters="sRGB">
<feFlood flood-opacity="0" result="BackgroundImageFix"/>
<feColorMatrix in="SourceAlpha" type="matrix" values="0 0 0 0 0 0 0 0 0 0 0 0 0 0 0 0 0 0 127 0" result="hardAlpha"/>
<feOffset dy="16"/>
<feGaussianBlur stdDeviation="6.5"/>
<feColorMatrix type="matrix" values="0 0 0 0 0 0 0 0 0 0 0 0 0 0 0 0 0 0 0.03 0"/>
<feBlend mode="normal" in2="BackgroundImageFix" result="effect1_dropShadow_185_296"/>
<feBlend mode="normal" in="SourceGraphic" in2="effect1_dropShadow_185_296" result="shape"/>
</filter>
</defs>
</svg>
