<svg width="154" height="157" viewBox="0 0 154 157" fill="none" xmlns="http://www.w3.org/2000/svg">
<g filter="url(#filter0_d_271_3)">
<rect width="128" height="128" transform="translate(13)" fill="white"/>
<path fill-rule="evenodd" clip-rule="evenodd" d="M84.4489 81.8595L84.3399 81.5283C83.8598 81.6769 83.5513 81.7394 83.3169 81.7394C82.6647 81.7394 82.3046 81.1622 82.3046 80.1103C82.3046 79.1323 82.6876 78.5942 83.385 78.5942C83.6315 78.5942 83.9112 78.6288 84.2768 78.7085L84.3577 78.3661C84.003 78.2577 83.637 78.1953 83.3622 78.1953C82.3614 78.1953 81.8136 78.8921 81.8136 80.173C81.8136 81.4138 82.3503 82.145 83.2421 82.145C83.5513 82.145 83.9911 82.0419 84.4489 81.8595Z" fill="#25366D"/>
<path fill-rule="evenodd" clip-rule="evenodd" d="M87.9275 82.0708V78.2576H87.4713V79.8931H85.6408V78.2576H85.1836V82.0708H85.6408V80.2355H87.4713V82.0708H87.9275Z" fill="#25366D"/>
<path fill-rule="evenodd" clip-rule="evenodd" d="M88.8513 82.0712H89.3077V78.2573H88.8513V82.0712Z" fill="#25366D"/>
<path fill-rule="evenodd" clip-rule="evenodd" d="M92.9807 82.0708V78.2576H92.5985V81.6482L90.8832 78.2576H90.2319V82.0708H90.6143V78.7257L92.3305 82.0708H92.9807Z" fill="#25366D"/>
<path fill-rule="evenodd" clip-rule="evenodd" d="M94.4179 80.699L95.104 78.6519L95.813 80.699H94.4179ZM95.396 78.2576H94.8761L93.5204 82.0708H93.9325L94.2984 81.0474H95.945L96.3163 82.0708H96.7853L95.396 78.2576Z" fill="#25366D"/>
<path fill-rule="evenodd" clip-rule="evenodd" d="M106.498 82.0712L106.372 78.2571H105.721L104.622 81.7062L103.513 78.2571H102.861L102.735 82.0712H103.158L103.233 78.6972L104.319 82.0712H104.868L105.966 78.6972L106.029 82.0712H106.498Z" fill="#25366D"/>
<path fill-rule="evenodd" clip-rule="evenodd" d="M107.933 80.699L108.619 78.6513L109.328 80.699H107.933ZM108.911 78.2571H108.39L107.035 82.0712H107.447L107.813 81.0474H109.46L109.832 82.0712H110.301L108.911 78.2571Z" fill="#25366D"/>
<path fill-rule="evenodd" clip-rule="evenodd" d="M113.037 82.0712V81.7287H111.334V78.2571H110.877V82.0712H113.037Z" fill="#25366D"/>
<path fill-rule="evenodd" clip-rule="evenodd" d="M114.267 80.699L114.953 78.6513L115.663 80.699H114.267ZM115.245 78.2571H114.724L113.37 82.0712H113.781L114.147 81.0474H115.794L116.166 82.0712H116.635L115.245 78.2571Z" fill="#25366D"/>
<path fill-rule="evenodd" clip-rule="evenodd" d="M119.435 78.2571H118.977L117.966 80.0183L116.925 78.2571H116.4L117.697 80.4011V82.0712H118.155V80.4011L119.435 78.2571Z" fill="#25366D"/>
<path fill-rule="evenodd" clip-rule="evenodd" d="M121.97 80.9849C121.97 80.4072 121.753 80.1556 120.918 79.8984C120.203 79.681 120.106 79.5777 120.106 79.2349C120.106 78.8282 120.397 78.5997 120.815 78.5997C121.05 78.5997 121.342 78.64 121.719 78.7198L121.799 78.3829C121.445 78.2798 121.102 78.2226 120.798 78.2226C120.1 78.2226 119.649 78.6228 119.649 79.2747C119.649 80.1556 120.529 80.207 121.147 80.4877C121.445 80.6187 121.514 80.7619 121.514 81.0425C121.514 81.4537 121.153 81.7287 120.666 81.7287C120.392 81.7287 120.089 81.6771 119.707 81.58L119.609 81.9285C120.032 82.0541 120.334 82.1052 120.695 82.1052C121.467 82.1052 121.97 81.6771 121.97 80.9849Z" fill="#25366D"/>
<path fill-rule="evenodd" clip-rule="evenodd" d="M122.681 82.0714H123.139V78.2567H122.681V82.0714Z" fill="#25366D"/>
<path fill-rule="evenodd" clip-rule="evenodd" d="M124.611 80.699L125.298 78.6513L126.007 80.699H124.611ZM125.59 78.2571H125.069L123.714 82.0712H124.125L124.492 81.0474H126.139L126.51 82.0712H126.979L125.59 78.2571Z" fill="#25366D"/>
<path fill-rule="evenodd" clip-rule="evenodd" d="M72.8873 80.5218V78.2622H72.5055V80.6875C72.5055 81.0357 72.477 81.23 72.3971 81.3724C72.2602 81.6237 71.9745 81.755 71.5636 81.755C70.9242 81.755 70.6103 81.4699 70.6103 80.8361V78.2622H70.1543V80.4992C70.1543 81.2244 70.1828 81.407 70.3537 81.6521C70.5591 81.9485 70.9927 82.1307 71.4952 82.1307C71.9688 82.1307 72.3344 82.0114 72.5739 81.7835C72.836 81.5269 72.8873 81.3273 72.8873 80.5218Z" fill="#25366D"/>
<path fill-rule="evenodd" clip-rule="evenodd" d="M76.4062 82.068L74.6542 80.031L76.3605 78.2622H75.8183L74.1634 79.9967V78.2622H73.7078V82.068H74.1634V80.1049L75.8357 82.068H76.4062Z" fill="#25366D"/>
<path fill-rule="evenodd" clip-rule="evenodd" d="M78.8365 82.466H79.0165V77.8743H78.8365V82.466Z" fill="#25366D"/>
<path fill-rule="evenodd" clip-rule="evenodd" d="M99.3967 82.466H99.5767V77.8743H99.3967V82.466Z" fill="#25366D"/>
<path fill-rule="evenodd" clip-rule="evenodd" d="M125.537 72.6607V68.0773C125.537 67.5024 125.224 67.0223 124.457 67.0223C124.025 67.0223 123.713 67.1427 123.449 67.406C123.521 67.6217 123.545 67.8383 123.545 68.2935V72.6607H122.081V68.0773C122.081 67.5503 121.937 66.9979 121.001 66.9979C120.522 66.9979 120.353 67.0703 120.09 67.1908V72.6607H118.626V66.6149C119.179 66.3746 119.969 66.0869 121.073 66.0869C121.985 66.0869 122.585 66.302 122.945 66.6149C123.377 66.302 123.952 66.0869 124.793 66.0869C126.328 66.0869 127 66.9744 127 68.0773V72.6607H125.537Z" fill="#25366D"/>
<path fill-rule="evenodd" clip-rule="evenodd" d="M110.117 72.6607V68.1738C110.117 67.5502 109.853 67.0948 109.037 67.0948C108.58 67.0948 108.269 67.2141 107.958 67.406V72.6607H106.494V64.0234H107.958V66.423C108.341 66.2547 108.893 66.1348 109.397 66.1348C111.005 66.1348 111.58 67.0948 111.58 68.0772V72.6607H110.117Z" fill="#25366D"/>
<path fill-rule="evenodd" clip-rule="evenodd" d="M92.2852 65.275C91.7283 65.275 91.4377 64.9108 91.4377 64.4996C91.4377 64.0893 91.7283 63.7259 92.2852 63.7259C92.8168 63.7259 93.1311 64.0893 93.1311 64.4996C93.1311 64.9108 92.8168 65.275 92.2852 65.275Z" fill="#25366D"/>
<path fill-rule="evenodd" clip-rule="evenodd" d="M97.7126 72.6607V68.0773C97.7126 67.5503 97.4967 66.9979 96.5602 66.9979C96.0809 66.9979 95.8403 67.0703 95.5762 67.1908V72.6607H94.1133V66.6149C94.6648 66.3746 95.5282 66.0869 96.6324 66.0869C98.5517 66.0869 99.1759 67.0223 99.1759 68.0545V72.6607H97.7126Z" fill="#25366D"/>
<path fill-rule="evenodd" clip-rule="evenodd" d="M91.5521 72.6607H93.0168V66.2068H91.5521V72.6607Z" fill="#25366D"/>
<path fill-rule="evenodd" clip-rule="evenodd" d="M89.6377 72.7321C88.3659 72.7321 87.8624 72.0128 87.8624 70.9809V67.1427H87.1423V66.2068H87.8624V64.9104L89.3259 64.5035V66.2068H90.358V67.1427H89.3259V70.9809C89.3259 71.5564 89.6377 71.7254 90.0462 71.7254C90.1659 71.7254 90.3337 71.7254 90.4781 71.7012V72.6607C90.3337 72.684 89.9497 72.7321 89.6377 72.7321Z" fill="#25366D"/>
<path fill-rule="evenodd" clip-rule="evenodd" d="M85.7308 72.7321C84.459 72.7321 83.9551 72.0128 83.9551 70.9809V67.1427H83.2354V66.2068H83.9551V64.9104L85.4192 64.5035V66.2068H86.4505V67.1427H85.4192V70.9809C85.4192 71.5564 85.7308 71.7254 86.1393 71.7254C86.2594 71.7254 86.427 71.7254 86.571 71.7012V72.6607C86.427 72.684 86.043 72.7321 85.7308 72.7321Z" fill="#25366D"/>
<path fill-rule="evenodd" clip-rule="evenodd" d="M75.0964 72.6607L72.025 67.4784C71.8333 67.1662 71.6896 66.8547 71.5217 66.4709H71.4977C71.5452 66.8778 71.5696 67.2141 71.5696 67.5259V72.6607H70.1543V64.4311H71.6657L74.5209 69.2777C74.6887 69.5653 74.8323 69.8294 74.9769 70.2126H75.0009C74.9522 69.8051 74.9522 69.5178 74.9522 69.2296V64.4311H76.3678V72.6607H75.0964Z" fill="#25366D"/>
<path fill-rule="evenodd" clip-rule="evenodd" d="M116.061 71.8445C115.893 71.9163 115.533 72.0128 115.198 72.0128C114.429 72.0128 113.902 71.5088 113.902 70.6203C113.902 69.7817 114.358 69.2057 115.246 69.2057C115.654 69.2057 115.917 69.2777 116.061 69.3014V71.8445ZM115.054 66.0869C114.046 66.0869 113.278 66.3746 112.847 66.5665L113.181 67.4545C113.566 67.2616 114.165 67.0464 114.789 67.0464C115.558 67.0464 116.061 67.2616 116.061 68.1016V68.4618C115.941 68.4379 115.509 68.3655 115.126 68.3655C113.638 68.3655 112.439 69.1339 112.439 70.6684C112.439 71.9163 113.278 72.852 115.102 72.852C116.109 72.852 116.925 72.6607 117.477 72.397V68.3422C117.477 66.6622 116.397 66.0869 115.054 66.0869Z" fill="#25366D"/>
<path fill-rule="evenodd" clip-rule="evenodd" d="M103.905 71.5333C103.69 71.6526 103.402 71.7478 103.067 71.7478C102.035 71.7478 101.578 70.981 101.578 69.4943C101.578 67.9578 102.059 66.9979 103.137 66.9979C103.45 66.9979 103.69 67.0223 103.905 67.1427V71.5333ZM103.155 66.0869C101.073 66.0869 100.044 67.406 100.044 69.4943C100.044 71.5088 101.073 72.7086 102.629 72.7086C103.204 72.7086 103.635 72.6123 103.897 72.4684V72.8766C103.897 73.7395 103.442 74.2916 102.365 74.2916C101.648 74.2916 101.192 74.0997 100.809 73.9326L100.402 74.8439C100.882 75.108 101.648 75.3229 102.629 75.3229C104.233 75.3229 105.334 74.4366 105.334 72.7321V66.5417C104.903 66.302 104.137 66.0869 103.155 66.0869Z" fill="#25366D"/>
<path fill-rule="evenodd" clip-rule="evenodd" d="M80.1434 71.893C79.135 71.893 78.9679 70.5974 78.9679 69.4452C78.9679 68.2694 79.135 66.9744 80.1434 66.9744C81.1507 66.9744 81.3191 68.2694 81.3191 69.4452C81.3191 70.5974 81.1507 71.893 80.1434 71.893ZM80.0484 66.0869C78.225 66.0869 77.3136 67.4784 77.3136 69.4452C77.3136 71.3891 78.225 72.7802 80.0484 72.7802C81.8724 72.7802 82.7834 71.3891 82.7834 69.4452C82.7834 67.4784 81.8724 66.0869 80.0484 66.0869Z" fill="#25366D"/>
<path fill-rule="evenodd" clip-rule="evenodd" d="M114.3 56.1669C113.758 56.1669 113.644 56.4236 113.644 56.8215V57.0219H114.415V57.8203H113.644V61.4407H112.475V57.8203H111.99V57.0219H112.475V56.7079C112.475 55.8236 113.045 55.3394 114.015 55.3394C114.214 55.3394 114.357 55.3394 114.528 55.368V56.1669H114.3Z" fill="#25366D"/>
<path fill-rule="evenodd" clip-rule="evenodd" d="M103.364 63.2089C102.707 63.2089 102.195 63.0659 101.853 62.8944L102.11 62.2099C102.365 62.3247 102.707 62.4392 103.192 62.4392C103.934 62.4392 104.162 62.0966 104.162 61.5268V61.2406C104.021 61.3274 103.735 61.4408 103.25 61.4408C102.166 61.4408 101.681 60.8995 101.681 60.0156V57.0219H102.851V59.9581C102.851 60.3575 102.993 60.6708 103.563 60.6708C103.848 60.6708 104.021 60.5854 104.162 60.5286V57.0219H105.332V61.2698C105.332 62.6671 104.504 63.2089 103.364 63.2089Z" fill="#25366D"/>
<path fill-rule="evenodd" clip-rule="evenodd" d="M100.229 61.4975C99.3753 61.4975 98.947 61.0411 98.947 60.3005V57.8203H98.4611V57.0219H98.947V56.1091L100.116 55.7962V57.0219H100.829V57.8203H100.116V60.1865C100.116 60.5854 100.316 60.6995 100.6 60.6995C100.743 60.6995 100.857 60.6995 101 60.6708V61.4117C100.885 61.4408 100.656 61.4975 100.229 61.4975Z" fill="#25366D"/>
<path fill-rule="evenodd" clip-rule="evenodd" d="M96.4974 61.4408H97.6644V57.0219H96.4974V61.4408Z" fill="#25366D"/>
<path fill-rule="evenodd" clip-rule="evenodd" d="M94.0805 61.5268C93.5099 61.5268 93.0543 61.3838 92.7123 61.2129L92.9972 60.4716C93.2264 60.5853 93.5394 60.7286 93.9105 60.7286C94.337 60.7286 94.5938 60.5853 94.5938 60.2443C94.5938 59.9295 94.3954 59.7871 93.8808 59.5885C93.025 59.2461 92.8539 58.7325 92.8539 58.2478C92.8539 57.5356 93.3962 56.936 94.3657 56.936C94.9068 56.936 95.3056 57.0789 95.6207 57.2494L95.3056 57.9341C95.1647 57.8484 94.8514 57.7062 94.5078 57.7062C94.1087 57.7062 93.9105 57.8775 93.9105 58.162C93.9105 58.4763 94.2227 58.5897 94.6225 58.7604C95.5054 59.1028 95.7046 59.6164 95.7046 60.1582C95.7046 60.9563 95.049 61.5268 94.0805 61.5268Z" fill="#25366D"/>
<path fill-rule="evenodd" clip-rule="evenodd" d="M92.3409 57.8203C92.2559 57.791 91.9981 57.7626 91.8005 57.7626C91.6003 57.7626 91.4274 57.791 91.314 57.8203V61.4407H90.1457V57.2783C90.3174 57.1928 91.0015 56.9649 91.7716 56.9649C92.2254 56.9649 92.3409 56.994 92.5123 57.0219L92.3409 57.8203Z" fill="#25366D"/>
<path fill-rule="evenodd" clip-rule="evenodd" d="M80.0739 56.48C79.6464 56.48 79.4458 56.2232 79.4458 55.9095C79.4458 55.5967 79.6464 55.3394 80.0739 55.3394C80.4737 55.3394 80.7008 55.5967 80.7008 55.9095C80.7008 56.2232 80.4737 56.48 80.0739 56.48Z" fill="#25366D"/>
<path fill-rule="evenodd" clip-rule="evenodd" d="M83.8511 61.4408H82.7389L81.2275 57.0219H82.4831L83.0522 59.1028C83.1104 59.3021 83.2524 59.8156 83.308 60.0728H83.3375C83.3652 59.8156 83.5092 59.3021 83.5654 59.1028L84.164 57.0219H85.3338L83.8511 61.4408Z" fill="#25366D"/>
<path fill-rule="evenodd" clip-rule="evenodd" d="M79.4648 61.4408H80.6338V57.0219H79.4648V61.4408Z" fill="#25366D"/>
<path fill-rule="evenodd" clip-rule="evenodd" d="M97.1062 56.48C96.6789 56.48 96.4783 56.2232 96.4783 55.9095C96.4783 55.5967 96.6789 55.3394 97.1062 55.3394C97.5052 55.3394 97.7326 55.5967 97.7326 55.9095C97.7326 56.2232 97.5052 56.48 97.1062 56.48Z" fill="#25366D"/>
<path fill-rule="evenodd" clip-rule="evenodd" d="M77.4583 61.4407V58.3333C77.4583 58.0195 77.3172 57.7062 76.7453 57.7062C76.4611 57.7062 76.2901 57.7625 76.1481 57.8203V61.4407H74.9791V57.2783C75.4638 57.0789 76.062 56.936 76.8027 56.936C78.1434 56.936 78.6292 57.5918 78.6292 58.3333V61.4407H77.4583Z" fill="#25366D"/>
<path fill-rule="evenodd" clip-rule="evenodd" d="M72.1502 61.5268C71.0085 61.5268 70.1543 60.928 70.1543 59.7594V55.8236H71.3804V59.7594C71.3804 60.3005 71.6645 60.5853 72.1502 60.5853C72.6347 60.5853 72.9203 60.3005 72.9203 59.7594V55.8236H74.1455V59.7594C74.1455 60.928 73.291 61.5268 72.1502 61.5268Z" fill="#25366D"/>
<path fill-rule="evenodd" clip-rule="evenodd" d="M109.607 60.7565C109.009 60.7565 108.867 60.0728 108.867 59.2174C108.867 58.3903 109.009 57.7062 109.607 57.7062C110.207 57.7062 110.349 58.3903 110.349 59.2174C110.349 60.0728 110.207 60.7565 109.607 60.7565ZM109.607 56.936C108.297 56.936 107.668 57.906 107.668 59.2174C107.668 60.5576 108.297 61.5268 109.607 61.5268C110.919 61.5268 111.547 60.5576 111.547 59.2174C111.547 57.906 110.919 56.936 109.607 56.936Z" fill="#25366D"/>
<path fill-rule="evenodd" clip-rule="evenodd" d="M88.2897 58.847H86.6368C86.6368 57.9906 86.9789 57.6777 87.4645 57.6777C87.9205 57.6777 88.2897 57.9624 88.2897 58.7901V58.847ZM89.4026 59.1313C89.4026 57.7351 88.6907 56.936 87.4918 56.936C86.2669 56.936 85.5242 57.791 85.5242 59.2174C85.5242 60.6995 86.3516 61.5268 87.6629 61.5268C88.347 61.5268 88.8604 61.3838 89.2307 61.1844L88.9457 60.4138C88.6333 60.5576 88.2897 60.6708 87.7775 60.6708C87.2352 60.6708 86.7504 60.4431 86.6645 59.5885H89.4026V59.1313Z" fill="#25366D"/>
<path fill-rule="evenodd" clip-rule="evenodd" d="M27 82.4704H63.9408V45.5298H27V82.4704Z" fill="url(#paint0_linear_271_3)"/>
<path fill-rule="evenodd" clip-rule="evenodd" d="M51.9462 54.4203C51.11 53.9655 50.3213 53.6072 49.2461 53.3445V55.5419C50.2026 55.7572 51.11 56.0921 51.9462 56.4739V54.4203Z" fill="white"/>
<path fill-rule="evenodd" clip-rule="evenodd" d="M48.2907 61.6113C48.0276 61.6113 47.8128 61.8262 47.8128 62.1126L47.6689 66.6047H48.9356L48.7677 62.1126C48.7677 61.8262 48.5778 61.6113 48.2907 61.6113Z" fill="white"/>
<path fill-rule="evenodd" clip-rule="evenodd" d="M49.4136 73.986C48.0753 73.986 47.1202 73.6756 45.9014 73.0562C44.587 72.3864 43.13 71.8125 41.2661 71.8125C39.5221 71.8125 37.6585 72.4349 36.249 74.5366C37.945 73.4853 39.5221 73.1508 40.8358 73.1508C42.2458 73.1508 43.3215 73.5097 44.4197 74.0822C45.6626 74.7273 46.7374 75.1811 48.2908 75.1811C49.7958 75.1811 51.4922 74.6086 52.9496 72.6976C51.779 73.6756 50.5369 73.986 49.4136 73.986Z" fill="white"/>
<path fill-rule="evenodd" clip-rule="evenodd" d="M41.7915 62.1126C41.7915 61.8261 42.0067 61.6113 42.2696 61.6113C42.5327 61.6113 42.7472 61.8261 42.7472 62.1126L42.9149 66.6046H41.6477L41.7915 62.1126ZM41.9826 71.0725C43.1769 71.0725 44.563 71.4063 46.1162 72.2672V67.8238L45.4711 67.0098V60.8461L46.7372 58.887L46.2115 60.7741C46.57 60.7276 46.9285 60.7034 47.3109 60.7034C48.5534 60.7034 49.6996 60.9179 50.6797 61.3009L51.946 60.1299V56.9524C51.1097 56.5696 50.2023 56.2589 49.2458 56.0205C48.6723 55.8765 48.0513 55.7815 47.4304 55.7101V52.9619C46.7611 52.8663 46.0683 52.8188 45.3518 52.8188C44.6823 52.8188 44.0135 52.8663 43.3684 52.9383V55.5419C42.7472 55.6143 42.15 55.7336 41.5766 55.8765V53.297C40.5489 53.5836 39.5697 53.9896 38.6856 54.4913V59.8437L39.9038 61.0138L39.5458 67.0337L38.5659 68.0137V71.5016L38.9008 71.8601C39.7129 71.431 40.74 71.0725 41.9826 71.0725Z" fill="white"/>
</g>
<defs>
<filter id="filter0_d_271_3" x="0" y="0" width="154" height="157" filterUnits="userSpaceOnUse" color-interpolation-filters="sRGB">
<feFlood flood-opacity="0" result="BackgroundImageFix"/>
<feColorMatrix in="SourceAlpha" type="matrix" values="0 0 0 0 0 0 0 0 0 0 0 0 0 0 0 0 0 0 127 0" result="hardAlpha"/>
<feOffset dy="16"/>
<feGaussianBlur stdDeviation="6.5"/>
<feColorMatrix type="matrix" values="0 0 0 0 0 0 0 0 0 0 0 0 0 0 0 0 0 0 0.03 0"/>
<feBlend mode="normal" in2="BackgroundImageFix" result="effect1_dropShadow_271_3"/>
<feBlend mode="normal" in="SourceGraphic" in2="effect1_dropShadow_271_3" result="shape"/>
</filter>
<linearGradient id="paint0_linear_271_3" x1="27" y1="45.5298" x2="63.9406" y2="82.4706" gradientUnits="userSpaceOnUse">
<stop stop-color="#0C9CBB"/>
<stop offset="1" stop-color="#24376E"/>
</linearGradient>
</defs>
</svg>
