<svg width="154" height="157" viewBox="0 0 154 157" fill="none" xmlns="http://www.w3.org/2000/svg">
<g filter="url(#filter0_d_185_54)">
<rect width="128" height="128" transform="translate(13)" fill="white"/>
<path d="M102.965 61.3655C102.764 61.4263 102.621 61.4766 102.476 61.5105C102.138 61.5889 101.807 61.5807 101.524 61.3514C101.166 61.0601 100.822 60.756 100.463 60.4624C100.335 60.3555 100.239 60.2137 100.189 60.0542C100.065 59.6869 100.209 59.3944 100.589 59.4003C101.876 59.4178 102.789 58.6388 103.779 57.9966C104.533 57.5065 104.445 57.2363 104.182 56.4502C104.085 56.1589 103.955 55.8794 103.926 55.567C103.868 54.9553 104.193 54.7061 104.744 55.0009C105.295 55.2957 105.843 55.677 106.184 56.242C106.292 56.421 106.369 56.435 106.526 56.3438C106.888 56.1309 107.26 55.9449 107.561 55.6255C107.897 55.2701 108.293 54.9759 108.731 54.7564C108.902 54.6683 109.047 54.5353 109.148 54.3716C109.208 54.2792 109.159 54.0709 109.409 54.1868C109.608 54.278 109.798 54.3844 109.723 54.5927C109.476 55.3064 109.173 55.9995 108.817 56.6654C108.773 56.745 108.658 56.7894 108.571 56.8421C107.976 57.1977 107.382 57.5517 106.787 57.9042C106.697 57.9568 106.611 58.0048 106.6 58.1264C106.474 59.4588 105.84 60.5946 105.163 61.6977C103.417 64.5401 101.222 67.0024 98.6827 69.1594C98.3178 69.4694 97.9224 69.7314 97.4241 69.7735C97.3141 69.7829 97.1901 69.8203 97.1071 69.6987C97.024 69.577 97.127 69.4753 97.1761 69.3793C97.2722 69.2275 97.3984 69.0969 97.5469 68.9957C99.2103 67.6294 100.639 66.0713 101.532 64.0828C101.943 63.161 102.448 62.2919 102.965 61.3655Z" fill="#871920"/>
<path d="M66.8459 65.0689C66.8201 65.7181 66.6306 66.3299 66.4318 66.9405C66.399 67.0411 66.2926 67.1663 66.4318 67.2516C66.5487 67.3253 66.6049 67.1779 66.6786 67.1241C67.7817 66.3357 68.921 65.5953 69.8544 64.587C70.0779 64.346 70.4709 64.3004 70.7446 64.0781C71.218 63.6845 71.6574 63.2517 72.0582 62.7844C72.1974 62.6253 72.3472 62.4335 72.5694 62.5914C72.7917 62.7493 72.6267 62.9517 72.5437 63.1061C71.7225 64.661 70.6733 66.0843 69.431 67.3288C68.7291 68.0307 67.8378 68.3886 66.9921 68.8378C66.585 69.0542 66.1557 69.2285 65.7451 69.4391C65.6825 69.4821 65.6058 69.4993 65.5308 69.4871C65.4558 69.4749 65.3885 69.4342 65.3427 69.3736C64.9526 68.9835 64.598 68.5596 64.283 68.1067C64.1941 67.9804 64.2163 67.909 64.3075 67.7804C65.1263 66.6328 65.5369 65.3169 65.8282 63.96C65.868 63.7799 65.889 63.581 66.0762 63.5167C66.2633 63.4523 66.3862 63.6173 66.4949 63.7342C66.847 64.1132 66.8564 64.5905 66.8459 65.0689Z" fill="#871920"/>
<path d="M73.0351 56.7545C73.0219 56.8243 73.0039 56.8931 72.9813 56.9604C72.5063 58.0962 72.304 59.2999 72.1309 60.5035C72.0384 61.148 71.663 61.5937 71.2337 62.0242C71.1838 62.0689 71.1205 62.0959 71.0537 62.1007C70.9869 62.1055 70.9204 62.088 70.8647 62.0509C70.8089 62.0138 70.7671 61.9592 70.7458 61.8957C70.7245 61.8322 70.725 61.7634 70.747 61.7002C71.2407 60.8217 71.098 59.8286 71.2758 58.8928C71.3927 58.2506 71.4103 57.5932 71.5308 56.9487C71.6337 56.4059 71.622 55.8749 71.2512 55.4105C71.1471 55.2806 71.098 55.1251 71.2512 55.0034C71.3869 54.8993 71.5553 54.7168 71.7191 54.8747C72.249 55.3789 72.7613 55.9053 73.0058 56.6293C73.0184 56.6704 73.0281 56.7122 73.0351 56.7545Z" fill="#871920"/>
<path d="M110.158 65.6631C110.158 65.897 110.14 66.0351 110.006 66.1509C109.226 66.8141 108.668 67.6598 108.098 68.4904C108.054 68.5686 108.004 68.6433 107.948 68.7138C107.9 68.7744 107.833 68.8172 107.757 68.8356C107.682 68.854 107.603 68.847 107.532 68.8155C107.366 68.7348 107.415 68.5816 107.465 68.4447C107.47 68.4199 107.479 68.3958 107.491 68.3734C108.323 67.2153 107.9 65.9988 107.657 64.7916C107.602 64.5167 107.506 64.2477 107.471 63.9728C107.442 63.7389 107.542 63.5774 107.822 63.5856C108.709 63.6125 109.933 64.5904 110.122 65.4303C110.143 65.5344 110.153 65.6362 110.158 65.6631Z" fill="#871920"/>
<path d="M77.7668 63.725C77.7569 63.87 77.6982 64.0074 77.6003 64.1148C77.5024 64.2223 77.371 64.2935 77.2276 64.3169C76.2006 64.4607 75.3806 65.0444 74.5114 65.5264C74.3559 65.6129 74.2015 65.7053 74.0435 65.779C73.9125 65.8399 73.7593 65.8843 73.6833 65.7042C73.6475 65.6421 73.6361 65.5689 73.6512 65.4989C73.6663 65.4289 73.7069 65.367 73.7652 65.3252C74.6916 64.6444 75.0823 63.6232 75.4882 62.6126C75.5463 62.4712 75.5818 62.3216 75.5935 62.1692C75.604 62.0101 75.5935 61.8475 75.7607 61.775C75.8374 61.7394 75.9229 61.7276 76.0063 61.7412C76.0898 61.7547 76.1672 61.793 76.2286 61.8511C76.7316 62.3962 77.2171 62.9576 77.7025 63.5191C77.7373 63.5828 77.7592 63.6528 77.7668 63.725Z" fill="#871920"/>
<path d="M92.428 68.1197C92.242 68.5537 92.1157 69.1327 91.5601 69.4438C91.2594 69.6134 90.9904 69.5035 90.8582 69.0988C90.6395 68.4484 90.2394 67.929 89.8055 67.4155C89.6528 67.261 89.489 67.1179 89.3153 66.9874C89.0989 66.7944 89.1305 66.6365 89.4019 66.544C89.532 66.4886 89.6741 66.4673 89.8148 66.482C90.5073 66.6587 91.2185 66.7768 91.8595 67.1231C92.2596 67.3395 92.4198 67.6307 92.428 68.1197Z" fill="#871920"/>
<path d="M71.6959 77.2903H70.2805C70.663 77.1043 70.8759 76.4458 70.718 76.0808C70.6712 75.9708 70.5823 75.9814 70.4946 75.979H69.9565C69.147 75.9708 69.0207 76.1393 69.188 76.9511C69.2324 77.1687 69.4219 77.1499 69.6266 77.316H68.244C68.7364 77.2049 68.6312 76.8201 68.6323 76.4902C68.6323 76.0293 68.623 75.5673 68.6323 75.1064C68.6405 74.8105 68.6078 74.566 68.2463 74.456H69.602C69.2406 74.6584 69.0417 75.3497 69.1915 75.6714C69.2031 75.7006 69.2242 75.725 69.2513 75.7409C69.2784 75.7568 69.31 75.7632 69.3412 75.7591H70.5718C70.6033 75.7605 70.6344 75.7515 70.6604 75.7335C70.6863 75.7156 70.7057 75.6897 70.7156 75.6597C70.8689 75.3018 70.6653 74.6537 70.3086 74.4747H71.6245C71.2736 74.5742 71.2537 74.8257 71.2631 75.1275C71.2783 75.6141 71.2631 76.1019 71.2631 76.5885C71.2631 77.0751 71.2759 77.0751 71.6959 77.2903Z" fill="#871920"/>
<path d="M93.6659 75.2773C93.5314 75.2937 93.5127 75.2107 93.4694 75.1498C93.3114 74.898 93.0667 74.7125 92.7815 74.6283C92.4964 74.544 92.1902 74.5669 91.9207 74.6925C91.3861 74.9135 91.1229 75.4715 91.2188 76.1675C91.3019 76.7419 91.7312 77.1162 92.3617 77.163H92.4786C93.1688 77.1805 93.4729 76.7033 93.1969 76.0576C93.1173 75.8704 92.9372 75.9254 92.7699 75.8107C93.0039 75.7312 93.2167 75.7721 93.4179 75.7651C93.6191 75.7581 93.8274 75.7651 94.1642 75.7651C93.6004 75.9804 93.7466 76.371 93.7607 76.6916C93.7747 77.0121 93.6566 77.1595 93.3653 77.2355C92.6904 77.425 92.0283 77.4531 91.3768 77.1466C90.9018 76.9208 90.6129 76.5617 90.5813 76.0178C90.5537 75.7543 90.6025 75.4884 90.722 75.2519C90.8415 75.0154 91.0266 74.8183 91.2551 74.6843C91.7581 74.3685 92.3079 74.3205 92.8834 74.4503C93.0003 74.4749 93.1267 74.5509 93.2168 74.517C93.8496 74.2831 93.6308 74.7779 93.6765 75.0399C93.6831 75.1192 93.6795 75.199 93.6659 75.2773Z" fill="#871920"/>
<path d="M89.8756 77.3758L87.5338 75.1381C87.5338 75.73 87.5244 76.3231 87.5338 76.9138C87.5396 77.1676 87.7958 77.1746 87.9596 77.2916H86.8132C87.2811 77.1875 87.2612 76.8354 87.2577 76.4833C87.2577 76.047 87.2402 75.6095 87.2577 75.1744C87.2741 74.834 87.177 74.6012 86.8214 74.4983C87.2671 74.4585 87.6765 74.3696 88.0333 74.8176C88.4859 75.3849 89.0287 75.8821 89.6264 76.5067C89.6066 75.861 89.6615 75.3264 89.575 74.7907C89.5422 74.5883 89.3317 74.6024 89.1433 74.4807H90.2862C89.7598 74.5825 89.8709 74.9989 89.8674 75.3533C89.8709 76.0072 89.8756 76.6588 89.8756 77.3758Z" fill="#871920"/>
<path d="M108.447 77.3127C108.847 77.2039 108.834 76.9021 108.832 76.6015V75.1393C108.832 74.6831 108.832 74.6831 108.364 74.455H110.971C111.076 74.455 111.152 74.4866 111.156 74.5989C111.165 74.7493 111.158 74.9002 111.136 75.0492C111.128 75.0902 111.019 75.0715 110.993 74.9943C110.9 74.6433 110.624 74.6492 110.349 74.6433C110.169 74.6533 109.99 74.6533 109.811 74.6433C109.488 74.6036 109.343 74.7311 109.409 75.0481C109.453 75.2656 109.255 75.5756 109.537 75.6914C109.981 75.8716 110.59 75.6669 110.824 75.2645C110.911 75.6423 110.884 75.9546 110.839 76.3874C110.53 75.7078 110.007 75.9827 109.573 75.9277C109.549 75.9277 109.508 75.9277 109.499 75.9359C109.302 76.2389 109.45 76.5758 109.408 76.8939C109.381 77.0928 109.533 77.1279 109.684 77.122C110.269 77.122 110.886 77.2261 111.276 76.6155C111.289 76.5956 111.345 76.6038 111.383 76.598C111.32 77.2905 111.295 77.3139 110.659 77.3139L108.447 77.3127Z" fill="#871920"/>
<path d="M76.3349 75.138V76.6657C76.3349 76.9546 76.4191 77.1967 76.7583 77.2833H75.6342C76.1021 77.1956 76.0799 76.8482 76.0705 76.4926C76.0576 76.0562 76.0494 75.6199 76.0705 75.1848C76.0915 74.8339 76.0155 74.5847 75.5067 74.518C76.1535 74.3823 76.5758 74.4432 76.942 74.9017C77.3712 75.4398 77.8848 75.9112 78.4158 76.4692C78.4158 75.8784 78.4264 75.3532 78.41 74.8315C78.4041 74.6104 78.176 74.5976 77.9128 74.4888H79.1996C78.6381 74.628 78.7024 75.021 78.7024 75.3719V76.9102C78.7024 77.0435 78.7808 77.2459 78.6498 77.2985C78.4907 77.3628 78.4041 77.1523 78.3047 77.0517C77.783 76.523 77.2718 75.9826 76.7606 75.4433C76.6437 75.3263 76.5419 75.1953 76.4331 75.0702L76.3349 75.138Z" fill="#871920"/>
<path d="M117.244 74.3262C117.285 74.704 117.318 74.9929 117.351 75.2912C117.143 75.2912 117.146 75.1216 117.082 75.0304C116.986 74.8843 116.853 74.767 116.696 74.6911C116.539 74.6152 116.364 74.5837 116.19 74.5999C116.099 74.5961 116.01 74.6224 115.935 74.6746C115.86 74.7268 115.805 74.8021 115.777 74.8888C115.758 74.9716 115.766 75.0585 115.8 75.1365C115.834 75.2144 115.893 75.279 115.967 75.3205C116.146 75.4374 116.346 75.5322 116.535 75.6386C116.725 75.7451 116.918 75.8492 117.1 75.9673C117.368 76.1428 117.518 76.3826 117.451 76.7171C117.385 77.0517 117.145 77.2084 116.857 77.3102C116.525 77.4194 116.165 77.414 115.836 77.295C115.65 77.2342 115.492 77.226 115.329 77.3979C115.212 77.0763 115.203 76.7768 115.15 76.4621C115.355 76.4621 115.359 76.6282 115.428 76.7148C115.739 77.1043 116.13 77.2716 116.534 77.1605C116.624 77.1463 116.707 77.1051 116.773 77.0424C116.839 76.9797 116.884 76.8985 116.903 76.8096C116.924 76.722 116.917 76.6302 116.884 76.5465C116.851 76.4628 116.793 76.3913 116.718 76.3417C116.451 76.1635 116.169 76.007 115.877 75.8738C115.39 75.6223 115.203 75.3181 115.301 74.9473C115.4 74.5765 115.825 74.3391 116.327 74.3859C116.443 74.3933 116.556 74.4166 116.665 74.4549C116.857 74.5426 117.033 74.5531 117.244 74.3262Z" fill="#871920"/>
<path d="M97.9458 74.4619H99.0173C98.5178 74.6116 98.609 75.0211 98.6032 75.3848C98.6032 75.7182 98.6102 76.0516 98.5962 76.3838C98.5739 76.8903 98.3622 77.1593 97.8791 77.3044C97.6076 77.3842 97.3231 77.4104 97.0416 77.3816C96.3023 77.3102 95.9736 76.9441 95.9689 76.199V75.0854C95.9689 74.8047 95.9806 74.5227 95.5864 74.4783H96.9246C96.4848 74.5251 96.5 74.8456 96.5047 75.1626C96.5047 75.5591 96.4941 75.9569 96.5047 76.3534C96.5281 76.916 96.8076 77.1547 97.4054 77.1523C98.0265 77.1523 98.3411 76.8938 98.3552 76.3475C98.3681 75.9639 98.3552 75.579 98.3657 75.1953C98.3821 74.8631 98.333 74.5801 97.9458 74.4619Z" fill="#871920"/>
<path d="M123.815 77.2823C124.311 77.0635 124.492 76.3008 124.13 75.8786C123.72 75.4001 123.413 74.8258 122.772 74.4749H124.176C123.832 74.6574 123.825 74.662 124.071 74.9767C124.225 75.1802 124.392 75.3744 124.539 75.5803C124.671 75.7604 124.757 75.7347 124.874 75.5581C125.015 75.3452 125.183 75.151 125.342 74.9521C125.501 74.7533 125.617 74.5755 125.251 74.469H126.294C125.602 74.82 125.279 75.4142 124.902 75.9417C124.693 76.2377 124.8 76.6635 124.865 77.0261C124.9 77.2203 125.136 77.1723 125.373 77.2764L123.815 77.2823Z" fill="#871920"/>
<path d="M99.6467 74.6924L99.3051 74.5193C99.6935 74.4901 100.063 74.3415 100.423 74.731C100.943 75.289 101.548 75.7686 102.077 76.2459C102.077 75.8704 102.09 75.3662 102.072 74.8644C102.062 74.6211 101.827 74.579 101.647 74.476H102.751C102.318 74.5696 102.334 74.903 102.334 75.227V77.0717C102.334 77.1536 102.387 77.2682 102.274 77.3056C102.16 77.3431 102.122 77.2343 102.063 77.1735C101.404 76.4919 100.747 75.8091 100.092 75.1252C99.8175 75.1065 99.7684 74.862 99.6467 74.6924Z" fill="#871920"/>
<path d="M104.714 74.4619H105.977C105.654 74.5637 105.686 74.7555 105.815 74.9895C106.092 75.4925 106.362 75.999 106.673 76.5733C106.954 75.9826 107.2 75.4562 107.454 74.9357C107.585 74.6678 107.384 74.5918 107.22 74.4678H108.142C107.662 74.8713 107.531 75.4667 107.258 75.9802C107.06 76.3522 106.9 76.7453 106.718 77.1254C106.683 77.1991 106.678 77.3173 106.562 77.3196C106.446 77.3219 106.43 77.212 106.388 77.1371C105.992 76.4212 105.597 75.705 105.203 74.9883C105.127 74.7321 104.796 74.7111 104.714 74.4619Z" fill="#871920"/>
<path d="M121.785 77.3032H120.409C120.932 77.1933 120.815 76.7839 120.819 76.4353C120.819 75.9229 120.812 75.4106 120.819 74.8982C120.819 74.6912 120.752 74.6351 120.549 74.6503C120.167 74.6783 119.777 74.6666 119.73 75.2574C119.451 74.6725 119.574 74.4526 120.097 74.4526H121.98C122.637 74.4526 122.637 74.4526 122.501 75.2012C122.358 74.7041 121.993 74.6386 121.583 74.6432C121.421 74.6432 121.349 74.6935 121.356 74.8632C121.363 75.5299 121.366 76.1955 121.356 76.8622C121.356 77.1687 121.606 77.1652 121.785 77.3032Z" fill="#871920"/>
<path d="M67.1993 76.5418C66.9559 76.2423 66.6074 76.1031 66.2775 75.9382C65.6739 75.6352 65.4704 75.3124 65.6224 74.8854C65.7628 74.49 66.267 74.3146 66.839 74.4304C67.0191 74.4678 67.2098 74.6363 67.4086 74.4304C67.4893 74.3485 67.5455 74.4573 67.5549 74.5298C67.5888 74.7778 67.6122 75.027 67.6414 75.2948C67.4531 75.2855 67.4449 75.151 67.3911 75.0609C67.2955 74.8928 67.1501 74.7584 66.975 74.6763C66.7998 74.5942 66.6036 74.5683 66.4132 74.6023C66.3357 74.6093 66.2617 74.6379 66.1997 74.6848C66.1376 74.7318 66.09 74.7952 66.0623 74.8679C66.0014 75.034 66.0845 75.165 66.2015 75.2761C66.3734 75.4387 66.5957 75.5101 66.7992 75.6177C67.0442 75.728 67.2742 75.8691 67.4835 76.0376C67.8566 76.3722 67.8578 76.7289 67.4905 77.0799C67.294 77.1407 67.246 77.0307 67.2355 76.8658C67.232 76.7629 67.28 76.6447 67.1993 76.5418Z" fill="#871920"/>
<path d="M117.922 77.2939C118.34 77.2272 118.389 76.9593 118.377 76.6166C118.358 76.1183 118.357 75.6188 118.377 75.1205C118.391 74.7825 118.327 74.5356 117.933 74.4818H119.372C118.943 74.5544 118.904 74.8515 118.926 75.2118C118.946 75.6586 118.926 76.1066 118.926 76.5546C118.926 76.8938 118.897 77.2483 119.386 77.2939H117.922Z" fill="#871920"/>
<path d="M99.6467 74.6924L100.086 75.1287C99.9695 75.1556 99.9695 75.2456 99.9695 75.338C99.9695 75.772 99.9589 76.2083 99.9777 76.6423C99.9964 77.0763 100.014 77.0786 100.481 77.281C100.07 77.3294 99.6551 77.3263 99.2454 77.2716C99.7659 77.1745 99.7215 76.8037 99.7039 76.4469C99.6747 75.8621 99.7789 75.2726 99.6467 74.6924Z" fill="#871920"/>
<path d="M67.1993 76.5418C67.3911 76.6728 67.1443 77.0411 67.4941 77.0856C67.1198 77.4541 66.6753 77.4365 66.2132 77.3195C66.0027 77.2646 65.8026 77.1874 65.6096 77.4084C65.5191 77.0925 65.4657 76.7671 65.4506 76.4387C65.6307 76.4727 65.6529 76.6189 65.7243 76.716C65.8135 76.8489 65.9316 76.9601 66.0697 77.0411C66.2078 77.1221 66.3624 77.1709 66.522 77.1839C66.9911 77.2201 67.2004 77.0237 67.1993 76.5418Z" fill="#871920"/>
<path d="M104.32 77.1815C104.086 77.1733 104.025 77.0213 104.025 76.8201C104.025 76.1954 104.045 75.5708 104.018 74.9485C104.002 74.5824 104.319 74.6057 104.486 74.4607H103.064C103.471 74.5356 103.495 74.8116 103.483 75.131C103.467 75.5661 103.483 76.0024 103.483 76.4376C103.483 76.8002 103.6 77.2306 102.983 77.2774C103.469 77.3102 103.903 77.3114 104.339 77.3079C104.367 77.3079 104.481 77.3558 104.415 77.24C104.394 77.2119 104.349 77.2002 104.32 77.1815Z" fill="#871920"/>
<path d="M122.903 57.4305C122.945 57.2853 123.015 57.1498 123.109 57.0319C123.204 56.914 123.321 56.8161 123.453 56.7438C123.586 56.6657 123.701 56.5595 123.789 56.4327C124.235 55.8379 124.736 55.2861 125.285 54.7845C126.145 53.9879 126.507 52.8462 126.972 51.7911C126.987 51.7625 126.996 51.7312 126.999 51.699C127.002 51.6668 126.998 51.6343 126.989 51.6034C126.979 51.5725 126.963 51.5439 126.943 51.5191C126.922 51.4943 126.896 51.4739 126.868 51.4589C126.493 51.2063 126.107 50.9782 125.645 50.9326C125.436 50.9127 125.224 50.9173 125.079 51.0975C124.822 51.418 124.453 51.5794 124.122 51.7993C123.744 52.0438 123.286 52.1877 123.099 52.6684C123.041 52.817 122.871 52.865 122.714 52.8907C122.47 52.9157 122.224 52.8833 121.996 52.7959C121.555 52.6626 121.359 52.7492 121.177 53.1668C121.116 53.3048 121.098 53.4627 120.955 53.5598C120.109 54.1447 119.269 54.7295 118.416 55.298C118.086 55.5191 117.794 55.3951 117.679 55.0068C117.634 54.8199 117.604 54.6298 117.589 54.4383C117.568 54.264 117.603 54.0312 117.41 53.9704C117.176 53.8978 117.122 54.1552 117.059 54.2991C116.719 55.0185 116.689 55.7811 116.767 56.5555C116.769 56.6138 116.783 56.671 116.808 56.7237C116.833 56.7764 116.868 56.8235 116.912 56.862C117.359 57.2129 118.251 57.0047 118.486 56.4876C118.549 56.3346 118.652 56.201 118.784 56.1005C119.545 55.5343 120.304 54.967 121.06 54.3903C121.217 54.2733 121.323 54.2523 121.495 54.3774C121.819 54.6328 122.196 54.812 122.599 54.9015C123.032 54.9822 123.095 55.1354 122.793 55.4747C122.549 55.7531 122.246 55.9776 121.996 56.2514C121.156 57.1696 120.311 58.0832 119.399 58.9289C118.671 59.6027 118.006 60.3735 117.02 60.7092C116.965 60.7413 116.924 60.7914 116.903 60.8508C116.715 61.2317 116.61 61.6478 116.595 62.072C116.595 62.2252 116.595 62.3925 116.706 62.5095C116.991 62.8124 117.941 62.8545 118.282 62.5902C118.743 62.2393 119.206 61.8778 119.712 61.4871V61.7082C119.642 62.327 119.337 62.8452 119.005 63.3458C118.785 63.6804 118.842 64.0231 119.026 64.3261C119.209 64.629 119.511 64.6267 119.819 64.553C119.936 64.5261 120.045 64.4992 120.157 64.477C120.859 64.3378 121.647 64.594 121.927 65.0478C121.979 65.1344 122.069 65.235 122.018 65.3274C121.957 65.4373 121.83 65.359 121.738 65.3449C121.166 65.2605 120.585 65.2574 120.012 65.3356C118.066 65.5836 116.322 66.3696 114.653 67.358C114.436 67.4867 114.419 67.6329 114.5 67.8341C114.656 68.1734 114.885 68.4738 115.171 68.7138C116.591 69.9794 118.271 70.81 119.994 71.5457C121.047 71.9961 122.063 71.5586 122.58 70.5269C123.048 69.6004 123.048 68.5652 123.185 67.5674C123.227 67.2586 123.376 67.1358 123.584 67.2165C124.116 67.4271 124.754 67.4505 125.122 67.992C125.19 68.0903 125.317 68.1921 125.412 68.1394C125.775 67.9429 126.193 67.8189 126.449 67.4657C126.566 67.3089 126.485 67.1393 126.388 66.9978C126.187 66.681 125.881 66.4452 125.524 66.3322C124.81 66.1228 124.1 65.9029 123.385 65.6994C123.213 65.6514 123.122 65.6222 123.171 65.3987C123.269 64.9496 123.101 64.5799 122.777 64.2547C122.342 63.8184 121.796 63.609 121.224 63.4546C120.964 63.3844 120.873 63.3014 120.99 63.0171C121.392 62.0603 121.755 61.0871 122.159 60.1314C122.295 59.8144 122.198 59.6272 121.958 59.4494C121.758 59.3065 121.512 59.2428 121.267 59.2705C120.929 59.2927 120.631 59.4377 120.315 59.55C120.949 58.9464 121.564 58.3195 122.369 57.9487C122.489 57.9042 122.599 57.8352 122.691 57.7459C122.783 57.6567 122.855 57.5493 122.903 57.4305ZM123.779 52.9749C124.037 52.7899 124.323 52.6502 124.628 52.562C124.524 52.8619 124.36 53.1377 124.147 53.3726C124.002 53.527 123.825 53.6194 123.653 53.4241C123.481 53.2288 123.62 53.0743 123.779 52.9749ZM122.187 67.8856C122.065 68.3841 121.877 68.864 121.627 69.3127C121.325 69.8742 120.824 70.1163 120.34 70.0894C119.547 70.0672 118.964 69.8414 118.392 69.577C118.102 69.4437 117.814 69.3022 117.534 69.1478C117.183 68.9547 117.163 68.7185 117.482 68.4646C117.819 68.2082 118.198 68.0123 118.602 67.8856C119.487 67.5838 120.371 67.2808 121.263 67.0071C121.998 66.7802 122.359 67.1299 122.187 67.8856ZM93.0013 53.6627C92.8352 53.5797 92.7252 53.5586 92.6632 53.7797C92.6279 53.9111 92.5656 54.0337 92.4802 54.1397C92.3947 54.2456 92.2882 54.3326 92.1672 54.395C91.373 54.8009 90.7109 55.3787 89.9939 56.0092C90.2699 55.2021 90.491 54.4546 90.7823 53.7352C91.0267 53.1305 91.0162 52.5433 90.8794 51.9292C90.8349 51.7198 90.7624 51.535 90.546 51.5209C90.2957 51.5092 90.2828 51.7432 90.2138 51.9257C90.1097 52.2029 90.1775 52.5105 90.0348 52.7843C89.1692 54.4722 88.3188 56.1695 87.4614 57.8644C87.4038 58.0217 87.2883 58.151 87.1385 58.2259C86.4133 58.5335 85.8144 59.1395 84.916 59.0295C84.5277 58.9827 84.3955 59.2634 84.5043 59.6588C84.5483 59.8341 84.6501 59.9894 84.7932 60.0998C85.1371 60.3677 85.4623 60.6601 85.8191 60.9116C86.0425 61.0684 86.067 61.1982 85.9466 61.4438C85.2938 62.7867 84.6598 64.1413 84.0153 65.4865C83.9217 65.6806 83.91 65.7988 84.1183 65.9239C84.3787 66.0879 84.6284 66.2684 84.8657 66.4644C84.9291 66.5263 85.0129 66.563 85.1015 66.5675C85.19 66.5721 85.2771 66.5441 85.3465 66.4889C85.8495 66.1813 86.3653 65.8947 86.88 65.6058C86.9619 65.5602 87.052 65.4724 87.1561 65.573C87.1894 65.6044 87.2128 65.6448 87.2234 65.6892C87.234 65.7337 87.2313 65.7804 87.2157 65.8233C86.9022 66.6176 86.8309 67.5265 86.046 68.0926C85.5781 68.4295 85.1582 68.8167 84.5359 68.8612C84.2664 68.8923 84.0087 68.9887 83.7849 69.1419C82.7766 69.7864 82.8725 70.4391 83.7662 70.9655C84.2925 71.2755 84.7125 71.1316 84.9979 70.6813C85.2447 70.2906 85.5009 69.9057 85.7255 69.5022C85.8588 69.2682 85.9594 69.2776 86.1606 69.4343C86.8016 69.9455 87.4707 70.4251 88.1036 70.9456C88.3855 71.1796 88.4896 71.0989 88.6066 70.8064C88.7607 70.4395 88.8425 70.0463 88.8475 69.6484C88.8475 68.3617 88.858 67.0808 88.83 65.7988C88.8201 65.2588 88.9507 64.7255 89.209 64.2512C89.5447 63.6463 89.9438 63.0789 90.3998 62.5586C90.484 62.4592 90.622 62.3551 90.5565 62.2334C90.2407 61.6485 90.9145 60.8566 90.1483 60.3747C90.0921 60.3396 90.1073 60.2039 90.0734 60.122C89.9494 59.8097 89.7576 59.5781 89.4102 59.4834C89.2698 59.4448 89.0241 59.543 89.0008 59.3032C88.9809 59.0938 89.209 59.0318 89.3388 58.9184C89.4212 58.8583 89.5089 58.8058 89.6008 58.7616C90.3717 58.2937 91.1402 57.8329 91.9204 57.3813C92.079 57.2989 92.2034 57.163 92.2713 56.9977C92.6141 56.1788 92.9732 55.3741 93.3241 54.5623C93.5136 54.1084 93.4259 53.8744 93.0013 53.6627ZM88.2545 60.2694C88.0529 61.4969 87.6605 62.6853 87.0917 63.7915C86.8964 64.1705 86.4203 64.2711 86.0109 64.4349C86.3267 63.3821 86.6215 62.3223 86.9666 61.2766C87.142 60.7478 87.5725 60.3981 88.0392 60.1068C88.2322 59.991 88.2942 60.0624 88.2545 60.2694Z" fill="#871920"/>
<path d="M113.424 75.9733L113.651 75.8996C114.138 75.737 114.339 75.5241 114.323 75.1778C114.308 74.8316 114.062 74.593 113.556 74.5052C112.921 74.3976 112.281 74.4631 111.627 74.4971C111.964 74.5708 112.022 74.7965 112.019 75.0819C112.013 75.6192 112.013 76.1569 112.019 76.695C112.019 76.9804 111.951 77.2038 111.624 77.2986H112.962C112.494 77.253 112.551 76.9126 112.555 76.6038V76.3347C112.565 76.2283 112.5 76.0856 112.634 76.0259C112.793 75.9569 112.893 76.0762 112.985 76.1827C113.219 76.4388 113.453 76.6892 113.687 76.9442C114.068 77.3629 114.248 77.4121 114.857 77.2541C114.262 76.9652 113.93 76.4026 113.424 75.9733ZM112.775 75.806C112.279 75.751 112.644 75.2972 112.563 75.0363C112.482 74.7755 112.571 74.5684 112.881 74.6234C113.444 74.6304 113.747 74.8503 113.734 75.22C113.721 75.5896 113.362 75.8703 112.775 75.806Z" fill="#871920"/>
<path d="M82.7964 75.8399C82.7637 75.1486 82.3555 74.6947 81.6103 74.5392C80.8652 74.3836 80.1446 74.4643 79.3656 74.4982C79.8429 74.5415 79.775 74.8667 79.775 75.1556V76.5757C79.775 76.8763 79.8148 77.1956 79.3761 77.2775C80.1868 77.253 80.9787 77.4331 81.7495 77.1746C82.4549 76.9441 82.828 76.4634 82.7964 75.8399ZM80.4827 77.1149C80.3365 77.0623 80.3295 76.9617 80.3283 76.8447V74.9275C80.3283 74.7953 80.3283 74.6561 80.5049 74.6374C81.2699 74.5532 82.2303 74.9474 82.2186 75.9241C82.2116 76.7266 81.243 77.3886 80.4839 77.1161L80.4827 77.1149Z" fill="#871920"/>
<path d="M84.8764 74.3905C83.8669 74.38 83.1697 74.9684 83.1533 75.8457C83.1358 76.7499 83.8259 77.3827 84.8354 77.3874C85.8239 77.3874 86.5315 76.7768 86.5397 75.9042C86.5491 75.0117 85.8777 74.4011 84.8764 74.3905ZM84.5722 77.1593C84.5346 77.1518 84.4975 77.142 84.4611 77.1301C83.9172 76.9347 83.6236 76.1814 83.8096 75.455C83.978 74.7941 84.4014 74.4993 85.0495 74.5906C85.5876 74.6654 85.9361 75.1754 85.9361 75.8937C85.9361 76.8014 85.3524 77.3441 84.5722 77.1593Z" fill="#871920"/>
<path d="M74.1297 77.3055H75.4071C75.2179 77.1704 75.0685 76.987 74.9743 76.7744C74.6058 76.0585 74.221 75.3508 73.8396 74.642C73.794 74.5554 73.78 74.4186 73.6607 74.4139C73.5414 74.4092 73.518 74.5437 73.4747 74.6303C73.2466 75.0736 73.0454 75.5322 72.7939 75.9626C72.5307 76.4141 72.4137 76.9663 71.8639 77.2926H72.8688C72.5365 77.0832 72.5518 77.0832 72.6851 76.723C72.7857 76.4516 72.9413 76.3463 73.2267 76.379C73.43 76.4077 73.6363 76.4077 73.8396 76.379C74.2572 76.3112 74.2993 76.6446 74.4245 76.8902C74.5696 77.1604 74.2806 77.1721 74.1297 77.3055ZM73.1939 76.1837C73.0009 76.1837 72.9799 76.1006 73.0618 75.9498C73.2045 75.6831 73.3437 75.414 73.5109 75.0982C73.7342 75.4251 73.9154 75.7788 74.0502 76.1509C73.7496 76.2153 73.47 76.1767 73.1916 76.1837H73.1939Z" fill="#871920"/>
<path d="M42.9705 48C34.1413 48 27 55.1705 27 64.0149C27.0058 72.7646 34.2009 79.9304 42.9693 79.9234C51.7646 79.9129 58.9316 72.7424 58.921 63.9634C58.9117 55.1612 51.7505 48 42.9705 48ZM42.9705 78.8379C34.7601 78.825 28.0645 72.1434 28.0785 63.9822C28.0972 55.7507 34.7718 49.0738 42.974 49.082C51.1762 49.0902 57.8449 55.7835 57.8379 63.9681C57.8309 72.1528 51.1353 78.8507 42.9751 78.8379H42.9705Z" fill="#7B0203"/>
<path d="M38.8037 50.957C39.0119 50.8401 39.2119 50.7044 39.2798 50.4529C39.2891 50.4166 39.302 50.3839 39.35 50.392C39.3796 50.3961 39.407 50.4097 39.4281 50.4309C39.4492 50.452 39.4629 50.4794 39.4669 50.509C39.4846 50.6063 39.4774 50.7064 39.4459 50.8001C39.4144 50.8938 39.3596 50.978 39.2868 51.0448C39.0263 51.2764 38.7647 51.5041 38.5019 51.7279C38.4435 51.7687 38.4019 51.8294 38.3849 51.8987C38.3416 52.1385 38.296 52.3783 38.2457 52.6485C38.4025 52.5315 38.5358 52.4379 38.5148 52.2262C38.5075 52.0701 38.5401 51.9147 38.6095 51.7747C38.6169 51.7486 38.6304 51.7247 38.649 51.7049C38.6675 51.6851 38.6905 51.6701 38.7161 51.6611C38.7416 51.652 38.7689 51.6492 38.7958 51.6529C38.8226 51.6566 38.8482 51.6667 38.8704 51.6823C39.0716 51.7723 39.171 52.1034 39.0201 52.2788C38.9496 52.3663 38.8978 52.4672 38.8676 52.5754C38.8374 52.6836 38.8296 52.7968 38.8446 52.9082C38.8563 53.2041 38.8446 53.5 38.8446 53.81C38.7269 53.7467 38.6136 53.6756 38.5054 53.5971C38.3744 53.4907 38.3019 53.5223 38.2457 53.6661C38.2297 53.6981 38.2109 53.7287 38.1896 53.7574C38.0469 53.9913 38.0515 53.9913 37.8644 53.7925C37.7848 53.7083 37.7696 53.6615 37.8866 53.5995C38.049 53.5104 38.1969 53.3972 38.3253 53.2638C38.3882 53.2106 38.4349 53.1409 38.4604 53.0626C38.4858 52.9843 38.4888 52.9004 38.4691 52.8204C38.4083 52.8204 38.3744 52.8742 38.3346 52.9105C38.1381 53.0824 38.1416 53.0801 37.9381 52.9105C37.9243 52.9026 37.9123 52.8919 37.9028 52.8792C37.8933 52.8665 37.8865 52.852 37.8828 52.8366C37.8791 52.8211 37.8785 52.8051 37.8812 52.7895C37.8839 52.7738 37.8897 52.7589 37.8983 52.7456C37.9849 52.5233 38.0586 52.2964 38.1463 52.0741C38.1791 51.9887 38.1615 51.949 38.082 51.9092C38.015 51.8867 37.9538 51.8497 37.9028 51.8007C37.8519 51.7518 37.8124 51.6921 37.7872 51.6261C38.1732 51.6495 38.3475 51.4261 38.461 51.1138C38.5744 50.8015 38.7043 50.4915 38.7932 50.1698C38.8025 50.1394 38.7826 50.0902 38.8341 50.0832C38.8554 50.082 38.8765 50.0878 38.8942 50.0996C38.9119 50.1114 38.9253 50.1286 38.9324 50.1487C38.9646 50.2096 38.9837 50.2766 38.9883 50.3453C38.993 50.414 38.9831 50.483 38.9593 50.5476C38.9113 50.681 38.8552 50.819 38.8037 50.957Z" fill="#7B0203"/>
<path d="M38.6587 76.5416C38.833 76.1111 38.9967 75.7099 39.1558 75.3075C39.1933 75.2139 39.2167 75.1578 39.343 75.2093C39.4693 75.2607 39.4412 75.3262 39.405 75.4116C39.1979 75.9193 38.9932 76.4281 38.7839 76.9323C38.7628 76.9826 38.7733 77.0925 38.6797 77.0645C38.5862 77.0364 38.4704 77.0305 38.4458 76.8867C38.3394 76.3416 38.2224 75.8 38.1101 75.2572C38.0457 75.2572 38.0563 75.3099 38.0422 75.3438C37.8878 75.7251 37.7323 76.1053 37.5814 76.4878C37.5474 76.5743 37.5159 76.6118 37.4141 76.5603C37.3299 76.5182 37.2807 76.5018 37.3287 76.3872C37.5463 75.8702 37.751 75.3496 37.965 74.8314C37.9861 74.7823 37.9779 74.6712 38.0668 74.7028C38.1557 74.7343 38.2762 74.7308 38.3008 74.8794C38.4013 75.4128 38.5172 75.9427 38.6271 76.4738C38.6362 76.497 38.6468 76.5196 38.6587 76.5416ZM46.6164 76.7393C46.5065 76.2948 46.4047 75.855 46.2866 75.4198C46.2573 75.3145 46.2924 75.2935 46.372 75.2748C46.4515 75.2561 46.517 75.221 46.5474 75.3438C46.6855 75.9181 46.8305 76.4901 46.9732 77.0633C46.9814 77.1007 47.0048 77.1499 46.9405 77.1627C46.8469 77.1803 46.7568 77.2528 46.6585 77.1627C46.4538 76.9709 46.2445 76.7837 46.0374 76.5954L45.38 76.0012C45.497 76.4691 45.5941 76.8902 45.7064 77.3089C45.7368 77.4259 45.7333 77.4692 45.6058 77.5078C45.4549 77.5534 45.4642 77.4505 45.4444 77.3733C45.3133 76.8527 45.1812 76.3334 45.0583 75.8117C45.0431 75.7497 44.9589 75.6596 45.0642 75.6128C45.1695 75.566 45.263 75.5274 45.3718 75.6304C45.7228 75.9673 46.0924 76.2924 46.455 76.6211C46.498 76.6735 46.5535 76.7141 46.6164 76.7393ZM33.0662 72.8347C33.43 72.5177 33.768 72.2311 34.0944 71.9398C34.1634 71.879 34.2008 71.8381 34.2874 71.9398C34.3739 72.0416 34.3412 72.0814 34.264 72.1481C33.8475 72.506 33.4346 72.8686 33.017 73.2254C32.9738 73.2628 32.927 73.3622 32.865 73.3014C32.803 73.2406 32.6895 73.1844 32.7316 73.0382C32.8556 72.6148 32.9656 72.1867 33.0825 71.7609C33.113 71.6439 33.1422 71.5328 33.182 71.3784C32.8229 71.6895 32.4942 71.9738 32.1678 72.2592C32.0988 72.32 32.0508 72.3843 31.9584 72.272C31.866 72.1597 31.9105 72.1328 31.9877 72.0662C32.4006 71.7152 32.8065 71.3526 33.2217 71.0017C33.265 70.9643 33.3013 70.8438 33.3832 70.9175C33.465 70.9912 33.5586 71.0485 33.513 71.1994C33.3691 71.6848 33.2428 72.1761 33.1106 72.6651C33.0977 72.7048 33.0825 72.7493 33.0662 72.8347Z" fill="#7B0203"/>
<path d="M40.5351 75.5077C40.948 75.5077 41.2919 75.7416 41.3773 76.0832C41.4135 76.2294 41.3656 76.275 41.2229 76.2703C41.1504 76.2703 41.134 76.2388 41.1246 76.1768C41.0825 75.9206 40.9012 75.8071 40.6684 75.765C40.4052 75.7182 40.1643 75.765 40.0005 75.999C39.9193 76.1139 39.8633 76.2447 39.8361 76.3828C39.8089 76.5208 39.8111 76.6631 39.8426 76.8002C39.9139 77.1406 40.2988 77.3547 40.686 77.2822C40.9784 77.2284 40.9936 77.2085 41.0275 76.964C41.0404 76.8739 41.0275 76.8318 40.9293 76.8201C40.8123 76.8061 40.6953 76.7792 40.5783 76.7616C40.5035 76.7511 40.4707 76.7207 40.4988 76.6447C40.5199 76.585 40.4988 76.4926 40.6158 76.516C40.8318 76.5581 41.0494 76.5971 41.2685 76.633C41.3399 76.6447 41.3574 76.6751 41.3457 76.7417C41.3094 76.9289 41.2743 77.1161 41.2428 77.3044C41.2385 77.331 41.2271 77.3559 41.2098 77.3765C41.1925 77.3971 41.1699 77.4126 41.1445 77.4214C40.915 77.5401 40.6537 77.5831 40.3982 77.5442C39.9865 77.4717 39.6624 77.2693 39.5677 76.8423C39.5137 76.6355 39.52 76.4175 39.5859 76.2142C39.6518 76.0108 39.7746 75.8306 39.9397 75.6948C40.106 75.5568 40.3197 75.4896 40.5351 75.5077Z" fill="#7B0203"/>
<path d="M50.5436 73.0206C50.6126 73.0487 50.6336 73.1154 50.6711 73.1668C50.7085 73.2183 50.65 73.2394 50.6208 73.2604C50.3658 73.4488 50.1119 73.6371 49.8534 73.8184C49.7844 73.8664 49.775 73.8944 49.8265 73.9681C50.1037 74.367 50.1002 74.3682 50.4944 74.0746C50.6196 73.981 50.7459 73.8921 50.8699 73.7997C50.9308 73.7541 50.9775 73.6921 51.0489 73.7997C51.1062 73.8862 51.1191 73.9284 51.022 73.9927C50.7997 74.1424 50.588 74.3085 50.3669 74.4606C50.271 74.5261 50.2593 74.5776 50.3389 74.6665C50.4476 74.7904 50.5108 75.0174 50.6477 75.0326C50.7845 75.0478 50.9085 74.8723 51.0384 74.7788C51.1986 74.6618 51.3624 74.5542 51.5133 74.4278C51.6022 74.3541 51.6303 74.4091 51.6782 74.4664C51.7262 74.5237 51.7496 74.5705 51.663 74.6314C51.3214 74.8712 50.9846 75.118 50.65 75.3671C50.5822 75.4174 50.5471 75.4198 50.4944 75.3484C50.1505 74.8688 49.8035 74.3908 49.4534 73.9143C49.4136 73.8605 49.4077 73.8324 49.4697 73.7892C49.8043 73.5494 50.1365 73.306 50.4687 73.0639C50.4933 73.0499 50.519 73.0323 50.5436 73.0206Z" fill="#7B0203"/>
<path d="M54.4138 71.4124C54.4138 71.8955 53.9097 72.3669 53.478 72.285C53.4253 72.2751 53.3738 72.259 53.3248 72.2371C53.2815 72.216 53.2078 72.1938 53.2616 72.1259C53.3155 72.0581 53.285 71.9528 53.4219 71.9856C53.5054 72.0079 53.5928 72.0114 53.6778 71.9959C53.7628 71.9804 53.8433 71.9463 53.9136 71.896C53.9838 71.8456 54.042 71.7803 54.084 71.7048C54.126 71.6293 54.1508 71.5454 54.1565 71.4592C54.1687 71.4037 54.1641 71.3457 54.1432 71.2928C54.1224 71.2399 54.0863 71.1944 54.0395 71.1621C53.9921 71.1297 53.9352 71.1142 53.878 71.118C53.8207 71.1218 53.7664 71.1448 53.7237 71.1831C53.6067 71.2709 53.4956 71.375 53.3798 71.4697C53.2956 71.5448 53.2056 71.6133 53.1108 71.6744C53.0341 71.7281 52.9421 71.7556 52.8485 71.7528C52.755 71.7501 52.6648 71.7173 52.5914 71.6592C52.5088 71.6043 52.4449 71.5255 52.4083 71.4333C52.3717 71.3411 52.3642 71.24 52.3867 71.1434C52.4121 71.0111 52.4643 70.8855 52.5401 70.7742C52.616 70.663 52.7139 70.5684 52.8277 70.4965C52.8891 70.4531 52.9596 70.4244 53.0338 70.4127C53.1081 70.4009 53.184 70.4064 53.2558 70.4287C53.319 70.4485 53.4523 70.4287 53.4125 70.5585C53.3845 70.6486 53.3435 70.7609 53.1856 70.693C53.0277 70.6252 52.8943 70.7199 52.7984 70.8427C52.6815 70.989 52.5645 71.1492 52.6569 71.3469C52.6673 71.3753 52.6839 71.401 52.7054 71.4221C52.727 71.4433 52.753 71.4594 52.7816 71.4692C52.8101 71.4791 52.8405 71.4824 52.8706 71.4791C52.9006 71.4757 52.9295 71.4657 52.9552 71.4498C53.0786 71.3769 53.1919 71.288 53.2921 71.1855C53.3786 71.113 53.4605 71.0334 53.5506 70.9667C53.6271 70.8984 53.7227 70.8551 53.8246 70.8428C53.9264 70.8304 54.0296 70.8496 54.1202 70.8977C54.215 70.9444 54.2936 71.0183 54.3459 71.1101C54.3982 71.2018 54.4219 71.3071 54.4138 71.4124Z" fill="#7B0203"/>
<path d="M29.4366 66.6491C29.4366 66.3146 29.5536 66.1017 29.8156 65.9695C29.8589 65.9473 29.9326 65.8818 29.9583 65.9812C29.9735 66.0491 30.0928 66.1427 29.9466 66.2035C29.5723 66.3591 29.6671 66.9346 29.8659 67.1393C29.8998 67.1774 29.9439 67.2053 29.9929 67.2196C30.0419 67.2338 30.094 67.234 30.1431 67.22C30.1928 67.207 30.2373 67.1795 30.2711 67.1409C30.3049 67.1023 30.3263 67.0545 30.3326 67.0036C30.3582 66.8384 30.368 66.6711 30.3619 66.5041C30.3523 66.3547 30.3797 66.2053 30.4414 66.069C30.4744 66.0018 30.5228 65.9433 30.5826 65.8983C30.6423 65.8533 30.7119 65.8229 30.7855 65.8097C30.8592 65.7965 30.9349 65.8008 31.0066 65.8223C31.0783 65.8437 31.144 65.8818 31.1982 65.9333C31.3186 66.0581 31.4029 66.2132 31.442 66.3821C31.4812 66.5511 31.4737 66.7274 31.4205 66.8925C31.3798 67.0073 31.2958 67.1017 31.1865 67.1556C31.1351 67.1802 31.0696 67.2843 31.0123 67.1826C30.9725 67.1065 30.8836 67.0141 31.0473 66.9229C31.3 66.7813 31.2485 66.221 30.9865 66.097C30.8286 66.0198 30.6824 66.1029 30.6485 66.2912C30.6087 66.5158 30.6391 66.7439 30.6169 66.9697C30.5724 67.4025 30.1736 67.6224 29.8133 67.4153C29.7119 67.3509 29.6292 67.2609 29.5735 67.1545C29.489 66.999 29.4421 66.826 29.4366 66.6491Z" fill="#7B0203"/>
<path d="M31.7644 67.737C31.7644 67.7978 31.7118 67.7943 31.6778 67.8083C31.5012 67.882 31.3269 67.9522 31.1468 68.0224C31.0731 68.0505 31.0298 68.0739 31.0707 68.1745C31.176 68.4084 31.2696 68.6482 31.3597 68.888C31.3936 68.9816 31.4357 68.9863 31.5188 68.95C31.693 68.8728 31.8697 68.8108 32.0475 68.7313C32.1645 68.6775 32.1726 68.7605 32.2019 68.8307C32.2311 68.9009 32.2604 68.9477 32.1539 68.991C31.608 69.2038 31.0657 69.423 30.5268 69.6483C30.3888 69.7068 30.4028 69.5992 30.363 69.5372C30.3092 69.4518 30.3432 69.4202 30.4274 69.384C30.6333 69.3068 30.8356 69.2155 31.0427 69.1418C31.1409 69.1068 31.176 69.074 31.1281 68.9652C31.0251 68.7371 30.9327 68.5043 30.845 68.2704C30.8122 68.1827 30.7795 68.1663 30.6917 68.2049C30.4847 68.2973 30.2706 68.3722 30.0636 68.4634C29.9642 68.5079 29.9279 68.4774 29.8963 68.385C29.8647 68.2926 29.8332 68.2528 29.9478 68.2072C30.4917 67.9943 31.0321 67.7709 31.5749 67.5533C31.6474 67.5241 31.7679 67.6422 31.7644 67.737ZM44.4034 76.8224C44.3769 76.4948 44.3489 76.1677 44.3192 75.841C44.3122 75.7579 44.304 75.6865 44.428 75.6889C44.5216 75.6889 44.5918 75.6772 44.5988 75.8152C44.6187 76.2083 44.6596 76.6013 44.6854 76.9943C44.7041 77.2715 44.6175 77.5102 44.3555 77.6377C44.2163 77.7151 44.0597 77.7558 43.9005 77.7558C43.7412 77.7558 43.5846 77.7151 43.4454 77.6377C43.2267 77.5125 43.1717 77.2868 43.1471 77.0528C43.1062 76.6785 43.0816 76.303 43.0419 75.9287C43.0325 75.8293 43.0594 75.7977 43.1588 75.8024C43.2583 75.807 43.3203 75.7637 43.3296 75.9053C43.353 76.2808 43.3893 76.6551 43.4279 77.0294C43.4735 77.4669 43.8958 77.6552 44.2607 77.4014C44.2977 77.376 44.329 77.3433 44.3528 77.3052C44.3765 77.2672 44.3922 77.2247 44.3988 77.1803C44.4143 77.0616 44.4159 76.9415 44.4034 76.8224Z" fill="#7B0203"/>
<path d="M48.1394 52.231C47.8411 52.1924 47.7814 52.0965 47.8645 51.8286C47.8764 51.7826 47.8929 51.738 47.9136 51.6952C47.9475 51.6403 47.9569 51.5268 48.0434 51.5572C48.13 51.5876 48.0376 51.666 48.0364 51.7233C48.0353 51.7806 48.0013 51.8075 48.0364 51.8403C48.0715 51.873 48.123 51.8344 48.1628 51.8157C48.2259 51.7841 48.2797 51.7409 48.3499 51.7105C48.4973 51.6414 48.5991 51.5596 48.4996 51.3771C48.4858 51.3501 48.4829 51.3189 48.4916 51.2898C48.5004 51.2608 48.52 51.2363 48.5464 51.2215C48.6096 51.1724 48.6634 51.2157 48.7032 51.2554C48.7311 51.2779 48.7552 51.3047 48.7745 51.335C48.8564 51.4788 48.957 51.5046 49.0833 51.3888C49.1898 51.2905 49.2459 51.3665 49.3044 51.4508C49.3851 51.5677 49.2565 51.5677 49.2155 51.5935C49.0051 51.722 48.8282 51.8989 48.6997 52.1093C48.3873 52.6334 47.9089 53.0124 47.413 53.3633C47.32 53.4296 47.21 53.4678 47.096 53.4733C47.0609 53.4733 47.0188 53.4733 47.0106 53.4311C47.0024 53.389 47.0281 53.3797 47.0585 53.3668C47.572 53.1399 47.8469 52.6919 48.1394 52.231Z" fill="#7B0203"/>
<path d="M49.198 74.0045C49.2764 74.6923 49.3501 75.3497 49.432 76.0071C49.4425 76.0901 49.4191 76.1322 49.3501 76.1556C49.2811 76.179 49.2331 76.2726 49.1442 76.1907C48.6366 75.7485 48.1273 75.3075 47.6166 74.8677C47.7698 74.7168 47.8856 74.7168 48.0388 74.8677C48.4085 75.2303 48.798 75.5696 49.191 75.9287C49.1138 75.3684 49.0471 74.8244 48.9571 74.2829C48.9278 74.0852 49.0764 74.0852 49.198 74.0045Z" fill="#7B0203"/>
<path d="M32.1247 58.8072C32.1457 58.2831 32.1633 57.8059 32.1855 57.3286C32.1855 57.29 32.1551 57.2234 32.2299 57.2117C32.3048 57.2 32.313 57.2468 32.3259 57.2971C32.4709 57.8901 32.5341 58.4843 32.3832 59.0868C32.3504 59.2154 32.2884 59.2377 32.1609 59.2447C32.1137 59.2542 32.0649 59.2539 32.0178 59.2438C31.9706 59.2337 31.9261 59.214 31.8869 59.1859C31.8477 59.1578 31.8148 59.1219 31.7901 59.0805C31.7653 59.0391 31.7494 58.993 31.7433 58.9452C31.6887 58.7548 31.5955 58.5776 31.4696 58.4247C31.3889 58.3241 31.4521 58.3077 31.5258 58.2831C31.5842 58.2705 31.6451 58.2748 31.7013 58.2955C31.7574 58.3162 31.8065 58.3525 31.8428 58.4001C31.9512 58.5252 32.0457 58.6617 32.1247 58.8072Z" fill="#7B0203"/>
<path d="M54.2691 67.6445C54.26 67.5987 54.2601 67.5515 54.2695 67.5058C54.2788 67.46 54.2972 67.4165 54.3236 67.378C54.35 67.3394 54.3838 67.3065 54.423 67.2812C54.4623 67.2558 54.5062 67.2386 54.5522 67.2305C54.8072 67.1556 55.0505 67.0456 55.3137 66.945C55.1172 66.7462 54.9382 66.5473 54.7382 66.3719C54.5803 66.235 54.5312 66.0946 54.6435 65.8934C54.895 66.1601 55.1558 66.421 55.3968 66.6982C55.5083 66.8292 55.6656 66.9129 55.8366 66.9322C55.9898 66.9556 56.1396 67 56.2916 67.0234C56.4238 67.0445 56.3747 67.1252 56.3595 67.1954C56.3443 67.2655 56.3431 67.3427 56.2296 67.296C55.7009 67.0749 55.212 67.2164 54.73 67.4586C54.5873 67.5346 54.4317 67.5814 54.2691 67.6445Z" fill="#7B0203"/>
<path d="M55.7533 69.0096C55.7533 69.1769 55.6492 69.2518 55.5193 69.2027C55.0737 69.0319 54.628 68.8658 54.1847 68.6891C54.0806 68.6482 54.0396 68.6657 54.0069 68.7687C53.9683 68.8938 53.9121 69.0132 53.8688 69.136C53.8443 69.205 53.8256 69.2623 53.7355 69.2073C53.677 69.1722 53.5811 69.1863 53.6326 69.0564C53.8022 68.6377 53.9612 68.2142 54.1168 67.7896C54.1554 67.6843 54.2127 67.7136 54.2806 67.7381C54.3484 67.7627 54.3976 67.7873 54.3555 67.8773C54.2981 68.0025 54.2642 68.137 54.2034 68.2587C54.1426 68.3803 54.187 68.4002 54.2853 68.4365C54.7368 68.6037 55.186 68.778 55.6351 68.9523C55.6808 68.9699 55.7498 68.9652 55.7533 69.0096Z" fill="#7B0203"/>
<path d="M47.9686 76.7451C47.9382 76.8176 47.8516 76.8153 47.7978 76.8504C47.744 76.8855 47.7159 76.8562 47.6937 76.8024C47.4597 76.2491 47.2258 75.6982 46.9918 75.1449C46.9392 75.0186 47.0667 75.0396 47.1193 75.001C47.2012 74.9402 47.2363 75.001 47.2609 75.0642C47.448 75.5087 47.6348 75.9528 47.8212 76.3965L47.9686 76.7451Z" fill="#7B0203"/>
<path d="M53.3894 69.4917L53.4853 69.5408C53.9965 69.8005 54.5053 70.0637 55.0189 70.3163C55.1171 70.3655 55.1124 70.4052 55.068 70.486C55.0235 70.5667 55.0025 70.6298 54.8855 70.569C54.3743 70.2988 53.8573 70.0391 53.3426 69.7759C53.2993 69.7537 53.2256 69.7467 53.2724 69.666C53.3099 69.6051 53.3192 69.5233 53.3894 69.4917Z" fill="#7B0203"/>
<path d="M30.8264 56.3682C31.0697 56.2255 31.2826 56.243 31.4417 56.4384C31.6008 56.6337 31.7318 56.8314 31.8698 57.0338C31.9054 57.089 31.9285 57.1512 31.9377 57.2163C31.9443 57.2491 31.9396 57.2831 31.9243 57.3129C31.909 57.3427 31.884 57.3663 31.8534 57.38C31.7985 57.3999 31.7868 57.3239 31.761 57.2888C31.4967 56.9355 31.2265 56.5893 30.8264 56.3682Z" fill="#7B0203"/>
<path d="M32.8675 57.4748C32.7575 57.1941 32.6592 56.9403 32.5598 56.6876C32.5329 56.6197 32.5294 56.5706 32.6241 56.5706H32.7306C33.1271 56.5531 33.1295 56.5542 33.0441 56.9496C33.015 57.1333 32.9553 57.3109 32.8675 57.4748Z" fill="#7B0203"/>
<path d="M48.7898 53.5632C48.9676 53.2989 48.9488 53.0275 48.9067 52.7538C49.1629 52.7807 49.2881 52.8707 49.2974 53.0275C49.3079 53.2497 49.0974 53.486 48.7898 53.5632Z" fill="#7B0203"/>
<path d="M38.9315 52.9562C39.0687 52.9281 39.2109 52.9374 39.3433 52.9831C39.3963 53.0024 39.4426 53.0369 39.4762 53.0822C39.5099 53.1275 39.5296 53.1817 39.5328 53.2381C39.541 53.32 39.5328 53.4018 39.4567 53.4428C39.3807 53.4837 39.3503 53.3913 39.3105 53.3527C39.1865 53.2322 39.0707 53.1047 38.9315 52.9562Z" fill="#7B0203"/>
<path d="M42.8779 53.417C41.4904 53.4202 40.1172 53.6967 38.8366 54.2306C37.5561 54.7645 36.3932 55.5454 35.4144 56.5288C34.4356 57.5121 33.6601 58.6786 33.1322 59.9617C32.6042 61.2447 32.3341 62.6192 32.3373 64.0066C32.3373 69.791 37.0888 74.5167 42.8896 74.5121C45.687 74.5105 48.3691 73.3978 50.3461 71.4186C52.3231 69.4395 53.4328 66.7561 53.4313 63.9587C53.4297 61.1613 52.317 58.4791 50.3378 56.5021C48.3587 54.5252 45.6753 53.4154 42.8779 53.417ZM43.7142 73.995C41.792 74.1524 39.8651 73.7526 38.164 72.8436C36.463 71.9346 35.0598 70.5548 34.1224 68.8692H51.6357C50.5011 71.0917 47.6668 73.6769 43.7142 73.995ZM51.8474 68.013C48.8591 68.006 45.8705 68.006 42.8814 68.013C39.8923 68.02 36.89 68.02 33.8744 68.013C33.8087 68.0212 33.7422 68.005 33.6877 67.9675C33.6331 67.93 33.5943 67.8737 33.5784 67.8095C32.7588 65.826 32.5959 63.6322 33.1137 61.5495C33.6316 59.4668 34.8029 57.6046 36.456 56.236C38.627 54.4557 41.1186 53.6989 43.9108 53.9586C47.7908 54.32 51.2357 57.1028 52.4335 60.8226C53.1903 63.1714 53.1002 65.4887 52.1937 67.7814C52.1744 67.8557 52.1284 67.9203 52.0646 67.963C52.0008 68.0057 51.9235 68.0235 51.8474 68.013Z" fill="#7B0203"/>
<path d="M55.4249 56.7731C55.2272 56.6491 54.9862 56.5906 54.8318 56.3952C54.813 56.38 54.7894 56.3717 54.7652 56.3718C54.6448 56.3585 54.5267 56.329 54.4142 56.2841C54.0902 56.1905 54.0797 56.1671 54.1709 55.8408C54.066 55.9029 53.9752 55.9861 53.9042 56.0852C53.7978 56.2022 53.8446 56.29 53.9639 56.3555C54.1122 56.4325 54.2745 56.4791 54.4411 56.4923C54.5757 56.5075 54.6751 56.5227 54.6915 56.6888C54.7008 56.7754 54.7663 56.9076 54.8821 56.8128C55.033 56.6877 55.1067 56.7953 55.2436 56.8772C55.0997 56.897 54.9956 56.9181 54.8927 56.9251C54.4026 56.9516 53.9115 56.9026 53.4363 56.7801C53.3194 56.7532 53.1053 56.8526 53.0854 56.9532C53.0562 57.1088 53.193 57.1333 53.2913 57.179C53.3685 57.2152 53.4527 57.2363 53.5627 57.2749L53.3182 57.3638C53.0714 57.4538 53.0772 57.4515 53.1755 57.6925C53.2421 57.8551 53.3264 58.0188 53.2808 58.2446C53.2305 58.1592 53.2024 58.1077 53.172 58.0586C53.0105 57.7954 52.821 57.5556 52.5356 57.4234C52.2502 57.2913 52.152 57.3392 52.1391 57.6644C52.1429 58.0288 52.182 58.3919 52.2561 58.7487C52.2993 59.0271 52.49 59.1266 52.7497 59.0178C52.9036 58.9337 53.046 58.8299 53.1731 58.709C53.2197 58.7716 53.2521 58.8435 53.2683 58.9198C53.2844 58.9961 53.2839 59.075 53.2667 59.1511C53.2351 59.2822 53.3463 59.2868 53.4129 59.3102C53.51 59.3465 53.489 59.2424 53.4972 59.2003C53.5356 58.9871 53.5087 58.7673 53.42 58.5698C53.4012 58.5265 53.3498 58.4902 53.3942 58.4259C53.4443 58.3473 53.4739 58.2574 53.4802 58.1644C53.4866 58.0714 53.4695 57.9783 53.4305 57.8937C53.3778 57.7381 53.4422 57.6691 53.572 57.6235C53.6796 57.586 53.7884 57.5556 53.8937 57.5147C54.0832 57.4421 54.0926 57.379 53.951 57.2398C53.9148 57.2047 53.8574 57.179 53.8551 57.1088C54.0235 57.1415 54.185 57.1766 54.3476 57.2012C54.6765 57.2667 55.0152 57.2667 55.3442 57.2012C55.4366 57.1778 55.5325 57.1427 55.5512 57.0292C55.558 56.9788 55.5496 56.9275 55.5271 56.8819C55.5046 56.8363 55.469 56.7984 55.4249 56.7731ZM52.8 58.7078C52.6573 58.7862 52.5602 58.7558 52.4771 58.606C52.3644 58.3752 52.3037 58.1225 52.2993 57.8656C52.566 57.9744 52.807 58.089 52.9567 58.3335C53.0527 58.4832 53.0035 58.5955 52.8 58.7078Z" fill="#7B0203"/>
<path d="M52.9028 72.775C52.718 72.7376 52.5283 72.7305 52.3413 72.7539C52.4688 72.5317 52.5132 72.3305 52.374 72.127C52.153 71.8053 51.7892 71.7889 51.4921 72.0954C51.2932 72.3001 51.1049 72.5153 50.9072 72.7212C50.8464 72.7843 50.8323 72.8183 50.9072 72.8873C51.3337 73.2772 51.7564 73.6722 52.1752 74.0722C52.2571 74.1506 52.298 74.126 52.3553 74.0559C52.4126 73.9857 52.4723 73.9576 52.3705 73.8757C52.2056 73.7377 52.0535 73.5844 51.9026 73.4347C51.8757 73.4078 51.7938 73.3844 51.8512 73.3283C52.0079 73.1739 52.1237 72.9504 52.4033 72.9961C52.6021 73.03 52.8033 73.0557 53.0034 73.0908C53.2443 73.1341 53.318 73.0978 53.4186 72.8686C53.2432 72.837 53.0724 72.8101 52.9028 72.775ZM52.0746 72.7235C51.9576 72.8627 51.8243 72.9949 51.7014 73.1318C51.657 73.1821 51.6254 73.1926 51.5728 73.1399C51.4558 73.023 51.2523 72.9165 51.2218 72.7762C51.1914 72.6358 51.409 72.534 51.5119 72.41C51.5841 72.3076 51.6827 72.2267 51.7974 72.1761C51.843 72.1594 51.8921 72.1543 51.9402 72.1613C51.9883 72.1682 52.034 72.1869 52.0731 72.2157C52.1123 72.2445 52.1437 72.2826 52.1645 72.3265C52.1854 72.3704 52.1951 72.4188 52.1927 72.4673C52.1868 72.5645 52.1447 72.656 52.0746 72.7235Z" fill="#7B0203"/>
<path d="M35.324 72.967C35.1486 72.7962 34.9602 72.6395 34.7848 72.4699C34.7169 72.4055 34.683 72.4254 34.6304 72.4839C34.2467 72.9167 33.8619 73.3483 33.4712 73.7706C33.3951 73.8537 33.4185 73.8876 33.4875 73.9508C33.649 74.0923 33.8034 74.242 33.9671 74.3801C34.0524 74.4641 34.1553 74.5281 34.2684 74.5674C34.3816 74.6067 34.502 74.6202 34.621 74.607C35.076 74.5415 35.5767 73.973 35.5767 73.4946C35.5942 73.2875 35.4761 73.1156 35.324 72.967ZM34.5181 74.3543C34.3736 74.355 34.2344 74.3006 34.1286 74.2023C33.739 73.8958 33.7379 73.8969 34.0595 73.5378C34.2584 73.3156 34.4631 73.098 34.6561 72.8699C34.731 72.781 34.7731 72.7915 34.8503 72.8699C34.9556 72.9764 35.0679 73.0746 35.1743 73.1787C35.216 73.2193 35.2491 73.2679 35.2716 73.3215C35.2941 73.3752 35.3056 73.4329 35.3053 73.4911C35.3053 73.842 34.8678 74.3298 34.5181 74.3543Z" fill="#7B0203"/>
<path d="M36.4388 73.9238C35.9054 73.9238 35.4223 74.4502 35.4223 75.0362C35.4284 75.2843 35.532 75.5201 35.7107 75.6924C35.8893 75.8646 36.1286 75.9597 36.3768 75.9568C36.8892 75.9568 37.3746 75.4187 37.3746 74.842C37.37 74.5969 37.2694 74.3634 37.0944 74.1917C36.9194 74.0199 36.684 73.9238 36.4388 73.9238ZM36.633 75.6211C36.5268 75.6846 36.4035 75.7136 36.2801 75.7042C36.1568 75.6947 36.0393 75.6473 35.944 75.5685C35.8432 75.5017 35.7656 75.4053 35.7218 75.2926C35.678 75.1799 35.6702 75.0564 35.6995 74.9391C35.746 74.6963 35.8754 74.4771 36.0657 74.3192C36.1554 74.2385 36.2678 74.1876 36.3876 74.1734C36.5074 74.1591 36.6286 74.1823 36.7348 74.2396C36.8508 74.2897 36.9488 74.374 37.0157 74.4812C37.0825 74.5884 37.1151 74.7135 37.1091 74.8397C37.0968 74.9982 37.0472 75.1516 36.9645 75.2874C36.8818 75.4231 36.7682 75.5375 36.633 75.6211ZM32.7869 69.9303C32.767 69.8613 32.7214 69.8531 32.6477 69.8636C31.9938 69.9584 31.3387 70.0473 30.672 70.1385C30.7281 70.3233 30.7995 70.4193 31.0054 70.3725C31.4195 70.2847 31.423 70.2976 31.6277 70.6743C31.8078 71.0041 31.8078 71.0041 31.5645 71.2942C31.3961 71.4966 31.3961 71.4966 31.5645 71.7469C31.995 71.21 32.4243 70.6778 32.8512 70.1444C32.9226 70.0543 32.8079 70.0017 32.7869 69.9303ZM31.9681 70.817L31.6651 70.2695C31.9669 70.1993 32.264 70.1912 32.5892 70.0964L31.9681 70.817Z" fill="#7B0203"/>
<path d="M39.4099 70.4589C39.2504 70.5797 39.0801 70.6855 38.901 70.7747C38.8203 70.8133 38.7771 70.8274 38.7747 70.7057C38.7646 70.6452 38.7755 70.583 38.8057 70.5295C38.836 70.476 38.8837 70.4346 38.9408 70.4121C39.1585 70.31 39.3424 70.1476 39.4707 69.9442C39.4907 69.9076 39.5226 69.8789 39.5611 69.863C39.5996 69.847 39.6424 69.8447 39.6824 69.8565C39.7807 69.8764 39.7351 69.9629 39.7351 70.0191V72.2767C39.7351 72.3937 39.7128 72.4463 39.5807 72.4381C39.4707 72.4311 39.3982 72.4381 39.4005 72.2837C39.4157 71.6836 39.4099 71.0871 39.4099 70.4589Z" fill="#7B0203"/>
<path d="M45.9499 70.459C45.7657 70.6063 45.5602 70.7246 45.3404 70.81C45.2948 70.617 45.3123 70.4813 45.5194 70.39C45.7208 70.2947 45.8897 70.1421 46.0048 69.9514C46.0242 69.9111 46.0575 69.8793 46.0987 69.8618C46.1398 69.8444 46.1859 69.8425 46.2283 69.8566C46.3148 69.8812 46.275 69.9736 46.275 70.0262V72.2663C46.275 72.3915 46.2552 72.4429 46.1124 72.4371C45.9697 72.4312 45.9382 72.4113 45.9405 72.2698C45.9499 71.7329 45.9405 71.1948 45.9405 70.6579L45.9499 70.459Z" fill="#7B0203"/>
<path d="M52.2455 65.6631C52.1823 65.5812 52.1414 65.5695 52.0677 65.6502C51.9761 65.7454 51.8647 65.8193 51.7413 65.8666C50.9307 66.1953 50.1482 66.1883 49.4159 65.6584C49.3995 65.6412 49.3796 65.6278 49.3575 65.619C49.3355 65.6101 49.3118 65.6061 49.2881 65.6073C49.2643 65.6084 49.2411 65.6145 49.22 65.6254C49.1989 65.6362 49.1803 65.6515 49.1656 65.6701C49.08 65.7535 48.9822 65.8234 48.8755 65.8771C48.4904 66.0829 48.0496 66.1598 47.6176 66.0967C47.1856 66.0335 46.7852 65.8336 46.4752 65.5262C46.3582 65.4186 46.3091 65.4502 46.2237 65.5356C46.1046 65.6694 45.9657 65.7842 45.8119 65.876C45.4332 66.0578 45.0148 66.141 44.5954 66.1181C44.4995 66.1181 44.4948 66.0678 44.4925 65.9953C44.4636 65.3083 44.432 64.622 44.3977 63.9365C44.3977 63.8383 44.4527 63.8629 44.4995 63.8629C44.6667 63.872 44.8343 63.8701 45.0013 63.857C45.3686 63.7997 45.6049 63.9096 45.6669 64.3003C45.6844 64.4068 45.7511 64.4372 45.8599 64.4325C46.1886 64.4197 46.5173 64.4208 46.846 64.4126C47.0203 64.4126 47.1969 64.3974 47.3841 64.3881L47.1805 63.8617H48.1034C48.1385 63.8579 48.1738 63.8662 48.2035 63.8851C48.2333 63.904 48.2557 63.9324 48.2672 63.9658C48.3432 64.1284 48.4263 64.2863 48.5012 64.4466C48.5257 64.4945 48.5456 64.5378 48.6181 64.5366H49.9411C49.8312 64.3214 49.7528 64.1565 49.6627 63.9974C49.596 63.8804 49.6311 63.8605 49.7504 63.8629C50.0183 63.8699 50.2885 63.857 50.5564 63.8629C50.6991 63.8699 50.7564 63.8418 50.7482 63.6827C50.733 63.3903 50.7377 63.0978 50.7482 62.8042C50.7482 62.6697 50.7237 62.6194 50.5751 62.6229C50.0908 62.6335 49.6066 62.6229 49.1223 62.6311C49.0707 62.636 49.0188 62.6236 48.975 62.5959C48.9312 62.5682 48.8978 62.5267 48.8802 62.4779C48.2462 61.2411 47.6094 60.0058 46.97 58.7721C46.7664 58.3768 46.5617 57.9826 46.3488 57.5708L45.2832 59.4061L43.0794 55.0032L40.5387 59.7617L38.597 57.9989C38.5677 58.0481 38.542 58.0878 38.5209 58.13C37.9805 59.2131 37.442 60.2971 36.9055 61.3818C36.8883 61.431 36.8551 61.4731 36.8112 61.5013C36.7673 61.5294 36.7153 61.5422 36.6634 61.5374C35.8984 61.5304 35.1334 61.5374 34.3684 61.5304C34.2245 61.5304 34.1859 61.5713 34.1906 61.7105C34.2011 61.9971 34.2058 62.2849 34.1906 62.5715C34.1812 62.7422 34.2373 62.775 34.3964 62.7727C34.993 62.7633 35.5884 62.7727 36.2107 62.7727C36.0282 63.1435 35.8598 63.4932 35.6761 63.8547C36.1353 63.8901 36.596 63.9018 37.0564 63.8898C37.1029 63.8942 37.1495 63.8828 37.1886 63.8573C37.2277 63.8318 37.257 63.7937 37.2716 63.7494C37.412 63.4581 37.5606 63.1727 37.708 62.8861C37.7337 62.8358 37.7419 62.7691 37.8249 62.7691H39.0204L38.5806 63.809C38.9958 63.8512 39.3889 63.8851 39.7796 63.926C39.8331 63.9403 39.89 63.9337 39.9388 63.9077C39.9876 63.8816 40.0248 63.838 40.0428 63.7857C40.1843 63.4897 40.3481 63.2008 40.4955 62.9107C40.5136 62.8619 40.5475 62.8206 40.5918 62.7933C40.6361 62.766 40.6882 62.7542 40.7399 62.7598C41.0628 62.7703 41.3856 62.7598 41.7085 62.7598H42.1132C41.8547 63.2055 41.6137 63.6219 41.34 64.0921H42.2197C42.3109 64.0921 42.3448 64.119 42.3436 64.2149V65.7029C42.3436 65.7859 42.3179 65.8198 42.2395 65.8339C41.6301 65.9263 41.0417 65.8807 40.5235 65.5157C40.3937 65.4233 40.3235 65.428 40.2124 65.5157C39.9775 65.7114 39.7054 65.8573 39.4124 65.9446C39.1194 66.0319 38.8117 66.0587 38.5081 66.0234C38.0273 65.9836 37.5723 65.8655 37.2424 65.4841C37.1886 65.4233 37.1652 65.4455 37.1172 65.4841C36.4482 66.0152 35.3252 66.0585 34.6046 65.5941C34.5368 65.5508 34.4877 65.4093 34.38 65.4876C34.3107 65.5572 34.2659 65.6476 34.2525 65.745C34.2179 65.8602 34.2229 65.9838 34.2666 66.0959C34.3429 66.307 34.4969 66.481 34.697 66.5825C35.0395 66.775 35.4251 66.8774 35.8179 66.8803C36.2107 66.8832 36.5978 66.7863 36.943 66.5989C37.0424 66.5486 37.1231 66.4246 37.219 66.4152C37.3149 66.4059 37.3687 66.5685 37.4682 66.6234C37.4986 66.641 37.5267 66.6656 37.5571 66.6831C38.0246 66.9595 38.5762 67.0579 39.1105 66.9603C39.6065 66.8831 40.0463 66.7053 40.306 66.2339C40.3925 66.3146 40.465 66.3953 40.5493 66.4597C41.1961 66.951 42.3834 66.9592 43.0502 66.4725C43.1449 66.4035 43.1987 66.3556 43.2736 66.4971C43.3376 66.5989 43.426 66.6829 43.5309 66.7416C44.0053 67.0319 44.57 67.1373 45.1171 67.0375C45.5944 66.9673 46.0225 66.7942 46.2985 66.3521C46.3915 66.5251 46.5309 66.6689 46.7009 66.7673C47.0571 66.9733 47.462 67.08 47.8734 67.0765C48.2848 67.073 48.6878 66.9594 49.0404 66.7474C49.1574 66.6854 49.2416 66.5205 49.3422 66.5135C49.4428 66.5065 49.5317 66.6737 49.6475 66.7392C50.1509 67.014 50.7369 67.0972 51.2968 66.9732C51.6302 66.9225 51.9392 66.7682 52.18 66.5322C52.2973 66.4216 52.369 66.2711 52.3811 66.1103C52.3932 65.9496 52.3449 65.7901 52.2455 65.6631ZM45.9733 60.6098C46.0947 60.5256 46.2119 60.4354 46.3243 60.3396C46.3933 60.2823 46.426 60.2834 46.467 60.3665C46.8366 61.1128 47.2074 61.8568 47.5934 62.6299H46.7746C46.7399 62.634 46.7048 62.6252 46.6761 62.6052C46.6474 62.5851 46.6271 62.5552 46.619 62.5212C46.3851 61.941 46.1511 61.3616 45.9172 60.7829C45.9077 60.7683 45.9015 60.7517 45.8992 60.7344C45.8969 60.7171 45.8985 60.6996 45.9039 60.683C45.9093 60.6664 45.9183 60.6512 45.9303 60.6385C45.9424 60.6259 45.9571 60.616 45.9733 60.6098ZM39.7959 60.9455C39.7843 60.9654 39.7784 60.99 39.7679 61.011C39.6813 61.1795 39.6708 61.4251 39.5187 61.507C39.3667 61.5889 39.1584 61.5234 38.9748 61.5234V61.5339H38.5069C38.4203 61.5339 38.3899 61.5222 38.4344 61.4263C38.6332 61.0403 38.8274 60.6519 39.0192 60.2636C39.0602 60.1793 39.0941 60.1793 39.1584 60.2402C39.355 60.4238 39.5526 60.6051 39.755 60.7806C39.8193 60.8332 39.8369 60.8777 39.7959 60.9455ZM43.7731 60.3747C43.7731 60.2577 43.7497 60.2133 43.6257 60.225C43.4233 60.2448 43.2198 60.253 43.0174 60.2542C42.911 60.2542 42.8899 60.2975 42.8887 60.3922C42.8887 60.7326 42.877 61.073 42.87 61.4134C42.87 61.4731 42.8817 61.5304 42.7835 61.5304H41.2265L43.111 57.951C43.476 58.8564 43.828 59.7325 44.1813 60.6098C44.2878 60.8742 44.3907 61.142 44.5018 61.4052C44.5381 61.493 44.5451 61.5339 44.4293 61.5304H43.8737C43.7848 61.5397 43.7719 61.4988 43.7731 61.4193V60.3747ZM44.62 61.7023C44.6515 61.7772 44.6714 61.8193 44.6901 61.8696C44.7884 62.1118 44.8855 62.3539 44.9896 62.6124H44.0912L44.62 61.7023Z" fill="#7B0203"/>
<path d="M42.3411 70.4753C42.2949 70.3004 42.1931 70.1452 42.0512 70.033C41.9092 69.9208 41.7347 69.8577 41.5539 69.853C41.3858 69.8485 41.2205 69.8965 41.081 69.9905C40.9415 70.0844 40.8349 70.2196 40.776 70.3771C40.6415 70.7455 40.7479 71.1959 41.0216 71.4088C41.3363 71.6579 41.6989 71.6182 42.0908 71.2719C42.0872 71.4878 42.0424 71.7011 41.9586 71.9001C41.9215 71.982 41.8644 72.0532 41.7925 72.1071C41.7407 72.1525 41.6784 72.1843 41.6112 72.1996C41.544 72.2149 41.4741 72.2132 41.4077 72.1948C41.3414 72.1763 41.2806 72.1417 41.231 72.0939C41.1813 72.0461 41.1444 71.9868 41.1234 71.9211C41.0579 71.7235 40.9164 71.8042 40.8216 71.8299C40.7046 71.858 40.7959 71.9668 40.8216 72.0217C40.855 72.1342 40.9195 72.235 41.0076 72.3124C41.0958 72.3898 41.2041 72.4407 41.3199 72.4592C41.5291 72.5072 41.7488 72.4733 41.9339 72.3646C42.1189 72.2558 42.2554 72.0805 42.3154 71.8743C42.4584 71.4202 42.4673 70.9344 42.3411 70.4753ZM41.5691 71.2743C41.5002 71.275 41.4319 71.2616 41.3684 71.2349C41.3049 71.2082 41.2476 71.1687 41.2 71.1189C41.1524 71.0691 41.1156 71.0101 41.0917 70.9454C41.0679 70.8808 41.0576 70.812 41.0614 70.7432C41.0614 70.3993 41.272 70.1408 41.5609 70.1338C41.8498 70.1268 42.044 70.3677 42.0463 70.7023C42.0487 71.0368 41.8627 71.2708 41.5691 71.2778V71.2743Z" fill="#7B0203"/>
<path d="M44.4632 70.376C44.338 70.0614 44.1122 69.8672 43.7613 69.8531C43.6046 69.8426 43.4487 69.8839 43.3178 69.9708C43.1869 70.0577 43.0883 70.1853 43.0373 70.3339C42.8274 70.8807 42.832 71.4865 43.0501 72.03C43.0982 72.1639 43.1875 72.2789 43.3053 72.3586C43.423 72.4383 43.5631 72.4785 43.7052 72.4734C43.8491 72.4851 43.9932 72.4529 44.1185 72.381C44.2438 72.3092 44.3444 72.2011 44.407 72.071C44.5603 71.7879 44.5731 71.4791 44.5766 71.1668C44.5919 70.8983 44.5534 70.6294 44.4632 70.376ZM44.1696 71.8312C44.0959 72.0651 43.9356 72.2008 43.7403 72.1996C43.6345 72.1968 43.5331 72.1566 43.454 72.0862C43.375 72.0158 43.3235 71.9196 43.3086 71.8148C43.2057 71.3835 43.2081 70.9337 43.3157 70.5035C43.3753 70.2696 43.5262 70.1409 43.7204 70.1339C43.8231 70.1342 43.9227 70.1689 44.0033 70.2325C44.0839 70.2962 44.1408 70.385 44.1649 70.4848C44.221 70.7113 44.2481 70.944 44.2456 71.1773C44.2435 71.3973 44.218 71.6165 44.1696 71.8312Z" fill="#7B0203"/>
</g>
<defs>
<filter id="filter0_d_185_54" x="0" y="0" width="154" height="157" filterUnits="userSpaceOnUse" color-interpolation-filters="sRGB">
<feFlood flood-opacity="0" result="BackgroundImageFix"/>
<feColorMatrix in="SourceAlpha" type="matrix" values="0 0 0 0 0 0 0 0 0 0 0 0 0 0 0 0 0 0 127 0" result="hardAlpha"/>
<feOffset dy="16"/>
<feGaussianBlur stdDeviation="6.5"/>
<feColorMatrix type="matrix" values="0 0 0 0 0 0 0 0 0 0 0 0 0 0 0 0 0 0 0.03 0"/>
<feBlend mode="normal" in2="BackgroundImageFix" result="effect1_dropShadow_185_54"/>
<feBlend mode="normal" in="SourceGraphic" in2="effect1_dropShadow_185_54" result="shape"/>
</filter>
</defs>
</svg>
