<svg width="154" height="157" viewBox="0 0 154 157" fill="none" xmlns="http://www.w3.org/2000/svg">
<g filter="url(#filter0_d_185_158)">
<rect width="128" height="128" transform="translate(13)" fill="white"/>
<path fill-rule="evenodd" clip-rule="evenodd" d="M41.7528 53.2742C47.5253 53.2742 52.2317 57.9825 52.2317 63.7531C52.2317 69.5256 47.5234 74.232 41.7528 74.232C35.9803 74.232 31.2739 69.5237 31.2739 63.7531C31.2739 57.9805 35.9803 53.2742 41.7528 53.2742Z" fill="white" stroke="white" stroke-width="0.5669" stroke-miterlimit="22.9256"/>
<path fill-rule="evenodd" clip-rule="evenodd" d="M41.7531 49C49.8788 49 56.5061 55.6273 56.5061 63.7531C56.5061 71.8788 49.8788 78.5061 41.7531 78.5061C33.6273 78.5061 27 71.8788 27 63.7531C27 55.6273 33.6273 49 41.7531 49ZM41.7531 53.2742C35.9805 53.2742 31.2742 57.9825 31.2742 63.7531C31.2742 69.5256 35.9825 74.232 41.7531 74.232C47.5256 74.232 52.232 69.5237 52.232 63.7531C52.232 57.9805 47.5256 53.2742 41.7531 53.2742Z" fill="#007739"/>
<path fill-rule="evenodd" clip-rule="evenodd" d="M31.0686 55.5024C31.0686 55.5024 31.0801 55.6388 30.9476 55.6772C30.9476 55.6772 30.8112 55.5216 30.8457 55.3583C30.8457 55.3583 30.7939 55.243 30.8919 55.1643C30.8919 55.1643 30.9572 55.1124 31.0398 55.1873L31.1838 55.3487L31.3087 55.5696L31.424 55.6195C31.424 55.6195 31.643 55.8001 31.6622 55.7252C31.6622 55.7252 31.4336 55.2718 31.4278 55.1143L31.3817 54.7743L31.3375 54.6149C31.3375 54.6149 31.1531 54.4228 31.2722 54.2979C31.2722 54.2979 31.4413 54.1097 31.7102 54.3248C31.7102 54.3248 31.7909 54.3363 31.7352 54.5092C31.7352 54.5092 31.6314 54.7609 31.6487 54.8243L31.6007 55.0048C31.6007 55.0048 31.4701 55.4774 31.7524 55.6925C31.7524 55.6925 31.7352 55.8328 31.9695 55.8577C31.9695 55.8577 32.1309 55.8789 32.2461 56.1459C32.2461 56.1459 32.3825 56.3514 32.5919 56.192C32.5919 56.192 32.3499 56.0594 32.2288 55.9154C32.2288 55.9154 31.8158 55.6906 31.8504 55.4755C31.8504 55.4755 31.9388 55.3256 32.054 55.4255C32.054 55.4255 32.3383 55.8712 32.5055 55.8846C32.5055 55.8846 32.6303 55.7886 32.6726 55.681C32.6726 55.681 32.2058 55.3756 32.1059 55.2373C32.1059 55.2373 31.7063 54.9587 31.7582 54.8588C31.7582 54.8588 31.7947 54.6956 31.8965 54.7609C31.8965 54.7609 32.0291 54.8377 32.0137 54.9261C32.0137 54.9261 32.2096 55.1374 32.2634 55.0663C32.2634 55.0663 32.2961 54.8243 32.371 54.7916C32.4459 54.7589 32.4843 54.7762 32.517 54.8512C32.5497 54.9261 32.444 55.0625 32.5151 55.1547C32.5861 55.2469 32.5612 55.2776 32.6188 55.3352C32.6764 55.3929 32.7648 55.4601 32.7648 55.4601C32.7648 55.4601 32.8378 55.2987 32.9473 55.3698C32.9473 55.3698 33.0414 55.3794 33.0068 55.6445C33.0068 55.6445 32.7955 55.9557 32.7456 56.0556L32.7879 56.0998C32.7879 56.0998 33.1701 55.9327 33.587 55.4486C33.587 55.4486 33.7964 55.1239 33.8905 55.0817C33.9865 55.0394 34.1345 54.9626 34.1825 54.9991C34.2305 55.0356 34.1921 55.0701 34.1498 55.1259C34.1498 55.1259 34.1709 55.2315 34.0211 55.4467C34.0211 55.4467 33.5908 56.3149 32.5669 56.5397C32.5669 56.5397 32.6438 56.8394 32.6015 56.9604L32.517 57.189C32.517 57.189 32.3941 57.6673 32.3672 57.7365C32.3672 57.7365 32.3537 56.7337 32.1904 56.5474C32.1904 56.5474 31.8082 56.4974 31.7659 56.5551C31.7236 56.6108 31.6353 56.7107 31.5872 56.6223C31.5872 56.6223 31.4874 56.5205 31.5796 56.3495C31.5796 56.3495 31.8735 56.2804 32.0003 56.313C32.0003 56.313 32.0329 56.2362 31.447 55.804C31.447 55.804 31.2895 55.8116 31.2069 55.6349L31.1569 55.5696L31.0686 55.5024Z" fill="white"/>
<path fill-rule="evenodd" clip-rule="evenodd" d="M37.3965 51.3301C37.3965 51.3301 37.5502 51.2878 37.5137 51.0611L37.3543 50.8921L37.2313 50.8882C37.2313 50.8882 37.0911 50.9478 37.2505 51.0765C37.2505 51.0765 37.3235 51.3762 37.3178 51.4895L37.3504 51.7873C37.3504 51.7873 37.3619 52.0792 37.506 52.2829C37.506 52.2829 37.5675 52.5749 37.7212 52.6248C37.7212 52.6248 37.8518 52.8111 37.6885 52.8553C37.6885 52.8553 37.3581 52.8342 37.3043 53.0071C37.3043 53.0071 37.2006 53.0897 37.3024 53.1915C37.3024 53.1915 37.3466 53.253 37.4445 53.1415C37.4445 53.1415 38.1476 53.1454 38.2398 53.1473C38.332 53.1473 38.649 53.203 39.0985 53.0685L39.306 53.0858C39.306 53.0858 39.8534 52.8784 39.8899 52.7689L40.059 52.6517C40.059 52.6517 40.1358 52.5345 40.0859 52.4922C40.0359 52.4519 39.9264 52.5057 39.9264 52.5057C39.9264 52.5057 39.1292 52.8764 38.2955 52.9302L38.2149 52.886C38.2149 52.886 37.9305 52.936 37.8768 52.8764C37.8768 52.8764 37.9152 52.6747 37.8038 52.5249C37.8038 52.5249 37.5963 52.2637 37.5809 52.1945C37.5675 52.1273 37.4465 51.7027 37.4234 51.5875C37.3965 51.4722 37.3504 51.4011 37.3965 51.3301ZM37.9709 50.554C37.9709 50.554 38.0554 50.2851 38.0708 50.2351C38.0861 50.1871 38.0381 50.1064 38.1169 50.0891C38.1976 50.0718 38.2879 50.1621 38.2879 50.1621C38.2879 50.1621 38.3205 50.2582 38.3512 50.2524C38.382 50.2466 38.5645 50.1045 38.6394 50.3081C38.6394 50.3081 38.6413 50.4695 38.6471 50.5002C38.6528 50.5309 38.6624 50.6961 38.6624 50.6961L38.6394 50.7403C38.6394 50.7403 38.7412 51.2282 38.6951 51.2763C38.6951 51.2763 38.8104 51.2398 38.8469 51.2321C38.8834 51.2244 39.1984 51.2475 39.231 51.307C39.2618 51.3646 39.2483 51.3608 39.2042 51.3896C39.1581 51.4184 39.0927 51.4396 39.0543 51.4415C39.0159 51.4434 38.9045 51.4088 38.8699 51.4223C38.8334 51.4357 38.8027 51.4357 38.8027 51.4357L38.7643 51.405C38.7643 51.405 38.6259 51.4203 38.6029 51.4645C38.5798 51.5087 38.5472 51.5337 38.5472 51.5337C38.5472 51.5337 38.4185 51.5356 38.3762 51.5817C38.334 51.6297 38.2245 51.6912 38.2245 51.6912C38.2245 51.6912 38.0458 51.8583 38.0631 51.9371C38.0631 51.9371 37.9767 52.0139 37.9094 52.0024C37.9094 52.0024 37.8576 51.7239 37.8902 51.6393C37.9248 51.5548 37.9363 51.4549 37.9786 51.4472C37.9786 51.4472 38.1342 51.5433 38.1745 51.5798C38.1745 51.5798 38.332 51.5337 38.3167 51.453C38.3167 51.453 38.0881 51.1649 38.0842 51.0189C38.0842 51.0189 38.042 50.725 38.1284 50.675L38.1918 50.6424C38.1918 50.6424 38.1668 50.4925 38.2494 50.5213L38.3205 50.5847C38.3205 50.5847 38.3916 50.5886 38.3973 50.6404C38.4012 50.6904 38.3455 50.8191 38.2417 50.8806C38.2417 50.8806 38.4338 50.8729 38.4396 50.9363C38.4396 50.9363 38.4531 51.063 38.3032 51.0803C38.3032 51.0803 38.3186 51.2186 38.3512 51.2186C38.3839 51.2186 38.3993 51.2014 38.3993 51.2014C38.3993 51.2014 38.3916 51.0995 38.478 51.088L38.4992 51.0323C38.4992 51.0323 38.4185 50.7134 38.4588 50.5963C38.4588 50.5963 38.4703 50.4003 38.3993 50.408C38.3301 50.4157 38.1572 50.3043 38.0362 50.4906C38.0362 50.4906 37.9901 50.6424 38.0208 50.7845L37.9843 50.7922L37.9709 50.554ZM38.4953 51.2436L38.5433 51.2532L38.5933 51.3397C38.4627 51.3858 38.4953 51.2436 38.4953 51.2436ZM38.8276 51.3992L38.818 51.4203L38.795 51.4703L38.7335 51.5471C38.7335 51.5471 38.672 51.5798 38.6951 51.5298C38.7181 51.4799 38.8276 51.3992 38.8276 51.3992Z" fill="white"/>
<path fill-rule="evenodd" clip-rule="evenodd" d="M38.8945 51.7009C38.8945 51.7009 39.0232 51.6087 38.8887 51.553C38.8887 51.553 38.6621 51.5818 38.6025 51.6068C38.543 51.6317 38.3451 51.674 38.2587 51.9372C38.2587 51.9372 38.4508 51.8968 38.4661 51.9449C38.4834 51.9929 38.5142 52.1081 38.445 52.1562C38.3778 52.2023 38.251 52.2753 38.251 52.2753C38.251 52.2753 38.1146 52.3291 38.2068 52.4001C38.2068 52.4001 38.2913 52.4347 38.3662 52.2964C38.3662 52.2964 38.5507 52.1927 38.5929 52.1446C38.5929 52.1446 38.5545 52.2695 38.5065 52.3444C38.4585 52.4193 38.2836 52.817 38.2433 52.8381C38.203 52.8592 38.3931 52.8458 38.5084 52.7824C38.5084 52.7824 38.6083 52.7094 38.614 52.6691C38.6179 52.6287 38.6832 52.8093 38.6794 52.8554C38.6794 52.8554 38.7485 52.9111 38.8196 52.8189C38.8196 52.8189 39.1807 52.4846 39.1097 52.3252C39.1097 52.3252 39.0232 52.1888 38.8753 52.2253C38.8753 52.2253 38.835 52.1831 38.883 52.1389C38.9329 52.0966 39.0386 51.9314 39.004 51.8815C39.004 51.8815 38.9214 51.8546 38.7216 51.9468C38.7216 51.9468 38.7274 51.7316 38.5046 51.8315C38.5046 51.8315 38.4853 51.7393 38.6352 51.7143C38.6352 51.7182 38.8158 51.7182 38.8945 51.7009ZM38.8964 52.379L38.9137 52.4328C38.9137 52.4328 38.9176 52.4827 38.883 52.5365C38.8484 52.5884 38.7908 52.646 38.7216 52.6614C38.6544 52.6748 38.6352 52.6537 38.6294 52.623C38.6237 52.5922 38.6544 52.4943 38.7293 52.427C38.8081 52.3579 38.8964 52.379 38.8964 52.379Z" fill="white"/>
<path fill-rule="evenodd" clip-rule="evenodd" d="M45.6182 51.6049C45.6182 51.6049 45.063 51.6279 45.0208 51.6279C44.9766 51.6279 44.8344 51.7048 44.8517 51.7489C44.8709 51.7931 44.9843 51.8354 45.0361 51.8565C45.088 51.8776 45.0784 52.0352 45.2109 52.0909C45.2109 52.0909 45.2282 52.1543 45.186 52.1792C45.1437 52.2042 44.5098 52.6153 44.431 52.6268C44.3523 52.6383 44.2639 52.6998 44.2639 52.6998L44.1602 52.744L44.2524 52.7459C44.2524 52.7459 44.3446 52.7171 44.3811 52.719C44.4176 52.7209 44.4886 52.671 44.5194 52.671C44.5501 52.671 44.7768 52.6787 44.8229 52.6729C44.869 52.6672 44.8978 52.6422 44.9458 52.6441C44.9939 52.646 45.3896 52.3636 45.4261 52.354C45.4607 52.3444 45.5375 52.3079 45.5778 52.331C45.5778 52.331 45.8122 52.7632 45.8506 52.792C45.8506 52.792 46.1003 53.1628 46.1849 53.2089C46.2694 53.2569 46.4403 53.3088 46.5671 53.3184C46.6939 53.328 46.7669 53.2838 46.7919 53.2262C46.8169 53.1685 46.8111 53.1474 46.8111 53.1474C46.8111 53.1474 46.6747 53.0283 46.6382 53.0129C46.6017 52.9976 46.3366 52.8324 46.2867 52.7728C46.2367 52.7152 45.8314 52.2734 45.7795 52.0102C45.7795 52.0102 46.0927 51.9737 46.1772 51.9775C46.2617 51.9814 46.3232 52.0006 46.3232 52.0006L46.3674 51.8027C46.3674 51.8027 46.2944 51.6049 46.1349 51.5876C46.1349 51.5876 45.9947 51.6106 45.9543 51.5741C45.914 51.5376 45.9793 51.3936 46.0408 51.3378C46.1003 51.2821 46.1983 51.3167 46.1772 51.2456C46.156 51.1746 46.108 50.9498 45.9313 50.9268C45.9313 50.9268 45.9006 51.0017 45.8852 51.0247C45.8698 51.0497 45.6969 51.4473 45.6969 51.4473L45.6182 51.6049Z" fill="white"/>
<path fill-rule="evenodd" clip-rule="evenodd" d="M51.0372 55.366L50.9585 55.3199L50.8547 55.147C50.8547 55.147 50.9143 55.0894 50.8336 55.0548C50.8336 55.0548 50.4225 55.1374 50.4936 55.3641C50.4936 55.3641 50.6127 55.4409 50.7241 55.4063L51.0872 55.6061C51.0872 55.6061 51.2447 55.61 51.1871 55.7444L51.2236 55.7694C51.2236 55.7694 51.3292 55.7387 51.3888 55.7694C51.4464 55.8001 51.5021 55.8117 51.5348 55.8578C51.5655 55.9058 51.6212 55.9749 51.6212 55.9749C51.6212 55.9749 51.7806 56.0268 51.7999 56.0998L51.7672 56.2285C51.7672 56.2285 51.8882 56.2957 51.9362 56.265C51.9362 56.265 52.113 56.5378 52.0342 56.5781C52.0342 56.5781 51.7537 56.4609 51.6961 56.4014C51.6961 56.4014 51.7211 56.2304 51.5578 56.1132C51.5578 56.1132 51.2812 55.8962 51.2159 55.8712C51.1506 55.8462 51.0833 55.8309 51.0833 55.8309C51.0833 55.8309 50.9527 55.6445 50.8835 55.7194C50.8835 55.7194 50.8682 55.8155 50.9834 55.8866L51.1621 56.0114C51.1621 56.0114 51.3888 56.1056 51.3926 56.1709C51.3926 56.1709 51.3619 56.2285 51.3158 56.2016C51.2697 56.1747 51.116 56.1478 51.1871 56.2861C51.1871 56.2861 51.1429 56.3534 51.1179 56.313C51.091 56.2727 50.5973 55.7521 50.5224 55.7713C50.5224 55.7713 50.3149 55.8385 50.5416 56.0403L50.9738 56.436C50.9738 56.436 50.6607 56.6972 50.5224 56.5743C50.5224 56.5743 50.4148 56.3937 50.3764 56.3207C50.3764 56.3207 50.3553 56.4513 50.3514 56.5205C50.3476 56.5896 50.2957 56.6723 50.3822 56.7606C50.4686 56.849 50.58 56.9028 50.7644 56.7837L51.0699 56.6146C51.0699 56.6146 51.1429 56.653 51.1544 56.7433C51.1544 56.7433 51.3273 56.9508 51.4214 56.8106C51.4214 56.8106 51.4253 56.7414 51.4157 56.6991C51.408 56.6569 51.3446 56.532 51.3138 56.484C51.3138 56.484 51.3503 56.315 51.4022 56.2919C51.4022 56.2919 51.529 56.4417 51.6078 56.4283C51.6078 56.4283 51.6865 56.4148 51.7134 56.5147C51.7134 56.5147 51.8421 56.7414 51.9266 56.8413C52.0112 56.9412 52.0227 56.9719 52.0803 56.9143C52.1399 56.8567 52.2398 56.655 52.1572 56.4974C52.1572 56.4974 51.9689 56.2516 52.0381 56.2266C52.0381 56.2266 52.0976 56.169 52.184 56.1997C52.184 56.1997 52.4741 56.0499 52.5298 56.0326C52.5855 56.0153 52.8372 56.0153 52.866 55.8808C52.8948 55.7463 52.9582 55.6945 52.8602 55.6042C52.8602 55.6042 52.6893 55.4159 52.6163 55.4832C52.6163 55.4832 52.5798 55.5754 52.6547 55.6906C52.6547 55.6906 52.501 55.7521 52.4607 55.779C52.4203 55.8059 52.1821 55.9903 52.1399 55.9404C52.0976 55.8904 52.1687 55.7483 52.3608 55.7002C52.3608 55.7002 52.4991 55.7656 52.4991 55.6887C52.4991 55.6887 52.5586 55.5427 52.5241 55.5177C52.4876 55.4928 52.3723 55.4909 52.332 55.6234C52.332 55.6234 52.0822 55.8347 52.0284 55.8405C52.0284 55.8405 51.7691 55.8731 51.7365 55.8366C51.7038 55.8001 51.771 55.7559 51.8191 55.754C51.8671 55.7521 51.919 55.7579 51.9727 55.7214C52.0265 55.6868 52.257 55.6234 52.1937 55.4524L52.4261 55.3775L52.5798 55.3756C52.5798 55.3756 52.6662 55.2411 52.5932 55.1739L52.1802 55.2968C52.1802 55.2968 52.1168 55.1547 52.1418 55.1182C52.1668 55.0817 52.2494 55.0759 52.2494 55.0759C52.2494 55.0759 52.2974 55.2392 52.4607 55.074C52.4607 55.074 52.5951 54.9683 52.4837 54.8569C52.4837 54.8569 52.1898 54.9415 52.0707 55.0106C52.0707 55.0106 51.7941 55.122 51.6788 55.2565C51.6788 55.2565 51.4099 55.4985 51.3696 55.5254C51.3292 55.5523 51.2293 55.5485 51.1871 55.4217C51.1871 55.4217 51.3964 55.2085 51.5175 55.1585C51.5175 55.1585 51.7576 55.0221 51.7153 54.9434C51.6731 54.8646 51.6481 54.8704 51.5674 54.9242C51.4867 54.978 51.3676 55.122 51.3273 55.1489C51.2773 55.1701 51.0372 55.366 51.0372 55.366ZM51.9439 55.9557C51.9439 55.9557 51.8267 56.0134 51.7768 55.9673C51.7288 55.9212 51.7461 55.8904 51.7461 55.8904L51.8632 55.9212L51.9439 55.9557ZM52.1014 55.439C52.0938 55.5888 51.8575 55.6272 51.8267 55.5984C51.7979 55.5696 51.7845 55.5485 51.8575 55.4812C51.9305 55.414 52.1014 55.439 52.1014 55.439ZM52.0457 55.3103C51.9881 55.3871 51.7922 55.3967 51.7922 55.3967C51.7096 55.4025 51.748 55.5216 51.748 55.5216L51.6788 55.5946C51.529 55.7214 51.4272 55.6234 51.4272 55.6234L51.6001 55.4716C51.6001 55.4716 51.7999 55.3314 51.8536 55.268C51.9074 55.2027 52.015 55.2027 52.015 55.2027C51.9843 55.243 52.0457 55.3103 52.0457 55.3103Z" fill="white"/>
<path fill-rule="evenodd" clip-rule="evenodd" d="M38.0743 55.8079C39.4746 55.8079 40.6099 56.9432 40.6099 58.3435C40.6099 59.7439 39.4746 60.8792 38.0743 60.8792C36.6739 60.8792 35.5386 59.7439 35.5386 58.3435C35.5386 56.9432 36.6758 55.8079 38.0743 55.8079Z" fill="#E60012"/>
<path fill-rule="evenodd" clip-rule="evenodd" d="M44.3559 57.6289V64.5963H38.445V67.2779H44.9744V63.9431H49.6481V68.8013H48.2727V65.2475H46.6245V68.7974H36.7949V63.2919H43.0592V61.7628H41.1939V60.5373H42.919V59.0888H41.1901V57.6885L44.3559 57.6289Z" fill="#1D2088"/>
<path d="M40.3278 70.1172V71.6866H40.128V70.5782H39.7534V70.4207C40.0147 70.4322 40.1568 70.3304 40.1799 70.1152H40.3278V70.1172ZM41.0097 71.312H41.2018C41.2249 71.481 41.3152 71.5656 41.4727 71.5656C41.6763 71.5713 41.8012 71.3773 41.8473 70.9816H41.8377C41.7743 71.0969 41.6552 71.1583 41.4804 71.1641C41.1673 71.1468 41.004 70.9778 40.9924 70.6589C41.0097 70.3093 41.1788 70.1287 41.4977 70.1172C41.853 70.1229 42.0355 70.365 42.0471 70.8414C42.024 71.4119 41.8319 71.702 41.4708 71.7135C41.1884 71.7077 41.0328 71.5752 41.0097 71.312ZM41.5169 70.9893C41.709 70.9778 41.8069 70.8587 41.8127 70.632C41.8069 70.4168 41.7013 70.3054 41.4977 70.2996C41.3056 70.3112 41.2038 70.4284 41.1922 70.6493C41.1941 70.8836 41.3017 70.995 41.5169 70.9893ZM43.4282 71.3043H43.192V71.6885H42.9999V71.3043H42.3102V71.1122L43.0248 70.1172H43.19V71.1372H43.4263V71.3043H43.4282ZM42.9922 70.4226L42.4946 71.1372H42.9999V70.4226H42.9922ZM43.7356 71.312H43.9277C43.9507 71.481 44.041 71.5656 44.1985 71.5656C44.4022 71.5713 44.527 71.3773 44.5731 70.9816H44.5635C44.5001 71.0969 44.381 71.1583 44.2062 71.1641C43.8931 71.1468 43.7298 70.9778 43.7183 70.6589C43.7356 70.3093 43.9046 70.1287 44.2235 70.1172C44.5789 70.1229 44.7614 70.365 44.7729 70.8414C44.7499 71.4119 44.5578 71.702 44.1966 71.7135C43.9123 71.7077 43.7586 71.5752 43.7356 71.312ZM44.2408 70.9893C44.4329 70.9778 44.5309 70.8587 44.5366 70.632C44.5309 70.4168 44.4252 70.3054 44.2216 70.2996C44.0295 70.3112 43.9277 70.4284 43.9162 70.6493C43.9181 70.8836 44.0257 70.995 44.2408 70.9893Z" fill="#1D2088"/>
<path fill-rule="evenodd" clip-rule="evenodd" d="M29.6969 59.4771C30.1944 59.4771 30.5959 59.8805 30.5959 60.378C30.5959 60.8755 30.1925 61.277 29.6969 61.277C29.1993 61.277 28.7979 60.8736 28.7979 60.378C28.7959 59.8805 29.1993 59.4771 29.6969 59.4771Z" fill="white"/>
<path fill-rule="evenodd" clip-rule="evenodd" d="M53.9801 59.4771C54.4776 59.4771 54.881 59.8805 54.881 60.378C54.881 60.8755 54.4776 61.277 53.9801 61.277C53.4825 61.277 53.0811 60.8736 53.0811 60.378C53.0791 59.8805 53.4825 59.4771 53.9801 59.4771Z" fill="white"/>
<path d="M28.4312 65.7298L29.0074 65.6242L30.1005 64.802L30.1831 65.2534L29.432 65.7663L30.3156 65.9949L30.3848 66.3791L29.0766 66.0007L28.4984 66.1044L28.4312 65.7298Z" fill="white"/>
<path d="M28.971 67.4874L28.8403 67.1397L30.7632 67.1128L30.9265 67.5412L29.4608 68.7764L29.3225 68.4114L29.6299 68.1482L29.3782 67.4816L28.971 67.4874ZM29.6932 67.4643L29.8777 67.9484L30.5135 67.447L30.5097 67.4374L29.6932 67.4643Z" fill="white"/>
<path d="M30.5558 70.9989L30.3003 70.5053L31.3146 69.1875L31.3012 69.1836L29.9738 69.8713L29.8066 69.5486L31.4126 68.7188L31.6777 69.2316L30.7249 70.4937L30.7383 70.4976L31.9965 69.8483L32.1618 70.1691L30.5558 70.9989Z" fill="white"/>
<path d="M32.9264 71.3986L32.5556 70.8242L31.0361 71.8039L31.4069 72.3783C31.6777 72.7625 31.9409 72.8816 32.1983 72.7413C32.4039 72.6011 32.4615 72.4052 32.375 72.1497L32.3827 72.1439C32.5556 72.2803 32.7247 72.2995 32.886 72.2035C33.1396 72.0171 33.153 71.7482 32.9264 71.3986ZM32.0331 72.3572C31.8948 72.4551 31.7719 72.409 31.6662 72.2208L31.5029 71.9653L31.9044 71.7059L32.0696 71.9614C32.1964 72.1362 32.1849 72.2669 32.0331 72.3572ZM32.6344 71.9C32.5191 71.9749 32.4154 71.9403 32.3251 71.7982L32.1618 71.5427L32.5153 71.316L32.6786 71.5715C32.7688 71.7136 32.7554 71.8231 32.6344 71.9Z" fill="white"/>
<path d="M34.0652 72.3059L32.8501 73.6443L33.1402 73.9077L34.3553 72.5693L34.0652 72.3059Z" fill="white"/>
<path d="M34.2479 74.7525L33.9194 74.5796L35.3371 73.281L35.7444 73.4942L35.4716 75.3902L35.1258 75.2097L35.1815 74.8082L34.5495 74.4778L34.2479 74.7525ZM34.7723 74.253L35.2315 74.4931L35.3717 73.6959L35.3621 73.6921L34.7723 74.253Z" fill="white"/>
<path d="M37.5785 76.3546L37.0695 76.1298L37.033 74.4682L37.0195 74.474L36.4163 75.8417L36.0859 75.6957L36.814 74.0417L37.3423 74.2742L37.3922 75.8551L37.4056 75.8494L37.9781 74.5527L38.3085 74.6987L37.5785 76.3546Z" fill="white"/>
<path d="M41.3362 75.3941L41.7262 75.4306L41.6167 76.5582C41.5533 77.0039 41.2728 77.2094 40.7715 77.1748C40.2605 77.1134 40.0204 76.8579 40.0492 76.4084L40.1568 75.2808L40.5467 75.3192L40.4526 76.3008C40.3892 76.6946 40.5025 76.8982 40.7964 76.9136C41.0808 76.9539 41.2287 76.7753 41.2402 76.3776L41.3362 75.3941Z" fill="white"/>
<path d="M43.8238 77.3075L43.2686 77.2729L42.6578 75.7284L42.6463 75.7361L42.556 77.2287L42.1948 77.2076L42.3043 75.4019L42.8806 75.4384L43.4761 76.9041L43.4857 76.8945L43.5722 75.4806L43.9333 75.5017L43.8238 77.3075Z" fill="white"/>
<path d="M45.1761 75.2109L44.7861 75.2502L44.9674 77.0488L45.3574 77.0095L45.1761 75.2109Z" fill="white"/>
<path d="M46.6726 76.5487L45.5796 74.962L45.9868 74.8583L46.7956 76.1242L46.8052 76.1223L46.907 74.6239L47.2758 74.5298L47.0799 76.445L46.6726 76.5487Z" fill="white"/>
<path d="M48.3381 75.7343L47.5659 74.0995L48.6609 73.5828L48.7915 73.8575L48.0481 74.2071L48.2287 74.5874L48.9164 74.2609L49.047 74.5356L48.3574 74.8602L48.5629 75.2943L49.3313 74.9313L49.46 75.2041L48.3381 75.7343Z" fill="white"/>
<path d="M49.7886 72.9429L50.071 73.329L50.3322 73.1388C50.4802 73.0312 50.5032 72.9102 50.4033 72.7719C50.3111 72.6451 50.1939 72.6393 50.0499 72.7508L49.7886 72.9429ZM50.2477 73.5749L50.6742 74.1588L50.3591 74.3894L49.2949 72.9275L49.9192 72.4722C50.2554 72.2359 50.5167 72.2398 50.7011 72.4838C50.8336 72.6778 50.8202 72.8679 50.6607 73.0581L50.6665 73.0658C50.8202 72.9774 50.9854 73.0235 51.1621 73.2003C51.1832 73.2176 51.1967 73.231 51.2044 73.2425C51.3465 73.4039 51.4579 73.5019 51.5367 73.5326L51.1967 73.7804C51.0737 73.6767 50.9585 73.5595 50.8528 73.425C50.751 73.3059 50.6588 73.2752 50.5801 73.3328L50.2477 73.5749Z" fill="white"/>
<path d="M52.08 70.9201L51.8264 71.191C51.6881 71.0719 51.5556 71.0796 51.4269 71.2179C51.3078 71.3639 51.2962 71.4888 51.3961 71.5925C51.4826 71.6732 51.6055 71.6597 51.7688 71.5541C51.7861 71.5445 51.8015 71.5349 51.8091 71.5253C51.813 71.5195 51.8264 71.5099 51.8495 71.4964C52.201 71.2467 52.4642 71.2083 52.6409 71.3812C52.9118 71.6444 52.8791 71.9652 52.5391 72.3455C52.2183 72.6874 51.9148 72.7201 51.6305 72.4435L51.8975 72.1592C52.0493 72.3013 52.1991 72.3032 52.347 72.1649C52.5026 71.9901 52.5276 71.848 52.4239 71.7404C52.3336 71.6559 52.1933 71.6808 52.0051 71.8153C51.9782 71.8345 51.9571 71.848 51.9436 71.8518C51.6055 72.0785 51.3481 72.1111 51.1714 71.9459C50.914 71.677 50.9409 71.3581 51.2521 70.9893C51.5344 70.7146 51.8091 70.6916 52.08 70.9201Z" fill="white"/>
<path d="M52.2056 69.3886L52.0103 69.7283L53.5773 70.6292L53.7726 70.2895L52.2056 69.3886Z" fill="white"/>
<path d="M52.7255 68.9589L52.4316 68.8859L52.7832 67.4644L53.079 67.5374L52.9484 68.0579L54.4102 68.4191L54.3161 68.7994L52.8543 68.4383L52.7255 68.9589Z" fill="white"/>
<path d="M54.7098 66.6134L54.1393 66.4713L52.8062 66.7767L52.9176 66.331L53.8127 66.1697L53.0981 65.5991L53.1923 65.2207L54.2315 66.1024L54.8001 66.2427L54.7098 66.6134Z" fill="white"/>
<path d="M76.1326 63.9933L75.9943 63.9031C75.7369 63.7302 75.7139 63.7206 75.3758 63.7667C75.2547 63.7801 75.0915 63.8012 74.8533 63.8204C74.0926 63.88 72.7229 63.6898 71.8585 63.5707L71.5761 63.5323C70.848 63.4343 69.8011 62.8657 69.6128 62.7197C69.7396 62.6371 70.2679 62.4393 70.8403 62.4393L70.9594 62.4412C71.6068 62.4412 72.1716 62.2914 72.1716 62.2914C72.9112 62.1703 73.1282 61.7708 73.1378 61.7535L73.1859 61.6747H73.0975C73.0591 61.6651 72.8766 61.5172 72.7325 61.3635C72.5654 61.1868 72.4059 61.1119 72.3118 61.1657C72.3003 61.1714 72.2638 61.1849 72.1504 61.1849C72.0775 61.1849 71.9852 61.1791 71.8911 61.1734L71.8239 61.1714C71.7586 61.1676 71.7144 61.1503 71.6837 61.1176C71.6299 61.0562 71.6318 60.9236 71.6414 60.793C71.6606 60.5855 72.6096 59.7672 72.8708 59.5924L72.9726 59.6712C73.013 59.7173 73.0571 59.7634 73.1417 59.7557C73.2108 59.7288 73.4106 59.5732 73.5028 59.3407C73.572 59.1621 73.5624 58.9796 73.474 58.8029C73.3722 58.5973 73.2473 58.4936 73.0975 58.4936C72.9342 58.4936 72.7844 58.6204 72.671 58.7184C72.4655 58.8893 72.0602 59.1813 71.7893 59.1813H71.7835C71.6145 59.1525 71.6625 58.4859 71.6779 58.2688C71.6798 58.2055 71.6856 58.1555 71.6856 58.1229C71.6894 57.9865 71.9065 57.8001 71.9852 57.7444C72.1966 57.6407 72.3099 57.512 72.3272 57.3679C72.3483 57.1604 72.1543 57.0029 72.1466 56.9952C72.1255 56.9799 71.6318 56.5938 71.3033 56.5938C71.2207 56.5938 71.1515 56.6168 71.1016 56.6648C70.8327 56.9126 70.6444 57.8251 70.6444 57.8558C70.6367 57.9115 70.5042 58.5435 70.4638 58.6108C70.4081 58.6991 70.412 59.0449 70.4158 59.141C70.3678 59.8075 70.4101 60.3915 70.46 60.9217C70.4984 61.3251 70.2122 61.377 70.2083 61.3789C70.1815 61.3789 70.1027 61.4096 69.9663 61.4692C69.6705 61.6267 69.5802 61.2713 69.5687 60.9601C69.5437 60.4453 69.7089 59.358 69.7492 59.2274L69.7819 59.1333C69.8242 59.0123 69.8722 58.8778 69.876 58.6895C69.8779 58.6108 69.8491 58.5378 69.7992 58.484C69.7435 58.4264 69.6647 58.3975 69.5783 58.3975C69.4918 58.3975 69.3554 58.4264 69.1979 58.5647C68.8771 58.8451 68.7523 59.2831 68.7446 59.4022L68.735 59.5386C68.71 59.8517 68.6581 60.5855 68.6389 61.1868C68.5832 61.6248 68.7196 61.9552 68.8099 62.1723C68.8464 62.2625 68.8771 62.3394 68.8771 62.3816C68.8771 62.4393 68.856 62.4431 68.8252 62.4431C68.7984 62.4431 68.7465 62.4335 68.6466 62.3912C68.5563 62.372 67.9896 61.9917 67.9378 61.9206C67.9224 61.863 67.8821 61.7151 68.0261 61.4826C68.2086 61.183 68.174 60.2897 68.1721 60.2532L68.1375 59.0584L68.1664 58.8797C68.4411 58.3418 69.5687 57.4544 69.584 57.4447C69.5879 57.4428 69.6935 57.3545 70.825 56.6571C71.8719 56.0098 72.1677 56.029 72.258 56.0597C72.2792 56.0693 72.3233 56.1462 72.3541 56.2249L72.3656 56.2518L72.3963 56.2576C72.7652 56.3095 72.9957 56.1039 73.1033 55.6602C73.1474 55.4873 73.1705 55.4316 73.2358 55.3624C73.3165 55.2683 73.3203 55.2222 73.3203 54.9532C73.3203 54.6574 73.1013 54.3923 72.4213 53.866C72.2638 53.745 72.0986 53.6835 71.9257 53.6835C71.4916 53.6835 71.1419 54.0696 70.9729 54.254L70.9076 54.3251C70.8269 54.3981 70.5311 54.7842 70.218 55.1934C69.9913 55.4911 69.7646 55.785 69.6455 55.9291C69.3535 56.2806 69.0327 56.6956 68.4199 57.5888C68.2259 57.8712 68.1126 57.9115 68.0588 57.9115L67.9704 57.8635C67.8379 57.7079 67.8071 57.2373 67.8494 56.9952C67.8897 56.7724 67.907 56.7474 67.9743 56.6629C68.0204 56.6053 68.0876 56.5208 68.1913 56.3363C68.4507 55.883 68.6562 55.2472 68.6639 55.1165C68.6697 54.9648 68.5506 54.8303 68.3642 54.7977C68.1433 54.8149 68.0012 54.74 67.8513 54.6344C67.7207 54.5402 67.6477 54.4884 67.3154 54.6593C67.0656 54.79 66.9523 54.8841 66.8313 54.9821L66.7199 55.0743C65.94 55.6755 65.8324 55.8772 65.7632 56.0136C65.6672 56.2192 65.7171 56.5611 65.721 56.5611C65.721 56.5688 65.6998 56.7148 65.8958 56.8243C66.0725 56.9261 66.255 56.8224 66.5316 56.636C66.5873 56.5822 66.6488 56.5726 66.6891 56.5726C66.764 56.5726 66.837 56.611 66.8697 56.6668L66.8582 56.8147C66.7064 57.049 66.5009 57.5523 66.4932 57.5735L66.4817 57.5984L66.497 57.6215C66.7813 58.0825 66.8543 58.8202 66.8543 59.1871C66.8543 59.4368 66.8025 60.0381 66.7717 60.3954C66.7602 60.5394 66.7487 60.6412 66.7487 60.6585C66.7487 60.7411 66.7372 60.7507 66.7007 60.7527C66.4394 60.7527 66.1167 60.282 65.9419 60.0285C65.8938 59.9574 65.8516 59.8997 65.8247 59.8632C65.6768 59.6846 65.5827 59.6596 65.3118 59.7903C65.1197 59.8825 64.5434 60.3819 64.1976 60.6797C64.0785 60.7834 63.9902 60.8602 63.9594 60.8833C63.898 60.9313 63.873 60.9947 63.8941 61.0562L64.0094 61.1465L64.0574 61.133C64.0766 61.1176 64.1996 61.0907 64.3936 61.0907C64.5376 61.0907 64.8123 61.108 65.0621 61.206C65.4271 61.3482 65.9265 62.1915 66.0187 62.3547C65.9188 62.5219 65.4981 63.2614 65.4828 63.2903C65.3483 63.4728 64.2764 64.2335 63.6367 64.6868C63.3236 64.9077 63.1603 65.023 63.1238 65.0537C63.0527 65.119 62.4553 65.3419 62.1383 65.4629C61.9712 65.5224 61.8444 65.5705 61.8195 65.5858C61.7234 65.6377 61.6696 65.7952 61.6639 65.8125L61.6523 65.8548L61.6927 65.8759C61.6927 65.8759 61.9443 66.0161 62.3343 66.2486C62.39 66.2831 62.4553 66.3004 62.5302 66.3004C62.9605 66.3004 63.5637 65.7107 63.5503 65.703C63.6233 65.703 65.0717 65.1863 65.2542 65.096C65.3637 65.0422 65.8285 64.7329 66.3203 64.4083C66.7621 64.1144 67.3154 63.7494 67.3576 63.7263C67.4441 63.7475 68.272 64.2239 68.7715 64.5178C71.2438 66.1218 72.7152 66.1429 73.6565 66.1237C73.7468 66.1218 73.8294 66.1179 73.912 66.1179C74.6323 66.1179 75.7715 65.7549 76.4208 65.5224C76.5668 65.4744 76.657 65.3419 76.8568 64.973C77.0662 64.5965 76.5264 64.2469 76.1326 63.9933Z" fill="#007739"/>
<path d="M93.8133 65.5897L93.7691 65.5954C93.7652 65.5973 93.4348 65.7664 93.0967 65.7664C92.799 65.7991 91.7232 65.8605 90.8588 65.8605C90.5995 65.8605 90.3593 65.8548 90.1538 65.8413C90.1538 65.8413 90.0193 65.8586 89.8637 65.8586C89.6467 65.8586 89.493 65.824 89.4469 65.7683L89.4238 65.678L89.4258 65.6108C89.4488 65.5512 89.5333 65.4341 89.8561 65.2919C90.2287 65.1248 90.5899 64.4217 90.5534 64.1624C90.5169 63.905 90.1384 63.5822 90.0251 63.5419C89.8157 63.4728 89.7043 63.3095 89.7043 63.0732C89.6928 62.933 89.4565 62.8561 89.3643 62.8331L89.3528 62.7447L89.4853 62.7178C89.5026 62.7082 89.9098 62.4796 90.0578 62.2472C90.0981 62.2011 90.3363 62.0916 90.4881 62.0301L90.5553 62.0032L90.0001 61.3136L89.9751 61.4173L89.9118 61.5614C89.8733 61.6133 89.566 61.888 89.493 61.9321C89.4373 61.9648 89.3047 62.0128 89.1952 62.0128H89.1914L89.1799 61.936C89.1511 61.742 89.1011 61.3366 88.5805 61.1906C88.5152 61.1561 88.3346 61.0446 88.3077 60.9217L88.3289 60.8084C88.35 60.7872 88.4595 60.7565 88.6382 60.7565C88.7419 60.7565 88.836 60.768 88.8783 60.7834L88.982 60.8429C89.1952 60.9736 89.6678 61.2252 90.0059 61.0888C90.4727 60.8967 90.4977 60.6739 90.4996 60.2935C90.5034 60.1495 90.5457 60.1303 90.5995 60.1015L90.6494 60.0842C90.6725 60.0842 90.6974 60.1015 90.7724 60.1533C91.5369 60.6893 91.5888 60.6931 91.6483 60.6854C91.9691 60.4914 92.5108 60.1821 92.5992 60.1725L92.6453 60.1687L92.6472 60.1226C92.6491 60.0938 92.6856 59.4157 92.3572 59.2447L92.2553 59.214C91.3563 58.9431 90.8338 58.7645 90.7051 58.6857L90.6609 58.6569L90.5476 58.8278C90.5169 58.874 90.3958 59.0219 90.319 58.6473C90.3094 58.6146 90.2844 58.2708 90.3824 57.6714C90.4093 57.5043 90.4477 57.2968 90.4861 57.0798C90.5879 56.4977 90.6936 55.8964 90.6936 55.7543C90.6936 55.5756 91.0989 54.7439 91.2161 54.6517C91.2257 54.6248 91.2468 54.5575 90.636 53.6835L90.6148 53.6528L90.5841 53.6604C90.5783 53.6624 90.027 53.8199 89.8003 53.8199C89.7177 53.7719 89.1318 53.0534 88.9109 52.6711L88.886 52.627L88.8399 52.6519C88.7765 52.6827 88.2155 52.9746 88.1137 53.2378C88.1137 53.2378 88.1233 53.3166 88.0503 53.4933C87.9524 53.7315 87.4395 54.8284 87.2896 54.9821L87.2704 55.032C87.2455 55.1511 87.2262 55.2837 87.28 55.3528L87.3703 55.3989C87.5144 55.3989 87.9408 55.1895 88.0734 54.8034C88.1829 54.4865 88.2712 54.2771 88.4941 54.2771C88.5517 54.2771 88.6189 54.2905 88.6881 54.3174C88.8091 54.375 89.1415 54.5575 89.2144 54.7054C89.2894 54.8418 89.4815 54.934 89.5852 54.9705C89.5449 55.0262 89.5045 55.0935 89.5045 55.1319C89.5045 55.1511 89.493 55.2817 89.4738 55.4642C89.4315 55.9157 89.3662 56.5976 89.3662 56.7378C89.3662 57.0356 89.3316 57.3967 89.2778 57.4678C89.2068 57.5562 88.5421 58.0729 88.4595 57.779C88.4537 57.7291 88.4441 57.6676 88.8475 57.4198C88.9839 57.3353 89.0665 57.2354 89.0896 57.122C89.1338 56.9395 89.0224 56.7666 88.959 56.6629L88.9186 56.5976L88.9071 56.5669L88.8725 56.563C88.6478 56.5477 88.3942 56.5265 88.3692 56.5227V56.2307C88.4153 56.1673 88.9167 55.908 89.0127 55.9003C89.0723 55.8945 89.1299 55.8619 89.1722 55.8081C89.2279 55.7351 89.2529 55.6333 89.2394 55.5276C89.2317 55.445 89.1107 54.6766 88.5171 54.7804L88.473 54.788L88.471 54.8322C88.471 54.8361 88.4576 55.1626 88.2636 55.1626C88.0465 55.1626 87.8659 55.3893 87.7295 55.835C87.645 56.1097 87.5048 56.2499 87.4587 56.296C87.3703 56.3844 87.2762 56.7993 87.2762 57.3353V57.4832C87.2762 58.0326 87.2762 58.5531 87.3799 58.7299C87.4779 58.8951 87.5202 58.9258 87.5778 58.97C87.5893 58.9854 87.6143 59.066 87.597 59.164C87.5835 59.2332 87.5451 59.3311 87.4318 59.3945C87.2954 59.4714 87.1667 59.5175 87.0879 59.5175L87.0284 59.5002L87.0245 59.4195C87.0822 59.139 86.8901 58.6223 86.4079 58.3956C86.333 58.3956 86.2369 58.507 86.1966 58.5647C86.1908 58.5724 86.0525 58.6838 85.9738 58.8125L85.9469 58.8567C85.847 59.018 85.6088 59.4003 85.4148 60.1552C85.3283 60.4972 85.2649 60.7046 85.2227 60.8449C85.1612 61.0466 85.1362 61.1234 85.142 61.2848C85.1478 61.329 85.1919 61.3501 85.2726 61.3501C85.4897 61.3501 86.0218 61.1849 86.4867 60.549C86.5731 60.3915 86.7383 60.161 86.8267 60.161L86.8709 60.1937C86.8824 60.2186 86.915 60.2474 86.9746 60.2474C87.0937 60.2474 87.2896 60.1476 87.3895 60.0361C87.4241 59.9996 87.5509 59.8786 87.743 59.8786C87.816 59.8786 87.889 59.8978 87.9581 59.9324C88.131 60.0188 88.3731 59.9881 88.5959 59.942C88.6958 59.9209 88.7957 59.8997 88.8975 59.894C88.982 59.8805 89.0185 59.8479 89.055 59.8171C89.0857 59.7903 89.1203 59.7576 89.2164 59.7249C89.3681 59.6731 89.7216 59.6308 89.8176 59.7307L89.858 59.8556C89.8484 60.0381 89.7811 60.0534 89.6985 60.0534C89.614 60.0534 89.5007 60.0246 89.3643 59.992L89.2548 59.9651L89.2356 59.9804C89.2298 59.9843 88.6612 60.3819 87.9216 60.3973C87.8371 60.4088 86.8286 60.5971 86.7268 60.8295C86.6634 60.9793 86.6038 61.1906 86.6922 61.3578C86.7518 61.4711 86.8728 61.5422 87.0534 61.5729C87.111 61.5729 87.1475 61.5422 87.1763 61.5134C87.2166 61.4769 87.28 61.4404 87.4356 61.4346C87.6008 61.4404 87.6181 61.5095 87.6431 61.6075L87.7007 61.7458L87.7737 61.8169C87.8506 61.8899 87.9139 61.9533 87.8813 61.9955C87.8794 62.0013 87.6719 62.4316 87.0687 62.4316L86.9554 62.4258L86.8075 62.4181C86.5846 62.4066 86.3964 62.3951 86.2408 62.3951C85.9757 62.3951 85.6933 62.4162 85.6837 62.6467C85.6722 62.9061 85.8969 63.4497 86.1044 63.4862C86.3464 63.54 86.4098 63.5304 86.8036 63.419C86.9976 63.3633 87.1667 63.3344 87.3012 63.3344H87.3261C87.3184 63.4305 87.2916 63.6303 87.2051 63.7513C87.1283 63.8569 85.9277 65.0614 84.9345 65.0614C84.6291 65.0614 84.3717 64.9442 84.1681 64.7137C84.2987 64.6349 84.5522 64.3833 84.4889 63.6322C84.4274 63.4535 84.364 63.2672 84.2968 63.077C83.9548 62.1031 83.5668 60.9985 83.7089 60.5164C83.7647 60.3377 83.8108 60.1975 83.9337 60.0995C84.12 59.9478 84.1354 59.383 84.1354 59.3772V59.3465L84.1104 59.3311C84.0912 59.3196 83.6225 59.0353 83.8761 58.4206C83.9913 58.1555 84.1719 57.8232 84.5234 57.6042C84.875 57.3814 85.0652 57.0452 85.0632 56.9069C85.0671 56.8896 85.19 56.4919 84.8961 56.1001C84.6445 55.6775 84.3602 55.1953 83.9932 55.0762C83.732 54.9917 83.5361 55.0704 83.4246 55.1319L83.3612 55.1665C83.3459 55.1722 82.979 55.3317 82.979 55.5372C82.979 55.6755 83.125 56.1923 83.1672 56.2845C83.173 56.2883 83.3382 56.3844 83.3382 56.588L83.3401 56.661C83.3478 56.905 83.3574 57.3122 82.8291 58.2208L82.2317 59.2774C82.2375 59.3042 82.3854 59.9151 82.516 60.0957C82.6447 60.2801 82.7811 60.5394 82.7907 60.6989C82.858 60.8871 83.6263 63.6264 83.634 63.6591C83.634 63.6591 83.7147 63.8896 83.611 64.0855C83.5457 64.2085 83.417 64.293 83.2249 64.341C83.2249 64.341 82.929 64.4428 82.4488 64.4428C82.2586 64.4428 82.0627 64.4294 81.8667 64.3967C81.1541 64.2834 80.4779 65.7126 80.4452 65.8759L80.6508 66.239L80.693 66.2255C80.7007 66.2236 81.6881 65.8951 81.9724 65.8951H81.9743C82.2375 65.9028 83.4573 66.4176 83.5745 66.481C83.6071 66.4983 83.6609 66.5309 83.7243 66.5655C84.0067 66.7288 84.1508 66.8056 84.2103 66.8133C84.2507 66.8191 84.6656 66.9343 85.1016 67.0592C86.1236 67.3474 86.9131 67.5644 86.9996 67.5644L87.1629 67.5663C87.4375 67.5702 88.0004 67.5759 88.6055 67.5759C89.3182 67.5759 89.8733 67.5683 90.2499 67.551C90.7282 67.5298 91.3486 67.5068 91.8884 67.4876C92.6511 67.4607 93.0525 67.4453 93.091 67.4396C93.114 67.4357 93.1889 67.4031 93.4752 67.2782C93.9035 67.0899 94.7027 66.7422 94.8563 66.7403L95.5671 66.6097L95.7957 66.3292L95.7361 66.3004C95.6843 66.2716 94.3915 65.5897 93.8133 65.5897ZM88.5402 65.24C88.4729 65.1939 88.327 65.0998 88.0715 64.9481C87.9543 64.8751 87.889 64.7963 87.8755 64.706C87.8486 64.537 88.0119 64.3564 88.1176 64.2373C88.5325 63.9223 88.7496 63.5438 88.7496 63.4516L88.8034 63.3575C88.8514 63.3575 89.176 63.4766 89.2433 63.6783C89.4469 64.3045 88.7054 65.0768 88.5402 65.24ZM87.597 65.7164C87.5221 65.6915 87.3857 65.655 87.136 65.6012L87.1091 65.5954L87.086 65.6146C87.086 65.6146 87.0399 65.6569 86.9458 65.6761C86.625 65.6761 86.2984 65.4533 86.2638 65.4283L86.2273 65.3591C86.2754 65.3111 86.3733 65.2823 86.4886 65.2823C86.6135 65.2823 86.6999 65.315 86.721 65.338C86.8152 65.436 87.063 65.386 87.1379 65.2785C87.1878 65.2035 87.282 65.1459 87.3492 65.1286C87.6104 65.2093 87.6104 65.5647 87.597 65.7164Z" fill="#007739"/>
<path d="M112.12 63.8704C111.842 63.9107 111.659 63.8569 111.373 63.7628C111.229 63.7167 110.701 63.5227 109.928 63.0098L109.631 62.8696C109.158 62.6467 108.82 62.4854 108.626 62.3009C108.288 62.2721 107.754 62.1588 107.058 61.4922C106.376 60.841 105.775 60.403 105.608 60.4203C105.464 60.2916 105.397 60.1879 105.387 60.0726L105.524 59.9919C105.67 59.9036 105.827 59.8075 105.842 59.7922L106.325 59.7998C106.328 59.7979 106.657 59.5712 106.882 59.5271C107.128 59.4752 107.354 59.2735 107.343 59.2716C107.406 59.2677 107.927 59.2466 108.03 59.2139C108.149 59.1717 108.238 58.9892 108.238 58.7779C108.238 58.5877 108.267 58.2362 108.276 58.2035L108.284 58.1747L108.265 58.1536C108.236 58.119 107.556 57.3237 107.325 57.2142C107.101 57.1066 106.968 57.0644 106.83 57.1182C106.789 57.1297 106.651 57.2008 106.476 57.2891C106.163 57.4505 105.573 57.7463 105.477 57.7463C105.281 57.7329 105.097 57.6829 105.095 57.4313C105.089 57.1182 105.272 56.8396 105.579 56.6859C105.733 56.611 105.86 56.563 105.958 56.5265C106.083 56.4804 106.173 56.4477 106.248 56.3575C106.328 55.737 106.3 55.689 106.267 55.6448C105.837 55.1876 105.159 54.8476 104.669 54.6401C104.665 54.6382 104.53 54.5786 104.392 54.5786C104.286 54.5786 104.208 54.6113 104.152 54.6766C104.079 54.7631 104.062 54.8994 104.098 55.0954C104.131 55.2126 104.167 55.2875 104.194 55.3413L104.231 55.4565C104.233 55.5353 104.233 55.6851 104.064 55.883C103.852 56.1289 103.639 57.1124 103.616 57.51C103.595 57.9 103.063 58.2554 102.886 58.3745C102.661 58.5224 101.868 58.7318 100.978 58.8086C100.435 58.8547 100.099 58.8931 100.041 58.9277L99.6914 59.3561L99.7183 59.3907C99.8624 59.5789 100.016 59.8171 100.018 59.8709C100.018 59.99 100.106 60.1956 100.433 60.1956C100.733 60.1956 100.884 60.3973 100.89 60.4069L100.906 60.4299H100.932C100.982 60.4299 101.096 60.4453 101.134 60.5029C101.224 60.5932 101.311 60.7123 101.342 60.7315C101.52 60.7834 101.695 60.8564 101.712 60.8813L101.716 60.9332C101.724 61.035 101.735 61.2002 101.597 61.3904C101.591 61.4 101.547 61.4865 101.536 61.5556C101.534 61.571 101.491 61.5998 101.43 61.6267C101.355 61.6978 99.6204 63.3748 99.4801 63.6379C99.3073 63.905 98.6925 64.5696 98.3602 64.7828C98.2661 64.8712 98.1854 64.9404 98.122 64.9941C97.9972 65.1036 97.9395 65.1517 97.9242 65.1997C97.9069 65.2496 97.6898 65.5359 97.5035 65.5685L97.3978 65.6204C97.2249 65.7049 97.004 65.8106 96.9733 65.9719C96.9579 66.043 96.979 66.116 97.0424 66.189L97.2902 66.3984L98.2642 66.4041L99.6703 64.7406C99.7183 64.7291 100.852 64.4371 101.111 64.2354C101.194 64.1528 101.351 63.9722 101.526 63.7647C101.831 63.4113 102.4 62.7543 102.527 62.7332C102.738 62.6525 102.855 62.5564 102.859 62.5507C103.107 62.3394 103.923 61.6459 103.96 61.5825L104.037 61.5729C104.175 61.5729 104.382 61.6344 104.509 61.7708C104.567 61.8341 104.663 61.9552 104.782 62.1069C105.074 62.4796 105.512 63.0386 105.883 63.3363C106.138 63.5438 106.666 63.9952 107.139 64.4025C107.761 64.9346 108.038 65.1709 108.086 65.1939C108.176 65.2304 108.943 65.3399 109.767 65.3399C110.251 65.3399 110.654 65.2996 110.969 65.2247C111.99 64.9788 112.587 64.1278 112.614 64.0932L112.639 64.0586L112.61 64.026C112.598 64.0106 112.431 63.8281 112.12 63.8704Z" fill="#007739"/>
<path d="M126.894 60.7738C126.687 60.3378 125.794 59.4234 125.569 59.3696C125.569 59.3696 125.3 59.3388 125.119 59.2927C124.96 59.2562 123.615 58.9585 123.552 58.9739C123.552 58.9739 123.461 58.9124 123.448 58.8163C123.438 58.7491 123.463 58.678 123.525 58.6031C123.665 58.4341 123.886 58.1344 124.044 57.9231C124.138 57.7963 124.209 57.7022 124.22 57.6868C124.247 57.6638 124.261 57.6157 124.316 57.2911C124.364 57.0222 124.435 56.6168 124.505 56.5285C124.624 56.3056 125.211 55.4815 125.284 55.4297L125.317 55.4143L125.313 55.3778C125.313 55.349 125.267 54.6613 125.085 54.4519L125.023 54.4327C124.927 54.4327 124.432 54.4154 124.155 54.1157C123.911 53.8506 123.659 53.72 123.385 53.72C123.262 53.72 122.683 53.7911 122.09 54.1292C121.911 54.2118 121.698 54.2752 121.577 54.2752L121.565 54.2195C121.562 54.1714 121.556 54.108 121.502 54.0485C121.174 53.6739 121.078 53.6739 121.045 53.6739C120.987 53.6739 120.864 53.5971 120.795 53.5471C120.791 53.5452 120.69 53.4876 120.582 53.4876C120.465 53.4876 120.376 53.5567 120.338 53.6854C120.257 53.9563 120.161 54.0197 120.15 54.0254C120.082 54.0677 120.025 54.5211 120.025 54.594C120.025 54.6498 119.919 54.8399 119.837 54.9917C119.737 55.1723 119.633 55.3567 119.593 55.4892C119.577 55.5449 119.539 55.616 119.391 55.616C119.276 55.616 119.12 55.5737 118.928 55.4892C118.828 55.4489 118.774 55.4047 118.769 55.3624C118.757 55.3067 118.824 55.2337 118.888 55.1665C119.032 55.0224 119.694 54.3386 119.694 54.3386L119.723 54.3097L119.702 54.2752C119.698 54.2713 119.666 54.2118 119.691 54.0984C119.725 53.9505 119.664 53.3108 118.726 53.0726C118.565 53.0438 118.486 53.1207 118.486 53.1956C118.486 53.2628 118.354 53.8218 118.192 54.0197C118.113 54.1484 118.052 54.2425 118.012 54.3021C117.958 54.3847 117.944 54.4039 117.943 54.4212L117.906 54.5134C117.733 54.9725 117.556 55.4546 117.556 55.5757C117.556 55.666 117.627 55.8926 117.702 56.1327C117.766 56.3344 117.831 56.5438 117.839 56.6245C117.854 56.8089 117.822 57.9673 117.779 58.2266C117.747 58.4149 117.852 58.7702 117.939 59.0584C117.975 59.1852 118.01 59.3043 118.012 59.3427L118.017 59.3946C118.025 59.4599 118.027 59.4887 117.681 59.6462C117.601 59.7019 117.453 59.7461 117.216 59.6135L117.241 59.5828C117.243 59.5713 117.286 59.2908 117.107 58.8413C117.084 58.7088 117.034 57.9096 117.151 57.6522C117.188 57.5504 117.128 57.3699 117.072 57.22L117.028 57.1163C116.994 57.0375 116.932 56.8992 116.932 56.8512C116.932 56.7551 116.757 56.3498 116.492 56.3498L116.442 56.3556C116.335 56.3806 116.143 56.5438 116.089 56.6149C116.037 56.686 115.96 56.7551 115.939 56.7628C115.87 56.7916 115.73 57.0318 115.73 57.2411C115.73 57.4544 115.735 58.461 115.749 58.6607C115.76 58.751 115.845 59.0891 115.933 59.4464C116.014 59.7672 116.112 60.1687 116.116 60.2052C116.098 60.2782 115.73 60.8718 115.474 60.8718C115.29 60.8718 115.149 60.8545 115.067 60.7623C115 60.6912 114.977 60.574 114.99 60.4069C115.002 60.2609 114.961 60.1284 114.879 60.0362C114.811 59.9612 114.721 59.9247 114.623 59.9247C114.514 59.9247 114.233 59.9805 114.006 60.503C113.939 60.7104 113.949 60.8929 113.949 60.8987C113.949 60.9044 113.949 61.6094 113.924 61.8188C113.866 61.9763 113.841 62.009 113.834 62.0359C113.83 62.0551 113.787 62.4585 113.957 62.6948C114.081 62.7294 114.717 62.908 114.813 62.908L114.856 62.8926C114.871 62.8811 116.461 61.5614 116.646 61.4423C116.709 61.402 116.765 61.3616 116.819 61.3232C116.924 61.2502 117.015 61.1868 117.132 61.1311C117.32 61.037 117.808 60.5452 117.821 60.5356C117.864 60.5356 118.029 60.5567 118.488 60.843L118.546 60.8583C118.626 60.8583 118.784 60.7642 118.784 60.6605C118.78 60.6163 118.77 60.526 119.047 60.3378C119.37 60.1188 119.669 59.9689 119.666 59.9632H119.737C119.877 59.9632 120.169 59.9766 120.568 60.0631C120.713 60.0938 120.841 60.1111 120.951 60.1111C121.183 60.1111 121.283 60.0342 121.36 59.9766L121.421 59.919C121.481 59.8517 121.556 59.7691 121.761 59.7691C121.967 59.7595 122.08 59.7461 122.134 59.7365C122.307 60.1706 122.374 60.1783 122.403 60.1783L122.432 60.1802L122.451 60.1591C122.453 60.1553 122.643 59.9228 122.995 59.8402C123.129 59.7884 123.269 59.7326 123.337 59.7307C123.385 59.7307 123.483 59.7269 123.613 59.7269C124.245 59.7269 124.672 59.8172 124.781 59.9747L124.812 60.0227C124.906 60.1572 124.939 60.2033 124.846 60.3128C124.735 60.4492 124.656 60.4722 124.649 60.4741C124.641 60.478 123.794 60.8718 123.54 60.9006C123.465 60.9179 123.308 60.9966 123.31 61.1177C123.312 61.2272 123.435 61.304 123.686 61.3597C124.249 61.4826 125.953 61.6498 126.141 61.6498C126.272 61.6498 126.689 61.475 126.864 61.2003C126.95 61.06 126.961 60.9121 126.894 60.7738ZM120.2 57.5235L119.85 57.8155C119.787 57.7944 119.623 57.7329 119.627 57.61C119.631 57.4947 119.664 57.4121 119.714 57.3852L119.742 57.3718L119.744 57.3391C119.746 57.2431 119.767 56.9761 119.852 56.8762C119.896 56.8205 119.969 56.7513 120.044 56.7513L120.167 56.8032L120.182 56.8973C120.2 57.001 120.219 57.1163 120.323 57.1432C120.334 57.1816 120.351 57.3045 120.2 57.5235ZM121.938 59.1064C121.909 59.1179 121.857 59.1256 121.759 59.0834C121.579 58.9988 121.308 59.1103 121.126 59.1813L121.068 59.2044C121.012 59.214 120.968 59.1909 120.941 59.1679C121.644 58.534 121.879 58.5609 121.946 58.605C122.013 58.6492 121.994 58.753 122.023 58.753C121.973 58.7798 121.93 58.8548 121.917 58.9393C121.909 58.9988 121.925 59.0622 121.938 59.1064ZM122.172 56.6802L122.194 56.5323C122.209 56.4017 122.244 56.3479 122.292 56.2595C122.317 56.2211 122.343 56.175 122.376 56.102C122.537 55.2491 121.719 54.9821 121.71 54.9782L121.64 54.9552V55.0282L121.592 55.1223C121.565 55.1646 121.533 55.2184 121.496 55.2875C121.412 55.4527 121.329 55.7121 121.316 55.86C121.322 56.1846 121.663 56.6284 121.723 56.6821C121.733 56.6994 121.758 56.7955 121.694 57.3583L121.546 57.7022C121.346 58.1939 121.081 58.3419 120.87 58.461L120.776 58.5148C120.649 58.5916 120.634 58.5801 120.62 58.5071C120.599 58.4418 120.814 58.1267 120.907 57.9942C120.968 57.9058 121.02 57.827 121.043 57.7809L121.091 57.6983C121.145 57.6119 121.187 57.5427 121.191 57.3007C121.199 57.0202 120.812 56.6111 120.647 56.4363L120.597 56.3825L120.482 56.2576C120.405 56.1808 120.269 56.0386 120.257 56.0136C120.265 55.9618 120.444 55.7044 120.519 55.593L120.592 55.4815C120.638 55.4085 120.722 55.2722 120.67 55.0628L120.676 55.0071C120.711 54.9648 120.826 54.9417 121.024 54.9417C121.076 54.9417 121.131 54.9417 121.187 54.9437H121.239C121.539 54.9437 121.617 54.838 121.688 54.7439L121.75 54.7266C121.775 54.7439 122.015 54.9149 122.14 54.9437L122.251 54.9494C122.39 54.9552 122.578 54.9667 122.682 54.9878C123.077 55.13 123.169 55.4508 123.16 55.4911C123.135 55.5411 123.062 55.7793 122.975 56.0598L122.931 56.2C122.901 56.3018 122.858 56.4997 122.81 56.7801C122.787 56.9069 122.57 57.2546 122.514 57.27C122.294 57.27 122.194 57.147 122.151 57.0721C122.123 57.026 122.151 56.8166 122.172 56.6802ZM119.114 56.8397C119.122 57.0126 119.097 57.0414 119.093 57.0433C119.057 57.0875 119.009 57.22 118.982 57.3026L118.838 57.1662C118.838 57.1105 118.815 56.9761 118.795 56.8473C118.782 56.7571 118.763 56.6418 118.765 56.6207C118.769 56.5765 118.801 56.4305 118.993 56.4247C119.087 56.4247 119.145 56.4708 119.176 56.5112L119.218 56.6034L119.114 56.8397ZM118.865 58.7952C118.922 58.6146 118.991 58.4763 119.045 58.4245C119.122 58.4245 119.393 58.6934 119.399 58.8259C119.402 58.9623 119.293 59.0834 119.195 59.1948C119.143 59.2524 119.126 59.3139 119.122 59.3619C119.037 59.3408 118.901 59.2966 118.792 59.2639L118.784 59.0008L118.865 58.7952Z" fill="#007739"/>
<path d="M124.712 62.9695C124.624 62.9695 124.535 62.9771 124.472 62.981C124.341 62.9906 123.736 62.9752 123.732 62.9752H123.542C122.612 62.9752 122.232 62.8965 122.176 62.8696C122.103 62.8235 121.834 62.2549 121.819 62.1876C121.84 62.1588 122.002 62.0993 122.171 62.0339C122.27 61.9974 122.386 61.9513 122.522 61.8995C123.023 61.7016 123.139 61.0043 123.143 60.9755L123.152 60.9159L123.091 60.9121C123.073 60.9102 122.993 60.8756 122.912 60.8429C122.803 60.7968 122.655 60.7315 122.478 60.6701C122.299 60.5759 122.021 60.5452 121.836 60.5452C121.723 60.5452 121.646 60.5548 121.613 60.5759L121.569 60.6047C121.483 60.6624 121.345 60.7546 121.152 60.8333C120.232 61.1637 119.134 61.2118 118.705 61.2175C118.413 61.2233 117.962 61.5114 117.722 61.6651L117.649 61.7112C117.478 61.8015 117.151 62.1281 117.074 62.2856C116.972 62.495 117.166 62.5968 117.351 62.6948L117.464 62.7197C117.793 62.7197 118.519 62.2894 118.517 62.2798C119.03 62.324 119.258 62.2952 119.449 62.2683L119.522 62.2587C119.752 62.2318 120.225 61.9148 120.338 61.8246C120.417 61.7631 120.557 61.8841 120.593 61.9302C120.593 62.0167 120.465 62.1723 120.38 62.2741L120.303 62.3701C120.209 62.5007 120.278 62.7389 120.286 62.7658L120.3 62.8043L120.597 62.8023C120.872 62.81 120.914 62.8638 120.912 63.0348C120.912 63.1327 120.866 63.1443 120.826 63.1443C120.787 63.1443 120.736 63.1308 120.67 63.1039L120.603 63.0751C120.515 63.0309 120.421 62.9867 120.138 62.9848C119.789 62.9848 118.651 63.2941 118.609 63.3075C118.135 63.3921 117.422 63.4785 116.953 63.5246C116.387 63.5803 116.143 63.6283 116.048 63.7052C115.933 63.7974 115.908 64.1701 115.966 64.4256C116.07 64.6695 116.598 64.9788 116.767 65.0575C116.992 65.1997 117.316 65.0768 117.718 64.9039C117.933 64.8097 118.177 64.706 118.45 64.6273C119.093 64.4428 120.146 64.4332 120.649 64.4275C120.749 64.4275 120.826 64.4275 120.878 64.4236L120.951 64.462C121.024 64.5831 120.926 64.9173 120.887 64.9903C120.874 65.0172 120.851 65.0844 120.824 65.1786C120.747 65.4187 120.622 65.8183 120.417 66.1583C120.303 66.3427 120.125 66.4368 119.887 66.4368C119.693 66.4368 119.539 66.3773 119.523 66.3677C119.466 66.3312 118.569 65.9796 118.213 65.9105C117.848 65.8413 117.18 66.214 117.155 66.2293L117.097 66.2601L117.681 66.942L117.82 66.9497C117.82 66.9497 119.37 67.4396 119.827 67.5721C120.073 67.6432 120.444 67.7411 120.795 67.7411C121.006 67.7411 121.197 67.7046 121.352 67.6374C121.777 67.453 121.896 66.6385 121.952 66.2486L121.963 66.1525C122.053 65.9124 122.259 64.8078 122.303 64.5658H122.355C122.906 64.5658 123.705 64.4428 123.934 64.3794C125.035 64.2354 125.09 63.3287 125.09 63.1481C125.089 62.9695 124.806 62.9695 124.712 62.9695Z" fill="#007739"/>
<path d="M64.797 72.3015V73.7038H63.8999V72.2919L62.4169 69.9599H63.4753L64.3648 71.5889L65.2138 69.9599H66.23L64.797 72.3015Z" fill="#007739"/>
<path d="M67.6765 72.9316L67.3788 73.7038H66.4337L67.9704 69.9599H69.0097L70.51 73.7038H69.536L69.2613 72.9316H67.6765ZM67.9167 72.2842H69.0097L68.4795 70.807L67.9167 72.2842Z" fill="#007739"/>
<path d="M73.7006 69.9599H74.5382V73.7038H73.6411L71.8892 71.0299L71.8796 73.7038H71.042V69.9599H71.9871L73.6891 72.5685L73.7006 69.9599Z" fill="#007739"/>
<path d="M75.3988 69.9599H77.485C77.9537 69.9599 78.3053 70.0713 78.5377 70.2941C78.7163 70.467 78.8066 70.6764 78.8066 70.9184C78.8066 71.1509 78.7413 71.3353 78.6145 71.4717C78.5415 71.5485 78.432 71.6177 78.2803 71.6849C78.5242 71.7656 78.6971 71.8904 78.8066 72.0614C78.8969 72.2074 78.9449 72.3841 78.9449 72.5935C78.9449 72.7434 78.9123 72.8836 78.8489 73.0161C78.7855 73.1487 78.6933 73.2659 78.5742 73.3677C78.434 73.4848 78.288 73.5694 78.1381 73.6116C77.9249 73.675 77.6195 73.7058 77.218 73.7058H75.3988V69.9599ZM76.2594 71.4217H77.3102C77.5004 71.4217 77.6502 71.391 77.7578 71.3276C77.8826 71.2546 77.9441 71.147 77.9441 71.0049C77.9441 70.8589 77.8884 70.7571 77.777 70.6975C77.6656 70.636 77.5004 70.6053 77.2871 70.6053H76.2594V71.4217ZM76.2594 72.0537V73.0565H77.3582C77.581 73.0565 77.752 73.0123 77.8692 72.922C77.9864 72.8336 78.0459 72.6953 78.0459 72.5071C78.0459 72.3534 77.9845 72.2401 77.8596 72.1651C77.7366 72.0902 77.583 72.0537 77.4005 72.0537H76.2594Z" fill="#007739"/>
<path d="M80.5393 69.9599H79.6422V73.7038H80.5393V69.9599Z" fill="#007739"/>
<path d="M82.2855 72.9316L81.9877 73.7038H81.0426L82.5794 69.9599H83.6186L85.1189 73.7038H84.145L83.8703 72.9316H82.2855ZM82.5237 72.2842H83.6167L83.0846 70.807L82.5237 72.2842Z" fill="#007739"/>
<path d="M88.3097 69.9599H89.1472V73.7038H88.2501L86.4982 71.0299L86.4867 73.7038H85.6511V69.9599H86.5962L88.2982 72.5685L88.3097 69.9599Z" fill="#007739"/>
<path d="M95.1061 69.9599V72.3957C95.1061 72.8759 94.9486 73.2332 94.6335 73.4695C94.3338 73.6923 93.9055 73.8037 93.3426 73.8037C93.091 73.8037 92.8662 73.7768 92.6626 73.7211C92.3821 73.6443 92.1555 73.5194 91.9807 73.3504C91.7559 73.1333 91.6464 72.8298 91.6464 72.4437V69.9618H92.5608V72.3918C92.5608 72.6377 92.6319 72.824 92.7759 72.9508C92.92 73.0776 93.1006 73.141 93.3253 73.141C93.6231 73.141 93.8421 73.0814 93.9823 72.9585C94.1225 72.8375 94.1917 72.6608 94.1917 72.4264V69.9618H95.1061V69.9599Z" fill="#007739"/>
<path d="M98.6022 69.9599H99.4398V73.7038H98.5427L96.7907 71.0299L96.7792 73.7038H95.9417V69.9599H96.8868L98.5888 72.5685L98.6022 69.9599Z" fill="#007739"/>
<path d="M101.124 69.9599H100.227V73.7038H101.124V69.9599Z" fill="#007739"/>
<path d="M104.448 69.9599H105.381L103.921 73.7038H103.067L101.62 69.9599H102.582L103.503 72.7952L104.448 69.9599Z" fill="#007739"/>
<path d="M109.104 69.9599V70.6245H106.828V71.4064H108.918V72.0691H106.828V73.0411H109.206V73.7038H105.948V69.9599H109.104Z" fill="#007739"/>
<path d="M109.936 69.9599H112.105C112.497 69.9599 112.804 70.0406 113.033 70.2038C113.315 70.4055 113.457 70.6764 113.457 71.0164C113.457 71.2258 113.398 71.4102 113.28 71.5716C113.161 71.731 113 71.8443 112.792 71.9077C112.994 71.9884 113.131 72.0749 113.2 72.169C113.29 72.3015 113.338 72.532 113.338 72.8586C113.338 73.1544 113.346 73.3465 113.365 73.433C113.382 73.5214 113.436 73.5771 113.528 73.6059V73.7058H112.535C112.504 73.604 112.479 73.5021 112.464 73.3965C112.447 73.2928 112.441 73.1429 112.441 72.947C112.441 72.6608 112.408 72.4783 112.345 72.3995C112.256 72.2919 112.057 72.2381 111.742 72.2381H110.816V73.7058H109.936V69.9599ZM110.814 71.6042H111.867C112.105 71.6042 112.281 71.5658 112.393 71.487C112.504 71.4083 112.56 71.2777 112.56 71.0952C112.56 70.9684 112.522 70.8608 112.447 70.7782C112.339 70.6629 112.168 70.6053 111.934 70.6053H110.816V71.6042H110.814Z" fill="#007739"/>
<path d="M114.03 72.5493H114.89C114.89 72.703 114.942 72.8298 115.046 72.9316C115.201 73.0814 115.453 73.1564 115.799 73.1564C116.054 73.1564 116.258 73.1237 116.41 73.0622C116.6 72.9835 116.696 72.8528 116.696 72.6723C116.696 72.5359 116.625 72.4341 116.481 72.3649C116.385 72.3188 116.198 72.267 115.92 72.2074L115.459 72.1133C115 72.0191 114.687 71.9212 114.519 71.8213C114.237 71.6503 114.095 71.3814 114.095 71.0126C114.095 70.7263 114.195 70.4824 114.395 70.2845C114.677 70.0041 115.128 69.8619 115.745 69.8619C116.331 69.8619 116.773 70.006 117.072 70.2941C117.303 70.5169 117.42 70.7744 117.42 71.0683H116.559C116.54 70.9184 116.488 70.807 116.41 70.7283C116.266 70.5823 116.024 70.5112 115.68 70.5112C115.476 70.5112 115.309 70.5419 115.178 70.6053C115.015 70.6841 114.932 70.8032 114.932 70.9588C114.932 71.0875 114.984 71.1854 115.088 71.2488C115.148 71.2892 115.247 71.3199 115.388 71.3487L116.435 71.5735C116.788 71.6503 117.049 71.7483 117.218 71.8712C117.445 72.0345 117.558 72.2708 117.558 72.5801C117.558 72.9585 117.414 73.2524 117.128 73.4618C116.811 73.6923 116.392 73.8057 115.866 73.8057C115.171 73.8057 114.667 73.6558 114.36 73.3561C114.139 73.141 114.03 72.874 114.03 72.5493Z" fill="#007739"/>
<path d="M119.062 69.9599H118.165V73.7038H119.062V69.9599Z" fill="#007739"/>
<path d="M121.721 70.6245V73.7038H120.826V70.6245H119.529V69.9599H123.02V70.6245H121.721Z" fill="#007739"/>
<path d="M125.565 72.3015V73.7038H124.67V72.2919L123.187 69.9599H124.245L125.135 71.5889L125.982 69.9599H127L125.565 72.3015Z" fill="#007739"/>
</g>
<defs>
<filter id="filter0_d_185_158" x="0" y="0" width="154" height="157" filterUnits="userSpaceOnUse" color-interpolation-filters="sRGB">
<feFlood flood-opacity="0" result="BackgroundImageFix"/>
<feColorMatrix in="SourceAlpha" type="matrix" values="0 0 0 0 0 0 0 0 0 0 0 0 0 0 0 0 0 0 127 0" result="hardAlpha"/>
<feOffset dy="16"/>
<feGaussianBlur stdDeviation="6.5"/>
<feColorMatrix type="matrix" values="0 0 0 0 0 0 0 0 0 0 0 0 0 0 0 0 0 0 0.03 0"/>
<feBlend mode="normal" in2="BackgroundImageFix" result="effect1_dropShadow_185_158"/>
<feBlend mode="normal" in="SourceGraphic" in2="effect1_dropShadow_185_158" result="shape"/>
</filter>
</defs>
</svg>
