<svg width="154" height="157" viewBox="0 0 154 157" fill="none" xmlns="http://www.w3.org/2000/svg">
<g filter="url(#filter0_d_185_139)">
<rect width="128" height="128" transform="translate(13)" fill="white"/>
<path d="M54.5439 63.7837C54.6861 71.2105 48.3865 77.8113 40.3195 77.5696C33.2461 77.357 26.8251 71.4425 27.0036 63.4059C27.164 56.188 33.1902 49.9649 40.8807 50.0001C48.3634 50.0354 54.663 56.256 54.5439 63.7837ZM40.7799 77.1153C48.2189 76.9963 53.9402 71.2725 54.086 64.0946C54.2427 56.3726 48.2116 50.6051 41.0605 50.4812C33.4053 50.3476 27.4835 56.3568 27.4774 63.763C27.4713 71.2044 33.3336 76.995 40.7799 77.1153Z" fill="#89030A"/>
<path d="M30.4037 68.7325L31.0135 67.9526L31.1847 68.2964L30.7778 68.7713L31.4034 68.7361L31.5722 69.075L30.5762 69.0811L29.9433 69.9022L29.772 69.5573L30.1996 69.0483L29.5339 69.0787L29.3687 68.7483L30.4037 68.7325Z" fill="#89030A"/>
<path d="M31.7472 69.3325L31.9306 69.6192L30.3904 70.6019L30.2069 70.3152L31.7472 69.3325Z" fill="#89030A"/>
<path d="M32.1712 69.9933L32.391 70.2654L31.695 71.4389L32.6838 70.6286L32.8854 70.8776L31.4642 72.0244L31.2456 71.7535L31.9416 70.5776L30.9516 71.3891L30.7499 71.14L32.1712 69.9933Z" fill="#89030A"/>
<path d="M32.5076 72.2661L32.3594 72.4228C32.2926 72.4932 32.289 72.554 32.3473 72.6086C32.425 72.6815 32.4785 72.6354 32.589 72.5188L33.5353 71.5166L33.777 71.745L32.8951 72.6791C32.7785 72.803 32.6935 72.8929 32.6169 72.9245C32.4675 72.984 32.3218 72.9427 32.1663 72.7969C31.961 72.6038 31.9549 72.3973 32.1541 72.1871L32.2829 72.0511L32.5076 72.2661Z" fill="#89030A"/>
<path d="M34.088 72.0049L34.3552 72.2151L33.2243 73.6497L32.9571 73.4395L34.088 72.0049Z" fill="#89030A"/>
<path d="M34.9323 72.6268L35.3185 72.871L34.6942 74.6372L34.3844 74.4417L34.5533 74.0056L34.2229 73.7966L33.9034 74.138L33.6094 73.9521L34.9323 72.6268ZM34.6589 73.7468L34.9444 73.0216L34.4148 73.5926L34.6589 73.7468Z" fill="#89030A"/>
<path d="M36.0255 73.2731L36.3462 73.4128L36.2733 74.7745L36.7737 73.5986L37.0677 73.7262L36.3389 75.4013L36.0206 75.2628L36.0923 73.8975L35.5906 75.0757L35.2966 74.9482L36.0255 73.2731Z" fill="#89030A"/>
<path d="M38.0249 75.6965C37.9119 75.8507 37.7844 75.8884 37.5827 75.8362C37.1758 75.7317 37.1576 75.4013 37.3325 74.7259C37.4151 74.404 37.5001 74.1926 37.6143 74.0906C37.7455 73.9716 37.9119 73.9461 38.133 74.0032C38.512 74.1003 38.6432 74.3202 38.546 74.6992L38.5339 74.7441L38.2253 74.6652L38.2302 74.647C38.2849 74.4356 38.2326 74.3068 38.0771 74.2667C37.8305 74.2036 37.7735 74.4137 37.6496 74.896C37.5366 75.3357 37.5232 75.5337 37.72 75.5835C37.901 75.6297 37.9933 75.5264 38.0638 75.2531L38.0796 75.1924L37.8512 75.1341L37.9241 74.8522L38.4695 74.9932L38.2205 75.9576L37.997 75.9006L38.0249 75.6965Z" fill="#89030A"/>
<path d="M40.1702 74.3639L40.1264 75.5944C40.1179 75.8471 40.1556 75.9576 40.3487 75.9649C40.5406 75.9722 40.5832 75.8617 40.5917 75.6066L40.6342 74.3809L40.9694 74.3931L40.9257 75.6527C40.9196 75.8277 40.9099 75.9588 40.8212 76.067C40.7192 76.1896 40.5577 76.2492 40.3341 76.2419C39.8993 76.2261 39.7693 76.0451 39.7851 75.6126L39.8288 74.353L40.1702 74.3639Z" fill="#89030A"/>
<path d="M41.5027 74.3688L41.8501 74.3262L42.4781 75.5373L42.3129 74.2704L42.6312 74.2315L42.8523 76.0451L42.5073 76.0876L41.8768 74.8753L42.0421 76.1447L41.7238 76.1836L41.5027 74.3688Z" fill="#89030A"/>
<path d="M43.0673 74.1307L43.3977 74.0517L43.8204 75.8289L43.49 75.9078L43.0673 74.1307Z" fill="#89030A"/>
<path d="M43.7001 73.9886L44.0439 73.8671L44.7849 75.1511L44.531 73.6946L44.8699 73.5756L45.1153 75.4256L44.6938 75.5738L43.7001 73.9886Z" fill="#89030A"/>
<path d="M45.2356 73.4055L46.0689 72.9743L46.2086 73.2439L45.6753 73.5197L45.8697 73.895L46.3653 73.6387L46.4977 73.895L46.0021 74.1513L46.2329 74.5984L46.7783 74.3165L46.9204 74.5911L46.0749 75.0284L45.2356 73.4055Z" fill="#89030A"/>
<path d="M46.4636 72.7374L46.9605 72.3839C47.2593 72.1713 47.4646 72.1956 47.6614 72.4726C47.7998 72.667 47.8059 72.8322 47.6844 72.9488C47.9262 72.8577 47.9991 72.967 48.1412 73.1541L48.2894 73.346C48.3623 73.4407 48.4279 73.4978 48.5226 73.5136L48.1934 73.7481C48.129 73.6983 48.0707 73.6266 48.0027 73.5343L47.8873 73.3812L47.8594 73.3411C47.7209 73.1468 47.6176 73.1735 47.4196 73.3144L47.3249 73.3824L47.7901 74.0359L47.5229 74.2267L46.4636 72.7374ZM47.3395 73.063C47.4998 72.9488 47.5144 72.8552 47.3953 72.6888C47.2824 72.5309 47.184 72.5382 47.0151 72.6584L46.8791 72.7556L47.1791 73.1771L47.3395 73.063Z" fill="#89030A"/>
<path d="M48.7923 72.4143L48.8737 72.4981C49.0097 72.6402 49.0984 72.6864 49.2102 72.5783C49.3146 72.4774 49.3171 72.3705 49.2199 72.2697C49.1288 72.175 49.0377 72.1786 48.8676 72.2041L48.6562 72.2357C48.3756 72.2807 48.2275 72.2916 48.0489 72.1057C47.8363 71.8859 47.8485 71.6174 48.078 71.3963C48.321 71.1619 48.587 71.1692 48.8287 71.4194C48.8433 71.4352 48.8591 71.451 48.8725 71.468L48.6392 71.6915L48.6052 71.6563C48.4704 71.5166 48.3708 71.4972 48.2627 71.6016C48.1837 71.6769 48.1837 71.7717 48.2627 71.8543C48.3441 71.9381 48.44 71.9199 48.5955 71.8919L48.8178 71.8531C49.1021 71.802 49.2612 71.8203 49.447 72.0122C49.6766 72.2503 49.6681 72.5212 49.4118 72.7678C49.1482 73.0216 48.8907 73.0107 48.621 72.7301C48.5979 72.7058 48.5736 72.6779 48.5481 72.6475L48.7923 72.4143Z" fill="#89030A"/>
<path d="M48.768 70.738L48.9867 70.478L50.3836 71.6539L50.1649 71.9138L48.768 70.738Z" fill="#89030A"/>
<path d="M49.6414 70.116L49.4191 70.4379L49.1713 70.2666L49.8102 69.3434L50.058 69.5147L49.8357 69.8366L51.0905 70.7051L50.8974 70.9845L49.6414 70.116Z" fill="#89030A"/>
<path d="M51.0857 69.1989L49.9305 69.1503L50.1005 68.8138L50.8391 68.8782L50.3483 68.3243L50.5148 67.9975L51.24 68.894L51.9311 69.2451L51.7756 69.5512L51.0857 69.1989Z" fill="#89030A"/>
<path d="M31.1617 64.1675C31.1568 61.1562 32.063 58.9041 33.8936 57.0419C35.9064 54.9951 38.3674 54.0999 41.2318 54.1788C45.9534 54.3076 50.5451 58.417 50.3823 64.1153C50.2426 68.9973 46.1089 73.561 40.4203 73.397C35.4594 73.2549 31.0523 69.0361 31.1617 64.1675ZM37.375 58.7061C36.8527 58.5336 36.3328 58.4644 35.7946 58.5445C35.2055 58.632 34.6807 58.8567 34.2556 59.2722C33.6628 59.8516 33.432 60.5719 33.4915 61.3955C33.5292 61.9154 33.6859 62.3892 33.958 62.8301C34.1875 63.203 34.4767 63.5189 34.8447 63.7691C33.2388 64.6449 32.9667 66.4451 33.6081 67.655C34.2058 68.781 35.74 69.6034 37.3774 68.8624C37.6641 70.5716 38.9347 71.6247 40.4021 71.7936C41.1564 71.8798 41.8804 71.7231 42.5315 71.3174C43.4413 70.7489 43.9746 69.9217 44.1483 68.8636C45.6679 69.3811 47.1207 68.7531 47.7524 67.6914C48.0828 67.1339 48.18 66.5289 48.0719 65.8949C47.92 65.0057 47.4609 64.306 46.7138 63.7909C48.3428 62.9163 48.5335 61.053 47.9747 59.9828C47.6941 59.4447 47.2957 59.0207 46.7588 58.7401C45.906 58.2943 45.0351 58.298 44.1605 58.6891C43.8871 56.9605 42.4052 55.6596 40.6074 55.7385C39.0513 55.8065 37.6337 56.9678 37.375 58.7061Z" fill="#89030A"/>
<path d="M38.8909 69.1576V68.9972C38.8969 68.9972 38.9018 68.9972 38.9091 68.9972C39.1022 68.9972 39.1909 68.945 39.2079 68.7956H39.3913V69.9423H39.1654V69.1576H38.8909Z" fill="#89030A"/>
<path d="M40.1481 69.573C39.9233 69.573 39.7751 69.4273 39.7751 69.1989C39.7751 68.9572 39.9355 68.7956 40.1772 68.7956C40.4566 68.7956 40.6048 68.9912 40.6048 69.3617C40.6048 69.7613 40.442 69.9763 40.1517 69.9763C39.9489 69.9763 39.8177 69.8633 39.8055 69.6823H40.0363C40.046 69.7564 40.0934 69.7917 40.1784 69.7917C40.2938 69.7917 40.3534 69.6921 40.3619 69.4916C40.3121 69.5451 40.2404 69.573 40.1481 69.573ZM40.1784 68.9814C40.074 68.9814 40.0096 69.0568 40.0096 69.1916C40.0096 69.3167 40.0752 69.3884 40.1869 69.3884C40.2963 69.3884 40.3619 69.3167 40.3619 69.1952C40.3619 69.0616 40.289 68.9814 40.1784 68.9814Z" fill="#89030A"/>
<path d="M41.0336 69.4649C41.2013 69.3532 41.3227 69.3021 41.3227 69.1515C41.3227 69.0519 41.2584 68.9875 41.1527 68.9875C41.0397 68.9875 40.9717 69.0592 40.9717 69.1952C40.9717 69.1989 40.9717 69.2013 40.9717 69.205H40.7603C40.7603 68.9414 40.9085 68.7944 41.1672 68.7944C41.4065 68.7944 41.556 68.9365 41.556 69.1467C41.556 69.3276 41.4612 69.4188 41.2875 69.5366C41.1502 69.6301 41.0494 69.6775 41.0251 69.7443H41.545V69.9399H40.7409C40.7433 69.7176 40.8368 69.5973 41.0336 69.4649Z" fill="#89030A"/>
<path d="M42.1949 69.6945H41.7115V69.4929L42.1342 68.8284H42.4184V69.5123H42.5509V69.6945H42.4184V69.9423H42.1949V69.6945ZM42.1998 69.0264L41.8876 69.5171H42.1998V69.0264Z" fill="#89030A"/>
<path d="M42.0665 67.0853C41.815 67.0853 41.5733 67.0913 41.3316 67.0792C41.2975 67.078 41.2429 66.9905 41.2417 66.9431C41.2344 66.5945 41.238 66.2447 41.238 65.8839C40.9538 65.8839 40.6805 65.8839 40.3901 65.8839C40.3901 66.2763 40.3901 66.6686 40.3901 67.0853C40.1217 67.0853 39.8702 67.0877 39.6188 67.0816C39.5933 67.0804 39.5496 67.0233 39.5496 66.9905C39.5447 66.6759 39.5459 66.3601 39.5459 66.0309C39.6054 66.026 39.6564 66.0297 39.7014 66.0139C39.7342 66.003 39.7585 65.9665 39.7864 65.9422C39.7609 65.9191 39.7366 65.8766 39.7099 65.8766C39.456 65.8718 39.2021 65.8705 38.9483 65.8778C38.913 65.8791 38.879 65.9361 38.8074 65.9993C38.9434 66.0127 39.0236 66.02 39.1232 66.0297C39.1232 66.3564 39.1256 66.6771 39.1195 66.9966C39.1183 67.027 39.06 67.0828 39.0284 67.0828C38.2121 67.0877 37.3946 67.0865 36.5686 67.0865C36.5686 66.5241 36.5686 65.9787 36.5686 65.4187C39.3734 65.4187 42.1794 65.4187 45.011 65.4187C45.011 65.5353 45.011 65.6519 45.011 65.7697C45.011 66.1597 45.0098 66.5484 45.0122 66.9383C45.0122 67.0258 45.0085 67.0901 44.8895 67.0889C44.1218 67.0853 43.3541 67.0865 42.5864 67.0853C42.5706 67.0853 42.5548 67.0768 42.5305 67.0707C42.5305 66.7233 42.5305 66.3759 42.5305 66.0212C42.5767 66.0187 42.6192 66.026 42.6532 66.0127C42.6908 65.9981 42.7224 65.9653 42.7564 65.9398C42.7188 65.9167 42.6823 65.8754 42.6447 65.8742C42.4309 65.8681 42.2159 65.8669 42.0021 65.8742C41.9559 65.8754 41.9122 65.9216 41.8673 65.9471C41.9098 65.9702 41.9511 65.9944 41.9948 66.0139C42.013 66.0224 42.0373 66.0212 42.0665 66.0248C42.0665 66.3722 42.0665 66.7148 42.0665 67.0853Z" fill="#89030A"/>
<path d="M44.5737 63.9513C44.5737 64.4032 44.5737 64.8368 44.5737 65.2814C42.047 65.2814 39.5216 65.2814 36.9804 65.2814C36.9767 65.2389 36.9707 65.1903 36.9707 65.1417C36.9695 64.8429 36.9682 64.5429 36.9707 64.244C36.9731 63.9173 36.9245 63.9525 37.2719 63.9513C37.6667 63.9501 38.0627 63.9513 38.4575 63.9513C40.4278 63.9513 42.3981 63.9513 44.3671 63.9513C44.4327 63.9513 44.4983 63.9513 44.5737 63.9513Z" fill="#89030A"/>
<path d="M39.1025 61.8814C39.5277 61.8814 39.9322 61.8814 40.3379 61.8814C40.7922 61.8814 40.7922 61.8814 40.7922 61.4186C40.7922 61.1878 40.7922 60.9558 40.7934 60.725C40.7934 60.714 40.7971 60.7031 40.8032 60.6752C40.8445 60.6703 40.8906 60.6654 40.9526 60.6594C40.9526 61.0651 40.9526 61.4587 40.9526 61.8729C41.4652 61.8729 41.9632 61.8729 42.4746 61.8729C42.4746 62.2191 42.4746 62.5446 42.4746 62.8896C42.8961 62.8896 43.3043 62.8896 43.7234 62.8896C43.7234 63.2273 43.7234 63.5456 43.7234 63.8748C41.7579 63.8748 39.7986 63.8748 37.8161 63.8748C37.8161 63.5747 37.8113 63.2844 37.8222 62.9929C37.8234 62.9601 37.9121 62.903 37.9619 62.9018C38.2887 62.8933 38.6167 62.892 38.9434 62.9005C39.0722 62.9042 39.1086 62.8605 39.1038 62.7353C39.0977 62.4608 39.1025 62.1839 39.1025 61.8814Z" fill="#89030A"/>
<path d="M34.2691 65.6689C34.246 65.381 34.246 65.3798 34.5011 65.3798C35.0478 65.3798 35.5956 65.3798 36.1422 65.3798C36.203 65.3798 36.2649 65.3798 36.3378 65.3798C36.3378 65.9386 36.3378 66.4828 36.3378 67.0415C35.6551 67.0415 34.9652 67.0415 34.2679 67.0415C34.2679 66.648 34.2679 66.2568 34.2679 65.8499C34.5789 65.8499 34.8813 65.8499 35.1862 65.8499C35.2312 65.7102 35.185 65.6652 35.0563 65.6677C34.7987 65.6725 34.54 65.6689 34.2691 65.6689Z" fill="#89030A"/>
<path d="M47.2667 65.6665C46.9946 65.6665 46.731 65.6665 46.4528 65.6665C46.4492 65.7369 46.4456 65.7964 46.4419 65.8851C46.6678 65.8851 46.8853 65.8924 47.1015 65.8827C47.2363 65.8766 47.291 65.9106 47.2861 66.0588C47.2752 66.3844 47.2825 66.7099 47.2825 67.0452C46.595 67.0452 45.9269 67.0452 45.2442 67.0452C45.2442 66.4961 45.2442 65.9483 45.2442 65.3798C45.396 65.3798 45.5406 65.3798 45.6863 65.3798C46.1431 65.3798 46.5998 65.3798 47.0578 65.3798C47.3031 65.381 47.3031 65.381 47.2667 65.6665Z" fill="#89030A"/>
<path d="M41.2125 57.376C41.3412 57.5703 41.4554 57.738 41.5648 57.908C41.6364 58.021 41.7032 58.1364 41.77 58.253C41.8247 58.3477 41.883 58.3514 41.951 58.2676C42.0069 58.1983 42.064 58.1291 42.1308 58.0453C42.5487 58.8203 42.9593 59.5795 43.3698 60.3399C42.9095 59.8929 42.46 59.4301 42.132 58.8543C42.0689 58.8834 42.0251 58.9017 41.9814 58.9235C41.8441 58.9928 41.7664 58.9466 41.685 58.8166C41.566 58.6296 41.4141 58.4656 41.2586 58.2688C41.1931 58.3611 41.1153 58.4413 41.0704 58.5372C40.8772 58.9454 40.5905 59.2867 40.299 59.6256C40.2565 59.6754 40.197 59.7119 40.1484 59.7568C40.0755 59.8224 40.0245 59.7933 39.9625 59.7325C39.8617 59.6317 39.739 59.5503 39.6443 59.4446C39.524 59.3098 39.4548 59.4021 39.377 59.4835C39.2058 59.6633 39.0527 59.8637 38.8632 60.0216C38.6701 60.1832 38.449 60.3168 38.2267 60.4371C38.1259 60.4917 37.991 60.4808 37.8708 60.5002C37.8635 60.4857 37.855 60.4699 37.8477 60.4553C37.9072 60.4055 37.9631 60.352 38.0263 60.3083C38.4453 60.0119 38.862 59.7119 39.1936 59.3122C39.292 59.1932 39.405 59.0851 39.4985 58.9624C39.5787 58.8579 39.6552 58.8519 39.7512 58.932C39.8119 58.9818 39.8824 59.0219 39.9334 59.0802C40.0451 59.2066 40.1387 59.1689 40.2431 59.0693C40.5225 58.8008 40.7205 58.4802 40.8724 58.1267C40.9744 57.8837 41.0886 57.6456 41.2125 57.376Z" fill="#89030A"/>
<path d="M51.591 62.7171C51.6166 62.7875 51.6542 62.841 51.6469 62.8859C51.6275 63.0098 51.6226 63.1568 51.551 63.2467C51.4671 63.3512 51.3238 63.2358 51.3153 63.0584C51.308 62.9236 51.3007 62.79 51.2947 62.6734C51.1222 62.6952 50.9934 62.7098 50.8659 62.728C50.6448 62.7584 50.4942 62.5665 50.578 62.349C50.6849 62.0709 50.7966 61.7951 50.912 61.5218C50.9327 61.4732 50.9715 61.4173 51.0165 61.3967C51.1112 61.353 51.144 61.41 51.1744 61.5036C51.2776 61.8194 51.393 62.1304 51.5097 62.4413C51.5279 62.4899 51.5716 62.5276 51.6396 62.6187C51.6736 62.4887 51.6894 62.4073 51.7186 62.332C51.7344 62.2919 51.7745 62.2616 51.8024 62.2263C51.8316 62.2604 51.8692 62.2907 51.8862 62.3296C51.9846 62.5543 52.0745 62.7815 52.1741 63.005C52.1972 63.056 52.2421 63.0985 52.2774 63.1435C52.2956 63.1374 52.3138 63.1313 52.3308 63.1252C52.3199 63.0609 52.3223 62.9916 52.2956 62.9345C52.2045 62.7377 52.0903 62.5495 52.0077 62.349C51.9093 62.1134 51.7453 61.9506 51.5206 61.8449C51.393 61.7854 51.3068 61.7186 51.3797 61.5643C51.3821 61.5595 51.3809 61.5534 51.3809 61.5473C51.3858 61.438 51.3214 61.2558 51.4769 61.2594C51.6008 61.2618 51.732 61.393 51.8401 61.489C51.9202 61.5595 51.9676 61.6676 52.0271 61.7562C52.2713 61.6433 52.4936 61.54 52.7171 61.4356C52.7268 61.4404 52.7365 61.4453 52.7463 61.4501C52.66 61.574 52.575 61.6991 52.479 61.8388C52.5908 61.9931 52.7341 61.8862 52.8665 61.8534C53.0074 61.8182 53.1483 61.7757 53.316 61.7295C53.2722 61.8158 53.2321 61.8996 53.1872 61.981C53.1775 61.9992 53.152 62.0101 53.1386 62.0271C52.9613 62.2628 52.9151 62.3041 53.2455 62.4243C53.6269 62.564 53.6281 62.5628 53.7241 62.7171C53.5941 62.7851 53.4557 62.9187 53.3415 62.9005C53.2176 62.8811 53.1167 62.7195 53.0013 62.6151C52.9394 62.8082 53.0001 62.9382 53.2078 63.056C53.2929 63.1046 53.3633 63.1507 53.3366 63.2625C53.3232 63.3184 53.3099 63.4143 53.2844 63.418C53.2188 63.4289 53.1155 63.4216 53.0839 63.3791C52.9746 63.2321 52.8191 63.2103 52.6637 63.1726C52.5483 63.1447 52.4827 63.169 52.4948 63.2977C52.5045 63.4034 52.4681 63.4982 52.3648 63.4872C52.3041 63.4812 52.2397 63.3864 52.1996 63.3184C52.0697 63.0973 51.987 62.8386 51.7137 62.7402C51.6809 62.7304 51.6494 62.7292 51.591 62.7171ZM50.991 61.8595C50.94 61.9336 50.912 61.9567 50.9047 61.9846C50.8756 62.1109 50.8476 62.2385 50.827 62.3672C50.8197 62.4146 50.8258 62.5045 50.8403 62.5082C50.9387 62.53 51.0432 62.5495 51.1404 62.5337C51.178 62.5276 51.2388 62.4171 51.2254 62.377C51.1671 62.213 51.0833 62.0587 50.991 61.8595ZM51.5971 61.6093C51.8291 61.9275 52.0624 62.247 52.2822 62.5495C52.2531 62.0976 51.834 61.5437 51.5971 61.6093ZM53.0499 63.107C52.9382 62.9066 52.8021 62.7827 52.5908 62.7705C52.5568 62.7681 52.5082 62.7973 52.4924 62.8252C52.4827 62.8434 52.5118 62.9078 52.5373 62.9187C52.6965 62.9831 52.8617 63.039 53.0499 63.107ZM52.134 61.9336C52.2288 62.0053 52.3235 62.0769 52.4183 62.1474C52.3879 61.8753 52.3466 61.8425 52.134 61.9336Z" fill="#89030A"/>
<path d="M49.4677 55.8235C49.3681 55.8575 49.2636 55.8818 49.1713 55.928C49.0547 55.9863 48.9563 55.9183 48.9381 55.7725C49.1603 55.5441 49.3875 55.6607 49.6159 55.7919C49.6207 55.7725 49.6244 55.7519 49.6292 55.7324C49.577 55.6765 49.5102 55.628 49.4762 55.5636C49.4507 55.515 49.4665 55.4445 49.4628 55.3826C49.515 55.3862 49.5916 55.3704 49.6134 55.3984C49.8515 55.6887 50.1795 55.8466 50.4929 56.0276C50.5476 56.0592 50.5804 56.1406 50.6059 56.2049C50.6107 56.2171 50.5306 56.29 50.5014 56.2839C50.4297 56.2681 50.3556 56.2329 50.2985 56.1855C50.188 56.0944 50.0933 55.9851 49.9827 55.8952C49.956 55.8733 49.894 55.8952 49.8491 55.8964C49.8661 55.9389 49.8734 55.9912 49.9025 56.0215C49.9426 56.064 50.0009 56.092 50.0568 56.1308C49.9268 56.3519 49.7556 56.3616 49.5406 56.2329C49.5442 56.3058 49.5454 56.3446 49.5491 56.4066C49.4762 56.3932 49.4094 56.3811 49.3292 56.3653C49.3438 56.437 49.3583 56.5062 49.3729 56.5754C49.3693 56.5937 49.3669 56.6107 49.3632 56.6289C49.0498 56.3446 48.8737 56.6192 48.6392 56.7625C48.706 56.7892 48.7643 56.8026 48.8069 56.8354C48.8409 56.8621 48.8567 56.9131 48.8797 56.9544C48.836 56.9714 48.7862 57.0115 48.7498 57.0018C48.6708 56.9787 48.5809 56.9484 48.5287 56.8901C48.3659 56.7103 48.1473 56.6471 47.9335 56.5645C47.8667 56.5378 47.8169 56.4455 47.7828 56.3726C47.7731 56.3519 47.8497 56.2596 47.8885 56.2572C47.9505 56.2535 48.0185 56.2936 48.078 56.3264C48.146 56.3629 48.2031 56.4212 48.2736 56.4515C48.3198 56.471 48.3914 56.477 48.4327 56.4552C48.5603 56.3859 48.6781 56.2997 48.8008 56.2207C48.7437 56.1369 48.6247 56.1345 48.4971 56.2244C48.4206 56.2778 48.3319 56.3131 48.2493 56.3556C48.14 56.1223 48.3125 56.0312 48.4424 55.8733C48.3598 55.8952 48.3198 55.9 48.2845 55.9171C48.1436 55.9827 48.0051 56.0519 47.8667 56.1211C47.7646 56.1721 47.7051 56.1479 47.6711 56.0325C47.6371 55.9195 47.5836 55.8114 47.5314 55.6838C47.7209 55.6158 47.7221 55.4008 47.7913 55.2113C47.8582 55.2587 47.9116 55.3121 47.976 55.3376C48.0355 55.3607 48.1145 55.3765 48.1716 55.3571C48.3696 55.289 48.3671 55.2818 48.3781 55.4955C48.3793 55.5113 48.3841 55.5271 48.3902 55.5539C48.4898 55.5599 48.5481 55.5344 48.5056 55.4227C48.4607 55.306 48.5165 55.2793 48.6161 55.2903C48.7243 55.3024 48.8093 55.2963 48.8421 55.1591C48.8518 55.1153 48.9429 55.0667 48.9988 55.0631C49.1154 55.0558 49.2332 55.0813 49.3511 55.0825C49.4021 55.0838 49.4531 55.0595 49.4895 55.0497C49.458 54.9319 49.4191 54.8335 49.4106 54.7339C49.4069 54.6975 49.4713 54.6537 49.5053 54.6137C49.5369 54.6452 49.5697 54.6744 49.5989 54.7084C49.7373 54.8724 49.8734 55.0376 50.0313 55.2259C50.0131 55.3243 49.9135 55.3498 49.8029 55.3279C49.656 55.2988 49.5126 55.2514 49.3681 55.2113C49.2381 55.1749 49.1105 55.1202 49.034 55.306C49.017 55.3486 48.921 55.3595 48.8603 55.3826C48.8044 55.4032 48.7473 55.4202 48.6793 55.4433C48.74 55.5296 48.7923 55.6049 48.8579 55.6972C48.7255 55.7749 48.6028 55.8478 48.468 55.9268C48.6587 56.0725 48.7583 56.0701 48.9247 55.928C49.0158 56.0604 49.1154 56.1053 49.2551 55.9766C49.3098 55.9268 49.4057 55.9219 49.4835 55.8964C49.4786 55.8709 49.4725 55.8466 49.4677 55.8235ZM47.7573 55.8952C47.8642 56.041 48.0185 55.9997 48.1436 55.8017C48.0076 55.8345 47.8922 55.8624 47.7573 55.8952Z" fill="#89030A"/>
<path d="M51.0541 58.8798C51.1659 58.9405 51.274 59.0097 51.3906 59.0583C51.4562 59.0863 51.5668 59.0389 51.5595 59.164C51.5558 59.2272 51.5364 59.3122 51.4927 59.3462C51.4113 59.407 51.3129 59.4276 51.2181 59.3389C51.0724 59.2029 50.9181 59.0766 50.7541 58.9332C50.4674 59.311 50.4954 59.7677 50.4286 60.2463C50.2852 59.9949 50.0933 59.7957 50.1237 59.5284C50.154 59.2588 50.4419 59.1555 50.6217 58.9186C50.5087 58.8919 50.4237 58.8591 50.3375 58.8543C49.9087 58.8287 49.6366 58.5421 49.6098 58.1655C49.7143 58.2578 49.8054 58.3514 49.9087 58.4255C50.0119 58.5008 50.1273 58.5579 50.2379 58.6235C50.2488 58.6077 50.2597 58.5919 50.2719 58.5749C50.2087 58.4886 50.1006 58.4048 50.0957 58.3149C50.0897 58.2226 50.1844 58.1254 50.233 58.0331C50.3545 58.1849 50.4601 58.3271 50.5755 58.4583C50.6752 58.5724 50.8088 58.604 50.9582 58.5749C51.1756 58.5324 51.3955 58.5032 51.6093 58.4473C51.7065 58.4218 51.7988 58.3574 51.8777 58.2918C51.9567 58.2262 52.0162 58.1364 52.0879 58.0537C52.2434 58.1704 52.2434 58.3465 52.1887 58.4789C52.1571 58.5554 51.9919 58.5931 51.8802 58.6186C51.6141 58.6793 51.3445 58.7231 51.076 58.7729C51.0675 58.8093 51.0602 58.8445 51.0541 58.8798Z" fill="#89030A"/>
<path d="M43.3466 53.2653C43.5045 53.3297 43.6478 53.3856 43.7899 53.4463C43.9782 53.5265 44.1677 53.5144 44.3645 53.484C44.4702 53.4682 44.5831 53.5071 44.6913 53.5034C44.7544 53.5022 44.8152 53.4658 44.8771 53.4451C44.8589 53.3917 44.8382 53.3382 44.8212 53.2836C44.8054 53.2301 44.7933 53.1754 44.8127 53.1038C44.8844 53.1596 44.9548 53.2155 45.046 53.2872C45.086 53.1621 45.1188 53.06 45.1553 52.9446C45.0945 52.9252 45.0289 52.9131 44.9731 52.8827C44.8759 52.8292 44.7957 52.7539 44.8552 52.63C44.9014 52.5329 44.9743 52.4867 45.0605 52.5912C45.2391 52.8074 45.4954 52.8463 45.7469 52.9009C45.8841 52.9313 46.019 52.9726 46.1684 53.0127C46.0809 53.1718 45.9825 53.1924 45.8501 53.1293C45.7857 53.0977 45.7141 53.0746 45.6424 53.0661C45.5318 53.054 45.4007 53.0321 45.3594 53.1742C45.3168 53.3212 45.4007 53.4038 45.5829 53.4439C45.5452 53.3552 45.5173 53.2896 45.4881 53.2228C45.5829 53.1633 45.9266 53.2313 45.9704 53.337C45.9825 53.3649 45.9412 53.4488 45.9133 53.456C45.8282 53.4767 45.7359 53.4718 45.629 53.4779C45.6096 53.5812 45.5051 53.5617 45.4019 53.5702C45.346 53.5751 45.2938 53.6225 45.2403 53.6504C45.2755 53.7063 45.2974 53.784 45.3472 53.8132C45.4492 53.8727 45.4942 53.9274 45.4225 54.0391C45.4031 54.0683 45.4031 54.1108 45.3885 54.1679C45.6315 54.214 45.8647 54.2553 46.0955 54.3064C46.1416 54.3173 46.1793 54.3683 46.2218 54.3999C46.189 54.4375 46.1586 54.5019 46.121 54.508C46.0469 54.5189 45.9606 54.5116 45.8914 54.4837C45.7335 54.4205 45.6885 54.4946 45.6557 54.6331C45.6327 54.7315 45.5938 54.836 45.5318 54.9125C45.4942 54.9599 45.3606 54.9975 45.3375 54.9732C45.2865 54.921 45.2379 54.8117 45.2597 54.7522C45.2925 54.6635 45.3885 54.5991 45.4529 54.5201C45.4905 54.474 45.5209 54.4205 45.5549 54.3707C45.493 54.3647 45.4274 54.3404 45.3703 54.3562C45.2743 54.3817 45.1881 54.4485 45.0921 54.4679C44.9221 54.5031 44.7896 54.5141 44.7447 54.276C44.7398 54.2529 44.7131 54.2335 44.6949 54.2104C44.5552 54.2371 44.5455 54.4886 44.3402 54.3999C44.1458 54.3149 44.3208 54.1375 44.243 54.0561C44.3147 54.0367 44.3912 54.016 44.469 53.9942C44.4653 53.9723 44.4617 53.9504 44.4568 53.9286C44.3098 53.8921 44.1677 53.8861 44.0171 53.9614C43.8264 54.0561 43.7 53.9905 43.6612 53.784C43.7462 53.784 43.83 53.7731 43.9102 53.7864C44.1167 53.8192 44.3281 53.6893 44.5321 53.8035C44.5443 53.8107 44.5941 53.7828 44.5965 53.7658C44.6014 53.7403 44.588 53.6929 44.5686 53.6856C44.5078 53.6601 44.4422 53.6322 44.3791 53.6346C44.1434 53.6407 43.909 53.6553 43.6733 53.6698C43.4377 53.6856 43.3271 53.6103 43.3466 53.2653ZM44.9585 54.1545C44.9852 54.1569 45.0132 54.1594 45.0399 54.1618C45.1055 54.0634 45.1723 53.9638 45.2379 53.8654C45.0873 53.7379 44.9755 53.829 44.9063 53.9128C44.8747 53.9529 44.9391 54.0719 44.9585 54.1545ZM46.257 52.9507C46.353 52.9896 46.5024 52.9604 46.5984 52.9082C46.653 52.8778 46.6931 52.7248 46.6652 52.6568C46.5899 52.4721 46.4757 52.3021 46.3761 52.1271C46.3736 52.1223 46.3554 52.1271 46.3287 52.1271C46.2036 52.3178 46.2546 52.6847 45.855 52.6677C45.9874 52.7649 46.1088 52.89 46.257 52.9507ZM46.1016 53.9735C46.189 53.9674 46.2813 53.9966 46.3688 54.0197C46.421 54.033 46.4684 54.0828 46.5194 54.0841C46.5668 54.0853 46.6202 54.0525 46.6591 54.0197C46.6725 54.0087 46.6615 53.9346 46.6421 53.9237C46.5534 53.8703 46.4611 53.8095 46.3615 53.7852C46.1283 53.7281 45.8914 53.6893 45.6497 53.6419C45.6594 53.8132 45.8926 53.9893 46.1016 53.9735Z" fill="#89030A"/>
<path d="M37.3714 53.6177C37.1795 53.8363 36.9414 53.88 36.6195 53.7537C36.4665 54.0622 36.1871 54.1667 35.853 54.0768C35.7097 54.2007 35.5992 54.3088 35.4753 54.3999C35.3817 54.468 35.27 54.5129 35.1667 54.57C34.9189 54.7085 34.7841 54.6927 34.58 54.4874C34.4379 54.8433 34.2508 55.164 33.9593 55.413C33.873 55.4859 33.7916 55.5636 33.7018 55.6317C33.4624 55.8139 33.2037 55.7604 32.996 55.5066C32.7628 55.2223 32.5174 54.949 32.2526 54.6405C32.2647 54.5688 32.2878 54.4376 32.317 54.2675C32.4214 54.3817 32.5089 54.4704 32.5891 54.5664C32.7324 54.7388 32.8648 54.9211 33.0142 55.0875C33.0907 55.1725 33.1928 55.2369 33.2912 55.2988C33.3191 55.3171 33.3908 55.3098 33.4151 55.2855C33.6957 55.0122 33.9726 54.734 34.2484 54.457C34.2581 54.4473 34.2557 54.4267 34.2593 54.4097C33.9143 54.3854 33.72 54.5275 33.5621 54.9502C33.5353 54.7765 33.488 54.6417 33.5001 54.5117C33.522 54.2845 33.7066 54.1922 33.901 54.1315C34.2277 54.0294 34.5569 53.9347 34.8898 53.8351C34.9687 54.0258 34.8655 54.1704 34.6505 54.2687C34.6662 54.2833 34.6808 54.2967 34.6966 54.3113C34.9201 54.1813 35.1582 54.0707 35.3611 53.914C35.44 53.8533 35.4412 53.6905 35.4801 53.5654C35.6162 53.6189 35.7631 53.7853 35.9867 53.6942C36.2393 53.5909 36.294 53.529 36.2976 53.2654C36.4495 53.3152 36.6025 53.3978 36.7616 53.4099C36.956 53.4233 37.052 53.2751 37.0775 53.1208C37.188 53.1585 37.2986 53.2144 37.4115 53.2229C37.4395 53.2253 37.4783 53.0747 37.5172 52.9836C37.5476 53.0079 37.5889 53.0407 37.629 53.0759C37.7225 53.1573 37.8258 53.1451 37.9254 53.099C38.0152 53.0577 38.025 52.9884 37.9399 52.9338C37.8658 52.8864 37.7796 52.8572 37.6933 52.8184C37.7383 52.7127 37.7844 52.607 37.8294 52.5001C38.1999 52.669 38.3432 53.1755 38.1647 53.4707C38.0638 53.6371 37.9108 53.5569 37.7759 53.512C37.6715 53.6845 37.6253 53.6966 37.3714 53.6177Z" fill="#89030A"/>
<path d="M30.2215 61.2243C30.2798 61.3895 30.2725 61.5292 30.1292 61.6422C30.1012 61.664 30.0915 61.7175 30.0879 61.7576C30.0818 61.8244 30.1097 61.9058 30.0818 61.958C29.9688 62.1694 30.0879 62.2811 30.2397 62.3904C30.2895 62.4269 30.326 62.4803 30.3733 62.5192C30.6114 62.7111 30.6831 62.9431 30.5641 63.2335C30.5276 63.3221 30.5167 63.4205 30.4863 63.5481C30.3126 63.1375 30.3114 62.6929 29.9773 62.3479C29.9373 62.4767 29.9117 62.5751 29.8765 62.671C29.7988 62.8824 29.6992 62.9261 29.4902 62.8399C29.2995 62.7621 29.1598 62.6346 29.0979 62.4317C29.0274 62.2009 29.1501 62.0127 29.387 61.9835C29.4805 61.9714 29.6384 61.9689 29.6518 61.9264C29.6907 61.8013 29.6761 61.658 29.6737 61.5219C29.6724 61.4806 29.6433 61.4393 29.6421 61.4369C29.7368 61.3628 29.8668 61.3118 29.8875 61.2328C29.9105 61.1441 29.834 61.0299 29.7963 60.9121C29.9518 60.9133 30.0915 60.8708 30.1037 60.6801C30.1073 60.6206 30.0903 60.5586 30.083 60.4979C30.0271 60.5125 29.9701 60.5234 29.9154 60.5416C29.8911 60.5501 29.8729 60.5732 29.8413 60.5975C29.8219 60.5246 29.8012 60.4687 29.7903 60.4104C29.7721 60.312 29.7587 60.2124 29.7441 60.1152C29.9883 60.0557 30.2033 60.1699 30.3065 60.4286C30.4839 60.8611 30.4802 61.0834 30.2215 61.2243ZM29.5656 62.3115C29.5498 62.2957 29.5352 62.2799 29.5194 62.2641C29.4732 62.2908 29.3955 62.309 29.3858 62.3455C29.3651 62.422 29.3809 62.5083 29.3821 62.5909C29.4064 62.5921 29.4307 62.5945 29.4538 62.5957C29.4915 62.501 29.5279 62.4062 29.5656 62.3115Z" fill="#89030A"/>
<path d="M31.8833 55.3827C31.8833 55.4823 31.8833 55.5807 31.8833 55.69C31.7934 55.6803 31.7181 55.673 31.6342 55.6645C31.6294 55.5309 31.5723 55.3985 31.7302 55.3025C31.7654 55.2806 31.7509 55.1774 31.7594 55.113C31.7703 55.0304 31.78 54.9466 31.7934 54.847C31.9489 54.8943 32.0958 54.9393 32.2659 54.9903C32.2112 55.0231 32.1724 55.0462 32.1359 55.068C32.1371 55.0838 32.1335 55.0972 32.1384 55.1021C32.3461 55.3244 32.5526 55.5466 32.7627 55.7653C32.8951 55.9038 32.9984 56.0532 32.9656 56.256C32.951 56.3423 32.9328 56.437 32.8854 56.5051C32.6911 56.7796 32.4846 57.0444 32.2683 57.3323C32.1967 57.1914 32.125 57.0638 32.0703 56.9302C32.057 56.8962 32.0849 56.833 32.1116 56.7966C32.2768 56.5707 32.4433 56.3447 32.617 56.1261C32.674 56.0544 32.6886 56.0046 32.617 55.9426C32.3898 55.7459 32.1626 55.5479 31.9355 55.3511C31.9173 55.362 31.9003 55.3729 31.8833 55.3827Z" fill="#89030A"/>
<path d="M31.1314 58.2895C30.7743 58.2518 30.6078 58.4875 30.4038 58.6843C30.3552 58.5482 30.3078 58.4243 30.2689 58.2968C30.2592 58.264 30.2677 58.2154 30.2871 58.1862C30.4353 57.9639 30.9249 57.9032 31.118 58.0878C31.3634 58.3235 31.4253 58.609 31.3197 58.9309C31.299 58.994 31.2735 59.056 31.248 59.1179C31.0901 59.4957 30.8398 59.5261 30.569 59.1945C30.9747 59.0365 30.9674 58.6308 31.1314 58.2895Z" fill="#89030A"/>
<path d="M30.8483 60.1748C30.5179 59.933 30.2021 59.6524 29.8413 59.4532C29.5304 59.2807 29.4356 59.0633 29.4854 58.7414C29.4891 58.7159 29.4891 58.6891 29.4939 58.6138C29.9543 59.169 30.6649 59.4423 30.8483 60.1748Z" fill="#89030A"/>
<path d="M28.6582 61.3506C28.7505 61.5826 28.8319 61.8001 28.9242 62.0139C28.9631 62.105 28.9351 62.1414 28.8537 62.1778C28.6715 62.2605 28.493 62.3503 28.312 62.4378C28.1954 62.2422 28.2014 62.2119 28.38 62.1013C28.6108 61.958 28.6108 61.958 28.5379 61.681C28.4748 61.4442 28.4748 61.4442 28.6582 61.3506Z" fill="#89030A"/>
<path d="M31.9549 56.7225C31.7278 56.5622 32.029 56.4322 31.9452 56.2913C31.7302 56.2719 31.6598 56.1188 31.78 55.9135C31.842 55.8078 31.9282 55.7179 32.0035 55.6195C32.0813 55.7058 32.0813 55.7058 31.9537 55.9621C31.9622 55.9682 31.9695 55.9803 31.978 55.9803C32.0509 55.9815 32.1797 55.9633 32.187 55.984C32.2173 56.0836 32.2526 56.2087 32.2173 56.2961C32.1566 56.4492 32.0448 56.5816 31.9549 56.7225Z" fill="#89030A"/>
<path d="M29.4988 60.2148C29.5267 60.3254 29.5632 60.4262 29.5717 60.5282C29.5753 60.5671 29.5219 60.6388 29.4818 60.6497C29.3433 60.6862 29.2886 60.736 29.3372 60.8951C29.4125 61.1441 29.4004 61.149 29.1101 61.2644C29.0785 61.1538 29.0336 61.0445 29.0238 60.9327C29.0202 60.8927 29.0967 60.8246 29.1502 60.8064C29.2741 60.7639 29.302 60.6886 29.2765 60.5732C29.2182 60.3181 29.2182 60.3181 29.4988 60.2148Z" fill="#89030A"/>
<path d="M31.6513 56.0386C31.5468 56.0386 31.4812 56.0386 31.3658 56.0386C31.3755 55.9293 31.4047 55.8151 31.3913 55.707C31.3792 55.6074 31.3221 55.5138 31.2735 55.3899C31.3938 55.3899 31.4581 55.3899 31.542 55.3899C31.542 55.4944 31.542 55.6025 31.542 55.6742C31.582 55.8042 31.6124 55.9074 31.6513 56.0386Z" fill="#89030A"/>
<path d="M34.7112 55.1033C35.0452 55.1324 35.0707 55.1665 35.0234 55.5199C34.7051 55.5406 34.6261 55.4385 34.7112 55.1033Z" fill="#89030A"/>
<path d="M28.9315 60.821C28.9108 60.6983 28.8707 60.5926 28.8829 60.493C28.8914 60.4226 28.9582 60.329 29.0214 60.3047C29.1198 60.2671 29.1562 60.3485 29.1744 60.4469C29.2291 60.725 29.2607 60.6546 28.9315 60.821Z" fill="#89030A"/>
<path d="M36.6572 52.624C36.707 52.5232 36.7458 52.4442 36.7871 52.3592C36.8977 52.4005 37.0009 52.4394 37.1151 52.4831C37.0762 52.5803 37.0422 52.6653 37.0021 52.7661C36.8867 52.7188 36.7811 52.675 36.6572 52.624Z" fill="#89030A"/>
<path d="M37.126 52.4795C37.1722 52.3847 37.2074 52.3094 37.2511 52.2183C37.358 52.2645 37.4564 52.307 37.567 52.3544C37.5281 52.4528 37.4941 52.5414 37.4564 52.6386C37.3398 52.5827 37.2414 52.5354 37.126 52.4795Z" fill="#89030A"/>
<path d="M35.259 53.2763C35.14 53.2435 35.0391 53.2156 34.9237 53.184C34.9529 53.0856 34.9796 52.9981 35.0076 52.901C35.1242 52.9326 35.225 52.9605 35.344 52.9933C35.3149 53.0905 35.2882 53.1804 35.259 53.2763Z" fill="#89030A"/>
<path d="M37.1977 52.1466C37.1588 52.2317 37.126 52.3058 37.086 52.3956C37.0204 52.3738 36.9584 52.358 36.8989 52.3325C36.8321 52.3045 36.7252 52.2875 36.7799 52.1794C36.8199 52.1005 36.8807 52.013 36.9997 52.0628C37.0641 52.0883 37.1285 52.1175 37.1977 52.1466Z" fill="#89030A"/>
<path fill-rule="evenodd" clip-rule="evenodd" d="M64.2874 59.5296C64.2534 59.2599 64.3129 58.7922 64.6032 58.7181C66.1739 59.1834 68.9337 57.3928 70.4825 56.0615C70.6015 56.5413 70.4886 56.8742 70.1448 57.354C69.0054 57.7876 68.2377 58.3525 67.8405 59.0473V60.2997C69.7476 61.4877 68.7916 58.706 69.8448 58.3731C70.5019 58.1921 70.8506 58.4023 70.8906 59.0048C68.8183 60.1308 69.8071 61.3055 68.5693 61.6468V62.4595L69.252 62.8008C68.053 62.9199 68.0287 63.6596 68.1138 64.8245C68.4612 65.4064 68.9945 65.3032 69.4342 65.5425L69.6626 62.7061C70.3659 62.5506 70.8214 62.9842 71.0316 64.007C72.3374 63.0438 73.9688 61.0018 74.8567 61.0686L74.5348 62.2736C74.4049 63.0826 73.2861 62.7814 72.9861 63.526C73.2934 64.6812 73.5533 65.7878 73.4902 66.9442C73.2181 67.4326 72.7613 67.4314 72.3969 67.2334C71.9705 66.4778 72.1394 65.2716 72.5791 63.8625L71.345 64.3022C70.9429 65.4684 70.6732 66.151 70.2104 67.1374C69.5107 67.2734 68.873 67.0159 68.2972 66.3673C68.415 67.1204 68.4162 67.8747 68.1636 68.6279C67.6121 68.7955 66.3403 68.9777 66.0657 68.0011C66.6877 67.3658 67.3169 66.9673 66.7484 66.4632C65.8325 66.6819 65.1341 67.514 64.4672 68.9109C63.8598 69.2413 63.6521 69.5875 63.3751 68.9158C63.7578 68.108 64.7636 67.2771 66.384 66.0769L66.5662 64.5354C65.1389 65.5497 63.7116 67.2528 62.2855 69.0554C61.2299 69.1611 60.4695 69.0044 60.2788 68.1954L62.5564 67.4253C64.7563 66.0259 65.9831 64.1856 66.9306 63.6693C66.9306 63.2843 67.1165 62.8992 66.9306 62.5141C66.4617 62.3866 65.5738 63.1409 65.5228 62.1303C65.4341 61.4476 66.5055 61.6468 67.1128 61.4549C67.3108 60.239 66.1398 61.133 66.384 59.7215C65.7766 59.8539 64.7077 60.8196 64.2874 59.5296ZM68.296 51.8087C69.5046 53.9515 69.829 54.8164 68.296 55.7724C70.6586 55.8927 71.4251 55.2829 71.7592 53.943C71.662 51.635 70.3136 52.6797 68.296 51.8087ZM70.757 60.4928C70.6258 61.0127 71.051 61.2047 72.0325 61.071C72.9678 60.0932 73.8631 59.4008 74.6745 59.3376C75.2722 58.9696 75.5929 58.6015 75.4945 58.0852C75.0074 57.8241 74.5822 57.8241 74.219 58.0852C73.529 58.887 70.5651 60.2778 70.757 60.4928Z" fill="#89030A"/>
<path fill-rule="evenodd" clip-rule="evenodd" d="M83.8202 55.1978C85.177 54.9937 86.2994 55.414 87.5628 54.7399C88.1422 55.0302 88.1568 55.5282 87.6065 56.2352C86.1415 57.4329 85.0604 58.525 84.6013 59.4457C85.0203 59.5976 85.1102 59.9061 85.1527 60.3701L84.4154 61.3893C84.3292 61.8023 85.2317 61.6419 85.6641 61.8472L85.8136 62.1764C85.3313 63.3741 84.4871 66.3988 84.5077 67.735C83.0828 68.2367 82.3504 67.3439 82.0564 66.0405L81.4588 65.2242L81.5499 64.3095L82.7962 64.4662C82.2459 63.8163 82.3078 63.3231 82.8885 62.6745C83.1326 63.1895 83.3768 63.4446 84.0449 63.4385L84.6 62.4157C84.4506 62.0707 83.7364 62.1424 83.3039 62.0064C83.5505 61.597 84.4567 61.0309 84.3267 60.5183L83.819 59.8101L85.4321 57.3005C85.4941 56.9616 86.0261 56.6227 85.6168 56.2826L83.8578 56.1745C83.6113 55.7444 83.6914 55.2622 83.8202 55.1978ZM86.8218 57.6054C85.5706 58.3938 88.0681 58.0682 88.5807 58.0354L88.4884 58.9343L87.1182 59.4154C86.4926 60.0883 86.4051 61.3541 86.2666 61.5946C86.5509 61.8059 87.0914 61.8144 87.2287 61.4986C87.2943 60.4017 87.7389 59.521 88.4872 59.3437C88.7495 59.2635 88.4252 60.6386 88.3948 61.2872C87.9685 61.3662 88.8977 61.7695 87.0064 62.6174C87.1838 63.645 85.8962 64.1868 85.341 64.9703C85.6301 65.9931 85.9192 66.3685 86.2083 66.0964C86.5594 66.298 86.8121 66.1219 86.9675 65.5679C86.4792 64.8598 86.4306 64.4225 86.8206 64.2548C87.3915 63.4993 87.4316 62.836 88.3013 63.0267C88.0086 63.5527 88.4847 64.3617 87.6429 64.482C87.1765 64.4686 87.6612 66.1947 87.5615 66.6673C85.3277 67.2601 84.6766 67.6512 84.7847 68.2452C84.7835 68.7262 85.3507 68.6278 86.229 68.6776C87.519 67.6075 88.5418 67.0791 90.2837 66.6029C90.664 66.4729 90.7138 66.0599 90.5437 65.8485C90.1951 65.4696 89.5537 65.8206 89.0593 65.806C89.4395 64.9824 89.0131 63.9147 89.3193 63.3341C89.8805 62.7133 90.4186 62.9611 90.7842 62.6793C90.5741 62.5639 90.7296 62.1242 90.1538 62.3319C89.9704 61.7914 90.5923 61.0091 90.1513 60.4685C90.7296 60.1989 90.9786 59.5903 91.264 58.565C91.032 57.8763 90.2133 58.4011 89.6885 58.3197V57.4584C90.5838 57.4208 91.4924 56.766 92.6695 56.7272L92.9683 56.087C92.8784 55.1444 92.4909 54.9439 92.1471 55.6971C91.8046 56.4526 87.8276 57.586 86.8218 57.6054ZM84.2138 65.2752C84.0753 65.1404 83.8396 65.3833 83.5068 66.004C83.3586 66.6709 83.406 67.1228 83.6477 67.3585C83.8518 67.2018 84.2393 67.3293 84.2599 66.8896C84.2453 66.3514 84.4494 65.2873 84.2138 65.2752ZM89.7833 58.9355C90.1343 59.1785 90.3749 58.531 90.6166 58.9355C90.5656 59.3558 90.2084 59.8842 89.7663 59.8733C89.7225 59.5745 89.8258 59.2344 89.7833 58.9355Z" fill="#89030A"/>
<path fill-rule="evenodd" clip-rule="evenodd" d="M103.363 54.0451C104.326 53.8713 104.99 53.9928 105.52 55.2938C105.264 57.3613 104.574 57.439 104.751 61.4962C104.958 61.6748 105.91 61.2277 106.537 60.4491L106.787 59.3267C107.479 59.306 107.954 59.8745 108.213 61.0346C106.928 62.3829 104.412 62.5433 104.844 63.0996C105.627 64.7529 107.232 66.0988 109.462 67.4994C109.383 68.0824 106.448 67.8553 106.319 67.5516C105.448 66.6964 105.095 64.1905 104.288 63.6657C103.585 65.2959 102.882 66.4851 102.178 66.7074C100.489 67.1471 99.6615 66.9819 99.342 66.7402C100.545 65.7975 102.007 66.1073 103.178 64.0423C102.345 64.199 100.915 65.0748 100.625 64.68C100.048 64.4613 99.885 63.8552 100.031 63.1932C100.916 63.4483 102.091 63.0389 103.553 61.9675C103.77 60.2693 103.335 59.0692 104.201 56.5425C103.253 55.3047 103.154 54.6937 103.363 54.0451Z" fill="#89030A"/>
<path fill-rule="evenodd" clip-rule="evenodd" d="M117.321 56.8523C117.375 56.8061 118.054 58.4108 118.524 59.9219L118.431 60.9447L115.84 63.2976C115.832 64.1686 116.326 64.697 117.922 64.4735C118.824 63.3486 119.115 62.4801 120.976 61.5071C122.287 59.9523 124.478 60.143 124.631 59.5125C125.603 60.3483 123.83 60.9447 123.335 61.4561L121.207 61.9675C120.652 62.3429 120.56 62.4619 120.929 63.0936H122.225L122.04 63.7082C120.96 64.5609 115.947 65.3627 116.58 65.9591L116.904 66.9309C118.323 67.0997 119.604 68.295 120.467 69.132C120.73 69.8001 121.376 69.9033 122.503 68.9279L122.595 65.6542C123.521 65.4829 124.678 65.7745 125.419 64.9873C125.45 63.86 125.064 63.4349 124.354 63.4033L122.643 63.8127L123.152 62.7899C123.845 61.7464 124.708 60.6192 126.021 60.5378C126.422 60.3859 126.73 60.2329 126.715 59.6705C126.452 59.1056 125.959 58.559 124.956 58.9525L126.668 55.6242C127.124 55.0448 126.984 54.4653 126.576 53.8847C126.466 53.0417 125.711 55.0836 124.17 55.6242C124.663 56.4964 125.018 56.2911 125.372 55.9315C125.527 56.8353 124.523 57.739 124.216 58.6938H123.43L123.245 57.1596L124.171 56.3409L123.43 56.1368L123.338 55.6266L124.726 53.4778C124.803 53.1024 124.418 51.7006 124.217 52.0432L123.245 51.7383C123.091 53.0514 122.66 55.0824 121.394 55.8307C120.731 54.8917 119.559 53.2858 119.266 53.7839L119.358 54.7046C119.289 55.1444 119.582 56.0882 120.006 57.2118C119.898 57.7925 119.605 58.1666 119.126 58.3367C118.508 57.3163 117.983 56.3142 117.321 56.8523ZM122.139 57.7305C122.457 57.439 122.775 58.2602 123.092 58.7047C122.608 58.5857 122.587 59.1858 121.918 59.2732C121.437 59.1165 122.065 58.2444 122.139 57.7305ZM120.952 57.0819C121.099 56.9458 121.247 57.3272 121.394 57.5325C121.169 57.4779 121.16 57.756 120.85 57.7961C120.626 57.7245 120.918 57.32 120.952 57.0819ZM119.203 59.1092C119.823 58.8493 120.675 58.1776 121.065 58.3282L120.594 59.1177L119.423 60.3264C118.744 60.4637 118.625 59.3522 119.203 59.1092ZM117.953 62.0355C118.513 61.8715 119.523 60.1163 120.879 60.33C121.2 60.85 119.763 61.2666 119.344 62.044L118.127 63.1506C117.447 63.2867 117.393 62.1995 117.953 62.0355ZM122.271 59.6377C122.365 59.5514 122.457 59.7919 122.551 59.9219C122.41 59.8867 122.404 60.0628 122.207 60.0883C122.067 60.0434 122.251 59.7871 122.271 59.6377ZM121.38 65.789C121.695 64.3399 121.858 68.125 121.173 68.0994C120.942 67.9452 119.486 67.7059 118.615 66.9892C118.09 66.0101 121.256 65.0881 121.38 65.789Z" fill="#89030A"/>
<path d="M61.0844 74.1209L60.0811 72.5575H60.8403L61.4938 73.6727L62.1424 72.5575H62.9065L61.9031 74.116L62.9065 75.7511H62.1473L61.495 74.6457L60.8415 75.7511H60.0823L61.0844 74.1209Z" fill="#89030A"/>
<path d="M64.1225 72.5575H64.7796V75.7511H64.1225V72.5575Z" fill="#89030A"/>
<path d="M66.3527 72.5575H67.0414L68.3388 74.7513V72.5575H68.9874V75.7511H68.3084L67.0026 73.5573V75.7511H66.3539V72.5575H66.3527Z" fill="#89030A"/>
<path d="M70.9456 74.5606V74.9469C70.9456 75.1692 71.0828 75.2895 71.3319 75.2895C71.6295 75.2895 71.6963 75.1388 71.6963 74.7829V72.5575H72.3534V74.8133C72.3534 75.1024 72.3449 75.3198 72.198 75.5105C72.034 75.7243 71.7364 75.8397 71.3404 75.8397C70.9808 75.8397 70.7002 75.7426 70.5143 75.547C70.3151 75.3381 70.3103 75.1158 70.3103 74.8096V74.5606H70.9456Z" fill="#89030A"/>
<path d="M73.8998 72.5575H74.5569V75.7511H73.8998V72.5575Z" fill="#89030A"/>
<path d="M77.6982 72.5575L78.8486 75.7511H78.1598L77.9424 75.0939H76.7034L76.4944 75.7511H75.802L76.939 72.5575H77.6982ZM76.8759 74.5558H77.7638L77.3192 73.1965L76.8759 74.5558Z" fill="#89030A"/>
<path d="M80.0658 72.5575H80.7545L82.0518 74.7513V72.5575H82.7005V75.7511H82.0215L80.7156 73.5573V75.7511H80.067V72.5575H80.0658Z" fill="#89030A"/>
<path d="M85.6097 75.8397C84.7254 75.8397 84.1083 75.1741 84.1083 74.1525C84.1083 73.126 84.7121 72.4737 85.6267 72.4737C86.4345 72.4737 86.9642 72.8867 87.0565 73.5536H86.386C86.3058 73.2208 86.0531 73.0422 85.6486 73.0422C85.1251 73.0422 84.791 73.4467 84.791 74.1476C84.791 74.8534 85.1372 75.2579 85.6838 75.2579C86.0968 75.2579 86.3993 75.0004 86.4649 74.5691H85.7409V74.0225H87.065V75.7499H86.6253L86.5451 75.3721C86.307 75.6976 86.013 75.8397 85.6097 75.8397Z" fill="#89030A"/>
<path d="M93.5116 72.5478V74.5509C93.5116 75.0307 93.6889 75.2615 94.1287 75.2615C94.5733 75.2615 94.7506 75.0344 94.7506 74.5509V72.5478H95.4078V74.6226C95.4078 75.4134 94.9498 75.8397 94.1335 75.8397C93.3075 75.8397 92.8496 75.4134 92.8496 74.6226V72.5478H93.5116Z" fill="#89030A"/>
<path d="M96.9407 72.5575H97.6295L98.9268 74.7513V72.5575H99.5755V75.7511H98.8964L97.5906 73.5573V75.7511H96.942V72.5575H96.9407Z" fill="#89030A"/>
<path d="M101.142 72.5575H101.8V75.7511H101.142V72.5575Z" fill="#89030A"/>
<path d="M103.022 72.5575H103.751L104.43 74.9469L105.122 72.5575H105.841L104.753 75.7511H104.122L103.022 72.5575Z" fill="#89030A"/>
<path d="M107.038 72.5575H109.356V73.1127H107.686V73.7917H109.214V74.3383H107.686V75.1595H109.437V75.7498H107.039V72.5575H107.038Z" fill="#89030A"/>
<path d="M110.826 72.5575H112.376C113.069 72.5575 113.403 72.8467 113.403 73.4637C113.403 73.8549 113.234 74.1209 112.928 74.2193C113.23 74.3262 113.309 74.5303 113.323 74.9165L113.336 75.2943C113.341 75.4814 113.341 75.5919 113.46 75.6539V75.7511H112.741C112.692 75.6575 112.669 75.5251 112.665 75.3514L112.657 75.0137C112.644 74.6359 112.546 74.5072 112.182 74.5072H111.485V75.7511H110.828V72.5575H110.826ZM112.257 73.9521C112.59 73.9521 112.746 73.8233 112.746 73.5305C112.746 73.2548 112.595 73.109 112.288 73.109H111.483V73.9533H112.257V73.9521Z" fill="#89030A"/>
<path d="M115.389 74.7647C115.437 75.1206 115.678 75.2797 116.118 75.2797C116.504 75.2797 116.695 75.1425 116.695 74.8752C116.695 74.5825 116.429 74.5242 115.842 74.3906C115.584 74.3323 115.344 74.2885 115.136 74.1549C114.91 74.0128 114.79 73.7638 114.79 73.4309C114.79 72.8139 115.216 72.4677 116.02 72.4677C116.771 72.4677 117.206 72.8406 117.229 73.4807H116.599C116.577 73.1698 116.359 73.0058 115.963 73.0058C115.617 73.0058 115.426 73.1479 115.426 73.3921C115.426 73.6945 115.671 73.6945 116.199 73.8269C116.502 73.9022 116.749 73.9642 116.95 74.076C117.212 74.2229 117.341 74.4622 117.341 74.7914C117.341 75.4486 116.883 75.8397 116.057 75.8397C115.244 75.8397 114.778 75.445 114.743 74.7647H115.389Z" fill="#89030A"/>
<path d="M118.761 72.5575H119.418V75.7511H118.761V72.5575Z" fill="#89030A"/>
<path d="M121.652 73.126H120.706V72.5575H123.251V73.126H122.309V75.7511H121.652V73.126Z" fill="#89030A"/>
<path d="M125.29 75.7511V74.5606L124.131 72.5575H124.935L125.619 73.9338L126.25 72.5575H127L125.947 74.5606V75.7511H125.29Z" fill="#89030A"/>
</g>
<defs>
<filter id="filter0_d_185_139" x="0" y="0" width="154" height="157" filterUnits="userSpaceOnUse" color-interpolation-filters="sRGB">
<feFlood flood-opacity="0" result="BackgroundImageFix"/>
<feColorMatrix in="SourceAlpha" type="matrix" values="0 0 0 0 0 0 0 0 0 0 0 0 0 0 0 0 0 0 127 0" result="hardAlpha"/>
<feOffset dy="16"/>
<feGaussianBlur stdDeviation="6.5"/>
<feColorMatrix type="matrix" values="0 0 0 0 0 0 0 0 0 0 0 0 0 0 0 0 0 0 0.03 0"/>
<feBlend mode="normal" in2="BackgroundImageFix" result="effect1_dropShadow_185_139"/>
<feBlend mode="normal" in="SourceGraphic" in2="effect1_dropShadow_185_139" result="shape"/>
</filter>
</defs>
</svg>
