<svg width="154" height="157" viewBox="0 0 154 157" fill="none" xmlns="http://www.w3.org/2000/svg">
<g filter="url(#filter0_d_185_408)">
<rect width="128" height="128" transform="translate(13)" fill="white"/>
<path fill-rule="evenodd" clip-rule="evenodd" d="M119.743 69.281C119.662 68.9715 119.424 68.4719 119.424 68.131V68.0667C119.424 67.9623 119.462 67.8751 119.552 67.8751C119.764 67.8751 119.912 68.0641 120.002 68.1799L120.319 68.2586C120.517 67.9618 120.958 67.1884 120.958 66.7251L120.972 66.5311L120.894 65.8304C120.694 65.8135 120.667 65.7664 120.447 65.7664C120.04 65.7664 119.481 65.6988 119.142 65.6007C118.902 65.5309 118.274 65.2101 118.274 64.9997C118.274 64.7919 118.329 64.9513 118.408 64.715L120.255 64.4245H120.702C120.806 64.4245 120.894 64.3865 120.894 64.2971C120.894 64.1018 120.832 64.0389 120.766 63.9133V63.4024C121.072 63.2404 121.369 63.0702 121.405 62.6354C121.1 62.6608 120.775 62.891 120.383 62.891C120.153 62.891 119.743 62.4773 119.743 62.124C119.743 61.7663 120.577 61.4854 120.958 61.4854H121.724C122.291 61.4854 123.066 61.7531 123.066 62.2519C123.066 62.956 122.022 63.2076 121.513 63.4756L121.916 64.3608H122.235C122.909 64.3608 123.658 64.5485 123.897 64.9997V65.191C123.897 65.5764 123.178 65.8941 122.683 65.8941L122.155 65.8952L122.235 66.9167C122.314 68.274 121.75 69.9198 120.51 69.9198C120.226 69.9198 119.811 69.536 119.743 69.281ZM77.8307 69.6819C78.1141 69.5318 78.981 69.2149 78.981 68.8512C78.981 68.6435 77.9531 68.2967 77.6396 68.3398L77.0666 68.4209C76.6831 68.4558 76.645 68.2782 76.1458 68.3802C75.883 68.4339 75.4948 68.4796 75.2114 68.4677L73.2312 68.3836L72.5273 68.4037H72.3997L71.8948 68.612L71.828 68.7886L71.8243 68.9152C71.8243 69.2678 72.6981 69.9373 72.9106 69.9373H72.9748C73.2093 69.9373 73.1228 69.7454 73.3581 69.7454H73.4857C73.8431 69.7454 74.7132 69.6555 74.8916 69.6819L75.9153 69.8046L76.0416 69.8096L76.2956 69.6782L76.4251 69.6819H77.8307ZM76.0416 66.678L76.1114 66.5541L75.9182 66.1645L75.7858 66.1674L75.2133 66.0865L74.9553 66.1034H74.8276C74.6466 66.1988 74.5958 66.2887 74.3162 66.2951C74.2644 66.072 74.1888 66.0799 74.1888 65.8476V65.2087C74.3696 65.2235 74.4444 65.2074 74.4444 65.4004V65.656L74.52 65.8433L75.0195 65.8476L75.0798 65.6544L75.2114 65.656H75.4667L76.1431 65.1138L76.1698 64.7615C76.1698 64.5295 76.094 64.5371 76.0416 64.314H75.6584C75.4681 64.4055 75.0919 64.5696 74.8276 64.5696H74.572L74.3183 64.7013L74.1888 64.6976C74.0318 64.6976 74.0091 64.6529 73.9972 64.5057L73.9158 63.4209L73.9332 63.164H74.3799C74.5794 63.164 74.7497 63.2808 74.8916 63.3556H76.0416C76.2237 63.4519 76.3194 63.4352 76.3609 63.6752L76.6202 65.3359C76.6358 65.4424 76.4891 65.8225 76.4891 66.1034V66.4869C76.4891 66.6104 76.5089 66.6006 76.5531 66.678L76.6971 66.9268L76.936 66.9339C77.5321 66.9339 78.0866 66.1531 78.0866 65.5283V64.8894C78.0866 64.5403 78.2143 64.535 78.2143 64.1864V63.4836L78.0832 63.2296L78.0866 63.1003L78.0068 62.5913L77.7023 62.4633L77.5754 62.461C77.2635 62.461 76.9744 62.3079 76.5531 62.3333L75.2762 62.4163L74.572 62.3973H74.4444L74.0627 62.5913L73.9332 62.5886C73.7389 62.5886 73.6993 62.5595 73.5494 62.5249L73.2293 62.6505L73.2304 62.7805V63.1003L72.9666 63.5425L72.9748 63.6752L72.7494 65.3961L72.7832 66.1034C72.7832 66.53 72.9656 66.5274 72.9748 66.9339C73.1329 67.0399 73.2013 67.218 73.4218 67.2535L73.9332 67.3187C74.0762 67.2215 74.1573 67.0618 74.3162 67.0618H74.6997C75.3124 67.0618 75.5127 66.7423 75.6584 66.7423H75.7221C75.8949 66.7423 75.8986 66.7116 76.0416 66.678ZM72.4631 57.6684H72.0161C71.7717 57.6684 71.9932 57.688 71.8108 57.6L71.6358 58.1151L71.6966 58.4992C71.7748 58.4553 71.7651 58.4352 71.888 58.4352C72.1948 58.4352 72.9748 58.3031 72.9748 57.988V57.5408C72.6946 57.5408 72.6346 57.5659 72.4631 57.6684ZM72.7832 61.5665C72.5892 61.8562 72.3013 62.0669 72.0553 62.4364C71.8806 62.6986 71.5549 63.2277 71.1854 63.2277C70.8067 63.2277 70.4985 62.6682 70.3552 62.3973V61.9498L70.3631 61.8261L70.7303 60.9287L70.6742 60.4799L70.6515 59.7755L70.7919 57.6687L70.8019 56.2628L70.7924 56.1386L70.6742 55.7514H70.8661C71.2489 55.7514 71.3075 55.8188 71.441 56.0709V56.2628C71.441 56.3995 71.556 56.5375 71.6984 56.5306L72.7187 56.3905L72.8456 56.3868L73.0385 56.3265L73.0369 55.799L72.1438 55.8793C71.9022 55.9031 71.4347 55.5939 71.2491 55.4961H71.122L70.9919 55.5098L70.4184 55.4321C70.3589 55.1747 70.2268 55.1128 70.2268 54.8569L70.2315 54.4852L70.4184 54.4094L70.5458 54.4036L71.1854 54.3457H72.2075C72.5398 54.3457 72.9423 54.1443 73.1662 54.0261H74.0609C74.452 54.2331 74.4359 54.2875 74.6365 54.6652L74.6344 54.7926L74.5861 55.559L74.6365 56.6461V57.2215C74.4705 57.5337 74.4766 57.6745 74.3714 58.043C74.2969 58.3052 74.0905 58.3937 73.9332 58.6911V58.8827C73.749 59.0944 73.6533 59.2559 73.3189 59.3553C73.1551 59.4042 72.4782 59.6495 72.4631 59.6495C72.1013 59.6495 72.0991 59.5215 71.6329 59.5215V61.1193C72.1028 61.1087 72.2168 60.7136 72.6909 60.6924L72.9103 60.9914L72.7832 61.5665ZM77.3835 55.624H77.5754V56.3905C77.5754 56.8034 77.4713 57.1115 77.3946 57.4242C77.2342 58.0789 77.2826 57.7607 76.8089 57.988V57.6684C76.8089 57.3349 76.936 57.2989 76.936 57.0293C76.936 56.9466 76.8369 56.7048 76.8089 56.5824L76.4957 56.3802L76.3609 56.3905C76.1754 56.3905 76.128 56.525 75.9142 56.5824V57.4768C75.9142 57.6034 75.6362 57.8519 75.5307 58.0517V58.4352C75.5307 58.63 75.5016 58.6691 75.4667 58.8187C75.6163 59.1015 75.5032 58.9884 75.7858 59.1383H75.9784L76.8063 58.9971C76.7502 59.71 76.3141 59.9164 76.0416 60.2883L75.966 60.9258C75.9766 60.9377 76.025 61.0559 76.0416 61.1193H76.2972C76.6176 61.1193 77.0426 60.7022 77.4475 60.6079C77.5241 60.9356 77.8836 61.6551 78.2143 61.6944L79.6175 61.8443L79.94 61.8218C80.5212 61.8218 81.0445 61.2813 81.2813 60.9274C81.0585 60.4622 81.1341 60.5106 80.7067 60.2246V60.0967C80.7067 59.9148 80.5785 59.6495 80.4509 59.6495C80.2196 59.6495 80.1797 60.282 79.6838 60.5439H79.5562L79.1076 60.6002L78.7286 60.5288C78.5925 60.0457 78.3422 59.9719 78.3422 59.202V59.1383C78.3422 58.8084 79.3386 58.464 79.6838 58.4352C79.706 58.1728 79.7483 58.2925 79.7483 58.0517C79.7483 57.7004 79.1417 57.2009 79.0447 56.8375H78.8536L78.6945 57.5342L78.598 57.5408V57.2852L78.7455 56.2018L78.7257 56.0709C78.6594 55.9454 78.598 55.8828 78.598 55.6877C78.598 55.5471 79.0104 55.4961 79.1727 55.4961C79.289 55.4961 79.6838 55.2167 79.6838 55.0486C79.6838 54.7739 79.6093 54.702 79.5562 54.4736L78.727 54.3948L77.8323 54.3288C77.7488 54.3399 77.6151 54.5423 77.5754 54.601H77.4475L76.8753 54.6821L76.8089 54.6652L76.1048 54.6103C75.8717 54.5772 75.8965 54.6454 75.6584 54.6652C75.6584 55.5907 76.4391 55.624 77.3835 55.624ZM72.8469 60.0967V60.2246L73.4857 61.3109C73.5431 61.3794 73.4093 61.3749 73.6774 61.3749H73.805C74.0577 61.2409 74.572 60.9602 74.572 60.6079C74.572 60.1673 74.0815 60.0436 73.9332 59.8414C73.6335 59.816 73.6168 59.7132 73.2944 59.7132H73.1022L72.8485 59.8445L72.8469 60.0967ZM89.6481 63.0892V62.8976C89.6481 62.4998 89.0481 62.6013 89.0093 62.1308H89.7118V62.2588H89.9037C90.0269 62.2588 90.0171 62.2384 90.0956 62.1948C90.1836 62.3264 90.287 62.3608 90.287 62.5143V62.642C90.1543 62.8936 90.0864 63.1344 89.7755 63.2174C89.7636 63.3633 89.7168 63.6007 89.5842 63.6007C89.4951 63.6007 89.4568 63.5137 89.4568 63.409C89.4568 63.2824 89.6481 63.3152 89.6481 63.0892ZM87.6031 62.5143C87.7062 62.4427 87.8048 62.3867 87.9869 62.3867C88.1085 62.3867 88.1524 62.5939 88.1786 62.7057C88.1854 63.0483 88.3036 63.3794 88.5615 63.4727C88.4651 63.8364 88.1143 63.6377 88.1143 63.9839V64.1755L88.4341 64.7504C88.6025 64.8345 88.381 64.8146 88.6258 64.8146H88.8174C89.1663 64.8146 89.1713 64.6867 89.5202 64.6867H89.7118L89.7911 65.0671C89.5075 65.1329 88.9147 65.3256 88.6895 65.3256H88.6258C88.3937 65.3256 88.2692 65.3795 88.1143 65.4535C88.0313 65.6219 88.0506 65.4009 88.0506 65.6456V65.7733C88.0506 65.998 88.5341 66.2203 88.7532 66.2203H89.6481C89.6817 66.3635 89.7118 66.3677 89.7118 66.5401V67.6261C89.8931 67.6684 89.8213 67.6904 89.9682 67.6904C90.056 67.6904 90.6694 66.9188 90.7344 66.7957V66.5401L90.9287 66.1579L91.054 66.1566H91.3101C91.4859 66.1566 91.6183 65.9485 91.6931 65.8373V65.5814C91.4991 65.4789 91.0841 65.2164 90.8618 65.1979L90.7294 64.6883C90.9411 64.5776 90.9107 64.5406 91.1177 64.4311H91.5009L91.5707 64.3069C91.4706 63.8988 90.8618 63.7471 90.8618 63.409C90.8618 63.3052 91.2797 63.103 91.424 62.8846C91.5633 62.6753 91.6376 62.4197 91.7568 62.1948C92.3293 62.1821 93.9752 61.5977 93.866 62.7697L93.7835 63.5988L93.8018 64.7504V64.8786C93.7547 64.9669 93.6102 65.2201 93.6102 65.3256C93.6102 65.8574 93.7997 65.7207 93.6628 66.4013C93.5991 66.7195 93.4978 67.0298 93.418 67.3705L93.2253 67.4311L93.0985 67.4345H92.6518C92.5466 67.4345 92.4596 67.4726 92.4596 67.5624C92.4596 68.0022 92.8434 68.3046 92.8434 68.4569V68.6485C92.943 68.8375 93.2346 69.2239 93.4822 69.2239H93.9294C94.6193 68.8589 94.6719 68.5866 94.9589 67.8252C95.1744 67.2548 95.5272 66.7687 95.5272 65.9649V65.7093C95.5272 65.1786 95.5986 64.7449 95.6554 64.24C95.7228 63.6311 95.6543 63.4283 95.6543 62.7697V61.8752C95.6543 61.0691 94.7597 60.8066 93.9294 60.8529L92.3333 60.9351C91.5496 60.9602 90.9462 61.1722 89.9682 61.1722L88.8169 61.2279C88.8866 60.9774 89.3732 60.5468 89.5842 60.4054V60.2777L89.9156 59.8382L90.0319 59.8305H90.8618L91.5657 59.5123L91.6931 59.511H92.0124C92.1673 59.511 92.5236 59.1552 92.5236 58.9998C92.5236 58.5142 92.3282 58.3361 92.0124 58.1691H91.5009C91.1684 58.1691 91.4201 57.7855 91.1817 57.7855C91.0466 57.7855 91.0976 57.8083 90.9263 57.8495L90.7186 58.2883C90.5917 58.2587 90.5426 58.2819 90.5426 58.1051V58.0414C90.5426 57.6925 90.6707 57.6872 90.6707 57.3383V55.8051C90.4442 55.3774 90.2225 55.2941 89.84 55.038C89.4499 55.1289 89.5199 55.2252 89.2646 55.2936C89.239 55.6031 89.1372 55.694 89.1372 56.0601V56.7634C89.1372 57.0473 88.9813 57.4044 88.8808 57.5939V58.1691C88.8081 58.3073 88.7696 58.4886 88.5615 58.4886H87.7311C87.5931 58.5616 87.4118 58.5999 87.4118 58.8079V58.9998C87.4118 59.3051 88.2425 59.6955 88.2425 59.8945C88.2425 60.4345 87.1369 62.2588 86.7729 62.2588C86.6831 62.2588 86.6447 62.1715 86.6447 62.0669V62.0032C86.6447 61.8557 86.6001 61.8113 86.4529 61.8113H86.3249C85.9636 61.8113 85.559 62.8603 85.559 63.3448C85.559 63.9321 85.2711 64.4517 85.2389 64.9426L85.1643 66.3477L85.1752 66.7957L85.0951 68.3284C85.0845 68.7809 85.4701 69.1502 85.559 69.4792H85.814C86.5433 69.4792 86.7087 68.6918 86.7087 67.9454V65.5814L86.6886 64.1116L86.7087 62.642H86.9003C87.2476 62.642 87.2442 62.522 87.6031 62.5143ZM103.524 65.8809C103.306 66.207 103.365 66.3336 103.013 66.52C102.803 66.8343 102.723 66.7425 102.502 67.1588H102.247C102.229 67.2244 102.014 67.7461 101.97 67.7763C101.9 67.8228 101.765 67.8053 101.657 67.9111C101.593 67.974 101.578 68.0504 101.465 68.1659C100.933 68.7074 101.178 68.5668 100.457 68.948V69.2038L100.651 69.2641L100.777 69.2678C101.687 69.2678 101.974 68.7275 102.605 68.5393C103.199 68.3622 103.02 68.4653 103.413 68.0696C103.667 67.8133 103.875 67.7427 104.148 67.526C104.896 66.9318 104.798 66.9069 105.29 66.1132C105.644 65.5428 105.897 65.0631 106.209 64.475C106.327 64.2281 106.296 63.7082 106.592 63.7082C106.7 63.7082 106.842 64.2168 106.912 64.3471V64.475C106.966 64.5379 107.613 65.7479 107.699 65.9237C107.889 66.3051 107.896 66.3215 108.14 66.6328C108.313 66.8546 108.47 67.0275 108.566 67.2934C108.805 67.9549 109.076 68.1259 109.657 68.4386C109.902 68.5703 110.969 69.0759 111.257 69.0759C111.756 69.0759 112.266 68.9974 112.47 68.6924C112.327 68.076 112.26 68.1236 111.791 67.8381C111.435 67.6216 111.436 67.4028 111.041 67.1184C110.303 66.5861 110.092 66.3979 109.545 65.675C109.123 65.1178 108.725 64.5295 108.237 64.0439C107.945 63.7545 107.907 63.4722 107.722 63.09C107.647 62.9375 107.55 62.7094 107.464 62.5799C107.277 62.2984 107.203 62.5006 107.167 62.1747L108.189 62.1076L108.509 62.1107C109.29 62.1107 109.954 61.9387 110.234 61.4079V61.28C110.234 60.6488 110.039 60.1937 109.403 60.1937H108.892C108.543 60.1937 108.538 60.3216 108.189 60.3216H107.423L107.496 59.1721L107.476 57.9571L107.568 57.0637C107.568 56.8073 107.264 56.6038 107.039 56.5515L106.594 56.6318C106.535 56.8567 106.464 57.0151 106.464 57.3182V57.3819C106.464 57.8529 106.273 58.0173 106.273 58.4046V58.7878L106.196 60.2566C106.008 60.2746 105.982 60.3216 105.761 60.3216H105.697C105.256 60.3216 105.087 60.5772 104.931 60.5772H104.867C104.533 60.5772 104.496 60.4495 104.228 60.4495C104.045 60.4495 103.505 61.0117 103.397 61.216V61.3437C103.397 61.7811 103.917 62.1382 104.228 62.3024H104.483C104.977 62.3024 105.101 62.1107 105.569 62.1107C105.486 62.2791 105.506 62.0579 105.506 62.3024C105.506 62.5947 105.23 63.1096 105.122 63.3247C104.941 63.6868 104.878 63.9369 104.732 64.3407C104.568 64.7967 104.198 64.8149 104.06 65.0739C103.824 65.5151 104.013 65.5534 103.524 65.8809ZM124.344 59.8876H120.958C120.991 59.5829 120.87 59.7798 121.149 59.6318V59.3125L121.413 58.87L121.405 58.7376V58.2901L121.274 58.0366L121.277 57.8429C121.173 57.7559 121.169 56.3733 121.277 56.3733V56.1175C121.382 56.0932 121.599 56.0657 121.704 56.0326C121.884 55.9755 121.865 55.8619 122.044 55.8619H122.619C122.829 55.8619 122.859 55.9909 122.874 56.1814C122.302 56.3149 122.157 56.6199 121.916 57.0764V57.3957C122.076 57.697 122.491 58.1807 122.491 58.4817C122.491 58.5449 121.661 59.1475 121.661 59.4401V59.5044C121.661 59.7351 121.822 59.696 122.044 59.696C122.32 59.2842 122.479 59.2633 122.876 58.994C123.211 58.7651 123.268 58.4291 123.769 58.418C123.874 58.2745 124.107 58.0974 124.297 57.8593C124.474 57.6375 124.535 57.4467 124.663 57.2038V56.7563C124.542 56.5277 124.547 56.4645 124.217 56.437L124.151 55.9264C124.507 55.3959 124.94 55.5886 125.303 54.9034V54.6478C125.089 54.5347 124.908 54.3988 124.6 54.3919C124.504 54.2489 124.344 54.1675 124.344 54.0087V53.8171C124.344 53.1042 124.102 53.0384 123.642 52.7944C123.391 52.8528 122.81 53.1018 122.81 53.3698C122.81 53.7124 122.939 53.8099 122.939 54.2003V54.3919C122.939 54.8085 121.669 54.8391 121.341 55.287C121.203 55.2138 121.021 55.1755 121.021 54.9673V54.328C120.823 53.9521 120.63 53.5742 120.063 53.5615L119.948 53.4209C119.754 53.5295 119.488 53.673 119.488 53.945C119.488 54.2479 119.536 54.4596 119.592 54.7347C119.657 55.0454 119.552 55.1805 119.552 55.4786V55.6703C119.552 55.9591 119.447 55.9658 119.495 56.2364C119.528 56.4264 119.616 56.4592 119.616 56.7563V57.2038L119.67 58.1632C119.716 58.6411 119.488 58.9654 119.488 59.4401C119.488 59.6154 119.616 59.6489 119.616 59.8239C119.616 59.8414 119.572 59.9405 119.552 60.0155C119.24 60.088 119.292 60.1987 118.913 60.2072V60.0795C119.239 59.9923 119.056 59.936 119.297 59.7599L119.374 59.1867L119.397 57.0119C119.425 56.7336 119.328 56.5538 119.233 56.3733V55.5426C118.954 55.0174 118.677 54.8563 118.466 54.4562H118.338C117.943 54.4562 117.716 54.9494 117.571 55.223V56.1175L117.591 57.3957L117.571 57.4594V57.5873C117.668 57.771 117.762 57.9444 117.762 58.2264V58.929C117.762 59.086 117.908 59.6365 117.959 59.7547C118.092 60.0589 118.291 59.9688 118.466 60.2072C117.878 60.2558 116.943 60.7823 116.931 60.7823H116.804L116.55 60.6509L116.421 60.6546C116.003 60.6546 115.207 61.8848 115.207 62.3801V62.891L115.684 63.505C115.853 63.5465 115.881 63.5935 116.102 63.5935H116.548C116.838 63.4405 117.033 63.3118 117.187 63.0189V62.5714C117.134 62.4697 116.996 62.2825 116.996 62.1882V61.741C117.075 61.5898 117.373 61.2295 117.571 61.2295H117.955L120.892 61.0133L122.81 61.0379L124.152 61.1101C124.246 61.1079 124.357 61.1367 124.344 61.2295L124.268 61.867C124.66 61.8684 124.746 61.7391 124.983 61.613C125.222 61.6685 125.461 61.741 125.75 61.741C126.156 61.741 126.58 61.5536 126.58 61.1019C126.58 60.6488 125.899 60.5991 125.573 60.385C125.303 60.208 124.746 59.8876 124.344 59.8876Z" fill="#0F0708"/>
<path fill-rule="evenodd" clip-rule="evenodd" d="M70.1538 72.8228V72.7187H71.7782V72.8228H71.6413C71.4864 72.8228 71.3736 72.8688 71.3035 72.9595C71.2583 73.0197 71.2356 73.1627 71.2356 73.3898V75.245C71.2356 75.5304 71.2052 75.762 71.1415 75.9383C71.0796 76.1159 70.9721 76.2702 70.8196 76.4011C70.666 76.5332 70.4812 76.5985 70.265 76.5985C70.0898 76.5985 69.9521 76.5549 69.8509 76.4687C69.7509 76.3818 69.7002 76.2824 69.7002 76.1709C69.7002 76.0794 69.7232 76.011 69.7697 75.9642C69.8318 75.9058 69.9037 75.8769 69.9857 75.8769C70.0451 75.8769 70.0996 75.8962 70.1461 75.9354C70.1937 75.9742 70.2539 76.0794 70.3261 76.2494C70.3694 76.3498 70.4241 76.4003 70.4913 76.4003C70.542 76.4003 70.5891 76.3696 70.6332 76.3075C70.6771 76.2467 70.699 76.1365 70.699 75.98V73.3898C70.699 73.1982 70.6866 73.0713 70.6628 73.01C70.6433 72.9632 70.6047 72.923 70.5447 72.89C70.4649 72.8448 70.38 72.8228 70.2904 72.8228H70.1538ZM73.8663 76.4087V76.5121H72.2408V76.4087H72.3756C72.5318 76.4087 72.6457 76.3633 72.716 76.2713C72.7607 76.2121 72.7839 76.068 72.7839 75.8407V73.3898C72.7839 73.1982 72.7718 73.0713 72.7477 73.01C72.7287 72.9632 72.6904 72.923 72.6327 72.89C72.5511 72.8448 72.4654 72.8228 72.3756 72.8228H72.2408V72.7187H73.8663V72.8228H73.7288C73.5742 72.8228 73.4616 72.8688 73.3908 72.9595C73.3437 73.0197 73.3207 73.1627 73.3207 73.3898V75.8407C73.3207 76.0326 73.3326 76.1598 73.3567 76.2208C73.376 76.2673 73.4154 76.3075 73.4743 76.3411C73.5544 76.3863 73.6392 76.4087 73.7288 76.4087H73.8663ZM74.2168 72.7187H75.2463L77.5651 75.5643V73.3766C77.5651 73.144 77.5381 72.9975 77.4868 72.9402C77.417 72.8622 77.3081 72.8228 77.1591 72.8228H77.0274V72.7187H78.3482V72.8228H78.2132C78.0527 72.8228 77.9396 72.8715 77.8725 72.9679C77.8317 73.0282 77.8114 73.1638 77.8114 73.3766V76.5731H77.7102L75.2098 73.5188V75.8553C75.2098 76.0881 75.2349 76.2332 75.2851 76.2911C75.3559 76.3696 75.4659 76.4087 75.6126 76.4087H75.7463V76.5121H74.4271V76.4087H74.558C74.72 76.4087 74.8347 76.3601 74.9024 76.2626C74.9434 76.2036 74.9632 76.067 74.9632 75.8553V73.2174C74.8537 73.0882 74.77 73.0036 74.7137 72.9624C74.6563 72.9214 74.5728 72.8834 74.4631 72.8477C74.4092 72.8313 74.3267 72.8228 74.2168 72.8228V72.7187ZM81.3363 75.2421H79.8683L79.6108 75.8407C79.5469 75.9877 79.5154 76.0979 79.5154 76.1709C79.5154 76.2285 79.5432 76.2792 79.5979 76.3228C79.6529 76.3667 79.7715 76.3953 79.9547 76.4087V76.5121H78.7605V76.4087C78.9191 76.3802 79.0212 76.344 79.0682 76.2991C79.1634 76.2102 79.2683 76.0276 79.3838 75.754L80.7183 72.633H80.8161L82.1363 75.7873C82.2423 76.0414 82.3388 76.2058 82.4258 76.2808C82.5127 76.3564 82.6335 76.3992 82.7881 76.4087V76.5121H81.2916V76.4087C81.442 76.4011 81.5445 76.3754 81.5979 76.3326C81.6513 76.2903 81.678 76.2377 81.678 76.1762C81.678 76.0937 81.64 75.965 81.5652 75.7873L81.3363 75.2421ZM81.258 75.0351L80.6147 73.5026L79.9547 75.0351H81.258ZM83.0633 72.7187H84.0922L86.4118 75.5643V73.3766C86.4118 73.144 86.3846 72.9975 86.3333 72.9402C86.2638 72.8622 86.1544 72.8228 86.0059 72.8228H85.8742V72.7187H87.1945V72.8228H87.0599C86.8995 72.8228 86.7853 72.8715 86.719 72.9679C86.6775 73.0282 86.6579 73.1638 86.6579 73.3766V76.5731H86.5569L84.0566 73.5188V75.8553C84.0566 76.0881 84.0811 76.2332 84.1319 76.2911C84.2019 76.3696 84.3119 76.4087 84.4591 76.4087H84.5931V76.5121H83.2729V76.4087H83.4042C83.5668 76.4087 83.6815 76.3601 83.7492 76.2626C83.7899 76.2036 83.8097 76.067 83.8097 75.8553V73.2174C83.7 73.0882 83.6159 73.0036 83.5597 72.9624C83.5026 72.9214 83.4193 72.8834 83.3096 72.8477C83.2552 72.8313 83.1732 72.8228 83.0633 72.8228V72.7187ZM92.8719 72.8228V72.7187H94.2156V72.8228H94.0721C93.9233 72.8228 93.8083 72.8849 93.7285 73.01C93.6894 73.0684 93.6693 73.2018 93.6693 73.413V74.9511C93.6693 75.3322 93.632 75.6269 93.5565 75.836C93.4814 76.0458 93.3323 76.2264 93.1116 76.3765C92.8899 76.5264 92.5893 76.6017 92.2095 76.6017C91.7953 76.6017 91.4808 76.5301 91.2672 76.3863C91.0518 76.2428 90.9009 76.0498 90.811 75.8074C90.7518 75.6412 90.7207 75.3301 90.7207 74.8728V73.3898C90.7207 73.1569 90.6895 73.0044 90.6247 72.9317C90.561 72.8593 90.4563 72.8228 90.3133 72.8228H90.1704V72.7187H91.8096V72.8228H91.6642C91.5078 72.8228 91.3949 72.8715 91.328 72.9708C91.2818 73.0377 91.2583 73.1783 91.2583 73.3898V75.0438C91.2583 75.1905 91.2717 75.36 91.299 75.5497C91.3259 75.7395 91.3751 75.8888 91.4465 75.9946C91.5165 76.1003 91.6183 76.1883 91.7528 76.257C91.8855 76.3268 92.0493 76.3609 92.2431 76.3609C92.491 76.3609 92.7125 76.3065 92.9084 76.1986C93.1037 76.091 93.2388 75.9523 93.3099 75.7836C93.382 75.6145 93.4182 75.329 93.4182 74.9262V73.3898C93.4182 73.1532 93.3915 73.0052 93.3397 72.946C93.2665 72.8638 93.1584 72.8228 93.0149 72.8228H92.8719ZM94.4874 72.7187H95.5169L97.8357 75.5643V73.3766C97.8357 73.144 97.8092 72.9975 97.7572 72.9402C97.6876 72.8622 97.5787 72.8228 97.4302 72.8228H97.298V72.7187H98.6183V72.8228H98.484C98.3236 72.8228 98.2094 72.8715 98.1433 72.9679C98.1018 73.0282 98.0815 73.1638 98.0815 73.3766V76.5731H97.9805L95.4801 73.5188V75.8553C95.4801 76.0881 95.5052 76.2332 95.556 76.2911C95.6265 76.3696 95.7362 76.4087 95.8829 76.4087H96.0167V76.5121H94.6972V76.4087H94.8283C94.9903 76.4087 95.1051 76.3601 95.1727 76.2626C95.214 76.2036 95.2343 76.067 95.2343 75.8553V73.2174C95.1241 73.0882 95.0403 73.0036 94.9835 72.9624C94.9266 72.9214 94.8439 72.8834 94.7342 72.8477C94.6793 72.8313 94.597 72.8228 94.4874 72.8228V72.7187ZM100.754 76.4087V76.5121H99.1281V76.4087H99.2632C99.4194 76.4087 99.5328 76.3633 99.6036 76.2713C99.6486 76.2121 99.6718 76.068 99.6718 75.8407V73.3898C99.6718 73.1982 99.6592 73.0713 99.6354 73.01C99.6161 72.9632 99.578 72.923 99.5212 72.89C99.439 72.8448 99.3528 72.8228 99.2632 72.8228H99.1281V72.7187H100.754V72.8228H100.617C100.462 72.8228 100.35 72.8688 100.278 72.9595C100.232 73.0197 100.208 73.1627 100.208 73.3898V75.8407C100.208 76.0326 100.221 76.1598 100.244 76.2208C100.263 76.2673 100.303 76.3075 100.362 76.3411C100.442 76.3863 100.527 76.4087 100.617 76.4087H100.754ZM105.247 72.7187V72.8228C105.112 72.8466 105.012 72.89 104.942 72.9508C104.843 73.0425 104.755 73.1828 104.679 73.371L103.356 76.5985H103.253L101.832 73.329C101.759 73.1609 101.708 73.0586 101.677 73.0213C101.631 72.9632 101.574 72.9185 101.506 72.8857C101.438 72.8524 101.346 72.8323 101.231 72.8228V72.7187H102.78V72.8228C102.604 72.8392 102.491 72.8699 102.438 72.9119C102.387 72.9547 102.36 73.01 102.36 73.0768C102.36 73.1707 102.403 73.3158 102.489 73.5132L103.454 75.7369L104.349 73.542C104.437 73.3255 104.48 73.1752 104.48 73.0914C104.48 73.0369 104.454 72.9851 104.399 72.9354C104.345 72.8868 104.254 72.8516 104.125 72.8313C104.115 72.8297 104.1 72.8268 104.078 72.8228V72.7187H105.247ZM106.8 72.9262V74.4248H107.634C107.851 74.4248 107.995 74.3926 108.067 74.3276C108.165 74.2417 108.218 74.0907 108.23 73.874H108.333V75.1945H108.23C108.204 75.01 108.177 74.8919 108.151 74.8393C108.118 74.7745 108.063 74.7227 107.987 74.6857C107.91 74.6484 107.793 74.6294 107.634 74.6294H106.8V75.8799C106.8 76.0477 106.808 76.15 106.822 76.1865C106.838 76.2229 106.864 76.2515 106.901 76.2734C106.938 76.2946 107.01 76.3046 107.113 76.3046H107.757C107.971 76.3046 108.127 76.2903 108.224 76.2597C108.321 76.2303 108.414 76.1722 108.504 76.0842C108.619 75.9687 108.737 75.794 108.859 75.5608H108.97L108.644 76.5121H105.72V76.4087H105.855C105.944 76.4087 106.029 76.3871 106.109 76.344C106.169 76.3144 106.209 76.2697 106.232 76.2102C106.252 76.15 106.263 76.0276 106.263 75.8436V73.3797C106.263 73.1387 106.239 72.9909 106.191 72.9346C106.124 72.8604 106.012 72.8228 105.855 72.8228H105.72V72.7187H108.644L108.686 73.5494H108.576C108.537 73.3499 108.495 73.2137 108.446 73.1387C108.398 73.0647 108.329 73.0073 108.235 72.9679C108.161 72.9402 108.029 72.9262 107.841 72.9262H106.8ZM113.26 76.5121H112.247L110.963 74.7391C110.869 74.742 110.791 74.7438 110.731 74.7438C110.707 74.7438 110.681 74.7438 110.653 74.7428C110.625 74.742 110.597 74.7407 110.566 74.7391V75.8407C110.566 76.0794 110.592 76.2274 110.644 76.2861C110.716 76.3678 110.821 76.4087 110.963 76.4087H111.112V76.5121H109.487V76.4087H109.63C109.789 76.4087 109.905 76.3564 109.973 76.2523C110.012 76.1939 110.032 76.0564 110.032 75.8407V73.3898C110.032 73.1514 110.005 73.0036 109.954 72.946C109.881 72.8638 109.773 72.8228 109.63 72.8228H109.487V72.7187H110.869C111.271 72.7187 111.568 72.7486 111.759 72.8075C111.95 72.8659 112.113 72.9743 112.246 73.1313C112.379 73.2904 112.446 73.477 112.446 73.6956C112.446 73.9287 112.37 74.1309 112.218 74.3027C112.065 74.4737 111.83 74.595 111.512 74.6659L112.295 75.754C112.473 76.0041 112.628 76.1703 112.756 76.2523C112.885 76.3334 113.053 76.3863 113.26 76.4087V76.5121ZM110.566 74.5625C110.602 74.5625 110.633 74.5625 110.658 74.5633C110.684 74.5641 110.706 74.5654 110.722 74.5654C111.084 74.5654 111.358 74.4869 111.54 74.3305C111.724 74.174 111.817 73.9744 111.817 73.7318C111.817 73.4947 111.742 73.302 111.594 73.1543C111.446 73.0063 111.249 72.9317 111.005 72.9317C110.897 72.9317 110.751 72.95 110.566 72.9851V74.5625ZM116.122 72.633V73.9448H116.019C115.985 73.6927 115.925 73.4923 115.839 73.3433C115.752 73.1931 115.627 73.0747 115.467 72.988C115.307 72.9003 115.141 72.8564 114.97 72.8564C114.776 72.8564 114.615 72.9156 114.489 73.0337C114.362 73.1524 114.299 73.2867 114.299 73.4379C114.299 73.5531 114.339 73.6594 114.419 73.7537C114.534 73.8938 114.81 74.0804 115.243 74.3135C115.598 74.5031 115.841 74.6495 115.969 74.7515C116.099 74.8527 116.2 74.973 116.269 75.1102C116.339 75.2484 116.374 75.393 116.374 75.5437C116.374 75.8312 116.263 76.0789 116.04 76.2869C115.817 76.4946 115.531 76.5985 115.18 76.5985C115.069 76.5985 114.966 76.5903 114.869 76.5731C114.812 76.5644 114.691 76.5301 114.51 76.4719C114.328 76.413 114.213 76.3834 114.164 76.3834C114.117 76.3834 114.081 76.3971 114.053 76.4251C114.026 76.4526 114.007 76.511 113.994 76.5985H113.89V75.2984H113.994C114.042 75.5706 114.108 75.7739 114.19 75.9097C114.272 76.044 114.397 76.1569 114.566 76.2467C114.734 76.3353 114.919 76.3802 115.121 76.3802C115.353 76.3802 115.538 76.3191 115.673 76.1962C115.808 76.0725 115.875 75.9277 115.875 75.7596C115.875 75.6658 115.85 75.5725 115.799 75.477C115.748 75.3816 115.667 75.2939 115.56 75.2117C115.487 75.1551 115.289 75.037 114.964 74.8546C114.64 74.673 114.41 74.5279 114.272 74.4203C114.134 74.3112 114.032 74.1917 113.96 74.0622C113.889 73.9314 113.854 73.787 113.854 73.6308C113.854 73.3586 113.958 73.1247 114.167 72.9278C114.376 72.7314 114.642 72.633 114.964 72.633C115.166 72.633 115.379 72.6814 115.605 72.7808C115.709 72.8278 115.783 72.8506 115.826 72.8506C115.874 72.8506 115.914 72.8363 115.945 72.8075C115.975 72.7782 116 72.7197 116.019 72.633H116.122ZM118.737 76.4087V76.5121H117.111V76.4087H117.245C117.401 76.4087 117.515 76.3633 117.586 76.2713C117.631 76.2121 117.654 76.068 117.654 75.8407V73.3898C117.654 73.1982 117.641 73.0713 117.617 73.01C117.598 72.9632 117.56 72.923 117.503 72.89C117.421 72.8448 117.335 72.8228 117.245 72.8228H117.111V72.7187H118.737V72.8228H118.599C118.444 72.8228 118.332 72.8688 118.261 72.9595C118.214 73.0197 118.19 73.1627 118.19 73.3898V75.8407C118.19 76.0326 118.202 76.1598 118.227 76.2208C118.245 76.2673 118.285 76.3075 118.344 76.3411C118.424 76.3863 118.509 76.4087 118.599 76.4087H118.737ZM122.476 72.7187L122.519 73.6084H122.412C122.392 73.4522 122.364 73.3403 122.328 73.2727C122.27 73.1643 122.193 73.0856 122.097 73.0337C122.001 72.9825 121.875 72.9566 121.719 72.9566H121.184V75.8553C121.184 76.0881 121.21 76.2332 121.26 76.2911C121.33 76.3696 121.439 76.4087 121.587 76.4087H121.719V76.5121H120.11V76.4087H120.245C120.405 76.4087 120.518 76.3601 120.586 76.2626C120.626 76.2036 120.648 76.067 120.648 75.8553V72.9566H120.191C120.015 72.9566 119.889 72.9698 119.814 72.9957C119.717 73.0311 119.633 73.0998 119.565 73.2003C119.496 73.3012 119.455 73.4368 119.442 73.6084H119.336L119.38 72.7187H122.476ZM125.677 72.7187H127V72.8228H126.928C126.879 72.8228 126.809 72.844 126.715 72.8868C126.622 72.9299 126.537 72.9909 126.461 73.0713C126.385 73.1514 126.29 73.2822 126.178 73.4633L125.264 74.9032V75.8553C125.264 76.0881 125.289 76.2332 125.342 76.2911C125.412 76.3696 125.524 76.4087 125.677 76.4087H125.8V76.5121H124.189V76.4087H124.323C124.484 76.4087 124.599 76.3601 124.665 76.2626C124.706 76.2036 124.726 76.067 124.726 75.8553V74.9566L123.685 73.3681C123.563 73.182 123.479 73.0652 123.435 73.0187C123.392 72.9719 123.301 72.9156 123.163 72.8506C123.126 72.8313 123.072 72.8228 123.001 72.8228V72.7187H124.623V72.8228H124.539C124.451 72.8228 124.371 72.8429 124.298 72.8841C124.223 72.9251 124.187 72.9872 124.187 73.0692C124.187 73.1363 124.243 73.2574 124.357 73.4323L125.149 74.655L125.893 73.4857C126.005 73.31 126.061 73.1799 126.061 73.094C126.061 73.0417 126.047 72.9949 126.02 72.9537C125.993 72.9124 125.954 72.8812 125.905 72.8575C125.853 72.8345 125.778 72.8228 125.677 72.8228V72.7187Z" fill="#0F0708"/>
<path fill-rule="evenodd" clip-rule="evenodd" d="M44.2627 47C34.7306 47 27 54.7023 27 64.1998C27 73.6976 34.7306 81.3999 44.2627 81.3999C53.7946 81.3999 61.5247 73.6976 61.5247 64.1998C61.5247 54.7023 53.7946 47 44.2627 47ZM41.1904 71.5437V69.4898H40.9517L40.4987 69.8421V70.118L40.9475 69.7504V71.5437H41.1904ZM42.8746 70.8882C43.0762 70.8882 43.2216 70.8541 43.3083 70.7852C43.3955 70.7164 43.4479 70.6591 43.4653 70.6131C43.4719 70.6271 43.4753 70.6559 43.4753 70.6995C43.4753 70.8523 43.437 71.0011 43.3609 71.1462C43.2853 71.2908 43.1505 71.3651 42.9573 71.3688C42.8555 71.3688 42.7728 71.3545 42.7102 71.3251C42.647 71.2963 42.6018 71.2622 42.574 71.2229C42.5468 71.184 42.5286 71.1451 42.5209 71.106C42.5122 71.068 42.5077 71.045 42.5069 71.0386H42.2595C42.2595 71.1444 42.3042 71.2564 42.3946 71.3751C42.485 71.4935 42.6734 71.5532 42.9618 71.5532C43.2391 71.5469 43.4362 71.4491 43.5531 71.2596C43.6699 71.0701 43.7309 70.8333 43.7365 70.5489C43.7365 70.3342 43.7159 70.1492 43.6749 69.9925C43.6342 69.8368 43.5562 69.7113 43.4418 69.6177C43.3268 69.5236 43.1658 69.476 42.9573 69.476C42.8225 69.476 42.702 69.499 42.5944 69.5439C42.4863 69.5891 42.3985 69.6624 42.3322 69.7641C42.2656 69.8667 42.2307 69.998 42.227 70.1593C42.227 70.3112 42.2513 70.4421 42.2989 70.5499C42.3475 70.6583 42.421 70.7413 42.5175 70.7994C42.615 70.8578 42.734 70.8872 42.8746 70.8882ZM43.4193 70.1767C43.4193 69.8352 43.2623 69.6642 42.9483 69.6642C42.6393 69.6642 42.485 69.8352 42.485 70.1767C42.485 70.3448 42.5246 70.4749 42.6039 70.5668C42.6832 70.6583 42.7982 70.704 42.9483 70.704C43.1008 70.704 43.2179 70.6583 43.2985 70.5676C43.3791 70.4764 43.4193 70.3467 43.4193 70.1767ZM45.7553 70.5074C45.7553 70.3189 45.7326 70.1492 45.6871 69.9962C45.6414 69.8445 45.5587 69.7205 45.441 69.6243C45.3224 69.5286 45.1611 69.4805 44.9579 69.4805C44.7549 69.4805 44.5944 69.5294 44.475 69.6264C44.3566 69.7245 44.2741 69.8498 44.2265 70.0025C44.18 70.1558 44.1562 70.3274 44.1562 70.5161C44.1562 71.2078 44.4234 71.5532 44.9579 71.5532C45.1574 71.5532 45.3168 71.5043 45.4368 71.4055C45.5565 71.3074 45.6387 71.1811 45.6853 71.0267C45.7323 70.8716 45.7553 70.6987 45.7553 70.5074ZM44.9573 69.6869C44.7559 69.6869 44.6201 69.7641 44.5506 69.9193C44.4803 70.0742 44.4451 70.27 44.4451 70.5074C44.4451 70.7492 44.4811 70.9493 44.5524 71.1084C44.6233 71.2673 44.7586 71.3468 44.9573 71.3468C45.2996 71.3468 45.4704 71.0672 45.4704 70.5074C45.4704 70.2716 45.4347 70.0757 45.3633 69.9203C45.2928 69.7649 45.1574 69.6869 44.9573 69.6869ZM47.0377 70.1455C46.8345 70.1455 46.6904 70.1796 46.6035 70.2483C46.5163 70.3171 46.4637 70.3747 46.4454 70.4207C46.4454 70.2285 46.4814 70.0557 46.5522 69.9018C46.6233 69.7475 46.7573 69.6687 46.9537 69.6647C47.0592 69.6647 47.1435 69.6793 47.2069 69.7084C47.2698 69.7374 47.3153 69.7726 47.3436 69.8135C47.3721 69.8545 47.3898 69.8939 47.3964 69.9314C47.4036 69.9682 47.4073 69.9896 47.4078 69.9949H47.6546C47.6546 69.9428 47.6409 69.8788 47.6129 69.8024C47.5846 69.7261 47.5172 69.6534 47.4128 69.5847C47.3079 69.5151 47.1532 69.4805 46.9497 69.4805C46.7602 69.485 46.608 69.5347 46.4938 69.6291C46.3804 69.7234 46.2993 69.845 46.2512 69.9933C46.2033 70.1418 46.1777 70.306 46.174 70.4849C46.174 70.6911 46.1925 70.8716 46.2297 71.0252C46.2662 71.1792 46.3418 71.3069 46.4573 71.4071C46.5718 71.5073 46.738 71.558 46.9537 71.558C47.0888 71.558 47.2095 71.5345 47.3179 71.4895C47.4255 71.4446 47.5124 71.3711 47.5791 71.2704C47.6457 71.1695 47.6798 71.037 47.6832 70.8745C47.6832 70.6401 47.6272 70.4603 47.5167 70.3358C47.4049 70.2111 47.2455 70.1476 47.0377 70.1455ZM46.4954 70.857C46.4954 71.1985 46.6526 71.3698 46.968 71.3698C47.2738 71.3698 47.4265 71.1985 47.4265 70.857C47.4265 70.6882 47.3874 70.5581 47.3095 70.4664C47.2312 70.3755 47.1176 70.3295 46.968 70.3295C46.6526 70.3295 46.4954 70.5055 46.4954 70.857ZM53.7378 64.5524C53.3733 64.7136 53.0014 64.8611 52.6229 64.9949L52.149 66.3378C52.1368 66.3722 52.0903 66.401 52.0457 66.4015L51.9645 66.4029C51.8757 66.4045 51.8221 66.3495 51.8466 66.281L52.2563 65.1191C51.9278 65.2256 51.5947 65.3218 51.2564 65.4072L50.348 67.9742H51.9027C52.0576 67.9742 52.3713 67.8809 52.551 67.6549C53.2351 66.7948 53.622 65.7051 53.7378 64.5524ZM50.0443 67.9742L50.9244 65.4873C50.6091 65.5594 50.2906 65.6218 49.9687 65.675L49.6827 66.4763L49.5365 65.7397C49.2617 65.777 48.9847 65.8071 48.705 65.8301C48.5129 66.5712 48.2589 67.2878 47.9488 67.9742H48.8673L49.1055 67.3174L49.2321 67.9742H50.0443ZM47.0621 55.97L39.2725 59.5268C39.7483 60.394 40.0192 61.3886 40.0192 62.4464C40.0192 63.4399 39.9841 64.5191 39.3568 65.2066L39.2308 65.3448C38.7532 65.9245 38.0295 66.294 37.2199 66.294C36.7053 66.294 36.225 66.1449 35.8209 65.8867L35.8164 65.888L35.1289 65.8904C35.1395 66.7388 36.5142 67.9742 37.1546 67.9742H47.5447C48.3062 66.2887 48.7307 64.4203 48.7307 62.453C48.7307 60.1033 48.1257 57.8939 47.0621 55.97ZM45.0681 63.5248H43.5467V63.899L44.2146 63.8996L45.0681 63.8988V63.5248ZM44.3058 59.7676C44.1893 59.7676 44.0737 59.7734 43.9604 59.7848V60.998H42.6718C42.9325 60.8058 43.2277 60.658 43.5467 60.5666V60.5621C43.5911 60.5494 43.6358 60.5375 43.681 60.527V59.8255C43.6358 59.8339 43.5911 59.8432 43.5467 59.8532V59.8519C42.5653 60.0729 41.742 60.7128 41.2752 61.5742H43.9604V62.9467H43.5467V61.9793H41.0889C41.0178 62.1644 40.9623 62.3568 40.9237 62.5555H42.9702V62.9467H40.8713C40.8647 63.0345 40.8613 63.1233 40.8613 63.2129C40.8613 64.6396 41.7288 65.8637 42.9652 66.387L42.966 66.3875C43.0686 66.4304 43.1738 66.4692 43.2813 66.5025L43.2853 66.5038C43.3096 66.5115 43.3347 66.5192 43.3601 66.526L43.368 66.5282C43.3918 66.5353 43.4164 66.5419 43.4402 66.548L43.4494 66.5504C43.4817 66.5585 43.5137 66.5665 43.5467 66.5739V66.5733C43.5911 66.5834 43.6358 66.5924 43.681 66.6008V65.8994C43.6358 65.8888 43.5911 65.8771 43.5467 65.8647V65.8602C42.4924 65.5576 41.6971 64.6425 41.571 63.5248H42.9702V63.8982L42.0811 63.8975C42.1461 64.0938 42.2336 64.2849 42.3763 64.4903H43.9604V64.8109H42.6446C42.9917 65.159 43.4494 65.3972 43.9604 65.4688V66.6407C44.0737 66.6524 44.1893 66.6582 44.3058 66.6582C44.4234 66.6582 44.5395 66.6524 44.6539 66.6407V65.4624C45.1482 65.3839 45.5898 65.1495 45.9279 64.8109H44.6539V64.4903H46.2377C46.3807 64.2849 46.4682 64.0936 46.5326 63.8975L45.644 63.8982V63.525H47.0428C46.917 64.6425 46.1214 65.5576 45.0681 65.8602V65.8642C45.0234 65.8769 44.9788 65.8885 44.9333 65.8988V66.6006C44.9785 66.5924 45.0234 66.5831 45.0681 66.5731L45.0765 66.5715C45.0874 66.5689 45.098 66.5662 45.108 66.5638C45.1223 66.5604 45.1373 66.5567 45.1514 66.5533C45.1646 66.5498 45.1775 66.5464 45.1902 66.5432C45.2032 66.5398 45.2156 66.5363 45.228 66.5329C45.2417 66.5292 45.255 66.5252 45.2687 66.5213L45.3004 66.5118C45.3152 66.5075 45.33 66.503 45.3448 66.4985C45.3541 66.4954 45.3639 66.4919 45.3736 66.489C45.4334 66.4695 45.4923 66.4486 45.5507 66.4259L45.5573 66.4232C45.5742 66.4166 45.5912 66.41 45.6076 66.4029L45.6295 66.3941C45.6464 66.387 45.6636 66.3796 45.681 66.3722L45.6977 66.3651C45.7146 66.3574 45.7313 66.3497 45.7476 66.3423L45.7675 66.3331C45.7849 66.3249 45.8018 66.317 45.819 66.3085L45.8301 66.3024C45.8483 66.2937 45.8663 66.2847 45.8846 66.2755L45.8941 66.2704C45.9506 66.2408 46.0059 66.2102 46.0603 66.1779L46.0778 66.1676C46.0912 66.1594 46.1047 66.151 46.1182 66.1425L46.146 66.1256C46.1586 66.1177 46.1711 66.1092 46.1838 66.1013L46.2065 66.086C46.2208 66.077 46.2345 66.0672 46.2485 66.0579L46.2683 66.0442C46.2826 66.0342 46.2966 66.0246 46.3106 66.0143L46.3267 66.003C46.3764 65.9668 46.4256 65.9292 46.4729 65.8904L46.4848 65.8811C46.4983 65.8697 46.5123 65.8584 46.526 65.847L46.5445 65.8314C46.5562 65.8211 46.5675 65.8108 46.5794 65.8005L46.603 65.7799C46.6148 65.7696 46.6265 65.7587 46.6381 65.7479L46.6563 65.7312C46.6685 65.7194 46.6809 65.7077 46.6936 65.6956L46.7052 65.6842C46.7496 65.6416 46.7925 65.5975 46.8342 65.5523L46.8469 65.5386C46.857 65.5277 46.867 65.5166 46.877 65.5053C46.885 65.4963 46.8929 65.4873 46.9011 65.478L46.9249 65.4503C46.9339 65.4397 46.9426 65.4294 46.951 65.4191L46.9735 65.3921C46.9836 65.3797 46.9944 65.367 47.0039 65.3543L47.0219 65.3313C47.0325 65.3187 47.0422 65.3052 47.0525 65.2922C47.0578 65.2848 47.0639 65.2772 47.0692 65.2698C47.0829 65.2518 47.0964 65.2333 47.1096 65.2153L47.1234 65.195C47.1353 65.1783 47.1472 65.1614 47.1583 65.1442C47.1643 65.1363 47.1694 65.1281 47.1747 65.1202C47.1839 65.1059 47.1932 65.0919 47.2027 65.0779L47.2172 65.0554C47.2262 65.0406 47.2352 65.0255 47.2444 65.011L47.2595 64.9864C47.2685 64.9708 47.2783 64.9547 47.2875 64.9391L47.2973 64.9219C47.3079 64.9037 47.3179 64.8855 47.3277 64.8675L47.3372 64.8506C47.3623 64.804 47.3866 64.757 47.4094 64.7092L47.4157 64.6962C47.4255 64.6759 47.4353 64.655 47.4445 64.6349L47.4509 64.6209C47.4593 64.6021 47.4673 64.5828 47.4752 64.5641L47.4844 64.5421C47.4926 64.5231 47.5006 64.5041 47.5082 64.4845L47.514 64.4705C47.523 64.4475 47.5315 64.4248 47.5397 64.402L47.5421 64.3959C47.5798 64.2921 47.6129 64.1861 47.6412 64.0775L47.6435 64.0687C47.6496 64.0444 47.6554 64.0204 47.6607 63.996L47.6631 63.9871C47.6694 63.9614 47.6745 63.9358 47.6798 63.9099L47.6808 63.9064C47.7035 63.7949 47.7207 63.681 47.7329 63.5655C47.7445 63.4492 47.7506 63.3318 47.7506 63.2129C47.7506 63.1233 47.7474 63.0345 47.7408 62.9467H45.644V62.5555H47.6877C47.6496 62.357 47.5941 62.1644 47.5233 61.9793H45.0681V62.9467H44.6539V61.5742H47.3367C46.8704 60.7136 46.0487 60.0737 45.0681 59.8522V59.8535C45.0229 59.8434 44.9785 59.8342 44.9333 59.8257V60.5272C44.9785 60.5378 45.0234 60.5494 45.0681 60.5626V60.5666C45.3869 60.658 45.6818 60.8058 45.9419 60.998H44.6539V59.785C44.5395 59.7734 44.4234 59.7676 44.3058 59.7676ZM30.6906 63.6691C30.9779 63.6691 31.2108 63.9022 31.2108 64.1893C31.2108 64.4768 30.9779 64.7097 30.6906 64.7097C30.403 64.7097 30.1702 64.4768 30.1702 64.1893C30.1702 63.9022 30.403 63.6691 30.6906 63.6691ZM57.9216 63.6691C58.2086 63.6691 58.442 63.9022 58.442 64.1893C58.442 64.4768 58.2086 64.7097 57.9216 64.7097C57.6343 64.7097 57.4011 64.4768 57.4011 64.1893C57.4011 63.9022 57.6343 63.6691 57.9216 63.6691ZM31.9231 67.7453L31.9794 67.7265L32.2656 68.6072L32.2091 68.6257L32.1853 68.5515C32.1578 68.4674 32.1134 68.4145 32.0515 68.3923C32.0108 68.3783 31.9294 68.3913 31.8062 68.4312L30.8008 68.7579C30.6462 68.8081 30.5159 68.8324 30.4088 68.8292C30.3018 68.8269 30.1992 68.7954 30.1014 68.7357C30.0031 68.6762 29.9349 68.5877 29.8966 68.4708C29.8659 68.3754 29.8654 68.293 29.8942 68.2232C29.9233 68.1534 29.9685 68.1087 30.0287 68.0889C30.0787 68.0728 30.1199 68.0733 30.1535 68.0902C30.1961 68.1135 30.2241 68.1473 30.2386 68.1917C30.2492 68.2237 30.2484 68.2567 30.2352 68.289C30.2225 68.3218 30.1762 68.373 30.0969 68.4423C30.0504 68.4827 30.0322 68.5219 30.0443 68.5581C30.0531 68.5856 30.0779 68.6059 30.1194 68.6183C30.1601 68.6315 30.2235 68.6244 30.3081 68.5964L31.7116 68.1405C31.816 68.1066 31.8826 68.0775 31.9112 68.054C31.9334 68.0353 31.9479 68.007 31.9558 67.9689C31.9662 67.9176 31.963 67.8679 31.9471 67.8193L31.9231 67.7453ZM30.9018 70.7767L30.8484 70.8008L30.472 69.9544L30.5254 69.9304L30.5563 70.0007C30.5928 70.0824 30.6427 70.1307 30.707 70.146C30.7482 70.1558 30.8283 70.1344 30.9464 70.0818L32.222 69.5138C32.3222 69.4691 32.3851 69.4335 32.4115 69.4068C32.4313 69.3859 32.4438 69.3568 32.4475 69.3193C32.4522 69.2662 32.4438 69.2165 32.4226 69.1694L32.392 69.0996L32.4456 69.0753L32.8228 69.9216L32.7683 69.946L32.7366 69.8741C32.7007 69.7937 32.651 69.7456 32.5873 69.73C32.545 69.7197 32.4652 69.7406 32.3468 69.7929L31.0709 70.3609C30.9713 70.4056 30.9081 70.4413 30.8814 70.468C30.8619 70.4886 30.85 70.5182 30.8465 70.5568C30.8415 70.6091 30.8489 70.6588 30.8703 70.7051L30.9018 70.7767ZM33.0068 70.2653L32.9565 70.2967C32.9893 70.3498 33.0099 70.3919 33.0189 70.4233C33.035 70.487 33.0416 70.5388 33.0387 70.5787C33.0361 70.6184 33.0202 70.6847 32.9914 70.7764L31.7166 71.5731C31.6141 71.6368 31.5425 71.6685 31.5012 71.6666C31.4336 71.6632 31.3759 71.6222 31.3268 71.5437L31.2871 71.4808L31.2374 71.512L31.6358 72.1495L31.6855 72.1181L31.645 72.0539C31.6006 71.9828 31.5869 71.9177 31.6033 71.8598C31.6159 71.8181 31.6788 71.7623 31.7909 71.692L32.9198 70.9863L32.199 73.1166L32.2299 73.1656L33.7743 72.2005C33.8769 72.1363 33.9485 72.1051 33.9897 72.107C34.0566 72.1099 34.1147 72.1503 34.1629 72.2275L34.2033 72.2925L34.254 72.2613L33.8552 71.6233L33.8052 71.655L33.8446 71.7184C33.8898 71.7903 33.9038 71.8548 33.8869 71.9119C33.8748 71.9545 33.8121 72.0113 33.6995 72.0816L32.6431 72.7419L33.3173 70.7624L33.0068 70.2653ZM34.4422 74.4768L34.3206 74.7911C34.2805 74.8928 34.2453 74.9613 34.2131 74.9946C34.1885 75.0202 34.157 75.0308 34.1182 75.0271C34.0793 75.0237 34.027 74.9938 33.9625 74.9372L33.9215 74.9795L34.5353 75.5718L34.5754 75.5296C34.5162 75.4648 34.4835 75.3987 34.4776 75.334C34.4721 75.2679 34.4975 75.1624 34.5546 75.0171L35.2616 73.2015L35.2219 73.1629L33.4394 73.9141C33.284 73.9804 33.1685 74.0135 33.0945 74.0124C33.0578 74.0119 33.0012 73.9865 32.9248 73.9355L32.8844 73.9775L33.3734 74.4501L33.4148 74.4081C33.3448 74.3301 33.3075 74.2712 33.3023 74.2318C33.2975 74.1919 33.3057 74.1604 33.3287 74.1366C33.3578 74.1068 33.4143 74.0743 33.4986 74.0394L33.8404 73.8958L34.4422 74.4768ZM34.4924 74.3608L34.835 73.4782L33.9583 73.8451L34.4924 74.3608ZM36.1981 74.213L36.1658 74.2624C36.2184 74.2965 36.2549 74.3261 36.2758 74.351C36.3175 74.4017 36.3453 74.4459 36.3598 74.4831C36.3738 74.5204 36.3876 74.587 36.4 74.6824L35.5814 75.9429C35.5161 76.0439 35.4638 76.1036 35.4263 76.1192C35.3636 76.1443 35.2933 76.1322 35.2161 76.0814L35.1538 76.0413L35.1215 76.0902L35.7519 76.4998L35.7841 76.4504L35.7199 76.4092C35.6501 76.3635 35.6094 76.3109 35.6002 76.2511C35.5938 76.2078 35.6271 76.1311 35.6993 76.0196L36.4243 74.9034L36.6714 77.1382L36.7195 77.1699L37.7118 75.6424C37.7778 75.5404 37.8294 75.4825 37.8677 75.4664C37.9293 75.441 37.9988 75.4529 38.0755 75.5026L38.1394 75.5446L38.1722 75.4947L37.5413 75.0852L37.509 75.1347L37.5719 75.1754C37.6433 75.2216 37.6824 75.2745 37.6919 75.3334C37.6985 75.3763 37.666 75.4545 37.5941 75.566L36.9149 76.6111L36.6897 74.532L36.1981 74.213ZM40.3509 76.4615L40.3705 76.4047L41.0942 76.6542L41.0746 76.7102L40.9977 76.6838C40.9176 76.6558 40.8439 76.6687 40.7775 76.7208C40.7461 76.7449 40.7104 76.8133 40.671 76.9272L40.3861 77.7551C40.315 77.9607 40.2407 78.1127 40.1614 78.2113C40.0813 78.3106 39.9677 78.3802 39.821 78.4198C39.674 78.4594 39.498 78.4444 39.2931 78.3738C39.0701 78.2969 38.9141 78.2004 38.8258 78.0825C38.7365 77.9657 38.6905 77.8336 38.6873 77.6863C38.6858 77.5859 38.7275 77.4125 38.8121 77.1664L39.0872 76.3677C39.1303 76.2419 39.1422 76.1541 39.12 76.1031C39.0991 76.0516 39.0502 76.0132 38.9731 75.9863L38.8956 75.9601L38.9152 75.9038L39.7982 76.208L39.7789 76.2638L39.7004 76.2374C39.6159 76.208 39.5469 76.2136 39.4919 76.2543C39.4544 76.282 39.416 76.3529 39.3769 76.4673L39.0701 77.3581C39.0431 77.4376 39.0185 77.5307 38.9979 77.6382C38.9776 77.7453 38.9762 77.8349 38.9945 77.9049C39.013 77.9755 39.0518 78.041 39.1108 78.1034C39.17 78.1658 39.2516 78.2147 39.356 78.2504C39.4898 78.2966 39.619 78.308 39.7443 78.2863C39.8701 78.2647 39.9679 78.2152 40.038 78.1375C40.108 78.0598 40.1807 77.9126 40.2552 77.6953L40.5402 76.868C40.584 76.7404 40.597 76.6558 40.5806 76.614C40.5563 76.5561 40.5055 76.5141 40.4284 76.4874L40.3509 76.4615ZM41.3297 76.7094L41.9106 76.7908L42.9935 78.5797L43.1666 77.3459C43.1851 77.2145 43.1817 77.13 43.1571 77.0935C43.1238 77.0435 43.0657 77.0134 42.9816 77.0015L42.9076 76.9909L42.9161 76.9325L43.6606 77.0369L43.6522 77.0956L43.5761 77.085C43.4859 77.0723 43.4175 77.0911 43.3725 77.1395C43.3445 77.1701 43.3226 77.2455 43.3057 77.3655L43.0519 79.1689L42.9948 79.1612L41.8263 77.2394L41.6416 78.5578C41.6228 78.6889 41.6254 78.7729 41.649 78.8097C41.6831 78.8596 41.742 78.8903 41.825 78.9022L41.9001 78.9122L41.8921 78.9704L41.1478 78.866L41.1557 78.8078L41.2295 78.8181C41.3212 78.8313 41.3894 78.8126 41.4357 78.7631C41.4634 78.733 41.4856 78.6577 41.5023 78.538L41.7116 77.0496C41.6601 76.9682 41.6194 76.9138 41.5911 76.886C41.5617 76.8585 41.5179 76.8305 41.4586 76.8014C41.4293 76.7882 41.3836 76.7766 41.3217 76.7681L41.3297 76.7094ZM45.0509 79.0877L45.053 79.1467L44.1274 79.1789L44.125 79.1202L44.2017 79.1173C44.291 79.1147 44.355 79.0861 44.393 79.0325C44.4176 78.9979 44.4279 78.9151 44.4232 78.7861L44.3745 77.3906C44.3708 77.2811 44.3611 77.2095 44.3463 77.1752C44.3344 77.1487 44.3122 77.1263 44.2783 77.1083C44.2308 77.0848 44.1819 77.0742 44.1306 77.076L44.0539 77.0782L44.0518 77.0187L44.9777 76.9872L44.9795 77.0462L44.9013 77.0488C44.8136 77.0517 44.7499 77.0805 44.7113 77.1334C44.6862 77.168 44.6756 77.2505 44.6803 77.3795L44.7287 78.775C44.7324 78.8845 44.7422 78.9566 44.757 78.9912C44.7689 79.0171 44.7919 79.0394 44.826 79.0571C44.873 79.0808 44.9214 79.0925 44.9727 79.0909L45.0509 79.0877ZM47.6901 76.6183L47.7001 76.6769C47.6272 76.7036 47.5743 76.7377 47.5415 76.779C47.4955 76.8397 47.4601 76.9278 47.4358 77.0409L47.0126 78.9823L46.955 78.9928L45.8341 77.2986C45.7764 77.2119 45.7381 77.159 45.7167 77.1416C45.6858 77.1133 45.649 77.0935 45.6073 77.0824C45.5658 77.0708 45.5121 77.0684 45.4466 77.0745L45.4368 77.0158L46.3059 76.8622L46.3162 76.9209C46.2192 76.9476 46.1586 76.9759 46.1333 77.0047C46.1084 77.0335 46.0986 77.0678 46.1055 77.1051C46.1148 77.1577 46.1531 77.2349 46.221 77.3369L46.9825 78.4891L47.2672 77.1691C47.2952 77.0388 47.3047 76.9505 47.2968 76.9032C47.2912 76.8723 47.2714 76.8461 47.2362 76.8239C47.2008 76.802 47.1464 76.7911 47.0718 76.7927H47.0438L47.0338 76.734L47.6901 76.6183ZM48.6249 76.4118L48.945 77.2034L49.3851 77.0256C49.4993 76.9796 49.5693 76.9315 49.5936 76.882C49.6264 76.816 49.6227 76.7248 49.582 76.6079L49.637 76.5855L49.9185 77.283L49.8646 77.3052C49.8114 77.213 49.772 77.1564 49.7472 77.1345C49.7155 77.107 49.6756 77.0919 49.6269 77.0885C49.5786 77.0848 49.5125 77.0998 49.429 77.1334L48.9884 77.3115L49.2556 77.9721C49.2913 78.0611 49.3172 78.1129 49.3328 78.1296C49.3478 78.1454 49.3682 78.1547 49.3922 78.1584C49.4163 78.1618 49.4565 78.1521 49.5117 78.1299L49.8513 77.9924C49.9645 77.9472 50.0443 77.9057 50.0887 77.8692C50.1336 77.8328 50.1704 77.7825 50.1986 77.7165C50.2354 77.6311 50.2608 77.5132 50.2745 77.3644L50.3337 77.3409L50.3644 77.9126L48.8203 78.5366L48.7981 78.4822L48.8689 78.4536C48.9159 78.4346 48.9564 78.4045 48.9894 78.3648C49.0148 78.3368 49.0264 78.304 49.0256 78.2681C49.0235 78.2319 49.0032 78.1655 48.964 78.0677L48.4378 76.766C48.3863 76.6389 48.3424 76.5659 48.3049 76.5466C48.2536 76.5215 48.1867 76.5255 48.104 76.5593L48.0326 76.5881L48.0104 76.5326L49.5548 75.9091L49.7538 76.3386L49.6959 76.3621C49.6328 76.2651 49.581 76.202 49.54 76.1732C49.4985 76.1441 49.4499 76.1285 49.3922 76.1277C49.347 76.129 49.2741 76.1496 49.1747 76.1898L48.6249 76.4118ZM53.0559 76.3487L53.0239 76.2995C52.9176 76.3526 52.8211 76.3796 52.7345 76.3809C52.648 76.3817 52.5225 76.3497 52.3597 76.2858L51.6479 76.009C51.7782 75.8761 51.853 75.7452 51.8723 75.6168C51.8918 75.487 51.8649 75.367 51.7924 75.2555C51.725 75.1511 51.6352 75.0823 51.5226 75.0477C51.4097 75.0141 51.2987 75.0128 51.1893 75.0443C51.0793 75.0752 50.9287 75.1532 50.7363 75.2785L50.0757 75.7069L50.1085 75.7566L50.1764 75.7127C50.2452 75.6686 50.3091 75.6543 50.3697 75.6707C50.4119 75.6823 50.4709 75.7444 50.5446 75.8584L51.3053 77.0298C51.3722 77.1326 51.4052 77.2042 51.4047 77.2447C51.4044 77.3158 51.3658 77.376 51.2887 77.426L51.2207 77.4699L51.2527 77.5193L52.0295 77.0155L51.9976 76.9661L51.9265 77.0121C51.8588 77.056 51.7954 77.0689 51.7359 77.052C51.6931 77.0404 51.6341 76.978 51.5599 76.8638L51.2186 76.3376C51.234 76.3288 51.2477 76.3206 51.2609 76.3122C51.2747 76.304 51.2873 76.2958 51.2987 76.2884C51.3275 76.2696 51.3637 76.245 51.4081 76.2139L52.5719 76.6632L53.0559 76.3487ZM51.1631 76.2532L50.6741 75.4997C50.7519 75.4249 50.8161 75.371 50.8674 75.3377C50.9844 75.2621 51.1007 75.2364 51.2176 75.2613C51.3347 75.2861 51.4301 75.3551 51.5036 75.468C51.5784 75.584 51.5966 75.7077 51.5575 75.8399C51.5181 75.9715 51.4124 76.0936 51.2392 76.2062C51.2313 76.2107 51.2207 76.2176 51.2081 76.2247C51.1954 76.2321 51.1808 76.2413 51.1631 76.2532ZM53.2094 73.3395L53.1661 73.3791C53.1909 73.423 53.2028 73.4576 53.201 73.4817C53.1989 73.5052 53.1878 73.5263 53.1669 73.5448C53.1489 73.5615 53.109 73.5795 53.0469 73.5998C52.9137 73.6437 52.8048 73.7045 52.7191 73.7814C52.583 73.9043 52.5077 74.0473 52.4945 74.2101C52.4807 74.3729 52.5254 74.5117 52.6298 74.6272C52.6893 74.6933 52.7593 74.7406 52.8389 74.7694C52.9187 74.7971 53.0078 74.8082 53.1077 74.8016C53.2065 74.795 53.3596 74.7689 53.5662 74.7218C53.7729 74.6753 53.9025 74.6497 53.9545 74.6462C54.0314 74.6391 54.0988 74.6462 54.1572 74.6666C54.2149 74.6882 54.2619 74.7179 54.2973 74.7575C54.3616 74.8286 54.388 74.9164 54.3779 75.0194C54.3671 75.123 54.3127 75.2195 54.2143 75.3081C54.1284 75.385 54.0333 75.4368 53.9284 75.4632C53.8226 75.4896 53.7269 75.4896 53.6405 75.4635C53.5544 75.4378 53.4489 75.3763 53.3241 75.2798L53.2808 75.3197L53.7766 75.87L53.82 75.8306C53.7922 75.7883 53.7782 75.7561 53.7795 75.7339C53.7803 75.7119 53.7906 75.6916 53.8102 75.6739C53.8306 75.6554 53.8908 75.6242 53.9905 75.5798C54.0891 75.5351 54.1533 75.5039 54.1808 75.4857C54.2286 75.4563 54.2759 75.4204 54.3224 75.3781C54.4712 75.2444 54.5527 75.0911 54.5677 74.9182C54.5825 74.7453 54.5357 74.5981 54.4261 74.476C54.3684 74.4123 54.2987 74.365 54.2167 74.3325C54.1345 74.301 54.0462 74.2881 53.9527 74.2952C53.8588 74.301 53.7008 74.3317 53.4782 74.3861C53.2057 74.4533 53.0181 74.4789 52.9158 74.4638C52.8457 74.4541 52.7884 74.4245 52.7445 74.3756C52.6866 74.3119 52.6618 74.231 52.671 74.1321C52.6795 74.0338 52.7252 73.9471 52.8069 73.8734C52.8796 73.8081 52.9663 73.764 53.0678 73.7396C53.1685 73.7153 53.2665 73.7185 53.3603 73.7486C53.4536 73.7785 53.5557 73.8409 53.6659 73.9347L53.7095 73.8953L53.2094 73.3395ZM55.9728 73.4875L55.9215 73.5467C55.8882 73.585 55.8465 73.613 55.7973 73.631C55.7606 73.6437 55.7286 73.6458 55.7016 73.6366C55.6667 73.6239 55.607 73.5816 55.5243 73.5099L54.4712 72.5938C54.3732 72.509 54.3206 72.4453 54.3121 72.4027C54.2994 72.338 54.3224 72.2727 54.3795 72.2061L54.4311 72.1474L54.3861 72.1086L53.7782 72.8074L53.8234 72.8463L53.8736 72.7884C53.9069 72.7498 53.9487 72.721 53.9984 72.7025C54.0343 72.6906 54.0661 72.689 54.093 72.698C54.1284 72.7109 54.1879 72.753 54.2704 72.8246L55.3239 73.7407C55.4217 73.8258 55.4754 73.8895 55.4838 73.9307C55.4968 73.9955 55.474 74.0613 55.4156 74.1287L55.3654 74.1866L55.4093 74.2249L56.0172 73.5258L55.9728 73.4875ZM55.6416 70.2341L54.7073 71.7301L55.1233 72.0203L55.155 71.9693C55.0763 71.9106 55.0231 71.8501 54.9949 71.7861C54.9674 71.7227 54.9589 71.6619 54.9716 71.604C54.9814 71.5601 55.0131 71.4956 55.0665 71.4103L55.2042 71.1898L56.6048 72.0647C56.7071 72.1287 56.7668 72.1805 56.7827 72.2177C56.8096 72.2793 56.799 72.3494 56.7504 72.4265L56.7097 72.4916L56.7597 72.5227L57.2452 71.7454L57.1952 71.7142L57.1559 71.7782C57.1112 71.849 57.0591 71.8902 57.0002 71.9008C56.9571 71.9072 56.8789 71.876 56.7668 71.8057L55.3662 70.9303L55.528 70.6723C55.5748 70.5962 55.6258 70.5433 55.6794 70.5124C55.7328 70.4817 55.7949 70.4685 55.8639 70.4733C55.9078 70.4762 55.9699 70.4965 56.0518 70.5341L56.0838 70.4825L55.6416 70.2341ZM56.3843 68.4701L56.6542 67.7662L56.7097 67.7873L56.6952 67.8257C56.6849 67.8521 56.682 67.8939 56.6857 67.9523C56.6896 68.0104 56.7047 68.068 56.7316 68.1251C56.7589 68.1822 56.8088 68.2589 56.8828 68.3553L57.4617 69.1359L57.9681 69.3301C58.0923 69.378 58.1745 69.3936 58.2163 69.3777C58.2723 69.356 58.3157 69.3045 58.3469 69.2236L58.372 69.1581L58.4272 69.1792L58.0984 70.0358L58.0432 70.0147L58.0706 69.9433C58.1032 69.858 58.1005 69.7871 58.0625 69.7319C58.0395 69.6978 57.971 69.6595 57.8584 69.6161L57.3803 69.4329L56.323 69.6618C56.1993 69.6888 56.1203 69.7097 56.0862 69.7234C56.0518 69.7374 56.0037 69.7742 55.9411 69.8342C55.9239 69.8498 55.9078 69.877 55.893 69.9145L55.8377 69.8936L56.1689 69.0307L56.2242 69.0518L56.2072 69.0965C56.189 69.1433 56.1835 69.1903 56.1901 69.2373C56.1969 69.2855 56.2228 69.3177 56.2665 69.3343C56.3016 69.3478 56.3775 69.3428 56.494 69.3177L57.3063 69.1462L56.8363 68.5118C56.7652 68.4167 56.7079 68.3598 56.6624 68.3424C56.6344 68.3318 56.6069 68.3292 56.5794 68.3358C56.5519 68.3416 56.5271 68.3559 56.5043 68.3775C56.4819 68.3997 56.4605 68.4373 56.4396 68.4915L56.3843 68.4701ZM53.927 57.5825C53.8787 57.6356 53.853 57.7868 53.895 57.8516C54.078 58.1333 54.5363 58.0189 54.8334 57.8006L55.0538 57.6314L55.1323 57.7511C55.2052 57.8637 55.3839 57.9806 55.4714 57.9237L55.4859 57.9142L55.5148 57.8955C55.5824 57.7744 55.5142 57.5759 55.4151 57.4231L55.3678 57.3502L55.5097 57.1276C55.6459 57.2038 55.8576 57.4044 56.0172 57.3002C56.1314 57.2268 56.0775 57.0108 55.9937 56.8816L55.8806 56.7074C55.8245 56.6207 55.6371 56.4724 55.556 56.5253C55.4754 56.5776 55.4415 56.732 55.4756 56.7843C55.5338 56.8734 55.6342 56.9133 55.6847 56.9791C55.5811 57.0351 55.4981 56.9926 55.4164 56.9468L55.3866 56.9656L55.3287 57.0034L55.2993 57.0222C55.2808 57.056 55.2758 57.0793 55.2314 57.1081C55.2108 57.121 55.1891 57.107 55.1738 57.0835L55.108 56.9815L54.7686 56.604C54.7031 56.6209 54.7313 56.5847 54.6843 56.6157C54.6367 56.6469 54.6563 56.8372 54.6758 56.9022C54.7036 56.9936 54.7707 57.1313 54.8307 57.2233C54.863 57.2735 54.8564 57.2865 54.882 57.3343L54.7342 57.4562L54.688 57.4813C54.5825 57.55 54.3415 57.5638 54.2445 57.5624L54.2159 57.4789C54.2291 57.4411 54.2503 57.3795 54.2186 57.3312C54.2056 57.3108 54.18 57.315 54.1565 57.3306L54.1422 57.3401C54.0639 57.3904 53.9854 57.518 53.927 57.5825ZM56.3664 56.6603L56.2445 56.4713C56.3185 56.4338 56.2559 56.4354 56.3309 56.4772L56.3598 56.4584L56.3748 56.4489L56.4034 56.4301L56.5429 56.4243L56.572 56.4034L56.6447 56.3558L56.674 56.3371L56.7123 56.2697L56.757 56.2422C56.761 56.2057 57.0752 56.0001 57.0914 56.0252L57.1493 55.9871C57.1699 56.0077 57.209 56.0527 57.2317 56.0717C57.2714 56.1042 57.2941 56.0833 57.3203 56.124L57.4056 56.2549C57.4368 56.3027 57.412 56.3284 57.371 56.3601C57.256 56.2496 57.1651 56.2618 57.0256 56.2742L56.9965 56.2932L56.9526 56.3215C56.9074 56.4021 56.8593 56.5684 56.7903 56.6128C56.7763 56.622 56.5165 56.5218 56.4499 56.5652L56.4351 56.5747C56.3828 56.6088 56.4153 56.6397 56.448 56.6902C56.5826 56.692 56.6109 56.7254 56.7309 56.7758C56.8326 56.8184 56.9172 56.7817 56.9938 56.8942C57.0422 56.8966 57.117 56.9236 57.1992 56.9315C57.2756 56.9392 57.3279 56.9249 57.4019 56.9183L57.4318 56.8993L57.4752 56.8713L57.5042 56.8522C57.5381 56.7909 57.5534 56.7827 57.5111 56.7034L57.6174 56.613C57.7907 56.6157 57.8106 56.7428 58.0204 56.724L58.0492 56.705L58.0786 56.6862C58.0725 56.6207 58.0762 56.5596 58.0326 56.4885C58.0511 56.4457 58.0461 56.3971 58.0825 56.3736L58.1259 56.3453C58.2879 56.2398 58.2673 56.1751 58.2551 56.0344C58.2044 55.9861 58.0619 55.8909 58.0014 55.9303C57.9232 55.9811 57.9195 56.0247 57.8309 56.082L57.787 56.1106C57.6924 56.1719 57.4987 55.8875 57.348 55.879C57.3441 55.8367 57.3261 55.79 57.3737 55.7593L57.4894 55.6837L57.5185 55.6649C57.5748 55.564 57.6324 55.4643 57.5515 55.3332L57.5666 55.2867C57.5135 55.2584 57.4413 55.219 57.3792 55.2592C57.3107 55.3039 57.269 55.3459 57.2148 55.3998C57.154 55.4601 57.108 55.4561 57.0398 55.5003L56.9962 55.5285C56.9304 55.5714 56.914 55.5484 56.8588 55.5991C56.8207 55.6345 56.8257 55.6594 56.7583 55.7035L56.6568 55.7693L56.4465 55.9237C56.3442 56.0046 56.2366 56.0006 56.1287 56.0707C56.0894 56.0968 56.1005 56.1307 56.0606 56.1566C56.0566 56.1592 56.0273 56.164 56.0074 56.17C55.9451 56.11 55.9268 56.1381 55.8695 56.0529L55.8985 56.0342C55.9662 56.0958 55.9522 56.0458 56.0278 56.0746L56.17 56.0077L56.6679 55.6914C56.7353 55.6567 56.7626 55.6078 56.789 55.5597L56.8181 55.5407L56.9492 55.4559L56.978 55.4368C57.0567 55.296 57.0517 55.2095 57.1125 55.102L57.0932 55.0729C57.0351 54.983 56.8889 55.0042 56.8057 55.0116L56.7763 55.0306L56.6016 55.1437L56.3143 55.3369L56.2966 55.3419L56.2672 55.3607C56.24 55.4101 56.2147 55.4572 56.1502 55.4989L55.9902 55.6028C55.9543 55.6256 55.851 55.7403 55.8317 55.7693C55.782 55.8444 55.8322 55.8764 55.8034 55.9514C55.7053 55.8248 55.4474 55.6898 55.446 55.6874L55.427 55.6583L55.4193 55.5811L55.3995 55.5521C55.3379 55.4569 54.9404 55.4574 54.8275 55.5307L54.7403 55.5872L54.7112 55.6063L54.6417 55.8053C54.6576 55.8502 54.651 55.8637 54.6832 55.9137L54.7305 55.9863L54.7496 56.0151C54.8267 56.0588 54.8852 56.0839 54.9745 56.0757L55.0041 56.0569L55.0477 56.0286L55.0768 56.0099C55.0916 55.9826 55.1138 55.9237 55.1352 55.9097L55.2079 55.8624L55.237 55.8433C55.2835 55.8394 55.4093 55.8539 55.4384 55.8989L55.4955 55.9861L55.9786 56.6225L56.2561 57.0631L56.4377 57.379C56.4525 57.4001 56.462 57.4295 56.4388 57.4403L56.2831 57.5172C56.3402 57.6063 56.3822 57.6066 56.4459 57.6423C56.4687 57.7046 56.4872 57.7699 56.5305 57.8355C56.59 57.928 56.6954 57.997 56.7983 57.9304C56.9013 57.8637 56.8117 57.7012 56.8128 57.5949C56.8133 57.5075 56.8041 57.3335 56.7441 57.2421L56.6502 57.0967L56.3664 56.6603ZM47.9208 51.8044C47.8381 51.8689 47.8426 51.9062 47.7376 51.9241C47.6581 51.9862 47.6454 51.9566 47.555 52.0436L47.49 52.0225C47.4799 52.0378 47.3819 52.1522 47.3681 52.1562C47.347 52.1623 47.3139 52.1464 47.2777 52.1644C47.2561 52.175 47.2458 52.1932 47.2077 52.213C47.0274 52.3063 47.1014 52.291 46.8868 52.328L46.8657 52.3928L46.9098 52.4239L46.9413 52.4356C47.1728 52.5112 47.2907 52.398 47.4659 52.4025C47.6314 52.4073 47.5777 52.4184 47.7102 52.3507C47.7958 52.3069 47.8547 52.3061 47.9414 52.2738C48.1814 52.1853 48.159 52.1707 48.3495 52.0103C48.4867 51.8951 48.5908 51.7944 48.7188 51.6709C48.7692 51.6181 48.8049 51.4835 48.88 51.5081C48.9075 51.5171 48.9011 51.6582 48.908 51.6971L48.8972 51.7296C48.9062 51.7499 48.9696 52.1107 48.977 52.1625C48.9929 52.2751 48.9939 52.2802 49.0299 52.3795C49.0552 52.4501 49.0806 52.5069 49.083 52.5828C49.0885 52.7705 49.143 52.8363 49.2648 52.9639C49.3161 53.0179 49.5445 53.2349 49.6177 53.2586C49.7443 53.3004 49.8802 53.3229 49.9573 53.2623C49.9727 53.094 49.9513 53.1006 49.8561 52.989C49.7834 52.9045 49.8024 52.849 49.7255 52.744C49.582 52.5471 49.5445 52.4821 49.4662 52.2532C49.4052 52.0766 49.3534 51.894 49.2699 51.7304C49.2196 51.6323 49.2336 51.5578 49.2183 51.4452C49.212 51.4003 49.2067 51.3344 49.1956 51.2945C49.1713 51.2073 49.1356 51.2525 49.1536 51.1666L49.4187 51.2348L49.4993 51.262C49.6978 51.3273 49.8804 51.3389 49.9957 51.2274L50.0065 51.1949C50.0591 51.0347 50.0475 50.9028 49.886 50.85L49.7565 50.8077C49.6679 50.7783 49.656 50.8106 49.5675 50.7815L49.3724 50.7178L49.4869 50.4321L49.5831 50.1218L49.6806 49.9027C49.702 49.8377 49.6415 49.7607 49.5889 49.7288L49.4697 49.7121C49.4358 49.7644 49.4047 49.7985 49.3793 49.8754L49.374 49.8916C49.3349 50.0116 49.2725 50.0372 49.2405 50.1355L49.2083 50.2325L49.0669 50.5991C49.0177 50.588 49.0066 50.5978 48.9508 50.5796L48.935 50.574C48.8229 50.5373 48.7587 50.5883 48.7182 50.5753L48.7024 50.5701C48.6181 50.542 48.6191 50.5069 48.5509 50.4844C48.5049 50.4691 48.321 50.5669 48.2763 50.6097L48.2655 50.6422C48.2295 50.7532 48.3321 50.8872 48.3968 50.9544L48.4293 50.9652L48.4619 50.9758C48.5871 51.017 48.6345 50.9787 48.7534 51.0175C48.7182 51.0535 48.7415 50.999 48.7214 51.0609C48.6968 51.1352 48.5842 51.243 48.5385 51.2885C48.4626 51.3654 48.4262 51.4235 48.3553 51.5142C48.2758 51.6159 48.1804 51.5898 48.1238 51.6442C48.0273 51.7365 48.072 51.7621 47.9208 51.8044ZM39.2466 51.6968L39.2252 51.6498C39.1816 51.5522 39.0457 51.6429 38.9847 51.5322L39.157 51.455L39.171 51.4862L39.2175 51.4653C39.2479 51.4518 39.2435 51.4478 39.2577 51.4285C39.2937 51.451 39.3227 51.4481 39.3397 51.4856L39.3534 51.5168C39.3489 51.5932 39.3592 51.6593 39.2918 51.7137C39.305 51.751 39.3198 51.8142 39.2873 51.829C39.2654 51.8388 39.2464 51.8216 39.235 51.7962C39.221 51.765 39.2712 51.7521 39.2466 51.6968ZM38.6826 51.7809C38.7006 51.7521 38.718 51.7275 38.7624 51.7074C38.7925 51.6942 38.8261 51.7402 38.8446 51.7645C38.8843 51.8477 38.9493 51.9157 39.0228 51.9101C39.0391 52.01 38.9316 51.9997 38.9699 52.0843L38.9768 52.1002L38.9908 52.1313L39.1319 52.2368C39.1827 52.2389 39.1266 52.2585 39.1861 52.2315L39.2329 52.2104C39.3185 52.1721 39.3061 52.1403 39.3909 52.1017L39.438 52.0809L39.4993 52.1652C39.4372 52.2125 39.3135 52.3248 39.2583 52.3494L39.2427 52.3568C39.1861 52.3822 39.1613 52.4089 39.1316 52.4443C39.1295 52.4948 39.11 52.4385 39.1364 52.4982L39.1507 52.5294C39.1755 52.5846 39.3185 52.586 39.3722 52.5616L39.5913 52.4631C39.6151 52.4948 39.623 52.4924 39.642 52.5344L39.7615 52.8003C39.8107 52.7908 39.7953 52.804 39.831 52.7879C39.8527 52.7781 39.9182 52.522 39.9206 52.4845L39.9069 52.4533L39.8918 52.4218L39.8979 52.3071L39.9283 52.2928L39.9907 52.2648C40.0343 52.2453 40.0435 52.1797 40.0499 52.1446L40.0216 52.0819C39.9624 52.078 39.8321 52.0595 39.7758 52.0793L39.6872 51.9691C39.7271 51.9188 39.7155 51.9128 39.7541 51.8633L39.8477 51.8213L39.8511 51.783C39.7819 51.6942 39.6159 51.724 39.5789 51.6413C39.5675 51.6159 39.6478 51.5205 39.659 51.4513C39.6695 51.3844 39.6597 51.3138 39.6645 51.2456C39.8027 51.1796 40.1418 50.8553 40.2439 51.1542L40.315 51.3664L40.4466 51.6466L40.4603 51.6775C40.4588 51.7045 40.4511 51.7822 40.4625 51.8084C40.5211 51.9384 40.5523 51.8842 40.5941 52.0661C40.6134 52.1506 40.6229 52.2379 40.6409 52.3298L40.6002 52.3661L40.5695 52.3809L40.4598 52.4298C40.4347 52.4417 40.4173 52.4604 40.427 52.4824C40.4757 52.5902 40.6028 52.6219 40.6195 52.6592L40.6263 52.675L40.6403 52.706C40.6861 52.7414 40.7997 52.8038 40.8602 52.7765L40.9385 52.7414L40.9702 52.7274C41.0984 52.5619 41.0815 52.4898 41.068 52.2717C41.058 52.1081 41.0907 51.9503 41.0022 51.7536L40.9744 51.6913C40.9158 51.5612 40.8856 51.4473 40.8439 51.3175C40.7934 51.1608 40.7545 51.1188 40.6821 50.9575L40.5838 50.7384C40.495 50.541 40.2468 50.5756 40.0491 50.6779L39.6669 50.874C39.4779 50.9663 39.3534 51.0847 39.1139 51.1922L38.8385 51.3323C38.828 51.2634 38.8996 51.1045 38.9358 51.0469L38.9215 51.0154L38.9546 50.8714L38.982 50.8566L39.1539 50.7794L39.1853 50.7654L39.3225 50.61L39.3534 50.5957L39.4316 50.5603C39.4694 50.5434 39.5175 50.4173 39.5004 50.379C39.4472 50.26 39.3796 50.2381 39.2839 50.232L39.2527 50.246L39.1586 50.288C39.0775 50.3248 39.097 50.2032 39.0383 50.2294C39.0053 50.2444 39.0201 50.2444 38.9828 50.273L38.9807 50.4033C38.9464 50.4102 38.9369 50.4213 38.9173 50.3779L38.9104 50.3623C38.8718 50.2769 38.9025 50.2616 38.8642 50.1762L38.7093 49.8321L38.6953 49.8009C38.5932 49.7211 38.5295 49.7251 38.4074 49.7044C38.3223 49.7695 38.3496 49.7856 38.2948 49.8303C38.3226 49.909 38.3078 49.9423 38.348 50.0322L38.4251 50.2043C38.4563 50.2738 38.4579 50.3784 38.4542 50.4358L38.4685 50.467L38.5036 50.5452L38.5177 50.5764C38.5145 50.6182 38.5256 50.6671 38.4746 50.6898L38.3025 50.7672L38.2713 50.7812C38.2449 50.8143 38.205 50.8436 38.228 50.8946L38.2494 50.9414C38.2827 51.0162 38.529 51.0207 38.5504 51.0693C38.6104 51.2012 38.5406 51.7695 38.4516 51.8097C38.4294 51.8195 38.4103 51.8025 38.399 51.7769L38.3918 51.7613C38.376 51.7251 38.3599 51.719 38.3236 51.7354L38.2927 51.7494C38.2042 51.7891 38.22 52.0906 38.2737 52.2091C38.3382 52.3531 38.3255 52.512 38.3707 52.6357L38.5073 52.9877L38.5594 53.0961L38.7082 53.4801C38.7558 53.5919 38.8906 53.6403 38.9485 53.7111L39.0109 53.6831C39.1895 53.6028 39.1435 53.3919 39.0616 53.2089L38.8013 52.6301L38.6345 52.2725L38.4777 51.9106L38.5248 51.8895C38.6096 51.8512 38.5956 51.8224 38.6826 51.7809ZM32.3132 56.6474L32.2561 56.6085L32.2648 56.5308L32.2942 56.4872C32.3436 56.4135 32.3695 56.4259 32.4208 56.3611C32.4895 56.3585 32.5926 56.2657 32.6933 56.3329C32.7734 56.3868 32.7586 56.5467 32.7506 56.6247L32.7308 56.6535C32.6901 56.7145 32.7112 56.6849 32.6875 56.6876L32.342 56.6669L32.3132 56.6474ZM31.9884 54.9323L32.0174 54.8887L32.1919 55.0057C32.286 55.0686 32.3399 55.1392 32.3996 55.2048C32.5239 55.3412 32.4594 55.2817 32.4382 55.4239L32.3658 55.3752C32.2897 55.3242 32.3013 55.2899 32.24 55.2486C32.221 55.236 32.1509 55.2214 32.1184 55.2095L32.0246 55.2497L32.0066 55.2819C31.9783 55.3242 32.0018 55.3554 31.982 55.413L32.1855 55.5497C32.2141 55.5687 32.2286 55.6702 32.2577 55.7244L32.2868 55.7442L32.3452 55.7828C32.3893 55.8127 32.3935 55.8254 32.4226 55.8563C32.5096 55.8655 32.467 55.8737 32.5439 55.8322L32.573 55.7886L32.6674 55.579C32.8209 55.7004 32.8016 55.8312 32.8445 55.9499L32.9782 56.0643C32.9827 56.0638 33.0168 56.0707 33.0337 56.0767L33.0731 56.0186C33.1215 55.9456 33.0919 55.7852 33.1323 55.6789C33.2179 55.7112 33.4368 55.7392 33.4963 55.6702L33.7447 55.3739L33.7886 55.297C33.8777 55.1649 33.8343 54.9632 33.7902 54.8553C33.6503 54.835 33.6728 54.825 33.5425 54.8786L33.5134 54.859C33.4722 54.8316 33.3921 54.8199 33.3726 54.849C33.3371 54.9019 33.4751 55.0073 33.459 55.1601L33.4394 55.1892L33.3834 55.2999L33.3097 55.3752C33.1788 55.3322 33.1238 55.3779 32.9489 55.2605L32.9341 55.251C32.8595 55.2005 32.933 54.9212 32.9793 54.8382C32.9227 54.793 32.9565 54.8017 32.9016 54.765C32.8217 54.7113 32.6156 54.7729 32.5186 54.7396L32.489 54.7832L32.623 54.9257L32.6095 54.9486L32.5519 54.9098L32.3277 54.7105L32.2947 54.6952C32.2561 54.6912 32.2326 54.6954 32.1879 54.6658C32.1565 54.6442 32.2075 54.5427 32.2323 54.5054C32.25 54.4792 32.2474 54.3468 32.2088 54.3209C32.1464 54.2791 32.1184 54.285 32.0581 54.2622L31.9138 54.4391L31.7624 54.6323C31.7518 54.6531 31.7774 54.7145 31.7851 54.7324L31.7653 54.7615L31.6966 54.9042L31.682 54.9167L31.5623 55.0684C31.5192 55.1165 31.5385 55.1212 31.507 55.1783C31.7172 55.3195 31.844 55.1469 31.9884 54.9323ZM31.7024 56.3638C31.705 56.3093 31.7082 56.2919 31.7513 56.2282L31.8528 56.2964C31.9244 56.3445 31.8356 56.5422 31.7891 56.6117C31.7703 56.64 31.7761 56.6408 31.774 56.6651L31.6775 56.6204L31.5869 56.502C31.635 56.474 31.5964 56.5213 31.6339 56.4658L31.6828 56.3928L31.7024 56.3638ZM32.6378 56.8863C32.674 56.9749 32.6785 57.0724 32.7247 57.1847C32.7578 57.2643 32.8286 57.4194 32.772 57.5035C32.7144 57.5897 32.5394 57.5746 32.4562 57.5656L32.4269 57.5463L32.3542 57.4977L32.3272 57.4765L32.1792 57.2561L32.0687 57.2003L31.9051 57.0978L31.447 56.7441L31.1286 56.5274L31.0987 56.5105L30.993 56.4782L31.022 56.4346C31.0807 56.3477 31.1048 56.3445 31.1825 56.3524L31.2118 56.3722L31.2263 56.382C31.2573 56.4029 31.3059 56.3976 31.3263 56.3643L31.4502 56.1106L31.469 56.0812L31.4846 56.0281L31.3648 55.948L31.2462 56.1634C31.215 56.2221 31.0733 56.2813 31.0226 56.3085L31.003 56.3373L30.9864 56.3691L30.8812 56.4877C30.8132 56.4621 30.7791 56.4825 30.7212 56.4436L30.6375 56.3857L30.6486 56.3315L30.6663 56.3017L30.7511 56.1476L30.9076 55.9147C30.9581 55.8391 30.9737 55.7167 30.9808 55.648L31.0001 55.6187L31.0976 55.4733L31.1174 55.4442C31.2242 55.3869 31.234 55.3988 31.3503 55.4109L31.3794 55.4308L31.5464 55.5587L31.8012 55.7133L31.9032 55.7818L31.9323 55.8013C31.978 55.8867 32.0108 55.9068 32.0788 55.9869C32.1269 56.044 32.1155 56.1045 32.1594 56.1854L32.203 56.215C32.2231 56.289 32.245 56.3355 32.2167 56.4267C32.203 56.4713 32.1551 56.6632 32.153 56.6664C32.0978 56.7489 32.0682 56.7298 31.9971 56.8358L32.3605 57.0798C32.4298 56.9714 32.3571 56.8847 32.425 56.774L32.5265 56.7698L32.6378 56.8863ZM34.2982 56.9254L34.2805 56.8905L34.1629 56.8752L34.143 56.9056L34.0376 57.0235L34.0016 57.0846L33.9823 57.1139C33.9765 57.1697 33.9889 57.195 33.9477 57.2595C33.8888 57.2373 33.8795 57.2556 33.8266 57.2201L33.6813 57.1226C33.7122 57.0838 33.7199 57.0645 33.7637 57.0938L33.7933 57.1134L33.8222 57.1329L33.8761 57.144L33.9535 57.0312L33.9186 56.9881L33.9392 56.9585L33.9588 56.9291L33.9778 56.9003L33.958 56.6638L33.8819 56.6035C33.829 56.5684 33.8192 56.5869 33.7608 56.5644L33.7019 56.6519C33.694 56.709 33.6733 56.8197 33.6334 56.8797L33.6139 56.9085L33.5946 56.9379L33.5853 57.0156L33.5647 57.0446C33.5409 57.0803 33.5272 57.0787 33.492 57.0589L33.2327 56.9117L33.177 56.8686L33.2452 56.7669C33.2758 56.7214 33.3282 56.7005 33.3665 56.6799L33.5425 56.418C33.5917 56.3915 33.6028 56.3672 33.6641 56.3942L34.0814 56.589C34.1081 56.6017 34.1721 56.6928 34.2358 56.7359L34.3233 56.7943C34.3516 56.8134 34.3518 56.8073 34.3769 56.8091L34.4549 56.8142L34.4932 56.7608C34.5844 56.6254 34.4911 56.3799 34.3489 56.2847L34.2036 56.1869C34.1245 56.1338 34.1425 56.1037 34.0632 56.0508L33.9324 55.9628L33.9036 55.9433L33.8251 55.9345L33.7968 55.9139L33.6689 55.8544L33.5927 55.9041L33.5729 55.9324C33.5253 56.0035 33.4468 56.0458 33.3882 56.146L33.2119 56.4489L33.1001 56.6061L33.0805 56.6352L33.0662 56.7518L33.0459 56.7806C33.0163 56.825 33.0038 56.8295 32.9729 56.8583L32.9526 56.9503L32.9827 56.9701L33.026 56.9994L33.0551 57.0187L33.1156 57.1464L33.1468 57.1649L33.5042 57.4789L33.6704 57.5791C33.7672 57.6441 33.7941 57.6023 33.8885 57.6623C33.9369 57.6425 33.9876 57.6544 34.0296 57.6095L34.1221 57.503C34.1219 57.4556 34.0978 57.4128 34.1221 57.3766L34.1811 57.2894C34.2744 57.1498 34.2324 57.0557 34.2548 57.0224L34.2641 57.0076C34.2908 56.9688 34.2839 56.9632 34.2982 56.9254ZM35.255 56.977C35.2642 56.8898 35.3242 56.6439 35.2418 56.5884C35.1945 56.557 34.9587 56.7378 34.9204 56.8157L34.8514 56.9585C34.8009 57.051 34.7544 57.0325 34.7018 57.1615C34.674 57.2297 34.6251 57.3251 34.5789 57.3877L34.2572 57.8257L34.1544 57.9885L34.1351 58.0176L34.1055 58.1643L34.1354 58.2063L34.1634 58.2266C34.2435 58.2803 34.5292 58.1838 34.5622 58.1355L34.5715 58.1209C34.6074 58.0675 34.5506 58.058 34.5865 58.0044L34.6064 57.9753C34.6608 57.8939 34.7731 57.6824 34.8059 57.6457L34.9907 57.4316L35.011 57.4036L35.02 57.3259L35.0404 57.2971L35.2357 57.0061L35.255 56.977ZM44.2625 47.3944C34.9827 47.3944 27.457 54.9198 27.457 64.1998C27.457 73.4798 34.9827 81.005 44.2625 81.005C53.5425 81.005 61.0685 73.4798 61.0685 64.1998C61.0685 54.9198 53.5425 47.3944 44.2625 47.3944ZM44.2625 47.7691C35.1894 47.7691 27.8315 55.1271 27.8315 64.1998C27.8315 73.2726 35.1894 80.6305 44.2625 80.6305C53.3355 80.6305 60.6937 73.2726 60.6937 64.1998C60.6937 55.1271 53.3355 47.7691 44.2625 47.7691ZM44.2625 53.2668C50.2994 53.2668 55.1957 58.1624 55.1957 64.1998C55.1957 70.237 50.2994 75.1328 44.2625 75.1328C38.2259 75.1328 33.3292 70.237 33.3292 64.1998C33.3292 58.1624 38.2259 53.2668 44.2625 53.2668Z" fill="#006171"/>
</g>
<defs>
<filter id="filter0_d_185_408" x="0" y="0" width="154" height="157" filterUnits="userSpaceOnUse" color-interpolation-filters="sRGB">
<feFlood flood-opacity="0" result="BackgroundImageFix"/>
<feColorMatrix in="SourceAlpha" type="matrix" values="0 0 0 0 0 0 0 0 0 0 0 0 0 0 0 0 0 0 127 0" result="hardAlpha"/>
<feOffset dy="16"/>
<feGaussianBlur stdDeviation="6.5"/>
<feColorMatrix type="matrix" values="0 0 0 0 0 0 0 0 0 0 0 0 0 0 0 0 0 0 0.03 0"/>
<feBlend mode="normal" in2="BackgroundImageFix" result="effect1_dropShadow_185_408"/>
<feBlend mode="normal" in="SourceGraphic" in2="effect1_dropShadow_185_408" result="shape"/>
</filter>
</defs>
</svg>
