<svg width="154" height="157" viewBox="0 0 154 157" fill="none" xmlns="http://www.w3.org/2000/svg">
<g filter="url(#filter0_d_185_49)">
<rect width="128" height="128" transform="translate(13)" fill="white"/>
<path d="M117.485 73.7332V74.0324C117.724 74.0324 117.844 74.0923 117.904 74.0923L117.963 74.1521V77.7428C117.963 77.8625 117.963 77.9822 117.904 77.9822C117.844 78.042 117.724 78.042 117.485 78.042V78.3412H119.28V78.042C119.041 78.042 118.921 77.9822 118.921 77.9822C118.861 77.9822 118.861 77.9223 118.861 77.9223C118.861 77.8625 118.801 77.6829 118.801 77.3239V74.212C118.801 74.0923 118.861 74.0324 118.861 74.0324C118.921 74.0324 119.041 73.9726 119.28 73.9726V73.6734H118.322C118.143 73.7931 117.844 73.7931 117.485 73.7332ZM121.315 73.7931C120.776 73.7931 120.178 73.7931 119.579 73.7332H119.519C119.519 74.0324 119.579 74.3915 119.579 74.8104H119.819C119.819 74.4513 119.878 74.2718 119.878 74.212C119.878 74.212 119.878 74.1521 119.938 74.1521C119.938 74.1521 119.998 74.1521 120.118 74.0923H120.956V76.7254C120.956 77.3239 120.956 77.6829 120.896 77.7428C120.896 77.8026 120.896 77.8625 120.836 77.8625C120.836 77.8625 120.776 77.9223 120.716 77.9223C120.597 77.9223 120.477 77.9822 120.357 77.9822V78.2814H122.212V77.9822C121.973 77.9822 121.793 77.9223 121.793 77.9223C121.734 77.8625 121.734 77.8026 121.734 77.6829V74.0923H121.793C122.212 74.0923 122.512 74.0923 122.691 74.1521C122.751 74.1521 122.751 74.1521 122.751 74.212C122.751 74.2718 122.811 74.4513 122.811 74.8104H123.05C123.05 74.3915 123.11 74.0324 123.11 73.7332L123.05 73.6734C122.512 73.7931 121.853 73.7931 121.315 73.7931ZM87.3829 73.7332V74.0324C87.6223 74.0324 87.742 74.0923 87.8018 74.0923C87.8617 74.0923 87.8617 74.1521 87.8617 74.1521C87.8617 74.212 87.9215 74.3317 87.9215 74.571V77.1443C87.6821 76.7853 87.323 76.3664 87.0238 75.8876C86.4852 75.1096 86.0065 74.4513 85.5876 73.7931H84.3907V74.0923C84.6301 74.0923 84.7497 74.1521 84.8096 74.1521L84.8694 74.212C84.8694 74.2718 84.9293 74.5112 84.9293 74.8703V77.4436C84.9293 77.7428 84.9293 77.9223 84.8694 77.9822C84.8694 78.042 84.8096 78.042 84.8096 78.042C84.7497 78.042 84.6301 78.1019 84.3907 78.1019V78.4011H85.7671V78.1019C85.5277 78.1019 85.408 78.042 85.3482 78.042L85.2883 77.9822C85.2883 77.9223 85.2285 77.7428 85.2285 77.3239V74.7506C85.4679 75.0498 85.7073 75.4687 86.0663 75.9475C86.7246 76.905 87.3231 77.6829 87.8018 78.3412C87.9215 78.3412 88.0412 78.4011 88.2806 78.4609L88.3404 78.4011V74.1521C88.3404 74.0923 88.3404 74.0923 88.4003 74.0923L88.4601 74.0324C88.5199 74.0324 88.6396 73.9726 88.8192 73.9726V73.6734H88.101C87.8018 73.7931 87.5624 73.7931 87.3829 73.7332ZM83.4332 77.264L82.1764 73.7332H81.7575L80.8 76.6057C80.6205 77.1443 80.5008 77.5034 80.3811 77.8026L80.2614 78.042C80.2016 78.1019 80.1417 78.1019 79.9622 78.1019V78.4011H81.2189V78.1019C80.9795 78.1019 80.8599 78.042 80.8 78.042C80.7402 78.042 80.7402 77.9822 80.7402 77.9223V77.8026C80.8 77.6231 80.8 77.4436 80.8599 77.3239L80.9795 76.9648H82.4158L82.5953 77.5034C82.6552 77.7428 82.715 77.8625 82.715 77.9223C82.715 77.9822 82.715 77.9822 82.6552 78.042C82.5953 78.042 82.4757 78.1019 82.2961 78.1019V78.4011H84.0316V78.1019C83.8521 78.1019 83.7324 78.042 83.6725 78.042C83.6127 78.042 83.6127 77.7428 83.4332 77.264ZM81.1591 76.6057L81.7575 74.9301L82.356 76.6057H81.1591ZM73.499 73.7332V74.0324C73.7384 74.0324 73.8581 74.0923 73.9179 74.0923L73.9778 74.1521C73.9778 74.212 74.0376 74.3915 74.0376 74.6309V75.8278C74.0376 76.5459 74.0376 76.9648 73.9778 77.2042C73.9179 77.3837 73.7982 77.5633 73.6785 77.6829C73.499 77.8026 73.3195 77.8625 73.0202 77.8625C72.7809 77.8625 72.6013 77.8026 72.4218 77.6829C72.3021 77.6231 72.1824 77.5034 72.1226 77.3239C71.943 77.2042 71.943 76.9648 71.943 76.6057V74.2718C71.943 74.212 71.943 74.1521 72.0029 74.0923L72.0627 74.0324C72.1226 73.9726 72.2423 73.9726 72.4218 73.9726V73.6734H70.6265V73.9726C70.806 73.9726 70.9257 74.0324 70.9855 74.0324C71.0454 74.0324 71.0454 74.0923 71.0454 74.0923C71.0454 74.1521 71.1052 74.2718 71.1052 74.3915V76.7853C71.1052 77.2042 71.1651 77.4436 71.2848 77.6829C71.4044 77.8625 71.584 78.042 71.8234 78.1617C72.0627 78.2814 72.3619 78.3412 72.7809 78.3412C73.1399 78.3412 73.4391 78.2814 73.6785 78.1617C73.9179 78.042 74.0974 77.8625 74.2171 77.6231C74.3368 77.3837 74.3967 77.1443 74.3967 76.8451V76.0671C74.3967 75.4687 74.3967 74.8703 74.4565 74.3915C74.4565 74.212 74.5164 74.0923 74.5164 74.0324C74.5762 73.9726 74.6959 73.9726 74.8754 73.9726V73.6734H74.2171C73.9778 73.7931 73.7384 73.7931 73.499 73.7332ZM77.6881 73.7332V74.0324C77.9275 74.0324 78.107 74.0923 78.107 74.0923C78.1669 74.0923 78.1669 74.212 78.1669 74.3317V75.7679H76.4314V74.5112C76.4314 74.2718 76.4314 74.1521 76.4912 74.1521C76.4912 74.1521 76.4912 74.0923 76.5511 74.0923C76.6109 74.0923 76.7306 74.0324 76.97 74.0324V73.7332H75.1148V74.0324C75.3542 74.0324 75.5337 74.0923 75.5337 74.0923L75.5935 74.1521V77.8625C75.5935 77.9223 75.5337 77.9822 75.5337 78.042C75.4739 78.042 75.3542 78.1019 75.1148 78.1019V78.4011H76.9101V78.1019C76.6707 78.1019 76.4912 78.042 76.4912 78.042C76.4314 77.9822 76.4314 77.9223 76.4314 77.6829V76.127H78.2267V77.7428C78.2267 77.8625 78.2267 77.9822 78.1669 77.9822C78.107 78.042 77.9873 78.042 77.7479 78.042V78.3412H79.5433V78.042C79.3039 78.042 79.1842 77.9822 79.1244 77.9822C79.1244 77.9822 79.0645 77.9223 79.0645 77.8625V74.571C79.0645 74.2718 79.0645 74.0923 79.1244 74.0324C79.1244 74.0324 79.1244 73.9726 79.1842 73.9726C79.2441 73.9726 79.3637 73.9127 79.6031 73.9127V73.6135H78.7055C78.4661 73.7931 78.1669 73.7931 77.6881 73.7332Z" fill="black"/>
<path d="M69.37 73.7332V74.0324C69.6094 74.0324 69.7291 74.0324 69.7889 74.0923C69.8488 74.0923 69.8488 74.1521 69.8488 74.212C69.8488 74.3915 69.7889 74.6907 69.6692 75.1096L69.1905 77.1443L68.0534 73.6734H67.7542C67.6345 73.9726 67.455 74.5112 67.1558 75.1695L66.4376 76.905L66.1384 75.1695C66.0187 74.5112 65.9589 74.1521 65.9589 74.0923C65.9589 74.0324 65.9589 73.9726 66.0187 73.9726C66.0786 73.9726 66.1983 73.9127 66.3778 73.9127V73.6135H64.7021V73.9127C64.8817 73.9127 65.0014 73.9726 65.0014 73.9726C65.0612 74.0324 65.0612 74.0923 65.1211 74.2718L65.4203 75.8278C65.6597 77.2042 65.8392 78.042 65.899 78.3412H66.318C66.4975 77.8625 66.677 77.3239 66.9164 76.7853L67.6345 74.9899L68.7716 78.3412H69.3102L69.7291 76.4262C69.9685 75.2892 70.148 74.571 70.2078 74.3317C70.2677 74.1521 70.2677 74.0923 70.3275 74.0324C70.3874 73.9726 70.4469 73.9726 70.6265 73.9726V73.6734H70.0283C69.9086 73.7931 69.6692 73.7931 69.37 73.7332ZM113.296 77.8625L112.817 77.0247L112.219 75.9475C112.518 75.7679 112.757 75.5884 112.877 75.4089C112.997 75.2293 113.056 74.9899 113.056 74.6907C113.056 74.5112 112.997 74.3317 112.937 74.1521C112.877 73.9726 112.757 73.9127 112.638 73.7931C112.518 73.7332 112.278 73.6734 111.979 73.6734L110.603 73.7332H109.885V74.0324C110.124 74.0324 110.244 74.0923 110.244 74.0923L110.304 74.1521C110.304 74.2718 110.363 74.5112 110.363 74.9301V77.4436C110.363 77.7428 110.363 77.9223 110.304 77.9822C110.304 77.9822 110.304 78.042 110.244 78.042C110.184 78.042 110.064 78.1019 109.885 78.1019V78.4011H111.68V78.1019C111.441 78.1019 111.321 78.042 111.321 78.042C111.261 78.042 111.261 77.9822 111.261 77.9822C111.261 77.9223 111.261 77.7428 111.201 77.4436V74.1521H111.56C111.8 74.1521 112.039 74.212 112.159 74.3915C112.278 74.5112 112.338 74.7506 112.338 74.9899C112.338 75.2892 112.278 75.5285 112.099 75.7081C111.919 75.8876 111.74 75.9475 111.56 75.9475H111.381C111.381 76.0073 111.381 76.0073 111.321 76.0671L111.919 77.0845C112.219 77.6829 112.458 78.1019 112.638 78.4011H113.715V78.1617C113.595 78.1617 113.535 78.1617 113.535 78.1019L113.296 77.8625ZM104.678 73.7332V74.0324C104.918 74.0324 105.037 74.0923 105.097 74.0923C105.157 74.0923 105.157 74.1521 105.157 74.212C105.157 74.3317 105.037 74.7506 104.798 75.4089L104.14 77.264L103.362 74.9899C103.182 74.5112 103.122 74.2718 103.122 74.212C103.122 74.1521 103.122 74.1521 103.182 74.0923C103.242 74.0923 103.362 74.0324 103.541 74.0324V73.7332H101.746V74.0324C101.925 74.0324 102.045 74.0923 102.105 74.0923C102.165 74.0923 102.165 74.212 102.225 74.3317C102.344 74.571 102.464 74.9899 102.703 75.6482L103.661 78.4609H104.08C104.14 78.1617 104.259 77.8026 104.439 77.3239L105.277 74.8703C105.456 74.3915 105.576 74.1521 105.576 74.0923C105.576 74.0324 105.696 74.0324 105.875 74.0324V73.7332H105.217C105.277 73.7931 105.037 73.7931 104.678 73.7332ZM126.521 73.7332C126.162 74.4513 125.923 75.0498 125.684 75.4687L125.444 75.9475C125.205 75.349 124.965 74.8703 124.786 74.5112C124.606 74.212 124.487 73.9726 124.367 73.8529C124.307 73.7931 124.247 73.7332 124.128 73.6734C123.828 73.7931 123.529 73.8529 123.23 73.9127V74.1521H123.35C123.41 74.1521 123.469 74.1521 123.469 74.212C123.529 74.2718 123.649 74.3915 123.769 74.571C123.888 74.7506 124.068 75.1096 124.307 75.5884C124.547 76.0671 124.666 76.3664 124.726 76.4861C124.726 76.5459 124.786 76.7254 124.786 77.0247V77.9223C124.786 77.9822 124.726 78.042 124.726 78.1019C124.666 78.1617 124.547 78.1617 124.307 78.1617V78.4609H126.162V78.1617C125.923 78.1617 125.743 78.1617 125.743 78.1019C125.684 78.1019 125.684 77.9822 125.684 77.8625V76.7853C125.684 76.5459 125.684 76.3664 125.743 76.2467C125.803 76.127 126.043 75.6482 126.462 74.8703C126.701 74.3915 126.94 74.0324 127 73.9127V73.7332H126.521ZM99.7111 73.7332V74.0324C99.9505 74.0324 100.07 74.0923 100.13 74.0923L100.19 74.1521V77.7428C100.19 77.8625 100.19 77.9822 100.13 77.9822C100.07 78.042 99.9505 78.042 99.7111 78.042V78.3412H101.506V78.042C101.267 78.042 101.147 77.9822 101.147 77.9822C101.088 77.9822 101.088 77.9223 101.088 77.9223C101.088 77.8625 101.028 77.6829 101.028 77.3239V74.212C101.028 74.0923 101.088 74.0324 101.088 74.0324C101.147 74.0324 101.267 73.9726 101.506 73.9726V73.6734H100.549C100.369 73.7931 100.07 73.7931 99.7111 73.7332ZM109.107 77.9223C108.867 77.9822 108.568 77.9822 108.269 77.9822H107.73V76.1868H108.089C108.389 76.1868 108.628 76.1868 108.688 76.2467C108.748 76.2467 108.748 76.3065 108.748 76.3065C108.748 76.3664 108.807 76.5459 108.807 76.7853H109.047V75.349H108.807C108.807 75.5884 108.807 75.7081 108.748 75.7679C108.748 75.8278 108.688 75.8278 108.688 75.8876H107.67C107.67 75.4687 107.67 74.9301 107.73 74.2718H108.269C108.568 74.2718 108.807 74.2718 108.987 74.3317C109.047 74.3317 109.107 74.3915 109.107 74.3915C109.107 74.3915 109.107 74.571 109.167 74.9301H109.406C109.406 74.5112 109.466 74.212 109.466 73.9726V73.9127H107.491C107.252 73.9127 106.892 73.9127 106.474 73.8529V74.1521C106.713 74.1521 106.833 74.212 106.892 74.212C106.952 74.2718 106.952 74.3317 106.952 74.4513V75.9475C106.952 77.0247 106.952 77.8026 106.892 78.1019C106.833 78.1617 106.713 78.2215 106.593 78.2814V78.4609H108.927C109.107 78.4609 109.226 78.4609 109.406 78.4011C109.406 78.042 109.466 77.6829 109.466 77.264H109.226C109.226 77.5034 109.167 77.7428 109.107 77.9223ZM93.3078 73.7332V74.0324C93.5472 74.0324 93.6668 74.0923 93.7267 74.0923L93.7865 74.1521C93.7865 74.212 93.8464 74.3915 93.8464 74.6309V75.8278C93.8464 76.5459 93.8464 76.9648 93.7865 77.2042C93.7267 77.3837 93.607 77.5633 93.4873 77.6829C93.3078 77.8026 93.1282 77.8625 92.829 77.8625C92.5896 77.8625 92.4101 77.8026 92.2306 77.6829C92.1109 77.6231 91.9912 77.5034 91.9314 77.3239C91.8715 77.1443 91.8117 76.905 91.8117 76.5459V74.212C91.8117 74.1521 91.8117 74.0923 91.8715 74.0324L91.9314 73.9726C91.9912 73.9127 92.1109 73.9127 92.2904 73.9127V73.6135H90.4951V73.9127C90.6746 73.9127 90.7943 73.9726 90.8542 73.9726C90.914 73.9726 90.914 74.0324 90.914 74.0324C90.914 74.0923 90.9738 74.212 90.9738 74.3317V76.7254C90.9738 77.1443 91.0337 77.3837 91.1534 77.6231C91.2731 77.8026 91.4526 77.9822 91.692 78.1019C91.9314 78.2215 92.2306 78.2814 92.6495 78.2814C93.0086 78.2814 93.3078 78.2215 93.5472 78.1019C93.7865 77.9822 93.9661 77.8026 94.0858 77.5633C94.2054 77.3239 94.2653 77.0845 94.2653 76.7853V76.0073C94.2653 75.4089 94.2653 74.8104 94.3251 74.3317C94.3251 74.1521 94.385 74.0324 94.385 73.9726C94.4448 73.9127 94.5645 73.9127 94.744 73.9127V73.6135H94.0858C93.7865 73.7931 93.5472 73.7931 93.3078 73.7332ZM116.468 75.7679C116.348 75.7081 116.168 75.6482 115.869 75.5884C115.51 75.5285 115.331 75.4687 115.211 75.4089C115.091 75.349 115.031 75.2892 114.971 75.1695C114.912 75.0498 114.912 74.9301 114.912 74.8104C114.912 74.571 114.971 74.3915 115.151 74.2718C115.271 74.1521 115.51 74.0324 115.749 74.0324C115.929 74.0324 116.108 74.0923 116.228 74.1521C116.348 74.212 116.468 74.3317 116.468 74.3915C116.468 74.4513 116.527 74.6309 116.527 74.9899H116.767C116.767 74.6907 116.767 74.5112 116.827 74.3915C116.827 74.2718 116.886 74.1521 116.886 74.0324V73.9726C116.707 73.9127 116.527 73.8529 116.408 73.7931C116.228 73.7332 116.049 73.7332 115.869 73.7332C115.331 73.7332 114.912 73.8529 114.672 74.1521C114.433 74.4513 114.313 74.8104 114.313 75.2293C114.313 75.4687 114.373 75.7081 114.433 75.8876C114.493 76.0671 114.612 76.1868 114.792 76.3065C114.971 76.3664 115.271 76.4861 115.69 76.5459C115.989 76.6057 116.168 76.6656 116.288 76.7853C116.408 76.905 116.468 77.0845 116.468 77.3239C116.468 77.5633 116.408 77.8026 116.228 77.9223C116.049 78.1019 115.869 78.1617 115.57 78.1617C115.39 78.1617 115.271 78.1617 115.151 78.1019C115.031 78.042 114.912 77.9822 114.792 77.8625C114.672 77.7428 114.672 77.6829 114.612 77.6231V77.0247H114.373V77.7428C114.373 77.8625 114.313 77.9822 114.313 78.1617C114.493 78.2814 114.732 78.3412 114.912 78.4011C115.091 78.4609 115.331 78.4609 115.57 78.4609C116.108 78.4609 116.527 78.2814 116.827 77.9822C117.126 77.6829 117.305 77.264 117.305 76.8451C117.305 76.5459 117.246 76.3664 117.186 76.1868C116.767 76.0073 116.647 75.8278 116.468 75.7679ZM97.9756 73.7332V74.0324C98.215 74.0324 98.3347 74.0923 98.3945 74.0923C98.4544 74.0923 98.4544 74.1521 98.4544 74.1521C98.4544 74.212 98.5142 74.3317 98.5142 74.571V77.1443C98.2749 76.7853 97.9158 76.3664 97.6166 75.8876C97.078 75.1096 96.5992 74.4513 96.1803 73.7931H94.9834V74.0923C95.2228 74.0923 95.3425 74.1521 95.4023 74.1521L95.4622 74.212C95.4622 74.2718 95.522 74.5112 95.522 74.8703V77.4436C95.522 77.7428 95.522 77.9223 95.4622 77.9822C95.4622 78.042 95.4023 78.042 95.4023 78.042C95.3425 78.042 95.2228 78.1019 94.9834 78.1019V78.4011H96.3598V78.1019C96.1205 78.1019 96.0008 78.042 95.9409 78.042L95.8811 77.9822C95.8811 77.9223 95.8212 77.7428 95.8212 77.3239V74.7506C96.0606 75.0498 96.3 75.4687 96.6591 75.9475C97.3174 76.905 97.9158 77.6829 98.3945 78.3412C98.5142 78.3412 98.6339 78.4011 98.8733 78.4609L98.9332 78.4011V74.1521C98.9332 74.0923 98.9332 74.0923 98.993 74.0923L99.0528 74.0324C99.1127 74.0324 99.2324 73.9726 99.4119 73.9726V73.6734H98.6938C98.3946 73.7931 98.215 73.7931 97.9756 73.7332Z" fill="black"/>
<path d="M107.072 62.9012V63.6193L107.671 63.6792H108.449L108.568 63.2004L108.389 62.7216L107.97 62.3027L107.252 62.1232L106.653 62.0035L106.055 61.7641V61.2854L106.115 60.8665L106.474 60.5074L106.952 60.268L107.551 60.0286L107.91 59.7294L107.85 59.3105L107.491 59.0711L107.132 59.131L106.653 59.49L106.354 59.6097V59.0711L106.414 58.6522L106.593 58.1136L106.653 57.5152L106.234 57.1561L105.756 56.8569H105.396L105.037 56.9766L105.157 57.4553L105.277 58.0538L105.337 58.6522L105.396 59.3105V59.9688L105.037 60.5074L104.499 60.6271L103.9 60.7468L103.422 60.8066H102.823L102.464 61.4051L102.703 61.7043L102.883 61.9437L103.422 61.8838L104.02 61.5846L104.559 61.2854L105.157 61.1657L105.217 61.5846L105.037 62.0634L104.559 62.7216L103.841 63.3201L103.182 63.7988L102.883 64.0981L102.943 64.517L103.481 64.5768L103.96 64.3973L104.499 64.0981L104.858 63.6193L104.978 63.2004L105.337 62.8413L105.576 62.3626L105.875 62.2429L106.174 62.3027L106.773 62.602L107.072 62.9012ZM67.9339 69.3644L68.7717 69.1848L69.9686 68.5265L71.1655 67.7486L72.3025 66.9107L73.3199 66.1328L74.1577 65.3548L74.7561 64.8162L75.5341 64.1579L75.7735 64.9359L76.3121 65.7139L76.731 66.6714L77.0901 67.6887L77.6287 68.4667L78.3468 68.1076L78.646 66.9107L78.8256 64.6965V63.0807L78.4665 62.2429L77.9279 61.7043V62.4823L77.8681 63.2602V64.2776L77.8082 64.876L77.4491 64.517L77.0302 63.8587L76.6712 63.0807L76.2523 61.824L76.0129 60.4476L75.953 59.7893L76.4916 59.4302L77.2696 59.2507V58.4727L76.6113 58.5325L76.0129 58.7719L75.7735 58.353L75.7137 56.7372L75.953 55.1214V53.5056L75.5341 52.7875L74.8758 52.6079L73.8585 52.5481L74.038 53.5056L74.3971 54.7025L74.5766 56.1388V57.575L74.6963 58.9514L74.2175 59.3105L73.3797 59.7294L72.4222 60.0286L71.2253 60.3877L70.567 60.7468L69.1906 61.3452L68.0536 61.7043L67.515 61.9437H66.9165L66.5575 62.3626L67.2158 62.7216L67.7543 63.0807L68.4126 63.2602L69.0111 62.6618L69.8489 62.2429L70.5072 61.8838H71.0458L71.1655 62.9012L70.9261 63.5595L70.6867 64.0981L71.0458 64.6367L71.6442 64.6965L72.2427 64.0981L72.7813 63.2602L73.2002 62.8413H73.6191L73.7986 63.8587L73.6191 64.517L73.0207 65.1753L72.1828 65.7139L70.9859 66.5517L69.9088 67.2698L68.3528 67.8084L67.1559 68.1675L66.3779 68.4069V68.9455L67.3354 69.1848L67.9339 69.3644ZM73.3199 61.8838L73.26 62.2429L72.6017 62.3626L72.0631 62.3027L71.4647 62.0634V61.5248L72.123 61.1657L72.9608 60.8066L73.2002 61.1657V61.8838H73.3199ZM73.6789 60.5074L74.2175 60.268L74.7561 60.0885L74.9357 60.6271L75.1152 61.1058L75.2947 61.7641L75.3546 62.4224L75.2947 62.961L74.7561 62.9012L74.2175 62.3626L73.9782 61.7641V61.1058L73.6789 60.5074Z" fill="#FF0003"/>
<path d="M70.2079 65.7739V65.0558L69.789 64.4573L69.6094 63.9786L69.1905 64.3975V64.8763L68.7118 65.4149L68.5322 66.1928L69.1905 66.2527L69.789 66.0731L70.2079 65.7739ZM78.7656 55.4807H78.0475L77.9278 55.7799L78.227 56.4382L78.2869 56.9169L78.1073 57.5154L78.2869 58.054H78.9452L79.4838 57.6351L79.6633 56.5579L79.3042 56.0791L78.7656 55.4807ZM71.704 59.0115L72.5418 58.7123L73.2001 58.2934L73.7387 57.7548V57.276L73.2001 56.8571L72.5418 57.0965L72.0032 57.4555L71.3449 57.7548L70.7465 58.054L70.0882 58.2934L70.926 58.832L71.704 59.0115ZM86.4855 57.3359L86.6651 56.6776L87.2037 56.139L87.3832 55.5405L87.2037 54.6429L86.9045 54.1043L86.4855 53.5657L86.2462 54.0444V55.0618L86.0068 56.3185L85.9469 57.4555L86.0666 58.054L86.4855 57.3359ZM93.0086 67.3299L93.9062 67.3897L94.5047 67.5692L95.0433 67.5094L95.2228 66.9708V66.3125L94.9236 65.7739L94.5645 65.1755L93.8464 64.7566L93.4275 64.6967L93.7866 65.5345L93.8464 66.133L93.6669 66.7913L93.0086 67.3299ZM85.0493 68.5866L85.8273 68.2874L86.0068 67.5692L86.0666 66.8511L86.306 66.0133L86.4257 65.1755L86.6052 64.0983L86.9045 63.44L87.084 62.6022L87.2635 61.884L87.6824 61.4053L87.8021 60.6871L87.9817 60.0887L87.2635 60.2682L87.084 59.6698L86.5454 58.832L86.0666 58.7123L86.0068 59.6099V60.6871L85.7076 61.525L85.2887 62.662L85.2288 63.6195L85.0493 64.577L84.9894 65.4149L84.6304 66.3724L84.2713 67.2102L84.6304 68.048L85.0493 68.5866ZM90.9739 65.8338L90.6148 66.3125L90.3754 66.6117L90.6148 66.7913L90.9739 66.5519L91.3928 66.1928L91.8715 65.7141L92.2306 65.1755L92.3503 64.6967L92.47 64.3377L92.9487 64.0983L93.607 64.0384L94.0259 63.8589L94.6842 63.4998L95.0433 63.1408L95.2228 62.7817L95.7016 62.7219V62.1833L95.2827 61.9439H94.4448L93.9062 61.884L93.9661 62.3029L93.9062 62.7219L93.5472 63.0809L93.1283 63.1408L92.8889 63.0211L92.9487 62.7219L93.1881 62.4825L93.3677 62.2431L93.4275 61.7045L93.6669 61.3454L93.9661 60.9265V60.3879L93.9062 59.8493L93.6669 59.4903L93.607 58.9517H94.1456L94.385 58.7721L94.7441 58.4131L94.9236 58.054V57.6949L94.2055 57.2162L93.7866 57.276L93.4275 57.2162V56.4382L93.607 56.0193L94.3252 55.3012L94.6842 55.0618L94.9835 54.7027L95.2228 54.224L95.3425 53.6854V53.0869L95.0433 52.7278L94.6842 52.6082L94.4448 52.8475L94.2653 53.3861V54.0444L94.0259 54.5232L93.607 54.7626H93.248V54.4035L93.0684 54.1641L92.7094 53.9247V54.4035L92.8291 54.7626V55.1216L92.7692 55.6004L92.47 55.6602L92.4101 55.4208L92.3503 55.1216L92.0511 54.8822H91.7519L91.692 55.4208L91.6322 56.1988L91.2731 56.6776L90.7943 56.9768L90.3156 57.2162L89.8967 57.5154L89.3581 57.5752L88.9392 57.9343L89.3581 58.1737L89.9565 58.4131H90.3754L90.555 58.832L90.7943 59.191L90.555 59.5501L90.4353 60.3879L90.0762 61.1061L89.5975 61.6447L89.3581 62.0037L89.5376 62.3628L89.777 62.7219L90.1361 62.7817L90.555 62.7219L90.8542 62.4825L91.0337 62.1234L91.2731 62.0636L91.8117 62.3029L91.692 63.0809L91.6322 63.44L91.0936 63.6794L90.2557 63.7991L90.1959 64.218L90.6747 64.2778H91.0337L91.2731 64.6369V65.1755L90.9739 65.8338ZM92.2905 59.6099L92.6495 59.8493L92.5897 60.2084L92.1708 60.3879L91.8117 60.5076L91.2731 60.4478V59.969L91.6322 59.7296L92.2905 59.6099ZM90.555 58.2934L91.2731 57.5752H91.8117L92.1708 58.1138L92.1109 58.7721L91.4526 58.832L91.0337 58.5926L90.555 58.2934ZM91.5723 61.8242L90.9739 61.884L90.7345 61.6447L90.9739 61.2257L91.5125 61.1659L91.8715 60.9864L92.2306 61.0462L92.1708 61.4651L91.5723 61.8242ZM116.886 60.3879L117.425 60.3281L117.784 59.9092L117.844 59.3107L118.083 59.0713L118.861 59.0115L119.101 58.5327L119.161 57.3957L118.562 56.8571L118.263 56.498L118.083 56.6177V57.0965L117.964 57.3359H117.485L117.066 57.1563L117.006 58.054L116.886 58.832L116.707 59.3706L116.408 59.6698L116.468 60.0289L116.886 60.3879Z" fill="#FF0003"/>
<path d="M123.709 64.5172L123.53 64.1581L123.171 64.0983L122.512 64.1581L121.974 64.3376H121.615L121.674 63.6793L121.734 63.1407L121.974 62.6021L122.273 62.3628L122.812 62.1832L123.35 61.9439L123.769 61.5249L124.128 61.106L124.667 60.747L124.427 59.9091L123.889 59.6698L123.41 59.8493L122.991 60.0887L122.752 59.7895L122.812 59.5501L123.171 59.191L123.829 58.7721L124.188 58.2335L124.846 57.8744L125.265 57.5154L125.864 57.3358L126.522 57.0366L126.821 56.498V55.9594L126.402 55.361L125.983 55.0019L125.505 54.9421L125.205 55.1814L124.846 55.5405L124.308 55.6003H124.008L123.889 55.361L123.949 55.1216L124.308 55.0617L124.667 54.7027L124.846 54.1042L124.786 53.7452L124.547 53.3861L124.188 53.1467L123.769 53.2066L123.59 53.6255L123.35 54.2239L123.111 54.7625L122.812 55.3011L122.452 55.2413L122.273 55.0019L121.914 54.6428L121.555 54.5232L121.315 54.583V54.8224L121.615 55.4208L121.794 55.8397L121.435 56.1389L121.016 56.498L121.076 56.8571H121.315L121.794 56.6177H122.093L122.333 56.9768L122.572 57.3957L123.051 57.2161L123.47 57.0965L123.709 57.3358L124.068 57.3957L123.949 57.7547L123.59 57.8146L123.23 58.1737L122.692 58.413L122.273 58.054L122.034 57.7547L121.794 57.6949L121.555 57.4555L121.196 58.054L121.136 58.2933L120.478 58.2335L120.238 57.9941L119.999 58.2335L120.178 58.7721L120.238 59.3107L119.64 59.9091L120.238 60.0887L120.897 60.1485L120.777 60.6273L120.178 60.9863L118.204 61.7045L116.648 62.3029L115.81 62.3628L115.271 62.3029H114.733L114.493 62.662L114.792 63.0809L115.211 63.3203L115.75 63.6195L116.348 63.7392L116.887 63.5597L117.426 63.2604L118.263 62.9612L118.802 62.6021L120.119 61.884L120.777 61.4651L121.495 61.0462L121.854 60.8068L122.692 60.8667L122.752 61.2856L122.153 61.7643L121.495 62.1832L120.956 62.3628L120.358 62.8415L120.418 63.6793L120.358 64.4573L119.939 64.8164L119.101 65.0558L118.144 65.2353L117.306 65.2951L116.947 65.5345L117.007 66.0133L117.306 66.2527L117.725 66.492L118.383 66.2527L118.802 66.0133L119.879 65.6542L120.418 65.5944L120.478 66.2527L120.418 66.8511L120.059 67.1503L118.981 67.0905L118.682 66.9109L118.443 67.0306L118.742 67.6889L119.101 67.9881L119.64 68.1677L120.178 68.4669L120.717 68.5267L121.256 68.4071L121.674 67.8685L121.734 66.9708L121.674 66.133V65.2353L121.854 64.8762H123.23L123.709 64.8164V64.5172ZM123.889 56.7374L123.29 56.7972L123.111 56.5579L123.29 56.3185H123.829L124.367 56.3783L125.205 56.3185L125.145 56.7972L124.906 57.1563H124.547L123.889 56.7374Z" fill="#FF0003"/>
<path d="M41.8551 48.0225C41.7014 48.0436 41.3656 48.0786 41.1002 48.0991C38.5891 48.3439 36.1135 49.2465 33.9382 50.7152C32.5744 51.6382 31.1828 52.9599 30.1754 54.2959C28.4902 56.534 27.3778 59.3454 27.1192 62.0519C27.0981 62.29 27.0564 62.6958 27.0281 62.9406C26.9515 63.7238 27.0353 65.1714 27.2313 66.3392C27.3429 67.0175 27.6159 68.0666 27.8607 68.7804C29.1757 72.5777 31.9172 75.7393 35.5118 77.6132C38.3377 79.082 41.6736 79.6559 44.7998 79.2152C49.9264 78.4875 54.3464 75.3264 56.6682 70.7176C57.8011 68.4657 58.3401 66.2066 58.3401 63.6749C58.3401 62.6047 58.284 61.947 58.1231 61.01C57.5708 57.779 55.9761 54.7644 53.5909 52.4498C51.0382 49.9669 47.8632 48.4699 44.3174 48.0853C43.653 48.0087 42.247 47.9737 41.8551 48.0225Z" fill="#000099"/>
<path d="M43.7432 48.617C47.0586 48.8685 50.1359 50.1485 52.6115 52.3165C56.8989 56.0721 58.7034 61.8421 57.3324 67.3534C57.046 68.5146 56.4793 69.9344 55.892 70.9763C55.5839 71.5219 54.8357 72.6337 54.4372 73.1305C53.9964 73.6761 52.8003 74.8856 52.2408 75.3402C48.0516 78.7467 42.5193 79.6837 37.4909 77.8375C34.0217 76.5575 31.0843 73.9909 29.3358 70.6965C26.7764 65.8708 27.049 60.0098 30.0497 55.4499C30.7346 54.408 31.3291 53.6876 32.2316 52.82C34.8543 50.2883 38.0993 48.8618 41.8343 48.6031C42.2678 48.5748 43.247 48.582 43.7432 48.617Z" fill="white"/>
<path d="M42.0584 49.1554C40.8061 49.2465 40.044 49.3652 39.1071 49.61C37.1066 50.1273 35.3654 51.0016 33.6585 52.3376C33.1062 52.7711 31.8612 54.0089 31.4066 54.5757C30.0006 56.338 28.9799 58.4711 28.518 60.6531C28.2805 61.7516 28.2383 62.2267 28.2383 63.6816C28.2383 65.0876 28.2666 65.4023 28.462 66.4303C28.8539 68.4862 29.7209 70.4728 30.9731 72.2074C31.8262 73.3892 33.134 74.6903 34.2813 75.5012C36.3861 76.9838 38.6591 77.8514 41.2607 78.1522C41.8275 78.2149 43.667 78.2149 44.2265 78.1522C46.0865 77.9352 47.6185 77.4734 49.2687 76.6413C50.9056 75.8093 52.4304 74.6409 53.696 73.2421C54.1789 72.7037 54.9687 71.5569 55.4794 70.6477C56.3397 69.1018 56.927 67.3117 57.1718 65.4439C57.2628 64.7795 57.27 62.7724 57.1929 62.1218C56.8782 59.5552 56.0461 57.366 54.6052 55.3028C53.717 54.03 52.4581 52.7711 51.1082 51.8059C50.6958 51.5122 49.7028 50.9111 49.241 50.6869C47.7023 49.9247 46.0238 49.428 44.3242 49.2392C43.7996 49.1765 42.4292 49.1277 42.0584 49.1554Z" fill="#004000"/>
<path d="M40.6108 50.0857C40.6108 50.1068 40.5825 50.1207 40.5475 50.1207C40.5126 50.1207 40.4776 50.1418 40.4637 50.1767C40.4498 50.2045 40.5264 50.5819 40.6247 51.0088C40.7224 51.4423 40.8062 51.8342 40.8062 51.8758C40.8062 51.9252 40.7646 52.0229 40.7157 52.0928C40.4776 52.4425 39.8903 52.4703 39.7155 52.135C39.6666 52.044 39.3025 50.5542 39.3025 50.4565C39.3025 50.4421 39.2537 50.4354 39.1976 50.4354C38.9251 50.4354 39.3375 50.2467 39.6245 50.2395C39.7221 50.2395 39.7155 50.3166 39.6172 50.3444C39.5756 50.3583 39.5406 50.3793 39.5406 50.4071C39.5406 50.5192 39.9114 52.0579 39.9603 52.1278C40.0791 52.3237 40.4776 52.2749 40.6108 52.0507C40.6524 51.9807 40.6874 51.8902 40.6874 51.8408C40.6874 51.792 40.6108 51.4145 40.5126 50.9949C40.4149 50.5753 40.3377 50.2256 40.3377 50.2184C40.3377 50.2045 40.2889 50.2045 40.24 50.2184C40.1629 50.2323 40.1418 50.2184 40.149 50.1767C40.1562 50.1418 40.2328 50.0996 40.3588 50.0718C40.5614 50.0158 40.6108 50.0224 40.6108 50.0857Z" fill="white"/>
<path d="M42.6317 49.9037C42.6317 49.9386 42.5896 49.9597 42.5268 49.9597H42.4219L42.443 50.2256C42.4569 50.3721 42.4847 50.7779 42.5057 51.1276C42.5268 51.4773 42.5546 51.827 42.5618 51.9108C42.5757 52.0229 42.569 52.0579 42.5268 52.0579C42.4991 52.0579 42.226 51.6521 41.9185 51.1487L41.3656 50.2395L41.3867 50.5264C41.485 51.9668 41.485 51.9952 41.5899 52.0229C41.6387 52.0368 41.6948 52.0651 41.7014 52.0928C41.7153 52.1278 41.6526 52.1417 41.4988 52.1489C41.3728 52.1489 41.2541 52.1556 41.233 52.1556C41.2052 52.1556 41.1769 52.135 41.1702 52.1139C41.1558 52.0856 41.1841 52.0651 41.2402 52.0651C41.289 52.0651 41.3379 52.0368 41.3518 52.0018C41.3801 51.9252 41.2607 50.1484 41.2258 50.0857C41.2119 50.0646 41.1558 50.0435 41.107 50.0435C41.0581 50.0435 41.0093 50.0224 41.0093 50.0019C41.0093 49.9525 41.1702 49.9109 41.3307 49.932C41.4567 49.9458 41.485 49.9808 41.9396 50.729C42.1982 51.1625 42.4147 51.5056 42.4219 51.5056C42.443 51.4845 42.3242 50.0435 42.2959 50.0086C42.2821 49.9875 42.2332 49.9736 42.1982 49.9875C42.156 50.0019 42.1144 49.9808 42.1072 49.9525C42.0795 49.8826 42.156 49.862 42.4291 49.8548C42.5829 49.8476 42.6317 49.862 42.6317 49.9037Z" fill="white"/>
<path d="M44.2192 49.911C44.2614 49.9176 44.2892 49.9459 44.2892 49.9737C44.2892 50.0086 44.2264 50.0159 44.0932 50.0086C43.9817 50.002 43.8978 50.0086 43.8978 50.0297C43.8978 50.0508 43.8695 50.4216 43.8418 50.8551C43.8068 51.2886 43.7785 51.7221 43.7785 51.8132V51.9741L43.9678 52.0091C44.1915 52.0507 44.1843 52.1279 43.9606 52.114C43.2823 52.0791 43.1074 52.0507 43.1074 51.9952C43.1074 51.9458 43.1424 51.9392 43.2823 51.953C43.3938 51.9669 43.471 51.9603 43.4849 51.932C43.5198 51.8831 43.6597 50.037 43.632 49.9948C43.6247 49.9809 43.5337 49.9598 43.436 49.9598C43.3034 49.9598 43.2612 49.9459 43.2612 49.8971C43.2612 49.841 43.3172 49.8338 43.7086 49.8621C43.9533 49.8826 44.1843 49.9037 44.2192 49.911Z" fill="white"/>
<path d="M45.3379 50.0575C45.555 50.1136 45.6177 50.1907 45.4712 50.2118C45.3801 50.2257 45.3801 50.2257 45.3662 50.8968C45.359 51.2676 45.3662 51.6106 45.3801 51.6661C45.4012 51.7433 45.4639 51.6522 45.7576 51.1066C45.9535 50.7503 46.1145 50.4283 46.1145 50.4072C46.1145 50.3867 46.0862 50.3517 46.0584 50.3445C46.0234 50.3306 45.9957 50.2957 45.9957 50.2746C45.9957 50.2324 46.0307 50.2324 46.2122 50.2746C46.3382 50.3023 46.4431 50.3373 46.457 50.3517C46.4919 50.3867 46.4292 50.4494 46.3731 50.4283C46.296 50.4006 46.2122 50.5266 45.7159 51.4563C45.4639 51.9253 45.2402 52.31 45.2191 52.31C45.1564 52.31 45.1215 51.806 45.1215 50.8901C45.1215 50.1624 45.1142 50.1275 45.0443 50.1069C44.9533 50.0858 44.9744 50.0159 45.0793 50.0159C45.1142 50.002 45.2264 50.0298 45.3379 50.0575Z" fill="white"/>
<path d="M47.5553 50.6869L48.1082 50.8967L48.1221 51.1487C48.1293 51.3374 48.1221 51.3935 48.0799 51.3935C48.0449 51.3935 48.0033 51.3235 47.9822 51.2258C47.9611 51.1348 47.9122 51.0227 47.8845 50.9877C47.8146 50.9039 47.3455 50.708 47.3039 50.7501C47.255 50.799 46.9892 51.4773 47.0103 51.5122C47.0169 51.5261 47.129 51.5755 47.2478 51.6172L47.4715 51.6943L47.5836 51.5544C47.6464 51.4773 47.7024 51.4284 47.7163 51.4423C47.7513 51.4773 47.4854 52.1767 47.4366 52.1489C47.4155 52.135 47.4016 52.0579 47.4016 51.9668C47.4016 51.827 47.3877 51.7992 47.255 51.7359C46.9542 51.5961 46.9542 51.5961 46.7583 52.1001C46.6606 52.3515 46.5973 52.5613 46.6184 52.5824C46.6323 52.5963 46.7583 52.6524 46.8843 52.7012C47.1707 52.8061 47.325 52.785 47.5137 52.6246C47.7096 52.4498 47.7163 52.5402 47.5276 52.7995L47.3666 53.0159L47.1429 52.9249C47.0169 52.8761 46.7444 52.7711 46.5346 52.6873C46.3037 52.5963 46.1499 52.5197 46.1499 52.4847C46.1499 52.4498 46.1849 52.4353 46.2615 52.4498C46.3736 52.4703 46.3736 52.4703 46.6955 51.6105C46.877 51.1348 47.0241 50.7152 47.0241 50.6802C47.0241 50.6452 46.9958 50.603 46.9681 50.5892C46.8981 50.5614 46.8909 50.4843 46.9542 50.4843C46.982 50.477 47.255 50.5753 47.5553 50.6869Z" fill="white"/>
<path d="M49.4159 51.5824C49.6046 51.7011 49.7517 51.911 49.7517 52.0442C49.7517 52.1979 49.6046 52.4499 49.4647 52.5337C49.3948 52.5754 49.2688 52.6103 49.1711 52.6103C48.9823 52.6103 48.989 52.5898 48.9191 53.2331C48.8774 53.5895 48.8841 53.6455 48.9402 53.7088C49.0384 53.8204 48.9685 53.8343 48.8003 53.7505C48.6188 53.6594 48.6188 53.6455 48.7026 53.0022C48.7792 52.4566 48.7792 52.4705 48.6537 52.415C48.5977 52.3866 48.5488 52.3728 48.5416 52.38C48.5344 52.3866 48.4295 52.5826 48.3041 52.8063C48.1009 53.1698 48.087 53.2259 48.1431 53.2681C48.213 53.3169 48.2341 53.4218 48.1708 53.3941C48.0099 53.338 47.6535 53.1349 47.6674 53.1071C47.6746 53.086 47.7301 53.0649 47.7934 53.0649C47.8983 53.0649 47.9399 53.0094 48.3529 52.254C48.5977 51.8133 48.8003 51.4214 48.8003 51.3936C48.8003 51.3659 48.7725 51.3309 48.7376 51.3098C48.7026 51.2887 48.6815 51.2538 48.6954 51.2327C48.7303 51.191 49.0589 51.3514 49.4159 51.5824Z" fill="white"/>
<path d="M35.456 53.233C36.1487 53.7853 36.2953 53.8836 36.3863 53.8691C36.5684 53.8414 36.5473 53.8974 36.3025 54.0934C36.1277 54.2333 36.0649 54.261 36.0505 54.2188C36.0366 54.1839 36.0438 54.1489 36.0649 54.135C36.0855 54.1211 36.0999 54.0934 36.0999 54.0651C36.0999 54.009 35.652 53.6388 35.582 53.6388C35.5609 53.6388 35.4494 53.7087 35.3511 53.7925L35.1624 53.9391L35.2673 54.1839C35.4072 54.4986 35.4632 54.5619 35.5754 54.5335C35.6242 54.5197 35.6658 54.5269 35.6658 54.548C35.6658 54.6107 35.3095 54.8694 35.2606 54.8416C35.2323 54.8277 35.2395 54.7994 35.2673 54.7717C35.2956 54.7434 35.3095 54.7017 35.3095 54.6734C35.3095 54.6457 35.1208 54.1911 34.8965 53.6737C34.5329 52.8484 34.4841 52.7151 34.5329 52.6452C34.5613 52.6036 34.5962 52.5686 34.6101 52.5686C34.624 52.5753 35.0014 52.8695 35.456 53.233Z" fill="white"/>
<path d="M36.9527 51.2326C36.9666 51.2537 36.9388 51.2887 36.8966 51.3097C36.8545 51.3308 36.8128 51.3725 36.8128 51.4008C36.8128 51.4285 37.0293 51.8343 37.2885 52.3028C37.5472 52.7712 37.7637 53.1842 37.7637 53.2047C37.7637 53.2819 37.7082 53.2469 36.8195 52.6597C36.3582 52.3516 35.9802 52.1002 35.9663 52.1002C35.9597 52.1002 36.1412 52.4426 36.3649 52.8551C36.7706 53.5894 36.7845 53.6105 36.8966 53.5894C37.0926 53.5478 37.0576 53.6316 36.8267 53.7576C36.694 53.8275 36.5891 53.8625 36.568 53.8414C36.547 53.8203 36.5608 53.7853 36.6169 53.7576C36.6657 53.7293 36.7007 53.7015 36.7007 53.6804C36.7007 53.6527 35.8054 52.0158 35.7637 51.9808C35.7565 51.9742 35.7005 51.988 35.6516 52.0091C35.4701 52.0929 35.5117 51.9669 35.7005 51.8554L35.8753 51.7505L37.4562 52.7995L37.3091 52.5337C37.2325 52.3866 37.0643 52.0857 36.9388 51.862C36.7146 51.4563 36.7146 51.4563 36.5891 51.4774C36.3999 51.5123 36.4282 51.4424 36.6657 51.3025C36.8966 51.1837 36.9177 51.1765 36.9527 51.2326Z" fill="white"/>
<path d="M50.8632 52.5053C50.9615 52.5547 51.0941 52.6735 51.1568 52.7645C51.2201 52.855 51.3111 52.9321 51.3461 52.9321C51.4366 52.9321 51.4366 52.9393 51.2901 53.1697C51.1219 53.4495 51.0664 53.4289 51.0869 53.1142C51.1013 52.8622 51.1013 52.855 50.9615 52.7151C50.8565 52.6102 50.7933 52.5752 50.6817 52.5752C50.4996 52.5752 50.3598 52.6662 50.3037 52.82C50.2548 52.9532 50.2898 53.0648 50.5135 53.5266C50.5907 53.6876 50.6606 53.8763 50.6606 53.9324C50.6606 54.2049 50.4297 54.4919 50.1638 54.5407C49.8841 54.5896 49.7026 54.4847 49.3878 54.0933C49.3667 54.065 49.3179 54.0439 49.2685 54.0439C49.1919 54.0439 49.1986 54.0234 49.3318 53.7642C49.4156 53.6104 49.4994 53.4844 49.5344 53.4844C49.5766 53.4844 49.5832 53.5055 49.5693 53.5544C49.5555 53.5893 49.5344 53.7087 49.5205 53.8064C49.4644 54.2748 49.9401 54.5757 50.2687 54.2821C50.4574 54.1139 50.4508 53.9251 50.2271 53.4567C49.989 52.9532 49.9962 52.7712 50.2687 52.5613C50.4924 52.4004 50.6256 52.3865 50.8632 52.5053Z" fill="white"/>
<path d="M43.8767 52.8135C47.9331 53.2681 51.3879 55.8836 52.8916 59.6392C53.3112 60.6882 53.5071 61.5625 53.6609 63.0523L53.6892 63.3392L53.969 63.1711C54.3325 62.9546 54.7588 62.6116 55.1857 62.1853L55.5281 61.8494V61.9754C55.5281 62.2413 55.3605 63.276 55.2834 63.5069C55.0036 64.3184 54.5634 64.8291 53.8496 65.1787C53.6959 65.2553 53.5632 65.3325 53.5493 65.3603C53.5349 65.3886 53.5282 66.2134 53.5421 67.1998L53.5632 68.9904H53.9967L54.4236 69.6404L54.8499 70.2909H55.0597C55.1718 70.2909 55.2628 70.3048 55.2556 70.3259C55.2484 70.347 55.1019 70.5918 54.9337 70.8787L54.6262 71.3961H51.1153L50.7024 71.7596C49.7166 72.62 48.2129 73.578 47.1078 74.0399C45.1217 74.8719 42.8626 75.1306 40.7361 74.7603C39.4983 74.5433 38.3094 74.1237 37.2042 73.5153C36.2462 72.9908 35.6028 72.494 34.9245 71.7669L34.5399 71.3539L32.7281 71.3611L30.9169 71.3683L30.595 70.8577C30.4202 70.5779 30.2664 70.3259 30.2597 70.2981C30.2453 70.2632 30.3014 70.2493 30.4696 70.2493H30.6999L30.9941 69.6754L31.2877 69.102L31.4837 69.0881L31.6791 69.0742L31.6935 65.3952L31.3505 65.2204C30.5251 64.7941 30.015 63.9898 29.7208 62.626C29.6092 62.1081 29.5531 61.7723 29.567 61.7723C29.5742 61.7723 29.7141 61.9122 29.889 62.0804C30.3647 62.5416 31.5186 63.3182 31.7285 63.3182C31.7773 63.3182 31.7984 63.2205 31.84 62.7725C32.0637 60.1637 33.1622 57.8141 35.0156 55.9607C35.3303 55.646 35.7777 55.2402 36.0014 55.0654C37.5889 53.8343 39.4772 53.051 41.415 52.8135C41.9534 52.7713 43.3871 52.7646 43.8767 52.8135Z" fill="white"/>
<path d="M33.6584 53.5478C33.6373 53.6316 33.7283 53.7293 34.2951 54.2888C34.6586 54.6457 34.9806 54.9393 35.0155 54.9466C35.0505 54.9532 35.0993 54.9393 35.1271 54.9116C35.1693 54.8766 35.1832 54.8766 35.1832 54.9183C35.1832 54.9743 34.8684 55.3101 34.8196 55.3101C34.8057 55.3101 34.7985 55.2613 34.8124 55.2124C34.8335 55.1214 34.7913 55.0726 34.491 54.7856L34.1413 54.4637L33.8893 54.7229L33.6373 54.9815L33.9592 55.3029C34.2667 55.6176 34.3861 55.6809 34.4416 55.5899C34.4627 55.5549 34.4766 55.5549 34.5115 55.5899C34.5398 55.6176 34.4977 55.6876 34.3578 55.8275C34.1618 56.0234 34.0919 56.0517 34.1341 55.9046C34.1552 55.8136 33.8821 55.5127 33.1477 54.8344C32.8263 54.5408 32.7492 54.4847 32.7003 54.5269C32.6726 54.5547 32.6232 54.5619 32.5954 54.548C32.5677 54.5269 32.6165 54.4498 32.7425 54.3238C32.8474 54.2189 32.9451 54.1284 32.9662 54.1284C32.9801 54.1284 32.9873 54.1772 32.9729 54.24C32.9523 54.3382 32.9801 54.3798 33.2526 54.6385L33.5607 54.9327L33.8055 54.6596L34.0503 54.3871L33.7844 54.114C33.5046 53.8275 33.4136 53.7787 33.3298 53.8486C33.2948 53.8764 33.2671 53.8836 33.2526 53.8625C33.2249 53.8203 33.5818 53.4079 33.6234 53.4357C33.6656 53.4429 33.6723 53.4917 33.6584 53.5478Z" fill="white"/>
<path d="M52.5002 53.96C52.7378 54.2048 52.8427 54.3308 52.815 54.3585C52.7867 54.3868 52.745 54.3585 52.689 54.2819C52.6401 54.212 52.563 54.1632 52.5141 54.1632C52.4231 54.1632 51.0942 55.4076 51.0942 55.492C51.0942 55.5197 51.1503 55.6036 51.213 55.6807C51.283 55.7573 51.3179 55.8273 51.2968 55.8417C51.2763 55.8556 51.1015 55.6946 50.8983 55.4776C50.6957 55.2611 50.5558 55.0862 50.5836 55.079C50.6119 55.0724 50.6885 55.1212 50.7656 55.1978L50.8983 55.331L51.1015 55.1351C51.7587 54.5128 52.2832 53.9811 52.2832 53.925C52.2832 53.8901 52.241 53.8201 52.1855 53.7713C52.0873 53.6802 52.0595 53.6103 52.1156 53.6103C52.1361 53.6036 52.3043 53.7641 52.5002 53.96Z" fill="white"/>
<path d="M32.323 54.9466C32.3019 55.0581 32.323 55.0792 32.8825 55.485C33.7423 56.1144 33.8056 56.1844 33.7495 56.513C33.6935 56.8066 33.3021 57.0864 33.064 57.0025C33.0013 56.9815 32.6516 56.7511 32.2947 56.4919C31.6725 56.0373 31.5392 55.9673 31.4837 56.0584C31.4693 56.0795 31.4415 56.0867 31.4205 56.0795C31.3994 56.0656 31.4554 55.9535 31.5465 55.8208C31.7074 55.5899 31.7985 55.5477 31.7563 55.7226C31.7352 55.8069 31.7985 55.8624 32.3086 56.2332C33.0363 56.765 33.1129 56.8066 33.2738 56.8066C33.5186 56.8066 33.7007 56.4713 33.5958 56.2121C33.5608 56.1283 33.351 55.9535 32.8964 55.6177C32.5395 55.359 32.2181 55.1425 32.1898 55.1425C32.162 55.1425 32.1271 55.1703 32.1132 55.198C32.0987 55.2263 32.0638 55.2474 32.036 55.233C31.9938 55.2191 32.0221 55.1631 32.1198 55.0165C32.288 54.8067 32.358 54.7784 32.323 54.9466Z" fill="white"/>
<path d="M53.7095 55.3662C53.8705 55.5899 54.0315 55.8135 54.0592 55.8557C54.1086 55.9257 54.0942 55.9534 53.9338 56.1216C53.7378 56.3314 53.654 56.3314 53.7867 56.1216C53.8355 56.0445 53.8705 55.9534 53.8705 55.9046C53.8705 55.7786 53.7867 55.6176 53.724 55.6176C53.6956 55.6176 53.3393 55.8624 52.9197 56.1632C52.3391 56.5829 52.1642 56.73 52.1642 56.7927C52.1642 56.8415 52.1853 56.8909 52.2058 56.9048C52.2408 56.9259 52.2408 56.9398 52.2058 56.9748C52.1853 56.9958 52.157 57.0097 52.1503 57.0025C52.1431 56.9958 52.0521 56.8626 51.9472 56.7161C51.7585 56.4502 51.7307 56.3314 51.8845 56.4713C51.9405 56.5202 51.9894 56.534 52.0382 56.5063C52.248 56.408 53.5419 55.4361 53.5419 55.3728C53.5491 55.254 53.346 55.1353 53.1994 55.163C52.9896 55.2052 52.9402 55.198 52.9197 55.1563C52.9052 55.1142 53.2344 54.9532 53.346 54.9465C53.3881 54.9532 53.5491 55.1425 53.7095 55.3662Z" fill="white"/>
<path d="M31.2318 56.4713C31.2318 56.5413 31.4067 56.695 32.0639 57.2057C32.5468 57.5759 32.8826 57.8629 32.8615 57.884C32.8404 57.9051 32.5679 57.8279 32.2182 57.7019C31.8824 57.5831 31.6026 57.4921 31.6026 57.4921C31.5954 57.4993 31.8263 57.6953 32.1133 57.9328C32.4208 58.1848 32.6167 58.3736 32.5956 58.3947C32.5746 58.4152 32.1621 58.2898 31.5954 58.0938C30.8544 57.8351 30.6024 57.758 30.5114 57.7791L30.3926 57.8068L30.5047 57.6042C30.6163 57.4083 30.7073 57.3456 30.6934 57.4855C30.6862 57.5343 30.7351 57.5693 30.8544 57.6109C30.9449 57.6459 31.2529 57.7508 31.5327 57.8557C31.8191 57.9606 32.0289 58.0239 32.0084 58.0028C31.7286 57.7508 31.1897 57.3384 31.0847 57.2962C31.0009 57.2612 30.896 57.2473 30.8122 57.2612L30.6795 57.2895L30.7845 57.0725C30.8894 56.8627 30.9521 56.821 30.9521 56.9676C30.9521 57.0236 31.0992 57.0936 31.6026 57.2756C31.959 57.4083 32.2532 57.506 32.246 57.506C31.8402 57.1707 31.2107 56.695 31.1691 56.695C31.1342 56.695 31.1058 56.7161 31.0847 56.7367C31.0709 56.765 31.0431 56.765 31.022 56.7439C30.9943 56.7161 31.0148 56.6462 31.0642 56.5413C31.1619 56.3592 31.2318 56.3315 31.2318 56.4713Z" fill="white"/>
<path d="M54.5986 56.6738C54.6752 56.8137 54.7174 56.9397 54.6963 56.9536C54.6752 56.9675 54.6336 56.9464 54.6053 56.9047C54.5775 56.8626 54.5353 56.8415 54.5076 56.8487C54.4587 56.8698 53.7871 57.6108 53.801 57.6252C53.8149 57.6391 54.7873 57.5131 54.8223 57.492C54.8434 57.4781 54.8501 57.4293 54.8362 57.3732C54.794 57.1984 54.9133 57.2755 55.0321 57.4992C55.1581 57.7368 55.1509 57.8001 54.9972 57.7018C54.9061 57.6391 54.8573 57.6391 54.3116 57.7018C53.7449 57.7651 53.71 57.7718 53.3747 57.9466C53.025 58.1287 53.025 58.1287 53.0528 58.2613C53.0949 58.4711 53.0039 58.4084 52.8568 58.1215C52.682 57.779 52.6892 57.7856 52.738 57.7718C52.7658 57.7651 52.7941 57.7929 52.808 57.835C52.8429 57.9466 52.899 57.9399 53.2487 57.7507C53.5074 57.6108 53.605 57.527 53.962 57.1146C54.2278 56.8065 54.3744 56.6111 54.3744 56.5478C54.3744 56.4712 54.4027 56.408 54.4376 56.408C54.4515 56.4152 54.5215 56.5267 54.5986 56.6738Z" fill="white"/>
<path d="M39.016 74.627C39.142 74.7458 39.1276 74.8157 38.925 75.0538C38.6591 75.3686 38.638 75.4102 38.7502 75.4946C38.8623 75.5784 38.8201 75.6622 38.673 75.6344C38.5681 75.6133 38.5542 75.6272 38.4776 75.8093C38.4282 75.9209 38.3794 76.089 38.3655 76.1939L38.3444 76.3827L38.4632 76.2428C38.5265 76.1656 38.5825 76.089 38.5825 76.0746C38.5892 75.998 38.6663 76.0541 38.6663 76.1379C38.6663 76.3127 38.1979 76.8722 38.058 76.8722C37.9808 76.8722 37.9808 76.8789 38.0719 76.3477L38.1068 76.159L37.5612 76.1795C36.8896 76.2078 36.7708 76.1867 36.652 76.033C36.6031 75.963 36.5748 75.8931 36.5959 75.8792C36.617 75.8581 36.7358 75.8792 36.8618 75.9209C37.0089 75.9697 37.2254 75.998 37.4702 75.998C37.7988 76.0047 37.862 75.9908 37.9037 75.9347C37.9531 75.8648 37.9736 75.7599 37.932 75.7599C37.9181 75.7599 37.8482 75.7882 37.771 75.8159C37.519 75.9209 37.4285 75.7949 37.6239 75.6133C37.7638 75.4801 37.7288 75.4246 37.484 75.4035C37.2953 75.3824 37.2676 75.3686 37.2043 75.2564C37.1138 75.1027 37.1554 75.0677 37.3514 75.1377C37.4352 75.1654 37.5823 75.2004 37.6872 75.2215C37.7849 75.2353 37.9459 75.2703 38.0436 75.3053C38.4143 75.4174 38.4426 75.4102 38.6103 75.1449C38.6874 75.0189 38.7923 74.8229 38.8273 74.718C38.8623 74.6131 38.9039 74.5293 38.9111 74.5293C38.9178 74.5432 38.9672 74.5781 39.016 74.627Z" fill="white"/>
<path d="M38.4706 75.04C38.5544 75.1166 38.4567 75.2148 38.2886 75.2148C38.1559 75.2148 37.96 75.0749 37.96 74.9767C37.96 74.914 38.3935 74.97 38.4706 75.04Z" fill="white"/>
<path d="M39.2535 75.3052C39.3168 75.3685 39.3096 75.5362 39.2324 75.62C39.1486 75.711 39.0859 75.7182 39.0159 75.6344C38.9738 75.585 38.981 75.5645 39.0298 75.5084C39.0648 75.4734 39.107 75.3963 39.1208 75.3546C39.1558 75.2425 39.1836 75.2353 39.2535 75.3052Z" fill="white"/>
<path d="M37.3865 75.7949C37.3587 75.907 37.2044 75.9281 37.1278 75.8298C37.0718 75.7599 37.0646 75.7671 37.2466 75.655C37.3654 75.5851 37.3865 75.5784 37.4004 75.6345C37.4076 75.6694 37.4004 75.7394 37.3865 75.7949Z" fill="white"/>
<path d="M37.8196 75.4946C37.7918 75.5435 37.9106 75.69 37.9805 75.69C38.0505 75.69 38.1343 75.5712 38.0927 75.5296C38.0294 75.4663 37.8479 75.4452 37.8196 75.4946Z" fill="#004D00"/>
<path d="M38.1557 75.6484C38.0997 75.7811 38.1136 75.8932 38.1835 75.9209C38.2329 75.9348 38.3517 75.7111 38.3517 75.5923C38.3517 75.4802 38.2046 75.5224 38.1557 75.6484Z" fill="#004D00"/>
<path d="M41.6804 75.6411C41.6804 75.6899 41.6249 75.8021 41.5617 75.8931C41.4429 76.0541 41.4429 76.0541 41.4429 75.9491C41.4429 75.8859 41.4706 75.7393 41.5056 75.62C41.5689 75.4174 41.5755 75.4035 41.6249 75.4735C41.6527 75.5151 41.6804 75.585 41.6804 75.6411Z" fill="white"/>
<path d="M42.8064 75.5294C42.8414 75.6343 42.7787 75.7459 42.6316 75.8508C42.4917 75.9491 42.4845 76.054 42.6038 76.1095C42.7154 76.1589 42.7154 76.2566 42.5966 76.3054C42.5267 76.3337 42.5128 76.3687 42.5267 76.4525C42.5406 76.5086 42.5339 76.5641 42.5128 76.5785C42.4567 76.6135 42.3518 76.8372 42.394 76.8372C42.4146 76.8372 42.4429 76.8089 42.4567 76.7811C42.4845 76.7039 42.6593 76.7039 42.6943 76.7811C42.7226 76.8583 42.6177 76.9421 42.4146 77.0048C42.3307 77.0331 42.2047 77.1097 42.1348 77.1869C42.0649 77.2568 41.981 77.3195 41.9461 77.3195C41.89 77.3195 41.89 77.3056 41.9672 77.2079C42.0582 77.0886 42.0443 77.0048 41.9461 77.0048C41.8412 77.0048 41.89 76.921 42.0021 76.8999C42.086 76.886 42.1209 76.8583 42.1209 76.8022C42.1209 76.725 42.0649 76.7039 42.0232 76.7672C41.981 76.8299 41.855 76.8161 41.8273 76.7461C41.8134 76.7039 41.8345 76.6412 41.8761 76.5924C41.9744 76.4803 42.0443 76.3054 42.0232 76.2427C42.0094 76.2144 41.9533 76.1655 41.8972 76.1378C41.7784 76.0817 41.7712 76.0889 42.0721 75.9768C42.1559 75.9491 42.212 75.8858 42.2397 75.8092C42.2747 75.7109 42.2958 75.6971 42.3307 75.732C42.4007 75.802 42.4495 75.7881 42.4218 75.6971C42.394 75.606 42.4778 75.5849 42.5056 75.676C42.5406 75.7742 42.5966 75.7459 42.6527 75.5994C42.7087 75.4384 42.7715 75.4101 42.8064 75.5294Z" fill="white"/>
<path d="M41.5753 76.2495L41.6802 76.3755L41.5476 76.6552C41.4704 76.809 41.3727 77.061 41.3239 77.2081C41.254 77.4107 41.219 77.4734 41.1629 77.4734C41.058 77.4734 40.9953 77.2985 41.0652 77.187C41.093 77.1381 41.149 76.991 41.1907 76.865C41.2256 76.7324 41.2817 76.5925 41.31 76.5503C41.3378 76.5087 41.3727 76.3965 41.3866 76.3055C41.4005 76.2145 41.4288 76.1379 41.4427 76.1379C41.4499 76.124 41.5126 76.1795 41.5753 76.2495Z" fill="white"/>
<path d="M42.548 77.2636C42.639 77.4596 42.513 77.5578 42.296 77.4734C42.2332 77.4457 42.2332 77.4385 42.2893 77.3968C42.3243 77.3685 42.352 77.2847 42.352 77.2081C42.352 77.0821 42.3592 77.0749 42.4292 77.1237C42.4708 77.1448 42.5269 77.2148 42.548 77.2636Z" fill="white"/>
<path d="M42.093 76.1239C42.058 76.1795 42.1069 76.2427 42.1907 76.2427C42.2395 76.2427 42.2678 76.2144 42.2678 76.1656C42.2745 76.0818 42.1418 76.054 42.093 76.1239Z" fill="#004D00"/>
<path d="M42.1348 76.3894C42.0859 76.4388 42.1142 76.4804 42.2119 76.4804C42.2747 76.4804 42.3096 76.4593 42.3096 76.4177C42.3096 76.3616 42.1908 76.3405 42.1348 76.3894Z" fill="#004D00"/>
<path d="M42.1002 76.5504C42.0652 76.5576 42.0303 76.5925 42.0303 76.6203C42.0303 76.6553 42.0586 76.6691 42.1074 76.6553C42.2612 76.6136 42.2545 76.5154 42.1002 76.5504Z" fill="#004D00"/>
<path d="M45.2819 75.8931C45.3379 75.9209 45.359 75.9769 45.359 76.0957C45.359 76.2356 45.3662 76.2495 45.4217 76.2078C45.485 76.1518 45.5966 76.1795 45.5966 76.2495C45.5966 76.2778 45.5477 76.3194 45.4778 76.3616C45.4079 76.4038 45.359 76.4593 45.359 76.5154C45.359 76.5786 45.394 76.6064 45.5128 76.6203C45.7786 76.6624 45.8486 76.8861 45.5966 76.8861C45.5128 76.8861 45.485 76.8723 45.4989 76.8301C45.5128 76.7884 45.485 76.7535 45.4151 76.7324C45.359 76.7113 45.3029 76.6974 45.3029 76.7041C45.3029 76.7113 45.2613 76.7884 45.2191 76.8723C45.1703 76.97 45.1003 77.0471 45.0304 77.0682C44.8694 77.1237 44.8556 77.0682 44.9882 76.9211C45.1214 76.7812 45.2119 76.6203 45.1842 76.5853C45.1703 76.5714 45.0931 76.5992 45.0093 76.6486C44.8622 76.7324 44.8556 76.7324 44.8134 76.6552C44.7573 76.5642 44.8067 76.5154 44.9882 76.4804C45.1842 76.4388 45.2053 76.3827 45.142 76.1379C45.072 75.8443 45.1003 75.7949 45.2819 75.8931Z" fill="white"/>
<path d="M47.7161 75.1587C47.73 75.2286 47.7233 75.2847 47.6811 75.3263C47.6462 75.3685 47.6323 75.4246 47.6462 75.4662C47.6883 75.5711 47.5901 75.6549 47.4924 75.6061C47.4502 75.585 47.4297 75.55 47.4363 75.5295C47.4502 75.5084 47.4297 75.4246 47.4014 75.3335C47.3525 75.1864 47.3525 75.1653 47.4014 75.1448C47.4297 75.1304 47.4502 75.0954 47.4436 75.0676C47.4153 74.9905 47.4574 74.9766 47.5762 75.0188C47.6462 75.0466 47.695 75.1026 47.7161 75.1587Z" fill="white"/>
<path d="M48.1006 74.1308C48.1844 74.2074 48.1989 74.3262 48.1217 74.3545C48.094 74.3684 48.1006 74.3756 48.1356 74.3823C48.1706 74.3823 48.2266 74.3334 48.2544 74.2773C48.2966 74.2007 48.3315 74.1724 48.4015 74.1797C48.5902 74.2007 48.6601 74.3612 48.5341 74.4661C48.4714 74.5155 48.4154 74.6409 48.3804 74.7808C48.3737 74.8158 48.3526 74.879 48.3388 74.9279C48.3104 75.0328 48.3526 75.0467 48.4226 74.949C48.4575 74.9001 48.4853 74.8929 48.5552 74.9351C48.6535 74.9906 48.639 75.1027 48.5136 75.3264C48.3737 75.5784 48.4503 75.7394 48.6463 75.5995C48.744 75.5296 48.765 75.5224 48.8 75.5712C48.8283 75.6134 48.8072 75.655 48.7373 75.7111C48.6113 75.8093 48.6113 75.8371 48.7373 76.0191C48.8561 76.1868 48.8561 76.2567 48.765 76.3339C48.6674 76.4177 48.5064 76.4388 48.3943 76.3827L48.3038 76.3339L48.4292 76.2706C48.5691 76.2007 48.5763 76.1729 48.4992 76.068C48.4503 76.0047 48.4364 76.0047 48.3177 76.159C48.1917 76.3194 48.0729 76.3688 48.0168 76.2778C48.0029 76.2495 48.059 76.1796 48.1495 76.103C48.3243 75.9559 48.3593 75.8443 48.2688 75.6972C48.2266 75.6345 48.2405 75.5923 48.3177 75.4452C48.4087 75.2704 48.4087 75.1865 48.3177 75.2426C48.2966 75.2565 48.2055 75.4102 48.1217 75.5784C47.898 76.0191 47.7859 76.1379 47.6183 76.1241C47.4296 76.1096 47.4151 76.0397 47.5833 75.942C47.7232 75.8582 48.0868 75.4247 48.0868 75.3336C48.0868 75.3053 48.0518 75.2915 47.9891 75.3125C47.9119 75.3336 47.898 75.3198 47.9119 75.2776C47.9258 75.2426 47.9047 75.1799 47.8697 75.1449C47.807 75.075 47.807 75.0678 47.8842 75.0256C47.933 74.9978 47.968 74.9556 47.968 74.9207C47.968 74.8857 47.9891 74.8652 48.0168 74.8579C48.0446 74.8579 48.1006 74.8507 48.1428 74.8507C48.2266 74.8441 48.3104 74.6692 48.2266 74.6692C48.1989 74.6692 48.1495 74.697 48.1289 74.7253C48.094 74.7669 48.059 74.7741 48.0096 74.7458C47.9608 74.7181 47.933 74.7253 47.9191 74.7669C47.8769 74.8718 47.7998 74.8369 47.8281 74.7319C47.8492 74.6553 47.8348 74.6204 47.772 74.5921C47.6671 74.536 47.7021 74.4733 47.842 74.4733C47.9397 74.4733 47.9469 74.4661 47.9191 74.3123C47.8769 74.0609 47.9469 73.9976 48.1006 74.1308Z" fill="white"/>
<path d="M49.0098 51.5545C48.9887 51.5822 48.891 51.7571 48.7861 51.9391L48.604 52.2749L48.7583 52.3654C48.9259 52.4637 49.1496 52.4848 49.2756 52.4148C49.3667 52.3654 49.5065 52.1001 49.5065 51.9808C49.5065 51.8409 49.4016 51.6871 49.2407 51.5961C49.0586 51.4912 49.0586 51.4912 49.0098 51.5545Z" fill="#004D00"/>
<path d="M34.8544 53.2542C34.931 53.4357 35.0221 53.6389 35.0504 53.7155C35.1131 53.8554 35.1342 53.8554 35.3718 53.6528L35.505 53.5407L35.1553 53.2609C34.9593 53.1071 34.7845 52.9673 34.7562 52.9534C34.7357 52.9395 34.7773 53.0722 34.8544 53.2542Z" fill="#004D00"/>
<path d="M41.7997 53.1558C41.7437 53.163 41.5405 53.1907 41.3451 53.2118C38.3727 53.5687 35.5818 55.3377 33.8822 57.9399C33.7285 58.1775 33.4487 58.6743 33.2672 59.0445C32.7982 59.9959 32.5256 60.8213 32.3297 61.877C32.2531 62.3111 32.1482 63.3668 32.1759 63.3951C32.1898 63.409 32.2881 63.3879 32.3996 63.3457L32.6028 63.283V63.0243C32.6028 62.6813 32.7282 61.8354 32.8615 61.297C33.2111 59.8699 33.9105 58.4644 34.8475 57.3032C35.2044 56.8559 35.9526 56.1143 36.4072 55.7507C37.5612 54.8132 39.212 54.0372 40.6457 53.7503C41.4917 53.5754 41.8064 53.5477 42.7644 53.5477C43.8135 53.5477 44.2753 53.6037 45.2195 53.8413C46.5556 54.1771 47.7512 54.7577 48.919 55.6319C49.3531 55.9605 50.3039 56.8836 50.6536 57.3243C51.9547 58.9607 52.7657 61.0239 52.8706 62.9755L52.8917 63.4157H53.3252L53.2974 63.031C53.1015 60.3034 52.0036 57.9466 50.0381 56.0443C48.3595 54.4219 46.2264 53.4355 43.8418 53.163C43.506 53.1347 42.0234 53.1208 41.7997 53.1558Z" fill="#004D00"/>
<path d="M35.1829 71.4449C35.2457 71.5637 35.9384 72.2076 36.2947 72.4873C37.5048 73.4243 39.3021 74.1514 41.0855 74.4245C41.9043 74.5505 43.4568 74.5505 44.2678 74.4245C45.8414 74.1797 47.2335 73.6691 48.5201 72.872C48.7999 72.6971 50.0449 71.7807 50.3385 71.5287L50.4784 71.4099H50.1498C49.9678 71.4099 49.7863 71.4238 49.7441 71.4449C49.7024 71.466 49.4227 71.6758 49.1285 71.8995C47.6881 73.0119 46.0162 73.7251 44.2261 73.9977C43.5617 74.1026 41.9598 74.1026 41.3375 73.9977C39.6241 73.7179 38.1481 73.1795 37.0641 72.4379C36.6095 72.1304 36.4069 71.9694 35.9734 71.592L35.7075 71.3611H35.4277C35.1691 71.375 35.148 71.3822 35.1829 71.4449Z" fill="#004D00"/>
<path d="M42.3096 56.1004C42.3096 56.1703 42.3379 56.177 42.5893 56.177C42.8413 56.177 42.8691 56.1703 42.8691 56.1004C42.8691 56.0304 42.8413 56.0232 42.5893 56.0232C42.3379 56.0166 42.3096 56.0304 42.3096 56.1004Z" fill="#000099"/>
<path d="M42.1983 56.4219C42.135 56.6111 42.1422 56.6877 42.2471 56.7927L42.3448 56.8909L42.2471 57.1845C42.1633 57.4293 42.1494 57.5481 42.1494 57.9117C42.1494 58.1565 42.17 58.4296 42.2049 58.5345L42.261 58.7232H42.5896C42.9115 58.7232 42.9187 58.7232 42.9604 58.6183C43.1002 58.2547 43.0792 57.3733 42.9254 57.0513L42.8488 56.8976L42.9393 56.8415C43.0586 56.7649 43.0864 56.6039 43.0164 56.4363L42.9604 56.3103H42.2399L42.1983 56.4219Z" fill="#000099"/>
<path d="M40.3237 58.9745C40.3099 59.2964 40.3165 59.3242 40.4009 59.3736C40.4847 59.4224 40.4914 59.464 40.4914 59.7721V60.1146L40.2677 60.2267C40.1417 60.2894 39.953 60.3455 39.8414 60.3527C39.6732 60.3666 39.6033 60.3527 39.3796 60.2334C39.0721 60.073 38.7573 59.8421 38.638 59.6739L38.5542 59.5551V59.7161C38.5542 59.8071 38.5825 60.038 38.6175 60.2406C38.7224 60.87 38.6313 61.0726 38.1629 61.2125C37.7288 61.3385 37.3375 61.2758 36.9245 61.0171C36.6797 60.8628 36.6658 60.8562 36.6941 60.94C36.8546 61.3668 37.2464 61.8914 37.5123 62.0518C37.645 62.1289 37.7288 62.15 37.9319 62.15C38.1556 62.15 38.2117 62.1361 38.3866 62.0168C38.4915 61.9469 38.7779 61.807 39.016 61.7093L39.4495 61.5345L42.7438 61.5272L46.0376 61.5206L46.4295 61.6605C46.646 61.7371 46.9257 61.8631 47.0517 61.9402C47.2688 62.0729 47.2965 62.0801 47.5202 62.0518C47.73 62.0312 47.7861 62.0029 47.9892 61.8281C48.2479 61.6116 48.304 61.5417 48.5415 61.1009C48.7092 60.7862 48.7092 60.7723 48.4644 60.9611C48.1918 61.1775 47.5835 61.2547 47.1078 61.1287C46.6321 61.0027 46.5133 60.8212 46.6182 60.3666C46.6532 60.2195 46.6882 59.9819 46.702 59.8282L46.7231 59.5484L46.6254 59.6883C46.5133 59.8487 46.1847 60.1079 45.9261 60.2406C45.6951 60.3594 45.3382 60.3527 44.9885 60.2334L44.7371 60.1429V59.7932C44.7371 59.4502 44.7371 59.4435 44.8559 59.3591C44.9747 59.2753 44.9747 59.2753 44.9674 58.9539L44.9536 58.632L44.3941 58.6042L44.3241 58.8696L43.6808 58.8768C43.1285 58.884 43.0375 58.8768 43.0375 58.8279C43.0375 58.7791 42.9675 58.7719 42.6389 58.7719C42.317 58.7719 42.2398 58.7858 42.2398 58.8279C42.2398 58.8768 42.1421 58.884 41.6104 58.884H40.9809L40.946 58.758C40.911 58.632 40.9043 58.632 40.6246 58.6181L40.3448 58.6042L40.3237 58.9745Z" fill="#000099"/>
<path d="M33.6657 62.2618C33.316 62.9406 33.2599 63.0172 33.0079 63.262C32.6305 63.6189 32.323 63.7449 31.9239 63.7166C31.4343 63.6817 31.1546 63.549 30.5812 63.0661C30.2948 62.8285 30.0639 62.6465 30.0566 62.6537C30.015 62.6959 30.3647 63.6539 30.5251 63.9475C30.7632 64.3672 31.1829 64.7868 31.5537 64.9689L31.8051 65.0943H53.3673L53.6892 64.9056C54.4375 64.4721 54.8083 63.9964 55.0597 63.1505C55.1435 62.8707 55.1996 62.6398 55.1929 62.6398C55.1785 62.6398 54.9409 62.8285 54.6612 63.0661C54.0806 63.549 53.8569 63.6606 53.3745 63.7166C53.0803 63.7516 53.0248 63.7449 52.78 63.6539C52.563 63.5701 52.4581 63.5002 52.2133 63.2554C51.9408 62.9823 51.8914 62.9123 51.5628 62.2479C51.3668 61.8566 51.1992 61.5347 51.1853 61.5347C51.1715 61.5347 51.0033 61.8566 50.8007 62.2618C50.4649 62.9196 50.4088 63.0106 50.1501 63.262C49.6533 63.7516 49.1987 63.8426 48.5138 63.6051C48.2757 63.5207 48.143 63.4369 47.7095 63.0733C47.4225 62.8357 47.1849 62.6465 47.1777 62.6537C47.1705 62.6609 47.2338 62.8912 47.3104 63.1643C47.4297 63.5701 47.4997 63.7166 47.6745 63.9753C47.7933 64.1501 47.9609 64.3744 48.052 64.4721C48.143 64.5698 48.234 64.6819 48.269 64.7169C48.3178 64.7796 48.0448 64.7868 42.6317 64.7868H36.9456L37.1488 64.5559C37.2603 64.4299 37.4563 64.1785 37.5889 63.9897C37.7849 63.6955 37.8409 63.5768 37.9597 63.1571C38.0369 62.8912 38.0929 62.6609 38.0857 62.6537C38.0785 62.6465 37.8409 62.8285 37.5684 63.0594C36.9878 63.5418 36.7569 63.6606 36.2534 63.71C35.9598 63.7377 35.9104 63.7377 35.68 63.64C35.5119 63.5701 35.337 63.4508 35.1411 63.2831C34.8613 63.0311 34.8408 62.9962 34.4766 62.2762C34.274 61.8633 34.0992 61.5274 34.0853 61.5274C34.057 61.5208 33.8755 61.8494 33.6657 62.2618Z" fill="#000099"/>
<path d="M41.5128 61.8005C41.4706 61.8216 41.4429 61.8704 41.4429 61.9121C41.4429 62.0519 41.5339 62.073 42.0373 62.0664C42.513 62.0519 42.5269 62.0519 42.5408 61.9615C42.5691 61.7866 42.4992 61.7583 42.0163 61.7583C41.7787 61.7583 41.5478 61.7794 41.5128 61.8005Z" fill="#000099"/>
<path d="M42.9116 61.7933C42.8838 61.8144 42.8627 61.8771 42.8694 61.9404L42.8838 62.0519L43.3734 62.0664C43.863 62.073 43.9679 62.0519 43.9679 61.9331C43.9679 61.7933 43.8558 61.7583 43.4012 61.7583C43.1636 61.7583 42.9393 61.7722 42.9116 61.7933Z" fill="#000099"/>
<path d="M44.3313 61.8144C44.303 61.8493 44.2891 61.9121 44.2963 61.9615C44.3102 62.0519 44.3241 62.0519 44.7648 62.0664C45.3243 62.0802 45.4015 62.0664 45.4015 61.9331C45.4015 61.7866 45.2893 61.7583 44.8136 61.7583C44.4778 61.7583 44.3663 61.7722 44.3313 61.8144Z" fill="#000099"/>
<path d="M40.1066 61.8422C40.0367 61.9121 40.0439 61.9754 40.1138 62.052C40.1627 62.1014 40.2676 62.1153 40.6173 62.1153C40.8621 62.1153 41.0857 62.1014 41.1141 62.0803C41.1418 62.0592 41.1629 61.9965 41.1557 61.9332L41.1418 61.8217L40.6456 61.8072C40.2959 61.8006 40.1416 61.8072 40.1066 61.8422Z" fill="#000099"/>
<path d="M39.3447 61.8845C38.6525 62.0732 38.6176 62.0943 38.6592 62.2619C38.6875 62.374 38.7641 62.3812 39.1071 62.3041C39.5967 62.1853 39.7433 62.122 39.7433 62.0171C39.7433 61.8423 39.6245 61.8073 39.3447 61.8845Z" fill="#000099"/>
<path d="M45.8211 61.8631C45.765 61.9192 45.8 62.1079 45.8627 62.1428C45.9049 62.1639 46.1358 62.2339 46.3806 62.2899C46.8208 62.4015 46.828 62.4015 46.8841 62.3249C46.9607 62.22 46.954 62.1151 46.863 62.0662C46.7508 62.003 46.0659 61.8281 45.9465 61.8281C45.891 61.8353 45.835 61.8492 45.8211 61.8631Z" fill="#000099"/>
<path d="M34.9599 62.8984L35.0925 63.0455L36.2188 63.031L37.3445 63.0172L37.5054 62.8845L37.6592 62.7513H36.2465L34.8267 62.7446L34.9599 62.8984Z" fill="#000099"/>
<path d="M38.1417 62.8357C38.1278 62.8845 38.1206 62.9472 38.1206 62.9755C38.1206 63.0172 39.0509 63.0244 42.6316 63.0244C46.2124 63.0244 47.1427 63.0172 47.1427 62.9755C47.1427 62.9472 47.1288 62.8845 47.1216 62.8357L47.1005 62.7446H38.1767L38.1417 62.8357Z" fill="#000099"/>
<path d="M47.6743 62.8912L47.8347 63.0244L48.9959 63.0172L50.1572 63.0033L50.2548 62.8773L50.3598 62.7446L48.9399 62.7513H47.52L47.6743 62.8912Z" fill="#000099"/>
<path d="M38.0229 63.2618C38.0018 63.339 38.0229 63.339 42.6105 63.339C46.9817 63.339 47.2198 63.339 47.2054 63.2691C47.1915 63.2058 46.94 63.1991 42.6177 63.1919C38.0717 63.1852 38.0434 63.1852 38.0229 63.2618Z" fill="#000099"/>
<path d="M48.1495 63.283C48.2689 63.3807 48.2828 63.3807 49.0449 63.3807H49.8214L49.9124 63.283L50.0029 63.1853H48.0308L48.1495 63.283Z" fill="#000099"/>
<path d="M35.3304 63.3041C35.4003 63.3807 35.4492 63.3807 36.1835 63.3807C36.904 63.3807 36.9739 63.3741 37.0578 63.3041L37.1488 63.227H36.2046C35.2604 63.2203 35.2532 63.2203 35.3304 63.3041Z" fill="#000099"/>
<path d="M37.8619 63.6539C37.7781 63.8288 37.7637 63.8987 37.7637 64.2484V64.647H38.1134V64.0525C38.1134 63.4858 38.1067 63.458 38.0368 63.458C37.9807 63.458 37.9246 63.5207 37.8619 63.6539Z" fill="#000099"/>
<path d="M38.2329 64.0525V64.647H38.5893V63.458H38.2329V64.0525Z" fill="#000099"/>
<path d="M38.708 64.0525V64.647H39.0649V63.458H38.708V64.0525Z" fill="#000099"/>
<path d="M39.1836 64.0525V64.647H39.5055V63.458H39.1836V64.0525Z" fill="#000099"/>
<path d="M39.6592 64.0525V64.647H39.9739V63.458H39.6592V64.0525Z" fill="#000099"/>
<path d="M40.0928 64.0525V64.647H40.4497V63.458H40.0928V64.0525Z" fill="#000099"/>
<path d="M40.5684 64.0525V64.647H40.9253V63.458H40.5684V64.0525Z" fill="#000099"/>
<path d="M41.0439 64.0525V64.647H41.4003V63.458H41.0439V64.0525Z" fill="#000099"/>
<path d="M41.5195 64.0525V64.647H41.8343V63.458H41.5195V64.0525Z" fill="#000099"/>
<path d="M41.9951 64.0525V64.647H42.3098V63.458H41.9951V64.0525Z" fill="#000099"/>
<path d="M42.4292 64.0525V64.647H42.7856V63.458H42.4292V64.0525Z" fill="#000099"/>
<path d="M42.9043 64.0525V64.647H43.2612V63.458H42.9043V64.0525Z" fill="#000099"/>
<path d="M43.3799 64.0525V64.647H43.7368V63.458H43.3799V64.0525Z" fill="#000099"/>
<path d="M43.8555 64.0525V64.647H44.1702V63.458H43.8555V64.0525Z" fill="#000099"/>
<path d="M44.3315 64.0525V64.647H44.6463V63.458H44.3315V64.0525Z" fill="#000099"/>
<path d="M44.7646 64.0525V64.647H45.1216V63.458H44.7646V64.0525Z" fill="#000099"/>
<path d="M45.2407 64.0525V64.647H45.5971V63.458H45.2407V64.0525Z" fill="#000099"/>
<path d="M45.7158 64.0525V64.647H46.0722V63.458H45.7158V64.0525Z" fill="#000099"/>
<path d="M46.1914 64.0525V64.647H46.5061V63.458H46.1914V64.0525Z" fill="#000099"/>
<path d="M46.6255 64.0525V64.647H46.9818V63.458H46.6255V64.0525Z" fill="#000099"/>
<path d="M47.1004 64.0525V64.647H47.4501V64.2345C47.4501 63.7305 47.3596 63.458 47.1914 63.458H47.0938V64.0525H47.1004Z" fill="#000099"/>
<path d="M37.4631 64.2346C37.3438 64.395 37.3022 64.4722 37.316 64.5493C37.3299 64.6398 37.351 64.647 37.4909 64.647H37.6446V64.3323C37.6446 64.1575 37.638 64.0176 37.638 64.0176C37.6235 64.0176 37.5469 64.1153 37.4631 64.2346Z" fill="#000099"/>
<path d="M47.5762 64.3322V64.6469H47.751C47.9048 64.6469 47.9259 64.633 47.9259 64.5631C47.9259 64.4932 47.6322 64.0103 47.5834 64.0103C47.5834 64.0175 47.5762 64.1573 47.5762 64.3322Z" fill="#000099"/>
<path d="M42.394 65.199C42.394 65.2273 40.6455 65.2412 37.2252 65.2412H32.0636V65.7169H34.4765C36.5957 65.7169 36.8893 65.7236 36.8893 65.773C36.8893 65.8218 36.5957 65.8357 34.4559 65.8357H32.0219V69.3604L31.7422 69.3748L31.4624 69.3887L31.2104 69.871L30.959 70.354L36.8616 70.3395L37.1691 69.6474L37.4772 68.9552L37.2324 68.9408C37.0087 68.9269 36.9876 68.9202 37.0015 68.8503C37.0226 68.7731 37.0992 68.7731 42.8763 68.7731C48.4364 68.7731 48.7301 68.7803 48.7234 68.8431C48.7162 68.9058 48.6535 68.913 48.3038 68.9269C48.0795 68.9341 47.898 68.9552 47.9047 68.9757C47.968 69.1439 48.5552 70.319 48.5902 70.3256C48.6113 70.3329 49.9473 70.3329 51.5487 70.319L54.465 70.2979L54.1575 69.815L53.8495 69.3326H53.1923V65.8357L50.7933 65.8285C48.9188 65.8218 48.3876 65.8079 48.3737 65.773C48.3593 65.7308 48.8489 65.7236 50.7372 65.7236H53.1151V65.2484H48.0307C44.6808 65.2484 42.939 65.234 42.9252 65.2062C42.9113 65.1852 42.7853 65.1641 42.6454 65.1641C42.5055 65.1641 42.394 65.1785 42.394 65.199Z" fill="#000099"/>
<path d="M39.1483 65.7731C39.1483 65.8219 39.0157 65.8358 38.1975 65.8358C37.3788 65.8358 37.2461 65.8286 37.2461 65.7731C37.2461 65.7237 37.3788 65.717 38.1975 65.717C39.0157 65.717 39.1483 65.7237 39.1483 65.7731Z" fill="white"/>
<path d="M39.7294 65.7659C39.7017 65.843 39.4985 65.8497 39.4985 65.7798C39.4985 65.7381 39.5407 65.717 39.6245 65.717C39.7017 65.717 39.7433 65.7381 39.7294 65.7659Z" fill="white"/>
<path d="M42.3942 65.7731C42.3942 65.8219 42.2471 65.8286 41.2402 65.8219C40.3588 65.8147 40.079 65.8009 40.0718 65.7659C40.0579 65.7237 40.3099 65.717 41.2258 65.717C42.2399 65.717 42.3942 65.7237 42.3942 65.7731Z" fill="white"/>
<path d="M45.2682 65.7659C45.2543 65.8009 44.9884 65.8147 44.0931 65.8147C43.1983 65.8147 42.9324 65.8009 42.9185 65.7659C42.9041 65.7237 43.1561 65.717 44.0931 65.717C45.0306 65.717 45.282 65.7237 45.2682 65.7659Z" fill="white"/>
<path d="M45.835 65.7798C45.835 65.8219 45.8001 65.8358 45.7301 65.8286C45.5764 65.8081 45.5619 65.717 45.7163 65.717C45.7929 65.717 45.835 65.7381 45.835 65.7798Z" fill="white"/>
<path d="M48.052 65.7731C48.052 65.8219 47.9193 65.8358 47.1217 65.8358C46.3246 65.8358 46.1914 65.8286 46.1914 65.7731C46.1914 65.7237 46.3246 65.717 47.1217 65.717C47.9193 65.717 48.052 65.7237 48.052 65.7731Z" fill="white"/>
<path d="M36.8894 67.2347C36.8894 67.8714 36.9039 68.4514 36.9177 68.5213C36.9455 68.6473 36.9388 68.6473 36.7989 68.6473H36.6519V66.0735H36.8894V67.2347Z" fill="white"/>
<path d="M38.8761 66.3815L39.142 66.6891V67.5772C39.142 68.0667 39.1558 68.5075 39.1625 68.5563L39.1836 68.6473H38.1834C37.2886 68.6473 37.1903 68.6407 37.2114 68.5846C37.2253 68.5496 37.2325 68.1089 37.2325 67.6055V66.6891L37.5123 66.3815L37.792 66.0735H38.5891L38.8761 66.3815Z" fill="white"/>
<path d="M39.7503 67.3607L39.7642 68.6473H39.6105C39.4706 68.6473 39.4634 68.6407 39.4845 68.5563C39.4983 68.5075 39.5056 67.9269 39.5056 67.2697V66.0735H39.7431L39.7503 67.3607Z" fill="white"/>
<path d="M44.9817 66.3743L45.2615 66.6824L45.282 67.6615L45.3031 68.6473H43.6945V66.7029H41.5964V68.6473H40.0366L40.0577 67.6615L40.0788 66.6824L40.3513 66.3743L40.6244 66.0735H44.702L44.9817 66.3743Z" fill="white"/>
<path d="M45.8348 67.2697C45.8348 67.9269 45.8487 68.5075 45.8559 68.5563C45.8765 68.6407 45.8626 68.6473 45.7299 68.6473H45.5762L45.59 67.3607L45.6039 66.0735H45.8415V67.2697H45.8348Z" fill="white"/>
<path d="M47.7652 66.3882L48.0521 66.6962V68.6406H46.1499L46.171 68.5496C46.1849 68.5008 46.1915 68.06 46.1915 67.5705V66.6751L46.4713 66.3676L46.751 66.0596H47.4787L47.7652 66.3882Z" fill="white"/>
<path d="M48.7236 67.3607V68.6473H48.3667V66.0735H48.7236V67.3607Z" fill="white"/>
<path d="M33.4 66.5279C33.4138 66.7172 33.3722 66.745 33.0503 66.745C32.7355 66.745 32.6934 66.7172 32.6934 66.5213V66.3464L33.0364 66.3603L33.3861 66.3742L33.4 66.5279Z" fill="white"/>
<path d="M34.7072 66.5279C34.7211 66.7171 34.6795 66.7449 34.3364 66.7449C34.0289 66.7449 33.959 66.7171 33.959 66.5839C33.959 66.353 33.9801 66.3464 34.3509 66.353L34.6933 66.3675L34.7072 66.5279Z" fill="white"/>
<path d="M35.9037 66.5214C35.9037 66.6263 35.8826 66.7029 35.8548 66.7101C35.7705 66.7379 35.428 66.7451 35.3092 66.7174C35.1971 66.6963 35.1904 66.6824 35.1904 66.5142V66.3394H35.9037V66.5214Z" fill="white"/>
<path d="M49.9891 66.5214C49.9891 66.6263 49.9681 66.7029 49.9403 66.7101C49.8565 66.7379 49.5134 66.7451 49.3947 66.7174C49.2831 66.6963 49.2759 66.6824 49.2759 66.5142V66.3394H49.9891V66.5214Z" fill="white"/>
<path d="M51.2901 66.5352C51.2968 66.6262 51.2968 66.7028 51.2901 66.7028C51.2829 66.7028 51.1852 66.7172 51.0731 66.7239C50.9615 66.7378 50.8005 66.7378 50.7234 66.7239C50.5907 66.6961 50.5835 66.6961 50.5835 66.5213V66.3464L50.9332 66.3603L51.2762 66.3742L51.2901 66.5352Z" fill="white"/>
<path d="M52.514 66.5074C52.5279 66.6889 52.4441 66.7449 52.171 66.7449C51.8213 66.7449 51.7725 66.7238 51.7725 66.549C51.7725 66.4724 51.7863 66.388 51.8008 66.3741C51.8146 66.3603 51.9823 66.353 52.1643 66.3603L52.5002 66.3741L52.514 66.5074Z" fill="white"/>
<path d="M43.6181 67.7315C43.6181 68.6124 43.6181 68.6407 43.541 68.6407C43.4638 68.6407 43.4638 68.6124 43.4638 67.787V66.9338H41.8552L41.8696 67.787C41.8835 68.6196 41.8763 68.6407 41.7997 68.6407C41.7225 68.6407 41.7153 68.6196 41.7153 67.7315V66.8223H43.6181V67.7315Z" fill="white"/>
<path d="M38.2186 68.9481C38.086 69.0808 38.107 69.0808 42.7091 69.0808C46.8072 69.0808 47.2202 69.0741 47.1991 69.018C47.1852 68.9831 47.178 68.9481 47.178 68.9409C47.178 68.9131 38.2469 68.9204 38.2186 68.9481Z" fill="#000099"/>
<path d="M38.0645 69.3048C38.0506 69.3676 38.2815 69.3748 42.6943 69.3604C46.3733 69.3537 47.3386 69.3398 47.3247 69.3048C47.3103 69.2627 46.3245 69.2554 42.6943 69.2488C38.3304 69.2416 38.0856 69.2416 38.0645 69.3048Z" fill="#000099"/>
<path d="M37.9459 69.6125C37.9248 69.6686 38.4704 69.6686 42.7089 69.6686C46.9469 69.6686 47.4925 69.6614 47.4714 69.6125C47.4503 69.5565 46.8908 69.5498 42.7089 69.5498C38.5265 69.5565 37.967 69.5637 37.9459 69.6125Z" fill="#000099"/>
<path d="M37.8271 69.8994C37.8133 69.9132 37.7988 69.941 37.7988 69.9621C37.7988 69.9832 40.0091 69.9971 42.709 69.9971C46.6183 69.9971 47.6186 69.9898 47.6047 69.9482C47.5902 69.906 46.5695 69.8994 42.7156 69.8921C40.0441 69.8783 37.841 69.8849 37.8271 69.8994Z" fill="#000099"/>
<path d="M37.6732 70.2281C37.6521 70.3047 37.6732 70.3047 42.7154 70.3047C45.4991 70.3047 47.7793 70.2908 47.7793 70.2697C47.7793 70.1443 47.7022 70.1443 42.6877 70.1443C37.722 70.1509 37.687 70.1509 37.6732 70.2281Z" fill="#000099"/>
<path d="M30.6372 70.5845C30.6372 70.6056 30.6794 70.6894 30.7282 70.7593L30.8193 70.8992H54.6262L54.7239 70.7527C54.7799 70.6688 54.8221 70.5917 54.8221 70.5778C54.8221 70.5639 49.3808 70.5495 42.7294 70.5495C34.5815 70.5428 30.6372 70.5567 30.6372 70.5845Z" fill="#000099"/>
<path d="M30.9307 71.13L31.0217 71.2771L42.7226 71.2837L54.4234 71.2909L54.5 71.1788C54.5422 71.1233 54.5911 71.0461 54.6049 71.0184C54.626 70.9762 52.2409 70.969 42.7365 70.969H30.833L30.9307 71.13Z" fill="#000099"/>
<path d="M35.9385 71.3888C35.9385 71.396 36.0223 71.4521 36.12 71.5081L36.302 71.613H49.1286L49.5626 71.3888H42.7436C39.0086 71.3749 35.9385 71.3821 35.9385 71.3888Z" fill="#000099"/>
<path d="M40.1561 72.2842C40.0862 72.3125 40.0862 72.3192 40.1489 72.3403C40.2049 72.3614 40.2188 72.4174 40.2188 72.6478C40.2188 72.8998 40.2116 72.9347 40.1278 72.9625C40.0578 72.9908 40.0928 72.9975 40.2749 72.9975C40.4564 72.9975 40.4914 72.9908 40.4214 72.9625C40.3376 72.9275 40.3309 72.907 40.3309 72.5923C40.3309 72.2354 40.3237 72.2215 40.1561 72.2842Z" fill="#004D00"/>
<path d="M41.6874 72.2913C41.6174 72.3612 41.6313 72.515 41.7224 72.5638C41.7995 72.606 41.7995 72.606 41.6946 72.697C41.5753 72.8019 41.5897 72.8996 41.7434 72.9557C41.89 73.0118 42.0443 73.0045 42.1492 72.9346C42.268 72.8508 42.2608 72.7459 42.1281 72.6548L42.0232 72.5777L42.107 72.5288C42.2397 72.4589 42.198 72.2491 42.0509 72.2491C42.0093 72.2491 42.0093 72.263 42.0582 72.3124C42.1142 72.3679 42.1142 72.389 42.0648 72.4589C41.9882 72.5777 41.9394 72.5849 41.82 72.4728C41.7224 72.389 41.7151 72.3751 41.7784 72.3124C41.8273 72.263 41.8345 72.2424 41.7923 72.2424C41.7573 72.2491 41.7085 72.2702 41.6874 72.2913Z" fill="#004D00"/>
<path d="M42.0021 72.7108C42.1281 72.7807 42.1492 72.8995 42.0509 72.9345C41.82 73.0255 41.6246 72.8573 41.7784 72.7036C41.855 72.627 41.855 72.627 42.0021 72.7108Z" fill="white"/>
<path d="M43.4571 72.2353C43.149 72.3474 43.2261 72.7249 43.5547 72.7177H43.6735L43.5481 72.6621C43.3732 72.585 43.3238 72.424 43.436 72.3052C43.5198 72.2214 43.5969 72.2281 43.688 72.3191C43.7646 72.3963 43.7995 72.6338 43.7296 72.6338C43.7085 72.6338 43.7018 72.6549 43.7085 72.6899C43.7368 72.7598 43.4637 72.9486 43.3238 72.9558C43.2683 72.9558 43.2539 72.9697 43.2889 72.9769C43.3238 72.9835 43.4287 72.9769 43.527 72.9486C43.9394 72.837 44.0726 72.368 43.7157 72.2425C43.5969 72.2075 43.5547 72.2003 43.4571 72.2353Z" fill="#004D00"/>
<path d="M44.9956 72.2841C44.8907 72.3474 44.9118 72.4029 45.0233 72.3474C45.1355 72.2841 45.3103 72.3124 45.3381 72.389C45.3664 72.4523 45.2615 72.5638 45.1704 72.5638C45.1355 72.5638 45.1632 72.5921 45.2331 72.6199C45.5062 72.7387 45.4219 72.9346 45.1005 72.9207C44.9884 72.9135 44.9256 72.9274 44.9395 72.9557C44.9956 73.0467 45.408 72.9768 45.4779 72.8647C45.534 72.7809 45.5129 72.641 45.4291 72.5921C45.3591 72.55 45.3591 72.5427 45.4152 72.4728C45.5129 72.3612 45.4363 72.263 45.2265 72.2563C45.1421 72.2491 45.0305 72.263 44.9956 72.2841Z" fill="#004D00"/>
</g>
<defs>
<filter id="filter0_d_185_49" x="0" y="0" width="154" height="157" filterUnits="userSpaceOnUse" color-interpolation-filters="sRGB">
<feFlood flood-opacity="0" result="BackgroundImageFix"/>
<feColorMatrix in="SourceAlpha" type="matrix" values="0 0 0 0 0 0 0 0 0 0 0 0 0 0 0 0 0 0 127 0" result="hardAlpha"/>
<feOffset dy="16"/>
<feGaussianBlur stdDeviation="6.5"/>
<feColorMatrix type="matrix" values="0 0 0 0 0 0 0 0 0 0 0 0 0 0 0 0 0 0 0.03 0"/>
<feBlend mode="normal" in2="BackgroundImageFix" result="effect1_dropShadow_185_49"/>
<feBlend mode="normal" in="SourceGraphic" in2="effect1_dropShadow_185_49" result="shape"/>
</filter>
</defs>
</svg>
