<svg width="154" height="157" viewBox="0 0 154 157" fill="none" xmlns="http://www.w3.org/2000/svg">
<g filter="url(#filter0_d_266_21)">
<rect width="128" height="128" transform="translate(13)" fill="white"/>
<path fill-rule="evenodd" clip-rule="evenodd" d="M37.8583 74.7849C43.7984 74.7849 48.6432 69.9399 48.6432 63.9998C48.6432 58.0597 43.7984 53.2151 37.8583 53.2151C31.9182 53.2151 27.0732 58.0597 27.0732 63.9998C27.0732 69.9399 31.9182 74.7849 37.8583 74.7849Z" fill="white"/>
<path fill-rule="evenodd" clip-rule="evenodd" d="M27 63.9999C27 58.0193 31.8777 53.1418 37.8583 53.1418C43.8389 53.1418 48.7165 58.0193 48.7165 63.9999C48.7165 69.9804 43.8389 74.8581 37.8583 74.8581C31.8777 74.8581 27 69.9804 27 63.9999ZM37.8583 53.2884C31.9586 53.2884 27.1465 58.1002 27.1465 63.9999C27.1465 69.8995 31.9586 74.7116 37.8583 74.7116C43.7579 74.7116 48.57 69.8995 48.57 63.9999C48.57 58.1002 43.7579 53.2884 37.8583 53.2884Z" fill="#0073BD"/>
<path fill-rule="evenodd" clip-rule="evenodd" d="M28.4624 64.4575C28.5651 64.436 28.7072 64.3938 28.6638 64.2561C28.6531 64.2215 28.6249 64.2121 28.6027 64.1817C28.369 64.0981 27.9804 64.1922 27.6917 64.1598C27.6712 64.1035 27.6751 64.0062 27.6917 63.9494C27.9171 63.9345 28.1742 63.9349 28.3967 63.9365C28.4548 63.9369 28.5052 63.924 28.5632 63.9408C28.5798 63.9457 28.5943 63.9597 28.6112 63.967C28.662 63.9887 28.7119 64.0055 28.7427 64.0545C28.7982 64.1436 28.8431 64.3139 28.7996 64.4575C28.7816 64.5167 28.6915 64.6179 28.6245 64.6413C28.6116 64.646 28.5919 64.6423 28.5763 64.6458C28.5313 64.6562 28.5063 64.6802 28.48 64.6546C28.443 64.6189 28.477 64.5228 28.4624 64.4575Z" fill="#0073BD"/>
<path fill-rule="evenodd" clip-rule="evenodd" d="M29.314 64C29.314 59.2937 33.1522 55.4556 37.8584 55.4556C42.5646 55.4556 46.4028 59.2937 46.4028 64C46.4028 68.7062 42.5646 72.5444 37.8584 72.5444C33.1522 72.5444 29.314 68.7062 29.314 64ZM37.8584 55.6021C33.2331 55.6021 29.4605 59.3747 29.4605 64C29.4605 68.6253 33.2331 72.3979 37.8584 72.3979C42.4837 72.3979 46.2563 68.6253 46.2563 64C46.2563 59.3747 42.4837 55.6021 37.8584 55.6021Z" fill="#0073BD"/>
<path fill-rule="evenodd" clip-rule="evenodd" d="M40.3609 57.8273C40.3786 57.875 40.3732 57.9305 40.374 57.9807C40.3867 58.7893 40.374 59.7163 40.374 60.5733V66.0911C40.374 67.0173 40.3794 67.9018 40.3652 68.7667C39.8594 68.7819 39.2399 68.7802 38.7536 68.7667C38.7284 68.7462 38.7236 68.7124 38.7099 68.6835C38.6722 68.6048 38.6382 68.5123 38.6003 68.4252C38.4534 68.0867 38.3071 67.7364 38.1625 67.3875C38.1146 67.272 38.0582 67.1593 38.0136 67.0415C37.9917 66.9837 37.9609 66.9286 37.9392 66.8705C37.8737 66.6959 37.7979 66.521 37.72 66.3495C37.6954 66.2948 37.6661 66.2368 37.6458 66.1786C37.626 66.1223 37.6133 66.0567 37.5493 66.0297C37.4576 66.0704 37.4879 66.2116 37.4879 66.3189C37.4879 67.1351 37.4951 68.0081 37.4793 68.7886C36.9481 68.7808 36.3079 68.7843 35.732 68.7843C35.6552 68.7843 35.5773 68.7974 35.513 68.7712C35.497 65.3882 35.5044 61.9192 35.5042 58.5017C35.5042 58.2792 35.4939 58.0536 35.5173 57.8316C35.5759 57.8113 35.6427 57.8186 35.7101 57.8186C36.1786 57.8186 36.7661 57.816 37.1421 57.8231C37.197 57.8602 37.2043 57.9315 37.2296 57.9852C37.3097 58.1548 37.3762 58.3349 37.4529 58.5105C37.4908 58.5971 37.5319 58.6844 37.5668 58.7733C37.5856 58.8208 37.6057 58.8631 37.6239 58.9048C37.6667 59.0036 37.7052 59.1111 37.7509 59.2113C37.7991 59.3176 37.8493 59.4441 37.904 59.5571C37.9593 59.671 37.9917 59.7854 38.0486 59.9118C38.1252 60.082 38.1961 60.2539 38.2764 60.4331C38.3073 60.5022 38.3178 60.5862 38.3727 60.5774C38.442 60.5665 38.4165 60.3823 38.4165 60.2711C38.4165 59.5151 38.4125 58.7342 38.4208 57.95C38.4215 57.8805 38.4094 57.8246 38.4733 57.8143C38.5378 57.8037 38.62 57.8143 38.6966 57.8143C39.2469 57.8143 39.8273 57.8111 40.3609 57.8273Z" fill="#0073BD"/>
<path fill-rule="evenodd" clip-rule="evenodd" d="M34.8825 59.3426C34.8896 60.1021 34.8904 61.0283 34.8825 61.7557C34.7192 61.7887 34.5045 61.7279 34.3834 61.7951C34.3373 61.8205 34.2886 61.8701 34.2738 61.9307C34.2519 62.021 34.2695 62.1454 34.2695 62.2636V64.3307C34.2695 64.5118 34.2457 64.6808 34.3396 64.7642C34.4883 64.8965 34.924 64.7876 35.176 64.8298C35.2023 64.8679 35.1936 65.0424 35.1936 65.1276C35.1936 65.8193 35.2006 66.5709 35.1848 67.2341C34.4682 67.2421 33.7805 67.2384 33.0827 67.2384C32.9414 67.2384 32.7981 67.2492 32.6623 67.2384C32.5564 67.2302 32.4308 67.1724 32.3646 67.1159C32.288 67.0507 32.2217 66.9671 32.185 66.8751C32.1842 66.8735 32.1772 66.8536 32.1762 66.8487C32.145 66.709 32.1543 66.5445 32.1543 66.3669V60.2975C32.1543 60.1225 32.1399 59.9544 32.1631 59.8069C32.1852 59.6653 32.2522 59.5553 32.3427 59.4784C32.4136 59.4182 32.4952 59.3797 32.5966 59.3514C32.6338 59.341 32.6881 59.34 32.7279 59.3383C33.0852 59.3215 33.4504 59.3383 33.8096 59.3383C34.1722 59.3383 34.5295 59.3346 34.8825 59.3426Z" fill="#0073BD"/>
<path fill-rule="evenodd" clip-rule="evenodd" d="M38.973 70.987C38.9398 71.0034 38.9152 71.0284 38.8591 71.0222C38.8093 71.048 38.8339 71.108 38.8284 71.1537C38.8232 71.1976 38.7816 71.2652 38.7497 71.2805C38.6858 71.3109 38.5911 71.3006 38.5526 71.2676C38.5233 71.2422 38.4953 71.1779 38.4912 71.1361C38.4869 71.0923 38.5092 71.0464 38.4694 71.0265C38.3508 71.0159 38.1273 71.0583 38.014 71.0265C37.9747 71.0155 37.9214 70.9708 37.9087 70.9433C37.895 70.9128 37.8852 70.8126 37.9087 70.7594C37.9143 70.7467 37.9288 70.7407 37.9394 70.7243C37.9478 70.7114 37.9489 70.6918 37.9569 70.6805C37.9665 70.6668 37.9853 70.6588 37.9962 70.6455C38.0286 70.6069 38.0532 70.5551 38.0884 70.5141C38.1728 70.4156 38.2789 70.3003 38.3643 70.1943C38.3971 70.1536 38.4297 70.1142 38.4694 70.0763C38.5022 70.0446 38.5344 70.0284 38.5743 70.0061C38.7427 69.9975 38.815 70.0626 38.8284 70.2075C38.8392 70.324 38.8337 70.5205 38.8284 70.6455C38.8261 70.7043 38.8226 70.7479 38.846 70.7637C38.8646 70.7764 38.8894 70.7649 38.9117 70.7725C38.958 70.7881 39.0015 70.8444 39.0035 70.8907C39.0052 70.9239 38.9871 70.953 38.973 70.987ZM38.4561 70.3738C38.4391 70.3863 38.4305 70.4064 38.4211 70.4265C38.3815 70.448 38.3727 70.5008 38.3336 70.5228C38.2976 70.6125 38.216 70.6565 38.1802 70.7463C38.2621 70.7708 38.3918 70.7684 38.4869 70.7551C38.5 70.7241 38.4959 70.6868 38.4955 70.6498C38.4953 70.6166 38.501 70.5811 38.5 70.5492C38.4979 70.4912 38.5034 70.4013 38.4782 70.3738H38.4561Z" fill="#0073BD"/>
<path fill-rule="evenodd" clip-rule="evenodd" d="M40.2474 70.2995C40.2951 70.44 40.3287 70.6943 40.2911 70.8864C40.2876 70.9047 40.2755 70.9223 40.2693 70.9434C40.2505 71.0077 40.2339 71.0626 40.1991 71.1097C40.1431 71.1861 40.0692 71.2339 39.9715 71.2675C39.8145 71.3212 39.6101 71.2925 39.4855 71.2236C39.4548 71.2068 39.4046 71.1642 39.3804 71.1318C39.3728 71.1216 39.371 71.1042 39.3628 71.0923C39.3442 71.0653 39.3104 71.0186 39.2972 70.9784C39.2911 70.9608 39.2942 70.9368 39.2884 70.9171C39.2825 70.8973 39.2657 70.8782 39.2622 70.86C39.2526 70.8133 39.2577 70.7447 39.2577 70.685C39.2577 70.5867 39.2675 70.516 39.2839 70.4486C39.2897 70.4247 39.2866 70.3982 39.2927 70.3784C39.2972 70.364 39.3126 70.3513 39.319 70.3347C39.338 70.2851 39.3474 70.2624 39.3759 70.2208C39.3901 70.1999 39.4019 70.1733 39.4153 70.1594C39.4646 70.1087 39.5648 70.0512 39.6431 70.0325C39.6707 70.026 39.7269 70.026 39.7613 70.0237C39.8504 70.0182 39.9207 70.0368 39.9803 70.0588C40.0005 70.0663 40.0217 70.0653 40.0372 70.0719C40.0733 70.0877 40.1181 70.1266 40.1466 70.1551C40.188 70.1962 40.2091 70.2577 40.2474 70.2995ZM39.6957 70.2995C39.6082 70.3802 39.5814 70.6576 39.608 70.8426C39.6193 70.9215 39.667 71.0294 39.7219 71.0485C39.7557 71.0603 39.8029 71.0397 39.8401 71.0526C39.8791 71.0347 39.8948 71.0077 39.9145 70.9653C39.9667 70.8534 39.9577 70.6629 39.9497 70.5142C39.9479 70.4841 39.954 70.4582 39.9497 70.4398C39.9409 70.4015 39.8981 70.3831 39.9102 70.339C39.8678 70.3114 39.841 70.2679 39.7613 70.2778C39.7586 70.278 39.7561 70.2784 39.7568 70.2821C39.7395 70.2909 39.7189 70.2966 39.6957 70.2995Z" fill="#0073BD"/>
<path fill-rule="evenodd" clip-rule="evenodd" d="M36.6344 70.628C36.5605 70.57 36.5851 70.4125 36.5949 70.3039C36.6525 70.2133 36.6943 70.1461 36.7832 70.0939C36.8619 70.0474 36.9852 70.0183 37.1028 70.0236C37.256 70.0306 37.3498 70.0622 37.4402 70.1332C37.4834 70.167 37.4941 70.1791 37.532 70.2338C37.6049 70.3391 37.6516 70.4987 37.6416 70.6979C37.636 70.8111 37.618 70.883 37.5934 70.9826C37.5426 71.0672 37.5031 71.141 37.4138 71.1973C37.382 71.2174 37.3486 71.2446 37.322 71.2541C37.1999 71.2985 37.002 71.3147 36.8621 71.276C36.8444 71.2713 36.8301 71.253 36.8094 71.2455C36.7895 71.2381 36.7717 71.2399 36.7568 71.2324C36.7264 71.2166 36.6758 71.1733 36.665 71.1449C36.6218 71.0308 36.7221 70.9324 36.8358 70.9521C36.8832 70.9603 36.9153 71.008 36.9672 71.0353C37.0042 71.0547 37.0559 71.0723 37.1028 71.0703C37.2083 71.0658 37.229 70.9963 37.2781 70.9083C37.2716 70.8671 37.3146 70.7827 37.265 70.7683C37.2263 70.7567 37.1941 70.8048 37.1599 70.8163C37.1099 70.8331 37.0143 70.8361 36.9409 70.8294C36.8819 70.824 36.8268 70.8128 36.7877 70.79C36.7223 70.7519 36.6445 70.7216 36.6344 70.628ZM36.954 70.3303C36.9327 70.3957 36.9157 70.461 36.9366 70.5184C36.9944 70.679 37.2855 70.63 37.265 70.4309C37.2615 70.3967 37.2378 70.3813 37.2388 70.3346C37.189 70.2531 37.0071 70.2469 36.954 70.3303Z" fill="#0073BD"/>
<path fill-rule="evenodd" clip-rule="evenodd" d="M36.1567 70.0368C36.2145 70.1083 36.2063 70.2638 36.2049 70.3828C36.2032 70.514 36.2004 70.6797 36.2004 70.8819C36.2004 71.0478 36.2248 71.215 36.126 71.2804C36.0352 71.3015 35.9562 71.299 35.9027 71.2541C35.8677 71.2252 35.8595 71.199 35.8544 71.1316C35.8417 70.9636 35.8609 70.7063 35.8589 70.5537C35.7956 70.4873 35.6102 70.5691 35.5479 70.4922C35.4936 70.4252 35.5296 70.3111 35.6093 70.2907C35.6349 70.2843 35.6671 70.2923 35.6925 70.2864C35.7398 70.2755 35.8005 70.2501 35.8326 70.2251C35.9269 70.1516 35.9668 69.9698 36.1567 70.0368Z" fill="#0073BD"/>
<path fill-rule="evenodd" clip-rule="evenodd" d="M29.3997 58.896C29.368 58.9638 29.3313 59.0263 29.2945 59.0886C29.1945 59.0298 29.1082 59.0869 29.0449 59.15C29.0275 59.1675 28.9929 59.2381 28.9837 59.2682C28.923 59.4662 29.0546 59.5969 29.1807 59.68C29.2983 59.7573 29.5024 59.8345 29.6536 59.7411C29.7329 59.6923 29.7704 59.6042 29.8113 59.4916C29.8171 59.4756 29.8455 59.4459 29.8419 59.4172C29.838 59.3856 29.7775 59.3588 29.7499 59.3426C29.7152 59.3221 29.6698 59.2853 29.6405 59.2857C29.5684 59.2865 29.5655 59.4285 29.5178 59.461C29.4911 59.4399 29.3856 59.4244 29.3778 59.382C29.3717 59.3494 29.4284 59.2852 29.4565 59.2332C29.4858 59.1789 29.521 59.1224 29.5354 59.0886C29.5489 59.0574 29.5591 59.0101 29.6011 59.0099C29.6323 59.0097 29.6394 59.0394 29.6536 59.0451C29.6692 59.0452 29.679 59.0517 29.6929 59.0536C29.8044 59.1408 29.9551 59.1886 30.0609 59.2814C30.0029 59.4848 29.9062 59.6491 29.8113 59.8157C29.8019 59.8195 29.7964 59.8271 29.7806 59.8243C29.7675 59.8661 29.7294 59.8884 29.6886 59.9207C29.6231 59.9728 29.5141 60.0197 29.3909 60.0084C29.3588 60.0054 29.3348 59.9863 29.2988 59.9777C29.243 59.9644 29.2037 59.9619 29.1545 59.9382C29.1338 59.9285 29.1064 59.9111 29.0843 59.899C29.0445 59.8765 29.0175 59.8626 29.0054 59.8286C28.9929 59.8282 28.9767 59.8312 28.9704 59.8243C28.9626 59.7888 28.9204 59.7796 28.9003 59.7544C28.8945 59.7468 28.897 59.7335 28.8915 59.7237C28.8847 59.7108 28.8685 59.7042 28.861 59.6931C28.8192 59.6317 28.7559 59.486 28.7909 59.3602C28.8083 59.2978 28.8271 59.2271 28.861 59.1631C28.8759 59.1349 28.8954 59.1082 28.9136 59.0798C28.9765 58.9818 29.0728 58.8589 29.207 58.8434C29.2738 58.8358 29.3535 58.8475 29.3997 58.896Z" fill="#0073BD"/>
<path fill-rule="evenodd" clip-rule="evenodd" d="M29.4525 60.5513C29.4163 60.6567 29.386 60.7679 29.3343 60.8578C29.2188 60.8838 29.0334 60.8812 28.883 60.8972C28.8267 60.9031 28.7849 60.9154 28.7036 60.9191C28.6568 60.9213 28.5771 60.9283 28.5065 60.9367C28.4487 60.9435 28.3407 60.9471 28.3358 60.976C28.3291 61.015 28.3801 61.0068 28.4188 61.0197C28.4331 61.0246 28.4462 61.0404 28.4628 61.0461C28.4819 61.0525 28.5059 61.0494 28.5241 61.0547C28.5663 61.068 28.5767 61.102 28.638 61.0942C28.7267 61.1602 28.8711 61.1705 28.9664 61.2301C29.0492 61.2405 29.1051 61.2782 29.1766 61.3001C29.1686 61.3739 29.1387 61.4257 29.1153 61.4839C29.0246 61.4728 28.9527 61.4315 28.8744 61.4052C28.817 61.3858 28.7572 61.3729 28.7079 61.3395C28.4905 61.2809 28.3045 61.1911 28.0904 61.1293C28.0722 61.0068 28.1576 60.9177 28.1781 60.8052C28.2951 60.7505 28.4739 60.781 28.638 60.7484C28.6833 60.7392 28.7546 60.7251 28.8216 60.722C28.8853 60.7191 28.9433 60.7187 29.0014 60.7089C29.0537 60.7001 29.1182 60.7085 29.1502 60.6608C29.0875 60.6169 28.984 60.6138 28.9226 60.5688C28.8468 60.5479 28.771 60.5276 28.7122 60.4899C28.6425 60.4854 28.5896 60.4465 28.5241 60.4243C28.5052 60.4178 28.4839 60.4213 28.4671 60.4155C28.4555 60.4114 28.4391 60.3926 28.4188 60.3846C28.3862 60.3725 28.3596 60.3799 28.3489 60.3586C28.3321 60.3256 28.3627 60.3016 28.375 60.2709C28.3877 60.2395 28.3825 60.2096 28.4014 60.1879C28.4352 60.1576 28.4622 60.199 28.4977 60.2096C28.5171 60.2154 28.5399 60.209 28.5546 60.2139C28.5712 60.2197 28.5829 60.2391 28.5983 60.2447C28.6132 60.25 28.6318 60.2445 28.6466 60.249C28.6614 60.2537 28.6704 60.2693 28.6861 60.2754C28.7371 60.2949 28.8002 60.3037 28.8525 60.3235C28.8701 60.3301 28.8832 60.3483 28.9006 60.3541C28.9205 60.3608 28.9426 60.3561 28.9619 60.3629C28.9887 60.3723 29.0203 60.3879 29.0582 60.4022C29.0936 60.4159 29.1297 60.4247 29.1635 60.4374C29.1825 60.4446 29.1973 60.4622 29.2159 60.468C29.2309 60.4729 29.2493 60.4684 29.2641 60.4725C29.3044 60.4833 29.344 60.5108 29.3823 60.5249C29.4071 60.5341 29.4339 60.5311 29.4525 60.5513Z" fill="#0073BD"/>
<path fill-rule="evenodd" clip-rule="evenodd" d="M28.9968 61.843C29.0345 61.8585 29.0028 61.903 28.9968 61.9305C28.9874 61.9743 28.9901 62.0229 28.9749 62.0577C28.9022 62.0753 28.8295 62.0933 28.7471 62.1015C28.6953 62.1751 28.7033 62.2875 28.6815 62.3994C28.6727 62.4437 28.6393 62.4981 28.6596 62.5526C28.6815 62.6114 28.854 62.6411 28.8698 62.7016C28.8772 62.73 28.8581 62.7673 28.8522 62.7977C28.8456 62.8333 28.8467 62.8675 28.826 62.8853C28.5156 62.7229 28.2249 62.5405 27.9151 62.3773C27.8918 62.3365 27.832 62.332 27.8057 62.2943C27.8238 62.216 27.8303 62.1261 27.8494 62.0489C27.9199 62.0048 28.034 62.0183 28.1472 61.9921C28.179 61.9847 28.2069 61.9702 28.2392 61.9657C28.3886 61.9446 28.5472 61.9204 28.6815 61.8958C28.7862 61.8762 28.9028 61.8661 28.9968 61.843ZM28.3619 62.1583C28.3222 62.1659 28.273 62.1626 28.2304 62.1671C28.195 62.171 28.1649 62.1863 28.1384 62.189C28.1048 62.1927 28.0751 62.1765 28.0508 62.2023C28.0366 62.2521 28.0973 62.2669 28.1341 62.2855C28.2163 62.3265 28.2696 62.3597 28.3531 62.4037C28.3841 62.4199 28.4349 62.4652 28.467 62.4605C28.5162 62.4537 28.5084 62.3885 28.515 62.3336C28.5226 62.2705 28.5408 62.2107 28.5457 62.154C28.5121 62.1111 28.408 62.1493 28.3619 62.1583Z" fill="#0073BD"/>
<path fill-rule="evenodd" clip-rule="evenodd" d="M28.8174 63.2752C28.8211 63.3336 28.8115 63.4147 28.7998 63.4721C28.6208 63.487 28.4317 63.4587 28.2436 63.446C28.0566 63.4333 27.8687 63.4272 27.6962 63.3979C27.6874 63.3559 27.6827 63.1986 27.74 63.1875C27.7622 63.1832 27.7964 63.199 27.8189 63.2006C27.9736 63.2111 28.1498 63.2092 28.3268 63.2313C28.412 63.242 28.4993 63.2389 28.5808 63.2446C28.665 63.2502 28.7506 63.2391 28.8174 63.2752Z" fill="#0073BD"/>
<path fill-rule="evenodd" clip-rule="evenodd" d="M39.7392 53.9388C39.7476 53.9787 39.7255 54.0158 39.7173 54.0568C39.7089 54.0996 39.7095 54.1453 39.6998 54.1883C39.6956 54.2069 39.6818 54.2229 39.6781 54.2409C39.6697 54.2792 39.6734 54.3217 39.6648 54.3635C39.6505 54.4339 39.6232 54.5351 39.6079 54.6132C39.5978 54.6656 39.5997 54.7216 39.5861 54.7664C39.5802 54.7853 39.5632 54.8049 39.5642 54.8191C39.5689 54.8883 39.6794 54.8764 39.7523 54.8891C39.7781 54.8938 39.8011 54.9102 39.8269 54.9154C39.9014 54.9303 39.9803 54.9279 40.0369 54.9592C40.0526 55.0123 40.0205 55.0526 40.0282 55.1124C39.9762 55.1364 39.9289 55.0948 39.8838 55.0862C39.8512 55.0799 39.8152 55.0881 39.7832 55.0819C39.7644 55.0782 39.7482 55.0649 39.7306 55.0598C39.6812 55.0459 39.6281 55.0498 39.5773 55.0379C39.5081 55.0221 39.4184 54.9959 39.3364 54.9899C39.3241 54.9033 39.3538 54.8037 39.3758 54.7052C39.4196 54.5095 39.4524 54.2883 39.4983 54.0832C39.5097 54.0332 39.5001 53.8865 39.5597 53.8949C39.6183 53.9033 39.6913 53.913 39.7392 53.9388Z" fill="#0073BD"/>
<path fill-rule="evenodd" clip-rule="evenodd" d="M41.9683 54.9896C41.9568 55.0027 41.9456 55.0166 41.9376 55.0334C41.931 55.0396 41.9337 55.0558 41.9333 55.0683C41.9005 55.1008 41.8839 55.1562 41.8587 55.2086C41.8173 55.2955 41.7331 55.4247 41.7888 55.5546C41.8189 55.6247 41.9515 55.7038 42.0472 55.7033C42.2182 55.7023 42.2401 55.5554 42.3186 55.4538C42.3508 55.3706 42.3846 55.2891 42.4325 55.2215C42.4458 55.1518 42.5036 55.0769 42.5333 55.0113C42.5515 54.9712 42.561 54.9111 42.5989 54.9062C42.6276 54.9029 42.6603 54.9369 42.6865 54.9501C42.7195 54.9667 42.7527 54.9691 42.7697 54.9939C42.747 55.1158 42.6804 55.2106 42.6296 55.3135C42.6237 55.3254 42.6232 55.3409 42.6165 55.353C42.5843 55.4128 42.5499 55.5024 42.5157 55.5677C42.5059 55.5862 42.4852 55.6017 42.4762 55.6202C42.4518 55.6702 42.4106 55.7402 42.3668 55.7777C42.2182 55.906 41.9615 55.867 41.8019 55.7736C41.7147 55.7224 41.6602 55.6476 41.5961 55.5808C41.5616 55.5073 41.5455 55.4114 41.5612 55.3311C41.5641 55.3151 41.5776 55.3016 41.5829 55.283C41.5883 55.2649 41.5854 55.2426 41.5917 55.226C41.5979 55.2102 41.6143 55.1949 41.6223 55.1779C41.6309 55.1598 41.6317 55.1392 41.6399 55.1209C41.6647 55.0656 41.7079 55.0148 41.7319 54.9589C41.7392 54.9419 41.7374 54.9185 41.745 54.9021C41.7685 54.8513 41.815 54.8103 41.8151 54.753C41.8642 54.7161 41.8738 54.6393 41.907 54.5866C41.9089 54.5829 41.9173 54.576 41.9245 54.578C41.9707 54.5905 42.0961 54.6516 42.1041 54.6786C42.1133 54.7095 42.0699 54.7542 42.0515 54.7882C42.0388 54.8116 42.0291 54.8439 42.0166 54.8714C41.996 54.9165 41.9767 54.9388 41.9683 54.9896Z" fill="#0073BD"/>
<path fill-rule="evenodd" clip-rule="evenodd" d="M43.488 56.5005C43.5237 56.4896 43.5415 56.4503 43.5624 56.4218C43.6841 56.2532 43.8207 56.0863 43.9522 55.9093C43.9738 55.88 43.9981 55.8287 44.0178 55.8261C44.0487 55.8222 44.0782 55.8656 44.101 55.883C44.1229 55.8998 44.1692 55.9252 44.1712 55.9488C44.1731 55.975 44.1165 56.0295 44.101 56.0494C44.0721 56.0871 44.0545 56.1246 44.0221 56.1414C44.0184 56.1625 44.0041 56.1729 44.0004 56.194C43.8812 56.3278 43.7543 56.523 43.6368 56.6755C43.6191 56.6986 43.5966 56.7162 43.5798 56.7371C43.562 56.7594 43.5425 56.8244 43.5099 56.8289C43.4712 56.8342 43.443 56.7793 43.4221 56.7633C43.3905 56.7508 43.3628 56.7256 43.3303 56.7019C43.3041 56.683 43.2575 56.6562 43.2514 56.6275C43.2473 56.6076 43.2602 56.5935 43.2645 56.5704C43.2813 56.4823 43.2909 56.3755 43.3127 56.2815C43.3166 56.2649 43.3303 56.2499 43.3346 56.2334C43.346 56.1897 43.3401 56.1338 43.3522 56.0889C43.3596 56.0611 43.3755 56.0404 43.3784 56.0187C43.3817 55.9957 43.3751 55.9738 43.3784 55.9576C43.3827 55.9363 43.404 55.9185 43.4091 55.8961C43.4126 55.881 43.4079 55.8646 43.4091 55.848C43.4141 55.7726 43.47 55.6909 43.4354 55.6335C43.4098 55.6384 43.3921 55.6548 43.3784 55.673C43.3428 55.7198 43.3129 55.7734 43.2778 55.8216C43.1916 55.9394 43.0955 56.0557 43.0062 56.1764C42.9785 56.2139 42.9589 56.2559 42.9185 56.2815C42.9093 56.3147 42.8867 56.3475 42.8617 56.3471C42.8458 56.347 42.8122 56.3133 42.7872 56.2946C42.7589 56.2735 42.7345 56.2534 42.7173 56.2422C42.744 56.1332 42.838 56.0914 42.8747 55.9924C42.9183 55.9527 42.9623 55.9134 42.9843 55.8525C43.1059 55.7187 43.2459 55.4993 43.361 55.3619C43.3993 55.3162 43.477 55.4354 43.5229 55.4495C43.5407 55.4661 43.5661 55.4799 43.5931 55.502C43.612 55.5176 43.6495 55.5384 43.6544 55.5591C43.664 55.5995 43.6267 55.6454 43.6193 55.6816C43.6124 55.7161 43.6134 55.757 43.6062 55.7955C43.5909 55.8763 43.5618 55.976 43.5448 56.0625C43.5394 56.0902 43.5423 56.1215 43.536 56.1502C43.5271 56.1922 43.5087 56.2307 43.5054 56.2684C43.5036 56.2889 43.5083 56.31 43.5054 56.3298C43.4964 56.3899 43.4434 56.4474 43.488 56.5005Z" fill="#0073BD"/>
<path fill-rule="evenodd" clip-rule="evenodd" d="M43.8643 57.1136C43.9067 57.0298 43.9772 56.9653 44.0395 56.8988C44.228 56.6981 44.4216 56.4936 44.6131 56.29C44.6359 56.3002 44.7682 56.3951 44.7709 56.4346C44.7727 56.4627 44.7092 56.5178 44.6832 56.5442C44.4873 56.7423 44.3159 56.9456 44.1227 57.1485C44.0934 57.1792 44.053 57.24 44.0219 57.2404C43.9928 57.241 43.9619 57.1989 43.9387 57.1792C43.9082 57.1532 43.8865 57.1269 43.8643 57.1136Z" fill="#0073BD"/>
<path fill-rule="evenodd" clip-rule="evenodd" d="M37.392 53.7677C37.4018 53.9083 37.4238 54.0351 37.4403 54.1705C37.4531 54.2776 37.4406 54.3901 37.4621 54.4813C37.4658 54.4972 37.4768 54.5102 37.4797 54.5251C37.4993 54.6302 37.4821 54.7539 37.5016 54.858C37.4459 54.8721 37.3443 54.9029 37.3002 54.8625C37.2789 54.7589 37.293 54.6388 37.2695 54.5341C37.2658 54.5181 37.2545 54.502 37.2519 54.4858C37.2375 54.3962 37.2496 54.3028 37.2388 54.2188C37.2334 54.1762 37.216 54.1375 37.2125 54.0961C37.2091 54.0562 37.2213 54.0076 37.1863 53.9777C37.1429 53.9953 37.1603 54.056 37.1511 54.0961C37.1449 54.1234 37.1247 54.1471 37.1205 54.1705C37.1152 54.1988 37.1224 54.2295 37.1162 54.258C37.1115 54.2791 37.0949 54.2989 37.09 54.3194C37.0822 54.3506 37.0843 54.3868 37.0767 54.4202C37.0702 54.4481 37.0562 54.4759 37.0503 54.5034C37.0427 54.5409 37.0454 54.5804 37.0374 54.6173C37.0302 54.649 37.0128 54.6783 37.0068 54.7091C37.0019 54.733 37.0071 54.7564 37.0023 54.7793C36.9913 54.8301 36.9665 54.8783 36.9585 54.9279C36.9104 54.9406 36.8258 54.9375 36.779 54.9367C36.7586 54.8812 36.7356 54.8285 36.7043 54.7836C36.6405 54.5862 36.5469 54.4186 36.4767 54.2276C36.4754 54.2084 36.4511 54.2119 36.4506 54.1924C36.4406 54.132 36.4132 54.0892 36.3847 54.0478C36.3158 54.076 36.3732 54.1561 36.3804 54.2012C36.3826 54.2147 36.3759 54.2295 36.3759 54.245C36.3769 54.3768 36.4213 54.5442 36.4285 54.6872C36.4306 54.7281 36.4234 54.7709 36.4285 54.8099C36.4365 54.8685 36.4758 54.9195 36.4506 54.9764C36.3947 54.9846 36.3298 55.0074 36.271 54.9983C36.2316 54.9559 36.2355 54.8922 36.2316 54.8361C36.2273 54.7754 36.2255 54.7089 36.2185 54.6478C36.2124 54.5976 36.197 54.5489 36.1921 54.4989C36.1837 54.412 36.1907 54.3231 36.1747 54.2405C36.1714 54.224 36.1601 54.2088 36.1571 54.1924C36.1395 54.0963 36.153 54.0054 36.144 53.9166C36.1587 53.8767 36.2038 53.89 36.2402 53.8857C36.3277 53.8755 36.4365 53.8445 36.525 53.8683C36.5488 53.973 36.5981 54.0664 36.6389 54.1617C36.6494 54.1865 36.6674 54.2143 36.6739 54.2362C36.6782 54.251 36.6731 54.2662 36.6782 54.2799C36.684 54.2957 36.7012 54.3073 36.7088 54.3239C36.7303 54.3702 36.7411 54.4288 36.7614 54.477C36.767 54.4903 36.7817 54.5028 36.7878 54.5165C36.8065 54.5599 36.8034 54.614 36.8579 54.6261C36.8932 54.5987 36.8794 54.5491 36.8841 54.5077C36.8878 54.4727 36.9069 54.4436 36.9147 54.4114C36.9218 54.3819 36.9184 54.3497 36.9235 54.3194C36.9308 54.2754 36.9472 54.2334 36.954 54.1879C36.9739 54.0598 37.0007 53.9181 37.0374 53.7939C37.146 53.795 37.2861 53.7548 37.392 53.7677Z" fill="#0073BD"/>
<path fill-rule="evenodd" clip-rule="evenodd" d="M38.9377 54.9195C38.891 54.9193 38.8152 54.9111 38.7538 54.9109C38.714 54.8847 38.7179 54.8427 38.7056 54.797C38.6851 54.72 38.6698 54.6667 38.5741 54.6567C38.5499 54.6544 38.5211 54.6581 38.4909 54.6567C38.4074 54.6532 38.3084 54.6385 38.2457 54.6436C38.1843 54.6487 38.1931 54.6745 38.1715 54.7225C38.1482 54.7727 38.1171 54.8282 38.088 54.8714C38.0232 54.8771 37.9378 54.8769 37.8999 54.8538C37.9194 54.7679 37.9779 54.677 38.0093 54.5955C38.0656 54.449 38.1271 54.3097 38.1888 54.1619C38.2228 54.0806 38.2533 53.9817 38.2984 53.9079C38.3072 53.878 38.3328 53.7741 38.3772 53.7764C38.4313 53.7795 38.5657 53.7731 38.6048 53.7897C38.6423 53.8057 38.6716 53.9432 38.688 54.0042C38.7116 54.0919 38.7366 54.1495 38.7581 54.2277C38.7751 54.289 38.7839 54.3521 38.8019 54.4115C38.8075 54.4303 38.8226 54.4455 38.8283 54.4641C38.8359 54.4897 38.8335 54.5188 38.8413 54.5428C38.8484 54.5655 38.8673 54.5856 38.872 54.6043C38.8767 54.6227 38.8722 54.6426 38.8763 54.6612C38.898 54.7557 38.9632 54.8405 38.9377 54.9195ZM38.5655 54.3285C38.5499 54.2632 38.5364 54.1656 38.5172 54.1007C38.5083 54.07 38.4821 53.9972 38.4559 54.0042C38.4496 54.0067 38.4452 54.0112 38.4428 54.0175C38.4137 54.0884 38.3867 54.1683 38.3553 54.2406C38.3494 54.2543 38.3338 54.2664 38.3289 54.2802C38.3231 54.2974 38.327 54.3191 38.3201 54.3373C38.3039 54.3807 38.2607 54.4199 38.2852 54.4772C38.3799 54.4895 38.5059 54.4846 38.5874 54.486C38.6241 54.4412 38.5782 54.3814 38.5655 54.3285Z" fill="#0073BD"/>
<path fill-rule="evenodd" clip-rule="evenodd" d="M35.5349 54.6086C35.5591 54.6372 35.612 54.6368 35.6445 54.6567C35.6755 54.6708 35.6882 54.7034 35.7144 54.7225C35.7312 54.7538 35.7404 54.7927 35.7626 54.8188C35.7892 54.8868 35.8048 54.9554 35.8414 55.0246C35.8558 55.0521 35.8822 55.0695 35.872 55.0947C35.8572 55.1314 35.8041 55.1156 35.7626 55.1254C35.6986 55.1404 35.6777 55.1828 35.6357 55.1121C35.5837 55.0255 35.5712 54.8816 35.513 54.8013C35.4372 54.6966 35.3121 54.8032 35.1803 54.797C35.118 54.8337 35.1549 54.8945 35.1758 54.9632C35.183 54.9871 35.1801 55.0119 35.1846 55.0334C35.1895 55.057 35.2047 55.0769 35.2108 55.0992C35.227 55.157 35.2268 55.2135 35.2459 55.2566C35.175 55.2668 35.1205 55.318 35.0267 55.3004C34.9791 55.1277 34.9423 54.9443 34.8868 54.7794C34.8609 54.5846 34.7853 54.4168 34.7642 54.232C34.8361 54.2087 34.8974 54.2021 34.9787 54.1794C35 54.1734 35.0193 54.1578 35.04 54.1531C35.0644 54.1476 35.0951 54.1519 35.1232 54.1443C35.1441 54.1388 35.1627 54.1234 35.1846 54.1181C35.217 54.1103 35.2612 54.1138 35.2985 54.105C35.344 54.0941 35.3469 54.0913 35.3948 54.1005C35.4977 54.1206 35.5431 54.1187 35.6005 54.1837C35.6458 54.2351 35.698 54.3783 35.6487 54.4772C35.6212 54.5325 35.5593 54.5584 35.5349 54.6086ZM35.3598 54.5868C35.3876 54.5514 35.4372 54.5338 35.4473 54.4772C35.4592 54.4105 35.4153 54.3101 35.3641 54.2888C35.2571 54.2447 35.1764 54.3226 35.0707 54.3152C35.0502 54.3322 35.0304 54.349 35.0267 54.3766C35.0205 54.425 35.058 54.4785 35.0707 54.5385C35.0787 54.5764 35.0636 54.6137 35.0926 54.6348C35.1963 54.6503 35.2701 54.5997 35.3598 54.5868Z" fill="#0073BD"/>
<path fill-rule="evenodd" clip-rule="evenodd" d="M33.4548 54.8143C33.4923 54.8025 33.5052 54.7596 33.5337 54.7355C33.547 54.7244 33.5704 54.7176 33.5861 54.7049C33.6017 54.6923 33.6107 54.6734 33.6257 54.6654C33.6402 54.6576 33.6576 54.6599 33.6738 54.6523C33.6876 54.646 33.6986 54.6292 33.7132 54.6216C33.7795 54.5882 33.8814 54.5732 33.9629 54.5691C33.9994 54.5671 34.0121 54.5781 34.0459 54.5867C34.1043 54.6011 34.1329 54.6039 34.1774 54.6304C34.2434 54.6699 34.3073 54.7445 34.3526 54.8057C34.3573 54.8119 34.3673 54.818 34.37 54.823C34.3737 54.8301 34.3702 54.8465 34.3745 54.8537C34.3843 54.8705 34.4052 54.8809 34.4138 54.8977C34.4208 54.911 34.4202 54.9309 34.4271 54.9457C34.4325 54.958 34.4449 54.9702 34.4488 54.9809C34.5033 55.1276 34.5128 55.3544 34.4271 55.4757C34.4021 55.5107 34.3833 55.5443 34.3439 55.5764C34.2677 55.6379 34.2151 55.6666 34.1161 55.7033C34.008 55.7436 33.8387 55.7565 33.7263 55.6988C33.6693 55.6699 33.6163 55.6228 33.573 55.5721C33.5222 55.5123 33.471 55.4263 33.4417 55.3398C33.4348 55.32 33.4202 55.3023 33.4153 55.2829C33.4091 55.2571 33.4124 55.228 33.4065 55.1999C33.3983 55.1593 33.376 55.0764 33.3848 55.0157C33.3872 54.9983 33.4018 54.9795 33.4065 54.9588C33.411 54.9403 33.4061 54.9184 33.411 54.902C33.4204 54.8709 33.4563 54.8484 33.4548 54.8143ZM34.0547 54.7969C33.9863 54.7431 33.8783 54.7304 33.792 54.7617C33.6413 54.8166 33.5755 54.967 33.6212 55.1559C33.6243 55.169 33.6363 55.1811 33.6431 55.1999C33.6695 55.2704 33.6908 55.3419 33.722 55.3966C33.7765 55.4935 33.8955 55.6176 34.0547 55.5721C34.1545 55.5431 34.1971 55.5064 34.2518 55.4318C34.3269 55.2108 34.1784 54.8938 34.0547 54.7969Z" fill="#0073BD"/>
<path fill-rule="evenodd" clip-rule="evenodd" d="M33.1703 56.1896C33.1279 56.2089 33.0936 56.2724 33.0346 56.264C32.9728 56.2554 32.8941 56.1812 32.8331 56.1415C32.7833 56.1091 32.7165 56.0847 32.6624 56.0495C32.6475 56.0397 32.6366 56.0272 32.6229 56.0188C32.5811 55.9932 32.5356 55.9534 32.4915 55.9313C32.4575 55.9141 32.4244 55.8975 32.3908 55.883C32.3836 55.8713 32.3723 55.8637 32.3645 55.8524C32.2897 55.8325 32.2471 55.7799 32.1851 55.7473C32.1201 55.7717 32.2039 55.8416 32.2332 55.8873C32.2473 55.9096 32.2519 55.9276 32.2639 55.9444C32.2742 55.9587 32.291 55.97 32.3033 55.9882C32.3078 55.9952 32.3029 56.0055 32.3076 56.0145C32.3211 56.0403 32.3596 56.0786 32.3778 56.1063C32.3891 56.1239 32.392 56.1468 32.4039 56.1634C32.4117 56.1739 32.4317 56.1872 32.4391 56.1984C32.4459 56.2091 32.4459 56.2222 32.4522 56.2335C32.5126 56.3425 32.6016 56.4303 32.6448 56.5313C32.6007 56.5776 32.5352 56.6024 32.4829 56.6408C32.3686 56.5053 32.2883 56.3361 32.1763 56.1984C32.1334 56.1065 32.073 56.0319 32.023 55.9489C31.9747 55.8682 31.9028 55.7969 31.8784 55.6947C31.889 55.6863 31.9034 55.6818 31.9222 55.6814C31.99 55.6209 32.0738 55.5761 32.1543 55.5283C32.2949 55.5951 32.4172 55.6803 32.544 55.7606C32.5518 55.7645 32.5659 55.7621 32.5704 55.7693C32.6643 55.8315 32.7708 55.8909 32.8681 55.9489C32.9072 55.9719 32.9474 56.0264 33.0039 56.0012C33.0004 55.9684 32.9691 55.9631 32.9689 55.9268C32.9623 55.9188 32.95 55.9167 32.9425 55.9092C32.9326 55.8494 32.8785 55.8332 32.8681 55.7736C32.7982 55.6881 32.7497 55.5883 32.6886 55.4976C32.6393 55.4247 32.5755 55.3591 32.5485 55.27C32.5981 55.2505 32.6423 55.1868 32.6886 55.1692C32.7208 55.1571 32.7267 55.188 32.7456 55.2173C32.7571 55.2356 32.7773 55.2515 32.7849 55.2657C32.7933 55.2808 32.7917 55.2985 32.7982 55.3093C32.8054 55.3218 32.8236 55.3304 32.8331 55.3444C32.8568 55.3794 32.8744 55.4318 32.9119 55.4538C32.9152 55.4683 32.9199 55.481 32.9252 55.4933C32.9314 55.506 32.9463 55.5101 32.9556 55.5195C33.0523 55.7049 33.1815 55.8575 33.2799 56.0407C33.3839 56.0907 33.217 56.161 33.1703 56.1896Z" fill="#0073BD"/>
<path fill-rule="evenodd" clip-rule="evenodd" d="M31.2611 57.7442C31.2154 57.7546 31.2124 57.8179 31.1691 57.8187C31.1404 57.8193 31.14 57.7942 31.121 57.7749C31.0989 57.7528 31.0583 57.7386 31.0509 57.7091C31.0421 57.7034 31.03 57.7009 31.0202 57.696C30.9378 57.5975 30.8291 57.525 30.7444 57.4289C30.6449 57.359 30.5748 57.2599 30.4728 57.1925C30.4554 57.139 30.3658 57.1226 30.3677 57.0654C30.3685 57.0405 30.3894 57.0419 30.4115 57.013C30.4281 56.9909 30.423 56.9646 30.4597 56.9647C30.4861 56.8884 30.5154 56.9108 30.5691 56.9647C30.6031 56.9987 30.634 57.0126 30.6523 57.048C30.8553 57.2054 31.0214 57.4 31.2216 57.5604C31.2234 57.5717 31.2347 57.5735 31.2349 57.5866C31.2601 57.6083 31.3066 57.6202 31.3136 57.6522C31.3236 57.6983 31.2765 57.7036 31.2611 57.7442Z" fill="#0073BD"/>
<path fill-rule="evenodd" clip-rule="evenodd" d="M30.8971 58.0944C30.8643 58.1784 30.7983 58.2292 30.7528 58.3003C30.6391 58.3044 30.5365 58.2781 30.433 58.2697C30.3732 58.2648 30.305 58.2398 30.2579 58.2783C30.2814 58.3507 30.3089 58.4289 30.3366 58.5061C30.3491 58.541 30.3587 58.5529 30.3716 58.5981C30.3853 58.6453 30.4216 58.6864 30.4199 58.7208C30.4171 58.7684 30.3701 58.804 30.3409 58.8391C30.3335 58.8769 30.3146 58.903 30.2796 58.9134C30.2599 58.8556 30.2493 58.8098 30.227 58.7471C30.22 58.7266 30.203 58.7069 30.1966 58.6856C30.1827 58.6414 30.1772 58.5948 30.1614 58.55C30.1419 58.4947 30.1114 58.4414 30.0958 58.3879C30.0807 58.3363 30.0872 58.2816 30.0344 58.2611C29.8432 58.2578 29.5974 58.2531 29.4302 58.2259C29.4542 58.1419 29.5226 58.1024 29.5572 58.0288C29.6613 58.0069 29.756 58.0405 29.8461 58.0507C29.9002 58.0569 29.9633 58.0638 30.0125 58.0464C30.0127 57.9665 29.9705 57.9073 29.9424 57.8186C29.9328 57.7883 29.9174 57.7539 29.9074 57.7223C29.8969 57.6887 29.8719 57.6521 29.8725 57.6303C29.8736 57.5789 29.966 57.5193 29.9819 57.4595C29.984 57.4517 29.9827 57.4453 29.995 57.4464C30.0389 57.4658 30.0278 57.5158 30.0387 57.5558C30.0432 57.5715 30.0588 57.5834 30.0651 57.5998C30.0712 57.616 30.0682 57.6346 30.0739 57.6521C30.0809 57.674 30.0977 57.6914 30.1046 57.7135C30.11 57.7311 30.1083 57.7518 30.1133 57.7705C30.127 57.8217 30.162 57.8766 30.179 57.928C30.1983 57.9872 30.1909 58.0395 30.2446 58.0595C30.4584 58.0604 30.7168 58.071 30.8971 58.0944Z" fill="#0073BD"/>
<path fill-rule="evenodd" clip-rule="evenodd" d="M40.7113 64.8384C40.7719 64.8126 40.8389 64.8334 40.9083 64.8296C40.9694 64.8265 41.035 64.8253 41.1054 64.8253C41.2435 64.8253 41.414 64.8427 41.4996 64.7904C41.5119 64.7828 41.5113 64.7646 41.5301 64.7423C41.5389 64.7318 41.5506 64.7357 41.5565 64.7288C41.6092 64.6687 41.5914 64.4579 41.5914 64.3348C41.5914 63.6381 41.6002 62.9561 41.6002 62.2503C41.6002 62.0602 41.6252 61.8977 41.5258 61.8125C41.4193 61.7211 41.1792 61.7883 41.0003 61.7555C40.9868 61.5925 40.9934 61.4046 40.996 61.2212C41.0032 60.6616 40.9938 60.0033 40.9915 59.4696C40.9913 59.427 40.9809 59.3785 41.0046 59.3424C41.5275 59.3346 42.1324 59.3381 42.6819 59.3381C42.9209 59.3381 43.2092 59.3137 43.3782 59.3775C43.4542 59.4063 43.5353 59.4647 43.5929 59.5309C43.6068 59.5467 43.6249 59.5622 43.6367 59.579C43.6495 59.5973 43.6554 59.6188 43.6673 59.6403C43.6884 59.6784 43.7173 59.7284 43.7242 59.763C43.7363 59.8235 43.733 59.9042 43.733 59.9775C43.733 60.183 43.7189 60.4237 43.7285 60.6388C43.7496 61.1014 43.733 61.5056 43.733 61.9526C43.7332 63.4211 43.7285 64.8742 43.7285 66.3536C43.7285 66.4996 43.7445 66.6473 43.7285 66.7785C43.725 66.8086 43.7082 66.8198 43.698 66.8485C43.6898 66.8713 43.6929 66.8991 43.6847 66.9186C43.6728 66.9479 43.6404 66.9845 43.6191 67.0106C43.6099 67.0218 43.6091 67.0376 43.6015 67.0456C43.5728 67.0767 43.5245 67.1114 43.4878 67.1376C43.4005 67.1997 43.3065 67.2328 43.1768 67.2382C42.9173 67.2494 42.6333 67.2382 42.3535 67.2382C41.7835 67.2382 41.231 67.2455 40.7113 67.2294C40.6889 67.1892 40.7074 67.1419 40.7068 67.0982C40.6998 66.559 40.7025 65.975 40.7025 65.4208C40.7025 65.219 40.6959 65.0195 40.7113 64.8384Z" fill="#0073BD"/>
<path fill-rule="evenodd" clip-rule="evenodd" d="M44.8237 57.731C44.8732 57.7748 44.9316 57.7207 44.9815 57.6959C45.0156 57.6791 45.0575 57.6726 45.0909 57.6566C45.1194 57.6429 45.1366 57.6322 45.1741 57.6171C45.2065 57.6042 45.254 57.5712 45.2923 57.556C45.3024 57.5519 45.3177 57.5544 45.3274 57.5515C45.3698 57.5392 45.4124 57.504 45.4501 57.4859C45.4958 57.4638 45.5474 57.4556 45.5902 57.4376C45.6226 57.4241 45.6431 57.3933 45.6822 57.3983C45.7115 57.402 45.7395 57.4401 45.7609 57.464C45.785 57.4905 45.8057 57.5171 45.8223 57.5427C45.7838 57.5841 45.7256 57.5902 45.6646 57.6128C45.6213 57.6289 45.5812 57.6572 45.5376 57.6742C45.4501 57.7082 45.3571 57.7299 45.2837 57.7793C45.2434 57.7683 45.2249 57.7984 45.2005 57.8098C45.152 57.8326 45.0918 57.8426 45.0428 57.8625C45.0291 57.868 45.0203 57.8824 45.0076 57.8889C44.9942 57.8953 44.9777 57.8926 44.9639 57.8975C44.9007 57.9194 44.8177 57.9635 44.7448 57.9893C44.6958 57.9793 44.6544 57.8977 44.6223 57.8625C44.6063 57.8449 44.5778 57.8397 44.5741 57.8143C44.5706 57.7898 44.5952 57.7709 44.5874 57.7441C44.6303 57.7086 44.6383 57.6517 44.6618 57.6042C44.6886 57.5492 44.7306 57.4991 44.7581 57.4421C44.7649 57.4274 44.7638 57.4081 44.7712 57.3938C44.7769 57.3827 44.7913 57.3739 44.7974 57.3632C44.8234 57.318 44.8452 57.2669 44.8718 57.2188C44.9375 57.0998 45.0055 56.9648 45.069 56.8377C45.0793 56.8172 45.0942 56.7914 45.1084 56.7764C45.1094 56.7717 45.117 56.7736 45.1172 56.7676C45.1663 56.8152 45.3452 56.9402 45.2223 57.0129C45.2292 57.0432 45.1973 57.0598 45.1872 57.083C45.1628 57.1395 45.1321 57.1909 45.0997 57.245C45.0526 57.3231 45.0069 57.4095 44.9596 57.4904C44.9428 57.5189 44.9326 57.5521 44.9158 57.5779C44.8863 57.6228 44.84 57.6673 44.8237 57.731Z" fill="#0073BD"/>
<path fill-rule="evenodd" clip-rule="evenodd" d="M46.5533 58.5804C46.5304 58.6293 46.4732 58.6435 46.4351 58.6767C46.3815 58.6633 46.379 58.5986 46.3386 58.5716C46.3165 58.5126 46.272 58.465 46.238 58.414C46.2044 58.3638 46.184 58.2997 46.1284 58.2696C46.093 58.2823 46.0602 58.2978 46.0408 58.3265C45.9951 58.3579 45.9168 58.3689 45.9139 58.4228C45.9119 58.4585 45.9766 58.5375 46.0102 58.5847C46.0567 58.6506 46.0834 58.7014 46.111 58.7426C46.1248 58.7633 46.1534 58.7826 46.1459 58.8125C46.142 58.8283 46.1051 58.8518 46.0934 58.8608C46.0199 58.9172 46.0065 58.8836 45.9576 58.8082C45.9275 58.7619 45.8535 58.6689 45.8263 58.6244C45.8039 58.5875 45.7947 58.5308 45.7517 58.5236C45.7103 58.5166 45.6783 58.5476 45.6554 58.5804C45.6132 58.5957 45.5778 58.6166 45.546 58.6375C45.47 58.6875 45.521 58.7408 45.5679 58.8039C45.589 58.8323 45.6015 58.8717 45.6204 58.8957C45.6277 58.9049 45.6441 58.9122 45.6511 58.9221C45.6648 58.9411 45.6702 58.9655 45.6818 58.9835C45.6943 59.0028 45.7111 59.0192 45.7212 59.036C45.7275 59.0464 45.7281 59.0614 45.7343 59.071C45.7455 59.0884 45.7681 59.0974 45.7693 59.1147C45.7716 59.146 45.7306 59.1841 45.6906 59.1761C45.6321 59.271 45.5907 59.1472 45.5503 59.0886C45.5175 59.0403 45.4866 59.0007 45.4671 58.979C45.4489 58.9374 45.4294 58.8971 45.3971 58.8694C45.392 58.8237 45.3528 58.8117 45.3446 58.7688C45.3205 58.7459 45.3053 58.7209 45.2832 58.6855C45.2678 58.6611 45.2272 58.6226 45.2307 58.5935C45.2344 58.5629 45.3096 58.5277 45.3446 58.506C45.4307 58.4527 45.5368 58.3808 45.6116 58.3222C45.6241 58.3214 45.6298 58.3142 45.6423 58.3134C45.7523 58.2233 45.9154 58.1475 46.032 58.0594C46.0703 58.0307 46.1037 58.0045 46.1547 57.9807C46.1584 57.9797 46.1588 57.9822 46.159 57.985C46.243 58.0866 46.2972 58.2177 46.3868 58.3134C46.4355 58.4091 46.4943 58.4951 46.5533 58.5804Z" fill="#0073BD"/>
<path fill-rule="evenodd" clip-rule="evenodd" d="M46.886 59.1282C46.8957 59.1797 46.9137 59.2176 46.9385 59.2637C46.9467 59.2788 46.9621 59.2876 46.9692 59.3032C46.9752 59.3165 46.9723 59.3325 46.978 59.347C46.984 59.3634 47.0002 59.3739 47.0084 59.3909C47.0135 59.4009 47.0127 59.4144 47.0172 59.4259C47.0231 59.4407 47.0378 59.4521 47.0436 59.4654C47.0499 59.4796 47.0505 59.498 47.0569 59.5136C47.0674 59.54 47.0811 59.5722 47.0962 59.6099C47.118 59.6646 47.118 59.6693 47.118 59.7455C47.118 59.7754 47.1263 59.8027 47.1223 59.8242C47.112 59.8815 47.0635 59.9286 47.0348 59.9645C47.021 59.9625 47.0194 59.9723 47.0042 59.969C46.9508 60.012 46.8649 60.0391 46.7764 60.0171C46.724 60.004 46.6865 59.9157 46.6232 59.9557C46.6191 59.976 46.6224 60.0067 46.6275 60.0301C46.6011 60.1081 46.5376 60.1554 46.4655 60.1966C46.4458 60.2079 46.4316 60.229 46.413 60.2404C46.3952 60.2513 46.3724 60.2552 46.3561 60.2667C46.3487 60.272 46.3444 60.2835 46.3386 60.2884C46.3055 60.3173 46.2675 60.3339 46.2378 60.363C46.1993 60.3488 46.1991 60.3003 46.1809 60.2579C46.1672 60.2263 46.1364 60.2067 46.1414 60.1704C46.1467 60.1327 46.2217 60.0927 46.2641 60.0653C46.3446 60.0131 46.42 59.9835 46.4743 59.9207C46.4995 59.8658 46.4702 59.8236 46.4525 59.785C46.4228 59.7205 46.4015 59.6367 46.3517 59.5966C46.2643 59.6168 46.2069 59.659 46.1241 59.6887C46.0649 59.7099 46.0178 59.7625 45.9445 59.7631C45.9158 59.7322 45.9133 59.6908 45.8963 59.6535C45.8849 59.6291 45.8494 59.6115 45.8613 59.5748C46.034 59.479 46.2301 59.4066 46.3999 59.3077C46.4167 59.31 46.4212 59.2999 46.4392 59.3032C46.4546 59.2995 46.4599 59.286 46.4698 59.277C46.588 59.2344 46.7336 59.1569 46.8422 59.1106C46.8565 59.1045 46.8717 59.1229 46.886 59.1282ZM46.6539 59.7807C46.7076 59.8449 46.8289 59.8125 46.886 59.7719C46.9192 59.7406 46.9368 59.664 46.9166 59.6054C46.8973 59.549 46.85 59.4523 46.8334 59.4259C46.8231 59.4095 46.7861 59.3731 46.7721 59.3821C46.697 59.4304 46.5998 59.4605 46.5269 59.5136C46.5521 59.6197 46.6048 59.6982 46.6539 59.7807Z" fill="#0073BD"/>
<path fill-rule="evenodd" clip-rule="evenodd" d="M47.4117 61.2694C47.3853 61.2606 47.3924 61.2149 47.381 61.1773C47.3662 61.1285 47.3128 61.066 47.4029 61.0593C47.4365 61.0123 47.4875 60.9568 47.46 60.8579C47.4287 60.7464 47.323 60.6555 47.1796 60.722C47.1265 60.7858 47.1284 60.8687 47.1444 60.9759C47.1716 61.1555 47.1486 61.3385 47.0307 61.4272C46.937 61.4481 46.8536 61.4882 46.7592 61.4532C46.6666 61.4194 46.5804 61.3067 46.5271 61.2037C46.4878 61.1281 46.4761 61.0736 46.4527 60.9671C46.448 60.9466 46.4437 60.8845 46.4482 60.8579C46.4511 60.8409 46.4679 60.8259 46.4746 60.8052C46.4812 60.7843 46.4765 60.7634 46.4834 60.7483C46.4949 60.7224 46.5394 60.6688 46.5752 60.6432C46.5969 60.6278 46.6633 60.5948 46.6848 60.5993C46.7223 60.6075 46.7119 60.6518 46.724 60.6872C46.7371 60.7243 46.7705 60.7444 46.7592 60.7876C46.7502 60.822 46.7107 60.8196 46.6848 60.8403C46.649 60.8683 46.5967 60.9484 46.6146 61.0375C46.6176 61.0513 46.6277 61.0615 46.6365 61.081C46.6465 61.1035 46.65 61.1246 46.6586 61.1426C46.6926 61.2141 46.7739 61.2768 46.8731 61.2301C47.0169 61.1623 46.9085 60.8259 46.9606 60.6608C46.9749 60.6155 47.0345 60.535 47.0743 60.5118C47.1607 60.4617 47.2746 60.4606 47.3986 60.5205C47.5342 60.6178 47.7231 60.9255 47.5867 61.1426C47.5803 61.1529 47.5664 61.1605 47.5563 61.173C47.524 61.2127 47.4752 61.2586 47.4117 61.2694Z" fill="#0073BD"/>
<path fill-rule="evenodd" clip-rule="evenodd" d="M47.8324 61.738C47.8591 61.7527 47.8497 61.7906 47.8542 61.8168C47.8613 61.8572 47.8771 61.8978 47.8761 61.9393C47.7482 61.9879 47.6009 61.9928 47.4602 62.027C47.4352 62.033 47.4112 62.0487 47.3858 62.0532C47.3516 62.0594 47.3156 62.0539 47.2807 62.0619C47.2504 62.0688 47.2232 62.0834 47.1929 62.0883C47.1595 62.0938 47.1218 62.0897 47.0878 62.0971C47.0677 62.1014 47.0503 62.1182 47.031 62.1235C46.9907 62.1338 46.9444 62.128 46.904 62.1366C46.8606 62.1456 46.8241 62.1682 46.7813 62.1583C46.794 62.1043 46.7309 61.9854 46.7594 61.948C46.7723 61.9314 46.7915 61.9369 46.8339 61.9305C46.8958 61.9215 46.9597 61.9006 47.0353 61.8869C47.1248 61.8707 47.2211 61.8504 47.3025 61.8301C47.3404 61.8203 47.3863 61.8236 47.4207 61.8168C47.4502 61.8107 47.4807 61.7966 47.5127 61.7906C47.5477 61.7838 47.5858 61.7847 47.6178 61.7773C47.6401 61.7722 47.6577 61.755 47.6747 61.7509C47.7306 61.7384 47.7868 61.7501 47.8324 61.738Z" fill="#0073BD"/>
<path fill-rule="evenodd" clip-rule="evenodd" d="M47.9811 62.4125C47.9811 62.5622 48.0155 62.712 48.0294 62.8548C48.0368 62.9326 48.0352 63.0091 48.0467 63.0826C48.0579 63.1525 48.0798 63.2233 48.0598 63.2926C48.0159 63.3043 47.958 63.3034 47.911 63.3014C47.8867 63.1959 47.8936 63.059 47.8496 62.973C47.6574 63.0021 47.4089 63.0293 47.1883 63.0431C47.1059 63.0482 47.0272 63.0889 46.9258 63.0693C46.9269 62.9961 46.9013 62.9279 46.9125 62.8591C46.9627 62.8316 47.066 62.848 47.1446 62.8372C47.186 62.8316 47.2358 62.8107 47.2891 62.8066C47.3565 62.8013 47.4261 62.8046 47.4906 62.7978C47.5568 62.7909 47.6169 62.7708 47.6703 62.7671C47.7158 62.7642 47.8006 62.7771 47.8234 62.754C47.8535 62.7237 47.8307 62.6302 47.8277 62.5876C47.8234 62.5229 47.8137 62.4717 47.8234 62.4166C47.8633 62.4031 47.9389 62.3969 47.9811 62.4125Z" fill="#0073BD"/>
<path fill-rule="evenodd" clip-rule="evenodd" d="M48.095 63.7612C48.1234 63.7858 48.1064 63.8763 48.1036 63.941C48.1027 63.971 48.1091 63.998 48.095 64.0154C48.062 64.0257 48.0323 64.0377 47.9987 64.0504C47.9528 64.0674 47.9231 64.084 47.8672 64.1029C47.8122 64.1215 47.7614 64.1488 47.7053 64.1686C47.6533 64.1869 47.6078 64.1891 47.5869 64.2385C47.598 64.2598 47.6164 64.2735 47.6482 64.2737C47.784 64.3526 47.9268 64.4245 48.0687 64.4972C48.0724 64.5657 48.0761 64.6566 48.0644 64.716C47.8903 64.6302 47.7211 64.5395 47.5652 64.4358C47.5195 64.4409 47.506 64.4051 47.4775 64.3876C47.466 64.3805 47.4488 64.3821 47.4337 64.3745C47.3962 64.3555 47.3642 64.3194 47.3374 64.3131C47.2673 64.2965 47.1679 64.3071 47.0835 64.3C47.0444 64.2967 47.0039 64.2922 46.9696 64.2737C46.9659 64.2115 46.9756 64.1566 46.9827 64.0898C47.0956 64.0566 47.2835 64.1152 47.3943 64.0722C47.4511 64.0338 47.5404 64.0107 47.6133 63.9759C47.6295 63.9683 47.6418 63.9513 47.657 63.9451C47.6678 63.941 47.6854 63.9456 47.6965 63.941C47.7141 63.9331 47.7268 63.9132 47.7448 63.9058C47.7578 63.9003 47.7752 63.9023 47.7885 63.897C47.8508 63.8732 47.9055 63.8247 47.9768 63.8183C48.0069 63.7913 48.0519 63.7796 48.0907 63.7612H48.095Z" fill="#0073BD"/>
<path fill-rule="evenodd" clip-rule="evenodd" d="M30.5491 69.095C30.5418 69.1729 30.4815 69.2302 30.4025 69.2393C30.2795 69.2538 30.18 69.1102 30.1695 69.0164C30.1673 68.9975 30.1687 68.9752 30.1724 68.9641C30.1857 68.9248 30.2703 68.8756 30.3197 68.885C30.3523 68.8824 30.4363 68.9221 30.4596 68.9365C30.4846 68.9524 30.5536 69.0471 30.5491 69.095Z" fill="#0073BD"/>
<path fill-rule="evenodd" clip-rule="evenodd" d="M29.9133 69.2912C29.8866 69.3297 29.835 69.3604 29.7969 69.378C29.7033 69.4219 29.6652 69.3162 29.6386 69.2527C29.6146 69.1949 29.6435 69.0857 29.7176 69.0666C29.7539 69.057 29.791 69.0722 29.8346 69.1021C29.8899 69.1402 29.9221 69.2004 29.9133 69.2912Z" fill="#0073BD"/>
<path fill-rule="evenodd" clip-rule="evenodd" d="M29.3511 69.4457C29.4308 69.4416 29.472 69.4728 29.5396 69.4978C29.607 69.5228 29.6759 69.5441 29.7461 69.5672C29.7787 69.5779 29.8207 69.5754 29.8201 69.5994C29.8195 69.6334 29.7693 69.6231 29.734 69.6242C29.7197 69.6248 29.5554 69.6399 29.5228 69.6489C29.5013 69.6549 29.4667 69.6737 29.4448 69.6864C29.3864 69.7207 29.3309 69.784 29.2823 69.801C29.1786 69.837 29.0684 69.784 29.0693 69.695C29.0703 69.6176 29.1465 69.5787 29.1942 69.5383C29.2547 69.4867 29.2643 69.4558 29.3511 69.4457Z" fill="#0073BD"/>
<path fill-rule="evenodd" clip-rule="evenodd" d="M30.27 70.6649C30.2061 70.7222 30.2681 70.8109 30.2231 70.871C30.1852 70.9212 30.1198 70.9632 30.0588 70.9294C29.9922 70.8923 29.9404 70.7823 29.9057 70.7167C29.822 70.5598 29.674 70.4819 29.5392 70.3717C29.4665 70.3121 29.3885 70.1865 29.4585 70.0871C29.5374 70.0867 29.6667 70.1158 29.7267 70.1607C29.7572 70.1834 29.7744 70.198 29.8033 70.2277C29.8387 70.2639 29.8693 70.3086 29.8988 70.3551C29.9357 70.4133 29.9858 70.4829 30.0549 70.5057C30.0832 70.5149 30.1469 70.5448 30.1739 70.5463C30.2532 70.5506 30.3302 70.4711 30.3255 70.3885C30.3228 70.3375 30.2544 70.2988 30.2212 70.2613C30.1778 70.2131 30.1657 70.1281 30.2007 70.066C30.2532 70.0206 30.3552 70.0167 30.4451 70.0052C30.4773 70.0011 30.5945 69.9868 30.6035 69.9648C30.624 69.9149 30.5457 69.8925 30.5146 69.8763C30.4535 69.8442 30.3862 69.8173 30.3794 69.7415C30.3724 69.6655 30.4156 69.6108 30.4527 69.5471C30.5162 69.5121 30.5494 69.5141 30.6045 69.5463C30.6547 69.5758 30.6738 69.5863 30.7162 69.6254C30.7621 69.6678 30.801 69.7086 30.8471 69.7602C30.8702 69.7862 30.8987 69.8143 30.9184 69.8405C30.9749 69.9155 31.2179 70.2062 31.103 70.2963C31.0622 70.3283 30.929 70.358 30.8561 70.3223C30.8244 70.3068 30.7744 70.2611 30.7445 70.2388C30.7098 70.2129 30.6777 70.1623 30.6193 70.1646C30.5865 70.1662 30.5445 70.1927 30.5408 70.2111C30.5339 70.2445 30.5865 70.2916 30.5967 70.3313C30.6246 70.441 30.5744 70.5211 30.4984 70.57C30.4525 70.5997 30.4335 70.6243 30.3798 70.6335C30.3437 70.6395 30.3058 70.6419 30.27 70.6649Z" fill="#0073BD"/>
<path fill-rule="evenodd" clip-rule="evenodd" d="M32.1243 71.992C32.2044 72.0502 32.3251 72.0385 32.4289 72.0625C32.4754 72.0735 32.5154 72.0993 32.5588 72.1024C32.6028 72.1061 32.6438 72.0973 32.6797 72.0887C32.7274 72.0774 32.826 72.0336 32.8366 72.1061C32.8403 72.1325 32.8094 72.1555 32.8098 72.1735C32.8106 72.2171 32.8647 72.2321 32.913 72.2491C32.9335 72.2565 32.953 72.27 32.9622 72.2716C33.03 72.2823 33.097 72.2577 33.1591 72.2753C33.2109 72.2899 33.2863 72.3337 33.2891 72.3921C33.2941 72.4913 33.3668 72.5226 33.4278 72.5654C33.4977 72.6142 33.5374 72.7711 33.4828 72.8432C33.4184 72.9282 33.2777 72.9647 33.1697 73.0055C33.1326 73.0198 33.0908 73.0372 33.0667 73.0419C33.0245 73.0503 32.9788 73.0413 32.9325 73.0557C32.8718 73.0747 32.8071 73.1521 32.7626 73.1505C32.6248 73.145 32.2433 72.869 32.1706 72.7535C32.153 72.7256 32.1491 72.684 32.1554 72.6445C32.1605 72.6121 32.1687 72.5961 32.1974 72.5773C32.2189 72.5634 32.2451 72.5517 32.2599 72.5472C32.3187 72.5289 32.3916 72.5421 32.4568 72.5332C32.4789 72.53 32.5406 72.5216 32.5555 72.5111C32.5695 72.5009 32.5861 72.4974 32.5865 72.4788C32.5879 72.4122 32.442 72.4693 32.3984 72.4347C32.3732 72.3937 32.3675 72.3507 32.3757 72.296C32.3802 72.2659 32.4013 72.2374 32.3978 72.2151C32.3888 72.1586 32.2624 72.1624 32.2187 72.1665C32.1448 72.1735 32.0518 72.2147 32.0397 72.2745C32.0262 72.3423 32.0544 72.4322 32.0223 72.4941C31.9917 72.5541 31.9098 72.5755 31.8657 72.5037C31.7684 72.3446 31.8518 72.0166 31.9809 71.9029C32.0243 71.8646 32.078 71.8301 32.1509 71.8217C32.3218 71.7892 32.6998 71.9174 32.827 71.8416C32.8165 71.7664 32.2206 71.5898 32.0735 71.5474C31.977 71.5124 31.9747 71.3569 32.0647 71.3245C32.9396 71.4872 33.5 71.9019 33.8488 72.2417C33.888 72.28 33.9154 72.3044 33.9429 72.3489C33.955 72.3687 33.9873 72.4296 33.9834 72.4607C33.9738 72.5416 33.8534 72.541 33.8044 72.5017C33.7231 72.4364 33.6753 72.3489 33.5846 72.2874C33.4576 72.2012 33.3176 72.1196 33.1748 72.0631C33.0181 72.001 32.8876 71.9578 32.6985 71.9426C32.5467 71.9303 32.398 71.9033 32.2451 71.9109C32.1819 71.9143 32.1388 71.9334 32.1243 71.992ZM32.636 72.5146C32.6717 72.5742 32.7221 72.5699 32.8106 72.5722C32.9061 72.5746 33.0052 72.5853 33.0208 72.5042C33.0388 72.4109 32.9245 72.4196 32.837 72.4019C32.7741 72.389 32.7272 72.3655 32.6848 72.371C32.6342 72.3987 32.6299 72.4472 32.636 72.5146ZM33.0392 72.6564C32.9923 72.6715 32.9194 72.6738 32.86 72.6707C32.7608 72.6652 32.6139 72.597 32.5914 72.7029C32.565 72.8268 32.6852 72.8483 32.7741 72.8684C32.7924 72.8727 32.7938 72.8764 32.8061 72.8907C32.8563 72.9477 32.928 72.9956 33.0665 72.9837C33.1039 72.9805 33.1503 72.9569 33.192 72.9428C33.2777 72.9137 33.3354 72.8955 33.3305 72.799C33.3295 72.7805 33.3074 72.7213 33.2898 72.7006C33.281 72.69 33.2572 72.6814 33.2451 72.6693C33.2041 72.6289 33.1953 72.6205 33.1287 72.6295C33.0872 72.6349 33.0673 72.6476 33.0392 72.6564Z" fill="#0073BD"/>
<path fill-rule="evenodd" clip-rule="evenodd" d="M36.0533 72.8213C36.1318 72.8682 36.3428 72.7637 36.3477 72.9004C36.3487 72.9294 36.3024 73.0339 36.2859 73.0675C36.2652 73.1101 36.2223 73.1456 36.2096 73.188C36.1935 73.241 36.1976 73.3035 36.2236 73.3504C36.2766 73.3253 36.3088 73.2638 36.3471 73.2068C36.3879 73.1458 36.4217 73.0968 36.428 73.0038C36.4317 72.9491 36.4807 72.887 36.5335 72.8727C36.5749 72.8616 36.6067 72.8946 36.6454 72.9006C36.871 72.9368 37.0857 72.9221 37.3022 73.0255C37.3387 73.0431 37.3426 73.1011 37.31 73.1263C37.254 73.1695 37.1512 73.2074 37.0688 73.198C37.0377 73.1945 36.8892 73.1062 36.8679 73.1886C36.8638 73.2044 36.9154 73.3556 36.9275 73.3648C36.9666 73.3947 37.0582 73.3877 37.1229 73.4068C37.177 73.4228 37.2172 73.448 37.2583 73.4766C37.287 73.4965 37.32 73.5164 37.326 73.5602C37.3362 73.635 37.2747 73.7534 37.2313 73.8104C37.2055 73.8444 37.1449 73.8835 37.101 73.9171C37.065 73.9448 37.0586 73.9501 37.0146 73.9728C36.9572 74.0023 36.9037 74.0622 36.8232 74.0376C36.7956 74.029 36.7954 74.013 36.7661 74.0003C36.7263 74.0363 36.6898 74.09 36.6671 74.158C36.6313 74.266 36.6013 74.5102 36.4668 74.5243C36.3961 74.4967 36.56 73.9993 36.571 73.9538C36.5841 73.8993 36.5837 73.8421 36.5989 73.7915C36.6091 73.7577 36.6345 73.7077 36.6261 73.6475C36.5987 73.601 36.4852 73.5955 36.4424 73.6242C36.4073 73.6477 36.4135 73.7178 36.3944 73.768C36.3926 73.7729 36.3512 73.8374 36.3451 73.8423C36.3223 73.8599 36.2865 73.8583 36.2484 73.8468C36.2219 73.8145 36.2275 73.7522 36.2213 73.6983C36.2166 73.6586 36.2256 73.5318 36.1908 73.5313C36.1756 73.5311 36.165 73.5594 36.1461 73.5914C36.1218 73.6325 36.0679 73.7208 36.0386 73.7538C36.0177 73.777 35.9734 73.822 35.9509 73.8419C35.9353 73.8558 35.8667 73.8958 35.8437 73.8974C35.7311 73.905 35.7749 73.753 35.8349 73.712C35.8665 73.6901 35.9118 73.692 35.9413 73.6748C35.9794 73.6524 36.0285 73.5924 35.9888 73.5449C35.9423 73.5311 35.8698 73.5598 35.8388 73.5217C35.7987 73.4723 35.8546 73.3859 35.9025 73.3709C35.9577 73.3535 36.0072 73.3279 36.0171 73.2712C36.0285 73.2085 35.974 73.1616 35.9786 73.0948C35.938 73.0643 35.8925 73.0786 35.8526 73.0995C35.8044 73.1249 35.7671 73.1452 35.7352 73.1968C35.6348 73.3599 35.6416 73.5301 35.6252 73.7118C35.6176 73.795 35.6317 73.8989 35.6096 73.9761C35.6034 73.998 35.577 74.0142 35.5696 74.0316C35.4353 73.9552 35.4701 73.6791 35.5067 73.5201C35.5793 73.2032 35.6123 72.8784 35.8511 72.6449C35.946 72.6006 36.089 72.6664 36.0533 72.8213ZM36.3842 73.2206C36.4288 73.1607 36.5044 73.0227 36.5905 73.1048C36.5889 73.1648 36.5499 73.1767 36.5327 73.2234C36.5169 73.2392 36.5069 73.2462 36.4876 73.2578C36.4508 73.2796 36.402 73.3449 36.3666 73.3365C36.3133 73.3238 36.3633 73.2488 36.3842 73.2206ZM36.6476 73.2439C36.6067 73.2753 36.5419 73.3015 36.5094 73.332C36.5186 73.4189 36.6227 73.3908 36.6841 73.3693C36.7042 73.3406 36.7185 73.3056 36.7224 73.258C36.7058 73.2456 36.6603 73.2341 36.6476 73.2439ZM36.7915 73.7962C36.7951 73.8419 36.8738 73.8776 36.9355 73.8661C36.9799 73.8237 37.0648 73.7977 37.059 73.7221C37.0533 73.6471 36.9474 73.6459 36.8787 73.6246C36.8396 73.6579 36.7876 73.743 36.7915 73.7962Z" fill="#0073BD"/>
<path fill-rule="evenodd" clip-rule="evenodd" d="M39.9043 73.3757C39.747 73.3253 40.1184 73.0612 40.0522 72.9447C39.9449 72.9594 39.8472 73.0235 39.7607 73.0764C39.762 73.1567 39.7519 73.2306 39.7122 73.2814C39.681 73.321 39.664 73.3292 39.6188 73.2915C39.6063 73.2814 39.5995 73.2614 39.5802 73.2579C39.5257 73.2481 39.5022 73.3489 39.4538 73.3452C39.4061 73.3415 39.3922 73.2772 39.3961 73.2225C39.401 73.1516 39.487 73.0731 39.5483 73.0637C39.597 73.009 39.535 72.9229 39.5243 72.815C39.5153 72.7267 39.5276 72.6111 39.5596 72.5636C39.5968 72.5083 39.6503 72.5025 39.6913 72.5683C39.7046 72.5898 39.7236 72.6287 39.7261 72.6478C39.7398 72.7488 39.695 72.9664 39.7724 72.9803C39.8355 72.9914 40.0775 72.8516 40.1229 72.8141C40.242 72.7363 40.3606 72.489 40.4712 72.4595C40.5294 72.4624 40.5458 72.5333 40.5491 72.5908C40.5568 72.7201 40.4806 72.8299 40.3778 72.8736C40.1485 72.9713 40.009 73.3015 39.9043 73.3757Z" fill="#0073BD"/>
<path fill-rule="evenodd" clip-rule="evenodd" d="M40.6849 74.043C40.7818 73.9982 41.0037 73.9088 41.0404 73.7937C41.0627 73.7243 41.0682 73.6405 41.0742 73.5612C41.1248 73.5356 41.1465 73.6001 41.177 73.6245C41.1946 73.6804 41.228 73.7195 41.2256 73.7964C41.0848 74.0375 40.8044 74.2854 40.4333 74.2704C40.3383 74.2667 40.2608 74.2729 40.1564 74.1641C40.1187 74.0934 40.0965 74.0002 40.1144 73.8978C40.1301 73.8078 40.1812 73.6462 40.2594 73.5954C40.3348 73.5466 40.4501 73.5429 40.4926 73.4503C40.4985 73.4372 40.4903 73.4172 40.4919 73.4008C40.4942 73.3774 40.501 73.3559 40.4942 73.333C40.4303 73.2924 40.3444 73.3381 40.2865 73.3666C40.224 73.3977 40.166 73.4266 40.1138 73.4753C40.0941 73.4934 40.067 73.5167 40.0591 73.5282C39.9587 73.6775 39.8691 74.069 39.8507 74.2463C39.8433 74.3184 39.864 74.3858 39.836 74.4388C39.8032 74.4706 39.7636 74.5087 39.7134 74.4849C39.6958 74.4755 39.6501 74.4079 39.627 74.3661C39.6045 74.3253 39.6196 74.2983 39.6131 74.2561C39.6026 74.1868 39.5381 74.1633 39.5055 74.1282C39.4682 74.0539 39.4766 73.9986 39.4776 73.9158C39.4785 73.8339 39.4756 73.7949 39.4967 73.7326C39.5248 73.6503 39.5242 73.6185 39.5371 73.5413C39.5489 73.4706 39.6317 73.4258 39.6885 73.4274C39.7186 73.4579 39.7122 73.5347 39.6946 73.5747C39.6868 73.5919 39.6038 73.7007 39.5899 73.7038C39.5772 73.7363 39.5428 73.7822 39.5489 73.831C39.5543 73.875 39.6233 73.8957 39.635 73.9443C39.6493 74.0027 39.6505 74.2215 39.7274 74.228C39.7833 74.2329 39.7843 74.1621 39.7981 74.1067C39.845 73.9211 39.9157 73.7494 39.9704 73.571C39.9968 73.4614 40.0865 73.2654 40.1857 73.215C40.3178 73.1482 40.5757 73.0052 40.6743 73.1146C40.7011 73.1439 40.7064 73.1932 40.6972 73.2531C40.689 73.3057 40.6464 73.3557 40.6564 73.4034C40.664 73.4389 40.7062 73.4383 40.7165 73.4653C40.732 73.5053 40.645 73.5716 40.5991 73.5895C40.4768 73.6378 40.2502 73.6779 40.2457 73.8752C40.2449 73.9062 40.2668 73.9578 40.2809 73.982C40.2996 74.0145 40.3457 74.0508 40.3752 74.0635C40.4749 74.1069 40.5915 74.074 40.6849 74.043Z" fill="#0073BD"/>
<path fill-rule="evenodd" clip-rule="evenodd" d="M43.211 71.2145C43.2341 71.2549 43.2181 71.3786 43.1923 71.4485C43.1798 71.4823 43.1622 71.4854 43.1809 71.52C43.1893 71.5357 43.2011 71.5484 43.2167 71.5491C43.2472 71.5503 43.3146 71.4556 43.347 71.4389C43.3986 71.4126 43.4355 71.4218 43.4812 71.4431C43.5435 71.4722 43.5519 71.5491 43.5414 71.6154C43.5367 71.6445 43.5334 71.688 43.5226 71.7138C43.4671 71.8467 43.2186 71.9291 43.221 72.0768C43.2218 72.1104 43.2437 72.1417 43.2448 72.1737C43.2517 72.354 43.1268 72.8635 43.0311 73.1298C43.0055 73.2003 42.9817 73.2863 42.8901 73.2886C42.8354 73.29 42.7701 73.2183 42.7676 73.1765C42.7644 73.1241 42.8551 73.0554 42.8879 72.9657C42.8967 72.9413 42.9063 72.9081 42.9154 72.8696C42.9537 72.7103 42.986 72.4613 42.943 72.3634C42.934 72.3425 42.9229 72.3534 42.9053 72.362C42.8529 72.3872 42.818 72.432 42.7808 72.4681C42.7523 72.4956 42.7078 72.5341 42.672 72.5474C42.4974 72.6131 42.5241 72.3239 42.5925 72.2333C42.6095 72.211 42.6812 72.1741 42.7097 72.1503C42.7553 72.1122 42.7943 72.0715 42.835 72.0119C42.8508 71.9889 42.8869 71.9479 42.892 71.9289C42.9106 71.8617 42.8723 71.7632 42.8693 71.673C42.8652 71.546 42.8678 71.3768 42.9442 71.2661C42.9871 71.2033 43.1591 71.1232 43.211 71.2145Z" fill="#0073BD"/>
<path fill-rule="evenodd" clip-rule="evenodd" d="M44.535 72.1074C44.5354 72.1363 44.523 72.1568 44.5084 72.1812C44.4723 72.241 44.4236 72.2844 44.3191 72.3178C44.2193 72.3322 44.0956 72.3248 43.9921 72.3324C43.8289 72.3447 43.6525 72.3461 43.5113 72.2994C43.4742 72.2871 43.4277 72.265 43.3913 72.2465C43.3466 72.2238 43.313 72.1894 43.313 72.1599C43.313 72.1064 43.382 72.0646 43.4288 72.0562C43.48 72.047 43.5574 72.049 43.6097 72.0646C43.7121 72.0951 43.7412 72.0976 43.8526 72.0933C44.0354 72.0865 44.2015 72.0413 44.3568 72.0064C44.382 72.0009 44.4054 72.0062 44.4291 72.0154C44.4838 72.0368 44.534 72.0408 44.535 72.1074Z" fill="#0073BD"/>
<path fill-rule="evenodd" clip-rule="evenodd" d="M45.436 69.1619C45.4583 69.1574 45.5001 69.0791 45.5161 69.0379C45.5267 69.0103 45.5454 69.0015 45.5694 68.9834C45.5993 68.9609 45.6308 68.94 45.671 68.9289C45.7375 68.9107 45.7636 68.9183 45.8019 68.9726C45.8449 69.0338 45.8736 69.1205 45.8619 69.2024C45.8498 69.287 45.7767 69.3204 45.696 69.3229C45.3905 69.3329 45.0379 69.8986 44.8899 70.0993C44.8639 70.1346 44.8279 70.1704 44.8348 70.2382C44.8404 70.2935 44.8822 70.3261 44.9065 70.3675C44.925 70.3993 44.9486 70.4617 44.9451 70.4966C44.9418 70.5326 44.8947 70.5912 44.8359 70.5767C44.7769 70.5623 44.7256 70.4669 44.6943 70.4187C44.6711 70.3825 44.6152 70.3112 44.605 70.2708C44.5634 70.1083 44.6972 70.0039 44.7625 69.9195C44.8656 69.7861 45.1729 69.5159 45.1801 69.3651C45.1832 69.3026 45.158 69.1875 45.1102 69.1826C45.0625 69.1782 45.0166 69.2551 45.0119 69.3073C45.0072 69.3565 45.0353 69.3934 45.0228 69.4395C45.0164 69.4638 44.9922 69.496 44.9713 69.5081C44.9451 69.5237 44.916 69.5224 44.8879 69.5208C44.8246 69.5177 44.7889 69.5577 44.7316 69.5626C44.6359 69.6609 44.7562 69.8572 44.6314 69.9068C44.5761 69.9287 44.5429 69.9031 44.5058 69.8721C44.4661 69.8393 44.4249 69.8012 44.4388 69.7162C44.4499 69.6468 44.5193 69.5802 44.6162 69.5896C44.6586 69.5675 44.6398 69.5159 44.6523 69.4765C44.6605 69.4507 44.6851 69.4161 44.7002 69.3944C44.7303 69.3516 44.7732 69.303 44.8193 69.2926C44.8463 69.2866 44.8774 69.2954 44.9076 69.2821C44.9611 69.2586 45.0191 69.1578 45.0345 69.0676C45.0521 68.9644 45.1914 68.8527 45.2997 68.8941C45.3217 68.9025 45.3671 68.9336 45.3799 68.9582C45.4124 69.0201 45.3725 69.1231 45.436 69.1619Z" fill="#0073BD"/>
<path fill-rule="evenodd" clip-rule="evenodd" d="M46.108 69.6089C46.1776 69.6458 46.1471 69.7838 46.1092 69.8551C46.0756 69.9187 46.0051 69.9684 45.9599 70.0352C45.9428 70.0608 45.9318 70.0895 45.9342 70.1135C45.9361 70.1305 45.9453 70.1383 45.956 70.1475C45.9943 70.1799 46.0369 70.2655 46.0492 70.3161C46.0545 70.337 46.0567 70.3605 46.0609 70.3987C46.0748 70.5232 46.1139 70.7008 46.0113 70.7842C45.9484 70.7994 45.8074 70.7396 45.8138 70.6945C45.8179 70.6656 45.8566 70.656 45.8734 70.6435C45.9289 70.6023 45.9412 70.5658 45.9168 70.4736C45.9101 70.4482 45.8959 70.4093 45.8775 70.3757C45.8632 70.3489 45.8107 70.2725 45.7636 70.2798C45.7529 70.2813 45.7322 70.3007 45.7093 70.3265C45.6235 70.4239 45.5815 70.5449 45.4971 70.641C45.4723 70.6695 45.4397 70.6955 45.4012 70.6906C45.3725 70.6871 45.3274 70.6416 45.3264 70.605C45.3242 70.5316 45.485 70.2425 45.5261 70.1979C45.5479 70.1745 45.5767 70.1729 45.5776 70.1334C45.5786 70.0842 45.5089 70.0379 45.4749 69.9897C45.3678 70.0674 45.3225 70.2567 45.168 70.2255C45.0775 70.2073 45.1062 70.061 45.1402 70.0057C45.2191 69.8775 45.2608 69.825 45.3563 69.7179C45.4049 69.6628 45.5079 69.5249 45.5917 69.5794C45.6226 69.5993 45.655 69.6335 45.6624 69.6525C45.6747 69.6831 45.6784 69.7324 45.679 69.7628C45.6796 69.7953 45.6673 69.8179 45.6751 69.8418C45.7062 69.9361 45.8037 69.8355 45.8402 69.7898C45.9135 69.6976 45.9693 69.5405 46.108 69.6089Z" fill="#0073BD"/>
<path fill-rule="evenodd" clip-rule="evenodd" d="M55.984 56.9673C56.3036 57.26 56.3527 57.7175 56.13 58.0945C55.7814 58.6855 54.8177 58.6415 54.3694 58.3741C54.2789 58.3202 54.185 58.2401 54.1486 58.1862C54.0209 57.9969 54.0873 57.4598 54.293 57.2736C54.3911 57.1218 54.847 56.8849 54.9893 56.8313C55.1409 56.7743 55.7887 56.7876 55.984 56.9673Z" fill="#231916"/>
<path fill-rule="evenodd" clip-rule="evenodd" d="M54.7204 60.4205C54.8001 60.667 54.7618 60.9956 54.7128 61.2226C54.5923 61.7811 54.0007 61.5954 53.6325 61.4994C53.2978 61.4119 52.9143 60.9202 53.0765 60.5302C53.1566 60.3376 53.3478 60.2263 53.6252 60.1345C53.9767 60.0182 54.35 60.0778 54.7204 60.4205Z" fill="#231916"/>
<path fill-rule="evenodd" clip-rule="evenodd" d="M53.5195 63.4092C53.7678 63.0447 54.0435 62.9683 54.3793 62.7544C54.7144 62.5415 55.0392 62.31 55.3755 62.0783C55.5314 61.9708 55.6613 61.7776 55.7652 61.8604C55.9121 61.9769 55.6986 62.1632 55.5861 62.3225C55.5401 62.3873 55.0572 63.1604 54.9881 63.3338C54.9427 63.4485 54.9091 63.6632 54.8925 63.8023C54.8482 64.1745 54.9414 64.6297 54.8527 64.9004C54.6642 65.4767 54.0626 65.785 53.6745 65.4822C53.3365 65.2189 53.4209 64.7539 53.4019 64.4091C53.3779 63.9699 53.2742 63.8256 53.5195 63.4092Z" fill="#231916"/>
<path fill-rule="evenodd" clip-rule="evenodd" d="M61.9555 63.4455C61.9932 63.918 62.5914 63.9423 62.7049 64.3416C62.7999 64.6764 62.7653 65.1041 62.4127 65.2582C62.0264 65.428 61.3698 65.2875 60.9643 65.2217C59.9943 65.0646 59.1578 65.4549 58.2216 65.6794C57.7172 65.8005 56.9033 65.7218 56.6994 65.0826C56.9623 64.7331 57.5232 64.2627 57.9202 64.1491C58.1233 64.0905 58.245 64.0644 58.4717 64.0362C58.7489 64.002 59.0474 64.0161 59.3518 64.0421C59.7311 64.0747 60.2043 64.087 60.536 63.8588C60.672 63.7653 61.0152 63.5851 61.1121 63.4711C61.3968 63.138 61.3042 62.5327 60.9254 62.2768C60.6921 62.1192 60.2934 62.2895 60.0166 62.311C59.6587 62.3397 59.2457 62.1092 59.0886 61.7474C59.0654 61.3651 59.3889 60.9023 59.6389 60.4692C59.7288 60.3135 60.0584 59.7514 59.9916 59.6373C59.8411 59.3802 59.4801 59.6502 59.3053 59.7321C58.9593 59.8942 58.6162 60.0993 58.2597 59.8764C57.9022 59.6529 57.8049 59.2802 57.6502 58.9045C57.708 58.5068 57.8278 58.3685 58.1542 58.2337C58.4515 58.111 58.5629 58.0621 58.8751 58.0066C59.215 57.9459 59.5254 57.9125 59.9064 57.8822C60.0978 57.8672 60.3172 57.8359 60.4987 57.8367C61.0172 57.839 63.1077 57.7431 63.1199 58.5494C63.1245 58.836 62.809 59.5213 62.408 59.7223C62.2343 59.8094 61.866 59.877 61.6689 59.9335C61.438 59.9995 61.1078 59.9708 60.9236 60.2369C60.8205 60.3861 60.7968 60.6589 60.8648 60.737C60.9887 60.8788 61.3716 60.805 61.5798 60.8931C62.1569 61.1371 62.3402 61.6261 62.3019 62.1231C62.2786 62.4249 62.324 62.59 62.1841 62.8576C62.0903 63.0368 61.9733 63.2108 61.9555 63.4455Z" fill="#231916"/>
<path fill-rule="evenodd" clip-rule="evenodd" d="M67.771 61.6123C68.2907 61.656 68.8023 61.2737 69.3351 61.0994C69.574 61.0215 69.8241 61.0277 70.029 60.9244C70.2363 60.8205 70.3973 60.6691 70.5354 60.5325C70.719 60.3504 71.0439 59.8847 71.2885 60.1832C71.3774 60.2916 71.3016 60.4796 71.3518 60.5587C71.4752 60.7535 71.7585 60.673 72.0228 60.6189C72.1356 60.596 72.2602 60.6028 72.3057 60.5845C72.641 60.4487 72.8748 60.1547 73.203 60.0642C73.4763 59.9892 73.9344 59.98 74.1065 60.235C74.3998 60.6687 74.8118 60.6108 75.2035 60.6366C75.6509 60.6657 76.2586 61.2649 76.2092 61.7385C76.1508 62.2968 75.6169 62.8442 75.2428 63.3238C75.114 63.4885 74.9734 63.6801 74.8782 63.7673C74.7112 63.9198 74.4811 64.0048 74.3117 64.1963C74.0896 64.4469 74.0102 64.9719 73.8045 65.0859C73.1704 65.438 70.6995 65.2364 70.0577 64.9144C69.9022 64.8361 69.7707 64.6601 69.691 64.4647C69.6256 64.3051 69.6186 64.2102 69.6967 64.0488C69.7555 63.9269 69.8417 63.8028 69.8958 63.7417C70.1112 63.499 70.4748 63.3599 70.744 63.1411C70.8352 63.0669 71.0902 62.8608 71.1281 62.7731C71.1638 62.6895 71.2289 62.627 71.1803 62.543C71.0046 62.2398 70.5039 62.8944 70.2128 62.8573C69.9876 62.741 69.8448 62.5635 69.7319 62.2945C69.6703 62.1477 69.6883 61.9612 69.6115 61.8701C69.4167 61.6402 68.857 62.0026 68.6722 62.1401C68.3587 62.3732 68.0527 62.8122 68.1618 63.115C68.2848 63.4572 68.6568 63.7852 68.6824 64.1513C68.7072 64.5044 68.3979 64.8244 68.0029 64.6214C67.1306 64.1705 66.6116 62.4662 66.8821 61.6025C66.9734 61.3116 67.1207 61.0098 67.4256 60.773C68.1067 60.1607 70.1585 59.7067 70.5246 59.0189C70.2718 58.7075 67.1076 59.5387 66.3293 59.7493C65.7993 59.8556 65.365 59.1621 65.6821 58.7702C70.0636 57.1157 73.7182 57.4534 76.2149 58.0317C76.4962 58.097 76.6865 58.1313 76.9316 58.2573C77.0399 58.3126 77.3515 58.5002 77.4195 58.6504C77.5957 59.0396 77.0526 59.366 76.725 59.323C76.1811 59.2513 75.7269 58.9876 75.1505 58.9577C74.3441 58.9169 73.4912 58.9313 72.6945 59.0663C71.8189 59.2144 71.1144 59.3766 70.2212 59.8233C69.5043 60.182 68.7615 60.4659 68.0934 60.9181C67.8179 61.1045 67.6765 61.3098 67.771 61.6123ZM71.4997 62.5689C71.2891 62.2823 71.176 62.052 71.3281 61.7894C71.5044 61.6488 71.779 61.6269 72.0979 61.5126C72.5402 61.3548 73.0303 61.0021 73.205 61.4726C73.3558 61.8795 72.8811 62.102 72.4436 62.3519C72.0391 62.5834 71.8242 62.7397 71.4997 62.5689ZM73.7023 62.1083C73.5322 62.303 73.2106 62.5123 72.935 62.66C72.4733 62.9069 71.6259 63.0001 71.8134 63.5379C72.0332 64.1678 72.6322 63.937 73.0874 63.7858C73.1817 63.7542 73.1977 63.7671 73.2923 63.797C73.6732 63.9175 74.1273 63.937 74.7186 63.5053C74.8772 63.3896 75.023 63.157 75.1715 62.9802C75.4786 62.6143 75.688 62.3757 75.4026 61.9547C75.3477 61.874 75.0869 61.6675 74.9515 61.622C74.8833 61.599 74.7526 61.6248 74.6645 61.6041C74.3699 61.5333 74.3076 61.5193 74.0311 61.742C73.8604 61.8793 73.8051 61.9911 73.7023 62.1083Z" fill="#231916"/>
<path fill-rule="evenodd" clip-rule="evenodd" d="M82.0713 58.2662C82.5394 58.4221 83.5287 57.6262 83.7125 58.3406C83.7516 58.4914 83.6295 59.0959 83.5822 59.2908C83.5228 59.5393 83.338 59.7769 83.3202 60.014C83.2972 60.3127 83.3919 60.6365 83.5824 60.8525C83.8325 60.6593 83.9304 60.2977 84.0663 59.9527C84.2105 59.5856 84.3314 59.2883 84.2558 58.7903C84.2115 58.4986 84.398 58.1144 84.6583 57.9786C84.864 57.8715 85.0699 58.0079 85.2805 57.9958C86.5097 57.9229 87.6225 57.5961 88.8825 57.8887C89.0955 57.9382 89.1834 58.239 89.0406 58.4101C88.7956 58.7034 88.2994 59.021 87.8547 59.0681C87.6869 59.0861 86.8025 58.7938 86.7863 59.2519C86.7832 59.3402 87.2306 60.077 87.3048 60.1111C87.5455 60.2221 88.0194 60.0799 88.3818 60.1047C88.6858 60.1258 88.9271 60.2121 89.1754 60.3141C89.35 60.3856 89.5469 60.4522 89.6292 60.6755C89.7702 61.058 89.5841 61.7522 89.4223 62.1034C89.3262 62.3125 89.0519 62.5873 88.8599 62.8159C88.7026 63.0034 88.6754 63.0396 88.4705 63.209C88.2021 63.4311 87.9895 63.8091 87.5377 63.7726C87.3826 63.7599 87.3628 63.6759 87.194 63.643C87.0262 63.8783 86.8959 64.2043 86.8561 64.588C86.7935 65.1979 86.9186 66.5183 86.2282 66.7491C85.8238 66.6866 86.1084 63.8781 86.1127 63.6249C86.1184 63.3232 86.0498 63.0214 86.0713 62.7381C86.0856 62.5484 86.1604 62.2556 86.0467 61.9495C85.8482 61.7363 85.2447 61.8395 85.0535 62.0397C84.896 62.2048 85.0099 62.5656 84.9675 62.8526C84.9636 62.8804 84.8212 63.2678 84.7942 63.3004C84.6946 63.4203 84.5049 63.4532 84.2908 63.4366C84.113 63.2982 84.0702 62.9632 83.9751 62.6866C83.9048 62.4838 83.804 61.8057 83.6199 61.843C83.5404 61.8592 83.518 62.0214 83.4552 62.212C83.3753 62.4564 83.1939 62.9835 83.078 63.1914C82.9958 63.3377 82.8137 63.6262 82.7187 63.7565C82.6523 63.8486 82.3386 64.1391 82.219 64.1738C81.6355 64.3442 81.689 63.4932 81.9568 63.2074C82.0991 63.056 82.339 63.0144 82.4741 62.889C82.6484 62.7268 82.8373 62.3537 82.573 62.1499C82.3124 62.1302 81.9641 62.3662 81.7566 62.2019C81.4884 61.9889 81.6822 61.4683 81.916 61.3337C82.1868 61.1782 82.4177 60.9858 82.4046 60.6763C82.3905 60.334 82.0502 60.1496 81.9967 59.7931C81.747 59.6792 81.5239 59.8077 81.3387 59.9634C81.1137 60.1527 80.941 60.3038 80.8339 60.612C80.4955 61.5875 80.729 62.4754 80.8531 63.4502C80.9101 63.8982 81.1047 64.4284 81.0787 64.8597C81.0715 64.9832 80.9505 65.0989 80.9322 65.1993C80.1373 64.9527 79.9991 63.4584 80.0064 62.5803C80.0204 60.8269 79.8167 59.0791 80.8023 57.5719C81.2508 57.2294 82.0795 57.4093 82.0713 58.2662ZM84.2779 59.9828C84.442 59.6159 84.6798 58.8026 85.2289 59.1334C85.2905 59.4506 85.098 59.5602 85.0621 59.8249C84.9974 59.9269 84.9535 59.9754 84.8646 60.0586C84.6966 60.2157 84.5157 60.6165 84.3201 60.6136C84.0237 60.6091 84.2003 60.1555 84.2779 59.9828ZM85.6902 59.8003C85.5118 60.0127 85.202 60.2252 85.0666 60.4241C85.216 60.8705 85.731 60.6021 86.0289 60.4173C86.1008 60.243 86.1362 60.0412 86.101 59.7866C85.9992 59.7409 85.7464 59.7337 85.6902 59.8003ZM87.0911 62.5395C87.1624 62.7758 87.6184 62.8724 87.9288 62.7391C88.114 62.4648 88.5305 62.2294 88.4127 61.8389C88.2945 61.4501 87.7362 61.567 87.3495 61.5349C87.1827 61.7551 87.0083 62.2642 87.0911 62.5395Z" fill="#231916"/>
<path fill-rule="evenodd" clip-rule="evenodd" d="M95.4088 60.513C94.7014 60.0555 96.883 59.2496 96.7124 58.5881C96.1646 58.518 95.5977 58.7026 95.1013 58.8475C95.0007 59.2453 94.8516 59.5948 94.5885 59.7921C94.3822 59.9464 94.287 59.963 94.1153 59.7183C94.0676 59.6505 94.0608 59.5446 93.97 59.5014C93.7144 59.3797 93.4646 59.8454 93.2313 59.7624C93.0014 59.6804 93.0186 59.3453 93.1104 59.0806C93.2292 58.7381 93.7568 58.4666 94.0717 58.5027C94.3839 58.2978 94.1948 57.7901 94.2853 57.2448C94.3593 56.7976 94.574 56.2453 94.7948 56.0539C95.0521 55.831 95.3226 55.8737 95.4369 56.2533C95.4736 56.376 95.5154 56.5931 95.5026 56.691C95.4346 57.2061 94.9245 58.2191 95.2867 58.3902C95.5828 58.5299 96.9607 58.164 97.2348 58.039C97.926 57.8145 98.8393 56.7545 99.4236 56.7572C99.7063 56.8494 99.692 57.22 99.6319 57.5087C99.4975 58.155 98.9751 58.594 98.4105 58.6725C97.1518 58.8475 96.0236 60.2879 95.4088 60.513Z" fill="#231916"/>
<path fill-rule="evenodd" clip-rule="evenodd" d="M98.3614 64.841C98.898 64.7508 100.11 64.6054 100.445 64.0875C100.647 63.7761 100.786 63.3704 100.922 62.9879C101.205 62.9302 101.225 63.2756 101.343 63.4372C101.356 63.7349 101.468 63.9723 101.353 64.3485C100.338 65.3472 98.6269 66.1949 96.819 65.6254C96.3558 65.4795 95.9657 65.4078 95.5974 64.7326C95.5054 64.3333 95.5206 63.8459 95.7447 63.3649C95.942 62.9423 96.4101 62.2146 96.8634 62.0693C97.2992 61.9296 97.8718 62.0652 98.2049 61.6649C98.2514 61.6088 98.2379 61.4996 98.2676 61.4211C98.3102 61.3081 98.3723 61.212 98.3696 61.0901C98.109 60.8047 97.6251 60.9149 97.3019 60.979C96.9522 61.0483 96.6285 61.1134 96.306 61.2826C96.1851 61.3459 96.021 61.4242 95.9663 61.4713C95.2723 62.0716 94.3084 63.8803 93.982 64.7305C93.8492 65.0747 93.8615 65.4341 93.6524 65.6582C93.4483 65.7717 93.2027 65.9052 92.9872 65.7209C92.9128 65.6518 92.7774 65.2583 92.72 65.021C92.6643 64.7908 92.7745 64.6769 92.7987 64.4603C92.8387 64.1061 92.5525 63.9045 92.4396 63.6863C92.3546 63.2713 92.4701 63.0109 92.5856 62.6036C92.6993 62.2025 92.7366 62.0068 92.9241 61.7274C93.1714 61.3597 93.2113 61.2023 93.3777 60.8385C93.5299 60.5066 93.998 60.396 94.2762 60.48C94.3827 60.6703 94.2481 61.0401 94.1088 61.2128C94.0474 61.2884 93.4936 61.7135 93.4209 61.7102C93.3152 61.8526 93.0839 62.0333 93.0493 62.2814C93.0179 62.5051 93.3295 62.6997 93.3225 62.9552C93.3146 63.2616 93.0283 64.3401 93.3992 64.4753C93.6677 64.5736 93.7665 64.2264 93.9097 63.9717C94.3878 63.1207 94.9647 62.3693 95.4728 61.5633C95.7477 61.0597 96.4513 60.213 97.0077 60.0979C97.747 59.9449 99.2075 59.5849 99.548 60.2546C99.6398 60.4351 99.6011 60.6846 99.4751 60.968C99.3655 61.2154 99.0883 61.405 99.0742 61.6528C99.0637 61.8387 99.2729 61.8921 99.2878 62.0382C99.3102 62.2566 98.7937 62.4659 98.5436 62.4934C97.8771 62.5674 96.7075 62.4621 96.422 63.4286C96.3771 63.581 96.416 63.864 96.4527 64.002C96.5017 64.1858 96.6807 64.4277 96.8085 64.5298C97.2418 64.876 97.8605 64.8699 98.3614 64.841Z" fill="#231916"/>
<path fill-rule="evenodd" clip-rule="evenodd" d="M111.803 57.3953C111.774 57.6412 111.315 58.1216 110.984 58.3402C110.824 58.4461 110.738 58.4033 110.709 58.612C110.696 58.7047 110.706 58.7962 110.771 58.8489C110.897 58.9501 111.486 58.7567 111.678 58.788C111.983 58.8372 112.112 58.9931 112.241 59.2295C112.416 59.5512 112.209 59.9072 111.955 60.1584C111.843 60.2692 111.691 60.445 111.564 60.5212C110.905 60.917 109.578 60.4853 109.123 61.1274C109.02 61.2726 109.015 61.4767 108.918 61.6181C108.379 62.4135 106.234 64.2047 104.982 65.0442C104.65 65.2673 104.276 65.5609 103.876 65.2813C103.637 65.1141 103.583 64.6007 103.705 64.413C103.856 64.1789 104.462 64.1692 104.886 63.8878C105.002 63.8113 105.147 63.6991 105.309 63.563C105.974 63.0013 106.9 62.0331 107.025 61.4785C107.052 61.3599 106.97 61.372 106.867 61.3528C106.562 61.2962 106.271 61.378 105.998 61.415C105.79 61.4435 105.476 61.4677 105.281 61.412C104.325 61.1421 105.352 59.9859 105.932 59.813C106.075 59.7702 106.5 59.8392 106.697 59.8271C107.013 59.8077 107.309 59.756 107.672 59.6292C107.811 59.58 108.096 59.518 108.178 59.4536C108.47 59.2225 108.617 58.679 108.889 58.2832C109.273 57.726 109.818 57.0079 110.496 56.7732C110.878 56.641 111.869 56.8398 111.803 57.3953Z" fill="#231916"/>
<path fill-rule="evenodd" clip-rule="evenodd" d="M114.664 65.409C114.574 65.5348 114.456 65.5834 114.316 65.6413C113.972 65.7835 113.626 65.8165 113.072 65.6295C112.599 65.3766 112.092 64.9544 111.623 64.6604C110.885 64.197 110.124 63.6462 109.665 62.9996C109.545 62.8296 109.415 62.5878 109.317 62.393C109.197 62.1553 109.162 61.9009 109.255 61.7739C109.423 61.545 109.851 61.5833 110.079 61.6958C110.327 61.8181 110.653 62.0699 110.829 62.303C111.172 62.7564 111.289 62.8593 111.78 63.193C112.587 63.7412 113.441 64.0719 114.218 64.4128C114.343 64.4681 114.427 64.5662 114.499 64.6797C114.667 64.944 114.87 65.1198 114.664 65.409Z" fill="#231916"/>
<path fill-rule="evenodd" clip-rule="evenodd" d="M124.882 58.4627C124.983 58.531 125.439 58.398 125.657 58.3042C125.802 58.2413 125.906 58.2796 126.066 58.304C126.264 58.3337 126.461 58.3757 126.655 58.4886C126.974 58.674 127.043 58.803 126.978 59.1529C126.905 59.5467 126.681 59.9816 126.324 60.2434C125.955 60.5141 125.554 60.36 125.241 60.0613C124.057 58.9294 120.573 59.7006 119.249 59.8862C119.017 59.9191 118.744 59.9159 118.512 60.1965C118.321 60.4254 118.353 60.7067 118.285 60.9543C118.233 61.1449 118.083 61.4694 117.937 61.587C117.786 61.7086 117.386 61.749 117.22 61.4696C117.055 61.1903 117.227 60.6354 117.295 60.335C117.345 60.1109 117.409 59.6297 117.525 59.4389C117.992 58.6703 118.892 58.7916 119.46 58.7252C120.356 58.6205 122.542 58.7823 123.146 58.246C123.397 58.0225 123.742 57.4948 123.581 57.2938C123.42 57.0944 122.954 57.2073 122.736 57.3843C122.531 57.5517 122.496 57.7975 122.272 57.9225C122.154 57.9885 121.94 58.0168 121.816 57.9827C121.658 57.9399 121.555 57.8236 121.454 57.7103C121.23 57.4569 120.941 57.4702 120.709 57.2688C119.975 57.2713 119.675 58.4675 119.017 58.1757C118.726 58.0463 118.7 57.8236 118.679 57.5652C118.656 57.2905 118.647 56.99 119.024 56.7243C119.331 56.5077 119.846 56.5221 120.172 56.9289C120.416 57.0084 120.544 56.7433 120.741 56.6433C120.871 56.5776 121.096 56.5423 121.235 56.519C121.511 56.4731 121.858 56.4555 122.071 56.5931C122.195 56.6735 122.278 56.8255 122.442 56.8918C122.732 57.0084 123.336 56.8519 123.739 56.5727C124.199 56.2541 125.149 56.3674 125.396 56.9371C125.446 57.0525 125.498 57.3432 125.452 57.4845C125.336 57.8408 124.794 58.0741 124.882 58.4627Z" fill="#231916"/>
<path fill-rule="evenodd" clip-rule="evenodd" d="M125.691 62.7092C125.811 63.1142 125.169 63.5131 124.754 63.6366C124.385 63.7468 123.93 63.663 123.506 63.7403C123.343 63.77 123.192 63.8357 123.109 63.9357C123.051 64.0064 123.056 64.0713 123.061 64.1463C123.081 64.4145 122.912 64.8984 122.766 65.135C122.705 65.2329 122.624 65.3286 122.493 65.489C122.069 66.0083 121.536 66.8243 120.833 66.7442C120.538 66.56 120.239 65.7973 120.435 65.6523C120.561 65.5597 120.743 65.6721 120.853 65.6893C121.219 65.7469 121.405 65.6572 121.667 65.2177C121.739 65.0975 121.834 64.8967 121.894 64.7009C121.942 64.5458 122.037 64.0592 121.834 63.906C121.787 63.8705 121.635 63.864 121.452 63.8738C120.757 63.9099 120.137 64.2032 119.453 64.2409C119.251 64.252 119.029 64.2248 118.903 64.0596C118.81 63.9365 118.815 63.5929 118.951 63.4516C119.224 63.1689 120.932 62.6997 121.258 62.6899C121.429 62.6852 121.543 62.7899 121.697 62.6456C121.889 62.4654 121.804 62.0247 121.861 61.7133C121.163 61.5953 120.268 62.132 119.809 61.424C119.539 61.0088 120.207 60.5712 120.546 60.4941C121.332 60.3151 121.688 60.2778 122.457 60.2413C122.849 60.2225 123.763 60.099 123.869 60.6238C123.908 60.8164 123.898 61.0684 123.855 61.1675C123.783 61.3292 123.609 61.5281 123.494 61.6447C123.372 61.7692 123.239 61.8071 123.178 61.9262C122.934 62.3986 123.684 62.3945 123.995 62.3625C124.622 62.2976 125.432 61.9219 125.691 62.7092Z" fill="#231916"/>
<path fill-rule="evenodd" clip-rule="evenodd" d="M65.0293 70.4933L65.3573 70.4483C65.3661 70.6584 65.4054 70.8019 65.4755 70.8795C65.5455 70.9571 65.6424 70.9957 65.766 70.9957C65.8573 70.9957 65.936 70.9748 66.0022 70.9328C66.0685 70.891 66.1142 70.8342 66.1392 70.7623C66.1642 70.6906 66.1767 70.5757 66.1767 70.4181V68.5246H66.5403V70.3976C66.5403 70.6275 66.5125 70.8059 66.457 70.9321C66.4014 71.0583 66.3132 71.1546 66.1927 71.2208C66.072 71.2868 65.9303 71.32 65.768 71.32C65.5267 71.32 65.3421 71.2507 65.214 71.112C65.0858 70.9733 65.0243 70.767 65.0293 70.4933Z" fill="#231916"/>
<path fill-rule="evenodd" clip-rule="evenodd" d="M67.0935 69.282H67.4311V71.2731H67.0935V69.282ZM67.0935 68.5245H67.4311V68.9125H67.0935V68.5245Z" fill="#231916"/>
<path fill-rule="evenodd" clip-rule="evenodd" d="M69.2157 70.2737C69.0932 70.3237 68.9096 70.3663 68.6646 70.4013C68.5259 70.4214 68.4276 70.4439 68.3702 70.4689C68.3127 70.4939 68.2684 70.5304 68.2371 70.5787C68.2059 70.6267 68.1902 70.6802 68.1902 70.7388C68.1902 70.8289 68.2242 70.9039 68.2924 70.9639C68.3606 71.0239 68.4602 71.0538 68.5915 71.0538C68.7214 71.0538 68.8371 71.0254 68.9383 70.9686C69.0395 70.9117 69.1139 70.8338 69.1614 70.7351C69.1975 70.6589 69.2157 70.5464 69.2157 70.3976V70.2737ZM69.2438 71.0276C69.1188 71.1339 68.9986 71.2089 68.883 71.2526C68.7673 71.2962 68.6433 71.3183 68.5108 71.3183C68.292 71.3183 68.124 71.2648 68.0066 71.1579C67.889 71.051 67.8302 70.9145 67.8302 70.7482C67.8302 70.6509 67.8525 70.5618 67.8968 70.4812C67.9412 70.4003 67.9992 70.3356 68.0713 70.2868C68.143 70.2381 68.224 70.2012 68.3139 70.1762C68.3801 70.1588 68.4801 70.1418 68.614 70.1256C68.8863 70.0932 69.0869 70.0543 69.2157 70.0094C69.2169 69.9633 69.2176 69.934 69.2176 69.9213C69.2176 69.7839 69.1858 69.687 69.1221 69.6308C69.0358 69.5544 68.9076 69.5165 68.7376 69.5165C68.579 69.5165 68.4618 69.5442 68.3862 69.5999C68.3106 69.6554 68.2547 69.7538 68.2184 69.8953L67.8884 69.8502C67.9183 69.7087 67.9677 69.5948 68.0365 69.5079C68.1053 69.4211 68.2045 69.3543 68.3346 69.3074C68.4645 69.2604 68.6151 69.2369 68.7865 69.2369C68.9562 69.2369 69.0944 69.257 69.2006 69.2971C69.3069 69.3371 69.3851 69.3873 69.4351 69.4479C69.4851 69.5087 69.5201 69.5852 69.54 69.6777C69.5513 69.7351 69.557 69.8388 69.557 69.9889V70.439C69.557 70.7527 69.5642 70.951 69.5785 71.0342C69.5929 71.1173 69.6212 71.197 69.6638 71.2732H69.3114C69.2764 71.2032 69.2538 71.1214 69.2438 71.0276Z" fill="#231916"/>
<path fill-rule="evenodd" clip-rule="evenodd" d="M70.08 71.2732V69.2821H70.3838V69.5652C70.5299 69.3466 70.7411 69.237 71.0173 69.237C71.1375 69.237 71.2476 69.2585 71.3482 69.3016C71.4489 69.3448 71.5243 69.4015 71.5741 69.4714C71.6241 69.5415 71.6591 69.6246 71.6792 69.7209C71.6917 69.7832 71.6979 69.8926 71.6979 70.0487V71.2732H71.3606V70.062C71.3606 69.9246 71.3473 69.8217 71.3211 69.7537C71.2949 69.6855 71.2482 69.6312 71.1814 69.5906C71.1146 69.5499 71.0363 69.5294 70.9462 69.5294C70.8024 69.5294 70.6784 69.5753 70.574 69.6664C70.4697 69.7576 70.4176 69.9307 70.4176 70.1856V71.2732H70.08Z" fill="#231916"/>
<path fill-rule="evenodd" clip-rule="evenodd" d="M72.4329 70.2418C72.4329 70.5034 72.4849 70.6939 72.5884 70.8139C72.6923 70.9338 72.8222 70.994 72.9783 70.994C73.1334 70.994 73.2634 70.9342 73.3685 70.8148C73.4734 70.6955 73.5259 70.5083 73.5259 70.2532C73.5259 70.0096 73.4718 69.8257 73.3638 69.7019C73.2556 69.5784 73.1252 69.5165 72.9729 69.5165C72.8228 69.5165 72.6955 69.5774 72.5904 69.6993C72.4854 69.821 72.4329 70.0019 72.4329 70.2418ZM72.1535 71.4382L72.4817 71.4869C72.4954 71.5883 72.5335 71.6619 72.596 71.7082C72.6798 71.7705 72.7941 71.8018 72.9391 71.8018C73.0954 71.8018 73.2159 71.7705 73.3009 71.7082C73.3859 71.6457 73.4433 71.5582 73.4734 71.4457C73.491 71.3771 73.499 71.2325 73.4978 71.0125C73.3503 71.1864 73.1665 71.2732 72.9465 71.2732C72.673 71.2732 72.461 71.1745 72.311 70.977C72.161 70.7795 72.0861 70.5427 72.0861 70.2663C72.0861 70.0764 72.1203 69.9011 72.1891 69.7406C72.2578 69.5798 72.3577 69.4559 72.4882 69.3682C72.6189 69.2809 72.7722 69.2369 72.9484 69.2369C73.1835 69.2369 73.3771 69.3321 73.5296 69.522V69.282H73.8408V71.0032C73.8408 71.3132 73.8092 71.5328 73.7461 71.6623C73.683 71.7916 73.5832 71.8938 73.4462 71.9688C73.3093 72.0438 73.1409 72.0812 72.941 72.0812C72.7035 72.0812 72.5116 72.0278 72.3655 71.921C72.2192 71.8141 72.1484 71.6531 72.1535 71.4382Z" fill="#231916"/>
<path fill-rule="evenodd" clip-rule="evenodd" d="M74.1257 71.2732L74.853 70.2382L74.18 69.2821H74.602L74.9073 69.7488C74.9649 69.8375 75.0112 69.9119 75.0462 69.9719C75.1011 69.8895 75.1517 69.8164 75.198 69.7527L75.5336 69.2821H75.9367L75.2486 70.2192L75.9892 71.2732H75.5749L75.1662 70.6545L75.0575 70.4877L74.5344 71.2732H74.1257Z" fill="#231916"/>
<path fill-rule="evenodd" clip-rule="evenodd" d="M76.2725 69.282H76.6101V71.2731H76.2725V69.282ZM76.2725 68.5245H76.6101V68.9125H76.2725V68.5245Z" fill="#231916"/>
<path fill-rule="evenodd" clip-rule="evenodd" d="M78.2294 71.2732V68.5247H78.6025L80.046 70.6828V68.5247H80.3947V71.2732H80.0218L78.5781 69.1133V71.2732H78.2294Z" fill="#231916"/>
<path fill-rule="evenodd" clip-rule="evenodd" d="M81.184 70.2775C81.184 70.5326 81.2397 70.7235 81.3509 70.8505C81.4622 70.9773 81.6023 71.0406 81.7709 71.0406C81.9383 71.0406 82.0776 70.9769 82.1889 70.8495C82.3001 70.7219 82.3558 70.5276 82.3558 70.2662C82.3558 70.0202 82.2999 69.8336 82.188 69.7067C82.076 69.5799 81.9369 69.5164 81.7709 69.5164C81.6023 69.5164 81.4622 69.5795 81.3509 69.7057C81.2397 69.8321 81.184 70.0226 81.184 70.2775ZM80.8373 70.2775C80.8373 69.9089 80.9396 69.6357 81.1447 69.4584C81.3159 69.3109 81.5245 69.237 81.7709 69.237C82.0446 69.237 82.2683 69.3267 82.4419 69.506C82.6156 69.6856 82.7025 69.9331 82.7025 70.2494C82.7025 70.5059 82.6641 70.7073 82.5875 70.8542C82.5105 71.0011 82.3986 71.115 82.2519 71.1963C82.1049 71.2775 81.9445 71.3182 81.7709 71.3182C81.4921 71.3182 81.2668 71.2289 81.0949 71.0501C80.9232 70.8714 80.8373 70.6139 80.8373 70.2775Z" fill="#231916"/>
<path fill-rule="evenodd" clip-rule="evenodd" d="M83.0947 71.2732V69.2821H83.3984V69.5839C83.4758 69.4427 83.5473 69.3495 83.613 69.3046C83.6786 69.2594 83.7507 69.237 83.8296 69.237C83.9433 69.237 84.059 69.2733 84.1764 69.3458L84.0601 69.6587C83.9777 69.6101 83.8952 69.5857 83.8128 69.5857C83.739 69.5857 83.6727 69.6082 83.6139 69.6523C83.5551 69.6968 83.5135 69.7582 83.4885 69.8369C83.4508 69.9571 83.4322 70.0883 83.4322 70.2306V71.2732H83.0947Z" fill="#231916"/>
<path fill-rule="evenodd" clip-rule="evenodd" d="M84.377 71.2732V69.2821H84.6788V69.5613C84.7412 69.4638 84.8244 69.3854 84.9281 69.3261C85.0318 69.2667 85.1498 69.237 85.2825 69.237C85.43 69.237 85.5509 69.2676 85.6451 69.329C85.7396 69.3901 85.8061 69.4759 85.8449 69.5857C86.0022 69.3534 86.2073 69.237 86.4597 69.237C86.6572 69.237 86.809 69.2917 86.9153 69.4011C87.0216 69.5107 87.0747 69.6789 87.0747 69.9065V71.2732H86.7391V70.0188C86.7391 69.884 86.7282 69.7867 86.7063 69.7273C86.6846 69.6679 86.6447 69.6201 86.5871 69.5839C86.5299 69.5476 86.4623 69.5294 86.3847 69.5294C86.2448 69.5294 86.1286 69.5759 86.036 69.6691C85.9436 69.7625 85.8973 69.9114 85.8973 70.1163V71.2732H85.5599V69.9795C85.5599 69.8295 85.5324 69.717 85.4775 69.6419C85.4226 69.5671 85.3325 69.5294 85.2075 69.5294C85.1125 69.5294 85.0246 69.5544 84.9439 69.6044C84.8634 69.6545 84.8048 69.7277 84.7687 69.8238C84.7324 69.9201 84.7144 70.0588 84.7144 70.2399V71.2732H84.377Z" fill="#231916"/>
<path fill-rule="evenodd" clip-rule="evenodd" d="M88.8462 70.2737C88.7237 70.3237 88.5401 70.3663 88.2951 70.4013C88.1564 70.4214 88.0583 70.4439 88.0007 70.4689C87.9432 70.4939 87.8987 70.5304 87.8676 70.5787C87.8364 70.6267 87.8207 70.6802 87.8207 70.7388C87.8207 70.8289 87.8547 70.9039 87.9227 70.9639C87.9909 71.0239 88.0907 71.0538 88.222 71.0538C88.3519 71.0538 88.4676 71.0254 88.5688 70.9686C88.67 70.9117 88.7444 70.8338 88.7919 70.7351C88.828 70.6589 88.8462 70.5464 88.8462 70.3976V70.2737ZM88.8745 71.0276C88.7493 71.1339 88.6291 71.2089 88.5135 71.2526C88.3978 71.2962 88.2738 71.3183 88.1413 71.3183C87.9225 71.3183 87.7545 71.2648 87.6371 71.1579C87.5195 71.051 87.4607 70.9145 87.4607 70.7482C87.4607 70.6509 87.4828 70.5618 87.5273 70.4812C87.5718 70.4003 87.6297 70.3356 87.7018 70.2868C87.7737 70.2381 87.8545 70.2012 87.9444 70.1762C88.0108 70.1588 88.1106 70.1418 88.2445 70.1256C88.5168 70.0932 88.7174 70.0543 88.8462 70.0094C88.8475 69.9633 88.8481 69.934 88.8481 69.9213C88.8481 69.7839 88.8163 69.687 88.7526 69.6308C88.6663 69.5544 88.5381 69.5165 88.3681 69.5165C88.2093 69.5165 88.0923 69.5442 88.0167 69.5999C87.9409 69.6554 87.885 69.7538 87.8489 69.8953L87.5189 69.8502C87.5488 69.7087 87.5982 69.5948 87.667 69.5079C87.7356 69.4211 87.835 69.3543 87.9651 69.3074C88.095 69.2604 88.2456 69.2369 88.417 69.2369C88.5869 69.2369 88.7251 69.257 88.8313 69.2971C88.9374 69.3371 89.0156 69.3873 89.0656 69.4479C89.1156 69.5087 89.1506 69.5852 89.1705 69.6777C89.1818 69.7351 89.1875 69.8388 89.1875 69.9889V70.439C89.1875 70.7527 89.1945 70.951 89.209 71.0342C89.2234 71.1173 89.2517 71.197 89.2943 71.2732H88.9417C88.9069 71.2032 88.8843 71.1214 88.8745 71.0276Z" fill="#231916"/>
<path fill-rule="evenodd" clip-rule="evenodd" d="M89.703 71.2731H90.0406V68.5245H89.703V71.2731Z" fill="#231916"/>
<path fill-rule="evenodd" clip-rule="evenodd" d="M93.477 68.5246H93.8406V70.1125C93.8406 70.3888 93.8095 70.6083 93.747 70.7707C93.6845 70.9332 93.5716 71.0655 93.4085 71.1673C93.2453 71.2692 93.0314 71.3202 92.7665 71.3202C92.509 71.3202 92.2984 71.2757 92.1347 71.187C91.971 71.0983 91.854 70.97 91.784 70.8018C91.7141 70.6337 91.6791 70.4038 91.6791 70.1125V68.5246H92.0429V70.1106C92.0429 70.3495 92.065 70.5255 92.1093 70.6386C92.1539 70.7517 92.2301 70.8391 92.3381 70.9C92.4463 70.9616 92.5784 70.992 92.7347 70.992C93.0019 70.992 93.1928 70.9313 93.3065 70.8102C93.4202 70.6888 93.477 70.456 93.477 70.1106V68.5246Z" fill="#231916"/>
<path fill-rule="evenodd" clip-rule="evenodd" d="M94.403 71.2732V69.2821H94.7068V69.5652C94.8529 69.3466 95.0641 69.237 95.3404 69.237C95.4603 69.237 95.5707 69.2585 95.6711 69.3016C95.7719 69.3448 95.8471 69.4015 95.8971 69.4714C95.9471 69.5415 95.9821 69.6246 96.0022 69.7209C96.0145 69.7832 96.0208 69.8926 96.0208 70.0487V71.2732H95.6834V70.062C95.6834 69.9246 95.6703 69.8217 95.6441 69.7537C95.6178 69.6855 95.5711 69.6312 95.5045 69.5906C95.4374 69.5499 95.3591 69.5294 95.2692 69.5294C95.1253 69.5294 95.0014 69.5753 94.8969 69.6664C94.7926 69.7576 94.7404 69.9307 94.7404 70.1856V71.2732H94.403Z" fill="#231916"/>
<path fill-rule="evenodd" clip-rule="evenodd" d="M96.5402 69.282H96.8778V71.2731H96.5402V69.282ZM96.5402 68.5245H96.8778V68.9125H96.5402V68.5245Z" fill="#231916"/>
<path fill-rule="evenodd" clip-rule="evenodd" d="M97.9445 71.2732L97.1869 69.2821H97.5432L97.9707 70.4746C98.0168 70.6033 98.0594 70.7371 98.098 70.8758C98.1281 70.7707 98.1699 70.6445 98.2239 70.497L98.6661 69.2821H99.0131L98.2592 71.2732H97.9445Z" fill="#231916"/>
<path fill-rule="evenodd" clip-rule="evenodd" d="M99.5661 70.0863H100.678C100.663 69.9189 100.62 69.7933 100.55 69.7095C100.443 69.5794 100.303 69.5145 100.132 69.5145C99.9772 69.5145 99.8469 69.5665 99.7414 69.67C99.6357 69.7738 99.5775 69.9125 99.5661 70.0863ZM100.674 70.632L101.023 70.6752C100.968 70.8789 100.866 71.037 100.717 71.1493C100.569 71.262 100.378 71.3183 100.147 71.3183C99.8561 71.3183 99.6253 71.2286 99.4546 71.0493C99.284 70.8699 99.1987 70.6183 99.1987 70.2942C99.1987 69.9596 99.285 69.6995 99.4573 69.5145C99.6298 69.3295 99.8537 69.2369 100.129 69.2369C100.395 69.2369 100.612 69.3276 100.781 69.5089C100.95 69.6902 101.034 69.9451 101.034 70.2737C101.034 70.2938 101.033 70.3237 101.032 70.3638H99.5474C99.5599 70.5828 99.6216 70.75 99.733 70.8664C99.8443 70.9827 99.983 71.0407 100.149 71.0407C100.273 71.0407 100.378 71.0082 100.466 70.9432C100.553 70.8783 100.623 70.7744 100.674 70.632Z" fill="#231916"/>
<path fill-rule="evenodd" clip-rule="evenodd" d="M101.443 71.2732V69.2821H101.747V69.5839C101.824 69.4427 101.896 69.3495 101.961 69.3046C102.027 69.2594 102.099 69.237 102.178 69.237C102.292 69.237 102.407 69.2733 102.525 69.3458L102.408 69.6587C102.326 69.6101 102.244 69.5857 102.161 69.5857C102.087 69.5857 102.021 69.6082 101.962 69.6523C101.903 69.6968 101.862 69.7582 101.837 69.8369C101.799 69.9571 101.781 70.0883 101.781 70.2306V71.2732H101.443Z" fill="#231916"/>
<path fill-rule="evenodd" clip-rule="evenodd" d="M102.59 70.6789L102.924 70.6264C102.943 70.7602 102.995 70.8626 103.081 70.9339C103.166 71.0052 103.286 71.0407 103.44 71.0407C103.595 71.0407 103.71 71.0091 103.785 70.946C103.86 70.8829 103.897 70.8088 103.897 70.7239C103.897 70.6477 103.864 70.5877 103.798 70.5439C103.751 70.5138 103.636 70.4757 103.453 70.4296C103.205 70.3667 103.034 70.3128 102.938 70.2673C102.843 70.2216 102.77 70.1585 102.721 70.078C102.671 69.9973 102.647 69.9082 102.647 69.8107C102.647 69.722 102.667 69.64 102.708 69.5642C102.748 69.4886 102.804 69.4259 102.873 69.3759C102.926 69.3372 102.998 69.3044 103.088 69.2774C103.179 69.2504 103.276 69.237 103.38 69.237C103.536 69.237 103.673 69.2594 103.791 69.3046C103.909 69.3495 103.996 69.4104 104.053 69.4872C104.109 69.5642 104.148 69.667 104.169 69.7957L103.839 69.8408C103.824 69.7383 103.781 69.6582 103.709 69.6007C103.637 69.5433 103.535 69.5146 103.404 69.5146C103.249 69.5146 103.139 69.5402 103.072 69.5915C103.006 69.6425 102.973 69.7027 102.973 69.7713C102.973 69.815 102.987 69.8545 103.014 69.8895C103.042 69.9258 103.085 69.9557 103.143 69.9795C103.177 69.9918 103.277 70.0208 103.441 70.0657C103.68 70.1294 103.847 70.1815 103.941 70.2222C104.035 70.2628 104.109 70.322 104.163 70.3994C104.217 70.4771 104.244 70.5732 104.244 70.6883C104.244 70.8008 104.211 70.9067 104.145 71.0061C104.08 71.1056 103.985 71.1822 103.862 71.2365C103.738 71.291 103.598 71.3181 103.441 71.3181C103.183 71.3181 102.986 71.2644 102.85 71.157C102.714 71.0493 102.628 70.8901 102.59 70.6789Z" fill="#231916"/>
<path fill-rule="evenodd" clip-rule="evenodd" d="M104.647 69.282H104.984V71.2731H104.647V69.282ZM104.647 68.5245H104.984V68.9125H104.647V68.5245Z" fill="#231916"/>
<path fill-rule="evenodd" clip-rule="evenodd" d="M106.235 70.9714L106.283 71.2693C106.189 71.2894 106.104 71.2996 106.029 71.2996C105.906 71.2996 105.811 71.2801 105.744 71.2414C105.676 71.2027 105.628 71.1517 105.601 71.0886C105.574 71.0253 105.56 70.8927 105.56 70.6903V69.5445H105.312V69.2821H105.56V68.789L105.895 68.5865V69.2821H106.235V69.5445H105.895V70.7088C105.895 70.8052 105.901 70.8671 105.913 70.8944C105.925 70.922 105.945 70.9439 105.971 70.9601C105.998 70.9763 106.037 70.9845 106.087 70.9845C106.124 70.9845 106.173 70.9802 106.235 70.9714Z" fill="#231916"/>
<path fill-rule="evenodd" clip-rule="evenodd" d="M106.55 72.04L106.512 71.7231C106.586 71.743 106.65 71.7532 106.705 71.7532C106.78 71.7532 106.84 71.7407 106.885 71.7157C106.93 71.6907 106.967 71.6557 106.996 71.6108C107.017 71.577 107.051 71.4932 107.099 71.3595C107.105 71.3408 107.115 71.3132 107.129 71.2771L106.373 69.2821H106.737L107.151 70.4351C107.205 70.5814 107.253 70.7352 107.296 70.8963C107.335 70.7416 107.381 70.5902 107.434 70.4427L107.86 69.2821H108.198L107.44 71.307C107.359 71.5256 107.296 71.6764 107.251 71.7589C107.191 71.87 107.122 71.9517 107.045 72.0034C106.967 72.0552 106.875 72.0812 106.767 72.0812C106.702 72.0812 106.63 72.0675 106.55 72.04Z" fill="#231916"/>
</g>
<defs>
<filter id="filter0_d_266_21" x="0" y="0" width="154" height="157" filterUnits="userSpaceOnUse" color-interpolation-filters="sRGB">
<feFlood flood-opacity="0" result="BackgroundImageFix"/>
<feColorMatrix in="SourceAlpha" type="matrix" values="0 0 0 0 0 0 0 0 0 0 0 0 0 0 0 0 0 0 127 0" result="hardAlpha"/>
<feOffset dy="16"/>
<feGaussianBlur stdDeviation="6.5"/>
<feColorMatrix type="matrix" values="0 0 0 0 0 0 0 0 0 0 0 0 0 0 0 0 0 0 0.03 0"/>
<feBlend mode="normal" in2="BackgroundImageFix" result="effect1_dropShadow_266_21"/>
<feBlend mode="normal" in="SourceGraphic" in2="effect1_dropShadow_266_21" result="shape"/>
</filter>
</defs>
</svg>
