<svg width="154" height="157" viewBox="0 0 154 157" fill="none" xmlns="http://www.w3.org/2000/svg">
<g filter="url(#filter0_d_266_0)">
<rect width="128" height="128" transform="translate(13)" fill="white"/>
<path fill-rule="evenodd" clip-rule="evenodd" d="M125.817 70.4843V70.1661L127 70.164V71.1719C126.818 71.313 126.631 71.4186 126.438 71.4902C126.245 71.561 126.046 71.5964 125.843 71.5964C125.569 71.5964 125.319 71.5396 125.095 71.425C124.87 71.3112 124.701 71.1453 124.587 70.9297C124.472 70.7134 124.415 70.4716 124.415 70.2046C124.415 69.9402 124.472 69.6934 124.586 69.4644C124.699 69.2347 124.863 69.0646 125.077 68.9532C125.29 68.8426 125.536 68.7868 125.814 68.7868C126.016 68.7868 126.199 68.8183 126.362 68.8824C126.526 68.9454 126.654 69.0343 126.746 69.1482C126.839 69.2622 126.91 69.4101 126.958 69.5928L126.625 69.682C126.583 69.5436 126.53 69.4346 126.469 69.3556C126.406 69.2767 126.317 69.2133 126.201 69.1658C126.086 69.1184 125.957 69.0943 125.817 69.0943C125.648 69.0943 125.501 69.1199 125.378 69.1696C125.255 69.2195 125.156 69.2853 125.079 69.3671C125.004 69.4487 124.945 69.5378 124.903 69.6358C124.832 69.8036 124.796 69.9857 124.796 70.1824C124.796 70.4248 124.839 70.6271 124.925 70.7904C125.011 70.9539 125.136 71.0746 125.3 71.1536C125.464 71.2326 125.638 71.2724 125.822 71.2724C125.983 71.2724 126.138 71.2423 126.291 71.182C126.444 71.1226 126.559 71.0587 126.638 70.9905V70.4843H125.817ZM121.649 71.5502V68.8329H122.028L123.496 70.9663V68.8329H123.85V71.5502H123.471L122.003 69.4153V71.5502H121.649ZM120.594 68.8329H120.964V71.5502H120.594V68.8329ZM118.05 70.0326H118.846C119.014 70.0326 119.147 70.0153 119.242 69.9813C119.337 69.9471 119.41 69.8929 119.459 69.8181C119.508 69.7436 119.533 69.6625 119.533 69.5746C119.533 69.4459 119.486 69.3404 119.389 69.2575C119.294 69.1747 119.142 69.1336 118.935 69.1336H118.05V70.0326ZM117.681 71.5502V68.8329H118.92C119.169 68.8329 119.358 68.8578 119.488 68.9063C119.617 68.9551 119.721 69.0411 119.798 69.1646C119.876 69.2884 119.915 69.4253 119.915 69.5746C119.915 69.7675 119.851 69.9295 119.722 70.0616C119.594 70.1939 119.395 70.278 119.127 70.3141C119.225 70.3597 119.3 70.4044 119.35 70.4494C119.458 70.5458 119.561 70.6665 119.657 70.8107L120.144 71.5502H119.678L119.309 70.9846C119.201 70.8222 119.112 70.6969 119.041 70.6109C118.972 70.5241 118.909 70.4634 118.854 70.4294C118.799 70.3945 118.743 70.3705 118.685 70.3564C118.643 70.3484 118.575 70.3439 118.479 70.3439H118.05V71.5502H117.681ZM115.042 71.5502V68.8329H117.062V69.1539H115.412V69.9857H116.957V70.3048H115.412V71.2295H117.127V71.5502H115.042ZM112.401 71.5502V68.8329H114.421V69.1539H112.771V69.9857H114.317V70.3048H112.771V71.2295H114.487V71.5502H112.401ZM109.534 71.5502V68.8329H109.913L111.381 70.9663V68.8329H111.735V71.5502H111.356L109.888 69.4153V71.5502H109.534ZM108.479 68.8329H108.848V71.5502H108.479V68.8329ZM106.65 70.4843V70.1661L107.834 70.164V71.1719C107.652 71.313 107.465 71.4186 107.271 71.4902C107.078 71.561 106.88 71.5964 106.677 71.5964C106.402 71.5964 106.152 71.5396 105.928 71.425C105.704 71.3112 105.535 71.1453 105.421 70.9297C105.306 70.7134 105.249 70.4716 105.249 70.2046C105.249 69.9402 105.306 69.6934 105.42 69.4644C105.533 69.2347 105.697 69.0646 105.91 68.9532C106.124 68.8426 106.37 68.7868 106.648 68.7868C106.85 68.7868 107.033 68.8183 107.196 68.8824C107.359 68.9454 107.487 69.0343 107.58 69.1482C107.673 69.2622 107.743 69.4101 107.792 69.5928L107.458 69.682C107.416 69.5436 107.364 69.4346 107.302 69.3556C107.24 69.2767 107.15 69.2133 107.034 69.1658C106.919 69.1184 106.791 69.0943 106.65 69.0943C106.481 69.0943 106.334 69.1199 106.212 69.1696C106.088 69.2195 105.989 69.2853 105.913 69.3671C105.837 69.4487 105.779 69.5378 105.737 69.6358C105.666 69.8036 105.63 69.9857 105.63 70.1824C105.63 70.4248 105.673 70.6271 105.759 70.7904C105.845 70.9539 105.97 71.0746 106.134 71.1536C106.298 71.2326 106.471 71.2724 106.655 71.2724C106.816 71.2724 106.972 71.2423 107.124 71.182C107.277 71.1226 107.392 71.0587 107.471 70.9905V70.4843H106.65ZM102.482 71.5502V68.8329H102.862L104.329 70.9663V68.8329H104.684V71.5502H104.305L102.837 69.4153V71.5502H102.482ZM99.8532 71.5502V68.8329H101.873V69.1539H100.223V69.9857H101.769V70.3048H100.223V71.2295H101.939V71.5502H99.8532ZM96.5751 71.5502V68.8329H98.4607V69.1539H96.9455V69.9952H98.2566V70.3161H96.9455V71.5502H96.5751ZM93.7516 70.2324C93.7516 70.5603 93.842 70.8176 94.0228 71.006C94.2044 71.1948 94.4316 71.2891 94.7049 71.2891C94.9834 71.2891 95.2124 71.1941 95.3919 71.0036C95.5715 70.8131 95.6619 70.5431 95.6619 70.1931C95.6619 69.9726 95.6228 69.7797 95.546 69.6144C95.4694 69.4492 95.3568 69.3213 95.209 69.2302C95.0608 69.1398 94.8947 69.0943 94.7108 69.0943C94.4486 69.0943 94.2234 69.1818 94.0346 69.3571C93.8459 69.5315 93.7516 69.8238 93.7516 70.2324ZM93.3703 70.2267C93.3703 69.7757 93.4946 69.4226 93.7438 69.1677C93.9932 68.9128 94.3145 68.7849 94.7086 68.7849C94.9664 68.7849 95.1993 68.8451 95.4061 68.9646C95.6129 69.0847 95.7713 69.2518 95.8797 69.4664C95.9885 69.6801 96.0425 69.9236 96.0425 70.1953C96.0425 70.4709 95.9859 70.7178 95.8715 70.9347C95.7568 71.1522 95.5948 71.3167 95.3852 71.4288C95.1752 71.5409 94.9495 71.5964 94.7067 71.5964C94.4434 71.5964 94.2084 71.5352 94.0015 71.4109C93.794 71.2877 93.6372 71.1189 93.5306 70.9049C93.4239 70.6918 93.3703 70.4654 93.3703 70.2267ZM90.8321 71.5502V70.3996L89.7554 68.8329H90.2049L90.756 69.6522C90.8574 69.8055 90.9519 69.9585 91.0396 70.1123C91.1236 69.9698 91.2252 69.8096 91.3448 69.6321L91.8862 68.8329H92.3167L91.2018 70.3996V71.5502H90.8321ZM88.3345 71.5502V69.1539H87.4139V68.8329H89.6285V69.1539H88.7041V71.5502H88.3345ZM86.5649 68.8329H86.9345V71.5502H86.5649V68.8329ZM83.7354 70.6772L84.0841 70.6475C84.1004 70.7835 84.1388 70.895 84.1994 70.9822C84.2598 71.0694 84.3535 71.1398 84.4805 71.1934C84.6072 71.2471 84.7503 71.2738 84.9091 71.2738C85.0504 71.2738 85.1746 71.2536 85.2827 71.2132C85.3906 71.1719 85.4712 71.1162 85.5239 71.0455C85.5766 70.9738 85.6033 70.8969 85.6033 70.8125C85.6033 70.7272 85.5779 70.6531 85.5265 70.5894C85.4757 70.5253 85.3919 70.4722 85.2753 70.4294C85.2 70.4009 85.0346 70.3564 84.7775 70.2963C84.5212 70.2363 84.3412 70.1799 84.2383 70.1269C84.1051 70.0591 84.0054 69.9743 83.9398 69.8737C83.8747 69.7732 83.8422 69.6604 83.8422 69.5355C83.8422 69.3986 83.8818 69.2703 83.9618 69.1513C84.0418 69.0318 84.1591 68.9413 84.3124 68.8793C84.4668 68.818 84.6371 68.7868 84.8251 68.7868C85.0328 68.7868 85.2149 68.8191 85.3737 68.8842C85.5316 68.9489 85.6535 69.0443 85.7386 69.1703C85.8233 69.2961 85.8695 69.439 85.876 69.5985L85.5213 69.6245C85.5018 69.4529 85.4375 69.3228 85.3275 69.2354C85.2175 69.1475 85.0555 69.1037 84.8408 69.1037C84.6169 69.1037 84.4542 69.1435 84.3515 69.2232C84.2494 69.3029 84.1979 69.3992 84.1979 69.5112C84.1979 69.6092 84.2345 69.6896 84.3066 69.7523C84.3783 69.8156 84.5636 69.88 84.8642 69.9459C85.1649 70.0123 85.3709 70.0699 85.4831 70.1192C85.6457 70.1927 85.766 70.2849 85.8434 70.3964C85.9209 70.5083 85.9593 70.6374 85.9593 70.7831C85.9593 70.9278 85.9168 71.0639 85.8316 71.1916C85.7463 71.3193 85.6242 71.4186 85.4647 71.4902C85.3054 71.561 85.1256 71.5964 84.9266 71.5964C84.6735 71.5964 84.4616 71.561 84.291 71.489C84.1198 71.4173 83.9857 71.3099 83.8884 71.1656C83.7914 71.0221 83.7399 70.8589 83.7354 70.6772ZM81.3802 70.0326H82.1754C82.3439 70.0326 82.4764 70.0153 82.5714 69.9813C82.6672 69.9471 82.7394 69.8929 82.7888 69.8181C82.8383 69.7436 82.8629 69.6625 82.8629 69.5746C82.8629 69.4459 82.8154 69.3404 82.7192 69.2575C82.6236 69.1747 82.472 69.1336 82.2644 69.1336H81.3802V70.0326ZM81.0107 71.5502V68.8329H82.2495C82.4987 68.8329 82.6879 68.8578 82.8176 68.9063C82.947 68.9551 83.0503 69.0411 83.1284 69.1646C83.2058 69.2884 83.2443 69.4253 83.2443 69.5746C83.2443 69.7675 83.1806 69.9295 83.0516 70.0616C82.9235 70.1939 82.7251 70.278 82.457 70.3141C82.5554 70.3597 82.6295 70.4044 82.6802 70.4494C82.7882 70.5458 82.8902 70.6665 82.9873 70.8107L83.4732 71.5502H83.0081L82.6384 70.9846C82.5305 70.8222 82.4414 70.6969 82.3713 70.6109C82.3014 70.5241 82.2391 70.4634 82.1837 70.4294C82.1285 70.3945 82.0724 70.3705 82.0151 70.3564C81.9729 70.3484 81.9047 70.3439 81.8091 70.3439H81.3802V71.5502H81.0107ZM78.3719 71.5502V68.8329H80.3921V69.1539H78.7414V69.9857H80.2874V70.3048H78.7414V71.2295H80.457V71.5502H78.3719ZM76.5216 71.5502L75.439 68.8329H75.8398L76.5659 70.8069C76.6244 70.9652 76.6734 71.1137 76.7122 71.2516C76.756 71.1037 76.806 70.9555 76.8633 70.8069L77.6178 68.8329H77.9952L76.9009 71.5502H76.5216ZM74.6649 68.8329H75.0345V71.5502H74.6649V68.8329ZM71.7417 71.5502V68.8329H72.121L73.5889 70.9663V68.8329H73.9434V71.5502H73.5641L72.0964 69.4153V71.5502H71.7417ZM70.7228 68.8329H71.0932V70.4033C71.0932 70.6759 71.0613 70.8929 70.9976 71.0535C70.9336 71.2143 70.8192 71.3446 70.6532 71.4452C70.4874 71.5465 70.2702 71.5964 70.0007 71.5964C69.7392 71.5964 69.5247 71.5528 69.3587 71.465C69.1922 71.3775 69.073 71.2504 69.0022 71.084C68.9305 70.9178 68.8954 70.6913 68.8954 70.4033V68.8329H69.2648V70.4014C69.2648 70.6374 69.2878 70.8114 69.3326 70.9226C69.3774 71.0345 69.4555 71.1207 69.5649 71.1815C69.6748 71.2423 69.8096 71.2724 69.9683 71.2724C70.2402 71.2724 70.434 71.2125 70.5499 71.0922C70.665 70.9726 70.7228 70.7425 70.7228 70.4014V68.8329ZM65.1618 71.5502V68.8329H65.5412L67.0089 70.9663V68.8329H67.3635V71.5502H66.9842L65.5164 69.4153V71.5502H65.1618ZM63.024 70.4342H63.972L63.6798 69.682C63.5914 69.4536 63.5249 69.2659 63.482 69.1184C63.4462 69.293 63.3961 69.4658 63.3312 69.6377L63.024 70.4342ZM62.218 71.5502L63.2914 68.8329H63.6895L64.8334 71.5502H64.4118L64.0857 70.7272H62.9174L62.6109 71.5502H62.218ZM59.665 71.5502V68.8329H60.0444L61.5121 70.9663V68.8329H61.8666V71.5502H61.4874L60.0196 69.4153V71.5502H59.665ZM57.036 71.5502V68.8329H59.0559V69.1539H57.4056V69.9857H58.9512V70.3048H57.4056V71.2295H59.1212V71.5502H57.036ZM54.1831 71.5502V68.8329H54.5532V69.9489H56.0053V68.8329H56.3756V71.5502H56.0053V70.2698H54.5532V71.5502H54.1831Z" fill="#030000"/>
<path fill-rule="evenodd" clip-rule="evenodd" d="M61.7687 61.446C61.9113 61.1346 62.1398 61.277 62.0446 61.5346C61.9495 61.7927 61.7877 61.606 61.7687 61.446ZM59.742 59.5255C59.9891 59.0809 59.9701 59.9166 59.7228 61.2148C59.4754 62.5128 58.6952 64.1489 58.2956 64.7358C57.8958 65.3225 57.5532 65.1802 57.2107 64.7535C56.8681 64.3268 56.7919 64.131 56.9253 63.9533C57.0584 63.7756 57.382 63.6509 57.382 63.2953C57.382 62.9397 57.6295 62.4418 57.7245 61.8016C57.8198 61.1612 57.1345 60.8413 56.8491 60.3969C56.5637 59.9522 56.9634 59.7744 57.0776 59.9344C57.1916 60.0945 58.8093 60.8058 58.9425 61.1079C59.0756 61.4103 58.5619 61.9261 58.2764 62.1039C57.9911 62.2819 57.8198 62.9576 57.784 63.4397C57.748 63.922 58.029 63.8467 58.0671 63.7044C58.1052 63.562 58.3906 63.0819 58.9235 62.0504C59.4564 61.0191 59.6848 59.8812 59.742 59.5255ZM57.7055 58.7606C57.382 59.0987 57.382 59.2764 57.7435 59.1875C58.1052 59.0987 58.7713 58.1383 58.9806 58.3339C59.1901 58.5295 59.4182 58.6896 59.6467 58.6896C59.8751 58.6896 59.8751 58.9029 60.1036 59.1875C60.3317 59.4722 60.484 59.8812 61.2644 59.5255C62.0446 59.1698 62.5965 58.4762 63.3387 58.5473C64.0809 58.6184 64.0048 58.4407 63.9858 59.0453C63.9668 59.6498 63.9668 60.0766 63.5672 60.0412C63.1674 60.0055 63.0341 59.4363 62.3301 60.1833C61.626 60.9303 61.5497 60.8947 61.1881 60.8947C60.8265 60.8947 60.408 61.2325 60.5793 61.7661C60.7505 62.2995 61.1121 62.584 61.5117 62.4594C61.9113 62.335 61.8923 62.1751 62.0826 62.1751C62.2729 62.1751 62.901 62.1751 63.2626 61.4993C63.6242 60.8236 63.6623 60.6636 63.6623 61.3394C63.6623 62.0151 63.6052 64.2023 63.6623 64.5758C63.7193 64.9493 63.529 64.9315 63.0151 64.8068C62.5014 64.6824 62.3301 64.7002 62.7107 65.0026C63.0913 65.3048 63.7955 65.8916 64.3093 65.7317C64.8232 65.5716 64.9945 65.5716 64.9755 64.7179C64.9563 63.8643 64.9374 60.8591 65.0706 60.13C65.2038 59.4009 65.0706 58.7963 64.671 58.7606C64.2712 58.7252 63.8145 58.5473 64.5758 58.3339C65.3371 58.1205 68.2108 57.3024 68.1346 56.8579C68.0583 56.4135 67.4495 56.1823 67.0308 56.4135C66.6122 56.6447 65.2608 57.356 63.7193 57.6938C62.1779 58.0315 60.7315 58.7606 60.5793 58.4584C60.427 58.1563 60.6743 57.8004 60.4649 57.6048C60.2556 57.4092 57.6864 54.7597 57.42 55.0264C57.1536 55.2931 57.6295 55.9156 57.6484 56.289C57.6675 56.6623 58.1811 57.4092 58.3524 57.6048C58.524 57.8004 58.2764 57.9962 57.7055 58.7606Z" fill="#030000"/>
<path fill-rule="evenodd" clip-rule="evenodd" d="M72.7531 63.74C72.7337 63.9444 72.8889 63.98 72.9665 63.7666C73.044 63.5532 72.7531 63.4733 72.7531 63.74ZM73.0149 62.6375C73.5579 62.9752 73.2672 63.4733 73.4026 63.562C73.5385 63.651 73.713 63.6686 73.713 63.9888C73.713 64.3088 74.644 64.7001 75.0705 65.0915C75.4972 65.4825 75.594 64.6112 75.6909 63.2243C75.788 61.8371 76.0207 60.0588 76.2728 59.383C76.5249 58.7072 75.6909 59.4542 75.4584 59.7566C75.2256 60.0588 74.6634 60.2012 74.3095 60.3653C73.9559 60.5299 73.6718 60.9504 73.7325 60.8946C73.7932 60.8391 74.2172 61.0546 74.3723 61.3213C74.5275 61.5882 73.2477 62.4952 73.0149 62.6375ZM72.9374 58.5296C73.4026 57.3204 73.4026 57.0537 73.3641 56.4311C73.3254 55.8089 73.3254 55.6665 73.5966 55.8089C73.8683 55.9511 74.5857 56.1466 74.7021 56.698C74.8184 57.2491 75.1286 57.4804 75.439 57.836C75.7492 58.1916 75.4194 58.0494 75.148 58.3872C74.8767 58.7251 74.2366 58.5473 74.2172 58.672C74.1978 58.7962 73.9458 59.3297 73.6549 59.8633C73.3641 60.3969 73.4223 60.3612 73.9846 60.13C74.5469 59.8988 75.594 58.903 76.4278 58.7072C77.2618 58.5117 76.9902 60.13 76.7383 60.9127C76.486 61.6949 76.6025 63.313 76.5443 63.9355C76.486 64.5579 76.2147 65.0025 76.176 65.4116C76.1372 65.8206 75.7492 65.9274 75.342 65.8206C74.9349 65.7138 74.9155 65.5004 74.3337 65.1625C73.7519 64.8247 73.5579 64.3444 73.2283 64.5043C72.8986 64.6646 73.461 64.9668 73.3447 65.3403C73.2283 65.7138 72.8598 65.5358 72.4526 65.5358C72.0455 65.5358 72.1423 65.0558 72.1423 64.8247C72.1423 64.5935 71.7157 64.4691 72.0649 64.2733C72.4138 64.0777 72.1423 63.7755 71.8903 63.7222C71.6381 63.6686 72.9955 62.2461 73.1701 62.104C73.3447 61.9615 73.4223 61.9438 73.4223 61.5704C73.4223 61.1969 73.2477 61.3394 72.8598 61.5526C72.472 61.7662 72.666 61.7483 72.4332 62.2994C72.2005 62.8509 71.7933 62.5839 71.6769 62.2994C71.5606 62.0151 71.2891 62.2105 70.9012 62.2105C70.5135 62.2105 70.6298 62.0328 71.3666 61.677C72.1035 61.3213 72.1811 61.1969 72.2199 60.9127C72.2586 60.6279 72.1035 60.6458 71.5218 60.8413C70.94 61.0369 70.0868 60.4323 70.048 59.9878C70.0092 59.5431 70.3001 59.8455 71.0758 59.8633C71.8515 59.8812 72.7046 59.0986 72.9374 58.5296ZM69.8347 62.9397C69.893 63.1531 69.8347 63.7222 69.7572 63.8999C69.6797 64.0777 69.6409 64.6646 69.9705 65.0202C70.3001 65.3759 71.0177 65.2158 71.037 64.7534C71.0564 64.2911 69.7766 62.1394 69.8347 62.9397Z" fill="#030000"/>
<path fill-rule="evenodd" clip-rule="evenodd" d="M82.3985 58.7752C82.6863 59.0297 83.0701 59.1934 83.6267 59.1752C84.1833 59.157 84.759 59.1752 84.5287 59.6843C84.2984 60.1936 82.7824 62.6304 82.5521 62.9395C82.3218 63.2488 81.8613 63.1941 81.5351 63.3944C81.2089 63.5943 80.1918 63.7217 79.7504 63.6853C79.3091 63.6488 79.3666 63.9581 79.9233 64.2672C80.4797 64.5763 80.5371 64.8854 82.1108 64.4854C83.6843 64.0853 85.3731 63.5214 85.8142 63.5214C86.2557 63.5214 86.4668 63.3759 86.7354 63.0123C87.004 62.6486 86.4668 62.2669 85.8912 62.1212C85.3154 61.9757 85.0467 62.3031 84.3751 62.5578C83.7035 62.8124 82.9742 62.8304 83.473 62.2848C83.9722 61.7394 86.0639 59.5754 86.4475 59.1752C86.8314 58.7752 86.8121 58.5024 86.4091 58.157C86.0062 57.8112 85.8335 57.9567 85.4305 58.1749C85.0275 58.3932 83.7994 58.6114 83.2429 58.4115C82.6863 58.2112 81.938 58.575 82.3985 58.7752Z" fill="#030000"/>
<path fill-rule="evenodd" clip-rule="evenodd" d="M96.5552 57.9153C96.7665 58.0592 97.0356 58.1492 97.7849 57.6454C98.5342 57.1416 98.5533 56.8177 98.5149 56.476C98.4766 56.134 98.9761 55.9904 99.226 55.9003C99.4757 55.8103 100.033 56.2061 99.6681 56.5659C99.3028 56.9259 98.3036 57.5735 98.3036 58.0231C98.3036 58.473 98.4381 58.7789 97.9194 59.0127C97.4007 59.2466 97.3237 59.3907 96.7665 59.1027C96.2093 58.815 96.2093 58.0231 96.5552 57.9153ZM94.8452 60.9378C94.6145 60.9019 94.3647 61.2077 94.4223 61.5135C94.48 61.8194 95.0371 61.6214 95.3254 61.8194C95.6136 62.017 96.1133 61.7114 96.4975 61.2977C96.8818 60.8838 96.9009 61.4234 96.9009 61.8013C96.9009 62.1792 96.632 62.2153 96.3629 62.5031C96.094 62.791 96.5167 63.1328 96.5167 63.3306C96.5167 63.5286 96.1133 63.7444 96.0747 64.0683C96.0363 64.3922 95.8634 64.59 95.4792 64.9859C95.0948 65.3816 95.3254 65.5795 96.267 65.7232C97.2084 65.8674 98.3036 65.4175 98.6687 65.0757C99.0337 64.7338 98.3228 64.5539 97.8424 64.7519C97.3622 64.9498 96.9009 65.1657 96.5744 65.0219C96.2477 64.8778 97.2084 63.9963 97.6504 63.4207C98.0923 62.845 97.8424 62.485 97.6118 62.3051C97.3814 62.1252 97.4775 61.8194 97.7272 61.4234C97.977 61.0278 97.8042 60.7937 97.5157 60.4699C97.2276 60.146 96.9777 60.4521 96.0363 60.9559C95.0948 61.4594 95.0564 61.0637 94.8452 60.9378ZM95.0948 57.3934C94.7298 57.6813 92.4433 59.3365 92.3089 59.5345C92.1743 59.7324 91.8476 60.2361 92.1359 60.3262C92.424 60.416 92.9621 59.7863 93.2887 59.4624C93.6153 59.1388 93.7691 58.7969 94.0381 59.0848C94.3071 59.3726 94.4032 59.9122 93.9612 60.3442C93.5192 60.776 92.9044 61.3335 92.9237 61.9453C92.9428 62.5569 93.0389 62.9529 93.5576 62.5031C94.0766 62.0531 94.48 61.6575 94.1535 62.377C93.8268 63.0968 93.0389 63.7265 92.9812 64.3021C92.9237 64.8778 93.0005 65.5255 92.4624 65.4715C91.9246 65.4175 91.598 65.4354 91.1176 66.0292C90.6371 66.6229 90.3104 66.461 90.0224 66.1372C89.734 65.8133 89.6765 65.5976 90.3874 64.9679C91.0983 64.3382 92.1743 63.5645 92.2128 63.1689C92.2513 62.773 92.3471 61.6394 91.9823 61.6394C91.6172 61.6394 91.2521 62.1972 90.8486 61.8373C90.4451 61.4774 90.3104 61.5675 90.714 61.0817C91.1176 60.5959 91.2328 60.5419 91.3481 60.164C91.4634 59.7863 93.4425 58.0051 93.9804 57.1956C94.5185 56.386 95.4215 55.3098 95.0948 57.3934Z" fill="#030000"/>
<path fill-rule="evenodd" clip-rule="evenodd" d="M105.76 58.0283C106.025 58.211 106.309 58.5767 105.968 58.7228C105.627 58.869 105.324 58.8873 105.173 58.7593C105.022 58.6314 105.06 58.4669 105.76 58.0283ZM106.971 58.083C107.037 57.7516 107.482 58.3573 107.16 58.9604C106.839 59.5635 106.63 59.3989 106.403 59.1066C106.176 58.8143 106.29 58.7411 106.479 58.686C106.668 58.6314 106.933 58.2841 106.971 58.083ZM106.895 59.5818C107.425 59.4356 107.104 60.0202 106.801 59.9472C106.498 59.8741 106.668 59.7279 106.895 59.5818ZM107.482 57.882C107.525 57.3903 107.917 57.3337 108.334 57.5163C108.75 57.6993 108.504 58.1015 107.974 58.7958C107.444 59.4903 107.368 59.1066 107.482 58.7958C107.596 58.4852 107.596 58.1378 107.482 57.882ZM105.59 62.1587C105.873 62.1771 106.195 62.1587 105.892 62.6524C105.59 63.1458 105.741 63.3652 105.154 63.493C104.567 63.621 103.829 63.7671 103.413 63.676C102.997 63.5845 103.11 63.8951 103.356 64.2424C103.602 64.5896 103.829 64.6811 104.378 64.3703C104.927 64.0597 105.305 63.7671 105.608 64.1692C105.911 64.5714 106.025 65.0101 105.608 65.467C105.192 65.9238 104.832 65.668 104.586 65.4853C104.34 65.3024 104.776 65.9636 105.249 66.3077C105.722 66.6519 105.533 66.9108 106.233 66.4721C106.933 66.0337 106.706 65.0833 106.63 64.5165C106.555 63.9498 106.403 63.8038 106.952 63.8038C107.501 63.8038 108.693 63.7123 108.41 63.2006C108.126 62.6889 107.52 63.2006 107.141 63.2737C106.763 63.3469 106.384 63.1276 106.593 62.762C106.801 62.3965 107.255 62.0492 107.368 61.6288C107.482 61.2084 107.35 61.2999 107.785 61.2267C108.22 61.1536 109.772 60.2946 109.772 60.057C109.772 59.8194 109.375 59.3807 108.901 59.6183C108.428 59.8559 108.182 59.9839 108.012 59.6914C107.842 59.3989 108.296 58.7593 108.731 58.4121C109.166 58.0647 110.529 57.0229 109.924 56.6027C109.318 56.1822 108.447 56.9134 107.917 57.1692C107.387 57.4249 107.274 57.5895 107.274 57.7356C107.274 57.882 106.919 57.8681 106.992 57.4637C107.066 57.0596 107.671 56.6209 107.974 56.4747C108.277 56.3283 108.58 56.0725 108.334 55.5976C108.088 55.1224 107.633 54.7748 107.577 55.2867C107.52 55.7984 106.933 56.6757 106.611 56.9318C106.29 57.1875 106.46 57.224 105.949 57.1326C105.438 57.0411 105.419 57.0779 105.438 57.3337C105.457 57.5895 105.59 57.7177 105.362 57.9002C105.135 58.083 104.851 58.5035 104.662 58.1745C104.473 57.8454 104.719 57.5348 104.908 57.1692C105.097 56.8037 105.23 56.6757 104.87 56.2736C104.51 55.8716 103.81 55.6158 104.019 56.1822C104.227 56.7488 104.17 57.4617 104.17 57.9002C104.17 58.3389 104.265 58.686 103.981 58.9421C103.697 59.198 103.489 59.3074 103.602 58.8143C103.716 58.3206 103.772 57.8271 103.545 57.6443C103.318 57.4617 102.921 57.4983 103.11 57.8454C103.299 58.1929 103.451 58.4484 103.205 58.9237C102.959 59.3989 102.75 59.8011 102.921 60.057C103.091 60.3128 103.527 59.9655 103.867 59.4538C104.208 58.9421 104.624 58.4121 104.851 58.8507C105.079 59.2895 105.079 59.1796 104.832 59.4538C104.586 59.7279 104.605 59.9655 104.813 59.9655C105.022 59.9655 105.57 59.3807 105.854 59.6548C106.138 59.929 106.252 60.2763 105.779 60.4042C105.305 60.5322 104.719 60.6235 104.321 60.6054C103.924 60.5869 103.886 60.788 104.132 61.1353C104.378 61.4826 104.965 61.2267 105.457 60.9526C105.949 60.6784 106.63 60.4224 106.895 60.6784C107.16 60.9343 107.274 60.4954 107.633 60.3128C107.993 60.1301 108.05 60.3128 108.126 60.5322C108.201 60.7515 107.558 61.2814 106.574 61.7202C105.59 62.1587 105.116 61.6653 105.59 62.1587ZM102.353 60.6054C102.353 60.9891 101.899 61.6653 102.164 61.6835C102.429 61.7019 102.978 61.2814 102.618 61.7384C102.259 62.1953 101.823 62.835 101.71 63.1276C101.596 63.4199 101.293 63.2554 101.085 62.8169C100.877 62.378 100.669 62.2136 101.142 61.6105C101.615 61.0074 102.467 60.2763 102.353 60.6054Z" fill="#030000"/>
<path fill-rule="evenodd" clip-rule="evenodd" d="M118.752 56.5148C118.258 56.8525 117.973 57.2261 118.334 57.1906C118.695 57.1549 119.113 56.7282 119.512 56.7458C119.911 56.7637 120.595 56.4081 120.196 56.0348C119.797 55.6612 118.467 55.1099 118.752 56.5148ZM117.175 58.4531C117.365 58.8088 117.175 59.4665 118.296 58.7555C119.417 58.044 120.367 57.3327 120.975 57.5284C121.583 57.724 121.564 58.0797 120.804 58.524C120.044 58.9688 119.018 59.9646 118.904 60.2313C118.79 60.498 119.189 60.7648 118.847 61.1383C118.505 61.5119 117.935 62.1163 117.878 61.5828C117.821 61.0494 118.182 60.3024 118.809 59.698C119.436 59.0932 119.626 58.7731 119.398 58.7376C119.17 58.7022 118.334 59.5379 117.821 59.7334C117.308 59.929 117.213 60.2137 117.004 60.6581C116.795 61.1028 116.453 61.1916 116.225 60.8181C115.997 60.4447 116.814 57.9731 117.175 58.4531ZM117.175 62.952C116.776 62.4542 117.897 62.6852 118.125 62.3119C118.353 61.9386 118.866 61.7785 119.17 62.0453C119.474 62.3119 118.942 62.5964 118.695 63.1831C118.448 63.7701 119.113 63.4145 119.132 63.7167C119.151 64.0191 119.341 65.0859 120.234 65.4951C121.127 65.9041 122.609 65.8151 123.084 65.4416C123.559 65.0683 122.894 64.5348 122.571 63.9835C122.248 63.4322 123.198 64.0902 123.901 64.6059C124.604 65.1217 124.547 65.7796 124.11 66.1529C123.673 66.5264 119.778 66.6301 119.151 66.1885C118.524 65.747 118.866 64.5348 118.695 64.108C118.524 63.6811 118.182 64.0191 117.498 64.837C116.814 65.655 116.415 65.9574 116.263 65.8329C116.111 65.7084 116.225 65.424 116.776 64.8904C117.327 64.3568 117.498 63.9301 117.574 63.5744C117.65 63.2187 117.308 63.2367 117.175 62.952ZM114.096 59.52C114.438 59.4132 114.914 59.3778 114.553 60.3913C114.192 61.405 113.659 63.5568 113.679 64.4101C113.698 65.2639 114.173 65.744 114.438 65.9218C114.705 66.0996 115.028 65.2639 115.047 64.7302C115.065 64.1969 115.56 62.4187 115.674 61.9741C115.788 61.5295 115.583 61.427 115.391 61.7094C115.198 61.9919 114.724 61.9562 114.8 61.4938C114.875 61.0316 115.484 58.4174 115.883 57.9373C116.282 57.4573 116.244 57.0305 115.56 57.1372C114.875 57.2439 113.336 58.2219 113.128 58.5597C112.918 58.8977 113.166 59.7867 114.096 59.52Z" fill="#030000"/>
<path fill-rule="evenodd" clip-rule="evenodd" d="M38.8989 55.7462C34.3413 55.7462 30.6452 59.4423 30.6452 64C30.6452 68.5577 34.3413 72.2537 38.8989 72.2537C43.4566 72.2537 47.1528 68.5577 47.1528 64C47.1528 59.4423 43.4566 55.7462 38.8989 55.7462ZM29.9399 60.4444C29.9769 60.4541 30.0319 60.4344 29.9833 60.3913C29.9347 60.348 29.8837 60.3861 29.9399 60.4444ZM29.3419 60.7257C29.4154 60.7689 29.6466 60.9174 29.828 61.1237C30.0096 61.33 30.0908 61.4343 30.119 61.4549C30.147 61.4756 30.1395 61.5439 30.0361 61.4946C29.9329 61.4451 29.7988 61.3491 29.7841 61.2709C29.7695 61.1927 29.7001 61.035 29.622 61.0382C29.5439 61.0416 29.2477 61.3369 29.2026 61.3484C29.1575 61.3598 29.1622 61.4631 29.2849 61.4385C29.4075 61.4139 29.537 61.2903 29.67 61.3665C29.8029 61.4426 29.8913 61.5401 29.9698 61.5707C30.0481 61.6013 30.0476 61.6834 30.0753 61.7281C30.1031 61.7728 30.1527 61.7729 30.2764 61.7341C30.3999 61.6954 30.4609 61.6321 30.3659 61.4935C30.271 61.3547 29.9776 61.0418 29.7128 60.8755C29.4478 60.7092 29.2653 60.633 29.3419 60.7257ZM28.9979 61.1088C29.0445 61.2091 29.0838 61.2246 29.0953 61.1372C29.1069 61.0497 28.9525 60.8202 29.0136 60.7909C29.0749 60.7617 29.1298 60.725 29.1495 60.6747C29.1692 60.6244 29.2162 60.6427 29.2985 60.6169C29.381 60.591 29.4843 60.5928 29.4731 60.3901C29.4621 60.1875 29.3566 60.0061 29.4362 59.8486C29.5158 59.6911 29.4701 59.6926 29.6018 59.7489C29.7334 59.8051 29.8275 59.8419 29.7852 59.927C29.7429 60.0119 29.606 59.9924 29.71 60.2119C29.8139 60.4315 29.7996 60.4452 29.7684 60.5249C29.7373 60.6046 29.7757 60.726 29.908 60.7342C30.0403 60.7424 30.1343 60.6873 30.1412 60.5883C30.1482 60.4896 30.1113 60.4799 30.1277 60.4379C30.1441 60.3961 30.1982 60.2576 30.0804 60.1197C29.9626 59.9817 29.9306 59.9596 30.0796 60.0178C30.2286 60.0759 30.7057 60.277 30.7929 60.2966C30.8802 60.3163 30.8599 60.3566 30.7882 60.4591C30.7165 60.5617 30.7057 60.601 30.8051 60.5431C30.9045 60.4854 31.0945 60.3806 31.1036 60.2535C31.1126 60.1265 31.1273 60.0888 30.9376 60.0195C30.7476 59.9501 30.0835 59.6953 29.9343 59.6032C29.7851 59.511 29.6403 59.4883 29.5981 59.5734C29.5558 59.6584 29.4772 59.7437 29.4957 59.5575C29.5143 59.3714 29.5815 58.6674 29.477 58.6459C29.3724 58.6243 29.269 58.7387 29.2839 58.8508C29.2987 58.9631 29.3391 59.3222 29.2808 59.6911C29.2225 60.0601 29.2586 60.4418 29.1788 60.4493C29.0991 60.4568 29.0421 60.3716 28.981 60.4009C28.9197 60.4301 28.1143 60.7682 28.1502 60.85C28.186 60.9317 28.3641 60.8805 28.4482 60.9084C28.5321 60.9364 28.741 60.8874 28.7989 60.8665C28.8567 60.8456 28.8786 60.9171 28.9979 61.1088ZM32.5136 57.3001C32.5456 57.3366 32.577 57.3157 32.553 57.2677C32.5288 57.2196 32.4677 57.2568 32.5136 57.3001ZM32.3665 57.0759C32.5129 57.0373 32.5512 57.1683 32.5885 57.1594C32.626 57.1505 32.6574 57.1233 32.7125 57.1754C32.7675 57.2274 32.9861 57.1307 33.1228 57.121C33.2595 57.1112 33.1253 56.9529 32.9024 56.7107C32.6796 56.4686 32.4113 56.1396 32.3362 55.9864C32.2608 55.8332 32.2539 56.098 32.2681 56.1873C32.2822 56.2764 32.2152 56.3963 32.186 56.4839C32.1569 56.5714 32.183 56.6886 32.1833 56.669C32.1836 56.6498 32.2895 56.6118 32.3608 56.6284C32.4319 56.6451 32.3798 57.0127 32.3665 57.0759ZM31.6471 56.4216C31.7073 56.5541 31.7032 56.828 31.5741 56.9586C31.4449 57.0892 31.3457 57.0901 31.4284 57.1557C31.5112 57.2212 31.7539 57.1727 31.8149 57.0409C31.8757 56.909 31.8979 56.8794 31.9405 56.9322C31.9832 56.9853 31.992 57.0188 31.9334 57.2033C31.8749 57.3879 31.8865 57.4368 31.9495 57.3701C32.0126 57.3034 32.0231 57.2249 32.0909 57.251C32.1588 57.2773 32.2708 57.2506 32.2138 57.121C32.1568 56.9914 32.1284 57.0276 32.1546 56.9262C32.181 56.8249 32.1848 56.7717 32.2491 56.8324C32.3135 56.893 32.3038 56.9092 32.2999 56.9624C32.2961 57.0156 32.3202 57.4804 32.3703 57.4457C32.4204 57.411 32.5166 57.4133 32.4935 57.5052C32.4705 57.597 32.5612 57.5439 32.6011 57.5815C32.6408 57.6191 32.7076 57.7137 32.7738 57.6437C32.8399 57.5737 32.9304 57.5391 32.8851 57.4584C32.8398 57.3778 32.6964 57.4253 32.7224 57.3426C32.7485 57.2599 32.8625 57.3046 33.0152 57.2594C33.1679 57.2143 33.2078 57.2456 33.2923 57.1929C33.3769 57.1402 33.4217 57.0561 33.3575 56.9829C33.2934 56.9098 33.261 56.7909 33.1634 56.6796C33.0658 56.5684 32.7684 56.3255 32.6749 56.1549C32.5813 55.9844 32.347 55.6746 32.2451 55.8499C32.1431 56.0251 32.1443 56.3672 32.0927 56.5014C32.041 56.6358 32.0377 56.6517 31.9933 56.5148C31.9487 56.3781 31.8979 56.248 31.8797 56.2245C31.8612 56.2009 31.996 56.1197 31.9819 56.018C31.968 55.9164 32.0461 55.8828 31.9344 55.8784C31.8228 55.8741 31.7326 55.8898 31.6188 55.8202C31.5051 55.7507 31.3547 55.8423 31.2862 55.8659C31.2176 55.8894 31.242 55.9126 31.3554 56.0071C31.4689 56.1017 31.5148 56.145 31.6471 56.4216ZM31.9017 57.6721C31.9478 57.6968 32.0362 57.7994 32.0543 57.8415C32.0722 57.8837 32.1668 57.9859 32.2816 57.9869C32.3964 57.9879 32.4854 57.8385 32.4092 57.76C32.3327 57.6815 31.7544 57.5521 31.9017 57.6721ZM36.11 53.9479C36.1891 53.9928 36.2859 54.0118 36.4139 53.9802C36.5417 53.9486 36.676 53.9244 36.6478 54.0536C36.6195 54.1828 36.3884 54.8216 36.3504 54.9045C36.3123 54.9873 36.2031 54.9975 36.1373 55.0598C36.0715 55.1221 35.8426 55.2017 35.7385 55.215C35.6345 55.2282 35.663 55.2971 35.8071 55.3413C35.9511 55.3853 35.9797 55.4541 36.3242 55.2841C36.6688 55.1139 37.0321 54.9004 37.1342 54.8787C37.2363 54.8569 37.2782 54.8128 37.3223 54.7154C37.3666 54.6181 37.2235 54.5559 37.0831 54.5507C36.9427 54.5454 36.8966 54.6344 36.7536 54.7264C36.6107 54.8184 36.4427 54.8584 36.5314 54.7076C36.62 54.5567 36.9978 53.9528 37.0669 53.8413C37.136 53.7297 37.1181 53.6675 37.0079 53.6074C36.8974 53.5474 36.8648 53.5895 36.7822 53.6597C36.6996 53.7301 36.426 53.841 36.2874 53.8223C36.1488 53.8033 35.9935 53.9243 36.11 53.9479ZM42.1615 53.7694C42.0762 53.7784 42.0397 53.9621 42.1558 54.0547C42.272 54.1471 42.2965 54.1173 42.4276 54.087C42.5588 54.0565 42.5416 53.9792 42.5624 53.8749C42.5832 53.7705 42.8448 53.6662 42.9461 53.5994C43.0474 53.5326 42.9364 53.4152 42.8743 53.4244C42.8121 53.4339 42.6895 53.4443 42.6827 53.5253C42.6758 53.6066 42.6566 53.6809 42.4593 53.7632C42.2622 53.8457 42.2038 53.8124 42.1615 53.7694ZM41.6252 54.3922C41.5734 54.3732 41.5013 54.4328 41.5005 54.5064C41.4998 54.5801 41.6385 54.5598 41.6962 54.619C41.754 54.6782 41.884 54.6301 41.9923 54.5518C42.1006 54.4734 42.0802 54.5996 42.0628 54.6874C42.0455 54.775 41.9812 54.7711 41.9056 54.8255C41.8299 54.8799 41.9123 54.9787 41.9031 55.0247C41.8941 55.0706 41.7904 55.1022 41.7666 55.1756C41.7428 55.249 41.6934 55.287 41.5861 55.3613C41.4787 55.4354 41.5229 55.4919 41.735 55.5688C41.9469 55.6455 42.2218 55.5915 42.3224 55.5289C42.4229 55.4664 42.2661 55.3919 42.1455 55.4157C42.0248 55.4396 41.9079 55.4684 41.8386 55.4199C41.7694 55.3715 42.0332 55.211 42.1622 55.0978C42.2913 54.9845 42.2498 54.8895 42.2047 54.8371C42.1593 54.7846 42.1957 54.7182 42.272 54.6378C42.3481 54.5572 42.3189 54.495 42.2668 54.4066C42.2148 54.3181 42.1428 54.3777 41.901 54.4512C41.6593 54.5248 41.6685 54.4312 41.6252 54.3922ZM41.8464 53.581C42.0183 53.1122 41.7589 53.3205 41.5969 53.4836C41.4346 53.6469 40.8933 53.9692 40.8491 54.0515C40.8048 54.134 40.7757 54.1412 40.6596 54.2354C40.5435 54.3296 40.579 54.3149 40.6561 54.417C40.7332 54.5191 40.8436 54.4065 40.9284 54.4233C41.013 54.4401 40.9385 54.6987 40.9114 54.789C40.8842 54.8791 40.5989 55.0091 40.4048 55.1226C40.2108 55.236 40.2142 55.2888 40.2662 55.3772C40.3182 55.4657 40.3866 55.5183 40.5254 55.4025C40.6643 55.2869 40.741 55.2978 40.8634 55.335C40.9858 55.3723 40.9978 55.2185 41.0376 55.0874C41.0775 54.9564 41.2894 54.8465 41.3984 54.6945C41.5074 54.5425 41.3955 54.6158 41.2543 54.6963C41.1131 54.7768 41.1091 54.6806 41.1328 54.5376C41.1566 54.3948 41.325 54.2937 41.4473 54.2137C41.5698 54.1338 41.5724 54.004 41.5232 53.9248C41.474 53.8457 41.4226 53.918 41.3318 53.978C41.2412 54.0382 41.0872 54.1597 41.0245 54.1255C40.9616 54.0913 41.0607 53.9893 41.1011 53.9497C41.1414 53.9099 41.7484 53.6309 41.8464 53.581ZM46.4003 56.3184C46.209 56.2775 46.1754 56.2992 46.1801 56.3459C46.1847 56.3926 46.2391 56.4394 46.3211 56.4707C46.4032 56.502 46.4152 56.3932 46.4003 56.3184ZM46.5969 56.5274C46.5574 56.5553 46.4551 56.5706 46.414 56.5487C46.3727 56.5269 46.3415 56.5206 46.3318 56.6077C46.3222 56.6947 46.3304 56.7571 46.4845 56.7076C46.6386 56.6581 46.6628 56.4817 46.5969 56.5274ZM46.3371 56.7694C46.2744 56.7568 46.2213 56.7537 46.2607 56.816C46.3001 56.8782 46.4512 56.832 46.3371 56.7694ZM46.7169 56.5774C46.6941 56.6396 46.6368 56.6986 46.5663 56.7326C46.4957 56.7667 46.4454 56.8444 46.6499 56.8138C46.8543 56.7831 46.9625 56.7554 46.9219 56.6558C46.8813 56.5561 46.8052 56.501 46.7169 56.5774ZM45.6905 56.992C45.7357 57.0419 45.7934 57.0918 45.6605 57.1257C45.5278 57.1596 45.5174 57.2218 45.3967 57.1469C45.276 57.0718 45.1264 56.9749 45.0708 56.8908C45.0151 56.8067 44.9833 56.8782 44.9678 56.9776C44.9524 57.0773 44.9759 57.1302 45.1203 57.1679C45.2646 57.2056 45.3771 57.2184 45.3624 57.3365C45.3475 57.4547 45.2946 57.548 45.1484 57.557C45.0024 57.5659 44.9835 57.4632 44.9718 57.3916C44.9602 57.3199 44.9252 57.5039 44.9488 57.6404C44.9725 57.7768 44.8976 57.7895 45.0888 57.8306C45.2801 57.8714 45.3982 57.6726 45.4787 57.564C45.5592 57.4551 45.5577 57.4054 45.6508 57.4959C45.7441 57.5864 45.9616 57.7673 45.9977 57.6337C46.0339 57.5 45.8466 57.487 45.7703 57.4371C45.694 57.3871 45.6659 57.2874 45.7614 57.2596C45.8571 57.2319 45.9914 57.2477 46.08 57.1951C46.1686 57.1423 46.131 57.1362 46.2171 57.1955C46.303 57.2549 46.7083 57.3646 46.7474 57.3243C46.7865 57.284 46.7913 57.144 46.6718 57.1064C46.5523 57.0687 46.4893 57.0499 46.5087 56.9721C46.528 56.8943 46.7105 56.8606 46.8417 56.8734C46.973 56.8861 47.376 56.9339 47.3425 56.7626C47.3089 56.5914 47.0405 56.572 46.9083 56.5281C46.7763 56.4842 46.7298 56.4935 46.7057 56.5182C46.6815 56.5431 46.6234 56.4823 46.7027 56.4257C46.7817 56.3692 46.9569 56.3945 47.0325 56.4195C47.1079 56.4447 47.2016 56.451 47.2382 56.3299C47.2747 56.2085 47.2547 56.0746 47.1607 56.1523C47.0668 56.2298 46.8225 56.2821 46.7257 56.2726C46.6289 56.263 46.6517 56.2972 46.5801 56.1975C46.5083 56.0977 46.499 56.1009 46.4602 56.1475C46.4211 56.194 46.4226 56.2376 46.3538 56.2312C46.2852 56.2249 46.1676 56.2493 46.1898 56.1623C46.2118 56.0753 46.3047 56.063 46.3973 56.0321C46.4896 56.0013 46.5332 56.0013 46.5384 55.8738C46.5436 55.7462 46.4669 55.5874 46.4089 55.7179C46.3508 55.8485 46.2237 55.9602 46.1513 56.0346C46.079 56.1092 46.0379 56.1837 45.9475 56.1804C45.8571 56.177 45.8037 56.1614 45.9043 56.0964C46.0049 56.031 46.0958 55.9566 46.0874 55.8883C46.079 55.8198 46.0053 55.7605 45.9803 55.8507C45.9553 55.9408 45.9388 56.0091 45.8187 56.0493C45.6986 56.0895 45.597 56.1236 45.5836 56.1951C45.5705 56.2666 45.7017 56.2794 45.8437 56.2485C45.9861 56.2179 46.1442 56.1964 46.1105 56.3084C46.0766 56.4204 46.0947 56.4016 46.0078 56.4076C45.9208 56.4137 45.8849 56.4571 45.9202 56.4915C45.9556 56.5258 46.1452 56.5169 46.1482 56.6103C46.1512 56.7036 46.1133 56.7813 46.0118 56.7251C45.9105 56.6689 45.7956 56.5877 45.7312 56.5191C45.6667 56.4504 45.6272 56.4783 45.6117 56.5779C45.5962 56.6775 45.7381 56.7306 45.8668 56.7652C45.9956 56.7997 46.1535 56.8685 46.1563 56.9557C46.1591 57.0428 46.2507 56.987 46.3419 57.0153C46.4331 57.0435 46.4126 57.084 46.3894 57.1336C46.3661 57.1834 46.1694 57.1674 45.93 57.0796C45.6905 56.992 45.6914 56.8301 45.6905 56.992ZM45.397 56.1947C45.4704 56.1575 45.2052 56.1412 45.0254 56.1657C44.8456 56.1901 44.8539 56.2523 44.817 56.3612C44.7801 56.47 44.8043 56.5479 44.8719 56.5169C44.9394 56.486 45.1188 56.4491 45.2551 56.4308C45.3915 56.4124 45.2289 56.3933 45.187 56.3465C45.145 56.2998 45.3335 56.2597 45.397 56.1947ZM49.324 60.0618C49.213 59.9737 49.1087 59.9354 49.1419 60.0145C49.1753 60.0935 49.3009 60.1584 49.3248 60.2498C49.3486 60.3413 49.4769 60.4711 49.5335 60.3548C49.5899 60.2385 49.6218 59.8993 49.324 60.0618ZM48.7755 59.8406C48.8589 59.7254 48.2428 59.7135 48.1743 59.791C48.1058 59.8688 48.1498 59.9397 48.2649 59.956C48.38 59.9723 48.4511 59.9738 48.5311 60.0762C48.6112 60.1786 48.8587 60.3091 48.8665 60.3631C48.8744 60.4173 48.7888 60.3966 48.6082 60.2971C48.4276 60.1976 48.2335 60.1681 48.117 60.2182C48.0002 60.2684 48.1767 60.3551 48.2851 60.4063C48.3936 60.4576 48.426 60.3488 48.4942 60.3559C48.5625 60.363 48.8593 60.5254 49.013 60.6662C49.1665 60.8071 49.2484 60.7865 49.2501 60.6353C49.2518 60.4841 49.0246 60.3191 48.7855 60.1153C48.5463 59.9114 48.7083 59.9084 48.7755 59.8406ZM47.7581 60.1551C47.7032 60.2048 47.7311 60.281 47.6453 60.2886C47.5595 60.2963 47.4511 60.2874 47.2919 60.2002C47.1329 60.1128 47.0606 60.1069 47.043 60.15C47.0255 60.1931 47.1216 60.2623 47.3545 60.3597C47.5872 60.4572 47.6876 60.5109 47.603 60.5794C47.5185 60.6479 47.2204 60.6553 47.1642 60.828C47.1083 61.0006 47.4039 61.8742 47.5189 61.9468C47.634 62.0197 47.7867 61.9866 47.8541 61.7915C47.9216 61.5964 48.0041 61.3357 47.9019 61.4473C47.7998 61.5588 47.7256 61.7465 47.6082 61.6652C47.4904 61.5839 47.3667 61.2549 47.3968 61.0244C47.427 60.7938 47.6549 60.6765 47.722 60.6509C47.789 60.6255 47.6622 60.5 47.8121 60.5148C47.962 60.5297 48.0635 60.6301 48.1026 60.5426C48.1416 60.4553 48.0697 60.3506 47.9693 60.325C47.8689 60.2996 47.8429 60.03 47.7581 60.1551ZM48.3191 59.2191C48.3672 59.289 48.4085 59.394 48.154 59.3832C47.8995 59.3723 47.3759 59.4023 47.1841 59.4662C46.9924 59.5302 46.9171 59.6711 46.8955 59.7437C46.8739 59.8163 47.0854 59.8309 47.2073 59.798C47.3293 59.765 47.7659 59.7525 47.8743 59.7473C47.9829 59.7419 47.9918 59.6885 47.9145 59.6648C47.8373 59.641 47.8121 59.5311 47.9219 59.5161C48.0317 59.5009 48.6653 59.4558 48.8018 59.5124C48.9384 59.569 49.0321 59.5307 48.9602 59.3835C48.8883 59.2362 48.5595 58.9565 48.4686 58.9329C48.3776 58.9092 48.1937 59.0272 48.3191 59.2191ZM48.9334 64.7505L48.9524 64.4805L49.1188 64.4923C49.1395 64.5196 49.1579 64.559 49.1739 64.6107C49.1902 64.6621 49.1965 64.7142 49.1929 64.7669C49.1887 64.8275 49.1715 64.8837 49.1418 64.9358C49.112 64.9879 49.0693 65.0261 49.0137 65.0506C48.9582 65.0751 48.8905 65.0845 48.8108 65.0789C48.7461 65.0744 48.6872 65.0585 48.6336 65.0313C48.6025 65.0151 48.5744 64.9939 48.5493 64.9672C48.5243 64.9403 48.5048 64.9062 48.4912 64.8644C48.4776 64.823 48.4727 64.7742 48.4765 64.7185C48.4798 64.6723 48.4906 64.6305 48.5089 64.5938C48.5273 64.5568 48.5501 64.529 48.5774 64.5103C48.6049 64.4917 48.6418 64.4771 48.6883 64.4664L48.6667 64.3547C48.6055 64.3665 48.5552 64.3862 48.5156 64.4141C48.4761 64.442 48.444 64.482 48.4195 64.5342C48.3947 64.5865 48.3802 64.6458 48.3755 64.7122C48.3691 64.8036 48.3818 64.8859 48.4132 64.9585C48.445 65.0313 48.4971 65.089 48.5701 65.1315C48.6427 65.1743 48.7224 65.1988 48.8094 65.2048C48.8972 65.211 48.978 65.1977 49.0517 65.165C49.1252 65.1324 49.1836 65.0805 49.2263 65.0093C49.2691 64.9384 49.2935 64.8576 49.2998 64.7673C49.3045 64.7006 49.2975 64.6346 49.2785 64.5694C49.2595 64.5043 49.229 64.4402 49.1868 64.3773L48.8555 64.3541L48.829 64.7433L48.9334 64.7505ZM49.044 66.4207L49.0624 66.3052L48.3673 66.1952L49.1381 65.8274L49.1575 65.7039L48.2731 65.564L48.2548 65.6793L48.9492 65.7893L48.1791 66.157L48.1595 66.2806L49.044 66.4207ZM48.8619 67.04L48.8956 66.923L48.0348 66.6761L48.0012 66.7931L48.8619 67.04ZM48.0048 67.919L48.0987 67.6744C48.1186 67.6224 48.129 67.5796 48.1297 67.5464C48.1305 67.5129 48.1223 67.4842 48.1052 67.4603C48.0881 67.4362 48.066 67.419 48.0391 67.4086C47.9994 67.3934 47.9614 67.3956 47.9245 67.4155C47.8877 67.4351 47.8571 67.4768 47.8326 67.5407L47.7282 67.8127L48.0048 67.919ZM48.4282 68.2119L48.4718 68.0983L48.1006 67.9557L48.1513 67.8238C48.1627 67.7943 48.1721 67.7739 48.1795 67.7619C48.1905 67.7457 48.2046 67.7315 48.2219 67.7185C48.2388 67.7057 48.2649 67.6937 48.2998 67.6825C48.3346 67.671 48.3836 67.6583 48.4463 67.6443L48.6641 67.5974L48.7191 67.4543L48.434 67.5163C48.3783 67.5292 48.329 67.5463 48.2867 67.5683C48.2668 67.5785 48.2441 67.5962 48.2187 67.6208C48.2392 67.5343 48.2368 67.4632 48.2112 67.4082C48.1858 67.3528 48.1435 67.3141 48.0842 67.2913C48.0381 67.2737 47.9915 67.2694 47.9442 67.2786C47.897 67.288 47.8585 67.3098 47.828 67.3438C47.7978 67.3779 47.768 67.4332 47.7384 67.5098L47.592 67.8909L48.4282 68.2119ZM47.9048 69.2541L48.2168 68.6416L48.1227 68.5938L47.8659 69.0974L47.5943 68.9589L47.8257 68.505L47.732 68.4575L47.5007 68.9114L47.2564 68.7869L47.5034 68.3022L47.4092 68.2542L47.107 68.8474L47.9048 69.2541ZM47.2537 70.2235L47.638 69.6538L47.5503 69.5946L47.2341 70.0636L46.9815 69.8931L47.2664 69.4708L47.1791 69.4119L46.8944 69.8343L46.6669 69.6809L46.9712 69.2299L46.8836 69.1708L46.5113 69.7227L47.2537 70.2235ZM46.4625 71.1712L46.5377 71.0817L45.9986 70.6293L46.8484 70.711L46.9288 70.6153L46.2429 70.0398L46.1677 70.1292L46.7064 70.5813L45.8569 70.4998L45.7765 70.5955L46.4625 71.1712ZM46.003 71.6132L46.0905 71.5284L45.4685 70.8844L45.381 70.969L46.003 71.6132ZM45.095 71.919L45.3082 71.7522L45.4109 71.8838C45.4042 71.9175 45.3874 71.9574 45.3598 72.0039C45.3324 72.0504 45.298 72.0901 45.2563 72.1225C45.2084 72.1599 45.1553 72.1848 45.0966 72.1975C45.038 72.2104 44.981 72.2043 44.9256 72.1793C44.8702 72.1543 44.818 72.1104 44.7688 72.0475C44.7289 71.9964 44.7012 71.9419 44.6855 71.8839C44.6766 71.85 44.6738 71.8149 44.6768 71.7784C44.68 71.7417 44.6924 71.7045 44.7144 71.6665C44.7361 71.6287 44.769 71.5921 44.8129 71.5578C44.8494 71.5294 44.8878 71.5096 44.9272 71.4985C44.967 71.4874 45.003 71.4858 45.0352 71.4936C45.0675 71.5015 45.103 71.5191 45.1421 71.5466L45.2106 71.4557C45.1609 71.4181 45.1126 71.3939 45.0653 71.3833C45.0183 71.3726 44.9669 71.3755 44.9116 71.392C44.8564 71.4087 44.8024 71.4375 44.75 71.4785C44.6779 71.535 44.6252 71.5994 44.5923 71.6713C44.5593 71.7436 44.5513 71.8211 44.5686 71.9037C44.5854 71.9863 44.6207 72.062 44.6743 72.1307C44.7284 72.2 44.7924 72.2512 44.866 72.2842C44.9395 72.3169 45.017 72.3255 45.0985 72.3096C45.1799 72.2939 45.2563 72.2579 45.3275 72.2023C45.3803 72.1611 45.4246 72.1117 45.4604 72.0541C45.4961 71.9963 45.5233 71.9309 45.5419 71.8574L45.3374 71.5957L45.0304 71.8362L45.095 71.919ZM43.9358 73.1222L44.0359 73.0621L43.6734 72.4589L44.4505 72.813L44.5577 72.7486L44.0966 71.981L43.9963 72.0411L44.3585 72.6439L43.5817 72.2903L43.4745 72.3546L43.9358 73.1222ZM42.8834 73.6301L43.5061 73.3396L43.4615 73.2438L42.949 73.4827L42.8202 73.2066L43.282 72.9913L43.2376 72.896L42.7758 73.1113L42.66 72.8628L43.153 72.6329L43.1083 72.5371L42.5048 72.8186L42.8834 73.6301ZM41.5919 74.0677L41.7085 74.0319L41.5895 73.643L42.0027 73.5166L41.9718 73.4155L41.5586 73.5418L41.4776 73.2767L41.9551 73.1307L41.9242 73.0297L41.3299 73.2112L41.5919 74.0677ZM40.307 73.8758C40.3259 73.9823 40.3699 74.0606 40.4394 74.1115C40.5091 74.1622 40.5882 74.1798 40.6768 74.1643C40.7672 74.1483 40.8361 74.1044 40.8835 74.0323C40.931 73.9603 40.9448 73.8673 40.9248 73.7538C40.9121 73.6822 40.8885 73.6218 40.854 73.5727C40.8197 73.5233 40.7758 73.4882 40.7228 73.4672C40.6695 73.4464 40.6129 73.4412 40.5532 73.4516C40.4682 73.4666 40.4 73.5079 40.3489 73.5754C40.2976 73.6428 40.2837 73.7433 40.307 73.8758ZM40.183 73.8959C40.1966 73.9733 40.2269 74.0437 40.2738 74.1068C40.3206 74.1701 40.3813 74.2159 40.4556 74.2441C40.5299 74.2725 40.6096 74.2791 40.6952 74.2639C40.7739 74.2501 40.844 74.2189 40.9058 74.1707C40.9674 74.1223 41.0106 74.0597 41.0353 73.9826C41.0599 73.9055 41.0643 73.8222 41.0484 73.7325C41.033 73.6446 41.0014 73.5686 40.954 73.5054C40.9064 73.442 40.8455 73.3969 40.7714 73.3697C40.6975 73.3428 40.6185 73.3366 40.5349 73.3512C40.407 73.3738 40.3099 73.4337 40.2436 73.5307C40.1774 73.6278 40.1572 73.7495 40.183 73.8959ZM39.1425 74.3989L39.2642 74.3943L39.2509 74.0155L39.6001 73.4867L39.4583 73.4916L39.2892 73.761C39.2519 73.821 39.2203 73.8748 39.1943 73.9227C39.1636 73.8731 39.1308 73.8237 39.0955 73.7745L38.9046 73.5109L38.7566 73.5161L39.1293 74.0197L39.1425 74.3989ZM38.0249 74.3778L38.1463 74.3883L38.2151 73.6015L38.5187 73.6282L38.5279 73.5228L37.8008 73.4592L37.7915 73.5645L38.0937 73.5909L38.0249 74.3778ZM37.1477 74.2569L37.2678 74.2783L37.4232 73.3962L37.3033 73.375L37.1477 74.2569ZM36.0128 73.7311C36.0007 73.7897 36.0052 73.846 36.0257 73.8992C36.0464 73.9529 36.0814 73.9973 36.131 74.0329C36.1805 74.0687 36.2459 74.0959 36.3271 74.1145C36.391 74.1294 36.4513 74.1312 36.5078 74.1202C36.5644 74.1092 36.611 74.0863 36.6478 74.0516C36.6847 74.017 36.7084 73.9764 36.719 73.9299C36.73 73.8832 36.7271 73.8389 36.7105 73.7972C36.6939 73.7556 36.6621 73.7171 36.6153 73.6814C36.5831 73.6573 36.5211 73.6236 36.4295 73.5798C36.3379 73.5366 36.283 73.502 36.2649 73.4763C36.2463 73.451 36.2405 73.4225 36.2478 73.3909C36.2561 73.3551 36.2798 73.328 36.3184 73.3099C36.3574 73.292 36.4125 73.2912 36.4844 73.3078C36.5533 73.3236 36.6021 73.3497 36.631 73.3861C36.6598 73.4223 36.6708 73.4689 36.6643 73.5254L36.7801 73.5434C36.7898 73.4918 36.7856 73.4423 36.7678 73.3957C36.7498 73.3489 36.7178 73.3093 36.6717 73.2767C36.6256 73.244 36.5695 73.2201 36.503 73.2048C36.4424 73.191 36.3854 73.1883 36.3314 73.1966C36.2774 73.2051 36.2331 73.2255 36.1987 73.2579C36.1641 73.2901 36.1418 73.3284 36.1317 73.3723C36.1224 73.4126 36.1246 73.451 36.138 73.4882C36.1517 73.5254 36.1772 73.56 36.2151 73.5916C36.2442 73.6163 36.2979 73.6478 36.3757 73.6862C36.4538 73.7244 36.5036 73.7508 36.5257 73.7656C36.5599 73.788 36.583 73.8114 36.5945 73.8356C36.6062 73.8599 36.609 73.8856 36.6025 73.9131C36.5964 73.94 36.582 73.9629 36.5599 73.982C36.5377 74.0007 36.5077 74.0126 36.4699 74.0178C36.4322 74.0229 36.3908 74.0202 36.3455 74.0096C36.2944 73.9979 36.2505 73.9787 36.2137 73.9521C36.177 73.9254 36.1521 73.8959 36.1391 73.8635C36.1262 73.8308 36.1221 73.7923 36.1269 73.7474L36.0128 73.7311ZM35.1412 73.1679L35.3842 73.2659C35.4356 73.2868 35.4782 73.298 35.5116 73.2993C35.5451 73.3005 35.5738 73.293 35.5981 73.2763C35.6224 73.2595 35.6399 73.2378 35.6509 73.211C35.6666 73.1717 35.6652 73.1336 35.6461 73.0963C35.6271 73.0592 35.5858 73.0279 35.5224 73.0023L35.2522 72.8931L35.1412 73.1679ZM34.8409 73.586L34.9539 73.6316L35.1028 73.2629L35.2339 73.316C35.263 73.3277 35.2834 73.3374 35.2953 73.3451C35.311 73.3564 35.3251 73.3708 35.3378 73.3883C35.3505 73.4055 35.362 73.4317 35.3725 73.4669C35.3835 73.5017 35.3952 73.5511 35.4081 73.614L35.4513 73.8326L35.5935 73.89L35.5362 73.604C35.5243 73.548 35.508 73.4985 35.487 73.4557C35.477 73.4357 35.4599 73.4129 35.4356 73.3868C35.5218 73.4088 35.5929 73.4077 35.6484 73.3831C35.7041 73.3585 35.7436 73.3169 35.7674 73.258C35.7858 73.2123 35.791 73.1658 35.7825 73.1184C35.7739 73.0711 35.753 73.0319 35.7194 73.0012C35.6859 72.9702 35.6311 72.9393 35.5549 72.9086L35.1764 72.7557L34.8409 73.586ZM33.7891 73.0704L34.3959 73.3931L34.4455 73.2997L33.9462 73.0343L34.0894 72.7651L34.5393 73.0044L34.5886 72.9116L34.1387 72.6723L34.2675 72.4302L34.7478 72.6856L34.7974 72.5923L34.2095 72.2798L33.7891 73.0704ZM33.0196 72.5944L33.1244 72.6625L33.9146 72.108L33.8103 72.0403L33.2475 72.4504C33.205 72.4811 33.1645 72.5132 33.1258 72.5461C33.1399 72.5012 33.153 72.4511 33.1653 72.397L33.3188 71.7212L33.2081 71.6492L33.0196 72.5944ZM32.3003 72.0473L32.3951 72.1241L32.9586 71.4281L32.864 71.3514L32.3003 72.0473ZM31.3774 71.2017L31.4615 71.2829L31.9504 70.7767L31.8094 71.6189L31.8994 71.7056L32.5214 71.0616L32.4373 70.9805L31.949 71.4862L32.0894 70.6443L31.9996 70.5576L31.3774 71.2017ZM31.6741 70.1933L31.2612 70.5043C31.1715 70.572 31.0993 70.6024 31.0452 70.5958C30.9905 70.5892 30.9362 70.55 30.8822 70.4785C30.8508 70.4367 30.832 70.3952 30.8262 70.3544C30.8206 70.3135 30.8277 70.2757 30.8483 70.2417C30.8687 70.2078 30.91 70.1673 30.9722 70.1206L31.3848 69.8094L31.3115 69.7122L30.8982 70.0238C30.8225 70.0808 30.7698 70.1349 30.7403 70.1867C30.7105 70.2384 30.7007 70.295 30.7108 70.3561C30.7205 70.4172 30.7517 70.4825 30.8035 70.5512C30.8568 70.6223 30.9131 70.6695 30.9727 70.693C31.0321 70.7168 31.0891 70.721 31.144 70.706C31.199 70.6908 31.2624 70.6564 31.3342 70.6021L31.7475 70.2908L31.6741 70.1933ZM29.7699 68.98L29.8267 69.0824L30.4421 68.7411L30.0611 69.5054L30.1217 69.6146L30.9051 69.1805L30.8483 69.0783L30.2334 69.4192L30.6137 68.6553L30.5533 68.5459L29.7699 68.98ZM29.6582 67.9348L29.7852 68.2201L29.9725 68.0313C30.0295 67.9742 30.0771 67.9289 30.1158 67.8963C30.0584 67.909 29.9996 67.9169 29.9392 67.9206L29.6582 67.9348ZM29.2141 67.8419L29.2668 67.9601L29.5557 67.9421L29.7124 68.2938L29.5083 68.5023L29.5647 68.6292L30.2294 67.9206L30.1761 67.8007L29.2141 67.8419ZM28.8597 66.7607L28.8958 66.8719L29.565 66.6545L29.0452 67.3319L29.0839 67.4509L29.9356 67.1742L29.8994 67.0629L29.2307 67.2802L29.75 66.603L29.7113 66.484L28.8597 66.7607ZM28.6207 65.6297L28.7283 66.3085L28.8328 66.2919L28.7443 65.7335L29.0454 65.6859L29.1251 66.189L29.2288 66.1726L29.1491 65.6694L29.4199 65.6266L29.505 66.1637L29.6094 66.1473L29.5053 65.4897L28.6207 65.6297ZM28.4967 64.4059L28.5052 64.5275L28.9261 64.4981L28.9595 64.9755L28.5386 65.0051L28.547 65.1267L29.4405 65.0641L29.4318 64.9426L29.0649 64.9682L29.0317 64.4908L29.3986 64.4651L29.39 64.3434L28.4967 64.4059ZM38.8989 56.0374C34.5021 56.0374 30.9364 59.6032 30.9364 64C30.9364 68.3968 34.5021 71.9625 38.8989 71.9625C43.2958 71.9625 46.8614 68.3968 46.8614 64C46.8614 59.6032 43.2958 56.0374 38.8989 56.0374ZM38.8989 55.8821C34.4164 55.8821 30.7811 59.5173 30.7811 64C30.7811 68.4826 34.4164 72.1178 38.8989 72.1178C43.3816 72.1178 47.0169 68.4826 47.0169 64C47.0169 59.5173 43.3816 55.8821 38.8989 55.8821ZM38.8422 66.9714V70.1338L42.7644 68.3726V65.1289C42.6157 65.2341 42.4484 65.3443 42.2597 65.4599C41.1593 66.1349 39.9372 66.6239 38.8422 66.9714ZM42.7644 58.0038L38.8422 59.7652V66.4545C41.204 65.475 42.2911 64.3959 42.7644 63.7553V62.4886C42.7225 62.5052 42.6771 62.5012 42.6285 62.4697C42.2694 62.2368 41.1236 61.9262 41.0461 62.1688C40.9684 62.4115 41.1237 63.2714 40.2015 63.3338C39.279 63.3962 38.5801 62.5377 39.4344 61.7999C40.1524 61.1799 42.0151 60.9729 42.7644 61.1402V58.0038ZM38.8989 52.1011C45.4694 52.1011 50.7979 57.4296 50.7979 64C50.7979 70.5705 45.4694 75.8989 38.8989 75.8989C32.3285 75.8989 27 70.5705 27 64C27 57.4296 32.3285 52.1011 38.8989 52.1011Z" fill="#0A338A"/>
<path fill-rule="evenodd" clip-rule="evenodd" d="M35.5802 67.7319C35.5802 67.7319 36.6958 67.5881 38.1821 67.1692V68.9655L35.5802 70.134V67.7319ZM35.5802 63.5476V67.2497C35.4253 67.2678 35.2669 67.2831 35.1046 67.295C32.8715 67.46 32.619 66.5377 33.0948 65.7805C33.5705 65.0232 34.6676 64.101 35.454 63.6252C35.4999 63.5975 35.5418 63.5716 35.5802 63.5476ZM39.5025 58.0039L35.5802 59.7654V63.4214C35.5802 63.4214 33.5024 64.6349 33.0462 65.567C32.5899 66.4989 32.3959 67.3532 33.8326 67.5281C35.2696 67.7028 36.7937 67.4213 38.7646 66.7222C40.7354 66.0232 42.5412 64.8 42.9976 63.5767C43.4539 62.3534 42.5121 61.6641 40.3762 62.0427C40.3762 62.0427 40.9103 62.13 40.852 62.5282C40.7938 62.9262 40.483 63.2271 39.8131 63.2077C39.1432 63.1883 38.9685 62.3922 39.4829 61.9844C39.9976 61.5767 41.3082 61.0039 42.7646 61.3632C44.2209 61.7223 44.5218 62.6252 44.0559 63.4796C43.5898 64.3339 43.017 64.965 42.2597 65.46C42.2597 65.46 44.5315 64.1398 44.5315 62.6641C44.5315 61.1883 43.0752 60.5476 40.7549 61.0233C38.4345 61.4991 38.5315 63.3145 39.5607 63.499C40.5897 63.6835 41.716 63.0427 41.1626 62.2952C41.1626 62.2952 42.1821 62.0525 42.6868 62.7514C43.1917 63.4505 41.4443 65.0621 40.1431 65.7126C39.5488 66.0098 38.9117 66.3313 38.1821 66.6087V59.3321L39.5025 58.7391V58.0039Z" fill="#14A2AD"/>
</g>
<defs>
<filter id="filter0_d_266_0" x="0" y="0" width="154" height="157" filterUnits="userSpaceOnUse" color-interpolation-filters="sRGB">
<feFlood flood-opacity="0" result="BackgroundImageFix"/>
<feColorMatrix in="SourceAlpha" type="matrix" values="0 0 0 0 0 0 0 0 0 0 0 0 0 0 0 0 0 0 127 0" result="hardAlpha"/>
<feOffset dy="16"/>
<feGaussianBlur stdDeviation="6.5"/>
<feColorMatrix type="matrix" values="0 0 0 0 0 0 0 0 0 0 0 0 0 0 0 0 0 0 0.03 0"/>
<feBlend mode="normal" in2="BackgroundImageFix" result="effect1_dropShadow_266_0"/>
<feBlend mode="normal" in="SourceGraphic" in2="effect1_dropShadow_266_0" result="shape"/>
</filter>
</defs>
</svg>
