<svg width="154" height="157" viewBox="0 0 154 157" fill="none" xmlns="http://www.w3.org/2000/svg">
<g filter="url(#filter0_d_254_2)">
<rect width="128" height="128" transform="translate(13)" fill="white"/>
<path fill-rule="evenodd" clip-rule="evenodd" d="M27.1835 75.374V71.9668H27.8735V73.3088H29.2155V71.9668H29.9055V75.374H29.2155V73.8845H27.8735V75.374H27.1835ZM30.8846 75.374V71.9668H33.4067V72.5426H31.5746V73.2992H33.2782V73.875H31.5746V74.7982H33.4733V75.374H30.8846ZM34.3231 75.374V71.9668H34.9909L36.3931 74.2501V71.9668H37.0309V75.374H36.3416L34.9608 73.1342V75.374H34.3231ZM41.0936 75.374H40.3504L40.0561 74.5983H38.6896L38.4064 75.374H37.6767L38.9997 71.9668H39.7286L41.0936 75.374ZM39.8324 74.0225L39.359 72.7615L38.899 74.0225H39.8324ZM41.7252 75.374V71.9668H42.393L43.7952 74.2501V71.9668H44.4329V75.374H43.7437L42.3629 73.1342V75.374H41.7252ZM47.8062 71.9668H48.4962V73.8132C48.4962 74.1066 48.5049 74.2962 48.5215 74.3827C48.5509 74.5222 48.6199 74.6348 48.7294 74.7189C48.8396 74.8038 48.9896 74.8458 49.1799 74.8458C49.3726 74.8458 49.5185 74.8062 49.6169 74.7261C49.7152 74.6459 49.774 74.5484 49.7937 74.4318C49.8136 74.3152 49.8239 74.1225 49.8239 73.8528V71.9668H50.5139V73.7584C50.5139 74.1677 50.4957 74.4572 50.4584 74.6262C50.4211 74.7951 50.3529 74.9378 50.253 75.0544C50.1539 75.171 50.0206 75.263 49.854 75.332C49.6867 75.401 49.4693 75.4359 49.2005 75.4359C48.8761 75.4359 48.6303 75.3986 48.4629 75.3233C48.2955 75.2479 48.1631 75.1504 48.0655 75.0299C47.968 74.9093 47.9045 74.784 47.8736 74.6515C47.8284 74.4564 47.8062 74.1677 47.8062 73.7862V71.9668ZM51.5073 75.374V71.9668H52.175L53.5772 74.2501V71.9668H54.215V75.374H53.5257L52.1449 73.1342V75.374H51.5073ZM55.1845 75.374V71.9668H55.8745V75.374H55.1845ZM57.6666 75.374L56.4475 71.9668H57.193L58.0583 74.4889L58.8887 71.9668H59.6216L58.4097 75.374H57.6666ZM60.2335 75.374V71.9668H62.7556V72.5426H60.9235V73.2992H62.6271V73.875H60.9235V74.7982H62.8222V75.374H60.2335ZM63.672 75.374V71.9668H65.121C65.4851 71.9668 65.75 71.9976 65.915 72.0588C66.0808 72.1198 66.2125 72.2285 66.3115 72.3847C66.4107 72.5418 66.4607 72.7202 66.4607 72.9216C66.4607 73.1778 66.3861 73.3888 66.2363 73.5553C66.0863 73.7219 65.8626 73.8266 65.5644 73.8703C65.7127 73.9567 65.8349 74.0519 65.9308 74.1558C66.0276 74.2597 66.1577 74.4445 66.3211 74.7094L66.7366 75.374H65.9142L65.4209 74.6301C65.244 74.366 65.1226 74.1994 65.0568 74.1304C64.9917 74.0622 64.9228 74.0146 64.8499 73.9893C64.7761 73.9639 64.6603 73.9511 64.5017 73.9511H64.362V75.374H63.672ZM64.362 73.4087H64.8712C65.2012 73.4087 65.4065 73.3943 65.4891 73.3667C65.5708 73.3388 65.6357 73.2905 65.6818 73.2222C65.7285 73.154 65.7516 73.0684 65.7516 72.9661C65.7516 72.8511 65.7206 72.7591 65.6596 72.6877C65.5985 72.6171 65.512 72.5727 65.401 72.5544C65.3447 72.5465 65.1774 72.5426 64.8989 72.5426H64.362V73.4087ZM67.1922 74.27L67.8632 74.2034C67.9036 74.4279 67.9845 74.592 68.1075 74.6975C68.2304 74.803 68.3962 74.8554 68.6048 74.8554C68.8252 74.8554 68.9919 74.8086 69.1036 74.7149C69.2155 74.6214 69.2718 74.5119 69.2718 74.3866C69.2718 74.3056 69.2481 74.2375 69.2012 74.1804C69.1544 74.1241 69.072 74.0749 68.9545 74.0336C68.8744 74.0052 68.692 73.9559 68.4065 73.8845C68.0393 73.7925 67.7815 73.6799 67.6332 73.5459C67.4246 73.358 67.3207 73.1287 67.3207 72.8582C67.3207 72.6846 67.3698 72.5212 67.4674 72.3696C67.5658 72.2182 67.7069 72.1031 67.8918 72.0238C68.0766 71.9445 68.2986 71.9048 68.5603 71.9048C68.9862 71.9048 69.3075 71.9993 69.5224 72.1888C69.7382 72.3784 69.8508 72.6306 69.8619 72.9471L69.1719 72.9709C69.1425 72.7947 69.0799 72.6687 68.984 72.5917C68.8879 72.5148 68.7436 72.476 68.5517 72.476C68.3534 72.476 68.1979 72.5171 68.0861 72.5996C68.0139 72.6529 67.9774 72.7234 67.9774 72.8122C67.9774 72.8932 68.0115 72.9622 68.0797 73.0192C68.1662 73.093 68.3763 73.1691 68.7103 73.2484C69.0441 73.327 69.2908 73.4094 69.4502 73.4935C69.6105 73.5784 69.7357 73.6934 69.8261 73.8401C69.9166 73.9869 69.9618 74.1677 69.9618 74.3827C69.9618 74.5777 69.9078 74.761 69.7992 74.9314C69.6905 75.102 69.5375 75.2289 69.3392 75.3114C69.1409 75.3947 68.8934 75.4359 68.5976 75.4359C68.1669 75.4359 67.8362 75.3368 67.6055 75.1377C67.3746 74.9394 67.2374 74.6499 67.1922 74.27ZM70.7878 75.374V71.9668H71.4779V75.374H70.7878ZM73.1644 75.374V72.5426H72.1555V71.9668H74.8585V72.5426H73.8544V75.374H73.1644ZM76.4641 75.374V73.9401L75.215 71.9668H76.0216L76.8274 73.3159L77.6118 71.9668H78.4034L77.1542 73.9449V75.374H76.4641ZM81.1596 73.6911C81.1596 73.3436 81.212 73.0518 81.3159 72.8154C81.3928 72.6417 81.4991 72.4854 81.6332 72.3475C81.7672 72.2095 81.9139 72.1071 82.0733 72.0397C82.2859 71.9501 82.531 71.9048 82.8086 71.9048C83.3114 71.9048 83.7127 72.0612 84.0149 72.3729C84.3163 72.6853 84.467 73.1191 84.467 73.6752C84.467 74.2263 84.3171 74.6579 84.0181 74.9688C83.7191 75.2805 83.3185 75.4359 82.818 75.4359C82.3113 75.4359 81.9076 75.2812 81.6085 74.9711C81.3095 74.6618 81.1596 74.2351 81.1596 73.6911ZM81.8687 73.668C81.8687 74.0542 81.9584 74.3469 82.1367 74.5468C82.3152 74.7459 82.5421 74.8458 82.8165 74.8458C83.0917 74.8458 83.3169 74.7466 83.4938 74.5492C83.6699 74.3509 83.7579 74.0542 83.7579 73.6584C83.7579 73.2674 83.6723 72.9757 83.5002 72.7837C83.3289 72.5909 83.1013 72.495 82.8165 72.495C82.5325 72.495 82.3034 72.5926 82.1297 72.7868C81.9559 72.9819 81.8687 73.2754 81.8687 73.668ZM85.2685 75.374V71.9668H87.6097V72.5426H85.9585V73.3516H87.3861V73.9273H85.9585V75.374H85.2685ZM91.5859 75.374V72.5426H90.577V71.9668H93.2799V72.5426H92.2758V75.374H91.5859ZM93.991 75.374V71.9668H96.5132V72.5426H94.681V73.2992H96.3846V73.875H94.681V74.7982H96.5798V75.374H93.991ZM99.609 74.1177L100.275 74.3224C100.173 74.6975 100.002 74.9759 99.7645 75.1583C99.5266 75.3399 99.2252 75.4312 98.8595 75.4312C98.4067 75.4312 98.0347 75.2765 97.7428 74.9672C97.4517 74.6579 97.3058 74.2352 97.3058 73.6981C97.3058 73.1311 97.4525 72.6901 97.7452 72.376C98.0379 72.0619 98.4233 71.9048 98.9008 71.9048C99.318 71.9048 99.6567 72.0286 99.9167 72.2753C100.072 72.4212 100.188 72.6306 100.266 72.9042L99.5853 73.066C99.5449 72.8899 99.4608 72.7503 99.333 72.6481C99.2046 72.5457 99.0491 72.495 98.8667 72.495C98.6137 72.495 98.4082 72.5854 98.2512 72.767C98.0934 72.9478 98.0148 73.2413 98.0148 73.6474C98.0148 74.0773 98.0926 74.3842 98.2472 74.5666C98.4027 74.7499 98.6041 74.841 98.8524 74.841C99.0357 74.841 99.1934 74.7831 99.3251 74.6666C99.4567 74.55 99.5519 74.3676 99.609 74.1177ZM101.131 75.374V71.9668H101.821V73.3088H103.163V71.9668H103.853V75.374H103.163V73.8845H101.821V75.374H101.131ZM104.832 75.374V71.9668H105.499L106.902 74.2501V71.9668H107.539V75.374H106.85L105.469 73.1342V75.374H104.832ZM108.39 73.6911C108.39 73.3436 108.442 73.0518 108.546 72.8154C108.623 72.6417 108.729 72.4854 108.863 72.3475C108.997 72.2095 109.144 72.1071 109.303 72.0397C109.516 71.9501 109.761 71.9048 110.039 71.9048C110.542 71.9048 110.943 72.0612 111.245 72.3729C111.547 72.6853 111.697 73.1191 111.697 73.6752C111.697 74.2263 111.547 74.6579 111.248 74.9688C110.949 75.2805 110.549 75.4359 110.048 75.4359C109.542 75.4359 109.138 75.2812 108.839 74.9711C108.54 74.6618 108.39 74.2351 108.39 73.6911ZM109.099 73.668C109.099 74.0542 109.189 74.3469 109.367 74.5468C109.545 74.7459 109.772 74.8458 110.047 74.8458C110.322 74.8458 110.547 74.7466 110.724 74.5492C110.9 74.3509 110.988 74.0542 110.988 73.6584C110.988 73.2674 110.903 72.9757 110.73 72.7837C110.559 72.5909 110.332 72.495 110.047 72.495C109.763 72.495 109.534 72.5926 109.36 72.7868C109.186 72.9819 109.099 73.2754 109.099 73.668ZM112.518 75.374V71.9954H113.208V74.7982H114.916V75.374H112.518ZM115.527 73.6911C115.527 73.3436 115.579 73.0518 115.683 72.8154C115.76 72.6417 115.867 72.4854 116.001 72.3475C116.135 72.2095 116.281 72.1071 116.441 72.0397C116.653 71.9501 116.899 71.9048 117.176 71.9048C117.679 71.9048 118.08 72.0612 118.383 72.3729C118.684 72.6853 118.835 73.1191 118.835 73.6752C118.835 74.2263 118.685 74.6579 118.386 74.9688C118.087 75.2805 117.686 75.4359 117.186 75.4359C116.679 75.4359 116.275 75.2812 115.976 74.9711C115.677 74.6618 115.527 74.2351 115.527 73.6911ZM116.236 73.668C116.236 74.0542 116.326 74.3469 116.504 74.5468C116.683 74.7459 116.91 74.8458 117.184 74.8458C117.459 74.8458 117.685 74.7466 117.861 74.5492C118.037 74.3509 118.125 74.0542 118.125 73.6584C118.125 73.2674 118.04 72.9757 117.868 72.7837C117.696 72.5909 117.469 72.495 117.184 72.495C116.9 72.495 116.671 72.5926 116.497 72.7868C116.324 72.9819 116.236 73.2754 116.236 73.668ZM121.221 74.1225V73.5467H122.701V74.9061C122.557 75.0465 122.349 75.1695 122.075 75.2765C121.802 75.3827 121.525 75.4359 121.244 75.4359C120.888 75.4359 120.578 75.3613 120.313 75.2114C120.049 75.0616 119.85 74.8466 119.717 74.5682C119.584 74.2898 119.517 73.986 119.517 73.6584C119.517 73.3032 119.592 72.9875 119.74 72.7107C119.889 72.4347 120.106 72.2221 120.393 72.0747C120.612 71.9612 120.883 71.9048 121.208 71.9048C121.631 71.9048 121.961 71.9937 122.199 72.1714C122.437 72.3498 122.59 72.5949 122.658 72.909L121.973 73.0375C121.925 72.8701 121.835 72.7377 121.702 72.6401C121.57 72.5434 121.406 72.495 121.207 72.495C120.907 72.495 120.669 72.5902 120.492 72.7813C120.315 72.9725 120.226 73.2556 120.226 73.6308C120.226 74.036 120.316 74.3397 120.495 74.5421C120.675 74.7444 120.91 74.8458 121.201 74.8458C121.344 74.8458 121.489 74.8173 121.633 74.761C121.778 74.7047 121.902 74.6356 122.006 74.5548V74.1225H121.221ZM124.497 75.374V73.9401L123.247 71.9668H124.054L124.86 73.3159L125.644 71.9668H126.436L125.187 73.9449V75.374H124.497Z" fill="#023967"/>
<path fill-rule="evenodd" clip-rule="evenodd" d="M50.9733 53.8899C50.9733 53.8899 52.571 53.5237 52.9813 54.151C53.3915 54.7781 54.1056 54.8129 54.0231 56.278C54.0745 56.7937 54.9677 55.9254 54.8651 56.699C54.7626 57.4726 54.949 57.7484 54.1341 58.164C53.319 58.5795 53.3999 58.5014 53.1435 58.6552C52.887 58.8091 52.5489 59.4814 52.3438 59.7378C52.1386 59.994 51.6775 60.0677 51.9851 60.2216C52.2928 60.3754 54.5924 58.3507 55.073 58.2645C55.5534 58.1781 55.8962 57.7031 56.4953 57.9324C57.0945 58.1618 57.6061 58.9177 57.2618 59.5195C56.9175 60.1211 56.5 62.6718 56.4012 64.1094C56.3025 65.5468 56.425 68.1291 56.0959 68.542C55.7667 68.9551 55.3941 69.4031 54.3551 68.9307C54.0902 68.7903 52.0475 67.0036 51.6372 66.7985C51.227 66.5934 51.1704 66.6243 51.1704 66.6243C51.1704 66.6243 51.0118 67.4311 51.6268 67.4215C51.7785 67.7889 51.4084 68.5455 50.9418 68.6085C50.0492 68.7292 49.7189 68.5141 49.6571 68.2515C49.5148 67.6472 49.6228 66.916 49.6048 66.97C49.5868 67.0242 49.1833 67.2392 48.9508 66.853C48.7181 66.4668 48.9364 66.2225 48.9364 66.2225C48.9861 66.2109 50.008 66.1282 49.4825 65.8511C49.3026 65.7563 48.7833 65.9424 48.8136 65.8811C48.8439 65.8197 48.4104 65.0097 48.8676 64.9669C49.3248 64.9241 49.4154 65.0061 49.5968 64.5821C49.7784 64.158 50.393 64.3262 50.393 64.0699C50.393 63.8135 51.2155 62.6302 51.2155 62.6302L51.0589 62.4319C51.0589 62.4319 50.2986 63.0874 50.2435 63.6938C50.1964 64.214 49.2527 64.1889 48.9704 64.1719L48.7777 63.6023C48.7777 63.6023 48.0268 64.0846 47.7381 63.8752C47.4494 63.6659 46.8212 62.9808 47.2738 62.7157C47.8699 62.6046 49.5496 61.9982 49.605 61.6084C49.7582 60.5291 48.6338 62.0384 47.466 61.6202C46.3046 61.2044 46.3175 60.0104 46.3689 59.7027C46.4201 59.395 47.2483 59.6065 48.0476 59.4973C48.8469 59.3883 49.9357 58.8573 50.2947 58.3445C50.6536 57.8318 50.9868 56.3508 50.9328 55.7759C50.9542 55.2768 50.9733 53.8899 50.9733 53.8899ZM52.5635 61.2531C52.2576 61.0451 55.2027 59.1283 55.5146 59.2352C55.8265 59.342 54.8167 60.3409 54.6628 61.9305C54.509 63.5202 54.3479 66.2013 54.5531 66.8165C54.7582 67.4318 54.0852 67.3276 53.6237 67.1306C53.162 66.9336 51.8802 66.3775 51.8802 66.3775C51.8802 66.3775 52.3818 66.1093 52.2247 65.6784C52.0861 65.2983 51.9309 65.1344 51.5725 65.0591C51.5725 65.0591 51.9022 64.9963 51.7758 64.5678C51.7177 64.371 51.6574 63.9852 51.5019 64.0834C51.268 64.2307 51.0402 64.1115 51.1685 64.0311C51.1685 64.0311 51.9925 63.2142 52.6403 62.8297C53.3582 62.7272 53.162 61.6597 53.162 61.6597L52.5635 61.2531Z" fill="#023967"/>
<path fill-rule="evenodd" clip-rule="evenodd" d="M45.858 63.8777C45.858 63.8777 46.7072 63.7831 47.0573 64.0364C47.5694 64.4073 47.9962 65.3735 48.2392 66.3775C48.6488 68.0693 47.6721 68.0085 47.2852 68.195C46.8262 68.3084 45.9522 67.5854 45.8497 67.3291C45.7471 67.0727 45.8275 65.7158 45.9814 65.3055C46.1351 64.8954 45.858 63.8777 45.858 63.8777Z" fill="#023967"/>
<path fill-rule="evenodd" clip-rule="evenodd" d="M65.5643 57.8363C65.5643 57.8363 67.0895 57.9671 68.2305 57.6549C69.3718 57.3427 70.9617 56.2214 71.2082 56.0241C71.4549 55.8269 72.1575 55.7348 72.6505 55.9812C73.1434 56.2276 73.6061 57.1694 73.5784 57.2532C73.5506 57.3369 73.5104 58.5222 73.088 58.6617C72.6656 58.8013 70.7925 61.2577 70.5346 61.6481C70.0202 62.4271 71.1707 61.5925 71.7099 61.3587C71.9995 61.097 72.2319 60.9065 73.0088 61.0817C73.867 61.5747 73.6434 62.6786 73.4105 62.784C73.056 62.867 72.769 62.8093 72.3453 62.9445C71.3766 63.254 70.1284 63.9509 69.3747 64.5294C69.0783 64.7568 68.4282 64.9089 67.7291 65.9367C66.3 67.5661 63.3598 66.6358 63.189 64.7557C63.0959 63.7698 64.663 64.4023 65.8041 63.976C67.0381 63.5148 69.3337 59.8436 70.0187 59.1125C69.705 59.0996 68.1555 60.055 67.9131 60.2268C67.5522 60.4827 66.6253 60.4088 66.256 59.9239C65.8868 59.4388 65.1807 59.2862 65.1475 58.8252C64.8643 58.135 65.5643 57.8363 65.5643 57.8363Z" fill="#023967"/>
<path fill-rule="evenodd" clip-rule="evenodd" d="M83.8958 53.4652C83.8958 53.4652 84.5471 52.8138 85.4347 53.2995C86.3223 53.7854 86.1339 54.294 85.9637 54.6344C85.7935 54.975 85.6547 55.3491 85.7681 55.6896C85.8816 56.0301 86.3017 55.9279 86.7555 55.8712C87.2092 55.8147 87.7884 54.8499 88.3218 54.2597C88.8551 53.6694 89.5018 54.0667 89.8424 54.2369C90.1828 54.4072 90.7736 55.4732 90.3196 55.8136C89.8657 56.1541 89.079 56.5046 88.7195 56.8904C88.4047 57.2284 88.6215 57.3672 89.8084 56.8926C90.092 56.7793 90.6595 56.5179 90.6595 56.5179C90.6595 56.5179 91.454 56.166 91.9874 56.5292C92.5206 56.8924 92.1256 58.0152 91.9787 58.1024C91.1726 58.2396 91.6107 57.7162 89.7061 58.1563C87.8016 58.5962 88.8551 58.3337 88.5713 58.3905C88.2876 58.4473 85.8023 58.999 84.8603 59.7026C83.9182 60.4061 85.3937 60.1494 85.3937 60.1494C85.5058 60.0454 86.226 59.3449 86.2466 59.5232C86.2725 59.7485 85.8604 60.2322 85.6799 60.6943C85.4993 61.1562 85.2643 61.072 85.4531 61.1854C85.6422 61.2988 85.8776 61.3365 85.9909 60.9587C86.1042 60.581 86.662 59.6366 86.662 59.6366L86.8131 58.9566C86.8131 58.9566 87.9843 58.352 88.6265 58.6922C89.2688 59.0321 89.0031 60.267 88.5509 60.3244C86.8156 60.5448 86.2883 61.575 86.6243 61.4498L86.9602 61.3246C87.0288 61.2992 87.4666 61.0572 87.5405 61.2518C87.7908 61.9121 87.8141 62.1725 87.1909 62.432L86.7376 62.621L86.669 63.0743L87.3421 62.8099C87.3421 62.8099 87.5967 62.6779 87.5874 62.9515C87.5781 63.2252 87.6443 63.6219 87.3043 63.7344C86.9643 63.847 86.7472 64.1108 86.7472 64.1108L86.7627 64.3568L87.6234 64.0203L87.7589 63.7249C87.7589 63.7249 88.4118 65.0807 87.7089 65.1868C87.006 65.2929 86.8676 65.6417 86.8677 65.6155C86.8678 65.5892 86.9528 68.4727 86.8016 68.6994C86.6505 68.926 86.1207 69.532 85.7052 69.6452C85.2896 69.7582 84.6783 69.2134 84.6407 68.9491C84.6031 68.6847 83.9627 67.4247 83.8385 67.7841C83.3165 68.3998 82.7138 69.2503 82.3359 69.3258C81.9582 69.401 81.2157 69.2266 80.8116 68.5781C80.4074 67.9294 80.5367 67.3193 80.9576 67.2875C81.3787 67.2556 81.6882 67.5115 82.3763 67.2507C83.0645 66.9897 83.2397 66.8996 83.3951 66.694C83.5506 66.4883 84.089 65.8989 83.8665 66.0587C83.644 66.2187 83.2296 66.2771 83.1245 66.0668C83.0193 65.8564 82.7241 64.8147 83.4538 64.8722C84.1833 64.93 84.7103 64.7446 84.7103 64.7446L84.7353 64.3965C83.472 64.5584 83.7018 63.8873 83.7902 63.8662L84.6645 63.6574L84.6517 63.3343C84.6462 63.192 84.4571 63.4412 83.9209 63.4185C83.3848 63.3959 83.3416 63.0664 83.3416 63.0664C83.3416 63.0664 82.8474 62.6085 83.38 62.4681C83.9126 62.3275 84.339 61.8805 84.339 61.8805L83.5173 61.688L83.2243 60.921C83.2243 60.921 81.6225 61.9256 81.2296 62.432C80.8369 62.9386 79.8621 63.1498 79.0311 62.6965C78.1999 62.2432 77.7347 61.6149 78.0369 61.2747C78.3393 60.9348 78.7289 60.8759 79.4467 61.0269C80.1645 61.1778 81.4111 60.5053 81.7132 60.241C82.0153 59.9764 83.8665 59.0699 83.8665 59.0699L83.9379 57.4529L83.3754 57.8609C83.3754 57.8609 82.5732 59.4198 82.1082 59.2349C81.6429 59.0498 81.0033 58.7299 81.3433 57.5209C81.6833 56.3121 81.9398 56.6115 82.2044 56.8759C82.4687 57.1403 82.6198 57.3699 83.0354 57.2187C83.451 57.0677 83.7878 57.1088 83.9012 56.6176C84.0144 56.1266 83.8958 53.4652 83.8958 53.4652ZM84.4845 66.1562L84.9378 66.1334C84.9378 66.1334 84.9958 67.3971 84.9958 67.6708C84.9958 67.9445 84.3981 67.4688 84.0355 67.2372C84.299 66.7966 84.4845 66.1562 84.4845 66.1562ZM87.1909 56.3876C87.1154 56.3876 87.5309 55.4809 87.9465 55.4809C88.362 55.4809 88.362 55.7455 88.1354 56.0099C87.9087 56.2743 87.5309 56.6521 87.5309 56.6521C87.5309 56.6521 87.2666 56.3876 87.1909 56.3876ZM85.5287 56.841C85.5287 56.841 85.6422 57.1054 86.1332 57.2187C86.6243 57.3321 86.6909 57.7099 86.6909 57.7099C86.6909 57.7099 85.9065 58.3143 85.6043 58.2765C85.3021 58.2387 85.5287 56.841 85.5287 56.841Z" fill="#023967"/>
<path fill-rule="evenodd" clip-rule="evenodd" d="M87.5369 65.8255C87.5369 65.8255 88.9291 65.5486 89.7992 66.0594C90.6694 66.5702 91.0532 67.3185 90.7104 68.0816C90.339 68.5893 89.7153 69.1491 89.2864 68.8691C88.8576 68.589 88.6064 68.7106 88.6064 68.129C88.6064 67.5475 88.6337 67.0962 87.982 66.5898C87.5587 66.0995 87.5369 65.8255 87.5369 65.8255Z" fill="#023967"/>
<path fill-rule="evenodd" clip-rule="evenodd" d="M101.397 55.168C101.319 54.3765 102.369 54.1746 103.069 54.8537C103.769 55.5328 104.209 56.6762 104.004 57.2302C103.8 57.784 103.299 60.5005 103.534 60.6886C103.768 60.8769 104.81 60.2546 105.193 60.076C105.576 59.8974 105.637 58.5617 105.73 58.7482C105.823 58.9343 107.333 59.4163 107.415 59.9945C107.498 60.5727 107.5 61.17 106.452 61.4969C105.233 61.6945 104.102 62.429 103.577 62.5892C103.051 62.7494 103.507 63.1419 103.507 63.1419C103.507 63.1419 103.754 63.4002 104.238 63.7093C104.722 64.0186 105.228 64.5697 105.889 65.0115C106.549 65.4534 107.182 65.5611 108.179 65.4732C109.176 65.3853 108.645 66.2185 108.35 66.6239C108.056 67.0295 107.137 67.9586 106.405 68.0278C105.674 68.0971 105.652 67.6084 105.198 67.1033C103.518 65.4571 103.621 64.5935 103.095 64.2593C102.75 63.7087 102.353 66.1728 101.041 67.1145C99.7295 68.0562 99.5751 67.9843 98.6096 67.8896C97.6439 67.7951 97.3043 66.9238 97.1995 66.58C97.0946 66.2363 98.3106 66.8003 99.0022 66.4954C99.6939 66.1906 100.578 65.3072 100.975 63.762C101.033 63.2074 100.17 63.8081 100.17 63.735C100.17 63.6619 99.2789 64.4879 98.9265 64.4879C98.5742 64.4879 97.7124 64.9406 97.1765 64.2909C96.6405 63.6412 96.2667 62.6963 97.5538 62.7386C98.8409 62.7809 101.321 61.6492 101.365 61.2955C101.531 60.7573 101.474 55.9595 101.397 55.168Z" fill="#023967"/>
<path fill-rule="evenodd" clip-rule="evenodd" d="M116.199 56.7509C116.199 56.7509 117.535 56.3902 117.535 57.1119C117.535 57.8336 117.584 58.2682 117.247 58.9491C116.91 59.63 117.258 59.4339 117.579 59.1084C117.899 58.7831 118.001 58.0722 117.886 57.7269C117.771 57.3815 118.015 55.8385 117.669 55.5314C117.324 55.2244 117.085 54.4316 117.315 54.1631C117.545 53.8948 118.385 53.9177 118.615 54.2631C118.845 54.6085 119.599 54.9747 119.445 55.5888C119.292 56.2028 118.96 57.1895 119.037 57.6116C119.114 58.0339 119.191 57.9187 119.191 57.9187C119.191 57.9187 119.841 57.4724 119.803 57.1654C119.765 56.8583 119.707 57.0244 119.637 56.6297C119.567 56.235 119.618 55.8835 120.113 55.9367C120.608 55.9898 121.01 55.9127 121.216 55.8379C121.422 55.7631 122.625 53.7668 122.447 52.924C122.614 52.012 124.348 52.9888 124.111 54.1168C123.873 55.2447 122.753 55.6504 122.48 55.8769C122.208 56.1032 121.992 56.5371 122.376 56.5755C122.76 56.6139 122.453 56.4986 122.76 56.2684C123.067 56.0381 124.372 55.6544 124.525 55.3089C124.679 54.9635 125.509 54.1114 126.492 54.695C127.475 55.2784 126.808 55.8986 126.348 56.3591C125.887 56.8196 124.257 58.7246 123.911 59.2236C123.566 59.7225 124.216 59.3082 124.523 59.193C124.83 59.0777 126.16 58.899 126.559 59.6842C126.959 60.4692 126.273 60.6094 125.774 60.8397C125.275 61.0699 124.075 62.2151 123.242 62.0519C122.409 61.8887 123.696 62.6047 123.466 63.0269C123.236 63.4491 122.914 63.6362 122.377 63.9433C121.839 64.2503 122.113 64.5696 122.305 64.5312C122.496 64.4928 123.008 64.5435 123.2 64.3132C123.391 64.0829 123.978 63.9202 124.56 64.1813C125.141 64.4425 125.245 64.6201 125.261 65.2479C125.276 65.8756 124.526 65.7476 124.009 65.7661C123.492 65.7844 122.422 65.8727 122.518 66.1747C122.613 66.4768 122.595 68.4628 122.589 69.0754C122.475 69.5577 121.619 70.2879 120.926 70.0174C120.329 69.6166 119.167 68.6683 118.914 68.2008C118.662 67.7332 120.668 68.8029 120.724 68.0408C120.78 67.2788 120.753 66.9488 120.709 66.5689C120.664 66.189 119.659 66.5274 119.341 66.5588C119.023 66.5903 118.118 67.1377 117.441 66.8589C116.765 66.5803 116.496 65.0941 117.176 65.2957C117.856 65.4973 120.028 64.9691 120.332 64.7707C120.636 64.5721 120.264 64.186 120.627 64.1694C120.99 64.1527 121.164 63.6419 120.842 63.6021C120.842 63.6217 120.107 63.8952 119.829 63.5431C119.551 63.1911 119.252 62.7884 119.818 62.7914C120.25 62.7936 122.061 62.2062 122.255 62.0466C122.45 61.887 122.825 61.7782 123.259 61.4879C123.692 61.1975 124.279 60.9779 124.109 60.7476C123.939 60.5174 123.3 60.4901 122.987 60.8467C122.675 61.2031 122.331 61.1591 121.606 61.3645C120.88 61.5697 119.928 61.9773 119.569 62.1014C119.21 62.2254 118.375 62.6487 117.886 61.9484C117.396 61.2482 117.56 61.1831 118.325 61.1068C119.091 61.0306 119.755 60.9628 120.244 60.5864C120.732 60.2097 121.071 59.9144 120.841 59.8376C120.611 59.7609 120.204 59.569 119.756 60.0596C119.308 60.5502 118.575 60.2539 118.864 59.7125C119.152 59.1709 119.728 58.6862 119.306 58.6095C118.884 58.5328 119.037 58.6095 118.807 58.6862C118.577 58.763 118.577 58.8014 118.27 59.1852C117.963 59.569 117.752 60.3666 117.212 60.6709C116.671 60.9751 116.49 61.0587 116.274 60.7315C116.058 60.4042 115.834 59.5785 116.301 59.1412C116.662 58.8032 116.731 57.8898 116.489 57.6194L116.199 56.7509ZM121.76 59.7928L122.3 59.5042C122.3 59.5042 122.742 59.2433 122.69 59.5562C122.508 60.1039 121.594 59.8814 121.76 59.7928ZM121.512 58.3568C121.512 58.3568 122.34 58.137 122.273 58.5144C122.206 58.8918 122.224 59.0153 121.728 59.0414C121.283 59.0155 121.512 58.3568 121.512 58.3568ZM123.193 56.9707C123.268 56.6266 123.879 56.6155 124.123 56.7782C124.368 56.9408 123.534 58.5547 123.437 58.3934C123.233 58.0544 123.119 57.3147 123.193 56.9707ZM119.699 58.1973C119.254 57.9303 119.971 57.7524 120.282 57.6189C120.593 57.4855 120.856 57.7079 120.678 58.1973C120.5 58.6867 120.144 58.4643 119.699 58.1973Z" fill="#023967"/>
<path fill-rule="evenodd" clip-rule="evenodd" d="M115.252 60.6302C115.252 60.6302 115.65 61.503 115.269 62.6159C114.888 63.7288 115.928 62.7543 116.197 62.5624C116.466 62.3706 116.35 63.2914 115.89 63.7903C115.429 64.2892 115.621 64.8269 114.969 65.287C114.316 65.7473 113.695 64.8652 113.618 64.3664C113.541 63.8673 112.985 62.9452 113.791 62.5611C114.49 61.9853 115.252 60.6302 115.252 60.6302Z" fill="#023967"/>
<path fill-rule="evenodd" clip-rule="evenodd" d="M27.9527 52.7945C28.0752 52.3493 30.8595 54.5766 31.3615 56.3035C31.8633 58.0305 31.6216 57.5857 31.5896 57.9289C31.5576 58.2722 33.0745 57.7573 33.0745 57.7573C33.0745 57.7573 33.9413 57.4632 34.4779 57.1182C35.0146 56.773 37.7752 56.1757 38.0403 56.1091C38.3055 56.0426 39.2997 55.3166 40.1104 54.7247C40.9212 54.1327 41.5524 54.6345 41.9775 54.8885C42.4028 55.1424 42.168 56.183 41.8136 56.2335C41.4591 56.2839 40.5935 56.4855 39.8334 56.9921C39.0733 57.4989 38.2221 57.9297 37.4833 57.926C36.7446 57.9224 37.8229 58.0811 37.9237 58.8917C37.9567 59.1571 37.7473 60.346 37.7257 61.822C37.6814 64.8451 38.0534 68.7158 37.9237 69.077C37.7544 69.548 37.0564 69.9759 36.6441 69.7957C35.6173 69.2489 34.6904 68.3636 34.3703 67.7728C34.4399 67.3642 35.6874 68.0784 35.9585 67.3618C36.2296 66.6453 35.9944 63.2471 35.9944 62.7403C35.9944 62.2335 34.679 64.5836 34.0488 63.9814C33.7153 63.6629 33.7893 64.0814 33.5362 64.4155C33.0957 64.438 32.7634 64.5568 32.3514 64.2709C31.9396 63.9853 31.9561 62.3141 32.0803 61.8017C32.2043 61.2892 32.9438 61.6081 33.197 61.4561C33.4504 61.3041 34.5239 60.1019 34.929 60.0571C35.306 60.069 35.6263 59.9581 36.0559 60.1901C36.2157 59.6117 36.1029 58.3762 36.1449 58.3343C36.1868 58.2924 34.8799 58.5661 34.3909 58.9383C33.9017 59.3105 33.2111 59.9635 32.9577 59.8622C32.7044 59.7609 31.9949 60.0065 31.7922 59.7025C31.5896 59.3985 31.7188 61.1326 31.3806 61.7886C31.0423 62.4448 30.3893 66.7409 29.6348 67.8717C28.8805 69.0023 28.5274 68.8128 28.1224 68.1581C27.7175 67.5034 27.3586 66.5682 27.4323 66.0367C27.9774 65.6516 28.3971 66.3913 28.7519 65.9353C29.1066 65.4793 29.36 64.5164 29.816 63.655C30.272 62.7936 29.1258 63.7977 28.5822 64.5443C28.0384 65.291 28.8322 63.4136 28.4662 63.0284C28.1004 62.6432 27.1563 61.1124 27.1067 60.6061C27.0882 60.417 26.9241 59.9489 27.0427 59.8819C27.3574 59.8891 28.0033 60.2013 28.1927 60.5301C28.4774 61.0247 30.1051 61.4734 30.1951 62.135C30.285 62.7966 30.3734 62.6922 30.3734 62.4389C30.3734 62.1854 31.3506 59.7421 30.9959 59.6408C30.6413 59.5394 31.5389 59.3985 31.5389 59.3985C31.5389 59.3985 30.8604 58.7486 31.1038 58.3836C31.3472 58.0185 30.3158 58.1979 29.9959 58.2503C29.7131 58.2962 28.5602 59.4736 28.5746 59.189C28.5917 58.8504 29.1381 57.3161 29.1446 57.1187C29.1908 55.7317 27.9168 54.4746 27.9527 52.7945ZM33.5804 62.3225C33.5804 62.3225 34.4047 61.7341 34.5155 61.9348C34.6261 62.1356 34.4095 62.5737 34.1941 62.7522C33.9789 62.9308 33.5044 62.9844 33.6274 62.9229L33.5804 62.3225Z" fill="#023967"/>
</g>
<defs>
<filter id="filter0_d_254_2" x="0" y="0" width="154" height="157" filterUnits="userSpaceOnUse" color-interpolation-filters="sRGB">
<feFlood flood-opacity="0" result="BackgroundImageFix"/>
<feColorMatrix in="SourceAlpha" type="matrix" values="0 0 0 0 0 0 0 0 0 0 0 0 0 0 0 0 0 0 127 0" result="hardAlpha"/>
<feOffset dy="16"/>
<feGaussianBlur stdDeviation="6.5"/>
<feColorMatrix type="matrix" values="0 0 0 0 0 0 0 0 0 0 0 0 0 0 0 0 0 0 0.03 0"/>
<feBlend mode="normal" in2="BackgroundImageFix" result="effect1_dropShadow_254_2"/>
<feBlend mode="normal" in="SourceGraphic" in2="effect1_dropShadow_254_2" result="shape"/>
</filter>
</defs>
</svg>
