<svg width="154" height="157" viewBox="0 0 154 157" fill="none" xmlns="http://www.w3.org/2000/svg">
<g filter="url(#filter0_d_185_309)">
<rect width="128" height="128" transform="translate(13)" fill="white"/>
<path fill-rule="evenodd" clip-rule="evenodd" d="M64.4778 54.3899C64.4778 54.3899 64.1699 54.4383 64.0843 52.9254C64.0843 52.3407 64.591 52.0975 64.591 52.0975C65.9398 52.0277 66.3129 52.6017 66.3129 52.6017C66.368 52.7842 66.4582 52.9228 66.5255 53.0916C66.5413 53.4815 66.4031 53.8134 66.2257 54.0672C66.2257 54.0672 65.586 54.5163 64.4778 54.3899Z" fill="#007DBD"/>
<path fill-rule="evenodd" clip-rule="evenodd" d="M73.4464 56.2276C74.1397 56.1348 74.1321 57.1941 74.1321 57.1941L74.0362 60.6808L73.9327 61.9659C73.8736 62.6372 74.023 63.2265 74.0439 63.7709C74.0699 64.4056 74.0714 65.1682 74.0265 65.8359C73.999 66.3039 74.0836 66.805 73.896 67.251C73.4204 67.1521 73.1278 66.7861 72.7817 66.6153C72.7817 66.6444 72.7771 66.6413 72.822 66.678C72.7134 66.7377 72.6176 66.5837 72.5131 66.6281C72.5763 66.7061 72.6696 66.7576 72.7465 66.809C72.7262 66.8488 72.69 66.8605 72.6966 66.9212C72.8358 67.0828 73.0417 67.1761 73.1187 67.3942C73.0295 67.3795 72.9856 67.3774 72.9377 67.4248C73.0147 67.6364 73.239 67.7001 73.3297 67.8953C73.1752 67.8275 73.0687 67.5772 72.9097 67.6221C72.9632 67.9045 73.3684 67.9167 73.3134 68.2517C73.4974 68.4581 73.5723 68.6829 73.7717 68.8526C73.7717 68.8526 73.6921 69.419 74.3533 69.3277C74.9232 69.0693 75.0522 68.4678 75.0522 68.4678C75.0522 68.4678 75.1561 67.6175 74.941 65.2976C75.2352 63.9193 74.8727 62.4048 74.8727 62.4048C74.8727 62.4048 74.8646 61.7528 74.9568 61.3379C75.1898 58.3206 75.0522 57.3281 75.0522 57.3281C75.4707 55.8437 74.9064 55.5695 74.9064 55.5695C74.4185 55.3442 74.1514 55.5078 73.8507 55.5527C74.023 54.9221 75.7923 53.6982 75.7923 53.6982C78.269 52.6099 76.9816 51.9294 76.9816 51.9294C76.9816 51.9294 76.1094 51.3192 74.5628 52.9071C74.5628 52.9071 71.0608 55.2667 69.8527 56.3617C69.8527 56.3617 68.2046 57.8568 66.5816 60.1716C66.5816 60.1716 65.4744 61.7768 65.3199 62.599C65.2399 62.992 64.8974 64.1395 64.6195 65.0387C64.4901 64.794 64.461 64.5228 64.4697 64.2098C64.4697 64.2098 64.7811 60.5269 65.0936 59.958C65.0936 59.958 66.6728 59.047 65.9678 57.7584C65.9678 57.7584 65.8822 57.6365 65.6809 57.5484C65.3322 57.3868 64.5242 57.109 64.3881 57.109C64.1521 57.0855 64.0486 57.3113 63.8452 57.4551C63.8452 57.4551 63.5098 57.9648 63.9146 59.2494C63.9146 59.2611 63.9181 59.2754 63.9237 59.2897C63.9783 59.4594 63.4517 63.5767 63.4517 63.5767C62.8257 68.0437 64.8005 66.9416 64.8005 66.9416C65.3393 66.4038 65.8776 65.8997 66.0912 65.2278C66.157 64.2358 66.2018 63.067 66.2482 62.8845C66.3405 61.3338 69.3032 56.901 73.0687 55.3105C72.1262 56.8903 71.2637 58.5796 70.4139 60.2623C70.4139 60.2623 69.7293 61.0106 69.8216 61.9873C69.8216 61.9873 69.9424 62.3671 70.4098 62.3084C71.1006 61.9649 71.1164 61.4006 71.1164 61.4006C71.2051 60.4774 71.492 60.3918 71.492 60.3918C71.6582 61.4475 72.4376 61.6193 72.4376 61.6193C73.5244 61.7706 73.4148 60.4198 73.4148 60.4198C73.3205 60.1716 73.3205 59.906 73.2634 59.6761C73.1543 59.2443 73.1803 58.9012 73.1803 58.9012C73.1187 58.4496 73.0371 58.6566 72.9856 58.5251C72.9178 58.337 73.0147 58.1106 72.9377 57.9567C72.8322 57.9235 72.8454 58.0882 72.7817 58.0403C72.7343 57.8797 72.8556 57.7176 72.822 57.5825C72.6818 58.0112 72.6252 58.4868 72.4152 58.8426C72.2052 58.7621 72.0456 58.8426 71.8846 58.8824C72.1359 58.365 72.4295 57.974 72.6966 57.3868C72.9856 56.9341 73.1222 56.3703 73.4592 56.0517C73.4592 56.0517 73.5311 55.9992 73.4464 56.2276Z" fill="#007DBD"/>
<path fill-rule="evenodd" clip-rule="evenodd" d="M85.0071 57.4552C84.9485 58.1653 84.5595 58.333 84.5595 58.333C84.2226 58.5252 83.9106 58.4544 83.4778 58.4462C83.4049 58.3978 83.4386 58.2764 83.3392 58.1893C82.9263 58.0532 82.6597 57.571 82.6515 57.5618C82.6928 57.5281 82.702 57.5353 82.6897 57.5118C82.677 57.4868 82.4349 57.0704 82.3441 56.7589C82.2157 56.2869 82.4807 56.0575 82.5445 55.9994C82.5445 55.9994 82.6795 55.8526 83.3009 55.9555C83.3524 55.9652 83.5161 55.9821 83.646 56.0213C83.7806 56.0575 83.9947 56.1528 84.3561 56.292C84.3561 56.292 85.0071 56.6488 85.0071 57.4369" fill="#007DBD"/>
<path fill-rule="evenodd" clip-rule="evenodd" d="M84.0607 61.8625C84.0607 61.8625 83.4949 62.2561 83.3195 63.7563C83.2772 64.21 83.2741 64.341 83.2405 64.607C83.2222 65.0526 83.3317 65.4313 83.3317 65.4313C84.3054 64.526 84.806 63.0447 85.3152 61.6286C85.3697 61.9828 84.9941 62.436 85.2525 62.7113C85.2688 62.7837 85.1725 62.8841 85.2688 62.8984C85.1322 62.9774 85.2148 63.271 85.0573 63.3638C85.0486 63.4158 85.0751 63.431 85.1001 63.4423C84.9349 63.6859 85.0175 64.133 84.887 64.266C84.8778 64.3501 84.8778 64.3721 84.8518 64.4689C84.8518 64.4689 84.6816 66.2056 84.3115 66.6542C83.5306 68.0948 83.0866 68.1646 83.0866 68.1646C82.9596 68.1539 82.8669 68.1855 82.7318 68.2049C82.7318 68.2049 81.8825 68.0071 81.9692 66.6828C81.9692 66.6828 83.1176 62.3896 83.1319 62.3259C83.1931 61.9706 83.3735 61.6286 83.396 61.2692C83.396 61.2692 83.2991 60.6809 83.1457 60.3394C83.0932 60.1732 83.2221 59.9306 83.343 59.7506H83.4266C83.478 59.7307 83.4515 59.6497 83.503 59.6273C84.7147 59.4336 84.9798 60.5418 84.9798 60.5418C84.9798 60.5418 84.9033 60.9944 84.7912 61.259C84.7912 61.259 84.6581 61.4593 84.0607 61.8625Z" fill="#007DBD"/>
<path fill-rule="evenodd" clip-rule="evenodd" d="M90.9168 64.4511C90.5645 64.4511 90.1715 64.6326 89.8361 64.5734C89.9085 64.4128 90.1134 64.3935 90.2011 64.2462C90.2011 64.2462 90.3204 64.3858 90.6853 63.8934C90.7766 63.874 90.9657 63.7711 91.0967 63.6462C91.4969 63.0992 91.5713 63.271 91.5713 63.271C91.53 63.8807 91.3179 64.0193 91.3179 64.1773C91.3179 64.1773 91.3842 64.4511 90.9168 64.4511ZM89.6801 64.5561C89.3799 64.4944 89.1943 64.1855 89.2764 63.847C89.4839 63.7833 89.7622 63.5886 90.0685 63.6895C90.0405 64.0193 89.9717 64.3129 89.701 64.3935C89.6801 64.4337 89.701 64.5189 89.6801 64.5561ZM92.4985 57.7177C92.4985 57.7177 93.1322 57.4552 93.124 57.0224C93.1179 57.0087 93.1143 57 93.1143 56.9934C92.8069 55.798 90.4605 57.2503 90.4605 57.2503C90.4605 57.2503 89.1546 58.1964 88.762 58.1964C88.762 58.1964 88.5061 58.0154 89.8621 55.8862C89.8621 55.8862 90.3927 55.1664 91.4219 53.0469C91.4219 52.6671 91.6472 52.3837 91.242 51.9769C90.3423 51.6879 89.4905 53.4684 89.4905 53.4684C89.5338 53.4633 89.5537 53.4389 89.6006 53.4348C89.5929 53.4899 89.4905 53.5327 89.5374 53.5928C89.5868 53.5301 89.6164 53.444 89.6954 53.4042C89.856 53.4159 89.8993 53.2227 90.0685 53.2814C90.0685 53.2814 89.701 54.2096 89.4589 54.7984C89.4589 54.7984 87.4601 58.3091 88.1238 59.3153C88.5148 59.7002 89.8183 58.6475 89.8183 58.6475C89.8183 58.6475 91.3271 57.3482 91.5555 57.5735C91.5876 57.6163 90.225 59.5707 90.225 59.5707C89.6281 60.6096 88.6723 62.8387 88.6723 62.8387C88.2452 62.9769 87.9531 62.8943 87.5499 62.7577C86.1613 62.6532 87.008 63.6895 87.008 63.6895C87.4066 63.9714 88.002 63.872 88.3716 63.9714C87.9097 65.8193 89.2254 66.068 89.2254 66.068C89.8835 66.1674 90.4743 65.6775 91.1095 65.7076C90.9897 67.0299 90.2531 67.9719 90.2531 67.9719C90.2148 67.9194 90.0211 67.8639 90.0176 67.8807C89.9839 67.9465 90.1052 68.0438 90.0685 68.1152C89.7255 68.8202 90.1134 69.5058 90.1134 69.5058C90.1134 69.5027 90.1644 69.6755 90.3005 69.6959C90.5375 69.7219 90.9795 69.3952 91.1564 69.0404C91.7558 67.7787 92.0005 67.085 92.0005 67.085C92.2243 66.7057 92.2166 66.0864 92.4394 65.7076C92.6143 65.6612 92.7947 65.5562 92.9502 65.4451C93.097 64.6687 92.3298 64.3236 92.3298 64.3236C92.391 63.7925 92.4567 63.3521 92.6576 62.9422C92.9879 62.9422 93.7219 62.695 93.7989 62.6736C94.2307 62.5553 94.508 62.9198 94.508 62.9198C94.7404 63.0804 94.9255 63.271 95.369 63.0569C96.052 61.3237 93.935 61.8942 93.935 61.8942C93.935 61.8942 92.9308 62.1536 92.8635 62.0012C92.8635 62.0012 93.3937 60.7752 93.073 59.7466C93.073 59.7466 92.8069 59.249 92.0489 59.4514C91.3052 59.6512 91.294 60.0743 91.294 60.0743C91.503 60.1146 91.6218 60.2446 91.7599 60.3532C91.8379 60.6799 91.8578 61.1295 91.7599 61.3987C91.6182 61.31 91.3929 61.2248 91.2767 61.1158C91.2767 61.1158 90.4712 60.6748 90.3973 61.7382C90.3295 62.0619 90.3153 62.3998 90.2531 62.6527C90.1414 62.8168 89.701 62.7979 89.4762 62.7475C90.6578 58.4824 92.4985 57.7177 92.4985 57.7177Z" fill="#007DBD"/>
<path fill-rule="evenodd" clip-rule="evenodd" d="M123.08 66.9334C122.847 67.6364 122.093 68.637 121.22 68.4678C120.722 68.3128 120.683 68.0865 120.732 67.6558C120.811 66.5109 122.178 66.1122 122.178 66.1122C122.525 66.1428 122.945 66.1122 123.111 66.2626C123.111 66.2626 123.265 66.385 123.08 66.9334ZM123.842 55.6919C123.92 55.7087 123.885 55.8137 123.916 55.8616C123.999 56.0135 124.242 56.038 124.356 56.1573C124.352 56.3591 124.195 56.5192 124.091 56.6747C123.778 57.1492 123.432 57.7064 122.999 58.0199C122.98 57.8879 123.089 57.607 123.06 57.4413C123.394 55.6394 123.842 55.6919 123.842 55.6919ZM119.856 52.8046C119.794 52.876 119.735 52.9601 119.616 52.9698C119.556 53.1497 119.562 53.3648 119.485 53.478C119.485 53.478 119.654 54.0362 119.739 54.5164C119.704 54.8548 119.671 55.2805 119.647 55.6276C119.577 56.7114 119.354 57.8445 119.544 58.7983C119.665 59.1653 119.933 59.0399 120.181 58.9155C120.215 58.9069 120.184 58.8238 120.223 58.8182C120.45 58.758 120.544 58.5128 120.785 58.4547C121.211 58.1249 121.263 57.528 121.338 56.901C121.481 55.8616 121.526 54.8625 121.986 54.1493C121.515 56.8133 121.598 57.5932 121.598 57.5932C121.598 57.5932 121.598 57.897 121.468 58.4466C121.468 58.4466 121.263 58.8391 121.302 59.2107C120.941 59.5119 120.531 59.5385 120.118 59.6373C119.065 59.8739 118.226 60.5162 117.196 60.7578C116.858 60.8322 116.522 60.9862 116.176 60.9337C116.267 60.8444 116.313 60.6961 116.403 60.6054C116.385 60.481 116.49 60.3795 116.504 60.2506C116.379 60.3592 116.23 60.4163 116.071 60.4851C115.869 60.5722 115.691 60.7557 115.425 60.7466C115.327 60.8404 115.327 60.9964 115.207 61.0611C115.088 61.3924 115.002 61.7686 115.031 62.1219C115.145 62.3691 115.45 62.1978 115.638 62.2182C117.638 61.945 118.352 61.4974 118.352 61.4974C119.259 60.9337 120.038 60.7578 120.038 60.7578C121.413 60.4759 121.894 60.1731 121.894 60.1731C122.569 59.8739 123.131 59.6848 123.587 59.514C125.187 58.8391 125.68 59.0165 125.68 59.0165C125.837 59.1821 125.851 59.3753 125.749 59.5706C125.492 60.0681 124.62 60.3174 123.873 60.533C123.737 60.5768 123.601 60.6303 123.469 60.6303C123.404 60.6303 123.357 60.6186 123.306 60.6191C122.782 60.6303 122.403 60.9902 122.105 61.1763C121.976 61.2548 121.806 61.2752 121.679 61.3379C121.625 61.3624 121.57 61.4291 121.537 61.4434C121.484 61.4679 121.383 61.4913 121.293 61.5229C121.165 61.5805 120.906 61.6952 120.897 61.8232C120.884 61.9827 121.176 62.0801 121.307 62.1219C121.526 62.1744 121.768 62.1127 121.94 62.1464C122.093 62.1056 122.242 62.0266 122.411 62.0143C122.241 62.417 121.941 62.9375 122.044 63.4187C122.241 63.6654 122.403 63.8474 122.548 64.2221C122.687 64.4061 122.825 64.6406 122.938 64.8424C122.692 64.9811 122.411 64.9449 122.16 64.9867C121.986 65.0142 121.768 65.0912 121.598 65.1722C121.269 65.318 120.955 65.449 120.705 65.6514C120.619 65.7264 120.531 65.7789 120.446 65.8507C120.34 65.9308 120.235 66.0184 120.154 66.102C120.112 66.1581 120.064 66.232 120.026 66.2805C119.985 66.337 119.909 66.3875 119.876 66.4359C119.826 66.5149 119.794 66.5797 119.756 66.6342C119.756 66.6342 119.437 66.9442 119.444 67.3463C119.432 67.4177 119.343 67.4616 119.295 67.5095C119.254 67.6221 119.406 67.6629 119.283 67.7745C119.378 67.8841 119.343 68.0049 119.432 68.0794C119.524 68.3337 119.702 68.6065 119.702 68.6065C120.402 69.7091 121.018 69.5159 121.018 69.5159C122.053 69.6091 123.012 68.7003 123.012 68.7003C123.012 68.7003 123.76 68.0529 123.908 66.5149C124.352 66.5674 124.774 66.5618 125.179 66.4645C125.233 66.4211 125.342 66.3875 125.414 66.3105C125.44 66.2861 125.517 66.2014 125.55 66.1673C125.613 66.1005 125.688 66.074 125.72 66.0205C125.809 65.8676 125.761 65.6555 125.845 65.4592C125.816 65.3359 125.756 65.2411 125.735 65.1095C125.643 65.1004 125.594 65.0122 125.507 64.976C125.421 64.9378 125.305 64.9541 125.204 64.9332C125.117 64.9184 125.051 64.8628 124.98 64.8368C124.862 64.794 124.754 64.8062 124.662 64.7476C124.51 64.7456 124.364 64.8108 124.227 64.769C124.179 64.7558 124.21 64.8368 124.166 64.8241C124.051 64.7476 123.832 64.8424 123.706 64.7252C123.637 64.6691 123.601 64.4341 123.553 64.3164C123.441 64.0472 123.272 63.8856 123.122 63.6695C123.06 63.5767 123.027 63.4738 122.963 63.3708C122.875 63.2209 122.585 62.9054 122.627 62.7377C122.636 62.6918 122.798 62.5776 122.844 62.4925C122.953 62.2789 123.114 62.1938 123.114 62.1938C123.198 62.0184 123.315 61.8456 123.436 61.6784C123.53 61.6121 123.76 61.5102 123.818 61.4087C123.954 61.187 123.899 60.7445 123.744 60.6798C124.091 60.6701 124.22 60.7032 124.484 60.6303C124.679 60.5835 124.885 60.5575 124.966 60.5416C125.096 60.4402 125.295 60.4851 125.295 60.4851C125.469 60.717 125.633 60.4504 125.864 60.5478C125.958 60.4988 126.045 60.4163 126.138 60.3393C126.218 60.2664 126.333 60.2236 126.404 60.1502C126.487 60.0559 126.51 59.9366 126.647 59.9269C126.791 59.7566 126.86 59.6516 126.911 59.4676C126.925 59.4258 126.992 59.3279 126.99 59.229C126.99 59.1199 127.008 58.8141 126.995 58.6811C126.964 58.4562 126.783 58.2401 126.625 58.1147C126.427 57.9648 126.159 57.8731 125.851 57.8731C124.807 57.8568 123.56 58.4144 122.746 58.6082C122.812 58.4496 122.986 58.1336 123.201 58.2707C123.242 58.337 123.147 58.3451 123.156 58.4277C123.37 58.3405 123.491 58.1963 123.718 58.0943C123.769 57.9949 123.873 57.9914 123.962 57.8991C123.982 57.8486 124.015 57.8134 124.042 57.7727C124.175 57.7727 124.208 57.6697 124.337 57.6697C124.337 57.6254 124.346 57.5734 124.35 57.5402C124.394 57.5178 124.449 57.528 124.492 57.4938C124.821 57.1885 125.345 56.9499 125.345 56.9499C125.654 56.6487 125.688 56.2934 125.688 56.2934C125.726 55.9671 125.546 55.6337 125.342 55.4069C125.311 55.3733 125.244 55.3157 125.208 55.2754C125.164 55.231 125.139 55.1724 125.099 55.1459C125.007 55.0669 124.895 55.073 124.854 54.9731C124.804 54.8681 124.97 54.7534 125.046 54.6729C125.27 54.4139 125.494 54.1631 125.756 53.9872C126.037 53.8965 126.417 53.8114 126.485 53.2715C126.491 53.217 126.471 53.0916 126.45 53.0014C126.439 52.9601 126.399 52.8872 126.397 52.8377C126.38 52.7353 126.342 52.6583 126.28 52.6017C126.138 52.4753 125.933 52.461 125.816 52.3683C125.633 52.2266 125.661 51.9064 125.797 51.6475C125.837 51.5705 125.877 51.4879 125.907 51.4099C125.98 51.2631 126.074 51.1178 126.124 50.9833C126.192 50.7941 126.162 50.4985 126.059 50.3914C125.799 50.1371 125.213 50.5168 125.133 50.7009C124.903 50.9945 124.999 51.3911 124.917 51.7688C124.917 51.7688 124.596 52.7516 124.27 53.6233C124.161 53.7201 124.091 53.8333 123.995 53.9363C123.92 54.0178 123.853 54.1157 123.778 54.1973C123.699 54.2804 123.618 54.3675 123.522 54.4139C123.469 54.525 123.382 54.5984 123.284 54.6708C123.272 54.7142 123.253 54.7554 123.236 54.7983C122.9 55.1056 122.772 55.5746 122.542 56.0273C122.611 55.6755 122.711 55.3157 122.759 54.9298C122.801 54.5633 122.812 54.1035 122.89 53.7466C122.972 53.4041 123.103 53.0411 123.151 52.7236C123.151 52.3168 123.007 52.0135 122.602 52.0966C122.352 52.1496 122.068 52.2362 121.965 52.4381C121.936 52.407 121.924 52.4468 121.877 52.4299C121.524 52.692 121.227 53.0345 120.978 53.4199C120.884 53.3648 120.869 53.243 120.818 53.1594C120.818 53.1594 120.402 52.3948 119.856 52.8046Z" fill="#007DBD"/>
<path fill-rule="evenodd" clip-rule="evenodd" d="M107.385 65.0288C107.369 64.9584 107.333 64.9233 107.298 64.8631C107.075 64.6949 107.116 64.5017 106.883 64.4604C106.864 64.3773 106.909 64.2662 106.84 64.2101C106.843 64.1525 106.909 64.1637 106.917 64.1046C106.921 64.0297 106.883 63.9914 106.871 63.9354C106.943 63.7524 106.974 63.5306 107.183 63.4796C107.298 63.5321 107.45 63.4949 107.568 63.4613C107.674 63.5194 107.829 63.5383 107.928 63.5765C107.928 63.5765 107.997 63.5765 109.855 65.303C110.03 65.4845 110.282 65.6996 110.334 66.0559C110.514 67.2528 109.37 67.2345 109.37 67.2345C109.249 67.2105 109.146 67.0851 109.017 67.1259C109.017 67.1259 108.431 66.9766 107.385 65.0288Z" fill="#007DBD"/>
<path fill-rule="evenodd" clip-rule="evenodd" d="M102.695 66.4552C102.695 66.4552 102.188 66.9191 101.005 67.1903C100.487 67.2428 100.3 67.1821 100.151 67.0827C100.184 67.0297 100.232 66.9823 100.268 66.9333C100.212 66.704 100.327 66.4333 100.238 66.1743C100.284 66.0861 100.389 66.0683 100.459 66.0117C100.563 66.0601 100.752 66.029 100.805 66.1264C101.647 66.3278 102.939 64.5717 102.939 64.5717C102.939 64.5717 104.022 63.0587 104.151 61.6283L103.765 61.7456C103.765 61.7456 101.518 62.4965 101.092 61.612C101.075 61.5998 101.114 61.5101 101.064 61.3984C101.027 61.3154 100.894 61.2547 100.889 61.142C100.883 61.0748 100.935 60.9963 100.959 60.9336C101.036 60.6889 101.316 60.4391 101.316 60.4391C101.384 60.3958 101.446 60.3208 101.505 60.2928C101.523 60.2862 102.134 60.0481 102.46 60.2321C102.476 60.2785 102.485 60.2862 102.47 60.3433C102.47 60.3433 104.235 60.4931 104.461 59.6495C104.789 57.7807 104.602 57.4774 104.602 55.7524C104.613 55.3523 104.649 55.2829 104.644 54.9134C104.644 54.9134 104.653 54.5514 104.681 54.1304C104.76 53.8638 104.951 53.6364 105.253 53.5962C105.283 53.5844 105.446 53.5584 105.451 53.5263C105.677 53.5753 105.845 53.7608 106.069 53.6818C106.128 53.7608 106.054 53.799 106.092 53.8541C106.114 53.8719 106.166 53.8541 106.186 53.8719C106.205 53.8862 106.178 53.9336 106.19 53.953C106.216 53.9953 106.287 53.9729 106.304 53.9953C106.333 54.0238 106.321 54.084 106.352 54.1442C106.377 54.1875 106.425 54.1564 106.455 54.2456C106.495 54.3088 106.503 54.3939 106.51 54.4357C106.661 54.9297 106.578 55.1117 106.578 55.1117L106.186 56.254C106.114 56.4865 106.092 56.6669 106.092 56.934C106.092 58.1768 105.85 59.1555 105.85 59.1555C106.315 59.047 107.02 58.6183 107.02 58.6183C107.02 58.6183 107.669 58.2681 108.287 58.8624C109.171 59.6133 108.422 60.1501 108.422 60.1501C108.321 60.2265 108.282 60.3025 108.121 60.3025C108.055 60.3249 108.049 60.408 107.988 60.4197C107.89 60.4391 107.84 60.3168 107.746 60.3315C107.684 60.3433 107.658 60.4162 107.601 60.4391C107.601 60.4391 106.845 60.5512 106.716 60.3744C106.688 60.3795 106.617 60.3917 106.596 60.408C106.211 60.3917 105.661 60.7205 105.542 60.8953C105.542 60.8953 105.461 61.5845 105.197 62.8665C105.197 62.8665 104.681 65.0325 102.695 66.4552Z" fill="#007DBD"/>
<path fill-rule="evenodd" clip-rule="evenodd" d="M63.3351 76.8646V72.3288H63.9361V74.193H66.2922V72.3288H66.8932V76.8646H66.2922V74.7252H63.9361V76.8646H63.3351Z" fill="#007DBD"/>
<path fill-rule="evenodd" clip-rule="evenodd" d="M68.6183 74.6663C68.6183 75.2132 68.7646 75.645 69.0587 75.959C69.3519 76.273 69.7214 76.4295 70.1649 76.4295C70.6166 76.4295 70.9887 76.272 71.2802 75.9544C71.5708 75.6353 71.7171 75.1862 71.7171 74.6015C71.7171 74.2315 71.6559 73.9103 71.5305 73.635C71.4057 73.3593 71.2242 73.1457 70.9826 72.9953C70.743 72.8424 70.4738 72.7664 70.1746 72.7664C69.75 72.7664 69.3829 72.9132 69.0781 73.2043C68.7712 73.4974 68.6183 73.9842 68.6183 74.6663ZM68.001 74.6551C68.001 73.9032 68.2029 73.3159 68.6076 72.8888C69.0108 72.4621 69.5328 72.25 70.1705 72.25C70.59 72.25 70.9673 72.3505 71.3032 72.5493C71.6386 72.7506 71.895 73.0284 72.0699 73.3863C72.2473 73.7441 72.3354 74.1494 72.3354 74.6026C72.3354 75.0629 72.2422 75.4753 72.0571 75.8377C71.8711 76.1996 71.6085 76.4739 71.268 76.6615C70.928 76.8485 70.561 76.9418 70.169 76.9418C69.7408 76.9418 69.3595 76.8388 69.0236 76.6319C68.6882 76.4254 68.4328 76.1446 68.2605 75.7872C68.0866 75.4319 68.001 75.0527 68.001 74.6551Z" fill="#007DBD"/>
<path fill-rule="evenodd" clip-rule="evenodd" d="M73.4206 76.8646V72.3288H74.0201V74.193H76.3787V72.3288H76.9772V76.8646H76.3787V74.7252H74.0201V76.8646H73.4206Z" fill="#007DBD"/>
<path fill-rule="evenodd" clip-rule="evenodd" d="M79.0726 75.0053H80.6237L80.1497 73.7421C80.0018 73.3608 79.8943 73.0468 79.8229 72.796C79.7612 73.0932 79.6776 73.3843 79.5736 73.6713L79.0726 75.0053ZM77.7704 76.8644L79.515 72.3286H80.1665L82.0169 76.8644H81.3343L80.8113 75.4916H78.9033L78.4048 76.8644H77.7704Z" fill="#007DBD"/>
<path fill-rule="evenodd" clip-rule="evenodd" d="M82.8864 76.8645H83.4879V72.3287H82.8864V76.8645Z" fill="#007DBD"/>
<path fill-rule="evenodd" clip-rule="evenodd" d="M89.864 72.3286H90.4625V74.9482C90.4625 75.4044 90.412 75.7664 90.307 76.034C90.2056 76.3026 90.019 76.5213 89.7498 76.689C89.4807 76.8577 89.1264 76.9419 88.6901 76.9419C88.2649 76.9419 87.9163 76.8679 87.6466 76.7211C87.3769 76.5748 87.1832 76.3633 87.068 76.0865C86.9518 75.8082 86.8957 75.4299 86.8957 74.9482V72.3286H87.4947V74.9457C87.4947 75.3397 87.5304 75.6313 87.6038 75.8184C87.6777 76.0039 87.8031 76.1487 87.9825 76.2486C88.1584 76.3516 88.3786 76.402 88.637 76.402C89.0785 76.402 89.393 76.3006 89.5801 76.1003C89.7697 75.8999 89.864 75.5161 89.864 74.9457V72.3286Z" fill="#007DBD"/>
<path fill-rule="evenodd" clip-rule="evenodd" d="M91.7434 76.8646V72.3288H92.3586L94.7422 75.8895V72.3288H95.3167V76.8646H94.7004L92.3179 73.3014V76.8646H91.7434Z" fill="#007DBD"/>
<path fill-rule="evenodd" clip-rule="evenodd" d="M96.7204 76.8645H97.3224V72.3287H96.7204V76.8645Z" fill="#007DBD"/>
<path fill-rule="evenodd" clip-rule="evenodd" d="M99.9605 76.8646L98.2054 72.3288H98.8553L100.035 75.6254C100.13 75.8895 100.209 76.1367 100.272 76.3691C100.343 76.1204 100.424 75.8726 100.517 75.6254L101.742 72.3288H102.356L100.585 76.8646H99.9605Z" fill="#007DBD"/>
<path fill-rule="evenodd" clip-rule="evenodd" d="M103.195 76.8646V72.3288H106.479V72.8625H103.795V74.2521H106.307V74.7858H103.795V76.3289H106.585V76.8646H103.195Z" fill="#007DBD"/>
<path fill-rule="evenodd" clip-rule="evenodd" d="M108.312 74.3291H109.602C109.876 74.3291 110.092 74.3006 110.246 74.243C110.402 74.1864 110.52 74.0961 110.601 73.9707C110.684 73.8459 110.723 73.7103 110.723 73.5624C110.723 73.3494 110.644 73.172 110.489 73.0348C110.332 72.8952 110.084 72.8263 109.747 72.8263H108.312V74.3291ZM107.711 76.8646V72.3288H109.725C110.128 72.3288 110.437 72.3691 110.646 72.4502C110.856 72.5322 111.024 72.676 111.151 72.8819C111.275 73.0894 111.34 73.3172 111.34 73.5675C111.34 73.8897 111.235 74.1619 111.026 74.3816C110.818 74.6028 110.496 74.7435 110.062 74.8042C110.22 74.8791 110.34 74.9556 110.42 75.03C110.598 75.1906 110.764 75.3909 110.92 75.631L111.705 76.8646H110.956L110.356 75.9226C110.18 75.6499 110.034 75.4414 109.921 75.2976C109.808 75.1539 109.706 75.0524 109.616 74.9943C109.527 74.9357 109.434 74.8954 109.342 74.873C109.274 74.8587 109.162 74.8506 109.008 74.8506H108.312V76.8646H107.711Z" fill="#007DBD"/>
<path fill-rule="evenodd" clip-rule="evenodd" d="M112.369 75.4035L112.933 75.3551C112.959 75.583 113.022 75.7705 113.12 75.9163C113.218 76.0637 113.369 76.1814 113.576 76.2721C113.783 76.3624 114.015 76.4057 114.273 76.4057C114.501 76.4057 114.702 76.3731 114.878 76.3043C115.053 76.2349 115.183 76.1427 115.269 76.0229C115.354 75.9036 115.397 75.7746 115.397 75.6355C115.397 75.4932 115.357 75.3684 115.271 75.2633C115.188 75.1578 115.053 75.0691 114.862 74.9962C114.741 74.9498 114.472 74.8749 114.056 74.775C113.64 74.6746 113.35 74.5808 113.184 74.4926C112.966 74.3794 112.807 74.2357 112.699 74.068C112.594 73.8998 112.541 73.7122 112.541 73.5027C112.541 73.2733 112.608 73.0587 112.737 72.8604C112.866 72.659 113.057 72.5076 113.304 72.4046C113.553 72.3027 113.83 72.2497 114.135 72.2497C114.471 72.2497 114.767 72.3047 115.024 72.4123C115.28 72.5209 115.478 72.6809 115.616 72.8889C115.752 73.1005 115.826 73.34 115.836 73.6051L115.261 73.6464C115.231 73.3609 115.126 73.1479 114.947 73.0026C114.769 72.8578 114.506 72.7839 114.159 72.7839C113.797 72.7839 113.532 72.8507 113.367 72.9837C113.201 73.1173 113.118 73.2773 113.118 73.4649C113.118 73.627 113.176 73.7626 113.293 73.8666C113.408 73.9727 113.708 74.0797 114.198 74.1903C114.685 74.3004 115.018 74.3963 115.2 74.4804C115.464 74.6007 115.659 74.7556 115.785 74.9407C115.91 75.1272 115.973 75.3418 115.973 75.5855C115.973 75.8271 115.906 76.0535 115.766 76.2655C115.629 76.4796 115.431 76.6448 115.172 76.7635C114.913 76.8818 114.623 76.942 114.3 76.942C113.889 76.942 113.547 76.8808 113.269 76.7615C112.992 76.6402 112.775 76.4602 112.617 76.2207C112.461 75.979 112.378 75.7063 112.369 75.4035Z" fill="#007DBD"/>
<path fill-rule="evenodd" clip-rule="evenodd" d="M117.189 76.8645H117.789V72.3287H117.189V76.8645Z" fill="#007DBD"/>
<path fill-rule="evenodd" clip-rule="evenodd" d="M120.293 76.8646V72.8625H118.796V72.3288H122.386V72.8625H120.892V76.8646H120.293Z" fill="#007DBD"/>
<path fill-rule="evenodd" clip-rule="evenodd" d="M124.573 76.8646V74.9423L122.829 72.3288H123.559L124.448 73.698C124.612 73.9529 124.768 74.2052 124.909 74.4591C125.048 74.2256 125.212 73.9585 125.404 73.6603L126.283 72.3288H126.984L125.174 74.9423V76.8646H124.573Z" fill="#007DBD"/>
<path fill-rule="evenodd" clip-rule="evenodd" d="M36.4614 76.6225C35.7488 76.3269 35.1931 75.7728 34.899 75.0637C34.2088 73.3973 32.2932 71.4796 30.6278 70.7889C29.9197 70.4938 29.3641 69.9397 29.069 69.2245C28.7743 68.5093 28.7728 67.7248 29.0679 67.0157C29.7571 65.3503 29.7571 62.6395 29.0685 60.9746C28.4593 59.504 29.1607 57.8106 30.6308 57.2025C32.2977 56.5148 34.2149 54.5981 34.9051 52.9328C35.5153 51.4626 37.2062 50.7622 38.6763 51.3714C40.3411 52.0616 43.0535 52.0621 44.7194 51.3729C45.4275 51.0798 46.2115 51.0813 46.9271 51.377C47.6413 51.6737 48.1959 52.2262 48.4895 52.9368C49.1797 54.6027 51.0964 56.5204 52.7618 57.2091C54.2319 57.8177 54.9298 59.5106 54.3221 60.9807C53.6319 62.6461 53.6309 65.357 54.3206 67.0234C54.9293 68.4925 54.2283 70.1849 52.7582 70.7955C51.0918 71.4842 49.1741 73.4019 48.4829 75.0673C48.1903 75.7763 47.6352 76.3299 46.92 76.6251C46.2053 76.9207 45.4213 76.9217 44.7123 76.6281C43.0469 75.9374 40.3365 75.9374 38.6691 76.6271C37.9606 76.9192 37.1761 76.9187 36.4614 76.6225ZM34.4035 52.7248C33.7709 54.2495 31.9496 56.0713 30.4234 56.7029C28.677 57.4242 27.845 59.4347 28.5663 61.1816C29.1979 62.7078 29.1969 65.2836 28.5648 66.8082C28.2167 67.6519 28.2167 68.5832 28.5689 69.4314C28.9196 70.2812 29.5762 70.9408 30.4193 71.291C31.945 71.9226 33.7668 73.7455 34.3979 75.2701C35.1202 77.0181 37.1307 77.851 38.8771 77.1282C40.4013 76.4961 42.9796 76.4961 44.5043 77.1297C46.2507 77.8526 48.2617 77.0211 48.984 75.2747C49.6181 73.7501 51.4395 71.9277 52.9652 71.2961C54.7111 70.5738 55.544 68.5623 54.8217 66.8149V66.8169C54.1906 65.2897 54.1906 62.7129 54.8232 61.1892C55.5471 59.4418 54.7162 57.4318 52.9687 56.709C51.4436 56.0774 49.6222 54.254 48.9927 52.7283C48.6425 51.8857 47.9828 51.2281 47.1346 50.8759C46.2864 50.5247 45.3551 50.5232 44.5119 50.8713C42.9873 51.5029 40.4079 51.5029 38.8843 50.8703C37.1373 50.1454 35.1279 50.9784 34.4035 52.7248Z" fill="#007DBD"/>
<path fill-rule="evenodd" clip-rule="evenodd" d="M34.2482 76.1317C33.4907 74.3022 31.3879 72.1985 29.5589 71.4389C27.9507 70.7722 27.185 68.9202 27.8508 67.312C28.6088 65.4825 28.6093 62.507 27.8538 60.6775C27.1871 59.0687 27.9537 57.2173 29.564 56.5541C31.393 55.7951 33.4968 53.6919 34.2553 51.8639C34.9215 50.2551 36.7719 49.4889 38.3807 50.1562C40.2102 50.9142 43.1857 50.9142 45.0152 50.1583C46.6245 49.492 48.4743 50.2592 49.1411 51.8675C49.8976 53.6975 52.0013 55.8028 53.8303 56.5597C54.6057 56.8814 55.2118 57.4885 55.5349 58.2705C55.8591 59.054 55.8597 59.9098 55.5385 60.6857C54.7795 62.5131 54.779 65.4901 55.5349 67.3191C56.2017 68.9269 55.435 70.7803 53.8252 71.4455C51.9962 72.2036 49.892 74.3073 49.1355 76.1348C48.4677 77.7441 46.6158 78.5097 45.0075 77.8435C43.178 77.0855 40.2021 77.0849 38.3736 77.8419C36.7648 78.5077 34.9139 77.7415 34.2482 76.1317ZM33.6895 51.6309C32.9977 53.3009 31.0005 55.2976 29.329 55.9893C27.4103 56.7835 26.4943 58.9913 27.2895 60.9115C27.9797 62.583 27.9797 65.406 27.287 67.0775C26.4918 68.9982 27.4062 71.208 29.326 72.0037C30.9975 72.696 32.9942 74.6932 33.6834 76.3652C34.4786 78.2844 36.6878 79.2014 38.6065 78.4057C40.279 77.7145 43.1036 77.7145 44.7735 78.4078C46.6933 79.203 48.9041 78.288 49.6983 76.3687C50.39 74.6983 52.3887 72.7021 54.0602 72.0109C55.98 71.2156 56.895 69.0064 56.0997 67.0846C55.4085 65.4141 55.4085 62.5896 56.1018 60.9191C56.4851 59.9929 56.4851 58.9693 56.0982 58.036C55.7128 57.1042 54.991 56.3803 54.0633 55.9959C52.3933 55.3042 50.3971 53.306 49.7054 51.6345C48.9117 49.7148 46.7024 48.7998 44.7812 49.5934C43.1112 50.2857 40.2857 50.2847 38.6142 49.5924C36.696 48.7972 34.4867 49.7097 33.6895 51.6309Z" fill="#007DBD"/>
<path fill-rule="evenodd" clip-rule="evenodd" d="M31.2435 58.7688C31.2435 58.7688 31.2017 58.829 30.929 58.6047C30.8276 58.5134 30.8653 58.387 30.8653 58.387C31.0662 58.1428 31.2237 58.1693 31.2237 58.1693C31.2624 58.1887 31.3011 58.1943 31.3399 58.2091C31.4107 58.2692 31.4464 58.3442 31.4632 58.4135C31.4632 58.4135 31.4398 58.596 31.2435 58.7688Z" fill="#007DBD"/>
<path fill-rule="evenodd" clip-rule="evenodd" d="M32.9743 57.5073C33.0676 57.3733 33.2495 57.5415 33.2495 57.5415L33.8368 58.1089L34.0427 58.3296C34.1503 58.4453 34.2762 58.5131 34.3725 58.5941C34.4877 58.689 34.6177 58.8087 34.7263 58.9224C34.8022 59.0009 34.9042 59.0657 34.9511 59.1681C34.8578 59.2349 34.7492 59.2278 34.6641 59.2619C34.6707 59.266 34.6677 59.266 34.6845 59.2634C34.6763 59.2925 34.634 59.2854 34.6248 59.3088C34.6478 59.3103 34.6687 59.3032 34.6926 59.2986C34.6962 59.3063 34.6926 59.3154 34.7049 59.3246C34.7538 59.3261 34.8022 59.3032 34.8532 59.3251C34.8369 59.3379 34.8293 59.3445 34.8303 59.3618C34.8772 59.3837 34.9246 59.3542 34.9725 59.3695C34.9368 59.3853 34.8767 59.3628 34.8588 59.398C34.9164 59.4322 34.9812 59.3654 35.0332 59.4281C35.0959 59.4281 35.1458 59.45 35.2065 59.4439C35.2065 59.4439 35.2936 59.5458 35.3808 59.4169C35.4277 59.2777 35.3426 59.161 35.3426 59.161C35.3426 59.161 35.2126 59.0091 34.7773 58.6798C34.5856 58.4111 34.267 58.2358 34.267 58.2358C34.267 58.2358 34.1523 58.1343 34.0967 58.0523C33.6109 57.5369 33.4178 57.4054 33.4178 57.4054C33.2281 57.0985 33.091 57.1515 33.091 57.1515C32.9743 57.2005 32.961 57.2729 32.9213 57.3325C32.8392 57.2025 32.907 56.706 32.907 56.706C33.1104 56.105 32.7902 56.2202 32.7902 56.2202C32.7902 56.2202 32.5451 56.2753 32.5782 56.7917C32.5782 56.7917 32.4324 57.7673 32.4324 58.1491C32.4324 58.1491 32.4293 58.6701 32.5746 59.3154C32.5746 59.3154 32.6756 59.7605 32.7943 59.918C32.8504 59.9939 32.9941 60.2335 33.1063 60.4226C33.0421 60.4068 32.9916 60.3706 32.9391 60.3181C32.9391 60.3181 32.3503 59.6845 32.3014 59.5397C32.3014 59.5397 32.3952 59.1233 32.0613 59.0427C32.0613 59.0427 32.0246 59.0381 31.9797 59.058C31.8951 59.0922 31.7203 59.19 31.6994 59.2135C31.6576 59.2492 31.6785 59.3032 31.6724 59.3618C31.6724 59.3618 31.708 59.499 31.9925 59.633C31.9961 59.634 32.0001 59.6356 32.0022 59.6366C32.0404 59.6544 32.6689 60.3951 32.6689 60.3951C33.3418 61.2061 33.4621 60.6913 33.4621 60.6913C33.455 60.5139 33.4529 60.3411 33.3693 60.1978C33.2098 60.0291 33.0135 59.8374 32.9911 59.8017C32.7367 59.5418 32.438 58.3296 32.7571 57.4278C32.881 57.8412 33.037 58.2567 33.195 58.6686C33.195 58.6686 33.2159 58.9046 33.3979 59.0443C33.3979 59.0443 33.4835 59.082 33.5477 58.9912C33.5967 58.8169 33.5008 58.7262 33.5008 58.7262C33.3551 58.5661 33.3872 58.5019 33.3872 58.5019C33.5951 58.641 33.7465 58.5335 33.7465 58.5335C33.9443 58.3688 33.694 58.1746 33.694 58.1746C33.6359 58.1517 33.5911 58.1099 33.5411 58.0834C33.4494 58.0334 33.3948 57.9753 33.3948 57.9753C33.3071 57.9157 33.3306 57.961 33.299 57.9498C33.2562 57.932 33.2307 57.879 33.193 57.8688C33.1705 57.8805 33.2016 57.9055 33.1812 57.909C33.1481 57.8917 33.1389 57.8458 33.1109 57.829C33.1634 57.9213 33.2348 58.0059 33.2633 58.0992C33.2159 58.1206 33.2057 58.1629 33.1879 58.196C33.1364 58.0716 33.1165 57.9585 33.0558 57.8208C33.0227 57.6995 32.9488 57.5858 32.9452 57.4783C32.9452 57.4783 32.9473 57.4564 32.9743 57.5073Z" fill="#007DBD"/>
<path fill-rule="evenodd" clip-rule="evenodd" d="M45.6312 56.0099C45.6307 55.9905 45.622 55.9777 45.6174 55.9584C45.567 55.8987 45.5914 55.8493 45.5308 55.8223C45.5308 55.7978 45.5501 55.7708 45.5354 55.7504C45.5384 55.7351 45.5583 55.7438 45.5619 55.7269C45.5685 55.7076 45.5619 55.6953 45.5598 55.6795C45.594 55.6342 45.6164 55.5756 45.6766 55.5756C45.7056 55.598 45.7479 55.598 45.7826 55.5975C45.8096 55.6189 45.8484 55.6342 45.8718 55.6525C45.8718 55.6525 45.8912 55.6571 46.2822 56.2454C46.3183 56.307 46.3703 56.3845 46.3617 56.4834C46.3311 56.8193 46.0237 56.7378 46.0237 56.7378C45.9926 56.7235 45.9722 56.6848 45.9325 56.6868C45.9325 56.6868 45.7857 56.6073 45.6312 56.0099Z" fill="#007DBD"/>
<path fill-rule="evenodd" clip-rule="evenodd" d="M44.2641 56.0878C44.2641 56.0878 44.0944 56.1791 43.7569 56.1781C43.6131 56.1572 43.5647 56.1276 43.5316 56.0894C43.5443 56.0776 43.5591 56.0695 43.5739 56.0573C43.5739 55.991 43.6218 55.9257 43.6162 55.8498C43.6325 55.8294 43.6616 55.8299 43.6876 55.8192C43.7115 55.8411 43.7635 55.8447 43.7722 55.8753C43.9873 55.9823 44.4537 55.5939 44.4537 55.5939C44.4537 55.5939 44.8462 55.2564 44.9772 54.8762L44.8641 54.8807C44.8641 54.8807 44.205 54.9358 44.1469 54.6687C44.1458 54.6641 44.1601 54.6427 44.154 54.6096C44.1489 54.5841 44.1183 54.5586 44.1229 54.528C44.1249 54.5096 44.1469 54.4913 44.156 54.4755C44.1938 54.4148 44.286 54.3644 44.286 54.3644C44.3074 54.3577 44.3278 54.3424 44.3472 54.3379C44.3528 54.3374 44.5333 54.3124 44.6102 54.3842C44.6107 54.3975 44.6133 54.4006 44.6056 54.4164C44.6056 54.4164 45.0741 54.5729 45.1898 54.3577C45.4009 53.8745 45.3723 53.7776 45.4855 53.3107C45.5145 53.2021 45.5283 53.1853 45.5517 53.0864C45.5517 53.0864 45.5782 52.987 45.6144 52.8764C45.6527 52.8086 45.7189 52.7592 45.8036 52.7683C45.8127 52.7668 45.8566 52.7709 45.8617 52.7617C45.9198 52.7902 45.9529 52.8514 46.0197 52.8438C46.0304 52.8708 46.008 52.8759 46.0171 52.8937C46.0187 52.8988 46.0345 52.8973 46.038 52.9034C46.0426 52.9095 46.0329 52.9192 46.035 52.9269C46.0406 52.9386 46.0589 52.9376 46.0635 52.9447C46.0681 52.9549 46.0615 52.9717 46.0656 52.9896C46.0691 53.0023 46.0855 52.9972 46.0875 53.0247C46.0941 53.0431 46.0895 53.066 46.0895 53.0793C46.0997 53.223 46.062 53.2658 46.062 53.2658L45.8826 53.5518C45.8469 53.6094 45.8296 53.6568 45.8127 53.7287C45.7302 54.0662 45.6002 54.3139 45.6002 54.3139C45.7353 54.3165 45.9529 54.2466 45.9529 54.2466C45.9529 54.2466 46.1492 54.1936 46.2822 54.3965C46.4698 54.659 46.2318 54.7538 46.2318 54.7538C46.1986 54.7686 46.1833 54.787 46.14 54.7762C46.1216 54.7783 46.1145 54.7997 46.0967 54.7997C46.0691 54.7982 46.0615 54.7604 46.037 54.7594C46.0187 54.7594 46.0064 54.7762 45.9906 54.7783C45.9906 54.7783 45.7771 54.7594 45.7541 54.7034C45.7449 54.7028 45.7251 54.7018 45.7189 54.7039C45.616 54.6753 45.4452 54.7278 45.4003 54.7681C45.4003 54.7681 45.3346 54.9501 45.1781 55.2794C45.1781 55.2794 44.8952 55.8325 44.2641 56.0878Z" fill="#007DBD"/>
<path fill-rule="evenodd" clip-rule="evenodd" d="M49.2902 60.1731C49.1042 60.224 48.7835 60.2093 48.6923 59.9962C48.653 59.8672 48.6954 59.8269 48.7948 59.7755C49.0512 59.6256 49.3346 59.8606 49.3346 59.8606C49.3789 59.9386 49.4462 60.0237 49.4381 60.0813C49.4381 60.0813 49.434 60.1313 49.2902 60.1731ZM51.8038 58.7034C51.8125 58.7213 51.7824 58.7289 51.7783 58.7442C51.758 58.783 51.7875 58.837 51.7794 58.8803C51.735 58.9094 51.6784 58.8977 51.629 58.8987C51.4832 58.9017 51.3129 58.9073 51.1845 58.8604C51.2089 58.837 51.2849 58.8207 51.3175 58.7911C51.7498 58.5995 51.8038 58.7034 51.8038 58.7034ZM51.8426 57.4321C51.8171 57.4296 51.7926 57.427 51.7717 57.4056C51.7258 57.4184 51.6805 57.452 51.6453 57.4489C51.6453 57.4489 51.55 57.5677 51.4597 57.6559C51.3823 57.6982 51.2874 57.7517 51.2089 57.7966C50.9663 57.9398 50.6921 58.0566 50.5162 58.235C50.4571 58.314 50.5203 58.3548 50.5825 58.3894C50.5896 58.3945 50.6039 58.3757 50.6095 58.3828C50.6574 58.4236 50.7216 58.4063 50.768 58.4511C50.9011 58.4944 51.0372 58.418 51.1814 58.3441C51.4246 58.2233 51.6453 58.0877 51.8635 58.0821C51.2263 58.368 51.0728 58.5 51.0728 58.5C51.0728 58.5 51.0076 58.5434 50.8689 58.5959C50.8689 58.5959 50.7568 58.6086 50.6814 58.6718C50.5677 58.6382 50.4999 58.5536 50.4209 58.4771C50.2154 58.289 49.957 58.2039 49.7572 58.0178C49.6904 57.9572 49.6093 57.9067 49.5711 57.8251C49.6042 57.8318 49.6415 57.8185 49.6746 57.8251C49.697 57.8037 49.7342 57.8119 49.7638 57.7966C49.724 57.7844 49.6899 57.7614 49.6522 57.738C49.6022 57.7069 49.538 57.6957 49.5023 57.6375C49.4676 57.6309 49.434 57.6539 49.4029 57.636C49.3152 57.659 49.2219 57.6957 49.1521 57.7538C49.1128 57.8139 49.1964 57.8532 49.2194 57.898C49.566 58.2849 49.7643 58.3716 49.7643 58.3716C50.0192 58.4842 50.1706 58.6244 50.1706 58.6244C50.428 58.8768 50.5631 58.9374 50.5631 58.9374C50.7257 59.0389 50.8475 59.1301 50.9495 59.205C51.3257 59.4487 51.3598 59.5787 51.3598 59.5787C51.3466 59.6363 51.3073 59.6659 51.2502 59.6735C51.1075 59.6913 50.9271 59.5405 50.7726 59.4135C50.7435 59.3896 50.7124 59.3697 50.6931 59.3411C50.6829 59.3264 50.6798 59.3151 50.6732 59.3034C50.5937 59.1943 50.4616 59.1648 50.3796 59.1281C50.3439 59.1112 50.3153 59.0781 50.2817 59.0603C50.27 59.0542 50.247 59.0496 50.2384 59.0455C50.2272 59.0378 50.2088 59.019 50.1874 59.0047C50.1563 58.9864 50.0951 58.9466 50.0646 58.9634C50.0304 58.9833 50.0503 59.0603 50.0635 59.0954C50.0814 59.1495 50.1293 59.1918 50.1476 59.2346C50.1782 59.2616 50.2165 59.281 50.2445 59.3151C50.1339 59.3366 49.9794 59.3503 49.8907 59.4405C49.8657 59.519 49.852 59.5787 49.7923 59.6653C49.773 59.7209 49.7419 59.7841 49.7149 59.8371C49.6522 59.8045 49.618 59.7403 49.5721 59.6919C49.541 59.6602 49.4931 59.6256 49.4539 59.6001C49.3728 59.5512 49.2994 59.5022 49.2194 59.4788C49.1924 59.4706 49.1669 59.4594 49.1404 59.4512C49.1062 59.4405 49.0726 59.4319 49.0435 59.4283C49.0247 59.4247 49.0032 59.4247 48.9859 59.4242C48.9686 59.4232 48.9467 59.4156 48.9309 59.4151C48.9084 59.4151 48.8875 59.4186 48.8717 59.4171C48.8717 59.4171 48.7606 59.3962 48.6745 59.4543C48.6571 59.463 48.6357 59.4502 48.6163 59.4467C48.5878 59.4553 48.601 59.491 48.5592 59.4813C48.5491 59.5175 48.5185 59.5287 48.5149 59.5583C48.4762 59.6144 48.442 59.6919 48.442 59.6919C48.309 60.0003 48.4395 60.1058 48.4395 60.1058C48.5684 60.3397 48.9023 60.4132 48.9023 60.4132C48.9023 60.4132 49.1495 60.4799 49.4997 60.2883C49.5533 60.3917 49.615 60.4799 49.697 60.5523C49.7118 60.5564 49.7342 60.5758 49.7612 60.5814C49.7725 60.5834 49.7995 60.5854 49.8138 60.5885C49.8347 60.5921 49.852 60.6053 49.8693 60.6038C49.9147 60.5992 49.9514 60.5605 50.0064 60.5487C50.0294 60.5243 50.0396 60.4973 50.0646 60.4743C50.0518 60.4534 50.0656 60.4315 50.061 60.407C50.0559 60.3836 50.035 60.3606 50.0258 60.3352C50.0151 60.3148 50.0192 60.2929 50.0136 60.273C50.0064 60.2429 49.9881 60.2205 49.986 60.1924C49.9657 60.1613 49.9305 60.1374 49.9188 60.1037C49.9157 60.09 49.903 60.1098 49.8994 60.0986C49.8958 60.0614 49.8454 60.0293 49.852 59.9855C49.8556 59.961 49.8999 59.9192 49.9188 59.8927C49.9595 59.83 49.9708 59.7698 49.9937 59.7087C50.0034 59.6817 50.0228 59.6587 50.0329 59.6302C50.0544 59.5889 50.0793 59.4823 50.1196 59.466C50.1313 59.4614 50.1813 59.4788 50.2032 59.4772C50.2664 59.4696 50.3087 59.492 50.3087 59.492C50.3587 59.4844 50.4117 59.4839 50.4637 59.4869C50.4938 59.4956 50.5488 59.5313 50.5779 59.5287C50.6447 59.5252 50.7323 59.4497 50.7232 59.4069C50.7772 59.4788 50.7879 59.5119 50.8394 59.5583C50.8796 59.5935 50.9138 59.6332 50.9296 59.6475C50.9694 59.6613 50.9908 59.7087 50.9908 59.7087C50.9658 59.7806 51.0443 59.776 51.0591 59.8402C51.083 59.854 51.1136 59.8606 51.1417 59.8682C51.1702 59.8759 51.1962 59.8927 51.2227 59.8963C51.2543 59.9024 51.2824 59.8896 51.3068 59.9177C51.3614 59.9238 51.395 59.9228 51.4419 59.908C51.4521 59.9044 51.4832 59.9034 51.5051 59.8896C51.526 59.8738 51.5974 59.8336 51.6213 59.8116C51.6642 59.7714 51.6861 59.7026 51.6902 59.6501C51.6927 59.5874 51.6733 59.516 51.629 59.4487C51.4817 59.2244 51.1794 59.0389 51.0203 58.892C51.0637 58.8824 51.1559 58.8742 51.159 58.9415C51.1513 58.9604 51.135 58.94 51.1187 58.9542C51.1677 58.9869 51.2171 58.993 51.2716 59.0266C51.3002 59.0225 51.3175 59.0429 51.3486 59.0491C51.3614 59.0475 51.3756 59.0475 51.3879 59.0491C51.4072 59.0771 51.4343 59.0689 51.4526 59.0954C51.4623 59.0909 51.4725 59.0847 51.4817 59.0781C51.4949 59.0888 51.499 59.101 51.5112 59.1031C51.6264 59.1296 51.7534 59.2086 51.7534 59.2086C51.8635 59.2285 51.943 59.1857 51.943 59.1857C52.0179 59.1464 52.0623 59.0592 52.0816 58.9818C52.0832 58.9706 52.0883 58.9497 52.0898 58.9354C52.0934 58.9186 52.1015 58.9048 52.1025 58.8931C52.1056 58.8625 52.0883 58.8395 52.1025 58.8151C52.1183 58.7896 52.1683 58.8074 52.1958 58.812C52.2861 58.8232 52.3707 58.835 52.4446 58.864C52.5063 58.9114 52.5797 58.9797 52.7041 58.918C52.7173 58.9104 52.7402 58.888 52.7571 58.8717C52.7642 58.8615 52.7744 58.8426 52.7841 58.835C52.8024 58.8171 52.8152 58.7977 52.8187 58.7763C52.8259 58.7279 52.7978 58.6805 52.8014 58.6433C52.804 58.5831 52.8769 58.5424 52.9508 58.5337C52.9747 58.5322 52.9977 58.5281 53.0186 58.5235C53.0594 58.5169 53.1037 58.5169 53.1414 58.5082C53.1914 58.4944 53.2495 58.4455 53.2582 58.4083C53.2755 58.316 53.1073 58.2457 53.0573 58.2554C52.9615 58.2498 52.8911 58.3252 52.7978 58.3639C52.7978 58.3639 52.5414 58.4374 52.3064 58.495C52.2708 58.4842 52.2356 58.4863 52.2025 58.4822C52.1719 58.4771 52.1418 58.4761 52.1133 58.4725C52.0832 58.4674 52.0551 58.4639 52.0302 58.4486C51.9986 58.4552 51.9715 58.4465 51.942 58.4373C51.9313 58.4399 51.9175 58.4419 51.9078 58.443C51.7926 58.418 51.6733 58.4572 51.5418 58.4746C51.629 58.4373 51.7202 58.4078 51.8094 58.3609C51.8946 58.317 51.9935 58.2533 52.0806 58.2187C52.1658 58.185 52.2621 58.1595 52.3375 58.1244C52.4262 58.0657 52.4675 57.9908 52.3931 57.9159C52.3437 57.8695 52.2845 57.8231 52.2264 57.8292C52.2295 57.8185 52.2203 57.8216 52.2162 57.8098C52.1087 57.7731 51.9935 57.7589 51.8732 57.7609C51.8711 57.7344 51.8956 57.7125 51.9078 57.6906C51.9078 57.6906 52.0087 57.4882 51.8426 57.4321Z" fill="#007DBD"/>
<path fill-rule="evenodd" clip-rule="evenodd" d="M37.4535 53.9505C37.478 54.1279 37.3944 54.19 37.3944 54.19C37.323 54.2553 37.242 54.2563 37.1349 54.2793C37.1155 54.2711 37.1155 54.2385 37.0885 54.2242C36.9784 54.213 36.8856 54.111 36.8856 54.1095C36.8918 54.0988 36.8953 54.0998 36.8887 54.0963C36.8856 54.0901 36.8041 54.0019 36.7638 53.9306C36.7052 53.824 36.7577 53.7517 36.7684 53.7338C36.7684 53.7338 36.7949 53.692 36.9539 53.6808C36.9631 53.6793 37.0065 53.6757 37.0396 53.6767C37.0732 53.6777 37.1324 53.6895 37.2277 53.7027C37.2277 53.7027 37.4081 53.7537 37.451 53.9469" fill="#007DBD"/>
<path fill-rule="evenodd" clip-rule="evenodd" d="M37.4712 55.0782C37.4712 55.0782 37.3555 55.2067 37.3962 55.5824C37.4136 55.6956 37.4182 55.7272 37.4258 55.7955C37.4472 55.9035 37.4951 55.9907 37.4951 55.9907C37.6817 55.7154 37.7194 55.3255 37.7643 54.9508C37.7959 55.0344 37.7317 55.1654 37.8107 55.2189C37.8198 55.2358 37.7989 55.2653 37.8249 55.2643C37.7949 55.2908 37.8311 55.3591 37.7989 55.3887C37.8 55.4014 37.8066 55.403 37.8137 55.406C37.7877 55.4743 37.8311 55.5783 37.8076 55.6191C37.8102 55.6405 37.8132 55.6451 37.8107 55.6696C37.8107 55.6696 37.8672 56.1034 37.802 56.2344C37.6955 56.6289 37.5899 56.6717 37.5899 56.6717C37.5583 56.6758 37.5374 56.6891 37.5053 56.7013C37.5053 56.7013 37.2882 56.7013 37.2326 56.3746C37.2326 56.3746 37.2703 55.2602 37.2703 55.2449C37.2673 55.1537 37.2907 55.0599 37.2744 54.9727C37.2744 54.9727 37.2173 54.8346 37.1617 54.7591C37.1388 54.7214 37.1577 54.6557 37.177 54.6047C37.1842 54.6026 37.1898 54.6006 37.1964 54.6001C37.2076 54.593 37.1974 54.5726 37.2086 54.5654C37.4946 54.4497 37.619 54.7041 37.619 54.7041C37.619 54.7041 37.6277 54.8193 37.6139 54.8912C37.6139 54.8912 37.594 54.9478 37.4712 55.0782Z" fill="#007DBD"/>
<path fill-rule="evenodd" clip-rule="evenodd" d="M39.291 55.323C39.2043 55.3434 39.1192 55.4096 39.032 55.4142C39.0427 55.3699 39.0912 55.3546 39.1044 55.3112C39.1044 55.3112 39.1416 55.3408 39.2013 55.1991C39.2237 55.1909 39.2635 55.1537 39.2879 55.117C39.3547 54.9616 39.3838 54.9993 39.3838 54.9993C39.4082 55.1481 39.3639 55.194 39.3731 55.2338C39.3731 55.2338 39.4057 55.2965 39.291 55.323ZM38.9943 55.4193C38.9173 55.4208 38.8572 55.3551 38.8551 55.2684C38.9015 55.2414 38.9617 55.1772 39.0402 55.1848C39.0514 55.2664 39.0514 55.3429 38.9897 55.378C38.9856 55.3887 38.9984 55.4076 38.9943 55.4193ZM39.2956 53.5908C39.2956 53.5908 39.4342 53.4909 39.4082 53.3854C39.4057 53.3829 39.4057 53.3813 39.4047 53.3788C39.2624 53.105 38.771 53.5919 38.771 53.5919C38.771 53.5919 38.5065 53.8972 38.4112 53.9196C38.4112 53.9196 38.3388 53.889 38.5483 53.2931C38.5483 53.2931 38.6385 53.0872 38.7675 52.5122C38.7466 52.4194 38.7863 52.3368 38.665 52.2609C38.429 52.241 38.3214 52.7232 38.3214 52.7232C38.3316 52.7197 38.3357 52.713 38.3459 52.71C38.3479 52.7237 38.3245 52.7395 38.3393 52.7513C38.3479 52.7339 38.351 52.711 38.3658 52.6977C38.4076 52.6891 38.4076 52.6396 38.4514 52.6458C38.4514 52.6458 38.4132 52.894 38.3887 53.05C38.3887 53.05 38.0982 54.0195 38.3194 54.2275C38.4351 54.3004 38.6936 53.9686 38.6936 53.9686C38.6936 53.9686 38.9856 53.5664 39.0575 53.6097C39.0687 53.6184 38.8465 54.1714 38.8465 54.1714C38.7583 54.4569 38.6512 55.0564 38.6512 55.0564C38.5564 55.114 38.4774 55.1104 38.3734 55.1007C38.0278 55.1532 38.2939 55.3592 38.2939 55.3592C38.4076 55.403 38.5457 55.3464 38.6431 55.35C38.6329 55.8276 38.9704 55.8123 38.9704 55.8123C39.136 55.8006 39.2528 55.6467 39.4072 55.6191C39.4551 55.9479 39.3277 56.2196 39.3277 56.2196C39.316 56.2079 39.266 56.2054 39.265 56.2105C39.2599 56.2288 39.2971 56.2456 39.29 56.2645C39.2477 56.4567 39.3812 56.603 39.3812 56.603C39.3812 56.6019 39.4016 56.6412 39.4358 56.6381C39.4974 56.6295 39.5856 56.526 39.6065 56.4302C39.682 56.0861 39.7054 55.9031 39.7054 55.9031C39.7375 55.7981 39.7013 55.6492 39.7319 55.5442C39.7727 55.5223 39.8114 55.4861 39.8425 55.4499C39.8339 55.2531 39.6284 55.2118 39.6284 55.2118C39.6147 55.0793 39.6035 54.9667 39.6284 54.8576C39.711 54.8387 39.8752 54.7357 39.8935 54.7266C39.9919 54.6735 40.0786 54.747 40.0786 54.747C40.1453 54.7724 40.2014 54.8086 40.2988 54.7301C40.3655 54.2703 39.8818 54.5272 39.8818 54.5272C39.8818 54.5272 39.6524 54.6486 39.6259 54.6139C39.6259 54.6139 39.6855 54.2856 39.551 54.0527C39.551 54.0527 39.4572 53.9466 39.2849 54.0394C39.1136 54.1302 39.133 54.2341 39.133 54.2341C39.188 54.2306 39.2242 54.2566 39.2635 54.2759C39.3017 54.3514 39.3318 54.4589 39.3231 54.5298C39.2833 54.516 39.2242 54.5089 39.1895 54.4885C39.1895 54.4885 38.9678 54.4263 39.0101 54.6888C39.0101 54.7735 39.029 54.8555 39.0254 54.9223C39.0081 54.9682 38.9 54.9891 38.8424 54.9881C38.8908 53.8809 39.2956 53.5908 39.2956 53.5908Z" fill="#007DBD"/>
<path fill-rule="evenodd" clip-rule="evenodd" d="M33.0511 67.6215L31.3628 68.2353L31.2864 68.0191L32.0617 67.7377L31.7671 66.9303L30.9907 67.2127L30.9117 66.9971L32.6005 66.3823L32.6785 66.5974L31.97 66.8559L32.2646 67.6638L32.9726 67.4054L33.0511 67.6215Z" fill="#007DBD"/>
<path fill-rule="evenodd" clip-rule="evenodd" d="M32.5833 68.7012C32.2096 68.9597 32.1077 69.2507 32.2815 69.5729C32.4925 69.866 32.7974 69.9012 33.1945 69.6784C33.5717 69.4235 33.6716 69.1365 33.4932 68.8164C33.2801 68.5187 32.9758 68.4805 32.5833 68.7012ZM32.462 68.507C32.9911 68.22 33.3948 68.2868 33.6762 68.7027C33.926 69.137 33.8082 69.5296 33.3199 69.8793C32.8025 70.1581 32.4028 70.0893 32.1214 69.6738C31.8717 69.238 31.9843 68.8501 32.462 68.507Z" fill="#007DBD"/>
<path fill-rule="evenodd" clip-rule="evenodd" d="M35.2939 70.689L34.0006 71.9374L33.8411 71.7722L34.436 71.1988L33.8396 70.5799L33.2452 71.1544L33.0856 70.9888L34.3794 69.7404L34.5394 69.9055L33.9955 70.4301L34.5919 71.0484L35.1348 70.5239L35.2939 70.689Z" fill="#007DBD"/>
<path fill-rule="evenodd" clip-rule="evenodd" d="M36.0673 71.6186L35.3888 72.1192L35.8104 72.4138L36.0673 71.6186ZM34.7771 72.58L34.5895 72.448L36.1279 71.3311L36.3359 71.4764L35.7971 73.2926L35.5942 73.1519L35.7543 72.6376L35.2109 72.2573L34.7771 72.58Z" fill="#007DBD"/>
<path fill-rule="evenodd" clip-rule="evenodd" d="M37.5082 72.1512L36.7026 73.7584L36.5056 73.6596L37.3111 72.0524L37.5082 72.1512Z" fill="#007DBD"/>
<path fill-rule="evenodd" clip-rule="evenodd" d="M39.7065 74.1019C39.5811 74.5148 39.3073 74.6774 38.8904 74.5908C38.5019 74.4797 38.351 74.2217 38.4362 73.818L38.7283 72.6665L38.9413 72.7215L38.6681 73.8022C38.5927 74.1223 38.6854 74.3196 38.9495 74.3915C39.2263 74.4491 39.4083 74.3252 39.4908 74.0199L39.7666 72.9305L39.9879 72.9871L39.7065 74.1019Z" fill="#007DBD"/>
<path fill-rule="evenodd" clip-rule="evenodd" d="M41.7611 73.1441L41.6454 74.9374L41.3915 74.9211L40.6442 73.4225L40.5509 74.8666L40.3297 74.8533L40.4464 73.0585L40.7161 73.0763L41.4466 74.5913L41.5404 73.1293L41.7611 73.1441Z" fill="#007DBD"/>
<path fill-rule="evenodd" clip-rule="evenodd" d="M42.5536 73.0869L42.6856 74.8787L42.4649 74.895L42.3329 73.1031L42.5536 73.0869Z" fill="#007DBD"/>
<path fill-rule="evenodd" clip-rule="evenodd" d="M44.491 72.7526L44.28 74.6346L44.0409 74.6851L43.0826 73.0523L43.3221 73.0019L44.1092 74.4139L44.2514 72.8036L44.491 72.7526Z" fill="#007DBD"/>
<path fill-rule="evenodd" clip-rule="evenodd" d="M45.532 74.2943L44.8637 72.6259L45.9801 72.1794L46.0591 72.3792L45.1492 72.7447L45.3551 73.2616L46.1988 72.9241L46.2798 73.1245L45.4367 73.4624L45.6645 74.0298L46.5908 73.6587L46.6647 73.8412L45.532 74.2943Z" fill="#007DBD"/>
<path fill-rule="evenodd" clip-rule="evenodd" d="M47.4505 72.2882C47.6442 72.1735 47.6824 72.0256 47.5682 71.8431C47.4596 71.6698 47.3215 71.6372 47.1558 71.7412L46.6777 72.0404L47.0075 72.566L47.4505 72.2882ZM47.3353 73.5054L46.382 71.9833L47.033 71.574C47.3409 71.3884 47.5784 71.4297 47.7471 71.6979C47.8567 71.8625 47.8695 72.0282 47.7859 72.1923C47.9184 72.1531 48.0346 72.2158 48.1361 72.3784L48.3216 72.6424C48.3685 72.7199 48.4226 72.7525 48.4807 72.7439L48.5006 72.7745L48.2712 72.9172C48.2141 72.8688 48.1274 72.7541 48.0081 72.5752C47.8945 72.384 47.7533 72.3412 47.5815 72.4492L47.1171 72.7408L47.5234 73.3872L47.3353 73.5054Z" fill="#007DBD"/>
<path fill-rule="evenodd" clip-rule="evenodd" d="M48.4941 70.685C48.3188 70.8558 48.2953 71.0148 48.4248 71.1652C48.5089 71.2565 48.6093 71.2677 48.721 71.1958L49.1481 70.9608C49.3775 70.8395 49.5753 70.8685 49.7415 71.049C49.953 71.2952 49.9107 71.5669 49.6146 71.8631C49.4458 72.0206 49.2868 72.097 49.138 72.096C48.9799 72.0935 48.8408 72.0226 48.7184 71.8824L48.8693 71.7438C49.0523 71.9344 49.2572 71.9319 49.4876 71.7366C49.6915 71.5404 49.7303 71.3701 49.6044 71.2254C49.5147 71.0882 49.3582 71.0898 49.1318 71.2335L48.8311 71.3997C48.6175 71.5149 48.4386 71.4935 48.2928 71.3345C48.0654 71.0643 48.0807 70.8018 48.3366 70.5489C48.644 70.265 48.931 70.2568 49.1956 70.527L49.0386 70.6718C48.8764 70.5122 48.6955 70.5153 48.4941 70.685Z" fill="#007DBD"/>
<path fill-rule="evenodd" clip-rule="evenodd" d="M49.3322 69.5168L50.7155 70.6652L50.575 70.8346L49.1916 69.6862L49.3322 69.5168Z" fill="#007DBD"/>
<path fill-rule="evenodd" clip-rule="evenodd" d="M50.3623 68.0045L50.5447 68.1197L50.2486 68.5912L51.5897 69.4298L51.4679 69.6245L50.1278 68.7855L49.8321 69.2555L49.6496 69.1418L50.3623 68.0045Z" fill="#007DBD"/>
<path fill-rule="evenodd" clip-rule="evenodd" d="M52.4037 67.8253L51.7446 67.5623L50.5049 67.7377L50.6027 67.4935L51.5865 67.3757L50.9534 66.6126L51.0508 66.369L51.8277 67.3569L52.4858 67.6214L52.4037 67.8253Z" fill="#007DBD"/>
<path fill-rule="evenodd" clip-rule="evenodd" d="M41.1803 60.3487L41.1451 60.6653L44.4427 60.6627C44.4427 60.6627 44.7414 60.6317 44.4391 60.2932L41.3898 60.2896C41.3898 60.2896 41.2042 60.2677 41.1803 60.3487Z" fill="#007DBD"/>
<path fill-rule="evenodd" clip-rule="evenodd" d="M45.7344 65.1048C46.5403 65.0233 46.1982 64.6741 46.1982 64.6741L44.2795 64.6731L44.2484 64.8739C44.3677 65.0442 44.8555 65.193 45.7344 65.1048Z" fill="#007DBD"/>
<path fill-rule="evenodd" clip-rule="evenodd" d="M40.0015 65.1877C40.0015 65.1877 40.3548 65.3136 41.019 64.8615C41.0608 64.8258 41.1123 64.8003 41.1158 64.6357C41.0873 64.5128 40.995 64.4705 40.9323 64.4618C40.7534 64.4506 40.1886 64.4445 40.1886 64.4445C40.1886 64.4445 39.5942 64.4073 39.582 64.6999C39.5667 65.021 39.6126 65.0842 40.0015 65.1877Z" fill="#007DBD"/>
<path fill-rule="evenodd" clip-rule="evenodd" d="M39.8482 66.0228C39.4338 65.9168 39.1086 66.3771 39.1086 66.3771C39.3833 66.7553 39.7218 66.9801 39.7218 66.9801C40.2509 66.5208 40.2509 66.3883 40.2509 66.3883C40.2509 66.3883 40.3182 66.1666 39.8482 66.0228Z" fill="#007DBD"/>
<path fill-rule="evenodd" clip-rule="evenodd" d="M42.1295 64.8236C42.1295 64.8236 42.1529 64.3928 41.8201 64.4336C41.8201 64.4336 41.5162 64.3974 41.4953 64.7012C41.4892 64.9913 41.3394 65.1819 41.3394 65.1819L40.7888 65.4251C40.7888 65.4251 40.5885 65.5056 40.6456 65.7727C40.743 65.9761 41.0096 65.9145 41.0096 65.9145C41.0096 65.9145 41.7461 65.8105 42.0785 65.5097L42.1295 64.8236Z" fill="#007DBD"/>
<path fill-rule="evenodd" clip-rule="evenodd" d="M44.4388 66.8182C44.4388 66.8182 43.8333 66.7535 43.508 66.7208C43.1007 66.6668 42.5247 66.7132 42.3081 66.4038C42.3081 66.4038 41.6612 66.1127 41.5317 66.5022C41.4099 66.8702 41.7479 67.1465 42.1557 67.1613C42.3065 67.1597 44.1886 67.33 44.1886 67.33C44.1886 67.33 44.7982 67.3968 44.8426 67.1021C44.7982 66.8039 44.4388 66.8182 44.4388 66.8182Z" fill="#007DBD"/>
<path fill-rule="evenodd" clip-rule="evenodd" d="M43.083 65.5811C43.3307 65.6142 43.6942 65.4659 43.7778 64.9174C43.8028 64.5422 43.2813 64.5024 43.2813 64.5024C43.2813 64.5024 42.7639 64.4448 42.6263 64.9551C42.5202 65.501 42.8358 65.5469 43.083 65.5811Z" fill="#007DBD"/>
<path fill-rule="evenodd" clip-rule="evenodd" d="M41.1467 69.5168C41.0937 69.5168 41.0402 69.5444 40.9876 69.5969C40.9357 69.6504 40.9091 69.7401 40.9091 69.8676C40.9091 69.8971 40.9234 69.9318 40.9525 69.968C40.982 70.0037 41.0269 70.0225 41.0871 70.0225C41.1492 70.0225 41.2028 69.9945 41.2497 69.9399C41.2971 69.8839 41.3205 69.8105 41.3205 69.7182C41.3205 69.655 41.3057 69.6061 41.2757 69.5699C41.2456 69.5352 41.2028 69.5168 41.1467 69.5168Z" fill="#007DBD"/>
<path fill-rule="evenodd" clip-rule="evenodd" d="M45.162 70.1847L44.926 69.757C47.0221 68.6019 48.3245 66.3998 48.3245 64.0085C48.3245 60.3923 45.3833 57.4511 41.7666 57.4511C38.1504 57.4511 35.2086 60.3923 35.2086 64.0085C35.2086 66.3743 36.4896 68.5652 38.5541 69.7269L38.3135 70.1536C36.0961 68.9052 34.7208 66.5502 34.7208 64.0085C34.7208 60.1232 37.8802 56.9617 41.7666 56.9617C45.6514 56.9617 48.8124 60.1232 48.8124 64.0085C48.8124 66.5777 47.4131 68.944 45.162 70.1847ZM42.626 67.561C42.626 67.561 42.2284 67.5284 42.2508 67.7629C42.2722 67.9826 42.7086 67.9963 42.7086 67.9963H44.0834C44.0834 67.9963 44.2669 67.9974 44.2689 68.2053C44.2506 68.4133 43.7572 68.4495 43.7572 68.4495C43.7572 68.4495 42.7667 68.5596 42.3686 68.4398C42.3686 68.4398 40.8908 67.6334 41.2176 67.167C41.2176 67.167 41.2252 66.8489 40.8184 66.827C40.4963 66.8091 40.2393 66.8953 40.0528 67.1573C40.22 67.4657 40.6502 67.718 40.8307 67.8475C40.8307 67.8475 41.4638 68.2629 41.6565 68.369C41.6565 68.369 41.8211 68.4561 41.6697 68.5713C41.6075 68.6106 41.3848 68.526 41.3848 68.526C41.3848 68.526 40.638 68.3149 39.3361 67.2903C39.3361 67.2903 37.424 65.5633 37.5096 63.3836C37.5096 63.3836 37.5397 63.012 37.8573 62.9977C38.1769 62.9834 38.2498 63.3836 38.2498 63.3836C38.3181 65.2635 38.7932 65.7962 38.8462 65.8528C38.8477 65.8544 39.2025 65.786 39.3126 65.6245C39.3126 65.6245 39.5425 65.3833 39.3187 65.2029C38.8487 64.8231 38.8946 63.9652 38.8946 63.9652C38.8946 63.9652 39.2076 63.8607 39.3447 63.8164C39.3503 63.8143 39.3519 63.8123 39.358 63.8102C39.491 63.7893 39.6582 63.7807 39.9049 63.7893L41.1911 63.8C41.1911 63.8 41.2752 63.7863 41.3766 63.9484H42.0265C42.0265 63.9484 42.2417 63.8755 42.2151 63.5696C42.1779 63.3484 41.9261 63.2791 41.9261 63.2791L39.409 63.2806C39.4028 63.2806 39.3967 63.2801 39.3911 63.2801C39.0063 63.2801 38.7932 63.1608 38.733 63.1216C38.5725 62.9977 38.3961 62.8218 38.4379 62.6776C38.5225 62.3473 38.8951 62.2193 39.1286 62.385L39.3661 62.5506C39.3661 62.5506 39.5109 62.7143 40.0028 62.7143L42.0184 62.7173C42.0184 62.7173 42.2177 62.7082 42.2151 62.4635C42.2106 62.2249 41.9654 62.227 41.9654 62.227L39.1515 62.2249C39.1515 62.2249 38.8977 62.2219 38.9706 62.0414L39.1362 61.7651C39.1648 61.7208 39.2907 61.5791 39.7133 61.5791H46.5139C46.5139 61.5791 46.4084 60.8929 45.5076 60.0911C45.5076 60.0911 44.8067 59.406 43.7668 58.9819C43.7668 58.9819 43.3504 58.8187 42.7269 58.6913C42.1621 58.546 42.2034 58.2346 42.2034 58.2346C42.2034 58.2346 42.2177 57.9731 42.6637 58.0291C42.8641 58.0536 43.5798 58.1173 44.5794 58.5858C44.5794 58.5858 46.6806 59.5946 47.2954 61.5556C47.2954 61.5556 47.379 61.8166 47.4585 62.1357H43.3595C43.3595 62.1357 43.0318 62.1337 43.0267 62.4268C43.0226 62.7066 43.2759 62.7143 43.2759 62.7143L46.8238 62.7275C46.8238 62.7275 47.0481 62.752 47.3524 62.5369C47.3524 62.5369 47.5421 62.3982 47.6359 62.6399C47.6359 62.6399 47.775 62.9921 47.6614 63.3117L43.3769 63.3433C43.3769 63.3433 43.0873 63.3596 43.0848 63.6884C43.1026 64.0198 43.4131 63.9943 43.4131 63.9943L46.9513 63.9815L46.9472 63.9841C46.9472 63.9841 47.3514 63.9509 47.5752 64.2915C47.591 64.3536 47.5956 64.4265 47.5874 64.5152C47.5676 64.71 47.0369 64.9108 47.0369 64.9108C47.0369 64.9108 46.417 65.1743 46.4833 65.4664C46.5164 65.6341 46.8131 65.8243 46.8131 65.8243C46.8131 65.8243 47.0221 66.019 46.7968 66.3029C46.5093 66.5593 46.1428 66.2346 46.1428 66.2346C46.1428 66.2346 45.8706 65.7233 45.3695 65.7081C44.9928 65.7081 44.8332 65.8946 44.8332 65.8946C44.8332 65.8946 44.6462 66.123 44.1731 66.0567C44.1731 66.0567 43.7123 65.9278 43.7016 66.1847C43.6924 66.3157 43.8509 66.3998 43.9962 66.4232C44.14 66.4472 44.9449 66.4023 45.2563 66.4788C45.5693 66.5537 45.8023 66.6047 45.9634 66.8953C46.127 67.2603 45.9771 67.3913 45.8431 67.4749C45.8431 67.4749 45.4908 67.7491 44.7476 67.6752L42.626 67.561ZM44.3006 69.6056H43.6435L43.5716 69.8365C43.6501 69.81 43.7092 69.7912 43.7495 69.781C43.7893 69.7698 43.8311 69.7657 43.8739 69.7657C43.9962 69.7657 44.0961 69.7998 44.1757 69.8661C44.2547 69.9319 44.2934 70.0333 44.2934 70.1658C44.2934 70.2698 44.27 70.3647 44.2215 70.4488C44.1736 70.5329 44.0961 70.6068 43.9906 70.6674C43.8861 70.7286 43.7414 70.7602 43.5558 70.7602C43.3825 70.7602 43.2515 70.7276 43.1648 70.6629C43.0782 70.5981 43.0267 70.4926 43.0058 70.3494L43.4279 70.3025V70.3086C43.4279 70.3754 43.4431 70.4253 43.4773 70.46C43.5115 70.4951 43.5578 70.514 43.617 70.514C43.6904 70.514 43.7515 70.4819 43.8025 70.4202C43.853 70.358 43.878 70.2841 43.878 70.1985V70.1944C43.878 70.0736 43.8229 70.0124 43.7123 70.0124C43.6333 70.0124 43.5645 70.0435 43.5069 70.1062L43.1138 70.0496L43.3437 69.3003H44.3709L44.3006 69.6056ZM42.5603 70.7363H42.1331L42.3507 69.7912C42.2218 69.8661 42.0699 69.9247 41.8915 69.9645L41.9674 69.6255C42.1963 69.5327 42.3839 69.416 42.5353 69.2763H42.8977L42.5603 70.7363ZM41.6376 70.2851C41.5774 70.4324 41.4893 70.5487 41.372 70.6333C41.2532 70.7179 41.11 70.7597 40.9423 70.7597C40.7985 70.7597 40.6823 70.7312 40.5906 70.6725C40.4998 70.6154 40.4443 70.5283 40.4239 70.4131L40.8342 70.3759C40.8505 70.4712 40.9005 70.5196 40.9821 70.5196C41.0422 70.5196 41.0942 70.4906 41.136 70.4335C41.1793 70.3759 41.2196 70.2836 41.2568 70.1562L41.2507 70.1526C41.1574 70.226 41.0519 70.2627 40.9341 70.2627C40.8149 70.2627 40.7134 70.2229 40.6288 70.1424C40.5447 70.0634 40.5024 69.9619 40.5024 69.8406C40.5024 69.6959 40.561 69.5638 40.6742 69.4496C40.7889 69.3339 40.9459 69.2763 41.1426 69.2763C41.3216 69.2763 41.4658 69.3283 41.5698 69.4313C41.6743 69.5353 41.7268 69.6739 41.7268 69.8493C41.7268 69.992 41.6957 70.1373 41.6376 70.2851ZM42.179 59.3346C42.2631 59.3841 42.2733 59.5074 42.2733 59.5885C42.2733 59.5885 42.2687 59.7485 42.5832 59.798C42.9089 59.8505 43.12 59.7501 43.2433 59.406C43.2433 59.406 43.281 59.3132 43.5288 59.3346C43.5288 59.3346 44.4667 59.406 45.24 60.3954C45.24 60.3954 45.8013 61.0484 45.5097 61.2202L40.5926 61.2538C40.5926 61.2538 39.9493 61.2202 40.1241 60.9179C40.4687 60.3189 40.9015 59.8275 41.4271 59.5584C41.4271 59.5584 41.9939 59.2281 42.179 59.3346ZM38.1076 67.3902C38.1076 67.3902 35.5899 64.9317 37.0916 61.6897C37.0916 61.6897 38.1417 59.1603 40.8832 58.1943C40.8832 58.1943 41.0641 58.1255 41.134 58.2677C41.1707 58.3946 40.952 58.4925 40.952 58.4925C40.952 58.4925 39.7347 59.1475 39.3248 59.5604C39.3248 59.5604 38.2324 60.5111 37.9516 61.0326C37.9516 61.0326 37.6162 61.5775 37.5953 61.7376C37.5953 61.8569 37.6947 62.018 37.9429 61.9226C38.1866 61.8288 38.3181 61.6188 38.3522 61.551C38.3889 61.4832 39.3427 60.087 40.5686 59.2102C40.5686 59.2102 41.0774 58.8131 41.4668 58.8707C41.6529 58.9294 41.5596 59.1317 41.4536 59.1735C41.4536 59.1735 41.2191 59.253 40.8964 59.4799C40.2439 60.0162 39.7918 60.5845 39.3284 61.2243C39.3284 61.2243 38.7672 62.1056 38.2437 62.2937C38.2437 62.2937 37.632 62.5119 37.451 62.7051C37.2945 62.8713 37.1033 63.0415 37.139 63.8373C37.139 63.8373 37.0865 65.3828 38.184 66.8642C38.184 66.8642 38.9262 67.9561 40.0298 68.7289C40.1272 68.8293 40.118 68.8374 40.0482 68.817C40.0482 68.817 39.0322 68.4832 38.1076 67.3902ZM35.9131 62.2162C35.9131 62.2162 35.9131 61.8997 36.1557 61.3828C36.1705 61.341 36.7735 60.0998 37.4831 59.4432C37.4831 59.4432 38.1779 58.7051 39.2836 58.3768C39.2836 58.3768 39.4666 58.3039 39.5226 58.4084C39.6078 58.5695 39.4691 58.6041 39.3167 58.6959C39.3167 58.6959 38.5077 59.039 37.3796 60.4336C37.3796 60.4336 36.8689 61.0948 36.5594 61.8885C36.5462 61.9216 36.5299 61.9558 36.5171 61.9986C36.3499 62.4874 36.068 62.3885 36.068 62.3885C35.9962 62.3692 35.9233 62.3243 35.9131 62.2162ZM36.0538 63.0048C36.2388 63.0283 36.2261 63.1797 36.2261 63.1797C35.8906 64.8277 36.5707 66.0786 36.5707 66.0786C37.0982 67.2949 38.1927 68.5071 38.1927 68.5071C38.211 68.5255 38.2223 68.578 38.0826 68.5255C36.981 67.8521 36.1848 66.1684 36.1848 66.1684C36.1848 66.1684 35.4543 64.7492 35.8218 63.1323C35.833 63.1007 35.8748 62.9911 36.0538 63.0048ZM39.933 70.7363H39.5063L39.7255 69.7912C39.596 69.8661 39.4421 69.9247 39.2637 69.9645L39.3422 69.6255C39.5675 69.5327 39.7576 69.416 39.9055 69.2763H40.2704L39.933 70.7363ZM41.6967 56.5998C37.5886 56.5998 34.2605 59.928 34.2605 64.0356C34.2605 68.1416 37.5886 71.4713 41.6967 71.4713C45.8038 71.4713 49.1325 68.1416 49.1325 64.0356C49.1325 59.928 45.8038 56.5998 41.6967 56.5998Z" fill="#007DBD"/>
</g>
<defs>
<filter id="filter0_d_185_309" x="0" y="0" width="154" height="157" filterUnits="userSpaceOnUse" color-interpolation-filters="sRGB">
<feFlood flood-opacity="0" result="BackgroundImageFix"/>
<feColorMatrix in="SourceAlpha" type="matrix" values="0 0 0 0 0 0 0 0 0 0 0 0 0 0 0 0 0 0 127 0" result="hardAlpha"/>
<feOffset dy="16"/>
<feGaussianBlur stdDeviation="6.5"/>
<feColorMatrix type="matrix" values="0 0 0 0 0 0 0 0 0 0 0 0 0 0 0 0 0 0 0.03 0"/>
<feBlend mode="normal" in2="BackgroundImageFix" result="effect1_dropShadow_185_309"/>
<feBlend mode="normal" in="SourceGraphic" in2="effect1_dropShadow_185_309" result="shape"/>
</filter>
</defs>
</svg>
