<svg width="154" height="157" viewBox="0 0 154 157" fill="none" xmlns="http://www.w3.org/2000/svg">
<g filter="url(#filter0_d_266_251)">
<rect width="128" height="128" transform="translate(13)" fill="white"/>
<path fill-rule="evenodd" clip-rule="evenodd" d="M38.481 70.882C38.5104 70.7878 38.4755 70.6437 38.4228 70.6001C38.3319 70.523 38.2324 70.5877 38.209 70.6808C38.117 71.0475 38.4189 71.0864 38.481 70.882ZM40.074 70.9092C39.878 70.9559 39.9287 71.402 40.1387 71.3565C40.2317 71.3361 40.2496 71.2096 40.2447 71.0973C40.2404 70.9822 40.199 70.8787 40.074 70.9092ZM40.2106 74.2633L40.0249 74.2811L39.9227 73.3129L40.1077 73.2943L40.1233 73.3514C40.1262 73.3694 40.1272 73.3901 40.1295 73.4096L40.1681 73.7797C40.1779 73.8684 40.2246 74.2039 40.2106 74.2633ZM30.0537 69.1274C30.0313 69.0736 29.9775 69.0147 29.9633 68.9544C30.0559 68.9223 30.7239 68.4984 30.8121 68.4784C30.835 68.5404 30.8796 68.5817 30.897 68.6508C30.8328 68.6721 30.1462 69.0927 30.0537 69.1274ZM32.4943 71.0429L32.0041 71.5739C31.9405 71.5532 31.9067 71.4923 31.8544 71.4593C31.8763 71.3966 32.12 71.1529 32.1788 71.0932L32.428 70.8265C32.466 70.7883 32.4747 70.7628 32.516 70.7389L32.6516 70.8537C32.6352 70.9081 32.5552 70.9744 32.4943 71.0429ZM48.6411 62.0596C48.75 62.0923 48.7678 62.118 48.8902 62.0945C48.9713 62.0793 49.0992 62.0509 49.1747 62.0493L49.2036 62.2316C48.7537 62.329 48.9191 62.2191 48.4947 62.5689C48.4523 62.6043 48.3359 62.7142 48.2989 62.7147L48.2662 62.5232C48.296 62.5057 48.603 62.2729 48.6269 62.2349L48.1895 62.1048L48.1584 61.9134C48.2335 61.9259 48.3282 61.9618 48.4028 61.9851C48.4839 62.0096 48.5589 62.0346 48.6411 62.0596ZM29.0299 62.2354L28.9351 62.7637L28.7545 62.7354C28.7539 62.7289 28.7529 62.724 28.7529 62.724C28.7529 62.724 28.7414 62.7289 28.7567 62.65C28.7632 62.619 28.7681 62.5853 28.773 62.5569C28.7839 62.4905 28.7947 62.4335 28.8067 62.3665C28.8286 62.2424 28.8567 62.1141 28.872 61.9896L29.8339 62.1544L29.8057 62.3361L29.0429 62.2066C29.0325 62.2251 29.0439 62.1984 29.0299 62.2354ZM49.3342 64.7331L49.2467 65.4839L48.2772 65.3687L48.2972 65.188C48.3539 65.1792 48.6117 65.2195 48.6873 65.2292C48.8043 65.2434 48.9604 65.2718 49.0725 65.2749L49.1454 64.7141L49.3342 64.7331ZM29.7055 64.9329L29.3323 65.1902C29.3594 65.2162 29.3933 65.2217 29.4303 65.2352C29.4705 65.2501 29.5042 65.2624 29.5424 65.2761C29.779 65.3588 29.7605 65.3027 29.7807 65.5449C29.7066 65.5308 29.6153 65.4894 29.5467 65.4644C29.4172 65.4175 29.2007 65.3088 29.0674 65.3261C28.9797 65.3376 28.872 65.3555 28.7849 65.3588C28.761 65.3148 28.7589 65.232 28.756 65.1749C29.2817 65.0705 28.9395 65.2494 29.4693 64.8779C29.5015 64.8555 29.5374 64.8283 29.5696 64.8071C29.6261 64.7685 29.6228 64.7566 29.6827 64.7364L29.7055 64.9329ZM31.5254 71.1192L31.4018 70.9837L31.961 70.4369C31.9273 70.4141 31.7734 70.2477 31.7554 70.2118C31.7815 70.1747 31.8535 70.105 31.8974 70.0931C31.9867 70.2222 32.3234 70.5271 32.4465 70.6752C32.4219 70.7111 32.3523 70.77 32.318 70.8014C32.2854 70.7666 32.2527 70.734 32.218 70.6971C32.1842 70.6623 32.138 70.6033 32.0971 70.5861C32.0374 70.6154 32.0047 70.6676 31.9535 70.7166C31.8773 70.79 31.5629 71.1002 31.5254 71.1192ZM32.6586 71.0141C32.6836 70.9864 32.6967 70.9701 32.7152 70.9441C32.788 70.9713 32.9534 71.1398 33.0362 71.2007L33.3468 71.4706L33.2348 71.6011C33.1449 71.5675 33.0689 71.4304 32.973 71.413L32.4893 72.0016C32.4372 71.9809 32.3811 71.9293 32.342 71.8825C32.3583 71.8378 32.5585 71.6174 32.59 71.5799L32.8349 71.2803C32.762 71.2193 32.6848 71.1398 32.6079 71.0925C32.6227 71.0506 32.6249 71.0533 32.6586 71.0141ZM46.5981 69.8179C46.6864 69.9103 47.0486 70.1795 47.196 70.3124C47.1803 70.352 47.1118 70.4218 47.0856 70.4605L46.7809 70.221C46.7309 70.1779 46.6825 70.1399 46.6308 70.1019C46.6036 70.0822 46.578 70.0603 46.5525 70.0398C46.5198 70.0136 46.5133 69.9963 46.4741 69.9773C46.4284 70.0038 46.3202 70.1568 46.2843 70.2058C46.2314 70.1823 46.189 70.131 46.1364 70.1038C46.1532 70.0571 46.4435 69.703 46.5079 69.6262C46.5378 69.5904 46.6123 69.4886 46.646 69.4664C46.6972 69.4854 46.7434 69.5404 46.787 69.5681C46.7668 69.6198 46.6373 69.7705 46.5981 69.8179ZM34.0763 72.6252L34.2679 72.28C34.1873 72.2454 34.0883 72.1767 34.0084 72.1355L34.0921 71.9744C34.1438 71.9885 34.2157 72.0376 34.2744 72.0701C34.3805 72.129 34.7194 72.3368 34.801 72.3705C34.7836 72.4259 34.7434 72.4989 34.7102 72.5321L34.443 72.3841C34.3963 72.4467 34.3788 72.4912 34.344 72.5484C34.2836 72.6485 34.0813 73.0212 34.0433 73.0561C33.9844 73.0342 33.9354 72.9902 33.8827 72.9679C33.9028 72.9113 34.0366 72.6926 34.0763 72.6252ZM36.2079 54.2363C36.2678 54.2031 36.3102 54.1863 36.3565 54.1515C36.4996 54.0415 36.5121 53.9338 36.5931 53.924C36.6944 53.911 36.7204 53.9881 36.7101 54.029C36.6944 54.0949 36.6824 53.9936 36.642 54.1993C36.6112 54.3549 36.604 54.5485 36.6949 54.6813C36.7041 54.6954 36.7063 54.7009 36.7161 54.714C36.7281 54.7325 36.7161 54.7156 36.7302 54.7336L36.7421 54.7466C36.7498 54.7368 36.7466 54.745 36.7563 54.725L36.7716 54.6552C36.7748 54.6171 36.7688 54.5882 36.7858 54.561C36.8337 54.5605 36.8325 54.5769 36.8434 54.6296C36.876 54.7815 36.8445 54.8195 36.8152 54.9539C36.795 55.047 36.7639 55.307 36.7339 55.3669C36.6606 55.4289 36.5904 55.3854 36.5605 55.3103C36.5115 55.1851 36.592 54.8974 36.5138 54.777C36.4691 54.7086 36.4104 54.6846 36.382 54.6117L36.5018 54.5987C36.518 54.5028 36.5093 54.3849 36.5044 54.2869C36.4408 54.2929 36.3679 54.3467 36.3239 54.3446C36.2667 54.3419 36.2166 54.2891 36.2079 54.2363ZM46.3555 57.9412L46.3408 57.9504C46.2653 57.9968 45.9726 58.2677 45.9214 58.3178C45.8616 58.3775 45.7288 58.4984 45.7031 58.3313C45.6886 58.2351 45.7679 58.1664 45.8517 58.087C45.9681 57.9771 46.4447 57.6002 46.6084 57.6387C46.6944 57.6589 46.6864 57.6611 46.7711 57.6301C46.8223 57.6115 46.8713 57.5942 46.8974 57.5589L46.8853 57.5473C46.8478 57.518 46.8305 57.5245 46.7951 57.5071C46.7368 57.4788 46.5829 57.3309 46.5818 57.2689C46.6433 57.2765 46.9365 57.4168 47.0182 57.5207C47.053 57.5647 47.0803 57.6084 47.0757 57.6882C47.0017 57.7753 46.9594 57.7111 46.8545 57.7335C46.7559 57.7547 46.5704 57.9114 46.5181 57.9684C46.4736 58.0175 46.4399 58.0827 46.3603 58.1028C46.3387 58.0365 46.3429 57.9946 46.3555 57.9412ZM37.6791 73.26L37.6552 73.4292L37.0246 73.3225L36.9957 73.5044C36.9979 73.5293 36.9941 73.5147 37.0011 73.5288C37.0888 73.5642 37.4674 73.5935 37.5104 73.6295C37.5321 73.6479 37.5034 73.7155 37.4963 73.7904C37.4332 73.791 37.1807 73.7404 37.086 73.723C37.0622 73.7191 36.9751 73.6909 36.9599 73.7167L36.8859 74.106L36.7161 74.0799C36.7074 74.0168 36.8532 73.2557 36.8782 73.1256L37.6791 73.26ZM33.8925 71.8404C33.9272 71.8548 34.0231 71.919 34.0448 71.9466L33.7043 72.4359C33.5448 72.6502 33.3762 72.6883 33.1547 72.5239C32.7914 72.2528 32.9785 72.069 33.2113 71.7382C33.255 71.6764 33.3572 71.5467 33.381 71.489C33.4333 71.4999 33.4246 71.5055 33.4649 71.5369C33.4915 71.5576 33.5138 71.568 33.5367 71.5919C33.4572 71.7253 33.1744 72.0871 33.1482 72.1691C33.1124 72.2834 33.1928 72.3315 33.2516 72.3726C33.4508 72.5092 33.5388 72.3553 33.6275 72.2194C33.7081 72.0962 33.8175 71.9656 33.8925 71.8404ZM42.6898 73.2482L42.8665 73.1725C42.9134 73.5044 42.829 73.6279 42.5722 73.723C42.2795 73.8307 42.0956 73.6588 42.0065 73.4678C41.7986 73.0273 42.1794 72.704 42.5054 72.7629C42.6179 72.7829 42.7328 72.8661 42.7648 72.9466L42.6032 73.0185C42.575 73.0038 42.4308 72.8439 42.2338 72.9967C42.0342 73.1513 42.1626 73.6376 42.4972 73.562C42.7158 73.512 42.6931 73.3644 42.6898 73.2482ZM39.6969 73.9363C39.7438 73.9156 39.828 73.9254 39.8852 73.9249C39.8775 74.2001 39.6919 74.3454 39.4086 74.3328C38.8434 74.3073 38.8471 73.4673 39.3384 73.3624C39.4778 73.3323 39.6089 73.3547 39.7094 73.4211C39.7748 73.4629 39.8814 73.5609 39.877 73.6828L39.6996 73.6871C39.6496 73.6316 39.6606 73.5947 39.5789 73.5517C39.4124 73.4629 39.1621 73.5637 39.1686 73.8612C39.1753 74.1714 39.4809 74.2116 39.607 74.1125C39.6675 74.0647 39.6637 74.0221 39.6969 73.9363ZM47.8256 68.0785L47.7455 68.2477C47.4365 68.2227 47.3185 68.6215 47.658 68.7956C47.9273 68.9343 48.1161 68.6699 48.0748 68.5094C48.0514 68.4197 48.0062 68.4055 47.9627 68.3555C47.9774 68.3163 48.0225 68.2242 48.0486 68.1901C48.2667 68.3582 48.3402 68.5111 48.189 68.7901C47.9137 69.2977 47.1357 68.894 47.2956 68.393C47.3609 68.1867 47.5449 67.9953 47.8256 68.0785ZM44.3453 72.8476L44.1293 71.8503C44.1706 71.8199 44.2979 71.7382 44.3453 71.722C44.3785 71.7449 44.4051 71.7752 44.4378 71.7998C44.4742 71.8274 44.5008 71.8569 44.5362 71.8841C44.6668 71.9859 44.7876 72.1088 44.9148 72.2153C44.9518 72.2459 45.0846 72.3454 45.1059 72.3879C45.1042 72.3901 45.1009 72.3901 45.0999 72.3945L44.9578 72.4849C44.9214 72.4705 44.8159 72.3786 44.7854 72.3509L44.466 72.5386L44.5014 72.766C44.4427 72.7906 44.4001 72.828 44.3453 72.8476ZM44.509 72.0941C44.5624 72.1436 44.6146 72.1845 44.6526 72.2242C44.5841 72.2661 44.4905 72.3281 44.4165 72.3606L44.3426 71.9636C44.3686 71.9753 44.3708 71.9765 44.3937 71.995L44.509 72.0941ZM29.7077 62.9378L29.699 63.1184C29.2072 63.1326 28.8981 62.9389 28.8763 63.2686C28.8541 63.5939 29.1533 63.4949 29.6641 63.5515L29.6555 63.7343C29.5347 63.744 29.1168 63.7088 28.99 63.6886C28.7719 63.6554 28.6826 63.5134 28.6985 63.2686C28.7137 63.0412 28.8013 62.8965 29.0319 62.8932C29.2327 62.891 29.502 62.9205 29.7077 62.9378ZM29.8469 65.8941C29.8633 65.9088 29.8779 65.9855 29.884 66.0084C29.8949 66.0519 29.9068 66.0889 29.9111 66.1293L29.2747 66.5329C29.2072 66.5731 29.1201 66.6373 29.0538 66.6688L29.0003 66.4828C29.0299 66.4698 29.1598 66.3871 29.1799 66.3675L29.0907 66.0069L28.8709 65.9779L28.8274 65.8006C28.9455 65.8055 29.8079 65.8723 29.8469 65.8941ZM29.3443 66.2772C29.3182 66.2369 29.2844 66.0726 29.2757 66.0149L29.6843 66.0569L29.3443 66.2772ZM47.8615 67.1291L48.7477 67.5023C48.7395 67.5458 48.7069 67.6297 48.6786 67.6644L48.2934 67.5045L48.1178 67.9125L48.5056 68.0763L48.4458 68.2336C48.3886 68.2249 47.5753 67.8772 47.5459 67.8544L47.6113 67.7009L47.955 67.8418L48.1265 67.4306C48.0324 67.4022 47.8768 67.3315 47.7886 67.289C47.8027 67.2413 47.8311 67.1607 47.8615 67.1291ZM48.3891 64.1826C48.3446 63.8942 48.5557 63.6858 48.8075 63.6668C49.0997 63.6456 49.3364 63.7877 49.3669 64.0433C49.4458 64.7107 48.472 64.7169 48.3891 64.1826ZM48.7613 63.8654C48.9506 63.823 49.1285 63.8883 49.1769 64.0172C49.2455 64.1967 49.128 64.3425 48.9838 64.3702C48.498 64.4611 48.4056 63.9464 48.7613 63.8654ZM28.6838 64.312C28.5853 63.6739 29.5636 63.5982 29.6598 64.1543C29.7631 64.7527 28.7741 64.8947 28.6838 64.312ZM29.489 64.3012C29.3704 64.6058 28.7556 64.546 28.8644 64.1554C28.9068 64.0063 29.0756 63.9503 29.2583 63.9676C29.4025 63.9813 29.5549 64.1314 29.489 64.3012ZM48.1901 66.0324C48.1553 65.7506 48.3723 65.5399 48.635 65.5351C48.9142 65.5298 49.1629 65.6928 49.1743 65.9572C49.2036 66.6101 48.258 66.5677 48.1901 66.0324ZM48.5687 65.7332C48.7363 65.6912 48.9289 65.7783 48.9756 65.886C49.0757 66.1173 48.8674 66.3468 48.5317 66.2227C48.3082 66.1401 48.2619 65.8104 48.5687 65.7332ZM36.7041 73.4848C36.6007 74.1197 36.0312 73.9737 35.8956 73.7943C35.8282 73.7057 35.7765 73.5745 35.8016 73.4265C35.9256 72.6914 36.7972 72.9168 36.7041 73.4848ZM36.5093 73.5064C36.4126 73.8824 36.1035 73.791 36.0137 73.6436C35.9223 73.493 36.0252 73.0864 36.3118 73.1278C36.4703 73.1501 36.5561 73.3225 36.5093 73.5064ZM38.0991 73.9596L38.2874 73.9717C38.3101 74.1026 38.3444 74.1388 38.4842 74.1484C38.5359 74.1517 38.6072 74.1507 38.6464 74.131C38.6888 74.1092 38.7116 74.0396 38.679 73.9896C38.6214 73.9009 38.2471 73.9047 38.147 73.7573C38.0686 73.6409 38.1126 73.3586 38.42 73.3379C38.6387 73.3225 38.8781 73.3803 38.8891 73.6447L38.6991 73.6349C38.6708 73.525 38.5789 73.5044 38.4527 73.5092C38.2661 73.5161 38.271 73.6467 38.3581 73.6861C38.5527 73.7753 38.7982 73.7437 38.8721 73.9363C38.9129 74.0408 38.8672 74.1725 38.8139 74.2332C38.7486 74.3095 38.6414 74.3236 38.506 74.3171C38.2841 74.3051 38.0893 74.2393 38.0991 73.9596ZM30.8632 69.8336L30.9839 69.9827C30.785 70.1317 31.1472 70.489 31.2234 70.3085C31.2794 70.1741 30.9813 69.8951 31.0559 69.7118C31.1145 69.5659 31.3518 69.4548 31.5584 69.6677C31.7886 69.9037 31.7544 70.1616 31.6195 70.2073C31.5889 70.1541 31.5509 70.1193 31.5161 70.0649C31.5346 69.9973 31.5651 69.9947 31.5221 69.9081C31.3931 69.6535 31.1972 69.7003 31.2462 69.851C31.2946 70.0006 31.5194 70.2448 31.3778 70.4316C31.3371 70.486 31.2158 70.5626 31.1005 70.5451C30.9721 70.5262 30.7489 70.2628 30.7371 70.1084C30.7256 69.9668 30.8056 69.8944 30.8632 69.8336ZM45.2423 70.9837C45.4681 70.8366 45.7408 70.2977 46.189 70.7797C46.3022 70.9006 46.4327 71.1148 46.2961 71.3173C46.2369 71.4054 46.1802 71.4397 46.1064 71.5153C46.0416 71.5816 45.9769 71.6273 45.9084 71.7001C45.8408 71.6752 45.4998 71.264 45.4056 71.1762C45.3251 71.1018 45.2936 71.066 45.2423 70.9837ZM45.4893 70.9896C45.5117 70.9462 45.6716 70.8025 45.744 70.7764C45.9479 70.7012 46.2314 71.0212 46.1412 71.2269C46.1118 71.2933 45.9736 71.4316 45.9084 71.4576C45.8616 71.3895 45.7651 71.2971 45.6983 71.2279C45.6656 71.1938 45.5095 71.0331 45.4893 70.9896ZM49.2586 62.8693L49.226 62.8845C49.3467 62.9922 49.3554 63.2589 49.2118 63.4253C49.1112 63.5427 48.8739 63.6331 48.6558 63.5612C48.1878 63.4068 48.2772 62.7294 48.6546 62.7327L48.6661 62.922C48.411 62.9705 48.467 63.4121 48.8511 63.3916C49.2173 63.3719 49.2216 62.935 48.9664 62.897C48.9691 62.9547 48.9888 63.0422 48.9648 63.0738L48.8119 63.0879L48.7886 62.7192C49.3608 62.6995 49.2754 62.6091 49.2955 62.8638C49.288 62.865 49.264 62.8671 49.2586 62.8693ZM29.9242 68.152C29.9036 68.0855 29.8666 68.048 29.8557 67.9762L30.0048 67.9142L30.1544 68.2456L29.711 68.4566C29.6756 68.4163 29.6544 68.3521 29.6347 68.3016C29.6489 68.2891 29.6456 68.2934 29.6588 68.2836L29.6896 68.2564C29.4618 68.1475 29.3731 67.7559 29.6641 67.5349C29.909 67.3505 30.2643 67.3702 30.4128 67.6732C30.4585 67.7656 30.4851 67.8707 30.4557 67.9822C30.4313 68.0758 30.3627 68.1661 30.28 68.1867L30.1951 68.0165C30.2475 67.9799 30.2887 67.9582 30.2865 67.8603C30.285 67.7863 30.2528 67.7286 30.2148 67.6894C30.1287 67.6014 29.9911 67.5855 29.8514 67.6482C29.552 67.7814 29.6342 68.1824 29.9242 68.152ZM34.8446 72.8254L35.3424 73.0445L35.2809 73.1997C35.1846 73.1866 34.8648 73.0006 34.7624 72.9853L34.6749 73.1953L35.2516 73.4495C35.2434 73.501 35.2167 73.5652 35.183 73.6066L34.4464 73.2834C34.4649 73.1854 34.7842 72.5522 34.8326 72.3938C34.9159 72.4119 35.4501 72.6653 35.5801 72.7208L35.517 72.8748C35.4191 72.8601 35.0405 72.6496 34.925 72.6252C34.9055 72.6894 34.8598 72.7524 34.8446 72.8254ZM40.353 74.253L40.1849 73.2943L40.9868 73.1518L41.0174 73.3247C40.9145 73.3357 40.8019 73.3607 40.7007 73.3786L40.4025 73.4374C40.4003 73.438 40.3965 73.4401 40.3938 73.4413L40.4265 73.6447C40.5081 73.6431 40.618 73.6147 40.698 73.6012L40.9564 73.5637C40.9999 73.5734 41.0015 73.6909 40.9955 73.7263L40.4602 73.8198L40.4961 74.0462L41.1185 73.9411L41.1326 73.9781C41.136 73.9884 41.1396 74.013 41.1413 74.0233C41.1474 74.057 41.1511 74.0734 41.1511 74.1082L40.353 74.253ZM46.9115 69.3663C46.9714 69.4064 47.0279 69.4532 47.0866 69.4827C47.1161 69.4522 47.1368 69.4142 47.1623 69.3771C47.2179 69.2972 47.3567 69.0789 47.399 69.0344C47.448 69.0529 47.5084 69.0921 47.5378 69.1291L47.2385 69.5812C47.2684 69.6209 47.3839 69.6955 47.4327 69.7112C47.4447 69.689 47.7548 69.2189 47.7864 69.1921C47.8441 69.2177 47.8761 69.2554 47.9257 69.2791L47.5904 69.783C47.5503 69.8407 47.5235 69.8983 47.4742 69.9516C47.4278 69.9403 46.954 69.611 46.874 69.5577C46.8136 69.5175 46.7282 69.4468 46.67 69.4266C46.6818 69.3711 46.7461 69.2946 46.7819 69.2438L47.0072 68.9098C47.0471 68.8528 47.0748 68.7999 47.1172 68.7427C47.1628 68.7591 47.2314 68.8014 47.2587 68.8391C47.2087 68.9376 46.9725 69.2559 46.9115 69.3663ZM43.5418 72.419L42.9618 72.6751L43.0445 72.8721C43.1076 72.858 43.2327 72.7944 43.2937 72.7677C43.3752 72.7317 43.4661 72.684 43.5493 72.6556C43.5777 72.6872 43.6081 72.7607 43.6212 72.8074L43.125 73.0332L43.2119 73.2458C43.3655 73.1974 43.6679 73.0256 43.8034 72.9928L43.8682 73.1518C43.7005 73.2045 43.2267 73.4575 43.1179 73.476L42.7289 72.5936L43.4709 72.2579L43.5418 72.419ZM44.6102 71.4951C44.6428 71.4565 44.732 71.3796 44.7859 71.3955C44.9508 71.445 45.2625 71.5891 45.4296 71.624C45.3827 71.5381 45.0955 71.2019 45.0749 71.1372C45.1271 71.1055 45.1641 71.0538 45.2326 71.037L45.3702 71.2334C45.4128 71.2911 45.7821 71.7677 45.7983 71.807C45.7615 71.845 45.6754 71.9227 45.6222 71.908C45.4818 71.8688 45.1004 71.7035 44.9595 71.6687C45.0335 71.7807 45.3121 72.1213 45.3272 72.1767L45.1945 72.2686L44.6831 71.598C44.6559 71.5598 44.6233 71.5283 44.6102 71.4951ZM48.5007 66.7582C48.5149 66.7537 48.5295 66.7505 48.5421 66.7461L48.5884 66.7205C48.5862 66.7188 48.5817 66.7135 48.5807 66.7162C48.5791 66.7183 48.5725 66.7118 48.5725 66.7118L48.5225 66.6945C48.497 66.6873 48.4817 66.683 48.455 66.6748L48.0367 66.5557C48.0367 66.5112 48.0649 66.4114 48.0867 66.3783L49.0116 66.6411L48.9703 66.7967C48.9408 66.8582 48.695 66.9027 48.6166 66.9278C48.5704 66.942 48.3022 67.0127 48.2662 67.0465L48.8522 67.2129L48.807 67.3805L47.8729 67.1161C47.9365 66.8745 47.8615 66.9556 48.2544 66.8354C48.3141 66.8169 48.3609 66.8021 48.4197 66.783C48.4485 66.7744 48.4697 66.7668 48.5007 66.7582ZM30.7485 69.5306C30.7566 69.5175 31.1962 69.2242 31.2462 69.1975C31.2778 69.2472 31.3121 69.29 31.3437 69.3444C31.3116 69.3815 30.8328 69.696 30.7501 69.7504C30.6989 69.7857 30.5928 69.8744 30.5325 69.8874C30.5096 69.8179 30.4285 69.7688 30.4531 69.7024C30.5042 69.5654 30.7001 69.1513 30.7218 69.0611C30.6575 69.0849 30.2903 69.3607 30.2049 69.3978C30.1804 69.3499 30.1374 69.3043 30.1135 69.253L30.9144 68.7145C30.9394 68.7341 30.9567 68.7689 30.9776 68.7983C31.0411 68.8908 31.0134 68.875 30.9199 69.103C30.8937 69.1672 30.7489 69.4925 30.7485 69.5306ZM41.1773 73.0996C41.2579 73.0842 41.3252 73.1883 41.4373 73.2845L41.7546 73.5717L41.6157 73.0011L41.7975 72.9526C41.816 73.0875 41.8769 73.2819 41.9128 73.4228C41.9395 73.5299 42.0206 73.8025 42.0238 73.8932C41.8618 73.9237 41.8769 73.9596 41.8008 73.8896C41.7398 73.8341 41.6919 73.7872 41.6326 73.7338L41.3046 73.4336L41.4525 74.037L41.2805 74.0799C41.2458 73.9069 41.0521 73.2225 41.0521 73.1306C41.0956 73.1224 41.136 73.1083 41.1773 73.0996ZM29.5956 67.2341L30.1619 67.0442L30.2257 67.2216C30.0722 67.2651 29.3649 67.5273 29.3019 67.529C29.2649 67.3837 29.2235 67.388 29.2856 67.3075L29.6984 66.775L29.1081 66.9747L29.0538 66.807L29.9775 66.4888C30.0253 66.6911 30.0967 66.5862 29.8644 66.886C29.8209 66.942 29.774 66.998 29.7257 67.0595C29.6761 67.1225 29.6413 67.1742 29.5956 67.2341ZM36.795 54.0562C36.7901 53.9942 36.8097 53.9925 36.8434 53.961C36.869 53.9371 36.8826 53.9201 36.9097 53.8979C36.9576 53.8592 37.0054 53.8222 37.0665 53.7869C37.2851 53.6574 37.6574 53.7434 37.5409 53.9376L37.382 54.3059C37.3341 54.4332 37.3531 54.3772 37.2666 54.4485L37.2928 54.5237C37.394 54.5138 37.6987 54.4045 37.6932 54.5905C37.691 54.6699 37.4931 54.8217 37.4587 54.9022C37.6083 54.9043 37.7237 54.9121 37.7211 55.0752C37.5691 55.1639 37.5017 55.1829 37.3233 55.2363C37.2188 55.2668 37.0795 55.0752 37.1807 54.9327C37.2389 54.8522 37.3341 54.8484 37.2481 54.7259C37.2177 54.7401 37.185 54.7738 37.1541 54.7978C37.1013 54.8386 37.1089 54.8308 37.0643 54.8811C36.9869 54.9691 36.8945 54.8782 36.8717 54.8065C36.9114 54.7728 36.9903 54.7325 37.036 54.7015C37.0882 54.6666 37.1372 54.6237 37.1894 54.5942L37.1502 54.486C36.9152 54.5028 36.7281 54.2531 36.7117 54.1209C36.7863 54.1194 36.8696 54.196 36.9087 54.2308C36.9424 54.2613 36.9609 54.2808 36.9931 54.308C37.0338 54.3434 37.0343 54.3506 37.1083 54.3407C37.1078 54.1428 36.9869 54.294 36.9282 54.1417L37.0785 54.0916C37.0778 54.0552 37.0658 53.9871 37.0871 53.9664C37.1175 53.9348 37.1535 53.9643 37.1672 53.9828C37.2215 54.0589 37.1682 54.0725 37.2928 54.1003C37.308 54.0262 37.3493 53.9414 37.3373 53.8566C37.2226 53.8239 37.1132 53.8838 37.0468 53.9381C36.9652 54.0055 36.967 54.1003 36.795 54.0562ZM37.2264 54.2907C37.2062 54.2183 37.1786 54.1796 37.2656 54.1656C37.2612 54.2058 37.2449 54.2657 37.2264 54.2907ZM37.3635 54.7004C37.3558 54.6492 37.3825 54.6356 37.4272 54.6247C37.4109 54.6671 37.4027 54.6846 37.3635 54.7004ZM40.5691 54.0644C40.6724 54.0774 40.6653 54.1111 40.779 54.0774C40.8366 54.0601 40.9215 54.042 40.9868 54.0283C41.1387 53.9947 41.3688 54.2048 41.1273 54.4381C41.0816 54.4828 40.7377 54.6389 40.7062 54.7847C40.7698 54.7873 40.8748 54.8036 40.926 54.8015C41.1054 54.7935 41.1196 54.82 41.1501 54.9028C41.2915 55.2955 40.9765 55.2024 40.7214 55.1841C40.6473 55.178 40.5744 55.1732 40.5032 55.1677C40.2534 55.1497 40.284 54.8892 40.3133 54.7108C40.4037 54.7031 40.4542 54.6596 40.5075 54.6139C40.7334 54.4224 40.6288 54.3974 40.5516 54.2657C40.4951 54.171 40.5114 54.1319 40.5691 54.0644ZM47.3494 58.0272C47.2728 57.9696 47.2891 57.8205 47.3771 57.7671C47.4034 57.7813 47.3839 57.7666 47.4055 57.7878C47.4644 57.8444 47.4997 57.9358 47.4795 58.0168C47.4469 58.0326 47.4165 58.0418 47.3669 58.0425C47.3985 58.124 47.571 58.2427 47.5133 58.372C47.4861 58.4347 47.4034 58.4532 47.3191 58.4239L47.1596 58.3417C47.14 58.3558 47.1307 58.358 47.1024 58.3706L47.0409 58.4086C47.0889 58.4896 47.1575 58.4489 47.09 58.5952C47.0476 58.5963 47.0214 58.5843 46.986 58.5762C46.9403 58.6497 46.8153 58.7192 46.7407 58.7823C46.6308 58.8754 46.5808 58.9684 46.7342 59.062C46.8571 59.137 46.917 59.1632 47.1003 59.0995C47.182 59.0708 47.3631 58.9542 47.41 58.951C47.4307 58.9717 47.4284 58.9684 47.4459 58.995C47.4187 59.0533 47.3752 59.1001 47.343 59.1805C47.232 59.4602 46.9252 59.3852 46.7319 59.2687C46.664 59.2279 46.6145 59.1817 46.5644 59.1348C46.4338 59.0163 46.4338 58.8553 46.572 58.7214C46.6176 58.6774 46.7124 58.6262 46.7362 58.5663C46.4284 58.5228 46.3023 58.6017 46.122 58.598C46.0671 58.5071 46.1172 58.4701 46.1835 58.4287C46.2957 58.3597 46.3076 58.4092 46.4219 58.3797C46.4088 58.3657 46.4214 58.3743 46.3947 58.358C46.362 58.339 46.3261 58.3385 46.2913 58.3008C46.3017 58.2813 46.3516 58.2089 46.3692 58.1964C46.4481 58.1409 46.7054 58.2334 46.8941 58.2024C46.8952 58.1589 46.8778 58.1512 46.892 58.1067C46.9028 58.0697 46.918 58.0523 46.9295 58.0158C46.764 57.9521 46.7766 57.8183 46.8838 57.8564C46.9142 57.8667 46.9469 57.8826 46.979 57.8934C47.0339 57.9108 47.1292 57.9319 47.1748 57.9543C47.2222 57.9771 47.2903 58.031 47.3494 58.0272ZM47.2283 58.0843C47.2631 58.1023 47.2869 58.1164 47.3115 58.1409C47.4413 58.2732 47.2348 58.2351 47.177 58.2291C47.19 58.2715 47.1895 58.2568 47.2004 58.284C47.1596 58.2873 47.1623 58.2688 47.1357 58.2416C47.0769 58.1817 46.9833 58.1719 46.9997 58.018C47.0846 58.0196 47.1613 58.049 47.2283 58.0843ZM43.9471 55.2298C43.7888 55.1242 43.9334 54.8332 43.9971 54.851C44.0548 54.8679 44.0173 54.9588 44.0144 55.0071C44.0733 54.9968 44.114 54.9093 44.1967 54.9419C44.2435 54.9664 44.2305 54.9881 44.2588 55.0355C44.3816 55.0295 44.6374 54.8397 44.6483 55.1177C44.6538 55.2733 44.3381 55.3058 44.2741 55.3478C44.3191 55.3832 44.3371 55.3946 44.3937 55.4239C44.5303 55.4958 44.681 55.6845 44.6332 55.7917C44.5863 55.8967 44.4165 55.814 44.3349 55.7944C44.1995 55.7618 44.1092 55.8108 44.0358 55.8706C44.1081 55.9337 44.2828 55.9555 44.262 56.0958C44.2322 56.296 43.9764 56.165 43.9367 56.1763C43.9057 56.1992 43.8432 56.2574 43.8213 56.2934C43.7778 56.3668 43.594 56.6866 43.4699 56.5419C43.4242 56.4875 43.336 56.3379 43.3056 56.2651C43.2229 56.0697 43.2653 56.0332 43.3893 55.9849C43.3742 56.1732 43.4759 56.2466 43.5896 56.3059C43.6267 56.2749 43.7359 56.1611 43.7545 56.1057C43.7017 56.0861 43.5483 56.0361 43.5228 55.9936C43.4627 55.895 43.532 55.825 43.5673 55.7499C43.6385 55.7612 43.6696 55.8146 43.8278 55.8348C43.854 55.8086 43.8627 55.7928 43.8948 55.7651C43.9215 55.7411 43.9389 55.7308 43.9514 55.6867C43.8622 55.684 43.7321 55.6884 43.6717 55.6405C43.6455 55.6203 43.6222 55.5838 43.6157 55.536C43.606 55.4659 43.6282 55.4594 43.6461 55.406C43.5782 55.3847 43.5433 55.3582 43.4819 55.4169C43.4182 55.4767 43.2174 55.6997 43.1489 55.7127C43.1381 55.6454 43.1293 55.5616 43.1729 55.5159L43.3023 55.4195C43.3742 55.3575 43.4791 55.2656 43.5248 55.1786C43.5906 55.1807 43.607 55.1786 43.6582 55.1514C43.7506 55.1014 43.7676 55.0829 43.7582 55.1437L43.7094 55.2498C43.9775 55.3303 44.0026 55.2923 44.1967 55.2276C44.4155 55.1541 44.5493 55.1535 44.5618 55.0104C44.4732 55.0258 44.3943 55.0915 44.3306 55.1362C44.2238 55.2123 44.1973 55.1155 44.1195 55.0747C44.0651 55.0948 43.9954 55.1867 43.9471 55.2298ZM44.2469 55.6764C44.2163 55.6182 44.2217 55.6182 44.151 55.5915C43.9987 55.5333 43.8333 55.5523 43.6995 55.4953L43.6984 55.4169C43.8578 55.4131 43.9377 55.4594 44.0874 55.4702C44.2109 55.4799 44.3698 55.5104 44.3833 55.61C44.3546 55.628 44.2822 55.6607 44.2469 55.6764ZM33.5073 55.1057C33.4589 55.1155 33.2902 55.1939 33.3774 55.0655C33.4202 55.0023 33.454 54.9321 33.571 54.998C33.6466 55.041 33.7488 55.2232 33.8392 55.331C33.8904 55.3027 33.9621 55.1514 34.0666 55.1405L34.1025 55.1449C34.1058 55.1383 34.1547 55.1797 34.0666 55.258C33.8919 55.4126 33.8892 55.4212 33.9709 55.6018C33.9534 55.6417 33.9654 55.6127 33.9399 55.6448L33.9729 55.6715C34.0253 55.6127 34.152 55.5051 34.2614 55.4876C34.3408 55.4756 34.3963 55.5088 34.431 55.5474L34.5812 55.8608C34.6127 55.9315 34.6345 55.9489 34.5964 56.0366C34.5106 56.2352 34.3114 56.1372 34.306 56.1426C34.2788 56.172 34.3668 56.3379 34.3815 56.3712C34.4055 56.4267 34.4664 56.5507 34.4539 56.604C34.2444 56.679 34.1552 56.0154 34.0541 55.8608C34.0101 55.9479 34.1188 56.1426 34.0219 56.2807C33.9611 56.2749 33.9502 56.2199 33.936 56.1405C33.9252 56.0751 33.9229 56.0055 33.9089 55.9402C33.8577 56.0115 33.8452 56.1241 33.7853 56.1682C33.6912 56.1312 33.6607 56.0931 33.6944 55.9739C33.7129 55.9077 33.7716 55.7949 33.7434 55.7314C33.7119 55.8101 33.6542 56.0066 33.6225 56.0626C33.59 56.1198 33.5818 56.0898 33.5438 56.1328C33.5725 56.1965 33.627 56.2417 33.6684 56.2987C33.7086 56.3548 33.9741 56.6464 33.8223 56.6415C33.6304 56.6345 33.5802 56.4462 33.5095 56.3504C33.3952 56.196 33.2832 56.0762 33.2331 55.8738C33.2086 55.7738 33.2184 55.7841 33.2331 55.7694C33.2777 55.7237 33.3017 55.8146 33.3169 55.7384L33.3125 55.665C33.2738 55.4631 33.0884 55.6422 33.0297 55.6954C32.9698 55.7504 32.9143 55.8315 32.788 55.8108C32.7984 55.7574 32.799 55.7672 32.8382 55.74C32.8621 55.7249 32.8719 55.7182 32.8926 55.6987C32.9273 55.665 32.9546 55.6367 32.9904 55.6023C33.0439 55.5508 33.1678 55.4777 33.2397 55.4669C33.349 55.4512 33.4774 55.5441 33.4921 55.604C33.5106 55.6792 33.5138 55.8815 33.5155 55.9685C33.5595 55.9299 33.6335 55.7542 33.6225 55.6764C33.5922 55.648 33.5715 55.6443 33.5514 55.5986C33.5335 55.5588 33.5275 55.5376 33.5051 55.4941C33.4844 55.4539 33.4758 55.4299 33.4563 55.394C33.3343 55.1752 33.5323 55.3363 33.6466 55.294C33.6167 55.2069 33.5453 55.1699 33.5073 55.1057ZM33.7054 55.5349C33.7054 55.5349 33.7011 55.5388 33.6988 55.541L33.6607 55.4789C33.6514 55.4549 33.6455 55.437 33.6384 55.4114L33.6988 55.3907C33.7194 55.4228 33.7446 55.4539 33.7228 55.5071C33.7173 55.5213 33.7156 55.5202 33.7102 55.5284L33.7054 55.5349ZM34.0645 55.6997C34.2026 55.3972 34.5344 55.9859 34.2559 55.9924C34.2439 55.9664 34.2275 55.9402 34.2189 55.8989C34.2042 55.8271 34.2189 55.7672 34.0645 55.6997ZM31.904 57.8934C31.8676 57.9369 31.8054 58.0011 31.787 58.0534C31.9143 58.2345 31.8306 58.2306 31.8251 58.4319C32.1673 58.5528 31.7914 58.7286 31.7419 58.7247C31.6554 58.7192 31.5901 58.5886 31.5906 58.55C31.5923 58.4777 31.6472 58.3183 31.5879 58.2546C31.5569 58.303 31.5194 58.3493 31.4889 58.4124C31.4427 58.5081 31.447 58.5168 31.4442 58.6322L31.65 58.7846C31.5454 58.8775 31.3876 58.7454 31.329 58.7236C31.2783 58.7057 31.3039 58.7159 31.2931 58.7269C31.2539 58.7752 31.3366 58.9113 31.3023 58.9484C31.244 58.9831 31.2135 58.9352 31.1765 58.9172C31.1733 59.0064 31.2549 59.0598 31.2963 59.1011C31.33 59.136 31.41 59.2214 31.4182 59.2904C31.3866 59.3428 31.317 59.4107 31.2185 59.3852C31.158 59.3699 31.0683 59.2856 31.0346 59.2557C30.9432 59.1752 30.6989 58.9695 30.6337 58.8825L30.4062 58.6474C30.3399 58.5723 30.3518 58.5103 30.3703 58.4015C30.3916 58.2736 30.3594 58.2465 30.3055 58.1752C30.5335 57.9956 30.6847 58.2056 30.6772 58.247C30.6294 58.321 30.5488 58.3166 30.4742 58.3651L30.4699 58.445C30.5358 58.4973 30.65 58.5174 30.7229 58.5675C30.7822 58.6083 30.7664 58.6235 30.8078 58.6757C30.8393 58.7139 30.8742 58.7389 30.8981 58.7801C30.9339 58.7704 30.9709 58.7454 31.0024 58.7409C31.052 58.7361 31.0596 58.7606 31.0944 58.7823C31.12 58.6327 31.083 58.4879 31.0602 58.347C30.9829 58.3515 30.897 58.4145 30.8165 58.39L30.8121 58.3743C30.8121 58.3438 30.8138 58.359 30.8273 58.3226C30.6641 58.2416 30.6907 58.1584 30.6751 57.9891L30.6511 57.6474C30.6424 57.6138 30.6184 57.6061 30.6015 57.5702C30.6625 57.4837 30.7626 57.4369 30.8807 57.517C30.9644 57.5735 30.8615 57.747 30.8975 57.8662C30.935 57.8444 31.069 57.6894 31.1642 57.7823C31.2746 57.8917 31.163 58.048 31.2017 58.0968C31.3757 58.2046 31.6597 57.6606 31.9448 57.7106C31.997 57.8085 31.9584 57.8287 31.904 57.8934ZM30.9367 58.2671C30.9339 58.1681 30.9807 58.068 31.0324 58.025L31.0308 58.2067L30.9367 58.2671ZM31.2794 58.5092C31.1842 58.4309 31.2255 58.2895 31.2446 58.2655C31.2811 58.2198 31.3899 58.1817 31.4726 58.1916L31.2859 58.5033C31.2859 58.5033 31.2821 58.5071 31.2794 58.5092ZM39.0115 57.0458C39.2785 57.0458 39.5327 57.0774 39.778 57.1361C39.8901 57.1621 40.0054 57.197 40.1098 57.234C40.161 57.252 40.2144 57.2742 40.2649 57.2943C40.3144 57.3145 40.3759 57.3309 40.4112 57.3699C40.2349 57.4582 39.9211 57.7095 39.7595 57.8336C39.0936 58.3438 38.9637 58.3547 38.2851 57.8336C38.0806 57.6769 37.875 57.5038 37.6334 57.3694L37.653 57.3521C37.7432 57.2874 38.1622 57.1606 38.2562 57.1378C38.4918 57.0806 38.754 57.0458 39.0115 57.0458ZM27.791 64.2793C27.8573 65.93 28.1783 67.3631 28.8698 68.8179C29.0597 69.2172 29.1675 69.3908 29.3616 69.7352C29.4857 69.955 29.7555 70.3693 29.9156 70.5796C30.1451 70.8809 30.2996 71.0844 30.539 71.365C30.65 71.4951 30.7621 71.6072 30.8742 71.7285C31.3746 72.2692 31.7989 72.6155 32.3669 73.0539C32.429 73.1018 32.5047 73.1484 32.5759 73.1997C33.1678 73.623 33.8675 74.0221 34.5976 74.3292C37.6073 75.5912 40.8878 75.5369 43.8398 74.1517C43.9716 74.0904 44.4155 73.866 44.5401 73.7872C44.6135 73.741 44.6865 73.7066 44.7582 73.6621C45.4077 73.2552 45.781 73.0094 46.387 72.4837C46.6732 72.2356 46.9312 71.9782 47.1912 71.7067C47.2174 71.679 47.2521 71.6512 47.2794 71.6225C47.5318 71.3488 47.8538 70.9603 48.0726 70.6524C48.3027 70.3287 48.5889 69.9403 48.7701 69.5866C48.8092 69.511 48.8539 69.4478 48.8946 69.3663C49.0475 69.0606 49.2161 68.7586 49.351 68.425C49.4903 68.0828 49.6143 67.7635 49.7331 67.3972C50.6013 64.7234 50.368 61.6462 49.1726 59.1827C48.8756 58.5713 48.7471 58.3688 48.4143 57.8347C48.2957 57.6447 48.1673 57.4854 48.0509 57.3162C47.9376 57.1524 47.7897 56.9798 47.6624 56.8227C47.2826 56.3559 46.5661 55.6334 46.078 55.2558C45.4975 54.8065 45.0569 54.4888 44.3871 54.1296C43.7919 53.8104 43.075 53.4833 42.421 53.2896C41.1913 52.9257 40.0821 52.7249 38.7465 52.7695C37.0208 52.8261 35.5481 53.209 34.2047 53.8499C33.8238 54.0317 33.6324 54.1493 33.2859 54.3386C32.9948 54.498 32.7065 54.7178 32.4422 54.8935C32.3887 54.9284 31.8164 55.3685 31.75 55.4376C31.713 55.4756 31.6935 55.486 31.6575 55.517C31.4062 55.7319 31.1505 55.9642 30.9377 56.1953C30.7141 56.4385 30.4858 56.6866 30.2811 56.9478C30.2311 57.0115 30.1679 57.0763 30.1212 57.1416L29.8225 57.5539C29.7752 57.6224 29.7278 57.6845 29.6827 57.7578L29.4042 58.1894C28.9547 58.9406 28.5761 59.7552 28.3106 60.6022C27.9547 61.7398 27.7421 63.0591 27.791 64.2793ZM38.6725 52.9338C37.8021 52.9795 37.0436 53.0666 36.2472 53.2782C35.1383 53.5725 34.2684 53.9468 33.3294 54.5006C33.1829 54.5872 33.0482 54.6694 32.9089 54.7683C32.768 54.869 32.4225 55.0954 32.2989 55.2014C32.2375 55.2536 32.168 55.3091 32.1069 55.3538C32.0013 55.431 31.6613 55.7297 31.5433 55.8331C31.4138 55.9457 31.1527 56.2199 31.0178 56.3504C30.905 56.4592 30.7903 56.5887 30.6902 56.7116C30.5563 56.8761 30.3432 57.1056 30.2239 57.2776C30.1777 57.3439 30.1277 57.4081 30.0777 57.4745C29.7011 57.9756 29.2997 58.6577 29.0374 59.2089C28.9607 59.3699 28.8938 59.5227 28.8198 59.6903C28.5417 60.3156 28.3084 61.1186 28.168 61.8018C27.8362 63.4242 27.885 65.1684 28.2986 66.7679C28.5756 67.838 28.9694 68.7526 29.5227 69.6931C29.5672 69.7694 29.6059 69.8271 29.6544 69.9049C29.6995 69.9778 29.7436 70.0474 29.7894 70.1148C29.9373 70.3335 30.2001 70.6993 30.373 70.9184C30.4683 71.0386 30.91 71.5512 31.0233 71.655L31.3746 72.0022C31.4356 72.0615 31.4856 72.1174 31.5487 72.1718C31.687 72.291 31.9807 72.5544 32.1069 72.647C32.4018 72.8623 32.5531 73.0065 32.9078 73.2323C33.3724 73.5267 33.7271 73.7437 34.2314 73.9841C34.3881 74.0591 34.5464 74.1298 34.7124 74.203C36.0632 74.7904 37.6948 75.1093 39.3874 75.0668C40.6327 75.0352 41.7268 74.7914 42.854 74.391C43.1957 74.2693 43.5134 74.1245 43.8278 73.9776C44.1303 73.8358 44.4503 73.6611 44.7212 73.4956C44.978 73.3389 45.3262 73.1186 45.5535 72.9407C45.6172 72.8907 45.6896 72.8476 45.7511 72.7939C45.8752 72.6872 46.0041 72.598 46.1325 72.4864C46.1977 72.4294 46.2685 72.3791 46.325 72.3248C46.4486 72.2067 46.5623 72.1011 46.6803 71.9918C46.8055 71.8753 46.905 71.7683 47.0317 71.6446C47.0933 71.5859 47.1373 71.5249 47.196 71.4641C47.2521 71.4063 47.3066 71.3488 47.3626 71.2857C47.6525 70.9587 47.8615 70.6731 48.1139 70.3184C48.5764 69.6698 48.9071 69.0334 49.2282 68.3021C49.5045 67.6726 49.7275 66.9246 49.8777 66.1907C50.5142 63.0781 49.7471 59.9265 47.9627 57.468C47.7645 57.1943 47.5524 56.9412 47.3468 56.6965C47.1498 56.4609 46.7342 56.0523 46.4861 55.826L46.1216 55.5028C46.0041 55.3842 45.4284 54.9653 45.2402 54.8358C44.6418 54.4234 44.0047 54.0882 43.3241 53.7945C42.0565 53.2467 40.2709 52.8506 38.6725 52.9338ZM27 63.6451V64.4171C27.0173 64.4601 27.0387 64.9916 27.0484 65.0945C27.0685 65.3088 27.093 65.5219 27.1245 65.7364C27.1854 66.1532 27.265 66.554 27.3639 66.9475C27.5576 67.7151 27.8209 68.4316 28.1267 69.0888C28.8116 70.5632 29.8492 71.9194 30.8828 72.8492C31.0754 73.0222 31.4513 73.3471 31.664 73.5098C32.9773 74.515 34.4099 75.2344 36.0485 75.6523C36.4398 75.7513 36.8488 75.836 37.2591 75.8937C37.4722 75.9243 37.6845 75.951 37.9032 75.971C38.0131 75.9808 38.5354 76.001 38.5844 76.0222H39.2753L39.9646 75.9862C40.9945 75.9025 42.0292 75.6947 42.9961 75.3496C43.3458 75.2246 43.7212 75.0841 44.0439 74.9266C44.2065 74.8459 44.3773 74.7654 44.5362 74.6871C44.7952 74.5603 45.4393 74.1794 45.6853 74.0082L45.9104 73.8557C46.1792 73.6828 46.4829 73.415 46.7385 73.2215C47.0045 73.0207 47.6423 72.3858 47.867 72.1453C48.0899 71.9053 48.2522 71.7013 48.455 71.4544C48.4904 71.4118 48.499 71.3923 48.5343 71.3514C48.6319 71.2377 48.8984 70.8602 48.9996 70.7089C49.1536 70.4783 49.2803 70.2808 49.4217 70.0343C49.6013 69.721 49.7711 69.4064 49.9277 69.0671C50.5186 67.7896 50.8803 66.4436 51.0029 65.0117C51.0126 64.8952 51.0267 64.3724 51.044 64.3148V63.6853L51.0034 62.9998C50.9516 62.3529 50.8499 61.7491 50.697 61.1217C50.4353 60.0446 50.153 59.3895 49.7009 58.4722C49.5338 58.1332 49.029 57.2972 48.8015 57.0055C48.769 56.9636 48.7526 56.9353 48.7254 56.8988C48.4915 56.5839 48.1683 56.1807 47.9061 55.901L47.5568 55.5301C47.1542 55.1155 46.8333 54.8587 46.3925 54.5006C46.2576 54.3908 46.1243 54.295 45.9791 54.1928C44.7647 53.3364 43.4928 52.7391 41.9943 52.348C41.3676 52.1842 40.7822 52.0943 40.136 52.0285C40.0196 52.016 39.5147 52.0013 39.4593 51.978H38.6671C38.5049 52.0334 36.499 51.9132 33.9479 53.0976C33.0112 53.5324 32.2745 54.0088 31.4797 54.6406C31.4442 54.6688 31.416 54.6899 31.379 54.7226C31.342 54.7543 31.3126 54.7711 31.2756 54.802L30.8888 55.1465C30.5308 55.4594 30.1314 55.8956 29.8225 56.2624C28.6632 57.6394 27.7948 59.284 27.3559 61.0859C27.204 61.7071 27.0984 62.3251 27.0435 62.9677C27.0342 63.0727 27.0152 63.5994 27 63.6451ZM38.6628 52.5084C36.5888 52.6015 34.7325 53.1465 33.1145 54.1356C32.9371 54.2445 32.6216 54.4354 32.4607 54.5567C32.3849 54.6139 32.3169 54.6558 32.2473 54.7086C32.0275 54.8734 31.7479 55.0845 31.5444 55.2634C30.392 56.2754 29.6478 57.21 28.8993 58.5435C28.3899 59.4505 27.9624 60.6554 27.7524 61.7094C27.2921 64.021 27.5261 66.3273 28.4313 68.4833C28.5047 68.658 28.5793 68.8093 28.6565 68.9789C28.9188 69.5524 29.464 70.4521 29.8851 70.9766C30.0363 71.1649 30.2076 71.3999 30.3735 71.5739L30.539 71.7623C30.6662 71.9092 30.9394 72.1845 31.0765 72.3117C31.2027 72.4294 31.3126 72.5376 31.4459 72.6513L31.737 72.8976C31.7761 72.9293 31.7979 72.9462 31.8393 72.9793C31.9573 73.0746 32.3202 73.3575 32.4552 73.4385L32.8871 73.7263C32.9241 73.7525 32.9513 73.7633 32.9948 73.791C33.0307 73.8134 33.0639 73.8372 33.1064 73.8624C33.6357 74.1757 33.9654 74.3333 34.5388 74.5902C35.183 74.8785 35.9735 75.1153 36.7308 75.269C39.2274 75.7774 41.8079 75.4258 44.0009 74.3662C44.7887 73.9846 45.2093 73.7023 45.8952 73.2176C46.2456 72.97 46.6655 72.5925 46.973 72.3062C47.4594 71.8537 47.9126 71.313 48.3141 70.7753C48.6503 70.3258 48.8674 69.9386 49.1454 69.4567C49.3195 69.1551 49.4686 68.8108 49.6122 68.4833C50.2531 67.0242 50.5664 65.2701 50.5147 63.6347C50.45 61.6185 49.844 59.6528 48.8876 58.0925C48.7602 57.8857 48.6048 57.6361 48.4665 57.4375L48.1606 57.0229C47.8855 56.6551 47.6346 56.3863 47.3283 56.0491C47.0394 55.7302 46.5481 55.2983 46.2052 55.0208C45.9029 54.7765 45.6699 54.6334 45.3719 54.4131C45.3175 54.3722 45.2173 54.3102 45.1553 54.2755C45.0814 54.2325 45.0172 54.1851 44.9378 54.1378C43.8219 53.4725 42.594 52.9861 41.3132 52.7304C40.4885 52.5661 39.5462 52.4692 38.6628 52.5084ZM30.7523 64.3012C30.8431 65.8653 31.2142 67.0666 31.9405 68.2853C32.0101 68.4022 32.2571 68.7787 32.3539 68.9038C32.5069 69.1025 32.6499 69.2934 32.8152 69.4762C33.3245 70.0366 33.8505 70.5049 34.4812 70.9179C35.8761 71.8313 37.5311 72.3334 39.3232 72.2692C43.7958 72.1115 47.4394 68.3793 47.2913 63.6989C47.2446 62.2087 46.7918 60.8661 46.1035 59.7143C45.7826 59.1784 45.1913 58.4222 44.7223 57.999C44.5406 57.8357 44.2238 57.5495 44.0173 57.4026L43.5634 57.0823C41.1855 55.4914 38.0164 55.2851 35.4049 56.5539C35.1705 56.6681 34.9512 56.7966 34.7369 56.9184C34.6825 56.9495 34.6302 56.9837 34.5791 57.0186C34.5236 57.0561 34.4681 57.0871 34.4213 57.1197C34.0862 57.3488 33.8522 57.5375 33.546 57.7933C33.4306 57.8891 33.1079 58.2034 33.0215 58.3003L32.7729 58.5788C32.3724 59.0326 32.0013 59.5718 31.719 60.1066C31.5988 60.3341 31.4922 60.5554 31.3855 60.8057C30.9796 61.7599 30.6826 63.1038 30.7523 64.3012ZM34.5106 69.8325C34.5344 69.7106 34.4996 69.3973 34.6127 68.9038C34.7347 68.3706 34.9507 67.881 35.2025 67.418C35.3598 67.1303 35.7096 66.5535 35.8956 66.2934C35.9953 66.1543 36.332 65.6135 36.3962 65.4927C36.5778 65.1527 36.7852 64.7744 36.8265 64.3659C36.8392 64.2364 36.8424 63.9808 36.7858 63.8834L36.3152 64.1967C35.7564 64.526 35.3766 64.7376 34.7188 64.9671C33.8827 65.2587 32.9958 65.4208 32.0079 65.4149C32.0547 65.2494 32.2043 65.0062 32.3006 64.8598C32.6684 64.2968 33.1059 64.0552 33.7798 63.8219C34.1905 63.6804 34.6508 63.5694 35.0601 63.4263C35.3691 63.3176 35.6606 63.1957 35.9436 63.0499C36.0176 63.0107 36.1492 62.9541 36.2128 62.903C36.1411 62.731 36.0497 62.6941 35.9381 62.3207C35.4877 60.8149 37.0632 59.3264 36.3619 58.0788C36.3118 57.9891 36.2438 57.9042 36.1998 57.8107C36.1351 57.6746 36.1786 57.5637 36.2945 57.519C36.6209 57.394 37.2721 57.7095 37.4119 58.0827C37.5778 58.5299 37.3972 59.1409 37.2754 59.5549C37.0925 60.1783 36.7585 60.9873 36.7793 61.656C36.7858 61.8638 36.8467 62.1642 36.9946 62.3044C37.0333 62.2669 37.0905 62.2305 37.1393 62.1924C37.2928 62.0738 37.4445 61.9286 37.5898 61.8051C38.1066 61.3656 38.7602 60.6126 38.9935 59.9619C38.9945 59.9585 39.0012 59.9412 39.0027 59.938L39.0163 59.914C39.018 59.9123 39.0202 59.9091 39.0218 59.9068C39.0289 59.9151 39.0289 59.9135 39.0371 59.9298C39.0805 60.0141 39.1066 60.1234 39.1969 60.2877C39.4843 60.8069 39.8737 61.2616 40.3041 61.6647C40.4396 61.7915 40.94 62.2599 41.0603 62.3044C41.1881 62.0543 41.2567 61.9977 41.2649 61.6452C41.2892 60.5679 40.3063 58.9467 40.6353 58.0762C40.7154 57.8651 40.8813 57.7476 41.0641 57.6442C41.4743 57.4125 42.1414 57.4179 41.7648 57.9461C41.7279 57.9978 41.7115 58.0262 41.6822 58.0783C40.983 59.3253 42.5472 60.7932 42.1093 62.3121C42.014 62.6435 41.9123 62.705 41.8312 62.903C42.1087 63.0874 42.6783 63.3154 42.9836 63.4253C43.3992 63.5732 43.8432 63.6826 44.2643 63.8213C44.4645 63.8878 44.6908 63.9698 44.8616 64.064C45.231 64.2653 45.5073 64.496 45.7451 64.8583C45.7896 64.9269 46.0301 65.3327 46.0318 65.4154C45.0456 65.4175 44.1712 65.2619 43.3328 64.9692C42.7518 64.7669 42.2447 64.5112 41.7355 64.201L41.2588 63.8834C41.1463 64.0765 41.2387 64.5645 41.3089 64.7696C41.4585 65.2107 41.6893 65.5623 41.9243 65.9475C42.0864 66.213 42.2632 66.4704 42.4298 66.7325C42.5645 66.9441 42.6963 67.1482 42.8138 67.3707C42.9298 67.5883 43.0558 67.8157 43.1549 68.0616C43.2556 68.3119 43.3431 68.5414 43.4134 68.8233C43.4487 68.9692 43.4743 69.109 43.4961 69.2586C43.5189 69.4206 43.5161 69.5746 43.532 69.7384C43.7686 69.7547 44.0591 69.7405 44.3018 69.7405C44.5689 69.7405 44.4786 69.7155 44.7767 69.4321C44.9693 69.2494 45.3419 68.7797 45.484 68.5686L45.7173 68.2227C46.0547 67.6781 46.3235 67.1172 46.5351 66.4903C47.1226 64.756 47.0476 62.8231 46.4094 61.1597C46.3381 60.9738 46.2625 60.7942 46.177 60.6186C45.8887 60.0207 45.6597 59.6713 45.2817 59.1603C44.9518 58.7159 44.5602 58.3162 44.1348 57.9631L43.816 57.7013C43.5048 57.4582 43.0907 57.1938 42.7408 57.0132C41.5771 56.4103 40.3525 56.0751 38.9684 56.0871C37.6519 56.098 36.3309 56.4375 35.2407 57.0462C34.7237 57.3357 34.2908 57.6328 33.8544 58.0045L33.4475 58.383C33.1939 58.6288 32.9328 58.9374 32.7152 59.2208C32.2854 59.7807 31.8963 60.4623 31.6053 61.2381C30.9655 62.9432 30.9454 64.8256 31.5368 66.5725C31.9383 67.7581 32.5378 68.6439 33.3207 69.4865C33.3843 69.5555 33.4453 69.6166 33.5133 69.6808C33.5682 69.7325 33.6651 69.8483 33.7412 69.8483C33.9904 69.8504 34.2593 69.8418 34.5106 69.8325ZM37.6051 63.2692C37.6422 63.219 37.8956 62.991 37.962 62.9291C38.0229 62.8714 38.0763 62.8181 38.135 62.7582C38.1915 62.699 38.2432 62.6365 38.3014 62.581C38.4799 62.4122 38.8509 61.9107 39.0223 61.9122C39.1621 61.9134 39.3395 62.1533 39.4102 62.2251C39.5255 62.3426 39.6344 62.4628 39.7426 62.5803C39.8573 62.705 39.9651 62.8193 40.0881 62.934L40.4396 63.2692C40.3873 63.3849 40.3123 63.4972 40.2578 63.6336C39.8845 64.5628 40.3123 65.3393 40.7704 66.1015L41.0804 66.6091C41.1234 66.6748 41.1435 66.72 41.18 66.7777C41.2567 66.8984 41.3094 66.9985 41.3764 67.1194C41.5049 67.35 41.6179 67.6002 41.7191 67.8608C41.9161 68.3663 42.0505 69.1416 41.9291 69.7384L38.9956 69.7373C39.094 69.7417 39.3057 69.6845 39.4413 69.6775C39.6137 69.6677 39.7371 69.6623 39.9025 69.634C40.174 69.5882 40.556 69.5577 40.8366 69.5446C40.8144 69.5045 40.7834 69.4913 40.7236 69.4604C40.3176 69.2477 39.981 69.2956 39.7768 69.1758C40.1817 69.1496 40.8138 69.1518 41.2588 69.1421L41.6245 69.1345C41.7225 69.1345 41.7137 69.1356 41.7245 69.1084C41.7072 69.0779 41.7398 69.0921 41.679 69.0849L38.791 69.0496C38.4805 69.0431 38.1071 69.024 37.8021 69.0392L38.8504 69.2591C38.9771 69.2847 39.1034 69.2864 39.1349 69.387C39.0093 69.5601 38.4255 69.5817 38.209 69.5947C37.9397 69.6121 37.6389 69.6154 37.3662 69.616C37.32 69.616 37.2733 69.6166 37.2264 69.616C37.0937 69.615 37.123 69.6056 37.104 69.6351C37.1241 69.6654 37.1067 69.6525 37.16 69.6589L38.0306 69.7629L36.1242 69.8003C35.9833 68.7199 36.1807 68.0431 36.6567 67.1401C36.8842 66.7086 37.2144 66.2184 37.4674 65.7691C37.9185 64.9692 38.1198 64.3012 37.6976 63.4427C37.6682 63.3817 37.6301 63.3262 37.6051 63.2692ZM40.4233 70.4195C40.4799 70.4043 40.6805 70.4043 40.7536 70.3989C41.471 70.3421 42.272 70.3085 42.9743 70.1563C43.0063 70.1491 43.026 70.1448 43.0498 70.1247C42.521 70.0875 41.8466 70.0757 41.2915 70.055L40.8584 70.0377C40.834 70.0372 40.8085 70.0377 40.7844 70.0366C40.7181 70.0338 40.7247 70.0274 40.7149 70.0114L40.7849 69.9973C41.23 69.9822 41.4613 69.9146 41.9683 69.9146C42.3589 69.9146 42.7507 69.9103 43.1402 69.9049C43.5293 69.8989 43.9215 69.8799 44.3066 69.8793C44.2674 69.9562 43.6827 70.3934 43.6342 70.4292L43.3672 70.6142C43.3175 70.6508 43.3241 70.6491 43.248 70.6442L41.5189 70.542C41.1545 70.5213 40.8301 70.4935 40.4732 70.4515C40.42 70.4456 40.4292 70.4521 40.4233 70.4195ZM33.8 69.9396C33.862 70.0071 34.5334 70.5555 34.6236 70.5632L37.3548 70.3912C37.8021 70.3662 38.2372 70.3107 38.6806 70.2705C38.5441 70.1741 38.3259 70.1779 38.1295 70.1649C37.1148 70.098 36.0502 70.0512 35.0322 70.0006C34.7102 69.9853 34.0813 69.9386 33.8 69.9396ZM39.9444 70.9172C39.9662 70.9015 39.9586 70.9081 39.9749 70.8886C40.143 70.689 40.3917 70.846 40.3786 71.1518C40.3633 71.5304 40.019 71.5104 39.9052 71.365C39.7839 71.2117 39.785 70.8204 39.8824 70.6339C39.9302 70.543 40.0076 70.4543 40.162 70.4706C40.2758 70.4831 40.3662 70.593 40.3662 70.7209H40.2481C40.2209 70.6704 40.224 70.6191 40.1834 70.5919C40.0608 70.5093 39.9444 70.6735 39.9444 70.9172ZM39.0762 70.8445C39.1599 70.7476 39.3764 70.7753 39.4374 70.8645C39.5103 70.9689 39.5235 71.1546 39.4673 71.2846C39.3302 71.6033 38.8879 71.4484 38.9303 71.1675L39.049 71.1669C39.0746 71.2738 39.0822 71.3536 39.2046 71.3542C39.4145 71.3553 39.3992 70.9652 39.2992 70.896C39.1866 70.8184 39.0968 70.9407 39.0654 70.9761L38.9613 70.9766L38.9923 70.4831L39.4778 70.4804V70.5838L39.1024 70.5849L39.0762 70.8445ZM37.2601 70.6284C37.3226 70.6241 37.3733 70.6187 37.4169 70.5892C37.4712 70.5517 37.4652 70.524 37.4984 70.4685L37.5528 70.4696L37.5583 71.4467L37.4342 71.4484L37.4299 70.6976L37.2646 70.6926L37.2601 70.6284ZM34.8566 70.7199C35.0556 70.7351 36.9272 70.9951 36.9816 71.0229C36.5877 71.0266 36.1589 71.0669 35.7652 71.098C35.5062 71.1176 35.554 71.118 35.2695 70.9679L34.8625 70.7265C34.861 70.7248 34.8581 70.7219 34.8566 70.7199ZM38.0773 71.2084L38.2014 71.2072C38.2422 71.4727 38.5049 71.3796 38.4973 70.9896C38.4543 71.029 38.445 71.0648 38.3798 71.0887C38.316 71.1126 38.2443 71.1028 38.1948 71.0756C38.0142 70.9788 38.0094 70.5735 38.2286 70.487C38.3733 70.4292 38.4973 70.5045 38.549 70.581C38.697 70.8014 38.6698 71.5309 38.2644 71.4548C38.1643 71.4364 38.0756 71.332 38.0773 71.2084Z" fill="#004097"/>
<path fill-rule="evenodd" clip-rule="evenodd" d="M126.07 71.302V70.6035L125.471 69.6419H125.858L126.244 70.2995L126.62 69.6419H127L126.401 70.6056V71.302H126.07ZM124.383 70.6926V70.4117H125.093V71.0742C125.023 71.1425 124.923 71.2024 124.792 71.2545C124.662 71.3064 124.529 71.3323 124.395 71.3323C124.224 71.3323 124.075 71.2959 123.948 71.2233C123.822 71.1499 123.726 71.0452 123.662 70.9095C123.598 70.774 123.566 70.6258 123.566 70.4663C123.566 70.2931 123.602 70.1395 123.673 70.0046C123.745 69.87 123.849 69.7668 123.986 69.6947C124.091 69.6397 124.221 69.6121 124.377 69.6121C124.58 69.6121 124.738 69.6553 124.852 69.7419C124.966 69.8288 125.039 69.9482 125.072 70.101L124.744 70.1637C124.721 70.0822 124.677 70.018 124.614 69.9703C124.551 69.923 124.472 69.8995 124.377 69.8995C124.233 69.8995 124.119 69.9458 124.034 70.0392C123.949 70.132 123.906 70.2698 123.906 70.4527C123.906 70.6501 123.949 70.7982 124.035 70.8969C124.121 70.9955 124.234 71.0448 124.374 71.0448C124.442 71.0448 124.511 71.0308 124.581 71.0031C124.651 70.9761 124.71 70.9422 124.759 70.9029V70.6926H124.383ZM121.877 70.4711C121.877 70.6591 121.92 70.8018 122.005 70.8991C122.091 70.9961 122.199 71.0448 122.332 71.0448C122.463 71.0448 122.571 70.9965 122.656 70.9001C122.74 70.8037 122.783 70.6591 122.783 70.4663C122.783 70.2758 122.741 70.1337 122.659 70.0404C122.577 69.9464 122.468 69.8995 122.332 69.8995C122.195 69.8995 122.085 69.947 122.002 70.0415C121.919 70.1368 121.877 70.2794 121.877 70.4711ZM121.537 70.4823C121.537 70.3129 121.562 70.1707 121.612 70.0559C121.649 69.9711 121.7 69.8945 121.764 69.8277C121.828 69.76 121.899 69.7101 121.975 69.6775C122.077 69.6337 122.194 69.6121 122.327 69.6121C122.568 69.6121 122.761 69.688 122.905 69.8398C123.05 69.9922 123.122 70.2035 123.122 70.4746C123.122 70.7431 123.05 70.9534 122.907 71.1046C122.764 71.2565 122.572 71.3323 122.332 71.3323C122.089 71.3323 121.896 71.2569 121.752 71.1058C121.609 70.9548 121.537 70.7471 121.537 70.4823ZM119.978 71.302V69.656H120.309V71.0218H121.127V71.302H119.978ZM118.222 70.4711C118.222 70.6591 118.265 70.8018 118.351 70.8991C118.436 70.9961 118.544 71.0448 118.676 71.0448C118.808 71.0448 118.916 70.9965 119.001 70.9001C119.085 70.8037 119.127 70.6591 119.127 70.4663C119.127 70.2758 119.087 70.1337 119.004 70.0404C118.922 69.9464 118.813 69.8995 118.676 69.8995C118.54 69.8995 118.43 69.947 118.347 70.0415C118.264 70.1368 118.222 70.2794 118.222 70.4711ZM117.882 70.4823C117.882 70.3129 117.907 70.1707 117.957 70.0559C117.994 69.9711 118.045 69.8945 118.109 69.8277C118.173 69.76 118.244 69.7101 118.32 69.6775C118.422 69.6337 118.539 69.6121 118.672 69.6121C118.913 69.6121 119.106 69.688 119.251 69.8398C119.395 69.9922 119.467 70.2035 119.467 70.4746C119.467 70.7431 119.396 70.9534 119.252 71.1046C119.109 71.2565 118.917 71.3323 118.677 71.3323C118.434 71.3323 118.241 71.2569 118.097 71.1058C117.954 70.9548 117.882 70.7471 117.882 70.4823ZM116.059 71.302V69.6419H116.38L117.052 70.7547V69.6419H117.358V71.302H117.027L116.365 70.2111V71.302H116.059ZM114.168 71.302V69.6419H114.499V70.2957H115.142V69.6419H115.473V71.302H115.142V70.5767H114.499V71.302H114.168ZM113.322 70.69L113.641 70.79C113.593 70.9728 113.511 71.1081 113.397 71.197C113.283 71.2856 113.138 71.3301 112.963 71.3301C112.746 71.3301 112.567 71.2545 112.428 71.1039C112.288 70.9534 112.218 70.7471 112.218 70.4856C112.218 70.2095 112.288 69.9944 112.429 69.8418C112.569 69.6887 112.754 69.6121 112.983 69.6121C113.183 69.6121 113.345 69.6724 113.469 69.7924C113.544 69.8634 113.6 69.9655 113.637 70.099L113.311 70.1776C113.291 70.0923 113.251 70.024 113.19 69.9741C113.128 69.9242 113.054 69.8995 112.966 69.8995C112.845 69.8995 112.747 69.9435 112.671 70.032C112.596 70.1202 112.558 70.263 112.558 70.4608C112.558 70.6703 112.595 70.8197 112.67 70.9087C112.744 70.9981 112.84 71.0426 112.959 71.0426C113.047 71.0426 113.123 71.0143 113.186 70.9574C113.249 70.9007 113.295 70.8119 113.322 70.69ZM109.22 71.302V69.9228H108.736V69.6419H110.032V69.9228H109.551V71.302H109.22ZM110.458 71.302V69.6419H111.667V69.9228H110.789V70.2913H111.606V70.5719H110.789V71.0218H111.699V71.302H110.458ZM106.231 69.9228V71.0218H106.476C106.568 71.0218 106.634 71.0163 106.675 71.0059C106.729 70.9921 106.773 70.969 106.808 70.9363C106.843 70.9041 106.872 70.8508 106.894 70.7766C106.916 70.7022 106.927 70.6008 106.927 70.4727C106.927 70.3441 106.916 70.246 106.894 70.1772C106.872 70.1086 106.84 70.0551 106.801 70.0164C106.761 69.9785 106.71 69.9518 106.649 69.9384C106.603 69.9279 106.513 69.9228 106.379 69.9228H106.231ZM105.901 69.6419H106.502C106.638 69.6419 106.741 69.6523 106.812 69.6738C106.908 69.7025 106.99 69.7534 107.058 69.8269C107.126 69.8997 107.178 69.9896 107.214 70.096C107.249 70.2014 107.267 70.3327 107.267 70.4879C107.267 70.625 107.251 70.7423 107.217 70.8412C107.176 70.9624 107.118 71.0598 107.042 71.1348C106.985 71.1912 106.908 71.2353 106.811 71.2668C106.739 71.2907 106.642 71.302 106.52 71.302H105.901V69.6419ZM104.01 71.302V69.6419H104.33L105.002 70.7547V69.6419H105.308V71.302H104.977L104.315 70.2111V71.302H104.01ZM102.985 70.6435L102.758 70.0292L102.538 70.6435H102.985ZM103.59 71.302H103.234L103.093 70.9244H102.438L102.302 71.302H101.952L102.586 69.6419H102.936L103.59 71.302ZM99.3544 71.302V69.6419H100.563V69.9228H99.685V70.2913H100.502V70.5719H99.685V71.0218H100.595V71.302H99.3544ZM98.5081 70.69L98.8276 70.79C98.7785 70.9728 98.6967 71.1081 98.5828 71.197C98.4687 71.2856 98.3242 71.3301 98.1492 71.3301C97.9319 71.3301 97.7535 71.2545 97.6135 71.1039C97.4746 70.9534 97.404 70.7471 97.404 70.4856C97.404 70.2095 97.4746 69.9944 97.6151 69.8418C97.7554 69.6887 97.9401 69.6121 98.1686 69.6121C98.3687 69.6121 98.5311 69.6724 98.656 69.7924C98.7303 69.8634 98.7859 69.9655 98.8232 70.099L98.4969 70.1776C98.4776 70.0923 98.4371 70.024 98.3759 69.9741C98.3146 69.9242 98.2399 69.8995 98.1522 69.8995C98.0311 69.8995 97.933 69.9435 97.8571 70.032C97.7819 70.1202 97.7442 70.263 97.7442 70.4608C97.7442 70.6703 97.7813 70.8197 97.8557 70.9087C97.93 70.9981 98.0267 71.0426 98.1455 71.0426C98.2333 71.0426 98.309 71.0143 98.3722 70.9574C98.4353 70.9007 98.4806 70.8119 98.5081 70.69ZM95.5723 71.302V69.6419H95.8926L96.5647 70.7547V69.6419H96.8704V71.302H96.5402L95.8784 70.2111V71.302H95.5723ZM93.8076 71.302V69.6419H95.0167V69.9228H94.1384V70.2913H94.9548V70.5719H94.1384V71.0218H95.0485V71.302H93.8076ZM92.9185 69.6419H93.2492V71.302H92.9185V69.6419ZM92.0837 70.69L92.4031 70.79C92.3541 70.9728 92.2724 71.1081 92.158 71.197C92.0444 71.2856 91.8998 71.3301 91.7243 71.3301C91.5071 71.3301 91.3286 71.2545 91.189 71.1039C91.0494 70.9534 90.9795 70.7471 90.9795 70.4856C90.9795 70.2095 91.0502 69.9944 91.1906 69.8418C91.3307 69.6887 91.5152 69.6121 91.7441 69.6121C91.944 69.6121 92.1065 69.6724 92.2312 69.7924C92.306 69.8634 92.3613 69.9655 92.3988 70.099L92.0722 70.1776C92.053 70.0923 92.0123 70.024 91.9515 69.9741C91.8898 69.9242 91.8155 69.8995 91.7278 69.8995C91.6067 69.8995 91.5078 69.9435 91.4329 70.032C91.357 70.1202 91.3195 70.263 91.3195 70.4608C91.3195 70.6703 91.357 70.8197 91.4309 70.9087C91.5056 70.9981 91.6022 71.0426 91.7211 71.0426C91.8088 71.0426 91.8846 71.0143 91.9478 70.9574C92.0109 70.9007 92.0562 70.8119 92.0837 70.69ZM89.1873 70.7643L89.509 70.732C89.5283 70.8412 89.567 70.921 89.6257 70.9728C89.6847 71.024 89.7642 71.0492 89.8641 71.0492C89.9697 71.0492 90.0499 71.0266 90.1034 70.9809C90.1568 70.9356 90.1837 70.882 90.1837 70.8212C90.1837 70.7819 90.1726 70.7483 90.1503 70.7208C90.1275 70.6934 90.0878 70.6693 90.0317 70.6491C89.9935 70.6353 89.9059 70.6111 89.7691 70.5767C89.593 70.5316 89.4697 70.4768 89.3983 70.4117C89.2989 70.3199 89.2487 70.2082 89.2487 70.0767C89.2487 69.9919 89.2723 69.9124 89.3188 69.8384C89.3663 69.7646 89.434 69.7087 89.5223 69.6703C89.6109 69.6312 89.7175 69.6121 89.8426 69.6121C90.0471 69.6121 90.2007 69.6579 90.3041 69.7504C90.4074 69.8426 90.4617 69.9655 90.4667 70.1198L90.1363 70.1313C90.1221 70.0454 90.0919 69.9841 90.0459 69.9466C89.9998 69.9095 89.9307 69.8901 89.8386 69.8901C89.7439 69.8901 89.6692 69.9102 89.6153 69.9503C89.5812 69.9763 89.5633 70.0104 89.5633 70.0539C89.5633 70.0937 89.5797 70.1272 89.6124 70.1549C89.6541 70.1911 89.7547 70.2281 89.9148 70.2664C90.0749 70.3048 90.1936 70.3448 90.2696 70.3857C90.3464 70.4274 90.4062 70.4835 90.4498 70.5548C90.4928 70.6266 90.5148 70.7141 90.5148 70.8189C90.5148 70.9141 90.4887 71.0031 90.4364 71.0863C90.3843 71.1697 90.3116 71.2314 90.2163 71.2714C90.1214 71.3123 90.0024 71.3323 89.8606 71.3323C89.6543 71.3323 89.4956 71.284 89.3851 71.1866C89.2746 71.09 89.2089 70.9494 89.1873 70.7643ZM86.5532 71.302V69.6419H87.6753V69.9228H86.884V70.3167H87.5682V70.5975H86.884V71.302H86.5532ZM84.8067 70.4711C84.8067 70.6591 84.8494 70.8018 84.9348 70.8991C85.0203 70.9961 85.1295 71.0448 85.2611 71.0448C85.3927 71.0448 85.5007 70.9965 85.5858 70.9001C85.6698 70.8037 85.7122 70.6591 85.7122 70.4663C85.7122 70.2758 85.671 70.1337 85.5888 70.0404C85.5063 69.9464 85.3975 69.8995 85.2611 69.8995C85.1247 69.8995 85.015 69.947 84.9318 70.0415C84.8488 70.1368 84.8067 70.2794 84.8067 70.4711ZM84.4666 70.4823C84.4666 70.3129 84.4921 70.1707 84.5413 70.0559C84.5786 69.9711 84.6294 69.8945 84.6937 69.8277C84.758 69.76 84.8282 69.7101 84.9044 69.6775C85.0066 69.6337 85.1243 69.6121 85.257 69.6121C85.4981 69.6121 85.6905 69.688 85.8355 69.8398C85.9795 69.9922 86.052 70.2035 86.052 70.4746C86.052 70.7431 85.9803 70.9534 85.8368 71.1046C85.6934 71.2565 85.5014 71.3323 85.2618 71.3323C85.0187 71.3323 84.8248 71.2569 84.682 71.1058C84.5389 70.9548 84.4666 70.7471 84.4666 70.4823ZM81.6863 71.302V69.6419H82.8952V69.9228H82.0169V70.2913H82.8335V70.5719H82.0169V71.0218H82.9272V71.302H81.6863ZM80.4162 71.302V69.9228H79.9328V69.6419H81.2285V69.9228H80.747V71.302H80.4162ZM78.1581 69.6419H78.4889V70.5418C78.4889 70.6844 78.4934 70.7768 78.5011 70.8189C78.5152 70.8871 78.5482 70.9418 78.6007 70.9832C78.6534 71.0244 78.7255 71.0448 78.8166 71.0448C78.9092 71.0448 78.979 71.0255 79.0261 70.9865C79.0732 70.9474 79.1015 70.8999 79.1107 70.8431C79.1205 70.7862 79.1253 70.6926 79.1253 70.5612V69.6419H79.4563V70.515C79.4563 70.7141 79.4473 70.8554 79.4295 70.9378C79.4117 71.0202 79.379 71.0893 79.3308 71.1466C79.2835 71.203 79.2196 71.2481 79.1398 71.2819C79.0594 71.3153 78.9555 71.3323 78.8266 71.3323C78.6708 71.3323 78.5531 71.3142 78.4732 71.2775C78.393 71.2405 78.329 71.1934 78.2823 71.1348C78.2356 71.0758 78.2053 71.0147 78.1905 70.95C78.1691 70.855 78.1581 70.7141 78.1581 70.5284V69.6419ZM76.8884 71.302V69.9228H76.405V69.6419H77.7004V69.9228H77.2189V71.302H76.8884ZM75.6325 69.6419H75.9633V71.302H75.6325V69.6419ZM74.3739 71.302V69.9228H73.8902V69.6419H75.1859V69.9228H74.7045V71.302H74.3739ZM72.155 70.7643L72.4769 70.732C72.4962 70.8412 72.5347 70.921 72.5935 70.9728C72.6525 71.024 72.7321 71.0492 72.8321 71.0492C72.9376 71.0492 73.0174 71.0266 73.0713 70.9809C73.1247 70.9356 73.1515 70.882 73.1515 70.8212C73.1515 70.7819 73.1404 70.7483 73.118 70.7208C73.0955 70.6934 73.0559 70.6693 72.9995 70.6491C72.9614 70.6353 72.8736 70.6111 72.7369 70.5767C72.5609 70.5316 72.4374 70.4768 72.3662 70.4117C72.2662 70.3199 72.2163 70.2082 72.2163 70.0767C72.2163 69.9919 72.2398 69.9124 72.287 69.8384C72.3342 69.7646 72.4017 69.7087 72.4902 69.6703C72.5786 69.6312 72.6853 69.6121 72.8105 69.6121C73.0147 69.6121 73.1686 69.6579 73.2719 69.7504C73.3752 69.8426 73.4295 69.9655 73.4346 70.1198L73.104 70.1313C73.0898 70.0454 73.0597 69.9841 73.0136 69.9466C72.9678 69.9095 72.8985 69.8901 72.8068 69.8901C72.7116 69.8901 72.637 69.9102 72.5834 69.9503C72.549 69.9763 72.531 70.0104 72.531 70.0539C72.531 70.0937 72.5475 70.1272 72.5801 70.1549C72.6217 70.1911 72.7223 70.2281 72.8826 70.2664C73.0428 70.3048 73.1611 70.3448 73.2373 70.3857C73.3143 70.4274 73.3742 70.4835 73.4175 70.5548C73.4606 70.6266 73.4826 70.7141 73.4826 70.8189C73.4826 70.9141 73.4566 71.0031 73.4045 71.0863C73.3522 71.1697 73.2794 71.2314 73.1842 71.2714C73.0891 71.3123 72.9702 71.3323 72.8283 71.3323C72.6221 71.3323 72.4635 71.284 72.3528 71.1866C72.2424 71.09 72.1766 70.9494 72.155 70.7643ZM70.3505 71.302V69.6419H70.6706L71.343 70.7547V69.6419H71.6483V71.302H71.318L70.6565 70.2111V71.302H70.3505ZM69.4616 69.6419H69.7926V71.302H69.4616V69.6419ZM66.9032 70.6926V70.4117H67.6124V71.0742C67.5437 71.1425 67.4434 71.2024 67.3123 71.2545C67.1816 71.3064 67.0488 71.3323 66.9144 71.3323C66.7434 71.3323 66.5948 71.2959 66.4678 71.2233C66.3415 71.1499 66.246 71.0452 66.1821 70.9095C66.1183 70.774 66.0861 70.6258 66.0861 70.4663C66.0861 70.2931 66.1222 70.1395 66.1933 70.0046C66.2646 69.87 66.3689 69.7668 66.506 69.6947C66.6111 69.6397 66.7408 69.6121 66.8969 69.6121C67.0993 69.6121 67.2581 69.6553 67.3721 69.7419C67.4858 69.8288 67.5593 69.9482 67.592 70.101L67.2632 70.1637C67.2406 70.0822 67.1976 70.018 67.1335 69.9703C67.0704 69.923 66.9917 69.8995 66.8965 69.8995C66.7528 69.8995 66.6383 69.9458 66.5536 70.0392C66.4685 70.132 66.4261 70.2698 66.4261 70.4527C66.4261 70.6501 66.4693 70.7982 66.5551 70.8969C66.6412 70.9955 66.7538 71.0448 66.8936 71.0448C66.9623 71.0448 67.0314 71.0308 67.101 71.0031C67.17 70.9761 67.2294 70.9422 67.2792 70.9029V70.6926H66.9032ZM64.2521 71.302V69.6419H64.5723L65.2447 70.7547V69.6419H65.5502V71.302H65.2199L64.5582 70.2111V71.302H64.2521ZM63.2281 70.6435L63.001 70.0292L62.7807 70.6435H63.2281ZM63.8325 71.302H63.4763L63.3354 70.9244H62.6804L62.5445 71.302H62.1949L62.8291 69.6419H63.1784L63.8325 71.302ZM61.2344 71.302V70.6035L60.6356 69.6419H61.0223L61.4084 70.2995L61.7843 69.6419H62.164L61.565 70.6056V71.302H61.2344ZM59.0589 70.4711C59.0589 70.6591 59.1018 70.8018 59.1873 70.8991C59.2728 70.9961 59.3817 71.0448 59.5136 71.0448C59.6451 71.0448 59.7533 70.9965 59.8383 70.9001C59.9223 70.8037 59.9646 70.6591 59.9646 70.4663C59.9646 70.2758 59.9237 70.1337 59.8409 70.0404C59.7588 69.9464 59.6495 69.8995 59.5136 69.8995C59.3772 69.8995 59.2673 69.947 59.184 70.0415C59.1008 70.1368 59.0589 70.2794 59.0589 70.4711ZM58.7193 70.4823C58.7193 70.3129 58.7442 70.1707 58.7943 70.0559C58.8306 69.9711 58.8819 69.8945 58.9462 69.8277C59.0106 69.76 59.0807 69.7101 59.1569 69.6775C59.259 69.6337 59.3765 69.6121 59.5094 69.6121C59.7507 69.6121 59.9431 69.688 60.0879 69.8398C60.2321 69.9922 60.3046 70.2035 60.3046 70.4746C60.3046 70.7431 60.2329 70.9534 60.0895 71.1046C59.946 71.2565 59.7539 71.3323 59.5142 71.3323C59.2714 71.3323 59.0775 71.2569 58.9344 71.1058C58.7909 70.9548 58.7193 70.7471 58.7193 70.4823ZM56.8966 69.6419H57.2273V70.5418C57.2273 70.6844 57.2317 70.7768 57.2394 70.8189C57.2536 70.8871 57.2866 70.9418 57.339 70.9832C57.3918 71.0244 57.4639 71.0448 57.5548 71.0448C57.6474 71.0448 57.7173 71.0255 57.7644 70.9865C57.8116 70.9474 57.8394 70.8999 57.8491 70.8431C57.8587 70.7862 57.8637 70.6926 57.8637 70.5612V69.6419H58.1947V70.515C58.1947 70.7141 58.1858 70.8554 58.168 70.9378C58.15 71.0202 58.1173 71.0893 58.0691 71.1466C58.022 71.203 57.9579 71.2481 57.8781 71.2819C57.7979 71.3153 57.6939 71.3323 57.565 71.3323C57.4092 71.3323 57.2919 71.3142 57.2116 71.2775C57.1315 71.2405 57.0674 71.1934 57.0205 71.1348C56.9742 71.0758 56.9439 71.0147 56.9289 70.95C56.9069 70.855 56.8966 70.7141 56.8966 70.5284V69.6419ZM55.2686 71.302V69.656H55.5993V71.0218H56.4183V71.302H55.2686Z" fill="#004097"/>
<path fill-rule="evenodd" clip-rule="evenodd" d="M58.5356 60.6273C58.8135 61.3193 59.1825 61.2443 59.7575 61.4857C59.4953 62.2107 57.9934 63.497 57.8921 63.6176C57.854 63.5449 57.8455 63.1901 57.643 62.9017L57.1407 62.4227C57.1712 61.7841 57.4094 61.1305 57.2753 60.537C57.115 59.8272 56.6883 59.8722 56.9223 58.9621C57.3812 58.8316 57.3839 58.7943 57.7587 59.0701C59.0996 60.0584 58.9716 58.4313 58.6315 57.849C58.3541 57.3744 57.9626 57.1874 57.284 57.1414C57.5559 58.2221 56.6469 58.3926 55.9116 59.0154C55.1128 59.6931 55.3542 63.9893 55.2952 65.536C55.25 66.7342 55.7486 67.761 56.9575 67.2386C57.302 66.332 56.9335 65.6249 57.4992 64.4764C57.5591 65.0522 57.4882 64.937 57.7304 65.2973C58.6287 65.1908 58.2483 64.4819 59.089 64.2557C59.2844 64.8929 59.0752 66.0744 60.2144 66.3154C60.2964 65.7046 60.015 65.0494 60.0966 64.6464C60.4578 64.0027 61.5301 63.6932 62.5179 63.7365C62.2847 64.4594 60.1236 64.8284 60.7637 66.3564C61.0253 66.9796 61.5199 66.9811 62.5503 66.9522C63.2766 65.9275 62.6894 66.4292 62.6362 65.4871C65.1569 64.4137 63.8253 63.9185 64.4648 63.7167C65.4884 63.7219 66.1251 63.9249 66.6328 63.2603C66.2395 61.7091 63.5066 62.2457 62.6248 61.8689C62.187 61.6814 61.7466 61.4612 61.5646 61.106C61.5864 61.0842 61.6232 61.0243 61.6352 61.047C61.6352 61.047 62.7972 60.3612 62.9085 59.8786C63.1555 58.8085 62.0351 58.7579 61.7394 58.6689L61.5358 58.5936C61.9116 57.778 63.4514 58.2303 62.9754 56.74C62.8698 56.4098 62.4787 55.9925 62.0503 55.9435C61.075 55.8335 61.7499 56.2733 61.25 56.8129C60.9727 57.1128 60.8051 56.942 60.0579 57.8958C59.6764 58.3838 58.9153 59.004 58.8444 59.4494C58.7315 60.1662 59.1189 59.9567 58.6685 60.4777C58.1626 61.0637 58.8425 60.0087 58.5356 60.6273ZM59.6479 60.6148C60.0901 60.2997 60.4292 60.1635 61.1175 59.998C61.0129 60.1492 61.0685 60.0806 60.9432 60.2177C60.9414 60.2196 60.7912 60.3634 60.759 60.3957C60.6461 60.5108 60.5499 60.6213 60.4319 60.7799L59.6479 60.6148ZM59.9021 63.2799C60.0546 61.7064 62.0577 62.0882 62.2231 62.9331C60.4693 63.0251 60.4798 63.2665 59.9021 63.2799Z" fill="#004097"/>
<path fill-rule="evenodd" clip-rule="evenodd" d="M73.2077 56.9667C73.3495 57.3112 73.321 57.1838 73.8821 57.5744L73.954 59.0477C73.2357 58.9361 73.5468 58.2932 72.8327 57.9991C72.5084 58.2959 72.1519 59.6252 72.0011 60.1492C71.8818 60.5652 72.0533 60.3992 72.0509 60.8028C71.4358 61.0203 71.3917 61.1926 70.7108 61.3676C71.0922 60.4648 72.6752 59.6493 71.5327 58.2691C71.09 57.7342 70.6671 57.655 69.8756 57.6269C69.2228 57.6029 68.1687 57.5052 67.5929 57.5512C68.4963 59.3425 71.833 56.749 70.497 59.7346C70.1146 59.6207 70.1655 59.4402 69.8713 59.3139C68.8938 60.2022 68.8183 61.7638 68.6856 62.7598C68.5377 63.8748 67.7606 65.4042 68.9518 66.1486C69.8397 65.7373 69.2385 63.0354 69.729 62.5332L70.0142 62.5176C70.1525 62.5263 69.9801 62.7111 70.5596 62.406L72.2485 61.6206C71.2922 62.5018 69.8862 62.5285 70.7218 63.7936C71.33 63.6129 71.5621 63.2104 72.3167 63.1395C71.7362 64.0008 71.2193 63.9332 71.1069 65.3273C72.1434 65.0937 72.5948 64.2395 73.1391 63.6379C73.1146 63.7871 72.308 65.5538 72.1227 65.9717C71.7861 66.7304 71.0895 67.5362 71.6478 68.5466C72.548 68.6487 72.1426 67.5933 73.057 65.9689C73.2956 66.0684 74.4498 67.608 75.4107 66.4171C75.8575 65.8631 75.9534 64.821 76.0607 64.458C76.2327 63.8755 76.1581 64.4368 76.4169 63.8361C76.427 63.0518 75.9029 62.5949 75.3738 62.3553C74.8431 62.1159 73.7697 62.1079 73.1689 62.1112C73.4676 61.7104 73.4214 61.9564 74.0119 61.9477C74.2593 60.4785 74.5575 60.8148 76.0267 60.7079C76.7934 60.6518 76.6615 60.4583 76.7223 60.3747C76.2026 59.8105 75.541 59.9643 74.5884 60.0925C74.645 59.3268 74.8782 58.276 74.839 57.5651C74.7657 56.2393 73.3795 56.8567 73.2077 56.9667ZM72.9607 60.4905C72.9838 60.1837 73.1196 59.8087 73.3782 59.5847L73.7781 59.8092C73.6067 60.133 73.3321 60.316 72.9607 60.4905ZM70.4279 61.4644C70.4504 61.4253 70.9365 61.3078 70.597 61.4487C70.597 61.4487 70.2852 61.7177 70.4279 61.4644ZM73.7338 64.6196C73.8416 64.2607 74.0359 64.3759 74.1793 64.0008C74.3755 63.4878 73.9886 63.144 74.2533 62.7156C74.9574 62.5577 75.2495 63.1805 74.95 64.0655C74.4267 65.6143 73.6449 65.1603 73.7167 64.6989C73.72 64.6776 73.7273 64.6409 73.7338 64.6196Z" fill="#004097"/>
<path fill-rule="evenodd" clip-rule="evenodd" d="M80.2231 58.3491C80.1015 59.1601 81.1961 59.3424 81.959 59.0679L81.3871 60.9881L80.5457 60.8692C80.6018 62.2148 81.5444 61.4146 80.7557 63.6508C80.3987 64.6635 79.7347 65.7588 80.8477 66.3795C81.4347 66.0694 81.4982 65.8911 81.9976 64.7633C82.2013 64.304 82.2197 64.3363 82.4548 63.9069L83.0172 62.992C83.6837 64.6081 83.5714 64.0411 85.0088 63.567C85.5532 63.3873 85.4804 63.2689 85.6838 63.8581C85.1248 64.3325 84.1524 64.1869 84.3326 65.7585C84.5383 67.5547 87.819 66.3211 87.8319 66.3118C87.8924 65.7515 87.9004 65.5791 87.5491 65.2954C87.3767 65.1574 87.3093 65.1389 87.0688 65.055L86.5351 64.8338C86.5145 64.8229 86.4769 64.8003 86.4526 64.7777C86.938 64.6145 87.079 64.2938 87.6568 64.0917C88.4837 63.8029 88.4275 63.9142 88.7503 63.1403C87.6342 61.7191 87.1261 62.5645 86.3328 62.0633C86.4425 61.2616 86.5971 61.9583 87.1414 61.3031C87.4772 60.8996 87.3721 60.8406 87.882 60.3632C88.0055 60.2481 88.1371 60.1431 88.2492 60.0076C88.4602 59.752 88.3846 59.727 88.5749 59.5054C88.9604 59.0554 89.1301 59.4203 89.3862 58.5934C89.1682 57.6171 88.0198 57.1357 86.8303 57.1735C85.8748 57.2039 84.3619 57.6526 84.0688 58.4008C85.3541 58.8422 84.9751 58.7029 85.8434 58.2027C86.3549 57.9082 87.9138 57.8046 87.8437 58.3506L87.5571 58.961C87.2845 59.3673 87.2683 59.4527 86.891 59.593C86.5397 58.7906 86.9879 58.4179 86.0544 58.3083C85.967 58.6675 85.9135 58.8632 85.8019 59.2089L84.8391 59.0684C84.889 60.2561 86.0057 59.7257 85.3947 60.6297C85.0484 60.5919 84.8972 60.6364 84.4862 59.6234C84.2515 59.0439 84.0694 58.643 83.6 58.4994C83.143 59.242 84.1252 60.7245 84.6443 61.2575C85.0607 61.6857 85.0925 61.5316 85.4538 61.8241C85.4533 62.5225 85.2459 62.3905 84.631 62.6318C84.0026 62.8787 84.1039 62.9405 83.1172 62.968C83.2391 62.5037 83.5981 61.9025 83.2406 61.3454C82.8878 61.5427 82.6965 62.1876 82.5514 62.5598C82.4082 62.3784 82.5108 62.5608 82.4206 62.2835C82.3939 62.2016 82.3643 62.0688 82.3465 61.9831C82.0466 60.5513 82.6362 58.7508 83.8511 58.0507C83.868 57.5632 83.8552 57.2224 83.3474 57.1427C82.6124 57.0271 82.955 57.3909 81.3836 58.052C80.8395 58.2812 80.4604 58.1943 80.2231 58.3491ZM86.4595 59.9091L86.8248 59.9385C86.6675 60.3246 86.6359 60.1265 86.3585 60.5411L86.4595 59.9091Z" fill="#004097"/>
<path fill-rule="evenodd" clip-rule="evenodd" d="M106.812 56.8189C106.241 56.605 106.041 56.1758 105.598 56.9041C105.582 56.9313 105.572 56.9631 105.555 56.9912L105.317 57.333C105.2 56.8296 105.096 56.724 104.625 56.541C104.521 57.1885 104.579 57.3771 104.768 58.0033C104.972 58.68 104.953 58.8919 105.735 58.9583L106.12 57.5644C106.48 57.5034 106.882 57.5726 107.201 57.7554C106.695 58.6929 105.776 59.4881 104.658 59.7175L104.4 58.8697C103.936 58.9763 104.059 58.9877 103.841 59.4522C103.539 60.0933 103.799 59.7319 103.248 60.0289C103.324 62.5231 101.531 63.2376 103.102 64.258C103.725 63.3997 103.35 61.3376 104.538 60.9277C104.932 61.3501 104.688 62.2347 105.709 62.16C106.469 62.1039 106.775 61.5505 107.424 61.3401L107.094 62.5683C106.384 62.9275 106 62.771 105.455 62.987C105.234 63.5749 105.468 64.21 105.862 64.4515C106.381 64.7693 107.059 64.4699 107.625 64.3663C107.632 64.7785 107.613 65.6382 107.372 65.9257C107.372 65.9257 107.448 66.1652 106.813 66.0271C106.461 65.9501 105.625 65.6603 105.433 65.3332C105.418 65.3084 105.403 65.2757 105.391 65.2494L105.312 64.756L104.771 65.5338C105.184 67.0542 107.91 67.8748 108.121 67.7743C108.509 67.3631 108.571 66.8378 108.599 66.1357C108.636 65.218 108.724 64.9154 108.853 64.1096C109.702 63.9236 110.461 63.8337 110.379 62.7852C110.291 61.6764 109.27 62.1375 108.436 62.1268C108.557 61.7758 108.67 61.6672 108.879 61.3806C109.183 60.9631 109.038 60.9689 109.572 60.7582C109.575 60.7569 112.448 60.3939 111.04 59.0238C110.861 58.8492 110.922 58.9096 110.672 58.7953C109.514 58.264 109.159 58.4976 108.046 58.4285C108.464 57.8158 109.333 57.0805 109.334 56.0311L108.329 55.2969C107.563 55.7547 107.388 56.131 106.812 56.8189ZM107.454 57.4721C108.202 56.1408 107.688 56.0504 108.4 55.6681C108.654 56.5015 107.845 57.0908 107.454 57.4721ZM105.351 61.0516C105.415 60.4528 105.235 60.6988 105.695 60.4574C106.089 60.2501 106.606 60.2187 106.792 60.1579L107.252 59.8713C107.785 59.4752 108.61 59.1536 109.309 59.5507C109.194 59.9258 109.148 59.8079 109.002 60.1916C107.776 60.1971 107.993 60.0308 107.054 60.5025C106.555 60.7527 105.921 60.9315 105.351 61.0516Z" fill="#004097"/>
<path fill-rule="evenodd" clip-rule="evenodd" d="M121.284 57.5163L118.414 58.9522C118.55 59.4557 119.083 59.8245 119.48 59.3738L120.149 60.3598C120.165 60.3864 120.191 60.4264 120.205 60.4633C119.492 60.7697 119.732 60.9223 118.748 61.7395C117.836 62.4969 117.86 62.0862 117.952 63.5458L118.834 63.2791C118.621 63.6982 117.204 64.8458 118.354 65.6429C118.639 65.7077 118.65 65.5314 119.152 65.0158C119.441 64.7195 120.169 63.3098 121.255 62.7358C121.272 64.3203 120.742 65.0071 121.881 65.8354C122.624 66.3752 124.109 66.1855 125.005 65.8418C125.875 65.5079 126.7 65.0177 126.916 64.0498C127.119 63.1413 126.923 63.2266 126.667 62.6019C126.311 61.7306 126.836 61.7104 126.013 61.2815C125.624 61.9643 125.581 64.8293 123.219 64.9988C122.062 65.0817 121.95 63.9926 122.264 62.9767L122.532 61.8568C122.543 61.8274 122.556 61.797 122.57 61.7694C122.755 61.4053 123.247 61.7284 122.776 60.6458L121.836 60.5854C122.406 60.0362 121.77 59.9026 122.75 59.6383C123.414 59.4587 123.67 59.4617 123.925 58.8826C124.448 57.695 122.808 57.6236 121.865 57.4679C122.806 56.6539 121.572 56.0882 120.53 56.1039C120.564 56.8184 120.645 56.9228 121.006 57.2592L121.284 57.5163ZM120.073 58.9522C120.651 58.4283 121.579 58.2101 122.518 58.3419C122.381 58.7114 122.153 58.8233 121.776 59.0246C121.05 59.4125 120.667 59.9202 120.073 58.9522Z" fill="#004097"/>
<path fill-rule="evenodd" clip-rule="evenodd" d="M94.2866 60.267C94.2972 61.0065 94.022 61.2152 93.6766 61.6667L92.5769 62.7817C92.6256 63.8655 92.8906 65.0404 93.8637 65.2834C93.8637 65.2834 98.0738 65.2619 98.5238 64.2378C98.6626 63.9216 98.4221 63.087 98.2737 62.7636C97.795 61.7229 96.1611 62.5582 95.155 62.5365C95.376 61.7458 96.3494 60.6712 96.9878 60.1902C97.3169 59.9418 97.6472 59.7424 97.7828 58.8072C97.8791 58.1438 97.429 57.6655 97.0087 57.4506C95.8136 56.8391 95.1283 58.271 93.9507 58.2469C92.0554 58.2088 93.4923 59.6863 94.2866 60.267Z" fill="#004097"/>
<path fill-rule="evenodd" clip-rule="evenodd" d="M114.124 57.5623C114.539 57.6214 115.261 57.6447 115.745 57.6563C116.576 57.6761 116.446 57.4481 117.062 57.2942C116.981 57.7457 116.854 58.0829 116.66 58.4448C116.259 59.1968 116.287 58.5665 115.761 59.2153C114.869 60.3153 114.912 62.4503 114.807 63.0602C114.687 63.7633 114.273 65.2306 114.557 65.8709C114.715 66.2288 115.186 66.4767 115.459 66.3864C116.364 66.0214 115.63 64.1189 116.296 61.6366C116.509 61.8826 116.61 62.1507 117.032 62.2737C117.188 61.807 117.193 60.2367 117.233 59.5451C117.324 57.9373 118.146 58.2432 118.469 57.5006C118.827 56.6801 117.414 56.3641 116.545 56.6405L114.712 57.1873C113.997 57.3588 114.329 57.1577 114.124 57.5623Z" fill="#004097"/>
</g>
<defs>
<filter id="filter0_d_266_251" x="0" y="0" width="154" height="157" filterUnits="userSpaceOnUse" color-interpolation-filters="sRGB">
<feFlood flood-opacity="0" result="BackgroundImageFix"/>
<feColorMatrix in="SourceAlpha" type="matrix" values="0 0 0 0 0 0 0 0 0 0 0 0 0 0 0 0 0 0 127 0" result="hardAlpha"/>
<feOffset dy="16"/>
<feGaussianBlur stdDeviation="6.5"/>
<feColorMatrix type="matrix" values="0 0 0 0 0 0 0 0 0 0 0 0 0 0 0 0 0 0 0.03 0"/>
<feBlend mode="normal" in2="BackgroundImageFix" result="effect1_dropShadow_266_251"/>
<feBlend mode="normal" in="SourceGraphic" in2="effect1_dropShadow_266_251" result="shape"/>
</filter>
</defs>
</svg>
