<svg width="154" height="157" viewBox="0 0 154 157" fill="none" xmlns="http://www.w3.org/2000/svg">
<g filter="url(#filter0_d_185_52)">
<rect width="128" height="128" transform="translate(13)" fill="white"/>
<path fill-rule="evenodd" clip-rule="evenodd" d="M68.9331 55.4433C68.9331 55.4433 68.3683 54.5963 67.9921 55.5376C67.6156 56.4788 67.647 56.7925 68.0861 57.6081C68.5254 58.4239 69.1528 57.9217 69.4978 57.2004C69.8429 56.4788 68.9331 55.4433 68.9331 55.4433ZM68.0547 58.8943C68.0547 58.8943 67.7096 58.7061 67.647 58.3296C67.5842 57.9532 66.7684 58.8316 66.7372 59.2395C66.7058 59.6473 66.8312 59.8669 67.1448 60.3375C67.4585 60.808 67.1134 61.1532 67.1134 61.1532C67.1134 61.1532 66.894 61.7179 67.8978 61.31C68.9019 60.9022 69.0587 59.9924 68.7134 59.5531C68.3683 59.1139 68.0547 58.8943 68.0547 58.8943ZM67.9921 62.0629C67.9921 62.0629 66.4233 64.3531 65.6391 65.0433C64.8547 65.7335 64.7921 66.4551 65.0115 67.4276C65.2312 68.4001 66.3293 68.5884 66.5803 67.3021C66.8312 66.0159 67.4899 64.9178 67.835 64.2904C68.1803 63.6629 68.6508 64.1335 68.6508 64.1335C68.6508 64.1335 69.5293 64.1335 69.9372 63.4747C70.3448 62.8159 70.3448 63.7884 70.1566 64.0394C69.9683 64.2904 69.3724 65.012 70.1254 65.012C70.8782 65.012 71.5372 64.1649 71.8508 63.1924L71.9448 62.3139C71.9448 62.3139 72.9489 61.0276 73.5762 60.5571L73.6076 61.6551C73.6076 61.6551 72.7607 62.7218 73.7017 62.91C74.6429 63.0982 75.0194 62.3453 75.3017 61.31H75.6156L75.6467 64.8237C75.6467 64.8237 77.0271 64.8237 77.3096 62.8159L77.2781 60.4316C77.2781 60.4316 78.094 59.8669 78.1566 59.3335C78.2194 58.8002 77.592 58.9571 77.592 58.9571C77.592 58.9571 77.3096 58.8316 77.3096 58.5179C77.3096 58.5179 76.9016 58.2668 76.5251 58.8002C76.1489 59.3335 75.9606 59.5218 75.6781 59.4277C75.3959 59.3335 75.741 58.9884 75.9921 58.863C76.2429 58.7376 76.5566 58.1414 76.9959 58.0788C77.435 58.016 77.6232 57.9532 77.6232 57.5452C77.6232 57.1376 77.5292 56.6668 76.6194 57.1376C75.7096 57.6081 75.4273 57.5452 75.1762 57.1062C74.9252 56.6668 74.3604 56.7611 74.2978 57.4512C74.2352 58.1414 74.1096 58.9571 74.1096 58.9571L72.9489 59.7727C72.9489 59.7727 72.1645 59.8983 72.541 59.5531C72.9175 59.2081 73.1997 59.0826 73.1997 59.0826L73.2626 58.6747C73.2626 58.6747 72.5724 58.0788 72.4156 57.5767C72.2587 57.0747 71.3489 56.8865 71.2547 57.8277C71.1607 58.769 71.1292 59.1767 70.6587 59.5218C70.188 59.8669 69.2156 60.3375 70.1254 60.6198C71.035 60.9022 70.4705 61.1532 70.1254 61.5296C69.7803 61.9061 68.6508 62.7532 68.3998 62.3767L67.9921 62.0629ZM87.5465 55.0156C87.5465 55.0156 87.1386 54.4822 86.8564 55.3292C86.5739 56.1762 86.9818 56.7098 86.8564 57.2431C86.7307 57.7762 87.9544 57.5882 88.3621 57.2743C88.77 56.9607 88.77 56.1451 88.2367 55.7057C87.7034 55.2667 87.5465 55.0156 87.5465 55.0156ZM85.6329 58.5292C85.1936 58.843 84.9217 59.4182 85.1307 59.9724C85.34 60.5266 85.5597 60.3383 85.6329 61.0704C85.6329 61.0704 86.2916 61.4783 86.8564 60.4744C87.4211 59.4705 86.417 58.9058 86.417 58.9058C86.417 58.9058 86.072 58.2156 85.6329 58.5292ZM87.7348 61.3215C87.7348 61.3215 87.7348 60.443 87.076 61.5724C86.417 62.7018 83.9072 65.243 82.5583 65.8076C81.2094 66.3724 82.7151 67.5018 82.7151 67.5018C82.7151 67.5018 83.3739 68.4116 84.2837 67.188C85.1936 65.9645 86.6367 64.1763 87.672 61.7292C87.7093 61.5465 87.7348 61.3215 87.7348 61.3215ZM90.8719 57.9647C90.8719 57.9647 89.9621 58.2784 90.4954 58.9371C91.0288 59.5959 91.0288 60.0351 91.7504 59.6901C92.4719 59.345 92.4719 59.5959 92.3151 59.9411C92.1583 60.2861 91.6878 60.945 91.7818 61.3528C91.7818 61.3528 92.9424 61.2587 93.2563 60.7567C93.57 60.2547 94.6367 59.2194 94.6993 58.5292C94.7621 57.8391 94.2602 56.9292 93.3503 57.1803C92.4405 57.4312 90.8719 57.9647 90.8719 57.9647ZM90.2132 62.0743C90.2132 62.0743 89.4602 62.4195 90.0878 63.0783C90.7151 63.7371 91.4993 63.9567 92.4091 63.392C93.3189 62.8273 93.5072 62.4195 93.5386 61.4155C93.5386 61.4155 93.0681 61.29 92.3779 61.541C91.6878 61.792 90.2132 62.0743 90.2132 62.0743ZM100.755 61.5238C100.034 61.4296 99.7513 61.1786 99.9081 62.4335C99.9081 62.4335 100.128 63.1866 101.571 63.5002C101.954 63.5835 102.295 63.4307 102.635 63.3456C102.975 63.2605 103.283 63.1176 103.537 62.9699C103.986 62.7093 104.3 62.5591 104.3 62.5591C104.3 62.5591 104.865 62.4335 104.771 62.7473C104.677 63.061 104.143 63.908 102.732 64.4414C101.32 64.9747 102.481 65.3511 102.983 65.2571C103.485 65.1629 105.43 64.9747 106.308 62.7787C107.186 60.5826 108.065 60.8335 108.065 60.8335C108.065 60.8335 109.696 60.0807 109.822 59.2022C109.947 58.3237 109.163 58.7631 108.818 58.9826C108.473 59.2022 107.783 59.4846 107.594 59.5787C107.594 59.5787 107.783 58.6688 108.065 58.1355C108.347 57.6022 108.692 56.1278 107.657 55.1238C106.622 54.1199 106.496 54.6533 106.245 55.6259C105.994 56.5983 106.465 57.5082 106.088 59.1081C105.712 60.7081 105.743 60.5199 104.708 60.8963C103.673 61.2728 102.274 61.7219 100.755 61.5238ZM109.32 63.1551C109.32 63.1551 108.347 62.5904 108.065 63.2179C107.783 63.8453 108.347 64.661 108.598 65.0375C108.849 65.4139 108.222 65.9472 108.912 65.9472C109.602 65.9472 110.638 65.6649 110.167 64.159C109.947 63.4688 109.32 63.1551 109.32 63.1551ZM116.684 58.5576C116.578 58.5769 115.994 58.7772 116.057 59.6242C116.119 60.4711 116.59 61.1614 116.966 61.0359C117.343 60.9104 117.657 60.5026 117.531 59.4673C117.482 59.2201 117.363 59.097 117.247 58.958C117.025 58.6927 116.79 58.5382 116.684 58.5576ZM117.908 55.8595C117.751 55.7967 117.218 55.7967 117.406 57.0202C117.594 58.2439 117.97 58.5262 118.002 59.4986C118.033 60.4712 118.943 60.0634 119.1 59.5928C119.257 59.1222 120.323 59.0908 120.323 59.0908C120.323 59.0908 121.264 58.9967 120.7 59.4046C120.135 59.8124 117.029 61.7888 117.029 61.7888C117.029 61.7888 115.743 62.5104 117.28 62.73C118.818 62.9496 120.104 61.7574 120.104 61.7574C120.104 61.7574 120.637 61.2555 120.417 62.0085C120.198 62.7614 118.629 63.4516 118.629 63.4516C118.629 63.4516 117.061 64.0477 116.025 64.2987C114.99 64.5496 115.335 64.4869 115.586 65.1143C115.837 65.7418 116.935 66.1496 117.719 65.5535C118.504 64.9575 120.135 64.4241 120.104 65.0829C120.072 65.7418 119.947 65.8986 118.943 66.2123C117.939 66.5261 118.41 66.7143 119.633 67.1221C120.857 67.5299 121.578 67.0594 121.578 66.2751C121.578 65.4908 121.61 64.0477 121.61 64.0477C121.61 64.0477 122.049 63.7025 122.331 63.5771C122.613 63.4516 122.833 62.0398 121.923 61.883C121.923 61.883 122.519 60.8163 123.9 60.3771C123.9 60.3771 124.433 60.2202 124.433 59.3732C124.433 58.5262 123.429 58.934 124.245 57.9928C125.06 57.0516 126.158 56.1106 124.904 54.9183C124.904 54.9183 124.778 54.636 123.774 54.5106C123.774 54.5106 124.747 53.13 123.429 52.6595C123.429 52.6595 123.178 52.4087 122.802 53.1929C122.425 53.977 122.174 53.9458 122.143 54.1653C122.111 54.3849 121.829 54.3849 121.39 54.1967C120.951 54.0084 120.198 54.1967 120.198 55.0437C120.198 55.0437 120.166 55.2948 120.512 55.5144C120.857 55.7339 121.076 55.8595 120.48 56.3928C119.884 56.9262 119.602 56.0792 119.57 57.2084C119.57 57.2084 120.261 57.7418 119.79 57.9928C119.319 58.2439 119.382 57.93 119.382 57.5849C119.382 57.93 118.968 56.2835 117.908 55.8595ZM123.21 56.4868C123.21 56.4868 122.457 55.9221 122.394 56.8319C122.394 56.8319 122.425 57.177 122.645 57.3655C122.864 57.5535 122.896 57.8674 122.958 57.3655C122.958 57.3655 123.116 57.1458 123.304 56.989C123.492 56.8319 123.21 56.4868 123.21 56.4868Z" fill="#004EA2"/>
<path fill-rule="evenodd" clip-rule="evenodd" d="M63.4292 75.6503V74.972L65.3861 72.5553H63.6503V71.9247H66.3774V72.5093L64.3364 75.0223H66.4565V75.6503H63.4292ZM67.2227 75.6503V71.9247H67.9755V73.3915H69.4494V71.9247H70.2014V75.6503H69.4494V74.0212H67.9755V75.6503H67.2227ZM71.2688 75.6503V71.9247H74.0306V72.5553H72.0208V73.3811H73.891V74.0083H72.0208V75.0223H74.1017V75.6503H71.2688ZM76.373 71.9247H77.1234V74.2832C77.1234 74.5911 77.0955 74.8288 77.0419 74.9945C76.9689 75.2113 76.8371 75.3857 76.6453 75.5167C76.4538 75.6485 76.2013 75.7136 75.8881 75.7136C75.5203 75.7136 75.2376 75.6112 75.039 75.4048C74.8413 75.1992 74.7404 74.8973 74.7397 74.4992L75.4483 74.4177C75.457 74.6311 75.4882 74.782 75.5421 74.8705C75.6235 75.0041 75.7475 75.0709 75.9134 75.0709C76.0808 75.0709 76.1996 75.0231 76.2691 74.9277C76.3383 74.8314 76.373 74.6328 76.373 74.3309V71.9247ZM78.1898 75.6503V71.9247H78.9419V75.6503H78.1898ZM83.3079 75.6503H82.4891L82.1638 74.8036H80.6744L80.3673 75.6503H79.5692L81.0206 71.9247H81.8159L83.3079 75.6503ZM81.9227 74.1765L81.4092 72.7938L80.9061 74.1765H81.9227ZM84.0031 75.6503V71.9247H84.7353L86.2602 74.4125V71.9247H86.9593V75.6503H86.2037L84.7022 73.2206V75.6503H84.0031ZM89.7771 74.2806V73.6526H91.3984V75.1368C91.2404 75.2894 91.0124 75.4239 90.7132 75.5402C90.4139 75.6555 90.1111 75.7136 89.8048 75.7136C89.4155 75.7136 89.0754 75.6321 88.7856 75.469C88.496 75.3051 88.2782 75.0717 88.1325 74.7672C87.9868 74.4627 87.9138 74.1323 87.9138 73.7748C87.9138 73.3871 87.9955 73.0419 88.1575 72.7409C88.3207 72.4391 88.5584 72.2074 88.8725 72.0469C89.1108 71.9229 89.4084 71.8613 89.7641 71.8613C90.2264 71.8613 90.5882 71.9585 90.8476 72.1519C91.1079 72.3462 91.2751 72.6143 91.3497 72.9569L90.6029 73.0965C90.55 72.9135 90.451 72.7687 90.3062 72.6628C90.1614 72.557 89.981 72.5041 89.7641 72.5041C89.4354 72.5041 89.1741 72.6082 88.98 72.8164C88.7856 73.0254 88.6894 73.3342 88.6894 73.7445C88.6894 74.1861 88.7875 74.5183 88.9842 74.7395C89.1803 74.9607 89.438 75.0709 89.7563 75.0709C89.9141 75.0709 90.0719 75.0396 90.2309 74.978C90.3886 74.9164 90.5249 74.8409 90.6385 74.7534V74.2806H89.7771ZM93.5331 71.9247H94.2852V73.9423C94.2852 74.2624 94.2946 74.4706 94.3128 74.5651C94.3449 74.7178 94.4222 74.8401 94.5429 74.9321C94.6643 75.0249 94.8298 75.0709 95.0398 75.0709C95.2531 75.0709 95.4147 75.0275 95.5231 74.9398C95.6315 74.8531 95.6964 74.7455 95.7182 74.6189C95.7408 74.4914 95.751 74.2806 95.751 73.9857V71.9247H96.5033V73.8816C96.5033 74.3292 96.4832 74.6449 96.4426 74.8297C96.4017 75.0144 96.3271 75.1697 96.2177 75.2972C96.1086 75.4239 95.9619 75.5253 95.7798 75.6009C95.5968 75.6763 95.3573 75.7136 95.0623 75.7136C94.7068 75.7136 94.437 75.6729 94.253 75.5904C94.0693 75.508 93.9243 75.4013 93.8175 75.2703C93.711 75.1394 93.6406 75.0014 93.6068 74.8574C93.5575 74.6441 93.5331 74.3292 93.5331 73.912V71.9247ZM97.5931 75.6503V71.9247H98.3251L99.8499 74.4125V71.9247H100.549V75.6503H99.7937L98.2922 73.2206V75.6503H97.5931ZM101.611 75.6503V71.9247H102.363V75.6503H101.611ZM104.319 75.6503L102.987 71.9247H103.804L104.746 74.6822L105.658 71.9247H106.456L105.122 75.6503H104.319ZM107.13 75.6503V71.9247H109.892V72.5553H107.882V73.3811H109.752V74.0083H107.882V75.0223H109.963V75.6503H107.13ZM110.892 75.6503V71.9247H112.476C112.874 71.9247 113.163 71.9585 113.343 72.0253C113.524 72.092 113.669 72.2109 113.777 72.3818C113.885 72.5536 113.939 72.7487 113.939 72.9691C113.939 73.2483 113.857 73.48 113.693 73.6621C113.529 73.8434 113.283 73.9588 112.956 74.0056C113.119 74.1011 113.253 74.2052 113.359 74.3188C113.465 74.4324 113.607 74.6337 113.787 74.9234L114.242 75.6503H113.343L112.799 74.8392C112.605 74.5495 112.473 74.3673 112.402 74.2919C112.331 74.2164 112.256 74.1653 112.176 74.1366C112.096 74.1088 111.97 74.095 111.797 74.095H111.645V75.6503H110.892ZM111.645 73.4999H112.201C112.562 73.4999 112.787 73.4852 112.878 73.4548C112.967 73.4244 113.037 73.3715 113.088 73.297C113.139 73.2224 113.165 73.1295 113.165 73.0176C113.165 72.8918 113.131 72.7913 113.064 72.714C112.997 72.6368 112.903 72.5882 112.781 72.5674C112.72 72.5596 112.537 72.5553 112.231 72.5553H111.645V73.4999ZM114.747 74.4385L115.479 74.3673C115.523 74.6128 115.612 74.7933 115.747 74.9086C115.882 75.0231 116.063 75.0812 116.292 75.0812C116.534 75.0812 116.717 75.0301 116.84 74.9277C116.963 74.8245 117.024 74.7048 117.024 74.5677C117.024 74.4793 116.998 74.4046 116.946 74.3431C116.895 74.2806 116.805 74.2268 116.676 74.1817C116.588 74.1505 116.387 74.0967 116.074 74.0186C115.67 73.9189 115.387 73.7957 115.225 73.65C114.996 73.4452 114.882 73.1954 114.882 72.9005C114.882 72.7106 114.936 72.5336 115.043 72.3679C115.151 72.2031 115.306 72.0773 115.508 71.9906C115.711 71.9047 115.955 71.8613 116.241 71.8613C116.709 71.8613 117.061 71.9637 117.298 72.1684C117.533 72.374 117.657 72.6472 117.67 72.9898L116.917 73.0228C116.886 72.8312 116.816 72.6932 116.71 72.6099C116.605 72.5258 116.446 72.4841 116.234 72.4841C116.015 72.4841 115.844 72.5284 115.72 72.6186C115.641 72.6758 115.601 72.7531 115.601 72.8494C115.601 72.9378 115.638 73.0133 115.713 73.0757C115.807 73.1555 116.038 73.2388 116.404 73.3247C116.77 73.4114 117.041 73.5007 117.216 73.5927C117.391 73.6855 117.528 73.8113 117.628 73.9718C117.727 74.1323 117.776 74.33 117.776 74.5651C117.776 74.7785 117.717 74.9789 117.598 75.1645C117.48 75.351 117.312 75.4898 117.095 75.58C116.879 75.6711 116.608 75.7162 116.284 75.7162C115.813 75.7162 115.452 75.6078 115.199 75.39C114.947 75.1723 114.796 74.8549 114.747 74.4385ZM118.675 75.6503V71.9247H119.427V75.6503H118.675ZM121.272 75.6503V72.5553H120.167V71.9247H123.127V72.5553H122.025V75.6503H121.272ZM124.88 75.6503V74.082L123.515 71.9247H124.397L125.275 73.3984L126.133 71.9247H127L125.63 74.0872V75.6503H124.88Z" fill="#004EA2"/>
<path d="M43.1701 48C52.0764 48 59.3402 55.2638 59.3402 64.1699C59.3402 73.0762 52.0764 80.34 43.1701 80.34C34.2641 80.34 27 73.0762 27 64.1699C27 55.2638 34.2641 48 43.1701 48ZM43.1701 48.6444C34.6189 48.6444 27.6444 55.6187 27.6444 64.1699C27.6444 72.7213 34.6189 79.6956 43.1701 79.6956C51.7216 79.6956 58.6961 72.7213 58.6961 64.1699C58.6961 55.6187 51.7216 48.6444 43.1701 48.6444Z" fill="#004EA2"/>
<path d="M37.4904 71.0616C36.478 70.2256 35.6515 69.1709 35.0842 67.9709C34.5382 66.8159 34.2327 65.5269 34.2327 64.1699C34.2327 59.2479 38.2475 55.2331 43.17 55.2331C48.0923 55.2331 52.1071 59.2479 52.1071 64.1699C52.1071 65.5269 51.8013 66.8161 51.2555 67.9709C50.6885 69.1709 49.862 70.2256 48.8494 71.0616L48.6444 70.8138C49.6211 70.007 50.4183 68.99 50.965 67.8338C51.4908 66.7214 51.7851 65.4792 51.7851 64.1697C51.7851 59.425 47.9152 55.5548 43.1702 55.5548C38.425 55.5548 34.5551 59.425 34.5551 64.1697C34.5551 65.479 34.8494 66.7214 35.3752 67.8338C35.9217 68.9898 36.7189 70.0067 37.6955 70.8138L37.4904 71.0616Z" fill="#004EA2"/>
<path fill-rule="evenodd" clip-rule="evenodd" d="M43.2243 72.4231L41.394 69.6304C41.9561 69.3411 41.8865 68.4389 41.405 68.3638C40.869 68.2798 40.4423 68.254 40.0663 67.4114H40.9381L40.6705 66.6805C39.6729 66.7681 39.4694 66.4909 38.9963 65.7117L40.2424 65.669L39.9905 65.0331C38.6326 65.096 38.2744 64.7631 37.9353 63.9894L39.5175 63.9339L39.175 63.1773C37.5547 63.2225 37.2118 63.1766 36.6176 62.0809L38.6303 62.0711L38.3465 61.3503C36.5119 61.4294 36.0538 61.2499 35.5344 60.3323L39.6581 60.2281C40.2591 60.2128 40.9452 60.6224 41.198 61.1675L41.6939 62.2374L42.2157 60.4366C42.4847 59.5089 44.5123 59.8452 45.1649 60.4626L43.9385 60.9062L44.5386 62.3675C44.9735 61.3498 45.5063 60.2276 46.6527 60.2276H50.698C50.3868 61.1214 49.6354 61.567 48.0021 61.2779L47.7151 62.0346L49.7324 62.0284C49.2496 63.154 48.7138 63.2955 47.2133 63.1248L46.9 63.8814L48.5059 63.9337C48.197 64.647 47.6377 65.0734 46.398 64.9251L46.137 65.6619L47.4157 65.656C47.0492 66.5523 46.8126 66.7524 45.6471 66.6999L45.3799 67.4305L46.301 67.434C45.9138 68.2141 45.799 68.3067 44.9726 68.38C44.4813 68.4236 44.2623 69.2101 44.9164 69.6763L43.2243 72.4231Z" fill="#004EA2"/>
<path fill-rule="evenodd" clip-rule="evenodd" d="M29.3231 69.5674L28.7134 67.9314L29.0465 67.8155L31.8412 68.2417L31.4136 67.0942L31.7468 66.9783L32.3049 68.4765L31.972 68.5927L29.1773 68.1671L29.656 69.4515L29.3231 69.5674Z" fill="#004EA2"/>
<path fill-rule="evenodd" clip-rule="evenodd" d="M30.3873 71.7986L30.2189 71.4716L31.5335 70.7955L31.1166 69.9848L29.8021 70.6607L29.6337 70.3341L32.4437 68.8889L32.6121 69.2158L31.4285 69.8242L31.8456 70.6351L33.0292 70.0263L33.1971 70.3535L30.3873 71.7986Z" fill="#004EA2"/>
<path fill-rule="evenodd" clip-rule="evenodd" d="M31.7202 73.5786L30.7219 72.1845L33.3573 70.5477L34.307 71.8739L34.0143 72.0558L33.2896 71.0438L32.4722 71.5515L33.1381 72.4811L32.8455 72.663L32.1797 71.7331L31.2394 72.3173L32.0129 73.3972L31.7202 73.5786Z" fill="#004EA2"/>
<path fill-rule="evenodd" clip-rule="evenodd" d="M33.9597 75.7701L33.6252 75.4878L35.5649 73.1047L35.8997 73.3872L33.9597 75.7701Z" fill="#004EA2"/>
<path fill-rule="evenodd" clip-rule="evenodd" d="M35.462 76.8199L35.8594 75.9749L35.3778 75.6261L34.6606 76.3243L34.3332 76.0712L36.607 73.8244L37.0631 74.1025L35.8519 77.0394L35.462 76.8199ZM36.0429 75.5617L36.5171 74.4728L36.4732 74.437L35.6534 75.271L36.0429 75.5617Z" fill="#004EA2"/>
<path fill-rule="evenodd" clip-rule="evenodd" d="M37.7413 77.9216L37.3306 77.7306L37.5702 75.538L36.6721 77.3812L36.2623 77.1927L37.6875 74.3704L38.0576 74.542L37.8855 76.625L38.8119 74.905L39.1567 75.0483L37.7413 77.9216Z" fill="#004EA2"/>
<path fill-rule="evenodd" clip-rule="evenodd" d="M39.8634 78.5545L39.5985 78.4681L39.6229 78.2198C39.5611 78.273 39.4787 78.307 39.3765 78.3222C39.274 78.338 39.1716 78.3286 39.0675 78.2949C38.8485 78.2237 38.6867 78.0519 38.5822 77.7794C38.4772 77.507 38.498 77.1321 38.6449 76.6547C38.8058 76.1336 39.0034 75.7705 39.2384 75.5661C39.473 75.3623 39.8299 75.2484 40.1454 75.3495C40.4852 75.4579 40.7056 75.8757 40.608 76.4539L40.2023 76.4206C40.2723 76.173 40.2367 75.7867 39.9948 75.708C39.7988 75.6443 39.5791 75.7046 39.4395 75.8607C39.2996 76.017 39.1636 76.3111 39.0301 76.7442C38.9037 77.1547 38.8686 77.4543 38.9245 77.6436C38.9804 77.833 39.0767 77.9496 39.2115 77.9937C39.3468 78.0377 39.4696 78.0199 39.5802 77.9396C39.6905 77.86 39.7804 77.7084 39.8486 77.4871L39.9052 77.3039L39.4214 77.1462L39.5189 76.8302L40.3148 77.0899L39.8634 78.5545Z" fill="#004EA2"/>
<path fill-rule="evenodd" clip-rule="evenodd" d="M44.0671 77.8583C44.0579 78.1428 43.9817 78.3657 43.8393 78.5268C43.6967 78.6879 43.4768 78.7623 43.1799 78.7511C42.8833 78.74 42.6685 78.6491 42.5369 78.4778C42.4052 78.3062 42.3434 78.0782 42.3527 77.7937L42.4223 75.6408L42.8016 75.655L42.732 77.8079C42.7254 78.0096 42.7648 78.1595 42.8497 78.2576C42.9346 78.3559 43.0485 78.408 43.1911 78.4137C43.3339 78.4187 43.4507 78.3753 43.5418 78.2838C43.6326 78.1923 43.6817 78.0461 43.6883 77.8441L43.7581 75.6913L44.1371 75.7054L44.0671 77.8583Z" fill="#004EA2"/>
<path fill-rule="evenodd" clip-rule="evenodd" d="M46.2242 78.4331L45.886 78.4842L44.82 76.4297L44.9829 78.6355L44.5811 78.693L44.3451 75.6L44.8077 75.5571L45.6868 76.9983L45.5237 75.4472L45.8593 75.3897L46.2242 78.4331Z" fill="#004EA2"/>
<path fill-rule="evenodd" clip-rule="evenodd" d="M47.3796 78.1091L46.983 78.2294L46.1586 75.3019L46.5552 75.1816L47.3796 78.1091Z" fill="#004EA2"/>
<path fill-rule="evenodd" clip-rule="evenodd" d="M48.4494 74.3992L48.9507 77.6313L48.5596 77.8241L46.8475 75.0807L47.2243 74.9221L48.4142 76.7928L48.0843 74.558L48.4494 74.3992Z" fill="#004EA2"/>
<path fill-rule="evenodd" clip-rule="evenodd" d="M51.629 76.2312L50.1842 77.0123L48.6111 74.3111L49.9852 73.5686L50.16 73.8684L49.1115 74.435L49.5994 75.2727L50.5625 74.7522L50.7373 75.052L49.7737 75.5727L50.335 76.5363L51.4545 75.9314L51.629 76.2312Z" fill="#004EA2"/>
<path fill-rule="evenodd" clip-rule="evenodd" d="M53.275 75.0771L52.9572 75.3486L51.8375 74.4211L51.5479 74.6833L52.3046 75.7124L51.987 76.0451L50.1337 73.4434L50.7244 73.0203C50.9134 72.8848 51.1616 72.788 51.3852 72.8147C51.9623 72.8834 52.209 73.2722 52.1825 73.7242C52.1743 73.8669 52.1661 74.0058 52.1102 74.1473L53.275 75.0771ZM51.278 73.2444C51.0427 73.1803 50.8575 73.3621 50.6882 73.4945L51.304 74.3077C51.4923 74.1722 51.5799 74.1427 51.7223 73.8972C51.7839 73.6019 51.652 73.3466 51.278 73.2444Z" fill="#004EA2"/>
<path fill-rule="evenodd" clip-rule="evenodd" d="M54.2747 72.565C54.9207 72.9531 54.7701 74.0543 53.921 74.183C53.6926 74.2175 53.4241 74.1486 53.3086 74.0755L53.4537 73.746C53.5936 73.7773 53.7353 73.8277 53.8695 73.8024C54.4196 73.6977 54.3954 73.1261 54.0746 72.8892C53.9628 72.8066 53.8028 72.7961 53.6705 72.8107C53.2992 72.8523 53.0615 73.1293 52.6485 73.1551C52.1969 73.1836 51.8825 72.9082 51.8088 72.4687C51.7698 72.2357 51.8254 72.0098 51.9411 71.8284C52.18 71.4544 52.687 71.4038 53.0565 71.6217L52.9127 71.9615C52.7131 71.8554 52.3585 71.8558 52.225 72.0646C52.1554 72.1739 52.1312 72.2857 52.1522 72.3996C52.1985 72.6476 52.3681 72.7916 52.607 72.7628C53.0079 72.714 53.2789 72.3843 53.6735 72.3971C53.8615 72.4034 54.0844 72.4507 54.2747 72.565Z" fill="#004EA2"/>
<path fill-rule="evenodd" clip-rule="evenodd" d="M55.6373 72.1637L55.4045 72.4491L52.741 70.7791L52.9737 70.4937L55.6373 72.1637Z" fill="#004EA2"/>
<path fill-rule="evenodd" clip-rule="evenodd" d="M54.2928 68.7946L53.998 69.3409L56.5137 70.8202L56.3441 71.1344L53.8287 69.6549L53.5339 70.2011L53.2197 70.0163L53.9786 68.6098L54.2928 68.7946Z" fill="#004EA2"/>
<path fill-rule="evenodd" clip-rule="evenodd" d="M54.7544 66.7166L56.2887 68.0879L57.3132 68.5265L57.1884 68.8719L56.2392 68.5046L54.0539 68.4539L54.1588 68.1039L55.6838 68.1285L54.604 67.135L54.7544 66.7166Z" fill="#004EA2"/>
<path fill-rule="evenodd" clip-rule="evenodd" d="M33.7247 74.3938C33.4534 74.664 33.1999 74.8036 32.9649 74.8114C32.7298 74.8194 32.5172 74.7261 32.3257 74.531C32.1514 74.3537 32.0652 74.1469 32.0672 73.9105C32.0681 73.7908 32.103 73.6675 32.1713 73.5409L32.5167 73.752C32.4873 73.812 32.4718 73.869 32.4704 73.9236C32.467 74.0522 32.5067 74.1595 32.5895 74.2441C32.7061 74.3628 32.8284 74.4162 32.9564 74.4055C33.0847 74.3947 33.2405 74.2982 33.4246 74.1152L34.9605 72.5946L35.2471 72.8865L33.7247 74.3938Z" fill="#004EA2"/>
<path fill-rule="evenodd" clip-rule="evenodd" d="M38.9507 73.8613L37.8739 73.1932L37.9716 73.0241L38.3714 73.2726L39.0119 72.1577L38.6116 71.9092L38.6988 71.758C38.8503 71.8517 38.9708 71.9051 39.0612 71.9165C39.1508 71.9279 39.2266 71.8926 39.2877 71.8079L39.5173 71.9499L38.6571 73.4488L39.0479 73.6911L38.9507 73.8613ZM42.1616 73.1807C42.1788 73.0951 42.1491 73.0177 42.0722 72.9477C41.9944 72.8788 41.8771 72.8329 41.7194 72.811C41.5748 72.7912 41.4522 72.8005 41.3498 72.8391C41.2469 72.8767 41.1869 72.9392 41.1691 73.0269C41.1561 73.0905 41.1691 73.1469 41.2072 73.1971C41.2448 73.2473 41.3073 73.2963 41.3941 73.3443C41.4326 73.3641 41.4906 73.3935 41.57 73.431C41.6487 73.4675 41.7208 73.499 41.7872 73.5227C41.9141 73.4821 42.0037 73.433 42.0576 73.3799C42.111 73.3246 42.1459 73.258 42.1616 73.1807ZM42.0218 74.1452C42.038 74.0658 42.0266 74.0012 41.9889 73.948C41.9499 73.8949 41.8678 73.8353 41.7411 73.7684C41.6994 73.7465 41.643 73.7205 41.5725 73.6913C41.5015 73.6619 41.4217 73.6277 41.3329 73.5891C41.214 73.6215 41.118 73.6674 41.0459 73.7278C40.9733 73.7883 40.9283 73.8636 40.9108 73.9512C40.8873 74.0671 40.9222 74.1682 41.0146 74.2593C41.107 74.3492 41.2348 74.4067 41.3977 74.4283C41.5643 74.4523 41.7041 74.4377 41.8173 74.3875C41.9314 74.3364 41.9994 74.2558 42.0218 74.1452ZM41.3544 74.6191C41.2076 74.5981 41.0767 74.5659 40.9619 74.521C40.8471 74.476 40.7531 74.4217 40.6789 74.356C40.6064 74.2935 40.5557 74.2243 40.527 74.1472C40.4982 74.071 40.4921 73.9937 40.5076 73.9142C40.529 73.8109 40.5906 73.7221 40.694 73.647C40.7967 73.572 40.9345 73.5206 41.1077 73.4914L41.1093 73.4841C40.9747 73.4091 40.8793 73.3349 40.8218 73.2598C40.7654 73.1848 40.7467 73.099 40.7666 73.002C40.7958 72.8569 40.9044 72.7494 41.0913 72.6773C41.2791 72.6043 41.502 72.5865 41.7598 72.6221C42.0293 72.6595 42.2353 72.7348 42.3784 72.8496C42.5219 72.9623 42.5792 73.0907 42.5507 73.2315C42.5334 73.3173 42.4777 73.3967 42.3832 73.4695C42.2881 73.5425 42.1635 73.5927 42.0079 73.6188L42.0067 73.6272C42.168 73.7034 42.286 73.7846 42.3595 73.8713C42.4336 73.9581 42.4581 74.0603 42.4341 74.1762C42.4008 74.34 42.2817 74.4644 42.0756 74.5488C41.8698 74.6337 41.6293 74.6579 41.3544 74.6191ZM45.0791 73.4385C45.0791 73.3071 45.0609 73.1994 45.0251 73.117C44.9886 73.0346 44.9384 72.9707 44.8742 72.926C44.8179 72.884 44.7599 72.8548 44.7015 72.8393C44.6429 72.8247 44.5787 72.8162 44.5082 72.8162C44.3485 72.8162 44.2212 72.8548 44.1267 72.931C44.0311 73.0072 43.9841 73.1168 43.9841 73.2619C43.9841 73.3443 43.9992 73.41 44.0307 73.4634C44.0619 73.5165 44.1123 73.5626 44.1835 73.6003C44.2321 73.6263 44.2885 73.645 44.3506 73.6546C44.4124 73.6639 44.4797 73.6683 44.5509 73.6683C44.6337 73.6683 44.7243 73.6578 44.8197 73.6388C44.9164 73.619 44.9997 73.593 45.0714 73.5617C45.073 73.548 45.0753 73.5314 45.0766 73.5095C45.0787 73.4887 45.0791 73.4656 45.0791 73.4385ZM43.5887 73.2726C43.5887 73.1724 43.6131 73.0816 43.661 73.0002C43.7103 72.9169 43.7765 72.8457 43.8616 72.7861C43.9414 72.7286 44.04 72.685 44.1571 72.6524C44.2734 72.62 44.3907 72.6045 44.511 72.6045C44.6445 72.6045 44.7656 72.6191 44.8738 72.6492C44.9824 72.6787 45.0762 72.7222 45.1554 72.7786C45.2555 72.8498 45.3329 72.9427 45.3883 73.0574C45.4431 73.1733 45.4712 73.3185 45.4712 73.4949C45.4712 73.6546 45.4442 73.807 45.3899 73.9498C45.3363 74.0941 45.2573 74.2129 45.1519 74.3067C45.0403 74.4069 44.9062 74.4842 44.7494 74.5365C44.5924 74.5897 44.3992 74.6159 44.1689 74.6159C44.1174 74.6159 44.0619 74.6148 44.0035 74.6109C43.9451 74.6065 43.8903 74.5992 43.8394 74.5887V74.3403H43.8593C43.8919 74.353 43.9424 74.3654 44.0117 74.3759C44.0802 74.3873 44.1505 74.3925 44.2216 74.3925C44.4763 74.3925 44.6766 74.3371 44.822 74.2255C44.9676 74.1128 45.0499 73.953 45.0693 73.7454C44.9655 73.7924 44.8667 73.8269 44.7727 73.8488C44.6778 73.8707 44.5756 73.8812 44.4653 73.8812C44.3572 73.8812 44.2598 73.8729 44.171 73.8572C44.0827 73.8417 43.9935 73.8113 43.9042 73.7666C43.7997 73.7134 43.7215 73.6466 43.6683 73.566C43.6151 73.4844 43.5887 73.3874 43.5887 73.2726ZM47.81 71.6181L47.739 73.614L47.433 73.8072L47.4602 71.92L46.2942 72.4856L46.1915 72.2613L47.6576 71.5003L47.81 71.6181Z" fill="#004EA2"/>
<path fill-rule="evenodd" clip-rule="evenodd" d="M49.2761 56.3541C49.0607 56.2094 49.2305 56.1909 49.2738 55.9744C49.311 55.7884 49.2216 55.555 49.2777 55.4281C49.4294 55.0861 49.8664 55.2855 50.0918 55.5039C50.132 55.5427 50.1596 55.6383 50.1806 55.7298C50.2326 55.9575 50.2751 56.2747 50.0047 56.3945C49.7715 56.4981 49.4634 56.48 49.2761 56.3541Z" fill="#004EA2"/>
<path fill-rule="evenodd" clip-rule="evenodd" d="M46.738 54.9216C46.7316 54.9154 46.725 54.909 46.7186 54.9029C46.7309 54.8773 46.743 54.8515 46.7542 54.8299C46.8388 54.8312 47.6475 54.6681 47.6532 54.6503C47.8996 54.5766 48.133 54.4775 48.282 54.2592C47.762 54.2256 47.193 54.3872 46.7026 54.2325C46.5034 54.0896 46.4003 53.9096 46.2723 53.7809C46.2761 53.7695 46.2782 53.7617 46.2807 53.7542C46.095 53.4893 46.1561 53.2684 46.4701 53.2874C46.9068 53.5854 47.7773 53.5358 48.2971 53.5441C48.4162 53.5395 48.7494 53.552 48.8653 53.4918C49.224 52.9017 49.4079 52.2396 49.6867 51.6495C50.016 51.2735 50.1937 51.7063 50.353 52.0071C50.3733 52.0454 50.4032 52.1157 50.4249 52.2195C50.4326 52.222 50.4926 52.5524 50.2464 52.6517C50.0078 52.9008 49.8184 53.2075 49.6958 53.5562C50.0438 53.6406 50.358 53.4325 50.7416 53.5787C50.7628 53.7919 50.6914 53.9377 50.4639 54.0178C50.1328 54.0397 49.7837 54.0388 49.4118 54.0563C49.2105 54.3463 48.9273 54.6868 48.599 54.8568C48.5511 54.8816 48.3279 54.9679 48.2795 54.9752C48.0279 55.0124 47.7867 55.0838 47.5377 55.0567C46.8511 54.9818 46.855 54.9501 46.738 54.9216Z" fill="#004EA2"/>
<path fill-rule="evenodd" clip-rule="evenodd" d="M38.6436 56.039C38.3604 55.9881 38.0515 55.7433 37.8655 55.5888C37.8707 55.5151 37.8762 55.4414 37.8867 55.3704C38.3652 54.769 38.8464 54.2006 39.2464 53.5277C39.3441 53.2335 39.4888 52.9152 39.5992 52.6209C39.6056 52.6147 39.6209 52.5841 39.6184 52.5766C39.7398 52.4183 39.7957 52.3703 39.9755 52.531C40.0282 52.6912 39.7662 52.9383 39.7293 53.1192C39.6649 53.4364 39.4951 54.2352 39.377 54.5392C39.3014 54.7331 38.9786 55.8104 38.7823 55.9849C38.7326 56.0011 38.6878 56.0201 38.6436 56.039Z" fill="#004EA2"/>
<path fill-rule="evenodd" clip-rule="evenodd" d="M41.6118 53.0325C41.2408 53.1126 41.0751 52.9048 40.8191 52.7437C40.7876 52.6483 40.8312 52.5748 40.8211 52.5061C40.9076 52.4609 41.1609 52.3437 41.325 52.2898C41.5235 52.1864 41.9673 51.6724 42.1904 51.7851C42.3349 52.2241 41.9671 52.8016 41.6118 53.0325Z" fill="#004EA2"/>
<path fill-rule="evenodd" clip-rule="evenodd" d="M38.6079 53.0656C38.4354 52.9784 38.2599 52.4192 38.202 52.2435C38.2236 51.898 38.539 51.8026 38.8584 51.9386C39.1434 52.162 39.3171 52.24 39.1809 52.6231C38.9869 52.907 38.8787 52.951 38.6079 53.0656Z" fill="#004EA2"/>
<path fill-rule="evenodd" clip-rule="evenodd" d="M41.256 52.0801C41.1727 51.9172 41.3141 51.4859 41.2229 51.4145C41.1375 51.451 41.0549 51.5078 40.9632 51.5379C40.7145 51.4886 40.4017 51.283 40.4354 51.0519C40.5507 50.8237 40.4995 50.8869 40.7515 50.8043C40.9655 50.6323 41.1807 50.4643 41.3999 50.295C41.7917 50.1109 42.04 50.2873 42.1705 50.6841C42.1657 50.9645 42.0452 51.2157 41.9286 51.4656C41.7413 51.6415 41.5779 51.8261 41.4134 52.0071C41.3577 52.0296 41.3068 52.0547 41.256 52.0801Z" fill="#004EA2"/>
<path fill-rule="evenodd" clip-rule="evenodd" d="M38.6976 51.5012C38.5911 51.4476 38.6169 51.397 38.6424 51.308C38.5872 51.1403 38.4491 51.0291 38.3964 50.8687C38.3734 50.555 38.2876 50.4607 38.498 50.252C38.7125 50.2871 39.4739 50.4553 39.4125 50.8728C39.2895 51.1542 38.9559 51.3992 38.6976 51.5012Z" fill="#004EA2"/>
<path fill-rule="evenodd" clip-rule="evenodd" d="M33.5184 62.8059C33.1935 63.0494 32.5464 62.8944 32.4455 62.4554C32.3743 62.1453 31.9807 61.2718 31.8126 60.8004C31.7279 60.6535 31.6296 60.5403 31.6841 60.3735C31.7932 60.3413 31.9219 60.4575 32.0193 60.5471C32.0683 60.533 32.1443 60.4112 32.1384 60.3286C32.114 59.9847 32.1012 59.6084 32.0396 59.2684C31.9504 59.197 31.8614 59.1254 31.7776 59.0523C31.7195 59.2267 31.5228 59.7964 31.3176 59.5016C31.3619 59.2693 31.3792 58.8855 31.2417 58.6597C31.0682 58.4828 30.8243 58.368 30.7431 58.1727C30.7657 57.8968 31.1853 57.8147 31.4372 57.9153C31.6382 57.9242 31.6191 57.548 31.8705 58.1609C31.8794 58.2617 31.9798 58.321 32.093 58.3737C32.1099 58.3509 32.127 58.3281 32.1441 58.3053C32.1284 58.0406 32.1117 57.7524 32.1236 57.4708C31.8662 57.2297 31.6503 57.0295 31.492 56.7329C31.4808 56.4431 31.8034 56.2624 32.0857 56.1647C32.1722 56.0062 32.1681 55.8711 32.1537 55.6712C32.1703 55.6071 32.1703 55.6071 32.2351 55.5051C32.3339 55.5085 32.4172 55.5402 32.53 55.6018C32.7677 55.8871 32.3271 56.8043 32.7782 56.858C32.8629 56.7028 32.7317 56.549 32.657 56.4258C32.6739 56.2019 33.008 55.908 33.2467 55.814C33.606 55.7677 33.5917 55.9703 33.6056 56.2797C33.6241 56.322 33.6421 56.3637 33.6624 56.4023C34.1311 56.7174 34.1311 56.7174 34.7816 57.1181C34.9838 57.2922 35.0057 57.5806 35.0262 57.6678C35.0392 57.723 35.1335 58.1335 34.9219 58.1691C34.3892 57.8373 33.858 57.4608 33.3404 57.1601C33.3347 57.1706 33.3325 57.1831 33.332 57.192C33.5657 57.3928 33.8888 57.9578 33.9095 58.2804C33.7941 58.4919 33.5679 58.5882 33.3576 58.5376C33.3181 58.484 33.3306 58.436 33.3204 58.371C33.1572 58.1081 32.702 57.869 32.4699 57.7241C32.3898 57.9046 32.5888 58.4203 32.6513 58.6327C32.6648 58.7591 32.6783 58.8851 32.6936 59.0081C32.8542 59.192 33.0189 59.3595 33.1974 59.5438C33.2638 59.6486 33.3336 59.7554 33.4034 59.8622C33.3977 59.8729 33.3938 59.8797 33.39 59.8868C33.4723 60.0461 33.6569 60.5127 33.3473 60.5271C33.3156 60.5097 33.2873 60.4942 33.261 60.4753C33.1547 60.2341 32.9571 59.9758 32.7481 59.8386C32.6872 60.0846 32.7832 60.3454 32.6723 60.5476C32.6046 60.6715 32.4713 60.7336 32.3766 60.773C32.2762 60.815 32.2126 60.8367 32.2059 60.8741C32.2972 60.9834 32.4017 61.0868 32.4889 61.2022C32.8357 61.6616 33.1303 62.1147 33.5262 62.5549C33.5554 62.6795 33.5506 62.7135 33.5184 62.8059Z" fill="#004EA2"/>
<path fill-rule="evenodd" clip-rule="evenodd" d="M31.2424 60.8141C31.111 60.82 31.0394 60.6667 30.9358 60.5964C30.5723 60.5079 30.2996 60.446 30.1664 60.0946C30.1803 60.0609 30.1974 60.0292 30.2147 59.9974C30.3991 59.9194 30.7462 59.8617 30.9805 59.8432C31.4305 59.924 31.3006 60.4889 31.2424 60.8141Z" fill="#004EA2"/>
<path fill-rule="evenodd" clip-rule="evenodd" d="M30.2615 59.7942C30.1873 59.8544 30.1716 59.8412 30.1357 59.8398C30.0849 59.7572 30.0636 59.6954 29.9804 59.6637C29.5829 59.671 29.1598 59.3901 29.2176 58.9823C29.2871 58.8968 29.3661 58.9444 29.5194 58.9823C29.8512 58.9025 30.342 58.6736 30.3847 59.21C30.3559 59.4067 30.3041 59.6071 30.2615 59.7942Z" fill="#004EA2"/>
<path fill-rule="evenodd" clip-rule="evenodd" d="M52.9558 58.7971C52.7856 58.4788 53.2303 58.1203 53.4325 57.998C53.7243 58.0601 53.7257 58.5299 53.5308 58.754C53.2563 58.9413 53.2246 58.9776 52.9558 58.7971Z" fill="#004EA2"/>
<path fill-rule="evenodd" clip-rule="evenodd" d="M52.4489 61.9697C52.4448 61.9558 52.4442 61.9446 52.441 61.9362C52.1074 61.6464 51.8372 61.321 51.6542 60.9436C51.6658 60.9057 51.6658 60.9057 51.6998 60.8663C51.9609 60.9334 52.1697 61.1894 52.4677 61.1399C52.6219 61.0237 52.7515 60.9238 52.8535 60.7942C52.5231 60.5069 52.1398 60.5621 51.8043 60.409C51.5803 60.2141 51.3927 59.6521 51.4963 59.4228C51.7649 59.1506 51.7005 59.3288 52.0095 59.5976C52.4161 59.8767 52.9585 60.0181 53.4381 60.2011C53.5618 60.218 53.5618 60.218 53.6174 60.2397C53.9143 60.0882 54.006 60.0989 54.2867 60.284C54.4236 60.3284 54.4236 60.3284 54.8521 60.4298C54.885 60.4104 54.9176 60.391 54.9534 60.3743C54.4989 60.0215 53.8447 60.0275 53.3051 59.9257C53.1006 59.8119 53.005 59.6647 52.9425 59.504C52.8615 59.444 52.386 59.1159 52.741 59.1479C52.9083 59.2188 53.0851 59.2234 53.2693 59.2932C53.7769 59.3888 54.304 59.5597 54.8204 59.6946C54.8679 59.64 54.8759 59.5939 54.8802 59.5707C54.9496 59.5031 54.9963 59.4801 55.0678 59.4465C54.9854 59.4068 54.9724 59.3847 54.9151 59.4203C54.6344 59.3146 54.3764 59.4096 54.3974 59.0607C54.1842 59.1894 53.9451 59.1892 53.7633 59.031C53.6768 58.7695 53.9606 58.4736 54.0629 58.3068C54.0665 58.2783 54.1537 58.1409 54.2351 57.9618C54.3152 57.7226 54.3467 57.3986 54.5879 57.3477C54.7875 57.3936 54.866 57.4137 54.8051 57.6857C54.8277 57.8434 54.8494 58.1445 54.8209 58.2799C54.775 58.4975 54.6956 58.809 54.4943 58.9854C54.6392 59.0208 54.8743 59.0443 54.9213 58.8617C54.851 58.6301 55.0751 58.5747 55.2323 58.6265C55.3032 58.704 55.3032 58.704 55.4087 58.7908C55.4429 58.7513 55.4399 58.7485 55.4426 58.7086C55.3598 58.5409 55.4134 58.5341 55.5481 58.4651C55.4545 58.2666 55.551 58.0578 55.7151 58.0038C56.2465 58.3168 56.2465 58.3168 56.5092 58.4492C56.8056 58.4145 57.3959 58.1026 57.5702 58.4407C57.5567 58.6153 57.455 58.8302 57.2829 58.9731C57.183 59.0084 57.0812 59.0214 56.9945 59.0844C57.0216 59.1081 57.0465 59.1348 57.0709 59.1615C57.3361 59.2485 57.5225 59.2238 57.366 59.5937C57.4467 59.8554 57.5321 59.8924 57.2204 60.0793C56.848 60.2077 56.4475 60.344 56.0599 60.4594C56.0462 60.4688 56.0327 60.4784 56.0222 60.4905C56.0476 60.5286 56.0731 60.5667 56.0959 60.6077C56.0026 60.7396 55.8673 60.8829 55.7288 61.0178C55.465 61.0703 55.3304 60.9375 55.138 60.7917C54.8145 60.686 54.5313 60.5833 54.2068 60.5035C54.1669 60.5434 54.1208 60.5778 54.0889 60.6511C54.1954 60.7492 54.3024 60.8526 54.4092 60.9562C54.451 61.1469 54.2317 61.3502 54.0362 61.4036C53.9008 61.3021 53.8144 61.2482 53.6749 61.2069C53.6072 61.2542 53.5392 61.3016 53.4689 61.3523C53.2562 61.5862 52.8355 62.2474 52.4489 61.9697ZM55.8614 59.8383C55.8575 59.8242 55.8541 59.816 55.8506 59.8077C56.0357 59.6439 56.0909 59.5802 55.8995 59.4456C55.8463 59.4579 55.7454 59.4821 55.7434 59.4166C55.7411 59.3461 56.0806 59.2679 56.1324 59.2387C56.2294 59.3229 56.3716 59.4837 56.3832 59.6482C56.2488 59.8025 56.0717 59.8349 55.8614 59.8383Z" fill="#004EA2"/>
</g>
<defs>
<filter id="filter0_d_185_52" x="0" y="0" width="154" height="157" filterUnits="userSpaceOnUse" color-interpolation-filters="sRGB">
<feFlood flood-opacity="0" result="BackgroundImageFix"/>
<feColorMatrix in="SourceAlpha" type="matrix" values="0 0 0 0 0 0 0 0 0 0 0 0 0 0 0 0 0 0 127 0" result="hardAlpha"/>
<feOffset dy="16"/>
<feGaussianBlur stdDeviation="6.5"/>
<feColorMatrix type="matrix" values="0 0 0 0 0 0 0 0 0 0 0 0 0 0 0 0 0 0 0.03 0"/>
<feBlend mode="normal" in2="BackgroundImageFix" result="effect1_dropShadow_185_52"/>
<feBlend mode="normal" in="SourceGraphic" in2="effect1_dropShadow_185_52" result="shape"/>
</filter>
</defs>
</svg>
