<svg width="154" height="157" viewBox="0 0 154 157" fill="none" xmlns="http://www.w3.org/2000/svg">
<g filter="url(#filter0_d_192_935)">
<rect width="128" height="128" transform="translate(13)" fill="white"/>
<path d="M115.091 75.1364C115.091 75.0759 115.111 75.0607 115.142 75.0607C115.192 75.0607 115.192 75.1364 115.212 75.2423C115.333 75.8729 115.646 76.4177 116.302 76.4177C116.736 76.4177 117.099 76.2462 117.099 75.8628C117.099 74.859 115.117 75.3533 115.117 74.1174C115.117 73.5323 115.611 73.0984 116.231 73.0984C116.695 73.0984 116.948 73.2952 117.084 73.2952C117.255 73.2952 117.185 73.1539 117.276 73.1539C117.311 73.1539 117.331 73.1691 117.336 73.2447L117.427 74.183C117.437 74.2738 117.442 74.3242 117.442 74.3444C117.442 74.3747 117.427 74.3949 117.402 74.3949C117.351 74.3949 117.346 74.3041 117.265 74.1073C117.049 73.5575 116.741 73.2801 116.226 73.2801C115.929 73.2801 115.596 73.4516 115.596 73.7845C115.596 74.5966 117.614 74.1073 117.614 75.4492C117.614 76.11 117.059 76.6144 116.307 76.6144C115.818 76.6144 115.581 76.3874 115.389 76.3874C115.197 76.3874 115.228 76.5539 115.142 76.5539C115.117 76.5539 115.101 76.5438 115.101 76.5085V75.1364H115.091Z" fill="black"/>
<path d="M107.989 73.5726C107.989 73.1741 107.56 73.3708 107.56 73.2295C107.56 73.1892 107.58 73.164 107.661 73.164C107.913 73.164 108.15 73.1741 108.352 73.1741C108.968 73.1741 109.553 73.169 110.138 73.164L110.385 74.1123C110.405 74.188 110.415 74.2284 110.415 74.2435C110.415 74.2687 110.4 74.2838 110.365 74.2838C110.319 74.2838 110.324 74.1981 110.133 73.8752C109.901 73.4868 109.578 73.3708 108.983 73.3708H108.715V74.6521H108.841C109.189 74.6521 109.442 74.4604 109.462 74.0972C109.467 73.9963 109.482 73.9761 109.532 73.9761C109.563 73.9761 109.583 74.0013 109.583 74.0467V75.5651C109.583 75.6105 109.563 75.6357 109.532 75.6357C109.482 75.6357 109.467 75.6105 109.462 75.5147C109.442 75.0708 109.189 74.9043 108.841 74.9043H108.715V76.0898C108.715 76.3167 108.882 76.3521 109.124 76.3521C109.785 76.3521 110.314 75.888 110.471 75.3936C110.501 75.2978 110.506 75.2574 110.551 75.2574C110.587 75.2574 110.602 75.2826 110.602 75.3129C110.602 75.3432 110.592 75.4037 110.582 75.4592L110.365 76.5589C109.709 76.5538 109.053 76.5488 108.362 76.5488C108.165 76.5488 107.923 76.5589 107.671 76.5589C107.59 76.5589 107.57 76.5337 107.57 76.4933C107.57 76.3521 107.999 76.5438 107.999 76.1503V73.5726H107.989Z" fill="black"/>
<path d="M98.5709 75.777C98.5709 76.1755 98.7323 76.3369 98.8786 76.4025C99.0199 76.463 99.146 76.4126 99.146 76.4984C99.146 76.5286 99.1359 76.5538 99.0753 76.5538C98.9089 76.5538 98.5406 76.5437 98.3388 76.5437C98.1371 76.5437 97.9454 76.5538 97.7739 76.5538C97.7133 76.5538 97.7033 76.5286 97.7033 76.4984C97.7033 76.4176 97.8344 76.463 97.9706 76.4025C98.1169 76.3369 98.2783 76.1755 98.2783 75.777V73.6079C98.1169 73.3708 97.9757 73.3052 97.8193 73.285C97.7386 73.275 97.7033 73.2749 97.7033 73.2195C97.7033 73.1791 97.7234 73.164 97.7638 73.164C97.9353 73.164 98.1169 73.1741 98.2985 73.1741H98.8534L100.412 75.1263L100.478 75.207V73.9408C100.478 73.5423 100.321 73.3809 100.17 73.3153C100.029 73.2548 99.9026 73.3052 99.9026 73.2245C99.9026 73.1942 99.9127 73.169 99.9733 73.169C100.145 73.169 100.498 73.1791 100.7 73.1791C100.901 73.1791 101.098 73.169 101.265 73.169C101.325 73.169 101.335 73.1942 101.335 73.2245C101.335 73.3103 101.209 73.2598 101.068 73.3153C100.917 73.3809 100.76 73.5473 100.76 73.9408V76.4933C100.76 76.5891 100.755 76.6547 100.715 76.6547C100.669 76.6547 100.634 76.5942 100.594 76.5337L98.5961 73.9963L98.5709 73.961V75.777Z" fill="black"/>
<path d="M62.6646 75.1364C62.6646 75.0759 62.6847 75.0607 62.715 75.0607C62.7654 75.0607 62.7654 75.1364 62.7856 75.2423C62.9067 75.8729 63.2194 76.4177 63.8752 76.4177C64.309 76.4177 64.6722 76.2462 64.6722 75.8628C64.6722 74.859 62.6898 75.3533 62.6898 74.1174C62.6898 73.5323 63.1841 73.0984 63.7996 73.0984C64.2687 73.0984 64.5159 73.2952 64.6521 73.2952C64.8236 73.2952 64.753 73.1539 64.8387 73.1539C64.874 73.1539 64.8942 73.1691 64.8992 73.2447L64.99 74.183C65.0001 74.2738 65.0052 74.3242 65.0052 74.3444C65.0052 74.3747 64.99 74.3949 64.9648 74.3949C64.9144 74.3949 64.9093 74.3041 64.8337 74.1073C64.6168 73.5575 64.309 73.2801 63.7945 73.2801C63.4969 73.2801 63.164 73.4516 63.164 73.7845C63.164 74.5966 65.1767 74.1073 65.1767 75.4492C65.1767 76.11 64.6218 76.6144 63.8702 76.6144C63.3809 76.6144 63.1488 76.3874 62.9521 76.3874C62.7604 76.3874 62.7907 76.5539 62.7049 76.5539C62.6797 76.5539 62.6646 76.5438 62.6646 76.5085V75.1364Z" fill="black"/>
<path d="M66.2005 73.5726C66.2005 73.1741 65.7718 73.3708 65.7718 73.2295C65.7718 73.1892 65.7919 73.164 65.8727 73.164C66.1249 73.164 66.362 73.1741 66.5637 73.1741C66.7605 73.1741 67.0026 73.164 67.2548 73.164C67.3355 73.164 67.3557 73.1892 67.3557 73.2295C67.3557 73.3708 66.932 73.1741 66.932 73.5726V74.647H68.2335V73.5726C68.2335 73.1741 67.8047 73.3708 67.8047 73.2295C67.8047 73.1892 67.8249 73.164 67.9056 73.164C68.1578 73.164 68.3999 73.1741 68.5967 73.1741C68.7934 73.1741 69.0355 73.164 69.2877 73.164C69.3685 73.164 69.3886 73.1892 69.3886 73.2295C69.3886 73.3708 68.9599 73.1741 68.9599 73.5726V76.1452C68.9599 76.5438 69.3886 76.347 69.3886 76.4883C69.3886 76.5286 69.3685 76.5538 69.2877 76.5538C69.0355 76.5538 68.7984 76.5437 68.5967 76.5437C68.3999 76.5437 68.1578 76.5538 67.9056 76.5538C67.8249 76.5538 67.8047 76.5286 67.8047 76.4883C67.8047 76.347 68.2335 76.5387 68.2335 76.1452V74.8993H66.932V76.1452C66.932 76.5438 67.3557 76.347 67.3557 76.4883C67.3557 76.5286 67.3355 76.5538 67.2548 76.5538C67.0026 76.5538 66.7655 76.5437 66.5637 76.5437C66.362 76.5437 66.1299 76.5538 65.8727 76.5538C65.7919 76.5538 65.7718 76.5286 65.7718 76.4883C65.7718 76.347 66.2005 76.5387 66.2005 76.1452V73.5726Z" fill="black"/>
<path d="M70.3573 73.5726C70.3573 73.1741 69.9285 73.3708 69.9285 73.2295C69.9285 73.1892 69.9487 73.164 70.0294 73.164C70.2816 73.164 70.5187 73.1741 70.7205 73.1741C71.3359 73.1741 71.9211 73.169 72.5062 73.164L72.7534 74.1123C72.7736 74.188 72.7837 74.2284 72.7837 74.2435C72.7837 74.2687 72.7685 74.2838 72.7332 74.2838C72.6878 74.2838 72.6929 74.1981 72.5012 73.8752C72.2691 73.4868 71.9463 73.3708 71.351 73.3708H71.0837V74.6521H71.2098C71.5579 74.6521 71.8101 74.4604 71.8303 74.0972C71.8353 73.9963 71.8504 73.9761 71.9009 73.9761C71.9312 73.9761 71.9513 74.0013 71.9513 74.0467V75.5651C71.9513 75.6105 71.9312 75.6357 71.9009 75.6357C71.8504 75.6357 71.8353 75.6105 71.8303 75.5147C71.8101 75.0708 71.5579 74.9043 71.2098 74.9043H71.0837V76.0898C71.0837 76.3167 71.2501 76.3521 71.4923 76.3521C72.1481 76.3521 72.6828 75.888 72.8392 75.3936C72.8694 75.2978 72.8745 75.2574 72.9199 75.2574C72.9501 75.2574 72.9703 75.2826 72.9703 75.3129C72.9703 75.3432 72.9602 75.4037 72.9501 75.4592L72.7332 76.5589C72.0774 76.5538 71.4166 76.5488 70.7306 76.5488C70.5338 76.5488 70.2968 76.5589 70.0395 76.5589C69.9588 76.5589 69.9386 76.5337 69.9386 76.4933C69.9386 76.3521 70.3674 76.5438 70.3674 76.1503V73.5726H70.3573Z" fill="black"/>
<path d="M74.2516 75.777C74.2516 76.1755 74.408 76.3369 74.5594 76.4025C74.7006 76.463 74.8267 76.4126 74.8267 76.4984C74.8267 76.5286 74.8166 76.5538 74.7561 76.5538C74.5896 76.5538 74.2214 76.5437 74.0196 76.5437C73.8178 76.5437 73.6211 76.5538 73.4546 76.5538C73.3941 76.5538 73.384 76.5286 73.384 76.4984C73.384 76.4176 73.5101 76.463 73.6514 76.4025C73.7976 76.3369 73.9591 76.1755 73.9591 75.777V73.6079C73.7976 73.3708 73.6564 73.3052 73.5 73.285C73.4193 73.275 73.384 73.2749 73.384 73.2195C73.384 73.1791 73.4042 73.164 73.4445 73.164C73.611 73.164 73.7976 73.1741 73.9792 73.1741H74.5341L76.0929 75.1263L76.1584 75.207V73.9408C76.1584 73.5423 76.0021 73.3809 75.8507 73.3153C75.7095 73.2548 75.5834 73.3052 75.5834 73.2245C75.5834 73.1942 75.5935 73.169 75.654 73.169C75.8205 73.169 76.1736 73.1791 76.3804 73.1791C76.5822 73.1791 76.7739 73.169 76.9454 73.169C77.0059 73.169 77.016 73.1942 77.016 73.2245C77.016 73.3103 76.8899 73.2598 76.7486 73.3153C76.5973 73.3809 76.4409 73.5473 76.4409 73.9408V76.4933C76.4409 76.5891 76.4359 76.6547 76.3955 76.6547C76.3501 76.6547 76.3148 76.5942 76.2694 76.5337L74.2769 73.9963L74.2516 73.961V75.777Z" fill="black"/>
<path d="M78.6755 76.3218C79.3767 76.3218 79.523 76.1705 79.7349 75.8627C79.9518 75.55 79.9467 75.2524 80.0325 75.2524C80.0527 75.2524 80.0779 75.2675 80.0779 75.3079C80.0779 75.3381 80.0628 75.4138 80.0426 75.5096L79.8408 76.5538C79.4423 76.5488 79.0387 76.5437 78.6301 76.5437C78.2215 76.5437 77.8129 76.5538 77.4094 76.5538C77.369 76.5538 77.3489 76.5286 77.3489 76.5084C77.3489 76.4832 77.369 76.4479 77.4043 76.3924L79.1749 73.4212H78.8773C78.2064 73.4212 78.0551 73.4969 77.818 73.8803C77.6061 74.2283 77.6465 74.2889 77.5809 74.2889C77.5506 74.2889 77.5405 74.2737 77.5405 74.2485C77.5405 74.2334 77.5506 74.193 77.5708 74.1174L77.818 73.169C78.1761 73.169 78.5393 73.1791 78.9076 73.1791C79.2758 73.1791 79.639 73.169 80.0123 73.169C80.0779 73.169 80.093 73.1841 80.093 73.2094C80.093 73.2346 80.0577 73.2901 80.0174 73.3557L78.272 76.3218H78.6755Z" fill="black"/>
<path d="M96.9212 75.5147C96.9212 76.2562 96.4168 76.6194 95.7206 76.6194C94.9438 76.6194 94.4494 76.2613 94.4494 75.7467V73.5726C94.4494 73.1741 94.0207 73.3708 94.0207 73.2295C94.0207 73.1892 94.0408 73.164 94.1215 73.164C94.3738 73.164 94.6109 73.1741 94.8126 73.1741C95.0094 73.1741 95.2515 73.164 95.5037 73.164C95.5844 73.164 95.6046 73.1892 95.6046 73.2295C95.6046 73.3657 95.1809 73.1741 95.1809 73.5726V75.7467C95.1809 76.1553 95.5743 76.4277 95.9275 76.4277C96.3461 76.4277 96.669 76.1352 96.669 75.545V74.0417C96.669 73.6129 96.5126 73.3708 96.2806 73.2951C96.2049 73.2699 96.1292 73.2699 96.1292 73.2195C96.1292 73.1892 96.1393 73.164 96.1999 73.164C96.331 73.164 96.6589 73.1741 96.8607 73.1741C97.0625 73.1741 97.2592 73.164 97.3853 73.164C97.4458 73.164 97.4559 73.1892 97.4559 73.2195C97.4559 73.2649 97.3803 73.2699 97.3096 73.2951C97.0826 73.3708 96.9212 73.6129 96.9212 74.0417V75.5147Z" fill="black"/>
<path d="M102.162 73.5726C102.162 73.1741 101.734 73.3708 101.734 73.2295C101.734 73.1892 101.754 73.164 101.835 73.164C102.087 73.164 102.329 73.1741 102.526 73.1741C102.722 73.1741 102.964 73.164 103.217 73.164C103.297 73.164 103.318 73.1892 103.318 73.2295C103.318 73.3708 102.889 73.1741 102.889 73.5726V76.1452C102.889 76.5438 103.318 76.347 103.318 76.4883C103.318 76.5286 103.297 76.5538 103.217 76.5538C102.964 76.5538 102.727 76.5437 102.526 76.5437C102.329 76.5437 102.092 76.5538 101.835 76.5538C101.754 76.5538 101.734 76.5286 101.734 76.4883C101.734 76.347 102.162 76.5387 102.162 76.1452V73.5726Z" fill="black"/>
<path d="M106.238 74.0367C106.279 73.9358 106.329 73.7895 106.329 73.6785C106.329 73.1942 105.875 73.3456 105.875 73.2195C105.875 73.1942 105.905 73.164 105.956 73.164C106.127 73.164 106.289 73.1741 106.46 73.1741C106.622 73.1741 106.944 73.164 107.111 73.164C107.212 73.164 107.267 73.1841 107.267 73.2295C107.267 73.3708 106.884 73.169 106.591 73.8853L105.517 76.5034C105.492 76.5639 105.466 76.6144 105.436 76.6144C105.406 76.6144 105.381 76.5639 105.355 76.5034L104.16 73.6028C103.983 73.1892 103.701 73.3103 103.701 73.2094C103.701 73.1892 103.726 73.164 103.772 73.164C104.024 73.164 104.246 73.1741 104.478 73.1741C104.7 73.1741 104.927 73.164 105.154 73.164C105.245 73.164 105.275 73.1841 105.275 73.2195C105.275 73.3254 104.927 73.1942 104.927 73.4566C104.927 73.5272 104.947 73.5928 104.967 73.6432L105.663 75.3987L106.238 74.0367Z" fill="black"/>
<path d="M113.003 75.2826C112.887 75.0355 112.65 74.9951 112.362 74.9951V76.1402C112.362 76.5387 112.791 76.342 112.791 76.4832C112.791 76.5236 112.771 76.5488 112.69 76.5488C112.438 76.5488 112.201 76.5387 111.999 76.5387C111.802 76.5387 111.56 76.5488 111.308 76.5488C111.227 76.5488 111.207 76.5236 111.207 76.4832C111.207 76.342 111.636 76.5337 111.636 76.1402V73.5675C111.636 73.169 111.207 73.3657 111.207 73.2245C111.207 73.1841 111.227 73.1589 111.308 73.1589C111.56 73.1589 111.797 73.169 111.999 73.169C112.246 73.169 112.458 73.1589 112.786 73.1589C113.634 73.1589 114.088 73.5373 114.088 74.0417C114.088 74.4604 113.83 74.8034 112.806 74.9144V74.9245C113.336 74.9245 113.624 75.0506 113.82 75.4239L114.194 76.1452C114.395 76.5387 114.723 76.347 114.723 76.4883C114.723 76.5185 114.718 76.5437 114.673 76.5437C114.496 76.5437 114.315 76.5337 114.138 76.5337H113.603L113.003 75.2826ZM112.554 74.7328C113.114 74.7328 113.361 74.4806 113.361 74.0568C113.361 73.5877 113.094 73.3708 112.67 73.3708H112.357V74.7328H112.554Z" fill="black"/>
<path d="M118.628 73.5726C118.628 73.1741 118.199 73.3708 118.199 73.2295C118.199 73.1892 118.219 73.164 118.3 73.164C118.552 73.164 118.789 73.1741 118.991 73.1741C119.187 73.1741 119.43 73.164 119.682 73.164C119.763 73.164 119.783 73.1892 119.783 73.2295C119.783 73.3708 119.359 73.1741 119.359 73.5726V76.1452C119.359 76.5438 119.783 76.347 119.783 76.4883C119.783 76.5286 119.763 76.5538 119.682 76.5538C119.43 76.5538 119.187 76.5437 118.991 76.5437C118.789 76.5437 118.552 76.5538 118.3 76.5538C118.219 76.5538 118.199 76.5286 118.199 76.4883C118.199 76.347 118.628 76.5387 118.628 76.1452V73.5726Z" fill="black"/>
<path d="M121.407 73.3708C120.423 73.6382 120.373 74.3293 120.262 74.3293C120.237 74.3293 120.217 74.3142 120.217 74.2789C120.217 74.2587 120.227 74.178 120.242 74.0972L120.408 73.1943C120.423 73.1186 120.439 73.0984 120.464 73.0984C120.489 73.0984 120.509 73.1136 120.534 73.1338C120.56 73.1489 120.595 73.1792 120.666 73.1792H122.89C122.961 73.1792 122.996 73.1489 123.016 73.1338C123.041 73.1136 123.062 73.0984 123.087 73.0984C123.112 73.0984 123.127 73.1186 123.142 73.1943L123.304 74.0972C123.319 74.178 123.329 74.2587 123.329 74.2789C123.329 74.3142 123.309 74.3293 123.284 74.3293C123.168 74.3293 123.122 73.6382 122.138 73.3708V76.0444C122.138 76.3622 122.295 76.4328 122.537 76.4328C122.592 76.4328 122.623 76.448 122.623 76.4934C122.623 76.5337 122.598 76.5489 122.547 76.5489C122.265 76.5489 122.012 76.5388 121.78 76.5388C121.548 76.5388 121.291 76.5489 121.009 76.5489C120.953 76.5489 120.928 76.5337 120.928 76.4934C120.928 76.4429 120.958 76.4328 121.019 76.4328C121.261 76.4328 121.417 76.3622 121.417 76.0444V73.3708H121.407Z" fill="black"/>
<path d="M125.443 74.7429L125.816 74.1678C125.947 73.9408 125.992 73.7138 125.992 73.5827C125.992 73.2497 125.685 73.3002 125.685 73.2195C125.685 73.1892 125.715 73.164 125.786 73.164C125.947 73.164 126.134 73.1741 126.33 73.1741C126.482 73.1741 126.643 73.164 126.789 73.164C126.825 73.164 126.845 73.1841 126.845 73.2094C126.845 73.3103 126.613 73.1791 126.144 73.966L125.559 74.9447V76.1402C125.559 76.5387 125.982 76.347 125.982 76.4832C125.982 76.5236 125.962 76.5437 125.886 76.5437C125.634 76.5437 125.392 76.5337 125.195 76.5337C124.994 76.5337 124.756 76.5437 124.504 76.5437C124.424 76.5437 124.403 76.5185 124.403 76.4832C124.403 76.342 124.832 76.5337 124.832 76.1402V75.0405L124.035 73.5877C123.823 73.1942 123.541 73.3254 123.541 73.2195C123.541 73.1841 123.571 73.164 123.627 73.164C123.869 73.164 124.101 73.1741 124.333 73.1741C124.565 73.1741 124.792 73.164 125.029 73.164C125.105 73.164 125.14 73.1791 125.14 73.2094C125.14 73.3153 124.827 73.1942 124.827 73.4717C124.827 73.5574 124.857 73.6382 124.913 73.7491L125.443 74.7429Z" fill="black"/>
<path d="M81.0818 73.5726C81.0818 73.1741 80.658 73.3708 80.658 73.2295C80.658 73.1892 80.6782 73.164 80.7589 73.164C81.0112 73.164 81.2482 73.1741 81.45 73.1741C81.6468 73.1741 81.8889 73.164 82.1411 73.164C82.2218 73.164 82.242 73.1892 82.242 73.2295C82.242 73.3708 81.8132 73.1741 81.8132 73.5726V74.647H83.1147V73.5726C83.1147 73.1741 82.6859 73.3708 82.6859 73.2295C82.6859 73.1892 82.7061 73.164 82.7868 73.164C83.039 73.164 83.2761 73.1741 83.4779 73.1741C83.6746 73.1741 83.9168 73.164 84.169 73.164C84.2497 73.164 84.2699 73.1892 84.2699 73.2295C84.2699 73.3708 83.8411 73.1741 83.8411 73.5726V76.1452C83.8411 76.5438 84.2699 76.347 84.2699 76.4883C84.2699 76.5286 84.2497 76.5538 84.169 76.5538C83.9168 76.5538 83.6797 76.5437 83.4779 76.5437C83.2812 76.5437 83.0441 76.5538 82.7868 76.5538C82.7061 76.5538 82.6859 76.5286 82.6859 76.4883C82.6859 76.347 83.1147 76.5387 83.1147 76.1452V74.8993H81.8132V76.1452C81.8132 76.5438 82.242 76.347 82.242 76.4883C82.242 76.5286 82.2218 76.5538 82.1411 76.5538C81.8889 76.5538 81.6518 76.5437 81.45 76.5437C81.2482 76.5437 81.0112 76.5538 80.7589 76.5538C80.6782 76.5538 80.658 76.5286 80.658 76.4883C80.658 76.347 81.0818 76.5387 81.0818 76.1452V73.5726Z" fill="black"/>
<path d="M85.2383 73.5726C85.2383 73.1741 84.8145 73.3708 84.8145 73.2295C84.8145 73.1892 84.8347 73.164 84.9154 73.164C85.1677 73.164 85.4047 73.1741 85.6065 73.1741C86.2219 73.1741 86.8071 73.169 87.3923 73.164L87.6394 74.1123C87.6596 74.188 87.6697 74.2284 87.6697 74.2435C87.6697 74.2687 87.6546 74.2838 87.6193 74.2838C87.5739 74.2838 87.5789 74.1981 87.3872 73.8752C87.1552 73.4868 86.8323 73.3708 86.2371 73.3708H85.9697V74.6521H86.0958C86.4439 74.6521 86.6961 74.4604 86.7163 74.0972C86.7213 73.9963 86.7365 73.9761 86.7819 73.9761C86.8121 73.9761 86.8323 74.0013 86.8323 74.0467V75.5651C86.8323 75.6105 86.8121 75.6357 86.7819 75.6357C86.7314 75.6357 86.7163 75.6105 86.7163 75.5147C86.6961 75.0708 86.4439 74.9043 86.0958 74.9043H85.9697V76.0898C85.9697 76.3167 86.1362 76.3521 86.3783 76.3521C87.0341 76.3521 87.5688 75.888 87.7252 75.3936C87.7554 75.2978 87.7605 75.2574 87.8059 75.2574C87.8412 75.2574 87.8563 75.2826 87.8563 75.3129C87.8563 75.3432 87.8463 75.4037 87.8362 75.4592L87.6193 76.5589C86.9635 76.5538 86.3027 76.5488 85.6166 76.5488C85.4199 76.5488 85.1777 76.5589 84.9255 76.5589C84.8448 76.5589 84.8246 76.5337 84.8246 76.4933C84.8246 76.3521 85.2484 76.5438 85.2484 76.1503V73.5726H85.2383Z" fill="black"/>
<path d="M89.1328 75.777C89.1328 76.1755 89.2891 76.3369 89.4405 76.4025C89.5767 76.463 89.7078 76.4126 89.7078 76.4984C89.7078 76.5286 89.6977 76.5538 89.6372 76.5538C89.4707 76.5538 89.1025 76.5437 88.9007 76.5437C88.6989 76.5437 88.5022 76.5538 88.3357 76.5538C88.2752 76.5538 88.2651 76.5286 88.2651 76.4984C88.2651 76.4176 88.3912 76.463 88.5325 76.4025C88.6838 76.3369 88.8402 76.1755 88.8402 75.777V73.6079C88.6788 73.3708 88.5375 73.3052 88.3811 73.285C88.3004 73.275 88.2651 73.2749 88.2651 73.2195C88.2651 73.1791 88.2853 73.164 88.3256 73.164C88.4972 73.164 88.6788 73.1741 88.8654 73.1741H89.4203L90.979 75.1263L91.0446 75.207V73.9408C91.0446 73.5423 90.8882 73.3809 90.7369 73.3153C90.5956 73.2548 90.4695 73.3052 90.4695 73.2245C90.4695 73.1942 90.4796 73.169 90.5402 73.169C90.7066 73.169 91.0648 73.1791 91.2666 73.1791C91.4683 73.1791 91.6651 73.169 91.8315 73.169C91.8921 73.169 91.9022 73.1942 91.9022 73.2245C91.9022 73.3103 91.776 73.2598 91.6348 73.3153C91.4835 73.3809 91.3271 73.5473 91.3271 73.9408V76.4933C91.3271 76.5891 91.322 76.6547 91.2817 76.6547C91.2363 76.6547 91.201 76.5942 91.1556 76.5337L89.163 73.9963L89.1378 73.961V75.777H89.1328Z" fill="black"/>
<path fill-rule="evenodd" clip-rule="evenodd" d="M67.9207 65.4964C67.3305 65.7638 66.7403 66.4196 66.6394 66.9291C66.589 67.7563 67.2801 68.0388 67.9207 68.3112C68.072 68.2759 68.1729 68.2759 68.2889 68.0741C68.4907 67.3326 68.7076 66.9139 69.1818 66.359C69.1818 66.3086 69.1818 66.2581 69.1969 66.2077C69.0305 65.3249 68.4756 65.2392 67.9207 65.4964Z" fill="black"/>
<path fill-rule="evenodd" clip-rule="evenodd" d="M65.1615 64.3817C64.3897 63.963 64.8437 61.5719 64.9244 60.9313C65.1615 60.3108 65.3986 59.3322 65.3633 58.7269C64.8437 57.7835 64.5915 57.8693 63.8651 58.3233C62.604 59.988 62.7049 61.6375 62.7351 63.8772C62.8713 64.9719 62.8713 66.9443 63.9811 67.6505C65.0253 67.4638 65.9182 65.3452 65.8526 64.2001C65.6155 63.7612 65.55 64.3665 65.1615 64.3817Z" fill="black"/>
<path fill-rule="evenodd" clip-rule="evenodd" d="M72.0977 61.5215C72.2339 61.471 72.4356 61.4054 72.6223 61.3046C73.0258 61.1179 73.379 60.8152 72.9098 60.3461C72.8241 60.331 72.7232 60.331 72.6223 60.331C71.9009 60.3461 70.6348 60.8506 70.5843 59.7559C70.9728 59.1657 71.795 58.1921 71.8656 57.501C71.3107 57.3144 71.3612 57.1984 71.3763 56.6788C71.4469 56.6435 71.4772 56.6183 71.5226 56.5729C71.911 56.3358 72.2692 55.907 72.6223 55.4379C72.8745 55.1201 73.1116 54.7821 73.3487 54.4946C73.838 53.2133 73.3487 52.7088 72.6223 52.5777C72.0523 52.4616 71.2906 52.5928 70.7861 52.729C70.5339 52.8652 69.6108 53.2839 69.6259 53.4857C69.4392 53.6219 69.3535 53.6774 69.3081 53.753C68.9045 54.5601 69.2728 54.7316 70.0849 54.7821C70.428 54.6509 71.23 53.4655 71.7345 54.1061C71.7345 54.207 71.6487 54.323 71.6689 54.4239C71.6336 54.4239 71.684 54.4239 71.6689 54.4239C71.4671 54.9637 70.4532 55.902 70.1556 56.2399C69.8378 56.931 70.322 57.5212 70.3573 58.3435C70.3069 58.5301 70.2413 58.7168 70.1909 58.9185C69.7217 59.4381 69.3686 60.2805 68.8087 60.7043C68.6422 60.9767 68.1529 61.36 68.0873 61.5971C68.0369 61.6476 67.9864 61.6829 67.936 61.7333C67.4467 62.1722 67.0078 62.6918 66.574 63.1155C66.574 63.166 66.5942 63.2164 66.5942 63.2517C66.8767 63.4686 67.4366 63.6401 67.941 63.6906H68.1933C68.2286 63.6855 68.2992 63.6956 68.2992 63.6754C68.3345 63.6603 68.3042 63.625 68.2942 63.6048C68.2942 63.5544 68.2942 63.5039 68.3093 63.4686C68.8289 62.8482 69.1164 62.3235 69.9588 62.2378C69.9235 62.3387 69.979 63.1155 70.095 66.8686C70.0345 66.9342 70.0799 66.9342 69.7268 67.0704C69.7066 67.0754 69.6864 67.0804 69.6612 67.0905C69.4947 67.2066 69.3232 67.3629 69.293 67.6303C69.3081 67.6303 69.3636 67.6353 69.293 67.6303C69.3787 68.5736 69.4796 69.2798 70.322 69.9356C70.9778 69.8347 71.2805 69.0427 71.4974 68.387C71.5125 67.5294 71.5125 67.5294 71.4621 61.9048C71.6588 61.7586 71.8757 61.6375 72.0977 61.5215Z" fill="black"/>
<path fill-rule="evenodd" clip-rule="evenodd" d="M72.7332 63.9276C72.703 63.9478 72.6677 63.9629 72.6172 63.978C72.2439 64.2151 71.9614 64.7549 72.481 65.1383C72.7332 66.0816 72.027 66.3187 71.7244 67.0249C71.7395 67.0602 71.7395 67.1106 71.7748 67.1611C71.8757 67.1762 71.9917 67.1964 72.0926 67.2267C72.2439 67.1913 72.4306 67.1611 72.6172 67.1106C73.5605 66.8735 74.857 66.47 74.6552 65.1937C74.1659 64.1647 73.6312 63.862 72.7332 63.9276Z" fill="black"/>
<path fill-rule="evenodd" clip-rule="evenodd" d="M64.3342 57.1932C65.0051 57.1277 65.1564 57.1277 65.6457 56.6737C65.676 56.6283 65.676 56.6434 65.6911 56.6283C65.7063 56.6283 65.7012 56.603 65.7113 56.5829C65.7264 55.7253 65.4086 55.1452 65.2371 54.9888C63.628 54.1968 62.5484 56.3357 64.3342 57.1932Z" fill="black"/>
<path fill-rule="evenodd" clip-rule="evenodd" d="M67.4315 57.8692C67.5122 57.8894 67.608 57.8692 67.7039 57.8339C67.7846 57.7633 67.8552 57.6977 67.9208 57.612C68.3395 57.0571 68.6623 56.0784 68.3748 55.4933C68.2235 55.4075 68.052 55.3924 67.9208 55.4075C66.9977 55.4933 66.2713 57.2286 67.4315 57.8692Z" fill="black"/>
<path fill-rule="evenodd" clip-rule="evenodd" d="M84.6382 62.9843C84.618 62.9995 84.6331 63.0146 84.6331 63.0499C84.2144 63.403 83.6999 64.3816 83.2257 64.4472C83.1097 63.3223 83.3266 62.1923 83.3922 61.1481C83.6949 60.5428 83.8613 60.5428 84.4868 60.2553C84.8601 60.0333 85.0266 59.8517 85.1779 59.4482V59.3826V59.3675V59.2817V59.2716V59.2212C85.1275 58.293 84.8399 58.1265 84.1035 58.0055C83.9874 57.3497 84.0379 56.7443 84.0026 56.1541C83.5637 55.68 82.807 56.2702 82.5901 56.6737C81.7477 57.3295 82.3228 58.2072 82.2168 59.2666C81.7981 59.5692 81.2079 59.9577 80.8347 60.3259C80.3655 61.3701 80.5673 61.5214 81.5409 61.925C81.6771 62.4496 81.3391 63.7612 81.2685 64.1799C81.3038 64.9567 81.1827 66.3691 82.0403 66.9089C83.0996 66.6365 85.188 64.1294 85.1224 62.7977C84.9257 62.7825 84.7895 62.9036 84.6382 62.9843Z" fill="black"/>
<path fill-rule="evenodd" clip-rule="evenodd" d="M85.7629 59.0799C85.7982 60.462 85.783 61.7887 85.6468 63.2365C85.5106 63.6905 85.2282 64.3311 85.1777 64.9365C85.1575 65.0373 85.1575 65.1231 85.1777 65.224C85.1928 65.3753 85.2282 65.5267 85.2937 65.6629C85.6721 65.6326 86.1008 65.4258 86.4691 64.9213C87.1955 63.2567 87.4326 60.7445 87.2762 58.9285C86.8272 57.7481 86.121 58.3232 85.7629 59.0799Z" fill="black"/>
<path fill-rule="evenodd" clip-rule="evenodd" d="M91.0698 54.888C90.5149 54.671 90.2627 54.8728 89.8591 55.125C89.844 55.2259 89.8238 55.342 89.8238 55.463C89.96 59.8567 90.076 64.4018 89.8591 68.8611C89.7431 69.2798 89.6422 69.5017 90.0962 69.8195C91.1404 69.7186 91.327 69.2798 91.5137 68.17C91.5288 67.1762 91.4834 63.3979 91.549 63.3576C91.4935 63.0196 91.5238 61.6727 91.549 61.6072C91.5641 57.9197 91.5641 57.9197 91.5339 55.4479C91.3573 55.1402 91.2564 55.0242 91.0698 54.888Z" fill="black"/>
<path fill-rule="evenodd" clip-rule="evenodd" d="M89.299 58.5755C88.4415 58.2223 88.3406 59.6197 88.1035 60.2099C88.0026 60.9514 87.2964 63.4938 88.4213 64.0335C88.6735 64.0184 88.8097 63.9125 89.0266 63.7611C89.5664 62.2629 89.516 60.4268 89.6017 58.8781C89.5361 58.7772 89.3495 58.641 89.299 58.5755Z" fill="black"/>
<path fill-rule="evenodd" clip-rule="evenodd" d="M108.256 66.2431C108.256 66.2077 108.175 66.2178 108.175 66.2027C108.095 66.1523 108.14 66.1775 108.125 66.1674C108.1 66.1371 108.019 66.122 108.019 66.0867C107.842 66.0362 107.434 65.6226 107.232 65.5066C107.232 65.4713 107.091 65.4309 107.091 65.3956C106.844 65.2745 106.758 65.1081 106.637 64.9971C106.516 64.9214 106.486 64.9063 106.375 64.7903C106.132 64.6389 106.026 64.4775 105.956 64.3917C105.895 64.3413 105.885 64.3161 105.87 64.3161C105.668 64.0285 105.451 63.7763 105.229 63.5392C104.977 63.2517 104.725 62.9843 104.523 62.6464C103.983 62.5606 103.681 62.7826 103.731 63.3879C104.004 64.2959 104.559 65.2392 105.229 66.0665C105.951 66.9442 106.813 67.7009 107.671 68.1902C108.529 68.1549 109.305 68.2407 109.961 67.5143C109.971 67.3982 110.012 67.2519 109.926 67.146C109.351 66.7374 108.776 66.4801 108.256 66.2431Z" fill="black"/>
<path fill-rule="evenodd" clip-rule="evenodd" d="M105.224 59.8215C106.067 59.4684 106.924 59.1304 106.708 57.8491C106.319 57.2791 106.132 57.158 105.628 57.0773C105.477 57.1429 105.34 57.2135 105.224 57.2791C104.821 57.496 104.634 57.6171 104.584 57.6171C104.564 56.8957 104.564 56.2702 104.448 55.6296C104.095 54.7367 104.044 54.5854 103.303 54.6005C102.662 54.7367 102.041 55.342 103 55.8112C103.419 56.1996 103.237 57.8138 102.949 58.2174C102.092 58.6562 101.199 59.0951 100.372 59.5642C100.003 59.9829 99.8471 60.2957 99.8471 60.8254C100.049 62.0562 100.77 61.2289 101.633 61.4811C101.734 61.6173 101.567 62.3891 101.497 62.4749C101.411 62.8129 100.831 64.079 100.69 64.2253C100.402 65.1838 98.9694 66.2481 98.2329 66.7021C98.1673 66.803 98.0815 66.9039 98.0311 67.0048C98.0815 67.5748 98.5557 67.827 99.1257 67.933C99.7159 67.8825 100.084 67.8825 100.573 67.4437C101.466 66.117 102.384 64.6339 102.939 63.0853C102.954 63.0449 102.954 63.0146 102.975 62.9945C103.277 62.0512 103.837 60.9414 104.412 60.22C104.654 60.0586 104.942 59.9375 105.224 59.8215Z" fill="black"/>
<path fill-rule="evenodd" clip-rule="evenodd" d="M119.773 57.9701C119.959 57.9348 120.09 57.8844 120.211 57.8037C120.348 57.7028 120.464 57.5515 120.565 57.3497C120.802 56.1895 120.968 55.0948 121.119 53.9497C121.104 53.4957 121.034 53.1931 120.867 52.8046C120.499 52.6684 120.327 52.7037 120.211 52.8702C120.141 52.9711 120.075 53.1224 119.995 53.3091C119.742 54.2524 119.52 55.3117 119.354 56.3408C119.334 56.9259 119.147 57.5817 119.773 57.9701Z" fill="black"/>
<path fill-rule="evenodd" clip-rule="evenodd" d="M122.093 56.6233C122.113 56.8251 122.063 57.269 122.012 57.385C122.012 57.5162 121.881 57.6625 121.79 57.7432C121.735 57.7936 121.538 58.0963 121.508 58.1366C121.155 58.5251 121.044 58.404 120.625 58.7067C120.509 58.8076 120.312 58.9286 120.196 59.0295C119.727 59.4028 119.319 59.6197 118.678 59.9072C118.511 59.9728 118.34 60.1443 118.153 60.2099C118.118 60.4823 118.375 60.5126 118.678 60.4823C118.93 60.447 119.197 60.3663 119.319 60.331C119.621 60.2099 119.909 60.0939 120.211 59.9779C120.867 59.7105 121.558 59.4734 122.249 59.3372C122.648 59.2616 123.541 59.0446 124.136 58.9992C124.474 58.974 124.565 59.0749 124.797 59.1102C125.115 59.7004 124.242 60.2553 123.904 60.4218C123.904 60.5731 124.121 60.6236 124.343 60.674C125.301 60.6084 126.724 60.4672 126.996 59.1254C126.996 57.8138 126.129 57.6473 125.301 57.5464C125.12 57.5565 124.585 57.5818 123.884 57.6776C123.541 57.723 122.759 57.955 122.724 57.8895C122.875 57.6524 123.314 57.385 123.515 57.1984C123.601 56.6586 123.243 56.6082 123.041 56.3408C122.855 55.3319 123.949 55.6144 124.353 55.0797C124.307 54.7669 124.03 54.6005 123.768 54.4693C123.561 54.3684 123.374 54.2726 123.243 54.2373C123.329 53.7984 123.732 53.748 124.116 53.6471C124.671 53.2284 124.318 52.0631 124.065 51.594C123.626 51.3771 122.84 51.256 122.688 51.7806C122.703 51.7806 122.729 51.7806 122.688 51.7806C122.754 52.2548 122.875 52.6886 122.703 53.2133C122.552 53.294 122.441 53.2687 122.29 53.3394C122.224 53.3898 122.098 53.5512 122.017 53.5815C121.911 54.0708 122.022 54.4643 121.932 54.6963C121.881 54.767 121.821 54.8426 121.765 54.9233C121.493 55.2865 121.185 55.7355 121.225 56.2601C121.422 56.6031 121.79 56.3005 122.093 56.6233Z" fill="black"/>
<path fill-rule="evenodd" clip-rule="evenodd" d="M118.29 58.071C118.406 58.0559 118.542 58.0559 118.678 58.0205C118.794 58.0054 118.91 57.955 119.016 57.8541C119.016 57.4354 118.799 57.2134 118.678 56.8956L118.658 56.8805C118.557 56.3761 118.577 56.0028 118.678 55.6497C118.779 55.231 118.966 54.8425 119.167 54.3532C119.203 53.8135 119.152 53.5461 118.814 53.3595C118.764 53.3595 118.713 53.3595 118.678 53.3746C118.022 53.4402 117.901 53.6621 117.583 54.2675C117.482 54.5348 117.361 54.8728 117.281 55.2259C117.094 55.9321 117.013 56.7039 117.281 57.279C117.447 57.6473 117.77 57.9348 118.29 58.071Z" fill="black"/>
<path fill-rule="evenodd" clip-rule="evenodd" d="M123.41 64.3816C122.92 64.4169 122.567 64.432 122.244 64.1949C122.194 64.1445 122.128 64.0789 122.058 64.0083C122.058 63.8065 122.144 63.635 122.244 63.4685C122.446 63.1659 122.749 62.8985 122.9 62.6261C123.137 61.5668 122.915 61.4154 122.244 60.911L122.159 60.8252C121.886 60.7546 121.558 60.6588 121.331 60.7143C121.256 60.7344 120.555 60.7344 120.449 60.9564C120.408 61.0321 120.353 61.3347 120.312 61.4003C120.212 61.5668 120.933 61.4608 121.2 61.7837C121.437 62.0359 121.518 62.1721 121.553 62.6261C121.079 63.3172 120.827 63.5492 121.099 64.5127C120.913 64.5783 120.575 64.6641 120.206 64.7801C119.394 65.0525 119.177 65.2038 118.981 65.3047C118.865 65.3652 118.668 65.4005 118.602 65.4459C118.461 65.5367 118.385 65.5115 117.281 65.5519C117.195 65.5519 117.129 65.5519 117.094 65.6023C117.109 65.7537 117.18 65.9201 117.281 66.0916C117.518 66.5103 117.619 66.5204 118.108 66.591C118.174 66.5709 118.764 66.5608 118.85 66.5255C119.384 66.4649 119.823 66.2026 120.212 66.1471C120.766 66.0614 121.372 66.0815 121.659 66.2985C121.76 66.7878 121.387 67.7664 121.175 68.2355C120.736 68.6744 120.499 68.4877 120.232 68.0186L120.217 67.9833C120.065 67.3578 119.979 67.2569 119.525 67.378C119.359 67.8521 119.561 68.5735 119.611 69.1637C119.798 69.7186 119.833 70.0717 120.217 70.3239C120.333 70.3895 120.454 70.4601 120.62 70.5257C121.377 70.4248 121.745 70.102 122.255 69.4311L122.27 69.3957C122.34 69.3251 122.355 69.3352 122.355 69.2949C122.91 68.2507 123.248 67.272 123.132 66.0462C123.47 65.7587 124.666 65.7436 125.135 65.8243C125.322 65.9453 125.685 65.9958 125.937 66.1976C126.729 66.1976 127.375 65.002 126.749 64.1596C125.513 63.8267 124.535 64.1647 123.41 64.3816Z" fill="black"/>
<path fill-rule="evenodd" clip-rule="evenodd" d="M117.281 61.2945C117.417 60.5176 117.619 59.4785 117.316 58.9185C117.301 58.9185 117.301 58.8984 117.281 58.8984C116.489 58.7168 115.767 60.3966 115.465 61.0019C115.213 62.2781 115.026 62.8179 116.423 63.2921C117.013 63.1256 117.064 62.3135 117.2 61.7233C117.21 61.5971 117.245 61.4458 117.281 61.2945Z" fill="black"/>
<path fill-rule="evenodd" clip-rule="evenodd" d="M67.9459 58.3636L67.9409 58.3736C67.9358 58.3837 67.9308 58.3938 67.9207 58.4039C67.8854 58.4695 67.7694 58.5401 67.7542 58.5906C67.7139 58.9235 67.729 59.1404 67.8148 59.3018C67.8198 59.3119 67.8248 59.322 67.8299 59.327C67.8349 59.3321 67.84 59.3371 67.84 59.3422C67.8652 59.3724 67.8904 59.4027 67.9156 59.433C67.9459 59.4632 67.9762 59.4885 68.0115 59.5137C68.0165 59.5187 68.0266 59.5238 68.0266 59.5288C68.0266 59.5288 68.0317 59.5288 68.0317 59.5339C68.1679 59.6247 68.3495 59.7003 68.6017 59.7861C69.3584 59.549 69.6106 58.7772 69.7115 57.955C69.5248 56.714 68.3696 57.6624 67.9459 58.3636Z" fill="black"/>
<path d="M43.9089 53.5109C43.8282 54.0355 43.4296 54.2373 42.9403 54.1616C42.3955 54.0759 42.0828 53.7682 42.1383 53.405L42.3804 51.8715C42.4258 51.589 42.103 51.6798 42.1181 51.5839C42.1231 51.5587 42.1383 51.5385 42.1938 51.5486C42.3703 51.5789 42.5368 51.6092 42.678 51.6344C42.8193 51.6546 42.9857 51.6747 43.1673 51.705C43.2228 51.7151 43.2329 51.7353 43.2279 51.7605C43.2127 51.8563 42.9302 51.6747 42.8899 51.9572L42.6478 53.4806C42.6024 53.7682 42.8041 54.0305 43.0967 54.0759C43.465 54.1314 43.7525 53.9346 43.8181 53.516L43.9845 52.4516C44.0299 52.1489 43.9492 51.9623 43.7928 51.8816C43.7424 51.8563 43.692 51.8462 43.697 51.8109C43.702 51.7908 43.7071 51.7756 43.7525 51.7807C43.8433 51.7958 43.9795 51.821 44.1207 51.8462C44.267 51.8664 44.4032 51.8816 44.494 51.8967C44.5344 51.9017 44.5394 51.9219 44.5394 51.9421C44.5344 51.9724 44.4789 51.9673 44.4234 51.9774C44.2569 52.0026 44.1157 52.159 44.0703 52.4617L43.9089 53.5109Z" fill="#950040"/>
<path d="M44.9632 54.0255C44.8472 54.2878 44.9027 54.4392 44.9834 54.5249C45.0591 54.6056 45.1549 54.6107 45.1297 54.6662C45.1196 54.6863 45.1095 54.6964 45.0692 54.6813C44.9582 54.6309 44.8371 54.5703 44.7009 54.5098C44.5698 54.4493 44.4386 54.4039 44.3276 54.3534C44.2873 54.3332 44.2873 54.3181 44.2974 54.2979C44.3226 54.2424 44.3932 54.3131 44.4991 54.3131C44.6152 54.3131 44.7665 54.2525 44.8825 53.9953L45.5131 52.5727C45.4727 52.3709 45.4021 52.2852 45.3063 52.2297C45.2558 52.1994 45.2356 52.1893 45.2508 52.154C45.2609 52.1288 45.281 52.1238 45.3063 52.1339C45.4172 52.1843 45.5333 52.2398 45.6543 52.2953L46.0175 52.4567L46.5321 54.4291L46.5371 54.4341L46.9608 53.4706C47.0769 53.2134 47.0214 53.057 46.9407 52.9712C46.865 52.8905 46.7691 52.8855 46.7944 52.83C46.8045 52.8098 46.8145 52.7997 46.8549 52.8149C46.9659 52.8653 47.0869 52.9258 47.2231 52.9864C47.3543 53.0469 47.4855 53.0973 47.5964 53.1427C47.6368 53.1579 47.6368 53.1781 47.6267 53.1982C47.6015 53.2537 47.5309 53.1831 47.4249 53.1831C47.3089 53.1831 47.1576 53.2436 47.0415 53.5059L46.3051 55.1757C46.2798 55.2362 46.2546 55.2816 46.2294 55.2715C46.1991 55.2564 46.1941 55.211 46.184 55.1555L45.5585 52.7089H45.5534L44.9632 54.0255Z" fill="#950040"/>
<path d="M48.3279 54.0204C48.4944 53.7883 48.1665 53.7228 48.222 53.6421C48.2371 53.6219 48.2623 53.6118 48.3077 53.6471C48.454 53.753 48.5902 53.859 48.7063 53.9397C48.8223 54.0204 48.9635 54.1162 49.1098 54.2222C49.1552 54.2575 49.1552 54.2777 49.1401 54.3029C49.0846 54.3836 48.9131 54.0961 48.7517 54.3231L47.6822 55.8162C47.5158 56.0483 47.8437 56.1138 47.7882 56.1945C47.773 56.2198 47.7478 56.2248 47.7024 56.1895C47.5561 56.0836 47.4199 55.9776 47.3039 55.8969C47.1879 55.8162 47.0466 55.7204 46.9003 55.6144C46.8549 55.5842 46.8549 55.5589 46.8701 55.5337C46.9256 55.453 47.0971 55.7405 47.2585 55.5135L48.3279 54.0204Z" fill="#950040"/>
<path d="M50.5676 56.4569C50.6382 56.4266 50.7139 56.3812 50.7694 56.3308C51.0165 56.0937 50.7492 55.9322 50.8097 55.8717C50.8248 55.8616 50.8501 55.8616 50.8803 55.8868C50.961 55.9726 51.0367 56.0634 51.1225 56.1542C51.2032 56.24 51.2889 56.3207 51.3696 56.4064C51.4201 56.4569 51.4352 56.4972 51.415 56.5224C51.3394 56.5931 51.2587 56.2954 50.7441 56.4922L48.8525 57.2236C48.8071 57.2388 48.7667 57.2539 48.7566 57.2388C48.7415 57.2236 48.7566 57.1833 48.7768 57.1429L49.6949 55.0949C49.826 54.7972 49.6243 54.7165 49.6747 54.6661C49.6898 54.656 49.7151 54.656 49.7352 54.6762C49.8614 54.8073 49.9622 54.9284 50.0783 55.0444C50.1892 55.1604 50.3053 55.2714 50.4162 55.3874C50.4616 55.4328 50.4667 55.4581 50.4465 55.4782C50.391 55.5287 50.2901 55.2866 50.1539 55.4177C50.1186 55.453 50.0934 55.4934 50.0783 55.5287L49.4275 56.9058L50.5676 56.4569Z" fill="#950040"/>
<path d="M51.5916 57.2438C51.8337 57.0975 51.5613 56.9058 51.6471 56.8554C51.6723 56.8402 51.6925 56.8453 51.7227 56.8907C51.8135 57.047 51.8993 57.1984 51.9699 57.3194C52.1969 57.6978 52.4138 58.0559 52.6307 58.4141L52.1414 58.9135C52.1011 58.9538 52.0809 58.974 52.0708 58.9791C52.0557 58.9892 52.0405 58.9841 52.0304 58.9639C52.0153 58.9387 52.0657 58.9084 52.1969 58.6714C52.3482 58.3889 52.3533 58.1165 52.1364 57.7482L52.0405 57.5818L51.1628 58.1064L51.2082 58.182C51.3343 58.3939 51.5865 58.4544 51.8135 58.3384C51.8741 58.3082 51.8942 58.3082 51.9144 58.3334C51.9245 58.3536 51.9195 58.3737 51.8892 58.3889L50.956 58.9438C50.9307 58.9589 50.9055 58.9538 50.8954 58.9387C50.8753 58.9084 50.8853 58.8883 50.9459 58.8479C51.2082 58.6764 51.2586 58.4343 51.1325 58.2224L51.0871 58.1467L50.3204 58.6058C50.1791 58.6915 50.1388 58.7874 50.2548 58.9841C50.5373 59.4583 51.0316 59.5138 51.3898 59.428C51.4604 59.4129 51.4856 59.3978 51.5058 59.428C51.5209 59.4482 51.5109 59.4684 51.4907 59.4785C51.4705 59.4886 51.4301 59.5037 51.3948 59.5188L50.6382 59.7862C50.4011 59.3826 50.164 58.974 49.9067 58.5553C49.8361 58.4343 49.7403 58.293 49.6495 58.1366C49.6192 58.0862 49.6293 58.066 49.6545 58.0509C49.7403 58.0004 49.7756 58.3334 50.0227 58.1871L51.5916 57.2438Z" fill="#950040"/>
<path d="M52.1063 61.2542C52.2526 61.123 52.2627 60.9465 52.2022 60.7498L51.385 60.9919C51.1126 61.0726 51.3295 61.3248 51.2387 61.3551C51.2135 61.3652 51.1882 61.3551 51.1731 61.2996C51.1227 61.1281 51.0823 60.9616 51.0419 60.8254C51.0016 60.6892 50.9461 60.5278 50.8957 60.3563C50.8805 60.3008 50.8906 60.2857 50.9209 60.2756C51.0167 60.2453 50.9713 60.5782 51.2437 60.4975L53.0042 59.978C53.2766 59.8972 53.0597 59.645 53.1505 59.6148C53.1757 59.6047 53.201 59.6148 53.2161 59.6702C53.2665 59.8418 53.3069 60.0082 53.3473 60.1444C53.3977 60.3159 53.4481 60.4572 53.5137 60.6842C53.6852 61.2693 53.5188 61.6527 53.1707 61.7536C52.8832 61.8394 52.5956 61.7334 52.3131 61.0524H52.3081C52.414 61.4156 52.3838 61.6376 52.1719 61.8494L51.7532 62.248C51.5262 62.4649 51.7229 62.6515 51.6271 62.6818C51.6069 62.6868 51.5867 62.6919 51.5817 62.6616C51.5464 62.5405 51.5161 62.4144 51.4808 62.2934L51.3698 61.9251L52.1063 61.2542ZM52.2677 60.7296L52.3081 60.8607C52.4191 61.2441 52.6612 61.3601 53.0244 61.2542C53.3977 61.1432 53.4986 60.9162 53.4179 60.6236L53.3573 60.4118L52.2677 60.7296Z" fill="#950040"/>
<path d="M52.5702 62.8633C52.6106 62.8633 52.6257 62.8734 52.6257 62.8936C52.6257 62.9289 52.5753 62.9339 52.4996 62.9491C52.0557 63.055 51.6118 63.2517 51.637 63.7713C51.6572 64.1345 51.8489 64.3312 52.1213 64.3161C52.8376 64.2808 52.4189 62.8835 53.2966 62.8381C53.7153 62.8179 54.0432 63.1559 54.0634 63.5948C54.0785 63.9277 53.9473 64.1143 53.9524 64.2102C53.9574 64.3363 54.0533 64.2758 54.0583 64.3363C54.0583 64.3615 54.0482 64.3766 53.9978 64.3817L53.3319 64.4775C53.2663 64.4876 53.231 64.4927 53.2159 64.4927C53.1907 64.4927 53.1806 64.4826 53.1806 64.4674C53.1806 64.4321 53.2563 64.4271 53.3925 64.3615C53.7809 64.185 54.0028 63.9832 53.9827 63.5897C53.9726 63.3375 53.8515 63.1458 53.5841 63.1559C53.004 63.1862 53.3975 64.6087 52.434 64.6541C51.9649 64.6743 51.5815 64.2959 51.5563 63.7612C51.5411 63.4081 51.6925 63.2366 51.6874 63.0954C51.6824 62.9592 51.5613 62.9844 51.5563 62.9238C51.5563 62.9087 51.5613 62.8936 51.5865 62.8936L52.5702 62.8633Z" fill="#950040"/>
<path d="M53.67 65.6932C53.9525 65.7336 53.8567 65.4108 53.9525 65.4208C53.9828 65.4259 53.9979 65.441 53.9878 65.4965C53.9626 65.6781 53.9323 65.8446 53.9172 65.9858C53.897 66.1271 53.8819 66.2986 53.8567 66.4751C53.8466 66.5306 53.8314 66.5407 53.8012 66.5407C53.7003 66.5256 53.8819 66.2431 53.5994 66.2078L51.7783 65.9606C51.4959 65.9253 51.5917 66.2431 51.4959 66.228C51.4656 66.2229 51.4505 66.2078 51.4605 66.1523C51.4858 65.9757 51.516 65.8042 51.5312 65.663C51.5513 65.5217 51.5665 65.3502 51.5917 65.1737C51.6018 65.1182 51.6169 65.1081 51.6472 65.1081C51.7481 65.1182 51.5665 65.4057 51.849 65.441L53.67 65.6932Z" fill="#950040"/>
<path d="M53.3673 68.0641C53.4077 67.3377 52.9032 67.1309 52.9285 67.0502C52.9335 67.0351 52.9486 67.025 52.9739 67.03C52.989 67.0351 53.0394 67.0603 53.0899 67.0855L53.67 67.4033C53.7154 67.4285 53.7255 67.4437 53.7204 67.4638C53.7154 67.479 53.7003 67.4891 53.6801 67.5042C53.665 67.5193 53.6347 67.5345 53.6196 67.5799L53.1151 69.0881C53.1 69.1335 53.1101 69.1638 53.1151 69.184C53.1252 69.2042 53.1302 69.2243 53.1252 69.2395C53.1202 69.2546 53.105 69.2597 53.0495 69.2546L52.3988 69.1588C52.3433 69.1487 52.2878 69.1386 52.2727 69.1335C52.2475 69.1235 52.2424 69.1083 52.2475 69.0932C52.2727 69.0175 52.8024 69.1537 53.2059 68.5534L51.3445 67.9279C51.1276 67.8573 51.0469 67.9431 50.9914 68.1095C50.9763 68.1499 50.9611 68.165 50.9258 68.1549C50.9006 68.1448 50.8956 68.1247 50.9056 68.0893C50.9712 67.8977 51.0368 67.7312 51.0872 67.5698C51.1377 67.4134 51.1932 67.2368 51.2537 67.0451C51.2638 67.0098 51.284 66.9947 51.3092 67.0048C51.3445 67.0149 51.3445 67.0401 51.3344 67.0805C51.2789 67.2469 51.289 67.3629 51.5059 67.4386L53.3673 68.0641Z" fill="#950040"/>
<path d="M50.9763 70.5511L51.2436 71.0455C51.3344 71.2119 51.4504 71.3229 51.5311 71.3734C51.7329 71.4995 51.8187 71.2927 51.8691 71.3229C51.8893 71.333 51.8893 71.3633 51.8641 71.4036C51.8035 71.4995 51.7531 71.5701 51.6774 71.6912C51.6169 71.787 51.5665 71.8829 51.511 71.9737C51.4958 71.9938 51.4757 71.9989 51.4605 71.9888C51.4 71.9484 51.5715 71.8627 51.2688 71.2775L50.8955 70.5511L50.1691 70.0971C49.927 69.9458 49.8816 70.2787 49.8009 70.2283C49.7757 70.2131 49.7706 70.193 49.8009 70.1425C49.8967 69.9912 49.9926 69.8499 50.0683 69.7289C50.1439 69.6078 50.2297 69.4615 50.3205 69.3051C50.3507 69.2547 50.376 69.2547 50.3961 69.2698C50.4819 69.3203 50.2045 69.5069 50.4415 69.6583L51.1074 70.0769L52.2929 70.1425C52.6107 70.1627 52.6409 69.9458 52.7015 69.9811C52.7216 69.9962 52.7216 70.0215 52.7015 70.0517C52.6107 70.198 52.5148 70.3342 52.4291 70.4755C52.3383 70.6167 52.2626 70.7579 52.1718 70.8992C52.1415 70.9446 52.1213 70.9597 52.1012 70.9446C52.0406 70.9042 52.2273 70.7579 52.0608 70.6571C52.0104 70.6268 51.9498 70.6117 51.859 70.6066L50.9763 70.5511Z" fill="#950040"/>
<path d="M32.3672 71.2925C32.3319 71.3178 32.3167 71.3127 32.3016 71.2925C32.2814 71.2623 32.3268 71.232 32.3773 71.1816C32.7052 70.8638 32.9826 70.4653 32.6951 70.0314C32.4933 69.7288 32.2259 69.6632 31.9989 69.8145C31.4037 70.213 32.4832 71.1967 31.7518 71.686C31.4037 71.9181 30.9446 71.797 30.7025 71.4287C30.5159 71.1513 30.536 70.9243 30.4806 70.8436C30.4099 70.7377 30.3595 70.8385 30.3242 70.7881C30.309 70.7679 30.3141 70.7477 30.3544 70.7175L30.874 70.2937C30.9245 70.2483 30.9497 70.2282 30.9648 70.2181C30.985 70.2029 31.0001 70.208 31.0102 70.2231C31.0304 70.2534 30.9699 70.2988 30.8841 70.4249C30.642 70.773 30.5562 71.0605 30.7731 71.3884C30.9144 71.6003 31.1162 71.7011 31.3381 71.5498C31.8224 71.227 30.753 70.208 31.55 69.6733C31.9434 69.411 32.463 69.5421 32.7606 69.986C32.9574 70.2786 32.912 70.5056 32.9876 70.6216C33.0633 70.7377 33.1541 70.6519 33.1844 70.7023C33.1945 70.7175 33.1945 70.7326 33.1743 70.7427L32.3672 71.2925Z" fill="#950040"/>
<path d="M29.8299 69.1942C29.5625 69.285 29.7895 69.5321 29.6937 69.5624C29.6685 69.5725 29.6483 69.5624 29.6281 69.5069C29.5726 69.3354 29.5222 69.174 29.4768 69.0378C29.4314 68.9016 29.3708 68.7452 29.3154 68.5737C29.2952 68.5182 29.3103 68.5031 29.3355 68.493C29.4314 68.4627 29.3961 68.7957 29.6634 68.7049L30.4352 68.4476L30.1376 67.5648L29.3658 67.8221C29.0984 67.9129 29.3254 68.1601 29.2346 68.1903C29.2094 68.2004 29.1892 68.1903 29.1691 68.1399C29.1085 67.9684 29.0631 67.8069 29.0177 67.6707C28.9723 67.5345 28.9118 67.3782 28.8513 67.2067C28.8311 67.1512 28.8462 67.136 28.8714 67.1259C28.9673 67.0957 28.932 67.4286 29.1993 67.3378L30.9397 66.7527C31.207 66.6619 30.98 66.4147 31.0759 66.3844C31.1011 66.3743 31.1213 66.3844 31.1414 66.4349C31.202 66.6064 31.2474 66.7728 31.2928 66.904C31.3382 67.0402 31.3987 67.1966 31.4542 67.3681C31.4744 67.4236 31.4592 67.4437 31.434 67.4488C31.3382 67.4791 31.3735 67.1461 31.1061 67.2369L30.2183 67.5345L30.5159 68.4173L31.4038 68.1197C31.6711 68.0289 31.4441 67.7817 31.54 67.7515C31.5652 67.7414 31.5854 67.7515 31.6055 67.8019C31.6661 67.9734 31.7115 68.1348 31.7569 68.271C31.8023 68.4072 31.8628 68.5636 31.9183 68.7351C31.9385 68.7906 31.9233 68.8057 31.8981 68.8158C31.8023 68.8461 31.8376 68.5132 31.5702 68.604L29.8299 69.1942Z" fill="#950040"/>
<path d="M28.922 65.6933C28.6395 65.7084 28.7908 66.0061 28.6899 66.0111C28.6597 66.0111 28.6445 66.001 28.6395 65.9455C28.6294 65.7639 28.6294 65.5924 28.6244 65.4512C28.6042 65.0123 28.579 64.5936 28.5537 64.1749L29.2246 63.9631C29.2751 63.9479 29.3054 63.9378 29.3154 63.9378C29.3306 63.9378 29.3457 63.9479 29.3457 63.9731C29.3457 64.0034 29.2852 64.0034 29.0632 64.1547C28.7959 64.3363 28.6597 64.5734 28.6798 64.9972L28.6899 65.1889L29.7089 65.1384L29.7039 65.0476C29.6988 64.8004 29.5021 64.6289 29.2499 64.6289C29.1792 64.6289 29.1591 64.6188 29.1591 64.5835C29.1591 64.5633 29.1742 64.5482 29.2095 64.5482L30.2941 64.4927C30.3243 64.4927 30.3445 64.5028 30.3445 64.528C30.3445 64.5633 30.3294 64.5734 30.2588 64.5835C29.946 64.6138 29.7846 64.8004 29.7997 65.0476L29.7947 65.1334L30.6875 65.088C30.849 65.0779 30.9347 65.0123 30.9196 64.7853C30.8944 64.2304 30.4858 63.953 30.1276 63.8622C30.062 63.842 30.0267 63.842 30.0267 63.8117C30.0267 63.7865 30.0418 63.7764 30.062 63.7714C30.0822 63.7714 30.1276 63.7764 30.1629 63.7815L30.9549 63.8975C30.9751 64.3666 30.9952 64.8357 31.0154 65.3301C31.0205 65.4713 31.0356 65.6429 31.0457 65.8194C31.0507 65.8749 31.0306 65.89 31.0003 65.89C30.8994 65.8951 31.0255 65.5823 30.743 65.5975L28.922 65.6933Z" fill="#950040"/>
<path d="M30.5261 62.7473C30.8035 62.8078 30.9447 62.7221 31.0103 62.6262C31.0709 62.5405 31.0608 62.4396 31.1163 62.4547C31.1364 62.4598 31.1516 62.4698 31.1415 62.5102C31.1163 62.6262 31.0809 62.7624 31.0456 62.9037C31.0154 63.0449 30.9901 63.1811 30.9649 63.3022C30.9548 63.3425 30.9347 63.3476 30.9145 63.3425C30.8539 63.3274 30.9094 63.2467 30.8893 63.1408C30.8691 63.0298 30.7783 62.8885 30.5008 62.833L28.9875 62.5001C28.7958 62.5758 28.7302 62.6666 28.6899 62.7725C28.6697 62.828 28.6647 62.8482 28.6293 62.8431C28.6041 62.8381 28.594 62.823 28.5991 62.7927C28.6243 62.6767 28.6596 62.5455 28.6899 62.4194L28.7756 62.031L30.6068 61.1331V61.128L29.5827 60.901C29.3053 60.8405 29.1641 60.9262 29.0985 61.0221C29.0379 61.1078 29.048 61.2087 28.9925 61.1936C28.9724 61.1886 28.9572 61.1785 28.9623 61.1381C28.9875 61.0221 29.0228 60.8859 29.0581 60.7446C29.0884 60.6034 29.1136 60.4672 29.1388 60.3461C29.1489 60.3058 29.1641 60.3007 29.1893 60.3058C29.2498 60.3209 29.1943 60.4016 29.2145 60.5076C29.2347 60.6236 29.3255 60.7598 29.6029 60.8203L31.3887 61.2087C31.4542 61.2239 31.4996 61.239 31.4946 61.2642C31.4895 61.2945 31.4391 61.3096 31.3937 61.3298L29.1187 62.4295V62.4345L30.5261 62.7473Z" fill="#950040"/>
<path d="M31.8477 59.988C32.0192 59.6197 31.9536 59.3171 31.8225 59.085C31.6863 58.8479 31.4946 58.7622 31.5198 58.7067C31.5248 58.6966 31.545 58.6815 31.5702 58.6966C31.5904 58.7067 31.6308 58.737 31.6863 58.7824L32.3017 59.2313C32.1756 59.4886 32.0495 59.7509 31.9284 60.0132C31.8073 60.2755 31.6863 60.5429 31.5652 60.8052C31.5501 60.8304 31.5299 60.8355 31.5198 60.8304C31.5047 60.8203 31.4895 60.8001 31.4593 60.7598L30.0165 58.6209L29.9257 58.8126C29.7593 59.1708 29.7845 59.4583 29.9611 59.7307C30.1225 59.9729 30.1729 59.9678 30.1527 60.0082C30.1427 60.0283 30.1326 60.0283 30.1124 60.0233C30.0922 60.0132 30.072 59.993 30.0266 59.9577L29.4919 59.5088C29.5979 59.2767 29.7139 59.0447 29.8299 58.8076C29.9409 58.5705 30.0468 58.3334 30.1578 58.0862C30.178 58.0459 30.1931 58.0408 30.2082 58.0459C30.2234 58.056 30.2486 58.0913 30.2839 58.1417L31.7266 60.2453L31.8477 59.988Z" fill="#950040"/>
<path d="M30.9852 57.2943C30.7633 57.1178 30.6826 57.4406 30.6018 57.3801C30.5817 57.365 30.5766 57.3397 30.6119 57.2943C30.7229 57.1531 30.8389 57.027 30.9247 56.916C31.0155 56.805 31.1164 56.6688 31.2274 56.5276C31.2627 56.4822 31.2879 56.4822 31.3081 56.5024C31.3837 56.5629 31.0861 56.7142 31.3081 56.8958L31.9437 57.4053L32.5238 56.6789L31.8882 56.1694C31.6662 55.9929 31.5855 56.3157 31.5048 56.2552C31.4846 56.235 31.4745 56.2148 31.5149 56.1694C31.6259 56.0282 31.7419 55.9021 31.8276 55.7911C31.9184 55.6801 32.0193 55.5439 32.1303 55.4027C32.1656 55.3573 32.1908 55.3573 32.211 55.3774C32.2867 55.438 31.9891 55.5893 32.211 55.7659L33.6436 56.916C33.8656 57.0926 33.9463 56.7697 34.027 56.8302C34.0472 56.8504 34.0522 56.8706 34.0169 56.916C33.9009 57.0572 33.7899 57.1834 33.7042 57.2943C33.6134 57.4053 33.5125 57.5415 33.4015 57.6828C33.3662 57.7282 33.341 57.7282 33.3208 57.708C33.2401 57.6474 33.5428 57.4961 33.3208 57.3196L32.5894 56.7344L32.0092 57.4608L32.7407 58.0459C32.9626 58.2225 33.0434 57.8997 33.1241 57.9602C33.1442 57.9804 33.1493 58.0006 33.114 58.0459C32.998 58.1872 32.887 58.3184 32.8012 58.4243C32.7104 58.5353 32.6095 58.6715 32.4986 58.8127C32.4632 58.8581 32.4431 58.8581 32.4178 58.8379C32.3422 58.7774 32.6398 58.6261 32.4178 58.4445L30.9852 57.2943Z" fill="#950040"/>
<path d="M33.4367 54.6409C33.2702 54.4088 33.1038 54.7014 33.0483 54.6207C33.0281 54.5955 33.0281 54.5753 33.0735 54.54C33.2198 54.434 33.361 54.3432 33.477 54.2575C33.8352 54.0002 34.1732 53.753 34.5112 53.5109L35.0509 53.9599C35.0913 53.9952 35.1165 54.0154 35.1215 54.0204C35.1316 54.0355 35.1266 54.0507 35.1114 54.0658C35.0862 54.086 35.0509 54.0355 34.8088 53.9246C34.5112 53.7984 34.2388 53.8136 33.8907 54.0608L33.7343 54.1717L34.3296 55.0041L34.4002 54.9536C34.602 54.8073 34.6423 54.5551 34.5061 54.3382C34.4658 54.2777 34.4658 54.2575 34.496 54.2373C34.5162 54.2272 34.5364 54.2323 34.5515 54.2575L35.1821 55.1403C35.2022 55.1655 35.1972 55.1907 35.1821 55.2008C35.1518 55.221 35.1316 55.2109 35.0913 55.1604C34.8945 54.9133 34.6524 54.883 34.4506 55.0242L34.38 55.0747L34.8996 55.8011C34.9954 55.9322 35.0963 55.9676 35.283 55.8314C35.7319 55.5085 35.747 55.0142 35.631 54.6661C35.6108 54.6005 35.5907 54.5702 35.6209 54.5501C35.6411 54.5349 35.6613 54.545 35.6714 54.5602C35.6815 54.5753 35.7016 54.6156 35.7218 54.651L36.0548 55.3824C35.6714 55.6548 35.288 55.9222 34.8844 56.2097C34.7684 56.2904 34.6373 56.3963 34.4859 56.5023C34.4405 56.5376 34.4153 56.5275 34.4002 56.5073C34.3447 56.4266 34.6726 56.361 34.5061 56.129L33.4367 54.6409Z" fill="#950040"/>
<path d="M36.7157 54.424C36.8166 54.6914 36.9629 54.757 37.0789 54.7671C37.1848 54.7721 37.2605 54.7065 37.2807 54.762C37.2908 54.7822 37.2857 54.8024 37.2504 54.8175C37.1344 54.8579 37.0032 54.9033 36.867 54.9537C36.7308 55.0041 36.6047 55.0596 36.4937 55.105C36.4534 55.1202 36.4433 55.105 36.4332 55.0849C36.413 55.0294 36.5089 55.0294 36.5896 54.9537C36.6753 54.873 36.7359 54.7217 36.635 54.4593L36.0902 53.0065C35.9187 52.8905 35.8127 52.8804 35.7018 52.9057C35.6463 52.9208 35.621 52.9258 35.611 52.8905C35.6009 52.8653 35.611 52.8502 35.6362 52.8401C35.7472 52.7997 35.8733 52.7594 35.9943 52.714L36.3676 52.5727L38.118 53.6169H38.1231L37.7548 52.6333C37.6539 52.3659 37.5077 52.3003 37.3916 52.2953C37.2857 52.2902 37.21 52.3558 37.1899 52.3003C37.1798 52.2801 37.1848 52.26 37.2201 52.2448C37.3311 52.2045 37.4623 52.1591 37.5985 52.1086C37.7347 52.0582 37.8608 52.0027 37.9768 51.9573C38.0172 51.9422 38.0272 51.9573 38.0373 51.9775C38.0575 52.033 37.9617 52.033 37.8809 52.1086C37.8002 52.1893 37.7347 52.3407 37.8305 52.603L38.4762 54.3131C38.5014 54.3736 38.5115 54.424 38.4863 54.4341C38.456 54.4442 38.4157 54.4139 38.3753 54.3837L36.2163 53.0772H36.2112L36.7157 54.424Z" fill="#950040"/>
<path d="M35.2981 74.1073C35.2981 74.294 35.1467 74.4403 34.9651 74.4403C34.7835 74.4403 34.6322 74.294 34.6322 74.1073C34.6322 73.9257 34.7785 73.7744 34.9651 73.7744C35.1518 73.7795 35.2981 73.9257 35.2981 74.1073Z" fill="#950040"/>
<path d="M47.9345 74.1073C47.9345 74.294 47.7832 74.4403 47.6016 74.4403C47.42 74.4403 47.2687 74.294 47.2687 74.1073C47.2687 73.9257 47.42 73.7744 47.6016 73.7744C47.7882 73.7795 47.9345 73.9257 47.9345 74.1073Z" fill="#950040"/>
<path d="M41.301 78.597C39.369 78.597 37.4975 78.2186 35.737 77.472C34.032 76.7507 32.5035 75.7216 31.1919 74.4101C29.8804 73.0985 28.8463 71.57 28.13 69.865C27.3783 68.0995 27 66.228 27 64.301C27 62.369 27.3783 60.4975 28.1249 58.737C28.8463 57.032 29.8753 55.4984 31.1869 54.1869C32.4984 52.8753 34.0269 51.8412 35.7319 51.1249C37.4975 50.3783 39.369 50 41.301 50C43.233 50 45.1045 50.3783 46.865 51.1249C48.57 51.8463 50.0985 52.8753 51.4101 54.1869C52.7216 55.4984 53.7557 57.0269 54.472 58.7319C55.2186 60.4924 55.597 62.369 55.597 64.296C55.597 66.228 55.2186 68.0995 54.472 69.865C53.7507 71.57 52.7216 73.0985 51.4101 74.4101C50.0985 75.7216 48.57 76.7557 46.865 77.472C45.1045 78.2186 43.228 78.597 41.301 78.597ZM41.301 50.6659C33.7848 50.6659 27.6659 56.7797 27.6659 64.301C27.6659 71.8172 33.7797 77.9361 41.301 77.9361C48.8172 77.9361 54.9361 71.8223 54.9361 64.301C54.9311 56.7797 48.8172 50.6659 41.301 50.6659Z" fill="#950040"/>
<path d="M37.5579 76.0848C37.5125 76.226 37.573 76.3269 37.7597 76.4026C37.9362 76.4732 37.9766 76.4884 37.9564 76.5338C37.9514 76.5539 37.9262 76.5691 37.8908 76.5539C37.6638 76.4783 37.4318 76.3976 37.2149 76.3269C36.9879 76.2513 36.7508 76.1806 36.5238 76.0999C36.4885 76.0848 36.4784 76.0596 36.4834 76.0394C36.4986 75.989 36.5389 75.999 36.7205 76.0545C36.9173 76.11 37.0282 76.0646 37.0736 75.9234L37.5983 74.3546C37.6235 74.2789 37.6084 74.2537 37.5478 74.2335L37.0888 74.0822C37.0585 74.0721 37.0484 74.0519 37.0535 74.0317C37.0686 73.9813 37.1291 74.0267 37.4318 74.0872C37.8858 74.178 38.1027 74.0569 38.1683 74.0822C38.1986 74.0922 38.2086 74.1124 38.1885 74.173L37.5579 76.0848Z" fill="#950040"/>
<path d="M40.0349 74.4554C40.615 74.5159 40.9227 75.0053 40.8571 75.5955C40.7462 76.6144 39.4195 76.8667 39.2581 76.8465C39.2379 76.8465 39.2379 76.8364 39.2379 76.8162C39.2429 76.7759 39.9895 76.6649 40.2821 75.8174C40.1358 75.8931 39.9845 75.9334 39.7928 75.9133C39.2177 75.8527 39.0058 75.4593 39.0462 75.1061C39.0966 74.6824 39.4397 74.3898 40.0349 74.4554ZM39.9088 75.8426C40.0803 75.8628 40.277 75.767 40.3224 75.6963C40.3376 75.6711 40.3779 75.5299 40.3931 75.3886C40.4637 74.753 40.277 74.5513 40.0198 74.526C39.818 74.5059 39.6011 74.6017 39.5456 75.1465C39.4901 75.6207 39.6767 75.8174 39.9088 75.8426Z" fill="#950040"/>
<path d="M41.9063 75.7317C41.6844 75.5955 41.5835 75.419 41.5683 75.2374C41.5381 74.854 41.8761 74.5211 42.3654 74.4757C42.774 74.4403 43.0968 74.6623 43.122 74.97C43.1422 75.1768 43.0413 75.3837 42.885 75.5148C43.1624 75.5854 43.3389 75.8225 43.3642 76.1252C43.3995 76.5287 43.0262 76.8919 42.4461 76.9424C41.9467 76.9878 41.5936 76.7154 41.5633 76.3522C41.5482 76.1504 41.6541 75.8982 41.9063 75.7317ZM42.441 76.8768C42.7942 76.8465 42.9606 76.6095 42.9354 76.3371C42.9203 76.1454 42.8295 75.9991 42.436 75.8931C42.0678 75.7923 42.0375 75.762 41.987 75.767C41.9215 75.7721 41.7651 75.9739 41.7903 76.2765C41.8256 76.6599 42.0627 76.9121 42.441 76.8768ZM42.3755 74.5412C42.1283 74.5614 41.9719 74.738 41.9921 74.9902C42.0224 75.3483 42.5722 75.4341 42.8244 75.4896C42.9001 75.3887 42.9556 75.2878 42.9354 75.0457C42.9102 74.6825 42.6882 74.516 42.3755 74.5412Z" fill="#950040"/>
<path d="M45.1952 74.8539C45.4576 74.9397 45.6745 75.0759 45.7602 75.3533C45.9015 75.8124 45.5736 76.3017 45.0792 76.453C44.6 76.6043 44.2166 76.4782 44.141 76.2361C44.1006 76.1049 44.1561 75.9536 44.2973 75.9082C44.4688 75.8527 44.5748 75.9334 44.6555 76.1604C44.7362 76.3975 44.8926 76.4429 45.054 76.3925C45.3264 76.3067 45.4626 76.0394 45.3567 75.6913C45.2659 75.4088 45.049 75.2575 44.822 75.2524C44.6706 75.2524 44.5445 75.3331 44.5294 75.2827C44.5042 75.207 44.6605 75.2423 44.8018 75.1011C44.8976 75.0053 44.9128 74.8337 44.8573 74.6471C44.7766 74.3949 44.5647 74.3091 44.2923 74.3949C43.9291 74.5059 43.9795 74.7883 43.914 74.8085C43.8988 74.8136 43.8837 74.8035 43.8786 74.7883C43.8484 74.7026 43.9594 74.2335 44.4234 74.0872C44.7564 73.9812 45.1498 74.072 45.2608 74.4403C45.3062 74.5866 45.2709 74.7076 45.1952 74.8539Z" fill="#950040"/>
<path d="M38.8493 65.5117C38.8795 65.5319 38.9048 65.5369 38.9502 65.5369C39.0511 65.5319 39.1116 65.4764 39.1368 65.4663C39.1469 65.4613 39.1772 65.4461 39.1772 65.4411C39.1772 65.3957 39.0309 65.3402 38.9603 65.3402C38.8745 65.3352 38.7333 65.4159 38.7333 65.4361C38.7333 65.4562 38.8241 65.4966 38.8493 65.5117Z" fill="#950040"/>
<path d="M39.7019 67.2722C39.7422 67.0654 39.6716 67.1209 39.2327 67.1057C39.031 67.1057 38.3348 67.0906 38.1381 67.1158C38.0473 67.1259 38.0372 67.2016 38.0372 67.247C38.0372 67.3983 38.0019 67.3832 38.7485 67.3832L39.0411 67.363C39.5051 67.3327 39.6212 67.3882 39.7019 67.2722Z" fill="#950040"/>
<path d="M47.2837 60.5479C47.2837 60.7396 47.3644 60.9111 47.4905 61.0322L47.4956 61.0372L49.7454 63.2921C49.8664 63.4131 49.9421 63.5796 49.9421 63.7612V60.9414C49.9421 60.8102 49.8664 60.6236 49.7706 60.5328L45.044 55.8061C44.9481 55.7103 44.7665 55.6346 44.6354 55.6346H44.2873C44.1965 55.6346 44.1208 55.7103 44.1208 55.8011V58.0458C44.1208 58.182 44.0098 58.293 43.8736 58.2981H43.6214V56.134C43.6214 55.8566 43.3995 55.6346 43.122 55.6346H39.4648C39.1874 55.6346 38.9654 55.8566 38.9654 56.134V58.2981H38.7132C38.577 58.2981 38.466 58.1871 38.466 58.0458V55.8011C38.466 55.7103 38.3903 55.6346 38.2995 55.6346H37.9515C37.8203 55.6346 37.6337 55.7103 37.5429 55.8061L32.8162 60.5328C32.7204 60.6286 32.6447 60.8102 32.6447 60.9414V63.7612C32.6447 63.5796 32.7204 63.4081 32.8414 63.2921L35.0913 61.0372L35.0963 61.0322C35.2224 60.9111 35.3031 60.7396 35.3031 60.5479V61.017C35.3031 61.1986 35.2275 61.3651 35.1064 61.4862L32.8515 63.741C32.7254 63.8621 32.6447 64.0336 32.6447 64.2253V66.7727C32.6447 66.5861 32.7204 66.4196 32.8414 66.3036L35.0913 64.0487L35.0963 64.0437C35.2224 63.9226 35.3031 63.7511 35.3031 63.5594V64.0286C35.3031 64.2152 35.2275 64.3817 35.1064 64.4977L32.8515 66.7576C32.7254 66.8787 32.6447 67.0502 32.6447 67.2419V67.6152C32.6447 67.7463 32.7204 67.933 32.8162 68.0238L33.477 68.6846L35.1013 67.0603C35.2275 66.9392 35.3082 66.7677 35.3082 66.576V67.0451C35.3082 67.2267 35.2325 67.3983 35.1114 67.5143L33.7141 68.9166L37.5025 72.7101L38.5265 70.8638C38.6123 70.7024 38.7888 70.5914 38.9856 70.5914H39.379C39.1773 70.5914 39.0007 70.7074 38.915 70.8739L37.7951 72.8917C37.8506 72.9068 37.901 72.9169 37.9515 72.9169H39.8986L40.2719 70.8638C40.2971 70.7074 40.4384 70.5863 40.5998 70.5863H40.9428C40.7764 70.5863 40.6402 70.7074 40.6099 70.8638L40.2366 72.9118H42.3502L41.9769 70.8638C41.9517 70.7074 41.8105 70.5863 41.649 70.5863H41.987C42.1535 70.5863 42.2897 70.7074 42.32 70.8638L42.6932 72.9169H44.6404C44.6858 72.9169 44.7413 72.9068 44.7968 72.8917L43.6719 70.8739C43.5861 70.7074 43.4096 70.5914 43.2078 70.5914H43.6063C43.803 70.5914 43.9745 70.7024 44.0653 70.8638L45.0894 72.7101L48.8828 68.9166L47.4804 67.5143C47.3594 67.3932 47.2837 67.2267 47.2837 67.0451V66.576C47.2837 66.7677 47.3644 66.9342 47.4905 67.0603L49.1148 68.6846L49.7756 68.0238C49.8664 67.9279 49.9472 67.7463 49.9472 67.6152V67.2419C49.9472 67.0502 49.8664 66.8787 49.7403 66.7576L47.4804 64.4977C47.3594 64.3766 47.2837 64.2102 47.2837 64.0286V63.5695C47.2837 63.7612 47.3644 63.9327 47.4905 64.0538L47.4956 64.0588L49.7454 66.3137C49.8664 66.4348 49.9421 66.6012 49.9421 66.7828V64.2354C49.9421 64.0437 49.8614 63.8722 49.7353 63.7511L49.7302 63.7461L47.4754 61.4963C47.3543 61.3752 47.2786 61.2087 47.2786 61.0271V60.5479H47.2837ZM43.1472 60.7043C43.2229 60.0081 43.238 60.0788 43.6214 59.9375C44.0805 59.8518 44.3327 59.7811 44.5698 59.7912C44.8119 59.7963 45.3466 59.8114 45.8359 59.9981C46.0478 60.0737 45.962 60.1443 45.9721 60.9414C45.9368 61.244 45.9116 61.1936 45.6039 61.2239C45.3517 61.2138 45.2155 61.239 44.8876 61.1482C44.7816 61.017 44.6505 60.3007 44.4084 60.3915C44.3075 60.4672 44.4083 60.4773 44.2368 60.8253C44.2015 60.8808 44.141 61.0473 44.0754 61.123C43.8282 61.239 43.6164 61.2037 43.3339 61.2138C43.0817 61.1936 43.1472 61.0675 43.1472 60.7043ZM42.6529 60.1141C42.6579 59.9678 42.6529 59.9325 42.7689 59.9224C42.9606 59.9173 42.9606 59.988 42.9757 60.0838C42.9757 60.2351 42.9707 60.5479 42.9656 60.8405C42.9656 61.012 42.9656 61.3752 42.8294 61.4256C42.6781 61.4458 42.5873 61.4609 42.5974 61.2894C42.5873 61.1885 42.6378 61.0372 42.663 60.8808C42.6983 60.7295 42.6731 60.3007 42.6529 60.1141ZM42.7437 61.8847C42.9202 61.9553 42.9303 62.5051 42.9303 62.5051C42.9354 62.5758 42.9455 63.055 42.9455 63.2215C42.9505 63.3829 42.9556 63.4989 42.9303 63.5695C42.8748 63.6149 42.8093 63.625 42.7134 63.6048C42.6327 63.5594 42.5924 63.1307 42.5924 62.9945C42.5924 62.8532 42.5873 62.5253 42.547 62.2075C42.5066 61.8847 42.5369 61.92 42.7437 61.8847ZM42.0829 61.5871C42.103 61.355 42.1686 60.5479 42.1434 60.3461C42.1484 60.215 42.1283 60.0233 42.1737 59.877C42.1938 59.8114 42.2594 59.8013 42.3754 59.7912C42.5621 59.7559 42.5217 60.4117 42.5217 60.4117C42.5066 60.9767 42.3502 62.0915 42.3502 62.3841C42.2947 62.8633 42.5217 64.1395 42.3956 64.2556C42.3553 64.2757 42.1938 64.301 42.1535 64.2203C42.0324 63.8772 42.0274 63.3476 42.0022 62.8936C41.9719 62.3841 42.0627 61.8241 42.0829 61.5871ZM41.5885 60.8455C41.644 60.5025 41.6188 60.109 41.649 60.0031C41.6844 59.9678 41.7701 59.9426 41.876 59.9678C42.0022 60.0586 42.0425 61.1684 41.76 61.3903C41.6743 61.3903 41.5734 61.4004 41.5431 61.3399C41.5028 61.2693 41.5482 61.0927 41.5885 60.8455ZM41.4422 62.3387C41.4422 61.8897 41.4876 61.8141 41.5734 61.6829C41.6692 61.6325 41.7953 61.7031 41.8407 61.7586C41.9013 61.9149 41.7953 62.7019 41.7852 63.055C41.76 63.4031 41.876 63.7562 41.7348 63.8167C41.5885 63.8671 41.4876 63.8217 41.4725 63.7209C41.422 63.2971 41.4422 62.3387 41.4422 62.3387ZM41.0387 67.8119C41.0134 68.3971 41.0034 68.3416 40.5948 68.3416C40.2416 68.3416 39.3589 68.3416 39.3034 68.3466C39.3034 68.4273 39.2832 68.6089 39.2933 68.7754C39.3084 69.0024 39.4345 69.0629 38.5013 69.1588C38.2794 69.1789 36.8719 69.1235 36.7761 68.957C36.6752 68.7855 36.4987 68.508 36.6349 68.2709C36.8316 68.4273 37.0233 68.5484 37.4521 68.7048C37.7951 68.7653 38.35 68.8157 38.6375 68.73C38.8393 68.6442 38.8342 68.5887 38.8191 68.3718C38.1633 68.3315 37.8102 68.3113 37.5933 68.3012C37.2301 68.2558 37.2503 68.2609 37.2452 68.0793C37.2654 67.933 37.3007 67.8977 37.5328 67.9128C37.6639 67.933 37.9414 67.9531 38.3197 67.9531H38.8191V67.6606C38.8191 67.6606 38.3096 67.6807 38.123 67.6707C37.5277 67.6454 37.6236 67.5597 37.5933 67.2873C37.6438 66.803 37.6438 66.8686 38.0826 66.8383C38.4609 66.8333 39.5304 66.8131 39.8078 66.8232C40.2416 66.8635 40.1862 66.8938 40.1761 67.2822C40.1307 67.4991 40.2114 67.5748 39.7876 67.6404C39.712 67.6404 39.2983 67.6707 39.2983 67.6707V67.9531H40.2618C40.2618 67.9531 40.6048 67.9481 40.6048 67.6606C40.6048 67.3781 40.6452 66.9443 40.6452 66.9443C40.6452 66.9443 40.6402 66.6416 40.3425 66.6416C40.05 66.6416 38.4357 66.6164 37.7749 66.6265C37.2604 66.6315 37.2503 66.7122 37.2099 66.8888C37.1645 67.0855 37.1242 67.9027 36.9728 67.8674C36.5895 67.7715 36.6752 67.7312 36.6803 67.5042C36.6954 67.2015 36.7458 66.8888 36.8013 66.5861C36.882 66.3742 36.9174 66.2582 38.1785 66.2633C38.7586 66.2633 40.4636 66.2633 40.4636 66.2633C40.847 66.2885 40.9781 66.2834 41.0336 66.6567C41.079 67.2116 41.0588 67.3882 41.0387 67.8119ZM37.2503 65.2392C37.2503 65.33 37.4016 65.3149 37.6992 65.3048C37.9615 65.3048 37.9464 65.2493 37.9565 65.4612C37.9565 65.5419 37.9666 65.5621 37.79 65.5671C37.1847 65.5974 37.2402 65.5823 37.2402 65.7235C37.2452 65.8446 37.3411 65.8143 37.7093 65.7992C37.9464 65.7891 37.9616 65.7538 37.9817 65.9152C37.9918 66.0161 37.9767 66.0817 37.9767 66.0817C37.8052 66.0817 37.1444 66.1472 36.9779 66.1321C36.8013 66.1069 36.8013 66.122 36.8114 65.7689C36.8316 65.4511 36.8467 65.1484 36.9173 64.8861C36.993 64.7247 37.0031 64.76 37.674 64.7297C38.0271 64.7348 37.9918 64.7096 38.017 64.9467C38.0221 65.0324 38.0423 65.0526 37.4622 65.0829C37.1998 65.0728 37.2452 65.0526 37.2503 65.2392ZM38.244 64.9113C38.2087 64.8912 38.3298 64.7197 38.3954 64.7045C38.4811 64.7197 38.7081 64.8508 38.7788 64.876C38.7989 64.8811 38.8695 64.9164 38.9604 64.9618C39.0057 64.9416 39.036 64.9265 39.0562 64.9164C39.1319 64.871 39.4749 64.6793 39.5657 64.6843C39.5909 64.7045 39.7221 64.9013 39.6363 64.9567C39.5203 65.0324 39.3942 65.1232 39.3084 65.1585C39.4093 65.214 39.49 65.2594 39.5102 65.2695C39.6514 65.3401 39.6817 65.3704 39.6666 65.5167C39.6514 65.5469 39.5859 65.5974 39.5556 65.6075C39.4799 65.6428 39.4144 65.6831 39.3387 65.7185C39.3992 65.7487 39.4648 65.779 39.5253 65.8093C39.7927 65.9606 39.7776 65.9253 39.6968 66.0615C39.596 66.2027 39.4497 66.1271 39.3841 66.1018C39.3488 66.0867 39.142 66.0009 38.9553 65.9001C38.8393 65.9656 38.693 66.0463 38.5568 66.1069C38.3702 66.1926 38.3399 66.1977 38.2743 66.1069C38.1633 65.9455 38.2289 65.9505 38.4206 65.8395C38.4408 65.8294 38.5316 65.784 38.6022 65.7386C38.5215 65.6983 38.4256 65.663 38.3298 65.5974C38.3046 65.5823 38.2289 65.5419 38.2239 65.4915C38.2239 65.4208 38.1936 65.3502 38.4055 65.2342C38.471 65.1989 38.5265 65.1737 38.5921 65.1434C38.4408 65.0778 38.2945 64.9971 38.244 64.9113ZM40.9479 66.0817C40.8066 66.1119 40.0045 66.1321 39.9894 66.1271C39.9138 66.122 39.9037 66.1321 39.9087 66.0211C39.9037 65.8647 39.9188 65.8496 40.1862 65.8547C40.4485 65.8597 40.6553 65.8799 40.6553 65.7235C40.6553 65.6024 40.625 65.5823 40.1962 65.5974C39.9491 65.6024 39.9642 65.5974 39.9491 65.5469C39.9188 65.3956 39.8835 65.3099 40.0954 65.2998C40.393 65.2745 40.6402 65.2947 40.6553 65.2241C40.6856 65.098 40.6553 65.0526 40.4182 65.0677C39.9188 65.103 39.8936 65.1383 39.8885 64.982C39.8885 64.8306 39.823 64.7852 40.2215 64.7651C40.625 64.76 40.9479 64.7096 40.9731 64.8912C41.0437 65.103 41.0437 65.3855 41.0588 65.7992C41.0689 66.0716 41.0538 66.0615 40.9479 66.0817ZM40.8823 64.3817C40.7461 64.4523 40.2366 63.7511 39.8784 63.2971C39.7523 63.1407 39.2983 62.7473 38.8948 62.7271C38.2844 62.6918 37.447 63.7713 37.2402 64.1395C37.1343 64.301 37.0132 64.4674 36.8366 64.3817C36.6702 64.2757 36.6752 64.2808 36.7711 64.0033C36.9426 63.5947 37.6992 62.7675 38.0221 62.5354C38.3651 62.2126 38.4509 62.1722 38.5618 61.7888C38.6173 61.0927 38.5971 60.9262 38.3954 60.8909C38.1936 60.8707 37.2957 60.7396 37.2604 61.2945C37.2301 61.7687 37.2301 61.9755 37.2301 62.1672C37.2301 62.4497 37.2099 62.4043 36.9274 62.4043C36.7458 62.4043 36.8417 61.4559 36.8417 60.8153C36.9375 60.4268 37.1746 60.4975 37.563 60.4672C37.7648 60.4874 38.0271 60.4672 38.1633 60.4672C38.4862 60.4672 38.5618 60.3007 38.582 60.0435C38.6022 59.7761 38.6325 59.766 38.8544 59.7307C39.0562 59.7004 39.036 59.8518 39.0764 60.0586C39.147 60.3713 39.0411 60.3966 39.4951 60.4218C39.8835 60.4218 40.1811 60.4319 40.3476 60.442C40.7259 60.4773 40.9327 60.442 40.958 61.0221C40.9731 61.5114 41.0942 61.9704 40.9479 62.147C40.8873 62.2227 40.7108 62.3135 40.5847 62.2933C40.4283 62.2075 40.7562 61.1331 40.3526 60.9464C40.1105 60.8354 39.4345 60.8354 39.2378 60.9313C39.0512 61.0221 39.1268 61.4055 39.1066 61.6779C39.1066 61.8948 39.1066 62.1218 39.5506 62.4143C39.9995 62.7473 40.4081 63.1609 40.8167 63.6553C41.0538 63.9226 41.2707 64.2657 40.8823 64.3817ZM41.1345 58.2981H39.142C39.142 58.0206 39.3639 57.7987 39.6414 57.7987H40.8873C41.0235 57.7987 41.1345 57.9096 41.1345 58.0458V58.2981ZM43.0363 66.9291C42.9556 67.0048 42.6731 67.0451 42.6125 67.1359C42.552 67.2267 42.5722 67.8876 42.6125 67.9279C42.663 67.9834 42.7992 67.9481 43.0009 67.9279C43.1573 67.9229 43.2078 68.4021 43.0918 68.4172C42.9707 68.4374 42.5318 68.4879 42.2998 68.5131C42.0526 68.5433 41.9114 68.5635 41.6743 68.5585C41.4523 68.5585 41.4574 68.4425 41.4372 68.276C41.4372 68.0843 41.417 68.0187 41.5986 68.0439C41.7752 68.049 41.8962 68.0742 42.0576 67.938C42.1737 67.8422 42.1081 67.595 42.1232 67.4083C42.1182 67.2419 42.1636 67.0855 41.9265 67.146C41.5936 67.2217 41.5734 67.2772 41.5734 66.7072C41.5734 66.5054 41.5683 66.3137 41.5835 66.1775C41.6036 65.9051 41.5431 65.7639 41.8861 65.6932C42.0324 65.663 41.9568 66.1119 41.9517 66.3187C41.9517 66.5205 41.9265 66.7324 42.0375 66.7324C42.32 66.7526 42.1535 66.122 42.1737 65.5873C42.1838 65.2342 42.1131 65.0728 42.3906 65.0223C42.6378 64.987 42.5823 65.0778 42.5924 65.3704C42.5974 65.6478 42.5823 66.6012 42.6983 66.5911C42.9303 66.576 42.89 65.7689 42.8748 65.6277C42.8698 65.4107 42.8294 65.3149 43.0514 65.2998C43.2229 65.2897 43.228 65.2796 43.2582 65.4713C43.2885 65.6731 43.2935 65.8647 43.2935 66.0161C43.2784 66.2128 43.2683 66.3137 43.228 66.5256C43.1926 66.7627 43.117 66.8535 43.0363 66.9291ZM44.0754 69.1184C43.9544 69.1487 43.9039 69.1436 43.7475 69.1184C43.6366 69.0982 43.5811 68.9721 43.4903 68.6846C43.4449 68.5282 43.4045 68.3769 43.3339 68.0086C43.2935 67.595 43.238 67.2621 43.3238 67.0502C43.3642 66.8989 43.455 66.6719 43.5458 66.4953C43.6164 66.3238 43.682 66.1926 43.7677 65.89C43.8232 65.5923 43.8182 65.5671 43.7677 65.3149C43.7526 65.214 43.682 65.0829 43.6315 64.9467C43.5508 64.7701 43.5004 64.6793 43.7021 64.6541C43.9998 64.6339 43.9745 64.6642 44.1107 64.8609C44.252 65.1837 44.252 65.3099 44.2621 65.4158C44.2923 65.663 44.2822 65.9404 44.0502 66.4549C43.8232 66.8989 43.7324 67.0855 43.7627 67.5092C43.798 67.9834 43.9039 68.4879 43.9695 68.6644C43.9998 68.7956 44.1662 69.0932 44.0754 69.1184ZM44.7968 68.4626C44.8876 68.7754 45.0894 69.0528 44.9582 69.0881C44.8523 69.1134 44.6656 69.0982 44.6051 69.0327C44.479 68.8965 44.363 68.6392 44.2822 68.2306C44.2217 67.7917 44.1814 67.5143 44.2268 67.1158C44.363 66.5205 44.6656 66.3339 44.7161 65.8345C44.7463 65.5167 44.711 65.4158 44.6606 65.2796C44.5799 65.0425 44.2974 64.6743 44.6202 64.6743C44.822 64.6743 44.822 64.6995 44.9027 64.7651C45.0288 64.8609 45.1701 65.2897 45.1902 65.5369C45.2205 65.9051 45.054 66.2733 44.9279 66.5911C44.7867 66.9543 44.6454 67.1561 44.6454 67.5092C44.6707 67.7413 44.6959 68.0591 44.7968 68.4626ZM45.9469 66.2128C45.7855 66.8232 45.6442 66.7526 45.5282 67.4235C45.5282 67.6807 45.6644 68.2457 45.7199 68.4576C45.7552 68.6543 45.9469 69.0427 45.8511 69.073C45.7552 69.1033 45.5434 69.0528 45.4677 68.9923C45.3567 68.9065 45.2659 68.5131 45.2205 68.3769C45.1348 67.9935 44.9834 67.3226 45.2659 66.7778C45.3466 66.6012 45.4778 66.3742 45.5534 65.9303C45.5534 65.33 45.5181 65.2594 45.4324 64.982C45.3668 64.8205 45.281 64.6944 45.4273 64.6843C45.8712 64.6843 45.8158 64.8205 45.9419 65.1131C46.0226 65.4662 46.0327 65.6024 45.9469 66.2128ZM45.841 64.1597C45.5988 64.2455 45.619 64.1295 45.6089 63.7864C45.5988 63.5645 45.6291 62.8683 45.3214 62.7675C45.0591 62.6413 44.817 62.6363 44.7615 62.717C44.7211 62.7775 44.7362 64.0033 44.7362 64.0033C44.7413 64.2909 44.6152 64.2455 44.484 64.2303C44.2368 64.1648 44.2671 64.0235 44.2722 63.7965C44.2772 63.5645 44.2772 62.7422 44.2368 62.6968C44.2015 62.6565 43.7324 62.6313 43.6517 63.1256C43.576 63.5947 43.5256 63.9075 43.5054 64.0084C43.4953 64.0689 43.4802 64.1496 43.4348 64.1648C43.349 64.195 43.1725 64.2303 43.1422 64.1849C43.0918 64.0084 43.1372 63.7461 43.1674 63.4485C43.2229 63.1407 43.2935 62.9137 43.3894 62.6413C43.4247 62.4648 43.9039 62.3437 44.1763 62.2277C44.3377 62.1823 44.2923 61.9351 44.2419 61.925C44.1561 61.9049 43.8383 61.9503 43.6366 61.9704C43.4953 61.9704 43.3692 62.0814 43.2633 61.8393C43.2078 61.7182 43.1826 61.6123 43.5155 61.5921L43.9493 61.5568C43.9493 61.5568 44.257 61.5467 44.2772 61.4963C44.2772 61.4155 44.2923 61.2693 44.368 61.1482C44.3932 61.1129 44.5193 61.128 44.595 61.1331C44.7615 61.1785 44.6959 61.1885 44.7262 61.3903C44.7362 61.4862 44.7009 61.5114 45.2457 61.4963C45.6291 61.4862 45.9116 61.4408 45.8965 61.5921C45.9015 61.6678 45.9015 61.8241 45.8612 61.8645C45.8057 61.92 45.6997 61.8998 45.5181 61.9099C45.2508 61.9099 44.817 61.925 44.7514 61.9351C44.711 61.9553 44.7161 62.036 44.7362 62.1167C44.7615 62.1773 44.7211 62.1873 44.9733 62.2428C45.8107 62.49 45.8006 62.4396 45.9318 62.9793C46.0125 63.4384 46.0024 63.6906 46.0074 63.8268C46.0024 63.9731 46.0629 64.079 45.841 64.1597Z" fill="#950040"/>
<path d="M45.3415 60.7749L45.5433 60.7649C45.6492 60.7396 45.6341 60.5833 45.5786 60.3563C45.513 60.2201 45.3213 60.2301 45.1347 60.2352C45.059 60.2402 45.0086 60.2503 45.0288 60.3663C45.1044 60.8153 45.1246 60.7447 45.3415 60.7749Z" fill="#950040"/>
<path d="M43.5812 60.8002L43.7275 60.7901C44.02 60.7699 44.0049 60.6085 44.0402 60.3664C44.0554 60.2655 43.8939 60.2907 43.7325 60.321C43.5812 60.3512 43.5761 60.3462 43.5459 60.4572C43.5156 60.5581 43.4752 60.7699 43.5812 60.8002Z" fill="#950040"/>
</g>
<defs>
<filter id="filter0_d_192_935" x="0" y="0" width="154" height="157" filterUnits="userSpaceOnUse" color-interpolation-filters="sRGB">
<feFlood flood-opacity="0" result="BackgroundImageFix"/>
<feColorMatrix in="SourceAlpha" type="matrix" values="0 0 0 0 0 0 0 0 0 0 0 0 0 0 0 0 0 0 127 0" result="hardAlpha"/>
<feOffset dy="16"/>
<feGaussianBlur stdDeviation="6.5"/>
<feColorMatrix type="matrix" values="0 0 0 0 0 0 0 0 0 0 0 0 0 0 0 0 0 0 0.03 0"/>
<feBlend mode="normal" in2="BackgroundImageFix" result="effect1_dropShadow_192_935"/>
<feBlend mode="normal" in="SourceGraphic" in2="effect1_dropShadow_192_935" result="shape"/>
</filter>
</defs>
</svg>
