<svg width="154" height="157" viewBox="0 0 154 157" fill="none" xmlns="http://www.w3.org/2000/svg">
<g filter="url(#filter0_d_185_402)">
<rect width="128" height="128" transform="translate(13)" fill="white"/>
<path d="M126.458 60.0506C126.208 60.0127 126.15 59.954 125.439 60.3393C124.727 60.7245 124.958 60.3393 125.016 60.1852C125.073 60.031 126.477 56.5306 126.477 56.127C126.477 55.7234 126.881 55.2036 126.881 55.2036C126.938 54.1848 126.131 54.2997 125.927 54.2997C125.723 54.2997 125.631 54.5309 125.823 54.8195C126.015 55.1082 125.88 55.3968 125.88 55.3968C125.88 55.3968 125.06 56.7275 124.322 58.8777C123.822 61.1477 123.418 60.6475 123.379 60.2047C123.341 59.762 123.533 59.8586 124.034 58.7236C124.534 57.5886 123.573 57.377 123.495 57.377C123.418 57.377 122.823 57.3966 122.976 57.262C123.13 57.1275 124.841 55.7613 125.438 55.1852C126.035 54.6079 125.303 54.5309 125.303 54.5309C125.303 54.5309 123.015 56.0499 122.398 56.6468C121.783 57.2424 121.821 56.955 121.879 56.878C121.936 56.8009 122.667 56.1661 123.225 55.6855C123.783 55.2048 123.533 55.0507 123.533 54.8966C123.533 54.7425 122.438 54.1077 122.091 54.0123C121.745 53.9157 121.284 54.4159 121.534 54.5321C121.783 54.6483 121.842 54.8782 121.707 55.1278C121.573 55.3773 120.938 56.5318 120.881 56.6859C120.823 56.8401 120.592 57.3978 120.4 56.878C120.208 56.3582 119.534 55.9937 119.322 55.8971C119.111 55.8004 118.207 55.0128 117.784 55.0311C117.361 55.0495 117.321 55.3186 117.321 55.3186C117.321 55.3186 117.264 55.5497 117.63 55.6843C118.611 56.4156 118.361 56.1845 118.399 57.1654C118.437 58.1463 118.803 57.6656 118.803 58.1084C118.803 58.5511 118.822 59.4354 118.822 59.4354C118.822 59.4354 118.379 60.0702 118.379 60.3967C118.379 60.7233 117.918 60.897 117.956 60.3001C117.994 59.7045 117.802 59.6849 117.687 59.5308C117.572 59.3767 116.61 58.7419 116.398 59.2042C116.378 59.8769 116.802 60.031 116.918 60.4347C117.033 60.8383 116.803 61.0499 116.803 61.8583C117.726 62.6081 117.746 62.6276 118.226 62.0124C118.427 61.6577 118.361 61.1465 118.63 61.1281C119.091 61.0707 119.168 60.8016 119.168 60.8016C119.168 60.8016 119.476 60.1668 119.688 59.8011C119.9 59.4354 120.188 59.3204 120.131 59.4745C120.073 59.6287 120.323 59.7436 120.265 59.9748C120.208 60.2059 119.342 61.4559 119.342 61.4559C119.342 61.4559 116.053 64.3216 114.61 66.0339C115.187 67.6496 115.591 68.0336 117.014 66.303C118.438 64.5723 120.726 63.0337 121.241 62.745C121.756 62.4564 123.111 61.7274 123.111 61.7274C123.111 61.7274 123.727 61.9757 124.342 61.418C124.957 60.8603 124.463 61.1844 124.88 61.0327C126.861 60.3013 125.841 61.2443 125.841 61.2443C125.841 61.2443 125.63 61.2248 124.687 62.0332C123.744 62.8417 122.579 63.1682 122.013 63.5914C121.879 64.0146 121.667 64.0146 121.667 64.0146C121.667 64.0146 121.34 63.9767 120.724 64.0721C120.455 64.9955 120.589 64.9759 121.239 64.938C121.888 64.9001 121.743 64.8805 121.839 65.5495C121.936 66.2186 121.782 66.1684 121.239 66.4766C118.897 66.8032 116.358 68.6696 116.358 68.6696C115.511 69.5734 114.704 69.1503 116.858 70.4577C119.012 72.1505 119.358 71.6698 120.916 72.4195C122.474 73.1693 122.512 72.6507 122.57 71.8043C122.627 70.958 122.166 70.9971 122.32 69.1698C122.474 67.3426 122.159 67.5542 122.417 67.4771C122.972 67.3108 123.148 67.4392 124.456 67.4771C125.706 67.2655 125.379 66.5158 125.244 66.4387C125.11 66.3617 124.744 65.9776 124.533 65.6498C124.321 65.3233 123.84 65.5153 123.609 65.7073C123.378 65.8993 123.051 66.5341 122.551 66.1684C122.166 65.6682 122.878 65.0334 122.994 64.861C123.109 64.6873 123.014 64.3228 122.744 64.3412C122.475 64.3595 122.418 64.0146 122.707 64.0146C123.996 63.611 125.823 62.1494 126.63 61.4559C127.437 60.7624 126.708 60.0885 126.458 60.0506ZM122.19 59.6812C121.887 59.3302 121.804 59.5186 121.722 59.3755C121.64 59.2336 122.19 58.6637 122.19 58.6637C122.19 58.6637 122.393 58.6844 122.414 59.0098C122.435 59.3351 122.638 59.9051 122.313 60.2916C121.987 60.6781 121.316 60.8407 120.806 61.0034C120.296 61.1661 120.339 61.0034 120.339 61.0034C120.339 61.0034 120.674 60.376 121.051 60.3527C122.028 60.2916 122.353 60.0469 122.19 59.6812ZM121.092 58.7395C120.767 59.1724 120.543 59.274 120.441 59.0294L120.971 58.4496C120.97 58.4496 121.417 58.3077 121.092 58.7395ZM119.382 58.8398C119.342 58.0998 119.748 58.0607 119.748 58.0607H119.972C120.196 58.0607 120.257 58.3187 120.44 58.1353C120.624 57.9518 120.379 57.9115 120.704 57.8099C121.03 57.7084 120.824 58.0607 120.824 58.0607C120.824 58.0607 120.297 58.501 120.276 58.5621C120.256 58.6233 119.423 59.5797 119.382 58.8398ZM122.598 61.4914C122.537 61.5318 122.395 61.6137 121.844 61.725C121.295 61.8363 118.242 64.1369 116.961 65.1741C115.679 66.2112 116.106 65.5459 116.106 65.5459C116.106 65.5459 118.08 63.3223 118.751 62.997C119.423 62.6717 119.402 62.0613 119.809 62.0613C120.216 62.0613 120.725 61.7972 121.21 61.725C121.694 61.6528 122.495 61.0755 122.495 61.0755C122.984 61.0058 122.659 61.451 122.598 61.4914ZM123.045 58.8055C122.842 58.9474 122.801 58.6025 122.801 58.3579C122.801 58.2344 123.011 57.9653 123.098 58.0937C123.182 58.2185 123.146 58.7358 123.045 58.8055ZM118.447 70.8724C117.674 70.2009 116.235 70.0725 117.775 69.6114C119.399 68.3785 121.458 67.8611 121.458 67.8611C121.458 67.8611 121.454 68.7699 121.453 69.3056C121.45 70.185 121.449 70.887 121.458 71.035C121.479 71.3811 118.884 71.0106 118.447 70.8724Z" fill="#C8161E"/>
<path d="M104.911 54.9577C104.911 54.9577 106.437 55.8787 106.621 56.4572C106.804 57.0357 106.831 58.0093 106.489 58.9829C106.146 59.9564 105.886 60.93 105.832 61.6137C105.778 62.2974 105.515 63.0875 105.462 63.3505C105.462 63.3505 105.2 63.929 106.12 63.3505C107.041 62.772 107.252 62.8245 107.515 62.6925C107.778 62.5604 108.567 62.4821 107.515 61.4302C107.363 60.6744 108.068 60.5619 108.278 61.0878C108.488 61.6137 108.989 61.7262 108.989 61.7262C108.989 61.7262 110.804 61.5354 109.304 62.8771C107.805 64.2188 107.304 63.6122 106.568 64.1124C105.832 64.6127 105.464 64.5858 105.226 64.7704C104.989 64.9551 104.332 68.48 103.016 69.7691C101.7 71.0583 98.7539 71.479 98.5962 69.9538C99.2273 69.1649 99.3068 69.9807 99.7532 69.9807C100.2 69.9807 101.7 69.9012 103.278 67.2447C104.856 64.5882 104.041 64.9564 103.778 65.2193C103.515 65.4823 100.384 66.8766 100.384 66.8766C100.384 66.8766 99.8584 67.6349 99.2273 66.6381C98.5962 65.6413 99.1478 65.667 99.7275 65.7196C100.306 65.7721 99.9122 65.9825 101.174 65.404C102.121 64.9564 104.358 64.0097 104.358 64.0097C104.358 64.0097 104.822 62.3206 104.822 61.7274C104.822 60.0054 104.822 57.443 104.804 55.9594C104.62 54.8526 104.911 54.9577 104.911 54.9577Z" fill="#C8161E"/>
<path d="M105.592 65.7171C105.592 65.7171 108.764 69.072 109.13 69.1087C109.497 69.1454 110.125 69.1283 110.912 69.017C111.349 69.1087 110.876 69.971 109.738 70.5947C108.601 71.2185 107.784 71.8019 106.865 69.9954C105.947 68.1902 105.152 65.7159 105.152 65.7159C105.152 65.7159 105.226 65.3343 105.592 65.7171Z" fill="#C8161E"/>
<path d="M82.8308 56.341C82.8308 56.341 81.7361 58.6673 81.7594 58.8496C81.7826 59.0318 81.5319 60.1264 82.4895 60.5142C83.4472 60.9019 83.5389 60.0127 83.5389 60.0127L83.5157 59.2605C83.5157 59.2605 84.3829 58.4765 83.4472 58.4765C83.128 58.0974 83.5157 58.0289 83.5157 58.0289L83.4472 56.5465C83.4472 56.5465 83.3335 56.0451 82.8308 56.341ZM85.2488 56.9342C85.2488 56.9342 86.7311 57.7329 87.7341 56.9342C88.737 56.1356 89.7411 56.0218 89.8549 55.9998C89.9686 55.9766 90.4481 55.2244 90.7673 55.1559C91.0865 55.0874 92.3414 55.9313 92.3634 55.9998C92.3854 56.0683 93.0936 56.5698 91.4742 57.0027C89.8549 57.4357 88.9204 58.5988 88.737 58.7358C88.5547 58.8728 87.8931 59.055 88.0533 58.1879C88.6685 57.5262 90.1973 56.3386 88.737 57.0015C88.737 57.0015 88.6453 57.344 88.189 57.4125C88.189 57.4125 87.4821 57.4577 87.4369 57.6864C87.3916 57.9139 87.7328 58.3934 87.7328 58.5303C87.7328 58.6673 88.0068 58.8728 86.8889 59.488C86.8889 59.488 86.341 60.1497 86.2052 59.2825C86.0682 58.4154 84.9736 58.2564 84.8366 58.2111C84.6996 58.1659 84.4489 58.0056 84.7449 57.5494C85.0409 57.0932 85.2488 56.9342 85.2488 56.9342ZM86.001 64.2555C86.4694 64.0733 87.1409 62.7499 87.1874 62.5677C87.2326 62.3855 86.8914 61.906 86.0927 62.1567C85.294 62.4075 85.431 62.1115 85.7735 61.8828C86.1159 61.6553 85.8187 61.1306 85.6597 61.0389C85.5007 60.9471 85.6145 60.8114 85.546 60.2867C85.4775 59.762 84.6091 60.1264 84.6091 60.1264C84.6984 61.3581 84.3596 61.3813 84.3596 61.3813C83.9951 61.4046 83.5842 62.339 83.8814 62.476C84.6568 62.5041 84.1309 63.0692 84.1309 63.0692C84.1309 63.0692 82.6033 64.3693 82.5348 64.2091C82.4663 64.0488 82.3526 63.8446 82.1238 63.8898C81.8963 63.9351 81.7814 63.6844 81.7459 64.779C81.7092 65.8737 82.1923 65.4859 82.4895 65.3942C82.7855 65.3025 83.128 64.8023 83.6527 64.3228C84.1774 63.8434 83.8814 64.6188 83.8814 64.6188L83.5157 64.8243C83.5157 64.8243 83.0142 65.212 83.3787 65.4395C83.7432 65.667 83.4704 66.0094 83.4704 66.0094C83.4704 66.0094 82.2156 67.1493 81.6921 67.674C81.1674 68.1987 81.8058 68.1535 81.8058 68.1535C81.8058 68.1535 82.832 67.4013 83.128 67.1505C83.424 66.8998 83.4472 66.6026 83.5157 67.0368C83.5842 67.4698 83.4019 67.5383 83.4019 67.5383C83.4019 67.5383 82.4443 68.1315 81.9648 68.4507C81.4854 68.7699 81.5319 68.4959 81.5319 68.3137C81.5319 68.1315 81.0989 67.5835 80.3235 69.2714C80.4605 71.0497 81.7606 69.8866 82.6571 69.1344C83.5548 68.3822 83.2417 69.6138 83.2417 69.6138C83.2417 69.6138 83.1965 70.0933 82.8308 70.344C82.4651 70.5947 82.7256 71.786 83.1268 72.3278C83.7199 72.647 83.583 72.5333 83.9939 72.2141C84.4049 71.8948 84.6324 70.5947 84.6079 70.0248C84.5834 69.4548 84.7926 69.1356 84.8611 68.6109C84.9296 68.0862 84.8611 68.1779 85.5912 67.7902C87.1653 67.1065 86.6859 66.6723 86.5489 66.3763C86.4119 66.0804 86.2297 66.0119 86.2297 65.7147C86.2297 65.4187 86.5257 64.7338 86.0927 64.7338C85.8187 64.7802 85.5325 64.4378 86.001 64.2555ZM85.206 66.6332C84.921 67.0478 84.8427 66.3739 84.8427 66.0889C84.8427 65.8039 85.206 65.1814 85.206 65.1814L85.3613 65.519C85.5166 65.8541 85.491 66.2173 85.206 66.6332ZM85.4909 63.5449L85.5949 62.9285C85.5949 62.9285 86.0621 62.4552 86.1392 62.7402C86.2175 63.0251 86.1392 63.2844 85.8664 63.5449C85.5949 63.8042 85.4909 63.5449 85.4909 63.5449ZM89.5197 61.725C89.5197 61.725 89.1516 61.4547 90.1778 60.9031C90.9141 60.3772 91.2822 60.4298 91.5721 60.4555C91.8619 60.4824 92.8612 60.771 92.2558 61.4816C91.6503 62.1922 90.2829 63.7443 89.9674 63.9547C89.6518 64.165 90.2304 64.5332 90.2304 64.5332C90.2304 64.5332 90.7306 64.5601 90.8358 64.7961C90.941 65.0322 91.1256 65.2695 90.1778 65.7171C90.1778 65.7171 89.2568 65.4541 89.0733 64.6384C88.8899 63.8226 90.02 62.1396 90.2573 61.928C90.4945 61.7177 90.9936 61.2443 90.1521 61.6125C89.3094 61.9818 89.5197 61.725 89.5197 61.725Z" fill="#C8161E"/>
<path d="M88.8361 63.0789L88.9412 65.7171C88.9412 65.7171 89.3363 66.1904 88.9412 67.2435C88.5462 68.2953 88.9058 68.5057 88.9767 68.6647C89.0464 68.8225 88.8361 69.0072 89.5736 68.9277C90.3111 68.8482 93.0202 68.5326 93.3357 68.3492C93.6513 68.1657 93.6256 65.8003 93.3357 65.1802C93.0459 64.5601 93.3357 63.6611 93.9412 64.9551C94.0684 65.2267 94.5197 65.9544 94.5197 66.4289C94.5197 66.9023 94.4928 67.586 94.9404 68.4287C95.1288 69.3753 95.2841 69.9807 91.8497 70.0076C88.5731 70.3244 88.0998 70.3501 87.3635 69.1919C87.3635 69.1919 87.0479 66.9854 87.7585 65.1814C88.4679 63.3761 88.8361 63.0789 88.8361 63.0789Z" fill="#C8161E"/>
<path d="M66.8367 54.1884C66.8367 54.1884 67.1596 53.9194 67.6439 54.1884C68.1282 54.4575 69.0431 54.4037 69.3391 55.3455C69.6351 56.2872 68.6664 56.5294 68.3704 56.7716C68.0744 57.0137 63.9306 63.2575 63.5001 63.3113C63.0696 63.3651 62.7736 63.7688 62.9889 62.4772C63.9306 61.4902 66.9981 56.9342 67.3479 56.1796C67.6977 55.425 67.617 55.4262 67.2941 55.1302C66.9712 54.8342 66.7021 54.6997 66.8367 54.1884ZM64.8455 62.5029C64.8455 62.5029 67.8861 59.9736 68.4242 59.9467C68.9624 59.9197 69.7158 60.5924 69.07 61.2248C68.4242 61.8571 67.321 62.5567 67.9937 62.8527C68.6664 63.1487 69.1776 63.7675 67.8322 63.9021C66.4869 64.0366 66.5676 63.7553 66.3254 63.4116C66.2814 63.178 66.729 62.745 66.7829 62.6374C66.8367 62.5298 66.9443 62.0724 65.8949 62.7181C64.8455 63.3639 64.8455 62.5029 64.8455 62.5029ZM64.4419 64.1442C64.4419 64.1442 65.007 64.1296 65.0608 65.4016C65.3567 66.7005 65.7065 66.1892 65.572 67.8575C65.5255 68.4311 65.5182 68.7992 64.6033 69.176C63.6909 69.2102 63.5808 66.6601 63.7692 66.4583C63.9576 66.2565 64.2535 66.1476 64.2804 65.4016C64.3074 64.6555 64.119 64.3595 64.4419 64.1442ZM65.9756 65.1129C65.9756 65.1129 67.7246 64.3057 68.2897 64.3595C68.8547 64.4133 69.4467 64.0097 68.8547 66.0547C68.2628 68.0996 67.9166 68.0997 67.5375 68.1535C67.1583 68.2073 65.9744 67.8844 66.3242 66.6601C67.0813 66.0816 67.5375 65.9201 66.4318 65.8663C65.3568 65.4896 65.9756 65.1129 65.9756 65.1129ZM74.9909 61.1037L72.9459 61.9415C72.9459 61.9415 72.919 61.5611 72.6059 61.2651C72.2928 60.9691 72.6059 60.6732 72.6059 60.6732C72.6059 60.6732 74.372 59.543 75.2869 58.8704C76.2017 58.1977 75.6636 57.4981 75.0178 57.5519C74.372 57.6057 70.4166 59.5039 70.4166 59.5039C70.4166 59.5039 69.8515 60.2965 71.0355 60.2695C72.6108 60.2341 71.7082 60.6463 71.466 61.3458C71.2238 62.0454 72.0311 61.5342 71.6543 62.2876C71.2776 63.041 71.7889 62.476 71.3045 63.4116C70.8202 64.3473 70.013 64.3571 69.3953 65.1129C68.9929 66.0278 70.1744 65.7856 70.4166 65.5703C70.6588 65.3551 71.3315 64.0635 71.3584 64.3571C71.3853 64.6506 71.466 65.678 71.0893 66.2577L70.9547 68.9069C70.9547 68.9069 70.6049 71.2209 70.8202 72.0551C71.0355 72.8892 71.466 73.239 71.6543 73.239C71.8427 73.239 72.2732 72.1627 72.4616 71.3824C72.6499 70.6021 72.4078 67.131 72.4885 66.2577C72.5692 65.3844 72.7037 65.9201 73.2419 65.8125C73.78 65.7049 74.6142 64.6555 75.9326 62.7181C77.2511 60.7808 74.9909 61.1037 74.9909 61.1037ZM74.7022 62.6227C73.7067 63.6171 73.0645 64.6261 73.0645 64.6261C73.0645 64.6261 72.3955 64.823 72.8285 63.5388C73.2615 62.2546 73.9806 62.0724 74.4784 61.9023C74.9762 61.7323 75.6966 61.6272 74.7022 62.6227Z" fill="#C8161E"/>
<path d="M57.1634 59.7864C56.9542 59.7338 55.7495 60.0225 55.226 60.546C54.3992 61.1648 52.2197 62.5249 52.2197 62.5249C52.2197 62.5249 50.4071 63.8189 50.6958 63.3468C50.9832 62.8759 51.7171 61.8021 51.9005 61.4877C52.084 61.1734 53.9956 60.0213 53.9956 60.0213C53.9956 60.0213 54.2317 59.7338 55.0169 59.4709C55.4095 59.34 55.933 59.4709 55.4878 58.5548C55.1967 57.9543 54.2831 58.1756 54.1791 58.2148C53.9699 58.2931 53.3939 58.6074 53.367 58.3982C53.3401 58.1891 53.4453 57.5348 53.5504 56.7226C53.6556 55.9105 52.3457 54.707 51.4553 54.5492C51.3428 54.5297 50.8181 54.4575 50.801 54.9944C51.525 55.3345 51.3012 58.2405 51.0627 59.3669C51.2193 59.9687 48.7841 60.6499 48.5493 60.7282C48.3145 60.8065 46.8994 60.7539 46.8211 60.8334C46.7428 60.9129 46.4542 61.9598 47.0572 61.9329C47.6601 61.906 48.0001 61.9855 48.1041 62.0895C48.2081 62.1934 48.1041 62.4821 49.4128 62.246C50.7215 62.01 50.0671 62.6655 50.0671 62.6655L49.7271 63.1107C48.2607 64.9441 48.6007 64.6029 47.5794 65.0224C46.7159 65.8859 45.746 65.5728 45.1969 66.2002C45.5638 66.8546 45.1712 66.698 45.2495 67.9541C45.3277 69.2102 45.066 68.7919 45.066 69.9184C45.9295 71.7517 46.6376 70.3892 46.6376 70.3892C47.2137 69.1319 46.2707 67.6655 46.009 67.4832C45.817 67.1982 45.9295 66.802 46.009 66.4876C46.3759 66.3311 48.575 65.6755 48.575 65.6755C49.3076 66.095 49.858 66.5133 50.5392 66.1733C51.2205 65.8333 51.7171 64.5503 52.2148 64.3399C52.7126 64.1296 52.5292 64.6017 52.5292 64.6017C52.5292 64.6017 50.8536 66.8533 50.7484 67.0625C50.6432 67.2716 50.4341 67.1408 50.3032 67.219C50.1723 67.2973 49.8323 67.9003 50.4084 67.926C50.9844 67.9517 50.8536 68.2134 50.7753 68.3186C50.697 68.4238 50.3558 68.4238 50.3558 68.4238C50.094 68.6855 49.6745 69.0524 49.9632 69.7324C50.2518 70.4125 50.2249 69.9416 50.6652 69.6799C51.1055 69.4181 50.9575 69.9673 50.9062 70.0468C50.8548 70.1263 50.6652 70.5446 50.6652 70.5446C50.7129 71.3824 51.037 71.2258 51.9005 70.9372C52.764 70.6485 52.5292 69.4707 52.5023 69.1564C52.4754 68.8421 52.4766 68.3186 52.8949 68.4751C53.3132 68.6317 54.9374 70.3085 55.5392 70.8051C56.1409 71.3017 57.0105 70.9788 57.0839 70.5177C57.293 68.0299 57.1622 62.52 57.896 61.3789C58.2629 59.8904 57.3725 59.839 57.1634 59.7864ZM56.3256 62.0638C56.169 62.9273 56.1421 68.2171 56.0639 68.7405C55.9856 69.264 55.6712 69.5258 54.99 69.1075C54.3087 68.6892 53.6018 68.1645 53.6018 68.1645C53.6018 68.1645 54.047 67.4049 52.8949 67.5358C52.6588 67.5615 52.7102 67.1689 53.0771 67.1689C53.444 67.1689 53.444 66.2528 53.1823 66.2785C52.9206 66.3042 52.3445 66.5402 52.8949 65.7024C53.4453 64.8646 53.6544 65.1007 53.8905 64.812C54.1265 64.5234 55.1991 63.8434 53.8905 63.2404C52.7383 63.0838 52.2968 63.9253 51.8222 64.2873C51.2719 64.5234 50.5918 65.36 50.3827 65.4003C50.1735 65.4395 49.5975 65.4138 49.8066 65.0212L55.8547 61.5648C55.8535 61.566 56.4821 61.2003 56.3256 62.0638ZM40.6397 56.878C40.4575 56.8327 40.1126 56.5282 39.4386 56.9257C38.4822 57.4907 37.9661 57.5115 37.3019 58.1267C36.9154 58.808 36.7564 58.49 36.4617 58.83C36.1669 59.17 36.0275 59.921 36.1217 60.2377C36.3712 60.4652 36.3259 60.7832 36.3259 60.7832C36.2807 61.9635 35.7584 62.7353 35.3499 63.0985C34.9414 63.4618 34.5782 64.9833 34.2369 64.801C33.8969 64.6188 34.2137 64.5063 33.9642 64.3473C33.7147 64.1883 33.2829 64.1883 32.8512 64.3925C32.4194 64.5968 32.1479 64.96 32.2384 64.461C32.3289 63.962 32.6017 63.0985 32.7154 62.35C33.4187 62.0552 35.3939 60.3515 35.7511 59.784C36.1082 59.2165 35.7511 58.967 35.7511 58.967C35.7511 58.967 35.2129 58.8985 34.8264 59.5125C34.4412 60.1252 33.2377 61.2822 33.2609 60.8065C33.2609 59.3987 35.2362 57.4014 35.6227 56.9244C36.0091 56.4474 35.4368 56.0585 35.0772 56.1294C32.7619 58.2405 31.9216 60.9655 31.3309 62.5542C29.3997 63.1303 29.0609 63.9167 28.6744 65.0738C28.2879 66.232 28.6744 69.297 28.5839 69.7276C28.4934 70.1593 28.3111 70.114 28.2206 69.7276C28.1301 69.3411 28.1301 65.777 28.2439 65.0053C28.3576 64.2335 28.8799 63.507 29.1294 63.1438C29.3789 62.7805 29.1269 62.772 29.1269 62.772C27.9711 60.8725 28.0164 60.4873 28.3099 60.0751C28.5056 59.7999 28.8652 58.8814 28.8652 58.8814C29.1428 58.4239 29.0939 57.9164 29.2492 57.443C29.4046 56.9685 29.4694 56.9367 29.6663 56.8547C29.862 56.7728 30.1898 56.8547 30.1898 56.8547C30.1898 56.8547 30.7952 56.6101 30.7781 56.0695C30.7622 55.5301 30.5335 55.2684 30.3524 54.9908C30.1727 54.7131 29.6492 54.1077 28.8811 54.0429C28.113 53.9781 27.7204 54.1738 27.7204 54.1738C27.8109 55.058 27.7889 55.4922 27.8121 56.2187C28.3344 56.8547 28.3344 57.2853 28.1986 57.695C28.0629 58.1035 26.9976 60.9532 27 61.725C27.0685 61.9977 27.2446 62.9175 27.2899 63.485C27.3351 64.0525 27.0856 64.9833 27.0856 64.9833C27.0856 64.9833 27.1994 69.9098 27.7204 70.6816C28.2414 71.4533 28.6059 71.3848 28.7429 71.2723C28.8786 71.1586 29.8326 69.8425 29.3789 69.5245C28.9251 69.2065 28.9704 69.0255 28.9704 69.0255C28.9704 69.0255 29.0609 68.299 29.0841 67.981C29.1074 67.663 29.0609 66.9365 29.1526 66.188C29.2443 65.4395 29.4254 65.3257 29.4926 65.0077C29.5611 64.6897 29.5379 64.576 30.4234 64.099C31.3089 63.622 31.4226 63.6905 31.4226 63.8262C31.4226 63.962 31.2184 64.439 31.1046 65.234C30.9909 66.029 30.8771 65.892 30.6276 66.051C30.3781 66.21 29.8779 66.1648 29.6516 66.5733C29.4241 66.9818 29.5611 67.981 29.5611 67.981C29.5611 67.981 30.1066 69.253 30.7194 68.8898C31.3321 68.5265 31.1511 68.118 31.1511 67.8C31.1511 67.482 30.8111 67.46 30.8784 67.1872C30.9469 66.9145 31.2037 66.6148 31.6501 66.2112C32.6494 65.47 32.3766 66.2797 32.2629 66.5292C32.1491 66.7787 31.6721 67.0515 31.3774 67.8012C31.0826 68.551 32.4219 68.71 32.7399 68.6182C33.0579 68.5277 33.2389 68.4592 33.2389 67.8685C33.2389 67.2777 33.3979 67.3915 33.6927 67.1872C33.9874 66.983 34.9646 65.9837 34.9646 65.9152C34.9646 65.8468 34.9414 65.9385 35.0099 65.4162C35.0784 64.894 35.4001 64.6971 35.4184 65.0297C35.3279 65.7795 34.7604 66.5733 34.6234 66.8913C34.4876 67.2093 34.9867 69.1393 34.6466 69.6163C34.3066 70.0933 34.4192 71.0925 34.4656 71.2283C34.5109 71.364 34.6246 72.3413 35.1236 71.9279C35.6227 71.5157 35.4869 71.3408 35.7817 70.9775C36.0764 70.6143 35.7817 69.2518 36.0091 69.275C36.2366 69.2983 36.8714 70.3648 37.3716 71.1145C37.8707 71.8643 39.2564 72.5675 39.6649 70.9323C39.3469 68.4115 39.3469 63.2587 39.6649 61.4877C39.9829 59.7167 40.2324 59.0355 40.8232 59.0587C41.7062 57.7415 40.8207 56.9232 40.6397 56.878ZM36.5595 62.2644C36.6305 62.1029 36.8225 62.3145 36.8225 62.3145C36.8225 62.3145 36.9607 62.405 36.8714 62.6178C36.8714 62.6178 36.8836 62.8404 36.7919 62.8698C36.7002 62.8991 36.54 62.7793 36.5595 62.6178C36.5595 62.6166 36.4886 62.4258 36.5595 62.2644ZM36.1327 68.8433C35.981 67.4808 36.2122 65.6645 36.2122 65.6645C36.5069 65.6193 37.1209 66.0278 37.5294 65.437C37.9379 64.8463 38.0615 65.4016 37.9991 65.7599C37.9379 66.1183 38.037 69.615 38.2107 69.9098C37.9991 70.3195 37.3472 69.719 36.1327 68.8433ZM38.8919 59.784C38.8919 59.784 38.3012 61.577 38.3012 62.191C38.3012 62.8038 38.152 63.5987 37.9991 63.8262C37.8474 64.0537 37.4842 64.28 37.6419 63.6672C37.8009 63.0545 38.0737 62.487 38.0957 62.1005C38.1189 61.714 37.2787 61.4877 37.1417 61.4425C37.006 61.3972 36.869 61.193 36.869 61.193C36.869 61.193 37.5502 59.6262 38.5715 59.3315C39.5952 59.0355 38.8919 59.784 38.8919 59.784Z" fill="#C8161E"/>
</g>
<defs>
<filter id="filter0_d_185_402" x="0" y="0" width="154" height="157" filterUnits="userSpaceOnUse" color-interpolation-filters="sRGB">
<feFlood flood-opacity="0" result="BackgroundImageFix"/>
<feColorMatrix in="SourceAlpha" type="matrix" values="0 0 0 0 0 0 0 0 0 0 0 0 0 0 0 0 0 0 127 0" result="hardAlpha"/>
<feOffset dy="16"/>
<feGaussianBlur stdDeviation="6.5"/>
<feColorMatrix type="matrix" values="0 0 0 0 0 0 0 0 0 0 0 0 0 0 0 0 0 0 0.03 0"/>
<feBlend mode="normal" in2="BackgroundImageFix" result="effect1_dropShadow_185_402"/>
<feBlend mode="normal" in="SourceGraphic" in2="effect1_dropShadow_185_402" result="shape"/>
</filter>
</defs>
</svg>
