<svg width="154" height="157" viewBox="0 0 154 157" fill="none" xmlns="http://www.w3.org/2000/svg">
<g filter="url(#filter0_d_185_86)">
<rect width="128" height="128" transform="translate(13)" fill="white"/>
<path fill-rule="evenodd" clip-rule="evenodd" d="M38.3283 53C44.5677 53 49.6565 58.0888 49.6565 64.3284C49.6565 70.5676 44.5677 75.6565 38.3283 75.6565C32.0888 75.6565 27 70.5676 27 64.3284C27 58.0888 32.0888 53 38.3283 53Z" fill="#00A0E9"/>
<path fill-rule="evenodd" clip-rule="evenodd" d="M38.3281 56.7317C42.5121 56.7317 45.9245 60.1441 45.9245 64.3283C45.9245 68.5123 42.5121 71.9248 38.3281 71.9248C34.1439 71.9248 30.7314 68.5123 30.7314 64.3283C30.7314 60.1441 34.1439 56.7317 38.3281 56.7317Z" fill="white"/>
<path fill-rule="evenodd" clip-rule="evenodd" d="M28.3713 65.1636C28.3732 65.2165 28.4601 65.2266 28.5633 65.2618C28.6252 65.2828 28.6884 65.3392 28.7556 65.3459C29.2065 65.4288 29.3265 65.2563 29.4946 64.9089C29.5943 64.9011 29.6942 64.8932 29.7941 64.8852C29.9259 64.8113 30.0097 64.7013 30.0866 64.5862C30.0594 64.3596 30.0748 64.1562 30.1327 63.9759C30.1016 63.9141 30.0705 63.8523 30.0394 63.7904C29.975 63.7961 29.8652 63.7955 29.8067 63.7698C29.7561 63.9926 29.7559 64.0962 29.7385 64.2145C29.8217 64.4912 29.7379 64.6469 29.5663 64.6265C29.5907 64.4579 29.5903 64.3477 29.425 64.0811C29.2809 64.1003 29.1436 64.0819 29.0212 63.9806C28.8963 63.8411 28.7713 63.7015 28.6463 63.562C28.4238 63.6637 28.2558 63.8297 28.0825 64.0022C27.7345 63.9266 27.5046 64.0586 27.4092 64.3079C27.6516 64.281 27.8655 64.2509 27.9906 64.3583C28.1249 64.5992 28.3002 64.7853 28.5162 64.9164C28.7046 64.8238 28.9032 64.7614 29.0696 64.9663C28.8346 65.1284 28.4407 65.099 28.3713 65.1636ZM28.3101 64.1836C28.3518 64.2611 28.4316 64.2988 28.5499 64.2968C28.6336 64.3001 28.7174 64.3034 28.8011 64.3067C28.838 64.2478 28.8449 64.1834 28.8217 64.1136C28.7455 64.0414 28.6695 63.9692 28.5934 63.897C28.5436 63.8083 28.4234 63.8433 28.3306 63.9955C28.3074 64.0593 28.3332 64.1198 28.3101 64.1836ZM28.9453 64.5223C28.9712 64.5083 28.9972 64.4941 29.0232 64.48C29.0243 64.4475 29.0254 64.4148 29.0266 64.3822C28.9841 64.384 28.9836 64.3467 28.9411 64.3484C28.9565 64.3934 28.9299 64.4774 28.9453 64.5223ZM29.1402 64.4939C29.1624 64.4745 29.1846 64.4551 29.2069 64.4356C29.2071 64.3818 29.2074 64.328 29.2077 64.2741C29.1854 64.2935 29.1632 64.313 29.141 64.3324C29.1407 64.3863 29.1404 64.4402 29.1402 64.4939Z" fill="white"/>
<path fill-rule="evenodd" clip-rule="evenodd" d="M29.3783 59.0843C29.3746 59.0212 29.3969 58.9637 29.403 58.8916C29.4099 58.8099 29.4025 58.7132 29.4337 58.6411C29.4682 58.5216 29.5664 58.477 29.6715 58.4768C29.7264 58.4767 29.7875 58.505 29.838 58.5248C30.039 58.7108 30.1713 58.9358 30.2986 59.1849C30.4565 59.1296 30.5351 58.9415 30.647 58.8146C30.6811 58.7759 30.8043 58.6006 30.9248 58.557C30.9972 58.5309 31.0415 58.5828 31.0783 58.6779C31.103 58.7421 30.9175 58.9198 30.9078 58.9788C31.0571 59.1541 31.2109 59.2456 31.3307 59.5738C31.2575 59.6988 31.1735 59.8696 31.0522 59.9879C30.9663 60.0718 30.9162 60.1814 30.8499 60.2531C30.7155 60.1202 30.5546 60.0609 30.3674 60.075C30.2875 60.1157 30.204 60.1194 30.1089 60.0078C30.0572 59.8727 30.2295 59.6823 30.357 59.503C30.3016 59.4966 30.2463 59.49 30.191 59.4835C30.0793 59.3566 30.0028 59.2164 29.8915 59.0157C29.8136 59.0758 29.6885 59.0429 29.6658 58.9605C29.6451 58.8852 29.536 59.0517 29.3783 59.0843ZM30.4247 59.9119C30.5396 59.6755 30.5807 59.5203 30.7229 59.3645C30.8713 59.3919 30.9542 59.4688 30.9714 59.5955C30.8017 59.8872 30.6195 59.9928 30.4247 59.9119Z" fill="white"/>
<path fill-rule="evenodd" clip-rule="evenodd" d="M47.2597 58.9205C47.0574 59.0426 46.8486 59.086 46.6609 59.1761C46.4915 59.2572 46.3311 59.2814 46.1734 59.2548C46.1295 59.1437 46.096 59.0525 46.1069 58.9256C46.0921 58.8185 45.8793 58.7641 45.7191 58.8075C45.7048 58.8284 45.8219 58.8996 45.7936 59.0344C45.7606 59.1927 45.8208 59.3407 45.9081 59.4354C45.7244 59.4747 45.5508 59.4203 45.3785 59.3523C45.0777 59.3133 45.0923 59.4561 45.8005 59.9991C46.0664 60.0101 46.2874 59.9628 46.5384 59.881C46.764 60.1379 47.0949 60.4998 47.2031 60.5316C47.2955 60.4441 47.2037 60.2759 47.2083 60.1362C47.1329 60.0661 47.0576 60.026 46.9658 59.9789C46.8632 59.9263 46.7396 59.8846 46.7277 59.7816C46.9574 59.6555 47.188 59.6686 47.3408 59.4962C47.4325 59.3927 47.5042 59.2636 47.5479 59.1185C47.4908 58.9864 47.3701 59.0932 47.2597 58.9205ZM45.9466 60.1006C46.1374 60.3935 46.2901 60.6822 46.1476 60.981C46.0372 61.1506 45.957 61.0355 45.8708 60.9774C45.802 60.8411 45.71 60.6954 45.778 60.6042C45.8834 60.4628 45.8351 60.2565 45.9466 60.1006Z" fill="white"/>
<path fill-rule="evenodd" clip-rule="evenodd" d="M49.0102 63.6104C48.8263 63.5351 48.6909 63.6305 48.5361 63.8125C48.539 63.9301 48.5608 63.9884 48.6322 64.0054C48.678 64.0163 48.7387 63.9967 48.7953 63.9891C48.852 63.9816 48.905 63.9862 48.9572 63.9624C49.1103 63.8923 49.1908 63.5502 49.0102 63.6104ZM48.9624 64.4633C49.0601 64.3973 49.19 64.3489 49.1103 64.1825C48.9316 64.0966 48.8305 64.2156 48.7912 64.2847C48.7207 64.3315 48.7855 64.3611 48.9624 64.4633ZM49.4295 64.8897C49.1198 64.8295 48.9843 64.7316 48.7319 64.659C48.9219 64.8137 48.9392 64.9924 48.9725 65.1544C49.1252 65.3195 49.2128 65.3668 49.2356 65.2966C49.4126 65.1763 49.5523 65.0508 49.4295 64.8897ZM47.6461 63.4869C47.7815 63.4741 47.9672 63.5106 48.1027 63.4979C48.4174 63.8515 48.4935 64.1974 48.5319 64.8354C48.499 64.9041 48.3781 64.9919 48.3039 64.9906C48.1892 64.9213 48.1752 64.86 48.0608 64.7907C47.8812 64.8632 47.6475 64.7695 47.4101 64.6965C47.3149 64.7238 47.3446 64.8478 47.4042 64.9912C47.4377 65.0718 47.5047 65.1601 47.4676 65.2386C47.3717 65.4415 47.2481 65.3295 47.2361 65.2926C47.1757 65.1089 47.1185 64.9174 47.1465 64.8735C47.0938 64.8609 47.0948 64.894 47.0356 64.8939C46.7609 64.8934 46.6313 64.7962 46.5884 64.6712C46.4213 64.3468 46.4365 64.0884 46.7988 64.0185C46.9767 63.7794 47.1328 63.6686 47.2413 63.8399C47.1452 63.9522 47.2003 64.1767 47.324 64.4524C47.5031 64.5132 47.6823 64.574 47.8612 64.6348C47.851 64.54 47.8321 64.3441 47.6352 64.3286C47.4259 64.3121 47.4513 64.1686 47.4597 64.0991C47.7878 63.8932 47.9258 64.4992 48.1567 64.6207C48.2682 64.4743 48.1226 64.241 47.8761 63.9076C47.8689 63.8933 47.8274 63.785 47.7981 63.7878C47.584 63.8083 47.408 63.5271 47.6461 63.4869ZM46.9697 64.1478C46.9859 64.2992 47.0116 64.4485 47.0276 64.5998C46.948 64.5894 46.9155 64.5688 46.8358 64.5584C46.7906 64.4233 46.7496 64.3239 46.7722 64.2819C46.8394 64.1567 46.8888 64.1181 46.9697 64.1478Z" fill="white"/>
<path fill-rule="evenodd" clip-rule="evenodd" d="M33.9738 54.3256C33.8218 54.5323 33.8156 54.8663 33.8756 55.2581C33.8617 55.3004 33.5483 55.5601 33.5027 55.7937C33.4775 55.9232 33.5037 56.0641 33.5629 56.0032C33.6536 55.9214 33.7443 55.8398 33.835 55.7582C33.8908 55.9903 33.8321 56.2274 33.7498 56.4803C33.7922 56.6978 33.897 56.6847 33.9587 56.6328C34.0838 56.497 34.209 56.3613 34.3342 56.2256C34.3717 56.3297 34.4092 56.4339 34.4467 56.538C34.3957 56.6445 34.3294 56.6014 34.2662 56.5883C34.2689 56.7656 34.5132 56.8447 34.6298 56.7516C34.6246 56.5256 34.4924 56.2852 34.382 56.0098C34.4268 55.7797 34.5526 55.4448 34.5847 55.2044C34.5945 55.1309 34.5231 55.1317 34.5368 55.0613C34.502 55.1073 34.4463 55.1375 34.453 55.2004C34.4704 55.3662 34.2766 55.7963 34.2131 55.644C34.1805 55.5497 34.1759 55.4451 34.1433 55.3508C34.1179 55.2773 34.0645 55.214 34.0392 55.1405C33.9869 54.9556 34.0296 54.782 34.0988 54.6117C34.1606 54.3477 34.1879 54.1399 33.9738 54.3256ZM34.828 53.9817C34.8868 54.159 34.9303 54.4073 34.9662 54.593C34.8444 54.6563 34.7222 54.6546 34.6004 54.7181C34.5896 54.8273 34.6145 54.8765 34.6491 54.9697C34.6791 55.0897 34.6225 55.2646 34.7294 55.3405C34.7733 55.3468 34.8489 55.3198 34.8928 55.3261C34.7792 55.5588 34.6905 55.6384 34.7724 55.7884C34.7952 55.8969 34.8696 55.9246 34.9536 55.8626C35.0666 55.8293 35.1658 55.7573 35.2787 55.7241C35.314 56.2641 35.6638 56.5273 35.8572 56.9014C35.8042 56.2977 35.728 55.8117 35.675 55.2081C35.8702 55.0337 35.7478 54.7771 35.4533 54.7788C35.239 54.2415 35.004 53.8029 34.828 53.9817ZM34.0715 55.9095C34.1167 55.8933 34.1637 55.9082 34.1761 55.9428C34.1886 55.9773 34.1619 56.0188 34.1167 56.035C34.0715 56.0513 34.0245 56.0364 34.0121 56.0018C33.9996 55.9672 34.0264 55.9258 34.0715 55.9095ZM34.8449 55.0751C34.9236 55.1122 35.0142 55.1014 35.1167 55.0427C35.107 54.9554 35.061 54.9284 34.9577 54.9039C34.8406 54.9424 34.7962 54.9801 34.8449 55.0751ZM35.0117 55.5384C35.0904 55.5755 35.1103 55.4593 35.2128 55.4006C35.1718 55.2666 35.0972 55.3152 35.0939 55.3126C34.9769 55.3511 34.9629 55.4434 35.0117 55.5384Z" fill="white"/>
<path fill-rule="evenodd" clip-rule="evenodd" d="M41.6265 54.5162C41.5148 54.644 41.411 54.7871 41.3152 54.9453C41.2772 55.1073 41.1341 55.0364 40.976 54.9323C40.9421 55.0588 41.0035 55.1538 41.1423 55.2759C41.0659 55.4609 40.985 55.6707 40.9 55.7677C40.8716 55.8001 40.8428 55.8199 40.8135 55.8221C40.651 55.8817 40.5583 55.8876 40.4194 55.8687C40.4513 56.161 40.391 56.2285 40.5812 56.2832C40.6361 56.2216 40.7635 56.2035 40.8184 56.142C40.8169 56.2258 40.8893 56.2785 40.8878 56.3623C40.9729 56.3551 41.0502 56.3848 41.1147 56.2569C41.1329 56.1179 41.1511 55.9791 41.1693 55.8401C41.373 55.7731 41.6003 55.5874 41.8075 55.3215C41.87 55.3979 41.9383 55.5142 42.0642 55.5707C41.9868 55.6073 41.9132 55.6665 41.8358 55.7033C41.7498 55.689 41.7158 55.68 41.6299 55.6658C41.6178 55.7646 41.55 55.8355 41.538 55.9343C41.6748 56.0783 41.8116 56.2222 41.9484 56.3662C41.774 56.3796 41.5869 56.3695 41.4978 56.2727C41.4286 56.1972 41.4349 56.0572 41.4472 55.9118C41.3342 55.9679 41.2239 56.2398 41.192 56.407C41.4701 56.5615 41.7956 56.6306 42.1296 56.6021C42.2472 56.671 42.164 56.8718 42.2817 56.9407C42.5063 57.0721 43.025 56.9926 43.2497 57.1242C43.2225 57.0901 43.2363 57.0589 43.1929 57.0327C43.0487 56.9455 42.8585 56.8617 42.7153 56.7348C42.5572 56.5947 42.4923 56.5054 42.4084 56.398C42.6564 56.175 42.8668 55.7728 42.7353 55.6239C42.6839 55.5655 42.5414 55.6432 42.3864 55.6394C42.4295 55.537 42.5035 55.4157 42.6985 55.4746C42.8022 55.5061 42.8986 55.3911 42.9986 55.3493C43.052 55.2331 43.1016 55.0942 43.1 54.9827C42.877 55.0947 42.7459 55.1631 42.5889 55.1524C42.724 54.9134 42.7254 54.691 42.5933 54.4854C42.4129 54.7338 42.2937 54.9686 42.2841 55.1262C42.0733 55.3042 41.9554 55.14 41.7734 55.221C41.6642 55.2694 41.5519 55.3677 41.3564 55.4737C41.261 55.3372 41.3193 55.2567 41.5586 55.1277C41.7816 55.0076 41.8511 54.5607 41.6265 54.5162ZM42.0795 55.9915C42.1711 55.9371 42.2889 55.8909 42.4328 55.8525C42.4501 56.0066 42.3018 56.0508 42.2122 56.2249C42.0676 56.1223 42.0068 56.0563 42.0795 55.9915Z" fill="white"/>
<path fill-rule="evenodd" clip-rule="evenodd" d="M36.5987 72.8697H36.6459L36.4351 73.6973L36.2589 74.4683C36.2442 74.5354 36.2368 74.5785 36.2368 74.5974C36.2368 74.6204 36.2484 74.6367 36.2715 74.6461C36.2945 74.6555 36.3302 74.6624 36.3784 74.6665C36.4225 74.6687 36.4676 74.675 36.5138 74.6854L36.4823 74.761C36.3019 74.7379 36.1477 74.7264 36.0197 74.7264C35.8917 74.7264 35.7543 74.7379 35.6074 74.761L35.6326 74.6854C35.7564 74.6602 35.843 74.6393 35.8923 74.6225C35.9416 74.6057 35.9783 74.5648 36.0024 74.4998C36.0265 74.4347 36.0459 74.376 36.0606 74.3235L36.2274 73.6878C36.2819 73.4403 36.3092 73.3039 36.3092 73.2788C36.3092 73.241 36.2935 73.2221 36.262 73.2221C36.2389 73.2221 36.1372 73.2641 35.9568 73.348L35.9253 73.2693C36.1225 73.177 36.2615 73.1078 36.3422 73.0616C36.423 73.0155 36.5085 72.9515 36.5987 72.8697ZM37.0481 74.7704L37.067 74.6792C37.5453 74.6687 37.8579 74.4232 38.0048 73.9428C37.8915 74.0372 37.7751 74.0844 37.6555 74.0844C37.5338 74.0844 37.4383 74.0424 37.3691 73.9585C37.2999 73.8746 37.2653 73.7571 37.2653 73.6061C37.2653 73.4026 37.3214 73.2321 37.4336 73.0946C37.5459 72.9573 37.689 72.8886 37.8632 72.8886C38.0079 72.8886 38.1244 72.9436 38.2125 73.0538C38.3006 73.1639 38.3446 73.3123 38.3446 73.499C38.3446 73.8305 38.2272 74.1253 37.9922 74.3833C37.7572 74.6414 37.4425 74.7704 37.0481 74.7704ZM38.0331 73.8232C38.0625 73.6595 38.0772 73.5284 38.0772 73.4298C38.0772 73.283 38.0541 73.1702 38.0079 73.0915C37.9618 73.0128 37.8978 72.9735 37.816 72.9735C37.7257 72.9735 37.656 73.0234 37.6067 73.123C37.5574 73.2227 37.5328 73.3616 37.5328 73.5399C37.5328 73.6847 37.5542 73.7912 37.5973 73.8594C37.6403 73.9276 37.6932 73.9616 37.7562 73.9616C37.8359 73.9616 37.9282 73.9155 38.0331 73.8232ZM39.9553 72.8445H40.0402L39.9301 73.0711C39.9154 73.1046 39.8514 73.1214 39.7381 73.1214C39.4906 73.1214 39.3416 73.1266 39.2913 73.1372C39.2556 73.2253 39.2378 73.2851 39.2378 73.3165C39.2378 73.3354 39.2461 73.3543 39.263 73.3731C39.2797 73.392 39.3018 73.4057 39.3291 73.4141C39.457 73.4602 39.5519 73.5247 39.6138 73.6076C39.6757 73.6905 39.7067 73.797 39.7067 73.927C39.7067 74.1452 39.6201 74.3403 39.447 74.5124C39.274 74.6844 39.0825 74.7704 38.8727 74.7704C38.7762 74.7704 38.7049 74.7563 38.6587 74.7279C38.6125 74.6996 38.5895 74.6644 38.5895 74.6225C38.5895 74.5995 38.5989 74.5785 38.6178 74.5596C38.6367 74.5407 38.6566 74.5313 38.6776 74.5313C38.7007 74.5313 38.7321 74.5459 38.772 74.5753C38.8287 74.6194 38.8958 74.6414 38.9734 74.6414C39.1077 74.6414 39.232 74.5816 39.3463 74.462C39.4607 74.3424 39.5178 74.2103 39.5178 74.0655C39.5178 73.969 39.4901 73.8825 39.4344 73.8059C39.3788 73.7293 39.2996 73.6679 39.1968 73.6218C39.157 73.605 39.1292 73.5882 39.1134 73.5715C39.0977 73.5547 39.0899 73.5316 39.0899 73.5022C39.0899 73.4707 39.1066 73.4026 39.1402 73.2976L39.244 72.9735C39.2902 72.9441 39.3426 72.9294 39.4014 72.9294H39.7318C39.7948 72.9294 39.8414 72.9237 39.8719 72.9121C39.9023 72.9006 39.9301 72.878 39.9553 72.8445ZM41.5784 72.8854L41.5596 72.9767C41.0707 72.9934 40.7582 73.24 40.6218 73.7162C40.7351 73.6218 40.8515 73.5746 40.9711 73.5746C41.097 73.5746 41.1935 73.6186 41.2606 73.7067C41.3278 73.7949 41.3613 73.9102 41.3613 74.0529C41.3613 74.2606 41.3047 74.4321 41.1914 74.5674C41.0781 74.7027 40.9355 74.7704 40.7634 74.7704C40.6166 74.7704 40.4991 74.7159 40.4109 74.6068C40.3228 74.4977 40.2788 74.3435 40.2788 74.1442C40.2788 73.9428 40.3323 73.7424 40.4393 73.5431C40.5463 73.3438 40.6978 73.1843 40.894 73.0648C41.0902 72.9452 41.3183 72.8854 41.5784 72.8854ZM40.5903 73.8358C40.563 73.9911 40.5494 74.1253 40.5494 74.2386C40.5494 74.3875 40.573 74.4992 40.6202 74.5737C40.6674 74.6482 40.7298 74.6854 40.8074 74.6854C40.8997 74.6854 40.97 74.6346 41.0183 74.5328C41.0665 74.4311 41.0907 74.2984 41.0907 74.1347C41.0907 73.9921 41.0713 73.8835 41.0325 73.809C40.9937 73.7346 40.9396 73.6973 40.8704 73.6973C40.7886 73.6973 40.6952 73.7435 40.5903 73.8358Z" fill="white"/>
<path fill-rule="evenodd" clip-rule="evenodd" d="M36.5987 72.8697H36.6459L36.4351 73.6973L36.2589 74.4683C36.2442 74.5354 36.2368 74.5785 36.2368 74.5974C36.2368 74.6204 36.2484 74.6367 36.2715 74.6461C36.2945 74.6555 36.3302 74.6624 36.3784 74.6665C36.4225 74.6687 36.4676 74.675 36.5138 74.6854L36.4823 74.761C36.3019 74.7379 36.1477 74.7264 36.0197 74.7264C35.8917 74.7264 35.7543 74.7379 35.6074 74.761L35.6326 74.6854C35.7564 74.6602 35.843 74.6393 35.8923 74.6225C35.9416 74.6057 35.9783 74.5648 36.0024 74.4998C36.0265 74.4347 36.0459 74.376 36.0606 74.3235L36.2274 73.6878C36.2819 73.4403 36.3092 73.3039 36.3092 73.2788C36.3092 73.241 36.2935 73.2221 36.262 73.2221C36.2389 73.2221 36.1372 73.2641 35.9568 73.348L35.9253 73.2693C36.1225 73.177 36.2615 73.1078 36.3422 73.0616C36.423 73.0155 36.5085 72.9515 36.5987 72.8697ZM37.0481 74.7704L37.067 74.6792C37.5453 74.6687 37.8579 74.4232 38.0048 73.9428C37.8915 74.0372 37.7751 74.0844 37.6555 74.0844C37.5338 74.0844 37.4383 74.0424 37.3691 73.9585C37.2999 73.8746 37.2653 73.7571 37.2653 73.6061C37.2653 73.4026 37.3214 73.2321 37.4336 73.0946C37.5459 72.9573 37.689 72.8886 37.8632 72.8886C38.0079 72.8886 38.1244 72.9436 38.2125 73.0538C38.3006 73.1639 38.3446 73.3123 38.3446 73.499C38.3446 73.8305 38.2272 74.1253 37.9922 74.3833C37.7572 74.6414 37.4425 74.7704 37.0481 74.7704ZM38.0331 73.8232C38.0625 73.6595 38.0772 73.5284 38.0772 73.4298C38.0772 73.283 38.0541 73.1702 38.0079 73.0915C37.9618 73.0128 37.8978 72.9735 37.816 72.9735C37.7257 72.9735 37.656 73.0234 37.6067 73.123C37.5574 73.2227 37.5328 73.3616 37.5328 73.5399C37.5328 73.6847 37.5542 73.7912 37.5973 73.8594C37.6403 73.9276 37.6932 73.9616 37.7562 73.9616C37.8359 73.9616 37.9282 73.9155 38.0331 73.8232ZM39.9553 72.8445H40.0402L39.9301 73.0711C39.9154 73.1046 39.8514 73.1214 39.7381 73.1214C39.4906 73.1214 39.3416 73.1266 39.2913 73.1372C39.2556 73.2253 39.2378 73.2851 39.2378 73.3165C39.2378 73.3354 39.2461 73.3543 39.263 73.3731C39.2797 73.392 39.3018 73.4057 39.3291 73.4141C39.457 73.4602 39.5519 73.5247 39.6138 73.6076C39.6757 73.6905 39.7067 73.797 39.7067 73.927C39.7067 74.1452 39.6201 74.3403 39.447 74.5124C39.274 74.6844 39.0825 74.7704 38.8727 74.7704C38.7762 74.7704 38.7049 74.7563 38.6587 74.7279C38.6125 74.6996 38.5895 74.6644 38.5895 74.6225C38.5895 74.5995 38.5989 74.5785 38.6178 74.5596C38.6367 74.5407 38.6566 74.5313 38.6776 74.5313C38.7007 74.5313 38.7321 74.5459 38.772 74.5753C38.8287 74.6194 38.8958 74.6414 38.9734 74.6414C39.1077 74.6414 39.232 74.5816 39.3463 74.462C39.4607 74.3424 39.5178 74.2103 39.5178 74.0655C39.5178 73.969 39.4901 73.8825 39.4344 73.8059C39.3788 73.7293 39.2996 73.6679 39.1968 73.6218C39.157 73.605 39.1292 73.5882 39.1134 73.5715C39.0977 73.5547 39.0899 73.5316 39.0899 73.5022C39.0899 73.4707 39.1066 73.4026 39.1402 73.2976L39.244 72.9735C39.2902 72.9441 39.3426 72.9294 39.4014 72.9294H39.7318C39.7948 72.9294 39.8414 72.9237 39.8719 72.9121C39.9023 72.9006 39.9301 72.878 39.9553 72.8445ZM41.5784 72.8854L41.5596 72.9767C41.0707 72.9934 40.7582 73.24 40.6218 73.7162C40.7351 73.6218 40.8515 73.5746 40.9711 73.5746C41.097 73.5746 41.1935 73.6186 41.2606 73.7067C41.3278 73.7949 41.3613 73.9102 41.3613 74.0529C41.3613 74.2606 41.3047 74.4321 41.1914 74.5674C41.0781 74.7027 40.9355 74.7704 40.7634 74.7704C40.6166 74.7704 40.4991 74.7159 40.4109 74.6068C40.3228 74.4977 40.2788 74.3435 40.2788 74.1442C40.2788 73.9428 40.3323 73.7424 40.4393 73.5431C40.5463 73.3438 40.6978 73.1843 40.894 73.0648C41.0902 72.9452 41.3183 72.8854 41.5784 72.8854ZM40.5903 73.8358C40.563 73.9911 40.5494 74.1253 40.5494 74.2386C40.5494 74.3875 40.573 74.4992 40.6202 74.5737C40.6674 74.6482 40.7298 74.6854 40.8074 74.6854C40.8997 74.6854 40.97 74.6346 41.0183 74.5328C41.0665 74.4311 41.0907 74.2984 41.0907 74.1347C41.0907 73.9921 41.0713 73.8835 41.0325 73.809C40.9937 73.7346 40.9396 73.6973 40.8704 73.6973C40.7886 73.6973 40.6952 73.7435 40.5903 73.8358Z" stroke="white" stroke-width="0.216"/>
<path fill-rule="evenodd" clip-rule="evenodd" d="M34.7746 62.3815C34.7671 62.3899 34.7634 62.361 34.7579 62.3508C34.4075 61.7046 34.0713 60.9639 34.0677 60.0798C34.411 57.3333 39.3096 61.0545 40.187 61.7796C40.3507 61.7671 40.5144 61.7545 40.6781 61.7419C39.8331 60.7001 38.4147 59.6348 37.0519 59.1499C34.719 58.3199 32.5849 59.0994 34.521 62.724C34.3507 64.3672 35.0811 64.9715 36.2208 65.1037C36.9952 65.8277 38.3543 67.2267 39.8851 67.8396C42.166 68.753 44.4672 68.3294 42.8689 64.6126H42.3401C45.2196 70.0241 38.2445 67.116 36.7874 64.726C38.4224 63.7096 37.0083 61.0091 35.0876 62.1196C34.9698 62.1933 34.8657 62.2807 34.7746 62.3815Z" fill="#F08300"/>
<path fill-rule="evenodd" clip-rule="evenodd" d="M36.9388 63.5924C36.9388 63.4615 36.9336 63.3358 36.924 63.2146C36.9137 63.0941 36.8782 62.9781 36.8183 62.8672C36.6668 62.5655 36.3903 62.4141 35.9874 62.4141C35.4028 62.4444 35.096 62.7866 35.0657 63.4415C35.0554 64.1164 35.3629 64.4483 35.9874 64.4387C36.5308 64.4387 36.8279 64.2369 36.8782 63.834H36.3497C36.2994 64.0055 36.1782 64.0861 35.9874 64.0758C35.7554 64.0861 35.6445 63.9249 35.6548 63.5924H36.9388ZM35.6548 63.1998C35.6652 62.9278 35.7754 62.7918 35.9874 62.7918C36.2188 62.7918 36.3349 62.9278 36.3349 63.1998H35.6548Z" fill="white"/>
<path fill-rule="evenodd" clip-rule="evenodd" d="M40.3507 64.5585C40.7108 64.5361 40.8194 64.6683 41.1796 64.6457C40.2304 65.7477 37.854 68.0823 35.8655 68.1697C34.4793 68.2306 33.024 67.3601 34.3227 64.5012C34.5028 64.6588 34.528 64.7195 34.7081 64.8771C33.7718 66.4324 34.1152 67.3921 34.7863 67.7644C36.045 68.4627 39.1195 66.3214 40.3507 64.5585Z" fill="#0068B7"/>
<path fill-rule="evenodd" clip-rule="evenodd" d="M37.1057 61.7792C36.7942 61.7985 36.7002 61.6842 36.3887 61.7037C36.9513 61.0987 38.067 60.0768 39.3112 59.3732C39.8565 59.0648 40.4267 58.7613 40.9855 58.7186C42.2166 58.6244 43.9596 59.3866 42.8259 61.8287C42.6701 61.6924 42.5851 61.7664 42.4293 61.6301C43.3002 60.0002 42.6201 59.0122 41.9191 59.006C40.4597 58.9931 38.1277 60.2219 37.1057 61.7792Z" fill="#0068B7"/>
<path fill-rule="evenodd" clip-rule="evenodd" d="M33.4438 62.5903V63.6307C33.4508 63.8575 33.4231 64.0117 33.3616 64.0944C33.2996 64.1906 33.1897 64.2386 33.0319 64.2386C32.8737 64.2386 32.7607 64.1906 32.6917 64.0944C32.6302 64.0117 32.6025 63.8575 32.6095 63.6307V62.5903H32.1973V63.7854C32.2113 64.2592 32.4891 64.5032 33.0319 64.5168C33.5607 64.5032 33.8354 64.2592 33.856 63.7854V62.5903H33.4438Z" fill="#0068B7"/>
<path fill-rule="evenodd" clip-rule="evenodd" d="M39.8788 63.0607C39.8566 62.6533 39.6186 62.4384 39.1663 62.4158C38.6082 62.4462 38.3176 62.676 38.2949 63.1061C38.2949 63.3851 38.5252 63.5777 38.9853 63.683C39.0002 63.6907 39.0268 63.6984 39.0644 63.7057C39.3285 63.7588 39.4603 63.8568 39.4603 64.0002C39.453 64.1735 39.3135 64.2637 39.0417 64.2714C38.8081 64.2565 38.6908 64.1281 38.6908 63.8867H38.2384C38.2307 64.3468 38.4986 64.5771 39.0417 64.5771C39.6302 64.5621 39.9281 64.3356 39.9358 63.8983C39.943 63.6116 39.7016 63.4189 39.2116 63.3209C39.1812 63.3137 39.1624 63.3098 39.1547 63.3098C38.8834 63.2722 38.755 63.1742 38.7704 63.0154C38.7777 62.8498 38.8911 62.759 39.1098 62.744C39.3285 62.744 39.4414 62.8498 39.4492 63.0607H39.8788Z" fill="#0068B7"/>
<path fill-rule="evenodd" clip-rule="evenodd" d="M40.3623 62.8121H40.9846V64.5543H41.4374V62.8121H42.0596V62.4612H40.3623V62.8121Z" fill="#0068B7"/>
<path fill-rule="evenodd" clip-rule="evenodd" d="M44.3338 62.9845C44.3034 62.5422 44.0094 62.3175 43.4514 62.3103C42.8929 62.3314 42.6028 62.6721 42.5801 63.3323C42.595 63.9781 42.8857 64.3084 43.4514 64.3224C44.0171 64.3152 44.3111 64.0977 44.3338 63.6694H43.8584C43.851 63.908 43.7155 64.0307 43.4514 64.0379C43.2024 64.024 43.0704 63.7885 43.055 63.3323C43.0704 62.8685 43.2024 62.6299 43.4514 62.616C43.7078 62.6231 43.8433 62.7458 43.8584 62.9845H44.3338Z" fill="#0068B7"/>
<path fill-rule="evenodd" clip-rule="evenodd" d="M107.59 55.5929C107.647 56.5045 107.422 57.2989 107.395 58.1035C107.371 58.8294 107.166 59.4227 106.793 59.9162C106.334 59.8676 105.961 59.8193 105.545 59.5551C105.151 59.4144 104.584 60.0464 104.446 60.6738C104.492 60.7605 104.946 60.4859 105.358 60.824C105.841 61.2205 106.457 61.2788 106.938 61.1489C106.744 61.8492 106.246 62.3474 105.705 62.8168C105.033 63.7784 105.549 63.9839 108.678 62.5267C109.192 61.6342 109.425 60.7921 109.593 59.7849C110.878 59.4707 112.711 58.9835 113.014 58.6695C112.879 58.1959 112.138 58.2098 111.667 57.9442C111.292 58.0773 111.02 58.2636 110.694 58.4943C110.33 58.7517 109.966 59.1011 109.592 58.9579C109.57 57.9442 110.027 57.1773 109.71 56.3444C109.519 55.8449 109.205 55.3682 108.785 54.9588C108.229 54.9179 108.38 55.5234 107.59 55.5929ZM109.288 62.2073C110.634 62.0769 111.897 62.0697 112.667 63.093C113.05 63.7754 112.512 63.8441 112.159 64.0357C111.568 64.0282 110.904 64.0831 110.713 63.6864C110.417 63.0718 109.623 62.8686 109.288 62.2073Z" fill="#00A0E9"/>
<path fill-rule="evenodd" clip-rule="evenodd" d="M119.004 54.6338C118.481 55.3204 118.781 55.9599 119.456 56.7548C119.994 56.8474 120.28 56.8094 120.427 56.5323C120.522 56.3543 120.492 56.0887 120.514 55.8495C120.535 55.6108 120.609 55.3973 120.551 55.1627C120.383 54.4736 118.907 53.8414 119.004 54.6338ZM122.834 55.5852C122.629 55.1266 122.537 54.5519 121.703 54.7308C121.136 55.3867 121.578 55.9058 121.853 56.1288C121.997 56.4584 122.195 56.2191 122.834 55.5852ZM125.231 54.0498C124.653 55.2652 124.075 55.7335 123.496 56.7029C124.386 56.0618 125.215 56.1494 125.985 56.1563C126.885 55.677 127.186 55.36 126.89 55.205C126.517 54.3728 126.084 53.6898 125.231 54.0498ZM117.101 60.1121C117.176 59.5459 117.525 58.8176 117.6 58.2514C119.516 57.2758 121.164 57.2706 124.101 57.6788C124.381 57.874 124.661 58.447 124.582 58.75C124.155 59.1579 123.862 59.1609 123.435 59.5685C123.588 60.3683 122.932 61.2426 122.367 62.1507C122.398 62.5643 122.99 62.5527 123.701 62.4354C124.1 62.3694 124.567 62.1734 124.888 62.3952C125.716 62.9676 125.085 63.3744 124.905 63.3912C124.011 63.4753 123.085 63.5402 122.912 63.3869C122.803 63.5916 122.955 63.6171 122.896 63.8588C122.624 64.9842 122.055 65.4288 121.444 65.4935C119.805 65.8904 118.646 65.5993 118.685 64.0534C117.772 63.1131 117.422 62.3751 118.308 62.0828C118.723 62.5756 119.798 62.549 121.173 62.2866C121.625 61.6069 122.078 60.9274 122.53 60.248C122.089 60.2055 121.18 60.1094 120.916 60.9021C120.635 61.7452 120.008 61.5137 119.7 61.4177C119.087 59.8915 121.977 59.8631 122.757 59.0249C122.201 58.439 120.997 58.8287 119.24 59.5426C119.167 59.5596 118.634 59.6335 118.618 59.7555C118.501 60.6513 117.05 61.1228 117.101 60.1121ZM119.44 63.4678C120.144 63.5357 120.848 63.5631 121.552 63.6312C121.426 63.9483 121.3 64.063 121.175 64.3802C120.516 64.4455 120.024 64.5254 119.856 64.3958C119.352 64.0098 119.225 63.7734 119.44 63.4678Z" fill="#00A0E9"/>
<path fill-rule="evenodd" clip-rule="evenodd" d="M54.4263 58.8123C54.2142 58.8582 54.2361 59.2158 54.1689 59.6574C54.1287 59.922 53.9469 60.2175 53.9686 60.4936C53.9598 62.3714 54.7421 62.7309 56.2643 63.1577C56.3679 63.5542 56.472 63.951 56.5761 64.3481C56.9694 64.8263 57.4734 65.0846 57.9931 65.3117C58.8871 65.0384 59.7183 64.9534 60.4873 65.0567C60.7139 64.8864 60.9406 64.7164 61.1676 64.5465C61.0984 64.2911 61.0212 63.8479 61.0825 63.5933C60.1479 63.5501 59.7298 63.6244 59.2403 63.6395C58.1847 64.1749 57.4962 63.9495 57.4547 63.2427C58.1523 63.2195 58.5959 63.1381 59.552 62.2791C59.3705 61.7122 59.3452 61.1451 59.6653 60.5785C60.1377 59.9738 60.6101 59.3693 61.0825 58.7647C60.5115 57.9407 59.7212 57.383 58.9001 56.8091C58.9538 55.3512 58.2556 54.5198 57.1817 54.3149C57.4652 55.2732 57.7407 56.114 57.3979 56.6955C56.5236 57.4112 55.8999 58.2522 55.5274 59.2182C56.0368 59.9109 56.4316 60.6666 55.7257 61.4855C54.9028 60.655 54.7366 59.0457 54.4263 58.8123ZM58.3333 57.8576C58.051 58.0819 57.9566 58.4313 58.0499 58.9063C58.0971 59.2463 58.1444 59.5864 58.1916 59.9267C58.4559 60.0329 58.7204 60.014 58.9852 59.87C59.2213 59.511 59.4574 59.152 59.6938 58.793C60.0155 58.5283 59.7872 58.0688 59.1065 57.8046C58.8325 57.7573 58.6072 57.9048 58.3333 57.8576ZM57.4264 60.6636C57.5017 60.758 57.5775 60.8524 57.6531 60.947C57.7852 60.9281 57.9175 60.9091 58.0499 60.8903C58.012 60.7201 58.1623 60.6913 58.1244 60.5211C57.9543 60.6157 57.5962 60.5691 57.4264 60.6636ZM57.6815 61.4288C57.7758 61.5043 57.8703 61.5799 57.9648 61.6556C58.182 61.6177 58.3995 61.5799 58.6168 61.5422C58.5221 61.4666 58.4278 61.3911 58.3333 61.3155C58.1159 61.3533 57.8986 61.3911 57.6815 61.4288Z" fill="#00A0E9"/>
<path fill-rule="evenodd" clip-rule="evenodd" d="M67.996 56.1695C68.2124 56.0182 68.4644 55.9734 68.7335 55.8382C69.0386 55.6847 69.366 55.4471 69.689 55.4029C70.1873 55.2669 70.556 55.5245 70.7822 55.9034C70.9006 56.1019 70.9306 56.384 70.9691 56.61C70.7388 57.7417 70.2238 58.7102 69.6118 59.7132C70.147 60.163 70.9831 60.0371 71.6743 60.1646C71.8845 60.2033 72.7711 60.2661 73.1845 60.6067C73.4325 60.811 73.3433 61.0841 73.0839 61.4247C72.9093 61.6538 71.8801 61.3713 71.6499 61.4649C71.3473 62.3867 71.3517 63.1417 70.4435 64.2902C69.8424 64.2981 69.0557 64.3674 68.3751 64.1872C67.8933 64.0597 67.3962 64.1178 66.9996 64.0344C67.1833 63.2592 67.0492 62.5486 66.5977 61.9029C66.2821 61.7032 66.0896 61.4096 66.282 60.8226C66.6512 60.3411 67.6969 60.5485 68.6071 60.6182C68.5113 60.404 68.4157 60.19 68.3201 59.9759C68.5314 59.2958 68.8658 58.7132 69.3402 57.8736C68.9595 57.7232 68.8079 57.1995 69.0518 56.938C69.2749 56.6988 68.4498 56.6678 67.996 56.1695ZM67.2998 61.7546C68.3858 61.6539 69.0249 61.4641 69.8833 61.6378C70.1047 62.2339 70.0091 62.7009 69.5962 63.0393C68.1959 63.0627 67.4304 62.6345 67.2998 61.7546Z" fill="#00A0E9"/>
<path fill-rule="evenodd" clip-rule="evenodd" d="M85.1177 54.2628C85.0979 55.0233 84.918 56.0344 84.7966 56.7954C84.2299 56.8704 83.7532 56.695 83.1862 56.77C82.9895 57.1736 83.0176 57.3967 83.0217 57.8011C82.9703 58.3023 82.5015 58.8945 82.8133 59.3328C82.9767 59.4172 83.3112 59.4182 83.4744 59.5029C82.7006 60.2374 82.2403 60.4202 82.3501 61.1077C82.2862 61.5546 82.5388 61.7635 82.9555 61.6419C83.4458 61.67 83.9358 61.5311 84.4258 61.5594C83.8018 63.6767 84.8018 65.1676 85.0323 66.8674C85.6761 64.4822 86.0634 62.5144 86.7074 60.1293C87.7185 59.7303 87.6012 58.5786 86.444 58.1787C86.3624 55.8246 86.0596 53.821 85.1177 54.2628ZM81.2834 54.4026C80.3959 54.9841 79.9003 56.2552 79.5825 57.8397C79.4683 57.9826 77.8731 58.5448 77.3647 59.377C77.0833 59.838 76.9867 60.4143 77.3048 60.2625C77.7758 60.0746 78.2468 59.8868 78.7176 59.699C78.6086 60.6655 78.0436 61.4929 77.3646 62.3482C77.2234 63.2398 77.6527 63.3346 77.968 63.2206C78.6503 62.873 79.3326 62.5257 80.0149 62.1782C80.0151 62.6289 80.0151 63.0796 80.0149 63.5305C79.6647 63.868 79.4658 63.6115 79.2365 63.4741C78.997 64.1569 79.8432 64.7968 80.4315 64.601C80.7298 63.7277 80.551 62.6248 80.5068 61.4176C81.0072 60.5979 81.9732 59.4886 82.4381 58.6116C82.5803 58.3433 82.2993 58.2479 82.4525 57.9971C82.2509 58.1259 81.9901 58.1647 81.9272 58.4147C81.7616 59.0736 80.395 60.4539 80.3609 59.7836C80.3662 59.3768 80.4958 58.97 80.5011 58.5632C80.5051 58.2469 80.3855 57.9306 80.3896 57.6143C80.4458 56.8339 80.8581 56.2275 81.3699 55.6704C81.9846 54.7443 82.3845 53.9865 81.2834 54.4026ZM79.4312 60.6052C79.6312 60.6052 79.7944 60.7271 79.7944 60.8768C79.7944 61.0263 79.6312 61.1481 79.4312 61.1481C79.231 61.1481 79.0678 61.0263 79.0678 60.8768C79.0678 60.7271 79.231 60.6052 79.4312 60.6052ZM83.6408 58.4753C83.8971 58.7258 84.2673 58.8091 84.7519 58.7259C84.8373 58.3783 84.6947 58.2111 84.3245 57.9741C83.8114 57.9606 83.5837 58.0441 83.6408 58.4753ZM83.6408 60.48C83.8971 60.7304 84.1391 60.3126 84.6238 60.2294C84.6518 59.6592 84.2909 59.7427 84.2818 59.7283C83.7687 59.7146 83.5837 60.0487 83.6408 60.48Z" fill="#00A0E9"/>
<path fill-rule="evenodd" clip-rule="evenodd" d="M92.9709 55.4606C92.6856 56.0811 92.4496 56.7501 92.2629 57.4681C92.3071 58.1333 91.6617 58.0285 90.9179 57.8142C90.936 58.3388 91.29 58.631 91.9799 58.937C91.9011 59.7349 91.8343 60.6336 91.6168 61.1046C91.5441 61.2618 91.4548 61.3714 91.3427 61.4139C90.7767 61.8318 90.4204 61.9624 89.8538 62.052C90.3276 63.1351 90.1719 63.4644 90.9824 63.4517C91.1241 63.1517 91.6018 62.9339 91.7432 62.634C91.8377 62.957 92.1843 63.0745 92.2785 63.3977C92.6031 63.2705 92.9415 63.2942 93.0416 62.7291C92.9474 62.1752 92.8529 61.6214 92.7586 61.0677C93.4769 60.5734 94.1463 59.5965 94.641 58.3355C94.9771 58.5555 95.3833 58.9216 95.944 58.9909C95.6844 59.2216 95.4669 59.5347 95.2073 59.7654C94.8533 59.8116 94.7094 59.8165 94.3556 59.8627C94.4262 60.255 94.2449 60.6061 94.3158 60.9985C95.0236 61.3907 95.7316 61.7829 96.4395 62.1753C95.772 62.4296 95.0269 62.6096 94.5621 62.3422C94.2009 62.1341 94.0584 61.5901 93.9331 61.0182C93.5574 61.3654 93.4494 62.5359 93.5239 63.2137C94.798 63.4817 96.1562 63.3663 97.4307 62.8676C97.974 62.9943 97.8876 63.8611 98.4306 63.9879C99.468 64.2298 101.406 63.3197 102.443 63.5619C102.296 63.463 102.313 63.3272 102.112 63.2774C101.443 63.1117 100.597 63.0123 99.8846 62.6933C99.0979 62.3409 98.7371 62.0741 98.2801 61.76C98.986 60.6167 99.3311 58.8294 98.6379 58.4117C98.3668 58.2485 97.9009 58.7121 97.289 58.8785C97.3358 58.4363 97.4808 57.8848 98.3154 57.8832C98.7593 57.8824 98.9999 57.3294 99.3419 57.0526C99.4127 56.545 99.4414 55.9552 99.3023 55.5298C98.5618 56.2189 98.1295 56.6342 97.5014 56.7757C97.746 55.7028 97.4863 54.8491 96.7227 54.2146C96.3125 55.3774 96.1255 56.4161 96.276 57.0311C95.6618 57.9595 95.0041 57.4675 94.3872 57.9902C94.0172 58.3036 93.6944 58.8113 93.055 59.4452C92.518 59.0334 92.6504 58.6569 93.4346 57.8834C94.165 57.163 93.9045 55.3692 92.9709 55.4606ZM96.5063 60.5859C96.8004 60.271 97.2066 59.9561 97.7249 59.6408C97.9768 60.2117 97.4481 60.5542 97.3047 61.3256C96.6156 61.1016 96.2988 60.9192 96.5063 60.5859Z" fill="#00A0E9"/>
<path fill-rule="evenodd" clip-rule="evenodd" d="M55.1394 69.6216H55.3909V71.6166C55.3909 71.963 55.3693 72.2387 55.3259 72.4429C55.2827 72.647 55.2048 72.8126 55.0921 72.9404C54.9794 73.069 54.8317 73.1326 54.6486 73.1326C54.471 73.1326 54.325 73.0771 54.2123 72.9654C54.0992 72.8545 54.0182 72.6929 53.9701 72.4815C53.9214 72.2701 53.8975 71.9823 53.8975 71.6166V69.6216H54.1486V71.6142C54.1486 71.914 54.1642 72.1351 54.1947 72.2765C54.2252 72.4188 54.2782 72.5281 54.3524 72.6053C54.4272 72.6824 54.5186 72.721 54.6265 72.721C54.8114 72.721 54.943 72.6446 55.0218 72.4919C55.1 72.34 55.1394 72.0474 55.1394 71.6142V69.6216ZM55.9269 73.0739V70.5733H56.1366V70.9285C56.2377 70.6536 56.3836 70.5162 56.5742 70.5162C56.6572 70.5162 56.7333 70.5435 56.8027 70.5973C56.8725 70.652 56.9242 70.7228 56.9588 70.8112C56.9937 70.8988 57.0176 71.0033 57.0318 71.1239C57.0401 71.2026 57.0445 71.3401 57.0445 71.5362V73.0739H56.8112V71.5523C56.8112 71.3803 56.8024 71.2509 56.7841 71.1648C56.766 71.0797 56.7338 71.0113 56.6877 70.9607C56.6413 70.9092 56.5874 70.8835 56.5251 70.8835C56.4256 70.8835 56.3404 70.9414 56.2679 71.0555C56.1957 71.1705 56.16 71.3875 56.16 71.7082V73.0739H55.9269ZM57.5506 70.1095H57.784V69.6216H57.5506V70.1095ZM57.5506 73.0739H57.784V70.5733H57.5506V73.0739ZM58.6683 73.0739L58.1448 70.5733H58.3911L58.6864 72.0707C58.7183 72.2323 58.7474 72.4003 58.7743 72.5747C58.7952 72.4429 58.8238 72.2846 58.8609 72.0989L59.167 70.5733H59.4066L58.8858 73.0739H58.6683ZM60.7013 72.2685L60.9422 72.3223C60.9041 72.5788 60.8338 72.7773 60.7313 72.9187C60.6283 73.0594 60.497 73.1301 60.3374 73.1301C60.1363 73.1301 59.9766 73.0176 59.859 72.7925C59.7409 72.5675 59.6821 72.2516 59.6821 71.8449C59.6821 71.4237 59.7419 71.0973 59.8607 70.865C59.9801 70.6327 60.1344 70.5162 60.3245 70.5162C60.5085 70.5162 60.6588 70.6303 60.775 70.8578C60.8917 71.0853 60.95 71.406 60.95 71.8184C60.95 71.8441 60.9497 71.8819 60.9488 71.9317H59.9232C59.9315 72.2065 59.9744 72.4172 60.0513 72.5627C60.1282 72.709 60.2237 72.7821 60.3386 72.7821C60.424 72.7821 60.497 72.7411 60.5575 72.6591C60.6181 72.5779 60.6659 72.4477 60.7013 72.2685ZM59.9359 71.5828H60.7038C60.6937 71.373 60.6641 71.2147 60.6159 71.1102C60.5416 70.947 60.4453 70.865 60.3272 70.865C60.2202 70.865 60.13 70.9301 60.057 71.0603C59.9842 71.1905 59.9439 71.365 59.9359 71.5828ZM61.38 73.0739V70.5733H61.5896V70.9519C61.643 70.775 61.6926 70.6577 61.738 70.6014C61.7831 70.5451 61.8332 70.5162 61.8876 70.5162C61.9662 70.5162 62.0458 70.562 62.1271 70.6528L62.0467 71.0467C61.9901 70.9848 61.933 70.9543 61.8761 70.9543C61.8247 70.9543 61.7792 70.9824 61.7385 71.0378C61.6979 71.0941 61.6691 71.1713 61.6518 71.2702C61.6257 71.4205 61.613 71.5853 61.613 71.7645V73.0739H61.38ZM62.32 72.3271L62.5504 72.2613C62.5633 72.4292 62.5994 72.5578 62.6587 72.6478C62.7175 72.7371 62.8002 72.7821 62.9067 72.7821C63.0136 72.7821 63.0934 72.7419 63.1449 72.6631C63.1967 72.5836 63.2228 72.4903 63.2228 72.3842C63.2228 72.2878 63.1998 72.213 63.1539 72.1576C63.122 72.1198 63.0424 72.0723 62.9155 72.0145C62.7449 71.9357 62.626 71.8682 62.5601 71.8103C62.4942 71.7532 62.4438 71.6737 62.4098 71.5724C62.3758 71.4711 62.3585 71.3594 62.3585 71.2372C62.3585 71.1255 62.3727 71.0226 62.401 70.9277C62.4288 70.8321 62.4673 70.7533 62.5155 70.6906C62.5516 70.6424 62.6012 70.6006 62.6636 70.5668C62.7263 70.5331 62.7935 70.5162 62.8652 70.5162C62.9731 70.5162 63.0676 70.5451 63.1493 70.6014C63.2313 70.6577 63.2913 70.734 63.3302 70.8305C63.3692 70.9277 63.3958 71.0563 63.4102 71.2179L63.1825 71.275C63.172 71.1464 63.142 71.0459 63.0924 70.9736C63.0429 70.9012 62.9726 70.865 62.882 70.865C62.7749 70.865 62.6985 70.8972 62.6531 70.9615C62.607 71.0258 62.584 71.1014 62.584 71.1873C62.584 71.2428 62.5938 71.2919 62.6126 71.336C62.6317 71.3819 62.6614 71.4189 62.702 71.4494C62.7254 71.4647 62.794 71.5008 62.908 71.5571C63.0729 71.6375 63.1879 71.7026 63.2528 71.754C63.3184 71.8047 63.3695 71.8794 63.4068 71.9767C63.4439 72.0739 63.4624 72.1945 63.4624 72.3392C63.4624 72.4807 63.4395 72.6133 63.3943 72.7387C63.3487 72.8633 63.2833 72.9597 63.1981 73.0281C63.1127 73.0964 63.0158 73.1301 62.908 73.1301C62.729 73.1301 62.5928 73.0626 62.4991 72.9276C62.4054 72.7925 62.3456 72.5924 62.32 72.3271ZM63.888 70.1095H64.1214V69.6216H63.888V70.1095ZM63.888 73.0739H64.1214V70.5733H63.888V73.0739ZM65.1326 72.6945L65.1663 73.069C65.1007 73.094 65.042 73.1068 64.9901 73.1068C64.9054 73.1068 64.84 73.0827 64.7931 73.0337C64.7467 72.9855 64.7138 72.9212 64.6948 72.8416C64.6759 72.7628 64.6662 72.5956 64.6662 72.3416V70.9028H64.4951V70.5733H64.6662V69.9535L64.8983 69.6995V70.5733H65.1326V70.9028H64.8983V72.3649C64.8983 72.4863 64.9022 72.5635 64.9102 72.598C64.9186 72.6326 64.9318 72.6599 64.9505 72.6808C64.9689 72.7009 64.9955 72.7114 65.0301 72.7114C65.056 72.7114 65.0901 72.7058 65.1326 72.6945ZM65.4974 74.0368L65.4713 73.6389C65.5227 73.6639 65.5669 73.6767 65.6048 73.6767C65.6566 73.6767 65.6982 73.6606 65.7291 73.6293C65.7605 73.598 65.7857 73.5546 65.8056 73.4975C65.8207 73.4557 65.844 73.3504 65.8769 73.1824C65.8813 73.1583 65.8884 73.1245 65.8976 73.0787L65.3759 70.5733H65.627L65.9135 72.0209C65.9502 72.205 65.9838 72.3979 66.0131 72.6005C66.0399 72.4059 66.0717 72.2162 66.109 72.0305L66.4029 70.5733H66.6359L66.1129 73.1165C66.0568 73.3914 66.0131 73.5803 65.9819 73.684C65.9404 73.8238 65.8932 73.9259 65.8396 73.991C65.7857 74.0561 65.722 74.0891 65.6478 74.0891C65.6026 74.0891 65.5528 74.0714 65.4974 74.0368ZM67.4843 71.8232C67.4843 71.3602 67.5549 71.0169 67.6969 70.7943C67.815 70.6094 67.959 70.5162 68.1293 70.5162C68.3185 70.5162 68.4733 70.6287 68.5931 70.8546C68.7134 71.0796 68.773 71.3907 68.773 71.7878C68.773 72.1101 68.7464 72.3633 68.6934 72.5474C68.6403 72.7323 68.563 72.8754 68.4618 72.9774C68.36 73.0795 68.2495 73.1301 68.1293 73.1301C67.937 73.1301 67.7813 73.0184 67.6625 72.7933C67.5436 72.5691 67.4843 72.246 67.4843 71.8232ZM67.7238 71.8232C67.7238 72.1439 67.7623 72.3834 67.8392 72.5426C67.9163 72.7025 68.013 72.7821 68.1293 72.7821C68.2451 72.7821 68.3415 72.7017 68.4184 72.5418C68.495 72.3818 68.5333 72.1375 68.5333 71.8095C68.5333 71.5 68.495 71.2653 68.4174 71.1062C68.3402 70.947 68.2443 70.8674 68.1293 70.8674C68.013 70.8674 67.9163 70.947 67.8392 71.1054C67.7623 71.2637 67.7238 71.5032 67.7238 71.8232ZM69.2493 73.0739V70.9028H69.0438V70.5733H69.2493V70.3072C69.2493 70.1392 69.2576 70.0138 69.274 69.9326C69.2966 69.8225 69.3359 69.7333 69.3925 69.665C69.4492 69.5966 69.5282 69.5629 69.6303 69.5629C69.6957 69.5629 69.7684 69.5765 69.8479 69.6055L69.8129 69.9752C69.7648 69.9592 69.7188 69.9511 69.6754 69.9511C69.6047 69.9511 69.5547 69.9784 69.5256 70.0339C69.496 70.0886 69.4814 70.1914 69.4814 70.3426V70.5733H69.7493V70.9028H69.4814V73.0739H69.2493ZM70.7029 73.0739V69.6216H72.0756V70.0291H70.9541V71.0861H72.0045V71.4912H70.9541V72.6663H72.1198V73.0739H70.7029ZM72.5792 73.0739H72.8122V69.6216H72.5792V73.0739ZM74.2626 72.2685L74.5035 72.3223C74.4655 72.5788 74.3952 72.7773 74.2927 72.9187C74.1897 73.0594 74.0583 73.1301 73.8987 73.1301C73.6975 73.1301 73.538 73.0176 73.4204 72.7925C73.3023 72.5675 73.2435 72.2516 73.2435 71.8449C73.2435 71.4237 73.3032 71.0973 73.4221 70.865C73.5415 70.6327 73.6957 70.5162 73.8858 70.5162C74.0698 70.5162 74.22 70.6303 74.3364 70.8578C74.453 71.0853 74.5114 71.406 74.5114 71.8184C74.5114 71.8441 74.5111 71.8819 74.5101 71.9317H73.4844C73.4929 72.2065 73.5358 72.4172 73.6127 72.5627C73.6896 72.709 73.785 72.7821 73.9 72.7821C73.9854 72.7821 74.0583 72.7411 74.1189 72.6591C74.1794 72.5779 74.2272 72.4477 74.2626 72.2685ZM73.4973 71.5828H74.2651C74.2551 71.373 74.2253 71.2147 74.1772 71.1102C74.1028 70.947 74.0066 70.865 73.8885 70.865C73.7816 70.865 73.6913 70.9301 73.6184 71.0603C73.5454 71.1905 73.5053 71.365 73.4973 71.5828ZM75.8414 72.1576L76.0704 72.2122C76.0457 72.4991 75.9815 72.7242 75.8781 72.8866C75.7751 73.049 75.6482 73.1301 75.498 73.1301C75.3101 73.1301 75.1583 73.0184 75.0443 72.7949C74.9298 72.5715 74.8723 72.2508 74.8723 71.8328C74.8723 71.5627 74.8971 71.3264 74.9462 71.1239C74.9957 70.9213 75.0704 70.7694 75.1712 70.6681C75.2715 70.5668 75.3811 70.5162 75.4992 70.5162C75.6486 70.5162 75.7711 70.5853 75.8658 70.7228C75.9608 70.8602 76.0218 71.0547 76.0488 71.3079L75.8219 71.3714C75.8004 71.2034 75.7623 71.0772 75.7074 70.9921C75.6526 70.9076 75.5864 70.865 75.5085 70.865C75.3909 70.865 75.2954 70.9414 75.222 71.0949C75.1487 71.2477 75.1119 71.4896 75.1119 71.8208C75.1119 72.1568 75.1473 72.4011 75.2185 72.5538C75.2893 72.7058 75.3816 72.7821 75.4956 72.7821C75.5873 72.7821 75.6633 72.7307 75.7247 72.6285C75.7862 72.5265 75.8251 72.3697 75.8414 72.1576ZM76.9265 72.6945L76.9601 73.069C76.8947 73.094 76.8359 73.1068 76.7841 73.1068C76.6992 73.1068 76.6338 73.0827 76.587 73.0337C76.5406 72.9855 76.5079 72.9212 76.4888 72.8416C76.4698 72.7628 76.46 72.5956 76.46 72.3416V70.9028H76.289V70.5733H76.46V69.9535L76.6922 69.6995V70.5733H76.9265V70.9028H76.6922V72.3649C76.6922 72.4863 76.6962 72.5635 76.7041 72.598C76.7126 72.6326 76.7258 72.6599 76.7444 72.6808C76.7629 72.7009 76.7895 72.7114 76.8239 72.7114C76.85 72.7114 76.884 72.7058 76.9265 72.6945ZM77.2993 73.0739V70.5733H77.5089V70.9519C77.5624 70.775 77.6119 70.6577 77.6575 70.6014C77.7025 70.5451 77.7525 70.5162 77.8069 70.5162C77.8855 70.5162 77.9651 70.562 78.0466 70.6528L77.966 71.0467C77.9094 70.9848 77.8524 70.9543 77.7954 70.9543C77.7442 70.9543 77.6986 70.9824 77.6578 71.0378C77.6173 71.0941 77.5885 71.1713 77.5712 71.2702C77.5451 71.4205 77.5323 71.5853 77.5323 71.7645V73.0739H77.2993ZM78.2456 71.8232C78.2456 71.3602 78.3164 71.0169 78.4582 70.7943C78.5763 70.6094 78.7204 70.5162 78.8907 70.5162C79.0799 70.5162 79.2346 70.6287 79.3544 70.8546C79.4747 71.0796 79.5343 71.3907 79.5343 71.7878C79.5343 72.1101 79.5077 72.3633 79.4547 72.5474C79.4018 72.7323 79.3244 72.8754 79.2231 72.9774C79.1214 73.0795 79.0108 73.1301 78.8907 73.1301C78.6984 73.1301 78.5427 73.0184 78.4238 72.7933C78.3049 72.5691 78.2456 72.246 78.2456 71.8232ZM78.4853 71.8232C78.4853 72.1439 78.5237 72.3834 78.6007 72.5426C78.6776 72.7025 78.7743 72.7821 78.8907 72.7821C79.0064 72.7821 79.1028 72.7017 79.1797 72.5418C79.2563 72.3818 79.2947 72.1375 79.2947 71.8095C79.2947 71.5 79.2563 71.2653 79.1789 71.1062C79.1016 70.947 79.0056 70.8674 78.8907 70.8674C78.7743 70.8674 78.6776 70.947 78.6007 71.1054C78.5237 71.2637 78.4853 71.5032 78.4853 71.8232ZM79.9554 73.0739V70.5733H80.1649V70.9285C80.2662 70.6536 80.4121 70.5162 80.6027 70.5162C80.6857 70.5162 80.7618 70.5435 80.8312 70.5973C80.901 70.652 80.9527 70.7228 80.9872 70.8112C81.0222 70.8988 81.046 71.0033 81.0601 71.1239C81.0686 71.2026 81.073 71.3401 81.073 71.5362V73.0739H80.8395V71.5523C80.8395 71.3803 80.8307 71.2509 80.8126 71.1648C80.7945 71.0797 80.7621 71.0113 80.7162 70.9607C80.6698 70.9092 80.6159 70.8835 80.5535 70.8835C80.4541 70.8835 80.3687 70.9414 80.2962 71.0555C80.2242 71.1705 80.1883 71.3875 80.1883 71.7082V73.0739H79.9554ZM81.5789 70.1095H81.8123V69.6216H81.5789V70.1095ZM81.5789 73.0739H81.8123V70.5733H81.5789V73.0739ZM83.2121 72.1576L83.4412 72.2122C83.4164 72.4991 83.3524 72.7242 83.2489 72.8866C83.1459 73.049 83.019 73.1301 82.8687 73.1301C82.6808 73.1301 82.5292 73.0184 82.4152 72.7949C82.3005 72.5715 82.2431 72.2508 82.2431 71.8328C82.2431 71.5627 82.268 71.3264 82.3169 71.1239C82.3664 70.9213 82.4411 70.7694 82.5419 70.6681C82.6424 70.5668 82.752 70.5162 82.8701 70.5162C83.0195 70.5162 83.1418 70.5853 83.2365 70.7228C83.3316 70.8602 83.3926 71.0547 83.4195 71.3079L83.1928 71.3714C83.1711 71.2034 83.133 71.0772 83.0783 70.9921C83.0234 70.9076 82.9571 70.865 82.8794 70.865C82.7617 70.865 82.6663 70.9414 82.5929 71.0949C82.5194 71.2477 82.4828 71.4896 82.4828 71.8208C82.4828 72.1568 82.5182 72.4011 82.5892 72.5538C82.66 72.7058 82.7525 72.7821 82.8665 72.7821C82.958 72.7821 83.0339 72.7307 83.0954 72.6285C83.1569 72.5265 83.1958 72.3697 83.2121 72.1576ZM84.3223 71.9646L84.5593 71.9268C84.5703 72.0997 84.5964 72.2411 84.6376 72.3521C84.6786 72.463 84.7423 72.5522 84.8285 72.6205C84.9147 72.6889 85.012 72.7226 85.1199 72.7226C85.2158 72.7226 85.3003 72.6969 85.3735 72.6454C85.447 72.5932 85.5019 72.5225 85.5377 72.4325C85.5734 72.3416 85.5916 72.2435 85.5916 72.1367C85.5916 72.0281 85.5743 71.9341 85.5394 71.8529C85.5048 71.7717 85.4479 71.7042 85.3687 71.6495C85.3174 71.6133 85.2051 71.5571 85.0306 71.4807C84.8563 71.4044 84.7338 71.3328 84.664 71.2653C84.5734 71.1793 84.5058 71.0716 84.4612 70.9438C84.417 70.816 84.3948 70.6729 84.3948 70.5138C84.3948 70.3401 84.4218 70.177 84.4761 70.0258C84.5305 69.8739 84.6101 69.759 84.7145 69.6803C84.8192 69.6022 84.935 69.5629 85.0628 69.5629C85.2039 69.5629 85.3276 69.6038 85.4355 69.6867C85.5429 69.7686 85.6256 69.89 85.6835 70.05C85.741 70.2099 85.7723 70.3916 85.7767 70.5942L85.5358 70.6271C85.5226 70.4093 85.4789 70.2437 85.404 70.1328C85.3293 70.021 85.2193 69.9656 85.0735 69.9656C84.9213 69.9656 84.8107 70.0162 84.7409 70.1175C84.6716 70.2188 84.6367 70.3409 84.6367 70.4832C84.6367 70.6078 84.6613 70.7099 84.7104 70.7895C84.7591 70.8698 84.8851 70.9519 85.0894 71.0354C85.2936 71.1199 85.4338 71.193 85.5097 71.2557C85.6203 71.3489 85.702 71.4663 85.7547 71.6077C85.8072 71.75 85.8333 71.914 85.8333 72.0989C85.8333 72.283 85.8046 72.4558 85.7467 72.6181C85.6888 72.7805 85.6056 72.9067 85.4974 72.9975C85.3891 73.0875 85.2671 73.1326 85.1318 73.1326C84.9598 73.1326 84.8158 73.0875 84.6999 72.9959C84.5837 72.9051 84.4924 72.7684 84.4262 72.5852C84.3604 72.4027 84.3255 72.1953 84.3223 71.9646ZM87.1921 72.1576L87.4211 72.2122C87.3964 72.4991 87.3323 72.7242 87.2288 72.8866C87.1258 73.049 86.9989 73.1301 86.8485 73.1301C86.6606 73.1301 86.509 73.0184 86.395 72.7949C86.2806 72.5715 86.223 72.2508 86.223 71.8328C86.223 71.5627 86.2479 71.3264 86.2969 71.1239C86.3464 70.9213 86.4211 70.7694 86.5219 70.6681C86.6223 70.5668 86.7319 70.5162 86.85 70.5162C86.9994 70.5162 87.1218 70.5853 87.2164 70.7228C87.3115 70.8602 87.3725 71.0547 87.3994 71.3079L87.1726 71.3714C87.1509 71.2034 87.1129 71.0772 87.0582 70.9921C87.0033 70.9076 86.9371 70.865 86.8592 70.865C86.7416 70.865 86.6462 70.9414 86.5727 71.0949C86.4993 71.2477 86.4627 71.4896 86.4627 71.8208C86.4627 72.1568 86.498 72.4011 86.5691 72.5538C86.6399 72.7058 86.7323 72.7821 86.8463 72.7821C86.9379 72.7821 87.014 72.7307 87.0753 72.6285C87.1368 72.5265 87.1758 72.3697 87.1921 72.1576ZM87.7693 70.1095H88.0027V69.6216H87.7693V70.1095ZM87.7693 73.0739H88.0027V70.5733H87.7693V73.0739ZM89.4462 72.2685L89.6873 72.3223C89.6492 72.5788 89.5789 72.7773 89.4762 72.9187C89.3734 73.0594 89.2421 73.1301 89.0823 73.1301C88.8812 73.1301 88.7217 73.0176 88.6041 72.7925C88.486 72.5675 88.4272 72.2516 88.4272 71.8449C88.4272 71.4237 88.4869 71.0973 88.6058 70.865C88.7252 70.6327 88.8795 70.5162 89.0696 70.5162C89.2536 70.5162 89.4039 70.6303 89.5201 70.8578C89.6368 71.0853 89.6951 71.406 89.6951 71.8184C89.6951 71.8441 89.6946 71.8819 89.6939 71.9317H88.6683C88.6766 72.2065 88.7195 72.4172 88.7964 72.5627C88.8733 72.709 88.9688 72.7821 89.0837 72.7821C89.1691 72.7821 89.2421 72.7411 89.3026 72.6591C89.3632 72.5779 89.411 72.4477 89.4462 72.2685ZM88.681 71.5828H89.4489C89.4386 71.373 89.4091 71.2147 89.361 71.1102C89.2867 70.947 89.1903 70.865 89.0722 70.865C88.9653 70.865 88.875 70.9301 88.8021 71.0603C88.7291 71.1905 88.689 71.365 88.681 71.5828ZM90.1277 73.0739V70.5733H90.3373V70.9285C90.4384 70.6536 90.5844 70.5162 90.775 70.5162C90.858 70.5162 90.9341 70.5435 91.0034 70.5973C91.0733 70.652 91.1252 70.7228 91.1596 70.8112C91.1945 70.8988 91.2184 71.0033 91.2326 71.1239C91.2409 71.2026 91.2453 71.3401 91.2453 71.5362V73.0739H91.0119V71.5523C91.0119 71.3803 91.003 71.2509 90.9849 71.1648C90.9668 71.0797 90.9346 71.0113 90.8885 70.9607C90.8421 70.9092 90.7882 70.8835 90.7259 70.8835C90.6264 70.8835 90.5411 70.9414 90.4685 71.0555C90.3965 71.1705 90.3608 71.3875 90.3608 71.7082V73.0739H90.1277ZM92.6478 72.1576L92.8768 72.2122C92.8521 72.4991 92.7879 72.7242 92.6845 72.8866C92.5815 73.049 92.4546 73.1301 92.3044 73.1301C92.1165 73.1301 91.9647 73.0184 91.8507 72.7949C91.7362 72.5715 91.6787 72.2508 91.6787 71.8328C91.6787 71.5627 91.7035 71.3264 91.7526 71.1239C91.8021 70.9213 91.8768 70.7694 91.9776 70.6681C92.0779 70.5668 92.1875 70.5162 92.3056 70.5162C92.455 70.5162 92.5775 70.5853 92.672 70.7228C92.7672 70.8602 92.8282 71.0547 92.8551 71.3079L92.6283 71.3714C92.6066 71.2034 92.5687 71.0772 92.5138 70.9921C92.459 70.9076 92.3928 70.865 92.3149 70.865C92.1973 70.865 92.1018 70.9414 92.0284 71.0949C91.955 71.2477 91.9183 71.4896 91.9183 71.8208C91.9183 72.1568 91.9537 72.4011 92.025 72.5538C92.0956 72.7058 92.188 72.7821 92.302 72.7821C92.3936 72.7821 92.4697 72.7307 92.5311 72.6285C92.5925 72.5265 92.6315 72.3697 92.6478 72.1576ZM94.1653 72.2685L94.4062 72.3223C94.3682 72.5788 94.2979 72.7773 94.1953 72.9187C94.0923 73.0594 93.961 73.1301 93.8014 73.1301C93.6003 73.1301 93.4407 73.0176 93.3231 72.7925C93.205 72.5675 93.1462 72.2516 93.1462 71.8449C93.1462 71.4237 93.2059 71.0973 93.3248 70.865C93.4441 70.6327 93.5984 70.5162 93.7885 70.5162C93.9725 70.5162 94.1228 70.6303 94.239 70.8578C94.3557 71.0853 94.4142 71.406 94.4142 71.8184C94.4142 71.8441 94.4138 71.8819 94.4128 71.9317H93.3872C93.3956 72.2065 93.4385 72.4172 93.5154 72.5627C93.5923 72.709 93.6877 72.7821 93.8027 72.7821C93.8881 72.7821 93.961 72.7411 94.0216 72.6591C94.0821 72.5779 94.1299 72.4477 94.1653 72.2685ZM93.4 71.5828H94.168C94.1578 71.373 94.1282 71.2147 94.0799 71.1102C94.0057 70.947 93.9093 70.865 93.7912 70.865C93.6843 70.865 93.594 70.9301 93.5212 71.0603C93.4482 71.1905 93.408 71.365 93.4 71.5828ZM96.3338 72.7652C96.2472 72.8986 96.164 72.9927 96.0844 73.0481C96.0044 73.1028 95.9187 73.1301 95.8271 73.1301C95.6759 73.1301 95.5601 73.0634 95.4787 72.9292C95.3978 72.7949 95.3571 72.6229 95.3571 72.4148C95.3571 72.2918 95.3722 72.18 95.4032 72.0788C95.4337 71.9775 95.4738 71.8963 95.5233 71.8352C95.5733 71.7741 95.629 71.7275 95.6914 71.6962C95.7369 71.6745 95.8059 71.6528 95.8982 71.6326C96.0866 71.5917 96.2254 71.5434 96.3143 71.4864C96.3151 71.4285 96.3156 71.3915 96.3156 71.3763C96.3156 71.2034 96.2935 71.0813 96.2492 71.0113C96.1901 70.9149 96.1012 70.8674 95.9841 70.8674C95.8745 70.8674 95.7935 70.902 95.741 70.9719C95.6887 71.0418 95.6502 71.1657 95.6251 71.3433L95.3974 71.2862C95.4181 71.1094 95.4522 70.9655 95.4996 70.857C95.5468 70.7476 95.6158 70.6633 95.7054 70.6046C95.7952 70.546 95.8992 70.5162 96.0176 70.5162C96.1352 70.5162 96.2303 70.5419 96.3036 70.5917C96.377 70.6424 96.431 70.7051 96.4659 70.7814C96.5005 70.8578 96.5242 70.9535 96.5384 71.07C96.5459 71.1424 96.5499 71.2726 96.5499 71.4606V72.0257C96.5499 72.4204 96.5547 72.6696 96.565 72.7732C96.5747 72.8778 96.5945 72.9782 96.6238 73.0739H96.3802C96.3563 72.9863 96.3404 72.8834 96.3338 72.7652ZM96.3143 71.8184C96.2294 71.8819 96.1025 71.9349 95.9336 71.9791C95.8377 72.004 95.7696 72.0321 95.7303 72.0635C95.6905 72.0948 95.6595 72.1407 95.6383 72.2017C95.6167 72.2621 95.6056 72.3287 95.6056 72.4027C95.6056 72.516 95.6295 72.6101 95.6763 72.6856C95.7232 72.7604 95.7922 72.7982 95.8828 72.7982C95.9726 72.7982 96.0526 72.7628 96.1224 72.6913C96.1923 72.6197 96.244 72.5217 96.2767 72.3979C96.3019 72.3022 96.3143 72.1608 96.3143 71.9743V71.8184ZM97.0589 73.0739V70.5733H97.2685V70.9285C97.3698 70.6536 97.5155 70.5162 97.7061 70.5162C97.7893 70.5162 97.8653 70.5435 97.9348 70.5973C98.0046 70.652 98.0563 70.7228 98.0908 70.8112C98.1257 70.8988 98.1496 71.0033 98.1637 71.1239C98.1721 71.2026 98.1766 71.3401 98.1766 71.5362V73.0739H97.9431V71.5523C97.9431 71.3803 97.9343 71.2509 97.9162 71.1648C97.898 71.0797 97.8657 71.0113 97.8198 70.9607C97.7733 70.9092 97.7193 70.8835 97.6571 70.8835C97.5575 70.8835 97.4723 70.9414 97.3998 71.0555C97.3278 71.1705 97.2919 71.3875 97.2919 71.7082V73.0739H97.0589ZM99.5738 73.0739V72.758C99.4867 73.0064 99.3584 73.1301 99.1892 73.1301C99.0794 73.1301 98.9788 73.0755 98.8868 72.9654C98.7948 72.8561 98.7235 72.7025 98.6728 72.5048C98.6224 72.3078 98.5971 72.082 98.5971 71.8256C98.5971 71.5764 98.6201 71.3497 98.6657 71.1464C98.7116 70.943 98.7802 70.7871 98.8717 70.6794C98.9632 70.5708 99.0657 70.5162 99.1789 70.5162C99.2617 70.5162 99.3354 70.5484 99.4 70.6118C99.465 70.6753 99.5175 70.7581 99.5582 70.8602V69.6216H99.7899V73.0739H99.5738ZM98.8368 71.8256C98.8368 72.1463 98.8739 72.3858 98.9481 72.5442C99.0225 72.7025 99.1099 72.7821 99.2112 72.7821C99.3129 72.7821 99.3996 72.7058 99.4706 72.5546C99.5419 72.4035 99.5777 72.172 99.5777 71.861C99.5777 71.5185 99.5414 71.2678 99.4689 71.1078C99.3964 70.947 99.3071 70.8674 99.2006 70.8674C99.0972 70.8674 99.0105 70.9446 98.9412 71.0981C98.8717 71.2517 98.8368 71.4944 98.8368 71.8256ZM101.359 73.0739V70.0291H100.733V69.6216H102.238V70.0291H101.61V73.0739H101.359ZM103.261 72.2685L103.502 72.3223C103.464 72.5788 103.394 72.7773 103.291 72.9187C103.188 73.0594 103.057 73.1301 102.897 73.1301C102.696 73.1301 102.536 73.0176 102.419 72.7925C102.301 72.5675 102.242 72.2516 102.242 71.8449C102.242 71.4237 102.302 71.0973 102.421 70.865C102.54 70.6327 102.694 70.5162 102.884 70.5162C103.068 70.5162 103.219 70.6303 103.335 70.8578C103.451 71.0853 103.51 71.406 103.51 71.8184C103.51 71.8441 103.509 71.8819 103.509 71.9317H102.483C102.491 72.2065 102.534 72.4172 102.611 72.5627C102.688 72.709 102.783 72.7821 102.898 72.7821C102.984 72.7821 103.057 72.7411 103.117 72.6591C103.178 72.5779 103.226 72.4477 103.261 72.2685ZM102.496 71.5828H103.264C103.253 71.373 103.224 71.2147 103.176 71.1102C103.101 70.947 103.005 70.865 102.887 70.865C102.78 70.865 102.69 70.9301 102.617 71.0603C102.544 71.1905 102.504 71.365 102.496 71.5828ZM104.84 72.1576L105.069 72.2122C105.044 72.4991 104.98 72.7242 104.877 72.8866C104.774 73.049 104.647 73.1301 104.496 73.1301C104.308 73.1301 104.157 73.0184 104.043 72.7949C103.928 72.5715 103.871 72.2508 103.871 71.8328C103.871 71.5627 103.896 71.3264 103.945 71.1239C103.994 70.9213 104.069 70.7694 104.17 70.6681C104.27 70.5668 104.38 70.5162 104.498 70.5162C104.647 70.5162 104.77 70.5853 104.864 70.7228C104.959 70.8602 105.02 71.0547 105.047 71.3079L104.82 71.3714C104.799 71.2034 104.761 71.0772 104.706 70.9921C104.651 70.9076 104.585 70.865 104.507 70.865C104.389 70.865 104.294 70.9414 104.221 71.0949C104.147 71.2477 104.11 71.4896 104.11 71.8208C104.11 72.1568 104.146 72.4011 104.217 72.5538C104.288 72.7058 104.38 72.7821 104.494 72.7821C104.586 72.7821 104.662 72.7307 104.723 72.6285C104.785 72.5265 104.823 72.3697 104.84 72.1576ZM105.416 73.0739V69.6216H105.649V70.8602C105.758 70.6311 105.895 70.5162 106.061 70.5162C106.163 70.5162 106.251 70.5532 106.326 70.6263C106.402 70.6987 106.455 70.7999 106.488 70.9285C106.52 71.0571 106.536 71.2444 106.536 71.4888V73.0739H106.303V71.4888C106.303 71.2774 106.278 71.1231 106.227 71.0266C106.177 70.9301 106.105 70.8811 106.013 70.8811C105.944 70.8811 105.879 70.914 105.818 70.9792C105.757 71.0443 105.714 71.1327 105.688 71.2444C105.662 71.3553 105.649 71.5097 105.649 71.7058V73.0739H105.416ZM107.039 73.0739V70.5733H107.248V70.9285C107.35 70.6536 107.495 70.5162 107.686 70.5162C107.769 70.5162 107.845 70.5435 107.915 70.5973C107.984 70.652 108.036 70.7228 108.071 70.8112C108.105 70.8988 108.129 71.0033 108.144 71.1239C108.152 71.2026 108.156 71.3401 108.156 71.5362V73.0739H107.923V71.5523C107.923 71.3803 107.914 71.2509 107.896 71.1648C107.878 71.0797 107.846 71.0113 107.8 70.9607C107.753 70.9092 107.699 70.8835 107.637 70.8835C107.537 70.8835 107.452 70.9414 107.38 71.0555C107.308 71.1705 107.272 71.3875 107.272 71.7082V73.0739H107.039ZM108.574 71.8232C108.574 71.3602 108.645 71.0169 108.787 70.7943C108.905 70.6094 109.049 70.5162 109.219 70.5162C109.408 70.5162 109.563 70.6287 109.683 70.8546C109.803 71.0796 109.863 71.3907 109.863 71.7878C109.863 72.1101 109.836 72.3633 109.784 72.5474C109.73 72.7323 109.653 72.8754 109.552 72.9774C109.45 73.0795 109.34 73.1301 109.219 73.1301C109.027 73.1301 108.871 73.0184 108.752 72.7933C108.634 72.5691 108.574 72.246 108.574 71.8232ZM108.814 71.8232C108.814 72.1439 108.852 72.3834 108.929 72.5426C109.006 72.7025 109.103 72.7821 109.219 72.7821C109.335 72.7821 109.432 72.7017 109.508 72.5418C109.585 72.3818 109.623 72.1375 109.623 71.8095C109.623 71.5 109.585 71.2653 109.508 71.1062C109.43 70.947 109.334 70.8674 109.219 70.8674C109.103 70.8674 109.006 70.947 108.929 71.1054C108.852 71.2637 108.814 71.5032 108.814 71.8232ZM110.279 73.0739H110.512V69.6216H110.279V73.0739ZM110.934 71.8232C110.934 71.3602 111.004 71.0169 111.146 70.7943C111.264 70.6094 111.409 70.5162 111.579 70.5162C111.768 70.5162 111.923 70.6287 112.042 70.8546C112.163 71.0796 112.222 71.3907 112.222 71.7878C112.222 72.1101 112.196 72.3633 112.143 72.5474C112.09 72.7323 112.012 72.8754 111.911 72.9774C111.81 73.0795 111.699 73.1301 111.579 73.1301C111.386 73.1301 111.231 73.0184 111.112 72.7933C110.993 72.5691 110.934 72.246 110.934 71.8232ZM111.173 71.8232C111.173 72.1439 111.212 72.3834 111.289 72.5426C111.366 72.7025 111.462 72.7821 111.579 72.7821C111.695 72.7821 111.791 72.7017 111.868 72.5418C111.944 72.3818 111.983 72.1375 111.983 71.8095C111.983 71.5 111.944 71.2653 111.867 71.1062C111.79 70.947 111.694 70.8674 111.579 70.8674C111.462 70.8674 111.366 70.947 111.289 71.1054C111.212 71.2637 111.173 71.5032 111.173 71.8232Z" fill="#00A0E9"/>
<path fill-rule="evenodd" clip-rule="evenodd" d="M112.601 73.2813L112.827 73.3423C112.837 73.4694 112.863 73.5618 112.906 73.6205C112.964 73.6984 113.043 73.7378 113.143 73.7378C113.251 73.7378 113.334 73.6984 113.393 73.6205C113.452 73.5417 113.491 73.4316 113.512 73.2909C113.525 73.2041 113.53 73.0232 113.529 72.7467C113.427 72.9646 113.3 73.0739 113.148 73.0739C112.959 73.0739 112.813 72.9501 112.709 72.7017C112.606 72.4542 112.554 72.1559 112.554 71.8095C112.554 71.5708 112.578 71.3505 112.625 71.1488C112.673 70.947 112.742 70.7911 112.832 70.681C112.922 70.5716 113.028 70.5162 113.15 70.5162C113.312 70.5162 113.446 70.636 113.551 70.8747V70.5733H113.766V72.7347C113.766 73.1237 113.744 73.4002 113.701 73.5626C113.657 73.725 113.588 73.8536 113.494 73.9476C113.399 74.0416 113.283 74.0891 113.144 74.0891C112.98 74.0891 112.848 74.0216 112.747 73.8873C112.646 73.7531 112.597 73.5513 112.601 73.2813ZM112.793 71.7789C112.793 72.1069 112.829 72.3464 112.901 72.4967C112.973 72.6478 113.063 72.7226 113.17 72.7226C113.277 72.7226 113.367 72.6478 113.44 72.4983C113.512 72.348 113.548 72.1133 113.548 71.7926C113.548 71.4864 113.511 71.2557 113.437 71.1005C113.362 70.9454 113.272 70.8674 113.167 70.8674C113.063 70.8674 112.975 70.9438 112.902 71.0973C112.83 71.2501 112.793 71.4775 112.793 71.7789ZM114.256 74.0368L114.229 73.6389C114.281 73.6639 114.325 73.6767 114.363 73.6767C114.415 73.6767 114.456 73.6606 114.487 73.6293C114.519 73.598 114.544 73.5546 114.564 73.4975C114.579 73.4557 114.602 73.3504 114.635 73.1824C114.639 73.1583 114.646 73.1245 114.656 73.0787L114.134 70.5733H114.385L114.672 72.0209C114.708 72.205 114.742 72.3979 114.771 72.6005C114.798 72.4059 114.83 72.2162 114.867 72.0305L115.161 70.5733H115.394L114.871 73.1165C114.815 73.3914 114.771 73.5803 114.74 73.684C114.698 73.8238 114.651 73.9259 114.598 73.991C114.544 74.0561 114.48 74.0891 114.406 74.0891C114.361 74.0891 114.311 74.0714 114.256 74.0368ZM116.242 71.8232C116.242 71.3602 116.313 71.0169 116.455 70.7943C116.573 70.6094 116.717 70.5162 116.887 70.5162C117.077 70.5162 117.231 70.6287 117.351 70.8546C117.471 71.0796 117.531 71.3907 117.531 71.7878C117.531 72.1101 117.504 72.3633 117.451 72.5474C117.398 72.7323 117.321 72.8754 117.22 72.9774C117.118 73.0795 117.008 73.1301 116.887 73.1301C116.695 73.1301 116.539 73.0184 116.421 72.7933C116.302 72.5691 116.242 72.246 116.242 71.8232ZM116.482 71.8232C116.482 72.1439 116.52 72.3834 116.597 72.5426C116.674 72.7025 116.771 72.7821 116.887 72.7821C117.003 72.7821 117.1 72.7017 117.176 72.5418C117.253 72.3818 117.291 72.1375 117.291 71.8095C117.291 71.5 117.253 71.2653 117.176 71.1062C117.098 70.947 117.002 70.8674 116.887 70.8674C116.771 70.8674 116.674 70.947 116.597 71.1054C116.52 71.2637 116.482 71.5032 116.482 71.8232ZM118.007 73.0739V70.9028H117.802V70.5733H118.007V70.3072C118.007 70.1392 118.016 70.0138 118.032 69.9326C118.055 69.8225 118.094 69.7333 118.151 69.665C118.207 69.5966 118.286 69.5629 118.389 69.5629C118.454 69.5629 118.526 69.5765 118.606 69.6055L118.571 69.9752C118.523 69.9592 118.477 69.9511 118.433 69.9511C118.363 69.9511 118.313 69.9784 118.284 70.0339C118.254 70.0886 118.239 70.1914 118.239 70.3426V70.5733H118.507V70.9028H118.239V73.0739H118.007ZM120.81 71.8634L121.062 71.9791C121.009 72.3537 120.914 72.6398 120.777 72.8376C120.641 73.0345 120.473 73.1326 120.275 73.1326C120.071 73.1326 119.904 73.057 119.776 72.9059C119.648 72.7539 119.55 72.5345 119.483 72.2476C119.417 71.9598 119.383 71.6511 119.383 71.3216C119.383 70.9623 119.421 70.6488 119.496 70.3812C119.572 70.1135 119.679 69.9101 119.819 69.7711C119.958 69.632 120.112 69.5629 120.279 69.5629C120.469 69.5629 120.629 69.6505 120.758 69.8265C120.888 70.0025 120.978 70.2493 121.029 70.5684L120.782 70.6746C120.738 70.423 120.674 70.2405 120.59 70.1255C120.507 70.0106 120.401 69.9535 120.274 69.9535C120.128 69.9535 120.006 70.017 119.908 70.144C119.81 70.2718 119.741 70.4422 119.702 70.6568C119.662 70.8706 119.642 71.0917 119.642 71.3192C119.642 71.6133 119.666 71.869 119.713 72.0884C119.76 72.3071 119.833 72.471 119.932 72.5796C120.032 72.688 120.139 72.7419 120.255 72.7419C120.396 72.7419 120.514 72.668 120.612 72.5209C120.71 72.3729 120.776 72.1535 120.81 71.8634ZM121.489 73.0739V69.6216H121.722V70.8602C121.831 70.6311 121.968 70.5162 122.134 70.5162C122.236 70.5162 122.324 70.5532 122.399 70.6263C122.474 70.6987 122.528 70.7999 122.561 70.9285C122.593 71.0571 122.609 71.2444 122.609 71.4888V73.0739H122.376V71.4888C122.376 71.2774 122.351 71.1231 122.3 71.0266C122.25 70.9301 122.178 70.8811 122.086 70.8811C122.017 70.8811 121.952 70.914 121.891 70.9792C121.83 71.0443 121.787 71.1327 121.761 71.2444C121.735 71.3553 121.722 71.5097 121.722 71.7058V73.0739H121.489ZM123.112 70.1095H123.346V69.6216H123.112V70.1095ZM123.112 73.0739H123.346V70.5733H123.112V73.0739ZM123.848 73.0739V70.5733H124.058V70.9285C124.159 70.6536 124.305 70.5162 124.496 70.5162C124.579 70.5162 124.655 70.5435 124.724 70.5973C124.794 70.652 124.846 70.7228 124.88 70.8112C124.915 70.8988 124.939 71.0033 124.953 71.1239C124.962 71.2026 124.966 71.3401 124.966 71.5362V73.0739H124.733V71.5523C124.733 71.3803 124.724 71.2509 124.706 71.1648C124.687 71.0797 124.655 71.0113 124.609 70.9607C124.563 70.9092 124.509 70.8835 124.446 70.8835C124.347 70.8835 124.262 70.9414 124.189 71.0555C124.117 71.1705 124.081 71.3875 124.081 71.7082V73.0739H123.848ZM126.368 72.7652C126.282 72.8986 126.199 72.9927 126.119 73.0481C126.039 73.1028 125.953 73.1301 125.862 73.1301C125.711 73.1301 125.595 73.0634 125.513 72.9292C125.433 72.7949 125.392 72.6229 125.392 72.4148C125.392 72.2918 125.407 72.18 125.438 72.0788C125.468 71.9775 125.509 71.8963 125.558 71.8352C125.608 71.7741 125.664 71.7275 125.726 71.6962C125.772 71.6745 125.841 71.6528 125.933 71.6326C126.121 71.5917 126.26 71.5434 126.349 71.4864C126.35 71.4285 126.35 71.3915 126.35 71.3763C126.35 71.2034 126.328 71.0813 126.284 71.0113C126.225 70.9149 126.136 70.8674 126.019 70.8674C125.909 70.8674 125.828 70.902 125.776 70.9719C125.724 71.0418 125.685 71.1657 125.66 71.3433L125.432 71.2862C125.453 71.1094 125.487 70.9655 125.534 70.857C125.582 70.7476 125.651 70.6633 125.74 70.6046C125.83 70.546 125.934 70.5162 126.052 70.5162C126.17 70.5162 126.265 70.5419 126.338 70.5917C126.412 70.6424 126.466 70.7051 126.501 70.7814C126.535 70.8578 126.559 70.9535 126.573 71.07C126.581 71.1424 126.585 71.2726 126.585 71.4606V72.0257C126.585 72.4204 126.589 72.6696 126.6 72.7732C126.609 72.8778 126.629 72.9782 126.659 73.0739H126.415C126.391 72.9863 126.375 72.8834 126.368 72.7652ZM126.349 71.8184C126.264 71.8819 126.137 71.9349 125.968 71.9791C125.872 72.004 125.804 72.0321 125.765 72.0635C125.725 72.0948 125.694 72.1407 125.673 72.2017C125.651 72.2621 125.64 72.3287 125.64 72.4027C125.64 72.516 125.664 72.6101 125.711 72.6856C125.758 72.7604 125.827 72.7982 125.918 72.7982C126.007 72.7982 126.087 72.7628 126.157 72.6913C126.227 72.6197 126.279 72.5217 126.311 72.3979C126.337 72.3022 126.349 72.1608 126.349 71.9743V71.8184Z" fill="#00A0E9"/>
</g>
<defs>
<filter id="filter0_d_185_86" x="0" y="0" width="154" height="157" filterUnits="userSpaceOnUse" color-interpolation-filters="sRGB">
<feFlood flood-opacity="0" result="BackgroundImageFix"/>
<feColorMatrix in="SourceAlpha" type="matrix" values="0 0 0 0 0 0 0 0 0 0 0 0 0 0 0 0 0 0 127 0" result="hardAlpha"/>
<feOffset dy="16"/>
<feGaussianBlur stdDeviation="6.5"/>
<feColorMatrix type="matrix" values="0 0 0 0 0 0 0 0 0 0 0 0 0 0 0 0 0 0 0.03 0"/>
<feBlend mode="normal" in2="BackgroundImageFix" result="effect1_dropShadow_185_86"/>
<feBlend mode="normal" in="SourceGraphic" in2="effect1_dropShadow_185_86" result="shape"/>
</filter>
</defs>
</svg>
