<svg width="154" height="157" viewBox="0 0 154 157" fill="none" xmlns="http://www.w3.org/2000/svg">
<g filter="url(#filter0_d_185_232)">
<rect width="128" height="128" transform="translate(13)" fill="white"/>
<path fill-rule="evenodd" clip-rule="evenodd" d="M36.3699 51.8223C35.8277 51.5004 35.7676 51.1424 36.4637 50.82C38.1838 49.7442 41.7126 48.8995 45.2355 48.3466C46.2805 48.315 47.1968 48.2285 47.8479 47.8631C48.9675 47.6362 50.5294 48.1807 49.8944 49.7914C48.9363 50.4509 48.2947 50.8609 47.3374 51.5203C47.0059 51.9699 46.1267 52.4667 45.4579 52.2985C44.5327 53.2442 43.5547 53.6577 42.4607 53.9857C42.6552 54.1196 43.1208 54.0574 43.7096 53.9064C44.294 53.7049 44.8252 53.6223 45.2403 53.8011C45.6899 53.7639 46.0097 53.8686 46.1784 54.1167C47.0265 55.1358 46.6634 55.8613 45.5423 56.025C44.8074 56.0461 43.3967 56.1932 42.6113 56.7087C42.291 56.9186 41.9319 57.19 41.4905 57.367C40.638 57.7089 40.4216 58.9033 39.4814 59.6049C39.3038 60.8237 39.1961 61.7491 38.5684 61.9705C38.3181 62.2868 38.2437 62.5854 38.5562 62.9024C39.4969 63.5951 38.6238 64.5424 37.9267 65.1402C36.7844 65.531 36.0501 65.7719 34.9646 66.5427C34.3641 66.6444 33.8977 66.6504 34.3707 65.9888C34.7565 65.7386 35.1416 65.3217 35.5268 64.8806C35.9403 64.3881 35.9176 63.8426 35.7122 63.3498C34.9728 62.3878 36.2134 60.7904 36.8811 60.3037C36.951 60.2931 37.9261 59.9573 38.3886 58.7269C38.3986 58.5947 38.5145 58.3384 38.5251 58.2068C36.633 59.0654 34.208 59.1432 31.3025 58.6231C30.6236 58.2689 30.2256 57.6535 31.1226 57.2039C32.0356 57.3322 33.7512 57.1283 34.676 56.7438C35.1071 56.5644 35.9058 55.9539 36.7057 55.9312C37.4323 55.9101 37.8662 55.5249 38.4624 55.0669C41.5743 53.1927 46.0962 50.5069 45.584 49.6326C45.0951 49.5938 43.4421 50.6727 42.437 50.614C41.797 50.5762 40.2401 51.4277 39.0872 52.0598C38.6105 52.3445 38.3025 52.4506 37.2774 52.218C37.2351 52.1042 36.8621 51.9366 36.3699 51.8223Z" fill="black"/>
<path fill-rule="evenodd" clip-rule="evenodd" d="M46.9478 58.2213C47.3801 57.805 47.6853 57.8178 47.8641 58.2595C47.8641 58.5581 47.8641 58.8573 47.8641 59.1565C47.9007 59.525 47.6427 59.9273 47.375 60.0816C46.9953 60.3115 46.9965 60.3642 46.6168 60.5935C46.1074 61.3694 45.2127 61.6248 44.5505 61.7135C44.1914 61.9249 43.9473 62.0244 43.5882 62.2359C42.8255 62.3124 42.6084 62.1421 43.0137 61.6614C43.2218 61.3882 43.4805 61.1746 43.9422 60.8594C43.8983 60.5756 44.7959 59.9902 45.2127 59.793C45.528 59.0594 46.5064 59.0276 46.9478 58.2213Z" fill="black"/>
<path fill-rule="evenodd" clip-rule="evenodd" d="M45.5646 63.9343C45.7667 63.6962 45.8272 63.6406 45.9586 63.8781C45.9797 64.1506 45.9213 64.29 45.9419 64.5624C45.7649 64.6241 45.7461 64.6452 45.5695 64.5581C45.5589 64.2983 45.5752 64.1939 45.5646 63.9343Z" fill="black"/>
<path fill-rule="evenodd" clip-rule="evenodd" d="M39.9494 69.9996C40.1175 69.6094 40.4238 69.5994 41.0022 69.6482C41.4378 69.5816 41.7482 69.7283 41.5544 70.4008C41.3341 70.6879 41.0227 70.8964 40.7752 71.0452C40.4622 71.3333 40.2934 71.2518 39.9803 70.9387C39.9803 70.6634 39.9494 70.2749 39.9494 69.9996Z" fill="black"/>
<path fill-rule="evenodd" clip-rule="evenodd" d="M32.5596 69.6073C31.5582 69.1399 31.3563 68.7136 32.0023 68.2456C32.5541 67.9643 32.8621 67.7928 33.4138 67.5114C33.9339 67.4258 35.317 66.8476 35.6129 66.7205C37.6027 66.393 38.5817 66.5844 39.8994 66.912C40.0242 67.044 40.1491 67.1756 40.274 67.3077C40.9139 67.6745 42.0907 67.0234 43.8568 65.6965C44.107 65.5671 44.4401 64.6041 44.4812 63.6711C44.8186 62.8391 45.7361 62.621 46.5757 63.1123C47.4388 63.5035 47.908 64.3971 47.7858 64.759C47.8379 65.3129 47.7975 65.4439 47.7703 65.8302C47.5271 66.065 47.2712 66.7599 47.1342 67.3226C46.5254 67.453 46.1818 67.9598 45.6412 68.6725C45.6445 69.5211 45.5452 70.4874 45.4735 71.0292C45.115 71.3256 44.8769 72.1443 44.7409 73.1905C44.4289 74.0091 44.4583 74.9049 44.4417 75.9728C44.193 76.3725 44.2596 76.6127 43.98 76.8886C43.5226 77.3832 42.8921 77.7517 42.4764 77.0818C42.3932 76.6066 42.4198 76.5951 42.3364 76.1205C42.4603 75.2969 41.8819 75.1542 40.6004 75.2485C39.9304 75.4988 40.2113 75.5015 39.4087 75.6454C38.3308 75.8373 36.0719 76.9736 34.4784 77.6497C33.0042 78.39 31.8502 78.6353 30.6309 79.2308C30.0147 79.5317 29.7494 79.8803 28.9531 79.9968C27.0708 80.6445 26.5241 79.4773 27.4217 78.7575C29.2278 77.6485 31.7564 76.2088 34.3568 75.1003C36.9471 74.5642 38.2347 73.9492 39.1955 72.7421C39.5497 72.7143 40.2329 72.6504 40.5871 72.7288C40.9895 72.0865 41.2624 71.8345 41.5395 71.7928C42.1183 71.8261 42.1888 71.3583 42.5584 69.6605C42.6146 69.2286 42.9914 68.3661 42.0529 68.8346C41.7425 68.9895 41.0355 68.8323 40.7568 68.8119C40.3823 68.7841 39.5002 68.9789 39.4469 69.5828C39.3876 70.2632 39.1544 70.0605 38.8824 70.2571C38.1709 71.7356 37.6348 72.2387 36.719 72.1364C35.6017 73.3902 34.8796 74.0481 34.1526 74.1667C33.7679 74.5818 33.35 75.0737 33.4477 75.304C33.3005 75.7036 32.6772 75.9107 32.3408 75.1424C32.4107 74.6829 32.3348 74.1961 32.4047 73.7365C32.2827 73.4663 32.2255 73.4569 32.1033 73.1865C31.6592 72.8368 31.6054 72.0799 32.2032 71.8766C32.882 71.3566 33.2801 70.9765 33.4792 69.6094C33.1186 69.6088 32.9204 69.6082 32.5596 69.6073ZM35.1111 69.7437C36.0108 68.8473 36.8316 68.4072 37.7669 68.1047C38.2147 67.9071 38.4607 68.278 38.3457 68.7042C37.6698 69.3958 37.6565 69.5045 36.8482 69.7764C36.4455 69.6094 35.9231 69.6948 35.731 69.9435C35.2771 70.0163 35.0372 69.9685 35.1111 69.7437Z" fill="black"/>
<path fill-rule="evenodd" clip-rule="evenodd" d="M46.9893 72.9003C47.0893 73.3964 47.4095 73.8953 47.2896 74.3882C47.1375 75.0132 47.3018 75.5199 47.6094 75.9722C47.878 76.433 48.2741 76.5485 48.7981 76.3198C49.2255 76.0594 49.7812 75.7614 50.1579 75.329C50.3318 74.992 50.2823 74.8101 50.2556 73.9504C50.3095 73.443 49.4791 72.913 48.494 72.5228C47.6415 72.1637 47.1786 72.2253 46.9893 72.9003Z" fill="black"/>
<path fill-rule="evenodd" clip-rule="evenodd" d="M57.955 62.8524L59.8067 61.2778L61.0961 59.8802L62.9292 57.7461C63.9444 57.1961 65.1388 57.685 64.9751 58.3656C64.9618 60.2271 64.6693 61.7757 64.299 63.5613L63.8207 65.6965L63.376 67.855L63.2423 68.8622L62.3011 70.785L61.8392 72.3918L60.8979 73.4797C60.0476 73.5145 59.3648 73.3986 59.8572 72.2242L60.3035 71.9316L60.7491 71.1784L61.0961 69.4624L61.7399 67.4121L62.1861 65.571L62.5325 63.6877L62.9787 61.0097C62.8759 60.5496 62.5952 60.4664 62.1362 60.7589C61.5284 61.109 61.0595 61.6475 60.8979 62.5999C60.763 63.4714 60.3045 64.0929 59.8572 64.7762C58.0639 65.1986 57.2513 64.6135 57.955 62.8524Z" fill="black"/>
<path fill-rule="evenodd" clip-rule="evenodd" d="M64.8453 64.4144L67.0411 61.763L68.0001 60.6479C69.0617 59.9035 69.6562 59.9307 69.916 60.8427L69.6668 62.4328C70.0731 62.3569 70.4788 62.2813 70.8845 62.2059C71.5167 62.4644 71.9258 62.9108 72.1118 63.5456L71.6328 64.0985L71.4012 67.4121C70.8179 68.6786 70.2352 68.3917 69.6519 67.3986L69.7167 64.9432L69.2223 64.8878L68.2497 70.2983C67.7221 70.9769 66.8656 70.8598 66.2484 70.2577L66.3971 69.2952L66.8429 68.1237L67.2891 67.0773L67.4873 66.1987L67.6704 65.3483L67.9502 63.5773C67.8186 63.5123 67.687 63.4475 67.5554 63.3825C67.1231 64.038 66.8689 64.693 66.7934 65.3483C66.7152 66.3608 66.2079 66.5167 65.5052 66.3242C64.7782 65.885 64.4128 65.3051 64.8453 64.4144Z" fill="black"/>
<path fill-rule="evenodd" clip-rule="evenodd" d="M72.0934 59.3352L72.6718 58.8612L73.0236 58.4854C73.4078 58.1557 73.7912 57.8256 74.1753 57.4953C75.0273 57.0778 75.5231 57.3016 75.6617 58.1645C76.3227 59.4163 75.966 61.3955 75.4635 63.479L75.0179 68.0399C75.1023 70.3482 74.7737 72.5872 74.4095 74.8195C73.5515 75.6437 73.0896 75.3284 72.8566 74.4953L72.9371 69.6715C73.036 68.1652 73.1352 66.6589 73.2339 65.1525C73.4393 63.6599 73.7037 62.1675 74.1765 60.6751L74.1182 59.7537C72.9377 60.5146 72.2028 60.5602 71.9136 59.8907L72.0934 59.3352Z" fill="black"/>
<path fill-rule="evenodd" clip-rule="evenodd" d="M85.8515 65.3141C85.3048 66.0989 85.603 66.5079 86.7445 66.5423C87.0431 66.7088 86.9427 67.044 87.0416 67.2954L86.0508 68.258L84.566 70.1706C83.9389 71.4809 84.5778 71.8944 86.0998 71.6319L88.6767 69.3874L89.5187 68.2995L91.005 65.4122L93.9444 62.9145L94.0272 61.7301L93.284 60.8509L92.7391 60.9347L92.4914 61.3117L92.2617 62.2474L91.5995 62.6927L90.924 62.2874C90.9024 61.6085 90.8801 60.9299 90.8586 60.251C90.5778 59.777 90.2529 59.7542 89.8839 60.1811L89.1045 62.399L88.6945 64.029L86.5959 65.1614C86.3478 65.2125 86.0998 65.263 85.8515 65.3141Z" fill="black"/>
<path fill-rule="evenodd" clip-rule="evenodd" d="M90.9557 67.8811C90.8535 67.4325 90.8734 66.9841 91.716 67.211L93.4328 68.7179L94.176 69.0948C95.2943 69.5029 95.3242 70.1173 95.3648 70.6846L94.7055 72.3446C94.2759 72.8374 93.8684 72.6166 93.3834 72.3585L92.739 71.7307L91.8969 70.6012C91.5834 69.6944 91.2691 68.788 90.9557 67.8811Z" fill="black"/>
<path fill-rule="evenodd" clip-rule="evenodd" d="M110.465 53.0756L110.604 53.5794C112.354 56.349 112.815 58.1857 111.986 59.0905C111.976 59.5005 112.386 59.5494 113.215 59.2375L113.889 57.6462L113.821 56.1926C114.834 56.3408 115.253 57.0606 115.63 57.9787C115.291 58.3572 114.953 58.7353 114.615 59.1138C114.558 59.3724 114.515 59.5739 114.927 59.4412L115.968 58.7762C116.954 59.373 117.882 59.9863 118.403 60.7194L117.341 61.5392C117.278 61.7697 117.379 61.9067 117.644 61.9506L118.755 61.4709L119.389 61.8572L120.81 61.7434L126.912 55.5633C127.17 54.9099 126.849 54.6618 126.122 54.5108L120.243 55.6475L120.225 56.107L121.354 56.3414L125.418 55.42L120.301 60.3043L119.253 60.3027L118.507 59.6853C120.004 59.7987 121.007 58.8772 120.626 57.8804L118.953 56.5511L120.356 55.043L119.204 54.0863L125.39 48.7767C125.605 48.3934 125.589 48.2624 125.278 48.1314C122.354 49.9375 121.187 50.967 117.342 53.9841C115.739 54.0562 114.443 54.3765 113.196 54.8294C112.179 53.9669 111.201 52.6542 110.465 53.0756ZM118.787 55.4989L118.835 55.2196C117.904 55.0832 115.515 56.6476 115.536 56.7078L116.8 57.0118C117.654 56.6482 118.803 55.8208 118.787 55.4989ZM118.782 57.4941L118.414 56.9525C117.56 57.3159 117.306 57.3359 117.548 58.1158L118.104 58.366C118.879 57.9237 118.798 57.8156 118.782 57.4941Z" fill="black"/>
<path fill-rule="evenodd" clip-rule="evenodd" d="M121.092 57.3365C121.176 57.659 121.385 57.8332 121.723 57.8599C122.08 57.7506 122.398 57.5573 122.679 57.2817C122.646 56.9274 122.633 56.6721 122.344 56.6155C121.577 56.5672 121.351 56.9474 121.092 57.3365Z" fill="black"/>
<path fill-rule="evenodd" clip-rule="evenodd" d="M110.077 57.8994C109.65 58.1412 109.315 58.5275 109.273 59.1492C109.182 60.5242 109.409 61.4339 110.101 61.6647C110.539 61.5915 110.76 61.42 111.031 60.9731C111.369 59.7531 110.66 57.8931 110.077 57.8994Z" fill="black"/>
<path fill-rule="evenodd" clip-rule="evenodd" d="M112.862 59.9336L111.938 60.7928L112.315 61.3434L115.316 61.1002L115.964 60.5747L115.667 59.8725L113.557 60.467C113.587 60.0241 113.236 59.9663 112.862 59.9336Z" fill="black"/>
<path fill-rule="evenodd" clip-rule="evenodd" d="M101.681 66.474C100.898 68.4894 102.58 68.9729 105.101 68.2613C109.329 65.6454 112.645 63.8387 117.163 62.3945C117.392 61.8728 117.114 61.5648 116.511 61.6109C111.637 62.6143 107.453 64.0856 103.791 65.9528C103.058 66.1116 102.414 66.3152 101.681 66.474Z" fill="black"/>
<path fill-rule="evenodd" clip-rule="evenodd" d="M123.661 60.7472C123.794 61.1934 124.028 61.5764 124.481 61.6502C123.625 61.8572 123.246 62.3436 122.521 62.4516C120.239 62.7925 117.987 63.4923 117.646 64.4919L115.07 64.7429C113.999 65.083 113.151 65.6454 112.525 66.4286C112.73 67.6197 112.934 68.8101 113.14 70.0012C111.658 70.8988 109.939 70.9765 108.268 71.2179C106.911 72.1719 107.399 73.0994 109.732 74.0009L113.578 73.3481C113.852 74.8477 114.531 76.2254 114.364 77.7462C112.903 77.7178 111.038 76.8375 109.682 75.9245C110.038 77.1733 112.659 78.445 114.104 79.6854C115 79.5172 115.578 78.8656 115.838 77.7305C115.977 76.1815 115.871 74.632 115.226 73.0816L116.553 71.889L119.251 71.5381C120.316 70.8737 120.64 70.2078 119.332 69.4428L115.27 69.8853L114.114 66.7327L116.129 65.3662C117.052 65.3045 117.867 65.0781 118.607 64.7396L123.209 63.9969C124.718 63.4518 125.712 62.5305 126.568 61.6236C126.837 61.2095 126.75 60.866 126.306 60.5935C124.976 60.2776 123.899 60.3293 123.661 60.7472Z" fill="black"/>
</g>
<defs>
<filter id="filter0_d_185_232" x="0" y="0" width="154" height="157" filterUnits="userSpaceOnUse" color-interpolation-filters="sRGB">
<feFlood flood-opacity="0" result="BackgroundImageFix"/>
<feColorMatrix in="SourceAlpha" type="matrix" values="0 0 0 0 0 0 0 0 0 0 0 0 0 0 0 0 0 0 127 0" result="hardAlpha"/>
<feOffset dy="16"/>
<feGaussianBlur stdDeviation="6.5"/>
<feColorMatrix type="matrix" values="0 0 0 0 0 0 0 0 0 0 0 0 0 0 0 0 0 0 0.03 0"/>
<feBlend mode="normal" in2="BackgroundImageFix" result="effect1_dropShadow_185_232"/>
<feBlend mode="normal" in="SourceGraphic" in2="effect1_dropShadow_185_232" result="shape"/>
</filter>
</defs>
</svg>
