<svg width="154" height="157" viewBox="0 0 154 157" fill="none" xmlns="http://www.w3.org/2000/svg">
<g filter="url(#filter0_d_185_94)">
<rect width="128" height="128" transform="translate(13)" fill="white"/>
<path fill-rule="evenodd" clip-rule="evenodd" d="M66.1522 51.0399C66.1522 51.0399 69.0077 51.3003 68.9003 52.4848C68.9003 52.4848 68.7507 52.8579 68.9373 53.0585C69.0112 53.1333 69.555 53.0216 70.0505 52.8729C70.3857 52.7611 70.6832 52.5376 70.743 52.5376C70.743 52.5376 73.7851 51.8855 72.2847 53.3868C72.2847 53.3868 70.9929 53.5355 69.585 54.2738C69.2127 54.4595 68.3715 54.9329 68.2219 54.8176C68.148 54.7428 68.192 54.5563 68.7402 54.0274C68.7402 54.0274 67.8496 54.3627 66.8148 54.6575C66.4795 54.7314 66.0219 54.9549 65.7016 54.9549C65.3294 54.9831 64.6219 55.1415 64.4688 54.976C64.32 54.7895 65.0091 54.7155 65.6567 54.3653C66.2041 54.067 66.5244 53.6754 66.7329 53.1395C66.8447 52.8042 66.8817 52.5658 66.7479 52.1522C66.6362 51.8169 66.5992 51.4218 66.1486 51.0531L66.1522 51.0399Z" fill="#C92B2F"/>
<path fill-rule="evenodd" clip-rule="evenodd" d="M65.6109 56.8232C65.7227 56.8513 65.7227 56.9719 65.7227 57.2174C65.7121 57.3292 65.7482 57.4409 65.6857 57.5905C65.6857 57.5905 66.0914 57.5527 66.791 57.0801C67.7105 56.4685 68.3846 56.1526 68.902 56.1227C69.1634 56.1069 69.4054 56.2345 69.6025 56.3084C69.9008 56.3832 70.1648 56.4202 70.3514 56.5319C70.574 56.6815 70.4622 56.927 70.4253 57.1136C70.4165 57.3371 70.4552 57.5272 70.2018 57.6424C69.9782 57.7172 69.6544 57.6486 69.4019 57.6794C69.0666 57.7172 68.7648 57.9029 68.5597 57.7172C68.411 57.6055 68.6345 57.382 68.7084 57.1206C68.8202 56.8232 68.7832 56.8232 68.6935 56.7484C68.5817 56.7114 68.396 56.6366 68.2429 56.7255C67.9455 56.949 67.6841 57.3811 67.6357 57.4409C67.1931 57.9698 66.6229 58.2118 66.05 58.4846C65.6778 58.6703 65.2378 58.6703 64.8805 58.8199C64.3596 59.0434 63.9346 59.4077 63.4735 59.5573C62.9067 59.7438 62.9217 59.259 63.4427 58.6254C63.6653 58.3279 64.0569 58.1634 64.4362 57.851C64.5857 57.7392 64.8497 57.4673 65.1067 57.1989C65.2932 57.0124 65.442 56.7554 65.6276 56.8038L65.6109 56.8232Z" fill="#C92B2F"/>
<path fill-rule="evenodd" clip-rule="evenodd" d="M60.5892 68.4248C60.5892 68.4248 61.1885 68.2383 61.8995 67.6944C62.1978 67.4709 62.4618 67.0503 62.7971 66.7449C63.4747 66.1298 64.1672 65.344 64.7225 64.6251C65.1545 64.0663 65.437 63.4732 65.635 63.1009C65.9694 62.5052 65.6262 62.0353 65.2549 61.5179C64.9944 61.1342 64.6178 60.7796 64.5139 60.6045C63.6982 59.2229 64.9565 60.4188 65.6157 60.9028C66.1489 61.2979 66.2941 61.6595 66.368 61.6666C66.4428 61.6754 66.4428 61.3313 66.7552 60.8024C67.0535 60.3255 67.1275 59.9189 67.2542 59.7773C67.329 59.7034 67.1803 59.8116 67.8649 60.2137C68.6921 60.7092 69.1532 61.7819 68.4835 62.4489C68.4835 62.4621 67.4592 62.8405 68.1852 63.6597C68.3339 63.8463 68.9112 64.4456 69.5254 65.2138C69.9425 65.7391 70.2927 66.3868 70.8735 66.8118C71.5027 67.2738 72.2102 67.9259 72.8174 68.1195C73.5548 68.343 74.1092 68.4547 73.8971 68.5929C73.7854 68.6668 73.5619 68.7046 72.4302 68.8903C71.8125 68.9651 71.1234 69.1886 70.4529 69.0021C69.7823 68.8164 69.1382 68.2611 68.6991 67.5792C68.5504 67.3187 68.077 66.4466 67.6977 65.6045C67.3624 64.8635 67.0984 64.1296 66.8371 64.0848C66.5027 64.01 66.3381 64.6022 66.0222 65.0721C65.642 65.6379 65.1017 66.0181 64.5403 66.5654C64.007 67.0802 61.8705 68.5779 61.185 68.6633C59.8113 68.8498 60.9984 68.2163 60.6042 68.4398L60.5892 68.4248Z" fill="#C92B2F"/>
<path fill-rule="evenodd" clip-rule="evenodd" d="M80.2723 55.6397C80.2723 55.6397 80.9499 55.219 81.8545 54.6189C82.3051 54.3214 82.6958 53.8665 83.2176 53.4643C84.0888 52.7973 85.1316 52.1417 85.928 51.5944C86.837 50.9679 87.6448 50.7892 87.7821 50.4275C87.7821 50.4275 88.4341 50.2419 88.8548 50.3906C89.1152 50.4654 89.19 50.8939 89.2455 51.1614C89.2455 51.1614 88.464 52.1417 87.797 52.9689C87.313 53.5726 86.8326 54.0451 87.0376 54.2686C87.0376 54.2686 88.01 55.0325 87.4327 55.4161C87.4327 55.4161 85.3841 56.8804 84.9045 56.3032C84.9045 56.3032 85.9728 55.696 86.1664 54.9691C86.1664 54.9691 85.5408 54.537 86.1295 53.7178C86.1295 53.7178 87.1863 52.4401 87.4283 51.8135C87.4283 51.8135 86.5237 52.4436 85.671 53.1256C84.6432 53.9448 83.4077 55.1741 82.9571 55.3871C82.6958 55.7743 79.6537 55.6476 80.2794 55.6476L80.2723 55.6397Z" fill="#C92B2F"/>
<path fill-rule="evenodd" clip-rule="evenodd" d="M78.5608 60.1802C78.8951 60.3668 79.2753 60.4416 79.5138 60.6387C80.407 61.3312 80.5152 62.1584 80.3286 62.5051C80.1799 62.7656 80.0312 62.6169 79.8446 62.6169C79.5842 62.6072 79.2639 62.6521 79.1151 62.5051C79.0403 62.4303 79.1178 62.1329 79.0403 61.8346C78.8916 61.1455 78.449 60.3289 78.5564 60.1916L78.5608 60.1802Z" fill="#C92B2F"/>
<path fill-rule="evenodd" clip-rule="evenodd" d="M79.7786 65.629C79.7786 65.629 79.7487 65.2568 79.783 64.8696C79.8103 64.5713 79.9696 64.2061 79.6713 64.0389C80.766 64.4261 80.8293 65.4284 80.4791 65.7821C80.3304 65.9309 79.9731 65.5217 79.7716 65.6334L79.7786 65.629Z" fill="#C92B2F"/>
<path fill-rule="evenodd" clip-rule="evenodd" d="M77.0929 65.5394C77.0859 65.3159 77.6218 65.5623 78.4006 65.7998C78.933 65.9494 79.5771 66.0234 80.2318 66.2733C81.0405 66.5716 81.8818 66.8655 82.7459 67.1453C85.0392 67.8898 87.4749 68.4415 89.7013 67.8528C89.7013 67.8528 89.887 68.6316 88.2264 69.0232C88.2264 69.0232 88.0029 68.9889 87.687 69.2089C87.2919 69.4702 86.7525 70.044 86.2386 70.2341C85.6763 70.4576 84.1125 68.9933 82.0367 67.8863C81.1356 67.4058 80.033 67.1374 79.2436 66.7986C78.4059 66.4264 77.899 66.0128 77.5866 65.8377C77.3631 65.7259 77.0947 65.6881 77.0912 65.5394H77.0929Z" fill="#C92B2F"/>
<path fill-rule="evenodd" clip-rule="evenodd" d="M98.2476 57.4065C98.2537 57.3317 100.701 57.9055 101.699 57.4813C101.699 57.4813 104.689 51.9955 104.547 51.1402C104.547 51.1402 106.54 51.5687 105.829 53.0629C105.829 53.0629 104.12 55.805 104.194 56.8732C104.194 56.8732 105.4 56.8873 105.441 56.4676C105.441 56.4676 107.382 56.2062 107.464 56.6911C107.464 56.6911 107.314 57.4998 105.84 57.9204C105.84 57.9204 103.147 58.5355 102.98 59.1682C102.98 59.1682 101.435 60.9079 101.353 61.8768C101.353 61.8768 103.673 63.3112 104.008 64.1533C104.008 64.1533 104.689 64.7834 106.011 65.0993C106.715 65.2858 108.066 65.2489 108.785 65.1741C108.785 65.1741 108.253 65.7258 107.758 65.9599C107.37 66.1465 106.957 66.1834 106.957 66.4069C106.957 66.4069 105.542 67.7674 104.32 66.7985C104.32 66.7985 103.375 66.3216 102.828 64.72C102.828 64.72 101.64 62.3238 100.88 62.4506C100.5 62.5253 100.08 63.2927 99.5394 64.0451C97.9757 66.2213 95.649 67.5139 93.2616 68.6702C92.4573 69.0618 91.7833 69.3777 91.6002 69.0909C91.6002 69.0909 92.2189 68.9052 93.112 68.2417C94.7022 67.0537 97.0147 65.0078 97.7706 63.4124C98.7457 62.1646 99.264 61.3189 99.7031 60.7082C100.117 60.1344 100.489 59.7693 100.235 59.3477C100.049 59.0503 99.5244 58.9676 99.0369 58.5021C98.5785 58.0586 98.2432 57.4743 98.2467 57.4408L98.2476 57.4065Z" fill="#C92B2F"/>
<path fill-rule="evenodd" clip-rule="evenodd" d="M113.544 55.3526C113.842 55.5014 114.121 55.8516 114.452 56.2397C114.881 56.7351 115.317 57.2824 115.268 57.7673C115.193 58.6279 114.489 58.7986 114.166 58.4035C113.868 58.0683 113.905 57.4276 113.782 56.8169C113.67 56.2766 113.521 55.6879 113.558 55.3526H113.544Z" fill="#C92B2F"/>
<path fill-rule="evenodd" clip-rule="evenodd" d="M120.19 62.4374C120.19 62.4374 121.143 62.1021 121.348 62.6239C121.236 62.8105 120.942 63.276 120.566 63.738C120.38 63.9615 120.148 64.2783 119.948 64.2783C119.798 64.2774 119.139 64.427 119.054 64.1665C119.017 64.0178 119.352 63.98 119.527 63.7934C119.639 63.6817 119.515 63.496 119.713 63.3728C118.596 63.9985 117.948 63.9465 117.598 63.7934C117.486 63.7565 117.051 63.3992 117.088 63.261C117.12 63.1493 117.613 63.298 118.153 63.2294C118.938 63.1176 119.891 62.7788 120.2 62.4207L120.19 62.4374Z" fill="#C92B2F"/>
<path fill-rule="evenodd" clip-rule="evenodd" d="M114.435 66.364C114.435 66.364 114.77 66.6992 115.354 66.6992C115.54 66.7019 115.898 66.5136 116.244 66.4018C116.751 66.2522 116.896 66.0287 117.883 65.5632C117.883 65.5632 118.97 64.9894 120.113 64.6093C120.448 64.4975 121.111 64.4236 121.569 64.2335C122.027 64.047 122.138 63.79 122.425 63.8085C123.691 63.8833 124.153 65.2693 124.012 65.2693C123.937 65.2693 123.296 65.1945 122.723 65.418C121.882 65.7533 120.943 65.9917 120.456 65.6415C120.456 65.6415 120.679 65.5667 121.315 65.1945C121.306 65.205 119.755 65.2314 120.009 65.5966C120.009 65.5966 120.269 66.6288 120.396 67.9215C120.471 68.6889 120.544 70.3951 120.471 71.7142C120.434 72.3135 120.464 72.8389 120.247 73.1671C120.135 73.3528 119.76 73.3906 119.238 73.1768C118.94 73.065 118.72 72.7781 118.382 72.5995C117.421 72.0926 116.214 71.5224 115.269 70.9487C114.509 70.4867 113.928 69.9728 113.704 69.8566C113.704 69.8566 114.699 70.4268 115.845 70.6838C116.501 70.8334 117.149 70.8334 117.614 70.9073C118.296 71.0191 118.683 71.1687 118.944 71.0191C119.316 70.7955 119.167 70.2966 119.167 69.7079C119.139 69.0673 119.465 65.7867 119.54 65.7585C119.54 65.7585 118.683 65.9821 118.136 66.4326C117.473 66.9949 116.516 67.5502 116.27 67.5053C115.82 67.4305 114.904 67.8036 114.699 67.1296C114.885 67.7851 114.475 66.3464 114.475 66.3464L114.435 66.364Z" fill="#C92B2F"/>
<path fill-rule="evenodd" clip-rule="evenodd" d="M81.5582 61.4378C81.67 61.1025 81.707 60.4883 81.9305 60.1117C82.117 59.8142 82.2657 59.6611 82.4259 59.3038C82.4259 59.3038 82.4241 59.8661 82.5377 60.5138C82.5377 60.5138 83.1255 59.244 84.1269 58.1299C85.2929 56.8337 86.7378 56.2371 87.4787 56.3489C88.2452 56.4606 88.0182 57.5078 87.7762 58.4432C87.3555 59.9964 87.0581 61.6763 86.7968 63.3201C86.648 64.2405 86.4624 65.1117 86.4245 66.0101C86.4245 66.0101 85.7584 66.4941 85.4566 65.8984C85.4566 65.8984 85.2709 65.0527 84.6786 65.2798C84.6786 65.2798 84.0864 66.092 83.8963 65.3915C83.8963 65.3915 83.9711 63.5136 83.9711 62.9029C83.9711 62.9029 83.1924 63.2004 83.0771 62.6416C83.0771 62.6416 83.4608 61.766 83.8409 60.9283C84.2131 60.5182 83.9527 60.2797 83.9527 60.1275C83.9509 60.0527 84.0644 60.0157 84.3654 59.904C84.3654 59.904 84.5519 59.0953 84.2536 58.9422C84.2536 58.9422 83.6728 59.7843 83.1554 60.5701C82.9697 60.8684 82.7348 61.3718 82.616 61.759C82.3546 62.6416 82.8017 63.9008 82.4664 64.4526C82.3177 64.6761 81.8407 64.5643 81.5169 64.2291C81.0963 63.7935 81.0743 63.0596 81.5538 61.4272L81.5582 61.4378ZM84.544 58.6069C84.544 58.6069 86.5213 56.8408 87.0282 57.0344C87.0282 57.0344 86.8416 59.4006 86.4773 60.7268L86.0338 62.8985L85.8473 65.1266C85.8473 65.1266 84.8687 65.1319 84.9057 64.6277C84.9057 64.6277 84.9022 64.2924 84.9162 63.7671C84.9268 63.3641 84.9532 62.8836 85.1019 62.5483C85.2137 62.3248 85.4856 62.213 85.6387 62.1277C86.0629 61.4307 86.1711 61.1368 85.8992 60.8271C85.7874 60.6784 85.1838 60.6036 85.013 60.3686C84.8634 60.1829 85.087 59.5124 84.9382 59.0504C84.8634 58.8269 84.6408 58.6773 84.5326 58.6034L84.544 58.6069Z" fill="#C92B2F"/>
<path fill-rule="evenodd" clip-rule="evenodd" d="M115.882 56.8047C115.882 56.8047 115.956 56.3498 115.695 55.0307C115.546 54.3416 115.361 53.3094 114.857 52.2103C114.857 52.2103 116.045 53.459 116.794 54.6734C117.129 55.2172 117.018 55.9511 117.282 56.1148C117.654 56.3383 117.788 55.7426 118.031 55.4073C118.328 54.9603 118.406 54.5432 118.473 54.3003C118.622 53.7679 118.324 53.7714 117.774 52.814C117.774 52.814 118.238 52.5905 118.7 52.7392C118.7 52.7392 121.102 49.6584 121.05 49.0926C121.05 49.0926 121.013 48.1123 120.752 48.0084C120.492 47.8967 122.923 48.9095 122.51 50.1503C122.51 50.1503 121.005 51.3242 119.97 52.132C119.501 52.5051 119.196 52.829 119.05 52.8774C119.05 52.8774 119.453 52.9029 119.71 52.9891C119.821 53.0261 121.653 51.9947 123.399 51.2943C125.44 50.4741 127.441 50.1389 126.915 51.3682C126.543 51.8645 124.006 55.0051 122.781 57.1505C122.371 57.866 122.088 58.313 122.2 58.5629C122.275 58.7116 122.572 58.5339 122.859 58.4511C124.144 58.1159 126.843 57.382 126.843 58.1159C126.843 58.1159 126.821 58.8014 126.333 59.3417C126.073 59.6391 125.641 59.8037 125.13 60.1161C124.277 60.6414 122.512 60.6792 121.459 61.033C120.598 61.3313 119.727 61.6736 118.871 61.5768C118.849 61.5469 119.262 61.4651 119.872 61.1967C121.038 60.7083 122.978 59.8556 124.343 59.2783C125.3 58.8718 125.605 58.4811 125.546 58.3649C125.472 58.2162 124.738 58.4027 123.918 58.5884C122.865 58.8128 121.662 59.1366 121.513 59.4006C121.513 59.4006 121.327 59.5872 121.022 59.7737C120.597 60.0342 120.017 60.1724 119.74 59.8477C119.74 59.8477 118.296 60.3625 117.082 60.9547C116.639 61.1782 115.902 61.5988 115.258 62.2474C114.606 62.8994 114.014 63.9572 113.459 64.5837C112.788 65.3431 112.197 65.6045 111.977 65.4549C111.977 65.4549 111.456 65.2314 112.275 63.7152C112.61 63.0816 113.165 62.177 114.1 60.9811C114.1 60.9811 112.297 63.6448 112.45 64.472C112.45 64.472 113.31 63.7037 114.088 62.888C115.548 61.3647 116.192 60.9133 118.263 59.9154C118.743 59.6919 119.175 59.435 119.544 59.3822C119.395 59.1217 119.516 58.511 119.284 58.3095C119.023 58.0859 118.721 58.1607 118.553 58.049C118.219 57.8255 118.141 57.4902 117.962 57.5386C117.627 57.6504 117.392 58.0745 117.027 58.5215C116.766 58.8199 116.487 59.2484 115.91 59.3302C116.208 58.9316 117.34 57.5421 117.176 56.9534C117.139 56.8047 116.878 56.7669 116.55 56.7669C116.364 56.7572 116.148 56.6551 115.895 56.788L115.882 56.8047ZM119.893 54.852C120.041 54.6655 120.406 54.6655 120.488 54.4648C120.712 53.9281 120.153 53.2091 119.903 53.3842C119.903 53.3842 120.715 52.9407 120.868 53.1977C120.868 53.1977 121.326 53.7829 121.523 54.3971C121.71 54.9418 121.635 55.5111 121.374 55.7276C121.374 55.7276 120.35 56.6146 119.673 56.7554C119.561 56.7801 119.486 56.495 119.412 56.2494C119.383 56.1377 119.384 55.9881 119.337 55.9511C119.226 55.9238 119.412 56.7449 119.226 56.8302C118.89 56.9789 118.653 56.8672 118.723 56.495C118.798 56.1966 119.49 55.3774 119.881 54.8186L119.893 54.852ZM125.517 51.2124C125.741 51.436 125.555 51.7712 125.183 52.2816C124.811 52.7621 124.416 53.5074 123.95 54.185C122.23 56.6736 120.818 58.5963 120.184 58.8903C119.96 59.002 119.96 58.555 119.812 58.108C119.737 57.8475 119.625 57.5087 119.7 57.3001C119.775 57.1505 120.072 57.1505 120.426 57.0018C120.686 56.8901 122.228 56.231 122.313 56.0963C122.701 55.5041 122.286 54.61 122.016 54.0398C121.632 53.1827 121.018 53.0604 121.23 52.8369C121.639 52.4039 125.286 50.9889 125.506 51.2274L125.517 51.2124Z" fill="#C92B2F"/>
<path fill-rule="evenodd" clip-rule="evenodd" d="M48.3925 58.1677C48.3925 58.1677 47.458 57.9812 47.9719 56.4835C47.9719 56.4835 48.2702 56.1068 48.4559 55.2207C48.5676 54.6874 48.6794 53.972 48.6055 53.0445C48.6055 53.0445 48.8659 53.1941 49.0815 53.6561C49.2302 53.9535 49.2302 54.5123 49.342 54.9153C49.4168 55.1388 49.4538 55.3324 49.6403 55.3773C49.7521 55.4055 51.7109 54.2589 51.8631 54.1251C52.0118 53.9764 52.0118 53.8268 52.0866 53.6482C52.1984 53.3499 52.3471 53.0375 52.4219 52.7207C52.5706 52.2807 52.7193 51.8336 52.7941 51.2898C52.8249 50.9915 52.8689 50.6756 52.7906 50.3438C52.7827 50.313 52.7167 50.306 52.6789 50.269C52.6789 50.269 52.3436 49.9338 52.4554 49.7367C52.5302 49.6249 52.6419 49.6249 52.839 49.5871C53.6847 49.4753 54.5075 50.306 54.7644 50.5858C54.9879 50.8463 54.8383 51.1895 54.7407 51.4685C54.5919 52.0017 54.1115 52.5156 54.1115 52.9891C54.1115 52.9891 54.2972 53.1008 54.562 53.0058C55.0311 52.8571 55.5485 52.2604 55.9471 52.2534C56.2076 52.2499 56.4126 52.5139 56.5913 52.7752C56.7769 53.0357 57.1421 53.2478 57.2055 53.5162C57.3542 54.1462 55.4737 55.6994 54.8859 56.2177C54.5136 56.5151 54.1819 56.9287 53.8501 56.9586C53.7014 56.9745 53.7014 56.8469 53.6275 56.6234C53.5157 56.4368 53.2922 56.1464 53.2922 55.8041C53.2922 55.8041 53.4779 55.9898 53.7577 55.878C54.093 55.7293 54.8225 54.478 55.0346 54.075C55.1463 53.8893 55.2581 53.6763 55.2581 53.4422C55.2669 53.2557 55.0715 53.3305 54.8859 53.3675C54.5875 53.4422 54.1335 53.6658 53.6864 54.2351C53.4629 54.4965 53.2403 54.8652 53.0757 55.2453C53.0018 55.431 52.5997 56.7615 52.253 57.7005C52.0294 58.2628 51.7954 58.62 51.8209 58.6728C51.8209 58.6728 51.8587 58.8216 51.9705 58.8216C52.1931 58.7916 52.6437 58.598 53.3477 58.3895C53.9997 58.166 54.8964 57.909 55.735 57.5702C56.2076 57.3837 56.6212 57.0783 57.0524 56.9551C57.4809 56.8434 57.9315 56.8803 58.2887 56.9921C60.1728 57.6855 57.8232 58.7696 56.9186 58.8101C56.8447 58.8145 56.3792 58.9219 55.977 58.9967C55.3285 59.1454 55.2502 59.2571 55.6787 58.8101C55.7535 58.7362 55.7535 58.6244 55.8653 58.5127C55.8653 58.5127 54.4723 58.8849 53.3741 59.2281C52.6701 59.4516 51.9291 59.6751 51.9142 59.9057C51.9142 59.9057 52.2494 60.241 52.5548 60.5578C53.2209 61.2653 53.2843 61.0162 52.9349 61.8135C52.8232 62.1118 52.2758 63.2927 52.3392 63.5902C52.4131 63.8515 52.6366 63.7767 53.1356 64.1868C53.5448 64.559 53.4709 64.801 53.3961 65.0289C53.2473 65.4011 52.7748 65.7435 51.9177 65.3642C51.769 65.2894 51.6572 65.3281 51.5833 65.344C51.248 65.4188 49.4757 67.6574 49.181 67.9742C48.4251 68.7864 47.5424 69.5168 46.5709 69.9823C44.5567 70.9477 43 70.3554 42.9815 70.2437C42.978 70.2243 42.8328 69.7588 42.9454 69.3681C42.9833 69.2185 43.0202 69.0328 43.095 69.0328C43.2437 68.958 43.616 69.1067 44.0252 69.2185C44.6623 69.3681 45.4182 69.5168 45.7684 69.3303C46.93 68.7046 47.9877 67.6469 48.814 66.7669C49.5664 65.9661 50.1393 65.329 50.236 64.9788C50.2704 64.867 50.1621 64.7931 49.9756 64.7552C49.2496 64.5696 48.7955 64.2862 48.7102 63.8497C48.5984 63.2276 48.9328 62.4682 49.2646 61.8267C49.6368 61.1007 49.9166 60.497 49.4881 60.6018C49.1009 60.6757 48.6274 60.9854 48.0995 61.2125C47.0936 61.648 45.9585 62.1285 45.2994 62.4831C44.4572 62.9372 43.858 63.3878 43.7348 63.496C43.0651 64.0777 42.7853 64.3082 42.0338 62.7771C41.7724 62.2332 41.8103 62.0731 42.2194 61.9349C42.6181 61.7862 43.1205 61.9516 43.5192 61.7862C44.0445 61.5996 45.6267 60.8253 47.1605 60.27C48.6054 59.7482 50.0205 59.4279 50.2704 59.1674C50.456 58.9439 50.6048 58.694 50.7429 58.3956C51.0404 57.7365 51.2269 56.8944 51.3906 55.9704C51.4654 55.6352 51.6889 55.2585 51.5023 55.2216C51.3906 55.1987 51.2419 55.4081 51.0333 55.5199C50.4376 55.8551 49.4097 56.8794 49.041 57.4312C48.7058 57.9222 49.0322 57.8034 48.3714 58.1352L48.3925 58.1677ZM50.4631 61.9648C50.4631 61.9648 50.6496 60.9705 50.94 60.5569C51.1635 60.2216 51.4311 60.4451 51.4795 60.7425C51.5076 60.9291 51.4055 61.0409 51.2938 61.3163C51.2603 61.3911 50.9955 61.861 50.8837 62.3371C50.8098 62.6354 50.8916 63.1238 50.5863 63.3174C50.3628 63.4661 50.1243 63.3138 50.0873 63.0191C50.0592 62.7955 50.1991 62.4453 50.4745 61.9877L50.4631 61.9648Z" fill="#C92B2F"/>
<path fill-rule="evenodd" clip-rule="evenodd" d="M32.0646 56.787C32.047 56.787 31.2154 57.205 30.5528 57.1751C30.0987 57.154 29.8382 56.8768 29.6112 56.0197C29.6112 56.0197 30.0582 56.0029 30.7059 55.7592C32.8319 55.0068 37.4615 53.1659 38.4708 52.2014C38.4708 52.2014 40.8318 52.425 39.6658 53.5197C39.6658 53.5197 34.5144 56.098 34.5144 56.5265C34.5144 56.5265 34.9764 55.7293 35.1885 55.1441C35.1885 55.1441 32.7791 56.083 33.0589 56.3884C33.0589 56.3884 33.2077 56.5001 33.4312 56.6119C34.0674 56.8732 34.4696 57.1117 34.6191 57.454C34.7679 57.7523 34.6931 58.1475 34.5444 58.7318C34.3208 59.7341 34.8418 59.4771 35.3821 58.9931C35.8626 58.561 36.365 57.9829 37.0056 58.1695C37.2292 58.2443 37.3409 58.4678 37.6278 58.7731C37.8135 58.9966 38.0819 59.1454 38.0819 59.4516C38.0819 59.6373 37.8953 59.8757 37.7017 60.1626C37.4043 60.658 36.7153 62.044 36.0562 63.2628C35.8326 63.6614 35.5906 64.0301 35.3891 64.3539C34.9914 65.006 34.6042 65.5912 33.8148 64.8274C33.5535 64.5669 33.3159 64.1718 33.1109 63.9184C32.7202 63.4414 32.6374 63.5417 32.4148 64.0301C32.34 64.1788 32.34 64.4507 32.2652 64.5739C32.1165 64.7974 31.9678 64.8722 31.8525 65.0509C31.7777 65.1626 31.871 65.3114 32.0382 65.3862C32.2986 65.4979 32.7686 65.461 33.1742 65.461C33.5465 65.4566 33.8632 65.4786 33.9266 65.4979C34.3208 65.6466 34.3543 66.0382 34.0005 66.3101C33.8518 66.4219 33.6653 66.5706 33.4013 66.7721C33.3265 66.8469 33.066 67.0704 32.824 67.1593C32.5635 67.2341 32.4148 67.2341 32.3805 67.2341C32.3805 67.2341 32.8055 66.8425 32.831 66.7941C33.0924 66.3172 32.6454 66.3172 32.303 66.3999C31.8261 66.5116 31.3236 66.7352 31.0552 66.5116C30.7578 66.2503 30.8317 65.7399 30.9804 65.2559C31.0183 65.1063 31.5392 64.1005 31.3157 64.0371C31.167 64.0028 30.8652 63.9632 30.646 63.8136C30.5343 63.7397 30.4965 63.3965 30.3108 63.1281C30.1621 62.9425 29.9755 63.1361 29.1826 63.6984C28.7207 64.0336 28.2771 64.3284 28.1363 64.317C28.1363 64.317 28.2481 64.779 28.3968 65.2964C28.5455 65.7513 28.7691 66.2688 28.7321 66.7237C28.7136 66.9842 28.5825 67.1743 28.4338 67.3423C28.2851 67.528 28.0985 67.6398 27.853 67.6028C26.5383 67.3793 27.0522 64.5141 27.376 63.3939C27.4508 63.0956 27.4508 62.8131 27.5626 62.858C27.6374 62.887 27.6744 63.0815 27.7492 63.32C27.8231 63.6174 27.8231 63.9342 28.0096 63.9421C28.1583 63.9474 28.9143 63.3939 29.51 62.9433C29.8822 62.6829 30.1541 62.4664 30.221 62.3661C30.3328 62.2165 30.2589 62.0308 30.2562 61.5275C30.2492 61.3039 30.2184 59.6645 30.368 59.5308C30.4419 59.456 30.6654 59.7165 30.896 60.1415C31.0456 60.402 31.1943 60.7716 31.3694 60.9687C31.5181 61.1174 31.7047 61.1552 31.8798 61.1174C31.7302 61.1499 32.4755 61.1297 32.9067 60.4847C33.1681 60.0966 33.1302 59.3592 33.205 58.6323C33.3537 57.5596 32.0619 56.7589 32.047 56.7589L32.0646 56.787ZM33.938 62.0845C33.938 62.0845 34.9799 60.9555 34.9131 60.4636C35.6725 59.6883 36.0377 59.5132 36.116 59.6777C36.1908 59.7895 36.0412 60.1283 35.8925 60.512C35.7438 60.944 35.5572 61.4474 35.412 61.8126C35.2263 62.3186 35.1146 62.9486 34.664 63.276C33.8597 63.8761 33.2121 63.0155 33.9451 62.0845H33.938Z" fill="#C92B2F"/>
<path fill-rule="evenodd" clip-rule="evenodd" d="M27.2915 76.0805C27.5431 76.1008 27.7209 76.1104 27.8291 76.1104C27.9286 76.1104 28.1046 76.1008 28.3536 76.0805C28.4539 76.2512 28.5613 76.4272 28.6801 76.6094C28.798 76.7907 28.9388 77.008 29.1033 77.2606C29.2213 77.1092 29.3612 76.9235 29.5248 76.7053C29.6876 76.4862 29.8434 76.2776 29.9877 76.0805C30.132 76.1008 30.2306 76.1104 30.2834 76.1104C30.3987 76.1104 30.4972 76.1008 30.5782 76.0805V76.1122L30.0168 76.7476C29.9393 76.8364 29.8628 76.9244 29.7862 77.0133C29.7088 77.1022 29.6322 77.1911 29.5539 77.2791C29.4773 77.3688 29.3999 77.4577 29.3233 77.5466L29.406 77.6592C29.5046 77.8026 29.6049 77.9505 29.707 78.0992C29.8108 78.2488 29.9094 78.3922 30.0036 78.5295C30.0968 78.6668 30.1927 78.8102 30.2904 78.9616C30.389 79.1121 30.4831 79.2625 30.5685 79.4077C30.5104 79.4051 30.4251 79.4016 30.3124 79.3954C30.2007 79.3892 30.1135 79.3857 30.0537 79.3857C29.9956 79.3857 29.9076 79.3892 29.7924 79.3954C29.6771 79.4016 29.5908 79.4051 29.5372 79.4077C29.4553 79.2704 29.3444 79.0962 29.2072 78.8841C29.069 78.6729 28.9168 78.4389 28.7505 78.1819L28.1978 78.8771L27.9488 79.2432C27.9303 79.2731 27.9092 79.3021 27.8846 79.332C27.8599 79.362 27.8414 79.3866 27.8291 79.4077C27.6628 79.3928 27.5731 79.3857 27.5616 79.3857C27.4507 79.3857 27.3504 79.3928 27.2563 79.4077C27.3663 79.2748 27.5537 79.0487 27.8186 78.731C28.0843 78.4142 28.3184 78.1291 28.5217 77.8748L27.2915 76.0805ZM32.8089 76.7326C32.8054 76.8373 32.7975 76.9878 32.7887 77.1875C32.7764 77.3855 32.7702 77.5501 32.7702 77.6803C32.7702 77.8211 32.7764 77.9962 32.7887 78.2057C32.7975 78.416 32.8054 78.5779 32.8089 78.6897C32.8116 78.7724 32.8195 78.8921 32.8309 79.0513C32.8424 79.2115 32.8503 79.3312 32.8538 79.4077C32.8028 79.4051 32.7244 79.4016 32.6162 79.3954C32.5106 79.3892 32.4314 79.3857 32.383 79.3857C32.2026 79.3857 32.024 79.3928 31.8489 79.4077C31.9043 78.8868 31.9316 78.291 31.9316 77.6214V77.3609C31.9316 77.2562 31.9298 77.1427 31.9272 77.0203C31.9228 76.8998 31.921 76.8047 31.921 76.7396C31.9087 76.4545 31.8937 76.2354 31.877 76.0805C32.112 76.1008 32.2748 76.1104 32.3637 76.1104C32.4552 76.1104 32.618 76.1008 32.8538 76.0805C32.8292 76.37 32.8151 76.5883 32.8089 76.7326ZM35.015 76.4396C34.9666 76.4501 34.927 76.4545 34.8962 76.4545C34.7915 76.4545 34.6894 76.422 34.5918 76.3577C34.5038 76.2944 34.4606 76.2072 34.4606 76.0946C34.4606 75.9248 34.5407 75.813 34.7026 75.7593C34.7774 75.7347 34.8628 75.7215 34.9517 75.7215C35.1409 75.7215 35.279 75.7813 35.367 75.901C35.4163 75.9837 35.4409 76.0735 35.4409 76.1694C35.4409 76.422 35.3424 76.642 35.1453 76.8285C34.9869 76.9719 34.7915 77.0617 34.5627 77.0969V76.8954C34.6745 76.876 34.7854 76.8109 34.8962 76.7C34.9745 76.6252 35.015 76.5381 35.015 76.4396ZM34.8452 79.3716L35.2869 78.5409C35.7991 77.5906 36.2144 76.7634 36.533 76.0585C36.5541 76.0594 36.5787 76.062 36.6069 76.0656C36.6342 76.07 36.6623 76.0735 36.6914 76.0761C36.7204 76.0796 36.7451 76.0805 36.7653 76.0805C36.797 76.0805 36.8348 76.0779 36.8727 76.0717C36.9131 76.0673 36.9492 76.062 36.9853 76.0585L37.0328 76.1404C37.5265 77.1963 38.0501 78.2523 38.6027 79.3109L38.6379 79.362V79.4077C38.5789 79.4051 38.4927 79.4016 38.3809 79.3954C38.2683 79.3892 38.1821 79.3857 38.1222 79.3857C37.9542 79.3857 37.7878 79.3928 37.6233 79.4077C37.4517 78.9633 37.3109 78.6307 37.2071 78.4133C37.1331 78.4133 37.0223 78.4107 36.8762 78.4063C36.7283 78.401 36.6175 78.3984 36.5418 78.3984C36.3869 78.3984 36.1449 78.4037 35.814 78.4133L35.7868 78.4811C35.719 78.6333 35.6495 78.79 35.5782 78.9528C35.5061 79.1147 35.4515 79.2669 35.4084 79.4077C35.3177 79.3928 35.2218 79.3857 35.1224 79.3857C35.0309 79.3857 34.9385 79.3928 34.8452 79.4077V79.3716ZM35.9698 78.1203H37.0698C36.9395 77.8238 36.7591 77.4454 36.533 76.9851C36.3192 77.382 36.1388 77.7454 35.99 78.0772L35.9698 78.1203ZM40.4102 79.4007C40.3266 79.3901 40.2465 79.3857 40.1735 79.3857C40.0802 79.3857 39.9878 79.3928 39.8954 79.4077C39.9376 79.0601 39.9667 78.6976 39.9834 78.3227C39.9992 77.9461 40.0063 77.5378 40.0063 77.0978C40.0063 77.0107 40.0054 76.8804 40.0019 76.7062C39.9992 76.5328 39.9975 76.4008 39.9975 76.3128C39.9975 76.2125 39.9939 76.136 39.9878 76.0805C40.1189 76.1008 40.2078 76.1104 40.2562 76.1104C40.3099 76.1104 40.4023 76.1008 40.5316 76.0805C40.7692 76.2926 40.9927 76.488 41.1986 76.6692C41.4063 76.8487 41.6386 77.0494 41.8929 77.2711C42.1481 77.4929 42.3664 77.6821 42.5468 77.8414C42.7272 77.9998 42.9243 78.1784 43.1381 78.3764V76.7616C43.1381 76.6816 43.1311 76.5795 43.1205 76.4572C43.1099 76.334 43.102 76.2416 43.0994 76.1791L43.0897 76.0805C43.2208 76.1008 43.3097 76.1104 43.3581 76.1104C43.3977 76.1104 43.4461 76.1069 43.5007 76.1008C43.5561 76.0946 43.601 76.0893 43.6344 76.0867C43.6221 76.209 43.6159 76.2988 43.6159 76.3577C43.5931 76.5927 43.5763 76.7977 43.5684 76.9702C43.5649 77.0723 43.564 77.1559 43.5605 77.2183C43.5561 77.2835 43.5517 77.3609 43.5464 77.4489C43.542 77.5387 43.5394 77.6222 43.5376 77.6997C43.535 77.7754 43.5332 77.8387 43.5332 77.8915V79.4077C43.5209 79.4033 43.4989 79.4007 43.4681 79.4007C43.4303 79.3954 43.3748 79.3928 43.3027 79.3928C43.1918 79.3928 43.1073 79.398 43.0457 79.4077C42.3127 78.7108 41.6562 78.1159 41.0763 77.6214L40.4278 77.0679C40.4155 77.3671 40.4102 77.5835 40.4102 77.7164V78.167C40.4102 78.7205 40.4234 79.1341 40.448 79.4077L40.4102 79.4007ZM46.4547 79.9533C46.7425 79.9067 46.8965 79.7571 46.9176 79.5054C46.9405 79.266 46.9528 78.9959 46.9528 78.6897C46.9528 78.592 46.9546 78.4459 46.9572 78.2523C46.9607 78.0596 46.9616 77.9162 46.9616 77.8238C46.9616 77.7516 46.9634 77.6434 46.9669 77.4982C46.9695 77.3503 46.9713 77.2412 46.9713 77.1647C46.9713 77.1101 46.9695 77.03 46.9669 76.9244C46.9634 76.8188 46.9616 76.7388 46.9616 76.686C46.9563 76.6191 46.9502 76.517 46.944 76.3824C46.9378 76.2468 46.9308 76.1465 46.9247 76.0805C47.1746 76.1008 47.3409 76.1104 47.4236 76.1104C47.5318 76.1104 47.6973 76.1008 47.9208 76.0805C47.8979 76.3612 47.8821 76.5707 47.8759 76.7088C47.8697 76.8382 47.8671 77.0362 47.8671 77.2993C47.8592 77.3407 47.8565 77.3987 47.8565 77.4788C47.8565 77.6047 47.8592 77.7815 47.8671 78.0094C47.8724 78.2391 47.8759 78.4362 47.8759 78.6017V78.8982C47.8759 79.2194 47.8143 79.4623 47.692 79.6251C47.4562 79.9454 47.0751 80.1293 46.5463 80.1777L46.4547 79.9533ZM50.4278 76.7326C50.4252 76.8373 50.4173 76.9878 50.4076 77.1875C50.3962 77.3855 50.3891 77.5501 50.3891 77.6803C50.3891 77.8211 50.3962 77.9962 50.4076 78.2057C50.4173 78.416 50.4252 78.5779 50.4278 78.6897C50.4314 78.7724 50.4393 78.8921 50.4498 79.0513C50.4613 79.2115 50.4692 79.3312 50.4727 79.4077C50.4217 79.4051 50.3434 79.4016 50.236 79.3954C50.1295 79.3892 50.0512 79.3857 50.0019 79.3857C49.8215 79.3857 49.6438 79.3928 49.4678 79.4077C49.5232 78.8868 49.5505 78.291 49.5505 77.6214V77.3609C49.5505 77.2562 49.5496 77.1427 49.5461 77.0203C49.5417 76.8998 49.5408 76.8047 49.5408 76.7396C49.5276 76.4545 49.5127 76.2354 49.4959 76.0805C49.7318 76.1008 49.8946 76.1104 49.9835 76.1104C50.0741 76.1104 50.2378 76.1008 50.4727 76.0805C50.4481 76.37 50.434 76.5883 50.4278 76.7326ZM51.7329 79.3716L52.1737 78.5409C52.6867 77.5906 53.1021 76.7634 53.4198 76.0585C53.4418 76.0594 53.4664 76.062 53.4937 76.0656C53.5218 76.07 53.55 76.0735 53.5782 76.0761C53.6081 76.0796 53.6327 76.0805 53.6521 76.0805C53.6846 76.0805 53.7216 76.0779 53.7603 76.0717C53.7999 76.0673 53.8369 76.062 53.8721 76.0585L53.9205 76.1404C54.4141 77.1963 54.9377 78.2523 55.4904 79.3109L55.5247 79.362V79.4077C55.4666 79.4051 55.3804 79.4016 55.2677 79.3954C55.156 79.3892 55.0697 79.3857 55.0099 79.3857C54.8418 79.3857 54.6755 79.3928 54.5109 79.4077C54.3393 78.9633 54.1985 78.6307 54.0938 78.4133C54.0199 78.4133 53.9099 78.4107 53.763 78.4063C53.616 78.401 53.5051 78.3984 53.4294 78.3984C53.2737 78.3984 53.0326 78.4037 52.7017 78.4133L52.6744 78.4811C52.6067 78.6333 52.5372 78.79 52.4659 78.9528C52.3937 79.1147 52.3383 79.2669 52.2952 79.4077C52.2045 79.3928 52.1095 79.3857 52.0092 79.3857C51.9185 79.3857 51.8261 79.3928 51.7329 79.4077V79.3716ZM52.8566 78.1203H53.9566C53.8263 77.8238 53.6468 77.4454 53.4198 76.9851C53.2059 77.382 53.0264 77.7454 52.8768 78.0772L52.8566 78.1203ZM60.413 79.0417C59.9712 79.3452 59.4186 79.4975 58.7586 79.4975C58.0696 79.4975 57.5249 79.3356 57.1245 79.0117C56.7311 78.7037 56.534 78.2875 56.534 77.763C56.534 77.2254 56.7707 76.7924 57.2459 76.4607C57.6947 76.1615 58.2447 76.0128 58.8976 76.0128C59.4494 76.0128 59.9131 76.1219 60.2906 76.3428C60.6057 76.5258 60.8204 76.7352 60.9374 76.9702C61.0606 77.2069 61.1222 77.4639 61.1222 77.7419C61.1222 77.9901 61.0606 78.2277 60.9383 78.4547C60.816 78.6826 60.6409 78.8789 60.413 79.0417ZM59.8665 78.6518C60.0407 78.3896 60.1261 78.0561 60.1261 77.6495C60.1261 77.4295 60.0821 77.2131 59.9923 77.0054C59.9035 76.7977 59.7635 76.6279 59.5717 76.4959C59.3799 76.3639 59.1431 76.2979 58.8589 76.2979C58.5958 76.2979 58.3705 76.3524 58.1849 76.4624C57.9992 76.5689 57.8566 76.7036 57.7625 76.8646C57.6076 77.1198 57.531 77.4665 57.531 77.9047C57.531 78.1291 57.5741 78.3403 57.6613 78.5365C57.7493 78.7337 57.8883 78.8947 58.0766 79.0188C58.2667 79.1429 58.5034 79.2044 58.7868 79.2044C59.2435 79.2044 59.6034 79.0205 59.8665 78.6518ZM64.0701 76.7977C64.0701 76.9341 64.0666 77.1365 64.0605 77.4058C64.0543 77.675 64.0508 77.8766 64.0508 78.0094C64.0508 78.0772 64.0525 78.1793 64.0552 78.3166C64.0587 78.4529 64.0605 78.5577 64.0605 78.6307C64.0605 78.7134 64.0649 78.8437 64.0745 79.0188C64.0833 79.1948 64.0877 79.3241 64.0877 79.4077C64.0411 79.4051 63.9637 79.4016 63.8528 79.3954C63.7402 79.3892 63.6557 79.3857 63.5985 79.3857C63.5466 79.3857 63.4665 79.3892 63.3582 79.3954C63.2491 79.4016 63.1682 79.4051 63.111 79.4077C63.1145 79.3294 63.1206 79.215 63.1303 79.061C63.1418 78.9079 63.1462 78.7935 63.1462 78.7205C63.1726 78.0235 63.1849 77.4727 63.1849 77.0679C63.1849 76.9244 63.1787 76.7176 63.1664 76.4475C63.0494 76.4475 62.8743 76.4519 62.6384 76.4624C62.414 76.4783 62.2195 76.4968 62.0568 76.5144C62.0752 76.4695 62.0849 76.4026 62.0849 76.3128C62.0849 76.2328 62.0814 76.1764 62.0752 76.1404C62.0726 76.136 62.0691 76.1254 62.0664 76.1104C62.0629 76.0955 62.0594 76.0858 62.0568 76.0805C62.2556 76.0902 62.4061 76.0946 62.5091 76.0946C62.9429 76.106 63.3063 76.1104 63.5985 76.1104H64.2189C64.3218 76.1104 64.4723 76.106 64.6685 76.0955C64.863 76.0858 65.0232 76.0805 65.1499 76.0805C65.1305 76.1483 65.1235 76.2125 65.1235 76.2768C65.1235 76.3524 65.1305 76.4325 65.1499 76.5144C64.7944 76.4695 64.4389 76.4475 64.0877 76.4475L64.0701 76.7977ZM70.039 79.0417C69.5973 79.3452 69.0447 79.4975 68.3847 79.4975C67.6957 79.4975 67.1509 79.3356 66.7506 79.0117C66.3563 78.7037 66.1601 78.2875 66.1601 77.763C66.1601 77.2254 66.3968 76.7924 66.872 76.4607C67.3199 76.1615 67.8708 76.0128 68.5228 76.0128C69.0755 76.0128 69.5392 76.1219 69.9167 76.3428C70.2309 76.5258 70.4465 76.7352 70.5635 76.9702C70.6867 77.2069 70.7483 77.4639 70.7483 77.7419C70.7483 77.9901 70.6867 78.2277 70.5644 78.4547C70.4421 78.6826 70.2661 78.8789 70.039 79.0417ZM69.4926 78.6518C69.6659 78.3896 69.7522 78.0561 69.7522 77.6495C69.7522 77.4295 69.7073 77.2131 69.6184 77.0054C69.5295 76.7977 69.3896 76.6279 69.1969 76.4959C69.0059 76.3639 68.7692 76.2979 68.4841 76.2979C68.2219 76.2979 67.9966 76.3524 67.8101 76.4624C67.6244 76.5689 67.4827 76.7036 67.3877 76.8646C67.2337 77.1198 67.1571 77.4665 67.1571 77.9047C67.1571 78.1291 67.2002 78.3403 67.2873 78.5365C67.3753 78.7337 67.5144 78.8947 67.7027 79.0188C67.8928 79.1429 68.1295 79.2044 68.412 79.2044C68.8695 79.2044 69.2295 79.0205 69.4926 78.6518ZM72.5663 79.4007C72.4827 79.3901 72.4027 79.3857 72.3296 79.3857C72.2372 79.3857 72.1439 79.3928 72.0515 79.4077C72.0938 79.0601 72.1228 78.6976 72.1395 78.3227C72.1554 77.9461 72.1633 77.5378 72.1633 77.0978C72.1633 77.0107 72.1615 76.8804 72.158 76.7062C72.1554 76.5328 72.1536 76.4008 72.1536 76.3128C72.1536 76.2125 72.151 76.136 72.1439 76.0805C72.2751 76.1008 72.3639 76.1104 72.4123 76.1104C72.466 76.1104 72.5584 76.1008 72.6878 76.0805C72.9262 76.2926 73.1489 76.488 73.3548 76.6692C73.5633 76.8487 73.7957 77.0494 74.0491 77.2711C74.3043 77.4929 74.5234 77.6821 74.7029 77.8414C74.8833 77.9998 75.0804 78.1784 75.2943 78.3764V76.7616C75.2943 76.6816 75.2881 76.5795 75.2775 76.4572C75.2661 76.334 75.2591 76.2416 75.2555 76.1791L75.2467 76.0805C75.377 76.1008 75.4667 76.1104 75.5143 76.1104C75.5539 76.1104 75.6023 76.1069 75.6568 76.1008C75.7122 76.0946 75.7571 76.0893 75.7915 76.0867C75.7783 76.209 75.7721 76.2988 75.7721 76.3577C75.7501 76.5927 75.7325 76.7977 75.7246 76.9702C75.7211 77.0723 75.7202 77.1559 75.7167 77.2183C75.7123 77.2835 75.7079 77.3609 75.7035 77.4489C75.6982 77.5387 75.6955 77.6222 75.6938 77.6997C75.6911 77.7754 75.6894 77.8387 75.6894 77.8915V79.4077C75.6779 79.4033 75.6559 79.4007 75.6251 79.4007C75.5864 79.3954 75.531 79.3928 75.4588 79.3928C75.3479 79.3928 75.2635 79.398 75.2019 79.4077C74.4688 78.7108 73.8124 78.1159 73.2325 77.6214L72.5848 77.0679C72.5725 77.3671 72.5663 77.5835 72.5663 77.7164V78.167C72.5663 78.7205 72.5795 79.1341 72.6042 79.4077L72.5663 79.4007ZM80.8267 76.8135C80.5513 76.4941 80.157 76.3348 79.6449 76.3348C79.1521 76.3348 78.7587 76.5073 78.4613 76.8496C78.2413 77.1163 78.1304 77.4507 78.1304 77.8528C78.1304 78.057 78.1771 78.2576 78.2677 78.4573C78.3583 78.6553 78.4912 78.812 78.6646 78.9299C78.7737 79.0003 78.8661 79.0487 78.94 79.0751C79.0139 79.1024 79.1266 79.1314 79.2753 79.1613C79.4108 79.1807 79.5155 79.1912 79.5894 79.1912C79.6968 79.1912 79.8323 79.1789 79.996 79.1534C80.0197 79.1534 80.0646 79.1473 80.1262 79.1341C80.1896 79.1217 80.2248 79.1103 80.2362 79.1015C80.2389 79.0989 80.2415 79.0901 80.245 79.076C80.2477 79.0628 80.2512 79.0549 80.2538 79.0549V78.6826C80.2538 78.4996 80.2415 78.2479 80.2151 77.9276C80.3647 77.9426 80.5152 77.9505 80.6683 77.9505C80.8328 77.9505 80.9921 77.9426 81.1479 77.9276C81.1188 78.152 81.1039 78.416 81.1039 78.7205C81.1039 78.8445 81.1092 79.0267 81.1215 79.266C80.4958 79.4051 79.9722 79.4755 79.5542 79.4755C79.2322 79.4755 78.9259 79.4412 78.6364 79.3752C78.3478 79.3092 78.0917 79.2088 77.8673 79.0716C77.6447 78.9352 77.4696 78.7636 77.3429 78.5577C77.2161 78.3509 77.1537 78.1124 77.1537 77.8378C77.1537 77.5474 77.2161 77.2887 77.3411 77.0617C77.4678 76.8338 77.6429 76.6446 77.8708 76.4915C78.097 76.3384 78.3619 76.224 78.6619 76.1492C78.9629 76.0735 79.2876 76.0356 79.6343 76.0356C80.1693 76.0356 80.6489 76.1333 81.074 76.326C80.9895 76.5372 80.9358 76.6992 80.9094 76.8135H80.8267ZM87.9844 76.7907C87.9844 76.8417 87.9835 76.9218 87.98 77.03C87.9774 77.1374 87.9756 77.2183 87.9756 77.2711C87.9756 77.3301 87.973 77.419 87.9668 77.5387C87.9607 77.6583 87.9571 77.7481 87.9571 77.807C87.9448 78.1819 87.9052 78.4705 87.8375 78.6747C87.7697 78.8789 87.5972 79.0575 87.3192 79.2132C87.0261 79.3831 86.6477 79.4676 86.1831 79.4676C85.9235 79.4676 85.6771 79.4429 85.4431 79.3919C85.2099 79.3417 85.0048 79.2555 84.8279 79.1349C84.6511 79.0144 84.5279 78.8525 84.4566 78.6518C84.4337 78.5964 84.4152 78.511 84.4029 78.3913C84.3906 78.321 84.3844 78.2101 84.3844 78.0561C84.3844 77.9558 84.3836 77.8493 84.38 77.7314C84.3756 77.617 84.3739 77.5246 84.3739 77.4568V76.8435C84.3739 76.7836 84.3721 76.6912 84.3695 76.5672C84.366 76.4404 84.3642 76.3489 84.3642 76.29C84.3642 76.2688 84.3633 76.2336 84.3598 76.1879C84.3572 76.1421 84.3554 76.106 84.3554 76.0805C84.5921 76.1008 84.7567 76.1104 84.8535 76.1104C84.952 76.1104 85.1122 76.1008 85.3339 76.0805C85.3339 76.106 85.3295 76.1439 85.3234 76.1976C85.3155 76.2512 85.3093 76.2917 85.3058 76.3199C85.2776 76.744 85.2618 77.1224 85.2618 77.4568C85.2618 77.8994 85.2741 78.2057 85.297 78.3764C85.3339 78.5189 85.3718 78.6289 85.4105 78.7055C85.451 78.7812 85.5222 78.856 85.6199 78.9299C85.8012 79.0689 86.0309 79.1393 86.3063 79.1393C86.5835 79.1393 86.8035 79.0927 86.9698 79.0021C87.1353 78.9105 87.2725 78.7609 87.3772 78.5541C87.445 78.4098 87.4784 78.0737 87.4784 77.5466C87.4784 76.8945 87.4635 76.4061 87.4309 76.0805C87.5761 76.1008 87.6756 76.1104 87.7336 76.1104C87.7943 76.1104 87.8973 76.1008 88.0407 76.0805C88.0346 76.1157 88.0284 76.1641 88.0223 76.2257C88.017 76.2873 88.0108 76.3524 88.0064 76.4211C88.002 76.4897 87.9994 76.5478 87.9976 76.5962C87.9941 76.6455 87.9897 76.7106 87.9844 76.7907ZM90.1553 79.4007C90.0726 79.3901 89.9925 79.3857 89.9186 79.3857C89.8262 79.3857 89.7338 79.3928 89.6414 79.4077C89.6837 79.0601 89.7118 78.6976 89.7294 78.3227C89.7444 77.9461 89.7523 77.5378 89.7523 77.0978C89.7523 77.0107 89.7505 76.8804 89.7479 76.7062C89.7444 76.5328 89.7426 76.4008 89.7426 76.3128C89.7426 76.2125 89.74 76.136 89.7338 76.0805C89.8641 76.1008 89.9538 76.1104 90.0013 76.1104C90.055 76.1104 90.1474 76.1008 90.2776 76.0805C90.5152 76.2926 90.7388 76.488 90.9447 76.6692C91.1523 76.8487 91.3847 77.0494 91.639 77.2711C91.8942 77.4929 92.1124 77.6821 92.2928 77.8414C92.4723 77.9998 92.6694 78.1784 92.8841 78.3764V76.7616C92.8841 76.6816 92.8771 76.5795 92.8665 76.4572C92.8551 76.334 92.8481 76.2416 92.8454 76.1791L92.8357 76.0805C92.966 76.1008 93.0557 76.1104 93.1033 76.1104C93.1437 76.1104 93.1913 76.1069 93.2467 76.1008C93.3021 76.0946 93.3461 76.0893 93.3805 76.0867C93.3681 76.209 93.362 76.2988 93.362 76.3577C93.3391 76.5927 93.3224 76.7977 93.3145 76.9702C93.3109 77.0723 93.3101 77.1559 93.3065 77.2183C93.3021 77.2835 93.2969 77.3609 93.2924 77.4489C93.288 77.5387 93.2854 77.6222 93.2837 77.6997C93.281 77.7754 93.2784 77.8387 93.2784 77.8915V79.4077C93.2669 79.4033 93.2449 79.4007 93.2141 79.4007C93.1754 79.3954 93.1209 79.3928 93.0487 79.3928C92.9369 79.3928 92.8525 79.398 92.7909 79.4077C92.0587 78.7108 91.4014 78.1159 90.8215 77.6214L90.1738 77.0679C90.1615 77.3671 90.1553 77.5835 90.1553 77.7164V78.167C90.1553 78.7205 90.1694 79.1341 90.194 79.4077L90.1553 79.4007ZM95.9069 76.7326C95.9034 76.8373 95.8954 76.9878 95.8857 77.1875C95.8743 77.3855 95.8681 77.5501 95.8681 77.6803C95.8681 77.8211 95.8743 77.9962 95.8857 78.2057C95.8954 78.416 95.9034 78.5779 95.9069 78.6897C95.9095 78.7724 95.9165 78.8921 95.928 79.0513C95.9403 79.2115 95.9482 79.3312 95.9509 79.4077C95.8998 79.4051 95.8215 79.4016 95.7141 79.3954C95.6077 79.3892 95.5294 79.3857 95.4801 79.3857C95.2997 79.3857 95.1219 79.3928 94.9459 79.4077C95.0014 78.8868 95.0295 78.291 95.0295 77.6214V77.3609C95.0295 77.2562 95.0278 77.1427 95.0243 77.0203C95.0199 76.8998 95.0181 76.8047 95.0181 76.7396C95.0058 76.4545 94.9908 76.2354 94.9741 76.0805C95.209 76.1008 95.3718 76.1104 95.4616 76.1104C95.5522 76.1104 95.7159 76.1008 95.9509 76.0805C95.9262 76.37 95.9121 76.5883 95.9069 76.7326ZM99.4171 79.4077C99.3889 79.4051 99.3458 79.4016 99.286 79.3954C99.2261 79.3892 99.1795 79.3857 99.1478 79.3857C99.0537 79.3857 98.9648 79.3928 98.8794 79.4077C98.6489 78.8921 98.3946 78.3491 98.1183 77.778C97.8428 77.2069 97.5595 76.642 97.2735 76.0805C97.5225 76.1008 97.6985 76.1104 97.8015 76.1104C97.9044 76.1104 98.0795 76.1008 98.3259 76.0805C98.4183 76.3313 98.5195 76.5804 98.6295 76.8267C98.7386 77.074 98.8671 77.3565 99.0176 77.6768C99.1672 77.9962 99.2957 78.2717 99.3986 78.5022C99.8641 77.5906 100.238 76.7836 100.523 76.0805C100.54 76.0849 100.554 76.0867 100.563 76.0884C100.573 76.0902 100.58 76.092 100.587 76.0946C100.803 76.0946 100.963 76.0893 101.068 76.0805C100.909 76.3832 100.719 76.7528 100.493 77.1875C100.269 77.6214 100.067 78.0226 99.8879 78.3896C99.7093 78.7583 99.5509 79.098 99.4171 79.4077ZM102.236 76.0805C102.343 76.0832 102.495 76.0884 102.692 76.0972C102.889 76.106 103.054 76.1104 103.183 76.1104C103.386 76.1104 103.628 76.1069 103.905 76.0999C104.183 76.0928 104.395 76.0893 104.543 76.0867C104.537 76.1685 104.534 76.2873 104.534 76.4475C104.54 76.4624 104.543 76.4818 104.543 76.5073C103.957 76.4668 103.5 76.4475 103.174 76.4475C103.168 76.5619 103.164 76.7317 103.164 76.957C103.164 77.0168 103.162 77.1048 103.16 77.2245C103.157 77.3442 103.155 77.4339 103.155 77.4929L104.523 77.4568C104.499 77.5562 104.487 77.6311 104.487 77.6803C104.487 77.7243 104.499 77.7868 104.523 77.8678C104.125 77.8431 103.766 77.8308 103.451 77.8308C103.421 77.8308 103.373 77.829 103.306 77.8264C103.24 77.8238 103.189 77.8238 103.155 77.8238V79.0549C103.524 79.0549 103.988 79.0346 104.543 78.9906C104.537 79.0689 104.534 79.1886 104.534 79.3479C104.54 79.3628 104.543 79.3831 104.543 79.4077C104.423 79.4051 104.243 79.4007 104.002 79.3919C103.762 79.3831 103.581 79.3796 103.461 79.3796C103.381 79.3796 103.262 79.3822 103.103 79.3857C102.943 79.3901 102.826 79.3928 102.75 79.3928C102.64 79.3928 102.461 79.398 102.215 79.4077C102.218 79.3778 102.222 79.3312 102.226 79.2669C102.229 79.2045 102.232 79.1596 102.236 79.1297C102.238 79.0381 102.243 78.8894 102.251 78.6844C102.259 78.4785 102.261 78.3236 102.261 78.2206C102.261 78.1406 102.263 78.0182 102.266 77.8554C102.269 77.6909 102.271 77.5677 102.271 77.4867V76.9183C102.271 76.8347 102.266 76.7062 102.255 76.5328C102.244 76.3612 102.238 76.2328 102.236 76.1483V76.0805ZM107.037 78.152C106.944 78.0174 106.885 77.9355 106.861 77.9047C106.846 77.8854 106.831 77.8748 106.813 77.8748C106.795 77.8748 106.786 77.8854 106.786 77.9047C106.786 77.9998 106.789 78.1423 106.795 78.335C106.801 78.5269 106.805 78.6703 106.805 78.7645V78.8982C106.81 79.0293 106.826 79.1983 106.851 79.4077C106.797 79.4051 106.715 79.4016 106.606 79.3954C106.497 79.3892 106.416 79.3857 106.363 79.3857C106.31 79.3857 106.229 79.3892 106.118 79.3954C106.007 79.4016 105.925 79.4051 105.875 79.4077L105.884 79.318C105.886 79.281 105.887 79.2414 105.89 79.1983C105.894 79.1578 105.896 79.1235 105.898 79.1015C105.901 79.0777 105.904 79.0443 105.91 78.9968C105.929 78.7891 105.938 78.4679 105.938 78.0402C105.938 77.9426 105.936 77.7965 105.933 77.6003C105.931 77.4014 105.929 77.2544 105.929 77.1576C105.929 76.9288 105.917 76.5707 105.894 76.0805L106.307 76.0946C106.401 76.0946 106.544 76.092 106.735 76.0867C106.926 76.0832 107.07 76.0805 107.166 76.0805C107.646 76.0805 107.969 76.1131 108.135 76.1791C108.488 76.3436 108.663 76.5804 108.663 76.8892C108.663 77.1198 108.579 77.3107 108.413 77.4612C108.246 77.6126 108.018 77.712 107.73 77.763C107.884 77.9874 108.236 78.4433 108.792 79.1297L109.003 79.4077C108.944 79.4051 108.854 79.4016 108.731 79.3954C108.608 79.3892 108.516 79.3857 108.458 79.3857C108.281 79.3857 108.1 79.3928 107.915 79.4077L107.223 78.4133L107.037 78.152ZM106.805 77.3143C106.805 77.4691 106.801 77.5862 106.795 77.6671C107.122 77.6671 107.36 77.6099 107.508 77.4955C107.656 77.3803 107.73 77.206 107.73 76.9702C107.73 76.876 107.721 76.7933 107.703 76.7247C107.677 76.6305 107.636 76.5566 107.58 76.5047C107.524 76.4536 107.457 76.4176 107.38 76.3973C107.301 76.3788 107.21 76.3674 107.107 76.3648C107.003 76.363 106.902 76.3604 106.805 76.3577V77.3143ZM112.089 76.7388C111.959 76.4633 111.729 76.326 111.396 76.326C111.198 76.326 111.038 76.3683 110.917 76.4545C110.8 76.5416 110.741 76.6543 110.741 76.7898C110.741 76.9051 110.802 77.0027 110.924 77.0855C111.047 77.1691 111.24 77.2641 111.504 77.3759C111.767 77.4867 111.976 77.5853 112.13 77.6724C112.284 77.7578 112.393 77.8625 112.458 77.9874C112.525 78.1018 112.56 78.247 112.56 78.4195C112.56 78.5682 112.513 78.7205 112.422 78.8762C112.303 79.076 112.089 79.2335 111.784 79.347C111.563 79.4332 111.292 79.4755 110.973 79.4755C110.599 79.4755 110.276 79.4077 110.004 79.2731C110.092 79.0302 110.148 78.8261 110.177 78.6589H110.29C110.337 78.8225 110.434 78.9493 110.582 79.0399C110.732 79.1314 110.91 79.1763 111.119 79.1763C111.316 79.1763 111.482 79.1341 111.618 79.0487C111.754 78.9642 111.822 78.8445 111.822 78.6897C111.822 78.5533 111.749 78.4283 111.6 78.3166C111.409 78.2074 111.184 78.1054 110.925 78.0094C110.852 77.9786 110.763 77.9355 110.656 77.8792C110.55 77.8229 110.481 77.7868 110.446 77.7701C110.313 77.7006 110.214 77.5985 110.144 77.463C110.075 77.3266 110.039 77.1858 110.039 77.0379C110.039 76.722 110.192 76.4686 110.493 76.275C110.632 76.1844 110.771 76.121 110.911 76.0867C111.053 76.0532 111.224 76.0356 111.424 76.0356C111.77 76.0356 112.07 76.1008 112.321 76.2292C112.326 76.238 112.34 76.2477 112.365 76.26C112.303 76.4123 112.241 76.5716 112.181 76.7388H112.089Z" fill="#C92B2F"/>
<path fill-rule="evenodd" clip-rule="evenodd" d="M114.816 76.7326C114.813 76.8373 114.805 76.9878 114.796 77.1875C114.784 77.3855 114.777 77.5501 114.777 77.6803C114.777 77.8211 114.784 77.9962 114.796 78.2057C114.805 78.416 114.813 78.5779 114.816 78.6897C114.818 78.7724 114.826 78.8921 114.838 79.0513C114.849 79.2115 114.857 79.3312 114.861 79.4077C114.81 79.4051 114.731 79.4016 114.624 79.3954C114.518 79.3892 114.438 79.3857 114.389 79.3857C114.21 79.3857 114.031 79.3928 113.856 79.4077C113.911 78.8868 113.938 78.291 113.938 77.6214V77.3609C113.938 77.2562 113.938 77.1427 113.934 77.0204C113.93 76.8998 113.928 76.8048 113.928 76.7396C113.916 76.4545 113.901 76.2354 113.883 76.0805C114.119 76.1008 114.282 76.1105 114.371 76.1105C114.462 76.1105 114.625 76.1008 114.861 76.0805C114.836 76.3701 114.822 76.5883 114.816 76.7326ZM118.159 76.7977C118.159 76.9341 118.156 77.1365 118.15 77.4058C118.143 77.6751 118.14 77.8766 118.14 78.0094C118.14 78.0772 118.142 78.1793 118.145 78.3166C118.148 78.453 118.15 78.5577 118.15 78.6307C118.15 78.7134 118.154 78.8437 118.163 79.0188C118.173 79.1948 118.177 79.3241 118.177 79.4077C118.131 79.4051 118.052 79.4016 117.942 79.3954C117.83 79.3892 117.744 79.3857 117.688 79.3857C117.635 79.3857 117.555 79.3892 117.448 79.3954C117.339 79.4016 117.258 79.4051 117.201 79.4077C117.203 79.3294 117.209 79.215 117.22 79.061C117.23 78.9079 117.236 78.7935 117.236 78.7205C117.262 78.0235 117.274 77.4727 117.274 77.0679C117.274 76.9244 117.267 76.7176 117.255 76.4475C117.139 76.4475 116.963 76.4519 116.728 76.4624C116.504 76.4783 116.309 76.4968 116.146 76.5144C116.165 76.4695 116.174 76.4026 116.174 76.3129C116.174 76.2328 116.171 76.1765 116.165 76.1404C116.161 76.136 116.159 76.1254 116.155 76.1105C116.153 76.0955 116.149 76.0858 116.146 76.0805C116.344 76.0902 116.496 76.0946 116.599 76.0946C117.032 76.1061 117.396 76.1105 117.688 76.1105H118.308C118.411 76.1105 118.562 76.1061 118.757 76.0955C118.953 76.0858 119.113 76.0805 119.239 76.0805C119.22 76.1483 119.213 76.2125 119.213 76.2768C119.213 76.3524 119.22 76.4325 119.239 76.5144C118.883 76.4695 118.528 76.4475 118.177 76.4475L118.159 76.7977ZM120.694 76.1105C120.803 76.1105 120.982 76.1008 121.227 76.0805C121.269 76.1518 121.31 76.2213 121.354 76.2944C121.395 76.3648 121.437 76.436 121.477 76.5082C121.538 76.6129 121.63 76.7652 121.754 76.964C121.811 77.0582 121.893 77.1999 122.005 77.3891C122.066 77.4806 122.106 77.5325 122.125 77.5466L122.121 77.5439C122.121 77.5378 122.157 77.5052 122.226 77.4489C122.26 77.4067 122.294 77.3565 122.326 77.2993C122.399 77.1963 122.516 77.0045 122.678 76.7247C122.738 76.6314 122.812 76.4985 122.898 76.3278C122.921 76.2847 122.947 76.2389 122.975 76.1879C123.003 76.1369 123.023 76.1025 123.037 76.0805C123.044 76.0832 123.054 76.0858 123.068 76.0885C123.083 76.0902 123.094 76.0929 123.102 76.0955C123.147 76.1025 123.211 76.1043 123.295 76.1043C123.389 76.1043 123.491 76.0973 123.6 76.0805C123.492 76.2451 123.294 76.5328 123.005 76.9456C122.715 77.3583 122.499 77.6856 122.354 77.9276C122.341 78.1758 122.335 78.3623 122.335 78.4882C122.335 78.6457 122.357 78.9519 122.402 79.4077C122.346 79.4051 122.26 79.4016 122.144 79.3954C122.029 79.3892 121.942 79.3857 121.883 79.3857C121.712 79.3857 121.542 79.3928 121.375 79.4077C121.42 79.054 121.441 78.6853 121.441 78.3016C121.447 78.2374 121.451 78.145 121.451 78.0244C121.336 77.8704 121.229 77.7164 121.128 77.5651C121.024 77.4146 120.918 77.2544 120.81 77.0864C120.702 76.9183 120.589 76.7423 120.471 76.5566C120.351 76.3727 120.247 76.2125 120.157 76.0805C120.406 76.1008 120.585 76.1105 120.694 76.1105Z" fill="#C92B2F"/>
</g>
<defs>
<filter id="filter0_d_185_94" x="0" y="0" width="154" height="157" filterUnits="userSpaceOnUse" color-interpolation-filters="sRGB">
<feFlood flood-opacity="0" result="BackgroundImageFix"/>
<feColorMatrix in="SourceAlpha" type="matrix" values="0 0 0 0 0 0 0 0 0 0 0 0 0 0 0 0 0 0 127 0" result="hardAlpha"/>
<feOffset dy="16"/>
<feGaussianBlur stdDeviation="6.5"/>
<feColorMatrix type="matrix" values="0 0 0 0 0 0 0 0 0 0 0 0 0 0 0 0 0 0 0.03 0"/>
<feBlend mode="normal" in2="BackgroundImageFix" result="effect1_dropShadow_185_94"/>
<feBlend mode="normal" in="SourceGraphic" in2="effect1_dropShadow_185_94" result="shape"/>
</filter>
</defs>
</svg>
