<svg width="154" height="157" viewBox="0 0 154 157" fill="none" xmlns="http://www.w3.org/2000/svg">
<g filter="url(#filter0_d_185_314)">
<rect width="128" height="128" transform="translate(13)" fill="white"/>
<path d="M53.3857 64.1941C53.3857 71.4807 47.4786 77.3879 40.1919 77.3879C32.9071 77.386 27 71.4807 27 64.1941C27 56.9074 32.9071 51.0002 40.1938 51.0002C47.4786 51.0002 53.3857 56.9074 53.3857 64.1941Z" fill="#D7AC28"/>
<path d="M40.1864 53.281L28.9883 70.2876C29.571 71.358 30.3026 72.3373 31.1758 73.2104C32.3468 74.3814 33.7114 75.3011 35.2287 75.9434C35.7741 76.1742 36.3327 76.3641 36.9005 76.5168H43.4834C44.0512 76.366 44.6097 76.1742 45.1552 75.9434C46.6743 75.3011 48.0371 74.3814 49.2081 73.2104C50.0775 72.341 50.8092 71.3636 51.39 70.2969L40.1864 53.281Z" fill="white"/>
<path d="M40.5954 52.0541L41.8129 52.3613L40.5954 52.6685L40.1877 53.281L39.7781 52.6685L38.5605 52.3613L39.7781 52.0541L40.1877 51.4417L40.5954 52.0541Z" fill="white"/>
<path d="M40.1938 51.4415C41.9159 51.4415 43.5858 51.7784 45.1571 52.4431C46.6762 53.0853 48.039 54.005 49.21 55.176C50.381 56.347 51.3007 57.7116 51.9429 59.2289C52.6076 60.8002 52.9445 62.4701 52.9445 64.1922C52.9445 65.9143 52.6076 67.5842 51.9429 69.1555C51.3007 70.6746 50.381 72.0374 49.21 73.2084C48.039 74.3794 46.6744 75.299 45.1571 75.9413C43.5858 76.6059 41.9159 76.9429 40.1938 76.9429C38.4717 76.9429 36.8018 76.6059 35.2305 75.9413C33.7114 75.299 32.3486 74.3794 31.1776 73.2084C30.0066 72.0374 29.087 70.6727 28.4447 69.1555C27.78 67.5842 27.4431 65.9143 27.4431 64.1922C27.4431 62.4701 27.78 60.8002 28.4447 59.2289C29.087 57.7098 30.0066 56.347 31.1776 55.176C32.3486 54.005 33.7133 53.0853 35.2305 52.4431C36.8018 51.7784 38.4717 51.4415 40.1938 51.4415ZM40.1938 51.0002C32.9071 51.0002 27 56.9074 27 64.1941C27 71.4807 32.9071 77.3879 40.1938 77.3879C47.4805 77.3879 53.3876 71.4807 53.3876 64.1941C53.3858 56.9074 47.4805 51.0002 40.1938 51.0002Z" fill="#F1D693"/>
<path d="M48.897 64.1941C48.897 69.001 45.0005 72.8975 40.1936 72.8975C35.3868 72.8975 31.4902 69.001 31.4902 64.1941C31.4902 59.3872 35.3868 55.4907 40.1936 55.4907C45.0005 55.4889 48.897 59.3872 48.897 64.1941Z" fill="#2C2E81"/>
<path d="M40.1936 55.7345C42.4537 55.7345 44.5779 56.6151 46.1753 58.2124C47.7726 59.8098 48.6532 61.9339 48.6532 64.194C48.6513 66.4523 47.7726 68.5765 46.1753 70.1757C44.5761 71.773 42.4519 72.6517 40.1936 72.6517C37.9335 72.6517 35.8094 71.773 34.212 70.1738C32.6128 68.5765 31.7341 66.4523 31.7341 64.194C31.7341 61.9339 32.6147 59.8098 34.212 58.2124C35.8094 56.6132 37.9335 55.7345 40.1936 55.7345ZM40.1936 55.4888C35.3868 55.4888 31.4902 59.3853 31.4902 64.1922C31.4902 68.9991 35.3868 72.8956 40.1936 72.8956C45.0005 72.8956 48.897 68.9991 48.897 64.1922C48.897 59.3872 45.0005 55.4888 40.1936 55.4888Z" fill="#F1D693"/>
<path d="M44.0755 57.131C44.2114 57.2576 44.1667 57.5163 44.1165 57.6709C44.0476 57.8756 43.8912 57.9966 43.6957 58.0767C43.4574 58.1735 43.1987 58.2107 42.9585 58.2964C42.7202 58.3802 42.7463 58.5607 42.7239 58.7767L44.5931 58.4211C44.5856 58.5552 44.6042 58.6724 44.4739 58.7469C44.3808 58.8009 44.2617 58.8195 44.1574 58.8474C43.8391 58.9387 43.5189 59.0001 43.1893 59.0392C42.8524 59.0802 42.5136 59.1062 42.1766 59.149C42.0891 59.1602 41.9346 59.1565 41.8638 59.2235C41.808 59.2756 41.8042 59.3743 41.7894 59.4432C42.6383 59.5791 43.5673 59.3333 44.3455 59.795H41.9346C41.9699 60.0762 42.0798 60.3405 42.2492 60.5658C42.333 60.6756 42.4372 60.8208 42.5545 60.8972C42.6308 60.9474 42.6737 60.9251 42.75 60.8841C43.2564 60.616 43.7237 60.3293 44.3231 60.4466C43.8782 60.7445 43.4332 61.0424 42.9883 61.3421C43.6752 61.64 44.3622 61.9378 45.0492 62.2357C44.2524 62.5392 43.5691 62.057 42.8524 61.774C42.6886 62.4461 42.763 63.1833 43.1335 63.7772C43.4891 64.3432 44.1109 64.5963 44.7345 64.7509C44.647 64.8849 44.5744 64.965 44.4162 65.0059C44.1593 65.0729 43.8838 65.0506 43.6362 64.9575C43.2452 64.8104 42.8449 64.4791 42.6085 64.1346C42.4875 63.9596 42.3963 63.7642 42.3125 63.5687C42.2269 63.3639 42.1245 63.1517 42.0816 62.9339C41.9867 62.448 42.1617 62.0086 42.2343 61.5376C42.2678 61.3235 42.0798 61.2174 41.955 61.074C41.8303 60.9288 41.7298 60.7464 41.5678 60.6365C41.4207 60.5341 41.2457 60.5937 41.0782 60.5863C40.8976 60.5788 40.6854 60.5081 40.6705 60.752C40.6612 60.899 40.6165 61.0405 40.7673 61.1131C40.9404 61.195 41.1433 61.1764 41.3165 61.2546C41.7186 61.4352 41.6181 61.9714 41.2606 62.1333C41.0912 62.2097 40.7375 62.2134 40.6854 62.4275C40.6593 62.5317 40.691 62.6453 40.6947 62.7514C40.6965 62.7961 40.6668 62.9152 40.6965 62.9487C40.7319 62.9916 40.8566 62.9711 40.9032 62.9711C41.0335 62.9711 41.162 62.9581 41.2923 62.9469C41.5492 62.9245 41.821 62.9097 42.0519 63.0493C41.8098 63.2187 41.6404 63.3695 41.3332 63.3714C41.0037 63.3751 40.6723 63.3807 40.3428 63.3881C39.8346 63.3974 39.1029 63.4477 38.7678 62.9785C38.5035 62.6062 38.5705 62.1073 38.6096 61.6828C38.6524 61.2099 38.7343 60.6216 39.2053 60.3815C39.4976 60.2325 39.842 60.2549 40.1604 60.2418C40.5551 60.227 40.9497 60.2046 41.3444 60.1879C41.3295 60.1153 41.3332 60.0203 41.2867 59.9589C41.2402 59.8993 41.2793 59.9347 41.2104 59.9142C40.9851 59.8472 40.691 59.9086 40.4582 59.9086H38.7678C38.6114 59.9086 38.3005 59.8267 38.2614 60.0296C38.2447 60.1115 38.2577 60.2065 38.2521 60.2921C38.241 60.4317 38.2298 60.5714 38.2205 60.711C38.187 61.2285 38.1646 61.7461 38.0995 62.2618C38.0343 62.7719 37.917 63.2615 37.7327 63.74C37.5745 64.1514 37.4013 64.6038 37.0942 64.9296C36.9471 65.0841 36.6846 65.2144 36.504 65.0301C36.3644 64.8868 36.5115 64.6913 36.5841 64.5517C36.8354 64.0676 37.0644 63.5594 37.1947 63.0288C37.217 62.9339 37.2803 62.7793 37.2636 62.6788C37.2506 62.5969 37.1817 62.5764 37.1016 62.5634C36.8559 62.5187 36.6287 62.6639 36.4761 62.8445C36.3216 63.0288 36.2136 63.2522 36.033 63.4142C35.8003 63.6245 35.5862 63.5706 35.333 63.4365C35.6663 62.9581 36.0479 62.5038 36.1726 61.923C36.2229 61.6902 36.3123 61.5283 36.5803 61.5525C36.6343 61.5581 36.6902 61.5692 36.7404 61.5897C36.8186 61.6214 36.8186 61.6214 36.8335 61.6996C36.8615 61.8503 36.8335 62.0328 36.8335 62.1873C36.9341 62.1817 37.0346 62.1761 37.1351 62.1706C37.1891 62.1668 37.2971 62.1817 37.3455 62.1575C37.42 62.1184 37.4255 61.9881 37.4293 61.9099C37.446 61.5227 37.4814 61.1373 37.5112 60.7501C37.3567 60.7501 37.2021 60.7184 37.0476 60.7184C36.8689 60.7184 36.8019 60.7613 36.7237 60.9214C36.5524 61.2732 36.2881 61.5301 35.8673 61.4129C36.0311 60.9735 36.2285 60.5397 36.2359 60.0631C36.2378 59.9012 36.1689 59.7206 36.1894 59.5623C36.2154 59.3631 36.4817 59.4078 36.6083 59.4953C36.8764 59.6815 36.6623 60.1767 36.9415 60.3126C37.0476 60.3647 37.2617 60.361 37.3697 60.3182C37.5261 60.2586 37.5335 60.0557 37.5 59.9142C37.4237 59.5996 36.9732 59.2254 37.3529 58.9294C37.4907 58.8214 37.6694 58.8177 37.8016 58.9331C37.9524 59.0634 37.9822 59.2645 38.1051 59.4097C38.2 59.5214 38.4141 59.4711 38.5444 59.4711H39.4008H40.1473C40.4173 59.4711 40.7133 59.5121 40.9795 59.4711C41.2085 59.4357 41.1508 59.1825 41.1266 59.002C41.1024 58.8214 41.0819 58.6073 41.2346 58.4732C41.4915 58.248 41.8173 58.5198 41.7968 58.8121H42.2306C42.2157 58.7004 42.2306 58.5831 42.1933 58.4751C42.1524 58.3578 42.0705 58.3466 41.9569 58.3206C41.6944 58.2647 41.4152 58.2796 41.1582 58.2014C40.8827 58.1158 40.7282 57.9129 40.6947 57.6299C40.6686 57.4102 40.7114 57.3097 40.933 57.2464C41.0168 57.2222 41.1061 57.1943 41.1657 57.2687C41.2271 57.3451 41.229 57.5033 41.2625 57.5945C41.3705 57.8961 41.5939 57.9296 41.8824 57.9538C41.955 57.9594 42.0537 57.9948 42.1245 57.9687C42.2343 57.9296 42.2455 57.7751 42.2436 57.6783C42.2399 57.4456 42.0723 57.1347 42.2343 56.9243C42.3739 56.7419 42.6439 56.7884 42.7146 57.0006C42.817 57.3097 42.6588 57.6448 42.7276 57.9594C42.9957 57.8924 43.4016 57.924 43.5598 57.6411C43.6306 57.5126 43.5915 57.3506 43.6604 57.2222C43.7553 57.0509 43.9247 57.1347 44.0755 57.131ZM41.1396 61.7275C40.5755 61.3458 39.896 61.5171 39.263 61.4575C39.2537 61.6269 39.2444 61.7964 39.237 61.9658C39.8755 61.9081 40.5495 62.0496 41.1396 61.7275ZM40.0375 62.9674C40.0375 62.8184 40.0319 62.6676 40.0394 62.5168C40.0449 62.4182 40.0636 62.3493 39.9612 62.3158C39.842 62.2767 39.6354 62.3176 39.5088 62.3176C39.4473 62.3176 39.3077 62.2916 39.2575 62.3437C39.2035 62.3977 39.2388 62.5429 39.2575 62.6043C39.2854 62.7049 39.3431 62.7886 39.4287 62.8464C39.6019 62.9636 39.8364 62.9674 40.0375 62.9674ZM40.0301 60.6272C39.654 60.5974 39.3375 60.7464 39.3059 61.1541C39.4939 61.1373 39.8253 61.1988 39.9854 61.0815C40.0859 61.0089 40.0301 60.7371 40.0301 60.6272ZM38.5854 56.7363C38.0362 56.7549 38.2056 57.306 38.2298 57.6709C38.241 57.8663 38.241 58.0655 38.0064 58.0506C37.7681 58.0357 37.4721 58.0525 37.3194 57.831C37.2226 57.6913 37.2357 57.4456 37.0662 57.36C36.9341 57.2929 36.8019 57.399 36.7274 57.5052C36.4984 57.8291 36.7014 58.1474 37.0383 58.261C37.3753 58.3746 37.7662 58.3094 38.0939 58.4416C38.2857 58.5198 38.2242 58.6985 38.2559 58.8661C38.2894 59.0485 38.442 59.1677 38.6319 59.0913C38.9019 58.9833 38.645 58.5626 38.9 58.4174C39.2035 58.2443 39.5944 58.2461 39.9128 58.0935C40.1269 57.9911 40.2758 57.8068 40.2479 57.5592C40.2255 57.3581 40.0152 57.1142 39.7918 57.2147C39.5814 57.3078 39.6559 57.615 39.5646 57.7881C39.4269 58.0469 39.1048 57.9836 38.8665 58.0339C38.8218 57.7621 39.0731 56.7195 38.5854 56.7363Z" fill="#C4892D"/>
<path d="M44.5945 69.6974C44.5665 69.9096 44.4939 70.0716 44.2594 70.0809C44.0173 70.0902 43.8963 69.971 43.9001 69.7402C43.9112 69.1854 43.9429 68.6902 43.7884 68.1447C43.5221 67.2083 42.8631 66.2179 41.8652 65.9703C41.8652 66.9179 41.8522 67.8636 41.8634 68.8112C41.8745 69.7178 41.9658 70.6133 42.016 71.5181C42.0309 71.7992 41.8652 72.0208 41.545 71.9165C41.2676 71.8253 41.3272 71.3208 41.303 71.0936C41.2062 70.2 41.1969 69.3176 41.195 68.4202C41.1932 67.9939 41.1913 67.5676 41.1932 67.1394C41.1932 66.9104 41.1932 66.6833 41.1932 66.4543C41.1932 66.2644 41.2323 66.0187 41.1764 65.8344C41.1485 65.7394 41.1913 65.7729 41.1131 65.7226C41.061 65.6891 40.9604 65.6966 40.8971 65.6891C40.7892 65.6761 40.6812 65.6668 40.5732 65.6649C40.3386 65.6594 40.1022 65.678 39.8714 65.7245C39.8304 65.732 39.7429 65.7375 39.7094 65.7617C39.6331 65.8176 39.6722 65.7878 39.6498 65.8865C39.6219 66.0056 39.6386 66.1546 39.6331 66.2756C39.6237 66.5157 39.6144 66.7559 39.607 66.996C39.5735 67.9474 39.5605 68.9154 39.3966 69.8556C39.3184 70.3061 39.162 70.7511 39.1043 71.2016C39.0652 71.5032 38.9424 71.9407 38.5365 71.8011C38.3094 71.7229 38.3466 71.5535 38.3913 71.3654C38.4509 71.1234 38.5049 70.8795 38.5551 70.6338C38.6575 70.1274 38.7413 69.6173 38.8009 69.1053C38.92 68.1 38.9107 67.0984 38.9107 66.0875C38.2182 66.3966 37.6746 66.9886 37.3599 67.6811C37.211 68.0088 37.1198 68.3607 37.0844 68.7181C37.0658 68.8931 37.0621 69.07 37.0676 69.2468C37.0732 69.4274 37.1551 69.6806 37.09 69.8482C36.9634 70.1684 36.5036 70.0623 36.4291 69.7662C36.3453 69.4311 36.3695 69.029 36.403 68.6883C36.4682 68.0163 36.6897 67.3609 37.0658 66.7987C37.4437 66.2309 37.9687 65.7729 38.5738 65.4583C38.8902 65.2945 39.2253 65.1716 39.5698 65.086C39.7038 65.0524 39.9924 65.0506 40.091 64.9575C40.1748 64.8793 40.1767 64.736 40.1748 64.6336C40.1729 64.4399 40.0557 64.1365 40.2362 63.9913C40.4094 63.8498 40.7985 63.8982 40.8729 64.1253C40.9437 64.3431 40.8096 64.5889 40.8636 64.8141C40.9158 65.0301 41.0033 64.9594 41.1857 64.9873C41.3793 65.0152 41.5748 65.0804 41.7684 65.1213C42.0346 65.179 42.2394 65.3429 42.4666 65.4881C42.7086 65.6426 42.9599 65.7897 43.1963 65.9535C43.5705 66.2104 43.8703 66.6591 44.0955 67.05C44.5572 67.8543 44.7136 68.7814 44.5945 69.6974Z" fill="#C4892D"/>
<path d="M45.8066 71.6576C46.0617 71.4118 46.3112 71.1698 46.5625 70.9278C47.2401 71.6296 47.9159 72.3296 48.5917 73.0296C48.5545 73.065 48.5228 73.1041 48.4838 73.1339C48.3963 73.1991 48.3125 73.2698 48.2175 73.3201C47.9234 73.4709 47.6404 73.4429 47.376 73.2437C47.283 73.173 47.1955 73.0948 47.1135 73.0092C46.6872 72.5698 46.2628 72.1286 45.8364 71.6892C45.8271 71.6799 45.8178 71.6706 45.8066 71.6576ZM48.9845 72.6089C49.1893 72.3278 49.1949 71.9927 48.9976 71.706C48.9268 71.6017 48.8449 71.5049 48.7593 71.4137C48.3367 70.9725 47.9122 70.5331 47.4877 70.0938C47.4784 70.0844 47.4673 70.0751 47.4561 70.064C47.2029 70.3078 46.9534 70.5499 46.7021 70.7919C47.3798 71.4937 48.0556 72.1937 48.7425 72.903C48.8244 72.8044 48.9101 72.7113 48.9845 72.6089Z" fill="#BBA720"/>
<path d="M44.0734 73.5101C44.0027 73.5976 43.9375 73.6795 43.8687 73.767C43.8445 73.7112 43.8203 73.6628 43.8016 73.6125C43.7979 73.6051 43.8072 73.5902 43.8128 73.5809C43.9785 73.3556 44.146 73.1322 44.3117 72.9069C44.3769 72.8194 44.4421 72.7319 44.5054 72.6444C44.5128 72.6351 44.5202 72.6258 44.5296 72.6128C44.8274 73.2811 45.1216 73.9439 45.4194 74.6085C45.1812 74.7146 44.9466 74.8189 44.7046 74.9269C44.4942 74.4577 44.2857 73.9867 44.0734 73.5101Z" fill="#BBA720"/>
<path d="M41.7076 75.7496C41.7076 75.7458 41.7076 75.744 41.7076 75.744C41.7969 75.6323 41.8081 75.5057 41.7839 75.3679C41.7523 75.1892 41.7318 75.0105 41.7057 74.8299C41.7001 74.7927 41.6927 74.7536 41.6834 74.7182C41.6461 74.5935 41.5847 74.5506 41.4544 74.5544C41.4078 74.5562 41.3613 74.5637 41.3129 74.5674C41.3054 74.519 41.2999 74.4687 41.2924 74.4166C41.3278 74.4091 41.3632 74.4017 41.3985 74.3961C41.5735 74.3626 41.7504 74.3421 41.9273 74.3738C42.1358 74.411 42.3033 74.5078 42.4001 74.7052C42.5751 75.0607 42.4522 75.4461 42.106 75.6416C41.9868 75.7067 41.8565 75.744 41.7076 75.7496ZM42.2586 74.1001C42.2307 73.9065 42.2046 73.7185 42.1786 73.5286C41.7523 73.5881 41.3278 73.6477 40.9033 73.7073C40.9443 74.0052 40.9871 74.2993 41.0281 74.5916C41.0876 74.5841 41.1453 74.5748 41.2068 74.5674C41.1919 74.4631 41.177 74.3607 41.1621 74.2546C41.5307 74.2025 41.8937 74.1504 42.2586 74.1001ZM41.6964 75.4163C41.6703 75.2357 41.4953 75.1073 41.3129 75.1333C41.1174 75.1613 40.989 75.327 41.015 75.515C41.0429 75.703 41.2086 75.824 41.4023 75.7961C41.594 75.7682 41.7243 75.6006 41.6964 75.4163Z" fill="#BBA720"/>
<path d="M38.9219 73.6086C39.0224 73.6235 39.1118 73.6496 39.1955 73.6961C39.3705 73.7929 39.4729 73.9474 39.54 74.1299C39.6219 74.3552 39.6182 74.586 39.5772 74.8187C39.5418 75.0123 39.4804 75.1985 39.3594 75.3567C39.2086 75.5541 39.015 75.6881 38.7636 75.7198C38.678 75.7309 38.5495 75.716 38.4956 75.6918C38.4974 75.69 38.4993 75.6863 38.5011 75.6844C38.6054 75.6304 38.6501 75.541 38.665 75.4293C38.7469 74.8373 38.8307 74.2453 38.9144 73.6533C38.9182 73.6403 38.92 73.6254 38.9219 73.6086ZM38.7841 73.5919C38.7785 73.59 38.7767 73.5881 38.7729 73.5881C38.6557 73.5826 38.5402 73.5826 38.4229 73.603C38.2591 73.631 38.1251 73.7073 38.0301 73.845C37.9408 73.9735 37.9054 74.1187 37.9035 74.2714C37.8998 74.4445 37.9501 74.599 38.0748 74.7219C38.2182 74.8597 38.4025 74.9099 38.5924 74.9565C38.6575 74.4966 38.7208 74.0442 38.7841 73.5919ZM38.1716 75.6658C38.3634 75.6937 38.5365 75.5634 38.5626 75.3754C38.5868 75.1911 38.4565 75.0179 38.2721 74.9937C38.0767 74.9658 37.9054 75.0905 37.8793 75.2804C37.8533 75.4703 37.9817 75.6397 38.1716 75.6658Z" fill="#BBA720"/>
<path d="M35.8674 73.3108C35.7539 73.3183 35.6496 73.3239 35.5379 73.3313C35.564 73.2755 35.5845 73.2233 35.6087 73.1749C35.6124 73.1675 35.6329 73.1656 35.6459 73.1638C35.9233 73.1377 36.2007 73.1098 36.4781 73.0837C36.5972 73.0725 36.7145 73.0614 36.8374 73.0483C36.5395 73.7167 36.2454 74.3794 35.9494 75.0459C35.7129 74.9398 35.4765 74.8356 35.2363 74.7294C35.4467 74.2584 35.6552 73.7874 35.8674 73.3108Z" fill="#BBA720"/>
<path d="M32.1252 73.296C31.872 73.0521 31.6244 72.8119 31.373 72.5699C32.0414 71.8774 32.7079 71.1886 33.3762 70.496C33.6276 70.738 33.877 70.98 34.1284 71.2221C33.46 71.9127 32.7935 72.6034 32.1252 73.296ZM31.9706 70.9503C32.4361 70.7864 32.8885 70.6263 33.3464 70.4644C33.1863 70.3098 33.0318 70.1609 32.8773 70.012C32.5757 70.3247 32.2778 70.6338 31.9706 70.9503ZM33.7895 72.5774C33.7951 72.5718 33.8007 72.5681 33.8044 72.5643C34.0706 72.2869 34.3387 72.0114 34.6049 71.7359C34.6291 71.7117 34.6236 71.6987 34.6012 71.6763C34.4635 71.546 34.3276 71.412 34.1898 71.2816C34.1823 71.2742 34.173 71.2667 34.1581 71.2556C34.0297 71.6987 33.9031 72.1362 33.7765 72.5736C33.7839 72.5755 33.7877 72.5774 33.7895 72.5774Z" fill="#BBA720"/>
<path d="M48.3556 58.2181C48.188 57.6111 47.9404 57.1364 47.4974 56.6635C48.3146 56.8553 48.2234 57.5478 48.471 58.1138C48.8099 57.7768 49.1133 57.4771 49.4428 57.1513C49.3497 57.034 49.2641 56.9223 49.1617 56.7939C48.9458 56.9986 48.7466 57.1904 48.5008 57.4231C48.5064 56.9968 48.3202 56.7082 48.067 56.4048C48.2644 56.3284 48.4338 56.2633 48.6181 56.1944C48.6088 56.1572 48.5939 56.105 48.5753 56.038C48.6535 56.025 48.7223 56.0138 48.7931 56.0008C49.1356 56.4178 49.4708 56.8255 49.7947 57.2202C49.1524 57.747 48.5306 58.2571 47.8995 58.7747C47.7841 58.4731 47.6686 58.1752 47.5458 57.8532C47.8083 57.9704 48.054 58.0821 48.3556 58.2181ZM48.3388 56.3806C48.5641 56.6207 48.6479 56.8646 48.5809 57.2965C48.767 56.9782 48.875 56.7957 48.9811 56.6114C48.8285 56.3694 48.6106 56.3973 48.3388 56.3806ZM48.283 58.2702C48.1359 58.2069 48.0242 58.1585 47.8716 58.0933C47.9255 58.2739 47.9628 58.3986 48.0037 58.5401C48.0912 58.4582 48.1657 58.3837 48.283 58.2702ZM45.1907 54.9191C45.1107 54.6082 45.0362 54.3159 44.9636 54.0311C45.0585 54.005 45.1591 53.9771 45.5389 53.871C44.8854 53.8561 44.6974 53.3721 44.258 53.508C44.2468 53.5117 44.2431 53.5378 44.2338 53.5545C44.2673 53.6011 44.299 53.642 44.3288 53.6811C44.1705 53.804 44.016 53.9269 43.8447 54.0609C44.2301 54.1968 44.4572 54.4947 44.6899 54.8409C44.649 54.4053 44.4944 54.1019 43.8298 53.9231C44.2171 53.9101 44.3865 53.8524 44.4572 53.912C44.8407 54.234 44.9804 54.6883 45.0772 55.163C44.971 55.204 44.8891 55.2356 44.8519 55.2505C44.7867 55.5093 44.7327 55.7271 44.6694 55.9784C44.5261 55.7439 44.4125 55.5596 44.2934 55.3659C44.3381 55.3343 44.3958 55.2933 44.4107 55.2822C44.4907 55.1518 44.5447 55.0643 44.595 54.9824C44.2208 54.6138 43.7982 54.6566 43.3253 54.8391C43.3495 54.9806 43.3719 55.1109 43.3979 55.2654C43.4966 55.2245 43.5599 55.1965 43.6288 55.1667C43.6139 55.0606 43.6027 54.9694 43.5804 54.8074C43.7125 54.813 43.8429 54.7832 43.9266 54.8316C44.0588 54.9098 44.2506 55.0346 44.2599 55.15C44.2822 55.4553 43.9508 55.2021 43.8689 55.3175C44.137 55.5893 44.3958 55.85 44.6601 56.1181C44.8091 55.8556 44.971 55.5707 45.1311 55.2877C45.3303 54.9173 45.5314 54.5487 45.7343 54.1726C45.6226 54.0348 45.4979 54.0572 45.4011 54.1465C45.3229 54.437 45.2577 54.6771 45.1907 54.9191ZM50.6157 58.0058C51.3045 58.6109 51.0718 59.1638 51.042 59.6832C50.5915 59.8619 50.6064 59.417 50.3848 59.2587C50.3104 59.2885 50.2154 59.3239 50.0981 59.3704C50.3402 59.5771 50.5468 59.793 50.4016 60.0928C50.2973 60.3087 50.0479 60.3739 49.8282 60.292C49.4856 60.1672 49.6886 59.8787 49.683 59.6497C49.3646 59.4877 49.1543 59.2401 49.2287 58.8678C49.2455 58.7821 49.4577 58.6704 49.5694 58.6797C49.8989 58.7114 49.992 58.9739 50.0274 59.3853C50.1447 59.2308 50.2098 59.1452 50.2899 59.0372C50.2173 58.8845 50.1503 58.7412 50.0404 58.5103C50.5915 58.7114 50.5766 59.2792 50.9601 59.5659C51.0234 59.0633 50.8912 58.6351 50.6157 58.0058ZM49.4056 58.7635C49.2455 59.0335 49.3684 59.1936 49.4707 59.3369C49.5266 59.4151 49.6513 59.443 49.7463 59.4952C49.8896 59.2662 49.8059 59.1061 49.7016 58.972C49.6364 58.8864 49.5192 58.8399 49.4056 58.7635ZM49.8766 59.5603C49.7239 59.7204 49.737 59.9047 49.8301 60.0723C49.8617 60.1281 50.0199 60.1747 50.0758 60.1449C50.1465 60.1058 50.2136 59.9811 50.2061 59.8992C50.1912 59.7167 50.1019 59.5715 49.8766 59.5603ZM51.58 64.3021C51.6433 64.356 51.7085 64.41 51.7755 64.4659C51.7625 64.5459 51.7513 64.6148 51.7402 64.6856C51.2915 64.6185 50.8558 64.5515 50.3904 64.4826C50.6045 64.2406 50.7963 64.0247 51.0048 63.7864C50.612 63.5816 50.6678 63.28 50.8168 62.984C50.8577 62.9021 51.0271 62.8071 51.0979 62.8332C51.4628 62.9598 51.3939 63.28 51.3604 63.5965C51.6527 63.5443 51.6824 63.3247 51.7253 63.0864C51.809 63.1292 51.8723 63.1627 51.9431 63.1981C51.9058 63.4997 51.8723 63.7808 51.837 64.0731C51.6638 64.0303 51.5968 63.9353 51.6247 63.7622C51.5205 63.7547 51.4292 63.7473 51.3418 63.7398C51.1258 63.9465 50.9117 64.1494 50.6436 64.4063C50.9433 64.397 51.1742 64.3896 51.4758 64.3802C51.4628 64.3858 51.5149 64.3486 51.58 64.3021ZM50.9806 62.9747C50.7888 63.1385 50.7683 63.3414 50.8614 63.5853C50.9173 63.6021 50.9787 63.6207 51.0308 63.6374C51.2431 63.4066 51.2207 63.0771 50.9806 62.9747ZM50.8689 61.5412C50.4463 61.409 50.2824 61.0869 50.3439 60.7742C50.4723 60.1207 50.7907 60.4353 51.0197 60.7257C51.1202 60.8542 51.1314 61.0534 51.1891 61.2433C51.4907 60.9175 51.2077 60.6196 51.1686 60.225C51.6545 60.6178 51.5894 61.1744 51.8798 61.6305C51.7402 61.6194 51.675 61.6119 51.6042 61.6063C51.5633 61.4965 51.5261 61.3978 51.4311 61.1484C51.0308 61.9545 50.3625 62.2393 49.5806 62.4217C50.0516 62.1481 50.5915 62.0494 50.8689 61.5412ZM50.9136 61.5691C50.9433 61.0813 50.908 60.7909 50.4742 60.4726C50.4984 60.7909 50.4798 60.9771 50.5375 61.1372C50.5822 61.2619 50.7199 61.355 50.9136 61.5691ZM47.8157 55.2598C47.5774 55.6619 47.3652 56.0194 47.1306 56.4141C46.8662 55.8611 46.4548 55.5205 45.8591 55.2822C46.0583 55.1127 46.2314 54.9675 46.4139 54.813C46.3803 54.7795 46.3394 54.7367 46.196 54.5915C46.9053 54.638 47.2963 55.0867 47.8157 55.2598ZM47.4471 55.3994C47.1343 55.1295 46.8067 54.9154 46.3748 55.0252C46.2668 55.0532 46.1737 55.1481 46.0043 55.258C46.6484 55.3436 46.9817 55.6564 47.1455 56.2558C47.2609 55.9282 47.3484 55.6787 47.4471 55.3994ZM51.7085 65.3316C51.7141 65.2608 51.7253 65.1398 51.7364 65.0188C51.6657 64.9648 51.6098 64.922 51.6136 64.9239C50.8168 64.9481 50.0907 64.9723 49.3144 64.9965C50.1354 65.1119 50.9136 65.2199 51.7085 65.3316ZM45.2671 53.5601C45.699 53.7109 46.0862 53.9511 46.5442 53.7481C46.0825 53.9585 45.7716 53.2343 45.2671 53.5601ZM52.3899 65.1119C52.2074 64.693 52.5686 64.2779 52.0473 63.926C52.2596 64.3374 51.9822 64.7414 52.3899 65.1119ZM52.0324 63.9353C52.3973 63.7882 52.5891 63.5555 52.4215 63.1013C52.2782 63.4103 52.1553 63.6728 52.0324 63.9353ZM45.0865 53.2399C44.9841 53.0425 44.7923 52.9886 44.5168 53.0016C44.7756 53.2138 45.0381 53.359 45.1944 53.6532C45.1609 53.5154 45.1498 53.3646 45.0865 53.2399ZM52.0808 62.3361C52.025 62.1835 51.9859 62.0773 51.9058 61.8651C51.8165 62.0438 51.7699 62.135 51.7104 62.2542C51.85 62.2858 51.9449 62.3063 52.0808 62.3361ZM48.1136 55.4367C47.9237 55.5744 48.0652 55.6657 48.1229 55.7867C48.2178 55.7364 48.3016 55.6899 48.4263 55.6247C48.2979 55.5447 48.2048 55.4888 48.1136 55.4367ZM50.2769 57.7787C50.1335 57.68 50.1168 57.4454 49.8822 57.5702C49.8971 57.6595 49.9101 57.7415 49.9269 57.8494C50.0497 57.8252 50.1428 57.8066 50.2769 57.7787ZM32.602 59.2755C31.9355 59.2625 31.5669 59.6013 31.4291 60.3087C31.1815 59.8563 31.7605 59.5901 31.552 59.1954C31.431 59.4226 31.3248 59.618 31.1573 59.9327C31.1554 59.4579 31.5576 59.1954 31.3193 58.8231C31.0493 58.6853 30.7663 58.5383 30.4275 58.3651C30.4443 58.5122 30.4573 58.6332 30.4685 58.7282C30.7254 58.7654 30.9339 58.7952 31.1964 58.8324C30.9804 59.0074 30.8259 59.1321 30.69 59.242C30.5299 59.1489 30.3772 59.0595 30.232 58.9758C29.8504 59.3593 29.923 59.7893 30.1427 60.1989C30.2488 60.3962 30.435 60.2361 30.6081 60.1914C30.5746 60.1095 30.5448 60.0406 30.515 59.9718C30.3754 59.9755 30.2525 59.9792 30.1147 59.9848C30.0626 59.6534 30.1762 59.43 30.4294 59.268C30.7086 59.3537 30.5429 59.6125 30.6453 59.767C30.8259 59.5026 31.0009 59.2457 31.2429 58.8901C31.2038 59.3928 30.8203 59.659 30.906 60.0202C31.148 60.1617 31.3416 60.2752 31.5576 60.4018C31.7102 59.8303 32.0639 59.4728 32.602 59.2755ZM34.4395 55.6489C33.9908 55.4162 33.6613 55.5763 33.2833 55.9002C33.3187 55.6917 33.3392 55.5707 33.3578 55.4646C33.9033 55.23 34.4357 55.2691 34.9961 55.3268C34.7094 54.9694 34.4395 54.6324 34.1583 54.2806C34.1099 54.3215 34.0522 54.3718 33.9945 54.4239C34.002 54.5133 34.0094 54.5915 34.0113 54.6045C34.2309 54.7646 34.4059 54.8912 34.6815 55.0923C34.2607 55.0643 33.9796 55.0457 33.7078 55.0271C33.7246 54.9229 33.7432 54.8074 33.7897 54.5319C33.4639 54.9694 32.9799 55.0588 32.9166 55.5689C33.019 55.5409 33.0767 55.5242 33.1232 55.5112C33.1828 55.7029 33.2387 55.876 33.3075 56.0939C33.6259 55.8146 33.9926 55.6862 34.4395 55.6489ZM29.856 65.4395C29.6307 65.3483 29.4073 65.2571 29.169 65.1622C29.1485 65.2106 29.1243 65.2683 29.0592 65.4209C28.7781 64.8103 28.9903 64.2537 28.9102 63.7231C29.3645 63.7398 29.7852 63.7547 30.2413 63.7733C29.9025 64.2853 29.6977 64.8233 29.856 65.4395ZM29.1485 63.98C29.1429 64.5143 29.061 65.0411 29.7759 65.3167C29.4911 64.7154 29.6791 64.2797 30.0794 63.8385C29.7219 63.8925 29.4464 63.9334 29.1485 63.98ZM31.3826 61.5374C30.0663 61.3401 29.4129 61.8651 29.5618 62.9449C28.9735 62.6731 29.2621 62.1369 29.1448 61.7273C29.0983 61.6994 29.0443 61.6678 28.914 61.5914C29.0405 62.1071 28.7855 62.5967 29.0945 63.0864C29.1392 62.9728 29.1578 62.9207 29.1653 62.9021C29.3552 62.9672 29.5227 63.0249 29.7592 63.105C29.5302 61.7906 30.4517 61.7031 31.3826 61.5374ZM31.8927 57.8345C31.4794 57.3133 31.8834 56.9837 32.0974 56.6226C32.0658 56.5407 32.0379 56.4681 31.9857 56.334C31.8033 56.792 31.3565 57.0433 31.3155 57.5739C31.4272 57.5199 31.4775 57.4957 31.5296 57.4715C31.6693 57.6707 31.8014 57.8625 31.9429 58.0635C32.2166 57.4771 32.6429 57.0806 33.2573 56.8814C32.5349 56.7939 32.1142 57.1532 31.8927 57.8345ZM29.9863 59.0707C29.8355 58.5755 30.327 58.1194 29.9863 57.6446C30.1687 58.1063 29.5153 58.4731 29.8802 58.9776C29.5581 59.1247 29.2472 59.2755 29.3663 59.7595C29.56 59.4877 29.6791 59.1805 29.9863 59.0707ZM28.6608 64.4789C28.3406 64.7563 28.2289 65.0505 28.5118 65.4377C28.5286 65.0728 28.523 64.7451 28.8041 64.505C28.389 64.2462 28.7464 63.6598 28.2158 63.3507C28.4988 63.7547 28.1265 64.263 28.6608 64.4789ZM29.3682 61.2898C29.4203 61.2042 29.465 61.1335 29.519 61.046C29.4166 60.9882 29.3273 60.938 29.21 60.871C29.2137 61.0162 29.2174 61.1148 29.2211 61.2321C29.264 61.2489 29.3142 61.2694 29.3682 61.2898ZM34.7857 53.8878C34.6684 53.9715 34.5716 54.0404 34.3966 54.1651C34.5679 54.2117 34.6629 54.2378 34.7988 54.275C34.7932 54.1205 34.7895 54.0199 34.7857 53.8878ZM29.856 65.4395L29.8616 65.4433L29.856 65.4395Z" fill="white"/>
<path fill-rule="evenodd" clip-rule="evenodd" d="M124.076 69.8351C124.15 70.3713 123.84 70.7455 123.51 71.1104C123.503 71.1178 123.493 71.1252 123.49 71.1327C123.396 71.3896 123.305 71.6465 123.212 71.9034C123.439 71.9742 123.663 72.0542 123.894 72.1157C124.359 72.2404 124.862 72.2851 125.288 72.488C126.09 72.8734 126.226 73.5827 125.925 74.3553C125.871 74.4949 125.718 74.6122 125.586 74.6978C125.442 74.7891 125.277 74.7872 125.217 74.5768C125.083 74.1058 124.582 74.0872 124.279 73.8247C124.234 73.7856 123.985 73.8954 123.918 73.996C123.819 74.143 123.758 74.3441 123.754 74.5228C123.746 75.1893 123.367 75.6603 122.963 76.122C122.691 76.4329 122.371 76.6507 121.955 76.7513C121.54 76.8518 121.244 76.742 120.976 76.4162C120.71 76.0922 120.427 75.7739 120.107 75.5077C119.909 75.3438 119.625 75.2843 119.384 75.1744C119.141 75.0646 118.886 74.9659 118.664 74.8226C118.563 74.7574 118.476 74.5954 118.47 74.4726C118.444 74.0704 118.461 73.6646 118.461 73.1638C118.221 73.2774 118.061 73.3314 117.919 73.4207C117.655 73.5883 117.389 73.5641 117.113 73.4747C117.067 73.4598 117.002 73.4337 116.987 73.3965C116.804 72.9236 116.406 72.4936 116.529 71.9556C116.618 71.5665 116.854 71.209 117.033 70.8423C117.27 70.3545 117.569 69.8891 117.744 69.3827C117.938 68.8261 118.122 68.5729 118.707 68.625C119.524 68.6976 120.23 68.2899 121 68.1819C121.056 68.1745 121.148 68.1316 121.153 68.0944C121.215 67.709 121.425 67.4614 121.814 67.3944C121.79 67.3255 121.784 67.292 121.777 67.292C121.254 67.2473 120.952 66.996 120.891 66.445C120.857 66.1452 120.725 65.8567 120.637 65.5644C120.408 65.6351 120.187 65.9944 120.159 66.3053C120.125 66.6851 120.116 67.0761 120.023 67.4428C119.965 67.6662 119.807 67.8952 119.632 68.0553C119.249 68.4035 118.658 68.2471 118.515 67.7463C118.359 67.2008 118.065 66.7912 117.605 66.471C117.463 66.3723 117.329 66.2011 117.283 66.0354C117.091 65.3596 117.515 64.9258 118.206 65.099C118.469 65.1641 118.718 65.3 118.956 65.4378C119.215 65.5867 119.917 65.4713 120.155 65.1734C120.431 64.829 120.732 64.5982 121.19 64.5125C121.457 64.4623 121.689 64.2053 121.924 64.0266C122.047 63.9335 122.125 63.7623 122.257 63.7083C122.4 63.6487 122.59 63.6543 122.745 63.6934C122.801 63.7064 122.864 63.9168 122.834 64.008C122.732 64.3096 122.607 64.6056 122.462 64.8886C122.294 65.2144 122.261 65.5234 122.432 65.8622C122.529 66.0503 122.57 66.2681 122.661 66.5529C122.858 66.3649 123.074 66.229 123.197 66.0335C123.564 65.4489 123.912 64.8532 124.232 64.2407C124.413 63.8926 124.247 63.6934 123.847 63.712C123.765 63.7157 123.679 63.7325 123.599 63.7232C123.359 63.6915 123.22 63.4327 123.391 63.2838C123.806 62.9208 124.244 62.5671 124.718 62.2934C124.875 62.204 125.21 62.3101 125.401 62.4256C125.763 62.6415 126.081 62.9301 126.418 63.1889C126.645 63.3639 126.699 63.6077 126.621 63.8591C126.496 64.2631 126.299 64.6186 125.988 64.9388C125.413 65.5309 124.888 66.175 124.353 66.808C124.219 66.9662 124.312 67.0221 124.497 67.0519C125.245 67.1766 125.995 67.3274 126.517 67.9492C126.855 68.3532 127.068 68.8037 126.98 69.3734C126.908 69.8481 126.613 70.1497 126.236 70.2893C125.919 70.4048 125.562 70.2558 125.284 69.9859C125.187 69.8891 125.003 69.8574 124.856 69.8425C124.618 69.8183 124.378 69.8351 124.076 69.8351ZM118.426 73.1377C118.712 72.8231 119.04 72.838 119.403 72.8585C120.382 72.9125 121.267 72.6556 121.406 71.6223C121.416 71.5627 121.432 71.4976 121.466 71.4492C121.6 71.2556 121.503 71.1234 121.336 71.0526C121.099 70.9558 120.853 70.8739 120.602 70.8292C120.379 70.7901 120.334 70.684 120.366 70.4867C120.41 70.2093 120.567 70.0492 120.831 69.9673C121.047 69.9021 121.261 69.8221 121.466 69.7253C121.552 69.6843 121.611 69.5838 121.713 69.4795C121.611 69.4572 121.572 69.4441 121.533 69.4423C121.481 69.4404 121.429 69.4404 121.378 69.4497C120.578 69.608 119.833 69.8984 119.183 70.4029C118.776 70.7194 118.496 71.142 118.437 71.6484C118.383 72.1287 118.426 72.6165 118.426 73.1377ZM122.771 69.029C122.767 69.0662 122.762 69.1034 122.756 69.1425C123.154 69.2654 123.551 69.3883 123.983 69.5205C124.091 69.3417 124.232 69.109 124.379 68.8652C123.771 68.5152 123.285 68.8912 122.771 69.029ZM121.859 74.0239C121.82 73.9978 121.782 73.9718 121.743 73.9457C121.563 73.9774 121.378 73.9941 121.203 74.0444C121.058 74.0872 120.926 74.1691 120.786 74.2324C120.902 74.3553 120.995 74.5266 121.136 74.588C121.296 74.655 121.579 74.6997 121.663 74.6141C121.795 74.48 121.801 74.2268 121.859 74.0239Z" fill="#2C2E81"/>
<path fill-rule="evenodd" clip-rule="evenodd" d="M101.693 70.1069C101.825 70.1069 101.963 70.1293 102.091 70.1032C102.94 69.9319 103.246 69.1761 102.788 68.4295C102.661 68.2229 102.555 67.9883 102.51 67.7519C102.449 67.4466 102.624 67.1859 102.929 67.1766C103.45 67.1617 103.977 67.2064 104.497 67.2548C104.595 67.2641 104.716 67.3833 104.77 67.4838C104.953 67.8301 105.154 68.1745 105.266 68.5468C105.366 68.8857 105.545 68.9564 105.865 68.9787C106.187 69.0011 106.519 69.0867 106.815 69.217C107.302 69.4293 107.582 69.8537 107.552 70.3769C107.522 70.8721 107.157 71.183 106.714 71.3673C106.448 71.4771 106.165 71.5479 105.886 71.6186C105.452 71.7285 105.148 71.9593 104.929 72.3726C104.461 73.2513 103.923 74.0891 103.145 74.7351C103.006 74.8505 102.832 74.9268 102.672 75.0181C102.179 75.301 101.689 75.5877 101.194 75.8633C100.995 75.9731 100.788 76.0774 100.576 76.1463C100.274 76.2468 100.058 76.0774 100.125 75.7721C100.176 75.5393 100.306 75.3141 100.444 75.1149C100.896 74.4614 101.373 73.8266 101.833 73.1787C101.933 73.0354 102.002 72.8697 102.073 72.7096C102.244 72.313 102.224 72.2721 101.823 72.1176C101.274 71.9053 100.855 71.088 101.002 70.5221C101.056 70.295 101.395 70.0902 101.693 70.1069ZM108.311 74.0072C107.639 73.2904 106.749 73.1322 105.833 73.0354C105.737 73.0261 105.63 73.067 105.532 73.1005C105.165 73.2253 105.055 73.5864 105.295 73.8917C105.58 74.2566 105.9 74.5992 106.159 74.9827C106.357 75.275 106.513 75.6008 106.632 75.934C106.751 76.2617 107.304 76.6582 107.641 76.5931C108.172 76.4925 108.825 75.7441 108.764 75.2917C108.749 74.7909 108.641 74.3609 108.311 74.0072Z" fill="#2C2E81"/>
<path fill-rule="evenodd" clip-rule="evenodd" d="M89.8414 70.0511C89.8563 69.9058 89.8451 69.7848 89.8861 69.6862C89.9382 69.5633 90.0201 69.3883 90.1169 69.3659C90.251 69.3362 90.4576 69.3827 90.5563 69.4776C90.9957 69.8965 91.0478 70.4662 91.0739 71.0266C91.1018 71.6484 91.0832 72.2702 91.0981 72.892C91.1018 73.0056 91.1353 73.1508 91.2116 73.2252C91.4965 73.5101 91.6528 73.8284 91.759 74.2324C91.9637 75.005 92.3454 75.7087 92.876 76.3231C93.0621 76.539 93.064 77.0957 92.8927 77.3116C92.7792 77.4531 92.256 77.3731 92.0717 77.2316C91.3903 76.7066 91.018 75.9712 90.6233 75.2414C90.5302 75.0683 90.3515 74.8412 90.197 74.8281C89.9271 74.8039 89.806 75.0832 89.6943 75.3103C89.4802 75.7553 89.0204 75.975 88.5401 75.893C88.3576 75.8614 88.2739 75.7795 88.2999 75.6082C88.3316 75.3885 88.3539 75.1614 88.434 74.9566C88.6313 74.4577 88.8957 73.9829 89.067 73.4766C89.2178 73.0298 89.1544 72.5718 88.8584 72.1771C88.8063 72.1082 88.6946 72.084 88.6108 72.0393C88.5773 72.1175 88.5103 72.2013 88.5196 72.2758C88.5326 72.4135 88.5717 72.5587 88.635 72.6816C88.9925 73.3667 88.7914 74.1133 88.1175 74.4875C87.3691 74.9026 86.684 75.3922 86.105 76.0308C85.9598 76.1909 85.6973 76.2784 85.4758 76.3175C85.3603 76.338 85.1518 76.2132 85.0941 76.0978C84.7869 75.5002 84.6976 74.8449 84.8018 74.1933C84.8446 73.9327 85.0457 73.672 85.2337 73.4654C85.418 73.2643 85.5018 73.0577 85.5074 72.8008C85.5093 72.7282 85.5204 72.6537 85.5111 72.583C85.4199 71.95 85.5707 71.3524 85.7606 70.7585C85.7997 70.6356 85.809 70.5053 85.8351 70.3713C85.567 70.3284 85.5297 70.4867 85.4813 70.6505C85.2803 71.3319 85.068 72.0077 84.8651 72.6891C84.7311 73.134 84.6268 73.5883 84.4704 74.0258C84.3401 74.3925 84.1521 74.7388 83.9864 75.0906C83.8821 75.3178 83.6904 75.3215 83.4837 75.2712C83.2641 75.2172 83.1263 75.0664 83.1449 74.8505C83.1691 74.5657 83.2064 74.2696 83.3106 74.0071C83.4949 73.5492 83.6234 73.0912 83.6159 72.488C83.4577 72.5923 83.3367 72.6425 83.2622 72.73C83.076 72.946 82.7689 73.0428 82.5194 72.9255C82.2606 72.8026 82.2569 72.5699 82.3034 72.3372C82.3462 72.125 82.3835 71.9016 82.4821 71.7135C82.7893 71.1383 82.8638 70.5221 82.8768 69.8854C82.8806 69.6936 82.9383 69.4981 82.9904 69.3101C83.0481 69.1072 83.1598 68.9564 83.4111 68.9843C83.6774 69.0141 83.8282 69.1556 83.8561 69.4181C83.8803 69.6508 83.8859 69.8854 83.9008 70.1181C83.938 70.1274 83.9752 70.1385 84.0125 70.1479C84.0646 70.0268 84.1595 69.904 84.1614 69.7792C84.1744 69.3864 84.1502 68.9917 84.1446 68.5971C84.1391 68.2359 84.2805 68.0106 84.5952 67.9082C84.8986 67.8096 85.15 67.9343 85.3398 68.1577C85.5353 68.3904 85.7643 68.4574 86.0547 68.4183C86.8683 68.3104 87.0507 68.1707 87.235 67.3739C87.3114 67.0444 87.3952 66.7801 87.7545 66.646C87.8885 66.5958 88.0207 66.3984 88.0542 66.2458C88.1361 65.8864 88.1696 65.5141 88.1994 65.1436C88.2478 64.5665 88.2646 63.9875 88.3204 63.4104C88.3409 63.2131 88.4265 63.0455 88.7076 63.0865C88.8529 63.1069 89.013 62.971 89.1656 62.9748C89.551 62.9822 89.8023 63.2689 89.8302 63.6934C89.8377 63.7958 89.8396 63.9019 89.8228 64.0043C89.7744 64.3152 89.9233 64.5125 90.1989 64.5963C90.4614 64.6745 90.681 64.7936 90.6773 65.0822C90.6736 65.4378 90.5917 65.7971 90.2659 66.0019C90.0406 66.1434 89.7763 66.2197 89.5305 66.3258C89.2513 66.4468 88.985 66.5846 88.8826 66.9029C88.7933 67.1766 88.9236 67.3516 89.1991 67.279C89.5547 67.184 89.9103 67.0947 90.1877 66.8043C90.6513 66.3146 91.4127 66.4524 91.7068 67.0574C91.9191 67.4987 92.001 67.9455 91.6938 68.3811C91.4369 68.7441 91.1241 68.7907 90.7909 68.5449C90.6457 68.437 90.4651 68.2657 90.3255 68.288C89.9661 68.3439 89.6199 68.4872 89.2717 68.6064C89.2233 68.6213 89.1731 68.692 89.1619 68.746C89.0912 69.0904 89.4635 69.8239 89.8414 70.0511ZM86.5015 70.6468C86.6523 70.805 86.7361 70.967 86.818 70.9651C87.0377 70.9614 87.2481 70.8776 87.2592 70.5984C87.2686 70.3377 87.0433 70.3582 86.9093 70.3731C86.7882 70.3862 86.6821 70.5183 86.5015 70.6468ZM86.7249 72.7431C86.7585 72.7635 86.7901 72.784 86.8236 72.8026C86.9372 72.6351 87.0507 72.4694 87.2108 72.233C86.7454 72.3037 86.6654 72.4117 86.7249 72.7431ZM86.5481 65.4769C86.4233 65.0822 86.1385 64.8346 85.7811 64.6279C85.3101 64.3561 84.8055 64.5721 84.8279 65.1604C84.8409 65.488 84.6883 65.6761 84.3978 65.7524C84.1186 65.825 84.059 66.0317 84.0422 66.2644C84.0013 66.834 84.1744 67.0481 84.7441 67.1431C85.2151 67.2213 85.6079 67.4 85.8276 67.8673C85.8667 67.9511 86.0603 68.0255 86.1646 68.0069C86.6263 67.9213 86.8888 67.4949 86.8851 66.6386C86.8162 66.4021 86.6933 65.9367 86.5481 65.4769Z" fill="#2C2E81"/>
<path fill-rule="evenodd" clip-rule="evenodd" d="M62.6273 72.6202C62.6496 72.0505 62.8433 71.842 63.3589 71.6018C63.6233 71.479 63.8579 71.2369 64.0422 70.9986C64.3326 70.6226 64.6528 70.3154 65.0903 70.1069C65.3621 69.9766 65.6134 69.7699 65.8275 69.5502C66.1571 69.2114 66.0751 68.9303 65.6432 68.7814C65.444 68.7125 65.297 68.612 65.269 68.3792C65.2392 68.1279 65.2914 67.9008 65.539 67.817C65.9374 67.6811 66.3507 67.588 66.7584 67.4819C67.5608 67.2697 68.3967 67.1505 69.0594 66.5734C69.2512 66.4059 69.7464 66.4691 69.9437 66.6572C70.2453 66.942 70.5451 67.2287 70.8429 67.5173C71.1613 67.8282 71.1241 68.2173 70.7238 68.4314C70.2081 68.7069 69.6794 68.9508 69.1227 69.1518C68.4302 69.405 67.7711 69.7681 67.1251 70.1292C66.7342 70.347 66.7379 70.5798 67.0153 70.8981C67.1605 71.0657 67.2704 71.0545 67.4305 70.9186C67.6725 70.7119 67.9201 70.5034 68.1919 70.3433C68.3055 70.2763 68.5102 70.2912 68.6406 70.3452C68.8491 70.4308 68.9999 70.4085 69.1358 70.2391C69.214 70.1423 69.2921 70.0455 69.3592 69.9412C69.7948 69.2505 70.4687 69.1295 71.206 69.1835C71.2953 69.1891 71.3866 69.271 71.4592 69.3362C71.6304 69.4851 71.7924 69.6452 71.96 69.7997C72.1424 69.9673 72.3602 70.0064 72.606 70.0399C73.6299 70.1776 74.745 70.8851 74.8083 72.1119C74.8307 72.5643 74.4863 72.8585 74.1121 73.1024C73.7807 73.3183 73.4065 73.5399 73.198 73.8545C72.8796 74.3311 72.4868 74.7146 72.0456 75.0478C71.5448 75.4257 71.0068 75.7534 70.4911 76.1108C70.3403 76.217 70.1783 76.3268 70.0685 76.472C69.7818 76.8518 69.3871 76.9095 69.0148 76.7382C68.5475 76.5241 68.1211 76.2151 67.6836 75.9358C67.2592 75.664 66.8459 75.3755 66.4251 75.0981C66.2557 74.9882 66.1515 75.0609 66.1068 75.2377C66.0807 75.3364 66.0658 75.4406 66.0603 75.543C66.0528 75.6771 66.0956 75.8279 66.0491 75.9452C65.9634 76.163 65.8778 76.4329 65.7028 76.5502C65.4738 76.7047 64.9507 76.5055 64.8353 76.2579C64.6119 75.785 64.4275 75.2917 64.2153 74.8114C64.1371 74.6364 64.0552 74.4502 63.9286 74.3106C63.5917 73.9457 63.2156 73.6162 62.8842 73.2457C62.739 73.0837 62.6627 72.8603 62.5547 72.6649C62.5733 72.6518 62.6012 72.6369 62.6273 72.6202ZM72.2764 71.4324C71.5615 71.4585 71.1948 71.8159 70.9137 72.2925C70.6735 72.6965 70.4334 73.1024 70.1988 73.5101C70.1336 73.6255 70.0647 73.7539 70.0536 73.8805C70.0424 73.9885 70.0834 74.1375 70.156 74.2063C70.2081 74.2547 70.385 74.2417 70.4576 74.1896C70.7741 73.9587 71.0961 73.726 71.3717 73.4524C71.7831 73.0465 72.1703 72.6127 72.5427 72.1696C72.6246 72.0728 72.6599 71.855 72.606 71.7508C72.5296 71.5981 72.3509 71.4976 72.2764 71.4324ZM68.393 72.2683C68.5102 72.2683 68.635 72.2683 68.7578 72.2683C68.9943 72.2683 69.0259 72.4526 68.9552 72.5867C68.7597 72.9516 68.54 73.309 68.2961 73.6441C68.0057 74.0425 67.8419 74.0071 67.6204 73.5566C67.5906 73.4989 67.5012 73.4486 67.4342 73.4412C67.3839 73.4356 67.2741 73.5101 67.2778 73.538C67.2964 73.6925 67.2964 73.8992 67.3932 73.9867C67.5459 74.1244 67.8233 74.3069 67.9536 74.2529C68.3967 74.0611 68.8584 73.8545 69.0687 73.3462C69.2251 72.9664 69.456 72.6127 69.5844 72.2236C69.7166 71.829 69.5453 71.6447 69.1358 71.6875C68.9347 71.7079 68.7336 71.7712 68.54 71.8364C68.3315 71.9053 68.2794 72.0542 68.393 72.2683ZM65.1908 71.9276C64.8911 71.9314 64.6174 72.1976 64.6156 72.4899C64.6137 72.743 65.0028 73.1396 65.2523 73.1396C65.6637 73.1377 65.8611 72.9739 65.8573 72.6332C65.8517 72.1957 65.5967 71.9239 65.1908 71.9276Z" fill="#2C2E81"/>
<path fill-rule="evenodd" clip-rule="evenodd" d="M99.23 59.741C100.397 59.6014 101.406 59.9439 102.421 60.3907C103.38 60.8152 104.216 61.3998 105.009 62.0607C105.316 62.3176 105.575 62.6341 105.843 62.9338C106.448 63.6133 106.986 64.3412 107.315 65.1976C107.561 65.8325 107.63 66.4989 107.589 67.1766C107.583 67.2455 107.535 67.3106 107.434 67.3665C107.425 67.2809 107.397 67.1952 107.407 67.1133C107.509 66.1564 107.178 65.3242 106.604 64.6037C105.913 63.7399 105.172 62.9171 104.426 62.1016C104.232 61.8913 103.925 61.7814 103.657 61.6176C103.592 61.6716 103.525 61.7181 103.471 61.7777C103.255 62.0179 103.02 62.1333 102.669 62.1184C101.948 62.0849 101.218 62.0774 100.466 62.4963C100.49 62.3176 100.472 62.2022 100.522 62.1407C100.907 61.6697 101.308 61.2099 101.725 60.7184C101.084 60.4745 100.431 60.2381 99.7159 60.2883C98.7981 60.3535 97.884 60.4447 97.0388 60.8766C96.7316 61.033 96.3834 61.1112 96.0465 61.2024C95.9981 61.2155 95.9162 61.0945 95.8491 61.0349C95.9459 60.925 96.0241 60.7705 96.1451 60.7128C96.7241 60.4429 97.3273 60.2213 97.9026 59.9402C98.502 59.6479 99.1164 59.3612 99.6544 58.9759C100.297 58.5123 100.87 57.9519 101.466 57.4232C101.578 57.3245 101.648 57.1793 101.78 56.9969C101.313 57.0099 100.909 56.9503 100.524 57.157C100.161 57.3506 99.7773 57.4716 99.3603 57.3878C99.1834 57.3525 99.0047 57.3394 98.9172 57.1123C98.8353 56.8982 98.8856 56.7493 99.0326 56.6134C99.2653 56.3955 99.4943 56.1666 99.7512 55.9841C100.045 55.7775 100.22 55.8408 100.382 56.1647C100.448 56.2932 100.515 56.4253 100.554 56.5631C100.621 56.8088 100.773 56.8349 100.982 56.7604C101.233 56.6711 101.483 56.5761 101.738 56.5035C102.153 56.3862 102.406 56.5035 102.585 56.8982C102.678 57.0993 102.717 57.3059 102.413 57.3841C102.356 57.399 102.291 57.4325 102.255 57.4791C101.825 58.0301 101.2 58.3354 100.649 58.732C100.273 59.0019 99.8722 59.2383 99.4869 59.4971C99.3938 59.5641 99.3156 59.6591 99.23 59.741ZM101.576 61.599C102.302 61.666 102.937 61.5785 103.099 61.3979C102.471 60.9865 102.471 60.9865 101.874 61.396C101.79 61.4556 101.704 61.5133 101.576 61.599ZM99.8629 56.4551C99.6675 56.5761 99.4106 56.645 99.4906 56.9187C99.5111 56.9857 99.8201 57.0583 99.9095 56.9969C100.159 56.8312 99.9411 56.6487 99.8629 56.4551Z" fill="#2C2E81"/>
<path fill-rule="evenodd" clip-rule="evenodd" d="M64.5466 53.9698C64.7178 53.7668 64.8333 53.5732 65.0008 53.4485C65.1106 53.3666 65.3229 53.32 65.442 53.3703C66.116 53.6495 66.7936 53.9325 67.4378 54.2751C68.0298 54.5916 68.5846 54.9825 69.1505 55.3455C69.5452 55.6006 69.9399 55.8594 70.3252 56.1293C70.5021 56.254 70.6585 56.4048 70.8205 56.5482C71.3306 56.995 71.8891 57.4027 72.3396 57.9054C72.9149 58.5458 73.3356 59.2942 73.3933 60.1934C73.425 60.683 73.2332 61.1056 72.98 61.4966C72.6263 62.042 72.2465 62.5689 71.8686 63.0958C71.8053 63.1833 71.7066 63.254 71.6079 63.3043C71.5335 63.3396 71.4367 63.3266 71.3492 63.3359C71.3678 63.2279 71.351 63.0883 71.4125 63.0194C71.5875 62.8202 71.8295 62.675 71.9784 62.4609C72.3284 61.9545 72.6561 61.4295 72.9577 60.8915C73.0452 60.737 73.0694 60.4968 73.0172 60.3274C72.8236 59.6907 72.5555 59.0968 72.0231 58.6426C71.4311 58.1344 70.8837 57.574 70.2955 57.0583C70.0348 56.8293 69.7295 56.6469 69.4335 56.4626C68.9271 56.1461 68.4263 55.8147 67.8976 55.5447C67.1734 55.1724 66.4231 54.8503 65.684 54.5059C65.3154 54.3309 64.9468 54.1578 64.5466 53.9698Z" fill="#2C2E81"/>
<path fill-rule="evenodd" clip-rule="evenodd" d="M81.8734 54.8708C81.2516 54.761 80.5535 54.6716 79.8721 54.5115C79.187 54.3495 78.5186 54.4426 77.841 54.5283C77.7609 54.5394 77.6716 54.5618 77.5971 54.5394C77.5245 54.5171 77.4668 54.4426 77.4035 54.3905C77.4649 54.3328 77.5171 54.2397 77.5859 54.2229C78.5875 53.9865 79.591 53.8971 80.6186 54.0908C81.3372 54.2267 82.0708 54.2751 82.795 54.3905C82.9346 54.4128 83.1301 54.5506 83.1654 54.6735C83.2287 54.9099 82.9867 54.9322 82.8229 54.9658C82.3481 55.0626 82.1396 55.3046 82.0782 55.8594C82.0447 56.1666 82.3333 56.5463 82.713 56.6822C83.0016 56.7865 83.2902 56.8963 83.588 56.9764C83.6662 56.9969 83.8021 56.9373 83.8598 56.8703C83.9678 56.7474 84.0553 56.6003 84.1223 56.4514C84.3476 55.9413 84.8037 55.811 85.271 55.8594C85.7364 55.9059 86.1888 56.0865 86.6412 56.2298C86.7175 56.2541 86.792 56.3918 86.805 56.4849C86.8292 56.6673 86.8218 56.8572 86.805 57.0434C86.7976 57.1346 86.7529 57.2892 86.7064 57.2947C86.6133 57.3096 86.4867 57.2687 86.4122 57.2035C86.025 56.8647 85.6508 56.4961 85.1258 56.3993C84.9284 56.3639 84.7032 56.4328 84.504 56.4905C84.4463 56.5072 84.409 56.6599 84.396 56.7548C84.3737 56.9373 84.409 57.1365 84.3513 57.3059C84.3066 57.4381 84.1689 57.6112 84.0516 57.628C83.7835 57.6671 83.4819 57.6838 83.2362 57.5945C82.6646 57.3878 82.1192 57.1104 81.5588 56.8665C81.3168 56.7604 81.2349 56.5575 81.3075 56.3378C81.4694 55.8538 81.6705 55.3865 81.8734 54.8708Z" fill="#2C2E81"/>
<path fill-rule="evenodd" clip-rule="evenodd" d="M83.2882 60.3945C83.13 60.2213 82.9699 60.05 82.8135 59.8769C82.0074 58.9814 80.9518 58.4974 79.8571 58.0748C78.9095 57.7099 77.9545 57.7527 76.9882 57.965C76.7928 58.0078 76.5321 58.1064 76.4465 57.8439C76.3515 57.5535 76.6308 57.4921 76.8319 57.4306C77.6268 57.1868 78.1406 56.5557 78.7699 56.0828C78.7568 56.053 78.7457 56.0232 78.7327 55.9934C78.539 56.0456 78.3473 56.1163 78.1499 56.1461C78.0029 56.1684 77.8372 56.1628 77.6957 56.1182C77.6491 56.1051 77.6026 55.8836 77.6473 55.8333C77.772 55.6881 77.988 55.4479 78.0885 55.4815C78.5986 55.6546 79.01 55.3995 79.4587 55.2804C79.5928 55.245 79.8404 55.3046 79.9018 55.4033C80.0042 55.5652 80.0656 55.7793 79.7901 55.9469C79.481 56.1331 79.2186 56.3993 78.9542 56.7027C79.2688 56.5836 79.5816 56.4551 79.8999 56.3471C80.006 56.3099 80.2127 56.2913 80.2313 56.3304C80.2853 56.4458 80.3207 56.5892 80.0991 56.6525C79.9539 56.6953 79.8571 56.8926 79.7119 56.9466C79.4196 57.0527 79.1106 57.1291 78.8034 57.1682C78.7513 57.1756 78.6675 56.9336 78.5763 56.7642C78.3789 56.887 78.1574 57.0248 77.8651 57.2054C79.9558 57.2687 81.5345 58.1921 82.8824 59.5697C83.0853 59.7764 83.4055 59.9625 83.385 60.3293C83.3478 60.3516 83.3199 60.374 83.2882 60.3945Z" fill="#2C2E81"/>
<path fill-rule="evenodd" clip-rule="evenodd" d="M125.189 58.4267C125.199 58.5067 125.212 58.6054 125.23 58.7487C125.122 58.7487 125.035 58.745 124.947 58.7487C124.635 58.7636 124.322 58.7729 124.011 58.7953C123.344 58.8455 122.631 58.4304 122.486 57.7602C122.438 57.5368 122.429 57.332 122.689 57.2091C122.793 57.1588 122.881 57.049 122.952 56.9503C123.086 56.7623 123.112 56.591 122.903 56.4104C122.442 56.0102 121.98 55.6267 121.392 55.4088C121.069 55.2897 120.794 55.0514 120.479 54.9081C119.91 54.653 119.323 54.7349 118.744 54.8932C118.377 54.9937 118.02 55.1296 117.653 55.2264C117.568 55.2487 117.419 55.2059 117.372 55.1408C117.329 55.0831 117.352 54.9229 117.406 54.8559C117.826 54.3365 118.415 54.2099 119.044 54.2062C119.902 54.2006 120.684 54.437 121.432 54.8652C121.989 55.1836 122.557 55.474 123.006 55.945C123.155 56.1014 123.363 56.2392 123.432 56.4253C123.505 56.6227 123.492 56.8852 123.43 57.0937C123.261 57.6745 123.452 58.0562 124.048 58.1921C124.419 58.2796 124.793 58.3466 125.189 58.4267Z" fill="#2C2E81"/>
<path fill-rule="evenodd" clip-rule="evenodd" d="M90.3385 60.2586C89.6683 60.2586 88.9907 60.3032 88.3242 60.2455C87.5739 60.1804 86.8758 59.9104 86.2987 59.4022C86.1739 59.2923 86.1535 59.1155 86.334 58.9796C86.7325 58.6836 87.1178 58.3689 87.5218 58.0804C87.5926 58.0282 87.7769 58.0115 87.816 58.058C88.1511 58.4471 88.5811 58.611 89.0707 58.7022C89.5436 58.7897 89.8768 58.6426 90.0518 58.1995C90.0686 58.1604 90.0872 58.1232 90.0947 58.0841C90.1505 57.7955 90.3516 57.6429 90.6346 57.7062C90.6979 57.7192 90.7965 57.8626 90.7798 57.9072C90.5973 58.3745 90.3832 58.8623 89.8433 58.9777C89.4803 59.0559 89.0838 59.0131 88.7077 58.9758C88.38 58.9442 88.0636 58.8362 87.7378 58.7748C87.6186 58.7524 87.479 58.7338 87.3729 58.7729C87.2481 58.8213 87.1495 58.9368 87.0378 59.0224C87.1122 59.1118 87.1774 59.2123 87.2649 59.2905C87.7173 59.6963 88.3149 59.6591 88.8548 59.8062C89.4356 59.9625 90.0221 59.8471 90.6048 59.8695C91.3066 59.8955 91.9005 59.5641 92.5428 59.404C92.7327 59.3575 92.8835 59.1508 93.0529 59.0187C93.1404 58.9498 93.226 58.8753 93.3228 58.8251C93.3359 58.8176 93.4587 58.9386 93.4532 58.9926C93.4401 59.1118 93.4122 59.2756 93.3303 59.337C93.1069 59.499 92.863 59.6461 92.6061 59.7429C91.8763 60.0165 91.1279 60.2064 90.3385 60.2586Z" fill="#2C2E81"/>
<path fill-rule="evenodd" clip-rule="evenodd" d="M108.03 53.5565C108.114 53.7594 108.054 53.8506 107.82 53.8692C107.248 53.9139 106.69 53.8637 106.215 53.5341C105.859 53.2884 105.536 52.9626 105.55 52.4823C105.563 52.0336 105.904 51.7618 106.245 51.5533C107.323 50.8905 108.52 50.9557 109.708 51.0804C110.376 51.1512 110.92 51.544 111.446 51.9219C112.029 52.3408 112.435 52.9235 112.697 53.5825C112.807 53.8581 112.785 54.1876 112.815 54.4929C112.817 54.5152 112.763 54.5432 112.714 54.5879C112.565 54.2509 112.403 53.9437 112.292 53.6198C112.078 53.0054 111.62 52.6182 111.113 52.2626C110.255 51.6575 109.291 51.3876 108.254 51.3988C107.542 51.4081 106.898 51.6706 106.357 52.1397C106.023 52.4264 106.139 52.9887 106.558 53.1618C106.794 53.2605 107.027 53.3684 107.272 53.4355C107.507 53.4988 107.755 53.5155 108.03 53.5565Z" fill="#2C2E81"/>
<path fill-rule="evenodd" clip-rule="evenodd" d="M110.134 57.0806C109.817 57.3022 109.603 57.0899 109.367 56.9149C109.311 56.8721 109.188 56.8814 109.114 56.9112C108.758 57.0527 108.414 57.2221 108.054 57.3506C107.958 57.386 107.758 57.3543 107.721 57.2891C107.654 57.1681 107.602 56.9429 107.667 56.8591C107.941 56.5128 108.27 56.2112 108.559 55.8743C108.63 55.7905 108.659 55.6341 108.645 55.5224C108.574 55.0179 108.777 54.6586 109.196 54.4035C109.272 54.357 109.382 54.3607 109.473 54.3402C109.479 54.4463 109.512 54.5599 109.486 54.6549C109.425 54.8689 109.33 55.0756 109.251 55.286C109.177 55.4889 109.479 56.1591 109.678 56.1833C109.765 56.1945 109.866 56.0921 109.964 56.0455C110.182 55.945 110.393 55.8091 110.622 55.757C110.886 55.6993 111.216 55.9618 111.266 56.2205C111.277 56.2838 111.26 56.3713 111.223 56.4235C111.08 56.6096 110.923 56.7846 110.772 56.9652C110.597 57.1756 110.389 57.2352 110.134 57.0806ZM108.773 56.1926C108.591 56.3676 108.41 56.5352 108.231 56.7046C108.261 56.7548 108.291 56.8032 108.321 56.8516C108.557 56.7623 108.793 56.6748 109.024 56.5724C109.043 56.5649 109.037 56.4384 109.008 56.3937C108.955 56.3229 108.872 56.2745 108.773 56.1926ZM110.581 56.3955C110.568 56.3564 110.556 56.3173 110.543 56.2782C110.409 56.3266 110.225 56.3378 110.154 56.4328C110.072 56.5445 110.089 56.7306 110.065 56.8833C110.097 56.8907 110.128 56.8982 110.162 56.9056C110.3 56.7344 110.439 56.5649 110.581 56.3955Z" fill="#2C2E81"/>
<path fill-rule="evenodd" clip-rule="evenodd" d="M120.088 57.1961C120.543 57.2184 120.844 57.0136 121.015 56.6376C121.123 56.3993 121.295 56.4402 121.473 56.4979C121.559 56.5259 121.637 56.5836 121.717 56.6283C122.112 56.8517 122.108 56.8814 121.79 57.2035C121.669 57.3264 121.606 57.5033 121.483 57.6243C121.39 57.7173 121.244 57.7583 121.079 57.8458C121.056 57.6354 121.045 57.5163 121.028 57.3562C120.878 57.479 120.759 57.5982 120.617 57.6876C120.275 57.9017 119.951 57.8551 119.589 57.5181C119.45 57.3878 119.355 57.3543 119.195 57.4716C119.053 57.574 118.886 57.641 118.733 57.7248C118.411 57.9017 118.098 57.8793 117.925 57.5814C117.851 57.4511 117.895 57.1328 118.007 57.036C118.39 56.7009 118.826 56.4253 119.245 56.1312C119.36 56.0511 119.522 55.9264 119.597 56.1312C119.634 56.2299 119.543 56.4235 119.45 56.5128C119.251 56.7027 119.009 56.8479 118.796 57.0248C118.729 57.0806 118.701 57.1849 118.692 57.291C119.04 57.2166 119.394 57.1998 119.446 56.7381C119.468 56.5352 119.785 56.4365 120.042 56.5166C120.263 56.5873 120.15 56.7455 120.135 56.8777C120.124 56.9876 120.103 57.0974 120.088 57.1961Z" fill="#2C2E81"/>
<path fill-rule="evenodd" clip-rule="evenodd" d="M93.3191 56.0642C93.1367 55.8855 92.9654 55.6937 92.7699 55.5317C91.9396 54.8504 91.1112 54.1913 89.9867 54.02C89.1582 53.8935 88.3707 53.8804 87.5981 54.2434C87.5162 54.2825 87.3487 54.2397 87.2779 54.1746C87.2314 54.1317 87.2519 53.9344 87.3096 53.8823C87.4567 53.7482 87.6279 53.6068 87.8122 53.5583C88.5364 53.3703 89.2606 53.281 90.0109 53.5081C90.5992 53.6868 91.234 53.7259 91.7627 54.0722C92.0792 54.2788 92.3771 54.5227 92.6564 54.7778C92.9673 55.0607 93.2596 55.3679 93.5369 55.6825C93.6114 55.7663 93.6077 55.919 93.6412 56.04C93.5314 56.0456 93.4215 56.0512 93.3098 56.0567L93.3191 56.0642Z" fill="#2C2E81"/>
<path fill-rule="evenodd" clip-rule="evenodd" d="M113.621 56.4402C113.2 56.5855 112.783 56.7325 112.36 56.874C112.269 56.9057 112.163 56.9429 112.072 56.928C111.878 56.8964 111.834 56.7381 111.969 56.591C112.232 56.3006 112.506 56.0214 112.768 55.7309C112.911 55.5708 113.057 55.515 113.254 55.6472C113.489 55.8054 113.31 55.9208 113.23 56.0511C113.211 56.0828 113.211 56.1256 113.198 56.1833C113.602 56.053 113.982 55.919 114.369 55.8147C114.496 55.7812 114.645 55.8277 114.782 55.8389C114.745 55.973 114.73 56.12 114.665 56.2373C114.526 56.4886 114.354 56.7214 114.207 56.9671C114.179 57.0155 114.192 57.1049 114.217 57.1607C114.224 57.1812 114.332 57.1793 114.38 57.1589C114.807 56.9801 115.24 56.8144 115.65 56.6041C115.875 56.4886 116.052 56.5091 116.209 56.6674C116.395 56.8573 116.231 57.0062 116.112 57.1477C115.965 57.3208 115.818 57.4902 115.628 57.7118C115.549 57.5107 115.488 57.3562 115.423 57.1886C115.16 57.2799 114.905 57.3897 114.641 57.4549C114.403 57.5144 114.151 57.5535 113.907 57.5535C113.572 57.5535 113.429 57.2855 113.556 56.9708C113.611 56.8331 113.652 56.6878 113.701 56.5464C113.675 56.511 113.647 56.4756 113.621 56.4402Z" fill="#2C2E81"/>
<path fill-rule="evenodd" clip-rule="evenodd" d="M93.3098 56.0586C93.3489 56.2745 93.2614 56.3751 93.0454 56.4532C92.8406 56.5277 92.6284 56.6636 92.4906 56.8312C92.3287 57.0285 92.5484 57.2854 92.8946 57.3189C93.0156 57.3301 93.1385 57.3096 93.2781 57.304C93.2279 57.0806 93.1832 56.8814 93.1404 56.6897C93.697 56.5035 93.8106 56.5556 93.9297 57.036C94.0414 57.4865 93.8757 57.7937 93.4308 57.8309C93.0901 57.8607 92.7271 57.8402 92.3957 57.7546C91.8986 57.6298 91.7516 57.0564 92.0718 56.658C92.1109 56.6096 92.1518 56.5612 92.1872 56.5128C92.4683 56.12 92.8406 55.9599 93.3172 56.066C93.3191 56.0642 93.3098 56.0586 93.3098 56.0586Z" fill="#2C2E81"/>
<path fill-rule="evenodd" clip-rule="evenodd" d="M66.3711 55.111C66.2203 55.1929 66.0584 55.2562 65.9243 55.3586C65.7437 55.4964 65.5427 55.6379 65.4328 55.8259C65.3249 56.0102 65.5929 56.2355 65.9076 56.2448C66.0174 56.2466 66.1291 56.2206 66.2483 56.2075C66.1961 55.9934 66.1533 55.8054 66.0937 55.5634C66.3283 55.5634 66.656 55.4889 66.7081 55.5764C66.8403 55.798 66.8943 56.094 66.8924 56.3583C66.8905 56.6059 66.6932 56.7623 66.4251 56.753C66.0695 56.7381 65.7046 56.7474 65.3602 56.6711C64.8948 56.5687 64.7142 55.9543 65.0233 55.5988C65.1908 55.407 65.377 55.2264 65.5743 55.0663C65.807 54.8764 66.0714 54.949 66.3265 55.0012C66.3395 55.0365 66.3544 55.0738 66.3711 55.111Z" fill="#2C2E81"/>
<path fill-rule="evenodd" clip-rule="evenodd" d="M75.4934 56.5743C75.6535 56.3118 75.7522 56.0214 75.9514 55.8464C76.2549 55.5783 76.616 55.3716 76.9735 55.1762C77.128 55.0924 77.3309 55.0793 77.5134 55.0756C77.6083 55.0738 77.7573 55.1445 77.7852 55.219C77.815 55.2934 77.7517 55.4424 77.6828 55.5113C77.465 55.7309 77.2118 55.9171 76.9958 56.1386C76.7761 56.3602 76.6086 56.6394 76.3684 56.8312C76.2176 56.9503 75.9719 57.0025 75.7727 56.9932C75.6852 56.9857 75.6089 56.7549 75.4934 56.5743Z" fill="#2C2E81"/>
<path fill-rule="evenodd" clip-rule="evenodd" d="M91.1595 56.3788C91.1278 56.6506 91.1148 56.8573 91.0776 57.0602C91.0403 57.2575 90.8653 57.3804 90.7201 57.2724C90.4818 57.0993 90.2938 57.1998 90.089 57.2817C89.685 57.4437 89.4151 57.4083 89.1917 57.1402C89.1488 57.0881 89.1097 57.0192 89.0986 56.9541C89.0576 56.6972 89.4486 56.1368 89.7073 56.0977C89.7911 56.0847 89.9047 56.1331 89.9717 56.1908C89.9978 56.2131 89.9587 56.3676 89.9065 56.4142C89.7222 56.578 89.6794 56.7567 89.8842 56.902C90.0834 57.0397 90.2621 56.915 90.3869 56.7456C90.5023 56.5911 90.5786 56.4067 90.7015 56.2615C90.7573 56.1982 90.9063 56.1573 90.9845 56.1852C91.0701 56.215 91.1241 56.336 91.1595 56.3788Z" fill="#2C2E81"/>
<path fill-rule="evenodd" clip-rule="evenodd" d="M74.3689 57.7732C74.2181 57.7322 74.125 57.7285 74.0618 57.6838C73.6354 57.3804 73.2054 57.0769 72.8014 56.7474C72.7306 56.6897 72.7232 56.4756 72.7716 56.3751C72.8293 56.2559 72.9745 56.1721 73.0974 56.0995C73.1439 56.0716 73.278 56.0958 73.2985 56.1349C73.5572 56.6636 74.1437 56.8163 74.5179 57.2091C74.6054 57.3022 74.6705 57.4158 74.745 57.52C74.6072 57.6131 74.4713 57.7062 74.3689 57.7732Z" fill="#2C2E81"/>
<path fill-rule="evenodd" clip-rule="evenodd" d="M97.7685 58.1065C97.169 58.0785 96.6887 57.8402 96.2438 57.5051C95.8081 57.1756 95.7597 56.74 96.1656 56.5538C96.2717 56.5054 96.5286 56.5631 96.5789 56.6506C96.8265 57.0769 97.2007 57.3469 97.614 57.5722C97.8727 57.7136 97.9379 57.8644 97.7685 58.1065Z" fill="#2C2E81"/>
<path fill-rule="evenodd" clip-rule="evenodd" d="M104.666 56.1796C104.616 56.6618 104.921 57.1477 105.5 57.0918C105.651 57.0769 105.811 57.1756 105.969 57.224C105.941 57.3022 105.938 57.4306 105.887 57.4511C105.509 57.6149 104.387 57.3282 104.178 57.0006C103.854 56.4979 103.892 56.1889 104.325 56.0493C104.415 56.0195 104.558 55.945 104.586 55.9748C104.651 56.0418 104.66 56.1647 104.666 56.1796Z" fill="#2C2E81"/>
</g>
<defs>
<filter id="filter0_d_185_314" x="0" y="0" width="154" height="157" filterUnits="userSpaceOnUse" color-interpolation-filters="sRGB">
<feFlood flood-opacity="0" result="BackgroundImageFix"/>
<feColorMatrix in="SourceAlpha" type="matrix" values="0 0 0 0 0 0 0 0 0 0 0 0 0 0 0 0 0 0 127 0" result="hardAlpha"/>
<feOffset dy="16"/>
<feGaussianBlur stdDeviation="6.5"/>
<feColorMatrix type="matrix" values="0 0 0 0 0 0 0 0 0 0 0 0 0 0 0 0 0 0 0.03 0"/>
<feBlend mode="normal" in2="BackgroundImageFix" result="effect1_dropShadow_185_314"/>
<feBlend mode="normal" in="SourceGraphic" in2="effect1_dropShadow_185_314" result="shape"/>
</filter>
</defs>
</svg>
