<svg width="154" height="157" viewBox="0 0 154 157" fill="none" xmlns="http://www.w3.org/2000/svg">
<g filter="url(#filter0_d_192_905)">
<rect width="128" height="128" transform="translate(13)" fill="white"/>
<path d="M33.4123 65.0976H33.48C33.8896 65.2341 34.1626 65.3018 34.298 65.3018C34.4333 65.3018 34.4788 65.2108 34.4345 65.0288C34.4345 64.9844 34.4112 64.9156 34.3668 64.8246C34.3213 64.7335 34.2991 64.6658 34.2991 64.6203V64.5527C34.3435 64.5527 34.3902 64.576 34.4357 64.6203C34.5267 64.7125 34.6399 64.7569 34.7764 64.7569C34.9573 64.8024 35.0495 64.5527 35.0495 64.0065C35.0938 63.5969 35.0938 62.3927 35.0495 60.3914C35.1405 59.8009 34.9351 59.5279 34.4357 59.5734C34.2991 59.5734 34.0716 59.6189 33.753 59.7099C33.48 59.8464 33.2524 59.9141 33.0704 59.9141H32.8662C32.6386 59.9596 32.4566 59.9818 32.32 59.9818C32.2745 60.6189 32.3422 60.9363 32.5242 60.9363C32.7518 60.9363 33.0925 60.8687 33.5476 60.7321C33.865 60.5956 34.0938 60.5279 34.2303 60.5279C34.4578 60.4836 34.571 60.5956 34.571 60.8687C34.5255 61.0962 34.2746 61.2094 33.8207 61.2094C33.7752 61.2094 33.7063 61.2327 33.6165 61.2771C33.3889 61.2771 33.2069 61.3226 33.0704 61.4136H32.9338C32.9338 61.3693 32.9105 61.3459 32.8662 61.3459H32.2523V62.3693C32.4332 62.3693 32.6841 62.3017 33.0027 62.1651C33.4123 62.0286 33.7075 61.9609 33.8895 61.9609C34.207 61.8699 34.3668 62.0064 34.3668 62.3705C34.3668 62.507 34.1848 62.5747 33.8207 62.5747C33.6842 62.6202 33.5931 62.6424 33.5476 62.6424C33.2746 62.7346 32.9105 62.8466 32.4566 62.9831C32.229 63.1197 32.2057 63.4837 32.3889 64.0742C32.4332 64.0299 32.5254 63.9832 32.6619 63.9377C32.753 63.8933 32.8206 63.87 32.8662 63.87C33.047 63.6425 33.2069 63.4837 33.3434 63.3927C33.48 63.3927 33.571 63.4604 33.6165 63.5969C33.7075 63.5969 33.8207 63.5748 33.9572 63.5293H34.298C34.4788 63.5748 34.5932 63.6658 34.6387 63.8023C34.6387 63.8945 34.5465 63.9389 34.3657 63.9389C34.3201 63.9844 34.2735 64.0065 34.2291 64.0065L33.8884 64.0742C33.7063 64.1197 33.592 64.1419 33.5476 64.1419C33.2746 65.233 32.7518 66.1432 31.9781 66.8702C31.2044 67.5062 30.7272 67.8481 30.5451 67.8936L30.4774 67.8259C30.4319 67.8259 30.3853 67.8481 30.3409 67.8936H30.1367C30.1367 67.8481 30.1134 67.8259 30.069 67.8259C29.9768 67.7804 29.9325 67.7115 29.9325 67.6217C30.0235 67.1666 30.2277 66.9624 30.5463 67.0079C31.6829 66.0533 32.4099 65.212 32.7296 64.4838C32.6841 64.4838 32.5931 64.5293 32.4566 64.6203C31.8194 64.8479 31.3877 65.0078 31.1601 65.0976C30.5685 65.0066 30.1822 64.7114 30.0002 64.2107C30.0445 64.2107 30.0912 64.2341 30.1367 64.2784L30.2044 64.3461C30.614 64.3916 31.0679 64.3461 31.5685 64.2096C31.2978 63.6646 31.2511 62.6191 31.4343 61.0729C31.6152 59.9363 32.0248 59.1626 32.6619 58.753C32.4344 58.662 32.2745 58.5943 32.1847 58.5488C32.1392 58.5045 32.0703 58.4811 31.9805 58.4811C31.8439 58.4368 31.7529 58.4134 31.7074 58.4134C30.7528 58.5955 29.9792 58.8009 29.3875 59.0272C29.2953 59.0272 29.1833 59.0728 29.0468 59.1638C28.5007 59.3458 28.0689 59.4147 27.7503 59.368C27.4318 59.1404 27.1809 58.9129 27 58.6853C27.2276 58.5045 27.6138 58.4123 28.1599 58.4123C29.7971 58.1847 31.3888 57.9805 32.935 57.7985C32.935 57.6619 32.9572 57.4577 33.0027 57.1847V56.8439C32.5931 56.8439 32.2745 56.9116 32.0481 57.0481C32.0026 57.0481 31.9559 57.1158 31.9116 57.2523C31.8194 57.3889 31.7517 57.4566 31.7074 57.4566C31.6619 57.4566 31.5709 57.4122 31.4343 57.32C31.3888 57.229 31.3421 57.1835 31.2978 57.1835C30.9792 56.6841 30.7062 55.9792 30.4798 55.069C30.4798 55.0247 30.4343 54.978 30.3433 54.9325C30.1612 54.7516 30.0924 54.6151 30.139 54.5229C30.1834 54.4319 30.3888 54.3864 30.7528 54.3864C31.0702 54.3864 31.4355 54.5007 31.8439 54.7271C32.2535 54.6361 32.6853 54.5229 33.1404 54.3864C33.2314 53.8402 33.2769 53.4318 33.2769 53.1588C33.2769 52.7492 33.1626 52.5006 32.9362 52.4084V52.3407C33.0249 52.1144 33.2302 52 33.5488 52C33.7764 52.0455 33.9806 52.2042 34.1626 52.4773C34.3902 52.9324 34.4578 53.5007 34.3668 54.1822C34.7297 54.0013 35.1848 53.8414 35.731 53.7049C36.3669 53.7971 36.731 54.1145 36.822 54.6594C36.8664 55.1145 36.549 55.6385 35.8675 56.229C35.6855 56.3655 35.5489 56.4798 35.4579 56.5697C35.0028 56.8883 34.5477 56.9571 34.0938 56.7739C34.1381 56.9104 34.0938 57.2068 33.9572 57.6608C34.1848 57.6164 34.5932 57.5476 35.1848 57.4566C36.2304 57.32 36.9586 57.229 37.3682 57.1835C38.5503 57.229 39.1641 57.5476 39.2096 58.138V58.2746C39.1174 58.4111 38.9587 58.4788 38.7323 58.4788C38.6401 58.4788 38.5281 58.4111 38.3916 58.2746C36.9819 58.047 35.4579 58.047 33.8207 58.2746C33.6387 58.7752 33.2746 58.9572 32.7296 58.8207C32.5021 59.0027 32.3655 59.3213 32.32 59.7752L32.3877 59.7076C32.4787 59.6632 32.5686 59.6399 32.6608 59.6399C32.9338 59.5955 33.2746 59.4812 33.6842 59.2991C33.9572 59.1626 34.1614 59.0716 34.298 59.0261C34.3423 59.0261 34.4112 59.0039 34.5022 58.9584C34.7297 58.8219 34.934 58.7542 35.116 58.7542C35.5699 58.8907 35.8885 59.3236 36.0705 60.0506V63.8712C36.025 64.9622 35.8197 65.5761 35.4567 65.7126C36.3203 66.303 36.7754 66.9402 36.8209 67.6228V67.8959L36.4113 68.3055C36.1837 68.3055 35.9562 68.0546 35.7286 67.5552C35.6364 67.463 35.5921 67.3953 35.5921 67.351C35.137 66.8048 34.6819 66.3719 34.228 66.0545C34.0459 65.9635 33.9316 65.8958 33.8872 65.8503C33.662 65.5305 33.5033 65.2797 33.4123 65.0976ZM31.9793 55.1379C32.1158 55.684 32.2068 56.0247 32.2523 56.1613C32.5254 56.1613 32.7985 56.1169 33.0704 56.0247V55.684C33.1147 55.3211 33.138 55.1157 33.138 55.0702C32.9105 55.1157 32.6608 55.1379 32.3877 55.1379H31.9793ZM34.2991 54.9337V55.3433C34.2536 55.6163 34.2315 55.7762 34.2315 55.8205C34.459 55.8205 34.6632 55.7762 34.8453 55.684V55.6163C34.9818 55.1624 35.0261 54.866 34.9818 54.7294C34.7087 54.775 34.48 54.8426 34.2991 54.9337ZM44.4631 57.4577C44.4631 57.3212 44.6218 57.2769 44.9404 57.3212H45.0081C45.5985 57.3212 46.0758 57.5254 46.441 57.935H46.5087C46.6453 57.6619 46.7363 57.4577 46.7818 57.3212C46.8728 57.1847 46.9405 57.0038 46.986 56.7751L47.0537 56.7074V57.1158C46.9615 57.7075 46.9171 58.3668 46.9171 59.0938C47.098 59.5034 46.9393 60.0261 46.4399 60.6633V60.731C46.1668 60.731 45.9626 60.6633 45.8261 60.5268C45.7806 60.4357 45.6895 60.368 45.553 60.3225C45.5075 60.2782 45.4608 60.2315 45.4165 60.186C45.2799 59.9585 45.0979 59.4357 44.8704 58.6165C44.7782 58.2536 44.7105 58.0027 44.6661 57.8662C44.6661 57.8218 44.6428 57.7751 44.5985 57.7296C44.5074 57.5931 44.4631 57.5032 44.4631 57.4577ZM46.9183 62.8466C47.7363 60.71 48.0782 58.3901 47.9417 55.8882C47.8962 55.7972 47.874 55.6607 47.874 55.4786C47.874 55.2056 47.7597 55.0013 47.5333 54.8648C47.5776 54.7283 47.7375 54.6606 48.0106 54.6606C48.5567 54.6163 48.8741 54.8881 48.9651 55.4786C49.0095 56.1613 49.0328 56.8661 49.0328 57.5931C49.2137 57.6386 49.4867 57.753 49.8508 57.9338C49.8952 57.9793 49.9418 58.0015 49.9873 58.0015C50.0317 58.0015 50.055 58.047 50.055 58.138C50.1916 58.2746 50.3281 58.3423 50.4646 58.3423C50.509 58.3423 50.5323 58.3201 50.5323 58.2746L50.6 58.2069C50.7365 57.9338 50.8952 57.5709 51.0772 57.1158C51.1216 56.8883 51.1683 56.7296 51.2138 56.6385V56.502C51.2138 56.5475 51.236 56.6164 51.2815 56.7062V56.8428C51.236 56.9349 51.2138 57.0026 51.2138 57.047L51.2815 57.1146V57.2512C51.2815 57.5698 51.236 58.047 51.1449 58.6842C51.0994 58.9117 51.0772 59.0938 51.0772 59.2303C50.8952 59.3225 50.6677 59.3668 50.3946 59.3668C50.2126 59.3668 49.985 59.1626 49.7119 58.753C49.4389 58.3434 49.2113 58.117 49.0293 58.0704C48.9838 58.6165 48.8928 59.4123 48.7562 60.4579C48.7107 60.913 48.664 61.2537 48.6197 61.4813C48.3011 63.0742 47.8017 64.2096 47.119 64.8922C46.8005 65.0743 46.4819 65.1653 46.1645 65.1653C46.0723 65.1653 45.9603 64.9611 45.8237 64.5515V64.4838C46.2812 64.0742 46.6464 63.5281 46.9183 62.8466ZM51.285 64.0742C51.285 63.6646 51.3293 63.1197 51.4215 62.437C51.5125 61.71 51.558 61.1639 51.558 60.7998C51.558 59.8908 51.6024 58.5721 51.6946 56.8428V56.3655C51.7389 55.4564 51.6946 54.796 51.558 54.3875C51.6024 54.251 51.6712 54.1833 51.7622 54.1833C52.2162 54.2288 52.4449 54.5929 52.4449 55.2744C52.4449 55.7295 52.4216 56.502 52.3772 57.5943V59.0949C52.3772 60.7321 52.3317 62.1885 52.2407 63.4604C52.285 64.2784 52.1263 64.6437 51.7634 64.5515C51.4892 64.5071 51.3293 64.3473 51.285 64.0742ZM52.5803 57.5931C52.5803 57.5021 52.6479 57.4566 52.7845 57.4566H52.8521C52.9887 57.4566 53.1929 57.5242 53.466 57.6608C53.6935 57.7973 53.8522 57.865 53.9432 57.865C53.9876 57.865 54.0343 57.8428 54.0798 57.7973L54.2163 57.7296C54.4893 57.1835 54.6481 56.7062 54.6936 56.2966C54.7846 56.3421 54.8068 56.4787 54.7612 56.7062V56.7739C54.7612 56.9559 54.7379 57.138 54.6936 57.32C54.6481 57.6386 54.6481 57.9793 54.6936 58.3434C54.7846 58.571 54.6936 58.7308 54.4205 58.8207C54.193 58.8662 53.7378 58.5476 53.0564 57.8662C53.0108 57.8218 52.942 57.7985 52.8521 57.7985C52.6713 57.7541 52.5803 57.6853 52.5803 57.5931ZM55.2409 67.2798C55.2409 67.0522 55.263 66.757 55.3085 66.3929V65.7791C55.3529 64.9611 55.3762 64.0287 55.3762 62.982V59.0938C55.3762 56.9571 55.3984 55.1612 55.4439 53.7049C55.4439 53.4773 55.3984 53.2953 55.3074 53.1588C55.2619 53.1144 55.2397 53.0677 55.2397 53.0222C55.2397 52.8857 55.3074 52.818 55.4439 52.818C55.8978 52.9102 56.1709 53.1588 56.2619 53.5684C56.2164 53.9324 56.1942 54.3642 56.1942 54.8648C56.1487 56.2745 56.1266 58.2069 56.1266 60.6633V66.8025C56.1709 67.6205 55.9667 68.0301 55.5127 68.0301C55.4206 68.0301 55.3762 68.0068 55.3762 67.9624L55.2397 67.8259V67.2798H55.2409ZM64.246 64.688C63.7909 64.5515 63.5634 64.052 63.5634 63.1873C63.5179 62.4148 63.5401 61.2771 63.6311 59.7764C63.7221 58.4578 63.7676 57.4811 63.7676 56.8428C63.0394 56.9793 62.6532 56.7984 62.6077 56.2966C62.652 56.0691 62.8574 55.7505 63.2215 55.3421L63.4945 55.069C63.5856 54.9325 63.7676 54.7516 64.0407 54.5229C64.6766 53.9324 65.0641 53.4318 65.2006 53.0222C65.2006 52.9312 65.1773 52.8414 65.1329 52.7492C65.0874 52.6126 65.0652 52.5216 65.0652 52.4761C65.1096 52.3851 65.2694 52.3174 65.5425 52.2719C66.2252 52.5905 66.5426 53.0677 66.4971 53.7049C66.4971 54.433 65.9731 55.2056 64.9275 56.0247C65.427 56.0247 65.7911 55.9337 66.0186 55.7517C66.2917 55.4786 66.6324 55.3654 67.042 55.4109C67.4959 55.4564 67.7013 55.7073 67.6558 56.1613C67.6558 56.4343 67.4959 56.8206 67.1785 57.3212C67.0863 57.4577 67.0187 57.5721 66.9743 57.6619C67.0187 57.8895 66.8378 58.0949 66.4282 58.2757L66.3605 58.3434C66.224 58.3889 66.042 58.4356 65.8144 58.48C65.3593 58.5721 65.0186 58.662 64.791 58.753V59.2303C64.7455 59.5489 64.7233 59.7998 64.7233 59.9806C64.9042 59.8896 65.1551 59.7531 65.4737 59.571C65.7467 59.4345 65.9054 59.3668 65.9509 59.3668C66.042 59.3225 66.1318 59.2536 66.224 59.1626C66.315 59.0716 66.4515 59.0261 66.6336 59.0261C66.9965 59.0716 67.3162 59.1626 67.5881 59.2991C67.7247 59.5267 67.7013 59.8686 67.5204 60.3225C67.4749 60.5501 67.3162 60.8453 67.0432 61.2094C66.951 61.3016 66.8833 61.3914 66.839 61.4825C67.0665 61.8921 66.9755 62.1885 66.5659 62.3693C65.9743 62.6879 65.3383 62.9155 64.6556 63.052C64.6556 63.1442 64.6778 63.2562 64.7233 63.3927V64.2107C64.5868 64.6203 64.4269 64.7802 64.246 64.688ZM64.4503 56.502C64.6311 56.9571 64.7233 57.4344 64.7233 57.935C64.8143 57.8907 64.9509 57.8673 65.1329 57.8673C65.3138 57.823 65.4503 57.7996 65.5425 57.7996C65.9521 57.5266 66.1785 57.0726 66.2252 56.4355C65.679 56.572 65.1784 56.5032 64.7245 56.2313C64.6311 56.3211 64.5401 56.4122 64.4503 56.502ZM64.6545 60.7998V62.2328C65.1084 62.0519 65.4048 61.8699 65.5413 61.6867C65.5857 61.5957 65.6545 61.4136 65.7456 61.1406C66.063 60.5944 66.1773 60.2093 66.0863 59.9806C65.9498 60.2082 65.6534 60.4136 65.1994 60.5944C64.9275 60.6866 64.7455 60.7555 64.6545 60.7998ZM74.955 58.6853C74.8628 60.6866 74.431 62.2561 73.6585 63.3927C73.3399 63.7568 72.9525 63.8023 72.4986 63.5293C72.362 63.3927 72.1111 63.1885 71.7482 62.9155C71.5662 62.7789 71.4297 62.6657 71.3386 62.5747V65.5761C71.383 66.9402 71.2243 67.8271 70.8614 68.2367H70.7937C70.6572 68.1911 70.5661 68.2133 70.5206 68.3043C70.3386 67.9403 70.3164 67.2576 70.4529 66.2575C70.4973 66.03 70.5206 65.8479 70.5206 65.7114C70.565 65.212 70.5883 64.5748 70.5883 63.8012C70.6326 63.0742 70.656 62.4604 70.656 61.9597C70.3374 61.6867 70.132 61.3693 70.0422 61.0052H70.1099C70.2009 60.9608 70.2686 60.9375 70.3141 60.9375C70.3584 60.983 70.4273 61.0519 70.5183 61.1417C70.5626 61.1872 70.6093 61.2339 70.6548 61.2783C70.6548 60.9608 70.677 60.4836 70.7225 59.8453V58.5488C70.677 58.5488 70.5626 58.5721 70.3818 58.6165C70.2452 58.662 70.1309 58.7087 70.041 58.753C69.9955 58.753 69.9267 58.7764 69.8368 58.8207C69.3817 58.8662 69.1997 59.1171 69.2907 59.571V61.2082C69.2452 62.1628 69.0398 62.8011 68.6769 63.1185C68.2218 63.0742 68.0176 62.6412 68.0631 61.822C68.1074 61.5046 68.1308 61.0717 68.1308 60.5256C68.1751 59.9795 68.1984 59.5477 68.1984 59.2291C68.3793 57.865 68.608 57.138 68.8811 57.0458C68.9254 57.0458 68.9488 57.0691 68.9488 57.1135C68.9488 57.159 68.9254 57.2057 68.8811 57.25C68.7889 57.3422 68.7446 57.4099 68.7446 57.4542C68.7889 57.7728 68.9254 58.1135 69.1541 58.4776C69.6536 58.3411 70.1775 58.1602 70.7237 57.9315C70.7237 57.6584 70.7458 57.2267 70.7914 56.635V55.6116C70.6992 55.6116 70.5638 55.635 70.3818 55.6793H70.041C69.4494 55.6793 69.0176 55.6116 68.7446 55.4751C68.6524 55.4308 68.5403 55.3386 68.4038 55.2021C68.1763 55.111 68.0631 55.0434 68.0631 54.9978C68.699 54.9978 69.3129 54.9757 69.9045 54.9302C70.041 54.9302 70.3363 54.8858 70.7914 54.7936C71.9279 54.5661 72.7238 54.4529 73.1789 54.4529C73.5885 54.4529 73.7927 54.5894 73.7927 54.8625C73.7927 54.9547 73.6106 55.0445 73.2466 55.1355C73.2011 55.181 73.1544 55.2032 73.11 55.2032C73.0179 55.2032 72.8591 55.2487 72.6328 55.3398C72.1777 55.4763 71.8369 55.5673 71.6094 55.6128C71.6094 55.8859 71.586 56.25 71.5417 56.7039V57.7273C72.0878 57.5464 72.6328 57.4542 73.1789 57.4542C74.3178 57.5032 74.9094 57.9128 74.955 58.6853ZM71.4763 58.2757C71.4763 58.6853 71.453 59.277 71.4087 60.0495V61.7544C71.6817 61.9364 71.9991 62.0951 72.3632 62.2316C72.7261 62.4592 72.977 62.3238 73.1135 61.822C73.2944 61.4124 73.4765 60.5944 73.6597 59.3668V59.0938C73.704 58.3668 73.4776 58.0027 72.977 58.0027C72.4764 58.0027 71.9758 58.0949 71.4763 58.2757ZM83.5506 67.3486V66.939C83.5506 66.5294 83.5949 65.8713 83.6871 64.9611C83.7314 64.5982 83.7548 64.3251 83.7548 64.1431C82.9811 64.4161 82.3218 64.6658 81.7768 64.8934C81.5493 64.9389 81.2762 65.0533 80.9588 65.2341C80.8666 65.2797 80.7546 65.3018 80.6181 65.3018C80.163 65.2575 79.9121 65.1209 79.8677 64.8922C79.8677 64.7114 80.0264 64.6192 80.345 64.6192C80.3893 64.6192 80.4127 64.6425 80.4127 64.6869C80.8223 64.5503 81.4127 64.3461 82.1864 64.073C82.8691 63.8922 83.3907 63.7323 83.7559 63.5958V62.982C83.3463 63.1185 83.0499 63.1862 82.8691 63.1862C82.8236 63.1862 82.7547 63.164 82.6649 63.1185C82.5283 63.0742 82.4373 63.0275 82.3918 62.982C81.8457 62.2095 81.5738 61.5957 81.5738 61.1406C81.5738 61.004 81.6415 60.8232 81.778 60.5944C81.8223 60.5944 81.8457 60.5723 81.8457 60.5268C81.8457 60.3902 81.9133 60.3225 82.0499 60.3225C82.1409 60.3225 82.2086 60.368 82.2541 60.4591C82.2984 60.5046 82.3451 60.5268 82.3906 60.5268C82.5272 60.5268 82.708 60.4591 82.9367 60.3225C83.0278 60.2782 83.0955 60.2549 83.141 60.2549L83.414 60.1872C83.6871 60.0962 83.8458 60.0506 83.8913 60.0506V59.4368H83.7548C83.3452 59.5734 83.0266 59.6411 82.8002 59.6411C82.5272 59.6411 82.2308 59.5279 81.9134 59.3003C81.9134 59.3458 81.89 59.3458 81.8457 59.3003C81.7535 59.256 81.7535 59.1871 81.8457 59.0961C81.89 59.0518 81.9134 59.0051 81.9134 58.9596C82.0499 58.9596 82.1864 58.9152 82.3229 58.823C82.5505 58.7787 82.7325 58.7554 82.8691 58.7554C82.9601 58.7554 83.1421 58.7332 83.4152 58.6877C83.6883 58.6877 83.8691 58.6655 83.9613 58.62C83.9613 58.3026 83.938 57.984 83.8936 57.6654L83.826 57.5289C83.826 57.4846 83.9391 57.4612 84.1667 57.4612C84.3942 57.4612 84.5296 57.5756 84.5763 57.802C84.6206 57.8942 84.6206 58.075 84.5763 58.3481V58.4846C84.9859 58.3481 85.3943 58.2349 85.8039 58.1439H85.9404C86.0314 58.1894 86.077 58.3038 86.077 58.4846C86.077 58.6212 85.7584 58.8032 85.1224 59.0307C84.8493 59.1229 84.6673 59.1906 84.5763 59.235V59.8488C84.7128 59.8044 84.9392 59.7356 85.2589 59.6446C85.4398 59.6002 85.5542 59.5769 85.5997 59.5769C86.1901 59.5325 86.4632 59.8278 86.4177 60.4637C86.2812 61.0554 86.077 61.6692 85.8039 62.3052C85.7117 62.7147 85.553 62.9423 85.3266 62.9878C85.2344 62.9878 85.1446 62.9435 85.0536 62.8513C84.917 62.8069 84.8027 62.7836 84.7128 62.7836H84.5086C84.4164 62.8291 84.3487 62.8513 84.3044 62.8513V63.4651C84.8505 63.2842 85.2589 63.192 85.532 63.192H85.8039C85.9404 63.2375 86.0314 63.3519 86.077 63.5328C86.077 63.6249 85.7806 63.7148 85.1901 63.8058C84.735 63.898 84.4398 63.9657 84.3032 64.01V65.5107C84.3032 66.1023 84.2799 66.5341 84.2355 66.8072C84.19 67.2611 84.1212 67.5342 84.0313 67.6252C83.8003 67.6217 83.6404 67.5295 83.5506 67.3486ZM83.7548 56.3655C83.4362 56.593 82.9811 56.9116 82.3906 57.32C82.0721 57.5476 81.8445 57.7075 81.708 57.7973C81.1618 57.7973 80.8654 57.5021 80.8211 56.9104V56.5697C80.8654 56.4787 81.002 56.3655 81.2307 56.229C81.3672 56.1846 81.4583 56.1379 81.5038 56.0924C82.5038 55.1834 82.9589 54.433 82.8679 53.8414C82.8679 53.7971 82.8446 53.7504 82.8002 53.7049V53.6372H82.9356C82.9799 53.6372 83.253 53.7516 83.7536 53.9779C83.8901 54.2055 84.0267 54.5474 84.1632 55.0013C84.2997 54.957 84.5261 54.8426 84.8458 54.6606C84.9369 54.5696 85.0045 54.5241 85.0501 54.5241C85.3231 54.5241 85.504 54.5696 85.5962 54.6606C85.5962 54.7061 85.6184 54.8205 85.6639 55.0013C85.7082 55.0469 85.7549 55.1379 85.8004 55.2744C85.8447 55.2744 85.8681 55.2977 85.8681 55.3421L86.0723 55.2056V55.3409C86.0723 55.3864 86.049 55.523 86.0046 55.7505L85.9369 55.9547C85.8914 56.0002 85.8226 56.1589 85.7327 56.432C85.4596 57.25 85.2321 57.6596 85.0501 57.6596C84.9579 57.6596 84.8225 57.5686 84.6405 57.3865C84.595 57.3422 84.5483 57.2278 84.5039 57.0458C84.4584 57.0015 84.4363 56.9548 84.4363 56.9093C84.4363 56.7727 84.4584 56.5919 84.5039 56.3631C84.5483 56.0901 84.5716 55.9092 84.5716 55.817C84.2087 56.0924 83.9368 56.2756 83.7548 56.3655ZM82.3229 60.6633C82.3673 60.8908 82.414 61.0274 82.4595 61.0729C82.4595 61.1184 82.4817 61.1651 82.5272 61.2094C82.5272 61.437 82.5948 61.5501 82.7314 61.5501C82.8679 61.5501 83.1631 61.4825 83.6182 61.3459C83.7548 61.3016 83.8458 61.2783 83.8913 61.2783V60.6644H83.2775C83.0044 60.71 82.8002 60.7321 82.6637 60.7321H82.5272L82.3906 60.6644H82.3229V60.6633ZM83.0733 62.7101C83.1643 62.6657 83.3008 62.6191 83.4829 62.5735C83.6194 62.5292 83.7326 62.5059 83.8236 62.5059V61.8232C83.5506 61.8232 83.2098 61.8909 82.8002 62.0274C82.8446 62.2095 82.9368 62.437 83.0733 62.7101ZM84.3686 62.3682C84.4596 62.3238 84.6183 62.255 84.8458 62.164C84.9369 62.1196 85.0045 62.0963 85.0501 62.0963C85.1411 61.9597 85.2088 61.7555 85.2543 61.4825C85.1621 61.4825 85.0722 61.5058 84.9812 61.5501C84.889 61.5501 84.7992 61.5735 84.7081 61.6178C84.6626 61.6178 84.5716 61.6412 84.4351 61.6855V61.9586C84.3907 62.1418 84.3686 62.2783 84.3686 62.3682ZM85.3243 60.3225C85.1878 60.3225 85.0057 60.368 84.7782 60.4591C84.6416 60.5046 84.5506 60.5268 84.5051 60.5268C84.5051 60.7543 84.4818 60.9142 84.4374 61.004H84.574C84.847 60.913 85.0967 60.9597 85.3243 61.1406C85.4153 60.913 85.4608 60.7088 85.4608 60.5268C85.5052 60.3902 85.4608 60.3225 85.3243 60.3225ZM87.4388 56.3655C87.3933 56.411 87.3466 56.4798 87.3022 56.5697C86.8471 57.1613 86.5064 57.4566 86.2788 57.4566H86.2112C86.0746 57.5931 86.0291 57.2979 86.0746 56.5697L86.2788 56.4332C86.4154 56.3888 86.5064 56.3421 86.5519 56.2966C87.4609 55.2056 88.0969 54.069 88.4622 52.8857C88.4166 52.8414 88.37 52.818 88.3256 52.818L87.9172 53.2264C87.7352 53.272 87.5765 53.3408 87.4399 53.4307V53.363C87.4399 53.272 87.713 53.0001 88.2579 52.545L88.4622 52.3407C88.643 52.2964 88.8029 52.2731 88.9394 52.2731C89.2125 52.3652 89.3712 52.5461 89.4167 52.8192C89.2802 53.2288 88.9394 53.9103 88.3933 54.866C88.3011 55.0025 88.2334 55.0935 88.1891 55.139C89.0071 54.8216 89.6443 54.6618 90.0994 54.6618C90.3269 54.754 90.4623 54.9127 90.509 55.139C90.509 55.1845 90.4413 55.2067 90.3047 55.2067C90.0317 55.2989 89.6454 55.3666 89.1448 55.4109C88.5987 55.4564 88.1903 55.5031 87.9172 55.5475C87.7769 55.736 87.6623 55.9424 87.5765 56.1613H87.986C88.622 56.3888 89.0094 56.7529 89.146 57.2523C89.1903 57.7074 89.146 58.0027 89.0095 58.1392C88.7819 58.2314 88.5544 58.0027 88.3268 57.4566C88.0969 56.8673 87.8017 56.502 87.4388 56.3655ZM88.7352 66.0522C88.3711 66.0522 88.0526 66.03 87.7807 65.9845C86.9627 65.7569 86.5531 65.0976 86.5531 64.0065C86.5974 63.4161 86.6441 62.5059 86.6896 61.2783C86.7339 60.6878 86.7573 60.2327 86.7573 59.9141C86.7118 59.8698 86.6651 59.8231 86.6207 59.7776C86.3932 59.6411 86.28 59.5045 86.28 59.368H86.3477V59.3003C86.5752 59.3003 86.8016 59.256 87.0303 59.1638C87.0747 59.1638 87.1669 59.1194 87.3034 59.0272C88.0304 58.7098 88.5532 58.55 88.8729 58.55C89.2825 58.55 89.5089 58.823 89.5556 59.368C89.5101 59.5045 89.4412 59.7321 89.3514 60.0506C89.2148 60.5513 89.1238 60.9375 89.0783 61.2106C88.9418 62.1651 88.6454 62.8034 88.1914 63.1208L88.1238 63.1885C88.1238 63.234 88.0782 63.2562 87.9872 63.2562C87.8052 63.2119 87.6231 63.0286 87.4411 62.7101C87.3489 62.5735 87.2812 62.5059 87.2369 62.5059C87.1447 62.9155 87.1004 63.3706 87.1004 63.87C87.0548 64.688 87.3279 65.1665 87.9184 65.303C89.5999 65.5305 90.852 65.3263 91.67 64.6892C91.8066 64.4161 91.9198 63.9389 92.0108 63.2562V62.9831L91.9431 62.7789V62.7112C91.9431 62.3483 91.9874 62.1429 92.0796 62.0974C92.124 62.1429 92.1928 62.325 92.2839 62.6436C92.3749 63.0076 92.4204 63.213 92.4204 63.2574C92.6479 63.667 92.7611 64.0754 92.7611 64.485C92.7156 65.1221 92.4881 65.5317 92.0785 65.7126C90.9395 65.9845 89.8263 66.0977 88.7352 66.0522ZM87.3022 61.5501C87.3466 61.8232 87.5753 61.9597 87.9849 61.9597C88.3023 61.2771 88.531 60.4591 88.6675 59.5045V59.2315C88.3945 59.2315 88.1669 59.3236 87.9849 59.5045C87.5298 59.6866 87.3022 60.0273 87.3022 60.5279V61.5501ZM98.5573 67.2121C98.4207 67.2121 98.2387 67.1887 98.0111 67.1444C97.8291 67.0989 97.6926 67.0767 97.6015 67.0767C97.7381 67.0767 97.8058 67.0534 97.8058 67.009C97.7603 66.9635 97.5549 66.8947 97.192 66.8048L97.1243 66.8725H96.9877C96.8956 66.8725 96.8512 66.8492 96.8512 66.8048C96.9422 66.6683 97.283 66.5318 97.8746 66.3952C98.0555 66.3497 98.192 66.3276 98.2842 66.3276C98.4207 66.3276 98.6016 66.282 98.8303 66.191C99.0579 66.1467 99.2166 66.1233 99.3076 66.1233C100.945 65.0778 102.081 62.9411 102.719 59.7111C102.673 59.6667 102.626 59.62 102.582 59.5745C102.49 59.438 102.4 59.347 102.309 59.3015H102.105C101.877 59.347 101.695 59.3692 101.559 59.3692C101.466 59.4147 101.308 59.4835 101.081 59.5734C100.581 59.7554 100.217 59.8464 99.9903 59.8464C99.8082 59.8021 99.513 59.6877 99.1034 59.5057C99.0579 59.4613 99.0112 59.3925 98.9669 59.3015C98.8747 59.2105 98.807 59.1428 98.7626 59.0973C98.7171 59.0062 98.695 58.9386 98.695 58.8931C98.695 58.6655 98.9225 58.5523 99.3776 58.5523H99.5142C99.6052 58.5523 99.7639 58.5756 99.9914 58.62C100.309 58.6655 100.56 58.6655 100.742 58.62C101.015 58.5756 101.424 58.529 101.969 58.4835C102.423 58.3924 102.764 58.3469 102.993 58.3469C103.266 56.6187 103.402 55.0959 103.402 53.7761C103.402 53.5485 103.357 53.4132 103.266 53.3665H103.062V52.9545C103.062 52.9102 103.153 52.818 103.335 52.6815L103.402 52.6138C103.447 52.6138 103.539 52.6371 103.675 52.6815C103.993 52.6815 104.175 52.7492 104.222 52.8857V53.4318C104.129 54.6594 103.971 56.2523 103.744 58.2069C104.699 58.0704 105.631 57.9572 106.541 57.8662C107.314 57.8662 107.701 58.0482 107.701 58.4123C107.656 58.5943 107.405 58.7308 106.951 58.8219C105.904 58.8219 104.813 58.9141 103.677 59.0949C103.631 59.1871 103.609 59.3225 103.609 59.5045C103.609 59.6411 103.677 59.8231 103.813 60.0506C105.358 62.3705 106.951 63.9167 108.588 64.6892C109.725 65.0533 110.839 65.5072 111.93 66.0533C112.067 66.0988 112.134 66.1455 112.134 66.1899C112.134 66.2809 112.067 66.3264 111.93 66.3264C111.93 66.3707 111.907 66.3941 111.863 66.3941C111.817 66.3941 111.748 66.4162 111.658 66.4618H111.591C111.545 66.4162 111.499 66.3941 111.454 66.3941C111.409 66.3941 111.362 66.4162 111.318 66.4618C111.272 66.5061 111.225 66.5294 111.181 66.5294C111.045 66.5294 110.885 66.4839 110.704 66.3929C110.567 66.3474 110.476 66.3252 110.431 66.3252C110.294 66.2797 110.067 66.2575 109.748 66.2575C108.974 66.212 108.452 66.0988 108.179 65.9168C106.632 65.0078 105.041 63.2562 103.404 60.6644C102.586 64.3484 101.22 66.5073 99.3111 67.1444C99.08 67.1887 98.8303 67.2121 98.5573 67.2121ZM115.133 60.6633C115.088 60.4357 115.407 59.9129 116.088 59.0938C116.132 59.0494 116.201 58.9572 116.292 58.8207C116.52 58.4111 116.679 58.2069 116.77 58.2069H116.837C116.974 58.48 117.041 58.6842 117.041 58.8207C117.178 58.7764 117.359 58.7297 117.588 58.6842C117.861 58.6398 118.041 58.6165 118.134 58.6165C117.952 58.3434 117.861 57.8218 117.861 57.047C117.861 56.3643 117.746 55.8194 117.52 55.4098C117.52 55.3654 117.474 55.2966 117.383 55.2056C117.247 54.9325 117.179 54.7283 117.179 54.5917V54.4552H117.383C118.019 54.5474 118.451 54.7283 118.68 55.0013C118.953 55.5475 119.066 56.411 119.021 57.5931V58.48C119.065 58.48 119.134 58.4578 119.225 58.4123H119.429C119.383 58.1847 119.361 58.026 119.361 57.935C119.452 57.7541 119.452 56.7529 119.361 54.9337C119.316 54.251 119.294 53.7061 119.294 53.2965C119.294 53.2521 119.248 53.2054 119.157 53.1599H119.089C119.044 53.1599 119.022 53.1833 119.022 53.2276C118.885 53.2731 118.794 53.2509 118.749 53.1599C118.749 53.1156 118.793 53.0234 118.885 52.8869C119.203 52.524 119.544 52.4773 119.909 52.7503C120.089 52.9779 120.158 53.2731 120.113 53.6372C120.386 53.6372 120.659 53.7049 120.931 53.8414C121.204 53.4318 121.385 53.0911 121.477 52.818C121.477 52.6815 121.385 52.6138 121.204 52.6138C121.204 52.5695 121.295 52.5228 121.477 52.4773H121.545C121.954 52.4329 122.158 52.5006 122.158 52.6815C122.158 52.909 122.113 53.1366 122.022 53.3641C121.846 53.6268 121.687 53.9 121.545 54.1822C121.589 54.2277 121.658 54.2743 121.749 54.3187C121.885 54.4109 121.999 54.5007 122.09 54.5917C122.134 54.6373 122.181 54.6839 122.226 54.7283C122.407 54.8205 122.499 54.9103 122.499 55.0013C123.09 55.0013 123.499 55.0247 123.727 55.069C123.863 54.7061 123.931 54.342 123.931 53.9779C123.931 53.9336 123.749 53.8869 123.385 53.8414C122.884 53.8414 122.635 53.7971 122.635 53.7049V53.6372C123.134 53.4563 123.612 53.3641 124.068 53.3641C124.521 53.4097 124.772 53.6605 124.818 54.1145C124.818 54.16 124.772 54.2965 124.681 54.5241C124.636 54.7061 124.589 54.8426 124.545 54.9337C124.453 55.2522 124.317 55.7295 124.135 56.3666C123.953 57.0038 123.794 57.5044 123.658 57.8673C125.295 57.8673 126.319 58.1637 126.728 58.7542C126.728 58.7997 126.75 58.8464 126.796 58.8907C126.932 59.0728 127 59.2548 127 59.4368C127 59.6189 126.932 59.7776 126.796 59.9141C126.75 60.0063 126.545 60.0506 126.182 60.0506L126.045 59.983H125.841C125.705 59.983 125.477 60.0063 125.159 60.0506C124.886 60.0962 124.658 60.1183 124.476 60.1183C124.43 60.1183 124.339 60.0962 124.203 60.0506C124.111 60.0063 124.021 59.983 123.93 59.983C123.838 60.0285 123.815 60.0285 123.862 59.983C123.906 59.8919 124.203 59.7099 124.749 59.4368C125.295 59.1194 125.544 58.9374 125.499 58.8907C125.226 58.4368 124.545 58.2769 123.453 58.4134L123.388 58.48C123.161 58.7985 122.955 59.0027 122.775 59.0938H122.501C122.456 59.0938 122.434 59.0494 122.434 58.9572V58.8207C122.478 58.5931 122.434 58.48 122.297 58.48C121.479 58.5255 120.751 58.6165 120.114 58.753C120.068 58.8895 120 58.9806 119.91 59.0261C119.818 59.0261 119.728 58.9584 119.637 58.8219C119.455 58.8674 119.159 58.9141 118.75 58.9584C117.976 59.0949 117.386 59.1859 116.976 59.2315C116.43 60.5046 115.929 61.1872 115.475 61.2783C115.247 61.2327 115.133 61.0274 115.133 60.6633ZM124.206 62.3682C123.615 62.2771 123.296 62.2316 123.252 62.2316H121.888C122.251 64.2329 122.183 65.9611 121.683 67.4163C121.501 67.7337 121.137 68.0068 120.592 68.2343C120.183 68.1421 119.728 67.9834 119.228 67.757C119.001 67.6649 118.864 67.5972 118.819 67.5528C118.728 67.5073 118.614 67.4163 118.478 67.2798C118.387 67.1432 118.318 67.0756 118.274 67.0756C118.228 67.03 118.206 66.9834 118.206 66.939C118.161 66.8935 118.138 66.8468 118.138 66.8025C118.093 66.8025 118.002 66.7348 117.865 66.5983V66.5306H117.933C119.161 66.8935 120.07 67.0534 120.661 67.0079C120.979 67.0079 121.23 66.7348 121.412 66.1899C121.774 65.0988 121.774 63.8023 121.412 62.3016C119.911 62.4837 118.888 62.7112 118.341 62.9843C118.068 63.1208 117.635 63.1885 117.045 63.1885C116.772 63.1442 116.568 63.052 116.431 62.9155C116.431 62.8711 116.475 62.8478 116.568 62.8478C116.659 62.8034 116.726 62.7801 116.772 62.7801C117.226 62.5525 118.045 62.3483 119.227 62.1663C119.318 62.1663 119.455 62.1441 119.637 62.0986C120.136 62.0076 120.682 61.9177 121.274 61.8255C121.228 61.7345 121.182 61.6447 121.137 61.5525C121.092 61.5081 121.07 61.4615 121.07 61.416H121.002C120.91 61.416 120.865 61.4393 120.865 61.4836H120.798C120.798 61.4393 120.774 61.416 120.73 61.416C120.867 61.3716 120.911 61.3028 120.867 61.2117C120.774 60.9387 120.57 60.7345 120.253 60.5979C120.207 60.5536 120.161 60.5303 120.116 60.5303C120.071 60.5303 120.049 60.4626 120.049 60.326C119.956 60.3715 119.821 60.4404 119.639 60.5303C119.366 60.7123 119.184 60.8033 119.093 60.8033C118.774 60.8033 118.638 60.5991 118.683 60.1895C118.82 59.7356 119.046 59.417 119.366 59.235C119.366 59.2805 119.41 59.3271 119.502 59.3715C119.547 59.417 119.57 59.4637 119.57 59.508C119.57 59.5535 119.547 59.6002 119.502 59.6446V59.7122C119.502 59.8488 119.57 59.9164 119.707 59.9164C119.934 59.9164 120.229 59.8488 120.594 59.7122C120.821 59.6212 120.98 59.5535 121.071 59.508C121.162 59.508 121.298 59.4637 121.48 59.3715C122.116 59.235 122.617 59.1673 122.981 59.1673H123.322C123.503 59.2128 123.595 59.3493 123.595 59.5769V59.7134C123.686 59.7589 123.686 59.8499 123.595 59.9865C122.958 60.5781 122.321 61.0099 121.685 61.2829C121.685 61.3284 121.707 61.3973 121.752 61.4871V61.6913C122.435 61.647 123.071 61.6237 123.663 61.6237C124.253 61.7602 124.594 61.9201 124.686 62.1009C124.684 62.2328 124.524 62.3238 124.206 62.3682ZM120.114 54.0468V55.0702C120.158 55.0258 120.205 54.957 120.25 54.866C120.295 54.775 120.409 54.6163 120.591 54.3887C120.546 54.3444 120.477 54.2755 120.387 54.1845C120.25 54.1378 120.158 54.0923 120.114 54.0468ZM120.182 57.3889C120.363 57.2979 120.591 57.0936 120.864 56.7751C120.591 56.3211 120.364 56.0924 120.182 56.0924V57.3889ZM120.25 58.1392V58.2757C120.75 58.1847 121.228 58.117 121.683 58.0715L121.41 57.5254C121.365 57.3889 121.318 57.2979 121.274 57.2523C120.954 57.6619 120.613 57.9583 120.25 58.1392ZM121.682 55.1379C121.682 55.0469 121.5 54.9103 121.136 54.7283C120.863 55.0469 120.59 55.3876 120.318 55.7517C120.681 55.8439 121.001 56.0026 121.273 56.229C121.546 55.775 121.682 55.4109 121.682 55.1379ZM120.728 59.9129C120.682 59.9129 120.66 59.9363 120.66 59.9806C120.615 59.9806 120.568 60.004 120.524 60.0483C120.431 60.0938 120.364 60.1405 120.319 60.1848C120.955 60.5034 121.274 60.7076 121.274 60.7986C121.957 60.3447 122.41 59.9118 122.638 59.5022C122.136 59.459 121.5 59.5955 120.728 59.9129ZM120.728 59.9806V59.9129C120.728 59.9585 120.704 59.9806 120.66 59.9806H120.728ZM122.501 55.2056C122.456 55.5241 122.205 56.0014 121.751 56.6385C122.114 57.0481 122.297 57.5032 122.297 58.0027H122.775C123.002 57.6398 123.137 57.32 123.184 57.0481C123.139 57.0038 123.048 56.9805 122.911 56.9805C122.41 56.8439 122.161 56.6397 122.161 56.3666C122.161 56.2301 122.228 56.1858 122.365 56.2301C122.365 56.3666 122.593 56.4343 123.048 56.4343H123.321C123.457 56.1169 123.548 55.8439 123.594 55.6163H122.98L122.912 55.684L122.98 55.5475V55.4798C122.888 55.3888 122.728 55.2977 122.501 55.2056ZM121.888 60.7998L121.82 60.8675H121.888V60.7998ZM121.955 60.6633H121.888C121.932 60.7088 121.955 60.7088 121.955 60.6633ZM122.775 55.8205L122.842 55.7528C122.842 55.7972 122.819 55.8205 122.775 55.8205Z" fill="#B60903"/>
<path d="M41.3696 72.902C40.9226 72.9697 40.8993 73.0689 40.8993 73.4026V74.0853C40.8993 74.3502 40.9063 74.5777 40.967 74.7294C40.4734 74.8508 39.8292 75.041 39.2072 75.041C37.5537 75.041 36.3856 74.0398 36.3856 72.5986C36.3856 70.9369 37.7894 70.0652 39.2831 70.0652C39.9284 70.0652 40.5037 70.1948 40.7616 70.2706C40.7849 70.49 40.8223 70.9229 40.8911 71.3932L40.7698 71.4084C40.5189 70.4527 39.9284 70.2473 39.1466 70.2473C37.6902 70.2473 36.9236 71.0886 36.9236 72.4924C36.9236 73.5543 37.5304 74.852 39.2072 74.852C39.6098 74.852 39.9506 74.8065 40.1781 74.7306C40.4057 74.6548 40.4967 74.5486 40.4967 74.2148V73.5543C40.4967 73.0922 40.4582 72.9627 39.5935 72.902V72.7958H41.3684V72.902H41.3696ZM42.666 73.706C42.666 74.4646 43.0301 74.6618 43.4549 74.6618C43.7583 74.6618 44.1224 74.5101 44.4409 74.1915V72.5228C44.4409 72.0758 44.3347 72.0443 44.0617 71.9918L43.7734 71.9463V71.8635C44.099 71.8553 44.6148 71.7806 44.805 71.7269V74.1997C44.805 74.5789 44.8879 74.6174 45.1843 74.6396L45.4118 74.6548V74.761C45.1002 74.7983 44.7747 74.9127 44.4783 75.0188L44.4398 74.9803V74.3969C44.2425 74.5404 44.0535 74.7084 43.7874 74.8438C43.5681 74.9722 43.4082 75.0107 43.211 75.0107C42.7559 75.0107 42.3008 74.7761 42.3008 73.9336V72.5298C42.3008 72.0828 42.1864 72.0443 42.0277 71.9988L41.785 71.9452V71.8693C41.96 71.8541 42.5213 71.7631 42.6882 71.7258C42.666 71.8775 42.666 72.1435 42.666 72.7118V73.706ZM45.707 74.8216C46.1925 74.7831 46.2683 74.6851 46.2683 74.2452V72.6663C46.2683 72.1809 46.2147 72.1435 45.7829 72.0677V71.9697C46.1015 71.902 46.3442 71.818 46.6324 71.6663V74.2452C46.6324 74.6851 46.7083 74.7843 47.2019 74.8216V74.9278H45.707V74.8216ZM46.7468 70.315C46.7468 70.4748 46.6184 70.6184 46.4585 70.6184C46.3068 70.6184 46.1703 70.4737 46.1703 70.315C46.1703 70.1329 46.3068 69.9964 46.4585 69.9964C46.6336 69.9964 46.7468 70.1562 46.7468 70.315ZM47.9604 71.6347C47.9989 71.7409 48.0969 71.7794 48.3933 71.7713H50.153L50.1834 71.8541C49.4856 72.8028 48.7574 73.7656 48.1051 74.7598H49.076C49.6758 74.7598 49.8123 74.5847 50.2371 74.0235L50.3433 74.0911C50.2756 74.2883 50.153 74.5917 50.0177 74.9255H47.552L47.5368 74.8648C48.2579 73.9161 48.9476 72.9382 49.6081 71.937H48.8262C48.2043 71.937 48.0829 72.1272 47.7492 72.6651L47.6278 72.6278C47.6955 72.4073 47.8098 71.9148 47.8705 71.6266L47.9604 71.6347ZM50.5393 74.8216C51.0014 74.7913 51.0854 74.6769 51.0854 74.2078V70.6429C51.0854 70.1656 51.0399 70.1352 50.516 70.0361V69.9532C50.8579 69.8925 51.2441 69.7782 51.4495 69.6953V72.2742C51.7529 71.9557 52.1847 71.6908 52.6328 71.6908C53.2174 71.6908 53.6492 72.07 53.6492 72.9429V74.2102C53.6492 74.6874 53.732 74.7936 54.1953 74.824V74.9302H52.7086V74.824C53.2174 74.7936 53.2851 74.6793 53.2851 74.1635V73.1238C53.2851 72.4108 53.0727 72.0315 52.3515 72.0315C51.9945 72.0548 51.6607 72.2065 51.4483 72.4714V74.1635C51.4483 74.6793 51.5242 74.7936 52.047 74.824V74.9302H50.5451L50.5393 74.8216ZM57.9878 73.2895C57.9878 74.4342 57.0473 75.0107 56.3191 75.0107C55.3179 75.0107 54.6352 74.2522 54.6352 73.426C54.6352 72.1972 55.6668 71.6884 56.3039 71.6884C57.2596 71.6884 57.9878 72.4084 57.9878 73.2895ZM55.1125 73.1751C55.1125 74.146 55.6213 74.8368 56.4253 74.8368C57.0624 74.8368 57.5257 74.4272 57.5257 73.4026C57.5257 72.6663 57.0788 71.8705 56.2362 71.8705C55.5373 71.8705 55.1125 72.4166 55.1125 73.1751ZM59.4056 73.706C59.4056 74.4646 59.7697 74.6618 60.1945 74.6618C60.4979 74.6618 60.862 74.5101 61.1805 74.1915V72.5228C61.1805 72.0758 61.0743 72.0443 60.8013 71.9918L60.513 71.9463V71.8635C60.8386 71.8553 61.3544 71.7806 61.5446 71.7269V74.1997C61.5446 74.5789 61.6275 74.6174 61.9239 74.6396L62.1514 74.6548V74.761C61.8398 74.7983 61.5143 74.9127 61.2179 75.0188L61.1794 74.9803V74.3969C60.9821 74.5404 60.7931 74.7084 60.527 74.8438C60.3077 74.9722 60.1478 75.0107 59.9506 75.0107C59.4955 75.0107 59.0404 74.7761 59.0404 73.9336V72.5298C59.0404 72.0828 58.926 72.0443 58.7673 71.9988L58.5246 71.9452V71.8693C58.6996 71.8541 59.2609 71.7631 59.4278 71.7258C59.4056 71.8775 59.4056 72.1435 59.4056 72.7118V73.706ZM64.0325 74.8216C64.4806 74.7913 64.693 74.6396 64.7537 74.4272C64.8143 74.1997 64.8365 73.7819 64.8365 73.0164V71.3699C64.8365 70.6942 64.798 70.7327 64.6615 70.5658C64.5331 70.4141 64.3732 70.3301 63.9706 70.2846V70.1784H64.9042L68.4085 74.1833H68.4318V72.021C68.4318 70.5413 68.4237 70.3441 67.5368 70.2834V70.1773H69.4179V70.2834C68.9779 70.322 68.7877 70.4655 68.7201 70.686C68.6524 70.9206 68.6442 71.308 68.6442 72.021V74.9792H68.5614L65.0641 70.9964H65.0489V73.0141C65.0559 73.7807 65.0641 74.1973 65.1166 74.4097C65.1843 74.6443 65.413 74.7808 65.9206 74.8193V74.9255H64.0313V74.8216H64.0325ZM73.2034 73.2895C73.2034 74.4342 72.2628 75.0107 71.5347 75.0107C70.5335 75.0107 69.8508 74.2522 69.8508 73.426C69.8508 72.1972 70.8824 71.6884 71.5195 71.6884C72.4752 71.6884 73.2034 72.4084 73.2034 73.2895ZM70.3281 73.1751C70.3281 74.146 70.8369 74.8368 71.6409 74.8368C72.278 74.8368 72.7413 74.4272 72.7413 73.4026C72.7413 72.6663 72.2944 71.8705 71.4518 71.8705C70.7528 71.8705 70.3281 72.4166 70.3281 73.1751ZM73.7647 74.8216C74.2268 74.7913 74.3038 74.6851 74.3038 74.2078V72.7212C74.3038 72.1669 74.2501 72.1225 73.7799 72.0688V71.9778C74.0914 71.9171 74.3948 71.8261 74.6679 71.6593V72.5846H74.6831C74.8651 72.175 75.2747 71.6896 75.6458 71.6896C75.8733 71.6896 76.018 71.8868 76.018 72.0082C76.018 72.1529 75.8663 72.2894 75.752 72.2894C75.7216 72.2894 75.6983 72.2824 75.6843 72.2509C75.5711 72.1447 75.5092 72.0922 75.3657 72.0922C75.1603 72.0922 74.8651 72.4329 74.6679 72.9872V74.2242C74.6679 74.6944 74.7356 74.7936 75.3435 74.8228V74.929H73.7659V74.8216H73.7647ZM76.2222 74.8216C76.7684 74.7831 76.8676 74.6769 76.8676 74.1997V72.7048C76.8676 72.196 76.8372 72.1657 76.3669 72.0758V71.9767C76.6855 71.909 76.9971 71.8331 77.2398 71.6581V72.2719C78.0205 71.7258 78.2259 71.6884 78.4452 71.6884C78.7265 71.6884 79.0906 71.9008 79.2423 72.3022C80.1303 71.7106 80.3497 71.6884 80.5014 71.6884C81.0557 71.6884 81.4197 72.0758 81.4197 72.6068V74.1623C81.4197 74.7166 81.4956 74.7925 81.9507 74.8228V74.929H80.4104V74.8228C80.9413 74.7925 81.0545 74.6944 81.0545 74.1471V72.9639C81.0545 72.4866 80.9331 72.0233 80.2657 72.0233C79.9471 72.0385 79.6052 72.2357 79.3018 72.4633C79.3099 72.5695 79.3251 72.6535 79.3251 72.699V74.1623C79.3251 74.6781 79.408 74.7925 79.8561 74.8228V74.929H78.3005V74.8228C78.87 74.7925 78.961 74.6781 78.961 74.1623V72.9335C78.961 72.4399 78.8163 72.0233 78.157 72.0233C77.7999 72.0233 77.4744 72.2882 77.2316 72.4703V74.1623C77.2316 74.6781 77.3075 74.7925 77.7252 74.8228V74.929H76.2234V74.8216H76.2222ZM84.6031 75.0107C84.588 75.0107 84.4363 74.95 84.3604 74.8741C84.2694 74.7761 84.239 74.6839 84.1935 74.5182C83.8971 74.7458 83.5564 75.0107 83.2752 75.0107C82.7512 75.0107 82.3953 74.6163 82.3953 74.146C82.3953 73.8052 82.6298 73.5625 83.1538 73.4026C83.5412 73.2895 84.0185 73.1062 84.1935 73.0001C84.1935 72.629 84.1865 71.9685 83.5027 71.9685C83.3814 71.9755 82.9718 72.0058 82.8422 72.6126C82.8271 72.6663 82.7815 72.7422 82.6754 72.7422C82.5692 72.7422 82.4478 72.636 82.4478 72.4843C82.4478 72.3699 82.5388 72.2801 82.6602 72.2112C82.8504 72.0817 83.358 71.7713 83.7303 71.6873C84.1013 71.6873 84.5716 71.93 84.5716 72.5975V74.2288C84.5716 74.5404 84.686 74.6618 84.8447 74.6618C84.973 74.6618 85.0944 74.6163 85.1784 74.5637L85.2461 74.6933L84.6031 75.0107ZM84.1935 73.1903C84.0337 73.2813 83.5564 73.4633 83.3895 73.5322C83.0476 73.6605 82.8434 73.8052 82.8434 74.0865C82.8434 74.4809 83.162 74.6851 83.435 74.6851C83.6929 74.6851 84.0337 74.4949 84.1935 74.2977V73.1903ZM85.385 74.8216C85.8704 74.7913 85.9463 74.6851 85.9463 74.2148V70.665C85.9463 70.1411 85.8856 70.0886 85.4001 70.0431V69.952C85.7724 69.9065 86.182 69.77 86.3103 69.6941V74.2148C86.3103 74.6851 86.378 74.7913 86.8798 74.8216V74.9278H85.385V74.8216ZM93.3341 72.4388C93.3341 73.3875 93.2046 74.0013 92.7343 74.4867C92.4005 74.8205 91.8778 75.0177 91.3456 75.0177C90.8987 75.0177 90.4588 74.9185 90.1099 74.6384C89.7154 74.3199 89.5101 73.8496 89.5101 72.9919V71.0723C89.5101 70.42 89.4494 70.3441 88.7749 70.2834V70.1773H90.6035V70.2834C89.9582 70.2986 89.9057 70.4655 89.9057 71.0723V72.7562C89.9057 74.0993 90.5195 74.6909 91.544 74.6909C92.7121 74.6909 93.1217 73.7959 93.1299 72.4761V72.0747C93.1299 71.2473 93.1217 70.9369 93.0692 70.7094C93.0155 70.4667 92.781 70.3383 92.25 70.2846V70.1784H94.1159V70.2846C93.6982 70.3301 93.4484 70.4667 93.4099 70.7024C93.3726 70.9369 93.3341 71.2415 93.3341 72.0758V72.4388ZM94.494 74.8216C94.934 74.7913 95.0553 74.6769 95.0553 74.223V72.6978C95.0553 72.189 95.0016 72.1587 94.5769 72.0758V71.9767C94.8803 71.9008 95.1837 71.8331 95.4194 71.6581V72.2871C95.5711 72.196 95.7601 72.0595 95.9958 71.9008C96.2082 71.7713 96.3984 71.6884 96.6097 71.6884C97.2398 71.6884 97.5957 72.0758 97.5957 72.6745V74.1845C97.5957 74.7154 97.6634 74.7913 98.0893 74.8216V74.9278H96.6248V74.8216C97.1406 74.7913 97.2316 74.6851 97.2316 74.1845V72.9405C97.2316 72.5076 97.1103 72.0222 96.4125 72.0222C96.0402 72.0222 95.6539 72.2497 95.4182 72.4843V74.1915C95.4182 74.6769 95.4941 74.7913 96.0169 74.8216V74.9278H94.4917V74.8216H94.494ZM98.4908 74.8216C98.9762 74.7831 99.052 74.6851 99.052 74.2452V72.6663C99.052 72.1809 98.9984 72.1435 98.5666 72.0677V71.9697C98.8852 71.902 99.1279 71.818 99.4161 71.6663V74.2452C99.4161 74.6851 99.492 74.7843 99.9856 74.8216V74.9278H98.4908V74.8216ZM99.5305 70.315C99.5305 70.4748 99.4021 70.6184 99.2422 70.6184C99.0906 70.6184 98.954 70.4737 98.954 70.315C98.954 70.1329 99.0906 69.9964 99.2422 69.9964C99.4161 69.9964 99.5305 70.1562 99.5305 70.315ZM103.694 71.8775C103.276 71.9452 103.224 72.014 102.958 72.4994C102.723 72.9394 102.245 73.9488 101.805 75.0107H101.683C101.395 74.1612 101.053 73.3035 100.743 72.5076C100.539 72.0222 100.507 71.9463 100.038 71.8775V71.7713H101.419V71.8775C101.146 71.9312 101.031 71.9603 101.031 72.105C101.031 72.1809 101.061 72.2801 101.122 72.4306C101.282 72.8484 101.599 73.7586 101.857 74.3875C102.169 73.7352 102.768 72.4003 102.768 72.1494C102.768 71.9743 102.638 71.9218 102.35 71.8763V71.7701H103.693V71.8775H103.694ZM106.394 74.3514C105.947 74.8671 105.43 75.0118 105.257 75.0118C104.362 75.0118 103.807 74.2989 103.807 73.4948C103.807 72.3793 104.717 71.6896 105.332 71.6896C105.985 71.6896 106.455 72.2205 106.455 72.7597C106.455 72.9114 106.448 72.9347 106.327 72.9569C106.205 72.9791 105.234 73.0631 104.188 73.0934C104.18 74.2463 104.87 74.6559 105.393 74.6559C105.651 74.6559 105.924 74.6022 106.312 74.2382L106.394 74.3514ZM104.233 72.8495C104.408 72.8495 105.477 72.8344 105.804 72.8262C105.994 72.8262 105.994 72.7503 105.994 72.7048C105.994 72.2801 105.676 71.9008 105.129 71.9008C104.749 71.9008 104.346 72.2346 104.233 72.8495ZM106.903 74.8216C107.365 74.7913 107.442 74.6851 107.442 74.2078V72.7212C107.442 72.1669 107.389 72.1225 106.918 72.0688V71.9778C107.23 71.9171 107.533 71.8261 107.806 71.6593V72.5846H107.822C108.004 72.175 108.413 71.6896 108.784 71.6896C109.012 71.6896 109.156 71.8868 109.156 72.0082C109.156 72.1529 109.005 72.2894 108.89 72.2894C108.86 72.2894 108.837 72.2824 108.823 72.2509C108.71 72.1447 108.648 72.0922 108.504 72.0922C108.299 72.0922 108.004 72.4329 107.806 72.9872V74.2242C107.806 74.6944 107.874 74.7936 108.482 74.8228V74.929H106.904V74.8216H106.903ZM109.626 73.8951C109.769 74.3805 110.111 74.8438 110.574 74.8438C110.893 74.8438 111.181 74.6618 111.181 74.244C111.181 73.8426 110.923 73.6454 110.551 73.4937C110.074 73.3116 109.649 73.0607 109.649 72.5835C109.649 72.1132 110.074 71.6803 110.733 71.6884C111.006 71.6884 111.188 71.7491 111.325 71.8098C111.378 71.9848 111.446 72.3641 111.468 72.5765L111.362 72.622C111.232 72.2427 110.952 71.8553 110.565 71.8553C110.193 71.8553 110.004 72.1132 110.004 72.4166C110.004 72.7877 110.376 72.9709 110.679 73.0922C111.21 73.2965 111.583 73.5695 111.583 74.0631C111.583 74.6699 111.028 75.0118 110.445 75.0118C110.05 75.0118 109.732 74.8753 109.626 74.7621C109.572 74.6408 109.535 74.1775 109.511 73.9348L109.626 73.8951ZM111.992 74.8216C112.478 74.7831 112.553 74.6851 112.553 74.2452V72.6663C112.553 72.1809 112.5 72.1435 112.068 72.0677V71.9697C112.387 71.902 112.629 71.818 112.918 71.6663V74.2452C112.918 74.6851 112.993 74.7843 113.487 74.8216V74.9278H111.992V74.8216ZM113.032 70.315C113.032 70.4748 112.903 70.6184 112.744 70.6184C112.592 70.6184 112.455 70.4737 112.455 70.315C112.455 70.1329 112.592 69.9964 112.744 69.9964C112.917 69.9964 113.032 70.1562 113.032 70.315ZM115.269 74.9278C115.132 75.0037 115.048 75.0107 114.957 75.0107C114.533 75.0107 114.327 74.7073 114.327 74.1915V72.014H113.781L113.759 71.9312L113.963 71.7713H114.327V71.3535L114.585 70.8377L114.691 70.8296V71.7701H115.601C115.617 71.8005 115.624 71.8308 115.624 71.8611C115.624 71.9148 115.601 71.9673 115.548 72.0128H114.69V73.9849C114.69 74.5999 114.894 74.7283 115.145 74.7283C115.403 74.7283 115.585 74.6221 115.669 74.5766L115.73 74.6909L115.269 74.9278ZM115.687 71.7713H117.075V71.8775C116.809 71.9312 116.681 71.9755 116.681 72.1272C116.681 72.1727 116.696 72.2416 116.733 72.3174L117.553 74.335C117.667 74.1005 118.402 72.545 118.402 72.1657C118.402 71.9685 118.274 71.923 117.962 71.8775V71.7713H119.381V71.8775C118.956 71.9312 118.926 72.0222 118.69 72.4236C118.463 72.811 118.19 73.433 117.56 74.7294C117.005 75.8672 116.801 76.3001 116.695 76.7016C116.656 76.8147 116.573 76.8533 116.474 76.8533C116.292 76.8533 116.134 76.7016 116.134 76.5417C116.134 76.4355 116.216 76.3818 116.324 76.306C116.878 75.9267 117.257 74.9255 117.257 74.8426C117.257 74.7516 116.81 73.4995 116.377 72.4528C116.211 72.0653 116.158 71.9522 115.687 71.8763V71.7713Z" fill="#B60903"/>
</g>
<defs>
<filter id="filter0_d_192_905" x="0" y="0" width="154" height="157" filterUnits="userSpaceOnUse" color-interpolation-filters="sRGB">
<feFlood flood-opacity="0" result="BackgroundImageFix"/>
<feColorMatrix in="SourceAlpha" type="matrix" values="0 0 0 0 0 0 0 0 0 0 0 0 0 0 0 0 0 0 127 0" result="hardAlpha"/>
<feOffset dy="16"/>
<feGaussianBlur stdDeviation="6.5"/>
<feColorMatrix type="matrix" values="0 0 0 0 0 0 0 0 0 0 0 0 0 0 0 0 0 0 0.03 0"/>
<feBlend mode="normal" in2="BackgroundImageFix" result="effect1_dropShadow_192_905"/>
<feBlend mode="normal" in="SourceGraphic" in2="effect1_dropShadow_192_905" result="shape"/>
</filter>
</defs>
</svg>
