<svg width="154" height="157" viewBox="0 0 154 157" fill="none" xmlns="http://www.w3.org/2000/svg">
<g filter="url(#filter0_d_185_298)">
<rect width="128" height="128" transform="translate(13)" fill="white"/>
<path fill-rule="evenodd" clip-rule="evenodd" d="M39.8037 51.0017C46.8551 51.0017 52.6075 56.7523 52.6075 63.8036C52.6075 70.855 46.8569 76.6074 39.8037 76.6074C32.7506 76.6074 27 70.8568 27 63.8055C27 56.7523 32.7506 51.0017 39.8037 51.0017ZM39.8037 51.3703C32.9565 51.3703 27.3704 56.9564 27.3704 63.8036C27.3704 70.6527 32.9565 76.237 39.8037 76.237C46.6528 76.237 52.2371 70.6509 52.2371 63.8036C52.2371 56.9564 46.651 51.3703 39.8037 51.3703Z" fill="#A4130E"/>
<path fill-rule="evenodd" clip-rule="evenodd" d="M39.8038 51.8382C46.3944 51.8382 51.7692 57.213 51.7692 63.8036C51.7692 70.3943 46.3944 75.7691 39.8038 75.7691C33.2131 75.7691 27.8383 70.3943 27.8383 63.8036C27.8365 57.2148 33.2131 51.8382 39.8038 51.8382ZM33.4534 55.4569C33.4317 55.484 33.4082 55.5111 33.3847 55.5382C33.3992 55.5599 33.4136 55.5816 33.4263 55.605C33.4462 55.5924 33.4642 55.5797 33.4841 55.5653C33.5184 55.5382 33.5509 55.5093 33.5835 55.4804C33.5961 55.4695 33.6088 55.4587 33.6214 55.4479C33.6485 55.4713 33.6467 55.5147 33.6431 55.5454L33.6377 55.5761C33.6341 55.5924 33.6286 55.6105 33.625 55.6267C33.607 55.6845 33.5853 55.7387 33.5636 55.7947C33.56 55.8056 33.5546 55.8164 33.5509 55.8273L33.5202 55.802C33.5022 55.7893 33.4859 55.7785 33.4678 55.7676L33.4299 55.7478C33.41 55.7387 33.392 55.7297 33.3721 55.7225C33.3522 55.7152 33.3323 55.708 33.3125 55.7026C33.2854 55.6954 33.2583 55.6881 33.2312 55.6827C33.2041 55.6773 33.177 55.6719 33.1481 55.6683C33.1065 55.6629 33.0668 55.6592 33.0252 55.6574C32.9837 55.6556 32.9421 55.6556 32.9006 55.6556L33.3847 56.1525C33.4046 56.1488 33.4245 56.1452 33.4444 56.1398L33.4823 56.1272C33.4931 56.1235 33.504 56.1181 33.5148 56.1127L33.5419 56.0946L33.5564 56.0802C33.5636 56.073 33.569 56.0639 33.5744 56.0549L33.5835 56.0368C33.5871 56.0278 33.5907 56.017 33.5925 56.0079C33.5979 55.9772 33.5997 55.9447 33.5997 55.914C33.616 55.914 33.6322 55.914 33.6485 55.914C33.6828 55.8598 33.719 55.8074 33.7533 55.7532C33.7587 55.7586 33.7623 55.7658 33.7677 55.7713C33.7985 55.8182 33.8183 55.8706 33.8382 55.9212C33.8508 55.9537 33.8617 55.988 33.8761 56.0206C33.7334 56.2952 33.5907 56.568 33.4534 56.8444C33.3811 56.9889 33.3107 57.1353 33.242 57.2816C33.2276 57.3033 33.2113 57.3232 33.1914 57.3412C33.1806 57.3521 33.1679 57.3629 33.1571 57.3738C33.1282 57.399 33.0975 57.4225 33.0704 57.4496C33.0595 57.4605 33.0487 57.4731 33.0379 57.4858L33.0704 57.5327L33.0921 57.5562L33.1137 57.5761L33.1372 57.5905L33.1625 57.5996L33.1878 57.6032L33.2113 57.6014L33.2348 57.5942L33.2565 57.5833L33.2763 57.5689L33.2944 57.5508L33.3125 57.5309L33.3287 57.5093L33.345 57.4858L33.3612 57.4605L33.3757 57.4334L33.4028 57.3774C33.4154 57.3485 33.4281 57.3196 33.4407 57.2906L33.4624 57.2346C33.4805 57.1804 33.4986 57.128 33.5148 57.072C33.5582 56.9709 33.5961 56.8697 33.6359 56.7667C33.6666 56.6872 33.6973 56.6095 33.7316 56.5319C33.7515 56.4885 33.7714 56.4451 33.7912 56.4018C33.8075 56.3711 33.8219 56.3403 33.8382 56.3114C33.8707 56.2536 33.905 56.1976 33.9484 56.147C33.9502 56.1525 33.952 56.1579 33.9538 56.1615C33.943 56.1705 33.9358 56.1796 33.9267 56.1904C33.9303 56.2012 33.934 56.2121 33.9394 56.2211C33.9502 56.2428 33.9683 56.2554 33.9863 56.2699C33.9936 56.2771 34.0026 56.2825 34.0098 56.288L34.0369 56.2771L34.0496 56.2699L34.0604 56.2609C34.0369 56.297 34.0153 56.3331 33.9918 56.3693L34.0803 56.3422L34.0984 56.3349L34.1309 56.3205C34.1471 56.3114 34.1616 56.3024 34.176 56.2934L34.205 56.2717C34.2194 56.2609 34.2321 56.2482 34.2447 56.2356C34.2573 56.2229 34.2682 56.2103 34.2808 56.1976C34.2989 56.1759 34.317 56.1525 34.3332 56.1272C34.3621 56.0838 34.3892 56.0386 34.4163 55.9935C34.4326 56.0206 34.447 56.0459 34.4633 56.073C34.4958 56.1308 34.5265 56.1886 34.5536 56.2482C34.5627 56.2681 34.5717 56.2898 34.5753 56.3114L34.5735 56.3259C34.588 56.353 34.6024 56.3783 34.6169 56.4036C34.6855 56.5228 34.7578 56.6384 34.8319 56.7541C34.8861 56.839 34.9421 56.9239 34.9945 57.0106C34.9439 57.0196 34.8933 57.0305 34.8445 57.0449C34.8427 56.9727 34.8427 56.9022 34.8445 56.8299L34.8246 56.8137C34.8102 56.8028 34.7957 56.792 34.7813 56.783C34.7632 56.7721 34.7451 56.7631 34.7271 56.7541C34.7162 56.7505 34.7054 56.745 34.6946 56.7414C34.6765 56.736 34.6566 56.7324 34.6385 56.7306C34.6277 56.7288 34.6151 56.7288 34.6042 56.7288C34.5717 56.7306 34.541 56.736 34.5103 56.7468C34.5193 56.7342 34.5247 56.7234 34.5283 56.7089C34.532 56.6908 34.532 56.671 34.532 56.6529C34.5717 56.6258 34.6114 56.6023 34.6512 56.577C34.6205 56.5282 34.5898 56.4813 34.5591 56.4325C34.5338 56.4361 34.5085 56.4397 34.485 56.4451C34.447 56.4542 34.4109 56.4632 34.3748 56.4777C34.335 56.4921 34.2971 56.5102 34.2592 56.5264L34.2826 56.5608L34.2953 56.5752C34.3043 56.5842 34.3115 56.5897 34.3224 56.5969C34.3314 56.6023 34.3405 56.6059 34.3477 56.6113C34.3639 56.6186 34.382 56.6258 34.3947 56.6403C34.4109 56.6619 34.4091 56.689 34.4091 56.7143C34.4254 56.7396 34.4416 56.7649 34.4579 56.792C34.4525 56.8137 34.447 56.8372 34.4489 56.8589C34.4272 56.8318 34.4037 56.8065 34.3802 56.7812C34.3423 56.7414 34.3043 56.7035 34.2646 56.6674C34.2176 56.624 34.1706 56.5806 34.1237 56.5355L34.0821 56.4921C34.0604 56.5029 34.0369 56.5138 34.0134 56.5246C34.0297 56.5517 34.0478 56.5788 34.064 56.6059C34.1399 56.7378 34.1995 56.8787 34.2826 57.0088C34.2808 57.0215 34.2826 57.0323 34.2826 57.0431L34.2881 57.0612C34.2917 57.0738 34.2971 57.0847 34.3043 57.0973C34.3097 57.1064 34.3152 57.1136 34.3206 57.1226C34.3314 57.1371 34.3441 57.1497 34.3567 57.1606C34.3657 57.1678 34.373 57.1732 34.382 57.1804C34.3983 57.1913 34.4127 57.1985 34.429 57.2075C34.4398 57.2112 34.4489 57.2148 34.4597 57.2184L34.4958 57.2256L34.5247 57.1949L34.5392 57.1732L34.55 57.1497L34.5573 57.1262C34.5609 57.1877 34.5627 57.2473 34.5645 57.3087C34.5627 57.3412 34.5591 57.3756 34.5554 57.4099C34.5518 57.446 34.5464 57.4822 34.541 57.5183C34.5283 57.5905 34.5121 57.661 34.4976 57.7333C34.485 57.7586 34.4705 57.7839 34.4579 57.8092C34.4525 57.8218 34.447 57.8344 34.4434 57.8471C34.4398 57.8597 34.438 57.8706 34.438 57.8832C34.438 57.8995 34.4398 57.9139 34.4434 57.9302C34.4489 57.9519 34.4561 57.9718 34.4615 57.9916L34.5139 57.9555L34.5356 57.9374L34.5554 57.9176L34.5753 57.8959L34.5934 57.8724L34.6115 57.8471L34.6277 57.8218L34.644 57.7947L34.6584 57.7658L34.6855 57.7062L34.709 57.6429C34.7198 57.6104 34.7307 57.5779 34.7415 57.5454L34.7596 57.4785C34.7831 57.3846 34.8048 57.2906 34.8246 57.1967C34.8301 57.1678 34.8373 57.1389 34.8427 57.11C34.8788 57.1461 34.9294 57.1624 34.9782 57.1768C35.0017 57.1822 35.0252 57.1877 35.0487 57.1931C35.083 57.1985 35.1173 57.2039 35.1516 57.2093C35.2131 57.2166 35.2727 57.222 35.3341 57.2256C35.401 57.2292 35.466 57.2346 35.531 57.2401C35.5581 57.2274 35.5834 57.2148 35.6051 57.1949C35.6196 57.1804 35.6286 57.166 35.6394 57.1497C35.6485 57.1317 35.6593 57.1118 35.6683 57.0919C35.6485 57.0558 35.6286 57.0215 35.6087 56.9853L35.5798 56.9781L35.5617 56.9745C35.5401 56.9709 35.5202 56.9709 35.4985 56.9691C35.457 56.9673 35.4172 56.9673 35.3757 56.9691C35.3486 56.9709 35.3215 56.9727 35.2962 56.9745C35.2257 56.9799 35.1571 56.9889 35.0884 56.9998C35.1083 56.9835 35.1282 56.9673 35.1462 56.9474C35.1534 56.9383 35.1607 56.9293 35.1679 56.9203C35.1733 56.9112 35.1787 56.9022 35.1842 56.8914L35.1914 56.8715L35.1968 56.8516L35.1986 56.8299C35.1986 56.8191 35.1968 56.8083 35.195 56.7974L35.1878 56.7757C35.1842 56.7631 35.1787 56.7523 35.1733 56.7414C35.1661 56.727 35.1571 56.7125 35.1462 56.6981L35.13 56.6908L35.1227 56.6872L35.1065 56.6746C35.0902 56.6583 35.0758 56.6421 35.0631 56.6222L35.045 56.5951C35.027 56.5644 35.0107 56.5355 34.9963 56.5048C34.9764 56.4614 34.9583 56.418 34.9457 56.3747C34.9439 56.3693 34.9421 56.362 34.9421 56.3566L34.9439 56.3458L34.9132 56.297C34.8824 56.25 34.8517 56.203 34.8228 56.1561C34.8084 56.1326 34.7975 56.1091 34.7867 56.0838C34.7831 56.0712 34.7795 56.0603 34.7759 56.0477C34.7722 56.0314 34.7686 56.0133 34.7668 55.9971C34.765 55.9718 34.7632 55.9465 34.765 55.9194C34.7668 55.8977 34.7686 55.876 34.7704 55.8544L34.756 55.8309C34.7451 55.8164 34.7361 55.802 34.7253 55.7893C34.7144 55.7767 34.7036 55.764 34.6927 55.7532C34.6819 55.7423 34.6693 55.7315 34.6584 55.7225L34.6331 55.7044L34.588 55.7026L34.5609 55.6918L34.532 55.6845L34.5031 55.6809H34.4723L34.4416 55.6845L34.4091 55.69L34.3766 55.699L34.3423 55.7116L34.2971 55.7333L34.2881 55.7658C34.279 55.7984 34.27 55.8291 34.2592 55.8616C34.2465 55.8977 34.2339 55.9338 34.2194 55.9682C34.205 56.0025 34.1887 56.0368 34.1724 56.0712C34.1453 56.1217 34.1182 56.1723 34.0875 56.2211L34.0911 56.2085C34.0947 56.194 34.0966 56.1796 34.0984 56.1633L34.1002 56.1308C34.1002 56.1145 34.1002 56.0983 34.0984 56.082C34.0929 56.026 34.0839 55.9736 34.0713 55.9194C34.0695 55.9086 34.0658 55.8977 34.064 55.8851C34.0785 55.8598 34.0911 55.8327 34.1056 55.8056C34.1273 55.7604 34.1508 55.7171 34.1779 55.6737C34.1706 55.6954 34.167 55.7152 34.1652 55.7387C34.1634 55.7586 34.1652 55.7803 34.1652 55.802C34.1869 55.7947 34.2086 55.7875 34.2302 55.7785C34.2393 55.7731 34.2483 55.7694 34.2573 55.764C34.2682 55.7568 34.2772 55.7478 34.2881 55.7387C34.2971 55.7297 34.3043 55.7207 34.3115 55.7098C34.3224 55.6954 34.3314 55.6791 34.3386 55.6629C34.3513 55.6358 34.3603 55.6087 34.3694 55.5816C34.3712 55.5761 34.3712 55.5725 34.3748 55.5689C34.4055 55.5346 34.4362 55.5039 34.4633 55.4677C34.4741 55.4515 34.4832 55.437 34.4922 55.419C34.5049 55.3919 34.5157 55.3629 34.5175 55.3322C34.5247 55.325 34.5302 55.3196 34.5374 55.3124C34.5627 55.2853 34.5898 55.26 34.6096 55.2274C34.6133 55.2202 34.6187 55.2112 34.6205 55.204C34.6241 55.1949 34.6259 55.1859 34.6277 55.1769C34.6277 55.1678 34.6277 55.1588 34.6277 55.148C34.6259 55.1371 34.6241 55.1281 34.6205 55.119C34.6169 55.1082 34.6115 55.0992 34.6078 55.0883C34.5988 55.0721 34.5898 55.0558 34.5789 55.0396L34.5482 55.0468C34.5175 55.054 34.485 55.0576 34.4525 55.063C34.4236 55.0667 34.3947 55.0667 34.3657 55.0721C34.3567 55.0739 34.3495 55.0757 34.3405 55.0793C34.2971 55.1678 34.2592 55.26 34.2176 55.3503C34.1851 55.4244 34.1508 55.4984 34.1128 55.5707C34.0821 55.6285 34.0496 55.6845 34.008 55.7351C33.9882 55.6827 33.9701 55.6285 33.952 55.5743C33.9791 55.5346 34.0098 55.4984 34.0405 55.4623C34.0514 55.4479 34.0622 55.4352 34.0731 55.4208L34.0929 55.3864L34.102 55.3611L34.1074 55.334L34.1092 55.3196V55.2889L34.1056 55.2564L34.0966 55.2202C34.0893 55.1967 34.0803 55.1714 34.0695 55.148L34.1164 55.0504L34.1905 54.886C34.2104 54.8462 34.2302 54.8065 34.2537 54.7686L34.2881 54.718L34.2754 54.6927L34.261 54.671L34.2537 54.662L34.2266 54.6403L34.2158 54.6349C34.205 54.6313 34.1941 54.6276 34.1833 54.6258L34.1616 54.624C34.1508 54.624 34.1399 54.624 34.1291 54.6258C34.1146 54.6276 34.1002 54.6313 34.0857 54.6349C34.0532 54.6439 34.0243 54.6565 33.9954 54.671L33.9665 54.6855L33.9683 54.7144V54.7252C33.9665 54.736 33.9647 54.7469 33.9629 54.7577L33.9556 54.7794C33.9502 54.792 33.9448 54.8029 33.9394 54.8137C33.9303 54.83 33.9195 54.8444 33.9087 54.8589C33.8653 54.9149 33.8165 54.9619 33.7659 55.0107L33.7533 55.0233C33.6937 54.9041 33.6341 54.7848 33.5744 54.6656L33.5708 54.6475L33.56 54.6042L33.5455 54.5626L33.5275 54.5229L33.5058 54.4867L33.4931 54.4687L33.4805 54.4524L33.466 54.4361L33.4516 54.4217L33.4191 54.3928L33.401 54.3801L33.3649 54.3584L33.345 54.3494L33.3233 54.3422L33.3034 54.335L33.2818 54.3295L33.2601 54.3259L33.2366 54.3223L33.2131 54.3205H33.1896L33.1661 54.3223L33.1408 54.3259L33.1155 54.3313L33.065 54.3458L33.0089 54.3675C33.0523 54.4325 33.0939 54.4976 33.1354 54.5626C33.195 54.6565 33.2528 54.7523 33.307 54.8481C33.3396 54.9059 33.3721 54.9655 33.4028 55.0251C33.4516 55.1209 33.5004 55.2166 33.5437 55.316C33.522 55.3539 33.5004 55.3937 33.4751 55.4298C33.466 55.4406 33.4588 55.4497 33.4534 55.4569ZM34.5392 57.0377C34.5374 57.0251 34.5374 57.0106 34.5374 56.998C34.5283 56.9871 34.5175 56.9781 34.5085 56.9691L34.5193 56.9907L34.5302 57.016L34.5392 57.0377ZM34.2863 56.4542C34.3025 56.4668 34.3188 56.4795 34.335 56.4921L34.3549 56.4632C34.3712 56.4397 34.3874 56.4162 34.4001 56.3909C34.4091 56.3693 34.4145 56.3494 34.4181 56.3259C34.4199 56.3132 34.4199 56.3024 34.4218 56.2898L34.3965 56.2735L34.3838 56.2663L34.3712 56.2609L34.3585 56.2572L34.3332 56.2536H34.3206L34.2989 56.259C34.2881 56.2627 34.2772 56.2645 34.2664 56.2699L34.2465 56.2789C34.2248 56.2916 34.2068 56.306 34.1869 56.3223C34.1688 56.3367 34.1526 56.353 34.1345 56.3674C34.12 56.3765 34.1038 56.3837 34.0893 56.3927C34.1092 56.4144 34.1273 56.4379 34.1471 56.4596C34.1869 56.4524 34.2248 56.4451 34.2646 56.4379C34.2718 56.4433 34.279 56.4487 34.2863 56.4542ZM40.9058 54.2952L40.8841 54.3313L40.8607 54.3657L40.8101 54.4343L40.7812 54.4668L40.7505 54.4994L40.6854 54.5608L40.6511 54.5897L40.615 54.6186L40.577 54.6457L40.5391 54.671L40.4596 54.718L40.3765 54.7613L40.3331 54.7812L40.2916 54.7957L40.2482 54.8119L40.1579 54.8408L40.1127 54.8535L40.0675 54.8643L40.0224 54.8733L39.9772 54.8806L39.932 54.886L39.8869 54.8896L39.8345 54.8914C39.8273 54.8986 39.8182 54.9041 39.8128 54.9131C39.8038 54.9294 39.8038 54.9456 39.8056 54.9637C39.8056 54.9763 39.8056 54.989 39.8074 55.0034C39.8742 55.0052 39.9429 55.007 40.0097 55.0088C40.0386 55.0088 40.0675 55.0088 40.0983 55.0088C40.1506 55.007 40.2048 55.0034 40.2572 54.9998L40.2861 54.9926L40.315 54.9836L40.3765 54.9619L40.4415 54.9348L40.5102 54.9041L40.5806 54.8697L40.6511 54.8318L40.7215 54.7902L40.792 54.7451L40.8589 54.6981L40.8914 54.6728L40.9528 54.6222L40.9817 54.5969L41.0088 54.5716L41.0341 54.5445L41.0576 54.5174L41.0793 54.4903L41.0991 54.4632L41.1172 54.4361L41.1335 54.409L41.1479 54.3819L41.1551 54.3621C41.166 54.391 41.1768 54.4181 41.1877 54.447C41.2364 54.5716 41.2834 54.6963 41.3394 54.8155L41.4406 55.0215L41.455 55.0305L41.4767 55.0414C41.4894 55.045 41.502 55.0486 41.5165 55.0522C41.5869 55.0648 41.6592 55.0685 41.7297 55.0703C41.7929 55.0721 41.8561 55.0721 41.9194 55.0757C41.9374 55.0775 41.9573 55.0793 41.9754 55.0811C41.9826 55.0486 41.9898 55.0143 41.997 54.9817L41.9428 54.9565L41.9085 54.9402L41.876 54.9221L41.8146 54.886L41.7568 54.8462L41.7297 54.8264L41.6791 54.7848L41.6303 54.7415C41.6068 54.7198 41.5851 54.6963 41.5634 54.6728L41.5219 54.624C41.4948 54.5915 41.4677 54.559 41.4424 54.5247C41.3756 54.4361 41.3105 54.3458 41.2437 54.2573L41.2274 54.2356C41.231 54.2031 41.2509 54.176 41.2672 54.1507C41.2744 54.138 41.2834 54.1236 41.2888 54.1091C41.3665 54.0784 41.446 54.0495 41.5237 54.0206C41.6484 53.9754 41.7748 53.9339 41.8995 53.8905C41.941 53.8761 41.9826 53.8634 42.0223 53.849C42.0368 53.8436 42.0512 53.8381 42.0657 53.8309L42.0621 53.8092C42.0585 53.793 42.0585 53.7749 42.0567 53.7586L42.0097 53.7532L41.9826 53.7514H41.9591L41.932 53.7532L41.9049 53.7568L41.8543 53.7677L41.829 53.7749L41.8055 53.7839L41.7586 53.8038L41.7134 53.8255C41.661 53.8526 41.6104 53.8815 41.558 53.9086L41.5147 53.9303L41.4713 53.9501L41.4279 53.9664L41.4063 53.9736L41.3846 53.9791L41.3629 53.9827L41.3394 53.9845L41.3214 53.9863C41.3304 53.952 41.3412 53.9176 41.3539 53.8833C41.3611 53.8616 41.3701 53.8399 41.3792 53.8201C41.399 53.7713 41.4225 53.7225 41.446 53.6755C41.4767 53.6123 41.5056 53.5509 41.5327 53.4876C41.5454 53.4587 41.5562 53.4298 41.5671 53.4009C41.5761 53.3756 41.5833 53.3485 41.5924 53.3232C41.5725 53.2925 41.5508 53.2636 41.5291 53.2347C41.5147 53.2166 41.5002 53.1986 41.4821 53.1823C41.4695 53.1697 41.4605 53.1643 41.4532 53.157C41.4442 53.1498 41.4352 53.1444 41.4261 53.139C41.4153 53.1335 41.4063 53.1281 41.3954 53.1227C41.3846 53.1173 41.3737 53.1137 41.3611 53.1101C41.343 53.1046 41.3268 53.101 41.3087 53.0974C41.287 53.0938 41.2672 53.0902 41.2455 53.0884C41.2382 53.1101 41.2292 53.1317 41.222 53.1534L41.231 53.1787L41.2364 53.1968L41.2401 53.2148L41.2455 53.2528L41.2473 53.2925V53.3341C41.2455 53.3558 41.2437 53.3774 41.2419 53.4009C41.2382 53.4244 41.2346 53.4461 41.231 53.4696C41.222 53.5165 41.2111 53.5617 41.2003 53.6087C41.1822 53.681 41.1606 53.755 41.1425 53.8273L41.1389 53.8399C41.1262 53.8562 41.1154 53.8761 41.1064 53.8941C41.0883 53.9285 41.072 53.9628 41.0576 53.9971C41.0504 54.0134 41.0431 54.0296 41.0377 54.0459C41.0305 54.0513 41.0215 54.0531 41.0124 54.0567C40.9673 54.0712 40.9203 54.082 40.8751 54.0929C40.68 54.1417 40.4831 54.1868 40.2861 54.2338C40.2265 54.2248 40.1687 54.2175 40.1091 54.2103L40.1001 54.2392L40.0964 54.2591C40.0946 54.2699 40.0946 54.279 40.0946 54.2898L40.0964 54.3079C40.0983 54.3169 40.1019 54.3259 40.1055 54.335L40.1145 54.3512L40.1308 54.3729C40.138 54.3801 40.1434 54.3855 40.1506 54.3928C40.1615 54.4018 40.1723 54.4072 40.1832 54.4145L40.2536 54.4452L40.2843 54.4542L40.951 54.1904L40.9402 54.2193L40.9239 54.2573L40.9058 54.2952ZM37.1769 54.1471L37.1606 54.138L37.1426 54.1308L37.1227 54.1254L37.0486 54.1109L37.0739 54.1778C37.0848 54.2085 37.0938 54.241 37.101 54.2735C37.1046 54.2934 37.1082 54.3115 37.11 54.3313C37.1119 54.3548 37.1137 54.3783 37.1119 54.4036C37.1101 54.4181 37.11 54.4307 37.1064 54.4452C37.1046 54.4596 37.101 54.4723 37.0974 54.4849C37.0902 54.5048 37.0829 54.5229 37.0721 54.5391C37.054 54.456 37.0414 54.3693 37.0269 54.2862C37.0179 54.2338 37.0071 54.1814 36.9926 54.129C36.9872 54.1109 36.9818 54.0929 36.9746 54.073C36.9673 54.0549 36.9601 54.0369 36.9529 54.0206L36.9294 53.9736C36.868 53.9646 36.8047 53.9538 36.7433 53.9429C36.7307 53.952 36.718 53.961 36.7072 53.97C36.6909 53.9827 36.6746 53.9971 36.6584 54.0098C36.6602 54.0296 36.662 54.0495 36.6656 54.0694C36.6584 54.073 36.6512 54.0748 36.6439 54.0784C36.6367 54.082 36.6295 54.0875 36.6241 54.0911C36.6204 54.1615 36.6168 54.232 36.6132 54.3024C36.5988 54.4903 36.5771 54.6782 36.5464 54.8643L36.5084 54.8788C36.4723 54.8517 36.4344 54.8282 36.3928 54.8083L36.3729 54.8011C36.3531 54.7939 36.335 54.7884 36.3133 54.7848C36.2862 54.7812 36.2591 54.7794 36.232 54.7794C36.2049 54.7812 36.1778 54.783 36.1507 54.7866C36.1706 54.821 36.1905 54.8553 36.2103 54.8896C36.2338 54.9257 36.2573 54.9619 36.2826 54.998C36.2989 55.0197 36.3151 55.0414 36.3332 55.063C36.3513 55.0847 36.3693 55.1046 36.3892 55.1245L36.4289 55.1624L36.4705 55.1967L36.4922 55.2112L36.5157 55.2256L36.5391 55.2383L36.5626 55.2491L36.5879 55.2582L36.6132 55.2654L36.6385 55.2708L36.6656 55.2744L36.6927 55.2762L36.7198 55.2744L36.7469 55.2708L36.774 55.2654L36.8029 55.2564L36.8463 55.2383L36.8535 55.2022L36.8571 55.1624C36.8571 55.1425 36.8553 55.1245 36.8535 55.1046L36.8481 55.0667C36.8409 55.0305 36.83 54.9962 36.8174 54.9601C36.8047 54.9239 36.7921 54.8896 36.7794 54.8535C36.7704 54.8228 36.7596 54.7902 36.765 54.7577L36.774 54.7342C36.7686 54.7126 36.765 54.6891 36.7614 54.6674C36.7578 54.6403 36.7559 54.615 36.7541 54.5879L36.7523 54.3386L36.7397 54.1688C36.7686 54.2229 36.7885 54.2808 36.812 54.3368L36.8065 54.3548L36.8029 54.3729L36.8011 54.391V54.4108L36.8047 54.4343C36.8083 54.456 36.812 54.4759 36.8174 54.4958L36.83 54.5391C36.8589 54.6276 36.8951 54.7162 36.9204 54.8065L36.9294 54.8462L36.9348 54.8806V54.9095L36.933 54.9221L36.9294 54.933L36.9204 54.9546L36.9312 54.9872L36.942 55.0323L36.9511 55.0847L36.9565 55.1425C36.9583 55.1732 36.9583 55.204 36.9583 55.2365C36.9565 55.269 36.9565 55.3015 36.9529 55.3358C36.9493 55.3702 36.9456 55.4027 36.942 55.437C36.9384 55.4695 36.933 55.5039 36.9258 55.5364C36.9204 55.5689 36.9131 55.5996 36.9059 55.6303C36.8969 55.6683 36.886 55.7062 36.8734 55.7423C36.8607 55.7803 36.8463 55.8182 36.8246 55.8526C36.7957 55.8634 36.7668 55.8724 36.7361 55.8796C36.709 55.8851 36.6819 55.8887 36.6566 55.8977L36.6132 55.914C36.6295 55.9429 36.6457 55.9718 36.6602 56.0007L36.7054 56.0151L36.7379 56.0224L36.7686 56.026H36.7993L36.8282 56.0224L36.8553 56.017L36.8806 56.0079L36.9059 55.9953L36.9276 55.9808L36.9493 55.9646L36.9691 55.9465L36.9872 55.9266L37.0035 55.9049L37.0179 55.8815L37.0324 55.8562L37.045 55.8309L37.0685 55.7767L37.0884 55.7189C37.101 55.6791 37.1101 55.6412 37.1209 55.6014C37.139 55.5274 37.1534 55.4551 37.1715 55.381L37.1733 55.3304C37.1733 55.3051 37.1715 55.2816 37.1715 55.2582C37.1697 55.2256 37.1661 55.1949 37.1624 55.1642C37.148 55.0522 37.1227 54.942 37.1119 54.8282L37.1082 54.7866C37.1064 54.7595 37.1064 54.7324 37.1064 54.7053C37.1335 54.7162 37.1606 54.727 37.1895 54.7324C37.2076 54.736 37.2239 54.7378 37.2401 54.7378C37.2763 54.736 37.3088 54.727 37.3431 54.7162L37.3991 54.6981L37.3829 54.6511C37.3612 54.5807 37.3449 54.5084 37.3268 54.4361C37.3178 54.4 37.307 54.3657 37.2961 54.3313C37.2889 54.3115 37.2817 54.2916 37.2726 54.2735L37.2546 54.2374L37.2329 54.2049L37.2076 54.176L37.1932 54.1633L37.1769 54.1471ZM38.4325 55.3268C38.4524 55.3539 38.4705 55.3792 38.4921 55.4045L38.5319 55.4442C38.5427 55.4352 38.5536 55.4262 38.5662 55.4171C38.5789 55.4063 38.5933 55.3955 38.606 55.3864C38.3982 54.7902 38.1922 54.1922 37.9646 53.6051L37.9772 53.5816L37.9664 53.5545C37.9447 53.5003 37.9212 53.4497 37.8941 53.3973C37.8815 53.3738 37.8688 53.3521 37.8562 53.3287C37.8417 53.3052 37.8273 53.2835 37.8128 53.2618L37.7803 53.2221L37.7641 53.204L37.746 53.1877L37.7297 53.1697L37.7117 53.157L37.6918 53.1462L37.6701 53.1372L37.6484 53.1317L37.6249 53.1299L37.6015 53.1317L37.578 53.1372L37.5563 53.1462L37.5346 53.1606L37.5129 53.1787L37.4931 53.2004L37.4642 53.2383L37.4804 53.2781C37.5057 53.3305 37.54 53.3792 37.5726 53.4298C37.6141 53.4949 37.6557 53.5599 37.6846 53.6322C37.69 53.6466 37.6936 53.6593 37.6954 53.6737L37.6972 53.6954L37.6936 53.7117L37.6864 53.7333C37.7333 53.8436 37.7785 53.9538 37.8255 54.064C37.7875 54.0387 37.7532 54.0134 37.7207 53.9827C37.7062 53.9664 37.6918 53.952 37.681 53.9321C37.6755 53.9212 37.6701 53.9122 37.6647 53.8996C37.6575 53.8815 37.6539 53.8634 37.6502 53.8436C37.6466 53.8219 37.6466 53.8002 37.6448 53.7785L37.5726 53.7839L37.5147 53.7912L37.5382 53.858L37.5509 54.0098C37.5364 54.0152 37.5238 54.0206 37.5093 54.026C37.4913 53.9935 37.4696 53.9646 37.4443 53.9393L37.4262 53.923C37.4172 53.9158 37.4081 53.9104 37.3973 53.905C37.3865 53.8996 37.3774 53.8959 37.3666 53.8905C37.3521 53.8851 37.3377 53.8833 37.3232 53.8797C37.3034 53.8779 37.2853 53.8761 37.2654 53.8761C37.2221 53.8779 37.1787 53.8851 37.1353 53.8923L37.1913 53.9429C37.2203 53.9718 37.2419 54.0062 37.2636 54.0405L37.2781 54.0676C37.3088 54.1272 37.3341 54.1886 37.3395 54.2555C37.3395 54.2663 37.3395 54.2753 37.3377 54.2862L37.3287 54.3151C37.3612 54.3837 37.3937 54.4524 37.4244 54.5229C37.4352 54.55 37.4461 54.5771 37.4569 54.6042C37.4696 54.6385 37.4804 54.6728 37.4913 54.7071C37.5003 54.7415 37.5093 54.7758 37.5147 54.8101C37.5184 54.8318 37.5202 54.8517 37.5238 54.8733C37.5256 54.895 37.5256 54.9149 37.5256 54.9366L37.5238 54.9962C37.54 55.0088 37.5581 55.0215 37.5762 55.0341C37.6177 55.0612 37.6647 55.0775 37.7099 55.0938C37.7279 55.101 37.746 55.1064 37.7641 55.1136L37.793 55.0883C37.8074 55.0757 37.8183 55.063 37.8309 55.0486L37.8508 55.0233L37.8652 54.9962L37.8761 54.9691L37.8815 54.942L37.8833 54.9149L37.8815 54.8878C37.8779 54.8697 37.8743 54.8535 37.867 54.8372C37.8526 54.7957 37.8327 54.7559 37.8146 54.7144C37.8056 54.6945 37.7984 54.6746 37.7894 54.6547L37.7713 54.6457C37.7623 54.6403 37.7568 54.6331 37.7496 54.6258C37.7315 54.6042 37.7171 54.5825 37.7044 54.559L37.6864 54.5229C37.6394 54.4253 37.6051 54.3241 37.5707 54.2211L37.5617 54.1922C37.6105 54.1977 37.6575 54.1995 37.7044 54.194L37.7297 54.1904C37.7424 54.1868 37.755 54.1832 37.7659 54.1796L37.7894 54.1688L37.811 54.1543L37.8201 54.1453L37.8291 54.1344L37.8363 54.1236L37.8417 54.1109L37.8399 54.1001C37.9736 54.4163 38.1073 54.7342 38.2428 55.0504L38.2519 55.0558L38.2573 55.063C38.2717 55.0811 38.2844 55.0992 38.2952 55.119C38.3422 55.1877 38.3855 55.2582 38.4325 55.3268ZM44.5011 55.0107C44.4884 55.0251 44.4758 55.0396 44.4631 55.0522L44.4902 55.0811L44.5029 55.0919L44.5155 55.101L44.5408 55.1154L44.5553 55.1209L44.5842 55.1281L44.6131 55.1317H44.642C44.6564 55.1299 44.6709 55.1281 44.6835 55.1245L44.7124 55.1172C44.745 55.1064 44.7757 55.0938 44.8082 55.0793C44.8371 55.0667 44.866 55.0522 44.8949 55.0396C44.9166 55.063 44.9274 55.0956 44.9329 55.1263C44.9347 55.1389 44.9347 55.1498 44.9347 55.1624C44.8479 55.1588 44.7612 55.1606 44.6763 55.157C44.6167 55.1552 44.5571 55.1534 44.4956 55.148C44.4414 55.1425 44.3854 55.1353 44.3312 55.119C44.3601 55.0901 44.38 55.0558 44.3981 55.0215L44.418 54.9763L44.436 54.9294L44.4505 54.8806L44.4631 54.83L44.4722 54.7812L44.4776 54.7324L44.4794 54.6855V54.6638L44.4776 54.6421L44.474 54.6222L44.4685 54.6023L44.4631 54.5843L44.4559 54.568L44.4469 54.5536L44.436 54.5409L44.4216 54.5301L44.3656 54.4994L44.371 54.5626V54.5771L44.3674 54.606L44.3638 54.6204C44.3583 54.6367 44.3529 54.6511 44.3475 54.6674L44.3312 54.6999C44.3132 54.7342 44.2933 54.7649 44.2716 54.7975C44.2228 54.877 44.1686 54.9655 44.1795 55.063C44.1723 55.063 44.165 55.0648 44.1578 55.0648C44.1524 55.0793 44.147 55.0938 44.1415 55.1082C44.1397 55.1154 44.1379 55.1227 44.1343 55.1299L44.1596 55.157L44.1777 55.1751L44.1975 55.1913L44.2174 55.2058L44.2391 55.2202L44.2608 55.2329L44.2843 55.2455L44.3078 55.2564L44.3583 55.2744L44.4107 55.2907C44.4378 55.2979 44.4649 55.3033 44.492 55.3087L44.548 55.3178C44.5769 55.3214 44.604 55.3232 44.6329 55.3268C44.6709 55.3286 44.7088 55.3304 44.7468 55.3322C44.8172 55.334 44.8877 55.3322 44.9581 55.3304C44.9654 55.334 44.9744 55.3358 44.9834 55.3377C44.9744 55.3557 44.9654 55.372 44.9563 55.39C44.9365 55.3919 44.9148 55.3919 44.8949 55.3919C44.8389 55.3919 44.7829 55.3937 44.7251 55.3991C44.7088 55.4009 44.6908 55.4027 44.6745 55.4063C44.6582 55.4099 44.642 55.4135 44.6257 55.4171L44.595 55.428L44.5679 55.4406L44.5553 55.4479L44.5336 55.4659L44.5245 55.4768L44.5155 55.4894L44.5029 55.5147L44.5227 55.5418L44.5354 55.5563L44.548 55.5689L44.5607 55.5797L44.5896 55.5978L44.604 55.605L44.6348 55.6177C44.651 55.6231 44.6655 55.6267 44.6817 55.6285L44.7142 55.6321C44.7775 55.6376 44.8425 55.6358 44.9058 55.643L44.9202 55.6448C44.8642 55.661 44.8082 55.6701 44.7504 55.6791C44.6998 55.6881 44.6492 55.6954 44.5986 55.708C44.5679 55.7171 44.5318 55.7279 44.5083 55.7532C44.5011 55.7568 44.4956 55.7604 44.4884 55.764L44.4758 55.7749C44.4685 55.7821 44.4613 55.7911 44.4559 55.8002C44.4523 55.8074 44.4487 55.8128 44.4469 55.82C44.4378 55.8471 44.4342 55.876 44.4288 55.9049C44.427 55.9122 44.4252 55.9212 44.4216 55.9284C44.2499 55.8869 44.0801 55.8489 43.9067 55.8146C43.8543 55.8038 43.8019 55.7947 43.7477 55.7857C43.6411 55.7676 43.5327 55.7496 43.4243 55.7351C43.3285 55.7225 43.231 55.7098 43.1352 55.699C43.1244 55.6863 43.1154 55.6737 43.1009 55.6647C43.0846 55.6538 43.063 55.6502 43.0449 55.6466L43.0232 55.661L43.0124 55.6701L43.0033 55.6809L42.9961 55.6918L42.9853 55.7171L42.9817 55.7297L42.9799 55.7423V55.755L42.9835 55.7803L42.9907 55.8056C42.9961 55.8182 43.0015 55.8309 43.007 55.8435L43.0214 55.867C43.0304 55.8796 43.0377 55.8905 43.0467 55.9013C43.0594 55.9158 43.072 55.9302 43.0865 55.9447C43.1045 55.9609 43.1226 55.9754 43.1407 55.9899L43.1696 56.0079H43.2183C43.3827 56.0061 43.5471 56.0007 43.7134 56.0025C43.7495 56.0025 43.7856 56.0043 43.8218 56.0061C43.8579 56.0079 43.894 56.0115 43.9284 56.0133C43.9645 56.017 44.0006 56.0206 44.0368 56.026C44.0729 56.0314 44.109 56.0386 44.1452 56.0459C44.2102 56.0603 44.277 56.0748 44.3403 56.0946C44.3041 56.1597 44.2752 56.2283 44.2481 56.2952C44.2301 56.3385 44.212 56.3801 44.1939 56.4216C44.1614 56.4921 44.1253 56.5608 44.0801 56.624C44.0476 56.6132 44.0169 56.5969 43.988 56.5806L43.9482 56.5535C43.9284 56.5391 43.9085 56.5228 43.8904 56.5084L43.8525 56.474C43.7929 56.4162 43.7368 56.3566 43.6772 56.2988L43.6411 56.2663L43.6013 56.241L43.5634 56.2157L43.5237 56.194L43.5038 56.185L43.4496 56.1651L43.4478 56.2121L43.4496 56.2265L43.4568 56.241L43.4713 56.2717C43.5074 56.3385 43.5526 56.4 43.5959 56.4614C43.6194 56.4957 43.6447 56.5282 43.67 56.5626C43.7332 56.6475 43.7965 56.7306 43.8543 56.8191C43.8669 56.839 43.8778 56.857 43.8904 56.8787C43.9464 56.8986 44.0024 56.9185 44.0566 56.9402L44.091 56.9221L44.1343 56.895L44.1723 56.8679L44.2066 56.839L44.2373 56.8101C44.2517 56.7956 44.2644 56.7812 44.277 56.7649L44.3005 56.7342C44.3114 56.7179 44.3222 56.7035 44.3312 56.6854C44.3674 56.6222 44.3981 56.5571 44.4324 56.4921C44.4487 56.4632 44.4649 56.4343 44.4812 56.4054V56.3982C44.4848 56.3819 44.4884 56.3656 44.492 56.3494C44.5047 56.297 44.5191 56.2446 44.5354 56.1922C44.5535 56.1958 44.5697 56.1994 44.5878 56.203C44.6727 56.2247 44.754 56.2554 44.8389 56.2753C44.8534 56.2789 44.8696 56.2825 44.8841 56.2843C44.9058 56.288 44.9256 56.2916 44.9473 56.2934C44.9654 56.2952 44.9834 56.2952 45.0015 56.2952L45.0232 56.2825L45.0376 56.2717L45.0629 56.25L45.0738 56.2392L45.0882 56.2139L45.0918 56.2012L45.0955 56.1868V56.1615L45.0936 56.1488L45.09 56.1362L45.0846 56.1235L45.072 56.1001C45.0647 56.0892 45.0575 56.0802 45.0485 56.0693L45.0304 56.0513C45.0178 56.0386 45.0033 56.0296 44.9889 56.017C44.9726 56.0061 44.9545 55.9953 44.9365 55.9862L44.913 55.9754H44.8787C44.819 55.9772 44.7576 55.9826 44.6962 55.9772C44.6853 55.9754 44.6763 55.9754 44.6655 55.9736C44.6474 55.97 44.6311 55.9664 44.6131 55.9609C44.5932 55.9537 44.5751 55.9465 44.5571 55.9375C44.5571 55.8941 44.5589 55.8526 44.5589 55.8092C44.5878 55.8128 44.6149 55.8146 44.6438 55.8164C44.6998 55.82 44.7558 55.8236 44.8118 55.8236C44.8371 55.8236 44.8624 55.8218 44.8877 55.8218C44.913 55.82 44.9365 55.8182 44.9618 55.8146C44.9798 55.811 44.9961 55.8074 45.0142 55.8038C45.0304 55.8002 45.0467 55.7947 45.0629 55.7893L45.0991 55.7731L45.1153 55.7442L45.1244 55.7225L45.1316 55.7026L45.1352 55.6827L45.137 55.6647L45.1352 55.6466L45.1316 55.6285L45.1244 55.6123L45.1153 55.5978L45.1045 55.5852L45.0918 55.5743L45.0774 55.5635L45.0629 55.5545L45.0467 55.5454C45.0286 55.5382 45.0123 55.531 44.9943 55.5255C44.9726 55.5183 44.9509 55.5129 44.9292 55.5093C45.0087 55.5075 45.0864 55.5075 45.1659 55.5075L45.1894 55.5111C45.2147 55.5129 45.2418 55.5147 45.2671 55.5165C45.2924 55.5165 45.3177 55.5165 45.3448 55.5165C45.3701 55.5147 45.3954 55.5147 45.4225 55.5129C45.464 55.5093 45.5074 55.5039 45.5507 55.4984C45.6772 55.4804 45.8037 55.4533 45.9301 55.4316L45.997 55.4208L46.0078 55.381L46.0114 55.3575L46.0096 55.3358L46.006 55.316L45.9988 55.2979L45.9879 55.2798L45.9753 55.2654L45.9608 55.2527L45.9446 55.2419L45.9265 55.2311L45.9066 55.2238L45.8633 55.2094C45.8398 55.204 45.8163 55.2003 45.7928 55.1967L45.7422 55.1913C45.6772 55.1859 45.6103 55.1841 45.5435 55.1841C45.5272 55.1841 45.511 55.1841 45.4965 55.1823C45.5146 55.1696 45.5309 55.157 45.5489 55.1461C45.6808 55.054 45.8127 54.9655 45.9446 54.8733C45.9735 54.8535 46.0024 54.8318 46.0313 54.8101C46.0494 54.8011 46.0656 54.7902 46.0819 54.7794L46.1271 54.7433C46.1343 54.736 46.1415 54.727 46.1487 54.7198C46.1596 54.7053 46.1704 54.6927 46.1776 54.6764C46.1831 54.6674 46.1867 54.6584 46.1903 54.6493C46.1957 54.6331 46.2011 54.6186 46.2029 54.6005C46.2047 54.5897 46.2065 54.5807 46.2065 54.5698C46.2065 54.5536 46.2065 54.5391 46.2065 54.5229L46.1794 54.512C46.1451 54.4976 46.109 54.4831 46.0728 54.4723C46.0584 54.4687 46.0439 54.4632 46.0295 54.4596C45.9952 54.4506 45.9608 54.4434 45.9265 54.4379L45.8687 54.4325H45.8127L45.7729 54.4361L45.7314 54.4452L45.7278 54.465L45.726 54.5138L45.7477 54.5247C45.7711 54.5355 45.7946 54.5463 45.8199 54.5536C45.838 54.559 45.8579 54.5644 45.8777 54.5698C45.8597 54.5933 45.8398 54.6168 45.8199 54.6403C45.7982 54.6638 45.7784 54.6855 45.7549 54.7089C45.726 54.736 45.6989 54.7613 45.6682 54.7866C45.5995 54.8444 45.529 54.8968 45.4532 54.9438C45.4206 54.9294 45.4134 54.8914 45.4062 54.8589L45.408 54.8571C45.417 54.8625 45.4261 54.8679 45.4351 54.8752C45.4658 54.8661 45.4965 54.8553 45.5236 54.839C45.5363 54.8318 45.5453 54.821 45.5543 54.8101C45.567 54.7957 45.576 54.7794 45.5851 54.7649C45.5688 54.7306 45.5543 54.6963 45.5345 54.662C45.5254 54.6475 45.5164 54.6349 45.5056 54.6222C45.5001 54.6168 45.4947 54.6114 45.4893 54.606C45.4658 54.5879 45.4387 54.5734 45.4116 54.5608C45.4405 54.5572 45.4694 54.5554 45.4983 54.55C45.5218 54.5463 45.5435 54.5427 45.567 54.5355C45.576 54.5319 45.5851 54.5283 45.5941 54.5247C45.6031 54.5192 45.6103 54.5156 45.6194 54.5084C45.6284 54.5012 45.6356 54.4958 45.6429 54.4867C45.6501 54.4777 45.6555 54.4687 45.6627 54.4596L45.6808 54.4253L45.6664 54.4018C45.6356 54.3548 45.6103 54.3042 45.5796 54.2573C45.5652 54.2374 45.5525 54.2193 45.5345 54.2013C45.5254 54.1922 45.5164 54.185 45.5074 54.176C45.4983 54.1688 45.4875 54.1615 45.4767 54.1543C45.4658 54.1471 45.455 54.1417 45.4423 54.1362L45.3954 54.1164L45.3845 54.1417C45.3827 54.1471 45.3809 54.1507 45.3809 54.1561C45.3809 54.1742 45.3863 54.1904 45.3935 54.2085C45.4008 54.2302 45.408 54.2537 45.4134 54.2753C45.3972 54.297 45.3791 54.3169 45.3592 54.3368C45.352 54.344 45.343 54.3512 45.3357 54.3584C45.296 54.3946 45.2526 54.4253 45.2111 54.4596C45.2075 54.4596 45.2038 54.4578 45.2002 54.4578C45.1677 54.4506 45.1334 54.4434 45.1009 54.4379C45.0846 54.4578 45.0684 54.4795 45.0521 54.5012C45.0647 54.512 45.0774 54.5229 45.09 54.5337C45.072 54.5518 45.0485 54.5626 45.0268 54.5716C45.0087 54.5789 44.9925 54.5843 44.9744 54.5897L44.9762 54.5752L44.9798 54.5445C44.9798 54.5283 44.9798 54.512 44.978 54.4958L44.9744 54.4614C44.9708 54.4434 44.9672 54.4271 44.9636 54.409C44.96 54.391 44.9545 54.3747 44.9491 54.3566C44.9437 54.3404 44.9365 54.3241 44.9292 54.3061C44.922 54.2898 44.9148 54.2753 44.9076 54.2591C44.9003 54.2446 44.8913 54.232 44.8823 54.2175L44.8624 54.194L44.8425 54.1742L44.8046 54.1435C44.7974 54.1633 44.7883 54.1814 44.7829 54.2013L44.7793 54.2193C44.7775 54.2374 44.7775 54.2555 44.7775 54.2735C44.7793 54.3133 44.7847 54.353 44.7829 54.3946C44.7811 54.4126 44.7793 54.4307 44.7757 54.4488L44.7684 54.4741L44.7721 54.4903C44.7721 54.5102 44.763 54.5319 44.754 54.55C44.7233 54.6078 44.6835 54.6584 44.6474 54.7126C44.6366 54.727 44.6275 54.7433 44.6185 54.7595C44.6366 54.7686 44.6546 54.7758 44.6727 54.7848C44.707 54.7993 44.7413 54.8137 44.7739 54.8318C44.7883 54.8408 44.8046 54.8499 44.819 54.8625C44.8335 54.8752 44.8479 54.8896 44.8606 54.9041L44.8461 54.9167C44.8317 54.9275 44.819 54.9348 44.8028 54.9438L44.7739 54.9546L44.7323 54.9655L44.6763 54.9727H44.5733L44.5372 54.9691L44.5011 55.0107ZM43.5219 55.5292L43.5273 55.5617C43.558 55.5707 43.5905 55.5816 43.6212 55.5924C43.6285 55.5942 43.6357 55.5978 43.6411 55.5996L43.6682 55.596L43.6881 55.5888L43.7061 55.5797L43.7224 55.5689L43.7368 55.5563L43.7495 55.5418L43.7621 55.5255L43.773 55.5075L43.782 55.4876L43.7892 55.4677L43.8001 55.4244L43.8073 55.3792C43.8109 55.3557 43.8109 55.334 43.8127 55.3106V55.2636C43.8127 55.2419 43.8109 55.2202 43.8091 55.1967C43.8037 55.1461 43.7965 55.0956 43.7784 55.0486L43.7621 55.0143L43.7224 55.0377L43.6917 55.0594L43.6628 55.0847L43.6375 55.1118L43.614 55.1407L43.5923 55.1714C43.5833 55.1877 43.5742 55.204 43.5652 55.222L43.5508 55.2564C43.5453 55.2744 43.5381 55.2907 43.5327 55.3106C43.5291 55.3286 43.5237 55.3467 43.5201 55.3648C43.5164 55.3828 43.5146 55.4009 43.5128 55.419C43.5128 55.437 43.511 55.4551 43.5128 55.4732C43.5182 55.4948 43.5201 55.5111 43.5219 55.5292ZM45.2093 55.3828L45.1966 55.39C45.2562 55.3846 45.3122 55.3738 45.3719 55.3629L45.5182 55.334L45.4604 55.3232L45.4152 55.3214L45.3701 55.325L45.3249 55.334C45.3104 55.3377 45.2942 55.3431 45.2797 55.3485C45.2653 55.3539 45.2508 55.3611 45.2364 55.3666L45.2093 55.3828ZM45.2851 55.0721C45.2779 55.0649 45.2725 55.0576 45.2671 55.0486C45.2635 55.0414 45.2599 55.0323 45.2562 55.0251C45.2201 55.0179 45.184 55.0125 45.1497 55.007C45.1695 54.9817 45.1858 54.9546 45.2111 54.933C45.1912 54.9312 45.1713 54.9312 45.1515 54.9348C45.128 54.9402 45.1045 54.951 45.0828 54.9619C45.1009 54.9944 45.1153 55.0287 45.1298 55.063C45.1334 55.0739 45.1388 55.0847 45.1424 55.0956C45.1497 55.1136 45.1569 55.1335 45.1659 55.1498C45.193 55.1498 45.2183 55.1498 45.2454 55.1443C45.258 55.1407 45.2689 55.1371 45.2797 55.1281C45.2924 55.1172 45.3032 55.1046 45.3122 55.0919C45.3014 55.0847 45.2924 55.0793 45.2851 55.0721ZM45.2002 54.6981C45.2093 54.7017 45.2165 54.7053 45.2255 54.7107C45.2075 54.6945 45.1858 54.6818 45.1659 54.6674C45.0955 54.6818 45.0268 54.6981 44.9581 54.7144C44.9491 54.7288 44.9419 54.7433 44.9329 54.7577C44.9365 54.7631 44.9401 54.7686 44.9437 54.774C44.9636 54.8047 44.9852 54.8354 45.0196 54.8535C45.0431 54.8408 45.0665 54.8264 45.0864 54.8065C45.09 54.8029 45.0955 54.7975 45.0991 54.7939C45.128 54.7613 45.1497 54.7234 45.1713 54.6855L45.2002 54.6981ZM32.6892 70.0492L32.6296 70.1052L32.6675 70.145C32.6982 70.1775 32.7127 70.2046 32.709 70.2281C32.7072 70.2516 32.6856 70.2823 32.644 70.3202L31.9611 70.9598C31.9195 70.9995 31.887 71.0158 31.8671 71.0122C31.8455 71.0086 31.8166 70.9869 31.7804 70.9471L31.7569 70.9236L31.6973 70.9778L32.0496 71.3536L32.1092 71.2976C32.0568 71.2416 32.0279 71.2055 32.0225 71.1856C32.0171 71.1657 32.0388 71.1332 32.0912 71.0826L32.4073 70.7863L32.8807 71.2904L32.5735 71.5777C32.5374 71.612 32.5121 71.6318 32.4959 71.6409C32.4796 71.6499 32.4633 71.6499 32.4471 71.6427C32.4308 71.6355 32.4091 71.6138 32.3784 71.5831L32.3531 71.556L32.2935 71.612L32.6422 71.9841L32.7018 71.9281C32.6657 71.8884 32.6422 71.8595 32.6314 71.8396C32.6205 71.8197 32.6187 71.8035 32.6277 71.7872C32.6368 71.771 32.6567 71.7475 32.6892 71.7186L33.3631 71.0862C33.4082 71.0447 33.4407 71.0248 33.4642 71.0266C33.4859 71.0284 33.513 71.0465 33.5437 71.079L33.5744 71.1115L33.6341 71.0555L33.2854 70.6834L33.2257 70.7394L33.2619 70.7773C33.2962 70.8152 33.3107 70.8442 33.3052 70.8658C33.2998 70.8875 33.2727 70.9218 33.2276 70.9652L32.9584 71.2181L32.485 70.7141L32.7614 70.4539C32.8066 70.4106 32.8409 70.3907 32.8644 70.3907C32.8879 70.3907 32.9186 70.4124 32.9566 70.4539L32.98 70.4792L33.0397 70.4232L32.6892 70.0492ZM31.7497 68.7358L31.3577 68.7791L31.3649 68.8695C31.4877 68.8641 31.5853 68.8785 31.6558 68.9128C31.7262 68.9472 31.7967 69.023 31.8671 69.1423L32.0099 69.3826L30.5573 69.2272L30.4869 69.2687L31.0126 70.1576L31.4534 70.0745L31.4354 69.9824C31.3035 69.9986 31.1951 69.9896 31.1102 69.9535C31.0252 69.9191 30.9439 69.8324 30.8626 69.6969L30.7 69.4223L32.1526 69.5759L32.2231 69.5343L31.7497 68.7358ZM31.1644 67.4892L31.0921 67.5289L31.112 67.5651C31.1391 67.6139 31.1463 67.6482 31.1336 67.6717C31.1228 67.6933 31.0903 67.7204 31.0379 67.7475L30.252 68.1757C30.196 68.2064 30.1562 68.2173 30.1328 68.2101C30.1093 68.2028 30.0858 68.1775 30.0623 68.136L30.0424 68.0998L29.9702 68.1396L30.2141 68.5876L30.2863 68.5479L30.2683 68.5136C30.2412 68.4648 30.2339 68.4287 30.2466 68.4052C30.2574 68.3817 30.2881 68.3582 30.3369 68.3311L31.1047 67.912C31.168 67.8776 31.2149 67.8632 31.242 67.8686C31.2691 67.874 31.2944 67.8993 31.3161 67.9409L31.3342 67.9752L31.4064 67.9354L31.1644 67.4892ZM30.514 65.5507L30.4363 65.5741L30.4507 65.6211C30.4652 65.6681 30.4652 65.7024 30.4525 65.7223C30.4399 65.7422 30.4056 65.7602 30.3532 65.7783L29.7172 65.9734C29.5582 66.0222 29.4553 66.1089 29.4083 66.2354C29.3613 66.3618 29.3577 66.4883 29.3956 66.6148C29.4408 66.7611 29.5221 66.8695 29.6395 66.9364C29.757 67.0032 29.8979 67.0122 30.0605 66.9617L30.6585 66.7774C30.7109 66.7611 30.7488 66.7593 30.7723 66.772C30.7958 66.7846 30.8157 66.8135 30.8301 66.8623L30.8392 66.893L30.9168 66.8695L30.785 66.4431L30.7073 66.4666L30.7181 66.5028C30.7344 66.5534 30.7326 66.5895 30.7145 66.613C30.6982 66.6365 30.6639 66.6545 30.6133 66.6708L30.0533 66.8424C29.9358 66.8785 29.8473 66.8894 29.7877 66.8749C29.7281 66.8605 29.6739 66.828 29.6215 66.7774C29.5709 66.7268 29.5348 66.6708 29.5149 66.6057C29.4968 66.5461 29.4932 66.4829 29.5059 66.4179C29.5167 66.3528 29.5438 66.2968 29.5872 66.2498C29.6287 66.2047 29.7064 66.1649 29.8184 66.1306L30.4038 65.9517C30.4562 65.9355 30.4941 65.9319 30.5158 65.9427C30.5393 65.9535 30.5591 65.9843 30.5754 66.0385L30.5844 66.071L30.6621 66.0475L30.514 65.5507ZM30.3821 64.6762L30.2917 64.6419C30.3676 64.5444 30.4056 64.4287 30.4074 64.2932C30.4092 64.1108 30.3405 63.9554 30.205 63.8253C30.0695 63.6952 29.9033 63.6302 29.7064 63.6284C29.5004 63.6266 29.3306 63.6898 29.2005 63.8163C29.0686 63.9427 29.0018 64.0999 29.0018 64.2896C29.0018 64.4378 29.0488 64.5823 29.1427 64.7196L29.0235 64.7702V64.8641L29.4932 64.8659C29.5492 64.8659 29.5853 64.8732 29.6034 64.8876C29.6215 64.9021 29.6305 64.9328 29.6305 64.9852V65.0285H29.7118L29.7154 64.4883H29.6341C29.6341 64.5769 29.6233 64.6311 29.6052 64.6546C29.5853 64.678 29.5402 64.6889 29.4679 64.6889H29.4029C29.3505 64.6889 29.3125 64.6835 29.2836 64.6726C29.2565 64.6618 29.2294 64.6401 29.2005 64.6058C29.1734 64.5715 29.1517 64.5317 29.1355 64.4865C29.1192 64.4414 29.112 64.3926 29.112 64.3438C29.112 64.2553 29.1373 64.1722 29.1879 64.0927C29.2367 64.015 29.3107 63.9518 29.4083 63.9048C29.5059 63.8578 29.6106 63.8361 29.7245 63.8361C29.8871 63.8361 30.0244 63.8849 30.1382 63.9789C30.252 64.0728 30.308 64.1866 30.3062 64.3185C30.3062 64.4197 30.2755 64.5082 30.2141 64.5805C30.1526 64.6528 30.0605 64.716 29.934 64.7684L29.9629 64.8551L30.3821 64.7467V64.6762ZM35.8147 72.4557L35.7894 72.5334L35.8364 72.5496C35.8833 72.5659 35.9122 72.584 35.9213 72.6074C35.9303 72.6309 35.9249 72.6671 35.9086 72.7213L35.6972 73.3518C35.6449 73.509 35.6557 73.6445 35.7316 73.7565C35.8075 73.8685 35.9068 73.9444 36.0333 73.9877C36.1796 74.0365 36.3151 74.0329 36.438 73.9769C36.5608 73.9209 36.6494 73.8107 36.7036 73.6499L36.9023 73.0555C36.9204 73.0031 36.9402 72.9724 36.9637 72.9597C36.9872 72.9471 37.0233 72.9489 37.0721 72.9652L37.1028 72.976L37.1281 72.8983L36.7036 72.7556L36.6783 72.8333L36.7144 72.8459C36.7632 72.8622 36.7939 72.8839 36.8011 72.9128C36.8101 72.9399 36.8047 72.9796 36.7885 73.0302L36.6024 73.5848C36.5626 73.7023 36.5193 73.78 36.4741 73.8197C36.4271 73.8595 36.3693 73.8847 36.2989 73.8974C36.2284 73.91 36.1616 73.9064 36.0965 73.8847C36.0369 73.8649 35.9845 73.8305 35.9375 73.7836C35.8906 73.7348 35.8617 73.6806 35.849 73.6192C35.8364 73.5577 35.849 73.4728 35.8851 73.3608L36.0803 72.7809C36.0983 72.7285 36.1164 72.696 36.1381 72.6833C36.1598 72.6707 36.1977 72.6725 36.2501 72.6905L36.2808 72.7014L36.3061 72.6237L35.8147 72.4557ZM33.7551 72.0582C33.6521 72.2317 33.6232 72.4069 33.6648 72.5876C33.7081 72.7682 33.8129 72.9092 33.9827 73.0085C34.1526 73.1097 34.3278 73.1368 34.5049 73.0862C34.6819 73.0374 34.8246 72.9236 34.9294 72.7447C35.0306 72.5749 35.0595 72.4015 35.0198 72.2226C34.98 72.0438 34.8788 71.9065 34.7162 71.8089C34.5428 71.7059 34.3657 71.6788 34.1815 71.7258C34.0008 71.7764 33.8581 71.8866 33.7551 72.0582ZM34.7542 72.6418C34.8481 72.4846 34.8879 72.3401 34.8734 72.2082C34.859 72.0781 34.7903 71.9751 34.6656 71.901C34.5338 71.8215 34.4019 71.8071 34.2718 71.8523C34.1417 71.8992 34.0279 72.0058 33.9303 72.1702C33.8364 72.3274 33.8003 72.4756 33.8219 72.6111C33.8436 72.7466 33.9141 72.8513 34.0369 72.9236C34.158 72.9959 34.2844 73.0049 34.4181 72.9525C34.5482 72.9037 34.6602 72.7989 34.7542 72.6418ZM45.5164 71.3319L45.5688 71.3952C45.6103 71.3609 45.6411 71.3392 45.6645 71.3301C45.6862 71.3211 45.7061 71.3211 45.7206 71.3283C45.735 71.3356 45.7549 71.3554 45.7784 71.3843L46.3728 72.107C46.4053 72.1449 46.4215 72.1775 46.4215 72.2028C46.4215 72.228 46.3999 72.2588 46.3565 72.2931L46.3276 72.3166L46.38 72.3798L47.2508 71.6644L47.0954 71.2416L47.0069 71.2723C47.0484 71.4042 47.0539 71.5162 47.025 71.6102C46.996 71.7041 46.9274 71.7944 46.819 71.8848L46.6636 72.0112C46.6257 72.042 46.6004 72.0564 46.5841 72.0546C46.5679 72.0528 46.5444 72.0329 46.5101 71.9914L46.2282 71.6499L46.3529 71.5469C46.4161 71.4945 46.4703 71.4711 46.5137 71.4765C46.557 71.4819 46.6004 71.5126 46.6456 71.5668L46.6781 71.6066L46.7485 71.5487L46.3691 71.088L46.2987 71.1459L46.3131 71.1621C46.3637 71.2254 46.389 71.2796 46.3854 71.3283C46.3818 71.3771 46.3511 71.4241 46.2933 71.4711L46.1686 71.574L45.8524 71.1892L46.1018 70.9833C46.2138 70.8911 46.3077 70.8423 46.3818 70.8351C46.4559 70.8279 46.5408 70.8532 46.6329 70.9092L46.6781 70.8315L46.3547 70.6364L45.5164 71.3319ZM49.2092 64.0782H49.2905C49.2905 64.0349 49.2941 64.0042 49.3013 63.9825C49.3086 63.9626 49.3393 63.9355 49.3989 63.8994L50.033 63.5399L50.3402 63.5362C50.398 63.5362 50.4341 63.5435 50.4522 63.5579C50.4702 63.5724 50.4793 63.6085 50.4811 63.6627V63.7043H50.5624L50.557 63.1821L50.4757 63.1839C50.4757 63.2508 50.4702 63.296 50.4594 63.3194C50.4486 63.3429 50.407 63.3556 50.3384 63.3556L49.9951 63.3592L49.379 63.0033C49.3302 62.9744 49.3013 62.9509 49.2923 62.931C49.2833 62.9111 49.2778 62.8786 49.2778 62.8335H49.1966L49.2002 63.2454H49.2815V63.1966C49.2815 63.1659 49.2833 63.1442 49.2887 63.1316C49.2923 63.1189 49.3013 63.1135 49.3158 63.1135C49.3284 63.1135 49.3501 63.1207 49.3826 63.1388L49.8939 63.4224L49.4061 63.6862C49.37 63.7061 49.3447 63.7169 49.3266 63.7169C49.3013 63.7169 49.2887 63.6898 49.2869 63.6374V63.5832H49.2056L49.2092 64.0782ZM48.9635 65.7602L49.3501 65.9301L49.3899 65.8469C49.2923 65.7982 49.2236 65.7494 49.1803 65.7024C49.1387 65.6536 49.1207 65.5778 49.1297 65.473C49.1315 65.4423 49.1387 65.4224 49.1478 65.417C49.1568 65.4097 49.1785 65.4079 49.2092 65.4115L50.1685 65.4928C50.2119 65.4965 50.2426 65.5019 50.2607 65.5109C50.2787 65.5181 50.2896 65.5344 50.2968 65.5579C50.3022 65.5814 50.3022 65.6193 50.2986 65.6717L50.3799 65.6789L50.4233 65.1658L50.342 65.1586C50.3365 65.2218 50.3257 65.2652 50.3076 65.2887C50.2896 65.3122 50.2462 65.3212 50.1776 65.3158L49.2399 65.2381C49.1984 65.2345 49.1749 65.2273 49.1676 65.2182C49.1604 65.2074 49.1568 65.1839 49.1604 65.1442C49.1676 65.0538 49.1966 64.9852 49.2435 64.9418C49.2923 64.8985 49.37 64.8605 49.4766 64.8298L49.4513 64.7413L49.043 64.8461L49.0376 64.9165L49.0827 64.9274L49.0195 65.6916L48.9725 65.697L48.9635 65.7602ZM48.6726 67.0339L48.7521 67.0484L48.7593 67.0086C48.7702 66.9544 48.7864 66.9219 48.8081 66.9129C48.8316 66.902 48.8714 66.902 48.931 66.9129L49.8108 67.0773C49.874 67.0881 49.912 67.1044 49.9246 67.1261C49.9391 67.1459 49.9409 67.1803 49.9319 67.2272L49.9246 67.267L50.0041 67.2814L50.0981 66.781L50.0186 66.7665L50.0114 66.8045C50.0005 66.8605 49.9843 66.893 49.9608 66.902C49.9373 66.9129 49.8975 66.9129 49.8433 66.902L48.9834 66.7412C48.9111 66.7286 48.8677 66.7105 48.8497 66.6889C48.8334 66.6672 48.8298 66.6328 48.837 66.5841L48.8443 66.5461L48.7648 66.5317L48.6726 67.0339ZM48.4938 67.6464L48.5498 67.7313C48.4341 67.7656 48.3402 67.8415 48.2661 67.9571C48.1939 68.0691 48.165 68.1811 48.1758 68.2932C48.1884 68.4052 48.2354 68.4883 48.3167 68.5407C48.3908 68.5876 48.4685 68.6021 48.5516 68.584C48.6347 68.566 48.725 68.5136 48.8226 68.4287L49.0105 68.2661C49.09 68.1974 49.1568 68.154 49.2128 68.136C49.2688 68.1179 49.323 68.1251 49.3772 68.1595C49.435 68.1956 49.4657 68.2552 49.473 68.3383C49.4784 68.4214 49.4585 68.4991 49.4133 68.5714C49.3573 68.6599 49.2724 68.7231 49.1604 68.7611C49.0484 68.799 48.9237 68.8026 48.7864 68.7701L48.7521 68.855L49.211 69.0429L49.2471 68.9869L49.1604 68.8803C49.2381 68.855 49.3031 68.8243 49.3573 68.7882C49.4115 68.752 49.4603 68.6978 49.5055 68.6292C49.5832 68.51 49.6139 68.3871 49.5976 68.2643C49.5814 68.1414 49.5272 68.0493 49.435 67.9896C49.3591 67.9409 49.2778 67.9264 49.1929 67.9445C49.108 67.9625 49.0159 68.0149 48.9147 68.1017L48.7178 68.2715C48.6401 68.3365 48.5751 68.3781 48.5209 68.3961C48.4667 68.4124 48.4161 68.407 48.3727 68.3781C48.3239 68.3455 48.2968 68.2968 48.2914 68.2299C48.286 68.1631 48.3059 68.0944 48.351 68.0258C48.4034 67.9445 48.4793 67.8849 48.5769 67.8487C48.6744 67.8126 48.7864 67.8017 48.9129 67.818L48.9382 67.7295L48.5317 67.5886L48.4938 67.6464ZM46.8768 70.0908L46.9418 70.1396L46.9744 70.0944C47.0015 70.0583 47.0268 70.0384 47.0521 70.0384C47.0773 70.0384 47.1099 70.051 47.1478 70.0799L47.8669 70.6075C47.9319 70.6544 47.9662 70.6906 47.9698 70.7123C47.9734 70.7358 47.9608 70.7683 47.9319 70.808L47.9048 70.846L47.9716 70.8947L48.2752 70.481L48.2101 70.4322L48.1884 70.4611C48.1541 70.5081 48.1252 70.5334 48.1017 70.5334C48.08 70.5334 48.0421 70.5153 47.9915 70.4792L47.6537 70.2317L47.7548 70.0944L48.5678 70.0817L48.7467 69.836L48.6798 69.7873L48.6654 69.8053C48.6401 69.8397 48.6112 69.8631 48.5787 69.8758C48.5462 69.8884 48.4992 69.8957 48.4396 69.8993L47.8777 69.9246C47.9662 69.7981 48.0096 69.6843 48.0042 69.5831C47.9987 69.4819 47.9518 69.397 47.8596 69.3302C47.6754 69.1947 47.4838 69.2633 47.2833 69.5361L46.8768 70.0908ZM47.1695 69.8722L47.5814 70.1739L47.744 69.9517C47.8199 69.8487 47.8578 69.762 47.8614 69.6897C47.8632 69.6192 47.8271 69.556 47.7512 69.5C47.6826 69.4494 47.6175 69.4332 47.5561 69.4476C47.4947 69.4639 47.4333 69.5108 47.3736 69.5921L47.1695 69.8722ZM43.8416 72.3599L43.8778 72.434C43.9211 72.4123 43.9555 72.4051 43.9807 72.4105C44.006 72.4177 44.0404 72.4394 44.0819 72.4756L45.0069 73.3211L45.128 73.2614L45.0105 72.0112C45.0051 71.957 45.0069 71.9155 45.0178 71.892C45.0286 71.8667 45.0557 71.8432 45.0991 71.8215L45.0629 71.7493L44.6926 71.9336L44.7287 72.0058L44.7666 71.986C44.7974 71.9697 44.8226 71.9625 44.8407 71.9643C44.857 71.9661 44.8714 71.9751 44.8805 71.9932C44.8877 72.0094 44.8931 72.0347 44.8949 72.0673L45.0069 73.088L44.259 72.3852C44.2337 72.3617 44.2174 72.3401 44.2084 72.3238C44.1994 72.3075 44.2012 72.2913 44.2102 72.2786C44.2192 72.2642 44.2409 72.2497 44.277 72.2317L44.3114 72.2136L44.2752 72.1395L43.8416 72.3599ZM42.8534 72.8387L42.8805 72.9164L42.9184 72.9019C42.9708 72.8839 43.007 72.8821 43.0268 72.8965C43.0467 72.911 43.0666 72.9471 43.0865 73.0031L43.3809 73.8486C43.4026 73.9082 43.4062 73.9498 43.3954 73.9715C43.3846 73.9931 43.3556 74.013 43.3105 74.0293L43.2707 74.0419L43.2978 74.1196L43.7784 73.9516L43.7513 73.8739L43.7134 73.8866C43.661 73.9046 43.623 73.9064 43.6032 73.892C43.5833 73.8775 43.5634 73.8432 43.5453 73.7908L43.2563 72.9652C43.2328 72.8965 43.2256 72.8495 43.2364 72.8224C43.2472 72.7971 43.2743 72.7755 43.3213 72.761L43.3575 72.7484L43.3304 72.6707L42.8534 72.8387ZM40.9817 73.1603L40.9871 73.2416L41.0215 73.2398C41.0648 73.2362 41.0955 73.238 41.1136 73.2452C41.1335 73.2524 41.1443 73.2651 41.1515 73.2849C41.1569 73.3048 41.1624 73.3409 41.166 73.3915L41.231 74.2497C41.2364 74.3183 41.231 74.3653 41.2166 74.3888C41.2021 74.4123 41.1624 74.4267 41.0991 74.4322L41.0757 74.434L41.0811 74.5153L41.5327 74.4809L41.5273 74.3996C41.4496 74.4051 41.4008 74.3978 41.381 74.3743C41.3629 74.3527 41.3503 74.3075 41.3448 74.2407L41.2726 73.2723L42.0964 74.4376L42.212 74.4285L42.1289 73.3175C42.1253 73.256 42.1307 73.2145 42.1488 73.1892C42.1669 73.1639 42.203 73.1494 42.2554 73.1458L42.2807 73.144L42.2753 73.0627L41.829 73.097L41.8344 73.1783L41.867 73.1765C41.9139 73.1729 41.9483 73.182 41.9718 73.2018C41.9934 73.2235 42.0079 73.2651 42.0133 73.3265L42.0711 74.0997L41.3882 73.1296L40.9817 73.1603ZM38.8715 73.2849V73.3662H38.9203C38.9691 73.3662 39.0034 73.3753 39.0179 73.3933C39.0341 73.4114 39.0414 73.4493 39.0414 73.5053V74.172C39.0414 74.3382 39.0956 74.4629 39.2022 74.5442C39.3087 74.6255 39.428 74.667 39.5617 74.667C39.7152 74.667 39.8417 74.6201 39.9411 74.5279C40.0404 74.4358 40.0892 74.3039 40.0892 74.1341V73.5072C40.0892 73.453 40.0983 73.415 40.1163 73.3969C40.1344 73.3771 40.1687 73.368 40.2211 73.368H40.2518V73.2867H39.8056V73.368H39.8435C39.8959 73.368 39.9302 73.3789 39.9483 73.4024C39.9646 73.4259 39.9736 73.4638 39.9736 73.5162V74.1033C39.9736 74.228 39.9573 74.3147 39.9266 74.3671C39.8959 74.4195 39.8489 74.4629 39.7857 74.4972C39.7225 74.5315 39.6574 74.5496 39.5906 74.5496C39.5274 74.5496 39.4677 74.5351 39.4081 74.5044C39.3485 74.4737 39.3033 74.4322 39.2726 74.378C39.2419 74.3238 39.2256 74.2388 39.2256 74.1214V73.509C39.2256 73.4548 39.2329 73.4168 39.2509 73.3988C39.2672 73.3789 39.3033 73.3698 39.3593 73.3698H39.3919V73.2885H38.8715V73.2849ZM39.8038 56.3096C35.6756 56.3096 32.3098 59.6754 32.3098 63.8036C32.3098 67.9318 35.6756 71.2976 39.8038 71.2976C43.932 71.2976 47.2978 67.9318 47.2978 63.8036C47.2978 59.6772 43.9302 56.3096 39.8038 56.3096Z" fill="#A4130E"/>
<path fill-rule="evenodd" clip-rule="evenodd" d="M38.3548 69.3284V70.6147C38.3476 70.687 38.3747 70.7213 38.4361 70.7141H38.5897V70.7954H37.8508V70.7141H37.9953C38.0477 70.7141 38.0766 70.6834 38.0766 70.6237V69.6156C37.9827 69.6753 37.8923 69.715 37.8074 69.7331L37.7713 69.6716C37.9538 69.5867 38.1055 69.4729 38.232 69.3284H38.3548Z" fill="#A4130E"/>
<path fill-rule="evenodd" clip-rule="evenodd" d="M39.1028 70.8134L39.0504 70.7484C39.3141 70.6653 39.484 70.472 39.5544 70.1649C39.4767 70.2245 39.3972 70.2516 39.3196 70.2462C39.0684 70.2353 38.9347 70.089 38.9239 69.8126C38.942 69.5127 39.0991 69.3519 39.3918 69.3266C39.7026 69.3519 39.8688 69.5542 39.8869 69.939C39.8561 70.4124 39.596 70.705 39.1028 70.8134ZM39.2202 69.7692C39.2094 70.0275 39.2617 70.1486 39.381 70.1378C39.4334 70.145 39.4984 70.1197 39.5689 70.0655C39.5797 69.9752 39.5869 69.892 39.5869 69.8216C39.5797 69.5524 39.5165 69.4133 39.3882 69.4079C39.2726 69.4079 39.2148 69.5289 39.2202 69.7692Z" fill="#A4130E"/>
<path fill-rule="evenodd" clip-rule="evenodd" d="M40.1579 70.0745C40.1687 69.6138 40.3277 69.3663 40.6348 69.3284C40.9347 69.3645 41.0937 69.6138 41.1118 70.0745C41.1009 70.5424 40.9419 70.7882 40.6348 70.8134C40.3295 70.7954 40.1705 70.5479 40.1579 70.0745ZM40.456 69.7602V70.3618C40.4451 70.6256 40.5047 70.7538 40.6348 70.7412C40.7613 70.7574 40.8209 70.6183 40.8137 70.3256V69.8126C40.8137 69.5434 40.7541 69.4079 40.6348 69.4079C40.5084 69.4043 40.4487 69.5217 40.456 69.7602Z" fill="#A4130E"/>
<path fill-rule="evenodd" clip-rule="evenodd" d="M41.3556 70.7954V70.7141C41.3918 70.6779 41.4243 70.6382 41.455 70.5966C41.8398 70.2118 42.0097 69.9517 41.9681 69.8144C41.9573 69.6283 41.8778 69.5289 41.7332 69.5181C41.5959 69.5289 41.5074 69.6174 41.4731 69.78H41.3827C41.4315 69.4964 41.5833 69.3464 41.8416 69.3284C42.0928 69.3464 42.2283 69.4819 42.2463 69.7331C42.2463 69.883 42.1379 70.0583 41.9211 70.2552C41.7892 70.3744 41.6899 70.4738 41.623 70.5515H42.0566C42.1578 70.5623 42.2156 70.5063 42.2265 70.378H42.2969L42.2536 70.7918H41.3556V70.7954Z" fill="#A4130E"/>
<path fill-rule="evenodd" clip-rule="evenodd" d="M35.9194 58.082C36.0513 58.1091 36.2067 58.2229 36.3386 58.5445C36.3386 58.5445 36.3729 58.6276 36.6565 58.6276L38.3999 58.5788C38.3999 58.5788 39.2382 58.6782 38.7522 59.2653L38.4505 59.3159L36.886 59.4135C36.3331 59.4478 36.2265 59.8362 36.5554 59.8362L38.5842 59.7857C39.0449 59.7748 39.0612 60.5408 38.3692 60.5661L37.1768 60.6077C37.1768 60.6077 37.3575 60.7269 37.4948 60.8444C37.6881 61.0106 37.6737 61.0738 37.4786 61.2147C37.3593 61.3014 37.1534 61.3809 36.8426 61.296C36.8426 61.296 35.7026 61.0612 35.5509 60.1217C35.5509 60.1217 35.4714 59.7224 35.4497 59.2473C35.4298 58.8028 35.428 57.9844 35.9194 58.082Z" fill="#A4130E"/>
<path fill-rule="evenodd" clip-rule="evenodd" d="M43.4044 57.6845C43.2743 57.7224 43.1316 57.8489 43.0268 58.1813C43.0268 58.1813 43.0015 58.268 42.7161 58.2915L40.9744 58.3927C40.9744 58.3927 40.147 58.5625 40.6818 59.1063L40.9889 59.1316L42.5553 59.0937C43.1081 59.081 43.249 59.4586 42.9202 59.4875L40.895 59.6104C40.4361 59.6375 40.4848 60.4035 41.1768 60.3692L42.3692 60.3078C42.3692 60.3078 42.2337 60.4143 42.1126 60.53C41.8814 60.7522 41.9067 60.8678 42.2174 60.9834C42.3457 61.0304 42.5264 61.0485 42.7612 60.9618C42.7612 60.9618 43.8777 60.6311 43.9464 59.6827C43.9464 59.6827 43.9916 59.278 43.9717 58.8028C43.9554 58.3602 43.8868 57.5454 43.4044 57.6845Z" fill="#A4130E"/>
<path fill-rule="evenodd" clip-rule="evenodd" d="M39.9736 56.9944C40.1308 57.1642 40.2012 57.4334 40.1542 57.8525L40.2934 61.2978L44.9473 61.1966C45.7296 61.1804 45.6194 62.1271 44.9979 62.1271H43.9157C43.9157 62.1271 44.2174 62.3276 44.2174 62.5046C44.2174 62.5046 44.2192 64.2716 44.1614 65.4712C44.118 66.3691 44.1198 66.9147 43.0575 67.2236C42.6203 67.3501 42.3186 67.4784 42.1813 66.996C42.1379 66.8442 42.1271 66.6943 42.2572 66.6943C42.2572 66.6943 43.4008 66.5859 42.9907 65.8542L41.4514 65.9427C40.895 65.9752 40.6547 65.3808 41.072 65.1424L43.0485 65.0394C43.2653 65.0285 43.2707 64.6961 43.0557 64.6473L41.054 64.6672C40.5409 64.6726 40.4758 64.0602 41.0088 63.9174C41.1569 63.8777 41.3936 63.8398 41.7622 63.8271L43.1732 63.7675C43.3285 63.7603 43.2888 63.3538 43.1424 63.3538L40.9835 63.3935C40.8624 63.3953 40.7703 63.3953 40.7089 63.3502C40.5933 63.2652 40.568 62.9346 40.6493 62.8317C40.689 62.7811 40.754 62.7323 40.857 62.6853C40.857 62.6853 41.8706 62.5119 42.8624 62.492C42.8624 62.492 43.6393 62.4053 43.2292 62.0819L40.3819 62.2752V65.379C40.3819 65.379 41.0503 66.8876 42.0205 67.6211C42.0205 67.6211 42.6384 68.1089 43.0322 68.3618C43.2617 68.51 43.5489 68.7231 43.0521 68.967C42.8985 69.0429 42.6474 69.0429 42.2355 68.8496C42.2355 68.8496 40.792 68.2028 40.0585 66.716C40.0585 66.716 38.9076 68.9183 37.4569 69.3681C37.1426 69.4657 36.8445 69.5343 36.8372 69.0863C36.8336 68.8352 37.1227 68.7069 37.3503 68.5407C37.9989 68.0655 39.175 66.9815 39.3376 65.2724L39.2997 62.5932C39.2997 62.5932 39.2997 62.3673 38.848 62.3673L36.2248 62.4812C36.2248 62.4812 35.9791 62.7449 36.5825 62.7449L38.7902 62.6889C38.7902 62.6889 39.6773 63.0286 38.8083 63.576L36.5066 63.6898V64.0475L38.7703 64.0656C38.7703 64.0656 39.5436 64.3294 38.7884 64.8967L36.6006 65.0105C36.6006 65.0105 36.4307 65.2941 36.6945 65.2941L38.9022 65.2562C38.9022 65.2562 39.3629 65.847 38.5825 66.1613L37.0161 66.2932C37.0161 66.2932 36.6927 66.2932 36.8137 66.5154C36.9474 66.7611 37.1678 66.7665 37.428 66.8045C37.6502 66.8388 37.6141 66.8045 37.708 67.0448C37.7984 67.2796 37.8598 67.6121 37.4677 67.6121C37.4677 67.6121 35.6575 67.7638 35.6376 65.8759L35.3937 63.1785C35.3937 63.1785 35.3178 62.7829 35.6015 62.6311C35.6015 62.6311 35.6195 62.5552 35.4136 62.5552C35.3034 62.5552 34.8788 62.5281 34.5012 62.5155C33.6196 62.4884 33.8364 61.5634 34.4326 61.5634L39.1317 61.3899L39.3376 61.3213C39.287 60.1723 39.2365 59.025 39.1877 57.876C39.1714 57.5147 39.1786 57.3539 39.2509 57.1588C39.4135 56.7234 39.5562 56.5427 39.9736 56.9944Z" fill="#A4130E"/>
<path fill-rule="evenodd" clip-rule="evenodd" d="M122.182 56.8427C121.977 56.8572 121.78 56.8698 121.585 56.8915C121.591 57.3215 121.578 57.6358 121.298 58.0658C120.942 58.12 120.644 57.9195 120.429 57.8346C120.427 57.6991 120.425 57.5654 120.424 57.4299C120.724 57.139 121.023 56.8499 121.322 56.5681C121.625 56.606 121.954 56.5392 122.182 56.8427ZM122.492 57.5202C121.943 57.8057 121.907 57.802 121.602 58.3061C122.203 58.6458 122.377 58.8896 122.682 59.0378C123.152 58.756 123.32 58.6367 123.312 58.0893C122.982 58.0893 122.955 58.0423 122.776 57.9177C122.642 57.9628 122.51 58.017 122.377 58.0712C122.398 57.7713 122.512 57.6539 122.492 57.5202ZM123.17 60.223C123.533 59.316 124.165 58.6024 125.226 58.5175C124.812 58.8589 123.614 60.0531 123.17 60.223ZM118.216 61.2166C117.466 60.4687 118.169 59.0197 117.571 58.2664C118.292 58.158 119.061 60.4398 118.644 61.1949C118.501 61.2004 118.359 61.204 118.216 61.2166ZM121.5 63.4406C121.528 63.437 121.553 63.4334 121.589 63.4262C122.306 63.0811 123.531 62.5066 123.967 61.8074C123.948 60.4253 122.393 61.4714 121.575 61.6213C122.247 61.1986 122.919 60.7758 123.6 60.3603C124.913 59.7821 125.898 58.6945 127 57.7768C126.698 56.5392 124.747 58.0748 124.003 58.391C124.001 58.2302 125.294 55.5184 125.5 54.9204C125.867 54.3152 125.869 53.7913 125.569 53.3468C124.873 53.4263 123.898 53.7262 123.448 54.1905C123.466 54.2393 123.493 54.2845 123.52 54.3315C123.994 54.2935 124.16 54.1833 124.427 54.1345C124.369 55.1318 123.992 56.261 123.497 57.2655C123.168 57.3666 122.958 57.0776 122.823 56.9457C122.83 56.877 122.839 56.8084 122.846 56.747C122.917 56.7452 122.998 56.7415 123.078 56.7452C123.323 56.4543 123.376 56.3621 123.372 56.0496C122.705 55.6015 122.715 55.6088 121.932 55.7027C121.932 55.6521 121.939 55.5997 121.948 55.5473C122.478 55.1047 122.948 54.906 122.886 54.2899C122.239 53.9828 121.753 53.5673 121.042 53.7082C121.043 53.8093 121.349 53.9918 121.547 54.214C121.493 54.8301 121.336 55.1156 121.112 55.7497C120.926 55.8111 120.749 55.8725 120.57 55.9412C120.563 56.0098 120.554 56.0785 120.547 56.1472C120.628 56.1598 120.716 56.1724 120.807 56.1923C120.812 56.5374 120.467 56.8608 120.212 57.1769C120.203 56.5356 119.13 55.5582 118.478 55.4895C118.538 55.9123 119.06 56.2808 119.182 56.8445C119.461 57.0649 119.287 58.0279 119.293 58.4488C119.898 58.382 120.209 58.2754 120.801 58.4994C120.704 59.139 120.093 59.569 119.499 59.8544C119.473 59.9845 119.448 60.1146 119.423 60.2537C120.229 60.494 120.662 59.5671 121.092 58.9709C121.332 58.9691 121.73 59.2709 121.849 59.6159C120.91 60.129 119.602 61.045 118.64 61.1913C118.498 61.1967 118.355 61.2004 118.212 61.213C118.16 61.2473 118.106 61.2799 118.062 61.3124C118.071 61.3702 118.082 61.428 118.1 61.493C119.381 61.8995 121.009 60.8842 122.185 60.1236C122.283 60.1001 122.389 60.0766 122.496 60.0513C122.507 60.2266 122.518 60.4109 122.539 60.5933C122.062 60.9366 120.724 61.6123 120.821 62.2301C121.71 62.6276 122.384 61.6719 123.275 61.5382C122.893 62.2157 121.575 62.9564 121.5 63.4406ZM116.509 65.0485C115.894 64.3891 115.602 63.1678 116.08 62.2934C116.44 62.4921 117.864 64.2879 117.016 64.9311C116.846 64.9636 116.677 65.0052 116.509 65.0485ZM121.5 63.4406C121.528 63.437 121.553 63.4334 121.589 63.4262C121.735 63.6827 121.891 63.9465 122.046 64.2102C122.875 64.1615 123.173 63.829 123.854 63.4045C124.362 63.3286 125.533 63.4713 124.991 64.3638C124.257 64.8209 123.347 64.8498 122.548 65.1894C122.548 65.24 122.875 66.3981 122.911 66.427C122.929 67.7838 123.287 68.5155 122.519 69.8217C122.243 69.8723 121.977 69.9211 121.71 69.9789C120.864 69.4983 118.124 68.604 117.976 68.221C119.078 67.9536 120.554 68.9708 121.968 68.604C122.077 67.3213 121.706 66.3294 121.692 65.2346C119.434 65.7712 118.003 66.848 116.03 68.0765C115.352 68.0783 114.294 67.6718 114.615 67.0232C114.819 66.9582 114.819 66.9582 115.071 67.0467C117.331 65.979 119.222 65.278 121.602 64.512C121.598 64.0747 121.228 63.811 121.5 63.4406ZM66.8727 58.7632C66.8727 58.7885 66.8745 58.812 66.8745 58.8373C66.4915 59.5039 66.309 59.6828 65.4924 59.3774C65.263 58.3766 65.0335 57.3757 64.8041 56.3748C65.6785 56.9078 66.6143 57.7027 66.8727 58.7632ZM68.645 63.2075C68.598 63.0883 68.5583 62.9781 68.5204 62.8661C68.3325 62.7902 68.1518 62.7216 67.9729 62.6547C67.9621 62.5879 67.9513 62.521 67.9422 62.4632C68.2981 62.4993 69.01 62.1199 69.3008 62.7414C69.1111 63.016 68.9449 63.0648 68.645 63.2075ZM68.3849 64.8715C68.3831 64.7721 68.3794 64.6818 68.3776 64.5914C68.7462 64.0205 68.2385 63.9772 68.2259 63.5165C68.6541 63.5689 68.9756 63.6267 69.4779 63.8326C69.4833 64.0386 69.4887 64.2518 69.4941 64.4668C69.2719 64.4686 69.0587 64.4722 68.8456 64.483C68.7101 64.7089 68.6595 64.8426 68.3849 64.8715ZM66.8745 58.8373C66.9558 58.886 67.0461 58.9366 67.1365 58.9962C67.4436 58.8463 67.7598 58.6981 68.0777 58.55C68.2728 58.8734 68.0037 59.8725 67.9422 60.2862C65.8917 61.5292 63.8502 62.7505 61.8918 64.0693C61.3732 64.3114 61.0155 64.2428 60.5566 64.3927C60.6054 66.3349 63.2287 63.8616 63.4455 63.661C64.7137 62.7631 66.4951 61.148 67.9892 60.7342C67.9477 60.8607 67.9151 60.998 67.8826 61.1335C67.8212 61.1444 67.758 61.1534 67.6965 61.1715C67.673 61.3088 67.673 61.3088 67.7778 61.5816C68.3686 61.7333 68.7859 60.297 68.8943 59.9953C69.3586 59.7388 70.2855 59.0541 70.8383 59.1101C70.4878 59.3377 70.0578 59.54 69.8609 59.8978C70.3794 60.0242 70.7281 59.7063 71.0677 59.4208C71.5176 59.2781 72.0054 59.204 72.2963 58.7831C72.9846 58.5916 73.2791 58.6042 73.261 57.905C72.6504 57.6955 72.5149 57.5581 72.3089 57.5039C71.4851 58.0279 69.8898 59.3016 68.9793 59.4877C69.0497 59.1083 69.1292 58.7397 69.2087 58.3693C70.1229 57.9285 70.6631 58.1814 70.8166 56.8662C71.5176 56.4615 72.1011 55.9213 72.8654 55.5817C72.9575 54.9837 72.1264 54.8572 71.7705 54.8373C71.458 55.4715 70.4192 55.5943 69.7399 55.7786C69.8013 55.0379 69.8627 54.3044 69.9259 53.5709C70.3631 52.532 69.9657 51.2186 68.5547 51C68.6161 52.7723 68.598 54.5772 68.3596 56.3766C67.7543 56.7181 67.7543 56.7181 67.1202 56.9312C67.122 56.98 67.122 57.0306 67.1238 57.0884C67.6839 57.0722 68.1066 56.9096 68.3198 56.9312C68.7173 57.5636 67.1997 58.3928 66.8709 58.7632C66.8727 58.7885 66.8745 58.812 66.8745 58.8373ZM67.3207 66.8172C68.6306 66.548 67.496 63.8453 67.3117 62.8733C67.2665 62.8697 67.2232 62.8643 67.1871 62.8607C67.2087 63.7333 67.0516 64.5878 67.075 65.5273C66.8059 65.7874 66.9395 66.483 67.3207 66.8172ZM70.1192 67.4243C70.9973 67.3412 71.3062 67.2093 71.2863 66.4342C70.9304 66.0368 71.2358 64.3837 71.3225 64.3114C71.29 62.9781 71.1924 62.6475 71.8554 61.755C71.832 60.7993 71.4526 60.2428 70.4463 60.1814C69.6387 60.9781 68.8582 61.4388 67.7778 61.961C68.683 62.2175 69.5483 61.6737 70.3035 61.2835C70.3126 61.6285 70.2891 63.2365 70.0976 63.3972C70.0289 64.8191 70.1229 66.1596 70.1192 67.4243ZM69.1726 67.2454C69.9512 67.4478 71.9006 68.2716 72.5131 68.8841C72.5076 69.0394 72.504 69.2038 72.4986 69.3664C72.1662 69.5778 72.1138 69.6302 71.7127 69.5905C71.0406 69.0701 69.1906 67.9518 69.1726 67.2454ZM69.0804 67.1533C68.2729 67.9572 66.6523 69.9771 65.3099 70.0042C65.4147 69.5381 65.6622 69.5055 66.0561 69.2508C66.9739 68.277 66.9739 68.277 67.4725 67.5815C68.1283 66.4324 68.1681 66.2229 68.2728 66.1108C68.141 65.4478 67.9711 65.4641 68.3885 65.072C69.0389 65.1389 69.4309 65.5146 69.6604 66.1885C69.4652 66.5029 69.2683 66.8281 69.0804 67.1533ZM84.9916 61.166C84.9916 61.0938 84.9916 61.0215 84.9916 60.9492C85.6601 60.6818 85.8588 59.8363 85.857 59.1932C86.5435 59.569 86.1027 60.8968 86.0846 61.6755C85.4541 61.652 85.38 61.5256 84.9916 61.166ZM84.296 58.3314C84.296 59.139 83.6565 60.0495 83.521 60.9583C83.1687 61.278 83.53 62.3096 83.0802 63.0016C81.7794 63.0829 81.409 61.4172 81.2627 60.4488C81.7143 60.5734 81.9944 60.8065 82.3015 61.3214C82.4099 61.3214 82.5183 61.3196 82.6267 61.3196C83.2139 60.3277 83.6999 59.3811 84.1515 58.344C84.1967 58.3332 84.2418 58.3332 84.296 58.3314ZM87.0349 63.8887C87.9021 63.5924 87.6853 63.1497 87.6835 62.3151C87.3222 61.9917 87.483 60.2212 87.492 59.8508C87.7088 59.9574 88.5218 60.4325 88.7838 60.0495C88.4315 59.5527 88.2598 59.1914 88.4405 58.6367C88.3592 58.6096 88.2779 58.5825 88.2056 58.5663C88.2056 58.812 88.0882 59.1932 87.9617 59.4569C87.8262 59.4587 87.6907 59.4587 87.5643 59.4606C87.483 58.7542 87.23 58.5374 86.6429 58.4055C86.8326 58.7578 86.9771 59.8634 86.6447 60.2374C86.717 61.1986 86.8181 62.2771 86.3845 63.1949C86.5562 63.4659 86.5562 63.4659 87.0349 63.8887ZM84.3864 58.2501C84.5761 58.4398 84.549 59.1914 84.5598 59.5545C84.0901 59.9122 84.5165 61.7405 84.0377 62.1705C84.0377 63.1859 82.8652 65.1985 82.1787 65.6754C81.6547 65.679 81.5644 65.5887 81.3476 65.5905C81.3566 65.6538 81.3657 65.726 81.3747 65.7983C82.5761 66.8335 83.4885 65.0305 84.128 64.1289C84.5797 63.1461 84.5418 62.0314 84.9934 61.166C84.9934 61.0938 84.9934 61.0215 84.9934 60.9492C85.0837 60.0604 85.4523 59.0956 85.3349 58.3079C85.1361 58.1905 84.9374 58.0748 84.7477 57.9592C84.6393 57.9881 84.5399 58.0152 84.4406 58.0514C84.4207 58.1128 84.4026 58.1778 84.3864 58.2501ZM89.6365 66.4017C89.4107 65.932 89.2553 64.5643 89.1577 64.4921C89.0927 62.4885 89.0385 60.4849 88.9825 58.4813C89.3709 58.0893 88.8362 56.6512 88.8633 56.1887C90.0376 55.401 90.1098 57.6214 90.1117 58.2103C90.0755 58.2374 90.0484 58.2645 90.0213 58.2935C90.0231 60.9781 89.9165 63.6628 89.819 66.3475C89.7539 66.3638 89.6907 66.3818 89.6365 66.4017ZM97.1377 67.343C97.0817 67.0557 97.0817 67.0557 97.1612 66.96C99.8694 66.4451 102.648 64.1289 102.952 61.5924C101.703 62.3295 100.457 63.0684 99.219 63.8056C98.5036 63.7116 98.0591 63.4695 98.1495 62.8607C98.453 62.848 98.7673 62.8372 99.0817 62.8336C103.148 61.148 103.148 61.148 103.26 61.0125C103.273 60.8065 103.555 59.8183 103.642 59.7496C103.718 58.5355 104.092 56.7325 103.484 55.7226C103.501 55.6377 103.515 55.5636 103.531 55.4877C104.485 55.4498 104.771 55.719 105.419 56.4019C105.248 57.8057 104.585 59.0613 104.494 60.5174C106.032 60.3368 106.845 58.5355 108.536 58.5518C108.552 58.6168 108.57 58.6801 108.597 58.7542C108.259 58.9818 106.601 59.7641 104.496 61.0016C104.446 61.3106 104.209 61.5996 104.261 61.923C105.833 63.3792 106.89 64.848 109.277 65.4713C109.269 65.5833 109.262 65.7043 109.255 65.8254C108.605 65.8507 106.816 66.2283 106.391 66.0024C105.439 64.68 105.439 64.68 104.135 62.4488C104.084 62.4325 104.032 62.4253 103.98 62.418C103.88 64.0151 101.02 66.2969 99.5279 66.9329C98.6138 67.146 98.6138 67.1461 97.1377 67.343Z" fill="#A4130E"/>
<path fill-rule="evenodd" clip-rule="evenodd" d="M67.4291 75.2959C67.2032 75.2959 67.093 75.3988 67.1057 75.603V76.322C66.6865 76.5027 66.28 76.5948 65.897 76.6093C64.7805 76.5858 64.2042 76.051 64.1662 75.014C64.2349 74.0655 64.7931 73.5506 65.841 73.473C66.1409 73.4964 66.3902 73.5452 66.5799 73.6085C66.6992 73.6319 66.7931 73.6428 66.8527 73.6428C66.9124 73.6428 66.9539 73.6229 66.9774 73.5886H67.1075V74.4594H66.9232C66.7805 73.968 66.4625 73.706 65.9675 73.6807C65.2611 73.7349 64.8871 74.1775 64.851 75.0122C64.9015 75.8722 65.2701 76.3347 65.9675 76.3979C66.1752 76.3979 66.3414 76.36 66.4751 76.2805V75.5994C66.5131 75.3952 66.318 75.2923 65.8988 75.2923V75.1026H67.4291V75.2959ZM70.2384 73.7385C70.5022 73.7241 70.6304 73.8885 70.616 74.2336V75.4097C70.5925 76.0041 70.2926 76.3004 69.7163 76.3004C69.1634 76.2859 68.8852 76.0239 68.8852 75.5036V74.0601C68.8852 73.8614 68.9954 73.753 69.2122 73.7385H69.2809V73.5488H67.841V73.7385H67.9295C68.1607 73.7241 68.271 73.8307 68.2565 74.0601V75.5036C68.271 76.2281 68.7172 76.593 69.6079 76.6075C70.4624 76.584 70.8906 76.1649 70.9051 75.3537V74.1378C70.8816 73.8704 71.0207 73.7385 71.3206 73.7385H71.3585V73.5488H70.1679V73.7385H70.2384ZM71.8427 73.7385C72.083 73.7385 72.1986 73.8596 72.1842 74.0981V76.0384C72.1842 76.2769 72.0685 76.3925 71.8427 76.378H71.7867V76.5677H73.2501V76.378H73.176C72.9213 76.3925 72.802 76.2715 72.8165 76.0185V74.0981C72.802 73.8596 72.9231 73.7385 73.176 73.7385H73.2501V73.5488H71.7867V73.7385H71.8427ZM76.7279 75.6012C76.6303 76.1215 76.4515 76.3546 76.1877 76.3022H74.7623L76.82 73.818V73.5506H74.148L74.1155 74.3672H74.2961C74.3196 73.9879 74.4714 73.8036 74.7442 73.818H75.9908L73.9366 76.3022V76.5696H76.8526L76.9086 75.6012H76.7279ZM81.1831 76.5696V76.3799H81.109C80.8561 76.3943 80.735 76.2733 80.7495 76.0203V74.08C80.735 73.8505 80.8507 73.7403 81.091 73.7403H81.1831V73.5506H79.7016V73.7403H79.7378C79.9907 73.7403 80.1154 73.8614 80.1154 74.0999V74.8587H78.5833V74.08C78.5689 73.8505 78.6899 73.7403 78.9429 73.7403H79.0169V73.5506H77.5355V73.7403H77.6095C77.8354 73.7403 77.951 73.8524 77.951 74.08V76.0203C77.951 76.2733 77.8354 76.3943 77.6095 76.3799H77.5355V76.5696H79.0169V76.3799H78.9429C78.6899 76.3943 78.5689 76.2733 78.5833 76.0203V75.1459H80.1154V76.0023C80.1154 76.2696 79.9997 76.3961 79.7739 76.3817H79.6998V76.5696H81.1831ZM81.8118 75.1062C81.8805 76.0691 82.4387 76.5696 83.4866 76.6093C84.5706 76.5714 85.1523 76.0312 85.2354 74.9942C85.1668 74.0312 84.6121 73.5163 83.5787 73.4531C82.4712 73.529 81.8805 74.08 81.8118 75.1062ZM83.4685 73.6608C84.1279 73.715 84.4929 74.2209 84.5525 75.182C84.5164 75.995 84.1984 76.4124 83.5968 76.4359C82.8994 76.3817 82.5309 75.8613 82.4947 74.8749C82.5164 74.1179 82.8452 73.715 83.4685 73.6608ZM88.1875 73.7385C88.4513 73.7241 88.5795 73.8885 88.5651 74.2336V75.4097C88.5416 76.0041 88.2417 76.3004 87.6654 76.3004C87.1125 76.2859 86.8343 76.0239 86.8343 75.5036V74.0601C86.8343 73.8614 86.9445 73.753 87.1613 73.7385H87.23V73.5488H85.7901V73.7385H85.8768C86.108 73.7241 86.2182 73.8307 86.2038 74.0601V75.5036C86.2182 76.2281 86.6645 76.593 87.5552 76.6075C88.4079 76.584 88.8379 76.1649 88.8523 75.3537V74.1378C88.8288 73.8704 88.968 73.7385 89.2679 73.7385H89.304V73.5488H88.1134V73.7385H88.1875ZM93.2696 73.7385C93.5334 73.7241 93.6616 73.8885 93.6472 74.2336V75.4097C93.6237 76.0041 93.3238 76.3004 92.7475 76.3004C92.1946 76.2859 91.9164 76.0239 91.9164 75.5036V74.0601C91.9164 73.8614 92.0266 73.753 92.2434 73.7385H92.3121V73.5488H90.8722V73.7385H90.9589C91.1901 73.7241 91.3003 73.8307 91.2859 74.0601V75.5036C91.3003 76.2281 91.7466 76.593 92.6373 76.6075C93.49 76.584 93.92 76.1649 93.9344 75.3537V74.1378C93.911 73.8704 94.0501 73.7385 94.35 73.7385H94.3879V73.5488H93.1973V73.7385H93.2696ZM97.6905 76.5696H97.9398V73.9879C97.9163 73.8234 98.041 73.7403 98.3174 73.7403H98.3734V73.5506H97.1828V73.7403H97.2388C97.5622 73.7006 97.7049 73.8415 97.6724 74.1577V75.6211L95.7754 73.5488H94.8378V73.7385C94.9805 73.753 95.1015 73.7819 95.1973 73.8307V76.0727C95.1973 76.2913 95.0817 76.3943 94.8558 76.378H94.8179V76.5677H95.9398V76.378C95.6038 76.4033 95.4502 76.2715 95.4882 75.9788V74.1559L97.6905 76.5696ZM98.9298 73.7385C99.1701 73.7385 99.2839 73.8596 99.2713 74.0981V76.0384C99.2713 76.2769 99.1557 76.3925 98.9298 76.378H98.8738V76.5677H100.337V76.378H100.263C100.01 76.3925 99.8892 76.2715 99.9036 76.0185V74.0981C99.8892 73.8596 100.01 73.7385 100.263 73.7385H100.337V73.5488H98.8738V73.7385H98.9298ZM102.661 76.6075L103.616 74.2498C103.75 73.8849 103.931 73.715 104.156 73.7385H104.175V73.5488H103.002V73.7385H103.112C103.365 73.753 103.459 73.8397 103.398 74.0059L102.697 75.7909L101.978 74.1577C101.904 74.0059 101.891 73.9047 101.942 73.8505C101.989 73.7783 102.108 73.7385 102.301 73.7385H102.375V73.5488H100.769V73.7385H100.805C101.007 73.6988 101.17 73.8307 101.289 74.1378L102.373 76.6075H102.661ZM107.024 74.2498H107.202L107.146 73.5488H104.61V73.7385H104.661C104.937 73.7241 105.071 73.8397 105.058 74.0782V76.0384C105.058 76.2769 104.939 76.3925 104.698 76.378H104.518V76.5677H107.296L107.347 75.809H107.166C107.098 76.1631 106.922 76.3239 106.644 76.3004H105.869C105.726 76.3239 105.667 76.2462 105.689 76.0565V75.182H106.371C106.671 75.1676 106.81 75.285 106.787 75.5217H106.968V74.5533H106.787C106.801 74.8063 106.686 74.9183 106.446 74.893H105.689V73.8126H106.698C106.881 73.7927 106.986 73.9336 107.024 74.2498ZM109.311 75.276C109.481 75.4548 109.643 75.6644 109.8 75.9029C109.907 76.0691 110.017 76.1992 110.124 76.3022C110.295 76.5063 110.632 76.6039 111.134 76.5894H111.419V76.4395C111.157 76.425 110.949 76.322 110.805 76.1323C110.698 76.0294 110.57 75.874 110.427 75.6554C110.261 75.4169 110.122 75.2471 110.012 75.1441C110.445 75.0176 110.677 74.7593 110.698 74.3654C110.698 74.1613 110.624 73.977 110.482 73.8162C110.279 73.5886 109.855 73.4711 109.204 73.4711C109.024 73.4856 108.771 73.4946 108.447 73.5109C108.337 73.5109 108.18 73.5253 107.978 73.5488H107.853V73.7385H107.94C108.203 73.7385 108.332 73.8596 108.317 74.0981V76.0185C108.332 76.2859 108.198 76.4033 107.92 76.378H107.851V76.5677H109.452V76.378H109.309C109.054 76.3925 108.935 76.2715 108.95 76.0185V75.276H109.311ZM109.204 73.6807C109.735 73.7042 110.003 73.9427 110.012 74.3853C110.012 74.8659 109.717 75.1007 109.13 75.0863H108.95V73.6807H109.204ZM112.158 76.5497C112.173 76.5117 112.2 76.4864 112.25 76.472C112.265 76.472 112.315 76.4919 112.411 76.5298C112.583 76.5533 112.789 76.584 113.043 76.6075C113.658 76.584 113.985 76.2913 114.035 75.7331C114.035 75.5199 113.943 75.3049 113.762 75.0863C113.605 74.9454 113.365 74.7846 113.043 74.5949C112.669 74.3907 112.485 74.201 112.485 74.0258C112.509 73.8216 112.66 73.7042 112.933 73.6807C113.298 73.7042 113.547 73.9246 113.69 74.3275H113.871L113.784 73.5488H113.692C113.659 73.5741 113.645 73.5832 113.659 73.5687C113.622 73.594 113.6 73.6085 113.585 73.6085C113.562 73.6085 113.52 73.603 113.461 73.5886C113.229 73.5109 113.036 73.4711 112.884 73.4711C112.294 73.5109 111.979 73.7783 111.949 74.2679C111.949 74.6129 112.216 74.9345 112.756 75.2399C113.204 75.4783 113.425 75.706 113.425 75.921C113.401 76.2281 113.226 76.3835 112.902 76.3979C112.519 76.3979 112.252 76.154 112.109 75.6735H111.929L112.035 76.5479H112.158V76.5497ZM114.718 73.7385C114.958 73.7385 115.074 73.8596 115.06 74.0981V76.0384C115.06 76.2769 114.944 76.3925 114.718 76.378H114.662V76.5677H116.126V76.378H116.051C115.797 76.3925 115.678 76.2715 115.692 76.0185V74.0981C115.678 73.8596 115.799 73.7385 116.051 73.7385H116.126V73.5488H114.662V73.7385H114.718ZM119.081 73.7982C119.381 73.7349 119.547 73.9246 119.583 74.3672H119.764L119.696 73.4531H119.529C119.47 73.5308 119.401 73.5651 119.318 73.5506H117.116C117.056 73.5651 117.014 73.5561 116.991 73.5308C116.955 73.5163 116.922 73.4928 116.899 73.4531H116.756L116.664 74.3672H116.863C116.886 73.9246 117.052 73.7349 117.352 73.7982H117.911V76.0203C117.911 76.2733 117.791 76.3943 117.551 76.3799H117.39V76.5696H119.047V76.3799H118.94C118.649 76.4051 118.521 76.2877 118.543 76.0203V73.7982H119.081ZM123.099 74.08C123.206 73.8505 123.381 73.7403 123.621 73.7403V73.5506H122.523V73.7403H122.579C122.713 73.7548 122.787 73.7837 122.81 73.8325C122.846 73.8957 122.828 73.9933 122.76 74.1197L122.219 75.014L121.477 73.9879C121.417 73.9246 121.408 73.8668 121.444 73.818C121.477 73.7801 121.555 73.7548 121.676 73.7403H121.75V73.5506H120.236V73.7403H120.274C120.454 73.7259 120.588 73.8036 120.684 73.968L121.676 75.3537V76.0384C121.676 76.2769 121.56 76.3925 121.334 76.378H121.209V76.5677H122.798V76.378H122.723C122.433 76.3925 122.304 76.2715 122.326 76.0185V75.3519L123.099 74.08Z" fill="#A4130E"/>
</g>
<defs>
<filter id="filter0_d_185_298" x="0" y="0" width="154" height="157" filterUnits="userSpaceOnUse" color-interpolation-filters="sRGB">
<feFlood flood-opacity="0" result="BackgroundImageFix"/>
<feColorMatrix in="SourceAlpha" type="matrix" values="0 0 0 0 0 0 0 0 0 0 0 0 0 0 0 0 0 0 127 0" result="hardAlpha"/>
<feOffset dy="16"/>
<feGaussianBlur stdDeviation="6.5"/>
<feColorMatrix type="matrix" values="0 0 0 0 0 0 0 0 0 0 0 0 0 0 0 0 0 0 0.03 0"/>
<feBlend mode="normal" in2="BackgroundImageFix" result="effect1_dropShadow_185_298"/>
<feBlend mode="normal" in="SourceGraphic" in2="effect1_dropShadow_185_298" result="shape"/>
</filter>
</defs>
</svg>
