<svg width="154" height="157" viewBox="0 0 154 157" fill="none" xmlns="http://www.w3.org/2000/svg">
<g filter="url(#filter0_d_185_142)">
<rect width="128" height="128" transform="translate(13)" fill="white"/>
<path fill-rule="evenodd" clip-rule="evenodd" d="M62.0979 54.5497C62.0979 54.5497 62.5044 54.4944 62.9296 54.6424C62.9296 54.6424 63.1516 54.7717 63.7435 54.6237C63.7435 54.6237 65.3887 53.9212 65.4257 53.8285C65.4257 53.8285 66.0541 53.7732 66.1469 53.5512C66.1469 53.5512 66.2402 52.9968 66.3319 52.7566C66.3319 52.7566 66.5351 52.3126 66.9603 52.682C66.9603 52.682 67.4225 53.2558 67.5153 53.7545C67.5153 53.7545 67.6263 54.2725 67.4043 54.7534C67.4043 54.7534 65.6294 55.9369 65.1114 56.2511C65.1114 56.2511 64.4642 56.7315 65.0932 57.1385C65.0932 57.1385 65.4444 57.3788 65.6112 57.5267C65.6112 57.5267 65.9442 57.8962 65.5554 58.3954C65.5554 58.3954 65.0192 58.6544 64.9082 58.9134C64.9082 58.9134 64.89 59.4308 65.2964 59.6528C65.2964 59.6528 65.7586 60.485 65.7962 60.633C65.7962 60.633 66.1474 61.3543 65.6664 61.6867C65.6664 61.6867 65.1849 62.0197 65.0932 62.2599C65.0932 62.2599 64.9634 62.5559 65.5367 62.5559C65.5367 62.5559 65.9806 62.3527 66.4799 62.2969C66.4799 62.2969 67.2933 62.3892 66.8681 62.9254C66.4429 63.4621 66.8498 62.8331 66.8498 62.8331C66.8498 62.8331 66.2026 63.7018 65.8326 64.164C65.4627 64.6262 65.8144 64.0906 65.8144 64.0906C65.8144 64.0906 65.7769 64.349 65.9806 64.386C65.9806 64.386 67.0713 65.4215 67.3491 66.2907C67.3491 66.2907 67.4418 67.1963 66.4059 66.6971C66.4059 66.6971 65.7586 65.533 65.5924 65.1442C65.5924 65.1442 65.2042 64.8852 65.0562 65.089C65.0562 65.089 64.224 66.1797 64.1135 66.7899C64.1135 66.7899 63.4293 67.2516 63.5586 66.3094C63.5586 66.3094 64.2058 65.2922 65.0192 64.3303C65.0192 64.3303 65.4627 63.9796 65.3704 63.6836C65.3704 63.6836 65.1114 63.3694 64.89 63.7388C64.89 63.7388 63.0041 65.2735 61.5247 66.4387C61.5247 66.4387 60.545 66.7529 60.138 65.5882C60.138 65.5882 59.842 65.4032 61.8394 64.423C61.8394 64.423 62.8743 63.572 63.0593 62.9436C63.0593 62.9436 63.4663 62.1859 64.0578 61.3543C64.0578 61.3543 64.2985 60.6883 63.6325 60.8915C63.6325 60.8915 63.3001 61.1505 63.4476 59.5976C63.4476 59.5976 63.1151 59.4126 62.9113 59.6158C62.9113 59.6158 61.7279 60.855 61.0995 61.0395C61.0995 61.0395 60.2303 61.1135 60.3043 60.0593C60.3043 60.0593 60.249 59.7638 61.7467 58.5804C61.7467 58.5804 63.7618 56.8795 64.224 56.1953C64.224 56.1953 64.335 56.1583 64.5382 55.7519C64.5382 55.7519 64.8342 55.6409 65.1114 55.4371C65.1114 55.4371 65.2964 54.9567 65.1484 54.6794C65.0004 54.4017 65.1484 54.6054 65.1484 54.6054C65.1484 54.6054 64.483 54.8274 63.7805 55.6039C63.7805 55.6039 63.5403 56.4355 63.2256 56.1583C63.2256 56.1583 61.8019 55.4007 62.0979 54.5497Z" fill="#284345"/>
<path fill-rule="evenodd" clip-rule="evenodd" d="M82.1585 60.6973C82.1585 60.6973 81.6314 60.7251 81.4925 61.0581C81.4925 61.0581 81.7703 61.9729 80.9102 62.3059C80.9102 62.3059 80.1891 62.4539 80.0969 62.7038C80.0969 62.7038 80.1339 64.0347 80.4299 64.1918C80.4299 64.1918 82.048 65.5881 82.1955 66.4573C82.1955 66.4573 82.4727 67.4922 82.3435 67.9914C82.3435 67.9914 82.6668 68.2692 82.9902 68.0102C82.9902 68.0102 83.4712 67.0208 83.8594 64.6819C83.8594 64.6819 84.0074 64.0904 84.7007 64.4878L84.8026 64.7006C84.8026 64.7006 85.1259 64.9039 85.5511 64.5896C85.5511 64.5896 85.6804 62.3611 85.6434 61.8072C85.6434 61.8072 85.6343 61.1595 85.357 61.5665C85.357 61.5665 85.283 61.9086 85.2552 61.8163C85.2552 61.8163 84.95 61.9729 84.8299 61.7606C84.8299 61.7606 84.7838 58.8302 84.6546 58.4693C84.6546 58.4693 84.0535 57.3046 82.8701 56.5373C82.8701 56.5373 82.0287 56.3153 82.3065 57.1936C82.3065 57.1936 82.8888 57.8408 83.2771 58.4977C83.2771 58.4977 83.4524 59.6248 83.3323 60.9654C83.3323 60.9654 83.1564 62.5558 82.9441 63.2861C82.9441 63.2861 82.8599 63.5001 82.7821 63.7135C82.7746 63.7344 82.7671 63.7548 82.7596 63.7762C82.6765 64.0068 82.0566 63.9607 81.9826 63.7301C81.9826 63.7301 81.8722 63.2121 82.0749 62.2877C82.0749 62.2877 82.3156 61.3632 82.3247 60.938C82.3247 60.938 82.3344 60.7064 82.1585 60.6973Z" fill="#284345"/>
<path fill-rule="evenodd" clip-rule="evenodd" d="M87.1695 56.3065C87.1695 56.3065 86.4295 56.5285 86.3561 56.8239C86.3561 56.8239 86.1711 57.1011 86.5593 57.2304C86.5593 57.2304 86.5963 60.4852 86.3931 61.3169C86.3931 61.3169 86.0048 63.3137 86.0601 63.776C86.0601 63.776 85.4686 65.0698 85.6348 65.8281C85.6348 65.8281 85.7823 67.2892 86.467 68.0105C86.467 68.0105 87.28 68.8046 87.6317 67.7515C87.6317 67.7515 87.6875 67.0485 87.1877 66.2533C87.1877 66.2533 87.0585 65.5321 87.1143 64.6634C87.1143 64.6634 87.1877 64.1459 87.6129 64.3674C87.6129 64.3674 87.7057 64.5342 87.7797 64.5342C87.7797 64.5342 88.0199 64.5524 88.1309 64.4602L88.1679 64.2752L88.3159 64.2194L88.2972 62.0933L88.5191 62.0199C88.5191 62.0199 88.4451 61.2241 88.5374 61.0584C88.5374 61.0584 88.5191 60.8917 88.1309 60.9657C88.1309 60.9657 87.9835 60.4664 88.1127 60.3184C88.1127 60.3184 88.2232 60.3002 88.2784 60.2627C88.2784 60.2627 88.4639 58.3956 88.1127 57.4899C88.1127 57.4899 87.9647 56.5649 87.1695 56.3065Z" fill="#284345"/>
<path fill-rule="evenodd" clip-rule="evenodd" d="M89.6845 55.4188V56.473H89.8137L89.8689 63.3875L89.7209 63.4621L89.6287 64.941L89.4625 64.9962L89.4067 65.8654C89.4067 65.8654 89.13 66.0686 89.2035 66.6971C89.2035 66.6971 89.7955 68.7127 90.8303 69.3782C90.8303 69.3782 91.5146 69.4522 91.5698 68.8049L91.4041 68.5272L91.3483 66.7711L91.2373 66.7523L91.4041 62.2599H91.5698L91.7923 59.1354C91.7923 59.1354 91.8658 57.1197 90.7011 55.6221C90.7011 55.6221 90.0169 55.2156 89.6845 55.4188Z" fill="#284345"/>
<path fill-rule="evenodd" clip-rule="evenodd" d="M102.294 54.18C102.294 54.18 102.96 59.4772 102.765 61.391C102.765 61.391 102.599 62.5835 102.1 62.8055C102.1 62.8055 101.184 63.5541 99.9364 63.4152L99.4929 62.9712C99.4929 62.9712 99.1047 62.7771 98.8822 63.0549C98.8822 63.0549 98.6607 63.4152 98.7717 63.5541C98.7717 63.5541 99.132 63.7203 99.1873 64.0533C99.1873 64.0533 99.4372 64.6635 99.8811 65.0517C99.8811 65.0517 100.269 65.329 101.6 64.7466C101.6 64.7466 102.1 64.4689 102.266 64.3863C102.266 64.3863 102.343 65.3928 101.776 66.3606C101.755 66.396 101.734 66.4309 101.711 66.4663C101.074 67.4647 100.519 67.603 99.6586 67.7698C99.6586 67.7698 99.5203 68.0191 99.9085 68.1028C99.9085 68.1028 100.852 68.8514 101.018 69.1007C101.018 69.1007 101.656 69.4616 102.072 69.0181C102.072 69.0181 103.098 68.5741 103.292 66.3274C103.292 66.3274 103.542 65.5783 104.013 65.9113C104.013 65.9113 104.901 67.3258 105.705 67.9913C105.705 67.9913 106.343 68.269 106.953 68.4631C106.953 68.4631 108.562 68.4353 108.728 68.491C108.728 68.491 109.394 68.8514 109.782 68.7125C109.782 68.7125 109.976 68.0744 109.477 67.5757C109.477 67.5757 108.867 67.1317 107.12 66.7993C107.12 66.7993 106.87 66.8818 106.426 66.6877C106.426 66.6877 105.872 65.9949 105.594 65.6619C105.594 65.6619 104.769 64.9756 104.297 64.8919C104.297 64.8919 103.847 64.6147 104.235 64.2613C104.235 64.2613 104.18 63.6651 104.716 63.0919C104.716 63.0919 105.678 62.5186 107.822 62.0194C107.822 62.0194 108.025 61.7052 107.637 61.28C107.637 61.28 106.861 61.0028 106.528 60.614C106.528 60.614 105.77 60.2998 105.77 60.1148C105.77 60.1148 105.381 60.1518 105.363 60.836C105.363 60.836 105.548 61.28 104.956 61.3352C104.956 61.3352 104.549 61.4462 104.549 61.2982C104.549 61.2982 104.827 57.9147 104.716 56.676C104.716 56.676 104.531 54.069 102.96 54.0325C102.96 54.0325 102.423 53.8657 102.294 54.18Z" fill="#284345"/>
<path fill-rule="evenodd" clip-rule="evenodd" d="M120.321 53.9858C120.321 53.9858 120.071 54.5402 120.099 55.0673C120.099 55.0673 120.127 55.4003 119.684 55.4282C119.684 55.4282 119.351 55.4556 119.212 55.3172L119.351 55.4556C119.351 55.4556 119.184 55.1505 118.574 55.2341C118.574 55.2341 118.629 55.4282 118.463 55.4556L118.213 55.3446C118.213 55.3446 118.157 55.9553 118.324 56.0384C118.324 56.0384 118.574 55.8717 118.49 56.1768C118.49 56.1768 118.407 57.8128 118.546 58.2294C118.546 58.2294 118.823 58.2846 118.823 58.3956C118.823 58.3956 118.879 58.3399 118.962 58.6171C118.962 58.6171 119.156 58.756 119.545 58.7281C119.545 58.7281 119.517 58.6171 119.655 58.5066C119.655 58.5066 119.739 58.4509 119.905 58.3677C120.071 58.2846 119.905 58.2568 119.905 58.2568C119.905 58.2568 119.767 58.1458 119.849 57.9795C119.849 57.9795 119.711 57.8964 119.97 57.8224C119.97 57.8224 120.007 57.9886 120.044 57.5822C120.044 57.5822 119.933 56.8052 120.099 56.7682C120.099 56.7682 120.118 56.8422 120.229 56.4728C120.229 56.4728 120.469 56.5082 120.469 56.2513C120.469 56.2132 120.506 55.8995 120.506 55.8995C120.506 55.8995 120.913 55.6776 120.931 55.8995C120.931 55.8995 120.894 56.343 121.079 56.3065C121.079 56.3065 121.19 56.5468 121.19 56.6948C121.19 56.6948 121.338 56.676 121.393 56.9167C121.393 56.9167 121.819 57.1382 122.281 56.9167C122.281 56.9167 122.818 55.7328 123.224 55.4191C123.224 55.4191 123.538 55.4743 123.631 55.3633C123.631 55.3633 123.446 55.3076 123.705 55.1783C123.705 55.1783 124.112 55.1413 124.13 55.4191C124.13 55.4191 124.481 55.5113 124.721 55.4003C124.721 55.4003 124.777 55.7698 124.74 55.8808C124.74 55.8808 122.928 57.4342 122.078 58.3586C122.078 58.3586 121.911 58.5619 122.022 58.7469C122.022 58.7469 118.99 59.4681 117.954 60.0965C117.954 60.0965 117.123 60.5035 117.4 61.5754C117.4 61.5754 118.029 62.4076 118.38 62.6854C118.38 62.6854 118.86 61.9641 119.97 61.1137C119.97 61.1137 122.577 59.4123 124.223 59.3941C124.223 59.3941 124.185 59.6525 124.721 59.6343C124.721 59.6343 124.907 60.614 124.426 60.6697C124.426 60.6697 124.001 60.9657 123.816 61.1502C123.816 61.1502 123.649 61.2429 123.353 61.1137C123.353 61.1137 122.891 60.7807 122.54 61.1137C122.54 61.1137 121.893 61.2429 121.19 62.0751C121.19 62.0751 120.728 63.665 122.392 62.9808C122.392 62.9808 123.649 61.6869 123.353 63.147C123.353 63.147 123.169 63.887 122.873 64.294C122.873 64.294 121.985 64.5155 121.116 65.1069C121.116 65.1069 120.339 65.4957 119.582 65.3289C119.582 65.3289 118.749 64.9219 118.38 65.7724C118.38 65.7724 118.213 66.2351 119.323 66.3091C119.323 66.3091 121.116 66.9188 122.503 67.0298C122.503 67.0298 123.187 67.3445 122.281 67.64C122.281 67.64 119.933 67.751 119.23 67.899C119.23 67.899 118.546 68.4722 121.208 69.1564C121.208 69.1564 121.763 69.1929 121.911 69.3226C121.911 69.3226 123.094 69.6739 123.483 68.9902C123.871 68.3054 123.52 68.8974 123.52 68.8974C123.52 68.8974 124.352 68.3054 124.555 66.9745C124.555 66.9745 125.72 66.6603 126.441 66.1799C126.441 66.1799 127.015 64.7932 124.093 64.2382C124.093 64.2382 123.964 63.813 124.573 62.9996C124.573 62.9996 125.128 62.0564 125.387 61.6682C125.387 61.6682 126.09 61.5572 126.607 60.9469C126.607 60.9469 127.458 60.4107 126.571 59.5045C126.571 59.5045 126.534 59.0241 125.831 59.1721C125.831 59.1721 126.108 58.6916 123.945 58.5254C123.945 58.5254 123.409 58.2846 124.444 57.4894C124.444 57.4894 126.145 56.2969 126.82 56.0845C126.82 56.0845 127.476 55.5757 126.284 54.744C126.284 54.744 125.997 54.6979 125.794 54.707C125.794 54.707 125.942 54.3922 124.962 54.5311C124.962 54.5311 124.277 54.2818 124.158 53.8196C124.158 53.8196 123.779 53.3295 123.538 53.8657C123.538 53.8657 123.252 54.2909 122.946 54.4662C122.946 54.4662 122.179 54.744 121.819 54.4019C121.819 54.4019 121.421 54.263 121.135 53.9391C121.135 53.9391 120.765 53.6346 120.321 53.9858Z" fill="#284345"/>
<path fill-rule="evenodd" clip-rule="evenodd" d="M72.7292 62.2226C72.0632 61.5941 71.4718 60.5405 71.4718 60.5405C73.0064 58.3956 72.8032 57.4342 72.8032 57.4342C72.5994 56.2325 71.3795 56.491 71.3795 56.491C70.6401 57.009 70.5843 56.6947 70.5843 56.6947C70.5843 56.6947 70.4921 57.7302 70.5655 56.602C70.6401 55.4743 70.7511 54.6609 70.7511 54.6609C70.4733 54.0506 69.8636 54.5129 69.8636 54.5129C69.4379 54.8083 69.4197 57.6932 69.4197 57.6932C69.5307 57.9516 69.2534 58.0626 69.2534 58.0626C68.2545 59.0798 67.7 60.2257 67.7 60.2257C67.7 61.2799 68.5504 60.5775 68.5504 60.5775C68.6432 59.9673 68.9757 59.7453 68.9757 59.7453C69.2347 59.542 69.2164 59.9303 69.2164 59.9303C69.0867 61.8714 69.2164 69.1194 69.2164 69.1194C69.4197 70.0808 70.0116 70.469 70.0116 70.469C70.8803 70.802 70.5843 68.9162 70.5843 68.9162C70.3071 66.4571 70.3999 65.6436 70.3999 65.6436C70.3441 65.4956 70.6583 65.5509 70.6583 65.5509C71.8975 66.3831 72.9694 64.4414 72.9694 64.4414C73.3024 63.1288 72.7292 62.2226 72.7292 62.2226ZM71.4675 64.6774C71.4675 64.6774 70.5382 64.7744 70.3441 64.6913C70.3441 64.6913 70.3441 58.1736 70.4411 58.1323C70.4411 58.1323 70.469 57.6744 71.1345 57.5913C71.1345 57.5913 71.8541 57.3382 71.7259 58.2422C71.7232 58.2605 71.72 58.2792 71.7173 58.2985C71.5506 59.2691 71.3007 59.3662 71.0095 60.5314C71.0095 60.5314 70.9404 61.3909 71.2868 61.7234C71.2868 61.7234 72.1603 62.3615 71.9388 64.0811C71.9388 64.0811 72.008 64.7605 71.4675 64.6774Z" fill="#284345"/>
<path fill-rule="evenodd" clip-rule="evenodd" d="M60.2867 75.772V75.3549L62.2562 73.0009H60.4572V72.544H62.9624V72.973L60.9656 75.3195H63.03V75.772H60.2867Z" fill="#284345"/>
<path fill-rule="evenodd" clip-rule="evenodd" d="M66.0641 75.772V74.3629H64.4404V75.772H63.8886V72.544H64.4404V73.8899H66.0641V72.544H66.6158V75.772H66.0641Z" fill="#284345"/>
<path fill-rule="evenodd" clip-rule="evenodd" d="M67.7165 75.768V72.54H70.1225V72.9968H68.2683V73.8821H70.0115V74.3347H68.2683V75.3154H70.1863V75.768H67.7165Z" fill="#284345"/>
<path fill-rule="evenodd" clip-rule="evenodd" d="M71.8422 72.5479C71.8422 72.5479 73.1844 74.7116 73.2123 74.7555C73.2439 74.8151 73.3989 75.0853 73.3989 75.0853H73.4144C73.4107 75.0097 73.4069 74.6923 73.4069 74.6167V72.5479H73.9345V75.7722L73.327 75.776C73.327 75.776 71.9457 73.5646 71.9141 73.5126C71.8819 73.4611 71.7511 73.2348 71.7312 73.1914H71.7194C71.7232 73.2745 71.7275 73.6123 71.7275 73.7314V75.776H71.1993V72.5479H71.8422Z" fill="#284345"/>
<path fill-rule="evenodd" clip-rule="evenodd" d="M77.9532 75.1447C77.7585 75.5495 77.2941 75.8235 76.5279 75.8235C75.567 75.8235 74.9434 75.1645 74.9434 74.1441C74.9434 73.1398 75.5627 72.4926 76.4764 72.4926C77.2824 72.4926 77.7306 72.854 77.9296 73.3419L77.4089 73.5328C77.2507 73.1516 76.9408 72.9693 76.4802 72.9693C75.9204 72.9693 75.523 73.4771 75.523 74.1522C75.523 74.9265 75.996 75.3474 76.5397 75.3474C76.9687 75.3474 77.2861 75.2042 77.4411 74.9742V74.4063H76.4244V73.9613H77.9532V75.1447Z" fill="#284345"/>
<path fill-rule="evenodd" clip-rule="evenodd" d="M78.7359 75.772V75.3549L80.7054 73.0009H78.9064V72.544H81.4116V72.973L79.4148 75.3195H81.4792V75.772H78.7359Z" fill="#284345"/>
<path fill-rule="evenodd" clip-rule="evenodd" d="M84.5133 75.772V74.3629H82.8896V75.772H82.3378V72.544H82.8896V73.8899H84.5133V72.544H85.065V75.772H84.5133Z" fill="#284345"/>
<path fill-rule="evenodd" clip-rule="evenodd" d="M89.1674 74.1679C89.1674 75.1685 88.5438 75.8275 87.5909 75.8275C86.674 75.8275 86.0225 75.1765 86.0225 74.1717C86.0225 73.1872 86.6182 72.5003 87.607 72.5003C88.5716 72.5003 89.1674 73.2467 89.1674 74.1679ZM88.5636 74.1717C88.5636 73.4296 88.1625 72.9727 87.5834 72.9727C87.023 72.9727 86.5984 73.4414 86.5984 74.1679C86.5984 74.9342 87.0391 75.3508 87.5711 75.3508C88.1829 75.3508 88.5636 74.9025 88.5636 74.1717Z" fill="#284345"/>
<path fill-rule="evenodd" clip-rule="evenodd" d="M90.1166 72.544H90.6727V74.3902C90.6727 75.0728 90.9939 75.3474 91.4904 75.3474C92.0341 75.3474 92.3124 75.0374 92.3124 74.3822V72.544H92.8642V74.3747C92.8642 75.3152 92.4272 75.8273 91.4706 75.8273C90.5853 75.8273 90.1166 75.3629 90.1166 74.3902V72.544Z" fill="#284345"/>
<path fill-rule="evenodd" clip-rule="evenodd" d="M95.4497 72.544H96.0058V74.3902C96.0058 75.0728 96.327 75.3474 96.8235 75.3474C97.3672 75.3474 97.6455 75.0374 97.6455 74.3822V72.544H98.1973V74.3747C98.1973 75.3152 97.7603 75.8273 96.8037 75.8273C95.9184 75.8273 95.4497 75.3629 95.4497 74.3902V72.544Z" fill="#284345"/>
<path fill-rule="evenodd" clip-rule="evenodd" d="M99.953 72.5479C99.953 72.5479 101.295 74.7116 101.323 74.7555C101.355 74.8151 101.51 75.0853 101.51 75.0853H101.525C101.521 75.0097 101.518 74.6923 101.518 74.6167V72.5479H102.045V75.7722L101.438 75.776C101.438 75.776 100.056 73.5646 100.025 73.5126C99.9926 73.4611 99.8618 73.2348 99.842 73.1914H99.8302C99.8339 73.2745 99.8382 73.6123 99.8382 73.7314V75.776H99.31V72.5479H99.953Z" fill="#284345"/>
<path fill-rule="evenodd" clip-rule="evenodd" d="M103.181 75.7722H103.733V72.5442H103.181V75.7722Z" fill="#284345"/>
<path fill-rule="evenodd" clip-rule="evenodd" d="M106.41 75.772H105.79L104.524 72.544H105.123L105.997 74.95C106.028 75.0492 106.1 75.2401 106.108 75.2755H106.12C106.128 75.2358 106.203 75.0256 106.227 74.95L107.069 72.544H107.668L106.41 75.772Z" fill="#284345"/>
<path fill-rule="evenodd" clip-rule="evenodd" d="M108.443 75.768V72.54H110.849V72.9968H108.995V73.8821H110.738V74.3347H108.995V75.3154H110.913V75.768H108.443Z" fill="#284345"/>
<path fill-rule="evenodd" clip-rule="evenodd" d="M114.042 75.7721L113.105 74.4337H112.462V75.7721H111.91V72.5478H113.387C114.157 72.5478 114.554 72.9452 114.554 73.4733C114.554 73.9892 114.308 74.3189 113.692 74.4021L114.749 75.7721H114.042ZM112.462 74.0053H113.276C113.76 74.0053 113.974 73.8465 113.974 73.4932C113.974 73.1596 113.78 72.9811 113.276 72.9811H112.462V74.0053Z" fill="#284345"/>
<path fill-rule="evenodd" clip-rule="evenodd" d="M115.936 74.6444C116.015 75.1608 116.297 75.3828 116.794 75.3828C117.242 75.3828 117.457 75.149 117.457 74.8868C117.457 74.6643 117.346 74.5217 116.893 74.3747C116.782 74.3388 116.615 74.2911 116.46 74.2552C115.729 74.0809 115.507 73.8262 115.507 73.3624C115.507 72.8819 115.944 72.4964 116.662 72.4964C117.449 72.4964 117.83 72.8101 117.957 73.3822L117.409 73.4969C117.354 73.1554 117.127 72.9414 116.694 72.9414C116.289 72.9414 116.087 73.1554 116.087 73.3624C116.087 73.6004 116.238 73.7232 116.79 73.8466C116.96 73.8819 117.171 73.9495 117.326 74.0053C117.889 74.2117 118.044 74.5217 118.044 74.8707C118.044 75.4386 117.595 75.8273 116.813 75.8273C115.976 75.8273 115.547 75.4901 115.388 74.7678L115.936 74.6444Z" fill="#284345"/>
<path fill-rule="evenodd" clip-rule="evenodd" d="M119.034 75.7722H119.585V72.5442H119.034V75.7722Z" fill="#284345"/>
<path fill-rule="evenodd" clip-rule="evenodd" d="M122.091 73.0008V75.7719H121.535V73.0008H120.451V72.5482H123.171V73.0008H122.091Z" fill="#284345"/>
<path fill-rule="evenodd" clip-rule="evenodd" d="M124.311 72.544C124.311 72.544 125.069 73.6996 125.105 73.7591C125.145 73.8224 125.232 73.9612 125.264 74.025H125.268C125.3 73.9736 125.387 73.8347 125.426 73.7671C125.49 73.6556 126.205 72.544 126.205 72.544H126.836L125.518 74.446V75.772H124.97V74.454L123.684 72.544H124.311Z" fill="#284345"/>
<path fill-rule="evenodd" clip-rule="evenodd" d="M36.012 65.7637L33.9883 70.2829H38.3643L40.1505 66.0956L41.9023 70.2829H46.2735L43.9828 65.2827C43.9828 65.2827 43.9807 65.2833 43.9791 65.2833C39.4239 66.4538 36.3653 65.946 36.012 65.7637Z" fill="#7F0405"/>
<path fill-rule="evenodd" clip-rule="evenodd" d="M41.2086 60.5553C41.4665 60.5199 41.6998 60.4953 41.91 60.4786L40.1083 56.5444L38.1484 60.9221C39.3136 60.7618 40.4252 60.6626 41.2086 60.5553Z" fill="#7F0405"/>
<path fill-rule="evenodd" clip-rule="evenodd" d="M37.0665 74.5567C37.0665 74.5567 36.9754 74.54 36.9384 74.5915C36.9384 74.5915 36.9491 74.7588 36.7893 74.7813C36.7893 74.7813 36.6601 74.7776 36.6343 74.8167C36.6343 74.8167 36.5877 75.0451 36.6317 75.0838C36.6317 75.0838 36.852 75.3873 36.8424 75.5411C36.8424 75.5411 36.8488 75.7288 36.8065 75.8093C36.8065 75.8093 36.8504 75.8693 36.9164 75.8377C36.9164 75.8377 37.0376 75.6886 37.1974 75.3047C37.1974 75.3047 37.2467 75.2098 37.3486 75.3052L37.3577 75.3454C37.3577 75.3454 37.4049 75.3932 37.4901 75.3567C37.4901 75.3567 37.6011 74.9813 37.6172 74.8854C37.6172 74.8854 37.6414 74.7744 37.5775 74.8328C37.5775 74.8328 37.5513 74.888 37.5502 74.8714C37.5502 74.8714 37.4923 74.8859 37.48 74.8446C37.48 74.8446 37.5893 74.3427 37.5818 74.2757C37.5818 74.2757 37.5255 74.0531 37.3545 73.8751C37.3545 73.8751 37.2194 73.8038 37.2317 73.9647C37.2317 73.9647 37.3052 74.0982 37.3454 74.2258C37.3454 74.2258 37.3304 74.4253 37.2558 74.6494C37.2558 74.6494 37.1625 74.9138 37.0971 75.0296C37.0971 75.0296 37.074 75.0628 37.0526 75.0961C37.0499 75.0993 37.0483 75.1025 37.0462 75.1057C37.0226 75.1422 36.9185 75.1095 36.9153 75.0671C36.9153 75.0671 36.9169 74.9744 36.9888 74.8248C36.9888 74.8248 37.0671 74.6768 37.0853 74.6044C37.0853 74.6044 37.096 74.5652 37.0665 74.5567Z" fill="#284345"/>
<path fill-rule="evenodd" clip-rule="evenodd" d="M38.0973 74.0073C38.0973 74.0073 37.9622 74.0159 37.938 74.0631C37.938 74.0631 37.8951 74.1028 37.9563 74.1408C37.9563 74.1408 37.8324 74.698 37.7643 74.832C37.7643 74.832 37.6184 75.157 37.6093 75.2379C37.6093 75.2379 37.4565 75.4353 37.4549 75.5715C37.4549 75.5715 37.4216 75.8267 37.5096 75.9768C37.5096 75.9768 37.6168 76.1447 37.7187 75.9795C37.7187 75.9795 37.7562 75.8616 37.7032 75.7061C37.7032 75.7061 37.7096 75.5779 37.7541 75.4315C37.7541 75.4315 37.7873 75.3463 37.8506 75.4009C37.8506 75.4009 37.8603 75.4331 37.8726 75.4363C37.8726 75.4363 37.9134 75.4487 37.9353 75.4374L37.9493 75.4074L37.9766 75.4042L38.0587 75.0401L38.0994 75.0369C38.0994 75.0369 38.1187 74.898 38.1412 74.8733C38.1412 74.8733 38.1445 74.8438 38.0753 74.8411C38.0753 74.8411 38.0699 74.75 38.0978 74.7296C38.0978 74.7296 38.1177 74.7312 38.1284 74.7269C38.1284 74.7269 38.2346 74.4159 38.211 74.247C38.211 74.247 38.2228 74.0835 38.0973 74.0073Z" fill="#284345"/>
<path fill-rule="evenodd" clip-rule="evenodd" d="M38.5623 73.9565L38.5199 74.1361L38.5425 74.1415L38.2754 75.3238L38.247 75.3308L38.1725 75.5796L38.1414 75.5823L38.0974 75.7281C38.0974 75.7281 38.0422 75.7517 38.0293 75.8622C38.0293 75.8622 38.0497 76.2295 38.1998 76.3845C38.1998 76.3845 38.314 76.4247 38.3494 76.3164L38.3317 76.2627L38.3929 75.9603L38.3746 75.9528L38.5821 75.1925L38.6106 75.1994L38.7736 74.675C38.7736 74.675 38.8669 74.334 38.728 74.0315C38.728 74.0315 38.6272 73.935 38.5623 73.9565Z" fill="#284345"/>
<path fill-rule="evenodd" clip-rule="evenodd" d="M42.2371 73.7772C42.2371 73.7772 42.5368 74.6635 42.5706 74.9992C42.5706 74.9992 42.5835 75.2099 42.5057 75.2657C42.5057 75.2657 42.3749 75.4255 42.1556 75.4459L42.0639 75.3853C42.0639 75.3853 41.9904 75.3654 41.9615 75.4212C41.9615 75.4212 41.9368 75.4909 41.9604 75.5102C41.9604 75.5102 42.028 75.5263 42.0494 75.5815C42.0494 75.5815 42.1138 75.6775 42.2033 75.729C42.2033 75.729 42.28 75.7628 42.488 75.6164C42.488 75.6164 42.5642 75.5515 42.5899 75.5311C42.5899 75.5311 42.6382 75.7011 42.5749 75.8872C42.5722 75.8942 42.5701 75.9011 42.5674 75.9076C42.4923 76.1017 42.4023 76.1446 42.2602 76.2036C42.2602 76.2036 42.2451 76.2513 42.3148 76.2518C42.3148 76.2518 42.5031 76.3478 42.5401 76.3843C42.5401 76.3843 42.6623 76.4245 42.7186 76.3333C42.7186 76.3333 42.8795 76.2212 42.8339 75.8282C42.8339 75.8282 42.8505 75.6915 42.9433 75.7317C42.9433 75.7317 43.1449 75.944 43.3068 76.0304C43.3068 76.0304 43.4259 76.0556 43.5374 76.0674C43.5374 76.0674 43.813 76.0062 43.8436 76.01C43.8436 76.01 43.9701 76.0486 44.0323 76.011C44.0323 76.011 44.0431 75.8947 43.9401 75.8266C43.9401 75.8266 43.8195 75.7719 43.5079 75.7756C43.5079 75.7756 43.4677 75.7987 43.3851 75.7805C43.3851 75.7805 43.265 75.6813 43.206 75.6336C43.206 75.6336 43.0403 75.5445 42.9562 75.5472C42.9562 75.5472 42.8693 75.515 42.9235 75.4405C42.9235 75.4405 42.8929 75.3402 42.9653 75.2228C42.9653 75.2228 43.1101 75.0909 43.4613 74.93C43.4613 74.93 43.4849 74.8689 43.4034 74.8094C43.4034 74.8094 43.2602 74.789 43.19 74.7343C43.19 74.7343 43.0484 74.7064 43.042 74.6748C43.042 74.6748 42.9765 74.6946 42.9975 74.8131C42.9975 74.8131 43.0446 74.8823 42.9449 74.9129C42.9449 74.9129 42.8789 74.9461 42.8741 74.9209C42.8741 74.9209 42.8028 74.33 42.7406 74.1209C42.7406 74.1209 42.6178 73.6796 42.3465 73.7284C42.3465 73.7284 42.2484 73.7187 42.2371 73.7772Z" fill="#284345"/>
<path fill-rule="evenodd" clip-rule="evenodd" d="M46.0743 71.8811C46.0743 71.8811 46.0828 71.9873 46.1322 72.0655C46.1322 72.0655 46.1643 72.1143 46.0989 72.1567C46.0989 72.1567 46.0501 72.1889 46.0169 72.1792C45.9842 72.1701 46.0501 72.1889 46.0501 72.1889C46.0501 72.1889 45.9987 72.1562 45.9123 72.221C45.9123 72.221 45.9375 72.2462 45.9145 72.2645L45.8662 72.2682C45.8662 72.2682 45.9096 72.3669 45.9424 72.3653C45.9424 72.3653 45.9665 72.3186 45.9799 72.3728C45.9799 72.3728 46.1059 72.6307 46.1627 72.6827C46.1627 72.6827 46.2099 72.6672 46.219 72.6843C46.219 72.6843 46.2228 72.6715 46.2593 72.7069C46.2593 72.7069 46.3011 72.7111 46.3579 72.6741C46.3579 72.6741 46.3445 72.6597 46.3563 72.6307C46.3563 72.6307 46.3644 72.6152 46.3826 72.5884C46.4014 72.5615 46.3735 72.5712 46.3735 72.5712C46.3735 72.5712 46.3424 72.5658 46.3413 72.5337C46.3413 72.5337 46.3129 72.5326 46.3461 72.4988C46.3461 72.4988 46.3665 72.5213 46.337 72.4559C46.337 72.4559 46.2539 72.3465 46.2764 72.3261C46.2764 72.3261 46.2861 72.3363 46.2711 72.2704C46.2711 72.2704 46.3113 72.2554 46.2893 72.2162C46.2861 72.2103 46.2652 72.1588 46.2652 72.1588C46.2652 72.1588 46.3086 72.0902 46.3306 72.1224C46.3306 72.1224 46.3622 72.1937 46.3874 72.1728C46.3874 72.1728 46.4249 72.2001 46.4378 72.2227C46.4378 72.2227 46.4587 72.2071 46.4877 72.2393C46.4877 72.2393 46.5719 72.2371 46.6233 72.1637C46.6233 72.1637 46.6051 71.9369 46.641 71.8543C46.641 71.8543 46.6941 71.836 46.6984 71.8114C46.6984 71.8114 46.6657 71.8183 46.6941 71.7765C46.6941 71.7765 46.7536 71.7363 46.7799 71.7771C46.7799 71.7771 46.8416 71.7615 46.8689 71.724C46.8689 71.724 46.9086 71.776 46.9129 71.7964C46.9129 71.7964 46.7671 72.1878 46.715 72.4023C46.715 72.4023 46.707 72.4479 46.7397 72.4666C46.7397 72.4666 46.3359 72.8345 46.2303 73.0189C46.2303 73.0189 46.1375 73.1519 46.2711 73.2929C46.2711 73.2929 46.4384 73.3669 46.5156 73.3798C46.5156 73.3798 46.5284 73.2286 46.626 73.0039C46.626 73.0039 46.8813 72.5213 47.1317 72.3787C47.1317 72.3787 47.1483 72.4216 47.2287 72.3733C47.2287 72.3733 47.3408 72.5079 47.2716 72.5573C47.2716 72.5573 47.2314 72.6382 47.2185 72.6827C47.2185 72.6827 47.2014 72.7111 47.1445 72.716C47.1445 72.716 47.0459 72.7042 47.0201 72.7851C47.0201 72.7851 46.9317 72.8602 46.8947 73.0474C46.8947 73.0474 46.959 73.3305 47.1558 73.0844C47.1558 73.0844 47.2389 72.7792 47.3172 73.0281C47.3172 73.0281 47.3521 73.1567 47.3413 73.2447C47.3413 73.2447 47.2239 73.3541 47.1408 73.5192C47.1408 73.5192 47.055 73.6442 46.9242 73.6833C46.9242 73.6833 46.7622 73.6914 46.7783 73.8533C46.7783 73.8533 46.7917 73.938 46.9681 73.8554C46.9681 73.8554 47.2952 73.7965 47.5167 73.6956C47.5167 73.6956 47.6486 73.6855 47.5349 73.8082C47.5349 73.8082 47.1842 74.0249 47.0893 74.1069C47.0893 74.1069 47.0325 74.2528 47.499 74.1316C47.499 74.1316 47.5875 74.0903 47.6212 74.0978C47.6212 74.0978 47.8325 74.0506 47.8336 73.9128C47.8352 73.775 47.8314 73.8956 47.8314 73.8956C47.8314 73.8956 47.9092 73.7342 47.8272 73.5128C47.8272 73.5128 47.9789 73.3653 48.0486 73.2307C48.0486 73.2307 48.0186 72.9691 47.5237 73.1326C47.5237 73.1326 47.4674 73.0785 47.492 72.902C47.492 72.902 47.4974 72.7101 47.5038 72.6286C47.5038 72.6286 47.6019 72.5519 47.6293 72.4141C47.6293 72.4141 47.7145 72.2597 47.5011 72.1964C47.5011 72.1964 47.455 72.1256 47.3596 72.2082C47.3596 72.2082 47.3612 72.1111 47.0153 72.2693C47.0153 72.2693 46.9129 72.2779 47.0041 72.0677C47.0041 72.0677 47.1639 71.7406 47.2491 71.6505C47.2491 71.6505 47.3065 71.517 47.0529 71.4907C47.0529 71.4907 47.0046 71.5079 46.9746 71.5266C46.9746 71.5266 46.9703 71.4655 46.8319 71.5706C46.8319 71.5706 46.7059 71.5899 46.6485 71.5293C46.6485 71.5293 46.5488 71.4864 46.5574 71.5894C46.5574 71.5894 46.5494 71.6789 46.5177 71.732C46.5177 71.732 46.4233 71.8393 46.3392 71.8178C46.3392 71.8178 46.2662 71.8301 46.1949 71.8049C46.1949 71.8049 46.1123 71.7894 46.0743 71.8811Z" fill="#284345"/>
<path fill-rule="evenodd" clip-rule="evenodd" d="M33.4802 71.2866C33.4802 71.2866 33.5413 71.3242 33.5831 71.3917C33.5831 71.3917 33.5987 71.4335 33.6957 71.4786C33.6957 71.4786 33.9971 71.5655 34.0126 71.5569C34.0126 71.5569 34.1043 71.6191 34.1413 71.5987C34.1413 71.5987 34.2153 71.5338 34.2545 71.5113C34.2545 71.5113 34.3312 71.4732 34.3483 71.5708C34.3483 71.5708 34.3472 71.6995 34.3049 71.7778C34.3049 71.7778 34.2625 71.8604 34.1794 71.9017C34.1794 71.9017 33.8073 71.8663 33.7016 71.8513C33.7016 71.8513 33.5606 71.8454 33.6014 71.9703C33.6014 71.9703 33.6223 72.0416 33.6287 72.0802C33.6287 72.0802 33.633 72.1671 33.5252 72.1923C33.5252 72.1923 33.4233 72.1682 33.3799 72.1912C33.3799 72.1912 33.3199 72.2593 33.351 72.3349C33.351 72.3349 33.3215 72.499 33.3102 72.5231C33.3102 72.5231 33.2786 72.6604 33.1762 72.6524C33.1762 72.6524 33.0743 72.6443 33.0346 72.6668C33.0346 72.6668 32.9842 72.6926 33.0625 72.7559C33.0625 72.7559 33.1451 72.7773 33.219 72.825C33.219 72.825 33.3199 72.9274 33.203 72.9537C33.0855 72.9795 33.2105 72.9387 33.2105 72.9387C33.2105 72.9387 33.0265 72.9854 32.9247 73.0073C32.8233 73.0293 32.9306 72.9955 32.9306 72.9955C32.9306 72.9955 32.8968 73.0266 32.9204 73.054C32.9204 73.054 32.9542 73.3157 32.8962 73.4642C32.8962 73.4642 32.8083 73.5977 32.7225 73.4154C32.7225 73.4154 32.7633 73.1854 32.7836 73.114C32.7836 73.114 32.7595 73.0358 32.7171 73.0476C32.7171 73.0476 32.4828 73.1039 32.4008 73.1746C32.4008 73.1746 32.2565 73.1612 32.3783 73.0476C32.3783 73.0476 32.5788 72.9811 32.7954 72.9398C32.7954 72.9398 32.8952 72.9414 32.915 72.891C32.915 72.891 32.9145 72.8197 32.8437 72.8454C32.8437 72.8454 32.4174 72.8454 32.0871 72.8406C32.0871 72.8406 31.9193 72.7746 31.9927 72.5714C31.9927 72.5714 31.9729 72.5135 32.3531 72.6014C32.3531 72.6014 32.5879 72.5998 32.6828 72.5349C32.6828 72.5349 32.8217 72.4765 32.9944 72.4293C32.9944 72.4293 33.1005 72.365 32.9874 72.3188C32.9874 72.3188 32.9134 72.3172 33.1054 72.1226C33.1054 72.1226 33.0807 72.0604 33.0303 72.0657C33.0303 72.0657 32.7327 72.1033 32.6265 72.0593C32.6265 72.0593 32.5005 71.973 32.6271 71.8379C32.6271 71.8379 32.6517 71.7912 32.9863 71.796C32.9863 71.796 33.4485 71.788 33.5874 71.7462C33.5874 71.7462 33.6062 71.7531 33.6791 71.7204C33.6791 71.7204 33.7317 71.7376 33.7917 71.7408C33.7917 71.7408 33.87 71.6963 33.8807 71.6416C33.8915 71.5874 33.8888 71.6319 33.8888 71.6319C33.8888 71.6319 33.774 71.5885 33.5928 71.6164C33.5928 71.6164 33.4679 71.7033 33.4555 71.6303C33.4555 71.6303 33.3456 71.3697 33.4802 71.2866Z" fill="#284345"/>
<path fill-rule="evenodd" clip-rule="evenodd" d="M33.6344 73.7C33.6344 73.7 33.4977 73.611 33.48 73.5778C33.48 73.5778 34.2012 72.6914 34.2189 72.6968C34.2189 72.6968 34.273 72.6373 34.3728 72.7C34.3728 72.7 34.4988 72.745 34.3814 72.8539C34.3787 72.856 34.3765 72.8582 34.3738 72.8603C34.2441 72.974 34.199 72.9595 34.0307 73.0855C34.0307 73.0855 33.9261 73.1949 33.9363 73.2786C33.9363 73.2786 33.9851 73.462 33.7647 73.6716C33.7647 73.6716 33.6988 73.7713 33.6344 73.7ZM34.0779 73.5065C34.0564 73.3472 34.0929 73.1381 34.0929 73.1381C34.5385 73.0164 34.6173 72.863 34.6173 72.863C34.7224 72.6769 34.5277 72.5772 34.5277 72.5772C34.3701 72.5659 34.3969 72.5171 34.3969 72.5171C34.3969 72.5171 34.2704 72.6474 34.4049 72.5021C34.5395 72.3573 34.6446 72.2587 34.6446 72.2587C34.6747 72.145 34.5406 72.1407 34.5406 72.1407C34.4495 72.1337 34.1283 72.5241 34.1283 72.5241C34.1149 72.5713 34.065 72.5557 34.065 72.5557C33.8167 72.5836 33.6146 72.6785 33.6146 72.6785C33.4977 72.8212 33.6912 72.8201 33.6912 72.8201C33.7711 72.7477 33.8408 72.7541 33.8408 72.7541C33.8988 72.7547 33.8532 72.8056 33.8532 72.8056C33.621 73.0555 32.8371 74.0555 32.8371 74.0555C32.7582 74.2089 32.7963 74.3274 32.7963 74.3274C32.8773 74.4684 33.0456 74.1789 33.0456 74.1789C33.28 73.8142 33.3824 73.7134 33.3824 73.7134C33.391 73.6872 33.428 73.7295 33.428 73.7295C33.5041 73.9799 33.865 73.8346 33.865 73.8346C34.0553 73.6925 34.0779 73.5065 34.0779 73.5065Z" fill="#284345"/>
<path fill-rule="evenodd" clip-rule="evenodd" d="M30.6262 67.1885L30.3495 67.2513L28.9865 66.5129L29.1956 67.4266L28.9092 67.4926L28.5972 66.1306L28.8781 66.0662L30.2412 66.825L30.0004 65.7729L30.2873 65.7075L30.6262 67.1885Z" fill="#284345"/>
<path fill-rule="evenodd" clip-rule="evenodd" d="M30.1974 64.0323L29.4714 64.0484L29.4891 64.8415L30.2151 64.8259L30.2232 65.1878L28.481 65.2259L28.4735 64.8645L29.1781 64.849L29.1604 64.0554L28.4558 64.0709L28.4478 63.7068L30.1894 63.6682L30.1974 64.0323Z" fill="#284345"/>
<path fill-rule="evenodd" clip-rule="evenodd" d="M30.2474 63.0195L28.5337 62.7053L28.7718 61.406L29.0635 61.4596L28.8908 62.4023L29.2924 62.4763L29.4549 61.5915L29.7439 61.6446L29.582 62.5294L30.0233 62.6103L30.2013 61.6382L30.4909 61.6913L30.2474 63.0195Z" fill="#284345"/>
<path fill-rule="evenodd" clip-rule="evenodd" d="M31.0979 60.0418C31.0979 60.0418 29.8201 60.2627 29.7756 60.2702C29.7337 60.2777 29.6217 60.289 29.5857 60.2927L29.5847 60.2943C29.649 60.3163 29.7675 60.363 29.8635 60.4021L30.7933 60.7839L30.6641 61.0992L29.0527 60.4375L29.2029 60.0713C29.2029 60.0713 30.4474 59.8595 30.4871 59.8525C30.5311 59.8461 30.6485 59.8321 30.6807 59.8316L30.6823 59.8278C30.6297 59.8107 30.4962 59.7581 30.4394 59.7351L29.4989 59.3511L29.6292 59.0337L31.24 59.6954L31.0979 60.0418Z" fill="#284345"/>
<path fill-rule="evenodd" clip-rule="evenodd" d="M32.1783 57.5943C32.3124 57.8126 32.2952 58.1054 32.0475 58.4587C31.744 58.892 31.2587 58.9499 30.8121 58.6362C30.3702 58.3268 30.2769 57.848 30.5584 57.4458C30.8078 57.0908 31.093 56.9932 31.3751 57.0517L31.2882 57.3965C31.0979 57.3665 30.9456 57.4356 30.8185 57.6174C30.6641 57.8378 30.767 58.1397 31.0319 58.3257C31.3563 58.5531 31.6512 58.4786 31.7987 58.2689C31.9226 58.092 31.951 57.9338 31.9011 57.8056L31.6984 57.6635L31.3971 58.093L31.1595 57.9268L31.6518 57.2249L32.1783 57.5943Z" fill="#284345"/>
<path fill-rule="evenodd" clip-rule="evenodd" d="M32.796 57.4375L32.6013 57.231L32.5488 55.6808L31.8662 56.3243L31.6646 56.1098L32.6812 55.1521L32.8791 55.3618L32.9145 56.9211L33.7006 56.1811L33.9022 56.3956L32.796 57.4375Z" fill="#284345"/>
<path fill-rule="evenodd" clip-rule="evenodd" d="M35.302 55.4682L34.9207 54.8505L34.2451 55.2671L34.6263 55.8848L34.3185 56.0747L33.4043 54.5931L33.7121 54.4027L34.0821 55.0022L34.7572 54.5856L34.3872 53.9861L34.6971 53.7947L35.6114 55.2768L35.302 55.4682Z" fill="#284345"/>
<path fill-rule="evenodd" clip-rule="evenodd" d="M37.1142 53.7639C36.9952 53.4175 36.749 53.2609 36.4767 53.3542C36.2187 53.4427 36.1072 53.7248 36.2252 54.0674C36.3496 54.4294 36.6134 54.5538 36.8579 54.4696C37.1378 54.3736 37.2327 54.1082 37.1142 53.7639ZM37.4863 53.6363C37.6617 54.1462 37.452 54.5967 36.9694 54.7623C36.4992 54.9243 36.0455 54.7039 35.8691 54.1918C35.6986 53.6953 35.8718 53.2352 36.3882 53.0577C36.8906 52.8851 37.3255 53.1676 37.4863 53.6363Z" fill="#284345"/>
<path fill-rule="evenodd" clip-rule="evenodd" d="M38.1636 52.6025L38.5234 52.5628L38.6312 53.5479C38.6682 53.8803 38.8526 53.994 39.0843 53.9688C39.3427 53.9404 39.4655 53.7757 39.4301 53.4556L39.3229 52.4754L39.6805 52.4363L39.7872 53.41C39.843 53.9152 39.6339 54.2235 39.1057 54.2814C38.6135 54.3356 38.3282 54.1023 38.2714 53.587L38.1636 52.6025Z" fill="#284345"/>
<path fill-rule="evenodd" clip-rule="evenodd" d="M42.3028 52.6091L42.654 52.696L42.4164 53.6574C42.336 53.9818 42.4706 54.1524 42.6963 54.2087C42.9489 54.2709 43.1205 54.1588 43.1982 53.8467L43.4347 52.889L43.7838 52.9754L43.5489 53.9266C43.4267 54.4199 43.1248 54.6371 42.6089 54.5095C42.128 54.391 41.9403 54.0741 42.0647 53.5706L42.3028 52.6091Z" fill="#284345"/>
<path fill-rule="evenodd" clip-rule="evenodd" d="M45.0328 55.4159C45.0328 55.4159 44.9068 54.1247 44.9031 54.0807C44.8982 54.0378 44.895 53.9252 44.8945 53.8893L44.8923 53.8882C44.8661 53.9509 44.8108 54.0652 44.7647 54.1585L44.3154 55.0572L44.0103 54.9049L44.7888 53.3472L45.1433 53.5241C45.1433 53.5241 45.2629 54.7805 45.2666 54.8207C45.2704 54.8652 45.2752 54.9832 45.273 55.0153L45.2768 55.0175C45.2977 54.9665 45.3599 54.8368 45.3878 54.7815L45.8398 53.8721L46.1465 54.0255L45.368 55.5832L45.0328 55.4159Z" fill="#284345"/>
<path fill-rule="evenodd" clip-rule="evenodd" d="M46.1442 56.1332L45.8506 55.925L46.8584 54.5042L47.152 54.7124L46.1442 56.1332Z" fill="#284345"/>
<path fill-rule="evenodd" clip-rule="evenodd" d="M47.2628 57.0898L46.9668 56.8083L47.6832 55.0854L47.9668 55.3557L47.4231 56.5499C47.3904 56.618 47.3577 56.6925 47.3448 56.715L47.3497 56.7193C47.3743 56.7027 47.4585 56.6571 47.5121 56.6287L48.6612 56.0163L48.9417 56.2834L47.2628 57.0898Z" fill="#284345"/>
<path fill-rule="evenodd" clip-rule="evenodd" d="M48.0352 57.9115L49.4593 56.9082L50.2202 57.9881L49.9779 58.1592L49.4256 57.3752L49.0915 57.6101L49.6095 58.3458L49.3687 58.5152L48.8513 57.7796L48.484 58.038L49.0534 58.8461L48.8127 59.0155L48.0352 57.9115Z" fill="#284345"/>
<path fill-rule="evenodd" clip-rule="evenodd" d="M50.1289 59.4657L50.2791 59.8041C50.374 60.0191 50.4871 60.0754 50.6378 60.0089C50.7847 59.9435 50.8298 59.8309 50.7295 59.6046L50.5799 59.2663L50.1289 59.4657ZM49.5354 60.513L49.9863 59.818L49.8791 59.5762L49.2426 59.8582L49.0962 59.5274L50.6888 58.8223L51.0116 59.5515C51.1848 59.9424 51.0743 60.232 50.8073 60.3505C50.5563 60.4615 50.3407 60.425 50.16 60.158L49.7209 60.9328L49.5354 60.513Z" fill="#284345"/>
<path fill-rule="evenodd" clip-rule="evenodd" d="M50.5228 61.529C50.2767 61.6223 50.1968 61.7789 50.2483 62.0127C50.2912 62.2068 50.4129 62.2862 50.5325 62.2599C50.6317 62.2379 50.6939 62.1762 50.718 61.9912C50.7303 61.9081 50.7378 61.7869 50.7395 61.6743C50.7454 61.3086 50.8628 61.1526 51.117 61.0968C51.3668 61.0411 51.6264 61.2352 51.71 61.6137C51.8038 62.0374 51.6869 62.2733 51.391 62.4148L51.2456 62.0824C51.3995 62.0245 51.4805 61.9006 51.4349 61.6936C51.3952 61.514 51.2859 61.4497 51.1968 61.469C51.0853 61.4936 51.0424 61.5746 51.0419 61.8373C51.0413 61.9827 51.0247 62.1226 51.0017 62.2234C50.9448 62.4765 50.7958 62.5961 50.6301 62.6326C50.3389 62.6969 50.0676 62.5296 49.9694 62.0851C49.8686 61.6282 50.0118 61.3644 50.3743 61.1998L50.5228 61.529Z" fill="#284345"/>
<path fill-rule="evenodd" clip-rule="evenodd" d="M50.2098 63.5997L50.1826 63.2428L51.9196 63.1106L51.9468 63.4675L50.2098 63.5997Z" fill="#284345"/>
<path fill-rule="evenodd" clip-rule="evenodd" d="M51.6444 65.0455L50.1987 64.9629L50.2191 64.6015L51.6647 64.6841L51.6975 64.113L51.9913 64.1302L51.9055 65.6305L51.6117 65.6139L51.6444 65.0455Z" fill="#284345"/>
<path fill-rule="evenodd" clip-rule="evenodd" d="M51.7143 66.6825C51.7143 66.6825 51.0906 66.883 51.0386 66.8981C50.9866 66.9131 50.911 66.935 50.8574 66.9479L50.8569 66.9495C50.8906 66.9801 50.9459 67.038 50.9882 67.0771C51.0558 67.1447 51.4853 67.5742 51.4853 67.5742L51.3823 67.9758L50.5496 67.0412L49.8691 66.8664L49.9587 66.5157L50.6332 66.6889L51.8161 66.2852L51.7143 66.6825Z" fill="#284345"/>
<path fill-rule="evenodd" clip-rule="evenodd" d="M33.777 57.7768C32.1378 59.416 31.1243 61.6793 31.1243 64.1813C31.1243 66.6828 32.1378 68.9461 33.777 70.5853C35.4162 72.2246 37.6801 73.2385 40.1816 73.2385C42.683 73.2385 44.9464 72.2246 46.5856 70.5853C48.2253 68.9461 49.2388 66.6828 49.2388 64.1813C49.2388 61.6793 48.2253 59.416 46.5856 57.7768C44.9464 56.1375 42.683 55.1241 40.1816 55.1241C37.6801 55.1241 35.4167 56.1375 33.777 57.7768ZM30.875 64.1813C30.8755 59.0417 35.0419 54.8748 40.1816 54.8748C45.3212 54.8748 49.4876 59.0417 49.4876 64.1813C49.4876 69.3209 45.3212 73.4873 40.1816 73.4873C35.0419 73.4873 30.8755 69.3209 30.875 64.1813Z" fill="#284345"/>
<path fill-rule="evenodd" clip-rule="evenodd" d="M31.235 55.235C28.9449 57.5252 27.5298 60.6867 27.5292 64.1813C27.5298 67.6763 28.9449 70.8373 31.235 73.128C33.5257 75.4177 36.6867 76.8333 40.1813 76.8338C43.6758 76.8333 46.8373 75.4177 49.128 73.128C51.4177 70.8373 52.8338 67.6763 52.8338 64.1813C52.8338 60.6867 51.4177 57.5252 49.128 55.235C46.8373 52.9449 43.6758 51.5292 40.1813 51.5292C36.6867 51.5292 33.5257 52.9449 31.235 55.235ZM27 64.1813C27.0005 56.9016 32.9016 51.0005 40.1813 51C47.4615 51.0005 53.3625 56.9016 53.3625 64.1813C53.3625 71.4615 47.4615 77.3625 40.1813 77.3625C32.9016 77.3625 27.0005 71.4615 27 64.1813Z" fill="#284345"/>
<path fill-rule="evenodd" clip-rule="evenodd" d="M33.5681 65.6099C33.9756 64.5922 34.8963 64.0023 35.8636 63.591C36.9704 63.1202 38.172 62.8248 39.3362 62.5336C39.6434 62.4564 39.9523 62.3894 40.259 62.3138C39.6954 62.5068 39.1415 62.7368 38.6021 62.9889C38.1683 63.1916 37.7399 63.4125 37.3398 63.6763C37.0235 63.886 36.6749 64.1348 36.4856 64.4736C36.3913 64.642 36.35 64.8351 36.4181 65.0227C36.4856 65.2072 36.6562 65.308 36.8358 65.3622C37.024 65.4185 37.2197 65.4437 37.4138 65.4678C37.6187 65.4935 37.8235 65.515 38.0294 65.5311C38.1447 65.5407 38.26 65.5477 38.3753 65.5531C38.749 65.5697 39.1238 65.5686 39.4976 65.552C39.7775 65.5386 40.0568 65.5177 40.3357 65.4898C40.4161 65.4817 40.496 65.4726 40.5764 65.463C41.1861 65.3917 41.7915 65.2849 42.3899 65.1504C43.3744 64.9294 44.3846 64.7423 45.3364 64.4007C45.7708 64.2447 46.1938 64.0549 46.6073 63.8495C46.9939 63.6575 47.4239 63.4452 47.6105 63.0291C47.7891 62.6312 47.6593 62.2006 47.4464 61.8451C47.1842 61.4092 46.8126 60.8928 46.4078 60.5807C46.3976 60.7142 46.3692 60.8392 46.3113 60.9604C46.2137 61.1668 46.063 61.3502 45.9091 61.517C45.6523 61.7947 45.3541 62.0328 45.0335 62.2333C44.5042 62.5647 43.9187 62.8012 43.331 63.0071C42.4591 63.3127 41.5652 63.5524 40.674 63.791C40.5566 63.8227 40.4397 63.8586 40.3217 63.8854C40.3566 63.8699 40.3909 63.8532 40.4258 63.8372C40.5201 63.7927 40.6145 63.7471 40.7078 63.7004C40.8472 63.6313 40.9861 63.561 41.1239 63.4886C41.2928 63.4001 41.4601 63.309 41.6258 63.2151C41.8087 63.1117 41.9899 63.005 42.1685 62.894C42.3508 62.7803 42.5309 62.6623 42.7063 62.5379C42.8741 62.4189 43.0382 62.2939 43.1937 62.1599C43.3337 62.0403 43.4677 61.9127 43.5868 61.7727C43.7793 61.5464 43.9862 61.2054 43.8752 60.8971C43.8452 60.814 43.79 60.7437 43.7187 60.6917C43.3052 60.3909 42.6291 60.4295 42.1481 60.4579C40.4536 60.5566 38.7227 60.7995 37.0514 61.0912C36.869 61.1234 36.6867 61.1572 36.505 61.1942C36.3253 61.2301 36.1457 61.2687 35.9671 61.3105C35.7939 61.3513 35.6213 61.3952 35.4491 61.4424C35.2835 61.488 35.1183 61.5373 34.9553 61.591C34.7982 61.6424 34.6427 61.6982 34.4888 61.7588C34.344 61.8162 34.2014 61.8784 34.0609 61.9465C33.9295 62.0103 33.8008 62.0794 33.6759 62.1551C33.559 62.2264 33.4458 62.3036 33.3386 62.3888C33.2389 62.4677 33.1445 62.5529 33.0582 62.6462C32.9767 62.7336 32.9027 62.8285 32.8388 62.9299C32.7777 63.028 32.7262 63.1326 32.6882 63.242C32.508 63.7546 32.7026 64.2377 32.9654 64.6801C33.0898 64.8892 33.2196 65.0962 33.3509 65.3016C33.3659 65.3252 33.5729 65.5976 33.5681 65.6099Z" fill="#284345"/>
</g>
<defs>
<filter id="filter0_d_185_142" x="0" y="0" width="154" height="157" filterUnits="userSpaceOnUse" color-interpolation-filters="sRGB">
<feFlood flood-opacity="0" result="BackgroundImageFix"/>
<feColorMatrix in="SourceAlpha" type="matrix" values="0 0 0 0 0 0 0 0 0 0 0 0 0 0 0 0 0 0 127 0" result="hardAlpha"/>
<feOffset dy="16"/>
<feGaussianBlur stdDeviation="6.5"/>
<feColorMatrix type="matrix" values="0 0 0 0 0 0 0 0 0 0 0 0 0 0 0 0 0 0 0.03 0"/>
<feBlend mode="normal" in2="BackgroundImageFix" result="effect1_dropShadow_185_142"/>
<feBlend mode="normal" in="SourceGraphic" in2="effect1_dropShadow_185_142" result="shape"/>
</filter>
</defs>
</svg>
