<svg width="154" height="157" viewBox="0 0 154 157" fill="none" xmlns="http://www.w3.org/2000/svg">
<g filter="url(#filter0_d_266_362)">
<rect width="128" height="128" transform="translate(13)" fill="white"/>
<path fill-rule="evenodd" clip-rule="evenodd" d="M38.4824 75.0498H38.4846C41.4355 75.0498 44.2098 73.9005 46.2964 71.8137C48.3837 69.7266 49.5334 66.9518 49.5334 64.0005V63.9984C49.533 61.0478 48.3836 58.2736 46.2969 56.1867C44.2101 54.0998 41.4352 52.9503 38.4836 52.95H38.4814C35.5309 52.9503 32.7567 54.0996 30.67 56.1862C28.583 58.2729 27.4336 61.0476 27.4333 63.9991V64.0015C27.4337 66.9519 28.583 69.7264 30.6696 71.8135C32.7565 73.9005 35.5312 75.0498 38.4824 75.0498ZM38.4846 75.4834L38.2667 75.4808C35.2806 75.4259 32.4811 74.2374 30.3634 72.1196C28.2464 70.0019 27.0576 67.2031 27.0024 64.2179H27.0004L27 63.785H27.0024C27.0568 60.798 28.2457 57.998 30.364 55.88C32.4813 53.7628 35.2798 52.5742 38.2651 52.5191V52.5171L38.698 52.5168V52.5191C41.6851 52.5738 44.485 53.7625 46.603 55.8807C48.7203 57.9981 49.9091 60.7968 49.9642 63.782H49.9663L49.9669 64.2149H49.9642C49.91 67.2017 48.7211 70.0016 46.6025 72.1198C44.4853 74.2373 41.6866 75.4259 38.7011 75.4808V75.4827L38.4846 75.4834Z" fill="#315064"/>
<path fill-rule="evenodd" clip-rule="evenodd" d="M28.6118 64.7915C28.6413 64.8103 28.6758 64.8225 28.7147 64.8284C28.7537 64.8342 28.7974 64.8338 28.8458 64.8271C28.9457 64.8127 29.0174 64.7801 29.0604 64.729C29.1037 64.6778 29.1203 64.6168 29.1102 64.5454C29.1 64.4741 29.0669 64.4198 29.0111 64.3827C28.9552 64.3453 28.8773 64.3337 28.7778 64.348C28.6766 64.3624 28.604 64.3952 28.5602 64.4466C28.5162 64.498 28.4992 64.5577 28.5086 64.6254C28.5123 64.6506 28.5197 64.6738 28.5312 64.6951C28.5495 64.6562 28.5626 64.6177 28.5702 64.5794L28.6772 64.6141C28.6655 64.6744 28.6436 64.7335 28.6118 64.7915ZM28.5331 64.9462C28.5085 64.9933 28.4908 65.0434 28.4798 65.0966L28.3472 65.0497C28.3514 65.0221 28.3585 64.9948 28.3687 64.9677C28.3707 64.9618 28.3909 64.9192 28.429 64.8403C28.3961 64.7872 28.3748 64.7262 28.3652 64.6573C28.3462 64.524 28.3704 64.4143 28.438 64.3278C28.5058 64.2413 28.6105 64.1879 28.7523 64.1679C28.8937 64.1476 29.009 64.1699 29.0983 64.2343C29.1875 64.2987 29.2415 64.3958 29.2598 64.5253C29.2779 64.6537 29.2533 64.7611 29.1852 64.8475C29.1174 64.9339 29.0127 64.9869 28.8714 65.0071C28.7966 65.0177 28.7295 65.0167 28.6697 65.0037C28.6241 64.9941 28.5787 64.9749 28.5331 64.9462Z" fill="#315064"/>
<path fill-rule="evenodd" clip-rule="evenodd" d="M29.3409 65.4211L28.4754 65.5459L28.4502 65.3709L29.3156 65.2461L29.3409 65.4211Z" fill="#315064"/>
<path fill-rule="evenodd" clip-rule="evenodd" d="M28.5303 65.8994L29.3834 65.7065L29.4211 65.8741L28.9304 66.352L29.4999 66.2234L29.5363 66.3833L28.6832 66.5761L28.6443 66.4033L29.1228 65.9337L28.5664 66.0594L28.5303 65.8994Z" fill="#315064"/>
<path fill-rule="evenodd" clip-rule="evenodd" d="M29.2252 67.2318L29.3645 67.1835L29.4891 67.5431L29.16 67.6572C29.1141 67.634 29.0667 67.5938 29.018 67.5362C28.9692 67.4787 28.9331 67.4161 28.9094 67.3481C28.8796 67.2617 28.8716 67.1801 28.8856 67.1032C28.8996 67.0264 28.9347 66.9602 28.9911 66.9045C29.0471 66.8488 29.115 66.8071 29.1943 66.7797C29.2804 66.7498 29.363 66.7415 29.4424 66.7544C29.5218 66.7671 29.5915 66.8021 29.6512 66.8593C29.6969 66.9029 29.7336 66.964 29.7609 67.043C29.7965 67.1455 29.8027 67.2331 29.7797 67.3056C29.7567 67.3781 29.7101 67.436 29.6399 67.4787L29.5514 67.324C29.5881 67.2981 29.6124 67.2652 29.6247 67.2249C29.637 67.1846 29.635 67.1405 29.6182 67.0924C29.5931 67.0195 29.5499 66.9694 29.4887 66.9425C29.4275 66.9155 29.3515 66.9178 29.2607 66.9493C29.1625 66.9832 29.0965 67.0307 29.0625 67.0911C29.0286 67.1517 29.024 67.2174 29.0485 67.288C29.0606 67.3229 29.0796 67.3555 29.1055 67.386C29.1314 67.4164 29.1584 67.4407 29.1867 67.4591L29.2915 67.4229L29.2252 67.2318Z" fill="#315064"/>
<path fill-rule="evenodd" clip-rule="evenodd" d="M29.9194 67.8817L29.3966 68.1312L29.4532 68.25C29.4746 68.2946 29.4923 68.3254 29.5069 68.3427C29.5255 68.3655 29.5468 68.3818 29.5704 68.3914C29.594 68.4012 29.6259 68.4029 29.6665 68.3971C29.707 68.3909 29.7577 68.3733 29.8187 68.344C29.8798 68.3149 29.924 68.2872 29.9515 68.2609C29.9791 68.2344 29.9975 68.2072 30.0065 68.1791C30.0154 68.151 30.0162 68.1207 30.0084 68.0875C30.0029 68.0629 29.9845 68.0182 29.9535 67.9532L29.9194 67.8817ZM29.9769 67.6587L30.1159 67.95C30.1472 68.0155 30.166 68.0679 30.1725 68.1073C30.1808 68.1602 30.1757 68.2114 30.1565 68.261C30.1374 68.3107 30.1067 68.356 30.0645 68.3974C30.0223 68.4386 29.9642 68.4769 29.8902 68.5121C29.8254 68.5432 29.7654 68.5618 29.7109 68.5682C29.6439 68.5756 29.584 68.5698 29.5309 68.5501C29.4908 68.5352 29.452 68.5079 29.4147 68.4681C29.3868 68.4381 29.3587 68.3939 29.3306 68.3352L29.1875 68.0351L29.9769 67.6587Z" fill="#315064"/>
<path fill-rule="evenodd" clip-rule="evenodd" d="M30.2115 69.2186L30.4245 68.9457L30.0864 69.0155L30.2115 69.2186ZM30.0874 69.677L29.9867 69.5136L30.1157 69.3443L29.9323 69.0467L29.7254 69.0893L29.627 68.93L30.5502 68.761L30.6483 68.9199L30.0874 69.677Z" fill="#315064"/>
<path fill-rule="evenodd" clip-rule="evenodd" d="M30.6946 69.7652C30.6166 69.826 30.5715 69.8903 30.5592 69.9578C30.5471 70.0254 30.5627 70.0868 30.6059 70.1422C30.6493 70.1978 30.7049 70.2277 30.7726 70.232C30.8404 70.2364 30.9141 70.2076 30.994 70.1452C31.0731 70.0835 31.1184 70.0203 31.1303 69.9551C31.1423 69.8903 31.1258 69.8292 31.0809 69.7715C31.0362 69.7142 30.9805 69.6834 30.9137 69.6788C30.847 69.6746 30.7739 69.7032 30.6946 69.7652ZM30.578 69.6255C30.6482 69.5706 30.7154 69.535 30.7794 69.5189C30.8269 69.5072 30.8749 69.504 30.9241 69.5093C30.9731 69.5146 31.0169 69.5282 31.0557 69.55C31.1075 69.5788 31.1551 69.6213 31.1989 69.6773C31.2782 69.779 31.3101 69.8849 31.2947 69.995C31.2792 70.1052 31.2154 70.2042 31.1032 70.2917C30.9919 70.3785 30.8811 70.4162 30.7709 70.4047C30.6609 70.3932 30.5665 70.337 30.4874 70.2357C30.4074 70.133 30.375 70.0271 30.3905 69.9179C30.4056 69.8085 30.4682 69.7111 30.578 69.6255Z" fill="#315064"/>
<path fill-rule="evenodd" clip-rule="evenodd" d="M31.5898 71.4162L32.08 70.8798L31.8885 70.7048L31.9884 70.5957L32.5012 71.0644L32.4014 71.1737L32.2103 70.999L31.7201 71.5352L31.5898 71.4162Z" fill="#315064"/>
<path fill-rule="evenodd" clip-rule="evenodd" d="M32.167 71.92L32.691 71.2197L33.2104 71.6084L33.1215 71.7267L32.7438 71.444L32.6276 71.5993L32.9791 71.8624L32.8908 71.9802L32.5394 71.7171L32.3966 71.9077L32.7879 72.2006L32.6996 72.3185L32.167 71.92Z" fill="#315064"/>
<path fill-rule="evenodd" clip-rule="evenodd" d="M33.6508 72.534L33.7701 72.6682C33.6986 72.7368 33.6249 72.7752 33.5488 72.7839C33.4727 72.7924 33.3944 72.7726 33.3135 72.7246C33.2138 72.6653 33.152 72.5822 33.1285 72.4758C33.1049 72.3694 33.1283 72.2571 33.1988 72.1389C33.2733 72.0138 33.3634 71.9359 33.4691 71.9052C33.5749 71.8747 33.6805 71.8905 33.7857 71.9532C33.8777 72.0079 33.936 72.0797 33.9611 72.1681C33.976 72.2207 33.9743 72.282 33.9555 72.3522L33.784 72.2988C33.7983 72.2544 33.7982 72.2128 33.7833 72.1733C33.7686 72.134 33.7411 72.1024 33.7008 72.0782C33.6451 72.0452 33.5879 72.0383 33.5296 72.0576C33.471 72.0767 33.4152 72.1312 33.3618 72.2209C33.3052 72.3158 33.2818 72.3936 33.2921 72.4542C33.3023 72.5149 33.3346 72.5615 33.3892 72.594C33.4297 72.6181 33.472 72.6259 33.5162 72.6177C33.5606 72.6093 33.6055 72.5816 33.6508 72.534Z" fill="#315064"/>
<path fill-rule="evenodd" clip-rule="evenodd" d="M33.9648 73.0699L34.3278 72.2742L34.4885 72.3473L34.3455 72.6607L34.6604 72.8042L34.8033 72.4912L34.964 72.5645L34.601 73.3601L34.4402 73.2868L34.599 72.9387L34.2841 72.7952L34.1255 73.1431L33.9648 73.0699Z" fill="#315064"/>
<path fill-rule="evenodd" clip-rule="evenodd" d="M34.9795 73.5085L35.2532 72.6777L35.4163 72.7316L35.5737 73.3984L35.7562 72.8437L35.9121 72.8949L35.6387 73.7256L35.4703 73.6701L35.3138 73.0181L35.1354 73.5599L34.9795 73.5085Z" fill="#315064"/>
<path fill-rule="evenodd" clip-rule="evenodd" d="M36.2674 73.4353C36.2473 73.5323 36.2544 73.6104 36.2886 73.6697C36.3231 73.7292 36.3749 73.7658 36.4438 73.7803C36.5127 73.7945 36.5744 73.7817 36.6288 73.7411C36.6833 73.7007 36.721 73.6307 36.7416 73.5315C36.7618 73.4331 36.7555 73.3557 36.7226 73.2982C36.6898 73.2411 36.6374 73.2051 36.5664 73.1903C36.495 73.1755 36.4325 73.1881 36.3787 73.2279C36.325 73.2677 36.2878 73.3367 36.2674 73.4353ZM36.0879 73.4042C36.1062 73.3168 36.1343 73.2465 36.1729 73.1927C36.2013 73.1531 36.2359 73.1194 36.2769 73.0918C36.3178 73.0642 36.36 73.0461 36.4036 73.0377C36.4617 73.0262 36.5256 73.0276 36.5952 73.0422C36.7214 73.0684 36.8142 73.1285 36.8737 73.2224C36.9332 73.3164 36.9483 73.4331 36.9194 73.5726C36.8907 73.7108 36.8308 73.8111 36.7393 73.8736C36.6478 73.9361 36.5394 73.9542 36.4137 73.9283C36.2865 73.9018 36.1932 73.8417 36.1341 73.7484C36.0751 73.6552 36.0597 73.5404 36.0879 73.4042Z" fill="#315064"/>
<path fill-rule="evenodd" clip-rule="evenodd" d="M37.1895 74.0466L37.2753 73.1833L37.4511 73.2009L37.3797 73.9174L37.8167 73.9608L37.8021 74.1076L37.1895 74.0466Z" fill="#315064"/>
<path fill-rule="evenodd" clip-rule="evenodd" d="M38.2913 73.6875C38.2917 73.7865 38.3148 73.8615 38.3609 73.9123C38.4069 73.9633 38.4651 73.9886 38.5355 73.9883C38.6058 73.9879 38.6635 73.9622 38.7084 73.9111C38.7534 73.8602 38.7756 73.7842 38.7749 73.6828C38.7745 73.5826 38.7522 73.5078 38.708 73.4589C38.6639 73.4096 38.6052 73.3853 38.5325 73.3857C38.4598 73.386 38.4012 73.4113 38.357 73.4614C38.3125 73.5115 38.2907 73.5869 38.2913 73.6875ZM38.1094 73.6943C38.109 73.6053 38.1218 73.5305 38.1481 73.4698C38.1678 73.4253 38.1949 73.385 38.2291 73.3496C38.2632 73.3139 38.3007 73.2876 38.3417 73.2702C38.3961 73.2469 38.4588 73.235 38.53 73.2346C38.6589 73.2341 38.7621 73.2736 38.8399 73.3531C38.9176 73.4326 38.9568 73.5438 38.9575 73.6861C38.9583 73.8271 38.9203 73.9379 38.844 74.0179C38.7676 74.0981 38.6652 74.1386 38.5367 74.1393C38.4068 74.1398 38.303 74.1006 38.226 74.0216C38.1489 73.9426 38.1099 73.8335 38.1094 73.6943Z" fill="#315064"/>
<path fill-rule="evenodd" clip-rule="evenodd" d="M39.6862 73.7301L39.6686 73.5838L40.0464 73.5383L40.088 73.8843C40.0555 73.9242 40.0061 73.9619 39.9396 73.9974C39.8732 74.0328 39.8044 74.0547 39.7328 74.0633C39.6419 74.0743 39.5605 74.0648 39.4884 74.0347C39.4164 74.0047 39.359 73.9564 39.3165 73.8896C39.2741 73.8228 39.2478 73.7476 39.2378 73.6644C39.2269 73.5739 39.2362 73.4913 39.2657 73.4165C39.2952 73.3417 39.3441 73.2811 39.4127 73.2349C39.4649 73.1993 39.5324 73.1766 39.6154 73.1666C39.7232 73.1536 39.8102 73.1662 39.8762 73.2039C39.9422 73.242 39.9887 73.2996 40.0156 73.3775L39.8455 73.4308C39.828 73.3897 39.801 73.3589 39.7643 73.3383C39.7277 73.3176 39.684 73.3103 39.6333 73.3164C39.5567 73.3256 39.4989 73.3573 39.4595 73.4112C39.4201 73.4652 39.4061 73.5401 39.4176 73.6357C39.4299 73.7385 39.4622 73.8132 39.5141 73.8591C39.5662 73.9053 39.6294 73.9238 39.7036 73.9149C39.7403 73.9104 39.7762 73.8988 39.8113 73.88C39.8466 73.8612 39.8762 73.8398 39.9001 73.8163L39.8869 73.706L39.6862 73.7301Z" fill="#315064"/>
<path fill-rule="evenodd" clip-rule="evenodd" d="M40.4567 73.0396L40.6341 73.896L40.461 73.9319L40.2837 73.0754L40.4567 73.0396Z" fill="#315064"/>
<path fill-rule="evenodd" clip-rule="evenodd" d="M41.4467 73.3496L41.6263 73.3535C41.628 73.4526 41.606 73.5328 41.5605 73.5945C41.5149 73.6562 41.4471 73.7001 41.3572 73.7266C41.2458 73.7592 41.1428 73.7479 41.0489 73.693C40.9547 73.6379 40.8885 73.5443 40.8496 73.4122C40.8087 73.2726 40.8129 73.1536 40.8624 73.055C40.9117 72.9567 40.9953 72.8902 41.1128 72.8557C41.2155 72.8258 41.3078 72.8315 41.3898 72.8734C41.4383 72.898 41.4822 72.941 41.5208 73.0028L41.365 73.0921C41.3422 73.0514 41.3115 73.0231 41.2727 73.0073C41.2337 72.9912 41.1918 72.9899 41.1468 73.003C41.0846 73.0214 41.0407 73.0584 41.015 73.1145C40.9893 73.1705 40.9912 73.2486 41.0205 73.3484C41.0517 73.4545 41.0928 73.5246 41.1443 73.5583C41.1957 73.5922 41.2518 73.6002 41.3128 73.5822C41.358 73.569 41.3925 73.5434 41.4166 73.5051C41.4406 73.467 41.4507 73.4153 41.4467 73.3496Z" fill="#315064"/>
<path fill-rule="evenodd" clip-rule="evenodd" d="M42.3482 72.986L42.112 72.7329L42.128 73.0778L42.3482 72.986ZM42.7815 73.1802L42.6042 73.2541L42.4572 73.1003L42.1345 73.2347L42.1444 73.446L41.9715 73.5181L41.9492 72.5798L42.1215 72.5078L42.7815 73.1802Z" fill="#315064"/>
<path fill-rule="evenodd" clip-rule="evenodd" d="M43.064 73.0359L42.6499 72.2737L42.805 72.1897L43.1488 72.8222L43.5346 72.6126L43.605 72.7422L43.064 73.0359Z" fill="#315064"/>
<path fill-rule="evenodd" clip-rule="evenodd" d="M43.8877 71.5166L44.027 71.4079L44.3183 71.7817C44.3644 71.8408 44.3962 71.8779 44.4132 71.8926C44.4412 71.9163 44.4731 71.9279 44.509 71.9275C44.5446 71.9271 44.582 71.9117 44.6208 71.8815C44.6603 71.8507 44.684 71.8192 44.6913 71.7875C44.6989 71.7557 44.6955 71.7265 44.6811 71.6997C44.6669 71.673 44.6385 71.6323 44.5959 71.5778L44.2984 71.1964L44.4376 71.0876L44.7201 71.4498C44.7847 71.5326 44.8265 71.5941 44.8456 71.6342C44.8648 71.6742 44.8735 71.7138 44.8714 71.7533C44.8697 71.7925 44.8571 71.8325 44.8342 71.8728C44.8114 71.9133 44.7724 71.9545 44.7179 71.9971C44.6521 72.0485 44.5962 72.0798 44.5502 72.0911C44.5045 72.1025 44.4622 72.1037 44.4234 72.0948C44.3846 72.0859 44.3518 72.0706 44.3247 72.0489C44.2849 72.0163 44.2347 71.9616 44.1747 71.8843L43.8877 71.5166Z" fill="#315064"/>
<path fill-rule="evenodd" clip-rule="evenodd" d="M45.3039 71.4908L44.6929 70.8651L44.8159 70.7448L45.4798 70.9128L45.0719 70.4949L45.1893 70.3804L45.8002 71.0061L45.6735 71.1299L45.0229 70.9681L45.4211 71.376L45.3039 71.4908Z" fill="#315064"/>
<path fill-rule="evenodd" clip-rule="evenodd" d="M45.5328 69.9905L46.1933 70.5636L46.0775 70.697L45.417 70.1239L45.5328 69.9905Z" fill="#315064"/>
<path fill-rule="evenodd" clip-rule="evenodd" d="M46.5804 70.0799L45.6909 69.8122L45.8047 69.6583L46.4568 69.8642L46.063 69.3078L46.1743 69.157L46.6922 69.9283L46.5804 70.0799Z" fill="#315064"/>
<path fill-rule="evenodd" clip-rule="evenodd" d="M47.0593 69.3941L46.3052 68.9512L46.6334 68.3921L46.7611 68.4669L46.5221 68.8739L46.6894 68.972L46.9116 68.5932L47.0389 68.668L46.8164 69.0466L47.0217 69.1669L47.269 68.7457L47.3962 68.8204L47.0593 69.3941Z" fill="#315064"/>
<path fill-rule="evenodd" clip-rule="evenodd" d="M47.191 68.0989L47.2446 67.9797C47.2793 67.9023 47.2977 67.8529 47.2999 67.8307C47.3019 67.8085 47.2975 67.7882 47.2864 67.7703C47.2754 67.7523 47.2578 67.7378 47.2339 67.7271C47.207 67.7149 47.1822 67.7124 47.1592 67.7191C47.1363 67.726 47.1168 67.7417 47.1007 67.7659C47.093 67.7782 47.0745 67.8168 47.0451 67.8821L46.9886 68.0079L47.191 68.0989ZM47.579 68.4669L46.7812 68.1084L46.9337 67.7693C46.9719 67.6841 47.007 67.6253 47.0386 67.5932C47.0703 67.5609 47.1097 67.5413 47.1568 67.5347C47.2039 67.5279 47.2509 67.5352 47.2981 67.5563C47.3579 67.5834 47.3996 67.623 47.4227 67.6759C47.4458 67.7285 47.4469 67.792 47.4254 67.8667C47.4615 67.8411 47.4967 67.8223 47.5312 67.8104C47.5656 67.7988 47.6226 67.7874 47.7018 67.7772L47.9013 67.7496L47.8148 67.9423L47.5888 67.9807C47.5083 67.9942 47.4564 68.0049 47.4334 68.0129C47.4105 68.0209 47.392 68.0322 47.3785 68.0461C47.3648 68.0606 47.3497 68.0864 47.333 68.1235L47.3184 68.1561L47.6514 68.3058L47.579 68.4669Z" fill="#315064"/>
<path fill-rule="evenodd" clip-rule="evenodd" d="M47.7343 67.382L47.7714 67.2134C47.8295 67.2213 47.8762 67.2143 47.9118 67.1927C47.9472 67.1709 47.9733 67.1346 47.9898 67.0835C48.0072 67.0294 48.009 66.9848 47.9951 66.95C47.9811 66.9153 47.9587 66.8928 47.9281 66.8828C47.9084 66.8766 47.8899 66.8769 47.8721 66.8838C47.8548 66.8909 47.8362 66.9072 47.8167 66.9326C47.8034 66.9503 47.7768 66.991 47.7368 67.0553C47.6852 67.1382 47.6374 67.1925 47.5931 67.2184C47.5307 67.2545 47.4666 67.2619 47.4007 67.2407C47.3584 67.2269 47.3228 67.202 47.2936 67.1659C47.2644 67.1301 47.2476 67.0864 47.243 67.035C47.2383 66.9833 47.2464 66.9257 47.2669 66.8617C47.3009 66.7573 47.3492 66.6861 47.4122 66.6482C47.4751 66.6103 47.5451 66.6025 47.6224 66.6244L47.5753 66.7949C47.5303 66.788 47.4946 66.7937 47.4682 66.8112C47.4417 66.8287 47.4208 66.8613 47.4056 66.9085C47.3897 66.9574 47.3874 66.9989 47.3985 67.0329C47.4056 67.0549 47.42 67.0693 47.4415 67.0762C47.4611 67.0827 47.4808 67.08 47.5001 67.0678C47.5247 67.0523 47.5599 67.007 47.6057 66.9314C47.6516 66.8558 47.6911 66.8018 47.7245 66.7695C47.7576 66.737 47.7959 66.7154 47.8387 66.705C47.8816 66.6944 47.9294 66.6977 47.9821 66.7146C48.0297 66.7301 48.07 66.758 48.103 66.7979C48.1361 66.8379 48.1549 66.8853 48.1594 66.9403C48.164 66.9954 48.1545 67.0588 48.131 67.1313C48.097 67.2365 48.0465 67.3092 47.9797 67.35C47.9127 67.3904 47.8309 67.4013 47.7343 67.382Z" fill="#315064"/>
<path fill-rule="evenodd" clip-rule="evenodd" d="M47.5051 66.0544L48.356 66.2561L48.3153 66.428L47.4644 66.2263L47.5051 66.0544Z" fill="#315064"/>
<path fill-rule="evenodd" clip-rule="evenodd" d="M48.4712 65.6716L47.7534 65.5587L47.7131 65.8152L47.5669 65.7922L47.675 65.1055L47.821 65.1285L47.7808 65.3842L48.4987 65.4973L48.4712 65.6716Z" fill="#315064"/>
<path fill-rule="evenodd" clip-rule="evenodd" d="M48.5786 64.682L48.2143 64.6299L47.6675 64.8754L47.6968 64.6706L48.0685 64.5158L47.7544 64.2672L47.7832 64.0657L48.2404 64.4558L48.6036 64.5078L48.5786 64.682Z" fill="#315064"/>
<path fill-rule="evenodd" clip-rule="evenodd" d="M30.8171 57.6515C30.8171 57.6515 30.8171 57.7191 30.857 57.7478C30.8971 57.7763 30.9223 57.7714 30.965 57.6879C31.0079 57.6043 30.9134 57.4765 30.8605 57.4841C30.8078 57.492 30.8171 57.6515 30.8171 57.6515ZM30.5838 57.7119C30.4295 57.7678 30.3993 57.7915 30.3381 57.7417C30.2773 57.6918 30.2621 57.6426 30.3143 57.5561C30.3661 57.47 30.5044 57.2325 30.5044 57.2325C30.5044 57.2325 30.5494 57.1773 30.4221 57.0732C30.2948 56.9696 30.2515 56.7958 30.2932 56.7562C30.3346 56.7164 30.6217 56.9531 30.6359 56.9921C30.6501 57.0314 30.7643 56.8457 30.7643 56.8457C30.7643 56.8457 30.9036 56.8678 30.9445 56.919C30.9853 56.971 31.032 56.9814 30.9204 57.1297C30.9821 57.1802 31.0678 57.2122 31.1081 57.2598C31.1868 57.3522 31.1406 57.4109 31.1921 57.4524C31.2052 57.4632 31.4505 57.102 31.5445 57.0771C31.6384 57.0524 31.7093 57.2481 31.6126 57.3441C31.5157 57.4405 31.2436 57.8078 31.2389 57.8591C31.2338 57.9102 31.2608 58.0243 31.2608 58.0243L31.5402 57.6152C31.6299 57.4834 31.6922 57.5437 31.8092 57.68C31.942 57.8341 32.2525 58.041 32.2974 58.1332C32.3423 58.2253 32.4251 58.3389 32.376 58.4553C32.3273 58.5719 32.2643 58.6037 32.2643 58.6037L32.0437 58.433C32.0437 58.433 32.125 58.3335 32.0963 58.3009C32.0675 58.2682 31.678 57.7844 31.589 57.8593C31.5 57.9347 31.3493 58.244 31.4462 58.2496C31.4462 58.2496 31.5754 58.0231 31.6449 58.1078C31.7145 58.192 31.6688 58.1916 31.7598 58.238C31.851 58.2847 31.9043 58.3097 31.8545 58.3707C31.8051 58.4317 31.7613 58.4513 31.7036 58.4318C31.6456 58.4123 31.6575 58.3294 31.557 58.3398C31.557 58.3398 31.5474 58.4422 31.7479 58.5692C31.9488 58.6962 31.9651 58.7558 31.8756 58.7745C31.7863 58.794 31.5716 58.7291 31.4034 58.5737C31.235 58.4179 31.1058 58.1466 31.1058 58.1466C31.1058 58.1466 31.0425 58.2239 30.9155 58.4704C30.7883 58.7164 30.7216 58.8095 30.6564 58.7654C30.5908 58.7211 30.5562 58.4809 30.8646 58.0237C30.5366 57.9525 30.6374 57.8589 30.5838 57.7119Z" fill="#315064"/>
<path fill-rule="evenodd" clip-rule="evenodd" d="M33.5753 55.2175C33.5753 55.2175 33.7179 55.1464 33.7452 55.0781C33.7452 55.0781 33.8722 55.1161 33.8998 55.2662C33.9274 55.4167 33.857 55.5233 33.7766 55.5617C33.6958 55.5996 33.6308 55.5974 33.6908 55.5014C33.7509 55.4047 33.8101 55.3572 33.7647 55.3124C33.7195 55.2678 33.642 55.2723 33.6118 55.2452C33.5817 55.2194 33.5753 55.2175 33.5753 55.2175ZM34.0301 56.5372L33.9869 56.566C33.9869 56.566 33.9882 56.6767 33.9545 56.7427C33.9209 56.809 33.7002 56.9329 33.5304 57.0032C33.3607 57.0733 33.3127 56.8754 33.31 56.7811C33.3073 56.6869 33.2794 56.675 33.3564 56.5803C33.4333 56.4858 33.46 56.5461 33.4849 56.6019C33.5095 56.6578 33.495 56.7295 33.5365 56.7868C33.5782 56.844 33.7348 56.7599 33.7348 56.7599C33.7348 56.7599 33.7406 56.741 33.7029 56.6708C33.665 56.6005 33.7119 56.5491 33.7119 56.5491C33.7119 56.5491 33.8806 56.5166 33.9383 56.4854C33.9963 56.4544 34.0282 56.3361 34.1304 56.3182C34.2326 56.3008 34.2667 56.3942 34.2231 56.471C34.1793 56.5474 34.0301 56.5372 34.0301 56.5372ZM33.9509 55.9945C33.9509 55.9945 34.1698 55.8876 34.1524 55.7956C34.1351 55.704 34.0744 55.7098 33.9732 55.7591C33.9732 55.7591 33.9165 55.6831 33.976 55.6459C34.0358 55.6082 34.1247 55.3584 34.0615 55.2006C33.998 55.0436 33.9529 54.9503 33.9172 54.8737C33.8814 54.7973 33.8088 54.7515 33.6527 54.8565C33.4965 54.962 33.4878 55.0249 33.4013 55.0718C33.3146 55.1184 33.3462 55.3356 33.3073 55.3615C33.2681 55.3882 33.2739 55.2997 33.1839 55.3108C33.0943 55.3222 33.0533 55.3549 33.0456 55.3108C33.038 55.2671 33.2251 55.209 33.3607 55.0457C33.4959 54.8822 33.5354 54.7281 33.4001 54.6837C33.2645 54.6399 33.0125 54.8338 32.965 55.0723C32.9177 55.3105 32.9584 55.3366 33.038 55.4055C33.1178 55.474 32.9881 55.491 33.1 55.7288C33.2119 55.9665 33.4206 56.3435 33.449 56.3871C33.4777 56.4299 33.5934 56.586 33.8121 56.4683C34.0307 56.3505 34.3895 56.0775 34.4933 56.0433C34.5972 56.0087 34.6705 56.0756 34.6325 56.2131C34.5949 56.3505 34.4864 56.4463 34.4457 56.4787C34.4046 56.5111 34.3145 56.5117 34.3145 56.5117C34.3145 56.5117 34.2177 56.5694 34.2684 56.6537C34.3191 56.7384 34.3861 56.7342 34.461 56.6459C34.5361 56.5576 34.7158 56.3971 34.7795 56.2883C34.8433 56.1796 34.8836 55.918 34.7506 55.8093C34.6171 55.6998 34.4893 55.7687 34.3041 55.8899C34.1191 56.0105 33.7877 56.2154 33.7296 56.2361C33.6715 56.2564 33.6254 56.2601 33.5241 56.022C33.4226 55.7839 33.3315 55.615 33.3296 55.5521C33.3277 55.4889 33.3496 55.3124 33.5035 55.2723C33.5035 55.2723 33.4692 55.3863 33.4705 55.4279C33.4719 55.47 33.6031 55.5061 33.6044 55.5583C33.6062 55.6104 33.5853 55.7602 33.5987 55.7848C33.612 55.8097 33.6991 55.8427 33.7537 55.8554C33.8088 55.8688 33.6888 55.8533 33.7268 56.0035C33.7648 56.1531 33.9509 55.9945 33.9509 55.9945Z" fill="#315064"/>
<path fill-rule="evenodd" clip-rule="evenodd" d="M37.485 53.8102C37.4873 53.797 37.5445 53.7699 37.6404 53.7366C37.7361 53.7035 37.7971 53.6717 37.8369 53.7269C37.8768 53.7819 37.8922 53.9867 37.897 54.0697C37.9016 54.1528 37.7503 54.3055 37.6648 54.3191C37.5787 54.333 37.5855 54.2657 37.6141 54.2261C37.6429 54.186 37.8289 54.1117 37.7706 54.0243C37.7123 53.9368 37.5817 53.9711 37.5475 53.9771C37.5131 53.9822 37.4828 53.8241 37.485 53.8102ZM36.4448 54.6411C36.4448 54.6411 36.3367 54.7338 36.2978 54.7397C36.2593 54.7461 36.2363 54.8467 36.3078 54.8264C36.3793 54.806 36.4136 54.8003 36.4682 54.7032C36.5106 54.6275 36.4979 54.557 36.463 54.5356C36.4182 54.5083 36.3408 54.5465 36.3536 54.5939C36.376 54.6783 36.4448 54.6411 36.4448 54.6411ZM36.5015 54.3935C36.5272 54.3894 36.4647 54.3026 36.444 54.2574C36.4236 54.2121 36.4315 54.1804 36.4562 54.1146C36.4805 54.0488 36.2738 54.1572 36.1849 54.2336C36.0962 54.3098 35.9239 54.3333 35.8877 54.2994C35.8513 54.2657 35.9321 54.0585 35.9607 54.0185C35.9895 53.9786 36.0674 53.9967 36.1767 53.9659C36.2862 53.9349 36.5902 53.722 36.6895 53.7901C36.7885 53.8574 36.7637 53.9764 36.7449 53.9967C36.7263 54.0175 36.5833 54.0846 36.5552 54.1557C36.5272 54.2265 36.6856 54.2268 36.7113 54.4918C36.7363 54.7566 36.5859 54.887 36.539 55.0314C36.4922 55.1757 36.5981 55.1233 36.6459 55.0935C36.694 55.0636 36.7696 54.9058 36.8483 54.8751C36.9271 54.8449 36.9148 55.0406 36.8845 55.0986C36.8542 55.1564 36.6752 55.3003 36.6401 55.3279C36.6051 55.356 36.6192 55.4417 36.4617 55.4762C36.3045 55.5103 36.2122 55.3222 36.196 55.2766C36.1798 55.231 36.2471 55.1848 36.2732 55.0748C36.2995 54.9643 36.1038 55.0889 36.0134 55.0197C35.923 54.9507 35.9422 54.7977 36.0628 54.6194C36.1834 54.4411 36.4758 54.398 36.5015 54.3935ZM37.0985 55.0065C37.0613 55.0217 37.077 55.0628 37.153 55.1518C37.2291 55.2408 37.3646 55.2632 37.3259 55.2958C37.2874 55.3287 37.2305 55.4392 37.3047 55.4626C37.3788 55.4858 37.6373 55.4789 37.8485 55.3963C38.0596 55.3133 38.1136 55.3484 38.0757 55.1699C38.0378 54.9903 37.7686 55.1753 37.743 55.1533C37.7174 55.131 37.7189 55.0597 37.7514 54.9888C37.7839 54.9169 37.7438 54.6986 37.6992 54.6134C37.6992 54.6134 38.0462 54.0674 38.0508 54.0136C38.0551 53.9603 37.9886 53.6317 37.9452 53.5545C37.9019 53.4783 37.8371 53.4311 37.7141 53.4866C37.591 53.5419 37.3419 53.6885 37.1098 53.6951C36.8776 53.7019 36.7869 53.7654 36.7917 53.9584C36.7967 54.1516 36.8568 54.4683 36.9447 54.4937C37.0325 54.5191 37.1484 54.4736 37.1217 54.3367C37.0951 54.2 37.0392 54.0727 37.0606 54.0159C37.0822 53.9598 37.2137 53.8459 37.2605 53.9176C37.3071 53.989 37.254 54.0953 37.2595 54.1557C37.2649 54.2167 37.4531 54.3448 37.3921 54.4032C37.3313 54.4615 37.1489 54.5312 37.1624 54.5596C37.1757 54.5884 37.1873 54.6041 37.2206 54.6208C37.2541 54.6373 37.3019 54.6866 37.3019 54.6866C37.3019 54.6866 37.1496 54.7247 37.1516 54.7907C37.1534 54.8563 37.3261 54.8107 37.38 54.8153C37.4334 54.8199 37.5592 54.8083 37.4993 54.9545C37.4395 55.1009 37.3269 55.1368 37.2372 55.1032C37.1484 55.0689 37.1356 54.9918 37.0985 55.0065Z" fill="#315064"/>
<path fill-rule="evenodd" clip-rule="evenodd" d="M40.3362 54.1588C40.3624 54.1367 40.3384 54.0988 40.3052 54.0935C40.272 54.0882 39.9608 54.1012 39.8599 54.0735C39.7587 54.0458 39.687 53.8832 39.7209 53.8622C39.7544 53.8412 41.0389 53.9191 41.1012 53.9293C41.1636 53.9396 41.3152 53.9829 41.2677 54.1111C41.2204 54.2393 41.0293 54.1851 40.954 54.1614C40.8786 54.1381 40.835 54.1045 40.598 54.1943C40.3611 54.2834 40.2952 54.4086 40.3943 54.4247C40.4937 54.4408 40.7715 54.5164 40.7448 54.6819C40.7176 54.8469 40.6782 54.95 40.5909 54.9998C40.5035 55.0497 40.4276 55.0749 40.4161 55.0996C40.4049 55.1242 40.4226 55.1535 40.4226 55.1535C40.4226 55.1535 40.9898 55.2118 41.0716 55.3122C41.1534 55.4122 41.1159 55.5494 40.7045 55.4824C40.2933 55.4149 39.5582 55.3441 39.3995 55.3445C39.2412 55.345 39.1865 55.2873 39.2539 55.1511C39.3215 55.0149 39.7521 55.1722 40.1414 55.0511C40.5307 54.9297 40.5105 54.7529 40.4137 54.6995C40.3169 54.6458 40.1072 54.6833 40.0848 54.5666C40.0476 54.4247 40.3098 54.1809 40.3362 54.1588Z" fill="#315064"/>
<path fill-rule="evenodd" clip-rule="evenodd" d="M44.2638 55.8261C44.2646 55.8495 44.1757 55.8807 44.1285 55.845C44.0807 55.8089 44.0199 55.7539 44.0214 55.6896C44.0237 55.6258 44.206 55.5072 44.2741 55.5587C44.3424 55.6104 44.2632 55.8022 44.2638 55.8261ZM43.5807 55.9773C43.5891 56.0158 43.4617 56.2649 43.5301 56.4893C43.5989 56.7134 43.7 57.0181 43.8249 57.1125C43.9498 57.2065 44.041 57.1963 44.0828 57.2276C44.1246 57.2591 44.1995 57.1528 44.1221 57.0335C44.0442 56.9142 43.6526 56.1293 43.8362 56.0345C43.9365 56.0499 44.2108 56.3222 44.3319 56.2548C44.4526 56.1873 44.4677 56.124 44.4664 56.0949C44.465 56.066 44.3697 55.7471 44.4088 55.609C44.448 55.4708 44.4712 55.1805 44.194 55.1765C43.9176 55.1728 43.8115 55.6341 43.5547 55.4311C43.2978 55.2275 42.9324 55.3292 43.121 55.6165C43.121 55.6165 43.1743 55.6752 43.2134 55.7048C43.2519 55.7335 43.1207 55.784 42.9574 55.7962C42.7947 55.8086 42.5238 55.8092 42.4371 55.8928C42.3506 55.9768 42.4144 56.0156 42.6151 56.046C42.8165 56.0766 43.1222 56.0415 43.2684 56.0023C43.4142 55.9638 43.573 55.9385 43.5807 55.9773Z" fill="#315064"/>
<path fill-rule="evenodd" clip-rule="evenodd" d="M46.5434 57.1711C46.3706 57.2503 46.2248 57.3899 46.1913 57.3991C46.1571 57.4077 46.1561 57.4042 46.1247 57.3457C46.0936 57.287 46.0055 57.2089 45.9457 57.2157C45.8856 57.2222 45.5181 57.3354 45.5531 57.5008C45.5878 57.6658 45.6948 57.6621 45.749 57.641C45.7795 57.6293 45.8142 57.5906 45.8382 57.5591C45.8733 57.5146 45.8871 57.5051 45.9392 57.5226C46.0064 57.5445 46.1136 57.6015 46.1468 57.6697C46.1902 57.7607 46.751 58.4247 46.7072 58.5164C46.6641 58.608 46.5428 58.4886 46.5932 58.6939C46.6437 58.8988 46.8469 58.7576 46.8906 58.732C46.9348 58.7066 47.0181 58.5999 46.8738 58.377C46.8738 58.377 47.0229 58.344 47.1311 58.344C47.2394 58.3436 47.4679 58.2254 47.4902 58.0802C47.5124 57.9341 47.3776 57.8865 47.3181 57.893C47.2583 57.8997 47.129 57.8667 47.0928 57.8266C47.0567 57.7866 46.9857 57.7433 47.0813 57.744C47.177 57.744 47.2099 57.744 47.2509 57.7199C47.291 57.6958 47.215 57.5631 47.1503 57.5466C47.0857 57.5299 46.9659 57.5641 46.959 57.546C46.952 57.5277 47.0177 57.494 47.0233 57.4547C47.0345 57.3746 46.9483 57.3388 46.8984 57.3319C46.8255 57.3213 46.771 57.3669 46.724 57.3792C46.6898 57.3884 46.7257 57.3412 46.7451 57.3048C46.7641 57.2683 46.7159 57.0913 46.5434 57.1711ZM46.9842 58.0184C46.9842 58.0184 46.8984 58.0224 46.8792 57.9841C46.8606 57.9457 46.9824 57.853 47.0076 57.8431C47.033 57.8332 47.1969 57.9238 47.233 57.9636C47.2691 58.0035 47.2676 58.0538 47.2421 58.0722C47.2158 58.0907 46.9865 58.1963 46.9865 58.1963C46.9271 58.1817 46.9842 58.0184 46.9842 58.0184ZM46.7985 57.9574C46.7372 57.9395 46.6677 57.9418 46.6239 57.9253C46.5801 57.9091 46.5165 57.8837 46.5319 57.9238C46.5471 57.9632 46.6228 58.0839 46.6568 58.0747C46.6907 58.0656 46.8032 58.0346 46.8172 58.0167C46.831 57.9987 46.8592 57.9753 46.7985 57.9574ZM46.7532 57.5511C46.6757 57.5767 46.5322 57.6243 46.4739 57.6467C46.4164 57.6692 46.3469 57.7791 46.4669 57.745C46.6477 57.6939 46.5851 57.651 46.7758 57.6958C46.7758 57.6958 46.7612 57.7226 46.6918 57.7366C46.6228 57.7514 46.5814 57.763 46.6138 57.8127C46.6454 57.8631 46.7309 57.8795 46.7971 57.804C46.8634 57.7288 46.9066 57.6578 46.8871 57.6074C46.8673 57.5565 46.8303 57.5251 46.7532 57.5511ZM46.4895 57.4287C46.4895 57.4287 46.3074 57.4951 46.2721 57.5213C46.2364 57.5474 46.2529 57.6117 46.3287 57.5825C46.4047 57.5529 46.4996 57.4871 46.5018 57.4612C46.5046 57.4356 46.4895 57.4287 46.4895 57.4287ZM45.9771 58.0802C45.8697 57.9311 45.8133 57.915 45.8345 57.8405C45.8553 57.766 45.8836 57.7093 46.0071 57.782C46.0846 57.8273 46.1706 57.964 46.2439 58.0714C46.287 58.1356 46.3345 58.1835 46.348 58.2109C46.3845 58.2841 46.4948 58.4285 46.3534 58.4828C46.2126 58.5375 46.1641 58.3904 46.0954 58.3961L46.074 58.4047L46.1423 58.5816C46.1423 58.5816 46.2529 58.6094 46.287 58.7292C46.3208 58.8489 46.1918 58.8906 46.1078 58.7818C46.0238 58.6732 45.9501 58.5566 45.9215 58.5589C45.8937 58.5619 45.7653 58.6158 45.6987 58.6371C45.6321 58.659 45.4419 58.662 45.36 58.6644C45.2777 58.6674 45.0392 58.6517 44.9993 58.5924C44.9598 58.5329 44.8801 58.4559 44.9817 58.4078C45.0841 58.3601 45.1717 58.3717 45.1717 58.3717L45.2408 58.3036C45.2408 58.3036 45.3636 58.4595 45.448 58.431C45.5327 58.4024 45.7469 58.3654 45.6883 58.2798C45.6307 58.1942 45.4663 58.0911 45.3578 58.0046C45.2492 57.9179 45.2441 57.7863 45.4212 57.7717C45.6325 57.7546 45.6825 58.014 45.8288 58.1102C45.9127 58.166 46.0326 58.2337 46.0326 58.2337C46.0326 58.2337 46.0852 58.2297 45.9771 58.0802Z" fill="#315064"/>
<path fill-rule="evenodd" clip-rule="evenodd" d="M38.4832 55.8486C42.9847 55.8486 46.6348 59.4989 46.6348 64C46.6348 68.5012 42.9847 72.1512 38.4832 72.1512C33.9821 72.1512 30.332 68.5012 30.332 64C30.332 59.4989 33.9821 55.8486 38.4832 55.8486Z" fill="#315064"/>
<path fill-rule="evenodd" clip-rule="evenodd" d="M36.6621 65.0831H37.5253C37.6149 65.0831 37.6879 65.015 37.6879 64.9325V64.6315C37.6879 64.549 37.6149 64.4813 37.5253 64.4813H35.444C35.3546 64.4813 35.2813 64.549 35.2813 64.6315V64.9325C35.2813 65.015 35.3546 65.0831 35.444 65.0831H36.2584V67.6149H35.444C35.3546 67.6149 35.2813 67.6828 35.2813 67.7654V68.0662C35.2813 68.1491 35.3546 68.2168 35.444 68.2168H37.5253C37.6149 68.2168 37.6879 68.1491 37.6879 68.0662V67.7654C37.6879 67.6828 37.6149 67.6149 37.5253 67.6149H36.6621V65.0831ZM37.1517 61.0654C37.0866 61.0654 37.0336 61.1187 37.0336 61.1831V61.4354C37.0336 61.5005 37.0866 61.5536 37.1517 61.5536H37.3089C37.3737 61.5536 37.4269 61.5005 37.4269 61.4354V61.1831C37.4269 61.1187 37.3737 61.0654 37.3089 61.0654H37.1517ZM36.3785 61.0654C36.3137 61.0654 36.2607 61.1187 36.2607 61.1831V61.4354C36.2607 61.5005 36.3137 61.5536 36.3785 61.5536H36.5358C36.6008 61.5536 36.654 61.5005 36.654 61.4354V61.1831C36.654 61.1187 36.6008 61.0654 36.5358 61.0654H36.3785ZM37.1517 60.0076C37.0866 60.0076 37.0336 60.0606 37.0336 60.1256V60.3777C37.0336 60.4428 37.0866 60.4959 37.1517 60.4959H37.3089C37.3737 60.4959 37.4269 60.4428 37.4269 60.3777V60.1256C37.4269 60.0606 37.3737 60.0076 37.3089 60.0076H37.1517ZM36.3785 60.0076C36.3137 60.0076 36.2607 60.0606 36.2607 60.1256V60.3777C36.2607 60.4428 36.3137 60.4959 36.3785 60.4959H36.5358C36.6008 60.4959 36.654 60.4428 36.654 60.3777V60.1256C36.654 60.0606 36.6008 60.0076 36.5358 60.0076H36.3785ZM37.0463 62.1785H37.754V59.3297H35.9352V62.1785H36.6428V62.503H35.9352V64.2401H36.236V63.1106H36.6428V63.6758H36.534C36.4446 63.6758 36.3713 63.7437 36.3713 63.8263V64.1268C36.3713 64.2093 36.4446 64.2773 36.534 64.2773H37.1552C37.2447 64.2773 37.318 64.2093 37.318 64.1268V63.8263C37.318 63.7437 37.2447 63.6758 37.1552 63.6758H37.0463V63.1106H37.4532V64.2401H37.754V62.503H37.0463V62.1785ZM40.6628 64.3194C40.6375 64.3194 40.6168 64.3397 40.6168 64.3648V64.7305C40.6168 64.7558 40.6375 64.7763 40.6628 64.7763H41.7203C41.7453 64.7763 41.7662 64.7558 41.7662 64.7305V64.3648C41.7662 64.3397 41.7453 64.3194 41.7203 64.3194H40.6628ZM40.6628 63.1637C40.6375 63.1637 40.6168 63.1842 40.6168 63.2095V63.5751C40.6168 63.6003 40.6375 63.621 40.6628 63.621H41.7203C41.7453 63.621 41.7662 63.6003 41.7662 63.5751V63.2095C41.7662 63.1842 41.7453 63.1637 41.7203 63.1637H40.6628ZM40.6168 68.2525V65.4274H41.718L41.7014 65.4776C41.7014 65.4776 41.6892 65.3452 41.6892 67.0313C41.6892 68.7172 42.4701 70.4743 42.4701 70.4743L44.0316 70.4921C43.2865 69.8708 42.2391 67.8479 42.1148 67.1378C42.088 66.9828 42.0983 66.5044 42.0891 66.2505C42.0791 65.9782 42.0751 65.693 42.0747 65.4274H42.0891V62.7651C42.0891 62.616 41.9669 62.4936 41.8176 62.4936H40.5496C40.4003 62.4936 40.2777 62.6156 40.2777 62.7651V68.2525H40.6168ZM39.3713 67.6593H38.4988L38.9353 67.157L39.3713 67.6593ZM38.1581 68.2557H39.7119C39.8953 68.2557 40.045 68.1061 40.045 67.9227V66.0361H39.6455V67.2635L39.1101 66.7269V66.0361H38.7601V66.7269L38.2249 67.2635V66.0361H37.8252V67.9227C37.8252 68.1061 37.975 68.2557 38.1581 68.2557ZM43.5588 57.5431H42.3927C42.3927 57.5431 41.6491 58.4203 41.6288 59.4424L41.6393 59.4968H41.2171V59.3533H40.879V59.4968H40.3023C40.2131 59.4968 40.1399 59.5647 40.1399 59.6472V59.9481C40.1399 60.031 40.2131 60.0987 40.3023 60.0987H40.879V60.529H40.3023C40.2131 60.529 40.1399 60.5968 40.1399 60.6796V60.9802C40.1399 61.0628 40.2131 61.1307 40.3023 61.1307H40.879V61.5865H40.3023C40.2131 61.5865 40.1399 61.6541 40.1399 61.7367V62.0376C40.1399 62.1201 40.2131 62.1879 40.3023 62.1879H42.3956V65.0775C42.3956 65.1259 42.4357 65.1653 42.4844 65.1653H44.2384C44.2874 65.1653 44.3273 65.1259 44.3273 65.0775V62.3432C44.3273 62.2825 44.2778 62.233 44.217 62.233H43.3339C43.2733 62.233 43.2235 62.2825 43.2235 62.3432V64.1502H43.6039V62.8485C43.6039 62.837 43.613 62.8279 43.6242 62.8279H43.9883C43.9994 62.8279 44.0086 62.837 44.0086 62.8485V64.5802H42.7913V61.7367C42.7913 61.6541 42.7183 61.5865 42.6289 61.5865H41.2171V61.1307H41.8803C41.9698 61.1307 42.0433 61.0628 42.0433 60.9802V60.6796C42.0433 60.5969 41.9698 60.529 41.8803 60.529H41.2171V60.0987H41.8803C41.9698 60.0987 42.0433 60.031 42.0433 59.9481V59.6472C42.0433 59.6121 42.0296 59.5795 42.0078 59.5542C42.0258 59.4962 42.044 59.4318 42.0621 59.3596C42.2579 58.5751 43.5174 57.7289 43.6932 57.6461C43.8685 57.5635 43.5588 57.5431 43.5588 57.5431ZM33.3106 57.5431C33.3106 57.5431 33.0009 57.5635 33.1764 57.6461C33.3518 57.7289 34.611 58.5751 34.807 59.3596C34.8547 59.5495 34.9026 59.6869 34.9483 59.7858C34.9655 59.8231 34.9819 59.8511 34.9973 59.8716C35.017 59.9279 35.0882 59.97 35.1574 59.97H35.2235V61.5448H34.2857C34.1961 61.5448 34.1231 61.6125 34.1231 61.6952V64.5386H32.9058V62.8066C32.9058 62.7955 32.9149 62.7864 32.9261 62.7864H33.2903C33.3014 62.7864 33.3106 62.7955 33.3106 62.8066V64.1087H33.6909V62.3017C33.6909 62.2409 33.6412 62.1915 33.5802 62.1915H32.6973C32.6364 62.1915 32.5869 62.2409 32.5869 62.3017V65.0361C32.5869 65.0844 32.6269 65.1238 32.676 65.1238H34.4297C34.4786 65.1238 34.5187 65.0844 34.5187 65.0361V62.1465H35.2235V63.6153H34.9408C34.8514 63.6153 34.7781 63.6831 34.7781 63.7658V64.0667C34.7781 64.0699 34.7781 64.0728 34.7783 64.0761C34.7835 64.2335 34.8518 66.4532 34.732 67.1378C34.6075 67.8479 33.5606 69.8708 32.8153 70.4921L34.3768 70.4743C34.3768 70.4743 35.158 68.7172 35.158 67.0313V64.2173H35.6331C35.7223 64.2173 35.7955 64.1496 35.7955 64.0667V63.7658C35.7955 63.6835 35.7223 63.6153 35.6331 63.6153H35.5616V62.1465H35.6331C35.7223 62.1465 35.7955 62.0786 35.7955 61.996V61.6952C35.7955 61.6125 35.7223 61.5448 35.6331 61.5448H35.5616V59.97H35.6331C35.7222 59.97 35.7955 59.9019 35.7955 59.8196V59.5187C35.7955 59.436 35.7223 59.368 35.6331 59.368H35.2377C35.1845 58.3783 34.4769 57.5431 34.4769 57.5431H33.3106ZM35.1592 57.5017H41.6088C41.698 57.5017 41.7713 57.5695 41.7713 57.6521V57.9529C41.7713 58.0358 41.698 58.1035 41.6088 58.1035H35.9083C35.8296 58.1995 35.8317 58.3497 35.8527 58.4731H38.1035C38.193 58.4731 38.2662 58.5406 38.2662 58.6233V60.2258H39.5443V59.9647H38.7812C38.6827 59.9647 38.6025 59.8842 38.6025 59.786V58.6233C38.6025 58.5406 38.6757 58.4731 38.7651 58.4731H41.3018C41.3914 58.4731 41.4645 58.5406 41.4645 58.6233V58.924C41.4645 59.0068 41.3912 59.0747 41.3018 59.0747H38.957V59.3772H39.8272V61.5696C39.8272 61.7569 39.7495 61.7677 39.5949 61.7745C39.4198 61.7829 39.1573 61.7735 38.9938 61.7735V61.9747L39.8099 62.1504C39.9412 62.1788 40.0125 62.325 39.9742 62.4536L39.9395 62.5703C39.9015 62.6988 39.7644 62.7736 39.6364 62.7348L38.587 62.4126V61.2094C38.587 61.159 38.6279 61.1182 38.6785 61.1182H39.5443V60.8351H38.2662V62.5692L39.7882 63.0209C39.9169 63.0592 39.9906 63.1955 39.9525 63.3239L39.9177 63.441C39.8797 63.5692 39.7435 63.6421 39.6148 63.6049L38.2662 63.2174V63.4659L39.8099 63.9134C39.9103 63.9419 39.9768 64.0319 39.9837 64.1307C40.0197 64.1814 40.045 64.235 40.045 64.2785V65.8572H39.6455V64.83L39.6364 64.4972L38.5264 64.2041L38.4826 64.3526L39.2008 64.5658C39.3293 64.6043 39.4031 64.7406 39.3649 64.869L39.3302 64.986C39.2921 65.1142 39.1556 65.1884 39.027 65.15L38.3096 64.9367L38.2512 65.1341L39.0483 65.3713C39.177 65.4097 39.2509 65.5459 39.2124 65.6745L39.178 65.7912C39.1395 65.9197 39.0031 65.9934 38.8747 65.9554L37.7713 65.5729L38.2466 64.0122H37.9342V59.0747H35.6781C35.5887 59.0747 35.5155 59.0068 35.5155 58.924V58.6233C35.5155 58.3493 35.1455 58.1223 35.079 58.0834C35.076 58.0819 35.073 58.0804 35.0703 58.0788L35.0687 58.0778C35.0253 58.0506 34.9963 58.0047 34.9963 57.9529V57.6521C34.9963 57.5695 35.0695 57.5017 35.1592 57.5017Z" fill="white"/>
<path fill-rule="evenodd" clip-rule="evenodd" d="M39.6359 70.1013C39.6359 70.3334 39.7722 70.4493 40.0457 70.4493C40.3095 70.4313 40.4529 70.3265 40.4755 70.1351C40.4755 69.9621 40.3961 69.8527 40.2368 69.8076C40.3872 69.7715 40.4644 69.6708 40.4689 69.5068C40.4509 69.3248 40.3141 69.2228 40.0592 69.1998C39.7996 69.2089 39.6628 69.323 39.6497 69.5411H39.916C39.9291 69.4458 39.9773 69.3912 40.0592 69.3774C40.1548 69.382 40.205 69.4365 40.2093 69.5411C40.2139 69.6643 40.1163 69.728 39.916 69.7325V69.9028C40.1071 69.8983 40.205 69.9647 40.2093 70.1013C40.2003 70.2149 40.1479 70.2766 40.0523 70.2858C39.9568 70.2718 39.9065 70.2107 39.9023 70.1013H39.6359ZM38.5829 70.1351C38.5923 70.3401 38.7263 70.445 38.9857 70.4493C39.259 70.4313 39.407 70.2969 39.4297 70.0467C39.4251 69.7779 39.302 69.6392 39.0609 69.6297C38.97 69.6297 38.8948 69.6596 38.8356 69.719L38.8495 69.3975H39.3611V69.2271H38.6239L38.5897 69.9374L38.8495 69.9439C38.8764 69.8577 38.9265 69.812 38.9993 69.8076C39.1043 69.8165 39.1612 69.8894 39.1703 70.026C39.1612 70.1945 39.1019 70.2809 38.9927 70.2858C38.9062 70.2809 38.8563 70.231 38.8425 70.1351H38.5829ZM37.7691 69.5958C37.7691 69.4503 37.8259 69.3774 37.9397 69.3774C38.0397 69.382 38.0922 69.4547 38.0968 69.5958C38.0922 69.728 38.0397 69.7963 37.9397 69.8009C37.8259 69.8009 37.7691 69.7325 37.7691 69.5958ZM37.5166 70.1351C37.5206 70.3493 37.6551 70.4541 37.9192 70.4493C38.0785 70.4493 38.1947 70.3946 38.2676 70.2858C38.3356 70.1807 38.3675 69.9987 38.3632 69.739C38.3675 69.3748 38.2219 69.1951 37.9261 69.1998C37.6575 69.2182 37.514 69.3546 37.4956 69.6096C37.5185 69.8329 37.6391 69.9557 37.8575 69.9784C37.9488 69.9826 38.0283 69.9575 38.0968 69.9028C38.1107 70.158 38.049 70.2858 37.9122 70.2858C37.8443 70.2858 37.8009 70.2353 37.7826 70.1351H37.5166ZM36.5591 69.6435C36.6636 69.6028 36.7592 69.5505 36.8458 69.4866V70.4359H37.1121V69.2271H36.8661C36.7706 69.2953 36.6684 69.3546 36.5591 69.4048V69.6435Z" fill="white"/>
<path fill-rule="evenodd" clip-rule="evenodd" d="M57.5908 59.1384C57.5908 59.1384 57.3613 59.3647 57.3948 59.6028C57.4285 59.8414 57.5268 59.9143 57.9489 59.7855C58.3715 59.6571 58.4982 58.8921 58.3006 58.7309C58.1032 58.5693 57.5908 59.1384 57.5908 59.1384ZM56.6292 58.5123C55.9377 58.1517 55.7589 58.123 55.7296 57.7398C55.7004 57.3565 55.8182 57.1371 56.281 57.0317C56.7436 56.9262 57.9985 56.6201 57.9985 56.6201C57.9985 56.6201 58.3328 56.5943 58.2716 55.793C58.2103 54.9917 58.6586 54.2563 58.9286 54.2705C59.199 54.2853 59.3293 56.098 59.2422 56.2795C59.1548 56.4615 60.1557 56.2451 60.1557 56.2451C60.1557 56.2451 60.5355 56.8119 60.4927 57.1308C60.4495 57.4493 60.566 57.6512 59.699 57.7521C59.7289 58.1402 59.8973 58.5531 59.8681 58.8551C59.811 59.4462 59.4609 59.4784 59.4859 59.8014C59.4922 59.8836 61.5176 59.5412 61.9065 59.7916C62.2958 60.0428 61.8608 60.9518 61.2201 60.9305C60.5794 60.9092 58.4472 61.1776 58.2574 61.3323C58.0672 61.4871 57.7675 61.9654 57.7675 61.9654L60.0648 61.583C60.8039 61.4601 60.802 61.8831 60.7206 62.7566C60.6278 63.745 60.9332 65.5443 60.7673 66.0127C60.6012 66.4812 60.4846 67.1561 59.9293 67.3735C59.3743 67.5915 59.0629 67.4748 59.0629 67.4748L58.9254 66.1182C58.9254 66.1182 59.5274 66.0723 59.5447 65.8609C59.5622 65.6491 59.938 62.6408 59.3949 62.5777C58.8519 62.5136 57.3097 63.0171 57.6063 63.3798C57.6063 63.3798 58.7943 63.079 58.7338 63.6091C58.6735 64.1395 58.5264 63.9756 58.6642 64.4559C58.8014 64.936 58.8897 65.2098 58.5222 65.238C58.1542 65.2662 57.9458 65.1767 57.8239 64.9054C57.7022 64.6345 58.0207 64.3999 57.6596 64.0769C57.6596 64.0769 57.2797 64.3865 57.5014 65.526C57.7228 66.666 57.5743 66.9226 57.2187 66.6692C56.8632 66.4162 56.3843 65.4359 56.366 64.3158C56.3482 63.1956 56.8487 61.8255 56.8487 61.8255C56.8487 61.8255 56.3805 61.8612 55.1313 62.2369C53.8816 62.6127 53.3494 62.6884 53.287 62.3077C53.2239 61.9269 53.9266 60.997 56.4826 60.5567C55.6577 59.1522 56.3032 59.196 56.6292 58.5123Z" fill="#315064"/>
<path fill-rule="evenodd" clip-rule="evenodd" d="M70.5541 58.1888C70.5541 58.1888 71.2821 58.1671 71.525 57.9292C71.525 57.9292 71.9792 58.3484 71.8072 59.0502C71.635 59.7523 71.1397 60.0721 70.7324 60.0747C70.3248 60.0773 70.0591 59.9363 70.4919 59.6429C70.9243 59.349 71.2626 59.2615 71.1594 58.9778C71.0562 58.694 70.7265 58.5577 70.6517 58.3836C70.5765 58.2097 70.5541 58.1888 70.5541 58.1888ZM69.9233 64.7865L69.6896 64.8229C69.6896 64.8229 69.4828 65.3038 69.2168 65.5207C68.9509 65.7375 67.7986 65.8298 66.9597 65.7911C66.1212 65.7526 66.3 64.8048 66.4679 64.3928C66.6359 63.9809 66.5441 63.8749 67.0432 63.6221C67.5428 63.3685 67.5402 63.6811 67.5363 63.9714C67.5323 64.2614 67.335 64.5412 67.3977 64.872C67.4602 65.2032 68.2726 65.154 68.2726 65.154C68.2726 65.154 68.3325 65.0835 68.3098 64.7055C68.2869 64.3275 68.5793 64.1982 68.5793 64.1982C68.5793 64.1982 69.3422 64.3979 69.6411 64.3796C69.9405 64.3616 70.2995 63.9156 70.7579 64.0446C71.2158 64.1727 71.18 64.6436 70.8516 64.8865C70.5231 65.1298 69.9233 64.7865 69.9233 64.7865ZM70.6303 62.2895C70.6303 62.2895 71.7439 62.267 71.847 61.8367C71.9495 61.4068 71.6864 61.3112 71.1724 61.3197C71.1724 61.3197 71.0816 60.8792 71.4003 60.8374C71.7198 60.7957 72.566 59.8967 72.6033 59.0914C72.6403 58.2863 72.6324 57.7958 72.6292 57.394C72.6265 56.9927 72.4127 56.6485 71.5635 56.789C70.7138 56.9296 70.5578 57.1846 70.1091 57.2118C69.6604 57.239 69.3777 58.2377 69.1654 58.2726C68.9527 58.3078 69.1451 57.9394 68.7509 57.8067C68.3571 57.6745 68.1245 57.7331 68.1765 57.5292C68.2285 57.3254 69.1157 57.4501 69.9901 57.0179C70.8647 56.586 71.3228 56.0005 70.8446 55.5386C70.3661 55.0766 68.9493 55.4072 68.298 56.3395C67.6463 57.271 67.7653 57.4647 67.9645 57.9215C68.1636 58.378 67.5945 58.1892 67.6057 59.438C67.6165 60.6868 67.7615 62.7305 67.7977 62.9738C67.8337 63.2168 68.017 64.1207 69.1497 64.0523C70.2822 63.984 72.2922 63.5279 72.7889 63.5868C73.2858 63.6463 73.4623 64.0819 73.0433 64.5979C72.6242 65.1141 71.9923 65.3086 71.76 65.3673C71.5274 65.4261 71.152 65.2477 71.152 65.2477C71.152 65.2477 70.6405 65.301 70.6901 65.7666C70.7397 66.2321 71.0255 66.3484 71.5049 66.1192C71.9845 65.8893 73.0368 65.5577 73.5093 65.217C73.9821 64.8759 74.6482 63.8317 74.3034 63.0941C73.9586 62.3561 73.2962 62.3963 72.2972 62.5457C71.2982 62.6956 69.5314 62.9139 69.2508 62.8861C68.9705 62.8584 68.7726 62.7811 68.8055 61.5519C68.8387 60.3229 68.7836 59.4113 68.8955 59.1369C69.0077 58.8621 69.4362 58.1448 70.1519 58.2803C70.1519 58.2803 69.7917 58.7034 69.7172 58.8865C69.6421 59.0693 70.1179 59.4869 70.0243 59.7156C69.9309 59.9442 69.5599 60.5469 69.5679 60.6803C69.5763 60.8139 69.8739 61.1305 70.0769 61.2966C70.2799 61.4627 69.8112 61.1567 69.6833 61.8782C69.5553 62.6002 70.6303 62.2895 70.6303 62.2895Z" fill="#315064"/>
<path fill-rule="evenodd" clip-rule="evenodd" d="M86.7284 57.5167C86.7449 57.4538 87.0175 57.3585 87.4679 57.2538C87.9184 57.1498 88.2094 57.033 88.3616 57.3141C88.5141 57.5956 88.4815 58.567 88.4608 58.96C88.4404 59.3529 87.6785 59.9877 87.284 60.0068C86.8887 60.0258 86.953 59.7132 87.1031 59.541C87.2531 59.3688 88.1319 59.12 87.9124 58.6768C87.6933 58.2335 87.0839 58.3249 86.9264 58.3325C86.7683 58.3401 86.7115 57.5792 86.7284 57.5167ZM81.6035 60.8577C81.6035 60.8577 81.0671 61.2343 80.8896 61.2429C80.7119 61.2515 80.5552 61.7132 80.8896 61.6557C81.2239 61.598 81.3824 61.5899 81.6777 61.1636C81.9082 60.8312 81.8867 60.4913 81.7391 60.3725C81.5498 60.2196 81.1813 60.3572 81.2145 60.5878C81.2735 60.9975 81.6035 60.8577 81.6035 60.8577ZM81.9847 59.7255C82.1031 59.7197 81.8637 59.2777 81.7939 59.0537C81.7237 58.8302 81.7761 58.6833 81.9201 58.3875C82.0643 58.0918 81.0738 58.4901 80.6337 58.8002C80.1929 59.1101 79.4019 59.1274 79.2549 58.9491C79.1076 58.7704 79.5776 57.8401 79.7276 57.6681C79.8777 57.4958 80.2204 57.6238 80.7311 57.5369C81.2413 57.4505 82.7258 56.6158 83.1397 56.9881C83.5531 57.36 83.3816 57.9049 83.2871 57.9918C83.1917 58.0788 82.5108 58.3179 82.3478 58.635C82.1849 58.9524 82.9019 59.0421 82.8831 60.3011C82.8646 61.5604 82.1179 62.0917 81.8331 62.7449C81.5476 63.3981 82.0533 63.209 82.2852 63.0948C82.5176 62.9805 82.9388 62.279 83.3105 62.1787C83.6812 62.0783 83.5273 62.9937 83.3616 63.2495C83.1959 63.5045 82.3128 64.0836 82.1403 64.1951C81.9676 64.3066 81.9873 64.7179 81.2586 64.7945C80.5298 64.871 80.2075 63.9374 80.1572 63.7128C80.1068 63.4882 80.4349 63.3072 80.6081 62.8039C80.7823 62.3004 79.835 62.779 79.4606 62.4053C79.0864 62.0314 79.2505 61.3218 79.8861 60.5484C80.5221 59.7752 81.8664 59.7312 81.9847 59.7255ZM84.3758 62.9322C84.2004 62.9818 84.2495 63.1859 84.5486 63.6455C84.8483 64.106 85.4508 64.2834 85.2593 64.4159C85.0674 64.5493 84.754 65.0386 85.0787 65.1887C85.4025 65.3377 86.5754 65.4462 87.5722 65.1716C88.5683 64.8963 88.7955 65.092 88.7147 64.2294C88.6333 63.3666 87.3222 64.0901 87.217 63.9714C87.1127 63.8528 87.156 63.5201 87.3387 63.202C87.5208 62.8841 87.451 61.8351 87.2921 61.4095C87.2921 61.4095 89.1374 59.0309 89.1845 58.7806C89.2321 58.531 89.096 56.9489 88.9393 56.5641C88.782 56.1796 88.5123 55.9248 87.9281 56.1177C87.3433 56.3109 86.1424 56.8642 85.0889 56.7701C84.035 56.6766 83.5918 56.9251 83.5173 57.836C83.4422 58.7476 83.5549 60.2686 83.9388 60.4357C84.3232 60.6032 84.8703 60.4532 84.8189 59.7954C84.7673 59.1379 84.5784 58.5072 84.7049 58.2537C84.8313 57.9998 85.4822 57.5351 85.658 57.8984C85.8335 58.2608 85.5398 58.7289 85.5334 59.0182C85.5279 59.3077 86.314 60.0123 86.0089 60.2539C85.7038 60.4955 84.8436 60.7227 84.8901 60.8646C84.9363 61.0069 84.98 61.0873 85.1232 61.1838C85.2665 61.2798 85.4573 61.539 85.4573 61.539C85.4573 61.539 84.749 61.6349 84.7246 61.9454C84.6995 62.2563 85.5054 62.1351 85.7457 62.1854C85.9857 62.2356 86.5607 62.2494 86.2157 62.9056C85.8711 63.5615 85.3419 63.6698 84.9559 63.4613C84.5693 63.2529 84.552 62.8827 84.3758 62.9322Z" fill="#315064"/>
<path fill-rule="evenodd" clip-rule="evenodd" d="M96.5728 58.0645C96.6771 57.9373 96.5376 57.7744 96.3799 57.7744C96.2236 57.7744 94.7897 58.0827 94.3006 58.0282C93.8112 57.974 93.3569 57.2486 93.4968 57.1216C93.6366 56.9947 99.649 56.3599 99.9459 56.3599C100.243 56.3599 100.977 56.4511 100.854 57.1036C100.732 57.7564 99.8057 57.6477 99.4387 57.593C99.0718 57.5388 98.8443 57.4117 97.8132 58.0282C96.7821 58.6451 96.5728 59.2979 97.0444 59.2979C97.5169 59.2979 98.862 59.443 98.862 60.259C98.862 61.0746 98.7573 61.6007 98.3903 61.9091C98.0234 62.2175 97.6915 62.3992 97.6565 62.5258C97.6217 62.6528 97.7262 62.7796 97.7262 62.7796C97.7262 62.7796 100.4 62.6163 100.854 63.0334C101.309 63.4503 101.239 64.1393 99.2819 64.1393C97.3246 64.1393 93.8642 64.3753 93.1303 64.5023C92.3954 64.6288 92.0984 64.3935 92.3086 63.6862C92.5179 62.9791 94.6328 63.3959 96.3452 62.5078C98.058 61.6188 97.8311 60.7848 97.3416 60.6035C96.8525 60.4218 95.9084 60.7664 95.7165 60.2225C95.4368 59.5697 96.4678 58.1913 96.5728 58.0645Z" fill="#315064"/>
<path fill-rule="evenodd" clip-rule="evenodd" d="M111.546 58.7485C111.618 58.8425 111.365 59.2369 111.077 59.2369C110.788 59.2369 110.391 59.1994 110.211 58.9365C110.03 58.6735 110.391 57.6408 110.806 57.6408C111.221 57.6408 111.474 58.6547 111.546 58.7485ZM109.344 61.4334C109.488 61.565 109.723 62.9546 110.643 63.649C111.564 64.3438 112.845 65.2638 113.603 65.2638C114.362 65.2638 114.686 64.9446 114.939 64.9446C115.192 64.9446 115.174 64.2875 114.524 64.0435C113.874 63.7993 110.066 61.8278 110.499 60.889C110.933 60.6448 112.791 60.9078 113.062 60.2696C113.333 59.631 113.207 59.3306 113.116 59.2181C113.026 59.1053 111.727 58.1099 111.474 57.434C111.221 56.7583 110.463 55.5193 109.38 56.3453C108.297 57.1715 109.236 59.3497 107.648 59.3119C106.059 59.2745 104.94 60.7952 106.511 61.3774C106.511 61.3774 106.89 61.4524 107.124 61.4524C107.359 61.4524 106.998 62.0534 106.403 62.5977C105.807 63.1422 104.76 63.9682 104.669 64.5691C104.58 65.1701 104.94 65.1324 105.807 64.6441C106.674 64.1558 107.756 63.0856 108.207 62.4852C108.658 61.8843 109.199 61.3021 109.344 61.4334Z" fill="#315064"/>
<path fill-rule="evenodd" clip-rule="evenodd" d="M119.678 56.9774C119.681 57.8991 119.991 58.8191 119.964 58.9868C119.937 59.1545 119.919 59.1534 119.611 59.1744C119.302 59.1945 118.801 59.43 118.713 59.7071C118.626 59.9845 118.397 61.8335 119.164 62.0076C119.932 62.1815 120.121 61.7034 120.137 61.4225C120.145 61.2641 120.049 61.0343 119.964 60.8642C119.841 60.6209 119.827 60.5418 120.001 60.3457C120.225 60.0916 120.674 59.7314 121.026 59.7229C121.497 59.7113 125.393 58.5544 125.698 58.9288C126.002 59.3026 125.263 59.6003 126.228 59.7855C127.194 59.9704 126.989 58.7933 126.967 58.5477C126.944 58.3017 126.65 57.7215 125.428 57.9171C125.428 57.9171 125.577 57.192 125.785 56.7142C125.991 56.2368 125.934 54.9928 125.359 54.6036C124.784 54.2143 124.323 54.7155 124.235 54.9925C124.148 55.2697 123.758 55.7746 123.518 55.8556C123.279 55.9362 122.959 56.1627 123.145 55.7406C123.331 55.3184 123.393 55.1716 123.37 54.9446C123.346 54.7176 122.637 54.7913 122.442 55.0436C122.247 55.296 122.161 55.8929 122.07 55.8879C121.98 55.8831 121.963 55.5245 121.807 55.422C121.489 55.2138 121.171 55.5222 121.045 55.7286C120.86 56.0297 120.948 56.3609 120.911 56.5947C120.883 56.7624 120.752 56.5106 120.635 56.3534C120.516 56.1967 119.675 56.0558 119.678 56.9774ZM124.121 56.7161C124.121 56.7161 124.704 57.2937 124.88 57.059C124.88 57.059 124.875 55.8364 124.847 55.6845C124.82 55.5331 124.608 55.4269 124.369 55.508C124.13 55.5885 123.431 56.1328 123.423 56.2636C123.416 56.3949 123.575 57.1185 123.774 57.1106C123.973 57.103 124.121 56.7161 124.121 56.7161ZM123.504 57.4153C123.698 57.1816 123.743 57.3531 123.791 57.4501C123.84 57.5468 123.755 58.1063 123.728 58.274C123.701 58.4419 123.045 58.5369 122.846 58.526C122.648 58.5151 122.877 58.2834 123.031 58.1226C123.184 57.9616 123.31 57.649 123.504 57.4153ZM121.694 56.8073C121.654 57.1999 121.578 57.9292 121.561 58.2292C121.544 58.5293 121.877 59.0554 121.964 58.4583C122.096 57.5573 121.794 57.7479 122.352 56.9943C122.352 56.9943 122.436 57.1116 122.363 57.4463C122.291 57.7806 122.261 57.9856 122.535 57.9449C122.808 57.9031 123.044 57.5591 122.852 57.116C122.659 56.6727 122.443 56.3408 122.19 56.3269C121.938 56.3127 121.734 56.4144 121.694 56.8073ZM120.667 57.7281C120.667 57.7281 120.597 58.6647 120.639 58.8737C120.682 59.0831 120.986 59.1376 121.008 58.7436C121.03 58.3501 120.934 57.7993 120.829 57.7372C120.724 57.6751 120.667 57.7281 120.667 57.7281ZM122.44 61.2867C121.598 61.4657 121.424 61.6816 121.148 61.4409C120.872 61.1996 120.686 60.9637 121.233 60.5615C121.575 60.3101 122.322 60.2007 122.916 60.0929C123.273 60.0279 123.567 59.9154 123.709 59.9093C124.09 59.8926 124.914 59.6937 124.874 60.4249C124.833 61.1559 124.114 61.0786 124.007 61.3924L124 61.505L124.883 61.5538C124.883 61.5538 125.215 61.1208 125.788 61.2089C126.362 61.2972 126.289 61.9513 125.666 62.1047C125.043 62.2582 124.405 62.3544 124.361 62.4837C124.318 62.6131 124.299 63.289 124.262 63.6256C124.226 63.9618 123.871 64.8072 123.724 65.1751C123.578 65.5432 123.051 66.5669 122.722 66.6239C122.394 66.6807 121.913 66.88 121.906 66.3342C121.901 65.7886 122.12 65.4246 122.12 65.4246L121.964 64.9837C121.964 64.9837 122.862 64.7512 122.904 64.3212C122.946 63.8911 123.201 62.8708 122.727 62.9574C122.252 63.0437 121.5 63.5662 120.923 63.8728C120.345 64.1792 119.779 63.9413 120.06 63.1292C120.394 62.1621 121.59 62.4557 122.28 62.0037C122.679 61.7418 123.196 61.3473 123.196 61.3473C123.196 61.3473 123.281 61.1076 122.44 61.2867Z" fill="#315064"/>
<path fill-rule="evenodd" clip-rule="evenodd" d="M56.0457 70.3782C56.1092 70.3033 56.1571 70.2128 56.1889 70.1068C56.2207 70.0009 56.2364 69.8793 56.2364 69.7419C56.2364 69.4584 56.174 69.2465 56.0491 69.1066C55.9241 68.9664 55.7605 68.8963 55.5583 68.8963C55.3564 68.8963 55.1926 68.9666 55.0669 69.1074C54.9417 69.2482 54.8787 69.4595 54.8787 69.7419C54.8787 70.0288 54.9417 70.2432 55.0669 70.3857C55.1926 70.5279 55.3515 70.5992 55.5435 70.5992C55.6149 70.5992 55.6823 70.5873 55.7461 70.564C55.6455 70.4982 55.5435 70.4468 55.4397 70.4099L55.5787 70.1269C55.7415 70.1829 55.897 70.2665 56.0457 70.3782ZM56.444 70.6576C56.5658 70.7447 56.6982 70.8141 56.841 70.8653L56.6584 71.2152C56.5837 71.1928 56.5108 71.1622 56.4391 71.1231C56.4234 71.1153 56.3135 71.0428 56.1092 70.9055C55.9486 70.9758 55.7705 71.0111 55.5753 71.0111C55.1977 71.0111 54.9024 70.8998 54.6888 70.6778C54.4747 70.4557 54.3682 70.1437 54.3682 69.7419C54.3682 69.3411 54.4751 69.0293 54.6896 68.8067C54.9038 68.584 55.1947 68.4727 55.5619 68.4727C55.9257 68.4727 56.2141 68.584 56.4275 68.8067C56.6406 69.0293 56.7472 69.3411 56.7472 69.7419C56.7472 69.954 56.7177 70.1402 56.6584 70.3013C56.614 70.4239 56.5423 70.5428 56.444 70.6576Z" fill="black"/>
<path fill-rule="evenodd" clip-rule="evenodd" d="M57.1823 70.9691H57.678V68.5145H57.1823V70.9691Z" fill="black"/>
<path fill-rule="evenodd" clip-rule="evenodd" d="M58.2167 70.9691V68.5145H58.6991L59.7035 70.1539V68.5145H60.164V70.9691H59.6666L58.677 69.3684V70.9691H58.2167Z" fill="black"/>
<path fill-rule="evenodd" clip-rule="evenodd" d="M61.8918 70.0667V69.6531H62.96V70.631C62.856 70.7314 62.7059 70.8197 62.5087 70.8962C62.3117 70.9726 62.1121 71.011 61.91 71.011C61.6535 71.011 61.4295 70.9571 61.2388 70.8494C61.0479 70.7418 60.9044 70.5877 60.8082 70.3873C60.7125 70.1869 60.6646 69.969 60.6646 69.7334C60.6646 69.4778 60.718 69.2508 60.8251 69.052C60.9324 68.8533 61.0891 68.7009 61.2955 68.595C61.4532 68.5134 61.649 68.4727 61.8834 68.4727C62.1879 68.4727 62.4261 68.5366 62.5973 68.6645C62.7685 68.7923 62.8792 68.9691 62.9281 69.1942L62.4358 69.2863C62.4013 69.1658 62.3363 69.0708 62.2408 69.001C62.1452 68.9312 62.0262 68.8962 61.8834 68.8962C61.6667 68.8962 61.4947 68.965 61.3668 69.1023C61.2392 69.2394 61.175 69.4432 61.175 69.7133C61.175 70.0046 61.24 70.2233 61.3693 70.3688C61.4988 70.5147 61.6685 70.5873 61.8782 70.5873C61.982 70.5873 62.0861 70.5669 62.1905 70.5262C62.2949 70.4856 62.3844 70.4361 62.4592 70.3783V70.0667H61.8918Z" fill="black"/>
<path fill-rule="evenodd" clip-rule="evenodd" d="M63.9727 68.9298V70.5555H64.3428C64.4808 70.5555 64.5809 70.5477 64.6424 70.5322C64.723 70.5121 64.7895 70.4779 64.8423 70.4299C64.8953 70.382 64.9388 70.3029 64.972 70.1931C65.0055 70.083 65.0224 69.9333 65.0224 69.7437C65.0224 69.5536 65.0055 69.4081 64.972 69.3064C64.9388 69.205 64.892 69.1257 64.8316 69.0687C64.7711 69.0117 64.695 68.9733 64.6021 68.9533C64.5331 68.9376 64.3975 68.9298 64.1953 68.9298H63.9727ZM63.4769 68.5145H64.3831C64.5871 68.5145 64.7427 68.5301 64.8501 68.5615C64.9942 68.6039 65.1174 68.679 65.22 68.7874C65.3231 68.8956 65.4008 69.0284 65.4546 69.1851C65.5081 69.3419 65.5347 69.5354 65.5347 69.7652C65.5347 69.9673 65.5097 70.1415 65.4595 70.2877C65.3978 70.4662 65.3103 70.6108 65.1966 70.7212C65.1107 70.805 64.9944 70.8705 64.8484 70.9171C64.739 70.9517 64.5929 70.9691 64.4098 70.9691H63.4769V68.5145Z" fill="black"/>
<path fill-rule="evenodd" clip-rule="evenodd" d="M67.3176 69.9981L66.9795 69.0873L66.648 69.9981H67.3176ZM68.2304 70.9691H67.6911L67.4768 70.4117H66.4955L66.293 70.9691H65.7673L66.7232 68.5144H67.2474L68.2304 70.9691Z" fill="black"/>
<path fill-rule="evenodd" clip-rule="evenodd" d="M68.965 69.7402C68.965 70.0182 69.0292 70.2288 69.1573 70.3723C69.286 70.5157 69.4487 70.5873 69.6466 70.5873C69.8439 70.5873 70.0062 70.5161 70.1329 70.3741C70.2593 70.2317 70.3228 70.0182 70.3228 69.7334C70.3228 69.4523 70.261 69.2422 70.1378 69.104C70.0144 68.9655 69.8506 68.8963 69.6466 68.8963C69.4419 68.8963 69.2775 68.9663 69.1525 69.1065C69.0274 69.2466 68.965 69.4578 68.965 69.7402ZM68.4542 69.757C68.4542 69.5069 68.4915 69.297 68.5664 69.1276C68.6221 69.0025 68.6981 68.8902 68.7951 68.7907C68.8917 68.6914 68.9974 68.6178 69.1122 68.5698C69.2652 68.5052 69.4414 68.4727 69.6414 68.4727C70.0032 68.4727 70.2923 68.5848 70.5095 68.8092C70.7267 69.0336 70.8352 69.3457 70.8352 69.7451C70.8352 70.1416 70.7275 70.4516 70.5118 70.6755C70.2967 70.8989 70.0085 71.011 69.6479 71.011C69.283 71.011 68.9927 70.8996 68.7775 70.677C68.5622 70.4543 68.4542 70.1477 68.4542 69.757Z" fill="black"/>
<path fill-rule="evenodd" clip-rule="evenodd" d="M73.0564 70.9691V68.9298H72.3281V68.5145H74.2788V68.9298H73.552V70.9691H73.0564Z" fill="black"/>
<path fill-rule="evenodd" clip-rule="evenodd" d="M74.6842 70.9691V68.5145H76.5042V68.9298H75.1796V69.4739H76.4119V69.8874H75.1796V70.5555H76.5509V70.9691H74.6842Z" fill="black"/>
<path fill-rule="evenodd" clip-rule="evenodd" d="M78.6273 70.0667L79.108 70.2191C79.0341 70.4868 78.9119 70.6858 78.7405 70.8159C78.569 70.946 78.3517 71.011 78.0883 71.011C77.7625 71.011 77.4944 70.8996 77.2847 70.6771C77.0746 70.4543 76.9698 70.1497 76.9698 69.7636C76.9698 69.355 77.0755 69.0379 77.2863 68.8118C77.4971 68.5857 77.7748 68.4727 78.1184 68.4727C78.4188 68.4727 78.6625 68.5617 78.8499 68.7389C78.9618 68.8437 79.0456 68.9946 79.1013 69.191L78.6108 69.3082C78.5816 69.1808 78.521 69.0804 78.4289 69.0069C78.3371 68.9331 78.2251 68.8962 78.0934 68.8962C77.9116 68.8962 77.764 68.9615 77.6505 69.0923C77.5372 69.2228 77.4806 69.4343 77.4806 69.7268C77.4806 70.037 77.5364 70.258 77.6481 70.3899C77.7595 70.5216 77.9049 70.5873 78.0833 70.5873C78.215 70.5873 78.3286 70.5455 78.4233 70.4618C78.5179 70.3783 78.5862 70.2464 78.6273 70.0667Z" fill="black"/>
<path fill-rule="evenodd" clip-rule="evenodd" d="M79.6206 70.9691V68.5145H80.1164V69.4806H81.0873V68.5145H81.5831V70.9691H81.0873V69.8958H80.1164V70.9691H79.6206Z" fill="black"/>
<path fill-rule="evenodd" clip-rule="evenodd" d="M82.1861 70.9691V68.5145H82.6683L83.673 70.1539V68.5145H84.1332V70.9691H83.6362L82.6465 69.3684V70.9691H82.1861Z" fill="black"/>
<path fill-rule="evenodd" clip-rule="evenodd" d="M85.1532 69.7402C85.1532 70.0182 85.2175 70.2288 85.346 70.3723C85.4744 70.5157 85.6371 70.5873 85.8349 70.5873C86.032 70.5873 86.1943 70.5161 86.3211 70.3741C86.4477 70.2317 86.5108 70.0182 86.5108 69.7334C86.5108 69.4523 86.4494 69.2422 86.3261 69.104C86.2028 68.9655 86.0389 68.8963 85.8349 68.8963C85.6303 68.8963 85.466 68.9663 85.3409 69.1065C85.2159 69.2466 85.1532 69.4578 85.1532 69.7402ZM84.6425 69.757C84.6425 69.5069 84.6798 69.297 84.7549 69.1276C84.8103 69.0025 84.8865 68.8902 84.9832 68.7907C85.0799 68.6914 85.1858 68.6178 85.3006 68.5698C85.4537 68.5052 85.6298 68.4727 85.8299 68.4727C86.1914 68.4727 86.4807 68.5848 86.6978 68.8092C86.9151 69.0336 87.0235 69.3457 87.0235 69.7451C87.0235 70.1416 86.9159 70.4516 86.7002 70.6755C86.485 70.8989 86.197 71.011 85.8363 71.011C85.4714 71.011 85.181 70.8996 84.9659 70.677C84.7506 70.4543 84.6425 70.1477 84.6425 69.757Z" fill="black"/>
<path fill-rule="evenodd" clip-rule="evenodd" d="M87.5093 70.9691V68.5346H88.0051V70.5555H89.2372V70.9691H87.5093Z" fill="black"/>
<path fill-rule="evenodd" clip-rule="evenodd" d="M90.0866 69.7402C90.0866 70.0182 90.1511 70.2288 90.279 70.3723C90.4074 70.5157 90.5706 70.5873 90.768 70.5873C90.9655 70.5873 91.1278 70.5161 91.2545 70.3741C91.3812 70.2317 91.4444 70.0182 91.4444 69.7334C91.4444 69.4523 91.3828 69.2422 91.2596 69.104C91.1359 68.9655 90.9723 68.8963 90.768 68.8963C90.5637 68.8963 90.3994 68.9663 90.2739 69.1065C90.1489 69.2466 90.0866 69.4578 90.0866 69.7402ZM89.576 69.757C89.576 69.5069 89.6132 69.297 89.6879 69.1276C89.7437 69.0025 89.82 68.8902 89.9167 68.7907C90.0133 68.6914 90.1188 68.6178 90.2341 68.5698C90.3871 68.5052 90.5633 68.4727 90.7629 68.4727C91.1248 68.4727 91.4142 68.5848 91.6313 68.8092C91.8481 69.0336 91.9567 69.3457 91.9567 69.7451C91.9567 70.1416 91.849 70.4516 91.6337 70.6755C91.4185 70.8989 91.1304 71.011 90.7698 71.011C90.4049 71.011 90.1142 70.8996 89.8989 70.677C89.6837 70.4543 89.576 70.1477 89.576 69.757Z" fill="black"/>
<path fill-rule="evenodd" clip-rule="evenodd" d="M93.5711 70.0667V69.6531H94.6393V70.631C94.5355 70.7314 94.3851 70.8197 94.1881 70.8962C93.9909 70.9726 93.7914 71.011 93.5898 71.011C93.3328 71.011 93.1092 70.9571 92.9181 70.8494C92.7274 70.7418 92.5838 70.5877 92.4879 70.3873C92.3917 70.1869 92.3438 69.969 92.3438 69.7334C92.3438 69.4778 92.3977 69.2508 92.5044 69.052C92.6116 68.8533 92.7684 68.7009 92.9753 68.595C93.1326 68.5134 93.3283 68.4727 93.5626 68.4727C93.8672 68.4727 94.1055 68.5366 94.2771 68.6645C94.4482 68.7923 94.5585 68.9691 94.6076 69.1942L94.1151 69.2863C94.081 69.1658 94.0155 69.0708 93.9202 69.001C93.825 68.9312 93.7058 68.8962 93.5626 68.8962C93.3461 68.8962 93.1739 68.965 93.046 69.1023C92.9185 69.2394 92.8545 69.4432 92.8545 69.7133C92.8545 70.0046 92.9194 70.2233 93.0486 70.3688C93.1783 70.5147 93.3479 70.5873 93.5579 70.5873C93.6613 70.5873 93.7655 70.5669 93.8699 70.5262C93.9744 70.4856 94.0639 70.4361 94.1389 70.3783V70.0667H93.5711Z" fill="black"/>
<path fill-rule="evenodd" clip-rule="evenodd" d="M95.167 70.9691H95.6628V68.5145H95.167V70.9691Z" fill="black"/>
<path fill-rule="evenodd" clip-rule="evenodd" d="M97.7913 70.0667L98.2719 70.2191C98.1981 70.4868 98.0757 70.6858 97.9045 70.8159C97.7327 70.946 97.5154 71.011 97.252 71.011C96.926 71.011 96.6581 70.8996 96.4484 70.6771C96.2387 70.4543 96.1335 70.1497 96.1335 69.7636C96.1335 69.355 96.239 69.0379 96.4501 68.8118C96.6612 68.5857 96.9382 68.4727 97.2818 68.4727C97.5823 68.4727 97.8264 68.5617 98.0139 68.7389C98.1252 68.8437 98.2092 68.9946 98.265 69.191L97.7744 69.3082C97.7456 69.1808 97.685 69.0804 97.5925 69.0069C97.5007 68.9331 97.3887 68.8962 97.257 68.8962C97.0752 68.8962 96.9272 68.9615 96.814 69.0923C96.7009 69.2228 96.6442 69.4343 96.6442 69.7268C96.6442 70.037 96.7002 70.258 96.8116 70.3899C96.9235 70.5216 97.0683 70.5873 97.2468 70.5873C97.3785 70.5873 97.4921 70.5455 97.5869 70.4618C97.6815 70.3783 97.7498 70.2464 97.7913 70.0667Z" fill="black"/>
<path fill-rule="evenodd" clip-rule="evenodd" d="M100.083 69.9981L99.7454 69.0873L99.4141 69.9981H100.083ZM100.996 70.9691H100.457L100.243 70.4117H99.2615L99.0589 70.9691H98.533L99.4894 68.5144H100.014L100.996 70.9691Z" fill="black"/>
<path fill-rule="evenodd" clip-rule="evenodd" d="M101.358 70.9691V68.5346H101.854V70.5555H103.086V70.9691H101.358Z" fill="black"/>
<path fill-rule="evenodd" clip-rule="evenodd" d="M104.841 68.5144H105.337V69.844C105.337 70.0549 105.343 70.1914 105.356 70.2541C105.377 70.3546 105.427 70.4354 105.507 70.4961C105.586 70.5571 105.696 70.5872 105.834 70.5872C105.975 70.5872 106.081 70.5587 106.152 70.501C106.224 70.4437 106.267 70.373 106.281 70.2894C106.296 70.2057 106.303 70.0667 106.303 69.8724V68.5144H106.798V69.8038C106.798 70.0985 106.785 70.3066 106.759 70.4283C106.731 70.55 106.682 70.6524 106.61 70.7365C106.538 70.8201 106.442 70.8869 106.321 70.9364C106.201 70.9861 106.043 71.0111 105.849 71.0111C105.614 71.0111 105.437 70.9839 105.316 70.9297C105.195 70.8757 105.099 70.8052 105.029 70.719C104.958 70.6321 104.912 70.5415 104.89 70.4467C104.858 70.3061 104.841 70.0985 104.841 69.8239V68.5144Z" fill="black"/>
<path fill-rule="evenodd" clip-rule="evenodd" d="M107.497 70.9691V68.5145H107.979L108.984 70.1539V68.5145H109.444V70.9691H108.947L107.958 69.3684V70.9691H107.497Z" fill="black"/>
<path fill-rule="evenodd" clip-rule="evenodd" d="M110.125 70.9691H110.621V68.5145H110.125V70.9691Z" fill="black"/>
<path fill-rule="evenodd" clip-rule="evenodd" d="M111.89 70.9691L111.013 68.5145H111.55L112.172 70.3312L112.772 68.5145H113.298L112.419 70.9691H111.89Z" fill="black"/>
<path fill-rule="evenodd" clip-rule="evenodd" d="M113.723 70.9691V68.5145H115.543V68.9298H114.218V69.4739H115.451V69.8874H114.218V70.5555H115.589V70.9691H113.723Z" fill="black"/>
<path fill-rule="evenodd" clip-rule="evenodd" d="M116.679 69.5526H117.045C117.283 69.5526 117.432 69.5425 117.491 69.5223C117.55 69.5024 117.596 69.4677 117.63 69.4189C117.663 69.3695 117.68 69.3081 117.68 69.2344C117.68 69.152 117.658 69.0852 117.614 69.0344C117.57 68.9835 117.508 68.9516 117.427 68.9382C117.387 68.9325 117.267 68.9298 117.066 68.9298H116.679V69.5526ZM116.183 70.9691V68.5144H117.226C117.489 68.5144 117.679 68.5364 117.798 68.5808C117.917 68.6249 118.012 68.7033 118.084 68.816C118.155 68.9288 118.191 69.0575 118.191 69.2026C118.191 69.3867 118.136 69.5388 118.028 69.6591C117.92 69.779 117.758 69.8546 117.543 69.8857C117.65 69.9483 117.738 70.0169 117.808 70.0917C117.878 70.1665 117.972 70.2993 118.09 70.4902L118.39 70.9691H117.797L117.439 70.4349C117.312 70.244 117.225 70.124 117.178 70.0741C117.131 70.0245 117.081 69.9904 117.029 69.972C116.976 69.9536 116.893 69.9444 116.779 69.9444H116.679V70.9691H116.183Z" fill="black"/>
<path fill-rule="evenodd" clip-rule="evenodd" d="M118.703 70.1706L119.186 70.1234C119.215 70.2854 119.273 70.4043 119.362 70.4803C119.451 70.5562 119.571 70.5942 119.721 70.5942C119.881 70.5942 120.001 70.5604 120.082 70.4929C120.163 70.4252 120.204 70.3463 120.204 70.2559C120.204 70.1979 120.187 70.1485 120.153 70.1076C120.118 70.0669 120.059 70.0316 119.974 70.0014C119.916 69.9814 119.784 69.9456 119.578 69.8944C119.312 69.8284 119.126 69.7474 119.018 69.6514C118.867 69.5164 118.792 69.3516 118.792 69.1575C118.792 69.0325 118.828 68.9156 118.898 68.8067C118.97 68.698 119.072 68.6149 119.205 68.5581C119.338 68.5011 119.499 68.4727 119.688 68.4727C119.996 68.4727 120.228 68.5403 120.384 68.6752C120.54 68.8102 120.621 68.9908 120.629 69.2159L120.133 69.2378C120.112 69.1118 120.067 69.0211 119.997 68.9659C119.927 68.9106 119.823 68.883 119.683 68.883C119.539 68.883 119.426 68.9123 119.345 68.9717C119.292 69.0097 119.266 69.0603 119.266 69.1241C119.266 69.182 119.291 69.2318 119.34 69.273C119.402 69.3256 119.554 69.3801 119.795 69.4369C120.036 69.494 120.215 69.553 120.33 69.6137C120.446 69.6745 120.536 69.7577 120.602 69.8633C120.667 69.9687 120.699 70.0992 120.699 70.2542C120.699 70.395 120.66 70.5265 120.582 70.6493C120.504 70.772 120.393 70.8634 120.251 70.9231C120.108 70.9827 119.93 71.0126 119.717 71.0126C119.406 71.0126 119.168 70.9409 119.001 70.7976C118.835 70.6542 118.736 70.4451 118.703 70.1706Z" fill="black"/>
<path fill-rule="evenodd" clip-rule="evenodd" d="M121.273 70.9691H121.768V68.5145H121.273V70.9691Z" fill="black"/>
<path fill-rule="evenodd" clip-rule="evenodd" d="M122.964 70.9691V68.9298H122.236V68.5145H124.187V68.9298H123.46V70.9691H122.964Z" fill="black"/>
<path fill-rule="evenodd" clip-rule="evenodd" d="M125.323 70.9691V69.936L124.424 68.5145H125.004L125.582 69.4858L126.148 68.5145H126.719L125.816 69.9394V70.9691H125.323Z" fill="black"/>
</g>
<defs>
<filter id="filter0_d_266_362" x="0" y="0" width="154" height="157" filterUnits="userSpaceOnUse" color-interpolation-filters="sRGB">
<feFlood flood-opacity="0" result="BackgroundImageFix"/>
<feColorMatrix in="SourceAlpha" type="matrix" values="0 0 0 0 0 0 0 0 0 0 0 0 0 0 0 0 0 0 127 0" result="hardAlpha"/>
<feOffset dy="16"/>
<feGaussianBlur stdDeviation="6.5"/>
<feColorMatrix type="matrix" values="0 0 0 0 0 0 0 0 0 0 0 0 0 0 0 0 0 0 0.03 0"/>
<feBlend mode="normal" in2="BackgroundImageFix" result="effect1_dropShadow_266_362"/>
<feBlend mode="normal" in="SourceGraphic" in2="effect1_dropShadow_266_362" result="shape"/>
</filter>
</defs>
</svg>
