<svg width="154" height="157" viewBox="0 0 154 157" fill="none" xmlns="http://www.w3.org/2000/svg">
<g filter="url(#filter0_d_185_410)">
<rect width="128" height="128" transform="translate(13)" fill="white"/>
<path fill-rule="evenodd" clip-rule="evenodd" d="M81.9365 55.5548C81.7767 55.3163 81.6713 55.0402 81.4721 54.887C80.9877 54.5134 81.2075 54.2464 81.5581 53.9957C81.7089 53.8886 81.9044 53.8413 82.0836 53.7778C82.5723 53.6058 82.5983 53.2122 82.5662 52.789C82.5329 52.3446 82.2508 52.3016 81.8681 52.2428C81.5563 52.195 81.2656 51.9383 80.9908 51.7403C80.7928 51.598 80.6499 51.3812 80.4573 51.2299C79.9772 50.8521 79.3838 50.6528 78.8673 50.9762C78.3454 51.3013 78.3999 51.9298 78.5077 52.4911C78.6209 53.0814 78.349 53.3902 77.8059 53.587C77.2095 53.8026 76.6258 54.066 76.0688 54.3687C75.8908 54.465 75.7315 54.7435 75.7103 54.9536C75.6443 55.596 76.6537 56.3408 77.3772 56.1761C77.7629 56.0889 78.1232 55.8915 78.4956 55.7438C78.3708 55.9732 78.2007 56.1555 77.9912 56.2542C77.3288 56.5654 76.6403 56.8221 75.9876 57.1509C75.8036 57.2435 75.588 57.5203 75.6025 57.694C75.6171 57.8751 75.8817 58.1627 76.0579 58.179C76.5949 58.2281 77.1429 58.1748 77.6854 58.1506C77.884 58.1415 78.0814 58.1033 78.2794 58.0785C77.2349 58.8566 76.179 59.5123 75.1272 60.1741C73.7486 61.0411 72.3832 61.9282 70.9924 62.7753C70.3657 63.1573 69.6809 63.4419 69.0433 63.8076C68.6328 64.0431 68.3924 64.4452 68.6819 64.8805C69.3309 65.8578 69.9037 66.3173 70.8876 65.5593C72.649 64.2024 74.3637 62.7855 76.0906 61.3857C76.4121 61.1247 76.7003 60.8232 77.0036 60.5404C77.0539 60.5773 77.1041 60.6131 77.1544 60.65C76.8038 61.8101 76.386 62.9563 76.1269 64.1364C75.958 64.9053 75.9792 65.727 75.9991 66.522C76.0058 66.7721 76.2304 67.1232 76.4526 67.2353C76.7421 67.38 77.1599 67.4302 77.4602 67.3315C77.637 67.2734 77.7708 66.8514 77.7871 66.585C77.8313 65.8602 77.8023 65.13 77.8023 64.2884C78.0172 64.4282 78.1407 64.5705 78.2788 64.5856C78.5706 64.6196 78.9418 64.6886 79.141 64.5469C79.2784 64.4482 79.2573 63.9941 79.1664 63.7519C79.0913 63.5509 78.8201 63.4146 78.6197 63.273C78.452 63.1543 78.2612 63.0671 77.9197 62.8764C78.5858 62.6826 79.2306 62.7831 79.3674 62.1092C79.5073 61.4256 78.9914 61.1495 78.5089 60.7917C78.8165 60.7075 79.1416 60.6276 79.3808 60.7366C79.534 60.8062 79.626 61.1519 79.6333 61.3778C79.6623 62.2679 79.609 63.1616 79.6575 64.0498C79.7168 65.1397 79.7326 66.1593 78.3642 66.4881C78.3024 66.5026 78.2758 66.984 78.2994 66.9906C78.9666 67.1626 79.6375 67.3563 80.3199 67.429C80.8878 67.4896 81.153 67.1045 81.1542 66.5462C81.1591 64.8466 81.1445 63.1458 81.1803 61.4462C81.19 60.9721 81.3795 60.5047 81.4261 60.0276C81.4546 59.7363 81.4697 59.3379 81.3044 59.1641C81.1482 58.9994 80.7316 58.9873 80.461 59.0485C80.0698 59.1363 79.7077 59.3512 79.3329 59.5117L79.1979 59.2743C80.2515 58.592 81.2935 57.889 82.3658 57.2375C82.7654 56.9953 83.2716 56.8851 83.1099 56.2578C82.9241 55.5385 82.7 55.4204 81.9365 55.5548Z" fill="#273B92"/>
<path fill-rule="evenodd" clip-rule="evenodd" d="M106.473 62.5729C107.023 63.3994 107.522 64.2307 108.107 64.9954C108.392 65.3672 108.805 65.6796 109.224 65.8952C109.487 66.0308 109.921 66.049 110.184 65.923C110.689 65.6814 111.164 65.3393 111.579 64.9591C111.8 64.7569 111.87 64.3893 112.008 64.0969C111.738 63.9819 111.474 63.7942 111.194 63.7669C110.376 63.6876 109.54 63.7118 108.815 63.2413C108.23 62.8629 107.65 62.4766 107.084 62.0722C106.502 61.6568 106.542 61.4297 107.202 61.1161C108.119 60.6801 109.034 60.24 109.943 59.7858C110.351 59.5824 110.402 59.2349 110.3 58.8116C110.17 58.2752 109.719 58.174 109.324 58.174C109.05 58.1747 108.746 58.4235 108.51 58.6251C108.157 58.9273 107.866 59.3015 107.518 59.6084C107.425 59.6908 107.165 59.7096 107.079 59.6387C106.98 59.5576 106.939 59.3378 106.959 59.19C107.128 57.9555 107.297 56.7209 107.504 55.493C107.67 54.5175 107.305 53.731 106.664 53.0698C106.466 52.8646 106.054 52.735 105.78 52.7852C105.628 52.8131 105.474 53.2823 105.464 53.5578C105.392 55.5226 105.36 57.4892 105.303 59.4553C105.296 59.7059 105.249 59.9669 105.159 60.2C105.096 60.3617 104.955 60.5518 104.803 60.6087C104.123 60.866 103.486 61.2602 102.679 61.0707C102.145 60.9447 101.869 61.2899 102 61.8263C102.064 62.0849 102.202 62.3477 102.371 62.5553C102.944 63.2589 103.61 63.2716 104.242 62.6377C104.414 62.4651 104.62 62.3259 104.909 62.0903C104.734 63.4975 103.908 64.525 102.668 64.1411C102.306 64.0285 101.776 63.9213 101.609 64.5074C101.478 64.9658 101.864 65.4308 102.471 65.5664C103.619 65.8231 104.645 65.6578 105.328 64.5885C105.73 63.9588 106.069 63.2892 106.473 62.5729Z" fill="#273B92"/>
<path fill-rule="evenodd" clip-rule="evenodd" d="M81.9365 55.5548C82.7 55.4204 82.9241 55.5385 83.1099 56.2578C83.2716 56.8851 82.7654 56.9953 82.3658 57.2375C81.2935 57.889 80.2515 58.592 79.1979 59.2743L79.3329 59.5117C79.7077 59.3512 80.0698 59.1363 80.461 59.0485C80.7316 58.9873 81.1482 58.9994 81.3044 59.1641C81.4697 59.3379 81.4546 59.7363 81.4261 60.0276C81.3795 60.5047 81.19 60.9721 81.1803 61.4462C81.1445 63.1458 81.1591 64.8466 81.1542 66.5462C81.153 67.1045 80.8878 67.4896 80.3199 67.429C79.6375 67.3563 78.9666 67.1626 78.2994 66.9906C78.2758 66.984 78.3024 66.5026 78.3642 66.4881C79.7326 66.1593 79.7168 65.1397 79.6575 64.0498C79.609 63.1616 79.6623 62.2679 79.6333 61.3778C79.626 61.1519 79.534 60.8062 79.3808 60.7366C79.1416 60.6276 78.8165 60.7075 78.5089 60.7917C78.9914 61.1495 79.5073 61.4256 79.3674 62.1092C79.2306 62.7831 78.5858 62.6826 77.9197 62.8764C78.2612 63.0671 78.452 63.1543 78.6197 63.273C78.8201 63.4146 79.0913 63.5509 79.1664 63.7519C79.2573 63.9941 79.2784 64.4482 79.141 64.5469C78.9418 64.6886 78.5706 64.6196 78.2788 64.5856C78.1407 64.5705 78.0172 64.4282 77.8023 64.2884C77.8023 65.13 77.8313 65.8602 77.7871 66.585C77.7708 66.8514 77.637 67.2734 77.4602 67.3315C77.1599 67.4302 76.7421 67.38 76.4526 67.2353C76.2304 67.1232 76.0058 66.7721 75.9991 66.522C75.9792 65.727 75.958 64.9053 76.1269 64.1364C76.386 62.9563 76.8038 61.8101 77.1544 60.65C77.1041 60.6131 77.0539 60.5773 77.0036 60.5404C76.7003 60.8232 76.4121 61.1247 76.0906 61.3857C74.3637 62.7855 72.649 64.2024 70.8876 65.5593C69.9037 66.3173 69.3309 65.8578 68.6819 64.8805C68.3924 64.4452 68.6328 64.0431 69.0433 63.8076C69.6809 63.4419 70.3657 63.1573 70.9924 62.7753C72.3832 61.9282 73.7486 61.0411 75.1272 60.1741C76.179 59.5123 77.2349 58.8566 78.2794 58.0785C78.0814 58.1033 77.884 58.1415 77.6854 58.1506C77.1429 58.1748 76.5949 58.2281 76.0579 58.179C75.8817 58.1627 75.6171 57.8751 75.6025 57.694C75.588 57.5203 75.8036 57.2435 75.9876 57.1509C76.6403 56.8221 77.3288 56.5654 77.9912 56.2542C78.2007 56.1555 78.3708 55.9732 78.4956 55.7438C78.1232 55.8915 77.7629 56.0889 77.3772 56.1761C76.6537 56.3408 75.6443 55.596 75.7103 54.9536C75.7315 54.7435 75.8908 54.465 76.0688 54.3687C76.6258 54.066 77.2095 53.8026 77.8059 53.587C78.349 53.3902 78.6209 53.0814 78.5077 52.4911C78.3999 51.9298 78.3454 51.3013 78.8673 50.9762C79.3838 50.6528 79.9772 50.8521 80.4573 51.2299C80.6499 51.3812 80.7928 51.598 80.9908 51.7403C81.2656 51.9383 81.5563 52.195 81.8681 52.2428C82.2508 52.3016 82.5329 52.3446 82.5662 52.789C82.5983 53.2122 82.5723 53.6058 82.0836 53.7778C81.9044 53.8413 81.7089 53.8886 81.5581 53.9957C81.2075 54.2464 80.9877 54.5134 81.4721 54.887C81.6713 55.0402 81.7767 55.3163 81.9365 55.5548Z" fill="#273B92"/>
<path fill-rule="evenodd" clip-rule="evenodd" d="M121.495 55.6245C121.49 55.5301 121.485 55.4356 121.48 55.3406C121.205 54.9839 120.886 55.0796 120.591 55.323C120.527 55.3763 120.575 55.564 120.571 55.6905C120.879 55.6681 121.187 55.6463 121.495 55.6245ZM124.368 58.1167C123.749 57.84 121.859 58.9765 121.257 59.8817C122.29 59.2962 123.28 58.7349 124.368 58.1167ZM121.467 58.1906C120.057 58.253 119.54 59.3828 118.736 60.2408C119.216 60.2589 121.39 58.6041 121.467 58.1906ZM122.445 57.3968C122.492 57.467 122.54 57.5379 122.588 57.6081C122.792 57.5355 123.08 57.5246 123.185 57.3798C123.826 56.4922 124.44 55.5828 125.019 54.6533C125.079 54.5547 124.898 54.1665 124.749 54.103C124.274 53.9025 123.529 54.5256 123.685 55.0076C123.938 55.7856 123.531 56.2536 123.056 56.7326C122.844 56.9457 122.648 57.1752 122.445 57.3968ZM120.902 59.9883C120.227 60.6349 119.552 61.2834 118.876 61.9282C118.42 62.363 118.014 62.8758 117.283 62.8498C116.84 62.8334 116.438 62.8086 116.244 62.3042C116.056 61.8168 116.211 61.4184 116.542 61.0927C117.333 60.3146 118.151 59.5626 118.929 58.8263C118.571 58.5424 118.138 58.3565 117.989 58.0368C117.839 57.7147 117.962 57.2606 117.982 56.8658C117.997 56.5721 118.011 56.2742 118.075 55.9903C118.134 55.7305 118.26 55.4859 118.357 55.2352C118.626 55.4017 118.923 55.5367 119.154 55.7444C119.306 55.8807 119.365 56.121 119.552 56.27C119.524 55.1299 119.662 53.971 118.563 53.1687C118.378 53.0337 118.456 52.5366 118.413 52.2066C118.708 52.186 119.084 52.0407 119.282 52.1703C119.77 52.4887 120.157 52.9586 120.623 53.317C120.849 53.4914 121.228 53.7076 121.418 53.6264C121.661 53.5217 121.905 53.1499 121.936 52.8696C122.049 51.8397 122.261 51.5369 122.99 51.6114C123.733 51.6877 124.096 52.2344 123.965 53.2329C124.339 52.9992 124.64 52.8024 124.949 52.6195C125.636 52.2126 126.413 52.6086 126.46 53.4012C126.51 54.2513 126.26 54.97 125.565 55.5343C124.993 55.9987 125.017 56.1307 125.653 56.4637C126.683 57.0026 126.614 57.3962 125.964 58.0955C125.477 58.6181 125.098 59.2696 124.254 59.2962C124.155 59.2992 124.042 59.5148 123.971 59.6498C123.674 60.2153 123.39 60.7875 123.079 61.4033C123.121 61.4033 123.267 61.4251 123.406 61.3997C124.303 61.2362 125.404 62.0294 125.395 62.9382C125.393 63.1568 124.959 63.5164 124.684 63.5588C124.104 63.6472 123.492 63.6212 122.907 63.5431C122.434 63.4807 122.35 63.6617 122.356 64.0553C122.373 65.1155 122.38 66.1757 122.376 67.2359C122.374 67.4654 122.356 67.7209 122.253 67.9159C122.147 68.1211 121.938 68.396 121.759 68.4081C121.544 68.4233 121.288 68.2204 121.094 68.06C120.688 67.7245 120.319 67.3461 119.92 67.0028C119.696 66.8097 119.428 66.6662 119.204 66.4718C118.884 66.1939 118.304 65.9263 118.66 65.4279C118.972 64.9932 119.385 65.371 119.767 65.5781C120.054 65.7343 120.506 65.8203 120.776 65.698C120.981 65.6047 121.041 65.1422 121.115 64.8315C121.157 64.6541 121.111 64.4507 121.084 64.263C121.004 63.7344 120.751 63.5588 120.251 63.8507C119.595 64.2333 118.947 64.6372 118.261 64.9575C117.942 65.1064 117.524 65.1633 117.182 65.0974C117.018 65.0659 116.761 64.55 116.834 64.4313C117.064 64.0571 117.38 63.6726 117.758 63.4631C118.434 63.0884 119.193 62.8649 119.893 62.5265C120.392 62.2849 120.851 61.9585 121.335 61.6655C121.084 61.4372 120.698 61.2513 120.65 61.0006C120.6 60.7385 120.873 60.4145 121.005 60.1178C120.971 60.0749 120.936 60.0313 120.902 59.9883Z" fill="#273B92"/>
<path fill-rule="evenodd" clip-rule="evenodd" d="M94.7956 61.4229C94.5721 61.5888 94.3887 61.7262 94.2052 61.8631C94.3808 61.9811 94.5733 62.2124 94.7283 62.1894C94.9167 62.1616 95.0735 61.9194 95.2436 61.7698C95.1122 61.6681 94.9802 61.5658 94.7956 61.4229ZM94.8131 56.9956C95.2436 56.8212 95.5518 56.7158 95.8388 56.5681C95.923 56.5251 96.0035 56.3483 95.9805 56.2611C95.9587 56.1824 95.7988 56.1061 95.6911 56.0904C95.1486 56.0135 94.9384 56.3422 94.8131 56.9956ZM94.6024 62.9021C93.4986 62.833 91.7996 63.5021 91.6725 64.0355C92.9458 64.1718 94.3342 63.6559 94.6024 62.9021ZM87.8482 65.106C88.5336 64.7815 88.7153 64.1603 88.9417 63.6347C89.1748 63.0928 89.236 62.4782 89.3843 61.8982C89.8487 60.0811 90.6165 58.5432 92.4887 57.701C93.0239 57.46 93.3581 56.6468 93.6572 56.0347C94.2234 54.8764 95.0505 54.5615 96.1434 55.2154C96.5182 55.4401 96.8609 55.5297 97.2696 55.2839C97.7836 54.9763 98.2226 55.1676 98.5356 55.6169C98.7609 55.9402 98.7173 56.266 98.3249 56.4615C97.2308 57.0053 96.1331 57.5423 95.039 58.086C94.9282 58.1411 94.8028 58.2041 94.7338 58.2986C94.4202 58.7285 94.672 60.0236 95.1195 60.3094C95.3151 60.4347 95.5258 60.537 95.7292 60.6503C96.2384 60.9336 96.8106 61.1359 96.7501 61.9224C96.7349 62.1186 97.0274 62.3765 97.2284 62.5454C97.8502 63.0662 97.9701 63.8805 97.5148 64.5581C96.9123 65.4566 95.975 65.855 95.0305 66.2371C94.9106 66.2855 94.7259 66.1735 94.5715 66.1354C94.6218 65.9749 94.6218 65.7436 94.7314 65.6643C95.309 65.2471 95.9599 64.9092 96.2475 64.2026C96.3365 63.9835 96.4261 63.7074 96.368 63.4997C96.2754 63.1685 96.0253 63.008 95.7068 63.3277C95.4525 63.5838 95.1897 63.8321 94.9451 64.0967C94.2621 64.836 93.3945 64.9716 92.4499 64.8977C91.7336 64.842 91.0107 64.8463 90.3004 64.7524C89.8263 64.6901 89.6629 64.2481 90.0056 63.9223C90.5457 63.4089 91.1366 62.9354 91.7633 62.5339C92.221 62.2403 92.5783 61.9926 92.5401 61.3672C92.5074 60.8319 92.5952 60.2894 92.6412 59.5737C92.333 59.8868 92.1338 60.1489 91.8777 60.3288C91.6864 60.4638 91.3467 60.6254 91.2026 60.5443C90.7279 60.2767 90.5584 60.5643 90.4476 60.8931C90.1394 61.8061 89.8929 62.7398 89.5811 63.6504C89.2324 64.6677 88.8648 65.6806 88.4531 66.6736C88.2327 67.2065 87.1712 67.3881 86.5361 67.0623C86.0323 66.8044 85.8785 66.3406 86.2243 65.7036C87.1295 64.0392 87.2342 62.2245 87.3038 60.399C87.3244 59.8468 87.2917 59.2928 87.3159 58.7412C87.3371 58.2701 87.5867 57.9716 88.0886 58.0152C88.711 58.0697 89.3444 58.7345 89.242 59.363C89.101 60.2319 88.8212 61.0796 88.5881 61.9327C88.3496 62.8046 88.0898 63.6704 87.8543 64.5429C87.8143 64.6901 87.8482 64.8572 87.8482 65.106Z" fill="#273B92"/>
<path fill-rule="evenodd" clip-rule="evenodd" d="M106.473 62.5729C106.069 63.2892 105.73 63.9588 105.328 64.5885C104.645 65.6578 103.619 65.8231 102.471 65.5664C101.864 65.4308 101.478 64.9658 101.609 64.5074C101.776 63.9213 102.306 64.0285 102.668 64.1411C103.908 64.525 104.734 63.4975 104.909 62.0903C104.62 62.3259 104.414 62.4651 104.242 62.6377C103.61 63.2716 102.944 63.2589 102.371 62.5553C102.202 62.3477 102.064 62.0849 102 61.8263C101.869 61.2899 102.145 60.9447 102.679 61.0707C103.486 61.2602 104.123 60.866 104.803 60.6087C104.955 60.5518 105.096 60.3617 105.159 60.2C105.249 59.9669 105.296 59.7059 105.303 59.4553C105.36 57.4892 105.392 55.5226 105.464 53.5578C105.474 53.2823 105.628 52.8131 105.78 52.7852C106.054 52.735 106.466 52.8646 106.664 53.0698C107.305 53.731 107.67 54.5175 107.504 55.493C107.297 56.7209 107.128 57.9555 106.959 59.19C106.939 59.3378 106.98 59.5576 107.079 59.6387C107.165 59.7096 107.425 59.6908 107.518 59.6084C107.866 59.3015 108.157 58.9273 108.51 58.6251C108.746 58.4235 109.05 58.1747 109.324 58.174C109.719 58.174 110.17 58.2752 110.3 58.8116C110.402 59.2349 110.351 59.5824 109.943 59.7858C109.034 60.24 108.119 60.6801 107.202 61.1161C106.542 61.4297 106.502 61.6568 107.084 62.0722C107.65 62.4766 108.23 62.8629 108.815 63.2413C109.54 63.7118 110.376 63.6876 111.194 63.7669C111.474 63.7942 111.738 63.9819 112.008 64.0969C111.87 64.3893 111.8 64.7569 111.579 64.9591C111.164 65.3393 110.689 65.6814 110.184 65.923C109.921 66.049 109.487 66.0308 109.224 65.8952C108.805 65.6796 108.392 65.3672 108.107 64.9954C107.522 64.2307 107.023 63.3994 106.473 62.5729Z" fill="#273B92"/>
<path fill-rule="evenodd" clip-rule="evenodd" d="M71.4404 76.4612L71.5419 76.609C71.594 76.6844 71.6433 76.7525 71.6897 76.8133C71.736 76.8742 71.7857 76.9322 71.8389 76.9872C71.892 77.0422 71.9423 77.0867 71.9896 77.1205C72.0369 77.1543 72.0818 77.1785 72.1243 77.193C72.1668 77.2075 72.2074 77.2147 72.246 77.2147C72.3523 77.2147 72.4441 77.1949 72.5213 77.1553C72.5986 77.1157 72.673 77.0611 72.7445 76.9916L72.8836 77.1712C72.7329 77.3219 72.5929 77.4301 72.4634 77.4958C72.334 77.5615 72.2006 77.5943 72.0635 77.5943C71.9533 77.5943 71.8626 77.5837 71.7911 77.5625C71.7196 77.5412 71.6486 77.5064 71.5781 77.4582C71.5075 77.4098 71.4288 77.3364 71.3419 77.2379C71.255 77.1394 71.1545 77.0051 71.0405 76.8351L70.8348 76.5308C70.3537 76.5076 69.99 76.327 69.7437 75.9889C69.4974 75.6508 69.3742 75.1688 69.3742 74.5428C69.3742 74.112 69.4399 73.742 69.5712 73.4329C69.7026 73.1238 69.8905 72.8886 70.1349 72.7273C70.3793 72.566 70.6628 72.4853 70.9854 72.4853C71.3293 72.4853 71.6186 72.5611 71.8534 72.7128C72.0881 72.8644 72.2649 73.0876 72.3837 73.3822C72.5025 73.6768 72.5619 74.0357 72.5619 74.4588C72.5619 74.9958 72.4663 75.4358 72.275 75.7788C72.0838 76.1217 71.8055 76.3492 71.4404 76.4612ZM69.9712 74.4617C69.9712 75.0548 70.0576 75.5059 70.2306 75.815C70.4034 76.1241 70.656 76.2787 70.9883 76.2787C71.1989 76.2787 71.3776 76.2115 71.5245 76.0773C71.6713 75.943 71.7814 75.7464 71.8548 75.4875C71.9282 75.2286 71.965 74.9263 71.965 74.5805C71.965 74.1593 71.922 73.8101 71.836 73.5329C71.75 73.2557 71.6327 73.0542 71.4839 72.9286C71.3351 72.8031 71.1622 72.7403 70.9651 72.7403C70.7913 72.7403 70.6421 72.7809 70.5174 72.862C70.3928 72.9432 70.2895 73.0586 70.2074 73.2083C70.1253 73.3581 70.0654 73.5392 70.0277 73.7517C69.99 73.9642 69.9712 74.2008 69.9712 74.4617Z" fill="#273B92"/>
<path fill-rule="evenodd" clip-rule="evenodd" d="M74.1411 75.7628C74.1411 75.8922 74.1454 75.9869 74.1541 76.0468C74.1628 76.1067 74.1773 76.154 74.1976 76.1888C74.2179 76.2236 74.2478 76.2525 74.2874 76.2757C74.327 76.2989 74.3913 76.3221 74.4801 76.3453V76.4873H73.2572V76.3453C73.377 76.3143 73.4572 76.2801 73.4977 76.2424C73.5383 76.2048 73.5649 76.1511 73.5774 76.0815C73.59 76.012 73.5963 75.9058 73.5963 75.7628V73.2561C73.5963 73.1228 73.5915 73.0257 73.5818 72.9649C73.5722 72.904 73.5562 72.8567 73.534 72.8228C73.5118 72.789 73.4823 72.762 73.4456 72.7417C73.4089 72.7214 73.3461 72.6987 73.2572 72.6736V72.5316H74.4801V72.6736C74.3951 72.6948 74.3338 72.7161 74.2961 72.7373C74.2585 72.7586 74.2285 72.7852 74.2063 72.8171C74.1841 72.8489 74.1676 72.8968 74.1571 72.9605C74.1464 73.0243 74.1411 73.1228 74.1411 73.2561V75.7628Z" fill="#273B92"/>
<path fill-rule="evenodd" clip-rule="evenodd" d="M77.5087 74.9195C77.5783 75.0354 77.6367 75.1369 77.6841 75.2238C77.7314 75.3107 77.7801 75.4083 77.8304 75.5164H77.8681C77.8584 75.3986 77.8497 75.1644 77.842 74.8137C77.8343 74.4631 77.8304 74.1467 77.8304 73.8647V73.2561C77.8304 73.1228 77.8265 73.0252 77.8188 72.9634C77.8111 72.9016 77.797 72.8542 77.7767 72.8214C77.7565 72.7886 77.7285 72.762 77.6927 72.7417C77.657 72.7214 77.5947 72.6987 77.5058 72.6736V72.5316H78.549V72.6736C78.4622 72.6968 78.4008 72.718 78.365 72.7373C78.3293 72.7567 78.3003 72.7818 78.2781 72.8127C78.2559 72.8436 78.239 72.89 78.2274 72.9518C78.2158 73.0136 78.21 73.115 78.21 73.2561V76.5047H77.8478L76.2336 73.798C76.1332 73.6299 76.0617 73.5073 76.0192 73.4299C75.9767 73.3527 75.937 73.2764 75.9004 73.201H75.8511C75.8646 73.3498 75.8743 73.6188 75.8801 74.0081C75.8859 74.3974 75.8888 74.7852 75.8888 75.1716V75.7628C75.8888 75.8922 75.8932 75.9869 75.9018 76.0468C75.9105 76.1067 75.925 76.154 75.9453 76.1888C75.9656 76.2236 75.9955 76.2525 76.0351 76.2757C76.0747 76.2989 76.139 76.3221 76.2278 76.3453V76.4873H75.1701V76.3453C75.2898 76.3143 75.3701 76.2801 75.4106 76.2424C75.4512 76.2048 75.4777 76.1511 75.4903 76.0815C75.5029 76.012 75.5092 75.9058 75.5092 75.7628V73.2561C75.5092 73.1228 75.5043 73.0257 75.4947 72.9649C75.485 72.904 75.4691 72.8567 75.4468 72.8228C75.4246 72.789 75.3951 72.762 75.3584 72.7417C75.3218 72.7214 75.259 72.6987 75.1701 72.6736V72.5316H76.0772L77.5087 74.9195Z" fill="#273B92"/>
<path fill-rule="evenodd" clip-rule="evenodd" d="M81.9942 76.4729L81.7682 76.5337L81.5566 76.3077C81.4311 76.3849 81.2997 76.4419 81.1625 76.4786C81.0254 76.5154 80.8679 76.5337 80.6902 76.5337C80.2014 76.5337 79.8334 76.3661 79.5861 76.0309C79.3388 75.6957 79.2151 75.1978 79.2151 74.537C79.2151 74.1255 79.2828 73.7642 79.418 73.4532C79.5532 73.1421 79.7474 72.9031 80.0005 72.736C80.2536 72.5689 80.5511 72.4853 80.893 72.4853C81.0727 72.4853 81.2456 72.4954 81.4118 72.5157C81.5779 72.536 81.7625 72.5712 81.9653 72.6215V73.4184H81.6784C81.6262 73.2445 81.5644 73.1088 81.4929 73.0112C81.4214 72.9137 81.3359 72.8441 81.2365 72.8026C81.1369 72.7611 81.0109 72.7403 80.8583 72.7403C80.6477 72.7403 80.4632 72.8079 80.3047 72.9432C80.1464 73.0784 80.0232 73.2779 79.9353 73.5416C79.8474 73.8053 79.8034 74.1236 79.8034 74.4964C79.8034 74.8751 79.8406 75.1987 79.915 75.4673C79.9894 75.7358 80.1 75.9382 80.2468 76.0744C80.3936 76.2106 80.5742 76.2787 80.7887 76.2787C81.0167 76.2787 81.1857 76.2289 81.2959 76.1294C81.406 76.0299 81.461 75.8768 81.461 75.6701V75.4962C81.461 75.3224 81.4518 75.1968 81.4335 75.1195C81.4151 75.0422 81.3828 74.9823 81.3364 74.9398C81.2901 74.8973 81.2138 74.8626 81.1075 74.8355V74.6935H82.2783V74.8355C82.2087 74.8587 82.1566 74.8853 82.1217 74.9152C82.087 74.9452 82.0604 74.9823 82.0421 75.0268C82.0237 75.0712 82.0112 75.1258 82.0044 75.1905C81.9976 75.2552 81.9942 75.3475 81.9942 75.4673V76.4729Z" fill="#273B92"/>
<path fill-rule="evenodd" clip-rule="evenodd" d="M85.8803 75.7628C85.8803 75.8748 85.8832 75.9589 85.889 76.0149C85.8949 76.0709 85.9045 76.1159 85.9181 76.1497C85.9316 76.1835 85.948 76.211 85.9673 76.2322C85.9866 76.2535 86.0141 76.2728 86.0499 76.2902C86.0857 76.3076 86.1412 76.326 86.2165 76.3453V76.4873H85.0023V76.3453C85.1085 76.3182 85.1829 76.2883 85.2254 76.2554C85.2679 76.2226 85.2974 76.1724 85.3138 76.1047C85.3302 76.0372 85.3384 75.9231 85.3384 75.7628V74.5486H83.7272V75.7628C83.7272 75.8922 83.7315 75.9869 83.7402 76.0468C83.7489 76.1067 83.7634 76.154 83.7837 76.1888C83.804 76.2236 83.8339 76.2525 83.8735 76.2757C83.9132 76.2989 83.9774 76.3221 84.0662 76.3453V76.4873H82.8462V76.3453C82.966 76.3143 83.0462 76.2801 83.0867 76.2424C83.1273 76.2048 83.1539 76.1511 83.1664 76.0815C83.179 76.012 83.1853 75.9058 83.1853 75.7628V73.2561C83.1853 73.1228 83.1805 73.0257 83.1708 72.9649C83.1612 72.904 83.1452 72.8567 83.123 72.8228C83.1007 72.789 83.0713 72.762 83.0346 72.7417C82.9979 72.7214 82.9351 72.6987 82.8462 72.6736V72.5316H84.0662V72.6736C83.9812 72.6948 83.9199 72.7161 83.8822 72.7373C83.8446 72.7586 83.8146 72.7852 83.7924 72.8171C83.7702 72.8489 83.7537 72.8968 83.7432 72.9605C83.7325 73.0243 83.7272 73.1228 83.7272 73.2561V74.282H85.3384V73.2561C85.3384 73.088 85.3302 72.973 85.3138 72.9112C85.2974 72.8494 85.2699 72.8021 85.2313 72.7692C85.1926 72.7364 85.1163 72.7045 85.0023 72.6736V72.5316H86.2165V72.6736C86.1084 72.7006 86.033 72.7311 85.9905 72.7649C85.948 72.7987 85.919 72.8494 85.9035 72.917C85.8881 72.9847 85.8803 73.0977 85.8803 73.2561V75.7628Z" fill="#273B92"/>
<path fill-rule="evenodd" clip-rule="evenodd" d="M88.8769 76.4873V76.3453C88.9732 76.326 89.0452 76.3048 89.0924 76.2816C89.1397 76.2584 89.1754 76.2261 89.1984 76.1845C89.2214 76.1429 89.2329 76.0874 89.2329 76.0178C89.2329 75.9522 89.2257 75.8812 89.2099 75.8049C89.1948 75.7285 89.1724 75.643 89.1433 75.5484L89.0361 75.1746H87.6859L87.5872 75.4585C87.5369 75.6015 87.5041 75.7097 87.4886 75.7831C87.4731 75.8565 87.4654 75.9232 87.4654 75.9831C87.4654 76.099 87.4949 76.184 87.5539 76.2381C87.6126 76.2922 87.7029 76.328 87.8246 76.3453V76.4873H86.5874V76.3453C86.6955 76.328 86.7897 76.2652 86.8699 76.157C86.9501 76.0488 87.0278 75.8942 87.1032 75.6933L88.3114 72.4853H88.7697L89.7548 75.7165C89.8009 75.8672 89.842 75.9821 89.8778 76.0613C89.9135 76.1406 89.9565 76.2024 90.0067 76.2468C90.057 76.2912 90.126 76.3241 90.2126 76.3453V76.4873H88.8769ZM87.764 74.9224H88.975L88.4246 73.0533L87.764 74.9224Z" fill="#273B92"/>
<path fill-rule="evenodd" clip-rule="evenodd" d="M91.5022 75.7628C91.5022 75.8922 91.5065 75.9869 91.5149 76.0468C91.524 76.1067 91.5379 76.154 91.5585 76.1888C91.5785 76.2236 91.6088 76.2525 91.6481 76.2757C91.6881 76.2989 91.7523 76.3221 91.8413 76.3453V76.4873H90.6182V76.3453C90.7381 76.3143 90.818 76.2801 90.8586 76.2424C90.8992 76.2048 90.9258 76.1511 90.9385 76.0815C90.9506 76.012 90.9573 75.9058 90.9573 75.7628V73.2561C90.9573 73.1228 90.9524 73.0257 90.9427 72.9649C90.9331 72.904 90.9173 72.8567 90.8949 72.8228C90.8725 72.789 90.8434 72.762 90.8065 72.7417C90.7696 72.7214 90.7072 72.6987 90.6182 72.6736V72.5316H91.8413V72.6736C91.7559 72.6948 91.6948 72.7161 91.6572 72.7373C91.6191 72.7586 91.5894 72.7852 91.567 72.8171C91.5452 72.8489 91.5289 72.8968 91.518 72.9605C91.5071 73.0243 91.5022 73.1228 91.5022 73.2561V75.7628Z" fill="#273B92"/>
<path fill-rule="evenodd" clip-rule="evenodd" d="M98.0649 75.1194C98.0649 75.33 98.0455 75.5117 98.0074 75.6642C97.9704 75.8091 97.9153 75.9376 97.8421 76.0497C97.7743 76.1501 97.6901 76.2356 97.5896 76.3062C97.4897 76.3767 97.368 76.4322 97.2245 76.4728C97.0816 76.5134 96.9139 76.5337 96.7207 76.5337C96.487 76.5337 96.2866 76.5076 96.1195 76.4554C95.9523 76.4032 95.8137 76.3177 95.7047 76.1989C95.5957 76.0801 95.517 75.94 95.4686 75.7787C95.4201 75.6174 95.3959 75.4121 95.3959 75.1629V73.2561C95.3959 73.1054 95.3911 73.0035 95.3814 72.9503C95.3717 72.8972 95.3578 72.8552 95.3396 72.8243C95.3214 72.7934 95.2948 72.7668 95.2597 72.7446C95.2252 72.7224 95.1604 72.6987 95.0659 72.6736V72.5316H96.2829V72.6736C96.1746 72.7006 96.0995 72.7311 96.0571 72.7649C96.0141 72.7987 95.9857 72.8494 95.9699 72.917C95.9548 72.9847 95.9469 73.0977 95.9469 73.2561V75.3078C95.9469 75.4952 95.9663 75.6527 96.0062 75.7802C96.0456 75.9077 96.1013 76.0067 96.1727 76.0772C96.2442 76.1477 96.3296 76.1989 96.4277 76.2308C96.5264 76.2627 96.6493 76.2786 96.7958 76.2786C96.9308 76.2786 97.0501 76.255 97.1524 76.2076C97.2547 76.1603 97.3401 76.0883 97.4085 75.9917C97.4776 75.8951 97.5242 75.7763 97.549 75.6353C97.5744 75.4943 97.5872 75.3049 97.5872 75.0673V73.2561C97.5872 73.088 97.5787 72.973 97.5623 72.9112C97.546 72.8494 97.5187 72.8021 97.4812 72.7692C97.4437 72.7364 97.3655 72.7045 97.2481 72.6736V72.5316H98.404V72.6736C98.2919 72.7026 98.215 72.7345 98.1739 72.7692C98.1321 72.804 98.1036 72.8542 98.0885 72.9199C98.0728 72.9856 98.0649 73.0977 98.0649 73.2561V75.1194Z" fill="#273B92"/>
<path fill-rule="evenodd" clip-rule="evenodd" d="M101.328 74.9195C101.398 75.0354 101.456 75.1369 101.504 75.2238C101.551 75.3107 101.6 75.4083 101.65 75.5164H101.688C101.678 75.3986 101.669 75.1644 101.662 74.8137C101.654 74.4631 101.65 74.1467 101.65 73.8647V73.2561C101.65 73.1228 101.646 73.0252 101.638 72.9634C101.631 72.9016 101.617 72.8542 101.596 72.8214C101.576 72.7886 101.548 72.762 101.512 72.7417C101.476 72.7214 101.414 72.6987 101.326 72.6736V72.5316H102.369V72.6736C102.282 72.6968 102.221 72.718 102.185 72.7373C102.149 72.7567 102.12 72.7818 102.098 72.8127C102.075 72.8436 102.058 72.89 102.047 72.9518C102.035 73.0136 102.03 73.115 102.03 73.2561V76.5047H101.667L100.053 73.798C99.9525 73.6299 99.881 73.5073 99.8386 73.4299C99.7962 73.3527 99.7569 73.2764 99.72 73.201H99.6709C99.6842 73.3498 99.6939 73.6188 99.6994 74.0081C99.7054 74.3974 99.7085 74.7852 99.7085 75.1716V75.7628C99.7085 75.8922 99.7127 75.9869 99.7212 76.0468C99.7302 76.1067 99.7448 76.154 99.7648 76.1888C99.7853 76.2236 99.815 76.2525 99.855 76.2757C99.8943 76.2989 99.9585 76.3221 100.048 76.3453V76.4873H98.9897V76.3453C99.1096 76.3143 99.1896 76.2801 99.2301 76.2424C99.2707 76.2048 99.2973 76.1511 99.31 76.0815C99.3222 76.012 99.3288 75.9058 99.3288 75.7628V73.2561C99.3288 73.1228 99.324 73.0257 99.3143 72.9649C99.3046 72.904 99.2888 72.8567 99.2664 72.8228C99.244 72.789 99.215 72.762 99.178 72.7417C99.1411 72.7214 99.0787 72.6987 98.9897 72.6736V72.5316H99.8968L101.328 74.9195Z" fill="#273B92"/>
<path fill-rule="evenodd" clip-rule="evenodd" d="M103.924 75.7628C103.924 75.8922 103.929 75.9869 103.937 76.0468C103.946 76.1067 103.96 76.154 103.981 76.1888C104.001 76.2236 104.031 76.2525 104.071 76.2757C104.11 76.2989 104.175 76.3221 104.263 76.3453V76.4873H103.041V76.3453C103.16 76.3143 103.241 76.2801 103.281 76.2424C103.322 76.2048 103.348 76.1511 103.36 76.0815C103.373 76.012 103.38 75.9058 103.38 75.7628V73.2561C103.38 73.1228 103.375 73.0257 103.365 72.9649C103.356 72.904 103.339 72.8567 103.317 72.8228C103.295 72.789 103.265 72.762 103.229 72.7417C103.192 72.7214 103.129 72.6987 103.041 72.6736V72.5316H104.263V72.6736C104.178 72.6948 104.117 72.7161 104.079 72.7373C104.042 72.7586 104.012 72.7852 103.989 72.8171C103.967 72.8489 103.951 72.8968 103.94 72.9605C103.93 73.0243 103.924 73.1228 103.924 73.2561V75.7628Z" fill="#273B92"/>
<path fill-rule="evenodd" clip-rule="evenodd" d="M105.988 72.5316V72.6736C105.899 72.6891 105.831 72.7084 105.785 72.7316C105.738 72.7548 105.704 72.7876 105.68 72.8301C105.657 72.8726 105.646 72.9296 105.646 73.0011C105.646 73.0668 105.653 73.1377 105.669 73.2141C105.684 73.2904 105.707 73.3759 105.735 73.4705L106.413 75.8352L107.245 73.4531C107.257 73.4164 107.268 73.3778 107.28 73.3372C107.292 73.2967 107.302 73.2571 107.311 73.2184C107.319 73.1798 107.325 73.146 107.328 73.117C107.331 73.088 107.332 73.061 107.332 73.0358C107.332 72.9199 107.306 72.8354 107.253 72.7823C107.199 72.7292 107.109 72.6929 106.981 72.6736V72.5316H108.199V72.6736C108.12 72.6929 108.055 72.7209 108.008 72.7576C107.959 72.7944 107.911 72.8533 107.864 72.9344C107.817 73.0155 107.759 73.145 107.692 73.3227L106.489 76.5337H106.109L105.133 73.3024C105.081 73.1267 105.035 73.0016 104.996 72.9271C104.958 72.8528 104.915 72.7968 104.869 72.7591C104.823 72.7214 104.759 72.6929 104.677 72.6736V72.5316H105.988Z" fill="#273B92"/>
<path fill-rule="evenodd" clip-rule="evenodd" d="M111.256 72.5316V73.4068H110.972C110.943 73.3121 110.912 73.229 110.882 73.1575C110.851 73.0861 110.819 73.0262 110.786 72.9779C110.753 72.9296 110.717 72.8909 110.678 72.8619C110.638 72.833 110.591 72.8132 110.537 72.8025C110.483 72.7919 110.418 72.7866 110.343 72.7866H109.427V74.3051H110.047C110.132 74.3051 110.199 74.2931 110.247 74.2689C110.295 74.2447 110.335 74.2037 110.368 74.1457C110.399 74.0878 110.43 73.997 110.458 73.8733H110.731V74.9862H110.458C110.432 74.8702 110.401 74.7828 110.369 74.7239C110.336 74.6649 110.297 74.6229 110.251 74.5978C110.206 74.5727 110.138 74.5601 110.047 74.5601H109.427V76.2322H110.328C110.423 76.2322 110.5 76.2241 110.559 76.2076C110.618 76.1912 110.668 76.1632 110.711 76.1236C110.753 76.084 110.791 76.0323 110.824 75.9686C110.857 75.9048 110.884 75.8386 110.906 75.77C110.929 75.7015 110.959 75.6015 110.998 75.4701H111.285L111.23 76.4873H108.546V76.3453C108.666 76.3143 108.746 76.2801 108.787 76.2424C108.827 76.2048 108.854 76.1511 108.866 76.0815C108.879 76.012 108.885 75.9058 108.885 75.7628V73.2561C108.885 73.1228 108.88 73.0257 108.871 72.9649C108.861 72.904 108.845 72.8567 108.823 72.8228C108.801 72.789 108.771 72.762 108.735 72.7417C108.698 72.7214 108.635 72.6987 108.546 72.6736V72.5316H111.256Z" fill="#273B92"/>
<path fill-rule="evenodd" clip-rule="evenodd" d="M112.844 74.7688V75.7541C112.844 75.8932 112.849 75.9942 112.86 76.057C112.87 76.1197 112.886 76.167 112.907 76.1989C112.929 76.2308 112.958 76.2569 112.995 76.2772C113.031 76.2975 113.094 76.3202 113.183 76.3453V76.4873H111.96V76.3453C112.08 76.3143 112.16 76.2801 112.201 76.2424C112.241 76.2048 112.268 76.1511 112.28 76.0815C112.293 76.012 112.299 75.9058 112.299 75.7628V73.2561C112.299 73.1228 112.294 73.0257 112.284 72.9649C112.275 72.904 112.259 72.8567 112.236 72.8228C112.215 72.789 112.185 72.762 112.148 72.7417C112.112 72.7214 112.049 72.6987 111.96 72.6736V72.5316H113.395C113.846 72.5316 114.185 72.6137 114.409 72.778C114.633 72.9422 114.745 73.1971 114.745 73.543C114.745 73.8076 114.672 74.0327 114.526 74.2182C114.38 74.4037 114.161 74.5486 113.869 74.6529V74.6761C113.988 74.7243 114.089 74.7934 114.173 74.8833C114.256 74.9731 114.35 75.1127 114.452 75.302L114.713 75.7773C114.789 75.9164 114.853 76.0226 114.907 76.0961C114.961 76.1695 115.016 76.2255 115.073 76.2642C115.128 76.3028 115.203 76.3298 115.295 76.3453V76.4873H114.493C114.419 76.3849 114.35 76.2747 114.284 76.1569C114.218 76.039 114.153 75.9193 114.09 75.7976L113.835 75.3136C113.757 75.1668 113.694 75.0586 113.645 74.9891C113.596 74.9195 113.55 74.8707 113.509 74.8427C113.467 74.8147 113.423 74.7954 113.375 74.7847C113.328 74.7741 113.257 74.7688 113.163 74.7688H112.844ZM112.844 72.7982V74.5196H113.171C113.34 74.5196 113.476 74.5075 113.58 74.4834C113.684 74.4592 113.781 74.4133 113.869 74.3457C113.958 74.2781 114.029 74.1839 114.083 74.0632C114.136 73.9424 114.163 73.7941 114.163 73.6183C114.163 73.4348 114.131 73.2821 114.068 73.1604C114.006 73.0387 113.91 72.946 113.783 72.8823C113.655 72.8185 113.483 72.7866 113.267 72.7866C113.093 72.7866 112.952 72.7905 112.844 72.7982Z" fill="#273B92"/>
<path fill-rule="evenodd" clip-rule="evenodd" d="M115.82 75.5861C115.859 75.7561 115.911 75.8904 115.976 75.9889C116.042 76.0874 116.127 76.1604 116.232 76.2077C116.336 76.255 116.47 76.2787 116.634 76.2787C116.86 76.2787 117.034 76.2198 117.155 76.1019C117.275 75.984 117.336 75.8121 117.336 75.5861C117.336 75.4412 117.311 75.3195 117.26 75.221C117.21 75.1224 117.128 75.0297 117.014 74.9427C116.9 74.8558 116.726 74.7544 116.492 74.6384C116.266 74.5264 116.088 74.4167 115.956 74.3095C115.825 74.2023 115.727 74.0859 115.662 73.9603C115.597 73.8348 115.565 73.6976 115.565 73.5488C115.565 73.3324 115.616 73.1446 115.717 72.9852C115.819 72.8258 115.967 72.7026 116.163 72.6157C116.36 72.5287 116.584 72.4853 116.837 72.4853C116.984 72.4853 117.127 72.493 117.268 72.5084C117.408 72.5239 117.583 72.5587 117.793 72.6128V73.3952H117.506C117.462 73.2252 117.406 73.0929 117.339 72.9982C117.271 72.9035 117.191 72.8374 117.101 72.7997C117.01 72.762 116.892 72.7432 116.747 72.7432C116.622 72.7432 116.509 72.7664 116.41 72.8128C116.31 72.8591 116.232 72.9291 116.174 73.0229C116.115 73.1165 116.086 73.2281 116.086 73.3576C116.086 73.4947 116.111 73.6107 116.16 73.7053C116.21 73.8 116.286 73.8879 116.391 73.9691C116.495 74.0502 116.65 74.1409 116.855 74.2414C117.102 74.3651 117.294 74.48 117.43 74.5863C117.566 74.6925 117.672 74.8138 117.748 74.95C117.825 75.0862 117.863 75.2451 117.863 75.4267C117.863 75.6295 117.831 75.801 117.767 75.9411C117.704 76.0811 117.615 76.1951 117.502 76.283C117.389 76.3709 117.254 76.4347 117.096 76.4743C116.939 76.5139 116.766 76.5337 116.579 76.5337C116.276 76.5337 115.926 76.4825 115.53 76.3801V75.5861H115.82Z" fill="#273B92"/>
<path fill-rule="evenodd" clip-rule="evenodd" d="M119.385 75.7628C119.385 75.8922 119.389 75.9869 119.397 76.0468C119.406 76.1067 119.42 76.154 119.441 76.1888C119.461 76.2236 119.491 76.2525 119.531 76.2757C119.571 76.2989 119.635 76.3221 119.724 76.3453V76.4873H118.501V76.3453C118.621 76.3143 118.7 76.2801 118.741 76.2424C118.782 76.2048 118.808 76.1511 118.821 76.0815C118.833 76.012 118.84 75.9058 118.84 75.7628V73.2561C118.84 73.1228 118.835 73.0257 118.825 72.9649C118.816 72.904 118.8 72.8567 118.777 72.8228C118.755 72.789 118.726 72.762 118.689 72.7417C118.652 72.7214 118.59 72.6987 118.501 72.6736V72.5316H119.724V72.6736C119.638 72.6948 119.577 72.7161 119.54 72.7373C119.502 72.7586 119.472 72.7852 119.449 72.8171C119.428 72.8489 119.411 72.8968 119.4 72.9605C119.39 73.0243 119.385 73.1228 119.385 73.2561V75.7628Z" fill="#273B92"/>
<path fill-rule="evenodd" clip-rule="evenodd" d="M120.265 72.5316H123.401V73.5401H123.117C123.075 73.3739 123.032 73.2425 122.991 73.146C122.949 73.0494 122.905 72.976 122.859 72.9257C122.812 72.8755 122.763 72.8398 122.709 72.8185C122.657 72.7973 122.577 72.7866 122.471 72.7866H122.103V75.7541C122.103 75.8681 122.109 75.9589 122.121 76.0265C122.134 76.0941 122.153 76.1477 122.18 76.1873C122.206 76.2269 122.241 76.2579 122.285 76.2801C122.33 76.3023 122.399 76.324 122.494 76.3453V76.4873H121.17V76.3453C121.227 76.3317 121.279 76.3173 121.323 76.3018C121.368 76.2864 121.403 76.2675 121.432 76.2453C121.46 76.2231 121.483 76.1946 121.501 76.1598C121.52 76.125 121.534 76.0777 121.544 76.0178C121.555 75.9579 121.561 75.87 121.561 75.7541V72.7866H121.196C121.105 72.7866 121.03 72.7953 120.971 72.8127C120.912 72.8301 120.857 72.8663 120.807 72.9214C120.757 72.9764 120.711 73.0547 120.67 73.1561C120.628 73.2576 120.589 73.3855 120.552 73.5401H120.265V72.5316Z" fill="#273B92"/>
<path fill-rule="evenodd" clip-rule="evenodd" d="M124.988 74.8267L124.189 73.3401C124.092 73.1604 124.019 73.032 123.969 72.9547C123.919 72.8774 123.868 72.8166 123.818 72.7721C123.768 72.7277 123.71 72.6948 123.644 72.6736V72.5316H124.879V72.6736C124.697 72.6948 124.606 72.7731 124.606 72.9083C124.606 72.9644 124.619 73.0272 124.645 73.0967C124.671 73.1663 124.718 73.2648 124.786 73.3923L125.366 74.4964L125.936 73.4879C126.014 73.3507 126.068 73.2382 126.1 73.1503C126.132 73.0624 126.148 72.9818 126.148 72.9083C126.148 72.8388 126.127 72.7842 126.086 72.7446C126.044 72.705 125.983 72.6813 125.902 72.6736V72.5316H127V72.6736C126.921 72.7026 126.851 72.7427 126.791 72.7939C126.731 72.845 126.671 72.9141 126.609 73.0011C126.547 73.088 126.456 73.2349 126.336 73.4416L125.53 74.8152V75.7541C125.53 75.8642 125.536 75.9531 125.548 76.0207C125.559 76.0883 125.579 76.1425 125.606 76.183C125.633 76.2236 125.669 76.2554 125.713 76.2786C125.757 76.3018 125.827 76.324 125.922 76.3453V76.4873H124.597V76.3453C124.69 76.326 124.759 76.3052 124.803 76.283C124.847 76.2608 124.884 76.2289 124.91 76.1873C124.938 76.1458 124.958 76.0912 124.97 76.0236C124.982 75.956 124.988 75.8662 124.988 75.7541V74.8267Z" fill="#273B92"/>
<path fill-rule="evenodd" clip-rule="evenodd" d="M87.5164 55.4768C87.442 55.2842 87.3693 55.1298 87.3227 54.9676C87.1931 54.5189 87.4068 54.3227 87.8353 54.3379C88.5274 54.3621 89.7686 55.5192 89.8685 56.2149C89.9502 56.7852 89.6075 57.1297 89.0444 56.9614C88.2809 56.7325 87.7257 56.2433 87.5164 55.4768Z" fill="#273B92"/>
<path fill-rule="evenodd" clip-rule="evenodd" d="M57.6799 63.8086C57.6799 71.0241 51.8309 76.8731 44.6153 76.8731C37.3998 76.8731 31.5508 71.0241 31.5508 63.8086C31.5508 56.5936 37.3998 50.7446 44.6153 50.7446C51.8309 50.7446 57.6799 56.5936 57.6799 63.8086Z" fill="white"/>
<path fill-rule="evenodd" clip-rule="evenodd" d="M36.9961 64.9568H42.8003C42.8003 64.9568 43.7805 65.4218 44.202 66.4275H39.3351C39.3351 66.4275 39.4035 65.6531 36.9961 64.9568Z" fill="#273B92"/>
<path fill-rule="evenodd" clip-rule="evenodd" d="M39.7227 67.3564H44.5726C44.5726 67.3564 44.865 68.2592 45.1484 68.5686H40.273C40.273 68.5686 40.0666 67.6919 39.7227 67.3564Z" fill="#273B92"/>
<path fill-rule="evenodd" clip-rule="evenodd" d="M48.9999 65.7227H56.4377C56.4377 65.7227 56.3984 66.5007 56.1023 67.2788H48.415C48.415 67.2788 48.9055 66.3669 48.9999 65.7227Z" fill="#273B92"/>
<path fill-rule="evenodd" clip-rule="evenodd" d="M48.0804 67.915H55.9051C55.9051 67.915 55.7906 68.5151 55.1973 69.4802H46.7393C46.7393 69.4802 47.633 68.6628 48.0804 67.915Z" fill="#273B92"/>
<path fill-rule="evenodd" clip-rule="evenodd" d="M40.7285 69.5945H46.1058C46.1058 69.5945 46.7131 70.1449 47.344 70.2139H54.8418C54.8418 70.2139 54.3023 71.1536 53.7634 71.6931H43.7093C43.7093 71.6931 41.6573 71.4745 40.7285 69.5945Z" fill="#273B92"/>
<path fill-rule="evenodd" clip-rule="evenodd" d="M49.0893 64.8452H54.7888C54.8227 64.5079 54.8421 64.1664 54.8421 63.8207C54.8421 58.1764 50.267 53.6013 44.6227 53.6013C38.979 53.6013 34.4033 58.1764 34.4033 63.8207C34.4033 64.2015 34.4257 64.5769 34.4663 64.9475C34.4275 64.6417 34.4645 64.3311 34.4645 64.0157C34.4645 59.9631 37.7492 56.679 41.8017 56.679C45.8536 56.679 49.139 59.9631 49.139 64.0157C49.139 64.2966 49.1202 64.5733 49.0893 64.8452Z" fill="#CB242B"/>
<path fill-rule="evenodd" clip-rule="evenodd" d="M43.7431 72.6444C42.0786 72.507 41.2769 71.8428 40.8949 71.2954C37.5762 70.8867 34.886 68.2625 34.4658 64.9475C35.0271 70.0608 39.3587 74.0401 44.6216 74.0401C46.5016 74.0401 48.2612 73.5303 49.7743 72.6444H43.7431Z" fill="#273B92"/>
<path fill-rule="evenodd" clip-rule="evenodd" d="M44.7683 51.2914C37.8881 51.2914 32.2911 56.8879 32.2911 63.768C32.2911 70.6481 37.8881 76.2452 44.7683 76.2452C51.6478 76.2452 57.2455 70.6481 57.2455 63.768C57.2455 56.8879 51.6478 51.2914 44.7683 51.2914ZM44.7683 81.3283C35.0854 81.3283 27.208 73.4509 27.208 63.768C27.208 54.0851 35.0854 46.2078 44.7683 46.2078C54.4512 46.2078 62.3285 54.0851 62.3285 63.768C62.3285 73.4509 54.4512 81.3283 44.7683 81.3283Z" fill="white"/>
<path fill-rule="evenodd" clip-rule="evenodd" d="M44.7685 51.499C38.0035 51.499 32.4996 57.0035 32.4996 63.7685C32.4996 70.5336 38.0035 76.0369 44.7685 76.0369C51.5336 76.0369 57.0375 70.5336 57.0375 63.7685C57.0375 57.0035 51.5336 51.499 44.7685 51.499ZM44.7685 76.4534C37.774 76.4534 32.0836 70.7625 32.0836 63.7685C32.0836 56.774 37.774 51.083 44.7685 51.083C51.7631 51.083 57.4534 56.774 57.4534 63.7685C57.4534 70.7625 51.7631 76.4534 44.7685 76.4534ZM44.7685 46.4154C35.2007 46.4154 27.416 54.2001 27.416 63.7685C27.416 73.3358 35.2007 81.1205 44.7685 81.1205C54.3364 81.1205 62.1211 73.3358 62.1211 63.7685C62.1211 54.2001 54.3364 46.4154 44.7685 46.4154ZM44.7685 81.5365C34.9712 81.5365 27 73.5653 27 63.7685C27 53.9706 34.9712 46 44.7685 46C54.5659 46 62.5371 53.9706 62.5371 63.7685C62.5371 73.5653 54.5659 81.5365 44.7685 81.5365Z" fill="#273B92"/>
<path fill-rule="evenodd" clip-rule="evenodd" d="M32.556 53.497C32.6583 53.3196 32.7207 53.2942 32.8975 53.379C33.0525 53.4528 32.9883 53.5739 32.9695 53.6963C32.9193 54.0238 32.8841 54.3544 32.843 54.6838C32.8672 54.6886 32.8908 54.6929 32.9144 54.6965C32.9453 54.5942 32.9635 54.484 33.0125 54.3901C33.0458 54.3241 33.1191 54.2418 33.179 54.2388C33.2426 54.2351 33.3207 54.3054 33.3746 54.3611C33.463 54.4513 33.526 54.5694 33.6204 54.6517C33.9583 54.9478 34.3046 55.2342 34.6485 55.5248C34.7611 55.6199 34.7938 55.7386 34.6849 55.8433C34.5547 55.9692 34.4009 56.0722 34.2525 56.1781C34.2477 56.1818 34.1545 56.0946 34.1623 56.0794C34.3282 55.7464 34.1193 55.5763 33.8886 55.4025C33.7003 55.2614 33.5284 55.0992 33.3431 54.9532C33.2965 54.9169 33.2105 54.8763 33.1705 54.8957C33.1076 54.9254 33.0688 55.0047 33.0331 55.0816C33.1881 55.0447 33.3316 54.9871 33.446 55.1313C33.5593 55.2741 33.4291 55.3874 33.3552 55.5551C33.4521 55.5188 33.5017 55.4945 33.5544 55.4806C33.6174 55.4643 33.6913 55.4322 33.7445 55.4522C33.8087 55.4746 33.9044 55.5478 33.9008 55.592C33.8959 55.6562 33.819 55.7198 33.7627 55.7731C33.7355 55.7985 33.6858 55.7997 33.621 55.8191C33.7918 55.962 33.9444 56.0807 34.0836 56.2126C34.1345 56.2611 34.1974 56.3604 34.1793 56.4058C34.1484 56.4839 34.0667 56.5596 33.9879 56.5935C33.928 56.6195 33.8184 56.6056 33.7669 56.5638C33.6023 56.433 33.4327 56.2974 33.3056 56.1327C33.1106 55.8796 32.9495 55.5999 32.7746 55.3311C32.7582 55.3353 32.7425 55.3395 32.7267 55.3438C32.7322 55.4528 32.7443 55.5624 32.7425 55.6719C32.7322 56.2593 32.7273 56.8478 32.7025 57.4351C32.6892 57.7633 32.4985 57.8008 32.1903 57.7663C32.0528 57.7506 32.0123 57.6337 32.0347 57.5108C32.0686 57.3189 32.1273 57.1324 32.157 56.9404C32.2217 56.5148 32.2744 56.0873 32.3332 55.6611C32.378 55.3353 32.4252 55.0102 32.4452 54.6668C32.4161 54.711 32.3907 54.7571 32.3586 54.7988C32.2714 54.9133 32.1891 55.0332 32.0873 55.1331C32.0546 55.1664 31.9511 55.1712 31.9123 55.1434C31.8742 55.1167 31.8548 55.0259 31.8675 54.9732C31.9117 54.7849 31.9771 54.6015 32.0268 54.415C32.0425 54.3556 32.034 54.2902 32.0086 54.2254C31.9759 54.326 31.9541 54.4325 31.9063 54.5258C31.8167 54.7001 31.4946 54.7776 31.3753 54.6553C31.3365 54.6154 31.3069 54.5361 31.3178 54.4834C31.3511 54.3187 31.3977 54.1558 31.4552 53.9984C31.5073 53.8555 31.4915 53.7477 31.3523 53.6702C31.2203 53.5963 31.084 53.5007 31.1071 53.3396C31.1295 53.1804 31.2705 53.0938 31.4286 53.0611C31.4921 53.0478 31.5606 53.0557 31.6229 53.0399C31.7095 53.0175 31.8112 53.003 31.8736 52.9479C31.9505 52.8801 32.0074 52.8298 32.1031 52.8994C32.1939 52.9648 32.2696 53.0369 32.2211 53.1652C32.2036 53.2119 32.18 53.2597 32.1757 53.3081C32.1673 53.422 32.1836 53.5116 32.3416 53.4777C32.407 53.4631 32.4803 53.4886 32.556 53.497Z" fill="#273B92"/>
<path fill-rule="evenodd" clip-rule="evenodd" d="M58.1524 54.6777L58.2105 54.6317C58.245 54.5184 58.176 54.4645 58.0791 54.4385C58.0579 54.4337 58.0252 54.4724 57.9974 54.4906C58.0488 54.5529 58.1009 54.6153 58.1524 54.6777ZM58.0585 55.6707C58.0228 55.4963 57.493 55.2662 57.2078 55.2753C57.49 55.4067 57.7612 55.532 58.0585 55.6707ZM57.9192 55.1506C57.9114 55.1711 57.9035 55.1923 57.8956 55.2129C57.9423 55.245 57.9889 55.3056 58.0355 55.3056C58.3225 55.3074 58.6101 55.2995 58.8965 55.2813C58.9268 55.2795 58.9819 55.1814 58.9728 55.1403C58.9431 55.0083 58.6967 54.9441 58.6174 55.0513C58.4902 55.2232 58.3286 55.2081 58.1536 55.179C58.0761 55.1669 57.9974 55.1602 57.9192 55.1506ZM57.1309 55.2165C56.8905 55.1705 56.6495 55.1251 56.4086 55.0791C56.2463 55.0482 56.0755 55.0404 55.9696 54.8799C55.9054 54.783 55.8497 54.6934 55.9278 54.5753C56.0029 54.4609 56.1113 54.4337 56.2312 54.4542C56.5182 54.5045 56.8027 54.5644 57.0782 54.6177C57.0843 54.4984 57.0582 54.378 57.1037 54.2974C57.1497 54.2163 57.2653 54.1733 57.3525 54.1176C57.4173 54.0758 57.4827 54.034 57.5535 54.0038C57.6177 53.9771 57.6892 53.9668 57.757 53.9493C57.763 54.0322 57.7788 54.1158 57.7703 54.1969C57.7642 54.2502 57.7219 54.2992 57.7182 54.3616C57.9574 54.1824 58.2256 54.0346 58.2293 53.6786C58.2305 53.6181 58.3479 53.5587 58.4115 53.5C58.4612 53.5593 58.5496 53.6175 58.552 53.6798C58.5586 53.8324 58.5175 53.9862 58.5114 54.14C58.509 54.2145 58.5205 54.3289 58.5665 54.3568C58.6258 54.3925 58.7427 54.3876 58.8069 54.3519C59.0442 54.2193 59.1411 54.2181 59.2362 54.3858C59.3331 54.5554 59.2719 54.7158 59.0388 54.8405C59.1454 54.8847 59.2331 54.9187 59.3197 54.9568C59.5111 55.0416 59.545 55.2674 59.3827 55.3976C59.2089 55.5387 59.0176 55.5944 58.7918 55.532C58.6053 55.4805 58.581 55.506 58.6065 55.6925C58.6489 55.9946 58.5544 56.0394 58.3062 56.0073C58.1203 55.9831 57.9241 56.0019 57.7897 55.8257C57.7733 55.8045 57.7104 55.8136 57.671 55.8196C57.5051 55.842 57.3398 55.8687 57.1612 55.8959C57.1672 55.905 57.1854 55.9395 57.2114 55.9649C57.3834 56.1314 57.3816 56.4869 57.1866 56.6237C57.1394 56.657 56.9965 56.6189 56.9456 56.5668C56.8385 56.4566 56.7507 56.3222 56.678 56.1853C56.6199 56.0751 56.5684 56.0842 56.4855 56.146C56.2614 56.3107 56.0368 56.4741 55.8097 56.634C55.7607 56.6691 55.7032 56.7042 55.6463 56.7121C55.5863 56.7206 55.4955 56.7182 55.4658 56.6818C55.4301 56.6376 55.4337 56.5529 55.4386 56.4862C55.4483 56.3494 55.4731 56.2126 55.4852 56.0757C55.4925 55.9982 55.4822 55.9189 55.4894 55.842C55.5003 55.7306 55.4689 55.5665 55.6293 55.5665C55.7698 55.5671 55.7522 55.7124 55.7661 55.8257C55.7764 55.9104 55.8267 56.02 55.8939 56.0588C55.9448 56.0884 56.0531 56.0303 56.1306 55.9994C56.1748 55.9813 56.2112 55.9407 56.2469 55.9056C56.348 55.8087 56.3468 55.7276 56.2081 55.6658C56.0265 55.5841 55.8418 55.5072 55.6687 55.4097C55.5887 55.3643 55.5124 55.2838 55.4749 55.2008C55.4567 55.1614 55.527 55.0276 55.5639 55.0252C55.679 55.0173 55.8085 55.0258 55.9109 55.0749C56.0937 55.1621 56.2572 55.2898 56.4358 55.3873C56.5636 55.4569 56.7034 55.5054 56.8397 55.5641C56.85 55.4751 56.8306 55.3655 56.8766 55.3171C56.925 55.2662 57.0358 55.2747 57.1194 55.2577C57.123 55.2444 57.1273 55.2299 57.1309 55.2165Z" fill="#273B92"/>
<path fill-rule="evenodd" clip-rule="evenodd" d="M49.7225 50.3254C49.5475 50.4495 49.3925 50.5706 49.2278 50.6748C48.9475 50.8516 48.6859 50.7765 48.4431 50.5888C48.3148 50.4889 48.2754 50.3363 48.3572 50.2419C48.4619 50.122 48.5751 50.2067 48.6484 50.2734C48.8991 50.5016 49.2085 50.3509 49.4065 50.0372C49.3114 50.0608 49.2478 50.0711 49.1879 50.0923C48.9675 50.1722 48.8113 50.0953 48.7544 49.8653C48.7374 49.7974 48.7338 49.7199 48.7477 49.6515C48.7762 49.5098 48.8797 49.459 48.9923 49.5486C49.1618 49.6824 49.3562 49.66 49.5457 49.6751C49.5881 49.6788 49.6426 49.6491 49.6753 49.6182C49.7225 49.5728 49.7631 49.5165 49.7922 49.4578C50.0247 48.9994 50.2505 48.538 50.486 48.0809C50.5193 48.0167 50.6077 47.9229 50.6465 47.9332C50.7173 47.9519 50.8003 48.0282 50.8239 48.0985C50.902 48.3267 50.9008 48.5532 50.7537 48.7657C50.5678 49.0327 50.3904 49.3058 50.2136 49.5795C50.1924 49.6116 50.1778 49.6685 50.1918 49.6987C50.2045 49.7254 50.2681 49.7496 50.2989 49.7405C50.4158 49.7066 50.526 49.6503 50.6429 49.6182C50.7216 49.5964 50.8209 49.5716 50.8857 49.6019C50.9795 49.6461 51.0746 49.7199 51.0455 49.861C51.0225 49.9724 50.9722 50.0493 50.853 50.0517C50.5878 50.0584 50.322 50.0608 50.0568 50.0614C49.866 50.0626 49.8315 50.1117 49.9229 50.2746C50.0119 50.4338 50.1058 50.5894 50.2021 50.7438C50.3214 50.9358 50.5218 51.0223 50.7064 51.1325C50.7694 51.1701 50.8112 51.2439 50.8627 51.3009C50.7973 51.3547 50.7397 51.4341 50.6647 51.4571C50.5242 51.5007 50.374 51.5291 50.2275 51.5297C50.1512 51.5303 50.0507 51.4783 50.0041 51.4171C49.929 51.3196 49.8654 51.1991 49.8394 51.0799C49.7861 50.834 49.7607 50.5821 49.7225 50.3254Z" fill="#273B92"/>
<path fill-rule="evenodd" clip-rule="evenodd" d="M41.1484 49.1704C41.1091 49.2328 41.077 49.2836 41.0443 49.3351C41.0994 49.3478 41.169 49.386 41.2048 49.366C41.249 49.3412 41.2641 49.2661 41.2919 49.2134C41.2502 49.2007 41.2078 49.188 41.1484 49.1704ZM40.7313 48.0751C40.8209 47.9915 40.8869 47.9358 40.9438 47.8716C40.9601 47.8535 40.9632 47.802 40.9492 47.7826C40.9365 47.7657 40.8899 47.7621 40.8614 47.7687C40.7204 47.8008 40.6998 47.9019 40.7313 48.0751ZM41.2417 49.5543C40.9626 49.6421 40.6065 49.9684 40.6259 50.1132C40.9535 50.0254 41.2471 49.765 41.2417 49.5543ZM39.7837 50.7416C39.9223 50.5957 39.9078 50.425 39.9139 50.2736C39.9193 50.1174 39.8763 49.9606 39.8576 49.8031C39.7994 49.3097 39.8424 48.8568 40.2245 48.4711C40.3335 48.3603 40.3389 48.1278 40.3541 47.9479C40.3837 47.6083 40.5581 47.4514 40.8899 47.5096C41.0037 47.5289 41.097 47.518 41.1745 47.4187C41.2726 47.2934 41.3991 47.2995 41.519 47.3806C41.6056 47.4393 41.6256 47.5235 41.5475 47.6089C41.3289 47.8474 41.1091 48.0848 40.8905 48.3233C40.8687 48.3476 40.8439 48.3748 40.8354 48.4045C40.7991 48.5407 40.985 48.8362 41.1224 48.8646C41.183 48.8768 41.2441 48.8816 41.3053 48.8907C41.4585 48.9119 41.6189 48.907 41.6789 49.1074C41.694 49.1577 41.7903 49.1934 41.8563 49.2158C42.0591 49.2849 42.1663 49.475 42.1184 49.6857C42.0555 49.9648 41.8617 50.1525 41.6649 50.3366C41.6401 50.3602 41.5838 50.3499 41.542 50.3553C41.539 50.3111 41.5172 50.2536 41.5366 50.2234C41.6395 50.0659 41.7679 49.92 41.7715 49.7184C41.7727 49.656 41.7685 49.5791 41.7346 49.5337C41.6801 49.4604 41.6032 49.4447 41.5547 49.5543C41.5166 49.6409 41.4754 49.7275 41.4403 49.8159C41.3416 50.0641 41.1406 50.1798 40.9002 50.2518C40.7179 50.3063 40.5399 50.3759 40.3553 50.4201C40.2323 50.4498 40.15 50.3566 40.2039 50.2433C40.2881 50.0659 40.3892 49.8922 40.5054 49.7335C40.5908 49.6173 40.655 49.5222 40.586 49.3714C40.5272 49.2425 40.4969 49.1002 40.44 48.9191C40.394 49.0257 40.3698 49.1087 40.3238 49.1783C40.2893 49.2298 40.2208 49.3018 40.1779 49.2957C40.035 49.2746 40.0204 49.3617 40.0247 49.4538C40.035 49.7087 40.0634 49.9624 40.0731 50.2173C40.084 50.5013 40.0895 50.7865 40.0828 51.071C40.0786 51.2236 39.8339 51.3695 39.6462 51.3496C39.4973 51.3338 39.4149 51.2339 39.4398 51.0438C39.5046 50.5461 39.3574 50.0889 39.2012 49.6312C39.1534 49.4925 39.0928 49.3593 39.0462 49.2207C39.0062 49.1026 39.0395 49.0051 39.1679 48.9676C39.3265 48.9216 39.5463 49.0257 39.5808 49.1904C39.6287 49.4187 39.6408 49.6548 39.6644 49.8873C39.6886 50.1253 39.7068 50.3644 39.7316 50.6018C39.7359 50.6423 39.7601 50.6799 39.7837 50.7416Z" fill="#273B92"/>
<path fill-rule="evenodd" clip-rule="evenodd" d="M38.8261 48.3734C38.8061 48.322 38.7874 48.2814 38.7747 48.2384C38.7402 48.1191 38.7971 48.067 38.9109 48.0713C39.0938 48.0779 39.4231 48.3849 39.4492 48.5684C39.471 48.7198 39.3801 48.8118 39.2312 48.7664C39.029 48.7058 38.8818 48.5763 38.8261 48.3734Z" fill="#273B92"/>
<path fill-rule="evenodd" clip-rule="evenodd" d="M31.2451 66.0969C31.1991 65.8438 31.0635 65.6827 30.8382 65.6149C30.6136 65.5471 30.2388 65.561 29.7138 65.6561C29.33 65.7269 29.0545 65.8365 28.8874 65.9861C28.7202 66.1356 28.6579 66.3288 28.7009 66.5643C28.7426 66.7938 28.865 66.9488 29.0684 67.0305C29.2718 67.1123 29.5534 67.1195 29.9143 67.0541C30.487 66.9494 30.8637 66.8289 31.0447 66.6908C31.2251 66.5528 31.2923 66.3548 31.2451 66.0969ZM28.0276 67.6142L27.9271 67.6324L27.9083 67.5306C27.8423 67.1692 27.8556 66.8949 27.9495 66.7102C28.0433 66.5243 28.2262 66.4075 28.4986 66.3578L28.5574 66.3469C28.5586 66.072 28.6724 65.8244 28.897 65.6046C29.1223 65.3842 29.4093 65.2431 29.758 65.1789C29.9566 65.1432 30.1431 65.1384 30.3175 65.1644C30.4913 65.1904 30.6536 65.248 30.8043 65.3358C30.9551 65.4242 31.0756 65.5295 31.1664 65.6518C31.2566 65.7741 31.3153 65.911 31.3432 66.0623C31.3723 66.2246 31.3674 66.379 31.3275 66.5268C31.2881 66.6739 31.2118 66.8162 31.0998 66.9542C30.9872 67.0935 30.8534 67.2067 30.6978 67.2951C30.5415 67.3829 30.3672 67.4453 30.1734 67.4798C29.8259 67.544 29.508 67.5107 29.2204 67.3811C28.9322 67.2515 28.7384 67.0572 28.6391 66.7968C28.6276 66.7992 28.6106 66.801 28.5882 66.8035C28.5658 66.8053 28.5495 66.8071 28.5392 66.8095C28.3115 66.8507 28.1584 66.9324 28.0784 67.0553C27.9991 67.1776 27.9809 67.3587 28.0245 67.5972L28.0276 67.6142Z" fill="#273B92"/>
<path fill-rule="evenodd" clip-rule="evenodd" d="M29.1279 68.543L29.2248 68.5091L29.3374 68.8312L31.6928 68.0029L31.5801 67.6814L31.6764 67.6475L32.0415 68.6871L31.9452 68.721L31.8296 68.3916L29.4743 69.2187L29.5899 69.5481L29.493 69.5826L29.1279 68.543Z" fill="#273B92"/>
<path fill-rule="evenodd" clip-rule="evenodd" d="M29.7959 70.3913L29.8861 70.3429L30.0302 70.6093L32.2263 69.4225L32.084 69.1598L32.1742 69.1113L32.5472 69.801L31.395 71.7337L33.005 70.8636L32.8596 70.5954L32.9499 70.5463L33.3059 71.2051L33.2157 71.2541L33.0667 70.9786L30.7223 72.2453L30.6714 72.1515L32.2451 69.5588L30.0914 70.7225L30.2361 70.9908L30.1459 71.0392L29.7959 70.3913Z" fill="#273B92"/>
<path fill-rule="evenodd" clip-rule="evenodd" d="M33.1179 73.7635L33.8093 74.59L33.7306 74.656L33.5726 74.4665C33.3455 74.6566 33.113 74.7329 32.8745 74.6959C32.6359 74.659 32.4095 74.5113 32.1939 74.2545C31.9644 73.9802 31.8772 73.6799 31.9317 73.3548C31.9862 73.029 32.1745 72.7317 32.4954 72.4635C32.6474 72.3364 32.8091 72.2401 32.981 72.1759C33.153 72.1111 33.3292 72.0796 33.5096 72.0808C33.6882 72.0814 33.8505 72.1148 33.9958 72.1814C34.1411 72.248 34.2677 72.3448 34.3736 72.472C34.4554 72.5695 34.5178 72.6736 34.5613 72.785C34.6049 72.8958 34.6286 73.0109 34.6322 73.1301L34.8393 73.1501L34.8768 73.1949L34.35 73.6351L34.2949 73.5691C34.4233 73.3972 34.4887 73.2222 34.4917 73.0448C34.4947 72.8668 34.4342 72.7033 34.3095 72.5549C34.1387 72.3503 33.931 72.2704 33.6864 72.314C33.4424 72.3588 33.1409 72.5301 32.7836 72.8292C32.4361 73.1199 32.223 73.3699 32.143 73.5782C32.0637 73.7871 32.1037 73.9875 32.2647 74.1795C32.4046 74.3466 32.5475 74.4307 32.6946 74.4319C32.8412 74.4325 33.0137 74.3508 33.2129 74.1837L33.2856 74.1237L33.0392 73.8289L33.1179 73.7635Z" fill="#273B92"/>
<path fill-rule="evenodd" clip-rule="evenodd" d="M33.7031 75.8118L33.7661 75.7313L34.0059 75.9196L35.5492 73.9572L35.3095 73.7683L35.3724 73.6877L36.1741 74.3181L36.1105 74.3986L35.8708 74.2097L35.1642 75.1094L36.079 75.8287L36.7863 74.9296L36.5465 74.7407L36.6095 74.6608L37.4111 75.2905L37.3475 75.371L37.1096 75.1839L35.5668 77.1463L35.8048 77.334L35.7412 77.4139L34.9401 76.7836L35.0031 76.7037L35.2429 76.892L36.0082 75.919L35.0933 75.199L34.328 76.1727L34.5678 76.361L34.5048 76.4415L33.7031 75.8118Z" fill="#273B92"/>
<path fill-rule="evenodd" clip-rule="evenodd" d="M37.6513 77.2398L38.2834 77.5553L38.4614 76.4327L37.6513 77.2398ZM36.4688 77.8683L36.5142 77.7769L36.8018 77.9198L38.815 75.9429L38.9064 75.9889L38.4868 78.759L38.7399 78.8849L38.6945 78.9763L37.7748 78.5186L37.8202 78.4272L38.1187 78.5755L38.2622 77.6788L37.5635 77.3306L36.9204 77.9791L37.2256 78.1311L37.1802 78.2225L36.4688 77.8683Z" fill="#273B92"/>
<path fill-rule="evenodd" clip-rule="evenodd" d="M39.3809 79.1987L39.4117 79.1012L39.7369 79.2053L40.4974 76.8276L40.1722 76.7235L40.2037 76.626L41.253 76.962L41.2215 77.0589L40.8891 76.9529L40.1286 79.3307L40.4616 79.4372L40.4302 79.5347L39.3809 79.1987Z" fill="#273B92"/>
<path fill-rule="evenodd" clip-rule="evenodd" d="M41.6699 79.1525L41.9605 77.2586L41.6475 77.2107L41.6632 77.1096L42.6707 77.264L42.655 77.3651L42.3456 77.3179L42.0586 79.1882C42.0265 79.3941 42.0507 79.5588 42.1306 79.6817C42.2106 79.804 42.3426 79.8797 42.5266 79.9082C42.7404 79.9409 42.9135 79.8991 43.0449 79.7834C43.1763 79.6678 43.2617 79.4813 43.3016 79.224L43.5656 77.505L43.2599 77.4584L43.2756 77.3573L44.0076 77.4699L43.9919 77.571L43.6867 77.5244L43.4203 79.2549C43.3731 79.5618 43.2653 79.7786 43.0964 79.9051C42.9275 80.0311 42.6919 80.0716 42.3904 80.025C42.1312 79.9851 41.9375 79.8876 41.8091 79.7326C41.6808 79.5776 41.6341 79.3844 41.6699 79.1525Z" fill="#273B92"/>
<path fill-rule="evenodd" clip-rule="evenodd" d="M44.5637 80.1898L44.5589 80.0875L44.8616 80.0736L44.7454 77.5796L44.4463 77.5935L44.4414 77.4918L45.2255 77.4548L46.4661 79.3312L46.3808 77.5033L46.0762 77.5178L46.0714 77.4155L46.8191 77.3804L46.824 77.4827L46.511 77.4972L46.6357 80.1595L46.5291 80.1644L44.8755 77.622L44.99 80.0675L45.2945 80.053L45.2994 80.1553L44.5637 80.1898Z" fill="#273B92"/>
<path fill-rule="evenodd" clip-rule="evenodd" d="M47.7816 79.9242L47.761 79.8237L48.0953 79.7553L47.5921 77.3097L47.2579 77.3782L47.2373 77.2782L48.3169 77.0566L48.3375 77.1565L47.9954 77.2268L48.4979 79.6723L48.84 79.6021L48.8606 79.702L47.7816 79.9242Z" fill="#273B92"/>
<path fill-rule="evenodd" clip-rule="evenodd" d="M50.7284 79.1945L48.961 77.0075L48.6806 77.111L48.6455 77.0148L49.6125 76.6569L49.6482 76.7526L49.3509 76.8628L50.6745 78.4952L50.6043 76.3984L50.2561 76.5273L50.2204 76.4317L50.9451 76.1628L50.9803 76.2585L50.7151 76.3572L50.8131 79.163L50.7284 79.1945Z" fill="#273B92"/>
<path fill-rule="evenodd" clip-rule="evenodd" d="M52.6266 78.3195L52.5733 78.2317L52.8349 78.0743L51.5422 75.9382L51.2812 76.0962L51.2285 76.009L52.9432 74.9712L53.2793 75.5258L53.2054 75.57C53.0722 75.4096 52.9439 75.3212 52.8191 75.3042C52.695 75.2873 52.5303 75.3405 52.325 75.4647L51.8927 75.7262L52.4849 76.7053L52.5551 76.6629C52.7053 76.5715 52.7949 76.4801 52.8252 76.388C52.8548 76.2954 52.8349 76.1779 52.7646 76.0362L52.8367 75.992L53.3622 76.8615L53.289 76.9057C53.1873 76.7562 53.0825 76.672 52.9741 76.6538C52.8664 76.6357 52.7271 76.6781 52.5563 76.781L52.5376 76.7931L53.1848 77.8624L53.6741 77.5663C53.8654 77.45 53.981 77.3241 54.0216 77.1885C54.0616 77.0522 54.0386 76.8627 53.9526 76.6187L54.0301 76.5721L54.3916 77.2514L52.6266 78.3195Z" fill="#273B92"/>
<path fill-rule="evenodd" clip-rule="evenodd" d="M54.742 75.0385L54.9188 74.8774C55.1235 74.6915 55.2337 74.5365 55.2494 74.4136C55.2645 74.2901 55.2016 74.1502 55.0599 73.994C54.9273 73.8487 54.8068 73.7742 54.699 73.7718C54.5912 73.7694 54.4508 73.8463 54.2788 74.0031L54.0172 74.2411L54.742 75.0385ZM55.1646 76.5716L55.402 76.356L53.723 74.5081L53.4971 74.7133L53.4287 74.6371L54.274 73.8693C54.4968 73.6671 54.7033 73.5496 54.8946 73.5169C55.0853 73.4848 55.2446 73.5375 55.3711 73.678C55.497 73.816 55.5443 73.9771 55.5128 74.1605C55.4813 74.344 55.3753 74.525 55.1955 74.7049L55.2173 74.7285C55.3862 74.6225 55.5509 74.5656 55.7114 74.5589C55.8712 74.5523 56.0099 74.5971 56.1267 74.6915C56.1879 74.7406 56.269 74.8193 56.3702 74.9265C56.4719 75.0342 56.5488 75.1015 56.6014 75.1269C56.6469 75.1517 56.6892 75.1602 56.728 75.1547C56.7674 75.1493 56.8067 75.1281 56.8461 75.0924C56.8703 75.0712 56.8921 75.0451 56.9115 75.0155C56.9314 74.9852 56.9496 74.9513 56.9653 74.9132L57.0344 74.9888C57.0041 75.0548 56.9702 75.1142 56.9339 75.1675C56.8969 75.2207 56.8576 75.2661 56.8164 75.3037C56.6892 75.4193 56.5506 75.4563 56.4004 75.4163C56.2497 75.3757 56.0716 75.2522 55.8652 75.0451C55.8609 75.0403 55.8543 75.0336 55.8452 75.0258C55.6981 74.8756 55.5679 74.7957 55.4559 74.7854C55.3747 74.7775 55.2942 74.789 55.2137 74.8187C55.1331 74.849 55.0587 74.8944 54.9903 74.9561L54.8135 75.1172L55.6962 76.0884L55.9275 75.8783L55.9966 75.954L55.2331 76.6473L55.1646 76.5716Z" fill="#273B92"/>
<path fill-rule="evenodd" clip-rule="evenodd" d="M57.655 74.2951L57.612 74.3514L57.0489 73.9179L57.0968 73.8555C57.2948 73.927 57.4813 73.9427 57.6575 73.9033C57.833 73.864 57.9741 73.7756 58.0801 73.6375C58.1982 73.4837 58.2502 73.3172 58.2351 73.1374C58.2199 72.9576 58.1431 72.8147 58.0044 72.7081C57.8409 72.5828 57.586 72.6415 57.2391 72.8843C57.2124 72.9037 57.1918 72.9188 57.1779 72.9279C56.88 73.1344 56.6511 73.2482 56.4901 73.2676C56.329 73.287 56.1698 73.2361 56.013 73.1156C55.8368 72.98 55.7381 72.8123 55.7163 72.6112C55.6945 72.4102 55.7544 72.2171 55.8973 72.0318C56.0033 71.8937 56.1407 71.7938 56.3084 71.7327C56.3399 71.7212 56.3575 71.7139 56.3611 71.7091C56.3647 71.7024 56.3672 71.6951 56.3684 71.6885C56.3696 71.6824 56.369 71.6746 56.3672 71.6661L56.3375 71.545L56.3902 71.4766L56.88 71.8532L56.8352 71.9119C56.6445 71.8483 56.4755 71.835 56.3284 71.8707C56.1819 71.9077 56.0559 71.993 55.9518 72.1293C55.8567 72.2522 55.8138 72.3836 55.8216 72.5234C55.8295 72.6645 55.8858 72.7741 55.9906 72.8553C56.0771 72.9219 56.1734 72.9449 56.2788 72.9219C56.3835 72.9001 56.5125 72.8304 56.6645 72.713C56.6863 72.6954 56.7196 72.67 56.765 72.6355C57.0199 72.4405 57.2082 72.3255 57.3299 72.2928C57.4377 72.2643 57.546 72.2631 57.6544 72.2885C57.7634 72.3139 57.8688 72.3654 57.9705 72.4435C58.1921 72.6149 58.318 72.8159 58.3489 73.0478C58.3798 73.2797 58.3096 73.5074 58.1382 73.7296C58.0183 73.8858 57.8657 73.9954 57.6805 74.059C57.6502 74.0699 57.6338 74.0765 57.6314 74.0801C57.629 74.0826 57.6278 74.088 57.6272 74.0953C57.6266 74.1025 57.6266 74.1104 57.6278 74.1201L57.655 74.2951Z" fill="#273B92"/>
<path fill-rule="evenodd" clip-rule="evenodd" d="M59.0687 72.318L58.9803 72.2672L59.1505 71.9717L56.9877 70.7244L56.8169 71.0199L56.7285 70.9684L57.2789 70.0142L57.3673 70.0656L57.1929 70.3678L59.3557 71.6151L59.5301 71.3123L59.6191 71.3638L59.0687 72.318Z" fill="#273B92"/>
<path fill-rule="evenodd" clip-rule="evenodd" d="M60.1625 70.2458L60.0674 70.2083L60.1945 69.891L57.8792 68.9628C57.8713 68.9785 57.864 68.9949 57.8562 69.0118C57.8483 69.0288 57.838 69.0542 57.8247 69.0881C57.7538 69.2643 57.746 69.4139 57.8011 69.5368C57.8568 69.6597 57.9954 69.7941 58.2182 69.94L58.1843 70.0236L57.4717 69.6991L58.2467 67.7651L58.9848 68.0285L58.9509 68.1127C58.7075 68.054 58.5192 68.0521 58.386 68.1066C58.2521 68.1611 58.1474 68.2834 58.0711 68.4729C58.0584 68.5056 58.0493 68.5293 58.0439 68.5444C58.0384 68.5595 58.0342 68.5729 58.0305 68.585L60.3453 69.515L60.4694 69.2056L60.5645 69.2437L60.1625 70.2458Z" fill="#273B92"/>
<path fill-rule="evenodd" clip-rule="evenodd" d="M61.1171 67.3948L61.0166 67.3749L61.0862 67.0303L59.9406 66.7984L58.4844 67.3022L58.4257 67.591L58.3252 67.5704L58.5426 66.4987L58.6431 66.5193L58.5747 66.8572L59.8698 66.42L58.8368 65.5614L58.7569 65.9562L58.6564 65.9362L58.8241 65.1104L58.924 65.1303L58.8623 65.4355L60.0266 66.394L61.1686 66.6253L61.2382 66.2808L61.3387 66.3013L61.1171 67.3948Z" fill="#273B92"/>
</g>
<defs>
<filter id="filter0_d_185_410" x="0" y="0" width="154" height="157" filterUnits="userSpaceOnUse" color-interpolation-filters="sRGB">
<feFlood flood-opacity="0" result="BackgroundImageFix"/>
<feColorMatrix in="SourceAlpha" type="matrix" values="0 0 0 0 0 0 0 0 0 0 0 0 0 0 0 0 0 0 127 0" result="hardAlpha"/>
<feOffset dy="16"/>
<feGaussianBlur stdDeviation="6.5"/>
<feColorMatrix type="matrix" values="0 0 0 0 0 0 0 0 0 0 0 0 0 0 0 0 0 0 0.03 0"/>
<feBlend mode="normal" in2="BackgroundImageFix" result="effect1_dropShadow_185_410"/>
<feBlend mode="normal" in="SourceGraphic" in2="effect1_dropShadow_185_410" result="shape"/>
</filter>
</defs>
</svg>
