<svg xmlns="http://www.w3.org/2000/svg" width="154" height="157" fill="none"><g filter="url(#a)"><path fill="#fff" d="M13 0h128v128H13z"/><path fill="#fff" fill-rule="evenodd" d="m27 54.82.16 10.94c-.01 1.192 1.582 8.016 9.117 9.871 8.656-2.23 9.254-9.756 9.254-9.756s.39-8.897.138-10.987C39.073 51.331 33.724 51.755 27 54.82Z" clip-rule="evenodd"/><path fill="#262852" fill-rule="evenodd" d="M43.842 59.691h.417v.162h-.417l-.615.447v-.188l.497-.336-.497-.344v-.187l.615.446Zm-.496 1.66h-.119v-.96h.119v.402h.913v.156h-.913v.401Zm-.119.382h1.032v-.162h-1.032v.162Zm.3.305v.149c-.132.008-.202.108-.21.298.005.177.065.265.181.265.075 0 .119-.047.13-.142l.067-.337c.038-.177.132-.266.282-.266.106 0 .183.043.232.13a.775.775 0 0 1 .067.337c0 .168-.03.287-.09.356-.056.086-.143.127-.26.123v-.156c.158-.004.24-.112.243-.323-.004-.208-.062-.313-.175-.318-.052 0-.092.017-.118.052a.534.534 0 0 0-.068.207l-.045.246c-.041.169-.124.253-.248.253a.288.288 0 0 1-.248-.143.469.469 0 0 1-.068-.271c0-.298.11-.452.327-.46Zm-.187 1.924v-.402c0-.142.058-.213.175-.213.12 0 .18.08.18.24v.375h-.355Zm.474 0h.445v.162h-1.032v-.55c0-.121.02-.212.057-.273.038-.082.11-.123.22-.123.113 0 .235.116.287.228l.468-.27v.198l-.445.24v.388Zm.321.434h.124v.875h-1.032v-.862h.119v.7h.321v-.648h.124v.648h.344v-.713Zm-.095 1.663-.85-.41.014-.182.995.514-.014.174-1.062.352.014-.18.903-.268Zm-.973.642 1.012.203-.032.16-1.011-.204.031-.159Zm.67.803-.796-.25.047-.148.984.31-.055.172-.976.325-.002.006.796.25-.046.148-.985-.309.058-.185.975-.319Zm-1.2.845.579.293c.168.084.206.222.114.412-.091.172-.222.218-.391.137l-.579-.293-.073.145.614.31a.332.332 0 0 0 .313.006.577.577 0 0 0 .213-.248c.07-.139.096-.256.077-.353a.388.388 0 0 0-.2-.253l-.594-.3-.073.144Zm-.548 1.542c-.166-.14-.35-.101-.551.118a.47.47 0 0 0-.134.246c-.02.105.009.196.086.273.092.084.21.078.354-.019l.2-.15a.535.535 0 0 1 .19-.108c.042-.007.083.007.121.043.08.08.052.196-.085.352-.146.153-.279.178-.398.074l-.105.115c.083.082.175.11.274.084.092-.01.194-.077.308-.201a.777.777 0 0 0 .177-.294.247.247 0 0 0-.082-.252c-.111-.101-.24-.1-.388.005l-.277.203c-.072.062-.136.068-.192.017-.086-.079-.07-.184.047-.318.134-.134.252-.16.355-.078l.1-.11Zm-.282 1.248-.532.473-.229-.258.485-.43-.083-.092-.484.43-.213-.24.523-.465-.079-.089-.644.572.685.772.654-.58-.083-.093Zm-1.454.145-.133.093.59.847.133-.093-.59-.847Zm-.986.78.408.689.268-.158c.187-.124.22-.299.096-.523-.135-.221-.307-.274-.515-.16l-.257.152Zm.329.873.412-.244c.16-.094.243-.216.251-.364a.55.55 0 0 0-.086-.35.495.495 0 0 0-.275-.236.478.478 0 0 0-.41.059l-.417.247.525.888Zm-.885-.632.258.595c.074.172.015.303-.177.39-.18.074-.31.025-.388-.145l-.258-.595-.148.064.273.631c.048.11.127.179.237.205a.58.58 0 0 0 .323-.054c.142-.062.237-.136.285-.222a.389.389 0 0 0 .008-.323l-.265-.61-.148.064Zm-1.777.854-.047-.109.877-.386.048.109-.368.162.368.836-.143.062-.367-.836-.368.162Zm-.084.141-.138.058c-.059-.118-.177-.143-.355-.077-.162.073-.22.163-.175.27.03.069.09.09.182.064l.336-.068c.178-.034.296.018.354.157a.246.246 0 0 1-.03.263.774.774 0 0 1-.284.193c-.155.065-.276.083-.363.055-.101-.018-.172-.082-.214-.191l.144-.06c.065.143.195.176.392.097.19-.084.264-.178.225-.284-.02-.048-.052-.078-.094-.09a.538.538 0 0 0-.217.019l-.245.054c-.17.027-.28-.016-.329-.13a.289.289 0 0 1 .036-.285.469.469 0 0 1 .224-.167c.275-.116.458-.075.55.122Zm-2.313.11-.18-1.01-.175-.084-.444.931.14.067.36-.753.006.003.184 1.012.164.079.444-.932-.14-.067-.36.754Zm-1.394-.995.307.193c-.063.108-.147.164-.252.168a.441.441 0 0 1-.244-.074c-.223-.14-.258-.331-.105-.573.153-.219.338-.269.554-.15.162.107.224.232.184.376l.131.083c.076-.201-.006-.386-.247-.556-.3-.171-.554-.12-.762.152a.512.512 0 0 0-.073.468c.035.106.12.202.255.288.145.086.28.114.407.083.185-.051.229-.122.295-.2l.051-.082-.438-.276-.063.1Zm-.485-.98-.13-.097-.619.826.13.097.619-.826Zm-.907.368-.534-.47.227-.259.486.428.082-.093-.486-.428.212-.24.525.462.079-.09-.647-.569-.682.774.656.578.082-.093Zm-.861-1.99-.27.232.245.285c.105.12.202.142.293.064.089-.076.086-.168-.006-.276l-.262-.304Zm-.36.309.254.295-.182.472.131.152.018-.015.176-.496a.296.296 0 0 0 .35-.016c.082-.07.111-.15.086-.236a.524.524 0 0 0-.134-.243l-.359-.418-.782.672.105.123.338-.29Zm-.29-.425a.613.613 0 0 0 .296-.311.588.588 0 0 0-.047-.443.626.626 0 0 0-.267-.304.566.566 0 0 0-.475.009.597.597 0 0 0-.28.281c-.05.139-.035.296.048.472.077.164.182.272.314.324a.564.564 0 0 0 .41-.028Zm-.07-.146c.238-.131.309-.317.212-.558-.122-.233-.31-.297-.564-.193-.236.126-.303.31-.201.553.124.228.308.294.554.198Zm-.827-1.713-.443.15-.052-.153.976-.332.265.779-.112.038-.212-.625-.305.103.188.552-.118.04-.187-.552Zm-.499-2.241h.118v.518h-.133a.467.467 0 0 1-.29-.143c-.094-.09-.142-.22-.146-.388 0-.16.036-.283.107-.37a.513.513 0 0 1 .434-.187c.342.03.52.218.536.563-.015.294-.128.462-.338.505v-.155c.142-.043.215-.162.22-.356-.015-.246-.157-.376-.424-.389-.285 0-.428.132-.428.395a.44.44 0 0 0 .068.246c.06.087.152.128.276.123v-.362Zm-.237-1.035h.835v.156H28.41v-.182l.834-.602v-.007h-.834v-.155h1.032v.194l-.835.596Zm-.197-1.17h1.032v-.162H28.41v.162Zm.332-1.216v.149h-.073c-.113 0-.169.06-.169.181 0 .125.06.188.18.188h.762v.162h-.756c-.098 0-.173-.028-.225-.084a.463.463 0 0 1-.068-.26c.004-.211.086-.323.248-.336h.102Zm-.332-.283h1.032v-.162H28.41v.162Zm.124-.504h-.124v-.874h1.032v.861h-.119v-.7h-.321v.648h-.124v-.647h-.344v.712Zm.355-1.94v.31c0 .19-.058.285-.175.285-.12-.004-.182-.088-.186-.253v-.343h.361Zm-.48-.163h1.033v.525c-.008.211-.095.322-.26.33-.101 0-.173-.051-.214-.155-.045.147-.13.22-.254.22a.253.253 0 0 1-.191-.084c-.076-.074-.113-.181-.113-.324v-.512Zm.92.162v.285c0 .164-.05.246-.152.246-.117.005-.173-.077-.17-.246v-.285h.322Zm14.514-1.83.085.273.254.008-.202.176.072.277-.209-.164-.21.164.073-.277-.201-.176.253-.008.085-.272Zm-14.977-.029.085.273.254.007-.202.176.073.277-.21-.164-.209.164.072-.277-.201-.176.254-.007.084-.273ZM27.5 55.308l.152 10.358c-.01 1.129 1.498 7.589 8.631 9.346 8.196-2.112 8.762-9.237 8.762-9.237s.37-8.424.13-10.402c-6.245-3.368-11.309-2.966-17.675-.065Zm.131.128.15 10.206c-.01 1.112 1.475 7.477 8.504 9.208 8.074-2.08 8.632-9.1 8.632-9.1s.364-8.3.129-10.25c-6.154-3.319-11.143-2.923-17.415-.064Zm-.63-.617.16 10.941c-.01 1.192 1.582 8.015 9.117 9.871 8.656-2.23 9.254-9.756 9.254-9.756s.39-8.898.138-10.987c-6.596-3.558-11.945-3.133-18.669-.07Zm.25.245.157 10.65c-.011 1.159 1.54 7.8 8.873 9.607 8.425-2.171 9.007-9.496 9.007-9.496s.38-8.66.134-10.694c-6.42-3.463-11.626-3.05-18.17-.067Zm2.952 2.803c3.533-1.72 8.34-2.298 12.294.045.166 1.376-.09 8.151-.09 8.151s-.394 5.143-6.095 6.276c-5.223-1.222-6.01-5.567-6.003-6.352l-.106-8.12Z" clip-rule="evenodd"/><path fill="#fff" fill-rule="evenodd" d="m38.11 59.292 3.406.032.032 6.684s-.678 5.737-7.002 4.042c2.673-.096 3.5-2.387 3.565-3.756v-7.002Z" clip-rule="evenodd"/><path fill="#FCEF11" fill-rule="evenodd" d="m31.204 59.292 2.475.023 1.026.009-.012 6.652s.213 2.985 2.813 1.591c-1.037 2.706-5.507 3.111-6.238-1.114l-.064-7.16Z" clip-rule="evenodd"/><path fill="#fff" fill-rule="evenodd" d="M35.345 59.292h2.13v.838h-1.223v1.117h1.013v.838h-1.013v1.99h-.907v-4.783Z" clip-rule="evenodd"/><path fill="#262852" fill-rule="evenodd" d="M33.068 63.278c.73 0 1.09-.332 1.08-.996-.008-.39-.148-.639-.418-.746a.929.929 0 0 0 .324-.71c.01-.557-.329-.83-1.013-.818h-1.188v3.27h1.215Zm-.108-2.506c.234-.023.346.06.338.249 0 .19-.095.284-.284.284h-.337v-.533h.283Zm-.027 1.137c.171 0 .288.019.351.054.063.047.095.13.095.249.009.213-.108.314-.351.301h-.351v-.604h.256ZM41.085 60.95c-.091-.67-.491-1.011-1.2-1.024-.78.025-1.18.37-1.2 1.041.12.67.48 1.023 1.078 1.058.325.059.502.171.532.336 0 .153-.132.229-.395.229a.461.461 0 0 1-.259-.07.497.497 0 0 1-.151-.265h-.882c.091.67.507 1.022 1.246 1.058.852-.012 1.287-.377 1.307-1.094-.12-.635-.476-.976-1.064-1.022-.334-.059-.516-.171-.546-.336 0-.129.1-.193.303-.193.102 0 .178.023.228.07.081.035.127.106.137.212h.866Z" clip-rule="evenodd"/><path fill="#fff" fill-rule="evenodd" d="M34.15 58.285h-.119v-.762a.798.798 0 0 1-.239.144v-.115a.729.729 0 0 0 .175-.114.454.454 0 0 0 .106-.13h.077v.977ZM35.785 57.63a.234.234 0 0 0-.054-.163.172.172 0 0 0-.132-.06c-.053 0-.1.021-.139.065-.04.043-.059.1-.059.168 0 .062.019.112.056.151a.185.185 0 0 0 .139.058c.055 0 .1-.02.136-.058a.23.23 0 0 0 .053-.16Zm-.489.43.115-.011a.2.2 0 0 0 .056.118.154.154 0 0 0 .105.036.183.183 0 0 0 .097-.025.209.209 0 0 0 .068-.067.399.399 0 0 0 .044-.114.594.594 0 0 0 .018-.17.273.273 0 0 1-.233.128.272.272 0 0 1-.204-.088.32.32 0 0 1-.084-.23c0-.1.03-.179.088-.24a.292.292 0 0 1 .218-.09.313.313 0 0 1 .293.197c.028.064.041.155.041.274a.882.882 0 0 1-.04.297.346.346 0 0 1-.12.168.312.312 0 0 1-.188.058.274.274 0 0 1-.187-.063.272.272 0 0 1-.087-.178ZM37.237 57.942v-.439l-.304.44h.304Zm0 .343v-.233h-.422v-.11l.444-.63h.098v.63h.131v.11h-.131v.233h-.12ZM38.885 58.285h-.12v-.762a.798.798 0 0 1-.239.144v-.115a.728.728 0 0 0 .176-.114.453.453 0 0 0 .106-.13h.077v.977Z" clip-rule="evenodd"/><path fill="#262852" fill-rule="evenodd" d="m30.122 55.07-.024-.015-.033-.021-.038-.013-.123-.023-.047.01-.017.018-.016.024-.002.022.005.026.072.174.04.124.008.069.165.776.048.192.064.203.025.051.04.055.034.034.025.016.021.002.022.003.02-.005.019-.01.017-.018.009-.023.003-.022-.008-.068-.022-.072-.068-.154-.054-.156-.05-.164-.04-.16-.027-.161-.03-.169-.013-.165-.001-.168.014-.03.005-.044v-.069l-.023-.038-.02-.03Zm1.323 1.454-.01-.012-.104.001-.046.017-.045.016-.044.024-.043.03-.066.049-.026.012-.026.006-.029-.001-.023-.01-.024-.015-.017-.017-.013-.026-.03-.105-.02-.1-.018-.08-.025-.086.008-.03.014-.031.021-.032.03-.028.054-.04.061-.04.12-.13.046-.045.031-.049.024-.054.011-.08-.004-.02-.011-.018-.017-.01-.02-.003-.022-.002-.02.01-.117.103-.11.107-.112.003-.04-.292-.034-.056-.04-.055-.044-.046-.015-.004-.021-.002-.022-.003-.025.012-.019.011-.01.017-.003.021.002.042.009.04.015.039.26 1.224-.057.061-.023.054-.01.051.01.012.007.005.057.002.06-.012.052-.019.227-.118.3-.231.011-.045-.01-.018-.015-.004Zm-1.325.016.008.005-.032.342v.098l-.014.101-.008.03-.014.03-.023.026-.03.021-.032.014-.034.007h-.035l-.03-.007-.056-.037-.029-.036-.046-.088-.014-.095.023-.089.014-.1.005-.107.007-.1-.008-.102-.027-.197.07.006.112.095.118.227.023.009.013-.003.01-.016.005-.015.01-.016.014-.003ZM32.486 55.863l-.136.146-.02.01-.017.017-.01.022-.004.022.004.027.019.031.018.025.031.023.034.036.044.02h.007l.044-.076.015-.12.009-.12-.004-.027-.017-.018-.017-.018Zm.608-1.453.011-.016.004-.021-.01-.013-.038-.028-.044-.014-.028-.002-.034.005-.031.019-.031.025-.028.04-.014.043v.042l-.827.643-.264.083-.052.106-.051.112-.007.049.017.018.02-.003.089-.055 1.084-.85.234-.183Zm-.62.112.092.054.022.004.027-.004.012-.01.011-.015.003-.028-.006-.082-.02-.08-.031-.023-.03-.016-.037-.015-.036-.008-.04.006-.041.007-.039.02-.06.051v.007l.08.07.093.062Zm.702.145-.021-.004-.092.035-.044.028-.347.256.099.053.132-.041.034.001.008.006.008.006-.005.014-.036.034-.04.054-.03.068-.009.036-.001.035.013.039.019.032.03.015.036.009.035.001.034-.005.04-.013.036-.027.031-.026.022-.038.015-.037-.002-.013-.01-.013-.043-.014-.043-.007-.047.008-.01-.02.005-.014.183-.327.038-.068-.006-.04-.016-.012-.016-.011Zm-.599.766.017.018.023.01.02-.003.02-.003.02-.01.026-.052.02-.052.004-.056-.014-.046-.025-.024-.06-.032-.066-.024-.073-.023-.07-.003.095.206.063.094Zm.609.257-.024-.017-.037-.015-.028-.002-.075.005-.073.018-.012.016-.004.014.005.034.018.025.009.012.024.024.025.024.03.016.102.032.047-.007.019-.017.018-.017.002-.028-.003-.062-.019-.031-.024-.024Zm-.237.384.012.032.004.027-.001.035-.01.03-.031.06-.033.012-.06-.025-.068-.128-.188-.136.034-.006h.041l.065.011.036-.033.004-.015-.003-.02-.059-.371.01-.023.02-.01.019-.01.028.003.015.004.06.254.056.261.024.024.025.024ZM35.292 54.624l-.025-.024-.03-.016-.037-.015-.12-.015-.062.003-.12.032-.101.058-.051.03-.041.047-.046-.29-.036-.14-.01-.02-.009-.012-.021-.003-.11.01-.052.015-.033.013-.044.027-.043.035-.042.041-.029.04-.034.046-.04.097-.033.095-.027.094.048-.007.158-.226.093-.112.023-.025.012-.015.034-.006.034-.005.02.004.019.024.041.132.035.133.022.136.021.135.009.144v.131l-.006.14.011.067.017.067.024.058.008.013.03.009.012-.009.036-.033.01-.03.006-.132.007-.133-.015-.136-.03-.196.026-.053.035-.04.042-.041.036-.033.052-.023.06-.01.03.01.03.016.018.025.018.025.013.04.014.045v.049l-.049.167.05.013.086-.118.076-.13.015-.036.009-.036-.007-.04-.005-.035-.014-.04-.018-.03Zm-.952.331.012.033.004.027-.008.036-.01.029-.026.046-.036.04-.037.027-.044.027.01-.064-.006-.13-.011-.026-.038-.022-.062.003-.008.216-.015.21-.029.212-.01.016-.012.016-.027.004-.016-.011-.04-.036-.017-.018-.01-.06.04-.187.056-.175.068-.184-.246.067-.029-.183.034-.046.053-.106.05-.167.014-.037h.007l.027.036.036.14.029.141.04-.013.048-.001.042.007.044.014.04.028.032.03.033.036.018.025ZM36.76 54.796l-.049-.014.028.082.04.082.021.007h.02l.021-.007.014-.02.007-.028v-.02l-.014-.028-.089-.054Zm.444.861-.014-.088-.02-.076-.083-.267-.034-.13-.02-.143-.014-.137-.007-.137v-.136l.007-.144.014-.13.02-.137.041-.253.007-.116-.014-.041-.013-.02-.02-.008-.028-.006-.055.362-.048.363-.013.143v.294l.013.15.02.145.022.143.013.144v.17l-.04.042-.028.007.04.027.035.041.027.062.041.054.055.048.02.014h.021l.027-.007.021-.014.014-.02.007-.02-.007-.09-.007-.089Zm-.828-1.443.076-.04.061-.049.068-.054.055-.055.171-.144.157-.143v-.014l-.006-.007-.185.09-.089.054-.315.219-.321.212.027.006.034.007.028-.007.082-.013.082-.028.075-.034Zm-.054 1.3-.007.027v.007l.007.014h.013l.11-.007.102-.02.11-.028.11-.034.02-.02.007-.028v-.02l-.014-.028-.459.137Zm.177-.93-.02.013v.007l-.24.205h.062l.027.014.028.014.02.027.014.028.014.054.013.055v.061l.035-.027.047-.068.048-.075.048-.076.034-.082.028-.075v-.02l-.007-.021-.014-.014-.02-.007-.02.007-.021-.164.061-.164.007-.034-.007-.041-.007-.007h-.013l-.096.061-.082.069-.205.116.02.068.09-.007.081-.013.028-.007.013.007.02.014.014.013.007.02v.028l-.007.02Zm-.034.766.082-.028.048-.013.055-.035.04-.034.015-.027v-.034l-.02-.15-.008-.015-.014-.013-.013-.007-.014.055-.02.054-.083.117-.02.027-.034.014-.02.007h-.035l-.027-.007-.02-.014-.008-.014v-.068h-.007l-.061.089-.048.102v.014l.007.02.014.008.02.006.103-.027.068-.027Zm-.417-.5.007.103v.11l-.014.095-.007.103-.02.095-.035.103-.02.048-.027.048-.041.027-.007.007-.014-.007-.04-.034-.028-.055.04-.082.035-.089.027-.089.02-.088.014-.09.014-.225.007-.226.027.007.02.02.014.028.014.089.014.102ZM39.104 54.783l.023.02.031.016.015-.003.009-.005.042-.052.016-.031.015-.031.012-.097-.033-.008-.037.004-.02-.005-.033.097-.04.095Zm-.287.306-.026-.007-.025-.014-.023-.02-.008-.023-.005-.059.044-.087.064-.053.117-.118-.04-.088-.047-.09.093-.004.096-.017.079-.029.056-.105.052-.113-.05-.028-.035-.024-.04-.038-.035-.052-.01-.017v-.028l.335.047.026.007.017.018.01.017-.013.046-.071.109-.06.118.059.016.06.016-.027.127-.031.14.006.003.019.012.014.025.001.021-.004.042-.01.04-.002.034-.008.027-.016.01-.212.049-.208.064-.04.018-.052.007-.05.001Zm-.333-.288-.045.01-.047.015-.15.06-.082.013-.262.029.036.073.028.029.038.017.038.017.033.01.035.001.041.004.038-.01.027-.022.04-.039.041-.024.048-.023.054-.014.051-.007.055.008-.139.175-.137.168-.028.05-.027.049-.015.11.003.042.009.045.024.042.026.035.032.038.072-.137.068-.145.06-.146.082-.226.09-.231-.086-.023-.051.007Zm.883.272-.048-.005-.052.007-.045.01-.04.017-.042.024-.089.068-.1.058.04.032.033.038.029.05.008.023v.028l-.014.025-.046.066.023.02.012.032.013.031.004.093.034.03.038.018.044.019.009-.005.015-.003.023-.036.013-.046.001-.085-.012-.032-.057-.107.002-.006.01-.04.016-.031.024-.036.029-.028.035-.026.04-.018.025-.014.02-.023.008-.026.008-.034.007-.026-.006-.03-.012-.032Zm-.518.4-.003-.043-.002-.044-.01-.016-.012-.01-.017-.012-.016.003-.016.01-.01.01-.054.15-.026.07.019.034.028.028.02.006.021-.002.015-.003.019-.016.016-.01.012-.018.014-.024v-.029l.002-.084Zm-.443-1.096-.011-.116.046.012.048.006.043-.003.03-.006.025.014.024.013.015.026.01.044-.116.14-.02.023-.034.019-.038.01-.037.005-.04-.01.03-.056.016-.06.009-.061ZM41.227 55.994l-.018-.04-.023-.02-.032-.037-.048-.034-.043-.026-.053-.014-.046-.013-.05-.02.033.058.027.057.017.068.016.047.023.049.03.043.04.04.017.011.02.005.02.006.025-.015.02-.023.016-.031.01-.04.003-.034-.004-.037Zm-.156-.608-.077.022-.053.014-.056-.001-.053-.014-.196.386-.036.054-.044.06-.05.057-.056.049-.06.04-.054.042-.072.03-.064.026-.075.015-.064.004-.123-.019-.013-.003-.008-.023.003-.014.074-.008.066-.01.062-.02.119-.074.084-.077.071-.08.066-.088.157-.241.004-.014-.012-.01-.015.003-.035.026-.032.013-.032.013-.076-.006-.06-.016-.055-.03-.048-.034-.045-.04-.038-.046-.003-.015.019-.016.051-.007.048.006.075.012h.078l.071-.002.213-.028.072-.165.058-.161.017-.066.012-.068.004-.07-.002-.071-.01-.067-.056-.135-.008-.023-.006-.03.001-.007.009-.005.06.016.096.061.04.04.035.051.029.05.004.037.005.037-.004.041-.01.033-.017.038-.087.196-.07.208.024.014.053.014.024-.008.082-.042.075-.044.042-.024.048-.022.014.004.02.005.01.017.002.014-.019.045-.019.044-.03.035-.036.026-.04.017-.078.029ZM42.362 56.958l-.012-.037-.03-.015-.037-.003-.028.008-.083.058.012.021.022.019.024.012.028.007.036-.012.037-.012.022-.027.009-.019Zm.594-.066-.01.034-.018.021-.018.021-.031.015-.058.01-.013-.007-.06-.046-.14-.056-.028-.007-.034.006-.027.009-.013.024-.022.028-.006.027-.01.034-.015.046-.028.04-.024.033-.071.048-.04.003-.033-.01-.199-.093-.024-.012-.018-.025-.01-.028-.005-.033.012-.025.034-.051.04-.049.05-.036.049-.021.052-.028.061-.014.059-.01.042-.008.115-.225.01-.034v-.03l-.006-.034-.009-.028-.018-.024-.027-.022-.025-.013-.033-.009-.019-.01-.018-.009-.012-.021.003-.022.01-.018.009-.018.015-.015.019-.006.036.003.04.013.037.018.079.056.024.013.021.018.015.03.01.028v.03l-.02.053-.049.067-.047.137-.003.021.012.022.024.012.186.057.064.025.113.065v.03Zm.665-.973-.018-.01-.113-.05-.116-.043-.122-.032-.131-.028-.395.006-.404.01-.04.002-.036-.019-.101-.028-.055.003-.016.015-.006.027-.003.037.02.034.013.036.03.031.037.019.046.016.049.01.049-.007.049-.005.049-.021.281-.041.294-.035.07.013.08.025.021.019v.015l-.01.049-.027.04-.043.024-.05.02.058.022.058.007.126-.005.122-.015.114-.026.12-.039.009-.018.009-.018-.006-.019-.012-.021Zm.228-.283-.02-.05-.025-.042-.033-.04-.037-.034-.033-.025-.046-.016-.003.037-.01.034-.018.036-.028.024-.028.025-.027.009h-.03l-.028-.007-.03-.015.002.009.08.055.042.022.049.01.043.006.052.004.04-.003.04-.003.036-.012.012-.009v-.015Zm-1.276-.297.064.086.042.037.04.027.042.022.062-.045.05-.052.046-.06-.302-.1-.022-.004-.015.015-.01.018v.031l.003.025Zm.51.037-.005-.125.39.153.016.015-.064.02-.068.013h-.06l-.062-.001-.061-.016-.03-.016-.055-.043ZM51.066 72.252c0 .377 0 .688-.02.853-.015.114-.035.2-.114.217a.605.605 0 0 1-.117.015c-.024 0-.032.012-.032.024 0 .023.02.031.063.031.059 0 .15-.007.228-.007.083-.004.15-.004.157-.004.016 0 .126.004.24.011.114.004.24.012.283.012.673 0 1.003-.436 1.003-.857 0-.46-.39-.74-.68-.83.185-.192.37-.385.37-.708 0-.196-.142-.59-.787-.59-.18 0-.334.012-.429.012-.02 0-.267-.011-.444-.011-.043 0-.063.007-.063.031 0 .016.016.024.032.024.035 0 .102.004.133.011.13.028.161.09.17.224.007.126.007.237.007.85v.692Zm.315-1.66c0-.023.012-.035.047-.043a.88.88 0 0 1 .189-.02c.385 0 .53.35.53.677a.608.608 0 0 1-.141.397c-.083.095-.138.102-.358.102-.145 0-.216-.011-.24-.015-.02-.008-.027-.016-.027-.044v-1.053Zm0 1.247c0-.02.008-.027.023-.027.06 0 .256 0 .307.008.095.011.193.023.327.114.302.208.38.55.38.786 0 .444-.341.558-.554.558a.925.925 0 0 1-.346-.059c-.121-.059-.121-.114-.133-.306-.004-.06-.004-.547-.004-.85v-.224ZM53.614 72.421c0 .323 0 .586-.02.724-.015.098-.023.165-.09.177-.031.004-.075.015-.106.015-.02 0-.028.016-.028.028 0 .02.02.027.056.027a3.9 3.9 0 0 0 .2-.007c.075-.004.142-.004.15-.004.05 0 .141 0 .287.007.141.004.342.012.601.012.134 0 .17 0 .193-.086.02-.071.047-.3.047-.323 0-.023-.004-.05-.024-.05s-.027.011-.035.05c-.02.134-.067.193-.157.232-.09.036-.256.036-.346.036-.342 0-.405-.043-.413-.268-.004-.067 0-.456 0-.57v-.28c0-.01.004-.023.023-.023.06 0 .43.004.523.016.134.016.166.055.177.102.016.044.016.079.016.11 0 .02.008.032.024.032.023 0 .031-.035.031-.063 0-.024.008-.15.016-.216.008-.11.028-.166.028-.185 0-.02-.008-.028-.02-.028s-.028.02-.051.044c-.036.035-.087.039-.17.047-.078.008-.534.008-.578.008-.02 0-.02-.012-.02-.036v-.908c0-.024.005-.035.02-.035.04 0 .441.003.5.011.189.024.224.047.248.103.015.039.02.094.02.117 0 .028.007.044.027.044.016 0 .027-.02.031-.036.008-.039.016-.188.02-.22.008-.094.028-.134.028-.157 0-.016-.004-.032-.016-.032-.016 0-.032.012-.047.016-.028.004-.09.016-.158.02-.078.004-.802 0-.825 0-.02 0-.244-.008-.402-.008-.039 0-.055.008-.055.027 0 .012.016.028.028.028.031 0 .09.004.118.008.114.016.134.07.141.185.008.106.008.2.008.72v.59ZM56.097 71.831c0-.519 0-.613.004-.72.008-.117.028-.165.122-.184.04-.008.063-.008.086-.008.012 0 .028-.016.028-.028 0-.02-.016-.027-.055-.027-.106 0-.33.008-.346.008-.02 0-.236-.008-.35-.008-.04 0-.055.008-.055.027 0 .012.012.028.027.028.024 0 .067.004.106.012.075.016.103.067.11.18.008.107.008.201.008.72v.59c0 .323-.003.586-.02.724-.011.098-.023.16-.09.177a.492.492 0 0 1-.106.015c-.02 0-.027.016-.027.028 0 .02.02.027.055.027.106 0 .322-.011.342-.011.016 0 .24.011.432.011.04 0 .055-.011.055-.027 0-.012-.008-.028-.027-.028a1.4 1.4 0 0 1-.157-.015c-.103-.016-.114-.079-.126-.177-.016-.138-.016-.401-.016-.724v-.59ZM57.628 71.831c0-.519 0-.613.004-.72.008-.117.028-.165.122-.184.04-.008.063-.008.086-.008.012 0 .028-.016.028-.028 0-.02-.016-.027-.055-.027-.106 0-.323.008-.338.008-.02 0-.244-.008-.401-.008-.04 0-.055.008-.055.027 0 .012.015.028.027.028.032 0 .09.004.118.008.114.016.134.07.142.185.008.106.008.2.008.72v.967c0 .86-.107 1.034-.33 1.258a.757.757 0 0 1-.123.09c-.031.02-.043.036-.043.055 0 .016.016.02.024.02.011 0 .02-.004.023-.004.036-.02.095-.055.142-.086.279-.185.432-.342.507-.511.102-.236.114-.445.114-.987v-.803ZM59.08 71.831c0-.519 0-.613.004-.72.008-.117.028-.165.122-.184.04-.008.063-.008.087-.008.011 0 .027-.016.027-.028 0-.02-.016-.027-.055-.027-.106 0-.33.008-.346.008-.02 0-.236-.008-.35-.008-.04 0-.055.008-.055.027 0 .012.012.028.028.028.023 0 .066.004.106.012.074.016.102.067.11.18.008.107.008.201.008.72v.59c0 .323-.004.586-.02.724-.012.098-.024.16-.09.177a.493.493 0 0 1-.107.015c-.02 0-.027.016-.027.028 0 .02.02.027.055.027.106 0 .322-.011.342-.011.016 0 .24.011.433.011.039 0 .055-.011.055-.027 0-.012-.008-.028-.028-.028a1.4 1.4 0 0 1-.157-.015c-.102-.016-.114-.079-.126-.177-.016-.138-.016-.401-.016-.724v-.59ZM60.323 71.36c.106.117.495.526.896.947.366.382.866.873.901.904.193.177.228.205.263.205.024 0 .028-.02.028-.24l.008-1.958c0-.2.008-.268.122-.291.039-.008.067-.008.082-.008.024 0 .04-.02.04-.031 0-.02-.028-.024-.063-.024-.142 0-.256.008-.295.008-.04 0-.205-.008-.362-.008-.04 0-.067.004-.067.023 0 .012.004.032.028.032.027 0 .106.004.169.016.106.02.126.094.13.31l.035 1.675c-.106-.11-.476-.507-.818-.86-.535-.551-1.038-1.086-1.093-1.141-.036-.035-.095-.102-.134-.102-.027 0-.047.035-.047.169V72.9c0 .303-.012.393-.098.417a.546.546 0 0 1-.142.02.027.027 0 0 0-.027.027c0 .023.02.027.055.027.157 0 .302-.011.334-.011.031 0 .169.011.365.011.04 0 .063-.007.063-.027a.027.027 0 0 0-.027-.028.825.825 0 0 1-.173-.02c-.095-.023-.126-.105-.134-.38l-.04-1.578ZM65.07 73.117c0 .063-.028.079-.072.102-.09.052-.251.063-.373.063-.319 0-.61-.094-.885-.35a1.33 1.33 0 0 1-.366-.924c0-.39.142-.688.343-.841.263-.2.515-.217.723-.217.448 0 .712.134.798.26a.495.495 0 0 1 .079.22c0 .032.004.051.024.051.023 0 .039-.015.039-.07 0-.335.02-.425.02-.472 0-.016-.008-.032-.044-.032-.086 0-.208-.02-.279-.035a2.891 2.891 0 0 0-.53-.055c-.264 0-.61.023-.921.212-.307.185-.578.562-.578 1.097 0 .417.2.775.413.952.385.326.877.358 1.14.358.2 0 .515-.036.736-.15.043-.023.047-.027.047-.18v-.374c0-.142 0-.24.004-.346.008-.118.035-.17.13-.185a.39.39 0 0 1 .086-.008c.012 0 .028-.016.028-.028 0-.023-.016-.027-.056-.027-.106 0-.322.008-.338.008-.02 0-.251-.008-.409-.008-.039 0-.055.004-.055.027 0 .012.016.028.028.028.031 0 .09.004.118.008.141.027.15.067.15.338v.578ZM67.606 72.252c0 .377 0 .688-.02.853-.016.114-.035.2-.114.217a.604.604 0 0 1-.118.015c-.024 0-.031.012-.031.024 0 .024.02.031.062.031.118 0 .366-.011.386-.011.02 0 .267.011.483.011.044 0 .063-.011.063-.031 0-.012-.007-.024-.031-.024-.035 0-.122-.008-.177-.015-.118-.016-.142-.103-.153-.217a9.578 9.578 0 0 1-.02-.853v-.334c0-.028.008-.036.027-.036.067 0 .496 0 .594.012.122.016.185.087.205.142.016.047.02.102.023.141 0 .02.008.036.028.036.027 0 .027-.04.027-.075 0-.028.008-.185.016-.264.012-.13.032-.196.032-.22 0-.02-.004-.031-.02-.031s-.028.02-.043.04c-.036.05-.087.062-.181.07-.055.004-.11.004-.177.004l-.504.004c-.023 0-.027-.012-.027-.036V70.62c0-.031.012-.043.035-.043l.606.012c.153.004.244.074.267.126a.424.424 0 0 1 .036.149c0 .027.008.047.027.047.02 0 .028-.023.032-.043.008-.047.015-.22.02-.26.011-.11.03-.157.03-.184 0-.02-.007-.036-.023-.036-.015 0-.031.016-.055.024-.035.011-.098.011-.173.015-.09.004-.889.008-.967.004l-.161-.007c-.087-.004-.193-.004-.284-.004-.043 0-.063.007-.063.031 0 .016.016.024.032.024.035 0 .102.004.134.011.13.028.16.09.169.225.008.125.008.236.008.849v.692ZM69.45 72.122c0 .602.405 1.314 1.353 1.314.833 0 1.388-.618 1.388-1.365 0-.778-.59-1.254-1.369-1.254-.955 0-1.372.767-1.372 1.305Zm.358-.09c0-.728.417-1.09.995-1.09.546 0 1.034.421 1.034 1.224 0 .967-.625 1.132-.936 1.132-.625 0-1.093-.488-1.093-1.266ZM72.914 72.421c0 .323 0 .586-.02.724-.015.098-.023.16-.09.177a.493.493 0 0 1-.106.015c-.02 0-.027.016-.027.028 0 .02.02.027.054.027.107 0 .339-.011.343-.011.015 0 .236.011.424.011.04 0 .055-.011.055-.027 0-.012-.004-.028-.027-.028-.032 0-.106-.008-.153-.015-.107-.016-.126-.079-.138-.177-.016-.138-.016-.397-.016-.72v-.079c0-.02.008-.027.024-.027l.44.008c.024 0 .032.004.047.02.075.09.228.306.374.487.197.252.322.413.472.492.086.047.173.066.37.066h.216c.063 0 .082-.007.082-.027 0-.012-.011-.028-.031-.028s-.055 0-.122-.011c-.087-.012-.2-.044-.385-.232-.201-.209-.44-.512-.724-.866.323-.275.425-.515.425-.762a.586.586 0 0 0-.24-.457c-.181-.125-.425-.145-.645-.145-.106 0-.397.008-.433.008-.02 0-.251-.008-.409-.008-.039 0-.055.008-.055.027 0 .012.016.028.028.028.031 0 .09.004.118.008.114.016.134.07.141.185.008.106.008.2.008.72v.59Zm.3-1.38c0-.02.011-.032.027-.04.035-.007.145-.02.247-.02.37 0 .598.24.598.658 0 .255-.09.432-.208.51a.449.449 0 0 1-.26.06c-.153 0-.33-.024-.381-.051-.016-.012-.024-.024-.024-.044v-1.073ZM75.557 72.421c0 .323 0 .586-.02.724-.016.098-.024.165-.09.177-.032.004-.075.015-.106.015-.02 0-.028.016-.028.028 0 .02.02.027.055.027a3.9 3.9 0 0 0 .2-.007c.075-.004.142-.004.15-.004.051 0 .142 0 .287.007.142.004.342.012.602.012.133 0 .169 0 .192-.086.02-.071.048-.3.048-.323 0-.023-.004-.05-.024-.05s-.027.011-.035.05c-.02.134-.067.193-.158.232-.09.036-.255.036-.346.036-.342 0-.405-.043-.413-.268-.004-.067 0-.456 0-.57v-.28c0-.01.004-.023.024-.023.059 0 .429.004.523.016.134.016.165.055.177.102.016.044.016.079.016.11 0 .02.007.032.023.032.024 0 .032-.035.032-.063 0-.024.008-.15.015-.216.008-.11.028-.166.028-.185 0-.02-.008-.028-.02-.028-.011 0-.027.02-.05.044-.036.035-.087.039-.17.047-.079.008-.535.008-.578.008-.02 0-.02-.012-.02-.036v-.908c0-.024.004-.035.02-.035.04 0 .44.003.5.011.188.024.224.047.247.103.016.039.02.094.02.117 0 .028.008.044.027.044.016 0 .028-.02.032-.036.008-.039.016-.188.02-.22.007-.094.027-.134.027-.157 0-.016-.004-.032-.016-.032-.015 0-.031.012-.047.016-.027.004-.09.016-.157.02-.079.004-.802 0-.826 0-.02 0-.244-.008-.401-.008-.04 0-.055.008-.055.027 0 .012.016.028.027.028.032 0 .09.004.118.008.114.016.134.07.142.185.008.106.008.2.008.72v.59ZM78.038 71.831c0-.519 0-.613.004-.72.008-.117.028-.165.122-.184.04-.008.063-.008.086-.008.012 0 .028-.016.028-.028 0-.02-.016-.027-.055-.027-.106 0-.33.008-.346.008-.02 0-.236-.008-.35-.008-.04 0-.055.008-.055.027 0 .012.012.028.027.028.024 0 .067.004.107.012.074.016.102.067.11.18.008.107.008.201.008.72v.59c0 .323-.004.586-.02.724-.012.098-.024.16-.09.177a.493.493 0 0 1-.107.015c-.02 0-.027.016-.027.028 0 .02.02.027.055.027.106 0 .322-.011.342-.011.016 0 .24.011.432.011.04 0 .056-.011.056-.027 0-.012-.008-.028-.028-.028a1.4 1.4 0 0 1-.157-.015c-.103-.016-.114-.079-.126-.177-.016-.138-.016-.401-.016-.724v-.59ZM80.83 73.117c0 .063-.027.079-.07.102-.091.052-.252.063-.374.063-.319 0-.61-.094-.885-.35a1.33 1.33 0 0 1-.366-.924c0-.39.142-.688.342-.841.264-.2.516-.217.724-.217.448 0 .712.134.798.26a.497.497 0 0 1 .079.22c0 .032.004.051.023.051.024 0 .04-.015.04-.07 0-.335.02-.425.02-.472 0-.016-.008-.032-.044-.032-.086 0-.208-.02-.279-.035a2.891 2.891 0 0 0-.53-.055c-.264 0-.61.023-.921.212-.307.185-.578.562-.578 1.097 0 .417.2.775.413.952.385.326.877.358 1.14.358.2 0 .515-.036.736-.15.043-.023.047-.027.047-.18v-.374c0-.142 0-.24.004-.346.007-.118.035-.17.13-.185a.39.39 0 0 1 .086-.008c.012 0 .027-.016.027-.028 0-.023-.015-.027-.055-.027-.106 0-.322.008-.338.008-.02 0-.251-.008-.409-.008-.04 0-.055.004-.055.027 0 .012.016.028.028.028.031 0 .09.004.118.008.141.027.15.067.15.338v.578ZM82.293 71.36c.106.117.495.526.896.947.366.382.866.873.901.904.193.177.228.205.263.205.024 0 .028-.02.028-.24l.008-1.958c0-.2.008-.268.122-.291.04-.008.067-.008.082-.008.024 0 .04-.02.04-.031 0-.02-.028-.024-.063-.024-.142 0-.256.008-.295.008-.04 0-.205-.008-.362-.008-.04 0-.067.004-.067.023 0 .012.004.032.028.032.027 0 .106.004.169.016.106.02.126.094.13.31l.035 1.675c-.106-.11-.476-.507-.818-.86-.535-.551-1.038-1.086-1.093-1.141-.036-.035-.094-.102-.134-.102-.027 0-.047.035-.047.169V72.9c0 .303-.012.393-.098.417a.546.546 0 0 1-.142.02.027.027 0 0 0-.028.027c0 .023.02.027.056.027.157 0 .302-.011.334-.011.031 0 .169.011.366.011.039 0 .063-.007.063-.027a.027.027 0 0 0-.028-.028.825.825 0 0 1-.173-.02c-.094-.023-.126-.105-.134-.38l-.04-1.578ZM86.917 73.448c.213 0 .425-.048.594-.166a.815.815 0 0 0 .334-.653c0-.314-.11-.558-.574-.924l-.11-.086c-.377-.295-.48-.437-.48-.66 0-.288.213-.457.484-.457.362 0 .468.165.492.209.023.043.047.149.05.196.005.032.009.051.032.051.02 0 .028-.027.028-.09 0-.268.016-.397.016-.417 0-.02-.008-.027-.04-.027a.64.64 0 0 1-.137-.02 1.524 1.524 0 0 0-.366-.04c-.5 0-.814.288-.814.708 0 .268.094.511.511.854l.177.145c.338.28.452.437.452.708 0 .252-.185.523-.562.523-.264 0-.523-.11-.582-.401-.012-.055-.012-.11-.012-.146 0-.031-.004-.043-.027-.043-.02 0-.028.02-.032.063-.004.063-.02.22-.02.417 0 .106.004.122.06.15.16.078.342.106.526.106ZM89.548 71.017l.433.008c.33.008.405.083.416.185l.004.035c.004.047.012.06.028.06s.031-.016.031-.044c0-.04.012-.28.012-.381 0-.02 0-.04-.015-.04-.016 0-.048.008-.099.016a1.731 1.731 0 0 1-.248.016h-1.305c-.04 0-.173-.004-.271-.016-.095-.012-.13-.04-.154-.04-.012 0-.027.044-.035.064-.004.027-.075.326-.075.361 0 .02.016.028.024.028.015 0 .027-.004.035-.032.012-.023.016-.047.055-.106.051-.078.134-.102.35-.106l.5-.008v1.404c0 .323 0 .586-.016.724-.012.098-.032.165-.103.18a.463.463 0 0 1-.102.016c-.02 0-.027.012-.027.024 0 .02.015.027.055.027.102 0 .342-.011.358-.011.02 0 .24.011.428.011.04 0 .055-.011.055-.027 0-.012-.004-.028-.027-.028a1.32 1.32 0 0 1-.157-.015c-.107-.016-.122-.079-.134-.177-.016-.138-.016-.401-.016-.724v-1.404ZM91.015 72.323c0 .487.134.72.303.877.243.228.605.236.72.236.204 0 .471-.028.723-.244.275-.236.322-.641.322-1.003v-.358c0-.519-.004-.613.004-.72.008-.11.028-.165.122-.184.043-.008.063-.008.087-.008.015 0 .027-.016.027-.028 0-.02-.016-.027-.055-.027-.102 0-.267.008-.29.008-.02 0-.221-.008-.374-.008-.04 0-.055.008-.055.027 0 .012.011.028.027.028.032 0 .09.004.118.008.114.016.134.078.138.185.004.106.008.2.008.72v.42c0 .342-.036.617-.197.81a.71.71 0 0 1-.535.236c-.197 0-.346-.028-.515-.18-.15-.134-.256-.335-.256-.819v-.468c0-.519 0-.613.008-.72.008-.11.028-.168.118-.184.043-.008.063-.008.087-.008.015 0 .031-.016.031-.028 0-.02-.02-.027-.059-.027-.102 0-.318.008-.35.008-.031 0-.24-.008-.397-.008-.04 0-.055.008-.055.027 0 .012.016.028.028.028.03 0 .09.004.117.008.115.016.134.078.142.185.008.106.008.2.008.72v.49ZM94.07 72.421c0 .323 0 .586-.02.724-.015.098-.023.16-.09.177a.493.493 0 0 1-.106.015c-.02 0-.028.016-.028.028 0 .02.02.027.056.027.055 0 .137-.004.208-.007.07 0 .134-.004.141-.004.016 0 .134.007.284.02.15.007.334.019.483.019.59 0 .9-.232 1.05-.385.193-.197.374-.52.374-.94 0-.397-.165-.677-.338-.85-.41-.413-1.042-.381-1.388-.381-.205 0-.425.008-.465.008-.02 0-.243-.008-.4-.008-.04 0-.056.008-.056.027 0 .012.016.028.028.028.031 0 .09.004.118.008.114.016.134.07.141.185.008.106.008.2.008.72v.59Zm.315-1.345c0-.04.012-.055.043-.067a.922.922 0 0 1 .209-.023c.412 0 .794.043 1.12.373.142.142.327.413.327.838 0 .307-.09.625-.272.794a1.16 1.16 0 0 1-.81.303c-.409 0-.53-.07-.574-.134-.027-.035-.035-.157-.04-.24-.003-.062-.003-.373-.003-.727v-1.117ZM97.535 71.831c0-.519 0-.613.004-.72.007-.117.027-.165.121-.184.04-.008.064-.008.087-.008.012 0 .028-.016.028-.028 0-.02-.016-.027-.056-.027-.106 0-.33.008-.345.008-.02 0-.236-.008-.35-.008-.04 0-.056.008-.056.027 0 .012.012.028.028.028.024 0 .067.004.106.012.075.016.102.067.11.18.008.107.008.201.008.72v.59c0 .323-.004.586-.02.724-.011.098-.023.16-.09.177a.492.492 0 0 1-.106.015c-.02 0-.028.016-.028.028 0 .02.02.027.055.027.106 0 .323-.011.343-.011.015 0 .24.011.432.011.04 0 .055-.011.055-.027 0-.012-.008-.028-.027-.028a1.4 1.4 0 0 1-.158-.015c-.102-.016-.114-.079-.126-.177-.015-.138-.015-.401-.015-.724v-.59ZM98.671 72.421c0 .323 0 .586-.02.724-.015.098-.023.165-.09.177-.031.004-.075.015-.106.015-.02 0-.028.016-.028.028 0 .02.02.027.055.027a3.9 3.9 0 0 0 .201-.007c.075-.004.142-.004.15-.004.05 0 .141 0 .287.007.141.004.342.012.601.012.134 0 .17 0 .193-.086.02-.071.047-.3.047-.323 0-.023-.004-.05-.024-.05s-.027.011-.035.05c-.02.134-.067.193-.157.232-.09.036-.256.036-.346.036-.342 0-.405-.043-.413-.268-.004-.067 0-.456 0-.57v-.28c0-.01.004-.023.023-.023.06 0 .429.004.523.016.134.016.166.055.177.102.016.044.016.079.016.11 0 .02.008.032.024.032.023 0 .031-.035.031-.063 0-.024.008-.15.016-.216.008-.11.027-.166.027-.185 0-.02-.007-.028-.02-.028-.011 0-.027.02-.05.044-.036.035-.087.039-.17.047-.078.008-.534.008-.578.008-.02 0-.02-.012-.02-.036v-.908c0-.024.005-.035.02-.035.04 0 .44.003.5.011.189.024.224.047.248.103.015.039.02.094.02.117 0 .028.007.044.027.044.016 0 .027-.02.031-.036.008-.039.016-.188.02-.22.008-.094.027-.134.027-.157 0-.016-.004-.032-.015-.032-.016 0-.032.012-.047.016-.028.004-.09.016-.158.02-.078.004-.802 0-.826 0-.02 0-.243-.008-.4-.008-.04 0-.056.008-.056.027 0 .012.016.028.028.028.031 0 .09.004.118.008.114.016.133.07.141.185.008.106.008.2.008.72v.59ZM101.05 73.436c.189 0 .405-.024.551-.118a.65.65 0 0 0 .322-.57c0-.288-.145-.52-.566-.807l-.098-.067c-.342-.231-.449-.353-.449-.566 0-.236.209-.362.46-.362.311 0 .425.126.449.166a.646.646 0 0 1 .051.165c.004.027.008.043.031.043.024 0 .028-.023.028-.075 0-.228.016-.338.016-.354 0-.02-.008-.023-.036-.023-.027 0-.055 0-.122-.016-.082-.02-.22-.04-.358-.04-.456 0-.766.237-.766.63 0 .232.122.437.495.716l.157.118c.307.228.437.342.437.582 0 .251-.177.444-.519.444-.232 0-.492-.087-.547-.33-.012-.047-.012-.095-.012-.122 0-.028-.011-.04-.031-.04s-.028.02-.028.055c-.003.056-.019.19-.019.354 0 .09.004.103.051.126.141.067.342.09.503.09ZM103.854 72.134c0 .574.149.85.342 1.034.279.264.676.28.81.28.232 0 .527-.04.81-.291.315-.28.362-.752.362-1.176v-.421c0-.614 0-.724.008-.85.008-.137.039-.2.145-.224.048-.008.071-.011.099-.011.015 0 .031-.008.031-.024 0-.024-.019-.031-.063-.031-.118 0-.303.011-.33.011-.024 0-.24-.011-.417-.011-.043 0-.063.007-.063.031 0 .016.016.024.032.024.035 0 .102.004.133.011.13.028.162.09.169.224.008.126.008.237.008.85v.492c0 .404-.047.739-.228.963a.824.824 0 0 1-.617.283c-.224 0-.401-.035-.594-.216-.169-.161-.295-.405-.295-.971v-.551c0-.614 0-.724.008-.85.008-.137.039-.208.145-.224.048-.008.071-.011.099-.011.016 0 .031-.008.031-.024 0-.024-.019-.031-.063-.031-.118 0-.354.011-.389.011-.035 0-.275-.011-.452-.011-.043 0-.063.007-.063.031 0 .016.016.024.031.024.036 0 .103.004.134.011.13.028.161.09.169.224.008.126.008.237.008.85v.574ZM107.244 71.36c.106.117.495.526.896.947.366.382.865.873.901.904.192.177.228.205.263.205.024 0 .028-.02.028-.24l.008-1.958c0-.2.007-.268.122-.291.039-.008.066-.008.082-.008.024 0 .039-.02.039-.031 0-.02-.027-.024-.062-.024-.142 0-.256.008-.295.008-.04 0-.205-.008-.362-.008-.04 0-.067.004-.067.023 0 .012.004.032.027.032.028 0 .107.004.17.016.106.02.125.094.129.31l.036 1.675c-.106-.11-.476-.507-.818-.86-.535-.551-1.038-1.086-1.093-1.141-.036-.035-.095-.102-.134-.102-.028 0-.047.035-.047.169V72.9c0 .303-.012.393-.099.417a.545.545 0 0 1-.141.02.027.027 0 0 0-.028.027c0 .023.02.027.055.027.158 0 .303-.011.335-.011.031 0 .169.011.365.011.04 0 .063-.007.063-.027a.027.027 0 0 0-.027-.028.822.822 0 0 1-.173-.02c-.095-.023-.126-.105-.134-.38l-.039-1.578ZM110.653 71.831c0-.519 0-.613.004-.72.008-.117.027-.165.122-.184.039-.008.063-.008.086-.008.012 0 .028-.016.028-.028 0-.02-.016-.027-.055-.027-.106 0-.33.008-.346.008-.02 0-.236-.008-.35-.008-.04 0-.055.008-.055.027 0 .012.012.028.027.028.024 0 .067.004.106.012.075.016.103.067.111.18.007.107.007.201.007.72v.59c0 .323-.004.586-.019.724-.012.098-.024.16-.091.177a.482.482 0 0 1-.106.015c-.02 0-.027.016-.027.028 0 .02.019.027.055.027.106 0 .322-.011.342-.011.016 0 .24.011.432.011.04 0 .055-.011.055-.027 0-.012-.007-.028-.027-.028-.032 0-.106-.008-.157-.015-.103-.016-.114-.079-.126-.177-.016-.138-.016-.401-.016-.724v-.59ZM111.973 71.273c-.051-.134-.094-.236-.094-.28 0-.023.004-.043.039-.058a.425.425 0 0 1 .126-.016c.023 0 .035-.016.035-.031 0-.016-.031-.024-.094-.024-.134 0-.287.008-.323.008-.043 0-.239-.008-.405-.008-.055 0-.09.004-.09.023 0 .012.008.032.027.032.02 0 .079 0 .134.012.114.027.161.063.24.251l.849 2.05c.067.16.091.204.13.204.036 0 .055-.051.15-.252.078-.165.232-.527.444-1.014.177-.41.346-.81.385-.905.091-.228.146-.275.193-.307.063-.039.142-.039.165-.039.028 0 .04-.016.04-.031 0-.016-.02-.024-.056-.024-.102 0-.251.008-.271.008-.043 0-.2-.008-.338-.008-.055 0-.079.008-.079.027 0 .016.02.028.04.028.039 0 .078 0 .118.012.035.012.047.043.047.07 0 .028-.016.075-.032.126-.074.24-.527 1.38-.727 1.829l-.653-1.683ZM114.433 72.421c0 .323 0 .586-.019.724-.016.098-.024.165-.091.177-.031.004-.074.015-.106.015-.02 0-.027.016-.027.028 0 .02.019.027.055.027.055 0 .133-.004.2-.007.075-.004.142-.004.15-.004.051 0 .141 0 .287.007.141.004.342.012.601.012.134 0 .169 0 .193-.086.02-.071.047-.3.047-.323 0-.023-.004-.05-.023-.05-.02 0-.028.011-.036.05-.019.134-.067.193-.157.232-.091.036-.256.036-.346.036-.342 0-.405-.043-.413-.268-.004-.067 0-.456 0-.57v-.28c0-.01.004-.023.024-.023.059 0 .428.004.523.016.133.016.165.055.177.102a.31.31 0 0 1 .015.11c0 .02.008.032.024.032.023 0 .031-.035.031-.063 0-.024.008-.15.016-.216.008-.11.028-.166.028-.185 0-.02-.008-.028-.02-.028s-.028.02-.051.044c-.036.035-.087.039-.169.047-.079.008-.535.008-.578.008-.02 0-.02-.012-.02-.036v-.908c0-.024.004-.035.02-.035.039 0 .44.003.499.011.189.024.224.047.248.103.016.039.019.094.019.117 0 .028.008.044.028.044.016 0 .028-.02.031-.036.008-.039.016-.188.02-.22.008-.094.028-.134.028-.157 0-.016-.004-.032-.016-.032-.016 0-.032.012-.047.016-.028.004-.091.016-.158.02-.078.004-.802 0-.825 0-.02 0-.244-.008-.401-.008-.04 0-.056.008-.056.027 0 .012.016.028.028.028.031 0 .09.004.118.008.114.016.134.07.142.185.007.106.007.2.007.72v.59ZM116.599 72.421c0 .323 0 .586-.02.724-.016.098-.023.16-.09.177a.5.5 0 0 1-.106.015c-.02 0-.028.016-.028.028 0 .02.02.027.055.027.106 0 .338-.011.342-.011.016 0 .236.011.425.011.039 0 .055-.011.055-.027 0-.012-.004-.028-.028-.028-.031 0-.106-.008-.153-.015-.106-.016-.126-.079-.138-.177-.015-.138-.015-.397-.015-.72v-.079c0-.02.008-.027.023-.027l.441.008c.023 0 .031.004.047.02.075.09.228.306.373.487.197.252.323.413.472.492.087.047.173.066.37.066h.216c.063 0 .083-.007.083-.027 0-.012-.012-.028-.032-.028-.019 0-.055 0-.122-.011-.086-.012-.2-.044-.385-.232-.2-.209-.44-.512-.723-.866.322-.275.424-.515.424-.762a.585.585 0 0 0-.24-.457c-.181-.125-.424-.145-.645-.145-.106 0-.397.008-.432.008-.02 0-.252-.008-.409-.008-.039 0-.055.008-.055.027 0 .012.016.028.027.028.032 0 .091.004.118.008.114.016.134.07.142.185.008.106.008.2.008.72v.59Zm.299-1.38c0-.02.011-.032.027-.04.036-.007.146-.02.248-.02.37 0 .598.24.598.658 0 .255-.091.432-.209.51a.447.447 0 0 1-.259.06c-.154 0-.331-.024-.382-.051-.015-.012-.023-.024-.023-.044v-1.073Z" clip-rule="evenodd"/><path fill="#262852" fill-rule="evenodd" d="M119.422 73.436c.189 0 .405-.024.551-.118a.653.653 0 0 0 .322-.57c0-.288-.145-.52-.566-.807l-.098-.067c-.343-.231-.449-.353-.449-.566 0-.236.209-.362.46-.362.311 0 .425.126.449.166a.646.646 0 0 1 .051.165c.004.027.008.043.031.043.024 0 .028-.023.028-.075 0-.228.015-.338.015-.354 0-.02-.007-.023-.035-.023-.027 0-.055 0-.122-.016-.082-.02-.22-.04-.358-.04-.456 0-.766.237-.766.63 0 .232.121.437.495.716l.157.118c.307.228.437.342.437.582 0 .251-.177.444-.519.444-.232 0-.492-.087-.547-.33-.012-.047-.012-.095-.012-.122 0-.028-.011-.04-.031-.04s-.028.02-.028.055c-.004.056-.019.19-.019.354 0 .09.004.103.051.126.141.067.342.09.503.09ZM121.506 71.831c0-.519 0-.613.004-.72.008-.117.028-.165.122-.184.04-.008.063-.008.087-.008.011 0 .027-.016.027-.028 0-.02-.016-.027-.055-.027-.106 0-.33.008-.346.008-.02 0-.236-.008-.35-.008-.039 0-.055.008-.055.027 0 .012.012.028.028.028.023 0 .066.004.106.012.075.016.102.067.11.18.008.107.008.201.008.72v.59c0 .323-.004.586-.02.724-.012.098-.023.16-.09.177a.5.5 0 0 1-.107.015c-.019 0-.027.016-.027.028 0 .02.02.027.055.027.106 0 .322-.011.342-.011.016 0 .24.011.433.011.039 0 .055-.011.055-.027 0-.012-.008-.028-.028-.028-.031 0-.106-.008-.157-.015-.102-.016-.114-.079-.126-.177-.016-.138-.016-.401-.016-.724v-.59ZM123.476 71.017l.433.008c.33.008.405.083.417.185l.004.035c.004.047.012.06.027.06.016 0 .032-.016.032-.044 0-.04.012-.28.012-.381 0-.02 0-.04-.016-.04s-.047.008-.098.016a1.746 1.746 0 0 1-.248.016h-1.306c-.039 0-.173-.004-.271-.016-.094-.012-.13-.04-.153-.04-.012 0-.028.044-.036.064-.004.027-.075.326-.075.361 0 .02.016.028.024.028.016 0 .028-.004.035-.032.012-.023.016-.047.056-.106.051-.078.133-.102.349-.106l.5-.008v1.404c0 .323 0 .586-.016.724-.012.098-.031.165-.102.18a.471.471 0 0 1-.102.016c-.02 0-.028.012-.028.024 0 .02.016.027.055.027.102 0 .342-.011.358-.011.02 0 .24.011.429.011.039 0 .055-.011.055-.027 0-.012-.004-.028-.028-.028-.031 0-.11-.008-.157-.015-.106-.016-.122-.079-.134-.177-.016-.138-.016-.401-.016-.724v-1.404ZM125.592 72.81c0 .055 0 .197-.008.335-.008.098-.031.16-.102.177a.465.465 0 0 1-.102.015c-.02 0-.028.016-.028.028 0 .02.016.027.055.027.102 0 .323-.011.338-.011.02 0 .244.011.437.011.035 0 .055-.011.055-.027 0-.012-.008-.028-.028-.028-.031 0-.11-.008-.157-.015-.102-.016-.126-.079-.134-.177-.011-.138-.011-.28-.011-.335v-.287c0-.11-.016-.216.043-.334.071-.141.558-.928.672-1.062a.603.603 0 0 1 .173-.165.355.355 0 0 1 .162-.043c.027 0 .043-.02.043-.035 0-.012-.02-.02-.043-.02-.067 0-.315.008-.339.008-.027 0-.149-.008-.239-.008-.036 0-.056.008-.056.02 0 .015.02.031.052.039.039.012.055.04.055.086a.359.359 0 0 1-.059.173c-.063.11-.496.826-.567.968l-.629-1.042c-.023-.044-.047-.083-.047-.13 0-.028.016-.043.043-.055.032-.012.055-.024.055-.035 0-.016-.008-.024-.047-.024-.134 0-.275.008-.299.008-.015 0-.275-.008-.342-.008-.031 0-.043.008-.043.023 0 .016.016.032.035.032a.34.34 0 0 1 .146.047.87.87 0 0 1 .228.244c.118.177.586.92.613.971.051.095.075.162.075.342v.287ZM84.193 61.351l-.124-.165-.165-.124-.207-.124-.702-.206-.372-.041-.743.082-.991.372-.29.248v-1.776l-.082-.868-.041-.124-.042-.082-.124-.041-.66-.042-.33.041-.207.042-.29.124-.288.165-.29.206-.454.455-.33.537-.29.537-.248.537h.29l1.156-1.198.661-.578.165-.124.083-.083h.413l.124.041.082.166.124.826.083.826v1.652l-.083.867-.124.785-.165.826v.413l.041.413.083.372.041.082.083.042.083.041.082-.041.248-.165.083-.166.33-1.57.041-.825v-1.198l.207-.29.248-.206.289-.206.248-.165.33-.083h.372l.165.083.165.123.165.33.042.249.041.289-.041.289-.455.95.29.124.62-.62.577-.702.124-.206.083-.207v-.454l-.041-.248-.083-.207Zm-5.99 1.074.042.207v.165l-.082.207-.083.165-.206.248-.248.206-.248.124-.29.124.125-.372.082-.785-.041-.165-.207-.165-.371-.041-.248 1.28-.29 1.24-.37 1.238-.166.166h-.165l-.083-.083-.207-.248-.082-.124v-.371l.413-1.075.496-.99.578-1.033-1.528.165v-1.115l.247-.248.413-.578.455-.95.124-.207h.04l.125.248.082.867.042.868.248-.042.289.042.248.082.247.124.207.207.165.206.165.248.083.165ZM55.198 55.982l-.29-.29-.206-.123-.702-.29h-.289l-.124.083-.124.124-.041.124v.166l.206 1.115.083.785-.041.413v4.79l.041 1.199.124 1.28.082.33.166.372.165.248.124.124.124.041.124.041h.123l.124-.041.124-.082.083-.124.041-.124.041-.413-.04-.455-.207-.99-.124-.992-.083-1.033-.041-.991.041-.991.041-1.033.124-.991.207-.992.124-.165.082-.248.083-.413-.083-.248-.082-.206Zm5.989 10.243-.041-.082-.62-.124-.578.082-.29.083-.288.124-.455.206-.165.042h-.165l-.166-.041-.123-.083-.124-.124-.083-.124-.041-.165-.041-.661v-1.115l-.042-.537.083-.166.124-.165.165-.165.206-.124.372-.165.413-.165.867-.62.331-.206.248-.248.206-.29.166-.454v-.123l-.042-.124-.082-.083-.248-.083-.124.042-.826.454-.785.496-.66-.124.123-1.776-.124-.372-.165-.372-.206-.33-.083-.041-.248-.083-.165.041-.124.041-.083.083-.041.124-.041.248v.248l.041.247v7.56l-.413.288-.206.29-.124.288.04.083.042.041.33.083h.372l.33-.041 1.488-.413 2.065-.992.124-.247-.041-.124-.083-.042Zm-7.848-1.57.041.042-.62 1.983-.123.578-.206.578-.083.165-.124.165-.165.124-.207.083-.206.041h-.207l-.206-.04-.165-.084-.29-.289-.123-.248-.166-.578.042-.578.247-.496.207-.578.165-.62.165-.578.083-.62.082-1.197.414.124.537.702.413 1.487.123.083h.083l.083-.083.04-.083.084-.082h.082ZM66.887 65.523l-.95.743-.124.042-.124.082-.083.124-.041.124v.165l.083.207.082.165.165.165.166.248.247.166h.042l.33-.414.207-.702.165-.702v-.165l-.083-.124-.082-.124Zm4.997-8.095.083-.083.041-.124-.04-.082-.208-.207-.247-.124-.166-.041h-.206l-.207.082-.206.124-.206.207-.124.248-.042.247-5.534 3.057-1.653.248-.413.578-.413.62-.082.289.082.124h.124l.578-.248 7.27-4.048 1.57-.867Zm-3.8.082.496.413.124.041h.165l.083-.04.082-.083.042-.166.041-.495-.041-.496-.165-.165-.166-.124-.206-.124-.207-.083h-.495l-.248.083-.413.248v.041l.413.496.495.454Zm4.048 1.528-.124-.04-.578.123-.29.124-2.312 1.198.537.413.826-.124.207.041.04.041.042.042-.041.082-.248.166-.29.289-.247.371-.083.207-.04.207.04.247.083.207.165.124.207.082.206.042h.207l.248-.042.247-.124.207-.123.165-.207.124-.206v-.083l-.041-.083-.248-.124-.248-.082h-.289l-.041-.124.041-.083 1.404-1.776.29-.372v-.247l-.166-.166Zm-4.295 4.007.082.124.124.082h.248l.124-.04.206-.29.166-.29.082-.33-.041-.289-.124-.165-.33-.248-.372-.206-.413-.207-.413-.082.372 1.321.289.62Zm3.387 2.106-.124-.124-.207-.123-.165-.042-.454-.041-.455.041-.082.083-.042.082v.207l.124.248.124.165.124.165.165.124.579.29h.289l.248-.166.04-.165.042-.372-.083-.206-.123-.166Zm-1.776 2.066.04.206v.165l-.04.207-.083.165-.248.33-.206.042-.33-.207-.29-.826-.991-.991h.206l.248.041.372.124.248-.165.041-.083V63.83l.083-.124.247-.083.166.041.082.042.124 1.57.083 1.61.248.33ZM115.047 63.912l-.166-.206-.165-.083-.248-.165-.33-.124-.289-.083h-.62l-.33-.04.289.288.248.29.206.371.166.248.206.248.248.206.289.166.124.04h.248l.124-.123.082-.165.042-.207v-.248l-.042-.206-.082-.207Zm-1.859-3.304-.413.248-.289.165-.331.083h-.33l-.537 2.56-.124.372-.165.413-.207.413-.247.372-.29.33-.247.33-.372.29-.331.248-.413.206-.371.124-.744.083h-.082l-.083-.124v-.083l.413-.165.372-.165.33-.207.578-.62.372-.577.289-.579.248-.62.537-1.651v-.083l-.083-.041-.082.041-.165.207-.331.247-.454.083h-.372l-.372-.083-.33-.123-.33-.166-.289-.206-.042-.083.083-.124.289-.124.289-.041.454-.041.455-.124.413-.124 1.198-.496.165-1.074.082-1.032v-.413l-.041-.413-.082-.413-.124-.413-.166-.372-.537-.702-.082-.124-.083-.166v-.04l.041-.042h.372l.661.206.289.166.289.247.248.248.165.413.042.248v.207l-.042.247-.206 1.28-.083 1.323.165.041h.331l.124-.083.413-.371.578-.579.248-.206h.206l.083.082.041.083-.082.578-.124.248-.165.207-.207.165-.413.289ZM122.44 66.432l-.165-.166h-.207l-.206.083-.124.124-.289.537.124.083.165.04h.165l.165-.04.331-.33.041-.207v-.124Zm3.015-1.983.041.207-.082.33-.124.165-.289.207h-.083l-.454-.083-.909.083-.165.041-.165.124-.124.124v.165l-.041.207.041.165.041.207.042.289-.042.289-.041.248-.248.454-.206.124-.207.041-1.322.041h-.165l-.165-.082-.124-.124-.124-.165v-.166l.041-.371.083-.372.165-.33.207-.248.206-.29.289-.247.289-.207.207-.165v-1.528l-.041-.207-.083-.165-.124-.165-.124-.124-.165-.083-.206-.04h-.166l-.206.04h-.248l-.124-.082-.041-.124v-.248l.041-.124.083-.082.206-.083.248-.041h.248l.578.082h.165l.165.041.166.124.124.124.082.166.042.33-.083.496.124.867.041.124.124.082h.165l1.157-.206.413-.041.785.04.082.166Zm.909-7.063h-.124l-.744.042-.743.082-.743.165-.785.207-2.107 1.115-2.147 1.157-.207.123h-.248l-.619.124-.29.166-.041.124.041.165.083.206.207.124.165.165.248.083h.248l.289-.041.289-.083.495-.33.207-.248 1.404-.991 1.487-.992.413-.124.496-.082.165.041.041.083.083.289-.041.289-.166.248-.206.248.372-.042.33-.124.661-.371.619-.413.537-.455.538-.537v-.248l-.083-.082-.124-.083Zm.454-2.148-.247-.206-.248-.165-.29-.124-.289-.083-.248-.041-.289.041.083.207.041.206v.248l-.165.413-.124.124-.165.083-.165.041h-.207l.041.041.579.083h.289l.289-.083.248-.082.289-.124.413-.248.165-.165.042-.083-.042-.082Zm-7.682 1.9.578.29.331.082.289.041h.289l.206-.413.124-.413.083-.454-1.9.29-.124.04-.041.124v.124l.082.166.083.123Zm2.85-1.197-.372-.661 2.519-.248.124.041-.289.29-.33.247-.661.33-.372.083h-.206l-.413-.082ZM102.862 60.443l.165.082.207.042.082-.042.042-.04.165-.373.083-.413-.083-.578h-.207l-.206.083h-.124l-.041.62-.083.619Zm-1.198 2.23h-.165l-.165-.041-.165-.083-.083-.124-.124-.33.124-.578.289-.413.496-.868-.372-.454-.413-.454.537-.166.537-.248.413-.288.165-.703.124-.743-.33-.083-.248-.082-.289-.166-.289-.247-.083-.083-.041-.165 2.024-.248h.165l.124.083.082.082v.29l-.248.743-.165.785h.744l.041.784.041.868h.042l.124.041.124.124.041.124.041.248v.247l.041.207v.165l-.082.083-1.157.62-1.115.701-.206.166-.29.124-.289.082Zm-2.395-1.156-.248.124-.248.165-.785.578-.454.207-1.487.578.33.372.207.123.496.083h.206l.207-.041.247-.042.207-.123.124-.165.165-.29.207-.206.248-.207.288-.165.29-.124.33-.041-.537 1.239-.537 1.198-.165.66.083.661.082.248.124.248.207.207.206.165.248.165.207-.909.165-.95.124-.95.124-1.445.165-1.487h-.537l-.29.124Zm5.576.206-.289.041-.29.124-.247.124-.207.166-.206.206-.414.537-.495.496.289.124.248.165.248.248.082.123.042.166-.042.165-.165.454.165.083.248.33.165.537.248.124.248.041.289.042.041-.041.083-.042.083-.248V65.4l-.124-.495-.124-.166-.496-.537v-.289l.041-.206.083-.248.124-.206.165-.207.207-.165.124-.124.082-.165v-.537l-.082-.166-.124-.165Zm-2.396 3.14-.165-.496-.083-.083-.082-.041-.124-.041-.083.04-.082.083-.042.083-.082.95-.042.454.166.166.206.123h.124l.124-.04.082-.042.083-.124.083-.083.041-.124.041-.165-.165-.66Zm-4.296-5.7-.247-.661h.289l.289-.042.248-.082.165-.083.33.083.124.124.124.247-.454.992-.083.165-.165.165-.206.124-.207.083h-.248l.083-.372v-.372l-.041-.372ZM91.338 61.6l-.289-.083.165.495.248.496.124.041h.124l.124-.041.082-.124.042-.165v-.124l-.083-.165-.537-.33Zm2.685 5.203-.082-.536-.124-.455-.496-1.61-.206-.785-.124-.868-.083-.826-.041-.826v-.826l.041-.867.083-.785.124-.826.247-1.529.042-.702-.083-.247-.083-.124-.123-.042-.166-.04-.33 2.188-.29 2.19-.082.867v1.776l.083.908.248 1.735.082.868v1.032l-.124.124-.124.124-.165.041.248.165.206.248.166.372.248.33.33.29.124.082h.124l.165-.041.124-.083.083-.124.04-.124-.082-1.074Zm-4.998-8.714.455-.248.371-.29.413-.33.331-.33 1.032-.868.95-.867v-.083l-.04-.041-1.116.537-.537.33-1.9 1.322-1.941 1.28.165.042.207.041.165-.041.496-.083.495-.165.454-.206Zm-.33 7.847-.041.165v.042l.041.082h.083l.66-.041.62-.124.66-.165.662-.207.124-.124.04-.165v-.124l-.082-.165-2.767.826Zm1.074-5.617-.124.082v.042L88.2 61.682h.372l.33.165.124.165.083.166.165.66v.372l.207-.165.289-.413.578-.909.207-.495.165-.455v-.124l-.041-.124-.083-.082-.124-.041-.124.04-.124-.99.372-.992.041-.206-.041-.248-.041-.041h-.083l-.578.371-.496.413-1.239.702.124.413.537-.04.495-.083.166-.042.082.042.124.082.083.083.041.124v.165l-.041.124Zm-.207 4.626.496-.165.29-.083.33-.207.247-.206.083-.165v-.207l-.124-.908-.041-.083-.083-.083-.082-.04-.083.33-.124.33-.496.702-.123.165-.207.083-.124.041h-.207l-.164-.041-.125-.083-.04-.082v-.413h-.042l-.372.537-.289.62v.082l.041.124.083.041.124.041.62-.165.412-.165Zm-2.519-3.015.041.62v.66l-.083.578-.04.62-.125.578-.206.62-.124.289-.165.289-.248.165-.041.042-.083-.042-.248-.206-.165-.33.248-.496.206-.537.165-.537.124-.537.083-.537.083-1.363.04-1.363.166.041.124.124.083.165.082.537.083.62Z" clip-rule="evenodd"/></g><defs><filter id="a" width="154" height="157" x="0" y="0" color-interpolation-filters="sRGB" filterUnits="userSpaceOnUse"><feFlood flood-opacity="0" result="BackgroundImageFix"/><feColorMatrix in="SourceAlpha" result="hardAlpha" values="0 0 0 0 0 0 0 0 0 0 0 0 0 0 0 0 0 0 127 0"/><feOffset dy="16"/><feGaussianBlur stdDeviation="6.5"/><feColorMatrix values="0 0 0 0 0 0 0 0 0 0 0 0 0 0 0 0 0 0 0.03 0"/><feBlend in2="BackgroundImageFix" result="effect1_dropShadow_185_308"/><feBlend in="SourceGraphic" in2="effect1_dropShadow_185_308" result="shape"/></filter></defs></svg>