<svg xmlns="http://www.w3.org/2000/svg" xml:space="preserve" style="fill-rule:evenodd;clip-rule:evenodd;stroke-linejoin:round;stroke-miterlimit:2" viewBox="0 0 154 157"><path d="M29.12 56.772A13.313 13.313 0 0 0 27 64c0 2.663.779 5.144 2.12 7.228v-1.39A12.624 12.624 0 0 1 27.698 64c0-2.105.514-4.091 1.422-5.838v-1.39Zm.515 13.962v1.236c-.179-.241-.35-.489-.515-.742v-1.39c.16.306.333.604.515.896Zm0-14.704v1.236c-.182.292-.355.59-.515.896v-1.39c.165-.253.336-.501.515-.742Zm.178 14.979v1.194l-.178-.233v-1.236l.178.275Zm0-15.213v1.195c-.059.09-.119.181-.178.275V56.03l.178-.234Zm.608 16.05v1.083a13.655 13.655 0 0 1-.608-.726v-1.194c.192.289.394.567.608.837Zm0-16.775v1.083c-.214.27-.416.548-.608.837v-1.195c.195-.248.397-.491.608-.725Zm.283 17.122v1.044c-.095-.102-.19-.204-.283-.308v-1.083c.091.117.186.233.283.347Zm0-17.429v1.043c-.097.114-.192.23-.283.347v-1.083c.093-.104.188-.207.283-.307Zm.375 17.849v.999a14.733 14.733 0 0 1-.375-.375v-1.044c.122.144.246.283.375.42Zm0-18.225v.999c-.129.137-.253.276-.375.42v-1.043c.122-.128.248-.253.375-.376Zm.141 18.377v.981l-.141-.134v-.999l.141.152Zm0-18.511v.981l-.141.152v-.999l.141-.134Zm.019 18.529v.98a.162.162 0 0 1-.019-.017v-.981a.166.166 0 0 0 .019.018Zm0-18.546v.98a.109.109 0 0 0-.019.018v-.981l.019-.017Zm.017 18.563v.978l-.017-.015v-.98c.005.007.01.012.017.017Zm0-18.578v.978a.069.069 0 0 0-.017.017v-.98a.13.13 0 0 1 .017-.015Zm.114 18.697v.968a12 12 0 0 1-.114-.109V72.8c.037.041.076.08.114.119Zm0-18.806v.968c-.038.039-.077.078-.114.119v-.978a12 12 0 0 1 .114-.109Zm.051 18.857v.961l-.051-.044v-.968l.051.051Zm0-18.901v.961l-.051.051v-.968l.051-.044Zm.623 19.482v.908c-.214-.17-.421-.346-.623-.528v-.961c.2.2.409.394.623.581Zm0-20.01v.908c-.214.187-.423.381-.623.581v-.961c.202-.182.409-.358.623-.528Zm1.624 21.213v.815a13.37 13.37 0 0 1-1.624-1.11v-.908c.507.441 1.05.843 1.624 1.203Zm0-22.323v.815c-.574.358-1.117.762-1.624 1.203v-.908a13.37 13.37 0 0 1 1.624-1.11Zm.216 22.456v.804l-.216-.122v-.815l.216.133Zm0-22.578v.804l-.216.133v-.815l.216-.122Zm.774 23.002v.777a12.26 12.26 0 0 1-.774-.397v-.804c.253.149.511.292.774.424Zm0-23.4v.778c-.263.132-.521.275-.774.424v-.804c.253-.141.511-.274.774-.398Zm.097 23.449v.774a2.884 2.884 0 0 1-.097-.046v-.777l.097.049Zm0-23.494v.774l-.097.049v-.778l.097-.045Zm1.434 24.097v.737c-.491-.162-.969-.35-1.434-.566v-.774c.463.229.942.431 1.434.603Zm0-24.663v.737c-.492.172-.971.374-1.434.603v-.774c.465-.216.943-.404 1.434-.566Zm1.494 25.082v.715a13.497 13.497 0 0 1-1.494-.397v-.737c.486.169.983.309 1.494.419Zm0-25.479v.715c-.511.109-1.008.249-1.494.419V51.3c.487-.159.984-.293 1.494-.397Zm.747 25.618v.705a12.257 12.257 0 0 1-.747-.129v-.715c.246.055.496.1.747.139Zm0-25.747v.705a12.29 12.29 0 0 0-.747.139v-.715c.246-.051.496-.093.747-.129Zm.74 25.837v.701c-.25-.022-.496-.05-.74-.086v-.705c.244.038.49.068.74.09Zm0-25.923v.701c-.25.022-.496.052-.74.09v-.705a13.6 13.6 0 0 1 .74-.086Zm.738 25.971v.699a12.874 12.874 0 0 1-.738-.046v-.701c.244.024.491.039.738.048Zm0-26.017v.699c-.247.009-.494.024-.738.048v-.701c.244-.022.491-.038.738-.046Zm.944 26.017v.698a12.988 12.988 0 0 1-.944.001v-.699a10.04 10.04 0 0 0 .944 0Zm0-26.015v.697a10.04 10.04 0 0 0-.944 0v-.699a11.139 11.139 0 0 1 .944.002Zm.922 25.947v.703c-.304.03-.613.052-.922.063v-.698c.311-.012.618-.036.922-.068Zm0-25.885v.703a12.692 12.692 0 0 0-.922-.068v-.697c.309.01.618.032.922.062Zm.57 25.809v.706c-.188.029-.378.052-.57.073v-.703c.192-.022.382-.048.57-.076Zm0-25.736v.706a17.021 17.021 0 0 0-.57-.076v-.703c.192.021.382.045.57.073Zm.537 25.639v.711c-.177.034-.357.064-.537.092v-.706c.18-.029.36-.06.537-.097Zm0-25.547v.71a13.372 13.372 0 0 0-.537-.096v-.706c.18.027.36.058.537.092Zm.034 25.542v.709c-.01.004-.022.005-.034.007v-.711a.563.563 0 0 1 .034-.005Zm0-25.535v.709a.245.245 0 0 1-.034-.006v-.71c.012.002.024.003.034.007Zm.806 25.341v.723c-.266.068-.535.129-.806.18v-.709c.271-.056.54-.121.806-.194Zm0-25.161v.723a12.948 12.948 0 0 0-.806-.194v-.709c.271.051.54.112.806.18Zm2.601 24.126v.786a13.33 13.33 0 0 1-2.601.972v-.723a12.567 12.567 0 0 0 2.601-1.035Zm0-23.154v.786a12.567 12.567 0 0 0-2.601-1.035v-.723a13.33 13.33 0 0 1 2.601.972Zm.461 22.894v.803c-.15.085-.305.164-.461.243v-.786c.156-.083.311-.17.461-.26Zm0-22.652v.804c-.15-.09-.305-.176-.461-.26v-.786c.156.078.311.158.461.242Zm.914 22.061v.846c-.295.193-.601.378-.914.548v-.803c.315-.183.62-.38.914-.591Zm0-21.512v.846a11.595 11.595 0 0 0-.914-.591v-.804c.313.171.619.356.914.549Zm1.012 20.713v.909c-.325.26-.662.506-1.012.736v-.846c.351-.249.689-.516 1.012-.799Zm0-19.977v.909c-.323-.283-.661-.55-1.012-.799v-.846c.35.23.687.476 1.012.736Zm.259 19.744v.93c-.086.072-.171.143-.259.212v-.909c.088-.077.173-.155.259-.233Zm0-19.532v.93c-.086-.078-.171-.156-.259-.233v-.909c.088.069.173.14.259.212Zm.479 19.064v.976c-.156.144-.316.285-.479.422v-.93c.163-.153.323-.309.479-.468Zm0-18.642v.977a13.226 13.226 0 0 0-.479-.469v-.93c.163.137.323.278.479.422Zm.144 18.492v.992l-.144.134v-.976a6.75 6.75 0 0 0 .144-.15Zm0-18.357v.991a5.061 5.061 0 0 0-.144-.149v-.977l.144.135Zm.343 17.977v1.03a13.83 13.83 0 0 1-.343.342v-.992c.117-.124.231-.251.343-.38Zm0-17.636v1.029c-.112-.13-.226-.255-.343-.379v-.991c.117.112.231.225.343.341Zm.718 16.729v1.141c-.229.275-.468.54-.718.796v-1.03c.253-.29.493-.593.718-.907Zm0-15.933v1.141a12.336 12.336 0 0 0-.718-.908v-1.029c.25.256.489.521.718.796Zm0 17.074v-1.141A12.609 12.609 0 0 0 53.036 64c0-2.762-.885-5.315-2.384-7.396v-1.141A13.31 13.31 0 0 1 53.733 64a13.31 13.31 0 0 1-3.081 8.537Z" style="fill:#1a5aa9" transform="matrix(3.74064 0 0 3.74065 -73.997 -160.902)"/><path d="m51.904 65.881-.562-.085-.83.258.037-.243.565-.161-.492-.318.037-.239.717.496.56.086-.032.206Zm-.28 1.274-1.083-.293-.081.298-.22-.059.215-.798.221.06-.081.297 1.084.292-.055.203Zm-.282.872-1.271-.454.07-.198 1.272.454-.071.198Zm-.909 1.016.061-.197c.087.026.156.03.21.013a.197.197 0 0 0 .12-.112c.028-.062.032-.116.012-.163a.183.183 0 0 0-.097-.1.14.14 0 0 0-.083-.014.162.162 0 0 0-.085.044c-.02.018-.061.061-.123.129a.52.52 0 0 1-.22.16.398.398 0 0 1-.286-.025.417.417 0 0 1-.157-.121.304.304 0 0 1-.071-.175.406.406 0 0 1 .042-.205c.054-.119.128-.193.223-.222.095-.03.2-.02.314.028l-.076.196c-.067-.02-.12-.024-.16-.009-.04.014-.072.048-.097.102a.205.205 0 0 0-.015.151c.01.028.031.05.063.065a.115.115 0 0 0 .087.005c.038-.012.092-.058.162-.138a.848.848 0 0 1 .183-.166.331.331 0 0 1 .172-.048.507.507 0 0 1 .213.051c.07.032.129.077.177.135a.325.325 0 0 1 .079.19.463.463 0 0 1-.049.227c-.054.12-.131.195-.232.227a.591.591 0 0 1-.367-.028Zm-.859.814.081-.133a.637.637 0 0 0 .084-.17.118.118 0 0 0-.018-.08.234.234 0 0 0-.075-.071.204.204 0 0 0-.109-.033.122.122 0 0 0-.086.04 1.13 1.13 0 0 0-.084.128l-.085.14.292.179Zm.555.585-1.152-.704.23-.377a.602.602 0 0 1 .158-.188.261.261 0 0 1 .173-.035c.069.006.137.03.205.072a.435.435 0 0 1 .179.189.31.31 0 0 1-.001.241.537.537 0 0 1 .155-.037c.051-.004.134 0 .25.012l.29.029-.13.214-.33-.023a1.834 1.834 0 0 0-.227-.009.165.165 0 0 0-.081.024.271.271 0 0 0-.068.083l-.022.036.481.294-.11.179Zm-.828 1.103-1.059-.838.479-.604.179.142-.348.439.235.186.323-.409.179.141-.324.409.288.228.36-.455.179.141-.491.62Zm-.75.8-1.217-.692.161-.161.892.521-.526-.887.157-.157.692 1.218-.159.158Zm-.709.641-.873-1.03.16-.136.873 1.03-.16.136Zm-1.073.803-.779-1.103.166-.118.868.491-.52-.736.159-.113.779 1.102-.172.122-.85-.477.508.719-.159.113Zm-1.92-.461.185-.099.343.645c.055.103.093.168.113.196a.235.235 0 0 0 .119.087.187.187 0 0 0 .147-.021c.052-.028.084-.063.096-.105a.201.201 0 0 0-.006-.128 2.13 2.13 0 0 0-.1-.207l-.351-.659.185-.099.334.626c.076.143.125.247.146.311a.448.448 0 0 1 .024.179.331.331 0 0 1-.056.155.43.43 0 0 1-.157.13.458.458 0 0 1-.221.067.401.401 0 0 1-.284-.15 2.141 2.141 0 0 1-.179-.293l-.338-.635Zm-2.136 1.617-.048-.223.443-.093.111.526a.56.56 0 0 1-.156.182.559.559 0 0 1-.236.115.465.465 0 0 1-.296-.029.528.528 0 0 1-.231-.211 1.02 1.02 0 0 1-.134-.339.97.97 0 0 1-.011-.381.548.548 0 0 1 .143-.287.432.432 0 0 1 .23-.117.42.42 0 0 1 .318.04c.085.054.151.14.197.257l-.194.092a.303.303 0 0 0-.113-.136.21.21 0 0 0-.16-.025.257.257 0 0 0-.191.156c-.037.085-.04.2-.01.346.033.156.085.268.155.335a.25.25 0 0 0 .236.073.294.294 0 0 0 .123-.06.433.433 0 0 0 .094-.103l-.035-.168-.235.05Zm-1.851.74-.104-1.346.204-.016.493.866-.069-.899.194-.015.104 1.347-.21.016-.485-.846.067.878-.194.015Zm-1.359-.703c-.008.153.013.27.064.352.05.081.117.124.2.128.084.005.155-.031.212-.106.058-.076.091-.191.099-.348.008-.154-.012-.271-.061-.35a.24.24 0 0 0-.201-.124.242.242 0 0 0-.215.104c-.057.074-.09.189-.098.344Zm-.216-.002c.007-.137.029-.252.065-.343a.668.668 0 0 1 .106-.18.424.424 0 0 1 .141-.115.453.453 0 0 1 .227-.041.437.437 0 0 1 .357.203c.086.128.123.302.111.522-.011.218-.066.386-.163.504a.434.434 0 0 1-.375.165.437.437 0 0 1-.359-.202c-.085-.128-.121-.298-.11-.513Zm-1.008.522.19-1.106-.304-.052.038-.225.815.14-.039.225-.303-.052-.19 1.106-.207-.036Zm-1.358-1.036c-.044.146-.052.265-.022.356.029.091.084.149.164.173.08.024.157.006.231-.053.074-.06.134-.165.179-.314.044-.149.052-.267.024-.355a.24.24 0 0 0-.166-.169.243.243 0 0 0-.234.051c-.073.058-.132.162-.176.311Zm-.21-.054c.04-.132.088-.238.145-.318a.667.667 0 0 1 .146-.149.416.416 0 0 1 .394-.065.44.44 0 0 1 .299.283c.052.145.047.323-.016.533-.063.209-.156.359-.279.451a.433.433 0 0 1-.403.071.432.432 0 0 1-.3-.282c-.053-.143-.048-.318.014-.524Zm-.807-.186.076-.516-.334.399.258.117Zm.133.645-.208-.094.043-.317-.379-.17-.204.244-.203-.092.924-1.064.203.091-.176 1.402Zm-1.479-.727.661-1.177.183.103-.661 1.177-.183-.103Zm.167-1.48.174.116-.472.712a1.13 1.13 0 0 1-.162.202.37.37 0 0 1-.197.097.304.304 0 0 1-.215-.058.275.275 0 0 1-.136-.224c-.005-.092.033-.199.112-.32l.181.085a.45.45 0 0 0-.069.151c-.008.053.008.092.046.118.039.026.077.03.112.012a.527.527 0 0 0 .144-.164l.482-.727Zm-2.749-1.258.171-.15.299.34-.404.355a.569.569 0 0 1-.236-.047.565.565 0 0 1-.215-.149.467.467 0 0 1-.121-.272.533.533 0 0 1 .071-.305 1.03 1.03 0 0 1 .229-.283.992.992 0 0 1 .327-.197.543.543 0 0 1 .32-.016c.078.021.15.068.215.143a.414.414 0 0 1 .121.296.51.51 0 0 1-.127.298l-.176-.123a.293.293 0 0 0 .064-.166.215.215 0 0 0-.057-.152.254.254 0 0 0-.229-.089c-.093.009-.195.063-.306.161-.121.106-.193.206-.217.3a.252.252 0 0 0 .052.241.288.288 0 0 0 .113.077.427.427 0 0 0 .136.032l.129-.113-.159-.181Zm-1.552-1.245 1.122-.752.113.169-.511.856.748-.502.109.162-1.121.752-.117-.175.497-.838-.731.49-.109-.162Zm-.351-.62 1.183-.651.101.184-1.183.651-.101-.184Zm.923-1.17.087.19-.777.356a1.09 1.09 0 0 1-.244.087.37.37 0 0 1-.218-.022.305.305 0 0 1-.153-.162.276.276 0 0 1 .003-.262c.045-.081.133-.152.264-.213l.109.168a.453.453 0 0 0-.138.092c-.035.041-.042.082-.023.124.019.043.049.066.088.069.04.003.11-.018.209-.064l.793-.363Zm-1.624-.398 1.265-.47.074.197-1.266.47-.073-.197Zm-.367-1.196 1.301-.362.207.742-.22.062-.151-.541-.288.081.14.502-.219.062-.141-.503-.354.098.156.56-.219.061-.212-.762Zm.887-1.397-.309.047.02.136c.013.081.022.131.028.15a.13.13 0 0 0 .06.077c.03.016.066.021.109.015a.189.189 0 0 0 .097-.042.11.11 0 0 0 .035-.085c0-.021-.008-.081-.022-.178l-.018-.12Zm-.531.08-.357.054.029.193a.804.804 0 0 0 .029.141.129.129 0 0 0 .065.067c.031.015.07.019.118.012a.212.212 0 0 0 .098-.038.139.139 0 0 0 .052-.074.58.58 0 0 0-.009-.187l-.025-.168Zm.722-.321.062.411a.933.933 0 0 1 .014.184.243.243 0 0 1-.039.116.33.33 0 0 1-.1.096.384.384 0 0 1-.151.055.392.392 0 0 1-.178-.013.282.282 0 0 1-.134-.088.281.281 0 0 1-.099.163.401.401 0 0 1-.194.081.508.508 0 0 1-.182-.006.35.35 0 0 1-.151-.069.252.252 0 0 1-.084-.129 2.66 2.66 0 0 1-.047-.249l-.053-.35 1.336-.202ZM48.709 59.113v.385c-.041-.097-.051-.311-.058-.338-.029-.12-.076-.214-.078-.35l.012-.01c.003.004.007 0 .013.009.01.012.053.244.082.28.005.007.019.015.029.024Zm.259.19v.17a1.709 1.709 0 0 0-.062.049c-.067.025-.128.071-.18.008-.005-.008-.012-.018-.017-.032v-.385l.01.01c.008.008.03.1.037.108l.046.06c.009.008.015.046.022.054.02.026.056.029.08.01.009-.006.019-.025.027-.032.003-.003.019-.01.037-.02Zm0-.644v.141a.222.222 0 0 1-.069-.039c-.051-.063-.005-.12.025-.207.007.002.017-.003.024.005.007.009.005.068.02.1Zm0-.449v.069l-.022-.027a.142.142 0 0 1 .022-.042Zm.479.889v.024l-.007-.009.002-.013c.002-.002.003-.002.005-.002Zm0-.171a.079.079 0 0 0-.015-.012c-.083-.016-.226-.107-.331-.172-.066-.04-.122-.068-.126-.073a.035.035 0 0 1-.007-.012v.141c.07.031.175.068.26.099.056.034.117.047.127.059.009.012.014.046-.008.065l-.304.244a.968.968 0 0 1-.075.036v.17l.043-.034c.012-.007.025-.012.034-.019.008-.007.037-.053.046-.059l.056-.045c.008-.008.108-.134.117-.141l.051-.04c.008-.007.093-.139.102-.146.008-.005.018-.005.03 0v-.061Zm0-.331v.067a.363.363 0 0 1-.041-.033.12.12 0 0 1-.006-.121c.008.042.025.058.039.076l.008.011Zm0-.264c-.183-.05-.392-.096-.397-.101-.01-.014 0-.036.01-.045.039-.03.119-.04.178-.064a.289.289 0 0 0-.236.042s-.018.022-.034.045v.069l.016.019c.006.008.156.012.225.025.05.01.14.033.185.046.017.007.034.01.053.014v-.05Zm0-.212v.027a1.08 1.08 0 0 1-.144-.015s-.003-.005-.002-.013l.146.001Zm.144.924v.173a.543.543 0 0 0-.054-.053c-.022-.018-.078-.027-.085-.035l-.005-.007v-.024c.021 0 .073.031.097.012.015-.014.005-.032-.002-.042-.007-.006-.056-.063-.095-.08v-.061c.043.035.092.083.144.117Zm0-.214v.053c-.04-.012-.079-.024-.105-.026-.003-.005-.007-.017-.005-.024.027-.003.078.005.11-.003Zm0-.124v.047a3.483 3.483 0 0 1-.144-.09v-.067c.025.028.051.042.08.064.014.01.029.031.042.039.009.005.016.005.022.007Zm0-.331v.034c-.045-.01-.096-.017-.144-.027v-.05c.053.014.102.029.144.043Zm0-.255v.022c-.001.002-.003.004-.005.004a.512.512 0 0 1-.139.001v-.027c.048 0 .095-.001.143-.003l.001.003Zm0 0v.022c.004-.006.004-.017 0-.022Zm0 .763c.084.025.179.055.202.037.002-.002.009-.01.004-.027-.004-.01-.02-.026-.024-.039a.5.5 0 0 0-.025-.058c-.021-.024-.034-.01-.084-.041-.02-.01-.045-.034-.062-.044-.004-.003-.007-.005-.011-.005v.047l.028.019c.006.009.005.037-.012.051a.048.048 0 0 1-.016.007v.053Zm0 .334v-.173a.217.217 0 0 0 .146.042.214.214 0 0 1 .075.039.547.547 0 0 1 .037.127c.004.019.017.036.019.053.005.034-.003.061-.012.068-.032.027-.098-.049-.112-.053-.042-.011-.095-.018-.112-.039-.007-.008-.024-.044-.03-.052l-.011-.012Zm.343-.455v.039c-.03-.019-.125-.063-.13-.07l-.016-.018c.002-.007-.001-.005.007-.012.015-.014.078.034.083.037a.363.363 0 0 1 .056.024Zm0-.223v.036c-.073-.04-.202-.102-.212-.11a.287.287 0 0 0-.131-.056v-.034c.023.008.045.015.062.024.066.025.14.052.2.085.019.008.049.037.081.055Zm0-.348v.062c-.074-.004-.161-.005-.18-.009l-.011-.015c.001-.007-.004-.01.005-.017.001-.002.098-.012.186-.021Zm0-.539v.071c-.017.092-.049.251-.083.278-.03.026-.09.051-.112.023-.014-.016-.018-.099.004-.118l.049-.04a1.37 1.37 0 0 0 .142-.214Zm0 .071v-.071l.004-.005.01.013-.014.063Zm.718.404a.416.416 0 0 1-.098-.058c-.031-.037.005-.093-.005-.105-.007-.008-.017-.008-.024-.017-.008-.008-.012-.029-.019-.037-.006-.009-.011-.007-.02-.007-.002.019-.002.075-.005.102l-.09.073c-.019.015-.214.085-.234.059-.014-.015-.026-.047-.016-.064.072-.114.291-.469.226-.549-.006-.008-.012-.006-.02-.008-.014.029-.146.304-.183.333-.009.006-.021.005-.031.012-.008.006-.012.034-.02.04l-.078.061c-.022.019-.046.053-.019.087.007.01.063.036.071.044.012.017.017.061-.012.083 0 0-.066.009-.141.015v.062a.34.34 0 0 1 .112.013c.011.01.011.056.017.089.005.022.019.033.026.049.012.03-.056.129-.07.139-.025.02-.056.012-.085-.004v.036c.027.016.046.027.051.033.007.008.019.037.026.045.03.039.081.075.134.073.02 0 .054-.013.069.005.067.08.168.152.235.233.001.002.064.058.029.086-.06.048-.32-.152-.333-.164a1.445 1.445 0 0 0-.211-.124v.039c.005.003.009.005.01.007l.045.054c.006.009.056.041.062.049l.089.111c.057.069.241.144.344.149.041.002.097.021.124-.002.031-.023.044-.066.009-.11-.007-.009-.021-.012-.029-.02l-.059-.077c-.012-.013-.131-.09-.131-.091l-.036-.045c-.007-.008-.068-.054-.074-.062-.002-.004-.018-.022.001-.038.032-.025.224-.039.363-.044v-.056c-.247.031-.512.048-.555-.005-.037-.047.021-.168.041-.185.076-.061.355.173.447.099.028-.023.05-.075.067-.131v-.128a.42.42 0 0 1-.088.155.259.259 0 0 1-.122.039c-.015-.002-.233-.061-.255-.088-.015-.019-.035-.1-.01-.121.063-.051.299.029.352-.013.049-.039.025-.091.05-.111.024-.018.068.027.07.031.002 0 .003.001.003.003v-.044Zm0-.143v.029a.572.572 0 0 1-.042-.024s-.003-.005-.002-.013c.01.005.026.007.044.008Zm0 .029c.073.036.158.065.231.097.039.017.077.056.119.065.065.01.095-.002.131-.031.086-.07.042-.263.042-.356-.008-.002-.006-.004-.015.003-.002.002-.034.095-.051.11-.063.049-.338.09-.457.083v.029Zm0 .669c.075-.003.134-.005.146-.003.201.008.318.081.428-.009.01-.007.032-.029.085-.078.005-.005.014-.027.009-.036-.009-.008-.192-.151-.199-.159l-.037-.048c-.028-.032-.286-.147-.432-.222v.044c.017.024.014.065 0 .105v.128c.029-.094.043-.199.051-.206.056-.044.382.211.382.213l.043.05c.007.009.063.043.069.051.012.016 0 .044-.005.05-.023.018-.124.003-.142.006-.084.016-.238.04-.398.058v.056ZM46.322 55.909v.14c-.194.039-.397.04-.593.051l-.007-.016c.124-.03.274-.044.416-.093.028-.01.096-.039.184-.082Zm.461-.248v.211c-.045.031-.091.063-.11.068-.11.037-.227.085-.351.109v-.14c.137-.064.322-.157.461-.248Zm.914-.811v.258c-.092.09-.194.18-.206.212-.006.021.019.046.031.05.032.011.11.011.175.01v.119a.41.41 0 0 0-.065-.009c-.042 0-.049.01-.091.007-.027-.004-.073-.019-.109-.022-.048-.007-.085.001-.121.008a2.908 2.908 0 0 0-.358.279c-.012.035.063.095.075.115.163.289.197.431.423.511.012.004.068.024.161.046.003.007.008.008.005.019-.007.02-.083.025-.092.025-.254-.036-.263.049-.314.032-.093-.033-.151-.195-.147-.292 0-.018-.041-.37-.157-.409-.017-.006-.071.027-.124.063v-.211c.106-.067.187-.132.204-.181.017-.046-.044-.075-.061-.095-.017-.022.003-.041.003-.06-.003-.033-.044-.037-.061-.066a1.515 1.515 0 0 1-.066-.154c.007-.005.01-.003.022 0 .021.007.148.132.277.176l.075.028c.09.032.394-.265.485-.406l.036-.053Zm0 .258v-.258a.566.566 0 0 0 .064-.112.292.292 0 0 0 .002-.076c.008-.005.012-.004.02-.007.063.105.096.193.068.273a.671.671 0 0 1-.154.18Zm0 .391v-.119c.051 0 .093-.002.105.003.027.009.102.068.09.104-.013.034-.121.022-.195.012ZM42.344 53.996c-.147-.069-.32-.154-.349-.158-.014-.001-.031-.005-.048-.006l-.003.027c.098.059.187.134.293.174a.768.768 0 0 1 .107.048v-.085Zm0-.282v.214c-.01-.005-.02-.013-.023-.022-.012-.032-.009-.076-.016-.115-.005-.029-.034-.08-.032-.092a.022.022 0 0 1 .024-.019.084.084 0 0 1 .047.034Zm0-.375v.245h-.015c-.051-.009-.093-.034-.11-.097-.019-.065-.005-.143-.01-.211-.002-.03-.031-.069-.026-.1.002-.012.01-.02.022-.018.034.005.095.093.139.181Zm0 .245v-.245a.571.571 0 0 1 .05.126.345.345 0 0 1 .003.083c-.003.031-.032.036-.053.036Zm0 .344v-.214a.378.378 0 0 1 .073.18c-.005.033-.044.041-.057.038l-.016-.004Zm.537.386v.219a1.94 1.94 0 0 1-.256-.24 1.1 1.1 0 0 0-.281-.212v-.085c.087.043.165.078.201.094.076.03.217.163.336.224Zm0-1.111v.077a.068.068 0 0 0-.01.024c-.002.01.003.018.01.025v.219c-.017.005-.031.024-.032.036-.002.005 0 .046.025.049h.007v.346a.045.045 0 0 1-.026.01l-.052-.008c-.004-.007-.011-.009-.009-.02.002-.002.063-.185.068-.216.012-.083-.117-.127-.11-.165.003-.022.1-.091.114-.171.003-.022.003-.063-.033-.068-.018-.003-.018.012-.039.036-.023.027-.057.051-.071.084a.713.713 0 0 0-.041.155l-.024.16c-.003.02-.045.051-.05.049-.07-.01-.07-.246-.07-.246.013-.085.221-.392.193-.408l.017.002c.011.007.014.019.012.03-.001.012-.022.053-.023.065-.004.015-.006.048.023.051.012.002.021-.003.027-.014.026-.032.058-.066.094-.102Zm0-.638v.189a.362.362 0 0 1-.073-.004l-.124-.029c-.012-.001-.051-.003-.082-.008.089-.046.172-.087.279-.148Zm.034 1.766v.227a.5.5 0 0 0-.034-.025v-.219l.034.017Zm0-.988v.604a.096.096 0 0 1-.034.032v-.346c.02-.003.032-.034.034-.044.002-.007 0-.038-.022-.041h-.012v-.219c.008.007.02.012.03.014h.004Zm0-.17v.071c-.012.012-.026.024-.034.036v-.077l.034-.03Zm0-.627v.204a.176.176 0 0 1-.034.004v-.189a.186.186 0 0 0 .034-.019Zm0 1.401v-.604c.03.005.039-.009.044-.039.003-.022.003-.053-.02-.073-.009.003-.016.008-.024.013v-.071c.114-.097.256-.183.37-.187.03-.002.08-.02.092-.019l.05.009c.04.005.067.087.067.097-.004.012-.044.061-.046.073l-.01.071c-.004.02-.1.212-.102.217l-.01.066c-.002.012-.036.058-.043.087-.02.088-.044.205-.051.24-.018.074-.029.096-.03.108-.002.012.001.051 0 .063-.007.047-.036.092-.089.083-.062-.008-.076-.078-.129-.148l.002-.015c.007-.005.005-.005.017-.003.012.001.053.037.065.039.056.008.122-.206.134-.274.025-.14.03-.205.032-.217.003-.02.119-.294.127-.35.004-.025-.01-.057-.042-.062-.031-.004-.274.062-.284.127-.001.012.007.09.004.102-.002.012-.019.036-.021.047-.015.095.129.101.114.202-.008.053-.144.114-.168.179l-.044.231a.019.019 0 0 1-.005.008Zm0 .611v-.227c.019.006.036.012.052.015l.07.01c.003 0 .151.053.195.06.094.013.19-.011.219-.007l.077.012c.005.006.005.011.008.018-.166.038-.467.184-.491.18a.34.34 0 0 1-.13-.061Zm.806-2.317v.159c-.102.099-.314.192-.322.24-.005.042.101.102.095.144-.007.048-.153.058-.19.063-.053.005-.104.041-.157.053l-.008-.016c.054-.037.171-.073.182-.139.001-.012-.009-.08-.006-.092.009-.057.221-.183.231-.241.002-.022-.02-.037-.027-.039a1.984 1.984 0 0 0-.423.27.346.346 0 0 1-.181.107v-.204l.015-.008c.18-.102.416-.154.599-.236.073-.034.08-.093.138-.085a.134.134 0 0 1 .054.024Zm0 .159a.164.164 0 0 0 .053-.084c.003-.024-.024-.055-.053-.075v.159ZM38.43 53.246c-.002 0-.004 0-.007-.002-.015.053-.029.27-.098.282-.044.007-.191-.216-.325-.192-.011.002-.018.009-.022.021.014.011.297.217.304.259.01.05-.035.082-.063.14-.047.101-.059.246-.161.339-.041.037-.109.136-.154.166-.058.039-.143.092-.18.145.018.008.032.012.044.01.012-.004.056-.034.081-.048.511-.285.459-.568.562-.587.007-.002.014-.002.019-.002v-.531Zm0-.414v.028c-.046.053-.041.145-.146.228-.066.053-.182.059-.255.107-.064.042-.161.127-.18.131-.012.001-.027-.009-.029-.021-.013-.083.118-.186.162-.229.054-.052.105-.153.152-.219.002.007.007.003.009.015.003.014-.014.063-.012.075.007.039.049.027.06.026.018-.004.156-.089.239-.141Zm0-.28c-.029.02-.06.039-.065.049l.014.01.051-.029v-.03Zm0-.201v.102a.43.43 0 0 0-.11.061c-.034.026-.067.061-.101.085a.61.61 0 0 1-.232.11l-.019.004c-.007-.005-.007-.002-.008-.014-.002-.001.247-.176.222-.322-.019-.104-.171-.145-.243-.245.005-.007.01-.013.022-.015.05-.008.323.047.35.049.114.005.063.148.119.185Zm0 .231v-.03c.032-.021.063-.046.058-.072a.039.039 0 0 0-.043-.03l-.015.003v-.102c.013.009.03.012.056.007.012-.002.034-.015.046-.017l.095-.017c.029-.005.066-.071.115-.08.027-.005.182-.003.19.05.006.027-.1.093-.115.096l-.08.014c-.013.002-.044.034-.068.044-.073.036-.158.088-.239.134Zm0 .278v-.028l.029-.017c.054-.036.042-.051.09-.06.09-.015.241-.003.265.138.006.035-.034.076-.051.08-.012.001-.111-.022-.123-.019-.017.002-.064.046-.079.047l-.031.006c-.002-.007-.007-.006-.009-.017-.001-.014.062-.106.06-.119-.005-.031-.049-.053-.077-.048a.119.119 0 0 0-.074.037Zm.74 1.233v.141c-.039.015-.112.044-.122.046-.161.029-.178.006-.397-.165-.039-.031-.09-.331-.221-.338v-.531c.051.012.17.071.178.129l.017.095c.012.064-.127.175-.124.199.01.059.43.314.486.344.059.034.122.06.183.08Zm0 .141v-.141c.046.017.09.029.132.039.065.017.121.017.165.056.002.007-.003.014-.008.02l-.077.014c-.001 0-.136-.007-.19.003l-.022.009ZM33.668 54.884v.058a.06.06 0 0 1-.042-.007c-.004-.007-.01-.009-.009-.017a.03.03 0 0 0 .005-.007l.012-.008.034-.019Zm0-.833c-.058.037-.058.042-.092.054-.015.01-.047.019-.062.029-.048.018-.08.025-.128.039l-.005.003c-.001.002-.005.003-.008.005-.002.009.003.021.012.022.013.019.068.011.09.014.057.01.108.018.169.015l.024-.002v-.179Zm.216.629v.143c-.009.007-.017.012-.039.036-.043.028-.072.039-.112.064-.012.002-.046.017-.058.017-.002.002-.005.002-.007.002v-.058c.027-.017.06-.034.083-.048.032-.033.019-.032.029-.044.01-.012.056-.028.055-.039-.002-.007.027-.042.049-.073Zm0-.648v.343c-.021.024-.044.037-.053.045-.015.018-.042.109-.075.102 0-.015.007-.057.019-.066.007-.034.026-.051.032-.083.005-.034.002-.085-.024-.117-.015-.003-.018-.019-.032-.022-.018-.009-.025 0-.044-.007-.007.002-.024.002-.039.003v-.179l.004-.002c.027-.007.052-.007.067-.012.029-.009.053-.009.085-.009a.16.16 0 0 1 .06.004Zm0 .343a.023.023 0 0 0 .007-.007c.015-.019.023-.049.037-.063.019-.022.022-.012.035-.03.034-.04.034-.046.052-.085.015-.033.005-.055-.004-.08-.01-.031-.073-.065-.127-.078v.343Zm0 .448v-.143a.154.154 0 0 0 .017-.024c.01-.01.023-.049.04-.074a1.39 1.39 0 0 1 .058-.083c.019-.027.026-.033.029-.046.027-.019.058-.111.07-.143l.059-.075c.003-.013.009-.027.014-.039.005-.015.017-.042.034-.047.025-.009.117-.015.134.01.001.01-.017.044-.017.044s-.015.043-.033.072c-.006.011-.017.044-.025.054-.022.024-.044.058-.068.091a.53.53 0 0 1-.056.07.954.954 0 0 1-.075.121c-.011.015-.025.03-.037.047a.821.821 0 0 0-.109.133.161.161 0 0 1-.035.032Zm.774.64a.396.396 0 0 1-.082-.082c-.012-.018-.034-.032-.051-.047-.006-.01-.017-.015-.022-.024-.017-.017-.051-.034-.066-.047-.012-.012-.012-.017-.015-.031-.009-.012-.017-.024-.027-.034.001-.005.001-.008.008-.01.051-.019.044-.071.075-.092 0 0 .068-.088.078-.095.01-.026.008-.042.019-.068l.003-.035c-.014-.022-.024-.038-.046-.05a.423.423 0 0 0-.119.085c-.005.015.007.021.004.036a.583.583 0 0 0-.046.029c-.007.006-.015.017-.027.018l-.002-.013c-.002-.031.009-.029.01-.041.005-.007.012-.015.017-.024l.011-.047c.006-.034.018-.055.025-.087.003-.047.019-.096.008-.154.019-.012.031-.073.06-.121.017-.032.008-.039.007-.042-.002-.005-.016-.024-.024-.036-.029-.031-.165.087-.156.078a.85.85 0 0 1-.05.039 1.229 1.229 0 0 1-.034.041c-.01.049-.047.09-.066.136-.008.02-.01.041-.022.059.005.051-.042.094-.059.136-.007.022-.015.063-.034.076-.032.004-.055.011-.085.004-.012.003-.032 0-.043.003l-.005.004c-.006.018-.017.032-.018.044v.007l.001.001c.007.036.033.049.05.092.003.019.039.054.042.073.024.036.034.071.063.117.041.063.102.134.165.127a.078.078 0 0 0 .037-.046c.005-.015.003-.016.005-.039.002-.018.015-.047.019-.073.001-.016-.009-.028-.009-.04a3.206 3.206 0 0 1-.095-.16c.005-.036.044-.066.073-.085.014.002.02-.013.029-.008.007.01-.003.022-.002.034 0-.004.022.127.016.115.001.017.035.032.049.036.015.022.032.041.046.064a.232.232 0 0 1-.043.097c-.005.015-.001.007-.017.037-.015.021-.029.048-.044.068-.012.029-.022.06-.032.089-.036.09-.026.045-.044.101a.676.676 0 0 0-.046.114c-.017.029-.039.055-.07.094l-.018.079c.008.016.02.009.035.016.034.017.068.039.1.057.033.007.068-.027.094-.046.003-.015.015-.035.02-.052.007-.012.005-.022.01-.032 0-.043.019-.099.029-.146.009-.033.01-.04.014-.06 0-.015.012-.061.024-.068.008-.034.017-.059.025-.09.019-.063.01-.112.036-.156.022.005.051.109.062.128-.006.04-.066.059-.062.1.04.042.144.085.147.086l.048.027c.005.004.01.004.017.005v-.271Zm0-.384v.105a.47.47 0 0 1-.066-.013c-.004 0-.022-.02-.012-.034 0-.002.003-.005.007-.007a.211.211 0 0 1 .071-.051Zm0 .655v-.271a.021.021 0 0 0 .007.005.395.395 0 0 1 .073.178c.001.032-.033.078-.033.078s-.027.01-.047.01Zm.097-.682v.18l-.034-.025c-.014-.006-.026-.014-.039-.017l-.024-.006v-.105a.264.264 0 0 1 .097-.027Zm0 .18v-.18a.348.348 0 0 1 .085.003c.015.004.047.007.064.019.02.009.097.066.103.087 0 .008 0 .018.002.025l.009.038c-.009.044-.043.059-.08.083-.015.003-.031.008-.046.01-.015-.002-.03-.012-.046-.014-.015-.01-.023-.02-.037-.034-.012-.01-.019-.01-.036-.023-.006-.006-.012-.009-.018-.014ZM29.635 57.962c0 .002 0 .002-.002.002-.003.005-.025.027 0 .044l.002-.004v.002c-.004 0-.007 0-.012-.003-.009-.009-.007-.018-.002-.023.002.011-.003.011.005.019l.009.004v.001a.035.035 0 0 1-.014-.006.04.04 0 0 1 .014.003v-.039Zm.178-.156v.139c-.073.001-.139.02-.178.059v.002c.005 0 .01-.002.013-.003-.003-.002-.008 0-.013 0v.001l.013-.001c-.005-.002-.008-.002-.013-.002v-.039c.017-.014.113-.083.12-.092l.058-.064Zm.608 1.544v.055c-.019.001-.036.005-.051.008a.043.043 0 0 1-.009-.024.747.747 0 0 0 .06-.039Zm0-1.422v.003c-.004-.003-.005-.006-.01-.008l.01.015v.375a.24.24 0 0 0-.07-.085l-.212-.188a.518.518 0 0 0-.326-.095v-.139l.022-.026c.141-.158.435-.002.504.06.009.008.029.025.075.079l.007.009Zm.283 1.132v.287c-.061.044-.187.046-.283.058v-.055c.054-.034.124-.079.129-.086.049-.056.027-.068.107-.158.015-.017.032-.032.047-.046Zm0-.606v.149l-.1-.091c-.024-.021-.056-.068-.078-.09l-.066-.058a.115.115 0 0 1-.039-.051v-.375c.001.003.005.005.008.008l-.008-.015v-.003c.054.073.088.185.127.288.005.014.081.134.156.238Zm0-1.122v.212c-.061-.085-.124-.183-.112-.197.014-.015.059-.018.112-.015Zm0 2.015v-.287c.099-.076.214-.078.318.015.028.026.045.457-.007.574 0 0-.005.005-.014-.003-.003-.004-.005-.087-.046-.165-.006-.01-.005-.03-.011-.037-.04-.044-.067-.094-.109-.131-.024-.022-.087-.019-.107.01a.078.078 0 0 1-.024.024Zm.375.713v.056c-.008-.024-.012-.044-.001-.054l.001-.002Zm0-1.236v.153a3.706 3.706 0 0 1-.115-.141l-.26-.233v-.149a.948.948 0 0 0 .117.141l.258.229Zm0-1.344v.446l-.292-.276a2.626 2.626 0 0 1-.083-.106v-.212c.105.007.245.037.251.042l.114.102c.002.002.005.002.01.004Zm.141 2.529v.234a.153.153 0 0 1-.083-.027.435.435 0 0 1-.058-.1v-.056c.022-.024.087.01.129-.037l.012-.014Zm0-1.102v.248a.282.282 0 0 0-.075-.119l-.064-.057c-.002 0-.002 0-.002-.002v-.153l.017.015c.019.017.07.043.124.068Zm0-.587h-.005l-.002-.02c-.005.006-.008.017.002.025-.01-.008-.007-.019-.003-.025.001.006.001.018.005.022 0 0 .001-.002.003-.002Zm0-.107v.107h-.005l-.002-.02c-.005.006-.008.017.002.025.002.002.003.003.005.003v-.001h-.002c-.022-.021-.011-.065.002-.114Zm0-.769v.056c-.03-.005-.057-.002-.071.014-.017.02.005.049.017.061.007.005.019.022.054.046v.412c-.022-.025-.032-.029-.04-.035-.009-.007-.055-.043-.085-.058l-.016-.014v-.446a.552.552 0 0 0 .141-.036Zm0 .876c.004-.002.007-.007.012-.017.002.009-.002.022-.005.025.003-.003.003-.015.003-.015-.003.004-.008.005-.01.007Zm.019 1.664v.261c-.007-.002-.014-.002-.019-.002v-.234a.207.207 0 0 0 .019-.025Zm0-1.068v.312a.705.705 0 0 0-.019-.073v-.248a.154.154 0 0 1 .019.009Zm0-.781a1.106 1.106 0 0 1-.019.078v.107c.002-.002.007-.003.01-.007 0 0 0 .012-.003.015 0 0-.002.004-.007 0v-.001c.007.006.012.003.012.003.002-.008.003-.015.007-.024v-.171Zm0-.019v.01l-.005.011.005-.021Zm0-.484v.432a.037.037 0 0 0-.007-.014l-.012-.017v-.412l.019.011Zm0-.197v.068l-.019-.003v-.056l.019-.009Zm0 .691a.06.06 0 0 0 .005-.03l-.005.02v.01Zm.017 1.824v.295h-.017v-.261a.135.135 0 0 0 .017-.034Zm0-1.027v.937a.8.8 0 0 1-.009-.138c0-.144.021-.339-.008-.494v-.312l.017.007Zm0-1.28v.616c-.007.015-.012.032-.017.047v-.171a.141.141 0 0 0 0-.071v-.432l.017.011Zm0-.213v.077c-.007-.002-.012-.004-.017-.004v-.068l.017-.005Zm.114 1.55v.318c-.016-.021-.036-.06-.063-.027-.021.022.025.1.027.103.015.051.025.11.036.173v.684a.414.414 0 0 1-.114.014v-.295c.007-.026.003-.051 0-.09v-.937c.054.025.103.049.114.057Zm0-1.604v.803a.12.12 0 0 0-.095.037.186.186 0 0 0-.019.043v-.616l.003.003c.051.029.063.012.089-.017.033-.037.023-.058-.011-.087a.318.318 0 0 0-.081-.035v-.077c.041-.017.081-.035.114-.054Zm.05 2.457v.381a.325.325 0 0 1-.05.017v-.684c.017.095.03.197.05.286Zm0-.81v.293a.542.542 0 0 1-.037-.005c-.003-.001-.008-.006-.013-.013v-.318l.045.041s.002.002.005.002Zm0-1.679v.855a.104.104 0 0 0-.05-.02v-.803a.391.391 0 0 0 .042-.027l.008-.005Zm0 .855v-.855c.011-.002.023.001.029.008.041.036.058.36.079.418.02.059-.024.107-.016.171a.168.168 0 0 0 .031.072l.049.044c.088.078.095.541.092.592-.012-.022-.197-.392-.258-.446-.002-.002-.004-.004-.006-.004Zm0 1.117v-.293c.024.012.108.046.119.057.036.031.097.136.055.186-.029.03-.107.052-.174.05Zm0 .898v-.381l.019.066c.012.042.114.197.048.271a.157.157 0 0 1-.067.044Zm.624-1.943v.315c-.004.002-.006.004-.007.006-.009.01-.061.096-.068.107-.034.037-.041.052-.105.066-.005-.005-.011-.017-.002-.027.008-.009.03-.019.037-.028.043-.047.049-.124.08-.178.015-.03-.014-.09-.032-.124-.005-.008-.012-.034-.004-.042.002-.002.07-.049.075-.056l.026-.039Zm0 .315c.02-.017.054-.017.079.006.056.049.112.305.114.305.009.009.012.004.019.004l.023-.026c.068-.078-.054-.382-.057-.406l.078-.088c.027-.029.036-.139 0-.171-.036-.031-.151-.075-.217 0a.571.571 0 0 0-.039.061v.315ZM31.079 64.211v.38a9.57 9.57 0 0 1-.018-.38h.018Zm0-.808v.412h-.02c.002-.139.007-.277.015-.414l.005.002Zm.141 1.605v.411l-.047.007a7.738 7.738 0 0 1-.056-.409l.103-.009Zm0-.797v.4l-.139.012c-.002-.01-.002-.022-.002-.032v-.38h.141Zm0-.797v.401h-.141v-.412l.141.011Zm0-.806v.409l-.115-.01c.015-.137.032-.275.052-.411l.063.012Zm.019 2.399v.409l-.019.003v-.411l.019-.001Zm0-.796v.398l-.019.002v-.4h.019Zm0-.795v.399h-.019v-.401l.019.002Zm0-.805v.408l-.019-.002v-.409l.019.003Zm0-.485v.083l-.015-.003.015-.08Zm.017 3.689v.061l-.014-.06.014-.001Zm0-.81v.407l-.017.004v-.409l.017-.002Zm0-.794v.397l-.017.001v-.398h.017Zm0-.793v.397h-.017v-.399l.017.002Zm0-.803v.406l-.017-.002v-.408l.017.004Zm0-.567v.165l-.017-.004v-.083c.005-.026.01-.053.017-.078Zm.114 3.746v.416l-.036.009a13.106 13.106 0 0 1-.078-.343v-.061l.114-.021Zm0-.799v.397l-.114.02v-.407l.114-.01Zm0-.784v.387l-.114.01v-.397h.114Zm0-.783v.387h-.114v-.397l.114.01Zm0-.793v.396l-.114-.01v-.406l.114.02Zm0-.816v.414l-.114-.02v-.165c.017-.083.034-.165.054-.246l.06.017Zm.051 3.967v.411l-.051.013v-.416l.051-.008Zm0-.795v.391l-.051.01v-.397l.051-.004Zm0-1.824v1.588l-.014-.161-.037.004v-.387h.015v-.396h-.015v-.387l.027.002.024-.263Zm0-.523v.39l-.051-.003v-.396l.051.009Zm0-.812v.409l-.051-.008v-.414l.051.013Zm0-.453v.043l-.011-.004.011-.039Zm.623 6.721v.023l-.011-.018.011-.005Zm0-7.728v1.773a8.473 8.473 0 0 0 0 3.631v1.887l-.18.084a9.894 9.894 0 0 1-.162-.381l.308-.112-.135-.372-.31.112a10.002 10.002 0 0 1-.126-.393l.316-.085-.102-.382-.232.063v-.411l.144-.026-.068-.39-.076.012v-.391l.02-.003-.02-.233v-1.588l.011-.131-.011-.002v-.39l.057.01.068-.391-.125-.022v-.409l.205.055.102-.382-.307-.083v-.043c.033-.119.071-.238.11-.355l.309.112.136-.371-.311-.114c.049-.129.102-.257.156-.382l.223.103Zm0-.577v.139l-.058-.025c.019-.038.037-.076.058-.114Zm1.624 9.415v1.2a9.772 9.772 0 0 1-.278-.3l.248-.209-.253-.304-.252.21a11.312 11.312 0 0 1-.253-.325l.267-.187-.228-.325-.269.189a8.471 8.471 0 0 1-.223-.346l.282-.165-.199-.343-.283.165a5.738 5.738 0 0 1-.183-.347V68.1l.285-.133-.167-.36-.118.056v-1.887a8.437 8.437 0 0 0 1.624 3.434Zm0-11.557v1.057a8.441 8.441 0 0 0-1.624 3.435v-1.773l.074.034.167-.358-.241-.114v-.139c.042-.085.086-.17.132-.253l.283.163.197-.343-.283-.164c.069-.119.144-.235.219-.35l.268.187.228-.325-.27-.186c.081-.112.164-.223.251-.33l.248.209.254-.304-.251-.21c.092-.104.183-.206.279-.306l.069.07Zm.216 11.82v.725l-.212.214-.004-.002v-1.2c.07.09.143.178.216.263Zm0-11.717v.691a7.031 7.031 0 0 0-.216.263v-1.057l.16.159.056-.056Zm0-.461v.013l-.007-.007c.003-.001.005-.005.007-.006Zm.774 13.814v.185a1.69 1.69 0 0 1-.095-.072l.095-.113Zm0-.843v.611l-.19-.16-.209.252a10.22 10.22 0 0 1-.307-.277l.229-.231-.279-.28-.018.017v-.725c.241.282.499.545.774.793Zm0-13.221v.61c-.275.246-.533.51-.774.792v-.691l.224-.224-.224-.224v-.013c.096-.094.195-.185.295-.274l.211.248.268-.224Zm0-.421v.35l-.177-.209c.058-.048.117-.095.177-.141Zm.097 14.368v.379l-.097-.077v-.185l.097-.117Zm0-.64v.606l-.097-.081v-.611l.097.086Zm0-13.803v1.019a8.476 8.476 0 0 0-.097.087v-.61l.034-.03-.034-.041v-.35l.097-.075Zm1.434 14.815v.895a7.33 7.33 0 0 1-.278-.145l.163-.283-.343-.199-.165.286a11.365 11.365 0 0 1-.348-.221l.187-.267-.324-.227-.189.268a4.35 4.35 0 0 1-.137-.1v-.379l.017-.02-.017-.014v-.606c.441.386.921.725 1.434 1.012Zm0-15.691v.883a8.468 8.468 0 0 0-1.434 1.012v-1.019c.018-.013.035-.025.052-.039l.187.267.326-.226-.189-.27c.112-.078.23-.153.347-.224l.163.284.343-.199-.165-.285c.12-.066.243-.131.365-.194l.005.01Zm1.494 16.348v.828a7.482 7.482 0 0 1-.29-.091l.112-.308-.372-.135-.112.309c-.129-.05-.256-.1-.382-.157l.137-.295-.36-.168-.139.299-.088-.044v-.895a8.35 8.35 0 0 0 1.494.657Zm0-16.95v.828a8.423 8.423 0 0 0-1.494.657v-.883l.134.287.358-.168-.139-.299c.126-.056.253-.11.382-.161l.112.309.372-.136-.114-.309c.129-.044.258-.086.389-.125Zm.747 17.157v.81c-.087-.019-.173-.037-.258-.058l.083-.316-.382-.103-.085.319a2.62 2.62 0 0 1-.105-.031v-.828c.244.08.494.149.747.207Zm0-17.346v.81a8.49 8.49 0 0 0-.747.207v-.828c.002 0 .003 0 .005-.002l.085.318.384-.104-.087-.317c.119-.031.239-.058.36-.084Zm.74 17.48v.798a7.12 7.12 0 0 1-.204-.027l.056-.321-.39-.069-.056.324-.146-.029v-.81c.243.056.489.1.74.134Zm0-17.602v.798a8.175 8.175 0 0 0-.74.134v-.81l.042-.008.058.322.39-.069-.057-.324c.102-.016.203-.031.307-.043Zm.738 17.672v.791l-.137-.007.027-.324-.394-.036-.029.328c-.067-.007-.137-.014-.205-.024v-.798c.243.034.489.058.738.07Zm0-17.735v.791a8.157 8.157 0 0 0-.738.07v-.798l.102-.012.029.324.395-.033-.029-.328.241-.014Zm.944 17.728v.793l-.273.012v-.326h-.396v.327c-.091-.001-.183-.005-.275-.008v-.791a8.489 8.489 0 0 0 .944-.007Zm0-17.723v.793a7.522 7.522 0 0 0-.522-.017c-.141 0-.281.004-.422.01v-.791a4.94 4.94 0 0 1 .172-.006v.326h.395v-.328c.126.002.252.006.377.013Zm.922 17.618v.467l-.036.007.036.201v.126c-.129.019-.258.037-.387.051l-.029-.324-.395.035.029.326a3.287 3.287 0 0 1-.14.009v-.793c.313-.019.62-.054.922-.105Zm0-17.186v.466a8.694 8.694 0 0 0-.922-.105v-.793l.036.002-.029.324.396.036.028-.329c.138.015.274.032.41.052l-.056.323.137.024Zm0 17.987a.078.078 0 0 1 .022-.003l-.022-.123v.126Zm.57-.92v.811a3.712 3.712 0 0 1-.159.034l-.056-.32-.355.061v-.467c.192-.034.384-.073.57-.119Zm0-17.293v.811a8.714 8.714 0 0 0-.57-.119v-.466l.251.044.058-.325c.088.018.175.035.261.055Zm.537 17.144v.483l-.379.102.087.318c-.082.02-.163.04-.245.057v-.811c.182-.044.36-.093.537-.149Zm0-17.01v.827a8.033 8.033 0 0 0-.537-.15v-.811c.048.01.096.02.143.032l-.085.316.382.103.087-.319.01.002Zm.034 16.998v.607l-.029-.112h-.005v-.483l.034-.012Zm0-16.988v.829a.17.17 0 0 0-.034-.012v-.827l.034.01Zm.806 16.684v.811l-.098-.268-.372.136.112.309c-.129.046-.26.088-.392.127l-.056-.204v-.607c.275-.087.543-.189.806-.304Zm0-16.409v.856a8.12 8.12 0 0 0-.806-.302v-.829c.119.034.234.071.35.11l-.111.308.372.135.112-.31c.027.012.056.022.083.032Zm2.601 14.637v.75l-.053-.063-.302.255.211.251a9.806 9.806 0 0 1-.326.253l-.189-.267-.324.228.188.268a7.036 7.036 0 0 1-.346.224l-.163-.282-.343.197.165.285a8.565 8.565 0 0 1-.365.194l-.139-.295-.358.166.139.299c-.126.056-.253.11-.382.161l-.014-.041v-.811a8.519 8.519 0 0 0 2.601-1.772Zm0-12.919-.133.158-.302-.255.209-.249a6.62 6.62 0 0 0-.329-.25l-.189.268-.324-.227.187-.267a9.694 9.694 0 0 0-.348-.22l-.165.285-.343-.199.163-.283a7.894 7.894 0 0 0-.366-.189l-.141.299-.358-.168.137-.297a9.874 9.874 0 0 0-.299-.124v.856a8.524 8.524 0 0 1 2.601 1.774v-.912Zm.461 12.418v.691l-.234.234.233.231c-.099.097-.2.19-.302.282l-.158-.187v-.75c.161-.162.316-.328.461-.501Zm0-11.751v.746c-.145-.174-.3-.34-.461-.501v-.912l.08-.093c.103.09.205.181.305.276l-.231.231.28.28.027-.027Zm.914 10.454v.864l-.126.18.126.088v.292l-.105.138-.252-.209-.254.302.253.212c-.09.104-.184.206-.279.304l-.229-.229-.048.046v-.691c.344-.402.651-.835.914-1.297Zm0-9.837v.166l-.185.131.185.264v.864a8.386 8.386 0 0 0-.914-1.296v-.746l.206-.205c.095.1.188.2.28.304l-.249.208.254.304.251-.21c.06.071.116.142.172.216Zm0 .166v-.166l.083.108-.083.058Zm0 11.095v-.292l.144.1a6.858 6.858 0 0 1-.144.192Zm1.012-4.305v1.801l-.026.07.026.01v.426l-.168-.078-.168.358.3.139c-.061.124-.124.248-.188.369l-.286-.165-.198.343.287.165a8.633 8.633 0 0 1-.221.349l-.268-.187-.102.145v-.864a8.405 8.405 0 0 0 1.012-2.881Zm0-5.071-.213.099-.166-.358.297-.139a10.414 10.414 0 0 0-.193-.365l-.287.164-.197-.343.283-.164a10.283 10.283 0 0 0-.224-.347l-.27.189-.042-.06v.864c.501.875.85 1.847 1.012 2.881v-1.801l-.061-.168.061-.022v-.43Zm0 .43v-.43l.088-.04c.056.124.109.251.159.38l-.247.09Zm.259 6.615v.078a9.823 9.823 0 0 1-.13.314l-.129-.059v-.426l.259.093Zm0-6.287v.416l-.064.016.064.242v4.63l-.039.14.039.01v.412l-.149-.054-.11.302v-1.801a8.525 8.525 0 0 0 0-2.65v-1.801l.074.205.185-.067Zm0 .416v-.416l.126-.046c.046.129.087.261.126.394l-.252.068Zm0 5.45v-.412l.282.076c-.037.133-.08.263-.122.394l-.16-.058Zm0 .499v-.078l.026.01-.026.068Zm.479-4.836v.411l-.229.02.034.394.195-.017v.401l-.173.001-.002.396h.175v.401l-.186-.017-.034.394.22.02v.409l-.266-.046-.07.389.326.058c-.027.135-.056.27-.087.404l-.317-.085-.065.242v-4.63l.038.14.319-.084c.034.132.064.266.092.402l-.323.058.068.388.285-.049Zm0 .411v-.411l.039-.007c.022.136.041.272.056.409l-.095.009Zm0 2.402v-.409l.107.008a9.222 9.222 0 0 1-.051.411l-.056-.01Zm.144-1.207v.314a1.66 1.66 0 0 1-.006.098l-.138-.011v-.401h.144Zm0-.615v.218h-.144v-.401l.133-.012.011.195Zm0 .218v-.218c.004.073.007.145.009.218h-.009Zm0 .711v-.314h.011c-.002.105-.006.209-.011.314ZM41.396 71.224c0 .057.013.102.04.134a.118.118 0 0 0 .091.047c.033 0 .06-.013.082-.039.022-.025.033-.068.033-.126 0-.061-.012-.105-.035-.133a.113.113 0 0 0-.089-.042.112.112 0 0 0-.087.04c-.024.027-.035.066-.035.119Zm.403-.388-.172.019c-.004-.036-.015-.062-.033-.079a.096.096 0 0 0-.069-.025.117.117 0 0 0-.095.05c-.026.034-.043.104-.05.211a.21.21 0 0 1 .166-.078c.074 0 .138.028.191.085a.305.305 0 0 1 .079.219.315.315 0 0 1-.083.228.286.286 0 0 1-.215.086.285.285 0 0 1-.231-.109c-.061-.073-.091-.192-.091-.358 0-.17.032-.293.095-.368a.302.302 0 0 1 .245-.112.26.26 0 0 1 .175.059.277.277 0 0 1 .088.172Zm-1.177.097a.203.203 0 0 0-.039-.133c-.027-.032-.057-.048-.092-.048a.103.103 0 0 0-.082.039c-.022.026-.033.069-.033.128 0 .06.012.103.036.132a.112.112 0 0 0 .089.042.11.11 0 0 0 .086-.041c.023-.027.035-.066.035-.119Zm-.403.389.173-.019a.123.123 0 0 0 .033.078.095.095 0 0 0 .07.025c.037 0 .068-.017.094-.051.025-.033.042-.103.049-.21a.213.213 0 0 1-.168.078.25.25 0 0 1-.189-.085.305.305 0 0 1-.079-.219c0-.095.028-.17.084-.228a.283.283 0 0 1 .213-.086c.094 0 .172.036.232.109.061.073.091.192.091.359 0 .17-.032.292-.095.367a.302.302 0 0 1-.245.113.256.256 0 0 1-.176-.058.278.278 0 0 1-.087-.173Zm-.794-.465c0 .035.01.063.03.083a.11.11 0 0 0 .08.029c.033 0 .06-.01.081-.03.02-.02.03-.048.03-.083 0-.033-.01-.06-.03-.08a.107.107 0 0 0-.08-.03.11.11 0 0 0-.081.03.11.11 0 0 0-.03.081Zm-.017.397c0 .049.013.087.038.115a.123.123 0 0 0 .094.041.117.117 0 0 0 .091-.04c.024-.026.036-.064.036-.114a.148.148 0 0 0-.037-.105.12.12 0 0 0-.093-.039c-.043 0-.076.015-.097.045a.166.166 0 0 0-.032.097Zm-.02-.218a.213.213 0 0 1-.101-.08.22.22 0 0 1-.031-.112c0-.069.024-.127.073-.172.048-.045.117-.067.206-.067.088 0 .156.022.205.067a.224.224 0 0 1 .073.172.206.206 0 0 1-.033.115.221.221 0 0 1-.095.077c.052.02.091.051.118.09a.24.24 0 0 1 .04.138.28.28 0 0 1-.082.209.3.3 0 0 1-.218.08.33.33 0 0 1-.211-.066.261.261 0 0 1-.099-.216.24.24 0 0 1 .155-.235Zm-.678.501h-.178v-.671a.611.611 0 0 1-.23.135v-.162a.52.52 0 0 0 .152-.086.336.336 0 0 0 .112-.148h.144v.932ZM46.783 68.047v-1.735l.231-.093v-.717l-.229-.13h-.002v-1.221l.231-.093v-.717l-.229-.132-.002.002v-1.214h.255v.567c-.039.003-.076.008-.114.012v.237l.311.177-.002 1.417-.309.126v.442l.311.178-.002 1.415-.309.126v1.353h-.141ZM46.783 61.997v1.214l-.229.13v.717l.229.093v1.221l-.229.13v.717l.229.093v1.735h-.159v-1.356l-.299-.123v-1.417l.299-.17v-.453l-.299-.121V62.99l.299-.17v-.207a5.01 5.01 0 0 0-.302.053v-.669h.461ZM46.322 61.997v.669a7.443 7.443 0 0 0-2.11.806v-1.475h2.11ZM43.721 63.769v-1.966h.224v1.822c-.078.049-.153.097-.224.144ZM43.721 61.537v-1.883l.647 1.391-.525.492h-.122ZM43.721 59.654v1.883l-.806.003v-3.614l.806 1.728ZM43.721 61.803v1.966c-.078.049-.153.1-.226.149v-2.115h.226ZM42.915 64.339v-2.536h.214v2.375l-.214.161ZM42.915 57.926v3.614h-.034v-3.687l.034.073ZM42.915 61.803v2.536c-.01.009-.022.017-.034.026v-2.562h.034ZM42.881 57.853v3.687l-.065.002-.472-1.139v-2.837l.338-.139.199.426ZM42.881 61.803v2.562c-.219.172-.396.324-.537.45v-3.012h.537ZM42.344 67.879v-.927l.309.382v.545h-.309ZM42.344 57.566v2.837l-.46-1.114.007-1.534.453-.189ZM42.344 61.803v3.012c-.274.251-.402.404-.402.404h-.168v-3.416h.57ZM42.344 66.952v.927h-.57v-1.285h.28l.29.358ZM41.774 65.623h.236v.633h-.236zM40.852 65.219h.922v-3.416h-.922v3.416ZM40.852 65.623h.922v.633h-.922zM40.852 67.879h.922v-1.285h-.922v1.285ZM40.852 56.95h.833v4.575h-.833z" style="fill:#1a5aa9" transform="matrix(3.74064 0 0 3.74065 -73.997 -160.902)"/><path d="M40.85 61.525h.002V56.95h-.002v4.575ZM39.908 61.803h.944v3.416h-.944zM39.908 65.623h.944v.633h-.944zM39.908 66.594h.944v1.285h-.944zM39.908 56.926h.643v4.599h-.643zM39.345 61.525h.563v-4.599h-.563v4.599Z" style="fill:#1a5aa9" transform="matrix(3.74064 0 0 3.74065 -73.997 -160.902)"/><path d="M39.17 61.803h.739v3.416h-.739zM39.17 65.623h.739v.633h-.739zM39.17 66.594h.739v1.285h-.739zM39.17 60.987h.032v.694h-.032zM39.17 60.199h.032v.694h-.032zM39.17 59.4h.032v.728h-.032zM39.17 59.194v-1.869a.7.7 0 0 0 .037-.039v1.908h-.037ZM39.17 57.325v1.869h-.74v-1.348c.243-.113.501-.278.74-.521ZM38.43 59.4h.74v.728h-.74zM38.43 60.199h.74v.694h-.74zM38.43 60.987h.74v.694h-.74zM38.43 61.803h.74v3.416h-.74zM38.43 65.623h.74v.633h-.74zM38.43 66.594h.74v1.285h-.74zM38.43 57.846v1.348h-.747v-1.125c.182-.026.451-.085.747-.223ZM37.683 59.4h.747v.728h-.747zM37.683 60.199h.747v.694h-.747zM38.43 60.987v.694h-.1l.001-.005-.648-.261v-.428h.747ZM38.43 61.803v3.416h-.494l-.253-.146v-1.197l.625-2.073h.122ZM38.199 65.623h.231v.633h-.231zM38.43 66.594v1.285h-.747v-.834l.351-.451h.396ZM37.683 62.788l.307-.985-.307-.129v1.114ZM37.683 58.069v1.125h-1.494v-.434c.153-.14.677-.579 1.261-.671 0 0 .089.002.233-.02ZM36.717 59.4h.966v.728h-.966zM36.717 60.199h.966v.694h-.966z" style="fill:#1a5aa9" transform="matrix(3.74064 0 0 3.74065 -73.997 -160.902)"/><path d="M37.683 60.987v.428l-.282-.112-.125.378h-.559v-.694h.966ZM37.683 61.674l-.107-.044-1.387 4.378v1.547l1.494-4.767v-1.114ZM37.683 63.876v1.197l-.309-.175.309-1.022ZM37.683 67.045v.834h-.224v-.545l.224-.289ZM37.683 69.792h-.774v-1.577h.774v1.577Zm.747 0h-.747v-1.577h.747v1.577Zm.74 0h-.74v-1.577h.74v1.577Zm.738 0h-.738v-1.577h.738v1.577Zm.944 0h-.944v-1.577h.944v1.577Zm.922 0h-.922v-1.577h.922v1.577Zm.57 0h-.57v-1.577h.57v1.577Zm.537 0h-.537v-1.577h.537v1.577Zm.034 0h-.034v-1.577h.034v1.577Zm0-1.577h.383v1.577h-.383v-1.577ZM36.189 69.31v-.431l.239.107-.129.307s-.04.009-.11.017ZM36.189 64.219v-2.416h1.027l-.793 2.55-.234-.134ZM36.189 58.76v.434h-.044V58.8s.015-.015.044-.04ZM36.189 61.803v2.416l-.54-.309v-2.107h.54ZM36.189 66.008v1.547l-.363 1.159.363.165v.431c-.212.026-.693.053-1.085-.134l-.349-.166v-.333l.149-.329.486.19.799-2.53ZM34.755 63.408v-1.603h.709v2.024l-.709-.421ZM34.755 61.805v1.603l-.097-.058v-1.545h.097ZM34.755 68.677v.333l-.097-.048v-.068l.097-.217ZM34.658 61.805v1.545l-.482-.285-.002-1.26h.484ZM34.658 68.894v.068l-.026-.012.026-.056Z" style="fill:#1a5aa9" transform="matrix(3.74064 0 0 3.74065 -73.997 -160.902)"/></svg>