<svg xmlns="http://www.w3.org/2000/svg" width="154" height="157" fill="none"><g filter="url(#a)"><path fill="#fff" d="M13 0h128v128H13z"/><path fill="#005093" fill-rule="evenodd" d="m30.757 68.962-.12-.184c-.042-.062-.082-.098-.12-.11a.133.133 0 0 0-.114.02.125.125 0 0 0-.059.093c-.004.04.014.09.056.154l.12.183.237-.156Zm-.458.301-.104-.156c-.037-.056-.072-.09-.106-.098-.034-.01-.07-.002-.106.022a.12.12 0 0 0-.057.085c-.005.035.01.08.046.134l.105.16.222-.147Zm-.219.666-.444-.675c-.074-.113-.103-.218-.087-.314a.326.326 0 0 1 .148-.227.312.312 0 0 1 .22-.052.344.344 0 0 1 .16.074.395.395 0 0 1-.018-.253.343.343 0 0 1 .146-.181.375.375 0 0 1 .382-.025c.038.018.08.056.128.111.064.074.105.125.122.151l.41.623-1.167.768ZM29.056 68.228l-.435-1.072.276-.112.273.67.205-.083-.253-.622.264-.107.253.622.255-.104-.28-.69.293-.12.443 1.092-1.294.526ZM28.44 66.505l-.102-.42 1.358-.33.102.421-1.358.329ZM28.147 64.81l-.04-.43.756-.07c.16-.016.282-.013.367.008.086.02.161.07.226.15.066.08.105.186.117.319a.746.746 0 0 1-.027.332.41.41 0 0 1-.15.194.63.63 0 0 1-.264.1l-.094-.406a.46.46 0 0 0 .136-.029.146.146 0 0 0 .067-.058.116.116 0 0 0 .012-.072c-.005-.048-.026-.081-.064-.1a.358.358 0 0 0-.184-.017l-.858.08ZM28.114 63.675l.023-.432 1.395.074-.022.432-1.396-.074ZM28.2 62.507l.086-.395.869-.346-.755-.167.088-.397 1.364.301-.088.397-.862.346.75.165-.088.396-1.364-.3ZM29.841 60.191l-.264-.121.28-.606.54.249c.026.152.033.28.02.382a1.145 1.145 0 0 1-.103.337.845.845 0 0 1-.247.333.579.579 0 0 1-.33.115.834.834 0 0 1-.387-.083.803.803 0 0 1-.322-.252.613.613 0 0 1-.117-.358.898.898 0 0 1 .098-.376c.064-.14.126-.24.183-.297a.453.453 0 0 1 .198-.119.583.583 0 0 1 .25-.01l-.106.41a.225.225 0 0 0-.146.029.27.27 0 0 0-.104.125.282.282 0 0 0-.005.246c.036.079.119.148.248.207.137.064.247.083.33.059a.3.3 0 0 0 .188-.176.458.458 0 0 0 .039-.134.754.754 0 0 0-.002-.167l-.12-.055-.12.262ZM30.282 57.765l.273-.296.925.137-.569-.524.276-.3 1.028.948-.276.3-.919-.136.564.52-.275.298-1.027-.947ZM32.491 56.623c.08.116.16.184.239.205.078.02.154.004.228-.048a.266.266 0 0 0 .125-.197c.007-.08-.035-.182-.124-.31-.076-.108-.152-.172-.23-.19a.272.272 0 0 0-.23.048.262.262 0 0 0-.119.196c-.008.08.03.18.111.296Zm-.355.246c-.13-.187-.18-.369-.149-.546.031-.177.14-.33.326-.46.19-.134.373-.185.548-.155.174.03.326.138.455.322.094.134.148.26.162.376a.585.585 0 0 1-.055.337.786.786 0 0 1-.268.294.892.892 0 0 1-.364.162.59.59 0 0 1-.342-.05.79.79 0 0 1-.313-.28ZM34.186 55.475l.168-.071a.647.647 0 0 0 .098-.063.113.113 0 0 0 .047-.067.13.13 0 0 0-.007-.086.13.13 0 0 0-.08-.079c-.036-.01-.09 0-.162.03l-.175.074.111.262Zm-.075.934-.546-1.286.663-.281c.123-.053.221-.082.295-.088a.328.328 0 0 1 .207.05c.064.04.114.102.148.183.03.072.041.14.033.205a.39.39 0 0 1-.072.179.52.52 0 0 1-.118.11.43.43 0 0 1 .123.003.44.44 0 0 1 .093.041.563.563 0 0 1 .09.056l.35.291-.45.191-.379-.303a.325.325 0 0 0-.114-.069.183.183 0 0 0-.11.012l-.035.015.221.522-.399.17ZM35.443 54.4l.559-.103.37.796.06-.876.557-.102.254 1.374-.347.064-.193-1.048-.076 1.098-.314.058-.462-1 .194 1.05-.348.064-.254-1.375ZM38.508 54.972l-.135-.508-.173.496.308.012Zm.078.306-.492-.02-.076.228-.441-.017.58-1.376.47.02.47 1.416-.452-.018-.06-.233ZM39.746 54.238l.42.098-.24 1.026.656.154-.078.335-1.077-.252.319-1.361ZM43.15 55.544l.373.216-.417.721a.7.7 0 0 1-.15.184.502.502 0 0 1-.202.106.485.485 0 0 1-.207.013.86.86 0 0 1-.285-.11 1.87 1.87 0 0 1-.186-.124.583.583 0 0 1-.146-.15.505.505 0 0 1-.067-.364.836.836 0 0 1 .084-.225l.417-.722.373.216-.427.739a.244.244 0 0 0-.035.187.237.237 0 0 0 .12.143.237.237 0 0 0 .184.033.243.243 0 0 0 .145-.124l.426-.739ZM44.158 56.224l.299.271-.131.927.52-.572.301.273-.94 1.034-.302-.274.13-.92-.517.568-.3-.273.94-1.034ZM45.617 57.682l.268.34-1.096.865-.269-.34 1.097-.865ZM46.249 58.488l.22.394-.724.766 1.029-.221.214.383-1.473.23-.228-.41.962-1.142ZM47.213 60.375l.361 1.1-.283.093-.226-.688-.211.069.21.638-.271.09-.21-.64-.262.087.233.708-.3.1-.368-1.12 1.327-.437ZM47.224 62.689l.022.18a.67.67 0 0 0 .033.112.115.115 0 0 0 .052.064.13.13 0 0 0 .084.017.129.129 0 0 0 .098-.055c.02-.031.026-.086.016-.164l-.023-.189-.282.035Zm-.877-.33 1.387-.17.087.716c.016.132.017.235.003.307a.326.326 0 0 1-.106.185.387.387 0 0 1-.217.092.386.386 0 0 1-.205-.025.383.383 0 0 1-.152-.12.525.525 0 0 1-.074-.143.432.432 0 0 1-.037.118.438.438 0 0 1-.065.078.575.575 0 0 1-.079.07l-.377.256-.058-.484.396-.28a.33.33 0 0 0 .097-.092.183.183 0 0 0 .02-.108l-.005-.038-.563.068-.052-.43ZM46.967 64.02l-.005.412a.315.315 0 0 0-.157.042.228.228 0 0 0-.099.184.21.21 0 0 0 .033.146.13.13 0 0 0 .096.057c.036.003.07-.01.1-.04a.55.55 0 0 0 .098-.214c.057-.186.124-.316.2-.392a.343.343 0 0 1 .278-.1.364.364 0 0 1 .198.077c.061.047.106.113.136.199.03.086.04.202.03.347-.015.178-.058.31-.131.4-.074.088-.183.135-.33.142l.008-.408a.22.22 0 0 0 .142-.057.22.22 0 0 0 .054-.14c.004-.05-.004-.089-.024-.115a.097.097 0 0 0-.074-.044c-.022-.003-.043.007-.062.026a.358.358 0 0 0-.063.141 1.834 1.834 0 0 1-.153.395.431.431 0 0 1-.169.166.438.438 0 0 1-.452-.053.465.465 0 0 1-.155-.22.838.838 0 0 1-.033-.34c.018-.237.076-.398.174-.482a.54.54 0 0 1 .36-.129ZM47.675 65.986l-.098.422-1.361-.316.097-.422 1.362.316ZM47.425 67.007l-.484 1.22-.321-.128.163-.409-.979-.388.16-.401.978.388.162-.41.321.128ZM46.709 68.699l-.26.403-.55-.019.244.493-.258.4-.388-.896-.492-.317.234-.364.492.317.978-.017Z" clip-rule="evenodd"/><path fill="#005093" fill-rule="evenodd" d="M37.952 56.014c-4.336 0-7.862 3.527-7.862 7.862 0 4.336 3.526 7.862 7.862 7.862 4.334 0 7.862-3.526 7.862-7.861 0-4.336-3.528-7.863-7.862-7.863Zm7.492 7.862c0 4.132-3.36 7.493-7.492 7.493s-7.493-3.36-7.493-7.492 3.36-7.493 7.493-7.493c4.131 0 7.492 3.36 7.492 7.492Z" clip-rule="evenodd"/><path fill="#005093" fill-rule="evenodd" d="M38.03 53c-6.023 0-10.922 4.898-10.922 10.92s4.9 10.92 10.921 10.92c6.022 0 10.921-4.898 10.921-10.92S44.051 53 38.03 53Zm10.366 10.92c0 5.716-4.65 10.367-10.367 10.367-5.716 0-10.367-4.65-10.367-10.367 0-5.716 4.651-10.367 10.367-10.367 5.717 0 10.367 4.65 10.367 10.367Z" clip-rule="evenodd"/><path fill="#005093" fill-rule="evenodd" d="M35.79 73.493a14.59 14.59 0 0 1-.197-.033l.194-1.104a1.145 1.145 0 0 1-.402.139c.01-.055.022-.11.034-.166.11-.025.208-.063.294-.114a.629.629 0 0 0 .19-.16l.113.018-.227 1.42ZM37.397 72.685a.343.343 0 0 0-.073-.243.268.268 0 0 0-.194-.1.282.282 0 0 0-.215.081.353.353 0 0 0-.11.24.294.294 0 0 0 .068.228.296.296 0 0 0 .212.1c.088.006.161-.019.22-.073a.32.32 0 0 0 .092-.233Zm-.816.575.185.005c.01.08.035.14.077.179.043.038.1.06.17.065a.312.312 0 0 0 .279-.121.54.54 0 0 0 .08-.165.81.81 0 0 0 .036-.213v-.036a.442.442 0 0 1-.379.17.437.437 0 0 1-.315-.154.445.445 0 0 1-.098-.351.486.486 0 0 1 .166-.336.453.453 0 0 1 .336-.108.486.486 0 0 1 .426.31c.039.093.057.228.053.404a1.171 1.171 0 0 1-.075.435.5.5 0 0 1-.522.31.474.474 0 0 1-.302-.118.38.38 0 0 1-.117-.276ZM38.186 72.946c.006.236.04.392.104.467a.275.275 0 0 0 .452-.024c.056-.082.074-.24.056-.474-.018-.235-.058-.389-.12-.462-.062-.073-.134-.108-.218-.103a.236.236 0 0 0-.194.11c-.059.09-.086.252-.08.486Zm-.194.003a1.298 1.298 0 0 1 .05-.41.522.522 0 0 1 .154-.242.417.417 0 0 1 .259-.093.443.443 0 0 1 .207.034.397.397 0 0 1 .155.122c.043.055.08.123.11.204.03.082.051.193.064.334.015.168.01.304-.02.411a.489.489 0 0 1-.153.252.475.475 0 0 1-.288.103.455.455 0 0 1-.372-.134c-.109-.118-.163-.312-.166-.58ZM40.48 73.218c.01.056.022.111.034.167-.352.073-.705.13-1.06.174a.283.283 0 0 1 .008-.124.662.662 0 0 1 .104-.206c.05-.07.123-.153.218-.25.147-.153.24-.272.284-.356a.343.343 0 0 0 .047-.224.232.232 0 0 0-.109-.158.286.286 0 0 0-.21-.036.293.293 0 0 0-.194.107.286.286 0 0 0-.05.22c-.063.004-.126.006-.189.008a.45.45 0 0 1 .103-.325.507.507 0 0 1 .31-.155.483.483 0 0 1 .347.053c.095.06.155.143.178.253a.406.406 0 0 1-.003.173.63.63 0 0 1-.088.196 2.469 2.469 0 0 1-.244.3c-.1.106-.165.177-.194.213a.612.612 0 0 0-.068.107c.26-.038.518-.083.775-.137ZM39.474 62.084l-.297.052c-.078.013-.094.06-.091.085l-.001.155c-.001.047.01.078.032.093.018.011.038.01.05.004l.251-.054c.059-.022.071-.06.07-.08l-.002-.086c0-.028-.013-.043-.023-.05-.025-.018-.058-.008-.061-.007l-.183.035a.026.026 0 0 0-.021.025v.085c0 .008.004.015.01.02a.025.025 0 0 0 .023.005l.12-.03a.026.026 0 0 0 .019-.032.026.026 0 0 0-.032-.02l-.087.023v-.03c.033-.005.164-.03.164-.03.008-.002.015-.003.017-.001l.001.008.002.088s0 .014-.031.026l-.254.055c-.004.002-.013-.006-.012-.046v-.158c0-.01.01-.024.048-.031l.301-.054c.004-.001.016-.004.024.001.009.007.014.024.014.049v.216c0 .008-.004.03-.05.045l-.317.072c-.01 0-.033 0-.052.018-.011.01-.024.03-.023.066v.26s-.002.034.023.057c.019.016.045.021.078.015l.314-.073c.023 0 .077-.02.08-.085v-.17a.068.068 0 0 0-.026-.05c-.02-.016-.05-.021-.088-.014l-.22.06a.074.074 0 0 0-.067.076v.08a.07.07 0 0 0 .028.048c.019.013.042.016.07.01l.165-.042a.027.027 0 0 0 .02-.028l-.007-.08a.027.027 0 0 0-.011-.019.029.029 0 0 0-.023-.004l-.075.022a.026.026 0 0 0-.018.032.027.027 0 0 0 .033.018l.044-.013.002.027-.143.036c-.025.005-.031-.005-.033-.012v-.075c0-.02.016-.025.024-.026l.223-.059c.025-.005.038 0 .043.004.005.004.006.01.006.01v.167c-.001.03-.024.034-.034.035l-.317.074c-.015.002-.027.001-.033-.003-.006-.006-.006-.017-.006-.017v-.263c0-.008 0-.02.006-.025.006-.006.017-.004.017-.004.003 0 .006 0 .009-.002l.322-.072c.1-.034.088-.101.088-.104v-.209c0-.043-.012-.074-.035-.09-.03-.022-.064-.01-.068-.01ZM40.052 61.95l-.297.053c-.078.012-.094.06-.092.085v.155c0 .047.01.077.032.092.017.012.038.01.05.005l.25-.055c.06-.022.072-.06.07-.08l-.002-.085c0-.028-.012-.043-.023-.05-.024-.019-.057-.01-.06-.007l-.183.034a.027.027 0 0 0-.021.025v.085c0 .008.004.016.01.02.006.006.015.007.022.006l.12-.03a.026.026 0 0 0 .02-.033.026.026 0 0 0-.033-.019l-.087.023v-.03l.165-.03a.03.03 0 0 1 .017-.002v.008l.003.088s-.001.015-.032.026l-.253.056c-.004 0-.014-.007-.013-.047v-.158c0-.01.01-.025.049-.03l.301-.055c.004 0 .016-.004.024.002s.014.023.014.047v.217c0 .009-.005.03-.051.046l-.316.071c-.01 0-.033 0-.052.018-.011.01-.024.03-.023.066v.26c0 .002-.002.034.023.057.018.017.045.022.078.016l.314-.074c.023 0 .076-.02.08-.085v-.17c-.001-.005-.003-.03-.026-.05-.02-.016-.05-.02-.088-.014l-.221.06a.075.075 0 0 0-.066.076v.08a.07.07 0 0 0 .029.049c.017.012.04.016.068.01l.166-.043a.026.026 0 0 0 .02-.027l-.008-.08a.026.026 0 0 0-.011-.02.024.024 0 0 0-.022-.003l-.075.02a.026.026 0 0 0-.018.033.027.027 0 0 0 .032.019l.045-.013.002.026-.143.036c-.025.006-.032-.005-.033-.011v-.076c0-.02.015-.024.024-.025l.222-.06c.027-.005.038.001.043.005.006.003.007.009.007.01v.167c-.002.03-.025.034-.034.035l-.318.074c-.014.002-.026 0-.032-.005-.006-.004-.006-.016-.006-.016v-.262c0-.008 0-.02.006-.026.006-.006.017-.004.017-.004l.008-.001.323-.073c.1-.034.088-.1.087-.104l.001-.209c0-.043-.012-.074-.036-.09-.03-.021-.063-.01-.067-.01ZM40.627 61.766l-.297.095c-.095.028-.09.092-.089.094v.155c-.001.047.01.077.032.09.019.01.04.006.052-.001l.252-.09c.069-.035.067-.08.066-.086l-.002-.086c0-.027-.013-.042-.023-.048-.026-.017-.057-.003-.064 0l-.182.06a.026.026 0 0 0-.018.025v.085c0 .008.004.016.011.021a.026.026 0 0 0 .024.003l.12-.047a.027.027 0 0 0 .015-.035.026.026 0 0 0-.034-.014l-.084.033v-.027l.168-.056a.226.226 0 0 1 .017-.004l-.002.006.002.087s-.001.017-.035.034l-.253.092-.005.001c0-.001-.005-.01-.005-.036v-.165c0-.003.002-.026.052-.04l.302-.098c.006-.003.017-.005.023-.002.005.003.01.016.01.043v.216c0 .01-.004.033-.053.057l-.319.117a.073.073 0 0 0-.047.023.085.085 0 0 0-.023.062v.267a.07.07 0 0 0 .025.053c.02.015.047.017.08.006l.314-.117a.098.098 0 0 0 .076-.093v-.17a.06.06 0 0 0-.026-.048c-.022-.015-.052-.016-.09-.004l-.221.091a.085.085 0 0 0-.063.083v.08c0 .007.005.031.029.045.019.012.043.013.071.003l.166-.066a.027.027 0 0 0 .017-.027l-.008-.078a.027.027 0 0 0-.012-.021.026.026 0 0 0-.024-.001l-.075.031a.027.027 0 0 0-.015.035c.006.013.021.02.035.014l.042-.018.003.024a34.34 34.34 0 0 0-.147.058c-.017.006-.024.002-.026.002l-.004-.007v-.074c0-.025.023-.031.027-.033l.222-.091c.029-.01.04-.004.042-.002a.01.01 0 0 1 .005.006v.167c-.002.034-.032.042-.038.043l-.317.119c-.017.005-.028.005-.031.002-.003-.002-.004-.01-.004-.013v-.262c-.002-.032.016-.038.026-.038.003 0 .006 0 .009-.002l.321-.118c.098-.046.086-.11.086-.113v-.208c0-.043-.012-.073-.036-.088-.031-.02-.066-.003-.07-.001ZM39.584 63.944l-.297.052c-.079.013-.095.062-.092.086v.155c-.001.047.009.077.031.092.018.012.038.01.05.004l.252-.055c.059-.02.07-.06.07-.079l-.003-.085c0-.029-.012-.043-.023-.05-.025-.02-.057-.009-.06-.008l-.183.035a.026.026 0 0 0-.021.026v.084c0 .008.003.016.01.021a.024.024 0 0 0 .022.004l.12-.03a.025.025 0 0 0 .019-.031.026.026 0 0 0-.032-.02l-.087.023v-.03l.165-.03a.035.035 0 0 1 .017-.002.11.11 0 0 0 0 .008l.003.087c0 .001-.001.017-.032.027l-.253.056c-.005.001-.014-.007-.013-.047v-.158c0-.01.01-.025.049-.03l.301-.055c.004 0 .016-.004.024.002s.014.024.014.048v.217c0 .008-.005.029-.05.045l-.317.071c-.01 0-.033 0-.052.018-.012.01-.025.03-.024.066v.26c0 .001-.002.034.024.057.018.017.045.022.078.016l.314-.073c.023-.001.076-.02.079-.086v-.17a.065.065 0 0 0-.026-.049c-.02-.017-.05-.022-.087-.015l-.22.06a.075.075 0 0 0-.068.076v.08a.07.07 0 0 0 .029.048.086.086 0 0 0 .069.01l.166-.042a.025.025 0 0 0 .019-.027l-.007-.08a.028.028 0 0 0-.011-.02.024.024 0 0 0-.022-.003l-.075.02a.026.026 0 1 0 .014.051l.045-.012.002.026-.143.037c-.026.005-.032-.006-.034-.013l.001-.075c0-.02.015-.024.023-.025l.223-.06c.026-.004.038 0 .043.005.005.003.007.009.007.01v.167c-.002.03-.025.034-.035.035l-.317.073c-.014.003-.027.001-.032-.003-.006-.006-.006-.017-.006-.017v-.262c0-.008 0-.02.006-.026.006-.006.016-.005.016-.005h.01l.32-.073c.102-.033.09-.1.09-.104v-.208c0-.044-.012-.075-.036-.091-.03-.021-.064-.01-.067-.01ZM40.161 63.817l-.297.053c-.078.012-.094.06-.091.085v.155c-.002.047.008.077.03.092.019.012.04.01.051.005l.251-.055c.059-.022.072-.06.07-.08l-.002-.086c0-.027-.013-.042-.023-.05-.025-.017-.057-.007-.061-.006l-.182.034a.026.026 0 0 0-.022.026v.085c0 .008.004.015.01.02a.03.03 0 0 0 .023.005l.12-.031a.026.026 0 0 0 .019-.032.026.026 0 0 0-.032-.019l-.087.023v-.03a365.556 365.556 0 0 0 .181-.032l.001.008.003.088s-.002.015-.032.026l-.253.056c-.005.001-.014-.007-.013-.047v-.158c0-.01.01-.025.048-.03l.302-.055c.003 0 .016-.004.023.002.009.006.014.023.014.047v.217c0 .009-.004.03-.05.045l-.316.072c-.01 0-.033 0-.053.018-.01.01-.024.03-.023.065v.261c0 .001-.002.034.023.057.019.017.045.022.079.016l.313-.074c.023 0 .077-.02.08-.085v-.17a.07.07 0 0 0-.026-.05c-.02-.016-.05-.02-.088-.014l-.22.06a.075.075 0 0 0-.067.076v.08c0 .007.005.032.029.049.018.012.04.015.068.01l.166-.043a.025.025 0 0 0 .02-.028l-.007-.08a.023.023 0 0 0-.012-.019.026.026 0 0 0-.022-.003l-.075.02a.027.027 0 0 0-.018.033.026.026 0 0 0 .032.018l.045-.012.003.026-.143.037c-.026.005-.033-.006-.034-.013v-.075c0-.02.015-.024.025-.025l.222-.06c.026-.004.038.001.043.004.005.004.006.01.006.01v.167c-.001.03-.024.035-.034.035l-.317.075c-.015.002-.027.001-.032-.004-.007-.005-.006-.017-.006-.017v-.262c-.001-.008 0-.02.006-.025.006-.007.016-.006.016-.006h.008l.323-.073c.1-.033.089-.1.088-.103v-.21c0-.042-.012-.073-.035-.09a.077.077 0 0 0-.068-.009ZM40.736 63.639l-.297.095c-.095.028-.09.092-.09.094v.155c0 .048.01.077.033.09.019.012.04.006.053 0l.251-.092c.069-.034.067-.08.067-.085l-.003-.085c0-.029-.012-.043-.023-.05-.025-.016-.057-.002-.063 0l-.183.061a.025.025 0 0 0-.018.025v.085c0 .009.004.017.011.021a.027.027 0 0 0 .025.003l.12-.047a.026.026 0 0 0 .014-.034.027.027 0 0 0-.034-.016l-.084.034v-.027l.168-.055c.003-.002.017-.005.017-.005l-.002.006.003.087s-.002.017-.036.034l-.253.092-.005.001c0-.001-.004-.01-.004-.036v-.165c0-.003.002-.025.051-.04l.302-.098c.007-.003.017-.006.023-.002.005.003.01.016.01.043v.217c0 .008-.003.032-.053.056l-.318.117a.07.07 0 0 0-.048.023.083.083 0 0 0-.022.062v.267c0 .01.002.036.024.053.02.016.047.017.081.007l.313-.118a.096.096 0 0 0 .076-.093v-.17c0-.004-.002-.03-.026-.047-.021-.015-.052-.017-.09-.004l-.221.09a.087.087 0 0 0-.063.083v.08c0 .007.005.032.029.046.018.011.043.012.072.002l.165-.066a.026.026 0 0 0 .017-.027l-.008-.078a.024.024 0 0 0-.012-.02.024.024 0 0 0-.024-.002l-.075.031a.027.027 0 0 0-.014.035c.006.013.021.02.034.014l.042-.018.002.023-.146.059c-.017.006-.024.003-.026.002l-.004-.007v-.074c0-.025.023-.032.028-.033l.222-.09c.028-.01.039-.005.042-.003a.009.009 0 0 1 .004.006v.167a.045.045 0 0 1-.038.044l-.317.118c-.017.005-.027.004-.03.002-.004-.003-.005-.01-.005-.013v-.262c0-.032.016-.037.026-.038a.04.04 0 0 0 .008-.001l.323-.119c.097-.046.085-.11.085-.112v-.21c0-.043-.012-.071-.036-.086-.03-.02-.066-.004-.07-.002ZM36.437 62.092c-.023.017-.035.048-.035.092v.213c0-.002-.012.065.086.098l.325.074h.008s.01 0 .017.005c.006.005.006.018.006.025v.262c0 .001 0 .013-.006.017-.006.005-.018.006-.034.004l-.311-.073c-.014-.001-.037-.006-.039-.037v-.168c0 .002.001-.004.007-.008.005-.003.017-.009.045-.004l.216.058c.013.003.028.007.028.027v.08c-.001.002-.008.013-.035.007l-.141-.037.002-.026.045.013a.027.027 0 0 0 .032-.018.026.026 0 0 0-.018-.033l-.075-.02a.028.028 0 0 0-.022.003.027.027 0 0 0-.011.02l-.007.08a.025.025 0 0 0 .02.027l.164.042c.029.006.052.003.07-.01.023-.016.028-.042.028-.044v-.084a.077.077 0 0 0-.07-.078l-.215-.058c-.04-.007-.069-.002-.09.015a.066.066 0 0 0-.025.047v.17a.088.088 0 0 0 .084.088l.308.072c.034.007.06.002.08-.015.024-.023.022-.056.022-.06V62.6c.002-.034-.011-.054-.023-.064a.07.07 0 0 0-.052-.018l-.319-.072c-.045-.016-.048-.038-.048-.043v-.218c0-.025.005-.042.014-.049.008-.005.02-.002.02-.002l.304.055c.04.006.05.021.05.03v.158c0 .04-.008.049-.008.05l-.261-.059c-.028-.01-.029-.025-.029-.026l.002-.087.002-.009h.013l.167.033v.03l-.086-.023a.026.026 0 0 0-.033.019.026.026 0 0 0 .02.032l.12.03c.008.002.016 0 .022-.004a.026.026 0 0 0 .01-.021v-.085a.027.027 0 0 0-.021-.026l-.186-.034a.067.067 0 0 0-.058.007c-.01.007-.023.022-.023.05l-.002.087c0 .018.012.057.067.077l.26.058c.007.004.027.006.045-.006.022-.015.032-.046.03-.093v-.157c.003-.022-.013-.07-.092-.083l-.3-.053c0-.001-.034-.012-.064.01ZM35.857 61.958c-.024.015-.036.046-.036.089v.214c0-.002-.012.063.085.101l.324.091a.04.04 0 0 0 .009.001s.01 0 .017.007c.006.005.007.017.007.025v.262c0 .004 0 .013-.005.017-.006.005-.018.005-.033 0l-.312-.089c-.012-.001-.038-.007-.04-.04v-.168c0 .001.001-.003.006-.006.003-.003.015-.008.044-.002l.217.07c.01.002.029.008.029.03v.078l-.006.006c-.005.003-.015.003-.027 0l-.143-.045c0-.01 0-.013.002-.025l.044.014a.026.026 0 0 0 .033-.016.027.027 0 0 0-.017-.034l-.075-.025a.025.025 0 0 0-.022.004.026.026 0 0 0-.012.019l-.008.08c0 .012.007.023.019.027l.165.051c.03.008.052.005.07-.007a.068.068 0 0 0 .029-.043v-.084c0-.056-.045-.076-.07-.08l-.214-.07c-.04-.01-.07-.005-.09.01a.067.067 0 0 0-.026.047v.17a.092.092 0 0 0 .083.09l.307.09c.035.008.062.004.08-.012a.073.073 0 0 0 .024-.055v-.267a.083.083 0 0 0-.023-.061.078.078 0 0 0-.05-.02l-.32-.09c-.047-.018-.049-.041-.049-.046v-.22c0-.032.01-.042.013-.045.006-.004.017-.002.02 0l.304.071c.04.008.05.025.05.033v.159c.002.04-.007.047-.007.047l-.26-.072c-.029-.013-.03-.028-.03-.03l.002-.085.001-.01.013.003.168.041v.03a9.034 9.034 0 0 0-.085-.028.026.026 0 0 0-.033.018.026.026 0 0 0 .017.032l.12.038c.008.002.017 0 .024-.004a.026.026 0 0 0 .01-.022v-.084a.026.026 0 0 0-.02-.026l-.185-.045c-.003-.001-.035-.012-.06.005-.01.007-.022.022-.022.05l-.003.087c0 .004-.001.05.066.08l.259.07c.007.005.028.008.046-.003.023-.014.034-.045.032-.093v-.156s.006-.066-.092-.086l-.3-.07c0-.001-.034-.014-.064.007ZM35.282 61.767c-.023.015-.035.045-.035.088v.214c0-.003-.013.06.082.106l.325.12.008.001c.01.001.028.006.026.037v.262c0 .005 0 .012-.003.014-.004.003-.015.003-.033-.002l-.311-.117c-.01-.002-.04-.01-.042-.046v-.168c.006-.006.018-.011.048-.002l.216.09c.008.003.031.01.031.034v.08c-.006.002-.013.005-.03-.001l-.146-.058.002-.023.042.017c.014.006.029-.001.035-.014a.026.026 0 0 0-.014-.034l-.075-.032a.026.026 0 0 0-.036.021l-.008.08a.028.028 0 0 0 .016.026l.165.066c.03.01.054.01.072-.002a.063.063 0 0 0 .03-.042v-.084c0-.054-.044-.078-.067-.084l-.215-.088c-.04-.014-.07-.012-.093.003a.06.06 0 0 0-.026.046v.17c.003.065.054.09.08.095l.309.116c.035.012.062.01.082-.005a.068.068 0 0 0 .024-.054v-.267a.086.086 0 0 0-.022-.062.077.077 0 0 0-.048-.023l-.321-.118c-.049-.024-.051-.048-.051-.053v-.219c0-.026.006-.04.011-.043.005-.003.016 0 .02.001l.304.098c.051.015.052.039.052.04v.16c0 .037-.006.044-.006.044l-.26-.096c-.03-.015-.032-.033-.032-.033l.003-.087v-.007c0 .002.012.004.012.004l.17.057v.027l-.084-.033a.026.026 0 0 0-.034.015c-.005.013.001.029.015.034l.12.048a.026.026 0 0 0 .024-.003.026.026 0 0 0 .012-.022v-.085a.028.028 0 0 0-.018-.025l-.186-.06c-.003-.002-.035-.017-.06 0-.011.007-.024.02-.024.05l-.002.086c-.001.004-.002.05.064.082l.258.094c.008.006.03.01.049 0 .023-.014.033-.044.032-.092v-.156s.005-.063-.09-.092l-.3-.096s-.036-.017-.067.002ZM36.293 63.949c-.023.017-.035.047-.035.088v.209c0-.003-.012.063.086.095l.325.071.008.001c.003 0 .012 0 .017.004.005.006.006.016.006.023v.255c0 .001 0 .012-.006.017-.005.005-.018.005-.034.003l-.311-.07c-.015-.002-.037-.007-.038-.036v-.163c0 .001 0-.004.005-.006.005-.004.018-.01.046-.004l.216.056c.011.001.028.006.028.024v.079c-.001 0-.008.011-.035.005l-.142-.035.003-.024.045.013a.026.026 0 0 0 .032-.019.026.026 0 0 0-.018-.032l-.075-.02a.027.027 0 0 0-.022.003.028.028 0 0 0-.011.02l-.008.077a.026.026 0 0 0 .02.028l.165.04c.029.006.052.003.07-.01a.068.068 0 0 0 .028-.042v-.083c0-.054-.046-.074-.07-.076l-.215-.056c-.04-.007-.07-.002-.09.015a.065.065 0 0 0-.025.046v.165a.086.086 0 0 0 .084.086l.308.07c.035.006.061 0 .08-.016a.074.074 0 0 0 .022-.057v-.251c.002-.034-.011-.053-.023-.064a.073.073 0 0 0-.052-.018c-.007 0-.32-.07-.32-.07-.045-.014-.047-.036-.047-.04v-.213c0-.022.005-.039.013-.045.008-.006.02-.002.021-.002l.305.053c.038.006.048.02.048.027v.154c.001.04-.007.047-.007.047l-.262-.057c-.027-.009-.028-.023-.028-.023l.002-.084.001-.01a42.927 42.927 0 0 0 .181.032v.028l-.087-.022a.026.026 0 1 0-.012.051l.12.03c.008.002.016 0 .022-.005a.025.025 0 0 0 .01-.02v-.083a.026.026 0 0 0-.021-.026l-.186-.034c-.003 0-.034-.01-.058.008-.01.008-.023.022-.023.05l-.002.083c-.001.019.011.057.067.076l.26.057a.054.054 0 0 0 .045-.007c.022-.015.032-.045.03-.091v-.152s.007-.066-.092-.08l-.3-.053s-.034-.011-.064.01ZM35.73 63.82c-.024.017-.036.047-.036.09v.214c0-.002-.012.063.085.1l.324.092a.025.025 0 0 0 .009.001s.011 0 .017.006c.006.006.007.018.007.026v.262c0 .005 0 .013-.005.017-.005.004-.018.004-.033.001l-.312-.09c-.012-.002-.038-.008-.04-.04v-.168c0 .001.001-.004.006-.007.003-.002.015-.007.045-.001l.216.07c.01.002.029.008.029.03v.078c0-.001-.002.003-.006.005-.005.003-.015.003-.027 0l-.143-.044.002-.025.043.014a.027.027 0 0 0 .034-.017c.005-.013-.003-.028-.016-.033l-.076-.025a.027.027 0 0 0-.022.003.027.027 0 0 0-.012.02l-.007.079a.027.027 0 0 0 .018.028l.164.05c.03.008.053.006.072-.006a.065.065 0 0 0 .028-.043v-.084c0-.055-.045-.077-.07-.08l-.213-.07c-.04-.01-.07-.006-.092.01a.068.068 0 0 0-.025.046v.171a.09.09 0 0 0 .083.09l.307.09c.035.007.062.004.08-.012a.074.074 0 0 0 .024-.055v-.267a.083.083 0 0 0-.022-.061.077.077 0 0 0-.05-.02l-.32-.09c-.047-.018-.05-.041-.05-.046v-.22c0-.032.01-.042.013-.045.006-.004.017-.002.02 0l.304.07c.04.009.05.026.05.034v.16c.001.038-.007.046-.007.046l-.26-.073c-.029-.012-.03-.027-.03-.028l.002-.087a.19.19 0 0 1 .002-.009l.012.003s.137.033.169.042v.028l-.086-.027a.026.026 0 0 0-.033.017.026.026 0 0 0 .017.033l.12.037c.008.003.017.001.024-.004a.027.027 0 0 0 .01-.02V64a.026.026 0 0 0-.02-.026l-.185-.045c-.004-.001-.034-.012-.06.005-.01.007-.023.022-.023.05l-.002.086c0 .005-.001.052.066.08l.26.071c.007.005.027.008.045-.003.023-.015.033-.045.032-.093v-.157s.006-.065-.091-.086l-.3-.07s-.035-.013-.065.007ZM35.173 63.628c-.024.014-.036.044-.036.087v.214c0-.003-.011.061.084.107l.324.119a.022.022 0 0 0 .008.001c.01 0 .027.006.026.037v.262c0 .005 0 .012-.004.014-.003.003-.014.004-.032-.002l-.312-.117c-.01-.003-.04-.01-.041-.045v-.17c.006-.004.017-.01.048 0l.216.089c.008.002.03.01.03.034v.08c-.005.002-.012.005-.03-.001l-.145-.058.002-.023.042.017c.014.006.029 0 .035-.014a.026.026 0 0 0-.014-.034l-.076-.032a.027.027 0 0 0-.024.002.025.025 0 0 0-.012.02l-.007.079c-.001.01.006.022.016.027l.165.065c.03.01.054.01.073-.002a.064.064 0 0 0 .028-.042v-.084c0-.053-.043-.078-.066-.084l-.215-.088c-.04-.013-.072-.012-.093.003a.062.062 0 0 0-.026.046v.17a.1.1 0 0 0 .08.095l.309.116c.035.012.062.01.081-.005a.07.07 0 0 0 .025-.054v-.268c0-.03-.012-.05-.022-.06a.073.073 0 0 0-.048-.024l-.321-.118c-.049-.024-.052-.047-.052-.053v-.219c0-.026.006-.04.012-.043.005-.003.015 0 .02.002l.303.098c.052.015.053.039.053.039v.16c0 .037-.007.044-.007.045l-.259-.097c-.03-.015-.032-.032-.032-.033l.003-.087v-.007c0 .002.012.004.012.004l.17.058v.026l-.084-.033a.026.026 0 0 0-.034.015.026.026 0 0 0 .015.033l.12.049a.026.026 0 0 0 .036-.024v-.086a.026.026 0 0 0-.018-.025l-.186-.061c-.003-.002-.035-.016-.06 0-.011.007-.024.022-.024.05l-.002.087c0 .004-.002.05.063.083l.26.093c.007.006.028.01.048 0 .022-.014.032-.044.031-.091v-.158c0 .001.006-.062-.089-.09l-.3-.097c0-.001-.036-.017-.067.003ZM35.675 61.247c-.005.03-.038.05-.074.044-.035-.006-.06-.035-.055-.066.006-.03.039-.05.074-.044.035.006.06.035.055.066Zm-.067-.174c-.107-.019-.207.04-.222.129-.015.09.06.177.168.195.107.018.207-.04.222-.13.015-.089-.06-.177-.168-.194ZM36.128 61.454c-.037-.003-.064-.03-.062-.06.003-.032.034-.054.07-.052.035.002.063.03.06.06-.002.031-.033.055-.068.052Zm-.014-.219c-.11-.008-.202.06-.21.15-.005.09.078.17.186.178.109.008.202-.059.209-.15.006-.09-.077-.17-.185-.178ZM36.709 61.555c-.006.031-.038.05-.074.045-.036-.007-.06-.036-.055-.067.006-.03.039-.05.074-.044.036.006.06.036.055.066Zm-.066-.174c-.107-.02-.207.039-.223.128-.015.09.06.178.167.196.108.018.207-.04.222-.128.016-.09-.059-.178-.166-.196ZM40.379 61.286c-.036.006-.069-.014-.074-.045-.005-.03.02-.06.055-.066.036-.005.069.015.074.045.005.03-.02.06-.055.066Zm.215-.09c-.015-.089-.115-.147-.222-.129-.108.018-.183.105-.167.195.014.09.114.148.221.13.107-.018.183-.106.167-.196ZM39.87 61.471c-.035.003-.066-.02-.069-.051-.002-.03.026-.059.062-.06.035-.003.066.02.069.05.001.032-.025.059-.062.061Zm.223-.069c-.007-.09-.1-.157-.209-.15-.108.008-.191.088-.185.179.007.09.1.158.209.15.109-.008.191-.088.185-.179ZM39.345 61.61c-.035.005-.068-.015-.073-.045-.006-.031.018-.06.054-.066.036-.007.069.013.074.044.005.03-.02.06-.055.066Zm.215-.092c-.016-.089-.115-.147-.223-.128-.107.018-.181.106-.166.195.015.09.115.148.222.13.107-.02.182-.106.167-.197ZM40.49 63.132c-.035.007-.068-.014-.073-.044-.005-.03.02-.06.055-.066.036-.006.069.014.074.045.005.03-.02.06-.056.065Zm.216-.088c-.015-.09-.114-.148-.222-.13-.108.017-.183.105-.168.195.015.09.115.148.222.13.108-.019.183-.105.168-.195ZM39.953 63.318c-.036.002-.066-.02-.069-.052-.002-.03.025-.058.061-.06.036-.003.067.02.07.051.002.03-.026.058-.062.06Zm.223-.069c-.007-.09-.1-.158-.21-.15-.108.008-.19.087-.184.178.007.09.1.158.209.15.108-.008.191-.088.185-.178ZM39.413 63.457c-.035.007-.069-.013-.074-.044-.005-.03.02-.06.055-.066.036-.006.069.013.074.044.005.03-.02.06-.055.066Zm.215-.09c-.016-.09-.115-.148-.223-.129-.107.019-.181.106-.166.196.015.09.114.147.222.128.107-.018.182-.105.167-.195ZM40.615 64.934c-.035.006-.069-.014-.073-.044-.005-.031.019-.061.055-.066.035-.007.068.013.073.044.005.03-.02.06-.055.066Zm.215-.09c-.015-.09-.114-.147-.222-.129-.107.018-.182.105-.167.195.015.09.114.148.221.13.108-.019.183-.106.168-.195ZM40.101 65.107c-.035.003-.066-.02-.068-.05-.003-.032.024-.059.06-.061.036-.003.067.02.07.05.002.031-.026.059-.062.061Zm.223-.068c-.006-.09-.1-.158-.209-.15-.109.007-.19.087-.185.178.007.091.1.158.209.15.109-.008.192-.088.185-.178ZM39.577 65.249c-.035.007-.068-.014-.074-.044-.005-.03.02-.06.055-.067.036-.005.069.014.074.045.005.03-.02.06-.055.066Zm.215-.09c-.016-.09-.115-.148-.223-.129-.107.019-.181.106-.166.195.015.09.115.148.222.13.107-.019.182-.107.167-.196ZM35.531 63.09c-.005.031-.038.05-.073.045-.036-.006-.06-.035-.055-.066.005-.03.038-.05.073-.044.036.006.06.035.055.066Zm-.066-.174c-.108-.018-.207.04-.222.13-.015.09.06.177.167.195.107.017.207-.04.222-.13.015-.09-.06-.177-.167-.195ZM36 63.324c-.037-.004-.063-.032-.06-.063.004-.031.036-.053.072-.049.036.005.062.033.058.064-.003.03-.035.052-.07.048Zm-.005-.219c-.108-.012-.204.05-.215.141-.01.09.069.173.177.186.109.012.204-.05.215-.14.01-.09-.069-.175-.177-.187ZM36.637 63.415c-.005.03-.038.05-.074.044-.035-.006-.06-.036-.054-.066.004-.031.038-.05.073-.044.036.006.06.035.055.066Zm-.066-.175c-.107-.018-.207.04-.222.129-.016.09.059.177.166.196.108.018.207-.04.222-.13.016-.089-.058-.176-.166-.195ZM35.397 64.888c-.005.03-.038.05-.073.044-.036-.006-.06-.035-.055-.066.005-.03.038-.05.074-.045.035.006.06.036.054.067Zm-.066-.175c-.108-.018-.207.04-.222.13-.015.09.06.176.167.195.108.018.207-.04.222-.13.015-.09-.06-.177-.167-.195ZM35.896 65.11c-.037-.002-.063-.03-.061-.06.002-.031.032-.054.069-.052.035.003.063.03.06.06-.002.032-.033.055-.068.052Zm-.014-.218c-.11-.008-.203.059-.21.15-.005.09.078.17.186.178.109.007.202-.06.209-.15.006-.091-.077-.17-.185-.178ZM36.51 65.195c-.006.03-.04.05-.075.044-.035-.006-.06-.036-.054-.066.005-.031.038-.05.074-.044.035.006.06.035.054.066Zm-.067-.175c-.108-.018-.207.04-.222.129-.015.09.059.177.167.195.107.02.206-.039.222-.128.015-.09-.06-.177-.167-.196Z" clip-rule="evenodd"/><path fill="#005093" fill-rule="evenodd" d="M40.788 61.547c-.637.333-1.763.457-1.776.458a.04.04 0 0 0-.036.043.04.04 0 0 0 .043.036c.05-.005 1.09-.121 1.752-.442l.058.89c-.152.064-.98.389-1.794.461a.04.04 0 0 0-.037.04v.002c.002.022.02.04.042.037.93-.105 1.836-.475 1.846-.479l.025-.01-.069-1.065-.053.029ZM35.2 61.547c.638.333 1.773.465 1.786.467a.04.04 0 0 1 .036.042.04.04 0 0 1-.043.036c-.05-.004-1.099-.13-1.76-.45l-.059.89c.152.064.98.389 1.794.461a.04.04 0 0 1 .037.04v.002c-.001.022-.02.04-.041.037-.931-.105-1.837-.475-1.847-.479l-.025-.01.069-1.065.054.029ZM40.919 63.406c-.638.335-1.886.45-1.899.45a.04.04 0 0 0-.035.044.04.04 0 0 0 .042.036c.05-.005 1.212-.113 1.874-.434l.058.89c-.151.064-1.023.418-1.828.462a.039.039 0 0 0-.037.04v.002c.001.021.02.038.041.037.895-.05 1.871-.475 1.881-.48l.026-.01-.07-1.065-.053.028ZM35.074 63.406c.637.335 1.885.45 1.898.45a.04.04 0 0 1 .036.044.04.04 0 0 1-.043.036c-.05-.005-1.212-.113-1.874-.434l-.058.89c.151.064 1.023.418 1.828.462.021.001.037.018.037.04v.002a.04.04 0 0 1-.041.037c-.895-.05-1.871-.475-1.881-.48l-.026-.01.07-1.065.053.028Z" clip-rule="evenodd"/><path fill="#005093" fill-rule="evenodd" d="M37.44 62.956h-.134a.087.087 0 0 1-.088-.087c0-.048.04-.087.088-.087h.134c.05 0 .089.04.089.087 0 .048-.04.087-.089.087Zm-.111-.763h.15c.054 0 .098.04.098.089 0 .048-.044.089-.099.089h-.15c-.054 0-.098-.04-.098-.09 0-.049.044-.088.099-.088Zm-.014.428c-.11.008-.097-.073-.097-.073-.005-.08.097-.085.097-.085l.339-.012c.157-.032.125-.226.125-.226 0-.15-.08-.133-.153-.162-.073-.028-.283.016-.283.016-.121-.007-.089-.104-.089-.104-.004-.154-.12-.158-.12-.158-.126-.008-.13.23-.13.23l.004.856.02.162c.008.069.097.085.145.089.049.004.089-.025.089-.025l.198-.003c.201-.02.238-.09.263-.154a.044.044 0 0 0 .003-.011c.018-.07-.003-.22-.003-.22-.037-.185-.408-.12-.408-.12ZM38.096 61.99l.759.008s.133.01.133.11c0 0-.02.137-.133.142l-.201.011s-.073-.012-.073.081c0 0-.02.09.1.1 0 0 .315.01.344.142 0 0 .109.158.032.368 0 0-.093.238-.178.004l-.028-.153-.02-.061s-.04-.08-.137-.08c0 0-.113-.021-.11.136l-.02.259s-.048.153-.128.153c0 0-.138.016-.138-.197l-.012-.25s.024-.098-.121-.102c0 0-.146-.02-.137.186l-.013.117s-.028.113-.104.109c0 0-.11.024-.105-.166l-.005-.25s.036-.173.198-.178l.117-.004s.162.016.166-.133c0 0-.016-.1-.141-.1l-.19-.005s-.093.008-.09-.129c0 0-.011-.118.17-.118h.065ZM37.326 63.658l.379.008s.124-.242.265-.247c0 0 .136-.019.246.247l.542-.016s.238-.004.258.175l.078.3s.078.493.218.762c0 0 .118.113.024.2 0 0-.121.116-.274-.153 0 0-.144-.172-.308-.921 0 0 .012-.16-.12-.152l-.336.008s.097.25.175.632c0 0 .055.206.11.32 0 0 .066.16-.06.226 0 0-.175.024-.225-.18l-.172-.648-.078-.26s-.07-.168-.129-.032l-.066.27s-.117.6-.234.737c0 0-.137.18-.227.113 0 0-.136-.062-.02-.27 0 0 .13-.269.157-.487l.078-.421-.273-.008s-.066-.056-.11.128l-.155.5-.133.375-.02.136s-.023.028-.062.059c-.04.031-.113.05-.145.035-.03-.016-.082-.043-.085-.066a.86.86 0 0 1 .023-.153c.004-.016.062-.164.062-.164l.227-.678.062-.247s.07-.108.175-.12l.106-.016.047.008ZM38.084 66.268a.027.027 0 0 0 .002.037c.309.273.705.45 1.146.511a.026.026 0 1 0 .008-.051 2.091 2.091 0 0 1-1.119-.499.027.027 0 0 0-.037.002ZM37.743 65.846a.027.027 0 0 0-.011.035c.002.004.052.101.166.234.01.01.026.011.037.002a.026.026 0 0 0 .002-.037c-.108-.127-.158-.222-.158-.223-.007-.013-.023-.019-.036-.011Z" clip-rule="evenodd"/><path fill="#005093" fill-rule="evenodd" d="M37.997 66.349a.026.026 0 0 0 .002.037c.266.233.698.521 1.254.574.014 0 .027-.01.029-.025a.027.027 0 0 0-.024-.029c-.542-.05-.965-.332-1.224-.56a.027.027 0 0 0-.037.003ZM37.564 65.857a.027.027 0 0 0-.008.036c.004.005.09.138.253.31.01.01.026.01.037 0 .01-.009.01-.026 0-.037-.159-.168-.245-.3-.246-.301a.026.026 0 0 0-.036-.008Z" clip-rule="evenodd"/><path fill="#005093" fill-rule="evenodd" d="M37.891 66.432a.027.027 0 0 0 .003.037 2.51 2.51 0 0 0 1.378.607.026.026 0 0 0 .029-.022.026.026 0 0 0-.023-.03 2.458 2.458 0 0 1-1.35-.595.027.027 0 0 0-.037.003ZM37.343 65.776a.026.026 0 0 0-.01.036c.005.008.157.256.375.481.01.01.026.01.037 0a.026.026 0 0 0 0-.037 3.043 3.043 0 0 1-.366-.47.027.027 0 0 0-.036-.01Z" clip-rule="evenodd"/><path fill="#005093" fill-rule="evenodd" d="M38.377 66.786c-.026.15.01.224.011.227.152.338.536.366.552.368a.14.14 0 0 0 .174-.104c.002-.056-.012-.097-.041-.127-.05-.05-.124-.047-.127-.047 0 0-.297-.02-.302-.206a.026.026 0 0 0-.026-.025.027.027 0 0 0-.026.027c.006.232.339.255.354.256.002 0 .056 0 .09.033.019.018.028.047.026.082 0 .004-.022.077-.115.059-.007 0-.372-.029-.511-.338 0-.001-.03-.066-.008-.196a.027.027 0 0 0-.021-.03.026.026 0 0 0-.03.021Z" clip-rule="evenodd"/><path fill="#005093" fill-rule="evenodd" d="M38.455 66.835c0 .004-.005.417.54.438.014 0 .026-.011.027-.025a.027.027 0 0 0-.025-.028c-.492-.018-.49-.37-.49-.385a.026.026 0 0 0-.026-.026.027.027 0 0 0-.026.026ZM39.798 66.4c.087.05.11.092.113.118.004.026-.012.043-.013.044a.093.093 0 0 1-.067.04c-.11.013-.273-.124-.274-.126l-.047-.027c.18-.124.284-.052.288-.049Zm-.92-.111a.658.658 0 0 0-.4.252.026.026 0 0 0 .008.036.025.025 0 0 0 .036-.007.61.61 0 0 1 .366-.229c.195-.038.408.022.637.177.005.005.179.151.313.136a.14.14 0 0 0 .1-.059c.01-.009.03-.041.025-.084-.007-.053-.053-.106-.135-.154-.003-.003-.138-.102-.357.054-.004.002-.004.007-.005.01-.21-.121-.406-.167-.589-.132Z" clip-rule="evenodd"/><path fill="#005093" fill-rule="evenodd" d="M39.373 66.361a.026.026 0 0 0-.002.037c.01.011.027.013.038.003.082-.075.3-.226.54-.022.004.004.137.147.02.303-.003.006-.084.118-.312-.027-.028-.02-.725-.503-1.06-.067a.027.027 0 0 0 .005.037.027.027 0 0 0 .037-.004c.304-.397.982.074.988.078.275.175.381.02.386.013.143-.19-.026-.369-.028-.37-.28-.24-.54-.046-.612.02Z" clip-rule="evenodd"/><path fill="#005093" fill-rule="evenodd" d="M39.243 66.32a.026.026 0 0 0 .035.04c.444-.395.768-.043.782-.027.2.236-.032.444-.043.453-.213.16-.455-.05-.465-.06-.523-.392-.841-.095-.844-.092a.027.027 0 0 0-.001.037c.01.011.027.011.037 0 .012-.01.29-.267.775.096.001.002.282.247.531.059.005-.003.284-.251.049-.528-.004-.005-.372-.407-.856.022Z" clip-rule="evenodd"/><path fill="#005093" fill-rule="evenodd" d="M39.45 65.814a.112.112 0 0 0-.076.054c-.03.056-.003.13 0 .133.038.148-.008.22-.008.22a.026.026 0 0 0 .007.037.027.027 0 0 0 .036-.006c.003-.004.06-.091.014-.267-.007-.018-.018-.063-.002-.092.007-.014.02-.023.041-.028.002 0 .046-.009.09.024.053.04.085.123.094.242.001.014.014.025.028.024a.027.027 0 0 0 .025-.028c-.01-.137-.05-.232-.116-.28a.17.17 0 0 0-.133-.033Z" clip-rule="evenodd"/><path fill="#005093" fill-rule="evenodd" d="M39.434 65.844a.026.026 0 0 0-.003.037c.049.056.083.232.092.296a.026.026 0 0 0 .03.021c.015 0 .024-.014.022-.029-.004-.025-.037-.245-.104-.322a.027.027 0 0 0-.037-.003ZM40.361 65.864c-.283.135-.223.588-.22.607a.026.026 0 0 0 .03.022.026.026 0 0 0 .022-.03c-.001-.003-.058-.433.186-.551.028-.007.127-.022.162.017.01.01.014.026.014.043a.23.23 0 0 1-.02.08c-.02.023-.14.173-.144.464 0 .002-.004.227-.136.315-.07.047-.168.047-.29-.001a.027.027 0 0 0-.034.014.027.027 0 0 0 .015.035c.139.055.253.053.339-.005.154-.103.158-.347.158-.357.005-.29.134-.432.135-.434l.003-.004.003-.004c.032-.08.031-.141-.004-.18-.062-.072-.203-.036-.219-.031Z" clip-rule="evenodd"/><path fill="#005093" fill-rule="evenodd" d="M40.55 65.897a.295.295 0 0 0-.204.12.52.52 0 0 0-.078.299c0 .07.008.12.01.133-.005.098-.032.168-.078.21-.045.04-.093.037-.095.037a.026.026 0 0 0-.004.053c.003 0 .071.004.133-.05.058-.051.09-.136.097-.25v-.007c-.001-.002-.045-.25.058-.394a.244.244 0 0 1 .169-.1.026.026 0 0 0 .023-.029.027.027 0 0 0-.03-.022ZM39.231 66.558a.026.026 0 0 0-.026.027c0 .01 0 .257.084.537.004.008.196.367.026.527a.027.027 0 0 0 0 .037c.01.01.027.011.037 0 .199-.187-.006-.568-.015-.585a2.068 2.068 0 0 1-.08-.516.027.027 0 0 0-.026-.026Z" clip-rule="evenodd"/><path fill="#005093" fill-rule="evenodd" d="M39.348 66.637a.428.428 0 0 0-.014.115c0 .216.123.463.137.489.019.081.027.15.027.21 0 .232-.117.308-.124.313a.026.026 0 0 0-.013.022c0 .004.002.01.005.014a.026.026 0 0 0 .035.008c.01-.005.226-.143.12-.582v-.004l-.002-.002c-.002-.004-.18-.351-.12-.57a.027.027 0 0 0-.019-.032.027.027 0 0 0-.032.019Z" clip-rule="evenodd"/><path fill="#005093" fill-rule="evenodd" d="M39.46 66.72c-.001.008-.02.205.084.463.003.006.194.44-.099.655a.027.027 0 0 0-.005.037.027.027 0 0 0 .036.005c.328-.24.119-.713.117-.718-.099-.244-.081-.436-.081-.438a.026.026 0 0 0-.024-.028.026.026 0 0 0-.028.024Z" clip-rule="evenodd"/><path fill="#005093" fill-rule="evenodd" d="M39.578 67.176a.027.027 0 0 0-.02.032.026.026 0 0 0 .031.02c.024-.005.094-.013.127.01a.026.026 0 0 0 .036-.006.026.026 0 0 0-.006-.037c-.057-.039-.156-.021-.168-.019ZM39.602 67.322a.026.026 0 0 0 .022.029l.074.01a.026.026 0 0 0 .03-.023.026.026 0 0 0-.023-.029l-.074-.01a.026.026 0 0 0-.03.022ZM39.611 67.466c0 .014.01.027.025.027l.073.005a.026.026 0 0 0 .028-.024.027.027 0 0 0-.025-.028l-.073-.005c-.014-.002-.027.01-.028.025Z" clip-rule="evenodd"/><path fill="#005093" fill-rule="evenodd" d="M40.932 66.413a.199.199 0 0 1 .16.038c.004.007.014.03.014.062a.12.12 0 0 1-.007.042c-.016.042-.057.075-.122.099-.005.002-.09.04-.172.219 0-.001-.164.245-.556.26-.009 0-.178.02-.242.121a.164.164 0 0 0-.012.148c0-.002.039.225.256.263l-.006-.002c.003.001.282.122.408.37.01.02.234.492.555.596.002 0 .079.024.1.077.011.027.005.06-.016.096-.003.004-.087.121-.262.001l-.056-.03c-.003-.002-.27-.15-.46-.557-.002-.007-.085-.23-.458-.41-.018-.006-.375-.132-.319-.532.002-.006.078-.248.427-.276.018-.002.407-.054.48-.328l-.003.006c.001-.002.129-.227.29-.263Zm-.012-.05c-.185.04-.32.277-.325.287l-.002.004v.002c-.064.24-.43.29-.434.29-.385.03-.47.306-.473.317-.062.447.346.59.35.592.35.167.43.379.43.38.198.428.471.578.483.584l.054.03c.074.05.146.07.212.057.08-.016.12-.074.12-.076.032-.053.04-.1.022-.144-.031-.078-.13-.106-.133-.107-.299-.097-.521-.565-.523-.57-.136-.265-.423-.39-.435-.395h-.004l-.002-.001c-.18-.031-.213-.216-.214-.224-.015-.044-.013-.078.006-.107.05-.08.2-.097.202-.097.418-.016.59-.276.597-.288.074-.16.145-.195.146-.195.078-.028.13-.071.151-.129a.191.191 0 0 0-.012-.153l-.003-.005-.004-.004a.252.252 0 0 0-.209-.049Z" clip-rule="evenodd"/><path fill="#005093" fill-rule="evenodd" d="M41.08 66.395c-.01.006-.277.154-.393.4 0-.002-.134.206-.498.24-.002 0-.377.013-.372.354 0 .004.025.28.327.383.002 0 .366.155.464.449v.003l.002.002c.015.023.357.569.653.654a.026.026 0 0 0 .032-.018l.002-.008a.027.027 0 0 0-.02-.025c-.275-.08-.616-.62-.622-.63-.108-.313-.477-.47-.493-.477a.41.41 0 0 1-.293-.335v-.006c0-.281.31-.294.323-.295.393-.035.535-.257.541-.267.11-.232.37-.376.373-.378a.027.027 0 0 0 .014-.023.029.029 0 0 0-.003-.013.027.027 0 0 0-.036-.01Z" clip-rule="evenodd"/><path fill="#005093" fill-rule="evenodd" d="M40.613 67.037c-.075.218-.077.378-.008.477.063.09.16.092.165.092.13.009.183-.12.192-.19-.002-.04-.01-.09-.046-.1-.038-.01-.07.034-.08.049-.007.011-.03.024-.045.028-.028.004-.051-.001-.064-.016-.028-.03-.017-.1-.01-.123a.163.163 0 0 1 .086-.104c.083-.035.19.017.19.017.242.177.085.417.079.428-.154.266-.479.124-.492.118-.267-.122-.197-.55-.196-.555a.026.026 0 0 0-.022-.03.026.026 0 0 0-.03.021c-.003.019-.078.472.226.612.004.001.382.168.558-.139.001-.001.192-.291-.095-.5-.01-.004-.133-.064-.238-.02a.212.212 0 0 0-.117.136c-.003.013-.03.117.021.174.026.029.065.04.116.032.014-.004.059-.02.078-.052a.086.086 0 0 1 .02-.021c.003.004.007.014.01.044-.001 0-.023.146-.14.139a.165.165 0 0 1-.124-.071c-.057-.083-.053-.232.015-.429a.026.026 0 0 0-.016-.033.026.026 0 0 0-.033.016Z" clip-rule="evenodd"/><path fill="#005093" fill-rule="evenodd" d="M40.465 67.107c0 .005-.12.45.187.58.005.002.26.083.386-.149.004-.01.052-.157-.017-.248-.034-.046-.091-.068-.169-.065-.059.002-.172.036-.177.153 0 .014.01.026.026.027.014 0 .026-.01.026-.025.005-.097.122-.102.128-.102.059-.002.1.012.124.044.052.068.011.195.011.195-.103.19-.31.124-.32.12-.262-.11-.155-.512-.154-.516a.026.026 0 0 0-.05-.014ZM39.896 68.215c-.002.013-.043.251.05.368.032.04.074.06.127.063 0 0 .084.012.131-.042.034-.04.038-.1.013-.18-.003-.006-.05-.119.047-.18.005-.003.085-.058.213.061.01.01.028.01.038-.001a.027.027 0 0 0-.002-.038c-.16-.15-.273-.068-.279-.065-.106.066-.09.187-.067.242.018.058.018.103-.003.127-.027.032-.085.023-.086.023a.115.115 0 0 1-.09-.043c-.079-.098-.04-.32-.04-.323.066-.264.33-.208.34-.205a.026.026 0 0 0 .032-.02.026.026 0 0 0-.02-.031c-.003 0-.325-.07-.404.244Z" clip-rule="evenodd"/><path fill="#005093" fill-rule="evenodd" d="M40.07 68.175c0 .001-.145.24.07.425.011.01.028.008.037-.003a.026.026 0 0 0-.003-.037c-.18-.154-.063-.35-.058-.358.068-.12.289-.077.29-.077a.026.026 0 0 0 .032-.02.026.026 0 0 0-.02-.031c-.011-.002-.26-.052-.347.1ZM39.35 67.206c-.01.004-.232.076-.296.272-.044.136 0 .294.131.47l.002.004.003.002c.064.047.223.194.203.292-.009.044-.056.077-.14.098-.014.006-.097.048-.106.117-.004.037.013.072.052.105.014.008.249.127.422-.035a.439.439 0 0 0 .103-.305c-.009-.129-.08-.25-.211-.362-.004-.003-.14-.097-.154-.22-.006-.056.014-.112.063-.164a.026.026 0 1 0-.04-.035.255.255 0 0 0-.075.206c.018.146.167.25.174.255.117.1.183.21.19.323.011.153-.086.264-.087.265-.145.135-.348.033-.356.029-.018-.016-.029-.034-.029-.05v-.006c.005-.034.054-.065.073-.074.1-.025.16-.071.172-.137a.125.125 0 0 0 .004-.028c0-.137-.19-.288-.222-.313-.09-.122-.136-.233-.136-.33 0-.032.005-.062.014-.09.055-.17.26-.237.262-.239a.026.026 0 0 0 .018-.024v-.008a.026.026 0 0 0-.034-.018Z" clip-rule="evenodd"/><path fill="#005093" fill-rule="evenodd" d="M39.379 67.325c-.006.001-.164.056-.212.19-.028.078-.013.166.046.26.002.003.053.087.172.192.001.001.187.183.151.351-.02.092-.102.165-.245.218a.026.026 0 0 0 .017.05c.162-.06.256-.146.28-.257.041-.197-.16-.392-.167-.4a.84.84 0 0 1-.163-.181c-.05-.081-.064-.153-.042-.216.04-.11.178-.157.18-.158a.026.026 0 0 0 .017-.033c-.005-.014-.02-.02-.034-.016ZM38.63 67.438a.026.026 0 0 0 .007.036c.255.174.427.162.434.161a.026.026 0 0 0 .024-.028.026.026 0 0 0-.028-.024c-.002 0-.162.01-.4-.153a.027.027 0 0 0-.037.008ZM38.595 67.538a.026.026 0 0 0 .01.035c.012.007.286.155.479.19a.026.026 0 0 0 .03-.021.026.026 0 0 0-.02-.031c-.186-.033-.46-.182-.464-.184a.027.027 0 0 0-.035.01Z" clip-rule="evenodd"/><path fill="#005093" fill-rule="evenodd" d="M38.536 67.64a.027.027 0 0 0 .01.036c.013.008.327.194.614.224a.025.025 0 0 0 .028-.024.027.027 0 0 0-.023-.029c-.275-.027-.589-.214-.592-.216-.013-.007-.029-.004-.037.008ZM38.06 65.874c-.005.007-.364.698-1.42.846a.026.026 0 0 0-.022.03.027.027 0 0 0 .03.022c1.084-.152 1.454-.867 1.458-.875a.026.026 0 0 0-.047-.024Z" clip-rule="evenodd"/><path fill="#005093" fill-rule="evenodd" d="M38.233 65.879c-.006.01-.578.887-1.611.983a.026.026 0 0 0-.024.029.027.027 0 0 0 .029.023c1.06-.098 1.644-.997 1.65-1.006a.026.026 0 0 0-.007-.037.026.026 0 0 0-.037.008Z" clip-rule="evenodd"/><path fill="#005093" fill-rule="evenodd" d="M38.454 65.806c-.005.01-.607 1.034-1.852 1.173a.026.026 0 0 0-.024.03.026.026 0 0 0 .03.022c1.272-.141 1.886-1.189 1.892-1.199a.026.026 0 0 0-.01-.036.027.027 0 0 0-.036.01Z" clip-rule="evenodd"/><path fill="#005093" fill-rule="evenodd" d="M37.472 66.72c-.014.002-.023.016-.021.03.022.13-.007.194-.007.195-.14.31-.505.338-.508.338-.097.02-.117-.054-.12-.063 0-.03.009-.058.028-.078.033-.033.087-.031.088-.031.016-.002.35-.025.356-.257a.026.026 0 0 0-.026-.027.027.027 0 0 0-.027.026c-.005.184-.3.204-.304.205 0 0-.075-.002-.124.047a.155.155 0 0 0-.042.122c.01.05.061.131.178.108.013 0 .396-.029.548-.367.001-.003.037-.078.012-.227a.026.026 0 0 0-.03-.021Z" clip-rule="evenodd"/><path fill="#005093" fill-rule="evenodd" d="M37.399 66.763a.027.027 0 0 0-.027.027c0 .015-.006.37-.5.395a.027.027 0 0 0-.025.028.028.028 0 0 0 .028.025c.546-.028.55-.444.55-.448a.026.026 0 0 0-.026-.027ZM36.048 66.557a.089.089 0 0 1-.064-.038.054.054 0 0 1-.015-.046c.004-.026.025-.067.11-.117.007-.004.11-.076.29.047-.014.01-.029.017-.044.027-.004.003-.166.14-.277.127Zm.366-.18c-.002-.004-.002-.008-.005-.011-.219-.156-.354-.057-.36-.053-.08.047-.126.1-.132.154a.11.11 0 0 0 .027.086.14.14 0 0 0 .098.056c.134.015.308-.131.315-.138.226-.153.44-.213.635-.175a.609.609 0 0 1 .366.23.026.026 0 0 0 .036.006.026.026 0 0 0 .007-.036c-.006-.009-.138-.201-.399-.251-.182-.036-.38.01-.588.132Z" clip-rule="evenodd"/><path fill="#005093" fill-rule="evenodd" d="M35.897 66.294c-.004.004-.173.182-.03.375.004.005.11.16.384-.014.008-.005.686-.476.99-.08a.027.027 0 0 0 .037.005.027.027 0 0 0 .005-.037c-.336-.437-1.031.048-1.061.068-.227.144-.308.031-.311.027-.118-.157.016-.3.021-.306.238-.202.456-.051.539.024.01.01.028.008.037-.003a.026.026 0 0 0-.002-.037c-.073-.065-.331-.26-.61-.022Z" clip-rule="evenodd"/><path fill="#005093" fill-rule="evenodd" d="M35.78 66.253c-.234.276.045.525.047.527.251.189.532-.056.535-.059.483-.362.762-.105.773-.094.01.01.028.01.038 0a.025.025 0 0 0-.001-.037c-.003-.004-.321-.301-.843.09-.012.011-.253.22-.468.06-.01-.008-.241-.216-.04-.453.013-.015.336-.367.78.028.012.01.029.008.038-.003a.026.026 0 0 0-.002-.037c-.485-.43-.852-.026-.856-.022Z" clip-rule="evenodd"/><path fill="#005093" fill-rule="evenodd" d="M36.297 65.8c-.067.05-.106.145-.115.282a.026.026 0 0 0 .024.028.026.026 0 0 0 .028-.024c.009-.12.04-.203.093-.242a.117.117 0 0 1 .09-.023c.02.004.034.013.042.027.015.03.004.074-.001.09-.048.178.01.265.013.269a.026.026 0 0 0 .035.006.026.026 0 0 0 .008-.036c0-.001-.046-.073-.007-.224.001 0 .028-.073-.002-.13a.11.11 0 0 0-.076-.054.173.173 0 0 0-.132.032Z" clip-rule="evenodd"/><path fill="#005093" fill-rule="evenodd" d="M36.408 65.801c-.066.078-.1.299-.104.323a.027.027 0 0 0 .022.03.028.028 0 0 0 .03-.022c.01-.064.044-.24.092-.296a.026.026 0 0 0-.003-.037.026.026 0 0 0-.037.002ZM35.299 65.849c-.035.04-.036.1-.004.181l.002.004.004.004c0 .001.13.145.135.434 0 .01.004.254.158.357.086.058.2.06.338.005a.026.026 0 0 0 .015-.034.027.027 0 0 0-.034-.016c-.121.05-.219.05-.29.002-.13-.088-.135-.313-.135-.315-.004-.291-.125-.44-.145-.464a.237.237 0 0 1-.019-.08c0-.017.005-.032.014-.043.034-.04.134-.024.166-.015.24.116.183.545.182.55a.027.027 0 0 0 .022.029.026.026 0 0 0 .03-.022c.003-.02.063-.472-.216-.606-.02-.006-.16-.041-.223.029Z" clip-rule="evenodd"/><path fill="#005093" fill-rule="evenodd" d="M35.299 65.874a.027.027 0 0 0 .023.03.24.24 0 0 1 .168.098c.104.145.06.393.059.395v.007c.006.114.038.199.096.25.062.054.13.05.133.05a.027.027 0 0 0 .024-.03c0-.013-.014-.024-.028-.024a.135.135 0 0 1-.095-.037c-.046-.04-.072-.111-.077-.21.002-.012.01-.063.01-.132a.523.523 0 0 0-.079-.3.295.295 0 0 0-.204-.12.027.027 0 0 0-.03.023ZM36.622 66.54c0 .002 0 .25-.082.521-.007.011-.211.393-.012.581.01.01.027.01.037 0a.026.026 0 0 0-.001-.038c-.17-.16.022-.519.024-.522.086-.285.087-.532.087-.542a.026.026 0 0 0-.027-.027.027.027 0 0 0-.026.026Z" clip-rule="evenodd"/><path fill="#005093" fill-rule="evenodd" d="M36.5 66.573a.026.026 0 0 0-.019.032c.06.218-.118.566-.12.57l-.002.003-.001.003c-.105.44.111.577.12.582a.025.025 0 0 0 .036-.009.025.025 0 0 0 .004-.013.027.027 0 0 0-.012-.023c-.007-.004-.125-.08-.125-.312a.9.9 0 0 1 .028-.21c.013-.026.137-.273.137-.49 0-.04-.004-.079-.014-.114a.026.026 0 0 0-.032-.019Z" clip-rule="evenodd"/><path fill="#005093" fill-rule="evenodd" d="M36.39 66.65a.027.027 0 0 0-.023.03c0 .001.018.193-.081.438-.002.004-.21.477.117.717a.026.026 0 0 0 .036-.005.026.026 0 0 0-.006-.037c-.292-.215-.1-.65-.099-.655.105-.258.086-.456.086-.464a.027.027 0 0 0-.03-.024Z" clip-rule="evenodd"/><path fill="#005093" fill-rule="evenodd" d="M36.133 67.15a.026.026 0 0 0-.006.037.026.026 0 0 0 .037.007c.032-.023.102-.016.127-.011a.025.025 0 0 0 .03-.02.026.026 0 0 0-.02-.031c-.012-.003-.111-.021-.168.018ZM36.248 67.254l-.074.01a.027.027 0 0 0-.022.03.027.027 0 0 0 .03.022l.073-.01a.027.027 0 0 0 .023-.03.026.026 0 0 0-.03-.022ZM36.24 67.395l-.074.005a.026.026 0 0 0-.024.028c0 .015.013.026.028.025l.073-.005a.027.027 0 0 0 .025-.028.027.027 0 0 0-.028-.025Z" clip-rule="evenodd"/><path fill="#005093" fill-rule="evenodd" d="M34.948 66.369c.162.035.29.26.29.262l-.002-.006c.072.273.462.325.478.328.35.027.426.27.429.28.054.396-.301.522-.316.526-.377.181-.46.405-.463.414-.188.405-.456.553-.458.554l-.054.03c-.178.121-.262.004-.265-.002-.02-.035-.026-.067-.016-.094.022-.053.099-.076.1-.076.321-.106.546-.578.555-.598.126-.247.406-.368.408-.37l-.005.003c.217-.038.256-.265.256-.268a.159.159 0 0 0-.013-.144c-.063-.1-.233-.12-.24-.121-.394-.014-.558-.26-.56-.263-.08-.175-.164-.214-.168-.215-.066-.024-.107-.057-.124-.099a.133.133 0 0 1 .007-.104.197.197 0 0 1 .161-.037Zm-.197-.003-.005.004-.003.005c-.001.003-.04.075-.012.153.021.057.074.101.154.13-.001-.001.07.034.142.191.008.015.18.275.601.29 0 0 .15.019.2.098.018.03.02.063.007.103-.003.012-.036.197-.215.228h-.003l-.003.002c-.012.004-.3.13-.435.394-.002.005-.225.472-.524.57-.003.002-.101.03-.132.107-.018.043-.01.09.02.143a.194.194 0 0 0 .121.077c.067.013.139-.008.215-.06l.052-.027c.011-.006.284-.156.481-.581.002-.004.083-.216.434-.384.002 0 .41-.144.348-.587-.004-.015-.088-.29-.474-.321-.003 0-.37-.05-.433-.29l-.001-.003-.002-.003c-.005-.01-.14-.247-.325-.288a.251.251 0 0 0-.208.05Z" clip-rule="evenodd"/><path fill="#005093" fill-rule="evenodd" d="M34.763 66.36a.026.026 0 0 0-.004.013c0 .01.005.018.014.023.003.001.264.146.371.376.008.012.15.234.541.269.016 0 .324.014.324.296v.007c0 .007-.022.241-.29.333-.018.007-.387.164-.495.477-.006.009-.347.55-.622.63a.026.026 0 0 0-.02.025l.002.008a.026.026 0 0 0 .033.017c.295-.085.637-.63.652-.653l.002-.003v-.002c.099-.294.462-.448.466-.45a.467.467 0 0 0 .325-.38c.005-.343-.37-.357-.374-.357-.361-.032-.497-.24-.498-.243-.113-.242-.38-.39-.392-.396a.026.026 0 0 0-.035.01Z" clip-rule="evenodd"/><path fill="#005093" fill-rule="evenodd" d="M35.233 66.975a.027.027 0 0 0-.016.034c.067.197.073.346.015.43a.167.167 0 0 1-.123.07c-.117.008-.14-.138-.14-.144a.11.11 0 0 1 .008-.04.09.09 0 0 1 .023.023c.017.03.063.047.072.05.055.008.094-.002.12-.032.05-.056.024-.16.02-.171a.209.209 0 0 0-.116-.138c-.105-.044-.228.015-.233.017-.291.212-.1.502-.1.505.177.305.554.138.559.137.303-.14.228-.593.225-.612a.026.026 0 0 0-.03-.021.025.025 0 0 0-.021.03c0 .004.07.432-.197.555-.013.006-.338.147-.49-.117-.005-.007-.057-.086-.057-.188 0-.076.03-.166.137-.243.001 0 .106-.049.187-.014.04.017.07.052.087.104.006.022.017.091-.01.122-.014.015-.037.02-.069.015a.105.105 0 0 1-.04-.026c-.01-.015-.042-.059-.081-.05-.036.01-.044.06-.047.095.01.076.064.204.195.195.003 0 .1-.003.163-.092.07-.099.067-.26-.007-.477a.027.027 0 0 0-.034-.017Z" clip-rule="evenodd"/><path fill="#005093" fill-rule="evenodd" d="M35.382 67.044a.027.027 0 0 0-.019.032c.002.004.108.406-.156.518-.007.002-.215.068-.32-.126 0 0-.014-.045-.014-.096 0-.033.007-.069.027-.096.023-.03.066-.046.125-.043.005 0 .122.005.127.102a.026.026 0 1 0 .052-.002c-.005-.116-.118-.15-.178-.153-.077-.003-.133.02-.168.065-.068.09-.021.238-.019.244.13.237.384.155.386.154.309-.131.19-.576.189-.58a.026.026 0 0 0-.032-.02ZM35.579 67.926a.027.027 0 0 0-.02.032.026.026 0 0 0 .031.019c.012-.002.275-.059.342.206 0 0 .038.224-.04.322a.111.111 0 0 1-.088.043c-.003 0-.062.008-.09-.024-.02-.023-.02-.068-.001-.129.023-.051.038-.172-.07-.24-.003-.003-.116-.084-.277.067a.026.026 0 0 0-.002.037c.01.01.027.01.038 0 .127-.118.208-.063.211-.06.099.06.053.174.05.178-.026.083-.021.143.012.182.047.054.13.042.135.041a.163.163 0 0 0 .123-.062c.093-.116.052-.355.05-.365-.08-.318-.4-.248-.404-.247Z" clip-rule="evenodd"/><path fill="#005093" fill-rule="evenodd" d="M35.462 68.029a.026.026 0 0 0-.02.03.026.026 0 0 0 .03.021c.003 0 .223-.043.291.076.006.009.123.204-.058.36a.026.026 0 0 0-.003.036c.01.011.026.012.038.003.215-.184.07-.424.068-.426-.086-.152-.335-.103-.346-.1ZM36.496 67.178a.028.028 0 0 0 .017.034c.002 0 .207.067.262.237.01.03.014.058.014.09 0 .098-.045.208-.136.33-.032.026-.221.177-.221.315 0 .009 0 .018.002.027.014.066.074.112.178.139.014.007.063.038.068.073v.004c0 .016-.011.035-.034.053-.003.002-.206.104-.352-.033 0 0-.097-.11-.087-.263.009-.114.074-.224.194-.325.004-.003.154-.107.171-.253a.255.255 0 0 0-.076-.207.026.026 0 0 0-.037-.001.026.026 0 0 0-.001.037c.048.052.069.108.062.164-.014.123-.15.216-.151.218-.134.113-.205.236-.214.365a.437.437 0 0 0 .102.302c.174.164.408.045.418.04.044-.035.062-.07.057-.108-.008-.068-.092-.11-.101-.116-.09-.023-.136-.056-.145-.1-.02-.097.14-.243.203-.291l.003-.003.002-.003c.13-.176.175-.335.13-.47-.063-.196-.285-.269-.295-.271a.026.026 0 0 0-.033.016Z" clip-rule="evenodd"/><path fill="#005093" fill-rule="evenodd" d="M36.467 67.296a.026.026 0 0 0 .017.033s.14.049.18.158c.022.063.007.135-.042.215a.82.82 0 0 1-.162.18c-.01.01-.21.205-.168.402.023.11.117.197.279.256a.027.027 0 0 0 .034-.016.027.027 0 0 0-.016-.034c-.144-.052-.226-.125-.246-.217-.035-.167.15-.35.152-.352a.85.85 0 0 0 .171-.192c.06-.094.075-.182.047-.26-.049-.134-.206-.187-.213-.19a.026.026 0 0 0-.033.017ZM37.575 67.335c-.241.165-.75.222-.756.223a.026.026 0 0 0-.023.029.026.026 0 0 0 .029.023c.022-.002.528-.058.78-.232a.027.027 0 0 0 .007-.036.026.026 0 0 0-.037-.007Z" clip-rule="evenodd"/><path fill="#005093" fill-rule="evenodd" d="M37.813 67.3c-.004.005-.44.398-1.02.365a.026.026 0 0 0-.028.025c-.001.015.01.027.024.028.604.033 1.055-.374 1.06-.378a.027.027 0 0 0 .002-.037.027.027 0 0 0-.038-.002Z" clip-rule="evenodd"/><path fill="#005093" fill-rule="evenodd" d="M37.985 67.352c-.004.004-.413.424-1.268.45-.015 0-.026.013-.026.028 0 .014.012.026.027.025.878-.027 1.288-.449 1.305-.466a.027.027 0 0 0-.001-.038.026.026 0 0 0-.037 0Z" clip-rule="evenodd"/><path fill="#005093" fill-rule="evenodd" d="M37.479 67.046c-.014.01-.259.188-.18.42.005.014.02.02.033.016a.026.026 0 0 0 .017-.033c-.067-.194.154-.356.157-.358.36-.175.92.241.925.245a.026.026 0 0 0 .036-.005.026.026 0 0 0-.005-.037c-.024-.018-.59-.439-.983-.248Z" clip-rule="evenodd"/><path fill="#005093" fill-rule="evenodd" d="M37.67 67.127c-.226.026-.245.267-.245.27a.025.025 0 0 0 .024.028.027.027 0 0 0 .028-.025c0-.008.017-.2.198-.22.002 0 .347-.02.72.288.012.01.028.008.037-.004a.026.026 0 0 0-.004-.037c-.39-.321-.743-.301-.759-.3Z" clip-rule="evenodd"/><path fill="#005093" fill-rule="evenodd" d="M37.553 67.343a.026.026 0 0 0-.005.036c.008.012.025.015.037.006.264-.196.723.172.727.176a.027.027 0 0 0 .037-.004.026.026 0 0 0-.004-.037c-.02-.016-.494-.397-.791-.177Z" clip-rule="evenodd"/><path fill="#005093" fill-rule="evenodd" d="M38.224 67.176c0 .015.01.027.025.028.145.009.156.086.156.09v.003l.002.004a.13.13 0 0 1 .001.107c-.057.134-.297.225-.3.226-.107.029-.265.119-.272.123a.026.026 0 0 0-.01.036.026.026 0 0 0 .036.01c.002-.002.16-.091.263-.12.013-.004.266-.1.33-.254a.18.18 0 0 0 0-.149l.003.008c0-.005-.014-.126-.206-.136-.015-.002-.027.01-.028.024Z" clip-rule="evenodd"/><path fill="#005093" fill-rule="evenodd" d="M38.165 67.104c-.014.003-.022.017-.019.031a.027.027 0 0 0 .033.02c.138-.037.238.02.24.02.162.12.082.273.078.28l-.001.002-.001.003c-.041.157-.387.292-.517.33a.027.027 0 0 0-.018.033c.005.013.02.021.033.018.02-.007.495-.15.552-.367l-.002.006a.27.27 0 0 0-.096-.348.385.385 0 0 0-.282-.028Z" clip-rule="evenodd"/><path fill="#005093" fill-rule="evenodd" d="M38.615 67.22a.027.027 0 0 0-.017.034.371.371 0 0 1-.029.302c-.12.204-.425.277-.427.278a.026.026 0 0 0-.02.03.026.026 0 0 0 .032.02c.013-.003.33-.077.46-.301a.423.423 0 0 0 .034-.344.026.026 0 0 0-.033-.018ZM38.042 67.046a.026.026 0 0 0-.01.036.025.025 0 0 0 .034.011c.002 0 .196-.095.372.004a.026.026 0 0 0 .036-.01.025.025 0 0 0-.01-.035c-.2-.113-.413-.01-.422-.006Z" clip-rule="evenodd"/><path fill="#005093" fill-rule="evenodd" d="M37.604 67.636a.026.026 0 0 0-.009.035c.004.007.1.164.482.2-.002 0 .454.15.495.458.002.01.013.095-.078.117-.013.005-.1.036-.15-.087a.525.525 0 0 0-.403-.33c-.006 0-.489-.064-.548-.299a.027.027 0 0 0-.032-.019.026.026 0 0 0-.018.032c.067.27.57.336.59.338.269.041.357.286.361.296.074.177.215.12.217.12.107-.027.122-.127.113-.177-.045-.34-.517-.494-.537-.5-.357-.034-.446-.174-.446-.175a.027.027 0 0 0-.037-.01Z" clip-rule="evenodd"/><path fill="#005093" fill-rule="evenodd" d="M37.484 67.679a.026.026 0 0 0-.012.034c.004.01.109.22.468.241.002 0 .51.104.534.52.001.014.013.025.028.024a.026.026 0 0 0 .024-.027c-.025-.457-.574-.568-.58-.57-.33-.018-.423-.202-.427-.21a.026.026 0 0 0-.035-.012Z" clip-rule="evenodd"/><path fill="#005093" fill-rule="evenodd" d="M37.556 67.94c-.01.005-.249.139-.278.313a.22.22 0 0 0 .06.188l.003.002.002.002c.004.001.077.05.155.024.055-.017.097-.064.125-.14 0 .002.123-.21.242-.264.012-.007.018-.022.012-.035a.026.026 0 0 0-.035-.013c-.133.061-.261.28-.267.29-.023.063-.054.1-.092.112-.049.016-.096-.01-.107-.016a.172.172 0 0 1-.049-.115c0-.01.001-.017.003-.026.025-.15.25-.275.252-.277a.026.026 0 0 0 .013-.022.026.026 0 0 0-.038-.023Z" clip-rule="evenodd"/><path fill="#005093" fill-rule="evenodd" d="M37.675 67.99c-.22.15-.314.428-.317.44-.005.013.003.028.016.033a.027.027 0 0 0 .034-.017c0-.002.091-.273.297-.413a.027.027 0 0 0 .007-.037.026.026 0 0 0-.037-.007ZM34.86 60.021a.092.092 0 0 0 .04.124c.029.016 2.992 1.541 6.123.015a.091.091 0 0 0 .042-.123.092.092 0 0 0-.122-.042c-3.046 1.484-5.93.003-5.958-.012a.092.092 0 0 0-.124.038Z" clip-rule="evenodd"/><path fill="#005093" fill-rule="evenodd" d="m40.96 60.174.642 9.14a8.79 8.79 0 0 0-2.19-.66c-1.256-.213-3.15-.253-5.116.714l.668-9.243c.395-.178 3.372-1.422 5.996.05Zm-6.124-.193-.048.024-.698 9.67.146-.075c1.969-1.018 3.881-.98 5.139-.766 1.366.23 2.278.708 2.286.713l.147.078-.672-9.563-.042-.025c-2.898-1.66-6.225-.072-6.258-.056Z" clip-rule="evenodd"/><path fill="#005093" fill-rule="evenodd" d="M37.987 56.986c-1.186-.015-1.263 2.02-1.266 2.108 0 .353-.194.878-.196.884-.018.047.007.1.054.118.047.018.1-.006.118-.054.009-.023.207-.562.207-.946.001-.016.074-1.946 1.086-1.926H38l.01-.002c.007-.002.206-.035.426.14.234.186.526.64.58 1.75 0 .076.017.773.248 1.015a.09.09 0 0 0 .13.003.091.091 0 0 0 .003-.13c-.153-.161-.195-.7-.197-.893-.047-.955-.268-1.592-.657-1.895-.263-.205-.508-.18-.556-.172Z" clip-rule="evenodd"/><path fill="#005093" fill-rule="evenodd" d="M37.73 57.65c-.418.426-.368 2.223-.361 2.427.001.05.044.09.095.089a.092.092 0 0 0 .089-.096c-.02-.531 0-1.978.307-2.29.043-.043.077-.048.098-.047.003 0 .07.005.151.101.147.175.367.693.195 2.197a.092.092 0 1 0 .183.022c.174-1.524-.042-2.121-.253-2.355-.133-.147-.261-.15-.276-.15a.31.31 0 0 0-.229.103ZM32.276 62.736l-.207-.046s-.04-.15.051-.181c0 0 .454.04.6.227 0 0 .036.066.036.177l.01 1.534s0 .697-.136.713c0 0-.126.03-.101-.435l.065-1.848s.03-.111-.156-.13l-.091 2.023s-.035.319-.172.313c0 0-.1-.004-.065-.328l.166-2.019ZM33.19 62.766s-.167-.015-.167.157l.066 1.954s.005.257-.116.272c0 0-.126.025-.106-.283l-.005-1.974s-.025-.186.171-.257c0 0 .445-.233.52-.05 0 0 .016.13-.196.146l.15 2.13s.026.212-.1.228c0 0-.101.035-.136-.283l-.08-2.04ZM42.878 62.675s.17-.026.196-.153c0 0 .122-.196.228 0 0 0-.037.122.212.165 0 0 .488.085.482.2 0 0 .022.139-.291.07 0 0-.403-.096-.52-.191l-.042.006s-.249.142-.493.18c0 0-.255.068-.302-.053 0 0-.016-.096.19-.144l.25-.052.09-.028ZM43.428 63.568h-.531a.136.136 0 0 1-.137-.135c0-.075.061-.136.137-.136h.53c.076 0 .137.061.137.136a.136.136 0 0 1-.136.135Zm.064-.462h-.65a.3.3 0 0 0-.299.3v.014a.3.3 0 0 0 .298.3h.65a.3.3 0 0 0 .299-.3v-.014c0-.166-.134-.3-.298-.3Z" clip-rule="evenodd"/><path fill="#005093" fill-rule="evenodd" d="m43.048 63.673.01 1.362s-.01.154.106.154c0 0 .074.037.09-.175l.027-1.352-.233.01Z" clip-rule="evenodd"/><path fill="#005093" fill-rule="evenodd" d="M42.713 65.082s-.005.16-.095.14c0 0-.095.015-.075-.229 0 0 .07-1.273.648-1.193 0 0 .53-.09.615 1.235 0 0 .016.122-.074.138 0 0-.112.021-.133-.17 0 0-.08-1.07-.43-1.081 0 0-.291-.138-.445 1.097l-.01.063ZM35.457 60.633a.067.067 0 1 1-.135 0 .067.067 0 0 1 .135 0ZM35.318 60.804a.068.068 0 1 1-.068-.067c.038 0 .068.03.068.067ZM35.3 61.072a.068.068 0 1 1-.135 0 .068.068 0 0 1 .136 0ZM35.28 61.354a.068.068 0 1 1-.135 0 .068.068 0 1 1 .135 0ZM37.078 61.068a.068.068 0 1 1 0 0ZM39.056 61.103a.068.068 0 1 1-.136 0 .068.068 0 0 1 .136 0ZM40.675 60.638a.067.067 0 1 1-.135 0c0-.037.03-.067.068-.067.037 0 .067.03.067.067ZM40.794 60.854a.068.068 0 0 1-.135 0 .068.068 0 0 1 .135 0ZM40.828 61.348a.068.068 0 1 1 0 0ZM40.81 61.101a.068.068 0 1 1-.135 0 .067.067 0 1 1 .135 0ZM35.19 62.763a.068.068 0 0 1-.136 0 .068.068 0 0 1 .135 0ZM35.157 63.234c0 .037-.03.067-.067.067a.068.068 0 1 1 .067-.067ZM35.174 62.999c0 .037-.03.067-.068.067a.067.067 0 1 1 0-.135c.038 0 .068.03.068.068ZM40.93 62.754a.067.067 0 1 1-.134 0 .067.067 0 1 1 .135 0ZM40.966 63.224a.068.068 0 0 1-.135 0c0-.038.03-.068.067-.068.038 0 .068.03.068.068ZM40.949 62.986a.068.068 0 1 1-.136 0 .068.068 0 0 1 .136 0ZM35.067 64.59a.068.068 0 1 1-.136 0 .068.068 0 0 1 .136 0ZM35.053 64.812a.067.067 0 1 1-.135 0c0-.037.03-.068.068-.068.037 0 .067.03.067.068ZM35.038 65.094a.068.068 0 0 1-.136 0 .068.068 0 0 1 .136 0ZM41.102 65.061a.067.067 0 1 1-.135 0 .067.067 0 0 1 .135 0ZM41.065 64.582c0 .037-.03.067-.068.067a.068.068 0 1 1 .068-.068ZM41.08 64.79c0 .038-.03.069-.067.069a.068.068 0 1 1 .068-.068ZM36.845 65.22a.068.068 0 1 1-.135 0 .068.068 0 0 1 .135 0ZM36.83 65.465a.068.068 0 1 1-.136 0 .068.068 0 0 1 .136 0ZM36.816 65.701a.068.068 0 1 1-.136 0 .068.068 0 0 1 .136 0ZM39.27 65.72a.068.068 0 1 1-.136 0 .068.068 0 0 1 .136 0ZM39.26 65.484a.068.068 0 1 1-.136 0 .068.068 0 0 1 .135 0ZM39.25 65.246a.068.068 0 0 1-.135 0 .068.068 0 0 1 .135 0ZM37.066 61.309a.068.068 0 0 1-.135 0 .068.068 0 0 1 .135 0ZM37.048 61.582a.067.067 0 0 1-.135 0c0-.037.03-.068.068-.068.037 0 .067.03.067.068ZM37.031 61.855a.068.068 0 1 1-.135 0 .068.068 0 0 1 .135 0ZM39.064 61.315c0 .037-.03.068-.067.068a.068.068 0 1 1 .067-.068ZM39.075 61.565a.068.068 0 1 1-.068-.068c.038 0 .068.03.068.068ZM39.089 61.826a.068.068 0 1 1-.135 0 .068.068 0 0 1 .135 0ZM36.957 63.218a.067.067 0 1 1-.135-.001.067.067 0 0 1 .135 0ZM36.942 63.458a.068.068 0 1 1-.135 0 .068.068 0 0 1 .135 0ZM36.927 63.702a.068.068 0 0 1-.135 0 .068.068 0 0 1 .135 0ZM39.186 63.247a.067.067 0 1 1-.135 0 .067.067 0 0 1 .135 0ZM39.164 63.452a.068.068 0 1 1-.136 0 .068.068 0 0 1 .136 0ZM39.176 63.672a.067.067 0 1 1-.135 0 .067.067 0 0 1 .135 0ZM35.739 60.737a.068.068 0 1 1-.068-.067c.037 0 .068.03.068.067ZM36.052 60.836a.068.068 0 1 1-.135 0c0-.038.03-.068.067-.068.038 0 .068.03.068.068ZM36.73 61.007a.068.068 0 1 1-.134 0 .068.068 0 0 1 .135 0ZM36.39 60.933a.067.067 0 1 1-.134 0 .067.067 0 0 1 .134 0ZM39.375 61.05a.068.068 0 1 1-.136.001.068.068 0 0 1 .136 0ZM40.364 60.774a.068.068 0 1 1-.135 0 .068.068 0 0 1 .135 0ZM39.736 60.977a.068.068 0 1 1-.135 0 .068.068 0 0 1 .135 0ZM40.066 60.88a.068.068 0 1 1-.135.001.068.068 0 0 1 .135 0ZM37.415 61.118c0 .038-.03.068-.068.068a.067.067 0 1 1 0-.135c.037 0 .068.03.068.067ZM38.727 61.136a.068.068 0 1 1-.135 0 .068.068 0 0 1 .135 0ZM37.741 61.15a.068.068 0 1 1-.135 0 .068.068 0 0 1 .135 0ZM38.415 61.157a.068.068 0 0 1-.135 0 .068.068 0 0 1 .135 0ZM38.075 61.164c0 .038-.03.068-.068.068a.067.067 0 0 1-.067-.068.068.068 0 1 1 .135 0ZM36.491 65.624a.068.068 0 1 1-.136 0 .068.068 0 0 1 .136 0ZM35.315 65.238a.068.068 0 1 1-.135 0 .068.068 0 0 1 .135 0ZM36.19 65.547a.067.067 0 1 1-.136 0 .068.068 0 1 1 .135 0ZM35.58 65.345a.067.067 0 1 1-.067-.068c.037 0 .067.03.067.068ZM35.878 65.448a.068.068 0 0 1-.136 0 .068.068 0 0 1 .136 0ZM39.62 65.656c0 .037-.03.067-.067.067a.068.068 0 0 1 0-.135c.037 0 .068.03.068.068ZM40.877 65.204a.068.068 0 1 1-.135 0 .068.068 0 0 1 .135 0ZM39.955 65.57a.068.068 0 1 1-.136.001.068.068 0 0 1 .136 0ZM40.583 65.347a.068.068 0 1 1-.135 0 .068.068 0 0 1 .135 0ZM40.29 65.465c0 .037-.031.067-.069.067a.068.068 0 0 1-.067-.067c0-.038.03-.068.067-.068.038 0 .068.03.068.068ZM37.999 65.83a.067.067 0 1 1-.135 0 .067.067 0 0 1 .135 0ZM38.588 65.823a.068.068 0 1 1-.135 0c0-.038.03-.068.067-.068.038 0 .068.03.068.068ZM37.411 65.79a.068.068 0 1 1-.135 0 .068.068 0 0 1 .135 0ZM37.117 65.754c0 .037-.03.067-.067.067a.068.068 0 1 1 .068-.068ZM38.928 65.772a.068.068 0 1 1-.135 0 .068.068 0 0 1 .135 0ZM38.287 65.837a.067.067 0 1 1-.135 0 .067.067 0 0 1 .135 0ZM37.687 65.816a.068.068 0 1 1-.135 0 .068.068 0 0 1 .135 0ZM58.142 65.865c.047-.162.072-.346.066-.561-.042-.002-.046-.042-.099-.033-.075.13-.28.566.033.594Zm-.462.857c-.14.099-.22.21-.396.298-.145.074-.342.07-.429.23.045.618-.115 1.03-.594 1.123-.119.442-.68 1.12-1.254 1.056-.254-.028-.473-.289-.66-.495-.184-.201-.427-.443-.462-.693-.058-.401.283-.783.495-1.122.577-.926 1.298-2.21 1.287-3.498a1.918 1.918 0 0 0-.165-.693c-.214-.462-.648-.415-.726-1.123.342-.078.776.05 1.188.166.52.146 1.028.323 1.353.627.304.283.72 1.075.066 1.32-.164.061-.356.015-.561.099-.375.154-.455.937-.627 1.42-.066.182-.223.398-.231.66.412-.105.7-.412 1.023-.628.327-.219.69-.36 1.023-.594-.031-1.169-.115-2.076-.033-3.432.094-1.555.176-3.033.297-4.621.029-.382.032-.782.066-1.155.078-.858.167-1.613-.198-2.277-.01-.053.031-.057.033-.099.501.129 1.821.94 1.914 1.518.042.263-.051.561-.099.891a34.686 34.686 0 0 0-.297 2.64c-.041.665-.001 1.368-.033 2.046-.08 1.735-.072 3.4 0 5.215.016.389.07.787 0 1.056-.102.392-.626.767-.957.759-.524-.01-.693-.554-1.023-.694ZM64.083 59.1c.18-.135.392-.262.528-.397.434-.428.28-.834-.033-1.32a20.764 20.764 0 0 1-1.222-2.178c-.067-.019-.064-.1-.132-.033.01.364.104.708.166 1.089.155.97.127 2.108.165 3.135.17.005.35-.165.528-.296Zm-.693 5.907c.513.119.893-.34 1.353-.561.48-.232 1.767-.535 1.914.23.039.202-.026.633-.132.793-.16.243-.794.328-1.155.429-.76.213-1.474.435-2.475.33-.51-.054-.993-.236-1.189-.594-.494-.91.342-2.211-.033-3.234-.627-.195-1.122.417-1.716.23-.008-.154.125-.257.199-.33.233-.228.57-.396.957-.593.233-.12.578-.22.66-.396.067-.145.037-.528.032-.792-.014-.853-.112-1.642 0-2.608.102-.865.408-1.878.727-2.607.106-.242.197-.608.363-.726.393-.278.574.209.759.594.275.576.534 1.109.89 1.551.179.221.4.368.595.594.408.472 1.304 1.84.924 2.806-.083.21-.375.572-.561.792-.1.116-.217.228-.33.362-.132.158-.205.31-.33.33-.23.038-.32-.143-.561-.131-.777.037-.752 1.231-.825 2.08-.045.504-.018 1.004-.066 1.45ZM96.932 56.782c-.032-.203.196-.26.297-.362.298-.301.615-.656.89-1.024-.596-.108-.965.115-1.484.43-.227.137-.6.364-.628.495-.049.23.22.426.198.693-.025.33-.43.664-.693.66-.356-.006-.59-.55-.693-.892-.126-.055-.158-.19-.297-.263-.226-.12-.566-.023-.726-.23.013-.12.116-.233.198-.298a1.33 1.33 0 0 1 .297-.165c.434-.132 1.003.09 1.42.066.239-.013.548-.211.89-.396.526-.284 1.203-.497 1.75-.76.343-.163.719-.464 1.089-.362.189.052.675.426.627.725-.062.385-.768.448-1.122.595-.45.185-.875.552-1.287.825-.207.137-.456.309-.726.264ZM92.872 57.773c.025.377-.004.7-.198.858-.539.117-1.043-.363-1.123-.858-.154-.98.762-1.904 1.09-2.377.053-.009.057.032.1.033.171.452-.054 1.098.065 1.585.043.176.262.29.264.43.002.196-.197.192-.198.329ZM91.651 64.605c-.178.162-.474.29-.43.561.583-.199 1.046-.517 1.552-.792.023-.132.072-.236.066-.396-.564-.151-.871.338-1.188.627Zm2.64-1.024c.36-.086.217-.654.23-.924-.04-.001-.044-.042-.098-.032-.135.258-.089.69-.132.956Zm.363-2.508c.284-.067.398-.306.496-.56-.317-.107-.769.275-.496.56Zm-.198-2.574c-.144.473.257.682.264.957.009.312-.341.34-.297.76.376-.055.952-.32 1.32 0-.035.683-.33 1.08-.693 1.451-.11.112-.306.195-.297.397.149.048.216-.268.462-.231.05.23-.205.399-.297.594.074.228.033.442.132.726.073.208.287.331.297.495.016.254-.39.646-.495.726-.257.195-.718.31-.858.56-.097.173-.132.616-.198.925-.137.646-.215 1.116-.396 1.782-.079.29-.171.801-.528.792-.181-.005-.366-.253-.463-.396-.087-.132-.276-.407-.296-.561-.039-.304.12-.67.198-.957.084-.311.201-.594.23-.924-.59.103-.875.327-1.385.594-.148.077-.32.194-.462.198-.535.017-.662-.63-.363-.99.07-.085.202-.177.33-.297.295-.276.576-.575.924-.89.38-.346 1.208-.944 1.221-1.222.01-.217-.27-.34-.264-.495.012-.307.541-.337.528-.628-.134-.085-.337.025-.462.1-.352.208-.719.784-1.255.626-.222-.567.156-1.037.496-1.254.14.128-.058.237.033.396.618-.197.957-.67 1.452-.99.04-.146.036-.338.033-.528-.056-.142-.319-.077-.363-.231.108-.54.583-.714.858-1.089.02-.209-.131-.24-.1-.396.074-.35.463-.153.694 0ZM98.912 59.258c-.302-.106-.894.213-1.057-.132.098-.225.328-.182.529-.264.339-.138.65-.413.924-.495.362-.11.949.092.858.628-.042.244-.286.4-.462.594-.353.386-.607.664-.99 1.088-.174.193-.404.472-.397.627.02.374.702.443.76.792.072.436-.404.678-.793.495-.041-.02-.042-.091-.098-.132-.057-.041-.135-.039-.165-.066-.2-.174-.487-.493-.496-.726-.021-.57.31-.945.595-1.32.14-.184.252-.401.396-.56.154-.171.396-.282.396-.53Z" clip-rule="evenodd"/><path fill="#005093" fill-rule="evenodd" d="M97.294 60.48c.172.098.097.348.1.494.008.55-.027 1.053 0 1.551.014.272.105.559.099.825-.015.561-.38 1.075-.232 1.65.199.277.574.192.925.166.73-.054 1.339-.102 2.046-.198.259-.036.754-.043.924-.198.217-.198.168-1.349.099-1.782-.095-.589-.375-.967-.396-1.551.135-.061.247.126.33.23.254.32.535.92.66 1.42.086.342.082.705.198 1.023.152.415.58 1.096.198 1.584-.173.22-.67.317-1.056.363-.489.058-.831.035-1.287.066-.401.027-1.021.094-1.618.066-.733-.035-1.617-.088-1.913-.462-.371-.468-.34-1.39-.232-2.179.053-.387.076-.802.165-1.121.197-.702.608-1.218.891-1.85.036-.03.01-.12.1-.098ZM79.087 61.266c-.326-.19-.02-.496.098-.66.696-.965 1.464-1.942 2.046-3.07.24-.464.521-.93.694-1.353.076-.187.249-.632.197-.89-.052-.265-.341-.267-.462-.495-.005-.083.051-.104.1-.132.276.022 1.236.32 1.451.528.146.138.232.323.199.594-.044.355-.766.915-.99 1.188-.966 1.172-1.894 2.632-2.707 3.762-.194.17-.277.623-.626.528ZM85.852 62.454c.099.067.311.019.462.033.408-.318.69-.814.99-1.188.148-.185.304-.396.396-.627-1.228-.493-1.92.85-1.848 1.782Zm2.64-2.045c.065.669-.472 1.004-.825 1.418-.26.305-.475.598-.759.924-.14.162-.441.532-.56.562-.228.055-.39-.107-.563-.132-.12.202-.041.46-.032.66.047 1.027-.02 1.906-.066 2.904-.01.219.025.456 0 .693-.026.242-.168.947-.495.99-.286.037-.586-.328-.627-.594-.061-.389.073-.88.1-1.32.081-1.397.247-3.081.263-4.323-.202.095-.41.38-.627.626-.192.219-.431.555-.76.33.207-.411.774-.764 1.156-1.122.268-.25.37-.359.461-.792.029-.13.074-.291.067-.395-.016-.213-.192-.31-.198-.529-.006-.197.113-.341.231-.462.12-.122.337-.224.33-.363-.021-.4-.829-.202-1.023-.396.1-.424.636-.615 1.056-.858.19-.11.42-.214.627-.33.208-.117.407-.276.594-.33.263-.077.557-.065.792-.165.232-.098.785-.1.858.165.09.325-.288.582-.528.759-.569.42-.922.696-1.485 1.089-.178.124-.739.37-.759.528-.023.172.406.508.594.528.251.028.444-.187.66-.264.535-.191 1.257-.227 1.518.199ZM83.179 59.022c.54.61-.466 1.43-.76 1.88.297.114.631.322.496.76-.25.16-.66.291-1.056.198-.088-.078-.118-.212-.166-.33-.283-.062-.336-.495-.132-.692-.439-.103-.921.567-1.353.164.096-.435.601-.65.99-.957.086-.068.166-.155.265-.23.088-.068.207-.127.296-.198.344-.275.718-.798 1.42-.595ZM79.945 62.058c.303.04.214.381.296.66.094.32.442.761.495 1.32.05.534-.147 1.38-.561 1.42-.477.045-.81-.705-.792-1.221.02-.537.386-.78.529-1.122-.053-.332-.044-.753-.034-1.057h.067ZM83.211 62.223c.108.319-.059.656-.164.958-.11.31-.237.604-.363.858a.581.581 0 0 1-.034.429c-.069.137-.3.34-.528.363-.502.05-.776-.474-.594-.99.074-.21.433-.403.364-.627-.084-.268-.635-.064-.694-.298.024-.16.243-.244.397-.33.396-.221.947-.569 1.616-.363ZM109.342 54.4c.264.068.585.26.825.43.451.317.791.642.726 1.451-.031.379-.11.785-.198 1.188-.248 1.13-.609 2.922-.825 3.961.217.009.531-.187.858-.33.305-.134.638-.257.858-.396.183-.116.404-.313.429-.496.049-.362-.241-.497-.264-.89.153-.026.299.094.462.198.129.083.258.22.396.297.245.135.738.192.792.462.061.309-.49.829-.759.99-1.132.122-2.019.49-2.872.89-.617 1.372-.82 3.1-1.815 4.094-.215.215-.472.332-.692.56-.514.176-1.435.46-2.113.33-.287-.054-.654-.242-.66-.594.263.005.504.143.924.1.812-.085 1.381-.715 1.849-1.222.605-.655 1.157-1.794 1.451-2.772-.63.212-1.657.593-2.409.957-.374.181-.645.514-1.155.429-.368-.06-.701-.509-.528-.957.21-.1.302.076.495.1.356.043.691-.138 1.056-.265.913-.318 1.953-.765 2.772-1.122.478-2.158.641-5.093.397-7.393Z" clip-rule="evenodd"/><path fill="#005093" fill-rule="evenodd" d="M109.969 63.245c.028-.006.031.013.033.033h.066c.432.4.808.895 1.287 1.254.043.032.137.041.165.066.166.146.277.346.429.495.63.617 1.474.987 2.574 1.123.134.053-.04.168-.065.197-.164.19-.388.362-.594.562-.403.389-.812.867-1.585.693-.67-.152-.894-.81-1.155-1.485-.344-.893-.792-2.06-1.155-2.839v-.099ZM73.225 56.652c-.107-.29.156-.368.198-.561.164-.769-.665-.968-.891-1.452.166-.252.866-.139 1.254-.033.33.09.727.326.89.462.235.193.517.63.265.957-.229.296-.81.295-1.254.462-.188.07-.293.24-.462.165ZM73.851 58.632c-.52.237-1.008.664-1.55 1.056-.77.556-1.758 1.022-2.212 1.915-.053.103-.093.243-.165.33-.221.264-.829.397-1.022.131-.067-.09-.075-.371-.133-.594-.104-.405-.368-.605-.198-1.088.082-.234.276-.339.594-.397.146.14.08.493.198.66.621-.066 1.116-.428 1.617-.759 1.16-.765 2.507-1.451 3.763-2.178.255-.148.557-.346.693-.495.204-.225.247-.665.593-.693.232-.02.436.174.661.297.237.13.485.26.462.495-.026.261-.35.278-.594.363-.625.217-1.232.648-1.849.99-.306.17-.63.325-.923.495-.299.173-.576.438-.924.43-.055-.22.232-.34.396-.463.195-.147.392-.262.56-.43-.005-.027.013-.03.033-.032v-.033ZM75.27 59.853c-.364.735-1.1 1.099-1.418 1.882.147.143.55-.124.693.099-.052.608-.703.617-1.056.923-.267-.008-.486.19-.76.066-.176-.547.298-.874.561-1.187.288-.343.638-.643.76-1.09-.398.112-.675.383-1.023.694-.299.264-.745.583-.859.857-.146.355.042 1.039-.164 1.221-.592.526-1.265-1.417-.694-1.914.205.013.265.325.496.33.226.005.454-.376.66-.594.334-.355.674-.57 1.023-.858.395-.327 1.212-.933 1.782-.428Z" clip-rule="evenodd"/><path fill="#005093" fill-rule="evenodd" d="M72.235 64.672c-.319.214-.603.531-.891.825-.26.263-.584.525-.727.858.367.205.93.214 1.518.198.171-.512.108-1.257.165-1.881h-.065Zm.297-1.716c.35.056.228.585.396.825.227.075.45-.033.792.065.26.076.682.512.924.76.13.134.288.278.43.43.141.151.311.37.329.494.118.831-1.016 1-1.552.495-.07-.62.177-1.644-.33-1.915-.16.004-.347-.017-.462.034-.089.78-.006 1.731 0 2.409.006.582.148 1.212-.099 1.617-.192.019-.49-.003-.692-.133-.157-.098-.272-.346-.462-.527-.23-.218-.572-.387-.925-.561-.23-.113-.428-.239-.56-.198-.258.08-.2.368-.298.66-.776.568-1.68-.864-.858-1.22.122.032.19.267.363.296.238.039.562-.265.792-.495.558-.557 1.025-1.005 1.716-1.519.147-.11.298-.219.33-.296.16-.385-.15-1.049.166-1.221ZM123.477 57.1c.107.01.08.27.038.33-.078-.11.01-.188-.038-.33Z" clip-rule="evenodd"/><path fill="#005093" fill-rule="evenodd" d="M121.633 64.923c-.849.096-1.691.46-2.43.768-.132.284-.967.403-.977.743-.006.213.427.455.67.583.61.322 1.236.473 1.892.627.36.085.734.227 1.059.146.145-.451.198-1.003.205-1.488.002-.088-.067-.176-.07-.263-.002-.053.053-.15.062-.232.03-.275.027-.564.018-.859-.085-.08-.309-.08-.429-.025Zm-3.411-2.482c.346-.25.7-.479 1.077-.713.762-.471 1.483-1.004 2.221-1.392.314-.165 1.618-.525 1.237-.945h-.065a6.776 6.776 0 0 1-1.806.594c-.236.045-.533.024-.758.112-.149.058-.317.242-.487.371-.603.454-1.004.96-1.526 1.48-.374.37-.835.685-1.037 1.14.402-.123.777-.383 1.144-.647Zm4.278-4.532c.04.261.385.307.373.555-.021.436-.668.352-1.053.184-.252.244-.624.37-.746.739.793-.098 1.321-.454 1.901-.759-.037-.333.027-.696-.017-.957-.017-.099-.045-.246-.137-.295-.153.136-.362.269-.321.533Zm.977-.809c.107.01.08.27.038.33-.078-.11.01-.188-.038-.33Zm-2.006.432c.05-.083.23-.017.296-.005.054-.078.122-.143.128-.267-.015-.082.185-.22.028-.232-.154.143-.455.317-.452.504Zm-.827-.085c.214-.052.244-.282.355-.435.172-.094.294-.236.422-.37-.246-.027-.525.045-.629-.188-.277.161-.23.634-.148.993Zm5.394-3c-.472.227-.897.567-1.339.85-.222.142-.461.274-.686.408-.24.143-.522.24-.619.473.259.183.582.134.766.35.479.563-.061 1.76-.157 2.379.323-.242.461-.649.643-1.001.562-1.09 1.136-2.182 1.458-3.46l-.066.002Zm-2.985 1.11c.835-.305 1.582-.836 2.421-1.264.12-.061.283-.126.425-.205.248-.14.34-.25.69-.178.3.735-.163 1.524-.358 2.152-.282.909-.682 1.83-1.009 2.724.654-.011 1.562-.085 1.627.5.036.335-.338.593-.647.804-.753.51-1.407.974-2.22 1.425-.151.084-.339.206-.457.238-.249.07-.581.019-.659.145.181.175.526.184.569.419.063.34-.542.662-.408 1.162.253.158.487.172.793.085.156-.044.28-.187.426-.205.745-.09 1.46.892.852 1.536-.707.073-1.53 0-2.213-.06-.126.598-.078 1.34-.096 2.048-.019.7.036 1.388-.065 1.948-.83.417-1.533-.208-2.255-.588-.221-.115-.47-.23-.699-.35-.439-.23-.76-.378-1.167-.64-.162-.105-.317-.225-.468-.322-.305-.197-.755-.405-.934-.61-.087-.1-.213-.372-.207-.492.017-.341.747-.701 1.041-.844a17.078 17.078 0 0 1 4.268-1.395c.037-.299.107-.566.082-.925-.318-.12-.942-.036-.9-.545.033-.411.577-.398.981-.513.768-.217 1.339-.718 2.061-1.026.763-.326 1.496-.523 1.828-1.187-.336-.215-.935-.126-1.254-.011-.355.127-.578.47-.915.544-.255.056-.506.015-.725.078-.599.174-1.128.57-1.669.822-.151.07-.319.107-.459.173a8.738 8.738 0 0 0-2.544 1.794c-.177.178-.415.358-.65.573-.377.344-.589.72-1.277.616-.19-.245-.504-.27-.441-.752.041-.315.554-.79.774-1.004.327-.315.567-.658.843-.905.454-.407 1.082-.799 1.596-1.217.057-.046.112-.097.163-.135.148-.11.271-.27.422-.403.1-.088.231-.125.326-.204.367-.301.642-.767.839-1.104-.034-.203-.149-.515-.013-.693-.287.087-.439.374-.649.573-.438.413-.691.798-1.099 1.34-.243.321-.694.824-1.083.38-.312-.354-.096-1.211-.164-1.844-.025-.229-.18-.396-.043-.56.213-.091.469.02.597.154.261.274.169.914.482 1.114.247-.07.512-.296.584-.538.049-.165.002-.406.022-.628.09-.984-.166-2-.478-2.863-.087-.237-.244-.418-.243-.623.372-.027.751.284 1.132.508.161.095.353.207.533.321.318.202.588.33.641.78.345-.186.487-.577.677-.902.189-.321.408-.648.51-1.033.042-.103-.1-.18-.003-.23-.011-.054.029-.058.031-.1.531.094 1.519.518 1.175 1.168-.085.162-.282.168-.457.305-.045.037-.076.112-.128.167-.131.136-.272.279-.355.501ZM55.073 73.039h.451c.152 0 .26-.028.322-.082a.279.279 0 0 0 .094-.221.258.258 0 0 0-.093-.207c-.062-.052-.17-.078-.325-.078h-.45v.588Zm0-1.14h.385c.138 0 .233-.024.288-.072.054-.049.08-.118.08-.21a.25.25 0 0 0-.08-.198c-.055-.047-.149-.071-.282-.071h-.391v.551Zm-.898-1.14h1.662c.276 0 .49.07.637.208.149.139.223.31.223.516a.654.654 0 0 1-.159.441.708.708 0 0 1-.31.195c.207.05.36.136.457.258a.715.715 0 0 1 .146.46c0 .151-.034.287-.103.407a.768.768 0 0 1-.285.285.93.93 0 0 1-.337.095c-.2.027-.333.04-.398.04h-1.533V70.76ZM57.453 70.76h2.383v.618h-1.492v.463h1.385v.591h-1.385v.573h1.535v.659h-2.426V70.76ZM60.553 73.664h.891V70.76h-.891v2.904ZM63.434 70.76h.891v1.577c0 .331-.029.583-.087.756a.866.866 0 0 1-.351.44c-.176.12-.401.18-.676.18-.29 0-.515-.04-.675-.12a.851.851 0 0 1-.37-.346 1.32 1.32 0 0 1-.154-.566l.849-.117c.001.129.012.224.033.286a.313.313 0 0 0 .106.151.24.24 0 0 0 .145.038c.1 0 .172-.038.22-.112.045-.075.069-.2.069-.378v-1.79ZM65.114 73.664h.892V70.76h-.892v2.904ZM66.807 70.76h.83l1.082 1.605V70.76h.836v2.904h-.837l-1.075-1.597v1.597h-.836V70.76ZM71.752 72.613v-.604h1.373v1.235a2.814 2.814 0 0 1-.698.37 2.344 2.344 0 0 1-.719.099c-.341 0-.62-.059-.834-.176a1.203 1.203 0 0 1-.5-.525 1.741 1.741 0 0 1-.178-.8c0-.317.064-.593.194-.828.13-.234.319-.412.569-.533.195-.094.456-.14.786-.14.318 0 .555.029.713.086a.933.933 0 0 1 .392.271 1.2 1.2 0 0 1 .235.465l-.858.155a.468.468 0 0 0-.18-.253.553.553 0 0 0-.321-.088.578.578 0 0 0-.466.206c-.115.136-.173.352-.173.648 0 .314.059.538.176.673.117.134.28.202.489.202.1 0 .194-.015.284-.044.09-.029.194-.078.31-.147v-.272h-.594ZM75.317 70.76h.83l1.082 1.605V70.76h.836v2.904h-.836l-1.076-1.597v1.597h-.836V70.76ZM79.594 72.218c0 .293.054.504.162.632a.545.545 0 0 0 .44.192c.19 0 .338-.063.442-.188.105-.126.157-.35.157-.675 0-.274-.055-.473-.164-.6a.556.556 0 0 0-.443-.189.537.537 0 0 0-.431.192c-.109.129-.163.34-.163.636Zm-.888-.005c0-.473.13-.842.392-1.106.261-.264.625-.397 1.092-.397.478 0 .846.13 1.105.39.259.259.388.622.388 1.09 0 .339-.056.617-.17.835a1.215 1.215 0 0 1-.49.507c-.213.12-.48.18-.798.18-.324 0-.593-.052-.805-.156a1.22 1.22 0 0 1-.517-.495c-.131-.226-.197-.508-.197-.848ZM83.225 71.936h.375c.04 0 .12-.013.236-.04a.234.234 0 0 0 .145-.091.272.272 0 0 0 .056-.169c0-.093-.03-.166-.089-.216-.059-.05-.17-.075-.332-.075h-.391v.59Zm-.892 1.728V70.76h1.48c.276 0 .485.023.63.07a.672.672 0 0 1 .352.265.808.808 0 0 1 .133.47c0 .162-.034.3-.102.417a.813.813 0 0 1-.282.284c-.076.047-.18.085-.313.115a.88.88 0 0 1 .231.108c.032.024.08.075.142.153.062.078.103.139.124.181l.433.84h-1.004l-.475-.888a.684.684 0 0 0-.161-.223.37.37 0 0 0-.218-.068h-.078v1.18h-.892ZM85.595 70.76h1.168l.45 1.767.449-1.767h1.165v2.904h-.725v-2.215l-.563 2.215h-.657l-.56-2.215v2.215h-.727V70.76ZM91.136 72.558l-.317-1.045-.315 1.045h.632Zm.185.628h-1.01l-.14.478h-.907l1.078-2.904h.972l1.08 2.904h-.929l-.144-.478ZM92.839 70.76h.888v2.19h1.385v.714h-2.273V70.76ZM99.049 70.76h.885v1.73c0 .171-.026.333-.08.485a1.051 1.051 0 0 1-.248.4.99.99 0 0 1-.356.24 1.78 1.78 0 0 1-.621.098c-.14 0-.293-.01-.458-.03a1.182 1.182 0 0 1-.415-.118 1.038 1.038 0 0 1-.305-.25.927.927 0 0 1-.189-.335 1.763 1.763 0 0 1-.082-.49v-1.73h.885v1.77a.51.51 0 0 0 .13.372.484.484 0 0 0 .363.134.486.486 0 0 0 .36-.132c.087-.088.13-.212.13-.373V70.76ZM100.688 70.76h.83l1.082 1.605V70.76h.836v2.904h-.836l-1.076-1.597v1.597h-.836V70.76ZM104.224 73.664h.891V70.76h-.891v2.904ZM105.625 70.76h.929l.647 2.09.638-2.09h.902l-1.067 2.904h-.963l-1.086-2.904ZM109.19 70.76h2.384v.618h-1.492v.463h1.385v.591h-1.385v.573h1.535v.659h-2.427V70.76ZM113.158 71.936h.375a1.3 1.3 0 0 0 .236-.04.231.231 0 0 0 .144-.091.266.266 0 0 0 .056-.169c0-.093-.029-.166-.088-.216-.059-.05-.17-.075-.332-.075h-.391v.59Zm-.892 1.728V70.76h1.481c.274 0 .484.023.629.07a.664.664 0 0 1 .351.265c.09.129.134.285.134.47 0 .162-.034.3-.102.417a.798.798 0 0 1-.282.284 1.06 1.06 0 0 1-.313.115.872.872 0 0 1 .231.108c.033.024.08.075.142.153.062.078.103.139.124.181l.433.84h-1.005l-.475-.888a.679.679 0 0 0-.16-.223.372.372 0 0 0-.218-.068h-.078v1.18h-.892ZM115.384 72.703l.846-.053a.655.655 0 0 0 .111.317.467.467 0 0 0 .391.176.43.43 0 0 0 .293-.09.272.272 0 0 0 .102-.21.269.269 0 0 0-.097-.202c-.065-.06-.216-.115-.454-.168-.39-.089-.668-.207-.834-.353a.712.712 0 0 1-.251-.56c0-.15.043-.29.129-.423a.848.848 0 0 1 .386-.313c.172-.076.407-.114.707-.114.367 0 .647.07.839.208.193.138.308.357.344.659l-.836.05c-.022-.132-.069-.228-.141-.288a.445.445 0 0 0-.295-.09c-.103 0-.181.023-.233.067a.203.203 0 0 0-.079.162c0 .046.022.088.065.124.042.039.142.074.299.108.388.084.666.17.834.256.168.087.29.194.367.322a.828.828 0 0 1 .114.43.955.955 0 0 1-.58.873 1.716 1.716 0 0 1-.692.122c-.489 0-.827-.095-1.015-.285a1.13 1.13 0 0 1-.32-.725ZM118.634 73.664h.892V70.76h-.892v2.904ZM120.118 70.76h2.703v.716h-.907v2.188h-.889v-2.188h-.907v-.716ZM123.09 70.76h.987l.58.979.583-.98h.981l-1.118 1.689v1.216h-.892v-1.216l-1.121-1.688Z" clip-rule="evenodd"/></g><defs><filter id="a" width="154" height="157" x="0" y="0" color-interpolation-filters="sRGB" filterUnits="userSpaceOnUse"><feFlood flood-opacity="0" result="BackgroundImageFix"/><feColorMatrix in="SourceAlpha" result="hardAlpha" values="0 0 0 0 0 0 0 0 0 0 0 0 0 0 0 0 0 0 127 0"/><feOffset dy="16"/><feGaussianBlur stdDeviation="6.5"/><feColorMatrix values="0 0 0 0 0 0 0 0 0 0 0 0 0 0 0 0 0 0 0.03 0"/><feBlend in2="BackgroundImageFix" result="effect1_dropShadow_185_92"/><feBlend in="SourceGraphic" in2="effect1_dropShadow_185_92" result="shape"/></filter></defs></svg>