<svg xmlns="http://www.w3.org/2000/svg" width="154" height="157" fill="none"><g filter="url(#a)"><path fill="#fff" d="M13 0h128v128H13z"/><path fill="#E60012" fill-rule="evenodd" d="M46.18 68.427c-.8 3.163-7.775 8.056-16.105 4.016 3.45 2.225 7.993 2.663 12.787.585 2.069-.993 3.737-2.353 4.724-4.346 2.15-5.1-3.374-8.88-7.974-8.179-1.532.189-3.006.841-4.443 2.042l-.12.134c3.832-5.479 14.106-3.7 15.15 3.054.037-7.302-9.919-9.338-16.237-4.59 3.281-5.186 14.03-5.253 16.65.573-2.013-6.521-12.744-6.997-17.956-1.78 2.287-4.809 12.424-6.612 16.549-2.377-2.856-4.692-14.03-3.997-17.824 1.409.744-3.176 7.624-8.326 16.03-4.425-3.487-2.164-8.043-2.523-12.792-.366-2.05 1.024-3.7 2.414-4.65 4.418-2.025 5.065 3.206 8.862 7.83 8.235a7.598 7.598 0 0 0 3.12-1.11 9.56 9.56 0 0 0 1.618-1.218c-.05.066.112.103.062.17-3.862 5.315-14.18 3.26-15.111-3.462-.057 7.296 9.83 9.581 16.18 4.943C40.293 71.28 29.513 71.09 27 65.221c1.9 6.551 12.674 7.29 17.98 2.157-2.368 4.772-12.6 6.327-16.643 2.017 2.77 4.742 13.956 4.377 17.843-.968Z" clip-rule="evenodd"/><path fill="#000" fill-rule="evenodd" d="m58.94 60.661-.055.007-.287-.027.086.593-.185.41-.306.387-.287.125-.188.018.188-.304.242-.717.044-.468-.143.038-.267.904-.099.143-.187.144-.349.16-.057-.017-.044-.088-.042-.199v-.313l.086-1.301-.144-.655-.187-.778.044-.322.1-.351.244-.492.168-.485.017-.348-.061-.369-.1-.225-.167-.16-.388-.287-.466-.205-.392-.082h-.386l-.512.082-.556.099-.385.185-.331.225-.161.349.062.324.187.249.324.225.044-.124.038-.225.042-.187.244-.018.161.042.144.144.269.343.185.574.12.573v.94l-.063.836-.71.816-.597.509-.12.02-.17-.02-.26-.124-.249.044-.119.08-.08 1.208.1.406.144.188.529.017.536-.044.099-.284v-.307l.143-.119.287-.329.492-.43h.055l.044.025.02.198-.038.474-.511 1.714-.267.997-.27 1.102.027.287.062.243.198.266.598.14.423.061.045-.287.044-.18.081-.124.468-.306.304-.206.188-.198.43-.798.18-.25.206-.119.286-.297.25-.369.385-1.188.523-1.136v-1.052Zm0-1.16v.282l-.198-.075.044-.17.154-.037Zm0 .282.007.005.105-.062.082-.225-.126-.018-.068.018v.282Zm0 1.93v-1.052l.168-.02.125-.055-.02-.231-.017-.117.037-.062.25-.082.081-.143.08-.188-.144-.143-.042-.081.025-.142.324-.45.081.106.08.062.125-.024.225-.287.08-.198-.117-.17-.064-.117.02-.106.267-.064.18.027.126-.474-.126-.038-.099-.018-.081.056-1.083 1.003-.044-.1.044-.224.485-.512.43-.41.168-.126.225-.222.099-.287.081-.263.369-.368.348-.267.25-.286.423-.468.167-.225.082-.223.143-.86.018-.43.044-.225.1-.117.43-.044.224.018.082.082.042.491-.042.574-.263.593-.088.322v.187l.225.243.43.187.25.082.118.1.062.248v1.059l-.549.205-.492.163-.286.124-.243.143-.187.245-.243.366-.225.492-.185.593-.102.653-.024.53.106.773.1.349.105.123.18.02.387.062h.145l.104-.062.163-.243.188-.205.304-.108.386.044.655.243.223.143.17.144.037.125-.038.305-.105.244-.263.311-.492.404-.655.43-.758.45-.774.304-.393.181-.242.161-.144.064-.123-.02-.163-.223-.124-.306-.037-.324.061-.331.12-.223v-.143l-.038-.1-.205-.368-.106-.492-.02-.791.02-.618.062-.573.249-1.059.119-.43.123-.304.206-.368.02-.144-.038-.061-.27.125-.222.223-.556.836-.716 1.127-.547 1.157-.05.113Zm13.55 2.611-.274.1-.205-.018-.324-.232.081.311.223.48.324.43.174.144v-1.215Zm0-7.595v.648l-.05-.017-.162-.126-.267.082-.225.187-.61.468-.124.143-.045.1.045.043.081-.02.08-.024.081.044.088.08-.43.368-.044.143.044.161.08.225.18.144.206.02.064-.226v-.286l.017-.082.082-.081.205-.144.348-.143.355-.117v.99l-.191.031-.206.082-.143.198-.037.144.017.125.062.144.225.304.1.044.105-.044.068-.038v1.875h-.068l-.43.064-.205.143-.205.205-.144.325-.61.758-.018.163.08.144.18-.044.126-.062v.348l-.062.386-.126.666-.055.106-.105.064-.307.08h-.161l-.17-.106-.223-.305-.143-.324-.119-.423-.024-.161.061-.164.206-.249.242-.225.17-.205.816-1.246.143-.403-.044-.475-.304-.529-.406-.467-.205-.287-.188-.33-.242-.486h-.126l-.16.018-.35.125-.592.1-.697.044h-.307l-.223.061-.225.137-.225.205-.304.144-.205-.062-.163-.1-.106-.324v-.269l.044-.205.1-.178.125-.126.205-.1.735-.348 1.737-1.122 2.656-1.656.205.017-.038.082-.167.086-.206.242-1.184.737-2.188 1.427-.185.205-.282.33v.118l.082.044h.224l.161-.018.325-.064.492-.106.249-.099.43-.267.18-.225.082-.143.25-.082.59-.348.181.044.064.1.205-.182.41-.348-.105-.038-.225-.024-.036-.037.036-.082.286-.167.164-.038.105.062.062.099.038.106h.143l.126-.086.099-.082.048-.013Zm0-1.513v.1h-.11l.023-.062.086-.038Zm0 .1v-.1l.112-.044-.018.143h-.095Zm.573 4.584v5.95l-.23-.106-.286-.16-.058-.045v-1.215l.014-.007.16-.055.126-.106.1-.18.044-1.27-.044-.283-.1-.168-.125-.081h-.175v-1.875l.075-.044.206-.242.293-.113Zm0-1.762v1.076l-.049.02-.269.044-.256.031v-.99l.075-.024.499-.157Zm0-1.652v.256l-.23.124-.064.081v.082l.038.081-.223.305-.095-.038v-.648l.095-.024.08-.044.026-.062-.026-.082-.1-.222.1-.038.17.26.198-.017.03-.014Zm0-3.718v.393l-.086-.194-.027-.124.113-.075Zm3.407 9.55-.223-.118-.43-.088-.249.024-.163.164.064.143.037.123.144.181.167.225.287.468.018.31v.53l.064.287.099.174.143.187.042.051v-2.662Zm0-4.872v.498l-.024.027-.225.178-.26.252-.331.366-.1.368-.081.262-.143.168-.225.161-.285.205-.044.225.082.263-.038.105-.231.287-.161.199-.082.249-.126.43-.055.485.1.655.081.86.018.573.026.847-.044.922-.306.018-.41-.042-.325-.058-.218-.099V59.9l.095-.03 1.02-.984.045-.082v-.099l-.044-.1-.144-.043-.081.017-.062.106-.12.146-.248.08-.325.261-.136.042v-1.076l.095-.024.635-.245.635-.328.672-.287.305-.02.35.02.404.062.232.061.079.069Zm0-2.616v.424h-.08l-.392.099-.386.106-.25.119-.18.205-.082-.1-.081-.08-.106-.025-.18.044-.08.141-.044.126-.1.099-.249.143-.897.45-.3.161v-.256l.381-.191.141-.181.045-.082-.062-.287.017-.081.064-.024h.08l.368.224.163-.1.062-.285.161-.181-.342-.35-.205-.08h-.269l-.324.037.45-.287.205-.224.081-.144-.081-.143-.144-.137-.205-.167-.187-.1-.12-.044-.06.08-.082-.305-.137-.273v-.393l.013-.006.386-.161h.205l.225.061.474.26.161.226.038.249v.306l.167.404.12.348.043.25.018.61h.536l.163-.16.404-.106.412-.206.042-.013Zm0 .424v-.424l.717-.249.567-.044.18.081.144.124.163.412.017.144-.037.017-.287-.105-1.464.044Zm0 2.69v-.498l.037.03.106.17-.024.161-.119.137Zm0 7.035v-2.662l.468.25.249.2.2.185.106.12.038.368v.205l-.058.187-.143.324-.106.305-.08.443-.063.205-.124.082-.344-.102-.123-.08-.02-.03Zm7.882-4.325-.181.236-.044.181.044.144.163.143.018.007v-.71Zm0-2.816-.485.823.099.044.123-.205.225-.368.038-.051v-.243Zm0-3.687v1.184l-.199.161-.392.43-.468.655-.126.1-.061.143-.038.123.082.1.1.044.167.099-.044.512-.161.699-.206.877-.125.772-.018 1.328-.02.33.038.223.064.062.062-.024.242-.181.024-.188-.086-.178.044-.163.124-.205.018-.331-.062-.1v-.204l.187-.263.055-.024.064.044.025.08.017.815-.08 1.676-.268 1.29-.1.082-.204.018-.331-.267-.181-.225-.082-.287.02-1.246.044-.897.08-1.39.286-1.202.225-.716-.024-.161-.037-.082-.062.02-.207.366-.08.287-.45 1.146-.106.55-.119.509-.123.45-.1.465-.105.368-.225.475-.305.447-.143.144-.1.061-.33-.143-.205-.104-.082-.119-.18-.286-.062-.206.099-.286.697-.997.45-.593.18-.349.124-.386.106-.597.119-.45.205-1.325.225-1.14.267-.556.205-.287.225-.26.306-.225.186-.124.567-.225.125-.125.124-.062.119.044Zm0 1.184.31-.245.144-.185.038-.143-.038-.12-.454-.491v1.184Zm0 6.03v-.71l.044-.05.348-.367.325-.43.187-.27.43-.734.386-.734.287-.754.143-.161v-.126l-.163-.1-.349-.105-.286.086-.574.344-.467.448-.311.379v-.243l.286-.478.331-.413.267-.267.198-.306.395-.448.51-.304.43-.18.143-.17.12-.26.167-1.086-.025-.492.025-.368.055-.243.207-.242.349-.225.758-.106.12.062.081.081.044.1-.02.187-.167.163-.307.305-.287.33-.123.468-.018.267-.163.286.062.12.064.123.143.102.366.14.181.027.044-.082h.082l.143.1.41.286.082.1.037.081-.02.082-.672.454-.311.161-.307.225-.123.143-.082.144.027.225.08.061.162-.024.878-.423.53-.088.454.024.405.037.188.064.123.144.038.366-.124.225-.45.267-.304.18-.269.188-.465.405-.188.206-.099.187-.044.366-.1.2-.125.224-.018.125.018.062h.448l.924-.044.062.081.017.126-.037.267-.144.368-.249.181-.485.329-.287.225-.267.306-.207.243-.1.205-.123.512-.125 2.628-.08 2.305.042.368.12.492.167.403.064.556-.064.492-.205.342-.305.207-.187.042-.143-.123-.181-.611-.126-.655.064-4.654.1-1.631v-.206l-.063-.081-.18.024-.574.324-.286.102-.206-.02-.368-.324-.126-.188-.017-.205.143-.448.243-.306.536-.61.511-.636.267-.386.12-.205-.02-.124-.1-.04-.062.04-.187.267-.635.755-.629.652-.348.307-.25.106-.323-.027-.331-.092Zm14.447 3.962-.13-.03.13.249v-.219Zm0-11.98v3.06l-.3.236-.243.324-.062.168.062.099h.243l.17-.044.13-.086v3.987l-.093.124-.02.081.113.013v3.077l-.031-.007-.287-.117-.242-.286-.082-.27-.062-.266-.062-.12-.081-.017-.144.199-.044.268.168.752.02.468-.02.53-.124.063h-.125l-.144.018-.286-.044-.322-.161-.126-.181-.082-.269-.061-.54.02-.43.061-.512.042-.697.245-1.632.143-.897.161-.574.062-.368-.062-.18-.198-.063-.232.038-.242.106-.225.16-.43.468-.223.163-.187.025-.406-.161-.185-.126-.064-.205v-.386l.064-.188.205-.18.635-.386.286-.205.161-.188.611-.71.168-.412-.39.35-.532.468-.448.267-.511.242-1.065.307-.404.042-.33-.025-.206-.116-.126-.188-.037-.18.038-.164.088-.123.143-.1.51-.231.754-.137.593-.123 1.594-.819.574-.304.304-.187.225-.181.106-.311.062-.243.143-.225.119-.242.024-.287-.081-.16-.168-.144-.18-.126-.126-.143-.062-.181.02-.124.123-.242.144-.064.125-.024.161.024.331.119.212.055Zm.672 12.018v.884l-.273-.18-.368-.468-.031-.055v-.219l.03.007.243.08.188.026.211-.075Zm0-4.188v.88l-.03.018-.038.061-.044.082-.08.1-.063.08-.062.127-.018.222v.205l.042.064.082.018.211.057v1.202l-.192.049-.224.064-.256-.02v-3.077l.092.011.263-.024.31-.099.007-.02Zm0-7.793v4.741l-.05.024.05.044v2.062h-.068l-.082.062-.061.102-.044.143-.08.16-.262.27-.075.1v-3.988l.379-.256.163-.123.062-.102-.124-.267-.163-.099-.16.018-.144.125-.013.007v-3.06l.03.006h.468l.174.03Zm0 4.741v-4.741l.338.05.311.331.205.243.099.16.143.126.181.045.679-.106.305-.064.368-.018.386.188.287.198.143.225.024.106-.042.08-.672.1-.761.062h-.287l-.304.044-.126.181-.037.08-.062.026h-.304l-.287.1-.126.16.044.062.144.064.939.485.324.205.249.163.12.186.044.368-.082.126-.205.08-.717.063-.368.08-.267.119-.467.31-.219.113Zm0 8.124v-.884l.031-.007.225-.225.062-.286-.018-.362-.101-.143-.124-.062-.075.013v-1.202l.013.005h.08l.082-.062.143-.143.02-.305-.02-.306-.038-.106-.143-.117-.106-.026-.03.026v-.88l.074-.106.038-.222v-.389l-.02-.123-.08-.082h-.013v-2.062l.543.413.187.198.205.27.144.304.037.348-.099.591-.108.406v.986l.081 1.226.168 1.24.102 1.078v.553l.017.287-.017.225-.082.16-.161.065-.637-.17-.367-.117-.013-.007Zm12.74-4.53-1.402-.317.368.468.412.447.51.655.112.243V61.72Zm0-5.213v1.557l-.443.256-.977.512-.143.14-.249.345-.693 1.574-.43 1.328-.348.96-.1.224-.167.181-.243.143-1.085.223-.816.106-1.041.02-.167-.082-.1-.123-.061-.144v-.18l-.126-.082-.082-.044v-.062l.106-.143.181-.181.225-.1.267-.023.126.041-.025.04.062.062.267-.062.754-.344.331-.205.243-.163.205-.186.269-.385.117-.225.081-.307v-.185l-.143-.181-.181-.106-.124-.02-.224.038h-.492l-.324-.038-.225-.099-.161-.187-.126-.223-.143-.35-.042-.305.024-.225.082-.123.529-.058h.386l.106.057.242.062.249-.037.164-.082.652-.653.164-.205.222-.306.106-.474.057-.71.062-1.145-.037-.512-.168-.816-.119-.467.062-.368.2-.124.106-.044.243-.055.304.055.313.106.342.18.23.25.163.198.099.351-.099.609.017.286-.017.25-.144.18-.125.243-.062.368-.062.393.062.342.044.143.099.044.45-.123.454-.225.243-.243.126-.082.161-.044.317-.01Zm0 1.557v-1.557l.093-.006.406.017.447.208.208.099.167.106.082.099v.43l-.126.205-.081.082-.08.037-.368-.02-.225.02-.185.086-.338.194Zm0 5.152V61.72l.212.05.761.223.467.225.186.12.099.123.126.33.037.369-.02.403-.079.43-.324.593-.168.181-.207.08h-.199l-.205-.106-.187-.154-.144-.245-.225-.715-.116-.388-.014-.024Zm7.278 1.532V66l-.133-.013-.509-.205-.45-.243-.368-.324-.185-.269-.062-.243.079-.16.188-.058.447.037.574.137.419.088Zm0-3.925v1.314l-.276-.024-.331-.1-.26-.187-.187-.16-.205-.307-.058-.287.02-.222.161-.208.287-.222.269.286.099.106.188.08.293-.069Zm0-3.363v.96l-.051.043-.163.243.02.287v.123l-.044.057-.448.225-.673.285-.573.287-.307.163-.286.062h-.186l-.143-.062-.119-.12-.082-.123-.024-.163.044-.161.287-.392.304-.307.755-.717.372-.485.344-.448.223-.225.17-.081h.117l.187.163.082.18.099.144.088.062h.007Zm0-2.082v1.198l-.177-.075-.205-.1-.136-.105-.331-.389-.124-.099-.099-.23v-.262l.099-.16.144-.106.123-.038.188.038.262.205.249.123h.007Zm.99 9.251v1.379l-.593.024-.397-.03v-1.254l.073.02.43-.044.487-.095Zm0-4.179v1.482l-.45.163-.529.042h-.011v-1.314l.317-.075.673-.298Zm0-2.436-.082.037-.386.269-.187.161-.119.143.082.611.061.106.119.057.369.042.143-.01v-1.416Zm0-.891v.593l-.368.236-.324.242-.225.163-.073.062v-.959h.092l.878-.324.02-.013Zm0-.984v.492l-.02.013-.287.082h-.324l-.205-.082-.154-.068v-1.198l.335.038.205.081.163.126.287.516Zm0-1.614v.35l-.057-.112-.025-.144.082-.094Zm0 2.106.079-.049-.055-.406-.024-.037v.492Zm1.619 1.065-.062.007-.307.143-.205.126-.447.16-.144-.037-.044-.062-.081-.163-.329.144v1.415l.123-.006.225-.044.106.02.055.085.045.12.044.529-.044.086-.124.057-.225.08-.205.094v1.482l.062-.017.368-.188.304-.099.43-.082.144.082.061.143.025.243-.106 1.738-.062.16-.143.126-.26.181-.823.41v1.379l1.513.123.106-.006V58.78l-.287.25-.143.023-.168-.123-.037-.082.037-.143.086-.126.201-.017.286-.062.025-.02v-.785Zm0-1.475v.59l-.106.038-.43.263-.51.266-.494.287-.079.05v-.592l.902-.523.243-.18.187-.162h.225l.062-.037Zm0-.799-.225.157-.168.167-.143.181.024.082.082.042.242-.185.188-.126v-.318Zm0-1.718v1.002l-.106.368-.062.137-.119.187-.143.1-.106.043-.099-.02-.673-.328-.287-.287-.024-.03v-.351l.024-.025.324-.143.287-.081.287-.08.242-.126.188-.081.143-.106.124-.179Zm0 1.002.037-.144.106-.553.055-.574-.161.205-.037.064v1.002Zm.915-.854v1.808l-.08.062.045.144.035.041v.563l-.915.342v-.591l.198-.106.146-.208.061-.143v-.123l-.119-.062-.205.106-.081.055v-.318l.198-.15.126-.324.161-.366.225-.412.205-.318Zm0-1.021v.225l-.08.038-.081-.065.161-.198Zm-.324 4.79-.062.207.062.018.181.024h.125l.018-.017v1.184l-.035.017-.252.144-.143.119-.035.185.035.163.026.062.144.02.26-.013v2.348l-.018.219-.062 1.263v.843l-.101.46-.106.367-.099.368-.099.306-.025.186-.405.03V58.78l.037-.03.161-.144.126-.17.062-.161.143-.126.099-.117-.037-.044-.062.025-.287.244-.123.124-.119.099v-.785l.368-.03.143-.188.324-.243.08-.038v.219l-.161.126-.163.079Zm.324-1.96.126-.102.266-.117.245-.187.287-.307.796-1.001.898-.593.044-.161-.044-.243-.12-.412-.286-.267-.51-.386-.313-.082-.26.044-.474.26-.512.556-.143.168v.225l.106-.05.143-.12.201-.106h.044l-.02.082-.082.205-.167.43-.225.355v1.808Zm0 6.421v-2.348l.474-.025 1.147-.064h.467l.43.102.267.185.225.2.117.288v.286l-.079.223-.263.064-.983-.064-1.229.064-.324.185-.185.263-.064.641Zm0-4.23.081-.068.25-.324.061-.163-.024-.018-.143.018-.225.119v-.218l.351-.15.471-.137.611-.143.43-.186.243-.143.082-.102-.082-.143-.082-.062-.123-.017-.611.062-1.209.262-.081.03v-.562l.026.02.117-.037.679-.144.631-.105 1.165-.1.86.1.266.105.144.12.062.167.037.406-.062.223-.198.187-.269.12-.898.023-.714.144-.393.099-.064.18-.017.27-.1.185-.269.102-.161.079-.106.1-.2.206-.144.106-.061.055-.082.126-.024.205-.038.1-.187.088v-1.184Z" clip-rule="evenodd"/><path fill="#000" d="M54.125 73.41h.519c.646 0 .924-.206.924-.689s-.278-.65-.819-.65h-.624v-.242h.776c.72 0 1.14.357 1.14.86 0 .41-.283.773-.982.857V73.5c.82.068 1.156.436 1.156.887 0 .479-.395.962-1.387.962h-.703v-.242h.577c.684 0 1.014-.258 1.014-.72 0-.488-.32-.735-1.056-.735h-.535v-.242Zm-.237.047c0-.54 0-1.087-.015-1.628h.504c-.015.53-.015 1.076-.015 1.629v.182c0 .62 0 1.167.015 1.708h-.504c.015-.531.015-1.077.015-1.629v-.261Zm.237 1.602v.289h-.736v-.21l.683-.08h.053Zm-.736-3.02v-.21h.736v.289h-.053l-.683-.079ZM58.541 73.484l.079-.558h.237v1.246h-.237l-.079-.584v-.104Zm.998.928-.036.936h-1.98v-.263h1.796l-.237.263.163-.936h.294Zm-.83-.74h-1.187v-.24h1.188v.24Zm.268-1.843.237.263h-1.691v-.263h1.875l.036.935h-.294l-.163-.935Zm-1.691 1.629c0-.542 0-1.088-.015-1.63h.503c-.015.53-.015 1.077-.015 1.63v.199c0 .603 0 1.15.015 1.69h-.503c.015-.53.015-1.076.015-1.628v-.261Zm.236 1.6v.29h-.734v-.21l.682-.08h.053Zm-.734-3.019v-.21h.735v.289h-.053l-.682-.079ZM60.69 73.456c0-.54 0-1.086-.016-1.627h.504c-.015.53-.015 1.076-.015 1.627v.263c0 .541 0 1.088.015 1.629h-.504c.015-.531.015-1.077.015-1.629v-.263Zm.289 1.603.682.079v.21h-1.47v-.21l.682-.08h.106Zm-.788-3.02v-.21h1.47v.21l-.682.079h-.106l-.682-.079ZM62.38 71.829h1.524v.21l-.684.079h-.105l-.735-.079v-.21Zm1.041 0c-.017.53-.017 1.076-.017 1.629v.834c0 .588-.01.855-.062 1.124-.1.524-.54.782-.977.782-.195 0-.4-.053-.447-.252.032-.189.153-.252.316-.252.131 0 .24.041.389.152l.173.132-.042.058-.043.005-.01-.043c.2-.152.268-.346.268-.676 0-.316-.027-.863-.053-3.493h.505ZM65.055 73.456c0-.54 0-1.086-.017-1.627h.505c-.017.53-.017 1.076-.017 1.627v.263c0 .541 0 1.088.017 1.629h-.505c.017-.531.017-1.077.017-1.629v-.263Zm.287 1.603.684.079v.21h-1.471v-.21l.682-.08h.105Zm-.787-3.02v-.21h1.471v.21l-.684.079h-.105l-.682-.079ZM69.432 71.829h.263v3.555l-.263-.263v-3.292Zm-.55 0h1.26v.21l-.526.079h-.105l-.63-.079v-.21Zm-1.733 0 .263.21v3.309h-.263v-3.52Zm-.117.163.327.126-.631-.079v-.21h.787l2.18 2.999v.556h-.167l-2.496-3.392Zm-.33 3.146.552-.08h.105l.603.08v.21h-1.26v-.21ZM72.616 73.888v-.21h1.366v.21l-.579.052h-.105l-.682-.052Zm1.035 1.229c-.363.188-.72.31-1.156.31-1.05 0-1.764-.784-1.764-1.84 0-1.054.72-1.837 1.785-1.837.436 0 .761.079 1.056.252l.02.762h-.32l-.13-.778.325.106v.299c-.284-.263-.573-.378-.91-.378-.734 0-1.275.573-1.275 1.575 0 .997.494 1.57 1.313 1.57.299 0 .52-.067.82-.216l-.238.248v-.304c0-.4-.005-.81-.015-1.209h.504c-.011.394-.015.799-.015 1.209v.23ZM77.794 74.523c0-.342-.205-.494-.662-.672l-.2-.08c-.535-.21-.903-.514-.903-1.05 0-.603.51-.971 1.176-.971.352 0 .63.11.856.278l-.03.684h-.316l-.147-.793.336.173v.263c-.257-.252-.452-.342-.73-.342-.41 0-.72.204-.72.599 0 .33.216.524.6.671l.204.079c.693.269.96.573.96 1.067 0 .619-.519.998-1.238.998-.395 0-.778-.128-1.02-.28l.032-.735h.315l.137.81-.341-.148v-.252c.325.237.503.342.86.342.5 0 .83-.231.83-.64ZM80.1 73.956h-.52v-.243h.599c.644 0 .898-.34.898-.84 0-.509-.284-.802-.92-.802h-.578v-.242h.677c.873 0 1.319.43 1.319 1.045 0 .588-.404 1.082-1.475 1.082Zm-.757-.5c0-.54 0-1.086-.016-1.627h.504c-.015.53-.015 1.076-.015 1.627v.321c0 .536 0 1.03.015 1.57h-.504c.016-.53.016-1.076.016-1.628v-.263Zm.289 1.603.682.079v.21h-1.47v-.21l.683-.08h.105Zm-.788-3.02v-.21h.735v.289h-.052l-.683-.079ZM83.787 75.164c.74 0 1.05-.788 1.05-1.576s-.31-1.575-1.05-1.575-1.056.787-1.056 1.575c0 .788.315 1.576 1.056 1.576Zm1.601-1.576c0 1.15-.788 1.839-1.601 1.839-.814 0-1.607-.641-1.607-1.84 0-1.15.797-1.837 1.607-1.837.808 0 1.601.64 1.601 1.838ZM86.712 73.484h.656c.568 0 .84-.306.84-.73 0-.442-.236-.683-.783-.683h-.713v-.242h.718c.804 0 1.276.342 1.276.924 0 .447-.351.851-1.039.91l.017-.044c.378.038.609.21.75.684l.257.87-.163-.1.541.065v.21a1.24 1.24 0 0 1-.378.051c-.325 0-.468-.083-.53-.325l-.216-.855c-.105-.427-.299-.5-.734-.5h-.499v-.235Zm-.236-.026c0-.542 0-1.088-.017-1.63h.505c-.016.547-.016 1.062-.016 1.68v.159c0 .593 0 1.14.016 1.68h-.505c.017-.53.017-1.076.017-1.628v-.261Zm.287 1.6.684.08v.21h-1.471v-.21l.684-.08h.103Zm-.787-3.019v-.21h.736v.289h-.052l-.684-.079ZM90.565 73.456c0-.54 0-1.086-.016-1.627h.505c-.017.53-.017 1.076-.017 1.627v.263c0 .541 0 1.088.017 1.629h-.505c.016-.531.016-1.077.016-1.629v-.263Zm.288 1.603.736.079v.21h-1.576v-.21l.736-.08h.104Zm-1.302-2.967.236-.263-.167.935h-.295l.043-.935h2.866l.043.935h-.295l-.167-.935.237.263H89.55ZM97.931 72.117l-.578-.079v-.21h1.263v.21l-.58.079h-.105Zm-.946 2.945c.605 0 .91-.341.91-1.284v-1.95h.263v2.088c0 1.104-.536 1.514-1.247 1.514-.762 0-1.278-.425-1.278-1.404v-.568c0-.541 0-1.089-.015-1.63h.505c-.016.531-.016 1.078-.016 1.63v.416c0 .904.341 1.188.878 1.188Zm-1.798-3.024v-.21h1.472v.21l-.683.079h-.105l-.684-.079ZM101.776 71.827h.263v3.56l-.263-.262v-3.298Zm-.551 0h1.262v.21l-.527.08h-.105l-.63-.08v-.21Zm-1.735 0 .263.21v3.314h-.263v-3.524Zm-.117.164.326.126-.63-.08v-.21h.788l2.182 3.003v.557h-.167l-2.499-3.396Zm-.33 3.15.552-.08h.104l.605.08v.21h-1.262v-.21ZM103.465 73.458c0-.542 0-1.089-.017-1.63h.506c-.017.531-.017 1.077-.017 1.63v.264c0 .54 0 1.087.017 1.63h-.506c.017-.532.017-1.079.017-1.63v-.264Zm.288 1.603.685.08v.21h-1.473v-.21l.683-.08h.105Zm-.788-3.023v-.21h1.473v.21l-.685.079h-.105l-.683-.08ZM107.566 72.117l-.526-.053v-.237h1.216v.21l-.585.08h-.105Zm-2.418-.29h.504l1.052 2.988h-.111l1.01-2.988h.284l-1.204 3.56h-.211l-1.324-3.56Zm.372.29-.683-.08v-.21h1.421v.237l-.632.053h-.106ZM110.383 73.485l.079-.558h.237v1.246h-.237l-.079-.583v-.105Zm.999.93-.036.936h-1.982v-.263h1.798l-.237.263.164-.937h.293Zm-.83-.742h-1.188v-.241h1.188v.241Zm.268-1.846.237.264h-1.693v-.264h1.877l.036.937h-.294l-.163-.937Zm-1.693 1.631c0-.542 0-1.089-.016-1.63h.505c-.015.531-.015 1.077-.015 1.63v.2c0 .604 0 1.151.015 1.693h-.505c.016-.53.016-1.078.016-1.63v-.263Zm.237 1.603v.29h-.736v-.21l.683-.08h.053Zm-.736-3.023v-.21h.736v.289h-.053l-.683-.08ZM112.623 73.485h.657c.568 0 .843-.305.843-.732 0-.44-.237-.683-.785-.683h-.715v-.243h.721c.804 0 1.277.343 1.277.926 0 .448-.352.852-1.04.91l.015-.043c.378.038.61.211.752.685l.258.873-.163-.1.541.063v.21a1.202 1.202 0 0 1-.378.053c-.327 0-.468-.085-.532-.326l-.215-.858c-.105-.425-.299-.498-.735-.498h-.501v-.237Zm-.237-.027c0-.542 0-1.089-.015-1.63h.504c-.015.547-.015 1.062-.015 1.683v.158c0 .593 0 1.14.015 1.682h-.504c.015-.53.015-1.078.015-1.63v-.263Zm.29 1.603.683.08v.21h-1.472v-.21l.684-.08h.105Zm-.789-3.023v-.21h.736v.289h-.052l-.684-.08ZM117.194 74.525c0-.342-.205-.493-.664-.673l-.199-.08c-.537-.208-.904-.513-.904-1.05 0-.605.51-.972 1.178-.972.352 0 .63.11.856.278l-.032.683h-.314l-.148-.794.336.174v.263c-.257-.252-.451-.342-.73-.342-.41 0-.72.205-.72.6 0 .33.216.525.6.673l.205.078c.693.269.961.573.961 1.068 0 .62-.521 1-1.241 1-.394 0-.778-.127-1.02-.28l.032-.737h.316l.135.811-.34-.147v-.253c.325.236.504.342.862.342.5 0 .831-.231.831-.642ZM118.597 73.458c0-.542 0-1.089-.017-1.63h.506c-.016.531-.016 1.077-.016 1.63v.264c0 .54 0 1.087.016 1.63h-.506c.017-.532.017-1.079.017-1.63v-.264Zm.29 1.603.683.08v.21h-1.473v-.21l.684-.08h.106Zm-.79-3.023v-.21h1.473v.21l-.683.079h-.106l-.684-.08ZM121.238 73.458c0-.542 0-1.089-.016-1.63h.505c-.016.531-.016 1.077-.016 1.63v.264c0 .54 0 1.087.016 1.63h-.505c.016-.532.016-1.079.016-1.63v-.264Zm.288 1.603.738.08v.21h-1.579v-.21l.737-.08h.104Zm-1.304-2.97.237-.264-.167.937h-.295l.043-.937h2.871l.041.937h-.295l-.168-.937.237.264h-2.504ZM125.79 72.117l-.583-.08v-.21h1.209v.21l-.526.08h-.1Zm-1.215 1.656h.474c0 .6 0 1.11.015 1.578h-.504c.015-.457.015-.973.015-1.578Zm.29 1.288.735.08v.21h-1.577v-.21l.736-.08h.106Zm-.2-.893-1.152-2.34h.548l.956 2.072h-.184l.983-2.073h.269l-1.13 2.34h-.29Zm-1.447-2.13v-.21h1.473v.21l-.683.079h-.105l-.685-.08Z"/></g><defs><filter id="a" width="154" height="157" x="0" y="0" color-interpolation-filters="sRGB" filterUnits="userSpaceOnUse"><feFlood flood-opacity="0" result="BackgroundImageFix"/><feColorMatrix in="SourceAlpha" result="hardAlpha" values="0 0 0 0 0 0 0 0 0 0 0 0 0 0 0 0 0 0 127 0"/><feOffset dy="16"/><feGaussianBlur stdDeviation="6.5"/><feColorMatrix values="0 0 0 0 0 0 0 0 0 0 0 0 0 0 0 0 0 0 0.03 0"/><feBlend in2="BackgroundImageFix" result="effect1_dropShadow_185_278"/><feBlend in="SourceGraphic" in2="effect1_dropShadow_185_278" result="shape"/></filter></defs></svg>