<svg xmlns="http://www.w3.org/2000/svg" width="154" height="157" fill="none"><g filter="url(#a)"><path fill="#fff" d="M13 0h128v128H13z"/><path fill="#004098" fill-rule="evenodd" d="m54.488 61.584-1.01 3.656s-.163.327-.573.41c0 0-.736.326-.9.818 0 0-1.555 1.828-2.101.791 0 0-.055-.6-.382-.573 0 0-.2-.168.49-.315 0 0 1.206.192 2.03-1.204 0 0 .616-1.191-.398-1.485 0 0-1.028-.044-.911-.662 0 0 .015-.206.5-.25 0 0 1.543-.308.955-1.263 0 0-.94-1.147.426-1.338 0 0 1.72-.375 1.874 1.415Z" clip-rule="evenodd"/><path fill="#004098" d="m35.353 69.007.212-.102h.02v.73a.43.43 0 0 0 .007.092.05.05 0 0 0 .025.026c.013.007.04.01.078.012v.024h-.326v-.024a.242.242 0 0 0 .08-.01.057.057 0 0 0 .024-.026.353.353 0 0 0 .007-.093v-.467a.664.664 0 0 0-.006-.122.05.05 0 0 0-.017-.03.04.04 0 0 0-.028-.01.164.164 0 0 0-.066.02l-.01-.02ZM35.953 69.799v-.024a.345.345 0 0 0 .155-.038.566.566 0 0 0 .231-.336.342.342 0 0 1-.181.064.207.207 0 0 1-.157-.07.268.268 0 0 1-.066-.187c0-.076.022-.144.066-.203a.243.243 0 0 1 .388-.02.4.4 0 0 1 .094.27.532.532 0 0 1-.071.27.602.602 0 0 1-.198.206.402.402 0 0 1-.225.068h-.036Zm.397-.445c.007-.055.011-.1.011-.133a.48.48 0 0 0-.02-.133.249.249 0 0 0-.062-.11.12.12 0 0 0-.087-.04.127.127 0 0 0-.1.052c-.028.034-.043.085-.043.152 0 .09.02.16.057.21a.124.124 0 0 0 .103.056c.02 0 .043-.005.07-.015a.215.215 0 0 0 .07-.04ZM37.207 68.923l-.05.108h-.261l-.057.116a.457.457 0 0 1 .269.126.28.28 0 0 1 .085.205.286.286 0 0 1-.028.126.356.356 0 0 1-.164.165.35.35 0 0 1-.151.035c-.052 0-.09-.009-.114-.026-.024-.018-.035-.038-.035-.059a.04.04 0 0 1 .014-.031.049.049 0 0 1 .038-.014c.01 0 .02.001.029.005a.251.251 0 0 1 .042.026.167.167 0 0 0 .097.033.18.18 0 0 0 .132-.056.19.19 0 0 0 .057-.138.24.24 0 0 0-.051-.146.32.32 0 0 0-.14-.106.58.58 0 0 0-.19-.033l.167-.336h.31ZM37.959 69.622l-.062.167h-.512v-.024c.151-.137.257-.249.318-.336a.425.425 0 0 0 .093-.238c0-.055-.017-.1-.05-.135a.16.16 0 0 0-.122-.053.189.189 0 0 0-.115.037.213.213 0 0 0-.075.11h-.024a.298.298 0 0 1 .082-.182.23.23 0 0 1 .166-.063c.07 0 .13.022.176.068a.212.212 0 0 1 .071.16c0 .043-.01.087-.03.13a.878.878 0 0 1-.154.22 4.17 4.17 0 0 1-.2.209h.227a.602.602 0 0 0 .097-.005.127.127 0 0 0 .09-.065h.024ZM44.624 62.028c-.043.003-.086.006-.089-.038-.089-.037-.199-.377-.204-.464-.004-.042.076-.135.033-.132-.002-.043-.049-.083-.049-.083-.046-.04-.049-.084-.052-.127-.043.003-.043.003-.088-.037l-.046-.04c-.047-.041-.05-.084-.096-.124-.002-.044-.046-.04-.049-.084-.042.003-.089-.037-.092-.08-.043.003-.223-.115-.226-.158-.055-.17.377-.157.427-.074.048.084-.08.093-.075.18.044-.004.04-.047.084-.05.042-.003.082-.049.168-.055l.04-.046c.043-.003.083-.05.083-.05a.328.328 0 0 1 .166-.098c-.003-.043.04-.046.04-.046.046.04.046.04.05.084-.038.089-.16.185-.247.19-.086.006-.126.053-.212.059.003.043-.04.046-.04.046s-.04.046.003.043c.004.043.046.04.046.04.04-.046.083-.049.126-.053l.086-.005c-.003-.043.04-.046.083-.05.04-.045.04-.045.083-.048.043-.003.04-.047.084-.05.085-.006.131.035.09.081a.093.093 0 0 1-.078.092l-.087.006c.003.044-.04.047-.082.05l-.087.006-.043.003s-.04.045-.083.049c0 0-.043.003-.04.046l.043-.003c.043-.003.09.037.132.034 0 0 .04-.046.084-.05.045.04.006.088.048.085 0 0 .046.04.043-.004 0 0-.046-.04-.05-.083-.002-.043.084-.05.127-.052l.04-.046.043-.003c.003.043.006.086.052.126.089.038.209-.101.261.026l.01.13c-.04.046-.08.092-.17.055-.046-.04-.006-.087-.092-.081l-.043.003c.003.043-.04.046-.037.09-.04.046-.132-.035-.175-.032l-.086.006.003.044-.043.003c-.04.045-.034.132.052.126.043-.003.04-.046.038-.09l.042-.003c.046.04.052.127.138.121a.326.326 0 0 1 .074-.178c.086-.007.055.169.144.207l.083-.05c.043-.003.037-.088.037-.088l.043-.004c.003.044.046.04.046.04l.138.121.009.13.003.043c-.08.093-.172.012-.261-.025l-.13.009c-.042.003-.085.005-.13-.035l-.13.009c-.043.003-.043.003-.088-.037l.002.043.003.044c.046.04.092.08.095.123.047.04.053.127.015.216 0 0-.043.003-.04.047Z"/><path fill="#004098" d="M44.008 61.853c-.132-.034-.092-.08-.142-.164-.003-.043-.045-.04-.048-.083 0 0-.004-.044-.05-.084-.042.003-.125.052-.169.055l-.04.047-.085.006c-.083.049-.393-.06-.4-.146.038-.09.112-.269.195-.318 0 0 .04-.046.042-.003.047.04.05.084.053.127.003.043.003.043.046.04.048.084.052.127.135.078l.129-.01c.034-.132-.193-.29-.162-.466.043-.003.04-.046.083-.05 0 0 .046.04.049.084.042-.002.046.04.049.084.003.043.055.17.058.213.046.04.129-.009.171-.012l.087-.006-.046-.04c-.047-.04-.05-.084-.092-.08-.006-.087-.013-.174.074-.18l.046.04c.002.044.009.13.054.17.047.04.05.084.096.125.046.04.092.08.134.077.003.043.056.17.016.216l-.086.006c-.003-.043-.046-.04-.05-.084-.045-.04-.224-.114-.224-.114-.036.089.056.17.105.253 0 0 .003.044.049.084 0 0 .003.043-.04.046.003.043-.04.046-.037.09ZM42.874 60.047c-.086-.003-.17-.092-.21-.18-.043-.001-.085-.045-.083-.089-.043-.044-.085-.09-.085-.09l.002-.042.003-.13.007-.216c0-.044.053-.346.053-.346-.042-.045-.129-.004-.173.038-.044 0-.086-.002-.13-.004-.087.041-.173.04-.215-.006-.086-.002-.17-.091-.21-.18.001-.042-.043-.043-.041-.087-.04-.088.089-.085.132-.083l.125.134c.128.047.344.053.432-.03l.002-.044c0-.044 0-.044-.042-.045-.04-.088-.083-.132-.167-.222l-.041-.044.003-.086s0-.044.044-.043c0-.043.088-.084.13-.04.043.002.042.045.084.09l.041.044.084.09s.044 0 .086.002c.042.045.041.088.127.09.043.002.176-.125.177-.168.046-.086.048-.172.178-.169.001-.042.044-.041.044-.041.042.044.042.044.085.045-.002.044-.002.087.04.132-.002.043.04.044.04.088l-.002.042c-.046.13-.134.17-.22.168-.043-.001-.086-.003-.087.04-.088.041.084.09.084.09.086.003.212.093.167.178-.043-.001-.043-.001 0 0-.045.042-.003.087-.047.129-.045.042-.13-.004-.171-.048 0 0-.042-.045-.085-.046.001-.044-.127-.09-.171-.049 0 0-.045.043-.046.086-.045.085-.008.26-.011.39.042.045-.003.086.039.131l-.01.347c.042.044.04.087.04.13l-.002.044ZM41.065 58.28c-.171-.02-.423-.094-.536-.238-.038-.048-.07-.14-.108-.188-.028-.134-.05-.31-.12-.45l.005-.043c-.043-.005-.038-.048-.08-.053a.236.236 0 0 1-.23.103c-.133.029-.347.003-.427-.05-.038-.048-.08-.053-.076-.096.005-.043.053-.081.053-.081.043.005.123.058.166.064a.82.82 0 0 0 .357-.09c.048-.038-.064-.182-.06-.225-.043-.005.01-.086.059-.124.095-.076.284.165.343.04.052-.08.02-.172.025-.215-.039-.048-.114-.144-.018-.22l.086.01c.041.005.122.059.209.069l.17.02c.086.01.215.025.251.073.04.048.04.048.034.091-.006.043-.059.124-.101.119l-.043-.005-.005.043c-.043-.005-.134.028-.176.023-.043-.005-.08-.053-.129-.015l-.005.043c-.005.043.038.048.038.048.08.053.209.068.241.16.075.095-.058.123-.1.118-.134.028-.252-.073-.348.003-.042-.005-.015.13.028.134.032.091.022.178.06.225.033.092.065.182.146.236.032.09.107.187.226.288-.005.043.08.054.075.096l.038.049c-.043-.006-.048.038-.048.038ZM34.983 57.002c-.086 0-.13 0-.13-.044-.042-.173.087-.173.173-.173a.328.328 0 0 0 .173-.086s.042 0 .042-.044c0-.043-.086-.087-.129-.13v-.087s-.043-.043 0-.043c0-.043.043-.043.087-.043 0-.044.042-.044.086-.087 0-.043.043-.087.086-.13.043-.087.043-.173.086-.26.043-.043.086-.043.13-.043.042 0 .13-.087.13-.13 0 0 0-.044-.044-.044-.044.043-.087.043-.13.043-.043.044-.086.044-.129.087 0 0-.043 0-.086.044-.043 0-.087.043-.173.087-.043.043-.172.086-.215.13-.043 0-.043.043-.043.043l-.129.13h-.043l-.044-.044c-.043-.043-.086-.086-.086-.173 0-.086.173-.304.259-.304.043-.043.086.044.043.044v.087c.043.043.258-.087.258-.087.044 0 .044-.044.086-.044-.086 0-.086-.086-.129-.13 0 0-.043-.043-.086-.043 0-.043-.043-.043-.043-.043-.043-.043.086-.087.13-.13.042 0 .128 0 .215-.043.043 0 .086.043.129.087.043.043.086.13.043.172 0 .044-.043.044-.043.044.086 0 .13 0 .215-.044h.087c.042 0 .086-.043.129-.043.086-.043.13.044.172.087.044.043.086.086.086.13-.086.043-.086.087-.172.087h-.172c-.043.043-.043.043-.086.043h-.044c-.043 0 0 .044 0 .087v.043c-.043.043-.086.087-.129.087-.086.043-.129.13-.172.173l-.043.043c.043 0 .258-.086.3-.043a.238.238 0 0 1-.128.217h-.043c-.043.043 0 .043 0 .086l-.043.044c.13 0 .302-.087.387-.044.044 0 .087.044.13.087 0 .044 0 .13-.043.13-.043.043-.087 0-.13 0-.042.043-.086.043-.172.043-.043 0-.086.044-.13.044h-.128c-.043 0-.043.043-.087.043-.042 0-.086.044-.129.044-.043.043-.086.043-.13.043Z"/><path fill="#004098" d="M35.156 56.222h-.086c0-.044-.044-.13 0-.174.042-.043.086 0 .129 0l.086-.043v.043c0 .044 0 .044-.043.044v.086c-.043.044-.043.044-.086.044ZM35.97 61.034l1.13-.19-1.14-.21-.192-1.156-.22 1.129-1.196.193 1.18.255.203 1.157.236-1.178ZM29.663 62.227c-.043 0-.086-.043-.13-.043-.042.043-.085 0-.085-.043-.044-.044.043-.087.043-.13 0 0-.043-.217-.043-.26-.044-.044-.086-.087-.13-.087-.172-.173-.172.173-.344.13-.13-.043 0-.26-.044-.303-.085-.13-.215-.043-.301-.13-.087-.087.043-.304.13-.347.086-.043.171 0 .215 0 .086.043.086.043.129.087.043.043.086.086.129.086.087.087.216.13.302.217 0 .044.043.044.086.087v.13c0 .043.043.086.043.13.043.086.043.13.043.173.043.087.086.217-.043.303ZM29.75 61.014h-.087a.601.601 0 0 0-.259-.086c0-.044-.042-.044-.042-.044-.043-.043-.13-.043-.173-.087l-.13-.13h-.085c-.13 0-.173-.043-.216-.13-.043-.043 0-.13 0-.173.043-.044.087-.044.13-.086.129 0 .129.173.215.173.043 0 .043-.044.043-.087v-.044c0-.042.043-.13.13-.13 0 0 .043 0 .086.044v.044c.042.086 0 .173 0 .216-.043.043-.043.043-.043.087l.085.086s.044 0 .044.044c.043.043.129.086.172.086h.086c.043-.043.043-.086.043-.13 0-.087.043-.13.043-.173.043 0 .086-.043.086-.043.043-.044.086 0 .13 0 .043.043.086.043.086.086 0 .13-.173.346-.216.433-.043 0-.129 0-.129.044ZM30.745 59.936h-.086c-.043-.044-.172-.173-.13-.217.043-.043.13 0 .13-.043 0 0 .086-.087.086-.043v.086c.043.087.086.173 0 .217ZM31.305 58.983h-.086c-.044 0-.044 0-.086-.044h-.13l-.042-.043c.043-.13.214-.26.344-.26 0 .043.043.043.043.043.044.044.086.173.044.217 0 .043-.044.087-.087.087ZM29.926 59.2s-.042 0-.085-.044c0 0-.044 0-.044-.044-.043-.086.087-.13.13-.173 0-.043.043-.13.086-.173 0-.043.043-.087.043-.13.043-.044.043-.087 0-.13h-.043c-.044.043-.173.086-.173-.044v-.13c.044 0 .086-.043.13-.086.043 0 .043-.044.086-.087.086-.043.172.044.172.13.086 0 .086-.087.13-.087l.042-.043c.043-.043.216-.26.259-.173.043 0 .043.043.043.043-.043.044-.086.087-.086.13-.044.044-.086.044-.13.087-.086.13-.215.216-.258.346-.043.087-.043.13-.086.174v.087a.328.328 0 0 0-.086.173c-.043.043 0 .086-.043.13 0 .043-.044.043-.087.043Z"/><path fill="#004098" d="M31.133 59.502h-.086c-.044 0-.216 0-.216-.043s.086-.043.086-.087v-.043c0-.043-.129-.13-.172-.13-.086 0-.086.087-.129.087-.086.043-.345-.217-.345-.26a.451.451 0 0 0 .086-.217c.044-.043.044-.086.086-.173 0 0 .044-.044.044-.087.043-.043.086-.043.086-.087.043-.043.086-.13.13-.087h.043c.042 0 .042 0 .042.044 0 .043 0 .13-.043.217v.087c0 .043.086.043.086.13v.043s0 .043-.043.043c.087.044.259.217.302.26 0 .043.043.043.043.043.043.044.043.13.043.174 0 .043-.043.087-.043.087Zm-.603-.477c0-.042.043-.129.043-.216h-.043c-.043.043-.13.174 0 .217ZM32.626 56.928l-.043-.044c-.043-.086.043-.13.086-.173 0-.043.043-.087.043-.087 0-.086-.13-.043-.13-.086-.042-.043.044-.173.044-.217a.328.328 0 0 0 .172-.086c.044-.044.172 0 .172.086v.13c.044.044.173-.173.259-.13 0 .044 0 .087-.043.087 0 .043-.086.13-.13.13-.085.043-.085.043-.129.087-.042 0-.042.043-.085.043-.044.086-.13.216-.216.26ZM32.41 58.054c-.172-.043-.129-.303-.215-.303l-.043.044s-.043.043-.043.086l-.086.044c-.087 0-.087-.087-.087-.13 0-.044 0-.087.044-.087 0-.043.043-.043.086-.043a.333.333 0 0 0 .086-.174c0-.043 0-.043-.043-.086 0-.087 0-.174-.043-.217-.043-.044-.086-.044-.086-.087-.044-.043-.086-.043-.086-.087-.043-.043.042-.13.042-.173.044-.086-.042-.26.044-.303.043-.044.043-.044.086-.044s.086-.043.13-.043c0 0 .042.043.085.043 0 .044.043.087 0 .174 0 .043-.129.13-.172.173-.043 0-.043.044-.086.044 0 .043-.043.043-.043.086 0 0 0 .043.043.043.043.044.043.044.086.044v-.087c0-.043.043-.086.043-.13.043-.043.086-.043.13-.043.128-.043.171.13.215.216v.087c.043.087.086.13.086.217.043.043.043.087.043.13.086.087.215.346.172.476 0 .044-.086.044-.086.044-.043-.044-.043-.087-.086-.13-.043-.044-.13-.087-.173-.173 0-.044.044-.044.044-.044l.086.087h.043c0-.043-.043-.173-.086-.173v-.044l-.043-.043c-.044.043-.044.043-.044.087l-.086.086v.087c0 .087.086.26.043.346Zm-.129-.693v-.043c0-.044-.086-.13 0-.13h.087c0-.044 0-.087-.044-.087 0-.043-.086-.13-.086-.087-.043 0-.043.044-.043.087v.13c0 .043.043.13.086.13ZM32.927 57.708c-.042 0-.086-.044-.086-.044v-.086c0-.087-.043-.13-.043-.174v-.26c0-.043-.043-.13-.043-.13.043 0 .043-.043.043-.043.043 0 .087-.043.13-.043.043-.087.043-.217.128-.217.173-.087.087.13.13.217 0 .086.043.173.13.217 0 .043.042.043.042.043.043.043.259 0 .259-.043 0-.044-.043-.13-.043-.174v-.043s.043 0 .043.043c.043 0 .043.043.086.087l.13.13c0 .043.043.087 0 .13 0 .043-.043.043-.087.087 0 0-.043 0-.086.043-.086 0-.344 0-.431-.087a78.487 78.487 0 0 0-.13-.26c-.043-.043-.043-.087-.085-.087h-.043c-.086.087 0 .217 0 .304.043.13.043.303-.044.39Zm-.042-.303v-.217h-.044v.043c0 .044 0 .13.044.173ZM38.46 55.87c-.086 0-.215-.087-.215-.174 0-.043 0-.043.043-.043 0-.043.044-.043.087-.043h.215c0 .043.043.043.043.043.043.087-.086.174-.172.217ZM37.513 55.653h-.043c0-.087.043-.13.085-.173.044-.043.044-.043.044-.087.043-.043.086-.087.129-.087.043 0 .087 0 .13.044 0 0 .086 0 .086.043.043 0 .043.043.043.087-.043.173-.172.086-.302.086h-.043c-.043.044-.087.087-.13.087ZM38.59 57.04a.324.324 0 0 1-.173-.087c-.086-.043-.172-.173-.172-.26 0-.086 0-.26.043-.303v-.044h-.043s-.044 0-.086.044c-.044.087-.087.13-.13.217-.043 0-.043.043-.085.086-.044.043-.087.043-.13.043-.043 0-.087 0-.087-.043-.042-.043.13-.086.173-.086v-.044c.044-.087.087-.13.13-.217 0-.043-.044-.13 0-.173h.042c.087 0 .087.087.173.087.043 0 .086-.087.172-.087.043 0 .087 0 .087.087 0 0-.087.043-.087.087-.043.043-.086.216-.086.26 0 .043 0 .043.043.086 0 .043.13.13.172.087.044-.044.044-.087.087-.13h.043l.043.043s0 .26-.043.26c0 .044-.043.044-.086.087ZM37.944 56.086l-.043-.043V56c.043 0 .043 0 .043-.044h.473c.087 0 .13-.043.173-.043.043-.043.043-.043.086-.043h.043c.043 0 .086.087.043.13-.043 0-.129.043-.172.043h-.216c-.042.043-.129.043-.172.043h-.258ZM37.555 56.867h-.042c-.043-.044-.13-.347-.043-.347l.043.087c.042-.044.086-.217.042-.26-.042 0-.214.086-.214.086-.087.043-.173.26-.26.26v-.13c.044-.043.087-.043.13-.13-.043-.043-.086 0-.13 0h-.042c-.087-.043 0-.216.042-.26.044-.043.087.044.13.044h.086s.044 0 .044-.044c.043-.043.043-.13.043-.217.042-.043.042-.13.086-.173 0-.043 0-.043.043-.043.042.043 0 .13 0 .216h.086l.043.044h.043l.042-.13c-.042-.043-.128-.043-.128-.043v-.044l.043-.043c.085 0 .173-.044.215.043v.087l-.042.043c0 .043-.044.13-.044.173-.044 0-.086.044-.086.087h.042c.044 0 .044.044.044.044v.043c-.044.043-.086.043-.086.087v.086c0 .043-.043.087-.043.13 0 .13 0 .217-.087.304Zm-.042-.65v-.174h-.043c0 .043 0 .087-.044.13v.044h.087ZM35.869 63.366s-.603-.194-1.167-.208l-.014-.062.657-.304v.07l-.51.234s.679.087.997.187c.037.08.036.082.037.083ZM41.044 60.161l.04.053-5.575 8.228-.057-.035.994-2.897.083-.124-.908 2.768 5.32-7.872-1.596.746.084-.124 1.615-.743ZM40.995 65.091l-.126-.477-2.648-.002-.32.477 3.094.002Zm-4.348-.471-.81-.002c-.036.14-.095.297-.143.47l.837-.001c.047-.169.087-.327.116-.467Zm-.97-.01-3.833.006-.127.47 3.825.007c.042-.152.094-.32.135-.482Z"/><path fill="#004098" d="M31.66 63.828c0-1.336 1.622-2.45 3.773-2.701a2.855 2.855 0 0 0-1.759 3.304h-1.9a1.682 1.682 0 0 1-.114-.603Zm2.06.782c.05.167.114.327.19.48h-1.728a2.324 2.324 0 0 1-.337-.48h1.875Zm.261.61c.031.054.063.107.098.16h-1.603a3.283 3.283 0 0 1-.171-.16h1.676Zm.19.29c.137.183.296.35.472.496h-1.16c-.316-.144-.6-.31-.845-.497h1.533Zm.643.626c.116.082.238.155.365.219l-.047.133a6.666 6.666 0 0 1-1.337-.352h1.02Zm.478.27c.131.058.279.113.42.151a8.006 8.006 0 0 1-.455-.049l.035-.102Zm2.234-5.247c.387.057.754.143 1.096.254l-.383.177a2.807 2.807 0 0 0-.713-.431Zm2.462.918c.67.476 1.071 1.086 1.071 1.75 0 .225-.046.444-.133.653h-1.732a2.874 2.874 0 0 0 .023-1.264l.771-1.139Zm.879 2.533a2.261 2.261 0 0 1-.33.48h-1.57c.078-.153.142-.313.191-.48h1.709Zm-.452.61a3.27 3.27 0 0 1-.172.16H38.8c.034-.053.066-.106.097-.16h1.518Zm-.334.29c-.244.186-.529.352-.845.496h-1.001c.177-.146.336-.313.473-.497h1.373Zm-1.156.626c-.5.192-1.067.33-1.676.398a2.83 2.83 0 0 0 .816-.398h.86Z"/><path fill="#004098" d="m40.14 59.669-5.724 2.752s.613.042 1.082.301l.002.001.002.002c.295.164.532.415.525.796v.024h-.001v.007c-.055 1.018-1.28 4.468-1.28 4.468l5.395-8.351Zm-4.113 3.852-.001.024v-.024Z"/><path fill="#004098" d="m41.027 65.512.21.493H37.27l.35-.492h3.407Zm-4.703.493h-.157l.28-.495.042-.001c-.052.161-.105.328-.165.496Zm-.277-.003h-.628c.058-.175.101-.336.15-.49l.8-.007-.322.497Zm-.758.003h-3.662l.104-.302.005-.013.057-.18 3.638.002c-.056.174-.086.339-.142.493ZM43.956 66.26l.072-.21.017.007-.004.012a.094.094 0 0 0-.002.036.153.153 0 0 0 .014.05.451.451 0 0 0 .046.067l.172.223.147.053c.035.013.06.017.071.012.016-.007.029-.022.037-.047l.006-.02.017.007-.088.254-.017-.006.008-.021c.009-.025.007-.046-.004-.062-.007-.01-.027-.02-.06-.032l-.138-.05-.303.077a.512.512 0 0 0-.067.02.16.16 0 0 0-.04.033.066.066 0 0 0-.014.025l-.016-.006.088-.256.017.006-.005.013a.076.076 0 0 0-.003.041c.001.014.009.024.022.028.01.004.032.002.065-.007l.232-.057-.14-.182c-.02-.027-.038-.044-.05-.048a.032.032 0 0 0-.025-.001.048.048 0 0 0-.021.013.1.1 0 0 0-.018.034l-.016-.006ZM43.561 67.224l.133.062-.009.016a.178.178 0 0 0-.055-.014.092.092 0 0 0-.052.017.143.143 0 0 0-.04.05l-.04.08.421.221c.034.018.057.025.069.023.017-.005.03-.018.042-.04l.01-.02.015.008-.122.24-.015-.008.01-.02c.012-.025.014-.045.005-.063-.005-.01-.024-.024-.055-.04l-.42-.222-.035.068a.235.235 0 0 0-.023.059.09.09 0 0 0 .011.053c.01.018.026.034.05.049l-.008.016-.126-.075.234-.46ZM43.393 68.564l.014.01-.16.22-.012-.01.013-.019c.015-.02.02-.041.015-.06-.003-.01-.02-.029-.05-.051l-.323-.242a.21.21 0 0 0-.053-.033.039.039 0 0 0-.027.004.084.084 0 0 0-.034.028l-.013.018-.014-.01.158-.22.014.011-.013.019c-.015.02-.02.04-.015.058.003.012.02.03.05.052l.322.243c.025.019.043.03.053.032a.04.04 0 0 0 .028-.003.085.085 0 0 0 .034-.028l.013-.019ZM42.302 68.99l.16.145-.01.013a.255.255 0 0 0-.094-.043.145.145 0 0 0-.084.007.165.165 0 0 0-.07.048.115.115 0 0 0-.03.08c0 .03.01.051.028.068.015.013.032.02.052.02.03.001.083-.013.158-.042a.954.954 0 0 1 .133-.043.158.158 0 0 1 .141.037.163.163 0 0 1 .055.124.205.205 0 0 1-.056.142.275.275 0 0 1-.088.07.231.231 0 0 0-.048.034.026.026 0 0 0-.007.018c0 .007.005.016.015.027l-.011.013-.16-.143.011-.013a.294.294 0 0 0 .097.042.149.149 0 0 0 .082-.01.199.199 0 0 0 .077-.055.132.132 0 0 0 .037-.09.095.095 0 0 0-.075-.094.142.142 0 0 0-.058 0c-.015.003-.05.015-.108.036-.058.02-.1.033-.129.039a.203.203 0 0 1-.078 0 .155.155 0 0 1-.117-.151.187.187 0 0 1 .051-.133.26.26 0 0 1 .088-.064.126.126 0 0 0 .032-.02.033.033 0 0 0 .008-.02.06.06 0 0 0-.013-.028l.01-.013ZM40.472 70.61l.128.212.116-.073c.03-.02.048-.036.053-.052.006-.02 0-.047-.016-.079l.014-.009.113.188-.014.009a.248.248 0 0 0-.042-.044.057.057 0 0 0-.036-.007.142.142 0 0 0-.054.023l-.116.073.106.177a.202.202 0 0 0 .03.043.03.03 0 0 0 .018.005.087.087 0 0 0 .032-.014l.09-.056c.03-.02.05-.035.062-.048a.118.118 0 0 0 .024-.05.36.36 0 0 0 .005-.105l.015-.01.036.164-.408.256-.009-.014.019-.012a.097.097 0 0 0 .03-.031c.006-.01.007-.02.006-.03a.244.244 0 0 0-.028-.055l-.21-.35c-.02-.035-.037-.053-.049-.057-.016-.005-.034 0-.056.013l-.018.012-.01-.015.409-.256.076.114-.015.01a.219.219 0 0 0-.053-.048.076.076 0 0 0-.044-.005.21.21 0 0 0-.059.028l-.145.092ZM39.82 70.953l.006.016a.101.101 0 0 0-.037.04.196.196 0 0 0-.012.082l.012.583-.016.006-.427-.405a.296.296 0 0 0-.043-.036.078.078 0 0 0-.034-.01.139.139 0 0 0-.046.01l-.007-.017.233-.103.007.016c-.026.014-.04.026-.046.036a.035.035 0 0 0 0 .03.201.201 0 0 0 .047.059l.29.275-.008-.396a.248.248 0 0 0-.01-.078.035.035 0 0 0-.022-.018.083.083 0 0 0-.049.003l-.008.001-.006-.016.175-.078ZM38.785 72.005l.005.016-.258.07-.004-.017.02-.006c.026-.007.042-.019.05-.037.004-.011.002-.035-.007-.072l-.101-.396a.25.25 0 0 0-.021-.06.041.041 0 0 0-.023-.014.09.09 0 0 0-.044 0l-.021.005-.005-.016.258-.07.004.017-.022.006c-.024.007-.04.019-.047.036-.005.012-.003.036.006.073l.1.396a.215.215 0 0 0 .022.06.042.042 0 0 0 .024.014.092.092 0 0 0 .043 0l.021-.005ZM37.133 71.616l.167-.02.43.427-.04-.363c-.005-.039-.011-.063-.021-.071-.013-.012-.031-.017-.056-.013l-.02.002-.003-.017.214-.026.002.017-.021.003c-.026.003-.044.013-.053.03-.005.01-.006.034-.002.07l.06.53-.018.002-.463-.458.044.388c.004.038.01.062.02.07.013.012.031.016.056.014l.02-.003.003.017-.215.026-.001-.017.02-.003c.027-.003.044-.014.054-.03.006-.011.006-.035.002-.07l-.048-.437a.278.278 0 0 0-.046-.038.146.146 0 0 0-.044-.014.145.145 0 0 0-.039 0l-.002-.016ZM36.37 71.644v-.018l.22.005v.018h-.024a.063.063 0 0 0-.057.03c-.007.01-.01.031-.011.067l-.007.256a.453.453 0 0 1-.022.147.184.184 0 0 1-.075.09.256.256 0 0 1-.149.033.274.274 0 0 1-.153-.039.195.195 0 0 1-.072-.098.558.558 0 0 1-.011-.157l.007-.248c0-.038-.004-.064-.014-.077-.01-.012-.027-.018-.051-.019h-.024v-.018l.27.006-.001.017h-.024c-.026 0-.044.007-.056.023-.007.012-.012.035-.013.07l-.007.276c0 .025 0 .053.005.085a.18.18 0 0 0 .022.075c.01.018.027.033.049.045a.171.171 0 0 0 .08.02.22.22 0 0 0 .11-.025.145.145 0 0 0 .067-.068.405.405 0 0 0 .021-.143l.007-.256c0-.04-.003-.065-.011-.075-.012-.014-.03-.021-.053-.022h-.023ZM34.397 71.296l-.048.195-.014-.005a.277.277 0 0 0-.025-.127.196.196 0 0 0-.118-.097.2.2 0 0 0-.201.033.403.403 0 0 0-.128.334.244.244 0 0 0 .052.132.218.218 0 0 0 .163.083c.022.001.044 0 .066-.005l.057-.174c.01-.03.014-.05.013-.062a.047.047 0 0 0-.014-.027.125.125 0 0 0-.047-.025l.005-.016.228.076-.005.017-.011-.003c-.022-.008-.04-.006-.054.007a.165.165 0 0 0-.03.062l-.06.183a.436.436 0 0 1-.225-.016c-.113-.038-.188-.105-.222-.199a.321.321 0 0 1-.003-.215.347.347 0 0 1 .252-.232.305.305 0 0 1 .166.014c.02.006.04.014.056.024.017.01.04.026.067.049a.108.108 0 0 0 .03.02c.005.002.01 0 .016-.003a.067.067 0 0 0 .017-.028l.017.005ZM32.729 70.57l.151.076.132.597.16-.327c.017-.035.023-.059.02-.071-.004-.017-.017-.031-.04-.042l-.019-.01.008-.015.194.097-.008.016-.02-.01c-.023-.012-.043-.013-.06-.004-.01.006-.023.025-.04.057l-.233.479-.014-.007-.144-.643-.17.35c-.018.035-.024.058-.021.07.004.017.018.032.039.042l.02.01-.008.016-.193-.098.007-.016.02.01c.023.012.044.013.06.004.011-.006.024-.025.04-.056l.192-.396a.315.315 0 0 0-.018-.056.138.138 0 0 0-.063-.058l.008-.015ZM30.82 69.375l.206.205.124-.129a.216.216 0 0 0 .04-.05.045.045 0 0 0 0-.028.086.086 0 0 0-.022-.038l-.016-.016.012-.012.19.189-.012.013-.016-.016a.088.088 0 0 0-.037-.022.04.04 0 0 0-.03.001.242.242 0 0 0-.046.041l-.281.293a.211.211 0 0 0-.04.05.045.045 0 0 0 0 .028.087.087 0 0 0 .023.038l.015.015-.012.013-.19-.19.012-.012.016.016c.018.018.037.025.056.023.012-.002.031-.017.057-.043l.133-.139-.206-.205-.133.138a.208.208 0 0 0-.039.05.044.044 0 0 0 0 .028.084.084 0 0 0 .022.038l.016.015-.012.013-.19-.19.012-.012.016.015c.018.019.037.026.056.024.011-.002.03-.017.057-.044l.28-.293a.199.199 0 0 0 .04-.05.044.044 0 0 0 0-.027.086.086 0 0 0-.022-.038l-.015-.016.012-.012.19.189-.012.013-.017-.016a.09.09 0 0 0-.036-.022.04.04 0 0 0-.03.001.235.235 0 0 0-.047.041l-.124.13ZM30.025 68.974l-.013.01-.159-.217.014-.01.013.018c.015.02.032.032.051.032.012 0 .034-.011.064-.035l.322-.244a.204.204 0 0 0 .046-.042.043.043 0 0 0 .005-.028.092.092 0 0 0-.016-.041l-.013-.018.014-.01.158.217-.014.01-.013-.018c-.016-.02-.032-.031-.051-.031-.013 0-.034.01-.064.033l-.322.245a.2.2 0 0 0-.047.043.041.041 0 0 0-.004.027.09.09 0 0 0 .016.041l.013.018ZM29.854 67.537l-.21.132.072.118c.018.031.035.049.05.053.02.006.046.001.078-.016l.008.014-.184.116-.009-.014a.239.239 0 0 0 .043-.043.059.059 0 0 0 .007-.037.142.142 0 0 0-.022-.055l-.071-.118-.175.11a.193.193 0 0 0-.04.03.027.027 0 0 0-.006.018.08.08 0 0 0 .014.034l.055.09c.018.031.033.052.046.063.013.012.028.02.049.024.025.007.06.008.103.005l.01.016-.162.037-.25-.415.015-.01.012.02a.085.085 0 0 0 .03.03c.01.006.019.008.03.005a.198.198 0 0 0 .053-.027l.344-.216c.034-.021.052-.038.056-.05.005-.015 0-.035-.013-.057l-.011-.02.014-.009.25.416-.112.079-.01-.016a.207.207 0 0 0 .047-.054.074.074 0 0 0 .005-.045.2.2 0 0 0-.027-.06l-.09-.148ZM29.225 66.833a.205.205 0 0 1-.005.108.143.143 0 0 1-.08.081.156.156 0 0 1-.1.005.173.173 0 0 1-.085-.052.455.455 0 0 1-.077-.14l-.112-.278.017-.006.008.022c.01.025.025.04.045.043.012.004.035-.002.069-.016l.38-.151c.036-.015.058-.029.064-.04.008-.017.008-.036-.001-.058l-.01-.022.017-.007.102.254c.018.047.03.087.035.119a.21.21 0 0 1-.012.114.142.142 0 0 1-.081.078c-.065.026-.123.008-.174-.054Zm-.067-.237a.53.53 0 0 0 .026.085c.03.073.067.114.113.121.024.005.047.001.069-.007a.116.116 0 0 0 .075-.092.22.22 0 0 0-.017-.123.317.317 0 0 0-.04-.075l-.226.091Zm-.282.113a.49.49 0 0 0 .028.103.224.224 0 0 0 .072.099c.036.025.074.03.116.014.054-.022.082-.064.084-.126a.286.286 0 0 0-.024-.112.623.623 0 0 0-.034-.075l-.242.097ZM31.852 70.501l-.2-.141-.093.056a.15.15 0 0 0-.045.036c-.014.019-.001.043.037.075l-.01.014-.163-.115.01-.014c.024.01.042.016.052.014a.285.285 0 0 0 .096-.044l.483-.297.014.01-.125.557a.299.299 0 0 0-.01.081.094.094 0 0 0 .04.067l-.01.014-.205-.144.01-.014c.036.023.061.025.075.005a.208.208 0 0 0 .023-.064l.02-.096Zm.009-.036.06-.27-.238.144.178.126ZM42.125 70.135l-.128.11-.355-.082-.03.026-.02.018.12.139c.026.03.045.045.059.047.018.002.035-.004.053-.02l.019-.016.01.013-.204.178-.011-.013.018-.016c.02-.017.029-.036.026-.056a.156.156 0 0 0-.038-.059l-.269-.309c-.026-.03-.045-.046-.058-.047-.018-.003-.036.004-.054.02l-.018.015-.012-.013.174-.152a.627.627 0 0 1 .1-.075.18.18 0 0 1 .12-.023.141.141 0 0 1 .087.049c.055.064.052.139-.012.225l.218.05c.044.011.078.016.1.014a.183.183 0 0 0 .094-.037l.01.014Zm-.554.05a.104.104 0 0 0 .01-.01l.01-.008a.227.227 0 0 0 .074-.105.121.121 0 0 0-.027-.12.131.131 0 0 0-.092-.048.133.133 0 0 0-.098.037.348.348 0 0 0-.05.055l.173.198Z"/><path fill="#004098" d="M46.18 64a9.59 9.59 0 0 0-9.59-9.59C31.294 54.41 27 58.704 27 64s4.294 9.59 9.59 9.59A9.59 9.59 0 0 0 46.18 64Zm-.276 0a9.315 9.315 0 1 1-18.629 0 9.315 9.315 0 0 1 18.63 0Z"/><path fill="#004098" d="M43.157 63.98a6.533 6.533 0 1 0-13.066 0 6.533 6.533 0 0 0 13.066 0Zm-.33 0a6.203 6.203 0 1 1-12.406 0 6.203 6.203 0 0 1 12.406 0Z"/><path fill="#004098" fill-rule="evenodd" d="M57.2 59.008s-1.294.073-1.117 1.254c0 0 .426.961.147 1.268 0 0-.338.772-.25 1.267 0 0 .103.088-.059.51 0 0-.147 1.56.309 1.91 0 0 .558.641 1.984.757 0 0 1.396.234 1.234-.917 0 0-.279-.482-.867-.35 0 0-1.558.568-1.602-.38 0 0-.147-1.224.28-1.996 0 0 .147-.408.984-.408 0 0 1.176.014.956-.933 0 0-.177-.393-.823-.087 0 0-.809.553-.941-.073 0 0-.074-.393.28-.685 0 0 .749-.904-.515-1.137ZM63.96 59.11s-.455.177.03.53c0 0 .794.235.587.632 0 0-.21.281-.825.431l-.042.01c-.646.147-1.381.338-1.381.338s-.662-.309-.867.53c0 0 .044.91.867.601 0 0 .132-.588.823-.602 0 0 .412.088.867-.368 0 0 1.661-.778 4.013-.573 0 0 .573.177.646-.279 0 0 0-.294-.456-.367l-1.866.015s-.412.014-.22-.324c0 0 .323-.603-.441-.852 0 0-.132-.044-.338.014 0 0-.324.03-.47-.102 0 0-.177-.192-.927.367ZM63.49 62.623s-.28 1.059.176 1.896c0 0 .25.235.72.265 0 0 .324-.074.398.882l.014.352s.088.823-.75.147c0 0-.205-.059 0 .22l.72.736s.162.176.016.337c0 0 .705.06.94-.646 0 0 .25-1.381-.03-2.469 0 0 .794-.324.574-1.088l1.19-.925s.573-.603-.323-.662c0 0-1.47-.044-2.572.514 0 0-.426.31-.617.31 0 0-.397.029-.456.131Zm1.793.147s-.911-.044-.984.367c0 0-.03.574.323.677 0 0 1.117-.617.676-.985l-.015-.059ZM61.888 66.21s-.25.573-.147 1.044c0 0 .103.455.559.278 0 0 .161-.073.338-.5 0 0 .147-.499.47-.558 0 0 .044-.19-.147-.146 0 0-.397.087-.632-.25 0 0-.353-.177-.44.132Z" clip-rule="evenodd"/><path fill="#004098" fill-rule="evenodd" d="M66.518 64.887s.808-1.102 1.998.044c0 0 .353.544-.308 1.264 0 0-.47.397-.882-.191l-.808-1.117ZM72.923 59.157s-.386-.02-.448.793c0 0-.06.57-.366.692 0 0-.773.143-.448.671 0 0 .611.713.367 1.526 0 0-.143.367-.082.977 0 0 .163.346-.671.366 0 0-.793-.183-1.018.855 0 0-.162.488.367.407 0 0 .508-.183.61-.386 0 0 .427-.224.448.264 0 0-.244.977.305 1.302 0 0 .142.02.204-.346l.325-1.342s.733-.51.814-.733c0 0 .264-.244.285 0l.02.997s-.02.366-.183.224l-.203-.407s-.265-.224-.245.305c0 0 .122.366.224.407 0 0 .183.509.102.712 0 0 .06.631.55.55 0 0 .386-.204.386-.753 0 0 .061-1.242-.02-1.404 0 0-.082-.53.02-.855 0 0 .102-.63-.02-.793 0 0-.041-.448.06-.876 0 0 .407-1.26-.752-1.505 0 0-.61.04-.957 1.058l-.325-.489s-.407-.426.142-.528c0 0 2.157-.163 1.913-1.303 0 0-.081-.468-.509-.386 0 0-.732.224-.895 0Zm.712 3.662s-.162-1.058-.427-1.119c0 0-.63-.122-.59 1.567 0 0 .203-.061.224-.367 0 0 0-.711.447-.203 0 0 .346.346.346.122ZM75.65 60.296s.325-.671.996-.753c0 0 1.018-.325 1.323.489 0 0 .04.264-.325.488 0 0-.285.386.163.305 0 0 .59.04.996-.244 0 0 .245 0 .041.305 0 0-.468.57-1.485.387 0 0-.326-.204-.773.264 0 0-1.038.733-1.445.55 0 0-.265-.387.163-.489 0 0 1.038-.122 1.038-.63 0 0-.163-.346-.468-.407l-.224-.265ZM75.71 62.799s1.14-.143 1.425-.672c0 0 .55-.57.875.102 0 0 .122.102-.265.447 0 0-.59 1.201.061 2.015 0 0 1.16 1.343 1.465.204l.082-.835s.163-.04.508.957c0 0 .489 1.302-.386 1.383 0 0-.285-.122-.59.062 0 0-1.669-.285-1.913-1.73l-.102-.997s.082-.57-.427-.489c0 0-.285.123-.305.489 0 0-.428 2.157-1.302 2.34 0 0-.306-.102-.123-.407 0 0 .183-.285.204-.672 0 0 .02-.223.183-.488 0 0 .773-1.302.61-1.71ZM83.036 59.32s.264-.469.793-.53c0 0 .978-.55 1.588.082 0 0 .528.508.244.895 0 0-.326.183-.04.386l1.933-.549s.243-.142.528.081c0 0 1.12.652.489 1.14 0 0-.347.183-.611.122l-1.363.265s-.244.121-.102.386c0 0 .122.326-.163.509 0 0-1.037.529-1.078.733l-.265.304s-.325.184 0 .306l.896-.326s.427-.122.346.509c0 0-.346.509-.794.65 0 0 0 .224-.102.408 0 0-.02.366.163.386l1.485-.386s.265-.082.448.122c0 0 .488.285.366.753 0 0-.285.386-.834.305 0 0-2.401.081-3.744 1.038 0 0-.468.346-.753-.183 0 0-.122-.692.448-.835 0 0 1.953-.06 1.506-.732l-.306-.285s-.712-.468-.488-.915c0 0 1.465-.692 1.607-1.77 0-.001-.102-.896.448-1.038 0 0 .733.142.977-.448 0 0 .244-.61-.407-.245 0 0-1.547.469-2.035.937l-1.058.488s-.305 0-.55.447c0 0-.528.977-1.16.448 0 0-.63-.508-.141-1.282 0 0 .386-.814 1.118-1.119 0 0 .346.102.265.326 0 0-.163.468.163.427 0 0 .997.102 1.486-.59 0 0-.137-.33-.39-.478a.175.175 0 0 0-.018-.01c-.264-.143-.687-.73-.895-.733Z" clip-rule="evenodd"/><path fill="#004098" fill-rule="evenodd" d="M84.62 62.141s-.184.418-.285.586c0 0-.385.804-.77.167 0 0-.251-.2-.118-.753 0 0 .202-.2.269-.033 0 0 .318.317.753-.084 0 0 .217-.067.15.117Z" clip-rule="evenodd"/><path fill="#004098" fill-rule="evenodd" d="M84.62 62.141s-.184.419-.285.586c0 0-.385.804-.77.168 0 0-.251-.201-.118-.754 0 0 .202-.2.269-.033 0 0 .318.318.753-.084 0 0 .218-.066.15.117Z" clip-rule="evenodd"/><path stroke="#000" stroke-width=".383" d="M84.62 62.141s-.184.419-.285.586c0 0-.385.804-.77.168 0 0-.251-.201-.118-.754 0 0 .202-.2.269-.033 0 0 .318.318.753-.084 0 0 .218-.066.15.117Z" clip-rule="evenodd"/><path fill="#004098" fill-rule="evenodd" d="M92.648 58.719s-.491-.042-.748.754c0 0 .107.46-.32.628 0 0-.193.293 0 .649 0 0 .234-.252.748-.796l.705-.042s.812.147.748-.775c0 0-.171-.565-1.133-.418ZM91.809 61.064s-.462.09-.269.685v1.505s-.104.611-.625.462l-.462-.134s-.283-.164-.432.566c0 0-.209.82.327.745 0 0 .462-.283.7-.015l-.208.432s-.342.387-.044.968c0 0 .283-.03.461-.79 0 0 .254-1.072.641-1.057 0 0 .939-.79 1.058-.045 0 0 .253.834-.105.924 0 0-.148-.03-.208-.373 0 0-.298-.343-.343.283 0 0 .626 1.892 1.103 1.266 0 0 .283-1.802-.03-2.68 0 0-.045-.24.164-.433 0 0 .253-.417-.06-.447 0 0-.462.09-.164-.402 0 0 .268-.462.164-.775 0 0 .015-.283.209-.402 0 0 .148-.09-.075-.402 0 0-.373-.506-.85-.194 0 0-.535.313-.461.626h.566s.194-.03.179.223c0 0 .193.641-.224.551 0 0-.223-.238-.491-.06 0 0-.313.195-.328-.088 0 0 .253-.716-.193-.939Zm.223 1.475s-.045.685-.045.879c0 0 .403.134.403-.343 0 0-.075-.625-.358-.536ZM96.993 59.276s.491.06.328.537l-.447.73s-1.073.313-1.4-.492c0 0-.075-.507.446-.655 0 0 .849.164 1.073-.12ZM94.222 61.69l2.413-.626s1.043-.55 1.177-.7c0 0 .194-.104.388.104 0 0 .237.298.029.492 0 0-2.994 1.072-3.069 1.072 0 0-.163-.015-.253.209 0 0-.09.15-.298-.015 0 0-.372.12-.417-.209 0 0-.06-.268.03-.327ZM95.578 62.599s.596.238.849-.239c0 0 .521-.521.849-.119 0 0 .165.123-.085.344l-.035.028c-.297.239-.312.18-.268.834 0 0-.089 1.326.492 1.61 0 0 .715.401.998-.329l.208-.402s.105-.268.284.105l.208 1.087s-.268.938-1.221.537c0 0-1.296-.477-1.46-1.565l-.045-1.028s.163-.506-.268-.372c0 0-.268.074-.343.477 0 0-.283 1.758-1.266 2.01 0 0-.447.194-.536-.148 0 0-.045-.179.432-.283 0 0 .864-.566.73-1.639 0 0-.12-.491-.224-.61 0 0-.104-.671.7-.298ZM102.549 59.738s1.906-.446 2.622-.849c0 0 .625-.358.789.313 0 0-.209.88-.819 1.073 0 0-.581.044-.611.461 0 0-.179.328.387.432 0 0 .343.06.671-.059 0 0 .64-.239.908.328 0 0-.059.343-.968.551 0 0-.835.149-.849.64 0 0-.084.12.179.329.031.023.065.048.104.074 0 0 2.488 2.353 4.305 2.308 0 0 .342.134-.06.254 0 0-1.713 1.072-3.113-.105l-2.011-1.698s-.224-.149-.372.15c0 0-.626 1.19-1.654 1.414 0 0-1.311.432-1.4-.149 0 0-.074-.357.372-.357 0 0 1.728-.239 1.773-1.356 0 0-.209-.476-.7-.55 0 0-.373.014-.239-.507 0 0 0-.477.611-.477 0 0 1.043.09.968-.477.001 0-.402-.938-.715-.998 0 0-.327-.03-.402-.372 0 0-.015-.328.224-.373ZM113.379 58.815s-.805.178-.582.863c0 0 .06.462.268.611.001 0 .343 1.163-.223 1.282 0 0-1.072.402-1.609.253 0 0-.923-.15-.953.551 0 0-.089.551.879.462 0 0 1.564-.224 1.564.461 0 0 .119 1.178-1.504 1.52 0 0-.999.104-1.013.611 0 0 .774.998 2.264-.179 0 0 .641-.864.775-1.34 0 0 .253-.462.655-.09l1.802 2.04s.239.269.894.165c0 0 1.847.491 1.713-.358 0 0-.759-.312-1.415-.849 0 0-1.743-1.296-1.906-1.385 0 0-.791-.507-.507-1.177 0 0 .282-.536 1.147-.447 0 0 .894-.164.536-.551 0 0-.298-.298-.342-.477 0 0-.075-.194-.626.09 0 0-.879.52-.968-.03 0 0-.074-.224.178-.537 0 0 .582-.626-.104-1.147 0 0-.447-.119-.536-.164l-.387-.178ZM119.798 58.508s.755.41.768 1.319l.13 1.51s.353.417.546-.16l-.273-2.085s-.417-.594.208-.69c0 0 .53-.128.562.465l-.096 1.283.016.77s.096.225.24.016c0 0 .433 0 .353-.61 0 0-.16-.416.016-.448 0 0 .449.016.401-.209 0 0-.096-.112-.305-.032 0 0-.337.096-.321-.144l-.047-.802.481-.177s.288-.112.256-.497c0 0-.128-.577.433-.626 0 0 .722-.192.722.642 0 0-.064.24-.481.353 0 0-.273.192-.192.4 0 0-.049.161.16.178 0 0 .353.144.176.432 0 0-.786.963-.064 1.364 0 0 .593.128.497-.24 0 0-.433-.306-.321-.546.001 0 .931-.16.771-.369 0 0-.514-.144-.642-.45 0 0-.225-.416.08-.336 0 0 1.027.193.93-.32a.586.586 0 0 0-.368-.626s-.177-.289.111-.24c.001 0 .61-.386.658-.659 0 0 .032-.063.225 0 0 0 .625-.24.85.37 0 0 .064.352-.497.625 0 0-.241.257-.289.545l-.578 1.411s-.336.658.354.546l1.01-.272s.273-.129.529.224c0 0 .225.08.176.289l.017.384s-1.701.37-2.438.193c0 0-.497-.128-.61-.256 0 0-.289-.129-.449.048 0 0-.369.304-.706.176 0 0-.705.577-1.106.545 0 0-.53.16-.85.465 0 0-.53.321-.818.642 0 0-.594.802-.995.128 0 0-.128-.802.481-1.652 0 0 .385-.32.466.113 0 0 .032.224.24.208.209-.016.048 0 .048 0s.161-.032.032-.273c0 0-.144-.4-.08-.625 0 0 .08-.417-.128-.562 0 0-.128-.272-.016-.336 0 0 .048-.225-.145-.353 0 0-.402-.59-.128-1.05Z" clip-rule="evenodd"/><path fill="#004098" fill-rule="evenodd" d="M121.723 62.252c.151-.016.738-.017 1.364-.434 0 0 .641-.433.978-.256 0 0 .481.048.417.256 0 0-.112.29-.626.353 0 0-.689.241-.689.754 0 0-.08.385.385.369l1.026-.289s.385-.16.642.337c0 0 .08.417-.353.401 0 0-.112-.176-.369-.128l-.754.24s-.272.113-.144.642c0 0 .046 1.462-.314 1.838a.218.218 0 0 1-.023.022c-.385.337-.706 1.059-1.219.45 0 0-.818-.45-.898-1.155 0 0 .064-.24.417-.08 0 0 1.026.352 1.363-.273 0 0 .016-.417-.064-.577 0 0-.032-.497-.545-.434 0 0-.786-.031-1.219.193 0 0-.481.32-.738-.465 0 0 .304-.305.658-.273 0 0 1.299.257 1.555-.272l.033-.867s-.161-.144-.482.048c0 0-.593.53-.818.065 0 0-.401-.385.417-.465ZM50.927 71.047v-2.314h.869c.176 0 .318.024.425.07.107.047.19.12.25.217.061.097.092.199.092.305a.521.521 0 0 1-.081.28.575.575 0 0 1-.243.211c.14.041.247.111.323.21.075.099.113.216.113.35a.679.679 0 0 1-.069.302.585.585 0 0 1-.17.216.708.708 0 0 1-.253.114 1.536 1.536 0 0 1-.373.039h-.883Zm.307-1.341h.5c.136 0 .233-.01.292-.027a.324.324 0 0 0 .176-.116.333.333 0 0 0 .06-.202.372.372 0 0 0-.056-.202.28.28 0 0 0-.158-.12 1.316 1.316 0 0 0-.352-.033h-.462v.7Zm0 1.068h.576c.099 0 .168-.004.208-.01a.5.5 0 0 0 .177-.064.335.335 0 0 0 .117-.129.407.407 0 0 0 .046-.195.386.386 0 0 0-.067-.225.35.35 0 0 0-.184-.134 1.153 1.153 0 0 0-.338-.038h-.535v.795Zm4.387.273v-2.314h1.673v.273h-1.366v.709h1.28v.271h-1.28v.788h1.42v.273h-1.727Zm4.72 0v-2.314h.307v2.314h-.306Zm3.374 0v-2.314h.307v.95h1.203v-.95h.306v2.314h-.306v-1.09h-1.203v1.09h-.307Zm4.59 0 .889-2.314h.33l.947 2.314h-.35l-.27-.7h-.967l-.254.7h-.325Zm.667-.95h.785l-.242-.64a6.297 6.297 0 0 1-.163-.48 2.96 2.96 0 0 1-.125.441l-.255.679Zm4.259.95v-2.314h.314l1.215 1.817v-1.817h.294v2.314h-.314l-1.216-1.818v1.818h-.293Zm5.939-.908v-.27l.98-.002v.858c-.15.12-.306.21-.466.27a1.384 1.384 0 0 1-1.111-.055.965.965 0 0 1-.421-.421 1.329 1.329 0 0 1-.143-.618c0-.225.048-.435.142-.63a.935.935 0 0 1 .406-.435c.177-.095.38-.142.611-.142.167 0 .319.027.454.081.135.054.241.13.318.226.077.097.135.224.175.38l-.276.075a.868.868 0 0 0-.13-.278.532.532 0 0 0-.22-.162.812.812 0 0 0-.32-.06.94.94 0 0 0-.362.064.679.679 0 0 0-.248.168.806.806 0 0 0-.145.229 1.212 1.212 0 0 0-.089.465c0 .207.036.379.107.518a.681.681 0 0 0 .31.31c.136.067.28.1.432.1.133 0 .262-.025.389-.076a.986.986 0 0 0 .287-.164v-.43h-.68Zm6.186-1.406h.307v1.337c0 .233-.026.417-.08.554a.676.676 0 0 1-.284.334c-.138.086-.317.128-.54.128-.217 0-.395-.037-.532-.112a.637.637 0 0 1-.296-.324c-.059-.142-.088-.335-.088-.58v-1.337h.306v1.336c0 .2.019.349.056.444a.426.426 0 0 0 .193.22c.09.052.202.078.334.078.225 0 .385-.052.481-.154.096-.102.144-.298.144-.588v-1.336Zm3.332 2.314v-2.314h.314l1.216 1.817v-1.817h.293v2.314h-.314l-1.215-1.818v1.818h-.294Zm4.909 0v-2.314h.306v2.314h-.306Zm4.025 0-.896-2.314h.332l.6 1.681c.05.135.09.261.122.379.036-.126.078-.252.125-.379l.625-1.68h.312l-.906 2.313h-.314Zm4.02 0v-2.314h1.673v.273h-1.367v.709h1.28v.271h-1.28v.788h1.421v.273h-1.727Zm4.673 0v-2.314h1.026c.206 0 .363.021.47.063a.52.52 0 0 1 .258.22.66.66 0 0 1 .096.349.578.578 0 0 1-.16.414c-.106.113-.27.185-.492.215a.78.78 0 0 1 .185.116c.089.082.174.184.254.307l.402.63h-.385l-.306-.482a4.218 4.218 0 0 0-.221-.318.702.702 0 0 0-.155-.155.47.47 0 0 0-.14-.061.95.95 0 0 0-.171-.011h-.355v1.027h-.306Zm.306-1.292h.659a.984.984 0 0 0 .328-.044.35.35 0 0 0 .18-.139.383.383 0 0 0 .061-.207c0-.11-.039-.2-.119-.27-.079-.07-.205-.106-.377-.106h-.732v.766Zm4.438.549.289-.026a.63.63 0 0 0 .096.285c.05.075.127.134.232.18a.882.882 0 0 0 .355.069c.117 0 .22-.018.31-.052a.43.43 0 0 0 .199-.143.33.33 0 0 0 .066-.198.302.302 0 0 0-.063-.19.467.467 0 0 0-.208-.137 4.223 4.223 0 0 0-.412-.113 2.108 2.108 0 0 1-.447-.144.628.628 0 0 1-.247-.216.529.529 0 0 1-.081-.288c0-.116.033-.225.099-.327a.615.615 0 0 1 .29-.232c.128-.052.269-.078.425-.078.172 0 .323.027.454.083a.65.65 0 0 1 .302.243c.07.108.108.23.114.365l-.294.022a.474.474 0 0 0-.16-.331c-.091-.075-.226-.112-.403-.112-.185 0-.32.034-.405.102a.304.304 0 0 0-.127.245c0 .083.03.152.089.205.06.054.213.109.462.165.249.056.42.105.513.147a.71.71 0 0 1 .298.236.625.625 0 0 1-.01.677.7.7 0 0 1-.303.255c-.133.06-.281.09-.446.09-.21 0-.385-.03-.526-.091a.738.738 0 0 1-.334-.276.783.783 0 0 1-.127-.415Zm4.831.743v-2.314h.306v2.314h-.306Zm3.954 0v-2.04h-.763v-.274h1.834v.273h-.765v2.041h-.306Zm4.556 0v-.98l-.892-1.334h.372l.457.698c.084.13.162.26.235.392a7.9 7.9 0 0 1 .252-.41l.448-.68h.357l-.923 1.334v.98h-.306Z" clip-rule="evenodd"/></g><defs><filter id="a" width="154" height="157" x="0" y="0" color-interpolation-filters="sRGB" filterUnits="userSpaceOnUse"><feFlood flood-opacity="0" result="BackgroundImageFix"/><feColorMatrix in="SourceAlpha" result="hardAlpha" values="0 0 0 0 0 0 0 0 0 0 0 0 0 0 0 0 0 0 127 0"/><feOffset dy="16"/><feGaussianBlur stdDeviation="6.5"/><feColorMatrix values="0 0 0 0 0 0 0 0 0 0 0 0 0 0 0 0 0 0 0.03 0"/><feBlend in2="BackgroundImageFix" result="effect1_dropShadow_185_9"/><feBlend in="SourceGraphic" in2="effect1_dropShadow_185_9" result="shape"/></filter></defs></svg>