<svg xmlns="http://www.w3.org/2000/svg" xml:space="preserve" style="fill-rule:evenodd;clip-rule:evenodd;stroke-linejoin:round;stroke-miterlimit:2" viewBox="0 0 154 157"><path d="m35.353 69.007.212-.102h.021v.731c0 .048.002.078.006.091.004.011.013.02.025.027a.258.258 0 0 0 .078.011v.024h-.326v-.024a.25.25 0 0 0 .079-.011.05.05 0 0 0 .025-.025.318.318 0 0 0 .007-.093v-.467a.742.742 0 0 0-.006-.122.049.049 0 0 0-.017-.03.039.039 0 0 0-.028-.01.162.162 0 0 0-.066.021l-.01-.021ZM35.953 69.799v-.024a.332.332 0 0 0 .155-.038.553.553 0 0 0 .231-.336.343.343 0 0 1-.181.064.208.208 0 0 1-.157-.069.267.267 0 0 1-.065-.188.33.33 0 0 1 .065-.203.245.245 0 0 1 .205-.108c.072 0 .132.03.183.088a.4.4 0 0 1 .094.27.538.538 0 0 1-.071.269.611.611 0 0 1-.198.207.397.397 0 0 1-.225.068h-.036Zm.397-.445c.007-.055.011-.1.011-.133a.47.47 0 0 0-.021-.133.246.246 0 0 0-.061-.111.12.12 0 0 0-.087-.038.128.128 0 0 0-.1.051.235.235 0 0 0-.043.152c0 .09.019.161.057.211a.127.127 0 0 0 .103.055.21.21 0 0 0 .07-.015.223.223 0 0 0 .071-.039ZM37.207 68.923l-.05.108h-.261l-.057.116a.465.465 0 0 1 .269.126.282.282 0 0 1 .085.205.283.283 0 0 1-.028.126.346.346 0 0 1-.315.2.2.2 0 0 1-.114-.026c-.024-.018-.035-.037-.035-.059 0-.012.005-.023.015-.031.009-.01.022-.014.037-.014.01 0 .02.001.029.005a.253.253 0 0 1 .042.026.171.171 0 0 0 .229-.023.192.192 0 0 0 .057-.138.238.238 0 0 0-.051-.146.32.32 0 0 0-.139-.106.577.577 0 0 0-.191-.033l.167-.336h.311ZM37.959 69.622l-.061.167h-.513v-.024a2.25 2.25 0 0 0 .318-.336.421.421 0 0 0 .093-.238c0-.055-.017-.1-.051-.135a.16.16 0 0 0-.121-.053.183.183 0 0 0-.115.038.211.211 0 0 0-.075.108h-.024a.3.3 0 0 1 .082-.181.232.232 0 0 1 .166-.063c.07 0 .129.022.176.068a.21.21 0 0 1 .071.159c0 .044-.01.088-.03.131a.857.857 0 0 1-.154.219 4.253 4.253 0 0 1-.199.21h.226a.546.546 0 0 0 .097-.005.132.132 0 0 0 .09-.065h.024ZM44.624 62.028c-.043.003-.086.006-.089-.038-.089-.037-.199-.377-.204-.463-.004-.043.076-.136.033-.133-.002-.043-.049-.083-.049-.083-.046-.041-.049-.084-.052-.127-.043.003-.043.003-.088-.037l-.046-.04c-.047-.041-.049-.084-.096-.124-.002-.044-.046-.04-.049-.084-.042.003-.089-.037-.092-.08-.042.003-.223-.115-.226-.158-.055-.17.377-.157.427-.074.048.084-.081.093-.074.179.043-.002.04-.046.083-.049.042-.003.082-.049.168-.055l.04-.046c.043-.003.083-.049.083-.049a.322.322 0 0 1 .166-.099c-.003-.043.04-.046.04-.046.046.04.046.04.049.084-.036.089-.16.185-.246.19-.086.006-.126.053-.212.059.003.043-.04.046-.04.046s-.039.046.003.043c.004.043.046.04.046.04.04-.046.083-.049.126-.052l.086-.006c-.003-.043.04-.046.083-.049.04-.046.04-.046.083-.049.043-.003.04-.047.084-.049.085-.007.131.034.091.08.003.043-.037.089-.079.092l-.087.006c.003.044-.04.047-.082.05l-.087.006-.043.003s-.039.045-.083.049c0 0-.043.003-.04.046l.043-.003c.043-.003.089.037.132.034 0 0 .04-.046.084-.049.045.04.006.087.048.084 0 0 .046.04.043-.004 0 0-.046-.04-.049-.083-.003-.043.083-.049.126-.052l.04-.046.043-.003c.003.043.006.086.052.126.089.038.209-.101.261.026l.009.129c-.04.047-.08.093-.169.056-.046-.041-.006-.087-.092-.081l-.043.003c.003.043-.04.046-.037.089-.04.047-.132-.034-.175-.031l-.086.006.003.044-.043.003c-.04.045-.034.132.052.126.043-.003.04-.046.038-.089l.042-.004c.046.041.052.127.138.121a.327.327 0 0 1 .074-.178c.086-.007.055.169.144.207l.083-.05c.043-.003.037-.088.037-.088l.043-.004c.003.044.046.04.046.04l.138.121.009.129.003.044c-.08.093-.172.012-.261-.025l-.129.009c-.043.003-.086.005-.132-.035l-.129.009c-.043.003-.043.003-.088-.037l.002.043.004.044c.045.04.091.08.094.123.047.041.053.127.015.216 0 0-.043.003-.04.047Z" style="fill:#004098;fill-rule:nonzero" transform="matrix(5.21374 0 0 5.21376 -113.771 -255.181)"/><path d="M44.008 61.853c-.132-.034-.092-.08-.142-.164-.003-.043-.045-.04-.048-.083 0 0-.004-.043-.049-.084-.043.003-.126.052-.169.055l-.04.047-.086.006c-.083.049-.393-.06-.399-.146.037-.09.111-.269.194-.318 0 0 .04-.046.042-.003.047.04.05.084.053.126.003.044.003.044.046.041.048.084.052.127.135.078l.129-.009c.034-.133-.193-.291-.162-.467.043-.003.04-.046.083-.049 0 0 .046.04.049.083.042-.002.046.04.049.084.003.043.055.169.058.213.046.04.129-.009.171-.012l.087-.006-.046-.04c-.046-.041-.05-.084-.092-.081-.006-.086-.012-.173.074-.179l.046.04c.002.044.009.13.054.171.047.04.049.083.096.124.046.04.092.08.134.077.003.043.056.169.016.216l-.086.006c-.003-.043-.046-.04-.049-.084-.046-.04-.225-.114-.225-.114-.036.089.056.169.105.253 0 0 .003.044.049.084 0 0 .003.043-.04.046.003.043-.04.046-.037.089ZM42.874 60.047c-.086-.003-.17-.092-.21-.18a.091.091 0 0 1-.083-.089l-.085-.089.002-.043.003-.13.007-.216c.001-.044.053-.346.053-.346-.042-.045-.129-.004-.173.038a5.642 5.642 0 0 1-.13-.004c-.087.041-.173.039-.215-.006-.086-.002-.17-.091-.21-.179.001-.043-.043-.044-.041-.088-.04-.088.089-.084.132-.083l.125.134c.128.047.344.053.432-.031l.002-.043c.001-.043.001-.043-.042-.045-.04-.088-.083-.132-.167-.222l-.041-.044.003-.086s.001-.044.044-.043c.001-.043.088-.084.13-.04.043.002.042.045.084.09l.041.044.084.089.086.003c.042.045.041.088.127.09.043.002.176-.125.177-.168.046-.086.048-.172.178-.169.001-.042.044-.041.044-.041.042.044.042.044.085.045-.001.044-.002.087.039.132-.001.043.042.044.04.088l-.001.042c-.046.13-.134.17-.22.168-.043-.001-.086-.003-.087.041-.088.041.084.089.084.089.086.003.212.093.167.178-.043-.001-.043-.001 0 0-.045.042-.003.087-.047.129-.045.042-.129-.004-.171-.048 0 0-.042-.045-.085-.046.001-.043-.127-.09-.171-.049 0 0-.045.043-.046.086-.045.085-.007.26-.011.39.042.045-.003.086.039.131l-.01.347c.042.044.041.087.039.13l-.001.044ZM41.065 58.28c-.171-.021-.423-.094-.536-.238-.038-.048-.07-.139-.108-.188-.028-.134-.05-.311-.12-.45l.005-.043c-.043-.005-.038-.048-.081-.053a.234.234 0 0 1-.229.103c-.133.029-.347.003-.427-.05-.038-.048-.081-.053-.076-.096.005-.043.053-.081.053-.081.043.005.123.058.166.064a.821.821 0 0 0 .357-.09c.048-.038-.064-.182-.06-.225-.043-.005.011-.086.059-.124.095-.076.284.165.343.041.052-.081.02-.173.025-.216-.039-.048-.113-.144-.018-.22l.086.01c.041.005.122.059.209.069l.17.02c.086.01.215.025.251.073.039.048.039.048.034.091-.006.043-.059.124-.101.119l-.043-.005-.005.043c-.043-.005-.134.028-.176.023-.043-.005-.081-.053-.129-.015l-.005.043c-.005.043.038.048.038.048.08.053.209.068.241.159.075.097-.058.124-.1.12-.134.027-.252-.074-.348.002-.042-.005-.015.129.028.134.032.091.022.178.06.225.033.092.065.183.146.236a.718.718 0 0 0 .226.288c-.005.043.08.054.075.096l.038.049c-.043-.006-.048.038-.048.038ZM34.983 57.002c-.086 0-.129 0-.129-.043-.043-.174.086-.174.172-.174a.332.332 0 0 0 .173-.086s.042 0 .042-.044c0-.043-.086-.087-.129-.13v-.087s-.043-.043 0-.043c0-.043.043-.043.087-.043 0-.044.042-.044.086-.087 0-.043.043-.087.086-.13.043-.087.043-.173.086-.26.043-.043.086-.043.129-.043.043 0 .13-.087.13-.131 0 0 0-.043-.043-.043-.044.043-.087.043-.13.043-.043.044-.086.044-.129.087 0 0-.043 0-.086.044-.043 0-.087.043-.173.087-.043.043-.172.086-.215.129-.043 0-.043.044-.043.044l-.129.13h-.043l-.044-.044c-.043-.043-.086-.086-.086-.173 0-.086.173-.304.259-.304.043-.043.086.044.043.044v.087c.043.043.258-.087.258-.087.044 0 .044-.044.086-.044-.086 0-.086-.086-.129-.129 0 0-.043-.044-.086-.044 0-.043-.043-.043-.043-.043-.043-.043.086-.086.129-.13.043 0 .129 0 .216-.043.043 0 .086.043.129.087.043.043.086.129.043.173 0 .043-.043.043-.043.043.086 0 .129 0 .216-.043h.086c.043 0 .086-.044.129-.044.086-.043.129.044.172.087.044.043.086.086.086.13-.086.043-.086.087-.172.087h-.172c-.043.043-.043.043-.086.043h-.043c-.044 0 0 .044 0 .087v.043c-.044.043-.087.087-.13.087-.086.043-.129.13-.172.173l-.043.043c.043 0 .258-.086.301-.043a.24.24 0 0 1-.129.217h-.043c-.043.043 0 .043 0 .086l-.043.044c.129 0 .302-.087.388-.044.043 0 .086.044.129.087 0 .044 0 .13-.043.13-.043.043-.086 0-.129 0-.043.043-.086.043-.173.043-.043 0-.086.044-.129.044h-.129c-.043 0-.043.043-.087.043-.042 0-.086.044-.129.044-.043.043-.086.043-.129.043Z" style="fill:#004098;fill-rule:nonzero" transform="matrix(5.21374 0 0 5.21376 -113.771 -255.181)"/><path d="M35.156 56.222h-.086c0-.044-.043-.13 0-.174.042-.043.086 0 .129 0l.086-.043v.043c0 .044 0 .044-.043.044v.086c-.043.044-.043.044-.086.044ZM35.971 61.034l1.13-.19-1.141-.21-.192-1.156-.219 1.129-1.197.193 1.181.255.201 1.157.237-1.178ZM29.663 62.227c-.043 0-.086-.043-.129-.043-.043.043-.086 0-.086-.043-.044-.044.043-.087.043-.13 0 0-.043-.217-.043-.26-.044-.044-.086-.087-.129-.087-.173-.173-.173.173-.345.13-.129-.043 0-.26-.044-.303-.085-.13-.215-.043-.301-.13-.086-.087.043-.304.129-.347.087-.043.172 0 .216 0 .086.043.086.043.129.087.043.043.086.086.129.086.087.087.216.13.302.217 0 .044.043.044.086.087v.13c0 .043.043.086.043.13.043.086.043.13.043.173.043.087.086.217-.043.303ZM29.749 61.014h-.086a.597.597 0 0 0-.259-.086c0-.044-.042-.044-.042-.044-.043-.043-.13-.043-.173-.087l-.129-.13h-.086c-.129 0-.173-.043-.216-.13-.043-.043 0-.13 0-.173.043-.044.087-.044.129-.086.13 0 .13.173.216.173.043 0 .043-.043.043-.087v-.044c0-.042.043-.129.129-.129 0 0 .044 0 .087.043v.044c.042.086 0 .173 0 .216-.043.043-.043.043-.043.087l.085.086s.044 0 .044.044a.326.326 0 0 0 .172.086h.086c.043-.043.043-.086.043-.13 0-.086.043-.13.043-.173.043 0 .086-.043.086-.043.043-.044.086 0 .129 0 .044.043.087.043.087.086 0 .13-.173.347-.216.433-.043 0-.129 0-.129.044ZM30.745 59.936h-.086c-.043-.043-.172-.173-.129-.217.042-.043.129 0 .129-.043 0 0 .086-.087.086-.043v.086c.043.087.086.173 0 .217ZM31.305 58.983h-.086c-.044 0-.044 0-.086-.044h-.129l-.043-.043c.043-.13.214-.26.344-.26 0 .043.043.043.043.043.044.044.086.173.044.217 0 .043-.044.087-.087.087ZM29.926 59.199s-.042 0-.086-.043c0 0-.043 0-.043-.044-.043-.086.087-.129.129-.173a.33.33 0 0 1 .087-.173c0-.043.043-.087.043-.13.043-.044.043-.087 0-.13h-.043c-.043.043-.173.086-.173-.044v-.129c.044 0 .086-.044.13-.087.043 0 .043-.043.086-.087.086-.043.172.044.172.13.086 0 .086-.086.13-.086l.042-.044c.043-.043.216-.26.259-.173.043 0 .043.043.043.043-.043.044-.086.087-.086.13-.044.044-.086.044-.129.087-.087.13-.216.216-.259.346-.043.087-.043.131-.086.174v.087a.329.329 0 0 0-.086.173c-.043.043 0 .086-.043.13 0 .043-.043.043-.087.043Z" style="fill:#004098;fill-rule:nonzero" transform="matrix(5.21374 0 0 5.21376 -113.771 -255.181)"/><path d="M31.133 59.503h-.086c-.043 0-.216 0-.216-.044 0-.043.086-.043.086-.087v-.043c0-.043-.129-.13-.171-.13-.087 0-.087.087-.13.087-.086.043-.345-.217-.345-.26a.46.46 0 0 0 .086-.217c.044-.043.044-.086.086-.173 0 0 .044-.044.044-.087.043-.043.086-.043.086-.087.043-.042.086-.129.129-.087h.044c.042 0 .042 0 .042.045 0 .042 0 .129-.042.216v.087c0 .043.085.043.085.129v.044s0 .043-.043.043c.087.044.259.217.302.26 0 .043.043.043.043.043.043.044.043.13.043.174 0 .043-.043.087-.043.087Zm-.603-.477c0-.043.043-.13.043-.217h-.043c-.043.043-.129.174 0 .217ZM32.626 56.928l-.043-.044c-.043-.086.043-.13.086-.173 0-.043.043-.086.043-.086 0-.087-.129-.044-.129-.087-.043-.043.043-.173.043-.217a.326.326 0 0 0 .172-.086c.044-.043.173 0 .173.086v.13c.043.044.172-.173.258-.13 0 .044 0 .087-.043.087 0 .043-.086.13-.13.13-.085.043-.085.043-.129.087-.042 0-.042.043-.085.043-.044.086-.13.216-.216.26ZM32.41 58.054c-.172-.043-.129-.303-.215-.303l-.043.044s-.043.043-.043.086l-.086.044c-.087 0-.087-.087-.087-.13 0-.044 0-.087.044-.087 0-.043.043-.043.086-.043a.331.331 0 0 0 .086-.174c0-.043 0-.043-.043-.086 0-.087 0-.174-.043-.217-.043-.043-.086-.043-.086-.087-.044-.043-.086-.043-.086-.087-.043-.043.042-.129.042-.173.044-.086-.042-.26.044-.303.043-.044.043-.044.086-.044s.086-.043.129-.043c0 0 .043.043.086.043 0 .044.043.087 0 .174 0 .043-.129.13-.172.173-.043 0-.043.044-.086.044 0 .043-.043.043-.043.086 0 0 0 .043.043.043.043.044.043.044.086.044v-.087c0-.043.043-.086.043-.13.043-.043.086-.043.129-.043.129-.043.172.13.216.216v.087c.043.087.086.13.086.217.043.043.043.087.043.13.086.087.215.347.172.476 0 .044-.086.044-.086.044-.043-.044-.043-.087-.086-.13-.043-.043-.129-.087-.173-.173 0-.044.044-.044.044-.044l.086.087h.043c0-.043-.043-.173-.086-.173v-.044l-.043-.043c-.044.043-.044.043-.044.087l-.085.086v.087c0 .087.085.26.042.346Zm-.129-.693v-.043c0-.044-.086-.13 0-.13h.087c0-.044 0-.087-.044-.087 0-.043-.086-.13-.086-.087-.043 0-.043.044-.043.087v.13c0 .043.043.13.086.13ZM32.927 57.708c-.042 0-.086-.044-.086-.044v-.086c0-.087-.043-.13-.043-.173v-.26a.44.44 0 0 0-.043-.131c.043 0 .043-.043.043-.043.043 0 .087-.043.129-.043.044-.087.044-.217.129-.217.173-.086.087.13.13.217a.24.24 0 0 0 .13.217c0 .043.042.043.042.043.043.043.259 0 .259-.043 0-.044-.043-.131-.043-.174v-.043s.043 0 .043.043c.043 0 .043.043.086.087l.129.13c0 .043.044.087 0 .13 0 .043-.042.043-.086.087 0 0-.043 0-.086.043-.086 0-.344 0-.431-.087a63.179 63.179 0 0 1-.129-.26c-.044-.043-.044-.087-.086-.087h-.043c-.086.087 0 .217 0 .304.043.13.043.303-.044.39Zm-.042-.303v-.217h-.044v.043c0 .044 0 .13.044.174ZM38.461 55.87c-.086 0-.216-.087-.216-.174 0-.043 0-.043.043-.043 0-.043.044-.043.087-.043h.215c0 .043.043.043.043.043.043.087-.086.174-.172.217ZM37.513 55.653h-.043c0-.087.043-.13.085-.173.044-.043.044-.043.044-.087.043-.043.086-.086.129-.086.043 0 .087 0 .129.043 0 0 .087 0 .087.043.043 0 .043.043.043.087-.043.173-.172.086-.302.086h-.043c-.043.044-.087.087-.129.087ZM38.59 57.04a.32.32 0 0 1-.173-.087c-.086-.043-.172-.173-.172-.26 0-.086 0-.26.043-.303v-.043h-.043s-.044 0-.086.043c-.043.087-.087.13-.13.217-.042 0-.042.043-.085.086-.044.043-.086.043-.13.043-.043 0-.086 0-.086-.043-.043-.043.13-.086.172-.086v-.044c.044-.086.087-.13.129-.216 0-.044-.042-.13 0-.174h.043c.087 0 .087.087.173.087.043 0 .086-.087.172-.087.043 0 .087 0 .087.087 0 0-.087.043-.087.087-.043.043-.086.216-.086.26 0 .043 0 .043.043.086 0 .043.13.13.172.087.044-.044.044-.087.087-.13h.043l.043.043s0 .26-.043.26c0 .044-.043.044-.086.087ZM37.944 56.086l-.043-.043V56c.043 0 .043 0 .043-.043h.473c.087 0 .13-.044.173-.044.043-.043.043-.043.086-.043h.043c.043 0 .086.087.043.13-.043 0-.129.043-.172.043h-.215c-.043.043-.13.043-.173.043h-.258ZM37.555 56.867h-.042c-.043-.044-.129-.347-.043-.347l.043.087c.042-.044.086-.217.042-.26-.042 0-.214.086-.214.086-.087.043-.173.26-.259.26v-.13c.043-.043.086-.043.129-.13-.043-.043-.086 0-.129 0h-.043c-.086-.043 0-.216.043-.26.043-.043.086.044.129.044h.086s.044 0 .044-.044c.043-.043.043-.13.043-.217.042-.043.042-.129.086-.173 0-.043 0-.043.043-.043.042.043 0 .13 0 .216h.086l.043.044h.043l.043-.13c-.043-.043-.129-.043-.129-.043v-.044l.043-.043c.086 0 .173-.044.216.043v.087l-.043.043c0 .043-.044.13-.044.173-.043 0-.086.044-.086.087h.043c.043 0 .043.044.043.044v.043c-.043.043-.086.043-.086.087v.086c0 .043-.043.087-.043.13 0 .13 0 .217-.087.304Zm-.042-.65v-.174h-.043c0 .043 0 .087-.044.13v.044h.087ZM35.869 63.366c.001 0-.603-.194-1.167-.208l-.014-.062.657-.304v.07l-.51.234s.679.087.997.187l.037.083ZM41.045 60.161l.039.053-5.575 8.229-.057-.036.994-2.897.083-.124-.908 2.768 5.32-7.872-1.596.746.084-.124 1.616-.743ZM40.995 65.091l-.126-.477-2.648-.002-.32.477 3.094.002Zm-4.348-.471-.81-.002c-.035.14-.095.297-.143.471l.837-.002c.047-.169.087-.327.116-.467Zm-.97-.009-3.833.005-.127.471 3.825.006c.042-.152.095-.321.135-.482Z" style="fill:#004098;fill-rule:nonzero" transform="matrix(5.21374 0 0 5.21376 -113.771 -255.181)"/><path d="M31.66 63.828c0-1.335 1.622-2.449 3.773-2.701a2.855 2.855 0 0 0-1.759 3.304h-1.9a1.685 1.685 0 0 1-.114-.603Zm2.06.782c.049.167.114.327.191.48h-1.729a2.323 2.323 0 0 1-.337-.48h1.875Zm.261.61c.031.054.064.107.098.159h-1.603a3.275 3.275 0 0 1-.171-.159h1.676Zm.19.289c.137.184.296.351.472.497h-1.16a4.364 4.364 0 0 1-.845-.497h1.533Zm.643.627c.116.082.238.155.365.219l-.047.133a6.685 6.685 0 0 1-1.337-.352h1.019Zm.478.27c.131.058.279.113.42.151a7.248 7.248 0 0 1-.454-.049l.034-.102Zm2.234-5.247a6.73 6.73 0 0 1 1.096.254l-.383.177a2.826 2.826 0 0 0-.713-.431Zm2.462.918c.669.476 1.071 1.086 1.071 1.751 0 .224-.046.443-.133.652h-1.732a2.902 2.902 0 0 0 .023-1.264l.771-1.139Zm.879 2.533a2.279 2.279 0 0 1-.329.48h-1.57c.077-.153.141-.313.19-.48h1.709Zm-.452.61a3.301 3.301 0 0 1-.172.159H38.8a3.21 3.21 0 0 0 .097-.159h1.518Zm-.333.289c-.245.187-.53.353-.846.497h-1.001c.177-.146.336-.313.473-.497h1.374Zm-1.157.627a6.859 6.859 0 0 1-1.676.398c.295-.089.57-.224.816-.398h.86Z" style="fill:#004098;fill-rule:nonzero" transform="matrix(5.21374 0 0 5.21376 -113.771 -255.181)"/><path d="m40.141 59.669-5.725 2.752s.613.042 1.082.301l.002.001.002.002c.295.164.532.415.525.796v.024h-.001v.007c-.055 1.018-1.281 4.468-1.281 4.468l5.396-8.351Zm-4.114 3.852-.001.024h.001v-.024Z" style="fill:#004098;fill-rule:nonzero" transform="matrix(5.21374 0 0 5.21376 -113.771 -255.181)"/><path d="m41.027 65.512.21.493H37.27l.35-.492 3.407-.001Zm-4.703.493h-.157l.279-.495.043-.001c-.052.161-.105.328-.165.496Zm-.277-.003h-.628c.058-.175.101-.336.149-.49l.801-.007-.322.497Zm-.758.003h-3.662l.104-.302.005-.013.057-.18 3.638.002c-.056.174-.086.339-.142.493ZM43.956 66.26l.072-.209.017.006-.004.012a.076.076 0 0 0-.002.036.162.162 0 0 0 .014.051.553.553 0 0 0 .046.066l.172.223.147.053c.035.013.059.017.071.012.016-.007.029-.022.037-.047l.006-.019.017.006-.088.254-.017-.006.008-.021c.009-.025.007-.046-.004-.062-.007-.01-.027-.02-.059-.032l-.139-.05-.302.077a.609.609 0 0 0-.068.02.15.15 0 0 0-.041.033.064.064 0 0 0-.013.025l-.016-.006.089-.256.016.006-.005.013a.073.073 0 0 0-.003.041.03.03 0 0 0 .022.028c.01.004.032.002.065-.007l.232-.057-.14-.182c-.021-.027-.038-.044-.051-.048a.033.033 0 0 0-.024-.001.043.043 0 0 0-.021.013c-.007.006-.012.018-.018.034l-.016-.006ZM43.561 67.224l.133.062-.009.016a.177.177 0 0 0-.054-.014.093.093 0 0 0-.053.017.153.153 0 0 0-.04.05l-.04.08.421.221c.034.018.057.025.069.023.017-.005.031-.018.042-.04l.01-.02.015.008-.122.239-.015-.007.011-.021c.011-.023.013-.044.004-.062-.005-.01-.024-.024-.055-.04l-.421-.222-.034.068a.234.234 0 0 0-.023.059.094.094 0 0 0 .011.053c.01.018.026.034.05.049l-.008.016-.126-.075.234-.46ZM43.393 68.564l.014.011-.159.219-.013-.011.013-.018c.015-.021.02-.041.015-.059-.003-.012-.02-.03-.05-.052l-.323-.242a.216.216 0 0 0-.053-.033.038.038 0 0 0-.027.004.078.078 0 0 0-.034.028l-.013.018-.014-.011.158-.219.014.011-.013.019c-.015.02-.02.04-.015.058.003.013.02.03.05.052l.322.243c.025.019.043.03.054.032.008.003.017.001.027-.003a.093.093 0 0 0 .034-.028l.013-.019ZM42.302 68.991l.16.144-.011.013a.254.254 0 0 0-.093-.043.166.166 0 0 0-.154.055.119.119 0 0 0-.031.08.093.093 0 0 0 .029.068c.015.013.032.02.052.02a.487.487 0 0 0 .158-.042.98.98 0 0 1 .133-.043.194.194 0 0 1 .076.002.162.162 0 0 1 .12.159.206.206 0 0 1-.055.142c-.013.014-.024.026-.037.036a.352.352 0 0 1-.052.034.266.266 0 0 0-.048.034.027.027 0 0 0-.007.018.062.062 0 0 0 .015.027l-.011.013-.159-.143.01-.013a.28.28 0 0 0 .097.042.141.141 0 0 0 .082-.01.193.193 0 0 0 .077-.054.135.135 0 0 0 .037-.09.098.098 0 0 0-.032-.074.091.091 0 0 0-.043-.021.141.141 0 0 0-.058 0 1.037 1.037 0 0 0-.108.036c-.058.02-.101.033-.129.039a.204.204 0 0 1-.078 0 .14.14 0 0 1-.064-.035.153.153 0 0 1-.052-.117.187.187 0 0 1 .05-.132.26.26 0 0 1 .088-.064.103.103 0 0 0 .032-.02.032.032 0 0 0 .008-.02.073.073 0 0 0-.013-.028l.011-.013ZM40.472 70.609l.128.213.116-.073c.031-.019.048-.036.053-.052.006-.02 0-.047-.016-.079l.014-.009.113.188-.014.009a.258.258 0 0 0-.042-.044.054.054 0 0 0-.036-.007.143.143 0 0 0-.054.023l-.116.073.106.177a.255.255 0 0 0 .03.043.035.035 0 0 0 .018.005.08.08 0 0 0 .032-.014l.09-.056a.296.296 0 0 0 .062-.048.118.118 0 0 0 .024-.049.38.38 0 0 0 .005-.106l.015-.01.036.164-.408.256-.009-.014.019-.012a.11.11 0 0 0 .03-.031.047.047 0 0 0 .006-.03.277.277 0 0 0-.028-.055l-.21-.35c-.021-.035-.037-.053-.049-.057-.015-.005-.034 0-.056.013l-.018.012-.009-.015.408-.256.076.114-.015.01a.226.226 0 0 0-.053-.048c-.013-.005-.028-.008-.044-.005a.238.238 0 0 0-.059.028l-.145.092ZM39.819 70.953l.007.016a.098.098 0 0 0-.037.04.195.195 0 0 0-.012.082l.012.583-.016.007-.426-.406a.343.343 0 0 0-.044-.036.07.07 0 0 0-.034-.009.124.124 0 0 0-.046.009l-.007-.017.233-.103.007.016c-.026.014-.041.026-.046.036a.037.037 0 0 0-.001.031.239.239 0 0 0 .048.058l.29.275-.008-.396a.268.268 0 0 0-.01-.078.04.04 0 0 0-.022-.018.085.085 0 0 0-.049.003l-.008.002-.006-.017.175-.078ZM38.785 72.005l.005.016-.258.07-.004-.017.021-.006c.025-.007.041-.019.048-.037.005-.011.003-.035-.006-.072l-.101-.396a.236.236 0 0 0-.021-.06c-.005-.007-.013-.011-.023-.014a.082.082 0 0 0-.044 0l-.021.005-.005-.016.258-.069.004.016-.022.006c-.024.007-.04.019-.047.036-.005.012-.003.036.006.073l.101.396a.201.201 0 0 0 .021.06c.005.007.012.011.024.014a.09.09 0 0 0 .043.001l.021-.006ZM37.133 71.616l.167-.02.43.427-.04-.363c-.005-.039-.011-.063-.021-.071-.013-.012-.031-.017-.056-.013l-.021.002-.002-.017.214-.026.002.017-.021.003c-.026.003-.044.013-.054.031a.172.172 0 0 0-.001.068l.059.531-.017.002-.463-.458.044.388c.004.038.01.062.02.071.013.011.031.015.056.013l.021-.003.002.017-.214.026-.002-.017.021-.003c.026-.003.043-.014.053-.031.006-.01.006-.034.002-.069l-.048-.437a.3.3 0 0 0-.046-.038.144.144 0 0 0-.043-.014.187.187 0 0 0-.04.001l-.002-.017ZM36.37 71.644v-.018l.22.006v.017h-.024a.063.063 0 0 0-.057.029c-.007.01-.011.032-.011.068l-.007.256a.474.474 0 0 1-.022.147.182.182 0 0 1-.075.089.248.248 0 0 1-.149.034.264.264 0 0 1-.153-.039.19.19 0 0 1-.072-.098.546.546 0 0 1-.011-.157l.007-.248c0-.038-.004-.064-.014-.077-.011-.012-.027-.018-.051-.019h-.024l.001-.018.268.006v.018l-.024-.001c-.026 0-.044.007-.056.023a.163.163 0 0 0-.013.071l-.007.275c0 .025.001.053.004.085a.19.19 0 0 0 .023.075.126.126 0 0 0 .049.045.172.172 0 0 0 .08.02.23.23 0 0 0 .109-.025.144.144 0 0 0 .068-.068.404.404 0 0 0 .021-.143l.007-.256c.001-.04-.003-.065-.011-.075-.012-.014-.029-.021-.053-.022h-.023ZM34.397 71.297l-.048.194-.014-.005a.29.29 0 0 0-.025-.127.2.2 0 0 0-.118-.097.202.202 0 0 0-.201.033.346.346 0 0 0-.109.166.393.393 0 0 0-.019.168.232.232 0 0 0 .052.132.213.213 0 0 0 .163.083.294.294 0 0 0 .066-.005l.057-.174a.18.18 0 0 0 .013-.061.044.044 0 0 0-.014-.028.128.128 0 0 0-.047-.025l.005-.016.228.076-.005.017-.011-.003c-.022-.008-.04-.006-.054.007a.184.184 0 0 0-.03.062l-.06.183a.435.435 0 0 1-.225-.016c-.113-.038-.188-.105-.222-.198a.337.337 0 0 1 .084-.356.3.3 0 0 1 .331-.078.22.22 0 0 1 .056.024c.017.01.039.026.067.049a.105.105 0 0 0 .03.02.016.016 0 0 0 .016-.003c.006-.004.012-.013.017-.028l.017.006ZM32.729 70.57l.151.076.132.597.16-.327c.017-.035.023-.059.02-.071-.004-.017-.017-.031-.039-.042l-.02-.01.008-.015.194.097-.008.016-.02-.01c-.023-.012-.043-.013-.06-.003-.011.005-.023.024-.039.056l-.233.479-.015-.007-.144-.643-.171.35c-.017.035-.023.059-.02.071.004.016.018.031.039.042l.02.009-.008.016-.193-.098.007-.016.019.011c.024.011.045.012.062.003.01-.006.023-.025.038-.056l.193-.396a.26.26 0 0 0-.018-.056.13.13 0 0 0-.028-.036.153.153 0 0 0-.035-.022l.008-.015ZM30.82 69.375l.206.205.124-.129a.217.217 0 0 0 .04-.05.044.044 0 0 0 0-.028.085.085 0 0 0-.022-.038l-.016-.016.012-.012.19.189-.012.013-.016-.016a.078.078 0 0 0-.037-.022.039.039 0 0 0-.03.002.204.204 0 0 0-.046.04l-.281.293a.25.25 0 0 0-.04.05.044.044 0 0 0 0 .028.093.093 0 0 0 .023.038l.015.015-.012.013-.189-.19.012-.012.015.016c.018.018.037.025.056.023.012-.002.031-.017.057-.043l.133-.139-.206-.205-.133.138a.205.205 0 0 0-.039.049.048.048 0 0 0 0 .029.086.086 0 0 0 .022.038l.016.015-.012.013-.19-.19.012-.012.016.015c.018.019.037.027.056.024.011-.002.031-.017.057-.044l.281-.293a.172.172 0 0 0 .039-.05.048.048 0 0 0 .001-.027.087.087 0 0 0-.023-.038l-.015-.016.012-.012.189.189-.011.013-.016-.016a.094.094 0 0 0-.037-.022c-.011-.003-.021-.003-.03.002a.232.232 0 0 0-.047.04l-.124.13ZM30.025 68.974l-.013.011-.158-.218.013-.01.013.018c.015.021.032.032.051.032.012 0 .034-.011.064-.035l.322-.244a.2.2 0 0 0 .046-.042.038.038 0 0 0 .005-.028.086.086 0 0 0-.016-.041l-.013-.018.014-.011.158.218-.014.011-.013-.019c-.016-.021-.032-.031-.051-.031-.013-.001-.034.01-.064.033l-.322.245a.177.177 0 0 0-.046.043c-.005.007-.006.016-.005.027a.086.086 0 0 0 .016.041l.013.018ZM29.854 67.537l-.21.132.071.119c.019.03.036.048.051.053.021.005.046 0 .078-.017l.008.014-.184.116-.009-.014a.232.232 0 0 0 .043-.043.056.056 0 0 0 .007-.037.132.132 0 0 0-.022-.055l-.071-.118-.175.11a.166.166 0 0 0-.041.03c-.004.005-.005.011-.005.018 0 .007.005.019.014.034l.055.091c.018.03.033.051.046.062.013.012.028.02.049.024.025.007.06.009.103.005l.009.016-.16.037-.25-.415.014-.009.012.019a.079.079 0 0 0 .03.03c.01.006.019.008.029.005a.162.162 0 0 0 .054-.027l.344-.216c.034-.021.052-.038.056-.05.005-.015 0-.035-.013-.057l-.011-.02.014-.009.25.416-.112.079-.01-.016a.235.235 0 0 0 .047-.054.074.074 0 0 0 .005-.045.198.198 0 0 0-.027-.06l-.089-.148ZM29.225 66.833a.2.2 0 0 1-.005.108.14.14 0 0 1-.081.081.152.152 0 0 1-.099.005.176.176 0 0 1-.085-.052.466.466 0 0 1-.077-.14l-.112-.278.017-.006.008.022c.01.025.025.039.045.043.012.004.035-.002.068-.016l.381-.151c.036-.015.058-.029.064-.041.008-.016.008-.035-.001-.057l-.009-.022.016-.007.102.254c.018.047.03.087.035.119a.213.213 0 0 1-.012.114.141.141 0 0 1-.081.078c-.065.026-.123.008-.174-.054Zm-.067-.237a.484.484 0 0 0 .026.085c.03.073.068.114.113.122.024.004.047 0 .069-.008a.116.116 0 0 0 .075-.092.218.218 0 0 0-.017-.123.33.33 0 0 0-.04-.075l-.226.091Zm-.282.113a.488.488 0 0 0 .028.103.224.224 0 0 0 .072.099c.036.026.074.03.116.014.054-.022.082-.064.084-.126a.28.28 0 0 0-.024-.112.69.69 0 0 0-.034-.075l-.242.097ZM31.852 70.501l-.2-.141-.093.056a.156.156 0 0 0-.045.036c-.014.019-.001.043.037.075l-.01.014-.163-.115.01-.014c.024.011.042.016.052.014a.275.275 0 0 0 .096-.044l.483-.297.014.01-.125.557a.299.299 0 0 0-.01.081.1.1 0 0 0 .039.067l-.01.015-.204-.145.01-.014c.036.023.061.025.075.005a.185.185 0 0 0 .023-.064l.021-.096Zm.009-.036.061-.271-.239.145.178.126ZM42.125 70.135l-.128.11-.355-.081-.03.025-.021.018.121.139c.026.029.045.045.059.047.018.002.035-.004.053-.02l.019-.016.011.013-.205.178-.011-.013.018-.016c.02-.017.029-.036.027-.056a.162.162 0 0 0-.039-.059l-.269-.309c-.026-.03-.045-.046-.058-.047-.018-.003-.036.004-.054.019l-.018.016-.012-.013.174-.152a.723.723 0 0 1 .1-.075c.04-.022.08-.03.119-.023a.14.14 0 0 1 .088.049c.055.064.052.139-.012.225l.218.05a.34.34 0 0 0 .101.014.19.19 0 0 0 .093-.037l.011.014Zm-.554.049.011-.008.009-.009a.215.215 0 0 0 .074-.105.119.119 0 0 0-.027-.12.13.13 0 0 0-.092-.048.133.133 0 0 0-.098.037.363.363 0 0 0-.05.055l.173.198Z" style="fill:#004098;fill-rule:nonzero" transform="matrix(5.21374 0 0 5.21376 -113.771 -255.181)"/><path d="M46.18 64a9.59 9.59 0 0 0-9.59-9.59C31.294 54.41 27 58.704 27 64a9.59 9.59 0 0 0 9.59 9.59A9.59 9.59 0 0 0 46.18 64Zm-.275 0c0 5.144-4.171 9.314-9.315 9.314a9.314 9.314 0 1 1 0-18.628c5.144 0 9.315 4.17 9.315 9.314Z" style="fill:#004098;fill-rule:nonzero" transform="matrix(5.21374 0 0 5.21376 -113.771 -255.181)"/><path d="M43.157 63.98a6.533 6.533 0 0 0-13.067 0 6.534 6.534 0 1 0 13.067 0Zm-.33 0a6.203 6.203 0 1 1-12.406 0 6.203 6.203 0 0 1 12.406 0Z" style="fill:#004098;fill-rule:nonzero" transform="matrix(5.21374 0 0 5.21376 -113.771 -255.181)"/></svg>