<svg xmlns="http://www.w3.org/2000/svg" width="154" height="157" fill="none"><g filter="url(#a)"><path fill="#fff" d="M13 0h128v128H13z"/><path fill="#263E6A" fill-rule="evenodd" d="M49.12 72.901a4.68 4.68 0 0 0-.582 1.463 8.973 8.973 0 0 0-.149.954c-.015.147-.03.293-.03.44 0 .018-.003.037-.005.055-.026.006-.04-.009-.057-.018a5.228 5.228 0 0 0-1.492-.527 4.14 4.14 0 0 0-1.038-.052c-.127.008-.254.017-.378.044-.287.06-.565.152-.827.286-.255.131-.494.289-.73.45-.248.17-.494.342-.756.492a4.971 4.971 0 0 1-1.396.535 7.45 7.45 0 0 1-1.064.165c-.16.013-.321.028-.482.02a8.05 8.05 0 0 1-.73-.069 7.142 7.142 0 0 1-1.078-.24 5.163 5.163 0 0 1-1.386-.69c-.277-.19-.551-.388-.844-.557-.29-.169-.6-.294-.928-.371a3.383 3.383 0 0 0-.47-.064 3.94 3.94 0 0 0-.827.019c-.336.04-.663.124-.98.24-.252.092-.5.197-.735.326-.013.007-.023.019-.05.01 0-.054-.001-.112-.005-.17a8.021 8.021 0 0 0-.101-.88 5.744 5.744 0 0 0-.237-.974 4.419 4.419 0 0 0-.459-.947c-.053-.083-.12-.153-.182-.23.016-.022.04-.026.062-.036a8.957 8.957 0 0 1 1.881-.597 5.82 5.82 0 0 1 1.144-.116c.624.002 1.223.12 1.773.433.264.15.502.332.724.536.175.16.349.321.518.487a2.89 2.89 0 0 0 1.32.728c.334.086.673.142 1.017.177.351.034.704.037 1.054.02a6.218 6.218 0 0 0 1.38-.218c.496-.138.924-.39 1.292-.75.218-.214.438-.426.674-.62.33-.272.693-.484 1.102-.616.244-.078.495-.127.75-.153a5.39 5.39 0 0 1 1.526.083 8.795 8.795 0 0 1 1.992.629c.004.002.007.008.011.014a2.447 2.447 0 0 0-.221.29Zm-.77 3.192a.242.242 0 0 1-.123.138.847.847 0 0 1-.342.099 2.597 2.597 0 0 1-1.04-.114 2.934 2.934 0 0 1-.743-.392 4.674 4.674 0 0 1-.492-.394c-.01-.01-.024-.017-.031-.044.057-.007.109-.015.162-.02.51-.05 1.007.02 1.496.166.375.113.734.265 1.075.458.06.033.06.037.037.103Zm-13.87-.355c-.236.176-.485.33-.758.44-.193.08-.395.124-.603.14-.087.008-.175.02-.263.022a1.35 1.35 0 0 1-.56-.08c-.081-.032-.153-.078-.182-.167-.022-.066-.023-.07.037-.103a5.056 5.056 0 0 1 1.653-.592 3.46 3.46 0 0 1 1.057-.016c.007.001.014.005.03.012-.134.128-.27.24-.411.344Zm15.014-3.264-.053-.025a9.761 9.761 0 0 0-1.159-.432 7.2 7.2 0 0 0-1.785-.313l-.175-.02c-.049.005-.094.025-.144.023a3.418 3.418 0 0 0-.526.027 3.378 3.378 0 0 0-1.892.86c-.251.221-.486.46-.737.681a2.593 2.593 0 0 1-.896.52 6.017 6.017 0 0 1-2.085.29 6.427 6.427 0 0 1-1.213-.15 3.278 3.278 0 0 1-1.017-.384c-.254-.156-.47-.36-.684-.563a7.372 7.372 0 0 0-.77-.667 3.389 3.389 0 0 0-1.422-.573c-.218-.037-.443-.006-.654-.088-.05.05-.117.022-.174.038-.034.01-.068.007-.102.007a4.696 4.696 0 0 0-.649.053 8.064 8.064 0 0 0-1.728.445c-.222.08-.438.168-.65.269-.098.046-.117.131-.042.205.133.13.227.288.32.446.058.1.114.204.165.31.015.032 0 .033-.023.033.007.034.037.05.057.072.018.02.04.038.05.064l.075.196c.011.027.02.055.001.083-.013.018-.013.041.007.052.049.027.038.069.03.11.071.049.097.123.115.203.013.062.029.124.044.186.058.247.094.498.13.749.031.215.045.432.058.65a.456.456 0 0 1-.007.108c-.035.206.044.358.232.451.015.008.032.013.048.02.118.046.244.067.371.07.18.005.357.001.535-.013.314-.023.61-.108.887-.255.373-.197.702-.45 1.005-.742.035-.034.068-.052.114-.032.01.005.019.005.028.008a3.46 3.46 0 0 1 1.024.46c.228.143.449.297.67.45.52.36 1.085.627 1.702.777.354.086.712.149 1.074.186.307.031.614.046.922.022.268-.02.535-.05.8-.097a6.144 6.144 0 0 0 1.205-.332 5.441 5.441 0 0 0 1.018-.56c.254-.17.502-.35.763-.507.302-.183.621-.328.967-.41.042-.01.067 0 .095.028.182.18.376.341.585.487.26.181.532.338.837.431.167.052.338.075.51.087.224.02.445.025.666-.004a.731.731 0 0 0 .272-.083c.144-.083.235-.195.222-.373-.005-.058-.02-.116-.014-.175.014-.158.019-.317.038-.475.039-.329.087-.657.163-.981.01-.048.025-.093.065-.125-.018-.011-.02-.024-.013-.043.04-.127.082-.252.122-.38.004-.01.005-.02.019-.027a.265.265 0 0 0 .086-.1c-.022-.01-.037.002-.05.014-.005.006-.007.005-.006 0s.005-.009.006-.012c.038-.095.075-.19.12-.282.138-.265.269-.533.483-.748.069-.07.052-.15-.036-.2Z" clip-rule="evenodd"/><path fill="#263E6A" fill-rule="evenodd" d="M45.99 69.976a6.427 6.427 0 0 0-.887-.008c-.286.016-.57.05-.844.135-.331.105-.622.284-.895.494-.233.18-.444.382-.656.587-.154.149-.31.297-.466.446a2.06 2.06 0 0 1-1.024.52 4.53 4.53 0 0 1-.925.092 4.76 4.76 0 0 1-.977-.077 2.35 2.35 0 0 1-.748-.267 2.375 2.375 0 0 1-.358-.278c-.214-.192-.414-.397-.621-.594a5.2 5.2 0 0 0-.854-.679 2.524 2.524 0 0 0-.99-.341 6.843 6.843 0 0 0-1.185-.038c-.055.002-.11.018-.172.006l.037-.32c.018-.144.032-.288.055-.43.024-.147.045-.294.06-.441.003-.029.02-.035.044-.036l.321-.029.745-.059.739-.05a78.01 78.01 0 0 1 2.63-.133 33.699 33.699 0 0 1 2.544.004c.292.01.585.02.879.033.314.015.629.034.944.053.336.02.673.04 1.01.065.294.02.59.045.884.068l.584.047c.032.002.048.008.051.045.01.097.02.194.04.29.045.235.062.473.096.71.008.06.014.12.02.18-.028.014-.056.007-.081.005Zm-11.354-1.951c.004-.03.013-.04.044-.042.326-.025.652-.053.98-.077.31-.025.618-.047.928-.068.29-.02.58-.035.871-.05.351-.019.702-.039 1.054-.052a39.093 39.093 0 0 1 2.61-.026c.383.011.768.024 1.151.04.335.014.668.034 1.003.054.336.02.673.039 1.01.064.36.024.722.054 1.081.083l.409.032c.02.002.04 0 .044.028l.063.527c-.09.003-.174-.012-.259-.018-.17-.01-.34-.027-.511-.04-.372-.03-.745-.057-1.117-.084-.206-.014-.41-.024-.615-.035l-.893-.053c-.16-.008-.322-.011-.483-.02-.435-.02-.87-.03-1.305-.038-.35-.006-.7-.006-1.048.002-.199.003-.396.006-.594.012-.31.011-.62.024-.93.039-.316.015-.631.03-.946.049-.371.023-.745.046-1.118.074-.372.026-.745.058-1.117.088-.093.007-.185.017-.279.024-.03.003-.062.001-.098.001l.066-.514Zm.066-.563.025-.181c.01-.073-.01-.06.072-.07.066-.01.132-.015.197-.02.32-.024.64-.05.958-.071.256-.02.512-.036.769-.052.375-.022.75-.047 1.127-.065.395-.02.791-.032 1.187-.047.154-.006.309-.011.461-.014.036 0 .05-.012.047-.046-.002-.02 0-.04 0-.06v-5.304c0-.108.014-.097-.1-.095a84.992 84.992 0 0 0-1.833.047c-.33.013-.659.027-.989.043-.358.018-.717.04-1.075.058-.038.002-.085.03-.11-.003-.02-.026.002-.07.007-.107.016-.133.033-.266.047-.4.004-.037.017-.047.053-.049.466-.023.933-.049 1.4-.07.334-.016.67-.024 1.002-.038.421-.017.842-.026 1.262-.036.289-.006.577-.005.866-.007.056 0 .056.001.056.056v6.465c0 .113.014.098-.096.098-.398-.001-.796.01-1.194.022a59.983 59.983 0 0 0-2.014.102c-.285.018-.572.037-.856.06-.33.024-.661.053-.993.08a42.91 42.91 0 0 1-.263.02c-.013 0-.03.005-.047-.01l.035-.306Zm.22-1.775c.039-.315.077-.63.117-.943.051-.414.105-.827.157-1.24.036-.298.07-.596.107-.893l.089-.734c.01-.075.01-.077.086-.083l.447-.024c.337-.018.674-.036 1.01-.05.338-.016.675-.024 1.012-.04.42-.017.841-.022 1.261-.035.043-.001.098-.018.129.007.031.026.011.082.011.125v4.872c0 .086 0 .087-.082.092a9.5 9.5 0 0 1-.205.006c-.308.012-.615.02-.924.035-.324.015-.649.035-.973.054-.331.02-.663.04-.995.063-.379.028-.76.059-1.139.088-.077.007-.15.016-.227.022-.027.002-.043.001-.038-.038l.157-1.284Zm.649-5.251c.006-.04.008-.077.015-.116.01-.053.01-.053.066-.056l.418-.02c.344-.017.688-.036 1.032-.051.345-.015.689-.024 1.033-.037.54-.022 1.08-.03 1.62-.037.404-.006.807-.007 1.21.005.223.006.445.005.668.01a63.425 63.425 0 0 1 1.89.069c.334.015.668.03 1.003.047.096.004.19.01.286.016.025.001.053 0 .056.04.02.169.041.338.064.514-.118.004-.225-.01-.332-.016-.322-.014-.644-.03-.966-.047a68.01 68.01 0 0 0-1.091-.044c-.362-.013-.724-.02-1.085-.03a53.911 53.911 0 0 0-1.739-.013 67.336 67.336 0 0 0-2.088.05 88.205 88.205 0 0 0-1.824.088c-.091.005-.183.015-.281.014l.045-.386Zm.054-.431.03-.247c.007-.001.013-.005.014-.003.115.113.239.06.352.009.061-.029.102-.04.163-.003.063.038.142.037.214.03a.668.668 0 0 0 .344-.125c.03-.023.048-.054.075-.08a.453.453 0 0 1 .212-.136.164.164 0 0 1 .162.039l.092.085a.25.25 0 0 0 .136.067c.036.004.075.009.097-.032.019-.032.037-.018.06-.003.05.034.105.068.17.056a.433.433 0 0 0 .236-.101c.047-.046.047-.046.087.005.13.176.143.172.355.164a.39.39 0 0 0 .212-.072c.076-.052.15-.11.244-.13.021-.003.031-.021.048-.032.042-.028.066-.03.104.005a.17.17 0 0 0 .143.041.651.651 0 0 0 .491-.293c.027-.04.047-.081.106-.058.005.002.01.002.015 0 .08-.043.131.014.176.06.141.147.506.15.646 0 .014-.015.033-.022.047-.036.029-.031.058-.052.1-.026.006.004.016.004.023.002.062-.021.088.018.117.063a.646.646 0 0 0 .487.288c.053.007.108 0 .148-.045.029-.032.064-.029.092-.005.035.03.077.04.117.056a.58.58 0 0 1 .163.097c.099.08.214.085.331.09.099.005.161-.043.215-.114.01-.01.018-.023.027-.035.05-.067.046-.06.116-.012.116.079.26.138.396.029.022-.018.04-.021.054.005.022.04.06.037.096.033a.248.248 0 0 0 .136-.066c.03-.026.058-.052.086-.08.053-.05.112-.062.182-.04a.482.482 0 0 1 .224.157.4.4 0 0 0 .196.129c.085.024.165.056.255.05.074-.005.147-.01.21-.055.022-.017.042-.015.065.003.084.06.183.074.284.081.024.001.033.008.036.032l.025.203c-.07.01-.136 0-.201-.003-.279-.013-.557-.028-.834-.043a67.956 67.956 0 0 0-1.063-.045c-.324-.012-.65-.02-.974-.03a49.836 49.836 0 0 0-2.031-.02c-.44.003-.88.015-1.32.026-.328.009-.654.019-.982.032-.375.016-.75.037-1.126.055l-.63.032c-.055.003-.057.001-.051-.054Zm2.947-.454c-.126.088-.297.086-.401-.035a.266.266 0 0 0 .129-.09l.103-.14c.037.1.102.158.17.214.023.019.023.034-.002.051Zm-2.887-.057c.01-.038.013-.076.018-.114a.203.203 0 0 1 .19.055c.043.043.095.05.147.022.062-.033.127-.065.157-.136.01-.029.032-.04.063-.031l.029.006c.096.015.166-.02.21-.107a.471.471 0 0 0 .05-.16.247.247 0 0 1 .115-.178.526.526 0 0 0 .07-.054.168.168 0 0 1 .103-.05c.068-.003.136-.02.204-.003.065.016.124.023.168-.045.013-.021.036-.021.058-.009a.447.447 0 0 0 .066.032c.062.023.122.021.172-.024a.564.564 0 0 0 .152-.183.52.52 0 0 1 .283-.263c.029-.012.058-.01.086-.01.036-.002.058-.017.072-.05a.694.694 0 0 1 .228-.283c.089-.07.196-.122.32-.084.03.008.051.002.07-.021a.302.302 0 0 1 .255-.106c.042 0 .08-.018.123-.01a.42.42 0 0 1 .22.107c.046.04.09.085.123.137.02.03.042.04.08.03.049-.014.1-.02.151-.004a.203.203 0 0 1 .117.07c.021.03.044.05.083.052.04.002.06.026.073.062.022.065.046.127.001.195a.181.181 0 0 0-.028.14c.012.051.047.066.092.039.054-.035.066-.032.097.02a.19.19 0 0 1 .017.175.652.652 0 0 1-.159.26.3.3 0 0 1-.238.091c-.056-.006-.083.01-.109.058a.553.553 0 0 1-.36.28c-.043.012-.085.008-.13.01-.02.002-.036-.01-.05-.026-.008-.011-.017-.023-.028-.033-.039-.037-.056-.04-.101-.007a.404.404 0 0 1-.137.068.218.218 0 0 1-.238-.07.379.379 0 0 1-.078-.132c-.016-.045-.025-.09.001-.138a.195.195 0 0 0 .014-.144.25.25 0 0 1 .032-.19.529.529 0 0 1 .233-.234c.023-.012.035-.015.057-.003.064.036.066.034.109-.02.068-.081.253-.104.338-.042.022.016.02.037.017.059-.009.054.013.086.064.107.049.02.07.111.044.176a.457.457 0 0 1-.16.196c-.066.05-.136.051-.207.024a.12.12 0 0 1-.082-.126c.004-.04.016-.047.05-.023.027.017.053.048.084.017.027-.027.016-.064.001-.096-.023-.05-.057-.068-.113-.06-.08.009-.128.066-.135.146-.008.104.075.25.195.267.057.009.112.027.172.01a.226.226 0 0 0 .1-.057c.054-.054.103-.11.148-.172a.318.318 0 0 0 .014-.344.755.755 0 0 1-.078-.148c-.032-.085-.112-.116-.198-.132-.075-.014-.15.005-.224.015-.025.005-.04.027-.06.042-.022.018-.043.037-.075.04a.459.459 0 0 0-.324.206c-.028.04-.053.082-.078.123a.217.217 0 0 0-.032.112c.002.025 0 .051 0 .086-.057-.047-.1-.094-.152-.13-.096-.061-.257-.04-.324.055-.029.042-.037.09-.05.136-.006.028.022.061.05.065.029.003.052-.01.061-.04.007-.02.011-.042.019-.062.018-.049.056-.07.108-.07a.23.23 0 0 1 .207.32.662.662 0 0 1-.074.136c-.046.062-.107.095-.184.08-.057-.014-.094-.004-.134.049-.052.072-.138.087-.224.084-.031-.002-.05-.028-.07-.047-.053-.045-.083-.048-.137-.01-.082.057-.097.057-.167-.023a.332.332 0 0 0-.196-.118c-.106-.017-.21-.015-.29.076-.032.036-.07.068-.104.104a.412.412 0 0 1-.26.135c-.047.006-.092.012-.139.015a.222.222 0 0 1-.164-.05c-.052-.046-.099-.035-.144 0a.39.39 0 0 1-.114.066c-.07.024-.122-.002-.176-.04-.053-.037-.07-.082-.056-.144Zm.118-.489a.46.46 0 0 0 .16-.37.84.84 0 0 1 .01-.197.25.25 0 0 1 .04-.093c.038-.054.088-.078.152-.06.07.02.139.03.205-.006.022-.01.04 0 .054.013.106.096.22.087.34.035.018-.008.032-.02.055-.012.138.056.247-.002.346-.09a.439.439 0 0 0 .144-.288c.002-.023.004-.044.01-.066.044-.155.163-.203.301-.118.033.021.066.043.103.057.04.016.077.015.118-.009a.65.65 0 0 0 .204-.195c.041-.057.04-.057.108-.039.007.002.014.006.022.007.116.031.146.021.216-.075a.327.327 0 0 1 .07-.074c.046-.033.09-.054.145-.012a.06.06 0 0 0 .094-.02c.022-.039.005-.093-.036-.11a.543.543 0 0 0-.077-.026.223.223 0 0 1-.107-.057.185.185 0 0 0-.126-.05.532.532 0 0 0-.296.065c-.028.016-.059.027-.084.044-.067.043-.126.022-.186-.014a.387.387 0 0 1-.092-.082c-.055-.069-.122-.061-.192-.041a.35.35 0 0 0-.11.059c-.024.018-.045.018-.074.005-.148-.063-.236-.04-.346.077-.043.044-.076.095-.122.136-.098.086-.207.06-.283-.026a.33.33 0 0 1-.042-.06.32.32 0 0 0-.318-.165.908.908 0 0 1-.072.003v.001-.001c-.003-.022.014-.035.025-.05a.735.735 0 0 1 .493-.272c.485-.08.971-.165 1.457-.248.086-.016.17-.041.254-.068.258-.082.414-.265.512-.508.047-.117.093-.236.15-.35a.55.55 0 0 1 .462-.327 2.96 2.96 0 0 1 .277-.014c.308-.002.616-.002.924 0 .094 0 .185.006.278.015a.549.549 0 0 1 .466.342c.057.119.104.242.155.363.088.207.224.372.44.458.15.06.309.09.468.117.457.077.914.153 1.372.233.168.03.309.115.417.25.01.013.025.024.022.043-.012.018-.03.013-.047.016a.31.31 0 0 0-.23.162.272.272 0 0 1-.097.109c-.078.046-.142.04-.217-.015-.056-.041-.09-.102-.139-.15-.028-.027-.055-.055-.09-.072-.076-.039-.153-.052-.231-.007-.042.025-.075.02-.112-.01a.272.272 0 0 0-.085-.044c-.073-.024-.14-.03-.199.04a.345.345 0 0 1-.145.107.15.15 0 0 1-.12-.005c-.077-.037-.147-.087-.233-.105a.623.623 0 0 0-.197-.007.11.11 0 0 0-.066.03.344.344 0 0 1-.18.089c-.034.008-.065.024-.071.064-.004.029 0 .055.022.074.024.02.05.019.076.006.026-.012.047-.04.08-.029a.277.277 0 0 1 .115.077c.017.02.033.042.046.065.032.054.083.065.14.057.028-.005.056-.014.084-.022.06-.015.06-.015.097.035.055.079.119.147.202.198a.135.135 0 0 0 .132.01c.041-.017.076-.044.115-.067a.188.188 0 0 1 .125-.027c.07.01.123.043.143.117a.903.903 0 0 1 .03.142c.022.18.204.355.362.362.036.002.07.005.101-.012.03-.016.053-.006.081.007.114.047.227.057.328-.034.022-.02.044-.027.073-.013.053.03.107.023.163.01.114-.03.182.011.214.124.013.04.013.081.014.123.002.064-.004.127.009.19.01.051.02.101.051.143a.31.31 0 0 1 .06.176c.002.053.014.106.02.16.003.016.012.042-.016.049-.033.008-.053.034-.079.052-.058.041-.097.038-.149-.013-.029-.03-.056-.062-.083-.092a.112.112 0 0 0-.132-.035c-.056.019-.098 0-.126-.053a.27.27 0 0 1-.032-.097c-.019-.141-.108-.228-.215-.308a.498.498 0 0 0-.368-.085.226.226 0 0 1-.165-.039c-.04-.03-.077-.034-.121-.012-.107.052-.113.05-.191-.037a.187.187 0 0 1-.03-.042.714.714 0 0 0-.431-.37c-.022-.007-.04-.014-.054-.035-.053-.087-.123-.163-.19-.24a.439.439 0 0 0-.372-.153c-.046.003-.081-.005-.114-.033a.89.89 0 0 0-.077-.056.18.18 0 0 0-.096-.032c-.083-.001-.166-.004-.25-.003a.29.29 0 0 0-.171.047c-.013-.007-.016-.017-.018-.026-.042-.141-.142-.216-.281-.247-.055-.013-.117-.008-.162-.034-.043-.025-.065-.084-.1-.123-.114-.12-.243-.208-.412-.208a.491.491 0 0 0-.334.106.923.923 0 0 0-.199.212c-.016.026-.04.025-.063.028a.57.57 0 0 0-.258.076.34.34 0 0 0-.145.22c-.088-.057-.183-.053-.279-.048-.029 0-.06.006-.087.001-.089-.014-.159.019-.222.073-.042.037-.087.048-.146.047a.435.435 0 0 0-.371.17c-.061.076-.13.147-.181.23-.014.022-.036.023-.056.03a.718.718 0 0 0-.415.35c-.02.055-.068.087-.11.123-.014.013-.03.017-.047.008-.017-.008-.034-.011-.048-.02-.055-.038-.104-.038-.16.006a.182.182 0 0 1-.145.031.538.538 0 0 0-.467.158.365.365 0 0 0-.11.194.706.706 0 0 1-.036.118c-.029.073-.065.09-.141.07-.047-.013-.088-.004-.12.032-.03.033-.059.067-.09.098-.05.051-.094.059-.148.011-.056-.05-.117-.064-.198-.057.008-.09.002-.174.081-.246Zm-.034-.167c.038-.311.074-.623.119-.934.026-.181.081-.357.141-.53a.1.1 0 0 1 .045-.055.277.277 0 0 1 .265-.02.15.15 0 0 1 .068.055l.083.121a.22.22 0 0 0 .178.1c.09.004.18-.01.245-.088.04-.049.087-.092.132-.137a.601.601 0 0 1 .051-.042c.056-.04.11-.041.169-.002.082.055.103.052.178-.014.093-.082.121-.082.21.003l.065.06a.14.14 0 0 0 .091.042c.127.005.246-.01.345-.105.063-.06.136-.062.205-.023.042.025.044.037.019.074-.012.016-.025.03-.036.046-.037.058-.08.077-.153.058-.165-.042-.134-.042-.227.083-.033.045-.062.093-.107.128-.056.044-.08.044-.132-.002-.123-.11-.388-.096-.468.106-.02.05-.034.101-.048.154a.741.741 0 0 1-.062.18.213.213 0 0 1-.182.116c-.039.003-.075-.003-.104-.04-.027-.036-.042-.035-.078-.008-.033.026-.065.052-.105.066-.075.026-.133.01-.185-.048a.328.328 0 0 1-.072-.166.137.137 0 0 1 .024-.104c.033-.046.048-.05.096-.023.026.015.05.037.08.014.025-.02.02-.054.018-.082-.002-.033-.019-.057-.05-.064a.326.326 0 0 0-.173.02c-.037.011-.056.054-.07.09-.03.07-.04.14-.026.215.003.017.008.033.01.05.005.04-.007.052-.049.053a.19.19 0 0 1-.043-.006c-.155-.05-.222.01-.314.13a.352.352 0 0 0-.066.228.697.697 0 0 1-.022.232.423.423 0 0 1-.049.113c-.037-.003-.018-.026-.016-.044Zm8.637-1.52c.048.126.086.255.12.384.044.17.068.345.083.52.002.014.01.033-.017.03-.074-.085-.162-.113-.27-.073a.139.139 0 0 1-.042.005c-.045 0-.057-.014-.048-.058.012-.062.025-.124.006-.187-.004-.014-.007-.029-.012-.042-.038-.114-.127-.165-.243-.144-.033.007-.052.027-.061.057a.102.102 0 0 0 .016.091c.01.012.025.015.04.01.01-.003.021-.01.032-.015.062-.035.108-.014.126.059.02.086-.039.226-.116.268a.153.153 0 0 1-.12.012.306.306 0 0 1-.12-.069c-.024-.022-.052-.034-.075-.002a.105.105 0 0 1-.093.049.216.216 0 0 1-.13-.04.266.266 0 0 1-.097-.142c-.02-.063-.036-.127-.054-.19-.007-.024-.014-.047-.023-.07-.08-.215-.354-.225-.476-.112-.044.043-.062.043-.113.01a.357.357 0 0 1-.094-.1l-.073-.101c-.024-.036-.054-.053-.1-.04-.036.012-.077.014-.114.027-.033.01-.057.002-.08-.02-.035-.03-.06-.07-.088-.107-.017-.02-.003-.036.013-.049a.178.178 0 0 1 .202-.004l.058.045a.3.3 0 0 0 .237.073c.013-.002.024 0 .037.002a.151.151 0 0 0 .132-.047l.085-.08c.06-.049.093-.049.15-.002.02.016.036.034.055.048.05.039.086.04.139.004.09-.06.134-.058.216.016.056.05.11.103.159.161.078.096.323.122.414-.017l.078-.114c.052-.077.131-.086.213-.091.031-.003.039.022.048.045Zm-4.441.611-.016.015c-.035.032-.052.035-.086-.001a.378.378 0 0 0-.311-.113c-.099.005-.162-.09-.134-.183.05-.165.196-.21.32-.197.07.008.075.007.106-.057a.206.206 0 0 1 .044-.059.714.714 0 0 0 .092-.112.215.215 0 0 1 .103-.078.472.472 0 0 1 .397.002c.044.02.084.047.11.093.019.03.046.056.07.084a.248.248 0 0 1 .06.082c.018.047.04.056.093.049a.318.318 0 0 1 .217.04c.072.043.101.113.122.185.017.056-.06.148-.12.152h-.05a.355.355 0 0 0-.274.1c-.057.05-.06.05-.112 0a.636.636 0 0 0-.115-.09.241.241 0 0 0-.167-.036.092.092 0 0 1-.036 0c-.13-.025-.225.042-.313.124Zm.175.485a.21.21 0 0 1-.057-.13.678.678 0 0 0-.047-.198c-.018-.048-.015-.06.026-.093l.05-.043a.118.118 0 0 1 .108-.03c.039.01.076.012.115.002.043-.013.079.005.115.029.074.05.1.104.055.193-.026.05-.028.113-.035.17a.119.119 0 0 1-.038.083.404.404 0 0 0-.101.168.278.278 0 0 0-.002.173.89.89 0 0 0 .19.326l.023.019c.058.041.057.04.004.083a.45.45 0 0 1-.254.084c-.107-.007-.204-.027-.282-.097-.038-.034-.038-.045.006-.068a.165.165 0 0 0 .054-.047.974.974 0 0 0 .15-.275c.053-.133.008-.25-.08-.35Zm2.256 1.098a.29.29 0 0 1-.284.094.326.326 0 0 1-.12-.052c-.035-.023-.034-.027-.002-.057.014-.012.026-.024.04-.034a.46.46 0 0 0 .128-.175c.038.051.067.094.1.136a.21.21 0 0 0 .138.088Zm2.387.114c.005.03-.01.044-.037.054-.065.023-.119-.006-.174-.033-.014-.008-.026-.021-.04-.031-.051-.039-.094-.052-.15-.003a.224.224 0 0 1-.158.05 1.091 1.091 0 0 1-.225-.034c-.082-.02-.138-.08-.197-.134-.018-.016-.034-.036-.05-.054-.156-.162-.364-.159-.517.007a.373.373 0 0 1-.043.04c-.045.037-.062.038-.108 0-.017-.013-.033-.027-.054-.035-.033-.011-.062-.012-.089.017-.036.04-.078.072-.14.06-.072-.015-.145-.034-.186-.103-.022-.035-.043-.045-.083-.035-.114.03-.192-.023-.246-.12a.364.364 0 0 1-.06-.2c.003-.122.13-.231.248-.21.038.006.07.026.08.066.008.02.014.042.02.063.01.033.034.048.067.04.029-.007.048-.032.042-.06-.015-.081-.036-.166-.13-.205-.111-.045-.21-.02-.3.054-.028.025-.056.054-.088.086-.013-.028-.009-.055-.008-.08a.184.184 0 0 0-.022-.106c-.049-.075-.091-.156-.158-.219a.429.429 0 0 0-.262-.12c-.029-.002-.048-.016-.07-.034a.365.365 0 0 0-.422-.004.158.158 0 0 0-.062.088.231.231 0 0 1-.047.097.322.322 0 0 0 .007.4c.034.044.072.085.108.127.068.08.151.1.25.082.076-.016.144-.04.192-.109a.289.289 0 0 0 .043-.21c-.011-.063-.063-.09-.12-.104-.052-.014-.086.002-.114.044-.003.006-.008.011-.01.019-.014.031-.01.086.008.097.032.02.053-.005.077-.02.036-.026.053-.017.054.026a.115.115 0 0 1-.044.096c-.053.044-.155.06-.215.023a.45.45 0 0 1-.181-.195.183.183 0 0 1-.012-.14c.009-.028.02-.051.054-.064.047-.015.062-.046.053-.096-.006-.038.006-.06.04-.076a.274.274 0 0 1 .325.067c.03.035.044.04.088.013.032-.02.052-.012.083.005a.523.523 0 0 1 .251.301c.008.018.01.036.008.057a.394.394 0 0 0 .019.236c.022.047-.005.096-.026.14-.045.09-.107.166-.216.174a.337.337 0 0 1-.219-.074c-.05-.036-.071-.04-.105.008-.054.077-.126.063-.197.047a.538.538 0 0 1-.368-.278c-.027-.052-.054-.068-.115-.062a.286.286 0 0 1-.231-.088.615.615 0 0 1-.17-.293c-.02-.071.005-.13.054-.18.018-.02.037-.025.054 0 .009.013.022.02.035.024.04.012.06-.002.069-.042a.258.258 0 0 0-.033-.162c-.029-.057-.013-.175.03-.219a.06.06 0 0 1 .038-.02c.044-.002.074-.027.103-.06.055-.064.131-.078.213-.07.01 0 .02.003.028.006.053.022.085-.001.116-.045a.557.557 0 0 1 .21-.189c.06-.03.122-.049.19-.031.026.006.054.003.08.005.084.006.16.03.215.096.028.034.056.04.096.026.048-.016.093-.005.142.01.19.055.296.197.387.356.017.03.031.054.069.055.146.002.242.09.328.194a.255.255 0 0 1 .045.075c.026.076.084.124.137.176.06.057.13.065.204.03l.046-.024c.028-.015.052-.013.07.014.033.055.084.06.136.043.07-.023.14-.004.21-.006a.152.152 0 0 1 .112.047c.005.004.01.01.017.014a.36.36 0 0 1 .194.298c.003.03.02.06.035.089.044.086.115.12.211.105.067-.013.063-.008.102.047a.311.311 0 0 0 .188.128.11.11 0 0 0 .09-.023c.028-.021.054-.047.098-.066.018.085.026.164.033.244Zm.18 1.453c.02.17.042.337.064.511l-.267-.011c-.168-.01-.337-.02-.505-.028-.342-.018-.683-.036-1.025-.052-.212-.009-.426-.014-.638-.022-.383-.015-.767-.023-1.15-.031l-.47-.01c-.062-.001-.062.002-.063.06v5.35c0 .093 0 .093.093.096.424.015.85.026 1.275.045.332.014.664.034.996.054.338.019.678.04 1.016.063.3.02.6.045.9.068.16.014.321.028.483.04.04.002.051.018.056.055.015.138.033.276.05.413l.012.097-.254-.02-.51-.04c-.384-.029-.765-.058-1.149-.084-.294-.02-.59-.035-.884-.051-.33-.018-.66-.036-.99-.05-.241-.01-.484-.015-.724-.024-.3-.011-.598-.014-.896-.014-.036 0-.055-.008-.052-.049.002-.013.001-.029.001-.042v-6.437c0-.106-.014-.091.095-.091.589.001 1.177.012 1.767.033.32.01.64.018.96.031.278.011.557.027.834.04.306.016.611.033.916.047.04.002.055.012.06.053Zm.082.73c.034.02.017.077.023.117.024.175.043.352.066.53l.098.782c.026.212.05.425.077.639l.1.79.075.624.1.805c.027.217.052.435.08.652l.03.257c-.122-.01-.233-.017-.346-.025l-.525-.042-.943-.068c-.205-.014-.41-.025-.614-.035-.313-.018-.624-.037-.937-.052-.195-.01-.39-.016-.586-.023l-.579-.02c-.052-.002-.053-.004-.054-.06-.002-.111 0-.224 0-.337l.001-4.606c0-.11-.017-.095.092-.092.32.006.64.015.96.025.325.01.65.02.975.033.283.011.566.026.848.04l.93.048c.044.002.096-.003.129.018Zm1.938 8.909c-.027-.206-.052-.412-.08-.617l-.11-.858c-.03-.207-.059-.415-.083-.623-.027-.22-.062-.439-.091-.658-.035-.244-.063-.49-.095-.733-.037-.282-.076-.565-.112-.847l-.093-.733c-.043-.318-.086-.637-.127-.956l-.093-.732-.113-.84c-.03-.247-.06-.493-.093-.74-.042-.319-.085-.637-.126-.956l-.094-.732-.111-.84c-.033-.247-.063-.494-.095-.74l-.115-.87c-.028-.21-.049-.42-.088-.63a2.771 2.771 0 0 0-.235-.736c-.164-.335-.44-.532-.796-.613-.306-.071-.618-.12-.925-.184-.215-.045-.434-.07-.648-.117a1.249 1.249 0 0 1-.272-.086c-.16-.076-.258-.197-.266-.38a.266.266 0 0 0-.01-.058 1.717 1.717 0 0 0-.153-.371.743.743 0 0 0-.4-.338 1.342 1.342 0 0 0-.48-.085 252.08 252.08 0 0 0-1.696 0c-.119 0-.238.013-.354.043a.83.83 0 0 0-.423.233.987.987 0 0 0-.181.293c-.042.1-.083.202-.093.313-.017.17-.115.28-.265.35a1.21 1.21 0 0 1-.215.072c-.143.038-.287.052-.432.079-.37.069-.737.145-1.105.215-.463.087-.786.339-.957.782a3.508 3.508 0 0 0-.203.829c-.026.205-.052.411-.08.616l-.112.856-.078.607-.11.841-.095.732c-.045.355-.094.71-.14 1.065-.037.283-.072.566-.11.849-.04.318-.083.637-.125.956l-.108.848-.128.956c-.036.282-.07.565-.107.848l-.113.84c-.03.245-.061.489-.093.734-.038.287-.077.574-.114.862-.033.24-.066.478-.096.719-.017.15-.045.299-.053.45.018.071.02.142.015.215-.007.064.036.102.089.081a.511.511 0 0 1 .176-.033c.03-.002.06-.01.08-.033.038-.042.083-.046.134-.032.028.008.065.02.084-.004.047-.058.108-.045.168-.052.041-.005.083.014.122-.003.144-.016.285-.044.428-.055.154-.01.31-.017.462-.001.303.032.591.123.866.256.385.186.72.44 1.037.722.241.218.48.44.72.66.213.197.457.347.73.452a4.92 4.92 0 0 0 1.6.29c.13.002.263-.008.394-.019.337-.025.669-.083.992-.18.323-.097.63-.227.89-.45.067-.06.136-.118.203-.179.237-.215.466-.44.709-.648.288-.249.591-.473.935-.64.282-.138.574-.234.887-.264.27-.025.541 0 .81.048.322.053.637.14.948.245.015.004.03.019.05.003a14.48 14.48 0 0 1-.039-.294ZM36.137 57.15v.002-.001Z" clip-rule="evenodd"/><path fill="#263E6A" fill-rule="evenodd" d="M31.62 74.043c-.145-.112-.277-.24-.41-.364a13.298 13.298 0 0 1-3.265-4.779 13.063 13.063 0 0 1-.816-3.072 13.712 13.712 0 0 1-.114-2.508 13.456 13.456 0 0 1 .424-2.762 13.22 13.22 0 0 1 2.755-5.249 13.366 13.366 0 0 1 4.982-3.634 13.174 13.174 0 0 1 5.013-1.027 13.241 13.241 0 0 1 4.122.609 13.282 13.282 0 0 1 5.26 3.131 13.29 13.29 0 0 1 1.904 2.307 13.198 13.198 0 0 1 2.11 6.137c.057.681.063 1.363.017 2.044a13.507 13.507 0 0 1-.27 1.914 13.119 13.119 0 0 1-1.38 3.653 13.285 13.285 0 0 1-3.141 3.777c-.015.011-.028.026-.048.032-.044-.002-.033-.034-.027-.057.032-.125.072-.247.119-.367.02-.055.08-.085.11-.134.135-.148.288-.278.432-.417a13.218 13.218 0 0 0 1.532-1.793 12.774 12.774 0 0 0 1.48-2.719 13 13 0 0 0 .906-5.274 13.577 13.577 0 0 0-.258-2.16 12.866 12.866 0 0 0-.619-2.092 13.22 13.22 0 0 0-.966-1.966 13.262 13.262 0 0 0-1.114-1.582 13.036 13.036 0 0 0-2.644-2.428 12.9 12.9 0 0 0-5.651-2.19 14.287 14.287 0 0 0-.824-.084 8.921 8.921 0 0 0-.812-.028c-.264.003-.528 0-.793.013-.473.026-.944.074-1.412.15a12.79 12.79 0 0 0-3.15.932c-.925.409-1.794.916-2.6 1.53-.367.28-.719.578-1.058.893a13.237 13.237 0 0 0-2.33 2.918c-.265.452-.5.92-.709 1.4a12.56 12.56 0 0 0-.556 1.545c-.17.59-.3 1.19-.383 1.8-.041.295-.068.591-.097.887-.009.09-.01.181-.014.271-.012.31-.029.621-.018.93.021.514.056 1.025.126 1.534a12.823 12.823 0 0 0 1.374 4.265c.222.415.46.818.723 1.208.297.44.622.86.97 1.26.26.3.536.584.819.862.03.03.063.06.09.096a.7.7 0 0 1 .176.297c.012.042.031.082.018.127-.008.027.008.045.023.066.023.033.032.068-.006.098Z" clip-rule="evenodd"/><path fill="#263E6A" fill-rule="evenodd" d="m46.32 71.69.054-.047a9.78 9.78 0 0 0 3.591-6.072 9.88 9.88 0 0 0 .118-2.12 9.642 9.642 0 0 0-.726-3.224 9.692 9.692 0 0 0-1.967-3.018 9.75 9.75 0 0 0-7.473-3.018 9.663 9.663 0 0 0-3.422.766 9.668 9.668 0 0 0-2.856 1.86 9.72 9.72 0 0 0-3.045 6.07 9.663 9.663 0 0 0-.03 1.832 9.705 9.705 0 0 0 2.373 5.663l.236.27c.064.087.147.155.222.23.042.041.062.075.004.116.021.016.041.012.06.011a.095.095 0 0 1 .02-.002c.04-.007.06.022.085.045.025.024.046.055.08.07h-.001c.004.006.008.012.017.014h-.002a.02.02 0 0 0 .017.014c0 .009.006.013.015.014l-.001-.001c.044.04.078.09.132.12v-.001c.002.008.006.014.016.015l-.002-.001c.028.026.052.057.088.075.003.007.007.012.017.014h-.002c.003.007.007.014.017.014l-.002-.001c.015.02.035.034.057.047a.03.03 0 0 0 .016.015v-.002c.002.008.007.014.016.015l-.001-.002c.022.023.043.048.073.062v-.001c.003.008.007.014.015.014.023.021.041.048.075.058h-.001c.015.02.035.035.057.047v-.001c.004.006.007.013.017.013.008.03-.004.047-.034.047h-.122a9.954 9.954 0 0 1-2.494-2.96 9.922 9.922 0 0 1-1.222-5.188 9.833 9.833 0 0 1 1.012-3.985 9.862 9.862 0 0 1 1.875-2.618 9.91 9.91 0 0 1 4.882-2.683 9.991 9.991 0 0 1 2.908-.203 9.6 9.6 0 0 1 2.767.62c2.141.832 3.807 2.236 4.994 4.203a9.641 9.641 0 0 1 1.194 3.088c.144.71.211 1.428.197 2.151a9.808 9.808 0 0 1-1.031 4.239 9.89 9.89 0 0 1-2.646 3.299c-.019.016-.043.027-.053.05-.062-.009-.127.001-.184-.032ZM48.903 73.718l.02.02c-.006.014-.019.03-.029.022-.015-.012-.005-.03.009-.042ZM49.872 68.688l-.071-.06c.013-.003.026-.003.031-.018a.217.217 0 0 1 .06.06.122.122 0 0 1-.02.018ZM50.406 67.824c-.005.012-.015.017-.026.008-.01-.01-.001-.02.005-.028l.02.02ZM29.77 58.957c.01.003.012.01.002.013-.009.004-.018 0-.021-.011l.02-.002Z" clip-rule="evenodd"/><path fill="#263E6A" fill-rule="evenodd" d="M33.493 70.633c.041.053.061.11.034.176-.006.015-.003.035-.002.05.003.057.046.08.09.046.036-.029.07-.032.114-.027.044.006.091.006.12-.042.028-.042.07-.04.113-.033a.16.16 0 0 1 .055.018c.028.013.049.007.058-.022.016-.04.047-.044.083-.044.07-.001.136.005.203.017-.111.025-.222.05-.333.078-.169.04-.333.095-.5.142-.013.026-.043.015-.061.029-.043-.012-.035-.043-.023-.07.011-.027.014-.056.02-.085 0-.079.012-.156.03-.233Z" clip-rule="evenodd"/><path fill="#263E6A" fill-rule="evenodd" d="M33.465 70.866c0 .03.003.058-.008.088-.008.021-.013.046.01.067a.074.074 0 0 1-.011.009c-.026-.021-.07.024-.085-.016-.014-.038.039-.035.051-.06l.008-.014c-.077-.079-.152-.158-.23-.233-.017-.018-.03-.03-.027-.055.078.066.141.145.214.216.017.015.03.037.043.056.03-.02.019-.046.035-.058Z" clip-rule="evenodd"/><path fill="#263E6A" fill-rule="evenodd" d="M33.467 71.02c.016-.019.04-.017.062-.028.024.056.085.08.115.13-.045 0-.063-.04-.09-.066-.025-.025-.052-.04-.087-.035ZM33.821 71.283c-.064-.017-.1-.068-.132-.12.05.034.093.074.132.12ZM33.923 71.371c-.046-.006-.07-.038-.088-.075a.28.28 0 0 1 .088.075ZM34.203 71.604c-.042.002-.059-.027-.074-.058a.19.19 0 0 1 .075.058ZM34.114 71.533c-.04-.003-.06-.028-.073-.062a.218.218 0 0 1 .073.062Z" clip-rule="evenodd"/><path fill="#263E6A" fill-rule="evenodd" d="M34.26 71.65c-.031 0-.049-.017-.057-.047a.13.13 0 0 1 .057.048ZM34.01 71.445c-.031-.001-.049-.018-.056-.047.022.01.041.026.056.047ZM34.113 71.532c.004.008.008.014.016.014-.001-.008-.007-.013-.016-.014Z" clip-rule="evenodd"/><path fill="#263E6A" fill-rule="evenodd" d="M34.277 71.663a.02.02 0 0 1-.018-.013c.01 0 .016.005.018.013ZM34.042 71.473a.019.019 0 0 1-.017-.015c.008.002.015.006.017.015Z" clip-rule="evenodd"/><path fill="#263E6A" fill-rule="evenodd" d="M34.026 71.46a.022.022 0 0 1-.016-.015c.009.001.015.006.016.015ZM33.955 71.4c-.01-.002-.015-.006-.017-.016.008.001.014.006.017.015Z" clip-rule="evenodd"/><path fill="#263E6A" fill-rule="evenodd" d="M33.94 71.385c-.01-.002-.015-.005-.017-.014.009 0 .013.005.017.014ZM33.82 71.282c.003.008.007.014.017.015-.002-.01-.008-.014-.017-.015ZM33.674 71.15c.001.009.007.013.016.014-.001-.008-.007-.014-.016-.015Z" clip-rule="evenodd"/><path fill="#263E6A" fill-rule="evenodd" d="M33.658 71.136a.02.02 0 0 0 .017.014c-.002-.009-.007-.014-.017-.014ZM33.66 71.136a.02.02 0 0 1-.017-.015c.01.001.015.007.017.015ZM46.104 72.988c-.003.004-.005.01-.01.011-.012.005-.03.012-.035-.005-.006-.018.012-.02.026-.024l.019.018ZM29.709 65.46c.001.026.004.04.005.056 0 .014 0 .03-.02.032-.017 0-.036.005-.043-.017-.029-.096-.1-.098-.182-.09-.244.028-.49.05-.735.076-.065.008-.123.026-.128.114-.001.023-.014.033-.037.034-.03.001-.03-.02-.032-.038a88.98 88.98 0 0 0-.044-.408c-.004-.033.011-.041.04-.045l.35-.036.59-.062c.062-.006.11-.03.116-.1.002-.028.017-.035.042-.035.03.001.026.024.028.042.012.107.022.214.033.322l.017.156ZM45.6 53.494c.064-.016.115-.04.17-.047a.424.424 0 0 1 .386.152c.04.045.057.101.059.162 0 .025-.003.053.007.081.062-.013.12-.036.18-.046a.387.387 0 0 1 .396.192c.038.07.048.142.027.22a.642.642 0 0 1-.054.127l-.289.52-.034.064c-.03.067-.027.082.026.136a.022.022 0 0 0 .004.005c.02.013.024.027.011.05-.015.026-.031.014-.048.004-.141-.078-.283-.156-.423-.235-.018-.009-.034-.019-.052-.03-.011-.005-.019-.013-.013-.027.005-.015.012-.028.028-.032.004-.001.01 0 .014.002.086.037.126-.017.161-.08l.303-.546a.349.349 0 0 0 .04-.108c.013-.069-.005-.108-.066-.139-.083-.042-.162-.018-.24.013-.016.006-.023.025-.03.04l-.321.576c-.033.057-.05.113.012.163.02.016.017.032.004.05-.016.028-.032.012-.048.003l-.45-.249c-.014-.008-.038-.012-.029-.04.008-.024.024-.034.05-.025.069.023.112-.009.144-.066.106-.193.212-.385.32-.578a.424.424 0 0 0 .028-.067c.03-.095-.014-.166-.11-.184a.318.318 0 0 0-.186.029c-.021.008-.03.025-.039.042l-.324.583c-.032.056-.043.11.017.156.025.02.011.038 0 .056-.014.021-.03.005-.043-.002l-.461-.256c-.017-.009-.04-.014-.03-.042.01-.025.028-.027.053-.022.085.018.112.004.16-.078.071-.125.14-.251.21-.377.053-.096.108-.191.16-.289.036-.07.052-.11-.023-.174-.017-.014-.025-.027-.011-.048.016-.025.03-.019.049-.008l.359.199c.027.014.024.03.01.052l-.064.118ZM42.994 52.56c.046-.025.083-.047.123-.066a.399.399 0 0 1 .347-.005c.133.058.2.177.182.32-.016.117-.05.229-.076.343-.027.117-.054.233-.084.348-.02.076-.023.142.06.181.023.012.023.03.016.05-.007.024-.026.018-.042.014l-.512-.125c-.018-.003-.035-.005-.032-.031.003-.023.013-.035.037-.034.074.002.104-.043.12-.106l.157-.663c.015-.062.016-.124-.04-.167-.055-.042-.115-.034-.174-.009-.07.03-.117.07-.135.156-.04.204-.094.405-.144.606-.015.062-.008.111.055.14.026.013.029.032.019.055-.009.024-.027.014-.043.01a99.511 99.511 0 0 0-.52-.124c-.015-.006-.036-.006-.036-.029s.007-.038.037-.041c.097-.01.116-.025.139-.12.104-.421.206-.843.308-1.267l.008-.043c.01-.048-.006-.086-.048-.112-.013-.008-.027-.013-.04-.02-.013-.011-.011-.026-.008-.04.004-.02.017-.022.034-.018l.12.029c.098.023.195.048.293.069.035.008.041.023.032.056l-.148.612-.005.031ZM51.008 62.34l-.063-.389-.027-.173c-.002-.018-.013-.04.018-.047.02-.003.038-.002.045.023.027.084.092.093.165.083l.528-.083.718-.112.07-.013c.06-.011.1-.042.102-.107l.002-.014c0-.022.01-.037.034-.039.03-.002.029.02.033.039l.044.281c.006.042.01.083.019.124.007.034-.003.047-.038.052-.196.029-.392.06-.586.09-.02.003-.04.005-.063.017.016.023.04.033.06.048a.416.416 0 0 1 .181.35.291.291 0 0 1-.205.29c-.092.033-.19.04-.286.056-.152.025-.304.05-.456.072-.069.01-.114.04-.121.113-.002.028-.014.04-.042.04-.028 0-.028-.023-.03-.042a33.016 33.016 0 0 1-.076-.499c-.003-.017-.024-.043.015-.053.028-.007.04.003.05.027.024.069.078.073.137.064l.413-.064.232-.038a.427.427 0 0 0 .085-.023c.085-.034.11-.108.066-.19a.336.336 0 0 0-.131-.125c-.015-.01-.031-.01-.05-.006-.22.036-.443.071-.664.105-.066.01-.111.033-.116.107-.002.037-.03.039-.063.036ZM29.636 61.262a.853.853 0 0 1-.266-.051c-.26-.084-.52-.17-.78-.253a.79.79 0 0 0-.106-.028c-.074-.016-.105-.002-.148.063a.277.277 0 0 0-.032.058c-.01.028-.028.026-.052.018-.031-.008-.019-.027-.012-.045l.14-.44c.032-.1.064-.2.098-.299.007-.018.001-.053.044-.041.042.012.028.039.022.063-.01.031-.01.063-.012.094-.005.056.023.093.069.12.035.02.075.036.115.048l.8.26c.091.029.182.054.28.051a.308.308 0 0 0 .291-.187.56.56 0 0 0 .053-.241.355.355 0 0 0-.139-.288.732.732 0 0 0-.233-.12c-.269-.089-.539-.176-.808-.264l-.028-.007c-.122-.032-.182-.006-.243.104-.006.012-.015.025-.02.039-.009.024-.023.026-.045.018-.026-.01-.024-.023-.018-.046l.126-.39.025-.077c.006-.018.014-.03.037-.024.021.005.037.013.034.039-.002.029-.002.058-.003.088 0 .052.025.088.07.11.032.014.064.028.096.039l.74.238c.095.03.188.068.271.124.215.143.285.344.234.592a1.095 1.095 0 0 1-.146.374.515.515 0 0 1-.454.26ZM51.458 58.457l-.425.224-.752.396a.636.636 0 0 0-.111.07.135.135 0 0 0-.047.15c.007.027.018.05.028.076.008.023.032.048-.009.066-.043.019-.044-.02-.054-.04-.05-.09-.096-.181-.144-.272l-.229-.434c-.008-.015-.017-.03-.018-.047 0-.016.018-.02.031-.025.014-.006.023.001.03.013.016.025.032.05.049.072.051.065.097.08.175.055a.668.668 0 0 0 .087-.037l1.166-.615c.008-.004.016-.01.03-.02a.61.61 0 0 0-.194-.231.404.404 0 0 0-.312-.039l-.056.017c-.06.021-.059.02-.08-.048l.454-.237.715 1.36c-.008.023-.029.028-.045.036a34.19 34.19 0 0 1-.368.197c-.02.01-.038.022-.054-.008-.014-.026-.015-.043.01-.061a.553.553 0 0 0 .127-.123.354.354 0 0 0 .062-.338.85.85 0 0 0-.066-.157ZM42.183 52.239c-.05.01-.071-.01-.086-.051a1.003 1.003 0 0 0-.201-.346.5.5 0 0 0-.355-.17.376.376 0 0 0-.366.209c-.061.11-.098.228-.12.352-.033.17-.045.344-.032.517.007.096.029.188.07.276a.417.417 0 0 0 .368.252.668.668 0 0 0 .437-.116c.055-.037.106-.08.158-.121.03-.025.036-.02.075.02.025.025.01.037-.008.053-.14.128-.29.241-.484.273-.468.077-.937-.178-1.042-.623-.086-.366-.02-.706.273-.965.282-.248.609-.276.953-.143.057.022.111.05.167.074.076.032.107.022.155-.048a.255.255 0 0 0 .01-.02c.012-.027.036-.018.057-.016.027.003.018.024.017.04-.014.185-.031.37-.046.553ZM28.602 64.393c-.032-.04-.06-.072-.086-.103a.413.413 0 0 1-.09-.39c.03-.13.114-.198.255-.216.06-.008.12-.014.182-.014l.5-.003c.024 0 .048 0 .073-.003.06-.005.103-.029.11-.094.005-.028.017-.039.045-.037.03.003.024.025.025.044l.007.52c0 .016.006.037-.02.038-.02.002-.04.004-.046-.023-.018-.083-.078-.095-.15-.093-.218.006-.436.01-.653.014-.01 0-.02 0-.029.002-.128.013-.179.12-.11.228.025.039.06.07.097.098.014.01.03.015.047.014.228-.005.456-.002.682-.012.063-.003.104-.023.117-.087.005-.027.02-.036.045-.033.03.002.026.025.026.043l.007.535c0 .016.004.036-.021.04-.023 0-.042-.002-.045-.026-.018-.094-.084-.108-.165-.107-.242.006-.484.008-.726.012a.522.522 0 0 0-.057.003.104.104 0 0 0-.098.087l-.004.021c-.002.029-.02.03-.042.029-.023 0-.026-.017-.026-.035l-.001-.103-.003-.285c-.002-.063-.002-.064.064-.064h.09ZM52.154 63.58c.015.034.039.042.057.059.126.112.17.253.14.417a.267.267 0 0 1-.218.228.828.828 0 0 1-.175.018l-.578.014c-.02 0-.039.004-.059.005-.05.005-.08.033-.091.082a.058.058 0 0 0-.005.02c-.002.024-.017.027-.036.027-.025 0-.027-.016-.027-.034-.004-.115-.008-.23-.01-.344a4.512 4.512 0 0 1-.004-.184c0-.016-.005-.036.02-.04.022-.001.038 0 .044.027.016.075.071.09.14.088.219-.008.44-.013.659-.02a.31.31 0 0 0 .065-.01c.096-.023.133-.098.095-.191a.335.335 0 0 0-.127-.137c-.017-.01-.034-.007-.051-.007l-.644.02c-.016 0-.03.003-.045.003-.048.001-.077.027-.09.072l-.008.028c-.005.023-.024.02-.042.02-.02 0-.022-.014-.023-.03 0-.03-.003-.058-.004-.089-.002-.141-.001-.283-.01-.424-.003-.023-.025-.063.02-.074.045-.01.044.026.053.054.019.057.064.076.12.076.085 0 .17-.003.257-.006.175-.004.351-.011.527-.014.075-.002.13-.025.14-.108.003-.029.02-.036.046-.032.026.003.019.024.02.04l.01.396c.001.048 0 .049-.047.05-.038.002-.074 0-.119 0ZM29.77 58.957c-.012-.037-.026-.073-.036-.11a.413.413 0 0 1 .093-.397.268.268 0 0 1 .285-.088.706.706 0 0 1 .15.057c.177.09.354.177.531.266l.046.021c.066.027.087.024.136-.029.02-.02.034-.032.061-.013.027.021.003.04-.006.057a58.05 58.05 0 0 1-.175.354l-.052.104c-.008.016-.015.034-.038.024-.018-.008-.035-.02-.029-.044.023-.083-.028-.119-.092-.15l-.55-.275a.514.514 0 0 0-.075-.03c-.112-.036-.204.038-.19.156a.457.457 0 0 0 .04.125c.011.024.03.037.052.048.196.097.39.192.583.293.062.03.116.037.162-.026.016-.022.032-.012.05-.003.022.011.014.027.005.043l-.245.491c-.006.014-.015.026-.033.02-.015-.006-.033-.012-.03-.034l.002-.015c.01-.096 0-.115-.089-.16l-.431-.217-.25-.124c-.08-.04-.124-.03-.167.03-.016.024-.03.025-.054.01-.023-.013-.012-.03-.004-.042.064-.13.129-.258.195-.386 0-.005.006-.007.012-.012l.123.058c.008.002.015.008.02-.002ZM39.47 51.56a.43.43 0 0 1 .24.063.2.2 0 0 1 .099.199.137.137 0 0 1-.098.124c-.063.023-.122.016-.17-.032-.043-.041-.05-.092-.03-.148.01-.023.022-.044.028-.068.008-.028-.001-.047-.032-.054a.121.121 0 0 0-.15.084c-.009.036-.006.073-.003.11l.027.291c.005.044.01.047.057.042.043-.003.088-.006.131-.012.04-.006.045.02.045.048.001.028.013.06-.035.062-.047.001-.093.01-.139.012-.03.001-.045.008-.041.043l.072.774.005.022c.022.112.039.127.153.136h.03c.021 0 .04.003.041.03.002.027-.016.032-.037.035l-.116.01-.504.047c-.007 0-.015 0-.022.002-.017.001-.03-.004-.032-.022-.005-.017-.005-.036.019-.04.113-.02.117-.1.109-.189l-.053-.569c-.007-.069-.016-.136-.02-.205-.001-.025-.01-.034-.036-.032l-.072.007c-.018.002-.038.006-.043-.017-.004-.028-.014-.057-.002-.085.006-.012.023-.005.035-.01.033-.01.082.012.1-.025.011-.029-.003-.067-.007-.101a.68.68 0 0 1 .02-.24.363.363 0 0 1 .254-.262.563.563 0 0 1 .176-.03ZM49.872 68.688a.2.2 0 0 1-.028.22c-.047.06-.109.069-.174.03-.025-.016-.049-.04-.079-.014-.026.023-.028.055-.018.088.01.04.03.077.055.11.04.053.084.103.123.156.02.025.044.034.074.038.313.038.626.078.939.114.058.007.116.006.176.008.037 0 .073-.003.097-.037.017-.022.034-.013.052-.003.023.013.01.03.002.043-.092.164-.183.329-.276.493-.008.016-.014.037-.042.025-.03-.013-.026-.03-.014-.053l.005-.014c.028-.079.012-.107-.07-.118-.187-.025-.374-.047-.558-.07-.014.015-.003.024.004.032l.304.357c.013.014.027.03.042.042.063.058.098.055.15-.012l.013-.018c.01-.019.023-.02.042-.01.017.01.023.021.012.042-.054.095-.108.191-.16.287-.009.013-.016.026-.035.015-.014-.008-.036-.014-.027-.036.032-.082-.02-.135-.066-.19l-.682-.805a2.863 2.863 0 0 1-.217-.295c-.086-.132-.07-.258.014-.383.067-.102.152-.132.27-.102.034.01.064.024.072.06ZM36.51 53.508v-.524a.199.199 0 0 0-.005-.043c-.013-.068-.04-.086-.108-.074-.015.002-.028.008-.042.012-.02.003-.025-.01-.03-.025-.007-.017-.005-.027.013-.034l.314-.121c.013-.005.024-.008.03.008.007.014.023.032.003.044-.084.05-.076.131-.075.21.002.334.005.67.009 1.004.002.137-.004.273-.026.409a.333.333 0 0 1-.327.289.198.198 0 0 1-.21-.165c-.011-.069.02-.119.076-.154.058-.038.12-.054.186-.015a.118.118 0 0 1 .05.077c.006.028.014.055.048.056.029.002.05-.018.064-.042a.268.268 0 0 0 .037-.132c.003-.069.001-.138.003-.206a.086.086 0 0 0-.025-.065c-.245-.257-.476-.525-.732-.771-.045-.044-.087-.096-.163-.08-.018.003-.021-.017-.026-.03-.01-.025.01-.028.026-.035l.294-.113.218-.082.028-.01c.016-.007.027 0 .034.016.007.014.01.027-.007.038l-.013.006c-.11.052-.083.097-.026.16.115.12.228.243.341.364.011.012.017.03.041.028ZM29.924 65.73a.367.367 0 0 1 .352.195c.071.127.099.26.062.402-.03.114-.114.181-.22.18a.14.14 0 0 1-.136-.094c-.025-.063-.011-.138.03-.177.033-.032.073-.038.117-.032.018.004.037.01.055.016.074.024.094.009.086-.069-.007-.064-.038-.095-.103-.103a.305.305 0 0 0-.102.006c-.4.07-.802.14-1.205.212-.083.015-.142.038-.132.155.003.024-.004.036-.03.039-.029.003-.029-.017-.032-.038a31.336 31.336 0 0 0-.075-.418c-.008-.037.003-.05.04-.058.113-.017.226-.04.339-.06l.816-.14c.045-.008.09-.01.138-.016ZM52.72 66.13l-.075.414c-.007.031-.026.03-.05.025l-.475-.089c-.32-.06-.641-.121-.963-.18-.02-.004-.039-.004-.058-.007-.047-.006-.08.012-.104.052a.649.649 0 0 1-.015.026c-.011.023-.028.02-.05.014-.024-.007-.016-.026-.013-.041l.064-.353.035-.18c.003-.014.005-.03.026-.027.014.002.03.003.038.018l.003.015c.006.095.073.114.15.13.408.074.815.15 1.222.227.018.002.034.003.052.008.064.016.115 0 .144-.064l.005-.006c.008-.025.027-.022.047-.019.026.006.018.024.017.036ZM50.416 56.616c-.014.026-.037.036-.057.05l-1.118.855c-.02.014-.038.03-.056.046-.039.033-.057.073-.036.124.005.009.005.019.01.027.01.026-.011.035-.026.046-.017.012-.027-.004-.035-.015a68.44 68.44 0 0 1-.333-.436c-.006-.01-.02-.019-.006-.03.01-.014.021-.028.041-.026.005 0 .01.004.013.008.072.062.134.026.195-.022a795.164 795.164 0 0 1 1.053-.806c.037-.031.052-.07.033-.117l-.01-.028c-.009-.026.012-.035.028-.044.017-.012.025.002.035.014l.269.354ZM32.733 55.146c.005-.072.008-.132.014-.191a.29.29 0 0 1 .124-.215.192.192 0 0 1 .278.047c.04.056.053.116.016.178-.034.061-.092.086-.16.082-.032-.003-.063-.01-.094-.013-.046-.005-.062.005-.079.047a.193.193 0 0 0-.003.122c.015.05.044.093.078.131l.31.362a.38.38 0 0 0 .03.031c.076.077.103.08.198.027l.026-.015c.022-.013.03.006.04.018.014.015.007.026-.006.037l-.157.133c-.101.088-.203.175-.306.261-.012.011-.023.036-.047.014-.024-.02-.02-.037-.003-.061.045-.068.046-.089-.01-.157-.129-.156-.26-.31-.392-.464-.04-.047-.078-.094-.12-.138-.058-.063-.08-.067-.16-.032-.017.008-.03.017-.046 0-.014-.016-.025-.03-.003-.05.115-.096.23-.195.346-.295l.126.14ZM35.847 54.096a.373.373 0 0 1-.308.378.224.224 0 0 1-.245-.093.724.724 0 0 1-.064-.115l-.315-.63c-.028-.054-.028-.053-.08-.028-.005.003-.011.007-.019.01-.017.006-.034.026-.052.006-.016-.018-.03-.04-.019-.067l.021-.054a1.99 1.99 0 0 0 .133-.524c.007-.024.03-.032.05-.036.018-.003.022.017.028.029.053.104.107.209.157.314.015.03.028.035.056.02.045-.025.09-.046.137-.07.045-.022.046-.02.069.025.004.01.007.019.013.027.013.02.006.03-.014.04l-.15.074c-.029.014-.04.026-.023.062.111.217.219.436.33.654.009.021.025.042.041.06.054.055.127.041.162-.028.015-.029.016-.06.02-.092.004-.026.009-.048.044-.045.036.003.025.03.028.049v.034ZM51.29 60.494c.46-.005.687.3.673.621a.405.405 0 0 1-.035.15.225.225 0 0 1-.136.125.164.164 0 0 1-.22-.122c-.017-.075.01-.136.081-.168.036-.017.075-.022.113-.033.1-.028.126-.117.06-.197a.165.165 0 0 0-.121-.063.854.854 0 0 0-.67.216c-.177.163-.147.384.059.508a.155.155 0 0 0 .02.01c.021.011.027.025.014.048-.011.021-.023.022-.045.014a.574.574 0 0 1-.383-.533.54.54 0 0 1 .2-.415.66.66 0 0 1 .39-.161ZM47.29 55.615c-.017-.286.245-.598.55-.65.23-.04.412.043.562.211a.427.427 0 0 1 .101.216.222.222 0 0 1-.056.197.164.164 0 0 1-.23.014c-.064-.055-.074-.126-.03-.197.023-.038.059-.065.086-.1.047-.061.038-.117-.027-.163a.155.155 0 0 0-.145-.021.48.48 0 0 0-.157.09.871.871 0 0 0-.323.476c-.042.186.057.345.237.384.038.008.077.004.116.003.024-.001.036.006.037.032 0 .02-.007.028-.028.034a.553.553 0 0 1-.694-.526ZM33.727 54.94c-.224.004-.363-.102-.4-.296a.337.337 0 0 1 .075-.287.532.532 0 0 1 .22-.154l.116-.044c.034-.013.063-.032.06-.074-.003-.026.016-.035.033-.04.018-.008.024.012.032.023l.169.24c.008.012.026.026.003.043-.017.014-.033.028-.057.009a.428.428 0 0 0-.115-.064c-.099-.036-.197-.038-.287.025-.068.048-.093.109-.072.176.019.065.07.099.151.104.075.004.147-.014.22-.025.068-.01.138-.02.21-.024.199-.009.349.152.364.346a.371.371 0 0 1-.154.338.774.774 0 0 1-.271.124c-.076.022-.076.022-.083.102-.003.024-.014.037-.033.044-.022.01-.03-.01-.039-.022-.065-.095-.132-.188-.197-.282-.01-.014-.025-.028-.004-.044.018-.014.035-.036.062-.01.032.032.069.056.107.077a.34.34 0 0 0 .394-.059c.047-.048.067-.103.04-.166a.161.161 0 0 0-.145-.108c-.061-.004-.122.014-.182.021-.078.01-.154.028-.217.027ZM30.526 57.306l.36-.475c.013-.014.022-.036.047-.018.025.016.024.033.007.054-.004.006-.008.012-.01.018-.036.068-.025.097.049.119.127.037.255.07.382.105.052.013.102.027.153.042.005-.02-.003-.03-.01-.04l-.222-.379a.339.339 0 0 0-.064-.08c-.041-.037-.066-.037-.108 0a.761.761 0 0 0-.036.037c-.016.017-.03.008-.044-.003-.015-.012-.014-.024-.003-.038l.203-.268c.009-.01.017-.02.03-.01.014.01.037.016.026.038-.039.082.005.147.043.212l.503.853.025.044c.013.018.013.034 0 .053-.017.022-.034.026-.058.019l-.332-.09c-.224-.06-.446-.128-.672-.178l-.102-.019c-.035-.006-.068-.006-.095.02-.035.035-.05.005-.072-.016ZM47.236 54.411a.118.118 0 0 0-.038-.078c-.02-.022-.01-.039.006-.056.018-.02.03-.004.044.006l.323.24c.04.03.04.03.008.073l-.374.508-.18.241c-.038.052-.056.104-.003.157.02.021.01.04-.006.056-.016.02-.03.004-.043-.006a88.197 88.197 0 0 1-.43-.317c-.013-.01-.033-.018-.017-.04.012-.017.024-.033.048-.022.083.04.132-.006.177-.068l.436-.59c.023-.03.047-.063.05-.104ZM34.168 53.963c-.02.003-.04.005-.057.011-.029.01-.034-.011-.044-.027-.011-.02.002-.027.015-.034.121-.073.245-.145.366-.217.03-.017.04 0 .05.02l.221.372c.08.137.16.274.243.41.011.02.023.038.035.056.025.04.061.055.106.045.008-.002.015-.002.022-.005.025-.011.034.006.045.024.014.022-.003.03-.017.038l-.46.273c-.016.008-.031.021-.046 0-.01-.017-.022-.032 0-.051.066-.057.047-.12.01-.183-.13-.217-.257-.434-.385-.65-.012-.019-.026-.036-.04-.053a.082.082 0 0 0-.064-.03ZM30.109 57.979l.23-.368c.027-.042.028-.042.074-.014l.633.398c.055.035.111.07.168.104.048.03.095.036.138-.009.014-.013.03-.026.052-.012.015.01.028.02.015.041l-.039.061-.246.392c-.01.016-.016.045-.048.028-.024-.012-.027-.029-.017-.054.024-.06-.002-.104-.05-.139l-.093-.06-.54-.34-.063-.036c-.048-.028-.094-.027-.132.015-.03.03-.052.028-.082-.007Z" clip-rule="evenodd"/><path fill="#263E6A" fill-rule="evenodd" d="M28.76 66.84c.163-.04.318-.08.475-.12l.469-.116c.063-.016.116-.04.113-.12-.002-.026.016-.039.04-.041.025 0 .025.019.03.034.041.171.084.342.128.512.004.018.012.038-.016.048-.021.008-.036.006-.047-.017-.036-.082-.105-.078-.174-.062-.08.018-.157.038-.236.058-.155.04-.312.078-.468.117l-.05.014c-.051.016-.084.048-.087.104l-.003.03c0 .023-.015.026-.032.03-.026.004-.029-.013-.033-.03a95.393 95.393 0 0 0-.084-.333l-.026-.108ZM29.936 57.71a.196.196 0 0 1-.196-.203.2.2 0 0 1 .198-.194c.111 0 .201.094.2.21a.193.193 0 0 1-.202.187ZM34.125 53.632a.198.198 0 0 1-.202-.198c0-.107.088-.198.193-.2a.2.2 0 0 1 .204.196.194.194 0 0 1-.195.202ZM27.92 65.396a.197.197 0 0 1 .206-.194c.107.004.191.09.19.2a.198.198 0 1 1-.396-.006ZM28.424 66.912c.11 0 .198.091.194.204a.196.196 0 0 1-.198.193.2.2 0 1 1 .004-.397ZM28.431 66.216a.197.197 0 0 1-.204.193.196.196 0 0 1-.192-.2c0-.112.086-.197.201-.197.113.002.197.09.195.204ZM47.695 54.324a.194.194 0 0 1-.196-.2.203.203 0 0 1 .198-.196.2.2 0 0 1 .199.201c0 .112-.085.196-.201.195ZM30.66 69.117a.252.252 0 0 1-.056.035l-.53.263c-.029.015-.045.015-.06-.018a.663.663 0 0 1-.072-.251.27.27 0 0 1 .088-.203.64.64 0 0 1 .37-.178c.073-.01.14.011.194.064.047.044.08.098.102.158.019.055.009.094-.036.13Zm-.727.368c-.168.082-.335.166-.505.248-.06.027-.094.014-.133-.039a.315.315 0 0 1-.051-.112c-.012-.054-.013-.107.021-.155a.602.602 0 0 1 .41-.226c.065 0 .116.027.158.07a.711.711 0 0 1 .116.168c.013.023.007.035-.016.046Zm1.15.087-.373-.748a.91.91 0 0 0-.12-.184.72.72 0 0 0-.236-.195.388.388 0 0 0-.345-.016c-.191.081-.268.257-.249.468.004.05.015.099.022.149-.032.002-.038-.02-.05-.034a.573.573 0 0 0-.178-.127.296.296 0 0 0-.2-.027c-.193.044-.305.203-.287.409.012.129.052.249.108.364.114.234.23.468.346.703l.01.02c.008.019.02.025.04.014.016-.009.03-.017.021-.04a.788.788 0 0 1-.017-.054c-.028-.094-.005-.146.079-.196a.38.38 0 0 1 .038-.02l1.066-.526c.02-.01.043-.02.066-.029.062-.022.116-.004.158.044.017.021.033.043.045.067.013.023.029.02.05.01.03-.014.014-.034.005-.052ZM51.385 68.628c-.028.06-.077.085-.15.085a.88.88 0 0 1-.424-.183c-.048-.042-.058-.094-.038-.153a.138.138 0 0 1 .132-.1c.016 0 .033-.002.05.002a.93.93 0 0 1 .386.167c.066.05.078.11.044.182Zm-1.095-.661-.154.373a.448.448 0 0 1-.055.094c-.03.041-.072.059-.122.047a.122.122 0 0 1-.097-.088c-.008-.026-.01-.053-.013-.08a.942.942 0 0 1 .178-.459.235.235 0 0 1 .037-.035c.114-.094.21-.005.236.085.007.023-.002.042-.01.063Zm1.227.346a.374.374 0 0 0-.523-.294.549.549 0 0 0-.147.096c-.01.008-.02.025-.04.008-.005-.003 0-.01 0-.017a.573.573 0 0 0-.049-.235c-.065-.131-.21-.163-.324-.07l-.028.023c-.018.004-.026 0-.02-.02l.003-.051a.187.187 0 0 0-.101-.175c-.07-.036-.133-.015-.191.03a.418.418 0 0 0-.09.095c-.119.165-.194.35-.233.548a.471.471 0 0 0 .058.36c.007.032.026.053.06.058a.303.303 0 0 1 .022.01c.175.1.318.069.436-.099a.903.903 0 0 0 .094-.181c.038-.087.073-.175.118-.26.019-.038.047-.062.093-.055.043.007.07.035.08.075a.17.17 0 0 1-.007.128.844.844 0 0 0-.086.279c-.016.14.01.265.133.35a.38.38 0 0 0 .3.065c.014-.004.03-.022.047 0l-.026.066c-.045.11-.045.11.068.151.005.001.01-.002.017-.004l.017-.038c.057-.132.11-.263.2-.38a.613.613 0 0 0 .119-.463ZM30.107 63.091a.29.29 0 0 1-.07.119.127.127 0 0 1-.156.02c-.06-.032-.086-.082-.08-.141l.04-.343a.77.77 0 0 1 .026-.136c.017-.056.05-.095.113-.1.055-.005.104.026.132.085a.505.505 0 0 1 .037.23c-.007.08-.011.175-.042.266Zm-.986-.12c-.037.011-.076.012-.113.016-.116-.008-.23-.014-.339-.056-.062-.023-.104-.064-.105-.134-.001-.084.047-.14.134-.157.09-.017.18-.004.27.008.059.008.118.022.173.049.066.034.09.076.085.147-.006.066-.044.106-.105.126Zm1.1-.298a.505.505 0 0 0-.083-.24c-.074-.107-.181-.146-.305-.14-.12.007-.195.082-.241.187a.714.714 0 0 0-.031.09c-.025.09-.029.184-.043.275-.008.055-.015.111-.025.167-.006.035-.022.065-.061.073a.097.097 0 0 1-.104-.04.154.154 0 0 1-.034-.122c.015-.102.021-.204.006-.306-.035-.216-.175-.33-.393-.317-.066.003-.12.033-.18.062-.004-.039.001-.072.006-.106.013-.093.007-.099-.086-.101-.027 0-.042.006-.044.034-.002.028-.006.054-.01.081-.012.109-.018.217-.068.32a.61.61 0 0 0-.047.25.566.566 0 0 0 .053.27c.084.17.249.25.433.207a.422.422 0 0 0 .243-.177c.015-.02.022-.048.053-.058l.014.045a.635.635 0 0 0 .095.18c.079.106.266.13.345-.016.008-.015.012-.036.038-.04.006.03.01.056.017.082.021.074.07.122.147.137.068.015.123-.017.165-.07a.472.472 0 0 0 .083-.163c.057-.184.075-.372.057-.564ZM48.589 56.681c-.05.04-.112.022-.166-.004-.087-.042-.108-.13-.049-.208.074-.097.174-.128.292-.104a.503.503 0 0 1 .184.081c-.09.083-.171.164-.261.236Zm.749-.486a.815.815 0 0 0-.333-.397.46.46 0 0 0-.17-.064.249.249 0 0 0-.213.055c-.086.073-.091.176-.013.257a.152.152 0 0 0 .16.048c.06-.017.09-.063.104-.122.002-.009.002-.019.005-.028.012-.059.044-.078.1-.059a.267.267 0 0 1 .127.107c.062.085.062.152-.008.231-.038.044-.084.082-.125.122-.05.046-.05.046-.11.01a2.455 2.455 0 0 0-.393-.195.474.474 0 0 0-.186-.035.28.28 0 0 0-.224.438.438.438 0 0 0 .146.133c.083.049.173.075.27.081.007.023-.003.032-.009.041-.047.081-.032.155.026.223a.352.352 0 0 0 .276.128c.026 0 .041-.006.047-.033.006-.03-.018-.029-.034-.036-.044-.022-.05-.048-.02-.086a.28.28 0 0 1 .04-.042l.25-.227c.074-.07.152-.137.223-.212a.295.295 0 0 0 .064-.338ZM52.223 65.24c-.012.075-.06.113-.13.131-.072.018-.146.017-.228.017a2.718 2.718 0 0 1-.513-.06.534.534 0 0 1-.118-.04.152.152 0 0 1-.092-.147c0-.068.034-.121.1-.15a.316.316 0 0 1 .12-.03 2.76 2.76 0 0 1 .66.061c.041.009.08.024.116.046.064.04.097.095.085.172Zm-.155-.522a.663.663 0 0 0-.727-.039.565.565 0 0 0-.068.934c.126.095.266.14.447.14a.423.423 0 0 0 .142-.017c.223-.062.383-.193.432-.429.053-.243-.02-.449-.226-.59ZM38.47 53.305c-.008.071-.046.122-.118.142a.16.16 0 0 1-.177-.057.284.284 0 0 1-.054-.094 2.52 2.52 0 0 1-.132-.694.288.288 0 0 1 .025-.128.16.16 0 0 1 .276-.032.431.431 0 0 1 .064.13c.059.166.115.463.117.638 0 .032.003.063-.001.095Zm.183-.814a.533.533 0 0 0-.537-.192.538.538 0 0 0-.437.389.676.676 0 0 0 .122.641.53.53 0 0 0 .438.214.545.545 0 0 0 .541-.391.67.67 0 0 0-.127-.66ZM51.682 67.458h-.057a2.348 2.348 0 0 1-.71-.196.337.337 0 0 1-.08-.051.162.162 0 0 1 .051-.274.268.268 0 0 1 .139-.015c.228.031.447.094.658.185a.291.291 0 0 1 .093.058c.053.047.08.104.058.176s-.07.109-.152.117Zm.105-.635a.716.716 0 0 0-.517-.219c-.045-.003-.089.006-.132.014-.433.092-.587.61-.323.913a.666.666 0 0 0 .68.227.564.564 0 0 0 .292-.934ZM29.538 67.981c-.091.025-.183.052-.28.046-.07-.004-.117-.04-.134-.104-.018-.06 0-.111.057-.152.082-.058.177-.09.277-.127l.103.3c.008.02-.003.032-.023.037Zm.691-.427c-.078-.214-.245-.312-.453-.36-.026.062-.026.062.026.087.04.02.078.042.113.069.113.09.159.275.027.407a.828.828 0 0 1-.224.151c-.059.028-.06.028-.081-.033l-.165-.486c-.01-.023-.01-.053-.037-.071a.917.917 0 0 0-.24.134.413.413 0 0 0-.1.109c-.189.3.013.705.387.746a.816.816 0 0 0 .584-.173.517.517 0 0 0 .163-.58ZM51.395 59.893c-.067.05-.147.082-.225.118-.022.01-.037.006-.046-.018l-.101-.258c-.008-.019-.007-.033.014-.04a.994.994 0 0 1 .258-.062c.087-.001.137.031.16.095.023.064.005.117-.06.165Zm-.376-.531a.869.869 0 0 0-.47.168.49.49 0 0 0-.205.31.534.534 0 0 0 .466.644c.035.004.057-.02.045-.052-.005-.017-.02-.02-.033-.024-.046-.02-.09-.04-.13-.07-.133-.099-.156-.267-.051-.392a.75.75 0 0 1 .282-.199l.241.607c.085-.04.157-.08.222-.131a.454.454 0 0 0 .161-.248c.076-.293-.157-.626-.528-.613ZM31.772 56.016c-.027-.052-.029-.102.007-.152.045-.06.106-.079.175-.046.087.041.156.107.227.17.018.016.01.028-.002.043l-.215.226a1.02 1.02 0 0 1-.192-.241Zm.985.092c-.004-.017-.012-.032-.035-.028-.022.005-.039.011-.038.037.002.014 0 .03.002.044a.426.426 0 0 1-.014.13c-.033.141-.165.235-.3.21a.732.732 0 0 1-.333-.181l.45-.476a1.039 1.039 0 0 0-.233-.156.464.464 0 0 0-.51.092.518.518 0 0 0-.09.627c.09.163.22.287.389.366a.522.522 0 0 0 .71-.317.69.69 0 0 0 .002-.348ZM44.56 53.327c-.006.017-.014.025-.032.018-.092-.034-.184-.068-.274-.103-.017-.006-.022-.019-.014-.035.04-.09.077-.18.144-.252.05-.055.117-.063.18-.026.043.026.065.066.065.125a1.138 1.138 0 0 1-.07.273Zm.007-.488a.525.525 0 0 0-.616.196.95.95 0 0 0-.159.412.527.527 0 0 0 .34.563c.203.068.38.013.545-.108.013-.01.03-.02.014-.041-.013-.017-.023-.038-.053-.024-.04.018-.08.038-.121.05-.166.048-.32-.038-.353-.194a.707.707 0 0 1 .036-.361c.061.01.11.035.164.054l.404.15c.046.018.046.016.06-.03.016-.056.025-.113.034-.172a.462.462 0 0 0-.295-.495ZM35.769 58.838c.008.015-.005.036.016.044-.002.011-.007.02-.016.02-.014.002-.014-.009-.012-.018.001-.015-.001-.032.012-.046ZM44.592 58.252c.015-.004.01-.02.017-.03.003.008.01.015.01.023.002.008 0 .023-.004.024-.013.005-.021-.005-.023-.017ZM36.137 57.15c-.002.01.007.001-.002.006-.002.002-.003-.002.002-.004v-.001ZM37.136 73.988a.964.964 0 0 0 .361-.084c.065-.029.08-.083.059-.15-.018-.054-.062-.084-.095-.125-.05-.06-.107-.087-.183-.076-.022.004-.045.003-.064.01-.035.015-.045.055-.027.107a.562.562 0 0 1 .029.119c.002.047-.07.043-.093.08-.002.003-.009.005-.013.007-.028.023-.045.065-.032.09.016.03.045.024.058.022ZM46.941 73.024a.252.252 0 0 0-.11-.157c-.04-.025-.08-.014-.12-.021a.436.436 0 0 0-.186.001c-.144.035-.29.07-.421.14-.019.007-.027.003-.019-.017a.49.49 0 0 1 .166-.147c.092-.055.183-.11.28-.155a.16.16 0 0 0 .074-.067.407.407 0 0 0 .048-.272c-.006-.044-.06-.09-.098-.086-.035.003-.084.005-.103.028-.03.035-.076.066-.083.115-.009.067-.042.118-.075.172-.02.034-.044.056-.088.053a.26.26 0 0 1 .01-.1.89.89 0 0 0 .034-.143c.01-.084-.043-.134-.126-.123l-.08.01c-.079.012-.108.039-.119.119-.01.062-.012.126-.086.154-.01.003-.012.02-.02.029-.008.01-.017.019-.03.009-.028-.02-.069-.018-.092-.044-.02-.023-.043-.018-.067-.013-.057.012-.09.052-.114.102a.455.455 0 0 0-.024.252.134.134 0 0 0 .064.108.45.45 0 0 0 .125.04c.055.012.1-.026.098-.077a.588.588 0 0 1 .044-.225c.01-.026.024-.059.05-.051.031.006.02.042.015.068-.016.07 0 .097.068.114.045.012.054.018.04.065-.014.048-.01.09.022.13-.058.038-.107.08-.17.104a.61.61 0 0 0-.167.103c-.039.03-.045.09-.009.103.06.022.119.055.187.021.045-.021.082-.05.12-.08.096-.068.198-.13.305-.178.062-.026.129-.042.194-.057a.114.114 0 0 1 .086.014c.015.01.026.024.013.043-.068.089-.137.176-.268.168a.392.392 0 0 0-.215.06c-.062.035-.121.069-.191.082-.051.01-.073.048-.06.098.014.072.055.103.13.096.018-.002.038-.009.057-.012.037-.005.07.011.074.04.008.032-.02.042-.039.052-.03.016-.065.025-.092.044-.053.036-.081.068-.018.126.009.008.018.015.026.025.05.051.046.08-.021.107-.102.04-.205.074-.307.108a.944.944 0 0 1-.287.043c-.02.001-.04.005-.049.026-.01.022-.002.044.015.06.024.023.045.05.068.075.07.076.146.096.23.062.127-.052.255-.1.388-.135.031-.009.047-.002.053.027a.306.306 0 0 1-.04.257c-.008.01-.018.018-.03.018-.054 0-.107.013-.16 0-.05-.013-.102-.009-.152-.006-.023 0-.053-.003-.056.032-.004.03.007.053.038.063.08.026.142.082.205.135.037.03.08.046.119.07.02.01.039.006.056-.003.027-.017.06-.032.075-.056.055-.09.127-.171.15-.276.023-.095.069-.18.091-.275.01-.041.044-.053.09-.056.088-.004.178.015.265-.025.043-.02.08-.047.082-.091.002-.055-.005-.117-.07-.143-.053-.022-.103-.05-.16-.065a.178.178 0 0 0-.107-.006c-.038.011-.078.004-.116.016-.017.004-.036 0-.046-.016-.02-.027-.006-.062-.02-.091-.01-.022.01-.03.021-.043a1.54 1.54 0 0 1 .127-.139c.044-.043.084-.091.049-.163-.015-.028.006-.063.045-.07.076-.016.142-.056.217-.076a.284.284 0 0 0 .148-.089c.032-.04.064-.087.05-.138ZM35.23 73.955c-.039-.016-.08-.026-.121-.009-.07.028-.145.027-.218.04-.056.01-.085-.034-.064-.087.021-.052.045-.102.067-.154a.112.112 0 0 1 .071-.066c.02-.004.037-.013.055-.02.116-.05.14-.1.109-.223-.002-.01-.002-.02-.005-.029-.006-.012-.009-.02-.007-.034.008-.045-.022-.077-.042-.112-.016-.025-.043-.03-.073-.015-.03.016-.054.039-.083.057-.027.02-.052.006-.048-.025.008-.053.001-.108.02-.158a.6.6 0 0 0 .034-.17c.002-.03.001-.063-.018-.09-.037-.047-.062-.102-.093-.153-.026-.041-.056-.075-.108-.087a.23.23 0 0 0-.19.043c-.03.022-.06.047-.093.067-.025.015-.038.035-.03.067.005.028.022.038.05.042a.249.249 0 0 1 .117.056c.056.043.056.048.027.113-.029.062-.055.124-.083.187-.007.018-.01.03.001.047a.535.535 0 0 1 .062.144c.012.045.025.088-.023.124a.099.099 0 0 0-.034.045c-.028.086-.098.124-.172.156-.06.026-.082.01-.079-.053.004-.058.018-.117.011-.173-.006-.063.04-.116.019-.177.03-.084.03-.176.067-.259.01-.024.016-.05.025-.076.002-.009.01-.018.004-.027-.035-.054-.058-.12-.132-.134-.01-.002-.019-.001-.027-.008-.04-.04-.095-.03-.142-.039a.068.068 0 0 0-.073.04c-.026.055-.065.1-.103.145a.203.203 0 0 0-.024.037c-.013.023-.01.043.018.05.033.007.055.028.062.056.012.046.038.089.037.138 0 .022 0 .044-.005.065-.003.02-.014.038-.035.043-.085.018-.169.041-.254.053-.07.01-.102.035-.088.101.009.04.02.079.032.117.032.095.069.096.147.085.059-.008.117-.021.173-.032.038.077 0 .144-.01.212-.008.054-.013.117-.06.153-.078.056-.148.124-.238.165-.084.04-.16.091-.14.206a.142.142 0 0 0 .03.068c.032.043.081.057.119.09.044.04.063.037.096-.01.006-.01.007-.026.016-.032.102-.086.177-.197.273-.287.027-.026.058-.059.1-.053.057.008.083-.02.112-.061a.748.748 0 0 1 .18-.195c.052-.034.057-.034.078.026.025.071.048.143.072.215.024.073.1.122.178.12.056-.002.11-.012.185-.017-.043.05-.075.09-.11.125-.061.062-.127.12-.188.183-.015.016-.036.036-.024.063.016.034.049.027.076.025.012 0 .021-.011.033-.015.106-.04.192-.12.297-.16.081-.03.138-.092.203-.14.04-.03.074-.076.064-.143-.009-.063-.026-.125-.03-.19-.002-.027-.028-.046-.053-.056ZM36.752 74.74c-.04.023-.075.052-.123.06-.078.012-.084.01-.082-.075.001-.067.014-.08.075-.07a.701.701 0 0 1 .125.039c.028.012.03.03.005.046Zm-.288.63c-.028.002-.057.004-.09-.005 0-.047.04-.067.057-.1.002-.003.009-.008.012-.007.044.005.034.048.048.073.012.023-.005.037-.027.039Zm-.273-.167c-.024-.003-.034-.019-.036-.038-.002-.022.017-.036.045-.036.02 0 .037.009.039.033.002.022-.023.043-.048.04Zm1.39-.908c-.056-.01-.104-.041-.151-.066-.057-.032-.116-.066-.175-.086-.093-.033-.183-.075-.276-.109-.126-.045-.254-.078-.383-.117a1.523 1.523 0 0 1-.217-.08 2.951 2.951 0 0 0-.165-.072c-.046-.02-.058-.011-.092.028-.03.035-.03.077-.034.117-.01.123.054.21.166.227.134.022.27.028.407.047.076.012.145.047.223.05l-.002.017c-.04.01-.081.028-.121.03-.074.005-.142.027-.216.03a.236.236 0 0 0-.126.05.474.474 0 0 0-.189.262c-.016.065-.002.097.046.142.034.035.07.02.106.02.007.047.008.088-.026.12-.012.012-.014.025-.016.04-.002.032-.02.045-.052.048a1.457 1.457 0 0 0-.154.018c-.037.006-.065 0-.082-.031-.032-.06-.095-.078-.145-.116-.008-.007-.022-.007-.033-.011-.055-.023-.19.048-.216.107-.02.04-.023.092 0 .122.035.045.067.096.122.121.054.027.103.036.155-.005.026-.02.058-.04.099-.026-.015.044-.005.089-.001.134.008.126.091.177.206.128.01-.004.018-.005.026 0 .074.045.166.053.225.13.018.023.03.048.049.071.045.06.103.06.148 0 .046-.062.085-.127.078-.208-.006-.065.002-.135-.065-.183-.045-.031-.08-.075-.12-.115-.01-.007-.015-.015-.01-.024.016-.028.02-.068.057-.079a.448.448 0 0 1 .222-.024c.072.014.123-.01.175-.047.04-.029.064-.073.097-.107a.181.181 0 0 0 .056-.121.195.195 0 0 0-.05-.123c-.071-.075-.148-.146-.262-.153-.017 0-.032-.005-.034-.03a.292.292 0 0 1 .108-.005c.158.016.302.076.448.133a.387.387 0 0 1 .1.055.27.27 0 0 0 .164.055c.012 0 .027-.002.035-.009.05-.05.082-.11.074-.184-.01-.09-.068-.15-.178-.17ZM45.066 74.813c-.013-.004-.028-.01-.042-.007-.087.018-.174.013-.262.015-.101.002-.203.012-.304-.014a2.941 2.941 0 0 1-.277-.085c-.137-.049-.262-.125-.4-.171-.078-.027-.083-.103-.023-.159a.99.99 0 0 1 .155-.12.228.228 0 0 0 .114-.153c.017-.084-.02-.144-.087-.195a.13.13 0 0 0-.116-.027.219.219 0 0 0-.102.05c-.044.038-.09.073-.14.116a1.096 1.096 0 0 1-.068-.273c-.008-.072-.039-.124-.1-.149-.064-.027-.134-.041-.202-.057-.047-.008-.095.024-.118.067-.018.033-.021.07-.035.103-.015.04-.003.075.023.108.028.035.06.029.093.016.024-.009.037-.002.048.017.01.017.02.033.027.052.018.053.037.108.064.16.049.098.07.196.001.3-.031.044-.046.102-.09.139-.04.032-.069.073-.103.11a.431.431 0 0 1-.122.09c-.015.009-.032.014-.046.024-.036.026-.033.068 0 .098.073.062.161.038.242.049.038-.032.088-.04.13-.067.053-.036.096-.085.142-.127.021.011.022.027.027.04.003.014.009.028.01.043.023.178 0 .353-.04.526-.025.113-.04.229-.074.341-.016.056-.053.103-.061.162-.003.02-.024.04.003.06.026.017.045 0 .066-.012a.083.083 0 0 0 .026-.024c.064-.088.15-.156.23-.23a.225.225 0 0 0 .068-.119c.018-.074.002-.147.008-.22.01-.13.003-.263-.005-.392-.001-.033.017-.054.042-.043.039.016.08.017.12.027.114.027.223.068.326.122.1.054.206.099.29.178.03.029.067.037.107.022.028-.01.055-.02.08-.035.11-.067.206-.153.314-.223.028-.02.061-.039.08-.072.018-.028.013-.05-.019-.06ZM40.046 75.794c-.004-.084-.022-.166-.03-.248-.005-.04-.026-.05-.052-.056-.022-.008-.053.025-.055.054-.011.11-.012.22-.026.33a.295.295 0 0 1-.027.098c-.036.073-.103.108-.17.14a.1.1 0 0 1-.097-.009.176.176 0 0 0-.05-.024c-.052-.015-.07-.062-.102-.094-.022-.024.01-.039.007-.06a.069.069 0 0 0-.004-.014c-.025-.062-.014-.126-.008-.19.007-.064.033-.125.032-.184 0-.073.036-.122.074-.162a.475.475 0 0 1 .229-.146c.044-.01.08-.056.069-.09-.016-.046-.02-.094-.032-.142-.016-.068-.093-.09-.146-.041a.164.164 0 0 0-.037.054c-.009.021-.027.03-.041.04-.02.012-.035.008-.042-.02-.01-.044-.008-.088.018-.125.048-.072.028-.14-.014-.203-.016-.024-.048-.048-.085-.044-.055.007-.125.08-.124.136.001.113-.02.224-.057.329-.02.053-.017.114-.06.162a.304.304 0 0 1-.09.077c-.072.036-.127.097-.186.15-.03.026-.034.074-.018.099.048.073.106.086.181.041.008-.005.018-.008.026-.014.016-.007.014-.041.041-.028.027.013 0 .035.006.053v.018c-.013.129-.033.267-.019.408.011.091.08.19.166.216.106.033.214.055.325.058a.452.452 0 0 0 .254-.048c.01-.006.023-.006.034-.01.075-.035.155-.072.155-.17a.462.462 0 0 0-.007-.129c-.016-.07-.035-.14-.038-.212ZM42.117 75.56c-.091-.045-.18-.064-.277-.031-.01.002-.019.005-.029.006-.028 0-.042-.017-.028-.043.03-.053.054-.113.099-.158.03-.03.047-.067.066-.102.03-.057 0-.109-.033-.143a.62.62 0 0 0-.166-.129.155.155 0 0 0-.112-.014.735.735 0 0 0-.199.079.33.33 0 0 1-.106.043c-.053.009-.103.026-.156.032-.02.003-.045.01-.044.03.001.027-.006.057.01.084l.076.124c.031.048.075.061.132.05.074-.014.142-.047.211-.075.036-.013.043.002.053.026.009.02.002.04-.005.056a.439.439 0 0 0-.026.098.227.227 0 0 1-.098.157c-.136.098-.291.126-.45.148l-.015.002c-.103 0-.126.03-.085.121.048.108.117.17.25.153a.429.429 0 0 0 .154-.06 1.31 1.31 0 0 1 .472-.183.6.6 0 0 1 .291.019c.05.019.09.005.132-.015.012-.007.023-.017.024-.033.003-.057.012-.113-.034-.164a.33.33 0 0 0-.107-.079Z" clip-rule="evenodd"/><path fill="#263E6A" fill-rule="evenodd" d="M45.418 73.865a.357.357 0 0 0 .061-.114c.015-.066.04-.127.059-.191.027-.096.062-.19.071-.289.007-.07.003-.072-.063-.08a.392.392 0 0 0-.171.028.148.148 0 0 0-.107.125.289.289 0 0 1-.036.094.537.537 0 0 0-.086.198.239.239 0 0 0 .183.261c.036.008.068-.001.09-.032ZM38.665 75.412l-.005.006c-.013.005-.029.028-.041.01-.01-.016.012-.026.026-.036.011-.02.028-.05.048-.032.02.019-.01.04-.028.052Zm.422-.669a.273.273 0 0 0-.232-.028c-.066.022-.131.05-.149.131 0 .005-.006.008-.009.012-.035.034-.05.083-.07.126a.333.333 0 0 1-.064.103.329.329 0 0 0-.085.134.558.558 0 0 1-.091.17c-.01.014-.024.024-.026.042a.392.392 0 0 1-.087.2.305.305 0 0 0-.055.138c-.004.017 0 .036.022.043.019.005.029 0 .041-.018.056-.07.111-.14.172-.205.024-.026.039-.07.095-.073-.03.046-.014.09-.011.134.003.07.003.14-.005.209-.007.054.01.107 0 .159a1.96 1.96 0 0 0-.037.23c-.01.116.074.203.175.172a.58.58 0 0 0 .13-.063c.033-.024.052-.071.041-.094-.021-.048-.006-.088-.006-.132a.654.654 0 0 1 .06-.257c.007-.02.032-.04.017-.06-.025-.03-.001-.042.014-.06a.152.152 0 0 0 .027-.051c.008-.026-.016-.047-.042-.04a.094.094 0 0 0-.047.034.173.173 0 0 1-.063.054c-.038-.061.02-.124-.003-.184.032-.03-.011-.065.004-.096.013-.028.02-.053-.002-.081a.05.05 0 0 1 .003-.063c.033-.035.047-.082.08-.12a1.21 1.21 0 0 1 .154-.157c.06-.05.08-.12.105-.187.013-.04-.017-.1-.056-.122ZM40.34 69.847c.09.016.172.012.253.027a.839.839 0 0 1 .243.078c.215.116.238.375.045.527a.61.61 0 0 1-.278.121.81.81 0 0 1-.357-.005.233.233 0 0 1-.097-.05c-.055-.05-.046-.123.022-.155a.178.178 0 0 1 .122-.01.73.73 0 0 1 .162.07.585.585 0 0 0 .148.06c.05.011.097.003.142-.018.111-.051.132-.174.043-.258a.43.43 0 0 0-.164-.095 1.06 1.06 0 0 0-.3-.057l-.133-.009c-.016-.016-.007-.028-.004-.038l.171-.468c.01-.026.017-.048.053-.048h.573l.057.003c-.017.067-.048.124-.074.183-.012.027-.037.019-.058.019h-.432c-.098 0-.098 0-.13.096l-.007.027ZM38.575 69.986c0 .132 0 .264.002.396 0 .024 0 .049.003.073.011.067.03.087.098.099.033.005.068.008.102.011.01.001.019.005.019.017s-.007.02-.016.022c-.015.002-.03.001-.044.001-.218 0-.436.001-.653-.001-.022 0-.065.017-.063-.024.001-.03.04-.015.062-.016.154-.014.181-.042.181-.194v-.586c-.002-.094-.031-.12-.122-.102-.033.006-.067.015-.1.023-.012.004-.024.01-.029-.01-.002-.014.006-.022.019-.027l.028-.01.444-.147.028-.008c.027-.01.043-.002.041.028V69.986ZM41.74 70.56c-.08.027-.175.005-.222-.053-.085-.099-.062-.3.04-.38.016-.011.029-.006.042 0 .055.03.113.058.162.099a.208.208 0 0 1 .085.175c0 .08-.034.133-.107.158Zm-.224-.922c.02-.056.066-.08.124-.09.136-.018.22.055.219.197a.221.221 0 0 1-.02.092c-.037.083-.064.093-.144.051a.476.476 0 0 1-.146-.109c-.033-.041-.054-.087-.033-.141Zm.497.428c-.054-.038-.11-.072-.165-.109.017-.024.044-.022.065-.03a.433.433 0 0 0 .13-.068c.086-.072.09-.176.01-.254a.306.306 0 0 0-.146-.08.806.806 0 0 0-.441.01.392.392 0 0 0-.168.1.207.207 0 0 0-.018.28c.027.035.06.063.098.087.04.026.082.051.134.083-.07.022-.13.039-.181.07-.066.043-.11.097-.117.177-.008.099.037.17.12.217.137.075.282.09.434.069a.542.542 0 0 0 .252-.093.264.264 0 0 0 .116-.259.277.277 0 0 0-.123-.2ZM39.621 70.07c-.006.029-.02.04-.047.048-.086.024-.164-.008-.197-.093a.645.645 0 0 1-.027-.373c.016-.073.057-.104.121-.106.062-.002.106.03.13.097.028.082.03.167.029.27-.001.041.002.1-.009.157Zm.335-.183a.414.414 0 0 0-.208-.319.49.49 0 0 0-.245-.067.52.52 0 0 0-.361.113c-.16.124-.186.453.091.555a.53.53 0 0 0 .274.022c.024-.004.047-.014.08-.006a.516.516 0 0 1-.206.276.71.71 0 0 1-.255.105l-.072.015c-.013.004-.018.016-.015.03.002.013.012.013.023.013.043-.005.087-.008.13-.014.215-.032.413-.104.58-.246a.519.519 0 0 0 .184-.477ZM37.41 62.768c-.027.004-.054 0-.08 0-.026 0-.048.003-.074 0-.016 0-.035-.003-.037-.026-.001-.02.007-.034.024-.042a.09.09 0 0 1 .034-.011h.131c.024.001.046.011.045.038 0 .026-.02.04-.044.041Zm-.004.208a2.35 2.35 0 0 1-.16 0c-.028 0-.034-.023-.034-.047 0-.022.017-.027.035-.028h.16c.02.001.038.01.04.034.002.027-.017.04-.041.041Zm.394-.282a.853.853 0 0 1 .217 0c.02.003.038.013.04.035.003.02-.01.033-.024.043a3.434 3.434 0 0 1-.1.065c.018.035.046.038.07.05.017.01.035.018.047.033.02.028.01.055-.024.057-.07.002-.14 0-.212-.001-.016 0-.035-.007-.041-.025-.006-.021.015-.029.027-.038.023-.015.047-.027.068-.042.038-.026.038-.034 0-.064-.027-.019-.058-.036-.083-.058-.03-.024-.022-.05.015-.055Zm-.884-.257.425-.003h.065c.022 0 .044.005.044.029.002.029-.022.033-.046.034-.041.002-.083.001-.124.004-.1.005-.2.002-.298.03-.069.019-.078.035-.061.099.025.103.03.207.016.313-.01.082-.015.165-.021.248-.003.056.016.082.07.092a.382.382 0 0 0 .117.002c.068-.007.098-.032.115-.101.005-.023.014-.033.038-.032h.11c.072 0 .072 0 .098.071.01.027.016.058.05.066.061.014.122.02.18-.002.045-.016.083-.046.087-.099.003-.029.015-.036.041-.036h.2c.017 0 .03.005.04.023.054.09.142.084.227.074.053-.006.078-.043.078-.099-.001-.03-.006-.063-.006-.095-.001-.153-.04-.305.004-.458.01-.03-.005-.052-.037-.06a.722.722 0 0 0-.158-.029 4.898 4.898 0 0 0-.33-.01c-.023 0-.055.001-.056-.031-.002-.036.03-.03.054-.033h.299v.002h.22c.032 0 .065.003.096 0 .066-.005.104-.046.105-.109.002-.057-.027-.087-.095-.096a.73.73 0 0 0-.111-.006c-.055 0-.092-.012-.104-.075-.011-.054-.05-.088-.108-.094-.073-.007-.119.018-.14.088-.017.06-.054.083-.111.082l-.044.002c-.05-.003-.067-.014-.07-.066-.004-.068-.05-.1-.103-.119a.192.192 0 0 0-.176.025c-.032.021-.053.045-.042.09.01.042-.005.058-.048.066-.024.004-.048.004-.073.004h-.382c-.019 0-.038 0-.057.002-.07.011-.11.068-.096.131.01.05.05.077.118.076ZM37.22 65.595c.087-.014.164-.006.242-.004-.05.113-.144.117-.242.004Zm.548.104.158-.118a.312.312 0 0 0 .073-.072c.04-.056.025-.103-.037-.129-.016-.006-.032-.009-.05-.011-.075-.012-.15-.012-.227-.012h-.938a.24.24 0 0 0-.134.03c-.071.046-.07.128.005.171.032.02.069.024.105.024h.205c.024 0 .05-.004.076.018-.023.035-.072.053-.057.1.013.039-.008.047-.038.05a.678.678 0 0 1-.066.002h-.616c-.031 0-.064 0-.093.014-.05.02-.073.055-.073.107.002.052.024.083.076.104.032.013.063.01.094.01h.88c.031 0 .065 0 .095.006.032.007.053.026.06.057.004.021.011.043.014.065.005.068-.032.113-.099.12a.369.369 0 0 1-.145-.018c-.107-.031-.134-.014-.153.095-.002.015-.004.03-.004.044.002.07.022.095.087.118.04.015.082.016.123.02a.729.729 0 0 0 .365-.058c.137-.061.188-.162.16-.308l-.008-.037c-.013-.082-.01-.085.068-.12.06-.026.12-.056.174-.092.026-.018.026-.032-.002-.049-.021-.014-.047-.024-.07-.037-.06-.034-.06-.054-.008-.094Z" clip-rule="evenodd"/><path fill="#263E6A" fill-rule="evenodd" d="M38.546 63.36a.212.212 0 0 0-.106-.026h-.154c-.05 0-.104.012-.133-.047-.003-.006-.011-.01-.019-.012a.363.363 0 0 0-.216-.013c-.018.004-.038.014-.045.034-.014.039-.044.039-.077.038h-.953a.244.244 0 0 0-.133.031c-.046.028-.06.072-.037.12.014.033.04.054.075.064a.365.365 0 0 0 .109.011h.887l.058.001c.043.005.06.022.065.065.001.019 0 .039-.002.058-.012.123-.027.133-.146.101-.022-.006-.043-.013-.062.003a.163.163 0 0 0-.064.155c.007.057.05.082.1.093.112.024.223.02.333-.01a.168.168 0 0 0 .119-.11.378.378 0 0 0 .033-.17c-.003-.04-.003-.079-.003-.118 0-.054.009-.064.063-.066.064-.003.127-.002.191-.002a.332.332 0 0 0 .094-.01c.046-.011.07-.042.077-.087.006-.042-.014-.08-.054-.103ZM36.784 65.103c.014.022.03.029.045.037a.764.764 0 0 0 .324.082c.309.027.619.044.929.038.017 0 .034 0 .05.004.051.01.064.024.067.072v.045c.002.09.038.129.128.135a.405.405 0 0 0 .072-.001c.105-.014.144-.07.124-.172a.365.365 0 0 1 .007-.195c.023-.065.017-.077-.05-.088a2.258 2.258 0 0 0-.336-.03c-.032 0-.078.015-.093-.02-.012-.03.025-.055.046-.078.07-.083.123-.176.178-.268.047-.08.022-.14-.068-.17-.004-.003-.01-.003-.014-.004-.153-.048-.22-.021-.29.122a.88.88 0 0 1-.121.19.355.355 0 0 0-.041.052c-.027.046-.025.07.008.114.01.014.035.022.026.047-.023.01-.048.01-.072.01-.114.003-.23.004-.343.01-.142.006-.285.009-.425.027-.05.008-.101.011-.15.04ZM36.193 62.755c.078-.015.118.023.138.093.005.019.015.036.023.054.016.038.031.077.053.112.026.049.063.05.096.007a.278.278 0 0 0 .033-.058c.02-.044.04-.09.055-.135.016-.052.042-.08.1-.073a.152.152 0 0 0 .102-.03.117.117 0 0 0 .054-.114c-.005-.046-.037-.072-.077-.089-.03-.013-.063-.01-.094-.012-.045-.002-.056-.014-.057-.058-.004-.05-.001-.103-.001-.154v-.117c0-.116-.046-.159-.161-.157-.017 0-.035.001-.05.004-.088.016-.122.056-.122.145v.25c0 .085 0 .086-.083.087a.265.265 0 0 0-.093.017c-.058.022-.082.064-.076.126.005.055.033.082.095.095.02.005.044.01.065.007ZM36.36 64.01c.044.012.087.01.131.01.078-.003.115-.04.118-.118.003-.051.001-.104.001-.154a2.528 2.528 0 0 0-.033-.38.544.544 0 0 0-.086-.222c-.027-.038-.047-.037-.07.003a.663.663 0 0 0-.063.171c-.047.174-.052.352-.073.529-.003.023 0 .048.001.073.004.046.027.075.074.088ZM36.137 65.416c.002.058.025.082.084.088a.384.384 0 0 0 .094 0c.113-.011.144-.045.146-.156v-.007c-.005-.073.029-.122.095-.15.021-.008.044-.019.066-.029.014-.006.027-.011.04-.019.035-.025.034-.045-.005-.061a.284.284 0 0 0-.055-.019.969.969 0 0 0-.435-.005c-.057.017-.066.035-.045.09.024.062.033.123.02.188a.33.33 0 0 0-.005.08Z" clip-rule="evenodd"/><path fill="#263E6A" fill-rule="evenodd" d="M37.055 64.612c.05.08.096.163.134.25.029.065.076.093.14.084a.226.226 0 0 0 .15-.043c.032-.024.055-.058.04-.1a.79.79 0 0 0-.156-.303.219.219 0 0 0-.254-.05c-.068.03-.092.097-.054.162ZM36.685 64.573c-.066-.066-.14-.072-.222-.043-.095.031-.122.111-.06.189.06.074.125.143.187.215.034.04.08.056.133.055.07.007.109-.038.145-.091.031-.049.005-.09-.019-.13a1.15 1.15 0 0 0-.164-.195ZM38.514 65.765a.242.242 0 0 0-.135-.022c-.065.008-.13.017-.194.035-.075.02-.153.031-.225.071.006.024.02.032.033.039.082.041.168.076.26.096.084.019.17.016.252-.011.047-.015.081-.045.082-.1.003-.052-.028-.087-.073-.108ZM37.31 63.93c.082.014.176-.053.178-.132-.002-.005-.003-.019-.008-.029a.322.322 0 0 0-.212-.186.168.168 0 0 0-.114.013c-.06.026-.08.082-.048.138a.57.57 0 0 0 .121.155.16.16 0 0 0 .084.04ZM43.458 65.233c.014-.027.038-.028.063-.026.047.002.06.022.06.09 0 .026 0 .059-.046.067-.028.006-.054.01-.076-.011-.016-.018-.016-.092-.001-.12Zm-.36.138c-.058-.002-.074-.018-.072-.075.003-.07.025-.09.094-.09.055.001.065.013.063.08 0 .072-.015.086-.085.085Zm.818-.163c.06 0 .085.024.085.084 0 .058-.023.083-.077.083-.056 0-.072-.019-.072-.084 0-.068.012-.082.064-.083Zm.141.364a.641.641 0 0 0 .197-.023c.056-.019.06-.029.043-.085a.706.706 0 0 1-.006-.326c.017-.09.017-.098-.073-.116l-.037-.005c-.112-.022-.223-.011-.337-.014-.04 0-.082.001-.122-.011-.019-.006-.042-.01-.04-.035.003-.02.022-.024.04-.028a.688.688 0 0 1 .145-.011c.14 0 .278 0 .419-.002.056 0 .088-.026.097-.07.01-.053-.02-.115-.068-.134a.237.237 0 0 0-.086-.013l-.455-.003c-.07 0-.07 0-.063-.068.006-.07-.025-.117-.093-.136a.291.291 0 0 0-.123-.01c-.091.012-.115.035-.124.13-.008.079-.011.082-.088.083l-.44.004a.253.253 0 0 0-.107.023c-.034.015-.052.041-.054.079-.005.07.03.11.103.114.063.005.126.001.19.003.081 0 .163-.002.243.002.033 0 .067.007.1.013.015.003.029.013.03.03 0 .017-.015.022-.029.027a.282.282 0 0 1-.093.013h-.25a.754.754 0 0 0-.217.033c-.052.015-.06.031-.044.08.041.118.03.235-.003.353-.017.06-.012.073.05.087.063.014.13.016.197.016H44.057ZM42.014 63.096c.025.004.05.004.073.004H42.667c.083.003.104.022.116.102.003.02.003.038.008.057.01.04.034.053.071.038a.275.275 0 0 0 .055-.035c.048-.035.094-.07.14-.108.047-.04.1-.056.162-.055.171.002.343 0 .513 0h.514c.036 0 .074.001.107-.017.04-.02.076-.045.08-.096 0-.055-.033-.085-.076-.11-.037-.022-.08-.02-.121-.02h-1.004c-.033 0-.045-.015-.036-.046a.297.297 0 0 0 .014-.122c-.008-.058-.035-.094-.089-.103a.46.46 0 0 0-.168-.002c-.039.006-.063.03-.078.068-.016.04-.017.08-.026.121-.014.084-.014.084-.097.084h-.66c-.026 0-.054 0-.08.005-.062.01-.098.056-.096.119.001.063.037.106.099.116ZM42.02 62.559a1.102 1.102 0 0 0-.006.08c-.003.079.028.114.107.114a.49.49 0 0 0 .102-.01c.092-.022.129-.064.122-.146-.005-.074.007-.08.083-.087.011-.002.023-.002.035-.002l.66-.031c.115-.007.229-.017.344-.03a.504.504 0 0 0 .161-.043c.011-.005.023-.011.025-.024.002-.018-.012-.026-.026-.032-.033-.014-.065-.031-.1-.042-.097-.032-.167-.09-.196-.19-.016-.065-.068-.086-.128-.09a.13.13 0 0 0-.136.08c-.012.024-.022.049-.032.074a.148.148 0 0 1-.131.092h-.066c-.186 0-.371 0-.557.003a.892.892 0 0 0-.225.028c-.059.016-.068.032-.05.089.014.055.015.11.014.167ZM43.839 66.127c-.05-.003-.082.024-.105.068-.02.038-.05.065-.097.067-.08.005-.16.007-.24 0-.076-.007-.096-.03-.099-.108-.003-.042 0-.083-.002-.124-.002-.074-.055-.12-.142-.128-.082-.008-.161.04-.176.1v.008c0 .11-.004.22.003.33.007.096.05.131.149.15.108.018.22.01.314.013.125-.004.234-.003.343-.013.12-.01.184-.082.226-.182.017-.041.019-.088-.014-.126-.041-.048-.102-.053-.16-.055Z" clip-rule="evenodd"/><path fill="#263E6A" fill-rule="evenodd" d="M43.56 63.241c-.1-.054-.182-.063-.273.03-.014.017-.03.033-.042.05-.11.162-.245.298-.396.421-.022.019-.045.038-.06.064-.049.099-.057.178.09.195.01.002.02.002.029.002.09.004.18-.005.27-.019a.419.419 0 0 0 .225-.103l-.037-.022c-.03-.015-.064-.026-.093-.044-.038-.026-.04-.051-.009-.086.008-.01.018-.017.027-.025.1-.076.18-.17.264-.264a.272.272 0 0 0 .045-.066c.023-.053.01-.104-.04-.133ZM42.652 65.252c.023-.037.031-.078.006-.117-.052-.082-.179-.1-.25-.036a.711.711 0 0 0-.086.089c-.061.074-.131.139-.205.199a.518.518 0 0 1-.22.112c-.057.012-.066.027-.065.086-.004.15.159.214.251.16.025-.015.052-.026.078-.042.029-.017.055-.01.08.008.014.01.024.025.036.037.057.066.083.062.113-.022.023-.064.044-.13.059-.196a.278.278 0 0 1 .1-.165.402.402 0 0 0 .103-.113ZM43.75 63.75l-.026.01c-.062.025-.125.042-.183.078-.017.011-.045.02-.043.044.003.028.035.029.059.034.008.003.019.002.028.003.115.013.23.018.344.003.058-.008.106.004.142.052.031.04.074.055.14.051 0 0 .017-.001.033-.004.118-.022.155-.113.087-.21a.318.318 0 0 0-.027-.033c-.074-.08-.147-.158-.222-.235a.454.454 0 0 0-.123-.092.19.19 0 0 0-.17-.005c-.093.04-.107.096-.04.175l.025.027c.059.062.057.07-.023.103ZM42.723 63.617a.407.407 0 0 0 .077-.164c.005-.03.025-.067-.005-.09-.03-.024-.059.006-.083.022-.051.03-.098.066-.145.1a2.454 2.454 0 0 1-.329.203.392.392 0 0 1-.14.041c-.109.01-.123.03-.101.139.001.01.005.018.007.027.01.057.049.083.1.092.02.005.04.004.06.005a.353.353 0 0 0 .188-.05 1.2 1.2 0 0 0 .371-.325ZM42.388 64.556a.362.362 0 0 0-.08.075.655.655 0 0 1-.3.213c-.016.007-.032.012-.047.02a.062.062 0 0 0-.035.06c0 .073.1.169.174.17a.287.287 0 0 0 .174-.07c.101-.077.197-.16.29-.248a.344.344 0 0 0 .046-.056c.05-.078.016-.163-.074-.187a.183.183 0 0 0-.148.023ZM44.349 65.84c.059-.008.086-.031.092-.076a.11.11 0 0 0-.072-.122.255.255 0 0 0-.1-.017c-.253.003-.505.006-.754.04-.062.01-.128.006-.184.052.024.034.055.042.084.052.059.02.12.03.18.041.24.041.482.028.724.033.01 0 .02 0 .03-.003ZM43.774 62.41l.145.05c.094.037.115.068.116.169.001.09.032.123.12.132.017 0 .035 0 .052.002v-.002h.052c.093-.008.122-.045.113-.14l-.004-.028a.308.308 0 0 1 .013-.208c.021-.047.005-.069-.05-.083a.83.83 0 0 0-.557.056c-.012.006-.028.012-.027.028.001.013.015.02.027.023ZM42.37 65.874c-.027-.045-.05-.044-.077.003-.027.045-.038.095-.05.145a4.037 4.037 0 0 0-.066.381c-.008.062.006.092.062.116a.204.204 0 0 0 .163.005.127.127 0 0 0 .089-.12c-.012-.11-.02-.218-.04-.328a.55.55 0 0 0-.08-.201ZM44.242 65.975a.183.183 0 0 0-.142-.055c-.01.002-.029.004-.047.01-.082.022-.115.105-.056.169.06.064.102.141.146.218.04.069.1.095.18.083.099-.016.142-.094.094-.182a1.164 1.164 0 0 0-.175-.243ZM43.15 65.664c-.113-.017-.227-.036-.34-.043h-.103a.161.161 0 0 0-.072.013.119.119 0 0 0-.073.115c.002.048.028.077.084.097.026.009.053.011.079.01a1.45 1.45 0 0 0 .48-.088.24.24 0 0 0 .046-.02c.022-.015.024-.03 0-.046a.256.256 0 0 0-.1-.038ZM42.756 65.96c-.05-.003-.086.012-.108.052a1.69 1.69 0 0 0-.104.226c-.023.066.002.112.067.14.078.032.158.01.216-.059.032-.04.051-.087.07-.135.074-.174-.021-.212-.14-.224ZM43.504 65.865c-.009.002-.029.003-.046.01-.082.03-.104.11-.036.163.028.021.05.052.076.079a.162.162 0 0 0 .207.016.091.091 0 0 0 .035-.114c-.027-.068-.153-.153-.236-.154ZM111.616 54.441c-.194 1.147-.759 1.87-1.032 2.924.171-.012.322-.228.61-.32.144-.046.312-.011.467-.052.237-.064.663-.258.934-.051.271.2.19.613.376 1.008-.055.274-.151.5-.188.797-.343.599-1.25.561-1.92.795a3.428 3.428 0 0 1-.56.424c-.163.673.133 1.023.42 1.487.239.39.715.816.981 1.169.191.252.359.579.562.848.096.131.237.245.326.373.113.163.14.362.235.48.289.362.809.556.981.957.424.085.681.483 1.031.744.54.4 1.287.524 1.589 1.222-.408.283-1.086.168-1.73.159-.32-.007-.658-.062-.937-.053-.505.01-.82.107-1.216-.217-.44-.357-.78-1.236-1.123-1.803-.597-.992-1.439-2.274-2.105-3.083-.464.82-.753 1.837-1.264 2.6.008.605-.373.952-.705 1.275-.231.228-1.054.49-1.495.692-.297.13-.499.133-.89.261-.397.133-.71.517-1.124.373.039-.293.268-.462.422-.637.163-.187.364-.332.468-.584.586-.47.999-1.133 1.451-1.75.178-.013.229-.17.377-.212.633-1.23 1.482-2.212 1.872-3.719-.608-.191-.916.43-1.451.48-.824.071-1.082-.97-1.544-1.65.622-.433 1.406-.43 2.06-.69.706-.28 1.358-.683 1.826-1.272.001-.498.045-.978.047-1.487.001-.133.084-.252.095-.372.017-.244.035-.794.001-.957-.058-.276-.338-.51-.328-.796.015-.396.57-1.042 1.171-.9.509.118.998 1.077 1.31 1.537ZM65.939 54.305c.172.212.321.449.56.585.065.468.41.75.47 1.22.05.427-.08 1.039-.143 1.54-.077.598-.234 1.158-.188 1.752.422.222.853-.69 1.308-.582.508.123.46 1.475.561 2.178-.343.406-.891.582-1.403.796-.223.63-.43 1.282-.422 2.176.821-.147 1.487-.441 2.293-.422.69.358.578 1.36.982 1.965-.298.658-1.005.864-1.64 1.327-.291.215-.582.487-.887.742-.483.4-.918 1.058-1.64.688-.026-.307.294-.46.468-.636.19-.188.41-.394.608-.583.408-.394.886-.747 1.126-1.276-.635-.406-1.233.399-1.874.268-.826-.177-.766-1.6-1.168-2.393-.612.42-1.322.727-1.546 1.593-.792.219-1.38.87-1.965 1.485-.435.454-1.09 1.42-1.592 1.17-.466-.234-.748-1.231-.936-1.86.25-.229.594-.354.936-.532.587-.302 1.762-1.115 1.92-1.963.115-.602-.125-1.085.002-1.752-.252-.044-.618.535-.984.527-.66-.003-1.161-1.226-.982-2.07.469-.284 1.153-.321 1.593-.634.271-.526.378-1.239.328-2.127-.093-.158-.374-.104-.468-.265-.034-.138-.068-.307-.045-.424.03-.163.689-.793 1.027-.848.965-.166 1.388.68 1.732 1.275-.147.822-.366 1.558-.421 2.602-.011.212.02.428 0 .637-.047.442-.157 1.213.092 1.753.44-.277.786-.517 1.076-.903.406-.544.38-1.182.378-2.337-.002-.68.132-1.386.046-1.857-.046-.252-.365-.76-.56-.956-.286-.29-.596-.305-.61-.64-.01-.31.353-.551.658-.744.466-.291.71-.5 1.31-.475ZM76.088 66.365c.124-.1.313-.177.468-.155.089.126.03.427.045.636-.175.242-.597.209-.89.318-.138-.073.225-.672.377-.799Zm.046-4.512c.693.095.953-.303 1.5-.37-.402.66-.938 1.167-1.545 1.59.013-.48.097-.793.045-1.22Zm.284-1.38c.637-1.301 2.064-1.942 3.604-2.23.46-.085.96-.048 1.265-.263.634-.448.453-1.666-.044-2.073-.556-.45-1.02-.132-1.547.109-.448.205-.855.32-1.31.474-.453.157-.864.405-1.311.583-.424.172-.891.19-1.358.32-.278.076-.528.306-.796.422-.802.352-1.68.563-2.48.848-.198.073-.386.212-.562.266-.398.127-.579.13-.747.476.23.785.502 1.8 1.26 1.754.221-.012.642-.31.983-.528.537-.342.908-.646 1.311-.955.628-.48 1.379-.884 2.107-.955-.755.294-1.312.813-1.826 1.38-.066.435-.455 1.05-.562 1.751-.064.424-.122 1.468.045 1.751.079.133.596.48.89.481.2-.002.287-.134.469-.159.229.092.41.243.56.425-.007.5.2.83.047 1.167-.094.207-.26.174-.422.32-.258.23-.455.59-.748.636-.421-.379-.981-.503-1.546-.214-.845.679-.514 2.723.747 2.654.423-.494.627-1.236 1.078-1.696.43.336.552 1.023.606 1.645.49.12.828-.332 1.079-.528.601-.483.68-1.436.564-2.443.315.134.767.12.983.373-.025.645-.69.565-.797 1.115.256.266.612-.064.888-.108.335.176.38.548.749.585.765.08.933-1.158.656-1.856-.143-.361-.541-.566-.844-.744-.574-.345-.78-.334-1.635-.373-.04-.361-.135-.798-.046-1.117.118-.432.837-.611 1.169-.956.162-.168.602-.823.656-1.007.19-.644-.016-1.363-.234-1.648-.243-.313-.632-.637-1.123-.53-.569.123-1.13.84-1.778.848Zm1.269-7.488c.924 1.16-.215 2.724-.987 3.504-.185.19-.318.51-.562.427-.17-.615.244-1.435-.138-2.072-.165-.273-.53-.394-.562-.64-.029-.215.1-.308.281-.584.207-.31.515-.94.984-.952.346-.01.555.413.984.317ZM100.941 62.347c.742.136 1.58-.26 2.246 0 .337.423.829.872.607 1.758-.442.516-.748.61-1.496.316-.361-.142-.782-.42-1.358-.375-.584.047-1.18.388-1.64.639-.187.102-.401.157-.562.264-.532.36-1.16.903-1.871.636-.405-.151-.64-.699-.841-.954-.04-.36-.115-.852.096-1.063.428-.04.913-.194 1.45-.264.552-.073 1.175-.015 1.682-.215.694-.267 1.165-1.222 1.266-2.227-.718-.178-1.299.42-2.013.263-.409-.393-.863-1.317-.511-2.068 1.008-.163 2.093-.615 3.04-.798.066-.013.445.085.561.16.535.348.954 1.575.702 2.232-.257.667-.939 1.3-1.358 1.696ZM119.1 59.283c-.235-.224-.734-.28-.982-.213-.493.126-.675.675-.936 1.167-.257.477-.757 1.426-.705 2.016.057.624.758 1.612 1.594 1.278.212-.342.323-.756.466-1.172.319-.922.568-1.79.563-3.076Zm5.242.693c.987-.185 1.917-.378 2.388-1.116.744-1.16-.207-2.172-.983-2.6-.722-.111-1.072.208-1.543.478-.692.39-1.485.712-2.247 1.059-.57.261-1.036.604-1.406.796-.536.277-1.379.83-.748 1.487h.654c1.442-.854 2.638-2.17 4.73-2.122.043.214.249.247.233.53-.518.39-.973.844-1.498 1.223-1.057-.447-1.936.218-2.483.742-.235.22-.404.347-.42.476-.039.292.295.746.655.796.233.035.351-.104.562-.104-.092.747-.633.98-.844 1.592.112.316.241.61.372.904-1.319.46-2.343 1.269-3.883 1.482.285.72.792 1.19 1.261 1.702.355-.117.494-.507.747-.745.18-.161.39-.238.565-.422.396-.136 1.333-.464 1.59.054-.106.926-.027 1.772-.608 2.178-.196.135-.519.184-.796.211-.228.02-.591-.148-.751.16.18.215.426.365.655.584.354.329.674.77 1.312.638.539-.114.951-1.24 1.218-2.017.05-.147.154-.256.187-.374.07-.232.051-.49.095-.581.071-.151.198-.467.139-.692.26-.114.173-.622.423-.743.703-.018 1.817.458 2.2-.264.004-.43-.025-.823-.188-1.063-.345-.118-.744-.336-1.217-.425-.391-.074-.843.002-1.168-.11-.287-.095-.496-.405-.656-.583.217-.752 1.505-1.361 1.593-2.176.032-.295-.149-.56-.14-.955Zm-2.666-2.659c.011-.356.25-.458.328-.74-.208-.032-.426.054-.748 0-.447-.457-.008-1.083.044-1.7-.319.137-.581.748-.699 1.167-.111.38-.111.843-.236 1.22-.211.19-.441.35-.701.32-.59-.072-.905-1.178-.842-2.182.048-.79.289-1.555 1.124-1.43.312.212.326.53.326 1.007.41-.172.639-.55 1.028-.743-.035-.572.123-.924.284-1.272.387-.153.69-.135 1.17-.107.15.221.344.39.469.64-.101.538-.128 1.169-.377 1.54.994-.218.832-1.748 1.454-2.39.508-.114.893-.341 1.31 0 .52.428.515 1.457.186 2.021-.285.485-.891.724-1.405 1.06-.493.32-1.37.883-1.826 1.061-.258.19-.469.697-.889.528ZM86.293 60.161c-.501.158-.676.684-1.03 1.007-.106 1.36-.103 2.987-.142 4.357-.022.773-.095 1.348.28 1.75.61.152 1.082.132 1.403-.37a12.246 12.246 0 0 0-.14-1.753c.14-.419.155-.893.143-1.327-.134-.132-.312.267-.468.107-.104-1.17.018-2.446-.046-3.77Zm-.047-.266c.173-.335.403-.605.564-.955.286-.052.418-.406.656-.64.458-.45 1.096-.809.98-1.803-.09-.801-1.305-1.624-1.916-.958-.223.243-.448.581-.61.852-.248.418-.359.931-.563 1.38-.192.427-.77 1.072-.84 1.488-.035.177.059.4.045.583-.022.277-.192.576-.283.848a6.65 6.65 0 0 1-.326.848c-.263.56-.627 1.018-.703 1.649.388.046.511-.656.841-.853.153-.445.56-.678.8-1.058.11-.176.165-.4.279-.585.225-.366.483-.652.746-.903.08.07.16.142.33.107Zm4.402-2.333c.311.016.439-.519.797-.53.268-.01.552.326.653.477.158.243.353.774.232 1.116-.253.731-1.617 1.15-1.873 1.858.074 1.567-.555 3.959.372 4.725.986.142 1.92.103 2.341-.579-.038-.237.106-.477.14-.745.1-.782.027-1.718.19-2.39.371.282.277.986.374 1.54.047.267.212.488.233.744.016.184-.096.507-.096.744.002.46.193.834.096 1.116-.173.488-1.131.67-1.733.9-.673.257-1.187.496-2.106.426-.51-.386-.847-.908-1.075-1.7-.061-.212-.162-.47-.187-.638-.151-1.052.276-2.13.188-3.188-.59.129-.818 1.257-1.637.743-.543-.339-.255-.597.14-1.063.546-.646 1.086-1.226 1.545-1.856.28-1.479-.18-3.177.423-4.304.773.087 1.422.542 1.406 1.278-.019.547-.587.743-.423 1.326ZM59.284 73.215v.628h.368c.144 0 .234-.004.273-.014a.238.238 0 0 0 .145-.094.326.326 0 0 0 .055-.2.35.35 0 0 0-.043-.179.251.251 0 0 0-.124-.107c-.054-.022-.172-.034-.352-.034h-.322Zm0-.933v.543h.261c.155 0 .251-.003.289-.008a.245.245 0 0 0 .16-.084.276.276 0 0 0 .059-.184.29.29 0 0 0-.05-.177.216.216 0 0 0-.15-.082 4.036 4.036 0 0 0-.34-.008h-.229Zm-.397-.391h.787c.156 0 .272.008.349.023a.471.471 0 0 1 .205.097.615.615 0 0 1 .212.471c0 .11-.025.21-.075.303a.496.496 0 0 1-.202.206.52.52 0 0 1 .277.213.64.64 0 0 1 .096.354c0 .107-.02.211-.062.312a.609.609 0 0 1-.17.241.508.508 0 0 1-.268.112 5.57 5.57 0 0 1-.479.016h-.67V71.89ZM60.872 74.239V71.89h1.46v.397H61.27v.52h.989v.396h-.99v.64h1.101v.395h-1.498ZM62.695 74.239h.398V71.89h-.398v2.348ZM64.182 71.891h.396v1.486c0 .195-.014.344-.043.449a.635.635 0 0 1-.21.329.612.612 0 0 1-.4.124c-.194 0-.343-.065-.448-.195-.105-.13-.158-.32-.159-.57l.375-.052c.005.135.021.23.05.285.043.085.108.127.196.127.089 0 .151-.03.188-.091.037-.06.055-.185.055-.375V71.89ZM64.99 74.239h.397V71.89h-.397v2.348ZM65.77 74.239V71.89h.387l.806 1.568V71.89h.37v2.348h-.4l-.794-1.531v1.53h-.37ZM68.669 73.375v-.395h.857v.935a1.06 1.06 0 0 1-.362.254 1.13 1.13 0 0 1-.48.11.945.945 0 0 1-.539-.154.943.943 0 0 1-.345-.443 1.663 1.663 0 0 1-.116-.625c0-.245.043-.462.13-.652a.963.963 0 0 1 .377-.437.882.882 0 0 1 .471-.117c.245 0 .436.061.573.183a.86.86 0 0 1 .266.507l-.395.088a.506.506 0 0 0-.157-.273.422.422 0 0 0-.287-.1.499.499 0 0 0-.414.197c-.103.131-.154.326-.154.585 0 .278.052.487.156.627.104.139.24.209.408.209.084 0 .167-.02.25-.059a.83.83 0 0 0 .216-.141v-.299h-.455ZM70.654 71.891h.398v1.272c0 .202.005.332.015.392a.396.396 0 0 0 .122.231.376.376 0 0 0 .262.088c.113 0 .198-.028.255-.083a.343.343 0 0 0 .104-.202 3.16 3.16 0 0 0 .017-.4v-1.298h.398v1.233c0 .282-.01.481-.032.598a.718.718 0 0 1-.12.294.613.613 0 0 1-.23.192.866.866 0 0 1-.38.07c-.188 0-.33-.025-.427-.077a.638.638 0 0 1-.231-.202.698.698 0 0 1-.112-.26 3.395 3.395 0 0 1-.038-.596v-1.252ZM72.648 74.239V71.89h.387l.806 1.568V71.89h.37v2.348h-.4l-.794-1.531v1.53h-.369ZM74.619 74.239h.397V71.89h-.397v2.348ZM75.898 74.239l-.704-2.348h.431l.498 1.738.483-1.738h.421l-.705 2.348h-.424ZM77.23 74.239V71.89h1.46v.397h-1.062v.52h.989v.396h-.989v.64h1.1v.395H77.23ZM79.464 72.884h.294c.191 0 .31-.01.358-.029a.224.224 0 0 0 .111-.1.352.352 0 0 0 .04-.175.317.317 0 0 0-.052-.192.237.237 0 0 0-.15-.092 2.896 2.896 0 0 0-.29-.008h-.31v.596Zm-.397 1.355V71.89h.836c.21 0 .364.021.46.063a.48.48 0 0 1 .228.225.775.775 0 0 1 .086.37.7.7 0 0 1-.13.437.59.59 0 0 1-.39.217c.086.06.157.125.213.197.056.071.132.198.227.38l.24.459h-.475l-.288-.511a3.412 3.412 0 0 0-.21-.345.307.307 0 0 0-.119-.098.552.552 0 0 0-.2-.026h-.08v.98h-.398ZM80.951 73.475l.387-.045c.023.155.07.269.142.341a.385.385 0 0 0 .288.109c.128 0 .225-.032.29-.097a.31.31 0 0 0 .097-.226.241.241 0 0 0-.04-.142.324.324 0 0 0-.144-.102 4.335 4.335 0 0 0-.318-.102c-.214-.064-.363-.14-.45-.232a.668.668 0 0 1-.18-.473.69.69 0 0 1 .085-.336.568.568 0 0 1 .245-.237.85.85 0 0 1 .389-.082c.246 0 .432.065.557.194.125.13.191.301.197.517l-.397.021c-.017-.12-.054-.207-.11-.26-.056-.053-.14-.08-.252-.08a.4.4 0 0 0-.271.086.182.182 0 0 0-.063.145c0 .056.02.103.059.143.05.05.172.102.365.157.194.054.337.11.43.168a.606.606 0 0 1 .217.24c.052.1.079.224.079.373 0 .135-.032.26-.094.378a.6.6 0 0 1-.266.262.958.958 0 0 1-.429.085c-.249 0-.44-.068-.574-.205-.133-.138-.213-.337-.239-.6ZM82.875 74.239h.398V71.89h-.398v2.348ZM84.095 74.239v-1.95h-.585v-.398h1.565v.397h-.583v1.95h-.397ZM85.85 74.239v-.988l-.722-1.36h.466l.464.929.453-.929h.459l-.725 1.363v.985h-.396ZM88.21 73.063c0 .266.052.468.155.605a.472.472 0 0 0 .393.206.467.467 0 0 0 .39-.205c.102-.135.152-.34.152-.612 0-.27-.05-.47-.148-.602a.469.469 0 0 0-.394-.199.472.472 0 0 0-.396.201c-.1.134-.151.336-.151.606Zm-.409.016c0-.239.03-.44.09-.602a1.15 1.15 0 0 1 .183-.322.78.78 0 0 1 .255-.211.934.934 0 0 1 .425-.093c.29 0 .522.107.696.322.174.215.261.513.261.895 0 .38-.086.676-.259.89a.845.845 0 0 1-.693.32.853.853 0 0 1-.698-.319c-.173-.213-.26-.506-.26-.88ZM90.024 74.239V71.89h1.35v.397h-.952v.556h.822v.397h-.822v.998h-.398ZM93.727 73.375l.385.146c-.059.257-.157.447-.295.571a.75.75 0 0 1-.523.187.787.787 0 0 1-.645-.32c-.168-.213-.252-.504-.252-.873 0-.391.084-.695.254-.91a.806.806 0 0 1 .667-.325c.241 0 .437.085.587.255.09.1.157.244.202.432l-.394.112a.52.52 0 0 0-.146-.288.376.376 0 0 0-.269-.106.42.42 0 0 0-.355.187c-.091.126-.137.328-.137.607 0 .297.045.509.135.635a.41.41 0 0 0 .349.189c.106 0 .197-.04.272-.12.077-.08.131-.207.165-.379ZM94.455 74.239V71.89h.397v.924h.78v-.924h.397v2.348h-.397v-1.027h-.78v1.027h-.397ZM96.44 74.239V71.89h1.46v.397h-1.062v.52h.989v.396h-.99v.64h1.1v.395H96.44ZM98.27 74.239V71.89h.595l.357 1.602.353-1.602h.597v2.348h-.37V72.39l-.39 1.848h-.384l-.389-1.848v1.848h-.37ZM100.555 74.239h.397V71.89h-.397v2.348ZM102.592 73.375l.385.146c-.059.257-.158.447-.295.571a.75.75 0 0 1-.523.187.787.787 0 0 1-.645-.32c-.168-.213-.253-.504-.253-.873 0-.391.085-.695.254-.91a.808.808 0 0 1 .668-.325.75.75 0 0 1 .587.255c.089.1.157.244.202.432l-.394.112a.517.517 0 0 0-.146-.288.377.377 0 0 0-.269-.106.422.422 0 0 0-.356.187c-.09.126-.136.328-.136.607 0 .297.045.509.135.635.089.126.205.189.349.189.105 0 .197-.04.272-.12.077-.08.131-.207.165-.379ZM104.362 73.31l-.272-.871-.266.871h.538Zm.732.929h-.432l-.173-.534h-.786l-.163.534h-.422l.767-2.348h.421l.788 2.348ZM105.316 74.239V71.91h.397v1.933h.989v.396h-1.386ZM108.144 74.239v-1.95h-.585v-.398h1.565v.397h-.583v1.95h-.397ZM109.381 74.239V71.89h1.46v.397h-1.062v.52h.988v.396h-.988v.64h1.099v.395h-1.497ZM112.476 73.375l.385.146c-.059.257-.157.447-.295.571a.75.75 0 0 1-.523.187.79.79 0 0 1-.645-.32c-.168-.213-.252-.504-.252-.873 0-.391.084-.695.254-.91a.806.806 0 0 1 .667-.325c.241 0 .437.085.587.255.09.1.157.244.202.432l-.394.112a.522.522 0 0 0-.145-.288.377.377 0 0 0-.269-.106.422.422 0 0 0-.356.187c-.091.126-.137.328-.137.607 0 .297.046.509.135.635a.41.41 0 0 0 .349.189c.106 0 .197-.04.273-.12.076-.08.131-.207.164-.379ZM113.204 74.239V71.89h.398v.924h.779v-.924h.397v2.348h-.397v-1.027h-.779v1.027h-.398ZM115.193 74.239V71.89h.387l.806 1.568V71.89h.369v2.348h-.398l-.794-1.531v1.53h-.37ZM117.506 73.063c0 .266.051.468.154.605a.47.47 0 0 0 .393.206.467.467 0 0 0 .39-.205c.101-.135.152-.34.152-.612 0-.27-.05-.47-.149-.602a.466.466 0 0 0-.393-.199.472.472 0 0 0-.397.201c-.1.134-.15.336-.15.606Zm-.41.016c0-.239.03-.44.089-.602.046-.12.107-.227.184-.322a.788.788 0 0 1 .254-.211.94.94 0 0 1 .426-.093c.29 0 .521.107.696.322.174.215.261.513.261.895 0 .38-.087.676-.259.89a.846.846 0 0 1-.694.32.854.854 0 0 1-.698-.319c-.173-.213-.259-.506-.259-.88ZM119.327 74.239V71.91h.398v1.933h.989v.396h-1.387ZM121.326 73.063c0 .266.052.468.154.605a.472.472 0 0 0 .393.206.467.467 0 0 0 .39-.205c.101-.135.153-.34.153-.612 0-.27-.05-.47-.149-.602a.468.468 0 0 0-.394-.199.471.471 0 0 0-.396.201c-.101.134-.151.336-.151.606Zm-.41.016c0-.239.03-.44.09-.602.045-.12.106-.227.184-.322a.778.778 0 0 1 .254-.211.935.935 0 0 1 .425-.093.85.85 0 0 1 .696.322c.174.215.261.513.261.895 0 .38-.086.676-.258.89a.847.847 0 0 1-.694.32.853.853 0 0 1-.698-.319c-.173-.213-.26-.506-.26-.88ZM124.053 73.375v-.395h.857v.935c-.084.096-.204.181-.362.254-.158.073-.318.11-.48.11a.946.946 0 0 1-.539-.154.942.942 0 0 1-.345-.443 1.644 1.644 0 0 1-.116-.625c0-.245.043-.462.13-.652a.955.955 0 0 1 .377-.437.879.879 0 0 1 .471-.117c.245 0 .436.061.573.183a.866.866 0 0 1 .266.507l-.395.088a.512.512 0 0 0-.157-.273.42.42 0 0 0-.287-.1.497.497 0 0 0-.414.197c-.103.131-.154.326-.154.585 0 .278.052.487.156.627.103.139.24.209.408.209.084 0 .167-.02.25-.059a.833.833 0 0 0 .217-.141v-.299h-.456ZM125.794 74.239v-.988l-.721-1.36h.465l.464.929.454-.929h.458l-.724 1.363v.985h-.396Z" clip-rule="evenodd"/></g><defs><filter id="a" width="154" height="157" x="0" y="0" color-interpolation-filters="sRGB" filterUnits="userSpaceOnUse"><feFlood flood-opacity="0" result="BackgroundImageFix"/><feColorMatrix in="SourceAlpha" result="hardAlpha" values="0 0 0 0 0 0 0 0 0 0 0 0 0 0 0 0 0 0 127 0"/><feOffset dy="16"/><feGaussianBlur stdDeviation="6.5"/><feColorMatrix values="0 0 0 0 0 0 0 0 0 0 0 0 0 0 0 0 0 0 0.03 0"/><feBlend in2="BackgroundImageFix" result="effect1_dropShadow_185_164"/><feBlend in="SourceGraphic" in2="effect1_dropShadow_185_164" result="shape"/></filter></defs></svg>