<svg xmlns="http://www.w3.org/2000/svg" width="154" height="157" fill="none"><g filter="url(#a)"><path fill="#fff" d="M13 0h128v128H13z"/><path fill="#013A89" fill-rule="evenodd" d="M56.411 71.95v-1.57h.59c.12 0 .217.015.289.047a.37.37 0 0 1 .17.147.387.387 0 0 1 .062.207c0 .067-.018.13-.054.19a.392.392 0 0 1-.166.144.412.412 0 0 1 .22.142.382.382 0 0 1 .077.238.459.459 0 0 1-.163.352.48.48 0 0 1-.172.077 1.04 1.04 0 0 1-.253.027h-.6Zm.209-.91h.34a.764.764 0 0 0 .198-.019.22.22 0 0 0 .12-.078.227.227 0 0 0 .04-.137.252.252 0 0 0-.038-.138.19.19 0 0 0-.107-.081.903.903 0 0 0-.24-.022h-.313v.475Zm0 .725h.39a.933.933 0 0 0 .143-.007.34.34 0 0 0 .12-.043.226.226 0 0 0 .079-.088.276.276 0 0 0 .03-.132.261.261 0 0 0-.044-.153.237.237 0 0 0-.125-.09.785.785 0 0 0-.23-.027h-.363v.54ZM58.011 71.95v-1.57h1.136v.185h-.928v.48h.869v.185h-.87v.535h.965v.186h-1.172ZM59.628 71.95h.208v-1.57h-.208v1.57ZM60.218 71.505l.188-.026c.005.12.028.202.067.247.04.044.096.066.167.066a.245.245 0 0 0 .135-.036.184.184 0 0 0 .078-.097.659.659 0 0 0 .022-.197v-1.083h.207v1.071a.78.78 0 0 1-.047.306.341.341 0 0 1-.151.165.499.499 0 0 1-.243.056c-.138 0-.244-.04-.317-.119-.073-.079-.108-.197-.106-.353ZM61.58 71.95h.207v-1.57h-.207v1.57ZM62.274 71.95v-1.57h.213l.825 1.233v-1.234h.2v1.572h-.214l-.825-1.235v1.235h-.2ZM64.718 71.334v-.184l.666-.001v.583a1.175 1.175 0 0 1-.316.184.941.941 0 0 1-.755-.038.655.655 0 0 1-.286-.286.903.903 0 0 1-.097-.42c0-.153.033-.295.096-.428a.635.635 0 0 1 .276-.295.867.867 0 0 1 .415-.096c.114 0 .216.018.308.055a.504.504 0 0 1 .216.153.681.681 0 0 1 .12.258l-.188.051a.589.589 0 0 0-.088-.189.362.362 0 0 0-.15-.11.552.552 0 0 0-.217-.04.638.638 0 0 0-.246.043.457.457 0 0 0-.168.114.55.55 0 0 0-.1.156.824.824 0 0 0-.06.316c0 .14.025.257.073.351a.462.462 0 0 0 .21.21c.093.046.19.069.294.069.09 0 .178-.018.264-.052a.666.666 0 0 0 .195-.111v-.293h-.462ZM67.331 70.38h.208v.907c0 .158-.018.283-.053.376a.459.459 0 0 1-.194.227.683.683 0 0 1-.367.087.752.752 0 0 1-.361-.076.432.432 0 0 1-.2-.22 1.047 1.047 0 0 1-.06-.394v-.908h.207v.907c0 .137.013.237.038.302a.289.289 0 0 0 .13.15.454.454 0 0 0 .228.052c.153 0 .262-.035.327-.104.065-.07.097-.203.097-.4v-.907ZM68.005 71.95v-1.57h.214l.825 1.233v-1.234h.2v1.572h-.214l-.826-1.235v1.235h-.199ZM69.75 71.95h.208v-1.57h-.208v1.57ZM70.895 71.95l-.608-1.57h.225l.408 1.14c.033.092.06.178.082.258a3.45 3.45 0 0 1 .085-.257l.425-1.142h.212l-.615 1.572h-.214ZM72.037 71.95v-1.57h1.136v.185h-.928v.48h.869v.185h-.87v.535h.965v.186h-1.172ZM73.622 71.95v-1.57h.697c.14 0 .246.014.319.042a.35.35 0 0 1 .175.149c.043.072.065.15.065.237a.394.394 0 0 1-.108.282c-.072.076-.184.125-.335.146a.528.528 0 0 1 .126.078c.06.056.118.126.172.209l.274.428h-.262l-.208-.327a2.895 2.895 0 0 0-.15-.217.459.459 0 0 0-.106-.105.316.316 0 0 0-.094-.042.661.661 0 0 0-.116-.007h-.241v.698h-.208Zm.208-.877h.447c.094 0 .17-.01.222-.03a.238.238 0 0 0 .123-.094.255.255 0 0 0 .041-.141.234.234 0 0 0-.08-.183c-.054-.048-.14-.072-.256-.072h-.497v.52ZM75.255 71.446l.196-.017c.01.078.031.143.065.193.034.05.087.091.158.122a.598.598 0 0 0 .241.047c.08 0 .15-.012.21-.035a.294.294 0 0 0 .136-.097.226.226 0 0 0 .044-.135.203.203 0 0 0-.043-.13.313.313 0 0 0-.141-.092 2.767 2.767 0 0 0-.28-.077 1.44 1.44 0 0 1-.303-.097.429.429 0 0 1-.168-.147.36.36 0 0 1-.055-.196c0-.079.022-.153.067-.222a.417.417 0 0 1 .198-.157.753.753 0 0 1 .288-.053c.117 0 .22.018.308.056.09.037.158.092.206.165a.48.48 0 0 1 .077.248l-.2.015a.323.323 0 0 0-.109-.225c-.062-.05-.153-.076-.273-.076-.126 0-.218.023-.275.069a.207.207 0 0 0-.087.166c0 .057.02.104.061.14.04.036.145.074.314.112.169.038.285.072.348.1.091.042.16.096.202.16a.425.425 0 0 1-.007.46.474.474 0 0 1-.205.173.72.72 0 0 1-.303.061.899.899 0 0 1-.357-.062.5.5 0 0 1-.227-.187.53.53 0 0 1-.086-.282ZM76.947 71.95h.208v-1.57h-.208v1.57ZM78.044 71.95v-1.385h-.518v-.186h1.246v.186h-.52v1.386h-.208ZM79.55 71.95v-.665l-.606-.906h.253l.31.474c.057.089.11.177.159.266.047-.082.104-.175.172-.278l.304-.462h.242l-.627.906v.666h-.208ZM81.077 71.185c0-.26.07-.465.21-.612a.715.715 0 0 1 .543-.221c.145 0 .276.034.392.103.116.07.205.166.267.29a.941.941 0 0 1 .091.422c0 .16-.032.302-.096.428a.66.66 0 0 1-.273.285.781.781 0 0 1-.382.097.739.739 0 0 1-.397-.107.685.685 0 0 1-.264-.293.884.884 0 0 1-.09-.392Zm.215.004c0 .19.05.338.152.447.102.109.23.163.384.163a.5.5 0 0 0 .386-.165c.101-.11.152-.266.152-.468a.806.806 0 0 0-.065-.335.498.498 0 0 0-.47-.3.53.53 0 0 0-.38.151c-.106.101-.16.27-.16.507ZM82.98 71.95v-1.57h1.061v.185h-.852v.486h.737v.186h-.737v.714h-.208ZM84.921 71.95v-1.57h.592c.105 0 .185.004.24.014a.472.472 0 0 1 .194.074.386.386 0 0 1 .126.151.481.481 0 0 1 .047.215.484.484 0 0 1-.127.34c-.085.091-.24.138-.461.138h-.403v.639h-.208Zm.208-.824h.406c.134 0 .23-.025.286-.075a.267.267 0 0 0 .085-.21.283.283 0 0 0-.05-.17.233.233 0 0 0-.131-.092.902.902 0 0 0-.194-.014h-.402v.561ZM86.444 71.185c0-.26.07-.465.21-.612a.715.715 0 0 1 .542-.221c.145 0 .276.034.392.103.117.07.206.166.267.29a.941.941 0 0 1 .091.422c0 .16-.032.302-.096.428a.659.659 0 0 1-.273.285.782.782 0 0 1-.382.097.74.74 0 0 1-.396-.107.686.686 0 0 1-.265-.293.884.884 0 0 1-.09-.392Zm.214.004c0 .19.051.338.153.447.102.109.23.163.383.163a.5.5 0 0 0 .386-.165c.102-.11.152-.266.152-.468a.806.806 0 0 0-.065-.335.498.498 0 0 0-.47-.3.531.531 0 0 0-.38.151c-.106.101-.159.27-.159.507ZM88.266 71.446l.196-.017c.009.078.03.143.065.193.034.05.086.091.158.122a.597.597 0 0 0 .24.047.58.58 0 0 0 .21-.035.294.294 0 0 0 .136-.097.226.226 0 0 0 .045-.135.203.203 0 0 0-.043-.13.313.313 0 0 0-.141-.092 2.78 2.78 0 0 0-.28-.077 1.44 1.44 0 0 1-.303-.097.43.43 0 0 1-.169-.147.36.36 0 0 1-.054-.196c0-.079.022-.153.067-.222a.417.417 0 0 1 .197-.157.753.753 0 0 1 .288-.053c.117 0 .22.018.309.056.089.037.157.092.205.165a.48.48 0 0 1 .077.248l-.199.015a.322.322 0 0 0-.11-.225c-.06-.05-.152-.076-.273-.076-.125 0-.217.023-.275.069a.207.207 0 0 0-.086.166c0 .057.02.104.061.14.04.036.144.074.313.112.17.038.285.072.348.1a.48.48 0 0 1 .203.16.425.425 0 0 1-.007.46.474.474 0 0 1-.206.173.72.72 0 0 1-.302.061.899.899 0 0 1-.358-.062.5.5 0 0 1-.226-.187.53.53 0 0 1-.086-.282ZM90.323 71.95v-1.385h-.518v-.186h1.245v.186h-.52v1.386h-.207ZM91.315 71.446l.196-.017a.43.43 0 0 0 .065.193c.034.05.086.091.158.122a.598.598 0 0 0 .24.047.58.58 0 0 0 .21-.035.296.296 0 0 0 .137-.097.227.227 0 0 0 .044-.135.204.204 0 0 0-.043-.13.315.315 0 0 0-.141-.092 2.765 2.765 0 0 0-.28-.077 1.45 1.45 0 0 1-.303-.097.429.429 0 0 1-.168-.147.36.36 0 0 1-.055-.196c0-.079.022-.153.067-.222a.418.418 0 0 1 .197-.157.752.752 0 0 1 .289-.053c.116 0 .219.018.308.056a.444.444 0 0 1 .282.413l-.199.015a.323.323 0 0 0-.109-.225c-.062-.05-.153-.076-.274-.076-.126 0-.217.023-.275.069a.208.208 0 0 0-.086.166c0 .057.02.104.061.14.04.036.145.074.314.112.169.038.285.072.347.1.092.042.16.096.203.16a.426.426 0 0 1-.006.46.476.476 0 0 1-.207.173.718.718 0 0 1-.302.061.9.9 0 0 1-.358-.062.502.502 0 0 1-.226-.187.529.529 0 0 1-.086-.282ZM93.775 71.95l.604-1.57h.224l.643 1.57h-.237l-.183-.475h-.657l-.173.476h-.22Zm.453-.645h.534l-.165-.435a4.334 4.334 0 0 1-.11-.326 2 2 0 0 1-.086.3l-.172.461ZM95.532 71.95v-1.57h.213l.826 1.233v-1.234h.199v1.572h-.213l-.826-1.235v1.235h-.199ZM97.241 71.95v-1.57h.541c.123 0 .216.007.28.022.09.02.167.058.23.112a.64.64 0 0 1 .187.269c.041.109.061.233.061.373 0 .12-.013.225-.042.318a.758.758 0 0 1-.107.229.56.56 0 0 1-.143.142.582.582 0 0 1-.187.079 1.072 1.072 0 0 1-.253.027h-.567Zm.208-.185h.336c.103 0 .185-.01.243-.029a.351.351 0 0 0 .141-.081.493.493 0 0 0 .116-.2.975.975 0 0 0 .041-.302.732.732 0 0 0-.08-.379.407.407 0 0 0-.198-.177.806.806 0 0 0-.269-.032h-.33v1.2ZM99.797 71.95v-1.385h-.518v-.186h1.245v.186h-.519v1.386h-.208ZM100.864 71.95v-1.57H102v.185h-.928v.48h.869v.185h-.869v.535h.965v.186h-1.173ZM102.437 71.95v-1.57h.208v1.385h.774v.186h-.982ZM103.793 71.95v-1.57h1.136v.185h-.928v.48h.869v.185h-.869v.535h.964v.186h-1.172ZM106.496 71.4l.208.052a.706.706 0 0 1-.235.391.651.651 0 0 1-.416.134.747.747 0 0 1-.413-.103.645.645 0 0 1-.242-.3 1.078 1.078 0 0 1-.083-.42c0-.164.031-.307.093-.429a.648.648 0 0 1 .267-.278.782.782 0 0 1 .381-.094c.158 0 .29.04.397.12.107.08.182.192.224.337l-.205.049a.48.48 0 0 0-.159-.25.42.42 0 0 0-.261-.079.508.508 0 0 0-.303.087.453.453 0 0 0-.17.233.934.934 0 0 0-.05.302c0 .134.02.25.058.35.039.1.1.174.182.224a.507.507 0 0 0 .563-.027.518.518 0 0 0 .164-.3ZM107.019 71.185c0-.26.07-.465.21-.612a.715.715 0 0 1 .542-.221c.145 0 .276.034.392.103.117.07.206.166.267.29a.94.94 0 0 1 .091.422c0 .16-.031.302-.096.428a.656.656 0 0 1-.273.285.784.784 0 0 1-.382.097.737.737 0 0 1-.396-.107.686.686 0 0 1-.265-.293.885.885 0 0 1-.09-.392Zm.214.004c0 .19.051.338.153.447a.502.502 0 0 0 .383.163.5.5 0 0 0 .386-.165c.101-.11.152-.266.152-.468a.809.809 0 0 0-.065-.335.498.498 0 0 0-.47-.3.53.53 0 0 0-.38.151c-.106.101-.159.27-.159.507ZM108.905 71.95v-1.57h.313l.372 1.112.075.233.083-.253.377-1.093h.279v1.572h-.2v-1.316l-.457 1.316h-.187l-.455-1.338v1.338h-.2ZM110.855 71.95v-1.57h.313l.372 1.112c.034.103.06.181.075.233.018-.058.046-.142.084-.253l.376-1.093h.28v1.572h-.201v-1.316l-.456 1.316h-.188l-.454-1.338v1.338h-.201ZM113.843 70.38h.208v.907c0 .158-.018.283-.053.376a.462.462 0 0 1-.194.227.68.68 0 0 1-.367.087.75.75 0 0 1-.361-.076.43.43 0 0 1-.2-.22 1.03 1.03 0 0 1-.06-.394v-.908h.207v.907a.89.89 0 0 0 .038.302c.026.065.07.114.131.15a.455.455 0 0 0 .227.052c.153 0 .262-.035.327-.104.065-.07.097-.203.097-.4v-.907ZM114.517 71.95v-1.57h.214l.825 1.233v-1.234h.199v1.572h-.213l-.825-1.235v1.235h-.2ZM116.262 71.95h.208v-1.57h-.208v1.57ZM118.08 71.4l.208.052a.706.706 0 0 1-.235.391.651.651 0 0 1-.416.134.744.744 0 0 1-.413-.103.645.645 0 0 1-.242-.3 1.078 1.078 0 0 1-.083-.42c0-.164.031-.307.093-.429a.648.648 0 0 1 .267-.278.782.782 0 0 1 .381-.094c.157 0 .29.04.397.12.107.08.182.192.224.337l-.205.049a.48.48 0 0 0-.159-.25.42.42 0 0 0-.261-.079.508.508 0 0 0-.303.087.46.46 0 0 0-.171.233.933.933 0 0 0-.049.302c0 .134.019.25.058.35.039.1.1.174.182.224a.507.507 0 0 0 .563-.027.518.518 0 0 0 .164-.3ZM118.493 71.95l.604-1.57h.224l.643 1.57h-.237l-.184-.475h-.657l-.172.476h-.221Zm.453-.645h.533l-.164-.435a4.096 4.096 0 0 1-.111-.326c-.02.101-.048.201-.085.3l-.173.461ZM120.489 71.95v-1.385h-.518v-.186h1.246v.186h-.52v1.386h-.208ZM121.587 71.95h.208v-1.57h-.208v1.57ZM122.221 71.185c0-.26.069-.465.21-.612a.715.715 0 0 1 .542-.221c.145 0 .276.034.392.103.117.07.206.166.267.29a.94.94 0 0 1 .091.422c0 .16-.032.302-.096.428a.662.662 0 0 1-.273.285.784.784 0 0 1-.382.097.743.743 0 0 1-.397-.107.69.69 0 0 1-.264-.293.885.885 0 0 1-.09-.392Zm.214.004c0 .19.051.338.153.447a.502.502 0 0 0 .383.163.501.501 0 0 0 .386-.165c.101-.11.152-.266.152-.468a.809.809 0 0 0-.065-.335.5.5 0 0 0-.47-.3.53.53 0 0 0-.38.151c-.106.101-.159.27-.159.507ZM124.111 71.95v-1.57h.213l.826 1.233v-1.234h.199v1.572h-.213l-.826-1.235v1.235h-.199ZM125.75 71.446l.196-.017a.43.43 0 0 0 .065.193.35.35 0 0 0 .158.122.597.597 0 0 0 .241.047.584.584 0 0 0 .21-.035.296.296 0 0 0 .136-.097.23.23 0 0 0 .044-.135.202.202 0 0 0-.043-.13.319.319 0 0 0-.141-.092 2.874 2.874 0 0 0-.28-.077 1.425 1.425 0 0 1-.303-.097.428.428 0 0 1-.168-.147.356.356 0 0 1-.055-.196c0-.079.022-.153.067-.222a.42.42 0 0 1 .197-.157.757.757 0 0 1 .289-.053c.116 0 .219.018.308.056a.443.443 0 0 1 .205.165.48.48 0 0 1 .078.248l-.2.015a.322.322 0 0 0-.109-.225c-.062-.05-.153-.076-.274-.076-.126 0-.217.023-.275.069a.209.209 0 0 0-.086.166c0 .057.02.104.061.14.04.036.145.074.314.112.169.038.285.072.347.1.092.042.16.096.203.16.044.065.065.14.065.224a.433.433 0 0 1-.071.236.476.476 0 0 1-.207.173.715.715 0 0 1-.302.061.901.901 0 0 1-.358-.062.502.502 0 0 1-.226-.187.52.52 0 0 1-.086-.282ZM59.526 61.874s.762-2.698.072-2.747c-.69-.05-1.133.64-.936 1.774.197 1.134.098.64.098.64s-1.823.198-1.823.69c0 .494.591.642 1.429.346.838-.296 0 1.232 0 1.528 0 .295-1.38 1.38-1.824 1.429-.443.05-.098 1.232 1.331.345 1.43-.887 3.894-2.316 3.894-2.316s0 1.33.838 1.774c.837.443-1.134.591-.789.936.345.345 1.824.099 2.612-.837.789-.937-.986-.937-1.528-1.282s.099-2.218 1.972-2.169c1.873.05.148-1.133-1.479-.837 0 0 .296-3.155-.74-3.204-1.034-.05-1.527-.394-.886.887.64 1.282.147 3.302.147 3.302s-2.02 1.479-2.464 1.627c-.443.148.076-1.886.076-1.886ZM71.563 58.675c-.108.054.483-1.183.107-1.451-.376-.27 2.741-.323 2.258.59-.484.915-2.258.807-2.365.86Zm-4.085 2.956c.43-.215 6.933-3.547 9.567-3.117 0 0 .806.806-1.182 1.236-1.99.43-8.063 3.117-8.063 3.117s-.753-1.02-.322-1.236Zm4.627 2.683s-1.775-.197-1.026-1.46c.61-1.025 2.207-2.259 3.103-1.733.6.352.516.64.23 1.089-.25.395-.626.94-.848 1.039l-.197 1.34s2.524-.236 2.09 1.381c0 0-1.065.592-1.578-.236 0 0-.512-.67-.591-.474-.08.197.276 2.564-1.223 1.38 0 0-1.025-1.143-.118-.788l.158-1.538Zm.897-2.488s-1.22.85-.296.925c0 0 .444.11.74-.666.296-.777-.444-.259-.444-.259Zm-1.627 3.587c.037-.074-.665.407-1.072.407-.407 0-1.443-.074-.962.629.481.702 1.443.96 1.738.443.296-.517.26-1.405.296-1.479ZM80.44 58.659l1.878-2.193c.21-.243 2.019.105 1.149.836-.87.73-1.183.73-1.183.73l.116.328s2.25-.78 1.554.508l-1.392.835s-.522.627.453.313c.974-.313 2.088-.209 1.183.87-.905 1.08-.905.8-.905.8s-.279.419.87.419-.104.94-1.218 1.009l-.174.592s.23.009.488.029c.737.057.98.21.166.724-.84.53-2.418.497-2.464.325-.056-.21-.209-.278.627-.522.835-.243.208-.522-.14-.452-.161.032-.383.154-.574.276-.356.227-.308.38-.64.128-.17-.13-.32-.307-.038-.404.475-.163 1.009-.557 1.009-.557s-.244-1.01-.696-.696c-.453.313-2.158.452-1.253-.313.905-.766 1.67-1.601 1.67-1.601s-.73-.557-.104-.836c.626-.278.73-.452.73-.452l.035-.87-1.148.174Zm1.125 2.263c.456-.066.296-.266.237-.531-.042-.188-.866.622-.237.531Zm3.861-1.507c.664-.522 1.943-1.338 2.652-.544.986 1.104-.986 2.17-.986 2.17s2.17 1.932-1.262 3.549c0 0 .04 4.733-.395 4.811-.373.068-.716-.505-.78-3.446a52.111 52.111 0 0 1 .077-4.414c.026-.42.056-.74.087-.985.09-.731.089-.733.607-1.141Zm1.378.944s-.18.427-.48.526c-.3.098 1.326 1.347.708 2.037-.619.69-1.48.887-1.48.887l.006-2.957c.003-1.203 1.672-1.612 1.246-.493ZM93.876 57.333s.197-1.223 1.38-.158c1.183 1.065-.868 1.104-.868 1.104l-2.287 1.736s-.513 1.025 1.656-.119c2.17-1.143 1.46-1.38 4.141-.986 0 0 2.09 1.184-.67 2.209 0 0-1.026.118.237-.789 1.262-.907-1.144-1.222-1.539-.907-.345.276-.871.401.033.798.498.219.721.244.514.958-.094.324-.34.758-.901 1.32 0 0-.905.436.59.535.475.031.59-.016.699.573.091.489-.115 1.218-1.684 1.85 0 0-.788 1.577 1.972 1.212.204-.026.805-.115.548.34-.332.586-3.23.36-3.23-1.039l-1.636-.003c-1.728-.004-.609-1.578.216-2.679-2.317.193.53-2.688.825-2.452.549.443-.018.593-.338.853-.483.39-.97.939-.132 1.087 1.15.202.853.145.902-.606l.06-.91c.042-.634.38-1.046-.38-.956-.507.06-1.34.304-1.883 1.21-.829 1.38-.4.991-.513 1.104-.112.112-.747.541-.67-1.262.024-.586 1.306-2.23 2.165-2.957.794-.672.734.16.793-1.066Zm.163 6.868c.137-.624-.893-.23-.893.522s.749.553 1.209.43c1.245-.332-.514-.045-.316-.952Zm1.158.41c-.068-.007 0-1.607.878-.963.994.727-.526.995-.878.962ZM102.659 60.458l1.553-.333s.165-2.182-.057-2.44c-.222-.26 1.714-.128 1.706.682-.008.81-.244.686-.466.723-.221.037 0 .74 0 .74s1.406-.703 1.406.11c0 .814-1.258.407-1.812.888-.416.36-.502.651-.148.866.412.251.508-.098 1.052.492.759.822 2.216 2.516 3.718 2.426 0 0-1.282 1.516-3.254-.345-.462-.436-.548-.821-.822-1.121l-1.138-1.246s-2.404 3.106-3.328 3.18c-.925.074 2.071-1.812 2.441-3.365 0 0 .406-.555-.222-.518-.815.161-.925-.702-.629-.74ZM115.16 59.538s-.296 1.708-1.15.952c0 0-.493-.328-.658.46-.164.789-1.38.493-1.281-.887.099-1.38.559-2.858 1.413-2.07 0 0 .329 1.183.559.164.229-1.018.854-1.412.92-.295.065 1.117.821 1.281.854.033.033-1.249-.23-1.709.23-1.84.46-.132.427.164.46.492.033.33.986-.36 1.018.23.033.592-.525.69-.788.756 0 0-.277.362-.08.418.197.056 1.239-.422.76.282-.478.704-.647.281-.845.478-.197.198.789.282.789.873 0 .592-.282.902-.282.902s1.718-.17 1.944.281c.225.451.169 1.55-1.437 1.521-1.605-.028-.422-.366-.225-.479.197-.112.254-.563-.845-.281-1.098.281-2.478 1.098-3.013 1.21-.535.113-1.183-.478-.761-.731.423-.254 2.62-.76 2.986-.93.366-.169 1.182-1.042 0-1.577-.041-.018-.485-.005-.568.038Zm-2.981 2.271c-.141-.084-1.718 1.07-1.183 2.394.167.414.381.254.59.236.458-.038.889-.574.734-1.193-.225-.902 0-1.352-.141-1.437Zm2.816 2.338s.395-.901-.704-.873c-1.098.028 0-.676.873-.845.873-.169 1.69-.676 1.493.422 0 0 .084.395-.563.733l.028.507s2.028-.535 1.633.197c-.394.732-.76.76-1.323.732 0 0 .028 2.14-.93 2.478-.957.338-1.718-.112-1.52-.62.197-.506.197-.563.844-.365.648.197.338-.845.31-1.155-.028-.31-1.042.14-1.436.563-.394.423-2.338-.45-1.07-.817 1.267-.366 2.365-.957 2.365-.957ZM51.721 64c0-6.826-5.534-12.36-12.36-12.36C32.534 51.64 27 57.173 27 64s5.534 12.36 12.36 12.36c6.827 0 12.361-5.534 12.361-12.36Zm-.334 0c0-6.642-5.385-12.026-12.027-12.026-6.642 0-12.026 5.384-12.026 12.026 0 6.642 5.384 12.026 12.026 12.026 6.642 0 12.027-5.384 12.027-12.026Z" clip-rule="evenodd"/><path fill="#013A89" fill-rule="evenodd" d="M48.948 64a9.588 9.588 0 1 0-19.176 0 9.588 9.588 0 0 0 19.176 0Zm-.133 0a9.454 9.454 0 1 0-18.909 0 9.454 9.454 0 0 0 18.909 0Z" clip-rule="evenodd"/><path fill="#013A89" fill-rule="evenodd" d="M29.844 64.13s.035.148.028.254h13.352s-1.4-2.998-1.577-3.35c-.065-.13-.049-.247.17-.099.217.148.668.458 1.35 1.922 0 0 .599-.268.733-.324.133-.056.133-.113.02-.31-.237-.416-.43-.792-.696-1.206-.197-.306-.473-.549-.817-.856-.073-.065-.147-.106.247-.387 0 0 .16.138.42.377.202.187.37.34.586.63.239.323.53.806.86 1.46 0 0 .824-.375.977-.47 0 0 .027-.099-.038-.27-.09-.24-.3-.607-.474-.907-.315-.54-.492-.79-1.51-1.721-.16-.147-.042-.227.059-.354.1-.126.206-.248.422-.047.105.097.447.33.891.893.47.594 1.074 1.751 1.59 3.113l1.404-.311s-.359-2.148-1.98-3.938c-.135-.15-1.231-1.446-3.147-2.256-.957-.405-2.155-.653-3.467-.648-.824.004-3.262.096-5.442 1.98-.052.076-.09.132.084.174.13.032 1.577.345 2.82 1.615.268.275.406.42.595.772.422.785.494 1.086.613 1.599.056.244.158 1.362-.908 1.884-.215.106-1.035.597-2.291.254-.693-.142-1.336-.496-1.98-.48-.644.015-.987.1-1.89.765-.144.107-.397.359-1.004.243Zm3.731 6.287 1.074-1.105s1.848 1.77 4.697 1.75c.911-.007 1.946-.155 2.87-.692 0 0-.388-.846-.419-.934 0 0 .465-.237.542-.279.078-.041.145-.036.212.114s.279.686.439.81c0 0 .634-.406 1.287-1.014.787-.732 1.647-1.818 2.073-3.636.074-.32.247-1.244.175-2.111l1.502-.114s.028 1.629-.408 3.216c-.088.321-.31.8-.541 1.264-.257.514-.53 1.011-.749 1.301-.19.253-1.285 2.044-3.82 2.994-.253.095-3.948 1.502-7.463-.511-.272-.156-.924-.532-1.47-1.053Zm7.585-2.253.3.633.655-.312-.292-.625-.663.304Zm-.502-.997.3.633.663-.3-.305-.637-.658.304Zm-.503-1.022.287.62.655-.307-.296-.613-.646.3Zm-7.186 5.132-1.371 1.471-.228-.217a.266.266 0 0 1-.076-.108.274.274 0 0 1-.007-.119.508.508 0 0 1 .055-.157 1.097 1.097 0 0 1 .264-.318c.074-.059.13-.09.17-.094l.078-.015a.551.551 0 0 1 .096-.305 1.322 1.322 0 0 1 .335-.354c.06-.041.11-.068.151-.081a.33.33 0 0 1 .12-.017c.038.002.07.011.096.027a.496.496 0 0 1 .088.07l.23.217Zm-.72.575.438-.47-.114-.108a.833.833 0 0 0-.084-.074c-.015-.01-.038-.014-.07-.013a.232.232 0 0 0-.107.039.542.542 0 0 0-.112.091.93.93 0 0 0-.093.114.428.428 0 0 0-.061.136c-.009.04-.007.068.005.084.012.017.03.038.052.063l.146.138Zm-.181.194-.128-.122a.215.215 0 0 0-.068-.046.114.114 0 0 0-.078.002.318.318 0 0 0-.097.056.74.74 0 0 0-.173.193.243.243 0 0 0-.034.083.126.126 0 0 0 .003.069c.007.019.023.041.048.067l.13.124.397-.426Zm-1.029-1.039.2-.178.266.303.496-.442-.295-.334.2-.178.389.442-1.513 1.348-.387-.44.195-.174.293.333.423-.377-.267-.303Zm.524-1.27.084.111-1.61 1.217-.083-.11 1.61-1.218Zm-1-.36-1.187.757-.075-.119 1.22-.776c.044-.028.093-.057.147-.086a.857.857 0 0 1 .165-.068.5.5 0 0 1 .146-.022.292.292 0 0 1 .122.03c.038.02.068.048.086.085.027.05.032.102.016.154a.542.542 0 0 1-.08.155.678.678 0 0 1-.157.149l-.115.086-.076-.115a3.56 3.56 0 0 0 .089-.066.447.447 0 0 0 .07-.066.219.219 0 0 0 .043-.084.103.103 0 0 0-.009-.086.086.086 0 0 0-.053-.042.186.186 0 0 0-.086-.006.455.455 0 0 0-.115.038c-.045.02-.095.048-.15.083Zm.16-.98.066.125-1.784.94-.064-.126 1.783-.94Zm-1.64.12 1.41-.596.053.125-1.866.788-.05-.126 1.177-1.005-1.363.576-.054-.127 1.865-.787.051.12-1.223 1.032Zm-.52-1.721.04.138c-.04.02-.08.042-.122.065a.32.32 0 0 0-.106.093.156.156 0 0 0-.025.134.189.189 0 0 0 .046.076c.022.023.058.04.108.052.05.012.111.017.186.016.073 0 .146-.007.218-.02.071-.011.145-.029.222-.05.077-.022.137-.04.18-.056.078-.026.154-.059.23-.097a.646.646 0 0 0 .176-.125.28.28 0 0 0 .074-.122.213.213 0 0 0 .004-.091.958.958 0 0 0-.02-.076l-.04-.127-.466.14.052.163-.273.081-.094-.295.996-.297.063.199a.943.943 0 0 1 .036.155.327.327 0 0 1-.027.17.472.472 0 0 1-.128.172.946.946 0 0 1-.203.138 1.98 1.98 0 0 1-.232.101 3.93 3.93 0 0 1-.604.164 1.278 1.278 0 0 1-.515-.003.408.408 0 0 1-.148-.068.245.245 0 0 1-.077-.292.39.39 0 0 1 .088-.127.999.999 0 0 1 .272-.174l.088-.037Zm-.906-1.975-.015-.135 1.336-.126a1.678 1.678 0 0 1 .37.01.6.6 0 0 1 .182.053.378.378 0 0 1 .133.106.253.253 0 0 1 .06.142.22.22 0 0 1-.037.149.46.46 0 0 1-.118.122.662.662 0 0 1-.154.084c-.054.02-.111.035-.172.046-.06.01-.132.02-.213.027l-1.305.123-.015-.136 1.281-.12c.1-.01.177-.022.235-.037a.367.367 0 0 0 .14-.065.197.197 0 0 0 .069-.092.218.218 0 0 0 .007-.102.16.16 0 0 0-.041-.097.231.231 0 0 0-.093-.055.579.579 0 0 0-.156-.023c-.064-.003-.14 0-.23.007l-1.264.12Zm.477-.728 1.542.017-.003.137-2.04-.021.006-.138 1.497-.457-1.49-.016.002-.14 2.04.023-.003.131-1.55.464Zm1.587-1.146-.014.14-2.013-.197.013-.14 2.014.197Zm.099-.725-2.05-.02.027-.15 1.556.026-1.444-.56.03-.147 1.901.752-.02.099ZM29 60.648l.257.078-.112.373.639.194.123-.414.257.078-.164.545-1.947-.589.163-.542.25.076-.122.41.545.165.112-.373Zm1.306-.095-.053.128-1.868-.757.13-.314a.246.246 0 0 1 .077-.1.26.26 0 0 1 .124-.053.52.52 0 0 1 .174.01c.068.013.145.038.228.073.088.037.155.073.201.106a.7.7 0 0 1 .11.094l.047.05.067.002c.021 0 .049.004.082.01.034.007.091.023.173.049l.707.223-.053.128-.688-.222a.56.56 0 0 0-.128-.025c-.042-.002-.072.002-.09.013-.019.012-.036.034-.05.069l-.066.161.876.355Zm-1.64-.664.516.209.07-.17a.16.16 0 0 0 .01-.086.16.16 0 0 0-.057-.091.507.507 0 0 0-.15-.086.691.691 0 0 0-.099-.029.273.273 0 0 0-.095-.004.163.163 0 0 0-.13.101l-.065.156Zm1.422-.302.059-.125.083.032c.028.01.058.018.09.024.032.007.06.008.085.006a.174.174 0 0 0 .13-.084.2.2 0 0 0 .028-.061.138.138 0 0 0 .01-.065.19.19 0 0 0-.018-.066.197.197 0 0 0-.055-.066.57.57 0 0 0-.102-.068 1.228 1.228 0 0 0-.106-.05.413.413 0 0 0-.106-.022.22.22 0 0 0-.115.033 2.485 2.485 0 0 0-.146.088.676.676 0 0 1-.14.072.382.382 0 0 1-.148.014.807.807 0 0 1-.195-.04 1.043 1.043 0 0 1-.24-.12.766.766 0 0 1-.143-.108.546.546 0 0 1-.078-.102.429.429 0 0 1-.044-.101.24.24 0 0 1-.006-.097.336.336 0 0 1 .019-.081.205.205 0 0 1 .108-.115.422.422 0 0 1 .146-.032.795.795 0 0 1 .283.048l.073.028-.058.123-.064-.022a.488.488 0 0 0-.078-.018.233.233 0 0 0-.095.002.113.113 0 0 0-.068.04.31.31 0 0 0-.034.056.193.193 0 0 0-.011.103c.006.031.018.06.037.087a.408.408 0 0 0 .162.132c.042.02.082.034.12.04a.366.366 0 0 0 .097.003.287.287 0 0 0 .085-.024c.028-.013.065-.033.111-.06.046-.029.091-.054.136-.077a.393.393 0 0 1 .131-.042.414.414 0 0 1 .145.011 1.128 1.128 0 0 1 .473.243.588.588 0 0 1 .112.141.316.316 0 0 1 .044.134.243.243 0 0 1-.024.119.252.252 0 0 1-.08.107.29.29 0 0 1-.117.052.494.494 0 0 1-.138.01.853.853 0 0 1-.282-.07l-.076-.032Zm1.132-.823-.075.118-1.716-1.086.075-.118 1.716 1.086Zm-1.21-1.387-.205-.156.22-.29.22-.29.205.155-.185.245c.23.174.46.348.69.525.233.18.47.36.71.539l-.081.112c-.24-.18-.478-.361-.713-.54l-.691-.524-.17.224Zm2.334-.041-.099.104-.681-.641-1.049-.482.11-.116.788.358-.423-.746.111-.118.57 1.007.673.634Zm2.953-4.305.296-.103a.252.252 0 0 1 .114-.01c.04.004.08.027.12.069.04.041.075.087.103.138a1.524 1.524 0 0 1 .174.501.633.633 0 0 1-.004.19.28.28 0 0 1-.06.138.251.251 0 0 1-.108.071l-.138.048.279.817-.128.044-.648-1.903Zm.409.781.136-.047a.167.167 0 0 0 .073-.045.156.156 0 0 0 .035-.073.292.292 0 0 0 0-.099.734.734 0 0 0-.1-.275.262.262 0 0 0-.075-.08.084.084 0 0 0-.076-.01l-.186.064.193.565Zm1.019-1.225c.068-.013.144.016.23.085.084.069.164.182.24.338a2.284 2.284 0 0 1 .227 1.006 1.012 1.012 0 0 1-.072.392c-.044.1-.104.155-.179.167-.074.013-.153-.018-.237-.093a1.083 1.083 0 0 1-.234-.335 2.198 2.198 0 0 1-.168-.486 2.21 2.21 0 0 1-.057-.513.928.928 0 0 1 .076-.398c.048-.095.106-.15.174-.163Zm.059.264c-.044.01-.082.049-.114.117a.675.675 0 0 0-.047.29 1.88 1.88 0 0 0 .164.737c.05.11.105.193.164.25.059.056.113.08.162.071.05-.007.09-.047.12-.12a.781.781 0 0 0 .044-.287c0-.117-.015-.242-.045-.375a1.92 1.92 0 0 0-.124-.366.732.732 0 0 0-.168-.252c-.06-.051-.111-.073-.156-.065Zm1.935-.29-.008-.263h.722l.008.263h-.304l.055 1.774h-.14l-.054-1.774h-.279Zm3.765.154.117.03c-.018.345-.033.69-.055 1.035-.023.345-.058.69-.082 1.034a12.964 12.964 0 0 1-.145-.04 16.585 16.585 0 0 1 .038-.545l-.197-.053a10.15 10.15 0 0 1-.197-.053l-.234.473a7.045 7.045 0 0 0-.135-.043c.143-.3.292-.599.441-.905l.45-.933Zm-.101 1.258c.011-.14.02-.28.03-.421l.027-.422-.185.38c-.062.127-.123.254-.186.38l.157.042.157.041Zm1.02-.451-.574 1.407-.125-.051.759-1.862.124.054-.123 1.533.555-1.36.126.05-.759 1.862-.12-.048.137-1.585Zm.218 1.74.946-1.776.218.116a.5.5 0 0 1 .206.22.407.407 0 0 1 .035.192 1.054 1.054 0 0 1-.03.217 1.614 1.614 0 0 1-.078.228 3.77 3.77 0 0 1-.288.546 1.88 1.88 0 0 1-.202.26.746.746 0 0 1-.174.143.357.357 0 0 1-.27.034.78.78 0 0 1-.138-.06l-.225-.12Zm.95-1.495-.715 1.34.085.046a.45.45 0 0 0 .162.054.289.289 0 0 0 .154-.03c.054-.026.101-.06.142-.102.041-.042.085-.1.13-.17.045-.072.094-.157.147-.256.053-.098.092-.182.118-.252a.882.882 0 0 0 .047-.186.43.43 0 0 0-.054-.275.382.382 0 0 0-.13-.124l-.086-.045Zm1.82 1.133.17-.21.275.23c.091.075.181.152.271.229l-.17.208-.228-.193c-.188.234-.372.47-.558.701-.186.231-.375.453-.562.67l-.105-.093c.188-.216.377-.437.563-.666.186-.231.369-.466.557-.7l-.212-.176Zm.852 1.53-.188.19-.28-.281-.47.475.31.312-.189.19-.409-.41 1.432-1.451.407.41-.184.186-.308-.31-.401.407.28.282Zm-.613 1.086 1.544-1.298.092.107-1.339 1.125.305.356-.205.173-.397-.463Zm1.852.437-.22.155-.234-.323-.548.386.259.357-.22.155-.343-.472 1.672-1.177.34.47-.215.152-.257-.356-.468.33.234.323Zm.866.883-.074-.121c.022-.015.044-.03.067-.048a.314.314 0 0 0 .066-.068.211.211 0 0 0 .04-.096.178.178 0 0 0-.016-.104.181.181 0 0 0-.126-.092.494.494 0 0 0-.198.003 1.089 1.089 0 0 0-.227.072 2.713 2.713 0 0 0-.261.134c-.1.057-.184.108-.25.154a1.017 1.017 0 0 0-.174.15.412.412 0 0 0-.097.168.194.194 0 0 0 .019.156c.021.04.057.067.105.08.05.015.089.015.118.002l.174-.069.073.122-.093.046a1.38 1.38 0 0 1-.146.061.507.507 0 0 1-.372-.012.286.286 0 0 1-.138-.284.453.453 0 0 1 .093-.215c.055-.075.126-.147.214-.215a2.838 2.838 0 0 1 .439-.287c.102-.057.199-.104.29-.142.09-.039.181-.067.274-.084a.944.944 0 0 1 .237-.018.353.353 0 0 1 .28.17c.035.07.04.135.015.196a.56.56 0 0 1-.11.169.782.782 0 0 1-.155.129l-.067.043Zm.861.528c.029.064.018.143-.03.238a.934.934 0 0 1-.282.296 2.273 2.273 0 0 1-.953.412c-.162.028-.299.03-.41.007-.11-.024-.18-.071-.209-.14-.03-.07-.019-.151.037-.247.055-.095.149-.192.28-.29.13-.098.28-.183.446-.255a2.28 2.28 0 0 1 .5-.152.997.997 0 0 1 .417-.004c.106.028.174.073.204.135Zm-.25.108c-.02-.04-.069-.07-.145-.087a.726.726 0 0 0-.3.01 1.932 1.932 0 0 0-.7.3.782.782 0 0 0-.21.206c-.044.067-.054.124-.034.17.019.047.069.077.15.091.08.015.18.01.296-.012a1.912 1.912 0 0 0 .702-.305.697.697 0 0 0 .212-.21c.038-.067.048-.121.029-.163Zm.577.76.049.163-1.465.78 1.658-.136.049.163-1.964.568-.035-.129 1.483-.428-1.57.135-.037-.12 1.39-.73-1.48.427-.041-.126 1.963-.568Zm.406 1.482.027.168-1.556.574 1.66.086.027.168-2.022.298-.017-.13 1.526-.227-1.574-.075-.02-.123 1.475-.535-1.524.225-.024-.13 2.022-.299Zm.213 2.075.008.137-1.335.051a1.683 1.683 0 0 1-.369-.03.596.596 0 0 1-.177-.063.38.38 0 0 1-.127-.115.257.257 0 0 1-.052-.146.224.224 0 0 1 .043-.147.458.458 0 0 1 .124-.116.65.65 0 0 1 .158-.075.994.994 0 0 1 .173-.036c.061-.007.133-.013.214-.016l1.305-.05.008.137-1.282.05c-.099.003-.177.011-.235.023a.362.362 0 0 0-.142.057.196.196 0 0 0-.073.089.22.22 0 0 0-.013.102.163.163 0 0 0 .036.1.231.231 0 0 0 .09.06c.038.015.09.025.153.031.064.007.14.008.23.006l1.263-.049Zm-.514.702-1.537-.096.007-.135 2.033.127-.01.135-1.504.373 1.486.093-.006.137-2.033-.127.006-.13 1.558-.377Zm-1.65 1.053.02-.14 2.01.31-.021.139-2.009-.309Zm1.2 1.481.034-.137c.026.005.053.009.082.012.029.004.061.002.096-.004a.22.22 0 0 0 .096-.041.18.18 0 0 0 .063-.085.173.173 0 0 0-.025-.151.48.48 0 0 0-.144-.132 1.085 1.085 0 0 0-.214-.104 2.698 2.698 0 0 0-.283-.082 3.33 3.33 0 0 0-.29-.06 1.052 1.052 0 0 0-.23-.01.431.431 0 0 0-.19.053.197.197 0 0 0-.097.125.16.16 0 0 0 .019.13c.025.042.053.07.083.08l.174.07-.034.136-.1-.03a1.366 1.366 0 0 1-.148-.056.496.496 0 0 1-.164-.114.383.383 0 0 1-.094-.148.242.242 0 0 1 .002-.152.29.29 0 0 1 .1-.145.475.475 0 0 1 .22-.09c.093-.016.196-.019.307-.008a2.852 2.852 0 0 1 .52.093c.113.03.216.061.308.095s.177.077.256.127c.079.051.14.101.183.15a.339.339 0 0 1 .08.311.23.23 0 0 1-.129.15.585.585 0 0 1-.198.045.802.802 0 0 1-.203-.013l-.08-.015Zm.25.956-.043.11-2.05-.306.055-.143.542.078.148-.38-.463-.28.051-.133 1.76 1.054Zm-1.243-.217.834.134-.718-.433-.116.299Zm.654 1.02.236.12-.334.65-.235-.12.14-.274-1.588-.804.065-.126 1.587.805.129-.25Zm-2.197.31.072-.118 1.732 1.058-.073.12-1.731-1.06Zm1.178 1.89c-.042.057-.117.088-.225.093a.933.933 0 0 1-.4-.093 2.215 2.215 0 0 1-.823-.614 1.039 1.039 0 0 1-.203-.35c-.032-.107-.024-.19.024-.25.045-.062.124-.092.236-.093.111 0 .242.032.392.096.15.063.297.149.441.257.144.107.27.225.376.353.11.133.178.252.204.358.026.105.019.186-.022.244Zm-.216-.16c.026-.038.029-.095.008-.17a.692.692 0 0 0-.154-.253 1.855 1.855 0 0 0-.603-.452.778.778 0 0 0-.284-.078c-.08-.003-.136.016-.167.056-.032.04-.035.098-.009.175.026.077.078.16.154.25s.169.175.278.256c.105.078.215.142.33.195a.692.692 0 0 0 .29.077c.077 0 .13-.02.157-.056Zm-.799.61-1.122-1.041.093-.102 1.485 1.379-.095.099-1.404-.657 1.086 1.007-.094.103-1.486-1.378.09-.097 1.447.687Zm-1.326.02a6.278 6.278 0 0 1-.11.095l-.062-.06a.677.677 0 0 0-.07-.06.304.304 0 0 0-.077-.042.185.185 0 0 0-.157.016.288.288 0 0 0-.053.04.164.164 0 0 0-.04.05.172.172 0 0 0-.015.062.169.169 0 0 0 .019.079.563.563 0 0 0 .063.102c.029.038.053.07.076.094.03.03.06.053.09.071a.23.23 0 0 0 .124.027.94.94 0 0 0 .175-.023.778.778 0 0 1 .164-.021c.044 0 .093.013.146.036a.83.83 0 0 1 .17.104c.06.046.121.111.188.195a.82.82 0 0 1 .103.151.51.51 0 0 1 .04.123.39.39 0 0 1 .007.11.245.245 0 0 1-.029.095.32.32 0 0 1-.049.07.216.216 0 0 1-.147.073.432.432 0 0 1-.153-.022.862.862 0 0 1-.253-.144l-.06-.05.098-.096.056.042a.55.55 0 0 0 .069.045c.03.016.06.026.092.03a.12.12 0 0 0 .08-.014.249.249 0 0 0 .054-.04.178.178 0 0 0 .046-.094.222.222 0 0 0-.006-.095.368.368 0 0 0-.044-.096.461.461 0 0 0-.07-.085.391.391 0 0 0-.196-.115.31.31 0 0 0-.09-.006 1.088 1.088 0 0 0-.131.019c-.055.01-.108.021-.16.025a.335.335 0 0 1-.144-.022.496.496 0 0 1-.136-.085 1.527 1.527 0 0 1-.215-.221.871.871 0 0 1-.121-.195.436.436 0 0 1-.035-.157.282.282 0 0 1 .024-.13.278.278 0 0 1 .078-.095.29.29 0 0 1 .122-.063.307.307 0 0 1 .13 0c.043.01.086.026.129.05a.884.884 0 0 1 .225.17c.018.02.037.038.055.056ZM39.36 54.46c5.254 0 9.54 4.285 9.54 9.539s-4.286 9.54-9.54 9.54-9.54-4.286-9.54-9.54 4.286-9.54 9.54-9.54Zm0-.094c5.306 0 9.633 4.327 9.633 9.633 0 5.306-4.327 9.633-9.633 9.633-5.306 0-9.633-4.327-9.633-9.633 0-5.306 4.327-9.633 9.633-9.633Zm0-2.556c6.714 0 12.19 5.475 12.19 12.189 0 6.713-5.476 12.19-12.19 12.19-6.713 0-12.19-5.477-12.19-12.19 0-6.714 5.477-12.19 12.19-12.19Zm0 .156c6.628 0 12.034 5.405 12.034 12.033 0 6.628-5.406 12.033-12.034 12.033-6.628 0-12.033-5.405-12.033-12.033 0-6.628 5.405-12.033 12.033-12.033Zm-5.529 21.129c.068.038.128.07.18.094l.222.106.166-.367a3.35 3.35 0 0 0 .071-.171l.144.07c-.039.06-.07.114-.09.16-.097.209-.19.421-.291.63-.102.21-.212.42-.306.63a2.56 2.56 0 0 0-.078.209 59.588 59.588 0 0 1-.14-.066l.117-.256a3.137 3.137 0 0 0-.275-.033.805.805 0 0 0-.197.004 8.32 8.32 0 0 0 .02-.228c.057.021.14.044.253.067.113.024.202.038.267.045.047-.093.098-.185.145-.278.046-.093.089-.186.132-.28l-.22-.105a2.602 2.602 0 0 0-.185-.079l.065-.152Zm1.006-.158.137.073c-.031.05-.058.098-.08.142-.08.162-.16.326-.239.493.07 0 .148-.01.231-.024.084-.015.174-.034.271-.06a.986.986 0 0 0 .037.218.797.797 0 0 0-.277-.017c-.13.01-.238.018-.328.02a11.86 11.86 0 0 0-.266.576c-.032.077-.015.13.05.16l.158.07c.052.022.09.023.114.003a.843.843 0 0 0 .118-.168c.017.068.054.12.11.157-.081.092-.142.151-.184.176-.04.025-.087.027-.139.005-.099-.044-.2-.088-.299-.135-.105-.048-.133-.138-.079-.265.09-.213.194-.425.299-.64.103-.212.2-.424.3-.632.018-.035.04-.086.066-.152Zm1.544 1.947c.048-.038.109-.035.151-.075.04.066.073.099.131.181.059.082.11.157.156.224a1.798 1.798 0 0 0-.152.122 3.756 3.756 0 0 0-.286-.452Zm-.591-.31c.03.053.063.106.098.16-.084.038-.252.13-.503.28a.664.664 0 0 0-.094-.142c.248-.115.414-.214.499-.298Zm.022-.708 1.093.292a2.4 2.4 0 0 0-.166.57l-.462-.129-.111.488c-.021.092-.054.144-.1.156a.958.958 0 0 1-.243.01.556.556 0 0 0-.027-.213c.085.044.144.041.177.043.032.002.056-.032.072-.102l.095-.415-.469-.113c.025-.086.049-.18.072-.283.024-.104.058-.233.07-.304Zm.098.207-.065.284.797.204.074-.301-.806-.187Zm.456-.638.17.008a.996.996 0 0 0-.002.1c0 .046.003.107.003.18l.38.098c.106.027.201.048.286.064-.015.049-.03.106-.041.154a18.36 18.36 0 0 0-1.543-.4c.007-.051.015-.12.023-.17a12.268 12.268 0 0 0 .532.164c.075.02.125.032.2.05l-.003-.1a4.076 4.076 0 0 1-.005-.148Zm1.969 2.255.023-.223c.007-.061.013-.125.018-.191l.067-.926c.006-.088.01-.162.012-.221l.007-.192c.07.01.131.017.187.02l.215.014c.055.003.12.004.192.004a4.29 4.29 0 0 0-.082.232l-.157.42c.066.093.107.164.125.21a.639.639 0 0 1 .046.297.44.44 0 0 1-.044.17.24.24 0 0 1-.104.111.742.742 0 0 1-.214.057.63.63 0 0 0 0-.063.287.287 0 0 0-.012-.06.864.864 0 0 0-.052-.121.57.57 0 0 0 .113.02c.094.006.143-.042.148-.145a.62.62 0 0 1 0-.053.418.418 0 0 0-.033-.171.9.9 0 0 0-.124-.24l.085-.235.083-.284-.223-.014-.086 1.18c-.004.045-.008.118-.01.218l-.008.197a.917.917 0 0 0-.172-.01Zm-.413-1.082.202.016.033-.379-.2-.016-.035.38Zm-.048.539.201.016.036-.395-.201-.016-.036.395Zm-.299-.566.207.016.034-.379-.207-.016-.034.379Zm-.048.539.206.016.036-.395-.207-.016-.035.395Zm-.054-1.084c.067.012.13.02.189.025l.166.014.012-.13c.006-.068.01-.112.01-.132l.005-.136a.46.46 0 0 0 .158.012l-.02.163-.013.106-.01.127.16.013c.059.005.122.006.19.005a5.203 5.203 0 0 0-.038.337l-.067.748a4.177 4.177 0 0 0-.013.158l-.007.158-.08-.013a.547.547 0 0 0-.075 0c.009-.052.014-.091.017-.117l.005-.066-.548-.043-.01.106-.004.07-.003.054a.47.47 0 0 0-.151-.012l.02-.18.018-.169.069-.767.01-.158.01-.172Zm1.987.076c.069 0 .129 0 .18-.004l.374-.023-.004-.065a2.333 2.333 0 0 0-.012-.108l-.017-.142.107.002a.623.623 0 0 0 .081-.014 2.317 2.317 0 0 0 .01.25l.004.067.379-.024c.047-.003.107-.01.181-.02a1.414 1.414 0 0 0 .005.198l.045.614c.004.06.007.1.01.115l.015.117c-.08 0-.14.003-.177.01v-.033l.001-.02-.003-.048-.389.024.02.279a.425.425 0 0 0 .014.097c.004.013.017.026.038.038.02.013.123.01.308-.008a.695.695 0 0 0 .142-.023.112.112 0 0 0 .066-.048.224.224 0 0 0 .025-.08 1.5 1.5 0 0 0 .01-.154.69.69 0 0 0 .083.083c.026.02.072.04.137.06-.016.03-.03.061-.041.09-.013.03-.027.063-.045.1a.227.227 0 0 1-.07.085.267.267 0 0 1-.125.042 3.506 3.506 0 0 1-.238.018c-.192.012-.313.01-.363-.01-.05-.017-.08-.045-.087-.082a.936.936 0 0 1-.018-.132l-.025-.344-.383.024.005.065.004.036.005.038a1.054 1.054 0 0 0-.085-.003l-.028.004-.061.008-.006-.148a4.332 4.332 0 0 0-.008-.131l-.043-.604a1.67 1.67 0 0 0-.009-.093l-.012-.103Zm.227.78.384-.024-.018-.248-.384.024.018.248Zm-.029-.4.384-.023-.017-.233-.383.024.016.233Zm.581.365.389-.024-.018-.248-.389.024.018.248Zm-.028-.399.388-.024-.016-.233-.39.025.018.232Zm1.232.89.049-.03c.118-.07.222-.162.31-.272a.706.706 0 0 0 .16-.312 1.69 1.69 0 0 0 .018-.486l-.396.087-.245.069-.01-.054-.008-.041a.651.651 0 0 0-.005-.029l-.022-.073c.142-.021.226-.035.25-.04l.412-.092a2.418 2.418 0 0 0-.041-.22l-.02-.086-.01-.05-.046-.183a1.28 1.28 0 0 0 .104-.011.534.534 0 0 0 .091-.032l.03.198a3.218 3.218 0 0 0 .044.251l.02.095.429-.094.238-.068.011.072.006.039c.002.01.011.039.028.086-.12.017-.198.03-.238.038l-.401.089c.009.03.023.066.04.112.019.046.07.127.154.244a.784.784 0 0 0 .238.235c.075.04.15.072.224.095a.935.935 0 0 0 .205.039l.054.004c-.074.064-.115.12-.126.169l-.02.086-.054-.027c-.003 0-.061-.027-.175-.078a1.128 1.128 0 0 1-.317-.218 1.407 1.407 0 0 1-.269-.382 2.98 2.98 0 0 0 0 .117c0 .035 0 .064-.002.086a1.464 1.464 0 0 1-.067.273.704.704 0 0 1-.1.183c-.045.06-.082.106-.111.137-.03.031-.095.093-.195.186l-.026.024-.06-.064a.35.35 0 0 0-.15-.073Zm1.954-.747a4.88 4.88 0 0 1-.04-.124l-.029-.062c.098-.026.175-.049.23-.069l.49-.178-.014-.04-.002-.004-.015-.032-.031-.064.028-.023c.039-.03.093-.088.165-.17l-.422.152c-.026.01-.104.043-.235.1a.588.588 0 0 0-.026-.087l-.011-.027-.025-.053c.13-.037.211-.062.245-.074l.513-.186c.064-.023.132-.053.205-.09a.61.61 0 0 0 .018.064l.014.038.011.03.026.055-.055.035a1.249 1.249 0 0 0-.225.214l-.039.044.024.064.401-.146c.06-.022.144-.057.25-.106a2.716 2.716 0 0 0 .03.106c.004.014.017.04.04.08l-.26.08-.402.146.118.32c.013.036.018.07.014.103-.003.032-.083.09-.238.172l-.02-.044a.268.268 0 0 0-.033-.051.606.606 0 0 0-.095-.085l.032-.005a.293.293 0 0 0 .078-.02c.046-.018.071-.032.077-.044a.07.07 0 0 0 .005-.043.693.693 0 0 0-.034-.106l-.052-.143-.49.178c-.017.006-.09.038-.221.095Zm-.171-.525a2.366 2.366 0 0 0-.042-.128l-.054-.147a2.532 2.532 0 0 0-.053-.125c.093-.027.155-.046.186-.057l.76-.275a2.1 2.1 0 0 0 .041-.444v-.076a.709.709 0 0 0 .178.044l-.011.062-.017.083-.021.142-.023.135.214-.078a2.66 2.66 0 0 0 .172-.075l.024.087a.794.794 0 0 0 .016.05l.052.142.02.044.027.058a.623.623 0 0 0-.164.06 1.841 1.841 0 0 0-.031-.108l-.041-.112-1.17.426.04.11.022.055.033.069a1.056 1.056 0 0 0-.159.058Zm-.08-.737a.566.566 0 0 0 .109-.127l.277.196a.407.407 0 0 0-.069.055l-.056.074-.04-.05a.948.948 0 0 0-.16-.117l-.06-.031Zm.525-.358.21.267a.51.51 0 0 0-.14.09l-.033-.047a3.932 3.932 0 0 0-.066-.092l-.086-.103-.024-.03a.648.648 0 0 0 .139-.085ZM37.9 53.851c.015.16.114.409.337.28a.166.166 0 0 0 .05-.042.166.166 0 0 0 .029-.079c.033-.435-.089-.405-.313-.529a.868.868 0 0 1-.145-.096.458.458 0 0 1-.098-.127c-.138-.25-.19-.83.195-.9.246-.008.338.295.38.49h-.126c-.038-.146-.168-.343-.332-.216-.112.085-.104.284-.052.399a.358.358 0 0 0 .124.157c.027.02.067.044.118.074.218.124.31.178.363.422.01.044.029.144.033.197a.89.89 0 0 1-.012.24.495.495 0 0 1-.063.162.272.272 0 0 1-.097.097.25.25 0 0 1-.121.029c-.247.01-.371-.32-.405-.558h.135Zm2.007-.09c-.015.16.035.423.279.339a.17.17 0 0 0 .056-.033.167.167 0 0 0 .044-.072c.115-.421-.01-.415-.207-.578a.86.86 0 0 1-.124-.121.46.46 0 0 1-.073-.144c-.087-.272-.028-.851.363-.847.243.038.276.352.28.552l-.124-.024c-.01-.15-.1-.368-.285-.273-.126.062-.155.259-.126.381a.351.351 0 0 0 .092.177c.023.025.057.057.101.096.19.162.271.233.277.482 0 .045 0 .147-.006.2a.89.89 0 0 1-.057.234.496.496 0 0 1-.092.147.272.272 0 0 1-.113.077.249.249 0 0 1-.125.006c-.244-.037-.303-.384-.292-.624l.132.025Zm-7.29.665c.056-.037.136-.039.24-.006a.71.71 0 0 1 .165.08c.058.038.12.086.184.144a2.337 2.337 0 0 1 .349.391c.053.074.1.149.142.223.042.075.078.149.106.224.057.149.08.278.075.387-.005.11-.038.182-.1.222-.062.04-.144.044-.25.008a1.02 1.02 0 0 1-.337-.217 2.61 2.61 0 0 1-.48-.611 1.847 1.847 0 0 1-.11-.229.929.929 0 0 1-.08-.399c.009-.105.04-.179.096-.217Zm.155.224c-.038.025-.057.076-.061.152a.664.664 0 0 0 .066.286c.05.115.115.228.192.338.077.11.159.203.244.283a.803.803 0 0 0 .242.166c.074.03.132.028.174.002.042-.027.065-.079.065-.158a.734.734 0 0 0-.064-.279 1.614 1.614 0 0 0-.188-.327 2.025 2.025 0 0 0-.255-.29.754.754 0 0 0-.25-.17c-.073-.026-.129-.028-.165-.003Zm1.253.197.458.803-.12.065-1.011-1.775.492-.269.136.24-.373.203.285.499.344-.188.133.234-.344.188Z" clip-rule="evenodd"/></g><defs><filter id="a" width="154" height="157" x="0" y="0" color-interpolation-filters="sRGB" filterUnits="userSpaceOnUse"><feFlood flood-opacity="0" result="BackgroundImageFix"/><feColorMatrix in="SourceAlpha" result="hardAlpha" values="0 0 0 0 0 0 0 0 0 0 0 0 0 0 0 0 0 0 127 0"/><feOffset dy="16"/><feGaussianBlur stdDeviation="6.5"/><feColorMatrix values="0 0 0 0 0 0 0 0 0 0 0 0 0 0 0 0 0 0 0.03 0"/><feBlend in2="BackgroundImageFix" result="effect1_dropShadow_185_172"/><feBlend in="SourceGraphic" in2="effect1_dropShadow_185_172" result="shape"/></filter></defs></svg>