<svg xmlns="http://www.w3.org/2000/svg" width="154" height="157" fill="none"><g filter="url(#a)"><path fill="#fff" d="M13 0h128v128H13z"/><path fill="#D7000F" fill-rule="evenodd" d="M27 56.05h16.388v1.81H27v-1.81Zm16.388 10.112v-.833h-2.041v.833H36.18v-1.57h7.207v-1.817H36.18v-1.523h7.207v-1.863H27v1.863h7.186v1.528H27v1.811h7.186v1.57H27v1.812h16.388v-1.811Zm0 3.339v1.81H27v-1.81h16.388Z" clip-rule="evenodd"/><path fill="#3E3A39" fill-rule="evenodd" d="M117.984 70.475v-.744h.602l-.602-1.57v-1.047h.649l1.696 4.198h-1.115l-.324-.837h-.906Zm7.003-1.372h-.418v-.23l1.204-1.251h.141v.832h.973v.65h-.973v1.02c0 .235 0 .371.094.466a.433.433 0 0 0 .325.094.415.415 0 0 0 .23-.047c.112-.016.221-.048.324-.094v.654c-.148.058-.306.09-.465.094a1.244 1.244 0 0 1-.414.047 1.048 1.048 0 0 1-.79-.282 1.632 1.632 0 0 1-.231-.974v-.979Zm-3.611 2.209v-2.879h.879v.79c.123-.237.28-.456.466-.648a.587.587 0 0 1 .461-.189.398.398 0 0 1 .23.047c.118.044.228.107.325.189l-.231.785-.277-.136a.279.279 0 0 0-.183-.047.575.575 0 0 0-.466.23c-.144.179-.254.383-.325.602v1.256h-.879Zm-3.387-4.224v1.115l-.649 1.528h.649v.744h-.931l-.367.837h-1.114l1.852-4.224h.56Zm-10.065 4.271v-.686a.583.583 0 0 0 .461-.188c.111-.182.176-.389.188-.602a1.142 1.142 0 0 0-.188-.602.623.623 0 0 0-.461-.23v-.665a1.502 1.502 0 0 1 1.11.419 1.288 1.288 0 0 1 .466 1.047 1.356 1.356 0 0 1-.466 1.046 1.503 1.503 0 0 1-1.11.42v.041Zm2.968-.047V69.04h-.372v-.607h.388v-.324a1.115 1.115 0 0 1 .324-.832c.253-.187.568-.27.88-.23h.23a.568.568 0 0 1 .235.041v.65h-.324c-.141 0-.277 0-.325.093a.998.998 0 0 0-.094.466v.136h.372v.607h-.372v2.272h-.942Zm-2.968-2.926v.654a.566.566 0 0 0-.466.23.846.846 0 0 0-.188.603c-.01.216.056.43.188.602a.53.53 0 0 0 .466.188v.696c-.426.011-.84-.138-1.162-.419a1.473 1.473 0 0 1-.418-1.046 1.394 1.394 0 0 1 .418-1.047c.322-.28.736-.43 1.162-.419v-.042ZM91.018 71.36v-.607h.325c.179.013.358-.017.523-.09.203-.055.393-.149.56-.277v.602a1.873 1.873 0 0 1-.602.278 3.584 3.584 0 0 1-.696.094h-.11Zm0-1.345v-.419h.555a1.378 1.378 0 0 0-.183-.466.55.55 0 0 0-.372-.136v-.607a1.398 1.398 0 0 1 1.047.419 1.65 1.65 0 0 1 .372 1.209h-1.419Zm9.882 2.69h-.984l.838-1.858-1.047-2.413h.973l.56 1.392.649-1.392h.927l-1.9 4.271h-.016Zm-7.05-1.392v-2.879h.88v.372c.123-.148.284-.26.465-.325a.895.895 0 0 1 .523-.094c.18-.002.357.03.524.094a.738.738 0 0 1 .33.419c.16-.17.347-.311.554-.419.179-.062.366-.093.555-.094a.806.806 0 0 1 .696.283 1.11 1.11 0 0 1 .278.832v1.81h-.927v-1.716a.69.69 0 0 0-.094-.466.277.277 0 0 0-.277-.136.55.55 0 0 0-.372.136c-.101.1-.194.21-.277.325v1.858h-.88v-1.717a1.15 1.15 0 0 0-.094-.466.456.456 0 0 0-.649 0c-.13.085-.24.195-.324.325v1.858h-.911Zm-2.832-2.926v.607a.524.524 0 0 0-.371.136.817.817 0 0 0-.184.466h.555v.419h-.523a.618.618 0 0 0 .23.555c.09.09.202.153.325.183v.607a1.341 1.341 0 0 1-1.047-.419 1.506 1.506 0 0 1-.419-1.114c0-.382.132-.751.372-1.047a1.712 1.712 0 0 1 1.114-.372l-.052-.02Zm-4.36 2.973v-.686h.094a.346.346 0 0 0 .23-.047l.278-.141v-1.204a.613.613 0 0 0-.23-.141.585.585 0 0 0-.278-.047h-.094v-.707c.078.011.155.027.23.047.14.049.268.13.372.236v-1.57h.88v4.223h-.833v-.235a2.483 2.483 0 0 1-.371.188.65.65 0 0 1-.262.084h-.016Zm0-2.973v.717a.596.596 0 0 0-.418.189.916.916 0 0 0-.184.602.722.722 0 0 0 .184.554c.103.13.253.215.418.236v.696h-.183a1.214 1.214 0 0 1-.979-.419 1.372 1.372 0 0 1-.366-1.047 1.371 1.371 0 0 1 .366-1.046 1.215 1.215 0 0 1 .979-.42l.183-.062Zm-4.313 2.879v-.466c.047 0 .09-.047.136-.047.074-.054.153-.1.236-.136v-.696c-.126.039-.25.084-.372.136v-.46c.12-.057.245-.104.372-.142v-.094a.283.283 0 0 0-.141-.278.383.383 0 0 0-.23-.089v-.607h.088c.33-.042.663.042.932.236a.917.917 0 0 1 .277.738v1.313c.047.047.047.047.095.047h.136c.047-.047.094-.047.141-.094v.524c-.13.082-.271.145-.419.188a1.01 1.01 0 0 1-.371.047.66.66 0 0 1-.325-.094.252.252 0 0 1-.136-.23c-.13.091-.271.168-.419.23v-.026Zm0-2.879v.607h-.188c-.18-.016-.36.015-.523.09a1.707 1.707 0 0 0-.466.37v-.742c.178-.095.366-.172.56-.23.195-.059.398-.09.602-.095h.015Zm0 1.21v.46a.455.455 0 0 0-.23.141.339.339 0 0 0-.188.278.361.361 0 0 0 .094.235.371.371 0 0 0 .23.089h.094v.466c-.15.054-.306.085-.466.094a.9.9 0 0 1-.648-.188.864.864 0 0 1-.158-.602.65.65 0 0 1 .278-.555 3.014 3.014 0 0 1 1.02-.419h-.026Zm-8.285.879v-.744h.602l-.602-1.57v-1.047h.649l1.654 4.198h-1.1l-.324-.837h-.88Zm5.794.722-.419.141c-.171.04-.347.057-.523.047a1.66 1.66 0 0 1-1.204-.419 1.225 1.225 0 0 1-.466-1.046 1.23 1.23 0 0 1 .466-1.047 1.618 1.618 0 0 1 1.157-.419c.157-.01.314.006.466.047a.874.874 0 0 1 .46.142v.696a2.047 2.047 0 0 1-.413-.142 1.14 1.14 0 0 0-.372-.047.832.832 0 0 0-.602.189.885.885 0 0 0 0 1.204.885.885 0 0 0 .65.188c.123.005.247-.011.365-.047l.42-.141.015.654Zm-5.794-4.109v1.115l-.65 1.528h.65v.744h-.932l-.371.837h-1.105l1.853-4.224h.555Zm-7.47 4.187v-.466c.048 0 .09-.047.137-.047l.282-.136v-.706c-.188.047-.282.094-.418.136v-.46l.418-.142v-.094a.283.283 0 0 0-.14-.278.524.524 0 0 0-.278-.089v-.607h.136a1.183 1.183 0 0 1 .884.236.916.916 0 0 1 .278.738v1.162c0 .047.047.094.047.14 0 .048.047.048.094.048h.136c0-.047.094-.047.142-.094v.523a2.961 2.961 0 0 1-.42.189c-.12.036-.245.052-.37.047a.523.523 0 0 1-.325-.094.256.256 0 0 1-.142-.23c-.128.092-.267.169-.413.23l-.047-.006Zm-13.64-.324a3.739 3.739 0 0 1-.785.324c-.271.078-.554.11-.837.094a2.936 2.936 0 0 1-.926-.172 1.832 1.832 0 0 1-.733-.445 1.764 1.764 0 0 1-.46-.696 2.66 2.66 0 0 1-.19-.88 2.135 2.135 0 0 1 .65-1.57 2.47 2.47 0 0 1 1.753-.596c.25.009.499.039.744.088.253.058.502.137.743.236v1.02a4.743 4.743 0 0 0-.696-.37 4.06 4.06 0 0 0-.744-.095 1.306 1.306 0 0 0-.973.371 1.047 1.047 0 0 0-.372.927 1.31 1.31 0 0 0 .325.963 1.287 1.287 0 0 0 .973.325c.254-.003.505-.049.744-.137.277-.087.541-.212.785-.371v.983Zm13.64-2.554v.607h-.14c-.18-.016-.36.014-.524.089a1.863 1.863 0 0 0-.523.371l.047-.743c.169-.11.357-.188.554-.23.183-.054.37-.086.56-.094h.027Zm0 1.209v.46a1.045 1.045 0 0 0-.235.142.418.418 0 0 0-.136.277c0 .094 0 .188.094.236a.356.356 0 0 0 .23.088h.048v.466a1.36 1.36 0 0 1-.466.094.775.775 0 0 1-.602-.172.864.864 0 0 1-.23-.602.697.697 0 0 1 .324-.555 3.14 3.14 0 0 1 .974-.419v-.015Zm-5.474 1.706v-2.879h.926v.372c.118-.134.26-.244.419-.325.174-.076.365-.108.555-.094a.806.806 0 0 1 .696.283 1.109 1.109 0 0 1 .283.832v1.81h-.932v-1.716c0-.188 0-.324-.09-.419a.314.314 0 0 0-.282-.183.524.524 0 0 0-.366.136 2.249 2.249 0 0 0-.283.325v1.858h-.926Zm-2.46-3.78a.419.419 0 0 1 .141-.324.524.524 0 0 1 .626-.057.46.46 0 0 1 .07.706.418.418 0 0 1-.324.142.523.523 0 0 1-.372-.142.418.418 0 0 1-.141-.324Zm.047 3.806V68.46h.91v2.88h-.91Zm-4.36 0v-4.25h.884v1.717c.127-.142.285-.253.461-.325a.915.915 0 0 1 .523-.094.979.979 0 0 1 .744.283 1.126 1.126 0 0 1 .23.832v1.81h-.89v-1.716a.917.917 0 0 0-.094-.419.472.472 0 0 0-.325-.183.524.524 0 0 0-.324.136c-.13.083-.242.194-.325.325v1.858l-.884.026ZM78.184 56.745c.094 0 .371.095.371.048.159.08.3.19.419.324a.403.403 0 0 1 .183.466.66.66 0 0 1-.089.277.994.994 0 0 1-.884.095 1.315 1.315 0 0 1-.372-.697h-.047c-.09-.188-.325-.324-.136-.56.186-.03.376-.013.555.047ZM91.96 57.395a.81.81 0 0 1-.523 1.02c-.188.372.23.372.23.79.163-.096.32-.205.466-.324.136-.141.461.047.555-.094.02-.076.036-.153.047-.23a.162.162 0 0 1-.047-.095c-.047-.371.278-.649.696-.879.23 0 .325.414.466.46.042.048.09.095.136-.046.183-.09.23-.602.524-.602.46-.047.277.465.696.523.413-.141.366.23.277.414a2.094 2.094 0 0 1-1.115.56c-.14.047-.418.094-.465.324a2.45 2.45 0 0 0 0 .555c.047.141.277.094.277.188a1.047 1.047 0 0 1 .419 1.11c-.09.235 0 .56-.372.56-.555.047-.324-.56-.523-.466-.078.397-.11.8-.094 1.204v.047c-.12.296-.182.612-.184.932-.188.136-.141.555-.418.555a.655.655 0 0 1-.524-.602c-.089-.047-.183-.372-.183-.466.12-.249.198-.516.23-.79.03-.202.014-.408-.047-.602-.183 0-.183.277-.277.418-.047.278-.278.42-.46.65a.278.278 0 0 1-.325 0c-.189-.095 0-.23-.095-.42.184-.695.65-1.046.927-1.716.047-.136.23-.183.23-.372 0-.188.236-.555.094-.602-.141-.047-.523.278-.832.047-.324.095-.141.602-.371.744-.189.277-.555.523-.372.926-.047.838-.047 1.44-.141 2.319-.136.141-.184.602-.372.602-.366 0-.65-.65-.69-.974.23-.324.088-.649.182-.926.094-.183 0-.372.047-.602-.047-.094-.047-.189-.094-.23-.277.136-.602.737-1.02.601 0-.094-.184-.277-.095-.371.189-.094.33-.372.466-.524a.99.99 0 0 1 .419-.23c0-.136.136-.183.183-.277.047-.094.047-.23.188-.23.153-.176.292-.363.414-.56.047-.23 0-.461.047-.697.047-.235-.366-.183-.413-.413-.095-.325.183-.325.23-.524a1.23 1.23 0 0 0 .419-.136c.136-.282-.047-.466-.095-.743a.272.272 0 0 1 .142-.277c.319-.047.523-.095.69.183l.45.288ZM96.597 57.117c.095.047.236.189.325.095.141.135.372.135.466.324-.047.277-.047.785-.372.832-.136.047-.324-.047-.46 0a.843.843 0 0 0-.304.267c-.183-.042-.277.283-.46.047-.095-.089 0-.136.041-.277-.089-.047.142-.23.142-.278 0-.047 0-.14.047-.23 0-.282-.325-.324-.23-.602.094-.188.183-.33.366-.371.162.052.35.052.44.193ZM81.524 57.766a1.931 1.931 0 0 0-.136.602c-.189.189-.523.189-.743.372-.142.047-.189.047-.278.141-.089.094-.094.277.047.325.372-.048.461-.23.697-.278.088 0 0 .414.041.524a.816.816 0 0 1-.46.418c-.094.047-.325.095-.325.184-.141.14-.235.047-.235.324 0 .094-.183.188-.09.236l.461-.189c.236-.047.236-.23.524-.136.094.047.324-.235.324-.047 0 .094.094.372 0 .523-.094.152-.188.095-.324.142l-.142-.047c-.23 0-.371.277-.554.418a.737.737 0 0 1-.278.184c-.188.14-.418.047-.418.235.094.042.094.32.23.32a.665.665 0 0 0 .602-.09c.371 0 .931-.188 1.162.09.141.235-.278.56-.555.56a8.293 8.293 0 0 0-.837.46v.047c.047.047-.184.047-.095.094.542.17 1.067.388 1.57.65.281.195.595.337.927.418.31.125.64.187.974.183.696.078 1.4.062 2.093-.047.141.047-.047.419-.371.524a1.726 1.726 0 0 1-.466.554c-.184.325-.602.142-.974.142-.46-.095-1.047.047-1.528-.278-.278 0-.602-.047-.696-.282a.712.712 0 0 1-.325-.32 3.66 3.66 0 0 0-.796-.738c-.136-.047-.094-.188-.23-.235-.649-.278-.696-.743-.837-.524a2.679 2.679 0 0 1-.555.785c-.047.142-.325.189-.325.372-.094.094-.277.141-.371.236-.11.237-.293.431-.524.555-.324.047-.523.047-.837.094-.183.047-.602.047-.696-.094 0-.095.371-.278.466-.325.163-.078.319-.17.465-.277.134-.147.256-.302.367-.466.047-.047.188-.095.235-.183.23-.142.278-.372.414-.524.047-.089.047-.183-.042-.23-.089-.047-.094-.094-.141-.094-.142.047-.325.188-.419.188a1.283 1.283 0 0 1-.555-.188c-.047-.047.094-.278.141-.414.137-.047.23-.235.367-.235.188-.136.523 0 .696-.047.173-.048.372-.09.419-.23-.047-.231.141-.42-.094-.556-.372 0-.555.23-.927 0-.094-.094-.277-.282-.183-.418.366-.325.602-.189 1.047-.325.094-.047.654 0 .884-.188a.666.666 0 0 0 .047-.325.251.251 0 0 0-.324-.042c-.283.09-.607.278-.79.23-.048-.094-.325-.23-.325-.371.141-.188.372-.188.555-.277.183-.09.79-.325 1.047-.466a.644.644 0 0 0 .047-.419c-.325.188-.832.094-1.157.283-.236-.236-.743.23-.838-.236.216-.224.49-.383.79-.46a7.184 7.184 0 0 1 1.048-.236c.094-.089.188 0 .282-.047.414-.136.414-.414 1.157-.46.298-.022.623-.247.67-.069Z" clip-rule="evenodd"/><path fill="#3E3A39" fill-rule="evenodd" d="M98.179 58.557c.136.277.413.649.183.973-.183.23-.696.183-.974.136-.183.094-.277 0-.466.142a.565.565 0 0 0-.413.047c0 .23.183.047.23.23.183.047.047.419.142.56-.047.926.089 1.047 0 1.9.183.277.089 1.115.089 1.345a1.958 1.958 0 0 1-.414 1.047c-.282.089-.523.46-.837.325-.183-.095-.095-.325-.23-.466a1.598 1.598 0 0 0-.56-.325c-.278-.183-1.157.325-1.252-.183-.047-.047.142-.283.23-.325a.827.827 0 0 1 .744 0h.649c.419-.094.466-.649.555-1.046-.042-.047-.09-.23-.042-.278 0-.523.136-.931.136-1.392a1.95 1.95 0 0 1 .047-.743v-.142a1.75 1.75 0 0 1-.047-.413c-.136.042-.523 0-.65.183-.182 0-.324.047-.46-.047s-.418-.419-.324-.65c.277-.23.88-.046 1.25-.277.278 0 .461-.324.697-.277.324 0 .523-.188.79-.277.183-.094.367-.372.691-.236l.236.189ZM126.238 59.064c-.094-.089-.094-.23-.277-.277-.142-.325-.466-.372-.791-.523-.24-.03-.484.017-.696.136-.183.047-.371.188-.555.141.048-.236.278-.325.231-.56h.047c-.047-.325-.094-.414-.325-.523l-.23-.048-.466-.345h-.094v1.486a.089.089 0 0 1 .141 0l.555.09v.047c-.183.047-.413.14-.696.235v.654c.372-.141.696-.277.932-.371.183 0 .554-.142.649-.047.089 0 .042.23.089.324-.136.141-.927.325-.927.65-.136-.095-.419-.278-.649-.184-.047.042-.047.042-.094.042v1.047l.236-.047c.324-.042.371-.367.696-.414.136-.141-.189-.235-.095-.419.231.184.372-.094.697-.094.277.094.523-.371.79-.183.324.047.461-.188.691-.325.047-.35.282-.214.141-.492Zm-3.14-1.994c-.367 0-.974-.047-1.11.142-.094.324.183.554.23.648.278.325 0 .602-.094.974.047.094.325.047.419 0 .094-.047.371-.23.555-.277v-1.492.005Zm0 1.858v.65a2.712 2.712 0 0 1-.602.135c-.372.095-.649-.047-.927 0-.141.236.047.697-.141.974.047.094.141 0 .236 0 .136-.183.601-.23.785-.325v-.041a.982.982 0 0 1 .282-.095c.09-.12.22-.203.367-.235v1.047h-.089c-.278 0-.791.235-.974.14-.094.095-.235 0-.277 0-.236 0-.466-.23-.607-.046-.136.277-.278.372-.697.372-.371-.095-.23-.466-.554-.744 0-.047-.047-.094-.047-.136 0-.56.837-.696.649-1.392a.406.406 0 0 1 .23-.466c.209.063.401.174.56.325.078.097.14.206.183.324a4.57 4.57 0 0 0 1.607-.487h.016ZM112.043 59.807c-.371-.371-.413-.554-.649-.601-.089.047-.46.047-.601.094a.383.383 0 0 0-.231.136c-.141-.047-.696.141-.743 0V59.3l.141-.419c.089-.324.325-.371.367-.523.235-1.047.649-.785.837-1.204-.047-.372-.324-1.047-.696-1.204a.954.954 0 0 0-.602.325c-.277.183-.419.089-.743.277-.183.047-.278 0-.419.089-.141.089.189.696.325.696.141.094.277-.089.465-.042.142.183-.601.136-.79.414h-.047v.403c.047-.047.094-.047.283.094 0 0 .277-.094.324-.047.089.183-.324.183-.607.277v.696c.047.047.188.095.188.142 0 .047.137.277.095.324a.42.42 0 0 1-.283.136v.743h.236c.23-.047.371-.183.649-.094a3.27 3.27 0 0 1 .879-.136c.094.136 0 .183-.047.419.047.183-.047.277-.136.555.23.183.418.324.602.277.183-.047.418-.419.696-.466.183-.366.46-.183.523-.554-.047-.095.047-.555 0-.65l-.016-.02Zm-3.386-3.266v-.58c.052.19.052.39 0 .58Zm0 1.204c-.183-.094-.136-.136-.324-.183-.325.047-.414.047-.524-.141l.094-.136a3.79 3.79 0 0 0 .754-.744v-.628c-.089-.141-.277-.418-.413-.418-.137 0-.283.183-.372.324-.089.142-.278.524-.419.696-.188.325-.466-.277-.879.184-.141.094.136.523.183.648.094 0-.047.189-.047.278 0 .089-.094.094-.325.282a.297.297 0 0 0-.002.214.298.298 0 0 0 .144.158c.371-.047.555-.654.738-.654a.406.406 0 0 1 .329.371c0 .142-.188.236-.235.283-.221.087-.46.117-.696.09a.71.71 0 0 0-.278.188c-.047.277.231.277.419.46.047.047-.324.372-.047.419.153-.04.309-.072.466-.094a1.105 1.105 0 0 0 .738.465c-.089.095-1.047.142-1.67.325-.23.094-.277-.047-.277 0-.136.047.094-.277-.047-.325-.042-.047-.231-.14-.183-.23.047-.089-.095-.419.047-.324.649.523.554-.278.523-.419-.031-.141-.183.141-.324.047-.089-.188-.137-.047-.137-.188.184-.047.372-.136.414-.278.047-.047 0-.183-.042-.277-.283-.278-.607.047-.649-.047-.042-.095-.372-.136.042-.184.419-.14.932-.465.696-.884-.089-.136 0-.46-.23-.46a1.872 1.872 0 0 0-.524.554c-.094.047-.188.189-.282.142-.184.413-.649.088-.785.523-.095.277-.236.372.277.466.23.047.047.785.094.926.047.198.077.4.089.602-.089.188.607.277.607.466a3.582 3.582 0 0 1-.978.183c-.137-.23-.278-.602-.602-.649l-.278.325c-.065.29-.081.589-.047.884-.072.102-.133.21-.183.325.047.324-.277.602-.372.879a.695.695 0 0 0 .278.602c.277 0 .555-.277.696-.372.047-.277.419-.324.419-.649.089-.183 0-.696.089-.926h.235c.23 0 .372.141.602 0 .094.047.23.047.277.094.372 0 .697-.141.927-.141.419-.136.973-.136 1.392-.23a1.45 1.45 0 0 1 .602-.095v-.759h-.089c-.047 0-.235.142-.188-.23.047-.183-.555-.277-.325-.973.094-.142.278-.189.325-.23.141-.048.188-.142.277-.19v-.37.025Zm0 .696v.697a.333.333 0 0 0-.136-.047c-.047-.048-.188-.278-.141-.372.047-.094.094-.257.277-.304v.026Z" clip-rule="evenodd"/><path fill="#3E3A39" fill-rule="evenodd" d="M119.141 59.682a.742.742 0 0 1 .23-.46c.283-.372.837-.467.884-.885v-.09a1.084 1.084 0 0 0-.094-.324 1.765 1.765 0 0 0-.79-.282c-.277.044-.544.14-.785.282v.785c.094 0 .183-.047.277 0v.236c-.094.089-.094.413-.277.46v.56c.161.149.274.342.324.555-.047.142-.183.095-.324 0v1.948c.141-.048.419-.048.46-.137.231-.174.422-.395.56-.649.135-.357.151-.747.048-1.114-.095-.362-.419-.53-.513-.885Zm-.555-1.759c-.27.115-.521.27-.743.46-.453.216-.918.403-1.393.56-.094.137.236.414.372.462a.256.256 0 0 0 .277-.048c.236-.089.278-.23.419-.183a6.549 6.549 0 0 1-.277 2.178c.01.426-.054.851-.189 1.256 0 .094-.047.23-.047.277l-.042.136a9.34 9.34 0 0 0-.188 1.115l-.089.094c-.007.294.007.588.042.88.047.235.094.649.371.696.607.047.696-.524.979-.88a3.728 3.728 0 0 0-.094-1.02v-1.267c.042-.094.094-1.162.183-1.115 0 0 .183.047.183.184 0 .136-.136.743.236.743v-1.947h-.047c0-.047-.231.047-.231-.047-.141-.136 0-.325.184-.524h.094v-.523c-.142.23-.278-.136-.325-.183-.047-.048-.094-.278-.141-.42.141-.046.094-.093.188-.093a.587.587 0 0 0 .278-.047v-.744ZM56.202 56.934c-.142-.094-.142 0-.372.089h-.094c-.047.094-.372-.23-.524-.23-.188-.142-.654 0-.837.047a1.682 1.682 0 0 0-.278.047v1.57c.095-.047.23-.094.23 0a.22.22 0 0 1-.088.183c-.047.047-.094.094-.142.094v.744c.297.041.599.009.88-.095.158-.08.3-.19.419-.324 0-.047.183-.277.14-.325a.36.36 0 0 0-.37-.183h-.372c-.095-.047-.189.047-.236-.047-.089-.555.466-.324.743-.466.419-.183.419-.23.56-.554.09-.178.388-.273.34-.55Zm-2.094-.047a.56.56 0 0 1-.419.047c-.277-.047-.136-.325-.277-.523.094-.23-.142-.42-.094-.65-.09-.094-.184-.324-.278-.324l-.047-.047-.136-.094-.272.199a.796.796 0 0 0-.189.554c.066.446.081.897.047 1.346a.282.282 0 0 1-.277.14.693.693 0 0 0-.277.09v.696a.042.042 0 0 1 .042-.042c.094-.047.14-.188.33-.141h.135a.78.78 0 0 1-.11.555.56.56 0 0 1-.371.188c0 .006 0 .012-.002.018a.044.044 0 0 1-.008.015.043.043 0 0 1-.032.014v.414h.136c0 .047-.047.094-.136.14v.927c.136-.047.372-.277.46-.089-.088.461.048.833-.047 1.251v1.853a7.742 7.742 0 0 1-.235 1.858c.047.136-.047.927.141.974.278.047.602-.325.88-.419.047-.324.371-.419.371-.743a1.11 1.11 0 0 0-.047-.414c.23-.523.047-.931.141-1.439.047-.236-.047-.419.09-.602.03-.419.016-.84-.043-1.256a4.186 4.186 0 0 1 0-1.529.492.492 0 0 1 .414-.371h.141v-.743c-.094 0-.141 0-.183.047-.042.047-.1-.047-.1-.152h.048c.047-.136.089-.089.183-.136a.048.048 0 0 1 .014-.033.048.048 0 0 1 .033-.014l-.026-1.565Zm-2.22.738c-.094 0-.14.047-.188.047-.136.094-.277.324-.419.372-.14.047-.183.465-.324.602-.089.047-.325.094-.277-.09.047-.183-.095-.14 0-.235-.047-.413.14-.832-.047-1.11-.09 0-.184-.277-.23-.188-.142-.047-.278-.183-.372-.183-.048.094-.137.094-.095.183l-.042.523c0 .047.09.047 0 .136 0 .142-.094.283-.094.42 0 .135-.188.093-.277.324-.236.141-.189.649-.236.837-.089.09 0 .325-.136.325v.136c0 .094-.094.141-.047.188.047.047-.094.136-.141.23-.013.2.019.4.094.587l.277.235c.189.09.278.042.466 0 .22-.15.408-.34.555-.56l.325.277c.523.189.696-.183 1.162-.23l.047-.047v-.921c-.142.047-.325.047-.325.141-.197.066-.4.111-.607.136 0-.371.56-.418.932-.418v-.414c-.189.09-.65-.047-.524-.094.189-.278.325-.524.524-.524v-.685ZM70.207 60.687v-.23a.78.78 0 0 1-.094-.23 2.345 2.345 0 0 1-.089-.603c-.188-.235-.047-.523-.141-.837.047-.142-.277-1.02-.23-1.02.04-.439-.008-.88-.142-1.299a4.568 4.568 0 0 0-.649-.372c-.141-.047-.094-.094-.324-.094s-.372-.089-.602-.136c-.094-.141-.466-.188-.602-.188-.047.094-.283.094-.419.141v.722l.88-.141c.926.189.973.466.926.974.094.188 0 .465.094.649 0 .047.047.235 0 .324.163.398.212.833.142 1.256-.189-.235-.236-.649-.42-.79a1.604 1.604 0 0 1-.523-.141 7.944 7.944 0 0 0-.931.188c-.09.094 0 .183.047.23a.644.644 0 0 1 .618.592c0 .094 0 .282-.137.324-.136.042.047.142.047.236-.047.183-.047.183-.188.277a.194.194 0 0 1-.277-.141 2.099 2.099 0 0 1-.278-.413v2.616c.136-.14.183-.523.325-.696.277 0 .136.23.324.372.095.23.555.23.696.419.095.042.136.554.42.23.23-.23-.19-.696-.142-1.115-.047-.324-.183-.047-.325-.047a.59.59 0 0 1-.465-.46c.235-.42.465-.744.094-1.163.371-.324.696 0 .879 0 .094 0 .236-.324.372-.23a9.556 9.556 0 0 1 .047 3.062c.141.136-.09.23 0 .414a1 1 0 0 1-.105.617c-.047.367-.283.524-.56.696a.607.607 0 0 1-.325.23c-.136.231-.649-.188-.832.048-.183.235.278.371.46.413a.586.586 0 0 0 .65.142c.188 0 .371-.047.607-.047s.555-.048.691-.278c.236-.094.236-.555.325-.79.282-.832.094-1.298.188-2.094-.094-.141.047-.235 0-.33a3.855 3.855 0 0 0 0-.738 2.25 2.25 0 0 0-.047-.56l.016.01Zm-3.266 3.706v-.875a.7.7 0 0 1 .136-.094c.142-.047.283.047.325.047.112.15.236.29.372.419a.44.44 0 0 1 0 .419c-.09.183-.524.089-.833.089v-.005Zm0-8.58c-.047.048-.094.048-.14.095-.184.089-.278-.047-.462.089 0 .047-.235.047-.235.047l-.089.094v.56a.35.35 0 0 0 .183-.047c.183 0 .419-.089.65-.089h.093v-.748Zm-.926 8.899h.042c.188-.042.282-.278.523-.278a.89.89 0 0 1 .361-.041v-.875c-.188.047-.371.142-.465.095-.095-.047-.278.047-.461.089v1.02-.01Zm0-1.387c.183-.095.366-.142.413-.283.189-.136.325-.324.524-.46v-2.68c-.189-.142-.236-.524-.419-.697 0-.14.325-.23.372-.324a.047.047 0 0 0 .047-.047v-.199c-.047-.042-.047-.089-.094-.136a1.43 1.43 0 0 0-.42-.325c-.046-.047-.276.047-.37 0a.042.042 0 0 0-.043-.047v1.717c.042.047.042.136.09.183.14 0 .094.142.14.236a.35.35 0 0 1 .184.183c.094.141.236.094.325.523-.09.184-.23.23-.325.367a4.144 4.144 0 0 1-.414.141v1.869l-.01-.021Zm0-2.413v-.236c.042.094 0 .142 0 .236Zm0-.236V60.4c0 .047.042.047.042.094-.115.058-.026.152-.068.194l.026-.01Zm0-4.543c-.25.164-.514.305-.79.419h-.168l-.089.089c-.235-.09-.419.094-.56.188a3.515 3.515 0 0 1-1.047.524c-.042.047-.136.188-.042.235a.806.806 0 0 0 .785 0c.142 0 .325-.094.466.09.048.282.095.465.325.56.277.182.277.135.371.413v.047c-.094.188-.56.466-.648.607-.048-.047-.372.277-.372.23-.29.07-.594.07-.885 0-.136-.188 0-.418 0-.602 0-.183.189-.743 0-.884-.23-.047-.366.324-.523.419 0 .14-.141.23-.094.371-.09.047-.09.23-.09.372-.094.094-.094.555-.14.696-.142.277-.23.555-.372.785a5.803 5.803 0 0 0-.23 1.298c-.018.2-.089.391-.205.555-.047.324-.136.79.094 1.047.095.183.278.277.325.46.189.094.189.372.466.325a.912.912 0 0 0 .372-.738c.136-.419-.189-.838-.095-1.21.036-.796.145-1.588.325-2.365a.283.283 0 0 1 .324-.047l.602.094c.23.094 0 .188 0 .325-.047.324-.324.23-.419.523.13.195.288.371.466.523.42 0 .325-.23.65-.277.094.183-.142.419-.23.555-.048 0-.048.047-.095.141a1.89 1.89 0 0 1-.524.277 1.102 1.102 0 0 1-.418-.188c-.047.047-.236-.042-.278.047-.141.236 0 .325.09.524.235.14.277.371.523.523.246.152.371 0 .649.141.23-.047.602-.371.88-.465.14.188-.278.418-.326.523-.135.094-.183.277-.324.324-.136.278-.602.095-.785.278-.183.183-.372.523-.283.79.283.367.524.46 1.345.367.284-.167.604-.262.932-.278v-1.062c-.235.094-.466.14-.523-.042.047-.142.277-.236.523-.325v-1.858c-.148.042-.289.106-.419.189-.047-.189.325-.42.372-.608a.163.163 0 0 1 .047-.136v-.513a1.63 1.63 0 0 0-.235-.277c-.278 0-.461.047-.524-.094-.063-.142-.047-.23.094-.325a.356.356 0 0 1 .555.094c.047 0 .047 0 .094.047v-1.716a.905.905 0 0 1-.418-.524c-.189-.136-.602.047-.744-.23.142-.372.466-.277.697-.523.183 0 .23-.142.371-.095 0-.047.047-.047.094-.094l.058-.539ZM109.819 61.059c.085.19.102.405.047.607a3.632 3.632 0 0 1-.523.183c-.136.094-.602.324-.88.466-.277.141-.324.183.142.324.404-.04.806-.103 1.204-.188.324.047.554-.136.79.094.136.094.277.523.183.602 0 .23-.371.141-.555.23a8.25 8.25 0 0 1-1.046-.136c-.189-.047-.419.094-.697.094-.277.23-.094.602-.047.974.047.089 0 .23 0 .371a1.173 1.173 0 0 1-.523 1.016c-.094.047-.189.188-.325.188a.922.922 0 0 1-.79-.094 3.367 3.367 0 0 1-.602-.23c-.188-.142-.696 0-.837-.142-.047-.089.047-.183.047-.23.23-.094.837-.047 1.02-.141.142.094.555-.136.697-.09.136-.188.094-.418.094-.695a.838.838 0 0 0 .089-.743c-.231-.095-1.047.277-1.251.183a8.228 8.228 0 0 1-1.047-.09c0-.235-.461-.235-.277-.56 0 0 .047.048.047 0a9.94 9.94 0 0 1 1.622-.088l.696-.094c.142-.095-.047-.23 0-.42l.095-.135c.136-.047.418-.047.554-.094a.525.525 0 0 0 .372-.189c.094-.136.277-.366-.094-.366-.41.052-.813.145-1.204.277-.23.183-.047.089-.372.183a6.058 6.058 0 0 1-.743-.277.422.422 0 0 1-.121-.12.427.427 0 0 1-.062-.158c.094-.235.46-.14.649-.235l.047.047a4.58 4.58 0 0 0 2.073-.654c.186.023.374.023.56 0 .366.1.785-.042.968.33ZM124.663 61.524c.041.094-.142.372-.325.524a.888.888 0 0 1-.56.235c-.089.047-.602 0-.649.047-.047.047-.047.09.047.136.094.047.189 0 .278.047.088.047.235.42.235.466-.141.136-.047.278-.141.414 0 .188-.278.884-.142.973a1.195 1.195 0 0 0 1.115-.136c.231.047.838.136.974 0 .324-.277.141-.88.837-1.162.183-.047.136.095.231.142-.231.523.141.649.047.926.08.133.191.244.324.325.047.188.141.418-.047.554l-.372.094-.418.142c-.31.03-.622.014-.927-.047a4.283 4.283 0 0 0-1.115.141 3.324 3.324 0 0 0-.926.042c-.183 0-.414-.23-.649-.278-.183-.277 0-1.02.047-1.392l-.047-.324c-.136.047-.419.419-.555.523 0 .136-.183.136-.183.278-.283.183-.141.696-.56.79-.23.042-.555 0-.743.042-.136-.042-.785.33-.833.141.028-.115.074-.225.137-.324l.235-.372a.387.387 0 0 0 .183-.183c.189-.236.372-.236.524-.466.089-.047.277-.419.366-.46.188-.236.523-.33.419-.608 0-.136-.278-.089-.372-.042a.356.356 0 0 0-.23.09c-.141-.048-.696.23-.743.093-.136-.277.602-.79.743-1.02a1.21 1.21 0 0 1 .371-.183c.236.012.473-.02.697-.095.277-.188 1.156-.14 1.439-.324.314.02 1.141.063 1.288.251ZM81.942 55.82c.047.093 0 .23.094.324.062.147.078.309.047.465-.094.136-.372.23-.419.278-.141.136-.094.23-.277.324-.252.021-.5.067-.743.136h-.142a1.334 1.334 0 0 1-.879.325c-.141 0-.141-.047-.188-.136.235-.189.418-.372.696-.56.094-.183.141-.183.188-.367.047-.183.419-.418.419-.56.183-.089.183-.089.23-.23.047-.141 0-.372.183-.372 0-.094.095-.094.142-.14a.909.909 0 0 1 .649.512Z" clip-rule="evenodd"/></g><defs><filter id="a" width="154" height="157" x="0" y="0" color-interpolation-filters="sRGB" filterUnits="userSpaceOnUse"><feFlood flood-opacity="0" result="BackgroundImageFix"/><feColorMatrix in="SourceAlpha" result="hardAlpha" values="0 0 0 0 0 0 0 0 0 0 0 0 0 0 0 0 0 0 127 0"/><feOffset dy="16"/><feGaussianBlur stdDeviation="6.5"/><feColorMatrix values="0 0 0 0 0 0 0 0 0 0 0 0 0 0 0 0 0 0 0.03 0"/><feBlend in2="BackgroundImageFix" result="effect1_dropShadow_185_311"/><feBlend in="SourceGraphic" in2="effect1_dropShadow_185_311" result="shape"/></filter></defs></svg>