<svg xmlns="http://www.w3.org/2000/svg" width="154" height="157" fill="none"><g filter="url(#a)"><path fill="#fff" d="M13 0h128v128H13z"/><path fill="#363C44" fill-rule="evenodd" d="M116.668 50.547a17.004 17.004 0 0 0-.194-.141l-1.804 2.533c.79-.705 1.804-1.25 1.998-2.392ZM96.449 57.53c.47-.637.286-1.44-.595-2.236l.264 2.282.331-.046Zm18.743.165c.077-.335.295-.722.2-1-.244-.716-.625-1.386-.93-2.027-.528.776 1.186 1.917-.424 2.54l1.157.487h-.003Zm2.86.907c-.794.535-1.552 1.045-2.348 1.583.789.865 1.465.429 2.131.227l.178-.164c.352-.511.644-1.025.039-1.646ZM66.84 65.36c.289.89.531 1.803.902 2.659.093.213.601.245.918.359.09-.351.371-.843.236-1.028-.551-.756-1.232-1.418-1.865-2.115l-.19.125Zm47.762-7.276c-.406.508-.78 1.047-1.225 1.516-.453.477-.46.983-.193 1.5.113.219.462.531.581.484.239-.093.471-.374.566-.63.165-.45.248-.932.323-1.408.075-.462.097-.932.142-1.397a8.997 8.997 0 0 0-.194-.065Zm4.975-4.106c.629-.243.966-.659.72-1.342-.21-.58-.928-.784-1.669-.524.689 1.184-.648 1.579-.978 2.64.729-.294 1.325-.541 1.927-.774Zm-41.36 2.483c-.437-.641-.801-.523-1.244 0-.521.616-1.117 1.169-1.69 1.741-.256.257-.534.495-.974.898 1.949-.275 3.147-1.156 3.907-2.64Zm-17.214-4.717c-.113.47.111 1.155.42 1.566.376.496.844.073 1.167-.266.86-.902 1.701-1.824 2.67-2.867l-1.47.6c-.445.182-.89.361-1.364.553l-.258-1.107c-.484.599-1.041 1.007-1.165 1.522Zm-11.66 10.802c.671 1.963.677 4.174 2.938 5.36.316-1.872-1.231-4.602-2.938-5.36Zm63.955-10.255a92.174 92.174 0 0 0-2.594 2.023c-.224.179-.408.413-.61.622.287.207.547.52.866.603.879.23 2.054-.499 2.564-1.541.399-.813.76-1.646 1.198-2.603-.524.328-.997.58-1.424.896Zm-37.341 3.324c.288-.056.646-.115.823-.314.656-.733 1.246-1.525 1.871-2.287.31-.378.704-.703.949-1.118.395-.671-.147-1.094-.594-1.416-.16-.114-.695.014-.832.2-.59.8-1.128 1.642-1.622 2.506-.341.597-.582 1.252-.873 1.894.112.225.228.545.278.535Zm44.243-.08-2.598 2.227c.106-1.052 1.294-2.07 2.598-2.227Zm-5.005 2.158c-.252.568.12.903.527 1.085.291.13.743.15 1.02.011.823-.408 1.628-.869 2.376-1.402.65-.464 1.247-1.021 1.793-1.606.165-.177.084-.583.116-.884-.275-.022-.587-.138-.818-.048-.644.247-1.278.542-1.874.891-1.064.623-2.097 1.3-3.143 1.953h.003Zm-3.126-1.602c-.487 2.308-1.026 4.606-1.423 6.93-.188 1.11-.165 2.269-.104 3.397.021.374.461.726.707 1.088.247-.245.661-.46.712-.74.168-.925.365-1.893.252-2.808-.164-1.346-.432-2.735.173-3.942.467-.928.497-1.877.769-2.8.279-.948-.093-1.29-.919-1.505-.056.125-.14.246-.167.38ZM85.098 66.559c-.716-.308-1.337-.573-1.96-.84.488.661 1.066 1.202 1.656 1.73.609.546 1.305.359 1.533-.438.086-.298.058-.633.064-.951.023-1.454.048-2.907.059-4.359.008-.875.242-1.83-.824-2.323 1.111-1.002 2.826-.872 3.817-2.374-.48-.029-.788-.142-1.002-.044a124.642 124.642 0 0 0-3.91 1.89c-.524.262-1.022.576-1.605.91v-.87c-.356.651-.625 1.16-.002 1.665.584.475.954-.029 1.37-.276.318-.187.603-.434.804-.582v6.862Zm-1.62-10.617-1.943 3.652c-.012-2.482.244-2.96 1.942-3.652Zm-.087-1.062c-.588-.144-.557-.46-.43-.913.178-.642.389-1.292.431-1.95.015-.262-.38-.552-.587-.831-.196.173-.482.31-.57.525a9.653 9.653 0 0 0-.536 1.748c-.424 2.19-1.253 4.022-3.594 4.8-.365.119-.622.754-.798 1.203-.194.492-.236 1.044-.37 1.693l-1.084-1.707c-.482 1.615-.623 2.99-.437 4.361.069.505.622.719 1.074.252.22-.228.376-.562.458-.876.306-1.148.557-2.31.856-3.46.052-.201.188-.463.359-.541.799-.37 1.623-.685 2.459-1.027-.197.76.2 1.767-.707 2.545-.402.344-.658.888-.908 1.376-.324.628-.01 1.062.684.927.357-.07.68-.329.994-.491l.456 1.27c.103-.008.207-.013.31-.02 0-.356.098-.748-.017-1.062-.372-.998-.274-1.93.233-2.837.427-.76.817-1.548 1.325-2.25.294-.406.788-.668 1.194-.995.05.069.103.136.155.205-.19.278-.38.556-.652.95l4.839-3.54c-.062-.117-.124-.232-.184-.35-1.725-.353-2.817 1.18-4.253 1.598-.25-.225-.443-.54-.7-.603Zm-16.9.552c-.407.126-.816.251-1.29.399.188-1.531 1.89-1.637 2.484-2.718-.738-.918-1.95.632-2.54-.612 1-.586 2.043-1.103 2.97-1.78.454-.332 1.078-1.182.948-1.417-.381-.68-1.087-.287-1.688-.015l.61.155c-.899.808-1.716 1.505-2.489 2.248-.388.373-.914.792-.99 1.254-.125.751-.458 1.124-1.114 1.354-.208.073-.374.257-.63.441.407.52 1.053.985 1.078 1.482.026.484-.582 1.002-.942 1.555.552.37 1.22.908.675 1.616-.38.497-1.15.694-1.879 1.097.287.246.663.716.791.656.751-.351 1.31.327 2.293.141-.322.716-.42 1.498-.8 1.68-1.93.924-3.938 1.682-5.908 2.524-.261.11-.649.367-.646.551.004.334.179.779.434.96.19.134.669.003.936-.152.443-.258.782-.7 1.23-.94 1.175-.628 2.387-1.188 3.584-1.777-.384 1.787-1.36 3.004-2.659 4.055.667-.157 1.31-.367 1.85-.733 1.216-.82 1.974-2.014 2.404-3.4.17-.553.515-.781 1.033-.903 1.158-.27 2.308-.569 3.462-.854.559-.139.926-.488.692-1.042-.063-.149-.75-.146-1.1-.04-1.154.348-2.284.774-3.13 1.069-.478-.569-.854-.969-1.168-1.41-.12-.168-.21-.513-.12-.644.2-.292.5-.53.799-.733.496-.337.59-.84.09-1.161-.55-.354-.413-.61-.09-1.026.397-.509.708-1.085 1.056-1.633-.078-.084-.158-.165-.236-.247Zm-15.953.46c-.141.11-.564-.145-.858-.235.135-.243.212-.577.417-.712.458-.297.98-.495 1.476-.733l.275.34c-.428.458-.82.964-1.31 1.34Zm.889 2.77c-.585.237-1.182.446-1.784.635a.85.85 0 0 1-.57-.022c-.082-.04-.137-.388-.072-.446.614-.54 1.203-1.158 1.918-1.506.285-.138.87.345 1.318.545-.011.11-.02.221-.029.331-.258.157-.503.35-.781.464Zm.744-1.694c-.208-.109-.376-.29-.561-.439.16-.188.315-.385.487-.562.52-.531 1.126-1 1.538-1.604.218-.32.214-.902.086-1.294-.052-.16-.716-.234-1.063-.16-.838.178-1.652.465-2.61.747.075-.968.335-1.862.153-2.656-.181-.792-.804-1.483-1.32-2.362-.158.332-.22.403-.224.48-.058 1.192-.12 2.384-.158 3.577-.076 2.353-.013 2.177-2.185 2.364-.473 1.631.96 1.124 1.703 1.436-.184 1.066-.344 2.096-.558 3.117-.042.194-.304.34-.465.511-.15-.198-.366-.374-.436-.597-.246-.775-.443-1.568-.658-2.354-.08.01-.158.022-.238.033-.188.678-.326 1.377-.58 2.03-.255.649-.57 1.247.237 1.712-1.695 1.168-3.676 1.809-4.982 3.488 2.145-.495 4.057-1.55 6.251-2.54-.777 2.814-2.184 5.01-3.888 7.1.72-.39 1.502-.776 1.98-1.395 1.475-1.906 2.765-3.939 3.512-6.269.055-.17.301-.32.49-.402 1.012-.434 2.021-.869 3.052-1.253.617-.228 1.287-.315 1.9-.553.384-.148.706-.458 1.23-.813-1.097-.543-1.9-.93-2.693-1.342Zm72.729 8.166c-1.008-1.28-2.291-2.223-3.419-2.48l1.599 2.292c-1.407.08-2.647.156-3.889.216-.583.027-.893-.226-.966-.856-.074-.64-.274-1.267-.421-1.908.479-.546 1.033-1.136 1.528-1.771.115-.149.031-.451.037-.683-.193.095-.419.155-.576.293-.586.518-1.148 1.06-1.72 1.593a3.406 3.406 0 0 0-.043-.085l.983-1.498-.178.164c-.97.727-1.965 1.423-2.901 2.192-.85.698-.821.732.026 1.434-.337.506-.722.988-.995 1.528-.195.388-.238.851-.349 1.283.801.155.785-.572.957-.98.555-1.313 1.663-2.06 2.751-3.056-.059.738-.133 1.284-.14 1.83-.017 1.246.54 1.892 1.755 1.86a30.262 30.262 0 0 0 3.793-.356c.739-.114 1.446-.434 2.168-.663v-.349Zm-88.387-8.848.246.285-1.474 1.3-.318-.365c.516-.406 1.032-.813 1.546-1.22Zm-.498-.706c-.186.154-.596.035-.904.04.133-.368.157-.895.417-1.071.583-.395 1.285-.615 1.938-.908l.248.256c-.56.57-1.09 1.176-1.699 1.683Zm-7.07.628c.161.303.438.6.461.913.074 1.008.153 2.034.041 3.031-.111.985.402 1.508 1.054 2.022.403.32.718.238.853-.252.183-.668.312-1.353.478-2.09l1.126-.218c.04.218.104.381.092.54-.245 3.167-.506 6.332-.744 9.5-.028.357.064.725.103 1.086l.246-.004c.088-.17.23-.331.258-.51.553-3.415 1.117-6.828 1.617-10.25.094-.645.346-.972.921-1.21.58-.24 1.124-.578 1.664-.904.602-.364.772-.86.304-1.455-.357-.457-.169-.718.205-1.076a19.158 19.158 0 0 0 1.848-2.071c.162-.206.23-.773.114-.857-.285-.208-.73-.363-1.063-.296-.467.092-.88.425-1.33.622-.64.28-1.295.53-2.165.883.188-1.928.543-3.69-1.487-4.701-.075.386-.196.741-.202 1.099-.028 1.334.037 2.672-.053 4-.029.416-.42.815-.675 1.202-.202.306-.453.581-.681.872.36.11.722.217 1.081.331.05.017.09.062.235.164l-.169 1.75-1.53.805c-.582-1.015-1.157-2.045-1.764-3.056-.18-.298-.223-.884-.838-.57v.7Zm72.425-2.962c.972-.371 1.936-.762 2.916-1.106.309-.108.659-.093 1.242-.166l-2.788 4.297c1.017-.083 1.956-.158 2.896-.236.064.15.13.298.195.445-.527.485-.981 1.114-1.595 1.428-1.153.587-2.402.983-3.603 1.477-.396.163-.803.337-1.145.588-.548.402-.779.88-.282 1.544.246.331.319.793.499 1.268.485-.154.939-.332 1.41-.439 1.43-.329 1.691.161 1.209 1.245-.545.107-1.087.175-1.603.326-.719.21-.92.656-.616 1.393.459 1.111.568 2.256.012 3.385-.077.153-.18.292-.312.506l-2.884-2.236c.027-.041.055-.081.081-.123l2.653 1.241.3-.234-.98-3.082c-.537.206-1.017.386-1.491.576-.79.315-1.317.085-1.574-.685-.135-.403-.082-.621.404-.745.804-.205 1.578-.516 2.43-.804-.16-.555-.278-1.03-.435-1.49-.275-.797-.11-1.497.6-1.91 1.375-.8 2.797-1.52 4.206-2.26.466-.246.953-.453 1.43-.678-.036-.089-.073-.177-.107-.265-.568.181-1.185.276-1.695.561-2.635 1.473-5.239 2.999-7.86 4.495-.504.288-1.039.517-1.552.787-.616.323-.926-.048-1.168-.521-.283-.553.073-.761.519-.963.66-.299 1.286-.672 1.942-.981 1.755-.827 3.517-1.64 5.279-2.452.415-.193.838-.366 1.447-.629-.663-.542-1.165-1.026-1.739-1.4-.558-.366-.778-.905-.997-1.47l1.04.684 1.349-1.789-.135-.182c-.387.247-.767.505-1.164.734-.353.203-.725.37-1.088.555l-.68-.08c.191.774.254 1.585-.516 2.307.28-1.692-.82-2.767-1.357-4.129.249.197.506.384.745.593.24.208.46.436.696.66.266-.135.524-.355.807-.393 1.17-.16 1.845-.956 2.542-1.79.707-.843 1.515-1.6 2.248-2.423.274-.308.462-.698.689-1.048h.348c-.592.877-1.146 1.785-1.785 2.625-.535.703-1.172 1.328-1.852 2.086.44.11.707.18.996.254l-.184.602c-.462.504-.926 1.006-1.406 1.526l.766.727c.08-.522.145-.943.216-1.416.523-.006.971.334.911.834-.047.376-.545.697-.878 1.083.197.17.546.853 1.059.224.963-1.177 1.792-2.462 2.678-3.703-.55.054-.961.332-1.414.457-.606.168-1.247.216-1.875.315Z" clip-rule="evenodd"/><path fill="#363C44" d="M124.983 76.927a.968.968 0 0 0-.282-.227.731.731 0 0 0-.321-.071.522.522 0 0 0-.324.097.296.296 0 0 0-.13.245c0 .096.029.182.087.259.056.077.164.173.322.29.265.197.452.37.561.52a.866.866 0 0 1-.133 1.148 1.061 1.061 0 0 1-.74.266c-.163 0-.302-.008-.417-.028a3.017 3.017 0 0 1-.425-.104v-.744c.126.145.253.253.379.324a.774.774 0 0 0 .388.106.474.474 0 0 0 .319-.107.342.342 0 0 0 .127-.271.392.392 0 0 0-.103-.256 2.2 2.2 0 0 0-.384-.331c-.241-.178-.41-.339-.507-.483a.814.814 0 0 1-.146-.475c0-.256.107-.469.32-.638.213-.17.482-.254.805-.254.118 0 .22.01.307.029.086.017.185.052.297.103v.602Zm-2.736 2.527c-.256 0-.443-.073-.561-.219-.117-.144-.176-.378-.176-.699v-1.844h-.462v-.001l1.11-1.12h.005v.69h.761v.43h-.761v1.585c0 .21.037.368.113.472.074.105.188.157.338.157a.97.97 0 0 0 .253-.032c.079-.02.171-.057.279-.111l-.258.6a1.852 1.852 0 0 1-.3.074 2.493 2.493 0 0 1-.341.018Zm-3.065-.984v-1.295c0-.168-.009-.32-.03-.454a3.13 3.13 0 0 0-.108-.46h.79v.555l.509-.546c.15-.053.295-.077.434-.077a.61.61 0 0 1 .291.063l-.132.671-.03-.02a.737.737 0 0 0-.436-.129c-.125 0-.288.045-.487.133l-.149.063v1.496c0 .245.011.432.033.566.021.133.057.25.109.349h-.932a1.02 1.02 0 0 0 .108-.345c.021-.134.03-.324.03-.57Zm-3.548-1.05h1.229l-.613-1.36h-.003l-.613 1.36Zm-.969.66 1.613-3.288h.002l1.611 3.288c.187.378.34.663.458.854.118.191.234.342.348.451h-1.169c.025-.09.012-.23-.035-.42a3.717 3.717 0 0 0-.22-.623l-.154-.348h-1.744l-.022.067a4.656 4.656 0 0 0-.278.783c-.063.258-.081.438-.053.541h-1.18c.128-.122.251-.28.372-.472.12-.191.271-.469.451-.833Zm-3.505-.612c-.002-.271-.054-.48-.157-.623-.103-.145-.255-.216-.454-.216h.004a.569.569 0 0 0-.503.265c-.094.142-.152.333-.171.574h1.281Zm-.426 1.986c-.451 0-.821-.143-1.108-.432-.289-.289-.433-.659-.433-1.112 0-.492.126-.902.379-1.228.255-.327.571-.49.952-.49h.007c.373 0 .659.123.861.37.201.248.303.6.303 1.058v.282h-1.811c.032.284.119.519.259.707a.862.862 0 0 0 .728.357c.139 0 .275-.018.41-.053.133-.034.255-.084.363-.148l-.259.6a3.19 3.19 0 0 1-.345.072 2.485 2.485 0 0 1-.306.017Zm-4.628-.984v-1.295c0-.17-.009-.322-.029-.457a3.191 3.191 0 0 0-.108-.457h.79v.544l.497-.546c.168-.044.308-.066.421-.066.296 0 .521.088.677.265.154.177.231.436.231.774v1.238c0 .262.008.458.026.592.016.133.047.24.091.323h-.908c.052-.096.088-.21.108-.345a4.13 4.13 0 0 0 .029-.57v-1.15c0-.184-.044-.319-.132-.408-.088-.09-.223-.134-.405-.134-.124 0-.287.045-.487.133l-.148.063v1.496c0 .245.011.432.032.566.021.133.058.25.11.349h-.932c.052-.096.088-.21.108-.345a4.13 4.13 0 0 0 .029-.57Zm-1.17-3.514c.122 0 .227.047.312.14.085.095.128.21.128.346 0 .136-.043.25-.128.344a.41.41 0 0 1-.312.138.413.413 0 0 1-.313-.139.493.493 0 0 1-.129-.343c0-.136.044-.25.129-.346a.41.41 0 0 1 .313-.14Zm-.313 3.514v-1.295c0-.168-.009-.32-.028-.454a3.428 3.428 0 0 0-.109-.46h.932a1.122 1.122 0 0 0-.11.351 4 4 0 0 0-.031.563v1.295c0 .245.011.432.031.566.021.133.058.25.11.349h-.932c.052-.096.088-.21.109-.345a4.33 4.33 0 0 0 .028-.57Zm-3.019-.39v-1.894c0-.282-.011-.517-.035-.71a3.613 3.613 0 0 0-.13-.594h2.578l-.18.367-.185.371a2.18 2.18 0 0 0-.535-.194 3.049 3.049 0 0 0-.628-.056h-.168v1.475h1.524l-.216.364-.217.366a1.647 1.647 0 0 0-.475-.187 2.863 2.863 0 0 0-.616-.055v.747c0 .283.011.521.036.714.024.19.067.389.129.591h-1.044c.061-.2.103-.395.127-.586.024-.191.035-.432.035-.72Zm-3.171-1.388v1.778c0 .245.01.432.031.566.02.133.057.25.109.349h-.933c.053-.096.09-.21.109-.345.02-.134.03-.324.03-.57v-1.778h-.355v-.008l.238-.423h.117v-.25c0-.355.098-.63.292-.828.195-.197.468-.296.818-.296.123 0 .231.007.326.02.095.016.193.04.29.075l-.152.618a1.033 1.033 0 0 0-.241-.202.484.484 0 0 0-.238-.065c-.148 0-.258.043-.331.13-.075.087-.11.22-.11.395v.403h.654v.43h-.654Zm-2.288 1.935c.103-.188.154-.408.154-.661 0-.4-.1-.718-.3-.96-.2-.24-.473-.365-.815-.377a.814.814 0 0 0-.42.389 1.379 1.379 0 0 0-.154.666c0 .398.1.718.3.957.2.24.473.364.816.377a.83.83 0 0 0 .42-.39Zm-1.803.39c-.275-.294-.411-.66-.411-1.101 0-.494.151-.905.458-1.232a1.503 1.503 0 0 1 1.147-.491c.415 0 .76.145 1.033.438.273.295.411.66.411 1.102 0 .494-.153.904-.458 1.231-.305.326-.688.49-1.148.49a1.36 1.36 0 0 1-1.032-.438Zm-2.926-1.842-.539 1.38c-.206.522-.393.92-.558 1.192a2.12 2.12 0 0 1-.545.621h-.865c.223-.17.415-.357.578-.56a4.47 4.47 0 0 0 .48-.766l.086-.155v.001l-.773-1.713a3.066 3.066 0 0 0-.578-.913h.898c.012.067.034.148.068.243.035.096.091.234.168.414l.565 1.348.474-1.348c.048-.136.078-.252.09-.35.014-.096.013-.199-.004-.308h.942a2.508 2.508 0 0 0-.249.38c-.071.133-.15.312-.238.534ZM84.03 78.47v-1.295c0-.168-.01-.32-.03-.454a3.333 3.333 0 0 0-.109-.46h.791v.6l.409-.483.147-.082c.14-.069.3-.103.48-.103.259 0 .457.077.591.232.102.114.164.27.186.465l.486-.517.133-.072a.955.955 0 0 1 .448-.108c.254 0 .446.075.578.227.133.15.2.372.2.662v1.388c0 .266.008.465.024.599.015.134.044.239.087.316h-.902c.052-.096.088-.21.108-.345.02-.134.03-.324.03-.57v-1.19c0-.17-.04-.295-.123-.378-.083-.082-.21-.124-.377-.124-.158 0-.33.051-.519.153l-.156.091v1.448c0 .245.01.432.031.566.02.133.058.25.109.349h-.931c.05-.096.088-.21.107-.345.02-.134.03-.324.03-.57v-1.188c0-.172-.04-.297-.122-.38-.083-.082-.208-.124-.378-.124-.145 0-.322.053-.531.159l-.145.071v1.462c0 .245.011.432.032.566.022.133.058.25.11.349h-.933c.053-.096.088-.21.11-.345.018-.134.03-.324.03-.57Zm-1.148-1.002c-.002-.271-.054-.48-.157-.623a.522.522 0 0 0-.453-.216h.003a.57.57 0 0 0-.503.265c-.094.142-.151.333-.17.574h1.28Zm-.425 1.986c-.451 0-.821-.143-1.11-.432-.289-.289-.432-.659-.432-1.112 0-.492.126-.902.38-1.228.254-.327.57-.49.951-.49h.007c.373 0 .66.123.861.37.201.248.303.6.303 1.058v.282h-1.81c.031.284.118.519.258.707.18.238.421.357.728.357.139 0 .275-.018.41-.053.135-.034.254-.084.363-.148l-.259.6c-.143.037-.257.06-.345.072a2.461 2.461 0 0 1-.305.017Zm-3.4-2.82c-.292 0-.5.095-.63.284-.128.188-.191.496-.191.924 0 .34.077.612.232.811.156.201.366.301.63.301a.93.93 0 0 0 .358-.068l.192-.1v-1.97c-.152-.121-.35-.182-.591-.182Zm-.182 2.82c-.403 0-.722-.121-.957-.362-.235-.24-.354-.568-.354-.98 0-.55.163-1.007.49-1.372a1.567 1.567 0 0 1 1.224-.547c.134 0 .256.016.37.05V76c0-.204-.01-.373-.03-.506a1.914 1.914 0 0 0-.109-.409l.458-.089.46-.09a1.772 1.772 0 0 0-.098.45c-.02.174-.027.42-.027.735v2.38c0 .244.01.431.031.565.02.133.056.25.109.349h-.794v-.425l-.388.42c-.15.05-.279.075-.385.074Zm-2.606-.543v-.86h-.842c-.02 0-.047.059-.079.174-.03.116-.046.214-.046.292 0 .147.05.259.151.332.1.074.25.111.451.111.124 0 .244-.016.358-.05h.007Zm-.641.543c-.32 0-.564-.065-.737-.195-.172-.13-.26-.317-.26-.558 0-.16.061-.312.184-.453.12-.144.285-.255.49-.338l.964-.38v-.284a.527.527 0 0 0-.165-.406.641.641 0 0 0-.446-.15c-.121 0-.237.018-.35.058a1.647 1.647 0 0 0-.368.193l.179-.6c.13-.05.253-.09.373-.113.12-.024.243-.035.367-.035.353 0 .617.088.796.264.178.176.266.439.266.79v1.223c0 .262.008.458.024.592.018.133.049.24.093.323h-.77v-.299l-.508.362-.132.006Zm-1.625-.09c-.148.037-.268.06-.359.073-.09.011-.2.017-.323.017a1.46 1.46 0 0 1-1.081-.436c-.287-.292-.432-.658-.432-1.1 0-.493.16-.904.479-1.233.319-.329.716-.492 1.196-.492.128 0 .241.004.336.012.095.008.227.028.395.056l-.033.721a1.202 1.202 0 0 0-.36-.27.903.903 0 0 0-.391-.083.839.839 0 0 0-.687.312c-.169.207-.254.49-.254.843 0 .362.09.65.27.862.178.214.42.32.726.32.104 0 .212-.016.324-.044.113-.03.264-.082.454-.157l-.26.6Zm-5.5-1.945h1.23l-.612-1.36h-.005l-.613 1.36Zm-.968.66 1.612-3.287h.002l1.612 3.288c.188.378.339.663.457.854.118.191.235.342.35.451h-1.171c.025-.09.012-.23-.034-.42a3.56 3.56 0 0 0-.222-.623l-.153-.348h-1.744l-.022.067c-.12.265-.211.528-.276.783-.065.258-.083.438-.055.541h-1.18c.128-.122.253-.28.373-.472.12-.191.27-.469.45-.833Zm-3.792.391V76c0-.204-.01-.373-.03-.506a1.914 1.914 0 0 0-.11-.409l.467-.089.466-.09a2.131 2.131 0 0 0-.11.472c-.02.175-.03.413-.03.713v2.38c0 .244.01.431.03.565.022.133.058.25.11.349h-.932c.052-.096.09-.21.108-.345.02-.134.03-.324.03-.57Zm-1.443.44v-.86h-.843c-.02 0-.046.06-.076.175a1.14 1.14 0 0 0-.047.292c0 .147.05.259.15.332.1.074.25.111.451.111.124 0 .244-.016.358-.05h.007Zm-.641.544c-.32 0-.564-.065-.737-.195-.172-.13-.259-.317-.259-.558 0-.16.06-.312.181-.453.123-.144.287-.255.493-.338l.963-.38v-.284a.523.523 0 0 0-.167-.406.635.635 0 0 0-.444-.15c-.121 0-.236.018-.35.058a1.647 1.647 0 0 0-.368.193l.179-.6c.13-.05.253-.09.374-.113.12-.024.242-.035.366-.035.353 0 .619.088.795.264.177.176.267.439.267.79v1.223c0 .262.008.458.026.592.016.133.047.24.09.323H62.3v-.299l-.51.362-.131.006Zm-3.007-.984v-1.295c0-.168-.01-.32-.03-.454a3.319 3.319 0 0 0-.109-.46h.791v.555l.509-.546c.15-.053.294-.077.432-.077.114 0 .212.02.291.063l-.132.671-.03-.02a.733.733 0 0 0-.436-.129c-.124 0-.286.045-.487.133l-.147.063v1.496c0 .245.011.432.032.566.02.133.057.25.11.349h-.933a1.05 1.05 0 0 0 .109-.345c.02-.134.03-.324.03-.57Zm-1.252.984c-.257 0-.444-.073-.56-.219-.118-.144-.177-.378-.177-.699v-1.844H56.2v-.001l1.111-1.12h.005v.69h.761v.43h-.76v1.585c0 .21.037.368.11.472.077.105.19.157.34.157a.97.97 0 0 0 .254-.032c.077-.02.17-.057.279-.111l-.259.6a1.849 1.849 0 0 1-.3.074 2.5 2.5 0 0 1-.34.018ZM53.3 78.47v-1.295c0-.17-.011-.322-.03-.457a3.243 3.243 0 0 0-.11-.457h.792v.544l.496-.546c.168-.044.308-.066.421-.066.297 0 .523.088.677.265.154.177.231.436.231.774v1.238c0 .262.008.458.026.592.017.133.048.24.092.323h-.909a1.05 1.05 0 0 0 .109-.345c.02-.134.03-.324.03-.57v-1.15c0-.184-.044-.319-.132-.408-.09-.09-.224-.134-.407-.134-.124 0-.286.045-.487.133l-.147.063v1.496c0 .245.01.432.032.566.02.133.057.25.11.349h-.933a1.05 1.05 0 0 0 .109-.345c.019-.134.03-.324.03-.57Zm-1.194-1.002c-.001-.271-.054-.48-.157-.623a.523.523 0 0 0-.452-.216h.002a.57.57 0 0 0-.503.265c-.093.142-.151.333-.17.574h1.28Zm-.425 1.986c-.451 0-.821-.143-1.11-.432-.288-.289-.432-.659-.432-1.112 0-.492.127-.902.38-1.228.254-.327.57-.49.951-.49h.006c.374 0 .662.123.862.37.201.248.303.6.303 1.058v.282h-1.81c.032.284.118.519.259.707.178.238.42.357.727.357.14 0 .275-.018.41-.053.135-.034.256-.084.363-.148l-.258.6c-.144.037-.258.06-.346.072a2.459 2.459 0 0 1-.305.017Zm-1.916-.343c-.266.131-.502.22-.706.27-.205.05-.447.073-.724.073-.674 0-1.236-.21-1.684-.633-.447-.42-.671-.949-.671-1.586 0-.696.238-1.272.712-1.733.475-.46 1.07-.689 1.787-.689.227 0 .435.015.624.047.189.031.384.084.585.157v.744a2.115 2.115 0 0 0-.607-.299 2.295 2.295 0 0 0-.683-.104c-.47 0-.86.169-1.172.507-.31.337-.466.76-.466 1.267 0 .509.145.933.44 1.27.293.338.66.506 1.102.506.297 0 .56-.041.789-.124.23-.083.466-.222.711-.415l-.037.742Zm-6.997-.2v-.86h-.842c-.02 0-.045.059-.077.174a1.14 1.14 0 0 0-.046.292c0 .147.05.259.15.332.1.074.25.111.45.111.126 0 .244-.016.358-.05h.007Zm-.64.543c-.32 0-.565-.065-.738-.195-.172-.13-.259-.317-.259-.558 0-.16.06-.312.183-.453.121-.144.285-.255.491-.338l.963-.38v-.284a.522.522 0 0 0-.165-.406.641.641 0 0 0-.446-.15c-.12 0-.236.018-.349.058a1.647 1.647 0 0 0-.369.193l.18-.6c.128-.05.252-.09.373-.113a1.8 1.8 0 0 1 .366-.035c.354 0 .62.088.797.264.177.176.265.439.265.79v1.223c0 .262.01.458.026.592.017.133.048.24.091.323h-.769v-.299l-.509.362-.132.006Zm-4.046-.984v-1.295c0-.17-.01-.322-.029-.457a3.451 3.451 0 0 0-.109-.457h.791v.544l.495-.546c.17-.044.31-.066.423-.066.295 0 .521.088.676.265.154.177.231.436.231.774v1.238c0 .262.009.458.027.592.016.133.046.24.09.323h-.907a1.02 1.02 0 0 0 .107-.345c.02-.134.03-.324.03-.57v-1.15c0-.184-.044-.319-.132-.408-.088-.09-.223-.134-.406-.134-.123 0-.286.045-.486.133l-.148.063v1.496c0 .245.01.432.032.566.02.133.058.25.109.349h-.932c.051-.096.089-.21.11-.345.018-.134.028-.324.028-.57Zm-1.17-3.514c.122 0 .226.047.312.14.085.095.128.21.128.346 0 .136-.043.25-.128.344a.41.41 0 0 1-.313.138.409.409 0 0 1-.312-.139.486.486 0 0 1-.129-.343c0-.136.043-.25.13-.346a.405.405 0 0 1 .312-.14Zm-.313 3.514v-1.295c0-.168-.01-.32-.029-.454a3.333 3.333 0 0 0-.108-.46h.932c-.052.1-.09.216-.11.351-.02.134-.031.32-.031.563v1.295c0 .245.01.432.031.566.02.133.058.25.11.349h-.932c.052-.096.088-.21.108-.345.02-.134.03-.324.03-.57Zm-3.308 0V76c0-.204-.01-.373-.03-.506a1.909 1.909 0 0 0-.107-.409l.466-.089.465-.09a2.057 2.057 0 0 0-.109.472 6.061 6.061 0 0 0-.031.713v.714l.496-.546c.168-.044.308-.066.421-.066.296 0 .521.088.677.265.154.177.23.436.23.774v1.238c0 .262.01.458.026.592.018.133.048.24.092.323h-.908a1.02 1.02 0 0 0 .107-.345c.02-.134.032-.324.032-.57v-1.15c0-.184-.045-.319-.133-.408-.089-.09-.223-.134-.406-.134-.124 0-.288.045-.487.133l-.147.063v1.496c0 .245.01.432.031.566.02.133.057.25.109.349h-.931a1.02 1.02 0 0 0 .107-.345c.02-.134.03-.324.03-.57Zm-.558.641a3.56 3.56 0 0 1-.707.27c-.205.05-.446.073-.725.073-.674 0-1.235-.21-1.684-.633-.447-.42-.67-.949-.67-1.586 0-.696.237-1.272.712-1.733.474-.46 1.07-.689 1.787-.689.226 0 .434.015.624.047.188.031.384.084.584.157v.744a2.112 2.112 0 0 0-.606-.299 2.294 2.294 0 0 0-.684-.104c-.469 0-.86.169-1.171.507-.311.337-.467.76-.467 1.267 0 .509.146.933.44 1.27.293.338.66.506 1.102.506.297 0 .56-.041.79-.124a2.56 2.56 0 0 0 .71-.415l-.035.742Z"/></g><defs><filter id="a" width="154" height="157" x="0" y="0" color-interpolation-filters="sRGB" filterUnits="userSpaceOnUse"><feFlood flood-opacity="0" result="BackgroundImageFix"/><feColorMatrix in="SourceAlpha" result="hardAlpha" values="0 0 0 0 0 0 0 0 0 0 0 0 0 0 0 0 0 0 127 0"/><feOffset dy="16"/><feGaussianBlur stdDeviation="6.5"/><feColorMatrix values="0 0 0 0 0 0 0 0 0 0 0 0 0 0 0 0 0 0 0.03 0"/><feBlend in2="BackgroundImageFix" result="effect1_dropShadow_185_286"/><feBlend in="SourceGraphic" in2="effect1_dropShadow_185_286" result="shape"/></filter></defs></svg>