<svg xmlns="http://www.w3.org/2000/svg" width="154" height="157" fill="none"><g filter="url(#a)"><path fill="#fff" d="M13 0h128v128H13z"/><path fill="#811F45" fill-rule="evenodd" d="M40.064 59.913c-.645 0-1.168-.439-1.168-.98 0-.54.523-.978 1.168-.978.645 0 1.166.438 1.166.979 0 .54-.521.98-1.166.98Zm.689-4.444c-1.133-.465-2.183.178-2.451 1.343a9.678 9.678 0 0 0-.256 1.924c-.013.751.112 1.368.185 1.984.065.537.25 1.044.62 1.443.446.482 1.011.676 1.663.487.648-.187 1.077-.625 1.226-1.277.355-1.557.37-3.124-.013-4.68-.133-.545-.427-1-.974-1.224Z" clip-rule="evenodd"/><path fill="#811F45" fill-rule="evenodd" d="M48.82 64.863c-.429.378-.954.537-1.508.607-.204.026-.413.022-.62.018-.256-.003-.332.12-.34.367-.015.439-.025.885-.113 1.313-.151.741-.726 1.109-1.369 1.387-.324.14-.663.255-.971.424-.464.258-.573.616-.407 1.126.217.668.586 1.255 1.037 1.774.463.532.956 1.051 1.502 1.494.744.607 1.552 1.133 2.326 1.703.13.098.227.243.338.367-.12.104-.233.22-.363.308-.17.115-.357.205-.534.31-.544.321-1.053.239-1.538-.13-.873-.661-1.707-1.367-2.396-2.224-.814-1.012-1.498-2.104-1.855-3.363a3.2 3.2 0 0 1-.115-1.218c.101-.856.717-1.284 1.463-1.582.351-.14.698-.31 1.01-.522.446-.305.464-.801.431-1.279-.005-.091-.192-.241-.299-.244-.709-.015-1.42-.002-2.074.332-.086.043-.157.114-.231.177-.198.164-.401.094-.46-.16-.106-.457.246-1.259.64-1.539.376-.266.797-.317 1.232-.319.285 0 .57.015.853.033.249.016.37-.083.366-.339-.01-.59-.017-1.182-.018-1.772 0-.261-.074-.482-.277-.657-.573-.495-.5-1.671.209-2.19.604-.443 1.325-.45 1.849-.031.625.5.748 1.444.188 2.015-.403.41-.464.846-.418 1.37.035.388-.003.785-.008 1.178-.005.369.06.435.417.431.966-.009 1.562-.604 1.565-1.57.002-.78-.02-1.559 0-2.337.026-.98-.434-1.743-1.05-2.43-.44-.49-.974-.899-1.38-1.412-.704-.887-.836-1.945.174-2.765.088-.07.25-.137.334-.102.085.034.153.195.165.307.047.431.186.83.444 1.172.422.555.863 1.097 1.31 1.633.772.924 1.315 1.934 1.288 3.182v3.314c-.022.714-.246 1.356-.798 1.843Zm-7.975-.326c.007 2.041-.002 4.082-.002 6.123 0 1.558.006 3.117.007 4.675 0 .39-.154.597-.534.649a1.87 1.87 0 0 1-.695-.032c-.122-.03-.249-.178-.304-.302-.064-.147-.07-.327-.07-.492-.005-1.767-.003-3.532-.003-5.297h-.003c0-1.805-.004-3.61.005-5.415.001-.27-.105-.414-.35-.508-.989-.38-1.55-1.147-1.836-2.13-.341-1.175-.441-2.387-.399-3.603.033-.925.137-1.846.613-2.681.264-.462.675-.752 1.091-1.05.241-.173.476-.37.664-.597.115-.14.168-.354.19-.541.035-.303.025-.61.027-.917.002-.51.291-.813.794-.824.492-.011.782.27.803.78.006.168.015.337-.002.503-.073.7.231 1.223.812 1.552.92.522 1.38 1.321 1.584 2.327a11.043 11.043 0 0 1-.21 5.24c-.257.914-.871 1.58-1.76 1.95-.28.117-.423.269-.422.59Zm-2.522 1.388c-.021.197-.176.288-.34.142-.55-.49-1.223-.544-1.906-.564-.829-.025-.781-.093-.747.775.018.465.305.745.664.943.367.203.781.322 1.152.52 1.053.558 1.238 1.29 1.01 2.35-.178.833-.562 1.581-1.007 2.313-.86 1.415-2.008 2.533-3.306 3.528-.638.487-1.228.33-1.83-.03a4.767 4.767 0 0 1-.51-.352c-.151-.12-.139-.23.03-.348.881-.622 1.793-1.21 2.628-1.893.97-.794 1.798-1.735 2.33-2.897a3.04 3.04 0 0 0 .182-.53.748.748 0 0 0-.383-.853c-.406-.216-.844-.372-1.263-.564-.792-.365-1.258-.951-1.243-1.862.005-.236-.024-.472-.022-.708.002-.278-.107-.418-.402-.417-.564.005-1.112-.06-1.631-.321-.59-.297-.987-.753-1.114-1.39a8.881 8.881 0 0 1-.155-1.555c-.016-.905.003-1.813.026-2.719.024-.917.352-1.73.913-2.448.51-.649 1.055-1.271 1.535-1.94.305-.426.578-.888.607-1.45.017-.305.223-.367.473-.165.88.712.938 1.754.234 2.705-.307.414-.683.787-1.07 1.132-.919.818-1.439 1.802-1.416 3.055.013.728-.07 1.465.013 2.183.123 1.053.666 1.505 1.733 1.467.245-.01.273-.183.273-.375l-.016-1.418c.047-.47-.07-.844-.444-1.178-.404-.358-.441-1.154-.164-1.655.258-.466.858-.71 1.417-.662 1.09.095 1.543 1.202 1.28 2.012-.055.171-.19.315-.27.481-.1.214-.244.433-.26.657-.037.56-.011 1.123-.016 1.684-.004.391.044.435.432.428.412-.006.83-.033 1.235.02 1.073.141 1.446.974 1.348 1.9Zm14.69-1.598h-.003c0-3.303-.007-6.607.005-9.91.003-.911-.13-1.788-.537-2.603-.25-.498-.51-1.004-.85-1.438-.529-.674-1.158-1.266-1.96-1.612-.581-.251-1.174-.518-1.79-.64-.638-.127-1.31-.115-1.968-.117-3.908-.01-7.815-.004-11.723-.007-1.2 0-2.382.042-3.5.593-.506.25-.959.557-1.404.888a4.303 4.303 0 0 0-1.205 1.385c-.307.556-.624 1.126-.799 1.73-.23.791-.28 1.623-.279 2.457.01 5.533.006 11.065.007 16.597.001.67.044 1.343.011 2.011-.059 1.2.16 2.332.738 3.381.255.463.512.954.88 1.32.649.645 1.351 1.23 2.236 1.58.639.254 1.267.451 1.952.452 4.735.006 9.47.007 14.203.015 1.285.002 2.416-.453 3.434-1.188a5.7 5.7 0 0 0 1.626-1.8c.578-1.01.935-2.064.93-3.242-.013-3.284-.004-6.568-.004-9.852Z" clip-rule="evenodd"/><path fill="#231F20" d="M79.135 52.658c-.052-.024-.103-.042-.15-.068a1.794 1.794 0 0 1-.209-.13c-.084-.06-.102-.15-.066-.243.025-.064.063-.124.096-.185a.056.056 0 0 1 .057-.032c.265.02.516.08.712.277a.676.676 0 0 1 .195.468c.002.04.006.082.015.122a.61.61 0 0 1-.112.514 1.1 1.1 0 0 1-.32.279c-.045.029-.096.05-.142.08a.462.462 0 0 1-.373.043 1.007 1.007 0 0 1-.125-.039c-.08-.032-.097-.083-.053-.16.01-.017.023-.033.035-.05.084-.125.168-.249.25-.374.014-.02.02-.042.029-.063l.14-.37.021-.07Zm6.293 1.515c.013-.09.031-.186.04-.284a.368.368 0 0 1 .093-.206c.08-.095.154-.196.232-.292a.172.172 0 0 0 .04-.113c.006-.21.015-.419.023-.628 0-.026.005-.051.009-.087.061-.004.119-.008.178-.01a.816.816 0 0 1 .275.03.54.54 0 0 1 .354.314.91.91 0 0 1 .05.563c-.033.16-.072.317-.11.475a.68.68 0 0 1-.055.145c-.022.044-.06.068-.115.058a.115.115 0 0 0-.065.009c-.075.034-.15.07-.222.11a.343.343 0 0 1-.206.05 2.056 2.056 0 0 1-.504-.116c-.004-.002-.007-.007-.017-.018Zm3.214 6.798c-.082 0-.152-.021-.206-.089-.061-.08-.124-.157-.188-.236a.75.75 0 0 1-.027-.038 1.336 1.336 0 0 0-.331-.364 1.38 1.38 0 0 1-.355-.386.69.69 0 0 1-.105-.289c-.01-.076-.01-.152.078-.19.01-.005.019-.025.02-.038.01-.066.05-.107.105-.137a.77.77 0 0 1 .344-.075c.02-.001.044.013.062.027.168.12.338.239.501.364.081.064.151.142.228.21.071.065.142.13.218.188.044.034.097.058.145.087.026.016.058.03.074.054.072.11.128.23.087.364-.043.142-.104.28-.161.419-.006.015-.026.031-.044.035-.122.03-.245.058-.368.085-.025.005-.051.005-.077.009Zm-2.498-1.357c.04-.026.082-.056.126-.082a.13.13 0 0 0 .069-.104c.005-.037.007-.074.005-.109-.005-.07-.036-.107-.104-.128-.1-.03-.192.005-.287.033l-.029.263.22.127Zm-.089-3.5.273-.035c.084-.01.15-.046.186-.128a.137.137 0 0 1 .025-.039c.03-.032.029-.07.02-.11l-.055-.248c-.007-.034-.014-.067-.025-.11-.022.026-.037.04-.05.055-.082.103-.16.21-.248.308-.075.084-.099.184-.126.306Zm-.397 1.42h.539c.052 0 .087-.029.105-.077a.748.748 0 0 0 .043-.278c-.279-.039-.621.097-.687.355Zm.819.418-.956.554.06.181c.077 0 .15-.003.221 0a.414.414 0 0 0 .293-.118.363.363 0 0 1 .235-.101.655.655 0 0 0 .236-.06l-.09-.456Zm-1.552-1.226c.009-.138.017-.277.024-.416.012-.197.016-.393.037-.59.014-.137.051-.273.08-.41l.047-.222c.021.022.037.037.05.054.121.145.274.227.461.238.09.006.171-.01.246-.07.177-.144.36-.28.54-.42.035-.028.062-.067.097-.098.051-.046.102-.096.161-.13.156-.086.327-.128.503-.144a.492.492 0 0 1 .437.19c.087.102.141.222.175.352.006.024.005.05.006.076l-.001.373c0 .097.01.192.043.283.011.028.015.06.018.09.008.056.023.072.077.05a.677.677 0 0 0 .16-.09c.189-.148.387-.277.602-.381.212-.105.434-.182.667-.22a.68.68 0 0 1 .292.007.392.392 0 0 1 .266.23c.045.103.056.21.052.32a.073.073 0 0 1-.036.064.484.484 0 0 1-.302.103c-.07-.004-.14.002-.21-.001a.245.245 0 0 0-.16.042c-.07.046-.142.087-.206.138-.37.3-.766.565-1.155.84-.103.074-.206.147-.311.218a.121.121 0 0 0-.057.086l-.107.589.002.028.067-.02c.266-.097.537-.184.798-.295.267-.114.544-.137.826-.144a2.51 2.51 0 0 1 .533.03.984.984 0 0 1 .243.075c.143.067.185.179.134.328a.553.553 0 0 1-.205.285.202.202 0 0 1-.146.034 6.721 6.721 0 0 0-.401-.041c-.222-.017-.444-.029-.665-.044a1.54 1.54 0 0 0-.722.1c-.266.113-.519.245-.735.44-.035.03-.066.065-.098.099a.409.409 0 0 0-.116.288c0 .287 0 .575.006.862.004.22.013.441.023.66.01.239.025.476.037.714.002.029 0 .057 0 .091-.089 0-.176.01-.258-.003-.093-.016-.184-.051-.273-.083-.022-.007-.041-.03-.053-.051a6.057 6.057 0 0 1-.15-.281 1.022 1.022 0 0 0-.185-.265c-.047-.05-.104-.096-.126-.155-.023-.06-.007-.133-.01-.2-.001-.093-.001-.186-.006-.28-.009-.17-.113-.244-.279-.243-.051 0-.102.017-.152.022-.046.005-.06.032-.068.07-.013.065-.037.127-.04.191-.003.082.008.165.015.247.001.017.007.034.011.058.038-.007.074-.01.107-.018a.08.08 0 0 1 .079.019c.011.01.024.02.037.028.046.034.094.065.102.13a.41.41 0 0 1-.05.246c-.008.016-.025.025-.04.035-.255.162-.51.326-.768.484-.068.042-.145.068-.217.102-.052.023-.098.008-.135-.031a.535.535 0 0 1-.089-.117c-.05-.098-.095-.2-.139-.302a.228.228 0 0 1-.013-.083c-.001-.109.002-.218 0-.327a.31.31 0 0 1 .041-.17c.046-.078.094-.155.145-.23a.105.105 0 0 0 .02-.087 21.01 21.01 0 0 0-.052-.255.713.713 0 0 0-.29.033.191.191 0 0 0-.086.066c-.04.052-.076.11-.112.167-.014.02-.025.044-.036.065-.102-.01-.2-.017-.297-.025a.064.064 0 0 1-.062-.05c-.011-.036-.024-.074-.025-.112-.001-.16 0-.321.003-.481.001-.026.016-.056.034-.075.077-.08.156-.16.236-.236.025-.023.055-.04.082-.058.294-.188.59-.376.882-.567.057-.038.126-.077.157-.133.028-.054.012-.131.014-.198.002-.06 0-.12.001-.179a.25.25 0 0 0-.085-.192.17.17 0 0 0-.14-.052c-.055.005-.109.017-.163.015a8.518 8.518 0 0 1-.455-.03.51.51 0 0 1-.301-.132c-.07-.064-.145-.125-.209-.196a.528.528 0 0 1-.142-.436l.12-.994c.008-.07.009-.069.08-.076l.146-.016c.094-.016.164.024.21.1.036.062.07.129.087.198.025.094.04.193.05.29.016.17.11.267.28.287.132.017.35-.015.49-.075Zm21.719-3.57c.089.005.174.004.259.014.215.024.428.064.634.137.213.075.41.18.572.343.217.218.323.481.319.79-.001.053-.016.096-.059.128-.043.033-.084.07-.129.098-.068.044-.139.062-.22.033-.045-.017-.096-.02-.145-.022-.17-.01-.34-.017-.511-.026a1.34 1.34 0 0 1-.428-.097.49.49 0 0 1-.075-.04c-.025-.016-.035-.038-.035-.071.001-.114-.003-.228-.007-.341a.373.373 0 0 0-.137-.261.68.68 0 0 1-.127-.174.142.142 0 0 1-.013-.112l.102-.399Zm1.217 3.133a25.975 25.975 0 0 1-.166-.214.5.5 0 0 0-.248.185c-.064.084-.134.163-.202.245l-.297.362c.05.032.075.074.067.132-.004.03.01.052.041.056a.825.825 0 0 0 .222.007c.023-.158.138-.256.239-.362l.011-.011c.115-.126.24-.243.333-.4Zm-.955 3.371.089.009c.095.008.191.011.285.023.108.014.2.07.287.13.039.025.049.056.036.098-.033.117-.06.236-.101.35a1.138 1.138 0 0 0-.001.662c.017.003.037.008.056.008.135 0 .269.005.404 0a.65.65 0 0 0 .165-.032c.114-.036.225-.077.337-.115.027-.01.054-.021.082-.024.071-.007.103-.05.12-.113a.633.633 0 0 0 .002-.277c-.027-.164-.065-.325-.093-.488-.016-.094-.023-.19-.031-.285a.643.643 0 0 0-.06-.215 1.795 1.795 0 0 1-.179-.583c-.014-.133.043-.253.114-.376l.258.07.263.078c.007.052.008.103.022.153.035.14.068.282.117.417.03.081.08.157.132.228.17.236.373.444.58.647.121.12.246.237.369.355.01.01.022.016.028.027.098.17.171.345.121.546a.334.334 0 0 1-.155.205.635.635 0 0 1-.154.073c-.119.034-.24.061-.36.09a.243.243 0 0 1-.077.003c-.15-.007-.3-.012-.45-.021a.793.793 0 0 0-.23.019c-.247.056-.494.106-.74.162a.759.759 0 0 0-.153.054 2.962 2.962 0 0 1-.542.205.786.786 0 0 1-.45-.001c-.108-.036-.216-.063-.323-.099-.064-.02-.089-.062-.092-.127a1.57 1.57 0 0 1 .047-.415c.062-.276.129-.55.194-.824.006-.022.009-.045.015-.077-.108-.004-.21-.011-.313-.012-.018 0-.04.02-.054.037-.159.171-.314.345-.473.514-.248.265-.5.525-.776.762-.073.062-.152.116-.228.173-.016.011-.032.018-.048.026-.127.062-.215.013-.226-.128-.01-.13.021-.253.051-.376a.61.61 0 0 1 .111-.228c.239-.325.475-.653.713-.979a.356.356 0 0 0 .071-.152c.02-.103.045-.204.054-.307a.455.455 0 0 0-.072-.264c-.036-.066-.079-.127-.122-.19a.262.262 0 0 1-.047-.199c.014-.086.029-.173.049-.259.015-.06.054-.095.118-.109a.642.642 0 0 0 .142-.055c.058-.029.112-.056.177-.017l.315-.329c.019-.02.036-.044.058-.061.05-.038.056-.087.033-.138-.032-.07-.062-.144-.106-.205-.068-.097-.172-.114-.274-.057a1.6 1.6 0 0 0-.147.09.29.29 0 0 0-.067.071c-.185.27-.367.54-.55.81l-.052.072c-.089-.077-.174-.148-.257-.222-.021-.019-.034-.046-.049-.07l-.38-.632-.047-.075-.325.005c-.015 0-.032.006-.046.003-.072-.012-.12.022-.165.076a2.259 2.259 0 0 0-.294.5 6.268 6.268 0 0 0-.358 1.09c-.072.3-.132.602-.193.903-.02.104-.026.21-.038.316a7.77 7.77 0 0 0-.024.263.368.368 0 0 1-.169.283.88.88 0 0 1-.382.14.827.827 0 0 1-.403-.051c-.044-.015-.078-.037-.088-.089a.227.227 0 0 0-.036-.076.348.348 0 0 1-.058-.198c.001-.016-.008-.034-.014-.05a.088.088 0 0 0-.018-.025.636.636 0 0 1-.15-.317c-.037-.163-.089-.324-.132-.487-.017-.065-.037-.13-.041-.196-.008-.104.05-.154.149-.124.06.017.098-.002.127-.044a.73.73 0 0 0 .092-.161 1.53 1.53 0 0 0 .105-.468c.026-.442.051-.885.072-1.327.006-.132.038-.255.092-.374.035-.08.067-.163.094-.246a.27.27 0 0 1 .163-.175 1.95 1.95 0 0 0 .168-.077.16.16 0 0 1 .104-.019c.066.012.134.017.199.032.038.009.078.027.112.05.101.073.212.1.335.097.089-.002.18.007.277.012.001-.02.004-.036.002-.05-.021-.113-.052-.221-.142-.303-.045-.04-.059-.097-.056-.155.004-.076.011-.15.016-.225.009-.138.025-.275.027-.411.002-.17.039-.328.099-.484.033-.087.064-.175.089-.265a.374.374 0 0 0-.014-.25c-.019-.042-.048-.078-.076-.122-.019.016-.03.022-.037.03-.101.13-.203.256-.299.387a.456.456 0 0 0-.08.184.246.246 0 0 1-.076.13 2.774 2.774 0 0 1-.277.237c-.088.066-.187.12-.281.179a.435.435 0 0 1-.245.062c-.157-.003-.315.004-.468-.049-.063-.02-.131-.027-.2-.042a1.092 1.092 0 0 1-.006-.386c.009-.06.036-.07.118-.065.034-.24.163-.434.312-.614.322-.39.693-.726 1.137-.976a.207.207 0 0 1 .124-.03c.114.008.228.014.342.016a.204.204 0 0 1 .121.043c.076.058.153.114.229.17a.963.963 0 0 1 .254.311.16.16 0 0 1 .021.08l-.035.753a.11.11 0 0 1-.036.081c-.039.04-.073.082-.113.119a.187.187 0 0 0-.061.113c-.023.142-.045.286-.07.428a.353.353 0 0 0 .065.265 3.922 3.922 0 0 1 .391.833.132.132 0 0 0 .054.073.322.322 0 0 0 .228.076c.051-.002.102.005.155.007.01-.047.02-.084.026-.122a.905.905 0 0 1 .146-.365c.088-.137.179-.272.27-.408.054-.081.11-.163.166-.243a1.67 1.67 0 0 0 .219-.402.364.364 0 0 1 .199-.215c.012-.005.024-.01.036-.017.119-.073.245-.065.372-.029a.164.164 0 0 1 .053.032c.028.022.05.052.081.072.085.056.1.14.094.23-.009.125-.005.249.015.371.006.034.01.068.02.1.017.056.044.071.1.055.056-.017.115-.034.166-.063.186-.111.37-.227.554-.343a.108.108 0 0 0 .042-.051.404.404 0 0 1 .161-.203c.157-.114.337-.178.522-.229a.206.206 0 0 1 .062-.004c.281.015.563.029.845.047a.611.611 0 0 1 .157.037c.176.063.249.204.235.39-.001.024-.007.047-.01.07a.145.145 0 0 1-.071.113c-.317.214-.63.435-.951.643-.213.138-.437.257-.656.386l-.261.152c.04.044.076.08.108.12.02.028.038.06.049.093.021.07.034.141.054.21a.17.17 0 0 1-.006.105c-.047.147-.112.279-.245.367-.01.007-.017.017-.029.03.011.007.019.015.027.018.087.025.139.087.184.163.055.094.123.18.187.268.045.061.048.108-.005.166a.478.478 0 0 1-.101.084c-.165.1-.311.226-.43.376a3.294 3.294 0 0 0-.243.37c-.028.048-.028.113-.045.18Zm-35.135.604.047.354a1.33 1.33 0 0 1-.068.42c-.092.234-.27.364-.511.414-.013.003-.026.004-.04.005-.171.03-.182.026-.293-.11a6.427 6.427 0 0 1-.662-.956 2.55 2.55 0 0 1-.28-.704c-.034-.164-.048-.328.012-.49.007-.017.007-.036.01-.054.013-.124.078-.196.199-.226a.63.63 0 0 1 .284.008c.103.023.204.056.304.09.031.01.063.035.085.062.286.35.57.704.855 1.055a.25.25 0 0 1 .059.132Zm-1.903-3.23c-.08-.02-.16-.035-.25-.054 0-.074-.003-.14 0-.207.005-.065.044-.116.088-.161.096-.1.212-.174.334-.237.12-.062.245-.118.369-.177a.183.183 0 0 1 .112-.012c.082.011.164.016.255.025-.013.017-.02.03-.03.04-.258.25-.518.498-.775.75-.03.029-.062.042-.103.033Zm-1.242.133c-.041.231-.084.463-.123.695-.007.038-.024.057-.059.071l-.62.24a.175.175 0 0 1-.06.015h-.443c-.01-.097-.022-.19-.028-.286-.001-.015.018-.034.032-.048.07-.064.143-.127.214-.191a.438.438 0 0 0 .121-.168.304.304 0 0 1 .122-.137 6.4 6.4 0 0 0 .278-.197.257.257 0 0 1 .138-.06c.146-.015.29-.034.446-.052-.007.043-.011.081-.018.118Zm4.782-.405a.465.465 0 0 0-.123-.08 1.285 1.285 0 0 0-.19-.062 3.008 3.008 0 0 0-.583-.081c-.255-.015-.51-.03-.766-.04-.046-.004-.093.008-.139.007-.051-.002-.08.022-.102.067a.984.984 0 0 1-.222.295.549.549 0 0 0-.121.16.645.645 0 0 1-.328.32.853.853 0 0 1-.308.094c-.056.004-.112.017-.168.025-.019.003-.037 0-.056 0a.073.073 0 0 1 .031-.041.172.172 0 0 0 .08-.159c0-.03.01-.06.015-.094.041-.017.08-.036.123-.048a.484.484 0 0 0 .303-.233.447.447 0 0 1 .167-.158.427.427 0 0 0 .105-.08l.577-.66a.098.098 0 0 0 .025-.055c.004-.053.002-.107.002-.161-.02-.005-.032-.009-.045-.01-.138-.017-.276-.036-.415-.052-.115-.013-.228-.048-.346-.032-.046.006-.093.01-.139.015-.187.017-.375.04-.563.05a1.159 1.159 0 0 0-.386.104c-.028.013-.056.021-.09.034v-.094l.029-1.267a.344.344 0 0 0-.023-.12c-.085-.23-.17-.46-.266-.688a1.042 1.042 0 0 1-.083-.452c.008-.215.002-.215-.13-.386l-.005-.006c-.018-.013-.035-.03-.055-.038a5.655 5.655 0 0 0-.218-.08.265.265 0 0 0-.075-.015c-.068-.005-.097.015-.11.081a.819.819 0 0 0-.022.169c-.004.205-.004.41-.009.614-.002.093-.014.186-.024.278-.011.103-.036.205-.036.308.002.463.01.927.017 1.392 0 .108.008.217.01.325v.417a2.9 2.9 0 0 1-.075.026c-.254.092-.51.18-.763.278-.176.068-.347.147-.519.225a.648.648 0 0 0-.26.191.194.194 0 0 1-.06.047.182.182 0 0 1-.261-.116 33.409 33.409 0 0 0-.082-.332c-.012-.045-.02-.093-.043-.132a4.409 4.409 0 0 0-.206-.337.592.592 0 0 0-.407-.273c-.05-.007-.085.003-.096.052-.01.047-.017.098-.01.145.013.094.031.189.057.28.165.589.334 1.176.502 1.762.01.033.03.066.054.09.053.06.11.116.17.176a1.604 1.604 0 0 1-.083.035c-.864.328-1.728.655-2.591.984a.907.907 0 0 1-.337.08c-.044 0-.088.008-.131.01-.038.003-.054.018-.059.057a6.33 6.33 0 0 1-.046.315c-.008.052 0 .095.042.132.023.02.044.044.061.07a.386.386 0 0 0 .265.17.26.26 0 0 0 .12 0c.1-.024.201-.05.302-.066.094-.015.189-.024.28-.057.114-.04.23-.077.344-.116.52-.18 1.039-.362 1.558-.541a1.1 1.1 0 0 1 .362-.075c.048 0 .097-.013.145-.023.09-.018.18-.04.272-.06.01.02.02.038.027.057.057.122.111.244.17.366.042.087.098.092.145.007a.886.886 0 0 0 .09-.214c.04-.166.068-.334.068-.506 0-.042.011-.066.05-.085.13-.062.26-.128.39-.191.011-.007.025-.008.043-.014l-.001.03c-.092.435-.187.87-.32 1.295-.046.145-.106.286-.162.428a.247.247 0 0 1-.16.139c-.062.02-.128.019-.172-.033a.3.3 0 0 0-.144-.083c-.074-.024-.148-.048-.22-.074a.145.145 0 0 0-.106.003c-.13.05-.26.098-.39.146-.1.036-.161.11-.206.2a.204.204 0 0 0-.01.13c.012.06.024.122.026.183a.323.323 0 0 0 .054.174c.034.053.064.107.095.16.035.06.065.125.104.183a.642.642 0 0 0 .396.277c.15.036.303.034.454.006.265-.05.486-.182.68-.367.232-.223.403-.49.542-.78.231-.477.39-.98.517-1.493.062-.252.11-.506.126-.765a.135.135 0 0 1 .028-.062c.049-.073.101-.143.149-.217a.16.16 0 0 1 .106-.07c.79-.183 1.582-.366 2.373-.552.307-.072.616-.13.932-.145a.345.345 0 0 0 .281-.156c.078-.118.151-.241.225-.362.04-.067.035-.124-.023-.175Zm20.086-3.312c.014.075.019.143.039.206.022.076.05.154.09.222.087.152.23.22.4.227.13.007.263.002.395-.003a.703.703 0 0 0 .166-.031c.06-.017.07-.049.069-.112a12.28 12.28 0 0 1-.006-.481c.002-.077.05-.133.115-.166a.795.795 0 0 1 .196-.07c.136-.026.274-.043.413-.065.004-.001.01.002.022.004 0 .07.002.143 0 .214-.003.04.01.07.038.096.12.118.238.238.357.358.024.025.05.04.087.04.203-.005.408.001.612-.014.132-.01.263-.048.393-.079.055-.012.093-.053.134-.095.09-.094.196-.177.302-.253.073-.05.164-.04.25-.035.076.002.154.008.23.01.033.001.061.007.086.03.026.025.057.044.085.068.203.172.428.307.67.413.05.021.1.045.147.072.158.088.216.23.17.407a.897.897 0 0 1-.119.252c-.018.029-.041.04-.076.04-.205-.003-.41 0-.614-.003-.1-.002-.2-.012-.301-.016a.528.528 0 0 0-.258.07c-.208.106-.422.203-.636.3-.156.07-.313.136-.47.204-.102-.149-.06-.31-.066-.47l.086-.026c.236-.061.432-.194.61-.354a.553.553 0 0 0 .1-.128c.028-.045.01-.077-.043-.077-.073.001-.144.011-.216.019-.141.013-.282.032-.424.04-.077.004-.132.029-.172.095-.06.101-.144.181-.225.265-.06.062-.096.146-.14.222-.006.011.003.034.008.051.023.065.049.13.076.205-.06.022-.12.043-.18.062-.015.003-.036-.006-.052-.013-.054-.023-.108-.05-.164-.07a1.505 1.505 0 0 0-.175-.06.162.162 0 0 1-.098-.065c-.05-.072-.1-.148-.163-.208-.12-.113-.25-.215-.38-.325a27.419 27.419 0 0 0-.469.388 2.236 2.236 0 0 1-.573.335c-.163.072-.332.052-.503.03-.173-.024-.27-.139-.35-.278a.206.206 0 0 1-.016-.149c.014-.068.018-.139.014-.208a4.206 4.206 0 0 0-.081-.646c-.01-.05-.004-.089.03-.128.063-.07.117-.146.177-.217.016-.018.038-.039.06-.043.112-.022.224-.038.343-.056Zm2.098 8.184c0-.004 0-.008.002-.012.036 0 .072.002.108 0 .276-.015.459-.165.522-.435.02-.093.033-.188.04-.283a.932.932 0 0 0-.027-.347c-.037-.12-.103-.16-.224-.129a1.296 1.296 0 0 0-.197.065c-.227.098-.453.201-.68.299-.184.08-.369.161-.571.188a.077.077 0 0 0-.043.027.52.52 0 0 0-.06.1c-.043.098-.026.172.056.242.088.077.186.14.302.165.102.022.204.038.305.054.155.023.311.045.467.066Zm2.088-5.531c-.146.01-.281.019-.419.03-.022.002-.044.013-.066.02-.132.05-.267.096-.398.151-.184.079-.376.11-.574.104a.704.704 0 0 0-.348.08c-.152.076-.313.135-.468.207a1.792 1.792 0 0 0-.22.128c-.068.044-.129.095-.195.14-.054.036-.108.07-.167.099a.305.305 0 0 0-.132.125c-.063.107-.132.21-.201.313-.06.088-.127.17-.18.261a.766.766 0 0 1-.44.338.695.695 0 0 0-.145.07c-.083.052-.162.11-.246.162-.04.024-.05.052-.043.096a.798.798 0 0 1-.065.432.565.565 0 0 1-.236.27c-.07.042-.145.079-.22.111-.06.027-.084.018-.118-.037a.345.345 0 0 0-.189-.14.35.35 0 0 1-.231-.377 3.37 3.37 0 0 0 0-.82c-.008-.084-.01-.167-.013-.25-.006-.126-.013-.253-.018-.38v-.058l.274-.053.182-.034c.017-.003.034-.011.05-.018l.014-.008c.424-.313.897-.542 1.36-.79.092-.05.18-.11.261-.179.05-.042.114-.07.17-.106.164-.105.348-.135.537-.156.246-.029.491-.066.737-.1.23-.031.46-.066.69-.1.112-.015.225-.03.337-.047.196-.028.393-.023.589-.009.301.023.598.078.888.168.146.045.285.106.404.208a.537.537 0 0 1 .196.561.215.215 0 0 1-.04.082c-.061.083-.13.162-.192.244-.023.03-.048.04-.085.04-.213.01-.42.044-.616.136-.163.078-.334.138-.499.212a.72.72 0 0 0-.173.115c-.1.088-.201.166-.32.228a1.84 1.84 0 0 0-.51.387.49.49 0 0 0-.112.253.914.914 0 0 0 .035.475c.064.19.155.367.26.536.022.037.05.047.088.052.29.029.58.06.871.091l.447.05c.07.009.138.023.195.067.05.038.082.086.072.153-.025.169-.049.339-.075.507a.333.333 0 0 1-.034.094c-.024.044-.06.047-.094.012-.02-.02-.035-.045-.055-.073-.082 0-.168-.003-.252 0a.557.557 0 0 1-.228-.038.847.847 0 0 0-.34-.058c-.102.005-.203.001-.304.001-.023 0-.047 0-.07.003-.079.013-.115.069-.092.146.046.164.012.33.02.494-.06.193-.06.394-.074.592a9 9 0 0 0-.018.411c-.013.447-.238.74-.669.86-.253.069-.51.085-.765.01a1.296 1.296 0 0 1-.658-.417c-.06-.074-.124-.146-.186-.219a.924.924 0 0 1-.16-.264.175.175 0 0 0-.114-.109 3.7 3.7 0 0 1-.265-.107.85.85 0 0 1-.375-.315c-.14-.209-.28-.417-.414-.63-.044-.068-.07-.15-.106-.224-.029-.058-.06-.116-.096-.183h.084c.287.001.575-.003.862.003a2.26 2.26 0 0 0 .598-.066c.382-.096.765-.193 1.148-.288l.058-.018c0-.086.002-.17 0-.256a.095.095 0 0 0-.022-.048c-.136-.185-.205-.4-.267-.616-.014-.051-.038-.084-.09-.092-.093-.011-.138-.07-.175-.151-.04-.084-.092-.162-.142-.24-.047-.074-.056-.208-.004-.276a.635.635 0 0 0 .118-.275c.018-.089.038-.177.061-.264a.317.317 0 0 1 .034-.087c.038-.067.099-.1.177-.076.067.02.13.014.19-.008a.312.312 0 0 1 .3.037c.019.013.041.02.061.032.03.018.057.016.089.005.118-.047.242-.068.368-.082.148-.016.283-.082.415-.146.02-.01.035-.03.05-.047.172-.188.341-.377.513-.564.067-.072.135-.142.206-.21a.114.114 0 0 0 .039-.11c-.01-.059-.016-.117-.025-.183Zm-18.722 3.86c.074-.143.184-.255.308-.354.042-.034.088-.025.132-.007.044.019.058.058.053.102-.005.04-.008.085-.026.12a.484.484 0 0 0-.042.241c.004.139-.02.1.1.17.014.008.027.018.04.023.14.047.195.167.255.291-.094.038-.185.075-.276.11a.089.089 0 0 1-.06 0 1.214 1.214 0 0 1-.371-.186c-.175-.137-.215-.313-.113-.51Zm2.547-2.442a.095.095 0 0 0-.026-.037c-.121-.105-.254-.169-.42-.12-.182.055-.366.105-.546.166a.987.987 0 0 0-.25.123 3.274 3.274 0 0 1-.451.256.242.242 0 0 1-.104.023c-.193.002-.387.002-.582 0a.277.277 0 0 1-.104-.023 20.56 20.56 0 0 1-.383-.167l-.053-.03c.046-.111.09-.22.137-.326a.11.11 0 0 1 .036-.049c.133-.079.258-.173.407-.222.31-.1.602-.247.891-.395.019-.009.04-.018.052-.033.041-.058.08-.118.12-.179a1.518 1.518 0 0 0-.477-.324.97.97 0 0 0-.392-.079c-.114.002-.21.027-.291.115-.063.068-.137.125-.199.18l-.15-.147.053-.051c.122-.111.25-.218.353-.35.064-.082.148-.142.233-.202.087-.06.167-.13.249-.197.011-.01.025-.022.03-.036.027-.08.093-.105.167-.12.218-.044.413-.142.594-.272.025-.017.05-.033.053-.07.01-.162-.05-.326-.244-.387a.678.678 0 0 0-.276-.021c-.102.012-.205.021-.307.038-.174.027-.346.06-.51.123a.346.346 0 0 0-.11.069c-.084.08-.167.162-.247.246a.151.151 0 0 1-.123.051c-.139 0-.28 0-.418.01-.242.022-.483.05-.724.078-.349.04-.696.042-1.046.012-.032-.003-.066 0-.098 0-.005.01-.01.016-.01.023a3.815 3.815 0 0 0-.035.658c.002.068.007.135.018.202.013.089.033.178.085.255.065.099.129.114.234.064.385-.186.77-.374 1.16-.554.149-.069.308-.117.463-.173.02-.007.045-.006.067-.01-.018.033-.04.05-.062.069-.196.172-.397.34-.586.521-.107.103-.197.225-.29.343a.464.464 0 0 0-.095.275c-.007.214-.017.429-.02.643-.002.052-.018.08-.063.103-.28.141-.554.29-.835.428-.26.126-.524.243-.789.359-.14.061-.285.108-.44.116-.141.008-.284.016-.426.02-.046 0-.07.016-.087.058a1.222 1.222 0 0 1-.063.142.344.344 0 0 0-.035.164c.002.096.01.194-.007.287-.026.142-.07.28-.11.42-.02.074-.063.147-.062.221.001.075.044.149.067.223.004.01.005.02.01.029.007.01.014.023.025.027.106.046.213.087.325.021.058-.033.114-.07.171-.107.167-.108.332-.22.502-.323.316-.193.659-.32 1.018-.402.255-.059.508-.119.767-.15.032-.005.073-.011.098.004.09.053.176.114.265.174l-.022.057c-.094.207-.183.418-.326.598a.244.244 0 0 0-.06.165c.003.066.011.133.017.2.073.035.148.07.222.107a.177.177 0 0 1 .099.129c.034.14.08.279.112.42.022.095.08.144.167.16.293.056.595-.038.734-.363.01-.02.02-.041.027-.06.007-.001.01-.003.011-.002l.036.015c.362.165.707.357.972.664a.49.49 0 0 0 .309.174.274.274 0 0 0 .097 0 .579.579 0 0 0 .294-.192c.013-.012.019-.037.02-.056.006-.075.008-.15.014-.225.014-.188.03-.376.043-.565.014-.186.043-.37.036-.558-.003-.111.001-.223 0-.334-.001-.05.008-.096.026-.143a.82.82 0 0 0 .06-.372c-.02-.211-.138-.345-.328-.422a1.343 1.343 0 0 0-.409-.08.255.255 0 0 0-.167.042c-.306.197-.614.392-.922.588-.132.085-.132.086-.268-.002a.783.783 0 0 1-.227-.199c-.055-.078-.048-.145.03-.201.068-.05.142-.093.219-.13a3.816 3.816 0 0 1 1.124-.327c.15-.02.3-.049.44-.113.148-.068.3-.125.451-.185a.629.629 0 0 1 .126-.038l.787-.13c.089-.014.177-.03.272-.047-.04-.123-.08-.241-.12-.358Zm-18.99-1.43c-.024.1-.069.19-.134.268a.374.374 0 0 1-.17.128l-.518.16c-.006.001-.014-.002-.03-.003-.038-.103-.076-.21-.113-.316-.005-.013 0-.03.005-.045l.196-.645c.002-.007.008-.012.016-.025.025.015.05.026.072.042a.339.339 0 0 0 .159.055l.406.048c.071.008.098.031.114.103a.495.495 0 0 1-.002.23Zm-2.529 1.747a.078.078 0 0 1-.025.046c-.092.085-.187.17-.286.26-.062-.042-.117-.08-.173-.116a.116.116 0 0 1-.054-.127c.011-.051.022-.104.047-.148.069-.117.146-.23.219-.346.02-.031.046-.037.08-.028a.228.228 0 0 1 .167.146c.04.102.034.208.026.313Zm4.267-2.8c-.274-.172-.546-.346-.819-.52l-.061-.035-.075.044c-.324.195-.651.38-.988.553-.216.11-.446.156-.68.195-.055.009-.082-.015-.087-.073-.002-.03 0-.062 0-.093.001-.07.007-.14.003-.21a4.897 4.897 0 0 0-.117-.782.24.24 0 0 0-.044-.089c-.282-.38-.566-.759-.85-1.138-.013-.018-.028-.035-.048-.06-.045.068-.088.13-.128.192a4.695 4.695 0 0 0-.419.769c-.05.124-.083.25-.084.385l-.002 1.477-.001.599-.045.025c-.329.184-.683.321-.99.545-.116.085-.321.058-.415-.095a1.565 1.565 0 0 1-.059-.109.57.57 0 0 0-.255-.263.475.475 0 0 0-.466.009c-.043.022-.064.05-.057.098.01.074.013.149.027.223.06.329.177.638.33.934.26.506.61.947 1.011 1.348.088.088.089.09.216.08.196-.018.392-.009.588.008a.858.858 0 0 1 .16.033c.052.014.09.046.096.107.005.057.018.113.022.17.021.322.043.646.06.968.01.21.022.42.097.619.028.075.048.153.079.227.08.194.16.387.247.577.031.067.077.13.125.186.046.055.1.055.145-.002a.72.72 0 0 0 .102-.172c.052-.132.102-.266.138-.404.075-.285.16-.567.266-.842a9.49 9.49 0 0 0 .162-.47 5 5 0 0 0 .257-1.243c.002-.032.018-.046.042-.059.439-.242.876-.485 1.317-.725.06-.033.13-.051.195-.07a.537.537 0 0 0 .303-.204c.123-.176.141-.378.131-.587h-.051c-.092.013-.184.028-.276.04a.598.598 0 0 1-.29-.03c-.076-.027-.104-.084-.08-.16.031-.098.08-.18.176-.234.316-.178.596-.403.816-.695.21-.278.335-.587.334-.941 0-.05-.015-.079-.058-.107ZM60.511 65.133c.083 0 .178.005.284.016a8.508 8.508 0 0 1 .638.091l.271.047c.025.004.037.015.037.032v.976c0 .021-.012.031-.037.031h-.266a.05.05 0 0 1-.027-.006.02.02 0 0 1-.01-.018l-.138-.725c0-.013-.01-.023-.027-.032a7.022 7.022 0 0 1-.155-.034 9.18 9.18 0 0 0-.194-.042 2.725 2.725 0 0 0-.206-.034 2.357 2.357 0 0 0-1.024.12c-.24.088-.44.213-.605.375a1.61 1.61 0 0 0-.374.58 2.08 2.08 0 0 0-.128.745c0 .284.045.553.135.807.09.254.218.478.384.67.166.194.367.347.602.458.235.11.495.167.78.167a3.878 3.878 0 0 0 .607-.057.633.633 0 0 0 .178-.057c.018-.01.027-.022.027-.034l.138-.728c0-.005.003-.01.01-.015a.04.04 0 0 1 .027-.01h.266c.025 0 .037.01.037.031v.974c0 .012-.012.022-.037.031a6.9 6.9 0 0 1-.554.11 4.539 4.539 0 0 1-.77.06c-.251 0-.488-.026-.71-.078a2.56 2.56 0 0 1-.61-.223 2.255 2.255 0 0 1-.498-.35 2.118 2.118 0 0 1-.596-.992 2.241 2.241 0 0 1-.083-.609c0-.241.032-.465.096-.671.065-.206.155-.394.273-.563.118-.17.258-.32.418-.45.161-.128.337-.237.53-.325.194-.089.402-.155.626-.2.223-.045.452-.067.685-.067ZM64.833 66.248c.017 0 .026.007.026.023v.775c0 .017-.009.026-.026.026h-.196c-.017 0-.026-.006-.026-.019l-.106-.56c0-.012-.008-.018-.025-.018h-1.21c-.018 0-.027.007-.027.023v1.22c0 .017.009.024.027.024h.727c.019 0 .028-.006.028-.019l.052-.4c0-.012.008-.02.025-.02h.146c.017 0 .025.009.025.025V68.4c0 .016-.008.024-.025.024h-.146c-.017 0-.025-.006-.025-.019l-.052-.424c0-.015-.01-.022-.028-.022h-.727c-.018 0-.027.009-.027.026v1.334c0 .016.009.024.027.024h1.282c.019 0 .028-.006.028-.02l.106-.55c0-.012.009-.019.026-.019h.196c.017 0 .026.009.026.025v.766c0 .017-.01.025-.026.025h-2.6c-.018 0-.027-.008-.027-.025v-.128c0-.017.009-.026.026-.026l.449-.039c.017 0 .025-.007.025-.023v-2.851a.029.029 0 0 0-.025-.014l-.449-.042c-.017 0-.026-.007-.026-.023v-.129c0-.016.009-.023.026-.023h2.526ZM65.278 66.271c0-.016.008-.024.025-.024h.932a.05.05 0 0 1 .02.01l1.961 2.424v-2.173c0-.016-.007-.024-.022-.024l-.39-.038c-.017 0-.026-.01-.026-.027v-.148c0-.016.008-.024.026-.024h1.099c.018 0 .026.008.026.024v.148c0 .018-.008.027-.026.027l-.397.038c-.018 0-.026.008-.026.024v3.077c0 .017-.01.025-.032.025h-.1a.055.055 0 0 1-.025-.016l-2.28-2.819v2.533c0 .017.008.026.021.026l.388.04c.017 0 .025.007.025.023v.15c0 .016-.008.024-.025.024h-1.1c-.018 0-.028-.008-.028-.024v-.15c0-.016.01-.024.028-.024l.4-.039c.019 0 .029-.009.029-.026v-2.8c0-.016-.01-.024-.029-.024l-.449-.038c-.017 0-.025-.01-.025-.027v-.148ZM72.064 66.248c.017 0 .026.007.026.023v.775c0 .017-.01.026-.026.026h-.196c-.017 0-.026-.006-.026-.019l-.106-.56c0-.012-.008-.018-.026-.018h-.856c-.014 0-.021.007-.021.023v2.832c0 .014.009.022.026.023l.5.04c.02 0 .028.01.028.025v.128c0 .017-.009.025-.028.025h-1.514c-.019 0-.029-.008-.029-.025v-.128c0-.015.01-.024.029-.026l.5-.039c.017 0 .026-.009.026-.023v-2.832c0-.016-.007-.023-.02-.023h-.857c-.017 0-.026.006-.026.019l-.106.56c0 .012-.008.018-.025.018h-.197c-.017 0-.026-.009-.026-.026v-.775c0-.016.008-.023.026-.023h2.924ZM73.364 67.793c0 .016.007.024.02.024.245 0 .416-.003.514-.011.251-.021.435-.114.55-.278a.58.58 0 0 0 .098-.343c0-.474-.324-.71-.97-.71h-.186c-.017 0-.026.007-.026.023v1.295Zm.3-1.545c.477 0 .821.069 1.032.207.245.162.368.383.368.66 0 .32-.167.563-.503.73a1.574 1.574 0 0 1-.333.12c.182.082.354.267.514.554l.454.815c.007.013.02.02.039.02l.385.038c.017 0 .025.01.025.026v.128c0 .017-.008.025-.025.025h-.829c-.019 0-.032-.006-.038-.02l-.455-.89c-.218-.427-.5-.64-.847-.64h-.061c-.017 0-.026.006-.026.018v1.29c0 .015.009.023.026.024l.5.04c.02 0 .03.01.03.025v.128c0 .017-.01.025-.03.025h-1.474c-.017 0-.025-.008-.025-.025v-.128c0-.017.008-.026.025-.026l.45-.039c.017 0 .025-.007.025-.023v-2.841c0-.016-.008-.024-.025-.024l-.45-.042c-.017 0-.025-.007-.025-.023v-.129c0-.016.008-.023.025-.023h1.248Z"/><path fill="#231F20" d="M77.447 66.913c-.007-.01-.014-.014-.021-.014a.02.02 0 0 0-.02.014l-.498 1.181c-.011.023-.003.035.023.035h.955c.027 0 .037-.012.028-.035l-.467-1.18Zm.514 2.658c-.017 0-.027-.008-.027-.025v-.127c0-.018.01-.027.027-.027l.412-.039c.01 0 .017-.002.021-.009a.037.037 0 0 0 0-.024l-.393-.97c-.006-.009-.013-.014-.02-.014h-1.15a.03.03 0 0 0-.022.014l-.418.98c-.008.02 0 .031.026.033l.398.03c.017 0 .026.01.026.026v.127c0 .017-.01.025-.026.025H75.67c-.017 0-.026-.008-.026-.025v-.127c0-.018.01-.027.026-.027l.434-.039c.009 0 .015-.006.02-.014l1.345-3.162c.007-.01.014-.014.021-.014h.131a.031.031 0 0 1 .02.014l1.237 3.157c.004.01.01.015.023.015l.42.043c.017 0 .024.01.024.027v.127c0 .017-.01.025-.028.025H77.96ZM79.599 66.271c0-.016.008-.024.026-.024h1.432c.017 0 .025.008.025.024v.129c0 .015-.008.024-.025.024l-.475.04c-.017 0-.026.009-.026.025v2.83c0 .017.009.025.026.025h1.225c.017 0 .026-.006.026-.02l.106-.55c0-.012.01-.019.026-.019h.196c.017 0 .025.009.025.025v.767c0 .016-.008.024-.025.024h-2.536c-.017 0-.026-.008-.026-.024v-.128c0-.018.008-.027.026-.027l.443-.039c.017 0 .026-.008.026-.023v-2.841c0-.016-.009-.024-.026-.024l-.443-.041c-.017 0-.026-.009-.026-.024v-.129ZM87.035 65.12c.081 0 .174.005.276.016a8.028 8.028 0 0 1 .625.091c.102.02.19.035.266.047.024.005.036.016.036.032v.977c0 .02-.012.03-.036.03h-.261a.047.047 0 0 1-.026-.005.02.02 0 0 1-.01-.019l-.135-.725c0-.012-.009-.022-.027-.031a6.827 6.827 0 0 1-.15-.035 8.452 8.452 0 0 0-.19-.042 2.734 2.734 0 0 0-.202-.034 2.256 2.256 0 0 0-1.002.12 1.617 1.617 0 0 0-.59.375c-.161.162-.283.355-.367.581a2.142 2.142 0 0 0-.125.745c0 .284.043.553.132.806.088.255.213.478.376.671a1.731 1.731 0 0 0 1.35.624 4.024 4.024 0 0 0 .593-.057.61.61 0 0 0 .175-.056c.018-.01.027-.022.027-.035l.135-.728c0-.003.003-.009.01-.015a.038.038 0 0 1 .026-.01h.26c.025 0 .037.01.037.032v.973c0 .013-.012.024-.036.032a6.253 6.253 0 0 1-.542.11 4.34 4.34 0 0 1-.753.06c-.247 0-.478-.026-.694-.077a2.489 2.489 0 0 1-.598-.224 2.201 2.201 0 0 1-.486-.35 2.053 2.053 0 0 1-.358-.45 2.275 2.275 0 0 1-.307-1.151c0-.242.032-.466.094-.672a2.076 2.076 0 0 1 .676-1.012c.157-.129.33-.237.519-.326a2.74 2.74 0 0 1 .611-.2c.219-.045.443-.068.671-.068ZM90.522 66.325c-.395 0-.706.148-.933.444-.204.267-.306.595-.306.985a2 2 0 0 0 .149.777c.112.266.274.478.488.635a1.2 1.2 0 0 0 .733.238c.395 0 .7-.153.913-.457.184-.264.276-.594.276-.992 0-.445-.116-.822-.347-1.132-.248-.332-.573-.498-.973-.498Zm.061-.226c.531 0 .96.167 1.287.501.32.326.48.744.48 1.254 0 .508-.16.928-.483 1.26-.33.344-.758.515-1.284.515-.527 0-.96-.166-1.3-.498-.339-.332-.509-.751-.509-1.257 0-.511.167-.933.502-1.267.34-.338.776-.508 1.307-.508ZM92.655 66.2c0-.017.01-.025.026-.025h.928a.05.05 0 0 1 .02.01l1.952 2.468V66.44c0-.016-.007-.024-.023-.024l-.388-.04c-.017 0-.025-.009-.025-.026v-.15c0-.017.008-.025.025-.025h1.095c.017 0 .026.008.026.025v.15c0 .017-.01.026-.026.026l-.396.04c-.017 0-.025.008-.025.024v3.133c0 .016-.011.024-.032.024h-.1c-.008 0-.016-.006-.025-.014l-2.269-2.87v2.578c0 .018.008.027.021.027l.386.039c.017 0 .025.008.025.024v.153c0 .016-.008.024-.025.024H92.73c-.019 0-.029-.008-.029-.024v-.153c0-.016.01-.024.03-.024l.398-.039c.018 0 .027-.009.027-.027v-2.85c0-.017-.009-.025-.028-.025l-.447-.04c-.017 0-.026-.009-.026-.026v-.15ZM98.327 67.03c-.017 0-.025-.007-.025-.02l-.106-.565c0-.01-.007-.017-.022-.025a1.25 1.25 0 0 0-.489-.095.766.766 0 0 0-.462.138.475.475 0 0 0-.21.404c0 .163.062.3.187.413.084.075.22.154.411.238l.341.15c.268.118.462.237.584.358a.77.77 0 0 1 .228.568.902.902 0 0 1-.405.785c-.242.166-.545.25-.91.25-.186 0-.401-.026-.645-.078a1.265 1.265 0 0 1-.187-.054c-.017-.007-.025-.015-.025-.025v-.758c0-.016.008-.025.025-.025h.216c.017.005.025.011.025.02l.106.567a.027.027 0 0 0 .01.012l.012.015c.124.06.296.088.514.088a.961.961 0 0 0 .543-.144.524.524 0 0 0 .249-.462c0-.275-.192-.498-.576-.67l-.347-.155c-.253-.113-.441-.229-.565-.346a.739.739 0 0 1-.244-.55c0-.211.068-.399.203-.563.132-.158.305-.271.52-.338.136-.042.281-.064.433-.064a2.861 2.861 0 0 1 .817.12c.017.004.025.012.025.025v.761c0 .017-.008.025-.025.025h-.206ZM101.635 66.175c.018 0 .027.008.027.025v.787c0 .019-.009.028-.027.028h-.195c-.017 0-.025-.007-.025-.02l-.106-.57c0-.013-.008-.02-.025-.02h-1.204c-.018 0-.027.009-.027.025v1.243c0 .016.009.024.027.024h.724c.019 0 .028-.006.028-.02l.051-.407c0-.013.008-.02.026-.02h.144c.017 0 .025.008.025.025v1.092c0 .017-.008.025-.025.025h-.144c-.018 0-.026-.007-.026-.02l-.051-.432c0-.014-.009-.022-.028-.022h-.724c-.018 0-.027.01-.027.027v1.358c0 .016.009.025.027.025h1.275c.019 0 .029-.007.029-.02l.105-.56c0-.013.009-.02.026-.02h.195c.018 0 .026.009.026.025v.78c0 .017-.008.025-.026.025h-2.588c-.018 0-.027-.008-.027-.024v-.13c0-.018.01-.027.026-.027l.448-.04c.016 0 .025-.008.025-.024V66.41c-.007-.009-.016-.014-.025-.014l-.448-.042c-.017 0-.026-.008-.026-.024v-.13c0-.017.01-.025.026-.025h2.514ZM103.136 67.749c0 .016.008.024.021.024.243 0 .414-.004.511-.012.25-.021.433-.115.547-.282a.603.603 0 0 0 .098-.349c0-.483-.322-.724-.966-.724h-.185c-.018 0-.026.008-.026.024v1.319Zm.298-1.574c.476 0 .818.07 1.028.211.245.165.367.39.367.673 0 .326-.167.573-.501.741a1.53 1.53 0 0 1-.331.123c.181.084.352.272.511.565l.452.83c.007.013.019.019.038.019l.383.04c.017 0 .026.009.026.027v.13c0 .016-.009.024-.026.024h-.824c-.019 0-.032-.006-.039-.02l-.452-.905c-.217-.436-.498-.653-.842-.653h-.062c-.018 0-.026.006-.026.02v1.313c0 .015.008.023.026.024l.498.04c.019.002.028.01.028.027v.13c0 .016-.009.024-.028.024h-1.466c-.018 0-.027-.008-.027-.024v-.13c0-.018.009-.027.027-.027l.447-.04c.017 0 .025-.008.025-.024V66.42c0-.016-.008-.024-.025-.024l-.447-.042c-.018 0-.027-.008-.027-.024v-.13c0-.016.009-.025.027-.025h1.24ZM106.838 66.175c.017 0 .026.008.026.025v.13c0 .016-.009.024-.026.024l-.411.042c-.01 0-.017.004-.021.01-.003.006-.003.014 0 .024l.974 2.49 1.005-2.5c.008-.02 0-.032-.026-.034l-.396-.032c-.017-.001-.025-.01-.025-.024v-.13c0-.017.008-.025.025-.025h1.143c.017 0 .026.008.026.025v.13c0 .016-.009.024-.026.024l-.431.042a.032.032 0 0 0-.021.014l-1.309 3.205c-.004.01-.012.015-.024.015h-.136c-.01 0-.017-.006-.021-.015l-1.24-3.2c-.003-.01-.011-.014-.021-.014l-.421-.047c-.016 0-.023-.008-.023-.024v-.13c0-.017.009-.025.028-.025h1.351ZM110.946 66.853c-.008-.01-.014-.015-.021-.015-.01 0-.017.005-.021.015l-.496 1.203c-.01.022-.002.034.024.034h.95c.028 0 .037-.012.029-.034l-.465-1.203Zm.511 2.705c-.018 0-.026-.008-.026-.024v-.13c0-.018.008-.027.026-.027l.411-.04c.01 0 .017-.003.02-.009.004-.007.004-.015 0-.025l-.39-.987c-.007-.01-.014-.015-.021-.015h-1.145a.03.03 0 0 0-.021.015l-.417.997c-.008.021 0 .032.027.034l.395.03c.017.002.025.01.025.027v.13c0 .016-.008.024-.025.024h-1.138c-.017 0-.026-.008-.026-.024v-.13c0-.018.009-.027.026-.027l.432-.04c.008 0 .015-.006.02-.014l1.338-3.219c.007-.01.015-.015.021-.015h.131c.009.002.015.007.021.015l1.23 3.214c.003.01.011.014.023.014l.419.045c.015 0 .023.009.023.027v.13c0 .016-.009.024-.028.024h-1.351ZM115.929 66.175c.016 0 .025.008.025.025v.787c0 .019-.009.028-.025.028h-.196c-.017 0-.025-.007-.025-.02l-.106-.57c0-.013-.008-.02-.025-.02h-.853c-.014 0-.02.009-.02.025v2.883c0 .015.008.023.025.024l.499.04c.019.002.028.01.028.027v.13c0 .016-.009.024-.028.024h-1.508c-.019 0-.028-.008-.028-.024v-.13c0-.016.009-.025.028-.027l.498-.04c.017 0 .025-.009.025-.024V66.43c0-.016-.006-.024-.02-.024h-.853c-.017 0-.025.006-.025.02l-.106.57c0 .012-.008.019-.025.019h-.196c-.017 0-.025-.01-.025-.028V66.2c0-.017.008-.025.025-.025h2.911ZM118.007 66.325c-.394 0-.705.148-.933.444-.204.267-.305.595-.305.985 0 .28.05.54.149.777.111.266.274.478.488.635.214.158.458.238.732.238.395 0 .701-.153.915-.457.183-.264.274-.594.274-.992 0-.445-.115-.822-.347-1.132-.248-.332-.572-.498-.973-.498Zm.061-.226c.531 0 .96.167 1.287.501.321.326.481.744.481 1.254 0 .508-.161.928-.483 1.26-.33.344-.759.515-1.285.515-.527 0-.96-.166-1.299-.498-.34-.332-.508-.751-.508-1.257 0-.511.166-.933.5-1.267.341-.338.776-.508 1.307-.508ZM121.2 67.749c0 .016.008.024.021.024.243 0 .414-.004.511-.012.25-.021.433-.115.548-.282a.602.602 0 0 0 .097-.349c0-.483-.322-.724-.966-.724h-.185c-.017 0-.026.008-.026.024v1.319Zm.298-1.574c.476 0 .819.07 1.028.211.245.165.367.39.367.673 0 .326-.167.573-.501.741a1.53 1.53 0 0 1-.331.123c.181.084.352.272.511.565l.452.83c.007.013.019.019.038.019l.383.04c.017 0 .026.009.026.027v.13c0 .016-.009.024-.026.024h-.824c-.019 0-.032-.006-.039-.02l-.451-.905c-.218-.436-.499-.653-.843-.653h-.062c-.017 0-.026.006-.026.02v1.313c0 .015.009.023.026.024l.498.04c.019.002.028.01.028.027v.13c0 .016-.009.024-.028.024h-1.466c-.017 0-.026-.008-.026-.024v-.13c0-.018.009-.027.026-.027l.447-.04c.017 0 .025-.008.025-.024V66.42c0-.016-.008-.024-.025-.024l-.447-.042c-.017 0-.026-.008-.026-.024v-.13c0-.016.009-.025.026-.025h1.24ZM126.271 66.426c.004-.004.005-.008.005-.013 0-.018-.009-.027-.028-.027l-.362-.032c-.017 0-.026-.008-.026-.024v-.13c0-.017.009-.025.026-.025h1.089c.018 0 .026.008.026.025v.13c0 .016-.008.024-.026.024l-.395.037a.032.032 0 0 0-.021.01l-1.046 1.713a.055.055 0 0 0-.004.026v1.173c0 .016.008.024.025.024l.447.04c.017 0 .025.009.025.027v.13c0 .016-.008.024-.025.024h-1.405c-.017 0-.026-.008-.026-.024v-.13c0-.018.009-.027.026-.027l.447-.04c.017 0 .025-.008.025-.024v-1.146a.098.098 0 0 0-.004-.033l-1.025-1.728a.034.034 0 0 0-.021-.01l-.447-.042c-.019 0-.028-.008-.028-.024v-.13c0-.017.009-.025.028-.025h1.397c.019 0 .029.008.029.025v.13c0 .016-.01.024-.029.024l-.377.032a.02.02 0 0 0-.021.015c-.003.01-.003.018 0 .025l.842 1.458.879-1.458ZM60.082 72.098a1.21 1.21 0 0 0-1.03.515c-.225.309-.337.688-.337 1.139 0 .324.055.625.165.901a1.7 1.7 0 0 0 .538.734c.236.183.506.275.808.275.437 0 .773-.176 1.01-.529.202-.305.303-.688.303-1.148 0-.515-.127-.952-.383-1.31-.273-.384-.632-.577-1.074-.577Zm.067-.26c.586 0 1.06.193 1.422.578.353.378.53.862.53 1.452 0 .588-.178 1.074-.533 1.459-.365.397-.838.596-1.419.596-.581 0-1.06-.193-1.434-.576-.374-.385-.561-.87-.561-1.455 0-.592.184-1.08.552-1.467.377-.392.857-.587 1.443-.587ZM65.3 72.516c.018 0 .026.009.026.025v.774c0 .018-.008.027-.026.027h-.18c-.019 0-.027-.007-.027-.02l-.097-.559c0-.013-.009-.02-.026-.02h-1.079c-.015 0-.023.008-.023.025v1.295c0 .013.008.02.023.02h.65c.017 0 .025-.007.025-.02l.05-.4c0-.013.008-.02.024-.02h.132c.018 0 .027.009.027.024v1.052c0 .016-.009.024-.027.024h-.132c-.016 0-.024-.006-.024-.02l-.05-.404c0-.014-.008-.02-.025-.02h-.65c-.015 0-.023.006-.023.02v1.28c0 .017.008.025.023.025l.42.038c.015 0 .023.009.023.027v.127c0 .016-.008.024-.024.024h-1.317c-.016 0-.024-.008-.024-.024v-.127c0-.018.008-.027.024-.027l.42-.038c.016 0 .023-.008.023-.025v-2.85c-.003-.01-.007-.015-.014-.015h-.01l-.419-.041c-.016 0-.024-.008-.024-.024v-.128c0-.016.006-.025.02-.025h2.31ZM69.879 75.06 71.121 72c.004-.012.011-.017.023-.017h.632v3.63c0 .018.011.028.032.03l.522.045c.019.002.028.012.028.031v.151c0 .02-.01.028-.028.028h-1.634c-.019 0-.029-.009-.029-.028v-.15c0-.02.01-.03.03-.032l.546-.045c.02-.002.028-.012.028-.03v-3.23h-.022l-1.435 3.555c-.004.008-.013.012-.028.012h-.06c-.015 0-.025-.004-.028-.012l-1.458-3.514-.258 3.19c0 .019.01.029.029.029l.482.045c.02 0 .03.01.03.031v.151c0 .02-.01.028-.03.028h-1.33c-.02 0-.03-.009-.03-.028v-.15c0-.02.01-.03.03-.032l.518-.045c.02-.002.029-.012.029-.03l.258-3.346v-.284h.65l1.261 3.077ZM73.09 72.49c0-.018-.008-.027-.026-.027l-.458-.045c-.018 0-.027-.009-.027-.027v-.141c0-.018.01-.027.027-.027h1.478c.018 0 .026.009.026.027v.14c0 .019-.008.028-.026.028l-.49.045c-.02 0-.03.01-.03.027v1.97c0 .273.016.483.045.63.024.114.07.212.141.293.19.219.464.328.823.328.386 0 .673-.152.862-.459.06-.095.1-.245.12-.45.011-.11.017-.243.017-.4V72.49c0-.018-.01-.027-.027-.027l-.464-.045c-.017 0-.026-.009-.026-.027v-.141c0-.018.01-.027.026-.027h1.265c.018 0 .027.009.027.027v.14c0 .019-.01.028-.027.028l-.448.045c-.017 0-.026.01-.026.027v1.891c0 .597-.123 1.014-.367 1.25-.238.23-.574.345-1.006.345-.489 0-.855-.123-1.103-.369a.9.9 0 0 1-.223-.338 1.889 1.889 0 0 1-.083-.61V72.49ZM78.438 73.151c-.017 0-.026-.007-.026-.022l-.11-.613c0-.01-.008-.02-.023-.026a1.231 1.231 0 0 0-.506-.105.77.77 0 0 0-.48.15.524.524 0 0 0-.218.44c0 .176.065.325.194.448.088.082.23.168.426.26l.354.162c.278.128.479.257.604.389a.858.858 0 0 1 .238.616c0 .366-.14.65-.42.853-.25.182-.565.273-.944.273-.193 0-.415-.03-.668-.086a1.219 1.219 0 0 1-.194-.059c-.017-.007-.026-.015-.026-.026v-.824c0-.017.009-.027.026-.027h.224c.018.005.026.012.026.021l.11.616c.001.006.005.01.01.014l.014.016c.127.064.305.096.532.096a.96.96 0 0 0 .561-.157.574.574 0 0 0 .259-.502c0-.299-.199-.542-.596-.728l-.36-.168c-.262-.123-.457-.248-.586-.376a.82.82 0 0 1-.253-.598c0-.228.07-.432.21-.61.137-.173.317-.296.539-.368a1.42 1.42 0 0 1 .45-.07 2.866 2.866 0 0 1 .846.13c.018.005.027.013.027.028v.827c0 .017-.01.026-.027.026h-.213ZM80.727 72.223c.018 0 .027.009.027.027v.14c0 .019-.009.028-.027.028l-.462.045c-.018 0-.027.01-.027.027v3.142c0 .018.009.026.027.026l.462.043c.018 0 .027.01.027.03v.141c0 .017-.009.026-.027.026h-1.466c-.017 0-.026-.009-.026-.026v-.142c0-.019.009-.029.026-.029l.463-.043c.018 0 .027-.008.027-.026V72.49c0-.018-.009-.027-.027-.027l-.463-.045c-.017 0-.026-.009-.026-.027v-.141c0-.018.009-.027.026-.027h1.466ZM83.24 72.14c.066 0 .14.005.224.014a5.13 5.13 0 0 1 .504.077c.083.016.154.03.214.04.02.004.03.012.03.027v.827c0 .017-.01.026-.03.026h-.21a.038.038 0 0 1-.022-.005c-.005-.004-.008-.01-.008-.017l-.108-.613c0-.01-.007-.019-.022-.026a4.883 4.883 0 0 1-.123-.03l-.152-.036a1.797 1.797 0 0 0-.324-.039c-.243 0-.46.038-.648.113a1.295 1.295 0 0 0-.773.81 1.877 1.877 0 0 0-.1.63c0 .24.034.468.105.682.071.216.172.405.304.568.131.165.289.294.475.388.185.094.391.14.616.14a2.643 2.643 0 0 0 .48-.048.479.479 0 0 0 .14-.047c.015-.01.022-.02.022-.03l.108-.616c0-.003.003-.008.008-.013a.033.033 0 0 1 .022-.008h.21c.02 0 .03.009.03.027v.824c0 .011-.01.02-.03.026a4.724 4.724 0 0 1-.438.094 4.181 4.181 0 0 1-.608.05c-.199 0-.386-.02-.56-.065a1.944 1.944 0 0 1-.483-.189 1.757 1.757 0 0 1-.682-.677 1.964 1.964 0 0 1-.182-.459 2.047 2.047 0 0 1-.065-.516c0-.204.025-.394.076-.568a1.773 1.773 0 0 1 .545-.857c.127-.11.266-.202.42-.277.153-.075.317-.13.493-.17a2.58 2.58 0 0 1 .542-.056Z"/></g><defs><filter id="a" width="154" height="157" x="0" y="0" color-interpolation-filters="sRGB" filterUnits="userSpaceOnUse"><feFlood flood-opacity="0" result="BackgroundImageFix"/><feColorMatrix in="SourceAlpha" result="hardAlpha" values="0 0 0 0 0 0 0 0 0 0 0 0 0 0 0 0 0 0 127 0"/><feOffset dy="16"/><feGaussianBlur stdDeviation="6.5"/><feColorMatrix values="0 0 0 0 0 0 0 0 0 0 0 0 0 0 0 0 0 0 0.03 0"/><feBlend in2="BackgroundImageFix" result="effect1_dropShadow_185_294"/><feBlend in="SourceGraphic" in2="effect1_dropShadow_185_294" result="shape"/></filter></defs></svg>