<svg xmlns="http://www.w3.org/2000/svg" width="154" height="157" fill="none"><g filter="url(#a)"><path fill="#fff" d="M13 0h128v128H13z"/><path fill="#231916" fill-rule="evenodd" d="M118.61 60.344c-.056.088-.195.122-.291.151-.181.055-.384.053-.57.049-.168-.556-.081-1.122-.112-1.69-.008-.14-.04-.277-.049-.416-.009-.134-.075-.28-.104-.412a7.375 7.375 0 0 1-.131-.689c-.004-.031-.013-.236-.032-.245.072.036.21-.05.294-.03.11.028.182.152.241.24.133.195.194.427.268.65.042.128.09.254.16.37.168.283.521.407.588.723.049.227-.021.443-.096.657a2.03 2.03 0 0 0-.14.57.147.147 0 0 1-.026.072Z" clip-rule="evenodd"/><path fill="#231916" fill-rule="evenodd" d="M122.029 56.155c.036.456.04.564-.133.776-.218.27-.589.549-.669 1.017.305.15.282-.225.535-.215.099.16.093.425.134.643.263-.05.417-.36.615-.509.131-.097.106-.104.214-.24.143-.179.269-.301.295-.535.059-.54-.248-1.015-.348-1.446-.29-.024-.508.03-.669-.025.067.169.012.34.026.534Zm2.891-1.766c-.244.073-.747.309-1.043.428-.068.027-.176-.001-.242.027-.191.08-.56.335-.642.482.12.188.307.414.482.695.152.244.452.606.455.83.001.092-.105.302-.161.428-.114.264-.27.512-.509.508-.195.617-1.033.59-1.123 1.312.157.18.247.432.214.803.093.02.102-.04.188-.027.349-.493.833-.989.963-1.419.326-.334.403-.746.668-1.043.058-.336.334-.587.41-.918.03-.117.104-.183.146-.29.034-.091.048-.196.099-.28.028-.045.076-.076.096-.126.044-.104.052-.222.086-.33.032-.106.07-.209.1-.317.032-.11.057-.225.068-.34.004-.045.031-.352-.015-.369-.106-.043-.153.024-.24-.054Zm-3.05-1.526c.117.015.046-.134.079-.213.015-.034-.054-.057-.053-.08.007-.243.033-.447-.081-.722-.012-.033-.065-.03-.079-.054-.1-.17.057-.395 0-.59.299-.053.49-.025.669.134.224.201.434.419.651.628.108.103.217.206.327.305.048.043.108.078.151.124.061.065.013.152 0 .23-.015.105-.014.221-.059.32-.162.343-.494.538-.697.802-.036.047-.016.118-.053.16-.094.11-.249.173-.348.268-.278.268-.451.672-.641.963.023.047.083.059.16.054.887-.647 1.876-1.394 3.131-1.552a3.01 3.01 0 0 1 .844-.008c.137.021.275.063.403.117.266.112.139.494.082.688-.088.299-.173.6-.309.882-.258.536-.589 1.027-.925 1.516-.16.235-.325.467-.47.712-.295.459-.832 1.359-.803 2.06.71-.32 1.675-.813 2.623-.75.127.01.254.007.375.056.135.055.144.211.152.342.008.128-.019.256-.058.378-.08.242-.204.477-.364.677-.313.394-.761.661-1.205.886-.157.078-.316.154-.476.227-.08.038-.161.082-.244.113-.075.028-.149.008-.223.031-.105.032-.2.093-.307.118-.053.012-.106.005-.159.017-.051.01-.087.042-.135.058-.118.044-.241.073-.362.104-.038.01-.388.058-.393.072-.31 1.13-1.282 1.719-2.061 2.568.011-.235.126-.518.161-.722.002-.01.017-.23.027-.214-.083-.135-.87.138-1.178.106-.143-.013-.252-.102-.374-.106-.05-.002-.036-.271-.034-.306.015-.177.328-.188.446-.218.219-.055.431-.145.644-.219.392-.14.771-.35 1.081-.629a2.49 2.49 0 0 0 .458-.555c.029-.046.275-.081.332-.1.107-.033.215-.066.322-.103a6.37 6.37 0 0 0 .587-.237 5.748 5.748 0 0 0 1.273-.802c.082-.068.202-.107.277-.183.162-.165-.297-.195-.363-.188-.245.026-.464.153-.688.248-.151.065-.339.08-.508.16-.073.035-.181.085-.268.134-.182.104-.541.23-.856.402-.078.043-.152.09-.228.137-.043.026-.075.071-.119.095-.047.025-.062.003-.107-.001a.557.557 0 0 0-.271.071c-.086.042-.156.106-.237.153-.164.096-.366.087-.527.18-.057.033-.101.083-.163.107-.066.025-.143.02-.211.038-.111.03-.219.063-.329.096-.244.074-.49.145-.745.178-.105.013-.208.052-.317.043-.213-.017.053-.277.115-.34.1-.103.212-.194.33-.276.081-.057.187-.073.28-.107.111-.04.195-.123.312-.15.137-.032.276-.054.413-.087.26-.062.526-.137.76-.27.479-.275.609-.868.536-1.26-.016-.08-.053-.153-.188-.213-.055.05-.099.072-.053.16-.115.104-.583.161-.723.081-.079-.044-.253-.42-.321-.455-.399-.21-.84.875-.963 1.258-.218.327-.395.812-.784.97a.802.802 0 0 1-.243.047c-.249.017-.061-.263.027-.362.075-.083.09-.214.158-.306.085-.116.181-.223.259-.343a3.84 3.84 0 0 0 .148-.26c.039-.075.062-.188.113-.254.222-.291.434-.638.482-.964.127-.284.607-1.09-.107-1.123-.072.082-.092.447-.402.347-.509-.618-.552-1.803-.748-2.703-.008-.034-.017-.115-.028-.133-.058-.102-.038-.052-.052-.16a.946.946 0 0 0-.105-.291c-.045-.084-.106-.148-.115-.245a.6.6 0 0 0-.055-.202c-.034-.08-.213-.28-.127-.36.089-.081.215-.083.328-.081.087.001.159-.042.25-.014.096.03.163.111.215.193.156.237.256.517.379.772.256.529.477 1.066.631 1.634.089.33.14.663.177 1.001.008.072.112.048.134.107.208-.217.633-.487.696-.803.083-.42-.453-.874-.348-1.444.84-.642 1.276-1.634 1.392-2.57ZM75.441 66.404c-.263.582-.212.895-.455 1.553.487.28.755-.581 1.07-.724-.074-.033.085-.055.055-.133-.227-.219-.275-.537-.67-.696Zm1.284-.75c-.04.166-.008.445.054.59.296-.055.5-.275.509-.536-.105-.195-.335-.035-.563-.053Zm-2.212-9.2c.012.188.022.374.024.563.005.362.01.725.034 1.087.012.179.087.36.085.545-.001.385-.085.792-.108 1.182-.019.331.032.665.009.997l-.045.625c-.032.458-.067.898-.002 1.355.022.147.006.329.167.363.201.045.425-.099.57-.22.176-.149.314-.344.445-.53.237-.337.452-.81.82-1.026.127-.075.666-.308.801-.184a.575.575 0 0 1 .184.548c-.035.157-.169.237-.255.361-.076.11-.12.239-.195.35-.285.419-.51.872-.695 1.343-.1.256-.19.514-.277.774-.076.222-.095.472-.156.7.436-.086.894-.42 1.293-.614.222-.109.449-.224.682-.308.398-.144.791-.358.98.162.051.142.087.288.127.432.017.068-.326.441-.379.503-.135.157-.273.29-.396.454-.146.193-.44.317-.486.583-.046.27.266.393.455.511.41.255.918.45 1.193.864.202.303.27.734-.06.955-.079.052-.564.445-.653.25-.075-.165-.147-.345-.242-.502-.143-.234-.382-.441-.585-.62-.184-.163-.89-.504-1.095-.242.022.005.024-.01.026-.027-.18.175-.752.753-.963 1.07-.126.04-.351.38-.482.536-.267.316-.584.612-.722 1.018-.224.2-.225.522-.482.721-.383-.025-.456-.498-.669-.829-.071-.356-.054-.704 0-1.125.145-1.126.75-2.305 1.15-3.317-.064-.106-.054-.284-.106-.402-.197-.027-.194.145-.268.241-.039-.012.003-.023 0-.053-.54.62-.884 1.16-1.391 1.712.005.031.027.015.027 0-.147.185-.385.508-.616.697.005.03.027.014.027 0-.53.758-1.338 1.45-2.114 2.086-.455.374-1.052.73-1.847.67-.054-.062-.029-.204-.107-.242.047-.082.034-.287-.026-.32.043-.283-.006-.726.133-1.072.284-.704 1.178-1.09 1.74-1.497.656-.593 1.4-1.078 2.04-1.69.323-.306.62-.644.85-1.025.12-.196.22-.4.3-.616.165-.439.274-1.07.3-1.54.014-.275-.01-.55-.029-.823-.015-.206.043-.627-.036-.808-.084-.196.01-1.034.134-1.286.015-.213.009-.388.047-.601.038-.21-.04-.43-.051-.64-.007-.142-.019-.284-.025-.427-.008-.173-.085-.693.1-.808-.011-.252.013-.556-.054-.797-.08-.299-.16-.55-.155-.863.004-.311.044-.627-.032-.934.066-.141-.238-.472-.265-.637-.04-.245-.189-.504-.266-.744a4.11 4.11 0 0 0-.384-.893c-.114-.19-.21-.344-.198-.57.012-.226-.004-.509.267-.498.533.02 1.016.542 1.15 1.027.055.203.218.4.267.535.01.027-.054.023-.053.027.011.058.081.07.106.134.085.214.053.568.134.803.17.49.185 1.01.221 1.525.024.34.059.68.082 1.022ZM76.203 54.15c-.126-.057-.173-.23-.268-.323-.096-.094-.204-.175-.3-.27a.988.988 0 0 1-.23-.33c-.02-.047-.101-.495-.044-.497 1.023-.033 1.907.506 2.507 1.313.1.136.264.406.187.588-.136.324-.825.37-1.116.399.065-.007-.043-.479-.065-.523-.07-.142-.235-.304-.395-.338-.085-.017-.195.018-.276-.02ZM93.13 56.181c.557-.173.91-.55 1.605-.587.072.256.295.353.401.56.09.177.134.423.106.62-.03.2-.185.34-.317.48-.144.153-.277.315-.415.471a9.987 9.987 0 0 1-.964.973 6.683 6.683 0 0 1-.298.24c-.164.124-.308.288-.493.095-.13-.137-.18-.34-.187-.524.119-.157.298-.09.455-.187.144-.09.197-.428.294-.615.125-.243.303-.566.4-.803.065-.153.07-.261.054-.454-.51.003-.764.388-1.043.534-.248.957-.798 1.98-1.017 2.783-.046.139-.232.73-.16 1.044.021.029.46-.143.502-.157.294-.095.564-.27.853-.38.497-.19 1.007-.37 1.516-.53.33-.102.662-.198.997-.283.278-.07.558-.133.842-.175.286-.042.521.246.428.562-.04.135-.148.118-.215.215-.082.118-.013.236-.107.347-.513.185-1.17.309-1.605.429-.339.092-.698.108-1.044.17-.41.072-.816.188-1.215.315-.259.083-.524.149-.772.263-.238.11-.434.338-.689.401-.187.892-.63 1.384-.535 2.49.077.115.23.126.355.096.168-.038.177-.08.23-.224.063-.173.174-.304.221-.491.046-.185.065-.38.13-.559.126-.346.206-.786.268-1.097.637-.117 1.126.279 1.204.722.004.026-.273.33-.304.39a2.205 2.205 0 0 0-.163.447c-.024.093-.29 1.043-.256 1.063.256.146.545.221.821.314.176.059.505.1.569.3.074.235 0 .64-.185.804-.812.04-1.142-.164-1.82-.133-.334.755-1.13 1.626-1.686 2.274-.164.193-.409.316-.55.525-.501.736-1.398 1.257-2.237 1.51a5.615 5.615 0 0 1-1.298.235c-.11.009-.452.087-.544.031-.425-.259-.695-.853-.267-1.284.838-.075 1.61.109 2.247-.134.22-.083.368-.303.562-.455 1.05-.816 2.246-1.888 2.73-3.05-.167-.09-.32-.17-.494-.239-.188-.074-.343-.332-.448-.494-.138-.21-.235-.456-.209-.711.053-.525.563-1.078.455-1.66-.01-.035-.047-.042-.053-.081-.4.041-.737.318-1.044.455a15.67 15.67 0 0 0-1.948 1.059c-.217.135-.469.156-.661.33-.008-.017.013-.03.007-.05.022.06-.43.212-.459.233-.194.147-.234.363-.525.409-.66.103-1.129-.695-1.097-1.231 2.286-.621 4.23-1.586 6.288-2.436.153-.572.263-1.126.429-1.659.072-.233.25-.59.24-.75.025-.19.179-.475.027-.668a.65.65 0 0 0-.267.028c-.085.032-.186.201-.244.273-.08.094-.155.192-.227.29a9.404 9.404 0 0 0-.402.612c-.133.215-.26.432-.392.648-.076.123-.125.289-.24.385-.061.051-.105.06-.184.057-.039-.001-.277-.02-.292-.045-.121-.213-.217-.599-.213-.964 0-.1.058-.243.052-.32-.048-.645.187-1.429.161-2.06-.148-.081-.043-.288-.026-.509.01-.114.308.078.325.098.126.137.221.328.302.493.084.17.14.355.18.539.01.046.085.551.049.555.982-.132 1.348-.882 1.926-1.418.034-.697.372-1.854.295-2.702-.162-.154-.273-.181-.268-.43.348-.138.725-.08 1.074.019.163.047.335.053.495.112.065.025.161.066.2.126.023.033.034.276.051.28.023.004.025-.012.027-.027.193.51-.302 1.186-.295 1.872ZM106.696 61.08c-.384.669-.545 1.49-.695 2.113.07.115-.018.287.053.48 1.315.961 2.88 2.016 4.844 1.5.018-.004-.014.235-.017.252-.024.131-.137.228-.219.325-.09.105-.137.239-.229.341-.243.27-.588.432-.846.688-.21.207-.552.24-.804.16-.616-.194-1.031-.631-1.451-1.096-.132-.147-1.381-1.786-1.626-1.66-.145.076-.074.048-.133.187-.085.2-.244.363-.323.563-.124.301-.237.623-.398.908-.142.25-.318.48-.464.727-.127.217-.212.466-.372.663-.409.498-.715 1.078-1.146 1.555-.18.199-.406.353-.557.578-.071-.025-.126.036-.143.137.005-.031-.266.201-.282.216a2.11 2.11 0 0 1-.348.241 4.758 4.758 0 0 1-.972.407c-.027-.088-.056-.176-.133-.214.549-.674 1.319-1.427 1.739-2.222.713-.798 1.336-1.83 1.826-2.78.315-.61.531-1.271.712-1.927.059-.211.141-.419.163-.64.008-.09.028-.204-.009-.292a.214.214 0 0 0-.143-.119c-.086-.017-.159.068-.234.095-.095.036-.199.018-.298.02-.148.004-.297.06-.445.027-.236-.052-.457-.168-.665-.29-.085-.051-.235-.086-.295-.165-.044-.057-.075-.224-.076-.293-.002-.132.259-.1.338-.12.183-.047.366-.084.547-.136a5.186 5.186 0 0 0 1.059-.411c.179-.1.35-.22.503-.354.356-.318.58-.76.692-1.22.119-.482.012-.9.045-1.376.049-.72.21-1.416.24-2.14.358-.432.827-.298 1.102.118.348.528.085.91.066 1.464-.012.328-.12.626-.217.934-.029.095-.01.198-.038.295-.033.112-.094.216-.119.333a2.158 2.158 0 0 0-.044.656c.399-.175.764-.486 1.284-.456.203.11.54.294.376.535.025.229-.198.54-.322.67-.338.347-1.038.563-1.526.723Z" clip-rule="evenodd"/><path fill="#231916" fill-rule="evenodd" d="M76.736 57.454c-.03.02-.06.042-.077.077-.032.072.002.197.02.268.048.187.151.357.236.528.063.124.463.77.292.906-.096.076-.191.156-.295.221a1.29 1.29 0 0 1-.374.15c-.078.02-.142.047-.205-.014-.1-.099-.21-.182-.305-.284a.808.808 0 0 1-.118-.168c-.027-.047-.076-.067-.119-.097a.412.412 0 0 1-.112-.13c-.032-.054-.047-.117-.077-.171-.028-.052-.092-.076-.115-.125-.037-.08-.009-.204.015-.285.03-.098.077-.19.129-.279.124-.212.275-.407.408-.614.045-.07.101-.133.135-.21.028-.062-.002-.123-.011-.185-.01-.063.008-.128 0-.19-.022-.193-.133-.432-.08-.644a.952.952 0 0 0 0-.134c-.006-.063-.015-.266.08-.4.88-.059 2.318.452 1.473 1.31.046.099-.076.146-.107.242-.033.089-.18.082-.256.082-.115 0-.245-.02-.36.006-.074.016-.117.097-.177.14ZM118.284 68.572c.756.128 1.668.632 2.622.401.044-.01.089-.512.097-.574.027-.182.047-.364.063-.547.031-.346.07-.692.084-1.038.017-.352-.019-.69-.048-1.04-.009-.112.022-.221.017-.333 0 .011-.504.214-.551.239-.193.1-.385.206-.582.302-.396.193-.815.347-1.262.303a1.54 1.54 0 0 1-.416-.086c-.07-.027-.171-.07-.215-.135-.052-.08-.046-.23-.06-.323-.014-.101-.05-.187.065-.225.159-.056.33-.074.496-.102.079-.014.16-.03.239-.052.077-.023.138-.079.222-.077.131.004.239.008.366-.033.13-.041.254-.1.388-.132.24-.058.5-.044.722-.134.136-.056.258-.187.428-.267.405-.193.846-.375 1.258-.59.551-.286 1.381-.492 2.007-.56.185.101.538.016.615.266.055.176-.116.399-.134.535-.89.731-1.914.593-2.917.883.147.678.314 1.256.429 1.873-.054.457.168.88.134 1.285a3.905 3.905 0 0 1-.112.604c-.031.125-.058.251-.105.372-.046.12-.14.217-.185.335-.037.102-.025.206-.053.268-.014.034-.072.035-.08.053-.016.031.021.09.027.08-.072.141-.169.265-.248.401-.036.063-.052.14-.089.2-.061.096-.244.103-.343.095-.207-.017-.393-.237-.558-.344-.202-.13-.399-.27-.597-.405-.408-.28-.811-.582-1.175-.918a6.534 6.534 0 0 1-.292-.285 6.056 6.056 0 0 1-.135-.149c-.022-.025-.092-.14-.122-.146ZM117.575 61.338c.051.043.013.15.011.204-.002.073-.005.147-.005.218-.002.078 0 .155.005.23.009.107.037.16-.01.261a.777.777 0 0 0-.063.195c-.011.081-.01.149-.055.223-.048.08-.113.149-.157.231-.067.128-.124.261-.173.396a5.123 5.123 0 0 0-.187.66c-.011.046-.067.185-.049.227.027.062.123.055.215.054.033-.002.177-.283.202-.321.071-.107.144-.214.218-.32.073-.107.145-.213.216-.32.043-.066.07-.165.143-.203.023-.013.228-.066.237-.04.084.27-.055.57-.027.749-.14.363-.388 1-.669 1.39-.171.24-.599.686-.963.83-.24.097-.43-.171-.563-.482-.185-.433-.11-.996-.053-1.39.189-.384.39-.638.509-.964.058-.022.06-.101.134-.106.078-.335.464-.842.589-1.205.011-.034.093-.091.115-.132.032-.059.055-.122.085-.18a.467.467 0 0 1 .12-.157c.036-.028.113-.078.161-.055.005.001.01.005.014.007ZM70.943 73.436l.075 1.097h-.075c-.098-.33-.238-.567-.42-.712a1.02 1.02 0 0 0-.655-.217c-.213 0-.406.054-.58.162-.171.11-.307.282-.406.52-.099.238-.148.533-.148.887 0 .291.047.544.14.759.093.213.234.378.421.492.189.114.402.17.643.17.209 0 .394-.044.553-.133.16-.09.337-.268.528-.535l.073.047c-.16.287-.35.497-.565.63-.216.134-.472.2-.768.2-.534 0-.948-.197-1.241-.593a1.696 1.696 0 0 1-.329-1.04c0-.322.072-.617.216-.886.145-.27.343-.478.596-.626.253-.148.529-.222.828-.222.233 0 .463.057.69.172a.372.372 0 0 0 .142.053c.042 0 .08-.015.111-.046a.378.378 0 0 0 .088-.179h.083ZM72.26 75.006h1.5v-.927c0-.164-.01-.272-.032-.324a.21.21 0 0 0-.1-.102.434.434 0 0 0-.216-.056h-.115v-.089h1.38v.089h-.113a.451.451 0 0 0-.217.054.199.199 0 0 0-.104.114 1.127 1.127 0 0 0-.027.314v2.082c0 .163.01.271.031.324.016.04.049.073.098.102.07.038.142.057.22.057h.113v.088h-1.38v-.088h.114c.131 0 .228-.038.287-.117.04-.05.06-.172.06-.366v-.98H72.26v.98c0 .163.01.271.03.324a.22.22 0 0 0 .1.102.44.44 0 0 0 .216.057h.116v.088h-1.38v-.088h.114c.133 0 .23-.038.29-.117.038-.05.057-.172.057-.366V74.08c0-.164-.01-.272-.03-.324a.215.215 0 0 0-.098-.102.448.448 0 0 0-.22-.056h-.114v-.089h1.381v.089h-.116a.448.448 0 0 0-.216.054.203.203 0 0 0-.102.114 1.106 1.106 0 0 0-.028.314v.927ZM76.933 75.48l-.544-1.303-.56 1.303h1.104Zm.074.175h-1.254l-.217.506a.812.812 0 0 0-.08.28c0 .05.022.093.07.13.046.037.147.062.303.073v.088H74.81v-.088c.136-.024.223-.055.262-.093.08-.076.17-.23.27-.465l1.133-2.65h.087l1.121 2.679c.09.216.173.356.246.42a.493.493 0 0 0 .308.11v.087h-1.272v-.088c.129-.007.215-.028.26-.065a.166.166 0 0 0 .068-.133c0-.069-.031-.18-.095-.331l-.191-.46ZM78.227 73.508h.87l1.976 2.416v-1.856c0-.198-.023-.322-.067-.372-.059-.067-.151-.1-.278-.1h-.112v-.088h1.123v.089h-.115c-.136 0-.233.04-.29.123-.035.05-.053.167-.053.348v2.716h-.085l-2.126-2.597v1.985c0 .199.021.322.064.372.06.066.153.1.278.1h.115v.088h-1.122v-.088h.111c.138 0 .236-.042.293-.124.035-.05.052-.167.052-.348v-2.24a1.497 1.497 0 0 0-.213-.217.77.77 0 0 0-.212-.097.756.756 0 0 0-.21-.021v-.089ZM84.792 73.436l.083 1.017h-.083c-.083-.252-.192-.443-.325-.571-.193-.186-.439-.278-.74-.278-.41 0-.723.162-.937.486-.179.274-.268.6-.268.978 0 .307.059.587.178.84.118.253.275.438.466.556.193.118.391.178.594.178a1.31 1.31 0 0 0 .666-.18v-.93c0-.162-.012-.269-.037-.319a.253.253 0 0 0-.114-.114.654.654 0 0 0-.272-.04v-.087h1.249v.087h-.06c-.123 0-.208.041-.254.124-.032.06-.047.174-.047.349v.987c-.183.098-.363.17-.54.215-.177.047-.375.07-.592.07-.623 0-1.095-.2-1.418-.6a1.595 1.595 0 0 1-.364-1.034c0-.284.068-.555.205-.815.16-.309.383-.547.665-.713.236-.137.514-.206.836-.206.117 0 .223.01.32.029.095.02.232.06.407.125.089.033.148.05.178.05s.056-.014.077-.041c.022-.028.035-.082.04-.163h.087ZM86.378 73.897c.045-.204.08-.405.105-.609.025-.202.07-.307.133-.313a.31.31 0 0 1 .2.057c.07.044.073.158.01.342a9.337 9.337 0 0 1-.21.552c-.076.183-.196.434-.361.751l-.095-.019c.1-.305.174-.558.218-.76ZM90.551 75.48l-.544-1.303-.56 1.303h1.104Zm.073.175H89.37l-.216.506a.805.805 0 0 0-.08.28c0 .05.023.093.069.13.047.037.148.062.303.073v.088H88.43v-.088c.134-.024.221-.055.261-.093.08-.076.171-.23.27-.465l1.133-2.65h.087l1.12 2.679c.091.216.173.356.247.42a.493.493 0 0 0 .308.11v.087h-1.272v-.088c.128-.007.215-.028.26-.065a.164.164 0 0 0 .068-.133c0-.069-.032-.18-.095-.331l-.192-.46ZM91.844 73.508h.87l1.977 2.416v-1.856c0-.198-.022-.322-.067-.372-.06-.067-.152-.1-.278-.1h-.112v-.088h1.123v.089h-.115c-.136 0-.234.04-.29.123-.035.05-.052.167-.052.348v2.716h-.087l-2.125-2.597v1.985c0 .199.021.322.065.372.06.066.152.1.278.1h.114v.088h-1.123v-.088h.112c.138 0 .236-.042.292-.124.036-.05.053-.167.053-.348v-2.24a1.501 1.501 0 0 0-.213-.217.764.764 0 0 0-.213-.097.755.755 0 0 0-.209-.021v-.089ZM100.184 73.597v-.088h1.138v.088h-.121a.326.326 0 0 0-.291.16c-.033.048-.05.163-.05.342v1.306c0 .323-.032.573-.096.752a.944.944 0 0 1-.378.458c-.188.128-.444.191-.767.191-.351 0-.619-.061-.8-.183a.988.988 0 0 1-.388-.491c-.051-.141-.076-.405-.076-.794v-1.26c0-.197-.028-.327-.083-.389-.054-.062-.143-.092-.265-.092h-.122v-.088h1.395v.088h-.123c-.134 0-.229.041-.286.124-.04.059-.06.177-.06.358v1.404c0 .125.012.269.035.43a.914.914 0 0 0 .124.378.69.69 0 0 0 .26.224.895.895 0 0 0 .417.087c.212 0 .4-.046.567-.138a.74.74 0 0 0 .341-.352c.06-.144.091-.386.091-.729v-1.304c0-.202-.022-.328-.067-.379-.061-.07-.153-.103-.274-.103h-.121Z" clip-rule="evenodd"/><path fill="#231916" fill-rule="evenodd" d="M101.31 73.508h.871l1.976 2.416v-1.856c0-.198-.023-.322-.067-.372-.059-.067-.151-.1-.277-.1h-.112v-.088h1.122v.089h-.114c-.137 0-.233.04-.291.123-.035.05-.052.167-.052.348v2.716h-.086l-2.125-2.597v1.985c0 .199.021.322.064.372.06.066.153.1.278.1h.114v.088h-1.123v-.088h.112c.138 0 .236-.042.293-.124.035-.05.052-.167.052-.348v-2.24a1.51 1.51 0 0 0-.212-.217.79.79 0 0 0-.213-.097.76.76 0 0 0-.21-.021v-.089ZM106.394 76.644v.088h-1.381v-.088h.114c.133 0 .23-.039.29-.117.039-.05.057-.172.057-.366v-2.082c0-.164-.01-.271-.03-.323a.22.22 0 0 0-.098-.103.457.457 0 0 0-.219-.056h-.114v-.088h1.381v.088h-.117c-.131 0-.226.038-.286.116-.04.05-.06.172-.06.366v2.082c0 .163.01.271.03.324.017.04.05.073.101.103a.43.43 0 0 0 .215.056h.117ZM109.965 73.508v.089a.517.517 0 0 0-.259.108 1 1 0 0 0-.225.354l-1.119 2.745h-.09l-1.204-2.778a1.638 1.638 0 0 0-.131-.262.41.41 0 0 0-.146-.114.635.635 0 0 0-.235-.053v-.089h1.316v.089c-.149.012-.245.038-.29.075a.174.174 0 0 0-.066.14c0 .08.036.203.109.371l.819 1.89.759-1.865c.076-.185.113-.313.113-.384 0-.046-.024-.09-.069-.132a.458.458 0 0 0-.234-.089l-.04-.006v-.089h.992ZM111.045 73.684v1.272h.711c.185 0 .309-.028.369-.083.083-.074.129-.202.137-.387h.089v1.125h-.089a1.203 1.203 0 0 0-.065-.301.3.3 0 0 0-.141-.13.71.71 0 0 0-.3-.049h-.711v1.064c0 .142.006.229.019.26a.15.15 0 0 0 .068.074c.03.018.09.027.179.027h.548c.183 0 .315-.013.397-.038a.58.58 0 0 0 .239-.15 1.83 1.83 0 0 0 .302-.444h.095l-.278.808h-2.488v-.088h.115a.456.456 0 0 0 .217-.055.202.202 0 0 0 .103-.115c.018-.05.027-.155.027-.313v-2.093c0-.203-.02-.33-.062-.377-.057-.063-.152-.094-.285-.094h-.115v-.088h2.49l.034.709h-.093c-.033-.17-.07-.288-.112-.352a.363.363 0 0 0-.178-.146 1.058 1.058 0 0 0-.336-.036h-.886ZM114.006 75.075h.077l.055.002c.303 0 .533-.066.687-.2a.641.641 0 0 0 .231-.508.665.665 0 0 0-.186-.491.667.667 0 0 0-.495-.189c-.09 0-.213.016-.369.047v1.34Zm2.29 1.657h-.863l-1.094-1.507a5.25 5.25 0 0 1-.195.004h-.064l-.074-.004v.936c0 .202.022.33.067.379.059.069.15.104.27.104h.125v.088h-1.381v-.088h.122c.135 0 .232-.045.29-.133.034-.049.051-.166.051-.35V74.08c0-.204-.023-.33-.066-.378-.063-.07-.154-.104-.275-.104h-.122v-.089h1.175c.342 0 .592.026.756.075.162.05.3.143.414.277a.723.723 0 0 1 .169.478c0 .199-.065.37-.194.516-.129.145-.329.25-.6.309l.668.922c.152.214.283.354.392.425.111.07.252.115.429.134v.088ZM118.485 73.436v1.114h-.089a1.346 1.346 0 0 0-.154-.51.777.777 0 0 0-.314-.301.872.872 0 0 0-.422-.112.577.577 0 0 0-.41.15.46.46 0 0 0-.162.344c0 .097.034.187.103.268.098.119.331.277.702.475a4.8 4.8 0 0 1 .617.371.908.908 0 0 1 .253.306.836.836 0 0 1-.195.999c-.189.176-.433.264-.731.264-.092 0-.181-.007-.263-.022a2.805 2.805 0 0 1-.306-.088 1.3 1.3 0 0 0-.293-.076.123.123 0 0 0-.094.036c-.023.024-.04.074-.052.15h-.088v-1.105h.088c.042.231.098.404.166.519.071.115.179.21.321.286a.983.983 0 0 0 .472.114c.197 0 .355-.052.47-.157a.483.483 0 0 0 .107-.611.741.741 0 0 0-.204-.224 5.526 5.526 0 0 0-.507-.302 5.012 5.012 0 0 1-.59-.37 1.032 1.032 0 0 1-.266-.303.793.793 0 0 1 .177-.964.96.96 0 0 1 .679-.251c.172 0 .353.042.545.126.088.04.152.06.188.06a.137.137 0 0 0 .1-.038c.028-.023.048-.073.063-.148h.089ZM120.46 76.644v.088h-1.381v-.088h.114c.134 0 .23-.039.291-.117.038-.05.058-.172.058-.366v-2.082c0-.164-.011-.271-.032-.323a.22.22 0 0 0-.098-.103.457.457 0 0 0-.219-.056h-.114v-.088h1.381v.088h-.116c-.131 0-.227.038-.287.116-.039.05-.059.172-.059.366v2.082c0 .163.01.271.031.324a.22.22 0 0 0 .099.103.434.434 0 0 0 .216.056h.116ZM123.397 73.508l.034.756h-.091a.924.924 0 0 0-.071-.285.475.475 0 0 0-.196-.204.68.68 0 0 0-.322-.065h-.453v2.462c0 .199.021.322.064.372.061.066.154.1.279.1h.11v.088h-1.367v-.088h.115c.135 0 .232-.042.29-.124.035-.05.052-.167.052-.348V73.71h-.388c-.151 0-.257.01-.321.033a.438.438 0 0 0-.211.174.718.718 0 0 0-.105.347h-.09l.039-.756h2.632ZM125.874 73.508H127v.089h-.062a.464.464 0 0 0-.18.054.689.689 0 0 0-.217.157 2.29 2.29 0 0 0-.24.333l-.779 1.224v.807c0 .199.022.322.067.372.06.066.155.1.285.1h.104v.088h-1.37v-.088h.115c.135 0 .233-.042.291-.124.034-.05.051-.167.051-.348v-.764l-.881-1.35a3.128 3.128 0 0 0-.213-.296.791.791 0 0 0-.233-.142.306.306 0 0 0-.137-.023v-.089h1.377v.089h-.071a.421.421 0 0 0-.206.051.17.17 0 0 0-.094.157c0 .057.048.161.145.309l.673 1.04.632-.994c.096-.15.144-.26.144-.333a.221.221 0 0 0-.134-.201.47.47 0 0 0-.193-.03v-.088Z" clip-rule="evenodd"/><mask id="b" width="32" height="32" x="27" y="48" maskUnits="userSpaceOnUse" style="mask-type:alpha"><path fill="#fff" d="M27 48.309h31.382V79.69H27V48.309Z"/></mask><g mask="url(#b)"><path fill="#007147" fill-rule="evenodd" d="M27 64c0 8.652 7.039 15.691 15.69 15.691 8.653 0 15.692-7.04 15.692-15.691 0-8.653-7.04-15.691-15.691-15.691-8.652 0-15.691 7.038-15.691 15.69Z" clip-rule="evenodd"/></g><path fill="#6EB92C" fill-rule="evenodd" d="M57.857 64c0 8.376-6.79 15.166-15.167 15.166-8.376 0-15.166-6.79-15.166-15.166 0-8.376 6.79-15.167 15.166-15.167 8.377 0 15.167 6.79 15.167 15.167Z" clip-rule="evenodd"/><path fill="#FEFEFE" fill-rule="evenodd" d="m28.666 62.851.72-.033-.002.048c-.216.06-.373.149-.47.266a.672.672 0 0 0-.15.427c-.003.14.03.267.1.381a.7.7 0 0 0 .334.274c.154.068.346.104.578.11.191.003.357-.024.499-.082a.688.688 0 0 0 .327-.27.8.8 0 0 0 .121-.42.728.728 0 0 0-.08-.363c-.057-.106-.171-.224-.343-.352l.032-.048c.186.109.32.236.405.38a.94.94 0 0 1 .12.505c-.007.349-.142.616-.405.804a1.121 1.121 0 0 1-.686.2 1.207 1.207 0 0 1-.578-.154 1.019 1.019 0 0 1-.402-.398 1.053 1.053 0 0 1-.134-.545c.003-.152.044-.302.12-.448a.257.257 0 0 0 .037-.094.103.103 0 0 0-.028-.074.238.238 0 0 0-.115-.058v-.056ZM29.849 61.807l.2-.959-.59-.124a.748.748 0 0 0-.213-.023.136.136 0 0 0-.08.05.279.279 0 0 0-.065.131l-.015.073-.056-.012.184-.883.057.012-.015.072a.293.293 0 0 0 .005.146c.01.036.03.063.06.083a.75.75 0 0 0 .198.058l1.334.28c.104.021.174.03.21.023a.136.136 0 0 0 .079-.049.29.29 0 0 0 .066-.131l.015-.074.057.012-.185.884-.056-.013.015-.073c.017-.084.005-.15-.036-.2-.028-.032-.104-.06-.227-.087l-.629-.132-.2.96.628.131c.104.023.175.03.211.024a.133.133 0 0 0 .079-.05.29.29 0 0 0 .066-.13l.016-.075.056.01-.185.886-.057-.012.016-.073c.017-.085.005-.153-.036-.201-.028-.032-.103-.06-.227-.085l-1.333-.28a.735.735 0 0 0-.212-.024.144.144 0 0 0-.079.049.295.295 0 0 0-.066.132l-.015.074-.056-.012.185-.885.056.012-.016.074a.306.306 0 0 0 .007.146c.01.034.03.062.06.082.03.018.096.039.197.06l.592.123ZM31.091 58.796l-.925-.002.642.67.283-.668Zm.123.005-.32.753.252.261c.061.065.11.105.148.12.03.013.062.01.097-.008.034-.019.074-.073.12-.164l.053.023-.26.611-.052-.022c.02-.087.024-.148.01-.182-.025-.068-.095-.161-.21-.28l-1.31-1.362.021-.05 1.904.009c.153 0 .258-.013.316-.041a.328.328 0 0 0 .144-.158l.053.022-.325.767-.053-.022c.029-.08.038-.137.028-.174a.108.108 0 0 0-.063-.075.646.646 0 0 0-.224-.027l-.33-.001ZM30.426 57.146l.322-.474 2.033-.18-1.007-.682c-.108-.073-.183-.107-.226-.102-.057.008-.11.046-.156.116l-.041.06-.048-.033.412-.608.048.032-.042.063c-.05.073-.063.141-.04.203.015.037.072.088.17.155l1.472.998-.032.047-2.187.198 1.076.728c.108.073.182.107.225.103.057-.01.11-.047.156-.115l.041-.062.048.033-.412.607-.048-.032.041-.06c.051-.074.064-.143.041-.204-.014-.037-.07-.09-.169-.156l-1.215-.823a.974.974 0 0 0-.195.035.546.546 0 0 0-.132.08.53.53 0 0 0-.087.105l-.048-.032ZM33.355 53.475l.51.433-.04.039a.92.92 0 0 0-.415-.116.665.665 0 0 0-.471.213.687.687 0 0 0-.21.659c.044.21.153.402.329.578.142.142.298.245.47.308.173.062.331.077.475.042a.735.735 0 0 0 .495-.372.824.824 0 0 0 .088-.21l-.43-.432a.584.584 0 0 0-.164-.13.173.173 0 0 0-.105 0 .439.439 0 0 0-.145.107l-.042-.042.58-.575.04.04-.027.028c-.057.057-.077.115-.061.175a.555.555 0 0 0 .139.183l.455.457a1.57 1.57 0 0 1-.15.35 1.54 1.54 0 0 1-.243.305c-.288.288-.6.414-.934.378a1.044 1.044 0 0 1-.648-.312 1.133 1.133 0 0 1-.282-.474 1.139 1.139 0 0 1-.02-.637c.045-.172.143-.333.292-.483.054-.053.108-.098.161-.134.054-.035.136-.079.247-.13a.42.42 0 0 0 .106-.06c.014-.012.02-.031.017-.054-.003-.022-.023-.054-.057-.094l.04-.04ZM34.717 52.77a4.275 4.275 0 0 0-.151-.375c-.056-.123-.067-.196-.034-.221a.21.21 0 0 1 .13-.037c.056.002.096.063.124.188.028.124.052.25.073.38.02.128.04.309.057.542l-.06.023a4.856 4.856 0 0 0-.14-.5ZM38.095 52.178l-.66-.648-.008.93.668-.282Zm.085.09-.753.316-.002.362a.521.521 0 0 0 .022.19c.013.03.037.05.075.06.038.011.105 0 .201-.032l.023.053-.612.258-.023-.054c.075-.049.12-.089.134-.122.03-.067.045-.182.045-.348l.01-1.888.05-.022 1.358 1.334c.11.106.194.17.255.19.06.02.132.016.213-.012l.022.053-.767.322-.022-.053c.076-.036.123-.072.14-.105a.111.111 0 0 0 .008-.098.638.638 0 0 0-.142-.175l-.235-.23ZM38.769 50.53l.56-.117 1.587 1.288-.248-1.193c-.027-.126-.058-.203-.093-.228-.046-.036-.11-.044-.191-.028l-.072.016-.011-.057.72-.15.01.057-.073.015c-.087.018-.143.057-.17.117-.014.038-.01.115.014.23l.363 1.743-.055.012-1.71-1.381.265 1.273c.027.127.056.203.09.228.048.035.112.044.192.028l.074-.016.011.056-.72.15-.01-.056.07-.014c.09-.02.146-.059.172-.12.016-.036.011-.112-.013-.229l-.3-1.437a1.03 1.03 0 0 0-.164-.112.561.561 0 0 0-.15-.033.553.553 0 0 0-.137.014l-.011-.056ZM44.907 50.23l.007-.056.742.099-.008.057-.08-.011a.21.21 0 0 0-.202.078c-.027.028-.047.102-.063.217l-.112.849c-.029.21-.071.37-.128.48a.62.62 0 0 1-.285.265c-.133.067-.304.086-.514.058-.229-.03-.397-.093-.504-.188a.655.655 0 0 1-.209-.353c-.02-.096-.014-.27.02-.522l.108-.817c.017-.129.011-.215-.02-.26-.03-.045-.085-.074-.163-.084l-.079-.01.008-.057.904.12-.008.058-.08-.011c-.087-.011-.152.008-.197.057-.03.035-.053.109-.068.226l-.122.912c-.01.08-.016.175-.015.282a.598.598 0 0 0 .049.256.45.45 0 0 0 .149.168.599.599 0 0 0 .263.093.756.756 0 0 0 .38-.04.484.484 0 0 0 .251-.2c.052-.088.093-.243.122-.465l.113-.847c.017-.13.014-.214-.01-.251-.035-.05-.09-.081-.17-.092l-.079-.01ZM46.056 50.36l.543.183.714 1.913.39-1.153c.042-.122.054-.204.036-.244-.022-.054-.072-.094-.15-.121l-.07-.022.019-.055.695.236-.018.055-.071-.025c-.085-.03-.154-.023-.206.016-.032.024-.067.092-.105.205l-.57 1.684-.054-.018-.772-2.056-.417 1.231c-.042.123-.054.204-.038.243.023.054.074.094.15.12l.072.023-.018.056-.696-.235.019-.056.069.024c.085.03.154.024.207-.014.032-.025.067-.093.105-.205l.471-1.39a.933.933 0 0 0-.086-.179.504.504 0 0 0-.112-.105.49.49 0 0 0-.125-.057l.018-.054ZM48.488 53.545l-.026.052-.807-.41.027-.05.066.032c.078.04.145.047.204.018.037-.017.084-.084.142-.196l.616-1.217a.71.71 0 0 0 .078-.197.14.14 0 0 0-.027-.089.305.305 0 0 0-.11-.1l-.068-.032.026-.051.808.41-.026.05-.069-.035c-.076-.038-.144-.044-.203-.017-.038.018-.085.083-.142.197l-.617 1.216a.703.703 0 0 0-.077.197.138.138 0 0 0 .027.09.287.287 0 0 0 .11.098l.068.034ZM51.624 53.166l-.034.047a.344.344 0 0 0-.18-.038.644.644 0 0 0-.253.106l-1.635 1.049-.046-.032.397-1.945a.97.97 0 0 0 .027-.189.26.26 0 0 0-.035-.117.442.442 0 0 0-.105-.116l.032-.048.707.495-.033.048c-.085-.05-.147-.072-.184-.069a.114.114 0 0 0-.088.05.71.71 0 0 0-.081.24l-.27 1.322 1.11-.715a.838.838 0 0 0 .203-.163c.017-.025.021-.057.013-.097a.297.297 0 0 0-.092-.135.508.508 0 0 0-.02-.02l.034-.045.533.372ZM52.321 53.997l-.591.59.327.328c.084.086.154.13.209.132.072.005.152-.033.242-.114l.04.04-.52.519-.04-.04a.85.85 0 0 0 .108-.17.196.196 0 0 0-.003-.126.48.48 0 0 0-.117-.161l-.327-.33-.493.492a.645.645 0 0 0-.112.13.096.096 0 0 0-.003.064c.006.023.03.055.07.096l.253.254c.085.084.151.14.201.167.05.027.11.04.18.04.09 0 .205-.021.345-.064l.043.043-.503.244-1.147-1.152.041-.04.053.052c.035.037.076.061.125.075.036.013.068.011.101-.004a.741.741 0 0 0 .156-.13l.972-.969c.095-.093.144-.16.147-.203.003-.056-.026-.114-.087-.175l-.053-.054.04-.04 1.148 1.152-.311.343-.043-.042a.73.73 0 0 0 .111-.214.25.25 0 0 0-.015-.15.738.738 0 0 0-.138-.172l-.409-.41ZM53.083 56.224l.03.042c.007.013.014.022.019.03.116.165.238.264.368.297.13.035.25.013.361-.065a.437.437 0 0 0 .192-.287.443.443 0 0 0-.086-.338 1.424 1.424 0 0 0-.165-.183l-.719.504Zm-.027 1.85-.323-.462.397-1.15a3.54 3.54 0 0 1-.127-.182l-.502.352c-.109.077-.168.135-.177.18-.015.057 0 .118.045.182l.047.068-.046.034-.52-.74.048-.034.045.065c.052.073.112.108.181.107.04-.001.108-.036.206-.105l1.117-.783c.108-.076.167-.135.177-.177.014-.06-.002-.122-.048-.188l-.045-.065.046-.033.443.629c.128.184.21.329.244.435a.565.565 0 0 1 .007.324.462.462 0 0 1-.192.272.496.496 0 0 1-.35.09c-.126-.014-.256-.082-.39-.205l-.246.703a1.079 1.079 0 0 0-.08.37.646.646 0 0 0 .09.28l-.047.033ZM55.61 58.451l-.659.315-.025-.052a.9.9 0 0 0 .259-.236.522.522 0 0 0 .089-.27.565.565 0 0 0-.053-.282.374.374 0 0 0-.205-.199.304.304 0 0 0-.25.001.27.27 0 0 0-.13.137c-.041.092-.069.274-.081.549-.011.223-.026.38-.046.468a.601.601 0 0 1-.108.238.549.549 0 0 1-.646.168.679.679 0 0 1-.364-.357 1.04 1.04 0 0 1-.061-.163c-.01-.03-.021-.1-.035-.205a.904.904 0 0 0-.039-.194c-.012-.025-.027-.04-.048-.046-.02-.006-.054-.003-.101.012l-.025-.051.653-.314.024.052a1.05 1.05 0 0 0-.26.246.52.52 0 0 0-.078.269.641.641 0 0 0 .066.312c.056.116.13.195.225.233a.322.322 0 0 0 .269-.003.329.329 0 0 0 .123-.107.47.47 0 0 0 .075-.184c.011-.05.023-.178.037-.384.012-.208.03-.358.051-.453a.648.648 0 0 1 .105-.243.52.52 0 0 1 .62-.168.623.623 0 0 1 .34.33c.048.1.074.22.078.357a.391.391 0 0 0 .019.127.091.091 0 0 0 .05.05c.022.008.057.006.106-.006l.024.053ZM54.147 60.585l-.055.018-.29-.856.055-.018.023.07c.028.083.073.136.133.156.04.013.12 0 .24-.042l1.29-.439a.65.65 0 0 0 .195-.086.134.134 0 0 0 .043-.08.306.306 0 0 0-.01-.15l-.025-.07.055-.018.29.856-.054.018-.025-.07c-.028-.083-.072-.134-.133-.155-.04-.015-.12 0-.24.04l-1.29.437a.705.705 0 0 0-.194.087.142.142 0 0 0-.043.084.282.282 0 0 0 .01.146l.025.072ZM56.579 62.06l-.48.12-.012-.057a.582.582 0 0 0 .174-.082.316.316 0 0 0 .105-.152.444.444 0 0 0 0-.216l-.06-.291-1.579.321c-.127.026-.204.055-.23.089-.034.047-.044.111-.027.191l.014.072-.056.011-.178-.876.056-.011.015.073c.018.087.057.143.117.17.037.015.114.012.23-.012l1.579-.32-.05-.25a.703.703 0 0 0-.064-.2.293.293 0 0 0-.138-.114.473.473 0 0 0-.236-.022l-.012-.058.49-.073.342 1.687ZM56.692 64.055l.017.737h-.058l-.001-.04a.303.303 0 0 0-.039-.117.443.443 0 0 0-.105-.14 1.361 1.361 0 0 0-.222-.152l-.812-.49-.53.012c-.129.003-.21.019-.24.049-.044.04-.064.102-.061.187v.07h-.057l-.02-.896h.058l.001.074c.002.089.03.151.085.188.034.022.11.031.228.03l.5-.012.87-.6c.102-.07.166-.118.191-.142a.538.538 0 0 0 .09-.155c.01-.02.015-.05.014-.09h.057l.02.901-.057.002v-.048a.282.282 0 0 0-.038-.133.11.11 0 0 0-.104-.06c-.038.001-.104.035-.2.1l-.67.456.66.399c.098.06.172.089.22.088a.141.141 0 0 0 .076-.024.159.159 0 0 0 .053-.066.32.32 0 0 0 .017-.126l.057-.002Z" clip-rule="evenodd"/><path fill="#007147" fill-rule="evenodd" d="M44.166 72.454v.523h1.04v-.534a.523.523 0 0 0-.52-.526.522.522 0 0 0-.52.526v.01Zm-2.95-.011a.523.523 0 0 0-.52-.526.523.523 0 0 0-.52.526v.534h1.04v-.534Zm2.203-.215a.732.732 0 0 0-.728-.736.732.732 0 0 0-.727.756l-.002.015v.714h1.457v-.714l-.001-.018v-.017Zm6.28-15.687-.043-.058.047.057-.003.001Zm.401 12.272.34-.406-.37-.322-.34.406.37.322Zm1.717-2.685.152-.434-.46-.165-.151.434.459.165Zm.516-2.82.029-.357-.312-.026-.03.357.313.026Zm-.25-3.135-.26.048.054.296.259-.049-.054-.295Zm-1.145-2.64-.182.1.11.206.182-.098-.11-.208ZM35.652 68.49l-.34-.406-.37.322.34.406.37-.322Zm-1.629-2.528-.15-.434-.46.165.151.434.46-.165Zm-.661-2.681-.03-.357-.312.026.029.357.313-.026Zm-.116-2.814.259.049.054-.296-.26-.048-.053.295Zm1.087-2.727.182.098.11-.206-.182-.1-.11.208Zm1.346-1.201.047-.057-.045.058-.002-.001Zm17.52 7.002c0 5.88-4.705 10.648-10.508 10.648-5.804 0-10.508-4.767-10.508-10.648 0-5.69 4.013-10.021 9.556-10.316-.048.002-.099.017-.146.026a15.325 15.325 0 0 0-2.048.567 9.167 9.167 0 0 0-1.044.455c-.335.17-.65.37-.966.575-.662.43-1.296.968-1.81 1.634l-.046.057-.162-.127-.305.378.158.14a8.963 8.963 0 0 0-1.035 1.805l-.218-.12s-.172.415-.193.462c-.069.165-.17.485-.17.485l.243.095a8.954 8.954 0 0 0-.342 1.691l-.28-.016s-.042.428-.043.467c-.01.235-.017.55-.017.55l.291.021.002.024c.006.503.053.997.138 1.478l-.292.094s.081.419.114.548c.032.122.022.098.083.32l.3-.068c.18.627.425 1.226.729 1.79l-.26.182a10.868 10.868 0 0 0 .48.788l.275-.156c.36.526.775 1.01 1.235 1.448l-.204.228.764.667.226-.322s1.254.664 2.145.702l.158-.323.847-.046v-.338c-.093 0-.98.008-.925-.016.494-.211.736-1.133.736-1.133l.182.22h4.704l.18-.22s.243.922.737 1.133c.056.024-.832.016-.924.016v.338l.846.046.159.323c.89-.038 2.145-.702 2.145-.702l.225.322.764-.667-.203-.228a9.03 9.03 0 0 0 1.233-1.448l.276.156s.172-.262.237-.37c.147-.242.243-.418.243-.418l-.26-.182a8.988 8.988 0 0 0 .729-1.79l.3.069c.062-.223.052-.2.083-.321.033-.13.114-.548.114-.548l-.291-.094a9.02 9.02 0 0 0 .137-1.478l.003-.024.29-.02s-.006-.316-.016-.55c-.002-.04-.043-.468-.043-.468l-.281.016a8.96 8.96 0 0 0-.341-1.691l.243-.095s-.101-.32-.17-.485l-.194-.463-.217.121a9.022 9.022 0 0 0-1.036-1.804l.158-.14-.305-.379-.161.127a1.592 1.592 0 0 0-.047-.057c-.513-.666-1.147-1.204-1.81-1.634-.315-.206-.63-.405-.965-.575a9.095 9.095 0 0 0-1.044-.455 15.393 15.393 0 0 0-1.226-.376 11.08 11.08 0 0 0-.823-.191c-.047-.01-.097-.024-.145-.026 5.543.295 9.556 4.625 9.556 10.316Z" clip-rule="evenodd"/><path fill="#FEFEFE" fill-rule="evenodd" d="M42.204 59.046h.974v-5.08h-.974v5.08Z" clip-rule="evenodd"/><path fill="#FEFEFE" fill-rule="evenodd" d="M42.874 55.44h1.564v-.843h-1.564v.844ZM42.874 56.894h1.84v-.843h-1.84v.843ZM42.874 58.348h2.116v-.844h-2.116v.844ZM39.071 61.106c-.92 1.35-1.428 3.139-1.428 5.033a.423.423 0 1 0 .844 0c0-3.508 1.886-6.36 4.204-6.36 2.318 0 4.204 2.852 4.204 6.36a.423.423 0 1 0 .844 0c0-1.894-.507-3.683-1.428-5.033-.955-1.402-2.24-2.173-3.62-2.173s-2.665.771-3.62 2.173Z" clip-rule="evenodd"/><path fill="#FEFEFE" fill-rule="evenodd" d="M41.396 59.676V60.7v-.014a.919.919 0 0 0 .25.642c.123.128.352.28.733.28h1.52a.423.423 0 0 0 0-.843h-1.452c-.189-.001-.208-.143-.207-.224v-.865a.422.422 0 0 0-.844 0Z" clip-rule="evenodd"/><path fill="#FEFEFE" fill-rule="evenodd" d="M43.143 59.617v1.407a.421.421 0 1 0 .843 0v-1.407a.42.42 0 1 0-.843 0ZM42.27 61.29v2.532a.422.422 0 1 0 .843 0V61.29a.423.423 0 0 0-.843 0Z" clip-rule="evenodd"/><path fill="#FEFEFE" fill-rule="evenodd" d="M39.5 63.878a.423.423 0 0 0 .766.352c.344-.747 1.319-1.25 2.425-1.25 1.106 0 2.081.503 2.425 1.25a.422.422 0 1 0 .766-.352c-.478-1.042-1.76-1.741-3.19-1.741-1.431 0-2.714.7-3.193 1.74Z" clip-rule="evenodd"/><path fill="#FEFEFE" fill-rule="evenodd" d="M40.321 65.977a.422.422 0 0 0 .844 0 1.527 1.527 0 0 1 3.05 0 .422.422 0 0 0 .845 0 2.372 2.372 0 0 0-2.37-2.369 2.372 2.372 0 0 0-2.369 2.37ZM43.35 53.741c0 .234-.295.423-.66.423-.363 0-.658-.19-.658-.423 0-.233.295-.421.659-.421.364 0 .659.188.659.421ZM44.598 55.605c-.207 0-.375-.262-.375-.586 0-.325.168-.587.375-.587.208 0 .376.262.376.587 0 .324-.168.586-.376.586ZM44.912 57.059c-.207 0-.376-.263-.376-.586 0-.324.169-.587.376-.587s.376.263.376.587c0 .323-.17.586-.376.586ZM45.234 58.513c-.207 0-.376-.263-.376-.587 0-.324.169-.587.376-.587.208 0 .376.263.376.587 0 .324-.168.587-.376.587ZM40.616 75.206c.136-.005.238-.066.396-.031.001.062.044.098.055.15a.257.257 0 0 1-.015.146c-.02.043-.063.065-.101.087-.042.026-.082.053-.123.08a2.024 2.024 0 0 1-.359.193c-.044.017-.087.044-.116-.01a.184.184 0 0 1-.009-.128c.036-.028.072-.002.114-.014.038-.01.07-.083.104-.12.043-.046.104-.108.14-.154a.198.198 0 0 0 .041-.099c-.115-.032-.196.039-.268.054-.115.2-.303.393-.402.56-.019.028-.097.149-.101.224.003.007.112-.004.122-.004.072-.003.143-.024.215-.032a6.498 6.498 0 0 1 .613-.024c.068.002.134.006.2.013.067.01.102.09.06.153-.017.028-.04.018-.06.035-.026.021-.019.052-.047.072-.126.008-.282-.004-.386-.006-.081 0-.163-.019-.244-.027a2.35 2.35 0 0 0-.292-.006c-.063.003-.127 0-.19.01-.06.011-.119.049-.18.047-.097.189-.227.27-.276.524.01.03.045.043.074.044.04.003.045-.007.066-.035.025-.035.058-.057.08-.097.022-.038.038-.081.064-.117.05-.07.096-.163.13-.229.15.015.234.134.223.238 0 .006-.081.056-.092.067a.532.532 0 0 0-.065.09c-.011.02-.13.216-.124.222.048.05.109.085.165.123.035.024.107.053.108.103.002.056-.04.143-.092.168-.184-.042-.246-.108-.4-.145-.121.15-.355.294-.52.405-.048.032-.111.045-.156.082-.158.133-.392.194-.596.198a1.258 1.258 0 0 1-.305-.03c-.026-.004-.107-.008-.124-.025-.079-.086-.102-.235.02-.305.193.036.355.126.513.11.054-.004.1-.044.154-.066.286-.117.622-.282.803-.512-.032-.03-.06-.057-.096-.084-.037-.029-.055-.096-.069-.139a.258.258 0 0 1-.002-.172c.045-.114.194-.207.206-.343 0-.01-.008-.014-.007-.021-.092-.018-.185.024-.262.035a3.552 3.552 0 0 0-.503.115c-.057.017-.115.006-.169.032 0-.003.005-.005.005-.01 0 .015-.11.02-.117.023-.053.021-.076.067-.144.06-.154-.02-.209-.227-.168-.345.551.003 1.047-.09 1.561-.151.07-.119.13-.236.2-.344.031-.049.093-.117.102-.153.017-.042.07-.095.047-.149a.163.163 0 0 0-.061-.01c-.021.002-.054.033-.072.046a2.004 2.004 0 0 0-.198.162l-.128.12c-.025.024-.047.057-.078.072-.017.008-.027.006-.045.001-.008-.002-.06-.021-.062-.029a.498.498 0 0 1 .012-.229c.007-.022.029-.05.032-.068.03-.148.132-.308.166-.452-.028-.027.008-.067.026-.115.01-.025.064.037.067.042.019.039.028.088.036.13a.577.577 0 0 1-.017.259c.228.033.357-.113.52-.197.052-.153.2-.391.236-.586-.026-.045-.05-.058-.033-.113a.388.388 0 0 1 .24.072c.033.02.07.033.104.055.012.01.03.026.036.042.003.008-.01.064-.006.064.005.004.006 0 .008-.003.01.127-.143.246-.184.4ZM45.612 75.989c-.079.166-.102.364-.126.514.02.026.002.068.022.113.33.203.721.425 1.177.266.004-.002.001.055.001.06-.003.031-.029.056-.046.08-.019.028-.028.06-.048.086-.053.07-.13.113-.187.18-.047.052-.127.066-.188.052-.15-.034-.257-.13-.365-.232-.034-.033-.362-.4-.417-.365-.033.022-.017.014-.028.047-.017.05-.05.092-.066.14-.024.073-.046.152-.077.223-.03.063-.067.12-.097.182-.026.054-.041.114-.076.163-.088.126-.15.27-.243.391-.039.05-.09.092-.121.147-.017-.004-.03.011-.031.036 0-.008-.06.052-.063.057a.507.507 0 0 1-.079.063 1.054 1.054 0 0 1-.223.114c-.008-.02-.016-.04-.035-.047.117-.171.287-.364.371-.56a3.3 3.3 0 0 0 .381-.695c.064-.15.103-.31.134-.47.01-.051.025-.102.025-.154.001-.022.004-.05-.007-.07a.055.055 0 0 0-.036-.026c-.02-.003-.036.019-.054.027-.021.01-.046.009-.07.01-.035.005-.07.02-.105.016a.585.585 0 0 1-.163-.057c-.022-.01-.057-.015-.073-.034a.175.175 0 0 1-.024-.068c-.003-.03.06-.028.078-.034.042-.015.085-.027.128-.043.084-.031.167-.067.243-.117a.563.563 0 0 0 .254-.396c.02-.116-.014-.214-.015-.327-.002-.171.024-.34.017-.512.076-.11.19-.087.264.007.092.12.037.214.043.346.003.078-.017.15-.034.225-.005.024.001.048-.003.07-.006.029-.02.054-.023.082a.531.531 0 0 0 .002.156c.091-.047.173-.129.296-.13.05.021.134.058.1.118.01.054-.037.133-.065.165-.073.09-.235.154-.348.201ZM34.226 75.04c-.12.07-.15.13-.276.214.05.11.205-.005.278.01-.008-.015.022 0 .026-.017-.011-.067.02-.128-.028-.206Zm.32.033a.241.241 0 0 0-.066.108c.059.029.122.016.157-.028.006-.047-.054-.048-.092-.08Zm.778-1.887a2.827 2.827 0 0 1-.067.102c-.045.063-.09.127-.131.193-.021.033-.03.074-.054.106-.05.067-.116.129-.17.194-.045.055-.078.119-.124.174l-.087.104c-.064.076-.125.149-.172.236-.015.029-.04.058-.017.085.03.033.087.037.128.033a.57.57 0 0 0 .144-.036c.084-.029.182-.084.273-.075.032.002.156.03.164.07a.125.125 0 0 1-.038.118c-.025.023-.06.021-.09.031-.027.01-.051.027-.078.036-.103.037-.2.089-.292.147-.05.032-.098.066-.146.1-.041.03-.076.071-.116.103.087.04.209.04.304.056.052.009.106.017.158.032.088.026.183.038.15.153-.009.031-.02.06-.032.091-.005.015-.113.035-.13.04-.044.011-.085.016-.127.029-.05.016-.117 0-.159.04-.041.042-.003.103.015.147.04.097.103.196.1.302-.004.079-.047.163-.132.16-.021 0-.155.006-.145-.04.007-.037.017-.079.02-.118.005-.059-.01-.126-.023-.182-.012-.052-.092-.202-.16-.18.002.002.004 0 .007-.002a2.007 2.007 0 0 0-.304.064c-.026-.008-.109.023-.151.033-.087.021-.18.033-.256.087-.064.006-.105.062-.175.064-.064-.053-.017-.144-.013-.229a.741.741 0 0 1 .143-.197c.169-.178.424-.308.622-.433.002-.027.026-.058.032-.084-.031-.03-.052.001-.078.008-.005-.007.004-.003.007-.008-.173.038-.3.09-.46.121-.002.007.003.007.005.005-.049.012-.131.039-.195.042-.003.007.002.007.004.004-.188.065-.417.083-.633.096a.55.55 0 0 1-.407-.116c-.002-.018.02-.04.011-.055.02-.01.043-.047.036-.06.043-.044.092-.128.159-.17.139-.088.344-.042.494-.042.19-.02.38-.011.57-.036.096-.013.19-.035.278-.07a.822.822 0 0 0 .13-.07 1.24 1.24 0 0 0 .248-.233c.037-.045.068-.097.1-.146.023-.038.086-.104.096-.146a.607.607 0 0 1 .186-.208c.03-.035.05-.066.084-.099.033-.031.047-.08.072-.118l.05-.078c.02-.03.073-.131.12-.127.03-.046.072-.096.091-.146.024-.064.042-.117.082-.172.04-.053.088-.104.113-.166.03-.018.018-.113.035-.145.023-.048.03-.113.048-.164a.926.926 0 0 0 .046-.204c.004-.048.006-.087.037-.125.03-.038.064-.089.11-.054.09.072.108.224.07.326-.016.042-.012.097-.02.126-.002.008-.012-.002-.013-.002-.006.013.005.023.001.038-.012.048-.062.105-.078.157-.033.108-.096.2-.155.294l-.115.189ZM35.911 72.998c-.014-.027 0-.063-.005-.09-.005-.029-.014-.057-.018-.087a.2.2 0 0 1 .001-.085c.003-.012.045-.1.056-.093a.65.65 0 0 1 .27.547c.001.037-.005.104-.041.126-.065.04-.19-.04-.245-.072.012.007.053-.088.055-.1.005-.032-.003-.083-.027-.108-.012-.014-.036-.022-.046-.038Z" clip-rule="evenodd"/><path fill="#FEFEFE" fill-rule="evenodd" d="M35.587 73.642c-.008 0-.017 0-.024.004-.015.008-.024.033-.03.05-.016.037-.019.08-.026.121-.005.03-.017.193-.063.195-.027 0-.053.003-.08 0a.245.245 0 0 1-.084-.02c-.017-.005-.031-.01-.034-.029-.006-.03-.014-.058-.018-.087a.201.201 0 0 1 0-.044c.002-.013-.004-.023-.007-.032a.087.087 0 0 1-.004-.037c.001-.014.006-.026.008-.04.002-.013-.006-.026-.004-.036.004-.02.024-.037.039-.048a.285.285 0 0 1 .058-.032c.048-.022.099-.037.149-.056.017-.006.034-.01.05-.02.012-.008.016-.021.022-.034.006-.013.017-.02.024-.033.02-.036.031-.092.067-.123a.17.17 0 0 0 .017-.023c.007-.011.03-.048.065-.06.16.102.347.374.091.417-.004.022-.032.015-.05.027-.016.011-.041-.008-.054-.017-.02-.015-.04-.035-.064-.044-.015-.008-.033 0-.048 0ZM50.04 74.218c.002.023-.017.047-.03.065a.381.381 0 0 1-.09.086c-.103-.07-.166-.179-.248-.27-.02-.022-.045-.041-.065-.064-.02-.021-.052-.037-.074-.055a2.011 2.011 0 0 1-.075-.063l-.041-.037c-.005-.004-.034-.037-.04-.036.018-.003.03-.037.047-.045.023-.01.051 0 .073.007.05.015.091.047.134.075.025.015.05.03.078.039.066.026.143-.002.198.043.04.031.057.077.073.123a.484.484 0 0 0 .054.117c.003.005.005.01.005.015Z" clip-rule="evenodd"/><path fill="#FEFEFE" fill-rule="evenodd" d="M50.047 73.044c.068.072.083.09.083.15 0 .075-.025.173.025.262.072-.016.017-.076.061-.109.039.013.074.06.11.09.038-.044.022-.117.036-.17.008-.033.003-.031.003-.07 0-.049.005-.087-.023-.13-.064-.1-.18-.137-.256-.197-.052.036-.082.074-.117.087.035.02.049.056.078.087Zm.248-.694c-.032.047-.084.155-.118.216-.008.013-.03.024-.037.037a.404.404 0 0 0-.043.17c.045.015.108.027.176.052.058.02.158.04.19.078.012.015.023.064.031.094.017.06.024.123-.017.155.051.13-.094.24-.01.375.05.01.1.04.145.106.018-.008.011-.02.028-.03-.009-.13.006-.28-.03-.37.008-.102-.034-.182-.03-.268-.035-.066-.023-.146-.055-.211-.012-.024-.008-.045-.016-.07-.006-.02-.018-.038-.02-.06-.003-.01.001-.023-.002-.034-.006-.024-.02-.045-.03-.068l-.026-.067a.414.414 0 0 0-.035-.067c-.005-.008-.043-.064-.053-.06-.024.007-.023.025-.048.022Zm-.724.159c.022-.013-.01-.03-.016-.048-.002-.008-.017 0-.02-.006-.032-.041-.055-.079-.111-.11-.007-.004-.016.004-.021.001-.04-.014-.044-.074-.08-.1.043-.05.079-.07.13-.067.066.003.13.01.197.016l.096.008c.013 0 .03-.002.043 0 .02.003.022.025.031.038.012.021.028.04.034.063.02.08-.01.159-.009.23 0 .014.014.022.013.034-.001.033-.018.064-.022.094-.011.082.015.175.023.25.01.004.022-.002.034-.013.062-.23.127-.491.318-.689a.691.691 0 0 1 .141-.117.39.39 0 0 1 .084-.035c.061-.017.091.065.108.105.026.063.053.125.068.192.03.126.04.254.05.382.005.062.009.124.018.185.013.117.044.343.145.457.076-.15.172-.365.341-.484.023-.016.044-.033.071-.041.03-.01.053.015.073.036a.23.23 0 0 1 .041.073c.02.051.03.108.031.164 0 .11-.039.215-.083.314l-.05.103-.025.053c-.009.014-.025.02-.034.035-.013.019-.02.043-.036.062-.007.009-.017.015-.024.025-.008.009-.01.019-.016.028a.594.594 0 0 1-.047.066c-.005.007-.057.063-.056.066.101.234.017.465.001.715-.03-.04-.048-.104-.07-.145a.24.24 0 0 1-.025-.038c-.033-.013-.129.142-.185.178-.027.016-.057.016-.078.033-.009.007-.043-.042-.048-.047-.02-.032.03-.076.047-.098.03-.04.052-.083.079-.125a.697.697 0 0 0 .097-.253.55.55 0 0 0 .002-.157c-.002-.012.034-.05.042-.062l.04-.061a1.29 1.29 0 0 0 .157-.36c.006-.023.012-.046.016-.069.005-.023.02-.046.022-.07.005-.049-.076.01-.087.019-.038.038-.057.089-.082.136-.017.03-.047.059-.065.096-.007.016-.019.038-.027.059-.016.042-.06.113-.09.185l-.02.054c-.003.01-.002.022-.007.031-.004.012-.01.01-.018.015a.122.122 0 0 0-.036.049c-.009.019-.012.04-.02.059-.014.038-.05.063-.063.101-.006.014-.006.03-.014.041-.008.013-.02.023-.03.035l-.043.06a.976.976 0 0 1-.101.133c-.017.016-.029.037-.048.05-.038.027-.029-.053-.028-.073a.532.532 0 0 1 .019-.091c.006-.02.022-.038.033-.056.013-.023.016-.048.032-.07.019-.023.04-.045.058-.07a.644.644 0 0 0 .092-.149c.043-.11-.015-.23-.081-.286-.014-.01-.03-.019-.06-.01-.004.016-.008.025.012.034-.005.033-.077.106-.111.112-.02.004-.1-.037-.117-.033-.096.018-.023.262.009.344.007.085.044.191 0 .27a.168.168 0 0 1-.035.042c-.04.037-.047-.037-.045-.064.001-.025-.014-.049-.015-.075-.001-.03 0-.061-.003-.093a.699.699 0 0 0-.01-.064c-.004-.018-.015-.04-.016-.058a.502.502 0 0 0-.05-.228c-.017-.067-.045-.268-.17-.177-.002.025.045.09-.021.115-.171-.035-.34-.23-.495-.355l-.023-.02c-.024-.01-.014-.002-.031-.02a.244.244 0 0 0-.057-.035c-.02-.008-.038-.01-.053-.025a.125.125 0 0 0-.037-.027c-.017-.009-.074-.019-.07-.043.003-.026.025-.043.044-.059.015-.011.021-.029.04-.036.02-.008.043-.004.063.003.059.02.114.053.17.079.115.054.225.115.329.19.06.044.114.093.166.146.011.011.026-.008.037 0 .005-.065.04-.169.009-.231-.044-.082-.197-.085-.257-.198a.821.821 0 0 0-.114-.623Z" clip-rule="evenodd"/><path fill="#FEFEFE" fill-rule="evenodd" d="M51.105 75.654c.146-.081.369-.12.498-.29.006-.008-.054-.1-.061-.11a2.317 2.317 0 0 0-.064-.101c-.042-.063-.083-.127-.127-.186-.046-.063-.098-.115-.15-.17-.017-.018-.027-.04-.042-.06 0 .003-.058.106-.061.116-.02.045-.037.089-.058.13a.511.511 0 0 1-.172.224.324.324 0 0 1-.082.042c-.016.005-.039.012-.054.008-.02-.008-.04-.034-.054-.048-.017-.014-.034-.023-.02-.047.02-.03.045-.057.07-.085a.51.51 0 0 0 .033-.04c.01-.015.012-.033.027-.044.023-.017.041-.032.057-.055.017-.025.03-.052.048-.076.032-.042.079-.075.104-.121.015-.028.018-.067.036-.104.042-.087.092-.178.132-.27.054-.124.166-.272.263-.368.046-.009.093-.07.14-.04.034.023.035.084.051.108-.051.246-.243.363-.373.548.117.094.224.17.327.258.053.085.149.126.198.2a.853.853 0 0 1 .063.117c.012.025.025.05.034.076.008.028.005.057.014.082.008.023.024.039.028.054.001.007-.008.015-.007.02.002.006.016.011.016.01.007.033.007.067.013.1.002.016.01.032.011.047.003.025-.027.05-.045.062-.037.026-.098.014-.14.018-.053.006-.105.01-.157.014a2.43 2.43 0 0 1-.324.004 1.292 1.292 0 0 1-.131-.015c-.007-.002-.035-.011-.04-.008ZM50 74.528c.015 0 .022.022.03.032a.701.701 0 0 0 .06.076c.017.017.028.023.034.046.004.013.008.028.016.04.01.016.018.028.02.046.004.02.002.04.006.06a.665.665 0 0 0 .062.183.97.97 0 0 0 .02.046c.006.009.015.04.024.045.013.007.028-.008.044-.02.005-.006-.01-.073-.01-.083l-.007-.084-.007-.083c-.002-.017-.01-.037-.004-.053.003-.006.03-.043.035-.04.051.034.07.104.098.13.026.08.07.222.076.327a.596.596 0 0 1-.05.271c-.027.049-.096.03-.16-.004-.09-.049-.154-.154-.199-.228-.02-.09-.02-.16-.045-.233.007-.01-.004-.025.008-.035-.032-.068-.036-.206-.065-.284-.002-.008.003-.029.002-.04-.002-.014-.008-.027-.01-.04a.097.097 0 0 1-.002-.043c.003-.01.009-.03.02-.032H50Z" clip-rule="evenodd"/></g><defs><filter id="a" width="154" height="157" x="0" y="0" color-interpolation-filters="sRGB" filterUnits="userSpaceOnUse"><feFlood flood-opacity="0" result="BackgroundImageFix"/><feColorMatrix in="SourceAlpha" result="hardAlpha" values="0 0 0 0 0 0 0 0 0 0 0 0 0 0 0 0 0 0 127 0"/><feOffset dy="16"/><feGaussianBlur stdDeviation="6.5"/><feColorMatrix values="0 0 0 0 0 0 0 0 0 0 0 0 0 0 0 0 0 0 0.03 0"/><feBlend in2="BackgroundImageFix" result="effect1_dropShadow_185_398"/><feBlend in="SourceGraphic" in2="effect1_dropShadow_185_398" result="shape"/></filter></defs></svg>