<svg xmlns="http://www.w3.org/2000/svg" width="154" height="157" fill="none"><g filter="url(#a)"><path fill="#fff" d="M13 0h128v128H13z"/><path fill="#004B9D" fill-rule="evenodd" d="M66.178 77.538c-.221 0-.428-.038-.621-.114a1.45 1.45 0 0 1-.835-.862c-.081-.21-.122-.44-.122-.692 0-.25.041-.482.123-.695.081-.212.196-.397.344-.553a1.49 1.49 0 0 1 .522-.355c.203-.085.42-.127.652-.127.167 0 .32.022.458.066.138.043.254.093.349.147l.132-.124h.183l.018 1.176h-.188c-.106-.36-.234-.625-.382-.794a.7.7 0 0 0-.545-.252c-.266 0-.469.125-.608.376-.138.251-.208.604-.208 1.058 0 .256.024.476.071.657.047.181.11.327.186.438.082.115.18.2.291.254a.85.85 0 0 0 .372.08.863.863 0 0 0 .53-.173c.155-.116.297-.29.424-.524l.183.118c-.061.134-.13.253-.209.358a1.287 1.287 0 0 1-.27.272 1.379 1.379 0 0 1-.37.195c-.136.047-.296.07-.48.07ZM71.322 77.45h-1.634v-.177l.156-.014a.442.442 0 0 0 .14-.027.214.214 0 0 0 .11-.09.303.303 0 0 0 .03-.141v-1.113H68.83v1.087c0 .052.01.099.03.139.021.04.057.073.106.096a1.374 1.374 0 0 0 .3.063v.177H67.63v-.177a2.16 2.16 0 0 0 .157-.014.679.679 0 0 0 .151-.031.19.19 0 0 0 .107-.09c.02-.04.03-.087.03-.142v-2.28a.298.298 0 0 0-.027-.133c-.018-.037-.055-.069-.11-.096a.787.787 0 0 0-.163-.053 1.221 1.221 0 0 0-.145-.029v-.176h1.634v.176a1.397 1.397 0 0 0-.299.057c-.055.02-.092.051-.11.094a.346.346 0 0 0-.026.138v.962h1.294v-.94a.301.301 0 0 0-.028-.134.245.245 0 0 0-.111-.095 1.19 1.19 0 0 0-.297-.081v-.177h1.634v.176a1.456 1.456 0 0 0-.308.057.181.181 0 0 0-.109.093.35.35 0 0 0-.027.138v2.283c0 .054.009.1.027.139.02.038.055.07.11.095a.769.769 0 0 0 .148.04c.065.013.118.02.16.023v.177ZM74.326 74.587c.148.146.266.321.353.527.087.206.13.44.13.704 0 .234-.036.457-.11.669a1.58 1.58 0 0 1-.318.548 1.573 1.573 0 0 1-.515.37 1.708 1.708 0 0 1-.704.133 1.69 1.69 0 0 1-.623-.115 1.536 1.536 0 0 1-.517-.336 1.571 1.571 0 0 1-.35-.525 1.759 1.759 0 0 1-.13-.688c0-.262.042-.502.126-.716.084-.213.2-.397.348-.55.146-.15.32-.266.52-.346.2-.081.414-.122.641-.122.225 0 .437.04.634.118.199.08.37.19.514.33Zm-.547 2.308c.064-.14.11-.295.138-.47a3.71 3.71 0 0 0 .043-.591c0-.187-.012-.369-.037-.546a1.823 1.823 0 0 0-.127-.471.875.875 0 0 0-.243-.333.569.569 0 0 0-.376-.125c-.257 0-.452.13-.586.39-.133.26-.2.628-.2 1.103 0 .202.015.392.044.572.03.178.075.334.137.468a.84.84 0 0 0 .243.316.578.578 0 0 0 .362.112c.14 0 .261-.038.362-.114a.79.79 0 0 0 .24-.311ZM78.497 74.4a3.51 3.51 0 0 0-.17.026.425.425 0 0 0-.2.088c-.052.042-.09.111-.112.211-.022.1-.032.245-.032.438v2.306h-.385l-1.868-2.491v1.512c0 .188.011.33.034.428.024.097.062.17.115.214.038.034.1.063.183.09.083.025.15.042.2.051v.177h-1.304v-.177a1.25 1.25 0 0 0 .19-.033.48.48 0 0 0 .18-.08.347.347 0 0 0 .114-.2c.02-.088.03-.237.03-.447v-1.527a.697.697 0 0 0-.032-.216.442.442 0 0 0-.102-.173.542.542 0 0 0-.17-.122.931.931 0 0 0-.218-.07v-.176h1.138l1.638 2.181v-1.223c0-.194-.013-.34-.037-.434a.392.392 0 0 0-.115-.21.521.521 0 0 0-.184-.091 1.828 1.828 0 0 0-.196-.051v-.172h1.303v.172ZM81.972 76.14a1.55 1.55 0 0 0-.117.015.78.78 0 0 0-.127.036c-.06.02-.097.053-.116.098a.386.386 0 0 0-.028.143v.375a6.701 6.701 0 0 0 .01.354c-.142.091-.352.177-.63.257a2.78 2.78 0 0 1-.763.12c-.219 0-.424-.035-.615-.107a1.405 1.405 0 0 1-.504-.32 1.49 1.49 0 0 1-.34-.524 1.938 1.938 0 0 1-.125-.718c0-.251.039-.484.117-.698.078-.213.19-.397.338-.551a1.47 1.47 0 0 1 .529-.355 1.85 1.85 0 0 1 .69-.125c.172 0 .331.023.477.069.146.044.267.093.362.144l.132-.124h.183l.017 1.176h-.187c-.108-.354-.237-.617-.387-.789a.724.724 0 0 0-.57-.257c-.271 0-.481.127-.63.38-.147.256-.221.606-.221 1.052 0 .474.072.845.218 1.113.145.268.35.402.617.402.125 0 .236-.02.332-.06a.711.711 0 0 0 .227-.14v-.652c0-.054-.01-.1-.028-.137a.231.231 0 0 0-.11-.096.72.72 0 0 0-.16-.052 2.262 2.262 0 0 0-.16-.03v-.176h1.57v.176ZM84.84 74.587c.149.146.267.322.354.528.088.205.131.44.131.703 0 .375-.088.703-.263.987a1.474 1.474 0 0 1-.743.61c.004.18.055.337.153.469.098.132.214.198.348.198a1.357 1.357 0 0 0 .383-.05v.197a2.16 2.16 0 0 1-.36.11c-.16.036-.326.055-.5.055a.804.804 0 0 1-.59-.228c-.153-.153-.24-.365-.258-.637-.2-.02-.387-.074-.56-.159a1.526 1.526 0 0 1-.764-.85 1.755 1.755 0 0 1-.114-.644c0-.264.042-.503.126-.717.084-.215.2-.398.348-.55.146-.151.32-.266.52-.347.2-.081.414-.122.641-.122.226 0 .437.04.635.118.198.08.368.19.514.33Zm-.545 2.311c.064-.138.11-.295.138-.47.028-.174.042-.372.042-.592 0-.187-.012-.37-.037-.546a1.832 1.832 0 0 0-.127-.473.888.888 0 0 0-.242-.333.569.569 0 0 0-.377-.125c-.257 0-.452.13-.586.391-.132.26-.2.628-.2 1.104 0 .202.015.393.044.573.03.179.075.335.138.47.063.134.144.24.242.314a.578.578 0 0 0 .362.114c.14 0 .261-.038.362-.114.1-.076.181-.18.24-.313ZM87.203 77.45h-1.669v-.177l.169-.014a.525.525 0 0 0 .153-.027.208.208 0 0 0 .108-.09.312.312 0 0 0 .028-.141v-2.284a.32.32 0 0 0-.028-.137.202.202 0 0 0-.108-.095 1.54 1.54 0 0 0-.322-.08v-.176h1.67v.176a6.36 6.36 0 0 0-.16.02.87.87 0 0 0-.16.035c-.055.02-.092.05-.11.092a.352.352 0 0 0-.028.141v2.283c0 .054.01.1.028.14.02.038.056.07.11.094a1.462 1.462 0 0 0 .32.063v.177ZM90.877 74.4a3.49 3.49 0 0 0-.17.026.424.424 0 0 0-.2.088c-.052.042-.089.111-.111.211a2.19 2.19 0 0 0-.033.438v2.306h-.384l-1.869-2.491v1.512c0 .188.012.33.035.428.024.097.062.17.114.214.038.034.1.063.183.09.083.025.15.042.2.051v.177h-1.303v-.177c.055-.004.118-.015.19-.033a.48.48 0 0 0 .18-.08.346.346 0 0 0 .113-.2c.02-.088.03-.237.03-.447v-1.527a.697.697 0 0 0-.032-.216.441.441 0 0 0-.102-.173.54.54 0 0 0-.17-.122.932.932 0 0 0-.218-.07v-.176h1.139l1.637 2.181v-1.223c0-.194-.012-.34-.037-.434a.392.392 0 0 0-.115-.21.521.521 0 0 0-.184-.091 1.822 1.822 0 0 0-.196-.051v-.172h1.303v.172ZM94.353 76.14c-.045.004-.083.01-.117.015a.776.776 0 0 0-.128.036c-.059.02-.097.053-.116.098a.386.386 0 0 0-.027.143v.375a6.701 6.701 0 0 0 .008.354c-.141.091-.351.177-.628.257a2.78 2.78 0 0 1-.764.12c-.218 0-.423-.035-.614-.107a1.405 1.405 0 0 1-.504-.32 1.49 1.49 0 0 1-.342-.524 1.94 1.94 0 0 1-.124-.718c0-.251.04-.484.117-.698.079-.213.191-.397.339-.551a1.47 1.47 0 0 1 .528-.355 1.85 1.85 0 0 1 .691-.125c.171 0 .33.023.476.069.146.044.267.093.362.144l.132-.124h.183l.018 1.176h-.188c-.107-.354-.237-.617-.387-.789a.724.724 0 0 0-.57-.257c-.27 0-.48.127-.629.38-.148.256-.222.606-.222 1.052 0 .474.073.845.218 1.113.145.268.35.402.617.402.125 0 .236-.02.333-.06a.71.71 0 0 0 .226-.14v-.652c0-.054-.01-.1-.027-.137a.23.23 0 0 0-.11-.096.718.718 0 0 0-.16-.052 2.262 2.262 0 0 0-.16-.03v-.176h1.569v.176ZM99.955 74.41c-.041.005-.1.015-.178.03a.484.484 0 0 0-.197.083c-.054.038-.092.106-.114.205a2.136 2.136 0 0 0-.034.441v1.197c0 .353-.111.635-.336.85-.224.215-.521.322-.89.322-.43 0-.764-.103-1-.31-.236-.207-.353-.496-.353-.866v-1.646a.303.303 0 0 0-.029-.136.266.266 0 0 0-.11-.102.542.542 0 0 0-.135-.048 1.861 1.861 0 0 0-.132-.025v-.176h1.578v.176a1.031 1.031 0 0 0-.282.054.174.174 0 0 0-.109.091.36.36 0 0 0-.028.144v1.623c0 .32.067.552.199.697.133.145.324.218.576.218.248 0 .442-.08.583-.24.14-.161.211-.397.211-.709v-1.09a1.89 1.89 0 0 0-.037-.435.39.39 0 0 0-.114-.208.541.541 0 0 0-.192-.09 1.897 1.897 0 0 0-.193-.05v-.181h1.316v.18ZM103.603 74.4c-.04.005-.096.014-.17.026a.428.428 0 0 0-.2.088c-.052.042-.089.111-.111.211-.022.1-.033.245-.033.438v2.306h-.384l-1.869-2.491v1.512c0 .188.012.33.035.428.024.097.062.17.114.214.038.034.1.063.183.09.083.025.15.042.2.051v.177h-1.303v-.177c.055-.004.118-.015.19-.033a.479.479 0 0 0 .179-.08.348.348 0 0 0 .115-.2c.02-.088.03-.237.03-.447v-1.527a.69.69 0 0 0-.033-.216.45.45 0 0 0-.102-.173.545.545 0 0 0-.17-.122.94.94 0 0 0-.218-.07v-.176h1.139l1.637 2.181v-1.223c0-.194-.012-.34-.036-.434a.394.394 0 0 0-.116-.21.514.514 0 0 0-.184-.091 1.791 1.791 0 0 0-.196-.051v-.172h1.303v.172ZM105.486 77.45h-1.669v-.177l.168-.014a.522.522 0 0 0 .153-.027.208.208 0 0 0 .108-.09.31.31 0 0 0 .028-.141v-2.284a.322.322 0 0 0-.027-.137.206.206 0 0 0-.109-.095 1.53 1.53 0 0 0-.321-.08v-.176h1.669v.176c-.043.005-.096.011-.159.02a.867.867 0 0 0-.161.035c-.055.02-.092.05-.11.092a.339.339 0 0 0-.028.141v2.283c0 .054.009.1.028.14.02.038.056.07.11.094a1.446 1.446 0 0 0 .32.063v.177ZM109.065 74.41a.65.65 0 0 0-.134.027.622.622 0 0 0-.273.185.833.833 0 0 0-.099.18c-.044.103-.105.256-.185.456l-.272.685a108.699 108.699 0 0 0-.598 1.544h-.427l-.606-1.583c-.206-.536-.35-.908-.434-1.117a.744.744 0 0 0-.095-.172.568.568 0 0 0-.145-.119.599.599 0 0 0-.275-.09v-.177h1.635v.172c-.153.02-.256.04-.311.062-.053.022-.081.05-.081.083 0 .017.003.035.007.054l.023.076c.046.133.128.35.247.653.119.302.296.763.53 1.382.143-.377.262-.696.357-.956l.252-.69a3.58 3.58 0 0 0 .088-.272.795.795 0 0 0 .035-.19c0-.048-.033-.09-.098-.122-.066-.032-.187-.056-.365-.071v-.181h1.224v.18ZM111.836 75.051h-.166a1.22 1.22 0 0 0-.213-.372c-.1-.127-.2-.2-.299-.223a.937.937 0 0 0-.178-.02 6.585 6.585 0 0 0-.188-.003h-.438v1.246h.311c.078 0 .149-.01.213-.03a.411.411 0 0 0 .175-.113.596.596 0 0 0 .099-.185 1.2 1.2 0 0 0 .065-.23h.165v1.344h-.165a1.299 1.299 0 0 0-.065-.24.679.679 0 0 0-.099-.198.358.358 0 0 0-.167-.112.706.706 0 0 0-.221-.032h-.311v.93c0 .098.006.174.02.231.013.057.039.1.076.131a.29.29 0 0 0 .146.057c.062.009.146.014.253.014l.178-.003a1.48 1.48 0 0 0 .351-.048.237.237 0 0 0 .115-.066c.069-.074.146-.188.231-.34.085-.153.141-.267.168-.343h.157l-.057 1.004h-2.836v-.177c.04-.003.093-.009.162-.017a.627.627 0 0 0 .146-.033c.053-.024.09-.054.108-.091a.31.31 0 0 0 .028-.142v-2.273a.35.35 0 0 0-.023-.136c-.016-.035-.054-.067-.113-.096a.738.738 0 0 0-.157-.05 2.023 2.023 0 0 0-.151-.03v-.176h2.68v.822ZM115.8 77.45h-1.157a19.335 19.335 0 0 0-.499-.78 14.684 14.684 0 0 0-.494-.67h-.12v.977c0 .054.009.1.029.138.019.038.056.07.11.095a1.368 1.368 0 0 0 .275.063v.177h-1.612v-.177c.041-.004.095-.01.163-.019a.605.605 0 0 0 .145-.031c.053-.024.09-.054.108-.091a.31.31 0 0 0 .028-.142v-2.273c0-.055-.008-.1-.023-.137-.016-.036-.054-.068-.113-.095a.89.89 0 0 0-.162-.05 4.446 4.446 0 0 0-.146-.03v-.176h1.696c.379 0 .666.063.863.19.197.126.295.317.295.574 0 .225-.061.407-.182.544-.122.137-.307.244-.555.322l.337.462c.129.175.263.355.401.538.045.059.104.13.18.216a.522.522 0 0 0 .202.157 1.627 1.627 0 0 0 .231.041v.177Zm-1.446-2.395c0-.216-.057-.373-.17-.472-.114-.1-.276-.15-.485-.15h-.169v1.353h.163c.21 0 .372-.058.487-.175.116-.117.174-.302.174-.556ZM117.109 77.538c-.186 0-.358-.024-.517-.073a1.904 1.904 0 0 1-.406-.174l-.146.159h-.183l-.026-1.162h.183c.041.11.093.226.157.349.064.121.137.23.222.327.086.102.183.184.29.247a.721.721 0 0 0 .376.095c.192 0 .34-.05.443-.15a.508.508 0 0 0 .154-.38.424.424 0 0 0-.13-.315 1.083 1.083 0 0 0-.406-.222l-.329-.114c-.1-.035-.193-.07-.282-.107a.94.94 0 0 1-.6-.91c0-.125.025-.246.077-.362a.95.95 0 0 1 .224-.312c.093-.087.213-.157.359-.212.146-.054.305-.082.477-.082.168 0 .325.025.471.076.146.049.261.099.345.149l.13-.136h.183l.017 1.097h-.183a4.67 4.67 0 0 0-.149-.362 1.607 1.607 0 0 0-.183-.308.827.827 0 0 0-.24-.21.63.63 0 0 0-.319-.078.523.523 0 0 0-.375.139.455.455 0 0 0-.145.343.42.42 0 0 0 .126.315c.085.082.216.154.395.216l.322.114a5.9 5.9 0 0 1 .291.109c.206.085.362.202.47.352.107.148.16.333.16.555 0 .14-.03.274-.091.404a.93.93 0 0 1-.247.326 1.221 1.221 0 0 1-.394.22 1.586 1.586 0 0 1-.521.077ZM120.361 77.45h-1.669v-.177l.168-.014a.522.522 0 0 0 .153-.027.208.208 0 0 0 .108-.09.31.31 0 0 0 .028-.141v-2.284a.322.322 0 0 0-.027-.137.206.206 0 0 0-.109-.095 1.53 1.53 0 0 0-.321-.08v-.176h1.669v.176c-.042.005-.096.011-.159.02a.867.867 0 0 0-.161.035c-.055.02-.092.05-.11.092a.355.355 0 0 0-.028.141v2.283c0 .054.01.1.028.14.02.038.056.07.11.094a1.446 1.446 0 0 0 .32.063v.177ZM123.352 75.149h-.166a1.97 1.97 0 0 0-.211-.44c-.097-.157-.187-.241-.269-.253a2.601 2.601 0 0 0-.34-.023h-.099v2.525c0 .054.009.102.027.144a.202.202 0 0 0 .109.099.798.798 0 0 0 .151.041c.069.015.127.025.175.031v.177h-1.678v-.177l.173-.019a.616.616 0 0 0 .151-.03.205.205 0 0 0 .11-.098.343.343 0 0 0 .028-.145v-2.548h-.099a2.536 2.536 0 0 0-.34.023c-.083.012-.173.096-.269.253a1.976 1.976 0 0 0-.212.44h-.165v-.92h2.924v.92ZM126.88 74.405a.776.776 0 0 0-.14.03.624.624 0 0 0-.284.197c-.048.056-.095.12-.139.188-.093.145-.189.301-.291.47a49.84 49.84 0 0 0-.331.557 1.208 1.208 0 0 0-.143.297 1.612 1.612 0 0 0-.027.357v.457c0 .054.009.102.028.143a.22.22 0 0 0 .11.1.96.96 0 0 0 .152.041c.078.018.135.028.172.031v.177h-1.678v-.177l.171-.017a.666.666 0 0 0 .155-.033.214.214 0 0 0 .108-.096.342.342 0 0 0 .028-.146v-.568l-.002-.132a.395.395 0 0 0-.015-.095.787.787 0 0 0-.051-.11l-.094-.174a49.2 49.2 0 0 0-.317-.582c-.103-.182-.2-.355-.292-.515a1.125 1.125 0 0 0-.146-.201.805.805 0 0 0-.151-.123.463.463 0 0 0-.139-.053 1.088 1.088 0 0 0-.148-.023v-.176h1.73v.176a1.31 1.31 0 0 0-.321.035c-.056.02-.084.046-.084.08 0 .015.011.049.031.1.021.049.058.126.11.23.049.1.119.234.212.407.093.172.205.375.336.606.27-.455.455-.774.556-.955.101-.18.151-.291.151-.332 0-.052-.03-.09-.088-.119a.874.874 0 0 0-.289-.052v-.176h1.12v.176ZM76.151 50.409c.04.024.05-.02.195.12.09.155.102.15.211.28.11.128.231.479.352.799.12.32.158.96 0 1.38-.158.42-.49.849-.786 1.107-.072.063-.389.27-.726.577-.39.355-.835.84-1.375 1.31-.262.23-.615.473-.858.687-.27.237-.506.5-.714.678-.247.21-.465.352-.557.422-.508.386-1.185.923-1.379.923 0 0 .665-.858 1.159-1.508.214-.281.396-.524.477-.64.226-.348.55-.654.786-.986.644-.904 1.232-1.807 1.902-2.795.263-.353.437-.71.605-1.103.169-.396.456-1.236.708-1.251ZM74 64.405l.099.623.016.037c-.01.3-.06.642-.112.886-.028.132-.011.24-.002.313.013.103.11.12.313.17.11.028.16.12.245.163a.323.323 0 0 1 .162.215c.02.067.078.262.042.398-.044.166-.144.317-.188.416-.08.179-.165.285-.165.285-.15.209-.222.313-.32.525a2.954 2.954 0 0 1-.27.477c.075.11.18.082.302.062.317-.053.733-.329.733-.329.347-.277.505-.19.657-.194.15-.003.486.332.576.64.096.334-.116.645-.266.7-.404.149-.746.227-1.155.372-.296.105-.657.275-.953.385-.046.038-.42.067-.674.313-.222.215-.769.132-.875.019-.199-.211-.698-.786-.61-1.094.074-.253.213-.668.227-.741.016-.09.447-.665.521-1.11.05-.296.056-.487.108-.668.034-.121.016-.169-.043-.245 0 0-.145-.087-.311-.184-.106-.061-.287-.043-.388-.123-.063-.05-.237-.163-.277-.217-.05-.067-.023-.158.13-.23.046-.023.137-.12.203-.138.058-.016.129-.032.174-.044.03-.008.104-.02.125-.026.278-.056.586-.01.586-.01l.015-.06c.016-.086.032-.141.012-.263-.016-.093-.075-.265-.094-.447-.016-.148.047-.784.12-1.176v-.398l-.145.04c-.142.069-.262.244-.438.252 0 .035-.292.116-.292.193l-.12.1h-.026c-.011.079-.07.08-.098.145-.057 0-.992.776-.992.696a.146.146 0 0 0-.03.038c-.183.018-.306-.039-.479-.1 0-.066-.172-.07-.236-.086l-.055-.101h-.006c-.172-.452.001-.875.284-1.21.011 0 .252-.254.265-.291.08-.06.01-.142.18-.293v-.001c.092-.063.216-.182.25-.29l.042-.066a.525.525 0 0 0 .197-.293c.033-.031.047-.067.095-.08.004-.022.243-.244.287-.292.076-.087.206-.211.291-.292.043 0 .252-.247.293-.292.006 0 .375-.526.42-.585l.022-.025.146-.12c.003-.089.291-.3.291-.306.035-.036.292-.318.292-.32l.105-.105c.007-.05.036-.083.043-.132.006-.047-.009-.113-.002-.16H73.1c0 .07-.217.146-.292.146 0 .011-.488.292-.583.292 0 .034-.38.292-.438.292 0 .026-.583.275-.583.37-.063.058-.438.241-.438.251-.1.008-.438.245-.438.302-.043.026-.097.1-.145.1v.009c-.066.033-.292.13-.292.181-.045.02-.091.102-.146.102v.004c-.145.115-.292.148-.421.288h-.017v.015l-.102.074c-.102.101-.301.234-.44.35l-.041.04c-.056.044-.292.243-.292.29-.046.021-.088.107-.146.107v.008c-.234.235-.796.495-.97.674-.13.13-.841.168-1 .09 0-.014-.252-.127-.292-.14 0-.012-.38-.12-.437-.148 0-.005-.78-.256-.875-.305 0-.027-.304-.092-.234-.262l.162-.39c.09-.031.343-.403.437-.403v-.009c.057-.05.438-.311.438-.32.045-.026.291-.112.291-.131l.08-.023v.002c.314-.044 3.567-1.565 3.567-1.565.299-.09.718-.438 1.022-.438v-.01c.072-.043.729-.292.729-.298.086-.055.729-.3.729-.305.067-.02.438-.118.438-.148.21 0 .409-.26.583-.26v-.01c.087-.046.186-.137.292-.137v-.008c.061-.024.135-.063.135-.138h.01v-.899c.048-.025.438-.282.438-.288.057-.047 1.13-.545 1.165-.545-.056-.056.127.028.21.005l.06.121c-.01.051.024.095.024.145.033 0 .024.176.025.208l.024-.024c-.028.028-.049.6-.049.693l.146-.052c.127.042 1.055-.074 1.055-.16.357 0 .276.001.541.14l.074.196c.218.425-.324.56-.324.63-.08.06-.217.246-.291.246 0 .072-.402.438-.438.438v.02l-.653.322c0 .02-.378.432-.439.438 0 .023-.38.766-.38 1.1-.004 0-.019.278-.02.302l.437-.26c.207 0 .481-.41.696-.41 0-.063.683-.082.666-.098.416.096.966.378.966.876.036-.038-.034.381-.179.381 0 .057-.06.081-.113.146l-.528.77a.579.579 0 0 0-.089.146c-.044 0-.346.386-.402.463l-.108.146c-.04 0-.245.345-.303.426-.164.107-.23.189-.375.26-.131.065-.323.078-.512.137-.314.148-.394.117-.716.116Zm1.435-2.045c-.206.24-.22.382-.438.534 0 .086-.35.288-.438.327l-.007.008-.284.007v-.764c.03 0 .072-.082.222-.14l-.003.008.51-.351.243-.106-.002.001.197-.108h.146l.087.148c-.096.112-.15.28-.233.436Zm-4.21 1.048c.04-.259.445-.712.563-.902.09-.14.365-.361.438-.438h.002c.064-.067.436-.402.436-.438l.079-.024.066.024.01.132-.01.452c-.032.164.022.35-.286.494-.056.038-.1.127-.297.236-.006 0-.149.073-.309.173-.103.066-.202.15-.32.21-.115.06-.227.11-.317.13-.051-.002-.061-.008-.055-.05Zm20.327-3.294c.22-.3.425-.55.592-.824.048-.079.03-.263-.032-.325-.052-.054-.23-.038-.32.01-.327.173-.49.492-.692.815l.452.324Zm.146 4.141c.337-.021.626-.153.919-.28.181-.08.373-.17.565-.184.636-.045.99.57.68 1.154-.201.382-.41.76-.61 1.143-.071.135-.127.276-.209.456.174.087.318.167.468.235.155.07.316.124.473.188.455.186.543.29.515.603-.03.35-.35.7-.697.769a1.012 1.012 0 0 1-1.004-.33l-.466-.5c-.423.388-.824.747-1.214 1.116-.354.336-.955.367-1.335.056-.025-.02-.045-.043-.067-.064-.48-.454-.45-.586.15-.862.42-.194.83-.41 1.233-.636.156-.087.282-.229.424-.349-.055-.19-.11-.349-.144-.513-.06-.304.034-.406.338-.375.165.017.33.041.523.066l.341-.85c-.199-.213-.393-.255-.622-.179-.102.034-.223.094-.311.065-.42-.136-.592.147-.833.403-.723.767-1.331 1.616-1.922 2.484-.25.368-.538.712-.823 1.055-.095.114-.232.197-.36.28-.168.11-.33.077-.445-.085-.15-.213-.309-.426-.42-.66a.71.71 0 0 1 .029-.669c.262-.478.59-.91 1.039-1.213.809-.545 1.454-1.236 1.984-2.046.126-.192.292-.357.464-.565-.072-.14-.144-.288-.223-.433-.06-.107-.145-.204-.189-.317-.133-.345.04-.62.403-.644.216-.013.433.013.649.003.455-.019.786-.273.947-.694.056-.15.055-.273-.088-.364-.129-.082-.218-.011-.322.077-.578.489-.988.488-1.546.011l.38-.67c-.304-.283-.31-.291-.574-.084-.185.146-.36.227-.604.048.045-.16.096-.317.132-.477.036-.161.057-.325.083-.48-.227-.1-.325.043-.43.145a.959.959 0 0 0-.196.257c-.632 1.286-1.585 2.352-2.392 3.519-.579.837-1.15 1.68-1.714 2.526-.444.668-.854 1.357-1.309 2.017-.383.558-.806 1.088-1.215 1.629a1.392 1.392 0 0 1-.193.197c-.458.4-.64.341-.808-.252a.925.925 0 0 0-.104-.256c-.266-.405-.174-.796.036-1.18.207-.38.447-.742.628-1.133.093-.2.27-.075.376-.173.268-.254.582-.47.808-.758 1.944-2.477 3.872-4.966 5.808-7.45.134-.172.24-.334.255-.573.02-.326.298-.515.552-.636.194-.093.324-.215.452-.366.378-.448.763-.89 1.137-1.339.071-.085.11-.198.216-.394-.323.084-.543.134-.758.198-.635.187-1.269.375-1.9.57-.163.05-.317.124-.475.186-.677.266-1.35.32-2.008-.054-.404-.23-.51-.449-.438-.84.853-.11 1.713-.17 2.55-.34.835-.172 1.68-.35 2.538-.735-.5-.416-.94-.791-1.39-1.152-.222-.178-.35-.388-.322-.675.023-.232.163-.334.38-.246.523.21 1.072.27 1.622.355.324.05.655.19.936.365.4.249.44.51.215 1.008.162-.033.287-.045.404-.084.394-.134.778-.298 1.177-.412.626-.178.81.04.926.503.023.09.058.177.078.267.108.481-.122.828-.605.904-.455.071-.912.122-1.363.206-.157.029-.34.094-.444.205-.763.806-1.51 1.628-2.26 2.446-.04.045-.064.105-.103.168.052.093.094.194.16.276.19.243.305.24.506.009.132-.151.262-.306.409-.44.561-.52 1.057-1.08 1.18-1.872.308-.145.563-.018.782.152.084.064.138.254.109.36-.082.308-.213.602-.33.912.283.258.321.276.596.066a2.77 2.77 0 0 0 .566-.54c.126-.172.259-.195.433-.162.326.06.574.336.657.702.078.346-.084.562-.364.722-.268.152-.524.334-.808.447-.571.229-.958.662-1.337 1.11-.038.045-.056.108-.088.173.162.2.332.208.512.048.162-.143.303-.312.477-.438.158-.114.34-.222.526-.264.286-.063.448.087.526.377.047.173.113.345.198.503.148.273.12.486-.15.676-.202.14-.426.25-.636.379-.327.203-.35.26-.28.637.072.383-.003.536-.367.686-.314.13-.637.233-.952.36-.37.151-.599.418-.703.809Zm-2.329-1.65-.19.477c.078.305.237.585.183.816-.06.258-.279.51-.49.694-.39.342-.86.364-1.481-.27.313-.868.885-1.382 1.978-1.717Zm16.633-2.594c-.066.661-.167 1.138-.151 1.653.006.203 1.246-.374 1.371-.413l.042-.011.053-.025c.223-.1.468-.172.692-.282l.563-.31.099-.063.112-.062c.037-.024.086-.068.08-.115-.006-.044-.018-.09-.022-.129-.004-.039-.058-.043-.016-.077.038-.017-.074-.101.061-.095l.101.024.085.027c.072.03.149.093.214.142.107.08.196.151.261.246.052.075.156.283.176.368l-.009.005.005.054a1.26 1.26 0 0 1-.045.242c.008.044 0 .114-.042.14l.005.008c-.047.057-.078.042-.143.088-.008.115-.308.256-.397.265-.009-.014-.491.18-.929.335-.629.27-1.292.496-1.659.626l-.035.022-.02-.002-.14.051c-.1.039-.317.084-.269.18.109.213.097.468.452.908.104.128.297.578.397.76.119.22.356.636.483.844.108.179.298.424.424.608.093.136.166.288.263.417.265.351.448.548.735.799.094.082.268.238.366.306.097.066.236.147.335.201.224.123.489.193.702.26.384.123.69.193.938.22.119.013.266.018.335.03.177.03.118.077-.213.22-.204.089-.529.278-1.008.399-.166.042-.4.09-.594.166-.23.09-.575.014-.814-.071-.268-.096-.43-.156-.676-.384-.11-.101-.217-.275-.318-.389-.345-.39-.63-.727-.794-1.053-.159-.297-.301-.667-.427-.907-.386-.733-.634-1.223-.858-1.567-.076-.117-.094-.156-.19-.156-.081 0-.091.09-.107.128-.158.389-.248.838-.428 1.229-.157.343-.397.632-.616.93-.274.37-.587.712-1.087.885a3.624 3.624 0 0 1-.574.124c-.336.05-.719.022-1.226-.019-.582-.046-1.531-.048-2.283-.086-.57-.079-.646-.207-.392-.378.387-.082 1.541-.163 1.838-.206.268-.04.921-.133 1.227-.268.529-.234.875-.497 1.276-.94.203-.222.334-.48.497-.775.13-.236.31-.496.341-.781.045-.04.175-.433.283-.85-.141.039-.272.048-.383.086-.205.07-.365.094-.492.148-.254.107-.377.211-.455.235-.134.042-.152.045-.321.1-.131.043-.134.112-.265.16-.123.043-.131.054-.221.11-.062.037-.164.063-.185.105-.123.148-.307.137-.411.232-.114.033-.367-.009-.488-.166l-.144-.217a1.174 1.174 0 0 0-.197-.24c-.064-.39.236-.59.455-.67l.407-.15c.24-.02.526-.192.913-.338.514-.195 1.151-.314 1.7-.577l.289-.137c.055-.287.124-.6.189-.93.057-.893.407-2.688.434-3.913l-.047-1.445h-.02c-.006-.183-.274-.412-.28-.582l.024.023c-.001-.038.001-.066-.024-.099l.001-.001.01.009a.42.42 0 0 1 .118-.288l.13-.012h-.007c.342-.016.713.076 1.038.15v.017l.071.032c.024 0 .077.07.083.1.065.014.137.06.15.13.059.024.141.086.143.157h.012c.037.1.112.116.121.231.136.097-.031.545-.085.664h-.024c.006.175-.027.425-.105.582l-.037.21a.188.188 0 0 0-.009.041c-.192.698-.327 1.869-.43 2.747h.012Zm15.936 10.913a27.227 27.227 0 0 0-1.391-.093l-.014-.001-.205-.128v-.034h-.075c-.032-.032-.209-.1-.209-.142h-.008a.823.823 0 0 0-.275-.138v-.005l-.135-.044s-.224-.046-.275-.097c-.192-.193-.782-.76-1.046-.762a.111.111 0 0 0-.088-.044l-.215-.173-.017-.095-.108-.014-.02-.04c.076-.093.385-.03.812.024.274.034.509.002.802.044.229.032.437.146.634.187.142.03.258.055.355.052.061-.002.125-.031.151-.031l-.001-.112c-.015-.497-.116-1.2-.129-1.608-.011-.358-.011-.88.017-1.326-.379 0-2.445.66-2.493.753l.016-.032c-.336 0-.938.314-1.231.016-.008.016-.028-.022-.046-.028v-.02c-.112 0-.185-.07-.284-.1v-.041c-.09-.003-.425-.188-.425-.285l-.142-.125v-.017l-.085-.04c0 .042-.057-.06-.057-.102h-.031c-.028-.027-.04-.042-.075-.06.012-.055-.041-.268.029-.303 0-.283.544-.166.667-.267.812-.19.831-.038 1.517-.194.76-.173 1.776-.362 1.917-.362l.059-.014c.178 0 .624-.215.854-.397.272-.214.257-.498.316-.72l.096-.093a.516.516 0 0 0 .122-.284l.052-.284c-.26 0-.463-.104-.708-.107h.002l-.144-.015v-.02c-.29 0-.494.05-.709-.131v-.01h-.012l-.068-.178c.049-.026.166-.14.176-.197.069-.013.284-.136.327-.18.03-.031.106-.014.144-.014l.001-.072c.152 0 .56-.391.659-.496h.049v-.032c.088-.033.153-.092.242-.107a.69.69 0 0 0 .041-.037v-.012l.033-.019c.066-.064.131-.132.203-.191.078-.065.185-.103.268-.144 1.163-.572 2.263-1.325 3.178-2.04v-.046l-.016-.015c-1.075-.03-2.328.642-3.336 1.015-.662.245-1.491.54-2.063.75a.622.622 0 0 1-.328.057.16.16 0 0 0-.046.015.11.11 0 0 0-.069.02.121.121 0 0 0-.023.011.22.22 0 0 0-.059.015.112.112 0 0 0-.03.007c-.018 0-.032 0-.049.005h-.339v.026c-.05 0-.095-.003-.143.008h-.175l-.03-.006a.149.149 0 0 0-.089-.025v-.003h-.641a.102.102 0 0 0-.039-.011.11.11 0 0 0-.046-.015.243.243 0 0 0-.07-.03.114.114 0 0 0-.078-.032h.03a.16.16 0 0 0-.03-.027v-.03h-.002v-.202a.107.107 0 0 0-.007-.04.125.125 0 0 0-.007-.04v-.101l-.027.025a.107.107 0 0 0 .031-.056c.004-.009.008-.015.011-.024 0-.03.046-.068.065-.087.006-.006.028-.015.039-.025a.334.334 0 0 0 .056-.034h.132v-.068a.136.136 0 0 0 .033-.026.116.116 0 0 0 .042-.021.229.229 0 0 0 .046-.014.114.114 0 0 0 .047-.008c.029 0 .065.004.091-.007.009 0 .019 0 .028-.002h.15v-.04a.213.213 0 0 0 .032-.013.414.414 0 0 0 .096-.032.114.114 0 0 0 .047-.023.11.11 0 0 0 .048-.025c.027-.013.038-.012.069-.012v-.019a.15.15 0 0 0 .025-.017.112.112 0 0 0 .034-.02.11.11 0 0 0 .05-.026.438.438 0 0 0 .047-.018.118.118 0 0 0 .052-.027.207.207 0 0 0 .034-.017l.049-.002v-.007a.131.131 0 0 0 .028-.017.117.117 0 0 0 .039-.018.447.447 0 0 0 .039-.014c.026-.012.055-.015.08-.035a.141.141 0 0 0 .035-.01c.068-.037.136-.072.199-.11.817-.488 2.252-.395 1.954-1.82-.071-.057-.23-.35-.362-.294-.149.133-.366.378-.515.511-.156.115-.45.416-.722.544a1.482 1.482 0 0 1-.299.11.424.424 0 0 1-.015-.015c-.001-.126-.006-.274.031-.394.156-.516.627-.956.923-1.365-.121-.098-.292-.217-.432-.366-.267-.287-.286.096-.478.191-.191.096.096 0 .192.23.095.23-.345.63-.44.765-.096.134-.268.153-.287.344-.04.396.202 1.11-.403 1.187-.111.013-1.042-.198-1.005-.31-.044-.145-.057-.464-.057-.549 0-.315-.053-.875-.22-1.225-.069-.146-.199-.23-.29-.302-.054-.043-.013-.1.008-.13.356-.035.907.213 1.125.45.414.194.142-1.06.213-1.366.057-.249.361-.242.476-.184.115.057.363.44.363.65 0 .21.306.057.306.057l-.019-.554s-.115-.25-.382-.288c-.185-.025-.553-.34-.63-.536-.102-.258.436-.156.478-.211.198-.135.377-.179.626-.234.182-.04.287-.03.457-.054.381-.054.602.708.91.485.534-.81 1.252-1.818 1.744-2.677l.05-.09c.057-.063.222-.232.215-.293a.1.1 0 0 0 .016-.04.324.324 0 0 0 .028-.082c.039-.104.109-.18.134-.296a.244.244 0 0 0 .019-.053.183.183 0 0 0 .023-.078c.034-.123.1-.383.017-.48-.022-.027-.019-.043-.024-.078-.034-.25.032-.118-.065-.31-.003-.02-.001-.053-.01-.071l-.006-.056.018-.008c.198-.021.048-.036.209-.053.014.003.028.005.043.003.01.003.021.005.032.005.06.027.348.03.367.028a.089.089 0 0 0 .022.006c.018.012.04.015.06.014.097-.003.038-.005.127.026.055.02.121.028.17.022.018.002.031.007.051.005a.12.12 0 0 0 .039.01.111.111 0 0 0 .025.01.166.166 0 0 0 .083.034.142.142 0 0 0 .044.014c.02.014.044.021.069.021.021.01.046.018.069.018a.12.12 0 0 0 .035.005.125.125 0 0 0 .044.004c.005.002.01.003.016.003a.098.098 0 0 0 .023.012c.026.022.04.031.071.043.006.002.022.018.029.023.022.018.047.025.069.04.02.017.042.037.066.047.034.027.034.006.051.044.007.016.017.03.029.042.015.023.037.035.057.053a.148.148 0 0 0 .039.047l.01.014a.11.11 0 0 0 .029.04c.006.011.02.027.029.038a.14.14 0 0 0 .028.038.122.122 0 0 0 .053.066c.013.012.015.034.039.055a.123.123 0 0 0 .036.045l.021.03c.008.019.016.038.031.055a.22.22 0 0 0 .023.038l.015.137c-.014.022-.013.049-.01.077.002.02-.004.034-.002.054-.012.026.002.093-.015.146-.012.026-.011.074-.029.096-.013.016-.026.032-.034.052a.073.073 0 0 0-.012.017c-.059.054-.192.17-.224.245a.32.32 0 0 0-.054.056c-.034.025-.033.018-.046.06a.128.128 0 0 0-.039.04.122.122 0 0 0-.047.038l-.037.03c-.18.092-.321.227-.463.378-.018.011-.047.022-.063.037-.009.007-.02.012-.029.02a.087.087 0 0 0-.034.02l-.102.079h.003c-.479.636-1.259 1.555-1.491 1.908-.049.067.028.235.078.265.121.073.282.15.362.253-.014.075-.286.248-.365.348-.132.168-.219.204-.411.367-.28.239-.403.304-.435.5-.021.132.541.575.581.846.043.295-.374.546-.226.805.184.023.291.102.338.261.139-.05.313-.27.493-.448.116-.116.229-.143.253-.286l.015-.092c-.219-.205-.43-.368-.496-.708-.012-.058-.131-.36.006-.61.089-.163-.045-.427.055-.546a.95.95 0 0 1 .49-.303c.435.021.424.545.798.727.255-.037.776-1.04.907-1.267l-.015-.031c-.515.005-1.081.093-1.318-.242.029-.543.97-.611 1.424-.753.34-.106.379-.354.653-.437.396-.121 1.677 1.153 1.42 1.605-.971.39-2.397 2.166-3.113 3.114l.016.061c.102.034.108.083.153.17.613-.004 1.248-.145 1.902-.18.21-.011.541.097 1.072.44.325.21.037.6.036.745-.071.237-.288.273-.609.523-.186.145-.509.26-.767.386-.255.123-.443.256-.746.37-.244.092-.64.334-.896.433-.524.202-1.027.448-1.52.652-.082.053-.161.103-.192.103-.041.041-.113.046-.167.046v.013l-.177.05.006-.004-.035.003c-.045.014-.091.029-.138.042-.085.026-.17.049-.253.073-.076.034-.134.071-.149.107h-.105v.142h.283v-.005h.002c.113.086.428-.137.566-.137v-.02l.284-.095c.05.024.314-.027.381-.027.028.028.06.051.102.053h-.008l.091.088c.05 0 .094.07.142.083v.06c.092 0 .073.005.127.059.016.017.015.062.015.083h.013l.118.152.011.132h.019v.142h-.019v.024l-.142.118v.01l-.134.132h-.008l-.021.045-.055.097h-.066c0 .097-.026.077-.089.142h-.052v.032c-.246.164-.306.17-.52.35a.636.636 0 0 0-.159.179c-.032.06-.013.098-.02.155-.009.069-.029.158.04.187.065.027.229-.022.273-.037h-.002c-.021 0 .036-.006.054-.015h-.009c.071 0 .137-.06.206-.06 0-.005.456-.154.874-.269.444-.121 1.041-.248 1.051-.254h-.009c.48-.008.335.035.742.257v.037c.081 0 .09.016.142.067v.075h.076c.085.108.374.23.366.386-.02.39.034.27-.337.408-.143.053-.428.054-.571.093-.3.08-.588.115-.879.197-.343.097-.683.106-.99.193-.322.091-.554.026-.802.123 0-.017-.143.108-.174.108-.036.805.189 2.353.206 3.123.139.367.014.652-.065.993h-.015l-.003.38.003-.007a.108.108 0 0 0-.01.05l.003-.006-.104.294h-.031c0 .11-.006.195-.091.256Zm-5.797-10.513c.273-.045.325.105.481.236.083.071.191.095.253.21.098.184.052.789-.033.892-.109.133-.218.194-.353.318l-.188.315c-.218.364-1.106-.035-1.227-.373.093-.31.334-.481.524-.733.097-.128.101-.299.184-.437.088-.144.256-.298.359-.428ZM42.076 56.836a7.174 7.174 0 0 1 1.37-.001l.313-.883.014.001a8.13 8.13 0 0 1 2.135.571l.013.005-.172.925c.416.19.814.42 1.187.685l.713-.61.011.009c.576.435 1.09.948 1.53 1.52l.012.015h-.638l.019-.022a7.71 7.71 0 0 0-.873-.873l-.705.603-.011-.01a6.826 6.826 0 0 0-1.821-1.053l-.014-.005.17-.912a7.607 7.607 0 0 0-1.193-.319l-.309.875-.014-.002a6.63 6.63 0 0 0-1.052-.082 6.63 6.63 0 0 0-1.052.082l-.015.002-.309-.875c-.405.074-.804.18-1.192.319l.17.912-.014.005a6.823 6.823 0 0 0-1.821 1.054l-.011.009-.705-.603c-.314.267-.606.56-.873.873l.02.022h-.64l.012-.015a8.105 8.105 0 0 1 1.53-1.52l.012-.009.712.609a7.164 7.164 0 0 1 1.187-.685l-.172-.924.013-.005a8.13 8.13 0 0 1 2.136-.57l.014-.002.313.884Z" clip-rule="evenodd"/><path fill="#004B9D" fill-rule="evenodd" d="M42.76 57.743c1.45 0 2.785.493 3.846 1.32h-.396a5.994 5.994 0 0 0-3.45-1.085 5.994 5.994 0 0 0-3.448 1.086h-.396a6.229 6.229 0 0 1 3.845-1.32ZM50.764 60.983c.474.529.784 1.161.772 2.068.242-.189.33-.98.748-1.277.1 1.121-.333 1.922-1.012 2.637-.047-.718-.61-.27-.766-2.033.284.165.293.61.728.853-.503-.906-.454-1.331-.47-2.248Zm-1.344 8.688c.007.099.021.195.03.25a2.54 2.54 0 0 0-.734.326c.365-.472.506-1.191.424-1.705-.597.843-1.426 1.497-1.345 2.42a1.945 1.945 0 0 0-.002.247c-.292.087-.57.217-.837.432-.05.04-.114.12-.126.102-.012-.017.059-.09.102-.144.34-.434.556-1.021.746-1.48-1.268.976-1.603.938-2.268 1.781-.19.24-1.03.413-1.304.467-.065.013-.065.102-.002.097.31-.027.867.01 1.08.092 1.11.425 1.975.2 3.133-.415-.61.052-1.22.016-1.831-.154.1-.033.196-.125.302-.1 1.325.304 2.246-.192 3.154-1.142-.788.2-1.398.272-2.007.425v-.003c.04-.117.222-.204.223-.205.906-.395 1.902-.044 2.837-1.563-.472.294-.959.362-1.44.493 0-.075-.008-.17.044-.264.69-.672 1.566-.381 2.422-2.274-.439.062-.883.435-1.262.718.026-.097.077-.224.14-.337.745-.66 1.472-1.154 1.586-2.213-.236.237-.639.475-.937.647.535-.802 1.048-1.725.94-2.896-.21.964-.803 1.074-1.145 1.809-.193-.564-.41-.876-.718-1.24-.087 1.651.548 1.588.602 2.778l-.239.188c0-.573-.199-1.16-.487-1.639-.04.865-.373 1.9.142 2.635a.726.726 0 0 1 .026.335c-.2.144-.376.254-.516.265.087-.504.087-1.073-.11-1.582-.135.926-.769 1.67-.623 2.85ZM34.757 60.983c-.474.529-.783 1.161-.771 2.068-.242-.189-.33-.98-.749-1.277-.1 1.121.333 1.922 1.012 2.637.047-.718.61-.27.767-2.033-.284.165-.293.61-.728.853.503-.906.453-1.331.47-2.248Zm1.345 8.688a2.623 2.623 0 0 1-.031.25c.253.073.5.168.734.326-.364-.472-.505-1.191-.423-1.705.597.843 1.425 1.497 1.344 2.42.008.057.006.164.002.247.293.087.57.217.838.432.05.04.114.12.126.102.012-.017-.059-.09-.102-.144-.34-.434-.556-1.021-.746-1.48 1.267.976 1.602.938 2.268 1.781.189.24 1.03.413 1.304.467.065.013.065.102.002.097-.31-.027-.868.01-1.08.092-1.11.425-1.975.2-3.133-.415.61.052 1.22.016 1.831-.154-.1-.033-.197-.125-.302-.1-1.325.304-2.246-.192-3.155-1.142.789.2 1.399.272 2.008.425l-.001-.003c-.039-.117-.222-.204-.222-.205-.906-.395-1.902-.044-2.838-1.563.473.294.96.362 1.441.493 0-.075.008-.17-.044-.264-.69-.672-1.567-.381-2.423-2.274.44.062.884.435 1.263.718a1.649 1.649 0 0 0-.14-.337c-.745-.66-1.472-1.154-1.586-2.213.236.237.638.475.937.647-.535-.802-1.048-1.725-.94-2.896.21.964.803 1.074 1.145 1.809.193-.564.41-.876.717-1.24.087 1.651-.547 1.588-.601 2.778l.238.188c0-.573.2-1.16.487-1.639.04.865.374 1.9-.142 2.635a.728.728 0 0 0-.025.335c.199.144.375.254.516.265-.087-.504-.087-1.073.11-1.582.135.926.768 1.67.623 2.85Z" clip-rule="evenodd"/><path fill="#004B9D" fill-rule="evenodd" d="m42.762 72.526.44-.765h-.882l.442.765Zm8.585-13.462-8.585 14.872-8.587-14.873h17.172Zm-8.592 10.581-.407-.705h-1.217l-.22.38.188.325h1.656Zm-.543-.94-.473-.82-.472.82h.945Zm-1.488 0 .407-.706h-.983l.407.706h.169Zm.543-.941.201-.349-.206-.357h-1.088l-.285.493.123.213h1.255Zm-.14-.94-.408-.706h-.002l-.407.705h.816Zm-1.36 0 .407-.706h-1.112l.407.705h.297Zm.542-.941.408-.706h-2.198l.407.706h1.383Zm.41-.706.407.706h1.227l.407-.706H40.72Zm.543.94.477.828.478-.827h-.955Zm1.5-.94.408.706h1.226l.407-.706h-2.04Zm.543.94.478.828.477-.827h-.955Zm1.5-.94.408.706h1.384l.407-.706h-2.198Zm.544.94.407.706h.298l.407-.705H45.35Zm.284 1.435-.284-.494H44.26l-.206.357.202.349h1.255l.122-.212Zm-.42-.729-.407-.705h-.003l-.407.705h.817ZM44.39 68l.408.706h.169l.407-.706h-.983Zm.22 1.322-.22-.381h-1.217l-.407.705h1.658l.187-.324Zm-.355-.617-.473-.819-.473.82h.946Zm-2.245-1.289.201.349h1.098l.201-.349-.206-.357h-1.088l-.206.357Zm.337.584.407.706h.012l.407-.706h-.826Zm.822-1.176-.408-.705h-.002l-.407.705h.817Zm-7.773-7.054h14.73l-1.63 2.822H37.027l-1.63-2.822Zm2.036 3.527H48.09l-.407.706H37.84l-.407-.706Zm5.906 8.23.407-.705h-1.969l.408.705h1.154Zm.543-.94.407-.706h-3.055l.408.706h2.24Zm3.258-5.644h-8.757l-.407-.705h9.571l-.407.705Z" clip-rule="evenodd"/><path fill="#004B9D" fill-rule="evenodd" d="M42.76 48.24c8.705 0 15.762 7.056 15.762 15.76 0 8.705-7.057 15.761-15.761 15.761-8.705 0-15.761-7.056-15.761-15.76 0-8.705 7.056-15.762 15.76-15.762Zm0 .94c-8.184 0-14.82 6.635-14.82 14.82s6.636 14.82 14.82 14.82c8.186 0 14.821-6.635 14.821-14.82s-6.635-14.82-14.82-14.82Z" clip-rule="evenodd"/><path fill="#004B9D" fill-rule="evenodd" d="M45.788 52.776c-.049.165-.097.282-.119.414-.008.053.337-.035.37-.038l.012-.001a.324.324 0 0 1 .014-.004c.062-.015.128-.02.19-.038l.16-.052.028-.012.032-.01c.01-.004.025-.013.026-.025v-.034c.001-.01-.013-.014 0-.02.01-.003-.014-.03.02-.022l.024.011.02.011c.018.011.034.031.049.047a.28.28 0 0 1 .054.075c.01.022.026.08.027.103h-.002l-.002.015a.355.355 0 0 1-.023.06c0 .01-.005.028-.017.033v.002c-.014.013-.021.007-.04.016-.008.029-.091.05-.114.048-.002-.004-.135.022-.254.04-.174.038-.354.064-.454.08l-.01.003-.005-.001a.985.985 0 0 0-.038.006c-.027.005-.085.006-.077.033.017.06.002.124.07.254.021.037.042.182.059.233.02.062.06.18.082.239.019.05.055.123.079.176.016.039.028.081.046.119.05.102.088.161.149.24.02.025.057.073.078.095.022.022.054.05.076.068.051.042.116.073.167.1.091.05.166.083.228.102.03.01.067.017.084.024.044.016.027.026-.065.046-.056.012-.148.045-.276.053-.045.002-.107.003-.16.013-.063.012-.148-.024-.204-.058a.42.42 0 0 1-.154-.13c-.023-.032-.042-.081-.062-.115a1.42 1.42 0 0 1-.152-.308c-.026-.083-.044-.184-.065-.252-.062-.206-.102-.343-.142-.441-.014-.034-.017-.045-.041-.05-.02-.003-.028.02-.034.028-.06.092-.104.202-.169.293-.056.08-.132.142-.202.207a.59.59 0 0 1-.32.173.979.979 0 0 1-.153.004c-.088-.004-.183-.037-.312-.065-.137-.03-.367-.05-.51-.098-.142-.048-.151-.075-.078-.106.166-.003.564.004.719-.02a.81.81 0 0 0 .386-.174c.062-.047.108-.106.164-.173.045-.054.11-.132.132-.203a1.07 1.07 0 0 0 .113-.203c-.038.003-.072-.001-.102.003-.055.008-.097.006-.132.014-.07.015-.107.035-.128.038l-.087.01c-.035.004-.04.021-.075.027-.034.006-.036.008-.062.018-.017.006-.045.008-.052.017-.039.032-.085.02-.117.04a.137.137 0 0 1-.116-.066l-.026-.063a.292.292 0 0 0-.038-.07c.002-.103.088-.14.148-.15l.111-.017c.063.006.144-.024.25-.043.14-.025.309-.024.462-.064l.08-.021.094-.228c.058-.225.258-.755.325-1.066l.058-.371h-.005c.008-.048-.05-.12-.043-.163l.005.007c.002-.01.003-.017-.001-.026l.002.002a.11.11 0 0 1 .044-.068l.034.003h-.002c.088.013.179.054.258.09v.003l.016.012c.005.001.016.022.016.03.016.007.032.022.032.04.014.009.032.029.029.047h.003c.004.028.023.036.02.066.03.03-.035.137-.055.165l-.006-.001a.357.357 0 0 1-.055.143l-.02.052-.004.01c-.083.169-.199.55-.268.768h.003ZM49.7 54.443c.06.036.046.074.055.125.006.028.023.05.016.083a.374.374 0 0 1-.151.172c-.044.008-.075.002-.122.005l-.09.032c-.101.037-.212-.188-.181-.274.069-.047.144-.041.223-.06.04-.01.069-.043.108-.057.04-.014.1-.017.141-.026Zm2.652-.213c-.198.047-.457.088-.56.12-.02.005-.033.051-.028.066.012.034.031.075.03.109-.015.012-.096.002-.128.01-.054.01-.077.004-.142.005-.094.002-.13-.005-.168.028-.025.023.014.202-.022.262-.04.066-.164.048-.176.123.032.034.04.068.024.107.035.013.106-.003.17-.009.043-.004.07.01.098-.015l.017-.016c-.01-.076-.025-.143.018-.221.007-.013.032-.093.1-.12.044-.018.061-.092.1-.099a.241.241 0 0 1 .147.02c.083.075-.005.177.04.274.056.034.323-.08.386-.103l.002-.009c-.103-.083-.23-.158-.222-.263.094-.102.292.037.405.084.085.034.133-.01.2.02.1.04.145.501.02.549-.256-.081-.828.038-1.124.11l-.007.014c.014.023.008.034.003.059.121.099.27.174.406.274.043.032.091.108.14.262.03.095-.09.125-.114.154-.053.035-.102.007-.206.004-.06-.002-.143-.032-.215-.049-.07-.017-.13-.021-.208-.048-.063-.021-.181-.038-.248-.06-.137-.045-.277-.079-.408-.119a.164.164 0 0 1-.055-.01c-.014 0-.03-.01-.04-.019l-.003.003-.043-.02h.002a1.119 1.119 0 0 1-.042-.019l-.062-.026c-.02-.006-.038-.008-.047-.003l-.02-.017-.023.028.056.046v-.001c.01.036.108.043.135.065l.003-.004.072.028c.006.013.067.046.08.057.001.01.004.02.012.027l-.002-.002.004.033c.01.008.007.03.015.04l-.01.011c.018.015.014.013.016.033 0 .005-.008.014-.011.019l.002.002v.049l-.02.028.003.003-.023.028-.003-.003-.004.005h-.048l-.002.002-.047.005-.002-.002-.012.005-.026.01-.013-.01c-.016.02-.018.011-.041.014l-.01-.009-.006.007c-.075-.008-.088-.017-.16-.016a.171.171 0 0 0-.06.01c-.017.007-.019.017-.03.027-.013.012-.031.027-.022.044.008.016.049.033.06.037-.004-.004.008.004.013.006l-.002-.002c.014.011.037.01.05.022.001-.001.116.044.217.089.108.048.248.12.25.121l-.002-.002c.097.077.061.062.105.173l-.005.007c.016.013.015.018.017.036l-.013.015.016.012c-.001.036.036.107.01.137-.068.074-.038.059-.134.025-.037-.012-.094-.058-.128-.074-.073-.033-.136-.073-.207-.104-.084-.037-.152-.09-.228-.124-.078-.034-.114-.085-.179-.106.003-.004-.046-.002-.052-.007-.138.154-.346.497-.468.653-.032.095-.104.13-.175.186l-.003-.002-.062.074h.001a.027.027 0 0 0-.01.008l.002-.001-.069.04-.006-.004c-.02.024-.044.047-.057.035-.038-.036-.151-.141-.267-.244l.001-.003-.02-.059.006-.007-.015-.012c-.001-.011-.025-.053-.018-.062l-.002-.001a.213.213 0 0 0-.032-.072l-.018-.032s-.038-.046-.04-.064c-.006-.07-.03-.279-.082-.322a.029.029 0 0 0-.01-.023l-.015-.07.012-.02-.019-.021.003-.012c.03-.005.08.057.157.138.048.051.1.083.151.14.04.043.063.1.096.14.023.029.042.053.061.068.013.01.03.014.036.019l.017-.023c.079-.1.173-.257.237-.34.056-.072.142-.176.22-.26-.075-.061-.592-.268-.617-.257l.008-.004c-.066-.054-.237-.09-.246-.197-.004.002-.002-.01-.005-.013l.003-.004c-.022-.018-.025-.044-.04-.066l.007-.009c-.017-.015-.053-.106-.038-.125l-.007-.048.002-.004-.01-.021c-.007.008-.001-.022.005-.03l-.006-.005c0-.01 0-.015-.005-.024.011-.009.036-.06.055-.055.047-.057.135.055.176.055.192.095.171.128.332.21.18.09.411.217.44.24l.013.007c.036.03.16.06.234.061.09.002.133-.057.18-.091l.034-.003a.13.13 0 0 0 .07-.036l.058-.048c-.052-.043-.075-.096-.123-.137l-.026-.026.003-.004c-.057-.047-.106-.07-.119-.142l.002-.002-.003-.002.016-.046c.014.003.056-.001.067-.01.016.008.078.019.094.017.011-.001.023.015.031.02l.012-.013c.03.025.175.014.212.01l.009.007.006-.006c.023.007.045.007.065.018h.014l.002-.003.01.001c.023-.002.047-.004.071-.004.026 0 .053.01.076.015.324.076.665.106.963.114l.008-.01-.001-.005c-.208-.181-.566-.252-.827-.343-.171-.059-.383-.136-.53-.188a.16.16 0 0 1-.075-.041.037.037 0 0 0-.012-.005.03.03 0 0 0-.017-.007l-.006-.002a.054.054 0 0 0-.014-.007l-.008-.003-.01-.007-.067-.056-.005.006c-.01-.008-.018-.016-.029-.022l-.035-.029-.005-.006a.037.037 0 0 0-.013-.02l-.127-.104a.026.026 0 0 0-.006-.009.03.03 0 0 0-.006-.01.063.063 0 0 0-.01-.018.029.029 0 0 0-.01-.019l.007.005a.05.05 0 0 0-.002-.01l.005-.006.032-.04a.029.029 0 0 0 .006-.01.025.025 0 0 0 .004-.009l.017-.02-.01.001a.03.03 0 0 0 .016-.006l.006-.003c.005-.006.02-.006.027-.006h.012a.081.081 0 0 0 .017.003l.026.022.01-.014H50a.032.032 0 0 0 .012.003.054.054 0 0 0 .012.005.03.03 0 0 0 .01.006c.006.005.013.011.02.014l.005.004.03.024.007-.008a.05.05 0 0 0 .008.003.103.103 0 0 0 .024.009.03.03 0 0 0 .014.003.033.033 0 0 0 .013.003c.007.002.01.004.015.009l.003-.004h.008a.034.034 0 0 0 .01.003l.015.003.012.004c.004.002.01.003.014.003l.01.002.01.007v-.001l.01.001a.03.03 0 0 0 .01.003l.01.004c.007.001.014.006.022.006a.029.029 0 0 0 .008.003l.058.011c.241.037.51.29.684-.042-.005-.023.011-.107-.024-.117-.051.002-.134.015-.185.017-.05-.002-.157.01-.232-.01a.367.367 0 0 1-.077-.027v-.005c.02-.025.043-.055.07-.073.115-.077.28-.087.405-.12-.008-.04-.023-.09-.026-.143-.006-.1-.073-.028-.126-.04-.053-.013.02.015 0 .076-.018.062-.17.07-.211.08-.041.011-.078-.013-.113.022-.073.072-.141.253-.274.17-.024-.016-.174-.21-.148-.226a.685.685 0 0 1 .078-.118.837.837 0 0 0 .156-.279c.01-.04-.002-.078-.008-.107-.004-.017.014-.022.023-.024a.43.43 0 0 1 .15.272c.05.106.2-.187.264-.236.052-.04.111.011.125.041.013.03 0 .147-.035.188-.034.042.052.062.052.062l.087-.113s.017-.068-.03-.12c-.032-.035-.054-.157-.037-.209.022-.067.112.04.13.037.06.005.103.026.162.055.042.022.061.04.099.064.084.051.004.239.101.245.238-.074.499-.143.736-.232l.025-.01c.021-.004.082-.01.09-.023a.027.027 0 0 0 .01-.005.088.088 0 0 0 .019-.012c.025-.014.05-.018.075-.037a.075.075 0 0 0 .012-.007.045.045 0 0 0 .017-.012c.027-.019.083-.06.082-.092 0-.01.004-.012.008-.02.034-.055.026-.018.038-.072.003-.004.008-.01.01-.015l.007-.013a.02.02 0 0 0 .005.002c.043.028.016 0 .05.023a.032.032 0 0 0 .008.008.448.448 0 0 0 .077.076c.002.006.006.01.01.013.02.015.008.005.02.026a.11.11 0 0 0 .03.032l.01.01a.04.04 0 0 0 .006.008l.004.005a.044.044 0 0 0 .01.02.029.029 0 0 0 .007.011.03.03 0 0 0 .01.015c.003.006.007.011.011.015a.036.036 0 0 0 .006.007.034.034 0 0 0 .008.008l.003.003.002.006a.057.057 0 0 0 .007.02l.002.01.008.019c0 .006.002.014.005.02.002.01.006.007.003.017a.035.035 0 0 0-.001.013l.002.02v.02a.03.03 0 0 0 0 .012v.013a.03.03 0 0 0-.002.012.033.033 0 0 0 0 .021c0 .005-.002.01-.001.018a.03.03 0 0 0 0 .014v.01c-.002.005-.004.01-.004.016a.042.042 0 0 0-.002.01l-.019.03c-.006.003-.01.008-.015.014-.002.005-.006.006-.009.01-.006.004-.014.02-.026.027-.007.004-.014.013-.022.014-.005.002-.01.002-.015.005-.002 0-.004 0-.005.002-.02 0-.066.002-.084.012-.005 0-.016 0-.02.002-.011 0-.01-.002-.02.004-.003 0-.01 0-.014.002a.032.032 0 0 0-.015 0h-.013a.434.434 0 0 0-.153-.001l-.018-.003h-.009a.021.021 0 0 0-.01-.002h-.033ZM40.744 53.8c.084-.016.153-.058.223-.1.044-.025.09-.054.138-.063.159-.031.267.113.207.27l-.12.308c-.013.036-.023.074-.038.121.046.017.085.033.125.046.041.012.084.021.125.033.121.033.146.056.15.136a.236.236 0 0 1-.154.216.258.258 0 0 1-.263-.053l-.133-.112c-.095.111-.186.214-.273.32a.265.265 0 0 1-.336.054l-.019-.014c-.134-.1-.13-.134.012-.222.1-.062.197-.129.292-.199.037-.026.064-.066.096-.1-.019-.047-.038-.086-.051-.126-.025-.075-.004-.103.073-.105h.135l.06-.225c-.057-.047-.108-.052-.163-.026-.025.012-.053.03-.077.026-.11-.021-.145.055-.198.127a5.06 5.06 0 0 0-.41.687c-.051.1-.113.196-.175.292-.02.031-.052.056-.082.081-.04.033-.081.03-.115-.007-.045-.05-.091-.099-.127-.154a.18.18 0 0 1-.013-.17.857.857 0 0 1 .226-.338c.187-.163.329-.357.438-.578.026-.052.063-.1.1-.157-.022-.033-.045-.068-.07-.103-.018-.025-.042-.047-.057-.074-.044-.083-.009-.158.082-.175.054-.01.11-.01.164-.019a.258.258 0 0 0 .218-.205c.01-.04.006-.07-.033-.089-.035-.016-.056.004-.08.03-.13.14-.234.153-.39.05l.076-.181c-.085-.063-.087-.064-.147-.004-.043.043-.085.069-.152.03.007-.041.015-.082.019-.124.004-.042.005-.084.006-.124-.06-.018-.08.021-.104.05a.239.239 0 0 0-.041.071c-.12.344-.329.643-.497.962-.12.23-.24.46-.356.691-.091.183-.174.37-.268.55-.08.153-.17.3-.258.449a.344.344 0 0 1-.042.056c-.104.114-.151.105-.212-.04a.24.24 0 0 0-.034-.061c-.08-.094-.069-.196-.027-.3.04-.101.09-.2.123-.305.018-.053.066-.027.09-.055.06-.072.133-.137.181-.216.415-.685.826-1.374 1.24-2.06a.252.252 0 0 0 .046-.153c-.005-.083.06-.14.12-.177a.332.332 0 0 0 .103-.107c.082-.125.166-.248.246-.373.016-.024.022-.053.043-.106-.08.03-.133.05-.186.073-.154.066-.309.134-.463.202-.039.018-.076.041-.114.062-.162.088-.33.122-.508.048-.11-.046-.143-.098-.137-.2.212-.053.428-.094.634-.163.206-.07.413-.14.619-.264-.14-.09-.262-.17-.387-.248-.061-.038-.1-.087-.102-.16-.001-.06.031-.09.089-.075.138.038.279.036.42.04a.652.652 0 0 1 .248.064c.108.05.127.115.085.248.04-.013.072-.02.1-.034.095-.045.187-.099.284-.14.153-.064.206-.015.25.099.008.022.02.043.028.065.042.118-.006.213-.126.247-.112.032-.226.059-.338.094a.216.216 0 0 0-.106.065c-.168.227-.331.458-.495.688-.01.012-.014.028-.021.045.016.022.03.046.048.065.056.055.085.051.129-.013.028-.042.056-.085.09-.124.125-.149.233-.305.24-.51.074-.045.142-.02.203.015.023.014.042.06.038.088-.011.08-.035.159-.055.24.08.057.09.06.152-.001a.71.71 0 0 0 .127-.154c.026-.047.06-.057.104-.054.084.005.156.067.188.157.03.085-.004.145-.07.194-.063.046-.122.1-.19.137-.138.076-.222.197-.305.322-.008.012-.01.029-.017.046.048.046.091.042.132-.003.036-.041.066-.089.107-.126a.382.382 0 0 1 .124-.083c.07-.024.116.009.145.08a.593.593 0 0 0 .065.12c.046.065.045.12-.017.176-.047.042-.1.076-.15.115-.075.061-.08.077-.05.17.03.094.015.135-.072.184-.075.043-.154.079-.23.12a.289.289 0 0 0-.152.226Zm-.164-1.042c.046-.083.09-.152.124-.227.01-.021 0-.067-.018-.081-.014-.012-.06-.002-.08.012-.078.054-.109.14-.15.228l.124.068Zm-.477.688-.034.126c.03.075.078.14.072.2a.379.379 0 0 1-.103.191c-.088.099-.206.118-.383-.023.053-.229.182-.376.448-.494ZM34.208 52.576c.012 0 .008-.011.059-.003.04.02.042.017.084.028s.118.067.19.117c.072.05.172.179.2.29a.767.767 0 0 1-.005.346c-.006.024-.042.113-.069.226-.03.132-.053.297-.098.475-.022.086-.061.188-.081.268-.023.09-.034.178-.052.246-.021.08-.046.14-.056.169-.05.155-.115.366-.155.394 0 0 .015-.277.024-.485.005-.09.008-.167.008-.203-.003-.106.02-.217.022-.321.004-.283-.003-.558-.005-.862a1.338 1.338 0 0 0-.033-.32c-.022-.107-.084-.325-.033-.365Zm1.576 3.25.111.117.009.005c.041.065.08.143.105.202.013.032.032.052.045.066.017.02.04.01.09-.01.027-.01.05.003.075 0a.082.082 0 0 1 .065.02c.014.012.055.044.067.078.014.042.015.088.02.115.01.05.007.084.007.084a.67.67 0 0 0 .009.156c.014.08.012.14.012.14.032.011.05-.01.073-.031.059-.057.106-.175.106-.175.033-.109.078-.113.11-.136.03-.023.15-.001.213.05.07.057.07.153.046.186-.063.09-.124.156-.189.245-.047.065-.098.153-.144.22-.004.014-.078.074-.096.163-.016.077-.142.139-.181.13-.072-.015-.26-.063-.286-.141-.022-.064-.053-.171-.06-.188-.01-.022-.003-.205-.052-.309-.032-.07-.058-.11-.074-.156-.01-.03-.02-.037-.044-.045l-.092.007c-.031.002-.067.032-.1.03-.02-.002-.073 0-.09-.005-.02-.007-.027-.03-.005-.068.006-.011.011-.045.022-.058l.03-.034.023-.024c.05-.052.122-.087.122-.087l-.006-.015c-.01-.02-.014-.034-.035-.057-.017-.017-.054-.044-.085-.08a1.842 1.842 0 0 1-.145-.264l-.057-.083-.026.029c-.02.034-.019.089-.055.116.005.007-.044.067-.033.083l-.011.038-.005.004c.009.018-.004.027 0 .045-.012.008-.096.306-.107.29a.041.041 0 0 0-.001.012c-.036.03-.07.036-.115.048-.01-.014-.047.01-.062.016l-.026-.013h-.002c-.101-.07-.126-.183-.115-.294a.544.544 0 0 0 .013-.1c.008-.024-.018-.03-.004-.087a.172.172 0 0 0 .01-.098l-.001-.02a.134.134 0 0 0-.001-.09c.002-.011 0-.02.008-.03-.002-.006.016-.087.018-.103.004-.03.013-.074.02-.104.008-.006.016-.088.018-.103l.004-.184v-.008l.014-.047c-.012-.019.018-.105.017-.106l.015-.11.007-.037c-.006-.011-.005-.022-.01-.034-.006-.01-.019-.022-.024-.033l-.03.021c.01.015-.025.062-.04.073a.684.684 0 0 1-.081.146.391.391 0 0 1-.05.124c.004.006-.082.143-.069.163-.004.02-.056.114-.055.116-.02.016-.056.115-.048.127-.006.011-.006.035-.016.042v.001c-.008.017-.041.07-.034.08-.007.012-.005.035-.016.043v.001c-.013.046-.04.073-.046.122l-.003.002.002.003-.011.03c-.007.037-.03.093-.042.138l-.003.014a.356.356 0 0 0-.019.103c-.006.012-.003.036-.015.044l.001.002c-.015.083-.095.219-.106.281-.008.047-.152.158-.197.164a.52.52 0 0 0-.081.013c-.002-.002-.097.03-.114.032 0 0-.2.06-.227.063-.004-.005-.078.025-.087-.02l-.023-.106c.014-.02.014-.135.033-.148v-.002c.004-.019.046-.129.044-.13.006-.013.046-.067.043-.07l.013-.017c.06-.054.523-.844.523-.844.05-.063.087-.196.15-.24v-.003c.008-.019.11-.167.11-.168.01-.024.109-.168.108-.17.011-.014.075-.088.07-.094.045-.03.049-.114.085-.14.01-.023.018-.057.04-.072v-.002c.009-.014.018-.033.008-.048l.002-.002-.13-.189c.006-.012.05-.122.05-.124.005-.018.158-.278.165-.283-.02-.003.031-.012.045-.029l.03.017c.006.012.02.016.026.027.007-.005.03.033.036.04l.001-.009c-.002.01.077.133.09.153l.023-.032c.033-.01.211-.169.199-.187.075-.051.058-.04.134-.049l.043.03c.108.058.014.165.024.18-.008.024-.01.083-.026.094a.43.43 0 0 1-.028.155l.003.004-.09.162a.61.61 0 0 1-.03.156c.004.005.032.216.08.286l.04.066.054-.118c.043-.03.041-.156.087-.187-.01-.013.13-.116.125-.117.102-.04.258-.06.33.045.002-.014.048.084.017.105.009.012 0 .026-.002.047v.239c-.001 0 0 .039.003.043a.78.78 0 0 0-.017.155l-.002.047c-.008.005-.001.108-.002.133-.019.046-.02.073-.04.11-.019.032-.057.062-.089.102-.044.077-.065.082-.133.128Zm.005-.637c-.008.08.01.112-.014.175.012.018-.032.112-.045.133v.002l-.059.043-.11-.16c.005-.005.003-.028.026-.062v.002l.056-.148.036-.057.025-.05.031-.022.04.019c-.004.037.009.08.014.125Zm-.732.83c-.03-.06-.01-.214-.012-.271-.002-.042.024-.129.028-.156.004-.023.034-.148.028-.155l.014-.017.017-.004.021.026.064.097c.017.039.055.07.011.145-.006.016-.003.04-.028.092a.757.757 0 0 0-.04.081c-.012.03-.02.061-.036.09a.375.375 0 0 1-.048.074c-.011.007-.014.007-.019-.002ZM37.478 62.154v-.215c.122-.002.205-.018.249-.048.044-.03.066-.086.066-.166v-.937c0-.086-.019-.142-.055-.168-.036-.027-.123-.041-.26-.044v-.202c.124-.002.234-.011.33-.028.097-.017.182-.107.258-.14h.24v1.52c0 .08.022.135.067.165.046.03.132.046.26.048v.215h-1.155ZM41.287 61.34a1.002 1.002 0 0 1-.538.151.842.842 0 0 1-.544-.169.535.535 0 0 1-.211-.437c0-.194.082-.351.248-.471.165-.12.382-.18.65-.18.295 0 .522.079.682.239.161.16.241.386.241.681 0 .316-.088.563-.265.738-.178.175-.426.262-.745.262a1.09 1.09 0 0 1-.511-.105c-.134-.07-.2-.156-.2-.257 0-.063.021-.113.065-.15a.26.26 0 0 1 .175-.056c.114 0 .196.07.242.209l.014.038a.125.125 0 0 0 .058.078c.027.014.072.02.135.02a.46.46 0 0 0 .37-.157c.09-.105.134-.25.134-.435Zm-.027-.473a.39.39 0 0 0-.092-.277.338.338 0 0 0-.26-.099.366.366 0 0 0-.272.097c-.064.065-.097.156-.097.273a.38.38 0 0 0 .093.27.33.33 0 0 0 .253.1c.123 0 .216-.031.28-.093.063-.062.095-.153.095-.271ZM47.761 61.34a1 1 0 0 1-.539.151.842.842 0 0 1-.544-.169.534.534 0 0 1-.21-.437c0-.194.082-.351.247-.471.166-.12.382-.18.65-.18.295 0 .523.079.683.239.16.16.24.386.24.681 0 .316-.088.563-.265.738-.177.175-.425.262-.745.262a1.09 1.09 0 0 1-.51-.105c-.134-.07-.2-.156-.2-.257 0-.063.02-.113.065-.15a.261.261 0 0 1 .175-.056c.114 0 .195.07.242.209l.014.038a.125.125 0 0 0 .058.078c.027.014.072.02.135.02a.46.46 0 0 0 .37-.157c.089-.105.134-.25.134-.435Zm-.027-.473a.39.39 0 0 0-.092-.277.338.338 0 0 0-.26-.099.367.367 0 0 0-.272.097.37.37 0 0 0-.097.273.38.38 0 0 0 .093.27.331.331 0 0 0 .253.1c.123 0 .216-.031.28-.093.063-.062.095-.153.095-.271ZM43.175 62.154c.153-.622.368-.688.91-.903.267-.107.349-.31.349-.473 0-.098-.06-.174-.119-.228a.35.35 0 0 0-.246-.08.432.432 0 0 0-.215.05c-.06.035-.09.073-.09.115a.32.32 0 0 0 .038.075c.026.043.04.087.04.132a.178.178 0 0 1-.073.15.311.311 0 0 1-.195.056.249.249 0 0 1-.188-.072.268.268 0 0 1-.068-.193c0-.398.52-.578.834-.578.257 0 .496.065.65.17.3.206.31.732-.023.92-.272.154-1.043.15-1.054.414-.003.063.02.14.173.135.136-.006.724-.009.824-.086.062-.048.105-.13.153-.232h.19l.042.628h-1.931ZM53.048 59.409a.54.54 0 0 0 .046.08.404.404 0 0 0 .174.135c.043.019.09.035.139.049a35.025 35.025 0 0 0 .725.179c.09.022.158.032.202.029a.928.928 0 0 0 .212-.054l.264-.09a.194.194 0 0 0 .077-.046.138.138 0 0 0 .034-.087.627.627 0 0 0-.008-.102.955.955 0 0 0-.018-.111l.102-.035.355 1.03-.102.034a3.647 3.647 0 0 0-.047-.101.463.463 0 0 0-.051-.09.134.134 0 0 0-.079-.046.199.199 0 0 0-.09.011l-.329.112a2.3 2.3 0 0 0-.075.028.213.213 0 0 0-.052.027.484.484 0 0 0-.053.054 24.026 24.026 0 0 0-.586.682.513.513 0 0 0-.125.246.318.318 0 0 0 0 .095c.004.036.01.068.018.096l-.102.035-.367-1.062.103-.034c.036.096.065.16.088.19.023.03.044.042.063.035a.22.22 0 0 0 .051-.039 8.29 8.29 0 0 0 .3-.323c.081-.09.174-.2.28-.326-.32-.075-.543-.126-.67-.152-.125-.026-.2-.035-.224-.027-.03.01-.046.036-.05.078a.6.6 0 0 0 .032.187l-.102.035-.237-.687.102-.035ZM46.055 74.82a1.345 1.345 0 0 0-.111.04.328.328 0 0 0-.116.074c-.03.03-.047.075-.05.136-.002.061.008.151.03.268l.141.714a.657.657 0 0 1-.115.549c-.119.156-.297.257-.533.303-.275.053-.5.033-.675-.061-.176-.094-.285-.252-.328-.473l-.193-.982a.172.172 0 0 0-.034-.078.17.17 0 0 0-.082-.047.369.369 0 0 0-.093-.011l-.087.001-.02-.105 1.009-.196.02.105a.867.867 0 0 0-.173.067c-.033.018-.052.04-.06.068a.207.207 0 0 0 0 .09l.19.968c.037.19.107.32.209.39.101.07.233.09.394.059a.496.496 0 0 0 .345-.216c.07-.113.088-.263.052-.449l-.128-.65a1.07 1.07 0 0 0-.075-.255.234.234 0 0 0-.097-.11.364.364 0 0 0-.134-.03 1.238 1.238 0 0 0-.129-.005l-.02-.109.841-.163.022.108Zm2.483-1.093a2.465 2.465 0 0 0-.094.06.286.286 0 0 0-.095.103c-.02.037-.025.086-.012.147.012.06.043.144.093.25l.591 1.272-.227.105-1.745-.864.388.834c.048.103.092.179.13.226a.24.24 0 0 0 .123.087.357.357 0 0 0 .131 0c.056-.01.1-.018.132-.026l.045.097-.77.356-.046-.098a.851.851 0 0 0 .104-.07.322.322 0 0 0 .085-.093.207.207 0 0 0 .017-.141 1.288 1.288 0 0 0-.097-.255l-.392-.843a.397.397 0 0 0-.075-.11.265.265 0 0 0-.105-.067.351.351 0 0 0-.132-.021.644.644 0 0 0-.147.02l-.045-.097.674-.31 1.529.756-.314-.674a1.09 1.09 0 0 0-.133-.23.237.237 0 0 0-.123-.084.35.35 0 0 0-.132 0 1.254 1.254 0 0 0-.129.025l-.044-.095.77-.355.045.095Zm2.244.714-.897.613-.061-.089.086-.069a.36.36 0 0 0 .073-.07c.02-.03.029-.058.026-.084a.177.177 0 0 0-.033-.081l-.79-1.145a.182.182 0 0 0-.063-.058c-.023-.013-.053-.016-.09-.008a1.078 1.078 0 0 0-.2.078l-.062-.088.897-.613.06.088c-.02.018-.047.04-.078.069a.584.584 0 0 0-.074.076c-.023.03-.032.059-.028.087a.203.203 0 0 0 .035.08l.79 1.144c.018.027.04.047.063.06a.138.138 0 0 0 .091.007 1.032 1.032 0 0 0 .194-.085l.061.088Zm.835-3.342a.397.397 0 0 0-.084.16.331.331 0 0 0 .017.24c.024.065.061.16.11.282l.168.42.187.462.197.479-.198.195a701 701 0 0 0-.96-.41 61.96 61.96 0 0 0-.681-.286.479.479 0 0 0-.118-.031.377.377 0 0 0-.119.014.399.399 0 0 0-.085.033.714.714 0 0 0-.081.053l-.076-.076.76-.744.073.074a1.038 1.038 0 0 0-.117.168c-.016.034-.017.059-.002.073a.134.134 0 0 0 .026.02l.043.023c.078.037.21.094.395.17.185.077.465.196.839.357l-.244-.576-.18-.414a2.02 2.02 0 0 0-.075-.158.456.456 0 0 0-.065-.098c-.021-.02-.054-.023-.098-.008a.785.785 0 0 0-.2.136l-.078-.079.568-.557.078.078Zm1.372-1.475-.057.091a.747.747 0 0 0-.266 0 .378.378 0 0 0-.219.094.64.64 0 0 0-.07.092 4.474 4.474 0 0 0-.066.103l-.15.243.65.395.106-.172a.503.503 0 0 0 .057-.127.263.263 0 0 0 0-.133.35.35 0 0 0-.062-.113.717.717 0 0 0-.098-.109l.057-.092.7.427-.057.092a.735.735 0 0 0-.284-.049.232.232 0 0 0-.115.057.49.49 0 0 0-.092.112l-.106.172.484.295c.051.031.093.052.128.062.034.011.065.011.094 0a.198.198 0 0 0 .079-.063c.026-.03.057-.076.093-.135l.06-.1a1.006 1.006 0 0 0 .095-.209.157.157 0 0 0 .005-.084 1.122 1.122 0 0 0-.1-.236 1.455 1.455 0 0 0-.12-.202l.053-.087.504.351-.967 1.568-.092-.056.046-.096c.018-.04.029-.07.032-.09.006-.038.003-.067-.01-.09a.185.185 0 0 0-.065-.06l-1.184-.722a.201.201 0 0 0-.078-.03c-.024-.002-.054.009-.089.032a.495.495 0 0 0-.08.07l-.067.075-.092-.056.914-1.482.429.262Zm.777-1.762c-.123-.048-.226-.048-.31-.002a.481.481 0 0 0-.2.26l-.04.102.77.3.04-.1c.049-.126.054-.237.015-.332-.039-.096-.13-.172-.275-.228Zm1.707-.345-.275.7a8.642 8.642 0 0 0-1.061.28l-.029.071.556.216c.031.012.06.017.086.013a.141.141 0 0 0 .08-.045.925.925 0 0 0 .102-.152l.1.039-.382.974-.101-.04.028-.102a.403.403 0 0 0 .016-.094c0-.038-.01-.067-.026-.087a.187.187 0 0 0-.074-.047L53.2 68.74a.201.201 0 0 0-.083-.016c-.025.002-.052.018-.081.047a.616.616 0 0 0-.067.087l-.052.082-.1-.04.402-1.024c.09-.229.195-.388.313-.48a.384.384 0 0 1 .397-.05c.128.05.218.127.267.23.05.104.066.24.051.406a66.128 66.128 0 0 0 .745-.225c.044-.014.099-.034.166-.06a.337.337 0 0 0 .137-.088 1.102 1.102 0 0 0 .078-.13l.1.038Zm.27-1.163a1.26 1.26 0 0 1-.231.572l.083.108-.016.117-.706-.079.016-.117c.07-.018.146-.042.225-.073.08-.03.152-.069.218-.115a.725.725 0 0 0 .175-.166.49.49 0 0 0 .091-.234c.017-.123 0-.223-.051-.297a.302.302 0 0 0-.217-.13.252.252 0 0 0-.202.058.715.715 0 0 0-.17.242l-.098.202a3.65 3.65 0 0 1-.09.172.605.605 0 0 1-.265.26.59.59 0 0 1-.339.05.514.514 0 0 1-.213-.078.582.582 0 0 1-.169-.17.702.702 0 0 1-.096-.248.918.918 0 0 1-.008-.314.981.981 0 0 1 .088-.296c.042-.09.083-.16.12-.209l-.07-.095.016-.117.666.079-.017.117c-.075.018-.152.04-.232.067a.948.948 0 0 0-.202.091.536.536 0 0 0-.149.138.43.43 0 0 0-.075.198.35.35 0 0 0 .05.252.27.27 0 0 0 .195.122.25.25 0 0 0 .203-.055.717.717 0 0 0 .165-.236l.097-.197c.033-.067.064-.127.092-.178a.685.685 0 0 1 .255-.274.546.546 0 0 1 .35-.057.574.574 0 0 1 .412.278c.048.08.081.17.099.27.018.101.018.215 0 .342Zm.132-2.422-.03 1.082-.108-.003a60.332 60.332 0 0 0-.006-.11.365.365 0 0 0-.014-.1.133.133 0 0 0-.053-.07.18.18 0 0 0-.086-.021l-1.395-.038a.185.185 0 0 0-.084.015c-.024.011-.044.034-.06.069a1.07 1.07 0 0 0-.054.207l-.109-.003.03-1.082.108.003.01.104c.003.04.01.076.018.104.011.036.029.06.054.073.025.013.054.02.086.02l1.395.039a.183.183 0 0 0 .085-.016.137.137 0 0 0 .06-.07 1.017 1.017 0 0 0 .044-.206l.109.003Zm-1.62-2.228.014.107a1.18 1.18 0 0 0-.25.169c-.087.074-.131.138-.132.192a1.893 1.893 0 0 0 .014.22l.008.064 1.531-.19a.207.207 0 0 0 .085-.028c.024-.015.041-.041.051-.077a1.501 1.501 0 0 0 .018-.215l.107-.014.136 1.08-.107.013-.026-.11a.422.422 0 0 0-.03-.095c-.02-.033-.043-.055-.069-.064a.209.209 0 0 0-.09-.006l-1.545.191.008.065a1.738 1.738 0 0 0 .04.217c.015.051.074.103.176.153.103.051.197.085.284.103l.014.107-.559.069-.236-1.881.558-.07ZM30.204 60.128a1.14 1.14 0 0 1 .195-.36.923.923 0 0 1 .673-.346c.139-.008.28.011.426.06.145.049.271.119.377.21a.968.968 0 0 1 .346.709 1.15 1.15 0 0 1-.354.88l.045.105-.038.112-.685-.217.04-.115c.23.005.41-.023.538-.081a.468.468 0 0 0 .26-.286.43.43 0 0 0-.091-.446c-.117-.134-.307-.245-.57-.334a1.53 1.53 0 0 0-.395-.084.83.83 0 0 0-.292.03.494.494 0 0 0-.208.13.58.58 0 0 0-.124.212.58.58 0 0 0-.01.36.972.972 0 0 0 .215.362l-.107.09a1.187 1.187 0 0 1-.163-.198.805.805 0 0 1-.101-.219.907.907 0 0 1 .023-.574Zm-.033 6.083c.089.031.187.049.296.054a2.25 2.25 0 0 0 .69-.082 1.06 1.06 0 0 0 .275-.117c.08-.05.14-.11.182-.181a.383.383 0 0 0 .046-.252c-.02-.165-.116-.281-.284-.348-.169-.066-.397-.081-.685-.045a2.073 2.073 0 0 0-.343.07 1.046 1.046 0 0 0-.273.124.518.518 0 0 0-.172.18.39.39 0 0 0-.039.242c.011.09.044.165.098.224a.489.489 0 0 0 .209.131Zm1.443.178a.98.98 0 0 1-.707.404c-.142.018-.28.011-.415-.02a.958.958 0 0 1-.625-.468 1.17 1.17 0 0 1-.137-.442 1.157 1.157 0 0 1 .02-.41c.031-.132.085-.25.162-.358a.96.96 0 0 1 .29-.265c.118-.071.253-.116.407-.135.159-.02.308-.011.444.027a.976.976 0 0 1 .614.491c.065.123.107.257.125.403.019.145.012.284-.02.417a1.023 1.023 0 0 1-.158.356Zm1.06 2.696a2.796 2.796 0 0 0-.056-.096.284.284 0 0 0-.098-.102c-.035-.022-.084-.029-.146-.02a1.263 1.263 0 0 0-.257.077l-1.312.51-.091-.231.973-1.68-.86.335a1.13 1.13 0 0 0-.236.115.24.24 0 0 0-.095.117.346.346 0 0 0-.007.13c.005.056.011.1.018.132l-.1.04-.31-.787.1-.04a.849.849 0 0 0 .064.108c.027.04.057.07.089.09a.21.21 0 0 0 .14.025c.055-.007.142-.034.262-.08l.87-.339a.401.401 0 0 0 .114-.067.265.265 0 0 0 .075-.1.35.35 0 0 0 .029-.13.629.629 0 0 0-.013-.147l.1-.04.272.688-.853 1.472.696-.271c.111-.043.19-.083.239-.118a.237.237 0 0 0 .092-.117.347.347 0 0 0 .008-.13 1.25 1.25 0 0 0-.017-.13l.097-.039.31.787-.098.038Zm.457 2.7a.516.516 0 0 0-.113-.117c-.03-.025-.06-.035-.09-.03a.222.222 0 0 0-.084.031l-.193.123a3.45 3.45 0 0 0-.179.12 1.672 1.672 0 0 1-.353-.259 1.912 1.912 0 0 1-.33-.378 1.195 1.195 0 0 1-.161-.37.901.901 0 0 1 .138-.738 1.12 1.12 0 0 1 .326-.304c.13-.082.263-.136.4-.164a.956.956 0 0 1 .772.177 1.274 1.274 0 0 1 .491.864l.11.031.065.1-.6.395-.065-.102c.144-.175.234-.332.27-.47a.481.481 0 0 0-.067-.395.458.458 0 0 0-.418-.22c-.183.003-.39.077-.62.223-.244.156-.409.316-.496.483-.087.168-.084.324.01.47a.602.602 0 0 0 .148.162c.054.04.105.066.15.078l.337-.214a.176.176 0 0 0 .06-.06.147.147 0 0 0 .012-.092.483.483 0 0 0-.03-.104 1.519 1.519 0 0 0-.04-.097l.09-.058.551.857-.09.058Zm1.08 1.699c.088-.033.176-.08.263-.145a2.14 2.14 0 0 0 .27-.241c.08-.082.15-.168.213-.257.064-.089.11-.177.14-.265a.54.54 0 0 0 .026-.254.384.384 0 0 0-.124-.224c-.121-.115-.268-.146-.442-.09-.172.054-.36.186-.56.395a2.05 2.05 0 0 0-.221.271c-.062.092-.107.181-.134.268a.515.515 0 0 0-.018.247.39.39 0 0 0 .123.212c.066.063.139.1.218.112.08.012.162.002.246-.03Zm1.233-.771a.974.974 0 0 1-.292.758c-.158.164-.338.27-.54.315a.954.954 0 0 1-.608-.064.463.463 0 0 0-.126.274c-.01.103.017.183.08.243a.928.928 0 0 0 .203.15l-.084.087a1.506 1.506 0 0 1-.216-.114 1.548 1.548 0 0 1-.26-.2.54.54 0 0 1-.18-.364.558.558 0 0 1 .146-.395 1.126 1.126 0 0 1-.197-.32.964.964 0 0 1-.002-.716c.048-.12.12-.232.22-.335.11-.116.231-.202.361-.258a.983.983 0 0 1 .788-.006c.13.054.247.132.354.234.106.1.19.213.25.336.06.123.093.248.103.375ZM36 75.22l-.916-.584.058-.09.097.052a.36.36 0 0 0 .093.04.134.134 0 0 0 .089-.009.179.179 0 0 0 .062-.063l.754-1.168a.184.184 0 0 0 .03-.08c.002-.026-.007-.056-.029-.087a1.038 1.038 0 0 0-.15-.153l.058-.09.916.584-.058.09a4.732 4.732 0 0 0-.094-.046.596.596 0 0 0-.1-.038c-.036-.01-.066-.006-.09.009a.201.201 0 0 0-.062.062l-.753 1.168a.182.182 0 0 0-.03.082.136.136 0 0 0 .029.087 1.03 1.03 0 0 0 .154.144l-.058.09Zm3.483-.378a2.477 2.477 0 0 0-.108-.03.289.289 0 0 0-.14-.005c-.042.009-.082.038-.12.087-.038.05-.08.127-.13.234l-.578 1.278-.229-.102-.485-1.879-.38.838a1.127 1.127 0 0 0-.086.247c-.01.06-.006.11.014.15a.353.353 0 0 0 .086.097c.043.037.079.064.106.082l-.045.098-.774-.347.044-.098a.872.872 0 0 0 .122.032c.046.01.089.01.126.004a.209.209 0 0 0 .118-.08 1.28 1.28 0 0 0 .13-.24l.384-.847a.4.4 0 0 0 .035-.128.264.264 0 0 0-.018-.123.35.35 0 0 0-.07-.113.632.632 0 0 0-.112-.097l.044-.098.677.304.426 1.645.307-.678c.049-.108.078-.192.087-.25a.234.234 0 0 0-.016-.148.347.347 0 0 0-.086-.1 1.285 1.285 0 0 0-.104-.08l.043-.095.775.347-.043.095Zm2.232 1.455-.08-.006a.537.537 0 0 0-.085.007c-.04.005-.068.02-.085.045a.222.222 0 0 0-.034.083l-.04.224a3.872 3.872 0 0 0-.019.11l-.014.103c-.101.038-.245.065-.431.081-.187.016-.354.01-.504-.016a1.21 1.21 0 0 1-.382-.135.9.9 0 0 1-.45-.603 1.108 1.108 0 0 1-.002-.444c.027-.15.078-.285.15-.403a.948.948 0 0 1 .656-.443 1.285 1.285 0 0 1 .971.23l.098-.06.118.022-.117.705-.12-.022c-.03-.224-.085-.396-.163-.516a.486.486 0 0 0-.337-.22.459.459 0 0 0-.445.156c-.123.135-.209.336-.258.603-.051.283-.045.513.02.69.063.178.18.281.352.312.08.015.153.016.22.003a.467.467 0 0 0 .16-.057l.071-.391a.175.175 0 0 0-.003-.085.147.147 0 0 0-.06-.07.493.493 0 0 0-.097-.05 1.587 1.587 0 0 0-.1-.036l.02-.106.99.181v.108ZM29.623 64.043l.08-1.057.108.009v.101c0 .045.004.076.01.093.012.034.028.06.05.074.021.015.05.023.085.026l.678.051.064-.837-.663-.05a.172.172 0 0 0-.086.014.135.135 0 0 0-.064.064.926.926 0 0 0-.053.19l-.108-.008.081-1.056.108.008c-.001.023 0 .057.001.102a.461.461 0 0 0 .011.099c.01.034.026.058.05.073a.187.187 0 0 0 .085.026l1.389.105a.173.173 0 0 0 .083-.011c.023-.01.044-.032.064-.067a.8.8 0 0 0 .065-.195l.107.008-.08 1.057-.108-.009a.98.98 0 0 0-.02-.196c-.01-.036-.026-.061-.052-.075a.202.202 0 0 0-.082-.023l-.587-.045-.063.837.572.043a.175.175 0 0 0 .083-.011.157.157 0 0 0 .064-.068.773.773 0 0 0 .064-.188l.108.008-.081 1.057-.108-.009a.967.967 0 0 0-.019-.201c-.01-.036-.027-.06-.051-.075a.205.205 0 0 0-.083-.024l-1.391-.105a.188.188 0 0 0-.086.01.141.141 0 0 0-.064.067.513.513 0 0 0-.032.094c-.01.042-.018.076-.022.102l-.107-.008Z" clip-rule="evenodd"/></g><defs><filter id="a" width="154" height="157" x="0" y="0" color-interpolation-filters="sRGB" filterUnits="userSpaceOnUse"><feFlood flood-opacity="0" result="BackgroundImageFix"/><feColorMatrix in="SourceAlpha" result="hardAlpha" values="0 0 0 0 0 0 0 0 0 0 0 0 0 0 0 0 0 0 127 0"/><feOffset dy="16"/><feGaussianBlur stdDeviation="6.5"/><feColorMatrix values="0 0 0 0 0 0 0 0 0 0 0 0 0 0 0 0 0 0 0.03 0"/><feBlend in2="BackgroundImageFix" result="effect1_dropShadow_185_78"/><feBlend in="SourceGraphic" in2="effect1_dropShadow_185_78" result="shape"/></filter></defs></svg>