<svg xmlns="http://www.w3.org/2000/svg" width="154" height="157" fill="none"><g filter="url(#a)"><path fill="#fff" d="M13 0h128v128H13z"/><path fill="#006DAC" fill-rule="evenodd" d="M42.68 64.049c-1.807-.724-2.27-.932-1.681-1.819.586-.878 3.654-2.199 1.511-4.215-1.176-.84-3.695-.655-4.873-.026.14-2.212.573-4.75-1.595-5.745-2.56-1.177-1.956.227-1.956 1.194 0 .964-.143 5.605-.058 6.066-.547.336-3.066 2.012-3.74 3.024-.67 1.002-1.343 1.425-1.762.838-.285-.398-1.681-2.939-1.512 1.007.208 4.202 3.274 5.13 3.274 3.108 0-2.018-.25-2.102.337-2.769.59-.672 3.528-3.784 3.443-1.595.254 2.43-.25 2.517-.84 3.102-.586.59-1.568 1.848.95 2.27 0 .252-.025 5.336-.025 6.34 0 .82 1.217 3.191 2.306 1.128.167-.433.15-1.081.212-2.009.253-5.623-.544-7.056 1.135-7.349 3.738 0 6.974-1.178 4.874-2.55Zm-4.243-1.843s-.503.4-1.049-.055c-.84-1.431.837-2.188.837-2.188 1.178-.459 2.858.083.212 2.243ZM60.833 53.97c-.082-1.51-1.05-2.625-2.072-.021 0 0-.071.836-1.036.798-.964-.044-4.802-.606-2.956 1.913.59.712 2.119.436 2.662.436.548 0 1.723.169.463 1.805-.522.681-1.236 2.051-1.934 3.118-1.341 1.502-1.801 2.667-.796 2.867 1.555-.045 2.983-1.405 4.662-6.278 0 0 .545-2.16 2.184-2.285 1.555-.25 4.833-1.328 3.311-2.644-.758-.258-1.84.186-2.262.478-.421.29-1.85.611-2.226-.187ZM53.376 65.371c-.017-.839-1.251-4.367-2.176-.506-.921 3.863-.546 5.058.294 6.022.84.97 2.495 1.377 2.453-.634-.042-2.019-.555-4.042-.57-4.882Z" clip-rule="evenodd"/><path fill="#006DAC" fill-rule="evenodd" d="M58.135 65.947c.063-.284.47-.462.637-.626.657-.644.419-1.33-1.256-.957-1.975.75-1.513 2.182-.672 1.887 0 0 1.176-.04.628.671-.544.715-.295 1.328 1.68 1.16 0 0 2.07.196 0 1.236 0 0-1.09.338-1.68.422-.588.084-1.302 1.214.252 1.174 1.555-.044 2.272-.334 2.272.968-.351 4.433 1.606 3.985 1.592 1.845 0 0-.168-2.183-.084-3.02.084-.843.672-1.307 1.344-1.097 1.976.504 3.362-1.762.547-1.807 0 0-2.078 0-.798-.545 1.712-.553 2.562-1.595.757-1.764 0 0-1.607-.084-.305-1.594.754-.838-.536-.379-.702-.925-.178-.364.5-.5.964-.67.464-.171 7.77-2.774 7.015 1.553-.57 4.292-1.103 5.9-1.47 7.012-.464.715-.927 2.246-1.934.986-1.288-1.215-1.826.171-.543 1.62 1.512 1.176 2.367 1.68 3.584-.21 1.22-1.89 3.007-8.8 2.756-11.928 0-1.09-.913-2.352-2.856-2.304-1.513.172-6.257 1.213-7.895 2.093-1.637.883-1.387 1.178-.88 1.766.165 1.047-.464 2.41-1.218 2.894-.619.398-1.83 1.262-1.735.16ZM89.712 55.393c0-.798-1.845-4.576-2.77-2.268.042 2.477 0 6.425 0 7.179 0 .758.168 1.43-1.01 1.851-1.173.417-7.768.883-6.972 2.816 1.39 1.594 2.858.796 3.531.5.671-.292 4.074-2.18 3.402-.126-1.22 1.763-3.487 4.16-3.95 4.746-.46.587-.754 2.48 1.976 1.096 2.73-1.473 4.032-4.746 4.032-5.882 0-1.1.59-2.011 1.637-2.1 1.425-.126 6.762.505 7.18-2.271.043-1.342-.882-1.256-2.516-.63-1.64.63-5.167 1.257-5.167-.124 0-1.763.627-4.787.627-4.787ZM92.484 68.412c.712.951 3.487 5.756 5.17 5.458 1.676-.293 2.14-2.562-.171-4.24-2.309-1.682-5.032-3.672-5.366-2.876-.335.799.117 1.318.367 1.658ZM111.38 62.732c.849-.064 1.634-1.201 1.362-3.992-.075-.735-1.362-2.506-1.952-.574-.23 1.73-.073 1.92-.209 2.813 0 0-.054 1.813.799 1.753ZM106.182 64.368c-1.385 2.175-1.259 4.603-.032 4.662 1.229.065 1.732-1.668 1.7-3.464-.01-.788-.281-3.37-1.668-1.198Z" clip-rule="evenodd"/><path fill="#006DAC" fill-rule="evenodd" d="M126.454 59.8c-.839-1.037-2.412-.236-2.731.108-.313.349-2.17.808-1.161-1.588.627-1.76 3.053-2.882 2.173-4.427-.885-1.541-3.058-1.054-3.625-.01-.566 1.035.209.865 1.092 1.082.407.033.107 1.234-.303 2.051-.409.82-.756.773-.597-.332.155-1.103-1.292-1.243-2.018-.957-.726.282-1.021-.647-.171-1.499.707-1.134-.995-3.97-2.161-2.677 0 0-.501.977.632 1.543.724.597-1.826 3.304-2.266 1.89-.155-.485-1.136-3.653-1.452-.6-.314 3.056 0 7.151 0 7.53 0 .377-.127.785-.504.942-.377.161-6.488 1.166-4.029 2.428 1.417.313 2.519-.096 3.432-.694.914-.599 7.2-1.95 8.167-2.423.967-.475 3.297-.725 2.227.331-.787.248-.346 1.779 2.424.548.913-.378 2.144-1.763.871-3.246Zm-8.996.523c-.127.943-1.321 1.683-1.639 1.212-.314-.473-.253-2.05 0-4.064.412-1.83 2.332-.663 1.639.285-.127.284-.74.756-.74 1.258 0 .503.866.365.74 1.309Zm1.51 1.275c-1.257.598-.614-.756-.3-1.072.316-.316.522-1.133-.171-1.416-.693-.282-.063-1.007.913-1.922.977-.914 1.012.32.759.692-.805 1.175-.506 1.326.44 1.798.724.408-.379 1.322-1.641 1.92ZM119.571 68.246c-1.262.129-1.325-.442.44-1.606 2.205-1.546 1.573-2.648-.663-2.177-.976.1-1.229.126-2.547.613-.836.309-1.312.304-3.011 1.374-2.649 1.925 1.117 2.14 1.777 1.2 1.671-1.708 1.924.725 1.419 1.256-.317.473-2.019.6-3.878 2.487-1.854 1.887.773 3.327 4.397 3.103 1.686-.174 2.946-2.22 2.759-3.103-.192-.88-.16-1.857.847-1.92 3.405.033.82-2.081-1.54-1.227Zm-2.019 4.154s-.253.538-1.194.472c-1.859-.376-1.199-1.26.661-2.013 1.858-.756.945 1.133.533 1.541Z" clip-rule="evenodd"/></g><defs><filter id="a" width="154" height="157" x="0" y="0" color-interpolation-filters="sRGB" filterUnits="userSpaceOnUse"><feFlood flood-opacity="0" result="BackgroundImageFix"/><feColorMatrix in="SourceAlpha" result="hardAlpha" values="0 0 0 0 0 0 0 0 0 0 0 0 0 0 0 0 0 0 127 0"/><feOffset dy="16"/><feGaussianBlur stdDeviation="6.5"/><feColorMatrix values="0 0 0 0 0 0 0 0 0 0 0 0 0 0 0 0 0 0 0.03 0"/><feBlend in2="BackgroundImageFix" result="effect1_dropShadow_185_57"/><feBlend in="SourceGraphic" in2="effect1_dropShadow_185_57" result="shape"/></filter></defs></svg>