<svg xmlns="http://www.w3.org/2000/svg" xml:space="preserve" style="fill-rule:evenodd;clip-rule:evenodd;stroke-linejoin:round;stroke-miterlimit:2" viewBox="0 0 157 157"><path d="M241.14 448.004c1.481 0 8.323-2.444 10.998-3.858 14.318-7.553 26.83-17.802 34.981-31.962 6.543-11.386 6.952-25.421 8.026-38.184 1.378-16.488 1.256-33 .992-49.549-.016-1.192-23.688-3.796-26.122-4.021-9.593-.897-22.45-1.494-28.875-1.494-6.419 0-19.272.597-28.873 1.492-2.436.227-26.101 2.831-26.121 4.023-.259 16.549-.389 33.061.991 49.549 1.08 12.763 1.483 26.798 8.027 38.184 8.153 14.16 20.665 24.409 34.983 31.962 2.674 1.412 9.518 3.858 10.993 3.858" style="fill:#6e1e6f;fill-rule:nonzero" transform="matrix(.48738 0 0 .48738 -38.983 -116.451)"/><path d="M273.465 387.267c.054.01.107.018.16.025-.056-.007-.098-.025-.16-.032v.007Zm-3.107 1.991c.106.035.197.081.284.119-.087-.044-.173-.094-.279-.133l-.005.014Zm18.503-30.186s.055-.825.09-.87a5.688 5.688 0 0 0 3.789-4.661 8.564 8.564 0 0 0 .047-1.748l-.147.137c-.534.502-2.149 2.025-3.032 1.827-.23-.046-.395-.207-.501-.476.004-3.38-.265-6.072-.611-9.553.958-.528 2.981-2.029 2.974-5.226a8.957 8.957 0 0 0-.133-1.367l-.167.186c-.524.608-1.919 2.21-2.745 2.111-.198-.025-.35-.141-.452-.365l-.051-.453c-.662-7.18-2.147-10.727-5.083-12.239 0 0-.185-.068-.185-.088 0 .053.155.278.296.494.436.639 1.151 1.701 1.421 2.954.473 2.139.649 3.858.649 5.268 0 1.628-.227 2.84-.477 3.811-.39.712-.943 1.154-1.646 1.321-1.618.388-3.471-1.408-4.079-2.867-.023-.044-.054-.094-.096-.094-.13 0-.348.39-.472.659-.52 1.922.122 4.33 1.425 5.26.476.343 1.244.621 2.16-.007.482-.315.829-.434 1.08-.362.134.038.223.129.287.309a65.332 65.332 0 0 1-2.09 5.146c-.439.393-.935.606-1.472.637-1.823.111-3.355-2.133-3.708-3.727-.015-.071-.035-.111-.076-.114-.129-.03-.445.342-.623.606-.918 1.898-.708 4.515.453 5.72.436.449 1.182.882 2.273.4.565-.253.947-.317 1.165-.195.105.053.173.15.191.317a64.105 64.105 0 0 1-2.944 4.976 2.405 2.405 0 0 1-1.336.383c-1.935-.012-3.21-2.24-3.356-3.78-.004-.058-.023-.098-.056-.101-.13-.048-.518.309-.749.57-1.196 1.801-1.381 4.29-.385 5.553.55.704 1.405.897 2.388.537.604-.223.987-.271 1.147-.154.075.038.109.113.096.236a66.257 66.257 0 0 1-3.303 4.125c-.766.511-1.537.701-2.339.572-2.053-.316-3.323-3.245-3.323-5.205 0-.093-.023-.147-.054-.165-.169-.07-.628.297-.882.54-1.546 1.953-1.97 5.023-.933 6.712.39.626 1.143 1.321 2.53 1.034.73-.152 1.156-.131 1.293.061.076.114.052.277-.071.5l-3.362 3.11c-.838.527-2.111 1.058-3.458.565-2.248-.801-3.055-4.409-2.631-6.637.017-.107.003-.173-.044-.21-.175-.114-.791.207-1.127.43-2.176 1.885-3.32 5.3-2.498 7.442.307.799 1.012 1.757 2.657 1.734.903-.01 1.394.115 1.489.39.083.231-.118.533-.619.936-.451.256-.981.598-1.4 1.118-.996 1.214-1.452 2.199-1.562 3.405l-.099 1.23c-.066.961-.132 1.95-.339 2.9a8.317 8.317 0 0 1-.839 2.393c-2.094 3.809-6.981 5.799-12.114 6.54v-7.148c6.244-.185 8.939-2.908 8.939-9.013 0-5.2-1.874-7.461-6.275-7.556a7.917 7.917 0 0 0-2.664.426v-3.975c3.128-1.419 6.675-3.024 10.367-3.967 8.493-2.158 15.324-6.851 17.71-11.863a9.482 9.482 0 0 0 .714-2.206c-.454.296-6.133 3.889-10.365 4.801l-.585.092c-.568.111-1.169.228-1.468-.03-.145-.12-.216-.302-.216-.564 0-2.289 1.26-4.086 3.56-5.06l.229-.096c5.144-2.184 9.144-3.889 11.084-6.555a6.46 6.46 0 0 0 1.055-2.35c-.432.231-6.392 3.378-10.233 3.915l-.203.035c-.464.079-1.239.213-1.6-.179-.215-.228-.254-.602-.131-1.119.443-1.742 1.184-2.779 2.565-3.57 1.506-.864 3.127-1.586 4.699-2.283 2.656-1.184 5.029-2.245 6.219-3.654.06-.081.134-.155.185-.239a.243.243 0 0 0 .043-.063c.217-.322.37-.671.456-1.037l-5.586 1.759-1.1.338c-1.595.505-3.257 1.027-3.787.502-.193-.195-.224-.513-.081-.958.276-.964.522-1.509.976-2.148 2.091-2.976 6.338-6.136 11.419-5.238.847.159 1.275.097 1.301 0 .02-.051-.128-.22-.792-.461-3.836-1.395-7.413-1.263-10.631.382-5.887 3.012-10.736 11.128-14.413 24.13-2.104 7.433-6.681 10.11-11.392 12.228V344.26c1.714-.687 3.198-1.645 4.473-2.918 3.58-3.58 4.853-8.05 3.398-11.957-1.179-3.157-3.974-5.345-7.115-5.57a19.356 19.356 0 0 0-.756-.033v-2.389c-5.891 0-18.094.546-27.604 1.433-3.413.324-24.953 2.789-24.973 3.823-.094 5.623-.161 11.194-.161 16.747 0 10.348.257 20.612 1.111 30.898l.319 4.018c.872 11.267 1.778 22.923 7.371 32.671 7.073 12.365 18.341 22.699 33.484 30.733.939.495 5.289 2.731 8.91 3.509.012 0 .033.006.055.006.158.042.317.068.475.094.344.053.691.108 1.014.131v-17.762c5.045.078 12.877.139 14.963-.588 2.008-.698 3.302-2.232 3.638-4.329.386-2.433-.597-5.146-2.33-6.465-.245-.183-.582-.213-.669-.088-.073.078-.027.165.089.38.188.334.5.898.5 2.039 0 1.054-.368 1.933-1.09 2.601-1.953 1.828-5.943 1.582-5.979 1.582l-4.609-.051h-4.47c.058-.016.106-.035.16-.041h-.166c2.595-.606 4.425-2.48 5.211-3.919 1.982-3.603.317-5.991-.205-6.684-.099-.093-.16-.157-.16-.157h.033c-.018-.03-.033-.038-.033-.038.309-.007.611-.017.905-.035-.286.013-.57.041-.867.035 0 0 .017.02.036.038a14.743 14.743 0 0 0 3.212-.349c-.72.152-1.493.23-2.312.275 9.566-.549 11.586-9.177 12.684-13.886l.192-.772c.338-1.4 1.222-3.855 3.334-4.513 1.342-.422 2.226-.929 2.873-1.307l.774-.412s.265-.105.288-.112c1.202.041 1.176 1.057 1.156 1.727-.007.284-.018.542.081.597.046.031.14 0 .277-.083 1.032-.637 1.547-2.556 1.689-3.664.004-.08.01-.17.01-.235l.007.004.011-.053c1.312.469 1.43 1.238 1.496 1.651.02.116.035.211.068.226.037.018.152-.046.335-.193.957-.768 1.168-2.536 1.196-3.57v-.045c.003-.011.003-.029.003-.029 1.609.099 1.77 1.01 1.841 1.448.015.092.038.213.068.224 0 0 .061-.003.259-.209.838-.884.838-2.761.806-3.575a.989.989 0 0 0-.015-.111h.007v-.033c1.044.076 1.276.862 1.42 1.329.043.159.098.324.155.33.022.004.091-.014.241-.209.955-1.217.9-3.049.752-3.74a1.07 1.07 0 0 0-.051-.152l.01.003c0-.015-.004-.04-.004-.04 1.067.051 1.308.743 1.445 1.146.045.144.091.271.139.278.035.003.11-.03.277-.25.76-.971.699-2.842.494-3.839 1.407-1.658 2.282-3.075 2.53-4.107.193-.774.31-.878.403-.87.158.015.204.454.221.718-.221 2.519-.748 5.744-1.503 9.064a.294.294 0 0 0-.016.058c-.004.022-.012.051-.018.076-.101.462-.2.928-.314 1.4 0 0-.013-.009-.017-.016a.16.16 0 0 0-.014.056c-.471-.444-1.677-.589-1.939-.317-.127.126.016.33.152.476.515.535.794 1.547.832 2.462.017.137.028.272.035.393l-.033-.01a.079.079 0 0 0 0 .034c-.572-.287-1.513-.35-1.703-.094-.097.123.037.321.172.454.614.63.811 1.944.713 2.92-.013.168-.024.324-.056.462-.003-.006-.01-.019-.021-.021-.005.018-.005.035-.009.058-.457-.448-1.671-.603-1.94-.324-.134.129.012.335.155.482.529.55.658 2.035.554 3.019-.01.175-.027.33-.04.465-.012-.006-.02-.009-.03-.021-.005.021-.005.045-.008.059-.538-.485-1.461-.758-1.674-.576-.088.081-.038.268.133.514.681.999.461 2.856.256 3.557-3.071 6.82-6.491 10.312-10.162 10.383-2.994.068-4.589-2.607-4.782-4.526-.264-2.776 2.379-4.617 3.984-5.271 1.16-.482 1.885.178 2.141.482.939 1.126.817 1.897.553 2.358-.352.595-1.153.895-1.683.804-.877-.168-1.588.172-1.884.882-.284.692-.102 1.461.444 1.851.887.618 2.028.656 3.238.119 1.51-.679 2.803-2.148 2.941-3.367.256-1.065-.152-3.19-.982-4.065-1.879-2.552-4.241-3.308-6.32-2.018-3.705 2.3-5.784 4.902-6.006 7.558-.196 2.417 1.112 4.891 3.901 7.34 3.319 2.911 8.682 1.121 11.077-1.45 0 0 .284-.208.332-.211.622.234 3.562 1.126 6.194-1.444a8.72 8.72 0 0 0 .949-1.147l-.244.019c-.781.086-2.867.299-3.372-.378-.129-.18-.147-.413-.023-.711 1.519-2.078 2.911-4.717 4.164-7.885a5.689 5.689 0 0 0 4.845-3.584 8.228 8.228 0 0 0 .483-1.658l-.227.118c-.733.422-2.698 1.529-3.32 1.038-.212-.157-.255-.475-.133-.944.737-2.55 1.407-5.382 2.022-8.46.9-.14 3.613-.869 4.455-4.392.092-.428.167-.891.2-1.409l-.203.139c-.681.46-2.489 1.681-3.295 1.342-.205-.089-.33-.267-.376-.548.411-2.72.763-5.676 1.086-8.811.421-.126 3.967-1.287 3.967-5.828 0-.152-.013-.315-.02-.479l-.114.106c-.606.55-2.203 2.016-3.038 1.803-.209-.049-.351-.198-.445-.464l.367-7.284.059-1.138Zm-47.767-32.806c2.809.994 4.341 3.297 4.102 6.242-.226 2.83-2.068 5.37-4.102 5.68v-11.922Zm0 46.425c.328-.037.692-.06 1.095-.056 2.771 0 3.998 1.298 3.998 4.222 0 2.096-.635 4.234-5.093 4.432v-8.598Zm13.177 22.664v.012c-1.793 2.987-4.055 4.84-9.78 4.84l-3.397-.007v-3.134h3.053c4.677 0 7.874-.629 9.236-1.822.631-.546.814-.521.897-.464.171.114.023.506-.009.575m31.242-45.56-.101 1.369c-1.277 19.641-7.367 26.725-13.166 31.075l-.213.161c-1.825 1.364-3.896 2.913-7.692 4.177l-.119.039c-.718.23-2.895.927-3.474 1.924-.553.951-.725 1.032-.821.971-.238-.124.216-1.43.382-1.735.424-.803 1.137-1.246 2.511-1.886 2.601-1.217 2.94-2.771 2.91-3.587-.045-1.161-.841-2.267-1.942-2.68-.844-.325-1.666-.15-2.177.447.225.098.821.362.928 1.33.128 1.468-.645 2.085-1.344 2.17-.829.095-1.786-.469-1.947-1.589-.292-2.081.803-3.418 1.5-3.877.854-.568 1.384-.757 2.013-.966 0 0 1.081-.406 1.091-.406 1.732-.301 2.933.645 3.579 1.149.236.19.439.353.526.323l.091-.097c.246-.509-.104-2.533-.533-3.613l.035-.104.062-.007c1.584-.219 2.398.854 2.888 1.488.159.217.317.421.393.392.038-.015.065-.053.096-.126.205-.611-.35-2.824-.844-3.874a5.206 5.206 0 0 1-.049-.086l.003-.003c-.003-.015-.006-.033-.015-.043 1.61-.481 2.604.421 3.138.9.203.18.373.332.444.296l.076-.116c.158-.59-.565-2.665-1.174-3.681l.317-.345c1.554-.606 2.553.012 3.151.388.228.137.406.244.49.2l.078-.134c.137-.584-.626-2.47-1.237-3.365 0 0 .295-.378.32-.395 1.245-.414 2.201-.102 2.783.078.241.084.431.147.505.102.035-.023.066-.068.076-.15.074-.55-.657-2.239-1.217-2.865 0 0 .259-.37.289-.38 1.151-.403 2.039-.116 2.571.069l.456.093c.049-.03.072-.104.072-.223.009-.677-.706-2.337-1.137-2.746 0 0-.012-.004-.02-.013h.005s-.025-.027-.037-.032c1.117-.936 2.175-.873 2.742-.845l.422-.027c.028-.021.038-.058.032-.122-.023-.441-.834-1.635-1.399-2.086 1.343-2.5 2.29-4.826 2.822-6.943.677-2.659.786-2.642.88-2.626.149.027.131.567-.019 2.632m-15.371 22.374c.076-.022.155-.036.228-.051-.076.01-.155.015-.233.036l.005.015Zm9.962-12.345a3.25 3.25 0 0 1 .46-.321 4.068 4.068 0 0 0-.474.306l.014.015m.41 33.008a.958.958 0 0 1 .16.145v-.031c-.048-.035-.097-.075-.16-.114m-7.312-54.403s-.159.08-.406.21c.198-.089.327-.152.394-.178.004-.009.007-.022.012-.032m1.993-8.167v-.015l-.157.048c.068-.012.122-.025.157-.033m-5.284 17.93-.426.262c.205-.113.343-.198.413-.229.005-.007.005-.026.013-.033m-27.343 74.089c-.447.18-.919.349-1.433.451h.174c.44-.117.865-.276 1.259-.451m36.783-39.671c-.122-.038-.249-.079-.406-.101a.092.092 0 0 1 .009.027c.151.02.279.041.397.074m-.161 13.886c.064.058.115.111.17.162v-.027c-.055-.046-.113-.089-.17-.135m2.194-7.38c.066.037.122.075.175.106v-.025c-.053-.023-.109-.054-.175-.081m.986-3.091c.06.045.111.084.145.136.012-.007.012-.01.017-.024a1.795 1.795 0 0 0-.162-.112m-5.938-1.019v.012c.068.008.134.021.19.033-.061-.018-.119-.036-.19-.045" style="fill:#e5a823;fill-rule:nonzero" transform="matrix(.48738 0 0 .48738 -38.983 -116.451)"/><path d="M239.375 337.723c-.517-.522-.474-2.895-.467-2.925 0-3.047-2.553-4.128-4.731-4.128-2.337 0-4.748 1.23-4.748 3.281l.017 7.764c0 .417-.139.747-.4.971-.23.195-.55.301-.903.301-.719 0-1.454-.441-1.454-1.186v-4.181c0-4.754-5.32-5.464-8.489-5.464-4.538 0-9.363 2.029-9.363 5.786l.005 2.087-.005 17.108c.033 1.027-.627 1.772-1.202 2.096-.497.279-1.009.308-1.374.08-.32-.204-.67-.693-.571-1.874.013-.157-.06-.276-.175-.302-.164-.041-.418.086-.603.555-.548 1.422-.512 2.73.096 3.894.782 1.494 2.34 2.343 3.188 2.549l-.034 2.657h-.025c-3.015-.051-6.658-1.218-6.658-6.709v-26.451c0-4.037-1.679-5.403-3.081-5.839-2.586-.797-5.968.945-7.393 3.017-1.492 2.177-1.052 4.14-.147 5.261 1.03 1.264 2.744 1.686 4.278 1.047.028-.018.301-.201.286-.385-.018-.115-.132-.189-.352-.222-1.032-.159-1.653-.858-1.653-1.866 0-1.107.966-2.038 2.12-2.038 1.137 0 2.065.916 2.065 2.038v3.875l.018 22.747c-3.073-.058-3.912 2.455-3.912 3.933 0 2.327 1.63 3.204 1.696 3.237.071.046.229.035.333-.063.075-.069.137-.226 0-.505-.383-.771-.408-1.442-.044-1.939.46-.65 1.461-.885 2.199-.784.476.069.795.256.889.52 1.134 3.202 4.067 4.829 8.979 4.974.106 0 .289.107.469.282l-.014 1.453c-1.513.649-4.86 2.849-4.713 9.163.105 4.829 1.057 11.56 1.97 12.232.077.061.157.081.241.061 4.085-1.136 10.155-1.211 13.229.616.424.249.657.555.624.835a.374.374 0 0 1-.251.337c-.155.06-.317.012-.448-.119-1.339-1.341-5.13-1.499-6.257-1.522-4.253-.071-12.964 1.238-15.538 6.679-1.465 3.12 1.509 9.408 3.107 11.404.096.131.311.127.468.063.125-.053.193-.147.168-.246-.618-3.121.616-6.194 3.481-8.654 3.481-2.993 8.569-4.362 11.83-3.186.433.167.727.436.766.73.02.14-.016.266-.104.34-.084.058-.186.065-.31.013-4.246-1.834-8.587.952-8.632.978 1.842 11.024 15.262 10.755 25.059 10.552l3.357-.048c.007.026 3.75 3.722 3.238 6.838-.206 1.25-1.066 2.254-2.566 2.972-1.496.73-7.474.355-8.093-.145-.333-.267-.467-1.057-.343-2 .203-1.478 1.091-3.492 2.939-4.3.201-.051.297-.135.282-.244-.049-.225-.677-.391-1.098-.35-3.411.431-5.873 2.15-6.742 4.733-.193.576-.277.847-.287 1.458-.095 1.081-.344 1.104-1.772 1.26l-.766.085c-2.702.332-4.236 1.62-4.566 3.828a5.967 5.967 0 0 0 1.484 4.834c.999 1.104 2.277 1.705 3.526 1.658.071 0 .195-.065.216-.184.033-.101-.003-.267-.317-.447-1.519-.875-1.915-2.297-1.631-3.318.3-1.123 1.378-1.8 2.8-1.783.023 0 .608-.013.628.426l.005.421.097 1.24c.576 3.329 3.116 6.235 6.174 7.079.119.03.35-.058.408-.219.05-.137-.003-.334-.518-.554-1.62-1.202-2.21-3.58-2.218-5.408-.01-1.213.241-2.224.618-2.516.678-.522 3.187-.857 4.43.391 1.237 1.23 1.79 2.365 1.564 3.179-.147.533-.638.93-1.425 1.136-.103.023-.151.192-.124.317.01.061.076.271.378.22 3.276-.486 4.422-3.054 4.402-5.109-.008-.02-.041-.133.03-.213.063-.085.207-.133.411-.133l2.415.03c.404 0 .855.01 1.304.02v-27.701l-9.201-.018c-2.138 0-2.956.933-3.007 1.81-.076 1.141 1.138 2.521 3.514 2.819.145.019.523.242.515.381 0 .045-.051.155-.55.172-1.582.02-4.866.064-6.06-1.871-.728-1.182-.781-2.713-.119-3.887.837-1.515 2.753-2.345 5.373-2.345h9.535v-3.697c-4.779.706-9.792.32-12.941-.706-5.935-1.94-10.887-7.363-8.863-13.984.283-.92.923-1.871 1.962-2.917 1.298-1.286 2.592-1.326 3.025-1.339.18.03.291-.003.344-.087.107-.212-.263-.61-.275-.631-2.062-2.446-10.647-3.176-12.351-2.456-.045.025-.096-.054-.128-.107-.695-1.255-.947-9.361 2.124-11.501 1.275-.882 2.621-1.213 3.592-.871.786.281 1.347.966 1.668 2.055.366 1.264 0 2.749-.849 3.299-.616.409-1.407.271-2.221-.401-.225-.187-.321-.459-.41-.697l-.107-.268c-.088-.18-.23-.376-.38-.363-.043 0-.109.025-.137.14-.121 2.58.9 4.456 2.812 5.147 3.291 1.206 6.888-.061 9.147-3.213 2.099-2.939 2.975-7.893.926-9.632-.143-.119-.256-.15-.333-.103-.182.103-.103.559-.081.651.013 2.753-1.772 4.738-3.514 5.056-1.493.273-2.748-.637-3.445-2.51 0 0 .05-.407.51-.368 1.513.137 2.601-.414 3.156-1.587.69-1.469.116-3.525-1.333-4.772-.054-.021-.356-.102-.482 0-.034.028-.063.073-.051.147.211 1.802-.263 2.949-1.308 3.156-.954.19-2.1-.509-2.361-1.425-.273-.99.525-1.901 2.194-2.504.091-.033.121-.089.132-.125.03-.141-.113-.304-.132-.324-2.194-.733-4.521.054-5.337 1.778-.535 1.145-.036 3.179 1.212 3.767 0 0 .05.074-.036.193-.241.35-1.399.798-2.47.463-.783-.25-1.711-.983-1.711-3.087V340.66c0-1.299 1.437-1.996 2.85-2.108 1.397-.124 3.002.322 3.204 1.568.267 1.584.056 1.998-.449 2.246-.978.457-1.825-.294-1.825-.294-.017.01-.022.025-.025.04l-.015-.008c-.008.021-.008.042-.016.057-.154.312-.132.621.031.923.352.669 1.281 1.216 2.375 1.406 1.075.186 1.892.061 2.411-.378.402-.339.615-.872.615-1.531v-2.066c0-.953.526-1.41 1.014-1.435.438-.023.91.301.985 1.062l.031 2.731-.031 4.505c0 3.238 2.528 4.723 4.881 4.723 2.358 0 4.746-1.515 4.746-4.401v-6.68c0-1.235.503-2.019 1.344-2.102.845-.084 1.904.629 2.158 1.916.281 1.473.162 1.704-.228 2.462l-.223.436-.163.335c-.385.774-.552 1.124-.428 1.303.096.134.349.134.839.074 1.617-.193 3.06-.561 4.374-1.085v-6.273c-.024.003-.048.011-.081.018-.584.076-1.192.117-1.692-.381m-24.864 41c0 1.954-1.673 3.542-3.72 3.542-2.051 0-3.721-1.588-3.721-3.542 0-1.942 1.67-3.524 3.721-3.524 2.047 0 3.72 1.582 3.72 3.524m1.957-36.59.008.01c0 .002-.008-.002-.008-.01m-8.055 36.59c0 1.248 1.067 2.269 2.378 2.269 1.312 0 2.386-1.021 2.386-2.269 0-1.24-1.072-2.251-2.386-2.251-1.31 0-2.378 1.011-2.378 2.251m25.159-52.061c-.368.484-.674 1.035-.52 1.177.084.075.241.007.482-.199 2.074-1.78 4.521-2.246 7.264-1.384.129.043.228.094.344.139v-2.709c-4.807-.112-6.995 2.221-7.57 2.976m-4.174 41.522c-1.024 1.361-1.546 4.545-1.546 9.474 0 7.809 6.032 8.884 12.542 8.884.256 0 .502-.01.746-.018v-5.331c-.241.007-.484.019-.746.019-5.509 0-7.593-.413-7.593-4.84 0-5.238 2.393-7.354 5.983-8.922l2.31-1.033s.033-.013.048-.024v-5.669c-.588.266-1.189.523-1.787.781-3.597 1.56-7.32 3.17-9.957 6.679m-25.961 23.208h.063l.089-.056-.877-5.915c.004-.312.004-.54-.148-.654-.16-.119-.471-.093-1.074.096-8.358 2.739-8.387 5.895-7.705 11.701.048.385.575 1.075.772 1.075l.039.005.046-.081c.108-.51.418-1.22.559-1.471 2.44-4.309 6.577-4.722 8.236-4.7m.052-.048v.003c-.091-.003-.2-.003-.299-.003h.299m33.036-15.501c-.081.347.064.728.32.831.097.036.363.072.624-.398l.246-.581c.567-1.407 1.062-2.643 3.425-2.902v-2.634c-2.272.75-4.267 2.585-4.615 5.684" style="fill:#6e1e6f;fill-rule:nonzero" transform="matrix(.48738 0 0 .48738 -38.983 -116.451)"/><path d="M342.461 458.947c-.396-4.954-4.597-8.422-24.436-3.819a882.919 882.919 0 0 0-.219-5.257c-.171-3.811-4.224-5.9-12.45-5.635-4.055.132-6.215.292-7.738.508-5.518-4.272-7.163-11.055-6.854-17.154l7.984-9.206c2.125-1.653-5.007-8.919-11.928-6.871l-13.567 17.871c.215-.18.423-.324.644-.479-3.289 4.171-3.048 12.127 1.675 20.015-11.17 1.843-23.888 3.63-32.929 3.63-.519 0-1.055-.007-1.594-.023-.54.016-1.075.023-1.59.023-9.041 0-21.754-1.787-32.927-3.63 4.723-7.888 4.965-15.844 1.679-20.015.213.155.426.299.639.479l-13.572-17.871c-6.92-2.048-14.046 5.218-11.921 6.871l7.985 9.206c.31 6.097-1.343 12.882-6.86 17.154-1.518-.216-3.678-.376-7.727-.508-8.228-.265-12.292 1.824-12.459 5.635-.044.986-.133 2.994-.218 5.257-19.835-4.601-24.039-1.135-24.432 3.819-.322 4.054-.469 11.977-.005 14.9.464 2.923 4.828 5.089 9.528 5.893 10.857 1.858 31.479-.53 47.338-14.564 9.99 2.325 22.164 5.264 42.954 5.264.54 0 1.062-.013 1.59-.02.533.007 1.05.02 1.593.02 20.794 0 32.961-2.939 42.954-5.264 15.855 14.034 36.484 16.422 47.342 14.564 4.698-.804 9.069-2.972 9.531-5.893.458-2.923.314-10.844-.01-14.9" style="fill:#f1deae;fill-rule:nonzero" transform="matrix(.48738 0 0 .48738 -38.983 -116.451)"/><path d="M184.279 451.827c-.396.939-1.473 6.965-1.6 8.251.32 0 .819.075.868-.026 1.173-2.766 1.767-5.674 2.013-8.666-.489 0-1.048-.129-1.281.441m5.611.023c.339 1.365-.063 8.174.974 10.135.243.412.823-.097.884-.46.457-3.283.067-6.366-.575-9.632-.013-.093-.816-.043-1.283-.043m1.887-2.031c.08-.017.139-.664-.028-.8-2.283-1.961-5.061-.949-7.637-.933-.674.017-.438.833-.472 1.349.327 0 .64.03.962 0 2.486-.323 4.725.92 7.175.384m151.56 9.06c-.164-2.156-.996-3.751-2.519-4.863-3.446-2.508-10.453-2.462-21.974.126a460.87 460.87 0 0 0-.163-3.874l-.015-.433c-.136-3.106-2.551-6.741-13.285-6.392-3.76.117-5.915.269-7.454.466-2.845-2.296-4.432-5.164-5.284-7.775-.872-2.662-1.163-5.509-1.065-8.222l7.794-8.984c.406-.349 1.03-1.218.185-2.872-1.414-2.763-7.109-7.022-12.92-5.306a.92.92 0 0 0-.413.284l-13.575 17.867a.822.822 0 0 0-.124.682 11.27 11.27 0 0 0-1.068 2.514 15.594 15.594 0 0 0-.565 4.247c0 3.788 1.22 7.948 3.464 11.975-10.912 1.78-22.998 3.438-31.708 3.438-.517 0-1.064-.016-1.597-.026-.533.01-1.078.026-1.59.026-8.718 0-20.805-1.658-31.714-3.438 2.236-4.026 3.468-8.187 3.468-11.975 0-1.481-.185-2.908-.571-4.247a11.179 11.179 0 0 0-1.065-2.514.797.797 0 0 0-.124-.682l-13.581-17.867a.868.868 0 0 0-.409-.284c-5.819-1.716-11.5 2.543-12.922 5.306-.852 1.654-.208 2.523.195 2.872l7.781 8.984c.103 2.715-.177 5.56-1.055 8.222-.852 2.611-2.447 5.479-5.294 7.775-1.529-.197-3.689-.349-7.459-.466-10.719-.349-13.141 3.286-13.273 6.392l-.02.433c-.068 1.415-.116 2.698-.162 3.874-11.515-2.588-18.529-2.632-21.969-.126-1.529 1.112-2.348 2.708-2.525 4.863-.31 4-.482 12.048 0 15.095.576 3.651 5.854 5.808 10.192 6.554 9.264 1.589 30.66.436 47.729-14.487.06.013.109.03.172.045 9.844 2.293 22.093 5.145 42.604 5.145.54 0 1.062-.016 1.59-.016.534 0 1.057.016 1.597.016 20.503 0 32.759-2.853 42.599-5.145.054-.017.116-.033.175-.045 17.066 14.923 38.459 16.076 47.73 14.487 4.341-.746 9.612-2.903 10.185-6.554.485-3.047.324-11.095.002-15.095m-37.898-13.851c5.197-.168 11.45.547 11.638 4.88l.015.429c.271 5.923.354 9.484.354 11.609 0 .817-.014 1.38-.037 1.82-1.417-1.041-3.24-1.335-5.446-1.642-6.882-.969-12.423-.551-18.078.469l-.086-.563c.2-.446-1.116-7.147-.92-7.437.49-.73 2.794.041 2.761-1.371-.026-1.24-1.996-.674-2.938-.77-.355-.026-.34-.087-.401-.396-.106-.533-.639-3.094-1.077-3.509-.401-.386-1.01-.035-1.132.456-.23.799 1.053 3.922.549 3.945-1.278.061-2.589 1.169-2.675.875-.234-.621-.251-1.6-.708-2.221-.609-.864-2.745-.268-2.774-.664-.048-.946.601-.865.989-1.075.264-.137.532-.317.581-.65.071-.385.086-.93-.14-1.255.71-.129 1.415-.248 2.097-.369l1.384-.251c2.792-.485 4.285-.872 5.49-1.187 2.207-.573 3.42-.888 10.554-1.123m11.371 22.23c-.874.963-3.475.773-5.773.608-2.284-.17-4.445-.314-5.752.49-.013-.365-.019-.74-.013-1.134.061-2.112.537-3.584.998-4.018 1.742.061 3.553.228 5.469.492 2.787.387 4.326.669 5.385 1.936.092.744.003 1.281-.314 1.626m-30.982-13.27c.348.048.609.112.609.479.015.436-.642.504-.751.552-.154.064-.562.051-.624-.116-.215-.591.148-1.009.766-.915m-1.225-1.237c-.167-.223-.103-.665-.015-.695.092-.026.621-.332.867-.165.152.125.307.378.229.561-.152.354-.804.628-1.081.299m1.113 3.187c.112-.379 1.786.152 1.918-1.03.035-.244.342.216.861.428.497.223 1.963-.53 2.863-.398.058.026 1.323 6.828 1.067 7.845l-2.849.477c-.097-3.423-1.666-6.884-2.472-6.904-.748-.016-1.587.335-1.388-.418m-2.069-7.289c-.024.01-.037-.122-.048-.287l1.113-.196c-.032.161-.053.322-.199.422-.289.2-.701.017-.866.061m3.654-36.403c4.842-1.279 9.688 2.274 10.842 4.533.154.301.24.575.24.76 0 .1-.027.171-.078.213-.036.034-.079.067-.105.102 0 0-11.114 12.824-12.266 14.142-2.18-2.967-4.621-4.782-7.144-5.147-.92-.145-1.823-.065-2.716.173 3.007-3.951 10.918-14.363 11.227-14.776m-14.786 23.964c0-1.356.167-2.591.472-3.677.344-1.196.862-2.233 1.533-3.082 1.316-.888 2.675-1.238 4.047-1.033 2.294.328 4.596 2.158 6.67 5.282a.8.8 0 0 0 1.265.078l3.499-4.029c.059 2.305.399 4.645 1.131 6.889.826 2.536 2.287 5.289 4.764 7.631-.466.105-.912.211-1.407.343-1.177.307-2.634.687-5.357 1.166l-1.385.244c-1.586.279-3.273.57-5.024.882-.269-.016-.611.03-1.065.18v.003c-1.811.309-3.68.631-5.609.945-2.454-4.244-3.534-8.397-3.534-11.822m9.589 16.475.175-.125c.222-.056.512-.35.738-.108.246.26.233.724.035.94-.261.289-.913.134-1.1-.152-.12-.196.091-.421.152-.555m-.776-3.127c-.086-.048-.053-.676-.276-.753.395-.068.773-.136 1.153-.2.061.324.086.654-.063.86-.153.235-.571.235-.814.093m.913 5.089c.261-.18.948-.239 1.084.097.08.159.191.38.08.54-.155.18-.677.346-.919.288-.056-.013-.928-.448-.245-.925m-28.625 2.304c.37.147.901.147 1.128-.139.368-.423-.195-1.589.442-1.642 1.904-.161 2.73.896 3.24 1.533.134.173-2.721 2.508-3.562 3.874-.958-.69-2.587-.993-3.818-1.379 0 0-.198-.786.395-1.461.751.756 1.631 1.677 2.924 1.677 1.34-.023 3.074-2.556 2.471-2.997-.95-.665-1.623 2.543-3.337 1.417-.611-.406-1.601-1.666-.469-1.844.393-.083.178.789.586.961m-30.665-4.817c1.843.229 3.664.418 5.443.598-1.239 1.263.379 4.111-1.508 5.152-.31-.742-.918-.587-1.438-.451-.737.173-.643 1.121-.402 1.387.72.735 2.829.471 2.268 2.145-.398 1.159-1.194 2.251-2.268 1.417-2.138-1.666-2.064-4.498-1.311-7.159.078-.252 0-1.418-.642-2.052-.23-.24-.279-.799-.142-1.037m-1.369 1.625c.319.341.717.64.928 1.05.509 1.007-.443 1.438-.928 2.044-.433-.619-1.045-1.26-.87-2.044.094-.41.55-.709.87-1.05m-37.671-35.903a1.641 1.641 0 0 0-.118-.103c-.041-.041-.072-.112-.072-.213 0-.185.081-.459.244-.759 1.153-2.259 5.989-5.814 10.836-4.533.309.413 8.225 10.824 11.227 14.778-.891-.24-1.8-.319-2.716-.174-2.517.365-4.957 2.18-7.14 5.147a26587.737 26587.737 0 0 1-12.261-14.143m7.059 18.782c.746-2.243 1.08-4.584 1.138-6.889l3.497 4.029a.802.802 0 0 0 .654.271.787.787 0 0 0 .606-.349c2.079-3.126 4.383-4.954 6.673-5.282 1.376-.205 2.728.145 4.041 1.033.677.851 1.197 1.888 1.534 3.082.312 1.085.474 2.32.474 3.677 0 3.425-1.083 7.578-3.526 11.824-4.197-.689-8.194-1.397-11.693-2.012l-1.387-.244c-2.721-.479-4.189-.86-5.355-1.166a33.745 33.745 0 0 0-1.41-.343c2.48-2.342 3.93-5.095 4.754-7.631m-50.623 22.372c.136-1.693.727-2.872 1.873-3.706 2.99-2.181 10.056-2.024 20.983.458-.165 4.604-.165 7.115-.059 8.492.095 1.637.327 3.402.966 4.071 1.44 1.503 4.283 1.332 7.072 1.124 2-.145 4.272-.31 4.956.379.104.105.254.312.211.817-.051.763-.325 1.298-.847 1.658-2.239 1.585-8.491-.121-13.522-1.493-2.259-.614-4.391-1.195-6.128-1.499-5.702-.98-12.048-1.828-15.189.647-.215.168-.388.365-.57.556-.116-3.591.025-8.609.254-11.504m24.636 6.622c1.055-1.267 2.591-1.549 5.384-1.936a53.735 53.735 0 0 1 5.469-.492c.462.434.939 1.904.994 4.018.011.393.003.769-.017 1.134-1.299-.804-3.458-.659-5.748-.49-2.295.165-4.901.355-5.775-.608-.31-.345-.404-.882-.307-1.626m-15.768 13.336c-4.809-.828-8.432-2.936-8.863-5.151.094-1.139.515-1.993 1.293-2.617 2.514-1.964 8.183-1.318 13.936-.322 1.668.284 3.763.862 5.977 1.461 5.907 1.612 12.014 3.281 14.866 1.27.074-.061.13-.119.194-.173.015-.01.04-.01.053-.023 1.387-.976 1.815-3.853 1.747-6.233-.019-.901-.163-2.671-.751-4.004 5.963-.01 11.189 1.065 17.098 2.424-16.469 13.812-36.701 14.877-45.55 13.368m70.169-10.384c-9.196-1.03-16.141-2.649-22.172-4.054-3.245-.753-6.252-1.455-9.236-1.976-.033-3.625.884-7.534.317-11.155-.018-.081-.811-.013-1.283-.013.187 3.496-1.019 7.302-.788 10.872-4.978-.761-10.008-.993-16.082-.135-2.201.308-4.026.601-5.441 1.641a34.85 34.85 0 0 1-.038-1.82c0-2.125.086-5.685.35-11.609l.015-.429c.19-4.333 6.439-5.048 11.639-4.88 7.137.237 8.349.55 10.56 1.125 1.187.31 2.667.695 5.401 1.181.15.084.317.165.453.236 1.293.461 2.341 3.061 2.374 4.779.091 3.519-1.712 7.147-.198 10.604.06.123.567.038.882.038-.77-4.491 2.546-9.329.079-13.605-.177-.322-.096-1.152.248-1.377 7.213 1.262 16.023 2.778 24.481 3.876-.483.525-1.462 1.816-1.672 2.419-.655 1.917.995 3.798-.427 5.771-.618.875.687 2.216.515 2.888-.348 1.422-2.987 2.573-1.861 3.975.903 1.105 1.407-1.882 2.051-1.574 1.019.509.286 2.667-.167 3.222m1.805-9.442c.563-.207 1.019 1.131 1.235 1.887.142.454-.418 1.439-.794 1.321-1.47-.431-2.036-2.6-.441-3.208m31.517 10.167c-.005.03.026.051.038.084-3.126.162-6.485.25-10.098.25-.54 0-1.063-.014-1.597-.014-.53 0-1.052.014-1.59.014-6.871 0-12.786-.327-18.017-.841-.166-.459-.451-2.008.152-2.062.779-.071 1.808.959 2.235.305.978-1.532-.995-2.655-2.247-3.483.319-.346.791-.969.905-.901 2.099 1.298 5.756 1.699 6.141-1.191.347-2.718 2.026-5.728.55-8.494-.008-.074-.021-.126-.033-.177 3.707.342 7.224.548 10.316.548.512 0 1.058-.016 1.59-.026.533.01 1.08.026 1.597.026 3.079 0 6.577-.203 10.278-.544l.026.229c0 .345.533 1.371-.882 1.516-3.101.291-4.09 7.809-2.424 7.862 1.149.058.581-1.216.839-1.793.12-.263 2.573.561 3.486 1.317-.821 1.5-1.128 3.258-1.249 4.999-.031.637.028 2.204-.016 2.376m1.39 0v-.355c.207-1.732.405-4.374.937-5.316.672-1.162 1.669.94 1.763 1.208.35.995 1.169 3.532 1.211 4.194-1.267.101-2.567.195-3.911.269m30.796-4.779c-6.741 1.574-14.624 3.412-25.541 4.388.11-.116.155-.256.092-.412 0 0-.564-4.729-3.266-7.072.85-.989 2.467-3.088 3.123-3.007.373.033.076 1.909.419 2.171.22.172 1.308.187 1.343-.11.196-1.997-.971-7.266-6.132-6.71l.119-.928.013-.257c8.092-.841 16.996-2.249 24.82-3.59-.237.106-.398.254-.385.507.034 1.043 1.147 1.502 1.995 1.351.251-.045.214.548.023.779-.332.348-1.498.571-1.404 1.935.274 4.573 3.384 2.352 3.564 2.824.34.902-1.903.413-1.903 1.253.018 1.161 2.667-.09 2.745.177.396 1.286-3.08.441-3.05 1.689.026 1.283 3.51-.064 3.547.199.309 1.266-1.975.409-1.931 1.649.032.52.867.463 1.307.34.951-.272 1.894-.576 2.653-1.225.339.334.479.786.641 1.209.216.586.091 1.22.216 1.922-.011.084.004.152.012.226-.986.22-1.992.458-3.02.692m47.992 14.438c-8.85 1.509-29.075.445-45.539-13.371 5.909-1.359 11.134-2.434 17.097-2.424-.59 1.332-.73 3.103-.757 4.004-.064 2.38.363 5.258 1.749 6.232.016.013.035.013.058.023.067.055.117.113.185.174 2.856 2.013 8.966.342 14.873-1.27 2.221-.598 4.313-1.178 5.976-1.462 5.753-.995 11.427-1.641 13.927.322.786.625 1.204 1.478 1.298 2.618-.437 2.216-4.052 4.326-8.867 5.154m9.128-8.457a5.274 5.274 0 0 0-.571-.556c-3.144-2.476-9.492-1.625-15.181-.648-1.742.306-3.877.885-6.126 1.5-5.033 1.372-11.293 3.078-13.533 1.493-.521-.36-.789-.895-.848-1.658-.037-.506.1-.712.214-.818.681-.688 2.953-.523 4.954-.378 2.789.208 5.631.378 7.07-1.124.635-.669.866-2.434.972-4.071.107-1.377.104-3.887-.056-8.493 10.922-2.482 17.984-2.64 20.973-.457 1.145.834 1.742 2.013 1.878 3.705.231 2.899.37 7.917.254 11.505" style="fill:#6e1e6f;fill-rule:nonzero" transform="matrix(.48738 0 0 .48738 -38.983 -116.451)"/></svg>