<svg xmlns="http://www.w3.org/2000/svg" width="154" height="157" fill="none"><g filter="url(#a)"><path fill="#fff" d="M13 0h128v128H13z"/><path fill="#9B0D14" d="m30.087 76.835-.168.58a.936.936 0 0 0-.278-.14 1.204 1.204 0 0 0-.318-.044.906.906 0 0 0-.711.29 1.158 1.158 0 0 0-.263.793.727.727 0 0 0 .194.53.707.707 0 0 0 .525.192c.1 0 .2-.015.297-.044.106-.031.209-.075.305-.13l-.064.651a3.582 3.582 0 0 1-.355.083 2.44 2.44 0 0 1-.334.023 1.214 1.214 0 0 1-.923-.349 1.373 1.373 0 0 1-.334-.975 1.87 1.87 0 0 1 .11-.622 1.5 1.5 0 0 1 .286-.512c.136-.163.308-.291.504-.374.213-.083.441-.123.67-.118.139 0 .277.013.413.04.15.033.298.075.442.126h.002Zm.464-.1h.683l-.199 1.06h.78l.203-1.06h.684l-.533 2.819h-.687l.227-1.194h-.782l-.224 1.194h-.685l.533-2.82Zm2.761 0h.672l-.537 2.819h-.67l.535-2.82Zm1.296 0h.827l.386 1.43c.036.126.063.236.083.329.019.092.029.174.04.26h.03a5.175 5.175 0 0 1 .087-.595l.266-1.425h.612l-.535 2.82h-.82l-.428-1.576a2.328 2.328 0 0 1-.083-.456h-.027c0 .103-.025.203-.034.298-.01.094-.03.177-.045.259l-.278 1.475h-.616l.535-2.82Zm4.026.552-.558 1.133h.678l-.12-1.133Zm-.336-.553h.832l.406 2.82h-.666l-.066-.6h-.992l-.302.6h-.699l1.487-2.82Zm3.042 0h.674l-.306 1.572a1.78 1.78 0 0 0-.046.396.369.369 0 0 0 .217.349c.044.019.091.028.139.028a.367.367 0 0 0 .322-.174c.104-.197.174-.41.207-.63l.305-1.544h.649l-.323 1.755c-.035.322-.17.624-.386.865-.221.193-.51.291-.803.272-.267.018-.53-.07-.732-.243a.937.937 0 0 1-.255-.703v-.193c0-.058.019-.127.029-.183l.305-1.565.004-.002Zm2.78 0h.825l.398 1.428a3.568 3.568 0 0 1 .123.588h.03c.004-.087.014-.174.028-.26a6.94 6.94 0 0 1 .058-.334l.269-1.425h.612l-.54 2.823h-.83l-.426-1.576a3.008 3.008 0 0 1-.083-.456h-.025c-.012.103-.027.203-.037.298-.01.094-.029.177-.044.259l-.278 1.475h-.616l.536-2.82Zm2.95 0h.67l-.536 2.82h-.67l.535-2.82Zm1.697 0 .144 1.524c0 .074.012.147.016.216.004.07 0 .141 0 .21v.294h.017a2.86 2.86 0 0 1 .23-.614l.76-1.63h.706l-1.395 2.82h-.813l-.33-2.82h.665Zm2.267 0h1.772l-.102.524h-1.1l-.107.566h1.037l-.094.508h-1.041l-.13.695h1.142l-.103.527h-1.811l.537-2.82Zm2.86.516-.12.659h.24a.622.622 0 0 0 .362-.093.329.329 0 0 0 .126-.274.262.262 0 0 0-.087-.219.399.399 0 0 0-.26-.073h-.261Zm-.555-.516h.95c.238-.018.475.043.674.174a.622.622 0 0 1 .228.525.7.7 0 0 1-.181.5.786.786 0 0 1-.51.215c.065.043.119.1.158.166a.818.818 0 0 1 .091.282l.193.966h-.66l-.178-.906a.28.28 0 0 0-.089-.166.356.356 0 0 0-.21-.05h-.12l-.21 1.122h-.66l.532-2.82-.008-.008Zm4.183.064-.154.549a1.407 1.407 0 0 0-.28-.105 1.318 1.318 0 0 0-.29-.032.668.668 0 0 0-.344.073.237.237 0 0 0-.12.214c0 .103.091.193.269.278l.17.085c.165.078.31.192.426.332.08.124.12.269.114.416a.925.925 0 0 1-.316.735c-.24.195-.545.293-.854.276-.147.001-.293-.011-.438-.036a2.25 2.25 0 0 1-.404-.118l.145-.58c.096.055.199.099.305.13.094.03.192.045.29.046a.724.724 0 0 0 .405-.098.285.285 0 0 0 .15-.255c0-.135-.13-.264-.387-.386-.066-.03-.116-.05-.153-.07a.746.746 0 0 1-.318-.264.732.732 0 0 1-.106-.398.836.836 0 0 1 .293-.662 1.11 1.11 0 0 1 .773-.257c.16-.001.32.01.478.033.124.015.246.046.361.092l-.015.002Zm.668-.064h.67l-.535 2.82h-.67l.535-2.82Zm1.11 0h1.947l-.104.545H60.5l-.43 2.275h-.679l.433-2.275H59.2l.1-.544Zm2.003 0h.732l.236.821.029.118c.017.07.029.137.044.203.038-.078.075-.143.108-.203.033-.06.058-.099.075-.126l.53-.813h.783l-1.243 1.756-.193 1.064h-.666l.193-1.064-.612-1.755h-.016Zm5.367 1.105a.829.829 0 0 0-.12-.479.404.404 0 0 0-.34-.168.462.462 0 0 0-.29.103.94.94 0 0 0-.243.297 1.545 1.545 0 0 0-.145.386 1.894 1.894 0 0 0-.054.446.804.804 0 0 0 .124.473.386.386 0 0 0 .332.17.458.458 0 0 0 .286-.098.942.942 0 0 0 .25-.305c.066-.122.114-.252.145-.387.036-.145.054-.294.055-.444v.006Zm-.418-1.17a1.056 1.056 0 0 1 .817.32c.206.25.31.568.292.89 0 .203-.028.404-.083.6a1.726 1.726 0 0 1-.228.515 1.413 1.413 0 0 1-.496.467c-.196.11-.417.166-.642.162a1.068 1.068 0 0 1-.822-.324 1.295 1.295 0 0 1-.294-.898c0-.195.025-.39.074-.58.043-.172.113-.337.208-.488.126-.205.3-.376.508-.496.204-.113.434-.17.666-.166v-.002Zm1.86.066h1.682l-.102.523h-1.014l-.112.61h.971l-.098.53h-.975l-.217 1.156h-.67l.535-2.82Zm3.712.507-.141.755h.177a.58.58 0 0 0 .386-.11.386.386 0 0 0 .132-.305.295.295 0 0 0-.1-.247.425.425 0 0 0-.29-.085l-.165-.008Zm-.58-.508h.748c.275-.019.549.049.784.194a.67.67 0 0 1 .249.579 1.024 1.024 0 0 1-.29.772 1.103 1.103 0 0 1-.794.276h-.359l-.193 1.028h-.666l.533-2.82-.012-.029Zm3.897 1.105a.829.829 0 0 0-.12-.479.408.408 0 0 0-.341-.168.462.462 0 0 0-.29.103.912.912 0 0 0-.242.297 1.549 1.549 0 0 0-.146.386 1.995 1.995 0 0 0-.054.446.804.804 0 0 0 .123.473.386.386 0 0 0 .334.17.461.461 0 0 0 .286-.098.966.966 0 0 0 .25-.305c.066-.121.115-.252.144-.387a1.89 1.89 0 0 0 .056-.444v.006Zm-.417-1.17a1.046 1.046 0 0 1 .815.32c.207.25.311.567.293.89 0 .203-.028.404-.083.6a1.773 1.773 0 0 1-.227.515 1.446 1.446 0 0 1-.497.467c-.196.11-.418.166-.643.162a1.065 1.065 0 0 1-.82-.324 1.286 1.286 0 0 1-.294-.898c0-.195.024-.39.071-.58.044-.172.115-.337.21-.488.125-.206.3-.377.509-.496.203-.114.433-.17.666-.166v-.002Zm1.925.066h.676l-.43 2.259h1.04l-.11.56h-1.713l.537-2.82Zm2.105 0h.67l-.535 2.819h-.67l.535-2.82Zm1.11 0h1.947l-.104.544h-.641l-.433 2.275h-.678l.433-2.275h-.624l.1-.544Zm2.355 0h.67l-.535 2.819h-.672l.537-2.82Zm3.342.1-.166.58a.948.948 0 0 0-.28-.14 1.196 1.196 0 0 0-.319-.044.913.913 0 0 0-.71.29c-.181.225-.272.51-.253.799a.72.72 0 0 0 .193.529.702.702 0 0 0 .525.193c.1 0 .2-.016.296-.044.106-.031.209-.075.305-.13l-.066.65a3.323 3.323 0 0 1-.355.082 2.46 2.46 0 0 1-.332.023 1.22 1.22 0 0 1-.925-.35 1.373 1.373 0 0 1-.333-.974c0-.212.036-.422.105-.622.062-.187.159-.36.286-.512.136-.163.309-.29.504-.375.213-.082.44-.122.67-.117.138 0 .277.013.413.04.15.033.297.075.442.126v-.004Zm1.56.452-.558 1.133h.684l-.12-1.133h-.005Zm-.337-.553h.834l.405 2.82h-.666l-.066-.6h-.984l-.302.6H85.3l1.484-2.82Zm2.14 0h.677l-.43 2.26h1.04l-.11.56h-1.713l.535-2.82Zm4.732.064-.154.549a1.403 1.403 0 0 0-.28-.105 1.319 1.319 0 0 0-.29-.032.669.669 0 0 0-.344.073.237.237 0 0 0-.12.214c0 .103.091.193.269.278l.17.085c.165.078.31.192.427.332.08.124.118.269.112.416a.923.923 0 0 1-.315.735c-.24.195-.545.293-.854.276-.147.001-.293-.011-.438-.036a2.248 2.248 0 0 1-.403-.118l.144-.58c.097.055.2.099.305.13.094.03.192.045.29.046a.728.728 0 0 0 .406-.098.286.286 0 0 0 .148-.255c0-.135-.131-.264-.386-.386-.066-.03-.116-.05-.153-.07a.746.746 0 0 1-.318-.264.732.732 0 0 1-.106-.398.836.836 0 0 1 .293-.662 1.11 1.11 0 0 1 .773-.257c.16-.001.32.01.479.033.123.015.245.046.36.092l-.015.002Zm2.698.037-.166.58a.95.95 0 0 0-.28-.14 1.196 1.196 0 0 0-.319-.044.907.907 0 0 0-.71.29c-.182.225-.272.51-.253.799a.729.729 0 0 0 .193.529.711.711 0 0 0 .527.193c.1 0 .2-.016.295-.044a1.4 1.4 0 0 0 .305-.13l-.067.645a3.582 3.582 0 0 1-.355.083c-.11.016-.222.023-.333.023a1.22 1.22 0 0 1-.925-.349 1.373 1.373 0 0 1-.332-.975c0-.212.035-.422.105-.622.062-.187.159-.36.285-.512.137-.162.31-.29.504-.374.214-.083.442-.123.67-.118.14 0 .278.013.414.04.15.033.297.075.442.126Zm.485-.1h.67l-.537 2.819h-.67l.537-2.82Zm1.297 0h1.773l-.102.523h-1.101l-.104.566h1.035l-.095.508h-1.039l-.131.695h1.141l-.1.527H97.6l.535-2.82Zm3.127 0 .386 1.43a3.347 3.347 0 0 1 .123.59h.029c.005-.088.015-.175.029-.261.014-.093.033-.207.058-.334l.269-1.425h.612l-.537 2.819h-.824l-.429-1.576c-.018-.073-.037-.147-.05-.22a2.334 2.334 0 0 1-.033-.236h-.025l-.037.298c-.012.094-.029.177-.044.259l-.278 1.475h-.617l.537-2.82h.831Zm4.151.1-.166.58a.94.94 0 0 0-.28-.14 1.186 1.186 0 0 0-.318-.044.91.91 0 0 0-.711.29c-.181.225-.271.51-.253.799a.724.724 0 0 0 .193.529.712.712 0 0 0 .526.193c.1 0 .199-.016.295-.044.106-.031.209-.075.305-.13l-.066.65a3.268 3.268 0 0 1-.355.082c-.11.015-.221.023-.332.023a1.217 1.217 0 0 1-.925-.35 1.373 1.373 0 0 1-.332-.974 1.855 1.855 0 0 1 .104-.622c.062-.187.159-.36.286-.512a1.35 1.35 0 0 1 .504-.375c.214-.082.441-.122.67-.117.139 0 .277.013.413.04.15.033.298.075.442.126v-.004Zm.47-.1h1.772l-.102.523h-1.101l-.106.566h1.037l-.094.508h-1.039l-.132.695h1.142l-.101.527h-1.811l.535-2.82Zm4.368.552-.558 1.133h.678l-.12-1.133Zm.496-.553.406 2.82h-.667l-.067-.6h-.985l-.301.6h-.707l1.485-2.82h.836Zm2.061 0 .386 1.431c.036.126.065.236.083.329.017.092.029.174.04.26h.029c0-.077.016-.168.029-.26.014-.093.033-.207.058-.334l.269-1.425h.612l-.537 2.819h-.825l-.428-1.576c-.018-.073-.037-.147-.051-.22a2.331 2.331 0 0 1-.032-.236h-.025l-.037.298c-.012.094-.029.177-.043.259l-.28 1.475h-.616l.537-2.82h.831Zm2.699.545-.326 1.719h.282c.126.003.253-.016.372-.056a.655.655 0 0 0 .267-.184c.092-.106.162-.228.209-.36.051-.142.077-.291.077-.441a.71.71 0 0 0-.164-.5.611.611 0 0 0-.464-.178h-.253Zm-.579-.544h.836c.442 0 .772.1.989.308a1.241 1.241 0 0 1 .322.939c.003.228-.035.455-.112.67a1.332 1.332 0 0 1-.318.508c-.139.137-.307.24-.493.301a2.302 2.302 0 0 1-.707.093h-1.05l.533-2.82Zm3.947 0h.676l-.431 2.259h1.039l-.108.56h-1.713l.537-2.82Zm3.182.552-.558 1.133h.676l-.118-1.133Zm.497-.553.405 2.82h-.668l-.064-.6h-.994l-.299.6h-.707l1.485-2.82h.842Zm.948 0h.627l-.013 1.26c0 .08 0 .208-.016.386-.015.177-.028.374-.046.606h.025c.033-.131.066-.249.099-.36.033-.11.054-.192.079-.271l.57-1.617h.82l-.017 1.545v.386c0 .105-.012.22-.019.315h.025c.019-.094.044-.193.077-.297.033-.105.067-.236.12-.386l.502-1.557H127l-1.062 2.82h-.823l.022-1.491c0-.15 0-.288.011-.423.012-.135.012-.265.021-.386h-.029a14.982 14.982 0 0 1-.202.662l-.551 1.638h-.836l-.04-2.82-.008-.01ZM37.902 49.833c-.087.932.966 2.203-.305 2.755-.175.678-.92 1.352-.58 2.076 1.314-.465 2.803-.593 4.118-1.058 1.402-.17 1.707 1.313 2.497 1.948.525.68.087 1.613-.22 2.163-.773.848-1.435 2.416-2.924 1.993-1.226-.042-2.497.933-3.46 1.908-.701 1.948-.263 4.409-.387 6.612-.13 1.018-.307 1.993-.482 2.968-.263 1.103.745 2.756-.833 3.01-.832-.965-.919-2.123-.743-3.307.612-1.653.131-3.306.176-5.087-.23-.59.079-1.525-.23-2.162-.657.17-1.14.932-1.931.552-.439-.425-.132-1.145-.218-1.696.438-1.145 2.846-.965 2.365-2.798a4.7 4.7 0 0 0 0-2.458c-.745.085-.832 1.143-1.664 1.058a3.702 3.702 0 0 0-.922 1.443c.483.677-.656 1.143.045 1.695-.196.65-.325 1.317-.386 1.993-.701.253-1.62.805-2.366.386-.176-.805-1.27-.72-1.313-1.44 0-.72-1.402-.553-1.095-1.526.34-.133.533-.6.216-.851l-.218-.172c.218-.68.743-.966 1.182-1.443.614-.21 1.578.043 1.971.386 1.752-.805 2.497-2.416 4.38-2.883.832-.936.481-2.59.35-3.613-.744-.965.351-2.07.7-2.96.657-.516 2.015-.468 2.277.508Zm1.972 5.891c-.58.51-1.313.89-1.402 1.613-.436-.298-1.402-.51-1.182-1.06.746-.68 1.62-.298 2.408-.773l.176.21v.01Zm81.901-4.018.175 1.313c.386.263 1.008-.131 1.313.352-.386 1.137-1.969 1.444-2.188 2.67-.088.788-1.49 2.146.132 2.497.131.386.386.745.087 1.14 1.139.086 2.452-.045 2.935 1.226.042.743.965 1.226.699 1.97-.788 1.226-2.232 0-3.153.482-.174-.176-.35.042-.481.174-.253-.045-.833-.045-1.008.301-.132-.044-.305.044-.387-.087-.386.174 0 .439.089.657-.089 1.008-.658 2.014-1.183 2.896.569.045.482.612 1.008.788.656-.386 1.444-.612 2.145-.087.22.481.438.966.438 1.534-.614.35-1.533.262-2.19.305-.569 1.139-.044 3.197-1.577 3.547-1.051.044-.831-1.095-1.663-1.576-.262-.386-.176-.525-.089-.965.045-.263.657-.481.352-.877.305-.386 1.006-.568 1.226-1.095-.176-.525-.966-.218-.832-.919.087-.657.131-1.352.438-1.931l-.131-.131c-.132.579-.659.832-1.184.92-.438-.438-.481-.832-.087-1.314l2.146-1.883c.656.218.701-.483 1.315-.352.787-.35 1.662-.919 2.539-1.226.131-.35.832-.788.483-1.182-.527-.35-1.097-.131-1.578-.386-2.058 1.008-3.329 2.584-5.214 3.862-1.008 1.227-2.452 1.97-3.329 3.283-.436.386-.788-.386-1.182.087-.349-.087-.386-.386-.701-.612.176-.527-.349-.746-.176-1.27 1.14-.263 1.665-1.352 2.542-1.578.569.525.525-.702 1.182-.58-.387-.48.131-1.137.088-1.62-.482-.875-.22-2.014-.701-2.846.35-.307-.22-.58-.262-.875a4.407 4.407 0 0 1-.132-1.49h-.175c.525-.789-.657-1.051-.701-1.84-.087-.35-.132-.787.307-.92.788-.263 1.352.044 1.97.482.175.788.614 1.665.22 2.497.701.481.175-.656.569-.877.043-.262-.131-.656.174-.832-.481-.262.263-.48-.087-.788.788 0 .35-.787 1.182-.745 1.972 1.27-.087 3.373.22 5.08.481-.787.579-2.1 1.576-2.539-.438-.386.386-.656.307-1.095-.131-1.095.965-2.234.481-3.46 0-.35.396-.386.658-.481.481.788 1.006-.614 1.4.386l-.005.01Zm-3.245 19.44a.328.328 0 0 1-.218.386c-.263-.044-.263-.483 0-.614.131-.042.305.089.218.22v.008Zm-2.103-8.89-.083-.316c.045.087.176.132.132.219l-.049.096Zm2.98-2.366c-.089.745-.701 1.008-1.184 1.577l-.174-.088.174-2.19c.176.58.877.483 1.184.7Zm-27.195-6.788c.262.437.175.832.087 1.352-.613.35-.7 1.095-1.05 1.662.787-.386 1.795.265 2.452.528a.773.773 0 0 1-.132 1.095c-.307.35-.874.787-1.181.173-.483.307-1.665-.042-1.447.877.131 1.444 1.578.087 1.972 1.182-.525 1.753-2.54 2.673-2.497 4.634h.921c.131-.436.174-1.181.788-1.4a3.192 3.192 0 0 1 1.838 1.707c.042.483-.095.965-.386 1.352-.743-.042-1.796.132-2.365-.48-1.007.086-.83 1.75-2.057 1.094-.483-.307-.386-1.139-.386-1.664.438-.525 1.008-1.352.79-2.014.743-.439.48-1.447 1.268-1.84a.473.473 0 0 0-.174-.387c-.262.438-.386.48-.876.58-.612-.045-.612-.526-.877-.966v-.384c-.568 1.094-2.101.612-2.758 1.751-.482 1.931-.832 3.862-1.795 5.6l-.307 2.408c-.352.352-.833.352-1.352.352-.483-.307-1.14-.352-1.49-.877.088-.701-.22-1.402.22-2.145.385-.132.217-.657.744-.481.526-.659 1.314-1.229 1.314-2.103.438-.483.876-.966.787-1.665.701-1.05 1.447-1.62 1.578-2.935.788-.263 1.138-1.444 2.059-1.62l.218.131c1.352-.965 2.41-2.67 1.972-4.422a2.318 2.318 0 0 1 .086-1.709c.701-.263 1.84-.35 2.059.614h-.023Zm-32.63 2.933c-2.058 1.796-1.137 4.905-1.575 7.226a5.76 5.76 0 0 0 .57 2.629c.305.832-.922 1.401 0 2.058.305 1.05.262 2.277.386 3.283a.894.894 0 0 1-1.352.483c-.483-.483-.352-1.447-.176-2.059l-.131-.131c-.087.087-.176.174-.307.131-.045-.089.087-.131.131-.22-.525-.48.307-.35.263-.788.22-2.365-.744-4.634-.386-6.963a3.972 3.972 0 0 1 .22-2.366c-.176-.131.042-.438-.22-.525-.481.438-1.314.525-1.839.087-.262-.386-.044-.481-.22-.875.22-.351.788-.307 1.184-.483.173.263.525.132.788.176l.204-.26c-.386-.132.09-.308 0-.526-.087-.921-.525-1.796-.218-2.76-1.665-.386-3.33.439-4.424 1.708-.965.965-1.226 2.147-1.972 3.153.439.131 1.271.176 1.665-.305-.744-.438 0-1.008-.087-1.578.48.176 1.182-.35 1.665.176.438.875.087 2.584.307 3.669.35-.087.386-.307.699 0 .483-.218 1.008.044 1.352.386.567.92-.746 1.05-.396 1.972-.35.612.264 1.006.088 1.664.387 1.352-.262 2.584-1.27 3.372h-.247c0-.131-.132-.176-.219-.307-1.533-.044-2.935 3.111-4.161.701a.86.86 0 0 1 .438-1.008c1.313.352 2.629-.218 3.723-.788-.57-.263-.482-1.006-.614-1.402-.386.58-1.351.966-1.664 1.578-.386.35-.832 0-1.27 0-.088-.386-.437-.657-.306-1.14l.612-.787c-.218 0-.263-.263-.218-.439.58-.262.176-.876.612-1.27-.386-.35-1.05-.526-.788-1.27a9.37 9.37 0 0 1 1.093-2.034c-.438-.263-1.182.612-1.489-.308-.828 1.66-.654 3.936-.786 5.687a21.563 21.563 0 0 1-.7 3.986c-.387.439-.833.22-1.271 0-.744-.579-.176-1.489-.481-2.19-.131-.919-.386-2.014-.044-2.933a4.409 4.409 0 0 1 0-2.497c-.439-.48.086-.965.13-1.444.088-1.931.482-3.418.58-5.343.35-.265.218-.877.701-.966.481.131 1.006.35 1.182.875.087 1.184-.788 2.058-.701 3.153-.087 1.752-1.444 3.067-.966 4.994a1.122 1.122 0 0 0 0 .92c-.087.175-.262.385-.087.579.087.13.219.042.35.086.131-.919.614-1.351.438-2.365.342-2.814 1.088-5.307 2.928-7.448.875-1.402 2.76-1.931 4.422-2.366.307.131.832.218 1.095-.044 1.84.088 2.016 2.234 2.76 3.46v-.004Zm-11.824 9.986-.088.089v-.483c.131.044.044.263.088.386v.008Zm6.612-.131a1.316 1.316 0 0 1 0-1.271c.528.22-.086.877 0 1.27Zm.263-1.883a.34.34 0 0 1-.263.386h-.13c-.043-.131.13-.614.385-.386h.008Zm-.656-.966c-.043-.307.088-.7.175-1.008.386.307-.131.657-.175 1.008Zm-1.313-1.487c-.176.35-.387.132-.657.087-.265-.35.386-.525.386-.874.305.086.218.48.263.787h.008Zm51.549-7.183c.219 1.351-.614 2.278-1.052 3.373.57.132.525-.525.965-.832.922.218 2.059.087 2.584 1.006-.218.701-.436 1.315-1.182 1.665-1.008.438-2.234-1.05-2.583.525-.045 1.27-.439 2.103-.387 3.416.657-.043 1.138.58 1.708.483.614 1.008 1.971 1.226 2.935 1.796.743-.307 1.095.48 1.489.874a1.51 1.51 0 0 1 0 1.491c-.176.657-1.008.744-1.576.568-1.095-.386-1.447-2.364-2.848-1.97-.57-.57-1.401-.57-2.015-.965-.876 1.27-1.008 4.16-3.24 3.723-.262-.439-.79-1.053-.483-1.578-.218-.743.386-1.182.386-1.838.09-.386.387-.439.701-.614l.483.131c.919-1.576.919-3.24 1.489-4.95-.656.483-.877 1.62-1.315 2.453-.612.132-1.137.483-1.838.483a3.193 3.193 0 0 1-1.491-2.057c.218-.482.386-1.351 1.182-1.181 1.577-.176 3.591-1.008 4.117-2.673.131-1.095-.218-2.059-.35-2.935.174-.526.305-1.313 1.051-1.352.701.22 1.095.131 1.27.966v-.008Zm-30.702-.307c.263 1.884-1.971 2.896-2.19 4.73a.33.33 0 0 0 .387.132c.175-.877 1.226-.58 1.489-1.402a1.695 1.695 0 0 0 1.278-.604c.436.262 1.095.656 1.095 1.313-.089.877-1.184.044-1.402.965-1.71-.579-2.76 1.227-3.862 2.059-.481.131-.833-.218-1.14-.35-.35 1.095-1.313 2.146-1.4 3.328.387-.612 1.182-.481 1.663-.387l1.315 1.352c.966-1.27 1.14-2.802 1.14-4.422.262-.351.743.043 1.005-.089.526.386.966.79.877 1.49-.131 1.27-1.27 2.189-1.489 3.328-.351.176-.351.525-.175.788.35.527 1.533.483 1.402 1.27.13.308.57 0 .386.44.919-.045 1.489.438 2.452.48.481.307.92.386 1.352.263.218-.087.307.175.48.307-.436.876-1.35.22-1.969.876-.92-.22-1.578 1.05-2.365.132-.58-.176-.219-.922-.877-.877-.043-.438-.568-.386-.875-.612-.351-.439-.745-.877-1.008-1.27-.7.918-1.838 1.225-2.715 1.75-.044-.386-.307.045-.525 0-.877-1.401-.307-2.933-.483-4.424-.218.308-.612.746-.48 1.184-.92.526-1.096 1.445-1.403 2.277a2.643 2.643 0 0 1-2.365.788c-1.27-.7-1.352-2.145-1.27-3.547.35-.439.526-1.051.966-1.402.219-.263.788-.174.788.22.386 1.139-.482 1.971.132 3.022 1.709-.483.044-1.752.262-2.715-.087-1.71.746-2.804.788-4.469-.743-.087-1.576-.218-1.883-.965-.087-.526-.262-1.269.132-1.707 1.27-.526 2.846.13 3.636-1.271.568-.087 1.137.131 1.313.701.176 1.313-1.665 1.352-1.533 2.76-.386.349-.263.919-.481 1.351.48.35 1.489-.832 1.796.386.262.58.35-.262.699.132-.35-.612.351-.744.57-1.313a.48.48 0 0 0 .7-.176.449.449 0 0 0-.386-.612c.187-.077.353-.198.483-.352l.087.087c.57-.305.176-1.226.612-1.576.131-.745 1.184-1.446.57-2.19.483-.35.262-1.007.79-1.351.567-.132 1.268-.701 1.62.174l.011-.002Zm-3.198 13.622c.045.386-.48.218-.57.482l-.217-.22.535-.48.262.218h-.01Zm-.351-1.182a1.51 1.51 0 0 1-1.224 1.05c-.176-.57.131-1.095.436-1.533.307.089.701.131.788.483Zm-2.897-3.681c-.088.701-.745 1.446-1.27 2.016.35-.614-.132-1.489.48-2.016h.79Zm18.36-6.087c-.045.58-.57 1.008-.922 1.352-.657.263-1.182-.176-1.752-.263.045-.656-1.094-1.181-.218-1.796-.57-.349-.089-.7 0-1.094a1.04 1.04 0 0 1 1.576 0c.352.614 1.352 1.094 1.315 1.795v.006Z"/><path fill="#9B0D14" d="M84.723 60.985c.438 1.008-.832 1.351-1.184 1.971l-.48.174-.219-.58-.264.09c.264-.966-1.445-2.41.175-3.067.92 0 1.447.832 1.972 1.402v.01Z"/></g><defs><filter id="a" width="154" height="157" x="0" y="0" color-interpolation-filters="sRGB" filterUnits="userSpaceOnUse"><feFlood flood-opacity="0" result="BackgroundImageFix"/><feColorMatrix in="SourceAlpha" result="hardAlpha" values="0 0 0 0 0 0 0 0 0 0 0 0 0 0 0 0 0 0 127 0"/><feOffset dy="16"/><feGaussianBlur stdDeviation="6.5"/><feColorMatrix values="0 0 0 0 0 0 0 0 0 0 0 0 0 0 0 0 0 0 0.03 0"/><feBlend in2="BackgroundImageFix" result="effect1_dropShadow_185_161"/><feBlend in="SourceGraphic" in2="effect1_dropShadow_185_161" result="shape"/></filter></defs></svg>