<svg xmlns="http://www.w3.org/2000/svg" width="154" height="157" fill="none"><g filter="url(#a)"><path fill="#fff" d="M13 0h128v128H13z"/><path fill="#004098" fill-rule="evenodd" d="M43.093 67.916v-.08l-.018-.081-.018-.08-.026-.08-.045-.081-.027-.027-.071-.053-.036-.018-.044-.01h-.08l-.028.01-.053.035-.036.054-.027.072.018.053.036.054.09.098.07.09.027.053.01.053.044.018v.054l.018.044-.036.018h-.08l-.08-.027h-.054l-.072.072-.053.098.107.116.027.027.071.035.045.01.053.017.045-.009.036-.009.018-.026.044-.063.027-.036.036-.026.053-.018.027-.01.027-.026-.08-.187.035-.134Zm-.607.598-.026.062.133.188.054.053.053.045.08.044.081.027.107.01.027-.028.027-.044.027-.099-.108-.08-.124-.08-.143-.063-.143-.053-.018.027-.027-.01Zm.759.33.036.134.008.071v.072l.045.009.027-.027.018-.027.018-.045v-.134l-.01-.062-.017-.232.009-.116.018-.134.026-.125.036-.125.054-.125.062-.125.045-.009.053.01.01.035.017.036.036.071.036.071.009.045v.036l.008.018.027.008.027-.116.018-.116v-.053l-.018-.107-.027-.045-.018-.018-.026-.026-.072-.027-.071-.018h-.036l-.027.009-.027.018-.035.018-.045.044-.045.072-.035.071-.072.17-.062.312.009.062v.063l-.01.116-.008.125v.062l.009.054Zm.009.357-.027.053.009.143.098.09.054.071.053.063.054.035.053.027h.054l.027-.009.018-.027.017-.026.018-.036.018-.054.009-.062-.107-.063-.116-.071-.107-.063-.098-.071h-.027Zm1.392-.295-.053-.062-.063-.054-.062-.062-.018-.027-.018-.036.027-.07.062-.126.09-.187-.027-.09-.09-.044-.026.009-.027.009-.045.044-.044.054-.036.071-.071.152-.054.125-.062.009-.054-.01-.036-.017-.026-.018-.027-.035-.018-.036-.036-.08-.026-.036-.027-.027-.018-.027-.01-.044-.035-.01h-.035l-.036.01-.027.017-.054.072-.017.053-.018.054-.01.053-.008.054v.036l.009.035.053.018h.036l.036-.027.027-.035h.026l.045.044.08.134.036.01.036.008h.044l.036-.009h.027l.027.01.026.044-.053.151-.027.143-.018.143-.018.143.01.036v.08l-.01.045.045.026.027-.026.053-.018.08-.322.09-.366.009-.008.062.026.063.045.071.045.08.053v.08l.027.09.018.089.027.09-.054.035-.062.018-.01.027.126.035.027-.035.035.017.027-.044.018-.036.009-.045.009-.035v-.09l-.018-.08-.036-.08-.035-.072-.045-.062-.036-.054ZM30.98 69.656l.019.027-.027.045-.018.044-.018.054-.009.053-.017.134v.134l.017.268.01.205-.108.09-.125-.161-.053-.08-.036-.08v-.072l.018-.116.036-.143.044-.16.098-.304.072-.197v-.009h-.09l-.089.01-.339.035-.08.009-.09-.009-.035-.009-.027-.009-.125-.071-.063-.027-.062-.018-.053-.027-.027-.018-.018-.026-.027-.027-.018-.045h.018l.036.01.071.026.09.036.053.018.098.017h.205l.116-.017.215-.036.205-.054.071-.018.063-.035.053-.045.018-.027.01-.026-.072-.036-.054-.045-.062-.053-.054-.072.018-.098.009-.098.116.009.063.009.044.018.054.026.053.036.116.09.063.044.062.036.054.018.044.008.09-.017.089-.045.09-.053.088-.072.099-.062.089-.063.09-.044.044-.018.044-.01.134.063.01.134-.144.107-.151.09-.152.07-.072.045-.053.045v.018l.152.152.053.089.018.045-.009.035-.009.045-.053.036h-.036l-.036-.01-.044-.017-.099-.045-.098-.062-.098-.054-.125-.09-.053.028-.063.017-.152.036-.071.018-.063.027-.035.027-.01.017v.018l.046.036.035.054v.035l-.035.09-.045.044ZM33.551 71.71l-.062-.01h-.053l-.108-.009-.107-.017-.053-.018-.063-.027.018-.027.01-.018.07.01h.072l.062-.01.054-.018.125-.035h.125l.071-.152.036-.08.027-.08-.01-.01-.07.018-.09.027h-.044l-.054-.009-.045-.009-.044-.036-.027-.008-.036-.054v-.072l.01-.035.035-.072.053-.071.188-.188.053-.062.036-.053v-.01l-.09-.017-.062-.018-.027-.018-.017-.018-.01-.035v-.045l.019-.045.008-.018.018-.017.045-.027.054-.018.062-.01h.054l.125-.008.116-.009.035-.018.036-.026.054-.09.098-.196.089.018.036.018.044.026-.009.054v.09l.01.026.017.027.018.018.09.053.053.036.018.018.018.026.035.072-.062.062-.054.027-.053.018h-.045l-.107-.009-.063-.009-.08.009-.071.027-.072.035-.071.054-.063.063-.125.142-.107.125v.018l.063.01h.062l.045-.01.045-.027.044-.035.027-.045.053-.125.054.009.071.027-.008.044v.036l.008.027.018.027.027.035.036.063-.036.044-.107.054-.053.009-.018.036-.027.035-.054.08-.053.09-.018.045v.044l.009.036.044.009.045.018.027.017.018.036-.018.09-.063.017-.062.01-.054.017-.044.01-.027.044-.018.053-.027.107-.035.116-.027.054-.027.045-.027.026-.018.01-.018.017.01.018.633.303.018.018.009.027v.027l-.009.036-.09.053-.053-.009-.062-.009-.16-.018-.081-.017-.072-.018-.071-.027-.054-.036-.455-.428-.16-.143-.063-.036-.071-.035-.072-.018-.08-.018-.152-.027-.071-.018-.063-.026v-.045l.027-.018.027-.009.053-.009.063-.009.018-.009.026-.017v-.224l.018-.071.027-.054.036-.053.044-.054.054-.062.063-.09.017-.026.01-.036v-.071l-.01-.063.01-.036.017-.026.027-.018h.062l.036.018.072.026.053.045.009.063-.009.035-.009.054-.062.035-.054.036-.062.036-.054.036-.053.044-.045.054-.036.08-.018.098.063.179.044.107.036.062.036.027.062.045.188.107.178.107.09.036-.01-.01v-.044l.01-.053.07-.197.045-.107ZM36.925 72.7l-.008-.036-.01-.053v-.116l.072-.036.08-.045.045-.009.036-.017h.044l.045.008v-.035l.027-.01v-.124l-.08-.018h-.045l-.018.009-.009.009h-.143l.018-.25.054-.072.062-.062.072-.062.062-.063.071-.098.072-.116.062-.107.045-.107.018-.054.018-.107-.018-.107-.01-.045-.017-.044-.054-.072-.035-.027-.036-.026-.045-.018-.044-.01h-.098l-.108.037-.053.026-.09.072-.097.062-.09.063v.053h-.018l-.017.018-.036.036-.01.044v.045l.019.009.026.009.08-.036.072-.044.134-.099.08-.044.08-.036.099-.027h.125l.045.054.008.044v.045l-.017.098-.027.099-.045.098-.053.089-.054.08-.062.063-.054.044-.036-.026.018-.063.045-.071.018-.036.026-.027.027-.018.036-.009v-.142l-.045-.027-.017-.018-.01-.027h-.053v-.044l-.107-.045h-.018l-.009.045-.009.035-.026.063-.036.053-.036.036-.036.045-.026.035-.018.045v.053l.018.027.08.054.027.018.009.026v.027l-.027.036v.009l-.01.027-.035.035-.035.018h-.063l-.009.018-.018.018h-.026l-.018-.375-.08-.036h-.045l-.036.036-.027.045-.036.071-.026.072-.018.08-.01.071v.072l.01.035.018.027.009.018.035.009v.036l.08.035.036-.009.027-.008.018-.027.018-.018.09.027h.115l.009.071-.009.071-.018.063-.026.062-.036.045-.09.072-.053.008v.045l.018.054.018.017.044.036.045.045-.036.16-.09.018-.088.027-.072.036-.035.009-.045.009v.035l.009.027.027.027.017.027.027.044.295-.062.152-.018h.08l.08.009.072.009.062.026.072.01h.07l.028-.01.026-.017.036-.036.036-.045.018-.017.027-.01-.01-.044-.008-.027-.054-.053-.027-.018-.035-.01-.09-.008h-.374Zm-.5-.562h-.008l-.045.035-.036.045-.062.09-.063.106-.044.099-.054.107-.062.098-.072.089-.044.036-.045.035.01-.107.035-.196.035-.08.063-.17.053-.16v-.063l-.008-.054-.018-.053v-.054l.098-.357.036-.044.035-.054.063-.08.035-.045.027-.045.018-.053V71.2l-.044-.044h-.072l-.062.026-.286.108-.063.026-.053.045-.045.045v.089l.045.053.045.01h.044l.125-.036.08-.01-.089.385-.035.017h-.036l-.08.018-.08.01-.072.035-.018.027-.018.035-.018.054-.018.062-.009.063v.053l.018.054.01.018.017.009.027.018h.027l.053.009.116-.027.072-.08.008.017v.09l-.017.08-.045.16-.027.08-.018.09-.017.197.044.035.045-.009.035-.026.08-.08.072-.117.08-.134.135-.276.098-.206v-.035Zm-.633.116-.036.008-.018-.044v-.036l.01-.035.026-.027.107-.09.036.01.027.008-.027.063-.036.053-.044.054-.045.036ZM39.148 71.343l.08-.018.072-.017h.062l.063.008.044.027.036.045.036.053.027.08-.036.117-.054.125-.026.053-.036.054-.045.044-.044.036.008.018.018.009.063-.009.053-.018.107-.044.161-.045.125-.027h.107l.116.009.01.045v.08l-.01.036-.071.142-.098.01-.215.053-.098.036-.205.08-.17.08-.089.054-.045.018-.044.009-.098.062-.099.072-.089.053-.053.018-.063.009-.062-.063-.027-.044-.018-.063.09-.125.097-.116.054-.035.054-.027.062-.018.063-.027.062-.035.054-.036.071-.072.045-.089.044-.107.045-.08.009-.054v-.053l-.018-.018-.045.026-.035.027-.072.072-.044.035-.045.018-.063.01h-.062l-.045-.036-.009-.027-.017-.036.017-.063.027-.053.036-.045.045-.044.098-.08.044-.045.045-.054ZM41.808 70.04l.044.054.01.035-.01.027v.045l-.035.071-.018.027-.063.044-.053.054-.063.054-.017.026-.027.036-.018.09.009.053.009.071.027.107.017.036.08-.027h.072l.063.018.053.018.116.063.054.017.071.018h.232l.223-.009.224-.017.24-.01.018.045-.044.027-.036.036-.018.035-.027.036-.026.071-.018.027-.027.036-.08.053-.08.036-.081.018h-.08l-.08-.009-.08-.027-.081-.035-.09-.045-.151-.09-.152-.097-.143-.09-.071-.035-.063-.018-.035.026.026.108.018.098-.018.178-.053.161-.054.17-.018.071-.017.045-.027.035-.027.045-.036.027-.044.026h-.09l-.035-.017.017-.01.09-.231.071-.215.018-.107.009-.116v-.125l-.018-.142.027-.018-.08-.125-.063.062-.062.045-.072.044-.071.027-.063-.044-.026-.027-.018-.045.17-.196.089-.107.08-.107-.036-.063-.018-.071-.035-.125-.027-.134-.045-.134-.018-.045-.026-.044-.063-.08-.062-.072-.018-.036-.01-.026v-.063l.108-.054.036.018.089.036.036.027.053.071.036.072.036.089.017.098.027.179.027.151.036.018v-.018l.08-.035.08-.063.09-.062.089-.045Z" clip-rule="evenodd"/><path fill="#004098" fill-rule="evenodd" d="m37.229 53.867-.527.017-.517.036-.26.036-.25.035-.258.036-.5.107-.482.125-.25.072-.232.08-.24.08-.233.09-.232.098-.223.098-.232.098-.214.116-.224.116-.214.116-.214.125-.41.268-.206.143-.196.142-.393.304-.187.16-.179.161-.357.34-.34.357-.16.178-.16.188-.304.392-.143.197-.143.205-.267.41-.125.215-.116.214-.232.446-.099.223-.107.224-.178.464-.16.482-.144.482-.053.25-.054.24-.053.25-.036.26-.036.25-.035.258-.036.518-.01.268-.008.258.009.268.009.26.035.517.072.517.036.25.16.75.143.482.08.241.08.232.18.464.106.232.099.224.116.223.116.214.116.223.125.205.134.215.133.205.143.205.143.197.152.196.152.187.32.375.34.357.179.17.178.16.179.17.187.152.196.16.197.143.196.152.206.134.205.143.205.125.428.25.224.116.214.107.232.107.223.098.232.098.232.09.241.08.232.08.25.072.482.125.25.053.25.045.259.044.25.036.517.054.26.017.267.01h.527l.259-.01.258-.017.518-.054.259-.036.5-.089.25-.053.25-.063.24-.062.242-.072.24-.08.233-.08.232-.09.464-.196.446-.214.214-.116.224-.125.205-.125.214-.125.205-.143.206-.134.196-.152.197-.142.187-.161.187-.152.188-.17.178-.16.348-.348.161-.179.17-.187.151-.188.161-.187.143-.196.152-.197.133-.205.143-.205.125-.215.125-.205.125-.223.116-.214.214-.447.197-.464.08-.232.09-.232.08-.24.071-.242.063-.24.062-.25.054-.25.089-.5.035-.26.054-.517.018-.259.009-.259v-.526l-.009-.268-.018-.259-.053-.518-.036-.25-.045-.259-.044-.25-.054-.24-.063-.25-.062-.241-.071-.241-.08-.241-.09-.241-.08-.232-.098-.232-.099-.224-.214-.446-.116-.223-.25-.428-.125-.206-.143-.205-.133-.205-.152-.197-.143-.196-.16-.196-.152-.188-.17-.178-.16-.179-.349-.348-.178-.17-.375-.32-.188-.153-.196-.151-.196-.143-.206-.143-.205-.134-.214-.134-.205-.125-.224-.116-.214-.116-.223-.116-.223-.098-.464-.197-.232-.089-.232-.08-.241-.08-.241-.072-.241-.062-.25-.063-.5-.107-.25-.036-.518-.07-.517-.037-.26-.009-.267-.008Zm.25 19.922h-.5l-.25-.01-.24-.017-.25-.027-.483-.053-.482-.09-.464-.107-.232-.062-.232-.072-.223-.07-.447-.162-.214-.089-.223-.098-.214-.098-.41-.214-.411-.233-.393-.25-.187-.133-.375-.286-.179-.143-.357-.303-.34-.322-.16-.17-.152-.169-.16-.17-.152-.178-.143-.178-.143-.188-.133-.187-.134-.197-.125-.187-.125-.205-.125-.197-.107-.205-.116-.205-.098-.215-.108-.214-.089-.214-.09-.223-.088-.214-.072-.224-.08-.232-.063-.223-.125-.464-.044-.24-.054-.233-.071-.482-.027-.25-.018-.24-.018-.25-.017-.5.017-.5.018-.241.018-.25.027-.241.071-.482.054-.241.044-.232.188-.697.08-.223.072-.223.089-.223.09-.214.088-.223.108-.206.098-.214.116-.205.107-.206.125-.205.25-.392.267-.375.143-.188.143-.178.152-.179.16-.178.152-.17.33-.33.17-.152.179-.16.178-.144.179-.151.187-.143.375-.268.393-.25.205-.125.205-.107.206-.116.205-.098.214-.107.223-.09.214-.089.224-.089.223-.071.223-.08.696-.188.232-.045.482-.089.241-.036.241-.026.25-.018.241-.018.25-.009h.5l.25.009.25.018.24.017.242.027.25.036.232.045.24.044.233.045.24.063.224.062.232.062.223.08.232.072.214.09.224.089.214.089.214.107.205.098.215.116.205.107.589.375.196.134.188.134.187.143.179.151.178.143.17.161.17.152.33.33.16.17.304.357.142.178.286.375.134.188.25.392.232.41.107.206.107.214.099.206.098.223.089.214.16.446.072.223.071.232.063.233.107.464.045.24.071.483.027.24.027.25.017.242.01.25v.5l-.01.25-.017.25-.027.24-.027.25-.071.482-.045.232-.054.241-.053.232-.063.232-.071.223-.071.233-.08.223-.081.214-.09.223-.196.428-.107.215-.107.205-.116.205-.116.197-.125.205-.125.187-.134.197-.285.375-.143.178-.152.179-.152.17-.321.339-.34.32-.169.153-.178.151-.179.143-.375.286-.196.134-.393.25-.196.116-.206.116-.214.107-.205.107-.428.196-.224.09-.214.08-.232.08-.223.072-.232.07-.223.063-.241.054-.232.053-.241.045-.232.045-.25.026-.482.054-.25.018-.25.009Z" clip-rule="evenodd"/><path fill="#004098" fill-rule="evenodd" d="M42.12 63.81h1.25l-.018-.286-.027-.276-.044-.277-.125-.536-.08-.268-.09-.25-.107-.258-.232-.482-.134-.232-.143-.224-.151-.223-.161-.214-.17-.205-.178-.197-.188-.196-.196-.178-.41-.34-.447-.303-.232-.134-.232-.125-.25-.116-.25-.107-.25-.098-.259-.08-.268-.072-.267-.063-.554-.089v-.259l-.026-.008-.099-.027-.089-.018-.116-.01-.152-.008-.187-.009-.197.009-.151.009-.125.009-.09.009-.098.027-.026.009v.276l-.277.036-.277.044-.268.063-.267.071-.26.09-.25.089-.249.107-.241.116-.241.125-.232.143-.223.143-.215.151-.214.17-.205.17-.196.187-.179.188-.178.196-.179.205-.16.214-.152.224-.143.223-.125.232-.125.24-.116.25-.098.25-.09.25-.08.268-.071.268-.054.268-.044.277-.036.276-.018.286h1.25l.017-.223.027-.215.036-.214.107-.41.063-.206.142-.392.09-.188.098-.187.098-.179.116-.178.116-.17.125-.17.125-.151.143-.16.143-.144.303-.285.16-.125.17-.125.17-.116.178-.107.179-.099.187-.098.188-.08.196-.08.206-.072.196-.062.205-.045.214-.045.215-.035v.464l-.01.062-.035.054-.036.062-.053.054-.054.045-.062.044-.054.027-.044.018-.161.044-.304.108-.151.062-.152.071-.286.143-.267.179-.125.09-.134.097-.116.098-.125.108-.107.115-.117.117-.098.116-.107.125-.089.133-.098.125-.08.143-.08.134-.081.143-.072.143-.062.152-.107.303-.054.16-.071.322-.027.16-.027.17-.009.17h1.107l.018-.143.054-.286.035-.133.045-.134.053-.134.108-.25.07-.125.144-.232.08-.116.09-.107.178-.197.107-.098.098-.09.107-.089.116-.08.107-.071.125-.072.116-.071.125-.054.268-.107.134-.044.134-.036.134-.027.143-.027.142-.017.152-.01h.295l.142.01.143.017.286.054.134.036.134.044.134.054.25.107.124.071.233.143.107.08.214.18.196.195.09.099.08.107.16.232.072.116.125.25.053.125.09.268.035.133.036.143.036.286h1.116l-.036-.34-.036-.16-.027-.16-.044-.161-.045-.152-.107-.304-.071-.151-.063-.143-.08-.143-.16-.268-.09-.134-.197-.25-.32-.348-.117-.107-.375-.294-.134-.09-.133-.08-.143-.08-.143-.072-.143-.062-.303-.125-.304-.09-.053-.026-.063-.027-.063-.036-.07-.044-.054-.054-.045-.062-.036-.072-.009-.035v-.491l.215.035.205.036.214.054.196.062.206.072.196.08.188.08.187.098.178.099.179.107.17.116.17.125.16.125.16.133.143.143.286.304.134.16.116.17.125.17.107.178.098.179.098.187.09.188.08.196.071.196.063.206.053.205.045.205.036.214.026.215.018.223ZM41.79 65.898l-.062.143-.072.152-.143.286-.17.276-.178.26-.205.258-.214.232-.223.223-.25.206-.26.196-.267.17-.277.16-.151.072-.143.062-.152.063-.152.053-.16.054-.152.053-.482.107-.17.027v-.759l.25-.053.25-.063.232-.08.241-.09.223-.106.215-.116.214-.134.196-.143.197-.152.178-.17.17-.169.17-.188.142-.196.143-.205.125-.214.116-.215h-1.285l-.107.134-.117.134-.124.125-.134.116-.134.107-.143.107-.143.09-.16.089-.152.071-.17.072-.17.062-.17.045-.178.036-.178.026-.188.018-.187.01-.187-.01-.179-.018-.187-.026-.179-.036-.17-.045-.17-.062-.32-.143-.304-.179-.143-.107-.134-.107-.133-.116-.117-.125-.116-.134-.107-.134H33.49l.116.215.125.214.143.205.152.197.16.178.17.179.178.17.197.15.196.144.214.134.215.116.223.107.232.089.24.08.25.063.25.053v.76l-.169-.028-.321-.071-.322-.09-.303-.107-.152-.062-.143-.071-.151-.072-.277-.151-.268-.179-.259-.188-.24-.205-.233-.223-.214-.24-.196-.25-.188-.26-.16-.276-.152-.286-.063-.152-.062-.143h-1.33l.08.233.09.232.089.223.107.223.107.214.25.41.134.206.143.196.151.188.152.178.17.179.17.17.356.32.393.286.196.134.206.125.428.232.223.099.232.089.224.089.24.071.233.072.25.053.24.045.25.036.26.027.25.017h.517l.259-.017.25-.027.25-.036.25-.045.24-.053.241-.072.233-.071.232-.09.223-.088.223-.099.428-.232.206-.125.205-.134.196-.143.188-.142.187-.16.17-.162.178-.17.322-.356.142-.188.143-.196.143-.205.125-.206.116-.205.116-.214.196-.446.161-.465h-1.32ZM38.121 64.31l-.232.017-.098.027-.178.072-.072.035-.125.09-.089.089-.062.08-.036.054-.009.018-.062-.09-.143-.142-.072-.054-.08-.045-.071-.044-.08-.027-.072-.027-.134-.035-.116-.018h-5.302l.009.276.036.268.035.277.054.268h5.159l-.009-.01.09.01.089.017.107.027.116.045.116.062.116.08.053.054.063.054.044.062.054.072.045-.072.053-.071.08-.08.108-.08.062-.045.072-.036.08-.036.09-.027.097-.017.107-.018v.009h5.231l.044-.268.045-.277.027-.268.018-.276H38.12ZM30.213 65.854l-1.481.285-.063-.312-.018-.107.01-.08.008-.036.027-.045.027-.035.035-.045.045-.036.054-.035.125-.063.151-.053.188-.045.116-.027.116-.009h.107l.098.01.09.008.07.018.063.027.054.035.044.045.027.045.027.053.018.072.062.33Zm-.196-.09-.036-.196-.018-.053-.018-.045-.053-.071-.036-.018-.044-.018-.045-.018h-.053l-.09-.009-.178.018-.215.036-.089.026-.08.036-.072.036-.053.036-.045.035-.026.036-.027.045v.026l-.01.036.01.09.044.196 1.134-.223ZM30.053 64.952l-1.536-.267-.009-.134L30 64.086l.009.143-.455.134.026.384.465.08.009.125Zm-.643-.232-.018-.312-.41.125-.313.08.143.01.152.026.446.071ZM30.008 63.917l-1.508-.09v-.124l1.338.08.027-.455.179.009-.036.58ZM28.598 62.757l1.499.223-.018.116-1.499-.223.018-.116ZM30.115 62.783l-1.383-.714.035-.125 1.562-.009-.035.134h-.473l-.09.375.42.206-.036.133Zm-.535-.41.071-.304-.428-.009-.322-.018.268.125.41.206ZM30.383 61.775l-1.41-.563.044-.116 1.294-.008-1.106-.447.035-.107 1.41.562-.044.116-1.285.01 1.106.446-.044.107ZM30.053 59.115l.071-.107.732.482.16.116.126.107.044.053.036.054.027.063.009.053.009.054-.01.062-.017.054-.027.053-.054.063-.062.053-.036.018-.044.009-.08.009-.09-.018-.116-.036-.134-.071-.143-.09-.732-.481.063-.099.732.483.152.089.116.053.044.01.036.008h.045l.035-.009.027-.009.036-.017.027-.027.017-.027.027-.054.018-.053v-.054l-.018-.053-.036-.054-.062-.062-.09-.072-.106-.071-.732-.482ZM31.561 59.624l-1.142-1 .08-.098 1.214.42-.893-.786.08-.09 1.134 1-.08.098-1.214-.42.893.786-.072.09ZM31.32 57.669l1.034 1.105-.088.082-1.034-1.105.088-.082ZM32.784 58.41l-1.214-.982.107-.08.866.723.187.169-.116-.223-.473-1.027.107-.08.634 1.428-.098.072ZM33.328 58.017l-.758-1.312.58-.34.09.152-.474.277.232.402.438-.259.098.16-.447.25.26.447.49-.277.09.152-.599.348ZM34.15 57.553l-.572-1.401.375-.152.063-.027.044-.009h.09l.035.009.107.08.036.045.036.045.053.107.027.08.018.071.009.072-.009.062-.018.063-.027.053-.035.045-.045.036.054.026.044.027.09.063.08.08.303.321-.143.054-.232-.241-.116-.125-.08-.063-.054-.035-.044-.018h-.045l-.053.009-.134.053.259.625-.116.045Zm-.206-.83.241-.099.072-.035.044-.036.018-.053.009-.054v-.071l-.027-.072-.026-.053-.027-.036-.027-.036-.036-.026-.071-.018h-.045l-.044.017-.268.108.187.464ZM34.935 56.732l.107-.045.045.098.044.08.054.045.062.036.072.018h.035l.036-.01.054-.017.071-.054.027-.035.009-.045.009-.053v-.045l-.01-.054-.017-.062-.036-.054-.035-.035-.045-.027-.08-.018-.134-.018-.116-.027-.045-.009-.044-.017-.063-.045-.053-.063-.045-.08-.027-.09-.018-.088-.009-.08.01-.081.026-.063.036-.062.044-.054.054-.035.062-.027.054-.009h.045l.053.009.045.009.035.018.045.026.036.036.035.045.036.044.027.054.018.053.027.072-.116.036-.018-.063-.036-.053-.027-.045-.071-.053-.09-.019-.044.01-.045.017-.044.027-.027.027-.027.036-.018.071v.045l.01.053.008.036.018.036.027.026.018.027.035.018.045.018.125.018.125.018.08.017.045.018.044.027.036.036.036.035.035.045.027.054.036.107.018.062.009.063v.062l-.01.054-.008.062-.018.045-.027.044-.026.045-.036.027-.036.036-.044.017-.054.018-.08.01h-.072l-.08-.028-.063-.044-.062-.063-.054-.08-.044-.09-.036-.106ZM36.033 56.981l-.232-1.499.116-.018.24 1.49-.124.027ZM36.684 56.901l-.089-1.339-.303.027-.018-.178.74-.054.01.179-.304.017.09 1.34-.126.008ZM37.577 56.883l.036-.633-.304-.902.152.01.152.472.08.259.116-.259.205-.437.143.009-.42.848-.035.642-.125-.009ZM38.773 56.276l.054-.17.062-.15.036-.063.036-.063.044-.053.045-.045.09-.072.044-.026.044-.018.045-.009.045-.009h.044l.045.009.053.018.054.035.044.045.045.045.027.062.027.072.018.08.009.09.008.097-.008.108-.018.107-.027.116-.045.151-.053.134-.072.116-.071.098-.054.045-.089.072-.09.035-.053.01-.044-.01h-.054l-.045-.018-.044-.026-.036-.027-.036-.036-.026-.045-.027-.044-.027-.063-.018-.062-.018-.116v-.134l.01-.134.026-.152Zm.125.036-.027.134-.009.116v.098l.018.098.027.08.045.054.044.045.063.027.062.009.072-.018.062-.036.063-.053.062-.072.054-.098.044-.116.036-.134.027-.098.009-.09.009-.08v-.089l-.018-.107-.018-.054-.027-.044-.027-.045-.026-.027-.036-.026-.045-.01-.062-.008-.072.017-.062.027-.063.054-.062.08-.054.098-.044.125-.045.143ZM39.621 57.276l.562-1.41.58.232-.07.17-.465-.188-.17.437.402.161-.071.16-.402-.151-.25.634-.116-.045ZM40.897 57.874l.688-1.142-.26-.161.09-.152.634.384-.098.152-.26-.16-.687 1.142-.107-.063ZM41.433 58.213l.937-1.187.527.41-.116.144-.429-.34-.285.366.401.313-.107.143-.41-.313-.313.402.447.348-.117.143-.535-.429ZM42.995 58.91l.054.125-.108.07-.089.046-.09.035-.088.018-.143-.018-.063-.035-.053-.045-.045-.045-.027-.053-.017-.054-.01-.062.01-.063.017-.071.027-.08.036-.08.053-.09.063-.08.16-.179.09-.08.09-.072.088-.053.08-.045.081-.036.08-.026.072-.01h.062l.063.01.062.018.054.026.044.045.036.053.027.054.018.063v.071l-.018.08-.027.072-.045.089-.053.09-.116-.063.036-.063.035-.053.018-.063.009-.044.009-.054-.009-.045-.018-.035-.027-.036-.071-.054-.09-.017h-.044l-.053.009-.054.026-.062.027-.063.036-.071.044-.072.063-.071.062-.098.108-.08.098-.063.089-.036.09-.018.08v.07l.018.063.036.054.044.027.036.017.054.01h.053l.063-.01.071-.026.072-.045.071-.053ZM42.852 59.552l1.223-.892.071.098-.5.366.286.392.5-.365.071.098-1.222.892-.072-.098.572-.428-.277-.384-.58.42-.072-.099ZM43.432 60.382l1.34-.714.053.107-.821.991 1.053-.562.053.107-1.338.714-.054-.116.821-.99-1.053.562-.054-.099ZM44.575 60.998l.178-.053.161-.027.072-.01h.133l.063.01.107.036.045.017.044.027.036.036.053.071.018.045.01.053.008.063-.009.062-.053.125-.045.063-.053.053-.072.063-.08.053-.09.054-.098.045-.107.044-.16.045-.143.036-.134.008-.125-.008-.063-.018-.053-.01-.054-.026-.044-.027-.036-.027-.036-.035-.026-.045-.018-.044-.01-.045-.008-.054v-.044l.018-.054.018-.044.026-.054.027-.045.045-.053.089-.08.107-.08.125-.063.134-.063Zm.044.125-.124.045-.108.062-.08.054-.071.071-.045.072-.027.062-.009.063.01.062.035.063.045.044.062.036.08.018.099.009.107-.01.125-.026.133-.036.09-.035.08-.045.08-.036.063-.053.054-.036.035-.036.036-.044.018-.045.018-.045.009-.044v-.045l-.01-.044-.035-.054-.045-.054-.062-.026-.08-.027-.099-.01-.116.01-.125.035-.142.045ZM44.227 62.301l1.481-.312.027.116-1.303.286.098.446-.178.036-.125-.572ZM45.128 62.998l.179-.01.16.019.143.026.063.018.107.054.044.035.045.027.027.036.027.044.017.036.018.045.01.044v.063l-.019.062-.026.054-.036.053-.045.054-.125.09-.08.044-.196.053-.107.018-.116.018-.161.01-.152-.01-.125-.026-.125-.045-.107-.054-.071-.071-.036-.045-.036-.089-.009-.045v-.053l.01-.045.035-.09.071-.088.045-.036.054-.036.107-.062.125-.045.133-.036.152-.017Zm0 .125-.125.017-.116.027-.098.036-.08.053-.063.054-.044.053-.027.063-.01.063.019.062.035.062.054.045.072.045.089.035.107.018h.268l.098-.009.09-.017.213-.072.045-.036.044-.026.036-.045.027-.036.018-.044.009-.036v-.045l-.01-.062-.035-.063-.053-.044-.072-.045-.09-.036-.115-.017h-.286ZM45.021 64.658l.179.009-.018.392-.563-.035-.098-.099-.035-.053-.036-.045-.018-.053-.018-.054-.009-.044v-.054l.01-.062.017-.063.036-.053.044-.054.054-.045.063-.044.07-.036.09-.027.09-.018.107-.017h.223l.125.008.214.054.09.027.088.044.072.045.053.045.045.053.035.054.027.053.01.063v.116l-.019.053-.017.036-.054.072-.036.035-.035.027-.054.018-.044.027-.063.009-.152.026-.035-.116.107-.017.08-.027.063-.036.044-.045.036-.053.009-.072v-.044l-.01-.045-.017-.044-.027-.045-.035-.036-.045-.035-.054-.027-.062-.027-.072-.027-.08-.018-.09-.018-.088-.008h-.143l-.125.008-.107.027-.09.036-.071.044-.053.054-.027.063-.018.071v.036l.009.035.026.08.054.072.054.054.276.017.018-.267ZM44.307 65.515l.634.133.928-.169-.036.143-.482.089-.267.036.642.428-.035.134-.777-.544-.625-.125.018-.125Z" clip-rule="evenodd"/><path fill="#004098" fill-rule="evenodd" d="M35.926 66.737h.17v-.847h-.17v.847ZM37.086 66.21l-.009-.07-.018-.063-.035-.063-.045-.053-.107-.072-.072-.017-.07-.01-.072.01-.072.017-.062.036-.045.036-.044.053-.036.063-.018.063-.009.07.009.072.018.063.035.062.09.09.062.035.072.018.071.009-.107.187h.187l.206-.33.026-.044.027-.054.018-.107Zm-.553.037v-.08l.009-.037.017-.026.054-.054.036-.018.035-.009.045-.008.036.008.044.01.027.017.036.027.036.053.017.036v.08l-.035.072-.018.027-.036.026-.027.018-.044.01h-.08l-.036-.01-.036-.017-.053-.054-.018-.036-.01-.035ZM38.809 66.264v-.124l-.054-.126-.044-.053-.054-.036-.062-.035-.072-.018-.071-.01-.072.01-.062.017-.063.036-.053.036-.045.053-.035.063-.018.063-.01.07.01.072.017.063.036.062.045.045.053.044.063.036.062.018.072.009-.107.187h.187l.205-.33.036-.044.036-.108Zm-.554-.017v-.08l.018-.037.018-.026.054-.054.035-.018.072-.017.044.008.036.01.036.017.053.054.018.026.01.036v.08l-.01.036-.018.036-.053.053-.036.018-.036.01h-.08l-.036-.01-.035-.017-.054-.054-.036-.071ZM37.97 66.398h-.098v-.303h-.17v.303h-.294l.267-.562h-.16l-.384.74h.571v.188h.17v-.187h.098v-.179ZM38.38 62.864l-.776.874h-.277v-.214l.634-.901-.777-.893-.776.893.633.901v.214h-.276l-.777-.874-.973.24.456.768h1.562v.464h.303v-.464h1.562l.455-.767-.973-.241ZM51.84 70.161h1.216c.24 0 .433.033.58.097a.95.95 0 0 1 .366.28c.097.123.166.264.21.425.043.162.065.333.065.513 0 .283-.032.503-.097.659a1.075 1.075 0 0 1-.268.391.873.873 0 0 1-.368.211 1.9 1.9 0 0 1-.488.072H51.84v-2.648Zm.818.6v1.447h.2c.172 0 .294-.019.366-.057a.388.388 0 0 0 .17-.199c.04-.094.06-.248.06-.46 0-.28-.045-.472-.136-.576-.092-.103-.243-.155-.456-.155h-.204Zm3.024.751-.702-.074a.788.788 0 0 1 .114-.29.629.629 0 0 1 .216-.183.892.892 0 0 1 .278-.087c.118-.02.246-.03.383-.03.22 0 .398.012.531.036a.68.68 0 0 1 .334.155c.063.054.112.13.149.23.035.1.053.194.053.285v.847c0 .09.007.161.018.212a.946.946 0 0 0 .075.196h-.69a.718.718 0 0 1-.054-.112.835.835 0 0 1-.026-.123.939.939 0 0 1-.287.199c-.13.053-.281.08-.453.08-.229 0-.403-.053-.522-.16a.503.503 0 0 1-.177-.391c0-.146.042-.266.128-.36.086-.094.243-.164.473-.21.276-.055.455-.094.537-.116.081-.022.168-.052.26-.087 0-.091-.019-.154-.056-.19-.038-.036-.103-.055-.197-.055-.12 0-.21.02-.271.058-.047.03-.085.087-.114.17Zm.637.387a3.41 3.41 0 0 1-.315.096c-.15.04-.244.079-.284.117a.184.184 0 0 0-.061.136c0 .057.02.104.06.141.04.037.1.055.178.055.082 0 .158-.02.229-.059.07-.04.12-.089.15-.145a.488.488 0 0 0 .043-.224V71.9Zm1.54.91h.737v-2.648h-.737v2.648Zm1.587-2.147h.736v-.5h-.736v.5Zm0 2.147h.736v-1.918h-.736v1.918Zm2.229-1.297-.702-.074a.788.788 0 0 1 .114-.29.628.628 0 0 1 .216-.183.894.894 0 0 1 .278-.087c.118-.02.246-.03.383-.03.22 0 .398.012.531.036a.681.681 0 0 1 .334.155c.063.054.112.13.149.23.036.1.053.194.053.285v.847c0 .09.007.161.018.212a.953.953 0 0 0 .075.196h-.69a.707.707 0 0 1-.054-.112.825.825 0 0 1-.026-.123.941.941 0 0 1-.287.199c-.13.053-.281.08-.453.08-.229 0-.403-.053-.522-.16a.504.504 0 0 1-.177-.391c0-.146.042-.266.128-.36.086-.094.243-.164.473-.21.276-.055.455-.094.537-.116.081-.022.168-.052.26-.087 0-.091-.019-.154-.056-.19-.038-.036-.103-.055-.197-.055-.12 0-.21.02-.27.058-.048.03-.086.087-.115.17Zm.638.387a3.41 3.41 0 0 1-.316.096c-.15.04-.244.079-.284.117a.184.184 0 0 0-.062.136c0 .057.02.104.061.141.04.037.1.055.178.055.082 0 .158-.02.229-.059.07-.04.12-.089.15-.145a.488.488 0 0 0 .044-.224V71.9Zm1.513-1.008h.685v.312c.103-.127.206-.218.311-.273a.818.818 0 0 1 .383-.083c.203 0 .362.061.478.182.114.121.172.308.172.56v1.22h-.739v-1.055c0-.12-.022-.205-.067-.255a.237.237 0 0 0-.187-.075.267.267 0 0 0-.217.1c-.055.068-.083.19-.083.364v.921h-.736v-1.918Zm5.58-.73h.818v1.58c0 .156-.025.303-.074.442a.963.963 0 0 1-.229.365.919.919 0 0 1-.328.22c-.159.059-.35.088-.573.088-.129 0-.27-.008-.421-.027a1.097 1.097 0 0 1-.382-.107.964.964 0 0 1-.281-.229.838.838 0 0 1-.175-.305 1.581 1.581 0 0 1-.076-.448v-1.579h.817v1.617c0 .145.04.257.12.338.08.082.19.122.333.122.141 0 .252-.04.332-.12.08-.08.12-.194.12-.34V70.16Zm1.664.73h.685v.312a1.02 1.02 0 0 1 .311-.273.818.818 0 0 1 .383-.083c.204 0 .363.061.478.182.115.121.172.308.172.56v1.22h-.739v-1.055c0-.12-.022-.205-.066-.255a.238.238 0 0 0-.188-.075.267.267 0 0 0-.217.1c-.055.068-.083.19-.083.364v.921h-.736v-1.918Zm2.849-.23h.736v-.5h-.736v.5Zm0 2.148h.736v-1.918h-.736v1.918Zm1.34-1.918h.766l.372 1.215.385-1.215h.743l-.815 1.918h-.652l-.799-1.918Zm4.866 1.141h-1.473a.475.475 0 0 0 .095.264.349.349 0 0 0 .278.125.415.415 0 0 0 .206-.054.47.47 0 0 0 .129-.121l.724.066a1.038 1.038 0 0 1-.4.415c-.157.084-.382.126-.675.126-.254 0-.454-.036-.6-.108a.88.88 0 0 1-.362-.341 1.032 1.032 0 0 1-.143-.55c0-.3.096-.543.288-.728.192-.186.457-.279.796-.279.274 0 .491.042.65.126.159.082.28.203.363.36.083.158.124.363.124.616v.083Zm-.747-.352c-.015-.142-.053-.244-.115-.305a.332.332 0 0 0-.244-.092.335.335 0 0 0-.28.139.507.507 0 0 0-.085.258h.724Zm1.447-.789h.688v.314a.756.756 0 0 1 .205-.28.431.431 0 0 1 .26-.078c.11 0 .228.034.357.102l-.228.523a.573.573 0 0 0-.206-.054c-.096 0-.17.04-.224.12-.076.112-.114.321-.114.628v.643h-.739v-1.918Zm1.95 1.387.73-.069c.03.087.072.15.126.187a.374.374 0 0 0 .217.056c.099 0 .175-.021.23-.064a.14.14 0 0 0 .063-.117c0-.053-.028-.094-.083-.123a1.54 1.54 0 0 0-.316-.075 3.293 3.293 0 0 1-.532-.124.564.564 0 0 1-.252-.193.497.497 0 0 1-.102-.309c0-.126.037-.235.11-.327a.653.653 0 0 1 .304-.205c.129-.045.301-.068.518-.068.23 0 .398.018.507.053.11.035.2.09.273.162a.859.859 0 0 1 .182.298l-.698.07a.24.24 0 0 0-.09-.136.368.368 0 0 0-.21-.058c-.083 0-.144.015-.181.044a.131.131 0 0 0-.057.108c0 .047.024.082.072.106.048.024.153.046.315.066.244.027.426.065.545.115.12.05.21.12.273.211a.515.515 0 0 1 .095.302.592.592 0 0 1-.1.323.674.674 0 0 1-.316.25c-.144.063-.34.093-.588.093-.35 0-.6-.05-.749-.15a.678.678 0 0 1-.286-.426Zm2.77-1.616h.736v-.5h-.735v.5Zm0 2.147h.736v-1.918h-.735v1.918Zm2.447-2.648v.73h.404v.536h-.404v.681c0 .082.007.136.023.163.024.04.066.062.126.062a.8.8 0 0 0 .228-.048l.054.508c-.182.04-.351.06-.51.06-.182 0-.317-.024-.404-.07a.428.428 0 0 1-.192-.215c-.042-.095-.062-.25-.062-.465v-.675h-.272v-.537h.272v-.353l.737-.377Zm.895.73h.777l.395 1.277.367-1.277h.725l-.761 2.05c-.086.234-.175.392-.266.473-.127.116-.322.174-.583.174-.106 0-.27-.015-.491-.044l-.058-.513c.106.034.224.05.354.05.086 0 .157-.019.21-.058a.45.45 0 0 0 .137-.214l-.806-1.918Zm3.76.596c0-.432.12-.77.36-1.01.242-.24.577-.361 1.007-.361.441 0 .78.118 1.02.355.237.236.357.568.357.994 0 .31-.052.564-.157.762a1.117 1.117 0 0 1-.45.462c-.198.11-.443.165-.737.165-.298 0-.546-.047-.742-.142a1.123 1.123 0 0 1-.476-.452c-.121-.206-.182-.464-.182-.773Zm.818.003c0 .268.05.46.149.577.1.117.235.175.406.175a.505.505 0 0 0 .408-.171c.096-.115.145-.32.145-.616 0-.25-.05-.432-.151-.547a.516.516 0 0 0-.41-.172.495.495 0 0 0-.397.175c-.1.116-.15.31-.15.58Zm3.49-.599h.35v.538h-.35v1.38h-.737v-1.38h-.275v-.538h.275v-.087c0-.078.008-.165.025-.258a.522.522 0 0 1 .095-.23.494.494 0 0 1 .195-.145.962.962 0 0 1 .368-.055c.129 0 .316.015.562.045l-.082.445a1.336 1.336 0 0 0-.213-.022c-.066 0-.114.011-.142.033a.186.186 0 0 0-.062.106.97.97 0 0 0-.009.168Zm2.04-.73h2.488v.654h-.835v1.994h-.818v-1.994h-.835v-.654Zm5.07 1.871h-1.473a.478.478 0 0 0 .095.264.348.348 0 0 0 .278.125.41.41 0 0 0 .206-.054.466.466 0 0 0 .129-.121l.724.066a1.037 1.037 0 0 1-.401.415c-.156.084-.381.126-.673.126-.255 0-.454-.036-.6-.108a.882.882 0 0 1-.363-.341 1.036 1.036 0 0 1-.143-.55c0-.3.096-.543.288-.728.192-.186.457-.279.796-.279.274 0 .491.042.65.126a.84.84 0 0 1 .363.36c.083.158.124.363.124.616v.083Zm-.747-.352c-.015-.142-.053-.244-.115-.305a.33.33 0 0 0-.244-.092.337.337 0 0 0-.281.139.505.505 0 0 0-.084.258h.724Zm2.87.38.699.08a.987.987 0 0 1-.189.378.885.885 0 0 1-.338.248c-.136.059-.31.088-.521.088a1.93 1.93 0 0 1-.508-.056.889.889 0 0 1-.349-.185.921.921 0 0 1-.23-.299 1.057 1.057 0 0 1-.083-.455c0-.197.033-.362.101-.493a.913.913 0 0 1 .202-.26.94.94 0 0 1 .264-.17c.143-.06.327-.089.551-.089.313 0 .552.056.716.169.164.111.28.275.346.491l-.691.092a.322.322 0 0 0-.119-.185.38.38 0 0 0-.23-.062.373.373 0 0 0-.296.13c-.075.088-.113.22-.113.397 0 .158.038.277.113.36a.366.366 0 0 0 .285.122.395.395 0 0 0 .243-.074.441.441 0 0 0 .147-.228Zm1.327-1.899h.736v.975a.986.986 0 0 1 .298-.221.834.834 0 0 1 .35-.068c.2 0 .357.061.473.183.114.122.172.308.172.56v1.22h-.739v-1.056c0-.12-.022-.205-.067-.255a.236.236 0 0 0-.187-.075.268.268 0 0 0-.217.1c-.056.068-.083.19-.083.364v.921h-.736v-2.648Zm2.822.73h.685v.312c.102-.127.206-.218.311-.273a.813.813 0 0 1 .382-.083c.204 0 .363.061.478.182.115.121.172.308.172.56v1.22h-.738v-1.055c0-.12-.023-.205-.067-.255a.237.237 0 0 0-.188-.075.265.265 0 0 0-.216.1c-.056.068-.084.19-.084.364v.921h-.735v-1.918Zm2.731.964a.96.96 0 0 1 .296-.723c.198-.19.464-.285.8-.285.385 0 .675.112.871.335.158.179.237.4.237.663a.962.962 0 0 1-.294.725c-.195.188-.466.283-.812.283-.308 0-.557-.079-.748-.235a.943.943 0 0 1-.35-.763Zm.737-.001c0 .171.034.297.104.379a.327.327 0 0 0 .261.123c.106 0 .193-.04.261-.121.068-.081.102-.21.102-.389 0-.166-.034-.29-.103-.371a.32.32 0 0 0-.255-.121.332.332 0 0 0-.265.123c-.07.082-.105.208-.105.377Zm2.2.955h.737v-2.648h-.737v2.648Zm1.47-.954a.96.96 0 0 1 .296-.723c.198-.19.465-.285.801-.285.384 0 .674.112.87.335.158.179.237.4.237.663a.962.962 0 0 1-.294.725c-.195.188-.466.283-.812.283-.308 0-.557-.079-.747-.235a.941.941 0 0 1-.351-.763Zm.737-.001c0 .171.035.297.104.379a.327.327 0 0 0 .261.123c.106 0 .193-.04.261-.121.068-.081.102-.21.102-.389 0-.166-.034-.29-.103-.371a.32.32 0 0 0-.254-.121.335.335 0 0 0-.266.123c-.07.082-.105.208-.105.377Zm3.51-.963h.689v1.812l.001.085a.804.804 0 0 1-.281.608.793.793 0 0 1-.323.147 2.01 2.01 0 0 1-.449.045c-.385 0-.65-.058-.794-.174a.564.564 0 0 1-.216-.463c0-.025.001-.057.004-.098l.713.08c.018.067.046.113.083.138a.359.359 0 0 0 .205.056c.106 0 .185-.028.237-.085.053-.056.078-.155.078-.296v-.29a.775.775 0 0 1-.216.186.775.775 0 0 1-.367.09.725.725 0 0 1-.621-.336c-.112-.16-.168-.37-.168-.63 0-.3.072-.527.216-.684a.738.738 0 0 1 .568-.235c.149 0 .272.026.369.076a.8.8 0 0 1 .272.252v-.284Zm-.692.93c0 .139.029.242.089.308.059.067.137.1.233.1a.298.298 0 0 0 .23-.103c.062-.07.093-.174.093-.314s-.033-.246-.098-.32a.303.303 0 0 0-.238-.111.277.277 0 0 0-.225.101c-.056.068-.084.182-.084.339Zm2.029-.93h.776l.396 1.277.367-1.277h.725l-.761 2.05c-.087.234-.175.392-.266.473-.128.116-.322.174-.583.174-.106 0-.27-.015-.492-.044l-.057-.513c.105.034.224.05.354.05.086 0 .156-.019.21-.058a.448.448 0 0 0 .136-.214l-.805-1.918ZM103.721 61.857c.697.849.712-.242 1.611.015.146.042.208.228.208.228l-.104.291-.083.104s-.741 1.936-3.073 3.967c0 0-.908.777.691.647 0 0 2.159-.993 3.11-3.455 0 0 .302-.691.691-.087 0 0 1.512 2.895 2.419 3.629 0 0 .821.82 1.382.82 1.113.068 1.53-.819 2.16-.647l.216-.303s-.216-.389-1.21-.604c-.993-.216-4.19-2.376-4.535-3.456 0 0-.778-.389-.562-1.253 0 0 .173-.82.864-.82 0 0 1.167-.562 1.771-.562.605 0 .562-.648.562-.648l-.562-.346-1.814.044s-.13-.216 0-.432.432-1.123.432-1.123.734-1.426.389-2.29c-.346-.864-.735-.69-1.08-.69-.346 0-.605.474-.605.474s.303.519.303.864c0 .346-.216 1.253-.173 1.642.043.388-.519 2.548-1.296 2.591-1.137.363-2.73.158-1.712 1.4ZM94.493 61.537s-1.002-.117-.648-.589c.353-.471.589-1.885 3.298-1.708 0 0 1.296.236.825 1.767l-1.556 1.458c-.109.101-.114.157.03.203.356.113 1.37.078 2.115.165 1.001.118 1.649.412 1.649.412s.295.825-.059 1.06c-.353.236-4.653.118-5.124.413-.472.295-2.18.707-2.18.707l-.648.236s-.824 0-.883-.59c-.06-.589.235-.942.235-.942s1.473-.766 2.474-.825c1.002-.059 1.65-.824 1.65-.824l.942-1.06s-.177-.53-.589-.472c-.412.06-.883.53-.883.53l-.648.06ZM83.077 57.162s.476.277.833.119c.357-.159.951-1.031 1.229-1.15.277-.119 1.308-.714 1.665-.436.356.277.316 1.546.157 1.744-.158.198-.831 1.665-.831 1.665l-.476.436-.119-.238.04-.277.396-.595.198-.634-.158-.595h-.714l-.238.159-.317.555-.277.158h-.397l-.237.754s.079.396.277.396.555.08.555.08l-.159.435-.04.516-.673.317-.476-.04-.119-1.863s-.594-.238-.753.159c-.158.396-.555.753-.396 1.347.158.595-.238.912.238 1.19.475.277 1.427.04 1.665.04.237 0 .277.396.277.594 0 .198-.013 1.1-.013 1.1s.125.208-.264.248c-.39.04-1.11.317-.912.555a.884.884 0 0 1 .198.515l.78-.073v.634c0 .238-.265.629-.265.629s-1.744.198-1.823.634c-.08.436.436.555.436.555l.99-.08 3.806-.079.714-.396-.119-.833s-2.418.159-2.616-.04c-.198-.198-.291-.231-.37-.549-.08-.317 0-.673 0-.673l.37-.442s.594-.12.99-.12c.397 0 .318-.792.318-.792l-1.467-.159.04-1.348s.238-.536.555-.774c.317-.238 1.546-1.842 1.546-1.842s1.07-1.942.634-2.894c-.436-.951-1.03-.951-1.784-.912-.753.04-2.497 1.19-2.616 1.507-.12.317-.278.793-.278.793Zm-1.546 5.351s-.674 1.11-1.15 1.784c-.475.674-1.585 2.101-1.585 2.101s-.357.357 0 .476.555.04.753-.119c.198-.158.833-1.348 1.03-1.586.2-.237 1.388-2.14 1.388-2.14l-.079-.595-.357.08Zm-2.443-1-.67.41s-.484.334-.112.595c.372.26.819.037.893-.149.075-.186-.111-.893-.111-.856Zm-.768-2.686.238.238.674-.199h.397s.416-.119.297.317c-.119.437-.175 1.269-.175 1.269s-.796.426-1.114.505c-.317.08-1.022.97-1.022.97s-.444.547-.008.904c.436.356.555.673.832.713.278.04 1.348-.08 1.348-.08s.159-.118.396-.673c.238-.555-.079-.674-.04-1.07.04-.397-.053-.595.106-1.269.158-.674.172-.476.45-1.19.277-.713.436-.871.674-1.149.238-.277.436-.912.198-1.11-.238-.198-.714-.357-1.03-.159-.318.199-2.022 1.07-2.142 1.269-.118.198-.158.515-.079.714ZM65.909 60.155s.777-.086.993.432c.216.518-.259.82-.388 1.037-.13.216-.954 1.166-.78 1.727.172.562.65 1.901 1.514 2.204.864.302 1.771.518 2.03.561.26.043.389.346 1.21.173l.043-2.333s-1.642.605-2.03.562c-.39-.043-.303-.389-.303-.389l2.117-1.037.389-.388.043-1.426h-.648s-.087.475-.475.432c-.389-.043-1.253-.475-1.253-.475s0-1.296.216-1.426c.216-.13.648-.561.734-1.036.087-.476.173-1.123.173-1.123l-1.123.172-.302-.431.086-.346s2.117-1.166 2.332-1.34c.217-.172.303-.474.303-.474v-1.512l1.123-.043.346.648.043.388 1.512.39.043.518-.26.518s-1.9.518-2.073.907c-.172.389-1.641 1.857-1.512 2.376.13.518.044.864.044.864l.69-.26.433-.82.216-.562s.605-.389.734 0c.13.389.346.734.346.734l-.087.476-.69.777-.087 1.512s1.339.173 1.123.605c-.216.432-.605.518-.605.518l-.562.389s-.302 2.16-.129 2.635c.173.475.907.561 1.425.648.519.086 1.469-.26 1.728-.216.26.043.735.69.735.69l-.39.735s-1.511.303-2.375.303c-.864 0-2.98-1.47-4.147-1.772-1.166-.302-2.116-.259-2.462-.259h-1.339s-.518-.561.086-.604c.605-.043.562-.13.562-.13l-.087-.778-.259-.345s-.302-1.123 0-1.253c.303-.13.39-.734.39-.734.197-.328.146-.367.233-.77v-.22a74.716 74.716 0 0 1-.025-.289c-.094-.203-.158-.27-.295-.32l.172-.56c.216-.044.519-.26.519-.26ZM57.018 57.797s.43-3.77.18-3.77c.126-.255-.858-.404-1.042.072-.184.476-.61.825-.61 3.913 0 0-.646.826-.898.862-.251.036-2.549 1.364-2.549 1.364s-.387.748.428.881c.175.029.173-.015.326-.055h1.508s-.001.402-.166 1.064c-.166.66-1.53 3.802-3.389 4.835 0 0-.165.537.537.33 0 0 2.934-1.198 3.76-4.09 0 0 .249-.662.869.206l2.603 3.636s.083.331.827.331c0 0 1.611.124 1.777-.207 0 0-.455-.909-1.034-1.074-.578-.165-3.388-2.562-3.677-3.347l-.786-.496-.041-.579s.165-1.86 1.86-2.355c0 0 1.86-.248 1.9-.91 0 0 .207-.744-1.28-.744l-1.103.133ZM121.732 61.973s.284.331.568.379c.284.047.094.757-.142.804-.237.047-.568.237-.568.237s-.568.33-.047.425c.52.095.378.805.378.805s-3.406.33-3.832 1.182c0 0-.236.379.757.332 0 0 2.791-.9 3.217-.379 0 0 0 1.892-.993 2.224l-.71.284-.473-.284-.379.236s.473 1.041.852 1.041c0 0 1.892.095 2.98-3.548l1.704-.095s.473.237.709.095c.237-.142.663-.568.663-.568s-.568-.71-.994-.71c-.426 0-1.656-.094-1.656-.094l-.473-.095-.331-.378.142-.52.378-.426.332-.757.094-.52s-.094-.38-.473-.38c-.378 0-1.561.332-1.561.332l-.142.378Z" clip-rule="evenodd"/><path fill="#004098" fill-rule="evenodd" d="m119.049 60.68-.157.63 1.576-.683 2.102-.736s1.681-.42 2.154-.367c.473.052 1.524.315 1.156.683-.367.367-.945.84-.945.84l-.368.368.788.053s.805-.397 1.103-.736c.225-.255.417-.507.481-.628.245-.464-.313-1.035-.479-1.09-.65-.217-4.268-1.24-7.411 1.665ZM117.972 61.334c-.037.343-.001 1.09-.078 1.552-.105.631-.684 1.156-.946 1.104-.263-.053-.999-.42-.683-.788.315-.368.367-1.261.367-1.261s.895-.402 1.264-.643c.037-.015.081-.014.076.036ZM122.045 55.267l.525.526.263.893.473-.263.893-1.47.683-.947.946.105.42 1.051-.683 1.261s-2.207 1.524-2.627 1.524c-.42 0-1.261-.158-1.261-.158s-.788-.735-.736-1.208c.053-.473-.21-1.576.263-1.419.473.158.841.105.841.105ZM120.026 55.905l.065 2.717s.194.582-.453.453c-.647-.13-.777-.194-.841-.777-.065-.582-.195-1.488.258-1.811.453-.324.971-.582.971-.582Z" clip-rule="evenodd"/></g><defs><filter id="a" width="154" height="157" x="0" y="0" color-interpolation-filters="sRGB" filterUnits="userSpaceOnUse"><feFlood flood-opacity="0" result="BackgroundImageFix"/><feColorMatrix in="SourceAlpha" result="hardAlpha" values="0 0 0 0 0 0 0 0 0 0 0 0 0 0 0 0 0 0 127 0"/><feOffset dy="16"/><feGaussianBlur stdDeviation="6.5"/><feColorMatrix values="0 0 0 0 0 0 0 0 0 0 0 0 0 0 0 0 0 0 0.03 0"/><feBlend in2="BackgroundImageFix" result="effect1_dropShadow_185_24"/><feBlend in="SourceGraphic" in2="effect1_dropShadow_185_24" result="shape"/></filter></defs></svg>