<svg xmlns="http://www.w3.org/2000/svg" xml:space="preserve" style="fill-rule:evenodd;clip-rule:evenodd;stroke-linejoin:round;stroke-miterlimit:2" viewBox="0 0 154 157"><path d="M77.002 92.77c-15.887-.03-28.74-12.881-28.771-28.771.031-15.888 12.884-28.739 28.771-28.768 15.889.029 28.74 12.88 28.767 28.768-.027 15.89-12.878 28.741-28.767 28.771Zm29.785-28.771c-.031-16.449-13.334-29.753-29.785-29.784-16.449.031-29.756 13.335-29.787 29.784.031 16.453 13.338 29.755 29.787 29.786 16.451-.031 29.754-13.333 29.785-29.786Zm-29.785 42.31c-23.364-.045-42.265-18.941-42.309-42.31.044-23.365 18.945-42.266 42.309-42.307 23.366.041 42.265 18.942 42.308 42.307-.043 23.369-18.942 42.265-42.308 42.31Zm0-86.309c-24.299.043-43.957 19.7-44.003 43.999.046 24.304 19.704 43.955 44.003 44.001 24.3-.046 43.954-19.697 43.999-44.001C120.956 39.7 101.302 20.043 77.002 20Zm1.761 44.748 8.719 6.104v-2.704l-8.719-6.105v2.705Zm-12.239-.73 8.72-6.106v-2.706l-8.72 6.105v2.707Zm0 6.834 8.72-6.106v-2.703l-8.72 6.105v2.704Zm27.592-9.025.011.008a1.69 1.69 0 0 1 .415 2.355 1.694 1.694 0 0 1-2.367.408l-1.176-.822v2.704l3.117 2.182a1.694 1.694 0 1 1-1.931 2.781c-.002-.004-.007-.007-.01-.01v.002l-1.176-.823v2.706l3.117 2.181a1.693 1.693 0 1 1-1.931 2.779c-.002-.004-.007-.006-.01-.008l-13.412-9.393v2.657l13.652 9.562v.001a1.693 1.693 0 0 1 .429 2.363 1.694 1.694 0 0 1-2.369.409l-11.712-8.204v9.143h-.002l.002.013a1.76 1.76 0 0 1-3.519 0v-9.156l-11.715 8.204-.008.006a1.692 1.692 0 0 1-1.941-2.772c.003-.002.006-.006.009-.006v-.001l13.655-9.562v-2.657L61.832 78.27a1.695 1.695 0 0 1-2.369-.407 1.694 1.694 0 0 1 .415-2.357l.013-.007h-.002l3.115-2.181v-2.706l-1.172.823v-.002a1.695 1.695 0 0 1-2.369-.406 1.696 1.696 0 0 1 .428-2.365h-.002l3.115-2.182v-2.704l-1.172.822-.012.008a1.692 1.692 0 0 1-1.942-2.771c.004-.004.009-.005.013-.008h-.002l15.355-10.75v-2.706l-13.412 9.391a1.696 1.696 0 0 1-2.369-.406 1.697 1.697 0 0 1 .415-2.359.022.022 0 0 0 .013-.004h-.002l3.115-2.183v-4.016h.003c0-.005-.003-.009-.003-.013a1.76 1.76 0 1 1 3.52 0v1.565l8.72-6.107v-3.794a1.76 1.76 0 1 1 3.519 0 .043.043 0 0 1-.002.012h.002v3.782l8.719 6.107v-1.565c0-.972.788-1.762 1.759-1.762.971 0 1.758.79 1.758 1.762v4.029l3.117 2.183a.015.015 0 0 0 .011.004c.765.538.951 1.592.415 2.359a1.695 1.695 0 0 1-2.357.415c-.002-.004-.007-.007-.01-.009l-13.412-9.391v2.706l15.353 10.75ZM77.002 36.923c-14.952.025-27.048 12.124-27.076 27.076.028 14.956 12.124 27.048 27.076 27.078 14.957-.03 27.048-12.122 27.078-27.078-.03-14.952-12.121-27.051-27.078-27.076Zm1.761 20.989 8.719 6.106v-2.707l-8.719-6.104v2.705Zm-27.33 29.731c-.042.059-.34.128-.407.31-.069.19-.117.361.043.485.093.067-.039.147-.222.192-.139.034-1.007.087-1.028-.148-.012-.165.381-.603.801-.738.13-.087.218-.323.34-.365.201-.087.515.209.473.264Zm-2.072.017c-.351.241-.494.569-.618.551-.195-.025-.343-.191-.512-.267-.306-.139-.585-.22-.613-.297-.059-.159.147-.024.301-.133.553-.377.795-.617 1.025-.564.238.054.339.158.478.187.283.055.464 0 .449.055-.012.048-.236.276-.51.468Zm-1.997-.727c-.033-.349.663-.25.77-.142.197.203-.728.518-.77.142Zm1.783-.691c.075-.276 1.327.019 1.446.233.079.142-.07.234-.388.192-.464-.065-1.133-.155-1.058-.425Zm3.933.609c-.41-.226-.707-.4-.785-.648-.004-.022-.077-.281-.164-.32-.087-.044-.123.103-.275-.022-.144-.125-.65-.685-1.098-.868-.187-.078-.4-.469-.632-.502-.227-.033-.815.134-.612.627.094.213.711.178 1.159.559.218.184.469.078.533.397.026.124-.039.109-.104.112-.04 0-.854-.408-1.603-.586-.521-.124-.983-.224-1.174.243-.046.102.046.498-.255.387-.287-.099-.758-.174-.942-.038-.068.05-.294.269-.346.336-.239.295.16.575.043.667-.055.045-.341-.168-.61-.231-.182-.038-.388.144-.467.242-.116.147 0 .188.27.454.434.427.627.504 1.304.848.136.069.4.244.488.398.098.163-.128.299-.33.189-.413-.225-2.179-1.144-1.974-.137.048.236.396.567.525.632.144.073.588.144.606.364.021.251-.669.445-.554.861.072.269.214.477.396.394.288-.132.818-.733.972-.716.447.05 1.077 1.111 1.544.871.556-.282.497-.684.331-.805-.294-.207-.803-.471-1.025-.713-.088-.1.094-.222.24-.305.36-.191.857.642 1.366 1.093.381.336.293.372.518.609.319.339.853.256 1.035-.3.067-.213-.946-1.026-1.331-1.299-.488-.351-.776-.439-.779-.696.003-.288.343-.075.352-.067.431.416 2.487.69 2.429-.608-.019-.442.355-.473-.058-.807-.034-.03-.5-.296-.529-.43-.022-.123.186-.332.398-.175.291.21.719.636.78.663.603.326 1.075-.269.358-.673Zm-1.229-2.613s-.24-.2-.358-.221c-.14-.041-.16.045-.287.052-.134-.017-.228.08-.276.182-.126.271.154.614.624.856.573.29.749-.54.297-.869Zm-5.539-8.846-.875.38.931 2.142-1.772.769-.842-1.946-.881.384.847 1.945-1.597.693-.896-2.053-.877.381 1.372 3.154 6.001-2.61-1.411-3.239Zm13.806 19.421c-.054.365-.589.605-.964.686-.14.03-.308.149-.394.169-.226.049-.197-.063.021-.279.121-.118.397-.385.23-.58-.163-.195.131-.668.283-.523.279.268.837.437.824.527Zm.888-2.164c-.09-.176.246-.578-.238-.592-.064-.006-.34-.05-.428 0-.083.048-.236.365-.274.35-.226-.097-.603-.281-1.135-.431-.511-.137-.79-.508-1.201-.394-.173.054-.313.06-.464.162-.269.175-.212.576.081.766.128.084 1.019-.033 1.361.052.401.095.804.216.84.385.014.086-.087.221-.251.337-.597.404-.899.197-1.222.194-.066-.003-.045-.139.074-.197.15-.083.444-.105.457-.162.017-.072-.449-.242-.88-.279-.166-.017-.3.013-.442.04-.423.076-1.053.748-1.313 1.478-.212.605-.497 1.06-.191 1.336.369.325.59-.08.87-.759.16-.386.527-.588.724-.693.079-.046.367-.431.871-.083.021.013-.018.148-.17.137-.198-.008-.458.102-.51.21-.062.142.007.328-.023.518-.028.196-.403.143-.149.536.018.029-.227.119-.318.056-.043-.027-.015-.111-.061-.13-.142-.062-.377.263-.415.295-.21.181-.522.247-.852.323-.558.136-1.313.378-1.744.556-.505.209-.432.58.104.847.236.118.924-.158 1.264-.279.235-.084.743-.246.961-.184.229.069-.782 1.198-.77 1.38.027.307.467.663.685.289.095-.169.181-.397.322-.659.102-.204.287-.412.397-.589.155-.255.3-.503.37-.477.167.063.133.332.267.712.326.892 1.261 1.882 2.061 2.294.483.248.866.04.676-.6a3.407 3.407 0 0 0-.106-.318c-.094-.237-.099.019-.556-.336-.13-.096-.652-.675-.937-.926-.135-.123-.343-.442-.472-.745-.078-.2-.315-.307.099-.494.251-.112.083-.403.296-.439.178-.027.514-.004.745-.054.278-.054.634-.249 1.071-.396.405-.132.994-.907.775-1.226-.151-.224-.456-.334-.843-.578-.193-.129-.628.106-.409-.194.151-.204.176-.304.404-.31.356-.003 1.389.589 1.536-.009.123-.482-.735-.347-.937-.72ZM40 73.555l-.006-.017 2.756-1.557.433 1.689L40 73.555Zm5.777.203-1.642-.068-.553-2.18 1.411-.834-.307-1.2-5.82 3.657.327 1.275 6.881.511-.297-1.161ZM53.5 85.934c-.215-.228-.627-.386-1.073-.293-.289.058-.033.36.028.421.06.06.13.048.184.088.217.168.351.445.497.47.566.095.718-.313.364-.686Zm19.002 14.226c-.251.14-.4.197-.553.163-.082-.017-.237-.226-.182-.317.131-.225.063-.326.126-.452.113-.209.417-.105.613-.096.261.02.435-.064.44.126 0 0-.104.39-.444.576Zm-1.368-1.741c-.186.25-.413.347-.523.212-.075-.097.386-.465.601-.705.263-.296.31-.24.391-.166.087.087-.212.313-.469.659Zm-2.736-.54c-.441.092-.572.411-.655.588-.036.084-.144.046-.151-.041-.02-.199.009-.547.194-.792.246-.335.357-.609.549-.819.239-.27.538-.365.6-.284.115.154-.197.298-.219.438-.06.401-.13.398-.258.579-.084.132.168.281-.06.331Zm5.254.755c-.407-.222-1.134.136-1.301-.123-.063-.107.126-.296.164-.433.064-.231-.057-.448-.24-.507-.115-.044-.103-.199.036-.199.211-.002.305.03.511.064.385.066.613.061.875-.268.083-.099.064-.336-.084-.465-.192-.168-.834-.231-1.511-.271-.724-.036-1.491-.111-1.66.139-.083.124-.252.261-.343.417-.138.233-.222.443-.364.528-.454.264-.622.871-.688.655-.048-.146-.262-.148-.383-.186-.057-.02-.038-.183.031-.239.073-.055.079 0 .178-.031.274-.087.613-.345.684-.541.167-.492.396-.856.194-1.164-.174-.261-.499-.396-.838-.443-.179-.024-.476-.02-.666.047-.331.116-.472.505-.702.975-.093.194-.298.429-.404.728-.134.387-.309.925-.392 1.208-.185.625-.244 1.065-.13 1.529.058.24-.043.564.291.608.273.036.215-.997.337-1.457.047-.191.107-.368.263-.439.049-.023.096-.111.182-.063.079.049-.086.315.051.328.242.02.395-.268.574-.143.141.099-.091.339-.301.489-.397.294-.619.882-.108 1.06.218.076.5-.209.631-.504.108-.23.093-.386.195-.567.079-.143.21-.161.324-.335.107-.16.194-.354.353-.542.184-.223.437-.442.608-.617.189-.198.356-.388.559-.496.203-.104.493-.163.656-.033.115.094-.411.351-.742.613-.453.367-.738.857-.881 1.502-.059.263-.252.978-.092 1.152.121.122.23.173.392.167.412-.011.318-.788.579-1.093.058-.067.113-.191.224-.121.115.076-.316 1.583-.584 2.461-.183.605-.245 1.116-.322 1.598-.029.205-.054.397.239.476.416.11.644-.781.78-1.333.118-.458.32-1.137.54-1.359.236-.248.773-.376 1.099-.425.334-.051.639-.422.833-.559.272-.191.548-.875.617-1.122.097-.342 0-.523-.264-.666Zm10.542-.979c-.113.096-.222.196-.222.345.007.188.071.343.181.409.082.058.187.063.301.017.161-.063.216-.248.277-.445.036-.124.076-.249.141-.362.097-.158.206-.2.321-.247.101-.04.207-.079.295-.204a.382.382 0 0 0 .068-.342c-.041-.14-.165-.247-.35-.316-.256-.088-.355.075-.426.183-.022.038-.046.077-.063.078l-.02-.009c-.151-.125-.094-.291-.034-.467.032-.087.061-.17.071-.255.008-.117-.022-.202-.088-.248-.1-.066-.268-.043-.5.074-.103.047-.176.149-.257.257-.071.1-.149.209-.258.282-.293.18-.483.384-.634.546-.107.12-.195.212-.283.256-.067.031-.186.052-.315.076-.226.043-.482.089-.563.202l-.122.227c-.055.112-.107.227-.165.245l-.039-.003c-.097-.055-.039-.23.02-.397l.023-.066c.076-.232.212-.386.327-.522a.892.892 0 0 0 .167-.229.32.32 0 0 0-.046-.374.382.382 0 0 0-.408-.097c-.256.097-.589.612-.74.911a3.04 3.04 0 0 0-.197.552c-.059.197-.115.387-.212.56-.103.184.002.422.153.579.14.145.377.271.58.165.049-.024.064-.08.085-.14.036-.107.075-.241.279-.297.091-.023.169.033.257.103.107.083.227.171.403.108.174-.065.285-.312.379-.529l.075-.162c.129-.26.782-1.204 1.053-1.341.131-.063.215-.082.264-.058.057.026.076.109.103.222l.021.095c.03.095.108.134.176.17.062.031.113.056.119.118.01.14-.091.232-.197.33Zm29.807-24.37-5.404-1.418-.307 1.161 5.405 1.418-.368 1.407.926.244 1.043-3.981-.922-.242-.373 1.411Zm2.03-8.328a1.889 1.889 0 0 0-.308-.668 1.718 1.718 0 0 0-.544-.471 1.68 1.68 0 0 0-.766-.197c-.427-.013-.776.068-1.052.252a2.39 2.39 0 0 0-.703.754l-.357.596a7.48 7.48 0 0 1-.24.367c-.073.105-.149.19-.228.258a.744.744 0 0 1-.245.153.877.877 0 0 1-.316.037.99.99 0 0 1-.414-.092.821.821 0 0 1-.288-.234.877.877 0 0 1-.161-.325 1.185 1.185 0 0 1-.045-.374c.012-.32.07-.598.18-.84a3.35 3.35 0 0 1 .276-.534l-1.064-.106c-.211.318-.32.812-.345 1.48a2.83 2.83 0 0 0 .088.869c.069.273.182.508.342.71.153.2.349.366.593.488.244.117.53.185.861.198.232.01.433-.007.611-.047.166-.043.329-.105.464-.193.136-.091.264-.206.385-.34a3.65 3.65 0 0 0 .346-.488l.419-.688c.05-.094.108-.176.163-.259.057-.077.117-.149.186-.212a.693.693 0 0 1 .235-.147.862.862 0 0 1 .322-.042c.224.01.406.09.545.248.137.159.199.387.188.689a2.33 2.33 0 0 1-.124.709 7.245 7.245 0 0 1-.203.506l1.002.093c.036-.093.086-.253.158-.485.071-.234.111-.527.124-.872a2.625 2.625 0 0 0-.085-.793Zm-6.963 4.593 6.476.957.176-1.188-6.472-.957-.18 1.188Zm-1.965 6.928-.475 1.099 2.386 1.029 2.861 3.337.514-1.191-1.933-2.135 2.909-.137.515-1.187-4.366.222-2.411-1.037ZM95.937 94.331c.187-.364.205-.784-.19-.832-.147-.018-.209-.043-.447.108-.41.255-.238.441-.518.623-.112.077-.256-.453-.05-.644.429-.401.849-.995.677-1.483-.141-.403-.384-.729-.895-.223-.27.263-.613.642-.791 1.245-.234.77-.352 1.625-.701 2.155-.223.34-.27.141-.543.399-.758.711-1.158 1.354-.76 1.745.276.271.648.176.845.105.246-.087.385-.291.431-.157.048.135-.137.737-.222 1.213-.032.192-.203.634-.456.98-.421.583-.539.777-.403.952.171.208.459.173.692-.004.268-.196 1.153-1.649 1.383-3.232.041-.281.222-.61.289-.845.096-.311.02-.513.181-.732.497-.65 1.231-.901 1.478-1.373Zm3.275 1.23c-.288-.361-.869-.216-1.486.179-.362.23-.809.295-1.081.364-.829.217-1.498-.059-1.708-.003-.205.058-.094.578.079.819.488.705 1.905.421 2.738.141.325-.109.664-.441.937-.629.294-.192.595-.26.568-.462-.027-.203.075-.256-.047-.409Zm3.393-7.81s-.075-.078-.085-.08c-.189-.067-.155-.589-.133-.61.273-.22.673.763.218.69Zm-.1-2.275c.1-.315-.006-.39.082-.53.118-.179.377-.131.57.036.179.156.302.422.172.572-.142.173-.351-.032-.45.056-.117.108-.074.385.111.372.164-.016.27.162.31.345.015.079-.059.245-.027.315.036.1.235.127.285.226.044.091-.112.37-.278.356-.267-.029-.211-.532-.321-.641-.563-.567-.498-.964-.454-1.107Zm-.432 2.529c-.132.036-.181.104-.298-.053-.265-.348-.301-.806-.175-.975.274-.365.255.247.277.326.052.172.324.668.196.702Zm-.218 1.287c-.113.047-.251-.223-.451-.414-.289-.279-.663-.628-.634-.689.046-.102.004-.529.118-.51.191.033.375.534.492.694.188.336.29.123.382.514.052.221.243.34.093.405Zm1.435-.94c.445-.505.752-1.06 1.009-1.381.142-.174.353-.304.483-.496.146-.22.306.068.448.04.355-.064.678-.331.665-.605.011-.17-.119-.443-.456-.603-.624-.305-1.103 1.081-1.469.965-.082-.025-.085-.6-.08-.486-.021-.329-.094-.743-.31-1.087-.175-.278-.32-.249-.486-.355-.135-.084-.231-.213-.418-.231-.471-.053-.69.301-.68.614.009.335.279.914.093 1.127-.206.233-.415.222-.499.061-.115-.228-.134-.69-.279-.772-.085-.045-.277.081-.386.281-.112.204.109.696-.145.791-.116.043-.261-.198-.365-.173-.295.067.037.839-.139 1.054-.309.377-.262.628-.084.991.134.266.442.639.607.95.184.355.538.568.509.742-.038.186-.122.07-.235.219-.166.212.334 1.384 1.003 1.77.125.071.475.099.578-.092.188-.348-.553-.559-.69-.94-.092-.25.486-.947.777-1.475.134-.242.283-.606.549-.909Zm2.649-.416c-.145.077-.568.884-.875 1.224-.119.133-.219.108-.293.038-.257-.232.534-.955.269-1.195-.394-.358-.807-.232-1.128.215 0 0-.377.569-.767 1.034-.325.387-.495 1.136-.139 1.278.372.15.677-.192.763-.596.027-.133-.02-.153-.045-.271-.031-.147.085-.204.085-.287-.006-.249-.025-.385.166-.366.07.006.23.295.267.376.067.154.134.417.057.598-.249.613-.611 1.212-.356 1.543.056.073.435.11.571.041.161-.081.132-.233.237-.553.04-.125.301-.275.343-.381.079-.196.084-.535.191-.511.213.051.506.472.562.939.032.279-.008.596-.152.706-.055.038-.31.367-.114.599.226.26.481.224.619.154.594-.309.446-.95.417-1.614-.014-.35-.146-.715-.254-.864-.168-.242-.093-.271-.184-.355-.181-.166-.349-.148-.345-.235.021-.279.369-.491.427-.563.094-.113.353-.329.404-.555.097-.427-.558-.493-.726-.399ZM87.594 99.897c-.284.036-.281.388-.281.677l-.006.215c-.041.429-.727.935-1.35 1.197l-.168.07c-.301.136-.535.24-.909.1-.163-.057-.317-.359-.347-.671-.024-.245.036-.436.17-.513.057-.036.075-.018.104.017.072.071.153.115.459-.118.028-.021.034-.095.043-.239.009-.119.022-.254.05-.337l.105-.247.067-.173a.741.741 0 0 0-.271-.686c-.233-.182-.559-.22-.869-.099-.459.179-.876.563-1.243.897-.373.341-.699.636-.996.668-.105.012-.184-.032-.254-.075-.072-.034-.133-.075-.201-.046-.093.037-.178.198-.28.542-.023.062-.023.187-.019.334.004.23.009.52-.094.61-.03.024-.067.033-.109.024a.12.12 0 0 1-.097-.065c-.094-.17.053-.567.055-.572.003-.005.024-.336.024-.336 0-.102-.003-.195.018-.279.133-.471.535-.607.961-.751.222-.071.524-.382.574-.465.088-.163-.086-.313-.227-.434l-.022-.019c-.235-.201-.448-.233-.655-.102-.174.113-.373.37-.603.668a8.669 8.669 0 0 1-.55.654l-.067.07c-.401.396-.851.88-.804 1.098a.114.114 0 0 0 .08.089c.183.072.338-.136.473-.316.107-.146.202-.274.283-.232.034.019.045.036.051.063.016.043-.011.119-.071.22l-.03.043c-.071.118-.142.223-.153.531-.011.434.084.522.243.665l.166.161c.073.083.09.226.103.321l.025.104c.11.103.187.089.238.073.047-.008.074-.012.109.033.081.112.072.402.018.443-.006.005-.012.011-.039-.02-.061-.077-.208-.038-.266-.024-.156.043-.194.176-.226.294l-.027.087c-.155.428.079.616.328.747.15.075.279.139.522-.012.209-.133.209-.504.209-.895v-.126c.002-.366.036-.679.088-.862a.96.96 0 0 0 .002-.516l-.023-.189c.023-.243.145-.348.305-.48.083-.069.177-.147.267-.257l.203-.254c.246-.316.443-.567.808-.816.121-.08.24-.201.356-.318.16-.16.321-.325.495-.398l.032-.017c.156-.067.44-.198.546-.105.041.028.16.275.119.404-.015.049-.046.071-.103.076-.088.006-.104-.043-.121-.126-.012-.056-.026-.11-.078-.137-.092-.044-.368.029-.374.032-.103.026-.17.158-.255.312a1.649 1.649 0 0 1-.213.332c-.323.364-.342.973-.193 1.386.173.476.45.631.615.725l.1.065c.404.349.94.599 2.116.063.777-.35 1.352-.873 1.58-1.437.104-.255.023-.893-.206-1.189-.09-.118-.193-.17-.31-.157Zm1.83-71.777.017.008-.218 3.156-1.65-.566 1.851-2.598Zm-3.348 4.718.961-1.335 2.126.736-.082 1.634 1.17.407.145-6.875-1.24-.428-4.21 5.468 1.13.393Zm-23.839 2.215-2.128-4.633.018-.009 4.097 3.735 1.303-.6-2.725-5.948-.991.454 2.14 4.669-.016.009-4.116-3.761-1.302.59 2.732 5.949.988-.455Zm32.024.321-1.905-1.007 2.606-4.943-1.061-.558-3.054 5.785 2.97 1.566.444-.843Zm-20.248-9.312c.341-.024.606.026.801.135.195.113.307.355.33.729.024.339-.058.594-.243.77-.181.173-.437.273-.754.294l-.486.033-.134-1.929.486-.032Zm-.101 5.648-.194-2.806.274-.018a.98.98 0 0 1 .566.108c.162.085.288.258.386.514l.791 2.078 1.274-.088-1.02-2.432a2.08 2.08 0 0 0-.191-.355.856.856 0 0 0-.199-.212.55.55 0 0 0-.192-.101 1.37 1.37 0 0 0-.193-.038v-.03c.364-.08.652-.26.873-.548.218-.282.312-.64.285-1.071a2.03 2.03 0 0 0-.195-.763 1.377 1.377 0 0 0-.433-.503 1.696 1.696 0 0 0-.641-.273 2.851 2.851 0 0 0-.796-.047l-2.038.136.446 6.529 1.197-.08Zm-6.985-3.97a1.23 1.23 0 0 1 .328-.509c.142-.123.304-.21.487-.256a1.113 1.113 0 0 1 1.073.3c.166.155.317.375.461.663.147.287.272.649.381 1.086.105.437.164.816.167 1.134a2.41 2.41 0 0 1-.1.804 1.13 1.13 0 0 1-.322.51 1.141 1.141 0 0 1-.489.253 1.117 1.117 0 0 1-1.07-.298c-.166-.157-.317-.377-.465-.664a5.15 5.15 0 0 1-.377-1.084 4.834 4.834 0 0 1-.169-1.134 2.424 2.424 0 0 1 .095-.805Zm-.557 3.66c.244.377.512.669.813.877.3.202.614.334.955.384.339.051.674.039.997-.043.33-.08.627-.223.904-.426.278-.202.497-.467.664-.787.168-.321.271-.703.31-1.151.035-.448-.016-.956-.153-1.53-.144-.566-.332-1.04-.573-1.418a3.054 3.054 0 0 0-.811-.881 2.334 2.334 0 0 0-.957-.387 2.629 2.629 0 0 0-.997.045 2.545 2.545 0 0 0-.903.427c-.276.203-.5.465-.668.789-.166.319-.27.705-.31 1.152-.036.446.017.956.159 1.524.139.572.33 1.045.57 1.425Zm13.379-5.229.019.002.866 5.61.843.111 2.32-5.208.014.002-.686 5.413 1.081.138.821-6.491-1.716-.218-1.986 4.669-.017-.001-.722-5.016-1.78-.227-.825 6.493 1.08.138.688-5.415Zm29.11 31.179.925-.25-.618-2.253 1.861-.511.561 2.047.921-.254-.557-2.044 1.682-.458.591 2.161.921-.25-.907-3.322-6.311 1.727.931 3.407ZM97.577 38.882c.147.245.338.467.574.668.233.202.48.357.74.465.262.11.531.159.812.142.281-.013.561-.093.847-.248.287-.155.57-.395.852-.724l2.767-3.205-.907-.783-2.77 3.206c-.355.412-.664.643-.929.689-.266.049-.526-.039-.787-.26-.264-.235-.392-.479-.382-.749.006-.271.191-.609.546-1.018l2.766-3.211-.907-.784-2.769 3.208c-.282.328-.478.643-.588.946-.11.308-.151.599-.125.877a1.8 1.8 0 0 0 .26.781Zm17.219 20.095.06.482c.036.334.007.603-.1.803-.102.201-.337.321-.709.365-.337.039-.598-.031-.781-.21-.184-.174-.293-.422-.332-.737l-.055-.485 1.917-.218Zm-5.585.64 2.793-.322.031.27c.026.216-.002.407-.082.571-.075.163-.241.298-.494.409l-2.039.889.146 1.265 2.379-1.133a1.86 1.86 0 0 0 .35-.205c.087-.071.157-.138.203-.205a.583.583 0 0 0 .087-.202c.016-.064.027-.128.031-.193l.027-.002c.1.36.294.643.59.847.293.207.653.287 1.084.235.299-.033.55-.11.751-.229.207-.118.367-.268.487-.456.12-.187.202-.407.241-.651.041-.245.044-.514.01-.797l-.232-2.03-6.502.746.139 1.193Zm-7.692-16.882 3.968-3.201.017.015-2.615 4.888.898 1.117 5.097-4.104-.681-.851-4.001 3.225-.012-.011 2.635-4.922-.894-1.108-5.094 4.106.682.846Zm5.391 8.617 6.785-.867-.506-1.125-5.161.83-.006-.017 4.058-3.277-.532-1.178-5.157 4.482.519 1.152Zm-1.798-3.575 5.593-3.397-.624-1.027-5.594 3.398.625 1.026Zm-55.247-1.735L44.359 42.5l-.648 1.012 5.503 3.539.651-1.009Zm-2.768 5.016-2.606-1.239.833-1.752 2.607 1.238.515-1.082-5.912-2.812-.51 1.086 2.402 1.144-.833 1.75-2.405-1.141-.515 1.085 5.908 2.805.516-1.082Zm-8.289 11.737 5.582.282.062-1.199-5.583-.281.073-1.451-.952-.051-.209 4.112.955.048.072-1.46Zm.943-7.676c.225.317.517.593.88.829.361.236.773.42 1.227.547.467.132.91.189 1.34.178a3.116 3.116 0 0 0 1.176-.256 2.65 2.65 0 0 0 .935-.712c.267-.313.469-.712.606-1.193.082-.291.137-.566.168-.827.026-.261.023-.462-.009-.599L45 52.85c.06.158.089.342.1.551a2.57 2.57 0 0 1-.109.733c-.07.24-.176.457-.318.645-.147.189-.333.34-.565.45a2.01 2.01 0 0 1-.816.188c-.315.017-.679-.036-1.089-.15-.408-.116-.742-.257-1.002-.44a2.076 2.076 0 0 1-.603-.586 1.526 1.526 0 0 1-.24-.679 1.773 1.773 0 0 1 .066-.716c.084-.293.19-.522.33-.69.139-.166.252-.302.35-.406l-1.022-.354a6.427 6.427 0 0 0-.321.498 3.456 3.456 0 0 0-.333.828 3.038 3.038 0 0 0-.105 1.309c.065.408.207.766.428 1.088Zm.083 14.257c.424-.041.763-.163 1.012-.382a2.37 2.37 0 0 0 .605-.834l.284-.638c.066-.152.129-.282.19-.394.058-.109.121-.206.188-.285a.78.78 0 0 1 .231-.178.82.82 0 0 1 .303-.08c.161-.016.305 0 .428.041a.772.772 0 0 1 .311.194.834.834 0 0 1 .201.301c.051.118.078.238.09.37.029.318.006.602-.07.855a3.285 3.285 0 0 1-.209.563l1.074-.03c.163-.343.214-.844.158-1.512a3.11 3.11 0 0 0-.2-.852 1.97 1.97 0 0 0-.425-.658 1.696 1.696 0 0 0-.655-.408 2.064 2.064 0 0 0-.879-.089 2.272 2.272 0 0 0-.598.122c-.163.06-.312.144-.436.251a1.767 1.767 0 0 0-.337.382c-.1.149-.194.328-.282.531l-.332.733a2.576 2.576 0 0 1-.131.273 1.382 1.382 0 0 1-.157.238.695.695 0 0 1-.217.172.731.731 0 0 1-.308.087.733.733 0 0 1-.573-.179c-.158-.14-.249-.362-.274-.66a2.242 2.242 0 0 1 .035-.722c.046-.202.09-.375.133-.526l-1 .032c-.025.098-.054.265-.098.504a3.634 3.634 0 0 0-.016.882c.022.272.085.529.181.771.095.242.229.452.392.625a1.657 1.657 0 0 0 1.381.5Zm11.465-25.345-3.883-3.3.011-.015 5.285 1.651.932-1.09-4.984-4.241-.707.828 3.916 3.328-.016.015-5.32-1.67-.925 1.085 4.985 4.239.706-.83Zm1.528-9.401.016-.014 2.573 1.841-1.349 1.11-1.24-2.937Zm2.262 5.321-.637-1.513 1.744-1.427 1.352.929.957-.785-5.775-3.73-1.018.832 2.446 6.454.931-.76Z" style="fill:#ac1e32" transform="translate(-10.498 5.774) scale(1.13634)"/></svg>