<svg xmlns="http://www.w3.org/2000/svg" width="154" height="157" fill="none"><g filter="url(#a)"><path fill="#fff" d="M13 0h128v128H13z"/><path fill="#AD1D32" d="M53.666 71.594v-.59h-1.393v-.515h1.255v-.533h-1.255v-.415h1.353v-.557h-2.161v2.61h2.2Zm1.32 0 .127-.43h.92l.127.43h.844l-.98-2.61h-.88l-.981 2.61h.824Zm.877-.995h-.575l.287-.938.288.938Zm2.796 1.04c.253 0 .462-.037.629-.11a.869.869 0 0 0 .388-.321.827.827 0 0 0 .139-.463.733.733 0 0 0-.104-.386.796.796 0 0 0-.334-.29c-.152-.078-.405-.154-.757-.23-.143-.03-.233-.062-.27-.096-.04-.034-.06-.071-.06-.113 0-.057.024-.105.072-.145.047-.04.118-.06.212-.06.114 0 .203.027.268.08.064.054.107.14.127.257l.76-.044c-.033-.271-.137-.468-.312-.593-.175-.124-.43-.186-.763-.186-.272 0-.486.035-.642.103a.774.774 0 0 0-.351.281.685.685 0 0 0-.117.38c0 .204.076.373.228.504.151.132.403.238.757.317.216.048.354.098.413.151a.24.24 0 0 1 .09.182.242.242 0 0 1-.094.188.394.394 0 0 1-.267.081.427.427 0 0 1-.356-.158.586.586 0 0 1-.101-.285l-.767.048c.022.263.119.48.29.651.17.171.478.257.922.257Zm3.333-.045V69.63h.823v-.645h-2.452v.645h.823v1.965h.806ZM65.463 71.64c.234 0 .427-.033.578-.1a.973.973 0 0 0 .38-.302c.102-.133.177-.298.225-.497l-.707-.213a.804.804 0 0 1-.172.377c-.08.087-.196.13-.35.13a.452.452 0 0 1-.37-.16c-.088-.108-.132-.307-.132-.597 0-.233.037-.405.11-.514a.473.473 0 0 1 .42-.22.465.465 0 0 1 .463.367l.713-.16c-.092-.275-.231-.48-.42-.612-.188-.133-.446-.2-.775-.2-.42 0-.745.117-.975.349-.23.232-.344.564-.344.996 0 .324.065.59.195.797.13.208.286.353.466.436.18.082.412.124.695.124Zm2.71-.046v-1.056h.88v1.056h.81v-2.61h-.81v.913h-.88v-.913h-.808v2.61h.807Zm3.392 0v-2.61h-.808v2.61h.808Zm1.669 0v-1.433l.977 1.433h.76v-2.61h-.76v1.444l-.983-1.444h-.753v2.61h.759Zm3.092 0 .127-.43h.918l.129.43h.844l-.982-2.61h-.88l-.98 2.61h.824Zm.876-.995h-.575l.287-.938.288.938ZM80.184 71.594v-1.433l.977 1.433h.76v-2.61h-.76v1.444l-.983-1.444h-.753v2.61h.759Zm3.877.045c.29 0 .532-.054.726-.163.194-.109.342-.26.445-.456.103-.195.154-.445.154-.75 0-.42-.118-.747-.353-.98-.235-.234-.57-.35-1.004-.35-.424 0-.754.118-.992.356-.237.237-.356.569-.356.995 0 .305.06.559.18.762a1.1 1.1 0 0 0 .47.445c.192.094.436.14.73.14Zm-.027-.604a.497.497 0 0 1-.4-.172c-.097-.116-.146-.305-.146-.569 0-.265.05-.456.148-.571a.49.49 0 0 1 .391-.173c.17 0 .305.057.404.17.099.114.148.293.148.539 0 .292-.047.494-.142.607a.497.497 0 0 1-.403.17Zm2.932.56v-1.06h.072c.073 0 .14.02.197.06a.61.61 0 0 1 .146.202l.431.797h.912l-.39-.756a1.03 1.03 0 0 0-.113-.162.82.82 0 0 0-.13-.138.805.805 0 0 0-.21-.096.975.975 0 0 0 .284-.103.724.724 0 0 0 .254-.255.727.727 0 0 0 .093-.375.72.72 0 0 0-.121-.423.608.608 0 0 0-.319-.238 1.951 1.951 0 0 0-.571-.064h-1.345v2.61h.81Zm.34-1.553h-.34v-.531h.355c.147 0 .247.023.3.068.054.045.08.11.08.194a.241.241 0 0 1-.05.151.214.214 0 0 1-.13.082 1.21 1.21 0 0 1-.214.036Zm2.653 1.552v-1.99l.509 1.99h.596l.511-1.99v1.99h.66v-2.61h-1.059l-.407 1.588-.41-1.588h-1.061v2.61h.66Zm3.675 0 .127-.43h.919l.128.43h.844l-.981-2.61h-.88l-.98 2.61h.823Zm.877-.995h-.576l.287-.938.289.938Zm3.79.995v-.642h-1.26v-1.968h-.806v2.61H98.3ZM100.324 71.64c.22 0 .408-.028.565-.087a.903.903 0 0 0 .323-.216.938.938 0 0 0 .226-.36c.048-.137.072-.282.072-.437v-1.556h-.804v1.594c0 .144-.04.256-.119.335a.442.442 0 0 1-.327.119.44.44 0 0 1-.328-.12.455.455 0 0 1-.119-.334v-1.594h-.804v1.556c0 .128.025.276.074.442.031.103.088.203.172.3a.942.942 0 0 0 .277.226c.101.053.227.088.377.106.15.018.288.027.415.027Zm2.81-.046v-1.433l.977 1.433h.761v-2.61h-.761v1.444l-.983-1.444h-.753v2.61h.759Zm3.439 0v-2.61h-.808v2.61h.808Zm2.507 0 .969-2.61h-.819l-.579 1.879-.587-1.879h-.844l.986 2.61h.874Zm3.758 0v-.59h-1.392v-.515h1.255v-.533h-1.255v-.415h1.353v-.557h-2.162v2.61h2.201Zm1.581 0v-1.06h.071c.074 0 .14.021.198.061.043.031.092.098.146.202l.431.797h.912l-.39-.756a1.052 1.052 0 0 0-.113-.162.874.874 0 0 0-.129-.138.8.8 0 0 0-.211-.096.98.98 0 0 0 .284-.103.725.725 0 0 0 .254-.255.724.724 0 0 0 .093-.375.726.726 0 0 0-.121-.423.609.609 0 0 0-.319-.238 1.952 1.952 0 0 0-.572-.064h-1.344v2.61h.81Zm.34-1.552h-.34v-.531h.355c.147 0 .247.023.3.068.054.045.081.11.081.194a.24.24 0 0 1-.051.151.215.215 0 0 1-.131.082 1.213 1.213 0 0 1-.214.036Zm3.072 1.597c.253 0 .463-.037.629-.11a.866.866 0 0 0 .388-.321.824.824 0 0 0 .139-.463.737.737 0 0 0-.104-.386.803.803 0 0 0-.333-.29c-.153-.078-.405-.154-.758-.23-.142-.03-.232-.062-.27-.096-.04-.034-.059-.071-.059-.113 0-.057.024-.105.071-.145.048-.04.118-.06.212-.06a.41.41 0 0 1 .268.08c.065.054.107.14.127.257l.761-.044c-.034-.271-.138-.468-.313-.593-.175-.124-.429-.186-.763-.186-.272 0-.486.035-.642.103a.777.777 0 0 0-.351.281.69.69 0 0 0-.116.38c0 .204.076.373.228.504.15.132.403.238.756.317.216.048.354.098.414.151a.241.241 0 0 1 .089.182.244.244 0 0 1-.094.188.393.393 0 0 1-.266.081.427.427 0 0 1-.356-.158.59.59 0 0 1-.102-.285l-.767.048c.022.263.119.48.29.651.171.171.478.257.922.257Zm2.728-.045v-2.61h-.808v2.61h.808Zm2.351 0V69.63h.822v-.645h-2.451v.645h.822v1.965h.807Zm3.075 0v-1.093L127 68.984h-.89l-.527.881-.527-.881h-.896l1.017 1.517v1.093h.808Z"/><path fill="#AD1D32" fill-rule="evenodd" d="M112.823 64.88c.042.276-.115.266-.234.535-.111.267-.519.135-1.017.17-.472.03-1.124.197-1.592.102-1.222-.253-3.16-.908-3.262-2.114-.035-.422.193-1.135.49-1.058.296.076.921.89 2.086 1.215.382.107.981.342 1.584.316 1.037-.046 1.847.188 1.945.833Zm-3.145-3.825c.496-.316.817-.813.367-1.155-.168-.124-.226-.2-.626-.186-.685.017-.603.37-1.067.396-.204.014 0-.738.387-.826.816-.181 1.746-.614 1.882-1.335.111-.592.05-1.162-.939-.913-.516.133-1.208.359-1.853.968-.831.78-1.581 1.743-2.383 2.143-.517.258-.434-.016-.948.105-1.431.333-2.38.838-2.17 1.595.148.527.669.673.957.73.362.07.683-.088.645.114-.039.201-.692.802-1.132 1.326-.176.212-.7.63-1.257.878-.929.413-1.215.567-1.17.877.061.378.442.538.854.491.463-.053 2.576-1.207 3.982-2.982.252-.316.705-.594.956-.826.34-.317.387-.616.741-.764 1.068-.451 2.146-.235 2.774-.636Zm12.657 2.355c-.213-.062-1.414.32-2.048.355-.241.013-.311-.11-.316-.247-.016-.471 1.454-.417 1.434-.913-.027-.732-.551-1-1.298-.878 0 0-.921.192-1.751.274-.695.068-1.596.633-1.392 1.114.212.511.843.471 1.319.154.16-.106.134-.166.226-.307.113-.171.283-.119.362-.199.238-.243.355-.404.519-.197.061.075-.07.51-.114.625-.083.213-.282.537-.532.643-.843.358-1.78.594-1.856 1.164-.017.13.307.53.511.595.233.075.349-.102.769-.317.161-.083.558.028.705-.04.267-.114.607-.443.686-.316.154.257.023.952-.381 1.464-.24.308-.592.579-.84.542-.089-.015-.658.066-.697.481-.045.475.242.688.441.75.878.272 1.367-.496 1.989-1.181.33-.36.563-.845.608-1.09.071-.406.174-.356.169-.527-.014-.339-.191-.482-.1-.56.292-.254.839-.127.963-.142.199-.022.666.015.931-.152.519-.326-.052-1.024-.307-1.095Zm-23.761.12c-.42-.06-.554.448-.665.857l-.089.31c-.226.597-1.403 1.057-2.395 1.186l-.268.038c-.481.078-.86.138-1.337-.2-.207-.15-.318-.642-.24-1.097.06-.362.222-.607.442-.674.098-.03.116.009.147.064.067.136.17.231.698.008.047-.016.086-.122.158-.322.058-.166.123-.354.199-.464l.243-.311.163-.22a1.077 1.077 0 0 0-.125-1.088c-.262-.35-.71-.527-1.205-.476-.727.08-1.47.461-2.123.802-.667.345-1.243.642-1.678.577-.154-.026-.254-.123-.34-.21-.084-.08-.163-.156-.267-.143-.148.016-.33.216-.61.662-.055.09-.102.269-.153.477-.087.334-.19.75-.374.837a.203.203 0 0 1-.165-.003.205.205 0 0 1-.115-.136c-.072-.277.298-.791.303-.795.003-.005.16-.474.16-.474a1.68 1.68 0 0 1 .138-.393c.37-.624.996-.66 1.66-.703.343-.02.9-.35.998-.448.193-.195.002-.474-.153-.7l-.027-.042c-.257-.375-.552-.504-.897-.396-.286.094-.673.382-1.12.719-.338.254-.687.517-1.037.728l-.124.072c-.728.413-1.559.931-1.577 1.259a.177.177 0 0 0 .08.16c.238.175.538-.062.806-.272.203-.16.394-.311.492-.214.031.033.046.066.046.106 0 .072-.062.165-.186.285l-.06.052c-.145.138-.287.268-.421.705-.188.612-.084.774.089 1.04l.173.296c.075.147.044.358.025.498l-.003.159c.116.19.23.195.317.2.066.004.107.005.14.088.075.19-.05.6-.148.639-.004 0-.023.01-.046-.044-.055-.133-.286-.135-.375-.136-.237-.005-.342.174-.435.332l-.069.113c-.389.556-.126.915.183 1.193.184.168.342.31.75.182.348-.107.491-.634.642-1.194l.05-.18c.145-.524.31-.96.457-1.2.178-.294.19-.54.201-.738l.04-.28c.126-.338.348-.44.625-.568.144-.068.307-.144.475-.265l.393-.288c.476-.355.853-.638 1.469-.849.205-.072.423-.199.631-.32.29-.169.585-.341.865-.385l.057-.01c.243-.039.701-.11.823.065.039.054.114.456.008.623-.037.06-.096.082-.171.067-.132-.025-.135-.103-.132-.226.004-.085.01-.171-.057-.226-.115-.098-.54-.1-.544-.1-.163.002-.312.16-.484.347-.127.133-.27.287-.434.393-.609.398-.868 1.263-.814 1.912.066.749.402 1.078.6 1.274l.12.131c.444.656 1.11 1.218 3.004.908 1.244-.205 2.269-.732 2.813-1.45.25-.325.377-1.266.168-1.777-.086-.207-.216-.324-.388-.348Zm-14.74-2.525c-.076-.255-.274-.076-.635-.009-.266.051-.714.027-.788.344-.042.193.088.301-.009.653-.039.14.241.364.357.36.224-.009.396-.14.686-.42.386-.367.39-.928.39-.928Zm-2.456-1.964c-.133-.071-.215-.133-.466.364-.199.395-.691 1.05-.548 1.155.192.143.46-.066.623-.472.219-.554.542-.964.39-1.047Zm-4.017-.698c-.108-.086-.475.15-.707.595-.181.351-.228.759-.442 1.294-.16.395-.076.873.024 1.135.042.112.196.123.217-.002.046-.264.112-.741.668-1.025.288-.144-.105-.26-.032-.464.104-.287.198-.306.138-.867-.021-.195.342-.5.133-.666Zm7.671 1.934c-.004.357-.13 1.374-.421 1.724-.217.257-.492.861-.922 1.046-.421.183-1.095.55-1.326.966-.211.377-.247 1.359-.237 2.017.015.785.028 2.062-.568 2.062-.42-.001-.46-.267-.492-.549-.072-.678-.17-1.382-.14-2.257.047-1.28.087-3.455-.09-3.511-.178-.059-.212.132-.263.24-.236.505.163 1.51-.381 1.674-.224.067-.384.034-.589-.089-.278-.17-.274-1.198-.29-1.57-.038-.918.167-1.679.649-2.333.346-.47.964-1 .773-1.084-.263-.118-.632.063-.865.278-.238.213-.389.531-.576.864-.166.297-.431.68-.594 1.04-.144.314-.195.602-.283.86-.09.269-.26.345-.316.564-.07.278.003.48-.051.828-.072.447-.353.927-.67.902-.748-.06-.664-.924-.232-1.46.216-.276.455-.682.227-.765-.29-.101-.388.337-.717.396-.189.034-.065-.381-.192-.418-.125-.035-.16.1-.221.147-.185.151-.2.411-.197.68.003.664.451 2.026.068 2.078-.46.061-.44-.41-.609-.713-.316-.577-.394-1.192-.37-2.098.012-.404.054-1.187.1-1.752.036-.446.221-.833.28-1.124.141-.712.188-1.29.594-1.561.234-.155.627-.269.876-.298.473-.061.958.003 1.283.295.38.335.204.909.153 1.628-.021.286-.388.755-.723.97-.122.08-.15.004-.226.105-.075.1-.045.324.04.327.18.008.467-.06.58.12.169.264.179-.61.688-1.128.163-.163.203-.48.302-.836.07-.244.242-.486.314-.68.14-.402 1.19-.572 2.183-.78.92-.193 1.803-.332 2.117-.18.247.12.358.43.283.591-.24.535-.54.626-1.083.675-.286.027-.429.02-.7.095-.19.056-.154.266.018.279.263.016.5.263.499.592 0 .203-.189.525-.057.644.31.287 1.158-.45 1.783-.3.407.097.6.305.591.8Zm37.135-1.72c.271-.023.415-.404.392-.73-.021-.348-.225-.648-.51-.583-.224.05-.197.227-.603.44-.183.096-.637.42-.649 1.524-.002.209-.551.654-.32.934.144.177.571.054.618-.083.047-.142-.116-.36-.057-.496.04-.094.279-.188.337-.28.141-.22.213-.493.045-.636-.2-.167.037-.48.254-.475.182.007.187.416.493.386Zm-2.388.567c-.04-.003-.589.474-.474.723.004.008 0 .163 0 .163.366.51.952-.845.474-.886Zm-.73-.256c.055-.102.675-.682.055-.59-.292.042-.702.527-.792 1.123-.041.267.075.248.236.34.158.091.378-.66.501-.873Zm-1.327-.592c-.09-.128-.466.337-.615.385-.085.035-.071.738-.064 1.288.008.383-.128.78.033.844.206.083.137-.214.307-.485.294-.475-.012-.36.136-.875.042-.266.355-.938.203-1.157Zm6.565 3.11c-.257.278-.83.225-1.239-.054-.156-.108-.031-.543-.39-.472-.313.062-.643-.013-.952.019-.565.064-1.405.314-2.325.382-.557.038-1.056.256-1.424.361-.802.232-2.044.352-2.203.694-.237.504.267 1.425-.26 1.584-.283.088-.593-.277-.641-.472-.266-1.022.403-2.653.77-2.701.259-.033.226.16.442.01.198-.138.071-.688.237-1.218.144-.46.219-1.126.352-1.513.181-.532.385-.819 1.055-.89.379-.04.819-1.118 1.168-.9.122.079.028.452.184.522.337.154.603-.541.912-.633.308-.09.616-.03.651.094.06.225-.381.696-.49 1.032-.077.236.112.453.544.422.384-.028.697-.86 1.016-1.196.296-.316.856-.452 1.255.053.165.203.13.423.177.635.055.26.226.375.121.819-.128.541-.466 1.022-.771 1.359.107-.117-.452.45-.396.553.236.467 2.056-.425 2.362.475.162.482.026.873-.155 1.035Zm-55.879.5c.09-.08.204-.331.348-.46.384-.345.844-.986.662-1.446-.046-.111-.806.064-1.312-.06-.274-.067-.3.68.018.797.325.12.186.61.122.833-.11.396-.068.541.162.335Zm4.335 3.282c.651.614.339 1.114-.384 1.149-1.21.058-2.959-.47-3.935-1.29-.415-.35-.555-.69-.786-.652-.1.016-.104.407-.116.804-.008.279-.083.647-.07.952.017.395.067.723.067.986-.002.578-.747.456-.985.117-.138-.197.281-2.193-.031-2.113-.293.068-.774.597-.996.853-.317.366-.927 1.15-1.284 1.172-.802.05-1.139-.333-.689-.919.381-.493 1.1-1.285 1.66-1.817.33-.31.653-.59.774-.947.021-.06.083-.596.284-.62.066-.008.09.107.158.11.147.009.377-.254.333-.28-.556-.286-.086-.475-.18-.719-.097-.242-.305-.413-.324-.615-.015-.165.22-.467.455-.587.18-.092.138-.275.103-.275-.814-.066-.894.574-.959.675-.16.255-.449.737-.375 1.294.127.977.14 1.598-.506 1.464-.543-.112-.517-.833-.673-1.682-.187-1.024.095-2.226.537-2.6.147-.127.284-.25.488-.344.53-.246 1.182-.355 1.215-.26.022.072-.301.293-.428.492-.097.147-.037.323.048.277.373-.209.868-.17 1.29-1.044.115-.24.143-.472.069-.558-.152-.178-.707-.043-1.235.111-.459.132-1.415.863-1.617.854-.474-.024-.804-.452-.613-.836.113-.223.268-.328.436-.5.4-.412.972-.165 1.661-.345.723-.185 1.28-.218 1.614-.262.05-.008.013-.48.08-.59.07-.11.42-.246.501-.29.57-.307.451.39.675.53.478.303 1.39-.432 1.57.212.227.798-1.369.801-1.783 1.044-.262.157-.226.288-.263.63-.058.497.295-.067.604-.053.612.03 1.048-.05 1.368.105.47.232.304 1.526-.077 1.956-.41.463-.697.927-.98 1.176-.237.209-.645.412-.832.566-.226.178.163.408-.052.707-.354.498-.009.462.215.636.351.271.806.502 1.049.556.501.103 1.495.42 1.713.452.765.105.602-.197.872.02.078.064.187.158.334.297Zm-16.166-3.295c.26.22 1.078-.698 1.183-.875.14-.228.19-.443.022-.421-.283.039-.407-.186-.53-.447-.115-.251.111-.624.094-.722-.017-.1-.63-.086-.747.198-.073.17.075.497.03.715-.286.562-.233 1.399-.052 1.553Zm-1.261-2.816c-.332-.095-1.886.856-1.685 1.214.196.349.962-.229 1.492-.629.362-.27.415-.518.193-.585Zm.005 1.453c-.039-.07-.171.166-.509.393-.165.113-.372.108-.67.292-.28.176-.283.661-.452 1.599-.05.262-.394.336-.171.437.106.047.47-.151.916-.314.251-.093.565-.074.783-.237.147-.11-.046-.583.064-1.183.086-.47.073-.926.04-.987Zm-2.15 1.333c-.217-.005-1.023.597-.628.915.42.34 1.032-.906.629-.915Zm7.546.892c.384.75-.07 1.366-.732 1.344-.468-.016-.417-.14-1.137-.1-.969.048-2.311-.3-2.476.255-.072.23-.127.537.057.548.468.023 1.254-.215 1.762-.3.284-.044.748.315.485 1.149-.227.718-1.94.266-2.439.665-.168.137-.095 1.274-.249 1.698-.095.262-.455.202-.8 0-.535-.31-.038-1.201-.312-1.432-.247-.205-.76.166-.977.235-.197.06-.882.075-1.177-.123-1.22-.816 1.481-1.646 2.125-1.834.314-.091.407-.45.137-.521-.24-.067-.68.014-.891.08-1.027.33-1.3.446-2.168.445-.543 0-.702.074-.73-.193-.02-.176 0-.569.224-.708.33-.207.834-.281.847-.376.022-.214-.662-.1-.723-.639a5.677 5.677 0 0 1 .008-.683c.046-.326.595-.723.986-.906.413-.194-.076-.503-.135-.647-.284-.67.281-1.033.931-1.43.932-.566 2.165-.964 2.202-1.005.065-.071.145-.118-.008-.22-.385-.257-.532.098-.938.127-.837.063-1.424.718-1.733.59-.708-.293-.281-1.054-.022-1.246.27-.197.881-.01 1.147-.12.634-.262 1.707-.197 1.985-.219.276-.024.16-.209.291-.254.132-.047.466.146.492.16.33.178.809.057 1.449-.119 1.129-.31 1.258.767.325 1.043-.095.03-.953.023-1.458.102-.372.053-.368.473-.22.577.16.109.897-.088.965-.093.752-.075.406.331.874.762 1.375 1.264-.967 3.044-1.82 3.052-.014 0-.575.127-.287.418.26.26.642.062 1.488-.07.668-.107 2.505-.298 2.652-.012Zm-5.825-6.03c.872-.277.207-1.297-.58-1.182 0 0-.44.035-.583.135-.18.098-.114.206-.235.343-.155.112-.148.305-.092.46.147.401.774.472 1.49.245Zm1.875.071c.121 0 .18-.081.28-.094.382-.049.799.099.97-.023.666-.467.406-1.039-.329-1.062-.447-.016-1.024.238-1.377.777-.23.35.335.402.456.402Zm32.193 2.588c-.154-.282-.214-.664.003-.89.207-.211.357-.458.518-.722.145-.239.298-.487.496-.71.328-.372 1.004-.977 1.41-1.017.215-.024.445.1.547.3a.476.476 0 0 1-.076.55c-.08.093-.196.172-.332.262-.217.147-.47.316-.669.621l-.059.084c-.145.218-.3.441-.178.56l.055.025c.087-.004.208-.15.327-.292l.264-.282c.16-.123.545-.092.885-.066.193.014.373.03.476.011.144-.025.305-.125.508-.253.278-.176.624-.395 1.115-.545.184-.057.337-.18.484-.299.154-.125.299-.24.46-.27.379-.075.633-.043.744.09.077.091.087.224.03.382-.042.121-.12.234-.196.342-.157.23-.302.445-.134.683l.026.022c.03.002.074-.041.125-.087.137-.133.342-.326.674-.097.238.164.374.37.382.58a.577.577 0 0 1-.231.47c-.174.138-.339.157-.497.175-.186.023-.36.041-.56.234-.136.131-.239.298-.34.459-.163.257-.314.5-.567.532-.182.02-.33-.026-.426-.138-.13-.144-.164-.39-.098-.656.054-.218.252-.316.44-.413.197-.1.38-.191.416-.395.017-.09-.049-.147-.125-.215-.086-.075-.181-.16-.181-.312l.004-.146c.004-.17.008-.297-.06-.354-.065-.051-.19-.058-.401-.015-.441.085-1.739 1.188-2.026 1.509l-.167.202c-.223.275-.474.587-.752.61-.276.024-.411-.155-.53-.311-.1-.13-.184-.241-.331-.241-.31-.002-.421.173-.51.315-.055.08-.1.151-.172.168-.34.073-.627-.202-.771-.46Z" clip-rule="evenodd"/><path fill="#AC1E32" fill-rule="evenodd" d="M37.405 70.803A6.813 6.813 0 0 1 30.602 64a6.813 6.813 0 0 1 6.803-6.803A6.811 6.811 0 0 1 44.208 64a6.812 6.812 0 0 1-6.803 6.803ZM44.45 64a7.052 7.052 0 0 0-7.044-7.043A7.053 7.053 0 0 0 30.362 64a7.053 7.053 0 0 0 7.043 7.043A7.052 7.052 0 0 0 44.45 64Zm-7.044 10.005A10.018 10.018 0 0 1 27.401 64a10.018 10.018 0 0 1 10.004-10.005c5.526.01 9.995 4.48 10.005 10.005a10.018 10.018 0 0 1-10.005 10.005Zm0-20.41A10.42 10.42 0 0 0 27 64a10.42 10.42 0 0 0 10.405 10.405A10.418 10.418 0 0 0 47.81 64a10.418 10.418 0 0 0-10.405-10.405Zm.417 10.582 2.062 1.443v-.64l-2.062-1.443v.64Zm-2.894-.173 2.062-1.444v-.64l-2.062 1.444v.64Zm0 1.616 2.062-1.444v-.639l-2.062 1.444v.64Zm6.525-2.134.002.002a.4.4 0 1 1-.461.653l-.279-.194v.64l.737.515.003.002a.4.4 0 0 1-.46.656l-.001-.002-.279-.194v.64l.737.515.003.002a.4.4 0 1 1-.461.653l-3.172-2.22v.628l3.228 2.26.003.002a.4.4 0 0 1-.459.656l-.002-.002-2.77-1.94v2.166a.416.416 0 0 1-.832 0v-2.166l-2.77 1.94-.002.002a.4.4 0 0 1-.46-.656l.003-.001 3.229-2.261v-.629l-3.172 2.221-.003.002a.4.4 0 0 1-.459-.655l.003-.002.736-.516v-.64l-.277.195a.4.4 0 1 1-.459-.655l.736-.516v-.64l-.277.194-.003.002a.4.4 0 0 1-.459-.655l.003-.002 3.63-2.542v-.64l-3.17 2.22a.4.4 0 1 1-.462-.654h.002l.736-.516V60.4a.417.417 0 1 1 .833 0v.37l2.062-1.444v-.897a.416.416 0 1 1 .832 0v.897l2.062 1.444v-.37a.417.417 0 1 1 .831 0v.953l.737.516.003.001a.4.4 0 1 1-.461.654l-3.172-2.22v.639l3.63 2.542Zm-4.048-5.889A6.411 6.411 0 0 0 31.003 64a6.412 6.412 0 0 0 6.402 6.403A6.412 6.412 0 0 0 43.81 64a6.411 6.411 0 0 0-6.404-6.403Zm.417 4.963 2.062 1.444v-.64l-2.062-1.443v.64Zm-6.463 7.031c-.01.014-.08.03-.096.073-.016.045-.028.085.01.115.022.016-.01.035-.052.045-.033.008-.238.02-.244-.035-.003-.039.09-.142.19-.174.03-.02.051-.077.08-.087.048-.02.122.05.112.063Zm-.49.004c-.083.057-.117.135-.146.13-.046-.006-.081-.045-.121-.063-.072-.033-.138-.052-.145-.07-.014-.038.035-.006.071-.032.131-.089.188-.145.242-.133.057.013.08.037.114.044.066.013.11 0 .106.013a.486.486 0 0 1-.12.111Zm-.472-.172c-.008-.083.157-.06.182-.034.047.049-.172.123-.182.034Zm.422-.163c.017-.066.313.004.341.055.02.033-.016.055-.091.045-.11-.015-.268-.036-.25-.1Zm.93.144c-.097-.054-.168-.095-.186-.154-.001-.005-.018-.066-.039-.075-.02-.01-.029.024-.065-.005-.034-.03-.154-.163-.26-.206-.044-.018-.094-.11-.149-.118-.054-.008-.193.031-.145.148.022.05.168.042.274.132.052.043.111.018.127.094.006.03-.01.026-.025.026-.01 0-.202-.096-.38-.138-.122-.03-.232-.053-.277.057-.01.024.011.118-.06.092-.068-.024-.18-.041-.223-.01a.78.78 0 0 0-.082.08c-.056.07.038.136.01.158-.012.01-.08-.04-.144-.055-.043-.009-.091.034-.11.057-.028.035 0 .045.063.108.103.1.149.12.309.2a.332.332 0 0 1 .115.094c.024.039-.03.071-.078.045-.097-.053-.515-.27-.466-.032.01.056.093.134.124.15.034.016.139.033.143.085.005.06-.158.106-.131.204.017.064.05.113.094.093.068-.031.193-.173.23-.17.105.013.254.264.364.207.132-.067.118-.162.079-.19-.07-.05-.19-.112-.242-.17-.021-.023.022-.052.056-.071.085-.046.203.151.323.258.09.08.07.088.123.144.075.08.201.06.244-.07.016-.051-.223-.243-.314-.308-.115-.083-.184-.104-.184-.165 0-.067.08-.017.083-.015.102.098.588.163.574-.144-.004-.105.084-.112-.014-.191-.008-.007-.118-.07-.125-.102-.005-.029.044-.078.095-.041.068.05.17.15.184.157.142.077.254-.064.084-.16Zm-.291-.618s-.057-.047-.085-.052c-.033-.01-.037.01-.068.012-.031-.004-.053.019-.065.043-.03.064.037.145.148.202.135.069.177-.127.07-.205Zm-1.31-2.092-.207.09.22.506-.419.182-.199-.46-.208.09.2.46-.377.165-.212-.486-.208.09.325.746 1.419-.617-.334-.766Zm3.265 4.592c-.013.087-.14.143-.228.162-.033.008-.073.036-.093.04-.054.012-.047-.014.005-.065.028-.028.093-.091.054-.138-.039-.046.031-.157.067-.123.066.063.198.103.195.124Zm.21-.511c-.021-.042.058-.137-.056-.14-.016-.002-.08-.012-.102 0-.02.011-.056.086-.064.082-.054-.022-.143-.066-.269-.102-.12-.032-.187-.12-.284-.093-.04.013-.074.014-.11.039-.063.041-.05.136.02.18.03.02.24-.007.321.013.095.023.19.051.2.091.002.02-.022.052-.06.08-.142.096-.213.046-.29.046-.015 0-.01-.033.018-.047.036-.02.105-.025.108-.038.004-.017-.106-.057-.208-.066-.039-.004-.07.003-.104.01-.1.017-.25.176-.31.349-.051.143-.118.25-.046.316.087.076.14-.02.206-.18.038-.091.124-.139.171-.164.019-.01.087-.102.206-.02.005.004-.004.036-.04.033-.047-.002-.108.024-.12.05-.015.033 0 .077-.006.122-.007.047-.096.034-.035.127.004.007-.054.028-.076.013-.01-.006-.003-.026-.014-.03-.034-.015-.09.062-.098.07-.05.042-.124.058-.202.076-.132.032-.31.09-.412.131-.12.05-.102.137.024.2.056.028.219-.037.3-.066.055-.02.175-.058.227-.043.054.016-.185.283-.182.326.006.073.11.157.162.069.022-.04.042-.094.076-.156.024-.048.067-.098.093-.14.037-.06.072-.118.088-.112.04.015.031.078.063.168.077.211.298.445.488.543.114.058.204.009.16-.142a.926.926 0 0 0-.026-.076c-.022-.055-.023.005-.131-.079-.03-.023-.154-.16-.222-.219a.595.595 0 0 1-.112-.176c-.018-.047-.074-.073.024-.117.06-.026.02-.095.07-.104.042-.006.122 0 .176-.013.066-.012.15-.058.253-.093.096-.031.236-.215.184-.29-.036-.053-.108-.079-.2-.137-.045-.03-.148.025-.096-.046.035-.048.041-.072.095-.073.084 0 .329.14.363-.002.03-.114-.173-.082-.221-.17Zm-4.968-4.516-.001-.004.652-.368.102.4-.753-.028Zm1.366.048-.388-.016-.13-.515.333-.197-.072-.284-1.377.865.078.301 1.627.121-.07-.275Zm1.827 2.88a.278.278 0 0 0-.254-.07c-.068.014-.008.085.007.1.014.014.03.011.043.02.052.04.083.106.118.112.134.022.17-.074.086-.162Zm4.493 3.364c-.059.033-.094.046-.13.038-.02-.004-.056-.053-.043-.075.03-.053.014-.077.03-.107.026-.049.098-.024.144-.022.062.005.103-.015.104.03 0 0-.024.092-.105.136Zm-.323-.412c-.044.06-.098.082-.124.05-.018-.023.091-.11.142-.166.063-.07.074-.057.093-.04.02.02-.05.074-.111.156Zm-.647-.127c-.105.021-.135.097-.155.138-.008.02-.034.011-.036-.01a.286.286 0 0 1 .046-.186c.058-.08.084-.144.13-.194.056-.064.127-.087.142-.067.027.036-.047.07-.052.103-.014.095-.03.094-.06.137-.02.031.039.067-.015.078Zm1.242.178c-.096-.052-.268.032-.307-.03-.015-.024.03-.07.038-.101.016-.055-.013-.106-.056-.12-.027-.01-.025-.047.008-.047.05-.001.072.007.121.015.091.015.145.014.207-.064.02-.023.015-.08-.02-.11-.045-.04-.197-.054-.357-.064-.171-.008-.353-.026-.393.033-.02.03-.06.062-.08.099-.034.055-.053.105-.087.125-.107.062-.147.206-.163.155-.011-.035-.062-.035-.09-.044-.014-.005-.01-.044.007-.057.017-.013.019 0 .042-.007.065-.02.145-.082.162-.128.04-.117.093-.203.046-.276-.041-.061-.118-.093-.198-.104a.395.395 0 0 0-.158.01c-.078.028-.111.12-.166.231-.022.046-.07.102-.095.172a7.833 7.833 0 0 0-.093.286c-.044.148-.058.252-.03.362.013.056-.01.133.068.144.065.008.05-.236.08-.345.01-.045.025-.087.062-.104.011-.005.023-.026.043-.015.019.012-.02.075.012.078.057.005.093-.063.136-.034.033.023-.022.08-.071.116-.094.07-.147.208-.026.25.051.018.118-.049.15-.119.025-.054.021-.091.045-.134.019-.034.05-.038.077-.08.025-.037.046-.083.083-.127.044-.053.104-.105.144-.146.045-.047.084-.092.133-.118.047-.024.116-.038.154-.007.028.022-.097.083-.175.145a.6.6 0 0 0-.208.355c-.014.062-.06.231-.022.272.028.03.054.041.093.04.097-.003.075-.187.137-.259.013-.016.026-.045.053-.028.027.018-.075.374-.138.582-.044.143-.059.264-.077.377-.007.049-.013.094.057.113.098.026.152-.185.184-.315.028-.109.076-.269.128-.322.056-.058.183-.088.26-.1.079-.012.151-.1.197-.132.064-.046.13-.207.146-.266.023-.08 0-.123-.063-.157Zm2.493-.231c-.026.022-.052.046-.052.081.001.044.016.081.043.097.019.013.044.015.07.004.039-.015.052-.059.066-.105a.385.385 0 0 1 .034-.086c.022-.037.048-.047.075-.059.024-.009.05-.018.07-.048a.09.09 0 0 0 .016-.08c-.01-.034-.039-.059-.083-.075-.06-.021-.083.017-.1.043-.005.009-.011.018-.015.019l-.005-.003c-.036-.03-.022-.069-.008-.11a.265.265 0 0 0 .017-.06c.002-.028-.005-.048-.02-.06-.025-.015-.064-.01-.12.019-.024.01-.04.035-.06.06a.25.25 0 0 1-.061.067.701.701 0 0 0-.15.129.26.26 0 0 1-.067.06c-.016.008-.044.013-.074.019-.054.01-.114.02-.134.047l-.028.054c-.013.027-.026.054-.04.058h-.009c-.022-.014-.009-.055.005-.095l.006-.015c.018-.055.05-.091.077-.124a.216.216 0 0 0 .04-.054.076.076 0 0 0-.011-.088.09.09 0 0 0-.097-.023c-.06.023-.139.144-.175.215a.723.723 0 0 0-.047.13c-.013.047-.027.092-.05.133-.024.044 0 .1.037.137.033.034.089.064.137.039.011-.005.015-.019.02-.033.008-.025.018-.057.066-.07.021-.006.04.007.06.024.026.02.054.04.096.025.041-.015.067-.073.09-.124l.017-.039c.03-.061.185-.284.25-.317.03-.015.05-.02.062-.014.013.006.018.026.024.053l.005.022c.007.023.026.032.041.04.015.008.027.014.029.028.002.034-.022.055-.047.079Zm7.049-5.763-1.278-.336-.073.275 1.278.335-.087.333.22.058.246-.942-.218-.057-.088.334Zm.48-1.97a.405.405 0 0 0-.202-.27.396.396 0 0 0-.18-.046.415.415 0 0 0-.25.06.567.567 0 0 0-.166.178l-.084.141c-.021.034-.04.062-.057.087a.316.316 0 0 1-.054.061.176.176 0 0 1-.058.036.216.216 0 0 1-.075.009.235.235 0 0 1-.098-.022.209.209 0 0 1-.106-.132.28.28 0 0 1-.01-.088.522.522 0 0 1 .042-.2.777.777 0 0 1 .066-.125l-.252-.025c-.05.075-.076.192-.082.35a.666.666 0 0 0 .021.205.44.44 0 0 0 .08.168.4.4 0 0 0 .141.115.51.51 0 0 0 .204.047.546.546 0 0 0 .144-.011.373.373 0 0 0 .201-.126.875.875 0 0 0 .082-.115l.099-.163c.012-.022.026-.042.039-.061a.338.338 0 0 1 .043-.05.166.166 0 0 1 .132-.045.174.174 0 0 1 .13.059c.032.037.046.091.044.162a.546.546 0 0 1-.03.168 1.827 1.827 0 0 1-.048.12l.237.022c.009-.022.02-.06.038-.115a.834.834 0 0 0 .009-.394Zm-1.647 1.086 1.532.227.041-.281-1.53-.226-.043.28Zm-.464 1.639-.113.26.564.243.677.789.121-.282-.457-.505.688-.032.122-.28-1.032.052-.57-.245Zm-2.641 4.221c.044-.085.049-.185-.045-.196-.035-.005-.05-.01-.106.025-.096.06-.056.105-.122.148-.026.018-.06-.108-.012-.153.102-.094.201-.235.16-.35-.033-.096-.09-.173-.211-.053a.662.662 0 0 0-.188.294c-.055.182-.083.385-.165.51-.053.08-.064.033-.129.094-.179.168-.274.32-.18.413.066.064.154.041.2.025.059-.02.091-.07.102-.038.012.032-.032.175-.052.287a.666.666 0 0 1-.108.232c-.1.138-.127.184-.095.225.04.05.108.041.163 0 .064-.047.273-.39.328-.765.009-.067.052-.144.068-.2.023-.073.005-.121.043-.173.117-.154.29-.213.349-.325Zm.774.291c-.068-.085-.205-.05-.351.043-.085.054-.191.07-.255.086-.197.051-.355-.014-.404 0-.049.013-.023.136.018.192.116.167.45.1.648.034.076-.026.157-.104.221-.149.07-.045.141-.061.135-.109-.007-.048.018-.06-.011-.097Zm.803-1.846s-.018-.02-.02-.02c-.045-.015-.037-.139-.032-.144.065-.052.16.18.052.163Zm-.024-.539c.024-.074-.001-.092.02-.125.028-.042.089-.03.134.009.043.037.072.1.041.135-.034.04-.083-.008-.106.013-.028.026-.018.091.026.088.039-.004.064.038.073.082.004.018-.014.058-.006.074.008.024.055.03.067.054.01.021-.026.087-.066.084-.063-.007-.05-.126-.075-.152-.134-.134-.118-.228-.108-.262Zm-.102.598c-.031.009-.043.025-.07-.012-.063-.082-.072-.19-.042-.23.065-.087.06.058.066.077.012.04.076.157.046.165Zm-.052.305c-.026.01-.059-.053-.106-.098-.068-.066-.157-.149-.15-.163.01-.024 0-.125.028-.12.045.007.088.126.116.164.045.079.069.029.09.121.013.052.058.08.023.096Zm.34-.222c.105-.12.178-.251.238-.327.034-.041.084-.072.115-.117.034-.052.072.016.106.01.084-.016.16-.08.157-.144.002-.04-.028-.105-.108-.143-.148-.072-.26.256-.347.229-.02-.006-.02-.142-.02-.115a.557.557 0 0 0-.072-.257c-.042-.066-.076-.06-.115-.084-.032-.02-.055-.05-.1-.055-.11-.012-.163.071-.16.145.002.08.066.216.022.267-.049.055-.098.052-.118.014-.027-.054-.032-.163-.066-.182-.02-.01-.066.019-.091.066-.027.048.026.165-.035.187-.027.01-.061-.046-.086-.04-.07.015.009.198-.033.249-.073.089-.062.148-.02.234.032.063.105.15.144.225.043.083.127.134.12.175-.009.044-.029.016-.055.052-.04.05.079.327.237.418.03.017.112.024.136-.021.045-.083-.13-.133-.163-.223-.021-.059.115-.224.184-.349.032-.057.067-.143.13-.214Zm.626-.099c-.034.019-.134.21-.207.29-.028.031-.051.025-.069.009-.06-.055.127-.226.064-.283-.093-.085-.191-.055-.267.05 0 0-.09.135-.181.245-.077.092-.117.269-.033.303.088.035.16-.046.18-.141.007-.032-.005-.036-.01-.064-.008-.035.02-.049.02-.068-.002-.06-.006-.091.039-.087.017.001.054.07.063.09.016.035.032.098.013.14-.059.145-.144.287-.084.365.013.018.103.026.135.01.038-.02.032-.055.056-.13.01-.03.072-.066.081-.09.02-.047.02-.127.046-.122.05.012.12.112.132.222.008.067-.001.141-.035.167-.013.01-.074.087-.027.142.053.062.113.053.146.036.14-.073.105-.224.099-.381a.433.433 0 0 0-.06-.204c-.04-.058-.022-.065-.044-.084-.043-.04-.082-.035-.081-.056.005-.066.087-.116.1-.133.023-.027.084-.078.096-.131.023-.102-.132-.117-.172-.095ZM39.91 72.49c-.067.008-.066.091-.066.16l-.002.05c-.01.102-.172.222-.319.284l-.04.016c-.07.032-.126.057-.214.024-.04-.014-.075-.085-.083-.159-.005-.058.009-.103.04-.121.014-.009.018-.004.025.004.017.017.036.027.109-.028.006-.005.008-.023.01-.057a.365.365 0 0 1 .012-.08l.025-.058.015-.04a.175.175 0 0 0-.064-.163.208.208 0 0 0-.205-.023c-.109.042-.207.133-.294.212-.088.08-.166.15-.236.158-.024.003-.043-.008-.06-.018-.017-.008-.031-.018-.047-.01-.022.008-.042.046-.067.127a.285.285 0 0 0-.004.08c0 .054.002.122-.022.144-.007.005-.016.007-.026.005a.028.028 0 0 1-.023-.015c-.022-.04.012-.134.013-.135l.006-.08c0-.024 0-.046.004-.066.031-.111.127-.143.227-.177a.366.366 0 0 0 .136-.11c.02-.039-.02-.074-.054-.103l-.005-.004c-.055-.048-.106-.055-.155-.025-.04.027-.088.088-.142.158a1.966 1.966 0 0 1-.13.155l-.016.017c-.095.093-.201.208-.19.26.001.009.007.016.019.02.043.017.08-.032.111-.074.026-.035.048-.065.067-.055.008.004.01.008.012.015.004.01-.002.028-.016.052l-.008.01c-.016.028-.033.053-.036.126-.002.102.02.123.058.157l.039.038c.017.02.021.053.024.076l.006.024c.026.025.045.021.057.018.01-.003.017-.003.025.007.02.027.017.095.005.105-.002.001-.003.003-.01-.005-.014-.018-.049-.009-.063-.005-.036.01-.045.041-.053.07l-.006.02c-.037.101.018.145.077.176.036.018.066.033.124-.002.05-.032.05-.12.05-.212v-.03c0-.086.008-.16.02-.204a.225.225 0 0 0 0-.122l-.005-.044c.005-.058.034-.083.072-.114.02-.016.042-.035.063-.06l.048-.06a.796.796 0 0 1 .191-.194.58.58 0 0 0 .084-.075c.038-.038.076-.077.117-.094l.008-.004c.037-.016.104-.047.13-.025.009.007.037.065.027.096-.003.011-.01.016-.024.018-.02.001-.025-.01-.029-.03-.003-.013-.006-.026-.018-.033-.022-.01-.087.007-.089.008-.024.006-.04.037-.06.074a.394.394 0 0 1-.05.078c-.077.086-.081.23-.046.328.041.113.107.15.146.172l.023.015c.096.082.222.142.5.015.184-.083.32-.207.374-.34.025-.06.006-.211-.049-.281-.02-.028-.045-.04-.073-.037Zm.433-16.974.004.002-.052.746-.39-.133.438-.614Zm-.792 1.116.227-.316.503.175-.02.386.277.096.035-1.626-.293-.1-.996 1.292.267.093Zm-5.637.524-.503-1.096.004-.002.969.883.308-.142-.645-1.406-.234.107.506 1.104-.003.002-.974-.889-.308.14.646 1.406.234-.107Zm7.573.076-.45-.239.616-1.168-.251-.132-.723 1.368.703.37.105-.2Zm-4.788-2.202a.338.338 0 0 1 .19.032c.045.026.072.084.077.172.006.08-.014.14-.057.182a.278.278 0 0 1-.179.07l-.115.008-.031-.457.115-.007Zm-.024 1.335-.046-.663.065-.005a.232.232 0 0 1 .134.026c.038.02.067.061.09.121l.188.492.301-.02-.241-.576a.496.496 0 0 0-.045-.084.196.196 0 0 0-.047-.05.132.132 0 0 0-.046-.024.304.304 0 0 0-.045-.009v-.007a.343.343 0 0 0 .273-.383.473.473 0 0 0-.046-.18.327.327 0 0 0-.102-.12.4.4 0 0 0-.151-.064.677.677 0 0 0-.189-.01l-.482.031.106 1.544.283-.019Zm-1.652-.938a.287.287 0 0 1 .078-.12.275.275 0 0 1 .245-.061c.044.01.085.034.123.07.04.037.075.09.11.157.034.068.064.154.09.257.025.104.038.193.04.268a.57.57 0 0 1-.025.19.266.266 0 0 1-.076.121.27.27 0 0 1-.244.06.268.268 0 0 1-.124-.07.584.584 0 0 1-.11-.158 1.202 1.202 0 0 1-.09-.256 1.146 1.146 0 0 1-.04-.268.577.577 0 0 1 .023-.19Zm-.132.865c.058.09.122.158.193.207.07.048.145.08.225.091a.598.598 0 0 0 .45-.11.525.525 0 0 0 .157-.187.715.715 0 0 0 .073-.272 1.185 1.185 0 0 0-.036-.362 1.15 1.15 0 0 0-.136-.335.717.717 0 0 0-.191-.209.553.553 0 0 0-.462-.08.606.606 0 0 0-.214.1.53.53 0 0 0-.158.187.725.725 0 0 0-.073.273c-.008.105.004.226.038.36.032.135.078.247.134.337Zm3.164-1.236h.005l.204 1.327.2.026.548-1.232h.004l-.163 1.28.256.033.194-1.535-.406-.051-.47 1.104h-.003l-.171-1.186-.42-.054-.196 1.535.255.033.163-1.28Zm6.884 7.373.219-.06-.147-.532.44-.121.133.484.218-.06-.132-.484.398-.108.14.511.218-.06-.215-.785-1.492.409.22.806ZM42.27 58.06c.035.058.08.11.136.158a.647.647 0 0 0 .175.11.424.424 0 0 0 .192.034.462.462 0 0 0 .2-.059.73.73 0 0 0 .201-.171l.655-.758-.215-.185-.655.758c-.084.097-.157.152-.22.163-.062.012-.124-.01-.186-.062-.062-.055-.092-.113-.09-.177.002-.064.045-.144.13-.24l.653-.76-.214-.185-.655.759a.73.73 0 0 0-.139.223.476.476 0 0 0-.03.208.425.425 0 0 0 .062.184Zm4.072 4.752.014.114a.33.33 0 0 1-.024.19c-.024.048-.08.076-.167.086-.08.01-.142-.007-.185-.05a.28.28 0 0 1-.079-.174l-.013-.114.454-.052Zm-1.321.152.66-.076.008.063a.24.24 0 0 1-.02.135c-.017.039-.057.07-.116.097l-.483.21.035.3.563-.269a.447.447 0 0 0 .082-.048.252.252 0 0 0 .048-.048.134.134 0 0 0 .02-.048.247.247 0 0 0 .008-.046h.007a.346.346 0 0 0 .395.255.444.444 0 0 0 .178-.054.321.321 0 0 0 .115-.108.4.4 0 0 0 .057-.154.67.67 0 0 0 .003-.188l-.055-.48-1.538.176.033.283Zm-1.819-3.992.938-.758.004.004-.618 1.156.212.264 1.206-.97-.161-.202-.946.763-.003-.003.623-1.164-.212-.262-1.204.971.161.2Zm1.275 2.037 1.604-.205-.12-.266-1.22.196-.001-.004.96-.775-.126-.278-1.22 1.06.123.272Zm-.425-.845 1.322-.804-.147-.242-1.323.803.148.243Zm-13.065-.41-1.302-.838-.153.239 1.301.837.154-.239Zm-.654 1.186-.616-.293.196-.415.617.293.122-.256-1.398-.665-.12.257.567.27-.197.414-.568-.27-.122.257 1.397.663.122-.255Zm-1.96 2.775 1.32.067.014-.284-1.32-.066.017-.343-.225-.012-.05.972.227.011.017-.345Zm.223-1.815c.053.075.122.14.208.196.085.056.182.1.29.13.11.03.215.044.317.041a.737.737 0 0 0 .278-.06.622.622 0 0 0 .22-.169.738.738 0 0 0 .144-.282c.02-.068.033-.134.04-.195a.469.469 0 0 0-.002-.142l-.254-.056c.014.038.021.081.023.13a.6.6 0 0 1-.025.174.47.47 0 0 1-.075.152.365.365 0 0 1-.134.107.478.478 0 0 1-.193.044.815.815 0 0 1-.257-.035.78.78 0 0 1-.238-.104.494.494 0 0 1-.142-.139.363.363 0 0 1-.057-.16.418.418 0 0 1 .016-.17.445.445 0 0 1 .078-.163c.033-.039.06-.071.083-.096l-.242-.084a1.542 1.542 0 0 0-.076.118.827.827 0 0 0-.079.196.719.719 0 0 0-.024.31.617.617 0 0 0 .1.257Zm.02 3.371c.1-.01.18-.038.238-.09a.559.559 0 0 0 .144-.197l.067-.151c.015-.036.03-.067.045-.093a.394.394 0 0 1 .044-.068.186.186 0 0 1 .055-.042.199.199 0 0 1 .071-.019.241.241 0 0 1 .102.01.202.202 0 0 1 .121.117.274.274 0 0 1 .021.088.537.537 0 0 1-.016.202.797.797 0 0 1-.05.133l.254-.007c.039-.081.05-.2.037-.358a.73.73 0 0 0-.047-.201.468.468 0 0 0-.1-.156.398.398 0 0 0-.155-.096c-.06-.022-.13-.029-.208-.022a.547.547 0 0 0-.142.03.33.33 0 0 0-.103.059.42.42 0 0 0-.08.09.81.81 0 0 0-.066.126l-.078.173c-.01.023-.02.045-.032.064a.315.315 0 0 1-.037.057.176.176 0 0 1-.124.061.173.173 0 0 1-.135-.042c-.038-.033-.06-.086-.065-.156a.533.533 0 0 1 .008-.171c.011-.048.021-.089.032-.124l-.237.007c-.006.023-.013.063-.023.12a.846.846 0 0 0-.004.208c.006.064.02.125.043.182a.463.463 0 0 0 .093.148.398.398 0 0 0 .326.118Zm2.71-5.993-.918-.78.003-.004 1.25.39.22-.257-1.179-1.003-.167.196.926.787-.003.003-1.259-.395-.218.257 1.178 1.002.167-.196Zm.362-2.223.004-.004.608.436-.319.262-.293-.694Zm.535 1.258-.15-.358.411-.337.32.22.226-.186-1.365-.882-.241.197.578 1.526.22-.18Z" clip-rule="evenodd"/></g><defs><filter id="a" width="154" height="157" x="0" y="0" color-interpolation-filters="sRGB" filterUnits="userSpaceOnUse"><feFlood flood-opacity="0" result="BackgroundImageFix"/><feColorMatrix in="SourceAlpha" result="hardAlpha" values="0 0 0 0 0 0 0 0 0 0 0 0 0 0 0 0 0 0 127 0"/><feOffset dy="16"/><feGaussianBlur stdDeviation="6.5"/><feColorMatrix values="0 0 0 0 0 0 0 0 0 0 0 0 0 0 0 0 0 0 0.03 0"/><feBlend in2="BackgroundImageFix" result="effect1_dropShadow_185_36"/><feBlend in="SourceGraphic" in2="effect1_dropShadow_185_36" result="shape"/></filter></defs></svg>