<svg xmlns="http://www.w3.org/2000/svg" width="154" height="157" fill="none"><g filter="url(#a)"><path fill="#fff" d="M13 0h128v128H13z"/><path fill="#0068AB" fill-rule="evenodd" d="M93.648 65.88c-.373-.017-.481-.125-.691-.183-.286-.078-.563-.331-.623-.462a.311.311 0 0 1-.021-.186c.316-1.306 1.052-1.247 2.189-1.579.177-.051.34-.004.676-.054.282-.043.57.053.87.026.233-.022.46-.073.684-.171a.993.993 0 0 0 .372-.294.777.777 0 0 0 .158-.341c.034-.2.043-.41-.009-.605-.097-.361-.37-.62-.469-.755-.071-.097-.145-.202-.162-.312-.112-.708.564-.983.69-1.497.02-.084-.165.063-.24.067-.637.032-1.35.219-1.935.32-.33.058-.763-.058-.91-.197-.411-.392-.275-.64-.085-.962.354-.601.824-.651 1.48-.772.215-.039.437.057.652.028.216-.028.408-.173.635-.191.233-.019.597-.027.96-.068.2-.022.409-.013.603.04.52.148.86.078 1.169.82.109.263-.026.835-.435.944-.471.125-.786.028-1.109.26-.111.08-.209.22-.114.445.268.629.785 1.47.508 2.368a1.784 1.784 0 0 1-.233.47c-.328.48-.886.782-1.366.83-.533.053-1.07-.124-1.588-.092-.134.008-.23.164-.365.176-.283.028-.661-.03-.492.084.304.207.513.112 1.007.237.617.156 1.267.153 1.903.147.48-.003.738-.16 1.248-.082.695.107 1.388-.365 2.095.044.207.12.075.654-.166.945-.572.694-1.935.544-2.656.556-.256.005-.49.109-.728.102-1.188-.04-2.444-.06-3.502-.107ZM70.385 68.506c-.357-.148-.348-.568-.358-.767-.039-.757.018-1.387-.053-1.999-.01-.087-.11-.122-.124-.116-.25.1-.52.169-.742.333-.246.182-.49.45-.726.688-.175.179-.39.326-.54.517-.175.22-.318.5-.556.612a.947.947 0 0 1-.54.065c-.322-.052-.247-.338-.203-.44.36-.847 1.024-1.493 1.65-2.129.18-.181.304-.381.493-.533.206-.166.69-.707.663-.948-.006-.058-.076-.096-.078-.147-.015-.515.19-.42.432-.793.176-.272.13-.38.029-.547-.314-.521.006-1.026.15-1.381.031-.075.024-.159-.016-.21-.04-.053-.126-.052-.17-.038-.408.136-1.135.235-1.268.674a.534.534 0 0 0 .001.257c.06.281.435 1.16.129 1.584-.053.072-.117.146-.2.17-.178.053-.391.124-.558.033-.188-.103-.24-.367-.374-.542-.055-.072-.13-.102-.155-.165-.164-.43-.267-.749-.313-1.056-.018-.13.02-.265-.015-.372-.123-.356-.038-1.341.01-1.659.014-.092.112-.146.138-.221.16-.455.423-.697.384-1.117-.012-.126-.161-.184-.201-.28-.274-.642.083-.916.553-1.208.352-.218.666-.106 1.145-.113.296-.004.598.034.883-.04.086-.021.14-.138.169-.236.081-.279.129-.342.153-.527.07-.525.191-.811.695-.706.151.031.284.193.357.349.23.497.054.481.698.648.065.016.223.066.403.011.176-.053.378-.04.573.017.128.037.26.135.356.251.158.188.464.626.08.953-.222.19-.466.369-.74.462-.265.09-.406.1-.558.146-.148.044-.325-.034-.464.035-.276.136-.432.385-.2.767.035.056.13.034.202.006.399-.154 1.441-.244 1.935.007.317.16.485.252.684.712.1.23.2.48.187.73-.017.366-.127.733-.244 1.088-.069.21-.199.406-.307.603-.154.28-.421.544-.633.74-.305.28-.623.588-1.004.728-.619.228-.99.364-.431.939.33.339.967.683 1.628.851.197.05.41-.034.62.034.4.129.97.12.837.877-.038.228-.077.307-.292.46-.164.115-.35.224-.541.258-.842.148-1.8-.253-2.34-.663-.304-.23-.469-.426-.573-.306-.214.246.053.826.004 1.337-.042.43.078 1.063-.492 1.307a.306.306 0 0 1-.232.01Zm1.02-6.012c-.172-.181.184-.558.353-.554.123-.511.014-.805-.281-1.055a5.649 5.649 0 0 0-.248-.168c-.235-.635.958-.65 1.313-.688.403.012.635.034.637.647-.076.352-.152.72-.229 1.089-.2.155-.386.327-.57.499-.388.118-.713.044-.975.23Zm-2.054-3.296a5.61 5.61 0 0 0-.434-.125c0-.37.417-.44.664-.593.093-.013.186-.011.295-.008.093.212.14.535-.138.721a2.885 2.885 0 0 0-.387.005ZM58.028 68.945c-.416-.083-.585-.254-.62-.461-.078-.468.063-.965-.117-1.386-.201-.466-.489-.32-.827-.255-.203.04-.419.007-.604-.035-.464-.103-.602-.318-.442-.632.283-.56.548-.544 1.184-.69.083-.018.175-.017.247-.08a.356.356 0 0 0 .11-.246c.012-.347-.31-.157-.36-.148-.234.043-.482.02-.705.1a8.015 8.015 0 0 1-2.988.488c-.093-.002-.147-.132-.159-.21-.086-.594-.094-.981.447-1.252.518-.259 1.335-.145 2.06-.199 0 0 .017.045.034.03.205-.206 1.017-.105 1.417-.31.11-.057.264-.122.299-.245.102-.351.227-1.14.07-1.429-.034-.062-.133-.08-.196-.065a1.152 1.152 0 0 0-.56.342c-.231.243-.224.842-.54 1.053-.4.266-.987.212-1.265.029-.224-.147-.598-.149-.728-.215-.34-.174-.383-.362-.339-.513.162-.557.372-.618.957-.768.199-.05.416-.114.55-.262.14-.152.176-.379.197-.569.018-.173.007-.371-.085-.5-.117-.164-.397-.17-.483-.328-.383-.702.22-.92.874-1.03.035-.006.085-.036.074-.07-.08-.241-.278-.414-.378-.414-.664-.008-1.088.245-1.305-.301-.233-.587.153-.91.588-1.263.214-.173.55-.232.662-.476.235-.508.158-.818.67-1.014.5-.193.639-.131.88.553.083.238-.268.488-.093.909.146.35.032.984-.05 1.46-.008.044-.063.066-.072.1-.028.096-.13.25-.043.288.295.13.986.157 1.255-.155.238-.275.058-.772.168-.962.133-.233.561-.748.672-.984.223-.48.53-1.027.744-1.496.088-.193.202-.417.407-.505.275-.118.473-.223.74.152.173.244.027.608.13.909.083.247.567.268.508.88-.07.696-.954.727-1.438.898-.43.15-.721.57-1.052.79-.018.012-.055.071-.025.08.123.036.254.053.4.05.426-.007.89-.155 1.407-.023.174.044.24.114.187.398-.069.37-1.014.79-1.347.843-.39.063-.603-.04-.814.328-.072.123-.077.26.172.4.192.109.464.123.666.03.327-.15.453-.652.842-.822.247-.107.733-.037.966.42.114.225.383.42.35.877-.016.197-.188.353-.23.555-.028.14.054.296 0 .427-.076.186-.546.55-.564.723-.003.031-.057-.01-.063.005-.025.06-.051.13-.034.192.01.033.08.04.13.037.647-.032 1.293-.186 1.954-.127.33.03.674.742.253 1.074-.287.225-.648.06-.863.11-.18.043-.3.22-.471.257-.294.063-.604-.008-.885.033-.16.024-.3.138-.447.16-.5.074-.83.006-1.114.351-.031.037-.049.156.012.173.356.096.779-.109 1.297-.016.122.021.815.439.519.8-.24.293-.691.501-1.004.566-.526.11-.89.023-1.048.394-.105.246-.146.636-.228.983-.076.316-.049.663-.257 1.031-.052.093-.157.198-.256.178Zm.829-5.951c-.396-.224-.227-.507-.246-.759.145-.406.084-.37.556-.404.097.024.196.064.293.105.188.398-.055.764-.355.976a1.162 1.162 0 0 0-.248.082Zm-2.365-1.6c-.485-.123-.513-.295-.489-.613.152-.09.338-.136.585-.217.351-.185.453-.32.556.228-.008.111 0 .221.009.331-.075.07-.133.137-.191.205-.158.011-.314.039-.47.066ZM113.531 67.155c-.193-.007-.409.04-.56-.05-.55-.332-1.028-.45-1.376-.638-.443-.24-.974-.635-1.143-.904-.217-.346-.43-.34-.581-.404-.063-.026-.122-.09-.123-.148-.006-.77-.066-1.013.649-1.231a.434.434 0 0 1 .367.06c.305.235.884.752 1.361 1.102.637.469 1.607.565 2.541.82.197.054.422.078.587.227.084.077.056.24.053.371a.186.186 0 0 1-.102.157c-.244.113-.531.115-.778.233-.197.094-.333.293-.541.383-.118.052-.24.025-.354.022Zm-9.647-.438c-.609-.266.184-.775.387-1.079.055-.08.001-.196.056-.255.402-.432 1.148-.702 1.562-1.154.106-.116.171-.192.299-.295a5.605 5.605 0 0 0 1.282-1.467c.058-.102.051-.295-.053-.34-.251-.107-.557.05-.802-.025-.13-.04-.174-.092-.203-.167-.125-.32-.213-.532-.215-.793-.009-.93 1.186-.66 1.917-.757.18-.024.253-.045.344-.214.184-.338.246-.559.365-.855.072-.18.232-.326.288-.505.108-.339.169-.568.3-.809.144-.266.333-.504.504-.737.015-.019.077.018.082-.014.04-.286.48-.35.672-.476.209-.138.358-.339.651-.252.392.116.469.608.43 1.09-.016.201-.088.41-.18.603a2.474 2.474 0 0 1-.321.488c-.327.408-.757.616-.888 1.175-.054.23.457.209.783.121.233-.062.451-.217.713-.202.389.023.889.476.673 1.033-.116.296-.27.297-.492.321-.912.1-1.814.152-2.415.741-.159.157-.11.434-.229.635-.157.264-.389.445-.568.688a6.466 6.466 0 0 1-.798.873c-.406.38-.764.783-1.206 1.07-.151.096-.373.092-.472.225-.3.402-1.126.75-1.626 1.151-.231.185-.58.296-.84.182ZM86.347 67.155a1.16 1.16 0 0 1-.49-.095.928.928 0 0 1-.386-.253c-.356-.43-.174-.738-.126-1.19.042-.38-.238-.456-.389-.518-.022-.009-.005-.042-.02-.049-.665-.278-.9-.665-.753-1.124.285-.89 1-.741 1.904-.996.164-.046.34-.123.463-.252.057-.06.063-.208 0-.233-.405-.164-.63.03-.892-.115-.294-.161-.194-.598-.373-.736-.095-.073-.149.229-.263.253-.537.113-.755-.471-.889-.713a3.627 3.627 0 0 1-.313-.826 9.091 9.091 0 0 1-.238-1.363 3.573 3.573 0 0 1 .02-.817c.018-.141.128-.244.137-.378.069-1.032.302-1.076 1.386-1.022.105.005.202.072.322.075.216.004.797-.06 1.146-.038.4.024.799-.22 1.216-.212.267.006.71-.159 1.123.114.131.085.31.099.433.216.228.215.288.817.152 1.32-.078.289.085.675.002 1.098-.038.196.034.438-.08.69-.043.095 0 .218-.058.32-.185.33-.376.497-.552.826-.071.13-.291.133-.38.261-.351.514-.697.17-.693.937 0 .15-.007.347.103.475.163.188.523.104.676.564.09.267.011.743-.083 1.071-.103.357-.649.37-.219.833.151.163.293.202.245.597-.016.14-.098.247-.212.483a.521.521 0 0 1-.246.252c-.373.162-.72.253-.906.353-.235.126-.514.173-.767.192Zm-5.266-1.141c-.198-.028-.206-.01-.352-.04-.84-.162-1.226-.649-1.071-1.365.054-.253.188-.582.272-.787.075-.185.272-.3.363-.478.03-.059.009-.12-.013-.165-.02-.042-.07-.062-.105-.075-.188-.07-.421-.048-.547-.174-.22-.22-.208-.361-.269-.462-.421-.701-.466-.923-.24-1.613.14-.434.562-.403.913-.67.374-.284.977-.141 1.225-.51.047-.07.022-.153 0-.218-.026-.078-.07-.168-.13-.173-.264-.023-.527.138-.791.095-.229-.037-.458-.068-.662-.166-.581-.278-.626-.44-.584-.887.05-.538.139-.497.619-.598 1.055-.22 2.165-.275 3.26-.25.142.002.181.159.269.461.05.176.122.56-.092.757-.52.477-.458.285-.36 1.143.009.089.167.235.192.552.03.381.109.773.023 1.163-.045.206-.097.395-.253.602-.2.265-.508.412-.716.655-.101.119-.252.35-.38.479-.106.109-.202.229-.237.367-.069.279-.293 1.005.373.721.226-.097.301-.39.454-.585.014-.018.078.01.081-.022.02-.183.208-.422.388-.363.036.01.075.048.09.092.03.079.077.187.04.28-.112.274-.143.771-.267 1.086-.133.34-.759.62-.997.877-.142.152-.38.288-.496.271Zm4.79-1.152c-.478-.068-.899-.195-.745-.576.174-.428.446-.299.902-.402.102-.024.386-.278.624-.098a.395.395 0 0 1 .138.272c.011.14.044.353-.083.44-.294.197-.52.409-.837.364Zm-5.231-2.627c-.447-.115-.549-.324-.35-.655.205-.342.393-.38.809-.512.142-.045.221-.263.501-.189.069.018.162.293.058.529-.114.258-.251.515-.463.685-.158.126-.376.19-.555.142Zm4.75-1a.163.163 0 0 1-.138-.072c-.181-.326-.364-.655-.444-.997a4.74 4.74 0 0 1-.098-1.275c.006-.148.054-.328.169-.396.324-.195.84-.41 1.373-.322.16.026.19.206.162.37-.01.06-.076.112-.139.144-.487.246-1.001.311-.928.904.016.136.158.708.634.467a.339.339 0 0 1 .284-.005c.297.146-.05.608-.209.749-.162.142-.39.202-.574.327-.04.026-.045.103-.092.107Zm2.268-.59c-.095.017-.14-.017-.157-.105-.068-.359-.04-.731-.102-1.09-.061-.367-.556-1.348-.396-1.469.318-.24 1.103-.372 1.484.035.17.183.179.502.108.741-.074.247-.011.66-.07 1.038-.032.205-.068.431-.221.584-.172.169-.419.222-.646.266ZM121.688 68.288c-.651-.16-.488-.697-.497-1.037.168-.377.417-.142.853-.153l.477-.255c.123-.23.263-.46.402-.675.024-.307.037-.42.146-.57.041-.259.033-.581-.037-.757-.424-.15-.856.007-1.145.111-.645.018-1.095.143-1.626.223-.455-.1-.405-.635-.41-.83.298-.315.372-.51.991-.366.55-.015 1.209-.13 1.838-.18.157-.165.054-.405.019-.47-.021-.176-.041-.338-.046-.5-.209.006-.42.013-.63.035-.379.317-.908-.137-1.024-.247-.367-1.008.542-.856 1.301-.909.272-.056.591-.227.945-.3.179.075.359.15.555.227.285.363.425.748.099 1.241.008.292-.065.536.346.8.226-.007.468-.014.711-.005.051.08.101.16.168.239.014.516-.723.763-1.005 1.062-.028.162-.056.325-.084.504-.146.553-.549 1.163-.71 1.781-.331.316-.646.632-.96.948-.257.071-.5.061-.677.083Zm-4.056-5.271c-.474-.166-.607-.323-.617-.663.026-.227.053-.437.095-.65.053-.42.105-.907.472-1.062.058-.277.474-.402.797-.443.046-.082.108-.148.171-.214-.008-.324-.078-.516-.13-.595a9.904 9.904 0 0 1-.05-.662c.057-.292.13-.585.203-.862.012-.145.04-.292.069-.438-.02-.695.159-.635.34-1.157.047-.05.705-.182.919-.042.022.21.061.418.098.628a9.276 9.276 0 0 0-.286.72c.017.047.035.095.052.16.251-.267.406-.545.639-.843.135-.423.22-.863.57-1.05.307-.01.482-.093.673.37a4.055 4.055 0 0 0-.101.439c-.158.166-.212.507-.385.69-.073.293-.231.426.053.774.094-.115.188-.231.299-.331a.906.906 0 0 1 .191-.087c.003.113.006.227.025.355-.123.198-.231.41-.338.623a1.958 1.958 0 0 1-.303.72l-.03.68c.038.193.316.315.568.049.057-.26.034-.502.028-.68.186-.344.37-.688.57-1.034.057-.308.002-.533-.017-.662a5.945 5.945 0 0 1-.318-.38c-.085-.724-.076-1 .296-1.56.285-.217.519-.53 1.056-.4.083.11.122.32.228.624-.092.197-.184.393-.259.59-.062.113-.28.363-.08.616.063-.035.128-.052.192-.07.153-.311.245-.476.467-.66.263-.41.696-.537 1.26-.6a.564.564 0 0 1 .359.135c.086.176.188.351.29.541.042.356.1.71.159 1.064.02.16.191.496.021.775-.028.179-.054.374-.081.568a3.918 3.918 0 0 1-.497.71c.009.338.459.294.831.283.466-.11.561-.193.851.365.005.193.073.871-.099 1.118a.82.82 0 0 0-.208.087c-.355.01-.521-.148-.604-.227a38.5 38.5 0 0 0-.058-.338c-.194-.01-.372-.021-.55-.017a5.013 5.013 0 0 0-.487-.067c-1.105.353-2.32.242-3.323.253l-1.531.139c-1.043.288-1.217.405-1.676 1.355a2.008 2.008 0 0 1-.814.363Zm2.023-2.853c-.1-.095-.058-.321-.058-.338.03-.048.078-.099.125-.149.074-.244.033-.534.06-.761.045-.099.107-.197.169-.295.137.254.142.432.039.807a8.01 8.01 0 0 0-.015.646c-.112.02-.224.055-.32.09Zm2.902-.242a19.877 19.877 0 0 1-.198-.14c-.007-.29.001-.581.01-.857l.137-.246c.066-.001.129-.003.212.01.084.16.186.318.287.494-.058.212-.117.424-.175.652a1.416 1.416 0 0 0-.273.087Zm.919-.09c-.049-.03-.082-.062-.115-.077.048-.001.077-.131.181-.474-.019-.694-.274-1.14.034-1.698.095-.067.206-.135.318-.186.2-.361.489-.45.944-.35.149.142.188.35.196.69a.315.315 0 0 0-.127.035c-.266-.25-.231-.154-.506-.147-.649.47-.525.306-.663 1.166l-.022.955c-.081.018-.161.052-.24.087Zm1.322-.73-.019-.68c.064 0 .129-.003.194-.004l.015.565c-.048.002-.096.019-.145.036a.334.334 0 0 0-.045.082ZM52.65 73.214v-2.896h1.165v.418h-.72v.76h.52v.418h-.52v.865h.72v.435H52.65Zm1.47 0 .476-2.896h.584l.474 2.896h-.459l-.09-.627h-.45l-.097.627h-.438Zm.59-1.038h.341l-.152-1.21h-.028l-.16 1.21Zm1.231.303.427-.064c.008.147.036.255.084.325a.24.24 0 0 0 .212.106.268.268 0 0 0 .199-.078.276.276 0 0 0 .076-.203c0-.15-.12-.346-.36-.585l-.043-.042c-.235-.235-.386-.415-.453-.542a.85.85 0 0 1-.1-.401c0-.205.068-.377.202-.516a.658.658 0 0 1 .492-.21c.188 0 .342.065.462.194.12.128.19.303.206.524l-.437.061a.577.577 0 0 0-.069-.278c-.038-.056-.096-.084-.175-.084a.222.222 0 0 0-.173.073.285.285 0 0 0-.065.195c0 .169.14.388.42.66l.026.025c.206.2.34.364.405.491.064.127.096.27.096.427a.72.72 0 0 1-.196.52.663.663 0 0 1-.497.203.683.683 0 0 1-.528-.212c-.13-.142-.2-.338-.21-.589Zm1.657-1.743v-.418h1.374v.418h-.465v2.478h-.446v-2.478h-.463Zm2.36 1.735v-1.484c0-.229.062-.407.186-.537.124-.13.296-.194.515-.194.207 0 .37.066.492.199.12.133.181.314.181.544v.278h-.459v-.319c0-.1-.019-.174-.058-.224-.039-.05-.096-.076-.172-.076-.076 0-.133.026-.172.076-.04.05-.059.125-.059.225v1.616c0 .1.02.175.059.227.039.05.096.076.172.076.076 0 .133-.026.172-.076.04-.052.058-.127.058-.227v-.395h.459v.303c0 .254-.06.45-.18.587-.119.137-.289.206-.51.206-.225 0-.396-.068-.511-.204-.116-.136-.173-.337-.173-.601Zm1.923-2.153h.442V71.5h.447v-1.182h.447v2.896h-.447v-1.296h-.447v1.296h-.442v-2.896Zm1.963 2.896v-2.896h.455v2.896h-.455Zm1.07 0v-2.896h.4l.568 1.73.038.132c.016.055.032.114.048.177a5.316 5.316 0 0 1-.036-.233 1.326 1.326 0 0 1-.014-.158v-1.648h.418v2.896h-.418l-.545-1.6a2.882 2.882 0 0 1-.094-.314c.015.1.028.185.036.253.01.067.013.116.013.147v1.514h-.414Zm1.84 0 .476-2.896h.583l.474 2.896h-.459l-.09-.627h-.45l-.097.627h-.438Zm.59-1.038h.34l-.151-1.21h-.029l-.16 1.21Zm1.999-1.858h.457v2.243c0 .084.022.151.065.201.043.05.1.075.171.075.07 0 .126-.024.166-.074.04-.05.06-.116.06-.202v-2.243h.455v2.165c0 .255-.059.45-.177.588-.118.137-.288.205-.508.205-.223 0-.394-.069-.512-.206-.118-.138-.177-.337-.177-.6v-2.152Zm1.974 2.896v-2.896h.4l.567 1.73.039.132c.016.055.031.114.047.177a5.316 5.316 0 0 1-.035-.233 1.326 1.326 0 0 1-.015-.158v-1.648h.419v2.896h-.419l-.545-1.6a2.882 2.882 0 0 1-.094-.314c.016.1.028.185.037.253.009.067.013.116.013.147v1.514h-.414Zm2.045 0v-2.896h.455v2.896h-.455Zm.88-2.896h.436l.267 1.715a3.99 3.99 0 0 1 .048.602v.053a7.715 7.715 0 0 1 .05-.655l.258-1.715h.439l-.513 2.896h-.467l-.518-2.896Zm1.931 2.896v-2.896h1.166v.418h-.72v.76h.519v.418h-.518v.865h.719v.435h-1.166Zm2.12-2.478v.842h.176c.103 0 .174-.03.215-.093.04-.062.06-.178.06-.346 0-.152-.022-.258-.063-.316-.043-.058-.118-.087-.228-.087h-.16Zm0 1.26v1.218h-.447v-2.896h.655c.246 0 .423.066.533.198.11.132.164.346.164.64 0 .18-.021.328-.066.44a.588.588 0 0 1-.216.273l.328 1.345h-.462l-.277-1.218h-.212Zm1.298.483.427-.064c.008.147.036.255.084.325a.24.24 0 0 0 .213.106.268.268 0 0 0 .198-.078.276.276 0 0 0 .076-.203c0-.15-.12-.346-.36-.585l-.043-.042c-.234-.235-.385-.415-.452-.542a.85.85 0 0 1-.1-.401c0-.205.067-.377.2-.516a.658.658 0 0 1 .493-.21c.188 0 .342.065.462.194.12.128.19.303.207.524l-.437.061a.577.577 0 0 0-.07-.278c-.038-.056-.096-.084-.174-.084a.222.222 0 0 0-.174.073.285.285 0 0 0-.065.195c0 .169.14.388.42.66l.027.025c.205.2.34.364.404.491.065.127.097.27.097.427a.72.72 0 0 1-.196.52.663.663 0 0 1-.498.203.683.683 0 0 1-.527-.212c-.13-.142-.2-.338-.212-.589Zm1.912.735v-2.896h.454v2.896h-.454Zm.815-2.478v-.418h1.375v.418h-.465v2.478h-.447v-2.478h-.463Zm1.467-.418h.453l.29 1.157h.029l.276-1.157h.454l-.52 1.694v1.202h-.447v-1.148l-.535-1.748Zm3.381 2.258v-1.617c0-.1-.019-.175-.058-.225-.039-.05-.096-.076-.172-.076-.076 0-.133.026-.172.076-.04.05-.058.125-.058.225v1.617c0 .1.019.175.058.226.039.05.096.076.172.076.076 0 .133-.026.172-.076a.37.37 0 0 0 .058-.227Zm-.915-1.59c0-.228.062-.406.186-.536s.296-.194.515-.194c.207 0 .37.066.492.2.12.132.181.313.181.543v1.484c0 .254-.06.45-.179.587-.12.137-.29.206-.51.206-.223 0-.393-.068-.51-.205-.117-.137-.175-.337-.175-.6v-1.484Zm1.947 2.228v-2.896h1.164v.418h-.718v.76h.517v.418h-.517v1.3h-.446Zm2.068-.735.426-.064c.008.147.036.255.084.325a.24.24 0 0 0 .213.106.268.268 0 0 0 .198-.078.276.276 0 0 0 .076-.203c0-.15-.12-.346-.36-.585l-.043-.042c-.234-.235-.385-.415-.452-.542a.848.848 0 0 1-.1-.401c0-.205.067-.377.2-.516a.658.658 0 0 1 .493-.21c.188 0 .342.065.462.194.12.128.19.303.207.524l-.437.061a.578.578 0 0 0-.07-.278c-.037-.056-.096-.084-.174-.084a.222.222 0 0 0-.174.073.285.285 0 0 0-.065.195c0 .169.14.388.42.66l.027.025c.206.2.34.364.404.491a.93.93 0 0 1 .097.427.72.72 0 0 1-.196.52.663.663 0 0 1-.498.203.683.683 0 0 1-.527-.212c-.13-.142-.2-.338-.212-.589Zm1.857-.008v-1.484c0-.229.062-.407.186-.537.124-.13.296-.194.515-.194.207 0 .37.066.492.199.121.133.181.314.181.544v.278h-.459v-.319c0-.1-.019-.174-.058-.224-.039-.05-.096-.076-.172-.076-.076 0-.133.026-.172.076-.04.05-.058.125-.058.225v1.616c0 .1.019.175.058.227.039.05.096.076.172.076.076 0 .133-.026.172-.076.04-.052.058-.127.058-.227v-.395h.46v.303c0 .254-.06.45-.18.587-.12.137-.29.206-.51.206-.226 0-.397-.068-.512-.204-.116-.136-.173-.337-.173-.601Zm1.923.743v-2.896h.455v2.896h-.455Zm1.07 0v-2.896h1.165v.418h-.719v.76h.519v.418h-.519v.865h.72v.435h-1.166Zm1.677 0v-2.896h.4l.567 1.73.04.132.046.177a5.316 5.316 0 0 1-.035-.233 1.326 1.326 0 0 1-.015-.158v-1.648h.419v2.896h-.419l-.545-1.6a2.882 2.882 0 0 1-.094-.314c.016.1.028.185.037.253.009.067.013.116.013.147v1.514h-.414Zm1.991-.743v-1.484c0-.229.063-.407.186-.537.125-.13.296-.194.516-.194.206 0 .37.066.491.199s.181.314.181.544v.278H99.7v-.319c0-.1-.02-.174-.059-.224-.038-.05-.096-.076-.172-.076-.076 0-.133.026-.172.076-.039.05-.058.125-.058.225v1.616c0 .1.019.175.058.227.039.05.096.076.172.076.076 0 .134-.026.172-.076.04-.052.059-.127.059-.227v-.395h.458v.303c0 .254-.059.45-.179.587-.12.137-.29.206-.51.206-.225 0-.396-.068-.512-.204-.115-.136-.173-.337-.173-.601Zm1.923.743v-2.896h1.166v.418h-.719v.76h.518v.418h-.518v.865h.719v.435h-1.166Zm2.137 0 .477-2.896h.583l.475 2.896h-.459l-.09-.627h-.451l-.096.627h-.439Zm.591-1.038h.341l-.152-1.21h-.028l-.161 1.21Zm1.367 1.038v-2.896h.4l.567 1.73.039.132c.016.055.032.114.047.177a6.133 6.133 0 0 1-.035-.233 1.275 1.275 0 0 1-.015-.158v-1.648h.419v2.896h-.419l-.545-1.6-.01-.03a3.18 3.18 0 0 1-.084-.285c.016.102.028.186.037.254.009.067.013.116.013.147v1.514h-.414Zm2.488-.427h.226c.079 0 .137-.024.175-.073.038-.05.057-.127.057-.23v-1.395c0-.119-.028-.206-.086-.261-.057-.055-.147-.084-.27-.084h-.102v2.043Zm-.443.427v-2.896h.635c.246 0 .428.065.546.194.118.13.177.33.177.601v1.294c0 .281-.056.486-.168.615-.112.128-.291.192-.535.192h-.655Zm2.344-2.478v-.418h1.374v.418h-.465v2.478h-.446v-2.478h-.463Zm1.747 2.478v-2.896h1.165v.418h-.719v.76h.518v.418h-.518v.865h.719v.435h-1.165Zm1.623-.743v-1.484c0-.229.062-.407.186-.537.124-.13.296-.194.515-.194.207 0 .371.066.492.199s.181.314.181.544v.278h-.459v-.319c0-.1-.019-.174-.058-.224-.039-.05-.096-.076-.172-.076-.076 0-.134.026-.173.076-.039.05-.058.125-.058.225v1.616c0 .1.019.175.058.227.039.05.097.076.173.076.076 0 .133-.026.172-.076.039-.052.058-.127.058-.227v-.395h.459v.303c0 .254-.06.45-.179.587-.12.137-.29.206-.51.206-.226 0-.397-.068-.512-.204-.116-.136-.173-.337-.173-.601Zm1.923-2.153h.442V71.5h.447v-1.182h.447v2.896h-.447v-1.296h-.447v1.296h-.442v-2.896Zm1.963 2.896v-2.896h.401l.567 1.73.039.132.047.177a4.692 4.692 0 0 1-.036-.233 1.445 1.445 0 0 1-.014-.158v-1.648h.418v2.896h-.418l-.545-1.6a2.914 2.914 0 0 1-.095-.314c.016.1.029.185.037.253.009.067.013.116.013.147v1.514h-.414Zm2.907-.638v-1.617c0-.1-.019-.175-.058-.225-.039-.05-.096-.076-.172-.076-.076 0-.134.026-.173.076-.039.05-.058.125-.058.225v1.617c0 .1.019.175.058.226.039.05.097.076.173.076.076 0 .133-.026.172-.076a.37.37 0 0 0 .058-.227Zm-.915-1.59c0-.228.062-.406.186-.536s.296-.194.515-.194c.206 0 .371.066.492.2.121.132.181.313.181.543v1.484c0 .254-.06.45-.179.587-.12.137-.29.206-.51.206-.223 0-.393-.068-.51-.205-.117-.137-.175-.337-.175-.6v-1.484Zm1.947 2.228v-2.896h.442v2.478h.693v.418h-1.135Zm2.414-.638v-1.617c0-.1-.019-.175-.058-.225-.039-.05-.097-.076-.173-.076-.076 0-.133.026-.172.076-.039.05-.058.125-.058.225v1.617c0 .1.019.175.058.226.039.05.096.076.172.076.076 0 .134-.026.173-.076a.37.37 0 0 0 .058-.227Zm-.916-1.59c0-.228.063-.406.186-.536.125-.13.296-.194.516-.194a.63.63 0 0 1 .491.2c.121.132.182.313.182.543v1.484c0 .254-.06.45-.18.587-.119.137-.289.206-.51.206-.223 0-.393-.068-.51-.205-.117-.137-.175-.337-.175-.6v-1.484Zm1.893 1.485v-1.484c0-.229.063-.407.186-.537.125-.13.296-.194.516-.194.21 0 .371.063.48.188.11.126.165.31.165.555v.266h-.431v-.306c0-.1-.019-.175-.058-.225-.039-.05-.097-.076-.173-.076-.076 0-.133.026-.172.076-.039.05-.058.125-.058.225v1.616c0 .1.019.175.058.227.039.05.096.076.172.076.076 0 .134-.026.173-.076.039-.052.058-.127.058-.227v-.453h-.271v-.368h.702v1.46h-.215l-.086-.2a.525.525 0 0 1-.178.198.471.471 0 0 1-.252.064c-.2 0-.352-.069-.458-.206-.105-.138-.158-.337-.158-.6Zm1.647-2.153h.454l.29 1.157h.028l.276-1.157h.454l-.52 1.694v1.202h-.447v-1.148l-.535-1.748Z" clip-rule="evenodd"/><path fill="#FEFEFE" fill-rule="evenodd" d="M37.775 53.225c5.95 0 10.775 4.825 10.775 10.775s-4.825 10.775-10.775 10.775S27 69.95 27 64s4.825-10.775 10.775-10.775Z" clip-rule="evenodd"/><path fill="#0068AB" fill-rule="evenodd" d="M38.616 55.953c-.077-.012-.097-.036-.139-.053a.235.235 0 0 1-.117-.108.065.065 0 0 1 0-.038c.092-.262.242-.234.482-.278.038-.006.07.007.14.004.06-.003.116.023.178.024a.454.454 0 0 0 .145-.02c.032-.011.06-.03.082-.053a.159.159 0 0 0 .04-.067.292.292 0 0 0 .011-.124c-.012-.077-.063-.136-.08-.165a.161.161 0 0 1-.027-.068c-.008-.148.137-.19.174-.293.006-.016-.035.01-.05.01-.132-.008-.283.015-.405.024-.069.004-.155-.029-.182-.06-.077-.09-.043-.138.002-.2.086-.115.184-.116.32-.127.046-.003.09.021.134.02.045 0 .088-.027.135-.026.048.002.123.008.198.007.042 0 .084.006.123.021.104.042.175.034.222.193.017.057-.023.172-.109.185-.1.015-.162-.011-.233.03-.025.014-.048.04-.033.089.041.134.13.318.054.497a.41.41 0 0 1-.356.233c-.111-.001-.218-.049-.325-.054-.027 0-.05.03-.078.029-.059 0-.135-.02-.103.007.058.049.103.034.202.07.123.045.257.058.387.07.099.01.155-.016.258.01.14.037.293-.045.43.054.04.03 0 .136-.055.19-.132.131-.409.071-.557.058-.053-.004-.103.012-.152.005-.243-.033-.5-.064-.716-.096ZM32.368 58.794c-.07.046-.117.045-.15.02-.075-.057-.123-.148-.206-.183-.091-.04-.112.021-.15.078a.298.298 0 0 1-.09.079c-.08.05-.13.038-.15-.03-.035-.12.004-.154.074-.263.01-.015.022-.027.024-.046a.072.072 0 0 0-.018-.05c-.046-.053-.065.02-.071.028-.027.038-.065.07-.086.112-.092.19-.21.352-.355.485-.014.013-.039.002-.051-.008-.093-.073-.147-.128-.107-.242.037-.11.168-.206.263-.315 0 0 .009.004.009 0 0-.058.13-.157.158-.242.008-.023.02-.054.009-.076-.034-.065-.123-.196-.185-.215-.013-.005-.03.006-.037.017a.393.393 0 0 0-.053.13c-.022.047.031.076.056.124.018.035.04.066.032.1-.02.093-.085.159-.148.152-.009-.001-.02-.003-.028 0-.036.024-.088.096-.13.098-.072.022-.104 0-.118-.027-.053-.103-.032-.14.03-.243.021-.035.043-.075.043-.114-.002-.042-.027-.08-.05-.11-.021-.027-.05-.054-.08-.06-.04-.007-.08.03-.113.02-.15-.047-.095-.163-.017-.27.004-.005.007-.016.001-.02-.044-.023-.096-.02-.11-.007-.095.091-.12.187-.225.138a.19.19 0 0 1-.09-.088c-.028-.058.017-.102.001-.175.007-.055.082-.07.029-.16-.036-.106-.09-.14-.044-.24.045-.097.073-.107.2-.042.074.046.006.092.11.143.085.048.122.11.154.206.005.007.038.03.041.036.01.018.016.054.034.047.059-.022.16-.114.156-.196-.004-.073-.097-.12-.108-.162-.013-.052-.022-.185-.039-.235-.034-.1-.065-.22-.098-.318-.014-.04-.029-.088-.012-.13.023-.054.037-.097.125-.08.058.01.087.084.142.112.046.024.117-.04.192.057.085.11-.036.237-.08.328-.04.082-.025.183-.042.26 0 .004.002.018.008.015a.268.268 0 0 0 .063-.048c.059-.06.104-.146.195-.2.03-.017.05-.016.08.032.041.063-.035.255-.074.309-.03.039-.058.06-.07.09-.007.018-.03.034 0 .07.04.055.04.074.081.051.007-.001.018-.01.024-.014a.22.22 0 0 0 .071-.092c.009-.023.022-.038.019-.064-.005-.052-.045-.115-.012-.171.02-.05.101-.116.188-.063.019.006.046-.002.07.004.033.007.07.021.104.063.025.03.022.077.043.112.015.024.048.035.058.061.015.037-.007.144.014.171.004.005-.012.03-.003.02-.016.021.002.034.013.041.006.004.025-.013.032-.02.06-.07.068-.054.085-.087.025-.051.052-.059.068-.086-.003-.014.06-.082.105-.117.05-.042.196.013.182.12-.007.074-.09.11-.113.147-.02.031-.007.048-.035.084-.033.05-.076.089-.11.134-.027.018-.028.054-.051.075a.545.545 0 0 0-.117.207c0 .01.031.037.042.031.063-.035.095-.124.18-.182.01-.05.156-.058.183.043.001.047.007.073-.01.093-.031.039-.042.087-.063.119-.038.057-.101.095-.111.153-.013.033-.003.038.007.065.006.017.025.035.036.054.023.037.06.072.084.112.032.056.083.102.104.184.005.02.013.053-.012.06Zm-.693-.971c-.087.023-.101-.041-.138-.075-.035-.078-.039-.065.023-.135a.404.404 0 0 1 .056-.026c.08.031.096.118.083.19a.233.233 0 0 0-.024.046Zm-.552.098c-.021.013-.028.029-.042.03-.049.007-.08-.013-.11-.05.002-.006-.002-.016.002-.022.012-.026.032-.053.05-.09.025-.076.021-.11.11-.045.014.017.04.03.047.047a.096.096 0 0 1 0 .056c-.02.023-.038.049-.057.074ZM42.426 57.44c-.034-.018-.077-.029-.096-.058-.07-.107-.146-.17-.192-.233a.729.729 0 0 1-.128-.26c-.009-.081-.048-.099-.07-.123-.008-.01-.013-.027-.008-.037.065-.139.075-.188.222-.165.022.003.05.02.06.042.035.069.095.211.15.315.074.14.24.24.385.366.03.027.07.05.086.091.008.022-.01.048-.023.072a.037.037 0 0 1-.031.02c-.054-.002-.105-.026-.16-.026-.043 0-.085.024-.13.022-.026-.001-.045-.016-.065-.027Zm-1.694-.91c-.086-.1.1-.123.163-.16.017-.01.017-.035.032-.041.11-.043.266-.027.38-.073.029-.011.047-.02.078-.027a1.11 1.11 0 0 0 .357-.153c.019-.013.034-.048.02-.065-.036-.041-.105-.04-.142-.074-.02-.018-.023-.031-.022-.047.005-.068.007-.114.03-.161.078-.168.27-.016.409.03.034.01.049.013.08-.01.062-.044.092-.079.139-.122.028-.026.07-.038.095-.065.049-.052.08-.088.124-.12.048-.035.103-.062.154-.089.004-.002.012.01.016.005.031-.048.116-.021.161-.027.05-.007.094-.03.139.01.06.055.031.15-.017.233a.35.35 0 0 1-.084.093.483.483 0 0 1-.1.06c-.094.045-.189.045-.26.134-.03.037.064.077.13.089.047.009.1 0 .145.025.068.038.118.162.032.243-.047.044-.074.03-.116.016-.173-.06-.339-.13-.497-.075-.042.014-.058.068-.096.094-.051.034-.108.046-.161.074a1.292 1.292 0 0 1-.219.088c-.105.034-.204.075-.308.088-.036.005-.075-.015-.104 0-.089.046-.267.038-.391.067-.058.013-.13.003-.167-.04ZM36.945 56.288a.234.234 0 0 1-.1-.007.188.188 0 0 1-.084-.042c-.082-.078-.053-.145-.054-.236 0-.078-.059-.087-.09-.096-.006 0-.003-.008-.006-.009-.14-.04-.197-.112-.179-.208.037-.186.184-.173.36-.246a.204.204 0 0 0 .087-.062c.01-.014.008-.043-.006-.047-.085-.023-.126.021-.182-.002-.05-.02-.054-.08-.073-.117-.005-.01-.012-.03-.02-.035-.003-.002-.004 0-.006 0l-.007.012c-.007.014-.017.053-.034.058-.105.036-.163-.077-.195-.122a.737.737 0 0 1-.083-.159 1.837 1.837 0 0 1-.08-.269.72.72 0 0 1-.016-.165c0-.028.02-.052.018-.079-.01-.21.035-.224.255-.239.021-.001.042.01.066.008.044-.005.16-.032.23-.036.081-.004.156-.063.24-.071.054-.005.14-.05.229-.004.028.014.064.012.092.033.051.038.078.157.062.262-.009.06.034.134.027.221-.003.04.017.087 0 .14-.006.021.005.045-.004.067-.029.07-.064.109-.091.18-.011.027-.056.033-.07.06-.029.055-.065.064-.09.081-.025.019-.055.02-.043.102.002.02.008.042.011.055.004.012.013.049.025.058.035.026.12.012.161.1.025.052.02.15.01.218-.013.074-.123.09-.025.173.034.03.064.034.064.114 0 .029-.014.052-.032.102a.105.105 0 0 1-.043.057c-.071.042-.139.068-.174.093a.395.395 0 0 1-.15.057Zm-1.087-.104c-.04 0-.042.003-.072 0-.173-.012-.262-.1-.248-.248.005-.053.024-.122.036-.165.01-.04.047-.067.061-.105.005-.013 0-.025-.006-.033-.005-.008-.016-.011-.023-.013-.04-.01-.086 0-.114-.022-.05-.039-.051-.067-.066-.086-.101-.131-.116-.175-.087-.32.018-.09.104-.094.168-.156.069-.066.194-.052.235-.132.007-.015 0-.031-.005-.044-.008-.015-.019-.032-.03-.032-.054.002-.104.04-.158.038-.047-.002-.094-.002-.137-.017-.124-.042-.137-.074-.139-.165-.003-.11.016-.103.11-.135.208-.07.43-.107.65-.128.03-.003.041.028.066.086.014.034.038.11 0 .155-.094.108-.086.068-.046.239.004.017.04.043.052.106.015.076.04.153.033.233a.286.286 0 0 1-.037.128c-.034.058-.092.095-.128.149-.018.026-.043.076-.065.105a.173.173 0 0 0-.04.08c-.007.058-.034.21.093.136.043-.025.051-.086.077-.129.003-.004.016 0 .016-.006 0-.037.032-.09.07-.082a.03.03 0 0 1 .02.016c.008.015.02.036.015.056-.016.057-.01.158-.028.224-.019.072-.138.143-.18.2-.025.035-.07.068-.093.067Zm.936-.346c-.097-.003-.185-.018-.163-.098.025-.09.082-.071.172-.103.02-.007.07-.065.123-.035.016.01.03.03.034.052.006.028.018.07-.006.09-.054.047-.095.095-.16.094Zm-1.115-.404c-.093-.012-.119-.052-.087-.123.034-.074.07-.086.151-.123.028-.012.038-.058.097-.05.014.002.04.055.024.105a.363.363 0 0 1-.077.15.135.135 0 0 1-.108.041Zm.929-.306c-.006.002-.007 0-.015-.005-.004-.002-.008-.01-.01-.013l-.002-.002c-.044-.061-.089-.123-.113-.19a.963.963 0 0 1-.05-.255c-.002-.03.003-.067.025-.083a.427.427 0 0 1 .268-.098c.033.002.043.037.042.07 0 .013-.013.025-.025.033-.092.061-.194.087-.165.204.006.027.049.14.139.08a.068.068 0 0 1 .057-.009c.03.015.032.063.025.09-.008.031-.036.051-.05.066-.029.033-.073.05-.107.08-.012.01-.01.03-.02.032Zm.445-.182c-.018.006-.037.003-.042-.015-.006-.018-.01-.028-.013-.047-.002-.018-.007-.05-.005-.065a.217.217 0 0 0-.008-.125.446.446 0 0 0-.06-.11c-.02-.03-.038-.046-.053-.085-.014-.037-.024-.064-.014-.073.058-.056.213-.102.3-.029.038.033.047.097.039.147-.01.051.013.133.01.21-.001.042-.003.089-.03.123-.03.038-.079.055-.124.07ZM34.29 57.3a.127.127 0 0 1-.064-.008c-.04-.02-.064-.065-.08-.09-.078-.127-.132-.255-.203-.355-.01-.014-.033-.011-.035-.009a.605.605 0 0 0-.09.131c-.026.055-.045.125-.063.189-.014.048-.043.075-.05.123-.01.055-.013.117-.043.16-.022.029-.038.069-.07.08-.013.004-.03.012-.039.011-.034 0-.044-.037-.046-.075-.014-.182.038-.34.087-.51.014-.048.017-.095.035-.139.02-.048.053-.188.026-.227-.007-.01-.023-.01-.028-.019-.051-.088-.007-.09 0-.178.005-.064-.013-.079-.047-.098-.104-.061-.096-.18-.105-.255-.001-.015-.01-.03-.022-.035-.012-.005-.027.003-.033.01-.038.04-.108.081-.135.139-.01.023-.024.032-.028.048-.003.014-.007.034 0 .05.005.02.019.03.03.045.027.03.108.097.15.17.017.03.031.052.024.083-.003.018-.008.047-.02.059-.026.026-.056.058-.093.058-.043 0-.077-.04-.117-.059-.016-.007-.032-.005-.042-.014a.995.995 0 0 1-.155-.154c-.015-.02-.021-.047-.038-.063-.055-.05-.128-.214-.15-.274-.01-.026-.006-.064-.007-.078-.014-.085.03-.15.033-.233-.001-.008-.013-.028-.03-.023-.039.01-.088.016-.099.007-.047-.037-.078-.03-.08-.113-.001-.043.032-.096.062-.15.04-.07.105-.08.188-.127.051-.029.107-.051.15-.09.013-.013.011-.038.007-.058-.012-.056-.01-.072-.023-.106-.038-.098-.044-.16.053-.189.03-.008.068.007.096.027.024.018.038.025.051.043.014.019.02.032.044.041.017.007.051-.006.084-.022.014-.007.056-.023.076-.048.021-.032.06-.046.1-.055a.154.154 0 0 1 .085.01c.045.018.14.065.105.158a.466.466 0 0 1-.085.15c-.038.041-.061.056-.084.079-.02.021-.06.025-.077.05-.02.028-.037.043-.027.078.01.031.028.05.06.074.012.008.026-.002.036-.01l.048-.039c.045-.037.088-.053.121-.075.051-.035.049-.044.101-.065.027-.01.046-.01.072-.011.07-.003.115-.016.193.046.04.03.073.072.094.116a.865.865 0 0 1 .062.218c.007.043.003.09.003.134a.46.46 0 0 1-.03.16l-.024.071c-.005.013-.028.048-.032.06-.006.014 0 .033-.016.066-.012.025-.022.029-.043.053-.036.042-.088.073-.107.101-.022.032-.007.038.017.068.016.02.061.022.11.038.043.012.14.026.205.018.06-.007.147-.032.214-.054.047-.015.038-.027.099-.049a.547.547 0 0 1 .127-.031c.046-.006.084.014.133.103.015.044-.008.068-.04.114a.249.249 0 0 1-.066.09.32.32 0 0 1-.173.087c-.043.01-.103.026-.148.031-.05.006-.135.01-.175.008-.043-.005-.1-.01-.123-.011-.017 0-.038-.009-.043.004-.005.02.015.053.028.076.028.049.086.122.113.186.034.079.11.185.043.248-.01.012-.022.03-.038.03Zm-.4-1.14c-.009.003-.018-.006-.024-.014-.01-.014-.015-.023-.015-.038 0-.033.02-.038.044-.09-.002-.072-.012-.082-.04-.11a.146.146 0 0 0-.094-.042c-.02.008-.053.004-.07.002-.025-.02-.045-.049-.04-.076.007-.027.039-.054.06-.076.047-.047.122-.086.152-.107.055-.028.116-.041.158.003.011.013.026.027.035.047.024.062.043.14.05.19a.293.293 0 0 1-.037.15c-.01.019-.038.015-.045.036-.043.044-.07.057-.106.087-.013.011-.012.022-.029.039Zm-.683-.356c-.032.006-.072.032-.118.033-.033-.04-.021-.08 0-.11.034-.052.019-.071.075-.103a.215.215 0 0 1 .078-.028c.04.018.085.092.073.128a.084.084 0 0 1-.017.027 1.046 1.046 0 0 0-.09.053ZM43.198 58.699c-.018-.036-.027-.072-.022-.096.012-.06.075-.085.11-.118.018-.006.033-.016.044-.013.04.01.052.071.1.122l.102.04c.052-.012.106-.021.158-.029.05-.037.07-.05.107-.053a.347.347 0 0 0 .112-.108c-.034-.085-.116-.13-.17-.16-.09-.098-.169-.15-.252-.221-.046-.084.043-.148.072-.175.089.004.13-.01.19.104.075.083.181.169.273.259.047.002.07-.046.075-.06.024-.027.047-.052.07-.074a1.657 1.657 0 0 0-.089-.092c-.1-.016-.1-.158-.099-.191.106-.192.205-.031.314.078.045.035.114.061.173.106.012.038.025.075.04.116-.019.092-.059.165-.179.181-.043.04-.09.062-.076.16.03.034.064.07.095.11-.005.018-.01.036-.014.057-.077.071-.214-.01-.298-.013a8.477 8.477 0 0 0-.089.055c-.104.052-.252.07-.369.129a9.983 9.983 0 0 0-.274-.02c-.046-.031-.077-.07-.104-.094Zm.27-1.33c-.04-.094-.032-.137.018-.184a1.51 1.51 0 0 1 .113-.072c.072-.048.154-.105.227-.07.05-.028.125.02.175.064.019-.004.037-.003.056-.002a.25.25 0 0 0 .074-.1c.032-.034.064-.067.095-.096a2.68 2.68 0 0 1 .16-.084c.024-.018.05-.033.077-.048.104-.096.119-.06.223-.103.014 0 .123.084.13.136-.03.032-.056.065-.084.1-.05.013-.1.033-.149.051l-.017.03c.074.003.138-.01.215-.014.083-.037.162-.082.238-.053.042.046.079.061.033.153a.836.836 0 0 0-.081.043c-.047-.002-.107.035-.158.033-.055.028-.097.022-.112.112.03-.001.06-.002.09.001.015.006.028.01.04.018a.565.565 0 0 0-.052.052c-.047.007-.094.02-.14.031a.398.398 0 0 1-.152.05l-.109.086c-.021.027-.013.06.035.09.003.002.012.01.016.01.005 0 .014.004.024-.002s.017-.024.032-.035c.015-.01.054-.05.07-.056a.275.275 0 0 1 .03-.01c.007-.001.024-.002.03-.005l.033-.01c.053-.012.09-.015.142-.025.008-.005.024-.01.03-.016a.175.175 0 0 1 .038-.039c.011-.008.03-.02.032-.036l.016-.1c.1-.11.144-.146.28-.163.072.014.151.008.203.109-.006.027-.033.061-.066.118-.042.013-.085.025-.125.04-.026.005-.093.005-.106.07-.002.014.027.014.034.02.003.002.008 0 .01-.001.022-.004.032-.018.044-.021.044-.01.075-.003.12.004.098-.014.169.037.254.115.009.01.029.04.027.073-.016.037-.029.076-.045.117a4.72 4.72 0 0 0-.142.167c-.022.025-.058.09-.124.101l-.102.067c-.067.024-.129.026-.18.024-.015.008-.023-.002-.031.003-.01.006-.01.01 0 .031.02.038.086.098.114.129.08.057.105.06.058.18-.03.026-.125.128-.186.134a.16.16 0 0 0-.04-.02.156.156 0 0 1-.047-.123l.044-.055c-.024-.031-.046-.06-.07-.087a1.043 1.043 0 0 0-.055-.084c-.203-.123-.348-.325-.484-.477-.076-.074-.149-.155-.223-.226a1.287 1.287 0 0 0-.108-.071.247.247 0 0 0-.202-.032c-.036.01-.11.037-.126.035-.06-.01-.158-.06-.165-.077Zm.71-.07c0-.028.04-.052.043-.054a.208.208 0 0 1 .04-.001c.047-.021.087-.066.125-.093a.518.518 0 0 1 .068-.013c-.02.055-.047.08-.119.114a1.622 1.622 0 0 0-.101.084.396.396 0 0 0-.057-.037Zm.414.421a.044.044 0 0 1-.008-.03c0-.007.002-.015.007-.02.04-.038.09-.078.13-.111l.01-.008.01-.006c.014-.002.026-.002.04-.005.001 0 .004-.002.006-.001.003.001.005.005.007.007a.19.19 0 0 1 .02.027l-.033.096c0 .003 0 .01-.005.014-.003.005-.01.007-.013.009l-.101.047-.011.007c-.006.001-.01 0-.015-.002a.151.151 0 0 1-.044-.024Zm.138.128c-.008-.01-.01-.028-.005-.034.018.004.036-.003.093-.028a.072.072 0 0 0 .025-.017.712.712 0 0 0 .018-.017c.073-.077.115-.156.2-.19.012-.005.031-.004.046-.007a.211.211 0 0 1 .047.015c.006.003.012.011.016.011a.213.213 0 0 1 .13.024c.034.018.033.043.05.075-.001.041-.028.075-.08.122a.065.065 0 0 0-.022-.015c.003-.074-.007-.056-.045-.097-.137-.032-.125-.039-.216.02-.006.004-.025.027-.033.035-.018.02-.04.03-.052.036-.041.035-.072.052-.09.098-.005.01-.016.014-.038.005-.014-.01-.032-.028-.044-.036Zm.28.111c-.012-.012.004-.025.015-.031.03-.019.047-.042.073-.066.005-.004.031.001.036-.004l.023.026c.017.018-.091.093-.102.092-.013-.004-.014-.016-.023-.021-.007-.003-.017.006-.022.004Z" clip-rule="evenodd"/><path fill="#0068AB" fill-rule="evenodd" d="M37.775 56.803a7.199 7.199 0 1 1-.002 14.397 7.199 7.199 0 0 1 .002-14.398Zm1.908 9.472.636.814a4.358 4.358 0 0 0 .394-.173l-.18-1.017c.119-.074.231-.155.337-.242l.913.485a4.37 4.37 0 0 0 .29-.318l-.577-.854c.078-.115.148-.236.21-.36l1.03.073a4.425 4.425 0 0 0 .135-.41L42 63.73c.025-.138.04-.277.047-.417l.966-.352a4.03 4.03 0 0 0-.042-.428l-1.012-.141a3.223 3.223 0 0 0-.128-.406l.735-.71a4.086 4.086 0 0 0-.213-.374l-.977.281a3.23 3.23 0 0 0-.285-.322l.38-.942a4.263 4.263 0 0 0-.346-.255l-.774.65a3.248 3.248 0 0 0-.396-.178l-.035-1.012a4.187 4.187 0 0 0-.42-.092l-.441.906a3.246 3.246 0 0 0-.438-.003l-.442-.906a4.29 4.29 0 0 0-.421.087l-.035 1.004c-.136.05-.27.109-.401.178l-.772-.648a4.272 4.272 0 0 0-.35.251l.334.823c.297.129.701.448.857.673a2.27 2.27 0 1 1 2.303 3.858l-.01 1.02Zm-3.272-3.497v4.192c0 .199.254.36.567.36.313 0 .567-.161.567-.36v-4.13c-.005-1.06-1.019-1.916-2.267-1.916-1.249 0-2.262.856-2.267 1.913v.008c0 .05 0 .05 0 0v3.8l1.133 1.134v-5.001c0-.398.508-.72 1.134-.72.626 0 1.133.322 1.133.72Zm1.703 4.399v-4.142h1.133v4.08c-.005 1.06-1.018 1.915-2.267 1.915-1.248 0-2.262-.855-2.267-1.912v-.008c0-.05 0-.05 0 0l.007-4.09 1.127.004v4.153c0 .397.507.72 1.133.72s1.134-.323 1.134-.72Z" clip-rule="evenodd"/><path fill="#0068AB" fill-rule="evenodd" d="m29.49 59.073 1.4.83-.323.584-.203-.12.2-.36-.367-.218-.144.26-.202-.12.143-.26-.418-.247-.199.36-.21-.125.323-.584Zm-.368.65 1.369.925-.131.307-1.583-.422.103-.243.34.099.102-.239-.298-.196.098-.232Zm.396.553-.076.18.65.2.006-.014-.58-.366Zm-.38.438-.038.246a.35.35 0 0 0-.187-.01c-.046.013-.076.046-.092.097a.16.16 0 0 0 .007.123c.018.037.05.063.094.077.08.027.204-.005.372-.094l.03-.017c.164-.087.286-.138.364-.153a.457.457 0 0 1 .23.016.402.402 0 0 1 .24.201c.05.099.06.201.027.308a.345.345 0 0 1-.182.22.45.45 0 0 1-.313.021l.042-.251c.07.018.123.022.16.011.036-.011.06-.038.074-.081a.13.13 0 0 0-.01-.108.158.158 0 0 0-.092-.07c-.09-.03-.23.008-.421.114l-.018.01c-.142.078-.251.123-.33.136a.501.501 0 0 1-.242-.022.394.394 0 0 1-.265-.508.391.391 0 0 1 .202-.253.485.485 0 0 1 .348-.013Zm.67 1.017.228.053-.17.774-.227-.053.057-.262-1.346-.316.056-.252 1.346.317.057-.26Zm-1.24 1.45.825.04a.407.407 0 0 1 .294.123c.068.075.1.176.094.302a.371.371 0 0 1-.125.278.423.423 0 0 1-.307.09l-.155-.008.012-.265.178.009c.055.003.098-.006.126-.027.03-.021.045-.054.047-.097.002-.044-.01-.078-.037-.102-.027-.024-.068-.037-.124-.04l-.899-.045c-.056-.002-.098.006-.128.028-.03.02-.045.053-.047.097-.002.043.01.077.038.101.027.024.068.037.124.04l.22.01-.013.265-.168-.008a.473.473 0 0 1-.322-.12.377.377 0 0 1-.1-.3c.006-.13.048-.226.127-.289.079-.063.192-.09.34-.083Zm1.16.885.015.255-.658.039.014.257.657-.038.014.257-1.611.094-.014-.257.721-.042-.014-.258-.72.042-.014-.255 1.61-.094Zm-1.527 1.136 1.597-.24.036.26-1.597.24-.036-.26Zm.052.519 1.565-.411.054.224-.857.562a1.778 1.778 0 0 1-.155.092 2.962 2.962 0 0 1 .204-.083l.89-.234.058.234-1.565.411-.057-.234.79-.532.015-.01c.054-.036.101-.066.142-.087a6.419 6.419 0 0 1-.132.056.692.692 0 0 1-.077.029l-.818.214-.057-.231Zm.206.928 1.606-.32.112.317-1.424.834-.088-.248.31-.174-.086-.244-.346.073-.084-.237Zm.656.113.065.185.604-.324-.006-.015-.663.154Zm1.418.795.132.225-1.07.671a.17.17 0 0 0-.077.092.129.129 0 0 0 .014.108c.02.034.048.054.083.06a.169.169 0 0 0 .114-.031l1.07-.672.13.225-1.032.648c-.121.076-.231.105-.331.088s-.18-.08-.244-.19a.38.38 0 0 1-.05-.314c.032-.1.11-.188.235-.266l1.026-.644Zm-.864 1.758 1.286-1.011.134.184-.577.865a1.76 1.76 0 0 1-.108.147 2.968 2.968 0 0 1 .157-.16l.732-.575.14.192-1.285 1.012-.141-.193.527-.809a1.632 1.632 0 0 1 .108-.153l-.1.105a.701.701 0 0 1-.061.058l-.673.528-.14-.19Zm.655.854 1.196-1.123.17.194-1.196 1.123-.17-.194Zm1.362-.906.175.174-.554.821a2.362 2.362 0 0 1-.213.27l-.02.022a4.222 4.222 0 0 1 .272-.253l.766-.611.176.175-1.323 1.002-.188-.186.91-1.414Zm-.395 1.924 1.033-1.285.499.43-.15.186-.307-.265-.271.337.222.19-.15.186-.221-.19-.31.383.309.265-.155.193-.5-.43Zm1.632-.504-.261.403.081.057c.048.033.09.041.129.024.038-.017.083-.066.135-.147.047-.073.07-.13.069-.171-.002-.042-.028-.08-.079-.115l-.074-.051Zm-.39.604-.379.584-.206-.143.898-1.39.303.21c.114.08.175.168.185.267.01.098-.03.218-.122.36a.695.695 0 0 1-.167.19.32.32 0 0 1-.185.06l-.265.751-.214-.148.25-.673-.099-.068Zm.339.578.225.086a.386.386 0 0 0-.046.188c.004.049.03.087.075.112.04.023.08.028.118.016a.156.156 0 0 0 .092-.081c.04-.077.034-.209-.019-.396l-.01-.033a1.62 1.62 0 0 1-.075-.4.503.503 0 0 1 .06-.23.403.403 0 0 1 .236-.206.355.355 0 0 1 .297.03c.091.053.15.128.173.227a.497.497 0 0 1-.04.322l-.23-.09a.342.342 0 0 0 .041-.16.113.113 0 0 0-.062-.091.12.12 0 0 0-.105-.011.161.161 0 0 0-.084.08c-.045.086-.036.236.028.45l.006.021c.047.159.068.279.066.36a.552.552 0 0 1-.068.243.406.406 0 0 1-.235.21c-.101.031-.2.02-.298-.036a.39.39 0 0 1-.2-.254.535.535 0 0 1 .055-.357Zm.672.839.677-1.518.23.11-.678 1.518-.23-.11Zm.816-1.178.083-.226.715.281-.083.226-.242-.095-.49 1.337-.233-.092.491-1.337-.241-.094Zm.688.037.244.066-.009.689.015.004.314-.605.244.067-.521.868-.172.671-.24-.066.163-.64-.038-1.054Zm1.862 1.71.076-.93c.004-.058-.003-.102-.022-.133a.114.114 0 0 0-.092-.051c-.042-.004-.075.008-.1.035-.023.027-.038.07-.042.127l-.076.93a.22.22 0 0 0 .021.132c.02.031.05.049.093.052.042.004.075-.008.099-.035a.218.218 0 0 0 .043-.128Zm-.434-.958a.438.438 0 0 1 .129-.3.37.37 0 0 1 .295-.087c.114.01.202.056.263.139a.46.46 0 0 1 .075.32l-.07.855a.51.51 0 0 1-.126.328.35.35 0 0 1-.293.094c-.124-.01-.215-.058-.274-.142-.058-.084-.08-.202-.069-.354l.07-.853Zm.887 1.359.023-1.672.648.01-.003.241-.4-.006-.006.439.288.004-.003.241-.288-.004-.01.75-.25-.004Zm1.463-.479.23-.071a.38.38 0 0 0 .073.178c.032.037.074.05.125.043a.15.15 0 0 0 .104-.06.164.164 0 0 0 .025-.123c-.012-.086-.093-.187-.245-.304l-.026-.02a1.537 1.537 0 0 1-.293-.273.498.498 0 0 1-.087-.22.426.426 0 0 1 .07-.312.365.365 0 0 1 .255-.16.327.327 0 0 1 .27.072.485.485 0 0 1 .156.282l-.236.071a.34.34 0 0 0-.06-.153c-.026-.029-.06-.04-.104-.033a.123.123 0 0 0-.09.056.169.169 0 0 0-.02.117c.013.096.108.21.284.341l.017.013c.129.098.216.18.261.247a.547.547 0 0 1 .087.236.427.427 0 0 1-.067.313.367.367 0 0 1-.258.157.371.371 0 0 1-.307-.078.524.524 0 0 1-.164-.319Zm.906-.142-.188-.834a.444.444 0 0 1 .032-.326.38.38 0 0 1 .255-.177.342.342 0 0 1 .292.047.45.45 0 0 1 .168.281l.035.157-.249.06-.04-.179c-.013-.056-.033-.095-.06-.118-.028-.023-.062-.03-.103-.02a.115.115 0 0 0-.084.065.216.216 0 0 0-.003.134l.205.908c.013.056.033.096.06.12.028.023.062.03.103.02.041-.01.07-.032.084-.066a.221.221 0 0 0 .003-.135l-.05-.221.249-.06.038.17a.517.517 0 0 1-.023.352.359.359 0 0 1-.25.184c-.123.03-.224.014-.304-.048-.08-.06-.136-.166-.17-.314Zm1.028.153-.477-1.596.242-.078.477 1.597-.242.077Zm.48-.167-.584-1.558.606-.244.084.225-.373.15.153.41.269-.11.084.226-.27.108.175.465.373-.15.088.234-.606.244Zm.885-.382-.762-1.472.197-.11.733.726a3.005 3.005 0 0 1 .123.133 2.958 2.958 0 0 1-.126-.185l-.434-.838.206-.114.761 1.472-.205.115-.689-.665a1.654 1.654 0 0 1-.129-.134l.085.118a.706.706 0 0 1 .045.072l.398.77-.203.112Zm.652-.856-.464-.709a.441.441 0 0 1-.082-.316.394.394 0 0 1 .177-.26.343.343 0 0 1 .288-.065.436.436 0 0 1 .254.201l.087.133-.211.149-.1-.152c-.031-.048-.063-.078-.097-.089-.034-.01-.068-.004-.103.02a.12.12 0 0 0-.056.092.214.214 0 0 0 .044.126l.505.772c.032.047.064.077.098.089.034.011.068.005.103-.02a.119.119 0 0 0 .056-.092.22.22 0 0 0-.044-.127l-.124-.188.212-.15.095.145c.079.121.113.234.1.338a.371.371 0 0 1-.17.264c-.104.074-.204.096-.3.07-.096-.028-.185-.105-.268-.231Zm1.047-.23-1.019-1.294.504-.426.147.187-.31.263.267.34.224-.19.147.187-.224.19.304.386.31-.263.154.195-.504.425Zm.814-.718-.98-1.355.225-.243 1.347.959-.177.19-.287-.212-.174.188.215.29-.17.183Zm-.19-.66.132-.142-.545-.42-.01.012.424.55Zm.856-.112-1.257-1.046.14-.18.95.37.07.03.093.042a2.876 2.876 0 0 1-.187-.118l-.715-.596.146-.188L45.8 69.44l-.146.188-.885-.333a1.56 1.56 0 0 1-.17-.071l.123.075c.033.02.055.036.069.047l.657.548-.145.186Zm.563-1.2.066-.11c.023-.039.029-.075.017-.109-.013-.033-.044-.066-.093-.098l-.66-.423c-.056-.036-.105-.049-.148-.037-.044.011-.083.047-.12.107l-.03.05.968.62Zm.071.347-1.37-.88.186-.31c.072-.121.157-.19.253-.21.096-.018.208.014.336.096l.612.393c.134.086.214.175.242.27.028.093.006.2-.066.32l-.193.322Zm-.673-1.648-.213-.097.31-.726.212.097-.104.246 1.263.576-.1.236-1.264-.577-.104.245Zm1.624-.268-1.527-.538.21-.637.22.078-.13.393.401.14.093-.282.221.077-.093.283.456.161.13-.393.229.08-.21.638Zm-.14-1.011-.806-.19a.413.413 0 0 1-.269-.173.406.406 0 0 1-.042-.315.366.366 0 0 1 .17-.251.42.42 0 0 1 .317-.033l.152.036-.057.258-.173-.04c-.054-.013-.098-.012-.13.003-.032.016-.052.045-.062.088-.01.043-.002.078.02.106.022.029.06.049.115.062l.878.206c.054.013.097.012.13-.004.033-.015.053-.044.063-.087.009-.043.002-.078-.02-.107-.023-.028-.062-.049-.116-.061l-.215-.05.057-.259.165.039a.48.48 0 0 1 .296.175.38.38 0 0 1 .05.314c-.029.127-.087.214-.175.262-.088.047-.204.054-.348.02Zm-.997-1.103.03-.254.653.08.03-.255-.654-.08.03-.257 1.601.197-.03.256-.716-.088-.03.256.717.088-.03.254-1.601-.197Zm1.687-.82-1.613.006v-.231l.962-.331a2.854 2.854 0 0 1 .172-.05c-.047.008-.09.015-.13.02a.732.732 0 0 1-.087.01l-.919.003v-.242l1.613-.006v.241l-.89.318a1.566 1.566 0 0 1-.175.055l.141-.021a.674.674 0 0 1 .082-.008l.844-.004v.24Zm-.43-1.543-.896.101c-.055.006-.096.022-.121.047-.025.026-.036.06-.032.104.005.044.022.075.052.094.03.02.073.026.129.02l.895-.102a.203.203 0 0 0 .122-.047c.026-.026.036-.06.032-.104-.005-.043-.022-.075-.053-.094-.03-.02-.073-.025-.129-.02Zm-.826.624a.404.404 0 0 1-.308-.073.398.398 0 0 1-.139-.283.373.373 0 0 1 .082-.295.426.426 0 0 1 .29-.138l.822-.093c.14-.015.252.007.336.067.083.06.131.153.144.28.014.127-.014.229-.083.305-.068.075-.176.121-.322.138l-.822.093Zm1.098-1.164-1.583.325-.047-.25 1.354-.278-.075-.393.229-.047.122.643Zm-.634-1.136-.855.292c-.053.018-.09.042-.11.072-.02.03-.023.067-.01.108.014.042.037.069.07.081.034.012.077.01.13-.009l.855-.292a.206.206 0 0 0 .11-.072c.02-.03.023-.067.01-.108-.013-.042-.036-.069-.07-.081-.034-.012-.077-.009-.13.009Zm-.682.788a.402.402 0 0 1-.316-.005.39.39 0 0 1-.192-.247.376.376 0 0 1 .02-.305.435.435 0 0 1 .256-.198l.786-.268c.134-.045.248-.048.342-.008.093.041.16.122.197.243.04.122.032.228-.02.316-.052.09-.148.157-.287.205l-.786.267Zm.486-1.18-.76.337a.402.402 0 0 1-.316.024.387.387 0 0 1-.212-.23c-.046-.11-.05-.21-.01-.297.041-.087.124-.158.249-.213l.136-.06.095.228-.157.07c-.051.022-.086.05-.103.081-.017.032-.017.069 0 .109.016.04.042.065.076.074.034.01.077.002.128-.02l.828-.368a.208.208 0 0 0 .103-.083c.017-.032.018-.068.001-.108-.016-.04-.042-.065-.076-.074-.035-.01-.078-.002-.13.02l-.231.104.06.143-.19.084-.153-.372.748-.332.047.113-.084.092a.283.283 0 0 1 .14.049.271.271 0 0 1 .089.119.323.323 0 0 1-.006.29.546.546 0 0 1-.272.22Zm-1.398-.142-.12-.23.493-.464-.008-.014-.64.175-.12-.23.969-.198.59-.328.117.227-.563.313-.718.75Z" clip-rule="evenodd"/></g><defs><filter id="a" width="154" height="157" x="0" y="0" color-interpolation-filters="sRGB" filterUnits="userSpaceOnUse"><feFlood flood-opacity="0" result="BackgroundImageFix"/><feColorMatrix in="SourceAlpha" result="hardAlpha" values="0 0 0 0 0 0 0 0 0 0 0 0 0 0 0 0 0 0 127 0"/><feOffset dy="16"/><feGaussianBlur stdDeviation="6.5"/><feColorMatrix values="0 0 0 0 0 0 0 0 0 0 0 0 0 0 0 0 0 0 0.03 0"/><feBlend in2="BackgroundImageFix" result="effect1_dropShadow_185_281"/><feBlend in="SourceGraphic" in2="effect1_dropShadow_185_281" result="shape"/></filter></defs></svg>