<svg xmlns="http://www.w3.org/2000/svg" width="154" height="157" fill="none"><g filter="url(#a)"><path fill="#fff" d="M13 0h128v128H13z"/><path fill="#0E419C" fill-rule="evenodd" d="m72.535 49.423.046-.049.05-.039.049-.028.053-.021.05-.01.052-.004.053.007.053.01.057.021.053.025.053.032.053.039.053.039.053.05.052.048.05.053.099.113.092.124.088.127.078.124.067.12.081.162.021.05.018.042.014.039.046.155.035.149.025.141.014.138.004.134-.004.13-.018.124-.024.127-.032.12-.042.124-.05.12-.056.124-.064.123-.067.127-.078.128-.08.134-.15.25-.144.255-.134.258-.127.261-.255.526-.123.261-.127.265-.11.237-.099.247-.099.25-.091.252-.1.247-.102.243-.11.237-.06.117-.063.11.081-.093.092-.078.103-.063.106-.05.109-.035.113-.025.117-.007.113.004.053.01.056.011.053.015.053.017.05.021.049.029.046.028.042.031.043.036.038.042.036.043.031.046.029.052.025.053.02.06.019.06.02.114.014.112.004.114v.112l-.01.114-.018.113-.021.11-.025.112-.032.11-.035.109-.081.215-.088.209-.096.201-.085.173-.092.177-.091.183-.1.191-.102.19-.098.195-.198.4-.096.197-.091.201-.085.201-.078.198-.07.198-.06.194-.05.194-.039.188.014-.025.018-.021.042-.043.117.04.106.049.095.06.085.067.078.077.07.082.057.091.053.096.046.102.035.106.032.113.02.117.022.12.01.123.011.128.004.13-.007.258-.018.265-.028.261-.032.255-.035.24-.021.116-.015.113-.017.106-.014.103-.014.095-.011.088-.021.247-.007.248-.004.25.007.255.014.25.022.251.024.247.029.248.035.226.042.233.05.236.042.24.018.12.014.12.01.12.004.117-.004.117-.007.116-.017.113-.025.11-.042.134-.053.116-.029.057-.031.05-.036.049-.035.042-.039.043-.039.035-.039.032-.042.028-.042.025-.043.02-.046.015-.046.01-.045.008-.046.003-.092-.007-.046-.014-.046-.014-.092-.05-.046-.031-.042-.036-.046-.042-.042-.05-.04-.053-.042-.056-.039-.064-.035-.07-.028-.06-.025-.057-.035-.116-.028-.117-.018-.116-.007-.117V68.3l.003-.116.011-.113.014-.116.018-.117.035-.233.014-.117.011-.12.007-.116.003-.12-.007-.495-.01-.487-.007-.491v-.247l.003-.248.004-.109.003-.113.014-.24.015-.25.007-.255v-.25l-.004-.124-.01-.12-.011-.117-.018-.113-.025-.11-.028-.102-.07.155-.082.16-.088.162-.092.162-.099.166-.106.163-.109.166-.113.162-.237.322-.12.155-.12.148-.124.148-.12.142-.12.134-.116.127-.028.032-.035.035-.043.036-.043.042-.098.081-.053.039-.053.035-.057.032-.056.025-.053.021-.057.01h-.053l-.052-.007-.053-.02-.022-.015-.025-.017-.028-.032-.021-.035-.01-.036-.004-.042.003-.04.007-.041.015-.046.017-.043.043-.088.05-.085.045-.077.021-.032.014-.032.082-.177.077-.18.152-.367.16-.364.08-.18.085-.173.77-1.497.381-.756.184-.382.18-.38.173-.386.17-.388.159-.389.148-.392.138-.399.13-.399.113-.402.053-.205.05-.205-.078.032-.078.038-.074.046-.078.046-.148.103-.074.05-.078.049-.077.042-.078.039-.081.032-.082.02-.088.011h-.088l-.092-.014-.05-.014-.049-.017-.05-.022-.042-.02-.08-.05-.068-.06-.053-.064-.042-.07-.032-.078-.021-.081-.01-.082v-.088l.006-.085.014-.088.021-.088.025-.089.07-.17.043-.077.385-.688.378-.693.374-.699.368-.706.067-.127.074-.138.081-.152.088-.159.173-.339.085-.176.082-.177.074-.18.067-.18.056-.18.025-.085.017-.089.018-.084.014-.085.008-.081.003-.081v-.078l-.004-.074-.01-.074-.018-.071-.032-.099-.031-.095-.036-.092-.038-.085-.078-.166-.074-.162-.036-.081-.032-.085-.028-.085-.021-.088-.021-.096-.01-.099-.008-.106v-.113l.004-.056.007-.064.02-.13.03-.13.027-.128.015-.057.014-.056.014-.046.01-.042.018-.06.007-.015v-.007Zm8.409 16.613-.088-.067-.092-.064-.194-.116-.1-.064-.095-.06-.088-.067-.085-.07-.053-.05-.046-.046-.035-.043-.028-.035-.021-.035-.018-.035-.007-.032-.004-.035.004-.036.01-.035.01-.039.019-.046.02-.046.026-.056.028-.06.032-.071.042-.102.042-.106.043-.113.039-.117.07-.24.036-.124.028-.123.025-.127.02-.124.018-.124.014-.123.008-.117v-.116l-.004-.113-.01-.106-.018-.103-.025-.095-.032-.092-.039-.081-.05-.07-.056-.064-.067-.053-.077-.046-.085-.032-.095-.017-.11-.008H79.8l-.06.004-.068.01-.063.011-.07.018-.075.017-.074.025-.081.028-.082.032-.084.035-.106.05-.11.053-.212.113-.208.12-.208.13-.205.135-.201.13-.202.135-.198.127-.095.063-.092.071-.091.074-.089.078-.17.162-.169.17-.166.162-.084.082-.085.077-.177.142-.092.063-.095.057.106-.163.099-.173.085-.18.08-.187.071-.19.068-.195.063-.198.06-.201.117-.4.06-.197.063-.194.067-.191.075-.187.08-.18.089-.17.021.043.025.045.05.1.06.105.066.106.075.103.077.095.04.039.038.039.042.032.043.028.077.042.071.028.067.022.064.01.056.004.057-.004.05-.014.045-.021.04-.028.038-.032.035-.039.032-.046.028-.05.025-.052.025-.06.02-.06.033-.131.028-.138.021-.141.014-.138.01-.137.011-.128.007-.06.007-.11.007-.045.071-.533.064-.534.134-1.066.081-.565.085-.565.088-.562.081-.565.018-.113.021-.116.057-.24.06-.251.06-.254.056-.258.022-.127.017-.124.014-.124.011-.116v-.117l-.007-.113-.01-.077-.015-.071-.021-.064-.025-.06-.028-.053-.032-.049-.035-.042-.039-.04-.042-.031-.043-.028-.05-.025-.049-.021-.053-.014-.053-.015-.056-.007-.06-.007h-.12l-.12.011-.127.021-.124.028-.124.04-.12.042-.113.046-.106.049-.099.053-.095.057-.095.06-.092.067-.092.07-.088.071-.166.155-.16.166-.147.177-.138.184-.127.183-.13.205-.131.208-.124.212-.12.215-.113.22-.113.222-.106.226-.103.226-.095.226-.095.233-.089.233-.081.233-.078.233-.074.237-.07.24-.064.237-.01-.057-.008-.06v-.12l.015-.127.02-.123.029-.128.032-.127.035-.12.032-.116.063-.237.071-.233.074-.23.078-.23.085-.225.088-.223.092-.219.099-.219.099-.212.106-.211.109-.212.113-.205.117-.205.247-.403.13-.197.131-.195.138-.19.279-.382.296-.367.308-.364.321-.353.328-.346.343-.339.35-.332.056-.05.064-.06.077-.067.082-.077.173-.166.088-.092.085-.092.077-.095.075-.095.06-.092.028-.046.025-.046.017-.046.018-.042.01-.043.008-.042v-.039l-.004-.039-.007-.035-.014-.036-.028-.049-.032-.039-.04-.035-.038-.028-.042-.022-.046-.014-.046-.007-.05-.003h-.052l-.053.007-.053.01-.057.014-.056.018-.06.021-.117.053-.116.06-.117.067-.113.068-.106.07-.187.134-.081.053-.032.025-.032.021-.226.16-.223.169-.215.176-.215.188-.209.187-.204.19-.407.385-.056.053-.064.057-.13.11-.138.116-.141.12-.142.127-.137.127-.127.13-.064.068-.056.067-.054.102-.056.103-.06.092-.064.088.043-.099.053-.095.063-.096.075-.095.077-.173.067-.18.057-.188.042-.19.018-.096.014-.095.01-.095.008-.099.003-.096v-.091l-.007-.096-.01-.091-.015-.089-.017-.088-.022-.088-.028-.081-.035-.082-.04-.077-.041-.074-.05-.071-.053-.067-.06-.064-.067-.056-.074-.053-.078-.05-.084-.042-.092-.039-.1-.032v.004h-.006l-.014-.004-.004-.003h.007l.018.003-.021-.046-.022-.035-.02-.028-.022-.018-.021-.01h-.025l-.021.003-.025.014-.021.018-.025.025-.021.028-.025.032-.02.038-.026.043-.042.092-.042.099-.039.102-.035.102-.032.1-.028.09-.015.04-.007.039-.01.032-.007.028-.007.02-.004.019-.05.183-.052.177-.064.173-.063.17-.138.335-.07.173-.068.173-.018.05-.017.06-.022.07-.02.078-.022.084-.02.096-.022.095-.022.106-.02.11-.018.11-.036.229-.02.233-.008.116-.003.117-.004.11.007.109.007.102.014.1.018.095.021.084.032.078.035.07.043.06.05.05.056.039.063.028.07.014.04.004.084-.007.046-.01.05-.011.05-.018.066-.028.067-.04.064-.042.064-.053.06-.056.06-.06.06-.067.06-.067.113-.138.11-.138.052-.067.053-.063.053-.06.05-.053.155-.16.159-.158.321-.332.163-.166.166-.163.166-.159.17-.152.331-.307.325-.318.314-.325.315-.331.056-.06.12-.142.067-.074.134-.159.149-.155.074-.074.078-.071.077-.063.078-.057.081-.05.078-.042.081-.032.082-.017.007.039v.035l-.004.042-.01.04-.015.042-.017.042-.022.042-.024.046-.06.088-.071.092-.078.092-.084.088-.092.092-.092.088-.092.085-.092.081-.084.075-.078.07-.07.067-.057.057-.31.332-.305.342-.297.346-.289.346-.138.17-.134.173-.13.18-.128.18-.25.371-.237.385-.226.389-.215.395-.202.4-.187.398-.184.417-.084.205-.078.205-.078.208-.07.205-.068.208-.063.209-.064.208-.056.208-.103.427-.091.438-.043.223-.039.226-.042.233-.053.244-.053.247-.056.254-.05.251-.018.127-.017.124-.014.123-.01.124-.004.116v.117l.007.078.02.084.033.096.038.102.05.103.056.102.067.102.071.1.078.087.081.078.042.036.043.031.046.029.046.02.045.022.046.014.046.007.046.004.05-.004.046-.007.049-.017.046-.022.05-.035.035-.042.032-.053.02-.057.015-.067.01-.067.004-.074v-.078l-.007-.155-.01-.152-.004-.074-.004-.071v-.064l.004-.056.014-.11.021-.109.021-.106.028-.106.057-.208.053-.212.067-.286.18-.858.067-.283.071-.282.081-.283.046-.141.05-.138.091-.247.1-.244.102-.24.11-.24.112-.233.117-.237.123-.23.127-.229.127-.23.135-.222.275-.448.29-.438.296-.431.071-.096.078-.098.081-.092.088-.089.085-.08.088-.071.043-.029.038-.028.043-.021.039-.018.039-.014.035-.007.035-.003.036.003.028.01.028.015.028.021.021.032.022.035.014.042.014.053.01.06.004.071.004.078-.004.088-.007.096-.028.236-.039.237-.046.236-.05.233-.053.233-.052.233-.046.237-.043.24-.032.251-.024.25-.036.506-.042.755-.021.251-.01.113-.008.117-.003.123-.007.127-.01.262-.015.268-.025.265-.014.13-.021.124-.021.124-.029.117-.031.109-.04.102-.045-.035-.043-.035-.074-.074-.06-.075-.053-.074-.038-.077-.029-.078-.018-.078-.007-.081-.003-.078.007-.08.01-.082.022-.081.021-.085.028-.085.032-.081.035-.085.075-.173.148-.346.032-.088.031-.089.025-.088.021-.088.014-.088.008-.089.003-.091-.007-.089-.014-.088-.025-.088-.02-.053-.036-.057-.043-.063-.053-.068-.063-.07-.067-.07-.07-.071-.075-.071-.078-.067-.078-.064-.077-.056-.078-.053-.07-.043-.067-.035-.064-.025-.053-.01-.05-.004h-.05l-.09.014-.043.015-.043.017-.077.042-.071.053-.067.064-.06.074-.053.081-.046.085-.042.088-.04.092-.031.096-.025.092-.02.088-.019.085-.01.08-.007.1-.007.099v.102l.007.106.007.106.01.106.032.212.043.212.046.208.049.201.053.194.028.103.022.092.017.084.014.082.01.074.004.074.004.067-.004.067-.007.07-.014.068-.014.07-.021.075-.025.077-.028.085-.032.088-.039.1-.155.384-.16.378-.165.374-.17.375-.346.745-.173.374-.17.378-.2.456-.209.452-.219.445-.113.222-.12.22-.05.084-.056.092-.06.095-.067.099-.13.205-.068.11-.063.105-.06.11-.057.11-.046.109-.042.11-.028.109-.022.106-.007.102.004.053.003.05.014.088.022.078.02.066.03.053.027.043.032.032.035.024.04.015.038.007.04-.004.041-.01.043-.015.046-.02.046-.03.045-.03.092-.079.05-.045.088-.096.088-.102.081-.106.075-.103.063-.095.028-.042.025-.04.021-.035.018-.031.124-.226.13-.223.135-.219.137-.219.145-.215.148-.209.156-.208.159-.205.29-.35.3-.338.314-.332.159-.16.166-.158.166-.156.17-.148.345-.29.177-.134.18-.134.184-.127.183-.12.092-.06.095-.064.106-.074.11-.07.113-.071.11-.067.109-.06.11-.05.049-.017.05-.014.049-.011.046-.007h.042l.039.003.039.011.035.018.032.02.028.033.021.035.021.046.015.053.01.063.007.071v.081l-.007.12-.014.117-.025.116-.028.117-.032.113-.039.11-.042.113-.046.109-.095.215-.198.431-.042.106-.043.11-.05-.022-.049-.024-.113-.05-.123-.046-.131-.046-.138-.042-.14-.035-.146-.032-.141-.018-.145-.01h-.067l-.067.003-.067.007-.064.01-.063.019-.06.017-.057.025-.053.032-.05.032-.049.042-.042.042-.039.053-.035.057-.028.063-.022.057-.014.06-.01.06-.004.06v.063l.004.064.007.064.014.063.014.064.021.063.05.127.063.128.074.123.082.12.091.113.096.106.099.1.102.084.106.078.05.031.052.029.05.028.05.021.063.025.113.035.056.007.05.007h.05l.049-.003.046-.01.045-.015.046-.018.05-.02.046-.033.05-.031.049-.04.049-.042.053-.05.028-.027.029-.04.031-.042.032-.049.032-.053.035-.053.067-.11.036-.052.035-.05.035-.046.036-.042.035-.035.035-.025.035-.018.036-.007.028.004.035.017.036.025.042.032.043.039.045.046.092.098.092.106.046.05.042.05.036.042.035.038.056.057.166.13.089.06.088.057.092.053.095.046.096.043.099.035.088.028.077.018.067.01.06.007h.053l.043-.007.039-.014.028-.017.025-.022.014-.028.01-.032.007-.035-.007-.078-.01-.046-.014-.046-.022-.046-.02-.049-.057-.102-.064-.106-.074-.103-.078-.095-.08-.092-.078-.081-.04-.035-.038-.032Zm-3.634-6.947-.025-.024-.025-.029-.02-.035-.054-.127-.028-.092-.021-.085-.007-.039-.007-.035-.004-.028-.004-.021-.003-.014v-.004l.039-.018.032-.014.031-.01.057-.007h.025l.038.01.032.025.025.032.018.039.01.045v.053l-.003.057-.007.056-.015.057-.014.06-.02.053-.025.05-.025.045Zm1.709 6.4-.021.052-.028.05-.04.046-.045.046-.05.038-.056.032-.057.028-.06.018-.063.007-.06-.003-.06-.018-.032-.014-.028-.014-.029-.021-.028-.025-.025-.028-.024-.032-.021-.039-.022-.042-.02-.046-.019-.05-.014-.053-.01-.046-.007-.038v-.04l.003-.028.007-.028.01-.021.015-.018.018-.014.021-.007.025-.007.024-.003.06.003.067.014.071.021.155.064.075.035.074.04.07.034.064.036.057.028.003.042ZM88.442 57.79l-.021-.014-.025-.011-.004.014-.003.01h.053Zm2.076-3.013-.459.293-.23.149-.222.148-.222.155-.22.16-.215.162-.212.173-.056.053-.053.056-.046.057-.042.063-.036.067-.031.067-.029.068-.024.07-.022.075-.017.07-.022.148-.013.145-.004.145.007.138.01.127.008.06.007.056.007.053.01.05.014.085.011.031.007.032.007.025.004.017.003.011.004.004h-.004l-.003-.004-.018-.007-.021-.01v-.004l-.056-.021-.047-.014-.038-.007-.036.003-.024.01-.018.018-.014.025-.01.032-.004.035.007.088.01.05.014.053.018.056.04.12.049.128.052.127.057.123.053.12.028.057.021.053.021.05.022.045.017.04.01.034.011.029.008.024.007.046.007.05.003.113-.007.25-.007.138-.007.141-.007.145v.142l.007.137.018.135.024.127.018.06.021.056.025.053.028.05.032.045.039.043.042.039.05.031.053.029.056.024.05.011.042.003.042-.003.043-.014.039-.021.035-.025.032-.035.031-.04.029-.042.028-.053.025-.052.021-.057.021-.064.018-.063.031-.138.025-.145.018-.145.014-.148.007-.275-.003-.06-.004-.06-.004-.057-.003-.05-.007-.045-.007-.043-.014-.06-.018-.06-.046-.12-.06-.113-.067-.11-.074-.109-.078-.11-.162-.211-.078-.106-.074-.11-.067-.109-.057-.11-.025-.06-.017-.056-.018-.056-.014-.06-.01-.06-.004-.064v-.064l.003-.063.008-.05.01-.05.035-.094.043-.096.056-.092.067-.088.075-.088.08-.085.086-.081.091-.081.092-.078.184-.152.092-.074.088-.074.081-.067.078-.071.173-.159.177-.159.18-.159.183-.155.187-.156.191-.144.194-.142.195-.13.031-.021.036-.025.042-.028.043-.029.098-.067.106-.07.117-.075.123-.074.124-.07.127-.064.124-.06.116-.046.057-.018.056-.014.1-.014h.045l.042.004.04.01.031.018.032.025.025.028.017.039.014.042.007.053-.003.06-.01.067-.018.07-.022.075-.031.078-.032.078-.035.077-.078.16-.035.077-.04.07-.034.07-.029.065-.028.056-.021.05-.043.12-.038.123-.036.124-.032.123-.063.248-.032.123-.18.632-.141.512-.064.255-.064.258-.06.257-.053.258-.035-.085-.084-.176-.05-.088-.053-.089-.056-.088-.124-.177-.134-.173-.141-.159-.075-.074-.074-.07-.074-.067-.078-.064-.091-.067-.1-.057-.098-.05-.099-.038-.099-.025-.099-.017h-.092l-.084.01-.043.007-.039.014-.035.018-.035.021-.032.029-.028.028-.025.032-.021.038-.021.04-.015.045-.014.053-.007.053-.003.06v.064l.003.067.01.074.026.11.035.105.046.106.053.103.06.099.063.099.276.381.063.095.06.096.053.095.046.095.036.1.024.098.007.039v.042l-.007.089-.02.091-.036.096-.042.099-.053.099-.057.102-.064.102-.13.209-.064.102-.06.1-.053.098-.05.095-.038.092-.028.088.074-.035.067-.042.063-.046.06-.05.057-.056.05-.057.098-.12.096-.123.092-.124.049-.056.053-.057.053-.05.056-.045.05-.032.046-.028.046-.014.042-.011.042-.004.04.004.038.01.036.018.035.021.032.025.031.032.032.035.032.04.028.041.06.089.06.099.06.102.064.102.067.1.07.091.078.085.043.035.042.032.046.028.05.025.08.032.075.02.06.008.05-.007.041-.014.032-.025.029-.035.02-.039.015-.053.01-.053.008-.064.007-.067.007-.148.01-.155.01-.138.019-.141.038-.272.05-.272.056-.272.06-.31.05-.315.092-.629.05-.314.055-.31.032-.156.036-.156.084-.303.089-.269.091-.272.1-.268.102-.268.198-.537.088-.272.081-.272.021-.081.014-.078.011-.07.007-.068v-.063l-.003-.057-.007-.053-.011-.05-.018-.045-.021-.039-.021-.035-.028-.032-.032-.032-.032-.025-.039-.017-.039-.018-.088-.028-.102-.011h-.11l-.116.01-.124.018-.134.032-.134.035-.142.046-.144.05-.145.056-.148.06-.145.064-.145.067-.141.067-.138.067-.134.071-.127.067-.12.067-.113.06-.106.06-.092.053-.081.05-.071.042-.032.018-.025.017Zm-.233 3.083.05.01.046.019.042.024.042.029.036.031.035.036.06.084.05.092.038.1.029.102.014.095.046.035-.046-.014-.05-.021-.05-.025-.045-.032-.05-.035-.042-.039-.042-.046-.04-.046-.034-.046-.032-.053-.028-.049-.018-.053-.014-.05-.007-.052v-.05l.01-.046Zm-2.37 5.439.011.053.014.046.022.046.01.02.018.022.303-.106.304-.11.6-.233.594-.247.597-.247.597-.244.3-.116.607-.219.304-.099.31-.095.311-.085.089-.025.081-.021.074-.021.07-.021.064-.018.12-.028.057-.007.06-.004.056.004.06.003.064.014.067.018.07.028.078.032.085.042.138.075.067.035.067.039.06.039.053.038.046.04.039.042.028.042.018.046.003.046v.025l-.007.024-.01.025-.014.025-.018.028-.025.025-.025.028-.031.028-.036.032-.042.028-.06.04-.067.035-.071.031-.074.025-.155.05-.332.084-.163.046-.155.053-.074.028-.068.036-.134.077-.138.081-.134.082-.137.08-.138.075-.145.067-.074.028-.074.025-.074.021-.078.018.028-.06.032-.06.035-.057.043-.052.042-.05.05-.05.102-.091.106-.089.113-.08.11-.082.105-.078-.11-.007-.112.004-.12.01-.124.018-.127.021-.127.032-.134.032-.13.039-.262.08-.127.043-.124.046-.12.043-.117.042-.11.042-.102.04-.14.056-.135.063-.13.064-.128.07-.123.078-.12.078-.117.085-.11.084-.113.092-.106.092-.211.198-.209.208-.208.219-.088.092-.089.092-.08.08-.086.075-.08.067-.082.057-.081.046-.04.017-.038.014-.043.011-.038.007-.04.004h-.041l-.04-.004-.042-.01-.042-.015-.042-.017-.043-.025-.042-.028-.043-.032-.042-.039-.046-.046-.046-.05-.045-.056-.047-.063-.07-.096-.07-.102-.068-.113-.06-.117-.028-.06-.021-.063-.018-.06-.01-.064-.008-.063v-.064l.007-.06.014-.064.015-.038.014-.032.032-.06.038-.046.043-.035.05-.029.049-.021.052-.018.053-.01.11-.021.053-.011.053-.014.05-.021.045-.025.043-.035.038-.046.007.014ZM101.311 62.836l.084-.099.089-.095.183-.18.191-.173.198-.159.197-.156.396-.303.194-.156.184-.155.177-.166.165-.173.078-.092.074-.095.071-.096.067-.102.06-.11.057-.109.053-.116.046-.12.038-.128.036-.134.049-.24.046-.244.035-.247.032-.247.025-.247.021-.247.018-.251.014-.25.021-.502.014-.498.018-.498.025-.491.021-.258.032-.265.035-.265.032-.268.028-.268.011-.135.01-.134.004-.13-.004-.131-.007-.131-.011-.127-.007-.039-.014-.046-.017-.053-.018-.06-.025-.06-.021-.063-.046-.135-.042-.13-.014-.064-.011-.06-.007-.056v-.05l.011-.046.014-.035.035-.046.042-.035.05-.028.053-.015.06-.01h.06l.067.007.064.014.067.017.063.022.064.024.063.029.057.032.053.028.049.032.039.028.046.039.035.038.036.043.028.042.025.05.017.046.014.053.011.05.007.055.004.057v.113l-.015.12-.021.124-.028.123-.032.127-.07.251-.032.124-.028.116-.025.117-.014.11-.053.53-.025.264-.021.265-.018.268-.01.265-.004.265.004.261.007.216v.427l-.007.212-.011.212-.014.212-.018.212-.021.212-.025.208-.031.212-.032.208-.039.209-.042.211-.046.209-.05.208-.056.209.409-.29.216-.145.226-.148.116-.078.124-.078.127-.08.131-.086.137-.084.142-.092.148-.092.155-.095-.049-.046-.057-.043-.06-.038-.067-.04-.141-.074-.145-.07-.134-.078-.064-.042-.053-.046-.049-.05-.042-.053-.029-.06-.021-.063.106.01.106.004h.106l.106-.004.212-.017.212-.021.212-.029.212-.024.211-.021.209-.011h.212l.063.003.057.004.053.004.049.006.043.008.042.007.035.01.032.01.032.011.025.011.021.014.035.025.021.032.011.035v.035l-.011.04-.021.038-.028.042-.036.043-.045.046-.05.042-.053.046-.06.046-.06.046-.268.176-.135.081-.063.036-.06.035-.06.032-.05.032-.049.024-.039.025-.078.046-.081.046-.173.099-.184.102-.187.11-.194.113-.198.12-.197.123-.195.128-.187.134-.176.137-.17.145-.077.07-.078.075-.071.074-.067.078-.12.155-.049.078-.046.081-.043.081-.032.082-.074.222-.067.226-.06.226-.06.23-.06.226-.063.226-.075.226-.042.11-.046.109-.095.219-.099.219-.106.215-.11.216-.226.423-.233.42-.063.11-.06.106-.064.102-.06.1-.067.091-.064.085-.07.081-.075.074-.077.067-.081.057-.089.053-.095.042-.103.036-.113.024-.12.014-.127.004h-.116l-.05.004h-.106l-.12.003h-.127l-.134-.004-.134-.007-.131-.014-.13-.017-.117-.029-.056-.017-.053-.018-.046-.021-.046-.025-.039-.025-.032-.028-.028-.032-.025-.035-.014-.039-.011-.042-.003-.046.007-.05.18-.035.17-.039.169-.046.163-.049.155-.053.152-.06.148-.067.141-.074.138-.082.134-.084.134-.096.127-.102.124-.113.12-.12.12-.13.117-.138.099-.131.099-.134.091-.142.092-.144.089-.152.088-.156.081-.159.078-.158.07-.163.071-.166.064-.162.06-.166.056-.163.05-.166.042-.159.039-.159-.113.06-.117.068-.116.07-.124.078-.124.084-.12.085-.123.092-.117.095-.116.096-.113.102-.11.103-.102.106-.092.106-.088.109-.078.106-.067.11-.028.052-.029.06-.028.064-.028.067-.028.064-.032.063-.036.06-.035.053-.042.046-.043.035-.049.029-.025.007-.028.007h-.028l-.032-.004-.032-.007-.032-.01-.035-.014-.039-.022-.038-.024-.039-.032-.043-.043-.039-.056-.031-.063-.029-.075-.024-.078-.014-.08-.011-.085v-.085l.007-.078.014-.074.028-.067.036-.057.021-.024.021-.022.028-.017.032-.014.032-.01.035-.004h.039l.042.003.004.004.007.014.011.01.014.014.021.015.025.017Zm8.2 2.243-.035.046-.036.042-.035.039-.042.035-.039.028-.043.029-.091.046-.096.032-.106.024-.106.014-.113.01-.12.008-.123.007-.127.004-.131.007-.134.01-.138.014-.141.022-.145.031-.127.036-.12.038-.113.036-.11.039-.102.035-.099.032-.096.024-.095.018-.088.004-.092-.008-.042-.007-.046-.01-.043-.018-.046-.021-.042-.025-.046-.028-.046-.035-.046-.04-.046-.045-.046-.05-.046-.056-.049-.064-.067-.095-.057-.099-.049-.102-.042-.106-.039-.106-.032-.11-.057-.222-.049-.226-.053-.226-.028-.113-.032-.113-.039-.11-.042-.109-.198-.438-.205-.43-.416-.863-.018-.038-.025-.043-.024-.05-.029-.049-.049-.105-.021-.057-.018-.05-.011-.049-.003-.046.003-.042.018-.032.025-.025.021-.01.021-.007.025-.007h.063l.039.003.043.01.046.022.046.028.045.036.046.042.046.046.043.053.046.053.081.113.077.11.032.049.032.045.025.043.024.035.138.205.131.205.134.205.268.402.145.194.155.191.163.184.148.148.156.145.166.138.173.13.18.124.184.106.095.05.095.045.096.043.095.035.116.035.117.025.117.014.116.007.226.007.11.004.109.007.103.01.102.018.099.028.046.022.046.02.042.025.046.032.039.036.042.038.039.043.035.05.036.052.035.06v.004ZM119.326 52.063h.049l.05.007.046.018.049.025.046.035.043.039.042.046.039.05.035.052.035.057.029.056.024.057.022.056.017.057.011.05.007.049v.063l-.007.064-.014.06-.018.056-.021.06-.028.053-.032.053-.036.053-.077.103-.081.092-.085.091-.081.085-.177.19-.173.191-.339.396-.336.395-.321.4-.007-.04-.007-.038v-.042l.007-.046.007-.046.011-.05.031-.102.043-.106.053-.113.06-.113.067-.117.138-.226.07-.11.067-.105.064-.102.06-.092.049-.081.039-.075.014-.028.014-.032.018-.039.014-.038.018-.046.018-.05.038-.106.043-.113.042-.12.092-.25.046-.12.046-.117.046-.106.024-.05.022-.045.024-.043.022-.039.021-.031.021-.029.021-.025.018-.02.021-.011.018-.007-.131.01Zm-1.579 6.558-.042.191-.035.19-.032.195-.028.194-.021.195-.018.194-.007.194v.223l.003.035.011.078.011.088.014.095.014.102.01.103.007.106.004.102v.096l-.014.088-.021.078-.014.031-.018.029-.021.028-.025.021-.028.014-.036.01-.035.008h-.042l-.046-.007-.05-.014-.074-.029-.067-.038-.053-.05-.046-.053-.039-.063-.028-.068-.018-.074-.014-.077-.007-.085v-.088l.007-.092.014-.096.018-.098.021-.1.025-.102.032-.102.067-.205.081-.205.085-.194.085-.184.042-.084.042-.082.043-.077.039-.071.035-.063.035-.057.029-.05.028-.042.077-.138Zm1.438-3.965.053.01.053.014.06.022.06.024.06.028.06.032.056.035.053.04.046.045.043.046.031.046.025.053.014.053.004.056-.004.029-.007.028-.01.032-.015.028-.028.05-.025.038-.028.04-.025.03-.028.026-.028.024-.028.018-.025.014-.056.021-.054.011-.056.003h-.053l-.049-.003-.053.003-.05.007-.046.015-.024.01-.022.018-.021.017-.021.025-.021.025-.018.032-.021.039-.018.042.004-.057v-.063l-.004-.07-.003-.078-.007-.082-.004-.084-.003-.085v-.085l.003-.081.007-.085.014-.074.025-.074.028-.064.043-.06.049-.046.064-.038Zm6.907 1.705-.176.018-.177.025-.18.028-.176.032-.357.07-.357.085-.356.088-.35.096-.346.095-.343.092.018-.12.021-.12.028-.12.071-.24.042-.12.089-.24.099-.237.102-.237.102-.23.096-.226.215-.501.23-.498.24-.49.254-.488.05-.092.056-.099.057-.106.06-.113.056-.113.053-.116.043-.114.035-.112.01-.057.011-.056.007-.103-.003-.05-.007-.049-.015-.046-.017-.042-.025-.039-.032-.039-.035-.035-.046-.032-.049-.028-.06-.025-.064-.018-.074-.017-.039-.004-.046-.003h-.046l-.056.003-.057.007-.06.011-.131.025-.141.035-.145.042-.148.05-.148.056-.145.064-.138.067-.127.07-.06.036-.057.039-.049.035-.05.039-.042.039-.035.039-.032.038-.025.04-.017.038-.011.039.049.007.05.004.049-.004.05-.007.053-.01.049-.015.106-.035.106-.046.106-.056.212-.12.106-.064.102-.057.103-.053.099-.042.099-.035.045-.01.046-.008.046-.007.089.007.042.01.039.018.032.022.024.024.022.032.014.035.01.043.004.042v.05l-.004.049-.007.053-.014.056-.014.06-.039.124-.049.127-.053.131-.12.254-.117.233-.053.1-.021.045-.021.043-.018.038-.014.032-.173.42-.166.428-.329.861-.169.428-.177.427-.183.42-.195.41-.024.046-.025.053-.057.102-.028.05-.032.046-.031.042-.032.035-.036.029-.035.017-.039.007-.035-.003-.021-.007-.018-.011-.021-.014-.018-.018-.021-.02-.018-.03-.021-.031-.021-.035-.028-.057-.018-.05-.007-.042v-.038l.007-.036.014-.032.018-.031.053-.053.032-.025.07-.05.078-.056.039-.032.035-.035.05-.053.046-.053.038-.05.032-.049.028-.046.025-.046.018-.046.014-.046.011-.042.007-.046v-.085l-.007-.084-.018-.085-.025-.081-.028-.089-.028-.084-.029-.092-.028-.096-.021-.095-.014-.106-.004-.11.004-.035.003-.042.004-.043.007-.045.021-.103.025-.116.025-.12.028-.128.025-.13.024-.13.021-.131.015-.127.007-.124v-.113l-.014-.106-.011-.05-.014-.042-.018-.042-.021-.036-.025-.035-.028-.028-.032-.025-.056-.035-.025-.01-.053-.015-.046-.003-.046.01-.039.018-.038.025-.039.031-.075.074-.07.078-.039.035-.039.032-.042.029-.046.017-.035.007-.039.004h-.043l-.049-.007-.106-.018-.109-.028-.11-.032-.053-.021-.049-.018-.046-.017-.039-.022-.035-.014-.029-.018.05-.074.053-.074.06-.077.067-.078.145-.16.159-.151.162-.152.166-.138.078-.063.081-.06.074-.057.074-.053.039-.021.042-.021.092-.039.096-.039.045-.021.043-.025.035-.024.032-.032.028-.032.014-.039.007-.046v-.053l-.017-.056-.011-.032-.017-.035-.018-.032-.018-.028-.017-.025-.018-.021-.032-.032-.035-.021-.032-.007h-.032l-.032.007-.031.017-.029.022-.031.024-.053.06-.053.057-.025.028-.025.021-.134.127-.138.138-.134.138-.138.145-.275.286-.134.138-.138.134-.067.063-.056.05-.05.042-.042.032-.039.021-.035.014-.032.01h-.064l-.035-.003-.039-.007-.046-.01-.049-.007-.06-.008-.071-.003-.081-.004-.103.004-.095.018-.092.024-.085.04-.042.024-.035.028-.036.032-.031.035-.029.039-.024.042-.025.046-.018.053.071.018.074.014.155.028.156.029.078.017.07.025-.028.042-.035.043-.075.078-.084.07-.082.07-.074.075-.035.042-.028.04-.022.042-.017.046-.011.049-.003.053.063-.01.06-.018.057-.022.049-.028.05-.032.046-.035.088-.078.085-.077.088-.078.046-.035.046-.032.049-.028.053-.025.036-.01.038-.011.046-.004.046-.003.099.003.103.01.102.018.099.022.049.014.043.01.039.015.035.01-.018.081-.028.085-.035.085-.046.084-.05.089-.056.088-.06.088-.202.255-.07.08-.071.079-.067.074-.127.134-.06.06-.042-.042-.046-.032-.046-.021-.046-.008h-.05l-.046.011-.053.021-.049.029-.049.035-.053.042-.053.05-.05.053-.053.06-.053.063-.053.067-.049.071-.103.145-.099.152-.095.148-.088.145-.043.067-.042.063-.039.06-.039.053-.035.05-.032.042-.032.036-.028.028-.046-.035-.042-.032-.039-.028-.039-.022-.074-.039-.067-.028-.057-.014-.053-.003-.045.007-.039.017-.036.021-.024.032-.022.039-.017.042-.011.046-.003.053v.053l.003.057.011.06.014.056.018.06.024.057.025.053.032.053.035.046.039.042.042.039.043.032.049.021.05.014.053.007.056-.003.06-.014.06-.029.046-.028.042-.028.043-.04.039-.038.039-.042.038-.046.071-.103.064-.113.06-.12.06-.13.053-.131.102-.265.05-.134.049-.124.053-.12.049-.113.078-.145.028-.042.036.014.031.01.029.018.024.014.039.04.025.038.014.046.007.05-.007.052-.014.057-.025.056-.032.064-.035.064-.042.067-.05.07-.049.068-.113.144-.113.149-.113.144-.053.075-.053.07-.046.07-.042.072-.036.067-.028.067-.021.06-.014.063-.004.057.007.053.018.053.028.046.099-.053.092-.06.081-.075.078-.077.07-.085.064-.092.064-.095.06-.099.116-.198.064-.095.06-.092.067-.088.071-.085.077-.074.085-.067.081.081.074.088.075.099.067.103.127.208.06.102.056.1-.095.024-.099.014-.198.021-.102.01-.099.019-.099.02-.046.018-.049.018.049.014.05.007.106.01h.106l.211-.006h.103l.099.01.049.007.046.015.05.017.046.021.084.046.078.05.039.024.039.018.035.018.039.014.042.003h.042l.046-.007.05-.017.053-.029.056-.038.021.028.018.028.007.028.004.025-.004.025-.007.024-.035.05-.028.021-.029.025-.039.021-.038.021-.046.021-.05.022-.053.024-.056.021-.127.043-.138.05-.152.045-.162.053-.17.057-.176.06-.184.063-.187.07-.092.036-.095.04-.099.038-.103.039-.215.081-.23.081-.233.078-.236.078-.241.074-.233.063-.014-.197-.014-.191-.014-.184-.018-.173-.017-.17-.018-.162-.018-.152-.017-.148-.022-.141-.017-.13-.021-.128-.022-.12-.017-.113-.021-.106-.018-.102-.021-.092-.018-.089-.018-.08-.017-.075-.018-.07-.014-.064-.018-.057-.014-.053-.014-.042-.011-.042-.01-.036-.011-.028-.007-.021-.007-.018-.003-.014-.004-.007v-.004l-.025.018-.024.025-.022.032-.017.035-.018.046-.014.05-.014.052-.011.06-.007.064-.007.067-.007.145-.003.155v.163l.007.325.007.158.007.152.003.071.004.067.003.06v.06l.004.053v.095l-.004.036-.003.074.003.07.011.135.018.123.028.12.032.12.028.12.028.128.021.138.004.052-.004.053-.007.057-.007.053-.018.11-.007.052-.003.05.003.05.007.042.015.042.028.039.035.032.046.028.028.01.032.011.039.007.039.007.042.004h.043l.045-.007.053-.011.05-.01.056-.018.113-.043.124-.056.127-.064.127-.07.131-.075.131-.08.127-.078.123-.082.121-.074.109-.07.102-.068.092-.053.039-.024.039-.021.219-.113.222-.11.23-.106.233-.102.237-.096.24-.091.243-.085.244-.078.014.11.018.099.018.088.024.078.025.063.028.05.028.038.036.025.039.01.017.004.021-.003.022-.007.024-.011.021-.014.025-.018.029-.021.024-.025.028-.028.029-.032.028-.035.063-.085.032-.05.057-.084.056-.074.053-.067.05-.064.053-.053.053-.05.053-.042.053-.038.06-.036.063-.035.064-.032.074-.028.078-.032.084-.028.092-.032.445-.138.339-.099.343-.091.173-.04.173-.038.074-.018.081-.017.082-.022.088-.02.184-.043.19-.043.187-.035.092-.014.088-.01.085-.004.085-.004.078.007.07.011-.017.064-.025.063-.028.06-.039.06-.043.057-.045.053-.053.056-.057.05-.06.049-.063.05-.138.091-.148.085-.159.081-.163.075-.166.067-.166.063-.162.057-.156.053-.148.05-.071.02-.063.021-.064.022-.06.017-.304.1-.307.095-.611.187-.304.095-.607.205-.357.134-.056.025-.064.028-.067.028-.144.064-.152.07-.163.082-.162.088-.166.092-.163.099-.155.106-.148.11-.068.056-.067.056-.063.057-.06.06-.053.06-.05.06-.042.06-.039.06-.032.06-.024.063-.022.06-.01.064-.007.095.007.082.017.067.029.06.039.046.049.038.057.029.067.018.07.01.082.004.084-.004.089-.01.095-.015.099-.02.099-.026.102-.028.212-.067.208-.078.205-.077.099-.04.095-.035.089-.038.084-.032.082-.032.07-.025.067-.024.057-.018.049-.01.039-.008-.053.082-.06.08-.127.156-.138.148-.141.149-.138.148-.134.155-.063.078-.057.081-.056.085-.05.089-.032.063-.021.053-.017.046-.015.042-.007.032-.01.032-.007.025-.007.02-.015.022-.017.021-.021.018-.032.017-.039.022-.053.02-.063.03-.036.013-.042.014-.431.156-.216.074-.215.081-.215.092-.209.092-1.042.494-.212.092-.084.039-.085.039-.18.092-.184.098-.187.103-.187.095-.092.046-.095.039-.092.039-.088.032-.089.028-.088.021-.046.007h-.053l-.053-.003-.06-.008-.12-.017-.12-.014-.056-.004-.053.004-.05.007-.046.014-.039.021-.031.032-.022.042-.014.053v.035l.011.04.014.042.025.046.028.046.032.05.039.048.038.05.085.099.081.088.036.039.035.035.028.032.025.025.081.088.082.074.081.064.081.053.078.039.081.031.078.018.081.014h.085l.084-.003.089-.014.091-.022.092-.028.099-.032.102-.042.106-.043.223-.102.215-.11.209-.116.409-.254.403-.261.205-.131.074-.046.081-.046.088-.053.092-.053.099-.053.103-.056.215-.11.223-.102.109-.05.11-.046.109-.038.106-.036.102-.028.096-.025.042.276.035.279.05.579.021.29.021.285.025.283.028.275.018.156.014.148.011.141.003.131v.124l-.01.113-.022.102-.028.095-.021.043-.025.039-.028.038-.028.032-.036.032-.038.028-.092.05-.053.017-.057.018-.063.01-.067.011-.071.007h-.163l-.091-.003-.117-.01-.113-.015-.233-.042-.23-.057-.226-.063-.226-.075-.222-.08-.219-.082-.216-.081-.098-.043-.106-.045-.106-.05-.11-.056-.219-.114-.226-.12-.222-.112-.113-.05-.106-.05-.106-.042-.102-.039-.103-.031-.095-.022.014.05.021.05.025.049.07.099.046.053.046.049.053.053.057.05.06.052.13.103.142.099.148.095.152.095.152.089.151.08.149.079.137.07.128.06.056.028.057.025.049.022.046.02.127.054.131.049.272.099.279.088.286.082.286.077.286.067.283.06.275.05.117.017.106.007.095.004.092-.004.081-.007.074-.014.064-.021.06-.025.053-.031.045-.036.043-.039.032-.045.031-.05.025-.053.018-.053.014-.06.01-.064.008-.067.003-.14-.007-.15-.018-.155-.021-.166-.028-.166-.028-.169-.025-.17-.05-.342-.056-.346-.053-.346-.053-.35-.042-.35-.018-.173-.014-.176-.011-.173-.007-.177-.003-.173.003-.176.12-.04.127-.045.135-.053.134-.057.282-.12.141-.056.145-.057.142-.053.141-.046.141-.035.138-.028.131-.018.067-.003h.063l.064.007.06.007.06.01.056.018.039.014.046.014.046.018.053.017.057.018.06.021.123.04.134.038.138.032.138.025.067.007.134.007.064-.004.06-.007.056-.014.057-.018.049-.02.046-.029.043-.035.035-.043.032-.046.028-.056.018-.064.01-.074.007-.081-.003-.088-.011-.1-.018-.098-.021-.092-.024-.085-.032-.074-.032-.067-.035-.064-.043-.052-.042-.047-.046-.042-.046-.035-.053-.032-.053-.025-.113-.035-.06-.01-.06-.008-.124-.007-.13.007-.131.015-.131.02-.261.05-.124.021-.12.018-.067.01-.063.008-.057.007-.053.007-.099.017-.049.011-.053.01-.06.015-.064.017-.07.018-.082.021-.091.029-.106.028-.057.014-.064.017-.063.018-.071.021-.123.036-.117.035-.24.074-.12.039-.131.046-.134.046-.148.053.007-.064.018-.063.024-.057.039-.053.043-.05.053-.049.06-.042.063-.046.071-.039.077-.042.078-.035.081-.04.17-.074.339-.155.155-.085.071-.046.067-.049.064-.05.052-.053.05-.06.039-.06.032-.067.021-.07.007-.078v-.078l-.014-.088-.025-.092-.032-.081-.039-.07-.046-.064-.049-.053-.057-.042-.06-.036-.063-.028-.071-.018-.07-.014-.078-.007h-.078l-.081.004-.085.007-.085.014-.088.017-.088.018-.18.046-.18.053-.177.056-.176.05-.166.046-.078.021-.078.014-.07.014-.071.007-.067.004-.06-.004.148-.116.149-.113.144-.106.145-.102.29-.191.145-.089.296-.162.152-.078.155-.07.163-.067.166-.068.169-.06.177-.06.183-.053.325-.095.325-.102.325-.113.318-.12.314-.131.311-.138.304-.152.297-.162.063-.032.071-.039.077-.035.085-.042.184-.085.183-.096.177-.105.081-.053.074-.057.067-.06.057-.06.046-.06.017-.032.015-.032.017-.046.011-.045.003-.04.004-.038-.004-.032-.01-.032-.011-.028-.017-.028-.018-.021-.021-.022-.057-.035-.063-.025-.075-.017-.077-.015-.082-.007h-.173l-.081.007-.081.004-.071.007-.067.007Zm-4.993-.72-.018-.05-.007-.056.007-.057.018-.063.025-.067.031-.067.039-.071.046-.067.05-.067.049-.064.057-.063.053-.057.056-.053.053-.046.053-.039.046-.032.01.227.018.222.021.22.025.214.057.435.028.219.024.222-.095-.092-.099-.098-.106-.103-.102-.106-.099-.11-.092-.109-.042-.056-.039-.053-.035-.057-.032-.056Zm.982.23-.022-.156-.024-.156-.029-.158-.024-.16-.018-.158-.007-.156v-.08l.003-.078.008-.082.01-.078.007.089v-.06l.007-.064.011-.063.018-.068.024-.066.025-.064.032-.067.035-.064.039-.06.042-.056.046-.053.05-.05.049-.042.053-.035.053-.029.053-.02.021.063.014.07.007.07v.075l-.007.078-.01.081-.014.078-.015.08-.039.163-.038.163-.014.078-.015.077-.01.075-.004.07.004.07.007.075.035.148.046.152.05.148.024.074.021.071.018.07.011.068.003.067v.064l-.01.06-.022.056-.024.057-.028.045-.025.043-.025.035-.021.028-.025.022-.021.017-.021.014-.021.007h-.043l-.017-.007-.018-.01-.018-.014-.035-.036-.032-.049-.028-.057-.025-.063-.021-.067-.035-.142-.011-.07-.01-.064ZM71.323 72.97h1.303c.277-.035.416.156.416.573h.235v-.938h-3.36v.234h.079c.294-.016.433.175.416.574v2.682c.017.278-.113.407-.39.39h-.105v.26h1.98v-.26h-.131c-.33.035-.477-.156-.443-.573v-1.067h1.043c.329-.018.485.139.468.469h.26v-1.328h-.26c.035.347-.156.503-.573.468h-.938V72.97Zm5.158 3.801h.13l1.067-.207v-.21a.748.748 0 0 1-.182.027c-.157.035-.226-.095-.209-.39v-2.032h-.13l-1.223.235v.156l.312.104c.173.035.251.165.235.39v1.199c-.296.173-.522.26-.678.26-.278-.017-.425-.234-.443-.65v-1.694h-.13l-.963.235v.156l.156.078c.104.018.147.139.13.365v1.12c.017.555.26.842.73.858.26.018.659-.146 1.198-.494v.494Zm4.27 0h.156l1.12-.234v-.208a1.096 1.096 0 0 1-.209.026c-.19.035-.277-.13-.26-.495v-3.567h-.234l-1.016.338v.156c.313.036.46.166.443.391v.859a2.305 2.305 0 0 0-.6-.078c-.954.052-1.475.582-1.561 1.59.034.78.39 1.188 1.067 1.222.33 0 .695-.164 1.094-.494v.494Zm0-.78c-.192.208-.39.32-.6.338-.468-.052-.72-.425-.755-1.12.018-.642.252-.972.703-.989.192-.017.408.078.652.286v1.484Zm4.765.26a.25.25 0 0 1-.182.078c-.086.018-.13-.086-.13-.312v-1.25c-.035-.469-.4-.738-1.094-.808-.486.035-.85.166-1.094.391-.173.156-.225.374-.156.651l.755-.26c-.034-.33.078-.504.34-.52.26.016.398.164.416.442v.26c-.174.138-.434.26-.78.364-.279.088-.47.183-.575.287a.74.74 0 0 0-.208.546c.018.417.27.635.755.651.313.018.59-.103.834-.364.034.225.19.348.468.364.278-.016.53-.139.756-.364l-.105-.156Zm-1.145-.079c-.174.175-.321.262-.443.262-.208-.018-.321-.166-.338-.444-.018-.26.13-.45.442-.572.157-.07.269-.139.34-.209v.963Zm5.104-1.067c.016-.781-.218-1.162-.704-1.146-.33 0-.746.174-1.25.521v-.599h-.104l-1.146.39v.157l.13.026c.226.07.33.174.313.313v1.302c.017.329-.105.486-.365.468h-.052v.209h1.693v-.21h-.052c-.278 0-.417-.146-.417-.441V74.74c.278-.19.521-.286.73-.286.26-.017.39.234.39.755v.574c.017.503-.104.754-.365.754v.209h1.563v-.21c-.261.019-.382-.111-.364-.39v-1.041Zm6.093-2.239h.104c.381-.018.563.208.547.677v1.614c-.018.799-.451 1.207-1.302 1.224-.782-.017-1.181-.382-1.198-1.094v-1.979c0-.294.155-.442.469-.442h.103v-.261h-2.083v.261h.131c.33-.018.486.13.469.442v1.979c.016.99.667 1.493 1.952 1.511 1.233-.018 1.858-.59 1.875-1.719v-1.666c-.017-.383.183-.565.6-.547h.051v-.261h-1.719v.261Zm5.494 2.239c.017-.781-.217-1.162-.703-1.146-.33 0-.747.174-1.25.521v-.599h-.104l-1.146.39v.157l.13.026c.226.07.33.174.312.313v1.302c.018.329-.104.486-.364.468h-.052v.209h1.693v-.21h-.052c-.278 0-.417-.146-.417-.441V74.74c.278-.19.521-.286.729-.286.26-.017.391.234.391.755v.574c.017.503-.105.754-.366.754v.209h1.564v-.21c-.261.019-.382-.111-.365-.39v-1.041Zm2.708 1.432c-.277-.017-.416-.156-.416-.417v-2.239h-.105l-1.145.39v.157l.208.078c.174.035.252.131.234.287v1.276c.018.329-.104.486-.364.468h-.078v.209h1.666v-.21Zm-.833-4.167c-.33.036-.512.184-.546.444.034.295.216.45.546.469.312-.035.486-.192.521-.47-.017-.277-.191-.425-.521-.443Zm1.457 1.876c.244 0 .417.139.521.417l.99 2.083h.39l.965-2.109c.086-.261.269-.391.546-.391v-.209h-1.328v.209c.434.018.573.191.416.521l-.52 1.171-.599-1.328c-.104-.225-.078-.346.078-.364h.234v-.209h-1.693v.209Zm6.64 1.589c-.312.346-.581.512-.806.494-.451-.052-.721-.382-.808-.99h1.849v-.182c-.069-.034-.121-.13-.156-.287-.052-.26-.148-.46-.287-.599-.208-.207-.486-.312-.833-.312-.885.07-1.363.565-1.432 1.485.035.85.443 1.293 1.223 1.327.556-.016 1.025-.285 1.407-.806l-.157-.13Zm-1.64-.73c-.017-.486.139-.764.469-.834.295.018.452.296.469.834h-.938Zm4.505 1.432h-.182c-.313.018-.46-.13-.443-.442V75c.138-.208.269-.304.391-.286.104 0 .286.052.546.155a1.99 1.99 0 0 0 .313-.702l-.521-.182a.287.287 0 0 0-.131-.027.322.322 0 0 0-.26.13c-.069.07-.173.252-.312.548h-.026v-.755h-.13l-1.094.416v.156l.183.079c.173.052.251.198.234.442v1.094c.017.329-.113.486-.391.468h-.026v.209h1.849v-.21Zm1.432.209h.182a.41.41 0 0 1 .13-.026c.018 0 .061.008.131.026.19.018.381.025.572.025.556-.016.851-.285.886-.806 0-.348-.26-.66-.781-.938-.365-.208-.547-.39-.547-.547.017-.139.121-.216.312-.234.296 0 .503.191.626.573h.208v-.73a2.24 2.24 0 0 0-.756-.13c-.659.035-1.007.313-1.041.834 0 .312.251.616.755.91.329.21.495.383.495.522-.035.19-.148.295-.339.312-.347-.035-.581-.226-.703-.572h-.208l.078.78Zm4.349-.21c-.278-.016-.417-.155-.417-.416v-2.239h-.104l-1.146.39v.157l.208.078c.174.035.252.131.234.287v1.276c.018.329-.104.486-.364.468h-.078v.209h1.667v-.21Zm-.833-4.166c-.33.036-.513.184-.547.444.034.295.217.45.547.469.312-.035.485-.192.521-.47-.018-.277-.192-.425-.521-.443Zm2.759 2.033h.781l.079-.366h-.86v-.833h-.182a1.953 1.953 0 0 1-.989 1.016v.183h.364v1.587c0 .521.251.781.754.781.401-.016.722-.198.965-.546l-.104-.208c-.174.226-.339.338-.495.338-.209 0-.313-.112-.313-.338v-1.614Zm2.944 2.265-.131.26c-.156.312-.373.487-.651.521-.174.017-.295.06-.364.13a.784.784 0 0 0-.104.287c.016.243.155.373.416.39.243 0 .451-.165.624-.495l1.485-2.994c.139-.33.33-.503.573-.521v-.209h-1.25v.209c.382.018.504.191.365.521l-.521 1.016-.547-1.146c-.069-.139-.078-.234-.026-.287.035-.07.139-.104.313-.104v-.209h-1.719v.209c.243-.034.46.164.651.599l.886 1.823Z" clip-rule="evenodd"/><path fill="#0E419C" d="M27 65.111v-2.105c.015-.055.037-.108.046-.164.155-.978.237-1.975.475-2.932.818-3.29 2.66-5.94 5.23-8.106 2.183-1.84 4.69-2.965 7.517-3.366.47-.066.942-.115 1.413-.172h2.164c.527.065 1.057.114 1.582.197 3.571.563 6.539 2.243 8.974 4.888 2.092 2.27 3.44 4.911 3.902 7.98.08.538.148 1.077.222 1.616v2.106c-.02.113-.048.227-.056.34a15.21 15.21 0 0 1-.786 3.848c-.857 2.52-2.347 4.624-4.292 6.413-2.226 2.046-4.813 3.379-7.817 3.855-.517.082-1.036.15-1.554.224h-2.632c-.083-.018-.166-.048-.251-.055a15.54 15.54 0 0 1-3.532-.744c-2.453-.824-4.524-2.242-6.3-4.102-2.264-2.37-3.686-5.162-4.134-8.427-.06-.431-.114-.863-.171-1.294Zm15.853 13.941c8.176.122 15.213-6.87 14.998-15.394-.198-7.873-6.85-14.773-15.358-14.61-7.751.147-14.68 6.591-14.689 15.02-.007 8.35 6.925 15.133 15.05 14.984Z"/><path fill="#0E419C" d="M42.759 53.517c5.816-.183 10.716 4.763 10.7 10.635-.014 5.814-4.882 10.602-10.635 10.587-5.951-.016-10.657-4.894-10.64-10.632.016-5.984 5.03-10.817 10.575-10.59Zm.164.812c-5.418-.123-9.866 4.363-9.912 9.695-.046 5.361 4.321 9.913 9.813 9.907 5.53-.007 9.892-4.61 9.805-9.973-.09-5.507-4.705-9.703-9.706-9.63Z"/><path fill="#0E419C" d="M39.592 76.915c-.199-.038-.4-.065-.595-.115-.327-.085-.614-.235-.81-.53-.35-.527-.247-1.272.27-1.642.383-.276.825-.183 1.239-.074.84.222 1.171.834.967 1.764-.066.302-.162.6-.272.89-.196.517-.811.908-1.36.887-.71-.028-1.282-.423-1.462-1.011-.017-.055-.053-.125-.034-.167.077-.177.171-.346.26-.518.118.111.28.2.348.337.272.537.623.764 1.064.6.163-.06.293-.21.438-.32l-.053-.101Zm-.163-.743c.347 0 .6-.202.61-.487.008-.226-.488-.607-.801-.615-.237-.007-.493.278-.498.552-.005.314.29.55.689.55ZM46.022 77.094c.018.885-.528 1.596-1.255 1.57-.952-.032-1.5-.392-1.687-1.329-.1-.505-.198-1.017.003-1.524.189-.477.502-.808 1.037-.869.594-.068 1.122.005 1.459.599.277.487.433.997.443 1.553Zm-2.26-.37c.05.206.091.478.188.727.135.346.39.503.662.468a.761.761 0 0 0 .626-.65 2.087 2.087 0 0 0-.327-1.334.581.581 0 0 0-.606-.271c-.265.041-.396.234-.456.475-.04.169-.053.345-.088.585ZM48.268 75.841c-.29-.612-.538-1.138-.785-1.665-.075-.161-.055-.275.13-.37.486-.245.961-.512 1.437-.776.237-.132.416-.046.556.144.148.202.097.396-.096.533-.174.121-.367.217-.555.315-.197.103-.4.195-.622.303l.202.548c.198-.14.38-.246.534-.382.552-.487 1.32-.37 1.693.269.318.545.268 1.254-.119 1.693-.476.539-1.157.728-1.735.465-.194-.089-.453-.165-.355-.475.085-.272.28-.343.62-.248.493.14.718.055 1.004-.374.167-.25.118-.57-.122-.788-.231-.21-.414-.19-.696.027-.336.258-.688.494-1.091.781ZM32.683 54.721c.173.152.348.301.52.455.173.156.35.31.513.477.274.284.54.577 1.05.47-.15.446-.447.655-.758.845-.034.02-.159-.034-.182-.083-.288-.59-.85-.926-1.28-1.382-.26-.276-.508-.602-.946-.633-.054-.003-.103-.077-.188-.148.257-.274.495-.541.753-.788.046-.044.18-.02.264.002.645.176 1.287.36 1.95.506-.426-.352-.614-.998-1.334-.978-.241.007-.181-.245-.096-.35.15-.18.353-.318.518-.46.73.814 1.43 1.583 2.114 2.365.075.087.065.247.095.373-.124.006-.257.045-.369.013-.822-.236-1.64-.487-2.458-.732-.035-.01-.073-.013-.11-.019l-.056.067ZM52.291 53.132c.61.553 1.265.965 1.624 1.657.112.216.165.511.124.75-.083.473-.527.7-1.034.596-.403-.082-.413-.084-.51.315-.069.282-.12.57-.152.858-.019.17-.1.212-.247.208-.41-.013-.658-.453-.463-.83.094-.18.206-.352.297-.535.138-.278.118-.544-.12-.82-.297.232-.65.394-.723.833-.014.084-.076.187-.146.224-.04.022-.158-.051-.213-.11-.18-.19-.36-.383-.516-.593-.146-.2-.073-.346.168-.335.242.01.399-.098.552-.263.305-.327.616-.65.94-.959.216-.205.364-.425.354-.733-.003-.064.03-.128.065-.264Zm1.152 1.904c-.003-.221-.417-.687-.61-.687-.171 0-.646.495-.638.664.014.252.385.588.645.584.314-.006.608-.279.603-.56ZM54.63 58.37c.04.381.078.671.099.962.036.494-.239.809-.739.864-.745.082-1.33-.364-1.479-1.141a2.386 2.386 0 0 1-.043-.551c.009-.182-.003-.301-.212-.373-.188-.064-.182-.227-.014-.326.25-.148.51-.287.78-.396.09-.036.222.028.336.046-.028.103-.022.243-.088.303-.412.38-.342.836-.234 1.301.017.073.051.166.108.202.161.102.35.266.507.246.252-.034.312-.295.293-.533-.027-.349-.09-.695-.106-1.045-.019-.399.08-.75.488-.944.678-.323 1.395.086 1.56.896.075.37.168.736.229 1.108.014.089-.04.238-.112.284-.16.104-.346.171-.528.231-.07.023-.16-.014-.241-.024.014-.082.002-.19.048-.243.44-.513.25-1.036.038-1.56-.073-.178-.215-.32-.4-.25-.11.04-.212.21-.24.339-.05.224-.041.461-.05.603ZM28.237 62.34c.084-.63.157-1.313.274-1.989.066-.384.33-.57.75-.613.701-.073 1.377.066 2.034.286.445.148.748.596.703 1.101-.045.509-.172 1.012-.278 1.514-.023.107-.11.201-.138.25-.57-.122-1.101-.255-1.64-.344-.542-.09-1.09-.133-1.705-.205Zm3.125-.212c.052-.188.107-.343.137-.503.099-.53-.01-.794-.509-.998-.344-.14-.723-.209-1.094-.266-.749-.115-.89-.004-1.036.75-.03.16-.044.321-.07.513l2.572.504ZM40.203 50.346c.05.48.11.958.15 1.437.03.367.099.71.436.945-.294.278-.618.282-.936.269-.046-.002-.14-.174-.12-.237.201-.608.001-1.198-.07-1.79-.052-.431-.18-.854-.278-1.307.49-.274.853-.22 1.246.266.263.325.496.674.754 1.003.117.15.26.28.453.391-.046-.457-.067-.92-.148-1.37-.028-.159-.2-.292-.325-.462.267-.311.633-.168 1.005-.169-.388.723-.078 1.447-.081 2.162-.001.301.045.602.04.903-.001.105-.093.209-.144.313-.09-.056-.21-.09-.267-.17-.45-.634-.887-1.279-1.333-1.917-.079-.114-.18-.211-.271-.316l-.111.05ZM47.575 53.8c.717-.694 1.216-1.472 1.6-2.328.113-.254.17-.295.398-.15.559.356 1.118.71 1.672 1.072.341.224.312.533-.083.747-.183-.54-.666-.75-1.111-1.008-.133-.077-.213-.067-.326.042-.525.505-.52.61.122.955.13.07.29.09.44.11.13.017.265.003.399.003-.004.433-.24.765-.615.884a1.335 1.335 0 0 0-.793-.84c-.093-.037-.276-.002-.343.07-.492.527-.466.667.109 1.094.29.215.578.358.942.203.034-.015.076-.014.115-.014.027 0 .054.011.08.017.077.41-.238.702-.612.554a3.17 3.17 0 0 1-.582-.33c-.372-.25-.74-.505-1.101-.771-.126-.092-.224-.222-.31-.31ZM29.946 67.262c.241-.37.469-.452.874-.374.072.39.137.752.206 1.114.036.193.173.27.341.207.348-.127.799-.068.98-.522.012-.031.213-.039.228-.009.157.326.295.661.474 1.075-.712-.17-1.213.168-1.748.336-.539.17-1.138.225-1.574.747-.121-.171-.255-.304-.32-.465a30.22 30.22 0 0 1-.62-1.634c-.08-.236-.137-.49.205-.62.3-.116.46-.042.387.266-.108.457.078.817.262 1.193.013.026.02.059.041.076.265.225.48-.031.71-.088.134-.033.356-.059.265-.319-.14-.4-.217-.842-.71-.983ZM28.47 65.44c.905-.053 1.75-.111 2.595-.147.288-.012.458-.14.456-.412a2.069 2.069 0 0 0-.13-.702c-.034-.09-.213-.184-.324-.183-.691.006-1.382.031-2.072.071-.087.005-.162.14-.25.203-.083.057-.186.148-.262.133-.068-.012-.144-.143-.162-.233-.054-.277-.076-.56.105-.83.484.336 1.017.164 1.53.166.351.001.701-.028 1.051-.021.492.009.81.236.885.724.061.395.043.812-.004 1.212-.036.304-.257.486-.587.512-.63.048-1.26.099-1.89.168-.207.023-.413.09-.609.164-.202.076-.326.059-.332-.184-.005-.212 0-.424 0-.642ZM33.326 57.983c-.088-.054-.144-.093-.203-.125-.491-.265-.583-.244-.896.202-.35.497-.254.786.33.996.072.026.142.06.264.11l-.611.882c-.09-.035-.114-.037-.124-.05-.675-.953-1.352-1.905-2.021-2.863-.057-.081-.118-.25-.082-.288.08-.086.232-.173.335-.155.737.13 1.47.29 2.204.431.277.054.56.076.836.127.346.063.383.158.19.438-.066.096-.139.185-.222.295Zm-1.712-.467-.557-.142-.035.055.362.405c.053-.064.086-.098.113-.136.034-.048.063-.098.117-.182ZM56.834 67.113l-.315 1.272c-.575-.506-1.03-.02-1.53 0 .309.353.552.746 1.02.892.074.023.16.14.168.22.031.317-.044.596-.312.725-.483-.53-.913-1.073-1.421-1.532-.343-.309-.787-.504-1.285-.24-.234.122-.344.04-.295-.214.065-.334.151-.664.252-.988.026-.085.13-.165.216-.203.035-.015.137.08.183.144.085.12.126.333.23.366.309.098.641.185.959.168.393-.02.789-.124 1.169-.239.299-.091.576-.256.862-.388.034.004.066.01.099.017ZM56.687 65.128c-.805-.027-1.61-.06-2.415-.073-.085-.001-.169.126-.258.187-.091.06-.2.17-.279.152-.073-.017-.162-.169-.164-.263a9.114 9.114 0 0 1 .04-.987c.01-.093.082-.182.15-.324.48.588 1.125.414 1.706.492.27.037.544.082.813.067.152-.008.358-.095.428-.214.056-.093-.023-.307-.102-.431-.066-.107-.215-.16-.328-.238l.05-.119c.124-.063.241-.15.371-.183.374-.095.506.009.491.39-.028.73-.078 1.459-.104 2.189-.011.302-.196.38-.44.385-.084.002-.206-.043-.245-.107-.03-.049.034-.165.071-.245.088-.188.185-.373.278-.558-.02-.041-.042-.08-.063-.12ZM35.154 73.75c-.164-.153-.307-.285-.448-.418-.17-.159-.101-.315.01-.467.108-.146.239-.195.4-.08.264.186.517.092.772-.026.292-.135.433-.078.697.2.2.214.036.364-.068.51-.576.808-1.167 1.607-1.746 2.415-.145.201-.29.265-.508.107-.324-.235-.395-.396-.228-.64.362-.53.735-1.052 1.119-1.6ZM35.64 51.07l1.078-.372c.033.072.051.094.046.104-.217.402-.074.764.105 1.133.165.34.297.698.461 1.04.209.435.427.514.868.337.507-.204.578-.355.387-.863-.165-.436-.32-.878-.514-1.3-.13-.283-.322-.537-.504-.833.17-.22.44-.257.776-.223-.134.51.14.914.283 1.35.136.415.286.826.398 1.248.127.484-.027.756-.485.946l-.108.044c-.884.359-1.456.225-1.795-.772-.088-.257-.207-.503-.308-.755-.123-.307-.224-.624-.521-.823-.065-.044-.093-.142-.168-.262ZM45.53 49.676c.366.095.666.165.96.25.193.056.219.213.104.34-.2.223-.178.48-.176.74.002.312-.01.624.004.935.007.135.062.267.095.4l.087.02c.228-.299.458-.596.684-.896.226-.302.483-.591.411-1.028.375-.038.675.022.927.323-.761.486-1.14 1.268-1.677 1.916-.136.165-.263.34-.414.49-.075.075-.203.154-.293.14-.167-.026-.312-.107-.328-.335a63.136 63.136 0 0 0-.2-2.15c-.038-.353-.112-.703-.184-1.145ZM56.678 60.425c.026.035.119.11.142.203.093.366.171.737.237 1.109.014.075-.049.165-.076.247-.078-.033-.186-.044-.23-.103-.121-.16-.255-.214-.453-.175-.695.137-1.392.26-2.089.39-.188.034-.309.113-.333.333-.01.102-.133.192-.204.288-.076-.09-.195-.17-.222-.272-.1-.394-.19-.793-.242-1.195-.016-.123.1-.264.155-.397.103.084.245.15.302.258.099.188.212.242.418.203.686-.13 1.382-.218 2.059-.385.194-.048.337-.309.536-.505ZM44.285 52.82c-.39-.048-.707-.072-1.02-.129-.205-.037-.267-.195-.103-.333.24-.204.245-.473.272-.74.054-.522.105-1.045.138-1.569.007-.122-.048-.259-.108-.37-.14-.258-.096-.369.2-.352.26.014.52.063.771.131.214.058.252.245.069.365-.194.128-.223.304-.247.496-.06.483-.136.964-.168 1.448-.014.222.054.45.093.674.018.101.054.2.103.379ZM40.68 68.195c-1.921.072-3.818-.027-5.676.407-.233.055-.42-.002-.506-.222a7.526 7.526 0 0 1-.29-.912c-.013-.056.077-.188.142-.207.351-.105.706-.235 1.067-.264 1.105-.09 2.213-.15 3.322-.196.658-.027 1.32-.005 2.01-.005.033-1.88.193-3.676 1.006-5.353l-.117-.053c-.11.125-.248.235-.322.378-.315.602-.634 1.205-.902 1.83-.11.259-.104.57-.137.86-.143 1.244-.73 1.917-1.968 2.108-.67.104-1.36.14-2.036.102-1.064-.06-2.009-1.025-2.171-2.168-.182-1.276-.13-2.542.264-3.783.099-.312.26-.556.55-.72 1.45-.814 2.93-.82 4.43-.166.446.195.543.632.63 1.057.022.103.034.208.046.29l1.677-2.144c-.103-.191-.22-.16-.362-.035-.356.313-.752.548-1.228.638-.297.056-.514-.044-.678-.284-.162-.236-.075-.441.092-.633.364-.42.72-.845 1.094-1.256.529-.584.77-1.293.957-2.038.046-.186.161-.38.3-.512.26-.246.721-.286.98-.106.304.213.452.525.364.89-.107.443-.263.873-.39 1.31-.042.148-.1.307-.081.451.04.312.235.422.618.397 1.613-.11 3.225-.23 4.838-.326.406-.024.819.012 1.224.056.47.05.822.466.8.892-.016.35-.227.577-.575.558-.7-.036-1.398-.138-2.097-.142a39.675 39.675 0 0 0-3.177.093c-.413.03-.825.22-1.215.388-.422.181-.501.42-.368.85.017.056.03.116.059.164.36.595.288 1.187.06 1.816-.66 1.815-.762 3.704-.676 5.614.047 1.06.085 2.121.144 3.18.024.427.099.85.144 1.276.017.164.036.333.016.495-.032.255-.1.507-.4.583-.361.091-.664.015-.822-.276a3.095 3.095 0 0 1-.327-.894 19.22 19.22 0 0 1-.301-3.691c.002-.086-.006-.171-.011-.297Zm-1.808-5.721c0-.242.015-.437-.003-.63-.06-.643-.33-.918-.968-.99-.203-.023-.408-.029-.612-.042-1.238-.082-1.95.583-1.88 1.814l3.463-.152Zm-3.325 1.434c-.037.703.35 1.263 1.003 1.38.386.068.79.07 1.183.056.852-.03 1.358-.715 1.175-1.578-1.133-.255-2.246-.004-3.361.142Z"/><path fill="#0E419C" d="M46.84 66.135c.49-.041.909-.052 1.319-.122.164-.027.318-.168.454-.284.139-.119.236-.288.378-.403.19-.154.403-.286.666-.142.232.128.43.451.356.716a73.583 73.583 0 0 1-.857 2.877c-.03.095-.245.179-.378.184-.447.022-.895-.001-1.342.005-.459.005-.475.03-.374.466.142.605.306 1.206.43 1.815.051.253.038.522.03.783-.008.22-.15.327-.368.33-.394.003-.656-.206-.847-.528-.373-.629-.553-1.324-.699-2.031-.125-.61-.182-.649-.777-.44-.256.089-.495.223-.745.33-.196.085-.392.174-.595.238-.352.11-.568.036-.708-.218-.165-.297-.138-.652.12-.85.195-.151.43-.268.666-.343.58-.185 1.171-.337 1.767-.505V67.2c-.38.105-.713.19-1.042.29-.343.105-.68.236-1.023.338-.246.074-.486.088-.611-.215-.127-.307-.047-.643.204-.805.454-.293.98-.287 1.49-.348.326-.04.65-.103.972-.176.067-.016.114-.12.17-.184-.079-.035-.159-.098-.238-.098-.29.003-.583.045-.873.038-.242-.006-.469-.087-.53-.367-.07-.312.112-.53.468-.55.865-.052 1.73-.094 2.595-.14.039-.002.079-.005.117 0 .133.019.265.04.398.062-.027.157-.016.337-.091.467-.121.204-.299.376-.502.624Zm0 1.832c.371-.033.712-.045 1.046-.102.104-.018.234-.14.272-.242.062-.173.06-.37.093-.616l-1.411.134v.826ZM46.3 64.81c-.612 0-1.225-.012-1.837.003-.546.014-.924-.191-1.154-.671-.252-.522-.18-.95.175-1.373.36-.428.836-.549 1.352-.573 1.089-.05 2.178-.109 3.266-.116.521-.003 1.044.092 1.564.165a.682.682 0 0 1 .375.198c.376.406.462.9.291 1.41-.163.487-.545.753-1.058.784-.99.06-1.981.102-2.972.15l-.001.022Zm2.73-1.395-.036-.111c-.227-.022-.455-.067-.682-.062-1.168.03-2.335.069-3.502.12-.18.007-.494-.06-.486.221.01.294.333.226.52.217 1.273-.057 2.545-.132 3.816-.216.126-.008.247-.11.37-.169ZM46.47 61.874c-.835-.032-1.67-.052-2.504-.105a.786.786 0 0 1-.473-.24c-.481-.514-.368-1.49.241-1.833a2.52 2.52 0 0 1 1.047-.3c1.105-.07 2.214-.096 3.322-.122.519-.012 1.027.067 1.503.292.402.19.602.503.612.946.011.463-.111.87-.582 1.038-.37.131-.763.244-1.152.27-.668.043-1.342.012-2.013.012a.56.56 0 0 1 0 .042Zm2.508-1.114c-.03-.348-.158-.456-.428-.45-.768.017-1.537.005-2.305.02a33.93 33.93 0 0 0-1.6.08c-.194.013-.362.134-.301.337.027.093.23.19.355.19 1.069-.004 2.138-.02 3.207-.052.352-.01.703-.08 1.072-.125Z"/></g><defs><filter id="a" width="154" height="157" x="0" y="0" color-interpolation-filters="sRGB" filterUnits="userSpaceOnUse"><feFlood flood-opacity="0" result="BackgroundImageFix"/><feColorMatrix in="SourceAlpha" result="hardAlpha" values="0 0 0 0 0 0 0 0 0 0 0 0 0 0 0 0 0 0 127 0"/><feOffset dy="16"/><feGaussianBlur stdDeviation="6.5"/><feColorMatrix values="0 0 0 0 0 0 0 0 0 0 0 0 0 0 0 0 0 0 0.03 0"/><feBlend in2="BackgroundImageFix" result="effect1_dropShadow_185_35"/><feBlend in="SourceGraphic" in2="effect1_dropShadow_185_35" result="shape"/></filter></defs></svg>