<svg xmlns="http://www.w3.org/2000/svg" width="154" height="157" fill="none"><g filter="url(#a)"><path fill="#fff" d="M13 0h128v128H13z"/><path fill="#B60903" d="M33.412 65.098h.068c.41.136.683.204.818.204.135 0 .18-.091.136-.273a.544.544 0 0 0-.067-.204.52.52 0 0 1-.068-.205v-.067c.044 0 .091.023.137.067a.457.457 0 0 0 .34.137c.181.045.273-.204.273-.75.045-.41.045-1.614 0-3.616.092-.59-.114-.863-.613-.818-.137 0-.364.046-.683.137-.273.136-.5.204-.683.204h-.204c-.227.046-.41.068-.546.068-.045.637.022.954.204.954.228 0 .569-.067 1.024-.204.317-.136.546-.204.682-.204.228-.044.341.068.341.34-.045.228-.296.341-.75.341a.532.532 0 0 0-.204.068c-.228 0-.41.046-.547.137h-.136c0-.045-.023-.068-.068-.068h-.614v1.023c.181 0 .432-.067.75-.204.41-.136.706-.204.887-.204.318-.091.478.045.478.41 0 .136-.182.204-.546.204a1.107 1.107 0 0 1-.273.067c-.273.093-.638.205-1.091.341-.228.137-.251.5-.068 1.091a.75.75 0 0 1 .273-.136.538.538 0 0 1 .204-.068c.181-.227.34-.386.477-.477.137 0 .228.067.273.204.092 0 .205-.022.341-.068h.341c.18.046.295.137.34.273 0 .093-.091.137-.272.137-.046.045-.093.068-.137.068l-.34.067a2.047 2.047 0 0 1-.341.068c-.273 1.091-.796 2.001-1.57 2.728-.774.636-1.25.978-1.433 1.024l-.068-.068c-.045 0-.092.022-.136.068h-.204c0-.046-.024-.068-.068-.068-.092-.046-.136-.114-.136-.204.09-.455.295-.66.613-.614 1.137-.955 1.864-1.796 2.184-2.524-.046 0-.137.045-.273.136-.638.228-1.07.388-1.297.478-.591-.091-.978-.387-1.16-.887.044 0 .091.023.137.067l.067.068c.41.046.864 0 1.364-.136-.27-.545-.317-1.59-.134-3.137.181-1.137.59-1.91 1.228-2.32a6.962 6.962 0 0 1-.477-.204c-.046-.044-.115-.068-.205-.068a1.17 1.17 0 0 0-.273-.068c-.954.183-1.728.388-2.32.614-.092 0-.204.046-.34.137-.546.182-.978.25-1.297.204a3.7 3.7 0 0 1-.75-.683c.228-.18.614-.273 1.16-.273a229.72 229.72 0 0 1 4.775-.614c0-.136.022-.34.068-.613v-.341c-.41 0-.728.068-.955.204-.045 0-.092.068-.136.204-.093.137-.16.205-.205.205-.045 0-.136-.045-.273-.137-.045-.091-.092-.136-.136-.136-.319-.5-.592-1.205-.818-2.115 0-.044-.046-.091-.137-.137-.182-.18-.25-.317-.204-.41.044-.09.25-.136.614-.136.317 0 .683.115 1.09.341.41-.09.842-.204 1.297-.34.091-.547.137-.955.137-1.228 0-.41-.114-.658-.34-.75v-.068c.088-.227.293-.341.612-.341.227.045.432.204.614.477.227.455.295 1.024.204 1.705a6.77 6.77 0 0 1 1.364-.477c.636.092 1 .41 1.091.954.044.456-.273.98-.955 1.57-.181.136-.318.25-.41.34-.454.32-.91.388-1.363.205.044.136 0 .433-.137.887a35.69 35.69 0 0 1 1.228-.204c1.045-.137 1.774-.228 2.183-.273 1.182.045 1.796.364 1.842.954v.137c-.093.136-.251.204-.478.204-.092 0-.204-.068-.34-.204-1.41-.228-2.934-.228-4.571 0-.182.5-.546.682-1.091.546-.228.182-.364.5-.41.954l.068-.067a.616.616 0 0 1 .273-.068c.273-.044.614-.159 1.023-.34.273-.137.477-.228.614-.274a.525.525 0 0 0 .204-.068c.228-.136.432-.204.614-.204.454.137.773.57.955 1.297v3.82c-.046 1.091-.251 1.705-.614 1.842.863.59 1.318 1.227 1.364 1.91v.273l-.41.41c-.227 0-.455-.251-.682-.75-.093-.093-.137-.16-.137-.205-.455-.546-.91-.98-1.364-1.296-.182-.092-.296-.16-.34-.205a6.44 6.44 0 0 1-.476-.752Zm-1.433-9.96c.137.546.228.887.273 1.023.273 0 .546-.044.818-.136v-.341c.045-.363.068-.568.068-.614a3.831 3.831 0 0 1-.75.068h-.409Zm2.32-.204v.41a5.188 5.188 0 0 0-.068.477c.228 0 .432-.045.614-.137v-.068c.137-.454.181-.75.137-.887a2.416 2.416 0 0 0-.683.205Zm10.164 2.524c0-.137.159-.181.477-.137h.068c.59 0 1.068.204 1.433.614h.068c.136-.273.227-.477.273-.614.09-.136.159-.317.204-.546l.068-.068v.409a12.924 12.924 0 0 0-.137 1.978c.181.41.022.932-.477 1.57v.067c-.273 0-.477-.068-.614-.204-.045-.091-.136-.159-.273-.205a7.32 7.32 0 0 1-.136-.136c-.137-.227-.32-.75-.547-1.57a14.34 14.34 0 0 0-.204-.75c0-.044-.023-.09-.067-.136-.092-.137-.136-.227-.136-.272Zm2.455 5.389c.818-2.137 1.16-4.457 1.024-6.959-.046-.09-.068-.227-.068-.41a.671.671 0 0 0-.34-.613c.044-.137.203-.204.477-.204.546-.045.863.227.954.818.044.682.068 1.387.068 2.114.18.046.454.16.818.34.044.046.09.069.136.069.045 0 .068.045.068.136.137.137.273.204.41.204.044 0 .067-.022.067-.067l.068-.068c.136-.273.295-.636.477-1.091.045-.228.091-.386.137-.477v-.137c0 .045.022.114.068.204v.137a.53.53 0 0 0-.068.204l.068.068v.136c0 .319-.046.796-.137 1.433-.046.228-.068.41-.068.546-.182.093-.41.137-.682.137-.182 0-.41-.204-.683-.614-.273-.41-.5-.636-.683-.683a55.626 55.626 0 0 1-.273 2.388c-.045.455-.092.796-.136 1.023-.319 1.593-.818 2.729-1.501 3.411a1.91 1.91 0 0 1-.955.273c-.092 0-.204-.204-.34-.614v-.067c.457-.41.822-.956 1.094-1.637Zm4.367 1.227c0-.41.044-.954.137-1.637.09-.727.136-1.273.136-1.637 0-.91.044-2.228.137-3.957v-.478c.044-.909 0-1.569-.137-1.977.044-.137.113-.205.204-.205.454.046.683.41.683 1.091 0 .456-.023 1.228-.068 2.32v1.5c0 1.638-.045 3.094-.136 4.366.044.818-.115 1.184-.478 1.092-.274-.045-.434-.205-.478-.478Zm1.295-6.48c0-.092.068-.137.205-.137h.067c.137 0 .34.067.614.204.227.136.386.204.477.204.045 0 .091-.022.137-.068l.136-.067c.273-.546.432-1.024.478-1.433.09.045.113.182.067.41v.067c0 .182-.023.364-.067.546a3.85 3.85 0 0 0 0 1.023c.09.228 0 .388-.274.478-.227.045-.682-.273-1.364-.955-.045-.044-.114-.068-.204-.068-.18-.044-.272-.113-.272-.205Zm2.66 9.686c0-.228.023-.523.069-.887v-.614c.044-.818.067-1.75.067-2.797v-3.888c0-2.137.022-3.933.068-5.39 0-.227-.046-.409-.137-.545-.045-.045-.067-.091-.067-.137 0-.136.067-.204.204-.204.454.092.727.34.818.75-.046.364-.068.796-.068 1.297-.045 1.41-.067 3.342-.067 5.798v6.14c.044.818-.16 1.227-.614 1.227-.092 0-.137-.023-.137-.068l-.136-.136v-.546Zm9.006-2.592c-.455-.136-.683-.636-.683-1.5-.045-.773-.023-1.91.068-3.412.091-1.318.137-2.295.137-2.933-.729.136-1.115-.045-1.16-.546.044-.228.25-.546.614-.955l.273-.273c.09-.137.273-.317.546-.546.636-.59 1.023-1.091 1.16-1.5a.623.623 0 0 0-.068-.274 1.108 1.108 0 0 1-.068-.273c.045-.09.204-.159.478-.204.682.319 1 .796.954 1.433 0 .728-.524 1.5-1.57 2.32.5 0 .864-.091 1.092-.273.273-.273.613-.387 1.023-.341.454.045.66.296.614.75 0 .273-.16.66-.478 1.16-.092.137-.16.251-.204.34.045.228-.136.434-.546.615l-.067.067a4.5 4.5 0 0 1-.547.137c-.455.092-.795.182-1.023.273v.477c-.045.319-.068.57-.068.75.181-.09.432-.227.75-.409.274-.136.432-.204.478-.204.091-.044.18-.113.273-.204.091-.091.227-.137.41-.137.362.046.682.137.954.273.137.228.113.57-.068 1.023-.045.228-.204.523-.477.887a1.03 1.03 0 0 0-.204.273c.228.41.136.706-.273.887a6.824 6.824 0 0 1-1.91.683c0 .092.022.204.067.34v.819c-.136.41-.296.57-.477.477Zm.204-8.186c.181.455.273.932.273 1.433.091-.044.228-.068.41-.068.18-.044.317-.067.41-.067.41-.273.635-.727.682-1.364-.546.136-1.047.067-1.5-.205-.094.09-.185.181-.275.271Zm.204 4.298v1.433c.454-.181.75-.363.887-.546.045-.091.114-.273.205-.546.317-.547.431-.932.34-1.16-.136.227-.433.433-.887.613a5.615 5.615 0 0 0-.544.206Zm10.301-2.115c-.092 2.002-.524 3.571-1.296 4.708-.32.364-.707.41-1.16.136a7.977 7.977 0 0 0-.75-.614 4.024 4.024 0 0 1-.41-.34v3.001c.044 1.364-.115 2.251-.478 2.66h-.067c-.137-.045-.228-.023-.273.068-.182-.364-.205-1.046-.068-2.047.044-.227.068-.41.068-.546.044-.499.067-1.136.067-1.91.045-.727.068-1.34.068-1.841-.319-.273-.524-.59-.614-.955h.068a.538.538 0 0 1 .204-.068c.044.046.113.115.204.205.045.045.091.092.137.136 0-.317.022-.794.067-1.433V58.55c-.045 0-.16.023-.34.068-.137.045-.251.092-.341.136a.534.534 0 0 0-.204.068c-.455.045-.637.296-.546.75v1.637c-.046.955-.251 1.593-.614 1.91-.455-.044-.66-.477-.614-1.296.044-.317.068-.75.068-1.296.044-.547.067-.978.067-1.297.181-1.364.41-2.091.683-2.183.044 0 .068.023.068.068 0 .045-.024.092-.068.136-.092.092-.136.16-.136.204.044.319.18.66.41 1.024.499-.137 1.022-.318 1.569-.547 0-.273.022-.704.067-1.296v-1.023c-.092 0-.227.023-.41.067h-.34c-.592 0-1.023-.067-1.296-.204a1.409 1.409 0 0 1-.341-.273c-.228-.091-.34-.159-.34-.204.635 0 1.249-.022 1.84-.068.137 0 .432-.044.887-.136 1.137-.228 1.933-.341 2.388-.341.41 0 .614.136.614.41 0 .092-.182.181-.546.273-.046.045-.093.067-.137.067-.092 0-.25.046-.477.137-.455.136-.796.227-1.024.273 0 .273-.023.637-.067 1.09v1.024a5.18 5.18 0 0 1 1.637-.273c1.139.05 1.73.459 1.776 1.231Zm-3.479-.41c0 .41-.023 1.002-.067 1.775v1.704c.273.182.59.341.954.478.363.227.614.092.75-.41.181-.41.364-1.228.547-2.455v-.273c.044-.727-.182-1.091-.683-1.091-.5 0-1.001.092-1.5.273Zm12.075 9.074v-.41c0-.41.044-1.068.136-1.978.044-.363.068-.636.068-.818-.774.273-1.433.523-1.978.75-.228.046-.5.16-.818.341a.76.76 0 0 1-.34.068c-.456-.045-.707-.181-.751-.41 0-.18.158-.273.477-.273.044 0 .068.023.068.068.41-.137 1-.34 1.773-.614.683-.18 1.205-.34 1.57-.477v-.614c-.41.136-.706.204-.887.204a.513.513 0 0 1-.204-.068.722.722 0 0 1-.273-.136c-.546-.773-.818-1.386-.818-1.841 0-.137.067-.318.204-.547.044 0 .068-.022.068-.067 0-.137.067-.205.204-.205.09 0 .159.046.204.137.044.046.091.068.137.068.136 0 .317-.068.546-.205a.54.54 0 0 1 .204-.067l.273-.068c.273-.09.432-.136.477-.136v-.614h-.136c-.41.136-.728.204-.955.204-.273 0-.57-.113-.887-.34 0 .045-.023.045-.067 0-.093-.045-.093-.114 0-.205.044-.044.067-.09.067-.136a.725.725 0 0 0 .41-.137c.228-.044.41-.068.546-.068.091 0 .273-.022.546-.067.273 0 .454-.023.546-.068 0-.317-.023-.636-.067-.955l-.068-.136c0-.044.113-.068.34-.068.228 0 .364.115.41.341.045.092.045.273 0 .546v.137c.41-.137.818-.25 1.228-.341h.136c.091.045.137.16.137.34 0 .137-.319.32-.955.547-.273.092-.455.16-.546.204v.614c.137-.045.363-.113.683-.204a2.13 2.13 0 0 1 .34-.068c.591-.044.864.25.819.887-.137.591-.341 1.205-.614 1.841-.092.41-.251.637-.477.683-.093 0-.182-.044-.273-.137a1.159 1.159 0 0 0-.341-.067h-.204a.53.53 0 0 1-.205.067v.614c.546-.18.955-.273 1.228-.273h.272c.136.045.227.16.273.34 0 .093-.296.183-.887.274-.455.092-.75.16-.887.204v1.5c0 .592-.023 1.024-.067 1.297-.046.454-.115.727-.205.818-.23-.003-.39-.096-.48-.276Zm.204-10.984c-.319.228-.774.547-1.364.955-.319.228-.547.388-.683.477-.546 0-.843-.295-.887-.887v-.34c.044-.091.181-.205.41-.341a.725.725 0 0 0 .273-.137c1-.909 1.455-1.659 1.364-2.25 0-.045-.023-.092-.068-.137v-.068h.136c.044 0 .317.115.818.34.136.229.273.57.41 1.024.136-.044.362-.158.682-.34.09-.091.158-.137.204-.137.273 0 .454.046.546.137 0 .045.022.16.068.34a.762.762 0 0 1 .136.273c.045 0 .068.024.068.068l.204-.136v.135c0 .045-.023.182-.067.41l-.068.204c-.046.045-.114.204-.204.477-.273.818-.5 1.228-.683 1.228-.092 0-.227-.091-.41-.273-.045-.045-.092-.16-.136-.341-.046-.044-.068-.091-.068-.137 0-.136.022-.317.068-.546.044-.273.068-.454.068-.546-.363.275-.635.459-.817.548Zm-1.432 4.298c.044.228.091.364.137.41 0 .045.022.092.067.136 0 .228.068.341.204.341.137 0 .432-.067.887-.204.137-.044.228-.068.273-.068v-.614h-.614a4.072 4.072 0 0 1-.613.068h-.137l-.136-.068h-.068Zm.75 2.047a2.2 2.2 0 0 1 .41-.136c.136-.045.25-.068.34-.068v-.683c-.272 0-.613.068-1.023.204.045.182.137.41.273.683Zm1.296-.342c.09-.044.25-.113.477-.204a.538.538 0 0 1 .204-.068c.091-.136.159-.34.204-.613a.617.617 0 0 0-.273.067.618.618 0 0 0-.273.068c-.045 0-.136.023-.273.067v.274a1.93 1.93 0 0 0-.066.41Zm.955-2.046c-.136 0-.318.046-.546.137a1.108 1.108 0 0 1-.273.068c0 .227-.023.387-.068.477h.137a.755.755 0 0 1 .75.137c.091-.228.137-.432.137-.614.044-.137 0-.205-.137-.205Zm2.115-3.957a.781.781 0 0 0-.137.205c-.455.591-.796.887-1.023.887h-.068c-.136.136-.182-.16-.136-.887l.204-.137a.724.724 0 0 0 .273-.136c.909-1.091 1.545-2.228 1.91-3.411-.045-.045-.092-.068-.136-.068l-.409.408c-.182.046-.34.115-.477.205v-.068c0-.091.273-.363.818-.818l.204-.204c.181-.045.34-.068.477-.068.274.092.432.273.478.546-.137.41-.478 1.091-1.024 2.047-.092.136-.16.227-.204.273.818-.317 1.455-.477 1.91-.477.228.092.363.25.41.477 0 .045-.068.068-.204.068-.273.092-.66.16-1.16.204-.546.045-.955.092-1.228.136-.14.189-.255.395-.34.614h.409c.636.228 1.023.592 1.16 1.091.044.455 0 .75-.136.887-.228.092-.456-.136-.683-.682-.23-.59-.525-.955-.888-1.092Zm1.296 9.687c-.364 0-.682-.022-.954-.068-.818-.227-1.228-.886-1.228-1.977.044-.59.091-1.501.137-2.729.044-.59.067-1.045.067-1.364a7.643 7.643 0 0 1-.136-.136c-.228-.137-.341-.273-.341-.41h.068V59.3c.227 0 .454-.044.682-.136.045 0 .137-.045.273-.137.727-.317 1.25-.477 1.57-.477.41 0 .636.273.683.818-.046.136-.115.364-.205.683-.136.5-.227.886-.273 1.16-.136.954-.433 1.592-.887 1.91l-.067.067c0 .046-.046.068-.137.068-.182-.044-.364-.227-.546-.546-.092-.136-.16-.204-.204-.204a6.23 6.23 0 0 0-.137 1.364c-.045.818.228 1.297.818 1.433 1.682.228 2.934.023 3.752-.614.137-.273.25-.75.34-1.433v-.273l-.067-.204v-.068c0-.363.044-.568.137-.614.044.046.113.228.204.547.09.364.136.569.136.613.228.41.341.818.341 1.228-.045.637-.273 1.047-.682 1.228a12.161 12.161 0 0 1-3.344.34Zm-1.433-4.502c.045.273.273.41.683.41.317-.683.546-1.5.683-2.456v-.273a.93.93 0 0 0-.683.273c-.455.183-.683.523-.683 1.024v1.022Zm11.255 5.662c-.136 0-.318-.023-.546-.068a1.858 1.858 0 0 0-.41-.067c.137 0 .205-.024.205-.068-.046-.046-.251-.114-.614-.204l-.068.067h-.136c-.092 0-.137-.023-.137-.067.091-.137.432-.273 1.024-.41.18-.045.317-.067.41-.067.136 0 .317-.046.545-.137.228-.044.387-.068.478-.068 1.637-1.045 2.773-3.182 3.411-6.412a5.694 5.694 0 0 1-.137-.136c-.092-.137-.182-.228-.273-.274h-.204c-.228.046-.41.068-.546.068a7.313 7.313 0 0 1-.478.204c-.5.182-.864.273-1.09.273-.183-.044-.478-.158-.888-.34a.743.743 0 0 1-.136-.205c-.092-.09-.16-.158-.204-.204a.519.519 0 0 1-.068-.204c0-.227.228-.34.683-.34h.136c.091 0 .25.023.477.067.318.046.569.046.751 0 .273-.044.682-.091 1.227-.136.454-.092.795-.137 1.024-.137.273-1.728.409-3.251.409-4.57 0-.229-.045-.364-.136-.41h-.204v-.412c0-.045.091-.137.273-.273l.067-.068c.045 0 .137.023.273.068.318 0 .5.067.547.204v.546c-.093 1.227-.251 2.82-.478 4.775.955-.137 1.887-.25 2.797-.34.773 0 1.16.181 1.16.545-.045.182-.296.319-.75.41-1.047 0-2.138.092-3.274.273-.046.092-.068.227-.068.41 0 .136.068.318.204.546 1.545 2.32 3.138 3.866 4.775 4.638a23.4 23.4 0 0 1 3.342 1.364c.137.046.204.093.204.137 0 .09-.067.136-.204.136 0 .045-.023.068-.067.068a.513.513 0 0 0-.205.068h-.067c-.046-.046-.092-.068-.137-.068-.045 0-.092.022-.136.068-.046.044-.093.067-.137.067-.136 0-.296-.045-.477-.136a1.117 1.117 0 0 0-.273-.068c-.137-.045-.364-.068-.683-.068-.774-.045-1.296-.158-1.569-.34-1.547-.91-3.138-2.66-4.775-5.253-.818 3.684-2.184 5.843-4.093 6.48-.231.045-.48.068-.754.068Zm16.576-6.549c-.045-.227.274-.75.955-1.57a2.11 2.11 0 0 0 .204-.272c.228-.41.387-.614.478-.614h.067c.137.273.204.477.204.614.137-.045.318-.091.547-.137a4.32 4.32 0 0 1 .546-.067c-.182-.274-.273-.795-.273-1.57 0-.683-.115-1.228-.341-1.637 0-.045-.046-.113-.137-.204-.136-.274-.204-.478-.204-.614v-.137h.204c.636.092 1.068.273 1.297.546.273.547.386 1.41.341 2.592v.887a.525.525 0 0 0 .204-.068h.204a2.811 2.811 0 0 1-.068-.477c.091-.18.091-1.182 0-3.001a26.07 26.07 0 0 1-.067-1.637c0-.045-.046-.092-.137-.137h-.068c-.045 0-.067.023-.067.068-.137.045-.228.023-.273-.068 0-.044.044-.137.136-.273.318-.363.659-.41 1.024-.137.18.228.249.523.204.887.273 0 .546.068.818.204.273-.41.454-.75.546-1.023 0-.136-.092-.204-.273-.204 0-.044.091-.091.273-.137h.068c.409-.044.613.024.613.205 0 .227-.045.455-.136.682a7.635 7.635 0 0 0-.477.818.737.737 0 0 0 .204.137c.136.092.25.182.341.273l.136.136c.181.093.273.182.273.273.591 0 1 .024 1.228.068.136-.363.204-.727.204-1.091 0-.044-.182-.091-.546-.137-.501 0-.75-.044-.75-.136v-.068c.499-.18.977-.273 1.433-.273.453.046.704.297.75.75 0 .046-.046.183-.137.41a2.197 2.197 0 0 1-.136.41l-.41 1.433a20.703 20.703 0 0 1-.477 1.5c1.637 0 2.661.297 3.07.887 0 .046.022.092.068.137a.91.91 0 0 1 .204.546c0 .182-.068.34-.204.477-.046.092-.251.137-.614.137l-.137-.068h-.204a5.75 5.75 0 0 0-.682.068 4.274 4.274 0 0 1-.683.067c-.046 0-.137-.022-.273-.067a.624.624 0 0 0-.273-.068c-.092.046-.115.046-.068 0 .044-.091.341-.273.887-.546.546-.318.795-.5.75-.546-.273-.454-.954-.614-2.046-.478l-.065.067c-.227.319-.433.523-.613.614h-.274c-.045 0-.067-.045-.067-.137v-.136c.044-.228 0-.341-.137-.341-.818.046-1.546.137-2.183.273-.046.136-.114.228-.204.273-.092 0-.182-.068-.273-.204a7.26 7.26 0 0 1-.887.136c-.774.137-1.364.228-1.774.273-.546 1.274-1.047 1.956-1.501 2.047-.228-.045-.342-.25-.342-.615Zm9.073 1.705c-.591-.09-.91-.136-.954-.136h-1.364c.363 2 .295 3.73-.205 5.184-.182.318-.546.59-1.091.818a7.19 7.19 0 0 1-1.364-.477c-.227-.092-.364-.16-.409-.204a1.454 1.454 0 0 1-.341-.273c-.091-.137-.16-.204-.204-.204-.046-.046-.068-.093-.068-.137-.045-.045-.068-.092-.068-.136-.045 0-.136-.068-.273-.205v-.067h.068c1.228.362 2.137.522 2.728.477.318 0 .569-.273.751-.818.362-1.091.362-2.388 0-3.888-1.501.182-2.524.41-3.071.682-.273.137-.706.204-1.296.204-.273-.044-.477-.136-.614-.273 0-.044.044-.067.137-.067a.535.535 0 0 1 .204-.068c.454-.227 1.273-.432 2.455-.614.091 0 .228-.022.41-.067.499-.091 1.045-.181 1.637-.273-.046-.092-.092-.181-.137-.273-.045-.045-.067-.091-.067-.137h-.068c-.092 0-.137.023-.137.068h-.067c0-.045-.024-.068-.068-.068.137-.044.181-.113.137-.204-.093-.273-.297-.478-.614-.614-.046-.044-.092-.068-.137-.068-.045 0-.067-.067-.067-.204-.093.045-.228.114-.41.204-.273.182-.455.273-.546.273-.319 0-.455-.204-.41-.613.137-.454.363-.773.683-.955 0 .046.044.092.136.136.045.046.068.093.068.137 0 .045-.023.092-.068.137v.067c0 .137.068.204.205.204.227 0 .522-.067.887-.204.227-.09.386-.159.477-.204.091 0 .227-.044.409-.137.636-.136 1.137-.204 1.501-.204h.341c.181.046.273.182.273.41v.136c.091.046.091.137 0 .273-.637.592-1.274 1.024-1.91 1.297 0 .045.022.114.067.204v.204a29.656 29.656 0 0 1 1.911-.067c.59.136.931.296 1.023.477-.002.132-.162.223-.48.267Zm-4.092-8.321v1.023a.796.796 0 0 0 .136-.204c.045-.091.159-.25.341-.477a23.056 23.056 0 0 1-.204-.205c-.137-.046-.229-.092-.273-.137Zm.068 3.342c.181-.091.409-.295.682-.614-.273-.454-.5-.683-.682-.683v1.297Zm.068.75v.137c.5-.091.978-.159 1.433-.205l-.273-.546a.76.76 0 0 0-.136-.273c-.32.41-.661.706-1.024.887Zm1.432-3.001c0-.091-.182-.228-.546-.41a19.6 19.6 0 0 0-.818 1.024c.363.092.683.25.955.477.273-.454.409-.818.409-1.091Zm-.954 4.775c-.046 0-.068.023-.068.068-.045 0-.092.023-.136.067a.783.783 0 0 0-.205.137c.636.318.955.523.955.614.683-.454 1.136-.887 1.364-1.297-.502-.043-1.138.093-1.91.41Zm0 .068v-.068c0 .046-.024.068-.068.068h.068Zm1.773-4.775c-.045.318-.296.795-.75 1.432.363.41.546.865.546 1.365h.478c.227-.363.362-.683.409-.955-.045-.044-.136-.068-.273-.068-.501-.136-.75-.34-.75-.613 0-.137.067-.181.204-.137 0 .137.228.204.683.204h.273c.136-.317.227-.59.273-.818h-.614l-.068.068.068-.136v-.068c-.092-.091-.252-.182-.479-.274Zm-.613 5.594-.068.068h.068V60.8Zm.067-.137h-.067c.044.046.067.046.067 0Zm.82-4.842.067-.068c0 .044-.023.068-.067.068ZM41.37 72.902c-.447.068-.47.167-.47.5v.683c0 .265.006.493.067.644-.494.122-1.138.312-1.76.312-1.653 0-2.821-1.001-2.821-2.442 0-1.662 1.403-2.534 2.897-2.534.645 0 1.22.13 1.479.206.023.219.06.652.13 1.122l-.122.015c-.251-.955-.842-1.16-1.623-1.16-1.457 0-2.223.84-2.223 2.244 0 1.062.606 2.36 2.283 2.36.403 0 .744-.046.971-.121.228-.076.319-.182.319-.516v-.66c0-.463-.039-.592-.904-.653v-.106h1.775v.106h.002Zm1.296.804c0 .759.364.956.789.956.303 0 .667-.152.986-.47v-1.67c0-.446-.106-.478-.38-.53l-.288-.046v-.082a5.703 5.703 0 0 0 1.032-.137V74.2c0 .379.083.417.38.44l.227.015v.106c-.312.037-.637.152-.934.258l-.038-.039v-.583c-.197.143-.386.311-.653.447-.219.128-.379.167-.576.167-.455 0-.91-.235-.91-1.077V72.53c0-.447-.115-.486-.273-.531l-.243-.054v-.076c.175-.015.736-.106.903-.143-.022.151-.022.418-.022.986v.994Zm3.041 1.116c.486-.039.561-.137.561-.577v-1.579c0-.485-.053-.522-.485-.598v-.098c.319-.068.561-.152.85-.304v2.58c0 .44.075.538.569.576v.106h-1.495v-.106Zm1.04-4.507c0 .16-.129.303-.288.303-.152 0-.289-.144-.289-.303 0-.182.137-.319.288-.319.176 0 .289.16.289.319Zm1.213 1.32c.039.106.137.144.433.136h1.76l.03.083c-.697.949-1.426 1.912-2.078 2.906h.971c.6 0 .736-.175 1.161-.737l.106.068c-.067.197-.19.5-.325.835h-2.466l-.015-.061a53.747 53.747 0 0 0 2.071-2.928h-.782c-.622 0-.743.19-1.077.728l-.121-.037c.068-.22.182-.713.242-1.001l.09.008Zm2.58 3.187c.461-.03.545-.145.545-.614v-3.565c0-.477-.045-.508-.569-.607v-.083c.342-.06.728-.175.934-.258v2.58c.303-.32.735-.584 1.183-.584.584 0 1.016.379 1.016 1.252v1.267c0 .477.083.584.546.614v.106H52.71v-.106c.508-.03.576-.145.576-.66v-1.04c0-.713-.212-1.093-.933-1.093-.357.024-.691.175-.904.44v1.692c0 .516.076.63.599.661v.106h-1.502l-.006-.108Zm7.448-1.532a1.69 1.69 0 0 1-1.669 1.72c-1.001 0-1.684-.758-1.684-1.584 0-1.229 1.032-1.738 1.669-1.738.956 0 1.684.72 1.684 1.602Zm-2.876-.115c0 .971.51 1.662 1.313 1.662.637 0 1.1-.41 1.1-1.434 0-.737-.446-1.532-1.289-1.532-.699 0-1.123.546-1.123 1.304Zm4.294.531c0 .759.364.956.788.956.304 0 .668-.152.986-.47v-1.67c0-.446-.106-.478-.379-.53l-.288-.046v-.082a5.703 5.703 0 0 0 1.032-.137V74.2c0 .379.082.417.379.44l.227.015v.106c-.311.037-.637.152-.933.258l-.039-.039v-.583c-.197.143-.386.311-.652.447-.22.128-.38.167-.576.167-.456 0-.91-.235-.91-1.077V72.53c0-.447-.115-.486-.274-.531l-.242-.054v-.076c.175-.015.736-.106.903-.143-.022.151-.022.418-.022.986v.994Zm4.627 1.116c.448-.03.66-.182.72-.395.061-.227.084-.645.084-1.41V71.37c0-.676-.039-.637-.175-.804-.129-.152-.289-.236-.691-.281v-.107h.933l3.505 4.005h.023v-2.162c0-1.48-.008-1.677-.895-1.738v-.106h1.88v.106c-.44.039-.63.183-.697.403-.068.235-.076.622-.076 1.335v2.958h-.083l-3.497-3.983h-.015v2.018c.007.767.015 1.183.068 1.396.067.234.296.37.804.41v.106h-1.89v-.104h.001Zm9.17-1.532a1.69 1.69 0 0 1-1.668 1.72c-1.001 0-1.684-.758-1.684-1.584 0-1.229 1.031-1.738 1.668-1.738.956 0 1.684.72 1.684 1.602Zm-2.875-.115c0 .971.509 1.662 1.313 1.662.637 0 1.1-.41 1.1-1.434 0-.737-.447-1.532-1.29-1.532-.698 0-1.123.546-1.123 1.304Zm3.437 1.647c.462-.03.539-.137.539-.614V72.72c0-.554-.054-.599-.524-.652v-.091a2.65 2.65 0 0 0 .888-.319v.926h.015c.182-.41.592-.895.963-.895.227 0 .372.197.372.318 0 .145-.152.281-.266.281-.03 0-.054-.007-.068-.038-.113-.106-.175-.159-.318-.159-.206 0-.5.34-.698.895v1.237c0 .47.068.57.675.599v.106h-1.577v-.107h-.001Zm2.457 0c.546-.039.646-.145.646-.622v-1.495c0-.509-.03-.54-.501-.63v-.098c.319-.068.63-.144.873-.319v.614c.78-.546.986-.584 1.205-.584.282 0 .646.213.797.614.888-.591 1.108-.614 1.26-.614.554 0 .918.388.918.919v1.555c0 .555.076.63.53.66v.107h-1.54v-.106c.531-.03.645-.129.645-.676v-1.183c0-.477-.122-.94-.79-.94-.318.014-.66.212-.963.44.008.106.023.19.023.235v1.463c0 .516.083.63.531.66v.107h-1.555v-.106c.569-.03.66-.145.66-.66v-1.23c0-.493-.145-.91-.804-.91-.357 0-.683.265-.925.447v1.692c0 .516.076.63.493.66v.107h-1.502v-.107Zm8.381.189a.677.677 0 0 1-.243-.137c-.09-.098-.121-.19-.166-.356-.297.228-.638.493-.919.493a.853.853 0 0 1-.88-.865c0-.34.235-.584.759-.743.387-.114.865-.297 1.04-.403 0-.371-.008-1.031-.691-1.031-.122.007-.531.037-.66.644-.016.053-.062.13-.168.13-.106 0-.227-.107-.227-.259 0-.114.09-.204.212-.273.19-.13.698-.44 1.07-.524.371 0 .842.243.842.91v1.632c0 .311.114.433.273.433a.65.65 0 0 0 .333-.098l.068.13-.643.317Zm-.41-1.82c-.16.09-.637.272-.803.341-.342.129-.547.273-.547.555 0 .394.319.598.592.598.258 0 .599-.19.758-.387V73.19Zm1.192 1.63c.485-.03.561-.136.561-.606v-3.55c0-.524-.06-.576-.546-.622v-.091c.372-.046.782-.182.91-.258v4.52c0 .471.068.577.57.608v.106h-1.495v-.106Zm7.95-2.382c0 .949-.13 1.562-.6 2.048-.335.334-.857.53-1.39.53-.446 0-.886-.099-1.235-.379-.395-.318-.6-.788-.6-1.646v-1.92c0-.652-.06-.728-.735-.789v-.106h1.828v.106c-.645.016-.697.183-.697.79v1.683c0 1.343.613 1.935 1.638 1.935 1.168 0 1.578-.895 1.586-2.215v-.401c0-.828-.008-1.138-.06-1.366-.054-.242-.289-.37-.82-.424v-.107h1.866v.107c-.418.045-.668.182-.706.417-.037.235-.076.54-.076 1.374v.363Zm1.159 2.383c.44-.03.561-.145.561-.599v-1.525c0-.509-.053-.54-.478-.622v-.1c.303-.075.607-.143.842-.318v.63c.152-.092.341-.228.577-.387.212-.13.402-.213.614-.213.63 0 .986.388.986.986v1.51c0 .531.067.607.493.638v.106h-1.464v-.106c.516-.03.607-.137.607-.638v-1.243c0-.433-.122-.919-.82-.919-.372 0-.758.228-.994.462v1.708c0 .485.076.6.599.63v.106h-1.525v-.106h.002Zm3.997 0c.485-.039.561-.137.561-.577v-1.579c0-.485-.054-.522-.485-.598v-.098c.318-.068.56-.152.85-.304v2.58c0 .44.075.538.569.576v.106H98.49v-.106Zm1.04-4.507c0 .16-.129.303-.289.303-.151 0-.288-.144-.288-.303 0-.182.137-.319.288-.319.174 0 .288.16.288.319Zm4.163 1.563c-.418.067-.47.136-.736.621a33.71 33.71 0 0 0-1.153 2.512h-.122c-.288-.85-.63-1.707-.94-2.503-.204-.486-.236-.562-.705-.63v-.107h1.381v.106c-.273.054-.388.083-.388.228 0 .076.03.175.091.326.16.417.477 1.328.735 1.957.312-.653.911-1.988.911-2.239 0-.175-.13-.227-.418-.273v-.106h1.343v.108h.001Zm2.7 2.473c-.447.516-.964.66-1.137.66-.895 0-1.45-.712-1.45-1.516 0-1.116.91-1.805 1.525-1.805.653 0 1.123.53 1.123 1.07 0 .151-.007.175-.128.197-.122.022-1.093.106-2.139.136-.008 1.153.682 1.563 1.205 1.563.258 0 .531-.054.919-.418l.082.113Zm-2.161-1.501c.175 0 1.244-.016 1.571-.024.19 0 .19-.076.19-.121 0-.425-.318-.804-.865-.804-.38 0-.783.334-.896.949Zm2.67 1.972c.462-.03.539-.137.539-.614V72.72c0-.554-.053-.599-.524-.652v-.091c.312-.06.615-.152.888-.319v.926h.016c.182-.41.591-.895.962-.895.228 0 .372.197.372.318 0 .145-.151.281-.266.281-.03 0-.053-.007-.067-.038-.113-.106-.175-.159-.319-.159-.205 0-.5.34-.698.895v1.237c0 .47.068.57.676.599v.106h-1.578v-.107h-.001Zm2.723-.927c.143.486.485.949.948.949.319 0 .607-.182.607-.6 0-.401-.258-.599-.63-.75-.477-.182-.902-.433-.902-.91 0-.47.425-.904 1.084-.896.273 0 .455.061.592.122.053.175.121.554.143.766l-.106.046c-.13-.38-.41-.767-.797-.767-.372 0-.561.258-.561.562 0 .37.372.554.675.675.531.204.904.478.904.971 0 .607-.555.949-1.138.949-.395 0-.713-.137-.819-.25-.054-.121-.091-.585-.115-.827l.115-.04Zm2.366.927c.486-.039.561-.137.561-.577v-1.579c0-.485-.053-.522-.485-.598v-.098a3.06 3.06 0 0 0 .85-.304v2.58c0 .44.075.538.569.576v.106h-1.495v-.106Zm1.04-4.507c0 .16-.129.303-.288.303-.152 0-.289-.144-.289-.303 0-.182.137-.319.289-.319.173 0 .288.16.288.319Zm2.237 4.613a.564.564 0 0 1-.312.083c-.424 0-.63-.304-.63-.82v-2.177h-.546l-.022-.083.204-.16h.364v-.418l.258-.515.106-.008v.94h.91c.016.03.023.06.023.091a.197.197 0 0 1-.076.152h-.858v1.972c0 .615.204.743.455.743.258 0 .44-.106.524-.151l.061.114-.461.237Zm.418-3.157h1.388v.106c-.266.054-.394.099-.394.25 0 .046.015.115.052.19l.82 2.018c.114-.234.849-1.79.849-2.17 0-.197-.128-.242-.44-.288v-.106h1.419v.106c-.425.054-.455.145-.691.547-.227.387-.5 1.009-1.13 2.305-.555 1.138-.759 1.571-.865 1.973-.039.113-.122.151-.221.151-.182 0-.34-.151-.34-.311 0-.106.082-.16.19-.236.554-.38.933-1.38.933-1.463 0-.091-.447-1.344-.88-2.39-.166-.388-.219-.5-.69-.577v-.105Z"/></g><defs><filter id="a" width="154" height="157" x="0" y="0" color-interpolation-filters="sRGB" filterUnits="userSpaceOnUse"><feFlood flood-opacity="0" result="BackgroundImageFix"/><feColorMatrix in="SourceAlpha" result="hardAlpha" values="0 0 0 0 0 0 0 0 0 0 0 0 0 0 0 0 0 0 127 0"/><feOffset dy="16"/><feGaussianBlur stdDeviation="6.5"/><feColorMatrix values="0 0 0 0 0 0 0 0 0 0 0 0 0 0 0 0 0 0 0.03 0"/><feBlend in2="BackgroundImageFix" result="effect1_dropShadow_192_905"/><feBlend in="SourceGraphic" in2="effect1_dropShadow_192_905" result="shape"/></filter></defs></svg>