<svg xmlns="http://www.w3.org/2000/svg" width="154" height="157" fill="none"><g filter="url(#a)"><path fill="#fff" d="M13 0h128v128H13z"/><path fill="#231916" fill-rule="evenodd" d="M58.057 71.195h-.234l-.042-.193a.408.408 0 0 1-.172.138.59.59 0 0 1-.256.055c-.193 0-.365-.09-.517-.269-.152-.179-.228-.467-.228-.862 0-.433.07-.754.207-.966a.643.643 0 0 1 .566-.318.59.59 0 0 1 .497.235c.12.156.18.359.18.607h-.304c0-.193-.033-.338-.097-.434a.312.312 0 0 0-.276-.145c-.147 0-.258.075-.331.227-.074.152-.11.408-.11.766 0 .34.045.575.138.704.091.129.197.193.317.193a.34.34 0 0 0 .283-.131c.069-.087.103-.223.103-.407v-.152h-.428v-.262h.704v1.214ZM59.838 70.478c0 .22-.058.396-.173.525-.115.129-.296.193-.545.193-.248 0-.43-.064-.545-.193-.115-.129-.173-.304-.173-.525v-1.67h.318v1.67c0 .157.037.272.11.345.074.074.17.11.29.11a.39.39 0 0 0 .29-.11c.073-.073.11-.188.11-.345v-1.67h.318v1.67ZM61.122 70.174l-.22-.842h-.028l-.221.843h.469Zm.593.994h-.33l-.194-.731h-.607l-.193.731h-.332l.69-2.388h.277l.69 2.388ZM63.358 71.168h-.345l-.758-1.712h-.014v1.712h-.318v-2.36h.345l.759 1.711h.014v-1.711h.317v2.36ZM65.126 71.195h-.235l-.041-.193a.41.41 0 0 1-.173.138.592.592 0 0 1-.255.055c-.193 0-.366-.09-.518-.269-.151-.179-.227-.467-.227-.862 0-.433.069-.754.207-.966a.642.642 0 0 1 .565-.318.59.59 0 0 1 .497.235c.12.156.18.359.18.607h-.304c0-.193-.032-.338-.097-.434a.312.312 0 0 0-.276-.145c-.147 0-.257.075-.33.227-.074.152-.111.408-.111.766 0 .34.046.575.138.704.092.129.198.193.317.193a.34.34 0 0 0 .283-.131c.07-.087.104-.223.104-.407v-.152h-.428v-.262h.704v1.214ZM66.92 71.168h-1.477v-.262l1.118-1.836h-1.035v-.262h1.353v.262l-1.118 1.836h1.159v.262ZM68.66 71.168h-.317v-1.104h-.787v1.104h-.318v-2.36h.318v.994h.787v-.994h.317v2.36ZM70.15 69.98c0-.386-.041-.638-.124-.758-.083-.12-.184-.18-.303-.18-.12 0-.224.06-.311.18-.088.12-.131.373-.131.759s.043.642.131.766c.087.124.19.186.31.186s.221-.062.304-.186c.083-.124.124-.38.124-.766Zm.331 0c0 .433-.066.744-.2.932a.646.646 0 0 1-.558.283.663.663 0 0 1-.566-.283c-.138-.188-.207-.499-.207-.931 0-.432.069-.74.207-.925a.67.67 0 0 1 .566-.276c.239 0 .425.092.558.276.134.184.2.493.2.925ZM72.208 70.478c0 .22-.058.396-.173.525-.115.129-.296.193-.545.193-.248 0-.43-.064-.545-.193-.115-.129-.172-.304-.172-.525v-1.67h.317v1.67c0 .157.037.272.11.345.074.074.17.11.29.11a.39.39 0 0 0 .29-.11c.074-.073.11-.188.11-.345v-1.67h.318v1.67ZM75.742 70.478c0 .22-.058.396-.173.525-.115.129-.296.193-.545.193-.248 0-.43-.064-.545-.193-.115-.129-.173-.304-.173-.525v-1.67h.318v1.67c0 .157.037.272.11.345.074.074.17.11.29.11a.39.39 0 0 0 .29-.11c.073-.073.11-.188.11-.345v-1.67h.318v1.67ZM77.495 71.168h-.345l-.76-1.712h-.013v1.712h-.318v-2.36h.346l.758 1.711h.014v-1.711h.318v2.36ZM78.392 71.168h.318v-2.36h-.318v2.36ZM81.14 68.808l-.69 2.388h-.277l-.69-2.388h.331l.483 1.808h.028l.483-1.808h.331ZM82.823 71.168h-1.407v-2.36h1.338v.262h-1.02v.732h.938v.262h-.939v.842h1.09v.262ZM84.26 69.484c0-.128-.04-.23-.118-.303-.078-.074-.205-.11-.38-.11h-.303v.814h.386c.11 0 .207-.03.29-.09.082-.06.124-.163.124-.31Zm.385 1.684h-.33l-.498-1.021h-.358v1.021h-.318v-2.36h.69c.22 0 .4.053.538.159.138.106.207.278.207.517 0 .184-.046.327-.137.428a.614.614 0 0 1-.318.194l.525 1.062ZM86.357 70.506c0 .211-.066.38-.2.503-.133.124-.315.187-.545.187-.23 0-.41-.065-.538-.193a.656.656 0 0 1-.193-.484v-.096h.317v.083c0 .138.042.243.124.317.083.074.18.11.29.11.147 0 .255-.039.325-.117a.413.413 0 0 0 .103-.283.347.347 0 0 0-.124-.255 1.175 1.175 0 0 0-.359-.214c-.22-.083-.38-.175-.476-.276a.503.503 0 0 1-.145-.359.6.6 0 0 1 .2-.469.688.688 0 0 1 .476-.18c.24 0 .412.072.518.214a.761.761 0 0 1 .159.463h-.318a.38.38 0 0 0-.083-.276.328.328 0 0 0-.276-.124.37.37 0 0 0-.262.09.314.314 0 0 0-.097.24.32.32 0 0 0 .076.215c.05.06.182.13.394.214.202.082.359.181.469.296.11.115.165.247.165.394ZM87.228 71.168h.317v-2.36h-.317v2.36ZM89.864 69.07h-.552v2.098h-.317V69.07h-.552v-.262h1.421v.262ZM91.728 68.808l-.649 1.297v1.063h-.317v-1.063l-.649-1.297h.317l.484 1.008h.013l.483-1.008h.318ZM94.89 69.98c0-.386-.042-.638-.125-.758-.083-.12-.184-.18-.304-.18s-.223.06-.31.18-.131.373-.131.759.044.642.131.766c.087.124.19.186.31.186s.221-.062.304-.186c.083-.124.124-.38.124-.766Zm.33 0c0 .433-.066.744-.2.932a.646.646 0 0 1-.559.283.663.663 0 0 1-.565-.283c-.139-.188-.207-.499-.207-.931 0-.432.069-.74.207-.925a.67.67 0 0 1 .565-.276c.24 0 .426.092.56.276.133.184.2.493.2.925ZM96.974 69.07h-1.132v.773h.856v.262h-.856v1.063h-.317v-2.36h1.449v.262ZM100.536 70.23c-.01.35-.083.598-.221.745a.658.658 0 0 1-.497.22c-.22 0-.41-.09-.566-.268-.156-.18-.234-.467-.234-.863 0-.432.075-.754.227-.966.152-.211.347-.317.587-.317.202 0 .37.076.503.227.134.152.196.366.187.642h-.304c0-.202-.032-.354-.097-.455a.32.32 0 0 0-.29-.152c-.146 0-.264.076-.351.228-.088.151-.131.407-.131.765 0 .332.043.564.131.697.087.134.2.2.338.2.101 0 .193-.048.276-.144.083-.097.124-.283.124-.56h.318ZM102.234 71.168h-.317v-1.104h-.787v1.104h-.318v-2.36h.318v.994h.787v-.994h.317v2.36ZM103.131 71.168h.317v-2.36h-.317v2.36ZM105.768 71.168h-.345l-.759-1.712h-.014v1.712h-.318v-2.36h.345l.759 1.711h.014v-1.711h.318v2.36ZM107.562 71.168h-1.407v-2.36h1.338v.262h-1.021v.732h.938v.262h-.938v.842h1.09v.262ZM109.329 70.506c0 .211-.067.38-.2.503-.133.124-.315.187-.545.187-.23 0-.41-.065-.538-.193a.656.656 0 0 1-.194-.484v-.096h.318v.083c0 .138.041.243.124.317.083.074.179.11.29.11.147 0 .255-.039.324-.117a.413.413 0 0 0 .104-.283.35.35 0 0 0-.124-.255 1.186 1.186 0 0 0-.359-.214c-.221-.083-.38-.175-.476-.276a.501.501 0 0 1-.145-.359c0-.193.066-.35.2-.469a.688.688 0 0 1 .476-.18c.239 0 .412.072.517.214a.76.76 0 0 1 .159.463h-.317a.382.382 0 0 0-.083-.276.329.329 0 0 0-.276-.124.37.37 0 0 0-.262.09.313.313 0 0 0-.097.24c0 .084.025.155.076.215.05.06.182.13.393.214.203.082.359.181.47.296.11.115.165.247.165.394ZM111.097 71.168h-1.408v-2.36h1.339v.262h-1.021v.732h.938v.262h-.938v.842h1.09v.262ZM114.644 71.168h-.276v-1.684h-.027l-.332 1.684h-.22l-.332-1.684h-.027v1.684h-.276v-2.36h.428l.303 1.56h.028l.303-1.56h.428v2.36ZM116.397 71.168h-1.407v-2.36h1.339v.262h-1.022v.732h.939v.262h-.939v.842h1.09v.262ZM117.847 69.995c0-.34-.055-.58-.165-.718-.111-.138-.276-.207-.497-.207h-.152v1.836h.152c.221 0 .386-.067.497-.2.11-.133.165-.37.165-.711Zm.331 0c0 .423-.089.724-.269.904-.179.18-.42.269-.724.269h-.469v-2.36h.469c.34 0 .591.092.752.276.161.184.241.488.241.91ZM119.035 71.168h.317v-2.36h-.317v2.36ZM121.74 70.23c-.009.35-.083.598-.221.745a.656.656 0 0 1-.496.22.725.725 0 0 1-.566-.268c-.157-.18-.235-.467-.235-.863 0-.432.076-.754.228-.966.151-.211.347-.317.586-.317.203 0 .371.076.504.227.133.152.195.366.187.642h-.304c0-.202-.033-.354-.097-.455a.32.32 0 0 0-.29-.152c-.147 0-.264.076-.351.228-.088.151-.132.407-.132.765 0 .332.044.564.132.697.087.134.2.2.338.2.101 0 .193-.048.276-.144.082-.097.124-.283.124-.56h.317ZM122.568 71.168h.318v-2.36h-.318v2.36ZM125.205 71.168h-.345l-.759-1.712h-.014v1.712h-.317v-2.36h.345l.759 1.711h.014v-1.711h.317v2.36ZM127 71.168h-1.408v-2.36h1.339v.262h-1.021v.732h.938v.262h-.938v.842H127v.262ZM59.036 64.164c-.075.056-.144.118-.214.18.014.275.155.91.509.915.354-.012.44-.034.496-.416.06-.136.062-.353.206-.42.036-.12.036-.12.038-.303-.134-.207-.84.001-1.035.044Z" clip-rule="evenodd"/><path fill="#231916" fill-rule="evenodd" d="M61.27 58.93c-.14.135-.43.075-.58.221l-.183-.002c-.056-.08-.112-.156-.163-.23-.397-.223-.617.003-.622.408-.076.102-.225.135-.323.23-.06.205-.06.205-.124.313-.114-.058-.15-.362-.171-.482-.04-.04-.074-.081-.107-.116l.018-.091a.286.286 0 0 1 .075-.022c.116-.141.292-.128.391-.258.242-.128.242-.128.317-.144.001-.115.334-.247.409-.27 0-.01.006-.022.012-.033.074 0 .218-.06.242-.129.526-.05.549-.073.703-.088a2.41 2.41 0 0 1 .442-.16l.018-.05a.357.357 0 0 1 .08-.006c-.004.332-.056.823-.434.91Zm.362 3.834c0-.023.006-.04.012-.057.218-.06.234-.409.11-.57-.148-.02-.2-.06-.174-.214.12-.056.235-.089.361-.104 0 .011.005.023.01.04.087.001.132.002.2.054.025.286.16.888-.19 1.083a.91.91 0 0 0-.048.131c-.052.005-.103.01-.155.021-.022-.023-.17-.037-.268-.078.008-.108.027-.274.142-.306Zm-.444-2.846c-.127.17-.127.17-.134.215-.178.05-.2.072-.31.082-.1-.116-.064-.293-.062-.435.145-.164.42-.309.65-.283-.048.136-.096.278-.144.42Zm-1.082.626c-.355.087-.614.186-.986.221-.05-.166-.006-.388.166-.472l.02-.125c.119.024.255.129.38.17.16-.072.235-.094.4-.04.039.109.056.143.02.246Zm1.479.088.723-.231a.08.08 0 0 1 .012-.034c.24-.094 1.073-.34 1.183.004.307.078.844.09.947-.308-.021-.166-.05-.195-.054-.241l-.115-.002c-.005-.017-.01-.028-.01-.04-.103-.04-.251-.083-.313-.175-.205-.054-.369-.176-.592-.18-.51.114-.994.417-1.52.456.055-.263.235-.466.46-.6.017-.057.035-.086.097-.096l.001-.046c.167-.078.447-.063.636-.078.006-.034.035-.045.11-.18-.01-.058-.015-.115-.02-.167-.121-.373-.203-.271-.5-.275l.001-.04c-.017-.006-.034-.012-.046-.012-.132-.333-.496-.47-.845-.445-.011-.029-.011-.029.006-.075.339-.08.613-.1.961-.095.134-.13.283-.151.444-.235.43-.097.394-.423.232-.763-.04-.029-.222-.048-.33-.084v-.045c-.34-.177-.747-.05-1.07.106a12.302 12.302 0 0 0-.462-.018c-.096-.047-.141-.144-.25-.197l.002-.046h-.04v-.04c-.124-.094-.221-.1-.375-.12v-.017c-.326-.027-.326-.027-.417-.01-.367.114-.434.405-.347.743h.034c0 .012 0 .024.005.035.142.082.199.14.22.3-.23.123-.442.097-.65.277-.08.005-.4.03-.402.127-.394-.017-.422-.04-.696-.055-.005-.017-.011-.029-.011-.04-.108-.03-.16-.048-.262-.032-.018.04-.036.08-.087.079-.292.447-.069.919.293 1.226.004.16-.09.268-.17.393-.033.285-.077.61-.19.866-.06.32-.287.613-.331.921-.153.301-.288.59-.344.922-.162.157-.263.876-.3 1.093a2.665 2.665 0 0 0-.16.5 1.53 1.53 0 0 0-.2.5c-.158.245-.232.587-.235.878.437.257.552-.273.676-.62.157-.152.197-.609.397-.652.06-.13.124-.255.188-.38.075-.017.212-.449.27-.563.283-.236.417-.829.558-1.158.013-.086.004-.286.141-.284.042-.131.321-.087.4-.006l.428.022c.168-.117.603-.192.68-.34.13-.038.13-.038.28-.047v-.046c.16-.027.259-.077.436-.074.13.498-.5.268-.704.465a.505.505 0 0 0-.097.01c-.081.102-.072.285-.085.416.04.058.084.115.129.179.165.03.387.125.494.235-.04.062-.126.055-.196.094-.026.32.064.384.372.434.056.12.008.251-.005.383a5.544 5.544 0 0 0-.333.138v.046c-.04.005-.053.034-.099.062-.085-.007-.17-.008-.251-.01-.021-.137.14-.712.005-.782l-.016-.143c-.045-.058-.294-.267-.294-.273-.254-.174-.556-.699-.775-.147-.015.252-.074.473-.112.724.023.023.055.19.1.287h.034c.032.127.032.127.171.409.08.047.119.121.157.213h.046c.061.127.227.158.346.223.154.007.314.015.474.028l.325.005c.23-.072.523-.176.769-.185.136.082.272.164.408.251.194.009.388.017.582.03.358.182.16.517.304.816a.477.477 0 0 1 .214.289c.208.214.666.134.71-.168.088-.142.215-.66-.007-.715-.058.01-.11.022-.16.038.063-.09.063-.09.081-.164-.017-.006-.028-.012-.04-.013-.048-.206-.34-.255-.516-.27-.074-.046-.153-.11-.244-.122a.481.481 0 0 1-.015-.223h.04c.036-.09.1-.113.129-.21.344-.532.4-1.349.408-1.966a.72.72 0 0 1-.305-.278c-.592-.196-.592-.196-.614-.22-.28-.003-.435.018-.688.14-.085-.012-.17-.019-.257-.026-.01-.046-.044-.08-.055-.155.04-.017.04-.017.093-.101ZM125.216 62.151c-.27-.172-.571-.036-.868-.038-.106.044-.569.21-.622.046.061-.059.061-.059.149-.088l.003-.045c.093-.023.1-.137.215-.13.112-.153.24-.368.407-.466a2.54 2.54 0 0 1 .058-.105l.046.003c.129-.221.053-.472.046-.713-.072-.05-.072-.05-.081-.086-.246-.004-.559-.035-.738.177a.508.508 0 0 0-.099.016l-.57-.036c-.255-.04-.246-.01-.357.218l-.04-.003c-.115.273-.381.496-.389.8a.17.17 0 0 1 .051.014c.019.23.435.08.566.083l.003-.035c.07-.024.267-.149.294-.216.082-.017.082-.017.299-.015.128.146-.25.328-.256.419-.041.009-.143.002-.147.065a.322.322 0 0 0-.081.018c-.015.05-.024.101-.033.152.061.027.23.072.177.183l-.525.155-.003.046c-.093.023-.093.023-.3.032-.163.042-.339.116-.502.146-.254.224-.954.06-1.205.038-.013.13-.028.261-.036.392.036.065.14.324.225.33.035.093.147.118.229.18.16.01.655-.038.695-.207.15-.025.248-.116.448-.103l.002-.046c.169-.047.322-.105.494-.117.152-.134.901-.292.702.125.096.109-.257.985-.468.972-.025.021-.197.033-.268.063l-.003.046c-.134.042-.134.042-.276.12-.208.02-.668.048-.735.301-.015.583.692.102.802.441a.233.233 0 0 1 .057.01c-.001.01.004.023.008.04.018.001.034.008.051.015.045.106.212.18.332.187a.076.076 0 0 1 .014-.04c.137-.002.401-.185.45-.325.012-.005.023-.01.04-.01.051-.168.122-.192.237-.293.13-.25.313-.513.416-.775l-.022-.025c.023-.084.051-.168.079-.247-.009-.035-.117-.849-.08-.892.155-.008.293-.022.444-.058.262.023.815.247.97-.024-.028-.105-.05-.21-.072-.313-.101-.041-.171-.28-.233-.382Z" clip-rule="evenodd"/><path fill="#231916" fill-rule="evenodd" d="M124.763 58.664c-.112-.128.038-.336.177-.361.021.122-.077.304-.177.36Zm-.133.736c-.16.075-.417.162-.595.174l-.022-.025c.032-.05.032-.05.184-.189.024-.101.047-.197.076-.292.131.008.275.086.417.106-.022.073-.044.147-.06.226Zm-1.234.396a.375.375 0 0 1 .011-.08.342.342 0 0 1 .041-.014c.026-.136.034-.261.179-.286-.005.074.335.13.364.132-.101.13-.439.235-.595.248Zm-.448-1.5c.015-.05.035-.1.055-.145.076-.024.152-.048.234-.071.185-.12.081-.293.363-.304.04.18-.042.301-.159.42a1.28 1.28 0 0 0-.493.1Zm-.187 1.666-.058-.067.054-.312c.159-.252.327-.734.168-1.014l.024-.101c.032.025.032.025.078.027.04.186.126.358.279.47-.015.246-.178.367-.322.57-.036.376.165.09.331.279-.12.09-.411.151-.554.148Zm.634-3.367c.053-.03.053-.03.098-.108.023-.004.046-.003.069-.002.034.186-.038.594-.145.753-.071.035-.071.035-.146.042-.015-.213.059-.483.124-.685Zm3.373 3.21c-.039-.014-.113-.11-.122-.15l-.04-.003c-.071-.142-.192-.219-.336-.285l.002-.046c-.017 0-.034-.002-.045-.003-.045-.111-.173-.165-.281-.172-.237.128-.387.233-.65.216.003-.498.18-.939.337-1.416.025-.027.065-.207.096-.246.102-.337.294-.668.317-1.021-.017-.007-.033-.014-.045-.015-.057-.18-.237-.227-.397-.323-.377-.024-.733.263-.569.657l.046.003c.013.058.013.058.092.166-.002.131-.004.251-.063.357-.04-.003-.074-.005-.108-.002-.005-.017-.01-.029-.009-.04-.296-.128-.894-.166-.686.334l.169.045c.036.071.069.09.072.136-.158.22-.249.488-.389.714l-.081-.005-.03-.054a.853.853 0 0 0 .235-.546c-.03-.059-.03-.059-.072-.228-.1-.046-.114-.093-.189-.166.001-.109.008-.217.015-.326.136-.065.357-.126.462-.245a.213.213 0 0 1 .064-.007c.058-.111.11-.291.061-.415-.088-.068-.13-.037-.18.04-.034-.007-.069-.01-.097-.011.008-.126.183-.172.214-.301-.105-.156-.101-.219-.089-.407-.017-.007-.028-.013-.039-.014-.06-.13-.167-.263-.332-.273l-.002.04c-.186.045-.395.352-.525.505-.103-.007-.205-.11-.239-.199-.046-.009-.198-.041-.194-.104-.16-.005-.453-.075-.554.062.021.488.062 1 .065 1.499a.466.466 0 0 1-.13.238c-.257-.017-.362-.161-.498-.353-.05-.026-.095-.052-.139-.072-.005-.017-.01-.03-.009-.04-.436.023-.3.484-.327.826-.169.482-.047 1.085.248 1.487.151-.024.276-.108.436-.098.05.198.156.337.072.566-.298.187-.537.252-.877.207.002-.12.003-.234.01-.348-.037-.043-.138-.072-.135-.123a2.15 2.15 0 0 0-.2-.007c-.205.078-.327.19-.512.305l-.003.045c-.116.022-.287.205-.296.337-.214.037-.349.446-.423.613-.001.11-.009.59.179.602l-.002.04.04.002c.016.105.02.139.089.218.039.02.212.088.208.145.05.02.1.046.15.072.265-.017.366-.074.406-.351.033-.061.13-.324.244-.317.014-.045.029-.09.048-.134.124-.044.173-.104.265-.195.029-.004.452-.183.456-.235l.069-.012a.693.693 0 0 1 .418-.18c.028-.078.108-.079.183-.08a.455.455 0 0 1 .028-.084l.063.004c.001-.011.001-.023.008-.034.029-.01.064-.018.066-.053.046-.008.219-.014.222-.071.111-.022.221-.044.337-.065.001-.017.001-.028.008-.04.08-.012.08-.012.558-.221.191-.034.371-.074.566-.073a.04.04 0 0 1 .013-.028c.149-.007.173-.029.374-.027a.076.076 0 0 1 .014-.04c.096.012.118.036.248.068-.007.108-.076.195-.128.29l-.046-.003c-.008.04-.008.04-.051.088a1.41 1.41 0 0 0 .001.172l.034.002-.003.045c.246.09.578-.094.667.22a.319.319 0 0 1 .218.175c.135.037.544.086.612-.081l.046.003c.187-.338.414-.758.291-1.156ZM82.213 59.096a6.168 6.168 0 0 1-.167.72c-.137.136-.309.313-.497.336-.069-.109-.04-.303-.045-.428.057-.058.04-.51.046-.618a.424.424 0 0 1 .28-.182v-.046h.046c.086-.148.2-.137.36-.154.092.092.034.27-.023.372Zm1.356-1.227c-.086-.177-.428-.19-.594-.218-.006-.017-.011-.029-.011-.04-.189-.029-.189-.029-.303-.069v-.046h-.532v.045c-.251.16-.32.354-.629.354V57.5a.092.092 0 0 1 .041-.023c0-.229.235-.348.35-.508-.017-.172-.109-.223-.166-.372h-.04c-.125-.383-.782-.401-1.108-.344-.051.034-.366.228-.366.296h-.046c-.04.126-.017.252-.018.383.109.074.126.234.126.354.011.006.028.012.045.023.017.057.034.12.057.183 0 .263.005.526.01.794-.028.023-.028.023-.428.074-.143.091-.206.091-.309.251.017.223.045.355.262.446 0 .012.006.023.011.04.07.017.309.075.309.178.011 0 .028 0 .046.006.005.023.01.051.022.08.018 0 .034 0 .052.005 0 .012.006.024.011.04.023 0 .046 0 .069.006.034.063.05.235.073.28.006.412.006.412-.012.72a5.61 5.61 0 0 0-.023.32c-.086.149-.349.171-.503.188-.086-.143.029-.377-.051-.537-.062-.48-.09-.52-.102-.663-.04-.103-.108-.183-.148-.269-.011-.08-.085-.354-.2-.354-.005-.017-.01-.029-.01-.04-.04-.017-.167-.04-.167-.092h-.045v-.046c-.052-.017-.052-.017-.108-.074-.132-.452-.349-.343-.726-.235v.045c-.052.017-.063.035-.086.086h-.034c-.092.263-.092.565-.179.834l.023.023v.594c.017 0 .034.006.057.011.04.08.085.166.13.252h.04c.035.103.166.149.258.195.085.069.085.069.25.292h.046v.04c.035.023.109.034.109.091.194.035.28.235.445.327.091.011.126-.012.24-.006.102.234 0 .383.16.589.205 0 .394-.097.593-.062.011.388.011.388-.006.514h-.04v.503h.04c-.02.857.083 1.709.116 2.56.102.183.245.143.417.132.068-.131.103-.194.103-.343a.082.082 0 0 1 .034-.01c0-.035 0-.07.006-.098.184-.365.155-.811.213-1.206.019-.811.031-1.64.084-2.45.217-.166.611-.097.863-.262.211-.023.211-.023.285-.051 0-.046 0-.046.035-.069.023-.103-.142-.286-.142-.452.074-.096.074-.096.086-.142h.045v-.04h.063l.035-.086.097-.017c.097-.211.246-.388.44-.514.006-.068.19-.308.264-.308v-.04h.046c0-.011 0-.022.005-.034.03-.011.052-.051.166-.108.058-.326.098-.652.099-.983-.011-.086-.176-.549-.245-.549ZM91.834 60.382c-.005-.023-.005-.04-.005-.057.09-.057.268-.177.302-.28l.372.051c-.012.195-.515.257-.669.286Zm.32-2.6c-.143 0-.268-.051-.394.023.029-.332.246-.572.571-.343 0 .12-.08.246-.177.32Zm-.057 4.217h.046v.48h-.046a2.458 2.458 0 0 0-.011.211c-.006.195-.006.39-.006.583-.08.355.034.766-.103 1.092-.011 0-.023 0-.034.005a4.52 4.52 0 0 0-.057.297c-.286.143-.406.097-.498-.177-.017-.005-.034-.011-.045-.011v-.046h-.046v-.04c-.126-.046-.36-.006-.492 0 0-.223.326-.303.492-.366.257-.222.263-.537-.034-.76-.16-.005-.195.012-.372.023 0-.131.092-.331.177-.428.297-.04.686-.28.514-.623h-.045c-.04-.114-.029-.297.103-.348.103-.355.411-.178.457.108Zm-1.64-.743c.006-.023.011-.045.017-.063.349-.12.474-.137.594-.194 0-.012.006-.023.012-.034h.154c.126.314.017.337-.263.354a1.347 1.347 0 0 1-.377.131 6.375 6.375 0 0 0-.137-.194Zm-.428-.44c.057-.114.337-.24.428-.303.086-.171.035-.257-.028-.434.21 0 .302-.011.48-.114.12-.006.377-.075.48-.006 0 .149-.298.2-.326.389.017.051.034.102.051.16-.166.062-.166.062-.388.194-.229.046-.457.12-.698.114Zm-.27-.4c-.073 0-.147.006-.216.012.114-.166.308-.4.468-.509a.524.524 0 0 1 .297.114c-.205.069-.371.252-.548.383Zm-.342.092c-.074-.006-.143-.012-.211-.012-.04-.074-.04-.074-.035-.12l.28.086a.305.305 0 0 0-.034.046Zm4.714-.023h-.046v-.046h-.045v-.046h-.063c-.091-.16-.371-.211-.543-.234-.12-.206-.36-.017-.406-.309-.12-.24-.171-.24-.417-.32 0-.034 0-.068.006-.102h.04v-.04c.086-.046.229-.143.24-.258.234-.09.257-.457.177-.668h-.04c-.092-.154-.223-.132-.388-.132-.006-.12-.006-.24-.006-.354.085-.08.2-.24.263-.337.525-.263.64-.56.497-1.097-.029-.011-.029-.011-.04-.051h-.04c-.006-.018-.012-.03-.012-.04l-.143-.052c-.005-.017-.01-.028-.01-.04-.252-.069-.31-.011-.498.16-.12.057-.377.075-.486 0-.017-.086-.051-.143-.063-.24-.045-.08-.114-.091-.154-.177-.171.011-.251 0-.4.092-.04.205-.074.468-.148.656-.098.143-.155.195-.172.252-.091.029-.12.074-.12.177h-.034v.034c-.011 0-.017.006-.023.012 0 .166.006.331.011.502.023.075.046.155.075.235.045.011.045.011.108.086.103-.006.218-.012.246-.126.085 0 .143-.172.263-.194-.023.108-.023.108-.029.274.092.217.155.366-.131.411-.314.114-.428.429-.326.737.132.04.28.012.417.006 0-.017.006-.028.012-.04.017-.005.034-.005.057-.005.023-.04.029-.086.086-.086 0-.017.005-.029.011-.04.08-.04.08-.04.297-.086a.457.457 0 0 1-.108.377c-.378.086-.686-.051-1.012.217-.074 0-.503-.017-.503-.12-.057-.011-.068-.045-.102-.045 0-.017 0-.035.005-.052.172-.154.44-.257.44-.531-.12-.263-.148-.309-.463-.286-.097.057-.194.126-.308.126.011-.12.011-.12.04-.183.126-.074.286-.343.428-.343.006-.034.035-.046.057-.086.03-.005.063-.005.098-.005.045-.16.114-.189.068-.383-.051-.017-.068-.04-.091-.092-.172 0-.412.075-.572.023-.01-.04-.017-.074-.022-.108a.73.73 0 0 1 .377-.183c0-.017.005-.029.011-.04.023-.006.046-.006.074-.006v-.046a.778.778 0 0 0 .395-.222c.04-.326-.08-.395-.372-.48-.006-.018-.011-.029-.011-.04-.086-.035-.086-.035-.229-.058-.177-.12-.348.149-.44.263-.154.046-.417.178-.577.2-.011.046-.017.097-.023.149.017 0 .035.006.052.011.022.08.097.177.131.269h.057c0 .011.006.023.012.04.108.011.217.028.325.045.029.2-.32.326-.388.532.017.189.085.366.166.531.262.132-.16.446-.28.515a.44.44 0 0 0-.023.091h-.046c-.091.314.011.383.274.532.075.148-.183.32-.268.4-.046.062-.097.16-.177.176-.018-.045-.029-.085-.04-.125.034-.492.062-1.017.148-1.503.086-.24.109-.468.023-.709h-.046a5.81 5.81 0 0 0-.268-.605c-.04-.029-.149-.086-.149-.143-.074 0-.143 0-.211.006-.137.222-.109.457-.126.697h-.046c0 .166-.085 1.166 0 1.251-.017.058-.034.115-.046.177.08.189.092.383.098.583.085.16.13.274.13.457.104.103.133.24.173.377.08.12.188.195.268.315.069 0 .137 0 .177.063-.074.074-.314.12-.405.148-.435.08-.83.114-.846.131-.206 0-.411.006-.617.012l-.423.051c-.074.046-.143.098-.212.15-.028.147.189.262.309.279a.768.768 0 0 0 .023.092c.063.005.24.04.24.13.126.04.223.12.337.178.069.217.748.046.806-.137.12-.017.645-.189.645-.303.046-.023.189-.08.189-.137.234-.132.44-.206.703-.206.006.017.011.035.023.052.097.04.137.068.217.154-.035.051-.103.074-.166.097a.08.08 0 0 0-.011.04h-.04a.402.402 0 0 0-.046.217h.046c.022.223.274.406.491.331.011.012.029.023.046.04-.08.08-.229.12-.332.16-.08.115-.08.115-.143.28h-.045c-.029-.114-.057-.21-.063-.33-.046-.098-.091-.195-.131-.292a.17.17 0 0 0-.046-.012c-.08-.24-.286-.223-.503-.223v.046c-.28.092-.246.96-.252 1.143h-.045c0 .086-.034.36.023.417 0 .069.022.24-.023.286-.006.308.006.565.051.863.177.194.337.474.554.617.212 0 .212-.252.372-.332.023.017.046.034.074.058.069.17.166.24.332.32.365-.03.708-.235 1.08-.28.325.16.365.245.383.616.023.03.045.058.074.086.251 0 .32-.228.503-.263.01-.022.022-.04.034-.057.16-.051.177-.285.314-.331a5.89 5.89 0 0 1 .034-.132c.212-.211.235-.548.258-.84v-.943c.005-.502.011-1.005.022-1.508-.028-.143-.131-.389-.297-.389a1.971 1.971 0 0 0-1.011-.25c-.154-.264.177-.264.326-.264.217 0 .434 0 .651.006.137 0 .274.006.417.011.017.057.714.32.846.32.108-.068.108-.068.171-.074.109-.24.057-.303-.04-.571ZM105.36 62.137c-.164-.185-.232-.225-.243-.265-.432-.206-.442-.269-.878-.114-.412.001-.819.07-1.23.048-.138.136-.6.044-.751.191-.16-.002-.25-.117-.38-.205-.302-.094-.348-.09-.646-.013-.042.223-.042.223-.084.314-.276.213-.772.116-1.089.318a1.168 1.168 0 0 0-.453.126c-.132-.002-.76-.01-.858.087-.035 0-1.108-.03-1.11.152-.018 0-.035.005-.052.01-.037.235.117.22.19.397h.045v.047c.056.012.056.012.238.134v.04c.13.058.175.133.294.243.291.004.583-.027.735-.322.184-.112.293-.134.316-.156.55-.136 1.045-.416 1.617-.438v-.034c.046 0 .092.006.143.013.017.034.017.034.04.492.104.413-.011.868-.05 1.296-.077.194-.471.212-.648.221-.202.112-.323.185-.206.426.029.012.057.03.086.047.039.018.039.018.582.018.04.018.103.025.102.076h.04c.023.04.045.08.067.127.051.023.216.071.216.14.411-.018.624-.101.658-.547.17-.398.178-.57.097-.981a.046.046 0 0 1 .023-.023c.002-.126.056-.805-.012-.875.002-.137.003-.274.011-.405.19-.158.688-.197.951-.246l.4.022c.326-.059.521-.108.828.05.063.024.427.12.426.182.017 0 .035.006.057.012.16.042.383.005.549-.005.07-.136.116-.14.118-.346-.05-.087-.095-.173-.139-.254Z" clip-rule="evenodd"/><path fill="#231916" fill-rule="evenodd" d="M99.814 59.99c.012-.063.04-.085.099-.118-.003.188-.074.41-.28.436-.09-.144.089-.25.18-.318Zm.334 1.204c0 .006.006.018.011.03-.064.061-.064.061-.075.101l-.178.015c.013-.063.024-.125.042-.182.08 0 .114.024.2.036Zm.833-2.23c.035-.096.103-.073.165-.009-.003.291-.181.33-.438.383-.248-.306-.248-.306-.248-.34.182.042.348.061.521-.034Zm.148-.484.001-.085c.063-.034.063-.034.132-.044 0-.018.006-.03.012-.04a.91.91 0 0 1 .132-.01c.178-.13.413-.184.637-.204-.031.137-.188.364-.281.477-.194.037-.446.023-.646.038-.028-.04-.028-.04-.038-.12.017-.006.034-.012.051-.012Zm.824 1.788h-.045c-.013.119-.029.496-.128.592-.114-.007-.228-.014-.342-.016-.088-.332.158-.358.242-.614.001-.143.031-.257-.042-.383-.17-.083-.238-.089-.261-.112.099-.124.339-.173.481-.103.011.052.028.103.044.155h.057l-.006.48Zm.87-.538c.028 0 .057.006.091.012-.012.04-.018.086-.024.131-.035 0-.063.005-.092.01-.005-.068-.005-.068.025-.153Zm.145.796v-.046c.075-.028.075-.028.132-.027-.002.142-.182.409-.303.465.014-.212-.025-.315.171-.392Zm.541.16c.091-.044.091-.044.183-.055.063.04.079.127.044.195-.069 0-.138.004-.201.01-.011-.007-.023-.013-.034-.018.001-.046.002-.092.008-.132Zm-4.234.367.001-.046h.04c.023-.068.075-.085.144-.09-.026.28-.257.42-.26.689.13.087.042.32.161.379.028.069.062.138.095.207.166-.015.36-.002.442-.166h.069c.046-.102.156-.152.265-.173a.08.08 0 0 1 .011-.04c.12.007.246.02.372.033 0-.011.005-.023.011-.034h.046c.047-.062.076-.119.156-.14.006-.04.018-.08.03-.12.04-.017.04-.017.091 0 .017.041.034.087.05.133.069.006.137.018.206.03.034-.039.034-.039.053-.147.241-.134.241-.14.48-.046 0 .011.006.023.011.04.086.013.109.036.319.107.166.02.407-.08.438-.258.022-.005.051-.005.08-.004.217.408.347.124.701.088l.001-.045c.04-.006.08-.011.12-.01.133-.096.206-.06.366-.06.04.053.078.162.147.163 0 .011 0 .023.006.034.028.012.062.018.061.058.052-.01.104-.016.161-.021.093-.119.192-.312.257-.448l.003-.292c-.062-.08-.062-.08-.084-.16l-.04-.001c-.038-.15-.269-.375-.411-.434.002-.228.221-.334.269-.534h.04c.129-.278.264-.545.29-.847-.113-.156-.496-.55-.721-.426-.018.091-.018.091-.082.199-.003.263.194.47.037.726-.031.183-.071.194-.181.33l-.114-.002c.038-.32.07-.622.062-.942-.028-.035-.153-.116-.152-.145-.246-.026-.273-.112-.492.006.01.148.021.177.111.304.001.394.001.394-.023.485-.228-.077-.252-.477-.502-.577-.291-.015-.291-.015-.388-.04.018-.096.041-.09.128-.146v-.046c.052 0 .133-.084.15-.135a.214.214 0 0 0 .122-.113c.161-.078.301-.322.462-.435.166.002.2.026.382.05.363.2.514.087.87-.097.002-.177.021-.354-.039-.52l-.04-.001v-.04c-.023-.006-.04-.012-.057-.012-.005-.012-.011-.023-.011-.035-.023-.006-.04-.012-.057-.012-.101-.144-.365-.061-.519-.046 0-.029 0-.057.006-.08h.046c.006-.034.041-.056.146-.238-.023-.023-.023-.023-.038-.194-.055-.138-.111-.27-.167-.403h-.039v-.046h-.046c-.016-.03-.033-.058-.044-.087h-.04c-.017-.057-.062-.075-.113-.099l-.017-.068c-.051-.018-.051-.018-.2-.008-.011.017-.023.04-.035.062-.218.095-.402.201-.428.447.033.102.14.281.156.338a.044.044 0 0 0-.023.023c-.003.188-.061.336-.081.525-.149.038-.149.038-.343.059a4.925 4.925 0 0 0-.242.145c-.143.016-.143.016-.166.038-.184.05-.584.039-.717.168-.028-.01-.056-.023-.085-.035-.055-.178-.047-.372-.05-.56-.052-.013-.177-.03-.177-.088-.033-.018-.062-.018-.062-.058-.108-.013-.108-.013-.131-.036-.091-.012-.091-.012-.548.028-.048.096-.187.295-.29.356-.003.223.219.294.216.523h-.045c-.065.124-.317.161-.443.211-.112.256-.07.645.196.78.098-.01.195-.02.297-.025 0-.017.007-.029.012-.04.132-.044.402-.155.451.057-.126-.013-.234-.02-.264.11-.017 0-.034 0-.046.006-.006.034-.035.045-.087.113a2.787 2.787 0 0 0-.026.228c-.176-.053-.346-.106-.518-.154-.109.044-.109.044-.207.117-.008.223.014.286.012.492-.036.125-.072.25-.108.382-.338.035-.243.717-.165.918.182.059.19-.084.31-.082ZM103.934 63.32a1.228 1.228 0 0 0-.382-.067c-.153-.128-.467-.154-.639-.07-.019.13.075.36.195.419.083.178-.017.456-.093.627.024.343.19.27.376.502.055.2.18.259.356.37.051-.006.108-.011.165-.01.231-.197.406-.492.541-.765.004-.4-.214-.768-.519-1.006ZM100.357 63.312c-.086.038-.173.077-.253.116v.035c-.11.033-.202.106-.3.167-.126.01-.24-.02-.422-.022a3.942 3.942 0 0 0-.207.123c-.055.325-.174.695.045.995.111.264.197.294.464.366.206-.015.206-.015.286-.037v-.034c.247-.055.166-.472.169-.66.065-.252.461-.904.218-1.05ZM74.902 56.84c-.077-.187-.155-.369-.232-.55-.23-.111-.561-.1-.819-.119-.155-.072-.296.073-.403.155-.053.258.016.674-.135.893-.045.419.01.56-.167.97a1.895 1.895 0 0 1-.184.682 3.03 3.03 0 0 0-.234.015c-.244.135-.251.713-.475.67-.013-.102-.004-.234-.062-.319.05-.126.047-.286.05-.423.117-.168.187-.477.207-.678.184-.283-.145-.495-.364-.6-.452.007-.503.002-.662.44-.145.19-.207.231-.204.477.103.021.294.115.408.153.059.096.027.217.011.32h-.046c-.018-.084-.036-.17-.055-.25-.115-.038-.183-.042-.285.01-.033.144-.17.866-.458.693l-.005-.325a.08.08 0 0 1 .04-.012c.01-.39.31-.565-.026-.891-.08-.056-.646-.35-.646-.373a3.689 3.689 0 0 0-.251.01c-.006.011-.011.023-.01.04-.172.037-.227.158-.27.307h-.04l.007.463c.005.297.13.593-.01.88-.328.149-.343-.08-.608-.19-.012-.028-.018-.057-.024-.085-.075-.028-.144-.055-.213-.083-.114.031-.227.067-.341.103-.066.167-.105.213-.127.31-.167.249-.296.4-.206.718-.024.24-.056.778.203.9 0 .011.006.023.012.04.04.01.236.07.236.116.155.015.31.03.47.05 0 .006.006.017.012.028.331-.005.284-.421.373-.611l.034-.001c.01-.058-.012-.074.056-.098.033-.086.112-.116.128-.202.04-.018.04-.018.074.004-.01.475-.22.89-.247 1.359-.06.132-.035.286-.067.424-.084.121-.2.346-.21.495a.107.107 0 0 0-.045.012c-.074.4-.567.323-.56.774.168.078.692.03.747-.148l.034-.001c.01-.04.022-.08.033-.115h.04l-.001-.04.045-.001v-.046c.068-.018.113-.07.152-.134h.046c.005-.03.01-.058.021-.087a.085.085 0 0 1 .04-.012c.055-.126.087-.31.229-.369.037-.138.081-.27.211-.352-.002-.143.11-.31.165-.437.014-.16.029-.315.05-.47.043-.149.138-.287.136-.441.01-.006.022-.012.033-.013.005-.063-.001-.131.055-.16-.003-.212.08-.419.104-.63.018-.018.018-.018.16-.026.004.229-.022.429-.053.652.041.04.082.079.128.118.12-.002.246-.004.372 0 .169.209.084.616-.016.84-.026.178-.046.355-.066.533.034.33.118.61.272.91.304.11.484-.076.681-.262-.007-.469-.007-.469.01-.84.065-.264.135-.534.062-.807l.12-1.122c.033-.035.033-.035.152-.065.058.056.141.232.204.23.077.148.328.11.464.073 0-.017.005-.028.01-.04.04-.012.087-.018.132-.025.011-.023.022-.046.033-.063.216-.072.26-.541.269-.73-.042-.102-.042-.102-.043-.2a.164.164 0 0 0-.052-.01c0-.051-.038-.217-.084-.239.037-.212.067-.464.179-.654l.043-.504c.017 0 .034 0 .057.005.113.25.044.582.048.857a10.867 10.867 0 0 0-.004 2.28c-.02.189-.04.378-.054.567h-.04l.026.594c.014.137-.03.218-.069.338l-.008.566a5.16 5.16 0 0 1-.268 1.102c-.005.44.045 1.41.674 1.4.022-.022.022-.022.227-.094.033-.07.136-.425.273-.428a3.85 3.85 0 0 0 .045-.772c.033-.458.033-.458.055-.492-.023-.034-.023-.034-.053-.428-.053-.125-.106-.244-.154-.363l.012-.337.046-.001c-.009-.2-.018-.394-.02-.589a1.022 1.022 0 0 0-.065-.439c-.028-.68-.09-1.398-.027-2.074a.085.085 0 0 1 .04-.011c.036-.23.073-.453.115-.677-.001-.097-.041-.428.02-.492-.054-.21.068-.47.11-.676.156-.248.185-.568.267-.85ZM115.93 63.662c-.101-.044-.179-.115-.261-.187-.038-.059-.572-.435-.57-.475-.045-.025-.197-.082-.195-.14a.6.6 0 0 1-.275-.268c-.232-.066-.804-.49-.926-.74-.095-.05-.095-.05-.161-.11-.076-.226-.358-.323-.424-.554-.044-.031-.184-.1-.182-.162-.023-.007-.04-.013-.056-.014-.075-.14-.618-.717-.155-.698 0-.017.006-.028.012-.04.076-.037.147-.085.233-.082.001-.017.007-.028.013-.04.063-.008.132-.017.201-.02.06-.078.158-.09.255-.098l.022.023.708.029.002-.034c.017-.023.267-.121.391-.202a.81.81 0 0 0 .118-.379c-.186-.344-.771-.448-1.087-.563-.198-.037-.504.157-.667.236-.065.043-.125.11-.21.106.003-.08.006-.16.015-.234l.034.001a.18.18 0 0 1 .008-.05c.012-.006.023-.011.04-.01a2.9 2.9 0 0 1 .261-1.088l.016-.394c-.047-.105-.168-.23-.164-.338l-.034-.002c-.019-.08-.039-.156-.054-.23-.161-.11-.496-.158-.665-.084-.138.171-.304.439-.392.641-.108-.004-.277.218-.253.333.161.098.328.213.515.272.002.092.002.092-.037.36-.217.265-.015.788-.181 1.09-.083.06-.148.114-.252.122-.165.13-.386.098-.568.211-.254.035-.47.027-.71.149-.2-.008-.399-.016-.6-.019-.17.114-.035.457.116.537.198.345.226.358.317.516.045.019.145.092.143.149.073.014.147.034.22.054.031-.061.078-.082.093-.168.169-.21.573-.32.842-.309-.038.382-.217.695-.329 1.062-.223.151-.311.474-.539.613-.123.201-.182.256-.196.313l-.034-.002c-.058.163-.259.184-.333.324-.083.065-.16.131-.237.203-.07.157-.585.456-.773.449a.07.07 0 0 0-.007.034l-.07.031c-.285.395.413.394.591.23.145-.046.292-.137.425-.178.21-.243.482-.323.761-.455.056-.1.295-.2.405-.247.102-.116.395-.567.527-.59.192-.365.276-.475.381-.666.142-.406.193-.667.532-.299.096.181.342.323.385.542.128.08.367.398.39.53.147.04.138.28.29.338.086.135.333.402.354.569.125.033.162.235.26.239.011.132.297.28.293.366l.046.002c.01.035.026.076.041.116.051.03.214.089.211.157.124.051.278.057.415.063a.09.09 0 0 1 .008-.04 3.96 3.96 0 0 1 .259-.052c.323-.199.757.247 1.047-.021.014-.331-.391-.502-.599-.728Z" clip-rule="evenodd"/><path fill="#E8380E" fill-rule="evenodd" d="M40.652 60.808c-.238.47-.46 1.087-.705 1.642-.147.337-.218.674-.367.976.205-.218.48-.442.684-.603.154-.178.308-.346.462-.523.158-.42.44-.896.294-1.2-.066-.137-.185-.206-.368-.292Zm-3.663 3.575c-.186.022-.496.25-.657.02-.097-.77.566-1.653.908-2.121.013-.039.012-.073.024-.11.206-.24.483-.465.75-.685.28-.199.562-.398.844-.596.214-.123.378-.237.678-.34.065-.102.098-.198.161-.3.05-.08.128-.167.178-.247l.796-1.077a.437.437 0 0 1 .208-.256c.085-.006.153-.137.239-.186.063-.068.145.029.207 0a.414.414 0 0 1 .257.138c0 .13-.01.26-.002.39.003.05.002.046-.03.088-.05.065-.072.176-.117.244-.055.083-.06-.008-.09.04-.11.164-.257.448-.367.613-.1.519.573.43.525.908.21 1.03-.989 2.379-1.926 2.854-.139.07-.13.095-.18.246-.03.092-.053.186-.09.27-.016.037-.049.069-.061.107-.063.155-.103.322-.166.477l-.073.391c-.013.132-.058.251-.07.382-.013.01-.002.011-.014.021-.049.039-.057.072-.05 0 .002-.03.012-.059.015-.074-.009.008-.024.004-.034.012-.054.047-.122.147-.177.19 0 .097-.012.196-.013.294-.019.021-.026.041-.045.063-.027.031-.04.028-.057.029-.052.003-.075-.008-.127-.027l-.018.137c-.016.007-.071.006-.122.027-.066.028-.13.08-.128.092a.267.267 0 0 1-.019.122c-.015.035-.036.053-.127.014-.009-.083.078-.534.208-.325.019-.043.054-.064.073-.107.022-.049.027-.118.048-.167l-.138.12c-.161-.003-.106-.057-.09-.185.008-.053.012-.116.024-.176.065-.225.142-.432.206-.655.014-.047.013-.096.027-.144.017-.06.054-.12.072-.182.023-.073.024-.163.045-.236-.308.124-.512.315-.842.133-.268-.306-.46-.415-.288-.62l.346-.53c.075-.131.13-.257.204-.388.082-.175.194-.362.337-.5.01-.009.004-.045.014-.053a.99.99 0 0 0 .277-.445l.173-.188c.026-.038.48-.681.345-.34l-.139.17c-.086.137-.172.274-.26.41-.08.114-.16.229-.242.343l-.242.393-.226.428c-.092.176-.163.36-.255.538-.14.644.296.482.86.358.068-.053.042-.138.068-.206.008-.023.018-.046.028-.068l.367-1.2.314-.942.175-.583.087-.136c0-.052-.052-.052-.155-.001-1.22.678-2.381 1.593-2.865 2.918.003.108-.036.252.067.275.103.001.228.028.33.029.064.024.04.111.017.112Z" clip-rule="evenodd"/><path fill="#E8380E" fill-rule="evenodd" d="M38.38 66.347c.019-.032.055.015.111.025.006.03.012.061-.016.099-.01.025-.041.035-.052.06-.009.024.003.062-.006.084-.154.085.084.103-.149.163-.033-.086-.03-.078.03-.148l.016-.051c-.079-.005-.02-.026-.034-.096a.772.772 0 0 0-.025-.006c.01-.21.06-.008.126-.13ZM38.03 66.643c-.08.072-.052.127-.043.23h.06c.016-.04-.002-.092.032-.117.046-.034.048-.2-.05-.113ZM38.632 66.344a.056.056 0 0 1-.063.002c-.05-.096.092-.085.063-.002ZM38.888 65.871c.018-.05.024-.095-.032-.127-.124.165-.005.232.032.127Z" clip-rule="evenodd"/><path fill="#365F8F" fill-rule="evenodd" d="M39.033 75.483c-6.34 0-11.483-5.142-11.483-11.483s5.142-11.483 11.483-11.483S50.517 57.659 50.517 64c0 6.34-5.143 11.483-11.484 11.483Zm0 .55c6.645 0 12.033-5.389 12.033-12.033 0-6.645-5.388-12.033-12.033-12.033C32.39 51.967 27 57.355 27 64c0 6.644 5.389 12.033 12.033 12.033Z" clip-rule="evenodd"/><path fill="#365F8F" fill-rule="evenodd" d="M39.033 72.273a8.274 8.274 0 0 1 0-16.546 8.274 8.274 0 0 1 0 16.546Zm0 .186a8.46 8.46 0 0 0 0-16.919 8.46 8.46 0 0 0 0 16.92Z" clip-rule="evenodd"/><path fill="#365F8F" fill-rule="evenodd" d="M30.608 61.334c-.038.081-.198.046-.262.021a.896.896 0 0 1-.02-.068c.011-.049.038-.232.1-.241.04.02.04.02.064.04 0 .04.05.064.075.091.081.053.077.075.043.157Zm-1.932-1.19c-.012.096.048.142.134.157a.095.095 0 0 0 .004-.008.019.019 0 0 0 .008.002c.034-.023.053-.03.092-.018.004.065-.024.11-.005.177-.007.02-.035.095-.013.105-.045.089-.053.093-.085.154-.004 0-.008 0-.01-.002-.019.022-.028.032-.035.057.007.008.014.016.009.028.072.113.203.112.31.061.038.016.053.049.073.08a.797.797 0 0 1 .178.134c.067.047.11.13.176.172a.8.8 0 0 0 .175.175c.019.054.172.152.218.183a.66.66 0 0 0 .098.09c.024.038.056.069.093.097.04.062.11.114.176.146.105-.074-.004-.155-.07-.22-.02-.052-.12-.108-.108-.159-.024-.027-.046-.055-.068-.083.004-.018-.08-.095-.1-.12-.024-.09-.146-.182-.206-.249-.019-.012-.065-.03-.05-.062-.026-.023.013-.082.04-.092l.05-.096c-.01-.05.019-.157-.007-.19.005-.034.005-.034.018-.07a.212.212 0 0 1-.01-.004c.01-.04.01-.067.029-.107.127.022.008.142.033.209a.112.112 0 0 0-.008.023c.014.03.057.046.086.063l.054-.01a.261.261 0 0 1 .106-.089c.01.016-.001.035 0 .055.07.04.095.025.139-.04.033 0 .058.025.087.041a1.32 1.32 0 0 0-.003.09.16.16 0 0 1 .01.006c-.003.01.002.015.004.029l-.029.056c-.033-.01-.148-.106-.178-.083l-.034-.011c-.018.004-.092.04-.093.038-.067.04-.218.055-.115.162.056.03.1.067.154.102.008-.003.049.007.076.007l.003-.008c.033.006.033.006.112.004.019-.014.04-.015.065-.014l.005-.01c.035-.001.06-.036.087-.056a.011.011 0 0 1-.003-.008l.048-.103.01.005c.013-.024.024-.049.036-.073.008-.06.014-.138.038-.195l.1-.068c.022-.043.044-.087.068-.13.08-.062.135.018.218.016a.12.12 0 0 1 .088-.018c.071-.025.1-.139.037-.18-.024-.035-.13-.118-.165-.073a.366.366 0 0 0-.008.04c-.014-.024-.014-.024-.029-.036l-.007.008c-.052-.01-.094.051-.116.09-.018.012-.04.023-.053.043a.123.123 0 0 1-.053-.02l.005-.01c-.017-.017-.016-.033-.035-.05-.086-.135-.266-.233-.407-.3a.182.182 0 0 1-.095.041c-.107.115-.107.115-.114.118a.326.326 0 0 0-.04.172l-.034.055c-.011-.002-.023.002-.04-.003 0-.011 0-.011-.014-.032l.023-.19a.02.02 0 0 1-.007-.006c.004-.065.035-.28.125-.27.05-.062.109-.183.029-.248-.04-.013-.05-.01-.061-.013l-.013.026c-.004 0-.007 0-.01-.002-.02.02-.045.049-.073.053-.034.041-.078.066-.102.117-.028.128-.01.27-.055.395a.234.234 0 0 1-.09-.168c-.01-.01-.015-.017-.011-.032l-.01-.005c0-.047.032-.109.048-.154-.007-.005-.007-.013-.03-.044-.014-.004-.028-.008-.04-.013-.098-.011-.083.018-.115.086l-.009-.005-.007.01c-.09-.005-.16.064-.19.147-.009-.001-.009-.001-.017-.01a.899.899 0 0 1 .079-.23c-.016-.044-.005-.08-.008-.126.023-.108-.055-.134-.15-.132-.01.006-.034.045-.053.066l-.011-.005c-.076.06-.09.166-.088.256a3.602 3.602 0 0 0-.052.104c-.02.017-.048.017-.071.036a.388.388 0 0 1-.01-.005l-.005.01-.009-.005c-.034.019-.046.04-.066.073-.009.018-.033.087-.05.093Zm1.675.902a.011.011 0 0 1-.003-.008l.048-.103.01.005a3.52 3.52 0 0 0-.055.106Zm.028-.487c-.007.002-.026.035-.046.053-.023-.014-.06-.035-.055-.065-.005-.002-.008-.005-.012-.008.01-.056-.068-.097-.118-.085-.02.032-.035.04-.067.017a.3.3 0 0 1 .014-.093l.01.002c.01-.02.014-.03.033-.04.068.024.22.056.228.157a.209.209 0 0 0 .025.024.257.257 0 0 0-.012.038Zm-.82.353c-.043-.006-.09-.039-.09-.087l-.028-.017c.018-.025.056-.045.08-.07 0-.044.002-.063.032-.095.029.002.038.002.058.021-.017.09-.021.16-.053.248Zm.044-.428c-.037.01-.074-.016-.106-.031-.023-.05-.027-.13.003-.179l.081.077c.026.047.026.047.035.053-.007.046-.004.054-.013.08Zm-.233.3c-.025.02-.098-.004-.128-.012l-.038.013-.019-.014c0-.007.001-.012.003-.02-.02-.04.002-.08-.018-.116-.004-.069-.004-.069 0-.087-.026-.013-.021-.103-.018-.122a.027.027 0 0 1-.007-.006c.008-.017.01-.056-.004-.069.044-.126.04-.133.054-.17 0-.04.002-.079.01-.118a.313.313 0 0 1-.01-.01.091.091 0 0 1 .007-.018c.075.035.182.099.162.194.017.046-.028.106-.01.156l-.02.042-.07.013c-.092.067-.063.141.029.184.015.029.007.066.019.099.04.034.04.034.058.06Zm-.694-.64c.006-.023.006-.023.047-.094l.004.001c-.009.018-.033.087-.05.093ZM48.47 60.872l-.01.004.06.131a.071.071 0 0 1 .009-.004c.005.005.01.013.015.02.068.015.098.088.126.143-.007.007-.007.007-.01.028-.052.03-.099.076-.163.074l-.005-.01-.03-.001c-.042-.026-.105-.029-.152-.036-.012-.026-.038-.015-.054-.032a.196.196 0 0 1-.01.004c-.017-.016-.017-.016-.037-.023-.03.032.06.115.083.133.035.067.1.117.093.198-.015.025-.06.07-.057.096l-.061.053c-.079-.002-.093-.152-.12-.212a.6.6 0 0 1-.064-.093 1.422 1.422 0 0 0-.19.123.78.78 0 0 0-.063.012l-.003.007c-.07.008-.15-.001-.221 0-.037-.015-.05-.027-.093-.019a.02.02 0 0 0-.007-.008c-.037.006-.11-.032-.126-.062-.003 0-.006 0-.01.002-.012-.028-.016-.074.003-.096a.036.036 0 0 0-.003-.013l.008-.007-.005-.013c.063-.065-.127-.165.004-.23.064-.015.124.084.154.127a.29.29 0 0 1 .059.048l.01-.005c.015.013.038.05.046.052.021.049.258.024.27-.01.117-.005-.006-.153-.054-.17-.023-.038-.054-.064-.084-.096-.003 0-.007.002-.01.004-.022-.046-.053-.056-.076-.087-.042.01-.111-.094-.128-.13.004-.026-.004-.054.013-.072-.008-.02.037-.073.047-.089.03-.014.06-.026.092-.038.024.058.07.233.15.263.025.033.062.063.09.095.027.044.027.044.043.063l.01-.005.097.098c.03-.001.021-.044.02-.06a.314.314 0 0 1 .037-.011c.006.004.01.01.014.016.014-.007.025.017.032.025.02-.01.106.053.123.008-.025-.05-.025-.05-.038-.065-.018.002-.07-.028-.083-.04-.003 0-.005.002-.008.003-.015-.03-.097-.104-.048-.136l-.003-.013c.068-.033.15 0 .224-.007l.003.01c.064-.003.07-.008.09.053Zm-.65-.404c.035.057.06.072.126.049.018 0 .087-.01.1.017a.33.33 0 0 1 .035-.005c.024.022.043.026.074.036.005.005.094.079.106.073l.01.014a.173.173 0 0 1 .09.072c.02-.003.03.015.039.031a.103.103 0 0 1 .022-.003l.006.014.01-.002c.005.005.01.012.018.008.008.01.03.047.042.041l.054.067a.024.024 0 0 1 .01-.002c.012.016.012.016.115.098.03.038.06.074.083.117a.01.01 0 0 1 .007 0c.02.032.027.035.05.08.004-.003.008-.002.011-.002.008.023.006.03.014.063-.025.011-.052.006-.08.006l-.004-.01c-.01.002-.01.002-.026-.002l-.038.02.004.008-.01.005c.008.065.088.117.029.174a.081.081 0 0 1-.013.069c.007.034.044.131.09.127l.004.01c.097.002.218.003.291-.071-.001-.01.011-.038.02-.045a.092.092 0 0 1-.005-.01c.023-.032.026-.068.024-.107l.01-.005a.322.322 0 0 0-.004-.01c.02-.024.016-.059.005-.083-.056-.038-.097-.06-.124-.12.11-.057.23-.07.354-.09.009.002.054-.01.066-.008.087-.018.183-.013.264-.05 0-.005 0-.009-.002-.012.034-.034.023-.08.025-.126-.039-.086-.144-.132-.212-.05 0 .004.002.007.004.011-.011.01-.011.01-.026.04-.03.015-.056.029-.087.028-.004-.009-.007-.017-.012-.024.003-.003.005-.006.008-.006-.006-.081-.068-.219-.155-.114l.01.043c-.012.016-.012.026-.022.032-.067-.01-.138.002-.204-.003a.363.363 0 0 0-.009-.018l.009-.013c.049.014.1.01.149-.012.01-.014.01-.014.042-.043-.001-.027.007-.036.015-.061a1.36 1.36 0 0 1 .074-.035c.03.022.07.064.109.074a.052.052 0 0 1 .009.013c.031 0 .078-.01.099-.035.005-.028-.007-.033-.03-.035a.132.132 0 0 0-.009-.023c.029-.014.06.02.092.012.022-.042.037-.048.08-.068l-.001-.01c.021-.029.039-.068.021-.106l-.009.004c-.032-.036-.125-.046-.174-.057-.01-.024 0-.059.016-.077-.003-.01-.014-.049 0-.055-.017-.036-.036-.11-.078-.116-.106.062-.215.131-.326.19a.117.117 0 0 1-.068 0c-.026-.06-.006-.1.02-.153V60.2c.003-.003.005-.006.008-.007-.057-.094-.143-.01-.222.024a.428.428 0 0 0-.302.23c.023.03.057.049.073.086-.038.034-.056.074-.117.082a.3.3 0 0 1-.149-.17l.078-.04c.006-.012 0-.038.012-.044a.53.53 0 0 0-.022-.045c-.041-.036-.08-.05-.128-.078a.483.483 0 0 0-.01.005c-.019-.023-.08-.04-.11-.026-.033-.044-.14-.026-.186-.022-.024.012-.132.067-.113.11-.002.002-.005.002-.009.004l.004.01c-.02.015-.028.02-.037.045 0 .01.005.057-.008.063l.001.042Zm.65.404.059.131a.071.071 0 0 0-.01.004l-.058-.13.009-.005Zm.468-.308a.728.728 0 0 1-.026.006c-.043.069-.17.088-.245.082l-.075.025-.008.02a.29.29 0 0 0 .097.106c.023-.058-.064-.07.024-.106.061.008.108.03.164.005a.193.193 0 0 1 .072-.117c-.005-.01-.005-.01-.003-.021Zm-.243.256a.086.086 0 0 1 .02-.008l.007.008c.033-.01.062-.023.085.006-.017.008.01.09.013.096-.04-.006-.104-.07-.125-.102Zm.127.108c.015 0 .015 0 .064.018l.074-.017c.013.03.013.071.025.105a.598.598 0 0 0-.057.013.483.483 0 0 1-.108-.112l.002-.008Zm.285.062c.016-.04.08-.03.101-.003-.024.02-.076.019-.1.003Zm-.131-.446a.287.287 0 0 1 .038-.005l.044.043c.048.027.074-.016.11.045-.035.03-.072.026-.112.014a.32.32 0 0 0-.08-.097Zm.263-.048a.508.508 0 0 1 .167-.053c.013.008.013.008.036.009l.008.015a.353.353 0 0 1-.184.056c-.016-.011-.016-.011-.027-.027ZM35.126 55.457c.102.19.23.363.344.544.045.028.071.001.108-.022-.002-.038-.002-.056-.02-.088a.022.022 0 0 1 .005-.007c-.004-.008-.008-.015-.01-.022-.006-.102-.067-.196-.104-.29-.097-.179-.198-.361-.287-.545.026-.063.121-.097.156-.165.043-.031.043-.031.056-.047-.006-.01-.006-.01-.002-.019-.007-.025-.066-.045-.087-.08.004-.031.004-.031.001-.043l.01-.005-.005-.01.014-.007-.003-.023.019-.016a.304.304 0 0 1 .032-.167c-.007-.015.003-.09.02-.1a.156.156 0 0 0-.006-.008.158.158 0 0 0 .01-.007c-.001-.002-.003-.004-.003-.007.005-.006.005-.018.023-.045a1.394 1.394 0 0 0-.101-.227c-.013-.017-.107-.098-.122-.089-.04-.028-.117.012-.157.026-.003-.002-.006-.004-.007-.007-.045.017-.045.017-.075.023l-.116.066c-.035.066-.026.117-.093.155l-.05-.086a.02.02 0 0 1 .006-.01c-.028-.05.008-.105.013-.154-.025-.035-.05-.035-.082-.06l-.009.004c-.075-.068-.22.01-.284.063-.007.014-.052.096-.044.11-.003.003-.007.005-.01.006.007.032.028.057.044.086.033.003.057.036.072.062l.013-.001.035.033c.004 0 .004 0 .035.032l.006-.004.074.13-.01.005-.004.01c-.003.008-.003.008-.084.069-.02.037-.034.045-.037.093.032.047.055.072.113.065l.008.007c.017-.005.077-.022.09 0a.034.034 0 0 1 .01-.004l.015.015c.004-.003.007-.005.012-.006l.008.008.015-.008c.015.01.04.045.051.052l.01-.005.09.157-.013.007c.01.024.023.048.035.073 0 .043-.055.08-.087.104-.036-.021-.04-.086-.078-.111-.073-.097-.084-.103-.104-.133-.022-.017-.047-.026-.066-.04-.013-.016-.063-.066-.088-.052l-.008-.008c-.01.002-.04.012-.047.001l-.01.006-.006-.01c-.013.002-.013.002-.033-.003-.084-.082-.119-.032-.187.04a.161.161 0 0 1 .005.01c-.009.009-.01.014-.008.028l-.007.005c.013.069.05.135.065.204l.008.002.073.13.014-.005.06.039a.078.078 0 0 0 .009-.005c.02.018.055.012.08.01a.293.293 0 0 1 .092.033l.01-.006a.12.12 0 0 1 .005.01c.01 0 .027-.007.035.005.046-.016.09.017.137.016.022-.009.027-.018.052-.031.052.038.048.084.108.109.045-.026.075-.07.122-.088.051.084.051.084.063.113l.063.11Zm-.063-.11.063.11a.09.09 0 0 0-.01.005l-.062-.11.01-.005Zm-.244-.446c-.034-.07-.034-.07-.087-.159l.01-.005.09.157-.013.007Zm.198-.189c-.028-.015-.046-.06-.063-.088.005-.02-.054-.116-.067-.14a.105.105 0 0 1 .039-.075.3.3 0 0 0-.006-.01.197.197 0 0 1 .01-.006c0-.043.027-.055.06-.078.031.009.04.054.04.084.023.055.04.12.054.178-.013.047-.028.107-.067.135Zm-.486-.262.005-.01a4.747 4.747 0 0 1-.071-.13c-.03-.033-.03-.033-.035-.032.032.057.066.114.101.172Zm.005-.01a4.747 4.747 0 0 1-.071-.13l.006-.004.074.13-.01.005Zm.283-.37-.006-.01.116-.066a.61.61 0 0 0 .006.01l-.116.066ZM38.507 54.766c0 .018.006.06-.006.072-.001.078.002.142.013.217.044.049.085.12.14.155.052 0 .052-.063.093-.083l.018.014c.018.043.042.06.084.08.092-.007.178-.058.271-.07.082.04.092.062.097.155a.24.24 0 0 0 .018.022c.063 0 .08-.058.127-.066a.117.117 0 0 1 .008-.014c.04-.013.045-.072.08-.084l.008-.033c.053-.053.059-.138.065-.21h-.006c0-.035-.013-.22.005-.238l.006-.38c-.007-.035-.033-.097-.075-.097a.493.493 0 0 0-.254-.063c-.038-.066.045-.066.082-.066.01-.005.01-.005.042-.003.075-.002.15-.003.227-.003v.01c.004.014.18.08.212.08.028-.017.028-.017.043-.018.028-.06.015-.076-.01-.144h-.011v-.011h-.012v-.012h-.015c-.023-.04-.094-.053-.137-.059-.03-.051-.09-.004-.102-.077-.03-.06-.043-.06-.105-.08 0-.01 0-.018.002-.027h.01v-.01c.021-.011.057-.035.06-.064.059-.023.065-.115.044-.169h-.01c-.022-.038-.055-.032-.097-.032-.002-.03-.002-.06-.002-.09.022-.02.05-.06.067-.084.132-.066.16-.14.125-.276-.008-.003-.008-.003-.01-.013h-.01l-.003-.01-.037-.013-.002-.01c-.063-.017-.078-.003-.125.04-.03.014-.095.019-.122 0-.005-.022-.013-.036-.016-.06-.012-.02-.029-.023-.039-.044-.043.002-.063 0-.1.022-.01.052-.02.118-.038.166-.024.036-.038.048-.043.063-.023.007-.03.019-.03.044h-.006c-.003.003-.003.006-.003.009 0 .021.01.116-.002.13.005.018.01.038.018.058.012.003.012.003.028.022.025-.002.054-.003.061-.032.022 0 .036-.043.066-.049-.005.027-.005.027-.007.07.023.054.039.091-.033.102-.08.03-.108.108-.082.186.033.01.07.003.105.001 0-.004.002-.007.003-.01l.014-.001c.006-.01.008-.022.022-.022a.02.02 0 0 1 .003-.01c.02-.01.02-.01.074-.021a.116.116 0 0 1-.027.094c-.095.022-.172-.012-.254.055-.019 0-.127-.004-.127-.03-.014-.003-.017-.012-.026-.012 0-.004 0-.008.002-.013.043-.038.11-.064.11-.133-.03-.066-.037-.078-.116-.072-.024.014-.049.032-.077.032.002-.03.002-.03.01-.046.031-.019.072-.087.108-.087.001-.008.008-.011.014-.021l.024-.001c.012-.04.029-.048.017-.097-.013-.004-.017-.01-.023-.023-.042 0-.103.02-.143.006a.17.17 0 0 1-.006-.027.18.18 0 0 1 .095-.046c0-.005.001-.007.003-.01.006-.002.011-.002.019-.002v-.011a.198.198 0 0 0 .099-.056c.01-.082-.02-.1-.094-.121l-.003-.01c-.021-.008-.021-.008-.057-.014-.045-.03-.087.037-.11.066-.04.011-.106.044-.146.05-.003.012-.004.025-.006.037.005 0 .009.002.013.003.006.02.025.045.033.068h.015l.003.01.081.011c.008.05-.08.082-.097.134a.387.387 0 0 0 .042.133c.066.033-.04.113-.07.13a.09.09 0 0 0-.007.023h-.011c-.023.079.003.096.069.133.019.038-.046.081-.068.1-.011.017-.024.041-.044.045a.261.261 0 0 1-.01-.031c.008-.124.015-.256.037-.378a.253.253 0 0 0 .006-.178h-.012a1.438 1.438 0 0 0-.067-.152c-.01-.008-.038-.022-.038-.036l-.053.001c-.034.056-.027.115-.031.175a.108.108 0 0 0-.003.022l-.006.125c.004.026.004.026-.003.168a.36.36 0 0 0-.011.044.39.39 0 0 1 .024.147c.022.04.033.07.033.115.026.026.033.06.043.095.02.03.048.049.068.079.017 0 .034 0 .044.016-.019.018-.079.03-.102.037-.109.02-.208.029-.212.033a.515.515 0 0 1-.156.003l-.106.013c-.018.011-.036.024-.053.037-.007.038.048.066.078.07l.005.023c.016.002.06.01.06.034.032.01.057.03.086.044.017.055.188.012.202-.034.03-.005.162-.048.162-.077.012-.005.048-.02.048-.034a.338.338 0 0 1 .176-.052c.002.005.003.009.006.013.025.01.035.017.055.04-.009.012-.026.018-.042.023a.02.02 0 0 0-.002.01h-.01a.1.1 0 0 0-.012.055h.011c.006.056.07.102.124.084.021-.04.047-.09.097-.09.01.05-.043.088-.086.1-.02.02-.057.03-.083.04-.02.028-.02.028-.036.07.024.05.045.052.102.066.042.042-.063.09-.063.117H38.8a.373.373 0 0 0-.024.03c.007.011.036.043.036.057h.011c.006.019.025.033.042.046 0 .026-.072.134-.109.134-.005-.013-.005-.013.003-.201l-.005-.127h.01c.01-.032-.002-.086-.002-.122-.008-.029-.015-.053-.016-.083a1.428 1.428 0 0 1-.033-.073l-.012-.003c-.02-.06-.072-.056-.126-.056v.011c-.07.023-.062.241-.063.287 0 .088 0 .088-.006.105Zm.777-.386c-.012-.072-.089-.117-.115-.028-.033.013-.036.06-.026.088h.012c.043.087-.055.147-.13.157a.202.202 0 0 0-.044.107c.045-.002.053-.007.093-.005.075.056.074.135.009.19-.042.017-.124.037-.124.093.033-.002.092-.012.124 0v.01h.011v.011l.012.003c.023.07.053.08.125.045.004-.026.008-.05.014-.075.003-.002.006-.002.009-.002.034-.081.006-.185.026-.274a1.256 1.256 0 0 1 .001-.146c0-.02.002-.036.003-.053v-.121Zm-.524.447c-.008.188-.008.188-.003.2.037 0 .109-.107.109-.133-.017-.013-.036-.027-.042-.046h-.011c0-.014-.029-.046-.036-.057h-.006c-.007.013-.007.013-.011.036Zm.763-.144v.237h-.006c0-.034-.013-.218.005-.237Zm-.763.144c.004-.023.004-.023.011-.036-.017-.026-.006-.06-.006-.09h-.01l.005.126Zm.011-.036c-.017-.026-.006-.06-.006-.09.01-.032-.002-.087-.002-.123h.01c.025.05.046.052.103.066.042.042-.063.09-.063.117H38.8a.373.373 0 0 0-.024.03h-.006Zm-.264-.025c-.014-.014-.006-.083-.006-.105h.012c0 .088 0 .088-.006.105Zm.773-.066a1.256 1.256 0 0 1 .001-.146l-.001.146Zm.004-.2h.011v-.12h-.011v.12Zm-.39-.032-.012-.01c.021-.04.047-.09.097-.09.01.05-.043.088-.086.1Zm.012-.226a1.37 1.37 0 0 0-.034-.049.122.122 0 0 1 .004-.016c.088-.03.12-.034.15-.048a.02.02 0 0 1 .002-.01h.039c.032.08.005.086-.066.09a.334.334 0 0 1-.095.033Zm-.812-.033.156-.003a.515.515 0 0 1-.156.003Zm.77-.312c.016.045.03.066.008.11-.023.015-.094.047-.108.075.06.002.118-.017.175-.028.056-.033.056-.033.098-.049l-.013-.04c.007-.048.082-.06.082-.098-.026-.017-.09 0-.12.002a.193.193 0 0 1-.121.028Zm.417.18.164.001-.122-.004c-.032-.002-.032-.002-.042.003Zm.164.001-.122-.004c.075-.002.15-.003.227-.003v.01l-.105-.003Zm-.897-.106.07.021-.008.012c-.018-.002-.035-.003-.053-.003-.01-.018-.01-.018-.009-.03Zm.094.013a.554.554 0 0 1 .118-.128.133.133 0 0 1 .074.029c-.051.017-.093.063-.137.096-.02 0-.038.002-.055.003Zm.576-.012c-.002-.005-.002-.01-.002-.014.023-.014.068-.045.077-.07l.093.013c-.003.048-.13.064-.168.071Zm-.855-.333c.007-.142.007-.142.003-.168a3.48 3.48 0 0 1-.003-.125h.009l.003-.022h-.012c0 .042-.021.294 0 .315Zm.003-.168a3.48 3.48 0 0 1-.003-.125h.009l-.006.125Zm.66-.14a3.42 3.42 0 0 1-.004-.127l.006-.003c0 .021.01.116-.002.13Zm.173-.007c.008-.083.062-.143.144-.086a.11.11 0 0 1-.045.08c-.036 0-.067-.012-.099.006ZM42.582 55.924c.008.008.021.016.016.028a.102.102 0 0 0 .01.004.623.623 0 0 1 .002.036c.01.01.044.037.037.053.097.036.154.038.206-.062a.336.336 0 0 0 .118-.218c.084-.201.084-.201.09-.206l.043-.093c.06-.018.179.022.245.036l.09.045c.081.018.131.026.187.092.012.012.087.07.08.084l.013.009.127.052c.03-.024.04-.021.061-.068l-.007-.073c-.02-.059-.032-.075-.03-.085-.08-.09-.076-.105-.192-.112-.096-.04-.197-.064-.29-.11-.045.018-.143-.048-.192-.029-.037-.016-.047-.052-.068-.085-.06-.052-.072-.055-.148-.066-.032.047-.032.047-.05.064-.085.022-.19-.049-.284-.033a.295.295 0 0 0-.117-.015c-.03-.014-.175-.077-.207-.064-.008-.004-.254-.116-.272-.074-.004-.002-.009-.002-.013-.002-.032.05.005.062.005.11l.01.005-.004.01c.012.009.012.009.042.055l-.005.009c.025.026.028.048.045.085.067.03.137.05.202-.002.053-.008.08-.003.088-.006.14.023.283.006.417.057l.004-.007c.01.004.02.01.031.017.001.01.001.01-.038.117-.017.106-.088.2-.139.296-.037.037-.13.002-.172-.013-.058.006-.093.011-.089.079l.015.019a.011.011 0 0 1 .007-.003l.13.056-.004.008Zm-.133-.061a.011.011 0 0 1 .007-.003l.13.056-.004.008c-.126-.053-.126-.053-.133-.061Zm-.153-.092c-.054-.043-.072-.058-.071-.13-.022-.091.042-.165.087-.235a.846.846 0 0 1 .06-.008c.042.018.065.036.096.046.028-.004.057-.012.085-.01l.004-.007.07-.002c.042.058-.114.17-.154.221-.019.044-.041.148-.103.137l-.004.008c-.02-.003-.02-.003-.07-.02Zm.94.4c-.03-.042-.053-.069-.046-.12-.02-.072-.066-.071-.038-.153.034-.032.085-.087.083-.137-.022-.025-.021-.087-.004-.116a.173.173 0 0 1 .141.08c.03.015.057.03.082.053a.324.324 0 0 1 .022.284.608.608 0 0 1-.2.123l-.04-.014Zm-.265-.406c.084-.201.084-.201.09-.206.01.022-.07.175-.082.203-.003 0-.005.001-.008.003Zm.748-.033.127.052c-.04-.014-.095-.027-.127-.052Zm-.658-1.321c-.028-.016-.052-.028-.072 0a.03.03 0 0 0-.01-.004c-.006.007-.014.007-.032.018l-.029.05a4.433 4.433 0 0 0-.104-.086c-.03-.001-.03-.001-.06.006-.024.051-.025.068-.045.115l-.063.078c-.081-.025-.126.142-.128.196.036.032.052 0 .08.012a.942.942 0 0 1 .004-.01l.01.003c.012-.013.025-.012.042-.006-.034.062-.101.072-.128.134.022.032-.022.078 0 .103 0 .019 0 .038.002.057.04.013.083.035.118.005l.016.007c.02-.02.051-.02.079-.014a.02.02 0 0 1 .006-.008c.028.013.055.028.083.044.001-.003.004-.005.006-.007l.01.005c.017-.01.03-.02.05-.018a.227.227 0 0 1 .02-.024c.012-.033.012-.033.019-.077-.018-.031-.004-.11-.032-.122l.001-.01c-.01-.01-.018-.018-.028-.025-.003 0-.005.001-.007.003-.016-.008-.03-.017-.045-.023.018-.02.038-.038.067-.04.02-.02.078-.062.083-.073.007-.003.046-.052.057-.06l.018.007c-.025.066-.094.157-.066.228-.01.034-.028.058-.035.098-.002.037 0 .067-.012.103l-.001.035.044.028c.012-.006.012-.006.027-.03.07-.007.07-.008.116.037l-.002.01c.02.012.022.02.064.056.036.021.102.021.126-.016.006 0 .013.004.02.006.01.116.067.063.153.09l.005-.01c.01.002.02.005.029.009.04-.01.053.006.09.022.004.016.002.045.018.052l-.002.008c.005.006.013.01.009.02.013.002.025.006.039.01a.652.652 0 0 0 .103-.078l.03-.067c-.007-.025-.007-.025-.004-.046a.2.2 0 0 0-.01-.004c.007-.038-.025-.113-.052-.14.023-.053.084-.056.115-.098l.009.005c.057-.052.114-.101.15-.169-.01-.046-.061-.175-.125-.169-.013.02-.013.02-.038.038-.027.06-.002.129-.063.172-.025.04-.035.038-.074.059a.771.771 0 0 0-.027-.012c.04-.07.078-.137.107-.212-.003-.01-.024-.042-.02-.048-.055-.03-.053-.053-.115-.047-.012.035-.013.043-.005.08-.038.092-.038.092-.053.111-.044-.04-.01-.135-.059-.183-.066-.032-.066-.032-.086-.047.014-.02.019-.017.044-.021l.005-.01c.011.004.038-.008.048-.018a.054.054 0 0 0 .039-.014c.045-.002.101-.045.15-.055.038.017.043.025.083.049.065.082.11.07.211.063.018-.041.04-.08.042-.125a.084.084 0 0 0-.01-.004l.005-.009c-.005-.004-.008-.007-.012-.008v-.01l-.011-.008c-.01-.043-.079-.05-.116-.061a.078.078 0 0 1 .01-.018l.01.005c.004-.008.015-.01.057-.041-.003-.008-.003-.008.01-.05l.001-.109-.01-.004a.264.264 0 0 0 .006-.01l-.011-.005a.24.24 0 0 1-.002-.024l-.01-.004c.003-.015-.006-.024-.016-.034a.367.367 0 0 0 .003-.018c-.01-.009-.01-.009-.045-.021-.005.002-.01.007-.015.011-.06 0-.112.007-.142.061-.003.028.004.08.003.094-.004 0-.006 0-.008.003-.02.044-.047.072-.07.114-.039-.006-.039-.006-.086-.02a2.034 2.034 0 0 0-.07.01c-.034-.01-.034-.01-.042-.008-.047-.007-.139-.048-.182-.031l-.017-.017c.005-.046.026-.09.044-.134-.01-.008-.038-.025-.032-.038-.007-.007-.013-.01-.01-.02-.023-.013-.023-.013-.026-.02-.02-.012-.02-.012-.13-.048a.269.269 0 0 1-.102.054c-.022.051.022.09 0 .142a.869.869 0 0 0-.011-.005c-.028.023-.09.007-.124.006-.05.049-.08.143-.03.2.023.007.046.014.07.023a.018.018 0 0 1 .007-.008c.035.003.108.004.1.058Zm-.146.656c.013-.033.013-.033.02-.077a.112.112 0 0 1 .013-.017c-.002.037 0 .067-.012.103-.01-.01-.01-.01-.02-.01Zm-.2-.143.028-.038c.019.008.024.017.043.028v.008c-.021.008-.021.008-.028.016l-.042-.014Zm.233.049c.007-.04.025-.064.035-.098-.028-.072.041-.162.066-.228l-.018-.006c-.011.007-.05.056-.057.06-.005.01-.063.052-.083.073-.029.001-.05.019-.067.04.014.005.03.014.045.022a.011.011 0 0 1 .007-.003c.01.007.018.016.028.025v.01c.027.012.013.091.03.122a.112.112 0 0 1 .014-.017Zm.478.137c.024-.048.025-.075.078-.074l.005-.01c.02 0 .02 0 .033.006-.015.033-.082.077-.116.078Zm-.096-.35c.001-.013.002-.027.005-.04-.026-.03-.087-.042-.122-.023.004.007.019.015.05.051.005.037-.014.06-.028.093-.044.051-.104.033-.116.119.026.011.052.024.078.037.032-.013.072-.099.087-.125l.046-.112Zm.275.403-.006-.007c.005-.01.009-.021.015-.03.025-.001.025-.001.047.005.01.016.006.037-.009.05a.54.54 0 0 0-.047-.018Zm-.852-.504c-.006-.043.046-.05.073-.056.01-.013.018-.016.035-.018-.02.043-.057.088-.108.074Zm.531.213.046-.112a.31.31 0 0 0 .013.006l-.048.11-.01-.004Zm.244-.002c.005-.016.005-.016.02-.033a.174.174 0 0 1 .02.012l-.018.028a.094.094 0 0 0-.022-.007Zm-.455-.434c.038.028.075.049.124.044.018-.02.031-.007.04.014-.03.067-.075.058-.14.045-.027-.095-.027-.095-.024-.103Zm.19-.025c-.002-.012-.002-.012.003-.031.005 0 .01 0 .013.002l.008-.02c.019-.001.019-.001.035.003a.02.02 0 0 1 .007-.008l.032.01a.324.324 0 0 1 .167.016.388.388 0 0 1-.111.083c-.05-.01-.106-.039-.154-.055ZM32.472 57.096c.029.02.037.04.054.068l.109.092c.067.074.12.142.17.229.084.071.28.218.379.095-.001-.009-.001-.009.018-.06-.008-.017-.06-.094-.039-.121a.994.994 0 0 0-.142-.133c-.083-.08-.083-.08-.086-.09-.01 0-.01 0-.092-.058l-.095-.029-.063-.056c-.037-.032-.08-.061-.11-.1a.254.254 0 0 0-.095-.058c-.136-.103-.285-.207-.405-.328 0-.003 0-.006.003-.01a6.058 6.058 0 0 1-.112-.13c-.019-.015-.09-.06-.092-.083-.05-.023-.08-.088-.113-.13-.023-.07-.08-.127-.121-.188l-.144-.043c-.058.026-.11.092-.154.139-.04.018-.034.069-.035.103.04.052.133.105.15.17.075.075.11.087.161.187a.478.478 0 0 1 .103.145.765.765 0 0 0-.035.048c-.013.069.098.163.053.2-.022-.014-.046-.037-.071-.04-.017-.03-.048-.054-.074-.077a.415.415 0 0 0-.098-.15c-.025-.08-.12-.05-.174-.025-.071.088-.08.098-.022.198.014.059.012.078.06.116.02-.016.07-.038.095-.054.028.004.046.03.064.05l.124.11a.085.085 0 0 0-.01.017l-.008.006a2.285 2.285 0 0 1-.07-.069c-.035-.038-.035-.038-.043-.055l-.058-.03c-.026.016-.038.029-.044.057.023.03.14.172.06.2l-.063-.052c0-.003.001-.006.004-.01-.073-.064-.06-.15-.176-.137-.024.006-.172.068-.176.065a.796.796 0 0 0-.039.05.02.02 0 0 0 .006.008c-.02.04-.005.07.016.101.035.029.036.037.085.081.058.047.135.07.169.144-.025.087-.071.053-.135.087l-.02-.01-.05.029a1.655 1.655 0 0 0-.035.082c.021.04.024.055.04.075.02.072.029.121.105.154.043.044.141.137.207.106.002.002.005.002.01.004.008-.006.05-.034.06-.027.027-.028.055-.055.085-.083l.007.002c.052-.065-.036-.122-.058-.17a.213.213 0 0 0 .005-.007c-.01-.011-.016-.01-.01-.026-.011-.02-.004-.04-.018-.057.002-.011.002-.011.012-.014.09.078.137.185.223.266.016.033.05.053.072.08a.31.31 0 0 0 .062.12.029.029 0 0 0-.005.012c.065.078-.029.161.06.232.041-.02.116-.129.09-.168l.006-.007-.017-.024a.055.055 0 0 1 .007-.008.187.187 0 0 1-.008-.007l.007-.009-.009-.007c.007-.016.005-.033-.002-.05l.008-.01a.12.12 0 0 1-.014-.017c.001-.004.002-.007.005-.01-.016-.031-.047-.067-.035-.104-.02-.03-.04-.06-.034-.097-.028-.023-.043-.071-.058-.102a3.459 3.459 0 0 1-.083-.085c-.022-.033-.034-.073-.064-.098 0-.003.001-.006.003-.008-.011-.011-.025-.02-.022-.036-.042-.034-.068-.083-.105-.122 0-.006 0-.006.02-.035.045.036.08.073.118.115l.044-.006a2.13 2.13 0 0 1 .06-.072c.067.001.132.083.16.139l.092.098c.07.046.137.075.22.093.07-.04.063-.106.058-.174-.092-.074-.092-.074-.161-.136-.04-.055-.081-.112-.146-.142l-.198-.203c-.001-.012-.001-.012.012-.04.02-.002.068.01.078-.002.04.008.073-.046.088-.079-.003-.002-.005-.005-.006-.008.004-.01.01-.02.016-.03l-.007-.016c.021-.053-.063-.137-.098-.17-.026-.008-.026-.008-.045-.023a.04.04 0 0 0-.01.008c-.01-.008-.048-.027-.06-.022-.035-.041-.08-.087-.098-.14l-.09-.089.01-.01c.066.018.12.085.173.128.135.14.281.26.44.367l.101.102c.02.016.11.078.113.098Zm.213-.063c-.037-.032-.08-.061-.11-.1l.117.091-.007.009Zm-.213.063-.119-.09.006-.008c.02.016.11.078.113.098Zm-.917-.059.07.07c.002-.003.005-.005.009-.007l-.079-.063Zm.079.063-.079-.063c-.035-.038-.035-.038-.043-.055l.007-.01.124.111a.085.085 0 0 0-.01.017Zm-.592.134c.035.029.036.037.085.081l-.09-.072c0-.003.003-.005.005-.009ZM46.834 57.571c.007 0 .07.023.107.029a.2.2 0 0 0 .086-.05c.024-.096-.068-.215-.107-.29-.03-.04-.12-.055-.164-.068-.02-.003-.041-.001-.057-.016a.67.67 0 0 1 .043-.04.058.058 0 0 1 .006.005.035.035 0 0 1 .01-.008c.003 0 .006.002.009.005a.73.73 0 0 1 .232-.158l.07-.07c.009-.028.007-.072.027-.091l-.006-.007.029-.052c-.012-.047-.066-.113-.11-.128a.797.797 0 0 0-.181.053c-.02-.019-.089-.006-.104.02.014.045.025.095.05.137-.015.018-.015.018-.068.06-.085.014-.136.145-.218.173-.025-.003-.047-.004-.067-.02-.053-.004-.089-.047-.142-.057-.053-.036-.092-.074-.157-.092l-.108-.105c-.051-.008-.084.08-.07.12-.021.097-.018.104-.028.15.005.01.012.04.002.051a.814.814 0 0 1 .031.047c.017-.006.029-.002.046-.015.067-.01.16.037.21.084-.073.065-.159.093-.242.143-.067-.01-.138.035-.204.022-.056.017-.077.017-.09.026 0-.002-.003-.005-.005-.007-.038.021-.08-.009-.117.004a1.375 1.375 0 0 0-.078-.002c-.04.018-.186-.014-.22-.047l-.007.005-.018-.006c-.12.025.01.143.071.143.035.016.077.024.11.039.08-.01.143.02.218.044.027-.01.088.012.116.022.04-.004.17-.039.199-.02.097-.036.131-.042.183-.06.095-.051.149-.092.15.034-.014.05.009.118-.02.166a.317.317 0 0 1-.018.165c.02.032-.021.075-.003.112-.007.04-.006.13-.03.166.017.027-.01.07.008.088-.02.026.008.102-.008.117a.315.315 0 0 1 .009.009l-.012.028c.004.014.025.053.012.065.015.03.042.058.067.082.003-.003.005-.005.008-.006.02.01.04.022.057.034.094.017.099.174.199.173.058-.06.011-.16.011-.237-.011-.025-.013-.051-.017-.079.003-.017-.033-.177-.025-.184-.005-.013-.023-.05-.013-.06a.148.148 0 0 1-.006-.096.567.567 0 0 1-.047-.294c-.01-.025-.01-.025-.011-.048.023-.055-.013-.12.014-.175-.003-.013-.017-.05-.006-.06-.003-.005-.005-.01-.008-.012.01-.04.006-.238.089-.157.003-.003.006-.004.01-.005.02.006.04.009.056.024.003-.003.006-.004.01-.005l.04.03c.024-.004.045.01.064.025.01.003.01.003.043.038l.087.086.003.003Zm-.133-.127c.01.003.01.003.043.038l.087.086.003.003-.006.006-.127-.125v-.008ZM29.137 63.43a.233.233 0 0 0 0-.465.233.233 0 0 0 0 .465ZM49.183 63.43a.233.233 0 1 0-.233-.233c0 .128.105.233.233.233ZM49.76 64.263l-.034.65-1.091-.056.032-.62.121.007-.024.472.338.018.023-.434.12.006-.022.434.39.02.026-.504.121.007Zm-.068.887-.028.157-.841.209-.001.006.78.137-.026.145-1.076-.19.028-.157.84-.208.002-.007-.78-.137.025-.145 1.077.19Zm-.21 1.106-.033.143-1.065-.246.033-.143 1.065.246Zm-.556.452c.153.054.252.122.297.204a.304.304 0 0 1 .027.25.338.338 0 0 1-.2.211c-.101.043-.24.036-.413-.02-.191-.062-.322-.142-.394-.239a.323.323 0 0 1-.055-.304.297.297 0 0 1 .172-.189c.086-.037.19-.034.31.01l-.044.134a.399.399 0 0 0-.215-.023.148.148 0 0 0-.108.106c-.02.065-.004.127.05.187.055.06.16.116.319.168.146.047.254.061.326.042.07-.02.116-.06.136-.12.015-.045.007-.093-.024-.143-.03-.05-.107-.095-.229-.135l.045-.14Zm.045 1.232-.053.138-1.02-.392.052-.137 1.02.391Zm-.785.45c-.14-.073-.251-.1-.331-.083-.08.016-.144.07-.19.161l-.032.063.758.385.032-.062c.046-.091.053-.174.021-.247-.032-.074-.118-.146-.258-.218Zm.07-.138c-.175-.089-.317-.12-.427-.091-.11.027-.2.111-.272.252l-.099.193.974.497.099-.194a.453.453 0 0 0 .041-.356c-.037-.111-.142-.212-.316-.3Zm.097 1.022-.326.565-.947-.546.31-.537.105.06-.236.41.293.17.218-.377.105.06-.218.377.338.195.253-.437.105.06Zm-.447.756-.884-.642-.116.16.501.538-.008.01-.666-.31-.117.16.884.642.076-.103-.631-.459.007-.01.721.334.06-.082-.54-.583.007-.01.631.458.075-.103Zm-.794 1.05-.453.47-.786-.76.43-.446.088.084-.328.34.243.236.302-.312.088.084-.302.312.28.271.351-.363.087.085Zm-.813.409a.255.255 0 0 0-.18-.081.625.625 0 0 0-.252.047.508.508 0 0 1-.201.052.147.147 0 0 1-.093-.048.146.146 0 0 1-.044-.112.173.173 0 0 1 .06-.114.15.15 0 0 1 .133-.044c.048.007.087.03.116.067l.107-.1a.353.353 0 0 0-.2-.107c-.08-.015-.162.015-.242.09a.32.32 0 0 0-.105.212.277.277 0 0 0 .08.222.232.232 0 0 0 .163.076.586.586 0 0 0 .248-.057.55.55 0 0 1 .19-.04.16.16 0 0 1 .122.046c.035.037.053.08.054.129.002.048-.023.096-.073.142a.194.194 0 0 1-.133.054c-.051.001-.099-.022-.142-.068l-.026-.029-.108.1.03.033c.062.066.134.1.219.103a.337.337 0 0 0 .243-.104.354.354 0 0 0 .126-.236.302.302 0 0 0-.092-.233Zm-.443.812-.514.4-.673-.86.489-.382.075.096-.373.291.209.267.342-.267.075.095-.343.268.24.307.398-.31.075.095Zm-.71.544-.58-.927-.124.078.42.671-.006.004-.718-.486-.135.085.579.927.124-.078-.42-.672.006-.003.718.485.136-.084Zm-.957.58-.131.066-.496-.974.13-.066.497.973Zm-.556.284-.409-1.013-.136.055.172.427-.337.136-.173-.426-.136.054.41 1.014.135-.055-.191-.474.338-.137.191.474.136-.055Zm-.9-.07c.042.156.044.275.002.36a.304.304 0 0 1-.19.164.336.336 0 0 1-.287-.042c-.093-.058-.167-.175-.22-.35-.059-.192-.069-.345-.03-.46a.32.32 0 0 1 .216-.219.298.298 0 0 1 .255.033c.079.049.136.135.169.259l-.135.04a.402.402 0 0 0-.104-.188.148.148 0 0 0-.149-.028c-.065.02-.107.07-.125.148-.018.08-.003.199.046.358.045.146.095.243.152.29.057.048.116.062.177.043.044-.013.079-.047.102-.101.024-.054.017-.142-.02-.265l.14-.043Zm-1.35-.158-.513.11.074.35.388-.083.025.119-.388.082.103.482-.144.03-.227-1.069.656-.14.025.12Zm-.86.586c-.021-.178-.055-.292-.1-.342-.044-.05-.094-.072-.149-.066-.055.007-.099.04-.132.1-.034.06-.04.18-.018.357.022.177.056.292.104.344.047.053.098.076.153.069.055-.007.098-.042.129-.103.031-.062.036-.182.014-.36Zm.153-.019c.024.199.011.345-.04.44a.299.299 0 0 1-.24.161.306.306 0 0 1-.276-.098c-.075-.079-.124-.218-.148-.417-.025-.198-.01-.344.043-.436a.31.31 0 0 1 .244-.159.3.3 0 0 1 .273.095c.072.077.12.215.144.414Zm-1.22-.406-.3.6v.493h-.147v-.492l-.3-.6h.147l.223.465h.007l.224-.466h.147Zm-.837.108-.255-.023-.085.968-.146-.013.085-.967-.255-.023.01-.12.656.057-.01.12Zm-1.204.84-.145-.026.19-1.076.145.025-.19 1.077Zm-.534-.41a.255.255 0 0 0-.034-.195.62.62 0 0 0-.18-.182.517.517 0 0 1-.155-.138.147.147 0 0 1-.012-.105.146.146 0 0 1 .068-.098.17.17 0 0 1 .128-.013c.054.012.091.04.111.084.021.044.024.089.01.134l.142.033a.353.353 0 0 0-.023-.226c-.033-.075-.103-.125-.211-.15a.322.322 0 0 0-.234.031.279.279 0 0 0-.139.191.23.23 0 0 0 .028.177.589.589 0 0 0 .186.174c.064.045.11.09.14.134a.16.16 0 0 1 .03.128.192.192 0 0 1-.077.117c-.04.028-.092.035-.158.02a.196.196 0 0 1-.12-.08c-.03-.043-.037-.095-.023-.157l.009-.037-.143-.034-.01.044a.303.303 0 0 0 .036.238c.045.072.12.12.223.143a.358.358 0 0 0 .266-.026.304.304 0 0 0 .142-.207Zm-.817-.705a.184.184 0 0 0-.008-.15c-.024-.044-.074-.078-.151-.103l-.134-.044-.117.359.17.055a.225.225 0 0 0 .14.002c.046-.014.08-.054.1-.119Zm-.07.797-.146-.047-.07-.52-.161-.053-.146.45-.14-.045.337-1.04.304.099a.4.4 0 0 1 .215.147c.045.066.051.152.017.257a.284.284 0 0 1-.122.17.283.283 0 0 1-.168.039l.08.543Zm-.848-.298.043-.113-.471-.181.14-.364.405.156.044-.113-.406-.156.121-.317.442.17.043-.114-.578-.222-.392 1.02.609.234Zm-.279-1.293-.786.84-.114-.058.217-1.13.137.07-.177.85.003.001.584-.642.136.07Zm-1.534.414.58-.927-.125-.077-.58.927.125.077Zm-.515-.35-.127-.096.196-.844-.005-.004-.477.633-.117-.089.657-.873.128.097-.196.843.005.004.476-.632.118.088-.658.873Zm-.485-.771.518-.575-.11-.098-.517.574c-.048.055-.097.082-.145.085a.183.183 0 0 1-.134-.052.183.183 0 0 1-.065-.127c-.003-.049.02-.1.069-.153l.517-.575-.11-.098-.517.574a.35.35 0 0 0-.103.234c0 .08.042.159.128.235.085.078.168.112.247.103a.35.35 0 0 0 .222-.127Zm-.913-.882a.352.352 0 0 1-.232.108c-.08.001-.159-.04-.237-.124-.079-.084-.115-.166-.107-.246a.351.351 0 0 1 .123-.224l.566-.527.1.107-.566.528c-.053.049-.08.098-.082.146a.182.182 0 0 0 .055.133c.037.04.08.062.128.063.049.002.1-.022.152-.071l.566-.528.1.108-.566.527Zm-.448-.902c.141-.11.222-.197.242-.262.02-.064.013-.118-.021-.161-.034-.044-.086-.065-.154-.063-.069.002-.174.059-.314.169-.142.11-.222.199-.243.266-.02.067-.013.123.02.167.035.043.087.063.155.057.07-.005.174-.063.315-.173Zm.095.121c.157-.123.251-.236.28-.337a.302.302 0 0 0-.059-.282.309.309 0 0 0-.262-.128c-.106.002-.238.065-.396.188-.158.123-.251.237-.28.341-.03.104-.011.2.057.287a.298.298 0 0 0 .263.123c.107-.004.239-.069.397-.192Zm-.968-.38-.08-.122.429-.279-.2-.305-.428.278-.08-.123.917-.595.08.123-.386.25.198.306.386-.25.08.123-.916.595Zm-.451-.739.107-.056-.252-.475.994.059.107-.057-.294-.553-.107.056.225.424-.994-.058-.107.056.32.604Zm-.4-.8-.044-.099.073-.054a.188.188 0 0 1-.09-.047.27.27 0 0 1-.072-.097c-.037-.082-.031-.172.016-.27.047-.098.155-.184.322-.258.183-.082.332-.114.448-.095a.297.297 0 0 1 .24.18c.04.09.038.174-.005.254a.45.45 0 0 1-.223.19l-.057-.129a.37.37 0 0 0 .166-.122.144.144 0 0 0 .009-.144c-.028-.062-.081-.095-.159-.097-.078-.003-.193.03-.345.098-.144.064-.234.127-.271.19-.038.063-.045.12-.023.171.023.05.06.082.11.095.05.013.113.002.19-.033l.065-.028-.08-.181.11-.05.133.298-.513.228Zm-.31-.805 1.044-.32-.043-.14-.757.232-.002-.006.655-.568-.047-.153-1.045.32.043.14.757-.231.002.006-.655.568.047.152Zm.153-1.154.36-.185-.003-.01-.403-.022.046.217Zm-.393.362-.032-.15.313-.153-.06-.285-.35-.012-.03-.15 1.147.083.026.125-1.014.542Zm.134-.943a.35.35 0 0 1-.25-.05c-.066-.046-.106-.125-.12-.24-.014-.114.005-.201.058-.26a.353.353 0 0 1 .232-.11l.767-.094.018.146-.768.094c-.072.009-.122.032-.152.07a.181.181 0 0 0-.035.14c.007.055.03.097.068.127.038.03.093.04.164.031l.768-.094.018.145-.768.095Zm-.415-.83-.01-.108.088-.027a.184.184 0 0 1-.07-.074.268.268 0 0 1-.036-.116c-.008-.089.026-.172.103-.25.077-.077.206-.123.389-.14.199-.017.35.002.453.058.104.055.16.137.17.248a.274.274 0 0 1-.088.238.451.451 0 0 1-.273.107l-.013-.14a.368.368 0 0 0 .197-.062.144.144 0 0 0 .056-.133c-.006-.068-.046-.116-.119-.143-.073-.028-.192-.035-.357-.02-.157.013-.264.044-.32.092-.055.047-.08.099-.076.154a.157.157 0 0 0 .072.125c.043.028.107.038.192.031l.07-.006-.017-.197.12-.01.03.324-.561.049ZM41.427 62.806a.561.561 0 0 0-.089.079s-.04.04-.023.048c.017.007.147.002.155-.023.045-.14.272-.143.244-.225-.05-.145-.148.03-.287.12Zm-.706 1.566 3.3-.003c-.517 2.406-2.492 4.017-4.065 4.454-7.883 2.187-8.246-6.637-3.268-10.008.802-.542 1.801-1.019 2.802-1.161.234-.034.496-.055.73-.085.265-.033 1.091.038 1.426.1.564.105 1.284.354 1.697.716.735.644.792 1.604.382 2.434-.136.274-.425.78-.743.914-.064.027-.076.093-.127.135-.31.253-.659.49-.973.736-.07.056-.214-.013-.074-.074.075-.033.278-.202.344-.254.072-.06.151-.141.23-.23.062 0 .078-.025.118-.06.048-.008.127-.098.07-.132.01-.008.187-.264.208-.123a.44.44 0 0 1 .04-.012l.032-.053c.006-.007.037-.027.033-.034-.02-.032-.17.043-.143.007.002-.002.264-.31.306-.313.065.015-.009.08.072.021.09-.065.152-.12.126-.14-.069-.054-.144.035-.08-.077.102-.183.241-.362.285-.564.121-.563.085-1.191-.32-1.674-.365-.438-1.068-.667-1.643-.722-1.072-.103-2.247.087-3.134.64-2.061 1.284-4.167 4.064-3.099 6.737.791 1.98 3.468 1.995 5.2.74 1.13-.818.988-1.323.066-1.738l.202-.177ZM39.987 70.173l.05-.159h-.66l-.128.501.06-.018a.916.916 0 0 1 .258-.043c.089 0 .158.023.214.07a.22.22 0 0 1 .079.177.259.259 0 0 1-.082.199.302.302 0 0 1-.217.078.345.345 0 0 1-.163-.04.416.416 0 0 1-.135-.118l-.022-.03-.08.069.02.026a.476.476 0 0 0 .394.2c.13 0 .24-.036.327-.108a.345.345 0 0 0 .134-.276.316.316 0 0 0-.125-.258.489.489 0 0 0-.313-.097 1.038 1.038 0 0 0-.203.02l.05-.193h.542Zm-1.75.442a.495.495 0 0 1-.209.274.313.313 0 0 1-.16.046.261.261 0 0 1-.21-.093.375.375 0 0 1-.082-.254c0-.082.015-.16.045-.23a.412.412 0 0 1 .115-.163.441.441 0 0 1 .114-.067.32.32 0 0 1 .116-.02c.088 0 .157.03.212.092a.364.364 0 0 1 .083.25.57.57 0 0 1-.024.165Zm-.242-.616a.497.497 0 0 0-.224.053.706.706 0 0 0-.314.362.656.656 0 0 0-.043.234c0 .124.035.225.106.3a.367.367 0 0 0 .28.115.517.517 0 0 0 .343-.131.739.739 0 0 1-.138.189.945.945 0 0 1-.401.22l-.036.012.034.089.03-.009c.123-.033.233-.08.328-.14.096-.06.18-.135.25-.223.073-.093.13-.192.17-.294a.876.876 0 0 0 .057-.307.48.48 0 0 0-.12-.34.421.421 0 0 0-.322-.13Zm3.54.85a.346.346 0 0 1-.275.126.277.277 0 0 1-.222-.093.39.39 0 0 1-.082-.263c0-.078.015-.148.044-.212a.474.474 0 0 1 .13-.164.343.343 0 0 1 .218-.08c.089 0 .159.03.214.095a.383.383 0 0 1 .084.258.494.494 0 0 1-.11.334Zm.158-.703a.385.385 0 0 0-.289-.118.492.492 0 0 0-.332.125.857.857 0 0 1 .14-.186.973.973 0 0 1 .396-.232l.03-.01-.023-.101-.036.011c-.24.078-.433.204-.577.378a.885.885 0 0 0-.219.577c0 .146.042.267.124.36.083.093.191.14.322.14.084 0 .163-.02.235-.058a.59.59 0 0 0 .192-.169.738.738 0 0 0 .11-.201.635.635 0 0 0 .039-.215.42.42 0 0 0-.112-.3Zm-5.438.923h.158l.188-1.112-.177.122-.17.99Z" clip-rule="evenodd"/></g><defs><filter id="a" width="154" height="157" x="0" y="0" color-interpolation-filters="sRGB" filterUnits="userSpaceOnUse"><feFlood flood-opacity="0" result="BackgroundImageFix"/><feColorMatrix in="SourceAlpha" result="hardAlpha" values="0 0 0 0 0 0 0 0 0 0 0 0 0 0 0 0 0 0 127 0"/><feOffset dy="16"/><feGaussianBlur stdDeviation="6.5"/><feColorMatrix values="0 0 0 0 0 0 0 0 0 0 0 0 0 0 0 0 0 0 0.03 0"/><feBlend in2="BackgroundImageFix" result="effect1_dropShadow_185_218"/><feBlend in="SourceGraphic" in2="effect1_dropShadow_185_218" result="shape"/></filter></defs></svg>