<svg xmlns="http://www.w3.org/2000/svg" width="154" height="157" fill="none"><g filter="url(#a)"><path fill="#fff" d="M13 0h128v128H13z"/><path fill="#030000" fill-rule="evenodd" d="M125.817 70.484v-.318l1.183-.002v1.008a2.12 2.12 0 0 1-.562.318c-.193.071-.392.106-.595.106a1.62 1.62 0 0 1-.748-.171 1.144 1.144 0 0 1-.508-.495 1.52 1.52 0 0 1-.172-.725c0-.265.057-.512.171-.74.113-.23.277-.4.491-.512.213-.11.459-.166.737-.166.202 0 .385.031.548.095a.891.891 0 0 1 .384.266c.093.114.164.262.212.445l-.333.089a1.02 1.02 0 0 0-.156-.326.648.648 0 0 0-.268-.19 1.002 1.002 0 0 0-.384-.072c-.169 0-.316.026-.439.076a.832.832 0 0 0-.475.466c-.071.168-.107.35-.107.546 0 .243.043.445.129.608a.812.812 0 0 0 .375.364c.164.079.338.118.522.118.161 0 .316-.03.469-.09.153-.06.268-.123.347-.192v-.506h-.821Zm-4.168 1.066v-2.717h.379l1.468 2.133v-2.133h.354v2.717h-.379l-1.468-2.135v2.135h-.354Zm-1.055-2.717h.37v2.717h-.37v-2.717Zm-2.544 1.2h.796c.168 0 .301-.018.396-.052a.42.42 0 0 0 .291-.406.397.397 0 0 0-.144-.318c-.095-.082-.247-.123-.454-.123h-.885v.899Zm-.369 1.517v-2.717h1.239c.249 0 .438.025.568.073a.615.615 0 0 1 .31.259c.078.123.117.26.117.41a.67.67 0 0 1-.193.487c-.128.132-.327.216-.595.252.098.046.173.09.223.135.108.097.211.218.307.362l.487.74h-.466l-.369-.566a4.788 4.788 0 0 0-.268-.374.795.795 0 0 0-.187-.182.56.56 0 0 0-.169-.073 1.216 1.216 0 0 0-.206-.012h-.429v1.206h-.369Zm-2.639 0v-2.717h2.02v.32h-1.65v.833h1.545v.319h-1.545v.924h1.715v.321h-2.085Zm-2.641 0v-2.717h2.02v.32h-1.65v.833h1.546v.319h-1.546v.924h1.716v.321h-2.086Zm-2.867 0v-2.717h.379l1.468 2.133v-2.133h.354v2.717h-.379l-1.468-2.135v2.135h-.354Zm-1.055-2.717h.369v2.717h-.369v-2.717Zm-1.829 1.651v-.318l1.184-.002v1.008a2.11 2.11 0 0 1-.563.318c-.193.071-.391.106-.594.106-.275 0-.525-.056-.749-.171a1.147 1.147 0 0 1-.507-.495 1.52 1.52 0 0 1-.172-.725c0-.265.057-.512.171-.74.113-.23.277-.4.49-.512.214-.11.46-.166.738-.166.202 0 .385.031.548.095a.903.903 0 0 1 .384.266c.093.114.163.262.212.445l-.334.089a.999.999 0 0 0-.156-.326.641.641 0 0 0-.268-.19.999.999 0 0 0-.384-.072c-.169 0-.316.026-.438.076a.815.815 0 0 0-.299.197.926.926 0 0 0-.176.269c-.071.168-.107.35-.107.546 0 .243.043.445.129.608a.812.812 0 0 0 .375.364c.164.079.337.118.521.118.161 0 .317-.03.469-.09.153-.06.268-.123.347-.192v-.506h-.821Zm-4.168 1.066v-2.717h.38l1.467 2.133v-2.133h.355v2.717h-.379l-1.468-2.135v2.135h-.355Zm-2.629 0v-2.717h2.02v.32h-1.65v.833h1.546v.319h-1.546v.924h1.716v.321h-2.086Zm-3.278 0v-2.717h1.886v.32h-1.516v.842h1.312v.321h-1.312v1.234h-.37Zm-2.823-1.318c0 .328.09.586.27.774a.907.907 0 0 0 .683.283.902.902 0 0 0 .687-.285c.18-.19.27-.46.27-.81 0-.221-.04-.414-.116-.58a.87.87 0 0 0-.337-.384.938.938 0 0 0-.498-.136.959.959 0 0 0-.676.263c-.19.174-.283.467-.283.875Zm-.382-.005c0-.451.125-.804.374-1.06.25-.254.57-.382.965-.382.257 0 .49.06.697.18.207.12.365.287.474.501.109.214.163.458.163.73 0 .275-.057.522-.172.739a1.158 1.158 0 0 1-.486.494c-.21.112-.436.167-.678.167-.264 0-.499-.06-.706-.185a1.199 1.199 0 0 1-.47-.506 1.496 1.496 0 0 1-.16-.678Zm-2.538 1.323V70.4l-1.077-1.567h.45l.551.82c.101.152.196.305.284.46.084-.143.185-.303.305-.48l.541-.8h.43L91.203 70.4v1.15h-.37Zm-2.497 0v-2.396h-.921v-.321h2.215v.32h-.925v2.397h-.37Zm-1.77-2.717h.37v2.717h-.37v-2.717Zm-2.83 1.844.35-.03a.73.73 0 0 0 .114.335c.06.087.154.158.282.211.126.054.27.08.428.08.141 0 .266-.02.374-.06a.525.525 0 0 0 .24-.167.384.384 0 0 0 .08-.234.344.344 0 0 0-.076-.223.558.558 0 0 0-.252-.16 5.004 5.004 0 0 0-.498-.133 2.612 2.612 0 0 1-.539-.17.753.753 0 0 1-.298-.252.609.609 0 0 1-.098-.338c0-.137.04-.266.12-.385.08-.12.197-.21.35-.272.155-.061.325-.092.513-.092.208 0 .39.032.549.097.158.065.28.16.365.286.084.126.13.269.137.428l-.355.026a.552.552 0 0 0-.194-.389c-.11-.088-.272-.131-.486-.131-.224 0-.387.04-.49.12a.356.356 0 0 0-.153.287c0 .098.037.179.109.241.071.064.257.128.557.194.3.066.507.124.62.173a.85.85 0 0 1 .36.277.663.663 0 0 1 .115.387c0 .145-.042.28-.127.409a.842.842 0 0 1-.367.298c-.16.071-.34.106-.538.106a1.64 1.64 0 0 1-.636-.107.883.883 0 0 1-.556-.812Zm-2.355-.644h.795c.169 0 .301-.018.396-.052a.42.42 0 0 0 .292-.406.4.4 0 0 0-.144-.318c-.095-.082-.247-.123-.455-.123h-.884v.899Zm-.37 1.517v-2.717h1.24c.249 0 .438.025.568.073a.62.62 0 0 1 .31.259c.078.123.116.26.116.41a.669.669 0 0 1-.192.487c-.129.132-.327.216-.595.252a.93.93 0 0 1 .223.135c.108.097.21.218.307.362l.486.74h-.465l-.37-.566a5.05 5.05 0 0 0-.267-.374.806.806 0 0 0-.187-.182.568.568 0 0 0-.169-.073 1.221 1.221 0 0 0-.206-.012h-.429v1.206h-.37Zm-2.638 0v-2.717h2.02v.32h-1.65v.833h1.545v.319h-1.546v.924h1.716v.321h-2.085Zm-1.85 0-1.083-2.717h.4l.727 1.974c.058.158.107.307.146.445.044-.148.094-.296.151-.445l.755-1.974h.377l-1.094 2.717h-.38Zm-1.857-2.717h.37v2.717h-.37v-2.717Zm-2.923 2.717v-2.717h.379l1.468 2.133v-2.133h.354v2.717h-.379l-1.468-2.135v2.135h-.354Zm-1.02-2.717h.371v1.57c0 .273-.032.49-.095.65a.8.8 0 0 1-.345.392c-.166.102-.383.151-.652.151-.262 0-.476-.043-.642-.131a.756.756 0 0 1-.357-.381c-.072-.166-.107-.393-.107-.68v-1.571h.37V70.4c0 .236.023.41.068.522a.506.506 0 0 0 .232.258c.11.061.245.091.403.091.272 0 .466-.06.582-.18.115-.12.173-.35.173-.69v-1.57Zm-5.56 2.717v-2.717h.38l1.467 2.133v-2.133h.355v2.717h-.38l-1.468-2.135v2.135h-.354Zm-2.138-1.116h.948l-.292-.752a7.273 7.273 0 0 1-.198-.564 3.402 3.402 0 0 1-.15.52l-.308.796Zm-.806 1.116 1.073-2.717h.399l1.143 2.717h-.421l-.326-.823h-1.169l-.306.823h-.393Zm-2.553 0v-2.717h.38l1.467 2.133v-2.133h.355v2.717h-.38l-1.467-2.135v2.135h-.355Zm-2.629 0v-2.717h2.02v.32h-1.65v.833h1.545v.319h-1.545v.924h1.715v.321h-2.085Zm-2.853 0v-2.717h.37v1.116h1.452v-1.116h.37v2.717h-.37v-1.28h-1.452v1.28h-.37ZM61.769 61.446c.142-.311.37-.169.276.089-.096.258-.257.071-.276-.089Zm-2.027-1.92c.247-.445.228.39-.02 1.689-.247 1.298-1.027 2.934-1.426 3.52-.4.588-.743.445-1.085.019-.343-.427-.42-.623-.286-.8.133-.178.457-.303.457-.659 0-.355.248-.853.343-1.493.095-.64-.59-.96-.876-1.405-.285-.445.114-.623.229-.463.114.16 1.731.872 1.864 1.174.134.302-.38.818-.666.996-.285.178-.456.854-.492 1.336-.036.482.245.407.283.264.038-.142.324-.622.856-1.654.533-1.03.762-2.169.819-2.524Zm-2.036-.765c-.324.338-.324.515.037.426.362-.088 1.028-1.049 1.238-.853.21.195.437.356.666.356.228 0 .228.213.457.498.228.284.38.693 1.16.337.78-.355 1.332-1.049 2.075-.978.742.071.666-.106.647.498-.02.605-.02 1.032-.419.996-.4-.035-.533-.605-1.237.142-.704.747-.78.712-1.142.712-.361 0-.78.337-.609.871.172.534.533.818.933.693.4-.124.38-.284.57-.284.19 0 .819 0 1.18-.676.362-.675.4-.835.4-.16 0 .676-.057 2.863 0 3.237.057.373-.133.356-.647.23-.514-.124-.685-.106-.304.197.38.302 1.084.889 1.598.729.514-.16.686-.16.666-1.014-.019-.854-.038-3.859.096-4.588.133-.73 0-1.334-.4-1.37-.4-.035-.857-.213-.095-.426.761-.214 3.635-1.032 3.559-1.476-.077-.444-.686-.676-1.104-.444-.419.23-1.77.942-3.312 1.28-1.541.337-2.988 1.067-3.14.764-.152-.302.095-.658-.114-.853-.21-.196-2.779-2.845-3.045-2.579-.266.267.21.89.228 1.263.02.373.533 1.12.704 1.316.172.195-.076.391-.646 1.156ZM72.753 63.74c-.02.204.136.24.213.027.078-.214-.213-.294-.213-.027Zm.262-1.102c.543.337.252.835.388.924.135.089.31.107.31.427s.931.711 1.358 1.102c.426.392.523-.48.62-1.867.097-1.387.33-3.165.582-3.841.252-.676-.582.071-.815.374-.232.302-.795.444-1.148.608-.354.165-.638.585-.578.53.061-.056.485.16.64.426.156.267-1.124 1.174-1.357 1.317Zm-.078-4.108c.466-1.21.466-1.476.427-2.099-.039-.622-.039-.764.233-.622.271.142.989.338 1.105.889.116.551.427.782.737 1.138.31.356-.02.213-.291.551-.271.338-.911.16-.93.285-.02.124-.272.658-.563 1.191-.29.534-.233.498.33.267.562-.231 1.609-1.227 2.443-1.423.834-.195.562 1.423.31 2.206-.252.782-.135 2.4-.194 3.023-.058.622-.33 1.066-.368 1.476-.039.409-.427.515-.834.409-.407-.107-.427-.32-1.008-.659-.582-.337-.776-.818-1.106-.658-.33.16.233.463.117.836-.117.374-.485.196-.892.196-.407 0-.31-.48-.31-.711 0-.231-.427-.356-.078-.552.349-.195.077-.497-.175-.55-.252-.054 1.106-1.477 1.28-1.619.175-.142.252-.16.252-.534 0-.373-.174-.23-.562-.017-.388.213-.194.195-.427.746-.233.552-.64.285-.756 0-.116-.284-.388-.088-.776-.088s-.271-.178.466-.534c.736-.356.814-.48.853-.764.039-.285-.117-.267-.698-.072-.582.196-1.435-.409-1.474-.853-.039-.445.252-.142 1.028-.125.776.018 1.629-.764 1.861-1.333Zm-3.102 4.41c.058.213 0 .782-.078.96-.077.178-.116.765.213 1.12.33.356 1.048.196 1.067-.267.02-.462-1.26-2.614-1.202-1.813ZM82.398 58.775c.288.255.672.418 1.229.4.556-.018 1.132 0 .902.51-.23.509-1.747 2.945-1.977 3.255-.23.309-.69.254-1.017.454-.326.2-1.343.328-1.785.291-.44-.036-.383.273.173.582.557.31.614.618 2.188.218 1.573-.4 3.262-.964 3.703-.964.442 0 .653-.145.921-.509.269-.363-.268-.745-.844-.89-.576-.146-.844.181-1.516.436-.671.254-1.4.272-.902-.273.5-.546 2.59-2.71 2.975-3.11.383-.4.364-.673-.039-1.018-.403-.346-.576-.2-.979.018s-1.63.436-2.187.236c-.557-.2-1.305.164-.844.364ZM96.555 57.915c.211.144.48.234 1.23-.27.75-.503.768-.827.73-1.169-.038-.342.461-.486.711-.576.25-.09.807.306.442.666-.365.36-1.364 1.008-1.364 1.457 0 .45.134.756-.385.99-.518.234-.595.378-1.153.09-.557-.288-.557-1.08-.21-1.188Zm-1.71 3.023c-.23-.036-.48.27-.423.575.058.306.615.108.903.306.289.198.788-.108 1.172-.521.385-.414.404.125.404.503s-.269.414-.538.702.154.63.154.828c0 .198-.404.413-.442.737-.039.324-.212.522-.596.918s-.154.593.788.737c.941.144 2.037-.305 2.402-.647.365-.342-.346-.522-.827-.324-.48.198-.941.414-1.268.27-.326-.144.634-1.026 1.076-1.601.442-.576.192-.936-.038-1.116-.23-.18-.134-.486.115-.882.25-.395.077-.63-.211-.953-.288-.324-.538-.018-1.48.486-.941.503-.98.108-1.19-.018Zm.25-3.545c-.365.288-2.652 1.944-2.786 2.142-.135.197-.461.701-.173.791.288.09.826-.54 1.153-.864.326-.323.48-.665.75-.377.268.288.364.827-.078 1.26-.442.431-1.057.989-1.037 1.6.019.612.115 1.008.634.558.519-.45.922-.846.595-.126-.326.72-1.114 1.35-1.172 1.925-.057.576.02 1.223-.519 1.17-.537-.054-.864-.037-1.344.557-.48.594-.808.432-1.096.108-.288-.324-.346-.54.365-1.17.711-.629 1.787-1.402 1.826-1.798.038-.396.134-1.53-.23-1.53-.366 0-.73.558-1.134.198-.404-.36-.539-.27-.135-.755.404-.486.519-.54.634-.918.115-.378 2.094-2.159 2.632-2.968.538-.81 1.441-1.886 1.115.197ZM105.76 58.028c.265.183.549.549.208.695-.341.146-.644.164-.795.036-.151-.128-.113-.292.587-.73Zm1.211.055c.066-.331.511.274.189.877-.321.603-.53.439-.757.147-.227-.293-.113-.366.076-.421.189-.055.454-.402.492-.603Zm-.076 1.499c.53-.146.209.438-.094.365-.303-.073-.133-.22.094-.365Zm.587-1.7c.043-.492.435-.548.852-.366.416.183.17.586-.36 1.28-.53.694-.606.31-.492 0 .114-.31.114-.658 0-.914Zm-1.892 4.277c.283.018.605 0 .302.493-.302.494-.151.713-.738.841s-1.325.274-1.741.183c-.416-.092-.303.22-.057.566.246.348.473.44 1.022.128.549-.31.927-.603 1.23-.2.303.401.417.84 0 1.297-.416.457-.776.201-1.022.018-.246-.183.19.479.663.823.473.344.284.603.984.164.7-.438.473-1.389.397-1.956-.075-.566-.227-.712.322-.712s1.741-.092 1.458-.603c-.284-.512-.89 0-1.269.073-.378.073-.757-.146-.548-.512.208-.365.662-.713.775-1.133.114-.42-.018-.33.417-.402.435-.073 1.987-.932 1.987-1.17 0-.238-.397-.676-.871-.439-.473.238-.719.366-.889.073-.17-.292.284-.932.719-1.279.435-.347 1.798-1.39 1.193-1.81-.606-.42-1.477.311-2.007.567-.53.256-.643.42-.643.567 0 .146-.355.132-.282-.272.074-.404.679-.843.982-.99.303-.146.606-.401.36-.876-.246-.476-.701-.823-.757-.311-.057.511-.644 1.389-.966 1.645-.321.255-.151.292-.662.2-.511-.09-.53-.054-.511.202.019.255.152.384-.076.566-.227.183-.511.604-.7.275-.189-.33.057-.64.246-1.006.189-.365.322-.493-.038-.895s-1.06-.658-.851-.092c.208.567.151 1.28.151 1.718 0 .439.095.786-.189 1.042-.284.256-.492.365-.379-.128.114-.493.17-.987-.057-1.17-.227-.182-.624-.146-.435.201.189.348.341.603.095 1.079-.246.475-.455.877-.284 1.133.17.256.606-.092.946-.603.341-.512.757-1.042.984-.603.228.438.228.329-.019.603-.246.274-.227.511-.019.511.209 0 .757-.584 1.041-.31.284.274.398.621-.075.75-.474.127-1.06.218-1.458.2-.397-.018-.435.183-.189.53.246.348.833.092 1.325-.182.492-.275 1.173-.53 1.438-.275.265.256.379-.183.738-.365.36-.183.417 0 .493.22.075.218-.568.748-1.552 1.187-.984.439-1.458-.055-.984.439Zm-3.237-1.554c0 .384-.454 1.06-.189 1.079.265.018.814-.403.454.054-.359.457-.795 1.097-.908 1.39-.114.292-.417.127-.625-.311-.208-.439-.416-.603.057-1.206.473-.604 1.325-1.335 1.211-1.006ZM118.752 56.515c-.494.337-.779.711-.418.676.361-.036.779-.463 1.178-.445.399.018 1.083-.338.684-.711-.399-.374-1.729-.925-1.444.48Zm-1.577 1.938c.19.356 0 1.014 1.121.302 1.121-.711 2.071-1.422 2.679-1.227.608.196.589.552-.171.996-.76.445-1.786 1.44-1.9 1.707-.114.267.285.534-.057.907-.342.374-.912.978-.969.445-.057-.534.304-1.28.931-1.885s.817-.925.589-.96c-.228-.036-1.064.8-1.577.995-.513.196-.608.48-.817.925-.209.445-.551.534-.779.16-.228-.373.589-2.845.95-2.365Zm0 4.499c-.399-.498.722-.267.95-.64.228-.373.741-.533 1.045-.267.304.267-.228.551-.475 1.138-.247.587.418.231.437.534.019.302.209 1.369 1.102 1.778.893.41 2.375.32 2.85-.053.475-.374-.19-.907-.513-1.458-.323-.552.627.106 1.33.622.703.516.646 1.174.209 1.547-.437.373-4.332.477-4.959.035-.627-.441-.285-1.653-.456-2.08-.171-.427-.513-.089-1.197.729s-1.083 1.12-1.235.996c-.152-.125-.038-.409.513-.943.551-.533.722-.96.798-1.316.076-.355-.266-.337-.399-.622Zm-3.079-3.432c.342-.107.818-.142.457.871-.361 1.014-.894 3.166-.874 4.02.019.853.494 1.333.759 1.51.267.179.59-.657.609-1.19.018-.534.513-2.312.627-2.757.114-.444-.091-.547-.283-.265-.193.283-.667.247-.591-.215.075-.462.684-3.077 1.083-3.557.399-.48.361-.906-.323-.8-.685.107-2.224 1.085-2.432 1.423-.21.338.038 1.227.968.96Z" clip-rule="evenodd"/><path fill="#0A338A" fill-rule="evenodd" d="M38.899 55.746a8.255 8.255 0 0 0 0 16.508 8.255 8.255 0 0 0 0-16.508Zm-8.96 4.698c.038.01.093-.01.044-.053-.048-.043-.1-.005-.043.053Zm-.597.282c.073.043.305.191.486.398.182.206.263.31.291.33.028.022.02.09-.083.04-.103-.049-.237-.145-.252-.223-.014-.078-.084-.236-.162-.233-.078.004-.374.299-.42.31-.045.012-.04.115.083.09.122-.024.252-.148.385-.072.133.077.221.174.3.205.078.03.078.112.105.157.028.045.078.045.201.006.124-.039.185-.102.09-.24a2.763 2.763 0 0 0-.653-.618c-.265-.167-.448-.243-.371-.15Zm-.344.383c.046.1.086.116.097.028.012-.087-.142-.317-.081-.346.06-.03.116-.066.136-.116.02-.05.066-.032.149-.058.082-.026.185-.024.174-.227-.01-.203-.116-.384-.037-.541.08-.158.034-.156.166-.1.131.056.226.093.183.178-.042.085-.179.065-.075.285.104.22.09.233.058.313-.03.08.008.201.14.21.132.007.226-.048.233-.147.007-.098-.03-.108-.013-.15a.295.295 0 0 0-.048-.318c-.117-.138-.15-.16 0-.102.149.058.626.259.713.279.087.02.067.06-.005.162-.072.103-.082.142.017.084.1-.058.29-.162.299-.29.009-.127.023-.164-.166-.233-.19-.07-.854-.325-1.004-.417-.149-.092-.294-.115-.336-.03-.042.085-.12.17-.102-.016.018-.186.085-.89-.019-.911-.105-.022-.208.093-.193.205.015.112.055.471-.003.84-.058.37-.022.75-.102.758-.08.008-.137-.077-.198-.048-.061.03-.867.367-.83.449.035.082.213.03.297.058.084.028.293-.02.35-.041.059-.021.08.05.2.242Zm3.516-3.809c.032.037.063.016.039-.032s-.085-.011-.04.032Zm-.148-.224c.147-.039.185.092.223.083.037-.008.068-.036.123.016.055.052.274-.044.41-.054.138-.01.003-.168-.22-.41-.222-.242-.49-.571-.566-.725-.075-.153-.082.112-.068.201.014.09-.053.21-.082.297a.34.34 0 0 0-.003.185c0-.02.106-.057.178-.04.07.016.019.384.006.447Zm-.719-.654c.06.132.056.406-.073.537-.13.13-.228.131-.146.197.083.065.326.017.387-.115.06-.132.083-.162.125-.109.043.053.052.087-.007.271-.058.185-.046.234.017.167s.073-.145.14-.119c.069.026.18 0 .124-.13-.057-.13-.086-.093-.06-.195.027-.101.03-.154.095-.094.064.061.055.077.05.13-.003.054.021.518.071.484.05-.035.147-.033.123.06-.023.091.068.038.108.075.04.038.107.133.173.063.066-.07.156-.105.111-.186-.045-.08-.189-.033-.163-.115.026-.083.14-.038.293-.084.153-.045.193-.013.277-.066.085-.053.13-.137.066-.21-.065-.073-.097-.192-.195-.303-.097-.112-.395-.355-.488-.525-.094-.17-.328-.48-.43-.305-.102.175-.1.517-.152.651-.052.135-.055.15-.1.014a1.798 1.798 0 0 0-.113-.29c-.019-.024.116-.105.102-.207-.014-.102.064-.135-.048-.14-.111-.004-.201.012-.315-.058-.114-.07-.264.022-.333.046-.068.023-.044.047.07.141.113.095.159.138.291.415Zm.255 1.25a.54.54 0 0 1 .152.17c.018.042.113.144.228.145.114 0 .203-.148.127-.227-.076-.078-.655-.208-.507-.088Zm4.208-3.724c.08.045.176.064.304.032.128-.031.262-.056.234.074-.029.129-.26.768-.298.85-.038.083-.147.093-.213.156-.066.062-.294.142-.398.155-.104.013-.076.082.068.126.144.044.173.113.517-.057.345-.17.708-.384.81-.405.102-.022.144-.066.188-.164.045-.097-.099-.16-.239-.164-.14-.006-.186.083-.33.175-.142.092-.31.132-.222-.018.089-.151.467-.755.536-.867.069-.111.051-.174-.06-.234-.11-.06-.142-.017-.225.053-.082.07-.356.181-.495.162-.138-.019-.294.102-.177.126Zm6.051-.179c-.085.01-.121.193-.005.286.116.092.14.062.272.032.13-.03.114-.108.134-.212.021-.105.283-.209.384-.276.101-.066-.01-.184-.072-.175-.062.01-.184.02-.191.101-.007.082-.026.156-.224.238-.197.083-.255.05-.298.006Zm-.536.623c-.052-.019-.124.04-.124.114-.001.074.138.054.195.113.058.06.188.011.296-.067.109-.079.088.048.07.135-.017.088-.08.084-.156.139-.076.054.006.153-.003.199-.009.046-.113.077-.136.15-.024.074-.074.112-.18.186-.108.074-.064.13.148.208a.804.804 0 0 0 .587-.04c.1-.063-.056-.137-.177-.113-.12.024-.237.052-.306.004-.07-.049.194-.209.323-.322.13-.114.088-.209.043-.26-.046-.053-.01-.12.067-.2.076-.08.047-.143-.005-.231-.052-.089-.124-.03-.366.044s-.233-.02-.276-.059Zm.221-.811c.172-.469-.087-.26-.25-.097-.161.163-.703.485-.747.567-.044.083-.073.09-.19.184-.115.095-.08.08-.003.182s.188-.01.272.006c.085.017.01.276-.017.366-.027.09-.312.22-.506.334-.194.113-.19.166-.139.254.052.089.12.141.26.026.138-.116.215-.105.337-.068.123.037.135-.117.175-.248.04-.13.251-.24.36-.393.11-.152-.003-.078-.144.002-.14.08-.145-.015-.121-.158.024-.143.192-.244.314-.324.123-.08.125-.21.076-.29-.049-.078-.1-.006-.191.054-.09.06-.245.182-.307.148-.063-.035.036-.137.076-.176.04-.04.647-.32.745-.369Zm4.554 2.737c-.191-.04-.225-.019-.22.028.005.047.06.093.141.125.082.031.094-.078.08-.153Zm.197.21c-.04.027-.142.043-.183.02-.041-.021-.072-.027-.082.06-.01.087-.002.15.152.1.155-.05.179-.226.113-.18Zm-.26.241c-.063-.012-.116-.015-.076.047.04.062.19.016.076-.047Zm.38-.192a.299.299 0 0 1-.15.156c-.071.034-.122.111.083.08.204-.03.313-.058.272-.157-.04-.1-.117-.155-.205-.079Zm-1.026.415c.045.05.102.1-.03.134-.133.034-.144.096-.264.02-.121-.074-.27-.171-.326-.255-.056-.084-.088-.013-.103.087-.016.1.008.152.152.19.145.038.257.05.242.169-.015.118-.067.211-.214.22-.146.009-.165-.094-.176-.165-.012-.072-.047.112-.023.248.023.137-.051.15.14.19.191.041.31-.157.39-.266.08-.109.079-.159.172-.068.093.09.31.271.347.138.036-.134-.151-.147-.228-.197-.076-.05-.104-.15-.009-.177.096-.028.23-.012.319-.065.089-.053.051-.059.137 0 .086.06.491.17.53.13.04-.041.044-.181-.075-.219-.12-.037-.183-.056-.163-.134.019-.078.202-.111.333-.099.131.013.534.06.5-.11-.033-.172-.301-.191-.434-.235-.132-.044-.178-.035-.202-.01-.025.025-.083-.036-.003-.092.079-.057.254-.032.33-.007.075.026.169.032.205-.09.037-.12.017-.254-.077-.177-.094.078-.339.13-.435.12-.097-.009-.074.025-.146-.075s-.081-.096-.12-.05c-.039.047-.037.09-.106.084-.069-.006-.186.018-.164-.069.022-.087.115-.099.207-.13.093-.03.136-.03.141-.158.006-.128-.071-.287-.13-.156-.057.13-.184.242-.257.317-.072.074-.113.149-.204.145-.09-.003-.143-.019-.043-.084.1-.065.192-.14.183-.208-.008-.068-.082-.127-.107-.037-.025.09-.041.158-.161.198-.12.04-.222.075-.235.146-.014.072.118.084.26.053.142-.03.3-.052.267.06-.034.112-.016.094-.103.1-.087.006-.123.05-.088.084.036.034.225.025.228.118.003.094-.035.171-.136.115a1.272 1.272 0 0 1-.28-.206c-.065-.069-.105-.04-.12.059-.016.1.126.153.255.187.129.035.287.103.29.19.002.088.094.032.185.06.091.029.07.069.047.119-.023.05-.22.033-.459-.054-.24-.088-.239-.25-.24-.088Zm-.294-.797c.073-.038-.192-.054-.372-.03-.18.025-.171.087-.208.196-.037.109-.013.187.055.156.067-.031.247-.068.383-.086.136-.019-.026-.038-.068-.084-.042-.047.147-.087.21-.152Zm3.927 3.867c-.111-.088-.215-.127-.182-.047.033.078.159.143.183.235.024.091.152.221.208.105.057-.116.089-.456-.209-.293Zm-.548-.221c.083-.116-.533-.127-.602-.05-.068.078-.024.149.09.165.116.016.187.018.267.12.08.103.328.233.336.287.007.054-.078.034-.259-.066-.18-.1-.374-.129-.491-.079-.117.05.06.137.168.188.109.052.141-.057.21-.05.068.007.364.17.518.31.154.141.235.12.237-.03.002-.152-.225-.317-.465-.52-.239-.205-.077-.208-.01-.275Zm-1.018.314c-.055.05-.027.126-.113.134a.588.588 0 0 1-.353-.089c-.16-.087-.231-.093-.249-.05-.017.043.079.112.312.21.232.097.333.15.248.22-.084.068-.383.075-.439.248-.056.173.24 1.046.355 1.119.115.073.268.04.335-.156.068-.195.15-.455.048-.344-.102.112-.176.3-.294.218-.118-.081-.241-.41-.211-.64.03-.231.258-.349.325-.374.067-.026-.06-.151.09-.136.15.015.252.115.29.028.04-.088-.032-.192-.133-.218-.1-.025-.126-.295-.21-.17Zm.561-.936c.048.07.09.175-.165.164-.255-.01-.778.02-.97.083a.435.435 0 0 0-.288.278c-.022.072.19.087.311.054.122-.033.559-.046.667-.05.109-.006.118-.06.04-.083-.077-.024-.102-.134.008-.149.11-.015.743-.06.88-.004.136.057.23.019.158-.129-.072-.147-.4-.427-.491-.45-.091-.024-.275.094-.15.286Zm.614 5.532.02-.27.166.011c.02.028.039.067.055.119a.418.418 0 0 1 .019.156.391.391 0 0 1-.051.169.268.268 0 0 1-.128.115.426.426 0 0 1-.203.028.457.457 0 0 1-.177-.048.272.272 0 0 1-.142-.167.384.384 0 0 1 .017-.27.213.213 0 0 1 .068-.084.33.33 0 0 1 .111-.044l-.021-.111a.387.387 0 0 0-.151.06.298.298 0 0 0-.096.12.493.493 0 0 0-.044.177.521.521 0 0 0 .037.246c.032.073.084.131.157.174a.537.537 0 0 0 .482.033.38.38 0 0 0 .174-.156.561.561 0 0 0 .052-.44.694.694 0 0 0-.091-.192l-.331-.023-.027.39.104.007Zm.111 1.67.018-.116-.695-.11.771-.368.02-.123-.885-.14-.018.115.694.11-.77.368-.02.124.885.14Zm-.182.619.034-.117-.861-.247-.034.117.86.247Zm-.857.879.094-.245a.402.402 0 0 0 .03-.128.138.138 0 0 0-.024-.086.143.143 0 0 0-.066-.051.131.131 0 0 0-.114.006c-.037.02-.068.062-.092.126l-.105.272.277.106Zm.423.293.044-.114-.371-.142.05-.132c.012-.03.021-.05.028-.062a.183.183 0 0 1 .043-.043.27.27 0 0 1 .078-.036c.035-.012.084-.025.146-.039l.218-.047.055-.143-.285.062a.625.625 0 0 0-.147.052.304.304 0 0 0-.068.053.325.325 0 0 0-.008-.213.22.22 0 0 0-.127-.117.25.25 0 0 0-.14-.012.205.205 0 0 0-.116.065.564.564 0 0 0-.09.166l-.146.38.836.322Zm-.523 1.042.312-.612-.094-.048-.257.503-.272-.138.232-.454-.094-.047-.231.453-.245-.124.247-.485-.094-.048-.302.593.798.407Zm-.651.97.384-.57-.088-.06-.316.47-.253-.17.285-.423-.087-.06-.285.423-.227-.153.304-.451-.087-.06-.373.553.743.5Zm-.791.947.075-.09-.54-.452.85.082.08-.096-.685-.575-.075.09.538.451-.85-.081-.08.096.686.575Zm-.46.442.087-.085-.622-.644-.087.085.622.644Zm-.908.306.213-.167.103.132a.397.397 0 0 1-.051.12.416.416 0 0 1-.263.194.266.266 0 0 1-.171-.019.428.428 0 0 1-.157-.132.46.46 0 0 1-.084-.163.27.27 0 0 1 .029-.217.384.384 0 0 1 .213-.168.213.213 0 0 1 .108-.005.326.326 0 0 1 .107.053l.069-.091a.383.383 0 0 0-.146-.073.3.3 0 0 0-.153.009.496.496 0 0 0-.162.087.523.523 0 0 0-.158.192.366.366 0 0 0-.023.233.54.54 0 0 0 .297.38.38.38 0 0 0 .233.026.564.564 0 0 0 .362-.255.696.696 0 0 0 .08-.198l-.204-.261-.307.24.065.083Zm-1.16 1.203.1-.06-.362-.603.777.354.108-.064-.461-.768-.1.06.361.603-.776-.354-.108.065.462.767Zm-1.052.508.623-.29-.044-.096-.513.239-.129-.276.462-.216-.044-.095-.462.215-.116-.248.493-.23-.045-.096-.603.282.378.811Zm-1.291.438.117-.036-.12-.389.414-.126-.031-.102-.413.127-.081-.265.477-.146-.03-.101-.595.181.262.857Zm-1.285-.192a.353.353 0 0 0 .132.236.3.3 0 0 0 .238.052c.09-.016.16-.06.206-.132a.374.374 0 0 0 .042-.278.447.447 0 0 0-.071-.181.285.285 0 0 0-.131-.106.311.311 0 0 0-.17-.015.316.316 0 0 0-.204.123c-.051.068-.065.168-.042.3Zm-.124.02a.492.492 0 0 0 .09.21c.048.064.108.11.183.138a.442.442 0 0 0 .24.02.469.469 0 0 0 .21-.093.381.381 0 0 0 .13-.188.516.516 0 0 0 .012-.25.523.523 0 0 0-.094-.228.393.393 0 0 0-.183-.135.453.453 0 0 0-.236-.019.426.426 0 0 0-.291.18.479.479 0 0 0-.061.365Zm-1.04.503.121-.005-.013-.379.35-.528-.143.005-.169.269c-.037.06-.069.114-.095.162a2.612 2.612 0 0 0-.099-.148l-.19-.264-.148.005.372.504.014.379Zm-1.118-.021.121.01.07-.787.303.027.009-.105-.727-.064-.01.105.303.027-.07.787Zm-.877-.121.12.021.155-.882-.12-.021-.155.882Zm-1.135-.526a.294.294 0 0 0 .118.302.538.538 0 0 0 .377.087.275.275 0 0 0 .14-.068.236.236 0 0 0 .063-.255.28.28 0 0 0-.096-.116 1.272 1.272 0 0 0-.186-.101.484.484 0 0 1-.164-.104.1.1 0 0 1-.017-.085.118.118 0 0 1 .07-.081c.04-.018.095-.019.166-.002.07.016.118.042.147.078.029.036.04.083.033.14l.116.017a.259.259 0 0 0-.108-.267.47.47 0 0 0-.169-.071.456.456 0 0 0-.172-.008.243.243 0 0 0-.132.06.222.222 0 0 0-.067.115.2.2 0 0 0 .006.116c.014.037.04.072.077.104.03.024.083.056.16.094.079.038.129.065.15.08a.185.185 0 0 1 .07.07c.011.024.014.05.008.077a.127.127 0 0 1-.043.069.173.173 0 0 1-.09.036.344.344 0 0 1-.124-.008.359.359 0 0 1-.132-.058.208.208 0 0 1-.075-.088.243.243 0 0 1-.012-.117l-.114-.016Zm-.872-.563.243.098c.052.02.094.032.128.033a.14.14 0 0 0 .139-.088.133.133 0 0 0-.005-.115c-.019-.037-.06-.068-.124-.094l-.27-.109-.11.275Zm-.3.418.113.046.149-.37.13.054c.03.012.05.021.062.03a.19.19 0 0 1 .043.042.262.262 0 0 1 .035.079c.01.035.022.084.035.147l.043.219.142.057-.057-.286a.637.637 0 0 0-.049-.148.312.312 0 0 0-.051-.07c.086.023.157.022.212-.003a.221.221 0 0 0 .12-.125.25.25 0 0 0 .014-.14.203.203 0 0 0-.063-.117.552.552 0 0 0-.164-.092l-.379-.153-.335.83Zm-1.052-.516.607.323.05-.093-.5-.266.143-.269.45.24.05-.093-.45-.24.128-.242.48.256.05-.094-.587-.312-.42.79Zm-.77-.476.105.069.79-.555-.104-.068-.563.41a1.96 1.96 0 0 0-.121.096c.014-.045.027-.095.04-.149l.153-.676-.11-.072-.19.945Zm-.719-.547.095.077.564-.696-.095-.077-.564.696Zm-.923-.845.085.08.488-.505-.14.842.09.087.621-.644-.084-.081-.488.505.14-.842-.09-.086-.622.644Zm.297-1.009-.413.311c-.09.068-.162.098-.216.092-.055-.007-.109-.046-.163-.118a.273.273 0 0 1-.056-.124.168.168 0 0 1 .022-.112.489.489 0 0 1 .124-.121l.413-.312-.074-.097-.413.312a.578.578 0 0 0-.158.163.248.248 0 0 0-.03.17.45.45 0 0 0 .093.194c.054.071.11.118.17.142.06.024.116.028.171.013a.593.593 0 0 0 .19-.104l.413-.311-.073-.098ZM29.77 68.98l.057.102.615-.34-.38.763.06.11.783-.434-.057-.103-.615.341.38-.764-.06-.11-.783.435Zm-.112-1.045.127.285.188-.189c.056-.057.104-.102.143-.135-.058.013-.116.02-.177.025l-.28.014Zm-.444-.093.053.118.289-.018.156.352-.204.208.057.127.664-.708-.053-.12-.962.04Zm-.354-1.081.036.11.669-.216-.52.677.039.119.852-.277-.037-.111-.668.217.519-.677-.039-.119-.851.277Zm-.24-1.131.108.678.105-.016-.089-.558.301-.048.08.503.104-.016-.08-.504.27-.042.086.537.104-.017-.104-.657-.884.14Zm-.123-1.224.008.121.421-.029.034.477-.421.03.008.122.893-.063-.008-.121-.367.025-.033-.477.367-.026-.009-.122-.893.063Zm10.402-8.369a7.964 7.964 0 0 0 0 15.926 7.963 7.963 0 0 0 0-15.926Zm0-.155a8.119 8.119 0 0 0 0 16.236 8.119 8.119 0 0 0 0-16.236Zm-.057 11.09v3.162l3.922-1.761v-3.244a9.152 9.152 0 0 1-.504.33c-1.1.676-2.323 1.165-3.418 1.512Zm3.922-8.968-3.922 1.761v6.69c2.362-.98 3.45-2.06 3.922-2.7V62.49c-.042.016-.087.012-.136-.02-.359-.232-1.504-.543-1.582-.3-.078.242.078 1.102-.844 1.165-.923.062-1.622-.796-.768-1.534.718-.62 2.581-.827 3.33-.66v-3.136ZM38.9 52.1c6.57 0 11.899 5.329 11.899 11.899 0 6.57-5.329 11.899-11.9 11.899C32.329 75.899 27 70.57 27 64c0-6.57 5.328-11.899 11.899-11.899Z" clip-rule="evenodd"/><path fill="#14A2AD" fill-rule="evenodd" d="M35.58 67.732s1.116-.144 2.602-.563v1.797l-2.602 1.168v-2.402Zm0-4.184v3.702c-.155.018-.313.033-.475.045-2.233.165-2.486-.757-2.01-1.514.476-.758 1.573-1.68 2.359-2.156l.126-.077Zm3.922-5.544-3.922 1.761v3.656s-2.078 1.214-2.534 2.146c-.456.932-.65 1.786.787 1.961 1.437.175 2.96-.107 4.932-.806 1.97-.699 3.776-1.922 4.233-3.145.456-1.224-.486-1.913-2.622-1.534 0 0 .534.087.476.485-.058.398-.369.7-1.039.68-.67-.02-.845-.816-.33-1.224.515-.407 1.825-.98 3.282-.62 1.456.358 1.757 1.261 1.29 2.116-.465.854-1.038 1.485-1.795 1.98 0 0 2.272-1.32 2.272-2.796 0-1.476-1.457-2.116-3.777-1.64-2.32.475-2.224 2.29-1.194 2.475 1.029.184 2.155-.456 1.602-1.204 0 0 1.02-.242 1.524.456.505.7-1.243 2.311-2.544 2.962-.594.297-1.231.618-1.96.896v-7.277l1.32-.593v-.735Z" clip-rule="evenodd"/></g><defs><filter id="a" width="154" height="157" x="0" y="0" color-interpolation-filters="sRGB" filterUnits="userSpaceOnUse"><feFlood flood-opacity="0" result="BackgroundImageFix"/><feColorMatrix in="SourceAlpha" result="hardAlpha" values="0 0 0 0 0 0 0 0 0 0 0 0 0 0 0 0 0 0 127 0"/><feOffset dy="16"/><feGaussianBlur stdDeviation="6.5"/><feColorMatrix values="0 0 0 0 0 0 0 0 0 0 0 0 0 0 0 0 0 0 0.03 0"/><feBlend in2="BackgroundImageFix" result="effect1_dropShadow_266_0"/><feBlend in="SourceGraphic" in2="effect1_dropShadow_266_0" result="shape"/></filter></defs></svg>