<svg xmlns="http://www.w3.org/2000/svg" width="154" height="157" fill="none"><g filter="url(#a)"><path fill="#fff" d="M13 0h128v128H13z"/><path fill="#B00002" d="M33.518 59.167v7.987H43.7v-7.986H33.518Zm10.092 7.934h-9.984v-7.808h9.984v7.808Z"/><path fill="#B00002" d="M33.609 59.559h9.996v.081H33.61v-.081ZM33.596 59.423h9.997v.082h-9.997v-.082ZM33.581 60.476h9.997v.08h-9.997v-.08ZM33.581 60.34h9.997v.082h-9.997v-.082ZM33.596 61.406h1.726v.08h-1.726v-.08ZM33.596 61.272h1.726v.08h-1.726v-.08ZM33.596 62.176h1.726v.082h-1.726v-.082ZM33.596 62.041h1.726v.082h-1.726v-.082ZM33.596 62.985h1.726v.08h-1.726v-.08ZM33.596 62.85h1.726v.082h-1.726v-.082ZM33.596 63.835h1.726v.08h-1.726v-.08ZM33.596 63.7h1.726v.082h-1.726V63.7ZM33.596 64.618h1.726v.081h-1.726v-.081ZM33.596 64.483h1.726v.08h-1.726v-.08ZM33.596 65.454h1.726v.082h-1.726v-.082ZM33.596 65.319h1.726v.081h-1.726v-.081ZM33.596 66.29h1.726v.08h-1.726v-.08ZM33.596 66.155h1.726v.08h-1.726v-.08ZM41.865 61.406h1.727v.08h-1.727v-.08ZM41.865 61.272h1.727v.08h-1.727v-.08ZM41.865 62.176h1.727v.082h-1.727v-.082ZM41.865 62.041h1.727v.082h-1.727v-.082ZM41.865 62.985h1.727v.08h-1.727v-.08ZM41.865 62.85h1.727v.082h-1.727v-.082ZM41.865 63.835h1.727v.08h-1.727v-.08ZM41.865 63.7h1.727v.082h-1.727V63.7ZM41.865 64.618h1.727v.081h-1.727v-.081ZM41.865 64.483h1.727v.08h-1.727v-.08ZM41.865 65.454h1.727v.082h-1.727v-.082ZM41.865 65.319h1.727v.081h-1.727v-.081ZM41.865 66.29h1.727v.08h-1.727v-.08ZM41.865 66.155h1.727v.08h-1.727v-.08ZM35.311 60.72l1.426.43v.222h3.765v-.221l1.382-.432H35.31Zm4.397.49h-2.116v-.118h2.116v.118ZM35.321 61.505l1.427.15-.009.08-1.426-.15.008-.08Z"/><path fill="#B00002" d="m35.322 61.29 1.436.164-.009.08-1.436-.163.01-.08ZM35.33 62.28l1.432.083-.005.082-1.432-.084.005-.082ZM35.32 62.065l1.435.097-.005.08-1.435-.095.006-.082ZM35.31 63.9l1.434.054-.003.081-1.434-.053.003-.082ZM35.296 63.687l1.436.066-.004.081-1.436-.066.004-.081ZM35.324 64.718l1.434.053-.003.08-1.434-.053.003-.08ZM35.31 64.501l1.435.066-.004.08-1.435-.065.003-.08ZM35.324 65.52l1.434.055-.003.08-1.434-.054.003-.08ZM35.309 65.304l1.436.067-.004.08-1.436-.066.004-.08ZM35.331 66.303l1.414.044-.002.082-1.414-.044.002-.082ZM35.316 66.086l1.416.058-.003.08-1.416-.058.003-.08Z"/><path fill="#B00002" d="m35.306 60.72.066.019-.005 6.393-.064.006.003-6.419ZM41.886 60.715l-.066.03.005 6.346.064.006-.003-6.382ZM36.7 61.093l.066.026-.005 5.463-.064.004.003-5.493ZM40.504 61.16l-.066.024.005 5.399.064.003-.003-5.426ZM35.645 60.813h.075v6.145h-.075v-6.145ZM35.916 60.867h.074v5.977h-.074v-5.977ZM36.185 60.905h.075v5.8h-.075v-5.8ZM36.516 66.621l-.074.024v-5.697h.074v5.673Z"/><path fill="#B00002" d="m41.886 61.586-1.427.15-.008-.08 1.427-.15.008.08ZM41.885 61.371l-1.435.163-.01-.08 1.436-.163.01.08ZM41.876 62.361l-1.434.084-.005-.081 1.434-.084.005.081ZM41.883 62.145l-1.434.097-.006-.082 1.434-.096.006.081ZM41.88 63.155l-1.433.066-.004-.08 1.434-.067.003.08ZM41.893 62.94l-1.435.077-.004-.08 1.435-.078.004.08ZM41.892 63.982l-1.434.054-.003-.082 1.434-.053.003.081ZM41.904 63.766l-1.435.066-.004-.082 1.436-.065.003.081ZM41.879 64.798l-1.435.054-.003-.08 1.435-.054.003.08ZM41.893 64.583l-1.436.066-.003-.08 1.435-.066.004.08ZM41.878 65.599l-1.434.054-.003-.08 1.434-.054.003.08ZM41.892 65.387l-1.436.067-.004-.08 1.436-.067.004.08ZM41.871 66.385l-1.415.044-.002-.081 1.415-.044.002.081ZM41.886 66.167l-1.417.059-.003-.08 1.416-.06.004.081Z"/><path fill="#B00002" d="M41.478 60.813h.074v6.145h-.074v-6.145ZM41.208 60.867h.074v5.977h-.074v-5.977ZM40.939 60.905h.074v5.8h-.074v-5.8ZM40.683 60.948h.073v5.746h-.073v-5.746ZM36.757 64.438h3.697v.081h-3.697v-.081ZM36.757 64.608h3.697v.081h-3.697v-.081ZM36.757 64.844h3.697v.081h-3.697v-.081ZM36.757 65.04h3.697v.081h-3.697v-.08ZM36.757 65.337h3.697v.082h-3.697v-.082ZM36.757 65.607h3.697v.08h-3.697v-.08ZM36.757 65.859h3.697v.08h-3.697v-.08ZM36.757 66.075h3.697v.08h-3.697v-.08ZM36.748 66.5h3.698v.082h-3.697v-.081Z"/><path fill="#B00002" d="M36.45 66.643h4.278v.05H36.45v-.05ZM36.124 66.807H41v.05h-4.875v-.05ZM36.109 66.967h4.874v.05H36.11v-.05ZM37.287 64.645h.135v1.907h-.135v-1.907ZM37.943 64.645h.136v1.907h-.136v-1.907ZM39.176 64.645h.134v1.907h-.134v-1.907ZM39.751 64.645h.135v1.907h-.135v-1.907ZM34.122 62.433h-1.17l-.405.117.334.612.25-.063-.124 3.515-.082.028.019.394-.08.036.026.082h.881l.036-.079-.072-.021v-.384l-.071-.038-.028-3.522.216.006.27-.683Zm-.17.33h-.132v-.075h.13v.074h.002Zm-.243-.227h.132v.075h-.132v-.075Zm-.102.149h.132v.074h-.132v-.074Zm-.04.229h-.132v-.074h.13v.074h.002Zm-.14-.378h.13v.075h-.13v-.075Zm-.104.149h.131v.074h-.13v-.074Zm-.003.263h.131v.074h-.13v-.074Zm-.008-.034h-.131v-.074h.13v.074Zm-.14-.378h.13v.075h-.13v-.075Zm-.102.149h.13v.074h-.13v-.074Zm.67.348h-.133v-.075h.132v.075Zm.11-.12h-.132v-.073h.132v.074ZM43.416 63.116l.216-.006-.026 3.522-.072.038v.384l-.072.021.036.079h.881l.028-.082-.082-.036.018-.394-.082-.028-.123-3.515.25.063.333-.612-.406-.117h-1.169l.27.683Zm-.1-.427h.131v.074h-.13v-.074Zm.242-.08h-.132v-.074h.132v.075Zm.103.15h-.131v-.074h.13v.074Zm.041.082h.131v.074h-.13v-.074Zm.14-.232h-.132v-.074h.131v.075Zm.102.15h-.132v-.074h.132v.074Zm.004.263h-.131v-.074h.13v.074Zm.008-.181h.131v.074h-.131v-.074Zm.14-.232h-.132v-.074h.131v.075Zm.103.15h-.132v-.074h.132v.074Zm-.67.2h.132v.074h-.131v-.075Zm-.112-.118h.131v.074h-.13v-.074Z"/><path fill="#B00002" d="m36.388 63.395.36-.63-1.534.018.351.62.108-.013v3.27l-.15.019v.45h.847l.005-.433-.123-.025v-3.274h.136v-.002Zm-.142-.511h.157v.085h-.157v-.085Zm-.56.4h-.157v-.087h.157v.086Zm0-.315h-.157v-.085h.157v.085Zm.175.166h-.156v-.085h.156v.085Zm.172.148h-.157v-.086h.157v.086Zm0-.314h-.157v-.085h.157v.085Zm.196.166h-.157v-.085h.157v.085Zm.017.148v-.086h.157v.086h-.157ZM41.73 63.395l.36-.63-1.533.018.35.62.107-.013v3.27l-.148.019-.001.45h.847l.005-.433-.122-.025v-3.274h.135v-.002Zm-.141-.511h.157v.085h-.157v-.085Zm-.56.4h-.157v-.087h.157v.086Zm0-.315h-.157v-.085h.157v.085Zm.175.166h-.157v-.085h.157v.085Zm.171.148h-.157v-.086h.157v.086Zm0-.314h-.157v-.085h.157v.085Zm.197.166h-.157v-.085h.156v.085h.001Zm.017.148v-.086h.157v.086h-.157ZM39.046 63.6l.452-.624h-1.82l.491.62.157-.001v3.075l-.148.016-.001.423h.847l.005-.406-.122-.024v-3.08h.14Zm.035-.091h-.13v-.1h.2l-.07.1Zm.124-.428h.183l-.075.1h-.108v-.1Zm.065.16-.075.1h-.125v-.1h.2Zm-1.469-.16h.184v.1h-.108l-.076-.1Zm.125.16h.183v.1h-.107l-.076-.1Zm.316.268h-.108l-.075-.1h.183v.1Zm.058-.327h-.182v-.101h.182v.1Zm.007.16v-.101h.182v.1h-.182Zm.358.167h-.183v-.1h.183v.1Zm.015-.327h-.182v-.101h.182v.1Zm.194.16h-.184v-.101h.184v.1Zm-.029-.16v-.101h.184v.1h-.184Z"/><path fill="#B00002" d="m35.36 67.097 1.4-.515-.04-.05-1.38.504.02.061ZM41.886 67.126l-1.536-.551.135.006 1.403.482-.002.063ZM30.139 67.025a.37.37 0 0 0-.035-.134l-.24.096-.026.01c-.021.01-.033.02-.04.035-.006.013-.005.03.004.05a.179.179 0 0 0 .052.073c.022.02.05.03.08.034.03.003.06-.001.09-.014a.205.205 0 0 0 .085-.061.142.142 0 0 0 .03-.09Z"/><path fill="#B00002" d="M31.357 63.64c.053 3.962 3.214 7.177 7.21 7.204 4.072.028 7.306-3.216 7.344-7.312-.067-4.003-3.217-7.056-6.899-7.233-4.372-.21-7.708 3.333-7.655 7.34Zm14.241.256c-.13 3.527-3.072 6.642-6.972 6.642-3.737.022-7.177-3.094-6.953-7.352.189-3.579 3.03-6.578 6.987-6.59 3.757-.01 7.097 3.045 6.938 7.3ZM34.497 71.528c-.012-.038-.046-.07-.102-.102l-.057-.028-.162.312.03.016c.049.025.088.039.117.044a.126.126 0 0 0 .082-.02.224.224 0 0 0 .068-.08c.028-.055.035-.101.024-.142ZM38.376 72.44a.175.175 0 0 0-.104-.036c-.074-.004-.132.03-.174.105a.614.614 0 0 0-.06.262c-.006.138.013.24.058.308a.165.165 0 0 0 .137.075.166.166 0 0 0 .104-.025.228.228 0 0 0 .086-.117.697.697 0 0 0 .04-.215.682.682 0 0 0-.018-.24.22.22 0 0 0-.07-.116ZM38.59 55.234c.145-.014.338-.04.531-.051.14-.008.11-.102.085-.169-.065-.163-.278-.198-.414-.076-.064.057-.142.146-.215.106-.13-.07-.004-.139.034-.209.025-.045.025-.143-.023-.126-.113.04-.269-.025-.339.133-.115.262-.02.392.34.392ZM30.272 60.76c.069.004.11-.035.087-.094-.024-.066-.022-.162-.126-.173-.084-.01-.084.044-.085.1-.001.09.013.163.124.168ZM46.467 68.115a.537.537 0 0 0-.241-.072.215.215 0 0 0-.133.04.443.443 0 0 0-.083.117l.554.295a.195.195 0 0 0 .056.023.03.03 0 0 0 .023-.007.179.179 0 0 0 .04-.201c-.031-.071-.103-.135-.216-.195ZM35.456 54.591c.116 0 .124-.1.168-.164-.022-.059-.025-.133-.11-.118-.091.015-.165.053-.161.167.002.072.02.115.103.115ZM34.994 55.164c.129-.005.208-.14.207-.331.003-.08-.032-.223-.154-.22-.126.005-.24.112-.228.275.01.124.037.282.175.276ZM30.235 59.896c.047.022.08-.02.101-.061.034-.068.044-.14-.007-.2-.13-.15-.32-.195-.452-.261-.11-.019-.168.005-.195.068-.045.105.034.181.083.258.045.075.096.029.15-.013.097-.073.208-.14.233.06.008.068.03.123.087.149ZM30.284 67.02a.149.149 0 0 0 .089-.014.17.17 0 0 0 .073-.051.13.13 0 0 0 .026-.077.342.342 0 0 0-.031-.124l-.294.121c.02.052.042.088.064.107.022.021.046.032.073.038Z"/><path fill="#B00002" d="M39.263 52.629c-6.677-.338-11.65 5.041-11.583 10.968.034 2.96 1.063 5.507 3.117 7.613 2.109 2.16 4.71 3.28 7.696 3.31 6.168.065 11.137-4.9 11.092-10.956.027-6.134-4.89-10.662-10.322-10.935Zm8.525 7.274c.059 0 .14-.017.125.083-.025.155-.106.285-.253.34-.071.027-.12-.05-.127-.148.068-.097.066-.27.255-.275Zm-.916.158c.09-.098.225-.122.355-.13.04-.002.112.03.09.072-.16.314.181.351.28.52l.037.058c-.233-.122-.424-.28-.692-.304-.127-.012-.158-.122-.07-.216Zm-.625.971c.057-.01.094.005.124.067.042.09.11.16.23.145.205-.026.258-.139.15-.311-.037-.059-.157-.114-.073-.19.095-.087.171.001.223.086.04.068.113.07.17.103.1.058.189.043.23-.033.056-.1-.056-.119-.123-.154-.017-.01-.02-.046-.03-.072.155.011.483.285.494.418.009.114-.06.152-.167.154-.067 0-.118-.088-.184-.046-.036.05-.003.074.008.106.028.078.135.169.057.235-.098.081-.142-.057-.197-.112-.136-.134-.268-.078-.411-.012-.325.15-.567.037-.552-.256.002-.045-.028-.114.051-.128Zm-2.028-3.5c.023-.097.127-.054.178-.035.14.053.284.055.42.027.126-.026.262-.08.136-.27-.047-.07-.156-.178-.048-.275.118-.105.189.02.261.089.11.103.209.106.309-.016.05-.062.111-.114.167-.172.07-.075.157-.154.243-.049.075.092.083.205-.023.305-.218.206-.216.212.052.346.083.042.159.082.172.181.008.061.012.123-.047.171-.057.048-.092.003-.141-.015-.565-.218-.562-.217-.564.384 0 .188.045.366.117.534a.508.508 0 0 1 .046.3c-.319-.096-.5-.386-.416-.685.028-.097.04-.188.04-.285.003-.342.003-.33-.353-.32-.135.004-.273-.06-.409-.091-.072-.015-.16-.04-.14-.124Zm1.833 6.447c-.2 3.699-3.35 7.214-7.826 7.01a7.434 7.434 0 0 1-7.011-7.899c.19-3.679 3.358-7.012 7.44-6.952 4.022-.076 7.636 3.457 7.397 7.84Zm-3.36-8.474c-.06-.04-.113-.077-.191-.024s-.076.108-.064.13c.078.13.044.16-.04.162-.065 0-.12 0-.126-.092-.01-.149.247-.547.4-.596.02-.008.06-.007.07.006.032.048.03.104-.012.145-.147.147-.059.191.089.213.22.033.273.21.187.35-.132.22-.29.433-.505.592-.095.07-.178.119-.285.042-.112-.081-.145-.218-.193-.335-.022-.054.05-.048.11-.026.264.098.584-.11.636-.396.017-.082-.01-.13-.075-.172Zm-1.206.123c.269-.063.221-.323.202-.452-.034-.217.063-.236.207-.262.043-.008.089.001.133-.002.177-.014.273-.063.102-.232-.028-.029-.039-.077-.066-.133.195.006.294-.095.32-.274.012-.09.07-.125.15-.11.113.022.052.106.05.17 0 .1-.18.192-.025.296.156.105.322.093.47-.023a.749.749 0 0 0 .157-.175c.04-.06.065-.135.153-.086.074.04.095.136.06.187-.077.107-.104.204-.052.325.005.013-.023.06-.036.06-.191.005-.41.066-.565-.008-.307-.148-.518-.127-.62.2-.035.11-.213.218-.07.373.031.034-.017.083-.053.107-.132.09-.266.175-.399.262-.098.065-.182.014-.228-.06-.06-.1.041-.148.11-.163Zm-3.111-2.136c.018-.103.122-.055.215-.045.216.025.44.053.66-.022.056-.02.122-.014.184-.017.09-.003.204-.007.203.11 0 .085-.114.109-.188.102-.243-.024-.473.078-.698.06h-.175c-.124-.003-.221-.078-.201-.188Zm-.267.237c.073-.008.123-.012.152.092a.83.83 0 0 1 0 .408c-.018.095-.057.246.07.284.145.043.314.07.455-.043.088-.07.079-.155-.024-.174-.096-.017-.223.065-.24-.106-.016-.15.07-.245.193-.313.03-.016.059-.034.12-.07-.03.206 0 .3.185.192.022-.013.053-.013.074-.029.093-.066.198-.124.273 0 .089.146-.07.164-.148.218-.03.02-.065.029-.125.056.14.104.238.064.327.075.044.005.095.005.107.059.011.051-.034.076-.07.1-.013.01-.037.006-.05.017-.085.073-.274-.012-.284.14-.01.154.2.069.238.132.115.195.213.405.277.622.027.095-.113.065-.166.055-.422-.079-.843-.026-1.264.008-.15.012-.173-.049-.175-.18-.01-.348.096-.689.06-1.037-.014-.121.02-.247-.044-.366-.027-.048-.039-.129.06-.14Zm-3.446.914c.348-.176.369-.225.206-.581-.051-.113-.039-.222.052-.267.105-.054.203.008.238.135.017.059.026.126.062.17.073.089.153.201.26.022.039-.067.11-.106.183-.144.063-.032.119-.05.172-.006.061.05.126.134.086.2-.148.238-.124.54-.297.763-.079.101-.079.201-.022.295.133.223.109.492.224.72.027.055.041.135-.038.209-.21-.207-.233-.5-.367-.736-.039-.065-.023-.166-.122-.184-.113-.02-.128.09-.15.152-.062.165-.165.108-.248.049-.173-.128-.283-.32-.387-.5-.072-.124.021-.232.148-.297Zm-2.405 1.335c.148.022.236.252.44.127.015-.01.04.138.004.21-.101.196.07.269.167.37.102.108.176.042.264-.041.032-.03.11-.097.188-.043.072.052.056.13.047.197-.029.233-.326.366-.523.245-.304-.188-.436-.531-.696-.76-.025-.021-.012-.085-.016-.128-.004-.093-.011-.197.125-.177Zm-.6.868a.213.213 0 0 1 .157-.16c.084-.022.14.035.17.099.097.2.234.36.4.505.108.092.076.246.073.332v.18c.001.13 0 .245-.187.239-.2-.006-.123-.15-.133-.249a.295.295 0 0 1 .028-.127c.026-.07.049-.156-.02-.194-.09-.051-.093.052-.127.104-.043.064-.102.108-.179.05-.069-.05-.116-.127-.059-.205.115-.16.19-.294-.07-.385-.082-.03-.071-.123-.053-.19Zm-2.448 3.287c.086-.258.286-.059.425-.114.098-.04.143.06.134.168-.009.108.032.205.152.211.172.01.165-.167.217-.262.073-.134-.076-.112-.145-.143a3.134 3.134 0 0 1-.3-.153c-.28-.168-.332-.515-.101-.74.077-.075.186-.184.318-.052.365.37.873.466 1.316.688.063.032.149.033.153.114.003.085-.086.12-.149.124-.15.014-.374.194-.395-.155-.004-.075-.098-.128-.183-.126-.114.003-.139.109-.195.188-.07.1 0 .15.049.2.11.113.297.151.35.36-.177-.012-.321-.235-.399-.172-.118.097.11.214.104.36-.012.273-.145.41-.402.328-.127-.04-.18.02-.26.069-.034-.092-.003-.145.022-.203.042-.099-.033-.16-.104-.185-.077-.028-.093.044-.097.11-.004.07-.046.127-.115.112-.084-.018-.055-.103-.047-.156.035-.21-.032-.338-.255-.374-.105-.02-.131-.081-.093-.197Zm1.208 1.533c-.01.074-.058.105-.127.112-.092.01-.213-.01-.23-.085-.037-.157-.014-.329-.103-.48-.005-.009.035-.046.049-.064.1.012.423.43.411.517Zm-.887-.291c-.064-.03-.198.023-.18-.12.016-.128.133-.185.242-.203.119-.021.124.078.132.172.015.16-.102.13-.194.15Zm-.711-.508c.015-.125.068-.277.237-.261.119.01.284.05.279.194-.007.18-.186.204-.332.233-.139.027-.194-.085-.184-.166Zm.528 4.819a.061.061 0 0 0-.02.032.122.122 0 0 0 .002.055l.006.024-.022.007-.1-.409.02-.005.007.025a.113.113 0 0 0 .025.053.06.06 0 0 0 .034.016.219.219 0 0 0 .074-.011l.241-.061-.069-.276-.241.06a.29.29 0 0 0-.073.025c-.009.006-.015.02-.019.035a.112.112 0 0 0 .002.055l.006.026-.021.005-.101-.409.021-.005.006.025a.12.12 0 0 0 .026.052c.007.01.02.015.033.017a.231.231 0 0 0 .075-.012l.512-.127a.393.393 0 0 0 .074-.024.075.075 0 0 0 .02-.033.111.111 0 0 0-.002-.055l-.006-.025.022-.006.1.408-.02.006-.008-.027a.128.128 0 0 0-.026-.051.063.063 0 0 0-.033-.018.236.236 0 0 0-.075.012l-.221.055.068.277.22-.056a.326.326 0 0 0 .074-.024.07.07 0 0 0 .02-.033.11.11 0 0 0-.001-.054l-.006-.026.022-.006.101.407-.021.006-.007-.025a.115.115 0 0 0-.024-.051.061.061 0 0 0-.034-.019.23.23 0 0 0-.075.015l-.512.125c-.04.012-.064.02-.074.025Zm.1.599c-.021-.065-.028-.12-.021-.161a.23.23 0 0 1 .058-.135.33.33 0 0 1 .142-.079l.373-.12a.393.393 0 0 0 .08-.034.069.069 0 0 0 .017-.033.161.161 0 0 0-.012-.07l.022-.007.128.394-.021.008-.006-.02a.149.149 0 0 0-.03-.059.055.055 0 0 0-.033-.016.292.292 0 0 0-.084.02l-.374.121a.378.378 0 0 0-.131.06.153.153 0 0 0-.04.068.178.178 0 0 0 .008.097.213.213 0 0 0 .062.097c.027.023.06.036.099.041a.525.525 0 0 0 .177-.034l.312-.1a.17.17 0 0 0 .069-.036c.011-.012.02-.023.021-.036a.172.172 0 0 0-.009-.075l.022-.008.085.264-.021.008-.006-.018a.122.122 0 0 0-.03-.05.074.074 0 0 0-.049-.017c-.013-.003-.036.003-.067.013l-.29.096a.84.84 0 0 1-.2.044.228.228 0 0 1-.138-.052.322.322 0 0 1-.113-.171Zm.33.856-.151-.38.02-.008a.19.19 0 0 0 .039.066.07.07 0 0 0 .035.018.26.26 0 0 0 .078-.024l.484-.194a.243.243 0 0 0 .073-.037.06.06 0 0 0 .015-.036.187.187 0 0 0-.02-.074l.022-.008.143.358c.034.086.05.15.05.191a.2.2 0 0 1-.034.11.167.167 0 0 1-.085.07.14.14 0 0 1-.111 0 .305.305 0 0 1-.122-.11.406.406 0 0 1-.001.172.164.164 0 0 1-.105.113.184.184 0 0 1-.165-.011.431.431 0 0 1-.165-.216Zm.168.409.02-.01.012.023c.01.021.021.037.035.046.009.007.021.01.036.01a.23.23 0 0 0 .07-.028l.475-.23c.033-.017.052-.026.058-.033a.053.053 0 0 0 .02-.033.11.11 0 0 0-.011-.064l-.013-.023.02-.01.294.605-.214.104-.009-.02a.288.288 0 0 0 .091-.099.177.177 0 0 0 .012-.103.47.47 0 0 0-.044-.117l-.036-.074-.294.144.006.014c.023.046.053.072.092.079a.3.3 0 0 0 .146-.022l.01.02-.378.183-.01-.02c.039-.024.069-.049.087-.076a.139.139 0 0 0 .03-.074.22.22 0 0 0-.023-.085l-.205.1a.404.404 0 0 0-.07.04.061.061 0 0 0-.013.028.099.099 0 0 0 .013.05l.02.042a.292.292 0 0 0 .127.14c.05.026.112.032.185.02l.01.02-.246.08-.303-.627Zm.647.957a.245.245 0 0 0-.064.044.062.062 0 0 0-.012.036c0 .016.007.033.017.053l.013.023-.02.012-.206-.367.02-.011.013.023c.012.02.024.034.038.042.01.007.022.01.037.007.01 0 .034-.011.068-.03l.46-.26a.245.245 0 0 0 .064-.042c.007-.01.01-.02.01-.036a.107.107 0 0 0-.016-.053L31 67.925l.02-.012.206.365-.02.013-.013-.023a.107.107 0 0 0-.038-.043.068.068 0 0 0-.037-.008.355.355 0 0 0-.068.03l-.458.26Zm.525 1.001a.336.336 0 0 1-.157-.13.386.386 0 0 1-.07-.148.242.242 0 0 1 .016-.147.34.34 0 0 1 .113-.116l.322-.227a.256.256 0 0 0 .066-.057.052.052 0 0 0 .006-.036.16.16 0 0 0-.033-.063l.018-.015.239.34-.019.014-.011-.018a.159.159 0 0 0-.046-.047.055.055 0 0 0-.036-.006.394.394 0 0 0-.074.044l-.322.226a.419.419 0 0 0-.107.096.136.136 0 0 0-.018.078c.002.029.014.06.037.09a.186.186 0 0 0 .194.085.504.504 0 0 0 .16-.085l.268-.19a.19.19 0 0 0 .056-.054.069.069 0 0 0 .01-.04.157.157 0 0 0-.032-.07l.018-.012.16.228-.018.014-.01-.014a.107.107 0 0 0-.043-.038.074.074 0 0 0-.052-.004.262.262 0 0 0-.06.033l-.25.175a.86.86 0 0 1-.177.104.228.228 0 0 1-.148-.01Zm.608.827.151-.848-.387.333c-.036.029-.052.059-.05.086.002.025.011.05.029.069l.012.015-.018.015-.186-.216.017-.014c.03.031.056.05.08.052.025.001.054-.012.086-.04l.43-.37.005-.026a.142.142 0 0 0 .002-.062.13.13 0 0 0-.028-.05l.018-.016.185.216-.118.627.26-.227c.037-.03.057-.057.062-.08.004-.029-.009-.06-.038-.094l.017-.014.173.201-.016.015a.246.246 0 0 0-.06-.04.077.077 0 0 0-.042 0 .3.3 0 0 0-.067.045l-.507.437-.01-.014Zm.47.448-.3-.296.015-.016.02.02a.105.105 0 0 0 .048.03.06.06 0 0 0 .038-.004.323.323 0 0 0 .057-.048l.372-.377a.304.304 0 0 0 .048-.058.06.06 0 0 0 0-.039.105.105 0 0 0-.03-.045l-.02-.02.016-.016.3.295-.016.016-.02-.018a.113.113 0 0 0-.048-.031.053.053 0 0 0-.037.003.251.251 0 0 0-.057.049l-.37.376a.286.286 0 0 0-.05.06.06.06 0 0 0 0 .038c.004.016.014.03.03.046l.02.02-.017.015Zm.36.34.195-.667a.834.834 0 0 0 .036-.149c0-.019-.011-.038-.033-.06l.015-.018.296.246-.015.018-.01-.01c-.027-.021-.047-.033-.063-.034-.011 0-.02.002-.027.012a.09.09 0 0 0-.013.021c-.004.01-.013.037-.025.082l-.125.416.351-.172a.575.575 0 0 0 .11-.068.057.057 0 0 0 .006-.064.18.18 0 0 0-.046-.051l.015-.017.202.168-.014.017a.125.125 0 0 0-.09-.014.606.606 0 0 0-.146.061l-.604.294-.016-.012Zm.439.331.011-.02.023.015c.018.015.037.02.052.022a.054.054 0 0 0 .037-.01.224.224 0 0 0 .046-.06l.293-.44c.02-.03.032-.05.034-.058a.057.057 0 0 0-.001-.039c-.005-.018-.02-.033-.041-.046l-.023-.017.012-.018.56.371-.132.2-.019-.015a.286.286 0 0 0 .029-.13.161.161 0 0 0-.042-.095.481.481 0 0 0-.098-.079l-.069-.042-.18.273.013.009c.044.028.083.035.119.02a.29.29 0 0 0 .115-.092l.02.012-.234.35-.019-.012a.327.327 0 0 0 .038-.11.131.131 0 0 0-.01-.078.237.237 0 0 0-.066-.062l-.126.189a.387.387 0 0 0-.04.07.058.058 0 0 0 .003.033c.005.011.018.021.037.034l.04.025a.29.29 0 0 0 .179.058.285.285 0 0 0 .17-.078l.018.012-.172.194-.577-.386Zm1.447.73a.341.341 0 0 0 .018.083c.008.02.022.033.041.046l-.01.018-.225-.115-.061-.445-.047-.025-.104.2a.231.231 0 0 0-.03.076c0 .013.004.024.013.037.01.012.03.025.063.043l-.01.02-.366-.19.01-.02a.191.191 0 0 0 .072.025.062.062 0 0 0 .037-.011.245.245 0 0 0 .044-.068l.24-.461a.29.29 0 0 0 .032-.078.054.054 0 0 0-.014-.037.187.187 0 0 0-.063-.043l.01-.02.333.171a.845.845 0 0 1 .18.116.218.218 0 0 1 .062.117c.01.045.002.09-.02.133a.187.187 0 0 1-.124.1.268.268 0 0 1-.127-.002l.046.33Zm.76.188a.23.23 0 0 1-.139.13.282.282 0 0 1-.212-.008.418.418 0 0 1-.064-.033.512.512 0 0 1-.067-.058.09.09 0 0 0-.04-.03.05.05 0 0 0-.034 0 .086.086 0 0 0-.04.022l-.02-.009.113-.28.02.009a.347.347 0 0 0 .021.219c.03.06.07.1.124.121.042.018.079.02.112.006a.111.111 0 0 0 .067-.064.102.102 0 0 0 .006-.055.167.167 0 0 0-.024-.065.814.814 0 0 0-.077-.1.874.874 0 0 1-.111-.144.276.276 0 0 1-.036-.105.211.211 0 0 1 .015-.106.215.215 0 0 1 .127-.126.252.252 0 0 1 .19.005c.023.01.046.022.067.037a.443.443 0 0 1 .053.05c.02.021.034.034.045.039.009.003.018.003.026 0a.128.128 0 0 0 .032-.036l.018.007-.095.25-.021-.01a.266.266 0 0 0-.02-.18.206.206 0 0 0-.11-.112.134.134 0 0 0-.102-.006.097.097 0 0 0-.06.056c-.006.016-.009.033-.006.05a.235.235 0 0 0 .03.07c.014.02.044.057.093.113.07.076.113.141.128.191a.24.24 0 0 1-.01.152Zm.664-.368-.025-.009a.106.106 0 0 0-.057-.005.069.069 0 0 0-.032.018.336.336 0 0 0-.03.07l-.162.502a.26.26 0 0 0-.019.075c.001.012.008.022.018.033.01.012.026.021.046.028l.026.009-.007.021-.4-.129.008-.022.024.009c.022.007.04.01.057.006a.054.054 0 0 0 .031-.02.235.235 0 0 0 .03-.069l.164-.502a.278.278 0 0 0 .018-.075c0-.01-.007-.022-.017-.034a.091.091 0 0 0-.047-.025l-.025-.01.006-.021.4.13-.007.02Zm.71.387-.022-.006a.348.348 0 0 0-.014-.116.154.154 0 0 0-.049-.065.176.176 0 0 0-.074-.03l-.057-.014-.15.6a.2.2 0 0 0-.012.077c.002.011.009.022.02.033.01.011.027.02.05.024l.025.007-.005.02-.408-.1.005-.022.027.006a.09.09 0 0 0 .056.002c.013-.002.022-.01.031-.022a.242.242 0 0 0 .025-.07l.15-.601-.057-.015c-.053-.013-.093-.011-.123.005a.225.225 0 0 0-.097.118l-.022-.006.052-.212.7.175-.052.212Zm.926-.046a.132.132 0 0 0-.065.013.752.752 0 0 0-.114.119l-.217.26-.03.193a.255.255 0 0 0-.006.077c.003.01.01.022.022.03.012.01.028.016.05.02l.043.007-.003.022-.445-.072.003-.021.042.007a.115.115 0 0 0 .057-.003.07.07 0 0 0 .03-.024.296.296 0 0 0 .017-.073l.025-.158-.133-.37a.466.466 0 0 0-.06-.13.112.112 0 0 0-.057-.028l.003-.022.38.061-.004.022-.016-.003a.119.119 0 0 0-.05.002c-.01.006-.016.011-.017.02a.376.376 0 0 0 .029.113l.102.285.18-.216a.362.362 0 0 0 .072-.108.032.032 0 0 0-.012-.028c-.011-.013-.035-.022-.069-.03l.004-.02.242.036-.003.019Zm1.177.45a.438.438 0 0 1-.102.266.4.4 0 0 1-.343.137.407.407 0 0 1-.407-.441.4.4 0 0 1 .136-.293.421.421 0 0 1 .304-.106c.128.007.23.052.306.135a.396.396 0 0 1 .106.303Zm.732-.175a.222.222 0 0 0-.044-.12.187.187 0 0 0-.098-.056.632.632 0 0 0-.132-.008h-.074v.329h.024a.202.202 0 0 0 .086-.017.126.126 0 0 0 .057-.054.234.234 0 0 0 .03-.103h.02v.405h-.02c-.007-.078-.028-.127-.061-.152a.198.198 0 0 0-.114-.036h-.022v.247c0 .041.002.065.007.077a.067.067 0 0 0 .026.025.102.102 0 0 0 .053.012h.026v.023h-.419v-.022h.026a.113.113 0 0 0 .057-.012.05.05 0 0 0 .024-.028.26.26 0 0 0 .006-.074v-.529a.23.23 0 0 0-.007-.077c-.005-.01-.013-.019-.026-.027a.112.112 0 0 0-.054-.011h-.026v-.023h.677v.232h-.022Zm1.088.448a.45.45 0 0 1-.166.054.47.47 0 0 1-.233-.022.35.35 0 0 1-.171-.126.434.434 0 0 1-.081-.197.432.432 0 0 1 .032-.224.429.429 0 0 1 .348-.264.51.51 0 0 1 .182.013c.039.01.062.015.072.014a.048.048 0 0 0 .03-.019c.008-.01.012-.025.013-.046l.023-.003.036.276-.023.003a.283.283 0 0 0-.118-.151.243.243 0 0 0-.299.022.248.248 0 0 0-.076.124.493.493 0 0 0-.011.204c.009.07.026.134.052.19.026.057.06.099.101.123a.243.243 0 0 0 .155.024.284.284 0 0 0 .133-.05.462.462 0 0 0 .118-.13l.008.068a.476.476 0 0 1-.125.117Zm.774-.142-.005-.022.025-.005a.147.147 0 0 0 .052-.026.06.06 0 0 0 .017-.032.21.21 0 0 0-.012-.074l-.058-.243-.277.066.059.242c.01.04.017.065.025.073a.066.066 0 0 0 .032.02.09.09 0 0 0 .054-.001l.027-.006.005.022-.408.1-.005-.022.025-.008a.118.118 0 0 0 .053-.024.053.053 0 0 0 .016-.033.256.256 0 0 0-.01-.075l-.125-.511a.287.287 0 0 0-.023-.075.066.066 0 0 0-.032-.02.11.11 0 0 0-.055.002l-.026.006-.005-.022.408-.099.006.022-.026.007a.104.104 0 0 0-.052.024c-.008.007-.013.018-.016.034a.235.235 0 0 0 .01.073l.053.22.276-.064-.053-.223a.248.248 0 0 0-.024-.071.05.05 0 0 0-.032-.02.102.102 0 0 0-.056 0l-.025.006-.005-.021.408-.098.005.021-.025.005a.127.127 0 0 0-.051.025.063.063 0 0 0-.017.033.244.244 0 0 0 .011.075l.124.512c.01.04.019.065.024.074.007.01.017.015.032.02a.11.11 0 0 0 .055 0l.024-.007.006.022-.409.098Zm.503-.138-.008-.02.025-.01a.097.097 0 0 0 .048-.028.063.063 0 0 0 .014-.033.2.2 0 0 0-.018-.075l-.17-.499a.232.232 0 0 0-.03-.07c-.008-.01-.02-.015-.035-.019a.121.121 0 0 0-.055.007l-.024.01-.008-.02.399-.137.007.022-.025.009a.096.096 0 0 0-.05.029.057.057 0 0 0-.014.034.246.246 0 0 0 .019.073l.169.5a.21.21 0 0 0 .032.07c.007.009.02.014.034.017a.105.105 0 0 0 .055-.006l.024-.01.008.022-.397.135Zm1.147-.43-.769-.39.209.465c.018.043.04.067.067.072.025.007.05.005.075-.006l.018-.009.009.02-.261.116-.01-.02c.042-.019.066-.038.075-.063.008-.023.004-.055-.014-.093l-.23-.518-.023-.013a.13.13 0 0 0-.06-.021.155.155 0 0 0-.056.013l-.01-.02.262-.116.564.294-.14-.318c-.02-.042-.04-.069-.06-.08-.026-.012-.06-.01-.1.01l-.01-.021.243-.108.01.021a.232.232 0 0 0-.057.044.075.075 0 0 0-.012.042c.001.017.01.042.024.077l.272.61-.016.011Zm.218-.128-.012-.02.023-.013a.103.103 0 0 0 .041-.04.051.051 0 0 0 .006-.036.228.228 0 0 0-.033-.067l-.27-.453a.427.427 0 0 0-.037-.057c-.01-.01-.023-.016-.035-.016a.11.11 0 0 0-.062.017l-.023.015-.011-.021.577-.344.121.205-.02.011a.295.295 0 0 0-.105-.082.169.169 0 0 0-.104-.003.475.475 0 0 0-.113.054l-.07.042.167.281.014-.008c.044-.025.067-.06.07-.098a.292.292 0 0 0-.035-.144l.02-.012.216.361-.019.013a.301.301 0 0 0-.085-.082.127.127 0 0 0-.075-.023.221.221 0 0 0-.084.031l.116.195a.278.278 0 0 0 .046.065.051.051 0 0 0 .03.012.109.109 0 0 0 .048-.019l.04-.024a.287.287 0 0 0 .13-.137.29.29 0 0 0 .001-.188l.019-.011.1.238-.592.358Zm1.13-.81a.286.286 0 0 1-.117.178.439.439 0 0 1-.148.064.1.1 0 0 0-.044.018c-.008.005-.014.016-.02.028a.078.078 0 0 0 0 .047l-.018.014-.182-.242.019-.014a.35.35 0 0 0 .197.095.234.234 0 0 0 .169-.041.155.155 0 0 0 .063-.092.116.116 0 0 0-.02-.093.106.106 0 0 0-.045-.033.148.148 0 0 0-.066-.014.687.687 0 0 0-.125.015c-.08.015-.14.022-.182.022a.305.305 0 0 1-.109-.024.199.199 0 0 1-.083-.067.218.218 0 0 1-.04-.173.242.242 0 0 1 .101-.16.267.267 0 0 1 .066-.037.425.425 0 0 1 .07-.021.158.158 0 0 0 .057-.019.034.034 0 0 0 .014-.021c0-.008-.003-.024-.015-.047l.015-.011.166.21-.02.015a.277.277 0 0 0-.164-.079.207.207 0 0 0-.152.039.136.136 0 0 0-.057.082.094.094 0 0 0 .016.08.09.09 0 0 0 .038.032c.021.007.046.011.078.011.022-.001.07-.008.144-.022a.543.543 0 0 1 .231-.008c.051.013.092.04.124.083.038.053.052.116.038.185Zm.202-.087-.016-.016.02-.018a.111.111 0 0 0 .033-.048.058.058 0 0 0-.001-.037.245.245 0 0 0-.046-.06l-.357-.389a.482.482 0 0 0-.047-.047.047.047 0 0 0-.037-.01.115.115 0 0 0-.057.03l-.02.018-.015-.017.495-.454.161.176-.016.015a.289.289 0 0 0-.121-.059.176.176 0 0 0-.102.018.533.533 0 0 0-.1.076l-.061.057.22.24.012-.012c.038-.033.054-.07.05-.11a.306.306 0 0 0-.064-.134l.016-.014.284.31-.017.015a.324.324 0 0 0-.098-.063c-.032-.01-.057-.014-.08-.008a.212.212 0 0 0-.075.048l.153.168c.03.03.05.05.06.056.01.005.02.005.032.002.011 0 .026-.01.043-.025l.035-.032a.294.294 0 0 0 .099-.16.285.285 0 0 0-.037-.184l.017-.014.146.211-.51.47Zm1.296-1.367-.018-.013.017-.02a.128.128 0 0 0 .025-.054.059.059 0 0 0-.008-.035.26.26 0 0 0-.055-.053l-.466-.368.383.696-.01.011-.763-.206.443.351c.03.024.05.04.058.043.02.009.039.01.06.004.02-.006.042-.022.064-.052l.018.014-.171.216-.018-.014.005-.007a.137.137 0 0 0 .024-.045.067.067 0 0 0 .002-.042.097.097 0 0 0-.022-.04.284.284 0 0 0-.046-.039l-.4-.318a.328.328 0 0 0-.063-.042.07.07 0 0 0-.038.004.123.123 0 0 0-.042.036l-.015.02-.018-.014.204-.257.556.152-.28-.5.203-.255.019.013-.018.022a.128.128 0 0 0-.026.052.06.06 0 0 0 .009.036c.004.009.021.025.053.05l.415.33c.032.025.054.04.065.042.01.004.023.003.037-.003a.119.119 0 0 0 .044-.035l.016-.022.018.015-.261.328Zm.315-.424-.018-.011.014-.023a.141.141 0 0 0 .02-.053.064.064 0 0 0-.01-.036.227.227 0 0 0-.06-.045l-.446-.282a.23.23 0 0 0-.058-.035.057.057 0 0 0-.04.001.109.109 0 0 0-.047.044l-.014.022-.019-.013.36-.566.202.128-.013.018a.316.316 0 0 0-.13-.026.186.186 0 0 0-.095.044.571.571 0 0 0-.076.1l-.044.07.276.175.009-.014c.026-.043.032-.082.018-.119a.304.304 0 0 0-.096-.112l.012-.019.355.225-.01.02A.286.286 0 0 0 46.06 69a.129.129 0 0 0-.079.014.197.197 0 0 0-.06.065l.191.122c.037.024.061.035.072.038.01.002.021.001.032-.005.01-.004.021-.018.035-.036l.024-.04a.294.294 0 0 0 .054-.18.291.291 0 0 0-.083-.168l.013-.019.196.167-.373.584Zm.669-1.138a.723.723 0 0 1-.047.105l-.168.316-.02-.009.013-.024a.12.12 0 0 0 .016-.051.057.057 0 0 0-.014-.038.26.26 0 0 0-.064-.04l-.466-.248a.212.212 0 0 0-.071-.03c-.012-.001-.023.004-.036.011a.109.109 0 0 0-.037.042l-.012.023-.02-.01.169-.32a.564.564 0 0 1 .144-.185.327.327 0 0 1 .203-.075.426.426 0 0 1 .22.053c.05.027.092.06.126.097a.36.36 0 0 1 .071.118.39.39 0 0 1 .02.124.582.582 0 0 1-.027.141Zm.207-.395-.02-.01.011-.024c.01-.02.014-.04.011-.056a.05.05 0 0 0-.015-.034.283.283 0 0 0-.065-.037l-.48-.22a.237.237 0 0 0-.072-.025.063.063 0 0 0-.036.012.109.109 0 0 0-.032.044l-.012.025-.02-.01.175-.382.02.01-.01.024a.112.112 0 0 0-.013.057.06.06 0 0 0 .016.033c.007.008.029.02.065.037l.48.222a.268.268 0 0 0 .073.023.063.063 0 0 0 .036-.013.106.106 0 0 0 .032-.043l.011-.024.02.01-.175.381Zm.4-.876a.493.493 0 0 1-.133.194.356.356 0 0 1-.194.088.395.395 0 0 1-.21-.025.426.426 0 0 1-.181-.137.43.43 0 0 1-.061-.433.46.46 0 0 1 .1-.152.247.247 0 0 0 .046-.056.051.051 0 0 0 0-.035c-.005-.013-.017-.024-.035-.033l.01-.023.257.104-.008.022a.292.292 0 0 0-.19.028.251.251 0 0 0-.115.128.238.238 0 0 0-.01.144c.01.05.034.092.07.127a.478.478 0 0 0 .173.109c.066.025.13.04.192.047a.275.275 0 0 0 .156-.03.234.234 0 0 0 .097-.123.286.286 0 0 0 .021-.14.472.472 0 0 0-.056-.166l.064.026c.026.06.04.114.043.167a.452.452 0 0 1-.036.17Zm.384-1.083-.805.304.485.161c.044.014.076.014.099 0a.124.124 0 0 0 .045-.062l.006-.018.022.006-.09.271-.022-.007c.015-.042.016-.073.005-.096-.013-.023-.038-.04-.079-.054l-.537-.178-.026.01a.176.176 0 0 0-.054.029.126.126 0 0 0-.029.05l-.02-.007.09-.272.597-.22-.327-.107c-.046-.017-.08-.019-.1-.01-.027.01-.048.037-.061.079l-.02-.007.083-.253.02.007a.205.205 0 0 0-.005.07c.003.015.01.026.023.037a.255.255 0 0 0 .073.034l.635.21-.008.023Zm.046-.207-.022-.004.008-.027a.11.11 0 0 0 .003-.056c-.002-.012-.01-.022-.022-.031a.21.21 0 0 0-.07-.027l-.51-.14a.576.576 0 0 0-.065-.016.06.06 0 0 0-.037.014.101.101 0 0 0-.033.054l-.007.027-.022-.007.178-.647.23.063-.006.021a.294.294 0 0 0-.134.014.177.177 0 0 0-.077.07.519.519 0 0 0-.044.117l-.021.079.315.087.004-.016c.013-.05.008-.09-.017-.12a.31.31 0 0 0-.125-.079l.007-.022.405.114-.006.02a.338.338 0 0 0-.116-.002.14.14 0 0 0-.07.037.218.218 0 0 0-.04.079l.219.062c.043.011.069.016.08.015.01 0 .02-.004.028-.013a.092.092 0 0 0 .022-.045l.012-.047a.29.29 0 0 0-.002-.188.282.282 0 0 0-.128-.136l.006-.022.236.104-.18.668Zm.41-4.206c-.135-.056-.306-.151-.328-.313-.016-.115.137-.187.237-.18.147.012.192.157.24.285-.04.083-.059.244-.148.208Zm.204-.633c-.124-.065-.227-.099-.373-.054-.113.035-.16-.11-.236-.175-.094-.08.018-.098.04-.15.052-.121.094-.241.195-.334.075-.069.153-.112.225-.02.064.083.065.188-.035.255-.06.042-.193.042-.133.144.04.068.162.095.261.062.067-.022.13-.063.198-.076.108-.02.168.034.172.122-.007.2-.16.308-.314.226Z"/><path fill="#B00002" d="M39.188 52.014C32.584 51.694 26.974 56.99 27 63.562c.044 3.215 1.177 5.968 3.48 8.225 2.297 2.25 5.057 3.34 8.26 3.346 6.001.013 11.499-4.923 11.529-11.504.028-6.25-4.91-11.316-11.081-11.615Zm-.695 22.66c-3.029-.033-5.666-1.169-7.804-3.36-2.083-2.133-3.127-4.716-3.16-7.718-.07-6.008 4.973-11.461 11.744-11.121 5.508.277 10.494 4.87 10.468 11.089.045 6.142-4.994 11.176-11.248 11.11Z"/><path fill="#B00002" fill-rule="evenodd" d="M90.91 68.593c.267 0 .49.112.67.337.178.225.268.503.268.835 0 .35-.09.636-.272.86a.851.851 0 0 1-.647.335l-.047.001a.857.857 0 0 1-.694-.338c-.183-.225-.275-.506-.275-.844 0-.319.084-.587.252-.807l.035-.044.03-.033.035-.037a.97.97 0 0 1 .04-.038l.03-.025.033-.027.049-.034.03-.019.033-.019.04-.02.017-.008.037-.015.04-.015.045-.013.041-.01.045-.009.047-.007.046-.004.044-.002h.028Zm-28.828.04v.138h-.047c-.08 0-.131.016-.155.048-.023.033-.034.095-.034.187v1.031c0 .197.022.341.066.432.045.09.11.162.194.213.074.045.15.07.227.076l.033.002c.097 0 .19-.03.278-.088a.568.568 0 0 0 .2-.218c.045-.088.068-.235.068-.444v-.988a.386.386 0 0 0-.037-.193c-.024-.039-.073-.058-.147-.058h-.053v-.138h.635v.138h-.045c-.072 0-.121.016-.147.048-.026.033-.04.095-.04.187v1.055c0 .286-.07.508-.21.665a.683.683 0 0 1-.495.234l-.043.001a.742.742 0 0 1-.51-.207c-.152-.137-.228-.346-.228-.626v-1.122c0-.094-.01-.157-.033-.188-.022-.032-.069-.047-.14-.047h-.069v-.138h.732Zm8.607 0v.138h-.048c-.08 0-.131.016-.154.048-.023.033-.035.095-.035.187v1.031c0 .197.022.341.067.432.044.09.109.162.193.213.074.045.15.07.227.076l.033.002c.097 0 .19-.03.279-.088a.567.567 0 0 0 .2-.218c.045-.088.067-.235.067-.444v-.988a.386.386 0 0 0-.036-.193c-.025-.039-.073-.058-.148-.058h-.053v-.138h.635v.138h-.045c-.072 0-.121.016-.147.048-.026.033-.039.095-.039.187v1.055c0 .286-.07.508-.21.665a.683.683 0 0 1-.495.234l-.044.001a.741.741 0 0 1-.51-.207c-.151-.137-.228-.346-.228-.626v-1.122c0-.094-.01-.157-.033-.188-.022-.032-.068-.047-.139-.047h-.07v-.138h.733Zm12.227-.04c.195 0 .357.066.487.198l.058-.158h.098l.145.705-.126.044a1.469 1.469 0 0 0-.121-.243.965.965 0 0 0-.174-.207.57.57 0 0 0-.384-.158.417.417 0 0 0-.29.102.324.324 0 0 0-.113.25c0 .09.03.166.093.227a.819.819 0 0 0 .3.167l.353.124a.89.89 0 0 1 .4.25.58.58 0 0 1 .131.385.653.653 0 0 1-.203.48.683.683 0 0 1-.464.201l-.042.001a.674.674 0 0 1-.304-.064.995.995 0 0 1-.224-.159l-.037-.036-.062.219h-.094l-.128-.823.128-.03c.066.224.166.398.299.522a.61.61 0 0 0 .422.186c.122 0 .23-.042.324-.126a.388.388 0 0 0 .14-.297.338.338 0 0 0-.097-.255.855.855 0 0 0-.312-.168l-.34-.118a.872.872 0 0 1-.392-.242.557.557 0 0 1-.128-.373.57.57 0 0 1 .187-.425.65.65 0 0 1 .47-.18Zm36.582 0c.178 0 .343.063.493.191l.044-.151h.098l.173.763-.126.043c-.074-.226-.163-.395-.267-.505a.515.515 0 0 0-.392-.167c-.195 0-.358.093-.487.28a.795.795 0 0 0-.049.076l-.022.04c-.083.165-.124.361-.124.589 0 .295.069.537.207.725.138.188.308.282.508.282a.669.669 0 0 0 .369-.124c.125-.083.235-.2.33-.35l.108.088a1.235 1.235 0 0 1-.385.438.86.86 0 0 1-.439.149l-.047.001c-.267 0-.492-.113-.674-.34-.181-.225-.272-.504-.272-.836 0-.212.042-.411.128-.596a1.08 1.08 0 0 1 .35-.437.803.803 0 0 1 .476-.16Zm-13.602 0c.195 0 .357.066.487.198l.058-.158h.098l.145.705-.126.044a1.167 1.167 0 0 0-.295-.45.567.567 0 0 0-.384-.158.415.415 0 0 0-.289.102.324.324 0 0 0-.114.25c0 .09.031.166.093.227a.819.819 0 0 0 .299.167l.354.124c.18.063.313.146.4.25a.575.575 0 0 1 .131.385.655.655 0 0 1-.203.48.682.682 0 0 1-.464.201l-.043.001a.67.67 0 0 1-.303-.064 1.061 1.061 0 0 1-.262-.195l-.061.219h-.095l-.128-.823.128-.03c.067.224.167.398.3.522a.609.609 0 0 0 .421.186.473.473 0 0 0 .325-.126.389.389 0 0 0 .14-.297.338.338 0 0 0-.097-.255.854.854 0 0 0-.312-.168l-.34-.118a.87.87 0 0 1-.392-.242.559.559 0 0 1-.128-.373c0-.163.062-.305.186-.425a.653.653 0 0 1 .471-.18Zm-9.945 0c.178 0 .342.063.492.19l.045-.15h.097l.173.763-.125.043c-.075-.226-.164-.395-.267-.505a.515.515 0 0 0-.393-.167c-.195 0-.357.093-.487.28-.13.185-.195.42-.195.705 0 .295.07.537.208.725.13.177.286.27.47.281l.037.002c.12 0 .244-.042.37-.125.11-.074.21-.174.297-.3l.032-.05.109.088a1.238 1.238 0 0 1-.386.438.86.86 0 0 1-.438.149l-.048.001c-.267 0-.491-.113-.673-.34-.182-.225-.273-.504-.273-.836 0-.212.043-.411.128-.596s.202-.33.35-.437a.81.81 0 0 1 .435-.158l.042-.001Zm-19.693.04v.138h-.055c-.056 0-.094.006-.115.02-.02.013-.03.036-.03.067 0 .031.008.075.025.13l.504 1.623.506-1.622a.386.386 0 0 0 .028-.124c0-.034-.01-.058-.032-.072-.021-.015-.057-.022-.107-.022h-.061v-.138h.587v.138c-.069 0-.118.014-.148.043a.39.39 0 0 0-.076.144l-.656 2.003h-.192L75.8 68.99a.491.491 0 0 0-.088-.175c-.029-.029-.077-.043-.146-.043v-.138h.693Zm34.414 0 .56 1.81.545-1.81h.579v.138h-.047c-.069 0-.117.013-.145.04-.028.027-.042.09-.042.191l.001 1.542.002.059a.46.46 0 0 0 .016.104.18.18 0 0 0 .012.027c.02.033.072.05.156.05h.047v.137h-.724v-.138h.051a.3.3 0 0 0 .11-.017.1.1 0 0 0 .038-.025c.026-.028.038-.089.038-.183v-1.683l-.618 2.046h-.136l-.624-2.02v1.623c0 .108.016.178.048.21.031.033.084.05.158.05h.045v.137h-.668v-.138h.039c.091 0 .149-.019.175-.055.026-.037.039-.11.039-.217v-1.495c0-.117-.013-.187-.039-.21-.026-.024-.076-.035-.15-.035h-.064v-.138h.598Zm-9.358 0 .863 1.717v-1.307c0-.105-.015-.177-.044-.215-.03-.038-.078-.057-.145-.057h-.047v-.138h.634v.138h-.036c-.076 0-.128.02-.156.058-.028.04-.042.11-.042.214v1.878h-.164l-1.041-2.063v1.636c0 .112.012.188.036.229.025.04.092.06.204.06v.138h-.643v-.138h.033c.089 0 .146-.019.17-.057.024-.038.036-.115.036-.232v-1.482l-.001-.054-.001-.024-.003-.04-.005-.031a.096.096 0 0 0-.048-.072.307.307 0 0 0-.131-.02h-.05v-.138h.581Zm-7.543 0 .176.601-.117.054c-.074-.2-.15-.328-.228-.386-.078-.058-.206-.088-.385-.088h-.409v.88h.184c.128 0 .217-.026.267-.079.05-.052.075-.144.075-.277v-.06h.134v1.004h-.134v-.09c0-.132-.023-.221-.07-.267-.046-.046-.13-.07-.25-.07h-.206v.713c0 .083.011.14.034.17.022.03.072.045.15.045h.053v.138h-.724v-.138h.047c.075 0 .124-.014.148-.042.024-.028.036-.091.036-.19v-1.559c0-.092-.011-.151-.033-.18-.023-.027-.067-.041-.134-.041h-.064v-.138h1.45Zm-24.922 0v.138h-.056a.208.208 0 0 0-.115.026.104.104 0 0 0-.027.026c-.026.034-.039.113-.039.237v1.474c0 .094.01.16.03.195.021.036.071.054.15.054h.057v.138h-.724v-.138h.058c.044 0 .08-.006.106-.018a.101.101 0 0 0 .035-.026c.025-.029.038-.097.038-.205v-1.508a.45.45 0 0 0-.031-.203c-.02-.035-.07-.052-.148-.052h-.058v-.138h.724Zm31.475 0v.138h-.056c-.069 0-.116.017-.142.052-.026.034-.039.113-.039.237v1.474c0 .094.01.16.031.195.02.036.07.054.15.054h.056v.138H99.6v-.138h.058c.069 0 .116-.014.14-.044.026-.029.038-.097.038-.205v-1.508c0-.1-.01-.169-.03-.203-.02-.035-.07-.052-.148-.052H99.6v-.138h.724Zm-12.512 0v.138h-.078c-.076 0-.114.021-.114.063 0 .025.01.062.03.11l.38.851.408-.856a.38.38 0 0 0 .036-.101v-.01c0-.023-.008-.038-.026-.046a.257.257 0 0 0-.093-.011h-.07v-.138h.585v.138a.304.304 0 0 0-.14.023c-.027.016-.062.064-.102.145l-.515 1.031v.578c0 .094.01.156.032.188a.058.058 0 0 0 .018.017c.033.02.097.03.192.03v.138h-.74v-.138h.058c.07 0 .116-.012.14-.036a.076.076 0 0 0 .009-.01c.021-.03.032-.093.032-.19v-.516l-.501-1.076c-.049-.098-.087-.153-.116-.164a.441.441 0 0 0-.135-.02v-.138h.71Zm-24.104.138v-.138H64.683l.072.003.086.006.053.006.037.005.053.008.053.01.02.005.032.009.038.011c.03.01.059.022.084.035l.013.006a.434.434 0 0 1 .038.024c.126.085.188.23.188.436a.525.525 0 0 1-.102.326.57.57 0 0 1-.299.195c.32.067.479.255.479.564v.036a.777.777 0 0 1-.005.054l-.003.027-.004.026-.007.032-.006.025a.573.573 0 0 1-.018.052l-.015.035-.016.032-.016.026-.014.02-.02.027-.02.022-.02.02-.032.028-.017.014-.03.02-.03.019-.037.02-.037.017-.032.013-.038.013-.034.01-.03.008-.063.015-.06.01-.043.005-.058.006-.081.005-.059.002h-.975v-.138h.06c.066 0 .111-.014.137-.044.026-.029.04-.078.04-.148v-1.589c0-.111-.012-.178-.036-.2-.023-.02-.07-.031-.14-.031h-.061Zm45.016-.138.178.601-.12.054c-.052-.172-.121-.295-.208-.366-.088-.072-.234-.108-.44-.108h-.459v.84h.228a.474.474 0 0 0 .062-.004.243.243 0 0 0 .167-.085c.048-.06.071-.157.071-.294v-.037h.131v1.005h-.131v-.088c0-.118-.021-.205-.062-.258-.042-.054-.121-.08-.238-.08h-.228v.745c0 .087.007.14.023.16.016.019.058.028.127.028h.284a.841.841 0 0 0 .386-.08.533.533 0 0 0 .088-.056c.116-.09.211-.244.286-.459l.125.054-.212.716h-1.6v-.138h.053c.08 0 .13-.016.153-.049.022-.032.033-.091.033-.176v-1.576a.466.466 0 0 0-.014-.134c-.009-.027-.03-.047-.062-.059a.514.514 0 0 0-.163-.018v-.138h1.542Zm-35.823 0 .863 1.717v-1.307c0-.105-.015-.177-.044-.215-.03-.038-.078-.057-.145-.057h-.047v-.138h.634v.138h-.036c-.076 0-.128.02-.156.058-.028.04-.041.11-.041.214v1.878h-.165l-1.04-2.063v1.636c0 .112.011.188.035.229.025.04.092.06.204.06v.138h-.643v-.138h.033c.089 0 .146-.019.17-.057.024-.038.036-.115.036-.232v-1.482l-.001-.054-.002-.024-.003-.04a.393.393 0 0 0-.004-.031c-.006-.035-.023-.059-.049-.072a.306.306 0 0 0-.13-.02h-.05v-.138h.581Zm48.565 0v.138h-.056c-.068 0-.116.017-.141.052a.223.223 0 0 0-.033.107 1.161 1.161 0 0 0-.007.13v1.474c0 .094.011.16.031.195.021.036.071.054.15.054h.056v.138h-.723v-.138h.058c.068 0 .116-.014.14-.044.026-.029.038-.097.038-.205v-1.508c0-.1-.01-.169-.031-.203-.02-.035-.069-.052-.147-.052h-.058v-.138h.723Zm-36.563 0v.138h-.055c-.069 0-.116.017-.142.052-.026.034-.04.113-.04.237v1.474c0 .094.011.16.032.195.02.036.07.054.15.054h.055v.138h-.723v-.138h.058c.069 0 .115-.014.14-.044.026-.029.038-.097.038-.205v-1.508a.45.45 0 0 0-.03-.203c-.02-.035-.07-.052-.148-.052h-.058v-.138h.723Zm-9.63 0v.138h-.056c-.068 0-.116.017-.142.052-.026.034-.039.113-.039.237v1.474c0 .094.01.16.03.195.021.036.071.054.151.054h.056v.138h-.724v-.138h.059c.068 0 .115-.014.14-.044.025-.029.038-.097.038-.205v-1.508c0-.1-.01-.169-.031-.203-.02-.035-.07-.052-.147-.052h-.059v-.138h.724Zm4.091 0 .178.601-.12.054a.79.79 0 0 0-.185-.345l-.023-.021c-.087-.072-.234-.108-.44-.108h-.459v.84h.228c.106 0 .183-.03.23-.089.047-.06.07-.157.07-.294v-.037h.132v1.005h-.131v-.088c0-.118-.021-.205-.063-.258-.042-.054-.12-.08-.238-.08h-.228v.745c0 .087.008.14.024.16.016.019.058.028.126.028h.284c.2 0 .359-.045.475-.136.107-.084.196-.22.268-.41l.017-.049.125.054-.211.716h-1.6v-.138h.052c.08 0 .131-.016.153-.049.022-.032.034-.091.034-.176v-1.576a.452.452 0 0 0-.014-.134c-.01-.027-.03-.047-.063-.059a.51.51 0 0 0-.163-.018v-.138h1.542Zm38.74 0v.138h-.056c-.068 0-.116.017-.142.052-.026.034-.039.113-.039.237v1.474c0 .094.01.16.031.195.008.014.02.026.037.034.027.013.065.02.113.02h.056v.138h-.724v-.138h.059c.062 0 .106-.012.132-.036l.008-.008c.025-.029.038-.097.038-.205v-1.508c0-.1-.01-.169-.031-.203-.02-.035-.069-.052-.147-.052h-.059v-.138h.724Zm7.565 0 .178.601-.119.054c-.052-.172-.122-.295-.209-.366-.087-.072-.234-.108-.44-.108h-.459v.84h.228c.106 0 .182-.03.23-.089.047-.06.071-.157.071-.294v-.037h.131v1.005h-.131v-.088c0-.118-.021-.205-.063-.258-.042-.054-.121-.08-.238-.08h-.228v.773l.003.048c.003.043.01.07.02.083.016.02.058.029.127.029h.284c.2 0 .359-.045.475-.136.116-.09.211-.244.285-.459l.125.054-.211.716h-1.601v-.138h.053c.08 0 .131-.016.153-.049.022-.032.033-.091.033-.176v-1.576a.475.475 0 0 0-.013-.134.1.1 0 0 0-.063-.059.51.51 0 0 0-.163-.018v-.138h1.542Zm-3.212 0 .863 1.717v-1.307c0-.105-.015-.177-.045-.215-.029-.038-.077-.057-.144-.057h-.048v-.138h.635v.138h-.036c-.076 0-.128.02-.156.058-.028.04-.042.11-.042.214v1.878h-.164l-1.041-2.063v1.636c0 .112.012.188.036.229.024.04.092.06.203.06v.138h-.643v-.138h.034c.089 0 .145-.019.17-.057.024-.038.036-.115.036-.232v-1.482l-.002-.054-.001-.024-.003-.04a.23.23 0 0 0-.004-.031.094.094 0 0 0-.049-.072.302.302 0 0 0-.13-.02h-.051v-.138h.582Zm-17.931 0 .179.601-.12.054c-.052-.172-.122-.295-.209-.366-.087-.072-.234-.108-.44-.108h-.459v.84h.228c.106 0 .183-.03.23-.089.047-.06.071-.157.071-.294v-.037h.131v1.005h-.131v-.088c0-.118-.021-.205-.063-.258-.041-.054-.121-.08-.238-.08h-.228v.773l.003.048c.003.043.01.07.021.083.015.02.058.029.126.029h.284c.201 0 .359-.045.475-.136.116-.09.211-.244.285-.459l.125.054-.211.716h-1.601v-.138h.053c.08 0 .131-.016.153-.049.023-.032.034-.091.034-.176v-1.576a.466.466 0 0 0-.014-.134.065.065 0 0 0-.009-.019.104.104 0 0 0-.054-.04.506.506 0 0 0-.163-.018v-.138h1.542Zm9.831 0 .178.601-.119.054c-.052-.172-.122-.295-.209-.366-.087-.072-.234-.108-.44-.108h-.459v.84h.228c.106 0 .183-.03.23-.089.047-.06.071-.157.071-.294v-.037h.131v1.005h-.131v-.088c0-.118-.021-.205-.063-.258-.041-.054-.121-.08-.238-.08h-.228v.773l.003.048c.003.043.01.07.021.083.016.02.058.029.126.029h.284c.201 0 .359-.045.475-.136.116-.09.211-.244.285-.459l.125.054-.211.716h-1.601v-.138h.053c.08 0 .131-.016.153-.049.022-.032.034-.091.034-.176v-1.576a.466.466 0 0 0-.014-.134.1.1 0 0 0-.063-.059.51.51 0 0 0-.163-.018v-.138h1.542Zm2.291 2.026-.023.023-.022.021-.031.027-.038.03-.034.023-.035.021-.037.02-.028.013-.038.016-.041.015-.04.012-.034.01-.029.006-.044.008-.046.007-.042.005h-.013a1.228 1.228 0 0 1-.056.004h-1.022v-.137h.106l.018.001h.016a.086.086 0 0 0 .071-.048.404.404 0 0 0 .031-.185V69.02c0-.116-.014-.187-.042-.211-.028-.025-.094-.037-.2-.037v-.138h.738l.126.003.085.004.039.003.042.004.048.004a1.474 1.474 0 0 1 .224.044.777.777 0 0 1 .34.225c.098.109.174.24.228.393.054.154.081.318.081.492 0 .303-.081.564-.242.785l-.026.033-.03.035Zm-35.664-2.026c.48 0 .718.193.718.578 0 .192-.056.342-.168.45-.112.107-.278.163-.497.168l.501.739a.73.73 0 0 0 .145.166.245.245 0 0 0 .153.05h.033v.137h-.431l-.696-1.092H80.5v.705c0 .106.01.173.03.204.019.03.07.045.154.045h.05v.138h-.73v-.138h.067c.07 0 .118-.014.14-.044.016-.019.027-.062.032-.128l.003-.054v-1.565c0-.08-.01-.137-.033-.171-.022-.034-.066-.05-.13-.05h-.078v-.138h.98Zm-21.282 0v.138h-.05c-.08 0-.13.014-.154.042-.023.028-.035.094-.035.2v.638h.983v-.622a.525.525 0 0 0-.027-.21c-.017-.032-.062-.048-.135-.048h-.075v-.138h.724v.138h-.064c-.063 0-.107.012-.131.037-.024.024-.036.088-.036.191v1.59l.002.052a.365.365 0 0 0 .01.072.08.08 0 0 0 .059.056.378.378 0 0 0 .074.012l.054.002h.032v.138h-.724v-.138h.053a.37.37 0 0 0 .128-.015.07.07 0 0 0 .026-.02.093.093 0 0 0 .02-.04.365.365 0 0 0 .006-.046l.002-.042.001-.052v-.74h-.982v.73c0 .12.013.188.039.203.017.01.052.016.104.02l.061.002h.035v.138h-.732v-.138h.048c.076 0 .126-.01.151-.032.026-.021.038-.08.038-.176v-1.576c0-.094-.01-.155-.032-.185-.021-.029-.064-.043-.127-.043h-.078v-.138h.732Zm7.805 0 .178.601-.12.054c-.052-.172-.121-.295-.208-.366-.088-.072-.234-.108-.44-.108h-.46v.84h.229c.106 0 .182-.03.23-.089.047-.06.07-.157.07-.294v-.037h.131v1.005h-.13v-.088c0-.118-.021-.205-.063-.258-.042-.054-.121-.08-.238-.08h-.228v.745c0 .087.008.14.023.16.016.019.058.028.127.028h.284c.2 0 .359-.045.474-.136.116-.09.212-.244.286-.459l.125.054-.212.716h-1.6v-.138h.053c.08 0 .13-.016.153-.049.022-.032.033-.091.033-.176v-1.576a.456.456 0 0 0-.013-.134c-.01-.027-.03-.047-.063-.059a.51.51 0 0 0-.163-.018v-.138h1.542Zm30.44 0v.138h-.05c-.08 0-.132.014-.155.042-.023.028-.035.094-.035.2v.638h.983v-.622a.523.523 0 0 0-.027-.21c-.017-.032-.063-.048-.135-.048h-.075v-.138h.724v.138h-.064c-.063 0-.107.012-.131.037-.024.024-.036.088-.036.191v1.59l.002.052a.367.367 0 0 0 .01.072.08.08 0 0 0 .059.056.375.375 0 0 0 .074.012l.055.002h.03v.138h-.723v-.138h.053a.37.37 0 0 0 .128-.015.07.07 0 0 0 .037-.035.114.114 0 0 0 .009-.026.347.347 0 0 0 .006-.045l.002-.042.001-.052v-.74h-.982v.73c0 .12.013.188.039.203a.535.535 0 0 0 .2.022v.138h-.732v-.138h.048c.076 0 .126-.01.151-.032.026-.021.038-.08.038-.176v-1.576c0-.094-.01-.155-.032-.185-.021-.029-.064-.043-.127-.043h-.078v-.138h.733Zm-12.45-.077.013.077h1.088l.012-.077h.1l.198.672-.123.053a1.05 1.05 0 0 0-.185-.374c-.068-.075-.167-.113-.297-.113-.055 0-.09.007-.102.022-.012.013-.018.046-.02.101v1.641c.003.099.021.16.054.185.036.026.099.04.188.04v.138h-.732v-.138a.494.494 0 0 0 .16-.019.097.097 0 0 0 .063-.065.611.611 0 0 0 .014-.158v-1.623c0-.053-.005-.088-.016-.102-.01-.015-.037-.022-.082-.022-.15 0-.257.039-.32.116-.057.07-.111.177-.163.322l-.018.05-.122-.054.195-.672h.094Zm5.413.215-.046.001-.04.004-.025.003-.035.007-.036.008-.018.005-.02.007-.032.013-.03.013-.031.017-.03.019-.023.015-.03.024-.028.026-.018.017a.685.685 0 0 0-.056.066l-.017.023c-.124.18-.186.432-.186.756 0 .31.062.553.186.733a.77.77 0 0 0 .113.129l.024.02a.546.546 0 0 0 .157.087l.034.011.029.007.034.007.023.003.026.003h.01l.04.002c.2 0 .362-.096.486-.286.123-.19.185-.44.185-.746 0-.31-.057-.552-.169-.729a.534.534 0 0 0-.477-.265Zm-26.342 1.038H64.2v.752c0 .083.01.135.028.155.019.02.07.03.153.03h.245l.033-.002.042-.002.065-.006.04-.006.046-.008.038-.008.037-.01.028-.008.017-.006.03-.011.028-.014a.432.432 0 0 0 .028-.015l.023-.015c.107-.074.16-.197.16-.37 0-.167-.054-.285-.162-.354a.454.454 0 0 0-.058-.03l-.044-.018-.022-.007-.036-.01-.021-.005-.037-.008-.02-.004-.043-.007-.037-.004-.041-.004a1.955 1.955 0 0 0-.152-.005Zm51.201-.995h-.279v1.929h.412l.038-.001.024-.002.034-.004.024-.004.051-.008.04-.008.042-.01.056-.014c.13-.033.237-.133.32-.299.084-.165.126-.37.126-.611a1.39 1.39 0 0 0-.055-.401.914.914 0 0 0-.152-.305.66.66 0 0 0-.215-.186l-.043-.022-.021-.008-.036-.015-.029-.009-.023-.006a.377.377 0 0 0-.056-.009l-.078-.004-.064-.002h-.116Zm-34.779-.003h-.49v.86h.43l.046-.003.056-.005.032-.005.036-.006.037-.01.032-.01a.461.461 0 0 0 .046-.017l.025-.013a.329.329 0 0 0 .048-.032c.083-.067.125-.18.125-.34 0-.133-.03-.233-.09-.302l-.014-.015c-.07-.068-.176-.102-.319-.102Zm-16.375.003H64.2v.84H64.602l.07-.004.056-.005.042-.005.044-.008.037-.008.014-.004.023-.006.03-.01.018-.006.016-.007a.414.414 0 0 0 .065-.034c.1-.065.15-.182.15-.35 0-.147-.043-.25-.127-.307l-.021-.013-.02-.01-.021-.01-.035-.013-.03-.008-.038-.01-.028-.005-.049-.007-.034-.004-.03-.002-.02-.001a1.744 1.744 0 0 0-.099-.003Zm58.853-8.968.047.024.19.024.024.023.165.024.048.024.142.023.047.024.095.024.048.023.071.024.047.048.024.047.024.024.023.142v.094l-.023.095-.024.024-.024.047h-.047v.048l-.048.024-.023.023h-.048v.048h-.071v.047h-.047v.047h-.071v.048h-.071v.047l-.048.024-.024.023h-.071v.048h-.047v.047l-.071.024-.024.024h-.047v.047l-.048.024-.024.023h-.071v.048h-.047v.047h-.047v.048l-.048.023-.071.071-.027.047h.051l.023.025h.261l.024-.024.119-.024.023-.024h.119v-.047l.142-.024.024-.023h.616l.048.023.094.024.024.024.071.023.024.024.071.024.024.023.047.024v.048h.048l.047.047.047.024.024.047.024.024v.07h.047v.19l-.023.024-.024.095h-.048v.047h-.047v.048h-.047v.047h-.048v.047h-.047v.048l-.071.024-.024.023h-.048v.048h-.094v.047l-.095.024-.024.023-.64.024-.024.024h-.071v.047h-.095v.048l-.308.023-.024.072-.023.047-.024.971-.024.071-.023.261-.024.047-.024.332-.024.071-.023.285-.024.047-.024.237h-.047v.19h-.047v.142h-.048v.094l-.024.024-.023.071-.024.024-.024.071-.094.095-.048.095h-.047v.047l-.048.024-.023.023-.048.024-.071.071-.095.047-.023.024-.072.024-.023.023-.071.024-.048.024-.118.024-.048.023h-.142l-.024-.023-.095-.024v-.047h-.094v-.048h-.095l-.048-.023-.071-.024-.024-.024-.094-.023v-.048h-.095l-.048-.024-.094-.023v-.048h-.095l-.142-.07-.071-.025-.024-.023-.071-.024-.024-.024-.071-.023-.024-.024-.237-.118v-.048h-.047l-.095-.047v-.048h-.048l-.047-.023-.047-.048-.048-.023v-.048h-.047l-.048-.047-.047-.024v-.047h-.047l-.048-.048v-.047h-.047v-.047h-.048l-.023-.072-.024-.023v-.095h-.048v-.071h.048v-.048h.047v-.047h.285l.023.024.19.023v.048h.166l.024.023.189.024c.03.074.337.078.396.012l.007-.012h.143v-.047h.094v-.048h.048v-.047h.047v-.095h.048v-.047h.047v-.047l.024-.024.023-.071h.048v-.095h.047v-.095h.048v-.095h.047v-.094h.048v-.095l.023-.024.024-.118h.047v-.19l.024-.047.026-.308h-.05v-.095h-.047v-.047l-.166.023-.024.024h-.118v.047h-.095v.048l-.095.023-.024.024-.094.024-.024.023h-.45v-.047h-.048l-.142-.142v-.047h-.047v-.048h-.048v-.047h-.047v-.048h-.048l-.023-.023-.072-.024v-.047h-.047v-.048h-.047v-.094h-.048l-.024-.048-.023-.024v-.26h.047v-.095h.048v-.071l.023-.024.024-.047.047-.024.024-.024h.071v-.047h.806v-.047l.095-.024.024-.024.071-.024.024-.023h.071v-.048h.047v-.047h.047v-.071h.048v-.071h.047v-.048h.048V61.6h.047v-.048h.048v-.047l.094-.095h.048v-.047h.047v-.048h.095v-.047h.048v-.048l.071-.023.023-.024h.048v-.047h.047v-.048h.048v-.07l.023-.025.027-.189h-.05l-.024-.024-.142-.027v.051h-.071v.047h-.048v.048h-.047v.047l-.048.095h-.047v.047h-.048v.048h-.071v.047h-.071v.047h-.095v.048l-.118.024-.024.023h-.284v-.047h-.143v-.048h-.071l-.023-.023-.048-.024v-.047h-.047v-.048h-.048v-.047h-.047v-.047h-.047v-.048h-.048V60.7h.048v-.047h.047v-.048h.047v-.047h.048v-.047h.047v-.048h.048v-.047h.094v-.047h.095v-.048l.095-.024.024-.023h.355v-.048h.143v-.047h.094v-.047l.095-.024.048-.024h.095v-.047h.142v-.047l.095-.024.047-.024.095-.024.024-.023.118-.024.024-.024h.806Zm-38.19-4.028.141.024.309.023v.048h.094l.095.047v.048h.047v.047h.048v.095h.047v.095h.048v.19h.047l.024.26.023.024v.142l-.023.023-.024.166h-.047v.166l-.024.024-.024.142c-.077.031-.077.348 0 .379v.047h.048l.118.024.024-.024.687-.023.024-.024.166-.024.024-.023.166-.024.023-.024h.095v-.047l.119-.024.023-.023h.332v.047h.095v.047h.095v.048h.047v.047h.095v.047h.048v.048h.094v.047h.048v.047h.047v.048h.048l.023.071.024.024v.166l-.023.023-.024.143h-.048v.331h-.047v.095h-.048v.047h-.047v.048h-.047v.047h-.048v.048h-.047v.047l-.048.024-.023.023h-.072v.048h-.047v.047h-.047v.047h-.048v.048h-.047v.047h-.095v.048h-.047v.047h-.095v.047h-.095v.048h-.095v.047l-.071.024-.024.024h-.047v.07l-.024.025-.026.212h.05v.356h-.047v.071l-.024.024-.024.047h-.047v.095h-.048v.047h-.047v.095h-.047v.048h-.048v.047h-.047v.047h-.048v.048l-.095.024-.023.023h-.688v.047h-.047v.048h-.048v.095l-.023.023v.095l.023.024.024.166.024.023.023.166.024.048v.166l-.024.023-.023.356-.024.023-.024.356h-.047v.616h-.047v.095h-.048v.095h-.047v.142h-.047v.26l-.024.024-.024.403-.024.023-.023.237h-.048v.095h-.047v.119l-.024.023-.024.711-.023.048-.024.19-.024.023-.023.071-.024.024-.024.047h-.19l-.047-.024v-.047h-.047v-.095h-.048v-.71h-.047l-.024-.783-.024-.094v-.308h-.047l-.024-.261-.023-.095-.024-.308-.024-.023-.024-.38-.023-.047-.024-.26-.024-.048v-.355l.024-.048.024-.19V61.6h-.048c-.03-.077-.253-.077-.284 0l-.095.023-.024.024h-.07v.047h-.096v.048h-.047v.07l-.024.025-.023.284-.024.024-.024.118h-.047v.047h-.095v.048h-.26l-.025-.024-.118-.024-.024-.023-.047-.024v-.047h-.048v-.048h-.047v-.094h-.047v-.095h-.048v-.095h-.047v-.047h-.048v-.048h-.047v-.047h-.047v-.048h-.048V61.6h-.047l-.024-.119-.024-.024-.023-.118-.024-.024v-.142h-.047l-.024-.19-.024-.07v-.403h-.047l-.024-.095-.024-.024v-.071h-.047l-.024-.095-.024-.023-.023-.119-.024-.047-.024-.142-.023-.048-.024-.166-.024-.023v-.498h.047v-.237l.024-.023.024-.12.024-.023.023-.118.024-.024.024-.071.024-.024.023-.047h.048v-.047h.047v-.048l.071-.024.024-.023.118-.024h.095l.119.024v.047h.094l.024.024.26.026.001-.05.119-.024.023-.023h.095v-.048l.095-.023.023-.024h.12v-.047l.189-.024.023-.024.261-.023.024-.024h.118v-.048h.095v-.047h.048v-.047l.023-.024.024-.071.024-.024v-.118l-.024-.048-.024-.237-.023-.023-.024-.498-.024-.024v-.118h-.047l-.024-.142v-.071l.024-.166h.047v-.142h.048v-.143h.047v-.094h.048v-.048h.094v-.047h.095v-.047l.119-.024.094-.024h.048Zm-18.184.9h.119l.023.024.309.024.023.024.19.023v.048h.095v.047h.047v.047h.048v.048h.047v.094h.047v.095h.048l.024.095.023.024v.07h.048v.096h.047l.024.118.023.024v.331l-.023.024-.024.095-.023.024-.024.047h-.048v.095h-.047v.095h-.047v.095l-.024.023-.024.213h-.047v.261l-.024.024c-.004.15-.011.3-.02.45l-.024.448c-.018.348-.029.69-.003 1.021l.023.024c0 .542.06 1.078.127 1.61l.05.398c.06.463.115.923.132 1.38v.142l-.024.45c.025.125-.233.347-.332.38l-.071.023h-.356c-.713-.357-1.208-1.063-1.446-1.777l-.024-.023-.023-.095-.024-.024-.024-.142-.023-.024v-.047l.023-.047.024-.072.071-.023h.071l.237.023.119.024h.237l.023-.024c.05-.02.061-.134.06-.26v-.064l-.003-.064-.008-.165v-.079l.008-.165.003-.063v-.064c.001-.126-.01-.24-.06-.26v-.048h-.047v-.047l-.806.024-.023.023-.214.024-.023.023h-.119v.048h-.048v.095h-.047v.308l-.024.047-.023.711-.024.024-.024.118-.023.024-.024.095a.454.454 0 0 0-.062.088l-.03.053-.031.061-.05.104-.168.357-.066.139-.033.066-.032.063-.032.059-.016.028-.031.052c-.056.09-.107.151-.15.16l-.01.002v.047h-.332v-.047h-.072l-.023-.024v-.07h-.048l-.023-.12-.024-.023v-.119h.047v-.142h.048v-.095l.023-.023.024-.119h.048v-.19l.023-.047.024-.616h.048v-.237h.047v-.142l.024-.047.023-.142h.048v-.166l.023-.024.024-.237a.088.088 0 0 0 .015-.159l-.015-.007v-.095l-.095.024-.023.024-.024.047h-.047v.047h-.048v.095h-.047v.57h-.048v.118l-.023.023-.024.095h-.048v.095h-.047v.095h-.047v.094h-.048v.048l-.118.023-.024.024h-.142v.047h-.19v.048l-.166.024-.023.023-.166.024-.024.024-.142.023-.024.024h-.19l-.023-.024-.095-.023v-.048l-.261.024-.024.024h-.047v.047h-.048v.047h-.094v.048l-.119.024h-.047c-.186-.038-.256-.209-.316-.412l-.044-.157-.023-.08a.933.933 0 0 0-.21-.394l-.024-.095-.023-.024v-.07c.071-.03.076-.206.013-.254l-.013-.007v-.569h-.048v-.047h-.095v.047h-.047v.047h-.047c0 .24-.115.492-.252.759l-.121.232-.06.119c-.06.12-.116.242-.162.368l-.022.063-.024.023c-.02.14-.067.258-.12.373l-.052.114a1.45 1.45 0 0 0-.126.367l-.01.07-.024.024a.307.307 0 0 1-.03.044l-.037.045-.045.052-.077.085-.124.133-.066.068-.023.047c-.44.436-.793.274-1.021-.07l-.03-.048a1.513 1.513 0 0 1-.03-.05l-.026-.051a2.17 2.17 0 0 1-.013-.027l-.025-.054-.023-.055-.021-.056-.02-.057-.018-.058a2.402 2.402 0 0 1-.008-.028l-.016-.058-.007-.029-.012-.057-.011-.057-.01-.056c0-.01-.002-.02-.003-.028l-.006-.055a1.723 1.723 0 0 1-.004-.054l-.024-.023-.024-.261v-.284l.024-.119.024-.023.023-.048h.048v-.047a.703.703 0 0 0 .044-.013l.053-.019.03-.01.064-.027.035-.015.074-.034.08-.038.086-.042.09-.047.093-.05a6.19 6.19 0 0 0 .096-.054l.098-.058.1-.06.1-.063.05-.032.1-.067.05-.034.097-.07c.113-.082.221-.168.32-.256l.036-.034c.258-.237.437-.485.437-.707a.336.336 0 0 0 .06-.1l.029-.066a.383.383 0 0 1 .196-.213l.024-.024.83-.024.047-.023c.2-.05.284-.106.284-.308l.024-.119c-.027-.026-.028-.056-.026-.09l.002-.034v-.018h-.04l-.116-.003h-.082l-.046.003c-.06 0-.11.02-.163.045l-.093.05a.729.729 0 0 1-.408.095 1.178 1.178 0 0 1-.193-.153l-.063-.06-.088-.084-.083-.083-.004-.022-.007-.044a.137.137 0 0 0-.036-.076c0-.205.098-.309.284-.355l.048-.024.171-.022.138-.02.076-.012.08-.013.081-.016.084-.017.083-.018.041-.01.081-.021c.268-.074.492-.18.492-.325.073-.03.077-.313.012-.371l-.012-.008v-.095h-.047v-.094h-.048v-.095h-.047l-.024-.071-.023-.024-.024-.047-.024-.024-.023-.095-.024-.024-.024-.142-.024-.023V57.5l.024-.047.024-.095.024-.023.047-.024.023-.024h.048v-.047h.047v-.048h.048v-.047h.047v-.048h.048v-.047l.047-.023.024-.024h.07v-.048h.048v-.047h.048v-.047l.07-.024.025-.024h.047v-.047h.38v.047h.094v.048h.095v.047h.095v.047h.166l.023.024.119.024.024.024.047.023v.047h.047l.024.095.024.024.023.284.024.048.024.402.024.024v.119h.047v.047h.285v.047h.094v.048h.048v.047h.047c0 .489-.155 1.02-.694 1.152l-.04.01-.024.023h-.19a.34.34 0 0 1-.062.16l-.069.111a.585.585 0 0 0-.106.298c-.072.029-.076.226-.014.276l.014.008v.048h.047l.048.023h.118l.024-.023.095-.024.023-.024.072-.024.023-.023.071-.024.024-.024h.356v.048c.093 0 .14.052.184.108l.033.041c.033.04.07.076.13.085l.032.003v.047l.047-.024.024-.023.024-.072.023-.023v-.426l-.023-.024v-.071h-.047v-.095h-.048l-.024-.047-.023-.024v-.142h.047v-.142l.024-.024.023-.071.024-.024.024-.048.023-.023.024-.095h.048l-.024-.474v-.142l.026-.355h-.05v-.119l.024-.024.024-.142h.047v-.095h.047v-.094h.048v-.048h.047v-.094h.048v-.048h.047v-.047h.048v-.048h.047v-.047h.047v-.047h.048v-.048h.047v-.047h.048v-.048h.047v-.047l.047-.024.024-.024h.071v-.047h.048v-.047h.094v-.048l.072-.023.023-.024.072-.024.023-.023.095-.024.024-.024.948-.023.023-.024.143-.024.047-.023Zm38.57 3.365.024.024.142.024v.047h.142v.047h.095v.048h.095v.047h.048v.048h.047v.047h.047v.095h.048v.07h.047v.12h.048v.118h.047v.166h.047v.213h.048v.19l-.024.023-.024.119-.023.023-.024.095h-.047v.119l-.024.023-.024.095-.023.024v.426l-.024.26h-.048v.238l-.023.023-.024.238-.024.023-.023.213-.024.024-.024.166-.023.024-.024.165-.024.024-.024.142-.023.024-.024.119-.024.023-.024.119h-.047v.094l-.024.024-.023.119h-.048v.094h-.047v.048h-.048v.094h-.047v.048h-.047v.047h-.048v.048h-.047v.047l-.095.095h-.047v.047l-.095.048-.071.023-.095.024-.119.024h-.308l-.095-.024-.142-.047-.024-.024-.047-.024-.024-.023-.047-.024v-.047h-.071v-.048h-.048v-.047h-.047l-.024-.048-.166-.165-.047-.024v-.048h-.048l-.023-.023-.071-.024v-.047h-.072v-.048h-.071v-.047h-.094v-.048h-.072l-.023-.023-.072-.024v-.047h-.07v-.048h-.095v-.047h-.048l-.024-.024-.047-.023-.023-.024-.048-.024v-.047h-.047v-.048h-.048v-.047h-.047v-.047h-.048v-.119l.024-.047.047-.024.024-.024.048-.023h.284l.048.023.142.024.047.024.095.023.047.024h.451l.189-.024.119-.023.095-.048.023-.023.048-.024.047-.047.024-.048h.047v-.047l.095-.095.048-.095.023-.023.024-.072.024-.023.024-.071.023-.024.024-.26.071-.143.024-.095.023-.023.024-.048.024-.023.047-.19v-.806l-.023-.07-.024-.096-.048-.094-.023-.024v-.071h-.048v-.047h-.094l-.024-.024h-.119l-.023.023h-.119v.048h-.095v.047l-.024.008v-.6l.024-.024.119-.024.023-.023.072-.024.023-.023h.048v-.048l.047-.024.024-.023.047-.024.024-.024h.047v-.047l.071-.024.024-.023h.119v-.048h.426ZM91.796 57.95v.048h.047v.047h.048l.047.048v.047h.048v.047h.047l.024.072.024.023.023.071.024.024v.095h.047v.142h.048v.26h.047v.427l-.023.024-.025 1.54h.048l.024.095.071.023v.048l.166-.024.095-.023.166-.024.024-.024h.118v-.047l.095-.024.024-.024.094-.023.024-.024.119-.024.023-.023.261-.024.048-.024.19-.023.023-.024h.095v-.048h.02v2.133h-.02v.047h-.048v.048h-.047v.047h-.095v.048l-.047.023-.024.024h-.118v.047h-.285l-.024-.023-.118-.024v-.047h-.095v-.048h-.071v-.047h-.048l-.023-.024v-.071h-.048v-.166h.048v-.07h.047v-.072h.047v-.047l.119-.119.047-.024.072-.07h.047v-.048h.047v-.047h.048v-.048h.047v-.047h.048v-.048l.023-.023.024-.072h.047v-.07l.024-.024v-.048l-.023-.023-.048-.024-.024-.024-.023.024h-.048v.047h-.047v.048l-.071.024-.024.023h-.047v.047h-.048v.048h-.047v.047h-.095v.048h-.095v.047h-.26v-.047h-.143v-.048h-.119l-.023-.023-.119.023c-.05.02-.06.133-.059.254l.002.06.009.192V62.495l-.008.185c-.006.13-.004.272.044.31l.012.008v.284h.048v.071h.047l.119.024.047-.024h.237l.142.024h.19l.142-.024.427-.024.047-.023.119-.024.047-.024.067-.013v.961h-.114v.047l-.569.024-.024.024h-.166v.047l-.142.024-.024.024-.118.023-.024.024h-.166v.047h-.19v.048l-.142.024-.023.023h-.214v.047l-.26.024h-.048l-.118-.024v-.047h-.048v-.047h-.047v-.048h-.048l-.095-.19v-.639l.024-.047v-.26l-.024-.072v-.19l.024-.047.024-.19.024-.047.023-.284.024-.048.024-.237.023-.047v-.071l-.023-.071v-.427l.023-.047v-.972l-.023-.047-.024-.308-.024-.047-.023-1.185-.024-.071v-.19h-.048v-.095h-.047v-.047h-.047l-.048-.095-.023-.118-.024-.048v-.19l.024-.023.023-.071.024-.024.047-.023.024-.024.119-.024.023-.023h.332Zm13.039-2.511.047.024.095.023v.048h.095v.047h.095v.047h.094v.048h.048v.047h.095v.048h.047v.047h.047l.048.024.047.047.024.047.024.024.023.071.024.048v.094l-.024.048-.023.213h-.048v.095h-.047v.047l-.024.024-.024.07h-.047v.049h-.047v.094h-.048v.048h-.047l.024.19h.094v-.048l.071-.024.024-.024.095-.023h.047l.143.023.023.024.048.024v.047h.047v.047h.047v.048h.048v.047h.047v.048h.048l.024.047.023.024.024.07.024.025v.213h-.048v.095h-.047v.047h-.048v.047h-.095v.048h-.094v.047h-.143v.047l-.213.024-.024.024-.189.024-.024.023-.166.024-.024.024h-.118v.047h-.095v.047h-.095v.048l-.071.024-.024.023h-.047v.048h-.047v.047h-.095v.047h-.048v.048h-.047v.047h-.047v.048l-.072.023-.023.024h-.048v.047h-.047v.048h-.048v.047h-.047v.048l-.071.023-.024.024h-.047v.047h-.048v.048h-.047v.047l-.071.024-.024.024h-.047v.047h-.237v-.047h-.048l-.024-.237-.023-.024h-.19l-.024.024h-.118v.047h-.095v.047l-.095.024-.023.024h-.072v.047h-.047v.071l-.024.024-.023.142h-.048v.047h-.047v.048h-.048v.047h-.047v.048c-.078.031-.078.11 0 .142v.047h.047v.45l-.023.024-.024.095h-.047v.047h-.048v.048h-.047v.047h-.048v.048h-.047v.047h-.047v.047h-.048v.048h-.047v.047h-.095v.047h-.047v.048h-.048v.047h-.047v.048h-.048v.047h.071l.119-.024.024-.023h.355v.047h.048v.047h.047v.048h.047v.379h-.047v.095h-.047v.094h-.048v.048h-.047v.095h-.048v.047l-.023.024.023.023.024.048.071.07.071.025h.119v-.048h.047v-.047h.048v-.048h.047v-.047l.047-.024.072-.07.047-.024.024-.024.071-.024h.047l.072.024.047.023v.356l-.024.024-.023.094-.024.024-.024.047h-.047v.095h-.048v.048h-.047v.047h-.048v.071l-.023.024-.024.047h-.048v.048l-.023.023-.024.072h-.047v.142h-.048v.142h-.047v.095l-.024.023-.024.071h-.047v.095h-.047v.095h-.048v.047h-.047v.142h-.048v.19h-.047v.142l-.024.024-.023.071h-.048v.095h-.047v.047h-.048v.048h-.047v.047h-.047v.047h-.048v.048h-.047v.047h-.048v.047l-.071.024-.024.024h-.047v.047h-.048v.048h-.047v.047h-.095v.047h-.142v.048l-.213.024-.024.023h-.118v-.047h-.19l-.024-.024-.071-.024v-.047h-.071v-.095h-.047v-.26l.023-.048.024-.142h.047v-.142h.048v-.142h.047v-.095l.095-.19.047-.047.024-.047.071-.072.048-.023.023-.024.166-.023.048-.024.094-.024.095-.047.024-.024h.071v-.047l.047-.024.024-.024.024-.047h.047v-.047l.024-.024.024-.048.024-.023.027-.047h-.051v-.048h-.095v.047h-.048v.048h-.047v.047h-.047v.047h-.048v.048h-.047v.047h-.095v.048h-.118v-.048h-.119v-.047h-.047v-.047h-.048v-.048h-.047l-.048-.095v-.047h-.047l-.024-.095-.023-.024-.024-.142v-.047l.024-.095.023-.024.024-.047.024-.024.023-.047.072-.071.023-.048h.048v-.07l.023-.024.027-.142h-.572v-.048h-.047V61.6h-.048l-.023-.119-.024-.095v-.545l.024-.023.023-.071h.048v-.048l.023-.023.024-.072h.048v-.047h.047v-.047l.023-.024.024-.047.072-.071.047-.024.024-.024h.047v-.047h.047v-.048l.048-.023.024-.024.047-.024.024-.023h.047v-.048l.047-.024.024-.023.048-.024.023-.023h.048v-.048h.071v-.047h.071v-.048l.047-.024.071-.07.048-.024.118-.119h.048v-.047h.047v-.047h.048v-.048l.047-.023.024-.024h.071v-.048h.047v-.07l.024-.025.027-.094h-.051c-.031-.078-.111-.078-.142 0h-.095v.047h-.095v.047h-.047v.048l-.119.024-.023.023h-.119v-.047h-.118v-.048h-.048v-.047h-.071l-.024-.024-.047-.023v-.048h-.047v-.047h-.048v-.047h-.047v-.048h-.048v-.047h-.047l-.024-.047-.023-.024v-.38l.023-.023.024-.095h.047v-.047h.048v-.048l.071-.023.024-.024.521-.024.024-.023h.095v-.048h.047v-.071l-.024-.095-.023-.26-.024-.024-.024-.095-.024-.023v-.048h-.047v-.047h-.047l-.048-.095v-1.066l.024-.024.024-.047h.047v-.048l.071-.024.024-.023h.237v.047h.095v.048h.095v.047h.047v.047h.048v.048h.047v.047h.047v.047h.048v.048h.047v.095h.048v.047h.047v.095h.047v.095h.048v.094h.047v.593l-.023.024v.378l.023.024.048.024v.047l.308-.023.047-.024.142-.024.024-.023.095-.024.024-.024.094-.023.024-.024.071-.024.024-.024h.071v-.047l.048-.024.023-.023h.048v-.048h.047v-.047h.048v-.047l.047-.095h.047v-.048l.024-.023.024-.048.023-.023.072-.143.023-.023.024-.072.024-.023.023-.095.024-.024.024-.07.024-.024.023-.095.024-.024.024-.118.023-.048.024-.118.024-.047v-.285l-.024-.047v-.214l.048-.094h.047v-.048l.047-.047.024-.047h.071v-.048h.048v-.047l.071-.024.023-.024.072-.023.023-.024h.048Zm7.443 1.564.024.024.142.023.024.024.095.023v.048h.095v.047h.095v.048h.047v.047h.047v.048h.048v.047h.047v.095h.048v.166h.047v.047l-.024.047-.023.213-.024.024-.024.166h-.047v.142h-.048l.024.403.024.024v.284h.047c.029.072.206.076.253.014l.008-.014.095-.024.047-.023h.048v-.047h.094v-.048l.048-.024.024-.023h.07v-.048l.096-.047h.047v-.048h.095v-.047l.095-.024.047-.023h.284l.024.023.095.024v.047h.095v.048h.047v.047h.048l.189.19.048.023.047.048v.047h.047l.024.048.024.023.024.071.023.048v.237l-.023.07-.024.048-.024.024-.024.047-.071.072-.047.023-.024.024h-.047v.047h-.095v.048l-.047.023-.024.024h-.071v.047h-.095v.048h-.095v.047h-.047v.048h-.095v.047h-.095v.047h-.095v.048h-.095v.047h-.094v.048l-.095.047h-.095v.047h-.095v.048l-.095.023-.047.024h-.142v.047h-.095v.048h-.048v.047h-.047v.048h.047v.142h.048v.047h.047v.047h.048v.048h.047v.047h.048v.048h.071l.023.023.048.024v.047h.047v.048h.048v.07h.047v.072h.047v.071h.048v.071h.047l.024.048.024.023v.048h.047l.047.047.048.024v.047h.047v.047h.048v.048h.047l.048.047.047.024v.047h.047l.024.048.071.07v.072h.047l.024.047.048.048.071.023.023.024.072.024v.047h.071l.023.024.237.118.024.024.048.024.023.024.048.023v.048h.047l.048.047.047.024.047.047.048.024.047.047.095.048.024.023.071.024.047.024.095.023.047.024.095.024.048.023.095.024.023.024.071.023v.048h.048l.047.024.095.094.048.024v.047h.047l.118.119.072.024v.047h.094l.048.047.047.024v.047h.048v.048h.047l.071.142v.19l-.024.023-.047.095-.047.047h-.048v.048h-.095v.047l-.331.024-.024.024h-.735l-.024-.024-.427-.024v-.047h-.142v-.048h-.427v-.047h-.047v-.047h-.047v-.048h-.048v-.047h-.047v-.047h-.048l-.023-.024-.048-.024-.023-.023-.048-.024v-.048h-.047v-.047h-.048v-.047h-.047v-.095h-.047l-.024-.071-.024-.024v-.095h-.047l-.024-.07-.024-.024-.023-.072-.024-.023v-.048h-.047v-.047h-.048v-.047h-.048v-.048h-.047v-.047h-.047v-.048h-.048v-.047h-.047v-.142h-.047v-.095h-.048v-.047h-.047v-.048h-.048l-.023-.047-.024-.024-.048-.023V62.5h-.047v-.047h-.047v-.048h-.048v-.095h-.047v-.047h-.048v-.095h-.047l-.024-.07-.023-.024-.024-.072-.071-.07v-.048h-.048v-.047h-.047v-.048h-.095c-.03-.074-.079-.078-.112-.015l-.006.015h-.048v.095h-.047v.095h-.048v.047h-.047v.047h-.047v.048h-.048v.071l-.023.024-.024.047h-.048v.047h-.047v.048h-.047v.047h-.048v.048h-.047v.047h-.048v.047h-.047v.048h-.048v.095h-.047v.047h-.048v.047h-.047v.048h-.047v.047l-.048.024-.023.024h-.071v.047h-.048v.047h-.095v.048h-.095v.047h-.094v.047h-.095v.048l-.119.024-.023.023h-.095v.048h-.095v.047l-.119.024-.023.023h-.095v.048h-.048v.047h-.094v.048h-.048v.047h-.095v.047h-.094v.048l-.143.023-.023.024-.166.024-.024.024h-.569l-.024-.024-.071-.024-.024-.047v-.166l.024-.047h.048v-.048l.095-.095h.047v-.047l.047-.024.095-.095.071-.023.024-.024.047-.023.024-.024.071-.024.024-.024h.071v-.047h.095v-.047l.071-.024.024-.024.071-.023.023-.024.095-.047.048-.048.094-.047.096-.095.047-.024.023-.023.024-.048.048-.024.023-.023.024-.048.213-.213.024-.047h.048v-.048l.023-.023.024-.048.024-.024.023-.023.024-.024.047-.095.048-.047.047-.095.048-.047.047-.095.047-.047.024-.072.024-.023.024-.071.023-.024.048-.095.047-.142v-.095l-.047-.047-.048-.024-.023-.023-.095-.024v-.048h-.119l-.023-.023-.143-.024v-.047h-.189l-.048-.024-.189-.024v-.047h-.19v-.048h-.095l-.024-.023-.047-.024-.024-.024-.047-.023v-.048h-.071v-.047h-.048v-.047h-.047v-.048h-.048l-.047-.095-.023-.047-.024-.024-.024-.095v-.142l.024-.095.024-.023.023-.024.071-.07.759-.025.047-.023.143-.024.023-.024.166-.023.024-.024.118-.024.024-.023h.119v-.048h.094v-.047l.072-.024.071-.071.023-.119V58.07l.024-.119v-.07l-.024-.095-.023-.071-.024-.048-.024-.094v-.214l.024-.047.024-.071.023-.024.024-.047.024-.024.047-.024.024-.024.095-.047h.142v-.047h.45Zm-17.874 1.28v.047h.047v.07h.048v.167h-.048v.094h-.047v.048h-.047v.047h-.095v.048h-.095v.047h-.048v.047h-.047v.048l-.024.023-.023.072h-.048v.047h-.047v.047h-.048l.024.048.024.023h.308l.024-.023.095-.024.023-.024.095-.023.024-.024.07-.024.025-.023.047-.024.024-.024.07-.024.025-.023h.07v-.047l.048-.024.024-.024h.07v-.047l.048-.024.024-.024h.071v-.047l.071-.024.024-.024.071-.023.024-.024.142-.024.024-.023h.213l.047.023.095.024v.047h.095v.048h.047v.047h.048v.048h.047v.047h.048l.023.047.024.024v.071h.048v.095h.047v.237h-.047v.095h-.048v.047h-.095v.047h-.047v.048l-.095.024-.024.023h-.118v.048h-.142v.047h-.095v.047h-.095v.048h-.095v.047h-.095v.048h-.047v.047c-.078.031-.078.11 0 .142v.048h.071l.071-.024.024-.024h.07v-.047l.072-.024.024-.023.118-.024.024-.024.119-.024.023-.023.166-.024.024-.024h.237l.024.024.118.024.095.047v.047h.071l.024.024.047.024v.047h.048v.048h.047l.024.047.023.024v.07h.048v.285h-.048v.095l-.047.024-.024.023h-.07v.048l-.072.023-.024.024h-.094v.047H96.3v.048l-.142.024-.023.023-.19.024-.024.023H95.4v.048l-.095.023-.024.024h-.119v.048h-.047v.047h-.047v.047h-.048v.048h.048v.047h.521l.118.024.214.024.095.047v.047h.047v.048h.048l.095.047v.048h.094v.047h.048l.095.047v.048h.047v.047h.047v.095h.048l.024.166v.095l-.024.45h-.048v.047h-.047v.095h-.047v.047l-.024.024.024.119.047.023.332.024.024.024.047.023.024.024.047.024v.047h.048l.023.024.048.023.023.024.048.024v.047h.047v.048h.048l.095.047.023.071.024.024.024.142.023.024.024.19.024.047v.213h-.048v.095h-.047v.047h-.142v.047h-.261v-.047h-.237l-.024-.024-.972-.023-.047-.024h-.048l-.023.024-.427.023-.024.024h-.071l-.024-.024-.355-.025v.05h-.787v-.962l.052-.01.213-.024.546-.024.047-.023.118-.024.024-.024.071-.023.048-.024.094-.024.048-.024.166-.023.047-.024.142-.024.095-.047.027-.07-.05-.001v-.047h-.072l-.023-.024-.071-.024v-.047h-.095l-.024-.024-.095-.024-.023-.023-.095-.024-.024-.024-.071-.023V62.5h-.071v-.047h-.048v-.048h-.047v-.047h-.047v-.047h-.048v-.048h-.047v-.047h-.071l-.024-.024-.142-.027v.05l-.072.024-.023.024h-.047v.047h-.048v.048h-.047v.047h-.048v.048h-.047v.07l-.024.024-.024.048h-.047v.047h-.047v.048h-.048v.047h-.028v-2.133h.028v-.07l.024-.024.024-.166v-.071L94 60.225l-.024-.023-.19-.027v.05l-.047.024-.024.024h-.07v.047h-.048v.048l-.119.023-.023.024h-.095l-.024-.024-.166-.023-.024-.024-.07-.024v-.047h-.072l-.118-.119-.024-.047-.024-.024v-.047h-.047v-.095h-.048v-.355l.024-.024.024-.095h.047v-.071l.024-.024.024-.047.023-.024.024-.07h.047v-.048h.048v-.048l.024-.023.023-.071h.048v-.048h.047v-.047h.047v-.047h.048v-.048h.047v-.047h.048v-.048l.118-.118.024-.071h.047v-.072l.024-.023.024-.047h.047v-.048l.071-.024.024-.023.119-.024.023-.024h.522Zm-20.032-.522.024.024.142.023v.048h.095v.047h.047v.047h.048v.048h.047l.024.047.024.024v.071h.047v.521h-.047v.095h-.048v.095h-.047v.047h-.048v.095h-.047v.095h-.047v.19h-.048v.402l-.024.048-.023.308c-.053.021-.063.154-.06.292l.002.064.01.197v.08l-.01.167-.002.064c-.002.128.004.254.048.29l.012.007.023.07c.075.076.187.36.095.451-.025.125-.156.37-.237.45a3.671 3.671 0 0 1-.314.505l-.066.089c-.475.621-1.188 1.255-1.73 1.255l-.023-.024-.072-.024c0-.06-.08-.136-.185-.221l-.066-.052-.105-.08-.07-.055c-.126-.102-.237-.206-.261-.303l-.024-.023v-.237c-.004-.038.007-.055.026-.074l.022-.021c.145-.146.33-.28.527-.416l.259-.176c.203-.14.407-.285.585-.45l.075-.072.044-.041.05-.043.078-.067c.087-.076.167-.155.181-.23l.002-.022.024-.023.024-.166v-.166a.333.333 0 0 0-.1.072l-.048.045-.192.186-.055.05c-.079.073-.146.127-.174.12a1.08 1.08 0 0 1-.864-.426l-.041-.053a1.675 1.675 0 0 1-.038-.052l-.033-.051-.03-.049-.027-.046-.044-.08-.032-.059-.012-.02c-.007-.01-.013-.016-.017-.016 0-.485.22-.636.504-.71l.055-.014.057-.013.087-.016.178-.03.06-.011.058-.013.059-.014c.067-.017.133-.039.196-.067l.026-.013h.142v-.047h.142v-.047h.095v-.048c.072-.029.076-.27.013-.324l-.013-.008v-.094h-.047v-.095h-.047v-.095h-.048l-.024-.047-.023-.024v-.07h-.048v-.048h-.047v-.048h-.047l-.024-.07-.024-.025v-.047h-.047v-.047h-.048v-.048h-.047v-.166l.023-.023.024-.095h.048v-.047h.047v-.048h.047v-.047h.048v-.048l.047-.023.024-.024.07-.024.025-.023.07-.024.025-.024.142-.023.024-.024.308-.024h.142l.047-.024.261-.023.024-.024h.142Zm3.343-.995v.047h.142v.048h.095v.047h.047v.047h.047v.048h.048v.094h.047l.024.166.024.024v.285l-.024.023-.024.285-.023.023-.024.19h-.047v.213l-.024.024v.118l.023.024c.03.073.101.078.136.014l.007-.014h.095v-.047l.07-.024.024-.024.166-.024h.048l.166.024v.047h.047v.048h.047v.047h.048l.024.095.023.024v.355H78.9v.095h-.048v.047h-.047v.048h-.047v.047h-.048v.047h-.094v.048h-.095v.047h-.048v.048h-.095v.047h-.047v.047h-.047v.048h-.048v.047h-.047v.048h-.048v.047l-.095.024-.023.023h-.119v.048h-.047v.047h-.047v.048l-.024.023-.024.095-.024.024-.023.095h-.048v.094l-.023.024-.027.213h.05v.45l-.023.048v.521l.023.024v.095h.048v.047h.758l.072.024.165.023.048.024.094.024.19.095v.047h.095v.047h.047v.048h.048l.024.07.023.025.024.047.024.024.023.094.024.024v.474h-.047v.095h-.048v.047h-.047v.048l-.095.094h-.047v.048h-.048v.047l-.047.024-.024.023H78.9v.048h-.095v.047h-.095v.048h-.142v.047h-.142v.047h-.142v.048l-.285.024-.024.023h-.687v-.047h-.047l-.024-.119-.024-.023v-.095h-.047v-.095h-.048v-.047h-.047l-.024-.048-.024-.023-.047-.024v-.047h-.047v-.048h-.119l-.024-.023-.095-.024v-.047h-.094v-.048h-.048v-.095h-.047l-.024-.474-.023-.023-.024-.166-.024-.024v-.83h-.047l-.024-.734v-.237l-.047-.023-.024-.024-.095-.024v-.047h-.047v-.047h-.048v-.048h-.047v-.071l.024-.024.023-.047h.048v-.047h.047v-.048l.024-.024.023-.047h.048v-.047l.023-.024.024-.047h.048v-.048h.047v-.095h.047l-.023-1.066-.024-.047v-.309h-.047v-.094h-.048v-.048h-.047v-.284h.047v-.07l.024-.025.024-.047h.047v-.047l.047-.024.024-.024h.071v-.047h.048v-.048h.047v-.047l.047-.024.024-.024h.071v-.047l.048-.023.024-.024h.07v-.048h.048v-.047h.095v-.047l.047-.024.024-.024h.071v-.047h.522Zm26.385 2.44.355.024.048.024.023.006v.729h-.023v.094h-.048v.095h-.047l.024.237.023.023.048.024.023.024v.6l-.047.016-.024.024-.071.023-.023.024-.143.024-.023.023h-.166v.048h-.095v.047l-.071.024.023.024v.047h.071l.024.024.095.023v.048h.142l.048.023.095.024v.048h.094v.047h.048v.047h.023v.9h-.071v.048h-.047v.048h-.095v.047h-.095v.047h-.355l-.024-.023-.047-.024-.048-.095-.024-.095-.023-.07v-.12h-.048l-.047-.094-.047-.047v-.048h-.048v-.047h-.047l-.048-.095-.024-.095-.023-.047v-.118l.023-.048.024-.095.024-.047.024-.071.023-.024.027-.07h-.05v-.048h-.048v-.048h-.047v-.047h-.047v-.048h-.048v-.047h-.047l-.024-.071-.024-.024-.024-.095v-.07l.024-.095.024-.024.024-.047.047-.048.024-.023.024-.048.07-.07.024-.048h.048v-.072l.023-.023.024-.071.024-.048.024-.142.023-.047.024-.19.024-.095.023-.189.024-.024.024-.095.023-.023.024-.071h.048v-.048h.047v-.047h.047v-.048h.048v-.047l.071-.024h.095Zm.45 2.488v.048h.048v.095h.047l.024.213.023.095v.26h-.047v.095h-.047v.047h-.048v.048h-.024v-.9h.024ZM63.23 61.6c.032-.172-.036-.247-.237-.143-.035 0-.087.027-.142.065l-.024.017c-.108.082-.22.203-.235.262l-.002.012-.024.023a1.296 1.296 0 0 1-.032.061l-.03.05-.026.045c-.05.083-.075.148-.054.319l.024.023v.048h.047c.025.014.048-.002.075-.026l.028-.027a.22.22 0 0 1 .11-.064l.024-.002v-.047a.156.156 0 0 0 .077-.022l.018-.012a.83.83 0 0 0 .204-.256l.051-.09.07-.124a.81.81 0 0 1 .061-.093l.017-.02Zm61.162-6.422.332.024.024.024.142.023.024.024.095.024v.047h.095v.047h.094v.048h.048v.047h.047l.095.095v.047h.047l.024.048.024.024.023.094.024.024v.522h-.047v.094h-.048v.047h-.047v.048l-.048.024-.023.023-.047.024-.024.024h-.048v.047h-.047v.048h-.047v.047h-.048v.047h-.047v.048h-.048v.07l-.023.024-.024.048h-.048v.047h-.047v.047h-.047v.048h-.048v.047h-.047v.048h-.048v.047h-.047v.048h-.048v.047h-.047v.047h-.047v.048h-.048v.07l-.023.025-.024.047h-.048v.047h-.047v.048h-.047v.047l-.048.047h-.047v.048h-.048v.047h-.047v.047h-.047v.048h-.048v.047h-.047v.048h.047c.031.077.159.077.19 0l.095-.024.023-.024h.119v-.047h.095v-.047l.379-.024.024-.024h.118v-.047l.19-.024.047-.024.285-.023.023-.024h.166v-.047h.167l.023.023.095.024.024.024.094.023v.048h.071v.047h.095v.047h.048v.048h.071l.024.024.047.023v.048h.047l.024.023.048.024.023.024.048.023v.048h.071v.047h.047l.024.024.047.024v.047h.048l.023.047.024.024.024.047.024.024.047.095v.237l-.047.095-.024.023-.024.072h-.047v.047h-.048v.047h-.071v.048h-.071v.047l-.071.024-.024.023-.071.024-.024.024h-.094v.047l-.119.024-.024.024-.118.023-.024.024-.142.024-.024.023-.166.024-.023.024-.166.024-.024.023h-.19v.048h-.189v.047l-.19.024-.024.023h-.166v.048h-.782v-.237h.047v-.095h.048v-.047h.047v-.048h.048v-.047h.094v-.048h.048v-.047h.047v-.047h.095v-.048h.047v-.047h.048v-.047h.047v-.048h.048v-.07c.079-.033.079-.087 0-.12l-.024-.023-.522-.025v.049h-.189v.047l-.166.024-.024.023-.142.024-.024.024h-.142v.047h-.095v.048l-.095.023-.023.024h-.095v.047h-.166v.048l-.142.023-.024.024-.166.024-.024.023-.166.024-.023.024-.143.024-.023.023h-.166v.048l-.143.023-.023.024h-.119v.047l-.118.024-.024.024h-.071v.047l-.071.024-.024.024h-.047v.047l-.071.024-.024.023h-.048v.048l-.094.023-.024.024h-.095v.048l-.118.023-.024.024-.119.024-.023.023-.095.024-.024.024-.119.023-.023.024-.119.024-.023.024h-.214v.047h-.118v.047h-.048v.048h-.047v.047h-.047v.048l-.048.094h-.047v.048l-.048.094h-.047v.072l-.024.023-.024.071v.095l.024.142v.095l-.024.095-.023.023-.024.048h-.047v.047h-.048v.048h-.047v.047l-.071.024-.024.023h-.166v.048h-.308l-.024-.024-.119-.024-.023-.023-.071-.024v-.047h-.048v-.048h-.047v-.047h-.048v-.048h-.047v-.047h-.047v-.095h-.048l-.023-.118-.024-.024v-.095h-.048l-.023-.094-.024-.024v-.119h-.047l-.024-.094-.024-.024v-.427h.048v-.142h.047V59.8h.047v-.095h.048v-.095h.047v-.095l.024-.023.024-.095.023-.024.024-.07.024-.025.023-.047.024-.024.024-.07h.047v-.095h.048v-.095h.047v-.047h.047v-.095h.048v-.048h.047v-.095h.048v-.047h.047v-.047h.071l.095.047.403.403.048.095.023.07.024.024.024.071.023.024.237.026.001-.05h.142v-.047h.142v-.047h.142v-.048l.095-.023.024-.024h.118v-.047l.119-.024.024-.024h.142v-.047l.189-.024.024-.023.166-.024.024-.024h.213v-.047l.213-.024.024-.024.142-.023.048-.024h.142v-.048l.119-.023.023-.024h.048v-.047h.047v-.048h.048v-.07c.076-.032.076-.23 0-.261v-.048h-.048v-.047h-.237v-.048h-.19l-.023-.023-.071-.024-.024-.071-.024-.024v-.095h-.047v-.142h-.048v-.142h-.047v-.047h-.048v-.095h-.047v-.047h-.047v-.048h-.048v-.047h-.047v-.095h-.048v-.095h-.047v-.521h-.047v-.26h.047v-.12h.047v-.047h.048v-.047h.095v-.047h.166v.047h.237l.023.024.143.023.023.024.119.024.024.023.118-.023h.095v-.048h.095v-.047l.142-.024.024-.023h.047l.048.023.071.024.023.024.048.023.024.024.023.071.024.024v.142l-.024.071-.023.166-.024.024-.024.095-.024.047-.023.095-.024.023-.024.095-.023.024-.024.094-.024.024-.024.095-.023.024v.19l.023.023h.048l.047-.024h.095v-.047h.048v-.047h.094v-.048h.048v-.047h.047v-.048h.048v-.047h.047v-.095h.047v-.047h.048v-.048l.023-.023.024-.071h.048v-.095l.023-.024.024-.118.024-.024.023-.119h.048v-.094h.047v-.095h.048v-.095h.047v-.142l.024-.119-.024-.023v-.095h-.047v-.047h-.048v-.095h-.047v-.19h.047v-.047h.048v-.047h.047v-.048h.048v-.047h.094v-.048h.095v-.047l.285-.024h.189Zm-64.925 4.073.255.026.023.024c.159.04.258.192.32.386l.012.038.015.053c.046.183.066.392.074.575l.004.108.002.144v.118l-.024.047a.654.654 0 0 1-.058.213l-.013.021c-.058.09-.152.116-.316.133l-.075.006-.083.006-.024.024h-.029l-.058-.001c-.256-.009-.52-.066-.624-.378l-.024-.024a.17.17 0 0 0-.009-.05l-.008-.025-.011-.026-.064-.139-.03-.07-.022-.052-.022-.059-.012-.03-.023-.068-.024-.074-.024-.081a4.537 4.537 0 0 1-.082-.344v-.119l.023-.047c.036-.18.167-.258.38-.285l.047-.024.056-.007.099-.013c.12-.013.199-.015.284-.01l.065.004Zm7.01-1.11v-.048l-.426.023-.023.024-.072.024-.023.023h-.071v.048c-.164 0-.522.356-.522.498l-.024.023.024.024v.095h.047v.047h.048l.047.024v.047l.403-.024h.142l.166.024v.048h.072l.07.07v.072h.048v.094h.047l.024.143.024.023v.403h-.047v.143h-.048v.094h-.047v.048l-.048.023-.023.024-.072.024-.023.023h-.119v.048h-.142v.047h-.142v.048h-.095v.047h-.095v.166h.047l.024.047h.759l.023-.024h.048v-.047l.024-.024.023-.095.024-.023.024-.166.023-.047v-1.043l-.023-.047-.024-.356-.024-.023v-.095l.024-.048.026-.403h-.05v-.047h-.047Zm18.231.876h-.071l-.024.024-.095.023-.023.024h-.142v.047h-.143v.048h-.142v.047h-.142v.047h-.095v.048h-.095v.047h-.047v.048h-.048v.047h-.047v.047l-.024.024v.237l.024.024v.308h.047v.308h.048v.095h.047v.047h.047l.048.024h.166l.024-.024.094-.024.024-.023.071-.024.024-.024.07-.024.049-.023.07-.024.024-.023.071-.024.024-.024.047-.024.024-.023h.071v-.048h.048v-.07h.047v-.143l.024-.047v-.143l-.024-.047-.024-.331v-.095l.026-.308h-.05l-.023-.024Zm19.818.243.072.017v.048h.047l.024.07.023.025v.19l-.023.023-.024.118h-.047v.095h-.048v.143h-.024v-.73Zm-17.66-.67h-.072l-.024.024h-.284v.047l-.213.024-.024.024h-.047v.047h-.048v.048h-.047v.047h-.048v.047h-.047v.095h-.048v.119l-.023.023-.026.19h.05v.047h.047v.048h.047c.031.077.159.077.19 0h.095v-.048l.047-.023.024-.024.047-.024.024-.024h.047v-.047h.048v-.047h.047v-.048h.048v-.047h.047v-.047h.047v-.048h.048v-.047l.024-.024.023-.047.024-.024.024-.047h.047v-.048l.024-.023v-.072l-.024-.023-.071-.024-.024-.024Zm-26.789-2.042c.04 0 .08.001.119.005h.095c.501.1.92.832.948 1.327l.024.047v.095l-.024.047c-.035.377-.223.725-.545.806l-.024.023c-.196 0-.398-.049-.593-.137-.626-.282-1.173-.967-1.185-1.71.106-.147.602-.478 1.135-.502h.05Zm60.167-.256.023.024.072.023v.048h.047l.047.047.024.047v.048h.048l.023.095.024.023.023.072.024.023.024.095.024.024.023.07.024.024.024.048.024.024.023.07.024.024.024.048.023.023.024.048.048.047v.048h.047v.047h.047l.024.024.047.023v.048h.048l.047.095.024.094.024.071v.332l-.024.071-.024.095-.024.047-.023.095h-.048v.095h-.047v.047l-.047.095h-.048v.047h-.047v.048l-.048.024-.023.023h-.071v.048h-.167v.047h-.07v-.047h-.143v-.048h-.047v-.047h-.071l-.024-.024v-.07h-.047v-.048h-.048v-.048h-.047v-.047h-.095v-.047h-.047v-.048h-.095v-.047h-.095v-.048h-.048v-.047h-.047v-.047h-.047v-.048h-.048v-.047h-.047l-.024-.664-.024-.023v-.403l.024-.024.024-.213h.047v-.095h.048v-.095h.047v-.047h.047v-.048h.048v-.047h.047v-.047h.048v-.047h.095v-.048h.308Zm-24.062.355.26.024v.048h.095v.047h.095v.047h.095v.048h.071l.024.023.047.024v.047h.048v.048h.047v.094h.048v.143h-.048v.07l-.024.025-.023.047h-.095v.047h-.048v.048h-.094v.047h-.143v.048h-.142v.047l-.166.024-.023.023-.143.024-.023.024h-.166v.047h-.237v.047H95.4v.048l-.238.023-.023.024h-.261v.047l-.237.024-.024.024-.237.024-.023.023-.404.024-.023.024-.403.023-.024.024h-.095v.047l-.118.024-.024.024h-.38l-.023-.024-.095-.023-.024-.024-.094-.024v-.047h-.072l-.023-.024-.048-.024v-.047h-.07l-.025-.024-.047-.023v-.048h-.047v-.047h-.048l-.023-.024-.048-.024v-.047h-.047l-.024-.047-.047-.048v-.047h-.048v-.237h.048v-.047h.047v-.048h.047v-.047h.048v-.048h.095v-.047l.094-.024.024-.024.142-.023.024-.024h.688l.023.024.214.023.023.024.285.024h.071l.474-.024.047-.024.427-.023.024-.024.19-.023.023-.024h.119v-.048l.118-.023.024-.024.095-.024.024-.023.118-.024.024-.024h.118v-.047h.143v-.047l.095-.024.023-.024.142-.024h.048Z" clip-rule="evenodd"/></g><defs><filter id="a" width="154" height="157" x="0" y="0" color-interpolation-filters="sRGB" filterUnits="userSpaceOnUse"><feFlood flood-opacity="0" result="BackgroundImageFix"/><feColorMatrix in="SourceAlpha" result="hardAlpha" values="0 0 0 0 0 0 0 0 0 0 0 0 0 0 0 0 0 0 127 0"/><feOffset dy="16"/><feGaussianBlur stdDeviation="6.5"/><feColorMatrix values="0 0 0 0 0 0 0 0 0 0 0 0 0 0 0 0 0 0 0.03 0"/><feBlend in2="BackgroundImageFix" result="effect1_dropShadow_192_964"/><feBlend in="SourceGraphic" in2="effect1_dropShadow_192_964" result="shape"/></filter></defs></svg>