<svg xmlns="http://www.w3.org/2000/svg" width="154" height="157" fill="none"><g filter="url(#a)"><path fill="#fff" d="M13 0h128v128H13z"/><path fill="#004DA1" fill-rule="evenodd" d="M48.19 63.988c0 5.669-4.596 10.266-10.266 10.266s-10.266-4.597-10.266-10.266c0-5.67 4.596-10.266 10.266-10.266S48.19 58.318 48.19 63.988Z" clip-rule="evenodd"/><mask id="b" width="23" height="22" x="26" y="53" maskUnits="userSpaceOnUse" style="mask-type:alpha"><path fill="#fff" d="M26.999 53.063h21.874v21.874H26.999V53.063Z"/></mask><g mask="url(#b)"><path fill="#004DA1" fill-rule="evenodd" d="M37.936 53.063c-6.031 0-10.937 4.906-10.937 10.937 0 6.03 4.906 10.937 10.937 10.937 6.03 0 10.937-4.906 10.937-10.937 0-6.03-4.906-10.937-10.937-10.937ZM48.482 64c0 5.815-4.731 10.546-10.546 10.546-5.815 0-10.546-4.73-10.546-10.546 0-5.816 4.731-10.546 10.546-10.546 5.815 0 10.546 4.73 10.546 10.546Z" clip-rule="evenodd"/></g><path fill="#FEFEFE" fill-rule="evenodd" d="M44.108 63.988a6.184 6.184 0 1 1-12.369 0 6.184 6.184 0 0 1 12.369 0ZM30.371 66.83l.553-.2.036.1-1.349.487-.035-.1.626-.227-.14-.384-.626.227-.036-.1 1.35-.488.035.1-.552.2.138.384ZM30.284 67.343l.109.216.514-.39-.001-.003-.622.177Zm-.028.328-.142-.28-.407.115-.048-.096 1.412-.385.054.106-1.153.898-.052-.102.336-.256ZM31.205 67.634l-.429.245.123.214c.047.094.146.098.295.013.135-.08.182-.162.142-.243l-.13-.23Zm-.572.326-.537.308-.053-.092 1.245-.712.18.314c.08.15.011.289-.205.416-.14.08-.259.105-.355.075-.002.07-.066.142-.191.217l-.22.136a.419.419 0 0 0-.131.118l-.066-.114c.02-.017.06-.045.116-.08.063-.04.126-.077.189-.114.15-.083.203-.166.155-.25l-.127-.222ZM31.613 68.299l-.358.266.112.15c.06.09.154.086.284-.01.11-.08.134-.166.074-.256l-.112-.15Zm-.49.364-.403.3.135.18c.066.082.168.075.306-.02.13-.097.158-.196.083-.296l-.121-.164Zm-.599.313 1.152-.856.205.276c.073.116.02.245-.16.39-.119.085-.219.117-.3.096.003.117-.062.227-.197.326-.224.153-.391.165-.5.037l-.2-.27ZM32.225 68.833l-1.08.944-.07-.08 1.08-.945.07.08ZM31.93 70.214l.829-.813.07.073-1.023 1.005-.083-.085.55-1.095-.003-.003-.827.813-.072-.073 1.024-1.005.09.09-.555 1.093ZM32.942 71.178l-.105.136-.455-.35.874-1.137.449.345-.1.13-.365-.28-.272.354.337.26-.105.137-.338-.26-.29.38.37.285ZM33.748 71.57l.597-.994.088.053-.739 1.229-.102-.061.259-1.198-.004-.002-.597.994-.088-.052.738-1.23.11.066-.262 1.196ZM34.49 71.614l.072-.148.295.153-.337.687-.087-.043.085-.16c-.112.089-.216.111-.312.068-.093-.049-.142-.13-.145-.243-.014-.165.038-.363.158-.595.221-.413.437-.58.649-.5.156.11.183.3.082.569l-.09-.046c.06-.191.038-.317-.068-.378-.155-.05-.315.087-.48.412-.175.355-.187.572-.036.649.051.033.112.029.181-.011.084-.051.163-.154.24-.308l-.208-.106ZM35.397 71.058l-.462 1.358-.1-.034.461-1.36.101.036ZM35.79 72.39l.324-1.114.098.029-.402 1.377-.114-.033-.055-1.225h-.005l-.324 1.113-.098-.029.402-1.377.122.036.051 1.223ZM36.772 72.686l-.03.17-.565-.095.238-1.415.558.094-.028.163-.452-.077-.075.44.42.072-.029.17-.42-.07-.08.47.463.078ZM37.676 72.763l-.01.173-.573-.034.084-1.431.564.032-.01.164-.458-.026-.026.445.425.025-.01.172-.425-.024-.028.477.467.027ZM38.047 71.647l.028.494.246-.014c.105 0 .153-.087.143-.26-.011-.156-.062-.234-.153-.234l-.264.014Zm.036.658.035.618-.107.006-.078-1.433.36-.02c.17-.003.264.12.28.37.01.162-.021.279-.09.35.06.034.097.124.108.27l.022.258c-.001.078.048.17.048.17l-.132.007a.971.971 0 0 1-.02-.14 6.6 6.6 0 0 1-.016-.22c-.007-.171-.058-.255-.155-.25l-.255.014ZM38.806 71.446l.186 1.423-.105.013-.186-1.422.105-.014ZM39.78 72.457l-.22-1.139.1-.019.272 1.409-.117.022-.608-1.064-.005.001.221 1.139-.1.02-.273-1.409.125-.024.605 1.064ZM40.415 71.981l-.05-.154.325-.102.232.72-.083.038-.06-.178c-.02.14-.081.23-.182.267a.263.263 0 0 1-.276-.067c-.127-.106-.227-.282-.3-.53-.126-.445-.084-.715.128-.808.19-.033.344.08.458.341l-.098.031c-.09-.177-.194-.249-.315-.217-.149.074-.17.283-.066.628.12.372.263.533.428.481.061-.014.102-.06.126-.136.026-.095.012-.223-.04-.385l-.227.071ZM41.364 70.658l.094-.047.412.828c.145.313.129.52-.049.62-.177.076-.34-.03-.49-.318l-.425-.856.096-.048.4.808c.116.234.234.324.353.271.122-.06.125-.21.009-.45l-.4-.808ZM42.684 71.23l-.618-.98.086-.055.765 1.213-.1.064-.953-.77-.004.002.619.981-.087.055-.765-1.214.108-.068.95.773ZM42.358 70.053l.86 1.148-.086.064-.86-1.148.086-.064ZM43.547 70.675l-.612-1.082.09-.076.704 1.282-.088.074-1.14-.916.091-.077.955.795ZM44.422 69.883l.125.12-.399.413-1.033-.996.393-.407.118.114-.319.331.322.31.295-.306.124.12-.295.306.344.331.325-.336ZM43.82 68.897l.383.31.155-.193c.07-.078.038-.171-.096-.28-.124-.096-.216-.11-.277-.043l-.166.206Zm.511.413.482.389-.066.082-1.117-.9.227-.281c.11-.13.265-.116.462.039.126.102.192.202.199.302.066-.023.157.01.272.1l.207.156a.422.422 0 0 0 .158.078l-.083.102a.964.964 0 0 1-.117-.078 5.097 5.097 0 0 1-.174-.135c-.132-.11-.229-.128-.29-.052l-.16.198ZM44.75 68.103l-.052.083c-.16-.089-.276-.083-.349.015-.057.101-.016.194.122.28.087.058.155.062.203.015l.195-.139c.11-.069.252-.05.426.058.224.145.288.304.192.478-.06.097-.136.141-.23.134-.096.006-.212-.034-.349-.121l.054-.087c.187.115.32.114.398-.004.068-.118.035-.22-.097-.305-.106-.076-.21-.073-.31.009l-.137.105c-.103.066-.23.053-.38-.04-.236-.156-.313-.31-.231-.463.105-.16.287-.167.545-.018ZM44.505 67.633l1.229.74-.055.092-1.229-.74.055-.091ZM44.738 67.572l-.15-.07.271-.57.149.072-.113.238 1.147.545-.044.092-1.147-.545-.113.238ZM45.842 66.66l.55.185-.034.101-.55-.185-.904.005.04-.117.724.011-.581-.434.039-.117.716.551Z" clip-rule="evenodd"/><mask id="c" width="12" height="12" x="32" y="58" maskUnits="userSpaceOnUse" style="mask-type:alpha"><path fill="#fff" d="M32.033 63.988a5.89 5.89 0 1 0 11.78-.001 5.89 5.89 0 0 0-11.78 0Z"/></mask><g fill-rule="evenodd" clip-rule="evenodd" mask="url(#c)"><path fill="#5EC0DD" d="M31.903 70.008h12.041v-12.04h-12.04v12.04Z"/><path fill="#5EC0DD" d="M43.814 63.988a5.89 5.89 0 1 1-11.78 0 5.89 5.89 0 0 1 11.78 0Z"/><path fill="#60C0DD" d="M43.792 63.988a5.869 5.869 0 1 1-11.738 0 5.869 5.869 0 0 1 11.738 0Z"/><path fill="#61C1DD" d="M43.771 63.988a5.847 5.847 0 1 1-11.694 0 5.847 5.847 0 0 1 11.694 0Z"/><path fill="#63C1DD" d="M43.749 63.988a5.826 5.826 0 1 1-11.651 0 5.826 5.826 0 0 1 11.65 0Z"/><path fill="#63C1DE" d="M43.728 63.988a5.804 5.804 0 1 1-11.61 0 5.804 5.804 0 0 1 11.61 0Z"/><path fill="#66C3DE" d="M43.706 63.988a5.783 5.783 0 1 1-11.566 0 5.783 5.783 0 0 1 11.566 0Z"/><path fill="#66C2DE" d="M43.685 63.988a5.761 5.761 0 1 1-11.522 0 5.761 5.761 0 0 1 11.522 0Z"/><path fill="#68C3DE" d="M43.663 63.988a5.74 5.74 0 1 1-11.48 0 5.74 5.74 0 0 1 11.48 0Z"/><path fill="#69C3DF" d="M43.642 63.988a5.718 5.718 0 1 1-11.437 0 5.718 5.718 0 0 1 11.437 0Z"/><path fill="#69C3DF" d="M43.62 63.988a5.697 5.697 0 1 1-11.394 0 5.697 5.697 0 0 1 11.394 0Z"/><path fill="#6BC5DF" d="M43.6 63.988a5.675 5.675 0 1 1-11.352 0 5.675 5.675 0 0 1 11.351 0Z"/><path fill="#6BC5DF" d="M43.578 63.988a5.654 5.654 0 1 1-11.308 0 5.654 5.654 0 0 1 11.308 0Z"/><path fill="#6DC5E0" d="M43.556 63.988a5.633 5.633 0 1 1-11.265 0 5.633 5.633 0 0 1 11.265 0Z"/><path fill="#6EC6E0" d="M43.535 63.988a5.61 5.61 0 1 1-11.222 0 5.61 5.61 0 0 1 11.222 0Z"/><path fill="#70C6E1" d="M43.513 63.988a5.59 5.59 0 1 1-11.179 0 5.59 5.59 0 0 1 11.179 0Z"/><path fill="#71C7E0" d="M43.492 63.988a5.568 5.568 0 1 1-11.137 0 5.568 5.568 0 0 1 11.137 0Z"/><path fill="#73C8E0" d="M43.47 63.988a5.547 5.547 0 1 1-11.093 0 5.547 5.547 0 0 1 11.093 0Z"/><path fill="#73C7E1" d="M43.449 63.988a5.526 5.526 0 1 1-11.051-.001 5.526 5.526 0 0 1 11.051 0Z"/><path fill="#76C8E1" d="M43.428 63.988a5.504 5.504 0 1 1-11.008 0 5.504 5.504 0 0 1 11.008 0Z"/><path fill="#76C8E1" d="M43.406 63.988a5.482 5.482 0 1 1-10.964-.001 5.482 5.482 0 0 1 10.964 0Z"/><path fill="#77C9E1" d="M43.385 63.988a5.46 5.46 0 1 1-10.922 0 5.46 5.46 0 0 1 10.922 0Z"/><path fill="#78C9E2" d="M43.363 63.988a5.44 5.44 0 1 1-10.879 0 5.44 5.44 0 0 1 10.88 0Z"/><path fill="#7AC9E2" d="M43.342 63.988a5.418 5.418 0 1 1-10.836 0 5.418 5.418 0 0 1 10.836 0Z"/><path fill="#7BCAE2" d="M43.32 63.987a5.397 5.397 0 1 1-10.793 0 5.397 5.397 0 0 1 10.793 0Z"/><path fill="#7DCAE1" d="M43.298 63.988a5.376 5.376 0 1 1-10.752-.001 5.376 5.376 0 0 1 10.752 0Z"/><path fill="#7ECAE1" d="M43.278 63.988a5.354 5.354 0 1 1-10.708 0 5.354 5.354 0 0 1 10.708 0Z"/><path fill="#7FCBE2" d="M43.256 63.988a5.332 5.332 0 1 1-10.664 0 5.332 5.332 0 0 1 10.664 0Z"/><path fill="#81CBE2" d="M43.235 63.988a5.31 5.31 0 1 1-10.622 0 5.31 5.31 0 0 1 10.622 0Z"/><path fill="#82CBE2" d="M43.213 63.988a5.289 5.289 0 1 1-10.578 0 5.289 5.289 0 0 1 10.578 0Z"/><path fill="#83CCE2" d="M43.19 63.987a5.268 5.268 0 1 1-10.535 0 5.268 5.268 0 0 1 10.536 0Z"/><path fill="#83CCE3" d="M43.17 63.988a5.246 5.246 0 1 1-10.493 0 5.246 5.246 0 0 1 10.492 0Z"/><path fill="#86CDE3" d="M43.148 63.988a5.225 5.225 0 1 1-10.45 0 5.225 5.225 0 0 1 10.45 0Z"/><path fill="#86CDE3" d="M43.126 63.988a5.203 5.203 0 1 1-10.406 0 5.203 5.203 0 0 1 10.406 0Z"/><path fill="#87CDE2" d="M43.106 63.988a5.182 5.182 0 1 1-10.365 0 5.182 5.182 0 0 1 10.365 0Z"/><path fill="#88CEE2" d="M43.084 63.988a5.16 5.16 0 1 1-10.322 0 5.16 5.16 0 0 1 10.322 0Z"/><path fill="#8ACEE4" d="M43.062 63.988a5.139 5.139 0 1 1-10.277 0 5.139 5.139 0 0 1 10.277 0Z"/><path fill="#8BCEE3" d="M43.041 63.988a5.118 5.118 0 1 1-10.235 0 5.118 5.118 0 0 1 10.236 0Z"/><path fill="#8CCFE3" d="M43.02 63.988a5.096 5.096 0 1 1-10.193 0 5.096 5.096 0 0 1 10.192 0Z"/><path fill="#8DD0E4" d="M42.998 63.988a5.075 5.075 0 1 1-10.15 0 5.075 5.075 0 0 1 10.15 0Z"/><path fill="#8FD0E4" d="M42.977 63.988a5.053 5.053 0 1 1-10.107 0 5.053 5.053 0 0 1 10.107 0Z"/><path fill="#90D0E5" d="M42.955 63.988a5.032 5.032 0 1 1-10.064 0 5.032 5.032 0 0 1 10.064 0Z"/><path fill="#91D1E5" d="M42.934 63.988a5.01 5.01 0 1 1-10.02 0 5.01 5.01 0 0 1 10.02 0Z"/><path fill="#93D1E4" d="M42.912 63.988a4.99 4.99 0 1 1-9.978-.002 4.99 4.99 0 0 1 9.978.002Z"/><path fill="#94D2E4" d="M42.89 63.988a4.968 4.968 0 1 1-9.935 0 4.968 4.968 0 0 1 9.936 0Z"/><path fill="#94D2E6" d="M42.87 63.988a4.946 4.946 0 1 1-9.893 0 4.946 4.946 0 0 1 9.892 0Z"/><path fill="#96D2E5" d="M42.848 63.988a4.924 4.924 0 1 1-9.849 0 4.924 4.924 0 0 1 9.85 0Z"/><path fill="#96D2E6" d="M42.827 63.988a4.903 4.903 0 1 1-9.807-.001 4.903 4.903 0 0 1 9.807 0Z"/><path fill="#97D3E6" d="M42.805 63.987a4.882 4.882 0 1 1-9.763 0 4.882 4.882 0 0 1 9.763 0Z"/><path fill="#98D4E6" d="M42.784 63.988a4.86 4.86 0 1 1-9.72 0 4.86 4.86 0 0 1 9.72 0Z"/><path fill="#98D4E7" d="M42.762 63.988a4.838 4.838 0 1 1-9.677 0 4.838 4.838 0 0 1 9.677 0Z"/><path fill="#9BD5E7" d="M42.74 63.988a4.817 4.817 0 1 1-9.634-.001 4.817 4.817 0 0 1 9.635 0Z"/><path fill="#9CD5E7" d="M42.72 63.988a4.796 4.796 0 1 1-9.592 0 4.796 4.796 0 0 1 9.591 0Z"/><path fill="#9DD6E8" d="M42.698 63.988a4.775 4.775 0 1 1-9.55-.001 4.775 4.775 0 0 1 9.55 0Z"/><path fill="#9ED6E9" d="M42.676 63.988a4.753 4.753 0 1 1-9.506 0 4.753 4.753 0 0 1 9.506 0Z"/><path fill="#9FD7E9" d="M42.655 63.988a4.731 4.731 0 1 1-9.462 0 4.731 4.731 0 0 1 9.462 0Z"/><path fill="#A0D7E8" d="M42.633 63.988a4.71 4.71 0 1 1-9.42 0 4.71 4.71 0 0 1 9.42 0Z"/><path fill="#A1D7E9" d="M42.612 63.988a4.689 4.689 0 1 1-9.378 0 4.689 4.689 0 0 1 9.378 0Z"/><path fill="#A2D8E9" d="M42.59 63.988a4.667 4.667 0 1 1-9.333 0 4.667 4.667 0 0 1 9.334 0Z"/><path fill="#A3D8E9" d="M42.57 63.988a4.646 4.646 0 1 1-9.292 0 4.646 4.646 0 0 1 9.291 0Z"/><path fill="#A5D9EA" d="M42.547 63.988a4.624 4.624 0 1 1-9.248 0 4.624 4.624 0 0 1 9.248 0Z"/><path fill="#A6D9E9" d="M42.527 63.988a4.603 4.603 0 1 1-9.206-.001 4.603 4.603 0 0 1 9.206 0Z"/><path fill="#A7D9EA" d="M42.505 63.988a4.58 4.58 0 1 1-9.162 0 4.58 4.58 0 0 1 9.162 0Z"/><path fill="#A8DAEA" d="M42.483 63.988a4.56 4.56 0 1 1-9.12 0 4.56 4.56 0 0 1 9.12 0Z"/><path fill="#A9DAE9" d="M42.462 63.988a4.538 4.538 0 1 1-9.076 0 4.538 4.538 0 0 1 9.076 0Z"/><path fill="#AADAEA" d="M42.44 63.988a4.517 4.517 0 1 1-9.033 0 4.517 4.517 0 0 1 9.033 0Z"/><path fill="#ACDBEA" d="M42.42 63.988a4.496 4.496 0 1 1-8.992 0 4.496 4.496 0 0 1 8.991 0Z"/><path fill="#ADDBEA" d="M42.397 63.988a4.474 4.474 0 1 1-8.948 0 4.474 4.474 0 0 1 8.948 0Z"/><path fill="#AEDCEA" d="M42.376 63.988a4.453 4.453 0 1 1-8.905 0 4.453 4.453 0 0 1 8.905 0Z"/><path fill="#AFDCEA" d="M42.354 63.988a4.431 4.431 0 1 1-8.862 0 4.431 4.431 0 0 1 8.862 0Z"/><path fill="#B0DDEB" d="M42.333 63.988a4.41 4.41 0 1 1-8.818 0 4.41 4.41 0 0 1 8.818 0Z"/><path fill="#B1DDEB" d="M42.311 63.988a4.388 4.388 0 1 1-8.776 0 4.388 4.388 0 0 1 8.776 0Z"/><path fill="#B2DEEB" d="M42.29 63.988a4.366 4.366 0 1 1-8.733 0 4.366 4.366 0 0 1 8.733 0Z"/><path fill="#B3DEEB" d="M42.269 63.988a4.345 4.345 0 1 1-8.69 0 4.345 4.345 0 0 1 8.69 0Z"/><path fill="#B6DFEB" d="M42.248 63.988a4.324 4.324 0 1 1-8.649-.001 4.324 4.324 0 0 1 8.649 0Z"/><path fill="#B7DFEC" d="M42.226 63.987a4.302 4.302 0 1 1-8.605 0 4.302 4.302 0 0 1 8.605 0Z"/><path fill="#B7DFED" d="M42.205 63.988a4.281 4.281 0 1 1-8.563 0 4.281 4.281 0 0 1 8.563 0Z"/><path fill="#B8E0EC" d="M42.183 63.987a4.259 4.259 0 1 1-8.518.001 4.259 4.259 0 0 1 8.518 0Z"/><path fill="#B9E0ED" d="M42.161 63.988a4.238 4.238 0 1 1-8.476 0 4.238 4.238 0 0 1 8.476 0Z"/><path fill="#BAE1ED" d="M42.14 63.988a4.216 4.216 0 1 1-8.432 0 4.216 4.216 0 0 1 8.432 0Z"/><path fill="#BBE1ED" d="M42.118 63.988a4.196 4.196 0 1 1-8.39-.001 4.196 4.196 0 0 1 8.39 0Z"/><path fill="#BCE1ED" d="M42.097 63.988a4.173 4.173 0 0 1-8.347 0 4.174 4.174 0 0 1 8.347 0Z"/><path fill="#BEE2ED" d="M42.076 63.988a4.152 4.152 0 1 1-8.304 0 4.152 4.152 0 0 1 8.304 0Z"/><path fill="#BFE3ED" d="M42.054 63.988a4.13 4.13 0 1 1-8.26 0 4.13 4.13 0 0 1 8.26 0Z"/><path fill="#C0E3EF" d="M42.032 63.988a4.11 4.11 0 1 1-8.218 0 4.11 4.11 0 0 1 8.218 0Z"/><path fill="#C1E4EE" d="M42.011 63.988a4.087 4.087 0 1 1-8.174 0 4.087 4.087 0 0 1 8.174 0Z"/><path fill="#C2E4EF" d="M41.99 63.988a4.066 4.066 0 1 1-8.133 0 4.066 4.066 0 0 1 8.133 0Z"/><path fill="#C3E4EF" d="M41.968 63.988a4.045 4.045 0 1 1-8.09 0 4.045 4.045 0 0 1 8.09 0Z"/><path fill="#C5E5EE" d="M41.947 63.988a4.023 4.023 0 1 1-8.047 0 4.023 4.023 0 0 1 8.047 0Z"/><path fill="#C5E5F0" d="M41.925 63.988a4.001 4.001 0 1 1-8.002 0 4.001 4.001 0 0 1 8.002 0Z"/><path fill="#C7E6EF" d="M41.904 63.988a3.98 3.98 0 1 1-7.96 0 3.98 3.98 0 0 1 7.96 0Z"/><path fill="#C8E6EF" d="M41.882 63.988a3.958 3.958 0 1 1-7.917 0 3.958 3.958 0 0 1 7.917 0Z"/><path fill="#C9E7F0" d="M41.861 63.988a3.937 3.937 0 1 1-7.874 0 3.937 3.937 0 0 1 7.874 0Z"/><path fill="#CAE7F0" d="M41.84 63.988a3.916 3.916 0 1 1-7.832 0 3.916 3.916 0 0 1 7.831 0Z"/><path fill="#CBE7F0" d="M41.818 63.988a3.895 3.895 0 1 1-7.79 0 3.895 3.895 0 0 1 7.79 0Z"/><path fill="#CCE8F0" d="M41.797 63.988a3.873 3.873 0 1 1-7.745 0 3.873 3.873 0 0 1 7.745 0Z"/><path fill="#CEE9F0" d="M41.776 63.988a3.851 3.851 0 1 1-7.703 0 3.851 3.851 0 0 1 7.703 0Z"/><path fill="#CEE9F0" d="M41.754 63.988a3.83 3.83 0 1 1-7.66 0 3.83 3.83 0 0 1 7.66 0Z"/><path fill="#CEE8F1" d="M41.733 63.988a3.809 3.809 0 1 1-7.618 0 3.809 3.809 0 0 1 7.617 0Z"/><path fill="#D0EAF1" d="M41.711 63.988a3.788 3.788 0 1 1-7.575 0 3.788 3.788 0 0 1 7.575 0Z"/><path fill="#D1E9F1" d="M41.689 63.988a3.766 3.766 0 1 1-7.531 0 3.766 3.766 0 0 1 7.531 0Z"/><path fill="#D2EAF1" d="M41.669 63.988a3.745 3.745 0 1 1-7.49-.001 3.745 3.745 0 0 1 7.49 0Z"/><path fill="#D3EAF1" d="M41.646 63.988a3.723 3.723 0 1 1-7.446 0 3.723 3.723 0 0 1 7.446 0Z"/><path fill="#D3EAF1" d="M41.625 63.988a3.702 3.702 0 1 1-7.403 0 3.702 3.702 0 0 1 7.403 0Z"/><path fill="#D5EBF1" d="M41.597 63.988a3.673 3.673 0 1 1-7.346 0 3.673 3.673 0 0 1 7.346 0Z"/><path fill="#D9ECF2" d="M41.568 63.988a3.644 3.644 0 1 1-7.289 0 3.644 3.644 0 0 1 7.29 0Z"/><path fill="#DAEDF3" d="M41.54 63.988a3.617 3.617 0 1 1-7.233 0 3.617 3.617 0 0 1 7.233 0Z"/><path fill="#DBEEF4" d="M41.511 63.988a3.588 3.588 0 1 1-7.175 0 3.588 3.588 0 0 1 7.175 0Z"/><path fill="#DDEFF5" d="M41.483 63.988a3.56 3.56 0 1 1-7.118 0 3.56 3.56 0 0 1 7.118 0Z"/><path fill="#DFF0F6" d="M41.455 63.988a3.53 3.53 0 1 1-7.062 0 3.53 3.53 0 0 1 7.062 0Z"/><path fill="#E0F1F6" d="M41.426 63.988a3.502 3.502 0 1 1-7.004 0 3.502 3.502 0 0 1 7.004 0Z"/><path fill="#E2F1F6" d="M41.398 63.988a3.474 3.474 0 1 1-6.95 0 3.474 3.474 0 0 1 6.95 0Z"/><path fill="#E4F2F7" d="M41.37 63.988a3.446 3.446 0 1 1-6.892 0 3.446 3.446 0 0 1 6.891 0Z"/><path fill="#E6F3F6" d="M41.34 63.988a3.417 3.417 0 1 1-6.834 0 3.417 3.417 0 0 1 6.835 0Z"/><path fill="#E8F4F7" d="M41.312 63.988a3.389 3.389 0 1 1-6.777 0 3.389 3.389 0 0 1 6.777 0Z"/><path fill="#E8F4F7" d="M41.284 63.988a3.36 3.36 0 1 1-6.72 0 3.36 3.36 0 0 1 6.72 0Z"/><path fill="#EAF4F7" d="M41.256 63.988a3.332 3.332 0 1 1-6.664 0 3.332 3.332 0 0 1 6.664 0Z"/><path fill="#ECF5F8" d="M41.228 63.988a3.304 3.304 0 1 1-6.608 0 3.304 3.304 0 0 1 6.608 0Z"/><path fill="#EDF5F7" d="M41.2 63.988a3.275 3.275 0 1 1-6.551 0 3.275 3.275 0 0 1 6.55 0Z"/><path fill="#EEF6F8" d="M41.17 63.988a3.247 3.247 0 1 1-6.493 0 3.247 3.247 0 0 1 6.494 0Z"/><path fill="#EFF6F8" d="M41.143 63.988a3.218 3.218 0 1 1-6.437 0 3.218 3.218 0 0 1 6.437 0Z"/><path fill="#F0F7F8" d="M41.114 63.988a3.19 3.19 0 1 1-6.38 0 3.19 3.19 0 0 1 6.38 0Z"/><path fill="#F1F7F8" d="M41.085 63.988a3.162 3.162 0 1 1-6.323 0 3.162 3.162 0 0 1 6.323 0Z"/><path fill="#F2F7F9" d="M41.057 63.988a3.133 3.133 0 1 1-6.266 0 3.133 3.133 0 0 1 6.266 0Z"/><path fill="#F3F8F9" d="M41.028 63.988a3.105 3.105 0 1 1-6.21 0 3.105 3.105 0 0 1 6.21 0Z"/><path fill="#F4F8F9" d="M41 63.987a3.077 3.077 0 1 1-6.154 0 3.077 3.077 0 0 1 6.154 0Z"/><path fill="#F5F9F9" d="M40.972 63.988a3.048 3.048 0 1 1-6.096 0 3.048 3.048 0 0 1 6.096 0Z"/><path fill="#F6F9FA" d="M40.943 63.988a3.02 3.02 0 1 1-6.039 0 3.02 3.02 0 0 1 6.04 0Z"/><path fill="#F6F9FA" d="M40.915 63.988a2.991 2.991 0 1 1-5.983 0 2.991 2.991 0 0 1 5.983 0Z"/><path fill="#F7FAFB" d="M40.887 63.988a2.963 2.963 0 1 1-5.926 0 2.963 2.963 0 0 1 5.926 0Z"/><path fill="#F8FAFB" d="M40.859 63.988a2.935 2.935 0 1 1-5.87 0 2.935 2.935 0 0 1 5.87 0Z"/><path fill="#F9FBFB" d="M40.83 63.988a2.906 2.906 0 1 1-5.812 0 2.906 2.906 0 0 1 5.812 0Z"/><path fill="#FAFBFC" d="M40.801 63.988a2.878 2.878 0 1 1-5.755 0 2.878 2.878 0 0 1 5.755 0Z"/><path fill="#FAFBFC" d="M40.773 63.988a2.85 2.85 0 1 1-5.7 0 2.85 2.85 0 0 1 5.7 0Z"/><path fill="#FAFCFC" d="M40.744 63.988a2.82 2.82 0 1 1-5.641 0 2.82 2.82 0 0 1 5.641 0Z"/><path fill="#FBFCFD" d="M40.716 63.988a2.792 2.792 0 1 1-5.585 0 2.792 2.792 0 0 1 5.585 0Z"/><path fill="#FBFCFD" d="M40.688 63.988a2.764 2.764 0 1 1-5.529 0 2.764 2.764 0 0 1 5.529 0Z"/><path fill="#FCFDFD" d="M40.66 63.988a2.736 2.736 0 1 1-5.472-.001 2.736 2.736 0 0 1 5.471 0Z"/><path fill="#FCFDFD" d="M40.63 63.988a2.707 2.707 0 1 1-5.413 0 2.707 2.707 0 0 1 5.414 0Z"/><path fill="#FDFDFD" d="M40.603 63.988a2.679 2.679 0 1 1-5.358 0 2.679 2.679 0 0 1 5.358 0Z"/><path fill="#FDFDFD" d="M40.575 63.988a2.65 2.65 0 1 1-5.302 0 2.65 2.65 0 0 1 5.302 0Z"/><path fill="#FDFDFD" d="M40.546 63.988a2.622 2.622 0 1 1-5.244 0 2.622 2.622 0 0 1 5.244 0Z"/><path fill="#FDFEFE" d="M40.518 63.988a2.594 2.594 0 1 1-5.188 0 2.594 2.594 0 0 1 5.188 0Z"/><path fill="#FDFEFE" d="M40.489 63.988a2.566 2.566 0 1 1-5.132-.001 2.566 2.566 0 0 1 5.132 0Z"/><path fill="#FDFEFE" d="M40.46 63.988a2.537 2.537 0 1 1-5.073 0 2.537 2.537 0 0 1 5.074 0Z"/><path fill="#FDFEFE" d="M40.432 63.988a2.508 2.508 0 1 1-5.016 0 2.508 2.508 0 0 1 5.016 0Z"/><path fill="#FEFEFE" d="M40.403 63.988a2.48 2.48 0 1 1-4.96 0 2.48 2.48 0 0 1 4.96 0Z"/><path fill="#FEFEFE" d="M40.375 63.988a2.452 2.452 0 1 1-4.904 0 2.452 2.452 0 0 1 4.904 0Z"/><path fill="#FEFEFE" d="M40.347 63.987a2.424 2.424 0 1 1-4.847 0 2.424 2.424 0 0 1 4.847 0Z"/><path fill="#FEFEFE" d="M40.319 63.987a2.395 2.395 0 1 1-4.79.001 2.395 2.395 0 0 1 4.79 0Z"/><path fill="#FEFEFE" d="M40.29 63.988a2.367 2.367 0 1 1-4.734-.001 2.367 2.367 0 0 1 4.734 0Z"/><path fill="#FEFEFE" d="M40.262 63.988a2.338 2.338 0 1 1-4.677 0 2.338 2.338 0 0 1 4.677 0Z"/><path fill="#FEFEFE" d="M40.233 63.988a2.31 2.31 0 1 1-4.62 0 2.31 2.31 0 0 1 4.62 0Z"/><path fill="#FEFEFE" d="M40.204 63.988a2.281 2.281 0 1 1-4.562 0 2.281 2.281 0 0 1 4.562 0Z"/></g><path fill="#004DA1" fill-rule="evenodd" d="M37.923 69.747a5.766 5.766 0 0 1-5.76-5.76 5.766 5.766 0 0 1 5.76-5.76 5.767 5.767 0 0 1 5.76 5.76 5.767 5.767 0 0 1-5.76 5.76Zm0-11.78c-3.32 0-6.02 2.701-6.02 6.02 0 3.32 2.7 6.021 6.02 6.021 3.32 0 6.02-2.7 6.02-6.02 0-3.32-2.7-6.02-6.02-6.02Z" clip-rule="evenodd"/><path fill="#000003" fill-rule="evenodd" d="M37.937 65.618h2.131v-.083h7.635v-2.071l.236-.209.014-.083h-.139l-.347-.125-.167-.223.028-.125s-.111-.055-.153-.069c-.042-.014-.111.166-.111.166h-6.94l.209-.305h-.195c-.084 0-.334-.111-.334-.111v-.181h.07v-.194l.228-.141.022-.124-.362-.056s-.07-.028-.11-.097a.9.9 0 0 1-.048-.223c.084-.069-.01-.08-.015-.119-.013-.108-.021-.2-.021-.2l-.028-.042c-.027-.041-.167.014-.167.014v.167h-2.84v-.167s-.14-.055-.168-.014l-.027.042-.017.169c-.004.035-.066.03-.051.063a.359.359 0 0 1-.015.31c-.042.07-.112.097-.112.097l-.361.056.065.145.184.141.001.172h.07v.182s-.25.11-.334.11h-.195l.209.306h-7.07s-.07-.18-.112-.166c-.041.014-.152.07-.152.07l.028.124-.168.223-.347.125h-.139l.014.083.236.209v2.07h7.766v.084H37.937Z" clip-rule="evenodd"/><path fill="#9F9FA0" fill-rule="evenodd" d="M39.64 61.907s.069-.042.125-.07c.055-.027-.183-.092-.183-.092-.098-.055-.193-.428-.193-.428h-2.911s-.099.367-.196.423c0 0-.292.07-.236.097.056.028.125.07.125.07h3.468ZM35.893 62.91v.359h-7.794l-.055-.056.334-.04.196-.263h7.319Z" clip-rule="evenodd"/><path fill="#5A5D60" fill-rule="evenodd" d="M28.184 63.38h7.71v-.055h-7.71v.055Z" clip-rule="evenodd"/><path fill="#9F9FA0" fill-rule="evenodd" d="M39.985 62.91v.359h7.659l.056-.056-.236-.049-.236-.254h-7.243Z" clip-rule="evenodd"/><path fill="#5A5D60" fill-rule="evenodd" d="M39.985 63.38h7.576v-.055h-7.576v.055Z" clip-rule="evenodd"/><path fill="#E9F5FC" fill-rule="evenodd" d="M28.197 64.701h7.696v-1.223h-7.696v1.223ZM39.985 64.701h7.566v-1.223h-7.566v1.223ZM28.197 65.41h7.696v-.64h-7.696v.64ZM39.985 65.41h7.566v-.64h-7.566v.64ZM36.2 62.365h3.468v-.375h-3.469v.375Z" clip-rule="evenodd"/><path fill="#E9F3F3" fill-rule="evenodd" d="M35.948 62.797h3.996v-.126h-3.996v.126Z" clip-rule="evenodd"/><path fill="#E9F5FC" fill-rule="evenodd" d="M35.948 64.686h.71v-1.819h-.71v1.819ZM39.23 64.686h.71v-1.819h-.71v1.819ZM36.727 62.867v1.819l.131-.003.06-.045.142-.004.086-.037.002-.084.075-.019.082.054.002.05h1.27l.002-.05.082-.054.075.02.002.083.086.037.142.004.06.045.13.003v-1.819h-2.428ZM35.948 65.535h.696v-.749h-.696v.749ZM39.248 65.535h.695v-.749h-.695v.749Z" clip-rule="evenodd"/><path fill="#9F9FA0" fill-rule="evenodd" d="m36.143 62.49-.305.084h4.215l-.256-.083h-3.654ZM38.885 64.723l-.201-.046h-1.497s-.177.043-.164.055c.013.013.133.044.149.048.015.004 1.522 0 1.522 0l.191-.057Z" clip-rule="evenodd"/><path fill="#E9F5FC" fill-rule="evenodd" d="M36.745 64.783h.153l.168.177v.56h-.325l.004-.737ZM39.152 64.783h-.154l-.168.177v.56h.325l-.003-.737ZM37.308 64.982l-.123.098v.44h.338v-.48l-.078-.058h-.137ZM38.574 64.982l.123.098v.44h-.339v-.48l.079-.058h.137ZM37.798 64.98l-.13.087v.45l.53.003v-.45l-.1-.094-.3.004Z" clip-rule="evenodd"/><path fill="#000003" fill-rule="evenodd" d="M28.36 63.79h.11v-.185h-.11v.186ZM28.743 63.79h.109v-.185h-.109v.186ZM29.126 63.79h.109v-.185h-.109v.186ZM30.66 63.79h.109v-.185h-.109v.186ZM31.044 63.79h.108v-.185h-.108v.186ZM31.427 63.79h.108v-.185h-.108v.186ZM31.81 63.79h.11v-.185h-.11v.186ZM32.194 63.79h.109v-.185h-.109v.186ZM32.577 63.79h.109v-.185h-.109v.186ZM32.96 63.79h.108v-.185h-.108v.186ZM33.344 63.79h.108v-.185h-.108v.186ZM33.727 63.79h.108v-.185h-.108v.186ZM34.11 63.79h.109v-.185h-.109v.186ZM34.493 63.79h.109v-.185h-.109v.186ZM34.877 63.79h.108v-.185h-.108v.186ZM35.26 63.79h.11v-.185h-.11v.186ZM35.644 63.79h.108v-.185h-.108v.186ZM29.51 63.79h.108v-.185h-.108v.186ZM29.893 63.79H30v-.185h-.108v.186ZM30.276 63.79h.11v-.185h-.11v.186ZM28.36 64.192h.11v-.186h-.11v.186ZM28.743 64.192h.109v-.186h-.109v.186ZM29.126 64.192h.109v-.186h-.109v.186ZM30.66 64.192h.109v-.186h-.109v.186ZM31.044 64.192h.108v-.186h-.108v.186ZM31.427 64.192h.108v-.186h-.108v.186ZM31.81 64.192h.11v-.186h-.11v.186ZM32.194 64.192h.109v-.186h-.109v.186ZM32.577 64.192h.109v-.186h-.109v.186ZM32.96 64.192h.108v-.186h-.108v.186ZM33.344 64.192h.108v-.186h-.108v.186ZM33.727 64.192h.108v-.186h-.108v.186ZM34.11 64.192h.109v-.186h-.109v.186ZM34.493 64.192h.109v-.186h-.109v.186ZM34.877 64.192h.108v-.186h-.108v.186ZM35.26 64.192h.11v-.186h-.11v.186ZM35.644 64.192h.108v-.186h-.108v.186ZM29.51 64.192h.108v-.186h-.108v.186ZM29.893 64.192H30v-.186h-.108v.186ZM30.276 64.192h.11v-.186h-.11v.186ZM28.36 64.594h.11v-.186h-.11v.186ZM28.743 64.594h.109v-.186h-.109v.186ZM29.126 64.594h.109v-.186h-.109v.186ZM30.66 64.594h.109v-.186h-.109v.186ZM31.044 64.594h.108v-.186h-.108v.186ZM31.427 64.594h.108v-.186h-.108v.186ZM31.81 64.594h.11v-.186h-.11v.186ZM32.194 64.594h.109v-.186h-.109v.186ZM32.577 64.594h.109v-.186h-.109v.186ZM32.96 64.594h.108v-.186h-.108v.186ZM33.344 64.594h.108v-.186h-.108v.186ZM33.727 64.594h.108v-.186h-.108v.186ZM34.11 64.594h.109v-.186h-.109v.186ZM34.493 64.594h.109v-.186h-.109v.186ZM34.877 64.594h.108v-.186h-.108v.186ZM35.26 64.594h.11v-.186h-.11v.186ZM35.644 64.594h.108v-.186h-.108v.186ZM29.51 64.594h.108v-.186h-.108v.186ZM29.893 64.594H30v-.186h-.108v.186ZM30.276 64.594h.11v-.186h-.11v.186ZM28.294 65.196h.184V65h-.184v.195ZM28.676 65.196h.185V65h-.185v.195ZM29.057 65.196h.184V65h-.184v.195ZM29.44 65.196h.184V65h-.184v.195ZM29.82 65.196h.185V65h-.185v.195ZM30.202 65.196h.185V65h-.185v.195ZM30.585 65.196h.184V65h-.184v.195ZM30.967 65.196h.184V65h-.184v.195ZM31.349 65.196h.184V65h-.184v.195ZM31.73 65.196h.185V65h-.184v.195ZM32.112 65.196h.185V65h-.185v.195ZM32.494 65.196h.185V65h-.185v.195ZM32.876 65.196h.185V65h-.185v.195ZM33.258 65.196h.185V65h-.185v.195ZM33.64 65.196h.184V65h-.184v.195ZM34.022 65.196h.184V65h-.184v.195ZM34.403 65.196h.185V65h-.185v.195ZM34.785 65.196h.185V65h-.185v.195ZM35.168 65.196h.184V65h-.184v.195ZM35.55 65.196h.184V65h-.184v.195ZM40.107 63.79h.108v-.185h-.108v.186ZM40.488 63.79h.108v-.185h-.108v.186ZM40.868 63.79h.108v-.185h-.108v.186ZM42.39 63.79h.108v-.185h-.108v.186ZM42.77 63.79h.107v-.185h-.108v.186ZM43.151 63.79h.108v-.185h-.108v.186ZM43.531 63.79h.108v-.185h-.108v.186ZM43.911 63.79h.108v-.185h-.108v.186ZM44.292 63.79h.108v-.185h-.108v.186ZM44.673 63.79h.108v-.185h-.108v.186ZM45.053 63.79h.107v-.185h-.107v.186ZM45.433 63.79h.107v-.185h-.107v.186ZM45.813 63.79h.108v-.185h-.108v.186ZM46.194 63.79h.108v-.185h-.108v.186ZM46.574 63.79h.108v-.185h-.108v.186ZM46.955 63.79h.108v-.185h-.108v.186ZM47.335 63.79h.107v-.185h-.107v.186ZM41.249 63.79h.108v-.185h-.108v.186ZM41.629 63.79h.108v-.185h-.108v.186ZM42.01 63.79h.107v-.185h-.107v.186ZM40.107 64.192h.108v-.186h-.108v.186ZM40.488 64.192h.108v-.186h-.108v.186ZM40.868 64.192h.108v-.186h-.108v.186ZM42.39 64.192h.108v-.186h-.108v.186ZM42.77 64.192h.107v-.186h-.108v.186ZM43.151 64.192h.108v-.186h-.108v.186ZM43.531 64.192h.108v-.186h-.108v.186ZM43.911 64.192h.108v-.186h-.108v.186ZM44.292 64.192h.108v-.186h-.108v.186ZM44.673 64.192h.108v-.186h-.108v.186ZM45.053 64.192h.107v-.186h-.107v.186ZM45.433 64.192h.107v-.186h-.107v.186ZM45.813 64.192h.108v-.186h-.108v.186ZM46.194 64.192h.108v-.186h-.108v.186ZM46.574 64.192h.108v-.186h-.108v.186ZM46.955 64.192h.108v-.186h-.108v.186ZM47.335 64.192h.107v-.186h-.107v.186ZM41.249 64.192h.108v-.186h-.108v.186ZM41.629 64.192h.108v-.186h-.108v.186ZM42.01 64.192h.107v-.186h-.107v.186ZM40.107 64.594h.108v-.186h-.108v.186ZM40.488 64.594h.108v-.186h-.108v.186ZM40.868 64.594h.108v-.186h-.108v.186ZM42.39 64.594h.108v-.186h-.108v.186ZM42.77 64.594h.107v-.186h-.108v.186ZM43.151 64.594h.108v-.186h-.108v.186ZM43.531 64.594h.108v-.186h-.108v.186ZM43.911 64.594h.108v-.186h-.108v.186ZM44.292 64.594h.108v-.186h-.108v.186ZM44.673 64.594h.108v-.186h-.108v.186ZM45.053 64.594h.107v-.186h-.107v.186ZM45.433 64.594h.107v-.186h-.107v.186ZM45.813 64.594h.108v-.186h-.108v.186ZM46.194 64.594h.108v-.186h-.108v.186ZM46.574 64.594h.108v-.186h-.108v.186ZM46.955 64.594h.108v-.186h-.108v.186ZM47.335 64.594h.107v-.186h-.107v.186ZM41.249 64.594h.108v-.186h-.108v.186ZM41.629 64.594h.108v-.186h-.108v.186ZM42.01 64.594h.107v-.186h-.107v.186ZM40.106 65.196h.183V65h-.183v.195ZM40.42 65.196h.183V65h-.183v.195ZM40.799 65.196h.183V65h-.183v.195ZM41.179 65.196h.183V65h-.183v.195ZM41.557 65.196h.183V65h-.183v.195ZM41.937 65.196h.183V65h-.183v.195ZM42.315 65.196h.183V65h-.183v.195ZM42.694 65.196h.183V65h-.183v.195ZM43.073 65.196h.183V65h-.183v.195ZM43.452 65.196h.183V65h-.183v.195ZM43.831 65.196h.183V65h-.183v.195ZM44.21 65.196h.183V65h-.183v.195ZM44.589 65.196h.183V65h-.183v.195ZM44.968 65.196h.183V65h-.183v.195ZM45.347 65.196h.183V65h-.183v.195ZM45.726 65.196h.183V65h-.183v.195ZM46.105 65.196h.183V65h-.183v.195ZM46.483 65.196h.184V65h-.184v.195ZM46.862 65.196h.183V65h-.183v.195ZM47.241 65.196h.183V65h-.183v.195ZM36.277 62.226h.3v-.144h-.3v.144ZM36.707 62.243h.3v-.16h-.3v.16ZM37.155 62.243h.3v-.16h-.3v.16ZM38.296 62.243h.299v-.16h-.3v.16ZM38.726 62.243h.299v-.16h-.3v.16ZM39.175 62.226h.3v-.144h-.3v.144ZM37.642 62.243h.467v-.16h-.467v.16ZM36.155 63.192h.178v-.252h-.178v.252ZM36.155 63.644h.178v-.252h-.178v.252ZM36.155 64.096h.178v-.252h-.178v.252ZM36.155 64.548h.178v-.253h-.178v.253ZM36.155 65.118h.178v-.252h-.178v.252ZM39.445 65.118h.178v-.252h-.178v.252ZM39.45 63.192h.178v-.252h-.178v.252ZM39.45 63.644h.178v-.252h-.178v.252ZM39.45 64.096h.178v-.252h-.178v.252ZM39.45 64.548h.178v-.253h-.178v.253ZM36.975 63.774h.15v-.215h-.15v.215ZM37.357 63.774h.15v-.215h-.15v.215ZM36.975 64.195h.15v-.215h-.15v.215ZM37.357 64.195h.15v-.215h-.15v.215ZM38.355 63.774h.15v-.215h-.15v.215ZM38.738 63.774h.15v-.215h-.15v.215ZM38.355 64.195h.15v-.215h-.15v.215ZM38.738 64.195h.15v-.215h-.15v.215ZM37.74 63.779h.393v-.216h-.393v.215ZM37.74 64.19h.393v-.215h-.393v.215ZM38.767 63.282h.215v-.214S38.958 63 38.884 63c-.108 0-.117.086-.117.086v.195ZM38.355 63.283h.169v-.202s-.02-.076-.077-.08c-.088-.005-.092.086-.092.086v.196ZM37.1 63.282h-.214v-.214s.024-.067.098-.067c.107 0 .117.086.117.086v.195ZM37.511 63.283h-.168v-.202s.019-.076.076-.08c.089-.005.092.086.092.086v.196ZM38.147 63.283h-.422v-.21s.047-.08.192-.083c.222-.006.23.088.23.088v.205Z" clip-rule="evenodd"/><path fill="#231916" fill-rule="evenodd" d="M36.146 66.542c-.021.16-.126.235-.317.225h-.019v.158h.295v.87h.192v-1.267h-.148l-.003.014ZM37.507 66.949c-.004.173-.075.26-.216.264h-.012c-.074 0-.13-.02-.167-.057-.04-.04-.059-.106-.056-.193.003-.164.077-.248.223-.257.145.005.22.084.228.243Zm-.23-.421c-.26.014-.4.162-.414.442.01.265.145.405.402.414.116-.004.204-.038.261-.104-.042.255-.128.385-.255.385h-.014c-.118 0-.182-.06-.195-.183l-.002-.016h-.184l.002.019c.013.21.141.32.379.33.293-.01.451-.245.47-.702-.01-.384-.16-.58-.45-.585ZM38.446 66.966a.402.402 0 0 0-.21.057l.04-.283h.523v-.185h-.67l-.093.698.157.008.006-.006a.288.288 0 0 1 .218-.11c.16.012.243.096.252.254-.018.17-.095.257-.237.265-.15 0-.233-.064-.25-.197l-.002-.015h-.192l.003.02c.023.218.163.334.413.344h.001c.288-.01.445-.156.469-.437-.019-.25-.162-.39-.428-.413ZM39.847 67.128c.085-.052.13-.14.134-.263-.015-.214-.147-.328-.395-.337-.27.005-.41.146-.414.421v.017h.185v-.016c.005-.164.078-.244.223-.244.132.004.2.062.209.174-.005.122-.075.182-.216.182h-.1v.164h.093c.174 0 .26.069.264.208-.013.146-.095.22-.25.224h-.012c-.151 0-.227-.084-.231-.257v-.017h-.193l.001.017c.005.194.07.32.195.372a.716.716 0 0 0 .232.043h.001c.288-.01.444-.144.463-.402-.005-.142-.068-.238-.189-.286Z" clip-rule="evenodd"/><path fill="#F5F5F5" fill-rule="evenodd" d="M30.082 60.628a.492.492 0 0 0 .022.35c.053.127.112.36.114.37l.004.016-.016.004c-.006.002-.146.04-.142.153.003.065.05.108.15.139.005 0 .065.004.123.004a.303.303 0 0 0 .106-.01l.005-.003c.03-.015.091-.045.107-.104.012-.044-.003-.096-.043-.155-.113-.17-.294-.422-.296-.425l-.002-.003c-.024-.064-.05-.146-.033-.17l.007-.013c.01-.02.024-.045.05-.045.014 0 .03.009.044.027.052.059.25.278.314.328l.035.029c.039.033.075.065.115.065a.092.092 0 0 0 .043-.013.14.14 0 0 0 .064-.09.164.164 0 0 0-.01-.12 1.785 1.785 0 0 0-.197-.224l-.006-.006a.627.627 0 0 0-.16-.12.151.151 0 0 0 .008.026c.005.012.002.019 0 .023-.004.004-.01.01-.021.01a.37.37 0 0 1-.102-.036l-.011-.005c-.018-.008-.11-.046-.187-.046-.047 0-.074.014-.085.044ZM29.797 59.081c.075.05.12.097.134.144.002.004.167.444.263.614.116.205.282.449.33.467a.182.182 0 0 1 .045.025l.008.006a.118.118 0 0 0 .017-.024c.026-.041.011-.237.003-.343a1.09 1.09 0 0 1-.005-.085c0-.056.036-.194.05-.246l.003-.014c.008-.031.045-.112.047-.116l.002-.005.006-.003c.001 0 .028-.012.028-.052 0-.047-.041-.097-.06-.097h-.02l-.046-.002c-.07 0-.088.014-.092.023a.205.205 0 0 1-.014.025c-.022.034-.049.077-.037.215a.678.678 0 0 1-.031.293l-.017.042-.014-.043c-.008-.026-.206-.64-.213-.694a.697.697 0 0 0-.078-.214c-.022-.05-.041-.082-.09-.074-.038.007-.082-.002-.124-.012a.327.327 0 0 0-.07-.011c-.018 0-.025.006-.029.01a.186.186 0 0 0-.033.102v.005l-.003.004s-.012.026.04.06ZM30.753 60.094l.032.064a.298.298 0 0 0 .094.019c.037 0 .09-.062.126-.123.02-.035.034-.086.018-.107l-.017-.027c-.02-.034-.046-.077-.08-.071-.067.008-.129.045-.129.058 0 .03-.035.155-.044.187ZM31.315 60.758a.163.163 0 0 0-.011.054s.003.003.014.004l.07.013c.026.005.052.01.063.01l.047.006c.128.02.2.026.212.014l.006-.005c.018-.018.052-.051.049-.074 0-.003-.002-.013-.02-.023a.503.503 0 0 1-.073-.051c-.041-.033-.08-.064-.125-.068-.143-.01-.195.02-.213.046-.02.03-.004.066-.003.067l-.016.007ZM31.184 60.192l.002.015a.76.76 0 0 0 .021.118c.008.02.049.047.075.058.015.007.032-.006.053-.037.025-.036.04-.052.04-.052.007-.008.031-.036.056-.036.02.002.074.014.074.101 0 .053.017.069.024.076.006.006.058.04.077.052.006.003.025.01.053.01a.215.215 0 0 0 .04-.005l.035-.005c.022-.003.022-.003.03-.017.01-.017.03-.038.05-.062.016-.016.032-.033.045-.05a.254.254 0 0 0 .04-.147c-.003-.031-.024-.056-.044-.08a.261.261 0 0 1-.024-.03c-.013-.018-.047-.02-.061-.02h-.01l-.054.057c-.01.008-.049.039-.075.039a.027.027 0 0 1-.023-.012.63.63 0 0 1-.056-.204.524.524 0 0 0-.082-.186c-.02-.024-.03-.024-.055-.024-.013-.001-.028-.001-.049-.006-.036-.006-.063.016-.09.038-.01.009-.02.017-.03.023a.23.23 0 0 0-.065.09c-.004.02-.002.258.003.296ZM32.223 58.132l-.002.007-.01.007a.019.019 0 0 1-.008.001c-.014 0-.028-.013-.057-.042a.575.575 0 0 0-.072-.064c-.063-.044-.134-.062-.134-.062l-.015-.004.002-.014c.005-.03.004-.116.004-.117v-.004l.046-.072.014.018c.11.138.24.31.232.346Zm.028.107c.018.03.041.144.006.166a.132.132 0 0 1-.06.013c-.021 0-.037-.006-.045-.016a.03.03 0 0 1-.005-.027.243.243 0 0 0 .017-.08c-.023-.011-.026-.05-.026-.063v-.013l.013-.003c.001 0 .018-.004.04-.004.037 0 .053.014.06.027Zm-.083.297a.252.252 0 0 0-.08.066c-.013.022-.034.057-.061.022-.026-.036-.053-.066-.084-.12-.03-.052-.066-.127-.083-.144-.018-.018-.04-.044-.013-.084.025-.04.03-.08.03-.097s.04-.044.04-.044.092.022.097.053c.004.03.018.106.03.145.014.04.067.15.102.154.035.005.057.027.022.049Zm.166-.72c.01-.008.022-.077.024-.148l.001-.016h.016c.01 0 .097.002.108.053l.003.01c.014.066.027.127.014.154-.037.074-.072.111-.102.111a.03.03 0 0 1-.01-.001l-.023-.004c-.021-.002-.05-.007-.05-.047 0-.009-.002-.02-.004-.03-.005-.029-.011-.068.023-.082Zm.198.22c.023.01.032.027.035.04.01.036-.022.077-.026.082l-.007.009-.07-.029-.053-.118.027.002c.011 0 .072.005.094.015Zm1.152.585c-.006-.048-.024-.123-.043-.139a5.17 5.17 0 0 1-.314-.296 14.25 14.25 0 0 1-.52-.604c-.062-.08-.194-.275-.3-.43-.076-.111-.14-.207-.153-.221-.073-.083-.096-.088-.1-.088-.025.005-.09.042-.097.064a.794.794 0 0 1-.072.12c-.032.048-.071.109-.078.127l-.004.013c-.015.046-.033.103-.07.103a.04.04 0 0 1-.02-.006.135.135 0 0 0-.031-.014c-.02-.008-.047-.018-.044-.048l-.01-.008c-.037-.028-.07-.056-.069-.082.003-.043.058-.08.098-.106a.239.239 0 0 0 .025-.018c.004-.01.012-.014.02-.014.013 0 .029 0 .035.109.051-.085.099-.167.101-.182l.005-.022c.004-.023.014-.069 0-.087-.003-.002-.008-.009-.025-.009l-.023.003c-.107.025-.184.087-.195.114-.012.029-.15.204-.218.204h-.007c-.063-.011-.078-.08-.079-.084l-.001-.005.003-.005c.004-.009.106-.21.138-.25a.682.682 0 0 1 .034-.038c.02-.02.043-.046.041-.06v-.013c-.005-.03-.009-.052-.027-.057a.42.42 0 0 0-.084-.011c-.012 0-.018.002-.02.002l-.017.006c-.027.007-.046.014-.048.033-.005.048-.292.623-.31.654-.025.042-.1.078-.122.088-.013.027-.027.07-.02.085.013.02.038.054.08.058.039.003.09-.028.12-.058.01-.009.03-.034.053-.061.091-.111.116-.136.135-.136.006 0 .024-.004.042-.008.039-.008.082-.016.1-.009.023.01.088.066.102.078l.003.003.001.004a.97.97 0 0 0 .068.171.368.368 0 0 1 .047.098l.001.004-.001.004c-.015.061-.049.23-.036.273.02.065-.035.132-.058.14a.051.051 0 0 1-.013.001c-.022 0-.062-.009-.067-.01l-.005-.003a.196.196 0 0 0-.04-.022.987.987 0 0 0-.032.201c.005.044.079.308.117.368l.004.007c.16.247.235.299.271.299h.007c.078-.02.119-.068.12-.08a.023.023 0 0 1 .004-.02c.007-.008.02-.012.04-.012h.013l.008.002.005.007c.005.01.02.027.03.027a.3.3 0 0 0 .122-.09l.024-.034a.269.269 0 0 0 .048-.08c0-.012.003-.032.007-.055a.322.322 0 0 0 .006-.07s-.012-.08.007-.103a.02.02 0 0 1 .017-.009h.005c.03.008.078.098.086.116.013.03.039.067.057.082l.011.009c.017.014.032.027.063.027.058 0 .062-.011.062-.023s.002-.023.004-.034c.003-.027.005-.044-.008-.056-.025-.026-.049-.075-.064-.104l-.005-.01c-.021-.043.049-.169.05-.17.021-.04.044-.075.044-.075l.007-.012.013.005c.01.005.03.012.04.012a.656.656 0 0 0 .013-.116c-.003-.01-.018-.019-.024-.019l-.018.004c-.025.007-.06.014-.076.002-.013-.01-.032-.056-.082-.189l-.038-.095a.286.286 0 0 1-.016-.056c-.006-.029-.009-.039-.034-.044a1.638 1.638 0 0 0-.096-.023l-.008-.001-.004-.008a2.657 2.657 0 0 0-.096-.217l-.007-.012a.101.101 0 0 0-.02-.027.105.105 0 0 1-.019.008c-.008.003-.032.011-.034.017l.003.01c.01.046.037.165-.024.242 0 .006.018.022.027.03.015.014.03.027.033.042.011.05-.03.083-.031.085l-.007.005-.008-.002c-.002-.001-.049-.015-.078-.044-.027-.028-.049-.049-.049-.095 0-.037-.008-.067-.021-.081l-.016-.014c-.02-.016-.041-.035-.041-.06 0-.024.018-.076.037-.105.008-.012.026-.053.04-.09a.792.792 0 0 1 .044-.095c.004-.005.008-.018.013-.03.012-.035.028-.077.063-.077.006 0 .013.002.02.005a.313.313 0 0 1 .122.125c.014.026.253.417.486.717.111.144.228.28.322.389.142.164.188.22.188.245 0 .034-.059.059-.155.096-.03.012-.063.025-.07.03-.017.014-.033.048-.03.068.001.008.005.012.011.015a.224.224 0 0 0 .075.008 1.708 1.708 0 0 0 .13-.005c.03 0 .085-.013.121-.022.025-.006.036-.008.043-.008a.787.787 0 0 1 .142.02c.033 0 .067-.014.071-.021a.314.314 0 0 0 .004-.087Z" clip-rule="evenodd"/><path fill="#F5F5F5" fill-rule="evenodd" d="M31.423 57.481a.43.43 0 0 0-.067.007c-.001.019-.006.053-.021.072a.58.58 0 0 0-.031.178c0 .096-.004.165-.022.187a.076.076 0 0 0-.01.03c-.003.019-.008.043-.029.057-.002.008.019.043.027.058.011.019.018.03.02.04.004.01.049.03.079.035.014 0 .065-.055.083-.116.017-.059.057-.282.057-.339v-.027c.001-.053.003-.142-.026-.167-.007-.007-.024-.015-.06-.015ZM38.734 54.954a.747.747 0 0 1-.034-.039c-.044-.05-.11-.128-.169-.132a1.227 1.227 0 0 0-.355.021 1.28 1.28 0 0 1-.26.028c-.047.015-.089.04-.087.053.003.017 0 .032-.001.045a.092.092 0 0 0 .005.06c.01.022.012.04.014.052.002.016.003.023.02.035a.511.511 0 0 1 .04.031.09.09 0 0 0 .023.017h.014c.03 0 .08-.008.114-.027.05-.027.213-.084.279-.09.021-.002.044-.01.064-.017.02-.007.037-.013.05-.013.013 0 .02.006.024.01.009.012.005.028.004.034-.007.025-.044.127-.095.164a2.558 2.558 0 0 0-.151.183c-.131.163-.293.367-.365.416-.139.095-.175.155-.164.177l.014.033c.012.028.017.038.035.04l.02.002c.038 0 .12-.013.15-.06.02-.031.128-.127.254-.237.127-.112.272-.239.314-.291.084-.104.197-.225.198-.227a.384.384 0 0 0 .068-.104v-.017c.002-.036.006-.12-.023-.147ZM36.747 56.552c.044.054.171.122.276.131.108.011.38-.062.58-.173.185-.103.486-.247.583-.271.09-.021.202-.044.203-.044l.013.029c-.041.03-.152.118-.169.168-.014.043-.01.081.002.098.005.007.01.007.01.007.006 0 .04-.008.222-.145a2.3 2.3 0 0 1 .33-.19c.027-.01.053-.017.077-.024.039-.01.072-.02.098-.039.023-.017.04-.03.042-.04 0-.007-.005-.017-.016-.03l-.02-.023c-.033-.04-.07-.088-.149-.092a.752.752 0 0 0-.325.09c-.062.035-.25.087-.431.138a8.426 8.426 0 0 0-.161.046l-.06.014c-.09.02-.26.059-.48.13-.086.027-.186.03-.274.034a.93.93 0 0 0-.169.015c-.08.018-.172.057-.198.067-.005.018-.015.066.016.104ZM41.451 57.76l.003-.015c.03-.001.052-.025.084-.09.019-.04-.015-.09-.042-.129a.448.448 0 0 1-.026-.04c-.01-.023-.088-.037-.13-.044a.224.224 0 0 1-.054-.013c-.007-.004-.042-.006-.07-.01a.41.41 0 0 1-.148-.028.037.037 0 0 1-.017-.036c.006-.032.059-.06.08-.066.026-.007.193-.057.26-.079.069-.022.217-.077.26-.109.025-.018 0-.105-.025-.159l-.004-.01.008-.008c.098-.1.249-.265.261-.31.006-.02-.004-.043-.013-.06a.194.194 0 0 0-.095-.081c-.002 0-.007-.002-.023-.002-.103 0-.426.037-.429.037l-.006.001-.084-.056.026-.012a1.302 1.302 0 0 0 .228-.13c.044-.028.11-.07.121-.087a.073.073 0 0 0 .005-.056.08.08 0 0 0-.042-.048.04.04 0 0 0-.017-.003c-.042 0-.108.047-.158.082-.02.015-.04.029-.056.038l-.046.026c-.054.03-.129.072-.244.144a.77.77 0 0 1-.37.092l-.037-.001.213-.312.007-.001c.007-.001.177-.032.27-.035.09-.004.168-.1.189-.17.02-.064-.057-.112-.058-.112l-.036-.025c-.024-.017-.084-.002-.113.028a.803.803 0 0 1-.226.118.61.61 0 0 1-.1.01c-.047 0-.078-.008-.096-.024a.028.028 0 0 1-.01-.026c.006-.034.073-.07.197-.127l.02-.009a3.49 3.49 0 0 1 .217-.085l.037-.014a.47.47 0 0 1 .147-.017c.066 0 .138.006.172.012a.503.503 0 0 0 .26-.027c.06-.026.108-.143.132-.199a.403.403 0 0 1 .013-.03c.01-.023-.03-.076-.067-.105-.13.059-.508.227-.535.228-.024 0-.311.06-.386.077-.052.011-.19.105-.238.14-.014.007-.27.12-.33.141-.009.004-.015.013-.019.029a.246.246 0 0 0 .033.163c.002 0 .019.015.143.015.087 0 .181-.007.182-.007l.041-.003-.396.43-.313.058c-.124.05-.334.139-.356.162-.021.02-.015.097-.012.142l.002.038c.002.026.054.032.082.035a.14.14 0 0 1 .023.003l.016.001c.042 0 .123-.01.146-.024l.12-.069.009-.005.07.054.005.142c0 .014.003.014.007.014.011 0 .03-.009.051-.017a.557.557 0 0 0 .162-.109l.005-.004c.036-.032.112-.16.138-.206l.003-.007h.008a.693.693 0 0 1 .165-.02c.04 0 .094-.03.145-.062.037-.02.075-.043.108-.054.077-.028.233-.128.235-.129l.02-.013.004.024a.874.874 0 0 0 .043.163c.03-.002.14-.018.157-.023l.112-.039.074-.025.008-.002c.01 0 .033 0 .038.111v.01l-.325.21-.021.15-.008.003-.458.225a.942.942 0 0 0-.032.155c0 .017.025.035.045.05.016.013.03.023.037.036.004.004.033.013.107.013h.02l.118-.005.052.073.168.082a.463.463 0 0 0 .159.043v.016" clip-rule="evenodd"/><path fill="#F5F5F5" fill-rule="evenodd" d="M41.74 56.196c0 .018.052.07.102.11l.226.056.054.033.11-.054.006-.187.01-.004a.901.901 0 0 1 .196-.059c.022.004.127.005.218.005h.008l.124-.01c.035-.018.07-.046.066-.061-.01-.053-.034-.112-.06-.12a1.666 1.666 0 0 0-.14-.026h-.006l-.003-.004a.388.388 0 0 0-.1-.076.15.15 0 0 1-.051.015l-.007.175h-.021a.412.412 0 0 0-.16.022c-.045.026-.134.123-.135.123l-.007.008-.01-.003c-.015-.005-.089-.033-.105-.062l-.067-.122a.62.62 0 0 0-.16.025c-.012.02-.09.184-.089.216ZM42.272 58.226c-.001 0-.024-.014-.047-.014a.037.037 0 0 0-.03.013c-.026.032-.052.092-.047.123.002.009.005.01.007.012l.044.028c.068.045.196.129.256.15.027.01.171.02.393.02.238 0 .544-.012.685-.049.162-.041.25-.06.31-.06.038 0 .068.008.093.027.052.039.302.168.345.19l.144-.052.047-.148-.012-.108-.072-.018-.128.082-.166-.09.04-.01c.006-.002.613-.166.716-.325l.05-.073c.093-.136.174-.255.122-.388a.895.895 0 0 1-.05-.175c-.008-.035-.01-.044-.017-.045-.028-.006-.092-.028-.123-.038l-.06.235a.715.715 0 0 1-.324.39c-.118.062-.196.086-.264.107-.042.013-.08.025-.123.043-.11.049-.277.1-.324.092a2.723 2.723 0 0 1-.541-.263.932.932 0 0 1-.15-.134h-.097c-.01.02-.019.046-.015.06a.554.554 0 0 0 .096.114c.129.112.336.284.376.299.023.009.036.022.04.039.006.027-.017.05-.02.053l-.003.003-.004.001c-.014.004-.35.08-.496.09a2.14 2.14 0 0 1-.37-.009 1.515 1.515 0 0 1-.162-.048l-.006-.005-.113-.119ZM43.38 59.01c-.04 0-.053.066-.056.093-.004.033.02.061.048.094a.48.48 0 0 1 .043.055c.041.066.09.077.167.044.089-.038.135-.254.135-.338 0-.073-.09-.176-.09-.177a.2.2 0 0 0-.057-.031c-.013.006-.052.094-.052.143 0 .06-.086.117-.138.117ZM45.544 60.798c.056.032.22.125.266.136a.41.41 0 0 0 .093.013.238.238 0 0 0 .071-.01c.032-.01.066-.023.075-.045.005-.012.002-.027-.009-.046a.873.873 0 0 0-.3-.282 6.627 6.627 0 0 1-.678-.485c-.013-.013-.049-.04-.09-.072a3.132 3.132 0 0 1-.207-.17.914.914 0 0 1-.153-.18c-.032.023-.108.087-.095.159l.008.053c.012.084.022.157.096.209a5 5 0 0 0 .578.294c.005.001.411.17.444.246.022.053-.001.088-.017.1l-.007.004-.009-.003a.641.641 0 0 0-.152-.04h-.007c.01.032.062.088.093.119ZM46.048 60.428c0-.032.238-.024.238-.024l.317.194.018.102s-.104.014-.173-.01c-.05-.016-.026-.063-.082-.068-.07-.005-.176.038-.201.04-.072.002-.183-.042-.183-.042l.1.154.176.081s.304.006.362.003c.058-.001.194-.03.228-.079.034-.048.002-.15-.014-.189-.016-.039-.267-.22-.267-.22s-.008-.03.049-.04a.471.471 0 0 0 .206-.103c.034-.04.008-.19-.015-.212-.023-.023-.065-.006-.121.051-.056.057-.172.061-.208.047-.037-.015-.106-.147-.123-.202-.016-.054-.102-.028-.138-.018-.035.01.028.172.028.172l-.187.007.012-.048s.06-.152.081-.176c.02-.025-.055-.11-.055-.11s-.102-.027-.115.029c-.012.056-.202.204-.202.204s-.044-.006-.073-.037c-.03-.03.067-.12.088-.168.02-.049-.048-.133-.048-.133s-.161.156-.19.148c-.03-.006-.086.02-.129.06-.042.041-.031.12-.023.151.009.032.075.085.104.092.03.006.13-.013.174-.015.043 0 .066.061.111.091s.024.07.024.07l-.197-.064s-.042.041-.033.089c.009.046.06.068.09.091.029.023.132.067.132.067s.027.141.07.17c.045.031.074.006.102.005.03 0 .068-.129.067-.16ZM44.279 60.858l.004.02c.017.076.029.131.005.16-.014.016-.022.085-.019.164v.044c0 .046-.001.09.022.108.029.024.062.047.109.047a.185.185 0 0 0 .05-.008c.088-.028.493-.28.53-.33.042-.057.138-.14.19-.116.038.017.086.043.08.08-.004.032-.05.05-.092.062.072.026.182.07.206.105.01.016.054.037.096.058.066.033.142.07.179.122.036.05.065.075.087.075a.034.034 0 0 0 .017-.005c.04-.024.097-.075.096-.1v-.02c-.002-.1-.009-.154-.022-.164a1.012 1.012 0 0 1-.054-.048c-.041-.038-.098-.09-.13-.109-.049-.028-.375-.285-.401-.33a1.04 1.04 0 0 0-.216-.21 1.06 1.06 0 0 0-.188-.037.3.3 0 0 0-.017.153c.002.009.027.038.046.06.06.07.142.166.094.222a.703.703 0 0 1-.164.079c-.058.023-.13.053-.14.063a.122.122 0 0 0-.019.024c-.011.018-.025.04-.049.04-.013 0-.026-.008-.04-.022a1.036 1.036 0 0 1-.117-.213l-.002-.005a2.265 2.265 0 0 0-.018-.216c-.003-.006-.005-.014-.007-.024-.006-.026-.015-.069-.036-.077a.089.089 0 0 0-.031-.007c-.024 0-.037.012-.039.036l-.002.021c-.007.07-.024.23-.008.298ZM33.531 55.847c.01.017.031.065.031.12 0 .04.061.062.105.079.015.005.028.01.039.016.034.017.04.048.049.085.004.02.009.044.02.07a.26.26 0 0 1 .019.067l.02-.006c.014-.005.031-.022.045-.048a.47.47 0 0 0 .03-.312c-.035-.113-.287-.119-.338-.119h-.004l-.016.048ZM34.244 56.94a.302.302 0 0 0-.144-.072.757.757 0 0 1-.146-.046.35.35 0 0 0-.027.09c-.002.032.049.075.08.101a.815.815 0 0 1 .137.215c.011.028.047.094.082.157.036.066.07.127.08.153.017.041.017.066.018.095v.028c.003.03.084.114.118.149l.023.024c.013.014.048.023.095.023a.486.486 0 0 0 .06-.004c.044-.006.089-.032.099-.057a.707.707 0 0 0 .01-.279c-.006-.067-.015-.16-.037-.224a1.327 1.327 0 0 1-.062-.297.304.304 0 0 0-.07-.175c-.017-.017-.043-.008-.069.018-.014.014 0 .084.013.11a.318.318 0 0 1 .007.112v.064a.735.735 0 0 0 .014.087c.006.026.01.049.011.063l.002.014a.757.757 0 0 1 .005.18.047.047 0 0 1-.048.045.06.06 0 0 1-.022-.004c-.017-.008-.023-.033-.032-.074a.436.436 0 0 0-.034-.105c-.033-.057-.044-.176-.05-.247l-.002-.025c-.004-.035-.042-.064-.075-.09-.013-.01-.026-.02-.036-.03ZM34.335 56.212v-.035c0-.063-.04-.16-.056-.2-.008-.02-.02-.055-.031-.091-.015-.044-.032-.095-.04-.11-.008-.017-.06-.023-.077-.025a.77.77 0 0 0-.046.096c-.004.013.029.046.044.063a.295.295 0 0 1 .071.11c.01.032.011.112-.012.142-.01.014-.023.02-.037.019a.43.43 0 0 0 .006.117c.011.021.018.117.013.13.001.005.015.028.022.03l.009.004a.031.031 0 0 0 .014.003c.014 0 .038-.01.07-.031.057-.038.053-.153.05-.222ZM35.023 55.317l.022-.057c.018-.046.038-.098.052-.122a.42.42 0 0 0 .034-.162l-.004-.017c-.013-.076-.026-.118-.039-.126a.139.139 0 0 0-.063-.01.38.38 0 0 0-.047.002c-.02.002-.041.02-.072.045l-.005.005c-.019.015-.06.086-.104.16-.033.056-.07.12-.106.176a4.25 4.25 0 0 0-.223.414l-.024.065a.895.895 0 0 1-.055.136.077.077 0 0 1-.03.026c-.006.025-.01.059-.006.07.004.009.01.016.02.024.01.01.02.022.027.038.002.003.008.006.023.006a.246.246 0 0 0 .066-.013c.025-.007.055-.1.07-.146l.012-.035a1.45 1.45 0 0 1 .028-.071c.028-.069.07-.17.11-.286.022-.062.04-.106.09-.216.063-.144.142-.248.173-.251.013 0 .021.004.027.012.018.026-.004.098-.015.127l-.021.042-.006.06-.017.029-.029.09.007.029a.201.201 0 0 0 .065.011c.015-.001.021-.013.034-.043l.006-.012Z" clip-rule="evenodd"/><path fill="#F5F5F5" fill-rule="evenodd" d="M35.381 57.343v-.016c.006 0 .008-.002.016-.009a.18.18 0 0 1 .037-.027c.024-.012.047-.056.064-.115a.353.353 0 0 1 .009-.031c.007-.026.015-.051.017-.08.004-.045-.008-.202-.066-.237a1 1 0 0 1-.065-.044c-.028-.019-.056-.04-.07-.04a.238.238 0 0 0-.048.03c-.04.027-.068.044-.088.046-.032 0-.047-.033-.06-.062l-.01-.021c-.016-.029.005-.055.018-.066l.005-.003h.006c.012 0 .055-.001.066-.027l.014-.03c.014-.028.026-.052.016-.073-.015-.035-.039-.06-.06-.066-.017-.004-.03-.018-.04-.04-.007-.017-.012-.044-.002-.06a.33.33 0 0 0 .03-.1l.002-.016c.01-.048.018-.098.066-.098.025 0 .073.004.097.033a.065.065 0 0 1 .016.053c-.007.059.01.257.053.316.017.023.033.05.05.077.027.045.057.096.08.104.013.006.024.014.034.022.008.006.017.013.022.013.002 0 .009-.006.018-.026l.008-.019c.026-.06.034-.081.02-.107a.324.324 0 0 0-.06-.059.593.593 0 0 1-.096-.098c-.038-.057-.069-.302-.072-.341-.005-.078-.027-.15-.046-.152a.37.37 0 0 0-.101.006s-.044.099-.092.099c-.01 0-.023-.004-.033-.021-.029-.044.005-.082.025-.105l.014-.017.016-.03.066-.115a.361.361 0 0 0 .05-.1 1.315 1.315 0 0 0-.047-.121c-.024-.03-.07-.075-.09-.075a.324.324 0 0 1-.042.005h-.012c.01.03.025.097.03.119v.004l-.02.283-.01.004a.11.11 0 0 1-.045.011.055.055 0 0 1-.046-.022c-.02-.029-.018-.082.009-.165a.087.087 0 0 0-.04-.01.037.037 0 0 0-.02.004l-.017.013c-.026.02-.053.038-.071.025-.023-.017-.024-.071-.024-.081l.001-.02c.001-.015.005-.06 0-.073a.098.098 0 0 1-.02-.015c-.006-.004-.015-.013-.02-.013a.054.054 0 0 1-.031.01l-.011-.001c-.008 0-.009 0-.01.004a.623.623 0 0 1-.046.086l-.003.006a.37.37 0 0 0-.025.116c-.006.056-.037.11-.053.14l-.007.013c-.007.013-.024.03-.04.044a.159.159 0 0 0-.021.024.237.237 0 0 0-.002.057c.01.011.025.014.036.014a.075.075 0 0 0 .027-.005.508.508 0 0 0 .111-.1c.008-.014.017-.017.023-.017.032 0 .035.067.035.067l.001.014c.003.024.007.063-.025.088-.041.032-.087.08-.087.1 0 .042.006.115.049.12.032.003.04-.01.058-.048a.443.443 0 0 1 .022-.044c.025-.043.052-.049.066-.049a.04.04 0 0 1 .04.034c.001.007.008.022.014.036.016.037.03.069.015.087a.843.843 0 0 0-.068.168.335.335 0 0 1-.091.142.22.22 0 0 1-.035.022c0 .04.006.088.015.096.017.016.055.018.07.004.013-.01.058-.095.085-.145.027-.05.044-.082.052-.094l.006-.008c.017-.023.031-.042.072-.029.038.011.066.04.08.077.011.038-.021.083-.025.088l-.013.017-.013-.017c-.006-.01-.028-.032-.048-.032-.012.001-.019.01-.022.015a.073.073 0 0 0-.004.06.27.27 0 0 1 .01.043c.014.064.037.184.097.26.033.04.111.044.136.044a.447.447 0 0 1 .015-.023.158.158 0 0 0 .005-.096c-.01-.034-.019-.105-.005-.122l.005-.006.01-.002c.005 0 .012.002.018.01.014.022.089.166.092.172a.134.134 0 0 1-.05.155c-.015.01-.025.09-.015.118.009.026.033.05.043.05v.016ZM35.697 56.991c-.005.008.008.025.02.042.011.016.033.006.055-.004a.075.075 0 0 1 .032-.006c.039 0 .086.02.107.043.029.033.063.06.1.079l.01.002c.019 0 .037-.044.046-.067l.008-.02c.01-.02-.01-.111-.03-.141-.004-.008-.027-.026-.131-.037a.422.422 0 0 0-.113.017.774.774 0 0 0-.084.054.561.561 0 0 1-.02.038ZM34.588 55.168a.342.342 0 0 0 .05-.121.218.218 0 0 0-.022-.1.214.214 0 0 0-.068-.074.488.488 0 0 1-.034-.022c-.024-.016-.047-.033-.066-.034h-.004a.244.244 0 0 0-.076.02c-.02.015-.06.054-.049.073a.26.26 0 0 0 .035.043c.019.02.038.039.049.065.024.057.046.11.04.14-.005.021.008.065.02.075.011.01.032.017.045.017a.02.02 0 0 0 .008 0c.014-.008.056-.062.072-.082Z" clip-rule="evenodd"/><path fill="#004DA1" fill-rule="evenodd" d="M56.859 71.449H55.47v-1.09h-.362v2.66h.362v-1.236h1.388v1.235h.361v-2.66h-.361v1.09ZM58.598 71.928l.42-1.177h.014l.39 1.177h-.824Zm.246-1.57-.998 2.66h.362l.275-.77h1.07l.26.77h.39l-.954-2.66h-.405ZM62.06 71.565h-.84v-.916h.897c.309.01.468.16.477.451 0 .32-.178.474-.535.465Zm.881 1.134-.028-.48c-.01-.271-.116-.44-.319-.509.251-.126.376-.339.376-.64-.01-.464-.303-.702-.881-.712h-1.23v2.66h.362V71.87h.868c.327 0 .486.16.477.48 0 .136.004.271.014.407.01.126.024.213.043.261h.449s-.082-.096-.117-.204a.545.545 0 0 1-.014-.115ZM64.903 72.713h-.766v-.93h.694c.424 0 .636.15.636.45-.02.31-.207.47-.564.48Zm-.766-2.064h.636c.366.01.55.14.55.393 0 .3-.184.445-.55.436h-.636v-.83Zm1.2.93c.222-.097.337-.28.347-.552-.029-.426-.275-.65-.738-.669h-1.17v2.66h1.142c.568-.02.872-.28.91-.784 0-.31-.163-.529-.491-.654ZM66.579 73.018h.362v-2.66h-.362v2.66ZM69.615 72.51l-1.33-2.152h-.433v2.66h.347v-2.15h.014l1.345 2.15h.405v-2.66h-.348v2.152ZM72.532 71.812h1.446v-.32h-1.446v-.828h1.562v-.306H72.17v2.66h1.953v-.32h-1.591v-.886ZM76.65 72.51l-1.33-2.152h-.435v2.66h.347v-2.15h.015l1.345 2.15h.404v-2.66h-.346v2.152ZM79.013 71.896h.81c0 .32-.091.558-.274.713a.783.783 0 0 1-.55.175c-.588 0-.882-.369-.882-1.105.02-.679.308-1.043.868-1.09.424.01.689.198.795.566h.347c-.096-.533-.472-.823-1.128-.872-.78.049-1.2.51-1.258 1.381-.02.484.12.858.42 1.12.183.183.457.276.824.276.365-.01.655-.136.867-.377l.002.004v.329h.316V71.59h-1.157v.305ZM81.064 73.018h.362v-2.66h-.362v2.66ZM84.102 72.51l-1.331-2.152h-.434v2.66h.347v-2.15h.014l1.345 2.15h.405v-2.66h-.346v2.152ZM85.695 71.812h1.446v-.32h-1.446v-.828h1.56v-.306h-1.922v2.66h1.952v-.32h-1.59v-.886ZM88.448 71.812h1.447v-.32h-1.447v-.828h1.561v-.306h-1.922v2.66h1.952v-.32h-1.59v-.886ZM92.04 71.565h-.838v-.916h.896c.309.01.468.16.477.451 0 .32-.177.474-.535.465Zm.882 1.134-.028-.48c-.01-.271-.116-.44-.319-.509.25-.126.376-.339.376-.64-.01-.464-.302-.702-.882-.712H90.84v2.66h.362V71.87h.867c.329 0 .487.16.477.48 0 .136.006.271.015.407.01.126.024.213.044.261h.448s-.092-.108-.122-.225a.528.528 0 0 1-.009-.094ZM93.806 73.018h.362v-2.66h-.362v2.66ZM96.843 72.51l-1.33-2.152h-.434v2.66h.347v-2.15h.014l1.345 2.15h.405v-2.66h-.347v2.152ZM99.208 71.896h.81c0 .32-.093.558-.275.713a.784.784 0 0 1-.55.175c-.587 0-.882-.369-.882-1.105.02-.679.308-1.043.868-1.09.423.01.689.198.795.566h.347c-.096-.533-.473-.823-1.128-.872-.78.049-1.2.51-1.258 1.381-.019.484.12.858.419 1.12.183.183.459.276.825.276.365-.01.655-.136.867-.378l.001.004v.33h.318V71.59h-1.157v.305ZM104.276 72.03c-.01.494-.246.741-.709.741-.443-.01-.665-.256-.665-.74v-1.673h-.362v1.774c.02.6.357.91 1.013.93.694-.02 1.056-.349 1.085-.988v-1.716h-.362v1.672ZM107.251 72.51l-1.33-2.152h-.434v2.66h.347v-2.15h.015l1.344 2.15h.405v-2.66h-.347v2.152ZM108.493 73.018h.362v-2.66h-.362v2.66ZM110.714 72.626l-.752-2.268h-.406l.969 2.66h.391l.969-2.66h-.405l-.766 2.268ZM112.921 71.812h1.446v-.32h-1.446v-.828h1.561v-.306h-1.923v2.66h1.952v-.32h-1.59v-.886ZM116.513 71.565h-.839v-.916h.897c.309.01.468.16.477.451 0 .32-.178.474-.535.465Zm.853.654c-.009-.271-.115-.44-.318-.509.251-.126.376-.339.376-.64-.01-.464-.304-.702-.882-.712h-1.229v2.66h.361V71.87h.868c.328 0 .487.16.478.48 0 .136.004.271.014.407a.945.945 0 0 0 .044.261h.405s-.07-.072-.088-.32l-.029-.479ZM119.643 71.562l-.752-.174c-.222-.03-.328-.14-.318-.335 0-.3.197-.455.592-.465.415.02.637.2.665.538h.334c-.03-.552-.371-.833-1.027-.843-.589.02-.897.29-.926.814 0 .33.189.543.565.64l.548.116c.416.078.608.238.579.48-.009.29-.246.44-.708.45-.482-.01-.724-.218-.724-.624h-.347c-.009.3.096.513.276.668.134.117.409.232.795.232.674-.02 1.021-.275 1.041-.77 0-.378-.198-.62-.593-.727ZM121.033 73.018h.361v-2.66h-.361v2.66ZM122.086 70.664h.897v2.354h.348v-2.354h.896v-.306h-2.141v.306ZM126.561 70.358l-.766 1.28-.752-1.28h-.42l.999 1.585v1.075h.361v-1.075l.998-1.585h-.42ZM59.071 63.207c.15-.283.385-1.077.404-1.19l.006-.028c.137-.663.111-.831.096-.87a.425.425 0 0 0-.09.097.403.403 0 0 1-.133.1c-.093 0-.051-.19-.094-.56l-.005-.043c-.046-.395-.217-1.074-.578-1.007-.45.082-.89.374-1.237.822-.355.46-1.107 1.188-1.115 1.194l-.04.04-.041-.04c-.003-.003-.28-.278-.594-.278a.52.52 0 0 0-.28.082c-.236.15-.296.412-.196.852.136.282.39.75.51.83l.02.013c.1.066.283.188.49.188.239 0 .444-.17.61-.506.379-.768.921-1.963.927-1.975l.008-.013c.117-.143.404-.476.535-.476h.023l.049-.001.064-.002c.059 0 .142.007.187.07.037.052.037.124.002.222-.11.312-.494 1.496-.54 1.842l-.032.187c-.055.295-.102.548.146.7.08.05.175.074.28.074.244 0 .522-.145.618-.324ZM60.78 60.871c-.003.02-.006.045-.004.053.004.001.031.01.135.013l.005.057v-.057c.213 0 .893-.464 1.259-.713.135-.093.242-.166.298-.198.198-.115.75-.267.985-.331l.076-.021c.13-.038.503-.073.518-.075l.023-.002.018.014c.002.001.045.034.117.034a.294.294 0 0 0 .145-.044.536.536 0 0 0 .2-.231c.047-.099.05-.174.034-.203l-.041-.078c-.07-.138-.236-.462-.376-.462-.05.002-.083 0-.124 0-.182-.007-.4-.009-.87.32-.606.423-1.111.5-1.133.502l-.159.023.108-.119c.078-.086 1.906-2.1 2.085-2.24.172-.135.455-.47.539-.62.02-.037.05-.077.082-.12.137-.185.223-.328.083-.493-.11-.129-.167-.314-.218-.477-.057-.182-.11-.355-.212-.372-.224-.04-.451.092-.453.094l-.014.008h-.016c-.004 0-.13.007-.148.284-.026.377-.105.634-.24.788-.012.013-1.276 1.543-1.694 2.252-.508.862-1.049 1.977-1.012 2.198a.735.735 0 0 1 .003.216ZM62.833 60.803c-.01 0-.016.002-.018.004-.106.06-.645.198-.775.23l-.172.26c.01.06.043.242.129.39.078.137.421.203.726.207l.005.059v-.059c.151 0 .386-.05.433-.162.015-.034.038-.074.064-.12.084-.145.19-.327.091-.457-.131-.174-.375-.352-.483-.352ZM61.675 66.197c.032-.024.046-.068.046-.133-.003-.12.017-.246.035-.368.034-.222.065-.431-.018-.603-.267-.552-.487-.68-.625-.691-.162-.01-.261.13-.263.131l-.047-.033-.113-.008-.01.057c-.034-.006-.091-.004-.106.015-.007.008-.008.032.009.073.035.09.069.187.1.276.038.112.074.217.1.26.012.022.033.076.075.185.074.193.3.781.404.808l.031.01c.113.031.301.084.382.021ZM64.224 64.695l-.33-.08c-.065-.026-.26-.109-.3-.206a.101.101 0 0 1 .002-.082c.05-.106.303-.377.627-.63.148-.116.427-.483.51-.7.047-.123.026-.163-.026-.26-.025-.046-.057-.104-.085-.185-.055-.152-.197-.207-.335-.26a1.112 1.112 0 0 1-.141-.059.766.766 0 0 0-.336-.059.895.895 0 0 0-.141.009c-.078.024-.947.538-1.08.639l-.047.036c-.13.1-.329.251-.392.33-.058.073-.07.286-.058.404.007.07.094.11.257.125.182.015.273.035.276.036.03.005.2.036.246.131.028.063.097.282-.216.463-.198.114-.223.213-.232.25-.009.037-.023.305-.025.395 0 .054.037.202.177.36.041.047.07.084.093.113.06.077.061.079.131.08.081.002.203.029.333.058.094.022.191.043.275.056.173.023.448-.052.63-.17.115-.074.16-.206.206-.332.018-.052.036-.102.058-.147.046-.099-.032-.248-.077-.316ZM71.9 61.423c.017 0 .034.002.05.007.077 0 .318-.212.498-.408l.038-.042.042.037c.03.026.293.259.19.444l-.025.047c-.132.245-.26.469-.37.517-.136.058-.327.127-.464.127-.08 0-.139-.023-.172-.071-.021-.03-.043-.054-.062-.077-.06-.067-.134-.15-.028-.272.025-.03.05-.07.074-.11.06-.098.123-.2.23-.2Zm.059 1.442c-.07.14-.273.185-.297.19l-.043.009-.136-.269.155-.5.067.067c.022.021.208.207.25.295a.231.231 0 0 1 .004.208Zm-.992-2.457c-.086 1.73-.21 1.73-.27 1.73l-.022-.004c-.07-.022-.075-.113-.086-.293a2.262 2.262 0 0 0-.048-.403 1.856 1.856 0 0 0-.247-.559l-.03-.042.04-.035c.094-.081.33-.36.333-.362l.01-.013.325-.102-.005.083Zm-.438 2.139c-.026.127-.25.535-.41.535l-.016-.001c-.09-.015-.283-.129-.308-.245a.114.114 0 0 1 .053-.122c.213-.143.265-.203.276-.225-.044-.091.058-.221.091-.26l.03-.035.04.021c.03.015.283.15.244.332Zm-.956.471c.072.081.1.172.072.236-.015.033-.058.091-.188.073-.213-.03-.326-.029-.401-.003-.052.017-.114.038-.172.038a.152.152 0 0 1-.117-.046c-.031-.034-.044-.084-.039-.147l.009-.115c.01-.144.019-.293.06-.494.018-.095.043-.2.067-.302.037-.154.075-.314.072-.37-.005-.078-.02-.288.23-.36a.714.714 0 0 0 .335-.209c.034-.04.099-.058.203-.058.05 0 .09.005.09.005l.026.003.015.02c.058.083.242.36.157.491-.06.094-.23.375-.3.537-.09.214-.18.633-.12.701Zm3.277 3.968c.096.049.14.07.157.087.043.036.27.283.344.398.05.075.225.172.312.172.013 0 .018-.003.018-.003.064-.05.16-.132.256-.27.116-.169.268-.459.251-.563-.014-.106-.154-1.245-.157-1.785-.001-.092-.023-2.036.047-3.085.028-.416.153-1.393.254-2.179.07-.552.132-1.029.133-1.107.003-.5-.07-.55-.073-.55a.93.93 0 0 0-.366-.08c-.079 0-.11.016-.12.023-.059.039-.25.096-.553.188-.244.072-.52.155-.592.198l-.049.03c-.124.078-.278.174-.392.174a.138.138 0 0 1-.14-.102c-.015-.048-.037-.09-.058-.13-.043-.08-.094-.18-.003-.264l-.01-.052c-.036-.188-.062-.363.012-.44.06-.063.163-.093.315-.093.092 0 .188.011.266.019.05.006.092.011.12.011a.245.245 0 0 1 .058-.01c.03 0 .055.015.067.04.012.027.04.084-.23.427.408-.135.8-.277.846-.316.011-.013.036-.031.071-.06.09-.068.254-.195.245-.3-.005-.048-.05-.094-.134-.137a1.62 1.62 0 0 0-.729-.192.476.476 0 0 0-.198.03c-.096.049-.557.143-.888.143-.19 0-.303-.03-.356-.094-.163-.198-.024-.455-.017-.466l.009-.017.019-.008c.037-.015.903-.38 1.11-.424.067-.014.139-.022.21-.03.126-.014.269-.031.303-.084l.031-.047c.074-.11.124-.194.077-.261-.091-.132-.233-.289-.301-.312a.771.771 0 0 1-.07-.029c-.085-.038-.186-.076-.25-.016-.14.131-2.6 1.197-2.756 1.25a.553.553 0 0 1-.177.025c-.176 0-.373-.051-.437-.07-.123.054-.29.154-.304.23-.016.076-.04.268.09.404.114.123.373.153.531.14.057-.005.186-.029.335-.056.256-.047.546-.101.684-.101.052 0 .082.007.103.025.02.017.087.054.152.09.18.1.3.17.333.237.047.09.092.446.1.517l.002.015-.006.014c-.069.156-.25.59-.261.732-.016.19-.118.42-.122.43l-.006.014-.013.01c-.214.157-.787.604-.866.78-.112.248-.451.317-.55.28-.06-.025-.163-.16-.22-.237l-.01-.023a.601.601 0 0 0-.065-.185c-.102.062-.565.426-.664.566-.107.151-.605 1.194-.651 1.487l-.005.035c-.21 1.358-.063 1.648.043 1.7a.95.95 0 0 0 .416.104c.112 0 .173-.026.184-.037a.088.088 0 0 1 .08-.048c.067 0 .141.072.17.103l.02.021-.006.03c-.009.045-.015.154.028.18.048.029.229.062.41.062.09 0 .167-.009.22-.024.05-.016.11-.03.172-.045.139-.034.33-.081.371-.13.033-.037.096-.092.17-.155.08-.071.193-.167.215-.206.002-.004.192-.31.313-.31.027 0 .051.012.066.035.067.094-.02.495-.05.587-.045.133-.066.32-.05.417l.008.055c.013.094.025.176.124.261.072.062.153.126.21.126.016 0 .037-.004.063-.033.029-.034.064-.066.099-.097.077-.068.142-.127.138-.21-.01-.146.049-.358.087-.497l.013-.048c.048-.187.604-.398.61-.4.175-.068.34-.12.342-.122l.05-.015.02.047c.033.071.085.146.106.153.086-.075.338-.301.363-.35.023-.042-.002-.115-.024-.134a.567.567 0 0 0-.065-.033c-.098-.046-.22-.103-.238-.194-.014-.066.058-.275.268-.833.06-.159.114-.302.142-.388.031-.094.07-.164.1-.221.06-.109.083-.15.018-.243-.124-.18-.236-.324-.237-.326l-.019-.024.01-.03c.08-.23.288-.846.302-.95l.008-.053c.008-.05.021-.135.008-.152a.772.772 0 0 1-.08-.026.491.491 0 0 0-.14-.038c-.008 0-.02.001-.024.007-.004.004-.012.02-.023.042-.092.17-.335.62-.73.701-.028.006-.015.122-.008.178.009.084.018.163-.011.217-.096.174-.297.18-.32.18h-.032l-.017-.027a.835.835 0 0 1-.117-.344c-.011-.155-.02-.279.106-.424.103-.12.162-.241.159-.326l-.01-.084c-.016-.103-.033-.221.03-.294.067-.078.263-.19.402-.231.058-.018.225-.103.373-.178.167-.087.326-.167.395-.188.029-.008.076-.035.126-.064.094-.054.2-.115.29-.115.072 0 .125.037.152.105.078.19.091.474.035.723-.027.118-.366 2.003-.467 3.584-.049.755-.06 1.269-.068 1.867-.013.904-.023 1.202-.09 1.28-.027.031-.07.046-.132.046-.145 0-.389-.084-.603-.159-.124-.043-.264-.092-.305-.092-.09 0-.197-.048-.245.03a.08.08 0 0 0-.005.086c.06.117.295.3.468.434.064.05.12.094.16.128.093.08.256.298.391.366Z" clip-rule="evenodd"/><path fill="#004DA1" fill-rule="evenodd" d="M68.137 59.913c.126 0 .347-.056.506-.162.216-.145.954-.75 1.11-.93.022-.027.048-.056.076-.087.15-.168.402-.45.383-.611-.017-.138-.255-.301-.383-.375-.054.055-.162.156-.262.176-.09.018-.458.328-.597.49-.262.303-.46.51-.572.533a.327.327 0 0 0-.116.071c-.06.048-.13.102-.217.102h-.023c-.038.01-.075.197-.088.268a.69.69 0 0 1-.048.174c-.022.038.064.233.148.336 0 0 .016.015.083.015ZM93.446 58.785c-.059.051-.297.41-.55.792-.467.707-1.082 1.552-1.323 1.81-.365.393-.658.692-.6.785.028.046.05.09.07.129.057.112.08.15.161.154h.02c.154 0 .532-.076.652-.302.07-.13.474-.554.942-1.045.474-.497 1.018-.997 1.172-1.228.302-.448.78-.996.783-1.002.12-.173.246-.398.241-.45l-.004-.07c-.007-.146-.096-.53-.223-.636-.04-.032-.158-.09-.219-.15-.194-.19-.422-.47-.662-.47-.326.008-.985.062-1.434.213-.42.144-.96.198-1.038.206-.174.072-.337.087-.341.254-.002.069.012.124.01.18a.399.399 0 0 0 .045.246c.047.084.06.148.071.2.015.066.021.097.1.142.079.045.133.083.174.112.046.032.074.051.1.058l.022.001c.09 0 .327-.046.491-.155.192-.127.83-.414 1.094-.462.083-.015.175-.057.254-.093a.58.58 0 0 1 .208-.07c.041 0 .066.019.08.035.024.027.031.068.023.123-.015.105-.13.527-.319.693ZM93.936 62.8v.14c-.156.135-.562.554-.613.764-.045.182-.074.342-.024.405.016.022.035.033.054.033.034-.003.179-.058.85-.666.182-.166.966-.737 1.262-.879.108-.052.212-.091.303-.126.154-.058.287-.108.387-.196.087-.077.156-.137.156-.183 0-.03-.026-.07-.077-.119a2.392 2.392 0 0 1-.089-.088c-.145-.15-.31-.32-.612-.32h-.027c-.418.014-1.015.295-1.287.48-.234.159-.966.436-1.674.705-.227.085-.45.17-.65.248a5.354 5.354 0 0 1-.235.079 22.01 22.01 0 0 0-1.891.692c-.34.143-.741.193-1.096.236-.255.032-.497.061-.675.121a5.846 5.846 0 0 0-.782.347c-.015.068-.042.276.103.425.198.202.738.43 1.164.435l.007.057v-.057c.436 0 1.527-.397 2.28-.91.71-.483 1.875-1.17 2.255-1.3.353-.12.818-.295.91-.323ZM106.738 65.273c.106-.077.129-.214.084-.524-.028-.191-.265-.285-.455-.36a1.369 1.369 0 0 1-.184-.08.13.13 0 0 0-.063-.012c-.133 0-.348.096-.506.166a.893.893 0 0 1-.217.083c-.031.003-.164.076-.27.134-.266.145-.463.249-.577.249-.089-.003-.123-.051-.136-.08-.054-.124.064-.34.121-.406.071-.084.537-.658.719-.892.185-.234.579-.787.656-1.002.046-.126-.245-.373-.466-.51l-.034-.02.008-.038c.073-.404.252-1.497.183-1.706-.056-.164-.344-.267-.579-.267a.454.454 0 0 0-.15.02c-.136.051-.971.742-1.5 1.194l-.016.014-.403.004.053-.088c.003-.005.314-.528.363-.69.019-.063.07-.175.128-.306.089-.2.224-.505.219-.594a.33.33 0 0 0-.39-.284c-.18.027-.33.429-.43.695a3.117 3.117 0 0 1-.106.264l-.097.192a20.2 20.2 0 0 0-.517 1.088c-.31.698-1.064 1.187-1.096 1.208l-.09.058.007-1.57.018-.018c.021-.021.541-.528.862-.763.308-.224.351-.75.263-1.044-.077-.255-.404-.268-.469-.268h-.017l-.18-.003c-.145 0-.306.207-.337.375-.039.213-.388.817-.511.941-.043.042-.423.412-.675.412-.011 0-.022 0-.033-.002a.106.106 0 0 1-.086-.06c-.06-.126.1-.428.394-.906l.044-.07c.115-.193.343-.512.527-.769l.125-.176c.202-.283.875-.67 1.097-.769.268-.12.656-.411.847-.712.15-.238.046-.761-.003-1.012a3.332 3.332 0 0 1-.026-.136c-.017-.117-.297-.21-.497-.223-.314.504-1.244 1.996-1.336 2.063-.082.06-.946.947-1.166 1.182-.188.2-.503 1.048-.506 1.057-.031.053-.657 1.057-.816 1.272-.026.035-.026.087-.002.154.081.215.377.467.509.497.173 0 .805-.453 1.164-.738l.114-.091-.358 2.409-.96.937c-.317.471-.842 1.281-.866 1.414-.025.128.171.373.3.534l.097.125c.065.09.264-.004.38-.066a.726.726 0 0 1 .087-.043c.077-.024.457-.336.518-.47.067-.148.246-.506.254-.522l.018-.034.362.024.347.48c.019.026.039.043.051.043.039 0 .11-.109.166-.195l.05-.076c.129-.186.199-.46.262-.7l.004-.016c.062-.235-.002-1.038-.003-1.046l-.002-.026.017-.018c.011-.013.282-.308.532-.456.135-.08.252-.327.367-.565.077-.16.156-.326.243-.444.206-.279.515-.998.518-1.005l.034-.08.06.061c.209.212.468.445.546.478a6.51 6.51 0 0 0 .5-.46c.024-.034.118-.158.219-.292l.282-.373a.082.082 0 0 1 .066-.034c.09 0 .232.17.335.311l.019.026-.637 1.502.276.573-1.087 1.895c.056.164.189.532.258.628.044.06.177.068.284.074.084.005.157.01.209.034.099 0 .35-.158.487-.258l.393-.286.351.128c.09-.014.579-.084.783-.11.225-.03.553-.145.675-.234Z" clip-rule="evenodd"/><path fill="#004DA1" fill-rule="evenodd" d="m104.693 59.325.922-.334.271-.018.262-.458-.417-.667.021-.031c.066-.1.402-.599.54-.664.1-.047.57-.361.805-.52l.41-.332c.071-.125.147-.327.09-.381-.15-.146-.392-.317-.507-.278-.163.054-.551.238-.555.24l-.016.008-.019-.003c-.002 0-.246-.042-.416-.042-.1 0-.122.015-.123.015a.515.515 0 0 1-.147.177l.387.628-.048.03c-.122.08-.456.322-.53.477-.093.194-.176.744-.177.75l-.006.038-.037.01c-.009.001-.22.055-.371.055a.296.296 0 0 1-.131-.023 32.368 32.368 0 0 1-.532-.272c-.236.187-.49.415-.507.474.002.096.118.863.201.976.048.067.362.126.63.145ZM113.151 63.338c.452-.996.625-1.325.951-1.408.264-.067 1.368-.554 1.543-.631l.212-.624-.364-.551-.397-.25-.258.2-.07.636-.702.29.058-.131c.011-.025 1.08-2.458.832-3.223-.04-.118-.075-.238-.111-.355-.201-.672-.376-1.252-.957-1.435a3.917 3.917 0 0 1-.709-.298.566.566 0 0 0-.177-.074.036.036 0 0 0-.026.01c-.097.08-.348.238-.459.307.124.166.512.68.62.833.169.238.611 1.134.421 2.086-.109.55-.235.867-.345 1.148-.067.17-.13.33-.182.52-.139.506-.402 1.165-.557 1.303-.137.123-1.638.919-2.29 1.078-.505.125-.752.138-.835.138h-.002l-.265.33c.036.08.101.191.16.218a.508.508 0 0 0 .177.017c.196 0 .46-.029.462-.029.489-.088 1.808-.342 1.984-.444a.282.282 0 0 1 .144-.047c.135 0 .186.139.194.212l.001.017-.007.015c-.027.055-.664 1.358-1.012 1.868a9.552 9.552 0 0 1-1.004 1.187c-.14.124-.577.394-.595.405l-.026.008-.691.054c.003.001-.206-.125-.171.051.045.22.022.563.254.595.038.006.284.036.375.007.333-.107.825-.264 1.059-.407.275-.168 2.297-2.596 2.765-3.626ZM115.863 65.26c.112-.396-.481-1.126-.758-1.35-.203-.161-.648-.174-.779-.174h-.047c.002 0-.171.042-.258.106-.027.058.163.43.332.565.194.157.151.584.016.752-.111.137.076.358.161.447.104.106.275.094.442.089l.132-.003c.053 0 .107.003.16.009a.93.93 0 0 0 .11.007c.17 0 .378-.051.489-.448ZM118.559 63.657c.202.074.392.144.591.144a.824.824 0 0 0 .397-.103c.466-.25 1.89-1.325 2.327-1.702.015-.013 1.489-1.26 1.843-1.26.249.018.326.179.333.262l.002.028-.021.02c-.278.25-.507.515-.501.58.014-.005.04 0 .072 0 .214 0 .576-.135.58-.137-.002 0 .912-.584 1.08-.78.207-.237.32-.44.368-.657.032-.152.057-.32-.008-.4-.033-.04-.089-.06-.173-.06h-.016c-.344.013-1.097.215-1.694.622-.617.417-2.735 1.521-3.239 1.708-.075.028-.25.112-.452.209-.35.167-.786.375-1.083.482-.542.195-.874.236-1.004.243.014.164.083.627.388.727.071.022.141.049.21.074ZM120.506 59.419c-.067.078-.101.335-.042.577.052.21.325.324.462.355a.082.082 0 0 0 .026.003c.133 0 .407-.132.479-.215.047-.056.128-.257.192-.419.045-.11.086-.214.12-.283.066-.13.211-.165.351-.2.085-.02.173-.041.248-.084a.352.352 0 0 1 .17-.049.27.27 0 0 1 .218.115l.025.04-.67.66c.021.062.082.2.204.24.117.035.26-.04.38-.11.038-.023.074-.043.109-.06.138-.067.514-.38.518-.383l.024-.021.03.01c.003 0 .326.1.564.1.078 0 .138-.01.174-.031.126-.07.147-.157.171-.248.01-.04.02-.082.039-.121.021-.08-.301-.45-.421-.51a.086.086 0 0 1-.044-.054c-.046-.157.328-.82.444-1.019l.019-.02 1.423-.882.497.163-.023.057c-.007.018-.181.453-.423.69a.301.301 0 0 1-.233.09h-.034c-.051 0-.096 0-.151.087-.108.167-.174.442-.222.642-.026.109-.045.187-.065.228-.098.195-.297.409-.429.538l.593-.063.656-.518c.064-.115.673-1.196.782-1.415.122-.244.289-.815.2-1.017-.088-.194-.483-.277-.679-.293-.139 0-.904.375-1.354.612l-.019.01-.021-.005a.157.157 0 0 1-.095-.078c-.036-.067-.034-.16.007-.277.086-.243.136-.785.067-.985-.056-.165-.527-.338-.71-.338-.02 0-.029.003-.032.003-.097.031-.11.228-.033.514.096.355-.138.842-.292.978-.128.111-.557.12-.686.12a2.245 2.245 0 0 1-.396-.028c-.15 0-.226.295-.263.436l-.008.033c.021.052.328.133.646.167l.082.01-.451.902-.206-.203c-.05-.062-.445-.562-.492-.699 0 0-.015-.02-.104-.02-.119 0-.277.037-.328.05-.058.067-.176.227-.171.34a.101.101 0 0 0 .034.076c.191.171.322 1.143.337 1.253l.003.022-.014.02a.717.717 0 0 1-.324.237.14.14 0 0 1-.042.007c-.142 0-.228-.213-.32-.438a1.538 1.538 0 0 0-.133-.28c-.041-.053-.137-.082-.279-.082-.076 0-.148.009-.197.016.087.372.202.944.112 1.047ZM125.249 63.008c.087-.01.253-.135.429-.267.262-.196.559-.419.826-.462.496-.077.496-.226.496-.29-.001-.208-.067-.543-.164-.592l-.075-.04c-.153-.08-.474-.25-.623-.25-.021 0-.032.004-.036.007-.053.025-.158.065-.29.115-.231.087-.547.208-.686.299-.208.135-1.852.907-2.072.923-.182.012-1.064.286-1.246.437-.157.13-.464.557-.553.681.069.084.272.31.539.388.001 0 .005.002.016.002.058 0 .181-.03.312-.063.202-.05.455-.112.653-.112.194 0 .314.06.356.181.024.075-.003.312-.066.798-.036.28-.081.63-.068.697a.576.576 0 0 0 .05.126c.039.08.079.162.045.243-.023.054-.076.094-.161.12-.105.035-.288.052-.545.052-.251 0-.485-.016-.488-.017l-.02-.005c-.286-.134-.754-.22-.823-.23a.882.882 0 0 1-.1-.023.991.991 0 0 0-.25-.045c-.056 0-.095.011-.122.035-.083.07-.146.033-.142.104.003.05.029.09.081.127l.078.054c.238.167.796.556 1.077.634l.095.026c.308.085.531.146.582.293.03.09.263.26.566.413.053.027.106.057.16.087.174.1.341.188.456.135.208-.094.419-.216.497-.57.088-.404.03-2.53-.075-2.775-.111-.258-.232-.807-.026-.972.253-.2.412-.229.487-.119.07.102.033.313-.015.482.241-.23.662-.605.845-.627ZM78.074 58.138c.087.129.048.257.003.407a1.7 1.7 0 0 0-.07.302.96.96 0 0 1-.073.295c.027.003.06.009.1.018a.172.172 0 0 0 .038.004c.3 0 .873-.623.992-1.183.107-.504-.833-1.048-1.028-1.155l-.165.15a1.143 1.143 0 0 1-.133.51c-.083.15.095.36.225.513.044.053.084.1.11.14ZM78.57 66.775c.099-.095.384-.527.47-.785.038-.117.082-.236.126-.353.101-.27.206-.55.24-.822.027-.208.173-.975.316-1.238.125-.227.11-.653.06-.8-.015-.04-.046-.095-.155-.095-.057 0-.072.116-.086.153-.068.175-.106.265-.142.408-.043.172-.108.247-.22.459a3.81 3.81 0 0 0-.137.297c-.038.091-.105.185-.137.31-.03.11-.039.118-.06.171l-.087.223c-.02.078 0 0-.26.493-.06.116-.236.125-.322.024-.05-.056-.025-.16.015-.329.033-.14.074-.315.064-.463-.017-.277.162-.745.27-1.026l.037-.096c.054-.148-.037-.33-.117-.49-.031-.064-.061-.124-.08-.177a1.3 1.3 0 0 0-.417-.546 3.131 3.131 0 0 1-.472-.447c-.073.061-.22.192-.282.296-.072.127.045.386.115.541.088.197.133.828.12 1.068-.008.125.006.44.02.745.014.316.259.613.251.73a.955.955 0 0 1-.108.39l-.048.108c-.051.122.096.572.167.788.018.056.034.103.043.136.04.137.094.28.326.362.177.064.408.045.49-.035ZM79.054 60.603l.022.027c.036.046.081.094.378.073.295-.02.518-.459.651-.72.025-.05.048-.095.068-.13.13-.232.185-.67.209-.857.01-.087.039-.236.068-.394.037-.196.078-.416.081-.49.004-.09-.173-.215-.24-.263h-.002a3.35 3.35 0 0 0-.376.263c-.045.044.004.226.032.334.015.054.027.104.034.142.026.167.025.285-.001.407-.03.13-.188.427-.326.489a.175.175 0 0 1-.172-.011c-.05.032-.225.39-.23.46-.003.094-.173.459-.216.5-.008.02-.01.137.02.17ZM85.708 56.433c-.053-.09-.239-.194-.395-.26-.079-.033-.193-.014-.364.019l-.028.005c-.102.02-.4.195-.716.38-.235.14-.502.296-.753.429-.599.315-1.573.998-1.67 1.072-.036.027-.131.108-.23.196-.236.204-.407.351-.47.381a.344.344 0 0 1-.17.032c-.071.082-.16.204-.168.259-.007.041.005.083.02.132a.486.486 0 0 1 .026.191c-.004.047.117.123.351.172l.012.001c.12 0 .392-.252.554-.402l.115-.105a9 9 0 0 1 .244-.199c.242-.194.61-.487 1-.833.211-.186.37-.312.772-.614.526-.395.96-.574 1.1-.574a.108.108 0 0 1 .11.09c.022.132-.21.351-.31.439l-.166.11-.145.21-.122.068-.293.28-.035.128c.051.054.15.149.222.18.071.031.137-.021.225-.088l.046-.035c.044-.033.119-.095.204-.166.159-.131.338-.281.437-.34.136-.08.428-.43.462-.536l.023-.068c.04-.116.16-.469.112-.554Z" clip-rule="evenodd"/><path fill="#004DA1" fill-rule="evenodd" d="M82.985 65.503c.1-.167.346-.794.187-1.038a4.482 4.482 0 0 1-.165-.284c-.072-.133-.154-.283-.203-.287-.047-.006-.137.008-.234.022-.166.022-.339.043-.417.015-.111-.04-.106-.199-.102-.34a.976.976 0 0 0 .001-.097c-.009-.131.114-.19.18-.202l.02-.003.02.01s.1.054.199.054a.169.169 0 0 0 .115-.038c.035-.031.073-.06.11-.088.107-.08.198-.15.201-.253.005-.165-.04-.311-.112-.373-.052-.044-.078-.12-.072-.214.005-.076.034-.18.098-.223.042-.026.135-.104.3-.327l.043-.057c.106-.143.198-.267.324-.267.03 0 .06.007.09.022.096.047.263.148.305.297.02.075.007.15-.04.223-.137.212-.443.999-.388 1.306.021.117.034.253.046.385.021.23.043.468.111.546.04.045.066.096.089.142.03.06.051.099.074.099.015 0 .049-.01.119-.07l.063-.053c.203-.173.286-.244.28-.38-.003-.073-.056-.2-.113-.334-.073-.172-.156-.368-.183-.552-.042-.285.297-1.268.358-1.42.116-.287.184-.627.102-.676-.136-.082-.32-.168-.393-.168-.007 0-.279.223-.457.223-.09 0-.149-.053-.16-.148-.025-.21.161-.287.284-.337.036-.015.07-.03.089-.043l.135-.093c.16-.11.377-.262.444-.3.127-.072.36-.246.377-.299.016-.055.039-.36.05-.546-.048-.207-.144-.441-.218-.461a1.433 1.433 0 0 1-.156-.058.992.992 0 0 0-.063-.026 5.106 5.106 0 0 1-.111.516l-.007.014-.597 1.027h-.032c-.042 0-.241-.008-.304-.155-.062-.146.043-.357.323-.647 0-.002-.004-.02-.03-.049-.05-.056-.136-.103-.188-.103-.055.008-.1.038-.139.065-.041.028-.074.05-.111.05a.084.084 0 0 1-.077-.05c-.034-.078-.053-.337-.012-.422l.038-.068c.036-.061.142-.245.136-.293a.264.264 0 0 1-.049-.09c-.017-.04-.038-.091-.06-.091l-.028.001a.263.263 0 0 1-.124-.038c-.021-.011-.041-.022-.054-.022-.003 0-.01 0-.025.013-.08.078-.23.175-.32.233l-.032.022c-.05.031-.162.155-.316.397-.125.198-.352.356-.46.432a1.415 1.415 0 0 0-.046.032c-.05.038-.14.067-.229.096-.048.016-.115.038-.13.05a1.01 1.01 0 0 0-.12.222c.038.123.194.159.235.162.091 0 .529-.108.615-.174.058-.044.113-.035.14.009.044.07-.008.228-.03.275-.008.014-.014.033-.022.054-.033.092-.09.246-.249.28-.223.047-.487.148-.523.221-.1.203-.186.466-.036.562.127.081.198.028.326-.077.046-.038.098-.08.16-.12.165-.11.324-.109.394-.013.03.04.037.091.021.139-.009.027-.01.096-.014.162-.006.16-.012.311-.098.35-.074.036-.398.313-.574.512a1.424 1.424 0 0 1-.602.366.906.906 0 0 1-.177.017c-.082.16-.151.354-.127.41.042.098.18.175.275.15.068-.017.385-.247.596-.398.193-.14.314-.227.366-.254l.036-.019c.115-.06.201-.086.316.022.12.11.174.265.152.428-.021.162-.223.268-.246.28l-.068.035-.015-.075c-.01-.05-.055-.187-.14-.22-.086-.031-.231.088-.24.246a1.41 1.41 0 0 1-.042.185c-.071.268-.203.766-.117 1.163.05.227.35.388.44.433l.108-.063a.656.656 0 0 0 .202-.363c0-.005.108-.47.235-.47.01 0 .061.003.07.071.015.104.034.788.034.817 0 .01-.037.4-.47.482-.086.016-.268.307-.286.43-.016.127.038.273.08.285.027.008.044.003.08-.007.04-.01.096-.026.19-.03.115-.005.288-.127.464-.327l.089-.096c.08-.086.156-.167.218-.271ZM84.55 65.681c-.093-.066-.384-.155-.459-.174-.005-.002-.016-.002-.03-.002a5.31 5.31 0 0 0-.395.03c-.028.02-.094.067-.153.103-.037.022-.031.093-.017.209.007.066.056.089.22.104.177.017.39.249.425.416.039.18.11.348.213.498.073.107.246-.038.353-.125a1.66 1.66 0 0 1 .07-.055c.08-.053.198-.433.186-.589-.005-.059-.08-.178-.412-.415ZM82.736 56.81l.001.057v-.057c.07 0 .307-.1.422-.147l.027-.01c.118-.05.355-.252.42-.346a.9.9 0 0 0 .127-.415.912.912 0 0 0-.1-.418c-.028-.047-.054-.1-.08-.154-.053-.107-.107-.218-.173-.262-.084-.058-.276-.09-.343-.096-.104.014-.346.08-.342.183.003.076.022.152.043.232a.95.95 0 0 1 .042.337c-.025.258-.055.497-.138.59-.066.074-.105.267-.08.334.032.08.123.17.174.172Z" clip-rule="evenodd"/></g><defs><filter id="a" width="154" height="157" x="0" y="0" color-interpolation-filters="sRGB" filterUnits="userSpaceOnUse"><feFlood flood-opacity="0" result="BackgroundImageFix"/><feColorMatrix in="SourceAlpha" result="hardAlpha" values="0 0 0 0 0 0 0 0 0 0 0 0 0 0 0 0 0 0 127 0"/><feOffset dy="16"/><feGaussianBlur stdDeviation="6.5"/><feColorMatrix values="0 0 0 0 0 0 0 0 0 0 0 0 0 0 0 0 0 0 0.03 0"/><feBlend in2="BackgroundImageFix" result="effect1_dropShadow_185_174"/><feBlend in="SourceGraphic" in2="effect1_dropShadow_185_174" result="shape"/></filter></defs></svg>