<svg xmlns="http://www.w3.org/2000/svg" width="154" height="157" fill="none"><g filter="url(#a)"><path fill="#fff" d="M13 0h128v128H13z"/><path fill="#007DBD" fill-rule="evenodd" d="M64.478 54.39s-.308.048-.394-1.465c0-.584.507-.828.507-.828 1.349-.07 1.722.505 1.722.505.055.182.145.32.212.49.016.39-.122.721-.3.975 0 0-.639.45-1.747.323ZM73.446 56.228c.694-.093.686.966.686.966l-.096 3.487-.103 1.285c-.06.671.09 1.26.11 1.805a20.14 20.14 0 0 1-.017 2.065c-.027.468.058.969-.13 1.415-.476-.099-.768-.465-1.114-.636 0 .03-.005.026.04.063-.109.06-.204-.094-.309-.05.063.078.157.13.233.181-.02.04-.056.052-.05.112.14.162.346.255.423.473-.09-.015-.133-.017-.181.03.077.212.301.276.392.471-.155-.067-.261-.318-.42-.273.053.282.458.295.403.63.184.206.26.43.459.6 0 0-.08.567.581.476.57-.259.7-.86.7-.86s.103-.85-.112-3.17c.294-1.379-.068-2.893-.068-2.893s-.008-.652.084-1.067c.233-3.017.095-4.01.095-4.01.419-1.484-.146-1.759-.146-1.759-.488-.225-.755-.061-1.055-.016.172-.63 1.941-1.855 1.941-1.855 2.477-1.088 1.19-1.769 1.19-1.769s-.873-.61-2.42.978c0 0-3.501 2.36-4.71 3.455 0 0-1.647 1.495-3.27 3.81 0 0-1.108 1.605-1.262 2.427-.08.393-.423 1.54-.7 2.44-.13-.245-.159-.516-.15-.83 0 0 .311-3.682.624-4.251 0 0 1.579-.911.874-2.2 0 0-.086-.122-.287-.21-.349-.161-1.157-.439-1.293-.439-.236-.023-.34.202-.543.346 0 0-.335.51.07 1.794 0 .012.003.026.009.04.054.17-.472 4.288-.472 4.288-.626 4.467 1.349 3.365 1.349 3.365.538-.538 1.077-1.042 1.29-1.714.066-.992.11-2.161.157-2.343.093-1.551 3.055-5.984 6.82-7.575-.942 1.58-1.804 3.27-2.654 4.952 0 0-.685.749-.592 1.725 0 0 .12.38.588.321.69-.343.706-.907.706-.907.09-.924.376-1.01.376-1.01.166 1.056.946 1.228.946 1.228 1.086.152.977-1.2.977-1.2-.095-.247-.095-.513-.152-.743-.109-.432-.083-.775-.083-.775-.061-.451-.143-.244-.194-.376-.068-.188.029-.414-.048-.568-.106-.034-.093.131-.156.083-.048-.16.074-.322.04-.457-.14.428-.197.904-.407 1.26-.21-.08-.37 0-.53.04.25-.518.544-.909.812-1.496.289-.453.425-1.017.762-1.335 0 0 .072-.053-.013.176ZM85.007 57.455c-.059.71-.448.878-.448.878-.336.192-.648.121-1.081.113-.073-.048-.04-.17-.139-.257-.413-.136-.68-.618-.688-.627.042-.034.051-.027.039-.05-.013-.025-.255-.442-.346-.753-.128-.472.137-.702.2-.76 0 0 .136-.146.757-.044.051.01.215.027.345.066.135.036.349.132.71.271 0 0 .651.357.651 1.145M84.06 61.862s-.565.394-.74 1.894c-.043.454-.046.585-.08.851-.018.446.092.824.092.824.973-.905 1.474-2.386 1.983-3.802.055.354-.32.807-.063 1.082.017.073-.08.173.017.187-.137.08-.054.373-.212.466-.008.052.018.067.043.078-.165.244-.082.691-.213.824-.01.084-.01.106-.035.203 0 0-.17 1.737-.54 2.185-.781 1.44-1.225 1.51-1.225 1.51-.127-.01-.22.022-.355.04 0 0-.85-.197-.763-1.521 0 0 1.149-4.293 1.163-4.357.061-.355.242-.697.264-1.057 0 0-.097-.588-.25-.93-.053-.166.076-.408.197-.588h.084c.051-.02.024-.101.076-.124 1.212-.193 1.477.915 1.477.915s-.077.452-.189.717c0 0-.133.2-.73.603ZM90.917 64.451c-.353 0-.746.182-1.08.122.072-.16.276-.18.364-.327 0 0 .12.14.484-.353.092-.019.28-.122.412-.247.4-.547.474-.375.474-.375-.041.61-.253.748-.253.906 0 0 .066.274-.401.274Zm-1.237.105c-.3-.062-.486-.37-.404-.709.208-.064.486-.258.793-.157-.029.33-.097.623-.368.704-.02.04 0 .125-.02.162Zm2.819-6.838s.633-.263.625-.696a.085.085 0 0 1-.01-.029c-.307-1.195-2.654.257-2.654.257s-1.305.946-1.698.946c0 0-.256-.18 1.1-2.31 0 0 .53-.72 1.56-2.84 0-.379.225-.662-.18-1.07-.9-.288-1.752 1.492-1.752 1.492.044-.005.064-.03.11-.033-.007.055-.11.098-.063.158.05-.063.08-.149.158-.189.161.012.204-.181.374-.123 0 0-.368.929-.61 1.517 0 0-1.999 3.511-1.335 4.517.39.385 1.694-.667 1.694-.667s1.51-1.3 1.737-1.075c.033.043-1.33 1.998-1.33 1.998-.597 1.039-1.553 3.268-1.553 3.268-.427.138-.719.055-1.122-.081-1.389-.105-.542.931-.542.931.399.282.994.183 1.364.282-.462 1.848.853 2.097.853 2.097.659.1 1.25-.39 1.885-.36-.12 1.322-.857 2.264-.857 2.264-.038-.053-.232-.108-.235-.091-.034.066.087.163.05.234-.343.705.045 1.39.045 1.39 0-.002.051.17.188.19.236.027.678-.3.855-.655.6-1.261.844-1.955.844-1.955.224-.38.217-.999.44-1.377.174-.047.355-.152.51-.263.147-.776-.62-1.121-.62-1.121.061-.532.127-.972.328-1.382.33 0 1.064-.247 1.14-.268.433-.119.71.246.71.246.232.16.418.351.861.137.683-1.733-1.434-1.163-1.434-1.163s-1.004.26-1.072.107c0 0 .53-1.226.21-2.254 0 0-.266-.498-1.024-.296-.744.2-.755.623-.755.623.209.04.328.17.466.28.078.326.098.776 0 1.045-.142-.089-.367-.174-.483-.283 0 0-.806-.441-.88.622-.068.324-.082.662-.144.915-.112.164-.552.145-.777.095 1.182-4.266 3.023-5.03 3.023-5.03ZM123.08 66.933c-.233.703-.987 1.704-1.86 1.535-.498-.155-.537-.382-.488-.812.079-1.145 1.446-1.544 1.446-1.544.347.03.767 0 .933.15 0 0 .154.123-.031.671Zm.762-11.241c.078.017.043.122.074.17.083.151.326.176.44.295-.004.202-.161.362-.265.518-.313.474-.659 1.031-1.092 1.345-.019-.132.09-.413.061-.579.334-1.802.782-1.75.782-1.75Zm-3.986-2.887c-.062.071-.121.155-.24.165-.06.18-.054.395-.131.508 0 0 .169.558.254 1.038a35.48 35.48 0 0 0-.092 1.112c-.07 1.083-.293 2.216-.103 3.17.121.367.389.242.637.117.034-.008.003-.091.042-.097.227-.06.321-.305.562-.363.426-.33.478-.927.553-1.554.143-1.04.188-2.039.648-2.752-.471 2.664-.388 3.444-.388 3.444s0 .304-.13.854c0 0-.205.392-.166.764-.361.3-.771.328-1.184.426-1.053.237-1.892.88-2.922 1.12-.338.075-.674.23-1.02.177.091-.09.137-.238.227-.329-.018-.124.087-.225.101-.354-.125.108-.274.165-.433.234-.202.087-.38.27-.646.262-.098.093-.098.25-.218.314-.119.331-.205.708-.176 1.06.114.248.419.077.607.097 2-.273 2.714-.72 2.714-.72.907-.564 1.686-.74 1.686-.74 1.375-.282 1.856-.585 1.856-.585.675-.3 1.237-.488 1.693-.659 1.6-.675 2.093-.498 2.093-.498.157.166.171.36.069.555-.257.497-1.129.746-1.876.962-.136.044-.272.097-.404.097-.065 0-.112-.011-.163-.01-.524.01-.903.37-1.201.556-.129.079-.299.1-.426.162-.054.024-.109.091-.142.105-.053.025-.154.048-.244.08-.128.057-.387.172-.396.3-.013.16.279.257.41.299.219.052.461-.01.633.024.153-.04.302-.12.471-.132-.17.403-.47.923-.367 1.405.197.246.359.428.504.803.139.184.277.419.39.62-.246.14-.527.103-.778.145a2.252 2.252 0 0 0-.562.185c-.329.146-.643.277-.893.48-.086.074-.174.127-.259.199a2.61 2.61 0 0 0-.292.251c-.042.056-.09.13-.128.178-.041.057-.117.108-.15.156-.05.079-.082.144-.12.198 0 0-.319.31-.312.712-.012.072-.101.116-.149.163-.041.113.111.154-.012.266.095.11.06.23.149.304.092.255.27.528.27.528.7 1.102 1.316.909 1.316.909 1.035.093 1.994-.816 1.994-.816s.748-.647.896-2.185c.444.052.866.047 1.271-.05.054-.044.163-.078.235-.154.026-.025.103-.11.136-.144.063-.067.138-.093.17-.147.089-.152.041-.364.125-.56-.029-.124-.089-.219-.11-.35-.092-.01-.141-.098-.228-.134-.086-.038-.202-.022-.303-.043-.087-.015-.153-.07-.224-.096-.118-.043-.226-.03-.318-.09-.152-.001-.298.064-.435.022-.048-.013-.017.068-.061.055-.115-.076-.334.018-.46-.099-.069-.056-.105-.29-.153-.409-.112-.269-.281-.43-.431-.647-.062-.092-.095-.195-.159-.298-.088-.15-.378-.466-.336-.633.009-.046.171-.16.217-.245a.722.722 0 0 1 .27-.3c.084-.175.201-.347.322-.515.094-.066.324-.168.382-.27.136-.221.081-.663-.074-.728.347-.01.476.023.74-.05.195-.047.401-.073.482-.088.13-.102.329-.057.329-.057.174.232.338-.035.569.063.094-.05.181-.132.274-.209.08-.073.195-.115.266-.189.083-.094.106-.213.243-.223.144-.17.213-.275.264-.46.014-.041.081-.14.079-.238 0-.11.018-.415.005-.548-.031-.225-.212-.44-.37-.566a1.275 1.275 0 0 0-.774-.242c-1.044-.016-2.291.541-3.105.735.066-.158.24-.474.455-.337.041.066-.054.074-.045.157.214-.087.335-.232.562-.334.051-.1.155-.103.244-.195.02-.05.053-.086.08-.126.133 0 .166-.103.295-.103 0-.045.009-.097.013-.13.044-.022.099-.012.142-.046.329-.306.853-.544.853-.544.309-.301.343-.657.343-.657.038-.326-.142-.66-.346-.886-.031-.034-.098-.091-.134-.132-.044-.044-.069-.103-.109-.13-.092-.078-.204-.072-.245-.172-.05-.105.116-.22.192-.3.224-.26.448-.51.71-.686.281-.09.661-.176.729-.715a1.106 1.106 0 0 0-.035-.27c-.011-.042-.051-.115-.053-.164a.391.391 0 0 0-.117-.236c-.142-.127-.347-.141-.464-.234-.183-.141-.155-.462-.019-.72.04-.078.08-.16.11-.238.073-.147.167-.292.217-.427.068-.189.038-.484-.065-.592-.26-.254-.846.126-.926.31-.23.294-.134.69-.216 1.068 0 0-.321.983-.647 1.854-.109.097-.179.21-.275.313-.075.082-.142.18-.217.261-.079.083-.16.17-.256.217a.7.7 0 0 1-.238.257c-.012.043-.031.084-.048.127-.336.308-.464.777-.694 1.23.069-.352.169-.712.217-1.098.042-.367.053-.827.131-1.183.082-.343.213-.706.261-1.023 0-.407-.144-.71-.549-.627-.25.053-.534.14-.637.341-.029-.031-.041.009-.088-.008-.353.262-.65.605-.899.99-.094-.055-.109-.177-.16-.26 0 0-.416-.765-.962-.355ZM107.385 65.029c-.016-.07-.052-.106-.087-.166-.223-.168-.182-.361-.415-.403-.019-.083.026-.194-.043-.25.003-.057.069-.046.077-.105.004-.075-.034-.114-.046-.17.072-.183.103-.404.312-.455.115.052.267.015.385-.019.106.058.261.077.36.116 0 0 .069 0 1.927 1.726.175.181.427.397.479.753.18 1.197-.964 1.178-.964 1.178-.121-.023-.224-.149-.353-.108 0 0-.586-.15-1.632-2.097ZM102.695 66.455s-.507.464-1.69.735c-.518.053-.705-.008-.854-.107.033-.053.081-.1.117-.15-.056-.229.059-.5-.03-.759.046-.088.151-.106.221-.162.104.048.293.017.346.114.842.202 2.134-1.554 2.134-1.554s1.083-1.513 1.212-2.944l-.386.118s-2.247.75-2.673-.134c-.017-.012.022-.102-.028-.214-.037-.083-.17-.143-.175-.256-.006-.067.046-.146.07-.208.077-.245.357-.495.357-.495.068-.043.13-.118.189-.146.018-.007.629-.245.955-.06.016.046.025.053.01.11 0 0 1.765.15 1.991-.694.328-1.868.141-2.172.141-3.897.011-.4.047-.47.042-.839 0 0 .009-.362.037-.783.079-.266.27-.494.572-.534.03-.012.193-.038.198-.07.226.05.394.235.618.156.059.079-.015.117.023.172.022.018.074 0 .094.018.019.014-.008.062.004.081.026.042.097.02.114.042.029.029.017.089.048.15.025.042.073.011.103.1.04.064.048.149.055.19.151.495.068.677.068.677l-.392 1.142a2.078 2.078 0 0 0-.094.68c0 1.243-.242 2.222-.242 2.222.465-.109 1.17-.538 1.17-.538s.649-.35 1.267.244c.884.751.135 1.288.135 1.288-.101.077-.14.153-.301.153-.066.022-.072.105-.133.117-.098.02-.148-.103-.242-.089-.062.012-.088.085-.145.108 0 0-.756.112-.885-.065-.028.005-.099.018-.12.034-.385-.016-.935.313-1.054.487 0 0-.081.69-.345 1.971 0 0-.516 2.166-2.502 3.59ZM63.335 76.865v-4.536h.601v1.864h2.356v-1.864h.601v4.536h-.6v-2.14h-2.357v2.14h-.6ZM68.618 74.666c0 .547.147.979.44 1.293.294.314.663.47 1.107.47.452 0 .824-.157 1.115-.475.29-.319.437-.768.437-1.352 0-.37-.061-.692-.186-.967a1.42 1.42 0 0 0-.548-.64 1.47 1.47 0 0 0-.808-.229c-.425 0-.792.147-1.097.438-.307.293-.46.78-.46 1.462Zm-.617-.01c0-.753.202-1.34.607-1.767.403-.427.925-.639 1.563-.639.419 0 .796.1 1.132.3.336.2.592.478.767.836.177.358.265.763.265 1.217 0 .46-.093.872-.278 1.235a1.912 1.912 0 0 1-.789.824c-.34.186-.707.28-1.099.28-.428 0-.81-.103-1.145-.31a1.986 1.986 0 0 1-.764-.845 2.546 2.546 0 0 1-.259-1.132ZM73.42 76.865v-4.536h.6v1.864h2.359v-1.864h.598v4.536h-.598v-2.14H74.02v2.14h-.6ZM79.073 75.005h1.55l-.473-1.263a11.111 11.111 0 0 1-.327-.946 6.359 6.359 0 0 1-.25.875l-.5 1.334Zm-1.303 1.86 1.745-4.536h.651l1.85 4.535h-.682l-.523-1.372h-1.908l-.498 1.372h-.635ZM82.886 76.865h.602v-4.536h-.602v4.536ZM89.864 72.329h.599v2.62c0 .455-.051.817-.156 1.085a1.311 1.311 0 0 1-.557.655c-.27.169-.624.253-1.06.253-.425 0-.774-.074-1.043-.22a1.254 1.254 0 0 1-.579-.635c-.116-.279-.172-.657-.172-1.139v-2.62h.599v2.618c0 .394.035.685.109.872.074.186.2.33.379.43.175.104.396.154.654.154.442 0 .756-.101.943-.302.19-.2.284-.584.284-1.154v-2.617ZM91.743 76.865v-4.536h.616l2.383 3.56v-3.56h.575v4.536H94.7L92.318 73.3v3.564h-.575ZM96.72 76.865h.602v-4.536h-.602v4.536ZM99.96 76.865l-1.755-4.536h.65l1.18 3.296c.095.264.174.512.237.744a9.57 9.57 0 0 1 .245-.744l1.225-3.296h.614l-1.771 4.536h-.624ZM103.195 76.865v-4.536h3.284v.534h-2.684v1.39h2.512v.533h-2.512v1.543h2.79v.536h-3.39ZM108.312 74.33h1.29c.274 0 .49-.03.644-.087a.684.684 0 0 0 .355-.272.719.719 0 0 0 .122-.409.676.676 0 0 0-.234-.527c-.157-.14-.405-.209-.742-.209h-1.435v1.503Zm-.601 2.535v-4.536h2.014c.403 0 .712.04.921.121.21.082.378.226.505.432.124.207.189.435.189.685 0 .323-.105.595-.314.815-.208.22-.53.361-.964.422.158.075.278.152.358.226.178.16.344.36.5.601l.785 1.234h-.749l-.6-.942a8.647 8.647 0 0 0-.435-.625 1.37 1.37 0 0 0-.305-.304.878.878 0 0 0-.274-.121 1.802 1.802 0 0 0-.334-.022h-.696v2.014h-.601ZM112.369 75.403l.564-.048c.026.228.089.415.187.561.098.148.249.265.456.356.207.09.439.134.697.134.228 0 .429-.033.605-.102a.847.847 0 0 0 .391-.281.655.655 0 0 0 .128-.388.569.569 0 0 0-.126-.372c-.083-.105-.218-.194-.409-.267a8.167 8.167 0 0 0-.806-.221c-.416-.1-.706-.194-.872-.282a1.238 1.238 0 0 1-.485-.425 1.044 1.044 0 0 1-.158-.565c0-.23.067-.444.196-.643.129-.201.32-.352.567-.455.249-.102.526-.155.831-.155.336 0 .632.055.889.162.256.109.454.269.592.477a1.4 1.4 0 0 1 .22.716l-.575.041c-.03-.285-.135-.498-.314-.643-.178-.145-.441-.22-.788-.22-.362 0-.627.068-.792.2-.166.134-.249.294-.249.482 0 .162.058.298.175.402.115.106.415.213.905.323.487.11.82.206 1.002.29.264.12.459.276.585.46.125.187.188.402.188.645 0 .242-.067.469-.207.68a1.35 1.35 0 0 1-.594.498 2.073 2.073 0 0 1-.872.179c-.411 0-.753-.061-1.031-.18a1.464 1.464 0 0 1-.652-.541 1.564 1.564 0 0 1-.248-.818ZM117.189 76.865h.6v-4.536h-.6v4.536ZM120.293 76.865v-4.002h-1.497v-.534h3.59v.534h-1.494v4.002h-.599ZM124.573 76.865v-1.923l-1.744-2.613h.73l.889 1.369c.164.255.32.507.461.761.139-.233.303-.5.495-.799l.879-1.331h.701l-1.81 2.613v1.923h-.601ZM36.461 76.623a2.87 2.87 0 0 1-1.562-1.56c-.69-1.666-2.606-3.583-4.271-4.274a2.87 2.87 0 0 1-1.559-1.564 2.868 2.868 0 0 1-.001-2.21c.69-1.665.69-4.376 0-6.04a2.89 2.89 0 0 1 1.563-3.773c1.667-.687 3.584-2.604 4.274-4.27a2.89 2.89 0 0 1 3.771-1.56c1.665.69 4.377.69 6.043 0a2.87 2.87 0 0 1 2.208.005c.714.297 1.269.85 1.563 1.56.69 1.666 2.606 3.583 4.272 4.272a2.89 2.89 0 0 1 1.56 3.772c-.69 1.665-.691 4.376-.001 6.042a2.892 2.892 0 0 1-1.563 3.773c-1.666.688-3.584 2.606-4.275 4.271a2.855 2.855 0 0 1-1.563 1.558 2.868 2.868 0 0 1-2.208.003c-1.665-.69-4.376-.69-6.043 0a2.872 2.872 0 0 1-2.208-.005Zm-2.057-23.898c-.633 1.524-2.454 3.346-3.98 3.978a3.433 3.433 0 0 0-1.858 4.479c.632 1.526.63 4.102-.001 5.626a3.407 3.407 0 0 0 .004 2.623c.35.85 1.007 1.51 1.85 1.86 1.526.632 3.348 2.455 3.979 3.98a3.432 3.432 0 0 0 4.48 1.857c1.523-.632 4.102-.632 5.626.002a3.433 3.433 0 0 0 4.48-1.855c.634-1.525 2.456-3.347 3.981-3.979a3.436 3.436 0 0 0 1.857-4.481v.002c-.631-1.527-.631-4.104.001-5.628a3.431 3.431 0 0 0-1.854-4.48c-1.525-.632-3.347-2.455-3.976-3.98a3.414 3.414 0 0 0-1.858-1.853 3.41 3.41 0 0 0-2.623-.005c-1.525.632-4.104.632-5.628 0a3.432 3.432 0 0 0-4.48 1.854Z" clip-rule="evenodd"/><path fill="#007DBD" fill-rule="evenodd" d="M34.248 76.132c-.757-1.83-2.86-3.934-4.69-4.693a3.163 3.163 0 0 1-1.707-4.127c.758-1.83.758-4.805.003-6.634a3.156 3.156 0 0 1 1.71-4.124c1.829-.759 3.933-2.862 4.691-4.69a3.16 3.16 0 0 1 4.126-1.708c1.83.758 4.805.758 6.634.002 1.61-.666 3.46.101 4.126 1.71.757 1.83 2.86 3.935 4.69 4.692a3.134 3.134 0 0 1 1.704 1.71c.324.784.325 1.64.004 2.416-.76 1.827-.76 4.804-.004 6.633a3.16 3.16 0 0 1-1.71 4.126c-1.829.759-3.933 2.862-4.69 4.69a3.164 3.164 0 0 1-4.127 1.709c-1.83-.758-4.806-.76-6.634-.002a3.16 3.16 0 0 1-4.126-1.71ZM33.69 51.63c-.692 1.67-2.69 3.667-4.361 4.358a3.771 3.771 0 0 0-2.04 4.922c.69 1.672.69 4.495-.002 6.166a3.775 3.775 0 0 0 2.039 4.927c1.671.692 3.668 2.69 4.357 4.361a3.773 3.773 0 0 0 4.923 2.04c1.673-.69 4.498-.69 6.167.003 1.92.795 4.131-.12 4.925-2.04.692-1.67 2.69-3.666 4.362-4.357a3.775 3.775 0 0 0 2.04-4.926c-.692-1.67-.692-4.495.002-6.166a3.742 3.742 0 0 0-.004-2.883 3.736 3.736 0 0 0-2.035-2.04c-1.67-.692-3.666-2.69-4.358-4.361a3.774 3.774 0 0 0-4.924-2.042c-1.67.693-4.495.692-6.167 0a3.773 3.773 0 0 0-4.924 2.038Z" clip-rule="evenodd"/><path fill="#007DBD" fill-rule="evenodd" d="M31.244 58.769s-.042.06-.315-.164c-.101-.092-.064-.218-.064-.218.201-.244.359-.218.359-.218.038.02.077.025.116.04a.38.38 0 0 1 .123.204s-.023.183-.22.356ZM32.974 57.507c.094-.134.276.035.276.035l.587.567.206.22c.107.116.233.184.33.265.115.095.245.215.353.328.076.079.178.144.225.246-.093.067-.202.06-.287.094.007.004.004.004.02.001-.008.03-.05.022-.06.046.024.001.045-.006.069-.01.003.007 0 .016.012.026.049.001.097-.022.148 0-.016.013-.024.02-.023.037.047.022.095-.008.142.008-.035.015-.095-.007-.113.028.057.034.122-.033.174.03.063 0 .113.022.173.016 0 0 .088.102.175-.027.047-.14-.038-.256-.038-.256s-.13-.152-.566-.481a1.751 1.751 0 0 0-.51-.444s-.115-.102-.17-.184c-.486-.515-.68-.647-.68-.647-.189-.306-.326-.254-.326-.254-.117.05-.13.122-.17.181-.082-.13-.014-.626-.014-.626.203-.601-.117-.486-.117-.486s-.245.055-.212.572c0 0-.146.975-.146 1.357 0 0-.003.521.143 1.166 0 0 .1.446.22.603.055.076.2.316.311.505a.354.354 0 0 1-.167-.105s-.589-.633-.638-.778c0 0 .094-.417-.24-.497 0 0-.036-.005-.081.015-.085.034-.26.132-.28.156-.042.035-.021.09-.028.148 0 0 .036.137.32.271a.068.068 0 0 1 .01.004c.038.017.667.758.667.758.673.811.793.296.793.296-.007-.177-.01-.35-.093-.493-.16-.169-.355-.36-.378-.396-.254-.26-.553-1.472-.234-2.374.124.413.28.829.438 1.24 0 0 .02.237.203.376 0 0 .085.038.15-.053.049-.174-.047-.265-.047-.265-.146-.16-.114-.224-.114-.224.208.139.36.031.36.031.197-.164-.053-.358-.053-.358-.058-.023-.103-.065-.153-.092-.092-.05-.146-.108-.146-.108-.088-.06-.064-.014-.096-.025-.043-.018-.068-.071-.106-.081-.023.011.009.037-.012.04-.033-.017-.042-.063-.07-.08.052.092.124.177.152.27-.047.022-.057.064-.075.097-.052-.124-.072-.237-.132-.375-.033-.121-.107-.235-.11-.343 0 0 .001-.022.028.03ZM45.631 56.01c0-.02-.009-.032-.014-.052-.05-.06-.026-.109-.086-.136 0-.024.02-.051.004-.072.003-.015.023-.006.027-.023.007-.02 0-.032-.002-.047.034-.046.056-.104.117-.104.029.022.07.022.106.021.027.022.065.037.089.056 0 0 .02.004.41.592.036.062.088.14.08.238-.03.336-.338.255-.338.255-.031-.014-.052-.053-.092-.051 0 0-.146-.08-.3-.677ZM44.264 56.088s-.17.091-.507.09c-.144-.02-.192-.05-.225-.089.012-.011.027-.02.042-.032 0-.066.048-.131.042-.207.017-.02.046-.02.072-.03.023.021.075.025.084.055.215.107.682-.281.682-.281s.392-.338.523-.718l-.113.005s-.659.055-.717-.212c-.001-.005.013-.026.007-.06-.005-.025-.036-.05-.031-.081.002-.018.024-.037.033-.053a.416.416 0 0 1 .13-.11c.021-.007.042-.023.061-.027.006 0 .186-.026.263.046 0 .014.003.017-.004.032 0 0 .468.157.584-.058.21-.483.182-.58.296-1.047.029-.109.042-.126.066-.225 0 0 .026-.099.062-.21.039-.067.105-.117.19-.108.009-.001.053.003.058-.006.058.028.09.09.158.082.01.027-.012.032-.003.05.002.005.017.003.021.01.005.005-.005.015-.003.023.006.012.024.01.029.018.004.01-.002.027.002.045.003.012.02.007.021.035.007.018.002.041.002.054.01.144-.027.187-.027.187l-.18.286a.534.534 0 0 0-.07.177c-.082.337-.212.585-.212.585.135.002.353-.067.353-.067s.196-.053.33.15c.187.262-.051.357-.051.357-.033.015-.049.033-.092.022-.018.002-.026.024-.043.024-.028-.002-.035-.04-.06-.04-.018 0-.03.016-.046.018 0 0-.214-.019-.237-.075a.15.15 0 0 0-.035 0 .456.456 0 0 0-.319.065s-.065.182-.222.511c0 0-.283.553-.914.809ZM49.29 60.173c-.186.051-.507.036-.598-.177-.039-.129.003-.17.103-.22.256-.15.54.085.54.085.044.078.111.163.103.22 0 0-.004.05-.148.092Zm2.514-1.47c.008.018-.022.026-.026.041-.02.039.01.093.001.136-.044.03-.1.018-.15.019-.146.003-.316.008-.444-.039.024-.023.1-.04.133-.069.432-.191.486-.088.486-.088Zm.039-1.27c-.026-.003-.05-.006-.071-.027-.046.012-.091.046-.127.043 0 0-.095.119-.185.207a15.94 15.94 0 0 0-.251.14c-.243.144-.517.26-.693.439-.059.079.004.12.067.154.007.005.02-.013.026-.006.048.04.113.023.159.068.133.043.27-.033.413-.107.244-.12.464-.256.683-.262-.638.286-.791.418-.791.418s-.065.043-.204.096c0 0-.112.013-.188.076-.113-.034-.181-.118-.26-.195-.206-.188-.464-.273-.664-.46-.067-.06-.148-.11-.186-.192.033.007.07-.007.104 0 .022-.021.06-.013.089-.028-.04-.013-.074-.036-.112-.059-.05-.031-.114-.042-.15-.1-.034-.007-.068.016-.1-.002a.657.657 0 0 0-.25.118c-.04.06.044.1.067.144.347.387.545.474.545.474a1.6 1.6 0 0 1 .407.252c.257.253.392.313.392.313.163.102.284.193.386.268.377.244.41.374.41.374-.012.057-.052.087-.109.094-.142.018-.323-.133-.477-.26-.03-.023-.06-.043-.08-.072-.01-.015-.013-.026-.02-.038-.08-.109-.211-.138-.293-.175-.036-.017-.065-.05-.098-.068-.012-.006-.035-.01-.044-.015-.01-.007-.03-.026-.05-.04-.032-.019-.093-.058-.123-.042-.035.02-.015.097-.002.132.018.055.066.097.085.14.03.027.069.046.096.08-.11.022-.265.035-.353.126-.025.078-.039.138-.099.224-.019.056-.05.12-.077.172-.063-.033-.097-.097-.143-.145a.759.759 0 0 0-.118-.092c-.081-.049-.155-.098-.235-.121-.027-.008-.052-.02-.079-.028a.576.576 0 0 0-.096-.023c-.02-.003-.04-.003-.058-.004-.017 0-.04-.008-.055-.009-.023 0-.043.004-.06.002 0 0-.11-.02-.197.037-.017.009-.038-.004-.058-.007-.028.008-.015.044-.057.034-.01.036-.04.048-.044.077-.039.056-.073.134-.073.134-.133.308-.002.414-.002.414.128.234.462.307.462.307s.248.067.598-.125a.884.884 0 0 0 .197.264c.015.004.037.024.064.03.011.001.038.003.053.007.02.003.038.016.055.015.046-.005.082-.044.137-.055.023-.025.034-.052.059-.075-.013-.02 0-.042-.004-.067-.005-.023-.026-.046-.035-.072-.01-.02-.007-.042-.012-.062-.008-.03-.026-.053-.028-.08-.02-.032-.055-.056-.067-.09-.003-.013-.016.007-.02-.004-.003-.038-.054-.07-.047-.113.004-.025.048-.067.067-.093.04-.063.052-.123.075-.184.01-.027.029-.05.039-.079.021-.041.046-.148.087-.164.011-.005.061.013.083.011.063-.007.106.015.106.015a.754.754 0 0 1 .155-.005c.03.009.085.044.114.042.067-.004.154-.08.145-.122.054.072.065.105.116.151.04.035.075.075.09.09.04.013.062.06.062.06-.025.073.053.068.068.132.024.014.055.02.083.028.028.008.054.025.08.028.032.006.06-.006.085.022a.29.29 0 0 0 .135-.01c.01-.004.041-.005.063-.018.021-.016.092-.056.116-.078a.261.261 0 0 0 .07-.162.347.347 0 0 0-.062-.201c-.147-.225-.45-.41-.609-.557.044-.01.136-.018.139.05-.008.018-.024-.002-.04.012.049.033.098.039.153.073.028-.005.046.016.077.022a.161.161 0 0 1 .039 0c.02.028.046.02.065.046.01-.004.02-.01.029-.017.013.01.017.023.03.025.114.027.241.106.241.106.11.02.19-.023.19-.023.075-.04.12-.127.139-.204l.008-.047c.003-.016.011-.03.012-.042.004-.03-.014-.053 0-.078.016-.025.066-.008.094-.003.09.011.175.023.249.052.061.047.135.116.26.054.012-.008.035-.03.052-.046.007-.01.017-.03.027-.037a.109.109 0 0 0 .035-.059c.007-.048-.021-.096-.018-.133.003-.06.076-.1.15-.11a.447.447 0 0 0 .068-.01c.04-.006.085-.006.122-.015.05-.014.108-.063.117-.1.017-.092-.15-.162-.2-.153-.096-.005-.167.07-.26.109 0 0-.257.073-.492.131-.035-.01-.07-.009-.103-.013-.031-.005-.061-.006-.09-.01-.03-.005-.058-.008-.083-.023-.031.006-.059-.002-.088-.012a.305.305 0 0 1-.034.006c-.115-.025-.235.014-.366.032.087-.038.178-.067.267-.114.086-.044.184-.108.272-.142.085-.034.181-.06.256-.095.09-.058.13-.133.056-.208-.05-.046-.108-.093-.167-.087.004-.01-.006-.007-.01-.02a1.005 1.005 0 0 0-.343-.048c-.002-.027.023-.049.035-.07 0 0 .1-.203-.065-.259ZM37.453 53.95c.025.178-.059.24-.059.24-.071.065-.152.066-.26.09-.019-.009-.019-.041-.045-.056a.365.365 0 0 1-.203-.114c.006-.011.01-.01.003-.014-.003-.006-.085-.094-.125-.165-.059-.107-.006-.18.004-.197 0 0 .027-.042.186-.053a.646.646 0 0 1 .086-.004c.033 0 .092.013.188.026 0 0 .18.05.223.244M37.471 55.078s-.115.129-.075.504c.018.114.022.145.03.213a.76.76 0 0 0 .07.196c.186-.276.223-.666.268-1.04.032.083-.032.214.047.268.009.017-.012.046.014.045-.03.027.006.095-.026.125.001.012.008.014.015.017-.026.068.017.172-.006.213.002.022.005.026.003.05 0 0 .056.434-.009.565-.106.395-.212.438-.212.438-.032.004-.053.017-.085.03 0 0-.217 0-.272-.327l.037-1.13c-.003-.091.02-.185.004-.272 0 0-.057-.138-.112-.214-.023-.038-.004-.103.015-.154l.02-.005c.01-.007 0-.027.012-.035.286-.115.41.14.41.14s.009.114-.005.186c0 0-.02.057-.143.187ZM39.291 55.323c-.087.02-.172.087-.259.091.01-.044.06-.06.072-.103 0 0 .038.03.097-.112a.245.245 0 0 0 .087-.082c.067-.155.096-.118.096-.118.024.15-.02.195-.01.235 0 0 .032.063-.083.089Zm-.297.096c-.077.002-.137-.064-.139-.15.047-.028.107-.092.185-.084.011.081.011.158-.05.193-.004.01.008.03.004.041Zm.302-1.828s.138-.1.112-.206l-.003-.006c-.143-.274-.634.213-.634.213s-.264.305-.36.328c0 0-.072-.031.137-.627 0 0 .09-.206.22-.78-.021-.094.018-.176-.103-.252-.236-.02-.344.462-.344.462.01-.003.015-.01.025-.013.002.014-.021.03-.007.041.009-.017.012-.04.027-.053.042-.009.042-.058.085-.052l-.062.404s-.29.97-.07 1.178c.116.072.375-.26.375-.26s.292-.402.363-.358c.012.008-.21.561-.21.561-.089.286-.196.885-.196.885-.095.058-.174.054-.278.045-.345.052-.08.258-.08.258.115.044.253-.013.35-.009-.01.478.327.462.327.462.166-.011.283-.165.437-.193.048.329-.08.6-.08.6-.011-.011-.061-.014-.062-.008-.005.018.032.035.025.053a.41.41 0 0 0 .091.339c0-.001.02.038.055.035.061-.008.15-.112.17-.208a6.76 6.76 0 0 0 .1-.527c.031-.105-.005-.254.026-.359a.413.413 0 0 0 .11-.094c-.008-.197-.214-.238-.214-.238a1.088 1.088 0 0 1 0-.354c.083-.02.247-.122.266-.131.098-.053.185.02.185.02.066.025.122.062.22-.017.066-.46-.417-.203-.417-.203s-.23.122-.256.087c0 0 .06-.328-.075-.561 0 0-.094-.106-.266-.014-.171.091-.152.195-.152.195.055-.003.091.023.13.042a.516.516 0 0 1 .06.254c-.04-.014-.099-.021-.133-.041 0 0-.222-.063-.18.2 0 .084.019.166.015.233-.017.046-.125.067-.183.066.049-1.107.454-1.397.454-1.397ZM33.051 67.621l-1.688.614-.077-.216.776-.281-.295-.808-.776.283-.08-.216 1.69-.615.078.215-.709.259.295.808.708-.259.078.216ZM32.583 68.701c-.373.259-.475.55-.301.872.21.293.515.328.913.105.377-.254.477-.541.298-.862-.213-.297-.517-.335-.91-.115Zm-.121-.194c.53-.287.933-.22 1.214.196.25.434.132.827-.356 1.176-.517.28-.917.21-1.199-.205-.25-.436-.137-.824.341-1.167ZM35.294 70.689 34 71.937l-.16-.165.595-.573-.596-.62-.595.575-.16-.165 1.294-1.249.16.166-.544.524.597.618.543-.524.159.165ZM36.067 71.619l-.678.5.421.295.257-.795Zm-1.29.961-.188-.132 1.539-1.117.208.145-.539 1.817-.203-.141.16-.514-.543-.38-.434.322ZM37.508 72.151l-.805 1.607-.197-.098.805-1.608.197.1ZM39.706 74.102c-.125.413-.399.575-.816.489-.388-.111-.539-.37-.454-.773l.292-1.151.213.055-.273 1.08c-.075.32.017.518.282.59.276.057.458-.067.54-.372l.277-1.09.22.057-.28 1.115ZM41.761 73.144l-.116 1.793-.254-.016-.747-1.499-.093 1.445-.221-.014.116-1.794.27.017.73 1.515.094-1.462.221.015ZM42.554 73.087l.132 1.792-.221.016-.132-1.792.22-.016ZM44.491 72.753l-.211 1.882-.24.05-.957-1.633.24-.05.786 1.412.142-1.61.24-.051ZM45.532 74.294l-.668-1.668 1.116-.447.08.2-.91.366.205.517.844-.338.08.2-.842.338.227.568.927-.371.074.182-1.133.453ZM47.45 72.288c.194-.114.232-.262.118-.445-.108-.173-.246-.206-.412-.102l-.478.3.33.525.442-.278Zm-.115 1.217-.953-1.522.651-.409c.308-.186.545-.144.714.124.11.165.123.33.039.494.132-.039.249.024.35.186l.186.264c.046.078.1.11.159.102l.02.03-.23.143c-.057-.048-.144-.163-.263-.342-.114-.191-.255-.234-.427-.126l-.464.292.406.646-.188.118ZM48.494 70.685c-.175.17-.199.33-.07.48.085.091.185.103.297.03l.427-.234c.23-.121.427-.093.593.088.212.246.17.518-.126.814-.17.158-.328.234-.477.233a.557.557 0 0 1-.42-.214l.151-.138c.183.19.388.188.619-.007.203-.197.242-.367.116-.512-.09-.137-.246-.135-.472.009l-.3.166c-.215.115-.393.093-.54-.066-.227-.27-.211-.532.045-.785.307-.284.594-.292.859-.022l-.157.145c-.163-.16-.343-.157-.545.013ZM49.332 69.517l1.383 1.148-.14.17-1.383-1.149.14-.17ZM50.362 68.004l.183.116-.296.471 1.34.839-.121.194-1.34-.838-.296.47-.182-.114.712-1.138ZM52.404 67.825l-.66-.263-1.24.176.099-.245.983-.117-.633-.763.098-.244.777.988.658.264-.082.204ZM41.18 60.349l-.035.316 3.298-.002s.298-.031-.004-.37l-3.05-.003s-.185-.022-.209.059ZM45.734 65.105c.806-.082.464-.43.464-.43l-1.919-.002-.03.2c.119.171.606.32 1.485.232ZM40.002 65.188s.353.126 1.017-.326c.042-.036.093-.062.097-.226a.216.216 0 0 0-.184-.174c-.179-.011-.743-.017-.743-.017s-.595-.038-.607.255c-.015.321.03.384.42.488ZM39.848 66.023c-.414-.106-.74.354-.74.354.275.378.614.603.614.603.529-.46.529-.592.529-.592s.067-.221-.403-.365ZM42.13 64.824s.023-.431-.31-.39c0 0-.304-.037-.325.267-.006.29-.156.48-.156.48l-.55.244s-.2.08-.143.348c.097.203.364.142.364.142s.736-.105 1.069-.405l.05-.686ZM44.439 66.818l-.931-.097c-.407-.054-.983-.008-1.2-.317 0 0-.647-.291-.776.098-.122.368.216.645.624.66.15-.002 2.033.168 2.033.168s.61.067.654-.228c-.045-.298-.404-.284-.404-.284ZM43.083 65.581c.248.033.611-.115.695-.664.025-.375-.497-.415-.497-.415s-.517-.057-.655.453c-.106.546.21.592.457.626ZM41.147 69.517c-.053 0-.107.027-.16.08-.051.053-.078.143-.078.27 0 .03.014.065.044.101.029.036.074.054.134.054a.21.21 0 0 0 .163-.082.33.33 0 0 0 .07-.222.224.224 0 0 0-.044-.148.162.162 0 0 0-.13-.053Z" clip-rule="evenodd"/><path fill="#007DBD" fill-rule="evenodd" d="m45.162 70.185-.236-.428a6.565 6.565 0 0 0 3.398-5.749 6.564 6.564 0 0 0-6.557-6.557 6.565 6.565 0 0 0-6.558 6.557 6.57 6.57 0 0 0 3.345 5.719l-.24.427a7.06 7.06 0 0 1-3.593-6.145c0-3.886 3.16-7.047 7.046-7.047 3.884 0 7.045 3.161 7.045 7.046 0 2.57-1.399 4.936-3.65 6.177Zm-2.536-2.624s-.398-.033-.375.202c.021.22.458.233.458.233h1.374s.184.001.186.21c-.018.207-.512.243-.512.243s-.99.11-1.388-.01c0 0-1.478-.806-1.151-1.272 0 0 .007-.318-.4-.34-.322-.018-.579.068-.765.33.167.309.597.561.778.69 0 0 .633.416.825.522 0 0 .165.087.014.202-.063.04-.285-.045-.285-.045s-.747-.211-2.049-1.236c0 0-1.912-1.727-1.826-3.906 0 0 .03-.372.347-.386.32-.015.393.386.393.386.068 1.88.543 2.412.596 2.469.002.001.357-.067.467-.228 0 0 .23-.242.006-.422-.47-.38-.424-1.238-.424-1.238l.45-.149.013-.006c.133-.02.3-.03.547-.02l1.286.01s.084-.014.186.148h.65s.215-.072.188-.378c-.037-.222-.289-.29-.289-.29H39.391c-.385 0-.598-.12-.658-.158-.16-.124-.337-.3-.295-.444.084-.33.457-.459.69-.293l.238.166s.145.163.637.163l2.015.003s.2-.009.197-.253c-.004-.24-.25-.237-.25-.237l-2.814-.002s-.253-.003-.18-.184l.165-.276c.029-.044.155-.186.577-.186h6.8s-.105-.686-1.005-1.488c0 0-.701-.685-1.741-1.11 0 0-.417-.162-1.04-.29-.565-.145-.524-.456-.524-.456s.015-.262.46-.206c.201.025.917.088 1.916.557 0 0 2.102 1.009 2.716 2.97 0 0 .084.26.163.58H43.36s-.327-.002-.332.29c-.004.28.249.288.249.288l3.548.014s.224.024.528-.191c0 0 .19-.139.284.103 0 0 .139.352.025.672l-4.284.031s-.29.017-.292.345c.018.332.328.306.328.306l3.538-.013-.004.003s.404-.033.628.307c.016.063.02.136.012.224-.02.195-.55.396-.55.396s-.62.263-.554.555c.033.168.33.358.33.358s.21.195-.016.479c-.288.256-.654-.068-.654-.068s-.272-.512-.773-.527c-.377 0-.537.187-.537.187s-.187.228-.66.162c0 0-.46-.13-.471.128-.01.13.149.215.294.238.144.024.949-.02 1.26.056.313.075.546.126.707.416.164.365.014.496-.12.58 0 0-.352.274-1.095.2l-2.122-.114Zm1.675 2.045h-.657l-.072.23c.078-.026.137-.045.177-.055a.458.458 0 0 1 .125-.015c.122 0 .222.034.302.1.079.066.117.167.117.3a.557.557 0 0 1-.072.283.603.603 0 0 1-.23.218.862.862 0 0 1-.435.093c-.173 0-.304-.032-.391-.097-.087-.065-.138-.17-.16-.314l.423-.047v.007c0 .066.015.116.05.151.033.035.08.054.139.054a.233.233 0 0 0 .186-.094.34.34 0 0 0 .075-.222v-.004c0-.12-.055-.182-.166-.182a.27.27 0 0 0-.205.094l-.393-.056.23-.75h1.027l-.07.306Zm-1.74 1.13h-.428l.218-.945c-.13.075-.281.134-.46.174l.076-.34a1.85 1.85 0 0 0 .568-.349h.363l-.338 1.46Zm-.923-.45a.781.781 0 0 1-.266.347.721.721 0 0 1-.43.127.64.64 0 0 1-.351-.088.366.366 0 0 1-.167-.259l.41-.037c.016.095.066.144.148.144.06 0 .112-.03.154-.087a.897.897 0 0 0 .12-.277l-.005-.003a.499.499 0 0 1-.317.11c-.12 0-.22-.04-.305-.12a.398.398 0 0 1-.127-.302c0-.145.059-.277.172-.391.115-.116.272-.174.469-.174.179 0 .323.052.427.155a.562.562 0 0 1 .157.418c0 .143-.031.288-.09.436Zm.541-10.951c.084.05.094.172.094.254 0 0-.004.16.31.209.326.052.537-.048.66-.392 0 0 .038-.093.286-.071 0 0 .938.071 1.711 1.06 0 0 .561.653.27.825l-4.917.034s-.644-.034-.469-.336c.345-.6.777-1.09 1.303-1.36 0 0 .567-.33.752-.223Zm-4.071 8.055s-2.518-2.458-1.016-5.7c0 0 1.05-2.53 3.791-3.496 0 0 .181-.069.251.074.037.127-.182.224-.182.224s-1.217.656-1.627 1.068c0 0-1.093.951-1.373 1.473 0 0-.336.544-.357.705 0 .119.1.28.348.185a.817.817 0 0 0 .41-.372c.036-.068.99-1.464 2.216-2.34 0 0 .508-.398.898-.34.186.058.093.26-.013.302 0 0-.235.08-.558.307-.652.536-1.104 1.105-1.568 1.744 0 0-.56.882-1.084 1.07 0 0-.612.218-.793.411-.157.166-.348.337-.312 1.132 0 0-.053 1.546 1.045 3.027 0 0 .742 1.092 1.846 1.865.097.1.088.108.018.088 0 0-1.016-.334-1.94-1.427Zm-2.195-5.174s0-.316.243-.833c.014-.042.617-1.283 1.327-1.94 0 0 .695-.738 1.8-1.066 0 0 .184-.073.24.031.085.161-.054.196-.206.288 0 0-.81.343-1.937 1.738 0 0-.511.66-.82 1.455-.014.033-.03.067-.043.11-.167.488-.449.39-.449.39-.072-.02-.145-.065-.155-.173Zm.14.789c.186.023.173.175.173.175-.335 1.648.345 2.899.345 2.899.527 1.216 1.622 2.428 1.622 2.428.018.018.03.071-.11.018-1.102-.673-1.898-2.357-1.898-2.357s-.73-1.419-.363-3.036c.011-.031.053-.14.232-.127Zm3.88 7.731h-.427l.22-.945c-.13.075-.284.134-.462.174l.078-.34c.226-.092.416-.209.564-.349h.364l-.337 1.46ZM41.697 56.6a7.436 7.436 0 1 0 0 14.871 7.436 7.436 0 0 0 0-14.871Z" clip-rule="evenodd"/></g><defs><filter id="a" width="154" height="157" x="0" y="0" color-interpolation-filters="sRGB" filterUnits="userSpaceOnUse"><feFlood flood-opacity="0" result="BackgroundImageFix"/><feColorMatrix in="SourceAlpha" result="hardAlpha" values="0 0 0 0 0 0 0 0 0 0 0 0 0 0 0 0 0 0 127 0"/><feOffset dy="16"/><feGaussianBlur stdDeviation="6.5"/><feColorMatrix values="0 0 0 0 0 0 0 0 0 0 0 0 0 0 0 0 0 0 0.03 0"/><feBlend in2="BackgroundImageFix" result="effect1_dropShadow_185_309"/><feBlend in="SourceGraphic" in2="effect1_dropShadow_185_309" result="shape"/></filter></defs></svg>