<svg xmlns="http://www.w3.org/2000/svg" xml:space="preserve" style="fill-rule:evenodd;clip-rule:evenodd;stroke-linejoin:round;stroke-miterlimit:2" viewBox="0 0 157 157"><path d="M19.289 117.18H30.57c.02.789.051 1.59.102 2.39l.019.239h6.118l-.02-.27a93.457 93.457 0 0 1-.117-8.23l.008-.25H25.41c.09-3.278.328-6.52.68-9.649.379-3.23.898-6.449 1.57-9.59.66-3.129 1.488-6.3 2.461-9.39.938-3 2.039-6.071 3.277-9.09l10.301 4.609.09-.238a99.201 99.201 0 0 1 3.199-7.039 91.912 91.912 0 0 1 3.703-6.66 96.348 96.348 0 0 1 4.231-6.34 97.725 97.725 0 0 1 4.797-6.063l.172-.199-8.77-7.121c2.117-2.48 4.34-4.867 6.59-7.07 2.32-2.27 4.75-4.449 7.23-6.457a100.432 100.432 0 0 1 7.797-5.742c2.614-1.75 5.403-3.43 8.262-5l5.121 10.089.219-.121c2.289-1.25 4.601-2.41 6.898-3.449a93.974 93.974 0 0 1 7.051-2.828 89.17 89.17 0 0 1 7.27-2.242c2.453-.641 4.98-1.219 7.531-1.68l.25-.039L113 8.672a110.639 110.639 0 0 1 9.551-1.344c3.211-.297 6.469-.457 9.668-.457 3.203 0 6.441.16 9.672.457 3.121.301 6.339.75 9.55 1.344l-2.339 11.066.25.043c2.546.469 5.089 1.039 7.527 1.68a99.984 99.984 0 0 1 7.269 2.238 97.183 97.183 0 0 1 7.051 2.832 98.873 98.873 0 0 1 6.903 3.449l.218.122 5.121-10.09c2.86 1.566 5.629 3.25 8.258 5a102.463 102.463 0 0 1 7.801 5.738c2.48 2.02 4.91 4.199 7.23 6.461a108.05 108.05 0 0 1 6.59 7.07l-8.769 7.117.168.204a96.318 96.318 0 0 1 4.801 6.058 87.421 87.421 0 0 1 4.23 6.34 99.927 99.927 0 0 1 3.699 6.66 95.775 95.775 0 0 1 3.199 7.039l.09.242 10.301-4.613a114.322 114.322 0 0 1 3.281 9.094c.969 3.09 1.789 6.258 2.461 9.387a106.219 106.219 0 0 1 1.571 9.589c.359 3.141.589 6.383.679 9.653H227.75l.02.25a97.718 97.718 0 0 1-.11 8.23l-.019.27h6.121l.019-.242c.039-.789.078-1.59.098-2.387h11.281v-.231c.449-17.711-3.332-35.519-10.91-51.5l-.109-.211-10.301 4.598a102.224 102.224 0 0 0-10.699-17.519l8.769-7.118-.14-.179c-10.758-14.043-24.86-25.5-40.782-33.141l-.207-.101-5.133 10.082a101.36 101.36 0 0 0-19.296-6.864l2.339-11.066-.23-.051c-17.16-4.121-35.301-4.121-52.473 0l-.226.051 2.34 11.066c-6.723 1.641-13.032 3.903-19.301 6.864L83.672 11.77l-.211.101C67.539 19.52 53.441 30.969 42.68 45.012l-.141.179 8.77 7.118c-4.2 5.519-7.7 11.269-10.7 17.519l-10.3-4.598-.11.211c-7.578 15.989-11.34 33.797-10.91 51.5v.239Z" style="fill:#1e51a2;fill-rule:nonzero" transform="translate(27.834 32.833) scale(.38321)"/><path d="m210.691 119.539-.019.27h6.129l.008-.219c.121-1.809.171-3.649.171-5.461 0-46.91-38.031-85.07-84.781-85.07-46.75 0-84.777 38.16-84.777 85.07 0 1.82.047 3.641.168 5.461l.019.219h6.129l-.019-.27a80.645 80.645 0 0 1 1.41-21.34 77.917 77.917 0 0 1 4.59-14.82 79.447 79.447 0 0 1 7.25-13.399 79.353 79.353 0 0 1 9.609-11.679 78.947 78.947 0 0 1 11.641-9.641 79.098 79.098 0 0 1 13.359-7.281 77.728 77.728 0 0 1 14.774-4.609c10.359-2.129 21.339-2.129 31.707 0a77.626 77.626 0 0 1 14.769 4.609 78.675 78.675 0 0 1 25 16.922 79.826 79.826 0 0 1 9.613 11.679 79.363 79.363 0 0 1 7.25 13.399 79.4 79.4 0 0 1 4.59 14.82 79.786 79.786 0 0 1 1.598 15.91 69.447 69.447 0 0 1-.188 5.43ZM152.289 174.691c.262.34.57.637.91.879.321.219.653.379 1.039.5.41.121.852.18 1.313.18.449 0 .859-.051 1.269-.172a3.424 3.424 0 0 0 1.032-.476c.339-.243.648-.524.929-.872.239-.3.449-.66.617-1.058.204-.461.34-.961.43-1.524.113-.628.172-1.347.172-2.109 0-.641-.051-1.258-.16-1.82a5.995 5.995 0 0 0-.418-1.391 5.096 5.096 0 0 0-.613-1.047 4.258 4.258 0 0 0-.911-.883 3.857 3.857 0 0 0-1.046-.5 4.648 4.648 0 0 0-1.293-.179c-.45 0-.86.051-1.27.172a3.41 3.41 0 0 0-1.039.488c-.34.23-.648.519-.93.859-.23.301-.441.66-.609 1.051-.199.43-.332.922-.43 1.473-.109.597-.16 1.269-.16 1.988 0 .711.051 1.352.16 1.941.09.539.231 1.008.418 1.457.153.372.352.731.59 1.043Zm.59-4.461c0-.73.051-1.39.16-1.941.09-.508.223-.93.402-1.289.161-.32.34-.578.559-.789a1.84 1.84 0 0 1 .68-.422 2.631 2.631 0 0 1 1.648-.019c.231.082.453.199.641.359.211.18.39.391.551.66.14.231.261.5.359.789.101.332.18.672.25 1.063.051.418.09.89.09 1.39 0 .758-.047 1.43-.16 2.02-.09.519-.219.961-.399 1.32-.16.328-.34.59-.558.801a2.034 2.034 0 0 1-.68.43 2.655 2.655 0 0 1-.852.136 2.65 2.65 0 0 1-.859-.136 1.778 1.778 0 0 1-.68-.422 2.783 2.783 0 0 1-.562-.77 4.423 4.423 0 0 1-.41-1.289c-.118-.512-.18-1.16-.18-1.891ZM106.91 166.059a2.077 2.077 0 0 1-.512.242 4.36 4.36 0 0 1-.808.179c-.34.051-.731.09-1.16.098v1.223h3.109V176h1.781v-11.531h-1.39c-.078.269-.18.519-.301.75a2.454 2.454 0 0 1-.348.511 1.938 1.938 0 0 1-.371.329ZM141.781 169.09a2.43 2.43 0 0 1-.453.39 5.976 5.976 0 0 1-.797.5c-.34.2-.75.411-1.203.622-.566.269-1.098.546-1.539.82a9.36 9.36 0 0 0-1.07.758 4.47 4.47 0 0 0-.68.699c-.18.23-.34.5-.469.769-.14.321-.25.641-.34 1.012-.089.41-.14.84-.16 1.289h8.981V174.5h-7.063c.051-.172.121-.328.203-.48a2.55 2.55 0 0 1 .278-.418c.101-.133.222-.274.351-.383.121-.11.301-.231.508-.379.242-.141.524-.32.863-.5a29.34 29.34 0 0 1 1.289-.641c.461-.219.891-.429 1.258-.66.352-.211.641-.41.903-.609.238-.18.449-.379.621-.559.168-.199.308-.41.437-.633.121-.218.211-.457.281-.718a4.03 4.03 0 0 0-.039-1.918 2.819 2.819 0 0 0-.39-.813 3.136 3.136 0 0 0-.641-.668 3.508 3.508 0 0 0-.82-.48 4.19 4.19 0 0 0-1.012-.313 6.499 6.499 0 0 0-1.277-.117c-.473 0-.93.039-1.352.129a3.672 3.672 0 0 0-1.027.371c-.313.16-.594.359-.844.559-.226.21-.449.46-.598.75-.179.308-.308.64-.41 1.039-.101.421-.16.91-.16 1.421h1.781c0-.339.039-.66.11-.949.051-.25.14-.472.25-.679.097-.18.23-.352.379-.481.16-.141.32-.281.519-.383.199-.109.391-.179.621-.238.231-.051.5-.078.758-.078.25 0 .5.027.723.066.211.043.398.114.59.203.168.079.339.18.48.297.141.121.27.274.379.41.109.141.18.301.23.493a2.162 2.162 0 0 1 .02 1.089c-.039.161-.09.301-.172.45a3.3 3.3 0 0 1-.297.41ZM122.559 174.691a1.885 1.885 0 0 1-1.039-.769 2.157 2.157 0 0 1-.309-.762h-1.781c.058.449.172.84.308 1.199a2.897 2.897 0 0 0 1.231 1.391c.293.16.601.289.953.371.398.09.848.141 1.328.141.5 0 .969-.071 1.41-.203.418-.118.77-.297 1.129-.539.371-.258.711-.59.981-.969.25-.34.468-.723.652-1.153.199-.468.359-.976.457-1.558.121-.629.172-1.32.172-2.059 0-.679-.051-1.312-.172-1.89a6.051 6.051 0 0 0-.43-1.36 4.366 4.366 0 0 0-.609-.953 4.052 4.052 0 0 0-.91-.758 4.207 4.207 0 0 0-1.071-.449 5.374 5.374 0 0 0-1.339-.172c-.469 0-.918.051-1.321.141-.379.09-.711.211-1.039.379-.308.172-.59.383-.84.609-.23.242-.449.512-.609.793a3.549 3.549 0 0 0-.391.949 4.95 4.95 0 0 0 0 2.328 3.257 3.257 0 0 0 .969 1.602c.231.219.512.41.813.559.289.16.597.261.937.339.359.082.77.133 1.191.133.481 0 .942-.07 1.36-.179.379-.122.711-.262.988-.481.32-.223.57-.512.793-.84-.09.59-.211 1.129-.34 1.59-.121.43-.23.789-.383 1.09a2.603 2.603 0 0 1-.41.68 2.328 2.328 0 0 1-1.148.789c-.231.07-.481.109-.75.109a3.34 3.34 0 0 1-.781-.098Zm3.461-6.492c0 .27-.032.512-.09.731-.051.211-.141.39-.25.57a2.65 2.65 0 0 1-.379.449c-.16.129-.332.25-.512.36-.18.089-.379.171-.598.211-.222.05-.472.082-.722.082s-.5-.024-.719-.082a2.458 2.458 0 0 1-.59-.219 1.864 1.864 0 0 1-.5-.371 1.897 1.897 0 0 1-.359-.461c-.11-.18-.18-.367-.231-.59a3.643 3.643 0 0 1-.09-.758c0-.281.02-.519.09-.762.051-.211.129-.41.231-.589.109-.168.219-.321.371-.461.137-.137.308-.27.5-.36.18-.09.379-.168.59-.219.218-.05.468-.082.718-.082.25 0 .5.024.719.09.223.051.403.133.602.242.179.098.371.25.508.411.14.16.269.328.382.5.11.179.18.379.231.589.066.231.098.469.098.719ZM58.461 131.27h2.199v3.582h-2.199zM54.98 131.27h2.199v3.582H54.98zM51.512 131.27h2.199v3.582h-2.199zM48.02 131.27h2.199v3.582H48.02zM44.539 131.27h2.199v3.582h-2.199zM58.461 136.219h2.199v3.582h-2.199zM54.98 136.219h2.199v3.582H54.98zM51.512 136.219h2.199v3.582h-2.199zM48.02 136.219h2.199v3.582H48.02zM44.539 136.219h2.199v3.582h-2.199zM58.461 141.172h2.199v3.578h-2.199zM67.371 132.879h2.199v3.582h-2.199zM67.371 137.84h2.199v3.582h-2.199zM67.371 142.781h2.199v3.578h-2.199zM54.98 141.172h2.199v3.578H54.98zM51.512 141.172h2.199v3.578h-2.199zM48.02 141.172h2.199v3.578H48.02zM44.539 141.172h2.199v3.578h-2.199zM58.461 146.129h2.199v3.582h-2.199zM54.98 146.129h2.199v3.582H54.98zM51.512 146.129h2.199v3.582h-2.199zM48.02 146.129h2.199v3.582H48.02zM44.539 146.129h2.199v3.582h-2.199zM78.172 124.719h2.199v3.582h-2.199z" style="fill:#1e51a2;fill-rule:nonzero" transform="translate(27.834 32.833) scale(.38321)"/><path d="M79.27 118.73c-.61 0-1.098.5-1.098 1.098v3.121h2.199v-3.121a1.105 1.105 0 0 0-1.101-1.098ZM78.172 130.07h2.199v3.578h-2.199zM78.172 135.422h2.199V139h-2.199zM78.172 140.77h2.199v3.582h-2.199zM78.172 146.129h2.199v3.582h-2.199zM82.18 124.719h2.199v3.582H82.18zM83.289 118.73c-.609 0-1.098.5-1.098 1.098v3.121h2.2v-3.121c0-.617-.5-1.098-1.102-1.098ZM82.18 130.07h2.199v3.578H82.18zM82.18 135.422h2.199V139H82.18zM82.18 140.77h2.199v3.582H82.18zM82.18 146.129h2.199v3.582H82.18zM86.211 124.719h2.199v3.582h-2.199zM87.301 118.73c-.621 0-1.102.5-1.102 1.098v3.121h2.199v-3.121c0-.617-.476-1.098-1.097-1.098ZM86.211 130.07h2.199v3.578h-2.199zM86.211 135.422h2.199V139h-2.199zM86.211 140.77h2.199v3.582h-2.199zM86.211 146.129h2.199v3.582h-2.199zM90.219 124.719h2.203v3.582h-2.203zM91.328 118.73c-.609 0-1.098.5-1.098 1.098v3.121h2.2v-3.121c0-.617-.5-1.098-1.102-1.098ZM90.219 130.07h2.203v3.578h-2.203zM90.219 135.422h2.203V139h-2.203zM90.219 140.77h2.203v3.582h-2.203zM90.219 146.129h2.203v3.582h-2.203zM94.238 124.719h2.203v3.582h-2.203zM95.34 118.73c-.61 0-1.102.5-1.102 1.098v3.121h2.203v-3.121c0-.617-.492-1.098-1.101-1.098ZM94.238 130.07h2.203v3.578h-2.203zM94.238 135.422h2.203V139h-2.203zM94.238 140.77h2.203v3.582h-2.203zM94.238 146.129h2.203v3.582h-2.203zM98.27 124.719h2.199v3.582H98.27zM99.371 118.73c-.621 0-1.101.5-1.101 1.098v3.121h2.199v-3.121a1.102 1.102 0 0 0-1.098-1.098ZM98.27 130.07h2.199v3.578H98.27zM98.27 135.422h2.199V139H98.27zM98.27 140.77h2.199v3.582H98.27zM98.27 146.129h2.199v3.582H98.27zM102.281 124.719h2.199v3.582h-2.199zM103.379 118.73c-.609 0-1.098.5-1.098 1.098v3.121h2.199v-3.121a1.087 1.087 0 0 0-1.101-1.098ZM102.281 130.07h2.199v3.578h-2.199zM102.281 135.422h2.199V139h-2.199zM102.281 140.77h2.199v3.582h-2.199zM102.281 146.129h2.199v3.582h-2.199zM106.301 124.719h2.199v3.582h-2.199zM107.398 118.73a1.1 1.1 0 0 0-1.097 1.098v3.121h2.199v-3.121c0-.617-.5-1.098-1.102-1.098ZM106.301 130.07h2.199v3.578h-2.199zM106.301 135.422h2.199V139h-2.199zM106.301 140.77h2.199v3.582h-2.199zM106.301 146.129h2.199v3.582h-2.199zM110.32 124.719h2.199v3.582h-2.199zM112.531 119.828a1.102 1.102 0 0 0-2.203 0v3.121h2.203v-3.121ZM110.32 130.07h2.199v3.578h-2.199zM114.34 124.719h2.199v3.582h-2.199zM116.539 119.828c0-.609-.5-1.098-1.098-1.098-.613 0-1.101.5-1.101 1.098v3.121h2.199v-3.121ZM114.34 130.07h2.199v3.578h-2.199zM26.5 131.27h2.199v3.582H26.5zM26.5 136.219h2.199v3.582H26.5zM26.5 141.172h2.199v3.578H26.5zM26.5 146.129h2.199v3.582H26.5zM31.309 131.27h2.203v3.582h-2.203zM31.309 136.219h2.203v3.582h-2.203zM31.309 141.172h2.203v3.578h-2.203zM31.309 146.129h2.203v3.582h-2.203zM34.75 131.27h2.199v3.582H34.75zM34.75 136.219h2.199v3.582H34.75zM34.75 141.172h2.199v3.578H34.75zM34.75 146.129h2.199v3.582H34.75zM21.52 131.27h2.199v3.582H21.52zM18.051 131.27h2.199v3.582h-2.199zM14.57 131.27h2.199v3.582H14.57zM11.102 131.27h2.199v3.582h-2.199zM7.609 131.27h2.199v3.582H7.609zM21.52 136.219h2.199v3.582H21.52zM18.051 136.219h2.199v3.582h-2.199zM14.57 136.219h2.199v3.582H14.57zM11.102 136.219h2.199v3.582h-2.199zM7.609 136.219h2.199v3.582H7.609zM21.52 141.172h2.199v3.578H21.52zM18.051 141.172h2.199v3.578h-2.199zM14.57 141.172h2.199v3.578H14.57zM11.102 141.172h2.199v3.578h-2.199zM7.609 141.172h2.199v3.578H7.609zM21.52 146.129h2.199v3.582H21.52zM18.051 146.129h2.199v3.582h-2.199zM14.57 146.129h2.199v3.582H14.57zM11.102 146.129h2.199v3.582h-2.199zM7.609 146.129h2.199v3.582H7.609zM39.551 131.27h2.199v3.582h-2.199zM39.551 136.219h2.199v3.582h-2.199zM39.551 141.172h2.199v3.578h-2.199zM39.551 146.129h2.199v3.582h-2.199zM120.859 112.031h2.211v-3.59h-2.211v3.59ZM120.859 117.379h2.211v-3.59h-2.211v3.59ZM120.859 122.73h2.211v-3.589h-2.211v3.589ZM120.859 128.078h2.211v-3.59h-2.211v3.59ZM120.859 133.43h2.211v-3.59h-2.211v3.59ZM129.23 112.031l.008-3.59h-2.218v3.59h2.21ZM129.23 117.379l.008-3.59h-2.218v3.59h2.21ZM129.23 122.73l.008-3.589h-2.218v3.589h2.21ZM129.23 128.078l.008-3.59h-2.218v3.59h2.21ZM129.23 133.43l.008-3.59h-2.218v3.59h2.21ZM129.879 86.379l.012-3.578h-2.211v3.578h2.199ZM129.879 100.469l.012-3.59h-2.211v3.59h2.199ZM129.879 91.121l.012-3.59h-2.211v3.59h2.199ZM126.16 78.34h2.461v.75H129v-.75h.512v-1.039h-1.492v-.211l.96-.762v-2.297l-.96.758v-.758h-1.27v.758l-.969-.758v2.297s.969.762.969.75v.211h-1.488v1.039h.508v.75h.378v-.726h.012v-.012Zm.969-3.93h.512v2.871h-.512V74.41Zm-1.488 3.539v-.269h3.48v.269h-3.48ZM203.762 131.27h2.199v3.582h-2.199zM207.238 131.27h2.203v3.582h-2.203zM210.711 131.27h2.199v3.582h-2.199zM214.211 131.27h2.199v3.582h-2.199zM217.68 131.27h2.199v3.582h-2.199zM203.762 136.219h2.199v3.582h-2.199zM207.238 136.219h2.203v3.582h-2.203zM210.711 136.219h2.199v3.582h-2.199zM214.211 136.219h2.199v3.582h-2.199zM217.68 136.219h2.199v3.582h-2.199zM203.762 141.172h2.199v3.578h-2.199zM194.852 132.879h2.199v3.582h-2.199zM194.852 137.84h2.199v3.582h-2.199zM194.852 142.781h2.199v3.578h-2.199zM207.238 141.172h2.203v3.578h-2.203zM210.711 141.172h2.199v3.578h-2.199zM214.211 141.172h2.199v3.578h-2.199zM217.68 141.172h2.199v3.578h-2.199zM203.762 146.129h2.199v3.582h-2.199zM207.238 146.129h2.203v3.582h-2.203zM210.711 146.129h2.199v3.582h-2.199zM214.211 146.129h2.199v3.582h-2.199zM217.68 146.129h2.199v3.582h-2.199zM184.051 124.719h2.199v3.582h-2.199zM185.16 118.73c.621 0 1.102.5 1.102 1.098v3.121h-2.203v-3.121a1.087 1.087 0 0 1 1.101-1.098ZM184.051 130.07h2.199v3.578h-2.199zM184.051 135.422h2.199V139h-2.199zM184.051 140.77h2.199v3.582h-2.199zM184.051 146.129h2.199v3.582h-2.199zM180.039 124.719h2.199v3.582h-2.199zM181.141 118.73a1.1 1.1 0 0 1 1.097 1.098v3.121h-2.199v-3.121c0-.617.492-1.098 1.102-1.098ZM180.039 130.07h2.199v3.578h-2.199zM180.039 135.422h2.199V139h-2.199zM180.039 140.77h2.199v3.582h-2.199zM180.039 146.129h2.199v3.582h-2.199zM176.02 124.719h2.199v3.582h-2.199zM177.121 118.73c.609 0 1.098.5 1.098 1.098v3.121h-2.199v-3.121c0-.617.5-1.098 1.101-1.098ZM176.02 130.07h2.199v3.578h-2.199zM176.02 135.422h2.199V139h-2.199zM176.02 140.77h2.199v3.582h-2.199zM176.02 146.129h2.199v3.582h-2.199zM172 124.719h2.199v3.582H172zM173.102 118.73c.617 0 1.097.5 1.097 1.098v3.121H172v-3.121a1.09 1.09 0 0 1 1.102-1.098ZM172 130.07h2.199v3.578H172zM172 135.422h2.199V139H172zM172 140.77h2.199v3.582H172zM172 146.129h2.199v3.582H172zM167.98 124.719h2.199v3.582h-2.199zM169.078 118.73c.613 0 1.102.5 1.102 1.098v3.121h-2.2v-3.121c0-.617.5-1.098 1.098-1.098ZM167.98 130.07h2.199v3.578h-2.199zM167.98 135.422h2.199V139h-2.199zM167.98 140.77h2.199v3.582h-2.199zM167.98 146.129h2.199v3.582h-2.199zM163.949 124.719h2.199v3.582h-2.199zM165.07 118.73c.61 0 1.102.5 1.102 1.098v3.121h-2.203v-3.121c-.02-.617.48-1.098 1.101-1.098ZM163.949 130.07h2.199v3.578h-2.199zM163.949 135.422h2.199V139h-2.199zM163.949 140.77h2.199v3.582h-2.199zM163.949 146.129h2.199v3.582h-2.199zM159.941 124.719h2.199v3.582h-2.199zM161.039 118.73c.609 0 1.102.5 1.102 1.098v3.121h-2.2v-3.121c0-.617.5-1.098 1.098-1.098ZM159.941 130.07h2.199v3.578h-2.199zM159.941 135.422h2.199V139h-2.199zM159.941 140.77h2.199v3.582h-2.199zM159.941 146.129h2.199v3.582h-2.199zM155.922 124.719h2.199v3.582h-2.199zM157.031 118.73c.61 0 1.098.5 1.098 1.098v3.121h-2.199v-3.121a1.08 1.08 0 0 1 1.101-1.098ZM155.922 130.07h2.199v3.578h-2.199zM155.922 135.422h2.199V139h-2.199zM155.922 140.77h2.199v3.582h-2.199zM155.922 146.129h2.199v3.582h-2.199zM151.91 124.719h2.199v3.582h-2.199zM151.91 119.828c0-.609.5-1.098 1.102-1.098.597 0 1.097.5 1.097 1.098v3.121h-2.199v-3.121ZM151.91 130.07h2.199v3.578h-2.199zM147.879 124.719h2.199v3.582h-2.199zM147.879 119.828c0-.609.5-1.098 1.101-1.098.61 0 1.098.5 1.098 1.098v3.121h-2.199v-3.121ZM147.879 130.07h2.199v3.578h-2.199zM235.719 131.27h2.203v3.582h-2.203zM235.719 136.219h2.203v3.582h-2.203zM235.719 141.172h2.203v3.578h-2.203zM235.719 146.129h2.203v3.582h-2.203zM230.91 131.27h2.199v3.582h-2.199zM230.91 136.219h2.199v3.582h-2.199zM230.91 141.172h2.199v3.578h-2.199zM230.91 146.129h2.199v3.582h-2.199zM227.469 131.27h2.203v3.582h-2.203zM227.469 136.219h2.203v3.582h-2.203zM227.469 141.172h2.203v3.578h-2.203zM227.469 146.129h2.203v3.582h-2.203zM240.699 131.27h2.199v3.582h-2.199zM244.18 131.27h2.199v3.582h-2.199zM247.648 131.27h2.203v3.582h-2.203zM251.129 131.27h2.199v3.582h-2.199zM254.621 131.27h2.199v3.582h-2.199zM240.699 136.219h2.199v3.582h-2.199zM244.18 136.219h2.199v3.582h-2.199zM247.648 136.219h2.203v3.582h-2.203zM251.129 136.219h2.199v3.582h-2.199zM254.621 136.219h2.199v3.582h-2.199zM240.699 141.172h2.199v3.578h-2.199zM244.18 141.172h2.199v3.578h-2.199zM247.648 141.172h2.203v3.578h-2.203zM251.129 141.172h2.199v3.578h-2.199zM254.621 141.172h2.199v3.578h-2.199zM240.699 146.129h2.199v3.582h-2.199zM244.18 146.129h2.199v3.582h-2.199zM247.648 146.129h2.203v3.582h-2.203zM251.129 146.129h2.199v3.582h-2.199zM254.621 146.129h2.199v3.582h-2.199zM222.68 131.27h2.199v3.582h-2.199zM222.68 136.219h2.199v3.582h-2.199zM222.68 141.172h2.199v3.578h-2.199zM222.68 146.129h2.199v3.582h-2.199zM143.559 112.031h-2.219v-3.59h2.219v3.59ZM143.559 117.379h-2.219v-3.59h2.219v3.59ZM143.559 122.73h-2.219v-3.589h2.219v3.589ZM143.559 128.078h-2.219v-3.59h2.219v3.59ZM143.559 133.43h-2.219v-3.59h2.219v3.59ZM133.32 108.43h-2.211v3.59h2.211v-3.59ZM133.32 113.789h-2.211v3.59h2.211v-3.59ZM133.32 119.129h-2.211v3.59h2.211v-3.59ZM133.32 124.48h-2.211v3.59h2.211v-3.59ZM133.32 129.84h-2.211v3.59h2.211v-3.59ZM137.391 112.031h-2.211v-3.59h2.211v3.59ZM137.391 117.379h-2.211v-3.59h2.211v3.59ZM137.391 122.73h-2.211v-3.589h2.211v3.589ZM137.391 128.078h-2.211v-3.59h2.211v3.59ZM137.391 133.43h-2.211v-3.59h2.211v3.59ZM142.73 136.801h-21.031v3.078h21.031v-3.078Zm-.378 2.699h-20.274v-2.32h20.274v2.32ZM133.32 82.789h-2.211v3.582h2.211v-3.582ZM134.539 82.801h2.211v3.578h-2.211zM133.32 96.879h-2.211v3.59h2.211v-3.59ZM134.539 96.879h2.211v3.59h-2.211zM133.32 87.531h-2.211v3.59h2.211v-3.59ZM134.539 87.531h2.211v3.59h-2.211zM138.262 79.078h.386v-.75h.512v-1.027h-1.488v-.211l.969-.75v-2.289l-.969.758v-.758h-1.274v.758l-.968-.758v2.289l.968.762v.207h-1.488v1.043h.512v.75h.379v-.75h2.461v.726Zm-.961-1.789h-.512v-2.867h.512v2.867Zm-2 .66v-.269h3.48v.269h-3.48ZM131.352 48.602v.019l-.524 1.629 1.391-1.012 1.402 1.012-.543-1.629v-.019l1.391-1.012h-1.707l-.543-1.641-.52 1.641h-1.73l1.383 1.012Z" style="fill:#1e51a2;fill-rule:nonzero" transform="translate(27.834 32.833) scale(.38321)"/><path d="M253.41 126.02s-.941-.2-1.91-.2h-9.328s-.621.008-1.531-.289c-.911-.301-10.18-3.383-10.18-3.383s-9.27 3.09-10.18 3.383c-.91.297-1.531.289-1.531.289h-9.328c-.961 0-1.91.2-1.91.2l-9.282 2.011v.84h.329v.879h-5.868l-.031-11.52v-.031l2.352-1.539v-1.07s-6.473-1.039-10.942-1.75c-4.468-.711-6.718-.61-6.718-.61h-31.641v-7.191h.91l1.27-.758v-1.222h-2.563v-.668h.633v-1.18h-4.031V96.07h.679V95h.082l1.27-.762V93.02h-.859v-.7h.648v-1.179h-2.48l1.339-1.629v-2.293l-1.339 1.633v-1.661H140v1.661l-1.328-1.633v2.293L140 91.141h-1.699v-9.61h.59V80.5h.089l.911-.551v-.871H134c.039-.109.078-.219.109-.289.18-.43.371-.879.563-1.309l.008-.019c.05-.121.109-.242.16-.359.121-.25.109-.461-.051-.704a21.35 21.35 0 0 1-.73-1.207c.14-.23.293-.48.461-.722.179-.27.171-.457-.051-.707a14.99 14.99 0 0 1-.418-.453c.469-.457.469-1.008.371-1.661h-1.524l-.457-20.378 1.039-.29-.101-.269c.121-.07.23-.133.351-.211l.18.219.719-.731-.219-.179c.078-.118.141-.231.199-.348l.27.09.262-1-.289-.051a4.005 4.005 0 0 0 0-.41l.289-.051-.27-1-.269.109-.262.09c.07.141.129.293.172.453a2.38 2.38 0 0 1-1.66 2.938 2.694 2.694 0 0 1-.633.082c-.207 0-.418-.02-.629-.082a2.38 2.38 0 0 1-1.66-2.938c.039-.16.109-.3.172-.453l-.262-.09-.27-.109-.281 1 .289.051a3.503 3.503 0 0 0 0 .41l-.289.051.262 1 .277-.09c.051.117.133.23.203.348l-.222.179.722.731.18-.219c.109.078.219.141.348.211l-.11.269 1.051.29-.461 20.378h-1.519c-.11.672-.11 1.223.359 1.661-.16.171-.289.32-.418.453-.231.238-.231.449-.051.707.168.222.301.472.461.722-.262.418-.48.829-.73 1.207-.161.243-.161.454-.051.704.051.117.109.226.16.359l.012.019c.199.43.379.872.558 1.309.02.07.059.18.11.289h-5.918v.852l.91.55h.09v1.04h.59v9.609h-1.704l1.332-1.629v-2.289l-1.332 1.629v-1.668h-1.269v1.668l-1.34-1.629V89.5l1.34 1.629h-2.481v1.18h.633v.703h-.859v1.218l1.269.758h.079v1.082h.679v6.141h-4.019v1.18h.629v.668H116.5v1.222l1.27.758h.91v7.191H87.078s-2.226-.089-6.719.622c-4.468.707-10.937 1.75-10.937 1.75v1.07l2.348 1.539v.019l-.032 11.52h-5.867v-.879h.328v-.84l-9.277-2s-.942-.203-1.91-.203H45.68s-.621.024-1.532-.289c-.91-.301-10.179-3.379-10.179-3.379s-9.27 3.102-10.18 3.379c-.918.301-1.527.289-1.527.289H12.93c-.961 0-1.91.203-1.91.203l-9.282 2v.84h.563v1.219h.711v21.23H2.27v3.93h63.75l1.07-2.07.07-.129a2.081 2.081 0 0 1-.808-1.66 2.11 2.11 0 1 1 3.32 1.73l.019.051 1.071 2.066h21.789c-.602.25-1.25.582-1.61 1.153-.293.468-.332 1.129.09 1.539.367.371.891.461 1.391.379.469-.071 1.019-.27 1.367-.579.93-.832 2.051-1.429 3.199-1.89 1.274-.5 2.59-.879 3.91-1.219a47.651 47.651 0 0 1 4.071-.851c.222-.04.441-.071.66-.11.172-.031.332-.051.5-.07h.019c.762-.11 1.524-.18 2.293-.25-2.511.762-8.711 2.93-7.722 5.48.011.032.031.051.043.078.59 1.293 2.886 1.223 3.707.422h55.48c.84.821 3.121.871 3.711-.422.012-.027.031-.046.039-.078.992-2.558-5.211-4.718-7.719-5.48.758.07 1.52.14 2.27.25h.012c.168.031.328.051.5.07.218.039.449.07.668.11a46.76 46.76 0 0 1 4.07.851c1.32.328 2.641.719 3.922 1.219 1.148.449 2.269 1.058 3.199 1.89.348.309.899.508 1.367.579.5.082 1.024-.02 1.391-.379.41-.41.383-1.059.09-1.539-.348-.571-1-.903-1.61-1.153h21.789l1.071-2.066.019-.051a2.12 2.12 0 0 1-.898-1.73c0-1.172.941-2.11 2.109-2.11 1.172 0 2.11.949 2.11 2.11 0 .668-.321 1.269-.809 1.66l.07.129 1.071 2.07h63.75v-3.93h-.711v-21.218h.711v-1.223h.55v-.84l-9.281-2.019ZM102.789 159.5c-.648 0-1.187-.34-1.238-.77 0-.011-.012-.039-.012-.05 0-.461.563-.828 1.242-.828.418 0 .797.136 1.02.359a.65.65 0 0 1 .219.469c.011.449-.551.82-1.231.82Zm57.832-1.301c.219-.211.598-.359 1.02-.359.687 0 1.238.371 1.238.832 0 .027-.008.039-.008.047-.043.429-.582.769-1.242.769-.699 0-1.238-.367-1.238-.816 0-.172.089-.32.23-.473Zm-14.902-41.66h48.769l-1.867 1.211h-46.91l.008-1.211Zm46.543 3.621.066 31.149h-3.918V120.16h3.852Zm-3.84-.789v-.66h3.84v.66h-3.84Zm-42.711-1.242h42.309v33.191h-34.551v-8.64h.609v-1h.41v-1.571h-1.019v-2.308h.929v-1.36h-8.687v-18.312Zm-26.961 24.172v-.621h2.84v.621h-2.84Zm2.219.379v9.308h-1.617v-9.308h1.617Zm.609 9.621v.621h-2.84v-.621h2.84Zm26.633.988v1.59H116.23v-1.59h31.981Zm-21.441-10.988v-.621h2.839v.621h-2.839Zm2.242.379v9.308h-1.621v-9.308h1.621Zm.609 9.621v.621h-2.851v-.621h2.851Zm5.188-10v-.621h2.839v.621h-2.839Zm2.23.379v9.308h-1.617v-9.308h1.617Zm.602 9.621v.621h-2.84v-.621h2.84Zm5.211-10v-.621h2.839v.621h-2.839Zm2.218.379v9.308h-1.621v-9.308h1.621Zm.61 9.621v.621h-2.84v-.621h2.84Zm-33.481 2.949h40.031v1.691h-40.031v-1.691Zm-1.91-13.949v-.223h43.852v.223h-43.852Zm.641-3.512v2.313h-1.02v1.57h.399v1h.621v8.637H76.391v-33.18h42.3v18.312H110v1.36h.93v-.012Zm8.968 2.68v.222h-9.609v-.222h9.609Zm-8.589-.379v-2.309h8.589v2.309h-8.589Zm2.242 12.211v.621h-2.84v-.621h2.84Zm-2.242-.313v-9.308h1.621v9.308h-1.621Zm-.598-9.687v-.621h2.84v.621h-2.84Zm34.617-36.25v.418h-26.226v-.418h26.226Zm-25.879-2v-.672h4.211v.672h-4.211Zm3.391-1.84V96.07h3.269v7.989h-2.078v-.668h.629v-1.18h-1.82Zm13.89-.66h-2.21v2.519h-1.211v-2.519h-2.207v2.519h-1.211v-2.519h-2.2v2.519H126.5v-7.992h11.441v7.992h-1.191l-.02-2.519Zm3.661 1.847v.672h-2.082v-7.992h3.269v6.141h-1.816v1.179h.629Zm.379.653v-.672h4.21v.672h-4.21Zm12.339 36.039h-8.589v-2.309h8.589v2.309Zm1.032.379v.222h-9.61v-.222h9.61Zm-34.34-4.731v-.508h24.808v.508h-24.808Zm24.34.383v4.578h-23.86v-4.578h23.86Zm-18.911-1.269v-28h13.961v28.007l-13.961-.007Zm19.29 1.269h.468v-1.269h-5.41v-28h5.75v29.589h-.797l-.011-.32Zm-19.668-29.269v28.007h-5.411v1.27h.469v.312h-.801V106.84l5.743.012Zm26.019 45.449h2.84v.621h-2.84v-.621Zm2.238-.313h-1.621v-9.308h1.621v9.308Zm-2.238-9.687v-.621h2.84v.621h-2.84Zm3.168-5.5v.597h-9.519v-.597h9.519Zm-8.43-34.199v.418h-5.48v-.418h5.48Zm-5.218-15.051h.507v3.578h-.507v-3.578Zm2.988 3.969v.421h-5.481v-.421h5.481Zm-.641.8v.7h-4.207v-.7h4.207ZM126.5 91.129V81.52h11.441v9.609h-.39v1.18h.629v.703h-11.91v-.703h.628v-1.18h-.398Zm7.191-12.051h-.203l.672-2.129h.418c-.008 0-.566 1.371-.887 2.129Zm-1.8-2.437.14-1.121h.328l.141 1.121h-.609Zm.629.289-.11 2.14H132l-.102-2.14h.622Zm-.68-1.891-.09-.418h.93l-.09.418h-.75Zm-.891.481h.379l-.348 1.128h-.429l.398-1.128Zm-.109-.481-.11-.418h.372l.109.418h-.371Zm.09 1.891c-.02 0 .32 1.629.422 2.14h-.243l-.609-2.14h.43Zm.199 0h.519l.204 2.14h-.332l-.391-2.14Zm.543-.27h-.5l.328-1.129h.352l-.18 1.129Zm1.238-1.14.328 1.128h-.5l-.199-1.128h.371Zm.57 0 .411 1.128h-.43l-.352-1.128h.371Zm-.269-.481.109-.418h.371l-.113.418h-.367Zm-.441 1.891h.519l-.391 2.14h-.328l.2-2.14Zm.718 0h.434l-.613 2.148h-.239c.09-.519.43-2.148.418-2.148Zm1.051-.289h-.41l-.481-1.129.204-.024.687 1.153Zm-.84-4.563h.313v.32h-.313v-.32Zm.231.684c-.032.199-.258.347-.258.347h-2.942s-.23-.16-.261-.347h3.461Zm-.731-.684h.313v.32h-.313v-.32Zm-.469 0h.321v.32h-.321v-.32Zm-.8 0h.558v.32h-.558v-.32Zm-.539 0h.308v.32h-.308v-.32Zm-.493 0h.313v.32h-.313v-.32Zm-.488 0h.309v.32h-.309v-.32Zm.692 1.363a41.3 41.3 0 0 0 2.226 0c.363 0 .57.129.75.5h-3.726c.168-.371.398-.5.75-.5Zm-.93.84h4.066l-.437.758h-.121l.129-.508h-.571l-.136.508h-.411l.129-.519h-1.23l.129.519h-.41l-.137-.508h-.57l.128.508h-.121l-.437-.758Zm.418 1.239.199.011-.48 1.129h-.411l.692-1.14Zm-.75 1.429h.422l.668 2.129h-.2c-.32-.758-.89-2.129-.89-2.129Zm-4.91 2.5h14.558v.129H124.93v-.129Zm.601.66-.203-.129h13.762l-.199.129h-13.36Zm.418 1.032v-.661h12.531v.661h-12.531Zm-2.429 6.41h.511v3.578h-.511v-3.578Zm-2.469 4.379v-.418h5.48v.418h-5.48Zm4.828.39v.7h-4.207v-.7h4.207Zm-5.039 1.071h22.75v.418h-22.75v-.418Zm.289.8h22.172l-.711.418h-20.75l-.711-.418Zm1.031 1.489v-.7h20.102v.7H122.16Zm-3.351 7.34v-.418h5.48v.418h-5.48Zm1.089 33.781v.597h-9.519v-.597h9.519Zm-49.976-20.262h48.769v1.211H71.789l-1.867-1.211Zm2.238 2.832v-.66H76v.66h-3.84Zm3.852.789v31.149H72.09l.07-31.149h3.852Zm-73.364 9.539v-.84l21.032.02v-1.008h20.601v1.008l21.239-.02v.84H43.211v-.687h-18.18v.687H2.648Zm62.192.391v21.23h-2.461v-21.23h2.461Zm-2.84 0v21.23H43.211v-21.23H62Zm-19.172-.699v21.929H38.48v-21.929h4.348Zm-4.719 0v21.929H30.18v-21.929h7.929Zm-8.308 0v21.929H25.41v-21.929h4.391Zm-4.77.699v21.23H6.309v-21.23h18.722Zm-19.082 0v21.23h-2.59v-21.23h2.59Zm59.852 24.781H2.648v-1.59h63.981l-.828 1.59Zm.699-1.961H2.648v-1.211H66c.051.442.23.86.5 1.211Zm1.969-4.019c-1.34 0-2.438 1.078-2.481 2.429h-.769v-20.16h6.551l-.04 20.16h-.761c-.059-1.34-1.149-2.429-2.5-2.429Zm24.359 8.679c-.469.258-1.039.211-1.269-.121-.231-.328-.047-.808.421-1.078.469-.262 1.04-.211 1.27.117.23.332.051.821-.422 1.082Zm.793-2.699H71.02l-.821-1.59h32.281c-1.679.16-5.949.66-8.859 1.59Zm-23.172-1.961c.262-.34.442-.762.5-1.211h39.992v.289h-.562v.922h-39.93Zm41.41.379h3.993v1.59h-8.641c1.269-.75 2.898-1.328 4.648-1.59Zm-5.238 1.961h5.199v1.691h-6.851c.332-.582.89-1.16 1.652-1.691Zm1.617 3.73-3.566-.011c.039-.16.078-.297.066-.481-.019-.199-.066-.379-.047-.578.02-.199.047-.39.118-.59h3.429v1.66Zm47.571 0h-47.2v-1.652h47.2v1.652Zm3.941-1.07c.012.199-.039.379-.051.578-.019.172.012.313.063.481l-3.571.011v-1.652h3.438c.07.184.101.371.121.582Zm-.301-.961h-6.847v-1.687h5.207c.75.519 1.32 1.097 1.64 1.687Zm-2.238-2.078h-8.641v-1.59h3.989c1.761.27 3.402.848 4.652 1.59Zm15.238 1.508c.473.269.653.75.422 1.082-.23.328-.812.379-1.269.117-.473-.258-.661-.75-.422-1.066.242-.34.8-.391 1.269-.133Zm20.949-1.508H170.82c-2.91-.93-7.191-1.43-8.859-1.59h32.277l-.84 1.59Zm.582-1.961h-39.929v-.922h-.563v-.289h39.992c.059.442.231.86.5 1.211Zm1.969-4.019a2.483 2.483 0 0 0-2.48 2.429h-.758l-.039-20.16h6.547v20.16h-.77c-.058-1.34-1.16-2.429-2.5-2.429Zm65.832 5.98h-63.152l-.82-1.59h63.972v1.59Zm0-3.172v1.211h-63.859a2.5 2.5 0 0 0 .5-1.211h63.359Zm-62.191-.379v-21.23h2.461v21.23h-2.461Zm2.84 0v-21.23h18.789v21.23H202.43Zm19.16 0v-21.929h4.351v21.929h-4.351Zm4.73 0v-21.929h7.93v21.929h-7.93Zm8.309 0v-21.929h4.391v21.929h-4.391Zm4.762 0v-21.23h18.711v21.23h-18.711Zm19.089 0v-21.23h2.59v21.23h-2.59Zm3.301-21.621h-22.383v-.687h-18.179v.687H198.91v-.84l21.238.02v-1.008h20.602v1.008l21.031-.02v.84Z" style="fill:#1e51a2;fill-rule:nonzero" transform="translate(27.834 32.833) scale(.38321)"/><path d="m218.051 187.801.16-.18c7.641-9 13.578-18.68 18.141-29.57l.136-.34h-6.648l-.059.141a109.66 109.66 0 0 1-5.75 11.136 109.436 109.436 0 0 1-6.871 10.192l-8.769-7.121-.161.203a100.49 100.49 0 0 1-4.39 5.359c-1.16 1.32-2.399 2.617-3.66 3.91h-16.918c8.519-6.609 15.218-14.16 20.797-23.453l.222-.367h-7.211l-.082.109a77.366 77.366 0 0 1-5.097 6.899 78.338 78.338 0 0 1-5.641 6.14 76.478 76.478 0 0 1-6.301 5.469 84.774 84.774 0 0 1-7.039 4.891l-.648.312h-35l-5.063 3.879-5.058-3.879H92.148l-.648-.312a83.275 83.275 0 0 1-7.051-4.891 76.368 76.368 0 0 1-6.301-5.469 76.893 76.893 0 0 1-5.648-6.14 87.8 87.8 0 0 1-5.102-6.899l-.078-.109h-7.211l.219.367c5.582 9.274 12.293 16.832 20.813 23.453H64.238c-1.258-1.269-2.5-2.57-3.66-3.91a100.354 100.354 0 0 1-4.387-5.359l-.16-.203-8.769 7.121a107.879 107.879 0 0 1-6.883-10.192 105.874 105.874 0 0 1-5.75-11.136l-.07-.141H27.91l.141.34c4.57 10.898 10.508 20.57 18.14 29.57l.161.18 8.769-7.121a95.831 95.831 0 0 0 3.18 3.511l-12.231 5.5-15.32 38.411h69.672c-1.832 3.328-3.442 6.277-5.192 9.457h73.879c-1.738-3.18-3.359-6.129-5.187-9.457h69.668l-15.32-38.411-12.231-5.5a95.831 95.831 0 0 0 3.18-3.511l8.832 7.121Zm-91.25-5.141 5.41 4.141 5.41-4.141 59.91-.031 10.739 29.351h-70.258c1.457 2.911 2.789 5.532 4.207 8.34h-20.02c1.41-2.808 2.742-5.429 4.211-8.34H56.148l10.75-29.351 59.903.031Zm86.129 5.84 13.422 34.949h-69.883c1.742 3.442 3.312 6.539 5.019 9.93h-58.539c1.711-3.391 3.281-6.481 5.02-9.93H38.09L51.52 188.5l5.199-2.34-12.039 33.32h70.511c-1.66 3.2-3 5.801-4.519 8.719h43.09c-1.524-2.929-2.864-5.519-4.524-8.719h70.512l-12.039-33.32 5.219 2.34Zm-6.551-2.941 11.98 33.152h-70.64c1.64 3.16 2.992 5.75 4.422 8.469h-39.852c1.422-2.731 2.77-5.309 4.41-8.469h-70.64l11.98-33.152 6.481-2.911h1.359c-3.617 9.852-7.457 20.34-11.129 30.321h70.02c-1.461 2.929-2.77 5.562-4.231 8.492h23.332c-1.461-2.93-2.769-5.563-4.23-8.492h70.031c-3.672-9.981-7.524-20.469-11.141-30.321h1.36l6.488 2.911Z" style="fill:#1e51a2;fill-rule:nonzero" transform="translate(27.834 32.833) scale(.38321)"/><path d="M100.051 190.609c-.082.161-.16.36-.25.539 1.179 1.774 3.187 3.5 5.301 4.422-.563.371-1.301 1.078-1.711 1.571-.469-.262-.93-.551-1.371-.86v.77h-6.641v-.68c-.469.34-.949.641-1.481.93a8.415 8.415 0 0 0-1.359-1.223v4.891h-3.66v1.429h-2.18V191.52h5.832v4.179c2.418-1.32 4.321-3.437 5.27-5.609l2.25.519Zm-9.692 2.661H88.91v5.941h1.449v-5.941Zm3.871 5.082h8.75v6.847h-2.46v-.758h-3.969v.77H94.23v-6.859Zm2.321 1.687v2.691h3.969v-2.691h-3.969Zm4.308-4.738c-.789-.711-1.488-1.539-2.109-2.391-.59.852-1.289 1.66-2.078 2.391h4.187ZM141.57 202.129v1.941h-18.351v-1.941h7.679v-8.34h-6.597v-2.008h16.129v2.008h-6.782v8.34h7.922ZM170.672 196.422c1.328 3.148 3.777 5.68 7.547 6.898-.598.41-1.399 1.258-1.778 1.809-3.66-1.379-6-3.731-7.57-6.848-1.09 2.688-3.269 5.207-7.551 6.86-.379-.539-1.09-1.219-1.8-1.629 4.628-1.641 6.539-4.332 7.332-7.102h-6.942v-1.98h7.34c.199-1.52.18-2.989.199-4.301h2.629c-.019 1.32-.039 2.812-.25 4.301h7.934v1.98h-7.09v.012Z" style="fill:#1e51a2;fill-rule:nonzero" transform="translate(27.834 32.833) scale(.38321)"/></svg>