<svg xmlns="http://www.w3.org/2000/svg" width="154" height="157" fill="none"><g filter="url(#a)"><path fill="#fff" d="M13 0h128v128H13z"/><path fill="#E60013" fill-rule="evenodd" d="M57.97 60.086s-.516-1.795-.584-1.904l.612-.244.203.611-.204.068-.121-.367-.217.109.176.571.68-.231s-.163-.694-.394-1.101l-1.088.435s.748 2.257.734 2.366l1.117-.289s-.192-.956-.274-1.051l-.64.184.17.584.225-.058-.095-.39.207-.063s.133.58.133.648l-.476.122h-.163ZM57.026 57.406s-.89-1.641-.98-1.733l.545-.37.33.553-.185.11-.198-.332-.188.153.295.52.614-.372s-.309-.643-.622-.991l-.969.659s1.216 2.043 1.227 2.152l1.028-.522s-.393-.892-.494-.967l-.584.317.29.535.208-.106-.177-.36.19-.107s.254.538.268.604l-.438.222-.16.035ZM55.596 54.913s-1.204-1.427-1.31-1.499l.458-.473.435.476-.158.145-.26-.286-.154.188.393.45.527-.489s-.432-.566-.81-.844l-.815.84s1.603 1.756 1.636 1.861l.902-.72s-.566-.793-.68-.847l-.508.429.392.465.183-.146-.246-.317.163-.142s.358.475.386.537l-.385.306-.149.066ZM53.641 52.799s-1.424-1.208-1.541-1.261l.373-.543.508.397-.132.17-.304-.239-.12.21.463.379.438-.57s-.52-.486-.939-.698l-.665.965s1.873 1.465 1.922 1.563l.77-.86s-.69-.688-.81-.723l-.43.508.464.393.156-.174-.296-.272.138-.167s.432.41.47.466l-.33.365-.135.09ZM51.39 51.058s-1.633-.907-1.758-.936l.26-.605.576.29-.096.192-.345-.174-.077.23.528.28.318-.643s-.605-.376-1.056-.502l-.464 1.076s2.123 1.071 2.19 1.158l.587-.993s-.81-.541-.935-.551l-.323.581.532.296.118-.201-.342-.21.102-.19s.503.316.551.365l-.25.422-.116.115ZM48.768 49.792s-1.792-.527-1.92-.528l.121-.647.625.156-.051.21-.375-.095-.025.24.577.159.17-.698s-.674-.234-1.142-.258l-.216 1.151s2.306.58 2.39.65l.356-1.098s-.91-.35-1.034-.333l-.188.639.584.171.072-.222-.38-.129.058-.208s.56.198.617.235l-.151.467-.088.138ZM46.003 49.054s-1.861-.158-1.987-.133l-.01-.66.644.03-.01.214-.386-.017.025.24.596.04.026-.717s-.706-.095-1.17-.025l.02 1.171s2.375.107 2.471.159l.13-1.147s-.962-.161-1.08-.119l-.056.663.606.051.026-.232-.399-.05.016-.216s.588.083.652.107l-.056.488-.058.153ZM43.117 48.89s-1.864.12-1.985.163l-.107-.65.64-.067.023.214-.384.04.06.235.595-.05-.08-.713s-.712.01-1.16.149l.191 1.155s2.365-.246 2.469-.21l-.042-1.152s-.976-.017-1.086.042l.043.664.607-.04-.009-.233-.401.01-.017-.216s.594-.006.66.01l.018.49-.035.16ZM40.264 49.245s-1.803.49-1.912.557l-.236-.616.615-.194.065.205-.37.116.106.218.574-.167-.221-.683s-.696.153-1.107.378l.419 1.094s2.268-.715 2.377-.7l-.273-1.12s-.959.178-1.055.258l.175.642.587-.16-.055-.227-.392.09-.06-.209s.582-.124.65-.123l.115.478-.002.163ZM37.576 50.15s-1.656.864-1.75.952l-.361-.551.56-.32.106.186-.335.192.15.19.524-.286-.362-.62s-.647.298-1 .606l.642.98s2.064-1.183 2.173-1.191l-.505-1.038s-.899.38-.976.478l.308.59.54-.282-.103-.21-.364.172-.102-.19s.541-.246.608-.26l.214.442.033.16ZM35.033 51.58s-1.447 1.18-1.52 1.286l-.466-.467.483-.427.143.161-.29.256.185.156.456-.386-.48-.534s-.573.423-.857.795l.827.83s1.782-1.575 1.887-1.605l-.704-.914s-.804.553-.86.665l.421.515.472-.384-.143-.185-.321.24-.14-.165s.481-.35.544-.377l.3.39.063.15ZM32.873 53.473s-1.241 1.396-1.297 1.511l-.534-.386.409-.499.166.136-.245.3.208.124.388-.454-.558-.45s-.5.508-.72.921l.949.687s1.508-1.838 1.607-1.885l-.841-.79s-.705.673-.742.793l.497.442.404-.455-.17-.16-.279.29-.164-.142s.42-.422.477-.458l.357.337.088.138ZM31.091 55.691s-.933 1.618-.964 1.743l-.601-.27.3-.572.19.1-.18.342.229.08.289-.522-.639-.33s-.385.6-.519 1.05l1.069.48s1.105-2.105 1.193-2.17l-.983-.605s-.555.803-.567.927l.577.333.303-.527-.198-.122-.215.339-.19-.106s.326-.497.375-.545l.418.258.113.117ZM29.81 58.297s-.604 1.768-.61 1.896l-.642-.15.184-.618.206.061-.11.37.24.035.182-.568-.69-.2s-.263.662-.307 1.129l1.14.266s.68-2.28.754-2.36l-1.082-.403s-.39.893-.377 1.018l.63.215.196-.575-.219-.082-.145.374-.206-.067s.223-.55.262-.606l.46.172.134.093ZM27.263 60.322s.743.2 1.033.643c0 0 .417-.643.662-.2l.163.345s.807-.408 1.179-.136c0 0-.59.046-.753.662 0 0-.208.961-.906 1.315l-.018.317s.217.218.253.38c0 0 .5-.416 1.143-.362 0 0-.698.353-.707 1.296 0 0-.082.825-.635.988v.372s.29.064.363.272c0 0 .39-.499 1.097-.544 0 0-.58.363-.49 1.523 0 0-.109.635-.399.925l.046.29s.326.118.398.28c0 0 .59-.752.997-.697 0 0-.543.507-.217 1.242 0 0 .19.725-.209 1.36l.136.217s.318.054.427.317c0 0 .045-.716.815-.942 0 0-.49.68.127 1.531 0 0 .145.472-.1 1.043l.19.272s.336.018.409.154c0 0 .145-.952.698-1.052 0 0-.38.816.118 1.134 0 0 .616.68.362 1.486l.209.209s.326-.09.453.054c0 0-.054-.752.471-1.187 0 0-.226.87.508 1.305 0 0 .508.544.408 1.206l.218.19s.063.118-.145.09l-.236-.108s-.744.3-1.215.018c0 0-.625-.499-1.55-.417 0 0 .227-.399.979-.517 0 0-.073-.253-.027-.48l-.2-.218s-1.07.091-1.46-.29c0 0-.362-.625-1.26-.562 0 0 .11-.317 1.107-.39 0 0-.1-.253-.055-.489l-.217-.3s-.707.182-1.233-.462c0 0-.471-.698-1.224-.843 0 0 .562-.226 1.179-.126 0 0-.055-.327 0-.5l-.127-.235s-.77.028-1.215-.816c0 0-.39-.806-1.051-.97 0 0 .634-.19 1.25.073 0 0-.018-.272.082-.499l-.054-.308s-.88-.245-1.07-1.015c0 0-.263-.725-.843-1.079 0 0 .58-.036 1.215.227 0 0 .009-.236.145-.336l-.018-.399s-.68-.126-.853-.997c0 0-.036-.788-.616-1.387 0 0 .625.028 1.07.463 0 0 .154-.327.244-.363l.01-.39s-.535-.226-.608-.979c0 0 .09-1.178-.426-1.523l-.06-.088.033.007ZM59.932 60.322s-.743.2-1.033.643c0 0-.417-.643-.662-.2l-.163.345s-.807-.408-1.179-.136c0 0 .59.046.753.662 0 0 .208.961.906 1.315l.018.317s-.217.218-.253.38c0 0-.499-.416-1.143-.362 0 0 .698.353.707 1.296 0 0 .082.825.635.988v.372s-.29.064-.362.272c0 0-.39-.499-1.097-.544 0 0 .58.363.49 1.523 0 0 .108.635.398.925l-.045.29s-.327.118-.4.28c0 0-.589-.752-.996-.697 0 0 .544.507.217 1.242 0 0-.19.725.209 1.36l-.136.217s-.318.054-.426.317c0 0-.046-.716-.816-.942 0 0 .49.68-.127 1.531 0 0-.145.472.1 1.043l-.19.272s-.336.018-.409.154c0 0-.145-.952-.698-1.052 0 0 .38.816-.117 1.134 0 0-.617.68-.363 1.486l-.209.209s-.326-.09-.453.054c0 0 .054-.752-.471-1.187 0 0 .226.87-.508 1.305 0 0-.508.544-.408 1.206l-.218.19s-.063.118.146.09l.235-.108s.744.3 1.215.018c0 0 .626-.499 1.55-.417 0 0-.226-.399-.979-.517 0 0 .073-.253.027-.48l.2-.218s1.07.091 1.46-.29c0 0 .362-.625 1.26-.562 0 0-.11-.317-1.107-.39 0 0 .1-.253.055-.489l.217-.3s.707.182 1.233-.462c0 0 .471-.698 1.224-.843 0 0-.562-.226-1.178-.126 0 0 .054-.327 0-.5l.126-.235s.77.028 1.215-.816c0 0 .39-.806 1.052-.97 0 0-.635-.19-1.251.073 0 0 .018-.272-.082-.499l.055-.308s.879-.245 1.07-1.015c0 0 .262-.725.842-1.079 0 0-.58-.036-1.215.227 0 0-.009-.236-.145-.336l.019-.399s.68-.126.852-.997c0 0 .036-.788.616-1.387 0 0-.625.028-1.07.463 0 0-.154-.327-.244-.363l-.01-.39s.535-.226.608-.979c0 0-.09-1.178.426-1.523l.06-.088-.033.007Z" clip-rule="evenodd"/><path fill="#E60013" fill-rule="evenodd" d="m32.208 69.26-.252-.527.083-.04.036.06c.016.026.03.042.041.05.018.013.038.02.061.018.023 0 .05-.008.08-.022l.585-.279-.285-.597-.572.272a.226.226 0 0 0-.064.043.115.115 0 0 0-.029.064.381.381 0 0 0 .023.131l-.082.04-.252-.529.082-.039.037.06c.016.025.03.041.04.048.018.014.039.02.062.02.023-.001.05-.008.08-.023l1.186-.565a.213.213 0 0 0 .062-.043.108.108 0 0 0 .03-.064.31.31 0 0 0-.002-.071.285.285 0 0 0-.015-.066l.082-.04.252.529-.083.039a.404.404 0 0 0-.083-.103.082.082 0 0 0-.065-.019.265.265 0 0 0-.076.024l-.51.243.285.597.498-.237a.212.212 0 0 0 .062-.044.106.106 0 0 0 .03-.063.315.315 0 0 0-.002-.071.294.294 0 0 0-.015-.067l.083-.039.251.528-.082.04a.412.412 0 0 0-.083-.102.08.08 0 0 0-.066-.02.251.251 0 0 0-.075.024l-1.186.564a.218.218 0 0 0-.063.043.112.112 0 0 0-.03.064.36.36 0 0 0 .023.131l-.082.039ZM34.79 70.156a.418.418 0 0 0-.058-.06.223.223 0 0 0-.084-.048c-.028-.008-.07.001-.127.028-.056.028-.12.066-.195.115l-.659.44a.653.653 0 0 1-.246.105.496.496 0 0 1-.515-.209.561.561 0 0 1-.09-.212.48.48 0 0 1 .088-.38c.04-.053.088-.099.146-.137l.895-.597a.217.217 0 0 0 .056-.051.13.13 0 0 0 .022-.07.2.2 0 0 0-.012-.069.371.371 0 0 0-.024-.06l.076-.05.325.488-.076.05a.413.413 0 0 0-.098-.092.083.083 0 0 0-.068-.01.26.26 0 0 0-.072.034l-.837.559a.997.997 0 0 0-.12.095.476.476 0 0 0-.098.123.325.325 0 0 0-.037.152c0 .054.02.112.064.177.04.06.086.103.138.127a.33.33 0 0 0 .164.032.5.5 0 0 0 .152-.032.706.706 0 0 0 .136-.071l.622-.414c.079-.053.14-.1.185-.143.044-.042.068-.077.073-.104a.235.235 0 0 0-.011-.107.468.468 0 0 0-.034-.088l.076-.05.319.479-.076.05ZM35.992 71.575a.347.347 0 0 0-.072-.05.27.27 0 0 0-.085-.035c-.032-.003-.073.013-.124.047-.05.035-.11.083-.18.145l-.99.893-.058-.064.536-1.631-.698.628c-.078.07-.135.129-.17.174a.25.25 0 0 0-.058.115c-.004.024.004.06.023.106.02.046.035.075.045.087l-.068.061-.387-.43.068-.06a.462.462 0 0 0 .162.082.208.208 0 0 0 .114-.038c.042-.026.107-.08.196-.16l.666-.6a.447.447 0 0 0 .077-.09.236.236 0 0 0 .04-.093.3.3 0 0 0-.011-.12.29.29 0 0 0-.042-.096l.067-.06.27.298-.502 1.518.644-.58c.078-.07.135-.13.17-.175.036-.046.053-.083.054-.11a.308.308 0 0 0-.025-.1.402.402 0 0 0-.046-.088l.068-.06.384.425-.068.06ZM36.25 74.021l-.468-.354.055-.073a.477.477 0 0 0 .118.057c.035.01.058.008.07-.007a.242.242 0 0 0 .028-.05l.153-.396-.393-.298a3.891 3.891 0 0 0-.298.237.46.46 0 0 0-.038.042c-.02.027-.02.06.002.1.021.041.052.078.092.113l-.055.072-.422-.32.054-.073a.32.32 0 0 0 .06.027c.026.01.05.014.071.013a.29.29 0 0 0 .093-.02.528.528 0 0 0 .097-.058c.195-.14.412-.296.652-.472l.642-.468.064.048-.576 1.535a.348.348 0 0 0-.022.085.27.27 0 0 0 .005.08.183.183 0 0 0 .03.06.24.24 0 0 0 .04.047l-.055.073Zm-.003-.936.257-.691-.594.435.337.256ZM38.992 73.627a.341.341 0 0 0-.085-.024.264.264 0 0 0-.09-.006c-.032.006-.066.034-.103.084a1.716 1.716 0 0 0-.125.194l-.655 1.162-.075-.043-.011-1.717-.462.818a1.486 1.486 0 0 0-.106.219.251.251 0 0 0-.018.128.212.212 0 0 0 .056.092c.034.038.057.06.07.07l-.045.078-.503-.284.045-.079a.464.464 0 0 0 .18.027.208.208 0 0 0 .095-.073c.032-.038.077-.11.135-.213l.44-.781a.443.443 0 0 0 .045-.11.233.233 0 0 0 .008-.101.297.297 0 0 0-.048-.11.291.291 0 0 0-.07-.078l.044-.08.35.199.008 1.598.425-.754c.053-.093.088-.166.107-.221.019-.055.024-.095.016-.121a.308.308 0 0 0-.056-.087.395.395 0 0 0-.071-.069l.045-.08.499.282-.045.08ZM42.415 74.529a.416.416 0 0 0-.083.007.223.223 0 0 0-.09.034c-.025.018-.044.056-.059.117-.014.06-.026.135-.034.224l-.076.788a.654.654 0 0 1-.074.257.5.5 0 0 1-.488.268.562.562 0 0 1-.22-.065.48.48 0 0 1-.239-.308.587.587 0 0 1-.014-.2l.103-1.07a.218.218 0 0 0-.005-.077.13.13 0 0 0-.04-.06.198.198 0 0 0-.06-.034.384.384 0 0 0-.063-.02l.01-.09.583.056-.009.09a.412.412 0 0 0-.134.018.083.083 0 0 0-.05.047.267.267 0 0 0-.019.077l-.096 1.002c-.005.048-.006.1-.003.153a.474.474 0 0 0 .035.154c.021.05.053.091.094.125s.1.054.177.062a.348.348 0 0 0 .187-.027.33.33 0 0 0 .127-.107.496.496 0 0 0 .072-.139c.016-.049.026-.099.03-.15l.072-.743c.01-.095.012-.172.007-.234-.005-.06-.017-.102-.035-.122a.238.238 0 0 0-.09-.059.474.474 0 0 0-.09-.03l.01-.09.572.055-.008.09ZM44.315 74.586a.339.339 0 0 0-.085.02.267.267 0 0 0-.083.038c-.024.022-.04.063-.05.123a1.69 1.69 0 0 0-.014.231l-.011 1.334-.087-.001-.84-1.498-.008.94c-.001.105.003.186.013.242.01.057.025.097.046.121a.212.212 0 0 0 .093.054c.048.017.08.025.095.026v.092l-.579-.006.001-.09a.455.455 0 0 0 .09-.025.218.218 0 0 0 .08-.04.207.207 0 0 0 .049-.109c.01-.049.014-.133.015-.252l.008-.897a.434.434 0 0 0-.015-.118.234.234 0 0 0-.042-.092.299.299 0 0 0-.096-.073.292.292 0 0 0-.098-.034v-.09l.403.003.78 1.395.007-.866a1.406 1.406 0 0 0-.014-.245c-.01-.056-.025-.094-.045-.113a.31.31 0 0 0-.09-.049.402.402 0 0 0-.096-.026l.001-.091.573.005v.09ZM45.56 76.207l-.633.05-.008-.09.077-.015a.212.212 0 0 0 .07-.02.106.106 0 0 0 .044-.05.18.18 0 0 0 .008-.08l-.104-1.316a.219.219 0 0 0-.017-.074c-.009-.02-.027-.035-.055-.046a.482.482 0 0 0-.153-.033l-.007-.09.633-.051.007.09a.485.485 0 0 0-.145.043.086.086 0 0 0-.047.054.217.217 0 0 0-.006.078l.104 1.313a.186.186 0 0 0 .02.074c.012.021.03.037.054.048a.352.352 0 0 0 .07.017.376.376 0 0 0 .08.007l.007.09ZM47.169 73.985a.22.22 0 0 0-.055.033.194.194 0 0 0-.078.133.988.988 0 0 0-.007.108 126.515 126.515 0 0 0 .025 1.607l-.079.025a454.32 454.32 0 0 0-.922-1.361.25.25 0 0 0-.12-.095.181.181 0 0 0-.067-.012.264.264 0 0 0-.061.005l-.029-.086.554-.18.029.087a.635.635 0 0 0-.114.056c-.03.02-.04.041-.033.064a.316.316 0 0 0 .03.058l.24.352.473.698a48.248 48.248 0 0 0-.02-1.05 1.27 1.27 0 0 0-.013-.166.62.62 0 0 0-.018-.071.067.067 0 0 0-.034-.04.177.177 0 0 0-.062-.017.4.4 0 0 0-.07.003.848.848 0 0 0-.068.011l-.028-.087.498-.161.029.086ZM49.175 74.389l.218.491-1.044.527-.04-.082a.983.983 0 0 0 .065-.045.246.246 0 0 0 .05-.045.106.106 0 0 0 .017-.064.206.206 0 0 0-.024-.076l-.59-1.169a.241.241 0 0 0-.043-.062.101.101 0 0 0-.065-.027.411.411 0 0 0-.149.025l-.041-.081.973-.491.198.392-.067.033a.668.668 0 0 0-.17-.146c-.072-.045-.127-.063-.166-.05a1.703 1.703 0 0 0-.157.068l-.198.099.326.646.142-.071a.251.251 0 0 0 .091-.067.166.166 0 0 0 .028-.084.38.38 0 0 0-.012-.105.788.788 0 0 0-.035-.114l.067-.034.32.636-.066.033a.736.736 0 0 0-.078-.106.381.381 0 0 0-.077-.073.148.148 0 0 0-.091-.027.293.293 0 0 0-.1.033l-.142.072.247.488a.766.766 0 0 0 .066.112.13.13 0 0 0 .063.048.128.128 0 0 0 .077-.003.916.916 0 0 0 .117-.051l.077-.04a.459.459 0 0 0 .14-.097c.02-.02.03-.039.034-.058.008-.05.01-.12.001-.21a1.408 1.408 0 0 0-.026-.193l.064-.032ZM51.302 73.667l-.304.226a11.563 11.563 0 0 0-.852-.396l-.116.086.344.464a.257.257 0 0 0 .056.057c.019.014.042.019.068.014a.586.586 0 0 0 .126-.062l.055.074-.479.354-.054-.073c.012-.01.029-.027.05-.048a.18.18 0 0 0 .04-.051.096.096 0 0 0 .007-.065.213.213 0 0 0-.038-.074l-.785-1.057a.276.276 0 0 0-.056-.058.082.082 0 0 0-.068-.015.443.443 0 0 0-.126.052l-.054-.073.522-.387a.577.577 0 0 1 .149-.081.403.403 0 0 1 .159-.024c.053.003.106.02.159.05a.638.638 0 0 1 .24.303.407.407 0 0 1-.006.296.715.715 0 0 1-.07.137l.319.138.312.137a.445.445 0 0 0 .223.05.21.21 0 0 0 .067-.017.414.414 0 0 0 .058-.03l.054.073Zm-1.228-.78a.424.424 0 0 0-.215-.166.246.246 0 0 0-.225.045l-.135.1.465.629.105-.078a.28.28 0 0 0 .115-.227.479.479 0 0 0-.11-.302ZM51.896 72.113c.05.011.098.031.143.06.045.027.09.066.135.116.109.12.164.248.166.388a.439.439 0 0 1-.148.346.509.509 0 0 1-.165.099.665.665 0 0 1-.182.041l.032.098-.06.054-.43-.452.06-.054c.064.045.126.084.183.115a.786.786 0 0 0 .182.07c.06.013.117.016.171.008a.288.288 0 0 0 .149-.075.286.286 0 0 0 .072-.098.208.208 0 0 0 .018-.104.292.292 0 0 0-.032-.105.501.501 0 0 0-.25-.226.319.319 0 0 0-.2-.01l-.16.044c-.059.018-.112.031-.157.04a.505.505 0 0 1-.26-.01.578.578 0 0 1-.246-.172.523.523 0 0 1-.145-.347.426.426 0 0 1 .03-.168.376.376 0 0 1 .096-.138.384.384 0 0 1 .155-.09.771.771 0 0 1 .164-.027l-.029-.092.06-.054.412.442-.06.054a2.893 2.893 0 0 0-.17-.114.788.788 0 0 0-.168-.08.37.37 0 0 0-.157-.017.253.253 0 0 0-.142.069.203.203 0 0 0-.066.166c.003.068.029.13.08.186a.401.401 0 0 0 .163.116.34.34 0 0 0 .178.01c.056-.01.108-.022.157-.037.05-.016.099-.029.148-.04a.988.988 0 0 1 .135-.02.473.473 0 0 1 .138.008ZM53.478 71.563l-.4.492-.07-.057.042-.065a.215.215 0 0 0 .033-.065.106.106 0 0 0-.005-.066.179.179 0 0 0-.053-.062l-1.024-.831a.22.22 0 0 0-.065-.04c-.02-.006-.044-.003-.072.009a.478.478 0 0 0-.129.087l-.07-.057.4-.493.07.058a.48.48 0 0 0-.07.134.087.087 0 0 0 .007.07c.013.022.03.042.052.06l1.024.83c.021.018.044.03.067.036a.108.108 0 0 0 .071-.005.349.349 0 0 0 .06-.04.377.377 0 0 0 .061-.053l.071.058ZM53.52 69.257l-.038.057a1.094 1.094 0 0 0-.238-.057.619.619 0 0 0-.122-.003c-.037.003-.064.013-.08.029a1.569 1.569 0 0 0-.1.13l-.03.048 1.212.806a.212.212 0 0 0 .073.032.104.104 0 0 0 .072-.01.475.475 0 0 0 .062-.05.45.45 0 0 0 .063-.064l.076.05-.368.554-.076-.05c.01-.017.022-.042.039-.077a.272.272 0 0 0 .027-.076.107.107 0 0 0-.013-.067.192.192 0 0 0-.062-.06l-1.223-.812-.032.048a1.872 1.872 0 0 0-.081.142c-.01.02-.008.049.004.085.013.037.029.073.05.111a.953.953 0 0 0 .145.198l-.038.058-.412-.273.679-1.022.411.273ZM53.883 67.397a.204.204 0 0 0-.004.056.38.38 0 0 0 .034.127c.007.013.027.04.06.083.069.083.14.163.212.24l.28.29a.79.79 0 0 0 .105.094c.028.02.071.041.13.065l.323.13a.208.208 0 0 0 .08.017.115.115 0 0 0 .068-.025.425.425 0 0 0 .051-.06.387.387 0 0 0 .047-.074l.085.034-.247.612-.084-.035.022-.08a.262.262 0 0 0 .012-.08.105.105 0 0 0-.03-.065.222.222 0 0 0-.072-.043l-.41-.166a.275.275 0 0 0-.077-.01 22.164 22.164 0 0 0-.8.005.765.765 0 0 0-.124.013.341.341 0 0 0-.083.029.173.173 0 0 0-.048.042.288.288 0 0 0-.035.05l-.084-.033.225-.557.084.034a.485.485 0 0 0-.037.14c0 .029.008.047.025.054a.12.12 0 0 0 .027.005l.052.002h.172l.247-.003.322-.007a26.67 26.67 0 0 0-.381-.41.932.932 0 0 0-.171-.157.067.067 0 0 0-.05-.002.111.111 0 0 0-.043.03.245.245 0 0 0-.036.053l-.03.056-.085-.034.184-.454.084.034ZM39.587 78.46c.362-.013.587-.199.673-.557.047-.303-.041-.487-.262-.55-.206-.025-.339.076-.398.305-.025.212.048.343.219.395a.269.269 0 0 0 .176-.026c-.09.226-.235.352-.437.375l.03.057Zm.229-.791c.03-.192.087-.276.17-.253.093.02.12.138.082.351-.01.052-.025.113-.047.186-.057.026-.105.035-.143.026-.085-.013-.106-.117-.062-.31ZM40.791 78.736l.167.02.467-1.018.006-.071-.663-.083-.053.308.058.007c.013-.05.029-.08.047-.087.014-.013.047-.015.098-.009l.328.04-.455.893ZM42.464 77.88c-.366.01-.592.203-.677.575-.04.296.049.472.267.53.204.035.334-.063.388-.292.031-.22-.039-.354-.21-.401a.276.276 0 0 0-.183.025.536.536 0 0 1 .437-.375l-.022-.063Zm-.234.788c-.027.197-.084.284-.173.26-.088-.02-.112-.141-.072-.364.007-.042.018-.088.031-.138l.006-.028a.186.186 0 0 1 .144-.034c.085.014.106.115.064.304ZM42.778 78.8l-.002-.145.294-.002.002.144-.294.003ZM43.813 77.924l-.09-.005a1.073 1.073 0 0 1-.336.25l.025.051a.842.842 0 0 0 .196-.08l-.015.793c-.001.042-.021.064-.06.067l-.104-.006-.001.064.53.03.002-.064-.11-.006c-.039-.002-.058-.03-.057-.081l.02-1.013ZM44.491 79.082c.359-.05.563-.257.612-.622.014-.307-.092-.48-.319-.52-.207-.004-.328.11-.363.344-.003.213.083.337.258.37a.268.268 0 0 0 .172-.044c-.065.234-.197.374-.395.418l.035.054Zm.145-.81c.01-.193.058-.283.143-.269.095.011.134.125.118.341a1.754 1.754 0 0 1-.027.19c-.055.031-.101.045-.14.04-.086-.004-.117-.105-.094-.302ZM45.606 78.895l.642-.095-.027-.325-.052.008c.01.094-.024.144-.097.15l-.308.045c.04-.072.097-.162.174-.269.132-.167.182-.31.152-.43-.05-.193-.165-.283-.347-.27-.182.036-.27.168-.263.396l.064-.01c.003-.129.052-.205.15-.23.107-.01.177.058.208.206.05.103-.033.322-.247.659a1.115 1.115 0 0 0-.06.102l.011.063ZM47.157 77.406c-.35.113-.513.36-.491.741.043.296.177.44.402.435.207-.022.304-.152.293-.388-.031-.22-.136-.329-.314-.327a.276.276 0 0 0-.168.075.536.536 0 0 1 .316-.482l-.038-.054Zm-.007.823c.028.197-.003.296-.094.297-.09.006-.147-.104-.17-.33a1.618 1.618 0 0 1-.008-.14 1.41 1.41 0 0 1-.003-.028.185.185 0 0 1 .13-.073c.085-.01.133.081.145.274ZM53.921 54.765c-.001.001 0 .492-.375.7 0 0 .537.146.692.202 0 0 .18-.021-.111-.292 0 0-.128-.017-.17-.086 0 0 .08.01.122-.012 0 0-.089-.167.052-.06l.14.147s.124-.03.632-.026c0 0 .292.065.396-.188 0 0 .084.367-.462.3 0 0-.27-.065-.466-.025 0 0 .149.232.065.307 0 0 .863.353.74.579 0 0-.474.087-1.213.066 0 0 .172.305-.176.304 0 0-.768-.28-.823-.266 0 0-.06.01-.146.07 0 0 .587.424.38.611 0 0-.37-.093-.546-.28 0 0 .609.268.384-.041 0 0-.265-.232-.323-.191 0 0-.719.817-.906.695 0 0-.28-.427-.234-.68 0 0 .101.502.394.518 0 0 .508-.358.679-.568 0 0-.784-.425-.848-.413 0 0-.263-.332-.15-.305 0 0 .958.467 1.127.594 0 0 .047-.098.529-.02 0 0 .732.085.38-.045 0 0-.743-.388-.918-.626 0 0 .872.44.946.574 0 0 .139-.05.103-.109 0 0 .052 0 .081.063 0 0 1.276.045 1.064-.13 0 0-.59-.371-.717-.348l-.321.01-.056.154-.045-.161s-.357-.02-.413-.082c0 0 .792.049.454-.085 0 0-.608-.18-.788-.052 0 0 .014-.19.177-.359 0 0 .1-.083.177-.191 0 0-.021.285-.168.4l.173.029s.323-.234.475-.719l.01.023.003.014Z" clip-rule="evenodd"/><path fill="#E60013" fill-rule="evenodd" d="M54.308 55.923s-.047.233-.425.192l-.2-.076s.37.05.621-.13l.002.007.002.007ZM47.414 50.836s.333-.494.229.088c0 0-.444.895-.615 1.055 0 0 .412-.04.623-.172l.017-.287s.113.323.038.431c0 0-.459.227-.813.249 0 0-.605.806-1.186.802 0 0 .742-.262.875-.785l-.348.004s-.157-.053-.018-.109l.587-.097.584-1.087.027-.092Z" clip-rule="evenodd"/><path fill="#E60013" fill-rule="evenodd" d="M46.89 52.389c0-.004.496.94.954 1.075 0 0 .083.133-.242.076 0 0-.277-.028-.353-.277 0 0-.243-.646-.369-.814l-.018-.037s.026-.02.027-.023ZM31.252 56.189c-.006-.003.765.308.81.57 0 0-.009-.258-.26-.524 0 0-.192-.121-.52-.062l-.017.005s-.008.013-.014.01ZM33.88 57.346s.03.196-.191.082c0 0-.07-.035 0-.124 0 0-.305-.733-.064-.737 0 0 .162.078.263.204 0 0 .076-.046.01-.116 0 0-.154-.425-.303-.55 0 0 .011-.23.145-.126 0 0 .217.263.316.34 0 0 1.005.848 1.138 1.219 0 0 .085.208-.408.074 0 0 .337-.044.123-.24 0 0-.93-1.026-1.075-1.063 0 0 .314.702.422.89 0 0-.102.142-.236.028 0 0-.433-.785-.425-.416 0 0 .167.349.244.485l.021.03.02.02Z" clip-rule="evenodd"/><path fill="#E60013" fill-rule="evenodd" d="M33.228 55.788s.218-.425.134-.745c0 0-.003-.188.122-.075 0 0 .529.71 1.742 1.488 0 0-.41.271-.488.254 0 0 .68-.115.839-.178 0 0 .047-.06-.166-.172 0 0-1.573-1.102-1.747-1.51 0 0-.219-.432-.41-.068 0 0-.003.887-.026.946l-.02.06h.02Z" clip-rule="evenodd"/><path fill="#E60013" fill-rule="evenodd" d="M33.397 55.86s.34-.26.594-.017l.118.276s.168.108.353.086c0 0-.076.151-.274.083 0 0-.188-.105-.227-.257 0 0-.122-.301-.585-.154l.014-.012.007-.005ZM32.812 57.727s.999.575.636.13c0 0-.356-.538-.5-.585 0 0-.094.026-.135-.203l.007-.758s-.903-.92-.574-.817l.1.023.517-.045s.102-.096.257.08c0 0-.116.933-.009 1.236 0 0 .007.063-.122.23 0 0-.032.041.116.157 0 0 .39.512.537.722 0 0 .534.654.514.772 0 0-.153.167-.304.002 0 0-.478-.419-.587-.494l-.39-.379-.063-.07Zm-.386-2.163s.278-.039.33-.006c0 0 .15.09.16.15 0 0-.006.317-.09.26l-.376-.335-.024-.069ZM38.098 52.337c.004.012.066.081.803-.64 0 0-.077-.81.088-.896 0 0 .19.421.14.686 0 0 .158-.002.298-.27 0 0-.102-.174-.009-.098 0 0 .176.07.129.133 0 0-.651.88-1.147 1.068l-.342.051s.035-.047.04-.034ZM38.575 53.683s.002.157-.13-.053c0 0-.093-.286.108-.906 0 0 .456-.712 1.084-1.11 0 0 .126-.18.27-.115 0 0 .02-.02.12.37 0 0 .256 1.092.487 1.484 0 0 .082.5-.438.206 0 0 .39.066.299-.212 0 0-.47-1.208-.477-1.562 0 0-.032-.182-.287-.042 0 0-.82.644-.773.872 0 0 .2.215.373-.237 0 0 .19-.17.195.011 0 0-.229.345-.074.401 0 0 .344.027.236.365l.088.457s-.038.071-.176-.328c0 0-.211.272-.268.1l.072-.45s-.178-.063-.096-.208c0 0-.05-.114-.004-.139 0 0-.149.13-.119.222 0 0-.073.067-.148-.015 0 0-.212-.105-.323.12 0 0-.184.357-.064.7l.02.042.025.027Zm.8-.76s.125.089.098.234c0 0-.139.16-.17.064l.03-.259.042-.04Z" clip-rule="evenodd"/><path fill="#E60013" fill-rule="evenodd" d="M43.607 53.324c5.667 0 10.29 4.621 10.29 10.288s-4.623 10.29-10.29 10.29c-5.667 0-10.289-4.623-10.289-10.29 0-5.667 4.622-10.288 10.29-10.288Zm-8.902 5.906s.204-.4.424-.776c0 0 2.518-.322 5.591-1.994 0 0 .163-.15.354 0l.897.761 1.618-1.713 1.578 1.713 1.047-.802s.15-.04.244.041c0 0 4.093 2.244 5.548 1.863 0 0 .509.862.503.91l-2.284.006-1.265-.563.87 1.755-.8-.002-.006 1.121-.839.008v.445l-.702-.332.695-1.088-1.436-.03.688-1.677-1.632.785-4.45-.007-1.63-.787.631 1.668h-1.36l.644 1.125-.619.309v-.433l-.84.013v-1.125h-.865l.927-1.755-1.298.556-2.233.005Zm6.44 9.127 4.925.014.06.56-5.091.03s.106-.65.106-.605Zm-.227 1.012-.06.332h5.439l-.121-.332h-5.258Zm-.197.83v.363h5.712l-.03-.362s-5.681.03-5.681 0Zm-.12.801-.015.408h5.968v-.438L40.6 71Zm.105-2.659-5.847-.03s1.24 2.37 3.487 3.718c0 0 2.018 1.401 4.83 1.506 0 0 2.844.22 5.468-1.37 0 0 2.193-1.101 3.689-3.848l-5.861.027.639 3.468-7.112-.027s.721-3.474.707-3.444Zm6.277-5.046-.525.318-.003 4.271.592-.042s-.034-4.565-.064-4.547Zm1.378 2.867h.968v-1.58h-.968v1.58Zm-2.337-2.223-1.32.013-.013 3.073 1.333.694v-3.78Zm-3.06-.354 1.264.014.027 3.712 1.238.653h-3.78l1.25-.667v-3.712Zm-1.822.354 1.319.013.013 3.073-1.332.694v-3.78Zm-1.06-.749.626.423.003 4.271-.625-.008s-.033-4.706-.004-4.686Zm-5.15-3.54h2.337l-.627 1.192 1.129.01v1.193h.774l-.01.7h-.283l-.005-.413.006-.003-1.267.005-.005-.152h.163l.006-.57-1.816-.005v.574h.173l-.002.147-1.044.006-.023 5.068s-1.139-2.617-.629-5.336l1.105-.832s-.023-1.584.017-1.584Zm-.412-.005.008 1.343-.61.481s.31-1.337.602-1.824Zm4.5 2.783.389.333-.377-.006-.012-.327Zm-1.184 3.734h.969v-1.58h-.969v1.58Zm2.69-6.44.694.294-.441 3.143-1.305-.916.734-.399-.517-.924 1.242-.01s-.426-1.208-.408-1.188Zm1.114.436-.444 3.02h.462l.345-3.02h-.363Zm.753 0-.318 3.01h.453l.1-3.018-.235.008Zm.725 0-.163 3.028.444-.009V60.15s-.28 0-.281.008Zm.689 0h.28l.164 3.02-.435-.01-.01-3.01Zm.988 0 .317 3.01h-.453l-.1-3.018.236.008Zm.752 0 .445 3.02h-.463l-.344-3.02h.362Zm2.599 2.27-.39.333.377-.006.013-.327Zm4.143-2.711h-2.338l.628 1.192-1.13.01v1.192h-.773l.01.7h.282l.005-.412-.006-.004 1.267.005.006-.152h-.163l-.007-.57 1.816-.005v.574h-.172l.001.147 1.045.006.023 5.068s1.138-2.617.628-5.335l-1.104-.833s.022-1.583-.018-1.583Zm.43-.006-.008 1.343.605.48s-.33-1.337-.597-1.823Zm-6.069.034-.695.294.441 3.143 1.306-.916-.735-.399.517-.924-1.242-.01s.426-1.208.408-1.188Zm-11.216-1.738s2.145-.257 5.424-2.115c0 0 .196 0 .287.075l.77.665 1.677-1.722 1.617 1.767.921-.74s.091-.06.242 0c0 0 3.524 1.964 5.349 1.987 0 0-1.511-2.56-4.941-3.71 0 0-4.539-1.83-9.026 1.388-.01-.007-1.454 1.069-2.278 2.327l-.05.074.008.004ZM35.88 75.143l-.014 1.605-2.693.04s3.169 2.516 5.983 3.02l.136-.463s4.691 1.033 8.512-.055l.19.544s3.55-.91 5.97-3.06l-2.692-.013-.04-1.563s-1.782 1.169-2.87 1.414l-.19-.422s-4.24 1.715-9.173.007l-.233.524s-2.705-1.291-2.887-1.578Zm12.589 1.942c-.012 0 1.903-.747 2.368-1.155v1.246l1.903-.011s-2.153 1.53-4.419 2.175l-.034-.113s.726-.272.816-.351l-.578-1.62s-.045-.17-.056-.17Zm-9.273-.419-.605 1.98s4.509 1.828 9.893.005l.075-.04-.612-1.87s-4.838 1.572-8.646-.075l-.08-.038s-.02.035-.025.038Zm-2.954-.722.019 1.243h-1.806s1.495 1.301 4.389 2.117l.02-.097s-.72-.275-.782-.337c0 0 .621-1.733.585-1.796 0 0-1.342-.499-2.366-1.124l-.055-.04-.005.034ZM126.987 55.405c.214.603-2.254 2.943-2.452 3.468-.33.217-.654.444-.764.867.36.102.734.046.968.434-.394.985-.919 1.256-1.532 2.023-.937.435-1.839.662-2.554 1.348.017.113.16.109.204.193 1.09-.498 2.703-.694 3.525.145-.007.056.012.086.051.096-.777.568-1.788 1.166-2.808 1.349-.04-.476.779-.546.969-.964.023-.164-.151-.144-.205-.24-.525.202-1.179.202-1.583.674.075.688.204 1.348.358 1.975-.081.961.664 2.22-.613 2.697-.177-.036-.381-.052-.562.048-.545-.223-1.068-.367-1.686-.53-.17-.222-.404-.39-.612-.578.768.012 1.851.1 2.707-.096.589-.887.014-2.077-.154-3.13-.057.007-.089-.011-.1-.049-1.436-.038-3.148 1.371-4.497 1.59-.455.628-.927.138-1.583.096-.093-.199-.368-.23-.409-.482.45-.203.937.056 1.226-.337 1.703-.468 3.516-1.676 5.108-2.023.134-.022.228-.327.102-.434.292-.76 1.464-.923 1.481-1.782-.451-.295-.836.384-1.223.29-.19.192-.56.21-.718.433-.868.038-1.953.421-2.809-.048 1.284-.474 2.424-.733 3.269-1.397.907-.087 1.386-.689 2.247-.964.099-.04.279-.248.205-.289 1.382-.777 1.914-3.089 2.86-3.757-.004-.18-.055-.136 0-.289-1.113.075-1.634.964-2.554 1.06a2.25 2.25 0 0 1-.664.337c-.46.381-.462.996-.968 1.252-.032.39.055.418.204.675-.062.072-.149.118-.155.24-.285-.011-.407.007-.562-.047-.596.5-1.166 1.27-2.094 1.3.053-.542 1.588-1.072.97-1.638-.383.185-.506.614-.713.964-1.149-.133-.793 1.047-1.636 1.252.006-.086-.062-.102-.049-.193-.86-.524-.594-1.571-1.073-2.456.06-.008.043-.088.049-.145.488.13.539.484.869.82.374-.049.47.529.919.192-.092-1.072-.632-1.806-.868-2.698-.245-.264-.507-.517-.665-.867.045-.072.167-.07.256-.096.104.129.049.183.102.29.526.164 2.161 1.816 1.737 2.36.23.587.953.112.919-.29-.183.01-.151-.148-.102-.385.528.044 1.243-.02 1.481-.578-.566-.086-1.426-.008-1.992.337-.127-.04-.159-.168-.255-.24.181-.248.581-.083.766-.386.032-.424-.466-.082-.766-.29-.07-.137.14-.244 0-.288.01-.054.053-.026.051 0 .619.028 1.541-.024 2.043-.482.57-1.033 1.349-1.84 1.637-3.13-.13-.4-.505-.791-.309-1.108.23-.103.611.421.97.385.807.644.59 1.469-.048 2.167-.692.18-.69.928-1.178 1.253-.021.014-.07-.073-.1-.048-.204.156-.48.32-.512.626.627.18 1.245.036 1.736.24.877-.543 1.924-.586 2.607-1.155.575-.002 1.096.118 1.531.433Z" clip-rule="evenodd"/><path fill="#E60013" fill-rule="evenodd" d="M122.494 57.235c.44.073.787.177 1.072.53-.385 1.068-1.296 1.638-1.941 2.457-.161-.107-.359.114-.512 0 .664-1.038.968-1.9 1.381-2.987ZM110.422 66.642c-.033.222-.295.094-.269.294-.819-.026-2.22.865-2.718-.168-.258-.188-.674-.672-.711-1.05a1.21 1.21 0 0 1-.447-.63c-.481-.568-1.068-1.039-1.426-1.723.031-.006.043-.032.037-.053.62.511 1.29 1.32 2.146 1.733.03.1.028.186.134.294.553.114 1.047.692 1.605.63.409.648 1.218.256 1.649.673Z" clip-rule="evenodd"/><path fill="#E60013" fill-rule="evenodd" d="M107.08 58.575c.448.448.971 1.055 1.023 1.722-.633.643-1.375 1.397-2.361 1.807-.121.236-.368.157-.446.378-.358.04-.816.163-.713.504-.148.078-.274.08-.445.21-.176.829-.765 1.268-.98 2.06-.799.742-1.547 1.764-2.718 1.806-.006-.075.056-.09.044-.168.141.047.102.003.268 0 .64-.632 1.435-1.476 1.782-2.521.301-.237.505-.56.535-1.05-.223-.288-.446.098-.624.041-.095.036-.071.184-.134.253-.575-.107-.843-.508-1.248-.588-.094-.064.034-.104-.044-.21.886-.22 1.778-.72 2.673-1.22.398-.95.568-1.676.891-2.478-.137-.242.075-.62.179-.799-.089-.27.042-.57.178-.84-.045-.143-.097-.478.044-.462.088-.573.062-.931.312-1.429-.128-.238-.026-.453-.222-.588.232-.19.584.091.801 0 .385.352.635.67.624 1.176-.326.312-.286.692-.356.967-.011.049-.115.079-.134.126-.05.137.059.362.045.42-.049.203-.351.326-.179.546-.007.048-.044.023-.044 0-.191.468-.251 1.23-.579 1.807-.021.133.137.095.089.252-.091.04-.091.165-.223.168.065.15.182.25.314.336.616-.113 1.116-.53 1.602-.63.512-.422-.046-1.077.046-1.596ZM100.715 64.355l-.037-.031c.021 0 .034.014.037.031ZM95.068 65.993c-.011.504.063.945-.178 1.47-.204.447-.776.372-1.203.42-.56-.468-1.125-.724-1.426-1.386.604.475 1.767.78 2.094.042.246-.953-.364-4.651-.223-5.924-.009-.312.047-.83.045-1.219-.084-.115-.182-.22-.267-.336-1.454.13-2.796 1.247-4.055 2.143.004.305-.332.52-.668.63-.208.457.425.744.802.42.428-.57.73-1.465 1.648-1.218.08.08.242.303.357.21.053.091.093.193.133.294-.443.49-1.095.788-1.336 1.47.126.309.455.162.624.42-.02.327.41.64.445.925-.15.023-.098.279-.134.337-.176.304-.453.421-.49.798-.013.14.095.304.09.462-.002.067-.092.144-.09.21.011.336.034.613-.223.966-.668-.204-.217-.992-.623-1.302-.292.047-.468.203-.713.294-.217-.126-.424-.327-.446-.546-.055-.578.957-.97.758-1.513-.086-.13-.221-.21-.312-.336.039-.203-.041-.297-.09-.42-.298-.04-.393.203-.668.168-.185-.023-.347-.266-.534-.294-.323-.047-.446.112-.713.42-.417.017-1.014.983-1.114 1.345-.186.688.32 1.654-.4 2.058-.008-.047-.046-.022-.046 0-.298-.259-.315-.535-.579-.798.051-2.245 2.062-3.342 3.075-5 .344-.016 1.139-.803.98-1.176-.373-.051-.669.246-1.114.504-.926.537-2.263.786-3.03-.294.102-.023-.054-.065.045-.126 1.082.226 4.05-1.299 4.723-2.101-.093-.153.128-.135-.045-.252.197-.161.252-.5.267-.715.243-.801.427-1.73 1.025-2.479.277-.007.336.188.624.168.148.37-.241.906 0 1.26-.074.356-.238.852.089.925.33.074.498-.399.936-.378.18-.305-.158-.443 0-.756.269.248.555.254.802.546-.056.163 0 .275-.134.42-.07.012-.076-.04-.134-.042-.352.534-.935.853-1.336 1.345-.758.052-.936.791-1.47.924-.004.14-.073.231 0 .378.31-.001.571-.08.757-.294.072-.012.078.04.133.042.617-.438 1.25-.612 1.872-1.008.19.052.564-.048.624-.252.855-.128 1.177 1.18.712 1.89.07.9-.642 5.207.134 6.261ZM80.985 56.76c-.785.822-1.41 3.663-1.158 4.748-.06.042-.088.112-.134.168.097 1.069-.199 5.047.312 5.799.004.382-.037 1.003-.713 1.05-.867-.938-1.957-1.423-2.763-2.437.34.135-.192-.177.045-.168.206.506.947.508 1.292.882.438-.026.438.12.847.085.087-.195.067-.613-.045-.757.336-2.686-.013-5.318.446-8.025.018-.098.07-.492.044-.588-.17-.67-1.654.73-1.871 1.008-.394.179-.811.095-1.114.378-.232-.094-.412-.02-.49-.294.308-.023.62-.259.802-.42.631-.557 1.248-.945 1.871-1.428.212-.164 1.004-.664.98-.967.318-.103.565-.255.98-.084.198.469.583.367.669 1.05Z" clip-rule="evenodd"/><path fill="#E60013" fill-rule="evenodd" d="M77.733 60.5c.29.818-.106 1.436-.535 2.227.005.105.084.13 0 .21.243.28.774.735.312 1.135-.321-.146-.542-.242-.802-.505-.347-.721-.034-1.598.267-2.185.032-.856-.633-1.668-1.337-2.1.03-.042.104-.044.09-.126.852.013 1.652.67 2.005 1.344Z" clip-rule="evenodd"/><path fill="#E60013" fill-rule="evenodd" d="M76.485 60.668c.132.161-.06.29-.134.504-.184.547-.198 1.271-.267 1.849-.048.422-.047.82-.089 1.219a7.01 7.01 0 0 0 .089 2.1c-.394 1.004.03 2.26-.758 2.858-.014.47-.495.765-.89 1.008-.578-.033-.481-.385-.624-.798-.117-.34-.431-.645-.891-.757.328-.583 1.772.877 1.603-.504.212-.457.342-1.402.357-1.933.152.032.074-.154.178-.168-.031-.905.177-2.011.312-2.857-.015-.056-.078-.066-.09-.126-.259.021-.378.175-.534.294-.219 1.061-.83 1.725-1.114 2.521-.542.124-.739-.154-1.069-.378.23-.287.221-.677.357-1.05.074-.203.415-.715.49-.967.057-.185.028-.65.133-.672-.61-.354-1.154 1.133-1.292 1.807a.89.89 0 0 0-.222.168c.009.163.001.31-.045.42-.078.039-.221.014-.267.084-.221-.133-.286-.194-.535-.252-.307-.447-.024-.979 0-1.429.254-.043.232.175.445.168.478-.243.92-.952 1.382-1.386.525-.49.757-.62 1.247-.042.01.201-.154.539.09.714.855-.651 1.06-1.383 1.38-2.437.303-.05.517-.023.758.042Z" clip-rule="evenodd"/><path fill="#E60013" fill-rule="evenodd" d="M76.53 56.676c-.01.242-.073.457 0 .673-.608 1.066-2.069 1.325-2.852 2.227-.82.428-1.281 1.199-1.96 1.764-.46-.01-1.036.058-1.382.252.065.488.082 1.415-.312 1.765-.13 1.355-.391 2.34-.98 3.277 0 .852-.663 1.398-.757 2.228-.028.248.154.57-.178.714-.505-.216-.98-.518-1.114-.967.183-.444.018-1.208.089-1.975.087-.906.114-3.399.535-3.907-.012-.292-.058-.298 0-.546.276.373.415.773.445 1.218.414.43.138 1.086.624 1.345.425-.454.659-1.087.802-1.807.381-.917-.157-1.488.044-2.059.084-.488 1.29-1.095 1.693-1.596.468-.228.934-.426 1.248-.883.013-1.175.455-1.667.401-2.773.256-.64.603-1.09.802-1.723.227-.026.329.023.446-.042.566.37.4 1.438 1.069 1.513-.061.21.215.434.49.462.184.373.627.5.846.84Zm-1.337-.294c-.26-.274-.022-.761-.401-.924-.225.213-.418 1.287-.045 1.345.247.038.301-.256.446-.42Z" clip-rule="evenodd"/><path fill="#E60013" fill-rule="evenodd" d="M74.792 55.458c.379.163.14.65.4.924-.144.165-.198.459-.445.42-.373-.057-.18-1.13.045-1.344ZM70.515 55.248c-.297.143-.205.865-.535.84-.099.522-.466.791-.713 1.177-.321-.107.019-.413.09-.63-.073-.535.16-1.03.177-1.345.062-1.044-.662-1.529-.713-2.521a.61.61 0 0 1 .268-.21c.386.887 1.192 1.542 1.426 2.689ZM69.122 76.103v.201h1.652v-.201h-.081c-.282.013-.416-.114-.402-.383v-2.054c-.014-.255.113-.376.382-.362h.1v-.202h-1.65v.201h.04c.295-.013.436.115.422.383v.806h-1.711v-.826c-.014-.255.12-.376.403-.362h.08v-.202h-1.65v.201h.079c.255 0 .383.12.383.363v2.054c0 .255-.128.383-.383.383h-.08v.201h1.651v-.201h-.08c-.27 0-.403-.128-.403-.383v-.927h1.711v.907c0 .268-.127.403-.382.403h-.08Zm4.713-2.8h.08c.295-.013.436.161.423.524v1.248c-.014.618-.349.933-1.007.947-.604-.014-.913-.295-.926-.846v-1.53c0-.228.12-.343.362-.343h.08v-.201h-1.61v.201h.1c.256-.013.376.101.363.343v1.53c.013.765.517 1.155 1.51 1.168.954-.013 1.437-.456 1.45-1.329v-1.289c-.013-.295.141-.436.463-.422h.04v-.202h-1.328v.201Zm2.557.443 2.457 2.558h.281v-2.74c-.012-.187.128-.274.424-.26h.06v-.202h-1.329v.201h.06c.215 0 .35.027.403.081.054.054.08.175.08.362v1.551l-2.114-2.195h-1.047v.201c.161 0 .295.034.403.101v2.377c.013.215-.114.322-.382.322h-.04v.201h1.248v-.201c-.363.026-.53-.114-.504-.424v-1.933Zm5.94 1.37.243.604c.067.12.08.215.04.281-.04.068-.135.102-.283.102h-.18v.201h1.671v-.201c-.241 0-.417-.155-.524-.463l-1.027-2.618h-.765l.06.14-.885 2.457c-.108.336-.276.497-.504.484h-.08v.201h1.37v-.201h-.062c-.228 0-.369-.028-.423-.08-.053-.041-.047-.142.02-.303l.202-.604h1.127Zm-.1-.282h-.927l.444-1.208.483 1.208Zm2.84-1.088 2.456 2.558h.282v-2.74c-.013-.187.128-.274.424-.26h.06v-.202h-1.33v.201h.061c.215 0 .35.027.403.081.054.054.08.175.08.362v1.551l-2.114-2.195h-1.047v.201c.161 0 .295.034.403.101v2.377c.013.215-.115.322-.383.322h-.04v.201h1.248v-.201c-.362.026-.53-.114-.503-.424v-1.933Zm7.652-.442h.081c.295-.014.436.16.423.523v1.248c-.014.618-.349.933-1.007.947-.604-.014-.914-.295-.927-.846v-1.53c0-.228.12-.343.363-.343h.08v-.201h-1.611v.201h.101c.256-.013.376.101.363.343v1.53c.013.765.516 1.155 1.51 1.168.953-.013 1.436-.456 1.45-1.329v-1.289c-.014-.295.14-.436.463-.422h.04v-.202h-1.329v.201Zm2.558.442 2.456 2.558h.282v-2.74c-.013-.187.128-.274.424-.26h.06v-.202h-1.33v.201h.06c.216 0 .35.027.404.081.054.054.08.175.08.362v1.551l-2.114-2.195h-1.047v.201c.161 0 .295.034.403.101v2.377c.012.215-.115.322-.383.322h-.04v.201h1.248v-.201c-.362.026-.53-.114-.503-.424v-1.933Zm3.786-.442h.06c.268-.014.396.114.382.382v2.054c.014.242-.114.363-.382.363h-.06v.201h1.631v-.201h-.081c-.282.013-.416-.114-.402-.383v-2.034c0-.255.134-.383.402-.383h.081v-.201h-1.631v.201Zm3.906 3.04h.323l1.068-2.497c.147-.39.348-.57.604-.543h.019v-.202h-1.308v.201h.12c.282.013.389.108.322.282l-.785 1.893-.805-1.732c-.081-.16-.095-.275-.041-.342s.189-.1.403-.1h.08v-.202h-1.792v.201h.04c.148 0 .255.027.323.081.054.04.128.154.221.342l1.208 2.618Zm4.834-2.96c.201-.027.322.127.363.463h.201l-.061-.745h-2.839v.201h.061c.308-.013.456.108.442.363v2.074c.014.256-.12.376-.403.363h-.201v.201h3.101l.061-.806h-.202c-.067.376-.261.55-.583.524h-.866c-.148.027-.215-.06-.202-.262v-.926h.765c.349-.027.504.093.463.362h.202V74.17h-.202c.014.254-.114.375-.382.361h-.846v-1.147h1.128Zm2.517 1.55h.403c.134.108.322.323.564.645.161.228.275.376.342.443.121.12.262.208.423.262.161.027.396.04.705.04h.322v-.16a.928.928 0 0 1-.685-.323 5.446 5.446 0 0 1-.423-.504 3.7 3.7 0 0 0-.463-.544c.497-.134.752-.409.765-.825a.794.794 0 0 0-.241-.584c-.228-.255-.705-.376-1.43-.362-.188 0-.47.013-.846.04-.107 0-.282.006-.524.02a.567.567 0 0 1-.141.02v.201h.102c.308-.013.449.115.422.383v2.034c.013.269-.135.396-.443.383h-.081v.201h1.793v-.201h-.161c-.269 0-.403-.128-.403-.383v-.786Zm0-1.691h.282c.591.013.893.262.906.745.013.497-.315.745-.987.745h-.201v-1.49Zm3.443 3.041h.141c.028-.054.061-.08.101-.08.027 0 .087.012.181.04.296.067.531.1.705.1.685-.026 1.054-.336 1.108-.926 0-.242-.1-.47-.302-.685-.161-.161-.43-.336-.806-.524-.416-.228-.624-.43-.624-.604.026-.228.195-.349.503-.362.416.013.699.242.846.684h.202l-.101-.825h-.101c-.027.013-.034.02-.02.02a.197.197 0 0 1-.1.04.834.834 0 0 1-.141-.04 2.452 2.452 0 0 0-.645-.1c-.658.04-1.007.322-1.047.845.081.497.382.833.906 1.007.443.175.691.423.745.745-.026.322-.221.49-.584.504-.43 0-.725-.255-.886-.766h-.201l.12.927Zm2.941-2.98h.06c.268-.014.396.114.382.382v2.054c.014.242-.114.363-.382.363h-.06v.201h1.631v-.201h-.081c-.282.013-.416-.114-.402-.383v-2.034c0-.255.134-.383.402-.383h.081v-.201h-1.631v.201Zm4.33.06h.604c.215 0 .349.033.402.1.054.054.108.222.162.504h.201l-.08-.967h-.181c-.055.08-.135.114-.243.1h-2.456a.437.437 0 0 1-.141-.02.454.454 0 0 1-.101-.08h-.161l-.101.967h.222c.053-.282.107-.45.161-.504.054-.067.181-.1.383-.1h.624v2.356c.013.255-.121.383-.402.383h-.182v.201h1.853v-.201h-.121c-.323.013-.47-.114-.443-.383v-2.356Zm4.229 1.651.865-1.349c.094-.148.175-.242.242-.282a.963.963 0 0 1 .342-.08v-.202h-1.229v.201h.061c.148 0 .242.034.282.101.027.067 0 .168-.08.303l-.605.946-.825-1.088c-.053-.08-.06-.147-.02-.201.04-.04.12-.06.241-.06h.081v-.202h-1.692v.201h.041c.134 0 .227.013.282.04a.548.548 0 0 1 .181.202l1.107 1.47v.725c.014.242-.114.363-.382.363h-.141v.201h1.772v-.201h-.081c-.322.013-.47-.114-.442-.383v-.705Z" clip-rule="evenodd"/></g><defs><filter id="a" width="154" height="157" x="0" y="0" color-interpolation-filters="sRGB" filterUnits="userSpaceOnUse"><feFlood flood-opacity="0" result="BackgroundImageFix"/><feColorMatrix in="SourceAlpha" result="hardAlpha" values="0 0 0 0 0 0 0 0 0 0 0 0 0 0 0 0 0 0 127 0"/><feOffset dy="16"/><feGaussianBlur stdDeviation="6.5"/><feColorMatrix values="0 0 0 0 0 0 0 0 0 0 0 0 0 0 0 0 0 0 0.03 0"/><feBlend in2="BackgroundImageFix" result="effect1_dropShadow_185_144"/><feBlend in="SourceGraphic" in2="effect1_dropShadow_185_144" result="shape"/></filter></defs></svg>