<svg xmlns="http://www.w3.org/2000/svg" xml:space="preserve" style="fill-rule:evenodd;clip-rule:evenodd;stroke-linejoin:round;stroke-miterlimit:2" viewBox="0 0 154 157"><path d="M34.766 63.474c0 8.05 4.45 15.77 12.37 21.461 7.92 5.692 18.663 8.89 29.864 8.89s21.943-3.198 29.863-8.89c7.921-5.691 12.37-13.411 12.37-21.461 0-8.049-4.449-15.769-12.37-21.461-7.92-5.691-18.662-8.889-29.863-8.889s-21.944 3.198-29.864 8.889c-7.92 5.692-12.37 13.412-12.37 21.461Z" style="fill:#fff;fill-rule:nonzero" transform="translate(-10.5 6.187) scale(1.13636)"/><path d="M107.029 58.175c-3.211-5.941-9.153-9.474-15.416-11.722-6.584-2.249-13.97-2.891-20.876-1.767-6.262.642-12.846 3.051-17.985 7.066-5.299 3.854-8.35 10.277-6.102 16.701 4.175 11.401 18.467 15.416 29.387 15.737 6.744.642 14.131-1.124 20.233-4.015 5.781-2.89 11.723-7.868 12.205-14.774.16-2.729-.482-4.978-1.446-7.226.964 2.248-1.445-2.569 0 0ZM72.986 45.328c2.73-.321 5.46-.321 8.189 0 2.73.482 5.3 1.125 7.869 2.249H65.278c.321-.482 5.459-1.927 7.708-2.249 2.73-.16-2.249.322 0 0ZM61.263 80.336c-6.905-2.57-14.934-8.351-14.453-16.701 0-8.672 9.314-13.81 16.219-16.219h.322c-.161 0-.161.161-.322.161-3.051 1.605-5.62 3.532-7.708 6.262-4.014 4.818-4.817 11.723-2.087 17.343 2.248 4.336 5.781 7.227 9.956 9.636 0 0 .161 0 .161.16-.643-.16-1.446-.482-2.088-.642.642.16-2.89-1.124 0 0Zm19.752 2.409c-5.46.642-11.241.16-16.219-2.249h24.248c-2.569 1.124-5.299 1.927-8.029 2.249ZM63.19 79.533c-.161 0-.321-.161-.482-.161-1.766-.963-3.533-2.248-5.138-3.693l-.161-.161c13.007 0 25.854.161 38.861.161-.16.16-.321.321-.642.321a33.67 33.67 0 0 1-4.818 3.533c-.481.482-1.766.16-2.408.16H77.643c-4.818-.16-9.636-.16-14.453-.16Zm41.912-8.19c-3.211 4.818-8.671 8.19-14.131 9.796h-.321c.16 0 .16-.161.321-.161 5.46-2.89 9.796-7.547 11.08-13.65 1.446-8.832-4.014-15.737-11.241-19.912-.16 0-.321 0-.321-.161.482.161.964.322 1.285.803 3.051 1.124 5.781 2.409 8.35 4.336 6.424 4.175 9.154 12.044 4.978 18.949 1.285-1.927-1.445 2.248 0 0Z" style="fill:#132d81;fill-rule:nonzero" transform="translate(-10.5 6.187) scale(1.13636)"/><path d="M79.891 73.591c-.482.161-.964.482-1.285.643v.16c0 .161.16.161.16.161.482-.321.803-.642 1.125-.964Zm-15.577-.963c.321-.161.482-.321.803-.642 0 0 0-.161-.161-.322h-.16c-.321.322-.482.482-.482.964Zm16.701-.964c-.161.482-.161.643.321.643h.16s0-.161-.16-.161c0-.482-.161-.482-.321-.482Z" style="fill:#132d81;fill-rule:nonzero" transform="translate(-10.5 6.187) scale(1.13636)"/><path d="M50.504 42.759c1.284-.481-.643-2.569 1.605-1.445.322.803-.803 1.124-.642 1.927 0 1.124 1.124.321.642-.321 0-.161 0-.321-.16-.482.321 0 .803 0 1.124.161.16 0 .16.16 0 .321-.161.321-.161.642-.321.803v.321c.16 0 .16 0 .16.161 0-.643.803-1.446 1.285-1.125v.322c-.321.481-.642.963-.964 1.284 0 .161 0 .161-.16.321.16 0 1.124.161 1.124.322-.161.321-.642.642-.803 1.124 0 .321.803 1.445.964 1.766 0 2.409-1.285-.16-1.927-.803-.322.482-.643.803-.964 1.124a1.226 1.226 0 0 1-.803.321v-.321c.321-.642.642-1.124.803-1.927 0-.16.161-.321.161-.642-.161 0-.161.161-.322.161-.481.642-.963 1.124-1.284 1.605-.321.322-.643.643-1.124.482-.161 0-.321-.16-.482-.16.963-.964 1.606-1.767 2.569-2.73-.16-.161-.16-.322-.321-.482-.16.16-.16.321-.16.482-.161.16-.161.481-.161.642l-.161.161c-.321 0-.642-.161-.963-.161.16-.161.16-.321-.161-.482l-.481-.482h1.284c.482 0 .482 0 .482-.321h.482c-.161-.16-.321-.16-.482-.321 0-.16-.161-.16-.161-.321l.161-.161c.161 0 .161-.16.161-.16v-.321c-.803 0-.964 1.124-1.606 1.284-1.446.482 0-1.124.642-1.284.642-.322.803-.322.964-.643-.161.161-.322 0-.322 0-.321-.16-.803-.321-1.124-.481-.16 0-.16-.161-.321-.161l-.16-.161.16-.16c1.124 0 1.445.16 1.767.963Zm1.124 4.818c.16 0 1.124-.803.803-1.124-.482.321-.643.803-.803 1.124Zm.16-3.694c.161.322.321.482.482.803.321-.16.321-.481.161-.803-.322-.16-.322-.16-.643 0 .321-.16.161.322 0 0 .321-.16.161.322 0 0Zm1.445.161c-.321.321-.642.642-.802.963.16.161.321.161.321 0 .321-.16.321-.481.481-.963 0 .161 0 .161 0 0Zm-1.927-2.248c0 .16.161.16.161.321.161-.161.161-.482 0-.642 0 .16-.161.16-.161.321 0 .16 0-.161 0 0Zm1.606 3.533c0 .16 0 .321.161.481h.16v-.321s-.16 0-.321-.16Zm46.248-2.088c.161-.642.161-1.285.322-1.927.481.161.321.642.642.803 0 0 0-.161.161-.161v-1.445s.16 0 .16.161c.161.321.161.481.321.803v.642c.482.642.643-.482.643-.642.481.481.963.481 1.284 0 .482.321.643.803.161 1.284.642 0 1.606.161 1.927.803.16.803-.482.803-.964.803-.321 0-1.284-.16-.963.482 0 .482-.964.642-1.285.803.161 0 .161.16.321.16l.322.322c.321.642-.803.481-1.125.481 0-.16 0-.16.161-.321v-.16h-.321c-.161.16-.321.16-.321.321-.321.481-.643 1.124-.964 1.445-.642 1.445-1.124.482-1.606-.482.161 0 .322.161.322.161.321.16.642.16.802-.161.482-.482.803-1.124 1.125-1.606v-.16c-.964 0-2.249.803-2.891-.161-.161-.16-.161-.482-.321-.642.482 0 .803.16 1.124.16 1.124.161 2.73.643 3.372-.481 0-.161-2.409 0-1.606-.482.803 0 1.446.161 2.088.321h.161l.963-.482c.161 0 .321-.16.482-.321.321-.16.16-.321 0-.482-.161 0-.482-.16-.643-.16-.481.321-.16.803-.802.963-.322.161-.643 0-.964-.481-.161-.161 0-.482.321-.643l.321-.321c-.321-.16-.642-.16-.803.161 0 .16 0 .321-.16.321 0 .16 0 .16-.161.321 0 0-.16.161-.321.161l-.16-.161v-.161c-.161-.321-.161-.321-.482-.16-.482.321-.482.321-.643.321Zm2.249-.321-.322.321s0 .161.161.161c.161-.161.161-.161.161-.482.16.16.16 0 0 0 .16 0-.161.16 0 0 .16 0-.161.16 0 0Zm-19.913-4.497c.642 0 .803-1.124 1.446-.802.802.481-.482 1.766-.804 2.248-.16.16 0 .321 0 .481.322.482.964.643 1.285.803.161 0 .161 0 .321.161-.481.321-.963.482-1.284.642-.643.322-.803-.642-1.124-1.124-.482.482-1.124.803-1.767.482.161-.161.321-.161.482-.161 1.445-.803.482-.963.482-2.087h.321c.161.16.482.321.642.642.161-.321.321-.642.482-.803-.161 0-.321.161-.321.161-.642.642-.964-.482-.642-.964-.161 0-.322 0-.482.161 0 0-.161 0-.161.16-.16.322-.482.643-.642.803 0 .803-.161 1.767-.482 2.409-.482 1.124-.482-1.445-.482-1.445-.16.16-.321.482-.642.642-.482.161-.482-.642-.161-.803.321-.321.643-.481.964-.642.321 0 .161-.964.321-1.285-.16 0-.16 0-.16.161l-.482.482c-.322.16-.643.16-.803 0-.161-.322-.161-.482.16-.482.482-.161.964-.482 1.285-.642l.161-.161c0-.642 0-1.124.16-1.606 0-.321.482-.642.803-.321.321.321 0 1.285 0 1.606l.161-.161h.321v.321h-.161c-.642.482-.642.643-.642 1.285.321 0 .482-.321.321-.642 0-.161 0-.161.161-.321.321-.161.642-.161.963-.322.161 0 .321-.16.321-.321.161-.481.321-.803.321-1.284.161-.322.322-.482.643-.161 1.124.482 0 1.445-.643 1.766-.642.482-.642.803-.642 1.124Z" style="fill:#e00b22;fill-rule:nonzero" transform="translate(-10.5 6.187) scale(1.13636)"/><path d="M50.182 78.57c.161-.322.161-.482 0-.643 0 0 .161 0 .161.161l.642.642c-.321-.16-.482-.16-.642.161-.803.963-1.445 1.766-2.248 2.73-.482.642-.964 1.124-1.446 1.605.643-1.605 1.285-3.532 1.767-5.138 0 0 0 .16-.161.16-.803.964-1.606 1.767-2.408 2.891-.161.16-.161.321-.322.321-.16.161-.16.321 0 .482v.16c-.321-.321-.642-.481-.803-.642v-.161h.161c.482.482 1.606-1.284 1.766-1.445.643-.642 2.57-2.248 2.088-3.372v.161c-.321-.322-.642-.161-.803 0l-2.409 1.927c-.16.321-.963.802-1.605.802-.803.161-1.285-.642-1.125-1.284.161-.482.482-.803.803-1.124.964-.803 1.606-1.285 2.57-2.088.16-.16 1.124-.642.803-.963v-.161c.481.482.963 1.124.803 1.124-.322-.16-.482-.16-.803 0a61.487 61.487 0 0 1-3.373 2.73c-.16.16-.321.482-.481.803-.322 1.124 1.124.803 1.605.642.482-.481 1.125-.803 1.446-1.285.321-.321 2.248-1.445 1.766-1.926v-.161h.161c.321.482.803.642 1.124 1.124.16.161.16.161.16.321-.481 1.446-1.766 4.336-1.766 4.497 0-.161 1.606-2.249 2.569-3.051Z" style="fill-rule:nonzero" transform="translate(-10.5 6.187) scale(1.13636)"/><path d="M60.62 40.832c0 .482-.321 1.446-.963 1.446-.803 0-.642-1.446-.642-1.928.16 0 .16 0 .321.161l.482.482c.642.482.481-1.124.321-1.285 0-.16-1.606-2.73-.321-2.087.481.321.642.963.963 1.445l.161-.161c.16-.321.481-.642.642-.963.161-.161.963-.643.963 0 0 .481-.481.803-.481 1.284-.161.322 0 .482.321.643.482.481-.161.803-.321 1.124-.482.642.321 2.088.642 2.73.161.321.161.482.321.803 0 .16-.16.321-.16.482-.161 0-.322-.161-.482-.161-.964-1.285-.803-2.891-1.767-4.015 0-.16 0-.16 0 0Zm.803-1.766c-.321.16-.481.642-.321.963 0 .161.161.161.321.321.161-.16.161-.16.161-.321 0-.16 0-.642-.161-.963.161.321-.321.16 0 0 .161.321-.321.16 0 0Zm9.796.482c.321-.322.642-.482.482-.964l-.482-2.409c0-.16-.161-1.766.482-1.445.963.803 0 2.248.642 3.212h.161c0-1.445 1.284.16.803.16l-.643.643c0 .16-.16.321-.16.481.16.803.16 1.446.321 2.409 0 .321-.161.803-.321.964-.161-.161-.161-.321-.161-.482-.16-.642-.16-1.285-.321-1.767 0 0 0-.16-.161-.321-.16.161-.321.161-.321.321-.161.161-.482.322-.642.161-.321-.161-.321-.321-.161-.642 0-.321.161-.643.161-.803 0-.321-.642-.643-.482-.964.321-.481-.321-.963-.642-1.445 0 0 2.248-.321.803.964 0 .16 0 .321.16.321.321.16.321.481.321.642v.803c.321-.161.161 0 .161.161.321-.322 0-.322 0 0Z" style="fill:#e00b22;fill-rule:nonzero" transform="translate(-10.5 6.187) scale(1.13636)"/><path d="M69.292 92.379c-.482 0-.803-.16-1.285-.16 0 0-.16 0-.16-.161 0 0 .481-.16.481-.321.322-1.284.482-2.409 0-3.533-.16-.642-.16-1.124-.321-1.605 0-.161-.16-.322-.321-.643h-.161c-.16.321-.16.803-.321 1.124 0-.963-.16-.803-.803-1.284-.16.481-.321.963-.321 1.284-.321 1.285-.642 2.57-1.124 3.694 0 .321-.16.481.161.642v.161c-.482-.161-.964-.322-1.285-.322.161 0 .161 0 .161-.16.321 0 .321-.161.481-.321 0-.161.964-3.533 1.285-5.139v-.161c-.803-.321-.803-.321-1.285.803 0-.481.322-.963.322-1.284h.16c.643.16 1.285.321 1.927.642.482.161 1.124.161 1.445.321v.161c-.642.321-.16 1.766 0 2.248 0 .321.161.642.322.963l.481-.963c.161-.482.322-.803.482-1.285.161-.321.161-.642-.16-.963v-.161c.321 0 .802.161 1.124.161 0 0 0 .16-.161.16-.321.161-.482.322-.482.482-.16.321-2.409 5.299-1.124 5.299.482.161.482.161.482.321.161 0 0 0 0 0Z" style="fill-rule:nonzero" transform="translate(-10.5 6.187) scale(1.13636)"/><path d="M67.365 39.066c.642-.161.963-.482 1.284-.964.161-.321.161-.481.161-.803-.161-.642-.321-.321-.963-.321v-.16l.16-.161 1.285-1.285c.16 0 .16-.16.16-.321.161 0 .482-.16.643 0 0 0 .481.642 0 .642-.321.161-.482.322-.803.482-.161.161-.321.161-.482.321.321.161.642.322.642.643 0 0 .161 0 .161-.161.161-.16.642 0 .642.161 0 .321-.321.803-.481.963-.322.321-.161.643 0 .964.16-.161.321-.161.481-.321-.481.481-.321 1.445-.321 1.927-.16 1.124-.803.481-.803-.482l-.321.321c-.803.803-.803-.161-.321-.803l.482-.963v-.482c-.161 0-.161 0-.161-.161-.161.321-.321.643-.642.803-.161.803-.482.803-.803.161.642-.161.321.642 0 0 .642-.161.321.642 0 0Zm1.766.963c0-.16 0-.16 0 0-.16.161-.321.321-.321.482h.161c0-.161.16-.321.16-.482Zm18.789 1.285c.963.321 1.766.321 2.569-.482-.321-.16-.642-.16-.803 0-.161 0-.321 0-.482-.16-.16-.322-.321-.643-.321-.964.803 0 1.606.482 2.409.321.803-.321 1.284-1.927 1.927-2.569.321.482.321 1.285 0 1.766-.161.322-.803.643-.803.964.642 0 .963-.161 1.285.482-.161.321-1.125.16-1.285.16-.803 0-1.124.161-1.767.643-.321.481-2.729 1.284-2.729-.161-.161.161-.161.161 0 0 .802.321 0 .161 0 0 .802.321 0 .161 0 0Z" style="fill:#e00b22;fill-rule:nonzero" transform="translate(-10.5 6.187) scale(1.13636)"/><path d="M37.015 61.548c.16.16.16.16 0 0 .16.481.321.481.642.642.482.16 1.124.16 1.445.16 1.285.161 2.248.322 3.533.482.321 0 .482 0 .642-.321h.161c0 .482-.161.964-.161 1.285h-.16c0-.161-.322-.482-.482-.482-.803-.161-1.606-.161-2.409-.321 0 .482-.16.963-.16 1.445.803.161 1.605.161 2.408.321.161 0 .321 0 .482-.321l.161-.16c0 .481-.161.802-.161 1.284l-.161.161c0-.482-.321-.482-.642-.482-.803-.161-1.445-.161-2.087-.321-.964-.161-1.606-.161-2.57-.321-.321 0-.642-.161-.803.321h-.16v-.161c0-.481.16-.803.16-1.284l.322.321c0 .321.16.482.481.482.643.16 1.285.16 1.606.321.161 0 .482 0 .803.16 0-.481.161-.963.161-1.445-.482 0-2.891-.642-2.891 0h-.16v-.161c-.161-.803-.161-1.124 0-1.605.16.16-.161.481 0 0Zm7.226-8.351c.803.482 1.284.803 2.087 1.124.161.161.322.161.482-.16h.161a9.342 9.342 0 0 0-.643 1.124h-.16v-.161c.16-.321 0-.481-.161-.481-.16-.161-.321-.161-.482-.322-1.284-.803-2.408-1.284-3.532-2.087-.322-.321-.643-.482-.964-.161h-.16c.16-.321.481-.803.642-1.124 0 .161.16.161 0 .161-.161.321 0 .481.16.481.482.482 1.446.803 2.088 1.285.321-.482.482-.963.803-1.285a14.826 14.826 0 0 0-2.248-1.124c-.161-.16-.321-.16-.482.161h-.161v-.161c.161-.321.322-.642.643-1.124h.16v.161c-.321.321.482.642.643.803 1.284.803 2.408 1.284 3.693 2.087.161.161.321.161.482.161.16.161.321 0 .482-.161h.16v.161l-.482.963s-.16 0-.16.161v-.161c.16-.321 0-.481-.321-.642-.643 0-1.285-.482-1.927-.803-.322.321-.482.643-.803 1.124ZM60.46 84.19c0 1.124-.803 1.766-1.767 2.248-.16 0-.16.161-.16.161-.161.642-.643 2.408-.161 3.051v.16a2.208 2.208 0 0 1-.642-.481v-.322c.16-.963.321-1.766.482-2.729 0-.322 0-.322-.322-.482-.16.321-.321.482-.481.803-.161.481-.482.803-.643 1.284-.16.161-.16.482.161.643v.16c-.482-.16-.803-.481-1.124-.642v-.161h.482c.321.322.642-.481.803-.642.802-1.124 1.284-2.409 2.087-3.693.161-.161.161-.322.321-.482-.16-.161.964.321.964 1.124Zm-1.445 1.606c1.284-.964.802-3.212-.161-1.285a3.502 3.502 0 0 1-.803 1.285c.321.321.642.321.964 0Zm57.81-17.825c-.161.482-.161.963-.321 1.285 0-.161-.161-.161-.161-.161 0-.321-.161-.321-.321-.482-.482-.16-5.46-1.124-5.46-.642h-.161c.161-.482.161-.803.161-1.285 0 0 0-.16.16-.16v.16c0 .321 2.249.321 2.73.803.161-.482.161-.963.322-1.284-.482-.161-2.57-.643-2.891 0 0 0-.161 0-.161.16.161-.482.161-.803.322-1.285l.16-.16c0 .321.161.642.482.642 1.606.321 3.051.643 4.657.964h.321c.161 0 .321-.161.482-.161 0 0 .16 0 .16-.16-.16.481-.16.802-.321 1.284v.161c-.16-.161-.321-.482-.481-.643l-2.409-.481c-.161.481-.161.963-.321 1.284.321.161 2.73.803 3.051.161-.161 0-.161 0 0 0-.161.482-.161 0 0 0Zm-9.796 13.971c.321-.643-.321-.643-.321-1.285-.964-.963-1.606-1.927-2.409-3.051-.16-.161-.16-.321-.321-.321-.161-.161-.321-.161-.482-.161h-.16v-.16c.481-.321.963-.643 1.284-.964.643-.321 1.285.161 1.767.482.963.963 1.766 1.766 2.087 3.212.161.642 0 1.124-.642 1.445a1.942 1.942 0 0 1-.803.803Zm.321-.643c.803 0 .643-.963.643-1.284-.482-1.285-1.285-2.409-2.409-3.212-.161-.16-1.124-.16-1.285.482a789.274 789.274 0 0 0 3.051 4.014Zm-61.825-8.35c-.642.321-1.284.482-1.766.803 0 0 .161 0 .161-.161.642-.321 1.605-1.605.321-1.766-.482-.161-1.124 0-1.446 0-1.124.161-1.926.642-2.729 1.124-.322.161-.482.482-.643.803-.321.482 0 .964.482 1.124h.161c.642-.16 1.284-.482 1.927-.642.321-.161.481-.161.481-.482 0-.161 0 0 0 0s.161 0 .161.161c.16.321.321.642.321 1.124h-.321c-.161-.321-.482-.161-.642-.161-.643.161-1.285.482-1.927.642h-.482c-.803-.481-.964-1.284-.482-1.927.482-.642 1.285-1.124 1.927-1.284 1.124-.482 1.927-.643 3.051-.482.161 0 .482.161.642.321.482-.16.643.803.803.803Zm61.665-20.073c.481-.482 1.445-1.124 1.445-1.124l-.161.161c-.16.321-1.124 1.124-.642 1.605.321.643 1.285.161 1.606 0 1.124-.481 1.927-1.284 2.73-2.087.16-.321.321-1.606-.161-1.767h-.321c-.642.482-1.124.803-1.606 1.125-.16.16-.482.321-.321.642l-.964-.964h.161c.161.161.482 0 .642 0 .643-.481 1.446-1.284 2.249-1.284.803.16 1.124.963.963 1.606-.482 1.605-2.73 2.89-4.175 3.211h-.642c-.482-.16-.803-1.124-.803-1.124ZM44.401 70.701c-.16-.321-.321-.321-.642-.321-1.766.642-3.533 1.284-5.46 1.766 1.285-1.124 2.73-2.248 4.175-3.533h-.16c-1.285.482-2.409.803-3.694 1.124-.16 0-.16 0-.321.161-.321.161-.482.321-.321.642 0 0-.161 0-.161-.16-.16-.321-.16-.643-.321-.803v-.161h.161c.321.321.482.482.642.321.643-.16 1.124-.321 1.445-.481 1.125-.322 1.927-.643 3.051-.964.322 0 .643-.16.643-.642 0 0 0-.161.16-.161.161.321.161.643.322.803l-.161.161c-1.285 1.124-2.409 2.087-3.533 3.211.803-.321 1.606-.481 2.409-.802.482-.161.963-.322 1.285-.482.16-.161.481-.161.321-.482l.16-.161c0 .322.161.803 0 .964.161-.161-.16-.321 0 0Zm71.3-8.511c-1.124 0-3.854-.482-4.657.321 0 0-.161.161-.322.161v-.964s0-.16.161-.16c.482 1.124 4.978.321 6.102.321h.321v.16c-1.605.803-3.372 1.285-4.978 2.088 1.285 0 2.73 0 4.015-.161.321 0 .642-.481.803-.481v1.284c-.321-.803-1.767-.481-2.409-.481-.803 0-3.372-.482-3.693.642 0 0-.161 0-.322-.161 0-.16.161-.803.161-.803 1.285-.481 4.657-1.766 4.818-1.766ZM89.686 85.314c.161.642.321 1.124.482 1.766.16.803.321 1.446.482 2.249 0 .321.16.642.481.481v.161c-.321.161-.642.161-.803.161h-.16v-.161c.321-.161.321-.321.16-.642-.321-1.446-.642-3.212-1.124-4.657 0-.321-.321-.643-.642-.643h-.161c.161-.16.482-.321.803-.321 0 0 .161.161.321.161.803 1.284 2.57 3.693 2.57 3.693-.161-.482-.161-.963-.321-1.284-.161-.803-.803-3.052-1.124-3.052.321-.16.963-.16 1.124-.16-.322.16.321 2.569.481 3.533.161.803.643 2.569.643 2.73-1.285-1.124-2.248-2.73-3.212-4.015Zm12.365-5.299c.482.482.803 1.124 1.285 1.445.321.482 1.284 2.088 1.927 1.766h.16c-.321.161-.482.482-.803.643h-.16v-.161c.321-.321-.161-.642-.321-.963-.803-1.124-1.606-2.088-2.409-3.212-.321-.321-.643-.482-.964-.321h-.16c.16-.161.481-.321.642-.482h.321c1.285.803 3.694 2.248 3.854 2.248 0-.16-1.445-1.927-2.248-2.89-.321-.321-.482-.161-.803-.482h-.16c.321-.161.642-.482.963-.642v.16c-.321.321 2.248 3.533 3.212 4.657l.16.161c-1.606-.321-3.051-.964-4.496-1.927Zm-4.818 2.73c-.16-.161-.16-.321-.321-.482-.16-.321-.321-.482-.803-.321-.321.16-.481.16-.803.321.322.803.643 1.445.964 2.409.321-.161.642-.161.803-.321.16 0 .16-.322.16-.322v-.642c.322.642.643 1.606.643 1.445-.321-.642-1.285-.16-1.285 0 .161.482.482 2.409 1.285 2.409.803-.321.963-.642.963-1.445.161.482.161 1.124.322 1.445-.803.321-1.446.642-2.249.964 0-.161 0-.161.161-.161.321-.161.321-.321.16-.642-.321-.964-1.445-5.3-2.248-4.978h-.16s0-.161.16-.161c.321-.161 1.446-.803 1.927-.964 0 .643.321 1.446.321 1.446Zm13.008-11.402c-.161 0-.321-.16-.482-.16-.482-.161-.642 0-.803.321-.161.16-.161.482-.321.642.803.321 1.445.803 2.248 1.124.482-.803.321-.963-.321-1.606l1.927.964c-.161 0-.321 0-.321-.161-.482-.16-.964.643-.964.803.321.161 1.767.803 2.248 1.124.161.161.322 0 .482-.16 0 0 0-.161.161-.161.321-.803 0-1.124-.643-1.606.482.322.964.643 1.285.964-.321.803-.642 1.285-1.124 2.087l-.161.161v-.161c.161-.321-.16-.481-.321-.642-.803-.482-1.606-.803-2.409-1.285-.642-.321-2.248-1.445-2.729-.802h-.161v-.161l.803-1.606c.963-.16 1.124 0 1.606.321Z" style="fill-rule:nonzero" transform="translate(-10.5 6.187) scale(1.13636)"/><path d="M53.234 87.08c0-.16 0 0 0 0 .16-.16.321-.321.481-.321.161-.16.161-.321.322-.482.803-1.284 1.284-2.569 2.087-3.693 0-.161.161-.321.161-.321.16-.321.16-.482-.161-.642h.321c.643.321 1.285.802 1.927 1.124-.16.481-.481.803-.642 1.284 0-.16.161-.321.161-.481.16-.482.16-.643-.321-.964-.161-.161-.482-.161-.643-.321a14.642 14.642 0 0 0-1.124 2.248c.321.161.482.321.803.321.321.321.803-.642.964-.642-.322.642-1.125 1.927-1.125 1.927 0-.161.161-.321.161-.482.161-.321 0-.482-.321-.642-.161-.161-.321-.161-.482-.321l-.161.16c-.16.482-1.605 2.248-.963 2.57.803.481 1.766-.482 1.927-.322-.803.161-1.124.482-1.445.964-.803-.161-1.285-.642-1.927-.964ZM37.175 61.066c0-.964.161-1.606.161-2.57.161 0 .321 0 .482.161 1.766.803 3.532 1.285 5.299 2.088.161 0 .161 0 .321.16 0-.321.161-1.445-.321-1.445-.161-.161-.482-.161-.642-.161h-.322c.482 0 .964.161 1.285.161l.161.161c0 .802 0 1.445-.161 2.248-1.927-.803-3.854-1.446-5.941-2.409 0 .642.802 1.606 1.124 1.766 0-.16 0-.16 0 0-.482 0-.964-.16-1.446-.16Zm21.84 28.423c.321-.642.481-1.285.803-1.927 0 .482-.161 1.124-.161 1.606.161.482.642.642.964.161.481-.482.642-1.125.481-1.606-.481-1.446-.963-2.409.161-3.694.803-.803 1.285.482 1.766 0-.321.643-.481 1.285-.803 1.927 0-.642.322-1.124 0-1.606-.321-1.124-1.284.643-1.284 1.285.16.482.321.964.481 1.285.482 1.124-.642 4.496-1.927 2.73-.321-.482-.321-.482-.481-.161.16-.321.16-.642 0 0ZM45.044 57.372s0 .161 0 0c-.161.482-.321.643-.482.964v-.161c.161-.321-.482-.803-.803-.803-.963-.481-1.766-1.124-2.73-1.445-.481-.321-.803-.642-1.284-.963-1.124-1.606 1.445-1.606 2.248-1.285 1.124.482 1.927 1.124 3.051 1.606.161.16.321.16.642.321.161.16.482.16.643-.321 0 .16.16.16 0 .321-.161.321-.322.642-.643 1.124h-.16v-.161c.16-.16 0-.321-.161-.481l-.16-.161c-.964-.482-1.927-1.124-2.891-1.606-.321-.16-3.051-1.124-2.248.321.16.322.321.643.642.803.803.803 2.409 1.446 3.533 1.927.161.161.321.161.482.161 0 .161 0 .161.321-.161Zm35.65 29.548c-.322-.482-.964-1.124-1.285-.321-.321 1.124.482 1.445 1.285 2.087.963.803 1.284 1.767 1.284 2.891-.16.642-.481.803-1.124.642-.321-.161-.482-.161-.482.321-.16-.803-.481-2.087-.481-2.087 0 .16.16.321.16.481.161.161.803 1.446 1.285 1.124.963-.481-.161-2.248-.803-2.569-.963-.642-1.606-1.766-1.124-2.89.321-1.124 1.285.16 1.285-.803 0 .642.16 1.445.321 2.087-.161-.16-.321-.803-.321-.963Zm7.708-1.285c0-.16-.482-.963-.964-.803-.16 0-.482.161-.803.161.161.803.321 1.606.643 2.409.963 0 .963-.322.963-1.125.161.803.321 1.285.482 2.088 0-.161-.643-.963-1.285-.963.161.963.321 1.605.642 2.408 0 .161.161.321.322.161.963-.161.963-.642.963-1.445 0 .481 0 1.124.161 1.445-.803.16-1.285.321-2.088.642h-.16c.481 0 .481-.16.481-.482-.16-.642-.321-1.284-.481-1.605-.322-1.124-.482-2.088-.803-3.212 0-.321-.161-.482-.482-.482 0 0-.161-.16 0-.16.482-.161 1.927-.482 2.087-.482.161.482.322 1.445.322 1.445ZM38.781 55.124s.161 0 0 0c.161.482.482.642.642.803 1.125.642 1.927 1.285 3.052 1.927.481.321 1.124.803 1.445 1.124l.16.161c-.321 0-.642-.161-1.124-.161-1.606-.321-3.211-.642-4.817-.803-.321 0-.482 0-.642.161v-.161c.16-.321.321-.642.321-.963l.16-.161c.321 0 0 .482.482.482.482.161.963.161 1.285.321 0 0 .16 0 .16-.16.161-.322.321-.803.482-1.125-.482-.321-.964-.642-1.285-.803-.16-.16-.321-.16-.481 0h-.322c.161 0 .322-.321.482-.642Zm1.285 2.891c.963.16 1.606.321 2.409.481-.482-.642-1.285-1.124-1.927-1.445-.161.161-.322.482-.482.964Zm66.642-5.942c0-.161-.321-.321 0 0-.321-.321-.642-.642-.963-1.124h.16c.321.16.643-.321.803-.321.482-.803.964-1.285 1.285-2.088-.161 0-1.285.643-1.927.964-.161 0-.321.16-.321.16-.161.161-.322.321-.322.643v.16h-.16c-.161-.321-.482-.482-.803-.803h.161c.321.161.481 0 .802 0 .964-.481 2.73-1.284 2.891-1.284.321-.322 1.927-1.285 1.606-1.927v-.161c.321.321.642.803.963 1.124-.16 0-.481-.16-.642 0-.803.642-1.445 1.124-1.927 1.927-.321.803-1.606 2.248-1.606 2.73ZM77.482 85.796v1.284c0-.16 0-.321-.161-.481-.16-.643-.642-.482-1.124-.482v2.569c.964 0 .482-.16 1.124-.803v2.088c-.321-.642-.16-.964-1.124-.964v.161c0 .321-.321 2.89.321 2.89h.161c-.321.322-.803.161-1.285.161l-.16-.161.16-.16c.643 0 .321-4.978.321-5.781 0-.161-.16-.321-.321-.482h-.16l.16-.16c.643.321 1.285.321 2.088.321 0 .321-.803 0 0 0Zm-25.372-.803c.481-.643 3.372-2.891 2.89-3.694v-.16l.964.482c-.322.16-2.73 2.569-3.533 3.532l-1.285 1.285c0-.161 0-.161.161-.321.642-1.606 1.124-3.372 1.606-5.139.16-.321.321-.642 0-.963v-.161c.321.161.642.482 1.124.642v.161h-.161c-.321 0-.482.161-.642.482l-.964 2.89c0 .161-.16.482-.16.964 0 0-.161-.161 0 0Zm42.876-.643c-.161-.321-.803-1.284-1.125-1.284-.481-.321-.802-.161-1.124.321-.16.482.482 3.212 1.124 4.015.161.321 1.767.963 1.927.16v-.803c0 .643-.16 2.57-1.284 1.767-.321-.161-.643-.482-.964-.803-.963-1.285-1.927-3.533-1.124-5.139.321-.963 1.606 0 1.285-.803.803 1.285 1.124 1.927 1.285 2.569Zm6.583 1.767c-.16 0 0 0 0 0 .161-.642-.642-1.767-.802-2.409-.482-1.124-.964-2.248-1.606-3.372 0-.161-.161-.161 0-.321l.16.16c1.285 1.124 2.57 2.088 3.694 3.212.16.161.321.321.481.321.161.161.322.161.482.161 0 0 .161 0 .161.16-.321.321-.643.482-.964.803v-.16c.321-.643-.803-1.285-1.284-1.446-.322.322-.643.482-.964.803.161.482.482.964.642 1.285.161.161.322.321.482.161h.321c-.321.481-.481.642-.803.642Zm-1.605-4.657s0 .161 0 0c.321.803.642 1.445 1.124 2.248.321-.16.642-.482.803-.642-.803-.482-1.446-.964-1.927-1.606Zm12.043-12.526c-.481 0-1.927.803-1.605 1.285.16.161.481.321.642.482.803.482 1.606.642 2.569.803.643 0 1.767.16 2.248-.321.482-.482 0-1.606-.642-1.606.161 0 .321.16.482.16 1.285.643 1.285 2.088-.321 2.248-1.446.161-3.051-.16-4.176-.963a1.934 1.934 0 0 1-.802-.803c-.322-.482-.322-.963.16-1.285-.16 0 0 0 .161-.16-.482 0 .642 0 1.284.16ZM85.029 89.81c0 .482 0 .964-.16 1.285-.482.963-1.445.482-1.767-.321-.963-1.285-1.124-3.051-.963-4.497 0-.321.16-.642.321-.963.321-.482.642-.482 1.124-.161.321.161.321.161.321-.16v-.161l.482 1.927c0-.16 0-.16-.161-.321-.16-.321-.321-.803-.642-.963-.482-.482-.963-.322-1.285.321-.642.642.161 3.372.482 4.014.643 1.124 1.927 1.606 1.927-.16.321.321.321.16.321.16Zm22-14.452c.482-.803.803-1.446 1.285-2.248.482.16.963.481 1.285.642h-.161c-.161 0-.161 0-.321-.161-.642-.16-.803 0-1.124.643l.16.16c1.285.803 2.73 1.445 4.015 2.088.161.16.321.16.482.16.16.161.321.161.482-.16h.16v.16c-.16.322-.321.803-.642 1.124 0-.16-.161-.16 0-.16 0-.161 0-.321-.161-.482l-.16-.16c-1.446-.803-3.052-1.606-4.657-2.409-.161.321-.482.482-.161.803.161.321.482.481.642.642-.321-.161-.803-.321-1.124-.642.321.321.321-.803 0 0Zm9.154-19.913c.16.803.16 1.446.321 2.249v.16c-.482-.803-1.285-.321-1.927-.321-1.285.161-2.248.321-3.533.642-.321 0-.803 0-.803.643h-.161c0-.482-.16-.964-.16-1.446.16 0 .16.161.16.161.161.321.322.321.482.321.642-.16 1.285-.16 1.606-.321l2.891-.482c.642-.16.642-.16.642-.803-.161-.642-.161-.803.482-.803Zm-68.73 28.263c.321.161.481 0 .642 0l.321-.321c1.124-1.285 3.212-3.533 3.212-3.533.16-.16.16-.321 0-.482v-.16h.16c.322.321.643.482.964.803v.16h-.161c-.16-.16-2.73 2.73-3.532 3.694 0 .16-.322.642-.161.803v.16h-.161c-.642-.642-.963-.963-1.284-1.124Zm17.182 1.445c-.321 0-.482 0-.642.322-.321.642-2.248 4.978-1.606 5.299-.482-.161-1.124-.482-1.124-.643.482.161.642-.16.642-.481.643-1.446 1.124-3.051 1.767-4.497.16-.321.16-.481-.161-.642v-.161h.161c.321.322.642.482.963.803 0 0 0-.16 0 0Zm20.876 5.781c.321-.16.482-.321.321-.642-.16-1.124-.803-5.299-1.445-5.299l-.161-.161c.643-.16 1.285-.321 1.285-.16-.321.321-.321.481-.321.963.161.964.963 4.015 1.124 4.657 0 .321.161.482.482.482v.321c-.321.161-.803.161-1.124.321 0-.482-.161-.482-.161-.482Z" style="fill-rule:nonzero" transform="translate(-10.5 6.187) scale(1.13636)"/><path d="M92.898 44.044c-.482 0-.964 0-1.445-.161-.643-.321 0-1.766 0-2.409l.16-.16.161.16c0 .482 0 1.124.321 1.606 0 .161.803.803.803.964 0 0-.482 0 0 0Z" style="fill:#e00b22;fill-rule:nonzero" transform="translate(-10.5 6.187) scale(1.13636)"/><path d="M70.095 78.248c.16-.642.16-1.124.321-1.606 0-.16.16-.16.321-.16-.161.482-.161.963-.321 1.445 0 .321-.161.642-.161.803 0 .161-.16.161-.16.161l-.161-.161c-.161-.482-.161-1.124-.321-1.606 0 .321-.161.642-.161.964 0 .321-.16.481-.16.803h-.161s-.16 0-.16-.161c-.161-.803-.322-1.445-.482-2.409.16-.16.321 0 .321.161.161.482.161.963.321 1.284 0 .161 0 .161.161.322.16-.643.16-1.124.321-1.606 0-.161.16-.161.16-.161l.161.161c0 .642 0 1.284.161 1.766Zm7.226-1.766v2.409c-.161.16-.161 0-.321-.161-.321-.642-.482-1.285-.803-1.766v1.927l-.161.16h-.16v-2.409c.16 0 .321 0 .481.161.161.482.482 1.124.803 1.445v-.642c0-.321 0-.642.161-1.124-.161 0-.321 0 0 0Zm6.263 2.569c-.482-.803-.803-1.285-1.124-1.927v1.767s0 .16-.161.16l-.161-.16v-2.249c.161-.16.322 0 .482.161a3.11 3.11 0 0 0 .803 1.445v-1.766l.161.16v2.409Zm-3.694-2.569c.161 0 .321 0 .321.16v.643c0 .16 0 .321.161.16h.642v-1.124h.322v2.409c0 .161 0 .321-.322.161v-1.125h-.803l-.16.161v.964h-.161l-.16-.161c.16-.642.16-1.445.16-2.248Zm-7.065 0h.321v.803c0 .16 0 .321.321.16h.642v-1.124c.161 0 .321 0 .321.161v2.087c0 .161 0 .161-.321.161v-1.124h-.963v.963c0 .161 0 .322-.321.161v-2.248Zm-.803 0h.321v1.766c0 .482-.321.643-.643.643-.321 0-.642-.161-.642-.643v-1.927h.161v1.927c0 .161.16.321.481.321.161 0 .322-.16.482-.321v-.482c-.16-.321-.16-.802-.16-1.284Z" style="fill:#132d81;fill-rule:nonzero" transform="translate(-10.5 6.187) scale(1.13636)"/><path d="M75.876 79.051c-.161 0-.321 0-.321-.161v-.16c0-.321-.161-.321-.482-.321-.321 0-.482.16-.482.321 0 .16 0 .482-.321.321.16-.803.321-1.606.642-2.409h.321c.161.643.322 1.446.643 2.409Zm-.482-.963c-.161-.482-.161-.803-.321-1.285-.161.482-.161.803-.321 1.285h.642Zm9.956.963c-.16 0-.321 0-.321-.161v-.321c0-.321-.161-.321-.321-.321-.482 0-.321 0-.482.482 0 .321 0 .321-.321.321.16-.642.321-1.124.321-1.606 0-.16.161-.482.161-.642l.16-.161.161.161c.321.642.482 1.445.642 2.248Zm-.482-.963c0-.482-.16-.964-.16-1.285-.161.482-.161.803-.321 1.285h.481Zm-5.62-.964c-.161-.321-.161-.482-.482-.482-.321 0-.321.321-.482.482v1.124c0 .161.161.482.482.482.321 0 .321-.161.482-.321v-.161c.161 0 .161 0 .161.161-.161.321-.322.642-.643.642s-.482-.161-.642-.482c-.161-.642-.161-1.124 0-1.606.16-.321.321-.481.642-.481s.482.16.482.481c.321.161.321.161 0 .161Zm2.409-.642c.16.803.16 1.606.16 2.408h-.16v-2.408Zm-20.876-2.57.321-.321v.482s-.161-.161-.321-.161Zm30.832 0c0 .161.161.482-.161.643l-.16-.161c0-.321 0-.482.321-.482Zm-.161-.963.322-.321.16-.161c0 .482-.16.482-.482.482 0 0-.16 0 0 0Z" style="fill:#132d81;fill-rule:nonzero" transform="translate(-10.5 6.187) scale(1.13636)"/><path d="M75.394 78.088h-.642c.161-.482.161-.803.321-1.285.161.321.161.803.321 1.285Zm9.475 0h-.643c.161-.482.161-.803.322-1.285.16.321.321.803.321 1.285ZM88.08 73.591c0-.481 0-.642-.321-.481-.321 0-.482.321-.803.321 0-.161.161-.321.161-.321.321-.322.482-.161.963-.161 0 0 0-.161.161-.161l-.161-.16c-.16 0-.16 0-.321-.161.321-.321.321-.321 0-.481-.642.802-1.284 1.445-1.606 2.087.482-.321 1.124-.482 1.446-.803v.161c0 .16-.161.16-.161.321l-.161-.161h-.16c0 .964-.321 1.285.963 1.285 0-.321-.16-.482-.16-.803h-.161c0 .161 0 .803-.321.482-.161 0-.161-.482-.161-.642.643.16.803.16.803-.322Zm1.285-1.927c0 .482.161 3.373-.321 3.212-.161 0-.321-.161-.482-.161 0 .161.161.322.321.322 1.606 1.605.964-2.088.964-2.73v-.161c0-.482-.161-.482-.482-.482.321 0 0 0 0 0Z" style="fill:#fff;fill-rule:nonzero" transform="translate(-10.5 6.187) scale(1.13636)"/><path d="M88.562 72.788v.803l.161.161.16-.161v-.321c0-.482 0-.482-.321-.482.321 0 0 .322 0 0ZM93.058 73.431c-.16 0 0 .642 0 0Z" style="fill:#fff;fill-rule:nonzero" transform="translate(-10.5 6.187) scale(1.13636)"/><path d="M93.861 72.788s-.16-.16-.321 0c-.321 0-.482.161-.803.161h-.161c0-.321.161-.321.321-.482.161 0 .322 0 .322-.161 0 0 .16-.16.16-.321-.321 0-.803-.321-1.124.161l-.16.16c-.322 0-.643.161-.964.322 0 .16 0 .16.161.321 0 0 .16 0 .321-.161 0 .161-.161.161-.161.321v-.16l-.16.16-.161.161.161.161h.321v.16c-.321.161-.803.321-1.124.321.16.482.321 0 .642.161-.16.16-.16.321-.321.482h.321s0-.161.161-.161c.321.321.803.482.803-.161.16 0 .16-.16.321-.16l-.161-.161c.161 0 .321-.481.321-.481v-.161c.321.161.482 0 .803 0 0 .161 0 1.927.161 1.766.321-.481-.321-2.408.803-2.087-.321 0-.482-.161-.482-.161Z" style="fill:#fff;fill-rule:nonzero" transform="translate(-10.5 6.187) scale(1.13636)"/><path d="M91.934 71.343c-.481.321-.321.482 0 .803.161 0 .322 0 .161-.161 0-.321 0-.481-.161-.642.161.161-.321.161 0 0ZM82.299 74.876c0-.161-.161-.161-.161-.321-.16-.161-.481-.161-.642-.161-.482-.16-.642-.481-.963-.803.321-.16.481-.321.803-.481 0-.482-.643.16-.803.16h-.161v-.321l.161-.161c.16 0 .321-.16.481-.16-.16-.321-.16-.321-.642-.321 0-.321 0-.643.161-1.124 0 0-.161 0-.322-.161 0 .803.161 1.124-.802 1.285h-.482c.16.481.16.481.482.321.16 0 .321 0 .642-.161 0 .803.321 1.767-.642 1.767v.16c.321.161.802.482 1.124.643v-1.446c.321.161.642.322.803.643l.16.16c.161.643.482.482.803.482Z" style="fill:#fff;fill-rule:nonzero" transform="translate(-10.5 6.187) scale(1.13636)"/><path d="M79.248 73.431c-.161 0-.161 0 0 0-.482.481.321.642.642.481-.321-.321-.481-.481-.642-.481Z" style="fill:#fff;fill-rule:nonzero" transform="translate(-10.5 6.187) scale(1.13636)"/><path d="m79.73 73.912-1.124 1.124-.161-.16v-.161c.643-.321.964-.642 1.285-.803Zm1.285-1.927c.16.161.321.161.481.322 0 0 0 .16.161.16h-.161c-.481.161-.642 0-.481-.482.16.161-.161.482 0 0ZM85.029 72.949c0-.482.161-.161 0 0Z" style="fill:#fff;fill-rule:nonzero" transform="translate(-10.5 6.187) scale(1.13636)"/><path d="M85.993 74.876c-.482-.16-.964-.321-1.285-.482-.803 0 .161-.481.161-.642.16 0 .16-.161.16-.161-.16-.16-.321-.16-.642-.16v-.161c.321 0 1.445-.642.642-.642.161 0 0 .161-.16.161 0-.643.642-1.606-.482-1.446-.803.161-1.445.321-.803 1.285 0 .321.161.321.321.161.321-.161.321-.161.643.16-.643.161-1.285.321-1.767.482 0 0-.16 0-.16.16v.161h.16c.321 0 .482-.161.803-.161v.161c-.321.482-.642.803-1.285 1.124.482.161.964 0 1.124-.321 0-.161.161-.161.322-.161.321.161.803.322 1.124.482.16 0 .16.161.321.321l.16.161c.482 0 1.125.16 1.285-.161v-.16c-.321 0-.482-.161-.642-.161Zm-1.927-2.569.482-.482c-.161 0-.161 0-.322-.161h-.16c.16 0 .321-.16.482-.16 0 .321.16.642.16.963-.16 0-.321-.16-.642-.16Zm.16 1.766c-.16-.16-.321-.16-.321-.482l.161-.16.16.16v.482ZM61.744 72.146c0 .482 0 .964-.16 1.285 0 .321-.161.482-.321.803-.161.16-.161.321-.322.482.482 0 .643-.161.803-.322.161-.481.321-.963.803-1.124l.161-.16s-.161 0-.161-.161h-.321c0-.321.161-.321.321-.482 0 0 0-.16.161-.16h-.321v-.161c0-.16.16-.321.321-.321-.321.161-.482.161-.964.321Zm-.481-.16c-.482-.161-.803 0-1.285.16l-.161.161c0 .482.321 1.445-.482 1.606.482.481.964-.161 1.285-.482 0-.161 0-.321.161-.482.16 0 .16-.16 0-.321l-.161-.161c0-.16.161-.321.161-.321.321 0 .16.964 0 1.124 0 0-.161 0-.161.161l.482.482c.161-.643.161-1.124.161-1.927.16 0 .16 0 0 0Z" style="fill:#fff;fill-rule:nonzero" transform="translate(-10.5 6.187) scale(1.13636)"/><path d="M63.19 71.825h-.482l.16.161c.161.321 0 .963 0 1.445 0 .803.161 1.124-.803 1.124v.161c.322.16.803.321 1.125.481 0-1.124-.161-2.248 0-3.372Zm-.482.161c0-.161 0 0 0 0 0-.161 0-.161 0 0ZM68.81 74.073c0 .16.161.16.321.16.321-.16.803-.16 1.124-.321v.321c0 .482-.321.482-.803.482.322.321.643.482.964.482l.161-.161c0-.481.321-1.605 1.124-.963h.16c0-.642-.803-.482-1.284-.482v-.16c.16 0 .16-.161.321-.161.321-.321-.321-.482-.482-.321-.321.16-.803.16-1.124.321.321.482.803-.161 1.285-.161 0 .482-.482.161-.482.643-.161.16-.803.321-1.285.321Z" style="fill:#fff;fill-rule:nonzero" transform="translate(-10.5 6.187) scale(1.13636)"/><path d="M69.453 72.146c0-.321 1.124-.482 1.284-.482 0-.321-.482-.321-.803 0-.16 0-.321.161-.481 0-.322-.16-.322 0-.322.321-.16.964-.481 1.767-1.124 2.57-.16 0-.321 0-.321.16.161 0 .803-.16.803-.481.161-.482.482-1.124.642-1.606 0 .16.161.16.161.321.161.482.161.482.642.321.161 0 .482-.16.643 0 .16 0 .16 0 .321-.16.16-.322.16-.482.321-.803-.642-.643-1.285-.161-1.766-.161Zm1.124.321c0 .161 0 .161 0 0-.161.161-.964.482-.964.161 0-.321.161-.482.642-.482.322-.161.482 0 .322.321Z" style="fill:#fff;fill-rule:nonzero" transform="translate(-10.5 6.187) scale(1.13636)"/><path d="M69.934 72.467c.161.161.321.161.482.161-.161-.161-.161-.161 0-.321 0 0-.321 0-.482.16ZM64.474 73.752v.321c0 .321-.16.482.161.642 0-.321.321-.803.321-1.284v-.643l.161-.16c.16-.161.16-.321 0-.321-.161-.161-.964 1.124-1.124 1.284 0 .161-.161.161-.161.321l.642-.16Zm2.409 0s0 .16 0 0c.161.321.321.482.482.482h.321c.161-.161 0-.322-.161-.482h-.642ZM66.241 72.307c.16-.161.642-.161.963-.161 0-.161 0-.161-.16-.161h-.643v-.481s0-.161-.16-.161l-.161.161c0 .481-.321.803-.803.803l.643.16c-.161 0-.321.161-.321.161-.322.16-.322.16-.161.481 0 0 0 .161.161.161.321.321.642-.161 1.124.161 0 0 .16 0 .321-.161.16-.321.321-.482.481-.803-.642-.16-1.124-.16-1.284-.16Zm0 .802c0-.16.16-.321.16-.642.322.321.161.482-.16.642Z" style="fill:#fff;fill-rule:nonzero" transform="translate(-10.5 6.187) scale(1.13636)"/><path d="M65.92 72.467c-.643-.16-.161 0 0 0Zm.481 1.285c-.481-.482-.803-.161-1.284-.161.16.161-.161.643-.322.803 0 .161.161.161.322.161.16-.321.16-.482.321-.643.16.161 0 .643.321.803.161.161 1.445.322 1.445 0 0-.16-.642-.963-.803-.963Zm-.16.16c0 .161-.161.161-.321 0h.321Zm.321.482c-.482.321-.803 0-.803-.321v-.161c.161.161.161.322.321.482.161 0 .321-.16.482-.16 0 0 .16.16 0 .16ZM73.146 74.876c1.124 1.124.642-1.124 1.606-1.124 1.285 0-.643-.642-.643-.642.482-.482.964-.322 1.285-.482a1.255 1.255 0 0 0-.642-.643c-.161-.16-.482-.16-.803-.321.16-.16.482-.321.642-.642-.321-.321-.321-.321-.482 0-.16.161-.321.482-.642.803l-.963.482-.161.16h.161c.16 0 .321 0 .642-.16.482-.161.963-.161 1.285-.322.16 0 .321.161.321.161 0 .321-.321.642-.643.321-.16 0-.321-.16-.481-.16-.482.16-.803.16-1.285.321.161.321.161.321.482.16.16-.16.482-.321.642-.321h.161c0 .321-.161.321-.482.482 0 .321 0 .321-.321.321-.321.161-.803.161-1.124.321 0 .161 0 .161.16.161.964.321 1.285.321 1.606.16.321.322.321.964-.321.964Z" style="fill:#fff;fill-rule:nonzero" transform="translate(-10.5 6.187) scale(1.13636)"/><path d="M73.146 72.307h.321c-.16-.161-.16-.322-.321-.482h-.321c-.161.321 0 .482.321.482Zm-.642.642c-.161 0-.321.161-.482.321.161.161.321.161.482.161v-.482c0 .161-.321.161 0 0Zm1.445-1.445c-.321.16-.482.16-.642.16l.321.321h.16c0-.16.161-.321.161-.481 0 .16-.321.16 0 0ZM99 55.767c-2.087-3.212-4.817-5.46-8.19-7.227 0-.16-.16-.16-.321-.16H63.511c-.161 0-.321.16-.482.16-2.89 1.446-5.299 3.533-7.226 6.102-1.927 2.57-3.051 5.3-3.372 8.351-.321 2.89.321 5.46 1.445 7.868 0 .161.161.161.321.161h44.964c.321 0 .321 0 .482-.161 1.284-2.569 1.605-5.299 1.445-8.029.16-2.569-.803-4.978-2.088-7.065ZM61.584 66.044c.642-2.088 1.285-4.015 1.606-6.102 0-.161.16-.321.321-.321h1.927c-.321 1.284-.642 2.729-.963 4.014.321 0 .803 0 .963.161.321-1.285.803-2.73 1.124-4.015h.161c.642 0 1.445 0 2.248.161h.161c-.322.642-.482 1.284-.643 1.927-.482 1.445-.803 2.89-1.284 4.336 0 0 0 .16-.161.16h-.161c-.642 0-1.284-.16-2.248-.16.161-.482.321-1.125.643-1.446h-1.125.161c-.161.321-.321.803-.482 1.285l-.16.161h-.161c-.482 0-1.124 0-1.927-.161.161.161.161.161 0 0Zm31.956-11.08c-.803 1.766-1.766 3.372-3.533 4.175a3.098 3.098 0 0 1-1.605.482h-.321c-.322.16-.482.481-.482.642-.321 1.124-.643 2.087-.964 3.212a62.665 62.665 0 0 0-1.284 4.335c0 .161-.161.161-.322.322 0 .16-.16.16-.321.16-.803-.16-1.606-.16-2.409-.16h-.321c.803-2.73 1.606-5.46 2.409-8.351-1.124 0-1.927-.16-2.89-.16.481-.643 1.124-1.285 1.605-1.446 0 0 .161 0 .322-.16h.963c1.606-.161 4.657 0 5.62-.321 0-.161-.16-.322-.321-.482-.16-.161-.321-.321-.481-.321-2.088-.803-4.176-1.446-6.424-2.088-1.927-.642-4.014-.963-6.102-1.285-1.285-.321-2.89-.481-4.175-.642h-.482c-.803.161-1.606.482-.963 1.124.803 1.124 1.766 1.767 2.89 2.409.803.482 1.606.803 2.409 1.285 1.124.642 2.569 1.927 3.212 3.051.321.321.642.481.963.481h.161c.803.482 2.408 1.927 1.927 3.051-.322 1.446-1.285 2.73-2.249 3.694-.16 0-.321.161-.321.161 0 .16-.16.16-.321.16H58.372c.161-.321.322-.321.161-.321.963-.964 2.73-1.124 4.015-.803 1.927.482 4.496.161 6.584 0 1.605-.161 3.372-.321 4.978-.642h-4.818c.161-.482.161-.964.321-1.285.482-1.606.803-3.372 1.285-4.978 0-.321.161-.321.321-.321h2.088c-.482 1.927-1.124 3.693-1.445 5.62h1.124c.16 0 .16-.16.16-.321.321-1.285.803-2.73 1.124-4.015.161-.321.161-.803.321-1.124 0-.16 0-.16.161-.16h1.927c-.321.963-.482 1.606-.482 2.89-.321 1.124-.803 2.409-.963 3.533.321-.16.803-.16 1.124-.321.16-.161.321-.161.482-.321.642-.482 1.124-1.124 1.445-1.606.482-.803.642-1.445.482-2.248 0-.161 0-.321-.161-.482-.642-1.124-1.445-1.606-2.73-2.088-.642-.321-1.285-.481-2.087-.803-2.249-.802-4.176-1.927-5.942-3.532-.161-.161-.161-.322 0-.482.16-.321.482-.482.803-.642.321-.322.803-.322 1.285-.322.481 0 1.124-.321 1.605-.321.322-.321.643-.482.964-.642 3.051-1.767 7.708-1.767 11.08-1.445 2.891.16 5.621.642 8.351 1.284 1.124.482 1.766 1.124 2.087 2.088-.482 0-.482.321-.482.482Z" style="fill:#fff;fill-rule:nonzero" transform="translate(-10.5 6.187) scale(1.13636)"/><path d="M77 32c-24.248 0-44 14.131-44 31.635S52.752 95.27 77 95.27s44-14.292 44-31.795C121 46.131 101.248 32 77 32Zm0 61.825c-23.285 0-42.073-13.489-42.073-30.35 0-16.701 18.949-30.351 42.234-30.351 23.284 0 42.233 13.65 42.233 30.351-.16 16.861-19.109 30.35-42.394 30.35Z" style="fill:#132d81;fill-rule:nonzero" transform="translate(-10.5 6.187) scale(1.13636)"/><path d="M39.905 65.562c-1.927 0-3.372.642-3.372 1.445s1.445 1.446 3.372 1.446c1.927 0 3.372-.643 3.372-1.446 0-.803-1.445-1.445-3.372-1.445Zm0 2.409c-1.606 0-2.89-.482-2.89-1.124 0-.643 1.284-1.124 2.89-1.124s2.89.481 2.89 1.124c0 .642-1.284 1.124-2.89 1.124Zm34.847 21.036c0-1.927-.643-3.372-1.446-3.372-.802 0-1.445 1.445-1.445 3.372 0 1.927.643 3.373 1.445 3.373.803 0 1.446-1.606 1.446-3.373Zm-2.57 0c0-1.605.482-2.89 1.124-2.89.643 0 1.125 1.285 1.125 2.89 0 1.606-.482 2.891-1.125 2.891-.642 0-1.124-1.445-1.124-2.891Zm41.431-30.35c-1.927 0-3.372.642-3.372 1.445s1.445 1.446 3.372 1.446c1.927 0 3.372-.643 3.372-1.446 0-.803-1.445-1.445-3.372-1.445Zm0 2.569c-1.606 0-2.891-.481-2.891-1.124 0-.642 1.285-1.124 2.891-1.124s2.891.482 2.891 1.124c0 .643-1.285 1.124-2.891 1.124Zm-2.248-7.547c-1.767.803-2.891 2.088-2.409 2.73.321.803 1.927.642 3.694-.161 1.766-.803 2.89-2.087 2.408-2.73-.321-.642-1.927-.642-3.693.161Zm1.124 2.248c-1.445.642-2.891.803-3.051.321-.161-.481.803-1.445 2.248-2.248 1.445-.642 2.891-.803 3.051-.321.161.482-.803 1.606-2.248 2.248Z" style="fill-rule:nonzero" transform="translate(-10.5 6.187) scale(1.13636)"/></svg>