<svg xmlns="http://www.w3.org/2000/svg" width="154" height="157" fill="none"><g clip-path="url(#a)" filter="url(#b)"><path fill="#fff" d="M41 0h72c18.667 0 28 9.333 28 28v72c0 18.667-9.333 28-28 28H41c-18.667 0-28-9.333-28-28V28C13 9.333 22.333 0 41 0Z"/><path fill="#fff" d="M34.766 63.474c0 8.05 4.45 15.77 12.37 21.461 7.92 5.692 18.663 8.89 29.864 8.89 11.2 0 21.943-3.198 29.863-8.89 7.921-5.692 12.37-13.411 12.37-21.46 0-8.05-4.449-15.77-12.37-21.462-7.92-5.691-18.662-8.889-29.863-8.889s-21.944 3.198-29.864 8.89c-7.92 5.691-12.37 13.411-12.37 21.46Z"/><path fill="#132D81" d="M107.029 58.175c-3.211-5.941-9.153-9.474-15.416-11.722-6.584-2.249-13.97-2.891-20.876-1.767-6.262.642-12.846 3.051-17.985 7.066-5.3 3.854-8.35 10.277-6.102 16.7C50.825 79.855 65.117 83.87 76.037 84.19c6.744.642 14.131-1.124 20.233-4.015 5.781-2.89 11.723-7.868 12.205-14.774.16-2.73-.482-4.978-1.446-7.226.964 2.248-1.445-2.57 0 0ZM72.986 45.328c2.73-.32 5.46-.32 8.19 0 2.73.482 5.299 1.124 7.868 2.249H65.278c.32-.482 5.46-1.927 7.708-2.249 2.73-.16-2.249.322 0 0ZM61.263 80.336c-6.905-2.57-14.934-8.35-14.453-16.701 0-8.672 9.314-13.81 16.22-16.219h.32c-.16 0-.16.16-.32.16-3.052 1.606-5.621 3.533-7.709 6.263-4.014 4.818-4.817 11.723-2.087 17.343 2.248 4.336 5.78 7.227 9.956 9.635 0 0 .16 0 .16.161-.642-.16-1.445-.482-2.087-.642.642.16-2.89-1.124 0 0Zm19.752 2.409c-5.46.642-11.241.16-16.22-2.249h24.249c-2.57 1.124-5.3 1.927-8.03 2.249ZM63.19 79.532c-.16 0-.321-.16-.482-.16-1.766-.964-3.533-2.249-5.138-3.694l-.161-.16c13.007 0 25.854.16 38.861.16-.16.16-.32.32-.642.32a33.666 33.666 0 0 1-4.818 3.534c-.481.481-1.766.16-2.408.16h-10.76c-4.817-.16-9.635-.16-14.452-.16Zm41.912-8.19c-3.211 4.817-8.671 8.19-14.131 9.796h-.321c.16 0 .16-.161.321-.161 5.46-2.89 9.796-7.547 11.08-13.65 1.446-8.832-4.014-15.737-11.24-19.912-.161 0-.322 0-.322-.16.482.16.964.32 1.285.802 3.051 1.124 5.781 2.41 8.35 4.336 6.424 4.175 9.154 12.044 4.978 18.949 1.285-1.927-1.445 2.248 0 0Z"/><path fill="#132D81" d="M79.89 73.591c-.481.16-.963.482-1.284.643v.16c0 .16.16.16.16.16.482-.32.803-.642 1.125-.963Zm-15.576-.963c.321-.16.482-.321.803-.642 0 0 0-.161-.16-.322h-.161c-.322.322-.482.482-.482.964Zm16.7-.964c-.16.482-.16.643.322.643h.16s0-.16-.16-.16c0-.483-.16-.483-.321-.483Z"/><path fill="#E00B22" d="M50.504 42.76c1.284-.482-.643-2.57 1.605-1.446.322.803-.803 1.124-.642 1.927 0 1.124 1.124.321.642-.321 0-.16 0-.321-.16-.482.32 0 .803 0 1.124.16.16 0 .16.161 0 .322-.16.321-.16.642-.321.803v.32c.16 0 .16 0 .16.162 0-.643.803-1.446 1.285-1.125v.322c-.321.481-.642.963-.964 1.284 0 .16 0 .16-.16.321.16 0 1.124.161 1.124.322-.16.32-.642.642-.803 1.124 0 .32.803 1.445.964 1.766 0 2.409-1.285-.16-1.927-.803-.322.482-.643.803-.964 1.124-.16.16-.482.321-.803.321v-.32c.321-.643.642-1.125.803-1.928 0-.16.16-.32.16-.642-.16 0-.16.16-.32.16-.482.643-.964 1.125-1.285 1.606-.321.322-.643.643-1.124.482-.16 0-.322-.16-.482-.16.963-.964 1.606-1.767 2.57-2.73-.161-.161-.161-.322-.322-.482-.16.16-.16.321-.16.482-.161.16-.161.481-.161.642l-.16.16c-.322 0-.643-.16-.964-.16.16-.16.16-.321-.16-.482l-.482-.482h1.284c.482 0 .482 0 .482-.32h.482c-.16-.161-.322-.161-.482-.322 0-.16-.16-.16-.16-.321l.16-.16c.16 0 .16-.161.16-.161v-.321c-.802 0-.963 1.124-1.605 1.284-1.446.482 0-1.124.642-1.284.642-.322.803-.322.964-.643-.161.16-.322 0-.322 0-.32-.16-.803-.32-1.124-.481-.16 0-.16-.161-.32-.161l-.161-.16.16-.161c1.124 0 1.445.16 1.767.963Zm1.124 4.817c.16 0 1.124-.803.803-1.124-.482.32-.643.803-.803 1.124Zm.16-3.694c.16.322.321.482.482.803.321-.16.321-.481.16-.803-.32-.16-.32-.16-.642 0 .321-.16.16.322 0 0 .321-.16.16.322 0 0Zm1.445.16c-.32.322-.642.643-.802.964.16.161.32.161.32 0 .322-.16.322-.481.482-.963 0 .16 0 .16 0 0Zm-1.927-2.247c0 .16.161.16.161.32a.488.488 0 0 0 0-.641c0 .16-.16.16-.16.32 0 .161 0-.16 0 0Zm1.606 3.533c0 .16 0 .32.16.481h.161v-.32s-.16 0-.32-.161ZM99.16 43.24c.161-.642.161-1.285.322-1.927.481.16.32.642.642.803 0 0 0-.16.161-.16V40.51s.16 0 .16.16c.161.322.161.482.321.804v.642c.482.642.643-.482.643-.642.481.481.963.481 1.284 0 .482.32.643.803.161 1.284.642 0 1.606.16 1.927.803.16.803-.482.803-.964.803-.321 0-1.284-.16-.963.482 0 .482-.964.642-1.285.803.161 0 .161.16.321.16l.322.322c.321.642-.803.481-1.125.481 0-.16 0-.16.161-.32v-.161h-.321c-.161.16-.321.16-.321.32-.321.482-.643 1.125-.964 1.446-.642 1.445-1.124.482-1.606-.482.16 0 .322.16.322.16.32.161.642.161.802-.16.482-.482.803-1.124 1.125-1.606v-.16c-.964 0-2.249.803-2.891-.16-.16-.161-.16-.483-.321-.643.482 0 .803.16 1.124.16 1.124.161 2.73.643 3.372-.481 0-.16-2.409 0-1.606-.482.803 0 1.446.16 2.088.321h.161l.963-.482c.161 0 .321-.16.482-.32.321-.161.16-.322 0-.483-.161 0-.482-.16-.643-.16-.481.321-.16.803-.802.963-.322.16-.643 0-.964-.481-.161-.161 0-.482.321-.643l.321-.32c-.321-.161-.642-.161-.803.16 0 .16 0 .32-.16.32 0 .161 0 .161-.161.322 0 0-.16.16-.321.16l-.16-.16v-.16c-.161-.322-.161-.322-.482-.161-.482.321-.482.321-.643.321Zm2.249-.321-.322.321s0 .16.161.16c.161-.16.161-.16.161-.481.16.16.16 0 0 0 .16 0-.161.16 0 0 .16 0-.161.16 0 0Zm-19.913-4.497c.642 0 .803-1.124 1.446-.802.802.481-.482 1.766-.803 2.248-.161.16 0 .32 0 .481.32.482.963.643 1.284.803.16 0 .16 0 .321.161-.481.321-.963.482-1.284.642-.643.322-.803-.642-1.124-1.124-.482.482-1.124.803-1.767.482.16-.16.321-.16.482-.16 1.445-.804.482-.964.482-2.088h.32c.162.16.483.321.643.642.16-.321.321-.642.482-.803-.16 0-.321.16-.321.16-.642.643-.964-.48-.642-.963-.161 0-.322 0-.482.16 0 0-.16 0-.16.161-.162.322-.483.643-.643.803 0 .803-.16 1.767-.482 2.41-.482 1.123-.482-1.446-.482-1.446-.16.16-.32.482-.642.642-.482.16-.482-.642-.16-.803.32-.32.642-.481.963-.642.321 0 .16-.964.321-1.285-.16 0-.16 0-.16.16l-.482.483c-.322.16-.643.16-.803 0-.16-.322-.16-.482.16-.482.482-.16.964-.482 1.285-.642l.16-.161c0-.642 0-1.124.161-1.606 0-.321.482-.642.803-.321.321.321 0 1.285 0 1.606l.16-.16h.322v.32h-.16c-.643.482-.643.643-.643 1.285.321 0 .482-.321.321-.642 0-.16 0-.16.16-.321.322-.161.643-.161.964-.322.16 0 .321-.16.321-.32.161-.483.322-.804.322-1.285.16-.322.32-.482.642-.161 1.124.482 0 1.445-.643 1.766-.642.482-.642.803-.642 1.124Z"/><path fill="#000" d="M50.182 78.57c.16-.322.16-.482 0-.643 0 0 .16 0 .16.16l.643.643c-.321-.16-.482-.16-.642.16-.803.964-1.445 1.767-2.248 2.73-.482.643-.964 1.125-1.446 1.606.643-1.605 1.285-3.532 1.767-5.138 0 0 0 .16-.16.16-.804.964-1.607 1.767-2.41 2.89-.16.161-.16.322-.32.322-.161.16-.161.321 0 .482v.16c-.322-.32-.643-.481-.804-.642v-.16h.161c.482.481 1.606-1.285 1.766-1.446.643-.642 2.57-2.248 2.088-3.372v.16c-.321-.32-.642-.16-.803 0l-2.409 1.928c-.16.32-.963.802-1.605.802-.803.161-1.285-.642-1.125-1.284.161-.482.482-.803.803-1.124.964-.803 1.606-1.285 2.57-2.088.16-.16 1.124-.642.803-.964v-.16c.481.482.963 1.124.803 1.124-.322-.16-.482-.16-.803 0a62.089 62.089 0 0 1-3.373 2.73c-.16.16-.32.482-.481.803-.322 1.124 1.124.803 1.605.642.482-.481 1.124-.803 1.446-1.285.32-.32 2.248-1.445 1.766-1.927v-.16h.16c.322.482.804.642 1.125 1.124.16.16.16.16.16.321-.481 1.446-1.766 4.336-1.766 4.497 0-.161 1.606-2.249 2.57-3.051Z"/><path fill="#E00B22" d="M60.62 40.832c0 .482-.32 1.446-.963 1.446-.803 0-.642-1.446-.642-1.928.16 0 .16 0 .32.161l.483.482c.642.482.481-1.124.32-1.285 0-.16-1.605-2.73-.32-2.087.481.32.642.963.963 1.445l.16-.16c.161-.322.482-.643.643-.964.16-.16.963-.643.963 0 0 .481-.481.803-.481 1.284-.16.322 0 .482.32.643.483.481-.16.803-.32 1.124-.482.642.32 2.087.642 2.73.16.321.16.482.321.803 0 .16-.16.32-.16.481-.161 0-.322-.16-.482-.16-.964-1.285-.803-2.89-1.767-4.015 0-.16 0-.16 0 0Zm.803-1.766c-.32.16-.481.642-.32.963 0 .16.16.16.32.321.16-.16.16-.16.16-.32 0-.161 0-.643-.16-.964.16.321-.32.16 0 0 .16.321-.32.16 0 0Zm9.796.482c.321-.322.642-.482.482-.964l-.482-2.409c0-.16-.16-1.766.482-1.445.963.803 0 2.248.642 3.212h.16c0-1.446 1.285.16.803.16l-.642.643c0 .16-.16.32-.16.481.16.803.16 1.446.32 2.41 0 .32-.16.802-.32.963-.161-.16-.161-.321-.161-.482-.16-.642-.16-1.285-.321-1.767 0 0 0-.16-.16-.32-.161.16-.322.16-.322.32-.16.161-.482.322-.642.161-.321-.16-.321-.321-.16-.642 0-.321.16-.643.16-.803 0-.321-.642-.643-.482-.964.321-.481-.321-.963-.642-1.445 0 0 2.248-.321.803.964 0 .16 0 .32.16.32.321.161.321.482.321.643v.803c.321-.16.161 0 .161.16.321-.32 0-.32 0 0Z"/><path fill="#000" d="M69.292 92.38c-.482 0-.803-.161-1.285-.161 0 0-.16 0-.16-.16 0 0 .481-.161.481-.322.322-1.284.482-2.409 0-3.533-.16-.642-.16-1.124-.32-1.605 0-.161-.161-.322-.322-.643h-.16c-.161.321-.161.803-.322 1.124 0-.963-.16-.803-.803-1.284-.16.481-.32.963-.32 1.284-.322 1.285-.643 2.57-1.125 3.694 0 .32-.16.481.16.642v.16c-.481-.16-.963-.32-1.284-.32.16 0 .16 0 .16-.161.322 0 .322-.16.482-.321 0-.16.964-3.533 1.285-5.139v-.16c-.803-.322-.803-.322-1.285.802 0-.481.322-.963.322-1.284h.16c.642.16 1.285.32 1.927.642.482.16 1.124.16 1.445.321v.16c-.642.322-.16 1.767 0 2.249 0 .321.161.642.322.963l.481-.963c.16-.482.322-.803.482-1.285.16-.32.16-.642-.16-.963v-.16c.32 0 .802.16 1.124.16 0 0 0 .16-.161.16-.321.16-.482.322-.482.482-.16.321-2.409 5.3-1.124 5.3.482.16.482.16.482.32.16 0 0 0 0 0Z"/><path fill="#E00B22" d="M67.365 39.066c.642-.16.963-.482 1.284-.964.161-.321.161-.481.161-.803-.16-.642-.321-.32-.963-.32v-.161l.16-.161 1.285-1.285c.16 0 .16-.16.16-.32.16 0 .482-.161.643 0 0 0 .481.641 0 .641-.322.161-.482.322-.803.482-.16.16-.321.16-.482.321.321.16.642.322.642.643 0 0 .16 0 .16-.16.162-.161.643 0 .643.16 0 .32-.32.803-.481.963-.322.321-.161.643 0 .964.16-.16.32-.16.481-.322-.481.482-.32 1.446-.32 1.928-.162 1.124-.804.481-.804-.482l-.321.321c-.803.803-.803-.16-.321-.803l.482-.963v-.482c-.161 0-.161 0-.161-.16-.16.32-.321.642-.642.802-.16.803-.482.803-.803.16.642-.16.32.643 0 0 .642-.16.32.643 0 0Zm1.766.963c0-.16 0-.16 0 0-.16.16-.321.321-.321.482h.16c0-.16.161-.321.161-.482Zm18.788 1.285c.964.321 1.767.321 2.57-.482-.321-.16-.642-.16-.803 0-.16 0-.321 0-.482-.16-.16-.322-.321-.643-.321-.964.803 0 1.606.482 2.409.321.803-.321 1.284-1.927 1.927-2.57.32.483.32 1.285 0 1.767-.16.322-.803.643-.803.964.642 0 .963-.16 1.285.482-.161.32-1.125.16-1.285.16-.803 0-1.124.16-1.767.642-.32.482-2.73 1.285-2.73-.16-.16.16-.16.16 0 0 .803.321 0 .16 0 0 .803.321 0 .16 0 0Z"/><path fill="#000" d="M37.014 61.548c.161.16.161.16 0 0 .161.481.322.481.643.642.482.16 1.124.16 1.445.16 1.285.161 2.248.322 3.533.482.321 0 .482 0 .642-.32h.16c0 .48-.16.963-.16 1.284h-.16c0-.16-.322-.482-.482-.482-.803-.16-1.606-.16-2.409-.321 0 .482-.16.963-.16 1.445.802.16 1.605.16 2.408.321.16 0 .322 0 .482-.32l.16-.161c0 .481-.16.802-.16 1.284l-.16.16c0-.481-.322-.481-.643-.481-.803-.16-1.445-.16-2.087-.321-.964-.16-1.606-.16-2.57-.321-.32 0-.642-.16-.803.32h-.16v-.16c0-.481.16-.803.16-1.284l.322.32c0 .322.16.483.481.483.643.16 1.285.16 1.606.32.16 0 .482 0 .803.161 0-.481.16-.963.16-1.445-.481 0-2.89-.642-2.89 0h-.16v-.16c-.161-.804-.161-1.125 0-1.606.16.16-.161.481 0 0Zm7.227-8.35c.803.481 1.284.802 2.087 1.123.16.16.322.16.482-.16h.16a9.212 9.212 0 0 0-.642 1.124h-.16v-.16c.16-.322 0-.483-.16-.483-.161-.16-.322-.16-.483-.32-1.284-.804-2.408-1.285-3.532-2.088-.322-.322-.643-.482-.964-.16h-.16c.16-.322.481-.804.642-1.125 0 .16.16.16 0 .16-.16.322 0 .482.16.482.482.482 1.446.803 2.088 1.285.321-.482.482-.963.803-1.285a14.677 14.677 0 0 0-2.248-1.124c-.16-.16-.321-.16-.482.16h-.16v-.16c.16-.32.32-.642.642-1.124h.16v.16c-.32.322.482.643.643.804 1.284.803 2.408 1.284 3.693 2.087.16.16.321.16.482.16.16.161.321 0 .482-.16h.16v.16l-.482.964s-.16 0-.16.161v-.16c.16-.322 0-.482-.321-.643-.643 0-1.285-.482-1.927-.803-.322.321-.482.642-.803 1.124ZM60.46 84.19c0 1.124-.803 1.766-1.767 2.248-.16 0-.16.16-.16.16-.16.643-.643 2.41-.16 3.052v.16c-.322-.16-.483-.32-.643-.481v-.322c.16-.963.321-1.766.482-2.73 0-.32 0-.32-.322-.481-.16.32-.32.481-.481.803-.161.481-.482.803-.643 1.284-.16.16-.16.482.16.643v.16c-.48-.16-.802-.482-1.123-.642v-.16h.482c.32.32.642-.482.803-.643.802-1.124 1.284-2.409 2.087-3.693.16-.161.16-.322.321-.482-.16-.16.964.321.964 1.124Zm-1.446 1.606c1.285-.964.803-3.212-.16-1.285-.16.482-.482.964-.803 1.285.321.32.642.32.963 0Zm57.811-17.825c-.161.482-.161.963-.321 1.285 0-.161-.161-.161-.161-.161 0-.321-.161-.321-.321-.482-.482-.16-5.46-1.124-5.46-.642h-.161c.161-.482.161-.803.161-1.285 0 0 0-.16.16-.16v.16c0 .321 2.249.321 2.73.803.161-.482.161-.963.322-1.285-.482-.16-2.57-.642-2.891 0 0 0-.161 0-.161.161.161-.482.161-.803.322-1.285l.16-.16c0 .321.161.642.482.642 1.606.321 3.051.642 4.657.964h.321c.161 0 .321-.16.482-.16 0 0 .16 0 .16-.162-.16.482-.16.803-.321 1.285v.16c-.16-.16-.321-.481-.481-.642l-2.409-.481c-.161.481-.161.963-.321 1.284.321.16 2.73.803 3.051.16-.161 0-.161 0 0 0-.161.483-.161 0 0 0Zm-9.796 13.97c.321-.642-.321-.642-.321-1.284-.964-.963-1.606-1.927-2.409-3.051-.16-.16-.16-.321-.321-.321-.161-.16-.321-.16-.482-.16h-.16v-.161c.481-.322.963-.643 1.284-.964.643-.321 1.285.16 1.767.482.963.963 1.766 1.766 2.087 3.212.161.642 0 1.124-.642 1.445a1.938 1.938 0 0 1-.803.803Zm.321-.642c.803 0 .643-.963.643-1.284-.482-1.285-1.285-2.409-2.409-3.212-.161-.16-1.124-.16-1.285.482a813.324 813.324 0 0 0 3.051 4.014Zm-61.825-8.35c-.642.321-1.284.482-1.766.803 0 0 .16 0 .16-.16.643-.322 1.606-1.606.322-1.767-.482-.16-1.124 0-1.446 0-1.124.16-1.927.642-2.73 1.124-.32.16-.481.482-.642.803-.32.482 0 .964.482 1.124h.16c.643-.16 1.285-.482 1.928-.642.32-.16.481-.16.481-.482 0-.16 0 0 0 0s.16 0 .16.16c.161.322.322.643.322 1.125h-.321c-.16-.322-.482-.16-.642-.16-.643.16-1.285.48-1.927.641h-.482c-.803-.481-.964-1.284-.482-1.927.482-.642 1.285-1.124 1.927-1.284 1.124-.482 1.927-.643 3.051-.482.16 0 .482.16.642.321.482-.16.643.803.803.803Zm61.665-20.073c.481-.482 1.445-1.124 1.445-1.124l-.161.16c-.16.322-1.124 1.125-.642 1.606.321.643 1.285.161 1.606 0 1.124-.481 1.927-1.284 2.73-2.087.16-.321.321-1.606-.161-1.767h-.321c-.642.482-1.124.803-1.606 1.124-.16.161-.482.322-.321.643l-.964-.964h.161c.161.16.482 0 .642 0 .643-.481 1.446-1.284 2.249-1.284.803.16 1.124.963.963 1.605-.482 1.606-2.73 2.891-4.175 3.212h-.642c-.482-.16-.803-1.124-.803-1.124ZM44.401 70.701c-.16-.321-.32-.321-.642-.321-1.766.642-3.533 1.284-5.46 1.766 1.285-1.124 2.73-2.248 4.175-3.533h-.16c-1.285.482-2.409.803-3.694 1.124-.16 0-.16 0-.32.16-.322.161-.483.322-.322.643 0 0-.16 0-.16-.16-.161-.322-.161-.643-.322-.803v-.16h.16c.322.32.483.48.643.32.642-.16 1.124-.32 1.445-.481 1.124-.322 1.927-.643 3.051-.964.322 0 .643-.16.643-.642 0 0 0-.16.16-.16.161.32.161.642.322.802l-.161.16c-1.285 1.125-2.409 2.088-3.533 3.212.803-.32 1.606-.481 2.409-.802.482-.161.963-.322 1.285-.482.16-.16.481-.16.32-.482l.161-.16c0 .32.16.802 0 .963.16-.16-.16-.321 0 0Zm71.3-8.511c-1.124 0-3.854-.482-4.657.321 0 0-.161.16-.322.16v-.963s0-.16.161-.16c.482 1.124 4.978.32 6.102.32h.321v.161c-1.605.803-3.372 1.285-4.978 2.088 1.285 0 2.73 0 4.015-.16.321 0 .642-.482.803-.482v1.284c-.321-.803-1.767-.481-2.409-.481-.803 0-3.372-.482-3.693.642 0 0-.161 0-.322-.16 0-.161.161-.804.161-.804 1.285-.481 4.657-1.766 4.818-1.766ZM89.686 85.314c.16.642.321 1.124.482 1.766.16.803.32 1.446.481 2.249 0 .32.161.642.482.481v.16c-.32.162-.642.162-.803.162h-.16v-.161c.32-.16.32-.321.16-.642-.32-1.446-.642-3.212-1.124-4.657 0-.322-.32-.643-.642-.643h-.16c.16-.16.481-.32.802-.32 0 0 .16.16.321.16.803 1.284 2.57 3.693 2.57 3.693-.16-.482-.16-.963-.321-1.284-.161-.803-.803-3.052-1.124-3.052.32-.16.963-.16 1.124-.16-.322.16.32 2.57.481 3.533.16.803.643 2.569.643 2.73-1.285-1.124-2.248-2.73-3.212-4.015Zm12.365-5.3c.482.483.803 1.125 1.285 1.446.321.482 1.284 2.088 1.927 1.766h.16c-.321.161-.482.482-.803.643h-.16v-.16c.321-.322-.161-.643-.321-.964-.803-1.124-1.606-2.088-2.409-3.212-.321-.321-.643-.482-.964-.321h-.16c.16-.16.481-.321.642-.482h.321c1.285.803 3.694 2.248 3.854 2.248 0-.16-1.445-1.927-2.248-2.89-.321-.321-.482-.16-.803-.482h-.16c.321-.16.642-.482.963-.642v.16c-.321.321 2.248 3.533 3.212 4.657l.16.16c-1.606-.32-3.051-.963-4.496-1.926Zm-4.818 2.73c-.16-.16-.16-.32-.32-.481-.161-.321-.322-.482-.804-.321-.32.16-.481.16-.803.32.322.804.643 1.446.964 2.41.321-.16.642-.16.803-.322.16 0 .16-.32.16-.32v-.643c.322.642.643 1.606.643 1.445-.321-.642-1.285-.16-1.285 0 .16.482.482 2.409 1.285 2.409.803-.321.963-.642.963-1.445.16.481.16 1.124.322 1.445-.803.321-1.446.642-2.249.963 0-.16 0-.16.16-.16.322-.16.322-.321.161-.642-.32-.964-1.445-5.3-2.248-4.978h-.16s0-.161.16-.161c.321-.16 1.445-.803 1.927-.964 0 .643.321 1.446.321 1.446Zm13.008-11.4c-.161 0-.321-.161-.482-.161-.482-.161-.642 0-.803.32-.161.161-.161.483-.321.643.803.321 1.445.803 2.248 1.124.482-.803.321-.963-.321-1.606l1.927.964c-.161 0-.321 0-.321-.16-.482-.161-.964.642-.964.802.321.16 1.767.803 2.248 1.124.161.16.322 0 .482-.16 0 0 0-.16.161-.16.321-.804 0-1.125-.643-1.607.482.322.964.643 1.285.964-.321.803-.642 1.285-1.124 2.087l-.161.161v-.16c.161-.322-.16-.482-.321-.643-.803-.482-1.606-.803-2.409-1.285-.642-.32-2.248-1.445-2.729-.802h-.161v-.161l.803-1.606c.963-.16 1.124 0 1.606.321Z"/><path fill="#000" d="M53.234 87.08c0-.16 0 0 0 0 .16-.16.32-.32.481-.32.161-.161.161-.322.322-.483.803-1.284 1.284-2.569 2.087-3.693 0-.16.16-.321.16-.321.161-.321.161-.482-.16-.642h.321c.643.32 1.285.802 1.927 1.124-.16.481-.481.802-.642 1.284 0-.16.16-.321.16-.481.161-.482.161-.643-.32-.964-.161-.16-.482-.16-.643-.321a14.69 14.69 0 0 0-1.124 2.248c.321.16.482.321.803.321.321.321.803-.642.963-.642-.32.642-1.124 1.927-1.124 1.927 0-.16.16-.321.16-.482.162-.321 0-.482-.32-.642-.16-.16-.321-.16-.482-.321l-.16.16c-.161.482-1.606 2.248-.964 2.57.803.481 1.766-.482 1.927-.322-.803.16-1.124.482-1.445.964-.803-.16-1.285-.642-1.927-.964ZM37.175 61.066c0-.964.16-1.606.16-2.57.161 0 .322 0 .483.161 1.766.803 3.532 1.285 5.299 2.088.16 0 .16 0 .321.16 0-.321.16-1.445-.321-1.445-.16-.16-.482-.16-.642-.16h-.322c.482 0 .964.16 1.285.16l.16.16c0 .803 0 1.446-.16 2.249-1.927-.803-3.854-1.446-5.942-2.41 0 .643.803 1.607 1.124 1.767 0-.16 0-.16 0 0-.481 0-.963-.16-1.445-.16Zm21.84 28.423c.32-.642.481-1.285.803-1.927 0 .482-.161 1.124-.161 1.606.16.482.642.642.964.16.481-.481.642-1.124.481-1.605-.481-1.446-.963-2.41.16-3.694.804-.803 1.286.482 1.767 0-.32.643-.481 1.285-.803 1.927 0-.642.322-1.124 0-1.606-.32-1.124-1.284.643-1.284 1.285.16.482.32.964.481 1.285.482 1.124-.642 4.496-1.927 2.73-.32-.482-.32-.482-.481-.16.16-.322.16-.643 0 0ZM45.044 57.372s0 .16 0 0c-.16.482-.321.643-.482.964v-.16c.16-.322-.482-.804-.803-.804-.963-.481-1.766-1.124-2.73-1.445-.481-.321-.803-.642-1.284-.963-1.124-1.606 1.445-1.606 2.248-1.285 1.124.482 1.927 1.124 3.05 1.606.162.16.322.16.643.32.16.161.482.161.643-.32 0 .16.16.16 0 .32-.161.322-.322.643-.643 1.125h-.16v-.16c.16-.161 0-.322-.16-.482l-.161-.161c-.964-.482-1.927-1.124-2.891-1.606-.321-.16-3.051-1.124-2.248.321.16.322.321.643.642.803.803.803 2.409 1.446 3.533 1.927.16.16.321.16.482.16 0 .162 0 .162.32-.16Zm35.65 29.548c-.322-.482-.964-1.124-1.285-.321-.321 1.124.482 1.445 1.284 2.087.964.803 1.285 1.767 1.285 2.89-.16.643-.481.804-1.124.643-.321-.16-.482-.16-.482.321-.16-.803-.481-2.087-.481-2.087 0 .16.16.32.16.481.16.16.803 1.446 1.285 1.124.963-.481-.16-2.248-.803-2.569-.963-.642-1.606-1.766-1.124-2.89.321-1.124 1.284.16 1.284-.803 0 .642.161 1.445.322 2.087-.16-.16-.322-.803-.322-.963Zm7.708-1.285c0-.16-.482-.963-.964-.803-.16 0-.482.16-.803.16.16.804.321 1.607.642 2.41.964 0 .964-.322.964-1.125.16.803.321 1.285.482 2.088 0-.16-.643-.963-1.285-.963.16.963.321 1.605.642 2.408 0 .16.161.321.322.16.963-.16.963-.641.963-1.444 0 .481 0 1.124.16 1.445-.802.16-1.284.321-2.087.642h-.16c.481 0 .481-.16.481-.482-.16-.642-.32-1.284-.481-1.605-.322-1.124-.482-2.088-.803-3.212 0-.321-.161-.482-.482-.482 0 0-.16-.16 0-.16.482-.161 1.927-.482 2.087-.482.161.482.322 1.445.322 1.445Zm-49.62-30.51s.16 0 0 0c.16.48.48.641.642.802 1.124.642 1.926 1.285 3.05 1.927.482.321 1.125.803 1.446 1.124l.16.16c-.32 0-.642-.16-1.124-.16-1.606-.321-3.211-.642-4.817-.803-.321 0-.482 0-.643.16v-.16c.161-.321.322-.642.322-.963l.16-.16c.321 0 0 .48.482.48.482.162.963.162 1.285.322 0 0 .16 0 .16-.16.16-.322.321-.803.482-1.125-.482-.32-.964-.642-1.285-.803-.16-.16-.32-.16-.481 0h-.322c.161 0 .322-.32.482-.642Zm1.284 2.89c.963.16 1.606.32 2.409.481-.482-.642-1.285-1.124-1.927-1.445-.161.16-.322.482-.482.964Zm66.642-5.942c-.321-.321-.642-.642-.963-1.124h.16c.321.16.643-.321.803-.321.482-.803.964-1.285 1.285-2.088-.161 0-1.285.642-1.927.964-.161 0-.321.16-.321.16-.161.16-.322.321-.322.643v.16h-.16c-.161-.321-.482-.482-.803-.803h.161c.321.16.481 0 .802 0 .964-.482 2.73-1.284 2.891-1.284.321-.322 1.927-1.285 1.606-1.927v-.161c.321.321.642.803.963 1.124-.16 0-.481-.16-.642 0-.803.642-1.445 1.124-1.927 1.927-.321.803-1.606 2.248-1.606 2.73.161-.16.161-.16 0 0 0-.16 0-.16 0 0 0-.16-.321-.321 0 0ZM77.482 85.796v1.284c0-.16 0-.32-.16-.481-.161-.643-.643-.482-1.125-.482v2.57c.964 0 .482-.161 1.124-.804v2.088c-.32-.642-.16-.964-1.124-.964v.16c0 .322-.321 2.891.321 2.891h.16c-.32.322-.802.161-1.284.161l-.16-.16.16-.161c.643 0 .321-4.978.321-5.781 0-.16-.16-.321-.32-.482h-.161l.16-.16c.643.32 1.285.32 2.088.32 0 .322-.803 0 0 0Zm-25.372-.803c.481-.643 3.372-2.89 2.89-3.694v-.16l.964.482c-.322.16-2.73 2.569-3.533 3.532l-1.285 1.285c0-.16 0-.16.16-.321.643-1.606 1.125-3.373 1.607-5.139.16-.321.32-.642 0-.963v-.161c.32.16.642.482 1.124.642v.161h-.161c-.321 0-.482.16-.642.482l-.964 2.89c0 .16-.16.482-.16.964 0 0-.161-.16 0 0Zm42.876-.643c-.161-.32-.803-1.284-1.125-1.284-.481-.322-.803-.16-1.124.32-.16.483.482 3.213 1.124 4.016.161.32 1.767.963 1.927.16v-.803c0 .642-.16 2.57-1.284 1.767-.321-.161-.643-.482-.964-.803-.963-1.285-1.927-3.533-1.124-5.139.321-.963 1.606 0 1.285-.803.803 1.285 1.124 1.927 1.285 2.57Zm6.583 1.767c-.16 0 0 0 0 0 .161-.642-.642-1.767-.802-2.409-.482-1.124-.964-2.248-1.606-3.372 0-.16-.16-.16 0-.321l.16.16c1.285 1.124 2.57 2.088 3.694 3.212.16.16.321.321.481.321.161.16.322.16.482.16 0 0 .161 0 .161.161-.321.321-.643.482-.964.803v-.16c.321-.643-.803-1.285-1.284-1.446-.322.322-.643.482-.964.803.161.482.482.964.642 1.285.161.16.322.321.482.16h.321c-.321.482-.481.643-.803.643Zm-1.605-4.657s0 .16 0 0c.321.803.642 1.445 1.124 2.248.321-.16.642-.482.803-.642-.803-.482-1.446-.964-1.927-1.606Zm12.043-12.526c-.481 0-1.927.803-1.605 1.285.16.16.481.321.642.482.803.482 1.606.642 2.569.803.643 0 1.767.16 2.248-.322.482-.481 0-1.605-.642-1.605.161 0 .321.16.482.16 1.285.643 1.285 2.088-.321 2.248-1.446.161-3.051-.16-4.176-.963a1.93 1.93 0 0 1-.802-.803c-.322-.482-.322-.963.16-1.285-.16 0 0 0 .161-.16-.482 0 .642 0 1.284.16ZM85.029 89.81c0 .482 0 .964-.16 1.285-.482.963-1.445.482-1.767-.321-.963-1.285-1.124-3.051-.963-4.497 0-.32.16-.642.321-.963.321-.482.642-.482 1.124-.16.321.16.321.16.321-.161v-.16l.482 1.926c0-.16 0-.16-.16-.321-.161-.321-.322-.803-.643-.963-.482-.482-.963-.322-1.285.32-.642.643.161 3.373.482 4.015.642 1.124 1.927 1.606 1.927-.16.321.32.321.16.321.16Zm22-14.452c.482-.803.803-1.446 1.285-2.249.482.161.963.482 1.285.643h-.161c-.161 0-.161 0-.321-.16-.642-.161-.803 0-1.124.642l.16.16c1.285.803 2.73 1.445 4.015 2.088.161.16.321.16.482.16.16.16.321.16.482-.16h.16v.16c-.16.322-.321.803-.642 1.124 0-.16-.161-.16 0-.16 0-.16 0-.321-.161-.482l-.16-.16c-1.446-.803-3.052-1.606-4.657-2.41-.161.322-.482.483-.161.804.161.32.482.481.642.642-.321-.16-.803-.321-1.124-.642.321.32.321-.803 0 0Zm9.154-19.913c.16.803.16 1.446.321 2.248v.161c-.482-.803-1.285-.321-1.927-.321-1.285.16-2.248.321-3.533.642-.321 0-.803 0-.803.643h-.161c0-.482-.16-.964-.16-1.446.16 0 .16.16.16.16.161.322.322.322.482.322.642-.16 1.285-.16 1.606-.321l2.891-.482c.642-.16.642-.16.642-.803-.161-.642-.161-.803.482-.803Zm-68.73 28.263c.32.16.481 0 .642 0l.321-.321c1.124-1.285 3.212-3.533 3.212-3.533.16-.16.16-.321 0-.482v-.16h.16c.322.32.643.481.964.803v.16h-.16c-.161-.16-2.73 2.73-3.533 3.694 0 .16-.322.642-.161.803v.16h-.16c-.643-.642-.964-.963-1.285-1.124Zm17.182 1.445c-.321 0-.482 0-.642.322-.321.642-2.248 4.978-1.606 5.299-.482-.16-1.124-.482-1.124-.643.482.161.642-.16.642-.481.643-1.446 1.124-3.051 1.767-4.497.16-.32.16-.481-.16-.642v-.16h.16c.32.32.642.481.963.802 0 0 0-.16 0 0Zm20.876 5.781c.321-.16.482-.32.321-.642-.16-1.124-.803-5.3-1.445-5.3l-.16-.16c.642-.16 1.284-.321 1.284-.16-.321.32-.321.481-.321.963.16.964.963 4.015 1.124 4.657 0 .321.16.482.482.482v.32c-.321.162-.803.162-1.124.322 0-.482-.16-.482-.16-.482Z"/><path fill="#E00B22" d="M92.898 44.044c-.482 0-.964 0-1.445-.16-.643-.322 0-1.767 0-2.41l.16-.16.16.16c0 .482 0 1.124.322 1.606 0 .16.803.803.803.964 0 0-.482 0 0 0Z"/><path fill="#132D81" d="M70.095 78.248c.16-.642.16-1.124.32-1.606 0-.16.161-.16.322-.16-.16.481-.16.963-.321 1.445 0 .321-.16.642-.16.803 0 .16-.161.16-.161.16l-.161-.16c-.16-.482-.16-1.124-.321-1.606 0 .321-.16.642-.16.964 0 .32-.161.481-.161.803h-.16s-.162 0-.162-.161c-.16-.803-.32-1.445-.481-2.409.16-.16.32 0 .32.16.162.483.162.964.322 1.285 0 .161 0 .161.16.322.161-.643.161-1.124.322-1.606 0-.16.16-.16.16-.16l.161.16c0 .642 0 1.284.16 1.766Zm7.226-1.766v2.409c-.16.16-.16 0-.321-.161-.321-.642-.482-1.285-.803-1.767v1.928l-.16.16h-.161v-2.409c.16 0 .32 0 .481.16.161.483.482 1.125.803 1.446v-.642c0-.321 0-.642.16-1.124-.16 0-.32 0 0 0Zm6.263 2.57c-.482-.804-.803-1.286-1.124-1.928v1.767s0 .16-.161.16l-.16-.16v-2.249c.16-.16.32 0 .481.16.16.643.482 1.125.803 1.446v-1.766l.16.16v2.41Zm-3.694-2.57c.16 0 .321 0 .321.16v.643c0 .16 0 .32.161.16h.642v-1.124h.322v2.409c0 .16 0 .321-.322.16v-1.124h-.803l-.16.161v.963h-.16l-.161-.16c.16-.642.16-1.445.16-2.248Zm-7.066 0h.322v.803c0 .16 0 .32.32.16h.643v-1.124c.16 0 .321 0 .321.16v2.088c0 .16 0 .16-.32.16v-1.123h-.964v.963c0 .16 0 .322-.322.16v-2.247Zm-.802 0h.32v1.766c0 .482-.32.642-.642.642-.32 0-.642-.16-.642-.642v-1.927h.16v1.927c0 .16.161.321.482.321.161 0 .322-.16.482-.32v-.483c-.16-.32-.16-.803-.16-1.284Z"/><path fill="#132D81" d="M75.876 79.051c-.16 0-.322 0-.322-.16v-.161c0-.321-.16-.321-.481-.321-.321 0-.482.16-.482.32 0 .161 0 .483-.321.322.16-.803.321-1.606.642-2.409h.321c.16.643.322 1.446.643 2.409Zm-.482-.963c-.16-.482-.16-.803-.321-1.285-.16.482-.16.803-.321 1.285h.642Zm9.956.963c-.16 0-.321 0-.321-.16v-.322c0-.32-.16-.32-.321-.32-.482 0-.321 0-.482.48 0 .322 0 .322-.321.322.16-.642.321-1.124.321-1.606 0-.16.16-.482.16-.642l.161-.16.16.16c.322.642.483 1.445.643 2.248Zm-.482-.963c0-.482-.16-.964-.16-1.285-.16.482-.16.803-.321 1.285h.481Zm-5.62-.964c-.16-.321-.16-.482-.482-.482-.321 0-.321.321-.482.482v1.124c0 .16.161.482.482.482.321 0 .321-.16.482-.321v-.16c.16 0 .16 0 .16.16-.16.32-.32.642-.642.642-.321 0-.482-.16-.642-.482-.16-.642-.16-1.124 0-1.606.16-.32.321-.481.642-.481s.482.16.482.481c.321.161.321.161 0 .161Zm2.409-.642c.16.803.16 1.606.16 2.408h-.16v-2.408Zm-20.876-2.57.32-.32v.48s-.16-.16-.32-.16Zm30.832 0c0 .16.16.482-.16.643l-.161-.161c0-.321 0-.482.32-.482Zm-.16-.963.32-.321.161-.161c0 .482-.16.482-.482.482 0 0-.16 0 0 0Z"/><path fill="#fff" d="M75.394 78.088h-.642c.16-.482.16-.803.321-1.285.16.321.16.803.321 1.285Zm9.475 0h-.643c.161-.482.161-.803.322-1.285.16.321.32.803.32 1.285ZM88.08 73.591c0-.481 0-.642-.32-.481-.322 0-.483.32-.804.32 0-.16.16-.32.16-.32.322-.322.483-.161.964-.161 0 0 0-.16.16-.16l-.16-.161c-.16 0-.16 0-.32-.16.32-.322.32-.322 0-.483-.643.803-1.285 1.446-1.607 2.088.482-.321 1.124-.482 1.446-.803v.16c0 .161-.161.161-.161.322l-.16-.16h-.161c0 .963-.321 1.284.963 1.284 0-.321-.16-.482-.16-.803h-.16c0 .16 0 .803-.322.482-.16 0-.16-.482-.16-.643.642.161.802.161.802-.32Zm1.285-1.927c0 .482.16 3.373-.321 3.212-.16 0-.321-.16-.482-.16 0 .16.16.32.321.32 1.606 1.606.964-2.087.964-2.73v-.16c0-.482-.16-.482-.482-.482.321 0 0 0 0 0Z"/><path fill="#fff" d="M88.562 72.788v.803l.16.16.161-.16v-.32c0-.483 0-.483-.321-.483.321 0 0 .322 0 0ZM93.058 73.43c-.16 0 0 .643 0 0Z"/><path fill="#fff" d="M93.861 72.788s-.16-.16-.321 0c-.321 0-.482.16-.803.16h-.16c0-.32.16-.32.32-.481.161 0 .322 0 .322-.16 0 0 .16-.161.16-.322-.32 0-.803-.32-1.124.16l-.16.161c-.322 0-.643.161-.964.322 0 .16 0 .16.16.32 0 0 .161 0 .322-.16 0 .16-.16.16-.16.321v-.16l-.161.16-.16.16.16.161h.32v.161c-.32.16-.802.321-1.123.321.16.482.32 0 .642.16-.16.161-.16.322-.321.483h.321s0-.161.16-.161c.322.321.804.482.804-.16.16 0 .16-.161.32-.161l-.16-.16c.16 0 .321-.483.321-.483v-.16c.322.16.482 0 .803 0 0 .16 0 1.927.16 1.766.322-.481-.32-2.408.804-2.087-.321 0-.482-.16-.482-.16Z"/><path fill="#fff" d="M91.934 71.343c-.481.321-.32.482 0 .803.161 0 .322 0 .161-.16 0-.322 0-.482-.16-.643.16.16-.322.16 0 0ZM82.299 74.876c0-.16-.16-.16-.16-.321-.161-.16-.482-.16-.643-.16-.482-.161-.642-.483-.963-.804.32-.16.481-.32.802-.481 0-.482-.642.16-.802.16h-.161v-.321l.16-.16c.161 0 .322-.161.482-.161-.16-.321-.16-.321-.642-.321 0-.322 0-.643.16-1.124 0 0-.16 0-.32-.161 0 .803.16 1.124-.803 1.285h-.482c.16.481.16.481.481.32.161 0 .322 0 .643-.16 0 .803.321 1.767-.642 1.767v.16c.32.16.802.482 1.124.643V73.59c.32.16.642.322.802.643l.161.16c.16.643.482.482.803.482Z"/><path fill="#fff" d="M79.248 73.43c-.16 0-.16 0 0 0-.482.482.321.643.642.482-.32-.32-.481-.481-.642-.481Z"/><path fill="#fff" d="m79.73 73.912-1.124 1.124-.16-.16v-.16c.642-.322.963-.643 1.284-.804Zm1.285-1.927c.16.16.32.16.481.322 0 0 0 .16.161.16h-.16c-.482.16-.643 0-.482-.482.16.16-.16.482 0 0ZM85.03 72.949c0-.482.16-.16 0 0Z"/><path fill="#fff" d="M85.993 74.876c-.482-.16-.964-.321-1.285-.482-.803 0 .16-.481.16-.642.161 0 .161-.16.161-.16-.16-.161-.32-.161-.642-.161v-.16c.321 0 1.445-.643.642-.643.16 0 0 .16-.16.16 0-.642.642-1.605-.482-1.445-.803.16-1.445.321-.803 1.285 0 .321.16.321.321.16.321-.16.321-.16.642.161-.642.16-1.284.321-1.766.482 0 0-.16 0-.16.16v.161h.16c.321 0 .482-.16.803-.16v.16c-.321.482-.642.803-1.285 1.124.482.16.964 0 1.124-.321 0-.16.161-.16.322-.16.32.16.802.32 1.124.481.16 0 .16.16.32.321l.161.16c.482 0 1.125.161 1.285-.16v-.16c-.321 0-.482-.16-.642-.16Zm-1.927-2.57.481-.481c-.16 0-.16 0-.32-.16h-.161c.16 0 .32-.161.481-.161 0 .321.161.642.161.963-.16 0-.321-.16-.642-.16Zm.16 1.767c-.16-.16-.32-.16-.32-.482l.16-.16.16.16v.482ZM61.744 72.146c0 .482 0 .964-.16 1.285 0 .321-.161.481-.322.803-.16.16-.16.32-.32.482.481 0 .642-.161.802-.322.16-.482.321-.963.803-1.124l.16-.16s-.16 0-.16-.161h-.321c0-.321.16-.321.321-.482 0 0 0-.16.16-.16h-.32v-.16c0-.162.16-.322.32-.322-.32.16-.481.16-.963.321Zm-.481-.16c-.482-.161-.803 0-1.285.16l-.16.16c0 .483.32 1.446-.483 1.606.482.482.964-.16 1.285-.481 0-.16 0-.321.16-.482.161 0 .161-.16 0-.321l-.16-.16c0-.161.16-.322.16-.322.322 0 .161.964 0 1.124 0 0-.16 0-.16.16l.482.482c.16-.642.16-1.124.16-1.927.161 0 .161 0 0 0Z"/><path fill="#fff" d="M63.19 71.825h-.482l.16.16c.16.322 0 .964 0 1.446 0 .803.16 1.124-.803 1.124v.16c.322.161.803.322 1.125.482 0-1.124-.161-2.248 0-3.372Zm-.482.16c0-.16 0 0 0 0 0-.16 0-.16 0 0ZM68.81 74.073c0 .16.16.16.321.16.321-.16.803-.16 1.124-.32v.32c0 .482-.32.482-.803.482.322.321.643.482.964.482l.16-.16c0-.482.322-1.607 1.125-.964h.16c0-.642-.803-.482-1.285-.482v-.16c.161 0 .161-.161.322-.161.32-.321-.322-.482-.482-.321-.321.16-.803.16-1.124.32.321.483.803-.16 1.284-.16 0 .482-.481.16-.481.643-.16.16-.803.32-1.285.32Z"/><path fill="#fff" d="M69.453 72.146c0-.321 1.123-.482 1.284-.482 0-.321-.482-.321-.803 0-.16 0-.321.16-.481 0-.322-.16-.322 0-.322.321-.16.964-.481 1.767-1.124 2.57-.16 0-.321 0-.321.16.16 0 .803-.16.803-.481.16-.482.482-1.124.642-1.606 0 .16.16.16.16.32.162.483.162.483.643.322.16 0 .482-.16.642 0 .161 0 .161 0 .322-.16.16-.322.16-.482.32-.803-.642-.643-1.284-.161-1.766-.161Zm1.123.321c0 .16 0 .16 0 0-.16.16-.963.482-.963.16 0-.32.16-.481.642-.481.322-.16.482 0 .322.321Z"/><path fill="#fff" d="M69.934 72.467c.16.16.321.16.482.16-.16-.16-.16-.16 0-.32 0 0-.321 0-.482.16ZM64.474 73.752v.321c0 .321-.16.482.161.642 0-.32.321-.803.321-1.284v-.16c-.321-.322-.321-.322 0-.483l.16-.16c.161-.16.161-.321 0-.321-.16-.161-.963 1.124-1.123 1.284 0 .16-.161.16-.161.321l.642-.16Zm2.41 0s0 .16 0 0c.16.321.32.482.48.482h.322c.16-.161 0-.322-.16-.482h-.643Z"/><path fill="#fff" d="M66.24 72.306c.161-.16.643-.16.964-.16 0-.16 0-.16-.16-.16H66.4v-.482s0-.161-.16-.161l-.16.16c0 .482-.322.803-.804.803l.643.161c-.16 0-.322.16-.322.16-.32.161-.32.161-.16.482 0 0 0 .161.16.161.322.321.643-.16 1.125.16 0 0 .16 0 .32-.16.161-.321.322-.482.482-.803-.642-.16-1.124-.16-1.284-.16Zm0 .803c0-.16.161-.32.161-.642.322.321.161.482-.16.642Z"/><path fill="#fff" d="M65.92 72.467c-.643-.16-.161 0 0 0Zm.481 1.285c-.481-.482-.803-.16-1.284-.16.16.16-.161.642-.322.802 0 .16.161.16.322.16.16-.32.16-.481.32-.642.161.161 0 .643.322.803.16.16 1.445.322 1.445 0 0-.16-.642-.963-.803-.963Zm-.16.16c0 .161-.16.161-.322 0h.322Zm.32.482c-.48.321-.802 0-.802-.321v-.16c.16.16.16.32.321.481.16 0 .321-.16.482-.16 0 0 .16.16 0 .16ZM73.146 74.876c1.124 1.124.642-1.124 1.606-1.124 1.285 0-.643-.642-.643-.642.482-.482.964-.322 1.285-.482a1.254 1.254 0 0 0-.642-.643c-.16-.16-.482-.16-.803-.32.16-.161.482-.322.642-.643-.321-.321-.321-.321-.482 0-.16.16-.32.482-.642.803l-.963.482-.161.16h.16c.161 0 .322 0 .643-.16.482-.161.963-.161 1.285-.322.16 0 .32.161.32.161 0 .321-.32.642-.642.321-.16 0-.32-.16-.481-.16-.482.16-.803.16-1.285.32.16.322.16.322.482.161.16-.16.481-.32.642-.32h.16c0 .32-.16.32-.481.48 0 .322 0 .322-.321.322-.321.16-.803.16-1.124.321 0 .16 0 .16.16.16.964.322 1.285.322 1.606.161.321.322.321.964-.321.964Z"/><path fill="#fff" d="M73.146 72.307h.321c-.16-.161-.16-.322-.32-.482h-.322c-.16.321 0 .482.321.482Zm-.642.642c-.16 0-.321.16-.482.321.16.16.321.16.482.16v-.481c0 .16-.321.16 0 0Zm1.445-1.445c-.321.16-.482.16-.642.16l.32.321h.161c0-.16.161-.32.161-.481 0 .16-.321.16 0 0ZM99 55.767c-2.087-3.212-4.817-5.46-8.19-7.227 0-.16-.16-.16-.32-.16H63.51c-.16 0-.321.16-.482.16-2.89 1.446-5.299 3.533-7.226 6.102-1.927 2.57-3.051 5.3-3.372 8.35-.321 2.891.321 5.46 1.445 7.87 0 .16.16.16.321.16h44.964c.32 0 .32 0 .481-.16 1.285-2.57 1.606-5.3 1.446-8.03.16-2.57-.803-4.978-2.088-7.066ZM61.584 66.043c.642-2.088 1.285-4.015 1.606-6.102 0-.16.16-.322.321-.322h1.927c-.321 1.285-.642 2.73-.963 4.015.32 0 .803 0 .963.16.321-1.284.803-2.73 1.124-4.014h.16c.643 0 1.446 0 2.249.16h.16c-.32.643-.481 1.285-.642 1.928-.482 1.445-.803 2.89-1.285 4.335 0 0 0 .161-.16.161h-.16c-.643 0-1.285-.16-2.249-.16.16-.482.321-1.125.642-1.446h-1.124.161c-.16.321-.321.803-.482 1.285l-.16.16h-.16c-.483 0-1.125 0-1.928-.16.16.16.16.16 0 0Zm31.956-11.08c-.803 1.766-1.766 3.372-3.533 4.175a3.1 3.1 0 0 1-1.605.481h-.322c-.32.161-.481.482-.481.643-.322 1.124-.643 2.087-.964 3.212a62.915 62.915 0 0 0-1.285 4.335c0 .16-.16.16-.32.322 0 .16-.161.16-.322.16-.803-.16-1.606-.16-2.409-.16h-.32c.802-2.73 1.605-5.46 2.408-8.35-1.124 0-1.927-.161-2.89-.161.481-.643 1.124-1.285 1.605-1.446 0 0 .16 0 .322-.16h.963c1.606-.16 4.657 0 5.62-.322 0-.16-.16-.32-.32-.481-.161-.16-.322-.321-.483-.321-2.087-.803-4.175-1.446-6.423-2.088-1.927-.642-4.014-.963-6.102-1.285-1.285-.32-2.89-.481-4.175-.642h-.482c-.803.16-1.606.482-.963 1.124.803 1.124 1.766 1.767 2.89 2.409.803.482 1.606.803 2.409 1.285 1.124.642 2.57 1.926 3.212 3.05.32.322.642.482.963.482h.16c.803.482 2.41 1.927 1.928 3.051-.322 1.446-1.285 2.73-2.249 3.694-.16 0-.32.16-.32.16 0 .161-.161.161-.322.161H58.372c.161-.321.322-.321.161-.321.963-.964 2.73-1.124 4.015-.803 1.927.482 4.496.16 6.584 0 1.605-.16 3.372-.321 4.978-.642h-4.818c.16-.482.16-.964.321-1.285.482-1.606.803-3.372 1.285-4.978 0-.321.16-.321.321-.321h2.088c-.482 1.927-1.124 3.693-1.445 5.62h1.124c.16 0 .16-.16.16-.321.321-1.285.803-2.73 1.124-4.015.16-.32.16-.803.321-1.124 0-.16 0-.16.161-.16h1.927c-.321.963-.482 1.605-.482 2.89-.32 1.124-.803 2.409-.963 3.533.32-.16.803-.16 1.124-.321.16-.16.321-.16.482-.321.642-.482 1.124-1.124 1.445-1.606.482-.803.642-1.445.482-2.248 0-.16 0-.322-.161-.482-.642-1.124-1.445-1.606-2.73-2.088-.642-.32-1.285-.481-2.088-.803-2.248-.803-4.175-1.927-5.941-3.532-.16-.161-.16-.322 0-.482.16-.321.482-.482.803-.642.321-.322.803-.322 1.284-.322.482 0 1.125-.32 1.606-.32.322-.322.643-.483.964-.643 3.05-1.767 7.708-1.767 11.08-1.445 2.89.16 5.62.642 8.35 1.284 1.125.482 1.767 1.124 2.088 2.088-.482 0-.482.321-.482.482Z"/><path fill="#132D81" d="M77 32c-24.248 0-44 14.131-44 31.635S52.752 95.27 77 95.27s44-14.292 44-31.795C121 46.13 101.248 32 77 32Zm0 61.825c-23.285 0-42.073-13.49-42.073-30.35 0-16.701 18.949-30.35 42.234-30.35 23.284 0 42.233 13.649 42.233 30.35-.16 16.86-19.109 30.35-42.394 30.35Z"/><path fill="#000" d="M39.905 65.562c-1.927 0-3.372.642-3.372 1.445s1.445 1.446 3.372 1.446c1.927 0 3.372-.643 3.372-1.446 0-.803-1.445-1.445-3.372-1.445Zm0 2.409c-1.606 0-2.89-.482-2.89-1.124 0-.643 1.284-1.124 2.89-1.124s2.89.481 2.89 1.124c0 .642-1.284 1.124-2.89 1.124Zm34.847 21.036c0-1.927-.643-3.372-1.446-3.372-.802 0-1.445 1.445-1.445 3.372 0 1.927.642 3.373 1.445 3.373s1.446-1.606 1.446-3.373Zm-2.57 0c0-1.606.482-2.89 1.124-2.89.643 0 1.124 1.284 1.124 2.89s-.481 2.89-1.124 2.89c-.642 0-1.124-1.444-1.124-2.89Zm41.431-30.35c-1.927 0-3.372.642-3.372 1.445s1.445 1.446 3.372 1.446c1.927 0 3.372-.643 3.372-1.446 0-.803-1.445-1.445-3.372-1.445Zm0 2.57c-1.606 0-2.891-.482-2.891-1.125 0-.642 1.285-1.124 2.891-1.124s2.891.482 2.891 1.124c0 .643-1.285 1.124-2.891 1.124Zm-2.248-7.548c-1.767.803-2.891 2.087-2.409 2.73.321.803 1.927.642 3.694-.16 1.766-.804 2.89-2.088 2.408-2.73-.321-.643-1.927-.643-3.693.16Zm1.124 2.248c-1.445.642-2.891.803-3.051.321-.161-.481.803-1.445 2.248-2.248 1.445-.642 2.891-.803 3.051-.321.161.482-.803 1.606-2.248 2.248Z"/></g><defs><clipPath id="a"><path fill="#fff" d="M13 0h128v128H13z"/></clipPath><filter id="b" width="154" height="157" x="0" y="0" color-interpolation-filters="sRGB" filterUnits="userSpaceOnUse"><feFlood flood-opacity="0" result="BackgroundImageFix"/><feColorMatrix in="SourceAlpha" result="hardAlpha" values="0 0 0 0 0 0 0 0 0 0 0 0 0 0 0 0 0 0 127 0"/><feOffset dy="16"/><feGaussianBlur stdDeviation="6.5"/><feColorMatrix values="0 0 0 0 0 0 0 0 0 0 0 0 0 0 0 0 0 0 0.03 0"/><feBlend in2="BackgroundImageFix" result="effect1_dropShadow_185_68"/><feBlend in="SourceGraphic" in2="effect1_dropShadow_185_68" result="shape"/></filter></defs></svg>