<svg xmlns="http://www.w3.org/2000/svg" width="154" height="157" fill="none"><g filter="url(#a)"><path fill="#fff" d="M13 0h128v128H13z"/><path fill="#0836BF" fill-rule="evenodd" d="M64.132 73.016v3.541a6.125 6.125 0 0 1-.02.531c-.005.043-.01.082-.018.119l-.003.012a.726.726 0 0 1-.073.208l.024-.048-.03.057a.883.883 0 0 1-.311.335l-.022.014a.957.957 0 0 1-.07.037l.029-.015a1.002 1.002 0 0 1-.159.067l-.015.004c-.147.047-.32.07-.517.07a1.385 1.385 0 0 1-.631-.132l-.006-.004a.604.604 0 0 1-.031-.017l-.01-.006a.747.747 0 0 1-.053-.034l-.005-.004c-.259-.186-.391-.503-.391-.95v-.493h.82v.571c0 .097.016.176.046.236l.002.005-.002-.005a.28.28 0 0 0 .013.022l-.011-.017.016.025-.005-.008.014.02-.01-.012c.052.075.135.11.25.11.03 0 .056-.001.08-.005a.217.217 0 0 0 .156-.101c.043-.072.065-.24.065-.502v-3.631h.878Zm21.054 0h.003v3.246c0 .371.045.623.136.756.09.132.252.198.483.198.177 0 .311-.04.405-.118a.499.499 0 0 0 .136-.224 1.39 1.39 0 0 0 .051-.259 3.61 3.61 0 0 0 .015-.365v-3.234h.888v3.325c0 .323-.018.559-.055.708-.036.149-.097.28-.183.392-.129.17-.3.296-.513.38a2.048 2.048 0 0 1-.756.127c-.04 0-.078 0-.115-.002h-.013l-.024-.001c-1.028-.04-1.355-.516-1.355-1.605v-3.325h.897Zm27.831-.116h.057-.057c.036 0 .071 0 .106.002l.009.001a1.287 1.287 0 0 1 .053.003 1.437 1.437 0 0 1 .664.202l.011.007.019.013.002.002c.34.23.52.632.52 1.186 0 .057 0 .115-.007.173h-.852v-.128a2.026 2.026 0 0 0-.006-.166l.002.027a10.048 10.048 0 0 0-.003-.035l.001.008a1.06 1.06 0 0 0-.052-.263l-.006-.016.006.016a1.602 1.602 0 0 0-.012-.03l.006.014a.482.482 0 0 0-.091-.147c-.087-.091-.218-.137-.395-.137a.45.45 0 0 0-.339.127.363.363 0 0 0-.05.063l.01-.015a.207.207 0 0 0-.014.02l.004-.005a.546.546 0 0 0-.073.289l.001.033c.019.187.191.392.517.615l.046.03.493.334c.314.209.538.394.684.614l.015.021a.962.962 0 0 1 .006.01l.011.017.034.06c.093.179.142.382.151.637.002.031.002.064.002.096 0 .438-.125.776-.375 1.013-.25.238-.608.357-1.073.357-.131 0-.253-.01-.367-.028l-.016-.003a1.622 1.622 0 0 1-.173-.038l-.013-.004-.031-.01-.018-.006-.025-.008-.027-.01-.022-.01a.515.515 0 0 1-.025-.01l-.041-.017-.021-.011-.023-.012-.021-.01a.264.264 0 0 1-.02-.012l-.018-.011a1.029 1.029 0 0 1-.219-.175c-.237-.25-.355-.632-.355-1.145 0-.054.004-.144.012-.269v-.019h.898v.309l.002.124c.009.23.046.39.109.482.074.107.202.161.383.161.19 0 .334-.048.433-.144.099-.096.149-.237.149-.425a.66.66 0 0 0-.103-.37c-.06-.09-.18-.202-.36-.336l-.087-.062-.461-.327c-.334-.233-.575-.413-.726-.637l-.029-.044a.968.968 0 0 1-.029-.054c-.089-.167-.132-.364-.132-.623 0-.082.005-.162.015-.237.04-.293.154-.53.345-.713.238-.228.565-.342.982-.344h.009Zm11.493.115.729 1.81.541-1.36.178-.45h.967l-.07.156-1.172 2.619v2.042h-.904V75.79l-1.263-2.774h.994Zm-2.399 0h.001v.795h-1.032v4.022h-.898V73.81h-1.032v-.794h2.961Zm-26.719 0v4.817h-.897v-4.816h.897Zm22.005 0v4.817h-.897v-4.816h.897Zm-27.082 0 1.254 3.366-.025-3.365h.847v4.816h-.917l-.53-1.42-.732-1.952.026 3.372h-.846v-4.816h.923Zm7.815 0 .18.963.537 2.879.647-3.841h.949l-.315 1.495-.696 3.321h-1.18l-1.082-4.816h.96Zm-27.976 0v3.997h1.62v.82h-2.517v-4.816h.897Zm-2.999 0h.001v4.817h-.898v-4.816h.897Zm10.429 0 1.254 3.366-.025-3.365h.848v4.816h-.918l-.593-1.586-.669-1.786.026 3.372h-.846v-4.816h.923Zm30.754 0c.967 0 1.37.366 1.37 1.262 0 .357-.076.63-.223.81l-.008.008a1.317 1.317 0 0 1-.041.045.65.65 0 0 1-.169.121l-.016.008-.012.006a.76.76 0 0 1-.03.012l-.006.002a.77.77 0 0 1-.174.045h.002l.041.012h.001c.574.165.603.475.619 1.01l.003.056-.001.028.002.034.025.641a2.122 2.122 0 0 0 .03.288l.003.015-.003-.015.009.045-.006-.03a.767.767 0 0 0 .211.414H108.9a1.602 1.602 0 0 1-.05-.234 4.513 4.513 0 0 1-.032-.515l-.013-.506v-.128c0-.063-.002-.12-.008-.173a.696.696 0 0 0-.116-.345.432.432 0 0 0-.085-.081c-.111-.077-.301-.12-.569-.13h-.007.007l-.04-.001h.033-.424v2.113h-.866v-4.816h1.608Zm-3.59 0h.001v.802h-1.582v1.113h1.473v.763h-1.473v1.326h1.62v.813h-2.511v-4.816h2.472Zm-30.189 0v4.817h-.897v-4.816h.897Zm33.478.673h-.441v1.364h.516c.236 0 .407-.043.512-.128a.39.39 0 0 0 .063-.068l.004-.005-.004.005.013-.018-.009.013a.718.718 0 0 0 .107-.34 1.93 1.93 0 0 0-.002-.337l-.002-.02.002.02-.004-.035.002.016a.548.548 0 0 0-.124-.294l-.011-.012.011.012a.25.25 0 0 0-.02-.02l.009.008-.02-.019.002.002c-.111-.096-.312-.144-.604-.144Zm-38.263-9.741.001.073v.045c-.002.33-.05 1.255-.516 1.575 0 0-1.121 1.442-.89 1.46l.014.002.024.002c.129.008.56.022.978-.127 0 0 .696.054 1.195-.23 0 0 .302-.018.356.143 0 0-.658 1.194-.069 1.818 0 0 .072.321-.178.321 0 0-1.3.23-1.497.426 0 0-.356.213-1.052-.126 0 0-.552.088-.73.195 0 0-.06.004-.153.005h-.06c-.323-.003-.923-.047-1.178-.328 0 0-.643-.678.372-1.693 0 0 .213-.57.64-.783 0 0 .518.054.75-.25 0 0 .871-1.407.817-1.674h-.056c-.284.001-1.592.073-2.76 1.209 0 0-.48.516-.676.534 0 0-.623.445-.372 1.515 0 0 .59 1.516-.015 2.3 0 0-.873.409-1.213-.252l-.002-.009c-.028-.101-.287-1.019-.624-1.222l-.009-.003-.015-.005c-.117-.047-.623-.29-.387-.937 0 0 .16-.374.516-.73 0 0 .586-1.836.925-2.281.018-.02.229-.21.945.269 0 0 2.002-1.311 2.966-1.334h.045s1.605.074 1.908.092Zm47.461-11.569s.014 2.02.889 1.742c0 0 .398.08.913-1.012 0 0 .261-.108.7.04 0 0 .652.131 1.392-.029a2.796 2.796 0 0 0 1.094-.453s1.653.132 2.446.486c0 0 1.429 1.543 1.42 1.937 0 0-.124.527-.767.537 0 0-.339.006-.481.285 0 0-.541-.337-.731-.502 0 0-.335-.19-.45.21 0 0-.06.684-.98.821h-.003c-.074.005-1.457.108-2.728 1.607l-.029.04-.027.035c-.176.237-.711.975-.778 1.308 0 0 .008.374.38.062 0 0 2.742-1.965 3.571-1.078 0 0 .526.624.31 1.64 0 0-.205 1.695-1.203 3.036l-.004.004c-.058.059-.731.763-.347 1.129 0 0 .022.025.061.065l.033.032c.219.216.78.699 1.214.47 0 0 .003 0 .007-.003l.019-.01c.212-.107 1.658-.834 2.223-.808 0 0 1.288.283 1.621.706 0 0-.308.201-.59.257 0 0-.273.699-.664.727 0 0-1.48.052-2.404.386l.001.005c.019.13.341 2.411-.302 3.412l-.265.305-.049.057s-1.688.407-3.475.66c0 0-.392-1.01-1.075-1.068 0 0-.564-.156-.571-.763 0 0 .474-.391 1.283-.324 0 0 2.599.118 3.176-.852l.002-.005c.032-.068.366-.799-.121-.934 0 0-.609.147-1.248.286l-.128.028-.064.013-.127.027c-.464.097-.893.175-1.059.173 0 0-1.067.076-1.47.462 0 0-.897.726-1.496.072 0 0-.47-.61-.116-.904 0 0 .315-.362.796-.378 0 0 4.377-.545 4.629-1.028 0 0 .296-.379-.247-.483l-.031.001h-.022c-.165-.002-.646-.067-.499-.748 0 0 .386-1.404 1.155-2.174l.008-.017c.126-.25 1.552-3.154.167-3.14 0 0-1.495.606-1.955 1.443l-.07.071-.042.042c-.223.221-.73.697-1.025.773 0 0-.942.586-.934 1.228 0 0 .146 1.33-.561 1.185 0 0-.663-.275-.782-.713h-.002c-.049-.002-.855-.063-.799-1.766 0 0 .073-.237.378-.474 0 0 .461-.8.934-1.597l.079-.133c.394-.662.78-1.293.896-1.427 0 0 .149-.44-.409-.49l-.035.003c-.233 0-1.293-.086-1.404-.918l-.006-.053-.006-.047c-.027-.192-.102-.61-.262-.774 0 0-.408-.99.209-1.892 0 0 .203-.426.128-.724 0 0 .258-.412.709-.087Zm-32.679 1.834s1.265 1.464.758 3.47c0 0-.26.66-.618.738 0 0-.243.34-.393.444 0 0-.214.156-.495.318-.325.188-.718.382-1.098.46 0 0-.322.211-.502.5 0 0-.097.925-.197 1.914l-.016.16c-.101 1.02-.199 2.058-.188 2.18 0 0 .048.293.566-.026 0 0 .91-.513 1.163-.49h.003c.026.002.252-.005.637-.489.02-.024.04-.071.06-.096 0 0 .593-.759 1.2-1.108 0 0 .962-.7.639-1.014 0 0-.207-.028-.648.398 0 0-.373.42-.428.562 0 0-.724-.21-.909-.764l.004-.004c.064-.062.917-.878 1.973-1.058l.004-.001c.034-.007.316-.085.397-.627v-.007c.02-.16.427-3.24 1.477-3.908 0 0 .463.096.575.337l-.003.009c-.03.095-.266.917.358 1.442 0 0 1.21 1.354.772 1.803 0 0-1.275.773-1.594 1.029 0 0-.535.64-.505 3.328 0 0 1.122.084 1.692 1.13l.004.008c.042.085.402.788.692.934 0 0 .78.593.897 1.404l.01.113c-.011.138-.02.298-.053.438 0 0-.033.14-.286.116 0 0-.193.131-.183.244 0 0-.572-.292-.752-.527 0 0-.746-.208-1.058-.91 0 0-.35-.883-1.074-.842 0 0-.321.234-.158 1.314 0 0-.078.417.076.61 0 0 .535 1.435-.025 2.054 0 0-.462-.074-.87-.312l-.001-.006c-.037-.094-.46-1.185-.849-1.653 0 0-.326-.61-.168-1.148 0 0-.467-.142-.975.04-.242.09-.501.249-.703.54 0 0-.58.142-.902.102 0 0 .174-2.182-.413-2.382 0 0-.621-.082-.584.599 0 0-.041.973-.063 1.952l-.003.158c-.017.871-.017 1.705.045 1.814 0 0-.506-.07-.776-.547a1.057 1.057 0 0 1-.154-.466s-.195-1.443-.082-2.228l.05-.21s-.024-.02-.07-.016c-.157.014-.584.074-1.144.693 0 0-.64.74-1.377.394 0 0-.657-1.014-.398-1.698 0 0 .486.094.862-.806 0 0 .75-1.012 1.448-2.082l.077-.12c.064-.098.128-.198.19-.297.578-.94 1.069-1.827.938-2.02 0 0-.594.234-1.072.481-.155.06-.307.141-.391.217 0 0-.566.551-.777.478h-.001l-.01-.002c-.139-.025-1.513-.3-1.077-1.248 0 0 .102-.011.27-.032l.071-.009c.335-.043.873-.118 1.416-.223l.12-.023c.1-.02.201-.041.3-.063.67-.127 1.291-.319 1.39-.487l.005-.033.004-.02c.053-.312.384-1.945 1.79-4.095.061-.074.121-.17.18-.267 0 0 .43-.562.93-.56Zm17.26-3.908s1.009.168 1.019.735c0 0-.426 8.296-.275 8.463 0 0 1.663.123 2.553-1 0 0 .147-.424-.399-.867h.002c.046-.003.74-.047 2.343.435 0 0 1.311.26 1.357.782 0 0-.719.16-1.492.34l-.141.033-.142.033c-.658.154-1.297.31-1.508.379 0 0-.963.353-1.224.565h-.009c-.106.012-1.204.135-1.354.588 0 0-.448 1.676-.232 3.256 0 0 1.178.743 2.319 1.047 0 0 1.147.597 1.669.859l.066.033s.29-.098.994-.132h.008c.08.003.759.061 2.149 1.173 0 0 .499.54.525.787v.016c-.002.087-.055.506-.92.508 0 0-.468.301-.715.327v.032c-.002.146-.029.725-.38.719 0 0-.744-.03-1.188-.207 0 0-1.319.14-1.595-.431 0 0-.212-.746-.972-1.074 0 0-.39-.543-.718-1.125 0 0-.941-1.336-1.194-1.526 0 0-.173.177-.252.536 0 0-.219 2.83-.929 3.13 0 0-.885.613-1.492.076 0 0 .136-.373-.876-.407-.04 0-.625-.037-1.605-1.24l-.001-.003c-.008-.021-.072-.124-.533-.006 0 0-.154-.034-.192-.472 0 0-.068-.177-.466-.076 0 0-.72-.023-.343-.64 0 0 .258-.562 1.224-.807.04.02 1.034.45 2.117-2.923 0 0 .078-.36-.706-.209 0 0-.868.535-1.19.411 0 0-.255-1.158-.426-1.357l.004-.008.011-.021c.05-.093.217-.377.416-.468 0 0 .617.243 2.239-.423 0 0 .34-.087.375-1.343l.046-.323.015-.101c.09-.626.271-1.861.471-3.147l.034-.22.035-.221c.267-1.695.554-3.366.698-3.743 0 0 .161-.61.78-.743ZM81.109 63.705c-.154.06-.389.49-.447.61l-.02.024c-.354.122-.135.286-.135.286-.25.25-.295.527-.295.527.058.406.316.224.523 0 .147-.15.266-.342.266-.342.307-.392.108-1.105.108-1.105ZM68.494 52.981s.357.107.393.677l-.004.039-.005.044c-.029.26-.102 1.053.046 1.201 0 0 .161.268.678-.106 0 0 1.176-.533 1.729-.372 0 0 .57.108-.017 1.016l-.007.008c-.084.083-.84.834-1.026.918 0 0-.337.909-1.086 1.015 0 0-.025.01-.065.03l-.033.016c-.222.114-.718.428-.364.809l.006.006c.063.06.632.556 2.473.692 0 0 .802.198.286.571l-.003.001-.018.007c-.092.034-.458.186-.442.42v.03c-.002.123-.046.58-.57.61 0 0-.446.09-.873.588 0 0-.338.552-2.672 1.494 0 0-.232.196-.374.445 0 0-.16.66-.855.534l.002-.004.006-.012a.4.4 0 0 0 .004-.008l.009-.021c.054-.131.164-.5-.29-.544 0 0-1.087.23-1.55.516l-.025.013-.018.01c-.184.09-.918.37-1.384-.56 0 0-.09-.339-.535-.5 0 0-.518-.232.034-.82l.002-.002c.022-.035.292-.424 1.246-.389 0 0 .446.054 1.087-.194 0 0 .375.339.392-.285 0 0 .004-.069.005-.181v-.066c-.003-.532-.09-1.744-.828-1.787 0 0-1.872-.163-2.3-1.019 0 0-.322-.428.123-.909 0 0 .766-.516 1.48-.337 0 0 1.159.412 1.408-.087 0 0 .479-1.907.335-2.335v-.01c.001-.043.023-.224.321-.24 0 0 .201.01.458.01h.099c.352 0 .77-.02.923-.097 0 0 .106-.57.64-.64 0 0 .785.072 1.16-.195Zm15.775 2.352c-.27.046-.522.296-.743.635-.583.872-.93 2.362-.93 2.362-.16.264-.095.738-.095.738.297.02.826-.437 1.225-.814.293-.3.542-.572.542-.572 1.229-2.252.05-2.346 0-2.35Zm35.263-1.528c-.643.01-1.058.987-1.058.987-.397.458-.251 1.02-.061 1.452.15.365.364.618.364.618.48.416 1.696-1.64 1.769-1.765l.004-.006c.068-.309-.426-.47-.426-.47-.038-.033-.098-.118-.154-.168-.217-.288-.438-.648-.438-.648ZM44.989 62.254h3.113l-.068.264-1.04.194-.814.263-.638.317-.471.347-.291.373-.135.36-.015.346.125.302.233.265.333.18.401.096.484-.013.554-.14.58-.292.623-.44.318-.292.318-.33.057.246-.015.266-.166.498-.732.442-.805.402-.869.33-.942.278-.995.193-1.067.083-1.119-.015-1.192-.137 4.235-4.386Zm-10.972.443.284-.107.588.287.609-.008.066.003.056.012.048.02.043.026.041.035.038.04.086.099.355.396.54.539.511.416.485.305.484.206.456.11.444.016.442-.072.442-.15.458-.222.441-.277.472-.332 2.09-1.757h.98l-4.234 4.332-1.492-.57-.708-.305-.718-.358-.732-.471-.79-.565-.858-.734-.927-.914ZM44.359 57.7l-.417.025-.026-.058-.02-.02-.023-.018-.051-.023-.068-.008-.053.01-.05.018-.04.03-.032.04-.025.049-.018.06-.01.069-.002.08.083-.047.086-.035.09-.022.098-.006.11.013.098.027.085.041.04.026.03.028.032.034.028.036.045.083.033.094.018.11-.013.121-.013.051-.019.053-.02.045-.028.044-.031.038-.036.033-.042.034-.044.026-.104.041-.12.03-.141.011-.086-.003-.083-.01-.078-.016-.07-.023-.064-.027-.06-.034-.052-.042-.05-.044-.04-.053-.039-.056-.031-.065-.025-.07-.018-.075-.015-.083-.01-.088-.003-.092.008-.093.01-.084.015-.08.02-.075.024-.071.03-.063.035-.058.04-.051.046-.048.048-.04.054-.036.058-.03.065-.023.067-.018.075-.014.077-.006.128.008.112.02.1.033.083.045.037.026.036.032.028.033.027.036.044.081.027.094Zm-.605.442.044.006.035.011.033.019.027.021.023.03.015.033.013.036.007.047-.005.048-.012.044-.015.038-.025.029-.028.024-.035.016-.039.01-.047.004-.042-.007-.04-.013-.033-.017-.027-.024-.024-.026-.019-.035-.011-.04-.007-.043.004-.05.01-.04.016-.036.025-.031.028-.022.036-.018.045-.01.048-.004Zm-1.573-.417v.464h-.365l.365-.464Zm-.714.798v-.357l.722-.85h.418v.873h.195v.334h-.195v.324h-.426v-.324h-.714Zm-1.549-.051.418-.025.027.053.02.023.023.017.051.021.066.005.054-.005.048-.017.038-.03.035-.035.027-.048.018-.062.013-.072.005-.08-.086.052-.09.034-.092.02-.096.005-.112-.011-.1-.029-.085-.037-.038-.025-.034-.032-.03-.031-.029-.035-.044-.082-.03-.098-.017-.112.004-.065.008-.058.012-.054.016-.051.023-.048.027-.043.033-.043.035-.033.042-.033.045-.03.052-.023.054-.02.125-.03.146-.013.083.003.08.01.075.017.07.023.062.026.06.037.05.041.05.046.04.053.036.06.033.064.025.073.02.078.015.082.008.09.007.095-.008.091-.01.086-.015.081-.022.074-.023.068-.031.063-.035.056-.038.053-.046.043-.048.041-.055.035-.058.027-.064.024-.07.017-.07.01-.081.005-.128-.009-.114-.02-.099-.032-.086-.042-.036-.025-.035-.031-.03-.03-.024-.035-.043-.077-.027-.091Zm.605-.44-.043-.006-.036-.01-.03-.019-.025-.021-.023-.028-.015-.035-.011-.04-.004-.045.002-.05.01-.041.015-.035.021-.032.03-.021.031-.018.04-.012.046-.005.045.01.04.012.03.018.03.021.024.029.028.066.008.041-.006.05-.008.042-.019.038-.025.03-.03.023-.034.02-.043.012-.048.006Zm-1.266-.74v1.555h-.453v-.892h-.355v-.314l.096-.004.082-.016.073-.026.066-.038.027-.024.025-.024.044-.061.032-.075.021-.08h.342Zm6.45 9.36.486-.15-.007.222-.018.217-.028.215-.04.212-.049.208-.06.205-.07.2-.081.195-.09.19-.1.187-.106.178-.116.177-.124.165-.134.16-.14.16-.148.148-.153.144-.164.135-.168.127-.174.12-.181.112-.187.104-.194.094-.196.088-.204.077-.206.068-.212.058-.215.05-.22.038-.222.026-.224.015-.23.007-.229-.007-.226-.015-.223-.026-.22-.039-.213-.05-.212-.057-.206-.068-.204-.077-.198-.088-.193-.094-.187-.104-.18-.113-.174-.119-.17-.127-.16-.135-.157-.144-.146-.149-.142-.159-.132-.16-.124-.165-.116-.177-.107-.178-.1-.187-.089-.19-.082-.195-.07-.2-.059-.205-.051-.209-.04-.21-.026-.216-.019-.217-.006-.222v-.916l.476.26v.65l.02.396.06.376.1.366.13.35.17.332.199.318.228.294.256.273.283.246.307.223.33.191.348.164.367.13.383.097.397.057.408.02.406-.02.397-.057.382-.096.368-.13.347-.165.329-.191.308-.223.282-.246.258-.273.23-.294.198-.318.167-.332.134-.35.097-.366.06-.376.011-.24Zm.009-3.163.477-.273v2.084l-.477.052V63.49Zm.477-1.37h-.477v-2.407h-3.762l.007 3.633-.504.405v-4.038h-3.71v4.833l-.476-.314v-4.996h8.922v2.884Zm-4.736 4.847.497.093v1.237h-.497v-1.33Zm.19-11.001-.207.003-.205.007-.205.013-.203.019-.202.021-.201.03-.198.033-.197.036-.388.093-.379.105-.375.13-.365.143-.356.16-.345.18-.338.194-.162.102-.164.108-.157.109-.159.112-.152.119-.152.122-.147.126-.144.127-.142.13-.135.134-.138.14-.13.138-.129.147-.124.147-.12.15-.12.154-.114.156-.11.16-.106.162-.104.162-.194.339-.177.345-.161.356-.144.364-.127.372-.11.384-.089.388-.038.197-.031.198-.028.2-.025.202-.018.203-.013.203-.008.207-.004.206.004.207.008.205.013.205.018.203.025.2.028.2.031.199.038.198.09.388.109.38.127.372.144.367.161.353.177.35.194.337.104.162.106.163.11.159.114.157.12.153.12.147.124.146.129.145.13.142.138.137.135.136.142.132.144.126.147.127.152.12.152.118.159.114.157.11.164.108.162.103.338.193.7.339.366.145.375.126.379.109.388.09.197.037.198.033.201.028.202.023.203.019.205.011.205.008.207.004.206-.004.207-.008.205-.011.202-.019.201-.023.2-.028.197-.033.196-.038.389-.09.383-.108.372-.126.364-.145.357-.16.346-.18.336-.192.167-.103.159-.107.161-.111.154-.114.156-.117.149-.121.148-.127.144-.126.14-.132.14-.136.133-.137.132-.142.13-.145.125-.146.119-.147.119-.153.114-.157.109-.16.107-.162.103-.163.193-.337.178-.349.163-.353.145-.367.125-.372.108-.38.09-.388.039-.198.034-.199.027-.2.023-.2.018-.203.014-.205.006-.205.005-.207-.005-.206-.007-.207-.013-.203-.018-.203-.023-.202-.027-.2-.034-.198-.038-.197-.091-.388-.108-.384-.125-.371-.145-.365-.163-.356-.178-.345-.193-.339-.103-.162-.107-.162-.11-.16-.113-.156-.12-.153-.118-.15-.126-.148-.129-.147-.132-.139-.132-.139-.14-.135-.141-.129-.144-.127-.148-.126-.15-.122-.155-.119-.154-.112-.161-.11-.16-.107-.166-.102-.336-.194-.346-.18-.357-.16-.364-.144-.372-.129-.383-.105-.389-.093-.196-.036-.197-.033-.2-.03-.201-.022-.202-.018-.205-.013-.207-.007-.206-.003Zm0-.699-.225.003-.225.008-.223.014-.22.018-.22.028-.216.03-.215.035-.213.042-.212.047-.21.051-.208.056-.206.061-.203.067-.202.072-.398.157-.387.174-.377.195-.183.102-.184.106-.178.112-.175.116-.172.122-.17.124-.165.128-.166.13-.16.137-.157.139-.154.142-.15.149-.145.147-.144.155-.14.154-.136.162-.131.162-.129.168-.122.17-.12.17-.118.18-.11.178-.108.181-.104.182-.194.378-.173.387-.159.397-.07.202-.067.203-.061.205-.056.208-.053.212-.047.213-.04.213-.035.217-.03.216-.025.22-.022.22-.014.221-.009.223-.001.226.01.448.014.224.022.22.025.217.03.217.034.218.041.213.047.212.053.21.056.208.06.207.069.202.07.202.158.395.173.389.194.376.104.185.107.18.11.18.118.176.12.17.123.17.129.166.13.162.138.161.139.156.144.155.145.149.15.149.154.142.157.14.16.136.166.13.165.128.17.125.172.12.175.117.178.11.184.108.183.104.377.193.387.175.398.157.202.071.203.065.206.063.209.057.21.052.211.044.213.043.215.035.217.03.22.026.22.02.222.015.225.008.225.003.223-.003.225-.008.221-.015.22-.02.22-.026.22-.03.214-.035.214-.043.212-.044.21-.052.207-.057.207-.063.205-.065.201-.07.397-.158.385-.175.377-.193.185-.104.182-.108.177-.11.176-.116.174-.12.168-.126.167-.128.164-.13.16-.136.159-.14.152-.142.15-.15.146-.148.143-.155.141-.156.134-.161.132-.162.127-.166.126-.17.12-.17.114-.175.113-.18.107-.18.103-.186.193-.376.177-.389.155-.395.071-.202.068-.203.061-.206.058-.208.05-.21.048-.212.04-.213.036-.218.031-.217.025-.218.018-.22.015-.223.008-.223.003-.225-.003-.226-.008-.223-.015-.221-.018-.22-.025-.22-.031-.216-.037-.217-.04-.213-.047-.213-.05-.212-.058-.208-.061-.205-.068-.203-.07-.202-.156-.397-.177-.387-.193-.378-.103-.182-.107-.181-.113-.179-.114-.178-.12-.17-.126-.17-.127-.169-.132-.162-.134-.162-.14-.154-.144-.155-.146-.147-.15-.149-.152-.142-.159-.139-.16-.137-.164-.13-.167-.128-.168-.124-.174-.122-.176-.116-.177-.112-.182-.106-.185-.102-.377-.195-.385-.174-.397-.157-.201-.072-.205-.067-.207-.06-.206-.057-.21-.051-.213-.047-.214-.042-.215-.035-.22-.03-.22-.028-.219-.018-.221-.014-.225-.008-.223-.003Zm0-4.83-.35.005-.348.013-.343.023-.344.031-.34.036-.336.05-.336.055-.333.064-.33.073-.325.077-.322.09-.319.096-.317.104-.313.109-.31.117-.306.127-.302.133-.3.14-.294.146-.29.153-.286.16-.281.166-.28.175-.272.18-.266.187-.266.19-.258.2-.255.203-.249.212-.243.216-.24.223-.233.228-.225.233-.223.237-.218.246-.21.248-.205.254-.196.26-.194.262-.186.268-.18.274-.174.278-.165.28-.162.287-.152.29-.149.295-.14.297-.131.303-.127.306-.117.309-.111.313-.103.316-.096.32-.086.323-.08.327-.073.329-.065.33-.056.338-.086.677-.03.342-.021.344-.015.349-.005.348.005.35.015.344.021.348.03.342.04.339.046.339.056.335.065.332.073.329.08.324.086.323.096.321.103.317.11.313.118.31.127.303.13.302.141.296.149.294.152.293.162.286.165.282.174.276.18.275.186.267.194.265.196.26.205.252.21.248.219.244.222.24.225.231.233.228.24.224.243.216.25.21.254.205.258.198.266.194.266.183.273.182.279.173.28.166.286.161.291.154.294.147.3.14.302.133.306.126.31.117.313.11.317.105.32.094.321.087.326.081.329.072.333.064.336.054.336.048.34.04.344.032.343.021.348.014.35.004.348-.004.348-.014.345-.021.34-.032.34-.04.34-.047.334-.055.332-.065.328-.07.328-.082.324-.087.32-.094.316-.104.314-.111.309-.117.306-.126.302-.134.3-.139.291-.147.292-.154.285-.161.283-.166.276-.173.273-.182.27-.183.262-.194.26-.198.254-.205.25-.21.242-.216.236-.224.235-.228.228-.23.22-.24.217-.245.21-.248.204-.253.2-.26.194-.264.186-.267.179-.275.174-.276.168-.282.158-.286.156-.293.144-.294.14-.296.134-.302.124-.302.119-.311.11-.313.103-.317.096-.32.087-.324.082-.324.07-.33.063-.331.058-.335.046-.34.04-.338.032-.342.02-.347.012-.346.006-.349-.006-.348-.013-.349-.02-.344-.03-.342-.04-.34-.047-.337-.058-.337-.062-.331-.071-.329-.081-.327-.088-.322-.096-.32-.102-.317-.111-.313-.12-.31-.123-.305-.134-.303-.14-.297-.144-.294-.156-.291-.158-.288-.168-.279-.174-.278-.179-.274-.186-.268-.194-.262-.2-.26-.203-.254-.212-.248-.216-.246-.22-.237-.228-.233-.234-.228-.237-.223-.243-.216-.25-.212-.252-.203-.261-.2-.261-.19-.271-.187-.273-.18-.276-.175-.283-.166-.285-.16-.292-.153-.292-.146-.3-.14-.301-.133-.306-.127-.31-.117-.313-.11-.316-.103-.32-.096-.324-.09-.328-.077-.328-.073-.332-.064-.335-.055-.338-.05-.34-.036-.34-.031-.346-.023-.348-.014-.348-.005Zm0-1.08-.379.005-.375.015-.372.023-.37.034-.365.042-.365.05-.36.061-.36.07-.354.076-.354.085-.349.098-.343.103-.344.109-.339.12-.332.13-.33.135-.328.14-.322.154-.319.155-.312.169-.31.172-.303.18-.301.188-.293.193-.289.202-.288.208-.279.215-.272.22-.27.226-.262.235-.259.24-.25.244-.247.253-.24.256-.232.264-.228.268-.222.276-.215.28-.206.284-.202.289-.195.294-.187.3-.178.305-.175.309-.165.314-.16.317-.15.32-.143.327-.134.331-.128.334-.12.339-.113.34-.102.346-.094.349-.086.353-.078.355-.07.357-.059.362-.092.732-.035.37-.025.371-.013.377-.005.376.005.377.013.375.025.37.035.372.04.367.052.364.06.362.07.358.077.356.086.352.094.347.102.347.113.342.12.337.128.33.134.333.143.325.15.322.16.32.165.312.175.309.178.304.187.3.195.295.202.289.206.284.215.281.222.275.228.265.233.265.24.256.247.255.25.244.258.238.262.236.27.227.272.221.28.215.287.207.29.201.292.195.3.187.304.18.31.174.312.165.32.157.321.152.327.144.33.135.333.128.339.118.344.113.343.102.349.095.354.087.353.078.36.068.36.06.366.052.365.041.37.033.372.025.375.012.379.005.375-.005.375-.012.374-.025.368-.033.369-.041.363-.051.364-.061.355-.068.359-.078.35-.087.349-.095.347-.102.34-.112.337-.12.336-.127.33-.135.326-.144.322-.152.318-.157.313-.165.31-.174.304-.18.299-.187.294-.195.292-.201.283-.207.28-.215.273-.221.268-.227.263-.236.258-.238.251-.244.246-.255.242-.256.23-.265.229-.266.22-.274.215-.28.208-.285.201-.29.194-.294.188-.3.182-.304.17-.31.167-.312.157-.319.152-.322.142-.325.137-.332.126-.331.12-.337.111-.342.103-.347.096-.347.086-.352.079-.356.067-.358.06-.362.051-.364.045-.367.031-.371.024-.37.014-.376.007-.377-.007-.376-.014-.377-.024-.37-.03-.37-.046-.367-.05-.366-.06-.362-.068-.357-.08-.355-.085-.353-.096-.35-.102-.345-.111-.34-.121-.339-.126-.334-.137-.331-.142-.326-.152-.32-.157-.318-.167-.314-.17-.31-.182-.303-.188-.301-.194-.294-.201-.29-.209-.284-.214-.279-.22-.276-.228-.268-.231-.264-.242-.256-.246-.253-.251-.244-.258-.24-.263-.235-.267-.226-.275-.22-.279-.215-.283-.208-.292-.202-.294-.193-.3-.188-.303-.18-.31-.172-.313-.169-.318-.155-.322-.154-.325-.14-.331-.136-.336-.129-.337-.12-.34-.11-.347-.102-.35-.098-.35-.085-.358-.076-.355-.07-.364-.061-.363-.05-.369-.042-.368-.034-.374-.023-.375-.015-.375-.005Zm-.24 2.608.028.686.205-.008.056-.004.05-.014.04-.023.033-.037.026-.05.018-.056.007-.07v-.08l-.007-.08-.013-.07-.021-.062-.027-.048-.03-.04-.036-.027-.043-.018-.048-.007-.238.008Zm.212 1.461-.152.007.05 1.22-.508.02-.144-3.508.737-.028.086-.003.081.003.076.013.07.02.064.031.058.04.054.047.048.056.043.064.037.073.033.082.026.09.02.1.017.106.01.116.005.124v.169l-.007.148-.017.136-.025.117-.03.1-.042.084-.025.034-.023.03-.03.028-.03.023.035.018.036.024.03.026.028.035.051.084.043.104.037.126.025.147.016.168.008.19-.001.152.008.22.017.152.011.048.013.03.013.012.015-.007.006.116-.518.02-.013-.08-.013-.129-.025-.4-.004-.157-.013-.13-.023-.11-.031-.089-.022-.031-.023-.03-.025-.025-.026-.016-.031-.01-.034-.005h-.033l-.04.005ZM43.726 73.5l-.003.011-.005.014-.004.011-.003.012-.004.01-.003.011-.001.01-.002.012v.011l-.002.012v.011l.002.012v.011l.002.012.001.014.003.01.004.012.003.016.004.014.005.015.008.03.013.033.013.034.017.04.038.088.117.345.02.042.05.089.204.486.04.19-.147.155-.013.008-.014.008-.014.007-.013.007-.016.007-.014.006-.032.012-.014.006-.015.007-.015.007-.014.01-.013.008-.015.01-.006.004-.007.005-.005.005-.007.007.007.013.007.013.011.025.014.03.006.012.008.013.004.007.003.004.003.005.005.005.01.01.005.003.014.007.006.003.006.004.009.001.006.002h.01l.01.002h.009l.003.003.002.002.001.003.002.003v.027l.001.003.002.002.002.003.026.028.012-.002.01-.001.01-.004.01-.003.011-.005.008-.005.01-.005.007-.005.018-.013.017-.012.008-.005.01-.005.01-.003.01-.006.115-.136.007.003.01.007.003.003.005.004.003.005.002.005.003.008.005.01.004.011.005.012.001.005.004.005.067.236.004.023.003.027.003.026.003.028.004.03.005.033.005.036.006.04-.014.015-.019.018-.053.041-.056.056-.031.029-.028.026-.014.017-.014.013-.01.015-.012.013-.011.013-.012.013-.008.012-.009.012-.006.013-.005.01-.002.006-.001.003v.005l-.002.006v.003l.002.005v.003l.001.004.002.003.002.003.003.003.003.002.085.03.289-.023.013.003.268.043.153.053.174-.032.008-.003.01-.002.01-.003.008-.005.008-.003.009-.005.008-.005.008-.007.017-.01.026-.02.008-.004.007-.004.002-.013.001-.013.004-.014.003-.01.005-.016.003-.013.005-.01.007-.011-.058-.263-.152-.369-.003-.003-.002-.004-.002-.001-.001-.003v-.007l.001-.007.002-.003.002-.003.002-.002v-.003l.004-.002h.007l.016.005.014.005.024.012.014.005.011.004.007.002.013.004h.007l.153.029.007.01.008.007.007.006.006.006.008.003.007.003.007.002.008.001.015.004.008.001.007.002.008.003.007.004.006.004.009.007.253.114.004-.003.005-.004.004-.001.005-.002.003-.002.005-.001h.003l.003.001h.004l.002.002.006.003.007.006.006.004.009.005.006.005.007.005.005.002.003.001h.004l.004.002h.015l.005-.002.005-.001.005-.003.015.011.005.004.003.003.002.006.003.005.004.012.005.011.001.007.003.005.002.005.003.005.006.005.004.003.005.004.007.003.026-.013.025-.014.055-.026.03-.016.028-.014.014-.008.015-.01.015-.008.018-.01.015-.012.015-.01.016-.011.017-.015.017-.013.016-.012.017-.016.018-.015.015-.017.016-.018.017-.021.018-.019.018-.021.018-.021.015-.025.018-.023-.03.003-.01.001h-.02v-.001l-.004-.002v-.008l.003-.007.003-.008.005-.02.004-.011.003-.014-.015.005-.01.004h-.002l.002-.002.007-.005.013-.007.03-.02.043-.022.051-.029.053-.03.051-.03-.051-.042-.018-.008-.022-.008-.023-.01-.031-.012-.033-.015-.019-.005-.016-.006-.04-.01-.021-.005-.02-.005-.02-.005-.021-.005-.025-.004-.023-.003-.023-.003-.022-.002h-.074l-.023.002-.023.003-.027.004h-.013l-.012.004-.013.004-.01.003-.013.003-.012.004-.015.005-.011.005-.022.011-.018.013-.016.015-.015.014-.031.024-.029.023-.013.01-.013.012-.015.011-.016.01-.015.01-.017.01-.018.01-.018.01-.642.078-.004-.009-.01-.006-.007-.008-.007-.01-.005-.009-.006-.008-.005-.008-.01-.018-.068-.121-.005-.018-.008-.02-.007-.018-.01-.015-.008-.017-.008-.016-.018-.037-.018-.03-.022-.032-.008-.018-.008-.017-.01-.018-.007-.017-.002-.001v-.004l-.001-.001v-.002l.001-.005v-.005l.004-.005.003-.005.005-.01.007-.008.003-.005.003-.01v-.013l-.001-.002-.004-.005-.003-.005-.007-.008-.006-.008-.009-.01-.001-.005-.003-.005-.004-.007-.001-.005v-.02l.001-.006.041-.046.04-.046.035-.045.036-.041.037-.043.031-.04.035-.04.035-.04.014-.017.018-.019.017-.018.018-.018.02-.02.018-.018.018-.015.019-.018.02-.017.02-.016.022-.018.02-.017.022-.015.023-.017.048-.03.135-.067-.006-.012-.005-.011-.01-.022-.008-.02-.007-.016-.005-.008-.005-.008-.005-.009-.005-.008-.007-.006-.008-.007-.008-.007-.008-.008-.027.018-.023.017-.025.016-.025.013-.024.014-.024.015-.022.011-.027.012-.026.011-.029.01-.026.01-.033.008-.033.009-.033.006-.038.008-.041.01-.186.027-.02.021.151.15-.14.196-.121.132-.028-.043-.03-.043-.026-.045-.024-.04-.024-.04-.027-.042-.023-.041-.023-.041-.02-.04-.023-.04-.022-.04-.02-.04-.02-.042-.017-.038-.022-.042-.018-.039-.005-.008-.054-.086-.01-.013-.009-.015-.01-.015-.008-.017-.006-.015-.009-.018-.015-.03-.014-.031-.007-.015-.007-.017-.008-.016-.01-.011-.011-.015-.012-.014v-.006l-.002-.005-.003-.005-.002-.007-.006-.014-.009-.019-.01-.02-.011-.026-.006-.015-.005-.018-.007-.018-.007-.024-.006-.06-.005-.095-.02-.013-.017-.012-.006-.006-.009-.004-.008-.004-.006-.004-.009-.003-.006-.003-.007-.002-.008-.002h-.008l-.012-.001-.008-.002h-.01l-.025.013-.023.017-.01.008-.011.007-.012.008-.012.008-.01.01-.01.008-.008.008-.008.01-.007.01-.006.009-.005.01-.005.013Zm5.058-2.396-.003.01-.002.01-.001.008v.02l.001.006.002.005.002.007.001.005.002.005.002.003.006.01.007.006.013.017.007.01.006.008.002.005.003.005.002.007.002.004.001.007v.007l.002.006v.009l.001.005v.006l.002.005v.008l-.002.015v.024l.002.006v.007l.002.008.002.007.005.008.01.013.003.013v.037l-.002.011v.01l-.003.02-.002.01v.026l.002.007.001.005.002.005.002.005.001.005.004.005.003.006.003.005.015.025-.06.076-.01-.005-.01-.005-.017-.01-.017-.011-.018-.013-.018-.012-.017-.012-.016-.013-.015-.013-.03-.026-.033-.03-.017-.012-.016-.013-.018-.011-.015-.012-.009-.007-.001-.003v-.008l.001-.005.002-.004.004-.005.003-.003.007-.007.006-.006.002-.004v-.003l.001-.001v-.002l-.001-.002v-.003l-.004-.003-.12-.204.24-.15.01.003.01.007.01.005.012.007.01.008.012.007.018.013.008.005Zm-.733.428.04.104.016.025.226.175.032.011.005.002h.006l.028-.004.015-.001.015-.002.016-.001h.027l.127-.025.096.002.036-.03.023.003.106.083.01.02-.003.008-.003.008-.002.008v.007l-.002.008.002.01v.008l.002.009.003.033v.023l-.002.006.075.062.072.312-.086.073.009.147.031.015.028.013.03.015.015.008.015.007.016.004.015.007.015.005.015.005.016.005.015.005.018.003.015.004.015.003.017.003.016.002.017.002.016.001h.051l.017-.001.017-.002.018-.002.018-.003.018-.003.017-.005.016-.005.018-.005.118-.126-.007-.008-.008-.012-.008-.008-.01-.007-.009-.008-.01-.008-.016-.015-.004-.002-.001-.001-.002-.003-.001-.002-.002-.005v-.005l-.002-.008v-.01l-.002-.002v-.003l-.001-.002-.003-.002-.002-.005-.003-.001-.004-.002-.005-.003-.005-.002-.005-.001-.013-.004-.015-.005-.023-.007-.003-.004-.003-.005-.002-.005-.003-.013v-.007l-.002-.007v-.006l-.002-.008.002-.017.002-.018.001-.017.002-.02.005-.02.005-.02.005-.023.012-.044.013-.046.005-.025.006-.025.005-.025.007-.024.003-.027.007-.023.003-.027.002-.024.001-.027v-.034l-.003-.025v-.012l-.003-.015-.003-.011-.004-.01-.002-.011-.003-.012-.005-.01-.01-.023.068-.179.023-.139.012.002.01.002h.034l.007-.002.007-.002.005-.001.006-.004.014-.005.014-.008.018-.007.005.006.005.006.009.005.006.005.013.009.012.008.008.003.007.005.005.005.007.006.004.006.005.006.004.008.001.004.002.005.165.285.003.136.002.013.076.218.002.002.002.002.001.006.004.007v.034l-.002.002-.003.02.052.116.009.007.003.004.003.004.005.003.007.003.003.002.007.001h.011l.007-.001.008-.002.007-.001.015-.005.008-.004.007-.004.008-.002.008-.002h.012l.003.002.159-.017-.389.706-.158.228.001.021.003.029v.014l.002.017v.015l-.002.011.007.002.007.002.006.001.007.002h.025l.011-.002.012-.001.013-.004.012-.003.02-.005.01-.002.011-.001h.036l.007.001h.007l.026-.001.096-.121.001-.003v-.002l.002-.002v-.006l-.002-.003-.001-.004-.007-.007-.003-.004-.008-.007-.005-.005-.008-.008-.004-.003-.001-.005-.002-.007.1-.19.346-.47.038-.024.027.02.026.018.021.015.019.014.016.015.015.012.013.012.013.01.01.01.009.008.011.015.014.013.011.014.004.027-.015.021-.015.02-.014.02-.015.022-.032.04-.032.037-.03.041-.035.04-.064.078-.035.04-.032.04-.032.039-.033.038-.031.041-.015.022-.014.02-.015.02-.014.02-.015.023-.013.02.003.01.003.006.005.005.005.006.01.01.007.005.005.005.004.005.007.003.007.005.005.002.006.003.007.004.008.001.009.002.18-.14.011.003.01.003.01.005.01.007.008.005.008.006.009.007.008.006.013.014.014.013.008.007.008.006.008.007.01.005.007.005.003-.004.003-.001.002-.004.003-.001.004-.002.003-.002.008-.001.007-.002.006-.001h.032l.006-.002h.005l.007-.004.002-.001.003-.002.002-.003.003-.002.127-.19.146-.241.026-.222-.071-.129-.008-.011-.008-.01-.019-.023-.008-.01-.01-.011-.011-.01-.009-.01-.021-.023-.023-.017-.023-.02-.025-.018-.02-.016-.027-.019-.024-.018-.027-.015-.05-.031-.049-.033.003-.005.004-.007.001-.005.002-.006.002-.005.003-.003.002-.007.005-.005.008-.007.008-.008.008-.007.025-.025.015-.016.011-.018.014-.017.013-.018.013-.018.026-.04.014-.018.011-.017.012-.017.015-.017.015-.017.006-.006.009-.01.129-.124.038-.07-.002-.006v-.008l-.002-.007v-.013l.002-.007v-.007l.002-.008.006-.026.007-.013.005-.014.006-.013.009-.013.008-.01.008-.013.037-.046.004-.024-.004-.006-.004-.007-.003-.005-.003-.005-.005-.005-.004-.005-.005-.004-.006-.006-.005-.003-.005-.005-.01-.007-.012-.006-.013-.006h-.003l-.004-.002h-.016l-.005.003-.005.002-.01.005-.01.006-.008.002-.005.002h-.013l-.004-.002h-.003l-.005-.002-.003-.002-.005.002-.005.002-.008.005-.008.006-.005.007-.007.007-.007.008-.005.008-.005.007-.013.018-.01.016-.005.009-.006.006-.007.009-.007.005-.02.01-.003-.004-.005-.002-.003-.003-.003-.001-.004-.002-.003-.001h-.006l-.009-.002-.01.002h-.006l-.009.003-.014.003-.008.001-.009.002-.008.002h-.017l-.005-.002-.003-.002-.008-.004-.005.011-.007.01-.008.012-.007.008-.006.008-.008.012-.015.016-.017.018-.006.009-.007.01-.007.01-.006.01-.007.01-.005.01-.013.017-.071.24-.096.164-.018.001H50.4l-.017.002-.015.003-.016.002-.014.003-.013.005-.013.003-.017.006-.013.006-.013.005-.012.007-.013.008-.013.008-.012.008-.013.01-.005-.001h-.008l-.005-.002-.005-.002-.003-.003-.005-.002-.004-.003-.003-.003-.003-.004-.003-.003-.005-.006-.012-.019-.076-.216.003-.008.002-.007.002-.01.001-.007v-.02l-.001-.008-.002-.013-.003-.015-.004-.011-.005-.013-.003-.015-.003-.012-.004-.011-.001-.007v-.03l.002-.007.001-.006.007-.013-.061-.147-.066-.185-.004-.025-.011-.008-.013-.01-.012-.01-.015-.01-.023-.02-.021-.022-.012-.01-.012-.008-.011-.01-.014-.008-.014-.008-.014-.008-.014-.007-.009-.003-.006-.004-.007-.001-.007-.002h-.011l-.015.002h-.017l-.016.002h-.023l-.009-.002-.006-.002-.007-.003-.13.092-.162.472-.007.006-.007.005-.004.006-.004.007-.01.018-.01.015-.005.009-.006.006-.005.007-.007.006-.006.007-.007.005-.008.005-.01.005-.015-.012-.008-.015-.014-.03-.006-.018-.006-.016-.015-.033-.005-.019-.005-.018-.005-.02-.004-.017-.005-.019-.006-.04-.004-.018-.001-.023-.002-.018-.003-.021v-.02l-.002-.022-.001-.021v-.063l.001-.022v-.021l.002-.02.001-.021.002-.022.003-.023.002-.02.003-.02.2-.256-.001-.008-.002-.008-.002-.008v-.022l.002-.015v-.016l-.002-.007-.001-.008-.002-.004-.002-.003-.001-.003-.004-.005-.003-.004-.002-.002-.008-.009-.008-.018.122-.159.122-.01.15-.338v-.007l-.002-.005v-.007l-.002-.006v-.014l-.002-.013v-.023l-.003-.005v-.005l-.002-.006-.001-.004-.004-.007-.005-.006-.003-.005-.005-.005-.006-.005-.006-.005-.01-.008-.013-.008-.011-.008-.005-.004-.005-.005-.005-.005-.005-.007-.426.034-.123.063-.17.062-.005.003-.005.004-.008.008-.01.008-.008.012-.007.01-.007.01-.01.02-.008.01-.006.01-.007.01-.006.008-.007.008-.01.008-.01.01-.005.003-.008.004-.005.006-.002.004-.001.003v.008l.001.003.002.004.002.005.003.003.007.004.006.006.004.002.003.003.001.003.002.002v.008l-.002.003v.002l-.003.002-.031.041-.032.04-.013.018-.011.018-.015.021-.012.019-.015.02-.011.018-.012.018-.01.02-.01.02-.016.04-.005.017-.06.057-.01.004-.01.007-.008.005-.008.005-.005.005-.007.007-.013.01-.011.008-.009.01-.008.011-.007.009-.066.178.002.005.002.003.002.007.001.003.001.004.002.003.004.003.003.003.003.005.007.004.015.006.006.005.005.004.007.005.003.001.002.003.001.002.004.007.001.005.002.003v.011l-.002.01-.003.01-.003.012-.004.01-.005.008-.004.009-.007.008-.007.008-.006.008-.007.007-.006.008-.009.007-.008.005-.01.006-.02.015-.187-.147-.04-.03-.009.012-.01.01-.017.021-.008.009-.008.01-.003.005-.004.006-.001.005-.002.007-.003.004v.006l-.003.005v.018l.003.011.002.012.003.01.006.026.003.012.004.025v.004l.002.007-.002.005v.007l-.002.005v.005l-.003.006-.002.003-.003.005-.003.005.015.014ZM37.63 75.17h-.005l-.005-.002h-.005l-.005-.003-.003-.002-.003-.004-.004-.003-.001-.003-.002-.005-.003-.003-.002-.007v-.013l.002-.004.003-.002.002-.005.001-.004.002-.003.003-.005.002-.003.003-.002.004-.003.003-.002.005-.002.003-.001h.007l.005.001.005.002.005.003.005.004.005-.002.003-.002.003-.001.003-.002v-.003l.002-.004v-.005l.002-.005v-.003l.001-.001.002-.002.004-.004.004-.001h.005l.022-.002.003.003.003.005.002.004.001.005.002.005v.003l.002.003v.022l-.004.008-.001.007-.005.006-.003.008-.007.01-.013.014-.008.006-.007.007-.008.007-.035-.015Zm1.322-1.273.002.003.002.005.001.004.002.003.002.005.001.005v.008l.002.012-.002.01-.002.01-.005.015-.003.003-.002.003-.003.005-.003.004-.003.003-.005.005-.004.003-.005.001-.005.005-.005.002-.005.002h-.004l-.005.001h-.007l-.005-.001-.2.135-.012.007-.011.005-.008.003-.012.004-.01.001-.012.002-.018.005-.01.001-.01.004-.008.003-.01.003-.008.004-.008.004-.008.007-.01.01-.017.015-.084-.036v-.02l.002-.01.001-.008.003-.01.004-.009.005-.008.003-.008.008-.018.01-.015.003-.008.004-.009.003-.01.002-.008.165-.192.094-.08.085-.083.114-.051.004.003.004.003.003.004.002.003.003.003.002.003v.004l.002.003.001.007v.04l.002.008.001.005.002.003.002.003.001.003.002.004.002.003.003.003.005.002.005.003.005.002-.004.008-.036.134Zm-.003-.482-.004.006-.003.005-.006.005-.005.005-.005.005-.007.005-.011.008-.014.01-.006.004-.005.004-.007.005-.005.007-.005.005-.003.01-.21.16-.134.144-.094.08-.005.003-.002.004-.003.005-.002.005-.003.012-.001.01-.004.01-.005.015-.003.005-.002.003-.003.005-.223.215-.007.003-.005.003-.006.004-.005.001-.012.004-.013.003-.015.003-.011.005-.007.002-.005.003-.007.004-.005.004-.25-.047-.308-.053-.005.013-.007.011-.013.022-.005.01-.005.011-.002.007-.001.005-.002.007-.002.006.106.177.101.044.008-.004.007-.005.01-.004.008-.003.015-.005.015-.005.016-.005.018-.005.02-.008.012-.004.01-.004.139-.01.006.003.008.002.009.003.008.003.007.004.003.003.005.002.002.003.003.003.005.004.002.003.001.005.002.005v.006l.002.007-.002.003v.005l-.002.005v.004l-.003.003-.002.005-.005.003-.003.004-.002.003-.005.003-.007.005-.01.006-.01.006-.009.003-.01.005-.018.01-.01.004-.01.004-.028.02-.026.021-.047.037-.046.034-.038.035-.038.031-.035.029-.062.056-.032.028-.032.025-.03.026-.035.026-.019.014-.018.013-.016.013-.024.012-.02.016-.023.014-.023.014-.021.014-.015-.002-.013-.002h-.012l-.011-.001-.012.001h-.01l-.01.002-.01.002-.01.003-.01.002-.01.003-.01.003-.018.007-.018.006-.003.008-.002.007-.003.005-.002.007-.003.005-.005.013-.006.01-.004.005-.001.005-.004.006-.001.007-.002.005v.015l.002.008-.025.17v.007l-.002.005-.001.005-.004.005-.005.011-.006.01-.005.009-.007.011-.002.005-.001.007-.002.005-.002.006-.003.005-.003.007-.002.006-.003.005v.01l.002.002v.005l.003.003.001.003.005.004.012.008.01.005.012.008.011.007.014.005.01.008.022.01.043.02.022.01.01.005.01.005.008-.007.008-.007.017-.011.013-.012.013-.011.014-.013.016-.012.008-.005.008-.005.007-.005.01-.007.008-.004.007-.007.006-.005.009-.005.006-.005.009-.003.008-.005.01-.004.008-.003.01-.003.008-.002.007-.003.01-.002.008-.001h.01l.01-.002h.01l.008-.002h.011l.01.002h.01l.01.002.008.001.01.002.012.002.01.001.01.004.01.001.01.003.011.005.01.004.01.005-.017.028-.017.026-.032.06-.015.03-.013.028-.012.028-.011.028-.012.026-.012.028-.02.052-.016.047-.016.044-.003.016-.005.013-.002.015-.002.015-.002.011-.001.014v.01l.001.011v.008l.004.01v.009l.003.005.004.008.004.007.004.006.005.007.006.005.007.003.005.005.008.003.007.004.008.003.008.003.01.002.018.005.017.003.02.003.021.004.017-.033.02-.037.014-.03.017-.034.017-.037.016-.031.015-.035.016-.036.015-.031.012-.035.013-.037.013-.032.027-.073.015-.035.011-.036.007-.018.04-.118.011-.006.012-.009.01-.006.02-.01.008-.004.008-.003.008-.001.003-.002.007-.002h.016l.005.002.004.002.005.001.003.002.003.001.007.005.007.007.006.005.007.007.007.005h.003l.005.001.006.004.022.02.005.013-.007.024-.008.023-.005.022-.008.023-.009.022-.008.023-.01.02-.01.02-.02.044-.021.045-.02.048-.024.05.455-.002.006.001h.004l.005.002.007.002.008.003.01.005.02.008.008.005.01.005.002.01v.018l-.002.008-.002.01-.003.009-.003.008-.004.008-.003.006-.005.007-.03.05-.008.015-.003.008-.003.006-.004.009-.001.008-.002.008-.001.005v.008l.001.009.002.011.003.009.003.008.005.008.007.01.007.008-.004.007-.003.007v.011l.002.002.001.003.004.004.004.003.009.006.011.009.005.003.005.005.005.003.003.005-.003.008-.002.01-.003.009-.002.008-.003.006-.008.017-.007.015-.016.031-.008.017-.007.014.005.009.005.008.005.007.003.007.002.006.003.007.002.008v.031l-.002.008-.003.019-.003.018v.01l.001.005.002.006.005.012.006.013.004.007.001.006.002.007.003.008.002.009v.018l-.005.008.086.038.013-.011.013-.014.007-.005.005-.003.006-.005h.007l.004-.004.006-.003.007-.001.006-.002h.027l.005-.008.005-.008.005-.009.008-.008.012-.015.011-.017.005-.01.003-.008.005-.01.005-.008.005-.011.003-.012.004-.013.001-.014.004-.013.001-.008v-.025l-.001-.013-.002-.018-.002-.017-.003-.018-.005-.02.02-.052.02-.057.02-.053.011-.026.01-.028.008-.025.024-.053.013-.028.011-.023.015-.027.017-.024.016-.027.035.007.012.008.008.01.014.007.006.001.006.002.003.002h.002l.002.001.003.004.002.003.002.006.003.022.006.033.037.217.034.109.1.07.023.019h.003l.002.002.001.001.002.002.002.005.001.006.002.007v.038l.002.005.003.01.002.002v.001l.001.002.003.001.009.002.008.003.008.002.008.003.015.007.016.008.018.007.008.005.008.003.007.002.016.003.01.002.008.003.004-.008.01-.013.008-.012.01-.01.02-.04.005-.013.004-.015.008-.03.01-.024.006-.013.006-.014.005-.013.008-.011-.006-.015.02-.02-.009-.007-.008-.008-.007-.007-.005-.006-.003-.007-.005-.005-.001-.006-.004-.007-.005-.012-.006-.014-.002-.009-.005-.008-.005-.007-.006-.008v-.025l-.002-.011-.003-.01-.004-.01-.003-.01-.003-.012-.005-.008-.005-.006-.005-.009-.012-.018-.01-.018-.013-.021-.007-.025-.003-.013-.006-.02-.004-.008-.003-.012-.007-.037-.011-.03-.01-.026-.012-.026-.008-.025-.01-.023-.011-.023-.007-.013-.007-.014-.008-.014-.008-.017-.205-.116.026-.056.025-.06.03-.057.013-.032.014-.028.014-.03.015-.028.017-.03.018-.03.018-.029.016-.031.019-.028.02-.032.05-.043.002-.003.002-.003.004-.004.001-.001v-.002l.003-.003.004-.002.008-.003.013-.003h.051l.009-.002.005-.003.011.003.008.002.01.001.008.002h.01l.009.002h.02l.023-.002h.056l.041-.002.136-.023.05-.071.057-.135.004-.009-.016-.127-.011-.022-.01-.016-.02-.037-.008-.02-.007-.019-.008-.025-.007-.021-.004-.007-.004-.008-.003-.007-.002-.006-.002-.009v-.024l.002-.007.002-.009.002-.006.003-.008.002-.008.003-.009.007-.016.008-.017.008-.016.02-.033.008-.015.008-.017.007-.016.002-.007.001-.008.027-.08-.017-.014-.011-.014-.005-.005-.007-.006L39.78 74l-.006-.003-.007-.003-.01-.003-.008-.002-.01-.002-.012-.001-.013-.002-.031-.002.001-.003v-.015l-.001-.006-.002-.01-.004-.01-.018-.056-.13.096-.251.423-.232.282-.044.03-.033.006-.124-.014-.098-.013-.072-.012-.055-.008-.02-.004-.018-.003-.013-.004-.012-.003-.01-.003-.01-.003-.02-.009-.001.009v.006l-.002.005v.023l.002.005.002.005v.004l.004.008.005.006.005.007.014.022.005.006.001.005.004.007v.018l-.004.011-.002.005-.003.009-.005.008-.01.018-.005.012-.006.008.011.01.02.013.009.007.01.005.01.003.01.003.013.002.011.003.015.002h.012l.013.002.024.001h.027l.083.004.006.003.02.006.015.004.01.003.006.003.007.003.005.004.001.002.002.001.002.005.002.002v.01l-.004.006-.002.004-.003.003-.005.005-.005.005-.006.005-.008.005-.007.003-.008.004-.007.003-.008.003-.008.002-.009.003-.008.002h-.008l-.007.001h-.008l-.008-.001h-.007l-.397.15-.25.015-.004-.002h-.005l-.004-.001-.001.001h-.002l-.002.002-.003.003-.003.003-.002.004-.003.005-.005.01-.003.003-.003.005-.004.003-.003.004-.004.003-.003.002h-.003l-.002-.004-.001-.003-.002-.002-.002-.003-.003-.002-.002-.001-.006-.004-.007-.001-.008-.002-.007-.001h-.008l-.015-.002-.007-.002-.008-.001-.006-.002-.007-.003-.003-.002-.002-.002-.003-.003-.002-.002v-.006l.002-.005.003-.007.002-.005.006-.015.007-.011.003-.005.002-.005.003-.007V75.1l.002-.007-.002-.007v-.003l-.001-.003v-.004l-.002-.003.064-.15.032-.075.016-.038.017-.038.018-.038.02-.038.018-.04.018-.039.018-.036.022-.037.021-.04.022-.034.016-.043.002-.008.002-.005.001-.005.002-.005.003-.005.002-.002h.002l.001-.003.007-.004.005-.001.008-.003.017-.004.008.002h.006l.006.002.006.001.005.003.008.007.012.004.005.003.006.003.014.003.054-.01.051-.006.053-.01.025-.005.026-.007.025-.004.028-.007.023-.007.025-.008.027-.008.024-.008.024-.01.025-.012.175-.066.135-.154.061-.135.004-.009.013-.173-.015-.13h-.003l-.002-.002-.003-.002-.002-.002-.002-.003-.003-.003-.003-.007-.002-.006-.003-.009-.002-.008-.003-.01-.002-.018-.001-.007-.002-.006-.003-.009-.002-.006-.003-.005-.002-.002-.002-.003h-.003l-.002-.003-.001-.002-.002-.003v-.002l-.002-.004v-.006l.002-.007.002-.005.005-.008-.015-.018-.01-.003-.01-.003-.01-.004-.008-.003-.02-.012-.021-.01-.01-.005-.01-.005-.01-.005-.012-.003-.01-.003-.01-.002-.01-.001h-.011Zm-5.966-1.544.032.033.006.01.007.008.008.01.007.012.011.008.009.01.016.018.018.018.018.017.037.033.018.015.015.016.006.007.007.008.007.008.004.007.005.008.005.007.004.005.003.008.003.007v.008l.002.008v.007l.003.007.002.008.002.006v.02l-.002.007-.002.005-.002.007-.003.004-.002.005-.003.007-.005.005-.003.008-.01.01-.01.011-.01.01-.011.009-.012.01-.023.016-.011.008-.009.007-.274.028-.005-.001-.003-.002h-.006l-.002-.002-.006-.002H32.8l-.012.002-.024.008-.005.004-.004.002-.005.003-.003.003-.005.003-.003.005-.004.003-.001.005v.004l-.002.005v.005l.002.005.001.006.002.005.003.007.012.013.012.017.011.014.01.015.027.034.028.03.061.074.031.036.033.04-.064.07-.11.049-.004.003h-.004l-.003.002h-.007l-.005-.004-.006-.003-.008-.005-.007-.003-.01-.002-.008-.003-.01-.002-.005.02-.005.02-.003.018-.003.02-.002.018v.015l.002.007v.006l.001.007.002.005-.005.003-.007.003-.003.004-.005.005-.008.008-.005.011-.005.005-.004.004-.005.005-.004.003-.007.002-.005.003-.01.001-.008.002-.207-.24-.003-.001-.004-.002-.001-.001-.002.001h-.001l-.004.002-.001.003-.005.007-.005.006-.004.004-.004.003-.004.001-.005.002h-.01l-.112-.212-.01-.014-.012-.015-.013-.01-.011-.013-.025-.026-.025-.025-.01-.014-.011-.013-.014-.013-.011-.013-.01-.013-.01-.016-.01-.014-.006-.017-.007-.008.026-.012.086-.145.137-.05.01.009.01.005.01.005.009.004.008.004.006.003.007.002.008.001.007.002.008.002h.007l.006.001.009-.001h.02l.014-.004.01-.001.027-.005.011-.004.013-.001h.03l.084.028.01.01.007.007.007.004.006.005.009.004.004.003h.015l.008.002.009-.002h.006l.009-.001.008-.002.006-.004.01-.003.009-.003.014-.008.014-.01.026-.017.013-.006.005-.004.007-.002.005-.001.005-.002h.01l.01-.003.006-.003.005-.002.005-.003.007-.004.005-.005.006-.005.007-.004.007-.006.006-.006.007-.007.005-.006.007-.01.006-.01.005-.012-.003-.015.001-.006v-.02l-.001-.005-.002-.007-.002-.005-.001-.004-.002-.005-.003-.006-.004-.005-.008-.01-.008-.01-.005-.004-.007-.005-.005-.005-.006-.003-.007-.005-.012-.007-.014-.008-.018-.009-.019-.006-.018-.005-.02-.005-.006-.002-.005-.002-.013-.001-.014-.003-.016-.002h-.015l-.015-.001-.03.001-.034-.001H32.6l-.017-.002-.015-.002-.019-.003-.02-.005h-.02l-.016-.002-.015-.003-.011-.003-.018-.005-.009-.002-.011-.002-.005-.001-.005-.002-.005-.003-.005-.002-.003-.003-.005-.004-.007-.006-.007-.007-.006-.005-.005-.005-.005-.001-.007-.007h-.001l-.005-.002-.003-.001h-.015l-.007.001-.01.002-.017.007-.021.004-.011.004-.012.003-.013.002-.017.002h-.038l-.005.001-.006.002-.005.003-.005.004-.007.003-.005.003-.01.01-.013.011-.013.012-.014.013-.013.015-.015.017-.013.016-.013.018-.012.019-.03.034-.026.038-.088.063-.004.007-.007.006-.012.014-.011.011-.012.013-.006.005-.005.005-.007.007-.006.003-.009.005-.008.003-.01.004-.01.001-.124-.046-.005-.003-.003-.004-.005-.003-.003-.003-.007-.007-.007-.01-.01-.016-.006-.007-.005-.008-.002-.007v-.005l.002-.006v-.008l.003-.014.003-.013.004-.015.002-.015.001-.006v-.019l.007-.006.006-.005.009-.006.01-.007.008-.009.008-.008.009-.008.008-.01.006-.01.008-.01.005-.01.006-.01.003-.01v-.006l.002-.005v-.028l-.002-.005.008-.007.008-.006.009-.01.008-.007.003-.005.003-.003.005-.005.002-.005.003-.005.002-.007.002-.006.001-.007-.001-.006v-.007l-.002-.005-.003-.005-.004-.005-.003-.005-.005-.005-.005-.003-.01-.012-.008-.008-.005-.005-.003-.003-.005-.005-.003-.007.008-.018.1-.09.014.002.005-.006.003.008.002.003.003.004.002.003.003.002h.002l.005.001h.015l.01-.003.004-.002.005-.001h.012l.007.001h.001l.003.002.004.003h.003l.005.003.005.002.005.002.002.002.01.001H32l.026-.003.021-.002.01-.002h.021l.01.002.009.004.006.001.008.002h.053l.009.002h.014l.009.001.006.002.007.003.081-.07.007-.006.026-.023.013-.013.014-.01.011-.012.01-.012.012-.013.01-.013.004.004.004.005.005.001.003.003.005.002.005.002.005.001h.003l.007.002h.015l.018-.003.016-.004h.022l.003.002h.003l.004.002.003.001.002.004.003.003.002.003.003.004v.006l-.002.005-.001.004-.004.001-.008.008-.005.005-.003.005-.004.004-.003.008-.003.005v.003l-.002.003v.01l.002.004.036.135.009.008.003.004.005.003.005.002.006.003.009.005.008.003.011.004.015.005.017.006.043.01.025.005.064.012.074.008.159.1Zm1.557-1.404h-.002v.003l-.002.001h-.018l-.005-.001-.006-.002h-.023l-.004.002-.005.001h-.003l-.005.002-.005.002-.005.003-.003.003-.005.005-.005.005-.007.007-.011.002h-.015l-.009-.002h-.01l-.01-.005-.01-.004-.009-.003-.012-.005-.01-.006-.011-.007-.01-.01-.012-.011-.013-.014-.013-.015-.122-.14-.096-.075-.435.272-.01-.004-.01-.004-.008-.007-.008-.007-.008-.008-.007-.008-.008-.01-.008-.009-.006-.01-.006-.01-.005-.013-.003-.01-.004-.008-.003-.01-.003-.01-.002-.01-.002-.003-.001-.003v-.008l.001-.002v-.003l.002-.002.003-.005.005-.005.007-.007v-.014l-.13-.148-.006-.001-.006-.002-.005-.001h-.005l-.008-.002h-.032l-.008.002-.008.001h-.008l-.009.003-.008.002-.008.004-.009.001-.006.003-.009.004-.006.005-.007.003-.008.003-.006.005-.007.007-.005.005-.005.008-.005.007-.005.006-.003.007-.005.025v.013l.001.007v.011l-.001.01-.002.013-.002.015-.003.013-.003.013-.003.014-.002.013v.03l.002.006.001.008.002.007.003.007.003.005.005.005.005.007.005.004.007.007.033.116.099.223.025.013-.008.012-.009.011-.008.012-.012.01-.01.01-.011.01-.02.02-.023.016-.02.02-.023.018-.02.018-.035.03-.008.004-.01.005-.01.004-.013.003-.01.002-.011.003-.012.002h-.036L33.073 71h-.013l-.015-.003-.013-.002-.013-.003-.014-.004-.014-.001-.012-.005-.013-.005-.013-.005-.017-.005-.013-.007-.015-.006-.013-.007-.025-.013-.028-.015-.027-.016-.026-.017-.003-.002h-.004l-.005-.001-.001-.002-.005-.003-.004-.005-.003-.005-.003-.005-.003-.005-.004-.007-.003-.005-.002-.006-.003-.007-.002-.005-.003-.006v-.007l-.01.002-.008.001H32.7l-.009-.001h-.006l-.005-.002-.011-.003-.012-.004-.01-.004-.013-.004-.004.007-.003.003-.005.003-.005.004-.01.006-.01.007-.005.003-.005.004-.003.004-.005.004-.001.005-.004.005-.003.013.003.005.004.005.006.006.01.007.008.008.005.004.004.007.005.002.003.005.001.005.004.007v.013l-.004.01-.003.005-.003.005-.003.005-.005.005-.009.008-.01.008-.011.007-.008.008-.01.01.006.045.002.02.002.018v.04l-.002.011-.002.01-.001.012-.004.011.005.03.328.208.003.008.001.007.002.008.002.009v.023l-.002.008-.003.01-.002.008-.003.007-.005.01-.005.01-.003.011-.007.01-.008.01-.005.021.14.098.017-.007.014-.006.016-.005.014-.005.025-.007.022-.006.021-.007.01-.003.012-.004.011-.004.012-.004.011-.007.01-.003.05.037.013.001.11.11.399.13.193-.012h.017l.018.004.013.001.01.002.01.003.008.005.007.003.007.004.005.005.005.003.01.008.003.004.005.001.005.002.006.002.007.001.006.002h.025l.015-.002h.031l.007.002.005.002.005.001.005-.003.003-.005.005-.002.005-.005.012-.008.01-.006.006-.006.006-.003.003-.003.005-.005.001-.004.002-.003v-.008l-.002-.003-.02-.01-.013-.013-.013-.017-.015-.011-.012-.015-.01-.015-.013-.017-.021-.03-.02-.03-.012-.012-.023-.029-.023-.026-.013-.013-.053-.238v-.007l-.001-.003-.005-.005-.006-.005-.004-.005-.005-.005-.01-.01-.005-.005-.005-.005-.003-.005v-.003l-.002-.002v-.005l.002-.004v-.002l.001-.004.002-.001.003-.002.004-.003.004-.002.005-.003.005-.002.007-.001h.021l.012.001.008.004.012.003.01.003.011.003.01.004.01.003.01.003h.015l.005-.003.003-.001.005-.002.003-.002.005-.003.044-.004.003.009.005.01.005.008.006.007.005.005.008.005.007.003.007.003.006.003.008.002.005.002.009.001.007.002h.072l.008.002h.005l.007.001.008.002.007.002.006.003.005.001.007.005.005.005.007.005.003-.005.006-.006.005-.002.004-.002.005-.001h.003l.003-.002h.007l.007.002.006.001.005.004.007.002.008.003.007.001h.014l.004-.001.003-.002.005-.001.005-.002.003-.004.005-.003h.015l.002.002.003.001v.004l.003.003.002.005.002.003.001.002.004.002h.011l.033-.017.005.007.225.11.14-.105-.23-.263-.141-.107-.025-.028-.002-.015-.003-.015-.002-.015v-.007l-.002-.007v-.014l.002-.007v-.008l.004-.007.001-.006.005-.007.003-.005.015-.011.002-.002.003-.002.002-.001h.01l.003.003.003.003.004.004.003.003.006.006.006.004.001.003.004.002h.006l.002-.002h.003l.007-.008.008-.008.007-.009.01-.008.016-.017.018-.014.04-.032.016-.013.019-.015-.004-.007v-.008l-.001-.006-.002-.007v-.028l.002-.008.001-.009.002-.006.002-.005.003-.005.001-.007.004-.006.005-.005-.152-.104-.081-.09Zm-3.525-4.116-.058-.423.445-.058.038-.006.037-.007.08-.025.028-.013.031-.016.023-.018.022-.02.013-.017.008-.02.006-.02.001-.02-.007-.017-.01-.015-.013-.017-.016-.015-.025-.011-.031-.01-.03-.01-.033-.005-.083-.003-.038.003-.041.003-2.5.33-.062-.45 2.375-.313.113-.011.113-.009.11-.001.105.001.105.01.098.014.093.014.086.022.08.025.077.031.066.035.061.034.037.032.033.032.023.03.025.034.016.033.017.033.01.036.006.037.004.034-.002.04-.003.036-.009.037-.016.041-.017.037-.021.037-.027.037-.031.034-.038.035-.04.031-.044.034-.048.03-.052.029-.054.03-.06.025-.057.026-.068.022-.13.04-.141.034-.14.036-.44.056Zm1.143-1.545-3.468-.12.016-.451 3.467.12-.015.451Zm.06-.98-3.45-.385.05-.425 2.627.293.079-.704.821.09-.127 1.131Zm.063-1.525.124-.435-3.34-.948-.12.434 3.335.95Zm.332-.826-3.137-1.488.218-.462 2.159.458-1.937-.921.182-.383 3.136 1.485-.22.463-2.047-.405 1.83.864-.184.389Zm.443-3.626-1.739-1.648.313-.33 1.736 1.647.06.05.031.023.032.02.031.02.033.018.061.025.028.008.03.008.025.005h.05l.021-.006.022-.005.018-.01.033-.022.03-.026.046-.068.008-.018.005-.022.005-.023-.002-.026-.008-.048-.017-.06-.028-.056-.043-.063-.046-.057-.056-.058L32 55.48l.316-.33 1.736 1.647.073.073.073.074.064.08.065.079.056.081.05.078.046.08.04.077.024.076.024.069.013.07.006.066.004.07-.005.068-.012.065-.018.06-.023.054-.026.051-.035.047-.038.04-.042.04-.044.035-.048.035-.055.023-.057.022-.065.016-.066.008-.074.002-.065-.005-.07-.012-.069-.02-.074-.023-.081-.031-.083-.041-.082-.047-.08-.054-.086-.055-.08-.064-.08-.066-.074-.068Zm2.07-.616.34-.257-1.206-1.624 1.617 1.322.411-.306-2.067-2.788-.34.255 1.275 1.722-1.687-1.416-.412.303 2.07 2.789Zm1.633-1.349.385-.236-1.81-2.963-.386.234 1.811 2.965Zm1.114-.563-1.656-3.11.463-.151.945 1.874-.355-2.07.456-.15.525 3.48-.378.127Zm1.02-.417-.42-3.446 1.241-.15.09.75-.816.1.072.563.732-.088.082.686-.733.088.084.692.874-.105.09.753-1.296.157Zm4.56-1.238-.01.075-.007.076.005.07.01.06.014.058.01.027.014.02.02.033.02.022.024.02.025.015.03.012.024.005.053.011.055.004h.028l.03-.005.028-.007.026-.012.03-.018.03-.025.03-.036.016-.021.015-.027.013-.03.01-.036.02-.07.006-.039.005-.035.002-.072-.004-.033-.003-.034-.005-.034-.01-.023-.013-.024-.013-.02-.027-.034-.033-.031-.036-.03-.071-.054-.148-.097-.075-.046-.071-.056-.033-.031-.036-.034-.033-.037-.03-.038-.043-.057-.036-.06-.034-.069-.03-.08-.01-.04-.011-.05-.013-.097-.007-.108-.001-.109.003-.124.005-.099.015-.1.023-.12.026-.107.035-.104.038-.096.043-.088.045-.072.05-.07.049-.057.054-.048.056-.047.061-.033.06-.025.06-.018.059-.008.06-.005.06.002.057.006.058.008.056.017.058.02.053.023.056.035.048.04.053.044.043.06.034.047.032.058.026.063.025.066.022.081.014.086.009.09.003.095-.005.094-.008.098-.024.191-.42-.052.012-.084.004-.083-.002-.038-.005-.038-.007-.035-.011-.032-.012-.02-.013-.024-.015-.023-.011-.015-.022-.022-.025-.016-.023-.015-.023-.011-.05-.02-.046-.008h-.053l-.05.003-.054.015-.024.011-.024.012-.015.005-.011.008-.013.012-.015.015-.025.042-.02.05-.013.052-.01.059v.056l.007.053.01.04.016.04.025.044.028.036.026.033.032.03.033.023.03.023.064.042.13.074.062.04.063.04.041.029.038.03.036.034.037.042.032.043.03.05.03.057.028.064.015.05.013.055.012.053.01.062.013.123.008.123-.003.136-.013.136-.018.132-.023.133-.037.131-.04.123-.046.11-.026.055-.025.048-.027.044-.03.04-.03.036-.03.037-.028.03-.033.03-.062.049-.054.031-.052.022-.05.016-.052.013-.053.007-.051.002-.053-.002-.048-.007-.053-.008-.046-.013-.05-.013-.044-.02-.05-.026-.046-.032-.045-.033-.044-.04-.04-.05-.043-.059-.036-.064-.03-.078-.032-.09-.018-.095-.016-.108-.007-.107-.001-.109.005-.116.01-.117.01-.119.424.056Zm1.37 1.395.435.132 1.448-3.135-.436-.183-1.446 3.186Zm1.134.65 1.209-2.428-.405-.202.34-.679 1.192.595-.337.678-.407-.202-1.208 2.43-.384-.193Zm1.278.649.344.25.82-1.13 1.642-1.373-.39-.282-.945.866.533-1.165-.391-.285-.794 1.99-.82 1.129ZM51.8 58.45l.123-.085.057-.043.052-.04.051-.047.041-.05.033-.042.03-.045.025-.05.016-.051.005-.02v-.044l-.005-.019-.005-.021-.008-.017-.008-.016-.012-.015-.015-.015-.018-.013-.021-.01-.022-.01-.021-.01-.025-.006-.056-.01-.063-.002-.068.002-.058.01-.058.011-.123.032-.13.04-.128.052-.126.051-.125.058-.126.06-.122.066-.116.068-.112.07-.104.08-.047.04-.044.042-.048.048-.048.052-.033.05-.027.047-.021.048-.012.043v.043l.008.035.019.033.026.03.032.023.021.008.018.008.051.014.053.008.062.001.067-.003.057-.005.059-.013.061-.012.06-.016.066-.024.063-.024.122-.058.178.355-.147.064-.147.062-.147.058-.144.05-.073.017-.07.017-.07.012-.066.011-.066.007-.063.005-.064.003-.06.002-.066-.009-.068-.008-.063-.011-.056-.017-.053-.02-.053-.021-.044-.028-.045-.025-.036-.028-.04-.033-.033-.035-.025-.037-.026-.037-.018-.043-.01-.042-.005-.048v-.043l.007-.046.008-.046.016-.05.022-.048.023-.05.026-.05.035-.053.035-.051.041-.052.045-.053.044-.05.101-.103.11-.103.075-.06.076-.059.08-.058.082-.056.17-.109.179-.104.198-.104.159-.08.167-.067.211-.083.19-.068.093-.026.092-.026.093-.022.09-.02.087-.015.086-.008.094-.006.09-.002.082.006.043.007.034.005.066.023.055.03.056.033.043.035.05.05.041.055.036.058.029.063.011.032.01.032.008.037.005.033.002.037-.002.039-.003.036-.007.04-.01.038-.011.036-.015.036-.018.042-.046.08-.058.079-.03.041-.036.041-.083.083-.091.083-.098.077-.105.073-.111.072-.116.068-.119.066-.18-.353Zm-1.48 1.778.132.433 1.329-.412.158.516-1.33.41.135.434 3.316-1.014-.135-.44-1.2.37-.16-.514 1.202-.37-.133-.433-3.315 1.02Zm.505 1.818 3.436-.458.06.45-3.441.456-.055-.448Zm.199.95 3.465.117-.015.513-2.161.438 2.145.072-.014.425-3.472-.116.017-.51 2.04-.445-2.022-.068.017-.426Zm.391 2.436-.48-.175.095-.475 3.277 1.298-.089.444-3.526-.073.097-.472.51.023.116-.57Zm.718.27-.067.332 1.081.046-1.014-.379Zm-2.29-8.678-.07-.019-.062-.03-.057-.044-.045-.051-.038-.06-.023-.067-.012-.068.003-.073.019-.072.033-.063.04-.056.054-.047.058-.036.066-.023.07-.01.072.003.073.017.063.031.054.043.048.05.036.06.023.067.01.068-.003.075-.018.07-.03.063-.043.058-.05.044-.06.038-.067.023-.069.012-.074-.003Z" clip-rule="evenodd"/></g><defs><filter id="a" width="154" height="157" x="0" y="0" color-interpolation-filters="sRGB" filterUnits="userSpaceOnUse"><feFlood flood-opacity="0" result="BackgroundImageFix"/><feColorMatrix in="SourceAlpha" result="hardAlpha" values="0 0 0 0 0 0 0 0 0 0 0 0 0 0 0 0 0 0 127 0"/><feOffset dy="16"/><feGaussianBlur stdDeviation="6.5"/><feColorMatrix values="0 0 0 0 0 0 0 0 0 0 0 0 0 0 0 0 0 0 0.03 0"/><feBlend in2="BackgroundImageFix" result="effect1_dropShadow_185_25"/><feBlend in="SourceGraphic" in2="effect1_dropShadow_185_25" result="shape"/></filter></defs></svg>