<svg xmlns="http://www.w3.org/2000/svg" width="154" height="157" fill="none"><g filter="url(#a)"><path fill="#fff" d="M13 0h128v128H13z"/><path fill="#004097" fill-rule="evenodd" d="M38.481 70.882c.03-.094-.006-.238-.058-.282-.091-.077-.19-.012-.214.08-.092.367.21.406.272.202Zm1.593.027c-.196.047-.145.493.065.447.093-.02.11-.146.106-.259-.005-.115-.046-.218-.171-.188Zm.137 3.354-.186.018-.102-.968.185-.019.015.057.007.059.038.37c.01.088.057.424.043.483Zm-10.157-5.136c-.023-.053-.076-.112-.09-.173.092-.032.76-.456.848-.476.023.062.068.104.085.173-.064.021-.75.442-.843.476Zm2.44 1.916-.49.53c-.063-.02-.097-.08-.15-.114.022-.062.266-.306.325-.366l.249-.267c.038-.038.047-.063.088-.087l.136.115c-.017.054-.097.12-.158.189Zm16.147-8.983c.109.032.127.058.25.034.08-.015.208-.043.284-.045l.029.183c-.45.097-.285-.013-.71.337-.042.035-.158.145-.195.146l-.033-.192c.03-.017.337-.25.36-.288l-.436-.13-.032-.192c.075.013.17.049.245.072l.238.075Zm-19.611.175-.095.529-.18-.029-.002-.011s-.012.005.004-.074l.016-.093c.01-.067.022-.123.034-.19.022-.125.05-.253.065-.377l.962.164-.028.182-.763-.13c-.01.02 0-.008-.013.03Zm20.304 2.498-.087.75-.97-.114.02-.181c.057-.009.315.031.39.041.117.014.273.043.386.046l.072-.56.19.018Zm-19.629.2-.373.257c.027.026.061.032.098.045l.112.041c.237.083.218.027.239.269-.074-.014-.166-.056-.234-.08-.13-.047-.346-.156-.48-.139-.087.012-.195.03-.282.033-.024-.044-.026-.127-.029-.184.526-.105.183.074.713-.297.032-.022.068-.05.1-.07.057-.04.054-.051.114-.072l.023.197Zm1.82 6.186-.123-.135.559-.547a1.52 1.52 0 0 1-.206-.225.377.377 0 0 1 .142-.119c.09.13.426.434.55.582-.025.036-.095.095-.129.126l-.1-.104c-.034-.035-.08-.094-.12-.11-.06.028-.093.08-.145.13-.076.073-.39.383-.428.402Zm1.134-.105a.677.677 0 0 0 .056-.07c.073.027.238.196.321.257l.31.27-.111.13c-.09-.034-.166-.17-.262-.188l-.484.589a.425.425 0 0 1-.147-.12c.016-.044.217-.265.248-.302l.245-.3c-.073-.06-.15-.14-.227-.188.015-.041.017-.039.05-.078Zm13.94-1.196c.087.092.45.362.597.494-.016.04-.084.11-.11.148l-.305-.239a2.423 2.423 0 0 0-.15-.12c-.027-.019-.053-.04-.078-.061-.033-.026-.04-.044-.079-.063-.046.027-.154.18-.19.229-.053-.024-.095-.075-.148-.102.017-.047.307-.401.372-.478.03-.036.104-.137.138-.16.051.02.097.074.141.102-.02.052-.15.203-.189.25Zm-12.523 2.807.192-.345c-.08-.035-.18-.103-.26-.145l.084-.16c.052.014.124.063.182.095.106.059.445.267.527.3a.468.468 0 0 1-.09.162l-.268-.148c-.047.063-.064.107-.099.164-.06.1-.263.473-.3.508-.06-.022-.109-.066-.161-.088.02-.057.154-.275.193-.343Zm2.132-18.389c.06-.033.102-.05.148-.084.144-.11.156-.218.237-.228.101-.013.127.064.117.105-.016.066-.028-.035-.068.17-.03.156-.038.35.053.482.01.014.011.02.021.033.012.019 0 .002.014.02l.012.013c.008-.01.005-.002.014-.022l.016-.07c.003-.038-.003-.067.014-.094.048 0 .047.016.057.069.033.151.001.19-.028.324-.02.093-.051.353-.081.413-.073.062-.144.018-.174-.057-.049-.125.032-.413-.046-.533-.045-.068-.104-.092-.132-.165l.12-.013c.016-.096.007-.214.002-.312-.063.006-.136.06-.18.058-.057-.003-.107-.056-.116-.109Zm10.148 3.705-.015.01a5.514 5.514 0 0 0-.42.367c-.06.06-.192.18-.218.013-.014-.096.065-.165.149-.244.116-.11.593-.487.756-.448.086.02.078.022.163-.009.051-.019.1-.036.126-.071l-.012-.012c-.037-.029-.054-.022-.09-.04-.058-.028-.212-.176-.213-.238.061.008.355.148.436.252a.221.221 0 0 1 .058.167c-.074.087-.117.023-.221.045-.1.022-.285.178-.337.235-.044.05-.078.115-.158.135a.263.263 0 0 1-.005-.162ZM37.678 73.26l-.024.17-.63-.108-.03.182c.003.025 0 .01.006.025.088.035.466.065.51.1.021.019-.008.087-.015.161-.063.001-.315-.05-.41-.067-.024-.004-.11-.032-.126-.006l-.074.389-.17-.026c-.009-.063.137-.824.162-.954l.801.134Zm-3.787-1.42c.035.015.131.079.153.107l-.34.489c-.16.214-.329.252-.55.088-.364-.271-.177-.455.056-.786.044-.062.146-.191.17-.249.052.01.044.016.084.048.026.02.049.031.072.055-.08.133-.363.495-.389.577-.036.114.045.163.104.204.199.136.287-.018.375-.154.081-.123.19-.253.265-.379Zm8.798 1.408.177-.076c.046.332-.038.456-.295.551-.293.108-.476-.064-.566-.255a.478.478 0 0 1 .5-.705c.112.02.227.103.259.184l-.162.072c-.028-.015-.172-.175-.37-.022-.199.154-.07.64.264.565.219-.05.196-.198.193-.314Zm-2.993.688c.047-.02.131-.01.188-.011-.008.275-.193.42-.476.408-.566-.026-.562-.866-.07-.97.139-.03.27-.008.37.058.066.042.172.14.168.262l-.177.004c-.05-.055-.04-.092-.121-.135-.167-.09-.417.012-.41.31.006.31.312.35.438.25.06-.047.057-.09.09-.176Zm8.129-5.858-.08.17c-.31-.025-.428.373-.088.548.27.138.458-.126.417-.287-.024-.09-.069-.103-.112-.153a.931.931 0 0 1 .086-.166c.218.168.291.321.14.6-.275.508-1.053.104-.893-.397.065-.206.249-.398.53-.314Zm-3.48 4.77-.217-.998c.042-.03.169-.112.216-.128.034.023.06.053.093.078.036.027.063.057.098.084.13.102.252.225.379.331.037.03.17.13.19.173 0 .002-.004.002-.005.006l-.142.09a1.128 1.128 0 0 1-.173-.133l-.319.188.035.227c-.058.025-.1.062-.156.082Zm.163-.754c.053.05.106.09.144.13-.069.042-.163.104-.236.137l-.074-.397a.163.163 0 0 1 .05.031l.116.1Zm-14.801-9.156-.009.18c-.492.015-.8-.18-.823.15-.022.326.277.227.788.283l-.009.183c-.12.01-.538-.025-.665-.045-.218-.034-.307-.176-.291-.42.015-.228.102-.372.333-.376.2-.002.47.027.676.045Zm.139 2.956c.016.015.03.091.037.114.01.044.023.08.027.121l-.636.404c-.068.04-.155.104-.221.136L29 66.483c.03-.013.16-.096.18-.115l-.09-.361-.22-.03-.043-.176c.118.004.98.071 1.02.093Zm-.503.383a1.156 1.156 0 0 1-.068-.262l.408.042-.34.22Zm18.517.852.887.373a.476.476 0 0 1-.07.162l-.385-.16-.175.408.388.164-.06.158c-.057-.01-.87-.357-.9-.38l.065-.153.344.14.172-.41a2.93 2.93 0 0 1-.338-.142.482.482 0 0 1 .072-.16Zm.528-2.946c-.044-.289.167-.497.418-.516.293-.021.53.12.56.376.079.668-.895.674-.978.14Zm.372-.318c.19-.042.367.023.416.152a.256.256 0 0 1-.193.353c-.486.091-.578-.424-.223-.505Zm-20.077.447c-.099-.638.88-.714.976-.158.103.599-.886.74-.976.158Zm.805-.01c-.119.304-.733.244-.625-.147.043-.149.212-.205.394-.187.145.013.297.163.231.333Zm18.701 1.73c-.035-.281.182-.492.445-.497.28-.005.528.158.54.422.029.653-.917.61-.985.075Zm.379-.299c.167-.042.36.045.407.153.1.231-.109.46-.444.337-.224-.083-.27-.413.037-.49Zm-11.865 7.752c-.103.635-.673.489-.808.31a.478.478 0 0 1-.094-.368c.124-.736.995-.51.902.058Zm-.195.021c-.096.376-.406.285-.495.138-.092-.151.011-.558.298-.516.158.022.244.195.197.378Zm1.59.454.188.012c.023.13.057.167.197.176a.37.37 0 0 0 .162-.017c.043-.022.066-.091.033-.141-.058-.09-.432-.085-.532-.233-.078-.116-.034-.398.273-.42.219-.014.458.043.47.308l-.19-.01c-.03-.11-.121-.13-.247-.126-.187.007-.182.138-.095.177.195.09.44.058.514.25.04.105-.005.236-.058.297-.065.076-.173.09-.308.084-.222-.012-.417-.078-.407-.357Zm-7.236-4.126.12.149c-.198.149.164.506.24.325.056-.134-.242-.413-.167-.596.058-.146.296-.257.502-.044.23.236.196.494.061.54-.03-.054-.068-.089-.103-.143.019-.068.05-.07.006-.157-.129-.255-.325-.208-.276-.057.049.15.273.394.132.58a.33.33 0 0 1-.277.114c-.129-.019-.352-.282-.364-.437-.011-.141.069-.214.126-.274Zm14.38 1.15c.225-.147.498-.686.946-.204.113.12.244.335.107.537-.06.088-.116.123-.19.198-.064.067-.13.112-.198.185-.067-.025-.408-.436-.502-.524a.78.78 0 0 1-.164-.192Zm.246.006a.816.816 0 0 1 .255-.214c.204-.075.487.245.397.45a.674.674 0 0 1-.233.232c-.046-.069-.143-.16-.21-.23-.032-.034-.188-.195-.209-.238Zm3.77-8.12-.033.015c.12.107.13.374-.014.54a.552.552 0 0 1-.556.136c-.468-.154-.379-.832-.001-.828l.011.189c-.255.049-.199.49.185.47.366-.02.37-.457.115-.495.003.058.023.145-.001.177l-.153.014-.023-.369c.572-.02.486-.11.506.145-.007.001-.031.003-.036.005Zm-19.335 5.282c-.02-.067-.057-.104-.068-.176l.149-.062.15.332-.444.21c-.035-.04-.057-.104-.076-.154.014-.013.01-.009.024-.018l.03-.028c-.227-.109-.316-.5-.025-.721.245-.184.6-.165.749.138a.436.436 0 0 1 .043.31c-.025.093-.093.183-.176.204l-.085-.17c.052-.037.094-.059.091-.157a.25.25 0 0 0-.071-.17c-.086-.089-.224-.105-.364-.042-.299.133-.217.534.073.504Zm4.92 4.673.498.22-.061.155c-.096-.013-.416-.2-.519-.215l-.087.21.577.255a.362.362 0 0 1-.069.157l-.737-.324c.019-.098.338-.73.387-.89.083.019.617.272.747.328l-.063.154c-.098-.015-.477-.225-.592-.25-.02.064-.065.127-.08.2Zm5.509 1.428-.168-.959.802-.142.03.173c-.103.01-.215.036-.316.054l-.298.058-.01.004.033.204c.082-.002.192-.03.272-.044l.258-.037c.044.01.045.127.04.162l-.536.094.036.226.622-.105.015.037c.003.01.007.035.008.045.006.034.01.05.01.085l-.798.145Zm6.558-4.887c.06.04.117.087.176.117.03-.03.05-.069.075-.106.056-.08.195-.298.237-.343.049.019.11.058.139.095l-.3.452c.03.04.146.114.195.13.012-.022.322-.492.353-.519.058.026.09.063.14.087l-.336.504c-.04.058-.067.115-.116.169-.046-.012-.52-.341-.6-.394-.06-.04-.146-.111-.204-.131.012-.056.076-.132.112-.183l.225-.334c.04-.057.068-.11.11-.167a.355.355 0 0 1 .142.096c-.05.099-.287.417-.348.527Zm-3.37 3.053-.58.256.084.197c.063-.014.188-.078.249-.104.081-.036.172-.084.255-.112a.467.467 0 0 1 .072.151l-.496.226.087.213c.153-.049.456-.22.591-.253l.065.159c-.168.052-.641.305-.75.324l-.39-.882.743-.336.07.161Zm1.07-.924c.032-.038.121-.115.175-.1.165.05.477.194.644.229-.047-.086-.334-.422-.355-.487.052-.031.09-.083.158-.1l.137.196c.043.058.412.535.428.574-.037.038-.123.116-.176.101-.14-.04-.522-.204-.663-.24.074.113.353.453.368.509l-.133.092-.51-.671c-.028-.038-.06-.07-.074-.103Zm3.89-4.737c.014-.004.029-.007.041-.012l.046-.025c-.002-.002-.006-.008-.007-.005-.002.002-.009-.004-.009-.004l-.05-.017-.067-.02-.418-.12c0-.044.028-.144.05-.177l.925.263-.042.156c-.03.061-.275.106-.353.13-.047.015-.315.086-.35.12l.585.166-.045.168-.934-.265c.064-.242-.011-.16.381-.28l.166-.053.08-.025Zm-17.752 2.773c.008-.014.447-.307.497-.334.032.05.066.093.098.147-.032.038-.511.352-.594.406-.051.036-.157.124-.218.137-.022-.07-.104-.118-.079-.185.051-.137.247-.55.269-.64-.065.023-.432.299-.517.336-.025-.048-.068-.094-.091-.145l.8-.538c.025.02.043.054.064.083.063.093.035.077-.058.305-.026.064-.171.39-.172.428ZM41.177 73.1c.08-.016.148.088.26.184l.318.288-.14-.57.182-.05c.019.136.08.33.116.47.027.108.108.38.11.471-.161.03-.146.067-.222-.003l-.168-.156-.328-.3.148.603-.172.043c-.035-.173-.229-.858-.229-.95.044-.008.084-.022.125-.03Zm-11.581-5.866.566-.19.064.178c-.154.043-.861.305-.924.307-.037-.145-.078-.141-.016-.221l.412-.533-.59.2-.054-.168.924-.318c.047.202.119.097-.114.397-.043.056-.09.112-.138.174-.05.063-.085.114-.13.174Zm7.199-13.178c-.005-.062.015-.063.048-.095.026-.024.04-.04.067-.063.048-.039.095-.076.157-.111.218-.13.59-.044.474.15l-.159.369c-.048.127-.029.071-.115.143l.026.075c.101-.01.406-.12.4.066-.002.08-.2.232-.234.312.15.002.265.01.262.173-.152.089-.22.108-.398.161-.104.03-.243-.16-.142-.303.058-.08.153-.085.067-.207-.03.014-.063.048-.094.072-.053.04-.045.033-.09.083-.077.088-.17-.003-.192-.075.04-.033.118-.073.164-.104.052-.035.101-.078.153-.108l-.039-.108c-.235.017-.422-.233-.438-.365.074-.002.158.075.197.11.033.03.052.05.084.077.04.035.041.043.115.033 0-.198-.121-.047-.18-.2l.15-.05c0-.036-.012-.104.01-.125.03-.031.066-.002.08.017.053.076 0 .09.125.117.015-.074.056-.159.044-.243-.114-.033-.224.027-.29.081-.082.067-.08.162-.252.118Zm.431.235c-.02-.073-.047-.111.04-.125a.32.32 0 0 1-.04.125Zm.138.41c-.008-.052.019-.065.063-.076-.016.042-.024.06-.063.075Zm3.205-.637c.103.013.096.047.21.013a2.88 2.88 0 0 1 .208-.049c.152-.033.382.177.14.41-.045.045-.39.2-.42.347.063.002.168.019.219.017.18-.008.194.018.224.1.142.393-.173.3-.429.282l-.218-.016c-.25-.018-.219-.279-.19-.457.09-.008.141-.051.194-.097.226-.192.122-.217.045-.348-.057-.095-.04-.134.017-.202Zm6.78 3.963c-.076-.057-.06-.206.028-.26.026.014.007 0 .029.02a.249.249 0 0 1 .074.23.242.242 0 0 1-.113.025c.032.082.204.2.146.33-.027.063-.11.081-.194.052l-.16-.082c-.019.014-.028.016-.057.029l-.061.038c.048.08.117.04.049.186-.042.001-.069-.01-.104-.019-.046.074-.17.143-.245.206-.11.093-.16.186-.007.28.123.075.183.101.366.038.082-.03.263-.146.31-.149.02.02.018.017.036.044-.027.058-.07.105-.103.186-.111.28-.418.204-.611.088a.967.967 0 0 1-.168-.134c-.13-.119-.13-.28.008-.414.046-.044.14-.095.164-.155-.308-.043-.434.036-.614.032-.055-.09-.005-.128.062-.17.112-.068.124-.019.238-.048-.013-.014 0-.006-.027-.022-.033-.019-.069-.02-.104-.057a.57.57 0 0 1 .078-.105c.08-.055.336.037.525.006.001-.043-.016-.05-.002-.095.01-.037.026-.055.037-.091-.165-.064-.152-.198-.045-.16.03.01.063.027.095.037.055.018.15.039.196.061.047.023.115.077.174.073Zm-.12.057a.305.305 0 0 1 .083.057c.13.132-.077.094-.135.088.013.043.013.028.023.055-.04.003-.038-.015-.064-.042-.06-.06-.153-.07-.136-.224a.512.512 0 0 1 .228.066Zm-3.282-2.854c-.158-.106-.014-.397.05-.379.058.017.02.108.017.156.06-.01.1-.098.183-.065.046.024.033.046.062.093.123-.005.378-.195.39.083.005.155-.31.188-.375.23a.59.59 0 0 0 .12.076c.136.072.287.26.24.368-.048.105-.218.022-.3.002a.32.32 0 0 0-.298.077c.072.063.247.084.226.225-.03.2-.286.069-.325.08a.578.578 0 0 0-.116.117c-.043.074-.227.394-.351.249a1.535 1.535 0 0 1-.164-.277c-.083-.195-.04-.232.083-.28-.015.188.087.262.2.32a.758.758 0 0 0 .166-.2c-.053-.019-.207-.069-.232-.111-.06-.099.009-.169.044-.244.072.011.103.065.26.085.027-.026.036-.042.068-.07.026-.024.044-.034.056-.078-.089-.003-.219.001-.28-.046a.159.159 0 0 1-.055-.105c-.01-.07.012-.077.03-.13-.068-.021-.103-.048-.164.01-.064.06-.265.284-.333.297-.01-.068-.02-.151.024-.197l.13-.096a.997.997 0 0 0 .222-.241c.066.002.082 0 .133-.028.093-.05.11-.068.1-.007l-.049.106c.268.08.294.042.488-.022.218-.074.352-.075.365-.218-.089.016-.168.082-.231.126-.107.076-.134-.02-.212-.061-.054.02-.124.112-.172.155Zm.3.446c-.03-.058-.025-.058-.096-.084-.152-.059-.318-.04-.452-.097v-.078c.159-.004.239.042.388.053.124.01.283.04.296.14-.028.018-.1.05-.136.066Zm-10.74-.57c-.048.01-.217.088-.13-.04.043-.064.077-.134.194-.068.076.043.178.225.268.333.051-.028.123-.18.228-.19l.035.004c.004-.007.053.035-.035.113-.175.155-.178.163-.096.344-.018.04-.006.01-.031.043l.033.026c.052-.058.179-.166.288-.183a.182.182 0 0 1 .17.06l.15.313c.032.07.053.088.015.176-.085.198-.285.1-.29.106-.027.029.06.195.076.228.024.056.084.18.072.233-.21.075-.299-.589-.4-.743-.044.087.065.282-.032.42-.06-.006-.072-.061-.086-.14-.01-.066-.013-.136-.027-.2-.051.07-.064.183-.124.227-.094-.037-.124-.075-.09-.194.018-.066.077-.18.048-.243-.031.08-.089.276-.12.332-.033.057-.041.027-.08.07.03.063.084.109.125.166.04.056.306.347.154.343-.192-.008-.242-.196-.313-.292-.114-.154-.226-.274-.276-.476-.024-.1-.015-.09 0-.105.045-.045.069.046.084-.03l-.005-.074c-.038-.202-.224-.023-.282.03-.06.055-.116.136-.242.116.01-.054.011-.044.05-.071a.287.287 0 0 0 .055-.041l.097-.097a.61.61 0 0 1 .25-.135c.109-.016.237.077.252.137.019.075.022.278.024.364a.507.507 0 0 0 .107-.292c-.03-.028-.051-.032-.072-.077-.018-.04-.023-.061-.046-.105-.02-.04-.03-.064-.049-.1-.122-.219.076-.058.19-.1-.03-.087-.1-.124-.139-.188Zm.198.429-.006.006-.038-.062a.65.65 0 0 1-.023-.068l.06-.02c.021.032.047.063.025.116-.006.014-.007.013-.013.021l-.005.007Zm.36.165c.138-.303.47.286.19.292-.011-.026-.028-.052-.036-.093-.015-.072 0-.132-.154-.2Zm-2.161 2.193c-.036.044-.099.108-.117.16.127.181.044.178.038.379.342.12-.034.297-.083.293-.087-.006-.152-.136-.151-.175.001-.072.056-.232-.003-.295-.031.048-.069.094-.1.157-.045.096-.041.105-.044.22l.206.153c-.105.093-.262-.04-.321-.061-.05-.018-.025-.008-.036.003-.04.048.044.184.01.221-.059.035-.09-.013-.127-.03-.003.088.079.142.12.183.034.035.114.12.122.19-.031.052-.101.12-.2.094-.06-.015-.15-.1-.183-.13-.092-.08-.336-.286-.401-.373l-.228-.235c-.066-.075-.054-.137-.036-.245.022-.128-.01-.156-.065-.227.229-.18.38.03.372.072-.048.074-.128.07-.203.118l-.004.08c.066.052.18.072.253.123.06.04.043.056.085.108.031.038.066.063.09.104.036-.01.073-.035.104-.04.05-.004.058.02.092.042.026-.15-.011-.294-.034-.435-.077.005-.163.067-.243.043l-.005-.016c0-.03.002-.015.015-.051-.163-.081-.136-.165-.152-.334l-.024-.342c-.009-.033-.033-.04-.05-.077.062-.086.162-.133.28-.053.083.056-.02.23.017.35.037-.023.171-.178.266-.085.11.11-.001.266.038.315.174.108.458-.436.743-.386.052.098.013.118-.041.182Zm-.967.374a.328.328 0 0 1 .095-.242l-.001.182-.094.06Zm.342.242c-.095-.078-.053-.22-.034-.243.036-.046.145-.084.228-.074l-.187.311-.007.006Zm7.732-1.463a3.275 3.275 0 0 1 1.099.188c.051.018.104.04.155.06.05.02.11.037.146.076-.176.088-.49.34-.651.464-.666.51-.796.52-1.475 0-.204-.157-.41-.33-.652-.465l.02-.017c.09-.065.51-.191.603-.214.236-.057.498-.092.755-.092Zm-11.22 7.233c.066 1.651.387 3.084 1.079 4.539.19.4.297.573.492.917.124.22.394.634.554.845.23.3.384.504.623.785.111.13.223.242.335.364.5.54.925.886 1.493 1.325.062.048.138.094.209.146.592.423 1.291.822 2.022 1.13 3.01 1.261 6.29 1.207 9.242-.178.132-.062.575-.286.7-.365.074-.046.147-.08.218-.125.65-.407 1.023-.653 1.629-1.178.286-.248.544-.506.804-.777.026-.028.061-.056.088-.084.253-.274.575-.663.794-.97.23-.324.516-.713.697-1.066.04-.076.084-.14.125-.22.152-.306.321-.608.456-.942.14-.342.263-.662.382-1.028.868-2.674.635-5.75-.56-8.214-.297-.612-.426-.814-.759-1.348-.118-.19-.247-.35-.363-.519-.113-.164-.261-.336-.389-.493-.38-.467-1.096-1.19-1.584-1.567-.58-.45-1.021-.767-1.69-1.126-.596-.32-1.313-.647-1.967-.84-1.23-.364-2.339-.565-3.675-.52-1.725.056-3.198.439-4.541 1.08-.381.182-.573.3-.92.489-.29.159-.578.379-.843.555-.053.034-.626.474-.692.544-.037.038-.056.048-.093.079a8.543 8.543 0 0 0-.72.678c-.223.243-.451.492-.656.753-.05.063-.113.128-.16.194l-.298.412c-.048.068-.095.13-.14.204l-.279.431c-.45.752-.828 1.566-1.093 2.413-.356 1.138-.569 2.457-.52 3.677Zm10.881-11.345c-.87.046-1.628.133-2.425.344a10.993 10.993 0 0 0-3.338 1.49c-.141.101-.486.327-.61.433-.062.053-.131.108-.192.153-.106.077-.446.376-.564.48-.13.112-.39.386-.525.516a4.202 4.202 0 0 0-.328.362c-.134.164-.347.394-.466.566-.046.066-.096.13-.146.197a11.037 11.037 0 0 0-1.04 1.734c-.077.16-.144.314-.218.481-.278.626-.512 1.429-.652 2.112a11.171 11.171 0 0 0 .13 4.966 11.05 11.05 0 0 0 1.225 2.925c.044.076.083.134.131.212.046.073.09.142.135.21.148.219.411.584.584.803.095.12.537.633.65.737l.352.347c.06.06.11.115.174.17.138.119.432.382.558.475.295.215.446.36.8.585a11.616 11.616 0 0 0 1.805.971c1.351.587 2.983.906 4.675.864 1.246-.032 2.34-.276 3.467-.676a11.021 11.021 0 0 0 1.867-.895c.257-.157.605-.377.833-.555.063-.05.136-.093.197-.147.124-.107.253-.196.382-.308.065-.057.136-.107.192-.161.124-.118.237-.224.355-.333.126-.117.225-.224.352-.347.061-.06.105-.12.164-.18.056-.059.11-.116.167-.18.29-.326.498-.612.75-.967.463-.648.794-1.285 1.115-2.016.276-.63.5-1.377.65-2.111.636-3.113-.13-6.265-1.915-8.723-.199-.274-.41-.527-.616-.772a11.655 11.655 0 0 0-.86-.87l-.365-.323a11.07 11.07 0 0 0-2.797-1.708c-1.269-.548-3.054-.944-4.653-.861ZM27 63.645v.772c.017.043.039.575.048.677a12.33 12.33 0 0 0 .316 1.854c.194.767.457 1.484.763 2.14.685 1.475 1.722 2.831 2.756 3.761a11.965 11.965 0 0 0 7.02 3.122c.11.01.632.03.681.051h.691l.69-.036a11.95 11.95 0 0 0 3.031-.636c.35-.125.725-.266 1.048-.423.163-.081.333-.162.492-.24a13.25 13.25 0 0 0 1.15-.679l.224-.152c.27-.173.573-.441.829-.634.266-.201.903-.836 1.128-1.077.223-.24.385-.444.588-.69.035-.043.044-.063.08-.104.097-.113.363-.49.465-.642a12.251 12.251 0 0 0 .928-1.642c.59-1.277.952-2.623 1.075-4.055.01-.117.024-.64.041-.697v-.63l-.04-.685a11.747 11.747 0 0 0-.307-1.878c-.262-1.077-.544-1.733-.996-2.65-.167-.339-.672-1.175-.9-1.467-.032-.041-.048-.07-.076-.106a12.576 12.576 0 0 0-.819-.998l-.35-.37c-.402-.416-.723-.672-1.163-1.03a11.967 11.967 0 0 0-6.256-2.472c-.117-.013-.622-.028-.678-.051h-.792c-.162.055-2.168-.065-4.72 1.12-.936.434-1.672.91-2.467 1.543-.036.028-.064.049-.101.082-.037.031-.066.048-.103.079l-.387.345c-.358.312-.758.749-1.066 1.115a11.875 11.875 0 0 0-2.467 4.824c-.152.621-.258 1.24-.313 1.882-.009.105-.028.631-.043.677Zm11.663-11.137c-2.074.093-3.93.639-5.548 1.628-.178.108-.493.3-.654.42-.076.058-.144.1-.214.153-.22.164-.5.375-.703.554-1.152 1.012-1.896 1.947-2.645 3.28-.51.907-.937 2.112-1.147 3.166a11.5 11.5 0 0 0 .68 6.774c.073.175.147.326.225.496a11.42 11.42 0 0 0 1.228 1.998c.151.188.323.423.488.597l.166.188c.127.147.4.422.537.55.127.117.237.226.37.34l.291.246.102.081c.118.096.481.379.616.46l.432.287c.037.026.064.037.108.065.036.022.069.046.111.071.53.314.86.471 1.433.728.644.288 1.434.525 2.192.679 2.496.508 5.077.157 7.27-.903.788-.381 1.208-.664 1.894-1.148.35-.248.77-.626 1.078-.912.486-.452.94-.993 1.341-1.53.336-.45.553-.837.831-1.32.174-.3.324-.645.467-.973.641-1.459.954-3.213.903-4.848-.065-2.017-.671-3.982-1.627-5.542a14.86 14.86 0 0 0-.421-.656l-.306-.414c-.276-.368-.526-.637-.833-.974-.289-.319-.78-.75-1.123-1.028-.302-.245-.535-.388-.833-.608a2.36 2.36 0 0 0-.217-.137c-.074-.044-.138-.09-.217-.138a11.497 11.497 0 0 0-3.625-1.408 11.39 11.39 0 0 0-2.65-.222Zm-7.91 11.793c.09 1.564.461 2.766 1.188 3.984.07.117.316.494.413.619.153.199.296.39.461.572a8.511 8.511 0 0 0 1.666 1.442 8.229 8.229 0 0 0 4.842 1.351 8.274 8.274 0 0 0 7.968-8.57 8.227 8.227 0 0 0-1.188-3.985c-.32-.536-.912-1.292-1.38-1.715-.182-.163-.5-.45-.706-.596l-.454-.32c-2.378-1.592-5.547-1.798-8.158-.53-.235.115-.454.244-.668.365a2.341 2.341 0 0 0-.158.1c-.055.038-.11.07-.158.102-.335.229-.569.418-.875.673-.115.096-.438.41-.524.507l-.25.279a8.04 8.04 0 0 0-1.053 1.528c-.12.227-.227.448-.334.699-.405.954-.702 2.298-.633 3.495Zm3.758 5.531c.023-.121-.011-.435.102-.928.122-.533.338-1.023.59-1.486.157-.288.507-.865.693-1.125.1-.139.436-.68.5-.8.182-.34.39-.719.43-1.127.013-.13.016-.385-.04-.483l-.47.314c-.56.329-.94.54-1.597.77a7.96 7.96 0 0 1-2.711.448c.047-.166.196-.409.293-.555.367-.563.805-.805 1.479-1.038.41-.142.87-.253 1.28-.396.31-.108.6-.23.884-.376.074-.04.205-.096.269-.147-.072-.172-.163-.209-.275-.582-.45-1.506 1.125-2.995.424-4.242-.05-.09-.118-.175-.162-.268-.065-.136-.021-.247.094-.292.327-.125.978.19 1.118.564.166.447-.015 1.058-.137 1.472-.182.623-.517 1.432-.496 2.101.007.208.068.508.216.648.038-.037.096-.074.144-.112.154-.118.305-.263.45-.387.518-.44 1.171-1.192 1.404-1.843a.406.406 0 0 1 .01-.024l.013-.024.006-.007c.007.008.007.007.015.023.044.084.07.193.16.358.287.519.677.974 1.107 1.377.136.127.636.595.756.64.128-.25.197-.307.205-.66.024-1.077-.959-2.698-.63-3.569.08-.21.246-.328.43-.432.41-.231 1.076-.226.7.302-.037.052-.053.08-.083.132-.699 1.247.865 2.715.427 4.234-.095.332-.197.393-.278.591.278.184.847.412 1.153.522.415.148.86.258 1.28.396.2.067.427.149.598.243.369.201.645.432.883.794.045.069.285.475.287.557a7.974 7.974 0 0 1-2.7-.446 8.182 8.182 0 0 1-1.596-.768l-.477-.318c-.113.193-.02.681.05.887.15.44.38.792.615 1.178.162.265.34.522.506.785.135.211.266.415.384.638.116.217.242.445.34.69.102.25.19.48.26.762.035.146.06.286.082.436.023.162.02.316.036.48.237.016.527.001.77.001.267 0 .177-.024.475-.308.192-.183.565-.652.707-.863l.233-.346a8.244 8.244 0 0 0 .818-1.733c.588-1.734.513-3.667-.126-5.33a8.028 8.028 0 0 0-1.128-2 6.96 6.96 0 0 0-1.146-1.197l-.319-.262a7.404 7.404 0 0 0-1.075-.688c-1.164-.603-2.389-.938-3.773-.926-1.316.011-2.637.35-3.727.96-.517.289-.95.586-1.387.958l-.407.378a7.97 7.97 0 0 0-1.842 2.855 7.933 7.933 0 0 0-.068 5.335c.401 1.185 1 2.07 1.784 2.914.063.069.124.13.192.194.055.052.152.167.228.167.25.002.518-.006.77-.016Zm3.094-6.563c.037-.05.29-.278.357-.34.06-.058.114-.11.173-.17.056-.06.108-.123.166-.178.179-.169.55-.67.721-.669.14.001.318.241.388.313.116.118.224.238.333.355.114.125.222.24.345.354l.352.335c-.053.116-.128.228-.182.365-.373.929.054 1.705.512 2.468l.31.507c.043.066.064.111.1.169.077.12.13.22.196.341.129.231.242.481.343.742.197.505.331 1.28.21 1.877h-2.933c.098.004.31-.053.445-.06.173-.01.296-.016.462-.044a8.79 8.79 0 0 1 .934-.09c-.023-.04-.054-.053-.113-.084-.406-.212-.743-.164-.947-.284.405-.026 1.037-.024 1.482-.034l.365-.007c.098 0 .09 0 .1-.027-.017-.03.016-.016-.045-.023l-2.888-.035c-.31-.007-.684-.026-.989-.01l1.048.22c.127.025.253.026.285.127-.126.173-.71.195-.926.208-.27.017-.57.02-.843.021h-.14c-.132-.001-.103-.01-.122.02.02.03.003.017.056.023l.87.104-1.906.037c-.14-1.08.057-1.757.533-2.66.227-.431.557-.922.81-1.37.452-.8.653-1.469.23-2.327-.029-.061-.067-.117-.092-.174Zm2.818 7.15c.057-.015.258-.015.33-.02.718-.057 1.519-.09 2.221-.243.032-.007.052-.011.076-.031-.529-.037-1.203-.05-1.758-.07l-.434-.017-.074-.001c-.066-.003-.06-.01-.07-.026l.07-.014c.446-.015.677-.082 1.184-.082.39 0 .783-.005 1.172-.01.39-.006.782-.025 1.167-.026-.04.077-.624.514-.673.55l-.267.185c-.05.037-.043.035-.119.03l-1.73-.102c-.364-.02-.688-.049-1.045-.09-.053-.006-.044 0-.05-.032Zm-6.623-.48c.062.068.733.617.824.624l2.73-.172c.448-.025.883-.08 1.327-.12-.137-.097-.355-.093-.551-.106-1.015-.067-2.08-.114-3.098-.164-.322-.016-.95-.062-1.232-.061Zm6.144.978c.022-.016.015-.009.03-.028.169-.2.418-.043.405.263-.016.378-.36.358-.474.213-.121-.153-.12-.545-.023-.731.048-.091.126-.18.28-.163.114.012.204.122.204.25h-.118c-.027-.05-.024-.102-.065-.13-.122-.082-.239.083-.239.326Zm-.868-.073c.084-.096.3-.069.361.02.073.105.087.29.03.42-.137.32-.58.164-.537-.117h.119c.026.107.033.187.156.187.21.001.194-.389.094-.458-.112-.078-.202.045-.234.08h-.104l.031-.493.486-.003v.104h-.376l-.026.26Zm-1.816-.216c.063-.004.113-.01.157-.039.054-.037.048-.065.081-.12h.055l.005.978-.124.001-.004-.75-.165-.005-.005-.065Zm-2.403.092c.199.015 2.07.275 2.125.303-.394.004-.823.044-1.217.075-.259.02-.211.02-.495-.13l-.408-.242-.005-.006Zm3.22.488h.124c.041.265.304.172.296-.218-.043.039-.052.075-.117.099a.23.23 0 0 1-.185-.013c-.18-.097-.186-.502.034-.589a.266.266 0 0 1 .32.094c.148.22.12.95-.285.874-.1-.019-.188-.123-.187-.247ZM126.07 71.302v-.699l-.599-.961h.387l.386.657.376-.657h.38l-.599.964v.696h-.331Zm-1.687-.61v-.28h.71v.662a.908.908 0 0 1-.301.18c-.13.052-.263.078-.397.078a.885.885 0 0 1-.447-.109.7.7 0 0 1-.286-.314 1.026 1.026 0 0 1-.096-.443c0-.173.036-.326.107-.461a.734.734 0 0 1 .313-.31.835.835 0 0 1 .391-.083c.203 0 .361.043.475.13a.59.59 0 0 1 .22.359l-.328.063a.357.357 0 0 0-.13-.194.384.384 0 0 0-.237-.07.44.44 0 0 0-.343.14c-.085.092-.128.23-.128.413 0 .197.043.345.129.444a.428.428 0 0 0 .339.148.664.664 0 0 0 .385-.142v-.21h-.376Zm-2.506-.22c0 .187.043.33.128.427a.417.417 0 0 0 .327.146.413.413 0 0 0 .324-.145c.084-.096.127-.24.127-.434 0-.19-.042-.332-.124-.426a.412.412 0 0 0-.327-.14.418.418 0 0 0-.33.141c-.083.096-.125.238-.125.43Zm-.34.01c0-.17.025-.311.075-.426a.778.778 0 0 1 .152-.228.635.635 0 0 1 .211-.15.884.884 0 0 1 .352-.066c.241 0 .434.076.578.228.145.152.217.364.217.635 0 .268-.072.478-.215.63-.143.151-.335.227-.575.227-.243 0-.436-.075-.58-.226-.143-.151-.215-.359-.215-.624Zm-1.559.82v-1.646h.331v1.366h.818v.28h-1.149Zm-1.756-.83c0 .187.043.33.129.427a.413.413 0 0 0 .325.146c.132 0 .24-.049.325-.145.084-.096.126-.24.126-.434 0-.19-.04-.332-.123-.426a.413.413 0 0 0-.328-.14.417.417 0 0 0-.329.141c-.083.096-.125.238-.125.43Zm-.34.01c0-.17.025-.311.075-.426a.778.778 0 0 1 .152-.228.635.635 0 0 1 .211-.15.884.884 0 0 1 .352-.066c.241 0 .434.076.579.228.144.152.216.364.216.635 0 .268-.071.478-.215.63-.143.151-.335.227-.575.227-.243 0-.436-.075-.58-.226-.143-.151-.215-.359-.215-.624Zm-1.823.82v-1.66h.321l.672 1.113v-1.113h.306v1.66h-.331l-.662-1.09v1.09h-.306Zm-1.891 0v-1.66h.331v.654h.643v-.654h.331v1.66h-.331v-.725h-.643v.725h-.331Zm-.846-.612.319.1a.732.732 0 0 1-.244.407.687.687 0 0 1-.434.133.697.697 0 0 1-.535-.226c-.14-.15-.21-.357-.21-.618 0-.276.07-.492.211-.644a.715.715 0 0 1 .554-.23c.2 0 .362.06.486.18a.651.651 0 0 1 .168.307l-.326.079a.36.36 0 0 0-.121-.204.345.345 0 0 0-.224-.075.37.37 0 0 0-.295.133c-.075.088-.113.231-.113.429 0 .21.037.359.112.448.074.09.17.134.289.134a.327.327 0 0 0 .227-.086.493.493 0 0 0 .136-.267Zm-4.102.612v-1.38h-.484v-.28h1.296v.28h-.481v1.38h-.331Zm1.238 0v-1.66h1.209v.28h-.878v.37h.817v.28h-.817v.45h.91v.28h-1.241Zm-4.227-1.38v1.1h.245a.891.891 0 0 0 .199-.016.298.298 0 0 0 .133-.07.35.35 0 0 0 .086-.16c.022-.074.033-.175.033-.303 0-.129-.011-.227-.033-.296a.391.391 0 0 0-.093-.16.316.316 0 0 0-.152-.079 1.479 1.479 0 0 0-.27-.015h-.148Zm-.33-.28h.601c.136 0 .239.01.31.032a.54.54 0 0 1 .246.153c.068.073.12.163.156.269.035.105.053.237.053.392 0 .137-.016.254-.05.353a.733.733 0 0 1-.175.294.575.575 0 0 1-.231.132.955.955 0 0 1-.291.035h-.619v-1.66Zm-1.891 1.66v-1.66h.32l.672 1.113v-1.113h.306v1.66h-.331l-.662-1.09v1.09h-.305Zm-1.025-.659-.227-.614-.22.615h.447Zm.605.659h-.356l-.141-.378h-.655l-.136.378h-.35l.634-1.66h.35l.654 1.66Zm-4.236 0v-1.66h1.209v.28h-.878v.37h.817v.28h-.817v.45h.91v.28h-1.24Zm-.846-.612.32.1a.74.74 0 0 1-.245.407.686.686 0 0 1-.434.133.7.7 0 0 1-.535-.226c-.14-.15-.21-.357-.21-.618 0-.276.07-.492.211-.644a.716.716 0 0 1 .554-.23c.2 0 .362.06.487.18a.66.66 0 0 1 .167.307l-.326.079a.355.355 0 0 0-.121-.204.343.343 0 0 0-.224-.075.37.37 0 0 0-.295.133c-.075.088-.113.231-.113.429 0 .21.037.359.112.448.074.09.17.134.29.134a.327.327 0 0 0 .226-.086.496.496 0 0 0 .136-.267Zm-2.936.612v-1.66h.32l.673 1.113v-1.113h.305v1.66h-.33l-.662-1.09v1.09h-.306Zm-1.764 0v-1.66h1.209v.28h-.879v.37h.817v.28h-.817v.45h.91v.28h-1.24Zm-.89-1.66h.331v1.66h-.33v-1.66Zm-.834 1.048.32.1a.736.736 0 0 1-.246.407.684.684 0 0 1-.434.133.698.698 0 0 1-.535-.226c-.14-.15-.21-.357-.21-.618 0-.276.071-.492.212-.644a.715.715 0 0 1 .553-.23c.2 0 .362.06.487.18.075.071.13.174.168.307l-.327.079a.356.356 0 0 0-.12-.204.344.344 0 0 0-.224-.075.368.368 0 0 0-.295.133c-.076.088-.114.231-.114.429 0 .21.038.359.112.448a.36.36 0 0 0 .29.134.328.328 0 0 0 .227-.086.496.496 0 0 0 .136-.267Zm-2.897.074.322-.032c.02.11.058.189.117.24a.351.351 0 0 0 .238.077c.106 0 .186-.022.24-.068a.205.205 0 0 0 .08-.16.155.155 0 0 0-.034-.1.273.273 0 0 0-.118-.072 3.6 3.6 0 0 0-.263-.072c-.176-.045-.3-.1-.37-.165a.44.44 0 0 1-.15-.335.44.44 0 0 1 .273-.407.79.79 0 0 1 .32-.058c.205 0 .359.046.462.138a.493.493 0 0 1 .163.37l-.33.011c-.015-.086-.045-.147-.091-.184-.046-.038-.115-.057-.207-.057-.095 0-.17.02-.224.06a.124.124 0 0 0-.052.104c0 .04.017.073.05.1.041.037.142.074.302.112.16.039.279.079.355.12a.468.468 0 0 1 .18.169c.043.072.065.16.065.264a.493.493 0 0 1-.299.452.903.903 0 0 1-.355.061c-.207 0-.365-.048-.476-.145-.11-.097-.176-.238-.198-.423Zm-2.634.538v-1.66h1.122v.28h-.791v.395h.684v.28h-.684v.705h-.33Zm-1.746-.83c0 .187.042.33.128.427a.417.417 0 0 0 .326.146c.132 0 .24-.049.325-.145.084-.096.126-.24.126-.434 0-.19-.041-.332-.123-.426a.414.414 0 0 0-.328-.14.418.418 0 0 0-.33.141c-.082.096-.124.238-.124.43Zm-.34.01c0-.17.025-.311.074-.426a.78.78 0 0 1 .153-.228.635.635 0 0 1 .21-.15.889.889 0 0 1 .353-.066c.241 0 .433.076.578.228.145.152.217.364.217.635 0 .268-.072.478-.215.63-.144.151-.336.227-.575.227-.243 0-.437-.075-.58-.226-.143-.151-.215-.359-.215-.624Zm-2.78.82v-1.66h1.208v.28h-.878v.37h.817v.28h-.817v.45h.91v.28h-1.24Zm-1.27 0v-1.38h-.484v-.28h1.295v.28h-.481v1.38h-.33Zm-2.259-1.66h.33v.9c0 .142.005.235.013.277a.272.272 0 0 0 .1.164.342.342 0 0 0 .216.062c.092 0 .162-.02.21-.058a.23.23 0 0 0 .084-.144c.01-.057.014-.15.014-.282v-.92h.331v.874c0 .2-.009.34-.026.423a.472.472 0 0 1-.1.209.497.497 0 0 1-.19.135.824.824 0 0 1-.313.05.88.88 0 0 1-.354-.054.513.513 0 0 1-.19-.143.462.462 0 0 1-.093-.185 2.06 2.06 0 0 1-.032-.422v-.886Zm-1.27 1.66v-1.38h-.483v-.28H77.7v.28h-.481v1.38h-.33Zm-1.256-1.66h.331v1.66h-.33v-1.66Zm-1.258 1.66v-1.38h-.484v-.28h1.296v.28h-.482v1.38h-.33Zm-2.219-.538.322-.032c.02.11.058.189.117.24a.351.351 0 0 0 .238.077c.106 0 .185-.022.24-.068a.205.205 0 0 0 .08-.16.154.154 0 0 0-.034-.1.27.27 0 0 0-.118-.072 3.6 3.6 0 0 0-.263-.072c-.176-.045-.3-.1-.37-.165a.438.438 0 0 1-.15-.335.435.435 0 0 1 .273-.407.79.79 0 0 1 .32-.058c.205 0 .359.046.462.138a.494.494 0 0 1 .163.37l-.331.011c-.014-.086-.044-.147-.09-.184-.046-.038-.115-.057-.207-.057-.095 0-.17.02-.224.06a.124.124 0 0 0-.052.104c0 .04.016.073.05.1.04.037.141.074.302.112.16.039.278.079.354.12a.464.464 0 0 1 .18.169c.044.072.066.16.066.264a.495.495 0 0 1-.299.452.905.905 0 0 1-.356.061c-.206 0-.365-.048-.475-.145-.11-.097-.176-.238-.198-.423Zm-1.805.538v-1.66h.32l.673 1.113v-1.113h.305v1.66h-.33l-.662-1.09v1.09h-.306Zm-.888-1.66h.33v1.66h-.33v-1.66Zm-2.559 1.05v-.28h.71v.662a.888.888 0 0 1-.3.18 1.07 1.07 0 0 1-.399.078.884.884 0 0 1-.446-.109.698.698 0 0 1-.286-.314 1.029 1.029 0 0 1-.096-.443c0-.173.036-.326.107-.461a.73.73 0 0 1 .313-.31.835.835 0 0 1 .39-.083c.203 0 .362.043.476.13a.59.59 0 0 1 .22.359l-.329.063a.35.35 0 0 0-.13-.194.383.383 0 0 0-.236-.07.44.44 0 0 0-.343.14c-.085.092-.128.23-.128.413 0 .197.043.345.13.444a.427.427 0 0 0 .338.148.558.558 0 0 0 .207-.042.695.695 0 0 0 .178-.1v-.21h-.376Zm-2.65.61v-1.66h.32l.672 1.113v-1.113h.305v1.66h-.33l-.662-1.09v1.09h-.306Zm-1.025-.659-.227-.614-.22.615h.447Zm.605.659h-.357l-.14-.378h-.656l-.136.378h-.35l.635-1.66h.35l.654 1.66Zm-2.599 0v-.699l-.598-.961h.386l.386.657.376-.657h.38l-.599.964v.696h-.33Zm-2.175-.83c0 .187.043.33.128.427a.416.416 0 0 0 .327.146c.131 0 .24-.049.324-.145.084-.096.127-.24.127-.434 0-.19-.041-.332-.124-.426a.413.413 0 0 0-.327-.14.418.418 0 0 0-.33.141c-.083.096-.125.238-.125.43Zm-.34.01c0-.17.025-.311.075-.426a.759.759 0 0 1 .152-.228.636.636 0 0 1 .21-.15.887.887 0 0 1 .353-.066c.242 0 .434.076.579.228.144.152.217.364.217.635 0 .268-.072.478-.215.63-.144.151-.336.227-.576.227-.243 0-.437-.075-.58-.226-.143-.151-.215-.359-.215-.624Zm-1.822-.84h.33v.9c0 .142.005.235.012.277a.273.273 0 0 0 .1.164.342.342 0 0 0 .216.062c.092 0 .162-.02.21-.058a.232.232 0 0 0 .084-.144c.01-.057.015-.15.015-.282v-.92h.33v.874c0 .2-.008.34-.026.423a.474.474 0 0 1-.099.209.495.495 0 0 1-.19.135.823.823 0 0 1-.314.05.882.882 0 0 1-.353-.054.47.47 0 0 1-.283-.328 2.02 2.02 0 0 1-.032-.422v-.886Zm-1.628 1.66v-1.646h.33v1.366h.82v.28h-1.15ZM58.536 60.627c.277.692.646.617 1.221.859-.262.725-1.764 2.011-1.865 2.132-.038-.073-.047-.428-.249-.716l-.502-.48c.03-.638.268-1.291.134-1.885-.16-.71-.587-.665-.353-1.575.46-.13.462-.168.837.108 1.34.988 1.213-.639.873-1.221-.278-.475-.67-.662-1.348-.708.272 1.081-.637 1.252-1.372 1.874-.8.678-.558 4.974-.617 6.521-.045 1.198.454 2.225 1.663 1.703.344-.907-.024-1.614.541-2.763.06.576-.01.461.231.821.899-.106.518-.815 1.359-1.041.195.637-.014 1.818 1.125 2.06.082-.611-.199-1.267-.117-1.67.36-.643 1.433-.953 2.42-.91-.232.723-2.393 1.092-1.753 2.62.261.624.756.625 1.786.596.727-1.025.14-.523.086-1.465 2.52-1.073 1.19-1.568 1.829-1.77 1.023.005 1.66.208 2.168-.457-.393-1.55-3.126-1.014-4.008-1.391-.438-.188-.878-.408-1.06-.763.021-.022.058-.082.07-.059 0 0 1.162-.686 1.273-1.168.248-1.07-.873-1.121-1.169-1.21l-.203-.075c.376-.816 1.915-.364 1.44-1.854-.106-.33-.497-.748-.926-.797-.975-.11-.3.33-.8.87-.277.3-.445.129-1.192 1.083-.382.488-1.143 1.108-1.214 1.553-.113.717.275.508-.175 1.029-.506.586.174-.47-.133.15Zm1.112-.012c.442-.315.781-.452 1.47-.617-.105.151-.05.083-.175.22-.002.002-.152.145-.184.178-.113.115-.21.225-.327.384l-.784-.165Zm.254 2.665c.153-1.574 2.156-1.192 2.321-.347-1.754.092-1.743.334-2.32.347ZM73.208 56.967c.142.344.113.217.674.607l.072 1.474c-.718-.112-.407-.755-1.121-1.049-.325.297-.681 1.626-.832 2.15-.12.416.052.25.05.654-.615.217-.66.39-1.34.565.381-.903 1.964-1.719.822-3.099-.443-.535-.866-.614-1.657-.642-.653-.024-1.707-.122-2.283-.076.903 1.791 4.24-.802 2.904 2.184-.382-.114-.332-.295-.626-.421-.977.888-1.053 2.45-1.185 3.446-.148 1.115-.925 2.644.266 3.389.888-.412.287-3.114.777-3.616l.285-.015c.139.008-.034.193.546-.112l1.689-.785c-.957.88-2.363.907-1.527 2.173.608-.181.84-.584 1.595-.654-.58.86-1.098.793-1.21 2.187 1.036-.233 1.488-1.087 2.032-1.69-.024.15-.831 1.917-1.016 2.335-.337.758-1.034 1.564-.475 2.575.9.102.495-.954 1.409-2.578.239.1 1.393 1.639 2.354.448.447-.554.542-1.596.65-1.959.172-.582.097-.021.356-.622.01-.784-.514-1.241-1.043-1.48-.53-.24-1.604-.248-2.205-.245.299-.4.252-.155.843-.163.247-1.47.546-1.133 2.015-1.24.766-.056.635-.25.695-.333-.52-.565-1.181-.41-2.134-.282.057-.766.29-1.817.251-2.528-.073-1.326-1.46-.708-1.631-.598Zm-.247 3.523c.023-.306.159-.681.417-.905l.4.224c-.171.324-.446.507-.817.681Zm-2.533.974c.022-.039.508-.156.169-.015 0 0-.312.269-.17.015Zm3.306 3.156c.108-.36.302-.244.445-.62.197-.512-.19-.856.074-1.284.704-.158.996.465.697 1.35-.523 1.548-1.305 1.094-1.233.633a.702.702 0 0 1 .017-.08ZM80.223 58.35c-.121.81.973.992 1.736.718l-.572 1.92-.841-.119c.056 1.346.998.546.21 2.782-.357 1.012-1.021 2.108.092 2.728.587-.31.65-.488 1.15-1.616.203-.459.222-.427.457-.856l.562-.915c.667 1.616.554 1.05 1.992.575.544-.18.471-.298.675.291-.56.474-1.532.329-1.351 1.9.205 1.797 3.486.563 3.499.554.06-.56.068-.733-.283-1.017-.172-.138-.24-.156-.48-.24l-.534-.221a.436.436 0 0 1-.082-.056c.485-.163.626-.484 1.204-.686.827-.29.77-.178 1.093-.952-1.116-1.42-1.624-.575-2.417-1.077.11-.801.264-.105.808-.76.336-.403.231-.462.741-.94.123-.115.255-.22.367-.355.211-.256.136-.281.326-.503.385-.45.555-.085.811-.912-.218-.976-1.366-1.457-2.556-1.42-.955.03-2.468.48-2.761 1.228 1.285.441.906.302 1.774-.198.512-.295 2.07-.398 2 .148l-.286.61c-.273.406-.289.492-.666.632-.351-.802.097-1.175-.837-1.285-.087.36-.14.555-.252.9l-.963-.14c.05 1.188 1.167.658.556 1.562-.347-.038-.498.006-.909-1.007-.235-.58-.417-.98-.886-1.124-.457.743.525 2.225 1.044 2.758.417.429.448.275.81.567 0 .699-.208.567-.823.808-.628.247-.527.309-1.514.336.122-.464.481-1.066.124-1.623-.353.198-.544.843-.69 1.215-.143-.182-.04 0-.13-.277a3.343 3.343 0 0 1-.075-.3c-.3-1.432.29-3.232 1.505-3.932.017-.488.004-.829-.504-.908-.735-.116-.392.248-1.963.909-.544.23-.924.142-1.16.297Zm6.237 1.56.365.029c-.157.386-.19.188-.466.602l.1-.632ZM106.812 56.819c-.571-.214-.771-.643-1.214.085-.016.027-.026.06-.043.087l-.238.342c-.117-.503-.221-.609-.692-.792-.104.648-.046.836.143 1.462.204.677.185.889.967.955l.385-1.394c.36-.06.762.009 1.081.191-.506.938-1.425 1.733-2.543 1.962l-.258-.847c-.464.106-.341.118-.559.582-.302.641-.042.28-.593.577.076 2.494-1.717 3.209-.146 4.229.623-.858.248-2.92 1.436-3.33.394.422.15 1.307 1.171 1.232.76-.056 1.066-.61 1.715-.82l-.33 1.228c-.71.36-1.094.203-1.639.419-.221.588.013 1.223.407 1.464.519.318 1.197.019 1.763-.085.007.412-.012 1.272-.253 1.56 0 0 .076.24-.559.101-.352-.077-1.188-.367-1.38-.694a.874.874 0 0 1-.042-.084l-.079-.493-.541.778c.413 1.52 3.139 2.34 3.35 2.24.388-.41.45-.936.478-1.638.037-.918.125-1.22.254-2.026.849-.186 1.608-.276 1.526-1.325-.088-1.109-1.109-.647-1.943-.658.121-.351.234-.46.443-.746.304-.418.159-.412.693-.623.003-.001 2.876-.364 1.468-1.734-.179-.175-.118-.114-.368-.229-1.158-.531-1.513-.297-2.626-.367.418-.612 1.287-1.347 1.288-2.397l-1.005-.734c-.766.458-.941.834-1.517 1.522Zm.642.653c.748-1.331.234-1.422.946-1.804.254.834-.555 1.423-.946 1.804Zm-2.103 3.58c.064-.6-.116-.353.344-.595.394-.207.911-.238 1.097-.3l.46-.286c.533-.396 1.358-.717 2.057-.32-.115.375-.161.257-.307.64-1.226.006-1.009-.16-1.948.311-.499.25-1.133.43-1.703.55ZM121.284 57.516l-2.87 1.436c.136.504.669.873 1.066.422l.669.986c.016.026.042.066.056.103-.713.307-.473.46-1.457 1.276-.912.758-.888.347-.796 1.807l.882-.267c-.213.42-1.63 1.567-.48 2.364.285.065.296-.112.798-.627.289-.297 1.017-1.706 2.103-2.28.017 1.584-.513 2.271.626 3.1.743.54 2.228.35 3.124.006.87-.334 1.695-.824 1.911-1.792.203-.909.007-.823-.249-1.448-.356-.871.169-.892-.654-1.32-.389.682-.432 3.547-2.794 3.717-1.157.083-1.269-1.006-.955-2.022l.268-1.12a.873.873 0 0 1 .038-.088c.185-.364.677-.04.206-1.123l-.94-.06c.57-.55-.066-.683.914-.948.664-.18.92-.176 1.175-.755.523-1.188-1.117-1.26-2.06-1.415.941-.814-.293-1.38-1.335-1.364.034.714.115.819.476 1.155l.278.257Zm-1.211 1.436c.578-.524 1.506-.742 2.445-.61-.137.37-.365.481-.742.683-.726.388-1.109.895-1.703-.073ZM94.287 60.267c.01.74-.265.948-.61 1.4l-1.1 1.115c.049 1.084.314 2.258 1.287 2.501 0 0 4.21-.021 4.66-1.045.139-.316-.102-1.151-.25-1.474-.479-1.041-2.113-.206-3.119-.228.221-.79 1.194-1.865 1.833-2.346.329-.248.66-.448.795-1.383.096-.663-.354-1.142-.774-1.356-1.195-.612-1.88.82-3.058.796-1.896-.038-.459 1.44.336 2.02ZM114.124 57.562c.415.06 1.137.083 1.621.094.831.02.701-.208 1.317-.362a3.657 3.657 0 0 1-.402 1.15c-.401.753-.373.122-.899.771-.892 1.1-.849 3.235-.954 3.845-.12.703-.534 2.17-.25 2.81.158.359.629.607.902.516.905-.365.171-2.267.837-4.75.213.247.314.515.736.638.156-.467.161-2.037.201-2.729.091-1.608.913-1.302 1.236-2.044.358-.82-1.055-1.137-1.924-.86l-1.833.546c-.715.172-.383-.03-.588.375Z" clip-rule="evenodd"/></g><defs><filter id="a" width="154" height="157" x="0" y="0" color-interpolation-filters="sRGB" filterUnits="userSpaceOnUse"><feFlood flood-opacity="0" result="BackgroundImageFix"/><feColorMatrix in="SourceAlpha" result="hardAlpha" values="0 0 0 0 0 0 0 0 0 0 0 0 0 0 0 0 0 0 127 0"/><feOffset dy="16"/><feGaussianBlur stdDeviation="6.5"/><feColorMatrix values="0 0 0 0 0 0 0 0 0 0 0 0 0 0 0 0 0 0 0.03 0"/><feBlend in2="BackgroundImageFix" result="effect1_dropShadow_266_251"/><feBlend in="SourceGraphic" in2="effect1_dropShadow_266_251" result="shape"/></filter></defs></svg>