<svg xmlns="http://www.w3.org/2000/svg" width="154" height="157" fill="none"><g filter="url(#a)"><path fill="#fff" d="M13 0h128v128H13z"/><path fill="#0067A5" fill-rule="evenodd" d="M66.193 77.582h-2.921v-.199c.358.013.523-.1.497-.338V74.62c.026-.238-.14-.35-.497-.338v-.198h1.848v.198c-.358-.012-.523.1-.497.338v2.404c-.013.239.1.344.337.318.504-.04.855-.41 1.054-1.113h.218l-.039 1.352Zm1.785 0h-1.39v-.199c.278-.04.49-.258.635-.656l1.133-2.701h.258l1.311 3.019a.464.464 0 0 0 .477.338v.199h-1.828v-.199h.199c.211.013.31-.046.298-.179 0-.027-.007-.08-.02-.16.013.054.007.04-.02-.039l-.258-.575H67.66l-.16.396a.792.792 0 0 0-.08.318c.014.16.113.24.299.24h.258v.198Zm.676-1.431-.458-1.073-.436 1.073h.894Zm1.984-1.868v-.198h1.232l1.709 2.383h.02v-1.787c.026-.225-.153-.358-.537-.398v-.198h1.271v.198c-.33.04-.483.172-.457.398v2.9H73.4l-1.947-2.702h-.02v2.166c-.04.238.159.35.596.338v.199h-1.371v-.199c.358.013.523-.1.497-.338V74.62c.026-.238-.146-.35-.517-.338Zm6.852 1.947-.02 1.352h-2.72v-.259l1.826-3h-.338c-.728.014-1.112.339-1.152.974h-.218l.04-1.212h2.563v.358l-1.768 2.9c.966.04 1.489-.331 1.568-1.113h.22Zm1.865-.596h1.133v-1.013c.013-.238-.132-.35-.438-.338v-.198h1.789v.198c-.358-.012-.523.1-.497.338v2.424c-.026.238.14.35.497.338v.199H80.05v-.199c.306.013.451-.1.438-.338v-1.192h-1.133v1.192c-.013.238.133.35.438.338v.199h-1.769v-.199c.345.013.504-.1.477-.338V74.62c.027-.238-.132-.35-.477-.338v-.198h1.769v.198c-.305-.012-.451.1-.438.338v1.013Zm2.958.199c.12-1.099.715-1.701 1.788-1.807 1.06.118 1.65.721 1.769 1.807-.106 1.087-.696 1.676-1.769 1.768-1.085-.092-1.682-.681-1.788-1.768Zm.953 0c0 1.047.28 1.57.835 1.57.543.013.815-.51.815-1.57s-.272-1.583-.814-1.57c-.557 0-.836.524-.836 1.57Zm3.058-1.748h1.788v.198c-.37-.012-.542.1-.516.338v2.087c.026.423.264.655.715.695.582 0 .874-.292.874-.874V74.68c.04-.225-.146-.358-.556-.398v-.198h1.291v.198c-.344.04-.504.172-.477.398v1.808c0 .742-.443 1.112-1.331 1.112-.86-.013-1.298-.337-1.311-.973v-2.007c.027-.238-.133-.35-.477-.338v-.198Zm6.483 0h1.788v.198c-.37-.012-.543.1-.516.338v2.087c.026.423.264.655.715.695.582 0 .874-.292.874-.874V74.68c.04-.225-.146-.358-.556-.398v-.198h1.29v.198c-.343.04-.503.172-.475.398v1.808c0 .742-.445 1.112-1.332 1.112-.86-.013-1.298-.337-1.311-.973v-2.007c.027-.238-.133-.35-.477-.338v-.198Zm3.912.198v-.198h1.232l1.709 2.383h.02v-1.787c.026-.225-.153-.358-.537-.398v-.198h1.271v.198c-.33.04-.483.172-.457.398v2.9h-.476l-1.947-2.702h-.02v2.166c-.04.238.159.35.596.338v.199h-1.371v-.199c.358.013.523-.1.497-.338V74.62c.026-.238-.146-.35-.517-.338Zm5.998 3.299h-1.847v-.199c.357.013.523-.1.496-.338V74.62c.027-.238-.139-.35-.496-.338v-.198h1.847v.198c-.358-.012-.523.1-.497.338v2.424c-.026.238.139.35.497.338v.199Zm.356-3.299v-.198h1.688v.198c-.331-.012-.484.054-.456.2-.04-.054.178.655.655 2.125h.02c.027-.08.066-.192.119-.338.49-1.285.689-1.854.596-1.709 0-.184-.139-.278-.417-.278v-.198h1.152v.198c-.251.028-.404.14-.457.338l-1.093 2.96h-.417l-.953-2.94c-.067-.264-.212-.384-.437-.358Zm6.672-.198.04 1.252h-.219c-.185-.675-.582-1.014-1.192-1.014-.304-.026-.443.08-.417.318v.993c.438.04.702-.158.794-.595h.2v1.41h-.2c-.092-.437-.356-.636-.794-.596v1.172c-.013.225.126.331.417.318.662-.013 1.086-.378 1.272-1.092h.219l-.04 1.33h-3.219v-.198c.358.013.523-.1.497-.338V74.62c.026-.238-.139-.35-.497-.338v-.198h3.139Zm3.933 2.722h.198c0 .53-.245.794-.735.794-.504.014-.755-.264-.755-.834.039-.596-.166-.88-.616-.854v1.052c-.04.305.126.444.497.418v.199h-1.808v-.199c.358.013.523-.1.497-.338V74.62c.026-.238-.139-.35-.497-.338v-.198h1.788c.847.014 1.278.325 1.291.934-.013.543-.423.82-1.232.834v.02c.477.04.775.291.894.755.12.437.219.622.299.556.105.014.165-.113.179-.377Zm-1.908-2.186v1.093c.622.013.921-.218.894-.695-.013-.437-.199-.67-.556-.696-.226 0-.338.1-.338.299Zm2.66 2.96v-1.35h.219c.212.767.583 1.158 1.112 1.172.424-.014.643-.206.656-.577 0-.224-.279-.43-.835-.615-.755-.265-1.132-.61-1.132-1.033.04-.728.437-1.112 1.192-1.152.251 0 .491.066.715.198.08.04.132.06.159.06.053 0 .107-.046.159-.14a.213.213 0 0 1 .04-.059h.198v1.212h-.198c-.186-.675-.517-1.02-.994-1.033-.384.013-.582.179-.596.497 0 .238.272.443.815.615.781.252 1.172.623 1.172 1.113-.04.675-.45 1.046-1.231 1.112-.278 0-.557-.052-.835-.158a.594.594 0 0 0-.199-.06c-.066 0-.132.06-.198.179l-.02.02h-.199Zm5.163 0h-1.847v-.198c.357.013.523-.1.496-.338V74.62c.027-.238-.139-.35-.496-.338v-.198h1.847v.198c-.358-.012-.523.1-.497.338v2.424c-.026.238.139.35.497.338v.199Zm.475-3.496h3.278l.02 1.232h-.238c-.16-.662-.491-.994-.994-.994v2.722c-.027.238.159.35.556.338v.199h-1.986v-.199c.423.013.616-.1.576-.338v-2.722c-.504 0-.834.332-.993.994h-.239l.02-1.232Zm3.594.198v-.198h1.689v.198c-.265 0-.398.054-.398.16 0 .04.027.112.08.219.013.026.02.045.02.059l.536 1.013.477-.954a.772.772 0 0 0 .08-.278c0-.146-.146-.219-.438-.219v-.198H127v.198c-.305.028-.491.146-.557.358l-.735 1.49v.914c-.026.238.16.35.556.338v.199h-1.947v-.199c.424.013.617-.1.577-.338v-.933l-.656-1.272c-.172-.397-.364-.583-.576-.557ZM80.161 58.77c-.004-.099.27-.036.467-.033.077 0 .246.003.284.018.135.052.18.066.422.297.24.23.397.398.575.387.178-.01.357-.014.41-.055.051-.042.124-.175.218-.3.094-.126.223-.217.296-.395.074-.178.12-.334.182-.407.063-.073.423-.426.558-.457.137-.031.807-.071 1.518.159 0 0 .21.146.189.335a8.657 8.657 0 0 0-.042.827c.01.084.02.157.167.251.147.094.335.168.576-.042.241-.21.597-.492.764-.66.168-.167.335-.386.44-.544.105-.157.22-.46.377-.565.157-.104.335-.21.67-.136.335.073.544.126.69.168.147.041.294.157.294.157s.104.136.084.324c-.022.189-.063.387-.042.45.02.063.25.544.701.513 0 0 .188 0 .251-.031.063-.032.22-.147.43-.43.209-.282.303-.481.46-.68.157-.199.44-.66.712-.88.272-.219.418-.271.565-.365.147-.095.555-.294.795-.283.573.025.802.348 1.267.69.2.147.346.315.377.409.031.094.042.168-.01.21-.053.041-.377.69-.765 1.015 0 0-.125.21-.157.314-.031.104-.01.314-.073.45s-.094.408-.084.628c.002.04-.058.093-.089.203-.04.141-.05.358-.032.556.018.195.006.456.024.648.009.092.077.168.09.266.017.125-.022.273-.043.392 0 0-.03.112-.078.198-.06.11-.159.212-.193.328-.042.14-.114.235-.072.385.02.068.153.17.2.273.155.35.285 1.276.127 1.61-.112.237-.611.41-.755.554-.144.144-.645.705-.871.746-.226.041-.637-.04-.74-.164-.102-.123-.205-.41-.205-.41l-.329-.288-.37-.062s.021-.164.124-.267c.103-.103.205-.287.329-.575.123-.287.246-1.17.246-1.643 0 0 .185-.534.246-.945.062-.41 0-1.068.103-1.376.103-.307.288-.636.329-.739.04-.102.287-.678.267-1.006-.02-.329-.144-.431-.267-.452-.123-.02-.288.164-.411.308s-.554.472-.698 1.17c0 0-.082.33.04.411.124.082.268.267.268.39 0 .124-.062.576-.103.678-.04.103-.226.473-.39.514-.164.04-.37-.062-.575-.226-.205-.165-.452-.123-.514-.329-.061-.205-.266-.328-.205-.657.062-.328.062-.328.144-.534.082-.205.04-.493 0-.616-.041-.123-.185-.123-.185-.123s-.205.431-.329.513c-.123.082-.225.493-.308.801-.082.308-.184.514-.287.76-.103.246-.082.883-.062 1.047.02.165.103 1.253-.143 1.561-.247.308-.411.616-.617.801-.205.185-.944.062-.944.062s-.329-.288-.308-.78c.02-.493-.062-.945.02-1.212s.247-.78.329-1.027c.082-.247.308-.74.431-.965.123-.226.35-.534.41-.72.062-.184.185-.554 0-.574 0 0-.225.02-.45.37-.227.348-.412.595-.473.78-.062.185-.473.452-.72.328 0 0-.266-.123-.451-.102-.185.02-.267.39-.308.554-.041.164-.205 1.664-.37 2.075-.164.41-1.109 1.601-1.478 1.786 0 0-.575.164-.863.226-.287.062-.452-.164-.452-.164s-.493-.534-.595-.657c-.103-.124-.041-.37-.124-.617-.082-.246.021-.328.165-.41.144-.082.636-.247.636-.247s1.027-.842 1.212-1.437c.185-.596.616-1.417.555-1.807-.062-.39-.066-.867-.313-.95-.198-.065-.351-.072-.505-.015-.07.027-.146.054-.215.117-.013.013-.029.025-.036.042-.066.155-.246.25-.246.25s-.074.288-.156.432c-.083.144-.131.534-.09.801.03.192.047.484-.055.643-.04.062-.16.074-.212.096-.571.254-.806.875-1.294.144-.164-.246-.41-.431-.41-.431s-.111-.124-.165-.657c-.098-.973.278-.404.394-.863.032-.126.164-.326.18-.518a.473.473 0 0 0-.081-.262c-.103-.103-.245-.193-.25-.33ZM118.173 66.222c.174-.154.541-.502.831-.753.29-.252.677-.522 1.256-.522 0 0 .194.541.31.734.116.194.289.426.174 1.14-.116.716-.155.619-.155.619s-.155.193-.889.367-1.005.193-1.411.251c-.406.058-.85-.019-.85-.019.247.346.246.202.618.367.174.078.986.194 1.237.251.251.059.445.174.638.329.193.155.676.638 1.14.715 0 0 .734-.02.908-.174.175-.154.503-.58.503-.58s.812-.811.696-1.584c-.116-.773-.232-.87-.406-1.392-.174-.522-.455-1.189-.223-1.518 0 0 .405-.288.542-.443.138-.154.328-.376.347-.492.011-.067.016-.29-.058-.435-.081-.158-.192-.138-.276-.17-.208-.077-.142-.32-.277-.649 0 0-.364-.177-.654-.177-.29 0-.522-.02-1.005.29-.483.309-1.083.463-1.894.85-.812.386-1.798.927-2.358 1.082 0 0-.502.348-.947.425-.458.08-.972-.239-1.218.251-.058.116.058.194.058.194s.406.502.735.676c.611.323.959 1.093 1.739.793.309-.194.715-.271.889-.425Zm-.327-12.642s.126 1.584.126 1.985c0 .4.042 1.984.063 2.195.021.211.19.57.254.866.063.295.107.439.19.506.083.068.231-.063.507-.337.132-.133.313-.176.386-.241.031-.028.035-.056.074-.08l.391-.236s.169-.128.393-.291c.154-.112.318-.243.394-.335.072-.086.115-.092.261-.097.415-.017.86.338.86.338.06.05.043.204.193.183.1-.014.065-.233.191-.335.086-.07.276-.054.46-.061.371-.015.447.088.63.272a.61.61 0 0 1 .189.352c.019.181-.098.293-.189.42-.103.143-.187.291-.263.345-.142.102-.432.277-.615.317-.059.013-.26.035-.491.09-.297.07-.661.186-1.033.31-.238.08-.468.218-.658.293-.713.286-2.242.653-2.508.755-.265.102-1.121.326-1.121.326-.245.224.082.775.183.918.102.142.266.305.347.407.082.102.387.143.387.143s1.204-.285 1.448-.367c.245-.081 1.387-.754 1.387-.754.238-.274.434-.5.67-.65.452-.284.902-.315 1.022-.409.183-.142.754-.715.754-.715s.265-.224.367-.224c.102 0 .286.102.388.183.102.082.02.469-.123.612-.142.142-.784.5-.784.5s-.367.203-.265.223c.102.02 1.376.143 1.498.143.379 0 .418.023.877-.275.408-.285.326-.408.285-.652-.041-.245-.53-1.122-.693-1.265-.288-.252-.43-.32-.347-.55 0 0 .469-.061.591-.061.389 0 .466-.358.368-.653-.177-.528-.676-.431-.341-.873.041-.054.046-.04.111-.063.089-.032.245-.114.393-.328.224-.326 1.223-1.63 1.325-1.712.102-.082.448-.449.469-.55.02-.103-.102-.49-.306-.674-.434-.39-.146-.512-.637-.422a.822.822 0 0 0-.349.14 9.3 9.3 0 0 1-.421.241c-.306.164-.753.314-.876.388-.653.39-.775-.028-.775-.53 0-.37.099-.424-.306-.55l-.366-.05c-.022-.003-.043-.01-.052-.021a.306.306 0 0 1-.023-.08 1.267 1.267 0 0 1-.008-.42c.022-.152.06-.43.043-.658-.015-.2-.083-.362-.083-.362s-.164-.184-.347-.265c-.184-.082-.408-.266-.571-.367-.071-.044-.121-.098-.175-.132-.032-.021-.1-.042-.129-.06-.165-.1-.209-.057-.201.114.003.045.036.098.036.16 0 .185.039.528-.056.692-.041.07-.079.307-.148.48-.081.203-.244.316-.285.418-.041.102-.225.265-.388.326-.102.038-.42.03-.618.058-.082.011-.172.024-.19.06-.011.021.028.051.042.093l.167.137c.151.091.252.16.348.22.075.047.153.07.21.205.061.142-.163.532-.264.858-.102.326-.684.998-.684.998.22.06.393-.267.533-.42.222-.241.318-.25.481-.312.164-.06.567-.286.73-.429.163-.143.353-.163.353-.163.406.099.279.51.279.51s-.087.291-.324.666c-.236.374-.505 1.142-.668 1.224-.163.081-.69-.171-.69-.171s-.37-.136-.384-.067c-.074.375.003.203.149.386.082.102.469.449.469.449.02.143-.293.706-.395.848-.071.1-.361.433-.577.603-.049.038-.125.082-.172.01-.072-.11-.148-.192-.159-.266-.01-.073-.017-.212-.059-.372-.024-.096-.059-.264-.106-.367-.126-.275-.395-1.73-.437-2.005-.029-.189-.022-.704-.075-1.006-.024-.138-.137-.185-.137-.218 0-.106-.168-.338-.168-.338l-.106-.127h-.126Zm5.055 1.12 1.322.036c.195.02.278.152.289.35.013.227-.05.598-.165.924-.065.188-.096.396-.238.527-.161.148-.435.208-.522.225-.042.008-.475.42-.597.322-.073-.06-.29-.347-.389-.45-.104-.077-.416-.287-.547-.41-.024-.022-.207-.092-.197-.164.011-.073.584-.82.856-1.228.106-.16.134-.121.188-.133Zm-6.874 1.019c.173.152.689.686.773.746.097.068.353.013.362.217l.02.416c.015.329.03.74.025.895-.005.11.029.347.014.634-.015.282-.076.61-.14.848-.037.14-.033.25-.18.081a.428.428 0 0 1-.063-.105c-.077-.185-.154-.292-.173-.515-.019-.224-.149-.477-.216-.7-.068-.224-.047-.642-.095-.855-.048-.214-.135-.33-.213-.564a5.732 5.732 0 0 1-.157-.783 1.774 1.774 0 0 1-.022-.331c.008-.05.046-.001.065.016ZM65.413 61.14s-.493.192-.777.781c-.102.214-.072.6-.21.897-.16.341-.413.586-.601 1.086-.01.028-.018.172-.091.368-.039.102-.157.177-.195.312-.026.093.029.245.003.33-.04.138-.142.212-.16.329-.037.223.05.45.204.508.173.065.478.239.782.586.138.158.83.33.891.087.044-.173.11-.391.087-.782-.022-.391-.282-1.413-.217-2.173.065-.76.174-1.37.174-1.674 0-.304.11-.655.11-.655Zm7.226 2.51c.087-.032.122.105.274.237.098.085.235.143.304.217.079.084.082.243.223.432.5.67.812 1.028.964 1.676 0 0 .085.504-.152.81-.237.304-.341.295-.436.342-.095.048-.969-.019-.969-.019s-.104-.428-.104-.657c0-.228-.143-1.484-.162-1.617-.007-.053-.146-.287-.16-.519-.017-.29-.014-.637.009-.75l.076-.105.133-.048Zm-4.36-6.932c.184-.085.307-.195.449-.296.142-.102.256-.213.387-.367.071-.085.125-.245.217-.351.417-.488 1.086-1.11 1.782-1.9.12-.138.171-.296.271-.45.089-.135.227-.268.317-.38.394-.492.682-.64.963-.973.37-.438.75-.892.85-.992.212-.212.407-.367.52-.535.112-.169.281-.24.365-.225.085.014.169.239.169.239s.351.38.421.562c.07.183 0 .394.015.548.007.085.068.39.236.578.138.155.374.196.495.266 0 0 .393.022.254.262-.14.239-.228.255-.305.271-.138.03-.228.066-.32.072-.073.005-.194-.007-.295.01-.43.072-1.557.21-2.511.825-.22.142-.457.32-.7.488-.2.139-.408.265-.595.425-.248.211-.536.355-.748.585-.09.096-.158.216-.247.29-.115.096-.25.143-.356.234-.13.112-.235.211-.362.304-.147.105-.332.203-.498.298-.152.087-.31.159-.454.245-.065.04-.117.091-.181.131-.146.072-.195.123-.127.29.036.086.04.103.132.12.174.031.776-.127 1.505-.523.73-.397 1.348-.73 1.348-.73s.613-.396.771-.523c.159-.126.206-.031.206-.031s.18.158.132.237c-.047.08-.063.175-.063.175s.143.285.349.38c.12.056.305-.11.444-.19.19-.11.76-.602 1.061-.777.174-.1.459-.224.766-.291.224-.05.463-.05.664-.09.475-.094.79-.237 1.107-.316.28-.07.643-.2.76.095 0 0 .096.285.032.38-.063.096-.19.302-.19.476s-.349.999-.396 1.41c-.048.413-.402 3.966-.337 4.74.066.772.017 1.315 0 1.513-.016.197.05 1.924.05 2.006 0 .083.099 3.208.082 3.553-.016.346.007 1.234-.01 1.366-.01.082 0 .777-.032.924-.036.168-.193.267-.324.298-.35.083-.63.172-.706.227-.053.038-.454.088-.628.085a.36.36 0 0 1-.282-.15 1.263 1.263 0 0 1-.193-.419c-.025-.1-.104-.244-.183-.424-.102-.23-.226-.52-.448-.854-.494-.742-.7-1.057-.767-1.16-.032-.05-.032-.061-.034-.125-.005-.14-.035-.419.038-.431a9.4 9.4 0 0 1 .586-.007c.216.002.434-.019.56.014.042.01.162.14.324.289.147.135.291.22.427.213.112-.006.26.108.432.022.168-.085.089-.237.089-.355 0-.083.2-2.547.183-3.213-.011-.442-.078-1.749-.092-2.777-.007-.52 0-.969.033-1.198.1-.683.142-1.935.192-2.202.05-.266.166-1.798.266-2.164.1-.366.154-.612.187-.711.074-.221.006-.417-.126-.336a.752.752 0 0 1-.52.088c-.269-.04-.438-.236-.563-.252-.25-.033-1.076.312-1.192.412-.117.1-.583.699-.8.766-.216.066-.632.216-.815.15 0 0-.083-.117-.166-.25-.084-.133-.25-.283-.467-.283-.216 0-.682.4-.799.533a.931.931 0 0 0-.166.283s.466.066.65.066c.91 0 .816-.013 1.031.833 0 0 .533-.017.716-.083.183-.067.217.2.217.2s-.017.215-.083.316c-.067.1-.567.716-.8.915-.233.2-.3.433-.3.583 0 .15.05.266.25.283.2.017.467-.116.6.45 0 0 .1.3.016.366-.083.066-.366.316-.466.383-.1.066-.9 1.065-1.182 1.78 0 0-.233.217 0 1.233s.25 1.315.217 1.448c-.034.133.15.816-.833 1.482 0 0-.415.35-.814-.266 0 0-.25-.334-.234-.883.01-.343.015-.518.007-.6-.009-.085-.023-.069-.111-.062-.113.01-.3.038-.346.13-.067.133-.133.433-.183.599-.05.166-.367.6-.55.683-.114.051-.208.052-.305-.024a.7.7 0 0 1-.179-.225c-.056-.106-.157-.21-.19-.308-.054-.164-.004-.312.141-.426 0 0 .217-.266.5-.532.283-.267.5-.45.583-.55.083-.1.233-.233.266-.366.033-.133.017-.882.017-1.032 0 0-.084-.167-.217-.15-.133.017-.266.05-.3.25-.033.2-.066.349-.183.349-.116 0-.632-.133-.649-.45-.017-.316.017-.649.25-.865 0 0 .466-.216.816-.533.35-.316.516-.566.533-.782.016-.217.066-.25.066-.25s-.4.133-.633.3c-.233.166-.566.5-.749.566-.183.066-.316.166-.416.116-.1-.05-.216-.05-.516-.432-.3-.384-.6-.417-.75-.733-.15-.316.034-.383.184-.5.15-.116.766-.133 1.015-.266.25-.133.833-.366 1.2-.583.365-.216.981-.599 1.148-.699.166-.1.216-.233.216-.233l.067-.733s-.117-.1-.45-.116c-.333-.017-.316-.167-1.332.167 0 0-.482.166-.799.166-.316 0-.3-.083-.466-.083a3.67 3.67 0 0 1-.6-.067c-.166-.033-.751-.606-.775-.67-.023-.063.508-.047.809-.11.3-.064.619-.126.745-.19a.746.746 0 0 0 .144-.092c.067-.055.116-.103.182-.131a.296.296 0 0 1 .15-.03c.075.002.109.023.236-.036Zm-3.358-2.19c.246-.085.424-.022.783-.154.215-.08.348-.17.565-.266.254-.113.516-.181.683-.34 0 0 .097-.092.251-.19.121-.077.294-.134.372-.305.05-.112.005-.254-.04-.468a1.16 1.16 0 0 0-.01-.043c-.017-.063-.069-.121-.063-.185.026-.282-.136-.63-.048-.867.06-.163.212-.23.373-.255.097-.014.178-.08.302.045.093.093.346.516.455.61.11.093.34.203.433.266.093.063.452.349.412.625-.011.078.014.278.041.362.027.084.112.04.135.079.046.078.153.244.2.37.046.124.236.272.034.46-.139.128-.319.038-.4.15-.036.051-.032.141-.11.268-.113.184-.284.52-.46.587-.212.08-.432-.126-.569-.118-.249.016-.483.25-.748.438-.264.188-.887.547-.934.657-.047.11-.25.234-.374.297-.125.062-.296.005-.436-.151-.1-.112-.235-.354-.364-.545-.051-.075-.081-.168-.138-.203-.203-.126-.347-.389-.425-.483-.051-.061-.23-.154-.282-.252-.07-.134.189-.33.362-.39ZM108.508 62.884s.433.012.574.116c.095.069.723.728.833.838.115.114.462.09.764.347.212.183.344.494.531.754.145.203.359.369.445.456.329.337.896 1.412.659 1.673-.089.098-.38.064-.531.166-.251.168-.621.378-.814.482-.308.165-.413.468-.698.516-.285.047-.427 0-.499-.285-.071-.286-.119-1.663-.309-2.257-.404-1.266-.689-2.287-.955-2.806ZM97.824 61.6c.213.017.523.165.788.099.266-.066 2.45-.593 3.335-1.036.885-.442 1.229-.543 1.428-.675.199-.133.73-.256.863-.84.133-.586.377-1.84.399-2.371a15.96 15.96 0 0 0-.045-1.572c-.022-.288-.155-.84-.464-1.173 0 0-.222-.398-.111-.642.111-.243.443-.42.487-.553a.255.255 0 0 1 .168-.157.409.409 0 0 1 .148-.001c.047.006.091.047.107.062.084.081.473.458.772.677.332.244 1.217.902 1.35 1.079.133.177.332.487.265.863 0 0-.112.31-.156.531-.044.221.158.51-.019.664-.177.155-.511.62-.555.885a2.652 2.652 0 0 0-.022.709 5.7 5.7 0 0 0 .066.354s.133 0 .31-.11c.177-.112.576-.244.753-.377.088-.066.427-.18.686-.378.155-.119.213-.312.362-.42.1-.073.23-.096.302-.154.098-.08.203-.125.262-.177.076-.068.095-.139.134-.206.066-.114.014-.216-.045-.308a.81.81 0 0 0-.144-.17c-.053-.047-.104-.131-.175-.19-.027-.022-.037-.036-.036-.062l.003-.051c.005-.034.037-.051.071-.042.093.024.385.1.517.197.158.117.609.363.727.508.118.146.063.303-.047.369-.079.047-.398.217-.7.406-.124.079-.28.16-.345.232-.117.13-.322.28-.471.52-.131.214-.173.474-.36.62-.398.309-1.073.59-1.25.767-.177.177-.531.509-.686.796-.155.288-.178.598-.31.686-.133.089-.376.532-.465.664-.088.133-.155.753-.288 1.13a6.06 6.06 0 0 0-.243 1.283c0 .177-.114.528-.202.816-.088.288-.31.752-.907 1.04 0 0-.474.198-.718.397-.243.2-.497.38-.696.535-.199.155-.576.465-1.704.598-1.13.133-1.373.11-1.97.221-.523.097-1.47.245-1.698.28-.088.013-.087-.223.043-.25.099-.02.291-.065.504-.14.31-.111 1.062-.664 1.704-1.04.642-.377 1.35-.797 1.727-1.196.376-.398 1.438-1.15 1.77-1.549.332-.398.642-1.416.642-1.638 0 0-.133-.287-.376-.155-.244.133-1.196.753-1.528.908-.331.154-.575.199-1.128.575-.553.376-.885.73-1.306.598-.42-.133-.708-.399-1.129-.753-.23-.194-.635-.563-.824-.903-.06-.107-.014-.209.05-.342.066-.133.167-.456.38-.438ZM30.07 69.617l-.513-1.236.084-.035c.05.15.126.201.23.151l1.026-.424c.103-.036.122-.126.056-.27l.084-.034.323.781-.084.035c-.056-.153-.133-.204-.23-.15l-1.017.42c-.105.031-.13.097-.075.199.1.208.318.292.655.25l.039.093-.579.22ZM31.267 70.434l.317-.43-.526.078.209.352Zm-.722.068-.324-.549.078-.046c.075.103.21.136.407.098l1.33-.184.06.102-.885 1.221c-.073.08-.08.168-.022.267l-.078.047-.427-.721.078-.046.047.078c.044.087.09.112.14.076a.223.223 0 0 0 .046-.048.66.66 0 0 1 .023-.014l.167-.237-.26-.439-.193.03c-.039-.005-.087.01-.144.043-.063.037-.071.095-.025.173l.06.102-.078.047ZM32.45 70.737l.07-.058.358.437-.35 1.299.006.007.635-.52c.087-.056.082-.158-.015-.305l.07-.058.37.451-.071.058c-.11-.106-.202-.122-.274-.047l-1.029.843-.138-.17.393-1.475-.006-.007-.768.629c-.101.058-.083.162.053.31l-.07.057-.399-.487.07-.057c.091.13.18.155.265.078l.86-.704c.088-.065.078-.159-.03-.281ZM33.956 73.659l-.427.448-.916-.846.08-.087 1.548-.441-.114-.105c-.253-.218-.484-.228-.69-.03l-.074-.069.39-.395.863.796-.111.12-1.497.428c.304.314.596.352.874.113l.074.068ZM34.867 74.008l.428.295.263-.383c.068-.086.042-.167-.077-.24l.052-.076.675.465-.052.075c-.131-.098-.223-.098-.275-.002l-.63.915c-.076.088-.043.174.099.257l-.052.075-.675-.465.052-.075c.108.089.192.084.253-.014l.31-.45-.428-.294-.31.45c-.075.087-.05.168.078.24l-.052.075-.667-.46.051-.075c.118.096.208.095.268-.003l.63-.915c.068-.086.037-.17-.091-.251l.051-.075.667.46-.051.075c-.117-.088-.2-.083-.253.014l-.264.382ZM36.392 75.054c-.215.435-.204.706.034.813.222.113.438-.05.647-.487.206-.433.198-.703-.027-.81-.235-.112-.453.049-.654.484Zm-.395-.189c.259-.427.624-.559 1.096-.393.415.258.54.624.374 1.096-.264.425-.624.552-1.08.381-.43-.252-.56-.614-.39-1.084ZM37.946 74.897l.784.237-.026.087c-.16-.055-.252-.028-.271.08l-.277.915c-.05.188.024.32.222.4.25.075.416-.014.5-.268l.244-.81c.041-.096-.022-.179-.191-.249l.026-.087.566.171-.026.087c-.158-.022-.245.015-.262.111l-.24.794c-.097.325-.341.43-.73.312-.377-.12-.525-.32-.447-.601l.266-.88c.037-.104-.017-.174-.164-.212l.026-.087ZM41.248 75.629l.818.003v.09c-.17-.006-.249.045-.237.154l-.004.956c.005.194.114.3.327.32.26 0 .394-.132.401-.4l.004-.845c.012-.103-.073-.164-.254-.183v-.091l.591.002v.09c-.158.025-.231.085-.22.182l-.002.828c-.002.34-.206.509-.612.507-.394-.008-.594-.157-.598-.448l.003-.919c.006-.109-.066-.16-.218-.155v-.091ZM42.997 75.72l-.013-.09.558-.082.932.968.01-.001-.119-.81c-.003-.104-.093-.153-.269-.145l-.013-.09.576-.085.014.09c-.148.04-.208.11-.182.21l.192 1.316-.216.031-1.061-1.096-.01.001.144.982c-.002.117.096.155.293.114l.013.09-.622.09-.013-.09c.158-.01.225-.072.203-.185l-.16-1.1c-.01-.108-.096-.148-.257-.118ZM46.074 76.641l-.815.225-.025-.087c.156-.03.215-.1.178-.21l-.295-1.07c-.023-.107-.11-.136-.26-.088l-.025-.088.816-.225.024.088c-.16.037-.219.107-.178.209l.296 1.07c.019.114.105.144.26.088l.024.088ZM45.844 75.145l-.034-.084.717-.29.034.084c-.14.057-.194.111-.16.163-.029-.008.186.256.644.79l.008-.003-.003-.155c-.018-.628-.033-.907-.044-.837-.032-.079-.107-.094-.225-.047l-.034-.084.49-.198.034.085c-.1.06-.146.134-.136.222l.043 1.445-.177.072-.91-1.086c-.074-.101-.156-.127-.247-.077ZM48.516 73.749l.303.487-.087.05c-.225-.22-.46-.263-.705-.129-.124.065-.155.139-.093.222l.228.394c.182-.084.242-.224.178-.418l.08-.046.322.56-.078.045c-.134-.147-.285-.165-.452-.054l.268.465c.044.1.124.11.239.03.254-.153.339-.395.254-.724l.087-.05.289.537-1.278.737-.045-.078c.142-.069.183-.151.12-.248l-.556-.962c-.049-.098-.14-.105-.274-.02l-.045-.08 1.245-.718ZM49.379 73.417l.31.393c.232-.168.273-.336.124-.505-.134-.149-.266-.18-.398-.091-.085.068-.097.135-.036.203Zm1.307.243.072-.056c.15.19.138.355-.038.495-.178.148-.347.12-.51-.086-.11-.12-.19-.186-.236-.196-.054-.02-.13.002-.228.064l.3.379c.072.12.171.124.297.009l.057.07-.65.516-.057-.072c.132-.088.159-.176.083-.263l-.69-.871c-.063-.09-.154-.083-.275.02l-.056-.072.643-.508c.308-.237.552-.247.73-.032.153.203.085.42-.206.65l.006.008a.449.449 0 0 1 .536.017c.17.127.26.166.266.115.037-.022.022-.084-.044-.187ZM51.288 73.585l-.446-.429.07-.072c.32.183.567.184.74.004.133-.14.14-.273.017-.399-.07-.067-.226-.04-.468.08-.323.17-.556.186-.7.047-.229-.236-.23-.489-.004-.76a.62.62 0 0 1 .287-.166.213.213 0 0 0 .076-.04c.021-.014.02-.056-.002-.129l.062-.065.4.384-.062.066c-.282-.145-.5-.145-.657 0-.113.136-.121.254-.025.355.08.075.231.053.456-.068.335-.182.584-.196.746-.04.21.235.203.488-.023.76a1.228 1.228 0 0 1-.317.237.247.247 0 0 0-.083.034c-.021.022-.023.067-.004.135l-.063.066ZM52.951 71.66l-.514.674-.072-.055c.105-.118.11-.21.015-.275l-.884-.675c-.083-.07-.17-.042-.261.087l-.072-.055.514-.673.072.055c-.104.127-.11.219-.015.275l.883.675c.085.08.172.05.262-.087l.072.055ZM51.816 70.52l.764-1.292.49.279-.056.094c-.298-.092-.506-.038-.623.16l1.073.634c.09.075.178.028.263-.14l.078.046-.462.783-.079-.046c.106-.156.107-.258.001-.306l-1.073-.634c-.12.204-.066.411.16.623l-.055.094-.481-.295ZM52.71 69.17l-.085-.035.3-.713.084.035c-.05.118-.05.183-.004.196.017.007.051.011.103.013a.09.09 0 0 0 .032-.006l.523-.046-.318-.37a.34.34 0 0 0-.103-.084c-.058-.018-.115.03-.17.146l-.084-.035.23-.546.083.036c-.04.141-.022.24.053.298l.498.575.386.162c.1.061.18.003.241-.175l.084.035-.345.822-.084-.035c.084-.169.07-.27-.04-.303l-.395-.166-.653.051c-.198.002-.31.05-.337.145Z" clip-rule="evenodd"/><path fill="#0067A5" fill-rule="evenodd" d="M42.113 48.887c8.346 0 15.114 6.768 15.114 15.113 0 8.346-6.768 15.113-15.114 15.113C33.768 79.113 27 72.346 27 64c0-8.345 6.768-15.113 15.113-15.113Zm0 .41c8.12 0 14.704 6.584 14.704 14.703 0 8.12-6.584 14.703-14.704 14.703-8.119 0-14.703-6.584-14.703-14.703s6.584-14.703 14.703-14.703Z" clip-rule="evenodd"/><path fill="#0067A5" fill-rule="evenodd" d="M42.113 53.708c5.684 0 10.292 4.61 10.292 10.292 0 5.683-4.608 10.292-10.292 10.292-5.683 0-10.291-4.609-10.291-10.292s4.608-10.292 10.291-10.292Zm0 .28c5.53 0 10.013 4.483 10.013 10.012 0 5.529-4.484 10.013-10.013 10.013S32.101 69.529 32.101 64s4.483-10.013 10.012-10.013Z" clip-rule="evenodd"/><path fill="#0067A5" fill-rule="evenodd" d="M49.938 64.01h.81v-.83h-.81v.83Zm-7.947-7.073h.074v-.191h.097v.191h.073v.208h-.073v.43l.054.166v.557l.172.206v.93h.234v1.745h.258v-.219h.275v1.016h3.754v-.585h.21v.175h.685v-.183h.21v.593h2.956v3.959H33.257v-3.96h2.956v-.592h.21v.183h.684v-.175h.21v.585h3.755V60.96h.274v.219h.259v-1.745h.233v-.93l.173-.206v-.557l.054-.167v-.429h-.073v-.208Zm7.679 7.822h1.078v-.675H49.67v.675Zm1.078.075h-1.253v.543h.425v-.408h.223v.408h.179v.323h.426v-.866Zm-2.923-.825h.93v-.83h-.93v.83Zm0 .75h1.238v-.675h-1.238v.675Zm0 .075h1.438v.543h-.488v-.408h-.256v.408h-.137v.323h-.557v-.866Zm0-1.716h.93V62.4h-.93v.718Zm1.906-.71h-.778v1.532h.244v.648h.34v-.648h.194v-1.532Zm-2.61-.427h.69v-.223h-.69v.223Zm-.057 3.72h.553v-3.414h-.553V65.7Zm-4.26-2.243h.258v-.403h-.258v.403Zm4.045-.403h-.23v.487h-.287v-.487h-.258v.487h-.287v-.487h-.258v.487h-.287v-.487h-.258v.487h-.287v-.487h-.258v.487h-.287v-.487h-.258v.487h-.287v-.487h-.258v.403h.078v.213h3.422v-.616Zm-.85 1.451h.417v-.746h-.417v.746Zm-.485 0h.417v-.746h-.417v.746Zm-.496 0h.428v-.746h-.428v.746Zm1.472 0h.36v-.746h-.36v.746Zm.36.069h-3.143v1.121h1.168v-.943h.22v.943h.27v-.943h.219v.943h.27v-.943h.22v.943h.27v-.943h.22v.943h.286v-1.121Zm3.087-1.458h.811V62.4h-.81v.718Zm-7.684.341h.264v-.403h-.264v.403Zm-8.774.551h.81v-.83h-.81v.83Zm0 .75h1.078v-.675H33.48v.675Zm0 .075h1.253v.543h-.426v-.408h-.222v.408h-.18v.323h-.425v-.866Zm1.993-.825h.93v-.83h-.93v.83Zm-.308.75h1.238v-.675h-1.238v.675Zm1.238.075h-1.439v.543h.489v-.408h.256v.408h.136v.323h.558v-.866Zm-.93-1.717h.93V62.4h-.93v.718Zm-.976-.71h.777v1.533h-.243v.648h-.34v-.648h-.194v-1.532Zm1.92-.426h.69v-.223h-.69v.223Zm.194 3.72h.553v-3.414h-.553V65.7Zm4.555-2.243h.258v-.403h-.258v.403Zm-3.787-.403h.23v.487h.287v-.487h.258v.487h.287v-.487h.258v.487h.287v-.487h.258v.487h.287v-.487h.258v.487h.287v-.487h.258v.487h.287v-.487h.258v.403H40.8v.213h-3.422v-.616Zm.433 1.451h.417v-.746h-.417v.746Zm.485 0h.417v-.746h-.417v.746Zm.485 0h.428v-.746h-.428v.746Zm-1.404 0h.36v-.746h-.36v.746Zm0 .069h3.143v1.121h-1.168v-.943h-.22v.943h-.27v-.943h-.22v.943h-.27v-.943h-.219v.943h-.27v-.943h-.22v.943h-.286v-1.121Zm-3.898-1.457h.81V62.4h-.81v.718Zm8.231.34h.264v-.403h-.264v.403Zm.565-4.015v-.793l-.162-.107-.161.107v.793h.323Zm-.47 1.739h.617v-1.496h-.617v1.496Zm-.468.794h1.553v-.532h-1.553v.532Zm.776.356c.077 0 .14.065.14.144v.042h.266v-.042c0-.08.062-.144.139-.144.077 0 .14.065.14.144v.042h.265v-.042c0-.08.063-.144.14-.144.076 0 .139.065.139.144v.042h.266v-.042c0-.08.063-.144.14-.144.076 0 .139.065.139.144v.042h.265v-.042c0-.08.063-.144.14-.144.076 0 .14.065.14.144v.042h.265v-.042c0-.08.063-.144.14-.144.076 0 .139.065.139.144v.042h.266v-.042c0-.08.062-.144.139-.144.077 0 .14.065.14.144v.042h.265v-.042c0-.08.063-.144.14-.144.076 0 .139.065.139.144v.042h.266v-.042c0-.08.062-.144.14-.144.076 0 .138.065.138.144v.042h.24v-.334h-9.471v.334h.24v-.042c0-.08.062-.144.139-.144.076 0 .139.065.139.144v.042h.266v-.042c0-.08.063-.144.14-.144.076 0 .139.065.139.144v.042h.265v-.042c0-.08.063-.144.14-.144.077 0 .14.065.14.144v.042h.265v-.042c0-.08.063-.144.14-.144.076 0 .139.065.139.144v.042h.266v-.042c0-.08.062-.144.139-.144.077 0 .14.065.14.144v.042h.265v-.042c0-.08.063-.144.14-.144.076 0 .14.065.14.144v.042h.265v-.042c0-.08.063-.144.14-.144.076 0 .139.065.139.144v.042h.265v-.042c0-.08.063-.144.14-.144.076 0 .14.065.14.144v.042h.265v-.042c0-.08.063-.144.14-.144Zm4.736.651v-.4h-.24v.284h-.278v-.283h-.266v.283h-.279v-.283h-.266v.283h-.279v-.283h-.265v.283h-.279v-.283h-.266v.283h-.279v-.283h-.266v.283h-.278v-.283h-.266v.283h-.279v-.283h-.266v.283h-.278v-.283h-.266v.283h-.28v-.283h-.265v.283h-.279v-.283h-.265v.283h-.28v-.283h-.265v.283h-.279v-.283h-.266v.283h-.278v-.283h-.266v.283h-.279v-.283h-.266v.283h-.279v-.283h-.265v.283h-.28v-.283h-.265v.283h-.279v-.283h-.24v.4h9.472Zm-3.809.723.667.48v.32h1.238v-.746h-1.598v-.223H40.88v.223h-1.598v.746h1.237v-.32l.668-.48h1.853Zm-.634.406c.256 0 .465.222.465.493v1.091h.239V64.19l-.192-.199h-1.609l-.192.2v1.505h.239v-1.09c0-.272.21-.494.465-.494h.585Zm.121.503v1.081h.16v-1.165a.279.279 0 0 0-.274-.282h-.599a.279.279 0 0 0-.274.282v1.165h.16v-1.08h.827Zm-.15 1.081v-.78c0-.028-.043-.051-.095-.051h-.338c-.051 0-.094.023-.094.05v.781h.526Zm-1.491.959h2.455v-.217h-2.455v.217Zm-.403.325h3.26v-.217h-3.26v.217Zm.846-.649h1.57v-.217h-1.57v.217ZM29.787 64.447c.244 0 .46-.19.46-.433a.474.474 0 0 0-.46-.46.474.474 0 0 0-.46.46c0 .243.217.433.46.433ZM54.412 64.447c.244 0 .433-.19.433-.433 0-.244-.19-.46-.433-.46a.474.474 0 0 0-.46.46c0 .243.217.433.46.433ZM39.374 69.717v-.335c.155-.062.303-.144.445-.246h.36v1.684h-.386v-1.319c-.13.088-.27.16-.419.216Zm1.304.69h.39c.022.134.085.203.188.206.203 0 .292-.18.266-.538a.422.422 0 0 1-.15.082.638.638 0 0 1-.195.023c-.319-.03-.495-.2-.53-.507.026-.356.236-.547.633-.573.427-.001.64.249.64.749.025.681-.195 1.016-.659 1.005-.383.005-.577-.145-.583-.448Zm.366-.757c.003.189.086.285.248.287.149-.003.225-.099.23-.287-.007-.2-.084-.301-.23-.307-.16.005-.242.107-.248.306Zm1.957.33c.002-.418-.074-.63-.228-.637-.154.007-.23.22-.228.637-.002.416.074.627.228.633.154-.006.23-.217.228-.633Zm.397 0c-.012.575-.222.866-.633.874-.4-.008-.605-.3-.616-.874.011-.578.217-.871.616-.88.41.008.621.302.633.88Zm.211.426H44c.021.135.084.204.188.207.203 0 .291-.18.266-.538a.422.422 0 0 1-.15.082.639.639 0 0 1-.195.023c-.32-.03-.496-.2-.53-.507.025-.356.236-.547.633-.573.427-.001.64.249.64.749.024.681-.195 1.016-.66 1.005-.383.005-.577-.145-.582-.448Zm.365-.757c.004.19.087.286.249.288.148-.003.225-.099.23-.287-.008-.2-.084-.301-.23-.307-.16.005-.243.107-.249.306ZM36.699 52.621c-.008-.016.042-.027.076-.042a.29.29 0 0 1 .049-.02c.027-.001.035-.002.094.017.059.02.098.036.127.02.03-.016.059-.03.064-.041.006-.012.008-.04.014-.068.006-.029.02-.054.018-.09-.001-.035-.006-.065-.001-.082a.415.415 0 0 1 .057-.12.666.666 0 0 1 .268-.094s.046.008.058.042c.011.033.05.129.058.142.008.013.016.025.048.029s.07.002.093-.052c.024-.054.062-.13.076-.171a.708.708 0 0 0 .032-.126c.005-.035 0-.095.018-.125a.142.142 0 0 1 .102-.075c.062-.014.101-.022.13-.026a.187.187 0 0 1 .06.003s.03.014.04.048c.012.033.02.07.029.078.008.01.085.072.158.031 0 0 .031-.014.04-.025a.276.276 0 0 0 .038-.105c.013-.064.013-.105.024-.15.01-.047.021-.146.05-.205.028-.058.049-.078.066-.105a.341.341 0 0 1 .111-.11c.098-.041.162-.005.267.016a.213.213 0 0 1 .096.039c.013.013.02.024.015.036-.006.01-.01.145-.049.23 0 0-.005.045-.002.065.003.02.023.054.023.082 0 .027.017.076.036.112.003.006-.003.02 0 .04.005.028.02.065.04.097.018.031.036.076.054.107.009.014.026.022.036.037.013.02.018.048.024.07 0 0 .004.02.003.039-.002.023-.01.048-.007.07.004.027 0 .048.018.07.009.01.039.017.055.03.054.047.148.192.148.26 0 .05-.07.118-.083.153-.013.036-.053.17-.088.194-.034.025-.11.043-.137.03-.027-.012-.067-.052-.067-.052l-.077-.023-.067.019s-.01-.03 0-.055a.354.354 0 0 0 .01-.122 1.142 1.142 0 0 0-.088-.295s-.011-.104-.033-.178c-.022-.074-.084-.18-.092-.24-.006-.059-.001-.129-.003-.15 0-.02-.005-.136-.034-.19-.03-.053-.058-.06-.08-.054-.022.006-.035.05-.045.084-.01.034-.056.123-.025.252 0 0 .012.061.04.065.026.004.065.024.075.045.01.02.035.101.036.122.001.02-.001.097-.025.116-.025.02-.067.02-.115.008-.047-.012-.085.015-.112-.015-.026-.03-.07-.034-.086-.094-.015-.06-.015-.06-.018-.101a.192.192 0 0 0-.048-.104c-.017-.017-.041-.006-.041-.006s0 .089-.015.112c-.014.024.001.1.011.16.011.057.01.1.012.15.002.049.056.154.072.18.017.026.116.202.099.273-.017.071-.02.136-.04.183-.02.047-.154.085-.154.085s-.078-.023-.113-.107c-.036-.084-.085-.154-.092-.205-.008-.051-.02-.15-.026-.198a1.508 1.508 0 0 1-.003-.196c.002-.048.016-.117.012-.153-.004-.036-.013-.108-.045-.097 0 0-.037.022-.047.098-.01.076-.022.132-.018.168.004.036-.044.113-.095.112 0 0-.054 0-.084.018-.03.018-.014.087-.008.117.006.031.097.296.101.378.005.082-.06.356-.107.416 0 0-.084.073-.127.106-.044.033-.09.008-.09.008l-.15-.063c-.028-.013-.037-.06-.07-.094-.033-.035-.022-.057-.005-.082.018-.025.088-.092.088-.092s.106-.222.09-.336c-.016-.115-.008-.287-.049-.347-.041-.061-.08-.14-.127-.135a.133.133 0 0 0-.086.037c-.01.01-.02.02-.027.037-.001.003-.003.006-.003.01a.113.113 0 0 1-.021.061s.01.054.007.085c-.002.03.02.1.048.141.02.03.046.078.041.112-.001.014-.02.025-.027.033-.076.088-.067.21-.206.126-.047-.028-.103-.04-.103-.04s-.029-.012-.08-.097c-.093-.156.015-.09-.001-.176-.005-.024.002-.068-.01-.101a.088.088 0 0 0-.035-.038c-.025-.009-.056-.013-.068-.036ZM50.913 57.065c.044.004.14.009.212.016a.35.35 0 0 1 .235.104s-.049.097-.06.139c-.012.04-.02.095-.134.172-.113.077-.105.06-.105.06s-.047.003-.166-.075c-.12-.078-.158-.113-.219-.161-.06-.048-.108-.12-.108-.12-.015.08.005.06.03.134.012.033.102.16.127.202a.292.292 0 0 1 .038.13c.004.047 0 .176.05.25 0 0 .099.098.142.102.044.004.145-.006.145-.006s.218.005.309-.111c.09-.117.089-.145.138-.237.049-.092.104-.218.18-.229 0 0 .092.018.13.017a.302.302 0 0 0 .113-.016.164.164 0 0 0 .053-.065c.01-.032-.007-.044-.013-.06-.017-.038.025-.061.053-.123 0 0-.023-.073-.06-.112-.039-.04-.066-.075-.172-.1-.105-.027-.204-.089-.363-.15-.159-.06-.361-.126-.456-.182 0 0-.113-.024-.181-.075-.07-.053-.094-.165-.193-.135-.024.008-.02.033-.02.033s-.016.122.003.19c.036.126-.025.273.118.341.067.018.13.063.174.067Zm1.693-1.691s-.2.223-.256.276a11.39 11.39 0 0 0-.293.294c-.026.03-.053.1-.086.148-.032.047-.046.072-.045.092.002.02.04.023.113.025.035.001.065.02.083.022.008 0 .012-.003.02 0l.084.023s.04.006.091.016a.483.483 0 0 0 .097.01c.022-.001.028.004.048.023.056.055.066.163.066.163 0 .014-.023.032 0 .05.014.012.04-.022.07-.018.021.003.044.031.069.056.05.049.046.072.044.121a.116.116 0 0 1-.023.072c-.023.026-.053.025-.083.03-.033.003-.064.011-.081.008a.412.412 0 0 1-.124-.043c-.01-.007-.038-.031-.076-.056a2.45 2.45 0 0 0-.177-.102c-.042-.022-.091-.035-.126-.052-.132-.06-.382-.222-.43-.246-.049-.023-.191-.111-.191-.111-.063-.004-.096.112-.102.145-.007.032-.008.076-.011.1-.004.025.03.072.03.072s.197.128.24.151c.043.023.284.092.284.092.068-.003.125-.005.176.008.098.025.16.082.19.087.043.006.196.01.196.01s.065.007.078.021c.014.014.024.053.026.077.002.025-.062.064-.1.063-.038 0-.17-.042-.17-.042s-.077-.024-.066-.008c.01.017.16.208.175.224.05.053.052.061.152.085.093.019.099-.008.127-.046a.842.842 0 0 0 .083-.26c-.003-.072-.012-.1.03-.119 0 0 .07.057.086.073.05.054.11.018.138-.034.05-.093-.03-.149.075-.16.013-.002.012 0 .023.006a.155.155 0 0 0 .096.012c.074-.012.383-.045.408-.041.024.003.12.003.137-.008.016-.01.054-.078.052-.13-.003-.11.051-.086-.025-.142a.156.156 0 0 0-.065-.03 1.757 1.757 0 0 1-.087-.026c-.063-.02-.142-.062-.168-.07-.138-.039-.097-.11-.028-.175.05-.048.071-.042.036-.114l-.041-.056c-.003-.004-.004-.008-.004-.01a.237.237 0 0 1 .065-.07.642.642 0 0 0 .096-.08.244.244 0 0 0 .038-.058s.004-.046-.008-.082c-.013-.036-.017-.09-.024-.126-.003-.016-.003-.03-.005-.042-.001-.007-.007-.019-.009-.025-.007-.036-.019-.036-.041-.013-.006.006-.01.018-.018.026-.025.024-.067.074-.102.082-.015.004-.053.03-.085.042-.039.016-.075.008-.095.016a.15.15 0 0 1-.095-.011c-.018-.009-.059-.053-.088-.077-.013-.01-.026-.02-.033-.018-.005 0-.004.01-.008.017l.003.041.015.077c.004.016.01.03 0 .055-.012.027-.094.047-.153.076-.058.028-.226.036-.226.036.02.038.088.019.127.018.063 0 .076.011.106.026.03.014.113.04.154.044.04.004.068.027.068.027.04.069-.033.105-.033.105s-.052.026-.134.042c-.082.016-.223.08-.255.068-.032-.012-.066-.117-.066-.117s-.03-.069-.041-.062c-.062.039-.028.027-.034.071-.003.025 0 .123 0 .123a.5.5 0 0 1-.326.056c-.012-.002-.028-.007-.024-.023.006-.024.007-.045.016-.056.008-.011.027-.03.043-.057.01-.016.029-.042.037-.062.021-.053.186-.28.218-.321.022-.029.094-.095.129-.142.015-.02.007-.043.012-.047.014-.014.024-.067.024-.067l.004-.03-.017-.018Zm.505.84.167.186c.023.03.015.058-.01.085a.513.513 0 0 1-.149.098c-.034.015-.066.038-.103.036a.222.222 0 0 1-.099-.043c-.006-.004-.12-.01-.122-.04-.001-.018.01-.085.011-.112-.003-.024-.015-.094-.015-.128 0-.006-.014-.04-.003-.049.012-.008.189-.026.28-.042.036-.006.034.003.043.008Zm-1.035-.811c.002.043-.005.183-.002.203.003.022.044.05.017.078l-.054.057c-.044.044-.098.1-.12.12-.015.013-.044.049-.085.084a.837.837 0 0 1-.135.091c-.024.013-.038.028-.034-.014a.08.08 0 0 1 .006-.022c.015-.035.02-.06.048-.09.028-.033.046-.083.068-.122.022-.038.082-.09.105-.124.023-.035.028-.062.05-.103a1.065 1.065 0 0 1 .13-.17c.007-.005.006.007.006.012ZM31.404 57.429s-.026.088.024.189c.019.036.075.073.1.124.03.058.037.118.085.197.003.005.022.02.041.052.01.016.008.04.022.06.01.013.037.021.046.034.014.02.014.041.028.057.026.028.067.04.091.025a.362.362 0 0 1 .163-.044c.036-.003.133-.08.107-.113-.02-.024-.043-.056-.098-.095-.056-.038-.224-.111-.32-.2-.098-.09-.17-.17-.211-.202-.042-.032-.078-.084-.078-.084Zm1.109-.723c.005-.015.027-.006.062-.012.021-.005.044-.017.061-.019.02-.002.042.015.083.015.145.003.227-.002.332.046 0 0 .078.042.094.107.017.064.004.078 0 .096a1.08 1.08 0 0 1-.104.13s-.07-.031-.101-.055a5.493 5.493 0 0 0-.239-.15c-.008-.004-.054-.01-.088-.032a.777.777 0 0 1-.102-.081l-.006-.022.008-.023Zm-1.41-.138c.007-.034.005-.063.006-.093a.358.358 0 0 0-.009-.092c-.004-.018-.02-.043-.025-.067-.023-.108-.037-.266-.071-.445-.006-.03-.022-.055-.033-.085-.009-.026-.013-.059-.018-.083-.026-.106-.015-.161-.031-.235-.021-.097-.043-.197-.046-.221-.007-.052-.007-.095-.018-.128-.011-.034-.003-.064.008-.074.01-.01.05.002.05.002s.09-.008.122.002.054.042.076.056c.013.008.061.032.105.029.035-.002.066-.03.088-.04 0 0 .045-.05.063-.007.018.045.011.059.005.071-.01.022-.015.038-.024.051-.007.01-.022.026-.03.042-.036.066-.136.235-.153.43-.004.046-.005.097-.008.148-.002.042-.006.084-.005.127.003.056-.008.11.001.164.004.023.013.045.014.065 0 .026-.007.049-.006.073.002.03.004.055.003.082 0 .031-.007.067-.012.1l-.014.088c-.002.013 0 .025-.001.038-.006.028-.004.04.026.048.015.005.018.006.03-.005.023-.02.065-.12.088-.261l.043-.262s.01-.126.01-.161.018-.031.018-.031.04-.008.046.007c.006.014.018.027.018.027s.053.01.088-.008c.02-.01.018-.053.021-.08.005-.038-.001-.169.007-.228a.49.49 0 0 1 .04-.136c.018-.036.043-.068.06-.1.037-.075.05-.133.073-.185.02-.046.04-.11.094-.094 0 0 .049.017.055.036a.172.172 0 0 0 .045.076c.024.019.1.154.151.204.051.05.5.475.613.548.113.073.182.137.207.16.025.024.269.198.28.206.011.01.45.327.495.366.045.039.17.13.185.146.01.01.107.082.123.102.02.023.016.055.007.076a.52.52 0 0 0-.044.12.395.395 0 0 1-.055.096.062.062 0 0 1-.05.022.218.218 0 0 1-.078-.018c-.016-.007-.044-.011-.077-.02-.043-.01-.096-.024-.165-.029a17.568 17.568 0 0 1-.24-.018c-.01 0-.011-.002-.02-.008-.02-.014-.062-.04-.055-.051.003-.007.031-.043.06-.081.024-.03.044-.061.062-.075.006-.005.036-.008.074-.014.034-.006.061-.016.074-.036.011-.016.043-.024.05-.057.005-.032-.024-.037-.04-.05-.011-.008-.327-.297-.42-.365-.062-.045-.248-.175-.39-.282a1.654 1.654 0 0 1-.16-.131c-.083-.086-.25-.225-.281-.26-.032-.035-.229-.213-.268-.265l-.078-.101c-.022-.034-.056-.045-.06-.019a.13.13 0 0 1-.042.08c-.034.033-.079.036-.094.051a.549.549 0 0 0-.07.207c.001.026.034.154.02.19-.014.037-.038.11-.066.128l-.052-.004c-.027-.003-.065.004-.088.034-.023.03-.018.136-.012.166a.16.16 0 0 0 .021.053s.059-.057.078-.082c.097-.125.085-.113.223-.053 0 0 .055-.075.065-.107.01-.032.05-.008.05-.008s.028.025.035.044c.006.02.038.154.04.207a.137.137 0 0 0 .048.102c.02.016.042.022.065-.004.024-.025.034-.076.125-.034 0 0 .052.018.052.037 0 .018.005.083.003.104-.001.02.05.236.119.35 0 0 .005.055.168.131.164.076.207.105.221.124.015.018.128.066.115.27 0 0 .004.095-.123.084 0 0-.072-.001-.145-.062a1.109 1.109 0 0 0-.082-.064c-.012-.008-.011-.004-.02.008-.01.017-.027.046-.019.062.011.023.045.064.063.088a.29.29 0 0 1 .035.148c-.005.02-.015.034-.036.039a.123.123 0 0 1-.05 0c-.02-.003-.045 0-.062-.006-.028-.01-.043-.032-.043-.065 0 0-.014-.057-.02-.124s-.008-.116-.013-.138c-.005-.022-.008-.057-.022-.076-.015-.018-.12-.095-.14-.111 0 0-.031-.006-.043.014-.012.02-.022.041.002.067.024.026.041.046.029.062-.013.016-.086.072-.13.041-.046-.03-.088-.07-.093-.126 0 0 .02-.086.014-.168-.006-.081-.023-.13-.05-.155-.029-.026-.028-.036-.028-.036s-.024.069-.026.118c-.002.05.009.13-.002.163-.01.032-.01.06-.028.07-.017.008-.03.023-.114.024-.084 0-.12.038-.18.025-.059-.013-.048-.045-.048-.078s.063-.12.07-.167c.009-.049.039-.153.048-.226.01-.073.022-.198.026-.231.004-.034-.009-.055-.009-.055l-.093-.087s-.026.006-.064.05c-.037.043-.056.025-.118.2 0 0-.028.083-.062.126-.033.044-.043.033-.06.055a.644.644 0 0 1-.073.075.523.523 0 0 1-.174.035c-.011-.003.047-.074.07-.122.024-.048.049-.098.053-.122a.132.132 0 0 0 .003-.03c0-.014-.002-.026.002-.038a.049.049 0 0 1 .011-.024c.008-.01.015-.012.02-.036Zm-.656.227c.014-.042.042-.06.062-.123.012-.038.013-.066.023-.106.012-.046.03-.09.026-.129 0 0-.002-.023 0-.055.003-.024.013-.054-.002-.083-.01-.019-.034-.027-.068-.044l-.007-.003c-.01-.005-.024-.004-.032-.011-.036-.033-.1-.048-.124-.085-.016-.026-.009-.054.005-.078.008-.015.008-.033.038-.037.023-.003.108.007.132.002.024-.005.064-.024.082-.03.018-.007.096-.026.13.01.009.009.039.027.053.032.015.005.017-.011.025-.01.016.002.05.005.072.012.022.006.062-.004.067.044.003.032-.029.047-.022.07.003.01.016.02.025.044.013.035.04.094.031.125-.011.037-.063.046-.076.065-.024.036-.017.093-.02.149-.002.056-.018.18-.009.198.01.017.006.059.002.082-.005.024-.031.041-.067.044-.026.002-.074-.005-.114-.008-.015-.001-.031-.007-.042-.003-.038.015-.09.007-.11.007-.015 0-.046.015-.065.012-.026-.004-.026-.06-.015-.09ZM47.008 53.16s.068.032.084.058c.01.017.064.165.074.19.01.026.067.046.098.107.02.044.02.102.032.156.01.042.032.083.04.103.029.076.045.286-.01.31-.021.01-.065-.015-.096-.01-.052.01-.125.018-.162.021-.06.005-.098.046-.147.034-.048-.012-.067-.029-.06-.08.009-.05.096-.271.107-.378.022-.229.047-.41.04-.511Zm-1.607-.937c.033.018.072.063.118.07.047.008.43.074.6.065.172-.01.233-.002.274-.01.04-.007.133.01.194-.074.061-.084.186-.266.226-.349.04-.082.084-.205.1-.252a.372.372 0 0 0 .008-.218s-.008-.078.026-.11c.034-.03.099-.036.115-.054a.045.045 0 0 1 .038-.013c.008 0 .02.008.023.01a.037.037 0 0 1 .013.017c.008.019.043.105.076.16.036.062.131.227.14.264.009.037.02.1-.017.155 0 0-.039.042-.061.074-.022.032-.01.091-.049.104a.373.373 0 0 0-.148.102.462.462 0 0 0-.053.111c-.007.026-.013.06-.013.06s.02.01.056.005c.036-.006.108 0 .146-.009.018-.004.08.001.134-.013.033-.008.056-.034.087-.041.02-.005.043 0 .058-.004.021-.006.041-.006.054-.01.017-.006.024-.016.035-.024.018-.013.017-.033.014-.052a.141.141 0 0 0-.01-.036c-.006-.012-.008-.028-.016-.043-.002-.005-.003-.008-.001-.012l.004-.008c.003-.005.01-.005.014-.002.013.01.054.043.069.067.017.03.071.1.08.13.009.032-.01.053-.033.056-.015.002-.078.007-.139.016-.025.004-.055.007-.07.014-.028.012-.07.022-.11.05-.036.025-.06.063-.1.073-.085.022-.211.02-.251.036-.04.016-.12.045-.164.08-.044.035-.069.082-.096.087-.027.005-.096.059-.12.074-.023.015-.075.108-.122.16-.047.05-.115.158-.127.186-.012.028-.054.076-.088.116a.29.29 0 0 1-.215.103s-.09-.001-.141.013c-.053.015-.105.027-.148.038-.042.01-.123.034-.311-.023-.188-.056-.225-.076-.328-.1-.09-.02-.25-.062-.288-.072-.015-.003.001-.041.024-.036a.67.67 0 0 0 .09.012c.056.004.213-.032.341-.048a1.5 1.5 0 0 0 .356-.072c.087-.037.307-.083.387-.124.08-.04.199-.18.214-.216 0 0-.001-.054-.049-.05-.047.004-.241.037-.304.04-.064.001-.105-.009-.219.013-.113.022-.19.055-.248.005-.058-.05-.085-.111-.128-.197a.673.673 0 0 1-.069-.2c-.002-.02.013-.034.032-.05.02-.017.058-.061.09-.044Z" clip-rule="evenodd"/></g><defs><filter id="a" width="154" height="157" x="0" y="0" color-interpolation-filters="sRGB" filterUnits="userSpaceOnUse"><feFlood flood-opacity="0" result="BackgroundImageFix"/><feColorMatrix in="SourceAlpha" result="hardAlpha" values="0 0 0 0 0 0 0 0 0 0 0 0 0 0 0 0 0 0 127 0"/><feOffset dy="16"/><feGaussianBlur stdDeviation="6.5"/><feColorMatrix values="0 0 0 0 0 0 0 0 0 0 0 0 0 0 0 0 0 0 0.03 0"/><feBlend in2="BackgroundImageFix" result="effect1_dropShadow_185_90"/><feBlend in="SourceGraphic" in2="effect1_dropShadow_185_90" result="shape"/></filter></defs></svg>