<svg xmlns="http://www.w3.org/2000/svg" width="154" height="157" fill="none"><g filter="url(#a)"><path fill="#fff" d="M13 0h128v128H13z"/><path fill="#A7202C" fill-rule="evenodd" d="M39.808 63.164h1.653v-5.003l-3.906 1.974v8.45h2.253v-5.42ZM44.46 68.585h2.254v-8.45l-3.906-1.974v5.003h1.652v5.421ZM40.23 67.984h3.912v-.362H40.23v.362ZM40.23 68.672h3.912v-.362H40.23v.362ZM39.002 69.347h6.427v-.362h-6.428v.362ZM37.108 70.216h10.215v-.458H37.108v.458Z" clip-rule="evenodd"/><path fill="#A7202C" fill-rule="evenodd" d="M42.24 78.748c-7.992 0-14.51-6.517-14.51-14.509 0-7.99 6.518-14.509 14.51-14.509 7.99 0 14.508 6.518 14.508 14.51 0 7.99-6.517 14.508-14.509 14.508Zm0-29.748C33.845 49 27 55.846 27 64.24c0 8.393 6.846 15.239 15.24 15.239 8.393 0 15.239-6.846 15.239-15.24 0-8.393-6.846-15.239-15.24-15.239Z" clip-rule="evenodd"/><path fill="#A7202C" fill-rule="evenodd" d="M42.167 55.643c4.695 0 8.524 3.829 8.524 8.523 0 4.696-3.83 8.525-8.524 8.525-4.695 0-8.524-3.83-8.524-8.525 0-4.694 3.829-8.523 8.524-8.523Zm0 17.853c5.138 0 9.329-4.191 9.329-9.33 0-5.138-4.19-9.328-9.33-9.328-5.138 0-9.329 4.19-9.329 9.328 0 5.139 4.191 9.33 9.33 9.33ZM47.505 54.723l-.093-.073-.082-.085s-.064-.056-.08-.078a2.122 2.122 0 0 1-.06-.089l-.034-.092-.033-.085-.023-.116c-.007-.04-.038-.095-.038-.095l-.051-.114-.079-.082-.077.013-.028.055-.016.063.036.11.03.072.026.087.024.092.015.087.02.101.045.147.034.116.044.062.073.06s.084.081.114.087c.03.006.124.068.124.068s.107.046.132.05c.026.003.094.02.094.02l.046-.027.064-.04.03-.059-.025-.069-.046-.027-.186-.159Z" clip-rule="evenodd"/><path fill="#A7202C" fill-rule="evenodd" d="m45.48 54.32.045.04.072.007.095-.015.066-.021.085-.039.084-.015.108-.073.081-.041.064-.04.04-.012.096-.008.107-.038.127-.068.066-.097.068-.091.033-.076.08-.09.123-.093.123-.07.19-.007.191.02.118-.008.097-.061.037-.062.017-.086-.056-.105-.11-.083-.092-.025h-.06l-.07-.012-.053-.044.008-.06.046-.057.083-.046.055-.02.028-.056-.01-.054.007-.078.01-.096-.013-.092-.026-.057-.035-.069-.07-.012-.08-.024-.082-.013-.05.036-.04.078-.017.097s.032.085.049.107a.395.395 0 0 1 .033.062l-.018.079-.033.075-.044.087-.032.041-.017.032-.05-.006-.105-.02-.107-.005-.1-.03-.127-.016-.095.003-.111.005-.131.011-.007.098.012.084.027.076.035.08.046.07.069.047.074.069.07.054.013.06-.08.115-.076.128-.105.11-.09.09-.191.076s-.12.019-.147.02c-.028.002-.116.003-.116.003l-.085-.027-.09-.025-.087.05-.044.057-.003.059.034.05.043.067ZM52.055 57.542l.106-.025.065-.078.028-.093-.015-.122.004-.147.003-.082.079-.107.053-.063.076-.103c.022-.03.084-.094.084-.094l.064-.12.005-.105-.019-.117-.046-.09-.028.017-.083.004-.095.077-.071.173-.008.153-.04.165-.066.111-.106.135-.106.168-.03.107-.007.096.04.11.113.03ZM52.252 58.802l.123-.037.101-.03.083-.037.083-.07.016-.087-.133-.081-.207-.054-.276-.07-.183-.033-.073.012-.03.108.005.08.049.075.113.03.113-.002.114-.002-.072.064-.093.129s-.032.022-.031.065c0 .042.032.086.032.086l-.01.058-.044.071-.096.001h-.127l-.138-.02s-.098-.05-.143-.056c-.044-.005-.142-.023-.142-.023l-.098-.051-.063.063.03.092.058.051.057.075.138.061.121-.013.15.037.1.037.075.04-.043.08-.08.089-.067.102-.028.06-.056.043-.12-.011-.126-.034-.117-.026-.087.033s.048.042.07.078c.022.036.086.09.086.09l.076.05.125.058.161-.003.124-.027.088-.067.103-.086.08-.099.066-.102.045-.095.13.03.05.042.056.032.095.023.076-.018.036-.136-.004-.104-.023-.078-.107-.093-.092-.005-.084-.039-.065-.064-.005-.08.01-.134.025-.078Z" clip-rule="evenodd"/><path fill="#A7202C" fill-rule="evenodd" d="m50.884 57.945.126.025.12-.013.128-.066s.152-.01.191-.01l.206.002.27.057.186.028.167.044a14.988 14.988 0 0 0 .396.048l.203.05.132.048.135.1.123.114.029.201.019.084-.05.057-.076.094-.082.046-.068.05.07.035.092.005.088.043.106.04.09.062.086-.018s.028-.093.042-.123c.014-.03-.017-.098-.017-.14-.001-.043-.023-.08-.035-.14a.23.23 0 0 0-.027-.082l-.022-.102-.045-.156-.042-.062-.04-.077-.071-.078-.075-.04-.117-.067c-.029-.017-.123-.04-.123-.04l-.091-.028.006-.053.088-.033.101.004.082-.013.136.009.093-.062.056-.077-.01-.094-.047-.09.007-.086.012-.082.038-.085.082-.113.085-.06.094-.02.119.011.136.043.088.076.102.013.069-.05.024-.088-.017-.107-.022-.07-.07-.068.005-.104.005-.139-.019-.083-.101-.08-.073-.02-.067.059-.033.089v.076l-.022.064-.048.11-.109.039-.125.051-.14.03-.19.02-.125.017-.035.07.026.074.064.054.07.069-.017.044-.063.021-.058.101.031.078.071.044-.016.078-.071.064-.065.045-.095.043-.132-.005-.113-.03-.074-.074.003-.08.05-.091.062-.03.07-.074.004-.072-.01-.075-.062-.121-.037-.048.023-.065.093-.104.09-.08.122-.113c.024-.021.039-.075.053-.105.014-.03.026-.179.035-.212l-.081.013-.087.009-.07.04-.09.081-.028.126.02.093-.048.11-.057.1-.076.093-.057.078-.078.184-.037.16.035.148.04.176.028.092-.051.048-.102-.08-.101-.08-.1-.026-.09-.02-.1-.003-.142.02-.158-.003-.102.02-.197-.036s-.111-.011-.144-.032c-.033-.02-.108-.017-.108-.017l-.083-.005-.008-.066.082-.046-.07-.003-.136.034-.104.01-.119.065-.023.13.08.087.11.07ZM32.748 57.556l-.044.074-.036.067-.037.075-.098.136-.048.042-.031-.043-.025-.077.001-.106.04-.125.024-.03.083-.101.12-.063.055.022.043.102-.047.027Zm.29.068s.134-.442-.088-.555c-.223-.113-.472.247-.48.255-.008.007-.215.414-.215.414l-.09-.068.008-.274.04-.161.025-.233v-.126l-.064-.113-.092-.017-.105.037-.029.095-.054.265-.07.218-.104.154-.045.075.146-.01.087-.034.068.038.052.115s.099.321.053.67c-.045.35.209.245.238.071.023-.133.025-.153.025-.155l.059-.045.101.03.19.22-.041.302-.083.263-.072.267.016.12.13-.066.12-.086.043-.184.028-.194.108-.193.508.711-.237.208.36.056s.335.034.286-.246c-.048-.28-.116-.255-.116-.255l-.617-.833s.184-.296.21-.34c.027-.045-.008-.154-.024-.176-.016-.02-.19.013-.214.07a3.422 3.422 0 0 1-.178.276l-.069-.066.021-.32.164-.18Z" clip-rule="evenodd"/><path fill="#A7202C" fill-rule="evenodd" d="M30.945 57.791c-.071-.105-.012-.846-.157-.578-.145.269-.129.88.007 1.223.136.344.27.302.397.009.126-.294.028-.587.087-.998.06-.41.356-.974.692-1.376.337-.402.563-.285.586-.236.024.05-.01.121-.019.34-.003.069.015-.003.084-.054.152-.112.425-.36.378-.473-.04-.095-.122-.087-.293-.096-.085-.005-.152-.01-.282.017-.06.012-.144-.008-.227.05-.493.342-.651.736-.811 1.01-.16.275-.255.843-.306 1.077-.051.235-.064.19-.136.085ZM30.888 56.222c.053.015.092.187.092.187s-.004.024.075-.054c.08-.079.18-.125.201-.27a.19.19 0 0 0-.183-.221c-.076.005-.241-.064-.352.087-.11.15.02.311.02.311s.094-.054.147-.04ZM37.38 52.66l.062.063.109.002.096-.004.108-.071.024-.059.032-.09-.01-.113-.027-.11-.068-.051-.102.004-.117.03-.102.077-.047.05.017.13.024.142ZM37.651 54.564l-.027.077.012.138-.03.108-.026.095.026.104.063.063.102.057.094-.039.016-.075.043-.092.094-.045.064-.107.01-.14-.04-.14-.09-.107-.091.069-.044.085-.056.015-.12-.066ZM37.712 53.196l-.131-.064-.092-.004-.072.09-.04.073-.005.128.066.105.054.094.052.065.093.01.083-.086.064-.119.029-.132-.025-.087-.076-.073ZM39.145 54.003l-.09.014-.058-.076-.025-.08.035-.067.053-.039s.029-.004.028-.01l.075.067.026.105-.044.086Zm-.672.669.088-.038.06-.089.041-.121-.033-.122-.013-.205.023-.124.044-.213.068-.266.036-.18.043-.153-.002-.097.049-.087.064-.046.06-.028.026.027.005.054.024.08.053.017.12-.007.108.001.032.038.025.08.007.085-.024.052-.044.085-.055.088-.064.052-.133-.021-.118-.037-.097-.002-.029.065-.001.115.009.296.026.232.045.12.102.045.064.014.069-.059.06-.1.06-.083.069-.07.075-.055.092.065.163.095.108.068.047.072.078.042.086.005c.035 0 .113-.012.113-.012l.096-.02.069-.06.068-.071.066-.096.006-.061-.068.01-.122-.017-.098-.015-.123-.036-.119-.047-.119-.048-.097-.07-.086-.065-.074-.056-.034-.061.052-.063.1-.16.033-.079.009-.092-.024-.136-.093-.149-.076-.091-.09-.035s-.082-.023-.111-.037c-.03-.013-.112-.037-.112-.037l.011-.062.033-.084.072-.09.078-.091.071-.096.054-.033.07.001.02.04-.027.083-.031.102-.017.063.092.003.088-.031.119-.02.077-.035.063-.053.058-.057-.022-.118-.075-.08-.122-.078-.069-.067-.054-.028-.083-.036-.16.007-.106.017-.063.004.009-.16.013-.11.008-.105.034-.133.02-.1.03-.095-.021-.058-.073-.043-.072-.043-.124.025-.116.042-.018.058.014.155.012.271.011.253s.043.279.045.309l.022.25-.066.09-.052.057-.106.101-.118.08-.005-.055v-.127l.005-.14-.031-.347-.033-.177-.039-.115-.06-.045-.064.059-.051.135-.041.115.012.138.046.647s.049.23.046.26c-.003.031-.005.334-.005.334l-.005.14-.006.123-.028.138-.03.168-.034.133v.139l-.01.13-.005.085.045.053.082.018ZM31.802 66.597l-1.92.272 1.751-1.466-.055-.389-2.373.337.044.311 1.92-.272.001.013-1.748 1.478.051.363 2.373-.336-.044-.311ZM29.73 68.151l2.266-.783.107.31-2.266.783-.107-.31ZM33.029 69.69l-1.711.912 1.143-1.976-.184-.347-2.115 1.128.148.278 1.71-.912.006.011-1.137 1.987.172.323 2.115-1.127-.148-.277ZM33.163 71.817l-.204.184.491.544c-.208.2-.423.282-.643.246a.805.805 0 0 1-.45-.265c-.357-.395-.29-.815.204-1.26.478-.395.896-.42 1.255-.074.257.297.291.59.104.877l.21.233c.305-.392.271-.82-.101-1.285-.494-.495-1.056-.5-1.687-.012-.323.28-.488.6-.494.958-.006.24.1.48.315.72.235.247.494.366.78.356l-.171.26.14.155.953-.86-.702-.777ZM35.128 73.528l-.46-.346.448-.597.461.347c.265.199.327.393.185.581-.155.222-.367.227-.634.015Zm.094.923c-.175.217-.398.23-.669.038l-.554-.417.503-.67.503.378c.307.23.38.454.217.67Zm.81-.751c.216-.318.16-.613-.172-.883l-.848-.638-1.44 1.916.827.622c.23.173.457.234.68.184a.63.63 0 0 0 .404-.254c.173-.23.173-.476-.001-.738a.506.506 0 0 0 .55-.21ZM37.915 75.352c-.271.55-.654.738-1.15.566-.48-.232-.612-.638-.395-1.22.273-.576.66-.773 1.16-.59.47.237.597.651.385 1.244Zm-.277-1.497c-.298-.125-.573-.147-.826-.065-.332.135-.584.393-.755.776-.121.31-.15.61-.083.903.098.307.327.537.689.69.338.143.647.15.929.024.268-.143.476-.377.624-.703.131-.333.156-.66.073-.98-.105-.29-.322-.505-.651-.645ZM40.942 76.409c-.076.43-.325.612-.747.547-.386-.077-.545-.33-.478-.762l.26-1.484-.323-.056-.276 1.574c-.048.275.005.506.158.692.143.15.343.246.6.291.31.055.555.026.733-.084a.963.963 0 0 0 .389-.623l.266-1.522-.322-.057-.26 1.484ZM43.442 74.87l.138 1.933-1.34-1.848-.392.028.17 2.39.314-.022-.138-1.933.013-.001 1.353 1.847.365-.026-.17-2.39-.313.021ZM44.88 77.038l-.542-2.335.319-.074.542 2.335-.32.074ZM46.747 73.947l.086 2.156-1.37-1.662-.342.132 1.68 1.921.33-.127-.042-2.552-.342.132ZM48.715 75.225l-.424-.676 1.11-.695-.153-.245-1.11.696-.396-.633 1.198-.751-.145-.233-1.477.925 1.273 2.03 1.498-.938-.153-.244-1.221.764ZM50.558 72.437l-.527.547-.594-.572.563-.585c.2-.207.397-.217.592-.03.201.194.19.407-.034.64Zm1.29.133-.33-.28c-.182-.176-.359-.213-.53-.111a.612.612 0 0 0-.178-.646c-.183-.175-.363-.233-.541-.174-.148.028-.306.13-.476.305l-.772.801 1.725 1.663.228-.235-.745-.718.545-.566c.206-.214.41-.218.611-.011.213.193.37.32.47.38l.282-.293-.038-.036c-.085.039-.17.013-.251-.079ZM53.07 70.158c-.293-.19-.574-.159-.841.095l-.503.486c-.126.147-.262.173-.409.078-.227-.147-.247-.373-.06-.679.224-.313.469-.394.735-.242l.163-.253c-.434-.26-.815-.138-1.143.368-.128.198-.184.38-.167.547.01.225.12.41.327.555.242.156.496.118.761-.115l.359-.361c.15-.152.27-.241.36-.266.09-.026.185-.005.288.061.215.15.212.403-.008.76-.24.354-.517.435-.83.243l-.17.264c.222.154.436.194.64.118.194-.041.383-.204.568-.49.142-.22.222-.44.238-.657 0-.208-.102-.379-.308-.512ZM53.97 69.72l-2.192-.972.133-.299 2.191.973-.133.299ZM52.942 66.236l-.263-.08-.565 1.854.263.08.236-.777 2.03.618.092-.3-2.03-.618.237-.778ZM54.148 65.013l-1.345-1.023-.032.378 1.088.791-1.206.58-.033.377 1.5-.777.965.084.029-.327-.966-.083ZM85.126 76.145c-.663-.014-.995-.605-.995-1.773.029-1.153.36-1.743.995-1.773.62.03.943.62.971 1.773 0 1.168-.323 1.759-.971 1.773Zm0-3.74c-1.24.087-1.896.742-1.968 1.967.072 1.225.728 1.867 1.968 1.924 1.224-.057 1.873-.699 1.944-1.924-.071-1.225-.72-1.88-1.944-1.966ZM76.704 74.783c.246.014.397.043.454.086.072.043.108.145.108.304v.582c.03.275-.159.404-.562.39-.72-.014-1.081-.605-1.081-1.773 0-1.181.338-1.773 1.017-1.773.532.03.965.404 1.296 1.125h.13v-1.297h-.152c-.057.172-.136.26-.237.26-.03 0-.115-.03-.26-.088-.33-.129-.605-.193-.82-.193-1.212.085-1.867.749-1.968 1.988.087 1.225.756 1.859 2.01 1.902.678-.029 1.174-.13 1.492-.303v-.712c0-.203.028-.332.087-.39.042-.058.172-.094.388-.108v-.13h-1.902v.13ZM67.871 72.622c.36 0 .534.136.52.41v2.66c0 .143-.036.245-.108.301-.059.044-.195.08-.412.108v.13h1.946v-.13c-.375 0-.555-.136-.54-.41v-2.659c-.015-.274.151-.41.497-.41h.043v-.13h-1.946v.13ZM92.69 72.622c.39 0 .57.187.541.561v1.686c.029.793-.296 1.189-.973 1.189-.548 0-.814-.36-.8-1.08V73.14c0-.216.037-.352.109-.41.043-.073.187-.108.432-.108v-.13h-1.88v.13c.202.014.323.057.367.13.058.057.087.187.087.388v1.838c-.015.475.115.814.389 1.015.259.203.633.303 1.124.303.475-.014.835-.137 1.08-.367.188-.202.288-.555.303-1.06v-1.771c-.03-.304.116-.462.432-.476v-.13h-1.21v.13ZM66.189 72.622c.376.014.548.201.519.561v1.665l-1.924-2.356h-1.167v.13c.072-.015.23.122.476.41v2.616c0 .159-.036.266-.108.324-.058.058-.188.1-.39.13v.13h1.254v-.13c-.374 0-.548-.188-.519-.562v-2.206l2.465 2.962h.151v-3.22c-.03-.275.115-.426.431-.454v-.13H66.19v.13ZM72.86 72.622c.375.014.548.201.52.561v1.665l-1.924-2.356h-1.168v.13c.072-.015.23.122.476.41v2.616c0 .159-.036.266-.108.324-.058.058-.187.1-.39.13v.13h1.254v-.13c-.375 0-.548-.188-.518-.562v-2.206l2.464 2.962h.151v-3.22c-.03-.275.116-.426.432-.454v-.13h-1.19v.13ZM80.806 76.058c-.23.015-.338-.1-.323-.346V74.33h.151c.562.015.843.31.843.886 0 .563-.223.843-.67.843Zm-.323-3.134c-.015-.172.08-.26.28-.26.39 0 .584.239.584.714 0 .317-.057.526-.173.627-.115.115-.346.173-.691.173v-1.254Zm.907 1.296v-.02c.577-.13.865-.404.865-.822-.014-.577-.496-.872-1.449-.886H79.1v.13c.346 0 .511.136.498.41v2.659c0 .144-.037.245-.108.302-.058.044-.188.08-.39.108v.13h1.794c.98-.028 1.492-.374 1.535-1.037-.014-.533-.36-.858-1.038-.974ZM115.644 74.156l-.8-.39c-.245-.114-.404-.215-.476-.302-.071-.086-.107-.209-.107-.367.014-.316.215-.49.605-.519.504.015.865.353 1.08 1.017h.151v-1.19h-.171c-.015.13-.073.194-.174.194a.827.827 0 0 1-.238-.064 1.941 1.941 0 0 0-.626-.13c-.779.014-1.19.383-1.232 1.103-.029.461.287.85.95 1.166l.368.195c.432.159.641.382.627.67-.029.39-.26.592-.692.605-.577 0-.958-.389-1.145-1.166h-.152v1.318h.152c.028-.1.086-.152.173-.152.042 0 .122.015.237.044.26.072.497.108.714.108.85-.029 1.304-.403 1.361-1.123 0-.448-.201-.786-.605-1.017ZM116.871 72.622c.361 0 .533.136.52.41v2.66c0 .143-.036.245-.108.301-.058.044-.195.08-.412.108v.13h1.947v-.13c-.376 0-.556-.136-.541-.41v-2.659c-.015-.274.151-.41.497-.41h.044v-.13h-1.947v.13ZM119.375 72.492l-.021 1.102h.15c.073-.634.432-.944 1.081-.929v2.918c0 .216-.036.353-.108.41-.029.059-.172.094-.432.108v.13h1.967v-.13c-.26-.014-.404-.05-.432-.108-.073-.056-.109-.194-.109-.41v-2.918c.649-.015 1.002.295 1.06.93h.172l-.021-1.103h-3.307ZM96.967 72.622c.375.014.547.201.519.561v1.665l-1.924-2.356h-1.168v.13c.072-.015.231.122.477.41v2.616c0 .159-.037.266-.108.324-.059.058-.188.1-.39.13v.13h1.253v-.13c-.374 0-.547-.188-.517-.562v-2.206l2.464 2.962h.15v-3.22c-.029-.275.116-.426.433-.454v-.13h-1.19v.13ZM125.79 72.492v.13c.317.014.469.1.454.259-.015.144-.087.31-.216.497l-.606 1.037-.67-1.296c0-.015-.014-.036-.043-.065a.67.67 0 0 1-.086-.238c-.044-.144.107-.21.453-.194v-.13h-1.858v.13c.187.014.331.115.432.302l1.016 1.837v.822c0 .202-.036.331-.108.39-.044.071-.18.114-.41.128v.13h1.923v-.13c-.231-.014-.368-.05-.411-.108-.057-.056-.087-.194-.087-.41v-1.016l1.06-1.73a.483.483 0 0 1 .346-.215H127v-.13h-1.21ZM103.66 72.622c.201.014.323.035.367.064.072.029.108.094.108.195a1 1 0 0 1-.086.302.336.336 0 0 0-.022.087l-.713 1.816-.714-1.751c-.115-.231-.172-.39-.172-.476 0-.101.028-.158.086-.173.043-.029.173-.05.389-.064v-.13h-1.859v.13c.216 0 .375.13.475.389l1.406 3.285h.151l1.253-3.22c.102-.303.267-.454.497-.454v-.13h-1.166v.13ZM98.649 72.622c.36 0 .533.136.519.41v2.66c0 .143-.036.245-.108.301-.058.044-.194.08-.411.108v.13h1.946v-.13c-.376 0-.555-.136-.541-.41v-2.659c-.014-.274.152-.41.498-.41h.043v-.13h-1.946v.13ZM107.157 76.058c-.346.015-.504-.086-.475-.303v-1.34c.303 0 .518.059.648.174.131.129.216.353.26.67h.13v-1.86h-.13c-.044.317-.129.534-.26.65-.13.115-.345.171-.648.171v-1.275c-.029-.2.108-.288.41-.259.433 0 .735.066.908.195.188.13.303.368.346.714h.152v-1.103h-3.199v.13c.345 0 .511.136.496.41v2.659c0 .144-.035.245-.107.302-.044.044-.173.08-.389.108v.13h3.241l.217-1.145h-.151c-.274.663-.757.987-1.449.972ZM111.497 74.156c-.129.116-.395.173-.8.173v-1.426c-.028-.173.087-.245.347-.217.446 0 .67.267.67.8 0 .332-.072.555-.217.67Zm.281.26c.592-.173.88-.49.865-.952-.014-.634-.534-.958-1.556-.972h-1.773v.13c.202.014.325.05.368.108.072.071.108.209.108.41v2.443c0 .202-.03.338-.086.41-.044.059-.174.095-.39.108v.13h1.86v-.13c-.231-.028-.361-.071-.39-.129-.057-.058-.087-.187-.087-.389v-1.081h.152l1.146 1.73h1.124v-.13c-.072 0-.144-.037-.216-.109l-1.125-1.577ZM106.439 59.962l.729-.173.424-.175.277-.348.058-.273-.048-.335-.337-.314-.509-.168-.365.025-.22.076-.273.045-.253-.094-.044-.232.095-.265.248-.273.173-.147.033-.237-.107-.185-.072-.299-.082-.363-.165-.319-.165-.176-.218-.209-.273.045-.326.013-.312.056-.142.194-.047.336.061.378s.229.272.316.33c.086.06.202.185.202.185l.032.311-.026.32-.053.375-.065.19-.019.138-.196.04-.407.057-.398.12-.402.018-.49.1-.342.131-.403.16-.467.207.101.367.148.295.194.243.231.252.259.197.311.085.358.156.328.109.123.209-.149.517-.118.565-.247.537-.215.443-.606.523s-.412.219-.512.259c-.101.04-.422.155-.422.155l-.344.01-.365.024-.25.293-.095.265.065.217.189.141.24.192.216.087.275-.065.33-.175.213-.159.263-.249.289-.163.304-.404.246-.253.183-.226.128-.095.345-.151.343-.274.381-.408.119-.442.135-.419.026-.32.175-.43.336-.498.363-.412.684-.264Z" clip-rule="evenodd"/><path fill="#A7202C" fill-rule="evenodd" d="m109.904 64.547-.883-.348-.436-.152-.408-.207s-.306-.125-.393-.184c-.087-.059-.326-.251-.326-.251l-.244-.295-.229-.27s-.154-.257-.229-.394c-.076-.139-.263-.3-.263-.3l-.33-.353-.391-.203-.268.147-.033.236.022.248.273.363.196.224.207.287.205.307.167.299.198.346.352.48.269.382.242.172.344.132s.41.188.527.172c.117-.017.539.092.539.092s.453.034.55.014c.098-.02.368-.045.368-.045l.136-.154.184-.226.036-.256-.178-.22-.204-.043ZM126.912 61.42c-.009-.128-.239-.302-.321-.445-.083-.143-.224-.224-.376-.407-.154-.183-.249-.229-.249-.229l-.263-.306-.446-.447-.261-.13-.279-.186-.385-.132-.328.005s-.402-.01-.528-.011c-.126-.001-.491.097-.491.097l-.361.074-.077-.193.237-.276.35-.177.252-.197.481-.224.2-.385.047-.367-.214-.297-.325-.22-.137-.305-.113-.3-.03-.358.068-.538.173-.366.282-.241.426-.186.543-.11.442.094.371-.147.139-.298-.083-.344-.26-.332-.202-.193-.364-.103-.181-.365-.241-.478-.22-.248-.494-.08-.285.066-.117.327.055.363.143.256.043.26.042.462-.295.339-.329.407-.424.362-.608.424-.389.294.011.304.227.199.319.067.365.103.027.182-.175.188-.008.451.251.204.326.02.088.294-.12.351-.136.273-.242.325-.458.23-.441.107-.39-.108-.14-.281.001-.402.154-.218.098-.381-.119-.252-.171-.237-.441-.295-.214-.096-.043-.26.117-.527.157-.444.204-.61c.04-.117-.009-.329-.017-.456-.01-.127-.244-.655-.278-.788l-.252.198-.276.193-.16.267-.157.444.14.482.242.277.042.461-.007.451-.084.46-.047.367.079.77.173.614.398.437.462.525.27.258-.084.259-.986-.16-.39.093-.34.104-.35.176-.445.333-.54.287-.311.26-.735.247s-.4.166-.55.16c-.15-.008-.396.14-.396.14l-.294.14-.15-.208.191-.311-.243.124-.399.367-.331.231-.283.442.164.487.435.144.5.03.472-.15.387-.27.311-.462s.494-.322.629-.394c.135-.071.703-.378.703-.378l1.021-.31.687-.256.651-.163s.797-.334.929-.38c.132-.048.503-.195.503-.195l.782-.211.54-.086.644.086.634.16.474.628.22.248-.062.289-.083.46-.191.31-.138.297.303-.01.322-.158.38-.02.436-.058.423.04.255-.222s-.079-.369-.088-.496Z" clip-rule="evenodd"/><path fill="#A7202C" fill-rule="evenodd" d="m124.245 64.772-.224-.224-.539-.115-.322.158-.356.025-.34-.097-.168-.262-.217-.473-.061-.314.347-.354.289-.29.212-.281.151-.396-.11-.324-.601-.027-.806.205-1.068.275-.683.232-.225.178.097.423.169.262.306.165.441-.106.761-.442-.12.351-.077.612s-.068.136.014.28c.083.142.272.233.272.233l.074.217-.016.323-.325.182-.433.234-.503.195s-.429.01-.589.076c-.159.066-.527.19-.527.19l-.43.008-.092.332.269.258.295.063.333.147.586-.052.387-.27.573-.154.411-.064.328-.005.006.353-.108.454-.035.47.018.255-.108.253-.426.186-.494.121-.445.132-.236.276s.245.052.386.132c.14.08.459.148.459.148l.35.025.533-.038.543-.311.369-.324.175-.39.188-.488.087-.484.034-.47-.023-.406.497-.146.245.052.251.003.365-.098.227-.203-.134-.53-.207-.346ZM117.951 56.05l.171.638-.013.5-.109.655-.047.769.097.422.159.335.34.299.441-.107.314-.285.074-.387-.079-.368-.278-.386-.263-.508-.141-.28.066-.515.065-.312.062-.49c.018-.146.111-.478.111-.478l-.008-.53-.18-.364-.282-.361-.325-.22-.064.112-.273.168-.182.438.084.722.26.532ZM71.98 61.037l-.206-.033-.315.114-.273.112-.296.133-.627.166-.247.008.01-.204.117-.29.263-.317.426-.28.146-.026.5-.1.51.104.114.2-.123.413Zm-.469-1.414c-.04.002-1.664.715-1.664.715l-.103-.426.7-.802.513-.386.65-.637.307-.379.085-.493-.233-.279-.406-.148-.32.216-.815.663-.745.477-.691.209-.315.113.458.331.345.11.11.283-.126.474s-.492 1.203-1.486 2.139c-.994.935.022 1.246.539.798.39-.34.45-.397.455-.405l.286.01.23.339.029 1.123-.864.809-.895.584-.876.624-.246.398.55.123.576.04.579-.45.56-.51.8-.316-.226 3.38-1.22.045.94 1.05s.924.926 1.466-.034c.541-.96.278-1.052.278-1.052l.195-4.013s1.28-.435 1.468-.503c.19-.068.354-.483.359-.586.005-.102-.598-.427-.81-.318-.212.11-1.215.392-1.215.392l-.044-.366.848-.91.935-.136s1.492-.994 1.102-1.88c-.39-.885-2.021-.417-2.063-.416ZM69.473 52.43c.123.173-.181.787-.181.787s-.075.062.356.022c.432-.039.845.065 1.269-.317.424-.383.237-.943-.006-1.112-.242-.168-.57-.783-1.271-.604-.7.18-.704.983-.704.983s.414.068.537.241Z" clip-rule="evenodd"/><path fill="#A7202C" fill-rule="evenodd" d="M76.579 54.892c-.244-.225-.435-.405-.89-.644-.207-.109-.413-.378-.803-.408-2.319-.185-3.762.606-4.917 1.036-1.156.43-2.837 1.902-3.566 2.48-.73.578-.66.412-.615-.08.045-.492 2.043-2.568.95-2.119-1.095.448-2.548 2.32-2.985 3.685-.438 1.365.068 1.572 1.168 1 1.1-.571 1.526-1.69 2.713-2.776 1.188-1.085 3.462-2.047 5.46-2.426 1.999-.379 2.388.527 2.336.733-.05.206-.326.34-.892.973-.178.197.053.025.385.043.73.038 2.161-.033 2.297-.488.113-.382-.154-.56-.641-1.009ZM88.96 64.084l-.354-.01-.168-.33-.037-.326.177-.227.232-.11s.11.002.113-.02l.237.308.028.419-.228.296Zm4.067.874-.365-.125-.445-.221-.838-.534-.324-.334-.281-.31-.242-.261-.087-.258.241-.203.247-.272.248-.273.18-.274.1-.346.005-.534-.251-.634-.229-.401-.315-.195s-.296-.147-.4-.22c-.105-.072-.401-.219-.401-.219l.088-.23.183-.297.338-.293.36-.293.34-.316.23-.087.261.053.051.164-.16.298-.19.367-.11.23.347.078.36-.06.466.012.318-.084.28-.155.261-.179v-.465l-.234-.354-.407-.383-.216-.308-.186-.144-.292-.195-.613-.085-.42-.011-.242-.03.144-.6.128-.415.104-.393.222-.481.145-.369.188-.343-.045-.234-.492-.431-.489.01-.473.08-.108.207-.057.602-.142 1.043-.135.972s-.035 1.091-.046 1.207l-.09.973-.317.294-.239.18-.473.313-.508.218.02-.208.09-.486.115-.53.126-1.346-.001-.697-.067-.467-.202-.214-.283.179-.29.48-.237.412-.05.533-.279 2.502s.026.907-.006 1.023a56.27 56.27 0 0 0-.253 1.27l-.116.532-.11.462-.203.506-.235.622-.222.481-.094.532-.135.485-.074.323.133.236.299.124.363-.083.293-.295.24-.434-.042-.49.096-.787.176-.46.317-.782.445-.964.262-.667.274-.55.056-.371.25-.296.278-.132.25-.062.078.118-.02.208.037.327.19.098.46.058.415.081.095.165.036.326-.03.325-.128.183-.228.296-.271.295-.281.155-.494-.176-.423-.22-.37-.08-.154.228-.086.44-.172 1.134-.063.904.088.49.354.242.235.1.305-.178.298-.34.292-.272.31-.224.324-.154.304.31.554.48.368.335.127.305.267.217s.196.051.326.078c.13.026.441.035.441.035l.378-.014.305-.177.31-.224.318-.317.066-.23-.266-.008-.452-.151ZM82.927 61.46l.151.283.346.102.38-.27.327-.409.2-.482-.034-.35-.235-.33-.457-.339-.347-.079-.338.293-.2.251-.113.485.18.446.14.399ZM84.719 56.302l-.394-.056-.47.033-.441.22-.215.158-.026.51-.007.558.195.284.414.081.372.056.462-.197.13-.206.186-.32.04-.44-.025-.442-.221-.239ZM84.127 65l-.396.2-.227.295-.223.018-.413-.336-.158.274-.05.533-.192.39-.166.345.028.419.195.284.35.288.385-.083.115-.276.23-.32.386-.105.323-.363.138-.531-.058-.56-.267-.471Z" clip-rule="evenodd"/></g><defs><filter id="a" width="154" height="157" x="0" y="0" color-interpolation-filters="sRGB" filterUnits="userSpaceOnUse"><feFlood flood-opacity="0" result="BackgroundImageFix"/><feColorMatrix in="SourceAlpha" result="hardAlpha" values="0 0 0 0 0 0 0 0 0 0 0 0 0 0 0 0 0 0 127 0"/><feOffset dy="16"/><feGaussianBlur stdDeviation="6.5"/><feColorMatrix values="0 0 0 0 0 0 0 0 0 0 0 0 0 0 0 0 0 0 0.03 0"/><feBlend in2="BackgroundImageFix" result="effect1_dropShadow_185_296"/><feBlend in="SourceGraphic" in2="effect1_dropShadow_185_296" result="shape"/></filter></defs></svg>