<svg xmlns="http://www.w3.org/2000/svg" width="154" height="157" fill="none"><g filter="url(#a)"><path fill="#fff" d="M13 0h128v128H13z"/><path fill="#231916" fill-rule="evenodd" d="M60.698 53.207v.142c0 .124.057.103.057.227v.228c0 .112-.14.69-.176.876-.027.145-.153.224-.184.357-.038.165-.017.321-.085.455-.248.49-.13 1.279-.181 1.95-.068.901-.12.993-.632 1.501-.188.187-.353.354-.541.54-.237.234-.248.5-.448.633 0 .435-.228.206-.228.654-.031.047-.258.341-.313.341-.208 0-.036-.605-.219-.832-.148-.185-.08-.255-.16-.381-.087-.135-.19-.122-.19-.35-.052-.036-.17-.12-.17-.2v-.085c0-.086.813-.924.93-1.032.027-.025.238-.183.275-.209.155-.107.248-.026.366-.117.166-.129.4-.372.534-.462 0-.219.04-.641-.055-.826-.081-.155-.13-.032-.175-.31-.024-.15-.118-.173-.197-.285-.145-.204-.209-.383-.426-.54-.077-.056-.51-.37-.598-.37h-.085c-.08 0-.11.065-.142.113 0 .304-.088.23-.153.388-.129.317-.003.111-.21.358-.176.21-.224.517-.462.676 0 .158-.25.497-.333.663-.07.142-.082.21-.186.325-.154.17-.014.236-.129.383-.055.07-.303.582-.321.674-.057.296-.226.3-.226.798v.086c0 .104.044.137.086.199.266 0 .667-.072.73.152.024.086.03.314.037.417.008.11.086.231.086.369 0 .218-.085.368-.085.569v1.023c0 .237.737.825.995.825h.028c.152 0 .317-.41.39-.492.137-.153.073-.076.139-.288.051-.164.138-.118.177-.278.041-.166.015-.188.126-.3.108-.11.082-.164.14-.314.045-.114.097-.072.162-.266a.454.454 0 0 1 .203-.252c0-.322.083-.281.2-.454v-.143c.033-.05.091-.142.17-.142h.114v.37c0 .13-.092.188-.051.449.025.157.023.32.022.517 0 .318.029.663.029 1.024v.057c0 .239-.151.302-.292.42-.217.18-.356.062-.58.159-.25.107-.21.142-.554.185-.343.043-.219.177-.565.175-.35-.003-.334.064-.577.162-.234.094-.434-.037-.64.099-.199.129-.324.102-.597.143-.173.026-.466.136-.604.136-.112 0-.224-.253-.335-.32-.094-.054-.112-.005-.213-.1-.052-.048-.113-.15-.191-.15h-.086c-.066 0-.142.077-.142.143v.085c0 .241.838 1.223.967 1.223h.512c.621 0 .987-.228 1.678-.228.126-.187.477-.199.797-.199.108-.072.317-.189.483-.199.416-.025.235-.17.54-.17.081 0 .11.065.135.114l.036.596c.05.075.228.194.228.285v.17c0 .13-.085.162-.085.342v.113c0 .126.113.257.113.484v.028c0 .318-.17.366-.17.484 0 .09.142.1.142.397v.768c0 .088-.153.187-.2.256 0 .338-.074.6.06.796l-.06.626c-.009.089.058.146.058.256 0 .11-.095.085-.206.079l-.107.12c.015.063.028.065.028.142 0 .186-.142.155-.142.341v.057c0 .064.022.062.057.114.408 0 .322.227.483.227h.712c.168 0 .246-.055.301-.182.05-.114.182-.226.182-.301v-.569c0-.104-.14-.121-.167-.26-.018-.09.029-.253.026-.395-.005-.252-.03-.549-.03-.852 0-.28-.053-.542-.058-.795-.01-.483.229-.571.229-.655v-.028c0-.114-.142-.101-.142-.285v-.739c0-.127.084-.166.087-.341.003-.13-.03-.248-.03-.427v-.17c0-.182.057-.216.057-.398l.007-.229-.036-.283c.11-.163.18-.133.428-.141.227-.008.285-.069.439-.13.174-.069.86-.043 1.124-.042.218.001.317-.029.541-.028.221.002.274-.073.438-.13.16-.057.33-.028.49-.08.147-.048.152-.16.437-.16.04-.06.176-.22.234-.277.079-.08.306-.171.306-.235 0-.131-.07-.279-.151-.332-.088-.057-.1-.01-.184-.072-.044-.033-.071-.081-.13-.125-.045-.032-.284-.218-.292-.221a4.125 4.125 0 0 0-.409-.103h-.142c-.233 0-.151.177-.37.286-.15.074-.274.148-.472.181-.385.066-.826.045-1.263.045-.108.073-.155.2-.313.2h-.483c-.088 0-.114-.084-.114-.171v-.228c0-.151.142-.5.142-.71v-.143c0-.311-.407-.581-.59-.747-.21-.189-.144-.188-.3-.354-.073-.08-.06-.125-.139-.202-.109-.107-.194-.019-.194-.147 0-.186.427-.569.54-.569.196 0 .342.615.342.91.13.194.205.39.362.548.096.095.423.362.576.362h.285c.339 0 .269-.13.557-.182.182-.034.331-.154.496-.244.022-.012.397-.298.413-.326.03-.051.184-.52.184-.556 0-.125-.212-.284-.342-.284h-.398c-.34 0-.623.199-.768.199h-.2c-.167 0-.204-.298-.274-.436-.063-.124-.078-.116-.095-.274-.02-.198-.114-.153-.114-.257 0-.171.278-.134.409-.188.08-.033.087-.083.187-.126.116-.05.163-.004.276-.037.144-.042.14-.14.42-.206.134-.032.274-.13.425-.2.09-.043.086-.075.152-.133.097-.084.111-.021.214-.098.064-.048.322-.234.357-.27.129-.131.547-.505.547-.704v-.056c0-.079-.228-.58-.277-.634-.131-.146-.365-.248-.482-.428-.04-.064-.052-.268-.09-.364-.05-.129-.127-.152-.145-.31-.019-.175-.12-.653-.257-.653-.064 0-.063.023-.105.057l-.038 1.62c-.111.167-.116.258-.276.435-.004.004-.38.294-.418.322-.101.075-.772.608-.842.608h-.028c-.064 0-.063-.022-.114-.056 0-.514.019-.57.228-.882l-.007-.177.433-.448c0-.235.026-.194.136-.32.119-.136.023-.213.09-.364.125-.286.173-.337.173-.766.067-.1.17-.133.17-.285 0-.229-.408-.545-.594-.628-.11-.05-.607-.509-.714-.509h-.057a.11.11 0 0 0-.114.114ZM86.212 57.045v.057c0 .006-.178.366-.2.398 0 .455-.051.818-.153 1.183-.097.345.06.971-.124 1.212-.124.162-.294.108-.44.215-.207.153-.354.073-.485.197-.263.248-.174.084-.486.197-.294.107-.215.323-.36.323h-.056c-.093 0-.301-.313-.484-.313-.15 0-.085.63-.085.796-.141.211-.2.562-.2.91v.71c0 .428.072.56.137.86.033.15.12.738.12.875.135.09.142.206.142.427.043.064.285.565.285.625 0 .367-.712.436-.712.626v.056c0 .162.281.232.403.28.18.07.163.204.508.204h.398c.098 0 .352-.334.448-.405.099-.073.16-.034.284-.143.125-.11.088-.135.32-.135.072-.048.154-.17.228-.17.074 0 .27.292.3.354.048.1.003.125.09.223.049.055.15.109.15.19v.143s-.41.483-.199.483c.177 0 .215-.085.284-.085h.114c.135 0 .221.115.512.114.186-.001.493-.04.627.027.26.13.037.101.438.187.17.037.322.184.471.184h.683c.043 0 .248-.185.313-.228h.142c.07-.105.228-.156.228-.256 0-.163-.42-.449-.565-.516-.445-.205-.302-.166-.949-.16l-.222-.203-1.166-.002c-.096-.065-.34-.4-.34-.54v-.285c0-.228.08-.284.312-.284.093-.139.425-.352.576-.505.096-.097.177-.172.27-.27.115-.119.133-.266.235-.334 0-.284.096-.273.199-.426 0-.28.332-.496.49-.676.118-.133.465-.49.676-.49.176-.264.818-.8 1.089-1.073.15-.151.902-1.074.902-1.259v-.37c0-.242-.355-.536-.504-.66-.15-.126-.178-.026-.332-.238-.036-.05-.28-.267-.33-.267h-.398c-.226 0-.32.07-.46.138-.223.107-.273.029-.525.072-.377.065-.486.216-1.007.216a1.415 1.415 0 0 1-.385.184c-.093.02-.177.003-.25.033-.094.038-.082.096-.218.096-.066 0-.142-.076-.142-.142v-.654c0-.288.176-.597.221-.916.046-.323.263-.597.263-.875 0-.131-.767-.853-.91-.853h-.03c-.067 0-.316.285-.31.395.015.312.169.424.169.543Zm.54 4.123c0-.529.06-.538.437-.7.069-.03.408-.068.501-.069.293-.002.401-.113.456-.113h.057a.11.11 0 0 1 .114.114v.114c0 .042-.866 1.194-1.081 1.194h-.256c-.153 0-.341-.153-.341-.313v-.056c0-.071.07-.108.113-.171Zm-2.39.142c0-.188-.283-.234-.283-.37v-.085h.199c.163 0 .38.19.653.2.214.008.684-.077.684.141v.569l-.032.398c-.135.207-.365.144-.65.201-.24.049-.416.169-.655.169-.031 0-.114-.084-.114-.142l.007-.456-.007-.085c0-.315.199-.188.199-.54Zm-.17 2.16v-.027a.11.11 0 0 1 .114-.114h.228c.155 0 .157.057.312.057h.114c.149 0 .165-.057.285-.057.087 0 .341.349.341.455v.796c0 .303-.424.682-.825.682h-.057c-.156 0-.167-.255-.191-.377-.037-.187-.118-.204-.163-.406-.02-.09-.158-.997-.158-1.008ZM73.611 58.95l-.002.398.06 1.62c.044.068.34.433.34.456v.313c0 .219-.526.568-.779.558l-.187.238h-.2c-.074.111-.052.12-.195.174-.118.044-.123.103-.21.188-.063.062-.324.377-.391.377-.065 0-.085-.02-.085-.085 0-.186.134-.427.165-.632.038-.254-.029-.529.017-.779.044-.244.021-.482.075-.72.045-.202.14-.366.14-.656l.008-.37-.036-.511c-.13-.194-.374-.54-.688-.535l-.224-.19-.481-.071h-.313c-.247 0-.142.514-.142.739 0 .074-.149.264-.188.494-.053.305.02.314-.132.552-.088.139-.107 1.034-.107 1.285-.125.187-.15.08-.29.165-.163.099-.018.123-.336.148-.055.005-.654.24-.654.313 0 .16.236.337.334.433.26.257.047.342.292.505h.142c.162.108.138.228.392.234l.092.079c0 .25.056.437.056.74 0 .112-.018.285.01.387.038.135.161.184.161.266 0 .284-1.394 1.33-1.394 1.45v.029c0 .036.61.739.711.739h.313c.047 0 .445-.408.52-.476.09-.08.191-.162.27-.242.177-.18.185-.091.313-.2.165-.139.43-.277.61-.412.208-.158.359-.42.506-.518 0-.253.096-.216.199-.37 0-.35.162-.236.22-.632.05-.331.136-.439.176-.678.055-.333.08-.374.278-.575.1-.1.119-.04.236-.191.067-.087.19-.113.342-.113h.056c.127 0 .178.067.228.142 0 .379.035.222.124.445.06.15.033.366.047.55.013.182.029.343.028.569-.001.285.085.366.085.511 0 .365-.74.692-.74.939 0 .046.018.085.058.085.275 0 .419-.284.767-.284.28 0 .446.17.598.17h.284c.164 0 .23-.179.54-.199.206-.013.478-.066.639-.13.166-.066.291-.244.374-.394.061-.111.018-.145.118-.25.083-.088.121-.114.121-.278v-.028c0-.047-.386-.505-.466-.53-.272-.083-.472-.21-.814-.21-.1 0-.184.114-.256.114-.185 0-.157-.353-.17-.54-.023-.332-.17-.344-.17-.569v-.17c0-.34.45-.29.728-.351.183-.04.242-.125.379-.162.155-.042.286-.038.417-.123.227-.148.53-.176.73-.351.144-.125.419-.418.419-.662v-.114c0-.093-.102-.081-.144-.283-.029-.137-.085-.16-.176-.25-.152-.153-.302-.291-.59-.291-.043-.063-.107-.2-.2-.2h-.142c-.055 0-.113.051-.113.086 0 .105.199.127.199.483v.029c0 .195-.13.2-.261.25-.094.037-.192.147-.333.208-.198.086-.085.123-.362.178-.237.048-.262.188-.353.188h-.057c-.064 0-.062-.022-.113-.057v-.966c0-.134.012-.355-.006-.478-.007-.043-.016-.17-.027-.229-.02-.1-.081-.095-.081-.175 0-.037.199-.608.199-.625 0-.227-.413-.588-.563-.717-.197-.17-.426-.648-.632-.648h-.028c-.139 0-.133.477-.177.648a3.038 3.038 0 0 0-.108.745Zm-1.052 4.066c0-.19.18.042.256-.284h.114c.065 0 .085.02.085.085 0 .005-.266.341-.341.341h-.029c-.065 0-.085-.02-.085-.085v-.057ZM95.996 61.452c-.034.052-.056.05-.056.114v.028c0 .114.405.393.505.461.13.088.223.003.355.129.14.133.108.121.362.121.035.051.057.05.057.114v.028c0 .128-.15.318-.227.37 0 .3-.427.697-.44 1.014l-.186.265c0 .298-.082.224-.199.398 0 .371-.172.255-.199.512-.021.205-.11.406-.2.54 0 .392-.048.361-.176.591-.053.095-.055.203-.08.318-.033.152-.113.138-.113.286a.11.11 0 0 0 .114.113h.17c.239 0 .165-.227.484-.227h.17c.172 0 .261.194.655.228.243.02.25.198.711.198h.654c.144 0 .778-.166.92-.217.014-.005.666-.42.695-.443.091-.076.156-.22.24-.329.045-.06.056-.122.102-.182.041-.055.102-.092.141-.143.15-.196.246-.531.462-.676 0-.346.134-.22.189-.408.106-.37.045-.143.209-.388 0-.436.171-.325.222-.631.058-.35.188-.39.205-.648.014-.205-.014-.201.039-.388.03-.107.075-.245.076-.35.001-.393.012-.426-.033-.795-.017-.145-.079-.2-.083-.343-.006-.222-.006-.182-.12-.306-.149-.163-.265-.295-.511-.342-.171-.033-.19-.03-.3-.128-.114-.102-.164-.07-.297-.13-.163-.074-.592-.082-.592-.29 0-.163.37-.2.37-.369v-.085c0-.158-.292-.386-.407-.446-.142-.075-.445-.293-.56-.293h-.057c-.208 0-.194.33-.232.506-.01.042-.255.392-.301.439-.115.117-.061.097-.108.261-.041.14-.106.115-.156.214-.062.12.012.14-.105.265-.06.063-.14.175-.184.214a7.13 7.13 0 0 1-.478.261c-.18.051-.117.087-.226.144-.087.046-.204.02-.315.084-.083.047-.106.113-.217.153-.114.041-.219-.006-.333.035-.31.113-.118.153-.616.153Zm3.243 2.872v.142c-.163.244-.782.938-1.138.938-.176.263-.243.131-.484.255-.238.123-.164.169-.54.2-.044-.03-.085-.037-.085-.113 0-.063.325-.345.387-.438.105-.155.215-.408.331-.522.001 0 .32-.52.324-.53.025-.068.252-.553.273-.579.037-.044.282-.48.296-.53.049-.178.023-.168.131-.294.092-.106.056-.178.124-.303.076-.139.11-.071.171-.255.037-.107.074-.215.132-.295.123-.166.115-.462.39-.462.114 0 .087.113.2.113.181 0 .216-.17.398-.17h.057c.064 0 .063.022.113.056 0 .4-.044.527-.171.796-.067.144-.036.252-.094.389-.054.127-.133.132-.178.305-.073.278.026.115-.137.346-.122.173-.029.238-.124.36-.172.224-.07.017-.159.325-.027.092-.158.178-.217.266ZM107.118 62.646h-.598c-.138 0-.214-.113-.313-.113a.109.109 0 0 0-.113.113v.086c0 .19.121.227.313.227.075.113.445.37.625.37l.202.016.68-.102h.029a.45.45 0 0 1 .398.2c0 .464-.169.558-.198.825-.047.432-.229.48-.229.795-.113.168-.141.125-.172.368-.017.131-.254.258-.283.258-.149 0-.118-.285-.455-.285h-.057c-.124 0-.313.055-.313.17v.03c0 .45 1.187 1.45 1.678 1.45h.114c.122 0 .433-.34.506-.434.082-.105.035-.198.137-.346.088-.128.125-.152.134-.35l.185-.236.034-.34c.232-.156.11-.256.209-.502.105-.26.16-.147.163-.55l.253-.456c0-.446.199-.235.189-.81l.295-.213c.286.006.509-.04.837-.101.309-.058.317-.212.784-.212.228-.152.74-.42.74-.767v-.057c0-.163-.28-.512-.484-.512-.002 0-.407.096-.462.106-.185.035-.266.123-.391.207-.381 0-.37.227-.768.227h-.228c-.208 0-.114-.464-.114-.71.035-.052.057-.05.057-.114l.003-.797-.088-.824c.105-.07.398-.189.398-.341v-.029c0-.109-.421-.45-.512-.511-.421 0-.434-.37-.768-.37-.219 0-.113.514-.152.728-.033.18-.159.619-.162.72-.007.261-.027.575-.059.823-.029.236-.165.428-.168.713-.006.461-.064 1.278-.454 1.31-.432.034-.294.203-.683.198-.319-.003-.583.142-.739.142ZM120.884 64.352c0 .209.266.338.398.427.249 0 .354.085.427.085.084 0 .076-.057.199-.057a.11.11 0 0 1 .114.114c0 .188-.114.414-.114.455l-.007.171.036.34c-.072.107-.953.503-1.151.585-.338.14-.766.61-1.125.61-.048.032-.114.062-.114.142v.085c0 .078.182.264.199.4.053.425-.082.17.149.475.124.165.056.168.257.37.079.079.242.234.327.297.089.066.117.03.219.094.087.055.099.102.167.146.087.056.272.054.457.169.179.11.262.097.529.096.355 0 .434.114.512.114.13 0 .233-.09.346-.109.154-.026.318.014.469-.014.161-.03.494-.304.494-.474v-.625c0-.316-.141-.508-.189-.721-.032-.14.018-.314-.037-.418-.056-.106-.172-.12-.172-.283v-.057c0-.064.022-.062.056-.114.243 0 .376.025.546-.052.056-.025.336-.193.336-.26 0-.073-.323-.26-.406-.334-.16-.145-.2-.263-.504-.263-.12 0-.136.056-.285.056h-.057a.109.109 0 0 1-.113-.113v-.114c0-.189.141-.163.199-.37.05-.177.15-.193.25-.346.155-.237.433-.396.433-.763v-.227c0-.24-.307-.54-.484-.54h-.285c-.101 0-.883.472-.973.562-.125.124-.127.055-.25.12-.093.047-.114.143-.231.167-.185.037-.622-.055-.622.174Zm-.114 3.64c0-.294 1.035-.967 1.252-.967h.085c.161 0 .281.167.331.295.021.052.153.443.153.444v.029c0 .069-.227.34-.37.34h-.541c-.07 0-.07-.05-.18-.075-.082-.02-.155-.002-.24-.016-.314-.05-.209.063-.404.063-.035 0-.086-.058-.086-.113Z" clip-rule="evenodd"/><path fill="#231916" fill-rule="evenodd" d="M119.235 62.305c-.103 0-.839-.995-1.025-.995h-.028c-.063 0-.062.023-.114.057 0 .369-.088.375-.142.71-.038.24-.057.52-.057.797v1.763c0 .169.387.824.655.824h.085c.137 0 .273-.115.348-.192.201-.202.124-.082.169-.4.029-.204.12-.21.176-.364.053-.146.018-.383.018-.55 0-.116-.017-.441.009-.531.051-.172.144-.049.197-.373.029-.181.069-.271.248-.32.105-.028.366-.142.428-.142h.227c.155 0 .158.057.313.057h.028c.178 0 .523-.26.659-.336.144-.081.604-.268.685-.34.134-.117.603-.107.837-.158.193-.043.593-.19.834-.19.017 0 .06.04.086.058v.312c.047.071.235.2.313.2.148 0 .27-.07.4-.084.136-.015.364-.002.51-.002.304 0 .59-.109.768-.227.27 0 1.109-.527 1.109-.74v-.142c0-.1-.253-.28-.313-.37h-.142c-.037-.024-.24-.142-.284-.142h-.456c-.235 0-.545.144-.854.17-.373.032-.297.191-.824.228-.352.025-.6.091-.887.166-.166.043-.786.055-.989.063-.159.006-.352-.03-.497.014-.135.041-.144.123-.357.156-.015.002-.699.316-.719.333-.146.124-.25.065-.368.144-.224.151-.071.07-.354.187-.182.075-.045.092-.346.166-.172.042-.151.193-.346.193ZM122.591 60.542v.114c0 .066.02.085.085.085h.029c.139 0 .13-.075.284-.086.151-.01.231-.027.37-.027.137-.205.345-.14.587-.21.1-.029.43-.241.516-.308.111-.087.174-.06.288-.11.067-.03.113-.088.245-.153.177-.088.349-.187.536-.29.521-.284.429-.523.765-.855.123-.122.231-.29.384-.441.113-.113.32-.304.32-.505v-.2c0-.197-.435-.563-.587-.664a61.765 61.765 0 0 1-.361-.265c-.126-.124-.038-.35-.304-.35h-.142c-.087 0-.456.315-.519.391a4.183 4.183 0 0 0-.392.52c-.095.156-.316.318-.416.492-.081.14-.117.093-.185.27-.061.163-.078.158-.173.283-.085.113-.019.135-.157.298-.088.105-.064.153-.185.27-.162.158-.259.33-.386.524-.089.139-.128.047-.173.281-.038.193-.104.17-.155.3-.058.146.011.222-.11.346-.072.075-.164.15-.164.29Z" clip-rule="evenodd"/><path fill="#231916" fill-rule="evenodd" d="M119.178 57.642c0 .602-.256.513-.256.995v.768c0 .388.012.394.153.643.074.131.013.194.096.302.046.06.125.142.185.213.183.22.616.633.988.633.116 0 .348-.18.398-.256 0-.228-.034-.54.057-.682.132-.21.171-.204.171-.569v-.37c0-.065-.032-.17-.086-.17-.102 0-.138.142-.199.142a.11.11 0 0 1-.114-.113v-.143c0-.2.171-.17.171-.37 0-.02-.212-.294-.25-.346-.102-.138-.192-.12-.339-.258-.083-.077-.239-.127-.372-.226-.094-.07-.103-.021-.199-.114-.049-.046-.1-.136-.177-.136h-.057c-.08 0-.119.027-.17.057ZM110.645 64.295l-.012.342.068 1.25c.009.157-.016.367-.027.542-.016.254-.229.194-.229.34v.028c0 .064.023.063.057.114.263 0 .79.204.883.337l.369.033h.569c.181 0 .597-.539.597-.626V66.2c0-.115-.13-.266-.199-.312 0-.284-.61-.884-.803-1.046-.169-.14-.365-.262-.541-.397-.107-.083-.18-.038-.299-.156-.1-.098-.126-.164-.32-.164-.087 0-.113.083-.113.17ZM122.904 57.529c-.309 0-.247.125-.581.215-.273.074-.116.211-.585.211-.048.032-.342.259-.342.313 0 .05.377.361.448.433.145.147.302.334.576.334h.228c.157 0 .548-.453.626-.568 0-.29.09-.265.199-.427 0-.407.227-.203.227-.568.057-.039.569-.607.569-.654a.11.11 0 0 0-.114-.114h-.114c-.142 0-.357.385-.534.433-.219.06-.13.114-.307.176-.167.057-.21.086-.296.215ZM58.764 67.167v.028c0 .067.076.143.142.143h.057c.105 0 .142-.174.142-.285v-.085c0-.046-.017-.085-.057-.085-.07 0-.284.214-.284.284ZM58.935 66.2c0 .066.031.171.085.171.04 0 .057-.039.057-.085v-.029c0-.077-.014-.078-.029-.142-.08.007-.113 0-.113.085ZM125.448 74.814v-.915l-.832-1.244h.347l.426.65c.079.122.151.244.219.366.065-.113.144-.24.236-.382l.418-.634h.333l-.861 1.244v.915h-.286Zm-2.069 0V72.91h-.711v-.255h1.711v.254h-.714v1.905h-.286Zm-1.506 0h.285v-2.16h-.285v2.16Zm-2.325-.694.269-.024a.583.583 0 0 0 .089.266c.047.07.119.125.217.168a.823.823 0 0 0 .331.064c.11 0 .206-.016.289-.048a.403.403 0 0 0 .187-.134.315.315 0 0 0 .061-.184.278.278 0 0 0-.06-.178.434.434 0 0 0-.193-.127 3.947 3.947 0 0 0-.385-.106 1.989 1.989 0 0 1-.417-.134.59.59 0 0 1-.231-.201.496.496 0 0 1-.075-.27c0-.108.031-.21.093-.305a.572.572 0 0 1 .27-.216c.12-.048.252-.073.397-.073.16 0 .301.026.423.077a.602.602 0 0 1 .282.228c.066.1.102.213.106.34l-.274.02a.442.442 0 0 0-.149-.309c-.085-.07-.21-.104-.376-.104-.173 0-.299.031-.378.095a.285.285 0 0 0-.119.228c0 .078.028.142.084.192.055.05.199.102.431.154.232.053.391.098.478.138a.658.658 0 0 1 .278.22c.06.089.09.191.09.307a.585.585 0 0 1-.099.325.654.654 0 0 1-.283.237.99.99 0 0 1-.416.084c-.195 0-.359-.028-.491-.085a.686.686 0 0 1-.311-.257.72.72 0 0 1-.118-.388Zm-1.959-.512h.614c.13 0 .233-.014.306-.041a.325.325 0 0 0 .168-.13.343.343 0 0 0 .057-.193.32.32 0 0 0-.111-.252c-.074-.066-.191-.099-.351-.099h-.683v.715Zm-.286 1.206v-2.16h.958c.192 0 .338.02.438.059.1.039.18.107.241.205.06.099.089.207.089.326a.539.539 0 0 1-.149.387c-.099.105-.252.172-.459.2a.709.709 0 0 1 .172.108c.084.076.163.172.238.287l.375.588h-.359l-.286-.45a3.642 3.642 0 0 0-.207-.297.612.612 0 0 0-.144-.144.438.438 0 0 0-.13-.058.915.915 0 0 0-.16-.01h-.331v.959h-.286Zm-2.177 0v-2.16h1.56v.255h-1.275v.661h1.194v.254h-1.194v.735h1.326v.255h-1.611Zm-1.569 0-.837-2.16h.31l.561 1.569c.045.126.083.244.113.353.034-.117.073-.235.117-.353l.583-1.568h.291l-.845 2.159h-.293Zm-1.574 0h.286v-2.16h-.286v2.16Zm-2.397 0v-2.16h.293l1.134 1.696v-1.695h.274v2.159h-.293l-1.134-1.697v1.697h-.274Zm-.926-2.16h.286v1.248c0 .217-.025.39-.075.517a.629.629 0 0 1-.265.311c-.129.08-.296.12-.505.12-.202 0-.367-.034-.495-.104a.595.595 0 0 1-.276-.303 1.439 1.439 0 0 1-.083-.54v-1.248h.286V73.9c0 .187.017.326.052.414a.398.398 0 0 0 .18.206.621.621 0 0 0 .311.072c.211 0 .36-.048.45-.143.089-.095.134-.278.134-.55v-1.245Zm-4.143.954h.614c.13 0 .233-.014.306-.041a.325.325 0 0 0 .168-.13.352.352 0 0 0 .058-.193.32.32 0 0 0-.112-.252c-.073-.066-.191-.099-.351-.099h-.683v.715Zm-.286 1.206v-2.16h.957c.193 0 .339.02.439.059.1.039.18.107.241.205a.623.623 0 0 1 .089.326.539.539 0 0 1-.149.387c-.099.105-.252.172-.459.2a.709.709 0 0 1 .172.108c.084.076.163.172.238.287l.375.588h-.36l-.285-.45a3.955 3.955 0 0 0-.206-.297.653.653 0 0 0-.145-.144.432.432 0 0 0-.131-.058.894.894 0 0 0-.159-.01h-.331v.959h-.286Zm-2.178 0v-2.16h1.561v.255h-1.275v.661h1.194v.254h-1.194v.735h1.326v.255h-1.612Zm-2.643 0-.573-2.16h.293l.329 1.416c.035.148.065.295.09.442.056-.231.088-.364.098-.4l.411-1.457h.345l.309 1.093c.077.27.133.525.168.764a9.03 9.03 0 0 1 .108-.47l.338-1.387h.287l-.592 2.159h-.275l-.455-1.645a8.926 8.926 0 0 1-.068-.254 7.19 7.19 0 0 1-.063.254l-.458 1.645h-.292Zm-2.683-1.047c0 .26.07.465.21.614.14.15.315.225.526.225a.688.688 0 0 0 .531-.227c.139-.15.209-.366.209-.644 0-.175-.03-.328-.09-.46a.685.685 0 0 0-.645-.413.73.73 0 0 0-.523.209c-.145.139-.218.37-.218.696Zm-.295-.005c0-.358.096-.639.289-.841a.982.982 0 0 1 .745-.305c.2 0 .38.048.54.143a.94.94 0 0 1 .365.399c.084.17.126.363.126.579 0 .22-.044.415-.132.588a.91.91 0 0 1-.376.392 1.073 1.073 0 0 1-.524.133c-.204 0-.385-.048-.545-.147a.947.947 0 0 1-.364-.402 1.217 1.217 0 0 1-.124-.539Zm-1.806-.08h.558c.185 0 .316-.035.393-.104a.368.368 0 0 0 .116-.29.39.39 0 0 0-.068-.232.319.319 0 0 0-.18-.127 1.23 1.23 0 0 0-.267-.02h-.552v.772Zm-.286 1.132v-2.16h.814c.144 0 .253.008.329.021a.645.645 0 0 1 .266.101c.072.05.13.12.174.208.043.09.065.188.065.295 0 .183-.058.34-.175.467-.117.126-.329.19-.633.19h-.555v.878h-.285Zm-1.476-.757.286.072a.966.966 0 0 1-.323.537.891.891 0 0 1-.571.184c-.233 0-.422-.047-.568-.141a.89.89 0 0 1-.333-.412 1.477 1.477 0 0 1-.114-.58c0-.224.043-.42.13-.587a.881.881 0 0 1 .366-.382 1.07 1.07 0 0 1 .523-.13c.217 0 .398.055.545.165.148.11.25.264.308.464l-.281.066a.666.666 0 0 0-.218-.343.578.578 0 0 0-.36-.108.698.698 0 0 0-.416.12.628.628 0 0 0-.234.32 1.28 1.28 0 0 0-.068.414c0 .184.026.344.08.481.054.137.137.24.25.307a.7.7 0 0 0 .367.102c.16 0 .294-.046.406-.138a.71.71 0 0 0 .225-.411Zm-2.497.757h.286v-2.16h-.286v2.16Zm-2.105-1.206h.615c.13 0 .233-.014.306-.041a.326.326 0 0 0 .168-.13.351.351 0 0 0 .057-.193.32.32 0 0 0-.111-.252c-.074-.066-.191-.099-.351-.099h-.684v.715Zm-.285 1.206v-2.16h.957c.193 0 .339.02.439.059.1.039.18.107.24.205.06.099.09.207.09.326 0 .153-.05.282-.15.387-.098.105-.251.172-.459.2a.729.729 0 0 1 .173.108c.083.076.162.172.237.287l.376.588h-.36l-.285-.45a3.981 3.981 0 0 0-.207-.297.632.632 0 0 0-.145-.144.436.436 0 0 0-.13-.058.907.907 0 0 0-.16-.01h-.33v.959h-.286Zm-1.465 0V72.91H85.8v-.255h1.71v.254h-.714v1.905h-.285Zm-1.355-.757.286.072a.965.965 0 0 1-.323.537.89.89 0 0 1-.571.184c-.233 0-.422-.047-.568-.141a.887.887 0 0 1-.333-.412 1.473 1.473 0 0 1-.114-.58c0-.224.043-.42.129-.587a.884.884 0 0 1 .367-.382c.158-.087.333-.13.523-.13.216 0 .398.055.545.165.147.11.25.264.308.464l-.281.066a.666.666 0 0 0-.218-.343.578.578 0 0 0-.36-.108.697.697 0 0 0-.416.12.628.628 0 0 0-.234.32 1.288 1.288 0 0 0-.068.414c0 .184.027.344.08.481a.6.6 0 0 0 .25.307.7.7 0 0 0 .366.102c.16 0 .295-.046.407-.138a.709.709 0 0 0 .225-.411Zm-3.714.757v-2.16h1.561v.255H81.73v.661h1.194v.254h-1.194v.735h1.326v.255h-1.612Zm-1.863 0v-2.16h.286v1.905h1.063v.255H79.58Zm-2.161 0v-2.16h1.56v.255h-1.275v.661H78.9v.254h-1.195v.735h1.326v.255h-1.611Zm-2.304-.887h.733l-.227-.598a5.72 5.72 0 0 1-.152-.448 2.768 2.768 0 0 1-.117.413l-.237.633Zm-.623.887.83-2.16h.307l.884 2.16h-.326l-.252-.654h-.903l-.236.654h-.304Zm-2.112 0v-2.16h.294l1.134 1.696v-1.695h.273v2.159h-.292l-1.135-1.697v1.697h-.273Zm-.953 0h.285v-2.16h-.285v2.16Zm-2.386 0v-2.16h.286v.887h1.122v-.886h.286v2.159h-.286v-1.018h-1.122v1.018h-.286Zm-.814-.757.286.072a.967.967 0 0 1-.323.537.892.892 0 0 1-.572.184c-.232 0-.421-.047-.567-.141a.892.892 0 0 1-.333-.412 1.479 1.479 0 0 1-.114-.58c0-.224.043-.42.129-.587a.883.883 0 0 1 .366-.382 1.07 1.07 0 0 1 .524-.13c.216 0 .397.055.545.165.147.11.25.264.307.464l-.28.066a.666.666 0 0 0-.219-.343.578.578 0 0 0-.36-.108.699.699 0 0 0-.415.12.627.627 0 0 0-.234.32 1.278 1.278 0 0 0-.069.414c0 .184.027.344.08.481.054.137.137.24.25.307a.7.7 0 0 0 .367.102c.16 0 .296-.046.406-.138a.709.709 0 0 0 .225-.411Zm-4.818.757v-2.16h.286v.887h1.122v-.886h.286v2.159h-.286v-1.018h-1.122v1.018h-.286Zm-1.47 0V72.91h-.71v-.255h1.71v.254h-.714v1.905h-.285Zm-2.55-1.206h.614c.13 0 .233-.014.306-.041a.325.325 0 0 0 .168-.13.35.35 0 0 0 .058-.193.321.321 0 0 0-.112-.252c-.074-.066-.19-.099-.351-.099h-.683v.715Zm-.286 1.206v-2.16h.957c.193 0 .34.02.44.059.1.039.18.107.24.205.06.099.089.207.089.326a.54.54 0 0 1-.149.387c-.099.105-.252.172-.46.2a.718.718 0 0 1 .173.108c.084.076.163.172.237.287l.376.588h-.36l-.285-.45a3.96 3.96 0 0 0-.207-.297.632.632 0 0 0-.144-.144.433.433 0 0 0-.13-.058.903.903 0 0 0-.16-.01h-.331v.959h-.286Zm-2.31-1.047c0 .26.07.465.21.614.14.15.315.225.526.225a.688.688 0 0 0 .531-.227c.139-.15.209-.366.209-.644 0-.175-.03-.328-.09-.46a.686.686 0 0 0-.645-.413.73.73 0 0 0-.523.209c-.145.139-.218.37-.218.696Zm-.295-.005c0-.358.096-.639.289-.841a.983.983 0 0 1 .745-.305c.2 0 .38.048.54.143.159.096.281.228.365.399.084.17.126.363.126.579 0 .22-.044.415-.133.588a.907.907 0 0 1-.375.392 1.073 1.073 0 0 1-.524.133c-.204 0-.385-.048-.545-.147a.944.944 0 0 1-.364-.402 1.216 1.216 0 0 1-.124-.539Zm-2.262 1.052v-2.16h.293l1.134 1.696v-1.695h.274v2.159h-.293l-1.134-1.697v1.697h-.274Z" clip-rule="evenodd"/><path fill="#1D2088" fill-rule="evenodd" d="M38.944 52.287c-6.437 0-11.657 5.22-11.657 11.657S32.507 75.6 38.944 75.6 50.6 70.38 50.6 63.944s-5.22-11.657-11.657-11.657ZM27 63.944C27 57.348 32.349 52 38.944 52c6.595 0 11.943 5.349 11.943 11.944 0 6.595-5.348 11.943-11.943 11.943C32.348 75.887 27 70.54 27 63.944Z" clip-rule="evenodd"/><path fill="#1D2088" fill-rule="evenodd" d="M38.944 55.37a8.574 8.574 0 0 0 0 17.147 8.574 8.574 0 0 0 0-17.147Zm-8.956 8.574a8.956 8.956 0 0 1 17.911 0 8.956 8.956 0 0 1-17.91 0Z" clip-rule="evenodd"/><path fill="#1D2088" fill-rule="evenodd" d="M31.35 64.117a7.598 7.598 0 0 1 4.604-7.157v7.157H31.35Zm14.594-3.125h-3.822v5.05c0 1.718-1.342 3.11-3.059 3.11a3.11 3.11 0 0 1-3.109-3.11h-4.312a7.597 7.597 0 1 0 14.302-5.05Zm-5.68 9.497c0 .042.01.082.03.121.02.04.049.07.088.09.04.022.081.033.126.033.07 0 .128-.022.174-.068a.231.231 0 0 0 .068-.171.235.235 0 0 0-.07-.175.241.241 0 0 0-.177-.07.234.234 0 0 0-.24.24Zm.047-.551c0 .056.019.102.055.138a.193.193 0 0 0 .141.054.19.19 0 0 0 .14-.053.176.176 0 0 0 .053-.13.19.19 0 0 0-.195-.19.193.193 0 0 0-.139.052.173.173 0 0 0-.055.129Zm.03.248a.277.277 0 0 1-.136-.095.25.25 0 0 1-.043-.148.29.29 0 0 1 .093-.22.347.347 0 0 1 .25-.088.35.35 0 0 1 .25.09c.064.061.096.135.096.222a.245.245 0 0 1-.044.144.276.276 0 0 1-.132.095.321.321 0 0 1 .167.116.319.319 0 0 1 .058.19.343.343 0 0 1-.108.257.394.394 0 0 1-.285.104.392.392 0 0 1-.285-.104.348.348 0 0 1-.108-.26c0-.078.02-.143.059-.196a.294.294 0 0 1 .168-.107Zm-1.245.335.154-.013a.276.276 0 0 0 .079.169.216.216 0 0 0 .15.056c.07 0 .13-.026.179-.08a.3.3 0 0 0 .073-.211.272.272 0 0 0-.07-.198.246.246 0 0 0-.185-.073.256.256 0 0 0-.217.116l-.137-.018.115-.613h.594v.14h-.477l-.064.321a.388.388 0 0 1 .226-.075c.104 0 .192.036.263.108a.378.378 0 0 1 .108.279.436.436 0 0 1-.095.28.38.38 0 0 1-.313.144.386.386 0 0 1-.266-.09.356.356 0 0 1-.117-.242Zm-.398-.49a.286.286 0 0 0-.067-.2.21.21 0 0 0-.162-.075.224.224 0 0 0-.17.08.296.296 0 0 0-.072.207c0 .076.023.138.068.185a.226.226 0 0 0 .17.071.217.217 0 0 0 .167-.07.28.28 0 0 0 .066-.198Zm-.6.526.14-.013a.246.246 0 0 0 .07.144c.033.03.076.045.129.045.044 0 .084-.01.118-.031a.252.252 0 0 0 .083-.082.48.48 0 0 0 .055-.14.75.75 0 0 0 .021-.208.337.337 0 0 1-.285.157.333.333 0 0 1-.25-.108.393.393 0 0 1-.103-.283c0-.121.035-.218.107-.292a.358.358 0 0 1 .268-.111.383.383 0 0 1 .36.241c.033.078.05.19.05.336 0 .153-.017.274-.05.364a.383.383 0 0 1-.378.277.333.333 0 0 1-.228-.077.334.334 0 0 1-.107-.219Zm-.49.276h-.146V69.9a.98.98 0 0 1-.293.176v-.141a.89.89 0 0 0 .215-.14.557.557 0 0 0 .13-.16h.094v1.198Zm4.448-13.82a7.623 7.623 0 0 1 2.72 2.065h-2.72v-2.065Z" clip-rule="evenodd"/><path fill="#E60013" fill-rule="evenodd" d="M44.96 59.29h-6.761l-1.781 5.188h-5.044c.026.394.08.785.175 1.172h8.985l.384-1.114H37.73l.395-1.145h3.372l.42-1.22h-3.372l.462-1.343h6.875a8.19 8.19 0 0 0-.924-1.537Z" clip-rule="evenodd"/><path fill="#1D2088" fill-rule="evenodd" d="M42.057 55.883v1.13a7.502 7.502 0 0 0-3.113-.665 7.57 7.57 0 0 0-2.99.611v-1.128c.954-.369 1.906-.533 2.99-.533 1.104 0 2.144.203 3.113.585ZM41.493 53.917c-.007.009-.011.008-.013.019v.005c-.004.02.06.08.076.093.021.02.04.007.06.032.02.027.015.024.06.03.005.01.008.01.007.022v.005c-.004.022-.035.052-.05.059-.008.052-.093.111-.103.166l-.04.042c-.007.053-.02.038-.044.065-.01.065-.037.04-.048.085a.222.222 0 0 1-.049.09c-.01.068-.017.061-.046.099-.011.015-.014.034-.022.053-.01.026-.023.022-.027.048a.02.02 0 0 0 .017.022l.03.005c.042.006.035-.036.09-.028l.03.004c.03.005.041.04.11.057.042.01.038.041.12.053l.114.016c.025.004.14-.01.167-.015.002 0 .127-.056.133-.06.018-.01.033-.034.05-.051.01-.01.013-.02.023-.03.008-.008.02-.013.028-.021.031-.03.056-.087.098-.107.009-.06.03-.035.043-.067.029-.062.012-.023.047-.062.011-.077.038-.053.055-.105.019-.06.043-.064.052-.109.008-.035.003-.035.017-.067.008-.018.02-.04.022-.06.01-.068.013-.074.015-.14 0-.025-.01-.036-.006-.062.004-.039.003-.032-.014-.056-.022-.033-.039-.059-.08-.073-.03-.01-.033-.01-.05-.03-.017-.021-.027-.017-.049-.03-.026-.018-.101-.03-.096-.066.004-.029.07-.026.074-.056l.002-.015c.004-.027-.041-.075-.06-.088-.023-.017-.07-.063-.09-.066l-.01-.001c-.037-.005-.043.053-.054.083a.602.602 0 0 1-.064.069c-.023.018-.013.016-.026.043-.01.024-.021.018-.032.034-.014.02-.002.025-.025.043-.012.01-.03.028-.038.033a1.286 1.286 0 0 1-.09.034c-.033.004-.023.012-.044.02-.016.005-.036-.002-.057.006-.016.006-.022.017-.042.021-.021.005-.038-.006-.06-.002-.056.012-.024.024-.111.011Zm.496.586-.004.025c-.035.039-.16.145-.223.136-.038.041-.046.016-.092.032-.044.016-.033.026-.1.022-.006-.007-.013-.01-.011-.023.001-.01.065-.052.079-.066.022-.025.048-.067.07-.084l.071-.084a1.634 1.634 0 0 1 .128-.18c.013-.03.008-.03.03-.049.02-.016.015-.03.03-.05.017-.022.02-.01.036-.04a.193.193 0 0 1 .03-.048c.027-.026.033-.078.081-.072.02.003.012.023.032.026.032.004.042-.025.074-.02l.01.001c.011.002.01.006.019.013a.261.261 0 0 1-.05.135c-.016.024-.013.043-.027.066-.013.02-.027.02-.039.049-.02.047.002.02-.033.057-.025.027-.01.041-.03.06-.036.035-.013.001-.037.053-.007.015-.032.027-.044.041ZM46.026 56.931l-.072-.077c-.017-.018-.011-.042-.023-.055a.02.02 0 0 0-.029 0l-.011.01c-.025.023-.015.043.008.068-.005.024.007.103.028.126l.023.028.096.077.003.003a.08.08 0 0 1 .023.076c-.06.057-.094.046-.132.075-.062.046-.09.029-.13.067-.037.005-.034-.004-.07.022-.019.014-.064-.002-.068-.005-.018-.02.023-.05-.018-.094l-.007-.008c-.015-.016-.045-.034-.06-.02l-.004.004c-.058.055-.044.33.016.394l.014.015c.014.016.096.015.117.013.024-.002.03-.02.062-.024.027-.004.035-.002.062-.025l.053-.005.048-.037c.049.012.047-.017.091-.033.047-.018.039.002.091-.046l.09-.023c.058-.054.055-.002.129-.074l.063.013c.034.038.067.061.115.096.045.034.066.016.123.077.047.01.144.045.19.002l.007-.006c.021-.02.032-.1.008-.126 0 0-.062-.04-.07-.047-.027-.02-.049-.02-.075-.026-.046-.05-.074-.02-.123-.072l-.027-.03c-.026-.026.046-.07.078-.1.011-.002.014 0 .022-.007l.104-.096.096-.112c.022.005.073.029.093.01l.004-.003c.014-.013.007-.11.004-.129-.051-.055-.005-.101-.045-.145-.027-.028-.08.048-.114.069-.027.018-.1.055-.113.067-.034.03-.078.066-.114.092-.034.025-.075.03-.113.065-.06.055-.174.147-.225.1-.057-.052-.063-.014-.11-.065-.038-.042-.089-.058-.108-.079Z" clip-rule="evenodd"/><path fill="#1D2088" fill-rule="evenodd" d="m46.24 57.59-.046.04-.154.161c-.02.02-.05.043-.074.063-.035.028-.053-.007-.072.011l-.003.004c-.009.008-.006.01-.008.021.032.034.07.127.063.156l.04.052.07.074c.022.023.143.012.154.001l.06-.055c.014-.014.018-.05.015-.064.037-.035.041-.187.039-.232-.002-.039-.01-.079-.014-.118-.003-.024-.017-.028-.016-.058 0-.025.006-.036-.018-.062-.01-.01-.025-.004-.036.006ZM48.478 61.43c-.03.013-.033.06-.038.084.014.036.008.056.012.067.005.012.013.008.02.025.004.01 0 .02-.01.024-.027.01-.066.008-.072.01l-.026.009-.047.025a1.091 1.091 0 0 1-.153-.132c-.04-.041-.133-.075-.155-.128-.007-.005-.015-.013-.027-.008l-.013.005c-.01.005-.027.042-.046.053-.058.033-.03-.002-.06.05-.017.027-.021.017-.038.059a.644.644 0 0 0-.024.065c-.005.017.002.018-.001.037-.003.016-.01.02-.011.033-.003.016.008.043.002.076-.005.033.002.044.017.083.021.051.01.07.014.081.008.019.027.029.036.044.013.02.017.047.03.067.014.022.073.054.098.044l.09-.037c.047-.019.066-.05.094-.07.019-.013.047-.016.059-.03.012-.015.007-.032.03-.042l.01-.003c.008-.004.01 0 .019.001.014.035.019.056.04.076.007.007.048.038.058.034.01-.004.018-.063.024-.079.012-.032.026-.045.009-.089-.008-.017-.017-.016-.026-.038l-.003-.008c-.004-.01 0-.02.01-.023l.016-.007c.028-.011.032.01.066.007.029-.003.037.01.065.016.044.008.083.04.136.018l.033-.014c.035-.014.06-.076.05-.102l-.017-.041a.794.794 0 0 0-.139-.108c-.025-.011-.015-.016-.032-.03-.012-.01-.028-.008-.038-.023-.016-.025-.029-.094-.062-.08Zm-.535.2c.042-.018.201.092.214.124l.005.012c.01.024-.008.05-.023.066a4.102 4.102 0 0 1-.056.048l-.004.002c-.01.004-.063-.013-.071-.034l-.032-.078c-.004-.01.003-.013 0-.03-.002-.014-.009-.023-.012-.037-.011-.048-.021-.026-.033-.055-.002-.005.004-.016.012-.019Z" clip-rule="evenodd"/><path fill="#1D2088" fill-rule="evenodd" d="M48.678 61.07c-.006-.015.095-.18.085-.208l-.002-.004c-.004-.009-.007-.007-.015-.013-.054.022-.06.01-.112.022a.824.824 0 0 0-.119.038l-.256.104c-.024.01-.097.105-.081.144l.005.013c.008.02.033.032.048.039.042.017.02.013.069 0 .031-.007.037.006.063.005.024-.001.057-.02.08-.03.018-.007.064-.029.079-.03.028-.003.015.018.065.006.028-.006.044-.006.061.018.01.013.043.044.046.053l.014.033c.009.023 0 .027.01.05l.002.003c.01.026.068.06.087.076.02.016.075.072.09.08.025.012.052.08.073.111.017.026.062.076.076.11.001.003-.002.012-.003.016l-.045.019c-.008.011-.015.046-.01.057.008.022.025.035.035.053.01.02.022.053.03.074.018.044.051.08.079.098.016.04.142.13.173.118l.02-.009c.015-.005.026-.053.036-.067l-.009-.02a.21.21 0 0 0 .004-.05l-.027-.066c-.014-.034-.053-.071-.075-.114-.027-.053-.045-.032-.082-.107-.024-.05-.048-.081-.076-.119-.016-.021-.055-.11-.068-.14-.01-.022-.016-.052-.031-.07-.014-.018-.026-.014-.044-.044a2.887 2.887 0 0 0-.09-.084c-.027-.014-.025-.033-.043-.045-.036-.024-.015-.006-.048-.04-.022-.023-.017-.002-.045-.041-.016-.023-.037-.01-.049-.039ZM49.132 61.454l-.016.006c-.01.004-.011.008-.008.018l.002.004c.008.02.019.014.03.036.01.021.017.032.025.052.038.008.04.042.065.073.01.013.06.048.076.057.019.01.019.022.033.035.008.008.02.011.036.027.023.02.048.04.074.06.072.06.101.032.17.061.025.01.055.016.086.03.023.01.063.028.092.016l.03-.012c.028-.011.056-.096.061-.124l.017-.068c.011-.026.049-.026.033-.065l-.008-.02a.295.295 0 0 0-.088-.053c-.032-.01-.064-.02-.098-.026-.029-.005-.065-.027-.096-.031-.026-.004-.02-.012-.05-.011-.028 0-.028-.002-.052-.009-.021-.005-.02.006-.052-.005-.02-.007-.026 0-.05-.01-.033-.015-.064-.019-.1-.026-.025-.005-.014-.016-.05-.008-.03.006-.031-.005-.053-.005-.025 0-.032.015-.057.004-.015-.006-.031-.015-.052-.006Z" clip-rule="evenodd"/><path fill="#1D2088" fill-rule="evenodd" d="M49.352 60.786c-.087.036-.09-.007-.16.022l-.111.045c-.057.023-.057.025-.085.06-.014.02-.027.014-.038.032l-.02.04c-.02.04-.056.127-.034.18.007.018.047.04.061.044.033-.014.077-.037.103-.033.038.007.04.013.092-.008l.054-.022c.01-.004.023-.015.02-.023-.006-.015-.03-.011-.033-.02-.004-.01 0-.02.01-.023l.02-.009c.03-.012.036.015.065.003.002-.001.03-.048.035-.057.014-.023.006-.035.018-.064.006-.017.004-.043.01-.068.005-.017-.003-.016.005-.035.004-.01.014-.023.01-.034l-.004-.008c-.005-.012-.01-.016-.018-.022ZM49.589 61.32c-.018-.044-.033-.028-.066-.07-.027-.036-.037-.005-.065-.073-.007-.005-.058-.035-.066-.032-.007.003-.03.077-.036.091-.013.03-.03.064-.015.104l.014.033c.01.023.098.053.12.057.042-.017.043-.002.073.004.06-.024.043.02.096 0a.793.793 0 0 0 .129.043.017.017 0 0 0 .01-.023l-.007-.017c-.009-.02-.077-.029-.095-.052-.021-.028-.024-.012-.043-.034-.018-.02-.025-.025-.05-.03ZM35.653 53.347l.003.01-.014.075c.022.075.031.138.032.203 0 .062.057.158.038.207-.013.033-.043.032-.062.057-.027.035-.055.03-.071.056-.032.054-.025.022-.071.056-.044.032-.02.064-.044.071l-.01.003c-.015.004-.064-.038-.095-.029-.024.008.017.109.025.136a.302.302 0 0 0 .01.16l.035.118c.02.071.039.09.064.136.013.023.056.116.063.14.026.008.033.027.044.063.01.009.074.08.077.09.018.06-.097.106-.087.138l.002.01c.008.026.058.024.08.026.034.003.037.026.094.01l.066-.02c.017-.005.043-.072.055-.089.013-.016.025-.013.04-.037.016-.024.008-.027.047-.038.01-.011.017-.035.03-.04.012-.003.058.036.066.045.013.014.006.02.026.033.01.006.03.01.034.024l.007.023s-.045.1-.01.09c.03-.008.031-.024.043-.028l.019-.005c.022-.007.042.008.09-.006.03-.01.08-.03.105-.026.05.01.011.015.082.01.03-.002.062.015.087.008l.113-.034c.007-.002.032-.042.04-.052l.024-.007c.007-.021.03-.037.026-.054-.008-.027-.092-.054-.119-.058-.084-.012-.058-.013-.165.02l-.046-.023-.194.056c-.019-.006-.075-.05-.082-.073l-.014-.047c-.011-.038 0-.051.038-.063.009-.027.053-.078.071-.111l.032-.058c.013-.025.009-.05.022-.067-.013-.047.003-.05.013-.08-.014-.046.03-.098.048-.135.013-.028.054-.104.089-.114.016-.053.096-.172.128-.23.017-.033.098-.222.089-.253l-.018-.061c-.012-.04-.085-.072-.116-.085-.03-.014-.03.004-.066-.023a.222.222 0 0 0-.068-.029l-.066.02c-.037.01-.05.027-.07.045-.031.028-.043.018-.083.037-.06.029-.07.06-.156.084a.242.242 0 0 1-.055.05c-.014.007-.03.009-.04.017-.014.011-.009.02-.031.027-.011.003-.027-.006-.03-.017l-.032-.108c-.014-.048 0-.108-.008-.163-.008-.056.015-.111.001-.157a.468.468 0 0 0-.192-.098l-.005.002c-.01.003-.038.062-.032.08.018.051.049.062.054.082Zm.29.657c-.026-.088-.017-.092.038-.137a.467.467 0 0 1 .08-.036c.048-.015.06-.038.07-.04l.009-.003a.019.019 0 0 1 .024.013l.006.019c.002.007-.086.24-.122.25l-.042.012c-.025.008-.064-.009-.072-.035l-.002-.01c-.004-.011.006-.02.01-.033Zm-.39.139c-.009-.031-.058-.025-.065-.048l-.004-.014.033-.01c.027-.007.072.014.118.002.036-.009.11-.046.12-.01l.028.095.014.067c-.013.04-.054.041-.098.065-.038.02-.061.048-.1.06-.006 0-.023-.009-.026-.019l-.021-.075-.005-.014c-.016-.052.023-.04.006-.1Zm.077.366-.002-.005a.019.019 0 0 1 .014-.024l.037-.011c.026-.008.03.002.055-.006l.019-.005c.024-.008.024-.018.044-.023.015-.005.074.04.079.058l.038.132c.015.05-.037.134-.104.153l-.009.003c-.026.008-.04-.034-.05-.053-.015-.03-.03-.028-.046-.06a7.342 7.342 0 0 1-.075-.16ZM31.02 56.81l.06.042.244.163c.015 0 .1-.005.103-.002l.047.033c.032.023.028.137 0 .173l.015.053-.021.03c.008.022.012.02.005.047-.006.022.002.029.005.05.003.017.021.088.014.098-.007.01-.012.01-.021.004-.027-.02-.049-.065-.076-.091-.033-.033-.08-.052-.113-.085-.031-.033-.069-.054-.098-.087-.025-.028-.039-.06-.082-.09l-.053-.04-.08-.05c-.042 0-.119-.001-.151.046l-.052.012-.061.064-.033.046c-.026.036.06.075.094.099.01.008.023.05.053.08.04.04.048.03.067.078.011.027.141.125.178.151.014.038-.004.03-.006.06-.003.035.016.016-.014.066-.005.008-.034.121-.023.129.024.017.075 0 .1-.004.065-.01.055.03.105.01l.015-.02c.033-.013.048.004.075-.033l.022-.005c.037.026.07.037.115.07.016.011.04.032.058.039.024.009.044-.004.056.004.042.03.049.346.067.359l.004.003a.65.65 0 0 0 .184-.027l.033-.046c.005-.007-.013-.108-.015-.127-.003-.021-.004-.045-.008-.065-.007-.045.007-.037.004-.067-.003-.04.005-.093.004-.134-.002-.047-.024-.097-.023-.129-.037-.027-.022-.037-.034-.068-.051-.037-.017-.05-.07-.1-.043-.042-.05-.066-.08-.097-.044-.043-.047-.051-.056-.102-.004-.025.006-.022-.003-.055-.006-.019.003-.04.019-.062l.006-.008c.013-.02.029-.02.045-.019.056.04.037.018.079.029.028.007.057.034.086.051.028.017.053.032.086.056.043.03.064.026.085.041.054.039.024.182.06.209.007.004.014.006.019 0 .029-.04.002-.092.039-.143.03-.041.072-.048.088-.07l.03-.042c.017-.024-.002-.053.028-.1a.434.434 0 0 0 .048-.108c.008-.032-.005-.07-.018-.097-.01-.021-.02-.018-.025-.044-.004-.021-.004-.03-.028-.047l-.004-.003a.408.408 0 0 0-.127.012c-.041.032-.081.048-.117.098-.01.015-.003.04-.01.05-.02.027-.07-.014-.098-.032-.051-.032-.069-.011-.102-.035l-.025-.018c-.05-.036.005-.097.025-.145.013-.03.007-.048.016-.072.01-.028.025-.046.026-.075.003-.049.03-.097.026-.144-.003-.035-.018-.106-.054-.132l-.016-.012c-.014-.01-.023.006-.057-.009-.024-.01-.033-.004-.056 0-.038.006-.075.013-.105.056-.014 0-.04-.005-.05.008l-.015.021c-.006.008-.005.022 0 .026.016.011.04-.016.092.022l.005.003c.028.02.015.04.01.065-.006.017 0 .043-.006.07-.008.039.01.026-.012.073-.018.04 0 .058-.01.072l-.005.008c-.007.01-.01.007-.02.01l-.143-.101c-.02-.014-.05-.04-.071-.05-.007-.004-.027-.016-.037-.02-.016-.008-.022.002-.034-.007-.005-.004-.069-.093-.071-.095-.034-.024-.13-.001-.165.007-.046.011-.14-.006-.162.025l-.003.004c-.015.02.056.07.076.094a.55.55 0 0 0 .099.095Zm.489.585c-.028-.02.025-.022-.015-.068l.012-.017c.007-.01.012-.01.022-.004 0 .001.022.076.014.087l-.003.004c-.007.01-.012.01-.022.004l-.008-.006ZM28.05 60.585l.017.007c.015.005.015-.003.03.003l.03.01c.013.006.079.05.1.064.017.01.021.03.037.04.019.012.04.016.053.031.05.054.153.076.235.114.11.05.118.06.158.149l.042.092c.018.04.051.055.059.086.054.02.015.038.07.059.005.006.031.048.029.055-.01.026-.078-.024-.115-.012-.03.01-.035-.002-.055.003-.02.004-.024.018-.052.007-.007.005-.023.016-.033.012l-.01-.004a1.18 1.18 0 0 1-.086-.164 1.023 1.023 0 0 1-.014-.044c-.006-.025.009-.033.003-.052-.009-.026-.028-.067-.033-.088-.027-.01-.078-.035-.106-.031-.023.002-.01.014-.047.007-.02-.004-.027.007-.045.011-.032.009-.057.009-.087.028-.01.007-.07.047-.074.058l-.004.01c-.004.01.003.017.008.023.037.015.024.022.04.038.034.03.015.005.036.043.018.031.054.052.063.089.02.007.05.054.067.072.015.016.022.02.032.039.014.027.029.012.042.034.006.01.058.065.07.071.034.021.026.042.088.066l.011.004c.013.005.02 0 .029-.002.012-.033.022-.086.053-.084.012.001.04.011.054.015.014.004.033 0 .05.006.027.01.042.028.067.038l.128.047c.03.011.137-.053.15-.086v-.003c.008-.02-.036-.059-.043-.072-.012-.024-.006-.013-.029-.03-.018-.015-.008-.023-.027-.036-.018-.013-.022-.01-.031-.03-.009-.018-.017-.017-.033-.032-.012-.01-.004-.015-.026-.032a.06.06 0 0 1-.022-.037c-.04-.015-.03-.024-.047-.047l-.018-.006c-.005-.007-.013-.018-.01-.028l.006-.014.046.017c.016.006.019.02.053.027.021.005.042.012.066.022.04.014.084.027.13.044l.007.002c.03.011.03.033.038.056.013.036-.008.048-.007.08.002.037.008.033-.002.078s.012.036-.005.079c-.016.044-.007.045-.006.08 0 .033-.025.052-.018.084.007.031-.002.045-.01.081-.005.023-.005.065-.011.082-.005.014-.042.017-.055.027-.012.01-.006.014-.023.022-.008.005-.024.008-.028.017l-.004.01c-.003.01.003.022.012.025l.01.004c.03.012.192-.047.198-.064l.024-.064c.029-.077.018-.133.05-.22-.018-.024-.003-.069.012-.109a.155.155 0 0 1-.002-.07c.016-.053-.01-.037.003-.075.004-.01.014-.01.021-.011l.076.023c.012-.003.035-.02.047-.015l.02.008c.017.006.017.018.04.026l.014.005c.015.006.037-.002.065.009l.004.001c.04.015.038.038.052.044.012.004.02-.013.057 0l.096.037c.01.004.016.027.022.036.043.016.072.038.103.03l.075.037c.01.005.021 0 .035.004.013.006.006.016 0 .03l.01.019c.009 0 .01 0 .02.003.022.009.012.025.035.034l.007.002c.008.003.01 0 .017-.002.02-.05.044-.03.051-.05l.033-.088c.008-.021.005-.034-.008-.046-.012-.012-.02-.034-.03-.037l-.07-.027c-.014-.005-.022.012-.041.009-.012-.002-.03-.015-.048-.022-.032-.01-.07-.021-.108-.036-.035-.013-.07-.018-.102-.03-.06-.02-.06-.055-.071-.059h-.004c-.014-.006-.02.012-.042.004l-.092-.035c-.016-.006-.017-.018-.039-.027-.016-.006-.032-.007-.055-.016l-.021-.008c-.023-.008-.024-.017-.047-.025l-.028-.012-.037-.009c-.016-.02-.009-.028.002-.06.01-.028.005-.038.004-.06 0-.026.035-.11.047-.143.01-.027.011-.041.022-.069.01-.028.004-.038.004-.06 0-.023.012-.043.013-.066 0-.02-.013-.026 0-.062a.403.403 0 0 1-.023-.042c-.007-.014-.008-.046-.015-.05-.017-.005-.039-.003-.049.004-.011.008-.006.012-.017.02-.007.004-.014.005-.022.01l-.041.026a.568.568 0 0 0-.032.047l-.007.017c-.01.03.015.028.018.06.003.022.006.041.001.068-.01.05-.033.105-.053.16.004.016.018.028.01.048l-.022.06c-.005.011-.016.01-.027.007l-.028-.011c-.02-.007-.056-.041-.083-.051l-.017-.007c-.04-.014-.092.024-.121.04-.034.017-.03.009-.058.02-.014.006-.019.002-.032.008-.019.009-.012.024-.028.018-.023-.009-.05-.08-.046-.094.01-.025.093-.014.13 0 .03-.008.058-.008.085-.02.017-.008.065-.036.073-.056l.013-.035c.016-.043-.004-.04.003-.078.004-.025-.004-.049-.007-.073a.72.72 0 0 0-.022-.067.647.647 0 0 0-.06-.05c-.016-.005-.046.014-.052.03l-.019.05c-.016.043-.004.087-.01.105l-.01.025c-.008.021-.047.012-.067.014-.019.002-.018.005-.039 0-.026-.007-.024.006-.037.002-.022-.008-.004-.041-.005-.06 0-.012-.006-.015-.007-.03 0-.017.007-.02.008-.036.002-.02-.01-.024-.006-.062.003-.018-.003-.04-.005-.062-.001-.014-.005-.015-.01-.026-.005-.016.003-.014-.002-.03-.003-.011-.014-.052-.017-.058-.01-.022-.037-.092-.062-.101l-.007-.003a.393.393 0 0 0-.093.005c-.024.01-.047.034-.076.04-.01.003-.035-.005-.05-.005-.018 0-.024.009-.045.003-.022-.005-.087-.015-.093.002-.003.008 0 .01.002.016l.2.08c.016.022.027.027.042.055l.021.067c.005.016.04.125.037.134l-.002.003c-.003.008-.005.007-.012.012-.064-.024-.07-.029-.1-.07l-.022-.007-.036-.075c-.03-.011-.023-.012-.033-.032-.012-.021-.026-.013-.042-.028-.03-.03-.034-.038-.088-.057-.009-.014-.008-.028-.027-.035-.029-.01-.087.026-.106.045-.012.011-.092.052-.097.065l-.003.008a.014.014 0 0 0 .01.02Z" clip-rule="evenodd"/><path fill="#1D2088" fill-rule="evenodd" d="m29.704 61.477.004.002c.008.003.021-.003.024-.011l.003-.007c.005-.014-.015-.026-.029-.031l-.01-.004c-.007-.003-.012-.002-.014.003-.003.008.014.045.022.048ZM29.59 61.411c.01.003.024.004.026-.003.002-.005-.002-.009-.008-.01l-.003-.002c-.01-.004-.01-.002-.02-.003-.002.01-.005.014.006.018ZM49.695 65.024l-.41-.021-.58.345.008-.157.303-.176c.056-.032.113-.062.17-.09a3.483 3.483 0 0 1-.167-.115l-.275-.203.008-.15.539.417.411.022-.007.128Zm-.157.983-.845-.15-.055.316-.113-.02.133-.759.114.02-.056.317.844.149-.022.127Zm-.135.67-.95-.202.026-.125.951.202-.027.126Zm-.606.893.027-.118c.048.01.09.01.126-.001a.219.219 0 0 0 .102-.07.37.37 0 0 0 .074-.133.358.358 0 0 0 .02-.13.183.183 0 0 0-.032-.099.14.14 0 0 0-.07-.052.125.125 0 0 0-.085.001.195.195 0 0 0-.081.066c-.018.021-.051.071-.1.15a.894.894 0 0 1-.115.16.264.264 0 0 1-.118.07.221.221 0 0 1-.126-.005.246.246 0 0 1-.117-.082.259.259 0 0 1-.055-.146.467.467 0 0 1 .023-.18.485.485 0 0 1 .092-.17.274.274 0 0 1 .297-.088l-.029.12a.2.2 0 0 0-.153.021c-.042.027-.074.076-.097.147-.024.074-.028.132-.012.175.016.043.043.07.081.083a.11.11 0 0 0 .094-.01.513.513 0 0 0 .126-.163c.055-.092.097-.154.126-.186a.297.297 0 0 1 .133-.088.263.263 0 0 1 .27.092.293.293 0 0 1 .061.154c.007.06 0 .124-.022.19a.554.554 0 0 1-.105.198.31.31 0 0 1-.153.098.327.327 0 0 1-.182-.004Zm-.548.704-.296-.125.12-.284c.028-.066.062-.109.103-.128.04-.02.081-.02.123-.002a.157.157 0 0 1 .07.058.147.147 0 0 1 .025.093.413.413 0 0 1-.037.134l-.108.254Zm.45.33.05-.117-.398-.17.059-.136a.414.414 0 0 1 .032-.065.195.195 0 0 1 .047-.044.284.284 0 0 1 .085-.034c.038-.01.091-.022.16-.034l.236-.039.063-.149-.31.052a.671.671 0 0 0-.16.048.323.323 0 0 0-.075.053.34.34 0 0 0-.002-.226.243.243 0 0 0-.135-.13.278.278 0 0 0-.15-.02.216.216 0 0 0-.128.063.576.576 0 0 0-.101.172l-.169.397.896.38Zm-.467.862-.842-.486.351-.61.1.058-.288.498.258.149.269-.466.099.057-.27.466.288.165.298-.517.1.058-.363.628Zm-.382.595.076-.109-.578-.87-.075.108.428.62c.032.047.065.092.1.135a2.24 2.24 0 0 0-.16-.05l-.723-.198-.08.114 1.012.25Zm-.417.566-.766-.598.079-.102.766.599-.08.101Zm-.7.824.08-.094-.576-.5.912.115.087-.1-.734-.638-.081.094.576.5-.911-.115-.087.1.734.638Zm-.98-.418.093-.09.39.405c.068.07.114.133.138.19a.284.284 0 0 1 .01.184.422.422 0 0 1-.125.197.465.465 0 0 1-.194.121.267.267 0 0 1-.183-.012.645.645 0 0 1-.196-.15l-.39-.403.092-.09.39.404c.058.06.107.1.146.118a.18.18 0 0 0 .123.01.28.28 0 0 0 .123-.074c.068-.065.102-.128.101-.187 0-.058-.044-.132-.128-.22l-.39-.403Zm-1.088 1.44.224-.163a.412.412 0 0 0 .1-.096c.02-.03.03-.06.027-.092a.158.158 0 0 0-.03-.086.144.144 0 0 0-.107-.062c-.044-.005-.096.014-.154.057l-.25.18.19.261Zm.215.514.104-.076-.254-.349.121-.088a.413.413 0 0 1 .06-.038.195.195 0 0 1 .064-.014.284.284 0 0 1 .09.015c.038.01.09.028.154.053l.223.089.131-.096-.292-.114a.673.673 0 0 0-.162-.042.32.32 0 0 0-.092.006.34.34 0 0 0 .115-.194.244.244 0 0 0-.049-.18.278.278 0 0 0-.119-.096.217.217 0 0 0-.141-.01.575.575 0 0 0-.176.094l-.348.253.571.787Zm-.853.51-.501-.834.602-.361.06.098-.493.296.154.255.46-.277.06.098-.462.277.17.283.513-.307.059.098-.622.374Zm-1.079.496.12-.055-.127-.759a2.487 2.487 0 0 0-.022-.115l.076.09.498.585.113-.052-.17-.994-.117.055.126.63c.016.08.03.151.045.212-.059-.09-.13-.184-.213-.28l-.335-.387-.14.066.11.673c.002.016.014.077.036.181a3.352 3.352 0 0 0-.122-.163l-.403-.515-.12.056.645.772Zm-1.28-.08a.39.39 0 0 0 .168.24c.079.048.164.059.256.033a.31.31 0 0 0 .201-.164.414.414 0 0 0 .01-.305.498.498 0 0 0-.095-.188.309.309 0 0 0-.33-.099.328.328 0 0 0-.201.155c-.046.079-.049.188-.008.329Zm-.127.035a.529.529 0 0 1 .02-.4.443.443 0 0 1 .285-.224.466.466 0 0 1 .251-.005c.081.022.15.064.208.127.057.063.1.142.126.235a.572.572 0 0 1 .016.271.408.408 0 0 1-.114.217c-.06.058-.13.1-.21.122a.458.458 0 0 1-.255.004.426.426 0 0 1-.207-.129.55.55 0 0 1-.12-.218Zm-.756.132.247-.048c.082-.016.137-.042.165-.08a.165.165 0 0 0 .027-.137.176.176 0 0 0-.05-.097.144.144 0 0 0-.091-.04.554.554 0 0 0-.12.014l-.244.047.066.341Zm-.028.526-.186-.955.36-.07a.895.895 0 0 1 .147-.019.292.292 0 0 1 .127.022.24.24 0 0 1 .094.077.297.297 0 0 1 .054.124.3.3 0 0 1-.037.222c-.041.066-.129.112-.264.138l-.245.048.076.388-.126.025Zm-.696-.254.131.021a.434.434 0 0 1-.124.254.4.4 0 0 1-.249.105.463.463 0 0 1-.26-.041.4.4 0 0 1-.165-.172.665.665 0 0 1-.04-.524.397.397 0 0 1 .15-.186.48.48 0 0 1 .23-.079.398.398 0 0 1 .25.053c.071.043.123.109.157.196l-.124.04a.301.301 0 0 0-.11-.145.26.26 0 0 0-.166-.034.314.314 0 0 0-.182.07.283.283 0 0 0-.093.153.58.58 0 0 0-.014.188.597.597 0 0 0 .055.213c.03.06.07.102.124.128.053.026.11.037.168.031a.277.277 0 0 0 .177-.078.32.32 0 0 0 .085-.193Zm-1.092.403-.05-.971.128-.007.05.97-.128.008Zm-.901-.596.276.024a.41.41 0 0 0 .139-.006.147.147 0 0 0 .08-.051.158.158 0 0 0 .033-.085.145.145 0 0 0-.04-.117c-.03-.033-.082-.052-.153-.058l-.307-.027-.028.32Zm-.175.53.084-.968.43.037a.573.573 0 0 1 .194.043.217.217 0 0 1 .1.102.277.277 0 0 1 .027.15.243.243 0 0 1-.082.167.339.339 0 0 1-.214.072c.033.02.057.038.074.055a.669.669 0 0 1 .095.138l.145.279-.161-.014-.11-.213a1.766 1.766 0 0 0-.082-.142.285.285 0 0 0-.059-.07.196.196 0 0 0-.056-.031.407.407 0 0 0-.071-.01l-.149-.014-.037.43-.129-.01Zm-.649-.061.105-.852-.318-.039.014-.113.764.093-.014.114-.319-.039-.104.851-.128-.015Zm-.522-.453.118.063a.435.435 0 0 1-.2.2.401.401 0 0 1-.27.018.462.462 0 0 1-.232-.124.4.4 0 0 1-.1-.216.663.663 0 0 1 .133-.508.397.397 0 0 1 .202-.127.48.48 0 0 1 .242 0 .399.399 0 0 1 .22.131c.053.065.081.143.084.237l-.13-.002a.3.3 0 0 0-.058-.174.26.26 0 0 0-.145-.086.314.314 0 0 0-.194.007.282.282 0 0 0-.138.114.577.577 0 0 0-.075.174.595.595 0 0 0-.017.219.27.27 0 0 0 .075.161c.042.042.092.07.15.085.07.017.134.012.192-.016a.32.32 0 0 0 .143-.156Zm-1.682-.141.3-.925.67.217-.036.11-.546-.178-.092.283.511.166-.035.109-.511-.166-.103.314.568.185-.035.11-.69-.225Zm-.76-.346.555.247.046-.105-.437-.195.349-.783-.118-.052-.395.888Zm-.858-.46.5-.834.603.362-.06.098-.491-.295-.154.255.461.277-.058.098-.462-.277-.17.283.512.308-.06.098-.621-.374Zm-.62-.9.263.198.08-.276a2.66 2.66 0 0 1 .067-.202 1.233 1.233 0 0 1-.154.117l-.257.163Zm-.465.15.109.082.262-.17.325.244-.087.303.118.089.267-1.016-.11-.084-.884.552Zm-.745-.598.625-.745.101.085-.1.913.491-.584.095.079-.625.745-.101-.085.1-.914-.491.586-.095-.08Zm-.305-.304.675-.7.093.09-.675.7-.093-.09Zm-.71-.806.082.098.35-.294.326.387-.351.294.082.099.745-.625-.082-.099-.306.257-.325-.387.306-.257-.083-.098-.745.625Zm.04-.48.048.123a.435.435 0 0 1-.28.025.401.401 0 0 1-.22-.16.461.461 0 0 1-.098-.244.4.4 0 0 1 .062-.23.663.663 0 0 1 .43-.304.398.398 0 0 1 .235.033.482.482 0 0 1 .186.156c.058.079.086.16.085.242a.385.385 0 0 1-.088.235l-.099-.085a.3.3 0 0 0 .068-.17.26.26 0 0 0-.056-.16.314.314 0 0 0-.154-.12.283.283 0 0 0-.179 0 .58.58 0 0 0-.168.085.594.594 0 0 0-.155.156.27.27 0 0 0-.045.173c.005.059.025.112.06.16a.278.278 0 0 0 .158.112.32.32 0 0 0 .21-.027Zm-1.39-1.652.873-.426.057.115-.359.175.222.455.358-.175.057.115-.874.427-.056-.116.411-.201-.221-.454-.412.2-.056-.115Zm-.276-.595.044.12.806-.293.11.302.108-.039-.264-.724-.108.04.11.3-.806.294Zm.13-1.253.085.263a.412.412 0 0 0 .06.125.147.147 0 0 0 .08.054c.03.008.06.008.09-.002a.145.145 0 0 0 .092-.083c.018-.04.016-.095-.006-.164l-.095-.293-.306.1Zm-.556.045.924-.3.133.41a.572.572 0 0 1 .037.196.217.217 0 0 1-.055.131.277.277 0 0 1-.127.084.243.243 0 0 1-.186-.01.34.34 0 0 1-.15-.169.32.32 0 0 1-.022.09.673.673 0 0 1-.09.14l-.2.243-.05-.154.153-.185c.044-.053.077-.097.099-.13a.286.286 0 0 0 .041-.081.197.197 0 0 0 .007-.064.408.408 0 0 0-.018-.07l-.046-.142-.41.134-.04-.123Zm.221-1.128a.39.39 0 0 0-.248.154.311.311 0 0 0-.045.254.31.31 0 0 0 .153.21c.08.046.182.055.304.026a.5.5 0 0 0 .192-.085.31.31 0 0 0 .116-.325.328.328 0 0 0-.144-.209c-.076-.05-.185-.058-.328-.025Zm-.027-.13a.527.527 0 0 1 .398.042.442.442 0 0 1 .21.296.466.466 0 0 1-.009.25.422.422 0 0 1-.138.202.581.581 0 0 1-.241.114.571.571 0 0 1-.271.001.408.408 0 0 1-.21-.125.482.482 0 0 1-.112-.216.457.457 0 0 1 .009-.254.427.427 0 0 1 .14-.2.548.548 0 0 1 .224-.11Zm-.57-.9.965-.119.017.131-.696.6.758-.093.015.123-.965.118-.016-.13.696-.601-.759.093-.015-.122Z" clip-rule="evenodd"/><path stroke="#1D2088" stroke-width=".216" d="m49.695 65.024-.41-.021-.58.345.008-.157.303-.176c.056-.032.113-.062.17-.09a3.483 3.483 0 0 1-.167-.115l-.275-.203.008-.15.539.417.411.022-.007.128Zm-.157.983-.845-.15-.055.316-.113-.02.133-.759.114.02-.056.317.844.149-.022.127Zm-.135.67-.95-.202.026-.125.951.202-.027.126Zm-.606.893.027-.118c.048.01.09.01.126-.001a.219.219 0 0 0 .102-.07.37.37 0 0 0 .074-.133.358.358 0 0 0 .02-.13.183.183 0 0 0-.032-.099.14.14 0 0 0-.07-.052.125.125 0 0 0-.085.001.195.195 0 0 0-.081.066c-.018.021-.051.071-.1.15a.894.894 0 0 1-.115.16.264.264 0 0 1-.118.07.221.221 0 0 1-.126-.005.246.246 0 0 1-.117-.082.259.259 0 0 1-.055-.146.467.467 0 0 1 .023-.18.485.485 0 0 1 .092-.17.274.274 0 0 1 .297-.088l-.029.12a.2.2 0 0 0-.153.021c-.042.027-.074.076-.097.147-.024.074-.028.132-.012.175.016.043.043.07.081.083a.11.11 0 0 0 .094-.01.513.513 0 0 0 .126-.163c.055-.092.097-.154.126-.186a.297.297 0 0 1 .133-.088.263.263 0 0 1 .27.092.293.293 0 0 1 .061.154c.007.06 0 .124-.022.19a.554.554 0 0 1-.105.198.31.31 0 0 1-.153.098.327.327 0 0 1-.182-.004Zm-.548.704-.296-.125.12-.284c.028-.066.062-.109.103-.128.04-.02.081-.02.123-.002a.157.157 0 0 1 .07.058.147.147 0 0 1 .025.093.413.413 0 0 1-.037.134l-.108.254Zm.45.33.05-.117-.398-.17.059-.136a.414.414 0 0 1 .032-.065.195.195 0 0 1 .047-.044.284.284 0 0 1 .085-.034c.038-.01.091-.022.16-.034l.236-.039.063-.149-.31.052a.671.671 0 0 0-.16.048.323.323 0 0 0-.075.053.34.34 0 0 0-.002-.226.243.243 0 0 0-.135-.13.278.278 0 0 0-.15-.02.216.216 0 0 0-.128.063.576.576 0 0 0-.101.172l-.169.397.896.38Zm-.467.862-.842-.486.351-.61.1.058-.288.498.258.149.269-.466.099.057-.27.466.288.165.298-.517.1.058-.363.628Zm-.382.595.076-.109-.578-.87-.075.108.428.62c.032.047.065.092.1.135a2.24 2.24 0 0 0-.16-.05l-.723-.198-.08.114 1.012.25Zm-.417.566-.766-.598.079-.102.766.599-.08.101Zm-.7.824.08-.094-.576-.5.912.115.087-.1-.734-.638-.081.094.576.5-.911-.115-.087.1.734.638Zm-.98-.418.093-.09.39.405a.66.66 0 0 1 .138.19.284.284 0 0 1 .01.184.422.422 0 0 1-.125.197.465.465 0 0 1-.194.121.267.267 0 0 1-.183-.012.645.645 0 0 1-.196-.15l-.39-.403.092-.09.39.404c.058.06.107.1.146.118a.18.18 0 0 0 .123.01.28.28 0 0 0 .123-.074c.068-.065.102-.128.101-.187 0-.058-.044-.132-.128-.22l-.39-.403Zm-1.088 1.44.224-.163a.412.412 0 0 0 .1-.096c.02-.03.03-.06.027-.092a.158.158 0 0 0-.03-.086.144.144 0 0 0-.107-.062c-.044-.005-.096.014-.154.057l-.25.18.19.261Zm.215.514.104-.076-.254-.349.121-.088a.413.413 0 0 1 .06-.038.195.195 0 0 1 .064-.014.284.284 0 0 1 .09.015c.038.01.09.028.154.053l.223.089.131-.096-.292-.114a.673.673 0 0 0-.162-.042.32.32 0 0 0-.092.006.34.34 0 0 0 .115-.194.244.244 0 0 0-.049-.18.278.278 0 0 0-.119-.096.217.217 0 0 0-.141-.01.575.575 0 0 0-.176.094l-.348.253.571.787Zm-.853.51-.501-.834.602-.361.06.098-.493.296.154.255.46-.277.06.098-.462.277.17.283.513-.307.059.098-.622.374Zm-1.079.496.12-.055-.127-.759a2.487 2.487 0 0 0-.022-.115l.076.09.498.585.113-.052-.17-.994-.117.055.126.63c.016.08.03.151.045.212-.059-.09-.13-.184-.213-.28l-.335-.387-.14.066.11.673c.002.016.014.077.036.181a3.352 3.352 0 0 0-.122-.163l-.403-.515-.12.056.645.772Zm-1.28-.08a.39.39 0 0 0 .168.24c.079.048.164.059.256.033a.31.31 0 0 0 .201-.164.414.414 0 0 0 .01-.305.498.498 0 0 0-.095-.188.309.309 0 0 0-.33-.099.328.328 0 0 0-.201.155c-.046.079-.049.188-.008.329Zm-.127.035a.529.529 0 0 1 .02-.4.443.443 0 0 1 .285-.224.466.466 0 0 1 .251-.005c.081.022.15.064.208.127.057.063.1.142.126.235a.572.572 0 0 1 .016.271.408.408 0 0 1-.114.217c-.06.058-.13.1-.21.122a.458.458 0 0 1-.255.004.426.426 0 0 1-.207-.129.55.55 0 0 1-.12-.218Zm-.756.132.247-.048c.082-.016.137-.042.165-.08a.165.165 0 0 0 .027-.137.176.176 0 0 0-.05-.097.144.144 0 0 0-.091-.04.554.554 0 0 0-.12.014l-.244.047.066.341Zm-.028.526-.186-.955.36-.07a.895.895 0 0 1 .147-.019.292.292 0 0 1 .127.022.24.24 0 0 1 .094.077.297.297 0 0 1 .054.124.3.3 0 0 1-.037.222c-.041.066-.129.112-.264.138l-.245.048.076.388-.126.025Zm-.696-.254.131.021a.434.434 0 0 1-.124.254.4.4 0 0 1-.249.105.463.463 0 0 1-.26-.041.4.4 0 0 1-.165-.172.665.665 0 0 1-.04-.524.397.397 0 0 1 .15-.186.48.48 0 0 1 .23-.079.398.398 0 0 1 .25.053c.071.043.123.109.157.196l-.124.04a.301.301 0 0 0-.11-.145.26.26 0 0 0-.166-.034.314.314 0 0 0-.182.07.283.283 0 0 0-.093.153.58.58 0 0 0-.014.188.597.597 0 0 0 .055.213c.03.06.07.102.124.128.053.026.11.037.168.031a.277.277 0 0 0 .177-.078.32.32 0 0 0 .085-.193Zm-1.092.403-.05-.971.128-.007.05.97-.128.008Zm-.901-.596.276.024a.41.41 0 0 0 .139-.006.147.147 0 0 0 .08-.051.158.158 0 0 0 .033-.085.145.145 0 0 0-.04-.117c-.03-.033-.082-.052-.153-.058l-.307-.027-.028.32Zm-.175.53.084-.968.43.037a.573.573 0 0 1 .194.043.217.217 0 0 1 .1.102.277.277 0 0 1 .027.15.243.243 0 0 1-.082.167.339.339 0 0 1-.214.072c.033.02.057.038.074.055a.669.669 0 0 1 .095.138l.145.279-.161-.014-.11-.213a1.766 1.766 0 0 0-.082-.142.285.285 0 0 0-.059-.07.196.196 0 0 0-.056-.031.407.407 0 0 0-.071-.01l-.149-.014-.037.43-.129-.01Zm-.649-.061.105-.852-.318-.039.014-.113.764.093-.014.114-.319-.039-.104.851-.128-.015Zm-.522-.453.118.063a.435.435 0 0 1-.2.2.401.401 0 0 1-.27.018.462.462 0 0 1-.232-.124.4.4 0 0 1-.1-.216.663.663 0 0 1 .133-.508.397.397 0 0 1 .202-.127.48.48 0 0 1 .242 0 .399.399 0 0 1 .22.131c.053.065.081.143.084.237l-.13-.002a.3.3 0 0 0-.058-.174.26.26 0 0 0-.145-.086.314.314 0 0 0-.194.007.282.282 0 0 0-.138.114.577.577 0 0 0-.075.174.595.595 0 0 0-.017.219.27.27 0 0 0 .075.161c.042.042.092.07.15.085.07.017.134.012.192-.016a.32.32 0 0 0 .143-.156Zm-1.682-.141.3-.925.67.217-.036.11-.546-.178-.092.283.511.166-.035.109-.511-.166-.103.314.568.185-.035.11-.69-.225Zm-.76-.346.555.247.046-.105-.437-.195.349-.783-.118-.052-.395.888Zm-.858-.46.5-.834.603.362-.06.098-.491-.295-.154.255.461.277-.058.098-.462-.277-.17.283.512.308-.06.098-.621-.374Zm-.62-.9.263.198.08-.276a2.66 2.66 0 0 1 .067-.202 1.233 1.233 0 0 1-.154.117l-.257.163Zm-.465.15.109.082.262-.17.325.244-.087.303.118.089.267-1.016-.11-.084-.884.552Zm-.745-.598.625-.745.101.085-.1.913.491-.584.095.079-.625.745-.101-.085.1-.914-.491.586-.095-.08Zm-.305-.304.675-.7.093.09-.675.7-.093-.09Zm-.71-.806.082.098.35-.294.326.387-.351.294.082.099.745-.625-.082-.099-.306.257-.325-.387.306-.257-.083-.098-.745.625Zm.04-.48.048.123a.435.435 0 0 1-.28.025.401.401 0 0 1-.22-.16.461.461 0 0 1-.098-.244.4.4 0 0 1 .062-.23.663.663 0 0 1 .43-.304.398.398 0 0 1 .235.033.482.482 0 0 1 .186.156c.058.079.086.16.085.242a.385.385 0 0 1-.088.235l-.099-.085a.3.3 0 0 0 .068-.17.26.26 0 0 0-.056-.16.314.314 0 0 0-.154-.12.283.283 0 0 0-.179 0 .58.58 0 0 0-.168.085.594.594 0 0 0-.155.156.27.27 0 0 0-.045.173c.005.059.025.112.06.16a.278.278 0 0 0 .158.112.32.32 0 0 0 .21-.027Zm-1.39-1.652.873-.426.057.115-.359.175.222.455.358-.175.057.115-.874.427-.056-.116.411-.201-.221-.454-.412.2-.056-.115Zm-.276-.595.044.12.806-.293.11.302.108-.039-.264-.724-.108.04.11.3-.806.294Zm.13-1.253.085.263a.412.412 0 0 0 .06.125.147.147 0 0 0 .08.054c.03.008.06.008.09-.002a.145.145 0 0 0 .092-.083c.018-.04.016-.095-.006-.164l-.095-.293-.306.1Zm-.556.045.924-.3.133.41a.572.572 0 0 1 .037.196.217.217 0 0 1-.055.131.277.277 0 0 1-.127.084.243.243 0 0 1-.186-.01.34.34 0 0 1-.15-.169.32.32 0 0 1-.022.09.673.673 0 0 1-.09.14l-.2.243-.05-.154.153-.185c.044-.053.077-.097.099-.13a.286.286 0 0 0 .041-.081.197.197 0 0 0 .007-.064.408.408 0 0 0-.018-.07l-.046-.142-.41.134-.04-.123Zm.221-1.128a.39.39 0 0 0-.248.154.311.311 0 0 0-.045.254.31.31 0 0 0 .153.21c.08.046.182.055.304.026a.5.5 0 0 0 .192-.085.31.31 0 0 0 .116-.325.328.328 0 0 0-.144-.209c-.076-.05-.185-.058-.328-.025Zm-.027-.13a.527.527 0 0 1 .398.042.442.442 0 0 1 .21.296.466.466 0 0 1-.009.25.422.422 0 0 1-.138.202.581.581 0 0 1-.241.114.571.571 0 0 1-.271.001.408.408 0 0 1-.21-.125.482.482 0 0 1-.112-.216.457.457 0 0 1 .009-.254.427.427 0 0 1 .14-.2.548.548 0 0 1 .224-.11Zm-.57-.9.965-.119.017.131-.696.6.758-.093.015.123-.965.118-.016-.13.696-.601-.759.093-.015-.122Z" clip-rule="evenodd"/><path fill="#1D2088" fill-rule="evenodd" d="M46.121 65.464h1.528v-3.04h-1.528v3.04Z" clip-rule="evenodd"/></g><defs><filter id="a" width="154" height="157" x="0" y="0" color-interpolation-filters="sRGB" filterUnits="userSpaceOnUse"><feFlood flood-opacity="0" result="BackgroundImageFix"/><feColorMatrix in="SourceAlpha" result="hardAlpha" values="0 0 0 0 0 0 0 0 0 0 0 0 0 0 0 0 0 0 127 0"/><feOffset dy="16"/><feGaussianBlur stdDeviation="6.5"/><feColorMatrix values="0 0 0 0 0 0 0 0 0 0 0 0 0 0 0 0 0 0 0.03 0"/><feBlend in2="BackgroundImageFix" result="effect1_dropShadow_185_173"/><feBlend in="SourceGraphic" in2="effect1_dropShadow_185_173" result="shape"/></filter></defs></svg>