<svg xmlns="http://www.w3.org/2000/svg" width="154" height="157" fill="none"><g filter="url(#a)"><path fill="#fff" d="M13 0h128v128H13z"/><path fill="#29448A" d="M39.414 77.84a13.475 13.475 0 0 1-11.76-9.269c-.3-.915-.489-1.826-.61-2.91-.056-.484-.056-1.979-.004-2.378.02-.161.048-.407.06-.544.013-.137.029-.274.041-.302.008-.028.024-.13.036-.222.012-.097.069-.386.13-.645.467-2.1 1.31-3.852 2.667-5.573.363-.455 1.463-1.568 1.943-1.958a14.282 14.282 0 0 1 3.285-1.991c.939-.399 2.374-.798 3.325-.927.19-.024.463-.06.612-.085.351-.048 2.254-.048 2.604 0 .15.024.423.06.613.085.19.024.508.08.705.12.202.041.407.085.464.093.129.025.854.238 1.265.371 1.012.33 2.37 1.012 3.249 1.628.665.468.943.686 1.527 1.221 1.987 1.822 3.386 4.236 4.006 6.924.057.234.113.516.13.625.02.112.036.221.04.241.068.347.181 1.648.181 2.08 0 .624-.109 1.708-.25 2.454a13.286 13.286 0 0 1-3.84 7.165c-1.48 1.439-3.193 2.495-5.059 3.115-.983.327-1.83.516-3.002.661-.311.036-1.94.053-2.358.02Zm2.3-.323a13.235 13.235 0 0 0 7.594-3.373c2.81-2.535 4.401-6.299 4.277-10.107-.093-2.902-1.06-5.533-2.882-7.838-.492-.621-1.637-1.737-2.281-2.22-3.092-2.318-6.832-3.176-10.572-2.431a13.176 13.176 0 0 0-8.553 5.912 13.274 13.274 0 0 0-1.898 5.332c-.097.75-.121 2.26-.04 2.957.52 4.578 3.164 8.407 7.198 10.426 1.508.758 2.982 1.177 4.736 1.354.334.037 2.043.024 2.422-.012Z"/><path fill="#29448A" d="M39.526 76.514a.546.546 0 0 1-.193-.093c-.08-.073-.149-.258-.109-.298.044-.045.17.024.21.112.08.182.334.142.435-.068.093-.19.089-.234-.008-.181a.436.436 0 0 1-.492-.077c-.096-.1-.116-.153-.116-.318s.02-.222.116-.327c.101-.105.145-.125.307-.125.16 0 .21.02.326.137.13.13.137.153.137.407 0 .589-.234.907-.613.83Zm.34-.718c.044-.04.072-.12.072-.205 0-.38-.432-.395-.508-.02-.048.233.254.39.435.225ZM40.743 76.429c0-.165.117-.355.282-.468.262-.177.404-.322.404-.415 0-.117-.142-.245-.263-.245a.298.298 0 0 0-.181.08.298.298 0 0 0-.08.181c0 .081-.02.101-.101.101-.121 0-.133-.1-.04-.302.076-.153.205-.222.427-.222.205 0 .302.053.378.202.13.25.033.443-.342.685-.173.109-.282.226-.282.29 0 .008.165.008.362 0 .339-.016.363-.012.363.06 0 .069-.036.085-.246.11a6.728 6.728 0 0 1-.463.023c-.194 0-.218-.008-.218-.08ZM42.324 76.255c-.125-.132-.133-.286-.017-.302.057-.008.09.008.09.045 0 .088.136.19.257.19.113 0 .307-.158.307-.251 0-.129-.125-.234-.279-.234-.217 0-.25-.1-.064-.18.17-.07.197-.13.145-.275-.036-.089-.069-.109-.177-.109-.153 0-.254.089-.279.242-.007.073-.04.105-.108.113-.093.016-.097.008-.073-.153a.54.54 0 0 1 .089-.242c.092-.1.379-.178.504-.129.21.08.326.33.221.48-.052.076-.052.088.045.148.23.154.21.512-.04.666-.194.12-.504.116-.621-.009ZM38.084 76.231c0-.04.036-.253.08-.467.044-.214.08-.4.08-.403 0-.008-.06-.029-.128-.04-.178-.04-.194-.053-.166-.121.012-.037.073-.06.153-.06a.248.248 0 0 0 .21-.093c.073-.093.234-.105.202-.017-.008.028-.069.327-.133.662-.109.576-.121.616-.206.616-.064 0-.093-.024-.093-.077ZM35.194 75.32c-.073-.052-.089-.112-.113-.54a6.712 6.712 0 0 0-.057-.612c-.024-.125-.032-.117-.265.318-.13.25-.258.452-.279.452-.165-.004-.149-.077.158-.65.173-.317.326-.596.346-.616.02-.02.073-.008.13.029.092.06.1.088.128.64.016.319.036.593.048.613.012.016.13-.17.262-.415.226-.423.327-.528.38-.391.02.053-.585 1.233-.63 1.233a.447.447 0 0 1-.108-.06ZM45.714 75.155c-.138-.068-.258-.242-.52-.733-.134-.25-.146-.298-.097-.33.032-.02.08-.04.1-.04.025 0 .142.18.259.406.241.455.334.56.491.56.153 0 .359-.181.359-.314 0-.057-.109-.306-.242-.556-.233-.447-.238-.46-.157-.504.048-.024.1-.028.117-.008.105.109.483.915.483 1.028 0 .193-.129.37-.33.471-.214.101-.29.105-.463.02ZM33.811 74.535l-.097-.072.13-.198c.072-.109.128-.226.128-.262 0-.06-.088-.15-.326-.326l-.149-.105-.173.237c-.15.202-.182.23-.25.198-.04-.024-.065-.069-.053-.097.017-.044.448-.66.774-1.1.016-.02.593.415.681.512.125.141.101.355-.052.492-.073.064-.165.117-.206.117-.056 0-.068.024-.056.096.012.065-.012.145-.065.222a1.343 1.343 0 0 0-.137.242c-.048.117-.052.117-.149.044Zm.452-.834c.14-.125.092-.27-.15-.452a2.124 2.124 0 0 0-.241-.165c-.04 0-.258.335-.238.367.04.064.435.318.496.318a.236.236 0 0 0 .133-.068ZM47.184 73.676c-.427-.528-.427-.532-.35-.612.076-.08.08-.08.68.125.335.109.605.193.605.185 0-.008-.15-.193-.327-.42-.302-.37-.322-.406-.262-.467.077-.076.033-.116.545.517.399.49.406.503.33.576-.077.076-.089.076-.69-.125l-.612-.206.113.15c.06.08.185.24.278.35.282.346.279.335.222.403-.028.032-.06.06-.077.06-.012 0-.218-.242-.455-.536ZM40.019 73.862a9.553 9.553 0 0 1-5.542-2.12c-.44-.355-1.19-1.132-1.556-1.62a9.424 9.424 0 0 1-.492-10.667 9.514 9.514 0 0 1 4.446-3.76 9.446 9.446 0 0 1 9.532 1.418c.782.63 1.632 1.612 2.152 2.475a9.463 9.463 0 0 1-.742 10.736 9.47 9.47 0 0 1-7.798 3.538Zm1.793-.31c1.14-.186 2.044-.488 2.99-.992 2.6-1.386 4.373-3.941 4.793-6.911.088-.633.088-1.77 0-2.422-.42-3.08-2.302-5.706-5.062-7.06-1.488-.73-2.926-1.016-4.655-.928-2.838.142-5.518 1.685-7.126 4.103-.154.234-.415.697-.577 1.028a9.12 9.12 0 0 0-.886 2.962c-.089.7-.06 1.954.064 2.66a9.247 9.247 0 0 0 6.167 7.185c.62.205 1.301.35 2.136.447.31.037 1.81-.012 2.156-.072Z"/><path fill="#29448A" d="M39.535 73.16c-1.593-.173-3.084-.773-4.426-1.785-.258-.193-.258-.193.29-.407.838-.322 1.548-.44 2.52-.415.568.017.725.037 1.051.13.568.16.92.29 1.608.596.343.149.63.27.633.262.008-.008-.032-.177-.089-.379l-.104-.367-.315-.145a7.984 7.984 0 0 0-1.294-.484c-.753-.201-1.06-.241-1.85-.241-.652 0-.81.016-1.249.108a6.656 6.656 0 0 0-1.568.544c-.395.194-.354.21-.766-.253l-.286-.319.194-.12c.536-.335 1.447-.686 2.168-.835.512-.105 1.588-.145 2.092-.08.552.072 1.253.29 2.112.652.254.11.468.19.471.186.02-.02-.2-.738-.241-.778-.037-.036-.36-.161-.871-.339-.661-.23-1.527-.366-2.317-.366-1.286.004-2.334.274-3.503.914-.266.146-.495.246-.512.23-.084-.088-.476-.753-.46-.781.013-.017.162-.114.335-.214a8.165 8.165 0 0 1 2.62-.975c.484-.097.657-.11 1.398-.113.54 0 .956.016 1.15.052.423.073 1.362.391 2.1.71 1.692.733 2.39.922 3.768 1.027 1.116.089 2.603-.105 3.703-.476.122-.044.222-.068.222-.056 0 .036-.298.516-.512.822-.245.35-.225.343-.98.492-1.313.262-2.68.238-3.885-.077-.39-.1-1.063-.338-1.285-.451-.065-.032-.12-.053-.13-.044-.003.008.041.185.102.394l.109.383.318.113c.44.158 1 .295 1.548.38.656.1 2.135.1 2.772-.005.25-.04.464-.065.476-.052.024.02-.576.556-.903.806l-.21.161-.979-.024c-1.023-.02-1.765-.117-2.422-.307-.153-.048-.286-.076-.298-.068-.012.016.149.632.173.66.077.086 1.306.279 1.979.315.274.016.5.04.5.057 0 .04-.77.383-1.193.528-.46.157-1.044.302-1.532.382-.48.073-1.757.105-2.233.053Z"/><path fill="#29448A" d="M43.948 68.587c-.065-.008-.274-.037-.464-.06-.77-.102-1.358-.287-2.398-.75-1.29-.58-1.874-.774-2.801-.927-.576-.093-1.838-.093-2.398 0a8.776 8.776 0 0 0-3.104 1.152l-.254.154-.048-.105c-.028-.057-.1-.226-.165-.375l-.113-.274.13-.097c.237-.177.89-.56 1.236-.721a8.806 8.806 0 0 1 2.056-.64c.467-.082 2.092-.07 2.58.02.958.18 1.615.394 2.639.853 1.54.698 2.29.867 3.85.867 1.31 0 2.526-.242 3.8-.762.214-.088.39-.153.39-.149 0 .06-.33.98-.378 1.048-.04.069-.21.141-.637.278-1.185.383-1.737.475-2.914.492-.487.008-.939.004-1.007-.004Z"/><path fill="#29448A" d="M31.84 65.987c-.124-.62-.164-1.765-.084-2.474a8.744 8.744 0 0 1 2.705-5.397c1.313-1.233 2.829-1.978 4.67-2.288.65-.11 1.895-.117 2.54-.017 1.97.31 3.647 1.157 4.986 2.527 1.358 1.39 2.164 3.01 2.45 4.933.113.733.08 2.365-.052 2.724-.02.052-.63-.826-2.386-3.47l-2.358-3.542-.915.915c-.568.564-.931.898-.955.874-.032-.036-.267-.427-1.42-2.37-.205-.346-.382-.632-.398-.632-.02.004-.193.298-1.374 2.305-.23.39-.44.713-.46.718-.024 0-.44-.412-.927-.911-.713-.738-.89-.899-.93-.855-.025.029-.52.726-1.093 1.544-.576.822-1.395 1.99-1.826 2.6-.427.608-1.068 1.527-1.423 2.035-.354.511-.66.942-.677.963-.016.016-.048-.065-.072-.182ZM32.203 73.257l-.37-.354.455-.492c.25-.27.476-.487.504-.484.024.004.197.157.383.335.302.29.334.334.29.399-.048.064-.08.048-.359-.214l-.306-.286-.137.15-.141.148.286.262c.258.238.282.27.222.319-.057.048-.101.024-.343-.194a4.106 4.106 0 0 0-.298-.246.868.868 0 0 0-.153.17l-.133.165.298.274c.278.254.298.278.238.338-.06.065-.093.04-.436-.29ZM48.764 72.278c-.475-.451-.5-.483-.435-.548.077-.077.04-.105.794.6.286.27.294.283.221.351-.072.073-.092.06-.58-.403ZM31.176 72.161c-.064-.072-.049-.088.395-.468l.467-.39-.14-.165c-.158-.186-.166-.202-.085-.267.048-.04.124.033.423.388.326.39.359.439.302.495-.056.053-.08.04-.217-.117l-.154-.177-.379.314c-.205.173-.41.351-.46.391-.08.073-.084.073-.152-.004ZM49.623 71.279c-.383-.101-.697-.198-.697-.21 0-.012.028-.052.056-.093.056-.072.08-.064.613.09.306.088.56.156.572.148.008-.008-.141-.225-.334-.48-.315-.422-.343-.47-.295-.547.028-.049.065-.081.081-.077.032.012.838 1.165.838 1.197-.004.032-.105.165-.125.161-.008 0-.33-.084-.71-.19ZM30.478 71.234c-.165-.104-.334-.395-.334-.58 0-.105.032-.185.116-.278l.113-.13.053.093c.032.065.036.105.008.121a.34.34 0 0 0-.085.133c-.089.234.242.609.431.492.101-.064.105-.23.012-.48-.133-.35-.113-.507.081-.604.238-.125.415-.068.6.19.162.217.166.459.017.596-.085.084-.109.089-.137.04-.053-.08-.049-.15 0-.181.06-.036.048-.274-.025-.375-.092-.133-.193-.177-.314-.129-.129.048-.129.105 0 .492.121.359.1.487-.1.608-.154.09-.279.085-.436-.008ZM29.74 70.102c-.044-.08-.032-.109.113-.254l.165-.161-.124-.242-.121-.242-.214.024c-.193.02-.213.012-.258-.076-.024-.052-.028-.097-.012-.097s.347-.028.733-.06c.654-.052.71-.052.758.008a.284.284 0 0 1 .049.113c0 .02-.234.273-.52.56-.5.5-.52.515-.569.427Zm.625-.766.198-.201-.283.028a2.525 2.525 0 0 0-.285.032c-.02.012.128.343.149.343a1.4 1.4 0 0 0 .221-.202ZM50.622 69.707c-.322-.15-.588-.29-.597-.314-.015-.049.387-.903.424-.903.016 0 .052.016.084.036.049.032.029.1-.112.407a3.94 3.94 0 0 0-.158.379c.073.036.323.145.339.145.012 0 .084-.141.161-.31.08-.174.15-.323.157-.327.008-.008.053-.004.097.012.076.025.073.04-.08.371-.09.19-.154.35-.15.359.008.004.101.048.206.092l.193.085.177-.387c.162-.35.186-.379.259-.338.08.04.076.044-.02.262-.166.374-.34.705-.371.705-.017-.004-.29-.125-.609-.274ZM29.12 68.7c-.045-.077-.31-.944-.29-.964.028-.028 1.2-.415 1.26-.415.03 0 .118.21.199.468.124.39.14.471.092.504a.23.23 0 0 1-.084.036c-.013 0-.085-.173-.154-.383-.068-.21-.137-.383-.149-.383-.088 0-.334.1-.334.137 0 .025.044.19.1.367.077.246.09.326.049.35-.089.057-.12.008-.226-.33-.056-.181-.113-.334-.125-.334-.08-.008-.403.1-.403.132 0 .025.053.206.117.403.113.347.113.368.044.404-.044.024-.084.028-.096.008ZM51.408 67.861c-.35-.096-.649-.185-.657-.193-.028-.028.153-.685.222-.798.129-.222.402-.242.6-.048.06.06.13.092.165.076.033-.012.194-.012.351.004.29.028.294.028.262.133-.024.093-.045.105-.186.089-.43-.048-.427-.048-.508.218a1.31 1.31 0 0 0-.064.298c.008.032.117.088.254.125.234.064.327.157.234.241-.016.016-.323-.048-.673-.145Zm.044-.443c.093-.355.064-.456-.133-.516-.129-.04-.214.057-.294.347l-.077.27.186.06c.105.029.206.052.23.049.02-.004.06-.101.088-.21ZM28.653 67.164a.373.373 0 0 0-.024-.096c-.017-.049.04-.073.261-.11.153-.027.299-.064.319-.076.032-.02-.052-.625-.093-.681a1.997 1.997 0 0 0-.298.053c-.315.064-.367.056-.367-.061 0-.08.024-.088.859-.246.407-.076.483-.08.516-.032.072.113.032.145-.23.19a1.742 1.742 0 0 0-.278.056c-.008.008.016.165.048.347l.06.338.13-.024c.463-.085.467-.081.467.028 0 .097-.016.1-.661.226-.746.14-.71.137-.71.088ZM52.078 65.826c.008-.056.06-.1.153-.133.112-.036.153-.076.193-.201.065-.202.028-.37-.093-.452-.137-.088-.237-.02-.326.214-.145.399-.173.451-.278.52-.101.064-.125.064-.278.012-.339-.117-.407-.589-.125-.87.17-.17.343-.186.343-.033 0 .073-.02.1-.081.1-.23 0-.343.456-.145.585.153.101.241.029.342-.298.113-.359.266-.508.484-.467.181.032.242.084.314.25.158.378-.068.858-.399.858-.096 0-.117-.017-.104-.085ZM29.62 65.5a.985.985 0 0 0-.028-.23l-.024-.096-.545.032a5.892 5.892 0 0 0-.596.048c-.04.016-.056-.016-.056-.101v-.12l.536-.029c.717-.036.685-.02.648-.286-.024-.214-.024-.218.077-.218h.1l.033.537c.016.29.028.54.032.551.004.012-.036.025-.085.033-.08.012-.092-.004-.092-.121ZM28.33 64.125v-.149h.258c.157 0 .274-.02.298-.048.02-.028.052-.173.068-.319l.028-.266-.189-.028a3.607 3.607 0 0 0-.31-.024c-.105 0-.117-.012-.09-.089a.56.56 0 0 1 .037-.104c.009-.009.279.003.597.028.322.024.625.044.669.044.076 0 .085.024.08.234-.007.62-.116.854-.398.854a.43.43 0 0 1-.258-.084c-.08-.065-.121-.077-.158-.04-.024.023-.153.044-.29.044-.137 0-.266.02-.294.048-.036.036-.048.016-.048-.1Zm1.184-.157a.858.858 0 0 0 .069-.335l.012-.241-.181-.028c-.266-.049-.279-.037-.279.306 0 .245.013.31.073.342.117.069.246.049.306-.044ZM51.223 63.767c0-.117.048-.125.919-.178l.451-.028v.1c0 .114.053.102-.995.178l-.375.029v-.101ZM51.13 62.8c-.117-.504-.19-.975-.157-1.008.085-.084.157 0 .185.206.017.12.049.205.077.205.028 0 .29-.048.584-.108.456-.089.545-.097.577-.049.076.125.024.15-.552.258l-.589.109.028.238c.024.221.02.238-.052.238-.048 0-.089-.033-.101-.09ZM29.096 62.723a.963.963 0 0 1-.488-.374c-.161-.266-.032-.726.25-.891.19-.11.528-.101.778.016.359.177.476.548.286.943-.125.266-.5.403-.826.306Zm.512-.242c.113-.04.213-.233.213-.41 0-.162-.113-.327-.29-.416-.141-.072-.471-.084-.592-.02-.117.065-.206.254-.206.44 0 .132.024.18.141.285.08.069.181.133.234.141a3.5 3.5 0 0 0 .169.037c.08.02.174.004.33-.057ZM29.559 61.05l-.641-.225c-.02-.008-.024-.06-.012-.117.024-.093.068-.113.6-.238.319-.072.593-.145.609-.161.02-.016-.178-.1-.44-.19-.261-.088-.48-.172-.487-.197-.004-.02.008-.064.028-.096.032-.053.133-.029.685.16.633.218.649.226.625.323a.56.56 0 0 1-.04.117 9.692 9.692 0 0 1-.613.153c-.326.073-.6.141-.608.15-.009.007.213.092.491.185.278.092.508.181.508.197a.29.29 0 0 1-.048.093c-.049.056-.121.036-.657-.153ZM50.715 61.055c-.02-.081.012-.15.149-.327.318-.403.318-.363.008-.415-.468-.08-.487-.085-.512-.177-.012-.045-.012-.093-.004-.105.012-.008.222.024.468.073l.447.088.262-.088c.222-.081.266-.085.294-.037.06.097.032.125-.238.234-.233.097-.27.133-.52.48-.149.205-.282.374-.298.374-.016 0-.04-.044-.056-.1ZM33.57 56.876c0-.029.015-.117.036-.194l.032-.145-.435-.27c-.238-.15-.464-.27-.5-.27-.097 0-.057-.137.044-.153.048-.008.121.02.161.06.089.093.432.335.468.335.04 0 .21-.56.181-.592-.016-.013-.064.008-.108.048-.045.04-.105.06-.146.044-.056-.02-.056-.04.02-.17.097-.164.073-.257-.04-.152-.052.048-.076.125-.076.258 0 .185-.053.282-.15.282-.116 0-.024-.375.15-.592.076-.097.076-.11.012-.218-.089-.15-.113-.145-.162.016-.032.117-.052.129-.173.117-.077-.004-.153-.024-.17-.04-.015-.017.037-.126.118-.238l.145-.21-.109-.181a1.177 1.177 0 0 0-.234-.282l-.129-.101.097-.036c.125-.049.17-.012.314.242.097.173.122.193.218.169.166-.032.222.02.109.105l-.093.072.077.165c.085.19.088.194.169.097.053-.065.057-.06.036.06-.02.11 0 .166.105.295.133.165.274.21.274.088 0-.169-.129-.6-.19-.649-.104-.076-.003-.157.122-.1.072.036.104.097.14.306.03.141.05.326.05.407v.149l.233-.028c.343-.04.379-.048.516-.12.12-.07.258-.057.258.015 0 .02-.045.085-.1.145-.078.085-.126.105-.195.081a.97.97 0 0 0-.109-.024c-.479-.005-.604.012-.644.084-.032.065-.016.11.092.238.484.6.525.661.468.697a.196.196 0 0 1-.137.012 3.368 3.368 0 0 0-.21-.044c-.136-.02-.185-.093-.06-.093.177-.004.181-.064.016-.278-.185-.233-.214-.221-.266.117-.032.222-.145.524-.19.524-.02 0-.035-.024-.035-.048Zm.136-.726c.037-.27.037-.25-.012-.266-.028-.008-.044.044-.044.125a.47.47 0 0 1-.08.242c-.077.097-.077.105-.013.117.109.028.121.012.15-.218ZM46.733 56.847c-.04-.044-.06-.096-.048-.12.016-.025.008-.081-.016-.125-.057-.105.008-.105.1 0 .04.044.085.08.1.08.046 0 .364-.286.364-.326 0-.02-.06-.037-.137-.037a.25.25 0 0 1-.226-.108c-.089-.113-.052-.226.048-.146a.91.91 0 0 0 .23.093c.161.04.186.04.234-.024.076-.105.064-.137-.044-.137-.13 0-.17-.065-.077-.117.056-.032.065-.049.024-.089-.064-.064-.068-.197-.004-.197.093 0 .476.205.516.278.045.085-.048.206-.1.125-.05-.077-.09-.04-.07.06.013.073-.003.121-.056.157-.068.053-.064.06.077.122a.455.455 0 0 1 .262.443c-.02.153-.13.097-.19-.105-.048-.153-.08-.198-.18-.234-.118-.044-.134-.036-.287.133-.141.153-.383.35-.431.35-.012 0-.053-.035-.089-.076Z"/><path fill="#29448A" d="M48.373 56.11c-.072-.044-.133-.097-.133-.113 0-.02-.068-.056-.149-.084l-.153-.053.12-.024c.07-.012.206-.012.311 0 .125.016.198.008.21-.02.012-.033-.085-.065-.27-.093-.178-.024-.299-.064-.319-.105-.02-.032-.1-.072-.185-.084a1.398 1.398 0 0 1-.246-.073c-.077-.036-.1-.032-.145.024-.073.097-.1.085-.1-.048 0-.064-.025-.125-.061-.141a.103.103 0 0 1-.06-.089c0-.048.024-.06.096-.04.085.02.1.004.153-.185.032-.113.08-.218.105-.226.085-.028.105.117.032.234-.076.137-.084.282-.012.282.053 0 .27-.403.27-.504 0-.093.09-.117.145-.04.049.064.049.088-.004.17-.072.104-.064.108.08.043.057-.024.098-.068.086-.096-.029-.073.08-.157.12-.093.02.036.045.028.081-.02.028-.04.069-.06.093-.044.064.036.052.245-.016.302-.033.024-.057.06-.053.072.017.06-.06.234-.14.319-.105.116-.073.149.112.116.125-.024.14-.04.117-.112-.024-.077-.012-.085.129-.061.109.02.173.008.222-.036.068-.06.064-.069-.037-.157-.084-.073-.096-.105-.06-.146.036-.036.085-.02.221.073.097.064.174.141.174.173 0 .033-.154.134-.343.226-.21.105-.306.173-.254.173.097.004.254.178.254.283 0 .06-.197.29-.246.282-.008 0-.076-.04-.145-.085Zm-.455-.838c0-.145.096-.166.165-.033l.048.09.073-.093c.113-.142.065-.202-.137-.162a3.465 3.465 0 0 0-.194.037c-.04 0-.12.205-.096.245.056.085.14.032.14-.084ZM46.652 55.36c-.02-.032.056-.116.29-.306.089-.076.089-.076.089.008 0 .178-.306.416-.379.299Z"/><path fill="#29448A" d="M48.631 55.243c-.016-.012-.028-.048-.028-.08 0-.044.016-.044.08-.004.045.028.081.064.081.08 0 .04-.096.04-.133.004ZM43.875 54.478c-.016-.012-.028-.085-.028-.153 0-.125-.242-.504-.319-.504-.02 0-.044-.028-.06-.06-.016-.045.008-.06.085-.06.137 0 .379.253.443.458.065.21-.016.424-.12.319ZM37.382 54.276c-.012-.016.049-.096.142-.18.165-.15.177-.234.036-.234-.117 0-.121-.093-.009-.186.117-.097.101-.205-.06-.355-.056-.052-.089-.116-.077-.14.045-.07.206-.053.307.027.088.073.105.13.117.424.004.096.024.149.06.149.028 0 .073.024.097.052.032.037 0 .105-.117.262-.145.19-.177.21-.315.21-.084 0-.165-.012-.18-.029ZM39.385 53.926c-.189-.158-.277-.19-.394-.146-.15.057-.206.053-.282-.023-.097-.097-.02-.15.229-.15.33 0 .544.073.617.218.105.201.016.258-.17.1ZM38.49 53.894a5.41 5.41 0 0 1-.084-.557 4.427 4.427 0 0 0-.085-.556c-.048-.129.064-.17.173-.056.073.068.085.145.097.556.012.266.024.524.029.576.012.13-.085.157-.13.037ZM42.638 53.946c0-.024.085-.08.194-.125.105-.048.23-.113.282-.145l.093-.06-.105-.102c-.069-.06-.101-.128-.093-.189.008-.072.032-.085.145-.077a.851.851 0 0 0 .25-.011c.1-.025.121-.045.121-.146 0-.137.089-.193.181-.117.08.065.056.492-.024.52a.924.924 0 0 0-.222.17c-.092.08-.221.177-.282.21-.149.072-.54.124-.54.072ZM38.688 53.111c-.044-.048-.044-.072.004-.116.04-.04.109-.048.254-.028.23.032.27.088.117.16-.149.068-.314.06-.375-.016Z"/><path fill="#FEFEFE" d="M39.414 77.883c0-.023.27-.032.697-.02.379.012.895.009 1.14-.012.355-.028.448-.024.432.017-.025.064-2.27.076-2.27.015ZM38.446 77.799c0-.024-.108-.04-.241-.04s-.242-.016-.242-.04c0-.02-.089-.041-.202-.041-.108 0-.201-.016-.201-.04 0-.02-.053-.04-.121-.04-.065 0-.121-.017-.121-.041 0-.048-.06-.056.504.056.266.053.66.121.878.145.214.029.391.057.391.065a1.7 1.7 0 0 1-.322.016c-.19 0-.323-.016-.323-.04ZM42.239 77.759c.971-.15 1.676-.314 2.535-.6 2.535-.847 4.816-2.511 6.485-4.736 1.16-1.543 1.942-3.308 2.382-5.364.1-.463.113-.5.117-.31.004.113-.012.21-.037.21-.02 0-.04.092-.04.201 0 .113-.016.202-.04.202-.02 0-.04.092-.04.201 0 .113-.016.202-.04.202-.02 0-.041.056-.041.12 0 .07-.016.122-.04.122-.02 0-.04.072-.04.16 0 .09-.017.162-.04.162-.021 0-.041.056-.041.12 0 .07-.017.122-.04.122-.02 0-.04.056-.04.12 0 .07-.017.122-.041.122-.02 0-.04.056-.04.12 0 .069-.017.121-.04.121-.02 0-.04.057-.04.121 0 .069-.017.121-.041.121-.02 0-.04.036-.04.08 0 .045-.017.081-.04.081-.021 0-.041.056-.041.121 0 .069-.016.121-.04.121-.02 0-.04.036-.04.08 0 .045-.017.081-.041.081-.02 0-.04.057-.04.121 0 .069-.017.121-.04.121-.021 0-.041.036-.041.08 0 .045-.016.081-.04.081-.02 0-.04.036-.04.08 0 .045-.017.081-.041.081-.02 0-.04.037-.04.081 0 .045-.016.08-.04.08-.02 0-.041.037-.041.082 0 .043-.016.08-.04.08-.02 0-.04.036-.04.08 0 .045-.017.081-.04.081-.021 0-.041.032-.041.073 0 .04-.036.097-.08.129-.045.032-.081.088-.081.128 0 .041-.017.073-.04.073-.02 0-.04.036-.04.08 0 .045-.017.081-.041.081-.02 0-.04.032-.04.073 0 .04-.037.096-.081.129-.044.032-.08.084-.08.12 0 .037-.037.09-.081.121-.045.033-.08.085-.08.121 0 .037-.037.09-.081.121-.045.033-.081.085-.081.113 0 .028-.073.125-.162.21-.088.084-.16.181-.16.21 0 .028-.037.08-.081.112-.044.032-.08.08-.08.113 0 .028-.09.141-.202.25-.11.109-.202.217-.202.238 0 .056-.996 1.052-1.052 1.052-.02 0-.129.092-.238.2-.108.114-.217.202-.242.202-.024 0-.133.093-.241.202-.109.113-.222.201-.25.201-.032 0-.08.037-.113.081-.032.044-.084.08-.113.08-.032 0-.109.057-.17.122-.06.068-.14.12-.177.12-.036 0-.064.02-.064.04 0 .025-.032.041-.073.041-.04 0-.096.036-.128.08-.033.045-.085.081-.121.081-.037 0-.089.037-.121.08-.033.045-.089.081-.13.081-.04 0-.072.02-.072.04 0 .025-.036.041-.08.041-.045 0-.081.02-.081.04 0 .024-.036.04-.08.04-.045 0-.081.02-.081.04 0 .025-.032.041-.073.041-.04 0-.096.036-.129.08-.032.045-.088.081-.129.081-.04 0-.072.02-.072.04 0 .025-.037.04-.081.04-.044 0-.08.021-.08.041 0 .024-.037.04-.081.04-.044 0-.08.02-.08.04 0 .025-.053.041-.122.041-.064 0-.12.02-.12.04 0 .025-.037.04-.081.04-.044 0-.08.021-.08.041 0 .024-.037.04-.081.04-.045 0-.08.02-.08.04 0 .025-.053.04-.122.04-.065 0-.12.02-.12.041 0 .024-.053.04-.122.04-.064 0-.12.02-.12.04 0 .025-.037.041-.081.041-.045 0-.08.02-.08.04 0 .025-.053.04-.122.04-.064 0-.12.021-.12.041 0 .024-.053.04-.122.04-.064 0-.12.02-.12.04 0 .025-.053.04-.121.04-.065 0-.121.02-.121.041 0 .024-.073.04-.162.04-.088 0-.16.02-.16.04 0 .025-.09.041-.202.041-.11 0-.202.02-.202.04 0 .025-.052.04-.12.04-.065 0-.122.021-.122.041 0 .024-.108.04-.241.04-.134 0-.242.016-.242.04 0 .025-.089.04-.202.04-.109 0-.201.021-.201.041 0 .024-.141.04-.35.036l-.355-.004.467-.072Z"/><path fill="#FEFEFE" d="M39.293 77.53c-2.076-.21-3.91-.811-5.623-1.838a13.15 13.15 0 0 1-6.186-9.056c-.137-.822-.174-1.29-.17-2.257 0-1.067.08-1.809.294-2.796.142-.657.512-1.79.782-2.402 2.403-5.453 8.086-8.608 13.966-7.754 2.196.319 4.224 1.173 6.066 2.551.645.484 1.789 1.6 2.28 2.22 2.721 3.442 3.572 7.799 2.35 11.99-.644 2.2-2.035 4.413-3.744 5.956a13.235 13.235 0 0 1-7.593 3.373c-.379.036-2.088.049-2.422.012Zm.669-1.166c.12-.149.177-.362.177-.68 0-.255-.008-.279-.137-.408-.117-.117-.165-.137-.326-.137-.162 0-.206.02-.307.125-.096.105-.117.162-.117.327s.02.218.117.318a.436.436 0 0 0 .492.077c.097-.053.1-.008.008.181-.1.21-.355.25-.435.068-.04-.088-.166-.157-.21-.112-.012.012-.008.068.004.124.077.299.528.371.733.117Zm1.463.121c.21-.024.245-.04.245-.109 0-.072-.024-.076-.362-.06a2.288 2.288 0 0 1-.363 0c0-.064.11-.181.282-.29.375-.242.472-.435.343-.685-.077-.15-.173-.202-.379-.202-.222 0-.35.069-.427.222-.093.201-.08.302.04.302.08 0 .1-.02.1-.1 0-.13.134-.262.263-.262.12 0 .262.128.262.245 0 .093-.141.238-.403.415-.166.113-.282.303-.282.468 0 .072.024.08.218.08.116 0 .326-.012.463-.023Zm1.52-.221c.25-.153.27-.512.04-.665-.097-.06-.097-.073-.045-.15.105-.148-.012-.398-.221-.479-.125-.049-.412.028-.504.13a.54.54 0 0 0-.089.24c-.024.162-.02.17.073.154.068-.008.1-.04.108-.113.025-.153.126-.242.278-.242.11 0 .142.02.178.109.052.145.024.206-.145.274-.185.08-.153.181.064.181.153 0 .279.105.279.234 0 .093-.194.25-.307.25-.12 0-.258-.1-.258-.19 0-.036-.032-.052-.089-.044-.117.016-.108.17.017.302.117.125.427.13.62.009Zm-4.563-.572c.064-.335.125-.633.133-.661.032-.09-.13-.077-.202.016a.248.248 0 0 1-.21.092c-.08 0-.14.024-.153.06-.028.07-.012.081.166.122.069.011.129.032.129.04l-.08.403c-.106.504-.106.544.011.544.085 0 .097-.04.206-.616Zm-2.745-.9c.173-.322.306-.612.294-.644-.052-.137-.153-.032-.379.391-.133.245-.25.431-.262.415-.012-.02-.032-.294-.048-.613-.028-.552-.036-.58-.129-.64-.056-.037-.109-.049-.129-.029-.02.02-.173.299-.346.617-.307.572-.323.645-.158.649.02 0 .15-.202.279-.452.233-.435.241-.443.266-.318.016.073.04.35.056.613.024.427.04.487.113.54.048.032.096.06.108.06.013 0 .162-.266.335-.588Zm10.54.343c.201-.1.33-.278.33-.471 0-.113-.379-.919-.484-1.028-.016-.02-.068-.016-.117.008-.08.045-.076.057.158.504.133.25.241.5.241.556 0 .133-.205.314-.358.314-.157 0-.25-.104-.492-.56-.116-.226-.234-.407-.258-.407-.02 0-.068.02-.1.04-.049.033-.037.081.096.331.262.492.383.665.52.733.173.085.25.081.463-.02Zm-12.08-.886c.053-.077.077-.157.065-.222-.012-.072 0-.097.057-.097.04 0 .132-.052.205-.117.153-.137.177-.35.053-.491-.09-.097-.666-.532-.682-.512-.326.44-.758 1.056-.774 1.1-.012.028.012.073.053.097.068.032.1.004.25-.198l.173-.237.149.104c.238.178.326.266.326.327 0 .036-.056.153-.129.262l-.129.197.097.073c.097.072.101.072.15-.045.028-.068.088-.177.137-.241Zm13.619-.097c.057-.068.06-.057-.222-.403a8.55 8.55 0 0 1-.277-.35l-.113-.15.612.206c.6.201.613.201.69.125.076-.073.068-.085-.331-.576-.512-.633-.468-.593-.544-.517-.06.061-.04.097.262.468.177.226.326.411.326.42 0 .007-.27-.077-.604-.186-.6-.205-.605-.205-.682-.125-.076.08-.076.085.351.612.238.294.444.536.456.536.016 0 .048-.028.076-.06Zm-6.07-.367a9.385 9.385 0 0 0 6.171-3.461 9.336 9.336 0 0 0 2.06-5.534 9.421 9.421 0 0 0-5.284-8.833 9.437 9.437 0 0 0-13.426 10.2c.347 1.857 1.181 3.465 2.523 4.848.532.548.923.874 1.552 1.293 1.874 1.25 4.127 1.773 6.404 1.487Zm-9.245-.576-.299-.274.133-.165a.864.864 0 0 1 .154-.17c.008 0 .145.113.298.246.242.218.286.242.343.194.06-.049.036-.08-.222-.319l-.286-.262.14-.149.138-.149.306.286c.278.262.31.278.359.214.044-.065.012-.109-.29-.399-.186-.178-.36-.33-.383-.335-.029-.004-.254.214-.504.484l-.456.492.371.354c.343.33.375.355.436.29.06-.06.04-.084-.238-.338Zm16.722-.879c-.754-.705-.717-.677-.794-.6-.065.064-.04.097.435.548.488.463.508.475.58.403.073-.068.065-.08-.221-.35Zm-17.335-.556.379-.314.153.177c.137.157.161.17.218.117.056-.056.024-.104-.303-.495-.298-.355-.374-.428-.423-.387-.08.064-.072.08.085.266l.141.165-.467.39c-.444.38-.46.396-.396.468.069.077.073.077.154.004.048-.04.254-.218.459-.39Zm18.612-.37a.384.384 0 0 0 .057-.097c0-.032-.806-1.185-.838-1.197-.017-.004-.053.028-.08.077-.05.076-.021.124.293.548.194.254.343.47.335.48-.013.007-.266-.062-.573-.15-.532-.153-.556-.161-.612-.089a.386.386 0 0 0-.056.093c0 .016 1.225.363 1.406.4.008.003.04-.03.068-.065Zm-19.487-.162c.202-.12.222-.25.101-.608-.129-.387-.129-.444 0-.492.121-.048.222-.004.315.13.072.1.084.338.024.374-.049.032-.052.1 0 .181.028.049.052.045.137-.04.15-.137.145-.379-.016-.597-.186-.257-.363-.314-.6-.189-.194.097-.214.254-.081.605.092.25.088.415-.012.48-.19.116-.52-.259-.432-.493a.34.34 0 0 1 .085-.132c.028-.017.024-.057-.008-.121l-.053-.093-.112.129c-.15.17-.154.363-.012.6.177.303.43.403.664.266Zm-.084-2.127a.284.284 0 0 0-.048-.113c-.049-.06-.105-.06-.758-.008-.387.032-.718.06-.734.06-.016 0-.012.045.012.097.045.088.065.097.259.076l.213-.024.12.242.126.242-.166.161c-.145.145-.157.173-.112.254.048.088.068.072.568-.427.286-.287.52-.54.52-.56Zm20.555.624c.064-.133.165-.338.217-.463.097-.218.101-.222.02-.262-.072-.04-.096-.012-.258.339l-.176.386-.194-.085c-.105-.044-.197-.088-.206-.092-.004-.008.06-.17.15-.359.153-.33.157-.346.08-.37-.044-.017-.089-.02-.097-.013-.008.005-.076.153-.157.327-.076.169-.149.31-.161.31-.016 0-.266-.109-.339-.145a3.928 3.928 0 0 1 .158-.379c.14-.306.16-.375.112-.407a.228.228 0 0 0-.084-.036c-.037 0-.44.854-.423.903.012.036 1.136.584 1.205.588.016 0 .084-.109.153-.242Zm-22.212-1.45a3.863 3.863 0 0 1-.117-.404c0-.032.323-.14.404-.133.012 0 .068.153.124.335.105.338.138.387.226.33.04-.024.028-.104-.048-.35a3.12 3.12 0 0 1-.1-.367c0-.036.245-.137.334-.137.011 0 .08.173.149.383.068.21.14.383.153.383a.23.23 0 0 0 .085-.036c.048-.033.032-.114-.093-.505-.081-.257-.17-.467-.198-.467-.06 0-1.233.387-1.261.415-.02.02.246.887.29.963.012.02.052.017.097-.008.068-.036.068-.056-.045-.403Zm22.93-.387c-.008-.049-.09-.093-.255-.137-.137-.037-.246-.093-.254-.125a1.31 1.31 0 0 1 .065-.299c.08-.265.077-.265.508-.217.14.016.161.004.185-.089.032-.105.028-.105-.262-.133a1.426 1.426 0 0 0-.35-.004c-.037.016-.105-.016-.165-.076-.198-.194-.472-.174-.601.048-.069.113-.25.77-.222.798.045.048 1.302.363 1.33.338.02-.016.028-.064.02-.104Zm-22.74-.826c.644-.125.66-.13.66-.226 0-.11-.003-.113-.467-.028l-.129.024-.06-.339a2.234 2.234 0 0 1-.049-.347c.005-.007.13-.032.278-.056.263-.044.303-.076.23-.189-.032-.049-.109-.044-.515.032-.835.157-.859.165-.859.246 0 .117.052.125.367.06.157-.036.294-.056.298-.052.04.056.125.66.093.68-.02.013-.166.05-.319.078-.221.036-.278.06-.262.108a.373.373 0 0 1 .025.097c0 .049-.037.053.709-.088Zm23.05-1.254c.205-.16.278-.5.169-.77-.073-.165-.133-.217-.314-.25-.218-.04-.371.11-.484.468-.101.327-.19.4-.343.298-.197-.129-.084-.584.146-.584.06 0 .08-.028.08-.1 0-.154-.173-.138-.342.031-.283.282-.214.754.124.87.153.053.178.053.279-.011.104-.069.132-.121.278-.52.088-.234.189-.302.326-.214.121.081.157.25.093.452-.04.125-.081.165-.194.2-.19.062-.225.219-.048.219a.44.44 0 0 0 .23-.089Zm-22.615-.234c-.004-.011-.016-.262-.032-.551l-.032-.537h-.101c-.1 0-.1.004-.077.218.037.266.069.25-.649.286l-.535.028v.12c0 .085.015.118.056.102.028-.012.298-.032.596-.048l.544-.033.025.097a.985.985 0 0 1 .028.23c0 .117.012.133.092.12.049-.008.09-.02.085-.032Zm-1.124-1.41c.137 0 .266-.02.29-.044.036-.037.076-.025.157.04a.43.43 0 0 0 .258.084c.282 0 .391-.233.399-.854.004-.21-.004-.234-.08-.234-.045 0-.347-.02-.67-.044a5.565 5.565 0 0 0-.596-.028.553.553 0 0 0-.037.105c-.028.076-.016.088.09.088.063 0 .204.012.31.024l.189.029-.028.265c-.016.146-.049.29-.069.319-.024.028-.14.049-.298.049h-.258v.149c0 .117.012.137.048.1.028-.028.158-.048.295-.048Zm23.61-.39c.298-.025.31-.03.31-.126v-.1l-.452.027c-.87.053-.919.061-.919.178v.1l.376-.027c.201-.017.511-.037.684-.053Zm-1-1.137-.028-.238.588-.109c.577-.109.629-.133.553-.258-.032-.048-.121-.04-.577.049-.294.06-.556.108-.584.108-.028 0-.06-.085-.077-.205-.028-.206-.1-.29-.185-.206-.024.024-.012.181.048.476.125.636.12.62.21.62.072 0 .076-.016.052-.237Zm-21.562-.005c.153-.092.265-.306.294-.551.028-.243-.13-.496-.38-.621-.25-.117-.588-.125-.777-.016-.173.1-.326.383-.326.6 0 .524.721.879 1.189.588Zm.544-1.535c0-.016-.23-.105-.508-.197-.279-.093-.5-.178-.492-.186.008-.008.282-.076.609-.149.33-.076.604-.145.612-.153a.562.562 0 0 0 .04-.117c.025-.097.009-.105-.624-.322-.552-.19-.653-.214-.685-.161-.02.032-.033.076-.028.096.007.025.225.11.487.198.262.089.46.173.44.189-.017.016-.29.089-.61.161-.531.125-.575.145-.6.238-.012.056-.008.109.013.117l.64.226c.536.189.609.209.657.153a.29.29 0 0 0 .049-.093Zm20.805-.33c.25-.347.286-.383.52-.48.27-.109.298-.137.237-.234-.028-.048-.072-.044-.294.037l-.262.088-.447-.088c-.246-.049-.456-.081-.468-.073-.008.012-.008.06.004.105.025.093.044.096.512.177.31.053.31.012-.008.415-.137.178-.17.246-.149.327.016.056.04.1.056.1s.15-.169.299-.374Zm-17.368-4.026c.037-.097.077-.254.093-.355.053-.338.081-.35.266-.117.166.214.161.274-.016.278-.125 0-.076.073.06.093.069.012.166.032.21.044a.196.196 0 0 0 .137-.012c.057-.036.016-.096-.468-.697-.108-.129-.124-.173-.092-.238.04-.072.165-.088.645-.084a.97.97 0 0 1 .108.024c.069.024.117.004.194-.08.056-.061.1-.126.1-.146 0-.072-.136-.085-.257-.016-.137.073-.173.08-.516.12l-.234.029v-.149c0-.08-.02-.266-.048-.407-.036-.21-.069-.27-.141-.306-.125-.057-.226.024-.121.1.06.049.19.48.19.65 0 .12-.142.076-.275-.09-.105-.128-.125-.185-.105-.294.02-.12.017-.124-.036-.06-.08.097-.084.093-.169-.097l-.077-.165.093-.072c.113-.085.057-.137-.109-.105-.096.024-.12.004-.218-.17-.144-.253-.189-.29-.314-.241l-.097.036.13.1c.072.057.177.186.233.283l.109.181-.145.21c-.08.112-.133.221-.117.237.016.017.093.037.17.041.12.012.14 0 .173-.117.048-.161.072-.165.16-.016.065.109.065.12-.011.218-.174.217-.266.592-.15.592.097 0 .15-.097.15-.282 0-.133.024-.21.076-.258.113-.105.137-.012.04.153-.076.129-.076.149-.02.17.04.015.101-.005.146-.045.044-.04.092-.06.108-.048.029.032-.14.592-.181.592-.036 0-.379-.242-.467-.334-.04-.041-.114-.07-.161-.061-.101.016-.142.153-.045.153.036 0 .262.12.5.27l.435.27-.032.145c-.069.294-.004.343.096.073Zm13.26.08a2.06 2.06 0 0 0 .29-.262c.154-.169.17-.177.287-.133.1.037.133.08.181.234.06.202.17.258.19.105a.455.455 0 0 0-.262-.443c-.142-.061-.145-.069-.077-.121.052-.036.069-.085.057-.158-.02-.1.02-.136.068-.06.053.08.145-.04.101-.125-.04-.072-.423-.278-.516-.278-.064 0-.06.133.004.197.04.04.032.057-.024.09-.093.052-.052.116.076.116.109 0 .121.032.045.137-.049.065-.073.065-.234.024a.91.91 0 0 1-.23-.093c-.1-.08-.137.033-.048.146a.25.25 0 0 0 .226.108c.076 0 .137.017.137.037 0 .04-.319.326-.363.326-.016 0-.06-.036-.1-.08-.094-.105-.158-.105-.102 0 .024.044.033.1.016.125-.02.036.09.197.138.197.008 0 .072-.04.14-.088Zm1.69-.745c.06-.06.112-.137.112-.177 0-.105-.157-.279-.254-.283-.052 0 .044-.068.254-.173.19-.092.343-.193.343-.226 0-.032-.077-.108-.174-.173-.136-.093-.185-.109-.221-.072-.037.04-.024.072.06.145.1.088.105.097.037.157-.049.044-.113.056-.222.036-.142-.024-.153-.016-.13.06.025.073.009.09-.116.113-.185.033-.218 0-.113-.117.08-.084.157-.258.141-.318-.004-.012.02-.048.053-.072.068-.057.08-.266.016-.302-.025-.017-.065.003-.093.044-.036.048-.06.056-.08.02-.041-.064-.15.02-.122.093.013.028-.028.072-.084.096-.145.065-.153.06-.08-.044.052-.08.052-.105.003-.17-.056-.076-.145-.052-.145.041 0 .1-.217.504-.27.504-.073 0-.064-.145.012-.282.073-.117.053-.262-.032-.234-.024.008-.073.113-.105.226-.052.19-.068.205-.153.185-.072-.02-.097-.008-.097.04 0 .036.029.077.06.089.037.016.061.077.061.141 0 .133.028.145.1.048.045-.056.07-.06.146-.024.052.024.165.056.246.073.085.012.165.052.185.084.02.04.141.08.319.105.185.028.282.06.27.093-.012.028-.085.036-.21.02a1.323 1.323 0 0 0-.31 0l-.12.024.152.053c.08.028.15.064.15.084 0 .028.225.19.277.197.012.005.073-.044.133-.104Zm-1.726-.822c.057-.069.105-.162.105-.206 0-.084 0-.084-.089-.008-.233.19-.31.274-.29.306.044.069.173.029.274-.092Zm1.838-.029c0-.016-.036-.052-.08-.08-.065-.04-.081-.04-.081.004 0 .032.012.068.028.08.037.037.133.037.133-.004Zm-4.756-.83c.085-.225-.225-.709-.455-.709-.077 0-.1.016-.085.06.016.033.04.06.06.06.077 0 .319.38.319.505 0 .201.097.254.161.084Zm-6.13-.314c.117-.157.15-.226.117-.262-.024-.028-.069-.052-.097-.052-.036 0-.056-.053-.06-.15-.012-.294-.029-.35-.117-.423-.101-.08-.262-.096-.306-.028-.012.025.02.089.076.141.161.15.177.258.06.355-.112.092-.108.185.009.185.14 0 .129.085-.037.234-.092.085-.153.165-.14.181.015.016.096.029.18.029.138 0 .17-.02.315-.21Zm1.717-.113c.012-.02-.004-.093-.04-.157-.073-.145-.287-.218-.617-.218-.25 0-.327.053-.23.15.077.076.133.08.282.024.117-.045.206-.013.395.145.125.105.174.116.21.056Zm-.975-.125a39.01 39.01 0 0 1-.029-.576c-.012-.411-.024-.487-.096-.556-.11-.113-.222-.073-.174.056.02.053.057.302.085.556.028.254.069.504.084.557.045.12.142.092.13-.037Zm4.558.016c.06-.032.19-.128.282-.21a.924.924 0 0 1 .222-.169c.08-.028.104-.455.024-.52-.093-.076-.181-.02-.181.117 0 .101-.02.121-.121.146a.851.851 0 0 1-.25.011c-.113-.008-.137.005-.145.077-.008.06.024.13.093.19l.104.1-.092.06a3.412 3.412 0 0 1-.282.146c-.11.044-.194.1-.194.125 0 .052.391 0 .54-.073Zm-4.115-.745c.153-.073.113-.13-.117-.161-.145-.02-.213-.013-.254.028-.048.044-.048.068-.004.117.06.076.226.084.375.016Z"/><path fill="#FEFEFE" d="M39.49 75.78c-.152-.153-.015-.48.206-.48.145 0 .242.118.242.29 0 .255-.27.367-.447.19ZM33.864 73.628a1.521 1.521 0 0 1-.23-.177c-.02-.033.197-.367.238-.367.012 0 .121.077.242.165.242.181.29.327.149.452-.105.097-.165.084-.399-.073ZM39.656 73.624c-.835-.097-1.516-.242-2.137-.448a9.247 9.247 0 0 1-6.166-7.185c-.125-.705-.153-1.959-.065-2.66.145-1.1.407-1.97.887-2.961a9.12 9.12 0 0 1 4.115-4.168c1.511-.753 2.958-1.051 4.716-.967 2.394.117 4.796 1.286 6.36 3.091 1.233 1.427 1.978 3.067 2.228 4.9.089.654.089 1.79 0 2.423-.524 3.703-3.103 6.661-6.694 7.673-.762.213-1.334.29-2.277.306-.456.008-.89.004-.967-.004Zm2.111-.516c.488-.08 1.072-.226 1.532-.383.423-.145 1.193-.487 1.193-.528 0-.016-.226-.04-.5-.056-.673-.036-1.902-.23-1.979-.314-.024-.029-.185-.645-.173-.662.012-.008.145.02.298.07.657.189 1.399.285 2.423.305l.979.025.21-.162c.326-.25.926-.785.902-.806-.012-.012-.226.013-.476.053-.636.104-2.115.104-2.772.004a8.763 8.763 0 0 1-1.548-.38l-.318-.112-.11-.383a3.793 3.793 0 0 1-.1-.394c.008-.009.065.011.129.043.222.114.895.351 1.286.452 1.205.314 2.571.339 3.885.077.754-.15.734-.141.98-.492.213-.306.511-.786.511-.822 0-.012-.1.012-.221.056-1.1.37-2.588.564-3.704.476-1.379-.105-2.076-.294-3.769-1.028-.737-.318-1.676-.636-2.1-.709-.193-.036-.608-.052-1.148-.052-.742.004-.915.016-1.399.112a8.167 8.167 0 0 0-2.62.976c-.173.1-.322.197-.334.213-.016.029.375.693.46.782.016.016.245-.084.511-.23 1.169-.64 2.217-.91 3.503-.914.79 0 1.656.137 2.317.366.512.177.834.303.87.339.041.04.263.757.242.778a5.472 5.472 0 0 1-.471-.186c-.859-.363-1.56-.58-2.112-.653-.504-.064-1.58-.024-2.092.08-.721.15-1.632.5-2.168.835l-.194.121.287.318c.41.464.37.448.765.254a6.652 6.652 0 0 1 1.568-.544c.44-.093.597-.109 1.25-.109 1.152 0 1.966.19 3.143.726l.315.145.105.367c.056.201.096.37.088.378-.004.008-.29-.112-.633-.261-.689-.307-1.04-.436-1.608-.597-.326-.093-.483-.113-1.052-.129-.97-.024-1.68.093-2.519.415-.548.214-.548.214-.29.407 1.342 1.012 2.834 1.612 4.426 1.785.475.053 1.753.02 2.232-.052Zm4.555-4.614c.62-.11.85-.17 1.547-.395.428-.137.597-.21.637-.278.048-.069.379-.987.379-1.048 0-.004-.177.06-.391.149-1.273.52-2.49.762-3.8.762-1.56 0-2.31-.17-3.85-.867-1.023-.459-1.68-.673-2.64-.854-.487-.089-2.111-.101-2.579-.02a8.807 8.807 0 0 0-2.055.64c-.347.162-1 .545-1.238.722l-.129.097.113.274c.065.149.137.318.165.375l.049.104.253-.153a8.775 8.775 0 0 1 3.104-1.152c.56-.093 1.822-.093 2.398 0 .927.153 1.512.346 2.801.927 1.04.463 1.629.648 2.398.75.19.023.4.052.464.06.068.007.52.012 1.007.004.681-.009.996-.033 1.367-.097ZM32.59 65.206c.355-.508.996-1.427 1.423-2.036.431-.608 1.25-1.777 1.826-2.599.572-.818 1.068-1.515 1.092-1.544.04-.044.218.117.931.855.487.5.903.91.927.91.02-.004.23-.326.46-.717 1.18-2.007 1.354-2.3 1.374-2.305.016 0 .193.286.399.633 1.152 1.942 1.386 2.333 1.419 2.37.024.023.386-.31.955-.875l.915-.915 2.358 3.543c1.757 2.643 2.365 3.522 2.386 3.47.064-.182.124-.932.124-1.576a8.394 8.394 0 0 0-.887-3.785 8.766 8.766 0 0 0-5.856-4.674c-.685-.166-1.16-.214-1.995-.218-.87 0-1.418.068-2.196.27-3.18.826-5.691 3.458-6.348 6.65a7.896 7.896 0 0 0-.181 1.797c0 .79.116 1.797.197 1.709.016-.02.323-.452.677-.963ZM30.055 69.368c-.04-.092-.069-.169-.06-.172.003-.005.132-.021.285-.033l.283-.028-.198.201c-.109.113-.21.202-.221.202-.012 0-.053-.077-.09-.17ZM51.134 67.579l-.185-.06.076-.27c.08-.29.165-.387.294-.347.138.04.186.101.186.214 0 .153-.097.5-.141.512a1.148 1.148 0 0 1-.23-.049ZM29.208 64.013c-.06-.033-.072-.097-.072-.343 0-.342.012-.355.278-.306l.181.028-.012.242c-.016.367-.157.508-.375.379ZM29.277 62.538a3.493 3.493 0 0 1-.169-.037.654.654 0 0 1-.233-.141c-.117-.105-.142-.153-.142-.286 0-.185.089-.375.206-.44.12-.064.451-.052.592.02.27.142.363.416.23.674-.076.149-.306.246-.484.21ZM33.558 56.368c-.065-.012-.065-.02.012-.117a.47.47 0 0 0 .08-.242c0-.08.016-.133.045-.125.048.016.048-.004.012.266-.029.23-.04.246-.15.218ZM47.776 55.356c-.024-.04.057-.245.097-.245.012-.005.101-.02.194-.037.201-.04.25.02.137.162l-.073.092-.048-.089c-.069-.133-.166-.112-.166.033 0 .117-.084.169-.14.084ZM36.914 77.477c0-.02-.072-.04-.16-.04-.09 0-.162-.017-.162-.04 0-.021-.052-.041-.12-.041-.065 0-.122-.016-.122-.04 0-.02-.052-.04-.12-.04-.065 0-.121-.017-.121-.041 0-.02-.053-.04-.122-.04-.064 0-.12-.016-.12-.04 0-.02-.053-.041-.121-.041-.065 0-.121-.016-.121-.04 0-.02-.036-.04-.08-.04-.045 0-.081-.017-.081-.04 0-.021-.053-.041-.121-.041-.065 0-.121-.016-.121-.04 0-.02-.037-.04-.08-.04-.045 0-.081-.017-.081-.041 0-.02-.053-.04-.121-.04-.065 0-.121-.017-.121-.04 0-.021-.036-.041-.081-.041-.044 0-.08-.016-.08-.04 0-.02-.037-.04-.081-.04-.044 0-.08-.017-.08-.04 0-.02-.037-.041-.081-.041-.044 0-.08-.016-.08-.04 0-.02-.037-.04-.082-.04-.044 0-.08-.017-.08-.041 0-.02-.036-.04-.08-.04-.045 0-.081-.017-.081-.04 0-.021-.037-.041-.08-.041-.045 0-.081-.016-.081-.04 0-.02-.033-.04-.073-.04-.04 0-.097-.037-.129-.081-.032-.044-.089-.08-.129-.08-.04 0-.073-.017-.073-.041 0-.02-.032-.04-.072-.04-.04 0-.097-.037-.13-.081-.031-.044-.084-.08-.12-.08-.036 0-.089-.037-.12-.081-.033-.044-.086-.08-.122-.08-.036 0-.089-.037-.12-.081-.033-.045-.086-.08-.114-.08-.032 0-.108-.053-.169-.122-.06-.064-.137-.12-.169-.12-.028 0-.08-.037-.113-.081-.032-.045-.08-.08-.113-.08-.028 0-.14-.09-.25-.202-.109-.11-.218-.202-.238-.202-.056 0-1.454-1.398-1.454-1.455 0-.02-.09-.129-.202-.237-.109-.11-.202-.222-.202-.25 0-.033-.036-.08-.08-.113-.044-.032-.08-.085-.08-.113 0-.032-.053-.109-.122-.17-.064-.06-.12-.136-.12-.168 0-.029-.037-.081-.081-.114-.045-.032-.08-.084-.08-.12 0-.037-.037-.089-.081-.121-.045-.032-.08-.089-.08-.13 0-.04-.017-.072-.041-.072-.02 0-.04-.032-.04-.072 0-.04-.037-.097-.081-.13-.045-.031-.081-.088-.081-.128 0-.04-.016-.073-.04-.073-.02 0-.04-.036-.04-.08 0-.045-.016-.081-.04-.081-.021 0-.041-.032-.041-.073 0-.04-.036-.096-.08-.129-.045-.031-.081-.088-.081-.128 0-.04-.016-.073-.04-.073-.02 0-.04-.036-.04-.08 0-.045-.017-.081-.041-.081-.02 0-.04-.036-.04-.08 0-.045-.017-.081-.04-.081-.02 0-.041-.053-.041-.121 0-.065-.016-.121-.04-.121-.02 0-.04-.036-.04-.08 0-.045-.017-.081-.04-.081-.021 0-.041-.037-.041-.08 0-.045-.017-.082-.04-.082-.02 0-.04-.052-.04-.12 0-.065-.017-.121-.041-.121-.02 0-.04-.036-.04-.08 0-.045-.017-.082-.04-.082-.02 0-.041-.052-.041-.12 0-.065-.016-.121-.04-.121-.02 0-.04-.053-.04-.121 0-.064-.017-.121-.041-.121-.02 0-.04-.052-.04-.12 0-.065-.016-.122-.04-.122-.02 0-.041-.052-.041-.12 0-.065-.016-.122-.04-.122-.02 0-.04-.052-.04-.12 0-.065-.017-.121-.041-.121-.02 0-.04-.073-.04-.162 0-.088-.016-.16-.04-.16-.02 0-.04-.078-.037-.17l.004-.174.06.202c.5 1.737.996 2.853 1.818 4.107 1.717 2.615 4.418 4.63 7.344 5.484.75.222.733.214.536.218-.097.004-.174-.012-.174-.036ZM27.242 67.28c0-.088-.016-.16-.04-.16-.02 0-.04-.089-.04-.198 0-.108-.02-.205-.045-.214-.024-.007-.036-.116-.028-.273l.012-.262.093.524c.048.29.1.572.113.636.016.069.008.109-.02.109-.024 0-.045-.068-.045-.161ZM53.766 66.306a1.78 1.78 0 0 1 .036-.214c.028-.105.032-.089.036.093 0 .117-.012.21-.036.21-.02 0-.036-.04-.036-.09ZM27 65.661c0-.298.02-.294.056.02.017.145.009.23-.015.23-.025 0-.041-.11-.041-.25ZM53.867 65.339c.012-.186.032-.343.04-.35.008-.009.016.14.016.33 0 .221-.016.35-.044.35-.029 0-.032-.104-.012-.33ZM53.87 63.52c-.032-.366-.02-.479.033-.422.012.012.016.201.012.419l-.012.399-.033-.395ZM27.005 63.126c-.005-.254.012-.355.048-.37.044-.017.048.035.02.27-.053.455-.06.466-.069.1ZM53.774 62.61c-.028-.221-.024-.274.016-.258.036.017.053.105.053.278 0 .142-.008.258-.017.258a1.85 1.85 0 0 1-.052-.278ZM27.085 62.441c-.005-.157.012-.234.048-.25.044-.016.048.02.02.185-.052.307-.065.319-.068.065ZM53.71 62.147c-.02-.085-.025-.166-.013-.178.049-.044.069.029.056.178l-.012.157-.032-.157ZM27.166 61.933c-.005-.117.016-.214.036-.214.024 0 .04-.072.04-.161 0-.089.02-.161.04-.161.025 0 .04-.073.04-.161 0-.09.021-.162.041-.162.024 0 .04-.072.04-.161 0-.088.02-.161.04-.161.025 0 .041-.073.041-.161 0-.089.02-.161.04-.161.024 0 .04-.053.04-.121 0-.065.02-.121.041-.121.024 0 .04-.053.04-.121 0-.065.02-.12.04-.12.025 0 .04-.054.04-.122 0-.065.021-.121.041-.121.024 0 .04-.052.04-.12 0-.065.02-.122.04-.122.025 0 .041-.036.041-.08 0-.045.02-.081.04-.081.024 0 .04-.053.04-.12 0-.065.02-.122.04-.122.025 0 .041-.036.041-.08 0-.045.02-.08.04-.08.024 0 .04-.037.04-.081 0-.045.02-.081.041-.081.024 0 .04-.036.04-.08 0-.045.02-.081.04-.081.025 0 .04-.037.04-.08 0-.045.021-.082.041-.082.025 0 .04-.036.04-.08 0-.044.02-.08.04-.08.025 0 .041-.037.041-.081 0-.045.02-.08.04-.08.025 0 .04-.037.04-.082 0-.044.021-.08.041-.08.024 0 .04-.036.04-.08 0-.045.02-.081.041-.081.024 0 .04-.036.04-.08 0-.045.02-.082.04-.082.025 0 .04-.032.04-.072 0-.04.037-.097.081-.13.045-.031.081-.084.081-.12 0-.036.036-.089.08-.12.045-.033.081-.085.081-.121 0-.037.037-.09.08-.122.045-.032.081-.084.081-.12 0-.037.037-.09.08-.121.046-.033.081-.085.081-.113 0-.032.053-.109.121-.17.065-.06.121-.133.121-.16 0-.029.053-.102.121-.162.065-.06.121-.133.121-.161 0-.028.057-.1.121-.161.065-.06.121-.133.121-.158 0-.06 1.314-1.374 1.374-1.374.025 0 .097-.052.158-.12.06-.065.132-.122.16-.122.025 0 .118-.072.202-.16.085-.09.178-.162.202-.162.028 0 .1-.052.161-.12.06-.065.137-.122.17-.122.027 0 .08-.036.112-.08.032-.045.085-.08.121-.08.036 0 .089-.037.121-.081.032-.044.085-.081.12-.081.037 0 .09-.036.122-.08.032-.045.085-.081.12-.081.037 0 .09-.036.121-.08.033-.045.09-.082.13-.082.04 0 .072-.015.072-.04 0-.02.036-.04.08-.04.045 0 .082-.016.082-.04 0-.02.035-.04.08-.04.044 0 .08-.017.08-.041 0-.02.037-.04.081-.04.044 0 .08-.016.08-.04 0-.02.037-.04.081-.04.045 0 .08-.017.08-.04 0-.021.037-.041.082-.041.044 0 .08-.017.08-.04 0-.02.037-.041.08-.041.045 0 .081-.016.081-.04 0-.02.037-.04.081-.04.044 0 .08-.017.08-.04 0-.021.037-.041.081-.041.045 0 .081-.016.081-.04 0-.02.036-.04.08-.04.045 0 .081-.017.081-.041 0-.02.056-.04.121-.04.069 0 .12-.017.12-.04 0-.02.037-.041.082-.041.044 0 .08-.016.08-.04 0-.02.057-.04.12-.04.07 0 .122-.017.122-.04 0-.02.056-.041.12-.041.07 0 .122-.016.122-.04 0-.02.056-.04.12-.04.07 0 .122-.017.122-.041 0-.02.056-.04.12-.04.07 0 .122-.017.122-.04 0-.021.056-.041.12-.041.069 0 .121-.016.121-.04 0-.02.073-.04.161-.04.09 0 .162-.017.162-.04 0-.02.072-.041.161-.041.089 0 .161-.016.161-.04 0-.02.093-.04.202-.04.112 0 .201-.017.201-.041 0-.02.097-.04.214-.037.181 0 .12.02-.415.142-1.12.258-2.257.669-3.205 1.164-1.382.722-2.269 1.374-3.39 2.495-1.128 1.128-1.865 2.16-2.554 3.55a13.172 13.172 0 0 0-1.064 3.063c-.133.6-.137.612-.141.355Z"/><path fill="#FEFEFE" d="M53.585 61.518a13.613 13.613 0 0 0-4.019-6.964c-.507-.463-.564-.512-.943-.797a12.765 12.765 0 0 0-2.152-1.343c-.814-.41-1.281-.588-2.563-.983-.31-.097-.314-.1-.15-.105.093-.003.17.017.17.037 0 .024.057.04.12.04.07 0 .122.02.122.04 0 .025.072.04.161.04.089 0 .161.02.161.04 0 .025.057.041.121.041.069 0 .121.02.121.04 0 .025.056.04.121.04.069 0 .12.02.12.041 0 .024.058.04.122.04.068 0 .12.02.12.04 0 .025.037.041.081.041.045 0 .08.02.08.04 0 .025.057.04.122.04.068 0 .121.02.121.04 0 .025.056.041.12.041.07 0 .122.02.122.04 0 .025.036.04.08.04.044 0 .08.02.08.041 0 .024.037.04.081.04.045 0 .081.02.081.04 0 .025.036.041.08.041.045 0 .081.02.081.04 0 .025.037.04.08.04.045 0 .081.02.081.04 0 .025.037.041.081.041.045 0 .08.02.08.04 0 .025.037.04.081.04.045 0 .081.021.081.041 0 .024.036.04.08.04.045 0 .081.02.081.04 0 .025.032.041.073.041.04 0 .096.036.129.08.032.045.088.081.129.081.04 0 .072.02.072.04 0 .024.032.04.073.04.04 0 .096.037.129.081.032.045.088.081.129.081.04 0 .072.02.072.04 0 .024.033.04.073.04.04 0 .096.037.129.081.032.044.084.08.113.08.032 0 .109.057.17.122.06.068.136.12.168.12.028 0 .08.037.113.081.032.044.084.08.113.08.032 0 .109.057.17.122.06.068.132.12.156.12.057 0 1.778 1.717 1.778 1.778 0 .024.072.112.16.197.09.085.162.177.162.202 0 .024.073.117.161.201.09.085.162.182.162.21 0 .028.036.08.08.113.045.032.081.084.081.113 0 .032.056.108.12.169.07.06.122.14.122.177 0 .036.02.065.04.065.024 0 .04.036.04.08 0 .044.02.08.04.08.025 0 .04.033.04.073 0 .04.037.097.082.13.044.032.08.088.08.128 0 .04.02.073.04.073.025 0 .04.032.04.072 0 .04.037.097.081.13.044.032.08.088.08.128 0 .04.02.073.041.073.024 0 .04.036.04.08 0 .045.02.08.04.08.025 0 .04.037.04.082 0 .044.021.08.041.08.025 0 .04.036.04.08 0 .045.02.081.041.081.024 0 .04.057.04.121 0 .069.02.121.04.121.025 0 .041.037.041.08 0 .045.02.081.04.081.024 0 .04.037.04.08 0 .045.02.082.041.082.024 0 .04.056.04.12 0 .069.02.121.04.121.025 0 .04.036.04.08 0 .045.021.082.041.082.024 0 .04.056.04.12 0 .069.02.121.04.121.025 0 .041.057.041.121 0 .069.02.121.04.121.024 0 .04.057.04.12 0 .07.02.122.04.122.025 0 .041.056.041.12 0 .07.02.122.04.122.024 0 .04.072.04.16 0 .09.02.162.041.162.024 0 .04.073.04.162 0 .088.02.16.04.16.025 0 .04.073.04.157 0 .09.021.166.045.174.025.008.037.093.028.193-.012.173-.015.17-.088-.16ZM43.162 51.265c-.379-.084-.383-.084-.181-.096.117-.008.205.004.213.028.008.024.085.044.17.044.096 0 .16.02.177.06.012.032.016.056.012.056-.004-.004-.181-.044-.39-.092ZM38.285 51.12c0-.02.077-.04.17-.04.197 0 .189.02-.017.057-.096.016-.153.012-.153-.016ZM42.376 51.12c-.108-.028-.1-.031.073-.035.105 0 .19.015.19.036 0 .044-.085.044-.263 0ZM38.769 51.04c0-.024.113-.04.274-.036.25.004.258.008.109.04-.226.044-.383.044-.383-.004ZM41.712 51.04c-.114-.024-.085-.032.153-.036.169 0 .29.012.29.036 0 .044-.23.044-.444 0Z"/><path fill="#090E44" fill-rule="evenodd" d="M90.463 61.121c.756.252 1.674 1.451 1.259 2.417l-.438.819-.45 4.032c-.123.686.356 2.005-.395 2.314-.301.016-.351-.184-.53-.388l-.355-1.072.246-1.09.238-4.544c-.046-.915-.385-1.867.183-2.47l.242-.018Zm2.129 2.565c1.293.194 2.41.39 3.111 1.005-.072.32-.117.328-.263.49-1.83-.312-1.793 1.08-3.625-.794.14-.477.429-.535.777-.701Zm-8.918-.205c1.047.145 1.755.783 1.948 1.521l-.186 3.541c.538.155.687.24 1.033.592l-.05.29c-.82.915-1.852 1.922-2.93 2.479l-1.827-.489-.182-.329.087-.163c.696-.72 1.987-.57 2.338-1.806-.06-.11-.121-.22-.183-.329-.64-.09-.95-.313-1.06-.776l.049-.29c.271-.359.965-.485 1.366-.66.307-2.202-1.178-2.121-1.159-3.353l.194-.086.562-.142Zm9.587 5.022c1.016.153 3.51.957 3.865 1.49l.565 1.585c-.124.303-.368.708-.853.45-.987-.523-1.247-1.785-2.41-2.314-1.005-.458-1.393.579-2.351.136-.452-.208-.78-.726-.73-1.315l.213-.202 1.701.17ZM103.963 63.108c.606-.196 1.033-.003 1.345.363.439.663.085 1.073.069 1.52-.018.496.49.41.491.853l-.067.288c-1.042.306-1.069 1.377-1.556 2.1-.745 1.109-2.105 2.335-3.935 2.66l-.127-.225c.891-1.048 2.601-1.764 2.944-3.083a71.054 71.054 0 0 1-.144-.113c-.694.136-1.518-.42-1.805-1.118l.164-.479c.285-.196.534.044.755.022.666-.067 1.746-.765 2.142-1.12-.084-.67-.507-1.08-.276-1.667Zm1.122 4.427c1.65-.408 4.735 1.874 4.174 3.969l-.274.142c-.685-.36-.549-1.116-1.126-1.817-.638-.778-2.594-1.22-3.034-1.944l.26-.35ZM71.154 51.006c1.895 1.468.088 3.476.36 5.153.511.135 1.23-.193 1.648.54.135.264.086.367.08.64l-.04.05c-.41.065-1.08-.217-1.45-.053-.353.157-.766 2.642-.869 3.123l.39.138c.304-.298.658-.507 1.014-.45l.194.07-.057.285c-.427.246-1.28.53-1.468.923l.024 3.57c.41.228.611.322.875.681 1.062-1.298 2.698-4.099 2.699-5.251 0-.27-.308-.565-.337-.84l.12-.154c.205.02.41.042.614.063.764.184.98 1.184.856 1.658a5857 5857 0 0 0-.912 1.273l-.713 1.758c-.447.926-1.477 1.531-1.624 2.288.856.65 1.762.964 2.587 1.352l1.441 1.122c1.065.465 2.029-.026 3.005 1.347l-.03.142-.2.257-2.045.391c-.816-.214-.786-.992-1.149-1.39l-4.05-2.656c-.385.012-.799.257-1.158.421-.47.945.032 1.72.042 2.594.022 1.89.02 3.706.13 5.552l-.344.228c-1.58-.643-1.614-1.643-2.951-2.791l.16-.206.235.017 1.591.825.132-.062.058-4.416c-.886-.166-4.472 3.735-6.07 3.95l-.206-.16.08-.103c.36-.85 2.014-1.313 2.277-2.276-.278-.408-.19-.695-.32-1.074L64.707 67.3l-1.072-3.395c-.234-.644-.858-.826-1.057-1.4.278-.621 1.318-.906 1.775.059.251.504.057.966.181 1.462l.885 2.258c.14.567-.06 1.13.347 1.674.844-.236 3.88-2.308 4.253-3.215l-.257-.2c-.544.228-2.123.332-1.957-.78l.12-.154c.761-.451 1.32-.467 2.125-.494l.12-.154-.043-1.109-.104-.08c-.586.183-1.443.238-1.959.706-1.085.983-1.304 2.812-2.934 1.846l-.017-.508c1.46-1.912 3.31-2.036 4.923-2.695.36-.617.409-1.741.358-2.364l-.194-.07c-.593.41-1.937 1.752-2.63.928l-.274-.709c-.367-.47-.56-.28-.714-.886l.2-.257c1.106-.176 2.899-.403 3.828-1.4l.17-3.501c-.007-.52-.468-1.07-.426-1.572l.16-.205c.26-.128.378-.071.641-.079Zm.489 14.836-.722.181c-.162.3-.165.402-.104.663.095.02.191.038.286.057l.591-.861-.051-.04Zm-1.988.848-2.351 2.053c-.402.195-.774-.038-1.18.238l.605 1.132c.432-.179 3.058-2.304 3.17-2.572l.013-.65-.257-.201ZM116.183 57.49l.285-.126.98.43c.449.78.136 1.156.171 1.824l.12.065 1.224-1.762-.127-.285c-.309-.098-.41-.076-.589-.407l.067-.645c.499-.234.634.05 1.117-.116l.029-.17c-.272-.356-.345-.537-.21-.824l.114-.156c1.604.482 1.376 1.278 1.278 2.538.963.995 1.012 2.585.39 3.614l.227.214.1-.07c.798-.043 1.984-1.393 2.029-2.107l-.782-.046c-.034-.206-.059-.2.022-.39.355-.506 1.193-.616 1.69-.895l.418-1.417-.226-.214c-.573.301-1.417.282-1.856-.185l.016-.61.3-.212c.92.277 2.123-.49 2.973.07.923.607-2.154 4.372-2.276 5.348.576.149 1.247-.495 1.907-.376 1.86.334 1.441 2.489 1.238 3.539l-.385.197c-.761-.417-.905.013-1.714.014-1.203.003-1.156-.428-2.676.245l-.121-.065-.091-.234c1.21-1.128 2.47-1.585 3.572-2.15l.094-.29-.274-.704-.171-.03c-1.054 1.075-1.046.665-2.074 1.092l-1.434.938c-1.732-.67-1.62.175-3.46.724l-1.017.046c-.474.454-.203.77-.304 1.262l-.2.14-.377-.107c-.821-1.294-.829-.677-1.987-1.214l-.056-.185c-.042-.25.018-.29.088-.51l1.082-.167c-.085-1.088-.887-2.264-.997-3.41.29-.182.328-.155.556-.168l.674.422c.221 1.115.049 1.724.692 2.876.345.063.532.114.947-.145.205-1.57-1.142-3.668-.996-5.205Zm-4.107 6.044.299-.211.071.1c1.023.749.505 2.989-.471 3.772l-.461-.122c-.42-1.037.521-2.494.562-3.539Zm7.467-4.901c-.363.716-1.465 1.288-1.794 2.015l.441 1.783c.497-.012 1.27-.2 1.334-.868-.38-.23-1.135-.577-.849-1.195l.4-.282c.458-.092.721.121 1.1.494l.35-.247c.33-.547.176-2.427-.982-1.7Zm-3.123 7.218c.678-.453.92-.13 1.473-.143 1.189-.028 2.346-1.129 3.328.042.052 1.083-.487.56-1.312 1.002l.056.184c.407.174.621.08 1 .565.08.637-.361 1.013-.362 1.602.136.047.107.048.256.044 2.022-.47 3.004-.812 4.598 1.09.016.321.043.53-.01.83-.39.26-.462.184-.776.175-.679-.467-1.349-1.307-2.1-1.584-.562.226-1.502.077-1.901.595-.647 1.227-.202 3.73-1.039 5.297-.452.846-1.635.374-1.997-.385-.258-.539-.567-.34-1.007-.784l-.021-.135.2-.141c.493.167 1.405.404 1.941.2.056-.581 1.292-3.666.421-3.739-.428.095-.716.44-.999.706-.711.665-1.618.06-2.226-.073-.253-.34-.292-.465-.225-.739.47-.191.944.035 1.423-.107l2.387-.864c-.202-.655.07-1.117-.221-1.789l-.256-.043-1.454.803-.192-.164c.124-.353.522-.757.546-1.133-.517-.149-.865-.248-1.407-.503-.202-.355-.169-.511-.124-.81Z" clip-rule="evenodd"/></g><defs><filter id="a" width="154" height="157" x="0" y="0" color-interpolation-filters="sRGB" filterUnits="userSpaceOnUse"><feFlood flood-opacity="0" result="BackgroundImageFix"/><feColorMatrix in="SourceAlpha" result="hardAlpha" values="0 0 0 0 0 0 0 0 0 0 0 0 0 0 0 0 0 0 127 0"/><feOffset dy="16"/><feGaussianBlur stdDeviation="6.5"/><feColorMatrix values="0 0 0 0 0 0 0 0 0 0 0 0 0 0 0 0 0 0 0.03 0"/><feBlend in2="BackgroundImageFix" result="effect1_dropShadow_185_140"/><feBlend in="SourceGraphic" in2="effect1_dropShadow_185_140" result="shape"/></filter></defs></svg>