<svg xmlns="http://www.w3.org/2000/svg" width="154" height="157" fill="none"><g filter="url(#a)"><path fill="#fff" d="M13 0h128v128H13z"/><path fill="#006A44" fill-rule="evenodd" d="M39.108 54.688h-6.516A5.59 5.59 0 0 0 27 60.278v7.445a5.59 5.59 0 0 0 5.592 5.588h6.516a5.587 5.587 0 0 0 5.588-5.588v-7.446c0-3.087-2.5-5.589-5.588-5.589Zm2.881 11.528a4.47 4.47 0 0 1-4.47 4.472H34.18a4.472 4.472 0 0 1-4.472-4.472v-4.408a4.473 4.473 0 0 1 4.472-4.474h3.34a4.472 4.472 0 0 1 4.47 4.474v4.408Z" clip-rule="evenodd"/><path fill="#fff" fill-rule="evenodd" d="m28.834 58.63.231-.341.16.215-.129.189-.262-.063Zm-.628.203a.083.083 0 0 0-.014.05c0 .017.008.03.02.04a.056.056 0 0 0 .052.018.06.06 0 0 0 .05-.033l.366-.539.126.085-.26.385c-.05.072-.06.126-.032.165.028.037.06.067.094.092l.751.505a.08.08 0 0 0 .055.014.057.057 0 0 0 .039-.025.068.068 0 0 0 .005-.05.088.088 0 0 0-.03-.041l-.732-.493a.182.182 0 0 1-.048-.048c-.012-.017-.006-.041.017-.075l.092-.139.267.055-.085.13a.073.073 0 0 0-.012.044c.004.015.008.03.023.04.013.013.029.016.047.013a.085.085 0 0 0 .046-.03l.185-.278.124.081-.229.347c-.01.018-.016.034-.013.05.004.018.011.033.026.041.016.015.032.017.052.015a.066.066 0 0 0 .045-.035l.23-.34.245.164a.058.058 0 0 0 .052.013.07.07 0 0 0 .043-.028.065.065 0 0 0 .007-.051c-.002-.02-.012-.034-.029-.045l-.244-.165.235-.342a.063.063 0 0 0-.025-.092c-.016-.01-.032-.01-.049-.009a.057.057 0 0 0-.036.024l-.232.344-.125-.082.174-.262a.051.051 0 0 0 .01-.048c-.005-.022-.015-.03-.031-.04-.016-.008-.028-.01-.044-.008a.099.099 0 0 0-.035.027l-.08.118-.156-.222.082-.123a.178.178 0 0 1 .046-.05.058.058 0 0 1 .043-.01c.014.001.032.01.054.024l.598.398c.028.025.043.044.049.062.002.019-.004.036-.015.058a.296.296 0 0 1-.07.082c-.029.023-.043.036-.047.04a.086.086 0 0 0-.006.043c.004.017.01.029.023.038.042.029.097.004.164-.079.07-.08.102-.143.094-.182a.16.16 0 0 0-.037-.09c-.018-.017-.041-.038-.067-.056l-.64-.434a.293.293 0 0 0-.088-.04.136.136 0 0 0-.085.007c-.034.014-.069.054-.112.114l-.245.359-.123-.085.37-.552c.014-.014.015-.032.012-.049 0-.017-.014-.033-.029-.044a.075.075 0 0 0-.05-.008.057.057 0 0 0-.04.029l-.374.548-.054-.036a.059.059 0 0 0-.05-.007.06.06 0 0 0-.047.03.062.062 0 0 0-.01.056.065.065 0 0 0 .027.04l.054.035-.364.542ZM31.096 56.808a.268.268 0 0 1-.065.026c-.016.002-.027 0-.04-.01a.106.106 0 0 1-.032-.043l-.058-.12a.116.116 0 0 1-.014-.052c0-.024.017-.041.052-.059l.734-.359c.039-.02.065-.026.082-.013.015.014.027.03.038.046l.048.102c.019.035.027.056.026.068a.05.05 0 0 1-.013.03.123.123 0 0 1-.044.03l-.714.354Zm.107.217a.248.248 0 0 0-.019.057 1.928 1.928 0 0 1-.097.272l-.08.147a.134.134 0 0 0-.021.063.092.092 0 0 0 .014.038c.009.013.021.023.036.024a.092.092 0 0 0 .05-.01.461.461 0 0 0 .084-.133c.041-.074.075-.154.101-.226.026-.073.042-.124.051-.157a.137.137 0 0 0 .001-.067.052.052 0 0 0-.038-.034.072.072 0 0 0-.052 0c-.012.003-.021.016-.03.026Zm-.703-.675c-.017.011-.032.023-.037.042-.008.02-.01.034-.002.05.004.017.021.028.04.035a.091.091 0 0 0 .06-.007l1.299-.642a.079.079 0 0 0 .039-.044c.005-.023.005-.039-.002-.053a.08.08 0 0 0-.043-.03.107.107 0 0 0-.056.005l-.553.277-.039-.033c-.004-.004-.022-.012-.05-.03a2.01 2.01 0 0 1-.059-.032.106.106 0 0 0-.058.01.06.06 0 0 0-.032.041c-.003.019-.003.035.004.044.004.011.01.02.015.022l.028.02c.013.01.029.021.043.029l-.597.296Zm1.388.215c.07-.037.109-.066.116-.099a.181.181 0 0 0 .011-.074.16.16 0 0 0-.02-.066l-.093-.186a.228.228 0 0 0-.08-.088c-.04-.031-.101-.027-.177.017l-.791.39c-.077.035-.113.077-.113.126a.28.28 0 0 0 .024.108l.081.166c.019.031.035.06.05.077a.183.183 0 0 0 .07.044c.03.012.088-.002.175-.047l.309-.152.185.37a.214.214 0 0 1 .022.058c0 .011-.008.023-.025.037a.252.252 0 0 1-.065.03.325.325 0 0 1-.077.02c-.023.003-.037.009-.044.012a.07.07 0 0 0-.032.037.067.067 0 0 0 .003.053c.007.011.02.025.033.03.017.009.046.006.088-.005.047-.014.094-.026.144-.048.074-.035.114-.067.123-.1a.223.223 0 0 0 .005-.074.14.14 0 0 0-.014-.05l-.215-.434.307-.152Zm.509.281-.106-.044a1.195 1.195 0 0 0-.144-.05l-.124-.042c-.053-.017-.088-.028-.11-.028a.082.082 0 0 0-.049 0c-.02.006-.03.022-.038.042-.005.024 0 .039.007.05.008.014.021.024.04.03a.937.937 0 0 0 .137.043c.075.022.129.04.165.053.035.017.076.033.123.057.048.02.081.031.099.031.013 0 .03-.004.04-.01a.071.071 0 0 0 .036-.039.061.061 0 0 0-.013-.051c-.012-.018-.034-.03-.063-.042ZM33.943 56.14v-.801c0-.022.002-.04.017-.053a.051.051 0 0 1 .045-.022c.013 0 .026.005.04.022a.08.08 0 0 1 .02.053v.819c0 .06-.006.125-.016.197a.614.614 0 0 1-.068.195.784.784 0 0 1-.177.208c-.083.078-.141.102-.164.073-.022-.033-.035-.054-.034-.07a.094.094 0 0 1 .02-.038.903.903 0 0 1 .12-.086.372.372 0 0 0 .142-.18.798.798 0 0 0 .055-.317Zm-.32.242v-.924c0-.022.008-.039.021-.05a.05.05 0 0 1 .084 0c.013.011.018.028.018.05v.924c0 .02-.005.036-.019.05a.056.056 0 0 1-.044.02.047.047 0 0 1-.039-.022.068.068 0 0 1-.02-.048Zm1.054-.924v.206h.215c.056 0 .094.009.11.026.019.019.032.04.04.061.006.024.01.05.01.078v.699a.153.153 0 0 1-.038.11c-.024.028-.078.039-.16.037-.05-.003-.085-.009-.097-.022a.064.064 0 0 1-.024-.05.055.055 0 0 1 .016-.038.083.083 0 0 1 .04-.009l.074.01c.026 0 .044-.005.054-.017.01-.01.016-.032.016-.063v-.603a.836.836 0 0 0-.005-.055.071.071 0 0 0-.02-.033c-.01-.008-.03-.01-.062-.01h-.17v1.003a.082.082 0 0 1-.01.047c-.015.012-.028.022-.043.022a.05.05 0 0 1-.045-.016c-.015-.011-.02-.031-.02-.053v-1.002h-.113a.128.128 0 0 0-.057.008.048.048 0 0 0-.023.025c-.003.01-.003.032-.003.064v.702a.071.071 0 0 1-.018.049.05.05 0 0 1-.044.021c-.015 0-.027-.002-.039-.021a.09.09 0 0 1-.018-.05v-.75c0-.029.003-.056.011-.083a.118.118 0 0 1 .04-.062c.021-.016.058-.025.119-.025h.144v-.206h-.333c-.023 0-.042-.004-.055-.018a.058.058 0 0 1-.022-.042c-.002-.02.007-.035.023-.047a.096.096 0 0 1 .054-.017h.86c.015 0 .031.007.044.017.011.012.018.026.018.047a.054.054 0 0 1-.018.042.057.057 0 0 1-.044.018h-.407ZM37.057 55.428v-.13a.06.06 0 0 1 .017-.038.068.068 0 0 1 .044-.022c.017-.003.033.005.046.019.012.01.02.026.02.04v.13h.425V55.3c0-.011.005-.023.017-.036a.068.068 0 0 1 .044-.021c.017 0 .03.005.043.017a.051.051 0 0 1 .017.04v.128h.387c.016 0 .03.003.041.014a.069.069 0 0 1 .02.043.052.052 0 0 1-.014.045.072.072 0 0 1-.047.02h-.387v.105a.08.08 0 0 1-.014.044c-.014.012-.026.02-.043.02a.055.055 0 0 1-.045-.019.062.062 0 0 1-.02-.045v-.106h-.425v.12c0 .017-.007.03-.017.042a.072.072 0 0 1-.043.019.056.056 0 0 1-.043-.018c-.015-.013-.023-.026-.023-.043v-.12h-.38a.061.061 0 0 1-.048-.022.058.058 0 0 1-.015-.05.057.057 0 0 1 .02-.035.063.063 0 0 1 .044-.014h.379Zm-.406.525c.008-.028.03-.037.06-.033.016.004.062.03.14.084.08.048.123.076.136.09.013.012.02.025.02.042a.05.05 0 0 1-.016.04c-.012.016-.03.02-.05.018a.48.48 0 0 1-.125-.07 1.985 1.985 0 0 1-.133-.086.064.064 0 0 1-.029-.03c-.007-.004-.008-.016-.008-.027 0-.01 0-.02.005-.028Zm.363.297c.018-.009.037-.005.055.01a.064.064 0 0 1 .022.05.176.176 0 0 1-.017.075c-.025.054-.05.1-.068.14-.02.036-.053.093-.1.169-.045.077-.082.116-.108.114a.09.09 0 0 1-.058-.03.056.056 0 0 1-.01-.055.154.154 0 0 1 .03-.053c.017-.022.052-.076.096-.159.049-.085.083-.149.099-.189.018-.042.036-.067.059-.072Zm.073-.344c.005.023 0 .047-.026.069-.023.017-.054.012-.088-.015a1.764 1.764 0 0 1-.128-.105.76.76 0 0 1-.102-.094c-.011-.01-.012-.023-.012-.035 0-.008.004-.02.012-.029a.051.051 0 0 1 .034-.022.064.064 0 0 1 .047 0 .135.135 0 0 1 .05.034c.022.02.051.042.09.074a.351.351 0 0 1 .123.123Zm.138.023a.545.545 0 0 1 .025-.11c.016-.034.06-.053.132-.053h.41c.056 0 .097.009.12.022a.158.158 0 0 1 .053.063.314.314 0 0 1 .009.12c0 .043-.005.094-.013.156-.01.066-.017.114-.025.151a.358.358 0 0 1-.058.104c-.03.032-.086.048-.167.042-.033 0-.066-.007-.102-.013-.036-.01-.063-.017-.085-.028a.101.101 0 0 1-.044-.033c-.01-.01-.01-.034 0-.058.008-.03.034-.04.079-.032.005 0 .028.004.052.013.029.007.054.01.08.017.051.003.087-.007.101-.034a.207.207 0 0 0 .031-.08l.013-.102c.004-.046.01-.077.01-.1a.161.161 0 0 0-.003-.054c-.008-.012-.016-.023-.025-.025-.005 0-.02-.007-.045-.007h-.35c-.034 0-.054.01-.063.028-.008.013-.009.034-.009.062v.552a.149.149 0 0 0 .038.104c.012.014.055.021.131.026.072.006.125.008.157.006.022 0 .078 0 .159-.007.079-.004.13-.015.145-.033a.13.13 0 0 0 .036-.074l.015-.086c.01-.04.035-.057.074-.054.037.002.052.03.05.087a1.469 1.469 0 0 1-.015.11.28.28 0 0 1-.036.097.268.268 0 0 1-.111.063 1.2 1.2 0 0 1-.329.023 1.3 1.3 0 0 1-.328-.026.16.16 0 0 1-.087-.06c-.017-.024-.025-.073-.025-.15v-.627ZM39.85 56.124a.084.084 0 0 1-.045-.045c-.008-.02-.011-.038 0-.054.003-.017.02-.031.043-.038a.095.095 0 0 1 .072.01l.546.295.115-.213a.07.07 0 0 1 .043-.04c.017-.01.035-.014.053-.004.02.006.032.019.038.044a.091.091 0 0 1-.009.067l-.114.215.558.294a.07.07 0 0 1 .032.043.072.072 0 0 1-.001.056c-.012.018-.024.034-.042.037a.089.089 0 0 1-.057-.003l-.542-.294-.026.08a1.573 1.573 0 0 0-.016.404c.008.079.025.164.052.254.022.093.053.174.087.243.033.073.05.12.056.143a.097.097 0 0 1-.001.059c-.004.017-.017.028-.039.04a.062.062 0 0 1-.066-.009c-.024-.01-.068-.099-.128-.26a1.371 1.371 0 0 1-.101-.446 1.634 1.634 0 0 1 .017-.376c-.034.03-.065.056-.093.083a2.65 2.65 0 0 1-.142.102 1.3 1.3 0 0 1-.495.19c-.084.014-.154.02-.21.024a.276.276 0 0 1-.113-.01c-.02-.013-.033-.027-.038-.044a.061.061 0 0 1 .002-.05c.009-.018.017-.03.03-.035a.543.543 0 0 1 .171-.017c.105-.002.227-.027.366-.078.139-.048.25-.11.337-.189.085-.076.139-.132.162-.16l.024-.036-.525-.282ZM42.745 59.46c.007.017.012.032.007.048a.059.059 0 0 1-.025.041.09.09 0 0 1-.047.009c-.017-.007-.03-.013-.04-.033l-.309-.485c-.015.03-.032.065-.052.097a.312.312 0 0 1-.075.087.278.278 0 0 1-.093.054.215.215 0 0 1-.208-.031.547.547 0 0 1-.137-.167.646.646 0 0 1-.08-.21.343.343 0 0 1-.004-.07.074.074 0 0 1 .037-.04c.022-.01.036-.01.051-.003.013.011.025.023.03.038.004.011.01.038.019.088a.406.406 0 0 0 .061.15c.061.105.124.144.179.117a.328.328 0 0 0 .113-.083.42.42 0 0 0 .048-.078l.027-.079-.401-.63c-.008-.017-.012-.032-.007-.05 0-.016.012-.03.024-.037.017-.01.032-.014.048-.009a.07.07 0 0 1 .039.028l.341.54a.119.119 0 0 1 .04-.011c.013 0 .034.01.072.044.031.027.059.052.083.066l.081.055c.03.017.05.028.06.03.007 0 .013 0 .02-.002.003-.003.003-.008 0-.015 0-.007-.017-.032-.04-.073l-.328-.51a.062.062 0 0 1-.008-.049.056.056 0 0 1 .028-.04c.013-.01.028-.012.049-.007a.08.08 0 0 1 .036.029l.411.65c.02.028.032.054.038.075.003.022 0 .04-.014.059-.013.017-.039.027-.072.031a.367.367 0 0 1-.117-.026.633.633 0 0 1-.095-.037l-.104-.054.314.494Zm.425-.409a.34.34 0 0 1 .045.113.084.084 0 0 1-.03.083.375.375 0 0 1-.09.045 1.1 1.1 0 0 1-.1.019c-.04.005-.065.005-.082-.005a.078.078 0 0 1-.039-.036.057.057 0 0 1-.005-.046c.005-.016.014-.027.029-.033a.047.047 0 0 1 .018-.003c.002-.004.026-.004.06-.005.036-.002.06-.01.073-.02a.048.048 0 0 0 .018-.03c0-.01-.003-.015-.005-.024a.237.237 0 0 1-.035-.054l-.596-.934a.142.142 0 0 0-.028-.04c-.006-.008-.012-.008-.019-.008-.009 0-.019.004-.027.008l-.058.037c-.014.01-.03.014-.047.01-.017-.005-.03-.011-.039-.025-.01-.014-.01-.03-.007-.049a.06.06 0 0 1 .027-.04l.084-.054a.267.267 0 0 1 .074-.035c.02-.004.038-.001.051.008.013.003.02.008.027.018.006.009.02.026.038.055l.663 1.045Zm-.423-.872c-.01.011-.024.014-.046.011-.016-.002-.029-.015-.038-.035-.008-.016-.008-.041 0-.074.009-.032.015-.076.022-.124.008-.049.013-.084.024-.107.011-.023.022-.037.038-.045a.044.044 0 0 1 .044.004c.015.01.024.023.03.037a.161.161 0 0 1-.002.07l-.024.107a.735.735 0 0 1-.025.111c-.007.024-.015.04-.023.045Zm.268.133c.018-.032.033-.054.047-.062.016-.01.031-.007.05 0 .02.01.03.026.035.044a.137.137 0 0 1-.005.03 1.082 1.082 0 0 1-.12.202.143.143 0 0 1-.038.043c-.014.007-.031.004-.057-.009-.027-.011-.034-.034-.026-.07a.151.151 0 0 1 .029-.05.515.515 0 0 0 .051-.07c.018-.033.031-.049.034-.058Zm.091.594a.05.05 0 0 1-.023-.028c-.012-.012-.013-.027-.012-.045.007-.016.015-.033.029-.035.006-.009.02-.009.042-.003l.088.003.07.002c.037 0 .073 0 .102-.002a.185.185 0 0 1 .06.002c.012.006.024.012.033.025.008.014.011.03.01.042 0 .02-.01.031-.031.044-.014.01-.041.012-.079.012-.035-.002-.086 0-.154 0a.296.296 0 0 1-.135-.017ZM27.973 63.516h.847v.184l-.573.394h.573v.179h-.847v-.196l.557-.382h-.557v-.18ZM28.307 64.99l.316.13-.316.134v-.263Zm.513.232v-.207l-.847-.368v.207l.19.08v.382l-.19.083v.206l.847-.383ZM27.973 65.975h.847v.188l-.573.39h.573v.18h-.847v-.195l.557-.386h-.557v-.177ZM28.895 67.49l.037.19-.528.103a.49.49 0 0 1-.163.01.227.227 0 0 1-.135-.076.373.373 0 0 1-.082-.18c-.018-.094-.01-.171.027-.227.036-.059.098-.099.188-.115l.052.172c-.046.016-.079.026-.098.044a.113.113 0 0 0-.026.102c.009.041.026.069.049.082.024.015.072.014.14 0l.539-.106ZM28.526 69.05l.746-.405.088.166-.315.616.502-.268.085.153-.748.404-.09-.169.307-.607-.49.268-.085-.159ZM29.741 70.338l.111-.092.272.312-.26.223a.522.522 0 0 1-.184-.073.632.632 0 0 1-.18-.15.544.544 0 0 1-.127-.234.36.36 0 0 1 .01-.23.492.492 0 0 1 .134-.191.458.458 0 0 1 .22-.106.383.383 0 0 1 .239.037.497.497 0 0 1 .181.143.541.541 0 0 1 .133.252.3.3 0 0 1-.057.216l-.15-.122a.184.184 0 0 0 .025-.125.236.236 0 0 0-.062-.128.277.277 0 0 0-.186-.104c-.068-.005-.137.022-.208.084a.317.317 0 0 0-.123.204c-.007.074.018.137.073.202.026.03.06.054.096.078a.32.32 0 0 0 .107.042l.082-.072-.146-.166ZM30.799 71.66l.386-.752.168.084.087.687.263-.508.157.084-.39.749-.168-.085-.09-.674-.254.495-.16-.08ZM32.41 71.569a.265.265 0 0 1 .2-.054c.08.006.14.034.187.088.042.05.062.125.05.22-.006.1-.036.172-.09.218a.264.264 0 0 1-.197.056.259.259 0 0 1-.185-.09c-.044-.053-.063-.13-.056-.225.01-.096.04-.168.09-.213Zm-.19.528a.475.475 0 0 0 .328.146.468.468 0 0 0 .343-.087.423.423 0 0 0 .155-.312.43.43 0 0 0-.099-.329.472.472 0 0 0-.327-.147.657.657 0 0 0-.206.015.45.45 0 0 0-.23.172.524.524 0 0 0-.061.215.421.421 0 0 0 .097.327ZM33.676 71.603l.15.01.14.006c.03.008.054.02.07.04a.088.088 0 0 1 .02.07c-.002.026-.007.049-.023.062-.013.019-.032.028-.057.035a.553.553 0 0 1-.17 0l-.14-.007.01-.216Zm-.038.704.019-.353.038.003c.046.005.08.008.098.015a.15.15 0 0 1 .056.038c.018.017.05.061.095.13l.129.19.226.014-.107-.17a1.082 1.082 0 0 0-.1-.144.522.522 0 0 0-.1-.078.304.304 0 0 0 .19-.068.219.219 0 0 0 .073-.156.246.246 0 0 0-.036-.136.214.214 0 0 0-.104-.085.847.847 0 0 0-.22-.037l-.403-.02-.044.844.19.013ZM34.691 72.36l.018-.849.289.006.157.583.185-.575.289.009-.023.848-.175-.005.014-.669-.201.664-.189-.007-.169-.667-.018.665-.177-.004ZM36.329 72.046l.126-.314.14.311-.266.003Zm.228-.513h-.207l-.359.853.206-.001.077-.193.383-.006.085.193.208-.004-.393-.842ZM37.344 72.36l-.047-.839.192-.01.038.693.481-.028.01.144-.674.04ZM38.959 71.38l.19-.025.06.457c.012.072.02.122.028.14a.13.13 0 0 0 .07.075c.031.017.074.024.127.016a.253.253 0 0 0 .117-.046.113.113 0 0 0 .04-.08.878.878 0 0 0-.011-.144l-.063-.468.19-.025.06.44a.816.816 0 0 1 .012.215.246.246 0 0 1-.04.116.276.276 0 0 1-.103.081.518.518 0 0 1-.176.051.602.602 0 0 1-.208 0 .308.308 0 0 1-.12-.056.253.253 0 0 1-.066-.087 1.124 1.124 0 0 1-.048-.21l-.059-.45ZM40.473 72.004l-.367-.765.167-.079.603.34-.246-.512.157-.078.37.764-.174.084-.591-.332.242.502-.161.076ZM41.639 71.325l-.534-.655.15-.12.532.657-.148.118ZM42.357 70.642l-.867-.278.13-.163.64.214-.34-.576.13-.16.44.8-.133.163ZM42.96 69.78l-.765-.36.3-.638.13.062-.218.462.168.079.204-.431.13.064-.203.43.21.1.226-.482.129.064-.31.65ZM42.806 68.258l.033-.146c.019-.074.03-.121.036-.133.01-.03.026-.054.048-.064a.092.092 0 0 1 .074-.009c.024.008.044.017.056.033a.095.095 0 0 1 .025.063.862.862 0 0 1-.029.169l-.033.138-.21-.05Zm.686.163-.345-.08.01-.04a.335.335 0 0 1 .032-.093.19.19 0 0 1 .047-.048.968.968 0 0 1 .142-.071l.213-.093.051-.22-.186.077a1.153 1.153 0 0 0-.158.072.508.508 0 0 0-.092.082c.008-.082-.002-.148-.035-.197a.213.213 0 0 0-.137-.098.234.234 0 0 0-.142.007.199.199 0 0 0-.104.093.747.747 0 0 0-.073.208l-.09.392.823.195.044-.186ZM43.436 67.322l-.016-.183a.203.203 0 0 0 .123-.072c.026-.033.038-.077.038-.138a.24.24 0 0 0-.035-.14c-.022-.03-.05-.048-.08-.048-.02 0-.04.009-.053.022a.174.174 0 0 0-.035.07 1.59 1.59 0 0 0-.036.152.53.53 0 0 1-.085.215.213.213 0 0 1-.17.089.195.195 0 0 1-.123-.044.258.258 0 0 1-.085-.119.47.47 0 0 1-.03-.183c0-.12.022-.21.069-.272a.241.241 0 0 1 .187-.093l.008.19a.15.15 0 0 0-.096.054.221.221 0 0 0-.027.12c0 .055.01.102.03.131a.06.06 0 0 0 .051.029c.023 0 .04-.008.054-.028a.543.543 0 0 0 .058-.173c.02-.094.04-.163.059-.208a.283.283 0 0 1 .088-.106.244.244 0 0 1 .133-.039c.05 0 .095.02.14.048a.27.27 0 0 1 .092.126.61.61 0 0 1 .03.208c0 .124-.023.216-.072.28a.304.304 0 0 1-.217.112ZM42.864 66.125h.848v-.194h-.848v.194ZM43.712 65.266h-.705v.282h-.143v-.754h.143v.28h.705v.192ZM43.712 64.155h-.357l-.49.348v-.227l.335-.223-.336-.221v-.218l.491.35h.357v.191ZM28.262 68.37l.797-.289.065.184-.797.287-.065-.182Z" clip-rule="evenodd"/><path fill="#006A44" fill-rule="evenodd" d="m36.467 60.929.172-.035s0-.067-.093-.22c-.09-.153-.327-.42-.327-.42h-.278a2.795 2.795 0 0 0-.566-.468l-.015-.01-.003-.006h-.006c0-.002-.007-.002-.01-.009-.006-.003-.012-.005-.017-.012l-.019-.005c-.005-.004-.009-.006-.013-.006.035-.153.017-.367-.155-.657-.191-.339-.538-.566-.754-.563.047.19.16.474.373.746.141.183.26.292.367.384a2.29 2.29 0 0 0-.713-.184c.038-.116-.023-.368-.282-.552-.268-.195-.602-.217-.79-.132-.005.14.187.31.44.472.166.102.324.174.453.207a2.398 2.398 0 0 0-.754.11l-.02.003v.006h-.003c-.012-.13-.162-.33-.477-.403-.317-.072-.628.035-.742.148.049.13.264.25.559.301.2.034.378.037.508.014a3.17 3.17 0 0 0-.691.405c-.06-.12-.261-.244-.554-.25-.306-.004-.568.139-.652.262.07.115.298.207.59.203.174-.006.33-.034.444-.081-.172.14-.328.29-.474.437l-.029.03c-.083-.101-.305-.18-.594-.124-.298.062-.524.253-.58.396.09.094.336.136.623.07.14-.034.263-.08.359-.136a4.29 4.29 0 0 0-.201.23c-.155.044-.35.226-.528.476-.215.3-.289.66-.276.815.212-.021.471-.23.674-.516.2-.278.271-.568.23-.719.065-.08.126-.154.192-.221a.832.832 0 0 0-.08.325c-.01.284.107.497.216.57.102-.064.2-.265.215-.538.018-.257-.044-.495-.138-.583.036-.035.077-.08.123-.116l.012-.013-.002-.006c.084-.075.18-.164.287-.253a.816.816 0 0 0-.11.382c-.01.286.106.5.212.572.104-.07.203-.269.22-.538.016-.25-.043-.476-.129-.575.154-.117.329-.231.515-.326a.776.776 0 0 0-.158.314c-.058.273.028.5.119.589.106-.041.21-.204.277-.451.054-.223.073-.447.024-.569l.114-.038.01-.003c.202-.058.41-.086.615-.089a.656.656 0 0 0-.358.267.626.626 0 0 0-.073.586c.063.006.224-.11.376-.307.15-.2.261-.41.246-.542.223.018.44.065.642.147a.616.616 0 0 0-.405.136.92.92 0 0 0-.332.682c.09.057.258-.029.502-.18.233-.15.449-.338.502-.503.005.004.015.008.018.01.492.302.858.785 1.151 1.236.03-.024.062-.044.091-.064-.023-.036-.046-.073-.07-.108Z" clip-rule="evenodd"/><path fill="#006A44" fill-rule="evenodd" d="m35.23 60.929-.17-.035s0-.067.09-.22c.093-.153.328-.42.328-.42h.28c.167-.178.352-.335.564-.468l.016-.01.003-.006h.002c.005-.002.011-.002.014-.009.006-.003.012-.005.017-.012l.016-.005h.002c.005-.004.008-.006.014-.006-.035-.153-.017-.367.154-.657.192-.339.54-.566.756-.563-.047.19-.16.474-.375.746-.139.183-.26.292-.366.384.221-.1.463-.16.713-.184-.038-.116.024-.368.283-.552.265-.195.598-.217.788-.132.006.14-.187.31-.442.472-.166.102-.32.174-.448.207a2.37 2.37 0 0 1 .75.11l.02.003-.001.006h.004c.014-.13.162-.33.477-.403.32-.072.632.035.743.148-.047.13-.264.25-.557.301-.2.034-.38.037-.507.014.25.106.48.247.69.405.06-.12.26-.244.551-.25.308-.004.57.139.653.262-.068.115-.296.207-.59.203a1.317 1.317 0 0 1-.445-.081c.173.14.33.29.477.437l.027.03c.083-.101.308-.18.593-.124.3.062.526.253.58.396-.092.094-.334.136-.62.07a1.503 1.503 0 0 1-.36-.136c.067.072.132.15.199.23.157.044.35.226.53.476.214.3.292.66.273.815-.207-.021-.47-.23-.672-.516-.2-.278-.271-.568-.23-.719a4.064 4.064 0 0 0-.19-.221.89.89 0 0 1 .079.325c.01.284-.11.497-.217.57-.099-.064-.199-.265-.214-.538-.02-.257.043-.495.137-.583a1.532 1.532 0 0 0-.122-.116l-.012-.013.001-.006c-.084-.075-.18-.164-.284-.253.06.099.102.232.107.382.012.286-.107.5-.211.572-.105-.07-.203-.269-.218-.538-.018-.25.039-.476.127-.575a3.41 3.41 0 0 0-.516-.326c.07.08.13.188.155.314.064.273-.025.5-.116.589-.105-.041-.212-.204-.275-.451-.057-.223-.076-.447-.028-.569a15.74 15.74 0 0 0-.11-.038l-.012-.003a2.361 2.361 0 0 0-.614-.089c.12.035.262.123.358.267.16.228.12.473.073.586-.063.006-.224-.11-.376-.307-.148-.2-.263-.41-.246-.542a2.113 2.113 0 0 0-.642.147.61.61 0 0 1 .403.136c.256.208.331.51.329.682-.087.057-.252-.029-.498-.18-.23-.15-.449-.338-.503-.503a.073.073 0 0 1-.018.01c-.492.302-.858.785-1.15 1.236a1.414 1.414 0 0 0-.091-.064l.07-.108ZM36.526 58.544a.263.263 0 0 0-.263-.26.252.252 0 0 0-.167.062.274.274 0 0 0 .017-.1.261.261 0 1 0-.498.11.262.262 0 1 0-.182.45c.013 0 .025 0 .036-.002a.255.255 0 0 0-.133.227.26.26 0 0 0 .258.261.265.265 0 0 0 .26-.206.26.26 0 1 0 .382-.282.264.264 0 0 0 .29-.26Zm-.676.251a.117.117 0 1 1 0-.234.117.117 0 1 1 0 .234ZM33.836 64.422v.189h4.028v-.19l-1.99.007h-.05l-1.988-.006ZM30.825 66.151h.813v-.379h-.813v.38ZM32.83 66.826h.848v-1.524h-.848v1.524ZM30.825 65.145h2.854v-.223h-2.854v.223ZM31.796 66.826h.878v-1.524h-.878v1.524ZM30.825 65.615h.813v-.313h-.813v.313ZM34.108 64.263a.821.821 0 0 0 .09-.006v.007l1.651.005 1.649-.005.002-.007a1.385 1.385 0 0 0 1.318-.727h-1.016v-.614h-3.908v.614h-1.015c.236.445.703.733 1.23.733ZM40.059 65.615h.811v-.313h-.811v.313ZM38.02 65.145h2.85v-.223h-2.85v.223ZM39.025 66.826h.879v-1.524h-.879v1.524ZM40.059 66.151h.811v-.379h-.811v.38ZM36.36 66.826h.302v-.982h-.303v.982Z" clip-rule="evenodd"/><path fill="#006A44" fill-rule="evenodd" d="M30.702 64.763h2.976v-.403a1.553 1.553 0 0 1-.976-.83h-1.878v.383a1.122 1.122 0 0 1-.87.224c.177.281.439.503.748.628v-.002ZM38.02 66.826h.845v-1.524h-.846v1.524ZM30.825 66.826h.813v-.52h-.813v.52ZM40.059 66.826h.811v-.52h-.811v.52ZM41.57 64.151c-.263 0-.504-.088-.7-.238v-.383h-1.874a1.559 1.559 0 0 1-.977.83v.403h2.978v.002a1.59 1.59 0 0 0 .747-.628 1.111 1.111 0 0 1-.174.014ZM35.034 65.143h1.628v-.374h-1.628v.374ZM34.676 65.568c.075.073.18.118.285.118l.003-.002h.01v.002h1.75l.003-.002h.008l.001.002a.407.407 0 0 0 .286-.118.57.57 0 0 1-.313-.266h-1.721a.561.561 0 0 1-.312.266Z" clip-rule="evenodd"/><path fill="#006A44" fill-rule="evenodd" d="M33.836 66.826h1.043v-.988a.574.574 0 0 1-.409-.284l-.057-.107.12-.01a.395.395 0 0 0 .332-.245l.014-.03v-.393h-1.043v2.057ZM36.201 65.844h-.706v.982h.706v-.982ZM37.863 64.77H36.82v.391l.014.03a.394.394 0 0 0 .33.246l.12.01-.059.107a.564.564 0 0 1-.405.284v.988h1.043V64.77ZM35.034 66.826h.303v-.982h-.303v.982ZM34.687 61.514v.86h-.268v-.566a.821.821 0 0 1-.28.124v-.191a.646.646 0 0 0 .21-.093.377.377 0 0 0 .119-.134h.22ZM35.434 61.91a.113.113 0 0 1-.091.038.118.118 0 0 1-.09-.038.167.167 0 0 1-.036-.107c0-.049.014-.082.036-.104a.104.104 0 0 1 .086-.036c.036 0 .068.013.095.038.025.024.036.062.036.107 0 .044-.011.08-.036.102Zm-.38.386c.029.03.064.054.11.07a.556.556 0 0 0 .176.022c.129 0 .23-.035.301-.107.074-.07.109-.182.109-.334a.52.52 0 0 0-.05-.248.34.34 0 0 0-.139-.142.506.506 0 0 0-.23-.043.483.483 0 0 0-.197.036.27.27 0 0 0-.122.104.258.258 0 0 0-.045.154c0 .081.029.15.087.202.06.055.131.084.216.084a.293.293 0 0 0 .212-.085.564.564 0 0 1-.038.18.118.118 0 0 1-.099.054.122.122 0 0 1-.06-.019c-.018-.013-.027-.036-.035-.069l-.263.028a.273.273 0 0 0 .067.113ZM36.155 61.732a.096.096 0 0 1 .093-.062c.044 0 .078.02.097.058.022.04.032.114.032.226a.981.981 0 0 1-.012.169.165.165 0 0 1-.045.081.116.116 0 0 1-.07.025c-.04 0-.07-.02-.092-.061a.491.491 0 0 1-.033-.22c0-.105.011-.179.03-.216Zm-.274.398a.38.38 0 0 0 .054.125c.031.044.072.077.12.098a.51.51 0 0 0 .197.035c.142 0 .244-.035.301-.107.06-.07.089-.185.089-.337a.71.71 0 0 0-.027-.198.454.454 0 0 0-.037-.084.267.267 0 0 0-.061-.075.34.34 0 0 0-.1-.052.468.468 0 0 0-.159-.021c-.133 0-.231.032-.297.096-.066.066-.099.178-.099.337a.95.95 0 0 0 .019.182ZM37.527 62.374h-.796a.425.425 0 0 1 .084-.198c.044-.061.134-.133.259-.218a.709.709 0 0 0 .15-.115.12.12 0 0 0 .029-.076c0-.024-.008-.05-.03-.067-.02-.02-.047-.024-.08-.024-.035 0-.063.005-.083.026-.021.02-.035.052-.045.101l-.264-.018a.364.364 0 0 1 .058-.158.238.238 0 0 1 .116-.083c.05-.02.12-.03.21-.03.093 0 .166.008.217.028a.215.215 0 0 1 .122.085c.03.04.043.085.043.13 0 .053-.014.101-.05.15a.656.656 0 0 1-.184.153c-.055.034-.09.057-.107.07-.02.014-.039.03-.065.052h.416v.192ZM33.583 68.018h.409l.532.781v-.78h.41v1.414h-.41l-.53-.778v.778h-.411v-1.415ZM35.23 68.018h.408l.53.781v-.78h.412v1.414h-.411l-.528-.778v.778h-.411v-1.415ZM37.793 68.018h.436v.843a.717.717 0 0 1-.04.236.522.522 0 0 1-.297.311.89.89 0 0 1-.306.047 1.88 1.88 0 0 1-.224-.013.493.493 0 0 1-.354-.18.447.447 0 0 1-.094-.162.829.829 0 0 1-.04-.24v-.842h.434v.861c0 .078.023.138.065.182a.243.243 0 0 0 .178.063c.076 0 .136-.02.178-.062.044-.044.064-.104.064-.183v-.86Z" clip-rule="evenodd"/><path fill="#231F20" fill-rule="evenodd" d="M81.05 62.562v-.042h-.023v-.064h.023c0-.03-.02.01-.023-.02v-.213c-.02-.064-.056-.11-.065-.19h-.04v-.088c-.053-.013-.048-.02-.084-.04-.028.055-.058.07-.067.148-.063-.02-.127-.043-.189-.064l-.023.106h-.043l.043.297h-.022v.085h-.02v.043h-.022a10.15 10.15 0 0 0-.041.216h.02v.085a.176.176 0 0 0-.044.022v.102h-.02v.235c-.05.174-.057.407-.106.573-.008.096-.013.187-.023.28h-.02v.106h-.022v.064h-.021c-.007.027-.012.056-.02.084h-.022l-.02.085h-.023v.042c-.01.01-.028.014-.042.02v.044h-.022l.022.107h-.042c-.012.043 0 .018-.022.043l.022.063c.014.008.028.014.042.02v-.042a.62.62 0 0 1 .254 0c.005-.01.021-.08.023-.084h.021l.106-.128h.128l.021.043h.044l.02.04c.035.017.158-.012.17-.017.033-.026 0-.066.021-.109a.261.261 0 0 0 .044-.022v-.084c.044-.116.154-.294.107-.49-.008-.029-.025.01-.023-.022h.023l-.023-.022v-.021h.023v-.19h.02v-.17h-.02c-.02-.065.01-.158.02-.192v-.147h-.02c-.013-.051.016-.057.02-.086.013-.095-.056-.156-.043-.215h.023v-.064h.02v-.04h.021c.02-.076-.03-.06-.041-.087Zm-.682 1.725v-.042c.024.023.008 0 .021.042h-.021Zm.021-.13v-.04c.023.023.01 0 .02.04h-.02Zm.085-.383v.154h-.02v-.022c-.032-.037-.01-.124.02-.195h.02c.018.039-.011.054-.02.063Zm.553-.187c-.007.04-.015.082-.02.124h-.023c.01-.042.015-.084.023-.124h.02ZM49.752 58.69h1.982l2.58 3.794V58.69h1.997v6.866h-1.997l-2.566-3.774v3.774h-1.996v-6.866ZM57.744 58.69h1.982l2.58 3.794V58.69h1.996v6.866h-1.995L59.74 61.78v3.774h-1.996v-6.866ZM70.192 58.69h2.113v4.089c0 .406-.064.79-.19 1.149-.127.36-.325.676-.594.945-.27.27-.554.46-.85.568-.413.154-.907.23-1.485.23-.335 0-.7-.024-1.094-.07-.395-.048-.725-.14-.99-.279a2.483 2.483 0 0 1-.728-.592 2.158 2.158 0 0 1-.452-.79 4.097 4.097 0 0 1-.196-1.161v-4.09h2.111v4.184c0 .374.105.667.314.876.208.21.496.317.867.317.365 0 .654-.103.862-.311.208-.207.313-.502.313-.882v-4.184ZM77.229 62.206a.578.578 0 1 1-1.156 0 .578.578 0 0 1 1.156 0Z" clip-rule="evenodd"/><path fill="#231F20" fill-rule="evenodd" d="m86.24 61.372-.066-.04v-.023h-.043l-.039-.044v-.042a3.217 3.217 0 0 1-.108-.085v-.042h-.042v-.042c-.087-.012-.133-.053-.15-.128h-.021c.029-.056.057-.113.084-.17v-.129c-.012-.024-.081-.024-.106-.041a.323.323 0 0 0-.021-.044c-.06-.057-.106-.09-.126-.19h-.151c-.006.013-.014.027-.02.042h-.042c-.014.022-.03.042-.044.065h-.064v.02a.775.775 0 0 0-.064.022v.04c-.109-.001-.175-.011-.233-.062-.015-.02-.028-.043-.043-.063h-.234v.063h-.063v.063h-.065v-.02h-.277s-.044-.051-.062-.063v-.043c-.077-.02-.128-.068-.191-.087-.087-.028-.15.035-.193.044a1.393 1.393 0 0 0-.106-.021v.042c-.058.016-.055.025-.085.065h-.024v.062a3.107 3.107 0 0 0-.04.02v.045h-.022c-.005.02-.014.041-.021.064h-.044v.063a1.276 1.276 0 0 0-.102.022v.02c-.047.011-.066-.02-.066-.02-.07.007-.142.012-.213.02a.594.594 0 0 1 .084-.19c.022-.014.043-.03.066-.044v-.062h.02v-.043c.014-.01.029-.015.044-.022v-.065h.02v-.04h.021c.02-.03.018-.038.024-.085.046-.017.096-.028.146-.046v-.02h.192v-.021h.042v-.021c.085.007.172.015.257.02v.022h.148v.02h.085v.024a2.93 2.93 0 0 0 .169-.024c.01-.013.015-.026.024-.041.03-.009.16.041.232.021v-.021c.042-.014.07-.006.108-.021.01-.044-.006-.017.02-.044.003-.108-.02-.148-.106-.168v-.063h.043c.007-.064.015-.13.02-.194h-.02v-.041h-.023c.009-.044.015-.084.023-.13.043-.011.017.005.043-.02h.04c-.005-.02-.013-.042-.02-.064.003-.004.032-.02.043-.042a.384.384 0 0 1-.106-.127h-.213c-.03-.009.007-.02-.02-.021-.052.005-.102.012-.15.021v-.021h-.042l-.023-.044h-.042v-.02h-.17c-.01-.015-.015-.03-.022-.044-.073-.036-.144-.01-.213 0 .008-.045.042-.101.023-.169h-.023v-.042h-.021c-.01-.056.056-.09.084-.106 0-.054 0-.079-.021-.11h-.02v-.041h-.022c-.052-.059-.046-.053-.127-.084V58.5a.594.594 0 0 0-.063.023V58.5h-.13v-.02h-.043v-.022h-.04a.527.527 0 0 1-.023-.041h-.084v-.023h-.065v-.022c-.015-.009-.087-.043-.127-.019v.019c-.115.035-.023.029-.063.109-.002.004-.032.017-.042.041h-.043l-.02.084h-.044c-.029.122-.055.24-.086.363-.034.088-.082.141-.084.276.062-.007.057 0 .084-.041h.086v.02h-.021c-.013.052-.024.046-.042.084a7.206 7.206 0 0 1-.234-.023v.023h-.15v.022h-.064v.02h-.061v.022h-.128v.022h-.065v.023h-.043c-.008.012-.013.027-.022.04-.037.01-.07.014-.108.021v.043c-.019.009-.042.014-.06.02v.024l-.256.042a.26.26 0 0 1-.022-.042c-.156 0-.109.021-.15.126v.066h-.022a1.43 1.43 0 0 0-.042.064l-.063.02v.043h-.02c-.045.092.014.224-.023.34h-.02v.085h-.02a.056.056 0 0 0 .02.064c.046.206-.061.373.084.488.025.025 0 .01.042.02v.045c.088.019.137.044.257.042-.015.05-.018.052-.043.086h-.021v.106h-.022c-.034.052-.019.014-.066.042v.02h-.04c-.007.017-.016.03-.023.042h-.042v.022h-.042v.023h-.064v.023c-.029.005-.056.013-.086.018-.003.016-.013.028-.02.045h-.043v.019h-.062c-.122.056-.276.102-.405.15.015.055.028.047.043.106.044.006.085.015.128.021.013.06.027.048.04.106.045.013.019-.001.045.022h.02v.064c.113-.004.137-.014.19-.064a.546.546 0 0 0 .023-.043h.127c.055-.021.055-.055.148-.063v-.043h.023c-.009.137-.063.268-.065.425h.065v-.02c.02.008.04.013.065.02l.02-.042h.043l.022-.043h.063c.065-.031.075-.072.17-.083a4.647 4.647 0 0 0-.023-.194h-.019v-.02h.02v-.126c.106-.027.258-.055.364-.086a6.36 6.36 0 0 1 .189-.021v-.022h.043v-.02h.062v-.024h.044c.007-.014.015-.026.022-.042h.064v-.022c.029-.005.056-.013.083-.018v-.023h.067a.379.379 0 0 1 .021-.044l.105-.02c.013-.022.028-.043.044-.065.069-.014.14-.025.21-.042a4.43 4.43 0 0 1-.041.194h-.064c.017.022.025.018.041.04-.041.016-.083.028-.127.042v.023l-.084-.023v.023l-.084.02v.023h-.065v.02h-.042v.022h-.064v.021a1.164 1.164 0 0 0-.13.044v.02h-.04l-.065.084h-.042a1.57 1.57 0 0 0-.02.042c-.042.026-.13.022-.173.043-.005.015-.013.027-.02.043h-.042c-.013.022-.028.04-.043.064h-.042l-.022.044h-.042v.018h-.063l-.022.044h-.064v.021h-.042v.023h-.064c-.008.013-.015.028-.021.041h-.043v.02c-.066.04-.125.023-.172.086h-.02l.02.066c-.099.01-.122.066-.189.103l-.044.45h.021c.016.044.029.085.043.127.098.002.118.031.212 0v-.022h.108v-.02a.883.883 0 0 1 .085-.023l.02-.04h.044V62.8c.057.005.113.013.168.022v.04h-.019l-.15.17h-.105c-.009.014-.015.03-.022.042-.028.01-.056.016-.084.022a.809.809 0 0 1-.025.064.517.517 0 0 1-.063.042v.043c-.14.036-.213.36-.212.552-.042.016-.017-.001-.042.023-.021.008-.043.014-.063.02.016.06.004.049.063.067.01.088.047.094.065.17.096-.008.113-.032.17-.063h.042c.006-.019.014-.03.02-.044.02-.008.045-.014.065-.022v-.04h.021v-.045h.022v-.022h.022c.021.043-.022.063-.022.088h.022v.085c.024.016.002-.005.021.02.273-.019.384-.193.593-.28a.14.14 0 0 0 .024.043h-.024v.173h-.019c-.013-.035-.018-.036-.02-.086h-.022c.003.098.005.09.042.15h.019v.17h.024v.147h-.024c-.006.059.046.15.024.235a1.516 1.516 0 0 0-.063.425 3.222 3.222 0 0 1-.065.02c0 .168.018.346.128.408v.02c.028-.01.056-.015.084-.02.007.01.016.025.02.041.013-.01.03-.016.043-.022.003.003-.002.04.022.022v-.041c.015-.022.03-.017.043-.045.083.021.068.048.106.106.01.014.027.014.043.042.05-.005.052-.008.083-.02v-.107c.05.014.05.022.088.043v.022c.025-.01.057-.016.084-.022v.022h.106v.02h.022v-.02h.063v-.022h-.021a.22.22 0 0 0 .021-.106h.084a.605.605 0 0 0 .022-.043h.044l.02-.213h-.02v-.042h-.023a4.929 4.929 0 0 0-.021-.128h-.022a.65.65 0 0 0 .022-.064h-.022v-.043h-.02l.02-.065v-.019h-.02v-.043a.979.979 0 0 1 .063-.042v-.319h-.021v-.085h-.022v-.106h-.02l.02-.063s-.025-.004-.02-.044h.02l-.02-.149h.02c.015-.064.03-.13.043-.194h.023v-.04h.02c.008-.043.014-.086.02-.128h.024v-.147l.02-.024c.069-.012.122-.047.172-.064.121-.039.311.015.38.042h.065l.042.066a.787.787 0 0 0 .064.019v.023c.022-.002.045-.042.086-.023v.023c.09 0 .129-.012.171-.062h.02a.827.827 0 0 1-.02-.088h.02l.022-.062h.021c.009-.04-.011-.03-.021-.044.016-.147.089-.087.15-.167h.02c-.008-.032-.018-.06-.02-.087h.02v-.083h-.043c-.022-.206-.138-.119-.254-.194a.366.366 0 0 1-.022-.044h-.043c-.03-.035-.056-.068-.085-.105-.037-.007-.073-.013-.107-.023v-.02h-.041c-.01-.015-.016-.028-.024-.043h-.063c-.01-.011-.015-.025-.021-.043-.027.008-.056.018-.085.021.007.044.016.085.021.128h.022c-.076.08-.17.006-.275.042v.025c-.064.012-.127.027-.192.04-.003-.007-.02-.185-.023-.191l-.064-.044v-.043c-.014-.004-.028-.012-.043-.02v-.042h-.02v-.02h.063l.023-.044h.084v-.022h.062v-.021c.03-.008.056-.012.085-.021v-.02h.065v-.022h.043v-.022c.078-.012.156-.025.234-.042v-.043l.108-.021v-.021h.02c.015-.036-.02-.039-.02-.041v-.108h-.024c-.013-.043-.028-.086-.04-.128h-.023c-.037-.097.008-.127.023-.19-.044-.014-.02.003-.044-.021h-.02a.167.167 0 0 1 .064-.108v-.022h.105c-.035-.06-.082-.056-.021-.106-.022-.026-.044-.03-.065-.064-.14 0-.215.008-.278.084h-.062c.067-.12.19-.181.256-.296.187-.009.326-.077.467-.128.073-.006.142-.015.214-.02v-.023c.068-.02.3.003.34.022l.022.042h.106v.02h.022c-.008.014-.016.031-.022.045h.022a9.187 9.187 0 0 0-.022.19h.022v.128h.02v.042h.021c-.041.185-.087.37-.126.555.006.14.012.283.02.425h.019v.062h.024v.086h.022v.275h-.022v.256h-.024c.01.093.018.187.024.28h.022v.061h.02v.17c.042.147-.046.34 0 .513h.021a.326.326 0 0 1-.021.148h-.02v.022l-.129.019v.023c-.062.025-.331.091-.426.064v-.023h-.104c-.01-.014-.015-.028-.023-.041-.022-.007-.042-.016-.062-.023v-.019h-.086v.019l-.086-.019c-.017.065-.023.019 0 .083h-.041c.018.101.041.201.063.3h-.022l-.023.127h.045c-.047.036.023.09.042.125.034.009.072.016.108.024v.02c.101.035.297-.01.402.022h.127l.024.043h.04v.02c.066.008.13.016.192.022v.021h.064a.24.24 0 0 0 .024.042c.082.04.24-.007.316-.02v-.043c.03-.006.057-.014.085-.021l.043-.064c.034-.011.04.021.043.021.103.02.252 0 .297-.043h.023l-.044-.107.108-.083v-.043h.02c.037-.059-.02-.04.066-.062-.01-.236-.015-.47-.023-.704-.015-.051-.075-.16-.043-.256h.021c.007-.03.016-.057.022-.084h.023v-.15h.019v-.043h.02v-.318c-.011-.05-.026-.1-.039-.147h-.023c-.006-.044-.015-.085-.022-.132h-.021l.021-.443h.022v-.087c.013-.006.027-.014.042-.02v-.065c.015-.004.028-.013.043-.021.008-.027.014-.057.02-.085.016-.008.03-.014.044-.023v-.04h.022v-.086c.012-.007.026-.016.04-.022v-.34c-.04-.037-.018-.05-.04-.085Zm-4.128-.34h-.147c-.016-.043-.03-.086-.044-.127l.127-.044.022-.042c.026-.006.057-.013.085-.022v-.042c.058-.011.08-.02.108-.064h.02c-.018.149-.112.237-.171.34Zm-.403 2.787h-.022c.02-.037.03-.034.043-.087h.021c.015.041-.032.063-.042.087Zm.339-.976h.043V62.8h.02c-.012.044.005.017-.02.044v.018h-.043v-.018Zm.235.06h-.042l-.024.042h-.084v.023h-.042c.013-.032.015-.038.02-.084.07-.032.116-.07.19-.085 0 .046.007.083-.018.105Zm.274 1.85h.023v-.062h-.023v.062Zm.513-3.252h-.063v-.021a.508.508 0 0 1 .063-.022v.043Zm2.446 2.744v-.087h-.022v-.04h-.02a.398.398 0 0 1 0-.212c.012.005.026.013.042.022l.02.317h-.02ZM126.935 60.352c.015-.008.029-.014.044-.023v-.04c-.05-.059-.099-.113-.15-.172a.558.558 0 0 1-.061-.021v-.044c-.035-.019-.073-.044-.107-.063v-.043a.149.149 0 0 1-.043-.021v-.04c-.052-.039-.1-.074-.15-.108-.084.008-.17.015-.257.02l-.02.044h-.105c-.009.01-.015.029-.022.043h-.256v-.023h-.041v-.02h-.065v-.02c-.049-.01-.1-.016-.148-.024v-.02c-.133-.042-.327.019-.405.044h-.191v.02c-.071.005-.142.01-.214.02-.009.023-.014.044-.02.064-.065-.005-.128-.013-.193-.02-.043.01-.108.037-.17.041v-.04h.023c.018-.026-.004-.006.021-.022h.021c.005-.014.015-.032.02-.043h.042l.086-.106h.043l.084-.108h.043a.5.5 0 0 0 .022-.041h.042v-.02h.042v-.024h.044l.041-.04h.044c.014-.024.026-.045.042-.065h.063v-.02a.373.373 0 0 1 .215.061c.002.015.014.03.02.043h.042c.006.014.015.029.023.044h.041v.021h.129v-.02c.021-.01.041-.016.063-.024.007-.02.016-.04.019-.064h-.019v-.041h.042c.007-.043.013-.086.022-.129h.041c.008-.033.013-.07.023-.105.056-.016.075-.042.127-.065 0-.067.008-.11.022-.146-.086-.053-.119-.193-.192-.235-.059-.038-.024.028-.085-.045h-.022v-.065c-.02-.012-.041-.024-.065-.041v-.023h-.062v-.02h-.064v-.019c-.109-.033-.257.088-.405.04-.071-.022-.116-.074-.213-.084.003.07.008.095.043.129v.04a.495.495 0 0 1-.063-.04v.018h-.022v.023l.064.023s-.004.082-.022.041v-.023h-.02v.046c.059.015.062.036.105.063v.023c-.093-.016-.104-.047-.232-.045.009.068.016.06.043.107-.027-.019-.004.003-.023-.02 0 0-.081 0-.042.02h.022c-.024.063.002.023-.065.019v.02c.022.011.043.016.065.025l.02.042h.023v.063h.019v.13h-.019c-.014.041.001.015-.023.041v-.041h-.042v-.022c.017-.008.028-.017.042-.021v-.023a.27.27 0 0 0-.128.086h-.022c.032-.05.077-.06.108-.106h.042v-.044l-.063.022v.022h-.042c-.009.012-.015.028-.023.043h-.043a.876.876 0 0 1-.042.063h-.041a.193.193 0 0 0-.021.043h-.044l-.02.041c-.092.05-.186.102-.276.149l-.023-.02v-.107h-.022v-.063h-.02v-.064h-.019v-.17c-.061-.041-.116-.088-.174-.128v-.062c-.037-.094-.021-.12-.105-.173v-.023c-.022.018-.042.031-.064.046-.006-.023-.015-.046-.019-.064h-.024v.04h-.085v-.04h-.042c.014.056.02.061.063.083v.022h-.043c-.006-.013-.012-.028-.02-.04-.036.004-.071.012-.108.017a.682.682 0 0 1-.02.087c-.049-.014-.039-.005-.065-.04-.048.003-.055.003-.083.018v.022h-.043v.021a6.023 6.023 0 0 0-.128.024v.02h-.043a.237.237 0 0 0-.019.042c-.029.006-.059.015-.087.019-.007.017-.015.031-.022.045h-.043c-.005.014-.012.028-.019.042h-.041c-.01.013-.016.027-.024.044-.029.023-.062.033-.085.063l-.233-.044c-.006-.096-.032-.088-.064-.15-.151.003-.165.059-.255.108-.01.036-.016.071-.022.106h-.065c-.01.08-.025.058-.041.129-.022.008-.043.013-.064.018v.045a2.84 2.84 0 0 0-.087.064c-.008.029-.012.057-.02.084h-.022l-.042.257h-.02v.042h-.019v.064a.176.176 0 0 0-.046.02v.085h-.02v.062h-.022v.044h-.023v.065h-.019v.15h.019l.023.212h.022v.042h.02v.065c.015.007.029.014.046.02v.064h.019c.02.046.016.082.02.15-.127.029-.2.115-.339.126a2.77 2.77 0 0 1-.042-.127h-.043c.006-.022.014-.041.019-.064h-.019c-.017-.072.035-.087.043-.17-.067.008-.067.015-.107.042v.023h-.087l-.107.128v.041c-.027.021-.057.042-.083.063v.044a.531.531 0 0 0-.044.02v.043h-.019v.043l-.044.042v.042c-.036.054-.083.039-.105.128h-.042c-.008.02-.017.042-.024.065-.043.029-.087.057-.127.086v.063h-.019v.15h-.023v.083h-.022v.213h-.02v.04h-.022v.066h-.022l.022.17c.004.197.004.412.022.573.022.02.002-.002.02.024.022.004.045.015.064.022.001-.002.007-.032.04-.022v.022h.044v.022c.078.012.158.026.234.04.008-.014.014-.028.024-.04.063.012.127.026.191.04v-.018h.062v-.022c.023-.009.042-.017.066-.022l.128-.62h.018v-.062h.024v-.043h.021l.021-.085h.02c.051-.112.018-.41-.02-.509a.127.127 0 0 0 .063-.066h.044c.031-.124.102-.092.19-.15a.163.163 0 0 0 .021-.041l.087-.02c.005-.015.014-.029.019-.043h.044l.042-.044h.042a.196.196 0 0 0 .021-.042c.021-.006.044-.016.065-.02v-.022h.042l.043-.043h.041v-.021h.045v-.022h.04l.024-.041c.033-.01.07-.014.106-.023l.021-.042h.065v-.02h.062l.021-.042h.064v-.023h.043v-.02h.066c.004-.016.013-.03.019-.044h.064v-.02h.042v-.02h.087v-.024h.146v-.021l.215-.02v-.02h.148v-.024h.127v-.02h.107v-.02c.063-.01.129-.017.193-.023v-.02l.253-.023v-.02h.063v-.022h.064v-.02h.086v-.023h.065v-.022h.104v-.02h.087v-.02h.105v-.021h.193v-.023c.051-.008.099-.015.148-.02v-.021c.03-.009.055-.017.085-.022v-.024h.064c.009-.013.014-.026.021-.041.143.005.285.015.424.021v.107h-.019c-.015.053-.012.034-.042.064v.02h-.045v.023h-.062l-.043.064h-.041a.226.226 0 0 0-.023.043h-.042c-.006.013-.018.026-.02.042h-.045c-.036.04-.071.085-.105.126h-.065v.128c.013.008.031.013.043.023.04.067.015.103.107.127.008.02.013.041.02.063h.084c.017.054.023.06.066.086v.02c.036-.006.073-.016.105-.02v.062c.051.007.079.022.15 0v-.02h.086a.186.186 0 0 1 .022-.042h.041c.027-.036.057-.071.086-.108h.424v-.02h.17c.021-.031.043-.056.064-.086.019-.005.109.053.128.065v.02c.038-.006.072-.013.106-.02.015-.057.007-.048.065-.065v-.062c.081-.012.061-.029.128-.043.006-.044.014-.085.021-.13-.013-.046-.103-.164-.065-.253Zm-5.106.658h-.043v.044a.518.518 0 0 0-.234.148h-.084v-.022h-.022a.48.48 0 0 1 .106-.17h.045a.32.32 0 0 0 .02-.042c.038-.025.046 0 .085-.042h.064v.02h-.043v.043c.021.02.021-.021.021-.021h.085v.041Zm1.618-2.19c.042.015.084.027.127.043-.004.048-.018.142-.043.17-.023.024.004.008-.042.022-.01-.032-.013-.198-.022-.212h-.02v-.024Zm-.406.104c-.041-.013-.018.005-.041-.019.041.012.02-.003.041.019Zm-.212.087a.25.25 0 0 0 .128-.087h.023c.006.017-.08.063-.108.108h-.043v-.021Zm.936.85c-.05.035-.097.074-.148.106h-.043v.022h.065v.044h-.32v.02h-.065v.02a.682.682 0 0 1-.083.023v.02h-.043v.022c-.036.007-.071.015-.106.02v.024c-.022.005-.042.013-.065.022a.275.275 0 0 0-.019.04 1.048 1.048 0 0 0-.087.024v.02h-.042v.021h-.042v.02h-.041v.023h-.066c-.009.013-.014.027-.023.042-.028.007-.056.013-.084.022l.021-.087h.043c.002-.124.037-.223.065-.32v-.232h.02v-.235h.024v-.02h-.024v-.085c-.005-.031-.024.008-.02-.02h.02v-.045h.024v-.087a.546.546 0 0 1 .421-.293v.063h.044v.275c-.012.047-.065.155-.044.235h.024v.083h.02v.11h.023c.03.1.019.02.085.063.012.02.028.04.04.063.037 0 .15.021.15.021.008-.014.014-.028.021-.044h.043v-.02l.064-.02v.04h.064v-.02h.084v.02Zm.489-.444c-.054.01-.099.027-.127.061h-.04v-.021a.207.207 0 0 0 .124-.063h.043v.023ZM107.235 60.67v.043c.09-.017.098-.008.192 0-.009-.03-.014-.056-.02-.086.035-.006.071-.012.105-.021v.021h.044v.023h.084v.02c.043.014.075.009.108.021.019-.047.033-.105.063-.15.037-.052.083-.034.107-.125.028-.008.147-.03.167-.042l.045-.065h.042v-.02h.043v-.021c.056-.009.113-.017.17-.023v-.02h.042v-.021h.341c.013-.046-.001-.019.019-.046.059-.055.105-.016.195-.041v-.021c.04.007.082.015.127.02v-.02c.111.007.225.015.338.02v-.044c.023-.002.043-.01.065-.02v-.127h-.042c.007-.047.004-.055.02-.084h.022c.025-.063-.03-.116-.042-.15h.042c.013-.05.021-.078.021-.15h-.043v-.063c-.067-.027-.094-.043-.191-.061v-.023c-.03-.007.01.016-.021.023-.058.01-.214.01-.234-.023v-.064h-.022v.042a3.19 3.19 0 0 1-.146-.021c.005-.07.01-.142.018-.213h-.018v-.063h-.024v-.13h-.02v-.04h-.022v-.042c-.034-.028-.07-.056-.104-.087a1.507 1.507 0 0 1-.044-.129h-.022l-.085-.103c-.037.006-.071.014-.105.019v.042h-.065c-.005.018-.014.03-.02.042h-.044c-.021.031-.043.06-.063.087-.014.01-.029.015-.043.023v.04h-.02c-.041.049-.092.079-.11.148-.039.015-.016-.001-.039.024h-.023v-.064h-.021c-.008.05-.013.098-.022.15-.122.032-.118.116-.169.212h-.021v.041h-.021v.043h-.021v.066a1.044 1.044 0 0 0-.045.02c-.041.128-.085.254-.125.384-.055.01-.146.042-.192 0 0 0-.084.004-.042.02h.019v.02h-.168a.52.52 0 0 1-.022-.064.178.178 0 0 1-.042-.02v-.086h-.065v-.043c-.109-.019-.25-.044-.297-.127v-.064a.469.469 0 0 1-.043-.02v-.065h-.022c-.043-.05-.086-.097-.129-.148h-.062v-.02h-.126c-.086.092-.224.1-.258.253h-.043c-.017.01-.12.18-.127.213-.029.032-.041.208-.041.276h-.044a.59.59 0 0 1-.022.062l-.126.025v-.025c-.043-.004-.084-.014-.127-.019-.015.02-.03.044-.043.063a.245.245 0 0 1-.065.02.245.245 0 0 1-.02.044c-.029.015-.046-.02-.046-.02-.013.007-.026.015-.039.02a.447.447 0 0 1-.022-.064c-.057-.013-.048-.027-.106-.044a1.238 1.238 0 0 1-.022.088h-.023c0 .02.047.06.023.108h-.023c-.015.056-.004.047-.063.064-.018.087-.103.479-.062.529.015.06.006.05.062.064.014.044-.002.02.024.044v.02h.124c.01.014.015.03.023.043h.15c.019-.009.016-.064.105-.042v.02h.087l.02.043h.235v-.021h.041v-.022h.127v-.02c.086.019.126.073.171.128h.021v.042l.065.02c.015.022.029.044.044.064l.146-.02c.015-.05.009-.04.042-.064.026-.024 0-.01.043-.022.026.026 0 .009.043.022.016-.054.011-.038.043-.064v-.022h.041c.009-.01.015-.027.024-.042a.822.822 0 0 0 .063.021v-.021h.043c.011-.006.016-.03.043-.042l.041-.425h.023a.572.572 0 0 1 .02-.085h.021v-.087l.108-.084v-.041h.02v-.046c.009-.011.029-.014.044-.041h.063v-.045h.063c-.012.075-.035.132-.106.153.025.022 0 .008.043.02v.129h-.023c-.008.017-.068.109-.062.127h.022v.02a.553.553 0 0 0-.044-.02v.04c.022.01.044.014.064.024a5.294 5.294 0 0 0-.02.105h.04ZM94.853 59.925l-.148-.128c-.038-.04-.032-.094-.084-.127v-.022h-.043v.022h-.191s-.02.032-.066.021v-.021h-.062c-.007-.022-.013-.043-.022-.063-.013-.008-.027-.013-.04-.021a1.642 1.642 0 0 1-.065-.084h-.044c-.031-.023-.108-.076-.128-.108h-.21v.023c-.031.006-.06.012-.087.02v-.02h-.213v-.023h-.126v-.022a.936.936 0 0 1-.086-.021v-.02h-.086v-.023c-.1-.032-.21.035-.296.043v.043c-.09.018-.097.01-.193 0-.011.041.004.02-.022.043-.017.024.004.001-.02.02v-.04h-.042v-.023h.062v-.022c-.048.006-.099.015-.147.022v.023c-.013-.004-.087.01-.065-.023h.022v-.022a8.142 8.142 0 0 1-.235-.021c-.016-.066-.048-.076-.063-.148h-.044l-.019-.065a2.404 2.404 0 0 1-.066-.042v-.041c-.026-.036-.174-.095-.232-.11-.05-.03-.103.028-.172.047v-.023c-.02-.018-.088-.018-.106-.045v-.06h-.02v-.045h-.022v-.043h-.021a.32.32 0 0 0-.023-.042.892.892 0 0 1-.063-.023v-.018c-.187 0-.15.041-.255.105v.107c-.052.015-.046.019-.083.04l-.067.34h.021v.045h.023v.087c.027.073.073.133.086.23h-.063v.023c-.053.014-.05.023-.087.042v.109a.481.481 0 0 0-.233.125h-.024v.02c.062-.005.08-.005.108-.041h.044c-.007.021-.018.042-.021.064-.037.005-.071.015-.107.02v.024h-.063c-.024.028-.044.056-.064.084-.023.005-.046.015-.065.021v.044h-.023c.009-.066.004-.06.042-.086v-.024h-.105s.004.085.022.044v-.02h.022v.042c-.056.015-.062.02-.087.066-.07-.004-.095-.017-.146-.022-.01.048-.017.1-.023.147-.024.02-.004-.004-.02.023-.046-.004-.144-.045-.151-.043v.02c-.042.009-.084.015-.127.023v.022c-.071.005-.14.012-.213.02v.022h-.042v.02H89.6v.023h-.065a2.52 2.52 0 0 0-.02.042h-.044v.02h-.04v.02h-.064v.024h-.065v.02h-.043v.02c-.117.052-.235.036-.36.022.001-.123.045-.189.126-.233v-.02h-.106v.02c-.06.016-.124-.032-.149-.02v.02h-.108l-.082.107h-.022l-.023.085h-.02v.064l-.043.02c-.006.035-.012.072-.02.108l-.043.019v.043h-.022v.106h-.022c-.03.105.013.274-.02.319-.001.212.038.199.107.322.09-.007.145-.07.233-.044v.021h.063v.023h.298s.019.032.064.02v-.02h.149v-.023h.064v-.02h.044v-.022h.065V61.5h.038v-.021c.065-.016.13-.028.194-.043v-.023c.03-.004.058-.014.083-.02v-.022h.045v-.022h.063l.022-.041h.063c.007-.015.016-.028.022-.044a.828.828 0 0 0 .084-.02l.043-.065c.079-.025.156-.056.233-.084l.022-.042h.042a.315.315 0 0 0 .022-.044c.043-.01.084-.027.126-.042.008-.012.016-.029.023-.042a.65.65 0 0 0 .063-.021v-.023c.044-.012.087-.025.129-.042v-.02a.541.541 0 0 0 .065-.023c.003-.013.014-.03.021-.042h.04l.065-.085h.041v-.02c.032-.009.057-.013.088-.023v-.021h.063v-.02h.084v-.02h.086v-.024h.063v-.02h.063v-.02c.052-.01.102-.017.15-.023v-.02l.087-.023v-.02h.042v-.022c.04-.008.085-.015.126-.02v-.023c.029-.007.057-.013.086-.022v-.02c.05-.008.1-.014.149-.02v-.021c.028-.009.058-.017.085-.023v-.02c.041-.008.089-.015.126-.021v-.022h.107v-.024h.065v-.02c.028-.006.057-.016.084-.021v-.021c.085-.036.191-.005.298-.024v-.02c.165.02.328.044.491.065v.021h.04v.02h.064v.024h.065v.022h.042v.02c.053.04.058.055.15.065v.02c-.05.021-.1.04-.13.085h-.042c.049.048.321.1.447.065v-.023c.037-.008.07-.014.108-.02a.173.173 0 0 1 .02.043h.044c.015.02.029.042.041.062h.043c.02.03.043.058.064.085h.063v.021c.13.054.194.035.32.023v-.044h.042c-.002-.047-.02-.072-.02-.085h.02c.017-.06.038-.06.065-.105h.043v-.042h.02c.027-.036.05-.083.086-.106v-.26c-.023-.014-.044-.025-.066-.041v-.042Z" clip-rule="evenodd"/><path fill="#231F20" fill-rule="evenodd" d="M123.299 58.693v.019h-.021v.022h.041c-.015-.04.004-.018-.02-.04ZM102.79 59.182c-.107-.052-.212-.1-.319-.15h-.064l-.022-.04c-.058-.056-.075-.068-.085-.173h-.065v.024h-.021l-.02.062h.02v.04c-.089.01-.184.015-.277.024v-.024h-.084v-.021a.24.24 0 0 1-.064.02s-.009-.024-.042-.02v.02h-.085c-.029.011.009.02-.022.025v-.024h-.023v.024h-.167v.023h-.108v.019h-.021v-.02h-.106v-.046a7.782 7.782 0 0 1-.362-.021v.02h-.083v.025h-.131v.023h-.041c-.014.019-.028.04-.042.063-.043.003-.087.013-.127.02v.02l-.087.023-.019.043h-.066c-.005.013-.013.026-.021.042a4.098 4.098 0 0 0-.17.02v-.02c-.133-.036-.344.072-.425 0-.185.003-.117.054-.19.148-.038.021-.07.043-.107.066v.04c-.03.021-.059.045-.086.064v.065h-.02l-.022.04h-.064c-.007.022-.013.044-.023.065a.279.279 0 0 1-.039.021v.045c-.043.04-.067.365-.066.468.027.02.069.073.087.104h.233c.04-.013.107-.07.19-.04v.02h.043v.02c.092.033.35-.008.384-.04h.019c-.005.084-.014.17-.02.253h-.022c-.005.037.02.037.023.044v.127a.798.798 0 0 1 .082.022c.015.043-.001.017.023.043v.104c-.105.057-.213.117-.32.172v.042a3.295 3.295 0 0 0-.083.02c.02-.105.126-.325.19-.38v-.066h-.021l-.02.085h-.044c.03-.03-.004-.09.021-.128h.022v-.062c-.085.05-.172.117-.296.127-.016.052-.007.038-.045.063v.023s-.114-.02-.146-.023c-.005.055-.002.074-.023.106h-.022v.044h-.021v.063h-.02v.064c-.022.014-.045.026-.064.042v.086h-.022v.063h-.023v.063h-.018v.046h-.02v.04c-.031.016-.061.028-.089.042-.007.044-.012.087-.021.13h-.02v.297h-.02v.127h-.025v.127h-.019v.215h-.022v.082h-.021v.085h-.02v.15h-.022v.126h-.02v.024h.02v.044l.042.04h.043v.023c.043.024.047 0 .084.042h.085a.467.467 0 0 1 .024-.065c.02-.014.04-.028.062-.04V62.8h.041c.01-.022.017-.046.023-.063h.021v-.023h.02v.064c.072-.007.05-.03.087.022.124-.018.108-.072.149-.172h.022v-.065h.02v-.084h.022v-.212h-.023c.01-.086.014-.171.023-.256h.02c.007-.029.016-.056.022-.083.014-.01.028-.014.042-.023v-.044c.014-.006.028-.015.042-.02l.021-.085a.883.883 0 0 0 .042-.022v-.042l.065-.042v-.041c.027-.039.077-.056.107-.107h.043v-.043a.184.184 0 0 0 .105-.063h.023a.48.48 0 0 1-.046.212h-.018v.063h-.021c-.009.043-.015.085-.024.127h.024v.17h.021c.006.03.015.059.018.086h.023c.007.127.014.257.023.383h.02v.064h.021v.105h.021c.027.088-.015.196-.021.257v.211h-.021v.107h-.02v.064h-.023v.042h-.023v.127c-.018.063-.085.069 0 .15v.126c.017-.002.03-.013.046-.02-.012.076-.029.111 0 .193h.02l.021.383h.021v.063h.022v.084h.022c.01.065-.034.043-.044.065v.021h.022c.011.12-.013.227-.022.32h.044v.02h-.065v.066h.021l-.021.062c-.132-.003-.223-.042-.34-.063.008.07.014.142.021.212-.005.017-.05.01-.043.042.008.03.017-.007.021.022h-.043v.043h-.041v.044a.506.506 0 0 1 .063.02l.064.106h.086c.009.015.013.03.02.042h.042v.024c.049.016.113-.01.15.02.029.021 0 .047.021.083h.022l.063.086c.045-.007.087-.016.129-.02.014-.021.027-.044.043-.066.035-.005.071-.014.105-.02V65.5h.043v-.02c.062-.013.051.037.062.043a2.19 2.19 0 0 1 .128-.023s.003.082.024.042v-.02h.083V65.5c.03.006.059.014.085.023l.087-.13h.04c.009-.032.016-.07.022-.105.095.027.075.08.171.106-.019-.067-.052-.106-.086-.17h-.019v-.128a1.293 1.293 0 0 1-.066-.042c-.034-.074-.002-.142.043-.17a.266.266 0 0 0-.085-.064v-.128h.02v-.063h-.02a.499.499 0 0 0 .02-.064c-.001-.03-.012.008-.02-.023v-.148h.02a.8.8 0 0 0-.02-.085c-.003-.049.02-.097.02-.105h-.02v-.064h-.02v-.126h-.023v-.066h-.02c-.007-.035.02-.039.02-.04.011-.057-.022-.09-.02-.111h.02v-.17c-.005-.047-.042-.1-.02-.17h.02l.023-.147h.02v-.044h.02v-.085h.022v-.062h.021v-.045h.022v-.06h.023v-.045h.019v-.169c.016-.048.074-.124.043-.212h-.02v-.067h-.023a1.178 1.178 0 0 1-.019-.084h-.023v-.065h-.022a.994.994 0 0 0-.021-.06.215.215 0 0 0-.042-.024v-.277h-.02v-.083h-.023v-.086h-.02c-.034-.114.035-.4.063-.47h.02v-.04h.022v-.087h.021v-.064h.022c.026-.077-.003-.18.042-.234.044-.033.179.02.213.064.098.097-.025.244.021.404h.022v.173c.031.099.066.172.065.317a.484.484 0 0 1-.215-.107c-.041.006-.083.015-.125.022-.021.023.002.003-.023.022.007.104.035.134.085.192l.043.02v.064a.318.318 0 0 1-.128-.022c-.004.018-.024.071 0 .106h.023v.191c.012.01.028.016.042.022l.042.063h.084v.023h.064v.02h.043v.02h.065v.022h.062v.025h.043v.018h.149c.121-.036.189-.16.297-.043.219-.01.142-.21.277-.296-.004-.098-.011-.105-.043-.171h-.02c-.007-.127-.014-.254-.023-.382-.004-.028-.034-.037-.021-.083h.021v-.043h.023c.027-.063.026-.104.042-.173h.021c-.005-.014-.013-.026-.021-.042v-.086h-.022c-.044-.153.087-.436.152-.49-.009-.066-.046-.159-.086-.19h-.044c-.007-.013-.013-.027-.022-.04h-.043c-.012-.024-.027-.045-.041-.065h-.043c-.026-.038-.058-.073-.086-.107h-.063v-.02c-.149.005-.298.012-.447.02v-.02h-.105c-.007 0-.007.027-.044.02v-.02a38.708 38.708 0 0 0-.553-.023c-.017-.024.004-.003-.021-.022l.021-.147h-.021c-.005-.1-.014-.199-.019-.298.051-.014.118-.038.169-.063v-.024h.063a.586.586 0 0 0 .042-.062c.043-.016.085-.028.128-.044v-.021c.048.008.099.014.15.021v-.043h.041v.064h.256v.023h.085v.022l.127-.022v.022c.029.004.057.013.086.02v.044c.054.013.117.089.191.063.006-.014.013-.032.022-.043.056.005.114.01.171.02v-.02c.09-.026.183-.014.234.043.067-.015.094-.057.148-.087a3.11 3.11 0 0 1 .02-.106l-.042-.021c-.034-.09.044-.137 0-.192.005-.1.042-.135.106-.17v-.084h-.02v-.042Zm-2.172 4.571v-.042c.026.027.01 0 .021.042h-.021Zm0-.211h-.02v-.087c-.028-.08-.005-.127 0-.23h.041a6.935 6.935 0 0 1-.021.317Zm.044.597h.022v-.087h-.022v.087Zm.044.659v-.087h-.022v-.042h-.022c-.028-.079.04-.176.044-.212l-.022-.022v-.02h.022l-.044-.257h.044c.005.192.022.42.02.64h-.02Zm.552-5.553c-.021.006-.043.016-.063.022-.023-.026 0-.01-.042-.022v.04h-.023l-.022-.04c-.034.006-.043.066-.106.04v-.018c-.046-.029-.084-.073-.149-.022h-.107v-.021c.077-.037.101-.06.192-.02.052.02.025-.022.064.02h.256v.021Zm.192 0c-.044.012-.019-.004-.044.022h-.105v-.022c.065-.016.074-.036.149-.041v.041ZM98.727 61.138h-.02v-.064h-.024v-.042h-.02c-.028-.088.053-.1.064-.192h.085a4.12 4.12 0 0 1-.041-.19h.041c-.007-.03-.015-.057-.02-.085-.017-.01-.03-.014-.043-.023-.009-.04-.015-.083-.022-.126h-.02c-.033-.105.037-.165.064-.212v-.046l.041-.02c.007-.056.013-.113.022-.171h.02v-.042h.022v-.148c.015-.007.027-.016.04-.02l-.019-.066h-.022v-.064c-.014-.006-.026-.014-.041-.02-.031-.077.037-.095.041-.105.025-.064.002-.2 0-.257-.016-.007-.073-.016-.083-.021a.273.273 0 0 1-.021-.042h-.044v-.021c-.073-.032-.115-.003-.17-.066h-.065l-.02.043-.085.066v.041c-.016.006-.028.016-.043.022-.005.027-.014.055-.023.084H98.3v.043h-.02c-.014.023-.027.043-.042.063h-.044a.366.366 0 0 1-.063.15c.006.05.008.052.021.084h.148c-.004.17-.016.342-.02.513h-.023c-.004.047-.013.097-.02.148a.217.217 0 0 0-.043.022v.105c-.072-.02-.055-.046-.127-.063l-.021-.107-.064-.041c-.03-.063.016-.186.023-.216-.007-.048-.016-.098-.022-.147h-.066l-.02.062c-.053.016-.034.01-.064.041h-.021v.044c-.028.02-.057.044-.087.065v.021c-.016-.003-.063-.047-.106-.021v.021h-.106l-.02.044h-.021v.043c-.036.026-.072.057-.109.084-.011.043-.027.085-.04.127l-.043.023v.042l-.044.02v.044h-.02l-.022.062h-.042l-.042.064h-.021l.021.087c-.028.019-.056.041-.085.062-.006.035-.015.072-.022.106-.013.01-.029.014-.041.022v.041l-.064.045v.042h-.024v.042h-.018a2.85 2.85 0 0 0-.043.127h-.023l-.021.149h-.022c-.043.14.041.325-.042.427v.233c.013.009.028.014.042.02.01.03.014.059.022.086.014.008.03.013.044.02l.127.15h.254v-.022h.042v-.018h.044v-.023c.069-.041.127-.062.15-.148h.042a.184.184 0 0 1 .04-.086h.023v-.043l.042-.021v-.044h.022v-.04h.02v-.064h.024c.004-.03.014-.059.02-.086h.022v-.042c.013-.009.027-.014.04-.022v-.042h.022c.008-.013.014-.03.022-.041h.064c.015-.02.03-.044.043-.065h.02c-.01.093-.037.147-.063.212l.021.021c-.006.036-.015.07-.02.107h-.022v.085h-.023c-.012.042-.028.085-.042.127l-.044.022v.042l-.04.042v.045h-.02v.041l-.044.041v.043c-.014.008-.028.018-.042.021-.01.029-.014.057-.022.085-.015.01-.029.016-.041.023v.062c-.016.008-.03.015-.045.025v.04c-.013.01-.028.016-.04.022v.04h-.022a.421.421 0 0 1-.024.064l-.17.09v.041c-.062.017-.072.038-.083.107h-.043a1.778 1.778 0 0 0-.148.295h-.045v.023c-.073.06-.002.02-.042.085h-.019l-.023.061a.44.44 0 0 1-.066.045v.042h-.04a1.154 1.154 0 0 0-.023-.087c-.09-.003-.066-.012-.146 0l-.13.385h.023c.005.029.014.057.02.088h.087v.085h-.022c.022.083.144.213.212.255.018.01-.007.029.02.019v-.02c.048-.013.055-.02.088-.045v-.02h.043c.005-.016.012-.028.018-.044.033-.018.069.01.088-.019v-.043c.076-.028.159-.058.232-.083l.107-.13c.05-.047.06 0 .086-.087.123-.016.107-.098.232-.127.02-.072.067-.096.106-.147h.022v-.067c.014-.003.03-.012.042-.02v-.06c.017-.011.028-.017.044-.025-.007-.022-.016-.041-.021-.064h.022v-.042c.014-.009.029-.013.042-.02v-.044h.02c.04-.1-.018-.202.044-.296a.432.432 0 0 1 .065-.04v-.045c.048-.046.098-.086.147-.128a.806.806 0 0 1 .022-.066h.043l.02-.065c.029-.02.059-.04.084-.063v-.041h.023v-.126c.006-.052.015-.101.021-.151h-.021l.021-.276c.05-.054.098-.114.148-.17h.044l.04-.043v-.04a.195.195 0 0 1 .044-.023v-.043c.029-.02.059-.042.086-.063v-.043h.022a4.86 4.86 0 0 1 .022-.194.499.499 0 0 1-.064-.041c-.007-.02.033-.038.02-.085ZM92.684 59.372v-.021h-.043c.026.026 0 .008.043.021ZM118.87 63.99h-.039c-.015-.06-.028-.048-.042-.107h-.043c-.016-.02-.029-.043-.043-.064h-.044a.664.664 0 0 0-.041-.066h-.022c-.009-.02-.014-.042-.02-.064h-.045a1.016 1.016 0 0 1-.041-.062h-.043c-.005-.015-.013-.026-.021-.04h-.022a.587.587 0 0 0-.019-.045h-.044c-.034-.042-.073-.087-.107-.13h-.042a.533.533 0 0 1-.041-.062h-.044c-.014-.022-.029-.041-.043-.064h-.043v-.021h-.042v-.021h-.042l-.043-.043h-.041c-.009-.013-.016-.027-.024-.042h-.041l-.042-.041h-.044v-.023h-.042v-.022h-.043a.26.26 0 0 1-.02-.042l-.532-.254c-.015-.04-.029-.088-.043-.128h-.021v-.172c-.064-.088-.128-.184-.192-.276-.027-.008-.057-.014-.087-.021-.026-.035-.053-.071-.083-.106-.027-.004-.056-.013-.085-.021l-.022-.043h-.042a1.301 1.301 0 0 1-.042-.065h-.022v-.04c-.03-.022-.055-.045-.084-.064v-.022h-.043c-.013-.022-.029-.043-.042-.064a3.425 3.425 0 0 0-.086-.022l-.022-.042a.32.32 0 0 0-.168-.042v-.041a.718.718 0 0 0 .318-.02h.085a.116.116 0 0 1 .023-.045h.062v-.021h.041V61.5h.149v-.021h.172v-.022c.036-.006.071-.015.106-.02v-.024h.043v-.02h.085v-.022c.06-.058.028-.119.022-.212-.054-.015-.061-.022-.086-.064h-.043v-.022h.087c-.016-.069-.043-.082-.044-.169.096-.005.187-.03.234-.086.057-.019.05-.005.062-.064h.043v-.105c.002-.006.031-.009.021-.044h-.021v-.04h-.021V60.5h-.022v-.042l-.04-.023c-.009-.03-.018-.057-.022-.084l-.043-.023v-.04h-.022a.508.508 0 0 0-.042-.064c-.071.02-.143.043-.21.063h-.109v.02a.347.347 0 0 1-.17.044v.042h.064v.022h.019c-.003.012-.012.027-.019.043-.12.033-.241.068-.361.106-.056-.01-.113-.014-.171-.023v.023h-.15v.02h-.04v.02c-.052.01-.1.016-.149.022v.023h-.111c.029-.066.029-.085 0-.149a.859.859 0 0 1 .066-.021c.005-.095.024-.136.088-.171 0-.114-.02-.173-.088-.213v-.107c.015-.006.03-.015.045-.022v-.062h.02c-.004-.11-.1-.196-.17-.235v-.043h-.086l-.021-.106h-.023c-.027-.05-.094-.086-.169-.084-.01.007-.004.038-.041.02-.006-.013-.016-.028-.023-.04-.033-.026-.088-.023-.148-.023l-.022.084h-.041c.003.096.032.149.085.192l-.065.191c-.02.016-.044.03-.063.044v.041l-.045.043h-.04c-.01.015-.015.028-.022.044h-.023c-.004.049-.013.099-.02.15h-.019v.062h-.023v.064h-.022v.065h-.02a.954.954 0 0 0-.021.085h-.02c-.05.106-.05.224-.129.296-.121.058-.242.115-.364.17h-.083v.021l-.126.043v.02c-.028.01-.059.016-.088.023-.057.04-.018.075-.125.084-.012-.098-.05-.166-.066-.255h-.043c-.012.063-.031.085-.063.128h-.023a1.106 1.106 0 0 1-.02.127 3.646 3.646 0 0 1-.147.128h-.043v.02a4.21 4.21 0 0 1-.129.108v.192c-.006.028-.025-.01-.021.023h.021v.19h-.021v.064h-.019v.042h-.024c.008.098.013.2.024.297.021.02.002-.002.019.02h.15c.017.087.055.126.084.192.04.01.109.047.171.022.009-.011.012-.025.02-.043h.13l.02-.043h.04v.064h-.02c-.006.029-.016.057-.02.085h.02c.009.029.015.06.02.085h-.02v.043l-.04.022a8.933 8.933 0 0 1-.066.216h-.043v.041h-.041c-.019.066-.056.074-.086.129h-.041c-.021.066-.068.098-.109.146h-.019v.042c-.022.014-.043.03-.067.043v.042h-.019c-.025.033-.031.04-.043.088h-.04v.039c-.058.018-.067.035-.108.066v.02h-.065v.023h-.064c-.006.011-.015.029-.019.041-.052.024-.173-.003-.193-.021h-.107v-.02h-.019v-.067c-.051-.003-.101-.012-.15-.02v.02h-.064v.024c-.033.017-.035.012-.086.02v.023h-.023c.011.041.016.084.023.126h.042v.04h.044c-.007-.019-.015-.04-.02-.061.02-.006.042-.015.062-.02.013.049.006.037.042.062v.02h-.084v.022h-.02c.032.122.073.085.168.129v.022h.044v.021c.107.006.212.014.319.023v-.023c.007-.003.097.039.15.023v-.023h.041v-.02c.063-.01.127-.014.189-.023v.022c.074-.013.144-.029.215-.043v.02h.021v.023l-.064.021c-.011.045.002.017-.021.045v.019c.027-.007.058-.016.085-.02l-.021.042c.147-.006.146-.08.257-.107v-.043c.06-.015.125-.027.19-.045.008-.009.013-.025.023-.042h.062l.064-.084h.043v-.021c.02-.015.04-.026.063-.04v-.045a.342.342 0 0 1 .043-.02c.006-.03.015-.058.02-.086.036-.029.073-.057.107-.086v-.064l.046-.021c.035-.051-.026-.039.06-.064.016-.054.034-.069.065-.106h.021v-.041l.041-.023v-.04a.38.38 0 0 1 .042-.023c.04-.064-.008-.1.066-.147v-.132c-.015.01-.029.016-.041.024.01-.058.04-.121.061-.173-.006-.012-.013-.023-.02-.04h.02c.017-.031.018-.051.022-.108h.042c.013-.088.032-.068.065-.126.099.001.147.008.213.044v.018h.042v.021h.042v.023c.028.007.059.017.083.02v.022l.152.022v.02h.063v.021h.084v.023c.079.026.139-.007.193.04h.04c.009.022.017.047.025.065.021.015.04.031.064.044v.04c.019.016.04.03.064.047v.041c.014.004.025.015.042.022.013.069.026.14.042.214h.02l.022.082h.021v.043c.02.015.042.03.065.042v.044c.013.007.029.01.042.02v.042l.043.042h.042c.034.046.07.085.106.127h.042l.127.151.127.042.023.04h.042l.022.044h.045a.087.087 0 0 0 .019.042.752.752 0 0 0 .128.022v.023h.045v.02c.026-.006.054-.012.082-.02v.02h.065v-.02h.021a.621.621 0 0 1-.021-.087c.028.013.051.01.083.021v.02h.064c.095.044.178.13.298.155v.041c.088.018.147.068.213.107h.043c.01.013.013.027.021.041h.042c.043.048.086.1.13.15h.041a.416.416 0 0 0 .022.04h.042c.023.029.04.056.064.085.084.031.17.058.256.086.011-.021.028-.043.042-.064h.041c-.004-.064-.013-.127-.021-.192.13 0 .158-.04.232-.083v-.107c-.005-.03-.023.007-.018-.02l.018-.022Zm-4.805-1.045v.046h-.022v.063a.269.269 0 0 1-.043.02v.044c-.013.005-.025.014-.042.02v.042h-.023l-.06.085h-.021c.013-.055.03-.069.061-.106h.02a.719.719 0 0 0 .065-.168h.043c.005-.03.017-.06.022-.087h.043c-.014.024-.035.032-.043.041Zm.362-1.977h-.023v.021h-.063v.02h-.064v-.02h.02v-.021h.066v-.022h.064v.022Zm.126 1.594v.043h-.017c0-.109.004-.08.038-.149h.044a.269.269 0 0 1-.065.106Zm3.661 1.344a.924.924 0 0 0-.086-.023c-.013-.043.005-.02-.021-.043v-.021l.107.064v.023Zm.02.022c.045.012.019-.006.045.019-.045-.014-.021 0-.045-.02ZM123.531 59.884v.021h.043c-.011-.044.003-.017-.021-.044v.023h-.022ZM90.683 59.989v-.022h-.04c.025.025 0 .01.04.022ZM90.644 59.989H90.6c-.016.02-.028.044-.044.063.023-.005.044-.013.063-.019.01-.016.015-.03.024-.044ZM111.256 61.264c-.064.02-.057.038-.105.068v.018c-.021-.005-.042-.013-.062-.018-.016-.046.001-.02-.025-.046v-.042h-.02v.065h-.02v.023h-.043v-.046h-.042c0 .26.027.59-.023.809-.015.071.034.105 0 .192-.015.04-.065.09-.085.127l-.085.022a1.184 1.184 0 0 0-.042.126c-.014.008-.028.015-.042.025v.084h-.024v.082h-.019v.342h-.022v.13h-.02v.103c.024-.024.007 0 .02-.042h.022c.024.03-.028.032.019.064v-.022h.024c-.001.178-.034.3-.109.404h-.022l-.039.064h-.173v.044l-.062-.021v.02c-.086.01-.169.014-.256.023v.021h-.042v.023a4.726 4.726 0 0 0-.254.022v-.022h-.045v-.023h-.062v-.02c-.137-.01-.27-.014-.407-.023v.022h-.082c-.007.014-.016.027-.022.044h-.065c-.005.013-.014.025-.021.04a.477.477 0 0 1-.233.044v.062h-.193v-.02c-.028-.007-.057-.016-.084-.02-.007-.018-.014-.03-.02-.043h-.044a5.798 5.798 0 0 0-.062-.086h-.044v-.02l-.086-.067-.02-.51h-.02v-.062h-.023v-.044h-.022v-.085h-.02c-.006-.064-.014-.127-.022-.191h-.023a.334.334 0 0 1 .045-.278l-.045-.064h.023s-.005-.08-.023-.042v.02h-.02c.013-.04-.001-.014.02-.04v-.044h.023c0 .028.04.037.064.021v-.02h.023v-.021c-.054-.05-.089-.063-.11-.149h.065l.022.041c.023.008.043.017.063.021v.043c.015.01.03.016.043.022v.063h.022v.085h.021v.043c.007.012.028.019.044.044h.126c.016-.023.027-.044.044-.062l.062.018v.022c.066.022.156-.013.19-.022v.022c.058.04.009.05.107.062v-.04c.044-.006.088-.013.128-.023v-.021a.036.036 0 0 1 .042.022c.029-.007.058-.013.088-.022.004-.028.012-.054.019-.085h.02v-.593h.023v-.067c.021-.015.043-.027.064-.04l.021-.087h.02c.045-.117-.062-.246-.041-.338h.021v-.15h.02v-.065h.023v-.064h.02v-.106h.023l.022-.084c.052-.014.045-.022.083-.044v-.147c-.008-.03-.025.009-.02-.022l.02-.022-.105-.085v-.02h-.043c-.064-.038-.124-.092-.212-.106-.009-.07-.02-.063-.043-.106a11.62 11.62 0 0 0-.3.02l-.17.148v.044h-.02v.041h-.022v.064c-.001.005-.03.022-.04.044h-.044v.062c-.041 0-.072-.021-.085-.02v.02c-.041.01-.085.016-.128.022v.021c-.034.008-.039-.02-.043-.02h-.127v.02c-.023.001-.062-.072-.148-.043v.022h-.042a.309.309 0 0 1-.022.042c-.06.03-.098.01-.148 0-.019.03-.015.025-.045.044v.063l.087.021c-.008.085-.013.171-.021.255 0 0 .073-.005.042.02h-.021v.022h.043v.023c.046.026.119.018.169.041v.022h.044v.023a.977.977 0 0 0 .319.106c-.008.156-.017.31-.023.467h-.021v.042h-.021l-.022.064c-.118-.013-.175-.073-.298-.085v-.062c-.021-.02-.003.001-.02-.023h-.085c.006-.063 0-.059.043-.085a.278.278 0 0 0-.128-.086v-.063c-.023-.017-.004.003-.021-.02h-.129l-.022.041h-.02v.042a.36.36 0 0 0-.042.022v.021c-.11-.029-.081.005-.149.065v.019h-.044c-.005.023-.014.044-.019.067h.019a.47.47 0 0 1 .023.04l-.065.022v.277h.023v.083h-.023v.066c.023.006.042.014.065.021-.005.116-.039.173-.065.253-.008.072-.014.144-.023.215h-.019v.064h-.021v.063h-.023c-.015.053.016.055.023.064-.004.027-.04.042-.023.085.014.008.029.014.044.02v.086h.019c.009.115.015.228.023.34h.023v.085h.019v.085h.023v.044h.021c.006.022.011.043.02.066a.408.408 0 0 1 .064.022v.019c.021-.007.043-.016.065-.02v.02h.022c-.018.034-.019.047-.022.105h-.065c.008.071.015.142.021.216h.022v.04h.022c.005.022.013.041.022.064.04.013.015-.001.04.02h.022c.006.043.015.086.022.13.028.018.057.042.086.063v.043l.042.041v.042h.021v.042h.022c.02.03.042.061.063.087.042.01.127.046.189.021a.329.329 0 0 0 .023-.043c.099.009.2.016.298.022.013.05.021.046.044.085.059.011.105.021.167.043v.02l.235-.02v-.022h.042v-.02l.258-.022v.021h.019v-.021h.107v-.02l.469.041v.021c.043.012.25-.03.278-.042.005-.014.012-.027.019-.043h.063v-.021h.255c.198-.002.417-.02.512-.129h.019c-.002-.012-.013-.026-.019-.042 0 0 .019 0 .019-.041-.002-.01-.038-.007-.019-.043h.019v-.021h-.062V64.5l-.064-.022c.012-.043-.002-.017.023-.043v-.02c.041-.022.06.021.084.02v-.02h.085v-.023h-.02c-.026-.033-.016-.029-.065-.042v-.042c.036.015.07.028.107.041v-.019h.02l-.02-.062h.043c-.017-.087-.03-.172-.043-.255-.042-.019-.088-.03-.13-.044-.011-.041.004-.021-.02-.041v-.196c.033.021.037.042.062.064.017-.047.03-.097.046-.148h.02a.231.231 0 0 1-.02-.042h.02v-.02s-.036-.023-.02-.064h.02a.609.609 0 0 0 .042-.257h-.042c0-.098-.015-.25.022-.32.013-.006.026-.015.043-.019v-.064a.336.336 0 0 1 .04-.019.665.665 0 0 0-.02-.107h.02v-.023c.036-.03.019.038.025.04h.02l.062-.19a.212.212 0 0 0 .044-.023v-.04h.021l.02-.086h.024c.017-.047-.024-.141-.024-.148h.024v-.149h.021v-.022h-.021c-.01-.034-.014-.07-.024-.106h.024c-.01-.044-.014-.084-.024-.13h.024v-.146h-.024v-.126h.024v-.192h.021v-.023h-.021v-.022h.021v-.041c-.03-.018-.028-.015-.045-.044Zm-2.829.343c.064.057.019.095.044.126v.064c-.016-.006-.029-.015-.044-.02l-.021.19c-.041-.044-.001-.303.021-.36Zm-.915.703h.044v-.044h-.044v.044Zm.406 1.742c-.022-.005-.043-.014-.065-.02l.022-.126h.043v.146Zm1.083.193h-.019v-.023c.079.003.088-.003.105.065-.046-.01-.061-.013-.086-.042Zm.17-.023c-.041.014-.018 0-.041.023h-.021a.132.132 0 0 1 .062-.064v.041Zm1.873-2.467h.02v-.064h-.02v.064Zm-.105 1.022v.022h-.023v-.046c.043.015.018-.002.043.024h-.02Zm.02-.088v.024h-.02a.837.837 0 0 1 .02-.087h.022c.016.04-.012.057-.022.063Zm.13-.253v.041h-.045v.063h-.02v.022h-.023c.01-.06.024-.134.063-.17v-.02h.025l-.025.064h.025ZM92.45 62.246c.035.006.07.012.106.02.117.009.252.022.342 0v-.02c.04-.01.063.02.063.02a4.42 4.42 0 0 1 .107-.02v-.023c.02-.014.041-.03.064-.043-.015-.058-.03-.046-.044-.106-.02-.004-.04-.013-.065-.021-.015-.022.006-.003-.017-.02v-.023h.062c-.017-.05-.03-.097-.045-.15.016-.006.028-.015.045-.02.013-.03.02-.155 0-.19-.02-.008-.045-.014-.062-.02-.008-.018-.017-.031-.023-.043h-.085c.02-.083.097-.123.19-.13v-.043c.021-.004.044-.014.064-.02v-.022h.041c.01-.013.017-.027.025-.04h.063v-.023h.063v-.023a.435.435 0 0 0 .064-.022v-.062h.042a2.512 2.512 0 0 0-.042-.192h-.022v-.042h-.021v-.042a.28.28 0 0 1-.041-.021v-.044c-.016-.005-.03-.013-.043-.021v-.105h-.022v-.044c-.015-.008-.028-.012-.041-.02-.034-.033-.051-.08-.086-.106v-.023h-.109c-.006-.015-.013-.028-.017-.04-.046-.031-.032.007-.068-.043h-.168l-.043.062h-.043l-.021.044c-.026.005-.057.014-.084.02-.023.03-.044.056-.064.085h-.064v.021c-.103.034-.26-.025-.32-.04h-.36v-.024c-.07.01-.142.014-.213.023-.007.013-.013.029-.022.041h-.022l-.02.044h-.044c-.013.02-.027.043-.042.062-.029.01-.056.016-.084.022-.015.021-.03.042-.043.063h-.04c-.01.013-.016.03-.025.044l-.106.02c-.005.014-.012.03-.02.043h-.063v.02c-.046-.008-.087-.01-.13-.02-.007.012-.014.03-.021.043h-.17v.042h-.042v.022h.019a.427.427 0 0 1-.02.064.447.447 0 0 1 .15.126c.125 0 .369.02.427 0v-.022h.062v-.02h.043v-.021c.034.006.07.016.105.021l.022-.042h.086v-.022h.062v-.02c.087-.027.153.01.212-.044h.214v.022l-.169.127a.379.379 0 0 0-.021.044h-.045c-.013.023-.028.041-.04.063h-.042c-.01.016-.017.028-.022.042h-.066v.023c-.021.006-.04.015-.064.02l-.02.044h-.043l-.042.063h-.044c-.005.015-.013.027-.02.044h-.106c-.008.011-.014.028-.022.041h-.04a1.18 1.18 0 0 0-.044.064h-.044c-.004.014-.012.026-.02.042h-.042v.021c-.052.02-.083-.016-.109-.021l-.021.042h-.042v.022c-.028.019-.035.017-.083.022a3.19 3.19 0 0 0-.063.636c.04.04.016.052.041.085a.455.455 0 0 1 .041.025v.018c.051.038.095.032.127.084.073 0 .081 0 .109-.04.06.002.09.008.126.022 0 .242-.03.626 0 .742v.214h.024v.021c-.013.017-.035.014-.024.063.024.074.14.333.108.428h-.022c-.022.064-.042.129-.062.191-.044.007-.277.063-.322.042a.319.319 0 0 0-.02-.042 3.317 3.317 0 0 0-.191-.062.189.189 0 0 1-.063.062v.063a.71.71 0 0 1-.064.021v.15h-.065v-.024h-.042c.023.037.01.032.061.045v.022h-.019v.062h-.023c.017.16.242.24.426.235.017.07.048.067.086.106.086.086.118.132.298.127.022.06.043.114.062.17h.044v.023a.628.628 0 0 1 .064-.022v-.021h.042v-.02h.044c.013-.02.027-.045.042-.065h.04v-.023c.03.005.055.037.106.023.069-.018.317-.083.385-.023h.085v-.02h.026c.021-.046-.026-.106-.026-.129h.026v-.084h.017c.014-.056.03-.112.043-.172h-.023l-.02-.167h-.017v-.043h-.026c-.006-.041-.013-.086-.022-.13h-.019v-.147s-.034-.017-.022-.065h.022c.02-.064.07-.197.041-.294h-.022c-.029-.136-.054-.272-.085-.407h.022c.006-.045-.04-.1-.022-.17h.022v-.065h.022c.008-.085.012-.168.022-.255h.02v-.04h.021v-.087h.026v-.043h.017v-.172h.02c.03-.1-.006-.264-.02-.34.059-.014.067-.033.106-.062v-.02a.878.878 0 0 0 .064.02c.01-.013.015-.029.022-.041Zm-.956-.555h-.066v-.021c.028-.013.046-.02.066-.04.042.01.016-.007.042.02-.028.016-.026.014-.042.041Zm.383-.296v.019h-.044v-.02c.047-.01.06-.014.086-.044h.022c.019.04-.053.03-.064.045ZM126.168 62.266c-.012-.02-.025-.043-.04-.065h-.042l-.043-.042H126v-.02h-.043a.248.248 0 0 0-.022-.044c-.041-.007-.085-.012-.127-.02v-.022h-.063v-.02h-.086v-.023h-.042v-.021h-.233v-.021c-.023.007-.046.013-.065.02-.057.004-.065-.02-.065-.02-.078-.023-.185.013-.233.02-.048.008-.063-.025-.086-.02v.02l-.724-.02c.026-.106.073-.083.15-.127v-.022h.044l.061-.086h.065l.043-.063c.065-.02.127-.04.192-.063v-.02a.491.491 0 0 1 .063-.023.452.452 0 0 0 .042-.063h.128v-.021a.037.037 0 0 1 .043.02c.042-.007.085-.015.128-.02a.631.631 0 0 1 .084-.215c-.001-.075-.007-.088-.042-.127h-.021c-.039-.053.024-.041-.064-.064-.023-.072-.066-.096-.106-.148h-.022a5.535 5.535 0 0 1-.041-.19c-.064-.02-.046-.036-.064-.044h-.086v-.022h-.169v-.02h-.085v-.023h-.066a.29.29 0 0 0-.022-.041h-.04v-.02c-.056-.01-.113-.015-.172-.024l-.019.044c-.024-.007-.046-.016-.065-.02-.015.025-.02.042-.043.061 0 .084-.003.09.062.108.017.043-.001.017.022.043v.019h-.084v-.02l-.148.02v.022h-.019c.013.056.032.067.061.107h.023v.042h.02c.005.05.012.1.023.148h.018c-.013.168-.112.128-.145.256-.075.02-.057.048-.13.065-.026.087-.106.081-.149.15h-.064c-.023.08-.064.066-.086.146-.079-.037-.141-.103-.232-.125a.165.165 0 0 1 .062-.107v-.021c.015.005.029.013.044.02v-.02h.021v-.043c-.021.006-.041.015-.065.02-.008-.02-.014-.043-.022-.062.068-.033.108-.078.192-.086l.022-.129h.021l-.021-.084h-.022l.043-.128h.043c-.014-.042.002-.018-.019-.042.041-.049.045-.015.104-.044v-.02h.042v-.022c.104-.053.114-.012.171-.127h.045c-.015-.043.001-.018-.024-.043v-.02c-.092.04-.246-.012-.362.02 0 0-.004.02-.043.021a7.957 7.957 0 0 0-.192.022v.022c-.04.012-.085.028-.125.043v.019h-.067v.022h-.04v.021c-.071.017-.142.03-.212.042v.023h-.044v.02h-.065v.021h-.06c-.01.014-.016.03-.024.043-.042.013-.085.03-.128.043v-.064h-.021c-.013-.042.003-.018-.021-.042-.028.107-.123.177-.149.276-.058.016-.048.027-.105.042l-.044.405c-.001.066-.011.158.02.192v.104c.016.01.029.015.044.023.006.02.013.042.022.065h.043v.02c.021.008.042.017.063.021v.02c.041-.013.054-.03.106-.041.014-.043-.001-.02.021-.043.017-.01-.007-.032.021-.021v.021c.014.009.029.016.043.023.019-.041.031-.033.043-.088.118-.032.174-.121.34-.126-.003.077-.025.194-.062.234.005.048 0 .056.019.086h.023c.034.054-.023.04.061.062.025.087.016.024.066.065v.021h.02v.041l.087.064c-.035.054-.074.052-.13.085-.006.016-.014.029-.02.043H123c-.007.017-.016.03-.02.042h-.042v.025h-.043c-.016.018-.029.04-.044.062h-.042v.022h-.107v.018c-.071 0-.096-.01-.149-.018-.019-.114-.004-.074.021-.17a.643.643 0 0 1-.085-.109h-.146v-.02h-.065v.02c-.024-.003-.044-.013-.064-.02-.025.028-.039.023-.066.042v.022h-.041c-.015.02-.031.041-.042.064h-.043l-.023.04c-.027.022-.056.047-.084.065-.006.031-.014.058-.021.084h-.021v.047c-.021.013-.045.025-.063.041v.022h-.044c-.007.013-.015.026-.022.044-.033.004-.07.011-.107.018-.009.007-.019.03-.041.043v.064h.021v.233h.02a3.533 3.533 0 0 1-.02.212h.02c.009.074.014.144.026.214.04.009.081.041.147.021v-.021c.042-.006.084-.015.127-.02v.02c.148.007.297.015.446.021v-.021h.065v-.02h.064c.006-.016.014-.03.02-.044h.042c.024-.03.043-.057.063-.084.051-.045.061.002.089-.085h.041a.498.498 0 0 0 .019-.044h.171v-.041l.234-.044v-.021c.036-.022.036-.029.087-.043v-.042h.083c.03.005-.008.02.024.021v-.021c.02-.006.041-.012.062-.02.012.116.088.268.042.424h-.022v.126h-.02c-.023.085.003.302.02.363h.022c.021.072.01.285-.022.32 0 .119-.025.125-.062.192-.044.007-.086.013-.127.021v.022h-.171v-.022c-.107.013-.212.027-.321.043v.021h-.041v.02h-.063c-.015.022-.031.042-.045.065h-.084c-.007.014-.013.03-.021.04h-.106v.024h-.043v.02h-.063v.022h-.172c-.146.043-.333.044-.531.043v.042h-.042c-.014-.041.002-.018-.023-.041v.041c-.061.007-.127.016-.189.021v-.02h-.042v-.022h-.043l-.024-.043h-.104v-.021c-.092-.026-.13.013-.171-.022h-.171v.022h.022v.021l.085-.021v.021h.064v.043c-.011 0-.087-.014-.064.021.018.026.023-.01.022.021h-.172v.022a.988.988 0 0 0-.297.02c.017.065.036.048.045.065v.084h.019v.022h.02v.02h.044v.023h.043l.107.128h.043c.019.03.041.056.061.084.227.029.455.055.683.085v-.02h.104v-.022h.148c.064-.018.159-.058.237-.064.223-.017.406.1.576.064v-.02h.128a.642.642 0 0 1 .041-.065c.034-.008.069-.012.105-.02a.326.326 0 0 1 .023-.044h.043a.644.644 0 0 1 .042-.062c.042-.007.084-.017.127-.024v-.02c.197.014.396.027.595.044v-.024h.042v-.02c.033-.014.282-.08.32-.065.052.018.091.12.19.085v-.02h.042a.36.36 0 0 0 .024-.043h.041l.023-.043h.042v-.021c.035-.007.038.022.04.022.055.008.079-.011.108-.022l.108-.36v-.343h-.023v-.062h-.02s.016-.178.02-.191h.023v-.192h.019c.009-.028.015-.058.023-.085h.02v-.066h.022v-.043h.02v-.105h.022v-.021h-.022c0-.048.043-.08.022-.148h-.022v-.066h-.02v-.104c-.014-.008-.031-.015-.042-.023v-.085h.02v-.021h-.02v-.15h-.023v-.253c.023-.007.043-.016.065-.024.038-.026.293.02.361.046v.022c.078.022.129-.033.172-.044.068-.024.126.026.169.022v-.022h.086v.022h.04v.022c.049.004.1.012.151.022v.018h.043v.023l.191.02v.022a.37.37 0 0 0 .168.042 1.48 1.48 0 0 0 .021-.107s-.035-.026-.021-.062c.015-.007.029-.018.044-.022.007-.017.035-.116.02-.15h-.02c-.036-.057-.036-.05-.044-.15.036-.005.072-.014.107-.02.017-.062.035-.05.044-.129h-.044c-.031-.1-.016-.024-.086-.062ZM107.173 60.65v-.065h-.022c-.002.065-.042.042.022.065ZM83.495 60.691v-.02h-.044c.025.024-.002.009.044.02Z" clip-rule="evenodd"/><path fill="#231F20" fill-rule="evenodd" d="M117.17 60.946v-.02h-.042c.023.02 0 .01.042.02ZM105.002 61.691h.022c.009.141.095.145.15.236h.19v.018h.043v.023h.063v.02c.102.034.37-.007.448-.02v.042h.063l-.022-.065.084-.018v-.023c.023.01.043.012.065.023.008-.014.014-.03.021-.044h.065v-.023h.019v-.02h.023a.4.4 0 0 0-.023-.064.578.578 0 0 0 .044-.021c.06-.098.069-.146.043-.275-.125-.032-.077-.082-.129-.171h-.02v-.044c-.053-.063-.09.04-.128-.085-.046.04.003.022-.021.064-.073-.047-.06.037-.043.088h-.041v-.068h-.172c-.018-.005-.018-.065-.104-.041v.021h-.066v.02a1.05 1.05 0 0 1-.106.022v-.022h-.045c.011-.02.017-.041.024-.062h-.106v-.022c-.022.008-.045.014-.063.022v-.022h-.067c-.012.043-.028.084-.039.129a.398.398 0 0 0-.045.023v.126h-.063c-.019.037-.028.06-.064.085 0 .042.022.044.022.044.006.016-.047.059-.022.104Zm.341-.127h.021v-.042h.022v.066s-.083-.003-.043-.024ZM89.985 62.777h.019c.014.05.022.044.042.084.05-.007.101-.014.15-.018v.018h.044v.023h.082v.02c.136-.006.152-.06.235-.105l-.023-.172h.023v-.04h.023a4.54 4.54 0 0 1 .02-.195h.044c-.01-.126-.015-.253-.025-.382l-.039-.021c.005-.106.013-.213.02-.32h.02v-.02h-.02a2.076 2.076 0 0 1-.02-.127h-.023l-.023-.064c-.042-.006-.083-.015-.127-.02v-.024c-.031-.024-.035-.03-.085-.042v-.04c-.028-.01-.057-.016-.082-.023a2.736 2.736 0 0 0-.044.192c.006.023.053.13.044.169h-.023v.043c-.013.005-.026.014-.043.02v.043c-.027.021-.058.043-.085.065v.042c-.014.008-.03.013-.043.021v.084h-.02c.004.12.013.242.02.361h-.02c-.015.144-.028.287-.041.428ZM110.916 61.84c.028-.047-.029-.306-.042-.318.006.108.017.211.019.319h.023Z" clip-rule="evenodd"/><path fill="#231F20" fill-rule="evenodd" d="M107.002 61.608a.94.94 0 0 0-.127.022c-.042.145-.216.151-.257.297-.075.02-.081.08-.127.126-.071.064-.142.127-.213.193-.005.028-.014.055-.021.082a.157.157 0 0 1-.044.021v.043h-.018c-.032.038-.051.052-.066.108h-.043a.42.42 0 0 1-.105.171l-.045.018v.047l-.105.085v.04c-.02.014-.039.03-.063.043-.034.05-.071.099-.105.15h-.021a1.16 1.16 0 0 1 .021-.128l.041-.022v-.043h.022v-.04c.034-.03.07-.06.105-.085v-.047l.065-.04v-.063l.04-.024c.055-.078.079-.173.15-.234-.005-.054-.013-.112-.02-.17a.895.895 0 0 0-.043-.019l-.021-.129c-.066.05-.04.04-.15.023v.147h-.041c.005-.027.015-.056.02-.085-.022-.019-.003.005-.02-.02h-.065v.02h-.042v.022c.03 0 .03.076.022.106 0 0-.018.007-.022.043h-.084v.021a.714.714 0 0 1-.064-.02c-.017.02-.03.043-.043.061h-.042c-.065.04-.11.078-.213.086-.014-.043.002-.016-.022-.043-.009.021-.013.043-.023.065h-.039c.016-.07.045-.081.062-.149-.098.012-.132.08-.19.127v.022h-.044l-.064.084h-.021v.042c-.013.008-.029.015-.043.025-.057.088-.067.208-.063.358.031.03.065.092.084.128a4.85 4.85 0 0 0 .193-.02v-.022h.148v-.018a.559.559 0 0 1 .085-.022v-.023l.128-.023v-.019h.064c-.034.087-.071.17-.105.254v.064h-.022v.042h-.022v.064c-.012.008-.029.014-.043.024v.062h-.023c-.004.028-.012.055-.018.086h-.022l-.022.147c-.013.007-.028.018-.042.02v.043a.135.135 0 0 1-.044.021v.043c-.021.016-.038.031-.062.044v.043a.765.765 0 0 1-.086.064 2.273 2.273 0 0 1-.043.129c-.014.005-.028.013-.042.02v.043c-.043.035-.086.069-.127.106-.01.023-.015.042-.022.063l-.064.041-.042.342h.021v.062h.021v.045h.022v.063c.014.006.026.016.042.022v.042h.022c.027.073-.014.116.041.17v.042c.041.08.347.217.449.11.1-.03.139-.122.169-.217v-.105h.022v-.041c.014-.007.028-.017.042-.023.007-.027.013-.057.022-.087l.085-.063v-.042c.026-.02.058-.041.084-.062v-.067c.015-.004.03-.012.042-.017.009-.03.014-.062.022-.088l.043-.02c.005-.03.015-.056.02-.085h.021l.022-.043h.044a1.03 1.03 0 0 1 .063-.084.474.474 0 0 1 .062-.022v-.042h.043c.019-.067.062-.097.086-.149v-.043h.023c.007-.07.015-.143.018-.215h.023a1.16 1.16 0 0 0 .021-.084h.021v-.061h.022c.036-.045.072-.087.107-.132h.041c.009-.012.014-.028.02-.042h.023c.008-.027.017-.055.022-.085.02-.013.042-.027.062-.042v-.042l.108-.085v-.041l.062-.045v-.042c.024-.013.045-.028.066-.04v-.046c.014-.006.028-.015.045-.019.005-.072.012-.145.019-.213h-.019c.005-.042.012-.087.019-.127h.02c.016-.047-.014-.06-.02-.086h.02v-.044h-.02v.021c-.029-.011-.029-.035-.043-.041l-.021.02a3.63 3.63 0 0 0-.107-.02.315.315 0 0 1 .086-.17c.012-.008.028-.014.042-.02V62.2c.014-.008.029-.014.043-.021v-.04c.02-.016.043-.031.063-.045.008-.055.015-.114.021-.168.023-.014.043-.03.064-.044.007-.029.013-.054.024-.086h.019c-.008-.042-.013-.084-.019-.127h.019c-.023-.028-.043-.031-.064-.063Zm-1.489 1.465v.045h-.022a2.37 2.37 0 0 0 .022-.105h.022c.017.032-.013.05-.022.06Zm.043-.573h-.085v.02h-.046v-.02c.052-.023.118-.047.151-.086h.023c.013.042-.03.063-.043.086ZM93.875 64.158c-.01-.047.026-.058.023-.082h-.023v-.28h-.02v-.085h-.02v-.084h-.023v-.085h-.02v-.106h-.022a24.734 24.734 0 0 0-.02-.341h.02l.042-.15c-.026-.035-.04.026-.063-.06h-.043a.782.782 0 0 1-.022-.064H93.6l-.045-.068c-.028-.004-.054-.012-.082-.017-.065-.036-.108-.093-.192-.11v-.04a3.458 3.458 0 0 0-.193-.066h-.064v.02h-.018v.022h.062c-.036.047-.044.014-.062.087h-.279c.032-.029.171-.044.234-.044v-.018h-.128v.018c-.174 0-.153.006-.254.066.005.056.014.11.022.172a.476.476 0 0 0-.066.018v.065c-.056-.017-.046-.004-.062-.065-.05.014-.048.023-.087.043l.065.17.084.064.021.042h.044l.021.044h.042l.022.04h.042l.149.11c.016.039.03.081.042.126.015.006.028.014.043.021.045.113.088.228.127.341.009.078.014.154.022.234h.022v.085h.02c.004.024-.041.056-.02.106.014.006.028.014.044.02l-.024.127h.024v.044h.017v.062h.025v.024h-.025v.021c.01.018.032-.003.045.064.133-.007.12-.028.212.02.026-.063.041-.217.043-.297.045.022.037.037.107.042l.02.109c.058-.019.05-.008.064-.066h.107v-.023c.067-.017.064-.023.065-.104h.019v.063h.045c-.008-.079-.017-.156-.022-.235h-.023Zm-.766-1.445c-.111.02-.18.006-.298 0v.04c-.058.02-.047.008-.062.068h-.022c.002-.07.007-.097.043-.132v-.018c.035-.014.041.018.041.018h.298v.024Z" clip-rule="evenodd"/><path fill="#231F20" fill-rule="evenodd" d="M93.006 62.587v-.025h-.045c.024.028 0 .01.045.025ZM90.45 63.627h-.021v-.02c.022-.006.044-.016.063-.02.009-.07.02-.064.042-.108-.021-.014-.033-.04-.042-.043h-.063v-.023h-.022a.527.527 0 0 1 .108-.17v-.019h-.086v.02c-.074.019-.133-.04-.212 0v.02c-.034.024-.037.03-.085.045-.013.041.003.016-.02.041v.024c-.064.02-.043-.056-.108-.046v.022c-.03.008-.057.014-.085.024v.02c-.03.01-.042-.02-.042-.02-.03-.004.009.015-.022.02a1.131 1.131 0 0 0-.108-.02v-.046c-.044.012-.058.015-.083.046h-.107v-.024h-.022c.007-.022.017-.041.022-.064h-.022v-.042c-.04.009-.084.016-.127.02a.503.503 0 0 0 .024.064h-.024c-.02.084-.031.148-.085.194v.02h-.021c.024-.052.052-.102.065-.168h-.044c-.01.127-.059.169-.108.253v.042c-.012.007-.026.018-.041.02v.043a.118.118 0 0 1-.043.021v.043a.663.663 0 0 1-.04.023c-.009.034-.014.07-.022.109h-.023v.041h-.021a4.764 4.764 0 0 1-.042.127h-.02v.062h-.023v.045h-.021v.042h-.02a1.626 1.626 0 0 0-.022.105h-.02a1.541 1.541 0 0 1-.023.128h.022v.063h.02v.044h.024c.004.022.013.043.019.064h.086v.02c.079.022.057.044.105.084v.045c.135.005.229.028.257-.087.076-.026.156-.056.233-.083a.247.247 0 0 1 .021-.043h.043l.042-.044a.516.516 0 0 0 .021-.063c.03-.021.057-.043.085-.064v-.042c.017-.009.03-.013.043-.022v-.042c.014-.007.028-.015.043-.021.017-.017.006-.04.042-.042.016.005.028.014.045.023l.019-.065h.022c.02-.051-.006-.107.02-.15l.043-.02c.027-.039.058-.072.085-.105.017.003.03.012.043.019a.78.78 0 0 1 .023-.085c.05-.013.046-.023.082-.043v-.13c.087-.02.024-.02.064-.062l.022.021s.083-.004.043-.021Zm-.338.105c-.043-.013-.018.006-.043-.02h.02c.02-.023-.003-.004.023-.023v.043Z" clip-rule="evenodd"/><path fill="#231F20" fill-rule="evenodd" d="M89.367 63.309v.041h.02c-.014-.041.002-.02-.02-.041ZM110.577 63.522v.041h.02c-.013-.041.004-.019-.02-.041ZM93.132 64.35v.043h.02c-.012-.043.003-.017-.02-.043ZM120.789 64.904h.126v-.02h-.126v.02ZM52.437 68.405a101.417 101.417 0 0 0-.017 1.472c0 .43.003.771.008 1.024l.009.404-.343.148a56.334 56.334 0 0 0-1.435-1.668c-.445-.495-.703-.781-.772-.86l-.005.003a237.996 237.996 0 0 0 .017 2.508H49.5a52.424 52.424 0 0 0 .013-2.02c-.002-.273-.006-.56-.013-.864l.389-.164.779.879c.489.552.95 1.064 1.382 1.537l.005-.003c0-.232-.003-.623-.008-1.173-.006-.55-.01-.958-.01-1.223h.4ZM55.362 70.07h-1.233c.08-.156.18-.355.301-.599.122-.243.226-.447.312-.613l.01.004a102.967 102.967 0 0 1 .61 1.207Zm.583.26c-.327-.634-.66-1.29-1-1.967h-.33a227.997 227.997 0 0 1-1.546 2.975l.34.157a240.084 240.084 0 0 1 .575-1.138h1.523a60.916 60.916 0 0 1 .552 1.138l.397-.174-.511-.99ZM60.017 68.405A111.263 111.263 0 0 0 60 69.877a47.896 47.896 0 0 0 .017 1.428l-.343.148a56.628 56.628 0 0 0-1.435-1.668l-.772-.86-.005.003a248.065 248.065 0 0 0 .017 2.508h-.399a51.531 51.531 0 0 0 .014-2.02c-.003-.273-.007-.56-.014-.864l.389-.164.78.879c.488.552.949 1.064 1.381 1.537l.005-.003c0-.232-.003-.623-.008-1.173-.006-.55-.009-.958-.009-1.223h.4ZM62.05 68.405c0 .12-.001.248-.004.385s-.004.351-.004.642v1.008c0 .13-.018.25-.054.363a.76.76 0 0 1-.188.307 1.14 1.14 0 0 1-.39.242 2.28 2.28 0 0 1-.659.135l-.05-.304c.185-.02.334-.042.445-.07a.704.704 0 0 0 .28-.137.528.528 0 0 0 .16-.23c.032-.09.048-.206.048-.35 0-.156.002-.31.004-.459a26.227 26.227 0 0 0-.013-1.532h.425ZM63.596 71.436h-.425l.01-.483a55.453 55.453 0 0 0 .004-1.677c-.003-.28-.007-.57-.014-.87h.425a85.002 85.002 0 0 0-.017 1.452 62.516 62.516 0 0 0 .017 1.578ZM67.717 68.405a106.74 106.74 0 0 0-.017 1.472 47.896 47.896 0 0 0 .017 1.428l-.343.148a56.785 56.785 0 0 0-1.435-1.668l-.772-.86-.005.003a237.996 237.996 0 0 0 .017 2.508h-.4c.003-.038.007-.172.011-.403a52.594 52.594 0 0 0 .003-1.617c-.002-.273-.006-.56-.013-.864l.389-.164.779.879c.489.552.95 1.064 1.382 1.537l.005-.003c0-.232-.003-.623-.009-1.173-.005-.55-.008-.958-.008-1.223h.399ZM71.422 69.882a36.648 36.648 0 0 0-.017.742c0 .15.001.32.004.508l.005.312a6.177 6.177 0 0 1-.405.017 4.5 4.5 0 0 1-1.071-.114 1.959 1.959 0 0 1-.806-.402 1.34 1.34 0 0 1-.34-.44 1.329 1.329 0 0 1-.129-.593c0-.275.082-.52.246-.737.164-.216.39-.39.677-.523.195-.09.417-.157.666-.203.249-.046.509-.07.779-.07h.216l.03.323h-.196c-.26 0-.498.02-.714.06-.216.04-.405.098-.566.172-.22.102-.392.242-.517.418a.961.961 0 0 0-.188.566c0 .251.065.459.196.624.13.164.298.294.504.39.184.081.379.139.584.173.205.034.417.05.635.05l-.004-.35-.013-.923h.424ZM76.734 68.405a101.417 101.417 0 0 0-.017 1.472c0 .43.002.771.008 1.024l.009.404-.343.148a56.334 56.334 0 0 0-1.436-1.668 439.62 439.62 0 0 1-.771-.86l-.005.003a237.996 237.996 0 0 0 .017 2.508h-.4c.003-.038.006-.172.011-.403a52.424 52.424 0 0 0 .003-1.617c-.002-.273-.007-.56-.013-.864l.389-.164.779.879c.489.552.95 1.064 1.382 1.537l.005-.003c0-.232-.003-.623-.009-1.173-.005-.55-.008-.958-.008-1.223h.399ZM80.384 70.515a1.257 1.257 0 0 1-.314.415 1.183 1.183 0 0 1-.784.285 1.195 1.195 0 0 1-.771-.275 1.21 1.21 0 0 1-.328-.436 1.41 1.41 0 0 1-.116-.585c0-.191.037-.376.113-.555.076-.178.182-.327.318-.448.107-.095.227-.167.359-.216a1.21 1.21 0 0 1 .428-.074c.156 0 .298.024.425.073a1.174 1.174 0 0 1 .681.68c.075.189.112.38.112.576 0 .205-.041.392-.123.56Zm.427-1.247a1.539 1.539 0 0 0-.886-.838 1.807 1.807 0 0 0-.636-.11c-.226 0-.441.04-.645.118-.204.078-.38.187-.527.328a1.52 1.52 0 0 0-.48 1.148c0 .262.051.497.152.705a1.538 1.538 0 0 0 .903.806c.187.064.386.096.597.096.215 0 .417-.034.606-.1.189-.068.367-.175.535-.323.151-.132.274-.3.368-.505.094-.205.142-.43.142-.674 0-.23-.043-.448-.129-.651ZM84.504 71.244l-.33.234a181.98 181.98 0 0 1-1.446-1.449l.002-.02c.064-.015.15-.048.257-.099.107-.05.197-.105.27-.162a.572.572 0 0 0 .234-.492.456.456 0 0 0-.103-.299.592.592 0 0 0-.283-.183 1.174 1.174 0 0 0-.31-.061 4.953 4.953 0 0 0-.3-.01h-.21a88.512 88.512 0 0 0-.005 2.066l.005.667h-.424l.01-.525c.005-.26.007-.585.007-.974v-.418c0-.204-.006-.575-.017-1.114.017 0 .102 0 .254-.004.153-.003.294-.004.423-.004.148 0 .291.007.43.021.14.015.275.048.408.098a.906.906 0 0 1 .4.279.67.67 0 0 1 .148.431.709.709 0 0 1-.223.535 1.928 1.928 0 0 1-.42.317v.013c.234.24.492.487.772.742l.45.41ZM89.284 71.39l-.41.071-.529-2.543-.007.005a54.66 54.66 0 0 0-.441.852c-.228.445-.45.891-.665 1.338h-.352a94.138 94.138 0 0 0-.672-1.348l-.431-.847-.002.006c-.01.041-.08.33-.206.868a50.092 50.092 0 0 0-.363 1.67l-.396-.062c.17-.651.33-1.297.477-1.937l.242-1.04.406-.052c.016.035.137.277.36.729.223.452.486.972.789 1.563h.015a370.271 370.271 0 0 0 1.137-2.291l.385.025a122.022 122.022 0 0 0 .663 2.993ZM91.846 70.07h-1.232c.08-.156.18-.355.3-.599.122-.243.226-.447.312-.613l.01.004a102.967 102.967 0 0 1 .61 1.207Zm.584.26c-.328-.634-.66-1.29-1-1.967h-.331a227.997 227.997 0 0 1-1.545 2.975l.34.157a219.482 219.482 0 0 1 .575-1.138h1.523a62.212 62.212 0 0 1 .552 1.138l.397-.174-.511-.99ZM95.653 71.436l-.322-.005a52.114 52.114 0 0 0-1.312 0c-.179.003-.33.005-.454.005l.011-.791a58.24 58.24 0 0 0-.011-2.24h.433a54.27 54.27 0 0 0-.017 1.302c0 .396 0 .727.004.993l.004.422h.517c.302 0 .565-.002.789-.005l.358-.004v.323ZM100.465 68.405a66.614 66.614 0 0 1-.009 1.212v.756c0 .175-.029.33-.088.462a.952.952 0 0 1-.266.35c-.12.099-.265.177-.439.233a1.934 1.934 0 0 1-.602.086c-.227 0-.428-.029-.602-.084a1.312 1.312 0 0 1-.44-.235.96.96 0 0 1-.267-.35 1.138 1.138 0 0 1-.088-.462v-.756c0-.139-.002-.303-.004-.492-.003-.19-.005-.43-.005-.72h.425a94.154 94.154 0 0 0-.008 1.25v.695c0 .276.088.485.266.627.179.142.42.213.724.213.329 0 .575-.068.74-.203.165-.135.247-.347.247-.637v-.695a70.63 70.63 0 0 0-.008-1.25h.424ZM104.558 68.405l-.012.814a45.447 45.447 0 0 0 .004 1.682l.008.404-.343.148a55.187 55.187 0 0 0-1.435-1.668l-.772-.86-.005.003c0 .404.003.9.008 1.49l.009 1.018h-.399a47.96 47.96 0 0 0 .017-1.364l-.003-.656c-.002-.273-.007-.56-.014-.864l.389-.164.779.879c.489.552.95 1.064 1.382 1.537l.005-.003c0-.232-.003-.623-.008-1.173-.006-.55-.009-.958-.009-1.223h.399ZM106.175 71.436h-.424l.01-.483a60.153 60.153 0 0 0 .003-1.677c-.002-.28-.006-.57-.013-.87h.424l-.012.752a71.863 71.863 0 0 0 .002 1.766l.01.512ZM110.186 68.503c-.008.017-.188.362-.54 1.033-.352.672-.688 1.32-1.009 1.942h-.339c-.352-.698-.689-1.358-1.01-1.98-.322-.621-.49-.947-.505-.978l.397-.174c.012.029.165.343.461.943.296.6.581 1.165.855 1.694h.005c.279-.542.569-1.112.87-1.71.301-.6.456-.908.467-.927l.348.157ZM112.992 71.436l-.34-.005a58.989 58.989 0 0 0-1.833.005 66.32 66.32 0 0 0 .017-1.478l-.004-.68a68.082 68.082 0 0 0-.013-.873c.12 0 .271.002.453.005a58.34 58.34 0 0 0 1.686-.004v.322l-.32-.004a54.252 54.252 0 0 0-.731-.005h-.664c0 .172-.001.344-.004.514-.003.17-.004.33-.004.48h1.723v.305h-1.723l.002.681.006.423c.1.002.221.005.364.006a50.312 50.312 0 0 0 1.385-.006v.314ZM116.612 71.244l-.329.234a187.159 187.159 0 0 1-1.447-1.449l.003-.02c.064-.015.15-.048.257-.099.106-.05.196-.105.269-.162a.743.743 0 0 0 .164-.19.569.569 0 0 0 .07-.303.454.454 0 0 0-.103-.297.59.59 0 0 0-.282-.184 1.184 1.184 0 0 0-.31-.061 4.95 4.95 0 0 0-.3-.01h-.21c-.004.287-.006.54-.007.76l-.002.463c0 .208.001.489.004.843.002.354.003.577.005.667h-.425c.003-.09.006-.265.011-.525.004-.26.006-.585.006-.974v-.418c0-.204-.005-.575-.017-1.114.017 0 .102 0 .255-.004.153-.003.294-.004.423-.004.148 0 .291.007.43.021.139.015.275.048.408.098a.901.901 0 0 1 .399.279.667.667 0 0 1 .148.431.71.71 0 0 1-.222.535 1.923 1.923 0 0 1-.42.317v.013c.234.24.491.487.771.742l.451.41ZM118.99 70.585c0 .155-.041.291-.124.409a.9.9 0 0 1-.334.283 1.605 1.605 0 0 1-.44.151c-.166.034-.349.05-.551.05a8.115 8.115 0 0 1-.542-.017l-.021-.322.2.014c.109.007.238.011.386.011.091 0 .208-.01.351-.032.143-.021.253-.048.33-.08a.641.641 0 0 0 .232-.16.353.353 0 0 0 .08-.238c0-.1-.027-.186-.08-.256a.796.796 0 0 0-.267-.203 3.807 3.807 0 0 0-.311-.143 3.374 3.374 0 0 1-.345-.163 1.009 1.009 0 0 1-.371-.307.657.657 0 0 1-.111-.371.64.64 0 0 1 .1-.36.966.966 0 0 1 .262-.263c.109-.073.241-.127.399-.163.157-.036.331-.053.523-.053a7.185 7.185 0 0 1 .505.016l.036.331a4.375 4.375 0 0 0-.588-.034c-.095 0-.193.01-.294.029a.964.964 0 0 0-.266.087.516.516 0 0 0-.173.147.358.358 0 0 0 .004.432c.05.07.144.14.282.213.07.038.162.08.277.129.115.049.227.102.338.16.17.09.298.192.384.308a.646.646 0 0 1 .129.395ZM120.337 71.436h-.424l.01-.483c.004-.232.007-.566.007-1 0-.172-.002-.398-.004-.677a68.6 68.6 0 0 0-.013-.87h.424l-.012.752a71.863 71.863 0 0 0 .002 1.766l.01.512ZM123.873 68.72l-.341-.005a71.04 71.04 0 0 0-.907-.004 228.45 228.45 0 0 0-.009 1.364c0 .267.002.539.004.813l.005.548h-.424a57.621 57.621 0 0 0 .017-1.379v-.627c0-.155-.003-.395-.009-.719a73.351 73.351 0 0 0-1.248.008v-.314c.175 0 .387.002.637.005a100.69 100.69 0 0 0 2.275-.004v.313ZM126.896 68.545l-.503.565c-.322.361-.582.654-.778.877-.004.274-.004.562 0 .862l.008.587h-.424a48.224 48.224 0 0 0 .017-1.42 68.479 68.479 0 0 0-.771-.886l-.494-.56.334-.224c.022.026.156.184.401.477.246.292.493.581.742.867h.005c.239-.272.489-.56.751-.865l.412-.479.3.199Z" clip-rule="evenodd"/></g><defs><filter id="a" width="154" height="157" x="0" y="0" color-interpolation-filters="sRGB" filterUnits="userSpaceOnUse"><feFlood flood-opacity="0" result="BackgroundImageFix"/><feColorMatrix in="SourceAlpha" result="hardAlpha" values="0 0 0 0 0 0 0 0 0 0 0 0 0 0 0 0 0 0 127 0"/><feOffset dy="16"/><feGaussianBlur stdDeviation="6.5"/><feColorMatrix values="0 0 0 0 0 0 0 0 0 0 0 0 0 0 0 0 0 0 0.03 0"/><feBlend in2="BackgroundImageFix" result="effect1_dropShadow_185_295"/><feBlend in="SourceGraphic" in2="effect1_dropShadow_185_295" result="shape"/></filter></defs></svg>