<svg xmlns="http://www.w3.org/2000/svg" xml:space="preserve" style="fill-rule:evenodd;clip-rule:evenodd;stroke-linejoin:round;stroke-miterlimit:2" viewBox="0 0 154 157"><path d="M42.031 20c4.455 2.597 10.318 4.427 17.342 4.491 7.199.083 13.305-1.323 17.712-4.115 4.441 2.777 10.617 4.226 17.746 4.115 6.893-.091 12.963-1.894 17.349-4.456.084 10.345-.159 20.211-.159 30.507 0 10.228.55 20.845-2.068 28.664-1.274 3.836-3.195 7.052-5.361 10.067-2.13 2.986-4.776 5.604-7.616 7.762-2.953 2.249-6.364 3.843-9.831 5.59a324.23 324.23 0 0 0-8.855 4.616c-.404.223-.879.369-1.17.759-1.561-1.051-3.259-1.894-4.944-2.778-1.698-.869-3.411-1.761-5.11-2.632-1.754-.898-3.509-1.663-5.173-2.548-1.664-.877-3.175-1.9-4.658-3.049-5.827-4.449-10.324-10.213-12.991-17.886-1.363-3.961-1.754-8.492-1.99-13.402-.223-4.838-.105-9.99-.105-15.009 0-10.227-.145-20.281-.145-30.584-.008-.056-.008-.112.027-.112Zm33.292 3.676c-6.126 2.701-15.776 3.489-23.6 1.908-2.451-.495-4.679-1.156-6.614-2.054-.258-.125-.544-.335-.864-.307-.09 9.517.153 19.389.153 28.558 0 4.77-.23 9.643-.042 14.182.209 4.519.718 8.807 1.956 12.497 1.22 3.62 2.849 6.732 4.882 9.566 3.035 4.247 6.711 7.77 11.361 10.29 1.567.835 3.216 1.58 4.888 2.353 3.258 1.525 6.516 3.118 9.754 4.699 3.228-1.608 6.509-3.133 9.725-4.699 1.658-.801 3.321-1.483 4.874-2.326 3.091-1.642 5.723-3.849 8.062-6.328a35.746 35.746 0 0 0 8.077-13.59c2.422-7.484 1.92-16.96 1.92-26.54 0-9.648.029-19.152.098-28.662-.292 0-.578.181-.856.307-2.012.884-4.183 1.622-6.601 2.095-5.687 1.107-12.663.94-18.017-.23a30.37 30.37 0 0 1-7.359-2.624c-.446.355-1.107.599-1.797.905Z" style="fill:#6a005f" transform="translate(-.099 14.5)"/><path d="M77.878 26.677c3.014.327 5.278 1.901 6.642 4.135.181.293.481.766.453.996-.042.243-.223.438-.453.425-.299-.014-.383-.425-.606-.794-1.147-2.012-3.006-3.398-5.666-3.864.125.613.403 1.204.64 1.839.224.626.46 1.273.675 1.885.105.112-.013.258 0 .411.481-.034 1.018-.013.94.522-.104.69-2.164.168-2.93.341-.084.529-.014 1.233-.036 1.825.419.25 2.409-.21 2.813.083.119.076.168.32.153.446-.111.752-2.13.139-2.93.333-.118.627.172 1.504-.453 1.546-.599.034-.431-.794-.445-1.51-.753-.272-2.813.397-2.967-.328-.208-1.03 2.209-.285 2.924-.571a7.598 7.598 0 0 0 0-1.796c-.668-.251-2.784.348-2.924-.334-.11-.53.418-.612.905-.557.106-.097-.054-.223 0-.376.488-1.212.885-2.513 1.394-3.718-3.218.439-5.25 2.389-6.267 5.131.349-.014.878-.216 1.573-.334.739-.125 2.237-.467 1.798.564-.606.195-1.296.174-1.922.306-.613.118-1.17.334-1.685.522-.098.189-.126.453-.154.717.544-.082 1.114-.319 1.838-.452.521-.091 2.076-.465 1.922.376-.07.369-.515.321-.863.341-1.003.063-2.263.39-2.897.745-.027.133 0 .432.041.599.614-.16 1.059-.293 1.839-.418.487-.063 1.657-.39 1.768.153.161.78-1.211.557-1.872.675-.718.133-1.149.335-1.58.48.16.37.166.843-.196.905-.751.168-.835-1.6-.863-2.317-.028-1.1.125-2.075.348-2.82.99-3.397 3.635-5.57 7.505-6.147.279-.411.279-1.233.823-1.177.48.049.431.85.715 1.212Zm-.257 1.761c-.125-.32-.25-1.03-.612-.967-.634 1.308-1.059 2.826-1.616 4.239.321.015.926-.013 1.239 0-.237-1.26 1.198-1.336.905 0h1.281c-.363-.967-.821-2.22-1.197-3.272ZM59.416 29.935c.186.146-.063.375.033.522.544-.105 1.219.313 1.275.606.077.376-.341.78-.23 1.273.919.586 1.142 1.867 2.187 2.339.452.857.751 2.152.556 3.335-.152.899-1.044.996-.863 2.173.084.508.39 1.531.752 1.692.236.105.558-.021.793.146.188.23.098.731-.041.947-.725.132-.989.898-1.88.598-.334-.125-.919-.508-1.086-.793-.112-.181-.098-.439-.188-.634-.188-.425-.523-.682-.717-.982-.543.168-2.214-.117-1.949.759.125.391 1.448.195 1.016 1.198-.153.348-1.295.835-1.727.933a2.431 2.431 0 0 1-.529.034c-.139-.013-.264-.145-.445-.188-.363-.069-.85.091-1.239 0-.237-.041-.892-.508-1.129-.71-.153-.139-.458-.515-.514-.676-.175-.41-.062-.751-.503-.939-.194-.083-.444-.049-.666-.111-.404-.098-.836-.426-1.163-.181-.41.452.237.647.445 1.045.202.375.077.654.119 1.197-.133.18-.419.507-.752.563-.453.084-1.066-.257-1.699-.41-.411-.105-1.03-.105-1.113-.522-.056-.266.207-.419.256-.642.077-.298-.09-.535.113-.779-.285-.439-.161-1.122-.189-1.914-.027-.864-.014-1.448.189-2.068.076-.223.09-.481.16-.606.111-.264.884-.884 1.197-1.044.709-.397 1.893-.71 3.147-.529.264.028.501.25.751.299.474.084 1.114-.049 1.616 0a1.08 1.08 0 0 0 .376-.334c.041-.814-.418-1.135-.641-1.691.104-.823-.139-1.755.153-2.542.077-.223.446-.849.641-1.065.187-.215.585-.523.821-.564.431-.076 1.156.167 1.574.307.236-.167.765-.167 1.093-.042Zm-2.222 1.699c.375.091.516-.363.683-.606-.098-.18-.042-.522-.308-.529.036.536-.221.78-.375 1.135Zm-1.378-.16c.042.055.153.048.266.048.097-.223.132-.521.249-.71-.327-.104-.543.397-.515.662Zm2.359.125c-.34.264-.995.529-.786 1.086.028.007.07 0 .07.028.431-.125.551-.585.864-.856.264-.223.752-.369.71-.877-.433-.161-.584.39-.858.619Zm0 1.754c.008.015.078.077.078.098.14.09.236-.083.404-.098.307-.027.528.147.716.147.181-.174.021-.495-.188-.522-.25.402-1.134-.328-1.01.375Zm2.396-.375c-.194-.021-.271.194-.258.334.029.257.488.543.753.529-.085-.16-.306-.836-.495-.863Zm-3.265.563c-.306.119-.481.397-.557.739.251.104.299-.252.514-.286.259.138.252.536.53.633.069.112.404-.042.418.112 0 .202-.321.202-.529.306-.223.111-.634.439-.975.648-.598.341-1.378.787-.488 1.183.098-.076-.006-.265.042-.355.07-.181.808-.703.892-.717.153-.028.326.083.459.062.39-.048.48-.425.821-.57.215.049.432.09.725.084.34.117.16.766.556.834.181-.25.042-.599.265-.834-.036-.244-.257-.308-.23-.593.063-.146.23-.181.376-.236.355.257.285.939.634 1.197.306-.188.383-.87.194-1.197-.167-.271-.681-.376-.794-.585-.876.007-1.545.223-2.213.432-.264-.222-.377-.613-.64-.857Zm4.316 2.409c.279-.16.126-.744-.18-.759-.133.216-.133.752.18.759Zm-3.53.328c.083.202.397.159.453.375-.112.418.237.627.307.983-.223.32-.572.027-.677-.189-.165.028-.27.112-.27.3.863.055.39 1.058-.146 1.231-.162.07-.384 0-.565.043-.208.055-.405.291-.633.376-.356.125-.683.021-.898.194-.111.439-.056.982.265.976.32-.015.305-.648.633-.753.466.077.418-.293.674-.375.14-.056.3.041.483 0 .52-.147.66-.822.98-1.212.849.105 1.058-.634 1.086-1.233-.473.092-1.043.154-1.128-.257-.042-.299.23-.431.307-.716-.222-.385-.814-.084-.871.257Zm-6.969.118c-.167 0-.131-.202-.333-.154.028.286-.237.286-.306.446.041.202.306.202.375.383.593-.014.753-.446 1.268-.529-.098-.696-.627-.376-1.004-.146Zm1.839-.265c-.14.216.013.578.222.676.349-.154.237-.739-.222-.676Zm1.949 1.532c.16-.188.083-.669-.194-.669-.113.154-.167.753.194.669Zm-6.042.39c.235.132.792.174.974-.042-.133-.258-.133-.48-.112-.71-.375.146-.738.341-.862.752Zm6.223.174c.307.055.918.132.989-.174-.153-.39-1.044-.369-.989.174Zm-4.233.717c-.167.014-.098-.203-.265-.187-.222.006-.222.235-.418.264-.076-.029-.125-.084-.264-.077-.084.077-.209.118-.181.292.194-.083.251-.048.411.042.062-.07.041-.216.188-.216-.028.557-.37 1.135-1.009 1.19-.063.3-.258.446-.453.606-.153.689.042 1.323.711 1.323.048-.125.033-.32.041-.501-.195-.181-.377-.369-.299-.822a.6.6 0 0 1 .445-.153c.285-.265.536-.585.717-.975-.125-.419.307-.71.487-.369 0 .111-.118.307.07.299.154-.041 0-.152 0-.264.188-.244.599-.257.717-.564-.285-.445-.591-.014-.898.112Zm-1.811.689c.21-.174.28-.585.154-.876-.376-.001-.446.723-.154.876Zm4.812.098c.028.139.313.07.411.042 0-.049.013-.084.042-.112-.056-.09-.168-.146-.272-.189.042.189-.195.099-.181.259Zm3.188.453c-.146.068-.299.117-.369.264-.055.251.097.703-.118.786-.362-.257-.633-.062-.87.195-.181-.035-.236-.209-.516-.152-.027.125-.137.584.071.598.209-.042-.112-.39.153-.39.069.182.195.293.292.431-.014.279-.112.843.042 1.052.446-.132.02-1.135.571-1.177.18.105.131.446.147.717.159.07.354.314.633.342.306.034.855-.07.975-.299-.196-.154-.516-.161-.669-.342-.062-.042-.042-.195-.042-.293-.368-.249-.543-.876-.376-1.433.056-.182.431-.439.112-.641-.057.063-.029.223-.036.342Zm-6.982 2.177v.106c.334-.035.411.369.682.271a.605.605 0 0 0-.682-.377ZM103.771 41.277c-.362-.237-.835.096-1.212.18-.453.112-.856.104-1.045.494-.083.181-.041.383-.111.557-.306.731-1.016.919-1.574 1.385-.376.071-.821-.076-1.273 0-.307.056-.452.252-.94.155-.696-.126-1.651-.586-1.804-.976-.299-.751.523-.877 1.017-1.086.133-.752-.411-.633-1.058-.709-.306-.043-.661-.161-.829-.119-.167.049-.625.626-.779.981-.085.182-.07.431-.154.599-.223.445-1.086.926-1.572.891-.62-.02-.724-.571-1.429-.661-.159-.313-.215-.758 0-.947.174-.146.648-.069.864-.23.258-.18.842-1.677.641-2.394-.132-.46-.732-.864-.829-1.233a4.443 4.443 0 0 1-.041-.648c0-.905.027-2.136.571-2.805.223-.285.626-.431.905-.717.5-.543.57-1.42 1.308-1.608-.02-.523-.167-.89-.264-1.323.278-.341.571-.683 1.274-.606.118-.167-.147-.362.034-.522.3-.111.85-.139 1.044.042.397-.167.85-.237 1.289-.306.772-.119 1.211.66 1.497 1.176.208.362.389.578.453 1.156.026.264.006.605 0 .947 0 .298.034.655 0 .856-.133.744-1.206 1.574-.258 2.06.494-.062 1.072.099 1.6 0 .279-.048.544-.271.718-.299.564-.097 1.247-.056 1.692 0 1.1.146 1.963.864 2.659 1.504.014.438.342.815.418 1.302.111.78.083 2.012-.035 2.785-.063.389-.202.758-.076 1.309.056.25.278.397.257.605-.036.495-.662.495-1.191.641-.946.258-1.949.724-2.367-.223.021-.558-.062-.835.153-1.211.196-.363.766-.488.447-1.002Zm-6.043-9.643c.014-.244-.265-.293-.335-.529-.07-.202.091-.474-.125-.648-.46.362-.062 1.268.46 1.177Zm1.086-.112c.14.014.236-.02.292-.083-.049-.327-.181-.585-.481-.669-.062.21.175.474.189.752Zm-2.966-.542c.027.633.563.668.905 1.023.265.285.334.661.668.71.383-.46-.348-.988-.745-1.156-.173-.258-.383-.696-.828-.577Zm-1.239 2.262c0-.091-.14-.285-.292-.264-.168.027-.461.772-.461.863.279.021.767-.355.753-.599Zm1.573-.111c-.174.02-.376-.181-.515-.153-.168.041-.362.466-.084.521.168-.103.78-.243 1.017 0 .229-.146.118-.403-.084-.521-.167-.007-.146.124-.334.153Zm1.475.41c-.374.168-.389.683-.751.857a5.973 5.973 0 0 0-2.186-.432c-.111.25-.725.362-.822.71-.111.355 0 .835.18 1.072.447-.195.488-1.768 1.101-.898-.055.223-.223.341-.273.571.252.167.113.529.232.793.459 0 .256-.647.564-.793.243-.055.55-.055.785-.125.362.257.641.737 1.268.508.335.342.961.474.913 1.072.286 0 .466-.306.438-.48-.028-.355-.787-.648-1.157-.864-.215-.131-.39-.313-.598-.418-.251-.118-.598-.104-.64-.375.027-.125.251-.056.376-.063.278-.133.278-.557.57-.682.195.034.285.369.481.286.007-.258-.229-.599-.481-.739Zm-4.538 2.207c.265.466.556-.209.369-.557-.3.015-.328.307-.369.557Zm2.813.272c.104.258.306.418.327.745-.16.417-.774.244-1.163.257.09.529.194 1.345 1.086 1.177.292.452.515.954.988 1.239.655-.25.599.404 1.156.376.334.097.32.731.634.752.369.028.39-.648.271-1.017-.32-.132-.606-.02-.947-.153-.159-.062-.278-.278-.445-.334-.252-.084-.522.014-.752-.084-.32-.125-.571-.612-.571-1.009.077-.18.417-.083.46-.306-.014-.139-.112-.188-.223-.216-.139.216-.508.522-.717.146.146-.313.397-.501.341-1.023.097-.132.376-.09.411-.292-.021-.377-.647-.613-.856-.258Zm6.822.501c.487.104.697.522 1.28.55.056-.195.364-.174.405-.383-.112-.147-.355-.161-.334-.446-.223-.048-.167.181-.377.154-.361-.279-.821-.488-.974.125Zm-1.016.286c.166-.126.334-.398.223-.676-.481-.07-.628.557-.223.676Zm-1.643.187c-.168.098-.287.495-.112.669.37.09.404-.62.112-.669Zm4.943 1.059c.244.16.683.097.981.035-.097-.452-.481-.634-.864-.787.035.236 0 .48-.117.752Zm-6.183.063c.125.201.669.18.933.111.098-.564-.906-.585-.933-.111Zm4.275.751c.18.229.522.314.711.529-.015.084-.07.195 0 .265.236-.02.097-.181.076-.342.563-.41.494.571.745.933.166.245.376.273.459.453.139.028.293.042.417.077.322.571-.528.828-.193 1.4.835.11.96-1.387.348-1.616 0-.125-.056-.181-.084-.265-.627-.084-1.072-.73-1.017-1.239.139.279.355.063.599.174-.014-.16-.125-.23-.258-.292-.104.007-.16.077-.27.077-.098-.084-.168-.216-.335-.265-.167 0-.125.222-.328.188-.244-.203-.647-.529-.87-.077Zm2.771.724c.215-.209.138-.821-.18-.835-.168.25-.12.752.18.835Zm-5.285.14c.091.083.244.083.412.083 0-.062.012-.083.039-.125-.137-.091-.444-.327-.451.042Zm-2.667.794c-.069.368 0 .654-.04 1.044-.196.181-.405.319-.362.64-.196.188-.599.16-.718.418.481.265 1.303.285 1.616-.119.048-.257-.062-.682.223-.717.472.097.061 1.065.529 1.177.133-.23.091-.829 0-1.052.174-.111.174-.375.412-.431.026.125-.085.39.068.39.153-.091.132-.474.042-.599-.313-.07-.313.153-.564.153-.139-.369-.53-.389-.871-.195-.124-.23-.04-.467-.069-.814-.278-.105-.362-.384-.459-.578-.14.314.097.515.193.683Zm6.225 2.248c.265-.076.46-.222.647-.376-.215-.146-.647.063-.647.376Z" style="fill:#6a005f" transform="translate(-.099 14.5)"/><path d="M84.479 32.831c.23-.035.299-.3.605-.258.474.035.586 1.316.641 1.949.085 1.114-.014 4.109-1.128 3.114a1.147 1.147 0 0 1 .071-.565c-.531-.313-1.589-.55-2.514-.64-.467-.035-1.122.028-.941-.599.147-.502 1.323-.181 1.803-.118.746.125 1.177.251 1.762.418.125-.098.056-.384.118-.564-.437-.327-1.921-.717-2.889-.78-.474-.034-.946.021-.946-.453 0-.215.167-.278.306-.418 1.35.022 2.443.286 3.453.634.279-.946-.961-1.065-1.658-1.239-.695-.16-1.406-.195-1.949-.257-.305-.153-.278-.773.188-.787.864-.022 2.513.305 3.078.563ZM78.777 43.49c-.836-1.086 1.838-.975 2.172-1.538-.368-.189-.89-.279-1.386-.341a11.34 11.34 0 0 0-1.503-.126c.034.752.369 2.034-.439 2.263-.571.146-2.325-.014-2.408-.418-.175-.926 1.336-.32 2.018-.41.18-.405.021-1.079-.111-1.435-1.344-.111-2.631.146-3.746.39.334.522 1.309.39 1.386.899.188 1.12-1.748-.015-2.027-.195-1.057-.606-1.831-1.309-2.59-2.327-.298-.395-.905-1.161-.863-1.565.042-.404.927-.634 1.504-.787 3.378-.912 7.269-1.26 11.028-.494.509.104 1.094.299 1.685.494.495.153 1.414.355 1.477.71.077.467-.788 1.566-.982 1.838-.857 1.149-1.74 1.866-3.071 2.472-.626.278-1.337.591-2.144.57Zm-8.453-4.546c.509.967 1.226 1.706 2.034 2.367a9.504 9.504 0 0 1 1.768-.452c-.25-.238-.564-.376-.906-.641-.248-.188-.736-.466-.715-.856.034-.411.912-.621 1.503-.753 1.97-.438 4.282-.382 6.161.028.585.14 1.575.293 1.575.759 0 .265-.447.648-.683.821-.32.266-.682.293-.891.641.696.049 1.225.272 1.796.453.85-.592 1.489-1.393 1.948-2.367-3.578-1.497-9.962-1.393-13.59 0Zm3.538.647c1.461 1.275 5.026 1.275 6.488 0-1.741-.57-4.755-.57-6.488 0Z" style="fill:#6a005f" transform="translate(-.099 14.5)"/><path d="M52.168 65.538c0-.083-.035-.187-.07-.348-.041-.145-.076-.256-.118-.299-.062-.097-.182-.167-.368-.194a4.435 4.435 0 0 0-.683-.05H46.94v-.341l4.448-3.286h-2.805c-.313 0-.55.014-.717.056-.174.035-.292.091-.363.188-.055.055-.111.181-.153.361-.055.181-.083.3-.083.355h-.265v-2.22h.265c.014.069.028.188.083.341.042.168.084.265.112.306.07.092.181.16.32.181.153.036.405.063.766.063h2.674c.111 0 .23-.028.348-.07a.658.658 0 0 0 .278-.16 1.586 1.586 0 0 0 .32-.766h.265v1.56l-4.15 3.049h2.59c.315 0 .564-.007.731-.055.174-.028.287-.098.342-.181.049-.07.097-.175.139-.342.042-.167.07-.292.083-.369h.264v2.221h-.264ZM47.448 71.742l-.237-2.241.271-.028c.036.194.077.363.133.487.041.125.097.18.167.18a.176.176 0 0 0 .07-.02c.028-.007.061-.014.083-.035l1.17-.564-.188-1.901c-.189-.055-.348-.104-.481-.125-.139-.034-.263-.07-.376-.083-.125-.027-.208-.027-.278-.042h-.167c-.104.015-.167.091-.216.265a2.225 2.225 0 0 0-.041.543l-.271.028-.211-2.048.272-.013c.015.063.036.146.069.25a.65.65 0 0 0 .133.223c.07.105.153.168.23.224.076.048.189.09.327.132.71.202 1.505.411 2.381.668.878.236 1.658.452 2.353.647l.029.3-4.491 2.283a.685.685 0 0 0-.23.147.697.697 0 0 0-.152.23.658.658 0 0 0-.064.23c-.021.097-.021.174-.021.243l-.264.02Zm1.977-2.395 2.027-1.03-2.18-.599.153 1.629ZM53.908 77.43a1.529 1.529 0 0 0-.313-.591c-.076-.07-.215-.105-.403-.105a3.877 3.877 0 0 0-.683.105l-3.892.856-.069-.321 3.64-4.177-2.742.599a2.904 2.904 0 0 0-.69.215c-.159.084-.264.167-.32.259-.042.069-.07.201-.07.382-.014.202-.014.327 0 .369l-.264.069-.487-2.179.264-.062c.028.07.084.174.161.327.076.154.132.236.18.272.091.083.202.111.355.111.152 0 .405-.028.752-.111l2.611-.578c.118-.028.229-.07.341-.132a.82.82 0 0 0 .222-.223c.07-.105.112-.258.14-.411.014-.175.021-.307.007-.397l.264-.055.341 1.51-3.397 3.892 2.521-.572c.32-.069.541-.132.71-.216.16-.069.25-.146.292-.243.027-.077.055-.208.062-.369a1.902 1.902 0 0 0-.007-.368l.265-.07.481 2.165-.272.049ZM55.607 80.625a3.31 3.31 0 0 0-.159-.216 6.111 6.111 0 0 0-.19-.194c-.076-.063-.145-.097-.22-.077a.489.489 0 0 0-.225.077l-2.798 1.601a1.423 1.423 0 0 1-.515.174c-.195.035-.39.035-.585 0a1.94 1.94 0 0 1-.627-.264 1.945 1.945 0 0 1-.481-.558c-.201-.348-.279-.696-.201-1.051.083-.341.278-.606.633-.801.14-.082.3-.125.466-.125a.494.494 0 0 1 .377.25c.062.14.09.251.056.376-.015.126-.098.224-.216.3a.774.774 0 0 1-.245.084c-.083.014-.159.014-.235.014-.078-.007-.154-.007-.251-.007-.091-.007-.174 0-.238.007a.755.755 0 0 0-.069.334c0 .132.049.271.139.438a.777.777 0 0 0 .349.328c.132.062.278.082.431.062a1.75 1.75 0 0 0 .489-.139c.18-.083.375-.167.577-.286l2.499-1.441a.954.954 0 0 0 .167-.139.418.418 0 0 0 .056-.243 1.735 1.735 0 0 0-.07-.313c-.042-.112-.084-.196-.118-.273l.244-.131 1.191 2.074-.231.139ZM53.693 86.85l-1.484-1.942.21-.168c.055.049.125.132.202.23.09.091.16.16.202.195a.482.482 0 0 0 .222.056.595.595 0 0 0 .223-.097l3.132-2.396a.499.499 0 0 0 .161-.167c.028-.055.028-.139 0-.25a2.895 2.895 0 0 0-.11-.286 2.93 2.93 0 0 0-.134-.25l.216-.168 1.483 1.943-.222.167c-.042-.062-.112-.126-.189-.202a1.107 1.107 0 0 0-.229-.195.286.286 0 0 0-.23-.063.56.56 0 0 0-.216.098l-3.126 2.394a.449.449 0 0 0-.147.175.436.436 0 0 0-.014.249c.022.043.064.14.112.238.057.117.105.209.154.271l-.216.168ZM63.043 88.778a2.534 2.534 0 0 0-.279-.188 1.19 1.19 0 0 0-.32-.125c-.112-.014-.237.027-.391.132-.138.119-.319.272-.499.474l-2.759 2.882-.236-.229.682-5.494-1.935 2.026c-.216.237-.369.411-.46.572a.726.726 0 0 0-.111.382c0 .091.054.209.154.369.097.16.166.264.208.307l-.181.195-1.622-1.546.195-.188c.048.049.146.104.299.181.154.084.25.132.306.132a.523.523 0 0 0 .362-.125c.119-.084.307-.244.544-.501l1.866-1.943c.069-.09.138-.174.194-.292a.665.665 0 0 0 .063-.306 1.092 1.092 0 0 0-.119-.419 1.572 1.572 0 0 0-.209-.347l.181-.196 1.128 1.08-.64 5.11 1.782-1.866c.216-.237.377-.432.46-.572a.79.79 0 0 0 .111-.375 2.04 2.04 0 0 0-.167-.341 2.743 2.743 0 0 0-.208-.313l.18-.195 1.601 1.524-.18.195ZM66.121 94.376c-.056-.028-.141-.063-.224-.112a1.228 1.228 0 0 0-.243-.083.457.457 0 0 0-.237.048.624.624 0 0 0-.174.182l-.237.348c-.168.256-.292.425-.341.515-.063.098-.104.16-.132.222a5.112 5.112 0 0 1-1.044-.271 5.34 5.34 0 0 1-.892-.445 2.856 2.856 0 0 1-.716-.731 2.407 2.407 0 0 1-.39-.926 2.569 2.569 0 0 1 .021-1.065c.069-.363.222-.739.473-1.086a2.957 2.957 0 0 1 1.81-1.282 2.565 2.565 0 0 1 1.051-.007c.355.07.703.217 1.01.425.251.174.46.355.612.551.139.188.251.362.348.55l.265-.133.258.181-1.038 1.594-.25-.18c.07-.21.125-.398.166-.62.056-.216.071-.418.056-.634a1.363 1.363 0 0 0-.166-.57 1.466 1.466 0 0 0-.445-.481c-.238-.146-.462-.244-.704-.271-.244-.028-.494 0-.745.097a1.949 1.949 0 0 0-.738.467 4.168 4.168 0 0 0-.711.793 3.926 3.926 0 0 0-.438.883c-.104.3-.147.593-.147.864.007.273.071.537.196.781.124.229.313.438.557.612.194.125.375.222.57.251.195.041.348.069.446.041.098-.104.182-.195.258-.313.076-.111.145-.209.194-.278l.161-.251a.59.59 0 0 0 .125-.258.271.271 0 0 0-.042-.257c-.056-.077-.124-.174-.229-.264-.119-.098-.202-.175-.272-.209l.153-.251 1.984 1.343-.159.23ZM79.766 95.26c-.071 0-.168.014-.307.048a1.046 1.046 0 0 0-.341.119c-.091.062-.146.187-.175.369a3.65 3.65 0 0 0-.055.668v2.368c0 .292-.063.556-.188.779a1.74 1.74 0 0 1-.494.557 1.852 1.852 0 0 1-.641.292 2.127 2.127 0 0 1-.641.098c-.32 0-.619-.042-.87-.132a1.998 1.998 0 0 1-.648-.349 1.297 1.297 0 0 1-.376-.502 1.254 1.254 0 0 1-.138-.584v-3.202a.545.545 0 0 0-.042-.236c-.027-.063-.091-.119-.181-.161a.648.648 0 0 0-.244-.098 1.623 1.623 0 0 0-.244-.034v-.278h2.256v.278c-.07 0-.16.006-.265.028-.111.02-.187.049-.237.062a.227.227 0 0 0-.173.146.644.644 0 0 0-.049.251v2.994c0 .139.014.3.049.453.034.159.098.305.188.452.103.139.236.25.41.334.174.09.397.146.705.146.277 0 .514-.056.708-.146.182-.084.341-.195.446-.341.097-.14.181-.286.229-.439.035-.153.063-.292.063-.452v-2.222c0-.291-.028-.522-.063-.703-.048-.173-.104-.299-.173-.354a1.355 1.355 0 0 0-.37-.154c-.161-.027-.277-.055-.361-.055v-.278h2.221l.001.278ZM86.08 92.503c-.063.041-.16.097-.27.195a1.34 1.34 0 0 0-.252.243c-.055.091-.062.224-.014.398.036.187.112.403.222.654l1.595 3.648-.313.146-4.79-2.764 1.121 2.569c.118.286.229.501.341.633.104.154.21.23.307.258.083.035.215.035.396 0 .189-.021.314-.049.369-.07l.111.25-2.053.9-.111-.259c.069-.027.159-.104.299-.216a1.11 1.11 0 0 0 .229-.222c.056-.098.064-.231.036-.383-.028-.147-.112-.369-.251-.71l-1.072-2.451c-.056-.104-.112-.216-.195-.299a.718.718 0 0 0-.265-.181 1.221 1.221 0 0 0-.418-.049 1.203 1.203 0 0 0-.396.077l-.105-.258 1.42-.619 4.456 2.575-1.03-2.373a3.786 3.786 0 0 0-.348-.648c-.106-.147-.203-.223-.3-.237-.09-.027-.202-.027-.376 0-.16.028-.286.063-.368.09l-.105-.257 2.025-.87.105.23ZM91.524 95.65l-2.199 1.072-.119-.244c.063-.028.146-.09.265-.146.111-.07.188-.133.222-.168a.46.46 0 0 0 .105-.215.411.411 0 0 0-.048-.23l-1.742-3.537a.445.445 0 0 0-.125-.195.432.432 0 0 0-.25-.042c-.083.008-.182.028-.293.042a2.597 2.597 0 0 0-.278.091l-.126-.244 2.208-1.072.119.244c-.07.035-.147.091-.245.147a.929.929 0 0 0-.23.187.324.324 0 0 0-.11.23c0 .062.027.139.054.216l1.728 3.536c.034.077.083.14.152.174.056.049.14.063.238.057a.848.848 0 0 0 .264-.057c.112-.027.216-.062.292-.09l.118.244ZM94.191 87.107c-.049.055-.113.119-.168.196a.866.866 0 0 0-.111.229.499.499 0 0 0-.034.286c.013.09.034.209.062.326.124.432.32 1.087.585 1.963.278.885.557 1.804.848 2.765l-.243.195a176.568 176.568 0 0 1-2.611-1.567c-.849-.501-1.413-.835-1.712-1.016a1.1 1.1 0 0 0-.231-.091 1.83 1.83 0 0 0-.257 0 .968.968 0 0 0-.243.07c-.076.035-.147.076-.21.104l-.174-.209 1.755-1.399.181.208a3.44 3.44 0 0 0-.349.349c-.082.104-.097.181-.054.236a.17.17 0 0 0 .068.07c.035.028.057.049.084.063.223.138.599.348 1.121.661.523.327 1.259.759 2.221 1.323-.154-.487-.321-1.065-.523-1.727a56.084 56.084 0 0 0-.439-1.35 2.39 2.39 0 0 0-.18-.46c-.049-.083-.09-.145-.118-.195-.035-.049-.092-.07-.161-.063a.568.568 0 0 0-.223.049 2.808 2.808 0 0 0-.459.258l-.18-.216 1.586-1.26.169.202ZM100.268 85.339l1.162 1.099-2.895 3.468-.209-.167c.049-.063.104-.153.182-.258.062-.111.104-.18.111-.237a.318.318 0 0 0 0-.209.48.48 0 0 0-.154-.187l-3-2.514a.43.43 0 0 0-.203-.104c-.062-.021-.138-.014-.234.028-.072.028-.141.09-.239.153-.097.077-.166.139-.223.188l-.202-.16 2.695-3.244 1.003.842-.182.222a1.562 1.562 0 0 0-.682-.138c-.286-.008-.48.041-.591.138-.064.056-.12.126-.202.196-.071.076-.154.181-.252.285l-.529.662 1.643 1.378.405-.467c.118-.145.201-.271.236-.361a.562.562 0 0 0 0-.299.81.81 0 0 0-.139-.314 3.12 3.12 0 0 0-.21-.286l.182-.216 1.629 1.366-.174.208c-.105-.056-.223-.125-.354-.174a1.058 1.058 0 0 0-.322-.09.524.524 0 0 0-.32.09c-.097.049-.187.146-.292.286l-.404.459 1.267 1.045c.126.111.223.18.314.223.09.048.174.048.257.041a.781.781 0 0 0 .25-.153c.07-.076.181-.21.327-.376.043-.063.12-.133.203-.251.096-.09.166-.188.214-.271.064-.077.106-.181.154-.278.049-.084.063-.169.049-.224 0-.174-.069-.383-.187-.654a5.193 5.193 0 0 0-.258-.536l.174-.209ZM104.78 80.271l-.696 1.266c-.605.057-1.136.105-1.581.168-.445.042-.919.112-1.406.194l-.271.489 1.511.821a.745.745 0 0 0 .222.077.334.334 0 0 0 .23-.084c.041-.035.091-.105.159-.195.07-.084.126-.174.161-.251l.244.132-1.1 2.026-.237-.131c.028-.056.056-.14.104-.252a.701.701 0 0 0 .069-.222.327.327 0 0 0-.048-.217.684.684 0 0 0-.181-.166l-3.467-1.88a1.346 1.346 0 0 0-.224-.07c-.076-.014-.152.014-.222.07-.055.056-.111.126-.174.202a.932.932 0 0 0-.16.209l-.244-.119 1.205-2.22c.111-.203.223-.39.363-.523.138-.16.292-.285.466-.389a1.136 1.136 0 0 1 1.12.02c.189.105.335.224.445.355.113.126.189.272.237.446.043.153.056.321.056.501a4.635 4.635 0 0 1-.082.557c.445-.063.821-.119 1.113-.153.292-.041.654-.098 1.086-.153.188-.028.342-.062.439-.098.117-.056.201-.097.286-.16.069-.049.124-.112.195-.187.061-.078.103-.147.138-.196l.244.133Zm-4.525-.168c-.292-.16-.564-.202-.829-.125-.251.076-.466.272-.626.571l-.32.578 2.059 1.1.237-.439a1.23 1.23 0 0 0 .126-.933c-.09-.32-.306-.556-.647-.752ZM103.381 75.627a1.17 1.17 0 0 1 .466-.139c.167-.014.342 0 .536.056a1.45 1.45 0 0 1 1.017.807c.208.425.25.884.118 1.4-.062.222-.16.459-.286.675-.139.23-.278.39-.432.536l.231.23-.077.306-1.81-.424.084-.3c.236 0 .444-.028.654-.07.202-.027.39-.09.585-.18.181-.098.333-.224.466-.363.133-.153.222-.334.286-.571.041-.167.063-.334.048-.459a.68.68 0 0 0-.112-.355.934.934 0 0 0-.229-.265 1.89 1.89 0 0 0-.375-.16 1.234 1.234 0 0 0-.635.027 1.174 1.174 0 0 0-.549.433c-.112.146-.23.306-.363.501-.125.174-.25.347-.361.487a1.784 1.784 0 0 1-.704.543c-.258.112-.564.118-.905.034a1.475 1.475 0 0 1-.536-.278 1.438 1.438 0 0 1-.363-.467 1.524 1.524 0 0 1-.173-.576 1.818 1.818 0 0 1 .049-.649c.069-.236.152-.451.278-.619.125-.174.25-.327.405-.446l-.224-.23.069-.306 1.762.431-.076.307c-.21 0-.418.007-.62.028a2.207 2.207 0 0 0-.565.132c-.173.07-.312.174-.444.307-.126.133-.209.299-.279.521a.955.955 0 0 0 .07.662.807.807 0 0 0 .487.397 1 1 0 0 0 .613-.015c.18-.062.341-.193.487-.361.132-.16.251-.32.362-.48.111-.161.223-.306.335-.453.097-.125.208-.258.327-.37.118-.11.243-.215.383-.284ZM106.611 72.021l-.334 2.423-.271-.036c.007-.083.013-.173.02-.305a.903.903 0 0 0-.007-.286.446.446 0 0 0-.111-.196.416.416 0 0 0-.23-.09l-3.906-.522c-.091-.007-.159 0-.222 0a.364.364 0 0 0-.181.188c-.036.069-.084.153-.119.271-.041.105-.083.203-.097.279l-.265-.035.335-2.423.264.035c-.006.07-.006.167-.006.279 0 .118.006.209.02.298a.35.35 0 0 0 .126.21c.062.041.139.07.221.07l3.9.543c.084.014.153 0 .222-.021a.323.323 0 0 0 .182-.181.994.994 0 0 0 .104-.237c.049-.118.069-.223.083-.306l.272.042ZM103.158 65.574l-.014.257a1.712 1.712 0 0 0-.328.118c-.131.057-.257.12-.369.181-.11.077-.222.154-.306.251-.097.083-.152.167-.166.258a4.798 4.798 0 0 0-.042.292c0 .118-.014.236-.014.334l-.015.229 4.352.154c.083 0 .16-.007.23-.042.084-.027.125-.098.166-.181.028-.041.057-.132.098-.285.028-.146.049-.251.056-.334l.272.007-.105 2.568-.264-.013c0-.063-.015-.188-.022-.328a.879.879 0 0 0-.049-.306.37.37 0 0 0-.131-.194.5.5 0 0 0-.251-.071l-4.38-.167-.012.23v.292c0 .111 0 .23.012.328.008.09.057.18.14.278.084.09.188.18.299.257.105.077.231.16.356.223.125.063.237.104.321.125l-.015.272-1.476-.056.18-4.741 1.477.064ZM102.03 59.635c.007.034.028.111.042.209.042.09.069.167.097.202.056.104.105.167.133.209.035.035.125.104.257.202.285.216.564.397.85.577.285.168.653.377 1.085.641.168.104.3.174.398.195.104.049.243.062.431.062l1.037.014a.497.497 0 0 0 .251-.055.493.493 0 0 0 .154-.174 1.57 1.57 0 0 0 .082-.293c.028-.139.049-.236.057-.326h.278l-.056 2.547-.264-.014c0-.069-.015-.167-.028-.313a1.131 1.131 0 0 0-.049-.299.39.39 0 0 0-.147-.195.472.472 0 0 0-.25-.056l-1.323-.014c-.042-.014-.112.014-.223.063-.111.048-.236.097-.362.166-.306.154-.633.321-.974.495-.349.181-.648.342-.899.481a1.076 1.076 0 0 0-.334.222c-.076.056-.133.126-.202.209a.657.657 0 0 0-.082.223c-.029.084-.043.16-.05.223h-.265l.035-2.325h.28c0 .264.012.453.04.57.028.099.07.154.126.161a.185.185 0 0 0 .07-.021c.041-.013.097-.041.153-.063.069-.035.153-.077.229-.118.091-.042.175-.083.251-.132.231-.118.466-.23.689-.356.224-.111.522-.278.891-.472-.64-.405-1.135-.725-1.503-.94-.349-.217-.564-.321-.634-.321-.063 0-.112.014-.146.063-.036.028-.056.09-.084.16a.846.846 0 0 0-.048.243c-.008.085-.008.175-.022.245h-.278l.042-1.894.265-.001ZM75.038 82.102c-.201 0-.369.083-.521.25-.155.16-.224.376-.224.64 0 .231.069.425.21.572a.698.698 0 0 0 .528.215.672.672 0 0 0 .516-.215c.139-.147.202-.355.202-.613s-.063-.459-.218-.613a.62.62 0 0 0-.493-.236ZM78.471 82.102a.577.577 0 0 0-.494.271c-.147.216-.232.634-.232 1.246 0 .606.071.996.211 1.198.152.209.32.307.528.307.196 0 .377-.098.523-.307.139-.202.215-.592.215-1.198 0-.612-.076-1.009-.215-1.211-.146-.196-.327-.306-.536-.306Z" style="fill:#6a005f;fill-rule:nonzero" transform="translate(-.099 14.5)"/><path d="M98.855 46.268H55.399c-.056.007-.042.076-.07.119-.042 5.583.021 11.334 0 16.771-.042 5.507.758 10.485 2.548 14.404 1.755 3.878 4.637 6.67 7.909 9.015 3.329 2.362 7.491 3.628 11.334 5.613 3.829-1.999 7.979-3.245 11.292-5.661 3.273-2.368 6.232-5.082 7.965-9.002 1.727-3.933 2.506-8.779 2.506-14.446 0-5.472.042-11.277-.028-16.813ZM65.361 70.934c2.953-1.531 5.911-3.216 8.222-5.444-1.532.376-2.757.418-4.024.404.209-.334.557-.543.836-.814 1.949-1.825 4.135-3.565 5.193-6.329a8.137 8.137 0 0 1-2.583.446c1.901-2.438 3.398-5.298 4.192-8.829h.111c.78 3.545 2.305 6.371 4.198 8.829-.85-.057-1.56-.091-2.541-.473.042.41.257.799.44 1.154.938 1.727 2.449 3.098 3.856 4.428.57.529 1.183.997 1.685 1.588-1.56.139-2.271.014-3.982-.44.556.662 1.287 1.15 1.962 1.685 1.839 1.504 4.037 2.625 6.251 3.795.175.091.447.153.516.383a13.33 13.33 0 0 1-5.861-.516c-2.423-.834-4.72-.884-6.42.704-1.893-1.525-3.766-1.546-6.794-.746-1.727.537-3.983.781-5.8.558.063-.25.355-.285.543-.383ZM72.08 85.43h-.453v-2.876c-.112.119-.258.202-.439.293-.166.117-.32.195-.466.25v-.424c.257-.132.466-.279.662-.445.193-.182.325-.336.403-.488h.292l.001 3.69Zm4.024-.794c-.111.278-.265.494-.46.633a1.208 1.208 0 0 1-.71.224c-.293 0-.529-.077-.71-.245-.18-.152-.293-.376-.333-.675l.43-.042c.041.21.119.362.224.453.096.104.236.14.396.14a.762.762 0 0 0 .369-.098.81.81 0 0 0 .25-.257c.071-.112.126-.251.168-.426.049-.181.07-.362.07-.556v-.104a.868.868 0 0 1-.376.361.987.987 0 0 1-.501.14c-.307 0-.564-.119-.773-.335-.217-.23-.328-.515-.328-.877s.111-.668.335-.898c.223-.223.501-.334.82-.334.251 0 .46.063.67.18.195.126.348.314.459.565.083.237.147.571.147 1.03a4 4 0 0 1-.147 1.121Zm3.446.021c-.09.264-.216.481-.397.612a1.016 1.016 0 0 1-.669.224c-.355 0-.64-.126-.841-.383-.244-.3-.37-.801-.37-1.491 0-.446.055-.793.138-1.051.093-.27.224-.473.405-.606.174-.159.403-.222.668-.222.196 0 .369.035.523.111a.953.953 0 0 1 .369.341c.098.16.167.334.222.551.056.215.083.507.083.876.001.425-.048.78-.131 1.038Zm3.556.773h-2.435c0-.105.014-.224.056-.306.063-.168.166-.342.305-.495.133-.167.328-.342.586-.564.396-.334.667-.578.813-.78.14-.188.217-.362.217-.542a.58.58 0 0 0-.202-.445.68.68 0 0 0-.502-.196c-.216 0-.39.07-.522.202a.757.757 0 0 0-.194.536l-.474-.041c.041-.342.153-.614.361-.795.21-.187.487-.264.844-.264.354 0 .633.09.835.286a.98.98 0 0 1 .312.73c0 .14-.027.3-.09.439a2.002 2.002 0 0 1-.3.452c-.138.154-.375.363-.703.641-.27.223-.444.389-.521.46-.071.09-.138.167-.188.257h1.801l.001.425Zm-3.723-10.263.118.976h-4.219l.125-.976H62.179l1.651-2.025c1.399-.077 4.1-.432 6.412-1.295 4.497-1.685 7.226.626 7.226.626 2.151-1.803 4.853-1.428 7.353-.507 2.352.863 5.952 1.127 5.952 1.127l1.552 2.075-12.942-.001Z" style="fill:#6a005f;fill-rule:nonzero" transform="translate(-.099 14.5)"/></svg>