<svg xmlns="http://www.w3.org/2000/svg" width="154" height="157" fill="none"><g filter="url(#a)"><path fill="#fff" d="M13 0h128v128H13z"/><path fill="#336D80" fill-rule="evenodd" d="M51.003 61.108c.015-.002.024.003.026.013.075.165.168.312.24.48-.077.038-.128.101-.213.132-.043-.08.08-.094.093-.173.018-.099-.054-.185-.12-.253-.117.039-.202.109-.319.147.008.059.03.103.067.133.066.022.101-.057.146-.013.013.052-.09.079-.146.106-.064.031-.126.079-.173.066-.038-.061.083-.062.093-.12 0-.06-.038-.086-.054-.133-.115.07-.264.108-.359.2a.45.45 0 0 0 .134.24c.083.02.174-.046.212.013-.056.06-.166.064-.253.093-.062-.172-.216-.323-.226-.505.057-.036.026.04.093.026.253-.11.487-.24.732-.359-.004-.044-.002-.082.027-.093Z" clip-rule="evenodd"/><path fill="#336D80" fill-rule="evenodd" d="M39.695 71.046c-.034.117.005.306-.027.425.137-.005.115-.11.24-.106.297.008.158.617-.16.386-.001-.05.057-.04.04-.107-.024-.02-.109-.02-.133 0-.06.29.48.24.532.027.085-.341-.259-.414-.452-.293v-.253c.116-.03.39.07.399-.066-.12-.03-.297-.005-.44-.013Zm1.05-.014c-.063.114-.14.205-.212.306-.064.088-.151.181-.173.306h.346c-.005.05.011.118-.013.146-.04.013-.135-.028-.133.027.04.023.118.014.185.014.071-.001.165.021.187-.027-.006-.038-.1.012-.107-.027-.023-.025-.01-.088-.013-.133.044-.013.145.03.147-.026-.02-.04-.128.012-.147-.027v-.559h-.066Zm-1.41.772c.125-.087.166-.456.08-.639-.068-.145-.352-.202-.465-.04-.081.117-.057.381.093.413a.647.647 0 0 0 .293-.04c.02.194-.133.403-.293.252.012-.035.072-.025.053-.093-.045-.043-.14-.028-.16.027.013.207.317.178.4.12Zm-.89-.772c-.034.07-.168.038-.214.093.02.04.128-.012.146.027v.625c-.031.035-.151-.019-.159.04.05.024.136.014.213.014.08 0 .18.021.213-.027-.03-.036-.146.013-.16-.04-.002-.18.003-.39 0-.559-.001-.058.023-.138-.027-.173h-.013Zm3.578-1.09c.041.074.09.139.2.146.062-.133.063-.326.106-.48-.187.027-.22.207-.306.333Zm1.064-.48c.106.165.243.298.426.386.058-.076.09-.254.04-.359-.119-.043-.349-.065-.466-.027Zm-8.927-.731c-.379.14-.048.623.2.599.085-.248-.155-.393-.2-.6Zm-1.29-.213c-.103.04-.239.05-.28.146.053.094.14.153.24.2.077-.044.136-.114.2-.173.062-.058.162-.112.16-.226-.104-.075-.227.017-.32.053Zm6.891-.386c.057.257-.084.382-.333.373.033-.072.196-.077.147-.187-.075-.056-.164.058-.226.014.053-.111.294-.034.306-.187-.046-.077-.143-.024-.213-.013-.128.02-.255.034-.373.053-.01.109.125.07.147.147 0 .044-.041.08-.067.12-.02.03-.086.079-.04.092.075.012.142-.093.187-.026-.033.083-.14.09-.24.106-.008-.114.116-.284-.053-.292-.06.21-.017.538.013.745.153-.027.308-.028.452-.067.089-.023.169-.078.253-.093.065-.012.147.006.213-.013.06-.018.085-.066.133-.067.083 0 .172.073.213.147-.302.055-.579.047-.838.106-.131.03-.255.093-.386.12-.166.034-.334.019-.505.066a.328.328 0 0 0 .026.16c.09-.023.183-.081.306-.093.054-.006.107.01.16 0 .07-.013.173-.091.253-.093.058-.002.134-.023.146.08-.123.014-.21.065-.333.08-.057.232-.026.575.027.784.092-.028.18-.058.28-.08.096-.02.23-.073.319-.053.057.013.079.078.133.12.118.09.276.163.412.2.032-.332-.058-.795.066-1.052a.871.871 0 0 0-.292-.08c-.048-.005-.116.024-.147-.026.007-.088.097-.074.16-.08.268-.026.524.051.732.053a.5.5 0 0 0-.106-.266c-.095.014-.235.047-.306.04.006-.09-.024-.145-.014-.24-.045-.034-.142-.017-.173-.066.025-.05.034-.116.08-.146.1-.016.233.003.293-.053-.001-.115-.06-.17-.147-.2-.023.12-.202.178-.24.053-.026-.09.067-.144.12-.2-.122-.159-.386-.025-.545.014Zm-6.385-.306c-.128.202.02.472.106.625.013.032.072.017.093.04-.033.154-.038.395-.16.426-.105.027-.178-.09-.306-.093.03.21.258.336.426.452.156-.212.192-.545.346-.758.082.016.148.047.226.067.08-.09.116-.199.213-.267.06-.04.147-.036.173-.12-.145-.342-.692-.353-1.117-.372Zm3.591.146c.013-.024.11-.094.107-.12-.003-.029-.272-.189-.333-.159-.087.144-.045.415-.133.559a5.242 5.242 0 0 1-.731.053c-.113.256.066.499.16.705.026.059.022.118.066.16.123-.007.284-.083.399-.013-.035.388-.03.747-.186 1.024.038.057.183.07.266.04.012-.262.042-.471.093-.679.034-.14.045-.29.12-.399.201-.01.352.028.532.04.016-.054.049-.093.053-.16.089-.101.196-.185.279-.292.066-.01.118-.033.133-.093-.13-.22-.35-.347-.678-.373-.062-.005-.157.03-.2-.04.023-.085.013-.174.053-.253Zm5.788-.372c-.05.133-.04.324-.08.465-.13.029-.28.099-.4.094-.035-.109.044-.153.054-.253-.123-.019-.185-.1-.333-.093-.037.162.037.326.053.479-.09.087-.225.13-.359.173.039.063.053.15.12.186.132-.05.176-.188.332-.213.076.035.11.113.2.133-.07.023-.074.112-.067.213-.055.003-.062-.022-.106 0-.049.044-.058.128-.12.16-.024-.102.073-.192.107-.28-.02-.042-.081-.043-.133-.053-.055.076-.09.23-.147.333-.023.042-.063.046-.066.093-.003.046.037.087.053.133.067.004.11-.07.16-.04-.015.092-.095.118-.12.2.038.037.042.108.106.12.11-.048.166-.16.266-.213.044-.024.095-.016.134-.054.038.058.139-.026.146.067-.26.183-.591.295-.892.439-.005.068.052.072.054.133a3.22 3.22 0 0 1 .878-.373c.07.091.12.324.026.426-.057.04-.172.023-.266.026.039.123.197.145.306.187.083.031.169.101.266.106.06-.261-.096-.507-.093-.798.104-.116.356-.096.572-.12.122-.013.298-.004.386-.013.037-.106-.026-.22-.093-.266a9.528 9.528 0 0 1-.758.146c-.004-.047-.026-.076 0-.12.055-.006.058.04.12.027.074-.032.122-.09.2-.12.008-.093.03-.172.119-.186.053.056-.007.116-.027.173.062.04.127.077.24.067-.01-.173-.112-.253-.253-.293-.065.016-.104.126-.16.106a.812.812 0 0 1 .226-.319c-.03-.04-.064-.077-.133-.08-.074.046-.079.16-.173.187-.045-.115.09-.157.067-.293-.038-.002-.056-.025-.093-.027-.084.103-.088.355-.213.373-.01-.064.02-.086.013-.147-.048-.026-.126-.025-.16-.066.078-.096.077-.18.213-.28.165-.12.573-.121.386-.332-.12.031-.27.156-.386.106.015-.105.064-.175.093-.266-.053-.046-.174-.088-.265-.053Zm-9.818-.24c-.07.048-.043.226 0 .28.254-.065.487.037.692.08.133.028.257.025.399.04.378.037.694.277.957.372.113-.086.06-.234.027-.372-.59-.235-1.419-.231-2.075-.4Zm14.567.04c-.035-.037-.057-.127-.12-.093-.038.086-.04.208-.04.333.126.001.182-.066.266-.106.003-.063-.07-.095-.106-.134Zm-2.501-.332c.106.257.175.552.24.851-.055.08-.139.125-.227.173-.087.047-.188.076-.253.147.054.12.121.225.24.28.05-.084.158-.178.28-.148-.004.516-.212.782-.56.932.137.066.327.001.453-.027.151-.216.238-.498.346-.758.208-.008.291.108.492.106.113.083.185.206.293.293a2.41 2.41 0 0 0 .585-.133c.088-.034.198-.066.2-.173-.213-.06-.434-.025-.64-.053-.173-.024-.332-.099-.478-.16-.152-.063-.318-.114-.399-.24.045-.054.08-.132.146-.212.06-.072.163-.134.173-.2.012-.078-.056-.147-.093-.226-.137.067-.224.184-.36.253-.07-.248-.154-.484-.199-.758-.08-.033-.201 0-.24.053Zm-11.042.146c.007.048.096.11.133.147.052.05.105.124.173.106.146-.135.024-.453-.053-.572-.128-.002-.263.251-.253.32Zm14.035-.598a9.31 9.31 0 0 0-.28.492c.032.038.116.053.174.026.077-.162.093-.385.226-.492.128.121-.014.242-.053.333.033.015.091.006.093.053a2.28 2.28 0 0 1-.453.652c.012.06.066.076.12.093.183-.194.325-.43.52-.612.081.104.255.202.225.346-.025.118-.268.17-.332.253.134.044.27 0 .399-.04.094-.03.204-.052.24-.12-.068-.261-.244-.413-.387-.599.06-.1.157-.162.253-.226.098-.065.225-.105.28-.213-.067-.054-.181-.118-.253-.106-.067.01-.153.132-.226.2-.088.08-.166.155-.24.186-.033-.154.084-.27.093-.426-.23.002-.312.058-.399.2Zm-15.938-.972c-.169.128-.317.277-.492.4a1.036 1.036 0 0 0-.386-.2.68.68 0 0 0-.093.253c.067.044.155.067.2.133-.09.172-.23.137-.412.066-.138-.053-.25-.168-.36-.146-.11.022-.182.212-.226.306-.063.133-.13.26-.093.412.15.01.172-.19.253-.292.1-.126.242-.231.372-.093 0 .074-.02.13-.053.172-.053.002-.11-.04-.146-.013-.053.163.194.131.226.253-.149-.015-.242-.086-.372-.12-.036.031-.055.104-.027.16.113.02.216.05.266.133-.065.119-.354.322-.093.412.11-.08.166-.215.279-.293.122.043.188.141.306.187.037-.047.05-.12.053-.2-.046-.069-.15-.08-.186-.16.128.01.17.106.293.12.067-.026.02-.145.026-.173.106-.02.15-.1.253-.093.13.009.234.17.213.28-.047.248-.482.457-.625.545-.149-.046-.188-.202-.293-.293-.066.19.022.32.08.466.025.064.012.14.08.16a4.92 4.92 0 0 0 .997-.612c.018-.022.076-.005.093-.027.06-.156-.063-.266-.146-.36-.197-.22-.401-.429-.665-.558.05-.127.188-.114.306-.066.138.055.255.218.373.24.068-.057.08-.17.08-.293-.12-.075-.249-.143-.36-.227.114-.112.27-.183.412-.266-.012-.103-.048-.182-.133-.213Zm11.309-.053c-.082.07-.197.123-.32.173-.1.04-.208.084-.306.12-.207.075-.449.114-.572.28.342.027.68-.057.998-.12.321-.065.657-.113.891-.267-.199-.093-.453-.132-.691-.186Zm4.323-.106c-.031.097-.184.2-.12.306.103.01.065-.122.147-.133.119.043-.019.24-.12.266a.302.302 0 0 1-.16-.014c-.043-.083.016-.168.014-.252-.039-.03-.12-.011-.147.013.001.092.012.175.027.253-.106.107-.223.202-.412.226-.053.116-.034.303-.094.412.188.186.465.28.625.492.01.062-.063.087-.026.133.125.01.143-.14.186-.212.17-.285.408-.57.679-.732.016-.106.114-.2.2-.186.175.028.051.25.013.332.202-.054.311-.203.452-.319-.135-.173-.502-.092-.692-.026a1.838 1.838 0 0 1-.333-.626c-.11-.009-.16.044-.239.067Zm-6.053-.147c-.087.157-.24.249-.333.4.062.043.105.101.16.16.05.052.11.145.173.159.09.02.275-.046.4-.08.13-.036.253-.084.358-.12.27-.092.52-.168.652-.306-.388-.152-.913-.168-1.41-.213Zm-3.672.306c.04-.092.1-.165.093-.306H37.7c.03.161.139.243.266.306Zm3.153-.319c.01.083.099.088.08.2.126-.012.18-.096.226-.187-.121.015-.246-.126-.306-.013Zm4.257-1.503c-.127.124-.276.336-.412.492a5.655 5.655 0 0 1-1.397 1.157c.144.034.28.076.426.12.138.042.3.12.439.12.127 0 .296-.08.452-.133.749-.258 1.387-.585 1.995-.931.258-.147.515-.276.706-.466-.686-.17-1.443-.27-2.209-.36Zm-10.802.931c-.312-.29-.613-.598-.852-.958-.668.09-1.47.162-2.088.346.01.065.085.11.133.146.429.321.894.546 1.397.799.396.199.855.41 1.317.558.173.056.365.125.505.12.108-.004.239-.058.346-.093.107-.035.24-.07.293-.16-.416-.176-.742-.47-1.051-.758Zm5.308-.692c.043-.48-.619-.523-.718-.16-.109.581.68.583.718.16Zm2.687-.519c-.015.003-.014.021-.013.04-.194.537-.431 1.12-.732 1.53-.014.02-.073.09-.026.08.39.06.778.103 1.157.16.127.019.282.08.386.066.062-.008.19-.09.28-.146.275-.172.524-.39.73-.572.325-.285.637-.571.826-.918-.84-.108-1.735-.163-2.608-.24Zm4.723-1.822v.04c.051.423.054.937.04 1.384-.005.154.004.31-.053.438-.171-.046-.188-.247-.187-.465-.133-.058-.111-.223-.16-.346-.017-.047-.057-.088-.079-.133-.028-.058-.044-.106-.066-.16-.306-.005-.555-.067-.852-.08a6.04 6.04 0 0 1-.479 1.29c.662.085 1.318.211 1.97.307.1.015.218.05.292.04.115-.017.288-.173.372-.253.252-.241.446-.562.626-.891.182-.334.36-.717.359-1.171H47.29Zm-4.51 0c-.02.614-.108 1.16-.213 1.69.922.067 1.843.134 2.7.265.15-.291.356-.65.467-1.01.039-.129.096-.307.08-.426-.01-.072-.096-.121-.107-.2-.017-.115.076-.18.013-.293-.084-.076-.21-.053-.319-.053-.873 0-1.758-.008-2.594-.013-.019.004-.016.029-.027.04Zm-3.113-.053c-.031.226-.004.51-.013.758.6.04 1.044.367 1.33.758.1.137.216.3.253.453.12.495-.068.976-.093 1.476.147 0 .263.03.412.027a4.42 4.42 0 0 0 .466-.732c.132-.258.279-.539.32-.878-.31-.035-.732-.021-1.012-.04.025-.05.034-.116.08-.146.332.009.664.019.984.04.134-.5.267-1.072.226-1.703-.991.002-1.954-.023-2.953-.014Zm-9.565-.027c-.017.005-.027.017-.027.04-.01.365.077.61.186.865.18.419.41.73.706 1.05.08.088.357.395.465.413.055.009.168-.036.266-.053.657-.115 1.304-.194 1.93-.306a4.275 4.275 0 0 1-.573-1.995c-.368.008-.771-.018-1.117.012-.028.067-.01.17.013.227.19.055.527.25.466.479-.046.171-.383.114-.559.186.01.09-.022.139-.014.226-.064.016-.133.04-.159.107-.03.075.02.158.013.253-.005.088-.053.19-.08.265-.032.096-.056.192-.12.24-.114.001-.194-.08-.252-.173-.12-.193-.2-.338-.32-.532-.058-.096-.145-.202-.159-.28-.033-.18.047-.38.107-.532.06-.157.154-.3.173-.478-.319-.002-.645.006-.945-.014Zm3.3-1.038a2.483 2.483 0 0 0-.187.918c.094.03.243.006.36.014-.04-.188.104-.253.132-.346.03-.1-.011-.205-.053-.32-.053-.018-.106-.035-.12-.093v-.173h-.133Zm-.8.12c.164.032.365.15.254.333a.17.17 0 0 0 .093.08c-.13.074-.307.1-.4.212-.057-.013-.038-.103-.092-.12-.103.034-.227.055-.333.094-.098.035-.23.077-.24.2h1.145c0-.346.09-.672.146-.919-.131-.026-.13.077-.226.054-.141-.035-.023-.255-.173-.306-.12.06-.135.228-.173.372Zm9.886-.572c-.03-.136-.074-.343-.16-.36-.05-.009-.065.012-.093.014-.404.036-.84.026-1.277.04-.425.013-.861.01-1.29.027-.023.55-.028 1.117-.04 1.676h3.02a6.833 6.833 0 0 0-.16-1.397Zm1.277-.2c-.055-.085-.16-.264-.267-.252a10.79 10.79 0 0 1-.918.066c.066.538.18 1.141.187 1.783h2.873a.99.99 0 0 0-.093-.24c-.037-.03-.139.006-.16-.04-.06-.16-.007-.343-.146-.439-.092-.063-.264-.076-.399-.08-.058 0-.136.023-.2.014-.134-.019-.246-.131-.319-.226-.092-.121-.127-.28-.24-.4-.06.006-.02.112-.106.094-.1-.06-.144-.173-.212-.28Zm1.396-.412c-.285.078-.651.076-.957.133 0 .154.119.283.24.2.04.053.136.091.159.173.017.059-.009.126 0 .186.028.205.153.329.359.372.048-.009.046-.07.066-.106h.48c.18-.323-.222-.743-.347-.958Zm3.366.625a3.71 3.71 0 0 0-.958-.97c-.663.134-1.485.225-2.195.358.036.154.166.257.24.413.08.17.089.445.332.465.132.03.16-.165.306-.133.108.024.084.18.134.28.066.133.256.243.412.359.169.126.318.235.452.32v.319h1.796c-.027-.59-.26-1.036-.519-1.41Zm-6.026-.532c.143.003.29-.002.425-.013.137-.011.27-.015.373-.067-.155-.11-.304-.164-.466-.279-.18-.128-.31-.372-.572-.386.072.256.138.519.24.745Zm1.955-.479c-.025.152-.261.093-.213.32.257.006.612.012.799-.094a3.726 3.726 0 0 0-.586-.665c-.03.132-.083.347 0 .44Zm-1.357-1.45c-.03-.005-.099.01-.133.013-.106.014-.297.023-.319.133.11.062.256.023.36.08.062.035.063.105.132.12.122-.024.262-.031.306-.133-.113-.018-.24-.196-.346-.213Zm4.098 1.198a4.003 4.003 0 0 0-.546-.373 10.536 10.536 0 0 0-2.168-.918c-.129-.04-.435-.155-.532-.12-.16.058-.379.087-.519.187.054.137.358.289.492.2.07-.047.039-.133.093-.187.142-.01.234.032.293.106-.004.045.01.108-.013.133.14.099.185.294.172.546.237.206.398.443.613.692.069.08.16.197.226.212.054.013.17-.017.266-.026.62-.06 1.247-.159 1.756-.306 0-.075-.084-.106-.133-.146Zm-4.59-1.557c.306.107.46.211.798.146.082-.016.19-.036.227-.106-.476-.114-1.006-.245-1.53-.266.11.099.294.152.505.226Zm-5.787 0c-.051.01-.16.075-.186-.027.032-.114.203-.09.266-.173-.477-.006-.892.164-1.344.227.096.121.38.076.413.226.043.194-.251.159-.32.306-.002.095.11.077.133.146-.178.296-.14.81-.199 1.224-.227-.01-.357.078-.426.226-.495-.264-1.114-.569-1.889-.505-.18.014-.387.027-.532.026.003-.125.033-.224.107-.28.165-.021.48.021.465-.119-.137-.027-.427.055-.452-.08-.03-.155.284-.143.385-.226h.134c.038-.036.043-.106.08-.146.178-.054.342.008.505-.027.063-.013.15-.072.213-.106.074-.04.137-.1.2-.133.005.052.004.11.053.12.123-.015.175-.1.226-.187.231-.035.39-.14.598-.2.086.035.084.156.16.2.123-.045.207-.13.32-.186-.186-.04-.36-.155-.56-.16-.134-.003-.337.06-.505.107a9.03 9.03 0 0 0-1.344.505c-.494.228-.992.48-1.383.772-.053.039-.148.066-.147.146.192.062.416.088.639.12.22.031.445.058.625.133-.008.036.017.105-.013.12a20.512 20.512 0 0 1-1.503-.24c-.33.222-.606.542-.865.892-.275.37-.598.86-.572 1.463h.984c.111-.152.243-.35.2-.612-.074-.076-.267-.034-.386-.067-.002-.1.023-.172.014-.279.288-.08.482-.253.425-.678.199-.105.47-.122.652-.24.065-.042.096-.108.16-.146.165-.046.413-.1.452.093.216.024.487-.008.652.067.2.395.521.702.878.944.36.245.786.436 1.277.546.002.068-.008.15.013.2.206-.002.22.18.133.331.055.06.076.155.067.28-.02.06-.098.062-.133.107-.034.187-.317.279-.48.146.164-.078.224-.465-.04-.48-.039.156-.304.157-.478.134-.019-.08.1-.178.053-.187-.299-.002-.602-.008-.812.08-.056-.01-.041-.09-.105-.093h-.4c.02.62.151 1.118.36 1.57.049.107.185.362.266.386.056.017.157-.016.252-.027.622-.07 1.192-.12 1.81-.146.018.04.085.1.066.133-.688.057-1.394.096-2.022.213.235.393.56.711.904.998.347.288.735.55 1.198.718.008.063.05.163.026.213-.274-.102-.537.048-.758.12.279.094.571.174.905.212-.045-1.436-.11-2.852-.147-4.297-.035-.035-.151.01-.186-.026.012-.165-.028-.383.027-.506h.798v.506h-.173c-.004 1.468-.04 2.904-.04 4.377.073.016.16.036.253.053.082.015.207.064.253-.013-.045-.093-.447-.103-.386-.28.041-.121.313.043.412.08.172.064.34.11.48.133.098-.05.32-.15.305-.293-.008-.08-.12-.129-.186-.2-.043-.045-.11-.178-.186-.199-.034-.009-.129.007-.187.013-.193.023-.389.087-.558.054-.007-.048-.022-.077 0-.12.2-.039.44-.038.625-.093-.113-.166-.296-.43-.386-.665-.026-.068-.101-.204 0-.253.082.04.118.14.16.213.138.24.26.49.439.678.193.008.348-.024.492-.066a.866.866 0 0 0-.678-.852c-.027-.05-.086-.065-.147-.08.088-.315.31-.496.692-.518.276-.66.698-1.174 1.556-1.25v-.773h-1.61v.227c-.103.044-.198.092-.279.16-.06.05-.094.128-.16.172-.155-.008-.297-.03-.372-.12-.036-.146.027-.298.12-.358.007-.038.107.018.08-.054-.009-.067-.157.006-.186-.04v-.12h.306c-.035-.238.12-.305.226-.412.08-.08.16-.216.28-.146-.008.175-.113.251-.107.439.025.023.07.028.106.04.07.103.264.066.453.066h1.117c-.009-.545.018-1.126-.014-1.65-.08-.001-.101.058-.185.054-.026-.029-.022-.085-.054-.106.066-.072.144-.131.226-.187a1.48 1.48 0 0 1 .2-.386c.051-.062.137-.153.253-.106.026.223-.15.355-.2.545h2.594c.116-.19-.035-.32-.093-.439-.078-.162-.104-.355-.2-.478-.362-.032-.566-.284-.718-.506-.042-.062-.074-.138-.133-.186-.189-.033-.36.064-.545.08-.027-.036-.063-.034-.107-.054-.038-.017-.085-.034-.12-.053h-.718v1.011c-.058-.008-.15.017-.186-.013v-.985c-.083-.008-.176-.046-.24 0-.042.03-.035.094-.066.133-.04.05-.122.067-.173.107-.106.083-.196.253-.36.226-.029-.086-.005-.225-.013-.333-.057-.001-.074.038-.12.014-.052-.143-.284-.22-.385-.067-.02.091.047.096.04.173-.166.144-.469.153-.705.226a1.031 1.031 0 0 0-.093.48c-.081.038-.135.104-.253.106-.042-.02-.064-.06-.067-.12-.035 0-.078.007-.08-.027.016-.385 0-.85-.119-1.144-.081-.034-.218-.012-.213-.133.035-.075.196-.026.293-.04.059-.055.104-.172.212-.186.072-.01.133.05.227.027.08-.02.13-.137.213-.16.046-.013.094.005.146 0a.988.988 0 0 0 .505-.186c.07-.05.132-.103.186-.16-.586.026-1.063.243-1.556.346Zm5.521.04c-.475-.17-1.033-.287-1.556-.4-.003-.015-.015-.007-.027 0-.005.02-.016.023 0 .04.014.094.143.111.24.174.058.038.096.113.16.133.09.028.24.013.358.026.241.028.422.083.599.173.096.05.194.136.253.147.128.023.3-.047.386-.067-.092-.129-.263-.172-.413-.226Zm-2.714.293c.108.007.247-.016.333.013-.043.02-.078.07-.133.093-.058.024-.167-.004-.173.08.098.048.25.026.386.026.14 0 .285.006.412 0 .094-.004.205-.002.253-.053-.018-.227-.44-.081-.426-.332.24-.01.504.007.639-.107a1.196 1.196 0 0 0-.346-.266 2.276 2.276 0 0 0-.426-.186c-.13-.04-.362.002-.519-.013v.745Zm-.758-.719c-.05.019-.087.063-.133.08-.105.039-.215.043-.306.106a.607.607 0 0 0-.173.213c.053.009.141-.017.173.014.014.076-.023.1-.027.16.175-.023.283.034.386.066.205.063.393.101.652.106v-.771c-.212-.013-.403-.037-.572.026Zm13.064 6.066a6.204 6.204 0 0 0-.785-2.115c-.723-1.226-1.71-2.194-2.834-2.967-1.16-.796-2.454-1.398-3.95-1.835-1.628-.475-3.7-.79-5.828-.639-.66.047-1.273.114-1.875.213-2.372.388-4.39 1.193-6.014 2.368-1.056.765-2.005 1.713-2.674 2.914-.654 1.172-1.115 2.823-.651 4.563h1.662c-.296-.578-.53-1.212-.505-2.022a4.977 4.977 0 0 1 .532-2.023c.276-.55.666-1.023 1.078-1.476.098-.109.221-.2.332-.306 1.63-1.57 3.882-2.48 6.732-2.847 1.524-.196 3.303-.159 4.802.013 2.324.267 4.176.916 5.64 2.022.467.352.91.775 1.345 1.21.432.433.809.926 1.09 1.464.293.559.52 1.228.52 2.036 0 .405-.072.776-.174 1.104-.088.285-.233.545-.332.785-.009.02-.056.08-.014.106h1.743a5.712 5.712 0 0 0 .16-2.568Zm-3.871 5.947c.032.106.156.13.239.173.265.136.563.27.825.413-.644.606-1.451 1.15-2.461 1.437-1.014.287-2.443.222-3.353-.16-.02.141.113.236.186.332.19.247.377.506.56.772.033.048.098.092.08.16a18.189 18.189 0 0 1-4.577.598c-.815 0-1.622-.111-2.382-.212-.769-.103-1.51-.201-2.128-.453.135-.325.4-.559.598-.838.065-.09.135-.193.147-.306-.47.13-1.04.246-1.637.28-.61.033-1.208-.042-1.702-.214-.956-.33-1.754-.89-2.461-1.423.142-.161.363-.234.558-.333.197-.099.387-.209.586-.292-.028-.068-.121-.06-.173-.067a4.359 4.359 0 0 1-2.382-1.09 4.668 4.668 0 0 1-.864-.998c-.465-.724-.756-1.791-.719-2.994.018-.56.136-1.104.28-1.57a7.124 7.124 0 0 1 1.303-2.394 10.42 10.42 0 0 1 1.916-1.796c1.423-1.048 3.133-1.805 5.148-2.262 1.026-.232 2.106-.357 3.286-.412a17.4 17.4 0 0 1 5.322.612c1.552.43 2.901 1.03 4.07 1.836 1.17.806 2.157 1.763 2.901 3.006.347.58.67 1.309.825 2.129.157.83.123 1.842-.147 2.647-.003.217-.135.547-.24.785-.624 1.425-1.874 2.355-3.604 2.634Z" clip-rule="evenodd"/><path fill="#336D80" fill-rule="evenodd" d="M39.788 56.532c.245-.007.249-.985-.054-.865-.207.082-.174.87.053.864Zm-.054-.932c.439-.1.456.99.053.998-.377.007-.398-.92-.053-.998ZM40.785 55.627c-.017.088.04.172 0 .24-.081-.021-.05-.153-.12-.187-.087.013-.169-.039-.24 0-.046.086-.025.24-.039.36.022.025.122.016.146 0 .046-.013-.002-.118.054-.12.046.022.03.123.026.186-.003.06-.004.155-.04.173-.058-.013-.003-.139-.053-.16h-.133c-.024.106-.012.245-.027.36-.003.065.089.035.067.119-.09-.004-.2.014-.253-.027-.006-.063.075-.04.08-.093.006-.265.027-.514.04-.771.01-.068-.09-.026-.067-.107.151-.008.388.011.56.027ZM38.63 55.614c.014.062-.023.075-.053.093-.056.277-.186.492-.12.825-.004.048.09-.002.067.066.013.062-.1-.002-.106.04-.041-.008-.115.017-.134-.013-.017-.057.028-.053.053-.067.022-.416-.156-.633-.292-.891.067-.016.183-.044.253-.014.014.068-.06.048-.08.08.054.142.122.268.173.413.067-.115.081-.283.133-.413.015-.06-.075-.014-.053-.08.018-.047.106-.026.16-.04ZM37.912 55.906c-.061-.053-.105-.237-.24-.133.025.273.055.54.08.812.01.06.064-.001.054.066-.018.06-.175.043-.213.04-.018-.066.045-.052.053-.093-.04-.266-.05-.563-.093-.825-.057-.003-.08 0-.106.014-.07.036-.034.13-.094.173v-.24c.16-.017.331-.024.48-.053.057.049.061.151.08.24ZM42.156 55.773c.056.05.033.18.04.28-.083-.022-.062-.113-.094-.16-.268-.396-.598.75-.212.785.151.014.111-.13.266-.16-.05.149-.22.333-.413.2-.311-.215-.065-1.228.373-.905.032.005-.008-.06.04-.04ZM37.021 55.786c.013.053-.039.042-.067.054.026.285.074.548.107.824-.008.053.092-.003.08.054.004.067-.198.066-.253.053-.023-.067.042-.046.066-.067-.033-.272-.077-.534-.106-.811-.017-.066-.086-.005-.093-.066.037-.054.233-.07.266-.04ZM42.408 55.813c.082.012.153.034.24.04-.005.044-.016.082-.08.067a4.305 4.305 0 0 1-.067.359c.075.013.146.031.226.04.038-.096.048-.219.067-.333.016-.048-.089-.043-.04-.08.034-.051.183 0 .226.027.015.063-.067.03-.08.066-.033.278-.097.524-.133.798-.014.056.09.029.04.08-.024.043-.17-.012-.226-.026-.016-.056.02-.06.067-.054.032-.127.043-.275.08-.398-.05-.044-.155-.032-.227-.054-.04.114-.049.262-.08.386-.003.057.083.024.053.106-.081-.015-.177-.016-.239-.053.002-.075.047-.023.08-.066.048-.267.09-.54.147-.798-.014-.04-.074-.034-.054-.107ZM36.315 55.866c.057.046.1.174.107.226-.096-.009-.09-.115-.173-.132-.132-.028-.22.07-.187.212.05.212.525.124.493.492-.014.15-.146.286-.36.2-.044.004.04.063-.026.053-.063.012-.108-.173-.12-.213.096-.006.104.144.253.133.095-.006.165-.117.146-.226-.033-.193-.395-.143-.479-.36-.095-.244.111-.414.32-.345-.005-.027.002-.041.026-.04ZM43.287 55.973c.073.038.203.018.252.08-.019.043-.025.037-.08.026-.072.255-.135.521-.186.799.003.046.079.019.054.093-.084-.027-.214-.008-.253-.08-.013-.048.052-.019.08-.027.066-.253.117-.521.186-.771.011-.06-.067-.031-.067-.08.016-.002.012-.024.014-.04ZM35.344 56.132c.005.133.044.232.066.346.077-.013.153-.025.213-.053.061-.116.02-.295-.08-.332a.385.385 0 0 0-.2.04Zm.346.333c.102.102.093.315.16.452.07.008.011-.112.093-.093.012.084-.02.122-.053.16-.282.028-.148-.358-.293-.466-.036-.015-.124.013-.173.027.034.13.051.276.093.399-.008.048.08 0 .066.053-.028.073-.157.047-.226.08-.022-.071.04-.058.04-.106-.04-.27-.112-.51-.16-.772.003-.056-.094-.012-.08-.08.031-.054.115-.038.187-.053.113-.024.24-.093.346 0 .09.08.117.295 0 .399ZM43.832 56.106c.073-.003.116.025.173.04.023.251.073.476.093.731.053-.052.08-.17.106-.266.027-.096.035-.2.08-.279.013-.062-.053-.044-.04-.107.043-.026.118.01.16.027.014.067-.06.047-.08.08-.062.293-.157.553-.226.838-.086-.019-.07-.127-.08-.2-.03-.203-.069-.478-.107-.691-.082.21-.131.453-.2.678-.02.061.066.042.027.08-.018.06-.123-.004-.16-.013-.007-.057.05-.05.08-.067.067-.253.133-.506.213-.745.001-.05-.057-.04-.04-.106ZM34.972 56.146c.051.053.102.17.093.24-.084-.014-.076-.119-.146-.147a.584.584 0 0 0-.253.066c.005.143.056.238.08.36a.194.194 0 0 0 .146-.053c.02-.056-.038-.103 0-.133.064.004.065.112.08.172.017.063.063.152.014.187-.047-.02-.037-.097-.067-.133a.31.31 0 0 0-.146.026c.023.145.056.281.106.4.09-.003.152-.035.226-.054.09-.02.01-.211.094-.24.043.06.03.175.04.267-.165.044-.371.117-.52.133-.046-.048.03-.048.027-.093-.046-.283-.125-.532-.2-.785-.023-.045-.07.012-.08-.054.055-.061.156-.056.24-.08.09-.024.17-.058.266-.079ZM44.55 56.279c.188.042.352.11.532.16-.029.068-.024.17-.053.239-.075-.022-.017-.178-.08-.213-.074-.023-.135-.06-.226-.066-.075.08-.09.22-.133.332.04.029.085.047.12.04.077-.015.053-.115.106-.106.041.026-.007.114-.026.173-.02.058-.034.142-.08.16-.06-.007.013-.076 0-.12-.01-.06-.09-.053-.133-.08-.061.102-.083.245-.133.359.03.082.16.062.226.106.109-.01.1-.14.213-.146-.014.102-.08.15-.106.24-.136-.04-.28-.09-.413-.134-.043-.014-.102-.002-.12-.053.026-.032.083-.032.107-.066.077-.242.157-.482.24-.719-.008-.05-.077-.048-.04-.106ZM34.32 56.372c.041.043-.031.047-.027.093.007.305.073.619.054.905-.22-.242-.322-.601-.559-.825.054-.034.159-.077.213-.067.018.058-.032.049-.04.08.103.208.228.393.332.599.016-.202-.033-.454-.04-.678-.005-.064-.086.024-.066-.054-.028-.034.113-.069.133-.053ZM45.68 56.638c.007.05.008.2-.039.24-.055-.047-.019-.15-.066-.2-.093-.098-.256-.009-.267.12-.013.167.245.26.226.492-.017.212-.317.357-.465.133-.018-.002-.017.077-.04.026-.058-.003-.017-.074-.013-.12.003-.035-.022-.123.026-.12.06.117.057.272.227.254.086-.01.16-.105.146-.227-.012-.104-.188-.21-.213-.359-.045-.275.254-.432.412-.213.038-.014.017-.052.067-.026ZM33.455 56.625c.014.003.009.026.026.026.014.058-.05.039-.053.08.098.257.191.519.293.772.038.018.067-.036.08 0 .019.092-.156.088-.226.133-.038-.06.02-.069.04-.107-.104-.255-.184-.534-.306-.771-.046.023-.058.004-.08-.027.057-.054.167-.055.226-.106ZM46.453 56.957c-.028.083-.025.197-.093.24-.052-.019.02-.148-.026-.2-.043-.068-.15-.073-.213-.12-.104.07-.12.227-.187.333.05.03.072.06.12.053.072-.01.062-.112.12-.093.043.028-.025.112-.053.173-.027.058-.043.162-.093.146-.055-.003.02-.078.013-.12-.005-.066-.083-.058-.12-.093-.076.106-.122.242-.173.373.076.053.16.123.253.106.092-.015.099-.149.186-.12-.02.104-.103.146-.133.24-.084-.04-.178-.08-.266-.12-.085-.038-.187-.06-.24-.132.014-.023.037-.035.08-.027.134-.23.23-.498.346-.745.005-.05-.054-.035-.04-.093.18.008.343.145.52.2ZM32.95 56.85c.025.048-.01.045-.026.08.063.137.123.286.186.426.061.138.146.27.16.413-.092-.002-.132-.096-.187-.146-.159-.147-.335-.3-.505-.453.088.235.2.447.292.679.03.028.061-.02.08.026-.005.075-.096.063-.146.093-.031-.052.016-.05.013-.106-.1-.25-.215-.485-.32-.732-.03-.026-.071.022-.079-.04.015-.056.098-.044.133-.08.206.159.374.354.572.52-.07-.197-.162-.37-.24-.56-.024-.045-.064.003-.08-.04.008-.062.103-.095.147-.08ZM32.285 57.17c.025.048-.018.036-.027.08.043.22.454.601.28.865-.04.058-.116.08-.174.08-.312-.002-.383-.655-.598-.759a.43.43 0 0 1 .186-.106c.04.042-.023.056-.013.106.084.153.17.364.266.519.05.08.24.278.306.08.01-.032.003-.092 0-.12-.023-.208-.24-.44-.28-.612-.019-.034-.092-.015-.106-.053.02-.055.11-.097.16-.08ZM47.517 57.755c-.147.135-.285.309-.425.466-.041.046-.082.118-.147.12.076-.218.158-.428.226-.652-.116.145-.194.329-.305.479-.01.05.054.064.013.106-.044.02-.095-.052-.147-.066.014-.032.024-.066.08-.053.144-.23.28-.466.426-.692-.005-.06-.04-.06 0-.107.065.006.084.059.146.067-.084.23-.176.453-.266.678.177-.16.32-.354.48-.532.064.033.137.058.172.12-.02.016-.052.042-.08.013-.154.227-.287.475-.439.705-.009.051.054.064.014.107a.434.434 0 0 1-.213-.133c.02-.016.052-.043.08-.014.148-.185.257-.408.386-.611ZM36.33 57.37c.147.149.247.38.332.625.238.688.292 1.763-.04 2.434.69-.591 1.443-1.385 2.834-1.21-.201.507-.58.904-1.038 1.21a3.356 3.356 0 0 1-1.663.586c-.19.011-.393-.013-.585-.013-.596 0-.985-.063-1.41-.267a3.701 3.701 0 0 1-1.663-1.57c.347-.075.678-.015.97.054.877.206 1.505.726 1.956 1.357a3.681 3.681 0 0 1-.266-1.703c.041-.44.16-.8.333-1.157.074-.156.109-.312.24-.346ZM47.93 57.795c.16.092.293.213.452.306-.037.083-.058.181-.133.227-.031-.079.032-.127.014-.2-.023-.087-.138-.108-.2-.16-.068.029-.128.13-.187.213-.007.011-.051.08-.053.067.003.032.076.08.12.08.07-.002.064-.078.12-.067.052.027-.051.118-.08.16-.039.055-.071.158-.133.133-.021-.038.043-.085.053-.133-.01-.06-.081-.061-.106-.107-.09.1-.165.217-.24.333.063.056.124.155.213.16.095.004.123-.109.213-.094-.002.072-.119.137-.16.213-.085-.042-.163-.105-.24-.16-.075-.054-.174-.094-.212-.186.036-.028.055.008.093-.013.164-.209.312-.433.466-.652.004-.07-.045-.07 0-.12ZM31.101 58.194c-.103.023-.225-.182-.332-.04-.016.21.16.494.292.613.049.043.14.093.186.08.144-.042.001-.283-.066-.346-.058-.021-.074.058-.093 0-.03-.047.054-.078.093-.107.038-.029.083-.087.12-.066.03.052-.025.04-.027.092.04.134.184.233.2.347-.052.038-.068-.05-.12-.053v.12c-.251.392-1.006-.683-.492-.786.037.006-.034-.05.013-.053.078.012.16.13.226.2ZM48.09 59.1c.125.168.307.04.425-.094.15-.17.388-.464.107-.572-.18.22-.38.42-.532.665Zm-.187-.094c.03-.03.045-.022.08 0 .2-.195.359-.43.546-.639 0-.057-.064-.051-.014-.093.012-.008.024-.016.027 0 .116.122.338.155.306.4-.03.22-.348.603-.572.598-.176-.004-.246-.142-.373-.266ZM30.755 58.953c-.122-.167-.26-.316-.386-.48-.058 0-.06.02-.093-.013.02-.055.087-.12.133-.106.03.028-.007.038 0 .08.139.17.279.355.426.532.043.053.12.098.12.173-.076.017-.135-.047-.2-.08-.198-.1-.416-.2-.612-.306.135.206.31.373.452.572.05-.006.063-.018.094.014-.024.05-.092.116-.133.106-.027-.025-.004-.049 0-.08-.16-.218-.34-.414-.506-.625-.04-.005-.068.035-.08-.013-.014-.042.076-.08.107-.12.23.111.447.235.678.346ZM49.18 58.833c.074.048.18.13.187.2-.041.05-.042-.007-.093-.014-.201.194-.39.4-.586.599-.01.051.067.052.027.093-.053.033-.087-.05-.12-.08-.044-.015-.11-.06-.08-.106.035-.036.04.016.08.013.207-.188.4-.389.586-.599-.002-.056-.048-.067 0-.106ZM29.73 58.966c.032.03-.02.036-.027.067.176.215.383.397.573.598.035-.003.05-.056.08-.026.004.07-.116.191-.187.186-.03-.03.023-.044.027-.08-.187-.199-.383-.388-.572-.585-.052.006-.053.063-.093.013-.01-.07.112-.116.146-.186.028-.006.035.009.053.013ZM29.278 59.458c.072.079.287.276.413.386.083.073.18.112.186.226.004.08-.063.19-.147.2-.09.012-.181-.038-.133-.146.086-.016.103.038.133.08.212-.093-.083-.282-.2-.386a11.14 11.14 0 0 0-.305-.267c-.052-.012-.055.052-.093.014.01-.08.21-.274.146-.107ZM49.965 59.618c-.01.046-.049.094-.08.133-.026.033-.058.092-.092.08-.03-.093.062-.119.053-.213-.024-.246-.363-.084-.52.053-.124.11-.218.273-.199.373.025.13.164.121.32.106.022.047-.174.102-.266.08-.056-.014-.13-.09-.147-.16-.09-.396.732-.974.865-.465.017.02.038-.032.066.013Z" clip-rule="evenodd"/><path fill="#336D80" fill-rule="evenodd" d="M35.251 59.551h.36c-.015.025-.017.063-.027.094h-.36c.003-.038.025-.056.027-.094ZM36.914 59.658h.253c.024.043.04.093.08.12-.076.03-.209.004-.306.013-.023-.03-.007-.1-.027-.133ZM28.73 59.95c.04 0 .068.04.04.067.219.203.504.34.718.546-.06.049-.143.001-.212-.014-.216-.047-.458-.093-.665-.146.127.148.385.28.558.426.056.003.063-.022.107 0-.021.059-.044.115-.107.133-.02-.032-.028-.025-.013-.067-.2-.177-.44-.314-.652-.479-.04-.003-.045.05-.08.014-.028-.057.046-.111.08-.147.242.052.481.105.719.16-.098-.124-.325-.234-.466-.36-.058-.005-.044.041-.093.014-.034-.058.056-.09.066-.146ZM50.218 59.95c.085.04.105.143.173.2-.04.056-.054.02-.107 0-.239.152-.455.325-.678.492.022.055.033.074-.013.107-.04-.077-.18-.163-.134-.24.045-.009.044.028.067.04.241-.158.465-.332.692-.505-.014-.044-.04-.059 0-.093ZM38.856 60.376c0-.116.04-.19.147-.2a.37.37 0 0 1 .12-.16c.115.046.111.306.026.387-.083.079-.21.035-.293-.027ZM50.604 60.456c.049.027.068.083.093.133-.134.226-.302.417-.44.639.194-.086.34-.22.533-.306.024-.044-.018-.07.026-.093.041-.016.117.097.094.146-.05.027-.035-.019-.093-.013-.19.123-.399.236-.6.36-.056.034-.11.106-.185.092-.007-.077.063-.14.106-.2.128-.179.272-.38.4-.572-.2.085-.421.263-.64.373-.013.044.01.058-.026.093-.052-.023-.1-.107-.093-.146.028-.03.059-.003.08.013.245-.141.481-.29.718-.44-.012-.055-.009-.052.027-.079ZM28.597 61.174c.021-.059.067-.092.08-.16-.141-.013-.277-.103-.386-.106.106.085.184.198.306.266Zm.532-.16c.02.063-.043.15-.093.187-.033-.082-.153-.121-.28-.146-.068.029-.077.117-.119.173.09.067.162.212.28.173.015.042-.036.12-.08.146-.037-.008-.02-.07-.04-.093-.209-.205-.427-.398-.639-.599.012-.036.041-.056.054-.093.08.038.267.08.425.133.192.063.347.154.492.12ZM28.028 61.214c.046-.001.062.028.053.08.191.077.397.198.585.293.058.029.156.035.16.106-.036.063-.105.015-.16.014-.208-.007-.473-.006-.678-.027.03.052.096.068.146.093l.452.226c.056.003.04-.044.094-.013-.007.068-.023.128-.08.146-.03-.02-.025-.027-.014-.066-.211-.126-.453-.22-.664-.346-.067-.01-.066.047-.12.013.005-.07.047-.104.066-.16.228.026.485.021.718.04-.15-.106-.34-.174-.505-.266-.052-.028-.057.056-.08.014-.063-.022.022-.106.027-.147ZM40.999 62.132h.439c.027.04.055.078.053.147.064.06.149.1.133.239.094.076.38.2.28.373-.094.16-.459-.011-.6-.04 0-.036.006-.076-.013-.093-.093-.113-.191-.29-.292-.426-.108-.145-.302-.27-.16-.453.094.044.148.128.16.253ZM37.86 63.37v.12c-.372-.009-.705.023-1.078.013-.105.168.084.29.026.452-.163-.048-.269-.272-.2-.466-.002-.05.084-.014.107-.04.05-.008.054-.06.106-.066.351 0 .678-.023 1.038-.013ZM43.42 63.942c.135.033.297.04.426.08-.016.25-.194.339-.4.399.009-.177-.02-.318-.026-.48ZM43.234 64.42c.05.203-.01.407-.067.546-.145.012-.28.085-.425.053-.046-.035-.044-.117-.04-.2.217-.092.378-.242.532-.399Z" clip-rule="evenodd"/><path fill="#fff" fill-rule="evenodd" d="M41.424 65.339c-.047.09-.1.174-.226.186.02-.112-.07-.117-.08-.2.06-.113.185.028.306.014Z" clip-rule="evenodd"/><path fill="#336D80" fill-rule="evenodd" d="M47.93 65.91c-.012.113-.09.159-.133.24.074.16.163-.033.24-.067.028.03.045.07.066.107-.18.241-.353.49-.546.718-.232-.027.053-.303-.12-.36-.063.022-.07.099-.106.148-.174-.121.083-.35.266-.28.05.122-.054.201-.08.293.153.132.17-.174.213-.28.3.065.204-.2-.013-.199-.002-.082-.037-.132-.027-.226.139.034.142-.172.24-.094Z" clip-rule="evenodd"/><path fill="#336D80" fill-rule="evenodd" d="M47.478 66.083c.079.006.107.062.106.147-.03.013-.043.046-.093.04-.036-.047-.048-.138-.013-.187ZM47.344 66.124c.049.065.012.16 0 .24-.043-.002-.05-.039-.106-.028-.056.047-.053.151-.133.173-.109-.113.035-.26.053-.372.076.01.11-.023.186-.013ZM31.353 66.709a.27.27 0 0 1-.385-.027c.034-.198.333-.096.385.027ZM34.014 68.079c.056.216-.256.178-.426.146-.002-.078.034-.117.066-.16.148.016.263-.06.36.014ZM40.067 68.145c.021.086.013.201.027.293-.15.023-.222.124-.386.133-.005.13.133.116.2.173-.04.106-.207.133-.293.053.012-.032.031-.057.027-.106-.02-.038-.091-.024-.107-.067.002-.052.08-.026.107-.053.026-.081.12-.041.173-.066.114-.055.1-.131.093-.293.043-.033.074-.077.16-.067ZM42.621 68.358c-.048.005-.117-.01-.146.014-.039.022-.019.105-.053.133-.052-.04-.1-.087-.107-.173.1-.047.197-.097.306-.133.056.01.003.12 0 .16ZM37.313 68.545a.472.472 0 0 1-.133.346c-.13.024-.227.002-.372.013.033-.144.034-.32.093-.44.14-.027.343-.006.412.08ZM36.595 68.491c-.016.14-.031.28-.054.413-.105.01-.204.026-.319.027-.052-.089-.053-.282-.013-.386.105-.034.266-.078.386-.054Z" clip-rule="evenodd"/><path fill="#336D80" fill-rule="evenodd" d="M40.041 68.531a.13.13 0 0 1 0 .107c-.057.008-.086-.012-.106-.04.007-.051.047-.068.106-.067ZM42.701 68.944c-.067.024-.173.071-.253.04-.009-.12.12-.102.16-.173.007-.05-.004-.085-.027-.107-.081-.015-.114.044-.172.014-.023-.126.117-.14.186-.133.066.088.086.224.106.359ZM39.362 68.69c.067.031.116.08.146.148-.079.018-.153.04-.24.053.01-.088.073-.123.094-.2ZM39.242 68.704c-.004.098-.04.165-.12.187-.036-.03-.07-.064-.066-.134a.989.989 0 0 1 .186-.053ZM43.074 68.73c-.034.09-.046.203-.16.214-.064-.13.08-.228.16-.213ZM42.275 68.864c.05.02.057.085.067.146-.054.03-.092-.017-.133-.04.004-.053.032-.083.066-.106ZM42.222 69.09c-.012.054-.064.125-.106.107-.016-.089.05-.171.106-.107ZM42.808 69.157c-.027.076-.2.034-.24 0 .036-.106.188-.056.24 0ZM39.628 69.197h.04c.02.017.02.075 0 .093h-.053c-.027-.027.004-.064.013-.094ZM39.31 69.769a.284.284 0 0 0 .013.12c.184.017.399-.043.572-.08.005-.046-.006-.075-.014-.107-.215-.053-.383.05-.572.067Zm.678-.426c.093.173.044.487.08.718-.047.024-.11.01-.16 0 .014-.052.087-.045.066-.133-.244-.088-.544.055-.758.04v-.239c.117-.052.3-.036.36-.146.002-.07-.009-.15.012-.2h.107c-.008.105.03.164.053.24.13-.004.233-.034.266-.134-.023-.056-.157-.002-.186-.053 0-.085.062-.106.16-.093ZM39.428 69.436c0 .114-.1.131-.16.186-.044-.106.032-.207.16-.186ZM39.269 71.112c.05.079.055.203.067.32-.06.04-.155.093-.253.053-.136-.137-.024-.539.186-.373ZM40.692 71.205c.03.107.005.271.013.4h-.28c.076-.147.183-.261.267-.4Z" clip-rule="evenodd"/><path fill="#231916" fill-rule="evenodd" d="M58.326 71v-2.477h.401l1.452 1.913v-1.913h.35V71h-.4l-1.453-1.913V71h-.35ZM62.194 70.769c-.23.182-.452.273-.665.273a.669.669 0 0 1-.436-.142.442.442 0 0 1-.174-.357c0-.199.098-.351.292-.458.194-.106.472-.16.835-.16h.091v-.22c0-.21-.126-.315-.378-.315-.202 0-.421.053-.656.16v-.272c.258-.09.5-.136.727-.136.236 0 .41.046.523.137.112.092.168.234.168.427v.823c0 .189.068.283.203.283a.584.584 0 0 0 .074-.006l.027.182a.75.75 0 0 1-.288.054c-.18 0-.294-.091-.343-.273Zm-.057-.18v-.47l-.128-.003c-.21 0-.38.034-.51.103-.13.069-.196.159-.196.27 0 .08.033.146.098.201a.357.357 0 0 0 .238.082c.16 0 .326-.06.498-.182ZM63.124 71v-1.818h.384v.341c.203-.254.45-.381.744-.381.183 0 .33.05.439.15.109.1.163.234.163.402V71h-.384V69.8c0-.135-.023-.23-.069-.288-.046-.058-.122-.087-.229-.087-.235 0-.456.133-.664.397V71h-.384ZM64.734 71.618v-.262c.18.065.316.097.41.097.134 0 .224-.03.268-.09.044-.06.066-.181.066-.363v-1.818h.386V71c0 .467-.23.701-.69.701-.136 0-.283-.028-.44-.083Zm.744-2.766v-.33h.386v.33h-.386ZM66.45 71v-1.818h.383V71h-.383Zm0-2.148v-.33h.383v.33h-.383ZM67.42 71v-1.818h.385v.341c.202-.254.45-.381.744-.381.183 0 .33.05.438.15.11.1.164.234.164.402V71h-.384V69.8c0-.135-.023-.23-.07-.288-.045-.058-.122-.087-.228-.087-.235 0-.457.133-.664.397V71h-.384ZM69.723 71.604l.044-.286c.223.09.441.135.657.135.432 0 .649-.197.649-.59v-.287c-.142.255-.374.382-.698.382-.253 0-.454-.08-.604-.238-.149-.158-.224-.372-.224-.64 0-.278.085-.503.255-.677a.883.883 0 0 1 .661-.261c.236 0 .44.083.61.248v-.208h.386v1.322c0 .285-.018.495-.052.632a.663.663 0 0 1-.194.336c-.167.153-.428.23-.781.23-.247 0-.484-.033-.71-.098Zm1.35-1.234v-.755a.813.813 0 0 0-.552-.225.508.508 0 0 0-.415.182c-.1.122-.15.288-.15.5 0 .399.163.598.49.598.222 0 .43-.1.627-.3ZM73.066 68.523h.409v1.563c0 .249.053.43.16.543.108.113.278.17.512.17.229 0 .39-.053.486-.16.096-.106.144-.287.144-.541v-1.575h.358v1.57c0 .338-.081.584-.243.738-.161.154-.419.23-.772.23-.36 0-.626-.079-.797-.239-.171-.16-.257-.406-.257-.74v-1.56ZM75.683 71v-1.818h.384v.341c.203-.254.45-.381.744-.381.183 0 .33.05.439.15.109.1.163.234.163.402V71h-.383V69.8c0-.135-.023-.23-.07-.288-.046-.058-.122-.087-.228-.087-.236 0-.457.133-.665.397V71h-.384ZM77.977 71v-1.818h.384V71h-.384Zm0-2.148v-.33h.384v.33h-.384ZM79.387 71l-.787-1.818h.383l.616 1.414.649-1.414h.358L79.771 71h-.384ZM82.382 70.941c-.257.067-.477.1-.66.1-.312 0-.566-.088-.763-.266a.89.89 0 0 1-.296-.692c0-.276.087-.502.26-.678a.892.892 0 0 1 .666-.265c.256 0 .454.078.593.234.14.157.21.379.21.667l-.002.102h-1.335c.056.432.302.648.738.648.16 0 .356-.037.589-.11v.26Zm-1.31-1.046h.934c0-.338-.147-.507-.44-.507-.295 0-.46.169-.493.507ZM82.872 71v-1.818h.384v.341a.728.728 0 0 1 .662-.381c.04 0 .08.003.123.008v.308a.645.645 0 0 0-.175-.028c-.243 0-.446.124-.61.371V71h-.384ZM84.883 71.042c-.175 0-.388-.035-.639-.106v-.303c.251.107.47.16.655.16.11 0 .202-.025.275-.076.072-.051.11-.116.11-.193 0-.112-.103-.205-.307-.28l-.224-.081c-.331-.118-.497-.289-.497-.51 0-.16.066-.284.196-.375.13-.09.31-.136.537-.136.118 0 .264.014.438.042l.08.013v.275a2.192 2.192 0 0 0-.51-.082c-.247 0-.37.077-.37.23 0 .1.093.184.28.252l.185.067c.21.076.357.156.444.24a.42.42 0 0 1 .13.315c0 .16-.073.291-.22.394a.96.96 0 0 1-.563.154ZM86.174 71v-1.818h.384V71h-.384Zm0-2.148v-.33h.384v.33h-.384ZM87.78 71.042c-.194 0-.347-.048-.456-.144a.505.505 0 0 1-.163-.4V69.43h-.265v-.248h.265v-.33l.384-.032v.362h.553v.248h-.553v1.007c0 .238.12.357.358.357a.97.97 0 0 0 .185-.022V71c-.118.028-.22.042-.308.042ZM88.578 71.66l.343-.66-.818-1.818h.415l.606 1.37.647-1.37h.362l-1.156 2.479h-.399ZM92.266 71.042c-.303 0-.544-.087-.725-.259-.18-.172-.27-.403-.27-.692 0-.292.09-.524.271-.694.181-.17.427-.255.737-.255.311 0 .557.085.738.255.181.17.272.4.272.69 0 .297-.091.53-.273.7-.182.17-.432.255-.75.255Zm.006-.248c.406 0 .61-.236.61-.706 0-.466-.201-.698-.603-.698-.4 0-.6.233-.6.7 0 .47.198.704.593.704ZM94.165 69.43V71h-.386v-1.57h-.3v-.248h.3v-.218c0-.433.23-.649.69-.649.128 0 .274.019.438.055v.261a1.717 1.717 0 0 0-.415-.068c-.126 0-.212.026-.258.078-.046.051-.07.148-.07.288v.253h.528v.248h-.527ZM97.295 71.062c-.448 0-.794-.113-1.038-.34-.245-.225-.367-.545-.367-.96 0-.412.125-.732.373-.96.25-.228.6-.341 1.052-.341.258 0 .56.036.908.109v.33c-.395-.118-.7-.177-.914-.177-.313 0-.555.091-.727.273-.171.182-.257.439-.257.77 0 .316.091.565.275.748.183.182.433.273.75.273a2.1 2.1 0 0 0 .877-.216v.302c-.285.126-.595.189-.932.189ZM98.65 71v-2.643h.384v1.166c.203-.254.45-.381.744-.381.183 0 .329.05.439.15.109.1.163.234.163.402V71h-.384V69.8c0-.135-.023-.23-.069-.288-.046-.058-.122-.087-.229-.087-.235 0-.456.133-.664.397V71h-.384ZM100.944 71v-1.818h.384V71h-.384Zm0-2.148v-.33h.384v.33h-.384ZM101.915 71v-1.818h.384v.341c.203-.254.451-.381.744-.381.183 0 .33.05.439.15.109.1.163.234.163.402V71h-.383V69.8c0-.135-.023-.23-.07-.288-.046-.058-.122-.087-.228-.087-.236 0-.457.133-.665.397V71h-.384ZM105.76 70.941c-.257.067-.477.1-.66.1-.312 0-.566-.088-.763-.266a.89.89 0 0 1-.295-.692c0-.276.086-.502.26-.678a.892.892 0 0 1 .665-.265c.256 0 .454.078.594.234.139.157.209.379.209.667l-.002.102h-1.335c.056.432.302.648.739.648.16 0 .356-.037.588-.11v.26Zm-1.309-1.046h.933c0-.338-.147-.507-.44-.507-.295 0-.459.169-.493.507ZM106.811 71.042a2.44 2.44 0 0 1-.639-.106v-.303c.251.107.469.16.655.16.11 0 .202-.025.274-.076.073-.051.11-.116.11-.193 0-.112-.102-.205-.306-.28l-.224-.081c-.331-.118-.497-.289-.497-.51 0-.16.065-.284.196-.375.13-.09.309-.136.536-.136.119 0 .265.014.439.042l.08.013v.275a2.201 2.201 0 0 0-.511-.082c-.247 0-.37.077-.37.23 0 .1.094.184.281.252l.185.067c.209.076.357.156.444.24a.42.42 0 0 1 .13.315c0 .16-.073.291-.22.394-.146.102-.334.154-.563.154ZM109.653 70.941c-.258.067-.478.1-.661.1-.311 0-.566-.088-.763-.266a.893.893 0 0 1-.295-.692c0-.276.087-.502.26-.678a.894.894 0 0 1 .666-.265c.256 0 .453.078.593.234.14.157.21.379.21.667l-.003.102h-1.334c.056.432.302.648.738.648.16 0 .356-.037.589-.11v.26Zm-1.31-1.046h.934c0-.338-.147-.507-.441-.507-.294 0-.459.169-.493.507ZM110.595 71v-2.477h.567l.799 1.916.822-1.916h.507V71h-.382v-2.015l-.795 1.85h-.396l-.771-1.855V71h-.351ZM115.413 70.941c-.258.067-.478.1-.661.1-.312 0-.566-.088-.763-.266a.89.89 0 0 1-.295-.692c0-.276.087-.502.26-.678a.895.895 0 0 1 .666-.265c.256 0 .453.078.593.234.14.157.209.379.209.667l-.002.102h-1.334c.056.432.302.648.738.648.16 0 .356-.037.589-.11v.26Zm-1.31-1.046h.934c0-.338-.147-.507-.441-.507-.295 0-.459.169-.493.507ZM117.26 71v-.342c-.156.256-.391.384-.705.384-.255 0-.455-.08-.601-.24-.146-.16-.219-.377-.219-.654 0-.302.083-.546.248-.73a.839.839 0 0 1 .654-.276c.251 0 .458.083.623.248v-1.033h.386V71h-.386Zm0-1.384c-.198-.151-.387-.226-.565-.226-.367 0-.551.241-.551.724 0 .425.164.638.491.638.213 0 .422-.1.625-.3v-.836ZM118.232 71v-1.818h.383V71h-.383Zm0-2.148v-.33h.383v.33h-.383ZM120.029 71.042a.985.985 0 0 1-.712-.273.917.917 0 0 1-.282-.688c0-.296.093-.526.28-.691.186-.165.446-.248.78-.248.165 0 .349.02.553.059v.276a2.266 2.266 0 0 0-.53-.082.617.617 0 0 0-.472.19c-.119.126-.178.295-.178.506 0 .204.061.37.183.495.122.126.282.19.479.19.175 0 .356-.039.542-.116v.285a2.604 2.604 0 0 1-.643.097ZM121.064 71v-1.818h.384V71h-.384Zm0-2.148v-.33h.384v.33h-.384ZM122.035 71v-1.818h.384v.341c.203-.254.451-.381.744-.381.183 0 .329.05.439.15.109.1.163.234.163.402V71h-.384V69.8c0-.135-.023-.23-.069-.288-.046-.058-.122-.087-.229-.087-.235 0-.456.133-.664.397V71h-.384ZM125.88 70.941c-.257.067-.477.1-.66.1-.312 0-.567-.088-.763-.266a.89.89 0 0 1-.296-.692c0-.276.087-.502.261-.678a.892.892 0 0 1 .665-.265c.256 0 .454.078.593.234.14.157.21.379.21.667l-.002.102h-1.335c.056.432.302.648.738.648.16 0 .357-.037.589-.11v.26Zm-1.309-1.046h.933c0-.338-.147-.507-.44-.507-.295 0-.46.169-.493.507ZM82.431 60.313c.176.04.304.028.449-.032a.65.65 0 0 0 0-.417c-.352-.176-.579.091-.449.449Zm-.256-3.683c.418.505.173 1.503.256 2.305.416-.086.82-.356 1.314-.32.331.025.614.2.928.256a.928.928 0 0 1-.032 1.09.987.987 0 0 0-.832.416c-.02.366.04.643-.032.864-.195.593-1.097.519-1.378 1.025-.201 1.162.107 2.54 0 3.875-.059.742-.22 1.4-.992 1.25-.076-.222-.072-.446-.097-.673-.023-.218-.102-.428-.128-.64-.021-.175.017-.372 0-.577-.02-.247-.11-.507-.096-.737.02-.314.188-.594.224-.897.017-.141-.012-.3 0-.448.015-.174.072-.323.065-.48-.01-.216-.138-.338-.193-.545-.026-.1-.01-.252-.032-.384-.075-.45-.013-.851.128-1.345-.228-.046-.417.163-.576.288a2.03 2.03 0 0 0-.448.448c.033.44-.41 1.12-.673 1.185-.36.09-.612-.145-.93-.256.057-.942.01-1.902.45-2.434.107-.13.28-.228.416-.352.14-.128.24-.35.448-.32.032.437.163.776.416.993.153.026.203-.151.289-.225.231-.197.605-.375.737-.704.322-.81-.384-1.973.191-2.626.097-.12.427-.057.577-.032ZM70.934 56.758c.185.04.258.213.448.32.2.112.456.125.608.256.23.196.335.54.225.929.726.194 1.444-.364 2.273-.192.05.242-.05.333-.16.416-.323.526-.957.776-1.665 1.025-.233.082-.475.22-.705.288-.1.03-.206.012-.32.032-.316.057-.618.255-.897.32-.23.054-.458.01-.672.032-.132.014-.276.08-.416.097-.57.069-1.163.069-1.634-.16.007-.364.047-.58.192-.737.48-.52 1.844-.126 2.306-.673a.761.761 0 0 0 .128-.512c-.032-.3-.317-.496-.288-.833.029-.336.371-.386.577-.608ZM102.544 59.704c-.463.413-.929.822-.929 1.697.273.367.433.083.641-.192.308-.409.725-.965.8-1.409-.098-.105-.295-.11-.512-.096Zm-1.217 3.139c.112.223.369.255.416.48.111.532-.567.82-.512 1.377.026.081.132.082.192.129.116.04.114-.108.16-.16.122-.139.325-.272.448-.45.124-.177.155-.423.353-.544-.048.24-.136.441-.257.609-.063.457-.091.956-.256 1.377-.043.111-.14.195-.192.32-.119.286-.13.577-.48.64-.253-.177-.504-.328-.513-.64-.009-.323.379-.63.225-.993-.241-.05-.478.123-.769.033-.074-.296-.186-.463-.128-.705.088-.368.525-.483.736-.737-.127-.329-.429-.121-.672-.032-.277.102-.511.19-.8.064-.285-1.044.535-1.475 1.12-1.857.487.092.954-.301.641-.609-.535.042-1.244.1-1.538-.192-.037-.279-.295-.448-.192-.769.397-.137.919-.149 1.185-.416-.265-.34-.362-.805-.288-1.41.871.037 1.271.545 1.601 1.122.671.03 1.104-.178 1.537-.384.33-.48.327-1.095.609-1.57.137-.23.412-.412.544-.64h.065c.464.417 1.062.774 1.313 1.505.147.43.261.974-.192 1.12-.129.043-.338.01-.481.033-.384.062-.868.118-1.185.352-.302.224-.381.602-.608.897-.217.282-.55.414-.801.64-.272.245-.416.6-.641.865-.202.24-.451.343-.64.545ZM125.283 56.918c.505.396.36 1.169-.032 1.57-.118.12-.35.234-.545.383-.192.148-.358.335-.512.417-.135.071-.316.093-.48.16-.143.058-.278.172-.417.224-.098.037-.218.032-.32.064-.41.128-.854.315-1.217.545-.34.215-.909.423-.769.928.158.022.258-.218.417-.32.267-.172.678-.309 1.056-.512.662-.356 1.363-.709 2.146-.993.399-.145.807-.342 1.153-.385.378-.045.686.033.865.16.451.322.551 1.297-.032 1.602-.491.257-1.034.084-1.697.096.015-.23.211-.28.256-.48-.223-.203-.637-.078-.929-.032-.889.137-1.729.437-2.338.864-.189.399-.524.651-.769.993-.011.342-.237.468-.32.737-.299.01-.544-.032-.704-.16.016-.27-.036-.532-.032-.77.007-.506.189-.894.32-1.28.195-.318.515-.51.736-.8-.083-.533-.547-.965-.32-1.602.122-.081.286-.12.481-.128.119.082.084.258.16.352.399.5.684-.293.896-.576.462-.05.971-.269 1.41-.065-.089.105.025.411-.065.513-.42.477-1.377.416-1.729.96-.003.143.166.112.192.225.834-.003 1.477-.512 1.922-1.057.134-.164.333-.42.384-.576.092-.282.036-.58.16-.865.096-.055.248-.221.321-.192h.352ZM61.326 59c.506.017.677-.407 1.249-.225.165 1.404-1.265 1.212-1.697 2.018-.182.957.691.579.736.032.3-.03.544.022.8.064.235.038.446.127.673.16.49.071 1.16-.085 1.538.096.392.188.777.787.832 1.217.052.402-.166.801-.224 1.153-.02.12.013.244 0 .352-.012.096-.057.177-.064.257-.032.366.048.693-.032.992-.104.39-.42.912-.672 1.09-.274.192-.783.253-1.058.096-.33-.191-.677-.812-.832-1.218.325-.05.598.037.865 0 .16-.085.144-.28.224-.448.277-.58.744-1.138.608-2.082-.042-.291-.202-.594-.448-.704-.075-.034-.206-.029-.352-.064-.161-.039-.331-.124-.545-.128-.672-.015-1.367.339-1.601.864.15.257.642.17.993.224.047.849-.788.814-.993 1.41.157.19.243.102.544.096.076.194 0 .367-.064.512-.245-.01-.47 0-.576.128-.052.287.094.616.032.93-.048.24-.252.39-.289.576-.256 0-.529.017-.704-.064-.004-.285.017-.594-.032-.833-.318.027-.92.171-1.377.064-.02-.361.026-.657.16-.865.258-.233.883-.098.833-.64-.541-.082-.928.268-1.538.224-.14-.117-.239-.273-.192-.577.112-.107.267-.173.449-.224.182-.05.392-.03.512-.16.167-1.304-1.415-.387-1.89-.128-.046.34.218.653.32 1.025.05.176.022.414.065.64.061.33.214.576.192.8-.026.254-.224.39-.32.61-.516.124-.603-.108-.833-.449-.174-.257-.326-.414-.352-.768-.056-.75.306-1.671.192-2.402 1.038-.105 2.066-.22 2.21-1.218h.448c.145.207.175.53.32.737.118-.021.216-.062.353-.064v-1.025c-.352-.588-1.525-.355-2.05-.768.029-.147-.053-.182-.064-.289.207-.355.676-.353 1.089-.448.406-.093.806-.273 1.185-.32-.05-.601-.195-1.44.256-1.698.295.016.62-.027.864.064.18.067.458.3.481.449.047.3-.288.53-.224.928ZM92.552 59.48c-.014.334-.026.666.192.769.477.008.784-.293 1.281-.16-.017.166.042.256.064.384-.114.236-.795.694-.128.896.049.401-.316.613-.449.897-.053.113-.039.27-.096.385-.088.177-.353.25-.352.48.14.117.288.07.416.128.319.145.393.569.833.577-.017.251-.073.592 0 .832.34.12.64.279.8.576-.021.192-.105.322-.16.481-.723.002-1.452.12-2.177.064-.545-.041-1.08-.105-1.602-.032-.397.055-.705.263-1.28.192-.206-.025-.354-.13-.577-.16-.059-.388.087-.733.128-1.12.042-.398-.05-.81 0-1.218.027-.22.122-.41.128-.64.024-.892-.015-1.787.192-2.627.172-.158.441-.22.801-.192.002.137.053.224.032.385-.06.056-.212.023-.32.032-.253.49-.055 1.388-.128 2.305-.022.272-.111.53-.129.77-.015.208.015.4 0 .576-.023.276-.178.598-.16.8.019.203.248.33.16.577.15.098.324.038.513.032a25.007 25.007 0 0 0 1.986-.16c.445-.05.94-.094 1.152-.385-.286-.314-.702-.611-.768-1.153-.028-.223.056-.445 0-.704-.277-.042-.4.07-.577.128.035 1.094-.694 1.588-1.729 1.505-.028-.797.457-1.08.865-1.441-.201-.192-.528-.198-.545-.512-.03-.537.848-.664 1.025-1.09-.118-.202-.421-.219-.737-.224-.144-.731.275-.9.353-1.409-.309-.129-.694-.182-1.057-.256-.044-.158-.104-.302-.16-.448.2-.167.37-.3.64-.32.329-.025.684.138.993.096.304-.042.674-.276.96-.449.49-.293.694-.712 1.442-.576.17.225.598.338.609.64.028.764-2.071.331-2.434.769ZM112.344 58.583c.633.047 1.103.026 1.377.416.264.377-.03 1.101.288 1.506.953-.02 1.151-.792 2.05-.865.174.192.441.108.577.32.201.317-.059.761-.161 1.09-.551.4-1.52.584-2.369.8-.396.1-.65.173-.545.64.371.29.762.046 1.185.064.512.023 1.184.379 1.377.801.157.343.227 1.087.064 1.505-.086.223-.304.319-.48.513-.119.051-.315.026-.48.032-.387-.163-.561-.615-.93-1.057-.129-.155-.311-.309-.48-.512-.193-.234-.267-.475-.576-.417-.222.042-.292.263-.289.576-.431.544-1.267 1.17-2.145 1.314-.525.085-1.064-.087-1.217-.609.172-.289.55-.27.865-.384.3-.109.623-.315.864-.513.237-.193.575-.46.417-.864-.638-.106-1.306.14-1.954.032-.071-.203-.329-.402-.256-.577.106-.254.97-.167 1.345-.192.37-.025.687-.108.865-.224.282-.185.486-.614.48-.96-.003-.153-.104-.28-.128-.45-.032-.228-.011-.564 0-.864.01-.288-.009-.636.032-.8.032-.128.149-.21.224-.321ZM73.432 60.473c.013.133-.104.245-.16.352-.352.668-.908 1.208-1.282 1.922-.17.327-.32.592-.32 1.088 0 .183.018.384.032.577.016.221.1.422.128.64.092.711.055 1.396 0 2.178-.332.001-.656-.006-.864-.128-.08-.602-.543-.959-1.025-1.249-.175-.105-.342-.258-.449-.256-.174.004-.288.259-.448.32-.376.145-.618-.05-.96-.128a2.068 2.068 0 0 1 0-.737c.416-.178.652-.021 1.184-.032.107-.064.077-.265.193-.32.13-.003.262-.006.352.032.063.299-.152.319-.128.577.423.11.768.3 1.12.48.389-.69.195-1.767.577-2.466-.222-.12-.51-.174-.8-.224-.004-.157.017-.338-.032-.448.142-.013.076-.124.127-.193.375-.502 1.285-.5 1.281-1.377-.11-.081-.342-.042-.48-.096-.492.244-1.025.448-1.249.96.03.442-.095.88 0 1.282-.082.068-.118.18-.16.288-.263.004-.405.129-.672.128-.038-.384-.206-.724-.16-1.12.014-.131.1-.251.128-.385.062-.316-.04-.66.096-.96.266-.09.344.27.48.416.21-.122.394-.24.577-.385.173-.138.319-.33.512-.448.454-.279 1.135-.331 1.793-.384.188-.016.498-.11.609.096Z" clip-rule="evenodd"/><path fill="#231916" fill-rule="evenodd" d="M124.706 60.953c.323.567-.312 1.088-.64 1.41.429.15.916-.038 1.121.287.167.267-.011.801-.288.993-.244.168-.603.095-.929.224.013.857.326 1.639 0 2.402-.236.55-.41.862-1.282.801a4.53 4.53 0 0 1-1.345-.352c-.399-.18-.861-.459-.64-.897.246-.09.38.146.608.192.402.082 1.421-.053 1.634-.224.029-.574.297-1.16.128-1.73-.324-.33-1.146.021-1.409-.384-.046-.728.613-.752 1.057-.992v-.545c-.268.084-.673.15-.961.032-.064-.425.307-.38.608-.544.276-.15.467-.5.737-.609.167-.067.469-.026.672-.096.202-.069.638-.07.929.032ZM103.537 60.889c.216.102.501.08.64.288.178.265.102.74 0 1.057.429.172.929.161 1.281.385.433.274.652.676.641 1.409-.007.485-.152 1.026-.32 1.601-.192.654-.376 1.396-1.025 1.473-.804.095-2.021-.505-2.114-1.217.188-.068.336-.106.512-.096.146.008.257.088.385.096.214.014.521-.035.704-.128.334-.17.76-.927.897-1.473.073-.29.052-.556.032-.833-.281-.202-.568-.454-.961-.384-.46.082-.738.993-1.377.448-.214-.515-.254-.935 0-1.377.065-.112.21-.242.256-.384.042-.126-.009-.271.032-.385.081-.223.346-.333.417-.48ZM72.47 63.611c.464-.423 1.905.085 2.115.737.23.718-.389 1.415-1.153 1.089-.587-.25-.792-1.164-.961-1.826Z" clip-rule="evenodd"/><path fill="#231916" fill-rule="evenodd" d="M103.953 65.245c-.792.26-1.211-.327-1.441-.833.025-.156.056-.307.128-.417.971-.137 1.62.314 1.313 1.25Z" clip-rule="evenodd"/></g><defs><filter id="a" width="154" height="157" x="0" y="0" color-interpolation-filters="sRGB" filterUnits="userSpaceOnUse"><feFlood flood-opacity="0" result="BackgroundImageFix"/><feColorMatrix in="SourceAlpha" result="hardAlpha" values="0 0 0 0 0 0 0 0 0 0 0 0 0 0 0 0 0 0 127 0"/><feOffset dy="16"/><feGaussianBlur stdDeviation="6.5"/><feColorMatrix values="0 0 0 0 0 0 0 0 0 0 0 0 0 0 0 0 0 0 0.03 0"/><feBlend in2="BackgroundImageFix" result="effect1_dropShadow_185_231"/><feBlend in="SourceGraphic" in2="effect1_dropShadow_185_231" result="shape"/></filter></defs></svg>