<svg xmlns="http://www.w3.org/2000/svg" width="154" height="157" fill="none"><g filter="url(#a)"><path fill="#fff" d="M13 0h128v128H13z"/><path fill="#711A5F" fill-rule="evenodd" d="M30.833 61.373c.368.104-.25 1.338-.478 1.895-.03.071-.232.493-.28.58-.106.192-.186.4-.24.61-.117.438-.124.896-.096 1.343.062.946.382 1.725.359 2.668-.342.055-.578.39-.92.38-.84-.795-2.364-2.605-.429-3.23.116-.038.223-.963.255-1.1.098-.426.204-.854.358-1.268.167-.45.39-.982.749-1.332.173-.169.503-.48.722-.546Zm12.869.474c.051-1.189.168-2.374.189-3.567v-.093h.002v-.376c.005-.37.029-.729.074-1.091l.005-.025.006-.049.004-.024.003-.026.004-.024.003-.025.004-.025.004-.025.003-.024.005-.026.004-.024.003-.025.004-.025.005-.025.005-.025c.053-.3.184-.755-.154-.952-.498-.29-1.444.315-1.85.525-2.469 1.278-4.867 2.687-7.36 3.92-.492.242-.991.482-1.515.661-.458.157-.926.191-1.387.357a3.156 3.156 0 0 1-1.335.195c-.198-.927 1.43-1.686 2.117-2.057a19.034 19.034 0 0 1 1.575-.733c.336-.142 1.313-.37 1.514-.656.643-.919 1.053-2.057 1.166-3.473-1.551.433-5.49 2.201-5.783 2.372-.486.28-.902.49-1.578.213-.776-.317.172-1.461.668-1.832.014.197-.072.616.139.726.119.061.521-.085.646-.122.894-.267 1.774-.708 2.616-1.094 1.008-.461 1.986-.98 2.976-1.473.306-.152.706-.158.867-.469.164-.32.13-.898.18-1.254.115-.832.23-1.663.5-2.466.093-.283.276-.56.345-.845l.006-.03.004-.017.003-.015.002-.016.003-.016.002-.016.002-.016.008-.065.001-.016.002-.017.001-.016.001-.017v-.017l.001-.016v-.017l.001-.017v-.205l-.002-.016c-.003-.092-.009-.183-.014-.272v-.017h-.001v-.016l-.001-.017v-.017l-.002-.032v-.033h-.001v-.05l-.001-.014-.001-2.283v-2.563c.662-.157 3.19 2.438 3.284 2.579.968 1.457-.64 5.716-1.06 6.846 1.496.076 2.738-.943 4.026-1.389.302-.104-.842-.837-.907-.867-.206-.092-.431-.168-.612-.302l-.007-.005-.018-.015-.007-.005c-.12-.105-.226-.282-.229-.422v-.007c.582-.024 1.203.142 1.8.144.354.002.709-.007 1.064-.011.25-.003.57-.102.813-.034.261.074.29.268.494.404.173.117.476.086.572.212.399.538-.165 1.013-.642 1.17-.786.256-1.532.578-2.307.863-.773.283-1.53.603-2.303.889-.415.153-.827.312-1.245.456-.247.084-1.085.214-1.233.407-.407.535-.723 1.126-1.015 1.72-.274.561-.718 1.222-.847 1.82.72.025 1.634-.459 2.284-.694 1.118-.404 2.226-.838 3.35-1.225.38-.13.779-.333 1.177-.394.332-.051.235-.046.452.176.209.214.504.267.615.564.156.411-.063 1.021-.082 1.448-.062 1.462-.223 2.925-.348 4.382-.183 2.194-.37 4.387-.574 6.578-.03.315-.097.623-.111.94-.015.307.126 1.056-.175 1.276-.69.5-2.515-1.13-2.994-1.512-.367-.289-.709-.604-1.115-.845-.123-.072-.3-.322-.46-.27-.256.088-.187.256-.328.383-.317.288-1.545.168-1.912.065-.491-.137-.52-.596-.46-1.018.016-.107-.925-.113-1.04-.281-.03-.043-.04-.255-.069-.331-.156-.393.163-.486.461-.672.365-.225.735-.385 1.178-.403.137-.006-.12-.488-.164-.532-.148-.15-.378-.204-.57-.284-.353-.148-.798-.241-.596-.678.19-.408.904-.839 1.33-.986.052-.018.279-.712.337-.812.15-.255.336-.49.51-.729.33-.454.809-1.104.714-1.685-.012-.072-.152-.325-1.136.448-.33.258-.618.728-.883 1.048-.306.368-.647.714-.941 1.09-.288.367-.414.698-.953.663-.452-.03-.898-.21-1.28-.426-.569-.32-.828-.423-.592-1.076-.017.05 1.826-.068 2.013-.132.594-.206 1.08-.613 1.575-.969.45-.322.881-.67 1.275-1.05.386-.372.591-.453 1.1-.633.395-.14.704-.435 1.106-.563.62-.196 1.544.363 1.161 1.026-.137.235-.49.405-.673.621-.2.237-.35.503-.59.711-.69.598-1.461 1.267-1.876 2.07.398.113 1.067-.24 1.333.078.204.246.102.654.065.934-.04.3-.416.445-.456.682-.053.31.346.236.526.303.196.075.15-.052.23.168.067.189-.121.613-.158.81-.053.293-.127.576-.05.882.242.958.488.901 1.1 1.176.699.313 2.39.999 2.106-.073-.245-.927.326-2.047.278-2.934l-.005-.093-.004-.092-.01-.275-.001-.092-.002-.184v-.275l.003-.275.007-.275.006-.183.008-.183h-.001ZM57.454 59.602c.697-.123.532.916.582 1.304.069.529.157 1.055.24 1.583.116.74.447 1.519.477 2.263.03.74-2.43 1.393-2.453 1.19-.128-1.082.152-2.32.337-3.39.096-.547.211-1.093.36-1.63.042-.155.292-1.29.457-1.32Zm5.959 3.564-.018.016c-.092.093-.115.323-.147.434-.074.266-.25.633-.223.913.045.458.656.397 1.061.584.12-.585.467-1.61-.125-2.073-.084.185-.416.03-.547.125h-.001Zm7.513 1.354c0 .367-.022.735-.032 1.102v.02l-.001.018v.038l-.001.018c-.013.527.168.86-.233 1.274-.163.166-.742.85-1.018.793-.271-.057-3.841-1.21-5.24-1.868-.654-.308-1.333-.536-1.998-.811-.362-.152-.821-.508-.728-.926-.286.023-1.053-.035-1.016-.446.024-.246.486-.4.672-.495.268-.138.48-.238.584-.523.267-.737-.793-.531-1.27-.541.014-.558.322-.778.802-1.032.476-.253.866-.541 1.379-.742.664-.26 1.184-.693 1.79-1.048.673-.395.927.048 1.62.064.246.839-.462.9-.937 1.379.2.238.66.046.94.105.158 1.554.634 3.714-1.034 4.656.135-.077.862.186 1.034.22.39.08.78.153 1.175.213.709.109 1.498.233 2.213.153.291-1.213-.483-2.524-.416-3.76-.78-2.787.402-7.408.021-10.792-.448-.064-.166 1.481-.18 1.67-.031.402-.331.539-.627.798-.404.353-.615.762-.835 1.228-.122.259-.25.514-.396.764-.1.17-.402.486-.42.677-.047.557.528 1.278-.465 1.21-.378-.025-.794-.133-1.107-.34-.104-.07-.594-.678-.651-.672-.947.092-.952 1.089-.963 1.772 0 .402-.496 1.084-1.027 1.202l-.03.006-.03.004-.03.004-.03.002h-.061l-.03-.002-.03-.003-.03-.005-.03-.006-.029-.008c-.03-.391.201-.728.295-1.096.06-.237.039-.598-.015-.826-.451.202-.955 1.103-1.41 1.106-.261.002-.733-.477-.823-.683-.433-.981 2.253-1.228 2.79-1.467.036-.016.198-1.309.24-1.466.126-.449.347-.999.264-1.461.033-.169-1.15.515-1.277.592-.415.25-.813.523-1.237.759-.789.438-1.967.888-2.902.648-.17-.043-.301-.184-.435-.28.424-.711 1.622-1.265 2.364-1.64.927-.467 1.903-.847 2.876-1.22.133-.051.04-.219.131-.278.123-.08.459-.024.607-.024.326 0 .8-.119 1.09.076.378.254.173.78.06 1.12-.295.887-.813 1.605-.72 2.578 2.596.547 2.664-1.273 3.706-2.182.187-1.578.582-2.962 1.06-4.266.326-.02.603-.046.926-.048.257 0 .706-.12.95-.056h.002l.001.002h.007l.001.002h.006l.003.002h.004c.506.189.276 1.555.313 1.979.295 3.375-.84 6.709-.52 10.717l.033.057.03.057.015.03h.001c.284.576.267 1.282.26 1.897v.001Zm-7.86-3.033v.695c.387-.368 1.182-.513 1.311-1.12-.661-.122-.478.139-1.31.425ZM82.804 61.097c-.596-.226-.92-.551-.98-1.59.379.009.366.386.634.498.913-.27 2.032-.346 2.543-.992.032-.042.852-.098.977-.14.267-.089.508-.222.744-.366.304-.187.71-.272.988-.483.428-.326.343-.965.43-1.427.225-1.203.717-2.353.904-3.567.115-.742-.457-2.357.777-2.465.246-.022.378.194.482.364.172.282.206.197.47.357l.021.013.02.011.02.014.02.012.02.012.018.013.02.012.018.012h.001c.342.229.562.471.568.877v.022c0 .345-.023.696-.073 1.04l-.006.041-.003.021-.003.02-.004.021-.002.02-.005.021-.003.02-.004.02-.003.021-.004.02-.003.022-.004.02-.004.02c-.035.185-.064.4-.167.566-.141.228-.238.294-.305.55-.073.28-.122.548-.225.82-.2.523-.443 1.018-.49 1.58.59.286 1.23-.235 1.8-.298-.15-.688-.15-.6 0-1.29.025-.106.9.028.996.03.143.001.313.019.442-.053.105-.059.1-.216.209-.27.133-.068.452-.003.6-.002.487.004.973-.002 1.46-.002.567 1.652-1.464 1.646-3.222 2.238l-.076.026-.078.026-.076.026-.076.026-.076.026a80.706 80.706 0 0 0-2.751 1.005c-.593 3.186-2.374 6.583-5.976 7.534-1.023.27-2.377.503-3.44.398-.166-.017.284-.269.27-.255.196-.202.148-.251.521-.354a9.822 9.822 0 0 0 1.908-.758c1.148-.597 2.162-1.38 3.221-2.1.088-.06.158-.718.209-.855.098-.262.227-.51.36-.76.244-.46.93-1.436.911-1.953-.506.39-.933.67-1.545.896-.433.16-.971.567-1.434.62-.162.018-1.267.174-1.544.069Zm7.81-.597c-.084-.006.432.318.477.337.093.04.217.048.288.128.082.094.042.253.134.335.097.087.392.112.522.161.326.124.625.293.909.483.172.114 1.457 1.218 1.59 1.136.684-.417 1.548.093 2.276-.11.262-.072.634-.21.582.187-.008.065-.482.708-.528.717-1.272.251-1.782 1.095-2.754.992-.805-.087-2.647-2.248-2.647-2.381-.633-.598-1.33-1.136-1.802-1.885.265-.084.568-.13.954-.1ZM120.43 52.899v-.893.893Zm.777 8.642c.335.129.575.366.548.797-.051.765-.685 1.017-1.415 1.042-.481.017-1.866-.289-2.172.183-.208.321.243.908.303 1.247.087.49.127.987.151 1.484.045.924.035 1.853.025 2.778-.009.755-.605 1.394-1.399 1.596-.538.138-1.119-.11-1.656-.158-.628-.056-1.22.1-1.779-.235-.384-.23-.752-.236-1.17-.413l-.023-.01-.024-.01-.024-.01-.025-.011-.025-.01-.025-.01-.053-.02-.026-.012-.026-.01-.027-.01c-.466-.188-1.013-.43-1.034-.91l-.001-.027c.437.326 1.075.256 1.602.296.585.043 1.174.067 1.759.125.457.045.917.102 1.376.108.556.006 1.003-.444 1.398-.766.091-.425.083-.841.2-1.26.093-.337-.058-.664-.133-.992-.102-.449-.157-.907-.256-1.357-.056-.255-.118-.72-.268-.93-.158-.218-.064-.128-.337-.097-.07.008-.671.059-.69.072-1.34 1.026-3.048 1.707-4.554 2.579h-1.696c-.111 0-.555-.475-.622-.56-.593-.766.152-.955.803-1.155.617-.19 1.194-.513 1.776-.783 1.173-.544 2.279-1.2 3.531-1.586a11.132 11.132 0 0 1 2.457-.48c.08-.012.275-.303.392-.354.168-.075.375-.063.556-.086.46-.06.903-.169 1.37-.183.365-.012.846-.002 1.214.138h-.001Zm-1.094-8.543c.018-.116.167-.108.317-.1v-.892c-.333.114-.257-.156-.424-.198.036.378-.356 1.023.107 1.19Zm-4.979-1.29c.275-.04.306-.309.424-.496-.167-.042-.091-.312-.424-.198v.695Zm1.589-.297h1.06c-.198-.44.613-.802 0-.992-.413.275-.677.689-1.06.992Zm-1.589-1.885v.893c.651-.02.878-.435 1.06-.893-.409-.09-.516-.094-1.06 0Zm5.085.893c1.253-.538 1.896 1.811 1.058 2.778 1.217-.417 1.931-1.302 2.331-2.481h.318c.229-1.208 1.149-1.768 1.06-3.275-1.881-.513-3.326.765-4.767 1.292.067.538.459 1.24 0 1.686Zm-11.227 10.746c.031.11 4.748-2.262 5.138-2.474.65-.353 1.347-.536 2.024-.83.51-.222.995-.49 1.474-.764.709-.404 3.29-1.253 3.721-1.27.885-.035 1.359.396 1.278 1.32-.083.987-1.16 1.625-1.983 2.07-1.147.62-2.279 1.205-3.351 1.942-.138-.7.735-1.133 1.162-1.572a26.386 26.386 0 0 0 2.11-2.499c-.982-.293-2.157.369-2.967.819-.432.237-.85.503-1.31.692-.334.138-.702.219-1.019.396-.345.194-.479.485-.753.743-.257.235-.608.302-.873.558-.466.452-1.078.762-1.632 1.11-.639.4-1.278.801-1.968 1.12-.653.302-1.346.847-2.096.889-.986.054-1.478-.853-1.053-1.641.349-.648.944-.56 1.549-.818.435-.185.808-.501 1.187-.767.843-.594 1.794-.926 2.704-1.41.573-.305 1.118-.649 1.678-.97.28-.16.563-.315.853-.456.251-.122.705-.214.904-.386 1.013-.872 2.495-1.302 3.073-2.58.073-.166-.742-.07-.798-.098-.217-.108-.267-.487-.316-.68.017.066-.89.51-.974.553-.252.132-1.317.553-1.469.16-.091-.239.531-.643.672-.77.391-.354.659-.745.978-1.15-.046.06-.844-.441-1.018-.407-.39.077-.501.584-.652.878-.298.59-.732 1.605-1.614 1.13a10.264 10.264 0 0 0-1.373 1.914c-.164.304-.254.869-.505 1.084-.254.218-.61.12-.669.55-1.786-.572-1.168-3.198-1.124-4.554.015-.528.004-1.054-.025-1.58.76.071 1.302.268 1.531.997.231.728.186 1.53.154 2.279.372-.148.762-.436 1.057-.694.262-.229.589-.559.613-.906.027-.398-.03-.809-.075-1.206-.036-.326-.174-.29-.294-.55-.137-.296-.03-.792-.089-1.119a5.065 5.065 0 0 0-.316-1.007c-.128-.311-.277-.614-.394-.928-.103-.278-.118-.932-.291-1.139a.764.764 0 0 0-.319-.198c-.081-.374.13-.474.107-.793.226-.047.202.141.212.297-.009-.13 1.103.28 1.19.333.348.215.625.51.909.793.389.391.826.794 1.418.875.301.042.589-.037.885-.062.385-.033.79.043 1.156-.108.18-.074.356-.174.458-.34.093-.15.063-.341.156-.492.09-.143.271-.213.373-.347.119-.158.184-.346.278-.516.155-.271.466-.438.641-.693.149-.216.177-.492.396-.664.204-.16 1.716-.36 1.778-.07.254 1.176-.273 1.661-.952 2.184-.029.022.243.098.297.083.104-.027.138-.171.203-.236.087-.084.124-.18.238-.241.874-.475 1.719-.905 2.757-1.005.922-.089 2.225-.04 2.86.704.291.341-.081 1.564-.245 1.925-.109.246-.263.481-.46.675-.226.221-.237.468-.354.742-.103.243-.41.379-.566.595-.158.22-.277.462-.413.695-.136.23-.271.465-.458.663-.134.142-.336.234-.445.395-.107.153-.083.4-.211.531-.062.061-.242.079-.279.127-.203.26-.124.515-.414.771l-.012.011-.012.01-.011.01-.012.01-.023.02-.012.01-.011.009-.011.01-.034.028c-.191.16-.351.304-.359.585v.017c-1.024.497-1.824.909-3.072.496-1.472 1.334-8.648 5.254-10.486 6.183ZM27.035 75.59c.393-.012.994.034 1.719.034.331 0 .65-.012.798-.023.06.16.171.31.455.632 1.043 1.254 3.069 3.634 3.817 4.45.013 0 .024-.011.037-.011 0-1.472.025-3.174-.05-3.945-.036-.378-.146-.55-.527-.644a5.51 5.51 0 0 0-.774-.125c-.036-.046-.024-.346.013-.369.307 0 .871.035 1.645.035.602 0 1.178-.035 1.4-.035.037.035.037.323 0 .369-.197.033-.344.057-.503.103-.345.103-.455.253-.504.678-.074.978-.085 2.645-.098 4.347 0 .517.013 1.184.024 1.587-.183-.023-.896-.012-1.104.01-.7-.92-3.66-4.495-4.446-5.437-.023-.035-.06-.013-.06 0-.025 1.24-.013 3.644.025 4.174.024.483.196.655.538.724.197.046.419.08.725.115.038.046.038.322-.024.38-.393 0-.945-.035-1.548-.035-.674 0-1.214.034-1.558.034-.049-.046-.038-.333 0-.38.27-.034.479-.057.688-.126.27-.08.392-.264.43-.655.072-.61.11-2.703.12-4.634 0-.241-.12-.564-.403-.68-.234-.102-.48-.16-.848-.195-.036-.045-.025-.344.013-.379ZM39.31 80.327c-.356.126-1.019.31-1.18.425-.036.035-.108.265-.108.38 0 .529.404.816.822.816a.757.757 0 0 0 .392-.103c.062-.034.099-.115.099-.23.024-.323.024-1.035.024-1.23 0-.012-.036-.058-.049-.058Zm-.123-1.323c-.196-.264-.54-.38-.871-.38-.27 0-.491.07-.565.138-.11.092-.344.53-.443.736-.048.047-.428-.125-.416-.206.012-.115.183-.668.27-.725.59-.403 1.46-.7 1.817-.7.626 0 1.104.275 1.376.667.245.332.306.758.306 1.16 0 .552-.037 1.346-.037 1.807 0 .23.086.447.38.447.161 0 .259-.01.418-.058.012.047-.024.391-.061.426-.307.288-.847.426-1.229.426-.392 0-.625-.138-.711-.334l-.074-.218c0-.023-.037-.023-.049-.023-.6.38-1.167.575-1.4.575-.257 0-.516-.104-.712-.276a1.481 1.481 0 0 1-.467-1.104c0-.161.137-.564.21-.679.38-.195 1.877-.529 2.333-.724a.207.207 0 0 0 .097-.127c.013-.08.013-.126.013-.206a1.05 1.05 0 0 0-.185-.622ZM42.857 82.19c.17-.046.233-.207.258-.437.011-.345.025-1.231.025-1.806 0-.334-.014-.76-.025-.908-.025-.114-.123-.264-.602-.426-.012-.07.025-.264.062-.31.674-.07 1.498-.299 1.877-.483.026.012.05.059.05.08 0 .127-.012.449-.012.644 0 .035.049.046.061.035.602-.448 1.19-.713 1.609-.713.564 0 .957.219 1.239.61.247.356.32.816.32 1.356 0 .679 0 1.68.012 2.058 0 .081.05.162.11.196.173.105.345.138.602.173.024.068 0 .322-.061.38-.184 0-.553-.035-1.338-.035-.64 0-.934.023-1.314.034-.024-.057-.038-.333 0-.38.172-.023.306-.045.393-.067.147-.059.196-.162.208-.38.012-.46.038-1.899-.049-2.358a.863.863 0 0 0-.356-.574c-.16-.128-.356-.174-.601-.174-.21 0-.504.08-.713.22-.073.046-.11.149-.11.252.012.77.012 2.001.024 2.61.013.288.086.356.258.403.123.034.197.045.406.069.025.057.011.322-.037.38-.381-.012-.785-.035-1.375-.035-.75 0-1.093.023-1.326.034-.038-.069-.038-.322 0-.38.147-.01.257-.034.405-.067ZM52.37 78.028c.86 0 1.867-.035 2.455-.093.05.047.063.322 0 .38-.466.08-.76.172-1.018.414-.332.321-.774.736-1.08 1.046-.013.011 0 .034 0 .057.257.425 1.412 1.829 1.866 2.186.246.195.356.217.822.24.037.058 0 .335-.06.38-.234.035-1.02.045-1.475.045-.318-.01-.564-.136-.688-.252-.306-.275-.896-1.104-1.35-1.713-.098-.127-.208-.265-.356-.298 0 .586 0 .872.012 1.287.013.345.086.414.32.471.136.035.258.057.43.08.036.07 0 .335-.062.38-.282 0-.7-.034-1.399-.034-.676 0-1.056.034-1.362.034-.063-.045-.063-.333 0-.38.183-.023.306-.034.428-.08.185-.057.222-.16.247-.425.024-.322.024-1.415.024-1.944 0-2.862 0-3.53-.024-3.77-.013-.163-.062-.277-.221-.334a3.622 3.622 0 0 0-.503-.093c-.05-.069-.038-.31 0-.344.748-.036 1.78-.207 2.184-.357.024.012.086.15.086.184-.099.15-.122.38-.148 1.162-.012.758-.024 1.666-.012 3.863.16-.023.356-.115.553-.265.442-.345 1.019-1 1.043-1.184 0-.092-.037-.15-.183-.184-.16-.046-.491-.08-.578-.092-.037-.069 0-.334.05-.367ZM58.79 80.327c-.356.126-1.02.31-1.178.425-.037.035-.111.265-.111.38 0 .529.405.816.823.816a.76.76 0 0 0 .392-.103c.061-.034.099-.115.099-.23.025-.323.025-1.035.025-1.23 0-.012-.037-.058-.05-.058Zm-.122-1.323c-.197-.264-.54-.38-.873-.38-.269 0-.49.07-.564.138-.111.092-.344.53-.443.736-.048.047-.43-.125-.416-.206.01-.115.183-.668.27-.725.589-.403 1.46-.7 1.817-.7.625 0 1.105.275 1.374.667.245.332.308.758.308 1.16 0 .552-.038 1.346-.038 1.807 0 .23.087.447.382.447.159 0 .257-.01.417-.058.012.047-.024.391-.062.426-.306.288-.846.426-1.227.426-.394 0-.627-.138-.712-.334l-.074-.218c0-.023-.038-.023-.05-.023-.6.38-1.165.575-1.399.575-.258 0-.515-.104-.711-.276a1.478 1.478 0 0 1-.468-1.104c0-.161.135-.564.208-.679.381-.195 1.88-.529 2.335-.724a.21.21 0 0 0 .098-.127c.012-.08.012-.126.012-.206 0-.207-.05-.438-.184-.622ZM63.675 76.98c-.099.07-.663.127-.798.058-.196-.08-.32-.264-.38-.494-.025-.116-.013-.391.074-.494.146-.127.515-.242.81-.242.257 0 .441.08.491.137.086.093.11.3.11.391 0 .23-.123.507-.307.644Zm.994 5.658c-.245 0-.675-.034-1.4-.034-.625 0-1.091.034-1.362.034-.036-.045-.048-.333 0-.38a2.36 2.36 0 0 0 .48-.091c.16-.058.196-.161.208-.437.011-.265.025-1 .025-1.576 0-.403-.014-.85-.014-1.058 0-.092-.023-.206-.098-.276-.097-.103-.22-.16-.515-.264-.037-.058-.012-.288.037-.334.307 0 1.4-.16 1.977-.38 0 .484-.013 1.312-.013 1.979 0 .599 0 1.368.013 1.897 0 .3.074.39.233.449.11.034.233.057.48.092.036.057.011.334-.05.38ZM68.584 75.59c.38 0 1.093.034 1.78.034.725 0 1.339-.035 1.769-.035.049.046.049.31 0 .369-.22.033-.418.068-.565.103-.295.058-.393.24-.405.61-.024.919 0 2.138 0 2.748.012.448.05 1 .147 1.357.171.747.81 1.276 2.001 1.276.884 0 1.817-.276 1.94-1.92.062-.864.074-2.508.025-3.312-.025-.484-.135-.679-.54-.748a5.643 5.643 0 0 0-.689-.114c-.035-.058-.035-.3.013-.369.38 0 .897.035 1.511.035.797 0 1.166-.035 1.424-.035.049.046.06.322 0 .369-.185.033-.369.057-.516.103-.32.08-.418.264-.442.827-.036 1.035-.06 2.38-.148 3.163-.183 2.081-1.46 2.76-3.155 2.76-2.124 0-2.898-.954-3.045-2.116-.11-.805-.085-2.944-.098-4.048-.012-.298-.099-.494-.38-.575a3.891 3.891 0 0 0-.638-.114c-.038-.058-.038-.323.011-.369ZM78.319 82.19c.17-.046.232-.207.257-.437a65.6 65.6 0 0 0 .024-1.806c0-.334-.011-.76-.024-.908-.025-.114-.123-.264-.601-.426a.644.644 0 0 1 .06-.31c.676-.07 1.499-.299 1.88-.483.024.012.049.059.049.08 0 .127-.013.449-.013.644 0 .035.05.046.062.035.602-.448 1.19-.713 1.608-.713.566 0 .957.219 1.24.61.246.356.32.816.32 1.356 0 .679 0 1.68.012 2.058 0 .081.049.162.11.196.171.105.344.138.602.173.024.068 0 .322-.062.38-.184 0-.552-.035-1.338-.035-.639 0-.933.023-1.314.034-.024-.057-.036-.333 0-.38.172-.023.307-.045.393-.067.147-.059.197-.162.209-.38.012-.46.036-1.899-.05-2.358a.866.866 0 0 0-.356-.574c-.159-.128-.355-.174-.6-.174-.21 0-.504.08-.713.22-.074.046-.11.149-.11.252.012.77.012 2.001.024 2.61.012.288.086.356.257.403.124.034.197.045.406.069.025.057.012.322-.036.38-.382-.012-.787-.035-1.376-.035-.75 0-1.093.023-1.326.034-.037-.069-.037-.322 0-.38.147-.01.258-.034.406-.067ZM86.703 76.98c-.1.07-.664.127-.798.058-.197-.08-.32-.264-.381-.494-.025-.116-.012-.391.073-.494.147-.127.516-.242.81-.242.258 0 .444.08.492.137.085.093.11.3.11.391 0 .23-.123.507-.306.644Zm.995 5.658c-.247 0-.676-.034-1.4-.034-.627 0-1.094.034-1.364.034-.036-.045-.049-.333 0-.38a2.32 2.32 0 0 0 .479-.091c.16-.058.197-.161.209-.437.013-.265.024-1 .024-1.576 0-.403-.01-.85-.01-1.058 0-.092-.026-.206-.1-.276-.098-.103-.221-.16-.515-.264-.038-.058-.013-.288.037-.334.306 0 1.399-.16 1.975-.38 0 .484-.01 1.312-.01 1.979 0 .599 0 1.368.01 1.897 0 .3.074.39.235.449.11.034.233.057.478.092.037.057.012.334-.048.38ZM88.494 77.993c.356.011.908.035 1.411.035.602 0 1.02-.024 1.29-.035.062.046.073.31.025.367-.16.035-.355.07-.442.104-.075.023-.087.103-.075.15.148.448.786 2 .995 2.472.013.023.036.011.05 0 .232-.54.71-1.656.871-2.161.11-.312.025-.403-.111-.45a2.773 2.773 0 0 0-.552-.115c-.036-.068 0-.332.05-.367.171 0 .65.035 1.104.035.393 0 .847-.024 1.08-.035.05.035.038.31-.012.367-.172.035-.294.047-.43.092-.196.07-.33.23-.491.552-.318.62-.76 1.576-1.178 2.553-.197.483-.32.805-.417 1.081-.185-.01-.602-.023-.787.012-.097-.3-.232-.632-.38-1-.307-.783-.699-1.68-.933-2.22-.357-.793-.417-.886-.7-.978-.147-.045-.294-.068-.43-.092-.012-.068.013-.332.062-.367ZM96.423 79.648c0 .011.024.07.073.07.32.012 1.34 0 1.56-.046.05-.012.073-.058.086-.103-.062-.68-.37-1.255-.896-1.255-.48 0-.811.552-.823 1.334Zm3.168 1.749c.012.104-.037.32-.05.356-.54.609-1.435.989-2.161.989-.7 0-1.227-.208-1.595-.552-.517-.472-.725-1.184-.725-1.874 0-.956.479-1.68 1.129-2.07.405-.23.97-.38 1.425-.38 1.314 0 1.767 1.013 1.866 1.656.013.058.11.115.196.138.013.046-.049.276-.085.3-.418.126-2.173.23-3.095.264-.036 0-.061.068-.061.114.025.334.184.736.479 1.013.307.299.7.436 1.215.436.516 0 .946-.126 1.411-.46.014.012.05.035.05.07ZM105.004 78.177a.74.74 0 0 1 0 .23c-.036.16-.32.735-.491.942-.025.024-.123.046-.148.035-.257-.242-.589-.448-.921-.448-.158 0-.33.103-.454.24a.442.442 0 0 0-.073.243c-.013.655 0 2.104.012 2.276.024.3.061.403.307.46.208.058.417.08.675.104.025.057 0 .322-.061.38-.222 0-.884-.035-1.658-.035-.515 0-1.069.034-1.351.034-.036-.057-.048-.333 0-.38a1.68 1.68 0 0 0 .479-.091c.111-.035.184-.127.196-.356.026-.208.038-1.07.038-1.818 0-.403 0-.747-.024-.92-.014-.148-.087-.298-.639-.483 0-.056.023-.264.061-.298.466-.035 1.449-.242 1.879-.472.037 0 .073.035.086.059-.013.148-.049.7-.049.883 0 .036.049.036.073.024.246-.264.466-.483.724-.678.172-.126.43-.242.675-.242.295 0 .553.116.664.31ZM109.398 79.314c-.049.035-.331.059-.38.024-.098-.484-.222-.782-.503-.943a1.129 1.129 0 0 0-.54-.138c-.382 0-.664.23-.664.552 0 .333.146.529 1.179.977.982.414 1.277.805 1.277 1.415 0 .955-.971 1.53-2.112 1.53a4.929 4.929 0 0 1-1.461-.219c-.062-.253-.172-1.162-.185-1.38.038-.046.321-.126.394-.115.197.61.429.943.773 1.139.197.114.455.16.651.16.429 0 .699-.218.699-.529 0-.345-.221-.54-.846-.827-1.179-.529-1.535-.955-1.535-1.622 0-.794.662-1.472 1.989-1.472.22 0 .613.035.847.069l.564.069c-.085.38-.11.828-.147 1.31ZM112.772 76.98c-.098.07-.663.127-.798.058-.196-.08-.318-.264-.379-.494-.026-.116-.013-.391.072-.494.148-.127.515-.242.81-.242.259 0 .443.08.491.137.088.093.113.3.113.391 0 .23-.124.507-.309.644Zm.995 5.658c-.246 0-.675-.034-1.4-.034-.625 0-1.093.034-1.362.034-.037-.045-.049-.333 0-.38.196-.023.344-.045.479-.091.159-.058.195-.161.208-.437.013-.265.024-1 .024-1.576 0-.403-.011-.85-.011-1.058 0-.092-.026-.206-.099-.276-.098-.103-.221-.16-.516-.264-.036-.058-.012-.288.038-.334.306 0 1.399-.16 1.976-.38 0 .484-.012 1.312-.012 1.979 0 .599 0 1.368.012 1.897 0 .3.074.39.234.449.11.034.232.057.478.092.037.057.013.334-.049.38ZM116.897 78.67c-.025 0-.049.047-.049.07-.013.471-.013 1.346-.013 1.897 0 .437.013.645.062.851.062.265.319.45.662.45.284 0 .467-.035.689-.174.037.047.012.311-.012.392-.332.402-.897.586-1.388.586-.54 0-.982-.184-1.204-.564-.183-.299-.183-.61-.183-1.288 0-.598.012-1.633.012-2.115 0-.035-.025-.092-.075-.105-.171-.01-.428-.022-.613-.046 0-.08.061-.356.11-.447.161-.023.43-.081.517-.116.024 0 .049-.046.061-.092v-.976c.332-.105.994-.437 1.166-.587.049-.011.209-.024.258-.011-.025.23-.049.781-.049 1.552 0 .035.024.08.049.08.368 0 1.117-.034 1.4-.058-.049.185-.11.529-.124.714-.342-.013-.846-.013-1.276-.013ZM118.971 77.993c.172 0 .736.035 1.449.035.663 0 1.067-.035 1.362-.035.05.057.05.299.026.367-.16.035-.321.07-.394.104-.098.046-.109.16-.098.207.197.552.86 2.127.995 2.392h.049c.356-.736.786-1.84.847-2.219.013-.15.013-.3-.221-.368a2.714 2.714 0 0 0-.539-.116c-.015-.103.011-.332.048-.367.233 0 .651.035 1.105.035.417 0 .81-.024 1.166-.035.037.057.049.288.013.367-.196.035-.32.058-.442.115-.221.081-.368.242-.516.633-.773 1.909-1.804 3.887-2.762 5.497-.148.252-.332.551-.418.713l-.136.034c-.171-.011-.65-.184-.772-.345-.012-.046-.012-.184.012-.218.416-.46 1.314-1.472 1.742-2.288a1.967 1.967 0 0 1-.147-.266c-.281-.643-.76-1.76-1.19-2.701-.356-.783-.467-.978-.81-1.082-.124-.034-.271-.057-.431-.092-.011-.092.013-.321.062-.367Z" clip-rule="evenodd"/></g><defs><filter id="a" width="154" height="157" x="0" y="0" color-interpolation-filters="sRGB" filterUnits="userSpaceOnUse"><feFlood flood-opacity="0" result="BackgroundImageFix"/><feColorMatrix in="SourceAlpha" result="hardAlpha" values="0 0 0 0 0 0 0 0 0 0 0 0 0 0 0 0 0 0 127 0"/><feOffset dy="16"/><feGaussianBlur stdDeviation="6.5"/><feColorMatrix values="0 0 0 0 0 0 0 0 0 0 0 0 0 0 0 0 0 0 0.03 0"/><feBlend in2="BackgroundImageFix" result="effect1_dropShadow_185_18"/><feBlend in="SourceGraphic" in2="effect1_dropShadow_185_18" result="shape"/></filter></defs></svg>