<svg xmlns="http://www.w3.org/2000/svg" width="154" height="157" fill="none"><g filter="url(#a)"><path fill="#fff" d="M13 0h128v128H13z"/><path fill="#00532E" fill-rule="evenodd" d="M40.826 50.174C33.203 50.174 27 56.376 27 64c0 7.624 6.203 13.826 13.826 13.826 7.624 0 13.826-6.202 13.826-13.826 0-7.624-6.202-13.826-13.826-13.826Zm0 .776c7.208 0 13.05 5.843 13.05 13.05 0 7.207-5.842 13.05-13.05 13.05-7.207 0-13.05-5.843-13.05-13.05 0-7.207 5.843-13.05 13.05-13.05Z" clip-rule="evenodd"/><path fill="#00532E" fill-rule="evenodd" d="M40.826 54.85a9.15 9.15 0 1 0 0 18.3 9.15 9.15 0 0 0 0-18.3Zm0 .684c4.668 0 8.466 3.798 8.466 8.466 0 4.668-3.798 8.466-8.466 8.466-4.668 0-8.466-3.798-8.466-8.466 0-4.668 3.798-8.465 8.466-8.465Z" clip-rule="evenodd"/><path fill="#00532E" fill-rule="evenodd" d="m38.692 71.072.304-.043-.24.761.21.068c.043-.065.348-1.016.352-1.11-.294-.064-.101-.01-.346.078-.123.045-.28.036-.28.246Zm3.273.044.197-.034c.027-.076.061-.296.212-.157.158.146-.098.252-.098.252l.037.164c.074-.018.156-.063.224-.024.076.043.147.31-.062.336-.11.013-.122-.038-.146-.12l-.207.094c.105.422.844.202.711-.247-.042-.141-.111-.204-.274-.218.036-.082.123-.195.057-.32-.09-.166-.334-.183-.456-.122-.162.081-.231.205-.195.396Zm-.95-.175-.058.594c.045.022.062.03.125.032.145.006.11-.15.288-.075.166.07.116.304.023.398-.154.021-.17-.051-.244-.137l-.211.039c.13.611 1.053.173.71-.339-.094-.139-.217-.191-.441-.14.007-.25-.01-.139.418-.19l-.021-.22-.588.038Zm-.742.615c-.007.097-.035.198-.096.24-.125.086-.157-.021-.198-.097l-.215-.006c.02.388.469.399.642.19.142-.171.19-.676.045-.88-.163-.23-.546-.24-.662.104-.107.318.161.615.484.449Zm-.193-.5c.2-.12.28.295.123.367-.224.103-.264-.283-.123-.368ZM41.704 70.386c.684-.023 1.373-.049 2.06-.033.338.008.677.022 1.012.028.24.004.83.052 1.025.018-.122-.073-.748-.192-.937-.222-.664-.107-1.54-.128-2.207-.03-.194.03-.852.146-.953.24Zm-5.853.017c.283.025.729-.017 1.03-.022.335-.006.674-.02 1.01-.028.348-.008.704 0 1.053.003.333.002.679.032 1.006.028-.098-.085-.748-.204-.93-.233-.675-.103-1.537-.08-2.21.022-.222.034-.816.136-.959.23Zm9.753-.375-.402-1.658a8.75 8.75 0 0 0-4.376.171 8.75 8.75 0 0 0-4.375-.172l-.496 1.684a9.097 9.097 0 0 1 1.16-.242 9.53 9.53 0 0 1 3.711.217 9.53 9.53 0 0 1 3.71-.217c.383.054.74.13 1.068.217Zm.56.383a8.136 8.136 0 0 0-1.437-.384c-1.64-.28-3.031.008-3.9.277-.87-.269-2.261-.556-3.902-.277a8.136 8.136 0 0 0-1.436.384l.737-2.212a7.68 7.68 0 0 1 4.6.218 7.697 7.697 0 0 1 4.6-.218l.737 2.212Zm-4.796-.264.063.429h-1.336l.06-.429h1.213Z" clip-rule="evenodd"/><path fill="#00532E" fill-rule="evenodd" d="M40.826 56.39c-.18 0-.37.085-.562.274l-.22-.224c.232-.225.494-.363.782-.363.288 0 .55.138.781.363l-.218.224c-.193-.189-.382-.274-.563-.274Zm-.757.499c-.234.313-.451.763-.638 1.325l-.297-.098c.193-.58.423-1.065.684-1.414l.251.187Zm2.152 1.325c-.186-.562-.404-1.012-.638-1.325l.25-.188c.262.35.493.835.685 1.415l-.297.098Zm-2.884.302c-.129.44-.238.934-.325 1.471l-.309-.05c.088-.547.201-1.054.334-1.509l.3.088Zm3.303 1.471a12.23 12.23 0 0 0-.325-1.47l.3-.089c.133.455.246.962.334 1.51l-.309.05Zm-3.676.316c-.066.475-.115.98-.144 1.505l-.312-.017a18.05 18.05 0 0 1 .146-1.532l.31.044Zm3.868 1.505a17.765 17.765 0 0 0-.144-1.505l.31-.044c.068.485.118.998.147 1.532l-.313.017Zm.029 1.077c0-.256-.005-.509-.014-.757l.313-.012a20.482 20.482 0 0 1 0 1.539l-.313-.012c.01-.249.014-.502.014-.758Zm-4.055-.757a20.062 20.062 0 0 0 0 1.515l-.313.012a20.476 20.476 0 0 1 0-1.54l.313.013Zm.014 1.834c.029.526.078 1.03.144 1.506l-.31.043a18.053 18.053 0 0 1-.146-1.532l.312-.017Zm3.868 1.506c.067-.476.116-.98.144-1.506l.313.017a18.095 18.095 0 0 1-.147 1.532l-.31-.043Zm-3.676.315c.087.537.197 1.031.325 1.471l-.3.088a12.539 12.539 0 0 1-.334-1.509l.309-.05Zm3.303 1.471c.129-.44.239-.934.325-1.47l.31.05a12.539 12.539 0 0 1-.335 1.508l-.3-.088Zm-2.884.302c.187.563.404 1.012.638 1.326l-.25.187c-.262-.35-.492-.834-.685-1.414l.297-.099Zm2.152 1.326c.234-.314.452-.763.638-1.326l.297.099c-.192.58-.423 1.064-.684 1.414l-.25-.187Zm-1.32.225c.194.188.382.274.563.274.181 0 .37-.086.563-.274l.218.223c-.23.226-.493.364-.78.364-.289 0-.551-.138-.782-.364l.219-.223Z" clip-rule="evenodd"/><path fill="#00532E" fill-rule="evenodd" d="M36.174 61.495c-.58-.12-1.079-.156-1.467-.11l-.037-.311c.434-.052.968-.009 1.567.114l-.063.307Zm-1.759-.054c-.26.072-.428.193-.519.35-.09.156-.11.362-.044.624l-.303.078c-.08-.313-.068-.61.076-.859.144-.25.395-.408.706-.495l.084.302Zm3.504.577a12.23 12.23 0 0 0-1.436-.454l.074-.304c.46.112.955.269 1.473.466l-.11.292Zm1.673.745c-.47-.238-.93-.448-1.376-.628l.117-.29c.454.183.924.397 1.4.639l-.14.279Zm.947.513c-.222-.128-.443-.25-.663-.366l.146-.277a20.316 20.316 0 0 1 1.333.77l-.167.264c-.21-.132-.427-.263-.649-.39Zm-6.589-.58c.154.36.435.772.829 1.215l-.234.208c-.406-.457-.71-.898-.883-1.3l.288-.123Zm8.74 2.022c-.379-.296-.791-.59-1.232-.878l.17-.262c.449.292.868.592 1.254.893l-.193.247Zm-7.697-.574c.317.331.69.673 1.112 1.017l-.198.242c-.43-.35-.813-.701-1.14-1.043l.226-.216Zm9.057 1.79c-.316-.331-.69-.674-1.111-1.017l.198-.243c.43.35.813.702 1.14 1.044l-.227.216Zm-7.696-.574c.379.295.79.59 1.232.878l-.17.262a18.081 18.081 0 0 1-1.255-.894l.193-.246Zm8.74 2.022c-.155-.36-.436-.773-.83-1.216l.234-.208c.407.457.71.899.883 1.3l-.287.124Zm-7.239-.972a20.12 20.12 0 0 0 1.313.758l-.147.276a20.708 20.708 0 0 1-1.332-.77l.166-.264Zm1.596.905c.47.238.931.448 1.376.628l-.117.29a18.098 18.098 0 0 1-1.4-.64l.141-.278Zm5.696.972c.09-.157.111-.363.044-.624l.303-.078c.08.312.068.61-.076.858-.143.25-.395.408-.705.495l-.084-.301c.26-.073.428-.194.518-.35Zm-4.023-.228c.509.193.992.346 1.437.454l-.074.304c-.46-.112-.955-.268-1.474-.465l.111-.293Zm1.745.523c.58.12 1.08.157 1.468.11l.036.312c-.433.051-.968.008-1.567-.115l.063-.306Z" clip-rule="evenodd"/><path fill="#00532E" fill-rule="evenodd" d="M45.415 61.188c.599-.123 1.133-.166 1.567-.114l-.037.31c-.388-.045-.886-.009-1.467.111l-.063-.306Zm1.907-.049c.31.087.561.246.705.495.144.25.156.546.076.859l-.303-.078c.067-.261.047-.468-.044-.624-.09-.157-.259-.277-.519-.35l.085-.302Zm-3.7.587a12.524 12.524 0 0 1 1.474-.465l.074.303c-.446.109-.928.261-1.437.454l-.111-.292Zm-1.703.758c.477-.242.946-.456 1.4-.64l.117.29c-.445.18-.906.39-1.376.629l-.142-.28Zm-.962.521c.225-.13.45-.254.673-.372l.146.277a20.158 20.158 0 0 0-1.312.758l-.167-.265c.214-.135.434-.267.66-.398Zm7.033-.186c-.172.402-.477.843-.883 1.3l-.234-.208c.394-.443.675-.856.83-1.215l.287.123Zm-9.22 1.652c.386-.301.806-.601 1.254-.893l.17.262a17.75 17.75 0 0 0-1.231.878l-.193-.247Zm8.115-.111c-.327.342-.71.693-1.14 1.043l-.197-.242c.421-.344.794-.686 1.111-1.017l.226.216Zm-9.51 1.358c.328-.342.71-.693 1.14-1.044l.198.243c-.421.343-.794.686-1.11 1.017l-.227-.216Zm8.116-.111c-.386.3-.806.6-1.254.893l-.17-.262c.44-.288.853-.582 1.231-.878l.193.247Zm-9.22 1.651c.173-.401.477-.843.883-1.3l.234.208c-.394.443-.675.856-.83 1.216l-.287-.124Zm7.693-.583a20.385 20.385 0 0 1-1.333.77l-.146-.277a20.159 20.159 0 0 0 1.312-.758l.167.265Zm-1.621.919c-.477.242-.947.455-1.4.639l-.118-.29c.445-.18.906-.39 1.376-.628l.142.279Zm-6.109.85c-.144-.25-.156-.547-.076-.859l.303.078c-.067.261-.047.467.044.624.09.156.259.277.519.35l-.085.301c-.31-.087-.561-.245-.705-.495Zm4.405-.092c-.518.197-1.014.353-1.474.465l-.074-.304c.446-.108.929-.26 1.437-.454l.111.293Zm-1.793.537c-.599.124-1.133.166-1.567.115l.037-.311c.388.046.886.01 1.467-.11l.063.306Z" clip-rule="evenodd"/><path fill="#00532E" fill-rule="evenodd" d="M41.64 64.1c-.035.021-.062.013-.092-.02a1.263 1.263 0 0 1-.17-.267 2.291 2.291 0 0 1-.176-.535 1.587 1.587 0 0 1-.04-.367c0-.03 0-.06-.008-.088-.003-.014-.02-.033-.033-.035a.703.703 0 0 0-.123-.01h-.829c-.047 0-.094-.001-.14-.003-.026-.001-.049-.012-.06-.033a.689.689 0 0 1-.086-.21c-.002-.009.008-.026.016-.027a.372.372 0 0 1 .086-.012c.2-.002.4-.001.6-.001.182 0 .364-.002.547.002.097.002.187-.012.263-.077a.118.118 0 0 1 .046-.026c.016-.004.038-.006.05.002.06.039.116.08.172.123.043.032.05.055.024.106-.115.23-.11.465-.035.703.047.147.12.281.203.41l.089.132c.011.018.003.05-.016.063-.005.003-.008.008-.013.01l-.274.16Zm.03.91-.14.002H39.94c-.041 0-.083 0-.124-.002-.031-.001-.058-.015-.072-.043l-.114-.239c-.007-.014.006-.04.02-.041.053-.003.106-.008.158-.009l1.483-.006c.053 0 .106-.001.16-.004a.125.125 0 0 0 .091-.046c.03-.036.059-.074.091-.108a.058.058 0 0 1 .066-.013c.053.024.105.052.158.076.109.049.116.078.056.17a3.67 3.67 0 0 1-.151.218.114.114 0 0 1-.092.045Zm-1.689-1.776c-.004-.029-.005-.058-.007-.087 0-.022.02-.047.04-.051.018-.003.035-.008.053-.008h.14v-.008l.176.012c.019.001.04.031.038.05-.056.378-.225.688-.543.91a.112.112 0 0 1-.032.013c-.005.001-.015.001-.016-.001-.005-.01-.014-.022-.011-.03.007-.029.019-.056.029-.083.028-.077.059-.154.084-.231.053-.158.074-.32.05-.486Zm6.922-1.404h-4.642l-1.435-4.414-1.434 4.414h-4.643l3.756 2.73-1.435 4.415 3.756-2.73 3.756 2.73-1.435-4.416 3.756-2.729ZM37.242 73.63c-.008-.005-.37-.156-.431-.156-.046.191.056.01.033.191l-.393 1c-.18.45-.126.109-.239.308.027.062.018.043.108.075l.132.046.189.067h.024l.022-.006c.099-.153-.064-.003-.027-.182.007-.037.057-.146.078-.2l.153-.382c.057-.14.103-.259.16-.396.023-.06.05-.14.08-.196.075-.142.085-.01.15-.109-.009-.061.005-.029-.04-.06Zm-3.855-2.287c.15-.16.38-.06.196-.224-.13-.115-.195-.222-.296-.254-.047.116.028.103-.06.199-.05.053-.095.097-.147.15-.101.108-.19.198-.292.305-.098.102-.201.192-.3.295-.317.334-.19.038-.342.205.042.084.125.12.188.19.047.051.135.191.198.126.096-.097-.037-.014.02-.138l.273-.285c.065-.068.127-.115.194-.183.066-.067.117-.125.183-.193.067-.07.12-.123.185-.193ZM28.88 65.11c-.024.082.003.394.02.486.034.014.033.035.087 0 .034-.023.007-.016.043-.057.066-.076.4-.07.554-.076.25-.013.575-.055.813-.045.05.056.038.073.134.07.018-.063.001-.309-.01-.394l-.025-.101c-.157.023.005.049-.126.097-.014.005-.164.013-.192.015l-1.15.08c-.083-.065-.012-.086-.148-.075Zm23.672.961c-.032-.018-.46-.157-.528-.123.005.135.062.044.25.229.088.087.147.174.081.326-.124.027-.866-.178-1.039-.221-.09-.023-.169-.037-.257-.062-.215-.063-.005-.188-.16-.147-.033.01-.031-.003-.053.113l-.066.374c.14.01.026-.066.188-.054l.631.147c.135.031.276.066.417.098.453.103.117.15.323.17.047-.056.207-.743.213-.85ZM34.05 71.613c.022-.091-.086-.142-.148-.198-.106-.099-.14-.157-.21-.163-.059.107.025.095-.042.215-.117.212-.742 1.211-.77 1.313l.096.064c.078-.03.297-.192.374-.248l.893-.615c.14-.048.125.046.195-.057a1.028 1.028 0 0 0-.25-.232c-.137.096-.01.025-.026.196-.103.077-.226.157-.334.234-.088.063-.236.184-.343.225l.42-.727c.1.001.074.028.145-.007Zm16.599-1.552c-.047.078.012.093.07.13.184.116.233.358.06.41-.168.05-.537-.186-.653-.254-.153-.09-.449-.281-.533-.399-.132-.183.076-.201.225-.183.158.02.263.113.33-.008-.053-.05-.411-.27-.478-.283-.078.098-.027.046-.049.184-.329.116-.177.501-.011.69.33.376 1.107.755 1.353.279a.379.379 0 0 0-.036-.386c-.047-.066-.071-.076-.133-.125-.028-.022-.044-.04-.068-.053-.02-.01-.017-.01-.038-.011-.04-.004-.017-.002-.04.009Zm.34-6.627c-.002.02 0 .056.001.077.01.195-.026.41.076.393.105-.018-.03-.07.176-.14.44-.148.836-.33 1.284-.254.054.104-.022.112.11.1.043-.067.019-.445 0-.53-.212-.034-.004.068-.164.104-.148.034-.582-.01-.712-.044a189.61 189.61 0 0 0-.423-.114c-.329-.087-.13-.172-.347-.175l.02.361c.193.005-.053-.19.366-.065.103.03.304.075.386.124-.126.048-.504.19-.628.195-.065-.09-.004-.104-.124-.095-.032.049-.011-.008-.02.063Zm-21.715.344c-.044.017-.185.05-.23.056-.198.021-.032-.07-.195-.084-.04.066-.029.44-.008.504.14.01.041-.034.154-.1.06-.036.549-.137.637-.157.258-.057.608-.122.85-.199.05-.185-.015-.162-.316-.233l-1.162-.287c-.137-.07.003-.096-.177-.11 0 .11-.021.286.022.368.176-.044-.052-.179.43-.073l-.005.315Zm.126-.026.003-.254c.135.027.422.076.519.135l-.522.119Zm9.232 10.273c-.112-.026-.33-.095-.406-.085-.017.154.035.05.075.159l.04.729c.014.19-.06.592-.112.644-.075.077-.097-.033-.116.13l.507.122.025-.07c-.043-.073-.108-.018-.075-.194.093-.5.171-.534.425-.97.195-.334.196-.141.257-.284-.046-.055-.3-.112-.363-.118-.005.167.01.05.084.157-.006.087-.258.508-.316.59-.018-.138-.052-.548-.027-.669.107-.053.083.04.127-.08-.035-.055-.051-.044-.125-.061Zm8.51.157c.06-.048.027-.004.06-.074.075-.163.066-.057.251-.145.313-.149.217-.457.047-.672-.251-.316-1.1-.168-1.049-.51.038-.26.37-.042.485.044.093.07.066.058.172.021-.026-.08-.259-.438-.324-.463-.082.072-.044.086-.112.146-.178.05-.23.017-.315.18a.387.387 0 0 0 .013.383c.22.38.727.25 1.033.436.1.06.175.2.067.312-.096.1-.272.03-.37-.03-.22-.135-.164-.162-.299-.109.024.055.267.439.34.48Zm-18.123-9.45c.065-.028.496-.044.584-.05.25-.014.546-.045.791-.04-.062.16-.286.19-.413.22-.155.037-.048.101-.048.101l.016.005c.074.016.463-.025.547-.031.013-.111-.01-.81-.04-.882-.018-.022-.055-.02-.078-.022l-.219.011c-.094.001-.217-.009-.298.024 0 .102-.001.086.102.097.076.008.093.008.17.028.11.03.2.046.238.146-.26.002-.547.029-.808.046-.961.064-.48-.067-.727-.072-.001.096.009.196.014.29.014.239-.016.207.059.244.088-.045.01-.07.11-.114Zm6.349 9.9c.165.084.132-.088.287.088.248.285.587.11.68-.23.07-.26-.04-.443-.11-.656-.088-.265-.195-.527.152-.505.061.092.084.144.078.302-.003.06-.023.141-.024.185 0 .083.001.055.076.097.036-.04.234-.406.232-.478l-.008-.032c-.12-.04-.09.048-.183-.03-.036-.03-.073-.081-.125-.114-.12-.076-.257-.047-.365.022-.529.334.257 1.235-.07 1.438-.128.08-.249-.035-.28-.152-.035-.139-.02-.21-.008-.335l-.001-.097-.1-.025c-.047.087-.232.454-.231.521Zm13.134-3.484c.25.005.331.15.51.217l.05-.058-.433-.417-.646.623c.059.073.343.392.421.422l.047-.03c-.025-.115-.248-.357-.18-.519.11.061.186.19.276.284.049.051.095.08.144.133l.405.427c.289.31-.006.202.172.324.046-.032.076-.083.122-.126l.123-.116c.266-.251.02-.144-.06-.147l-.951-1.017Zm-11.368 3.14c.103.013.086.03.127-.062.058-.13.15-.318.304-.36l-.38 1.377c-.052.013-.165-.016-.118.082.022.047.454.141.509.149.037-.169-.004-.048-.057-.156-.032-.063.11-.504.13-.585l.105-.39.055-.204.043-.14c.028-.055-.002-.008.029-.04.139.387.026.37.069.535l.075.02c.038-.068.14-.497.143-.58l-.865-.227-.169.581Zm6.793-.338c.386-.103.342.19.517.292l.079-.025-.195-.49-.757.22c-.075.027-.053.002-.081.06.044.15.077-.015.138.14l.39 1.236c.005.142-.118.012-.059.156.064.019.136-.018.257-.053.081-.023.194-.034.238-.09l-.011-.068-.125-.023c-.054-.165-.156-.436-.19-.62.279.03.218.27.335.24.023-.035.035.023.012-.093l-.192-.605-.087.03c-.005.16.021.236-.096.318-.044-.075-.186-.539-.173-.625Zm-11.64-4.318c-.136.093.017.09-.103.21-.04.04-.14.104-.195.144-.147.109-.669.518-.795.555-.185.055-.357-.167-.201-.322l.77-.58c.044-.033.153-.128.195-.142.146-.052.35.153.042-.267-.146-.2-.072-.174-.175-.159-.068.106.056.1-.117.217a3.427 3.427 0 0 0-.182.135c-.481.374-1.044.608-.702 1.043.305.387.571.11.841-.09l.377-.279c.289-.213.23-.201.396-.121l.054-.06a1.49 1.49 0 0 0-.206-.284Zm8.495 5.398v-.408c0-.142-.04-.283.133-.244.145.034.159.085.211.208.026.059.037.11.057.163.027.071.03.073.12.06l-.044-.54-.88.02c-.017.169 0 .048.09.152l.01 1.35c-.01.034-.068.022-.083.101-.007.036 0 .023.004.054.09 0 .44.007.517-.034.003-.184-.05-.014-.106-.133l-.02-.635c.262.064.076.334.29.322.018-.114.006-.254 0-.37-.006-.142.019-.354-.05-.365-.104.017-.039-.035-.072.08-.021.073-.032.218-.177.219Zm6.115-.71c-.038-.105-.147-.262-.21-.374-.07-.125-.137-.237-.21-.365l-.21-.365c-.2-.343-.026-.23-.067-.39-.039-.001-.326.127-.318.176.018.122.12-.025.224.136l.357.652c-.273-.179-.626-.486-.87-.64-.073.018-.309.14-.334.202l.016.052.143-.012c.155.229.418.728.587 1.018.184.317-.085.23.065.353.065-.03.101-.056.163-.096.268-.172.053-.116-.041-.166-.07-.037-.513-.888-.537-.947l.853.63c.083.062.187.15.278.205l.11-.069Zm4.093-10.354c-.033.098.009.085.029.153.023.08-.027.097-.045.155-.086.282.348.518.734.56.306.033.844-.006.955-.343.057-.172-.02-.235-.07-.344.05-.067.11-.058.07-.163-.167-.06-.575.02-.684-.032-.1-.047.01-.08-.15-.058l-.017.443c.183.035.035-.021.172-.096.025-.01.575-.052.59.124-.053.219-.59.148-.79.136-.158-.009-.29 0-.445-.03-.245-.044-.27-.059-.268-.192.075-.06.117-.094.216-.133.149-.058.252-.029.247-.118-.024-.06.011-.018-.045-.045l-.499-.017Zm-7.982 10.24c.092-.126.27-.007.317.046.15.165.037.243.224.225l-.103-.47c-.127-.013-.703.127-.868.156.02.153.044.03.116.145.034.055.114.53.132.623.027.14.053.286.08.434.092.492-.08.196-.02.392l.034.009.016.002h.017l.38-.072c.147-.029.29-.058.439-.083 0-.093-.031-.201-.05-.29l-.026-.133c-.024-.122-.027-.096-.046-.117-.087.031-.062.054-.078.164-.025.16-.097.368-.292.35-.06-.098-.126-.518-.143-.67.105.012.147.064.184.133.074.135.006.155.155.126-.004-.113-.05-.269-.075-.385-.07-.328-.027-.314-.148-.312-.034.07.039.257-.144.318a3.433 3.433 0 0 1-.101-.591Zm-8.12-1.3c.05-.034.284-.34.307-.409-.2-.126-.571-.44-.711-.516-.122.102.029.045-.039.202l-.635.854c-.022.029-.112.158-.128.17-.114.085-.069-.046-.187.064l.71.56c.065-.043.132-.14.188-.212.064-.081.175-.181.13-.229-.049-.052-.154.049-.287.112-.104.05-.224.068-.326-.01-.046-.074.117-.247.175-.32.045-.056.164-.225.227-.26.065.233-.054.281-.035.385.102.033.083.001.154-.096l.326-.446-.054-.052c-.124.051-.124.17-.339.113.032-.071.292-.442.397-.488.087.043.17.123.153.265-.027.243-.155.22-.025.313Zm12.408-.724c.172-.309.455.074.589.027.008-.072-.229-.358-.288-.412l-.709.544c.107.122.032.047.132.064.06.01.083.049.118.098l.593.775c.035.048.07.088.105.134.108.141-.107.363.268.07l.5-.383c-.062-.144-.237-.3-.303-.449-.102.037-.092.044-.056.151.058.17.136.47-.12.495-.092-.148-.35-.452-.389-.54.337-.045.18.203.42.108a4.56 4.56 0 0 0-.459-.576l-.056.036c.04.18.115.12.034.351-.056-.036-.357-.414-.38-.493ZM32.94 70.556c.028.128.038.122-.052.21l-.529.445.443-.933c-.058-.1-.12-.145-.192-.23-.029-.034-.058-.102-.112-.05-.058.053 0-.001.017.144-.245.242-.546.47-.731.65-.43.42-.345.094-.487.248.019.061.2.257.254.284l.049-.04c-.001-.1-.092-.104.113-.285l.459-.393c.058-.05.171-.13.224-.177l-.596 1.237a.242.242 0 0 0 .103.101c.089-.049.3-.254.386-.33.123-.108.265-.214.388-.326l.287-.249c.05-.045.048-.06.127-.051.06.006.092.062.131-.008.03-.052-.006-.063-.047-.11-.048-.055-.114-.147-.164-.193l-.071.056Zm18.536-1.837c.423.157.1.153.306.224.04-.042.056-.112.08-.174.01-.028.025-.062.033-.09.029-.1.025-.037 0-.062-.083-.082-.059-.004-.152.039-.018.003-.905-.27-.985-.354l1.124-.085c.158-.01.202.002.236-.063.01-.018.016-.062.02-.083l-1.434-.525c-.005-.023-.007-.064-.012-.086-.015-.072.022-.021-.028-.069-.088.003-.08.063-.113.147-.024.058-.054.12-.071.18.137.112.058-.039.206-.031.073.004.65.194.724.253-.178.037-.949.051-1.028.097-.055.04-.133.31-.14.368.155.071.05-.087.219-.06l1.015.374Zm-2.415 1.856c.033-.097.138-.166.271-.148.204.026.215.143.32.061 0-.071-.005-.045-.069-.094l-.284-.248c-.074.064-.568.622-.584.68.132.127.052-.06.19.046.06.045.115.096.16.138l.655.557c.361.3.044.19.217.332a.821.821 0 0 0 .158-.154l.436-.493c-.042-.09-.338-.373-.405-.39l-.049.047c.035.153.294.38.101.595-.097.008-.121-.04-.176-.081l-.398-.35c.187-.083.25-.012.37.07a.382.382 0 0 0 .055-.072c-.072-.083-.468-.442-.554-.478l-.043.069c.067.11.139.135.106.332-.078-.034-.292-.238-.372-.303-.027-.022-.031-.023-.062-.057-.049-.054-.016-.007-.043-.059Zm-4.244 3.055c.098-.088.234-.074.334.005.15.119.114.212.228.175.025-.07-.125-.374-.183-.452l-.725.301c-.102.049-.054.012-.075.07.073.113.09-.032.161.123l.24.573c.056.133.108.256.167.39.019.042.076.165.082.196.024.125-.092.061-.008.186.028.023.787-.328.823-.356-.019-.083-.066-.178-.102-.265-.1-.24-.05-.23-.166-.203-.058.1.105.544-.226.568a4.373 4.373 0 0 1-.265-.618c.177-.016.243.149.29.22l.088-.035c-.014-.099-.103-.274-.142-.365-.078-.177-.11-.35-.201-.293-.064.087.062.2-.08.356-.051-.045-.103-.206-.135-.282-.04-.092-.095-.193-.105-.294Zm-14.392-7.015c-.062.035-.2.19-.271.247-.065.05-.08.072-.145.132l-.417.377c-.114.1-.2.119-.169.246.023.096.012.053.055.056l1.212-.394c.444-.147.119.078.38.001-.01-.08-.035-.124-.06-.197-.031-.097-.016-.14-.118-.137-.044.053-.007.058-.044.115-.045.069-.667.261-.737.277l.58-.535c.045-.038.147-.136.175-.177l-.133-.372c-.126.034-.05.038-.1.153-.087.057-.575.201-.709.245-.125.04-.235.078-.357.119-.335.112-.2-.033-.36-.02a.958.958 0 0 0 .06.292c.084.23.134-.081.134-.083l1.024-.345Zm20.19.528c.015.143.186.329.283.408.367.296 1.457.353 1.377-.225-.094-.674-1.739-.902-1.66-.183Zm.464-.167c.222.042 1.04.224 1.085.409.066.27-.642.05-.766.022-.241-.055-.536-.15-.684-.298.002-.108.008-.133.116-.15a.732.732 0 0 1 .249.017Zm-20.44-.905c.089-.21-.079-.38-.214-.445-.465-.227-1.271.07-1.399.487-.21.688 1.297.702 1.612-.042Zm-.084-.207c.006.235-.415.311-.631.37-.134.037-.723.225-.794.067-.09-.2.459-.32.615-.364.222-.063.598-.195.81-.073Zm9.804 9.413c.076-.394-.014-.871-.286-1.027-.633-.363-1.01 1.327-.395 1.624.392.19.623-.294.681-.597Zm-.373-.954c.127.184.072.58.053.835-.012.156-.039.753-.26.637-.173-.09-.058-.987-.02-1.213.026-.162.04-.278.227-.26Zm10.989-8.906c.035.148.213.283.34.349.129.067.387.115.546.129.362.032.902-.174.797-.54-.1-.345-.554-.465-.882-.486-.37-.022-.898.13-.801.548Zm.094-.164c.184-.133.558-.061.807-.03.323.04.7.03.68.28-.239.156-.935.039-1.232-.025-.136-.03-.282-.057-.255-.225Zm-22.25-2.148c.14.038 1.051.11 1.315.132.38.033.14.14.321.15.05-.07.063-.264.053-.364-.197-.021-.012.067-.194.087l-.775-.063.997-.327.03-.428c-.116.02-.085.023-.123.112l-1.198-.08c-.233-.02-.205-.095-.212-.106-.037-.064.039-.026-.046-.053-.08.02-.047 0-.066.068-.004.018-.01.085-.012.109-.014.118-.034.139-.001.198.149.018.035.013.11-.067.05-.051.067-.04.146-.036l.97.094-1.301.431-.014.143Zm12.771 11.26c0 .128.076-.035.115.139.011.05.017.16.023.217l.092.856c.049.441-.058.139-.058.377.313-.01.593-.027.766-.21.324-.342.252-1.15-.168-1.4-.127-.075-.22-.092-.391-.072-.178.022-.379.01-.379.093Zm.583 1.447c-.077-.136-.156-1.394-.15-1.407.045-.128.207.01.238.077.092.203.15.775.15.993 0 .2-.042.34-.238.337Zm-6.39-2.31c.077-.09.162-.27.086-.425-.075-.152-.47-.422-.631-.493-.106.128.038.043-.019.194-.013.035-.09.137-.118.18l-.598.893c-.1.093-.089-.04-.173.076.038.051.37.295.442.291.082-.136-.067-.067.017-.22l.355-.538c.188.211-.063.337-.191.68-.056.15.02.297.154.335.14.04.278-.084.3-.181-.149-.075-.04.052-.203.066.027-.173.368-.524.14-.804.16.005.315.09.439-.054Zm-.591-.128c.086-.179.206-.313.314-.48.324.05.047.457-.095.516-.09.037-.146-.011-.219-.036Zm16.154-3.69c-.078.017-.024.03-.086.043-.078.015-.41-.224-.601-.284l.132-.212c.119.032.244.115.358.173.04.02.136.062.169.088.12.097-.021.088.097.16.055-.012.049-.036.08-.1.07-.142.2-.315.12-.353-.095-.045-.009.053-.14.021l-.356-.183c-.167-.084-.32-.16-.488-.246-.141-.07-.32-.124-.353-.205l-.055-.116c-.087.043-.132.184-.177.27a5.447 5.447 0 0 0-.072.144c-.006.031-.019.035.033.055.157.058-.014-.123.232.005l.436.225-.123.22c-.1-.031-.216-.11-.32-.16-.32-.151-.165-.121-.23-.238-.09-.011-.064-.026-.11.071-.06.128-.157.268-.177.364.196.04.09-.058.222-.003l.567.29.383.191c.447.225.07.143.307.258l.206-.436-.054-.042Zm-20.036-1.77c-.117.056.044.075-.127.174l-1.036.637c-.131.043-.144-.09-.142-.11.015-.115 1.107-.884 1.218-1.017l-.053-.142c-.172.01-1.015.204-1.288.263-.254.056-.264-.026-.409-.001.02.096.069.173.112.258.112.22.122-.076.122-.076a.58.58 0 0 1 .293-.089l.134.287c-.485.352-.158.09-.408.14.016.215.588 1.098.645 1.255.082-.021.194-.088.264-.128.198-.113.204-.065.22-.167-.144-.095-.519.166-.604-.15.009-.081.56-.373.65-.427l.5-.294c.132-.04.061.084.165.028.051-.05-.12-.282-.178-.38-.04-.068-.033-.079-.078-.06Zm-.645-.247c-.062.061-.377.32-.434.346l-.112-.234.546-.112ZM48.312 57.757c.115-.042.213-.169.253-.322.067-.258-.212-.72-.338-.841-.06-.057-.249-.241-.343-.235 0 .066.028.062.077.123.048.062.05.071.064.17.035.242.113.718.224.931.017.033.026.045.037.083l.026.091Zm-11.42-4.715c.349-.078.12-.02.409-.119.06.042.115.139.14.239l-.5.269c-.119.051-.142.006-.248.029.075.16.441.548.61.253.05-.087.099-.149.172-.195.021.205-.12.405-.212.492-.055.052-.14.101-.108.224.027.104.082.167.185.176.054-.015.188-.247.283-.306.031.188.114.71.288.737.039-.26-.056-.656-.084-.923-.016-.146.088-.24.147-.347.097-.177.083-.217.085-.438-.05.042-.054.121-.118.246a.57.57 0 0 1-.166.21c-.053-.507.253-.508.01-.62-.174-.08.036-.069-.143-.137-.031-.012-.052-.011-.098-.033.083-.077.28-.087.34-.175.079-.226-.126-.373-.316-.407.032.185.054.151-.063.27-.122.123-.344.378-.491.461-.065.036-.077.029-.122.094Zm1.46-.977c.176.175.126-.07.258.517.036.163.121.506.121.66-.094.077-.52.417-.627.42.014-.126.306-.38.399-.454.075-.06.112-.059.107-.198-.243-.18-.246-.08-.343-.131.054-.155.29-.096.306-.298a.294.294 0 0 0-.24-.16c-.112-.01-.283.003-.361.06l.051.052c.053.034.123.034.223.13-.044.195-.184.208-.134.42l.19.04c.044.222-.528.628-.271.793.189.122.421-.27.754-.4.047.22.275 1.296.444 1.272.12-.294-.155-1.237-.134-1.41.016-.137.24-.224.361-.269.313-.117.02-.314-.163-.224-.09.044-.159.116-.264.148-.14-.32-.022-1.072-.34-1.132a.306.306 0 0 0-.337.164Zm10.566 2.9c.272.05.276.05-.018.287l-.39.304c-.056.046-.122.096-.216.081-.149-.024-.1-.045-.22-.101-.442-.205-.3-.205-.413-.268-.056.103-.082.497.126.635l.072.053c-.184.076-.221.134-.479.157-.23.02-.35.02-.54-.057.02-.095.012-.02.045-.107l-.161.037a.151.151 0 0 0-.015.005l-.014.006-.028.016c.104.231.288.36.522.468.257.118.777-.227 1.093-.34.26-.092.734.261.981.169.021-.009.155-.065.176-.079.006-.324-.31-.37-.409-.573.239-.167.45-.275.39-.513-.02-.08-.106-.262-.17-.289-.057-.022-.119-.004-.176.014-.164.05-.137.05-.156.094Zm.036.83c-.01.006.05.059-.074.008-.025-.01-.02-.015-.044-.04.086-.03.073-.035.118.032Zm2.737 3.11c-.096.006-.248.14-.316.21-.103.105-.134.16-.153.347-.06-.022-.09-.085-.185-.123-.08-.033-.17-.024-.245-.053.03-.11.124-.127.171-.234-.17-.031-.362.15-.564.164-.193.012-.155-.002-.247.125-.046.063-.136.172-.05.258.07.067.226-.032.31-.056.596-.173.565-.144.79.166.056.075.138.144.2.217.23.269.59.438.596.589-.112.022-.196-.03-.286-.065-.169-.064-.108-.058-.209-.15-.215-.192-.266-.198-.44-.43a.181.181 0 0 0-.32.063c-.043.17.205.206.316.372-.1.002-.137-.032-.22-.018-.083.013-.1.058-.147.093-.05-.054-.096-.075-.15-.13-.145-.146-.258-.36-.473-.353-.06.078-.063.13-.115.239-.039.082-.083.145-.096.24-.025.174-.08.519.039.619.135.115.306.154.517.097.356-.096.305-.18.477-.217.072.06.081.094.14.157.063.068.072.126.157.147.104-.076.1-.253.01-.355-.048-.054-.202-.17-.195-.255.107-.056.21.002.312.04.174.064.112.054.276.01l.289.297c.161.104.294.054.356-.106.091-.236-.119-.464-.244-.601a1.043 1.043 0 0 0-.069-.07c-.066-.062-.03-.002-.068-.084.116.028.112.064.213.097.215.07.495.128.565-.136a.414.414 0 0 0-.125-.442c-.15-.125-.22-.093-.424-.092-.002-.132.024-.205-.082-.283-.022.03 0-.014-.022.049l-.04.114c-.063.094-.276.131-.196.428-.151-.006-.285-.045-.364-.174.084-.027.175-.155.227-.209.131-.134.197-.13.22-.2a.432.432 0 0 0-.202-.011l.066-.29Zm.17.919a.277.277 0 0 1 .122-.1c.081-.044.203-.116.332-.093.067.012.383.288-.064.218-.123-.02-.26-.015-.39-.025Zm-1.785.37c.069-.007.268.16.317.205.126.114.244.15.245.304-.166.091-.497.38-.582-.145-.05-.3.007-.321.012-.352.001-.007.005-.008.008-.012ZM33.67 54.432c-.055-.102-.042-.153-.183-.181-.126-.025-.197.008-.296.052-.119.052-.145.039-.21.148-.04.064-.097.162-.097.245.064.007.816-.218.57.188-.126.208-.262.514-.368.624l-.03.032c-.156-.06-.165-.083-.198-.262-.019-.106-.014-.319-.097-.383-.151-.062-.277.026-.33.117-.063.106-.072.268-.095.4-.048.264-.143.31-.002.299.137-.011.248-.117.353-.157.19.264.552.153.602.415-.248.05-.483-.19-.64-.105-.046.148.027.163.111.206l.839.867c.151.152.192.218.468.116.023-.227-.064-.101-.262-.361-.094-.125-.148-.287-.275-.347.016.107.068.166.098.267-.076-.038-.386-.395-.413-.444l.323.032c.07-.21.013-.462-.215-.573l-.098-.054c.222-.014.204-.065.299-.223.068-.113.124-.222.18-.33.158.108.534 1.153.554 1.356.009.097-.035.165.008.228.107-.019.105-.122.115-.317.005-.111-.033-.288-.053-.395-.023-.119-.045-.244-.075-.364s-.094-.21-.126-.329c.039-.083.117-.169.24-.175.097.093.45.758.461.973l-.33.052c.032.089.162.112.25.135.095.025.195.107.285.067.021-.017.043-.22.032-.285-.038-.21-.195-.582-.284-.766-.076-.156-.12-.371-.279-.417-.113-.032-.187-.009-.273.042-.113.067-.092.13-.182.184l-.193-.288c.04-.057.062-.115.106-.164.046-.052.092-.085.136-.142.037-.048.186-.324.167-.38-.024-.07-.114-.058-.196-.05-.212.022-.282.285-.359.4a.333.333 0 0 1-.008.012l-.01.012-.02.023Zm9.599-2.295c-.033.067.015.1.048.161.041.076.041.127.022.21-.045.193-.07.262-.193.303-.139.047-.422.14-.572.162-.1.013-.16-.01-.257.001.016.101.14.354.301.356.1 0 .13-.055.23-.084.103-.03.19-.045.297-.052-.077.325-.077.33-.358.448-.098.041-.179.093-.269.128-.117.047-.228.03-.312.1-.012.21.213.301.312.397.126.123.163.288.257.454.168-.017.22-.095.27-.177.171 0 .36.019.526.004.347-.032.363-.178.422-.009.011.032.01.032.027.072.026.063.033.102.055.163a.393.393 0 0 0 .208.229c.127.058.253.008.366.032.13.027.148.12.308.083-.038-.312-.579-.622-.701-.89.147-.327.367-.442.15-.62-.11-.09-.105-.044-.211-.095.102-.287.646-.197.704-.317.01-.109-.042-.174-.132-.204a.58.58 0 0 0-.287-.036c.031-.146.185-.355.168-.514-.019-.175-.205-.293-.415-.25-.008.13.17.112.078.397a2.154 2.154 0 0 1-.18.354c-.037.05-.308.121-.39.147-.176.053-.218.104-.345.184.08-.252.087-.086.27-.314-.019-.14-.111-.11-.078-.24.023-.087.078-.187.084-.28.013-.19-.246-.345-.403-.303Zm-.197 2.284c.214-.001.611-.127.725-.245.033-.119-.105-.234-.197-.276-.203-.094-.313-.03-.326-.17.075-.032.414.05.516.08-.046-.217.07-.26.109-.46-.197-.02-.218-.166-.37-.038-.115.096-.164.128-.228.29-.063.158-.215.658-.23.819Zm-.465-.277c.042-.1.095-.121.178-.186.08-.063.089-.116.187-.165l-.136.531c-.082-.01-.2-.128-.229-.18Zm1.246-.29c.09-.033.197-.077.305-.073 0 .082-.092.173-.151.203-.075-.026-.097-.066-.154-.13Zm-13.49 6.914c.152.065.301.124.45.186.19.078.236.148.47.072.287-.093.325-.451.453-.817.075-.215.045-.299.198-.437.144-.13.313-.059.464-.168-.045-.212-.233-.33-.419-.412-.511-.226-1.262-.45-1.67-.81-.113-.101-.158-.095-.316-.035-.397.153-.528.12-.61.64-.18 1.131.15.84.28 1.257-.092.033-.138.024-.18.114l.88.41Zm.22-.24.628.266.114-.334c-.058.05-.151.093-.242.025-.085-.06-.062-.14-.078-.26-.078.03-.175.094-.27.1-.077.003-.119 0-.172-.035l-.124-.074c-.106-.07-.103-.31-.153-.444-.025-.065-.034-.052-.107-.084-.063.078-.048.287-.401.279.048-.255.094-.306.02-.579-.028-.1.017-.17.08-.224.094-.08.145-.07.287-.064.055.209.043.381.251.446l.18-.097c.04-.02.01.004.04-.024-.031-.114-.121-.257.114-.34.065-.024.158-.023.204.021.117.112-.062.25-.097.313l.636.179c.036.194-.082.342-.126.714l.057-.118c.066-.204.122-.57.307-.684l.079-.042.013-.01.027-.017c-.419-.177-.798-.358-1.241-.525l-.63-.265c-.379-.121-.25.293-.297.555-.046.25-.31.36-.194.632.102.242.268.337.485.408.24.077.393.2.61.282Zm.154-1.038c.097.169.188.241.314.353.029.025.046.038.068.055.06.05.016.064.056.025.035-.035.025-.142-.002-.183-.023-.035-.313-.239-.436-.25Zm-.159.433c.116-.015.146.019.194.097-.028.075-.043.107-.136.114-.047-.057-.062-.105-.058-.21ZM111.954 62.738a2.022 2.022 0 0 1-.369.021c-.25-.011-.492.043-.734.09-.023.003-.044.016-.065.026a.055.055 0 0 0-.032.057c.004.025.022.04.045.049.016.006.034.01.051.012a.335.335 0 0 0 .07 0 .462.462 0 0 1 .258.044.403.403 0 0 0 .171.035l.071.002c.054.004.104.02.148.052.072.05.147.098.216.152.339.264.69.51 1.026.779.059.047.125.087.188.13.119.037.219.113.331.165.133.062.27.117.386.21.028.022.058.04.087.06.107.074.208.154.335.194.027.008.053.025.078.04l.363.216a.749.749 0 0 0 .126.062c.107.035.213.07.321.097.083.02.154.057.218.111.035.03.07.062.107.092.024.02.079.007.092-.023a.502.502 0 0 0 .034-.1c.069-.315.015-.62-.08-.92-.071-.135-.113-.284-.194-.415a.743.743 0 0 0-.156-.189 4.668 4.668 0 0 1-.343-.304.604.604 0 0 0-.218-.147c-.122-.043-.236-.106-.366-.126a.239.239 0 0 1-.083-.029c-.093-.053-.196-.08-.295-.119a1.118 1.118 0 0 0-.307-.076.826.826 0 0 1-.238-.058.935.935 0 0 0-.152-.046.905.905 0 0 1-.201-.067.602.602 0 0 0-.22-.059l-.361-.03c-.109.004-.21-.002-.308.012Zm-26.797 1.747a.931.931 0 0 0 .065.345.48.48 0 0 1 .028.102c.023.117.074.224.118.333a.167.167 0 0 0 .028.044c.044.052.116.043.146-.016.016-.03.025-.066.034-.1.018-.067.03-.138.052-.204.04-.113.057-.228.067-.346.02-.217.043-.433.069-.65.018-.163.036-.327.047-.492.015-.217.035-.434.058-.65.024-.23.05-.457.056-.687l.009-.106a.327.327 0 0 1 .042-.133c.046-.076.09-.152.147-.22.096-.112.202-.215.31-.315.18-.169.347-.35.496-.55.091-.122.17-.253.247-.386a.39.39 0 0 0 .04-.116c.02-.104.038-.208.056-.312.005-.03.005-.058.005-.088 0-.004-.005-.01-.01-.013-.004-.002-.013-.002-.016 0a.7.7 0 0 0-.149.174c-.114.18-.252.34-.397.495a2.97 2.97 0 0 1-.532.435.216.216 0 0 1-.082.026.08.08 0 0 1-.093-.082l.001-.017c.027-.127.048-.255.084-.38.055-.191.121-.38.182-.571a.381.381 0 0 1 .07-.122c.12-.151.24-.305.359-.458a.356.356 0 0 0 .064-.3.155.155 0 0 0-.078-.113 7.106 7.106 0 0 0-.219-.115.198.198 0 0 1-.108-.131c-.012-.046-.02-.092-.03-.138-.01-.04-.018-.08-.03-.12a.2.2 0 0 0-.098-.12c-.02-.012-.04-.025-.063-.031-.122-.034-.214-.121-.324-.176-.03-.014-.028-.069-.004-.093a.198.198 0 0 1 .092-.05c.08-.022.159-.046.24-.06.209-.033.417-.074.63-.086a1.57 1.57 0 0 0 .244-.034.218.218 0 0 0 .105-.061.365.365 0 0 0 .095-.147c.019-.056.036-.112.053-.168a.68.68 0 0 0 .006-.366 3.34 3.34 0 0 0-.054-.187.369.369 0 0 0-.033-.082 1.386 1.386 0 0 0-.25-.319c-.11-.098-.233-.178-.356-.259-.024-.015-.054-.021-.082-.03-.016-.006-.053.014-.057.032-.007.028-.016.056-.016.085 0 .058.008.117.01.176a.338.338 0 0 1-.09.242c-.064.07-.131.135-.212.187-.123.08-.256.145-.37.238-.165.134-.35.237-.535.341-.144.08-.287.163-.428.248-.15.09-.297.19-.45.278a1.765 1.765 0 0 1-.448.203l-.171.045c-.028.007-.056.016-.084.025-.016.004-.03.028-.023.041.005.01.013.021.023.024a.281.281 0 0 0 .068.012c.16.005.318.01.477.013a1.22 1.22 0 0 0 .35-.045c.056-.015.113-.03.17-.042a.843.843 0 0 1 .14-.017c.073-.002.132.034.15.101.028.104.08.195.136.286a.485.485 0 0 1 .08.248c.002.041.014.082.019.123.004.034.008.07.008.105.001.086-.032.132-.113.157-.084.026-.167.059-.252.079-.173.04-.34.095-.51.14l-.288.081c-.176.05-.351.098-.525.154-.067.022-.136.038-.202.063a.73.73 0 0 1-.223.047l-.142.005a.68.68 0 0 1-.376-.073c-.025-.014-.054-.022-.082-.03-.023-.005-.047-.007-.07-.008-.052-.003-.09.047-.07.094.031.07.06.142.097.209.053.097.098.2.174.285.047.052.08.116.117.176.052.085.1.174.153.258.054.085.12.159.21.21.088.049.175.098.258.153.075.05.16.074.244.098a.615.615 0 0 0 .348-.011.319.319 0 0 0 .16-.106c.033-.041.065-.084.101-.122.162-.173.35-.315.549-.443a.66.66 0 0 1 .195-.078.076.076 0 0 1 .095.077.514.514 0 0 1-.017.104c-.013.05-.034.1-.047.151a1.182 1.182 0 0 1-.193.394 3.34 3.34 0 0 1-.539.581c-.12.105-.247.2-.387.276-.109.06-.21.13-.316.194a.3.3 0 0 0-.1.099c-.017.03-.036.06-.055.09a.336.336 0 0 0-.054.219c.016.146.038.29.094.43a.626.626 0 0 0 .174.24c.109.094.205.098.31.044a.636.636 0 0 0 .077-.045c.057-.04.114-.082.17-.125.196-.15.39-.303.587-.453.07-.054.14-.107.213-.156.046-.03.118.003.125.057.005.04.006.082.005.123l-.015.858c.012.248.025.525.036.801Zm4.641-4.21-.001.052a.333.333 0 0 1-.144.27.79.79 0 0 1-.215.12c-.045.015-.086.039-.13.058-.042.019-.086.037-.129.055l-.113.049c-.049.02-.097.042-.145.063a9.002 9.002 0 0 1-.26.112c-.032.013-.066.024-.097.04-.147.075-.294.147-.445.215-.096.044-.198.077-.291.125-.149.076-.314.1-.468.158a.292.292 0 0 1-.157.01.111.111 0 0 1-.081-.15c.01-.02.02-.043.036-.058.042-.042.085-.083.131-.118.22-.168.438-.34.64-.528.044-.04.092-.074.141-.106a.38.38 0 0 1 .11-.055c.076-.02.136-.07.205-.102.07-.032.142-.054.214-.082.01-.004.02-.011.03-.017.083-.045.164-.092.248-.136.094-.05.189-.095.283-.144a.468.468 0 0 0 .23-.279.178.178 0 0 0 0-.121.588.588 0 0 0-.127-.21 1.312 1.312 0 0 0-.318-.251c-.183-.098-.145-.12-.413-.132a.562.562 0 0 1-.138-.027.124.124 0 0 1-.073-.172.332.332 0 0 1 .173-.168c.138-.056.28-.093.427-.108.118-.012.23-.047.341-.086a.726.726 0 0 0 .239-.148c.05-.044.082-.099.107-.16a.198.198 0 0 0 .005-.138.67.67 0 0 0-.114-.218c-.144-.177-.31-.323-.532-.392a.957.957 0 0 0-.374-.094c-.258-.02-.516-.041-.775-.06a.232.232 0 0 0-.085.015c-.037.012-.057.074-.034.104.022.028.044.057.072.078.08.059.161.118.247.168.067.04.128.084.183.139.082.083.166.166.245.253.048.052.053.116.023.18a.784.784 0 0 1-.17.246c-.13.12-.255.245-.381.369-.05.049-.1.1-.145.154a.285.285 0 0 0-.053.09.647.647 0 0 0-.033.279.205.205 0 0 0 .096.16.531.531 0 0 0 .21.089c.1.016.19.06.274.116.055.038.076.11.056.173a.413.413 0 0 1-.077.138c-.085.106-.17.211-.265.308-.349.36-.71.705-1.095 1.025a.808.808 0 0 0-.242.3c-.014.032-.035.061-.055.09-.056.081-.055.165-.013.251.028.059.057.116.088.173a.442.442 0 0 0 .44.2c.112-.012.223-.03.33-.06.125-.034.245-.084.367-.128.01-.004.02-.011.03-.017.07-.043.14-.087.211-.129.03-.018.061-.037.094-.048.123-.04.235-.11.363-.137.023-.005.043-.018.066-.027l.18-.07.148-.056c.039-.015.076-.035.115-.046.074-.02.146-.047.214-.081a.384.384 0 0 1 .083-.032.781.781 0 0 0 .228-.091l.016-.007c.074-.031.143.01.152.094.004.035.005.07.006.106.006.247.01.494.019.741.014.454.023.907.046 1.36.019.364.029.729.038 1.094l.008.23a.601.601 0 0 0 .052.24c.032.07.053.143.07.218.009.04.02.08.036.118.038.087.067.176.085.269.015.07.043.135.08.196.008.015.02.027.032.04.014.016.049.014.063-.002a.196.196 0 0 0 .048-.092l.082-.344c.016-.063.029-.127.054-.186.044-.105.065-.213.08-.325.014-.11.028-.222.056-.33a1.42 1.42 0 0 0 .046-.402 2.54 2.54 0 0 1 .062-.649c.014-.063.022-.128.026-.192.007-.1.011-.2.012-.3.003-.536.029-1.072.046-1.607.005-.173.037-.338.087-.503A.628.628 0 0 1 91 61.02a.324.324 0 0 1 .149-.092c.149-.036.286-.108.438-.136a.383.383 0 0 0 .115-.043.745.745 0 0 1 .252-.075c.204-.032.407-.067.61-.098a.48.48 0 0 0 .263-.136.3.3 0 0 0 .06-.086.172.172 0 0 0-.002-.17.483.483 0 0 0-.109-.137c-.114-.096-.248-.157-.38-.22a.927.927 0 0 0-.572.02c-.137.055-.276.104-.413.155a.325.325 0 0 1-.051.015c-.099.019-.195.043-.29.08a.294.294 0 0 1-.086.015.124.124 0 0 1-.124-.081.402.402 0 0 1-.021-.085.812.812 0 0 1-.004-.124c.014-.294.014-.589.046-.882a9.33 9.33 0 0 0 .034-.369c.01-.142.028-.28.06-.42a1 1 0 0 0 .02-.139c.02-.258.041-.516.059-.775.01-.152.013-.306.018-.459a.418.418 0 0 0-.04-.206c-.06-.12-.114-.245-.188-.36a1.213 1.213 0 0 0-.156-.19.307.307 0 0 0-.169-.09 6.53 6.53 0 0 0-.245-.038.998.998 0 0 0-.678.133c-.025.015-.054.025-.078.04a1.67 1.67 0 0 0-.13.093.093.093 0 0 0-.002.14c.026.024.055.044.084.065a.67.67 0 0 1 .238.278c.016.037.037.073.058.108a.39.39 0 0 1 .053.185c.003.047.003.094.003.142v1.502l-.025 1.695Zm21.948-1.29h.031a.958.958 0 0 0 .4-.13c.009-.005.016-.016.024-.024.013-.013.017-.05.005-.066-.01-.014-.02-.03-.034-.04a.446.446 0 0 0-.263-.088.168.168 0 0 0-.101.029.385.385 0 0 0-.164.223c-.008.033.014.076.046.084.023.006.046.01.056.012Zm-1.205-1.233c-.011-.172 0-.288.022-.405.044-.231.076-.464.087-.7a2.1 2.1 0 0 0 0-.159c-.004-.118-.126-.215-.216-.226a.396.396 0 0 0-.271.054.988.988 0 0 0-.15.123.218.218 0 0 1-.104.063c-.034.008-.075-.023-.072-.058.002-.023.003-.048.013-.068.051-.093.091-.19.129-.29.014-.038.041-.071.064-.105.056-.083.113-.165.172-.246a.791.791 0 0 1 .309-.228.153.153 0 0 1 .138.001 1 1 0 0 0 .302.095.347.347 0 0 1 .067.021l.357.152c.021.01.043.02.065.026.185.05.32.17.442.309.077.09.137.19.182.3.04.102.054.205.041.312-.008.064-.023.127-.033.191-.02.122-.041.244-.056.367-.011.1-.024.199-.049.296a3.5 3.5 0 0 0-.078.487.275.275 0 0 0 .001.07.12.12 0 0 0 .067.099.38.38 0 0 0 .099.035c.186.035.373.05.561.016.081-.015.163-.028.243-.044.152-.03.305-.034.458-.028.101.004.198.023.295.052.073.022.147.04.22.062.051.015.1.034.15.053.044.017.086.04.131.052.098.028.181.084.267.135.009.006.018.014.027.022a.131.131 0 0 1 .03.16c-.012.02-.027.04-.039.059-.031.05-.058.103-.091.152a.436.436 0 0 0-.074.196.433.433 0 0 1-.176.294 5.653 5.653 0 0 1-.443.32c-.044.03-.087.06-.133.087-.105.064-.209.128-.327.17a1.64 1.64 0 0 0-.315.159c-.129.082-.261.159-.398.227-.032.016-.064.032-.097.041a.836.836 0 0 0-.18.072.473.473 0 0 1-.098.04c-.068.02-.133.046-.197.078a.719.719 0 0 1-.115.044.526.526 0 0 0-.198.112c-.049.042-.095.088-.146.128-.157.125-.256.29-.334.47-.042.097-.082.196-.134.287-.067.119-.106.249-.167.37-.018.036-.029.076-.043.115l-.07.18c-.006.017-.017.032-.021.05-.034.143-.111.272-.157.411-.013.039-.034.075-.051.113l-.053.13-.065.164-.055.13-.061.147a6.148 6.148 0 0 0-.053.13l-.066.163c-.009.022-.023.042-.029.064-.042.145-.128.264-.206.389-.053.084-.113.166-.162.253a1.02 1.02 0 0 1-.243.276c-.032.027-.066.05-.098.076a.287.287 0 0 1-.108.057c-.137.037-.263.105-.403.131-.034.006-.065.027-.098.038a5.38 5.38 0 0 1-.167.058c-.05.017-.102.03-.15.05a.88.88 0 0 1-.24.057 6.913 6.913 0 0 0-.367.047.681.681 0 0 1-.245-.009 29.302 29.302 0 0 0-.677-.126c-.075-.013-.152-.016-.228-.025a.277.277 0 0 1-.117-.037c-.033-.02-.045-.079-.02-.109.011-.014.021-.03.035-.04a.482.482 0 0 0 .209-.315c.004-.022.02-.041.033-.06.006-.008.021-.016.03-.014.016.003.038.01.043.022.018.037.027.078.042.116.027.067.08.1.15.104a.416.416 0 0 0 .172-.032c.225-.08.422-.205.606-.354.34-.276.641-.59.926-.92.165-.193.31-.4.435-.62.066-.117.128-.238.172-.367.041-.123.089-.243.113-.37.012-.064.038-.124.053-.187.01-.045-.036-.093-.084-.092a.362.362 0 0 0-.07.007.412.412 0 0 0-.066.024.866.866 0 0 1-.671.002c-.033-.012-.066-.029-.099-.035a.716.716 0 0 1-.327-.166 7.387 7.387 0 0 1-.704-.643 1.314 1.314 0 0 1-.211-.282l-.022-.048c-.014-.031.011-.079.044-.082.029-.003.059-.008.087-.001.17.037.339.03.508-.002.046-.01.094-.013.141-.02.034-.004.071-.005.104-.015.192-.056.389-.093.575-.166.039-.015.078-.03.117-.04a.746.746 0 0 0 .196-.078.347.347 0 0 1 .169-.044c.071-.002.142-.005.212-.01a.94.94 0 0 0 .139-.025.247.247 0 0 0 .12-.07.598.598 0 0 1 .188-.13.608.608 0 0 0 .171-.123.38.38 0 0 0 .112-.176c.024-.086.055-.169.076-.254.026-.103.036-.209.037-.315.001-.155.023-.305.07-.452.023-.073.035-.149.047-.224.016-.1.034-.197.063-.293.049-.16.075-.322.064-.435Zm12.516-.237c.007.116.024.227.048.336.004.017.014.032.023.047.024.041.091.053.123.02a.56.56 0 0 0 .069-.08l.467-.685c.063-.092.128-.183.207-.263.065-.068.126-.14.188-.21.039-.045.078-.09.113-.136.06-.08.079-.17.062-.267a.217.217 0 0 0-.051-.111c-.099-.11-.217-.16-.364-.112-.011.003-.023.005-.034.01a1.709 1.709 0 0 1-.271.077.405.405 0 0 0-.258.172.754.754 0 0 0-.12.215c-.014.044-.039.085-.056.129-.067.164-.123.33-.115.512a.925.925 0 0 1-.02.246c-.008.034-.008.07-.011.1Zm.601 5.886c-.011-.131-.021-.243-.026-.354a.323.323 0 0 0-.112-.231.245.245 0 0 0-.209-.075c-.081.011-.161.03-.241.048-.075.016-.148.039-.223.053a1.113 1.113 0 0 0-.254.075c-.047.022-.1.033-.151.048-.045.013-.091.023-.136.035l-.272.076a2.1 2.1 0 0 0-.15.053c-.032.013-.062.033-.096.043a.602.602 0 0 0-.212.123.631.631 0 0 1-.262.141c-.074.018-.139.063-.203.105-.043.029-.057.095-.032.143.005.01.01.021.017.03a.883.883 0 0 0 .178.171c.053.037.108.072.159.11.128.097.275.158.418.228.109.026.208.08.311.124.299.125.526.166.826.135.017-.002.035-.004.053-.004a.407.407 0 0 0 .298-.133c.024-.025.049-.05.068-.08a.859.859 0 0 0 .136-.266c.01-.04.028-.077.045-.114a.713.713 0 0 0 .062-.257c.005-.082.006-.164.008-.227Zm-2.273-6.09c.011.195.027.394.084.588.013.045.025.09.032.137.021.129.056.253.101.375.026.072.05.144.097.206.04.056.049.12.04.186-.004.035-.01.07-.013.105-.002.046.04.089.089.093.036.003.071-.001.103-.017.091-.044.185-.075.284-.096.101-.02.181-.084.261-.143.167-.124.299-.282.428-.444l.008-.016c.026-.046.002-.115-.047-.132a.456.456 0 0 0-.086-.022.637.637 0 0 1-.438-.27.96.96 0 0 1-.208-.498c-.002-.03-.009-.059-.01-.088-.005-.15-.061-.287-.114-.424a.318.318 0 0 0-.068-.102c-.046-.045-.099-.083-.149-.124-.023-.019-.047-.036-.069-.055-.025-.023-.02-.075.011-.092.02-.011.043-.025.064-.025a.85.85 0 0 1 .441.102c.077.045.15.094.225.14a.192.192 0 0 0 .117.033c.05-.002.094-.023.117-.068.049-.093.098-.188.14-.284a.983.983 0 0 1 .377-.455c.099-.064.203-.118.305-.178.03-.018.064-.028.097-.039.045-.014.092-.024.136-.04a.857.857 0 0 1 .47-.02c.093.018.183.044.275.067.017.005.034.01.05.017.253.12.48.273.651.5a.52.52 0 0 1 .08.137c.014.038.029.077.046.115a.686.686 0 0 1 .04.33.283.283 0 0 1-.02.085.885.885 0 0 1-.178.301c-.199.2-.392.407-.589.61a1.294 1.294 0 0 1-.408.274 1.56 1.56 0 0 0-.215.121c-.039.025-.07.062-.103.096-.023.024-.028.06-.015.081.017.028.045.04.074.04a.437.437 0 0 0 .122-.015c.147-.045.297-.073.449-.096.063-.01.125-.032.188-.047.074-.017.149-.035.224-.047.128-.02.256-.04.385-.055.099-.013.199-.021.298-.027a.839.839 0 0 1 .28.034c.056.016.114.03.171.041a.807.807 0 0 1 .167.058c.048.023.097.042.147.059.143.049.264.127.349.255.059.089.12.175.179.263a.233.233 0 0 1 .039.151c-.01.137-.037.269-.09.395a.33.33 0 0 1-.135.159c-.1.061-.199.125-.298.188a.436.436 0 0 1-.147.058c-.207.044-.413.097-.625.112-.053.004-.105.017-.157.028-.097.021-.195.044-.292.067a.271.271 0 0 0-.222.243c-.004.029-.005.059-.006.088 0 .07-.029.125-.079.17a2.282 2.282 0 0 1-.094.081c-.207.166-.412.334-.62.496a1.165 1.165 0 0 0-.312.401.18.18 0 0 0 .115.264.412.412 0 0 0 .139.02c.129-.01.26-.018.381-.067.155-.063.318-.084.478-.121a.721.721 0 0 1 .334.006c.022.006.045.013.068.018.195.039.339.157.467.299a.436.436 0 0 1 .093.17.093.093 0 0 1-.016.083.194.194 0 0 1-.096.075.665.665 0 0 1-.119.032c-.063.011-.128.015-.193.025-.116.016-.233.029-.348.052-.133.028-.266.051-.401.065a.949.949 0 0 0-.14.022.153.153 0 0 0-.118.119.751.751 0 0 0-.022.156c-.002.136-.001.27-.001.406l.001.46a.84.84 0 0 1-.063.328.877.877 0 0 0-.048.15c-.02.087-.045.171-.076.254a.59.59 0 0 0-.038.136c-.02.145-.098.263-.169.385a.878.878 0 0 1-.096.127.897.897 0 0 1-.208.189c-.15.093-.301.185-.469.243-.038.014-.075.034-.112.05a.618.618 0 0 1-.26.046.4.4 0 0 1-.17-.04c-.168-.085-.337-.168-.499-.264-.137-.081-.274-.161-.403-.254-.052-.038-.105-.076-.156-.115-.145-.111-.289-.224-.434-.334a.775.775 0 0 1-.18-.192 39.052 39.052 0 0 0-.353-.528c-.077-.111-.147-.228-.25-.32a.303.303 0 0 1-.099-.182 1.594 1.594 0 0 0-.014-.07c-.028-.113.02-.193.11-.256a.112.112 0 0 1 .031-.018c.127-.047.24-.122.357-.191a.364.364 0 0 1 .148-.053c.117-.013.231-.043.345-.073a1.55 1.55 0 0 1 .261-.044c.158-.015.316-.038.469-.082.051-.015.104-.02.155-.035a.694.694 0 0 0 .133-.047.905.905 0 0 1 .232-.081.898.898 0 0 0 .149-.053c.021-.01.039-.026.056-.042.03-.027.037-.081.013-.113-.016-.024-.037-.046-.055-.069a.153.153 0 0 1-.033-.132.74.74 0 0 1 .026-.102c.021-.062.045-.122.065-.184a.337.337 0 0 1 .091-.148l.215-.21a.23.23 0 0 0 .071-.139c.002-.011.002-.023.002-.035.001-.05-.047-.093-.094-.078-.095.029-.191.058-.284.094a1.653 1.653 0 0 1-.202.065c-.057.014-.112.035-.167.055-.044.016-.087.037-.132.05a.808.808 0 0 0-.178.075.564.564 0 0 1-.184.063.36.36 0 0 1-.34-.099l-.025-.025a.502.502 0 0 1-.163-.395c.003-.047.003-.094.008-.141a.155.155 0 0 1 .066-.12.726.726 0 0 0 .194-.203.18.18 0 0 1 .184-.081.66.66 0 0 0 .313-.031.935.935 0 0 1 .191-.032.724.724 0 0 0 .272-.069.438.438 0 0 1 .188-.045.6.6 0 0 0 .255-.064c.091-.044.196-.038.289-.076.088-.035.171-.078.265-.096a.862.862 0 0 0 .169-.05c.082-.034.168-.053.255-.07.109-.02.218-.048.326-.075a.474.474 0 0 0 .174-.085c.178-.135.358-.267.537-.401.09-.067.175-.14.25-.223a.928.928 0 0 0 .106-.14.14.14 0 0 0-.038-.19.3.3 0 0 0-.164-.058 1.15 1.15 0 0 0-.433.07c-.118.051-.239.095-.357.151a1.531 1.531 0 0 1-.398.141c-.017.003-.036.005-.052.012-.135.058-.279.093-.417.142-.088.033-.179.057-.268.088-.173.06-.353.087-.532.122-.208.04-.414.091-.623.121a2.537 2.537 0 0 1-.609.099c-.169.012-.338.041-.508.063-.064.008-.128.022-.192.025a.652.652 0 0 0-.424.195c-.064.06-.118.13-.176.197-.007.009-.015.019-.019.03-.049.12-.115.233-.134.363-.027.194-.103.374-.149.563-.005.023-.016.044-.026.066a.874.874 0 0 0-.071.199.487.487 0 0 1-.032.1.952.952 0 0 0-.088.322.706.706 0 0 1-.025.121 3.34 3.34 0 0 0-.097.43.472.472 0 0 1-.069.18.192.192 0 0 1-.177.096.31.31 0 0 1-.182-.056.905.905 0 0 1-.305-.336c-.014-.026-.03-.053-.037-.08-.038-.15-.112-.285-.18-.421a.197.197 0 0 1-.016-.032.128.128 0 0 1 0-.103c.031-.07.062-.14.098-.207.05-.093.109-.182.156-.277.084-.163.156-.33.156-.519 0-.17.023-.34.058-.508.026-.133.049-.266.073-.4.016-.093.05-.18.089-.267.007-.015.022-.027.034-.04.013-.015.052-.01.062.007.007.01.016.018.02.03.043.146.113.283.133.437.014.1.064.19.109.279.028.057.096.073.151.04a.297.297 0 0 0 .087-.086c.045-.062.088-.126.137-.184.126-.15.265-.284.436-.383.045-.026.094-.047.142-.069.043-.019.088-.033.131-.052a.596.596 0 0 1 .186-.053.281.281 0 0 0 .052-.01c.065-.017.086-.088.038-.139a.906.906 0 0 0-.104-.093c-.061-.047-.124-.09-.186-.136a.692.692 0 0 1-.209-.258c-.058-.173-.148-.333-.198-.51a1.45 1.45 0 0 1-.055-.276c-.005-.076-.013-.153-.017-.229a2.308 2.308 0 0 0-.058-.437.32.32 0 0 1-.01-.087.174.174 0 0 1 .019-.067c.022-.042.089-.055.123-.025.026.024.05.05.074.075.13.145.271.279.414.41a.285.285 0 0 0 .103.067c.053.018.113-.003.137-.05.006-.01.012-.02.016-.03.045-.138.143-.243.226-.356a.063.063 0 0 1 .063-.024c.022.003.045.04.045.07a.822.822 0 0 1 0 .07l-.006.111Zm-49.357 6.99c0 .07-.001.142.013.21.025.121.06.24.092.36a.2.2 0 0 0 .093.124c.097.056.182.13.272.195.076.055.159.101.24.149a.334.334 0 0 0 .082.03.178.178 0 0 0 .152-.023c.035-.023.064-.053.096-.079.095-.079.123-.182.106-.301a.722.722 0 0 0-.06-.221.632.632 0 0 1-.05-.362c.007-.059.013-.117.018-.176.026-.276.074-.548.156-.814.014-.045.025-.09.034-.137.018-.098.038-.196.07-.291a.442.442 0 0 0-.03-.326c-.009-.019-.046-.02-.063-.007a.159.159 0 0 0-.045.074c-.047.134-.092.267-.14.4a.375.375 0 0 1-.12.171c-.032.025-.095.008-.103-.03a.5.5 0 0 1-.012-.105c.002-.183.006-.365.01-.547.002-.06.007-.118.011-.177.026-.382.065-.763.078-1.145a.554.554 0 0 1 .01-.088c.014-.067.086-.092.135-.047a2.335 2.335 0 0 1 .32.398c.08.133.195.236.294.352.037.044.09.056.145.05a.2.2 0 0 0 .068-.019c.12-.063.238-.129.321-.242.025-.033.052-.064.074-.099.118-.189.245-.374.336-.58a.77.77 0 0 0 .062-.201 1.672 1.672 0 0 0-.01-.545.502.502 0 0 0-.04-.135c-.055-.11-.082-.234-.157-.335-.003-.004-.005-.01-.007-.016-.015-.034-.008-.082.016-.097a.08.08 0 0 1 .084-.002c.025.014.05.03.073.05.082.066.165.132.244.202.075.067.161.091.26.088.113-.003.223-.017.331-.048.068-.02.136-.042.205-.054.116-.02.229-.054.342-.086.175-.049.352-.093.528-.141.108-.03.217-.053.324-.087.095-.03.194-.047.292-.066.047-.01.095.028.103.075.004.024.008.047.007.07a.604.604 0 0 1-.052.24c-.062.14-.09.293-.16.43-.01.021-.012.046-.02.068l-.156.45a.926.926 0 0 0-.084.232.496.496 0 0 1-.034.1c-.06.121-.09.256-.163.371-.012.02-.018.044-.028.065l-.17.368-.288.605c-.017.037-.03.077-.049.114-.07.135-.143.27-.216.404-.048.088-.098.175-.147.261-.056.098-.118.191-.167.291a4.505 4.505 0 0 1-.269.457c-.123.189-.273.353-.469.472-.055.033-.106.073-.158.112-.014.01-.025.025-.036.038-.034.041-.013.115.037.133.011.004.022.01.033.011a.36.36 0 0 0 .285-.062l.295-.225c.065-.05.125-.11.194-.154.154-.1.281-.23.4-.37.14-.167.274-.338.4-.517.139-.197.282-.391.42-.589.179-.255.355-.512.531-.77.076-.111.16-.219.193-.355.003-.01.01-.02.014-.032.058-.135.123-.267.172-.406.04-.112.096-.214.142-.322a.214.214 0 0 1 .125-.119.553.553 0 0 1 .136-.032c.083-.009.165-.008.248-.015.183-.014.35.044.509.122.114.055.178.15.168.286a.809.809 0 0 1-.043.224c-.033.089-.051.181-.076.272-.048.176-.1.35-.16.523-.063.177-.104.362-.175.536-.007.016-.007.035-.013.051-.052.169-.113.335-.16.505-.001.006-.004.01-.006.016-.022.067-.046.134-.064.202a.829.829 0 0 1-.077.196c-.047.082-.098.163-.131.25-.038.1-.088.193-.138.286a2.621 2.621 0 0 1-.146.242.607.607 0 0 1-.11.113.1.1 0 0 1-.116.016 1.6 1.6 0 0 1-.197-.117c-.191-.137-.388-.267-.572-.414-.032-.025-.069-.045-.105-.063-.03-.016-.076.02-.072.054l.003.035c.026.171.117.32.169.482.005.016.018.03.028.045.042.064.087.126.126.192.05.086.106.171.14.264.043.116.098.227.14.343.04.109.11.194.196.268.009.008.019.014.029.02.028.02.074.02.1-.001.017-.015.036-.03.052-.048.09-.103.198-.182.313-.256.06-.038.116-.08.17-.127.052-.047.107-.094.145-.152a7.75 7.75 0 0 0 .248-.407c.068-.117.132-.237.197-.355.054-.098.119-.192.158-.295.078-.204.185-.394.264-.597.007-.017.017-.031.025-.047.083-.155.176-.306.215-.481.008-.034.028-.065.041-.098.017-.044.034-.088.046-.133.019-.069.04-.136.07-.2a.74.74 0 0 0 .043-.116c.02-.074.051-.143.081-.214.05-.118.097-.24.146-.36.03-.07.052-.143.084-.212a.71.71 0 0 0 .045-.134c.018-.068.03-.139.047-.207.044-.171-.004-.328-.084-.475a1.386 1.386 0 0 0-.174-.244.713.713 0 0 0-.366-.233 1.425 1.425 0 0 1-.169-.053.92.92 0 0 0-.468-.05c-.065.008-.128.023-.192.032-.064.01-.128.018-.193.024a.275.275 0 0 1-.07-.005c-.058-.008-.108-.066-.106-.123a.363.363 0 0 1 .012-.088c.056-.192.11-.385.172-.575a.669.669 0 0 0 .04-.242.641.641 0 0 1 .007-.14.176.176 0 0 1 .136-.146.577.577 0 0 1 .07-.014c.1-.01.196-.035.29-.072a.722.722 0 0 1 .26-.048l.193-.001.478-.002c.107 0 .21-.018.311-.054.06-.023.124-.038.186-.056.034-.01.07-.015.101-.03.106-.056.222-.081.33-.128a.911.911 0 0 1 .22-.063.91.91 0 0 0 .137-.03.236.236 0 0 0 .15-.253.322.322 0 0 0-.108-.197c-.13-.111-.261-.22-.389-.333a.377.377 0 0 0-.258-.095c-.083 0-.166.002-.248-.002a1.362 1.362 0 0 0-.623.096 4.139 4.139 0 0 0-.457.133c-.094.032-.194.048-.287.086a.278.278 0 0 1-.121.017c-.06-.004-.106-.069-.086-.128a.242.242 0 0 1 .04-.077c.05-.059.091-.124.126-.192.047-.095.054-.192-.003-.287a1.308 1.308 0 0 1-.085-.174.657.657 0 0 0-.148-.239c-.174-.158-.352-.312-.578-.397-.072-.027-.142-.057-.217-.074a.307.307 0 0 1-.1-.034c-.09-.058-.195-.08-.29-.13a.374.374 0 0 0-.257-.034 7.208 7.208 0 0 0-.497.122c-.09.027-.177.065-.268.088-.087.02-.161.07-.237.115-.034.02-.036.081-.006.11a.257.257 0 0 0 .056.041.744.744 0 0 0 .098.04.97.97 0 0 1 .265.14c.086.062.175.119.266.172.093.055.175.12.25.195.063.063.122.128.18.195.034.04.072.077.116.108.048.033.096.068.14.105.048.04.075.093.076.155.002.105.002.212-.002.317a.345.345 0 0 1-.123.247.404.404 0 0 1-.168.093c-.069.018-.137.035-.205.055-.096.03-.193.05-.293.065-.075.012-.15.028-.223.05a1.636 1.636 0 0 1-.293.062.62.62 0 0 0-.203.06c-.053.025-.11.042-.164.062-.04.014-.08.023-.118.04-.097.043-.202.06-.306.084-.103.024-.197.078-.303.093-.082.012-.16.038-.238.066a.76.76 0 0 1-.38.051.204.204 0 0 0-.137.028.165.165 0 0 1-.032.014c-.037.012-.069 0-.097-.024a.32.32 0 0 1-.091-.129 9.48 9.48 0 0 1-.106-.281.318.318 0 0 1-.002-.225c.044-.11.084-.22.149-.32.111-.173.238-.335.358-.503.106-.15.22-.291.344-.425.044-.047.087-.097.122-.15.041-.065.075-.134.108-.203a.148.148 0 0 0 .004-.12.62.62 0 0 0-.157-.253c-.035-.031-.068-.066-.105-.095-.074-.057-.15-.118-.24-.147a1.31 1.31 0 0 0-.327-.069.768.768 0 0 0-.246.02c-.045.012-.091.021-.137.032a.732.732 0 0 0-.164.064 3.076 3.076 0 0 0-.36.224c-.13.091-.256.187-.388.275-.19.128-.385.25-.576.377-.14.093-.29.154-.452.193a.506.506 0 0 0-.082.03c-.037.016-.051.073-.03.107.007.01.011.022.02.029.054.045.104.1.166.13.105.051.202.122.316.155a.353.353 0 0 1 .08.036.747.747 0 0 0 .198.076.693.693 0 0 1 .1.032c.1.04.202.065.309.075a.601.601 0 0 1 .07.01c.111.021.155.066.155.178 0 .12.015.235.038.35l.013.088c.014.1.036.197.073.291.017.044.029.09.043.134.012.034.02.07.037.1.044.076.076.159.115.238.09.185.186.367.28.55a.32.32 0 0 1 .043.134c.005.154-.01.306-.06.452a.262.262 0 0 1-.064.105c-.037.035-.082.05-.13.03a.387.387 0 0 1-.105-.061c-.058-.05-.112-.105-.166-.158a1.022 1.022 0 0 1-.2-.29c-.053-.111-.103-.224-.163-.332-.068-.125-.109-.261-.175-.386-.028-.116-.092-.216-.145-.32a.603.603 0 0 0-.222-.247.175.175 0 0 0-.2.003.527.527 0 0 0-.214.293.296.296 0 0 0 .011.224l.04.08c.052.108.076.22.06.342-.015.11-.02.223-.023.335-.011.311-.018.623-.045.935-.008.088-.015.175-.03.263a1.565 1.565 0 0 0-.018.228l-.016 1.36-.005 1.185Zm-8.537-3.33c-.004-.05-.007-.114-.018-.177a.148.148 0 0 0-.133-.121.256.256 0 0 0-.17.036c-.065.04-.13.08-.191.126a.68.68 0 0 0-.16.162c-.054.077-.05.154.013.226.023.026.05.051.078.07.06.04.123.07.192.087.159.039.202.026.31-.096l.023-.026a.168.168 0 0 0 .042-.096c.006-.058.01-.117.015-.191Zm1.5-.083c-.005-.064-.005-.129-.013-.193a.091.091 0 0 0-.063-.078.106.106 0 0 0-.112.03.46.46 0 0 0-.043.056c-.113.186-.227.37-.337.558a.876.876 0 0 0-.115.294.83.83 0 0 1-.097.282.483.483 0 0 0-.056.166.817.817 0 0 1-.09.285.239.239 0 0 0-.03.118c0 .031.028.072.06.076.03.004.06.01.088.003.097-.02.194-.046.29-.071a.305.305 0 0 0 .148-.092.613.613 0 0 0 .14-.242c.027-.09.056-.18.082-.27.014-.05.025-.102.035-.154.022-.116.04-.233.061-.348.026-.139.043-.279.051-.42Zm1.56-.36a38.287 38.287 0 0 1-.036-2.838c.002-.094-.001-.188 0-.282a1.178 1.178 0 0 0-.088-.448.66.66 0 0 0-.265-.321.297.297 0 0 0-.15-.05.69.69 0 0 0-.311.046 1.816 1.816 0 0 1-.25.085c-.035.008-.066.025-.1.037-.06.023-.121.044-.182.066-.044.016-.09.029-.132.049-.06.028-.12.048-.183.065a.787.787 0 0 0-.133.045.94.94 0 0 1-.237.07 3.51 3.51 0 0 0-.19.038 1.053 1.053 0 0 1-.456.006 2.115 2.115 0 0 0-.244-.04 3.851 3.851 0 0 1-.523-.082c-.213-.05-.41.005-.592.113-.173.103-.319.24-.442.4-.13.17-.233.355-.324.546-.043.09-.088.182-.114.277-.06.21-.1.424-.066.645.013.088.022.176.029.264.039.5.026 1-.045 1.498a3.824 3.824 0 0 0-.038.651c.006.242.018.482.027.724.002.053.004.106.001.159-.012.27-.027.54-.038.811a11.53 11.53 0 0 0-.006.424c0 .139.058.18.185.173l.829-.046a.526.526 0 0 0 .087-.014c.017-.004.032-.014.048-.021.036-.02.042-.08.01-.107a.332.332 0 0 0-.042-.032c-.02-.012-.043-.02-.063-.032a.39.39 0 0 1-.202-.331.579.579 0 0 1 .09-.336.52.52 0 0 1 .229-.213c.096-.044.19-.09.29-.126.077-.027.094-.138.036-.192-.008-.008-.016-.018-.026-.024-.072-.043-.129-.101-.188-.16-.038-.036-.08-.07-.12-.103-.04-.035-.083-.066-.12-.103a.489.489 0 0 1-.075-.098c-.087-.148-.133-.313-.186-.475a.211.211 0 0 1 .004-.14 1.11 1.11 0 0 1 .027-.065.657.657 0 0 0 .054-.275c0-.04.002-.082.004-.123a.255.255 0 0 1 .05-.148c.029-.038.057-.076.089-.11.044-.048.092-.091.137-.138a.985.985 0 0 1 .286-.204c.107-.052.203-.118.291-.197.075-.066.153-.129.241-.177a.428.428 0 0 0 .108-.09.213.213 0 0 0 .051-.09.946.946 0 0 0 .024-.28.106.106 0 0 0-.09-.095.759.759 0 0 0-.106-.002c-.088.002-.176.008-.265.008-.058 0-.117-.007-.175-.014a.351.351 0 0 1-.192-.083 6.547 6.547 0 0 0-.219-.179.924.924 0 0 1-.227-.29.335.335 0 0 1-.029-.1.084.084 0 0 1 .065-.092c.023-.004.046-.009.07-.008a.828.828 0 0 0 .393-.085.756.756 0 0 1 .237-.064.95.95 0 0 0 .29-.072.386.386 0 0 1 .084-.027.685.685 0 0 0 .322-.175c.044-.038.09-.075.138-.11.057-.042.116-.08.162-.135a.185.185 0 0 1 .105-.062c.14-.03.28-.037.42-.007.046.01.092.025.134.046.078.04.154.085.229.133a.329.329 0 0 1 .144.172c.015.044.04.085.06.127.032.064.062.127.092.192a.124.124 0 0 1-.013.133.466.466 0 0 1-.07.079 2.36 2.36 0 0 1-.166.13c-.12.086-.244.165-.363.252-.066.048-.13.102-.188.16a.59.59 0 0 0-.156.253 1.006 1.006 0 0 0-.034.367.191.191 0 0 0 .083.15c.049.033.097.068.15.091a.59.59 0 0 1 .296.265c.055.102.15.114.237.043.023-.018.044-.038.066-.058.049-.043.098-.084.146-.129.105-.098.238-.122.372-.147a.151.151 0 0 1 .07.006c.044.014.092.026.13.05.137.082.266.174.366.302.109.14.133.297.116.467a.29.29 0 0 1-.019.067.24.24 0 0 1-.124.143 2.059 2.059 0 0 1-.148.06.234.234 0 0 1-.172.002c-.132-.053-.275-.07-.4-.137a.21.21 0 0 0-.121-.02c-.04.004-.081.039-.086.078a.314.314 0 0 0-.003.07c.011.106.021.21.038.316.025.163.054.325.063.49.015.247.055.491.098.735.014.08.025.163.034.245.005.04.004.082.002.123a.2.2 0 0 1-.058.126.304.304 0 0 1-.152.083c-.229.06-.46.1-.697.11a6.764 6.764 0 0 0-.86.098c-.057.01-.116.02-.168.048a.57.57 0 0 1-.235.07.51.51 0 0 0-.218.063c-.009.005-.017.018-.017.028 0 .01.008.025.017.028.1.04.205.049.312.042.258-.014.518-.023.773-.072a3.43 3.43 0 0 1 .72-.056c.06.002.12.005.177-.005a.893.893 0 0 1 .35-.011c.033.007.07 0 .105-.003.035-.002.07-.007.106-.01a.392.392 0 0 1 .221.05c.142.082.288.16.408.277.037.037.08.07.12.104.013.01.03.02.045.028.027.015.077-.007.088-.037.018-.045.013-.093.013-.14-.001-.641-.007-1.283.013-1.925.01-.312.022-.624.031-.936.003-.1 0-.2 0-.305ZM60.56 62.07v-1.06c0-.176.009-.353.038-.528.006-.04.01-.081.012-.123a136.396 136.396 0 0 0 .05-1.394c.002-.065.001-.13-.005-.194a1.26 1.26 0 0 1 .004-.282c.017-.129.028-.258.003-.388-.002-.01 0-.023 0-.034.001-.04.043-.078.085-.072a.148.148 0 0 1 .066.02c.066.05.13.1.185.163.042.05.088.096.137.138.06.051.155.042.209-.015l.034-.04c.085-.107.155-.223.22-.342.11-.2.226-.4.348-.594.123-.196.273-.368.441-.526a.716.716 0 0 1 .346-.203.35.35 0 0 0 .082-.03.871.871 0 0 1 .236-.074c.173-.055.346-.114.521-.165.191-.056.378-.128.574-.173.028-.007.058-.01.085-.022.132-.054.273-.073.407-.113.182-.055.367-.087.554-.111.07-.01.139-.026.208-.041.121-.026.244-.039.368-.038.09 0 .173.02.257.052.266.104.499.264.724.434.114.085.211.19.298.3.134.173.28.335.435.487.026.025.047.053.073.077.08.075.125.17.163.27a.408.408 0 0 1 .011.277c-.049.15-.07.31-.141.454a.13.13 0 0 0-.012.034c-.04.225-.134.44-.153.67-.007.082-.027.163-.046.243a1.755 1.755 0 0 0-.047.403c-.004.718-.01 1.436-.013 2.155-.002.347 0 .695 0 1.042 0 .13.004.259.023.388.01.07.011.14.01.212 0 .094-.007.188-.01.282-.005.17-.01.341-.013.512v.212a.91.91 0 0 1-.073.361c-.012.027-.025.054-.03.083a.897.897 0 0 1-.138.303c-.09.145-.192.282-.297.417-.018.023-.04.043-.062.063a.11.11 0 0 1-.145 0c-.014-.011-.028-.023-.04-.036-.09-.101-.18-.202-.267-.305a.766.766 0 0 1-.114-.178.97.97 0 0 0-.236-.327c-.04-.035-.075-.075-.115-.11-.088-.078-.178-.154-.299-.18a.115.115 0 0 1-.033-.011c-.136-.08-.291-.091-.441-.118a.593.593 0 0 0-.194.007c-.21.03-.419.06-.629.088-.287.037-.576.041-.864.056a2.693 2.693 0 0 1-.123.004 4.148 4.148 0 0 0-.738.07 1.802 1.802 0 0 1-.598.024c-.057-.008-.117-.006-.176-.006a.423.423 0 0 1-.171-.038c-.106-.05-.214-.095-.316-.157a1.177 1.177 0 0 1-.306-.263 4.47 4.47 0 0 1-.306-.432.39.39 0 0 1-.063-.2 5.678 5.678 0 0 1-.002-.247l.016-1.13h-.007Zm40.229-.125a.161.161 0 0 0 .127-.044c.111-.11.188-.24.24-.385.03-.082.051-.167.091-.246a.288.288 0 0 0 .023-.102c.004-.067-.052-.123-.12-.125a.162.162 0 0 0-.1.027c-.058.042-.124.064-.19.09a1.752 1.752 0 0 0-.27.125c-.126.074-.239.169-.369.237-.034.017-.042.079-.014.109.024.025.048.054.079.067.091.04.176.091.262.142.055.032.114.06.173.086.026.012.055.016.068.02Zm-3.57.327c-.002-.024-.004-.054-.01-.082-.005-.034-.05-.055-.083-.045a.138.138 0 0 0-.07.05 3.664 3.664 0 0 0-.127.191c-.074.12-.147.24-.216.363a.618.618 0 0 1-.122.15c-.03.027-.063.053-.092.082a.692.692 0 0 0-.154.213c-.02.048-.047.094-.07.142-.017.037-.036.074-.048.114-.044.14-.043.193.109.294.015.01.03.02.046.025.124.043.23.119.339.187.101.064.212.1.326.13.077.02.156-.04.167-.119a.35.35 0 0 0 0-.105c-.018-.105-.017-.21-.017-.316v-.688c.002-.194-.01-.388.023-.586Zm2.762-2.14c0-.041.002-.089-.001-.135a.12.12 0 0 0-.102-.108.658.658 0 0 0-.105-.007c-.059 0-.118.005-.177.003a.577.577 0 0 1-.257-.056.616.616 0 0 0-.36-.054.37.37 0 0 0-.259.133 1.368 1.368 0 0 0-.054.07l-.255.337a1.268 1.268 0 0 0-.198.353.736.736 0 0 1-.05.112.579.579 0 0 0-.061.22c-.011.105-.026.21-.042.315a5.557 5.557 0 0 0-.06.596c-.007.206-.01.413-.027.618-.025.313-.014.624.026.934.017.13.023.257-.002.386a.893.893 0 0 0-.009.194c.002.063.058.106.122.1a.79.79 0 0 0 .321-.087c.196-.109.392-.215.588-.322.063-.034.128-.06.19-.094.238-.13.461-.282.66-.468.112-.105.226-.208.348-.3a.639.639 0 0 0 .077-.072.217.217 0 0 0 .056-.128.297.297 0 0 0-.051-.218.824.824 0 0 0-.169-.18 2.327 2.327 0 0 0-.426-.246 1.377 1.377 0 0 0-.513-.113l-.106-.004-.635-.03a.3.3 0 0 1-.198-.061c-.062-.046-.05-.14.022-.173a.183.183 0 0 1 .067-.02c.058-.002.117-.002.176.002.112.007.224.005.335-.01.129-.016.257-.032.383-.06.193-.044.385-.05.58-.02a.772.772 0 0 0 .07.008c.064.004.107-.062.08-.122-.008-.017-.014-.033-.026-.047a.411.411 0 0 1-.078-.283c.003-.13.007-.26.013-.388a.677.677 0 0 1 .048-.242.781.781 0 0 0 .059-.333Zm-1.66-2.638-.043.529c-.003.034-.003.07-.008.105a.291.291 0 0 0 .106.268c.056.051.117.098.175.148.04.035.08.07.114.11a.19.19 0 0 1 .038.182l-.004.017c-.053.13-.127.251-.194.375-.019.034-.056.06-.088.086-.036.03-.073.059-.11.087a.445.445 0 0 0-.165.265c-.027.108-.04.22-.04.332 0 .017.003.035.006.052a.07.07 0 0 0 .043.053c.023.009.048.006.066-.01a.697.697 0 0 0 .06-.065c.108-.132.218-.263.323-.397a1.2 1.2 0 0 1 .35-.292c.178-.103.358-.203.524-.326a.935.935 0 0 1 .198-.116c.037-.015.071-.04.105-.063.101-.071.198-.148.317-.188.265-.151.23-.098.328-.381a.808.808 0 0 0 .029-.12.929.929 0 0 1 .088-.286.476.476 0 0 0 .045-.17 2.77 2.77 0 0 1 .077-.434c.08-.309.036-.608-.07-.902a.31.31 0 0 0-.087-.131c-.08-.07-.162-.136-.243-.204-.041-.033-.085-.063-.125-.097a.08.08 0 0 1 .004-.124.442.442 0 0 1 .191-.086c.023-.005.047-.007.071-.01l.228-.025a.794.794 0 0 1 .492.099c.155.088.295.192.41.33a.56.56 0 0 1 .088.152.928.928 0 0 1 .046.588c-.022.085-.031.174-.044.261-.031.221-.06.443-.092.665-.008.058-.023.115-.032.174a.426.426 0 0 0-.002.087c.004.047.055.089.101.078.09-.023.187-.029.27-.077a.33.33 0 0 1 .321-.008c.016.007.033.015.05.017a.347.347 0 0 0 .087 0c.023-.003.045-.014.067-.023a.282.282 0 0 1 .206-.008c.073.024.147.046.22.069.04.012.075.032.106.06.071.064.13.137.182.215.06.09.041.2-.044.269a1.04 1.04 0 0 1-.208.133 4.059 4.059 0 0 0-.314.16c-.13.072-.266.124-.41.16a.752.752 0 0 0-.194.081 8.05 8.05 0 0 0-.288.17.619.619 0 0 0-.086.062c-.074.067-.149.134-.22.204a.62.62 0 0 0-.076.096c-.062.093-.12.189-.182.282a.425.425 0 0 0-.059.127c-.02.082.023.146.103.149.047.002.095-.002.142-.006.111-.01.223-.007.334.014a.481.481 0 0 1 .134.04c.12.062.247.111.361.185.052.032.094.07.118.126.017.037.036.074.051.112.031.08.037.162.009.243a2.601 2.601 0 0 0-.098.357.128.128 0 0 1-.01.034c-.09.213-.126.44-.18.663-.025.104-.049.207-.099.301-.012.021-.019.044-.026.066a.163.163 0 0 0 .036.165c.04.043.084.082.127.122.056.052.113.103.172.152a.316.316 0 0 0 .088.058.77.77 0 0 1 .206.134c.065.052.134.097.204.139.04.024.084.041.127.06.049.021.097.042.146.061.121.047.233.11.341.183.068.046.142.082.219.114.087.036.17.08.253.124.031.017.058.041.084.064.152.13.32.24.481.358.062.046.123.093.178.145.134.124.265.25.397.378.021.02.039.043.056.067.019.023.015.076-.008.098a.288.288 0 0 1-.07.053.31.31 0 0 1-.137.029.875.875 0 0 1-.296-.041 1.87 1.87 0 0 0-.434-.076.902.902 0 0 0-.465.078.718.718 0 0 1-.149.053c-.195.045-.394.07-.594.084a.485.485 0 0 1-.255-.05 2.805 2.805 0 0 0-.363-.137.334.334 0 0 1-.186-.126 1.58 1.58 0 0 0-.174-.2.52.52 0 0 1-.099-.144 1.583 1.583 0 0 0-.296-.436c-.024-.025-.046-.054-.071-.079a.362.362 0 0 1-.103-.2.22.22 0 0 0-.082-.132c-.05-.043-.106-.056-.164-.026-.135.072-.271.142-.393.235a2.21 2.21 0 0 1-.348.208c-.126.063-.259.112-.388.166-.141.058-.29.102-.438.136-.137.031-.275.066-.412.096-.201.043-.403.083-.602.135-.057.016-.117.02-.175.03a.361.361 0 0 0-.285.235c-.011.028-.018.056-.03.083-.051.107-.107.208-.216.272-.065.038-.119.096-.18.143a1.563 1.563 0 0 1-.142.102.112.112 0 0 1-.133-.01.437.437 0 0 1-.087-.088c-.207-.302-.472-.555-.72-.822a.983.983 0 0 0-.19-.157c-.094-.061-.185-.126-.277-.19a.623.623 0 0 0-.24-.108 1.056 1.056 0 0 1-.36-.136 1.72 1.72 0 0 0-.22-.112.779.779 0 0 1-.23-.161c-.064-.061-.124-.125-.185-.19a.349.349 0 0 1-.082-.154.177.177 0 0 1 .017-.136.36.36 0 0 1 .15-.145 4.57 4.57 0 0 1 .51-.242.561.561 0 0 0 .108-.059c.158-.103.308-.217.445-.348.11-.106.229-.202.353-.292.2-.145.397-.294.593-.444.089-.068.17-.145.24-.233a.412.412 0 0 0 .09-.189c.008-.04.015-.081.019-.122l.06-.775a.56.56 0 0 0-.003-.088.106.106 0 0 0-.095-.09.311.311 0 0 0-.155.024c-.119.053-.237.105-.353.162-.09.044-.174.1-.265.14-.075.034-.146.076-.22.113a.698.698 0 0 0-.157.112c-.06.057-.12.113-.184.166a.762.762 0 0 1-.484.187.423.423 0 0 1-.235-.06c-.106-.065-.202-.143-.304-.213a1.65 1.65 0 0 1-.288-.26l-.192-.207a.596.596 0 0 1-.042-.056c-.018-.026-.004-.077.025-.093.02-.01.041-.023.064-.029.074-.018.149-.035.224-.048.058-.01.117-.016.175-.022a.834.834 0 0 0 .236-.069c.124-.054.246-.112.368-.17a6.46 6.46 0 0 0 .253-.126c.29-.155.578-.313.85-.502.149-.104.307-.196.462-.292.02-.013.04-.024.06-.038.14-.11.138-.087.21-.272a.924.924 0 0 0 .067-.38c-.004-.083.006-.165.01-.247a6.057 6.057 0 0 0-.002-.459c-.002-.045-.023-.09-.036-.134l-.008-.016c-.106-.218-.106-.218-.287-.395a24.062 24.062 0 0 1-.176-.175.57.57 0 0 1-.047-.052.114.114 0 0 1 .047-.177.301.301 0 0 1 .067-.02c.04-.006.082-.013.123-.012.141.003.283.007.424.015.052.003.103.02.154.033.063.018.124.04.186.058.139.04.256.116.366.207a.33.33 0 0 1 .108.157c.086.268.113.2.09.64ZM66.401 69.683a.233.233 0 0 0 .214-.253.208.208 0 0 0-.13-.19.297.297 0 0 0-.255-.004c-.08.036-.132.095-.14.185a.221.221 0 0 0 .095.213.257.257 0 0 0 .164.051c.017 0 .035 0 .052-.002Zm13.062.001c.124-.008.261-.098.23-.286a.197.197 0 0 0-.095-.14.296.296 0 0 0-.33.003.218.218 0 0 0-.08.277c.049.1.133.142.211.146h.064Zm7.23-.006a.242.242 0 0 0 .194-.22c.007-.105-.065-.197-.175-.233a.305.305 0 0 0-.222.014.227.227 0 0 0-.072.366c.056.057.126.082.221.08.008-.001.032-.002.054-.007Zm-7.034 1.033v-.564a3.71 3.71 0 0 0-.003-.141c-.002-.031-.026-.058-.054-.058h-.352c-.006 0-.013.002-.017.005-.009.007-.022.016-.023.025a.942.942 0 0 0-.01.123v1.198c0 .029 0 .058.002.088.002.052.024.079.073.08h.316a.075.075 0 0 0 .034-.01c.01-.006.021-.016.023-.025a.656.656 0 0 0 .01-.105c.002-.205.001-.41.001-.616Zm-13.08-.45c0-.083 0-.165-.002-.248-.001-.042-.025-.067-.064-.067h-.317c-.012 0-.025 0-.034.005-.013.01-.03.023-.033.036a.551.551 0 0 0-.007.106v1.215l.001.088c.002.041.026.07.064.07.106.002.211.001.317.001a.06.06 0 0 0 .033-.008c.014-.01.032-.022.034-.036a.752.752 0 0 0 .007-.123v-1.04Zm20.27-.148c0-.04-.003-.082-.007-.123-.001-.02-.027-.042-.048-.043l-.336-.002-.017.002c-.028.002-.052.028-.054.06-.002.017-.004.035-.004.052v1.29c0 .023.004.047.007.07.002.015.033.045.05.045h.352a.025.025 0 0 0 .016-.007c.012-.011.03-.022.034-.037a.555.555 0 0 0 .008-.105v-1.202Zm-2.822-.168a8.042 8.042 0 0 0-.265-.001c-.1.001-.11.012-.112.11v1.234l.001.106c.002.041.026.071.062.072h.335c.03-.001.055-.028.055-.058.003-.094.004-.188.005-.282 0-.135-.001-.27.001-.405a.494.494 0 0 1 .076-.268.272.272 0 0 1 .234-.135c.064 0 .129.006.196.009.007-.014.02-.03.02-.045.002-.093.002-.188.001-.282 0-.054-.033-.083-.09-.084a.392.392 0 0 0-.327.143c-.022.028-.04.057-.063.084-.006.006-.02.005-.032.005-.003 0-.009-.007-.009-.012l-.017-.177c-.026-.005-.049-.014-.071-.014Zm37.108-.533c0-.052-.002-.105-.004-.158-.001-.022-.024-.046-.045-.046a37.694 37.694 0 0 0-.352-.001c-.022 0-.047.023-.049.042-.004.041-.009.082-.009.123v1.92c0 .041.004.082.007.123.002.02.025.044.045.047.117.015.234.012.352.002.005 0 .012-.003.015-.007.012-.011.031-.023.034-.037.005-.04.006-.082.006-.122l.001-.952-.001-.934Zm-47.958 0c0-.053-.003-.106-.005-.159-.001-.021-.024-.044-.046-.045-.07-.002-.14-.005-.211-.005-.2 0-.202-.013-.202.204v1.851c0 .053.006.106.01.158.002.02.026.044.046.046.117.015.235.012.352.002a.028.028 0 0 0 .016-.007c.012-.011.031-.023.033-.037a.852.852 0 0 0 .007-.122V69.41Zm41.251.86c.001-.082 0-.164-.001-.247-.001-.037-.025-.065-.061-.077a1.132 1.132 0 0 0-.71.03.725.725 0 0 0-.428.466 1.091 1.091 0 0 0-.035.401c.015.253.19.55.549.638.181.044.363.032.543-.007.034-.008.067-.023.099-.037.022-.01.04-.03.041-.054.005-.099.014-.199-.007-.297-.042-.008-.073.012-.104.026a.597.597 0 0 1-.33.032.361.361 0 0 1-.291-.23.525.525 0 0 1 .002-.412.371.371 0 0 1 .207-.208.508.508 0 0 1 .189-.04.579.579 0 0 1 .24.05c.026.01.053.025.086.016.003-.015.011-.032.011-.05ZM87.2 70.105v.106c.002.042.027.068.064.07.03.002.059.003.089.003.08.001.092.024.095.094.002.047.002.094.002.141 0 .141-.002.282 0 .423.003.076.007.153.02.229.031.176.15.288.328.325a.926.926 0 0 0 .368-.009c.062-.012.086-.042.089-.11.002-.036.002-.071.001-.107-.002-.1-.005-.133-.116-.117a.246.246 0 0 1-.053 0c-.075-.005-.136-.039-.162-.137a.432.432 0 0 1-.01-.105c-.002-.176 0-.353 0-.53 0-.016 0-.036.007-.051.006-.015.02-.033.033-.036.028-.008.058-.008.087-.01l.158-.005c.02-.001.045-.026.048-.046.003-.023.008-.046.008-.07 0-.228.014-.22-.203-.219L88 69.942c-.012 0-.023-.003-.035-.004-.02-.002-.044-.025-.045-.047-.003-.047-.003-.093-.007-.14-.006-.082.015-.164-.016-.244-.092-.026-.168.034-.252.048-.035.005-.068.021-.102.03-.074.016-.088.045-.091.108-.002.035-.001.07-.002.106-.003.136-.005.146-.153.145l-.034.002c-.035.003-.057.022-.06.053l-.006.105h.003ZM65.343 69.5c-.102.028-.204.058-.305.087a.228.228 0 0 0-.034.01c-.03.013-.045.036-.046.068-.002.04-.002.082-.003.123 0 .03 0 .059-.002.089-.002.038-.027.061-.069.064l-.035.002c-.148 0-.142.012-.143.15 0 .041 0 .082.002.124 0 .011.003.024.009.034.005.01.014.02.024.024a.184.184 0 0 0 .052.007c.166.001.162.007.162.17V71.016c.001.071.01.14.032.208.05.147.15.233.3.267a.912.912 0 0 0 .368-.001c.104-.02.103-.05.105-.132l-.003-.158c0-.034-.023-.054-.055-.053-.035.001-.07.006-.106.006a.161.161 0 0 1-.16-.116c-.008-.022-.018-.044-.018-.068v-.633c0-.022.024-.044.046-.046a1.8 1.8 0 0 1 .088-.007l.158-.005c.022-.001.044-.024.045-.046.002-.064.005-.129.004-.193 0-.078-.016-.093-.092-.095-.053-.001-.106 0-.159-.002a.132.132 0 0 1-.051-.008c-.014-.007-.03-.02-.035-.034a.214.214 0 0 1-.01-.07l-.001-.246c0-.029-.007-.057-.01-.085-.024 0-.042-.003-.058 0Zm40.426.41c-.041 0-.083-.003-.123 0a.83.83 0 0 0-.337.099.418.418 0 0 0-.223.375c-.001.035.005.07.01.105a.336.336 0 0 0 .143.235.775.775 0 0 0 .137.079c.064.029.132.05.198.076.044.016.089.03.132.05a.308.308 0 0 1 .071.052c.039.035.04.105.003.143a.175.175 0 0 1-.09.054.614.614 0 0 1-.227.016.864.864 0 0 1-.255-.067c-.115-.054-.126-.036-.126.087 0 .053 0 .106.003.16.001.039.022.065.06.077.231.07.463.077.698.023a.64.64 0 0 0 .21-.09.43.43 0 0 0 .198-.319.39.39 0 0 0-.176-.397.714.714 0 0 0-.109-.059c-.053-.023-.109-.043-.164-.064-.044-.017-.09-.03-.132-.049a.394.394 0 0 1-.089-.056c-.058-.047-.048-.145.016-.181a.292.292 0 0 1 .134-.04.663.663 0 0 1 .228.022l.152.044c.015.004.038-.01.04-.025.002-.023.006-.046.006-.07-.001-.265.029-.221-.229-.273-.052-.01-.106-.008-.158-.011l-.001.004Zm-20.913 1.343v.14a.056.056 0 0 0 .042.052 1.3 1.3 0 0 0 .73.023c.05-.012.1-.032.146-.058a.425.425 0 0 0 .243-.415c0-.018-.002-.036-.003-.053a.337.337 0 0 0-.091-.205.438.438 0 0 0-.141-.105 3.595 3.595 0 0 0-.195-.082c-.044-.017-.09-.027-.133-.046a.503.503 0 0 1-.105-.063.109.109 0 0 1 .013-.18.277.277 0 0 1 .132-.042.647.647 0 0 1 .21.016l.17.05c.02.005.049-.015.05-.036.001-.077.002-.153.001-.23 0-.026-.027-.059-.051-.065a1.282 1.282 0 0 0-.524-.036.733.733 0 0 0-.251.078c-.164.09-.252.222-.247.414a.39.39 0 0 0 .188.338c.07.045.146.076.223.104.05.018.1.031.15.05a.394.394 0 0 1 .123.069c.048.042.046.133-.007.17a.203.203 0 0 1-.061.033.577.577 0 0 1-.227.022.985.985 0 0 1-.255-.064.896.896 0 0 0-.1-.034c-.006-.002-.024.008-.025.015-.005.046-.008.093-.012.14h.007Zm-4.1.218h.09c.046-.001.093-.001.14-.005a.078.078 0 0 0 .068-.048c.012-.027.024-.054.034-.082l.467-1.255.027-.084c.008-.025-.007-.05-.032-.05a25.402 25.402 0 0 0-.37-.001c-.032 0-.057.015-.068.046a1.608 1.608 0 0 0-.032.1l-.255.9a.29.29 0 0 1-.019.048c-.002.003-.009.005-.014.006-.005.001-.014.002-.017-.002a.076.076 0 0 1-.02-.028l-.225-.815a5.636 5.636 0 0 0-.055-.186c-.019-.058-.033-.07-.086-.07h-.353a.07.07 0 0 0-.034.008c-.008.005-.018.018-.017.025a.666.666 0 0 0 .026.102l.441 1.246c.012.033.025.066.04.098.01.022.03.039.054.04.07.005.14.007.21.01v-.003Zm19.61-.272c.004.305-.038.27.275.272.186 0 .182 0 .181-.188l.001-.775.003-.159c.002-.038.028-.061.07-.063l.141-.003.088-.005a.052.052 0 0 0 .045-.046c.002-.076.002-.153.002-.229a.055.055 0 0 0-.055-.056l-.229-.007a.063.063 0 0 1-.06-.053.566.566 0 0 1 .005-.192.21.21 0 0 1 .194-.176.366.366 0 0 1 .071 0c.023.002.046.009.069.012.036.005.061-.012.062-.045.001-.07.003-.14.002-.21-.001-.06-.025-.088-.081-.098a.836.836 0 0 0-.417.03.52.52 0 0 0-.352.387c-.011.045-.011.093-.014.14l-.007.158c-.001.021-.026.044-.047.045l-.141.008c-.032.003-.058.024-.059.054-.001.076-.001.152.001.228 0 .028.029.05.061.053l.14.008c.022.002.044.025.045.047.003.035.006.07.006.105v.758Zm-6.64.035c0 .253-.027.237.238.237.234 0 .218.012.218-.223v-.758c0-.046.002-.094.004-.14.002-.038.03-.062.07-.064l.088-.003.14-.005c.022-.001.045-.024.045-.047.002-.076.002-.153.002-.229 0-.031-.024-.054-.056-.055l-.229-.007a.064.064 0 0 1-.06-.055.493.493 0 0 1 .025-.243.179.179 0 0 1 .095-.1.246.246 0 0 1 .12-.025c.035.003.07.01.104.014.035.004.059-.014.06-.046a8.322 8.322 0 0 0 0-.23c0-.037-.025-.065-.063-.072a.788.788 0 0 0-.5.054.508.508 0 0 0-.276.325.627.627 0 0 0-.026.174c0 .053-.003.105-.006.158-.002.021-.025.043-.047.044l-.141.008c-.033.002-.057.023-.058.054-.002.071-.002.142-.001.212 0 .043.023.066.063.069l.14.008c.022.002.043.024.045.047.002.035.005.07.005.105v.794Zm16.384.015c0 .053.003.106.006.159.002.03.026.056.056.057.112.002.224.003.335.002.043 0 .067-.026.069-.065.002-.053.003-.106.003-.16v-1.324c0-.053.003-.106.009-.158.002-.014.02-.03.034-.036a.207.207 0 0 1 .069-.011l.3-.001.141-.003c.036-.002.063-.031.065-.07.002-.053.002-.107.002-.16.002-.14-.012-.15-.149-.15h-1.307l-.159.001a.125.125 0 0 0-.051.011c-.014.008-.033.023-.033.036a6.603 6.603 0 0 0-.001.282c0 .019.026.044.046.046.03.003.059.006.088.007h.336c.029 0 .058.004.087.006.018.002.045.03.047.047.003.047.007.095.007.142v1.342Zm-38.309-.304c-.043.159-.168.257-.34.236a.191.191 0 0 1-.067-.361.283.283 0 0 1 .081-.031c.087-.015.174-.027.261-.038.05-.005.075.02.075.072v.043c0 .01 0 .046-.01.08Zm.072.52c.1.003.2.002.3.002a.072.072 0 0 0 .033-.01c.01-.006.022-.015.024-.024a.382.382 0 0 0 .013-.087v-.811a.962.962 0 0 0-.016-.175c-.042-.215-.162-.361-.378-.42a.903.903 0 0 0-.208-.033 1.532 1.532 0 0 0-.536.089.238.238 0 0 0-.048.021c-.02.013-.037.031-.04.056a.83.83 0 0 0 .005.245c.002.01.015.017.026.029l.093-.042c.07-.033.142-.055.217-.072a.675.675 0 0 1 .245-.01c.08.011.144.048.182.124.045.09.026.133-.07.15l-.07.009-.297.039a.73.73 0 0 0-.265.09.415.415 0 0 0-.183.207.553.553 0 0 0-.032.295c.03.197.16.326.358.36.018.004.035.008.052.009a.519.519 0 0 0 .422-.136c.022-.02.042-.041.065-.059.007-.005.022-.001.037-.001l.02.138c.019.007.035.018.051.018Zm10.438-.917c-.014 0-.033-.025-.032-.037v-.017a.372.372 0 0 1 .12-.21.246.246 0 0 1 .14-.066c.172-.02.286.078.3.261.003.042-.01.068-.056.073a.78.78 0 0 1-.07.004h-.158v.003a18.234 18.234 0 0 1-.244-.011Zm.45.288h.352c.035 0 .07-.005.105-.009.02-.002.044-.026.046-.046a.979.979 0 0 0-.03-.418.6.6 0 0 0-.48-.44.885.885 0 0 0-.228-.014.737.737 0 0 0-.675.529c-.046.155-.051.313-.027.472.052.334.271.539.61.588.16.023.317.007.473-.02.063-.01.123-.038.183-.06a.074.074 0 0 0 .048-.069 2.33 2.33 0 0 0 .002-.159.269.269 0 0 0-.01-.068c-.002-.008-.018-.02-.026-.018a.46.46 0 0 0-.084.024.882.882 0 0 1-.433.05c-.176-.02-.279-.119-.31-.287-.002-.013.014-.04.027-.041.029-.005.058-.012.087-.012h.37v-.001Zm19.168-.284c-.037-.001-.059-.035-.051-.074a.36.36 0 0 1 .141-.215c.119-.09.357-.062.402.144.006.029.01.058.014.086a.056.056 0 0 1-.052.059H101.929Zm.686.577a.912.912 0 0 1-.399.052.451.451 0 0 1-.154-.037.309.309 0 0 1-.181-.204c-.019-.066.003-.099.076-.101.047-.002.094-.002.141-.002h.548c.047 0 .094 0 .141-.003.051-.003.078-.029.079-.075l.001-.16a.716.716 0 0 0-.04-.243.596.596 0 0 0-.435-.422.915.915 0 0 0-.262-.026.737.737 0 0 0-.701.59c-.03.147-.032.292-.005.44.057.299.265.504.565.554.171.03.341.018.509-.013.063-.011.123-.038.184-.06.023-.008.041-.025.043-.051a.945.945 0 0 0-.004-.26c-.042-.01-.073.008-.106.02Zm-3.69-.577c-.038-.001-.06-.037-.05-.076a.35.35 0 0 1 .158-.224.255.255 0 0 1 .382.148l.005.017c.024.111.012.14-.107.14h-.176v-.005h-.212Zm.428.284h.353c.035 0 .07-.004.105-.008.022-.002.046-.025.047-.045l.006-.159a.792.792 0 0 0-.034-.244.602.602 0 0 0-.452-.45.893.893 0 0 0-.263-.021.735.735 0 0 0-.688.583 1.051 1.051 0 0 0-.002.473.647.647 0 0 0 .518.519c.199.045.4.035.595-.017.208-.055.187-.048.188-.25 0-.03-.002-.06-.004-.09 0-.015-.023-.03-.038-.024l-.1.036a.948.948 0 0 1-.383.041.405.405 0 0 1-.17-.048.283.283 0 0 1-.16-.238c0-.021.02-.047.04-.05.036-.002.07-.006.106-.007h.336Zm12.617-.282c-.048 0-.069-.035-.056-.084a.376.376 0 0 1 .146-.211c.113-.08.343-.061.394.14.009.034.01.07.014.104.002.02-.022.045-.043.047-.023.002-.047.006-.07.006h-.175v-.001h-.21Zm.417.283h.265c.288 0 .25.014.25-.261a.733.733 0 0 0-.046-.242.599.599 0 0 0-.435-.402.924.924 0 0 0-.262-.024.734.734 0 0 0-.688.563 1.014 1.014 0 0 0-.003.507c.067.27.239.443.51.505.222.05.445.032.663-.033.029-.008.055-.022.082-.034.023-.01.035-.03.039-.054l.002-.018-.001-.212c-.001-.018-.02-.034-.035-.03l-.1.035a.934.934 0 0 1-.383.044.44.44 0 0 1-.153-.039.297.297 0 0 1-.172-.19c-.005-.017-.006-.035-.008-.053-.004-.023.014-.05.034-.053.03-.003.059-.008.088-.008l.353-.001Zm-5.338-.284c-.039 0-.059-.033-.05-.074a.355.355 0 0 1 .155-.224.255.255 0 0 1 .389.152c.007.028.009.057.011.086a.053.053 0 0 1-.051.059h-.245v.002h-.209Zm.42.284h.318c.047 0 .094-.003.141-.006.029-.002.056-.029.058-.055a1.07 1.07 0 0 0-.032-.402.6.6 0 0 0-.438-.44.885.885 0 0 0-.263-.026.737.737 0 0 0-.701.587 1.123 1.123 0 0 0-.004.455c.05.253.229.483.556.541.171.031.34.019.509-.01a.639.639 0 0 0 .2-.066.065.065 0 0 0 .036-.056c.002-.077.001-.153 0-.23 0-.016-.021-.032-.036-.027-.028.01-.056.019-.083.03a.924.924 0 0 1-.399.049.421.421 0 0 1-.169-.047.293.293 0 0 1-.166-.234.053.053 0 0 1 .051-.059c.023-.002.047-.004.07-.004h.352Zm-43.903.339a.18.18 0 0 1-.145-.174c-.002-.093.037-.155.122-.193.011-.005.021-.012.033-.013.103-.018.205-.043.31-.043.022 0 .044.021.047.043a.359.359 0 0 1-.038.237.294.294 0 0 1-.272.15c-.01-.002-.034-.003-.057-.007Zm.811-.597c.001-.077-.008-.152-.024-.227a.497.497 0 0 0-.4-.419c-.263-.06-.514-.013-.76.08-.024.01-.04.03-.04.054-.002.082 0 .165 0 .247 0 .014.026.03.04.024.048-.02.096-.042.146-.06a.836.836 0 0 1 .345-.06.316.316 0 0 1 .135.033.202.202 0 0 1 .114.167.06.06 0 0 1-.046.066 1.191 1.191 0 0 1-.103.02l-.297.04a.76.76 0 0 0-.268.086.405.405 0 0 0-.186.204.542.542 0 0 0-.005.413c.05.122.14.206.267.238.206.052.398.028.554-.135.016-.016.036-.028.054-.041.004-.003.016-.001.017.002.006.015.013.032.015.049.014.102.02.108.115.11.071.002.142 0 .212 0a.418.418 0 0 0 .053-.004c.029-.004.056-.03.058-.057.002-.03.004-.059.004-.088v-.742Zm13.287-.631-.335-.003-.018.003c-.023.002-.046.022-.048.043-.002.023-.005.046-.005.07v1.287c0 .024.003.047.005.07.002.018.029.044.048.045.117.012.235.013.352 0 .021-.002.045-.025.047-.045.003-.047.006-.094.007-.14v-.6c0-.066.004-.13.02-.193a.309.309 0 0 1 .1-.163c.138-.117.357-.075.41.116a.76.76 0 0 1 .028.208v.6c0 .053.002.106.004.159.001.032.023.056.053.06.03.002.059.005.088.005.082 0 .165-.001.247-.004.037-.001.06-.03.063-.07a.912.912 0 0 0 .002-.053v-.847a.777.777 0 0 0-.062-.327.41.41 0 0 0-.266-.238.64.64 0 0 0-.227-.022.51.51 0 0 0-.306.12c-.023.019-.042.041-.064.061-.012.012-.024.026-.039.035-.008.005-.021.001-.032-.001-.004 0-.01-.007-.01-.012l-.023-.15c-.017-.007-.028-.014-.04-.014Zm39.104.756c0 .165-.002.33 0 .495.003.302-.039.27.275.272.185 0 .184-.001.184-.188v-.6c0-.066.003-.13.019-.193a.318.318 0 0 1 .072-.14.258.258 0 0 1 .255-.087c.103.02.162.088.188.189a.82.82 0 0 1 .025.21v.706c.003.083.02.099.108.101.041.002.082.003.123.002.059-.002.118-.005.176-.01.021-.001.042-.026.045-.048l.003-.052v-.884a.758.758 0 0 0-.07-.326.383.383 0 0 0-.244-.214c-.212-.061-.408-.036-.576.118l-.077.072c-.01.01-.038-.004-.04-.02-.003-.03-.005-.059-.009-.088-.006-.058-.02-.074-.075-.074h-.3c-.048 0-.079.011-.081.07l-.001.053v.636Zm-13.527-.005.001.672c0 .072.023.095.094.098.047.002.094.002.141.002.053 0 .106-.002.159-.005.038-.002.064-.03.066-.069.003-.04.004-.082.004-.123l.001-.583c0-.059.002-.118.008-.176a.286.286 0 0 1 .097-.184c.141-.13.359-.083.417.096.022.07.027.138.028.209v.689c0 .035.004.07.009.105.002.01.014.019.023.025.01.006.022.01.033.01h.335c.006 0 .013-.002.017-.006.012-.012.028-.023.032-.038a.365.365 0 0 0 .008-.087v-.813c0-.053-.003-.106-.009-.159a.625.625 0 0 0-.072-.235.361.361 0 0 0-.175-.169c-.218-.089-.426-.072-.613.08-.032.026-.059.058-.09.086-.003.003-.012.005-.016.003-.009-.005-.023-.01-.024-.019-.006-.034-.008-.07-.012-.104-.004-.034-.027-.057-.056-.058a25.088 25.088 0 0 0-.336 0 .072.072 0 0 0-.034.008c-.009.005-.021.014-.023.023a.527.527 0 0 0-.013.104v.618Zm-34.209.003v.634c.001.118.016.133.132.134.094 0 .188-.003.282-.007.017 0 .046-.03.047-.046.003-.041.006-.082.006-.124l.001-.634c0-.053 0-.107.01-.158a.288.288 0 0 1 .213-.236.239.239 0 0 1 .289.141c.02.05.034.1.035.154l.002.176v.635c.001.075.022.095.093.098a1.9 1.9 0 0 0 .317-.01c.014 0 .032-.017.037-.032a.195.195 0 0 0 .01-.069v-.864c0-.047-.005-.094-.01-.14a.607.607 0 0 0-.075-.234.352.352 0 0 0-.177-.165c-.219-.084-.426-.068-.612.087-.031.027-.059.058-.09.084-.004.004-.027-.004-.028-.008-.008-.04-.012-.08-.018-.12-.003-.024-.025-.05-.045-.05l-.369.001c-.02 0-.042.025-.043.048a1.8 1.8 0 0 0-.007.123v.582Zm50.736.231a.371.371 0 0 1-.091.149c-.098.099-.379.106-.484-.026a.38.38 0 0 1-.064-.105.68.68 0 0 1-.004-.467c.088-.25.367-.274.525-.172.057.037.094.09.115.153a.558.558 0 0 1 .037.224.67.67 0 0 1-.034.244Zm-.617-.985c-.289.092-.465.285-.516.587-.02.117-.017.233-.002.35.034.25.213.54.602.606.14.024.281.025.42-.002.282-.057.478-.215.571-.49a.975.975 0 0 0 .032-.471.683.683 0 0 0-.499-.58.793.793 0 0 0-.281-.04.903.903 0 0 0-.327.04Zm-51.661.528c.089-.232.352-.266.514-.169a.291.291 0 0 1 .127.165c.05.156.049.314-.004.469a.286.286 0 0 1-.273.212.764.764 0 0 1-.106-.003.296.296 0 0 1-.255-.19.535.535 0 0 1-.04-.216c0-.109.006-.19.037-.268Zm1.135.08a.696.696 0 0 0-.51-.61 1.044 1.044 0 0 0-.608.005.694.694 0 0 0-.506.556c-.028.14-.026.279.001.42a.706.706 0 0 0 .583.563c.147.026.293.028.438-.003a.71.71 0 0 0 .573-.512c.026-.085.032-.172.036-.283-.002-.03-.002-.083-.007-.136Zm24.07.372a.352.352 0 0 1-.035.081.268.268 0 0 1-.212.14.716.716 0 0 1-.14 0 .292.292 0 0 1-.246-.177l-.006-.017a.707.707 0 0 1-.006-.467c.075-.228.326-.283.507-.187.071.037.115.1.139.176a.618.618 0 0 1 .033.224.696.696 0 0 1-.033.227Zm.492-.384c-.041-.287-.195-.49-.47-.585a1.004 1.004 0 0 0-.724.02.68.68 0 0 0-.427.522 1.09 1.09 0 0 0-.004.403.709.709 0 0 0 .6.588c.14.023.28.025.42-.004a.711.711 0 0 0 .576-.507c.03-.092.034-.185.039-.295-.003-.037-.002-.09-.01-.142Zm29.515.318a.395.395 0 0 1-.053.148.256.256 0 0 1-.128.116.411.411 0 0 1-.326-.006.3.3 0 0 1-.167-.215.747.747 0 0 1 0-.384c.075-.276.349-.313.519-.22.089.048.134.13.152.227.011.057.012.117.018.171-.005.057-.009.11-.015.163Zm-1.164-.057c.023.37.271.635.637.69.135.02.269.02.402-.008.275-.056.469-.211.561-.479a.94.94 0 0 0 .021-.555.68.68 0 0 0-.491-.507 1.03 1.03 0 0 0-.608.005.695.695 0 0 0-.498.522.917.917 0 0 0-.024.244c0 .03-.002.059 0 .088Zm-32.87-.859h-.195c-.026 0-.044.024-.036.047.017.044.032.088.05.132l.477 1.176c.082.203.085.143-.009.363a.4.4 0 0 1-.015.032.27.27 0 0 1-.277.15c-.04-.004-.08-.016-.12-.024-.024-.004-.045.015-.046.041a8.02 8.02 0 0 0-.003.177c0 .117.006.127.125.147.046.008.093.007.14.008a.574.574 0 0 0 .454-.198.875.875 0 0 0 .115-.156c.043-.076.082-.156.114-.238.192-.505.381-1.012.571-1.518l.027-.084c.006-.024-.01-.052-.032-.052l-.352-.002c-.025 0-.044.016-.054.039a.788.788 0 0 0-.023.067c-.069.218-.136.437-.204.656l-.084.27c-.003.008-.018.016-.028.017-.008 0-.022-.009-.025-.017l-.264-.877a1.76 1.76 0 0 0-.041-.116.058.058 0 0 0-.054-.039h-.212Zm37.529 1.03-.219-.725c-.026-.085-.052-.17-.08-.252-.009-.029-.03-.053-.063-.053-.136 0-.271 0-.406.002-.006 0-.014 0-.017.005-.007.008-.018.02-.016.027.013.045.027.09.044.134l.492 1.209.057.147a1.105 1.105 0 0 1-.094.23c-.055.105-.146.15-.262.146-.029 0-.058-.008-.087-.013l-.066-.012c-.009.014-.02.023-.02.032a5.815 5.815 0 0 0-.001.264c0 .025.018.041.042.05.073.03.149.028.226.028a.576.576 0 0 0 .427-.18.784.784 0 0 0 .147-.197c.039-.079.078-.158.109-.241l.555-1.469c.012-.033.025-.066.033-.1.004-.016-.001-.034-.002-.06-.107-.008-.212-.004-.318-.004-.104 0-.106.003-.138.098l-.022.067-.212.69c-.018.057-.035.113-.055.169-.005.015-.021.025-.033.039-.009-.012-.018-.02-.021-.03Zm-11.365.27c0 .053.002.106.004.159.002.03.028.06.055.06l.353-.001c.016 0 .047-.03.048-.046.003-.041.007-.083.007-.124v-.618c.001-.053.003-.106.008-.159a.288.288 0 0 1 .081-.172.26.26 0 0 1 .258-.081c.095.022.148.088.174.18a.696.696 0 0 1 .023.192 60.16 60.16 0 0 0 .002.76c.001.04.026.07.063.07.107.002.213.001.318 0a.058.058 0 0 0 .034-.008.091.091 0 0 0 .032-.038c.007-.022.007-.046.007-.07l-.001-.865a.752.752 0 0 0-.067-.326.378.378 0 0 0-.193-.2c-.211-.087-.413-.076-.599.07-.032.025-.06.056-.092.082-.006.005-.021.002-.032 0-.003-.001-.007-.01-.008-.015-.003-.036-.007-.07-.008-.105v-.583c0-.047-.002-.094-.004-.142-.001-.03-.026-.06-.054-.06h-.353c-.026 0-.051.03-.053.061a3.354 3.354 0 0 0-.003.142V71.246ZM76.27 70.034v.495l-.003.159a.54.54 0 0 1-.05.205c-.062.138-.177.201-.322.21-.15.008-.28-.034-.366-.168-.019-.029-.031-.063-.045-.096-.006-.016-.008-.034-.013-.05a.823.823 0 0 1-.026-.246v-.97l-.001-.16c-.002-.06-.023-.081-.089-.082-.1-.002-.2-.001-.3 0l-.018.001c-.037.004-.061.03-.065.07l-.002.035c0 .389-.002.778.002 1.166.002.13.017.258.057.383.091.287.288.45.58.503.165.03.329.028.492-.003.29-.056.49-.22.581-.505.043-.135.064-.275.064-.417v-1.095c0-.03-.003-.058-.005-.088-.002-.018-.029-.044-.048-.046a1.985 1.985 0 0 0-.37 0c-.021.002-.046.027-.047.046-.003.035-.005.07-.005.106v.547h-.001Zm48.345.834a.323.323 0 0 1-.05.13c-.085.14-.215.186-.381.14a.267.267 0 0 1-.147-.12.411.411 0 0 1-.058-.147.723.723 0 0 1 .031-.399.326.326 0 0 1 .159-.181.31.31 0 0 1 .443.209c.006.023.01.046.013.07.003.04.006.081.008.13l-.018.168Zm-.968.91a.93.93 0 0 0-.003.297c.001.015.015.033.028.041a.286.286 0 0 0 .08.036c.25.062.503.066.75-.005a.744.744 0 0 0 .565-.632c.013-.081.022-.163.021-.246v-1.164c0-.035-.003-.07-.005-.106a.06.06 0 0 0-.059-.053c-.112 0-.224-.002-.335 0-.032 0-.057.007-.068.065a.39.39 0 0 1-.007.035c-.005.015-.031.026-.042.018-.027-.022-.054-.046-.082-.067a.409.409 0 0 0-.194-.081c-.244-.034-.454.032-.614.226a.703.703 0 0 0-.127.23 1.177 1.177 0 0 0-.055.453c.007.1.019.2.059.293.094.224.253.364.501.387a.555.555 0 0 0 .457-.142c.017-.016.033-.033.052-.047.008-.006.024-.007.032-.002.008.004.015.018.015.028.001.047.003.095-.003.14a.412.412 0 0 1-.226.318.487.487 0 0 1-.185.053.91.91 0 0 1-.4-.05l-.128-.053c-.012.011-.026.018-.027.027Zm-26.989-1.889c0-.041.004-.082.007-.123.001-.019.028-.046.046-.047.16-.01.318-.02.472.033a.563.563 0 0 1 .394.476.871.871 0 0 1-.036.453.586.586 0 0 1-.496.398 1.22 1.22 0 0 1-.334.005c-.02-.003-.045-.027-.046-.047a1.588 1.588 0 0 1-.007-.124V69.89Zm-.466.509v.883c0 .047.002.094.008.14.002.014.019.031.033.037.02.009.045.011.068.011.23.001.46.003.689 0a1.21 1.21 0 0 0 .366-.053c.391-.129.634-.39.712-.799a1.426 1.426 0 0 0-.003-.526c-.063-.342-.252-.577-.586-.688a1.5 1.5 0 0 0-.486-.073 38.523 38.523 0 0 0-.671 0c-.12 0-.13.01-.13.132v.936Zm-35.55-.006v-.936c0-.118.015-.126.134-.127h.265l.053.001a.103.103 0 0 1 .09.047c.026.04.053.078.078.118l.762 1.168c.02.029.043.055.066.082.002.002.01.001.015 0 .006-.002.013-.005.014-.009.003-.029.007-.058.007-.087a999.188 999.188 0 0 0 0-1.236c.003-.056.022-.08.071-.08.106-.002.212 0 .318.001.017 0 .047.03.048.046.003.053.007.105.007.158v1.714c0 .047 0 .094-.002.14-.003.048-.03.073-.08.076-.03.002-.06.004-.089.002-.1-.002-.2.01-.299-.01-.083-.063-.122-.157-.177-.24-.254-.382-.504-.767-.756-1.15-.015-.024-.025-.054-.057-.063-.005 0-.014.002-.016.006a.069.069 0 0 0-.011.032c0 .406.003.812.004 1.218.001.209.007.209-.2.207-.065 0-.13-.004-.194-.007-.022-.002-.045-.025-.046-.046-.002-.053-.005-.106-.005-.159v-.866Z" clip-rule="evenodd"/></g><defs><filter id="a" width="154" height="157" x="0" y="0" color-interpolation-filters="sRGB" filterUnits="userSpaceOnUse"><feFlood flood-opacity="0" result="BackgroundImageFix"/><feColorMatrix in="SourceAlpha" result="hardAlpha" values="0 0 0 0 0 0 0 0 0 0 0 0 0 0 0 0 0 0 127 0"/><feOffset dy="16"/><feGaussianBlur stdDeviation="6.5"/><feColorMatrix values="0 0 0 0 0 0 0 0 0 0 0 0 0 0 0 0 0 0 0.03 0"/><feBlend in2="BackgroundImageFix" result="effect1_dropShadow_185_80"/><feBlend in="SourceGraphic" in2="effect1_dropShadow_185_80" result="shape"/></filter></defs></svg>