<svg xmlns="http://www.w3.org/2000/svg" width="154" height="157" fill="none"><g filter="url(#a)"><path fill="#fff" d="M13 0h128v128H13z"/><path fill="#00679C" fill-rule="evenodd" d="M41.764 66.892c-.052 0-.09.017-.117.052a.277.277 0 0 0-.045.17c0 .067.015.117.045.15.03.033.07.049.126.049.056 0 .098-.016.127-.049.03-.033.045-.084.045-.15 0-.073-.017-.13-.049-.169-.03-.036-.074-.053-.132-.053ZM40.774 66.328c-.056 0-.097.016-.126.05-.03.036-.046.09-.046.16s.015.123.046.158c.029.035.07.05.126.05.055 0 .096-.016.125-.05.03-.036.045-.09.045-.159 0-.07-.015-.123-.045-.158s-.07-.05-.125-.05Z" clip-rule="evenodd"/><path fill="#00679C" fill-rule="evenodd" d="M43.316 67.127a.433.433 0 0 1-.111.315c-.075.076-.182.114-.32.114-.139 0-.246-.038-.32-.115a.435.435 0 0 1-.111-.314v-.616c0-.133.037-.24.111-.315.075-.076.182-.114.32-.114.139 0 .246.038.32.114.074.075.111.181.111.315v.616Zm-1.169.214a.357.357 0 0 1-.148.161.454.454 0 0 1-.226.054.453.453 0 0 1-.226-.053.357.357 0 0 1-.147-.16.551.551 0 0 1-.049-.24.957.957 0 0 1 .085-.37l.014-.027.307-.608h.277l-.284.554a.4.4 0 0 1 .264.05c.06.037.106.09.137.159.03.065.045.145.045.236a.565.565 0 0 1-.049.244Zm-.971-.627a1.012 1.012 0 0 1-.056.171l-.011.026a.443.443 0 0 1-.014.027l-.3.604h-.277l.284-.56a.471.471 0 0 1-.068.004.366.366 0 0 1-.337-.214.533.533 0 0 1-.046-.228c0-.094.016-.176.048-.244a.356.356 0 0 1 .148-.161.452.452 0 0 1 .227-.055c.087 0 .163.02.226.056a.363.363 0 0 1 .147.163.572.572 0 0 1 .049.245.76.76 0 0 1-.02.166Zm-1.111.828h-.252v-1.159l-.22.137v-.272l.224-.15h.248v1.444Zm1.83-4.857c-.562-.367-1.05-.392-1.05-.392-.4-.038-.73.074-.73.074-.329.104-.51.272-.51.272-.023.02-.076.056-.076.056-.065.041-.14.06-.14.06-.188.05-.342-.12-.342-.12-.13-.138-.092-.31-.092-.31.022-.118.14-.237.14-.237.347-.402 1.066-.526 1.26-.552.03-.005.047-.006.047-.006a2.25 2.25 0 0 1 1.864.714c.873 1.005 1.693.82 1.693.82-.884.56-2.064-.379-2.064-.379Zm6.83-1.4c-.294-1.116-1.857-1.775-4.095-1.914a7.273 7.273 0 0 0-4.627-2.703 7.292 7.292 0 0 0-6.505 2.298c.21-.147.358-.212.358-.212.965-.492 2.129-.192 2.129-.192a3.18 3.18 0 0 1 1.51.874 2.577 2.577 0 0 1 .54 2.326c-.18.676-.77 1.653-1.975 1.842.467-.174 1.107-.784 1.228-1.446.198-1.086-.438-2.146-1.516-2.386a1.996 1.996 0 0 0-2.386 1.515c-.178.814.177 1.524.42 1.84 0 0 .306.458.71.743 0 0 .874.66 1.944.663 0 0 1.23.095 2.541-.71l.003-.003c1.826-1.217 3.721-.003 3.721-.003 1.704.992 2.77.437 2.77.437-.98 1.218-2.683.38-2.683.38-1.876-.855-2.95-.132-2.95-.132-1.343.842-2.357 1.011-2.357 1.011-3.265.551-4.835-1.635-4.835-1.635-.725-.98-.64-2.227-.64-2.227a3.55 3.55 0 0 1 .03-.339 7.334 7.334 0 0 0-.436 3.244s1.316 2.103 4.818 1.876l-.2.033c-.243.04-.606.07-.606.07-1.109.105-2.737.138-4.045-.33-.706-.25-1.168-.626-1.298-1.119-.161-.614.214-1.323.988-2.033-1.636 1.153-2.514 2.387-2.24 3.425.294 1.119 1.866 1.778 4.114 1.916a7.3 7.3 0 0 0 12.616-6.96c.934.243 1.548.661 1.701 1.243.162.614-.213 1.322-.988 2.033 1.637-1.153 2.514-2.388 2.241-3.426Z" clip-rule="evenodd"/><path fill="#00679C" fill-rule="evenodd" d="M42.885 66.323c-.063 0-.11.015-.137.045-.029.032-.043.08-.043.143v.616c0 .063.014.11.043.142.027.03.074.045.137.045.064 0 .11-.015.137-.045.029-.032.043-.08.043-.142v-.616c0-.063-.014-.111-.043-.143-.027-.03-.073-.045-.137-.045Z" clip-rule="evenodd"/><path fill="#00679C" fill-rule="evenodd" d="M38.883 52C32.32 52 27 57.32 27 63.883c0 6.563 5.32 11.883 11.883 11.883 6.563 0 11.883-5.32 11.883-11.883C50.766 57.32 45.446 52 38.883 52Zm0 .555c3.026 0 5.87 1.178 8.01 3.318a11.252 11.252 0 0 1 3.318 8.01c0 3.026-1.179 5.87-3.318 8.01a11.254 11.254 0 0 1-8.01 3.318c-3.026 0-5.87-1.179-8.01-3.318a11.253 11.253 0 0 1-3.318-8.01c0-3.026 1.178-5.87 3.318-8.01a11.253 11.253 0 0 1 8.01-3.318Z" clip-rule="evenodd"/><path fill="#00679C" fill-rule="evenodd" d="m29.476 68.607.737-.376.051.1-.737.376-.051-.1ZM30.021 69.27l.58-.336.053.094-.716.414-.063-.109.369-.7-.003-.003-.579.335-.054-.094.716-.414.068.117-.371.695ZM30.418 69.488l-.31.211-.064-.093.685-.465.323.474-.079.054-.26-.382-.213.145.23.337-.083.056-.229-.337ZM31.169 70.434c.162-.145.19-.291.087-.44-.122-.138-.271-.142-.449-.012-.161.14-.188.286-.08.435.122.134.27.14.442.017Zm.07.089c-.225.157-.42.14-.583-.05-.151-.203-.125-.397.078-.583.233-.167.432-.152.597.044.149.202.118.398-.092.589ZM31.638 70.472l-.207.196.18.19c.077.081.15.088.22.022.068-.064.068-.132 0-.204l-.193-.204Zm-.276.261-.26.246-.077-.082.6-.57.265.28c.126.133.136.251.029.353a.21.21 0 0 1-.226.05c.033.062.017.122-.046.182l-.102.11c-.033.026-.043.054-.031.085l-.014.012-.096-.102c.022-.033.069-.085.139-.156.074-.066.076-.136.006-.21l-.187-.198ZM32.196 72.025l-.081-.072.324-.365.138-.156-.638.365-.085-.075.29-.674-.004-.003a4.005 4.005 0 0 0-.095.115c-.022.025-.035.04-.04.044l-.323.365-.085-.075.55-.619.12.108-.285.683.641-.368.122.108-.55.62ZM32.672 71.962l.207.154.12-.367-.003-.002-.324.215Zm.18.258-.268-.2-.213.14-.09-.067.745-.477.101.076-.256.842-.098-.073.079-.241ZM33.298 71.938l.052-.08.562.361-.05.08-.237-.151-.396.616-.091-.059.396-.616-.236-.151ZM33.565 72.969l.414-.717.098.056-.414.717-.098-.056ZM34.597 73.05c.086-.2.051-.346-.105-.438-.168-.074-.306-.015-.413.178-.087.195-.051.338.11.428.166.07.302.014.408-.169Zm.1.05c-.138.237-.322.303-.55.2-.222-.122-.28-.31-.172-.563.141-.25.328-.32.56-.21.22.12.274.312.163.573ZM35.216 73.583l.25-.621.1.04-.308.768-.118-.047-.14-.778-.004-.001-.25.62-.1-.04.308-.768.126.05.136.777ZM36.463 73.526l-.1-.028c.023-.103-.029-.176-.155-.218-.12-.03-.192-.001-.218.089-.016.058.006.1.068.127l.211.117c.11.062.15.152.116.268-.044.147-.17.194-.378.141-.113-.032-.186-.078-.22-.137-.045-.06-.054-.135-.025-.224l.104.03c-.032.122.023.205.164.248.14.037.224.013.252-.074.032-.069-.012-.133-.133-.193l-.156-.082c-.104-.064-.142-.143-.115-.24.053-.153.169-.208.348-.164.2.057.279.17.237.34ZM37.261 73.7l-.106-.023c-.005-.114-.068-.186-.192-.214-.173-.026-.284.066-.332.274-.046.225.021.355.201.392.125.022.217-.038.277-.18l.106.023c-.074.197-.215.277-.423.24-.234-.056-.327-.22-.278-.494.067-.27.223-.385.468-.348.19.045.284.155.28.33ZM37.3 74.29l.121-.819.112.016-.12.82-.112-.017ZM38.228 74.295l-.01.099-.607-.058.079-.823.598.057-.009.094-.486-.046-.024.256.45.043-.01.1-.45-.044-.026.275.495.047ZM38.927 74.255l.012-.67.108.002-.015.828-.126-.003-.409-.676h-.004l-.012.669-.109-.002.015-.827.136.002.404.677ZM39.87 73.786l-.109.007c-.034-.11-.114-.162-.24-.158-.175.02-.258.137-.25.351.014.229.112.337.296.326.126-.01.2-.092.22-.245l.108-.006c-.02.21-.135.323-.345.343-.241.006-.374-.13-.397-.406-.005-.278.115-.43.361-.458.196-.006.314.076.355.246ZM40.658 74.165l.014.098-.604.085-.115-.819.595-.083.013.094-.483.067.035.256.448-.063.014.098-.448.063.039.273.492-.069ZM41.468 73.921l-.238-.173c-.084.073-.115.143-.093.209.023.078.082.112.179.1a.211.211 0 0 0 .152-.136Zm-.232-.296c.057-.06.079-.116.067-.166-.015-.058-.051-.08-.11-.066-.058.015-.082.052-.07.111.01.041.048.081.113.121Zm.338.252.188.14-.127.03-.102-.072a.284.284 0 0 1-.208.159c-.147.033-.242-.014-.287-.143-.037-.103.002-.202.117-.3-.078-.052-.12-.104-.128-.159-.019-.113.031-.187.15-.223.112-.025.185.015.22.118.023.08-.008.163-.093.246l.19.144a.645.645 0 0 0 0-.134l.096-.025a.486.486 0 0 1-.016.219ZM41.855 73.223l-.032-.09.63-.225.032.09-.264.094.247.69-.103.036-.246-.69-.264.095ZM43.36 73.305l.04.092-.56.245-.332-.758.55-.241.039.087-.447.196.103.236.414-.182.04.091-.414.182.111.252.455-.2ZM43.876 72.491l-.096.05c-.076-.085-.171-.1-.284-.044-.151.09-.18.23-.085.422.107.203.241.262.404.176.11-.061.145-.166.101-.313l.096-.051c.068.2.01.351-.175.455-.217.104-.393.035-.528-.208-.118-.251-.07-.44.142-.565.177-.086.318-.06.425.078ZM44.476 72.222l-.182-.286.095-.06.445.697-.096.06-.206-.323-.366.233.207.324-.095.061-.446-.698.096-.06.182.285.366-.233ZM45.329 72.009l-.404-.534.087-.065.499.66-.101.076-.74-.28-.003.003.404.534-.086.065-.5-.66.108-.082.736.283ZM45.866 71.21c-.154-.153-.302-.174-.445-.062-.13.13-.126.28.015.449.15.153.295.171.438.056.127-.13.124-.278-.008-.443Zm.084-.075c.17.216.165.41-.015.585-.195.162-.39.147-.587-.045-.18-.223-.177-.422.01-.598.192-.16.39-.141.593.058ZM45.803 70.684l.525.504.291-.303.072.069-.37.385-.596-.573.078-.082ZM46.87 70.102c-.175-.129-.325-.128-.45.004-.11.148-.083.295.081.442.171.13.319.126.442-.01.106-.147.082-.292-.073-.436Zm.072-.088c.2.19.224.383.071.582-.168.189-.363.203-.587.043-.21-.194-.237-.392-.079-.593.167-.188.365-.198.595-.032ZM47.266 69.66l-.078-.053.205-.298.365.25-.04.06-.102-.036a.348.348 0 0 1-.057.29c-.063.091-.136.146-.217.163a.44.44 0 0 1-.361-.09c-.214-.172-.258-.361-.13-.567.125-.162.267-.207.423-.136l-.062.09c-.111-.041-.207-.006-.286.104-.088.148-.046.287.125.416.189.13.336.119.44-.033a.279.279 0 0 0 .053-.172c-.006-.077-.05-.142-.134-.196l-.144.208ZM47.742 68.927l.29.167-.056.098-.29-.167-.583.024.065-.113.462-.005-.225-.407.066-.113.271.516ZM32.43 70.12l.492-.453.074.08-.609.56-.086-.093.208-.762-.003-.004-.493.454-.073-.08.608-.56.092.1-.21.758ZM32.925 70.349l.192.172.153-.354-.003-.003-.342.185Zm.156.274-.25-.224-.223.121-.084-.075.784-.408.094.084-.33.816-.09-.082.099-.232ZM33.766 71.259l.396-.54.087.064-.489.667-.102-.074.057-.788-.004-.003-.396.54-.087-.065.489-.667.11.08-.06.786ZM34.064 71.33l.089.054-.03.05c-.047.077-.034.138.038.181.075.046.137.027.187-.056l.316-.522.097.059-.314.518c-.082.13-.191.156-.327.077-.125-.079-.157-.176-.098-.292l.042-.07ZM34.568 71.932l.387-.731.1.053-.387.731-.1-.053ZM35.482 72.19l.268-.612.1.043-.332.758-.116-.05-.117-.782-.004-.002-.269.613-.099-.043.332-.758.124.054.113.78ZM36.227 72.255l.028-.09.345.109-.134.423-.069-.022.006-.108a.348.348 0 0 1-.294.03c-.107-.033-.18-.086-.22-.16a.438.438 0 0 1-.02-.37c.103-.256.271-.353.505-.291.191.073.276.195.254.365l-.103-.033c.005-.118-.056-.2-.184-.243-.168-.04-.288.04-.361.241-.07.219-.016.356.159.411a.28.28 0 0 0 .18 0c.072-.028.122-.09.149-.185l-.241-.076ZM37.787 72.116l.112.018-.084.527c-.04.195-.168.278-.383.25-.198-.037-.288-.15-.267-.335l.086-.545.112.018-.081.513c-.021.15.035.236.169.26.146.02.231-.044.255-.192l.081-.514ZM38.599 72.853l.038-.669.108.007-.046.826-.127-.007-.382-.692h-.005l-.037.668-.109-.006.047-.826.135.007.378.692ZM38.974 73.012l-.013-.827.113-.002.013.827-.113.002ZM39.648 72.858l.18-.723.125-.01-.232.85-.121.01-.372-.799.126-.01.294.682ZM40.817 72.71l.018.098-.6.109-.148-.814.592-.107.017.093-.48.087.045.254.445-.08.018.097-.445.08.049.272.49-.089ZM40.992 72.01l.078.274.252-.072c.107-.03.147-.092.121-.185-.026-.09-.086-.121-.182-.094l-.27.077Zm.104.365.098.344-.11.03-.226-.795.37-.105c.176-.05.285-.005.326.137a.21.21 0 0 1-.059.224c.069 0 .115.04.14.125l.049.14c.008.042.029.065.061.068l.005.017-.135.039c-.02-.035-.044-.1-.074-.196-.025-.096-.086-.13-.184-.102l-.261.074ZM42.311 71.715l-.096.038c-.045-.096-.13-.123-.255-.08-.114.049-.154.117-.12.203.023.057.066.076.131.06l.239-.036c.126-.017.21.03.255.143.054.144-.018.258-.214.342-.11.043-.196.051-.258.024-.073-.02-.125-.073-.157-.161l.101-.04c.05.116.144.149.282.097.134-.056.185-.126.154-.212-.016-.074-.09-.098-.222-.072l-.174.03c-.121.012-.2-.028-.236-.12-.052-.155.006-.269.175-.343.194-.076.325-.034.395.127ZM42.766 72.148l-.357-.747.102-.048.357.746-.102.049ZM42.695 71.374l-.046-.083.583-.327.047.083-.245.137.359.638-.095.053-.358-.638-.245.137ZM43.907 71.102l.19.276-.094.064-.19-.275-.536-.23.108-.074.42.195-.029-.464.108-.075.023.583ZM45.016 70.084c-.157-.151-.305-.17-.446-.056-.13.132-.122.282.02.45.153.15.3.166.44.048.125-.132.12-.28-.014-.442Zm.082-.077c.174.213.171.409-.006.585-.192.166-.388.154-.587-.035-.184-.22-.184-.42 0-.598.19-.164.388-.148.593.048ZM45.333 69.801l.28.25-.075.084-.618-.55.382-.429.07.063-.306.345.193.171.27-.304.075.066-.271.304ZM30.905 58.448s-.081-.04-.02-.127c0 0 .007-.008.01-.019 0 0 .025-.048.095-.103 0 0 .088-.07.116-.201 0 0 .032-.165.037-.269 0 0-.007-.124-.103-.243 0 0-.034-.044-.075-.109 0 0-.025-.04-.086-.099 0 0-.063-.047-.08-.11 0 0-.023-.072.069-.145 0 0 .095-.076.355.033 0 0 .046.016.09.079 0 0 .035.056.083.038 0 0 .064-.037.092-.01 0 0 .014.014.011.043 0 0-.004.043.019.114 0 0 .016.04-.063.126 0 0-.041.033-.02.172 0 0 .015.07.008.147 0 0-.01.12.006.212 0 0 .002.022.017.012 0 0 .014-.011.014-.033 0 0-.004-.074.039-.179 0 0 .1-.241.145-.414 0 0 .012-.054.034-.081 0 0 .023-.032.03-.063 0 0 .002-.015.026-.04 0 0 .068-.07.097-.07 0 0 .149.002.179.07 0 0 .007.015.007.04 0 0-.003.03.048.089 0 0 .145.178.292.447 0 0 .055.107.143.211 0 0 .068.074.118.207 0 0 .017.05.102.149 0 0 .153.16.035.296 0 0-.044.046-.115.037 0 0-.133-.019-.28.046 0 0-.103.047-.23.016 0 0-.051-.015-.057-.044 0 0-.005-.027.035-.039 0 0 .11-.033.228-.047 0 0 .096-.015.15-.053 0 0 .083-.056.034-.102 0 0-.384-.376-.465-.602 0 0-.086-.198-.13-.289 0 0-.08-.185-.112-.222 0 0-.035-.038-.051-.01 0 0-.047.082-.094.346 0 0-.032.18-.076.293 0 0-.012.037-.001.06 0 0 .007.018.022.004 0 0 .093-.07.166.005 0 0 .033.02-.01.144 0 0-.047.13-.024.249 0 0 .001.015.011.01 0 0 .029-.012.068-.004 0 0 .047.01.047.04 0 0 .002.03.016.053 0 0 .023.026-.035.108 0 0-.025.038.014.076 0 0 .012.011.02.005 0 0 .004-.002.003-.019 0 0-.003-.068-.002-.086 0 0 0-.024.019-.04l.034-.027s.01-.009.022-.005c0 0 .037.012.053.03 0 0 .02.022.03.043 0 0 .007.017.002.031 0 0-.028.062-.02.133 0 0 0 .024.03.032l.06.015s.064.013.08.074c0 0 .004.025.012.043 0 0 .028.036-.057.13 0 0-.036.041-.065.032 0 0-.098-.014-.259-.174 0 0-.007-.005 0-.019 0 0 .03-.057-.002-.083 0 0-.032-.021-.079-.01 0 0-.062.018-.075-.028 0 0-.009-.024-.003-.05 0 0 .02-.09.042-.162 0 0 .008-.014-.014-.017 0 0-.029-.002-.04-.03 0 0-.003-.006 0-.012 0 0 .023-.155-.042-.32 0 0-.01-.024-.022-.013 0 0-.01.008-.007.031 0 0 .01.064-.005.084 0 0-.026.032-.021.054 0 0 .012.045.047.132 0 0 .034.07-.003.125 0 0-.012.017-.021.016 0 0-.031.003-.06.009 0 0-.013.004-.03-.008 0 0-.034-.03-.063-.03 0 0-.03.001-.029.032 0 0 .009.044-.056.099 0 0-.01.008-.018.01 0 0-.024.005-.072-.041 0 0-.005-.005 0-.018 0 0 .035-.062.045-.14 0 0 .01-.073.049-.142 0 0 .032-.055.012-.092 0 0-.03-.045-.034-.105 0 0-.004-.043-.027-.033 0 0-.045.012-.064.116 0 0 .01.05-.023.09 0 0-.028.027-.047.05 0 0-.033.047-.132.077 0 0-.055.004-.149-.034ZM31.292 58.96s-.019-.047.013-.062c0 0 .027-.01.064.021 0 0 .064.063.114.063 0 0 .143.01.217.075 0 0 .144.124.041.261 0 0-.014.026-.05.026 0 0-.083.006-.13-.037 0 0-.034-.028-.081-.086 0 0-.137-.155-.188-.262ZM32.925 55.573s-.016.011-.03-.007c0 0-.02-.025-.049-.043 0 0-.019-.007-.01-.04 0 0 .016-.068.047-.12 0 0 .02-.034.078-.042 0 0 .173-.025.312-.005 0 0 .145.019.108.118 0 0-.042.05-.058.12 0 0-.012.077-.126.15 0 0-.018.012-.019-.007 0 0 .001-.06-.025-.098 0 0-.051-.074-.227-.026ZM32.644 56.686s-.024-.013-.005-.037c0 0 .038-.045.136-.115 0 0 .053-.035.067-.087 0 0 .07-.27.338-.58 0 0 .168-.187.226-.311 0 0 .008-.02.027-.035 0 0 .09-.066.12-.062 0 0 .065.007.064.074 0 0 .007.084-.057.129l-.065.041s-.027.018-.053.054c0 0-.343.42-.397.67 0 0-.043.2-.167.276 0 0-.097.058-.234-.017ZM33.261 56.522s-.02-.012-.04.026c0 0-.056.125.045.278 0 0 .046.067.097.021 0 0 .013-.011.028-.032 0 0 .025-.037.075-.046 0 0 .04-.005.04.011 0 0 .006.046.008.085 0 0-.002.06.062.14 0 0 .082.098.116.198 0 0 .007.019-.014.031 0 0-.043.02-.112.03 0 0-.03 0-.03.02 0 0 0 .014.044.056 0 0 .01.013.027.003 0 0 .053-.03.093.01 0 0 .024.025.047.024 0 0 .027-.003.06-.01 0 0 .031-.007.05-.005 0 0 .011.004.025-.01 0 0 .021-.026.029-.06 0 0 .001-.008-.002-.012 0 0-.071-.105-.116-.2 0 0-.126-.315-.178-.356 0 0-.061-.07-.035-.134 0 0 .066-.105.076-.153 0 0 .013-.054-.023-.095 0 0-.034-.032-.013-.087 0 0 .056-.193.117-.337 0 0 .015-.022-.043-.05 0 0-.035-.015-.083.016 0 0-.094.065-.109.103 0 0-.042.155-.154.345 0 0-.009.015 0 .027 0 0 .009.014.032.024 0 0 .014.009.029-.016 0 0 .02-.035.032-.076 0 0 .004-.01.012-.013 0 0 .022-.005.03.018 0 0 .025.056-.012.158 0 0-.03.081-.046.147 0 0-.005.037-.035.041 0 0-.015.003-.022-.017 0 0-.023-.057-.044-.072 0 0-.025-.016-.063-.031Z" clip-rule="evenodd"/><path fill="#00679C" fill-rule="evenodd" d="M33.448 57.024s-.032-.015-.047.028c0 0-.007.045-.045.137 0 0-.018.038-.028.126 0 0-.01.057-.063.09 0 0-.058.031-.06.086 0 0 .006.062 0 .095 0 0 0 .008.003.014 0 0 .03.06.086.085 0 0 .042.016.059.026 0 0 .007.006.015 0 0 0 .113-.054.085-.22 0 0-.024-.105.017-.223 0 0 .031-.096.039-.172 0 0 .005-.04-.06-.072ZM33.866 56.738s-.01-.009-.002-.019c0 0 .01-.013.015-.032 0 0 .003-.012.02-.02 0 0 .052-.025.08-.044 0 0 .013-.011.034-.003 0 0 .095.03.165.082 0 0 .06.046.049.116 0 0-.02.075-.083.113 0 0-.026.016-.048.017 0 0-.052.002-.071-.028 0 0-.045-.079-.072-.111 0 0-.013-.017-.036-.028 0 0-.024-.014-.051-.043ZM34.654 54.843s-.014-.019-.005-.037c0 0 .006-.013.013-.036 0 0 .002-.009.01-.012 0 0 .072-.026.102-.04 0 0 .01-.006.022 0 0 0 .05.037.078.121 0 0 .006.014-.002.027 0 0-.04.103-.066.201 0 0-.058.215-.192.336 0 0-.023.019-.053.014 0 0-.038-.01-.043-.052 0 0 0-.025-.01-.05 0 0-.007-.007.006-.032 0 0 .12-.243.14-.307 0 0 .028-.07 0-.133ZM34.722 55.5s-.005-.033.03-.042c0 0 .048-.014.072.01 0 0 .112.083.15.414 0 0 0 .062.03.128 0 0 .048.083.086.268 0 0 .031.156.083.284 0 0 .052.11-.002.155 0 0-.033.017-.053.031 0 0-.052.039-.087.033 0 0-.034-.006-.075-.04 0 0-.056-.044-.07-.178 0 0-.007-.034.021-.076 0 0 .039-.078-.008-.175 0 0-.058-.099-.072-.289 0 0-.005-.146-.024-.208 0 0-.06-.195-.081-.315ZM35.27 54.389s-.009-.023 0-.036c0 0 .018-.028.023-.06 0 0 0-.02.023-.024 0 0 .145-.034.247-.07 0 0 .025-.007.042 0 0 0 .054.022.088.093 0 0 .009.02-.003.035 0 0-.02.02-.034.066 0 0-.03.1-.187.134 0 0-.016.004-.025-.01 0 0-.004-.007-.019-.007 0 0-.03.004-.026-.048 0 0 .003-.02-.032-.02 0 0-.07.014-.096-.053ZM34.996 55.267s-.008-.016.006-.036c0 0 .043-.069.16-.16 0 0 .057-.05.095-.117 0 0 .147-.229.268-.257 0 0 .09-.023.146.007 0 0 .028.013.046.06 0 0 .005.01-.006.02 0 0-.062.069-.169.193 0 0-.084.096-.18.122 0 0-.054.017-.102.063 0 0-.065.084-.16.148 0 0-.017.012-.035.01 0 0-.026 0-.048-.019 0 0-.013-.011-.021-.034ZM35.292 55.366s-.013-.014.01-.026c0 0 .093-.044.26-.243 0 0 .009-.015.025-.022l.065-.026s.007-.003.014.001c0 0 .039.016.068.059 0 0 .006.008-.003.017 0 0-.027.035-.058.096 0 0-.033.096-.137.16 0 0-.107.06-.13.051 0 0-.022-.008-.042-.01 0 0-.032 0-.072-.057ZM35.36 55.624s-.004-.01.004-.014c0 0 .176-.11.277-.256 0 0 .034-.049.065-.03 0 0 .029.025.053.037 0 0 .051.026.014.078 0 0-.063.09-.095.139 0 0-.094.145-.21.156 0 0-.07.005-.109-.11ZM35.341 56.265s-.004-.006.001-.012c0 0 .024-.024.041-.054 0 0 .005-.01.024-.016 0 0 .092-.031.13.016a.606.606 0 0 0 .075.166s.004.008-.004.012c0 0-.024.013-.045.032 0 0-.046.039-.069.035 0 0-.068-.013-.092-.054 0 0-.025-.038-.06-.125ZM35.466 56.047s-.026-.039-.013-.053c0 0 .057-.038.14-.158 0 0 .06-.099.092-.114 0 0 .067-.035.125-.15 0 0 .013-.029.091-.04 0 0 .11-.015.134.034 0 0 .012.027.023.058 0 0 .004.008-.002.015 0 0-.082.107-.075.26 0 0-.003.015.008.011 0 0 .058-.027.175-.037 0 0 .023-.002.036.01 0 0 .035.032.034.051 0 0-.002.013.001.02 0 0 .008.008-.003.026 0 0-.1.122-.228.2 0 0-.139.083-.188.003 0 0-.05-.095-.043-.131 0 0 .014-.048.001-.092 0 0-.009-.028-.032 0 0 0-.04.062-.118.096 0 0-.089.04-.107.036 0 0-.025-.013-.05-.045ZM39.486 54.503s-.017-.036.033-.038c0 0 .053-.005.126.005 0 0 .177.023.372-.066 0 0 .046-.023.067-.055 0 0 .007-.013.025-.016 0 0 .13-.011.154-.011 0 0 .018-.002.026.009 0 0 .016.02.042.037 0 0 .04.02.046.083 0 0 .002.02-.012.033 0 0-.075.068-.108.157 0 0-.019.048-.084.087 0 0-.12.087-.251.222 0 0-.128.134-.228.248 0 0-.01.01-.006.018 0 0 .01.016.017.037 0 0 0 .026.05.011 0 0 .113-.034.171-.101 0 0 .036-.04.106-.058 0 0 .173-.04.28.015 0 0 .066.03.06.098 0 0-.01.052-.066.128 0 0-.066.076-.148.056 0 0-.087-.024-.216.012 0 0-.356.108-.446.23 0 0-.028.037-.09.043 0 0-.382.02-.519-.142 0 0-.025-.03.013-.057 0 0 .049-.035.2-.032 0 0 .225.002.41-.136 0 0 .128-.12.126-.154 0 0-.006-.04.007-.06 0 0 .009-.013.02-.023 0 0 .053-.026.144-.223 0 0 .07-.166.108-.207 0 0 .03-.032.014-.05 0 0-.005-.006-.018 0 0 0-.33.104-.425-.1ZM42.182 54.407s.012-.013.028-.003l.045.025s.014.008.016.026c0 0 .015.087-.006.183 0 0-.003.02-.018.026 0 0-.051.016-.094.047 0 0-.014.01-.033.003l-.026-.009s-.02-.008-.041.002c0 0-.17.089-.451.144 0 0-.16.029-.204.096 0 0-.012.017.005.036 0 0 .042.041.067.034 0 0 .03-.01.07-.018 0 0 .044 0 .103-.06 0 0 .09-.088.179-.078 0 0 .04.005.06.027l.013.012s.009.006.008.02c0 0-.002.045.014.084 0 0 .007.014-.006.03 0 0-.055.093-.264.151 0 0-.086.023-.106.075l-.031.092s-.003.018-.023.036c0 0-.033.027-.023.1 0 0 .006.034.036.045 0 0 .014.005.023-.002 0 0 .04-.034.141-.06 0 0 .1-.027.138-.08 0 0 .064-.107.142-.103 0 0 .066.004.064.034 0 0-.01.047.007.074 0 0 .025.034.06.022 0 0 .212-.09.427-.033 0 0 .031.007.029.023 0 0-.003.023.012.061 0 0 .026.05-.002.135 0 0-.003.01-.013.011 0 0-.05.006-.085.068 0 0-.017.029-.007.04 0 0 .058.067.028.166 0 0-.004.017-.015.021 0 0-.104.053-.171.109 0 0-.122.077-.207.114 0 0-.01.003-.01.015 0 0 .001.04.054.057 0 0 .082.021.21.026a.364.364 0 0 0 .188.062s.01.006.01.013c0 0 .002.038-.004.065 0 0 0 .007-.008.009 0 0-.018.001-.024.024 0 0 0 .008-.013.005 0 0-.019-.004-.035-.003 0 0-.32-.009-.512-.094 0 0-.036-.018-.088-.084 0 0-.03-.04-.016-.082 0 0 .01-.032.01-.041 0 0 0-.01.017-.018 0 0 .092-.04.128-.072 0 0 .026-.023.045-.08 0 0 .004-.023.042-.038 0 0 .043-.012.073-.036 0 0 .012-.007-.002-.024 0 0-.044-.038-.003-.11 0 0 .004-.008.016-.008 0 0 .111.004.185-.163 0 0 .01-.02-.005-.044 0 0-.004-.007-.015-.005 0 0-.066.013-.141.044 0 0-.08.04-.154.008 0 0-.035-.021-.047-.05 0 0-.006-.022-.041-.026 0 0-.04-.004-.07-.015 0 0-.013-.006-.02.004 0 0-.11.115-.455.262 0 0-.01.002-.015.015 0 0-.034.11-.056.161 0 0-.006.014-.017.017 0 0-.025.008-.049.034 0 0-.032.045-.107.024 0 0-.013-.003-.015-.017 0 0 .004-.038-.055-.058 0 0-.097-.038-.192.042 0 0-.057.051-.111.068 0 0-.036.01-.071-.025 0 0-.035-.036-.053-.108 0 0-.007-.02.019-.065 0 0 .066-.138.348-.19 0 0 .164-.033.228-.062 0 0 .02-.007.026-.018 0 0 .09-.219.123-.277 0 0 .009-.014.004-.02l-.018-.04s-.003-.01-.016-.007c0 0-.104.028-.207.01 0 0-.046-.008-.095-.027 0 0-.022-.008-.02-.022 0 0 0-.018-.015-.042 0 0-.022-.028 0-.074 0 0 .005-.011.023-.018 0 0 .136-.057.257-.161 0 0 .18-.16.348-.185 0 0 .327-.061.532-.282Z" clip-rule="evenodd"/><path fill="#00679C" fill-rule="evenodd" d="M42.382 54.888s.019-.026.06-.028c0 0 .06-.003.058.014 0 0-.005.037.023.06 0 0 .036.03.086.04 0 0 .07.023.298-.12 0 0 .012-.004.004-.022 0 0-.02-.03.003-.08 0 0 .004-.01.012-.01 0 0 .11-.005.192-.017 0 0 .007-.001.015.005l.034.026s.07.043.037.117c0 0-.003.006-.013.008 0 0-.187-.004-.402.135 0 0-.047.031-.017.063 0 0 .026.02.017.06l-.011.038s-.002.013-.018.017l-.075.015s-.09.034-.26-.039c0 0-.009-.003-.011-.012 0 0-.01-.042-.064-.085 0 0-.015-.013-.015-.035 0 0-.005-.077.047-.15ZM44.766 55.931s.011-.05.058-.03c0 0 .095.066.094.107 0 0 0 .162.017.24 0 0 .03.09-.055.17 0 0-.051.045-.11.07 0 0-.078.038-.126.072 0 0-.043.028-.108.044 0 0-.107.026-.113.072 0 0-.006.032.023.063 0 0 .047.051.123-.018 0 0 .048-.052.094-.003 0 0 .059.067.01.145 0 0-.02.034-.043.032 0 0-.042-.002-.084.026 0 0-.053.033-.112-.021 0 0-.084-.082-.326-.047 0 0-.085.01-.147.042 0 0-.11.045-.328.046 0 0-.124.008-.205.03 0 0-.177.054-.387-.05 0 0-.062-.031-.115-.087 0 0-.008-.008-.01-.015 0 0-.01-.035.004-.083 0 0 .004-.015.02-.006 0 0 .036.02.07.045 0 0 .085.072.403.013 0 0 .155-.031.231-.055 0 0 .109-.03.165-.037 0 0 .017-.002.015-.016 0 0-.006-.049-.04-.056 0 0-.095-.015-.217-.108 0 0-.046-.032-.159-.148 0 0-.005-.005-.001-.012 0 0 .016-.029.023-.038 0 0 .003-.003.008-.003 0 0 .073.006.114.047 0 0 .072.081.157.115 0 0 .27.14.363.104 0 0 .078-.021.207-.108 0 0 .047-.03.107-.04 0 0 .178-.049.3-.163 0 0 .023-.022.024-.05v-.115s-.001-.025.024-.045c0 0 .025-.017.025-.052 0 0-.003-.047.007-.077ZM44.045 57.154s-.011-.027.012-.046c0 0 .026-.026.044-.014 0 0 .108.077.132.166 0 0 .017.059-.022.127 0 0-.05.08-.098.091 0 0-.044.011-.101-.03 0 0-.058-.046-.093-.1 0 0-.007-.011 0-.02l.027-.044s.005-.01.012-.007c0 0 .053.022.085-.012 0 0 .037-.031.002-.11ZM45.868 57.443s.008-.023.034-.023c0 0 .05 0 .066.048 0 0 .004.014 0 .02 0 0-.018.026-.023.042 0 0-.014.027.009.073 0 0 .033.06.048.068 0 0 .008.004.03-.002 0 0 .007-.001.007-.012 0 0 .001-.028.023-.037 0 0 .02-.01.053-.017 0 0 .033-.007.046-.042 0 0 .033-.104.074-.103 0 0 .028.001.036.084 0 0 .004.07-.023.141 0 0-.027.077.001.127 0 0 .011.02.032.03l.07.04s.048.034.088.015c0 0 .008-.004.01-.01l.002-.024s0-.007-.008-.01c0 0-.059-.02-.108-.059 0 0-.023-.018-.016-.034 0 0 .01-.025.054-.043 0 0 .015-.005.01-.017 0 0-.02-.044.011-.066 0 0 .03-.02.042-.001 0 0 .069.118.12.135 0 0 .044.013.062.034 0 0 .017.027.042.032 0 0 .072.022.195.012 0 0 .221-.016.25.074 0 0 .007.028-.014.063 0 0-.02.037-.08.036 0 0-.068-.001-.193-.032 0 0-.084-.021-.098.004 0 0-.015.03.01.076 0 0 .03.063.166.132 0 0 .014.007.024.007 0 0 .025-.002.048.03 0 0 .046.073.078.13 0 0 .013.02.007.033 0 0-.02.037-.062.068 0 0-.01.01-.028-.002 0 0-.064-.034-.168-.03h-.186s-.196.006-.301-.201c0 0-.006-.012 0-.017 0 0 .011-.013.036-.003 0 0 .078.049.176.032 0 0 .083-.024.117.028 0 0 .012.028.04.033 0 0 .097.029.195.017 0 0 .009 0 .007-.01 0 0-.003-.023-.011-.041 0 0-.05-.1-.325-.207 0 0-.216-.075-.227-.005 0 0 .005.075-.03.113 0 0-.017.02-.032.015 0 0-.026-.013-.054-.043 0 0-.01-.012-.01-.025 0 0 .016-.05-.032-.12 0 0-.011-.017-.033-.018 0 0-.1.011-.17-.067 0 0-.008-.008 0-.015l.027-.025s.006-.006.014-.004c0 0 .018.012.039.001 0 0 .065-.032.037-.068 0 0-.02-.022-.159-.048 0 0-.122-.015-.195-.13 0 0-.004-.007 0-.015 0 0 .01-.02.019-.056 0 0 .002-.01.012-.013 0 0 .047-.013.076-.03 0 0 .025-.011.043-.068ZM44.933 57.404s.06-.106.164.04c0 0 .08.177.452.383 0 0 .572.34.737.496 0 0 .06.06.075.111 0 0 .013.068-.035.101 0 0-.008.006-.018 0 0 0-.058-.024-.138-.04 0 0-.195-.033-.295-.177 0 0-.005-.006.001-.016 0 0 .03-.06.067-.038 0 0 .068.06.148.054 0 0 .008 0 .008-.007 0 0-.002-.01-.008-.025 0 0-.004-.007-.01-.01 0 0-.28-.198-.48-.271 0 0-.154-.054-.423-.204 0 0-.055-.03-.096-.038 0 0-.02-.003-.031-.022 0 0-.038-.066-.076-.12 0 0-.093-.119-.042-.217ZM45.332 58.06s.026-.025.049.005c0 0 .05.068.178.136 0 0 .16.096.35.264 0 0 .139.137.254.192 0 0 .02.006.033.024 0 0 .07.09.07.132 0 0-.005.073-.073.079 0 0-.021.001-.033.006 0 0-.015.008-.039-.012 0 0-.138-.11-.335-.201 0 0-.08-.037-.167-.146 0 0-.011-.017-.026-.018 0 0-.053-.006-.073.02 0 0-.021.025-.08.065 0 0-.039.026-.07.052 0 0-.065.054-.158.108 0 0-.036.018-.058.05 0 0-.033.059-.077.049 0 0-.069-.024-.107-.094 0 0-.037-.06-.03-.21 0 0 .012-.09-.047-.217 0 0-.07-.131-.031-.207 0 0 .027-.048.052-.017 0 0 .027.035.033.082a.2.2 0 0 0 .046.095s.045.054.06.12c0 0 .06.196.158.157 0 0 .046-.022.168-.062 0 0 .089-.024.098-.105 0 0 .003-.014-.01-.025 0 0-.075-.063-.128-.141 0 0-.078-.11-.007-.18ZM37.3 53.609s0-.045.048-.06c0 0 .032-.01.042.008 0 0 .016.03.035.042 0 0 .023.013.028.045 0 0 .03.166-.004.188 0 0-.07.044-.178.166 0 0-.12.141-.27.195 0 0-.014.005-.014-.004 0 0-.006-.04-.012-.056 0 0-.003-.006.004-.013 0 0 .105-.108.148-.203 0 0 .069-.13.137-.212 0 0 .037-.047.035-.096ZM36.9 54.72s.003-.026.025-.03c0 0 .031-.008.047.032l.025.085s.023.034.029.095c0 0 .02.167.039.267 0 0 .041.156-.133.205 0 0-.026.006-.035-.004 0 0-.065-.062-.044-.168 0 0 .018-.06.019-.122 0 0 0-.21.027-.36ZM37.176 55.284s.032-.052.06-.037c0 0 .028.02.037.076 0 0 .005.016-.005.032 0 0-.032.084-.052.19 0 0-.01.062-.031.136 0 0-.004.01.005.013 0 0 .008.004.026.003 0 0 .03-.003.062-.009 0 0 .052-.008.114-.006 0 0 .11 0 .273-.056 0 0 .154-.052.233-.096 0 0 .008-.003.006-.014 0 0-.027-.079 0-.092 0 0 .072-.03.092-.02a.768.768 0 0 0 .125.035c0-.001.054.007.079.054 0 0 .011.023.014.048 0 0 .002.007-.005.013 0 0-.025.025-.045.062 0 0-.027.063-.21.126 0 0-.431.12-.617.072 0 0-.103-.045-.165-.045 0 0-.014-.002-.02.008 0 0-.045.172-.156.254 0 0-.027.023-.063.021 0 0-.02 0-.034-.015 0 0-.012-.011-.017-.03 0 0-.022-.08-.01-.098 0 0 .034-.051.051-.095 0 0 .178-.437.253-.53Z" clip-rule="evenodd"/><path fill="#00679C" fill-rule="evenodd" d="M37.483 54.98s-.04-.041-.134-.07c0 0-.084-.026-.129-.08 0 0-.007-.007.002-.015 0 0 .082-.094.044-.244 0 0-.044-.17-.147-.208 0 0-.013-.002 0-.01 0 0 .037-.025.125-.03 0 0 .06-.002.118-.057 0 0 .161-.125.227-.192 0 0 .01-.012.02-.01 0 0 .022.007.018.014 0 0-.06.166-.089.495 0 0-.022.168-.018.28 0 0 0 .07-.02.122 0 0-.005.014-.017.005Zm.934.1c-.056-.06-.119-.093-.119-.093-.087-.044-.195.007-.195.007-.128.062-.276.25-.276.25-.032.04-.083.061-.083.061-.04.02-.09.054-.09.054-.041.022-.05.007-.05.007-.007-.01.013-.029.013-.029.107-.145.068-.211.068-.211-.06-.132 0-.396 0-.396.105-.459.1-.628.1-.628-.004-.06.013-.076.013-.076.018-.02-.024-.095-.024-.095-.007-.008-.017-.008-.017-.008-.08-.003-.165.007-.165.007-.062.007-.102.04-.102.04-.097.08-.238.19-.238.19-.038.032-.112.073-.112.073-.14.09-.12.123-.12.123.021.082.058.155.058.155.046.107.041.167.041.167-.001.07-.045.111-.045.111-.007.009-.005.018-.005.018.005.044.034.17.034.17.013.05.07.052.07.052.118.01.149.092.149.092.015.045.151-.002.151-.002.012 0 .014.018.014.018.004.044-.04.079-.04.079-.044.037-.034.06-.034.06a.739.739 0 0 1 .022.147c-.001.017.015.027.015.027.064.046.117.095.117.095a.095.095 0 0 0 .043.014c.117.008.176-.057.176-.057.162-.162.3-.403.3-.403.004-.013.016-.015.016-.015.067-.013.077.01.077.01a.308.308 0 0 1 .018.082c-.002.02.012.019.012.019a.093.093 0 0 1 .078.033c.006.01.017.007.017.007.114-.036.148-.088.148-.088.015-.016-.035-.068-.035-.068Z" clip-rule="evenodd"/><path fill="#231916" fill-rule="evenodd" d="M55.472 70.332V68.09h.304l1.179 1.762v-1.762h.284v2.243h-.304l-1.179-1.763v1.763h-.284ZM58.634 69.516c-.1.042-.25.076-.45.105a1.058 1.058 0 0 0-.24.055.237.237 0 0 0-.147.22c0 .074.028.135.084.184.055.049.136.073.243.073.107 0 .201-.023.284-.07a.43.43 0 0 0 .182-.19.667.667 0 0 0 .044-.275v-.102Zm.023.616c-.102.087-.2.148-.294.184a.852.852 0 0 1-.304.053c-.179 0-.316-.043-.412-.13a.432.432 0 0 1-.144-.335.446.446 0 0 1 .197-.376.664.664 0 0 1 .198-.091c.054-.014.136-.028.245-.041.222-.027.386-.058.491-.095l.002-.072c0-.112-.026-.192-.078-.237-.07-.063-.175-.094-.314-.094-.13 0-.225.023-.287.069-.062.045-.108.125-.137.24l-.27-.036a.663.663 0 0 1 .122-.28.53.53 0 0 1 .243-.163 1.09 1.09 0 0 1 .369-.058c.139 0 .251.016.338.05.087.032.15.073.191.123.041.049.07.111.086.187.01.047.014.132.014.254v.367c0 .256.006.419.017.486a.613.613 0 0 0 .07.195h-.288a.58.58 0 0 1-.055-.2ZM59.233 70.332v-1.625h.248v.231A.584.584 0 0 1 60 68.67c.097 0 .188.018.27.053a.423.423 0 0 1 .184.138c.041.058.07.126.086.204.01.051.015.14.015.268v1h-.275v-.99a.743.743 0 0 0-.033-.251.263.263 0 0 0-.114-.133.361.361 0 0 0-.191-.05.447.447 0 0 0-.304.112c-.085.074-.128.216-.128.424v.888h-.276ZM60.869 68.089h.275v.32h-.275v-.32Zm-.35 2.874.053-.234a.545.545 0 0 0 .13.021c.056 0 .098-.018.125-.055.028-.038.042-.13.042-.28v-1.708h.275v1.714c0 .2-.026.34-.078.418-.066.102-.176.153-.33.153a.795.795 0 0 1-.216-.03ZM61.461 68.707h.276v1.625h-.276v-1.625Zm0-.618h.276v.317h-.276v-.317ZM62.05 70.332v-1.625h.247v.231a.584.584 0 0 1 .518-.268c.098 0 .188.018.27.053a.426.426 0 0 1 .184.138c.041.058.07.126.086.204.01.051.015.14.015.268v1h-.275v-.99a.74.74 0 0 0-.032-.251.263.263 0 0 0-.114-.133.362.362 0 0 0-.192-.05.447.447 0 0 0-.304.112c-.085.074-.128.216-.128.424v.888h-.276ZM63.864 69.49c0 .214.042.37.127.468.085.097.19.146.318.146a.407.407 0 0 0 .319-.146c.085-.097.128-.25.128-.458 0-.2-.044-.35-.132-.45a.41.41 0 0 0-.32-.152.398.398 0 0 0-.312.15c-.085.099-.128.247-.128.443Zm-.228.977.268.04c.01.083.042.143.093.18a.457.457 0 0 0 .28.077.491.491 0 0 0 .296-.076.378.378 0 0 0 .14-.215c.015-.056.021-.174.02-.353a.566.566 0 0 1-.45.212.612.612 0 0 1-.519-.241.931.931 0 0 1-.183-.58c0-.156.028-.299.084-.43a.671.671 0 0 1 .244-.304.659.659 0 0 1 .376-.107c.192 0 .35.078.474.233v-.196h.254v1.405c0 .253-.025.432-.077.538a.562.562 0 0 1-.245.25.848.848 0 0 1-.412.092.78.78 0 0 1-.47-.13c-.12-.088-.177-.22-.173-.395ZM67.466 68.103h.297v1.296c0 .226-.026.405-.077.538a.656.656 0 0 1-.276.323c-.133.084-.308.125-.524.125-.21 0-.382-.036-.516-.109a.621.621 0 0 1-.286-.314c-.057-.137-.086-.325-.086-.563v-1.296h.297v1.295c0 .195.019.338.055.43a.413.413 0 0 0 .186.214c.088.05.197.075.324.075.218 0 .374-.05.467-.148.093-.1.14-.29.14-.571v-1.295ZM68.116 70.347V68.72h.248v.231a.584.584 0 0 1 .517-.267c.098 0 .188.017.27.052a.424.424 0 0 1 .184.139c.041.057.07.125.086.203.01.052.015.14.015.268v1h-.275v-.989a.745.745 0 0 0-.032-.252.266.266 0 0 0-.114-.133.446.446 0 0 0-.496.062c-.085.075-.128.216-.128.424v.888h-.275ZM69.754 68.721h.276v1.626h-.276V68.72Zm0-.618h.276v.317h-.276v-.317ZM70.794 70.347l-.618-1.626h.29l.35.974c.037.105.072.214.103.327.025-.085.059-.189.103-.309l.361-.992h.283l-.615 1.626h-.257ZM72.011 69.378h.908a.554.554 0 0 0-.104-.308.422.422 0 0 0-.341-.159.437.437 0 0 0-.32.127.502.502 0 0 0-.143.34Zm.905.445.284.036a.693.693 0 0 1-.25.387.75.75 0 0 1-.464.138c-.238 0-.427-.074-.566-.22-.139-.147-.209-.352-.209-.616 0-.274.07-.486.211-.637a.715.715 0 0 1 .548-.227c.218 0 .395.075.533.222.138.149.207.356.207.625l-.002.073h-1.212c.01.179.06.316.151.41a.45.45 0 0 0 .34.143.42.42 0 0 0 .259-.08.526.526 0 0 0 .17-.254ZM73.436 70.347V68.72h.248v.246a.673.673 0 0 1 .176-.227.306.306 0 0 1 .177-.055c.092 0 .187.03.283.088l-.095.256a.397.397 0 0 0-.202-.06.264.264 0 0 0-.162.054.296.296 0 0 0-.103.151c-.03.098-.046.205-.046.322v.85h-.276ZM74.267 69.862l.272-.043a.38.38 0 0 0 .128.25c.07.059.167.088.293.088.126 0 .22-.026.282-.077a.23.23 0 0 0 .091-.182.167.167 0 0 0-.08-.147 1.18 1.18 0 0 0-.282-.093 2.558 2.558 0 0 1-.42-.133.405.405 0 0 1-.239-.372.44.44 0 0 1 .185-.355.572.572 0 0 1 .176-.08.836.836 0 0 1 .238-.033c.127 0 .24.018.336.055a.455.455 0 0 1 .213.149.583.583 0 0 1 .095.252l-.269.036a.294.294 0 0 0-.106-.196.39.39 0 0 0-.249-.07c-.126 0-.217.021-.271.063-.054.042-.081.09-.081.147 0 .035.011.068.034.096.022.03.057.054.105.074.028.01.109.033.243.07.195.052.331.095.409.128a.412.412 0 0 1 .18.144.462.462 0 0 1-.014.495.517.517 0 0 1-.232.189.843.843 0 0 1-.343.067c-.21 0-.372-.044-.482-.132a.611.611 0 0 1-.212-.39ZM75.839 68.721h.276v1.626h-.276V68.72Zm0-.618h.276v.317h-.276v-.317ZM77.029 70.1l.04.244a1.037 1.037 0 0 1-.209.024.47.47 0 0 1-.232-.047.266.266 0 0 1-.117-.125c-.022-.052-.033-.16-.033-.325v-.935h-.202v-.215h.202v-.402l.274-.166v.568h.277v.215h-.277v.95c0 .079.005.13.014.152.01.022.026.04.048.053.022.014.053.02.094.02.03 0 .07-.004.12-.01ZM77.18 70.973l-.031-.259c.06.016.112.025.157.025.062 0 .11-.01.147-.031a.247.247 0 0 0 .09-.086c.018-.027.046-.096.085-.205l.024-.067-.617-1.628h.298l.338.94c.043.12.083.246.118.377.031-.127.069-.25.113-.37l.347-.947h.276l-.619 1.652a3.273 3.273 0 0 1-.154.37.54.54 0 0 1-.169.199.395.395 0 0 1-.226.063.55.55 0 0 1-.178-.033ZM79.793 69.52c0 .209.045.365.136.468.091.104.205.155.343.155.137 0 .25-.052.341-.156.091-.104.137-.262.137-.476 0-.2-.046-.353-.138-.456a.436.436 0 0 0-.34-.156.438.438 0 0 0-.343.155c-.09.103-.136.258-.136.466Zm-.283 0c0-.3.084-.523.25-.668.14-.12.31-.18.512-.18a.73.73 0 0 1 .548.219c.142.146.213.348.213.606 0 .21-.032.374-.094.494a.668.668 0 0 1-.274.28.8.8 0 0 1-.393.099.731.731 0 0 1-.552-.219c-.14-.146-.21-.356-.21-.63ZM81.315 70.333v-1.41h-.243v-.215h.243v-.173c0-.11.01-.19.029-.243a.35.35 0 0 1 .14-.174.504.504 0 0 1 .28-.067c.078 0 .164.01.258.028l-.041.24a.933.933 0 0 0-.163-.015c-.083 0-.143.018-.177.053-.035.036-.052.103-.052.2v.15h.317v.215h-.317v1.411h-.274ZM83.007 70.333h.297v-2.244h-.297v2.244ZM83.686 70.333v-1.625h.248v.23a.584.584 0 0 1 .517-.267c.098 0 .188.018.27.053a.423.423 0 0 1 .185.138c.04.057.069.125.085.204.01.051.016.14.016.268v1h-.276v-.99a.743.743 0 0 0-.032-.251.266.266 0 0 0-.114-.133.446.446 0 0 0-.496.062c-.085.074-.128.215-.128.424v.887h-.275ZM85.388 70.333v-1.41h-.243v-.215h.243v-.173c0-.11.01-.19.03-.243a.35.35 0 0 1 .14-.174.503.503 0 0 1 .28-.067c.078 0 .163.01.257.028l-.041.24a.932.932 0 0 0-.162-.015c-.084 0-.143.018-.178.053-.034.036-.052.103-.052.2v.15h.317v.215h-.317v1.411h-.274ZM86.267 69.52c0 .209.046.365.136.468.091.104.206.155.344.155.136 0 .25-.052.34-.156.092-.104.137-.262.137-.476 0-.2-.046-.353-.137-.456a.436.436 0 0 0-.34-.156.438.438 0 0 0-.344.155c-.09.103-.136.258-.136.466Zm-.283 0c0-.3.084-.523.251-.668.14-.12.31-.18.512-.18a.73.73 0 0 1 .547.219c.142.146.213.348.213.606 0 .21-.031.374-.094.494a.666.666 0 0 1-.274.28c-.12.066-.25.099-.392.099a.731.731 0 0 1-.552-.219c-.14-.146-.21-.356-.21-.63ZM87.72 70.333v-1.625h.248v.246a.673.673 0 0 1 .176-.228.304.304 0 0 1 .176-.055c.093 0 .188.03.284.089l-.096.255a.394.394 0 0 0-.202-.06.263.263 0 0 0-.162.055.294.294 0 0 0-.102.15c-.03.099-.046.206-.046.322v.851h-.276ZM88.66 70.333v-1.625h.247v.228a.576.576 0 0 1 .493-.265c.12 0 .219.025.296.075.077.05.131.12.163.21.129-.19.296-.285.502-.285.161 0 .285.045.372.134.087.09.13.227.13.412v1.116h-.274V69.31a.76.76 0 0 0-.027-.238.234.234 0 0 0-.097-.117.385.385 0 0 0-.45.07c-.076.076-.113.198-.113.365v.944h-.276v-1.056a.466.466 0 0 0-.067-.275c-.045-.061-.118-.092-.22-.092a.4.4 0 0 0-.215.061.345.345 0 0 0-.143.179c-.03.079-.045.192-.045.34v.843h-.275ZM92.203 69.517c-.1.041-.25.076-.45.104a1.037 1.037 0 0 0-.24.056.235.235 0 0 0-.147.22c0 .073.028.135.083.183.056.05.137.074.244.074.106 0 .2-.023.283-.07a.43.43 0 0 0 .182-.19.666.666 0 0 0 .045-.276v-.1Zm.023.616c-.102.086-.2.148-.295.184a.858.858 0 0 1-.304.053c-.178 0-.316-.044-.411-.13a.432.432 0 0 1-.144-.335.446.446 0 0 1 .196-.377.67.67 0 0 1 .199-.09 1.92 1.92 0 0 1 .245-.041c.222-.027.385-.059.49-.095l.002-.072c0-.113-.026-.192-.078-.238-.07-.062-.175-.093-.314-.093-.129 0-.225.023-.286.068-.062.046-.108.126-.137.241l-.27-.036a.666.666 0 0 1 .121-.28.528.528 0 0 1 .244-.164c.106-.038.228-.057.368-.057.14 0 .252.016.338.049.087.033.15.074.192.123.04.05.07.112.086.188.009.047.013.131.013.254v.367c0 .256.006.418.018.486a.615.615 0 0 0 .07.195h-.288a.58.58 0 0 1-.055-.2ZM93.403 70.087l.04.243a1.034 1.034 0 0 1-.208.025.468.468 0 0 1-.233-.048.265.265 0 0 1-.116-.124c-.022-.052-.033-.16-.033-.326v-.935h-.203v-.214h.203v-.403l.273-.165v.568h.277v.214h-.277v.95c0 .079.005.13.015.152.01.022.025.04.047.054.022.013.054.02.094.02a.89.89 0 0 0 .121-.011ZM93.568 68.708h.275v1.625h-.275v-1.625Zm0-.619h.275v.317h-.275v-.317ZM94.337 69.52c0 .209.045.365.136.468.09.104.205.155.343.155.136 0 .25-.052.34-.156.092-.104.137-.262.137-.476 0-.2-.045-.353-.137-.456a.436.436 0 0 0-.34-.156.438.438 0 0 0-.343.155c-.091.103-.136.258-.136.466Zm-.284 0c0-.3.084-.523.251-.668.14-.12.31-.18.511-.18a.73.73 0 0 1 .548.219c.142.146.213.348.213.606 0 .21-.031.374-.094.494a.668.668 0 0 1-.274.28.8.8 0 0 1-.392.099.731.731 0 0 1-.552-.219c-.14-.146-.21-.356-.21-.63ZM95.792 70.333v-1.625h.248v.23a.584.584 0 0 1 .517-.267c.099 0 .189.018.27.053a.423.423 0 0 1 .185.138c.04.057.07.125.086.204.01.051.015.14.015.268v1h-.275v-.99a.743.743 0 0 0-.032-.251.266.266 0 0 0-.114-.133.446.446 0 0 0-.496.062c-.086.074-.128.215-.128.424v.887h-.276ZM98.099 69.612l.28-.025a.614.614 0 0 0 .092.276c.049.072.124.13.226.175a.849.849 0 0 0 .344.066.83.83 0 0 0 .3-.05.418.418 0 0 0 .194-.139.321.321 0 0 0 .064-.192c0-.07-.021-.132-.062-.184a.45.45 0 0 0-.202-.133 3.924 3.924 0 0 0-.399-.109 2.045 2.045 0 0 1-.433-.14.608.608 0 0 1-.24-.209.511.511 0 0 1-.079-.279c0-.114.032-.22.097-.318a.596.596 0 0 1 .281-.224c.124-.051.261-.076.412-.076.166 0 .313.026.44.08a.635.635 0 0 1 .403.59l-.284.022a.46.46 0 0 0-.156-.322c-.088-.073-.218-.109-.39-.109-.18 0-.311.033-.393.099a.296.296 0 0 0-.123.238c0 .08.028.147.087.199.057.052.206.105.447.16.242.054.407.102.497.143.13.06.227.136.29.229a.559.559 0 0 1 .093.319.61.61 0 0 1-.103.338.676.676 0 0 1-.294.246 1.027 1.027 0 0 1-.433.088c-.203 0-.373-.03-.51-.09a.713.713 0 0 1-.323-.266.757.757 0 0 1-.123-.403ZM101.209 69.737l.271.035a.699.699 0 0 1-.227.439.663.663 0 0 1-.449.158.698.698 0 0 1-.537-.218c-.135-.145-.203-.354-.203-.625 0-.176.03-.33.088-.46a.605.605 0 0 1 .265-.297.788.788 0 0 1 .388-.099c.177 0 .321.045.433.134.113.09.184.216.216.38l-.268.042a.44.44 0 0 0-.135-.246.351.351 0 0 0-.235-.083.425.425 0 0 0-.338.15c-.087.099-.13.256-.13.471 0 .218.041.377.125.476.084.1.193.149.328.149a.383.383 0 0 0 .27-.1.488.488 0 0 0 .138-.306ZM101.611 68.707h.275v1.625h-.275v-1.625Zm0-.618h.275v.317h-.275v-.317ZM102.407 69.364h.908a.558.558 0 0 0-.104-.308.423.423 0 0 0-.342-.16.44.44 0 0 0-.319.128.503.503 0 0 0-.143.34Zm.905.445.284.035a.692.692 0 0 1-.249.387.75.75 0 0 1-.465.138c-.238 0-.426-.073-.566-.22-.139-.146-.209-.351-.209-.615 0-.274.071-.486.211-.637a.716.716 0 0 1 .548-.227c.218 0 .395.074.533.222.138.148.206.356.206.625l-.001.073h-1.212c.01.179.06.316.151.41a.451.451 0 0 0 .34.143.422.422 0 0 0 .259-.08.53.53 0 0 0 .17-.254ZM103.836 70.332v-1.625h.248v.231a.582.582 0 0 1 .517-.268c.098 0 .188.018.27.053a.419.419 0 0 1 .184.138c.041.058.07.126.086.204.01.051.015.14.015.268v1h-.275v-.99a.754.754 0 0 0-.032-.251.27.27 0 0 0-.114-.133.446.446 0 0 0-.496.062c-.085.074-.128.216-.128.424v.888h-.275ZM106.533 69.737l.271.035a.704.704 0 0 1-.227.439.664.664 0 0 1-.45.158.697.697 0 0 1-.536-.218c-.135-.145-.203-.354-.203-.625 0-.176.029-.33.087-.46a.611.611 0 0 1 .266-.297.788.788 0 0 1 .388-.099c.176 0 .321.045.433.134.112.09.184.216.216.38l-.268.042a.446.446 0 0 0-.135-.246.353.353 0 0 0-.235-.083.429.429 0 0 0-.339.15c-.086.099-.13.256-.13.471 0 .218.042.377.126.476.083.1.193.149.328.149a.383.383 0 0 0 .27-.1.488.488 0 0 0 .138-.306ZM107.141 69.364h.908a.558.558 0 0 0-.104-.308.423.423 0 0 0-.342-.16.437.437 0 0 0-.319.128.503.503 0 0 0-.143.34Zm.905.445.284.035a.697.697 0 0 1-.249.387.75.75 0 0 1-.465.138c-.238 0-.426-.073-.566-.22-.139-.146-.209-.351-.209-.615 0-.274.071-.486.211-.637a.716.716 0 0 1 .548-.227c.218 0 .395.074.533.222.138.148.206.356.206.625l-.001.073h-1.212c.01.179.06.316.151.41a.451.451 0 0 0 .34.143.422.422 0 0 0 .259-.08.53.53 0 0 0 .17-.254ZM110.119 68.891a.731.731 0 0 0 .232-.185.313.313 0 0 0 .053-.176.255.255 0 0 0-.073-.187.245.245 0 0 0-.181-.073.255.255 0 0 0-.186.072.233.233 0 0 0-.074.176c0 .035.008.071.026.11a.575.575 0 0 0 .081.121l.122.142Zm.387.952-.505-.626a.967.967 0 0 0-.301.248.4.4 0 0 0-.078.225c0 .091.036.186.108.283a.36.36 0 0 0 .308.148.507.507 0 0 0 .256-.078.614.614 0 0 0 .212-.2Zm.173.218a.941.941 0 0 1-.297.227.802.802 0 0 1-.347.076.688.688 0 0 1-.547-.233.633.633 0 0 1-.163-.424c0-.138.044-.264.134-.375.089-.112.222-.21.4-.295a1.36 1.36 0 0 1-.202-.283.466.466 0 0 1 .108-.56c.106-.1.238-.15.398-.15.154 0 .279.047.376.14a.45.45 0 0 1 .146.339c0 .213-.141.395-.423.546l.402.513c.046-.09.081-.194.107-.313l.286.062a1.553 1.553 0 0 1-.199.483c.103.137.22.252.351.345l-.186.219a1.62 1.62 0 0 1-.344-.317ZM112.942 70.332v-1.978h-.739v-.265h1.778v.264h-.742v1.98h-.297ZM114.005 69.364h.908a.558.558 0 0 0-.105-.308.42.42 0 0 0-.341-.16.436.436 0 0 0-.319.128.503.503 0 0 0-.143.34Zm.905.445.284.035a.697.697 0 0 1-.249.387.753.753 0 0 1-.466.138c-.237 0-.426-.073-.565-.22-.139-.146-.209-.351-.209-.615 0-.274.071-.486.211-.637a.716.716 0 0 1 .548-.227c.218 0 .395.074.533.222.138.148.206.356.206.625l-.001.073h-1.212c.01.179.06.316.151.41a.451.451 0 0 0 .34.143.422.422 0 0 0 .259-.08.53.53 0 0 0 .17-.254ZM116.494 69.737l.271.035a.704.704 0 0 1-.227.439.664.664 0 0 1-.45.158.697.697 0 0 1-.536-.218c-.135-.145-.203-.354-.203-.625 0-.176.029-.33.088-.46a.605.605 0 0 1 .265-.297.788.788 0 0 1 .388-.099c.177 0 .321.045.433.134.112.09.184.216.216.38l-.268.042a.44.44 0 0 0-.135-.246.351.351 0 0 0-.235-.083.425.425 0 0 0-.338.15c-.087.099-.131.256-.131.471 0 .218.042.377.126.476.084.1.193.149.328.149a.387.387 0 0 0 .271-.1.493.493 0 0 0 .137-.306ZM116.894 70.332V68.09h.276v.805a.613.613 0 0 1 .486-.224c.121 0 .225.024.314.072a.42.42 0 0 1 .191.196.912.912 0 0 1 .057.364v1.03h-.275v-1.03c0-.137-.03-.238-.09-.3a.333.333 0 0 0-.253-.094.447.447 0 0 0-.231.063.353.353 0 0 0-.153.172.782.782 0 0 0-.046.3v.89h-.276ZM118.531 70.332v-1.625h.248v.231a.584.584 0 0 1 .517-.268c.098 0 .188.018.27.053a.422.422 0 0 1 .185.138.54.54 0 0 1 .085.204c.01.051.016.14.016.268v1h-.276v-.99a.754.754 0 0 0-.032-.251.26.26 0 0 0-.114-.133.363.363 0 0 0-.192-.05.448.448 0 0 0-.304.112c-.085.074-.128.216-.128.424v.888h-.275ZM120.348 69.52c0 .208.045.364.136.467a.437.437 0 0 0 .343.156.432.432 0 0 0 .341-.156c.091-.105.137-.263.137-.476 0-.202-.046-.354-.137-.457a.437.437 0 0 0-.341-.156.44.44 0 0 0-.343.155c-.091.103-.136.259-.136.467Zm-.283 0c0-.301.084-.524.251-.67.14-.12.31-.18.511-.18a.73.73 0 0 1 .548.22c.142.146.213.349.213.607 0 .209-.031.374-.094.493a.667.667 0 0 1-.274.28.798.798 0 0 1-.393.1.732.732 0 0 1-.552-.22c-.14-.146-.21-.356-.21-.63ZM121.798 70.332h.276V68.09h-.276v2.243ZM122.575 69.52c0 .208.045.364.136.467a.436.436 0 0 0 .343.156c.136 0 .25-.052.341-.156.091-.105.136-.263.136-.476 0-.202-.045-.354-.137-.457a.435.435 0 0 0-.34-.156.438.438 0 0 0-.343.155c-.091.103-.136.259-.136.467Zm-.284 0c0-.301.084-.524.251-.67.14-.12.31-.18.512-.18.223 0 .406.074.548.22.141.146.212.349.212.607 0 .209-.031.374-.094.493a.667.667 0 0 1-.274.28c-.12.066-.25.1-.392.1a.73.73 0 0 1-.552-.22c-.14-.146-.211-.356-.211-.63ZM124.208 69.49c0 .214.042.37.127.468a.404.404 0 0 0 .318.146.407.407 0 0 0 .319-.146c.085-.097.128-.25.128-.458 0-.2-.044-.35-.132-.45a.41.41 0 0 0-.319-.152.396.396 0 0 0-.312.15c-.086.099-.129.247-.129.443Zm-.228.977.268.04c.011.083.042.143.093.18a.457.457 0 0 0 .28.077.493.493 0 0 0 .296-.076.375.375 0 0 0 .14-.215c.015-.056.021-.174.02-.353a.565.565 0 0 1-.45.212.611.611 0 0 1-.518-.241.928.928 0 0 1-.184-.58c0-.156.028-.299.084-.43a.676.676 0 0 1 .244-.304.66.66 0 0 1 .376-.107.58.58 0 0 1 .474.233v-.196h.254v1.405c0 .253-.025.432-.077.538a.56.56 0 0 1-.245.25.845.845 0 0 1-.412.092.778.778 0 0 1-.47-.13c-.119-.088-.177-.22-.173-.395ZM125.655 70.959l-.031-.26a.627.627 0 0 0 .158.025c.061 0 .11-.01.147-.03a.243.243 0 0 0 .09-.086c.018-.028.046-.096.084-.205l.025-.067-.617-1.629h.297l.338.941c.044.12.084.245.118.377.032-.127.069-.25.114-.37l.347-.948H127l-.618 1.653a3.366 3.366 0 0 1-.154.369.557.557 0 0 1-.169.2.396.396 0 0 1-.226.063.551.551 0 0 1-.178-.034ZM55.95 61.104s-.125-.348.294-.429c0 0 .044-.006.085-.026 0 0 .206-.077.563-.043 0 0 .454.041.904-.266 0 0 .554-.397.858-.685 0 0 .326-.385.375-1.005 0 0 .026-.222.085-.526 0 0 .038-.19.022-.532 0 0-.054-.314.073-.548 0 0 .133-.275.607-.235 0 0 .49.045.954 1.09 0 0 .087.175.043.485 0 0-.056.262.136.339 0 0 .292.07.297.232 0 0 .004.077-.086.156 0 0-.13.115-.262.384 0 0-.069.166-.535.197 0 0-.215-.017-.536.45 0 0-.156.245-.39.455 0 0-.366.325-.574.638 0 0-.057.071.016.084 0 0 .072.004.133-.06 0 0 .193-.227.612-.415 0 0 .968-.43 1.582-.815 0 0 .188-.123.327-.144 0 0 .157-.026.264-.1 0 0 .047-.039.187-.044 0 0 .398-.017.482.063 0 0 .432.422.332.705 0 0-.023.068-.09.138 0 0-.098.082-.11.396 0 0-.071.927-.389 2.128 0 0-.137.468-.169 1.019 0 0-.006.407-.231.939 0 0-.088.196-.113.721 0 0 0 .9-.726.969 0 0-.257.012-.438-.213 0 0-.342-.428-.952-.643 0 0-.434-.154-.72-.597 0 0-.11-.186-.046-.29 0 0 .06-.094.21-.015 0 0 .415.207.8.497 0 0 .326.225.592.262 0 0 .397.067.383-.203 0 0-.08-2.178.313-3.067 0 0 .3-.822.425-1.21 0 0 .28-.77.289-.967 0 0 .005-.21-.126-.17 0 0-.363.11-1.238.754 0 0-.594.438-1.038.648 0 0-.141.077-.171.173 0 0-.032.073.054.073 0 0 .47.052.471.48 0 0 .04.15-.432.39 0 0-.5.255-.763.668 0 0-.038.05.004.063 0 0 .118.043.21.179 0 0 .114.155.026.249 0 0-.075.088-.1.197 0 0-.003.14-.4.22 0 0-.182.043-.173.259 0 0 .003.069.042.07 0 0 .02.008.061-.044 0 0 .183-.21.237-.258 0 0 .065-.07.166-.064l.176.016s.053-.002.079.047c0 0 .076.137.076.233 0 0-.006.12-.037.208 0 0-.025.074-.08.1 0 0-.253.102-.432.333 0 0-.06.074.002.179 0 0 .062.103.137.214 0 0 .152.215.024.437 0 0-.055.086-.083.163 0 0-.017.183-.53.222 0 0-.221.02-.28-.088 0 0-.25-.313-.275-1.233 0 0-.008-.033.05-.056 0 0 .253-.084.23-.25 0 0-.038-.153-.206-.247 0 0-.232-.122-.143-.293 0 0 .042-.098.134-.158 0 0 .309-.208.574-.357 0 0 .06-.02.006-.09 0 0-.081-.085-.038-.202 0 0 .01-.024.034-.036 0 0 .5-.39.772-1.057 0 0 .038-.093-.03-.097 0 0-.051-.005-.108.072 0 0-.148.217-.248.234 0 0-.165.02-.21.098 0 0-.09.167-.231.517 0 0-.097.307-.357.36 0 0-.083.02-.108-.01 0 0-.099-.077-.197-.138 0 0-.053-.027-.068-.11 0 0-.015-.183-.106-.263 0 0-.085-.08-.172.014 0 0-.097.154-.442.132 0 0-.051-.004-.078-.019 0 0-.086-.055-.097-.32 0 0-.004-.032.046-.054 0 0 .278-.085.527-.289 0 0 .231-.183.537-.279 0 0 .25-.072.294-.236 0 0 .036-.219.192-.402 0 0 .109-.14.015-.174 0 0-.168-.089-.511.162 0 0-.114.175-.32.197 0 0-.158.004-.277.019 0 0-.23.048-.605-.14 0 0-.171-.142-.342-.515ZM55.662 63.685s.073-.19.21-.144c0 0 .105.048.126.24 0 0 .015.362.162.503 0 0 .394.428.425.826 0 0 .078.766-.606.882 0 0-.11.036-.219-.065 0 0-.26-.213-.276-.467 0 0-.025-.181 0-.482 0 0 .032-.839.178-1.293ZM68.668 58.116s-.083 0-.09-.097c0 0-.007-.126-.065-.253 0 0-.048-.066.05-.157 0 0 .212-.193.436-.3 0 0 .139-.07.354.032 0 0 .641.304 1.068.684 0 0 .449.39.1.642 0 0-.256.075-.463.275 0 0-.217.233-.764.221 0 0-.09.002-.048-.063 0 0 .136-.2.131-.387 0 0-.005-.364-.71-.597ZM65.217 61.245s-.051-.097.066-.136c0 0 .23-.066.719-.083 0 0 .26 0 .422-.143 0 0 .843-.755 2.445-1.202 0 0 .989-.257 1.463-.547 0 0 .072-.052.169-.056 0 0 .452-.022.543.058 0 0 .207.17.053.394 0 0-.166.299-.483.306 0 0-.199 0-.314-.003 0 0-.129-.002-.298.061 0 0-2.103.655-2.847 1.38 0 0-.594.578-1.185.556 0 0-.457-.024-.753-.585ZM67.676 62.077s-.041-.086-.194 0c0 0-.47.294-.474 1.037 0 0 .005.33.282.292 0 0 .068-.01.166-.047 0 0 .17-.068.356.01 0 0 .15.079.112.132 0 0-.085.167-.165.3 0 0-.139.198-.105.615 0 0 .059.516-.05.931 0 0-.019.079-.12.071 0 0-.189-.025-.44-.15 0 0-.108-.069-.15 0 0 0-.034.046.023.291 0 0 .007.067.084.07 0 0 .244.019.295.24 0 0 .021.142.105.188 0 0 .097.05.222.103 0 0 .123.046.18.093 0 0 .032.038.106.024 0 0 .133-.042.234-.14 0 0 .022-.02.02-.043 0 0-.003-.516.06-.939 0 0 .279-1.348.194-1.604 0 0-.048-.374.185-.53 0 0 .456-.207.598-.345 0 0 .164-.154.135-.376 0 0-.04-.182.153-.32 0 0 .62-.528 1.15-.878 0 0 .102-.041-.034-.265 0 0-.081-.131-.314-.131 0 0-.466.005-.6.102 0 0-.49.428-1.296.821 0 0-.062.03-.064.092 0 0 .004.065.06.153 0 0 .026.06.132.01 0 0 .147-.074.28-.185 0 0 .037-.028.07-.015a.1.1 0 0 0 .058.126s-.04.246-.394.508c0 0-.284.204-.484.394 0 0-.098.113-.213.06 0 0-.056-.025-.037-.107 0 0 .05-.245.016-.345 0 0-.049-.108-.142-.243Z" clip-rule="evenodd"/><path fill="#231916" fill-rule="evenodd" d="M67.18 64.195s-.075-.123-.222-.012c0 0-.124.136-.46.362 0 0-.146.088-.377.362 0 0-.163.169-.415.166 0 0-.268-.027-.397.153 0 0-.117.223-.21.323 0 0-.02.024-.023.056 0 0-.033.27.1.477 0 0 .105.149.14.22 0 0 .011.036.05.034 0 0 .505.073.782-.549 0 0 .155-.413.559-.72 0 0 .32-.256.517-.496 0 0 .108-.125-.044-.376ZM69.234 64.162s-.012-.051.035-.067c0 0 .067-.021.123-.075 0 0 .036-.033.115-.02 0 0 .23.031.37.03 0 0 .068-.01.121.063 0 0 .249.316.37.65 0 0 .104.291-.093.499 0 0-.235.21-.533.198 0 0-.124-.007-.201-.052 0 0-.18-.106-.178-.253 0 0 .024-.369.007-.536 0 0-.008-.086-.06-.176 0 0-.051-.1-.076-.26ZM75.12 58.552s-.022-.088.034-.142c0 0 .043-.04.102-.113 0 0 .017-.03.053-.028 0 0 .3.006.431 0 0 0 .047-.005.078.033 0 0 .133.207.11.555 0 0 .004.06-.045.094 0 0-.292.321-.534.639 0 0-.523.703-1.187.948 0 0-.111.038-.212-.025 0 0-.127-.088-.082-.251 0 0 .037-.092.037-.193 0 0-.017-.04.067-.11 0 0 .79-.717.953-.924 0 0 .204-.209.195-.483ZM74.415 61.05s.029-.128.168-.11c0 0 .2.019.25.142 0 0 .289.466-.05 1.728 0 0-.087.228-.08.513 0 0 .058.372-.072 1.103 0 0-.11.616-.105 1.16 0 0 .03.474-.234.56 0 0-.144.015-.238.039 0 0-.245.065-.364-.006 0 0-.117-.071-.219-.257 0 0-.139-.242.004-.749 0 0 .023-.136.187-.249 0 0 .255-.23.223-.65 0 0-.069-.446.155-1.16 0 0 .195-.542.216-.794 0 0 .063-.798.159-1.27ZM78.03 57.785s0-.096.048-.134c0 0 .11-.074.173-.182 0 0 .03-.072.119-.054 0 0 .579.086 1.001.104 0 0 .105.008.155.059 0 0 .166.158.187.468 0 0 .004.081-.06.123 0 0-.1.044-.22.188 0 0-.253.324-.877.223 0 0-.064-.01-.08-.072 0 0-.004-.034-.057-.054 0 0-.114-.032-.027-.216 0 0 .044-.07-.085-.118 0 0-.277-.051-.277-.335ZM75.753 60.596s-.003-.07.074-.121c0 0 .258-.19.817-.355 0 0 .281-.096.52-.289 0 0 .867-.623 1.35-.552 0 0 .361.048.523.237 0 0 .084.09.079.289 0 0 .005.04-.048.063 0 0-.328.162-.898.461 0 0-.447.227-.833.184 0 0-.224-.018-.465.083 0 0-.36.211-.798.31 0 0-.082.02-.144-.014 0 0-.097-.04-.148-.14 0 0-.03-.06-.029-.156ZM76.692 61.387s-.026-.072.075-.08c0 0 .404-.026 1.298-.512 0 0 .058-.041.126-.044h.274s.031 0 .053.024c0 0 .117.114.16.314 0 0 .01.039-.033.059 0 0-.15.086-.35.267 0 0-.262.303-.731.382 0 0-.48.065-.554 0 0 0-.065-.061-.135-.1 0 0-.117-.047-.183-.31ZM76.565 62.427s.002-.038.036-.044c0 0 .804-.15 1.385-.536 0 0 .194-.127.28-.01 0 0 .069.13.14.209 0 0 .15.17-.062.305 0 0-.358.236-.546.368 0 0-.555.395-.993.267 0 0-.264-.084-.24-.56ZM75.569 64.742s-.003-.028.022-.042c0 0 .12-.052.227-.137 0 0 .034-.032.112-.026 0 0 .38.022.447.247 0 0 .062.255.038.655 0 0-.002.037 0 .062 0 0 0 .035-.034.039 0 0-.107.01-.212.05 0 0-.224.075-.298.027 0 0-.231-.146-.262-.331 0 0-.035-.173-.04-.544ZM76.343 64.127s-.04-.178.027-.21c0 0 .263-.059.74-.38 0 0 .362-.272.5-.28 0 0 .3-.033.677-.37 0 0 .088-.084.393-.013 0 0 .42.104.436.319 0 0 .005.119 0 .246 0 0 .005.037-.026.051 0 0-.455.273-.653.839 0 0-.03.055.015.056 0 0 .248-.016.692.117 0 0 .086.028.116.087 0 0 .082.171.048.239 0 0-.022.042-.022.073 0 0 .02.041-.049.09 0 0-.544.301-1.121.402 0 0-.628.101-.693-.263 0 0-.043-.418.033-.541 0 0 .12-.156.137-.332 0 0 .008-.117-.118-.047 0 0-.232.168-.571.178 0 0-.382.018-.44-.023 0 0-.074-.084-.121-.238ZM93.74 59.654s-.06-.151.145-.146c0 0 .22-.004.517.061 0 0 .715.149 1.54-.157 0 0 .199-.077.29-.204 0 0 .034-.05.109-.057 0 0 .534-.005.633 0 0 0 .073 0 .105.046 0 0 .06.089.162.163 0 0 .152.094.161.357 0 0 .002.084-.058.13 0 0-.328.257-.49.611 0 0-.094.19-.373.329 0 0-.518.319-1.096.832 0 0-.563.508-1.007.945 0 0-.044.039-.029.072 0 0 .036.069.054.156 0 0-.007.109.202.06 0 0 .475-.103.733-.362 0 0 .16-.156.453-.204 0 0 .717-.112 1.138.147 0 0 .264.146.215.418 0 0-.058.212-.307.506 0 0-.295.29-.621.185 0 0-.352-.126-.89-.018 0 0-1.49.333-1.895.803 0 0-.127.143-.384.148 0 0-1.566-.037-2.08-.74 0 0-.092-.132.07-.229 0 0 .212-.13.832-.067 0 0 .919.075 1.717-.434 0 0 .56-.453.564-.59 0 0-.013-.163.046-.246 0 0 .04-.05.091-.085 0 0 .222-.092.655-.869 0 0 .342-.659.508-.812 0 0 .132-.123.072-.204 0 0-.02-.023-.075 0 0 0-1.383.321-1.708-.545ZM103.395 57.964s.024-.064.095-.048c0 0 .114.025.198.036 0 0 .061.008.091.073 0 0 .167.3.214.676 0 0 .016.08-.035.119 0 0-.164.127-.282.294 0 0-.037.056-.117.052h-.105s-.085 0-.151.06c0 0-.509.544-1.468 1.105 0 0-.545.31-.621.61 0 0-.024.078.064.125 0 0 .204.1.286.04 0 0 .098-.077.235-.154 0 0 .162-.058.301-.352 0 0 .215-.436.554-.513 0 0 .157-.033.257.02 0 0 .037.021.061.03 0 0 .04.01.053.061 0 0 .052.169.16.291 0 0 .043.042.016.118 0 0-.079.41-.773.89 0 0-.284.194-.291.409 0 0 .004.242.004.377 0 0 .012.069-.041.16 0 0-.084.143.048.399 0 0 .064.113.186.116 0 0 .058 0 .082-.038 0 0 .106-.176.441-.4 0 0 .332-.224.402-.467 0 0 .096-.475.39-.559 0 0 .245-.072.277.04 0 0 .025.188.12.264 0 0 .136.091.248.005 0 0 .663-.598 1.52-.667 0 0 .125-.015.136.045 0 0 .019.089.121.212 0 0 .161.147.165.494 0 0 .006.042-.03.058 0 0-.181.085-.226.355 0 0-.026.129.024.154 0 0 .3.175.317.575 0 0 .006.066-.029.096 0 0-.312.327-.489.616 0 0-.343.441-.611.683 0 0-.033.027-.017.069 0 0 .058.147.273.14 0 0 .326-.03.8-.176 0 0 .266-.08.487-.053 0 0 .219.028.28.04 0 0 .046.01.053.036 0 0 .058.136.072.243 0 0 .008.027-.022.043 0 0-.061.028-.055.12 0 0 .009.027-.04.032 0 0-.075.011-.134.035 0 0-1.18.379-1.993.31 0 0-.157-.018-.432-.192 0 0-.161-.112-.161-.282 0 0-.005-.13-.014-.164 0 0-.013-.036.038-.085 0 0 .284-.269.375-.428 0 0 .065-.12.062-.352 0 0-.014-.085.105-.19 0 0 .141-.102.222-.226 0 0 .036-.042-.037-.088 0 0-.212-.08-.152-.394 0 0 .004-.037.048-.054 0 0 .412-.127.47-.835 0 0 .009-.084-.075-.152 0 0-.026-.022-.062 0 0 0-.227.133-.461.343 0 0-.24.245-.553.226 0 0-.155-.034-.235-.123 0 0-.052-.072-.186-.042 0 0-.153.037-.274.033 0 0-.053-.004-.067.042 0 0-.259.56-1.332 1.539 0 0-.037.022-.034.076 0 0 .016.446.001.661 0 0-.005.056-.043.082 0 0-.079.063-.135.19 0 0-.061.204-.36.223 0 0-.055.005-.077-.044 0 0-.034-.145-.276-.14 0 0-.403-.015-.648.398 0 0-.145.26-.323.39 0 0-.119.08-.291 0 0 0-.175-.086-.331-.327 0 0-.052-.067-.014-.264 0 0 .067-.589 1.03-1.137 0 0 .558-.332.757-.52 0 0 .063-.054.072-.101 0 0 .047-.914.098-1.17 0 0 .012-.062-.012-.083 0 0-.081-.08-.118-.12 0 0-.023-.033-.066-.005 0 0-.345.236-.746.3 0 0-.18.03-.383.023 0 0-.093 0-.103-.053 0 0-.02-.067-.107-.134 0 0-.114-.076-.093-.273 0 0 0-.047.059-.096 0 0 .425-.382.734-.917 0 0 .458-.82 1.041-1.123 0 0 1.119-.641 1.588-1.711Z" clip-rule="evenodd"/><path fill="#231916" fill-rule="evenodd" d="M104.738 59.468s.038-.12.188-.18c0 0 .211-.087.227-.023 0 0 .03.146.162.193 0 0 .17.06.365.033 0 0 .285-.004.939-.815 0 0 .039-.034-.012-.088 0 0-.111-.088-.093-.295 0 0 .002-.045.032-.053 0 0 .394-.16.68-.31 0 0 .027-.013.063 0 0 0 .06.023.157.053 0 0 .315.067.283.378 0 0 0 .028-.035.047 0 0-.688.225-1.297 1.008 0 0-.136.176.013.251 0 0 .125.042.142.203 0 0 .007.096.008.152 0 0 .009.047-.044.084 0 0-.141.076-.257.15 0 0-.286.24-.998.19 0 0-.038 0-.06-.03 0 0-.09-.139-.34-.23 0 0-.075-.029-.101-.106 0 0-.117-.28-.022-.612ZM113.478 58.199s-.093-.184.102-.24c0 0 .455-.048.558.08 0 0 .416.492.669.68 0 0 .322.201.273.66 0 0-.041.266-.151.495 0 0-.143.315-.2.54 0 0-.058.196-.211.41 0 0-.259.356-.159.51 0 0 .065.112.232.13 0 0 .273.036.324-.37 0 0 .012-.279.277-.25 0 0 .351.051.406.412 0 0 .027.152-.048.207 0 0-.133.105-.187.298 0 0-.075.233-.393.222 0 0-.465-.03-1.108.696 0 0-.235.25-.339.508 0 0-.214.416-.872.98 0 0-.356.346-.542.622 0 0-.397.617-1.302.843 0 0-.266.064-.572.034 0 0-.044-.002-.068-.02 0 0-.119-.081-.204-.262 0 0-.026-.056.045-.068 0 0 .162-.035.329-.045 0 0 .443 0 1.254-.998 0 0 .388-.493.559-.762 0 0 .252-.367.404-.535 0 0 .043-.051.002-.09 0 0-.142-.13-.267-.064 0 0-.323.2-.932.232 0 0-.222.02-.862-.04 0 0-.028-.002-.034-.033 0 0-.026-.129-.028-.174 0 0-.001-.018.017-.032 0 0 .235-.169.464-.149 0 0 .429.06.773-.058 0 0 1.176-.267 1.367-.618 0 0 .18-.265.347-.86 0 0 .068-.21.218-.397 0 0 .416-.605.495-1.265 0 0 .009-.128-.058-.21 0 0-.193-.22-.301-.349 0 0-.065-.075-.039-.2 0 0 .029-.115-.06-.221 0 0-.127-.134-.178-.25ZM114.446 63.754s-.104-.055-.084-.171c0 0 .013-.143.1-.158 0 0 .523-.044.823.165 0 0 .207.135.262.442 0 0 .056.374-.061.529 0 0-.105.145-.386.166 0 0-.293.01-.533-.06 0 0-.054-.017-.058-.062 0 0-.022-.166-.029-.203 0 0-.01-.04.02-.053 0 0 .215-.068.226-.255 0 0 .031-.189-.28-.34ZM120.386 60.195s-.065-.087 0-.183c0 0 .123-.189.343-.127 0 0 .06.02.073.049 0 0 .056.134.1.19 0 0 .068.12.296.151 0 0 .308.027.371-.01 0 0 .035-.02.067-.116 0 0 .015-.03-.023-.056 0 0-.103-.075-.085-.179 0 0 .012-.1.071-.242 0 0 .057-.14-.043-.275 0 0-.302-.38-.196-.533 0 0 .073-.102.403.076 0 0 .273.163.468.44 0 0 .221.29.477.311 0 0 .099.008.191-.044 0 0 .194-.1.326-.16 0 0 .244-.094.273-.292 0 0 .007-.04-.012-.06 0 0-.041-.04-.085-.068 0 0-.028-.016-.056.001 0 0-.225.17-.492.259 0 0-.125.042-.168-.027 0 0-.066-.096-.023-.31 0 0 .017-.064-.042-.075 0 0-.21-.039-.214-.21 0 0-.004-.16.099-.158 0 0 .611.037.802-.109 0 0 .16-.134.281-.148 0 0 .144.005.227-.078 0 0 .26-.21.53-.695 0 0 .496-.863.899-.747 0 0 .125.047.204.21 0 0 .087.167-.07.388 0 0-.172.25-.597.64 0 0-.29.259-.231.375 0 0 .072.13.305.152 0 0 .31.048.909-.29 0 0 .063-.035.087-.073 0 0 .056-.097.233-.1 0 0 .383.01.678.033 0 0 .105-.001.14.057 0 0 .088.169.097.399 0 0 .011.064-.076.1 0 0-.284.153-.533.548 0 0-.246.378-.463.695 0 0-.464.747-1.502.62 0 0-.059-.007-.061-.037 0 0-.022-.08.078-.147 0 0 .375-.167.56-.573 0 0 .115-.37.394-.367 0 0 .136.023.228-.071 0 0 .346-.285.549-.68 0 0 .022-.033-.019-.053 0 0-.096-.046-.186-.06 0 0-.49-.065-1.581.694 0 0-.818.62-.587.834 0 0 .293.167.346.395 0 0 .034.114-.023.152 0 0-.114.067-.292.098 0 0-.07.007-.117-.029 0 0-.146-.181-.526-.176 0 0-.095 0-.155.075 0 0-.206.402-.672.466 0 0-.053.013-.058-.031l-.025-.166s-.009-.038.022-.063c0 0 .088-.04.099-.141 0 0 .044-.323-.159-.31 0 0-.135.017-.578.471 0 0-.36.418-.97.404 0 0-.039-.004-.059-.035 0 0-.047-.084-.161-.21 0 0-.034-.034-.017-.078 0 0 .068-.211.077-.359 0 0 .021-.122-.146-.332ZM117.905 63.583s-.246-.484.556-.51c0 0 .858.147 2.559-.727 0 0 2.702-1.284 3.692-1.512 0 0 .374-.075.602 0 0 0 .282.12.286.383 0 0 .003.041-.042.067 0 0-.236.155-.494.414 0 0-.611.644-1.399.658 0 0-.033.001-.057-.044 0 0-.148-.264.027-.346 0 0 .393-.102.571-.416 0 0 .022-.028-.007-.048 0 0-.04-.018-.113-.03 0 0-.037-.005-.065.013 0 0-1.432.547-2.208 1.109 0 0-.584.441-1.817 1.068 0 0-.247.13-.381.266 0 0-.062.065-.159.06 0 0-.339-.025-.635-.02 0 0-.677.052-.916-.385ZM121.35 63.737s-.029-.16.135-.171c0 0 .38-.014.955-.322 0 0 .755-.356 1.857-.646 0 0 .859-.176 1.353-.47 0 0 .074-.062.169-.065 0 0 .513-.037.667.07 0 0 .264.2.114.47 0 0-.048.081-.057.14 0 0-.009.075-.144.111 0 0-.754.245-1.587.75 0 0-.338.208-.962.257 0 0-.09 0-.133.055 0 0-.154.183-.11.32 0 0 .042.141.044.462 0 0 .003.21.018.392 0 0 .042.374.01.859 0 0-.021.175.043.341 0 0 .135.269-.01.407 0 0-.261.197-.617.163 0 0-.313-.007-.855-.41 0 0-.31-.27-.93-.37 0 0-.666-.064-.851-.398 0 0-.112-.223.066-.24 0 0 .2-.01.388.085 0 0 .175.092.472.063 0 0 .311-.03.592.078 0 0 .886.263.985-.197 0 0 .031-.227.187-.78 0 0 .134-.392-.147-.63 0 0-.044-.045-.119-.023 0 0-.422.12-.845.123 0 0-.6.017-.688-.424ZM85.436 57.341s.037-.172.237-.192c0 0 .13-.017.156.063 0 0 .036.126.101.192 0 0 .078.067.072.193 0 0-.018.664-.163.722 0 0-.304.111-.815.5 0 0-.57.45-1.19.54 0 0-.06.008-.054-.028 0 0 .01-.161 0-.223 0 0-.01-.026.025-.05 0 0 .488-.334.73-.664 0 0 .363-.444.691-.711 0 0 .179-.15.21-.342ZM83.03 61.308s.033-.095.12-.094c0 0 .128-.008.157.16 0 0 .017.246.03.345 0 0 .062.15.037.392 0 0-.049.656-.058 1.058 0 0 .038.632-.67.684 0 0-.105.004-.133-.044 0 0-.202-.289-.039-.678 0 0 .12-.218.169-.456 0 0 .165-.805.386-1.367ZM83.654 63.696s.165-.173.26-.095c0 0 .092.1.085.321 0 0 .005.066-.044.121 0 0-.19.297-.348.689 0 0-.086.235-.228.5 0 0-.024.035.01.055 0 0 .028.023.096.032 0 0 .12.015.247.016 0 0 .205.008.444.065 0 0 .424.083 1.097 0 0 0 .631-.085.969-.191 0 0 .035-.007.034-.047 0 0-.039-.326.072-.357 0 0 .303-.056.373-.008 0 0 .05.041.122.081 0 0 .21.11.334.151 0 0 .201.074.26.272 0 0 .025.097.018.196 0 0-.002.03-.03.046 0 0-.117.08-.224.203 0 0-.154.222-.905.322 0 0-1.757.124-2.434-.204 0 0-.362-.251-.603-.303 0 0-.05-.015-.078.016 0 0-.31.629-.803.855 0 0-.123.07-.258.035 0 0-.08-.02-.12-.083 0 0-.038-.054-.04-.129 0 0-.024-.328.038-.386 0 0 .168-.174.27-.326 0 0 1.025-1.544 1.386-1.847Z" clip-rule="evenodd"/><path fill="#231916" fill-rule="evenodd" d="M85.074 62.767s-.119-.189-.459-.376c0 0-.304-.165-.435-.404 0 0-.023-.036.017-.06 0 0 .39-.298.361-.907 0 0-.035-.685-.405-.914 0 0-.045-.019.012-.042 0 0 .16-.063.502-.017 0 0 .234.042.5-.125 0 0 .718-.355 1.025-.563 0 0 .046-.036.086-.022 0 0 .077.043.057.067 0 0-.365.59-.728 1.838 0 0-.218.631-.292 1.063 0 0-.053.273-.173.454 0 0-.027.05-.068.008Zm3.52 1.111c-.167-.269-.385-.446-.385-.446-.301-.238-.755-.127-.755-.127-.544.138-1.26.747-1.26.747-.156.131-.367.171-.367.171-.17.045-.388.135-.388.135-.177.055-.2-.01-.2-.01-.02-.041.072-.101.072-.101.525-.475.428-.762.428-.762-.126-.554.307-1.526.307-1.526.767-1.683.876-2.338.876-2.338.033-.232.112-.283.112-.283.086-.063-.019-.386-.019-.386a.085.085 0 0 0-.057-.041 5.276 5.276 0 0 0-.643-.104c-.245-.022-.425.078-.425.078-.435.227-1.063.543-1.063.543-.172.093-.488.194-.488.194-.608.234-.56.38-.56.38.018.33.102.642.102.642.095.446.028.675.028.675a.662.662 0 0 1-.26.395.094.094 0 0 0-.035.064 9.64 9.64 0 0 0 0 .677c.009.208.228.258.228.258.445.133.503.472.503.472.024.185.585.109.585.109.045.008.04.08.04.08-.02.172-.22.272-.22.272-.196.108-.175.205-.175.205.02.267-.031.585-.031.585-.018.062.038.115.038.115.207.228.375.457.375.457.047.058.156.089.156.089.443.12.72-.082.72-.082.753-.499 1.468-1.319 1.468-1.319.03-.05.079-.046.079-.046.267.004.287.103.287.103.028.159.004.325.004.325-.021.08.033.084.033.084.193.02.275.186.275.186.016.042.058.04.058.04.468-.047.641-.22.641-.22.068-.05-.084-.29-.084-.29Z" clip-rule="evenodd"/></g><defs><filter id="a" width="154" height="157" x="0" y="0" color-interpolation-filters="sRGB" filterUnits="userSpaceOnUse"><feFlood flood-opacity="0" result="BackgroundImageFix"/><feColorMatrix in="SourceAlpha" result="hardAlpha" values="0 0 0 0 0 0 0 0 0 0 0 0 0 0 0 0 0 0 127 0"/><feOffset dy="16"/><feGaussianBlur stdDeviation="6.5"/><feColorMatrix values="0 0 0 0 0 0 0 0 0 0 0 0 0 0 0 0 0 0 0.03 0"/><feBlend in2="BackgroundImageFix" result="effect1_dropShadow_185_235"/><feBlend in="SourceGraphic" in2="effect1_dropShadow_185_235" result="shape"/></filter></defs></svg>