<svg xmlns="http://www.w3.org/2000/svg" width="154" height="157" fill="none"><g filter="url(#a)"><path fill="#fff" d="M13 0h128v128H13z"/><path fill="#231815" fill-rule="evenodd" d="M66.588 56.88s-.128.377-.446.39c0 0-.159.17-.319.427 0 0-.341.343-.893-.39 0 0-.065-.073-.175-.266 0 0 .01-.25.413-.477 0 0 .268-.222.796-.098 0 0 .834.131.624.414Zm2.463-.657c-.641.033-2.293-.584-3.069-.928-.775-.343.068-1.406-.269-2.23-.336-.825-1.853-.516-1.853-.516s-1.013.138-.608 1.27c1.281.894.076 1.808.076 1.808-.846.689-.826.7-.818.698-1.416.377-3 1.75-3 1.75-.842.378-1.146-.342-1.146-.342-.337-.24-1.214-.138-1.416-.036-.203.104-.742 1.167-.237 1.683.742.446.54.619.641 1.27.506.447.202.31 1.112.344.844.308.71.377 1.822.274 1.078.206.74-1.407.74-1.681 0-.276.878-1.134 1.484-1.169.607-.033.607.723.472.858-.135.139-1.315 1.168-1.584 1.65-.27.478.236 1.13.236 1.13s1.178.035 1.55.447c.202.584-.134.618-.134 2.848.371 1.957-.372 4.36-.27 4.429.1.07.27.515 1.383.412 1.111-.103 1.111-1.715 1.111-1.715s.127-5.928.103-6.11c-.026-.195.033-.902.033-.902s.695-.429.843-1.466c.016-.124-.203-1.03.673-1.306 1.26-.177 1.598-.36 1.835-.668.572-.493.728-1.563.29-1.802ZM74.973 60.424s.412.7-.036 1.094c0 0-.409.18-.444-.309 0 0 .269-.163.244-.383-.02-.187.215-.223.236-.402Zm.556 1.704s.023.282-.024.41c-.064.178-.28.519-.631.838-.346.312-.214-.201-.348-.05 0 0 .35-.27.492-.58.078-.173.025-.449-.028-.475 0 0 .12-.15.258-.24 0 0 .244-.244.28.097Zm3.747-6.988-.824-.592c-.287-.465-.753-.465-.753-.465-.895-.072-1.989.886-1.989.886-.215.162-.185.141-.481.384l-.431.36c-.312.276-.568.484-.568.484-1.021.787-1.436 1.412-1.436 1.412-.3.255-1.024 1.578-1.024 1.578-.11-.167-.054-.823-.054-.823.036-.269.109-.663.109-.663.043-.277.107-.662.107-.662.412-1.686-.449-1.755-.449-1.755-1.015-.083-1.058 1.842-1.058 1.842-.143.303-.613 6.267-.613 6.267-.091 1.433.148 1.951.148 1.951.021.97 1.202 1.422 1.202 1.422.698.322.985-.073.985-.073.448-.16-.038-1.253-.038-1.253-.284-.34-.375-1.219-.375-1.219.054-.68-.018-.895-.018-.895-.626-.5-.142-.877-.142-.877.224-.396.519-.646.519-.646.304-1.88 1.166-2.852 1.166-2.852.323-.718.733-.926.733-.926.142-.253.25-.02.25-.02-.035.67.179.985.179.985l-.186.591c-.842.214-.781.43-.781.43-.035.18.082.373.207.52.125.148.26.25.26.25a1.27 1.27 0 0 0-.278.438c-.153.422.01.764.01.764l-.235.645c-.253.536-.206.651-.206.651-.093.44.206.692.206.692.217.34.896.358.896.358.717.054.843-.627.843-.627.573-.59.734-.538.734-.538.054.412.233.932.233.932.187.793.735.773.941.736l.293-.234s-.163-.484-.455-.873c0 0-.175-.284-.385-.699 0 0-.182-.485.264-.576 0 0 .574-.429.234-1.164 0 0-.17-.564-.672.063 0 0-.474-.135-.385-.313 0 0 .197-1.183-.358-1.952 0 0 .286-.431-.7-1.47l-.035-.125s.984-.666 1.272-.95c0 0 .555-.448.735-.752 0 0 .573-.645.626-.16 0 0 .106.756-.072 1.043 0 0-.483 1.105-.143 1.947 0 0 0 .358-.484.252l-.302.616s-.576.727-.199 1.048c0 0 .264.16.604-.127 0 0 .363-.105.31.236 0 0-.108.536.089 1.575 0 0 .156 1.082.092.885 0 .108-.035.951.105 1.175 0 0 .052.595-.037.81l-.355.192c.057.17.162.287.162.287.252.411.143.698.143.698.359 1.074.735 1.074.735 1.074.842.036.931-.608.931-.608.342-.359-.312-1.783-.312-1.783-.116-.187-.17-.69-.17-.69.008-.607-.132-1.279-.132-1.279.005-.295-.046-.692-.046-.692 0-.487-.114-1.345-.114-1.345.07-.392-.071-.994-.071-.994-.023-.44.004-1.098.004-1.098.067-.568.036-1.04.036-1.04-.036-.43.877-1.272.877-1.272.34-.018.404-.595.404-.595.114-.486-.278-.802-.278-.802Z" clip-rule="evenodd"/><path fill="#231815" fill-rule="evenodd" d="M74.4 64.832s.549-.187.787-.214c0 0 .664-.305.897.124 0 0 .357.682-.377 1.058 0 0-.806.447-1.469-.09 0 0-.805-.646.162-.878ZM81.773 56.35s.966-.677 1.868.13c0 0 .284.17.35.4.177.594-.208.768-.64 1.306 0 0-1 .238-1.418-.504 0 0-.174-.663-.16-1.332ZM83.125 59.894s.181.182.343-.011c0 0 .454-.385.754-.182 0 0-.125-.028-.226.902 0 0-.01.208-.226.774l-.13.773s.039.203-.16.837c0 0-.1.655-.255 1.053l-.26.881s.356.742-.124 1.248l-.734.385s-.743.251-1.188-.208c-.148-.156 0-.249-.113-.586 0 0-.319-.749-.48-.813 0 0-.165-.188.352-.38 0 0 .321-.065.58-.387 0 0 .07-.191.419-.612 0 0 .17-.302.353-.613l.355-.934s.161-.419-.547-.612c0 0-.355.096-.42-.838 0 0-.322-.773.742-1.063l.497.149s.23.03.468.237ZM88.914 61.884l-.457-.699s-.194-.042-.077-.244c0 0 .693-.563 1.163.786 0 0-.123.237-.629.157Zm-.407 2.163s-.217.909-.724.446c0 0-.016-.36.354-.827 0 0 0-.433.394-.04 0 0 .45-.1-.024.42Zm-.815-2.1s-.251.662-.404.695c0 0-.533.21-.567-.32 0 0 .175-.867.533-1.191 0 0 .17-.28.442.012 0 0 .26.297.122.365 0 0-.262.046-.126.439Zm4.197-.28c-.738-.355-.998.064-.998.064-.451-.129-.438-.977-.438-.977.02-.155-.116-.52-.116-.52l-.348-.308c-.548-.387-.902-.096-.902-.096-.612-.065-.29-.484-.29-.484l.161-.162c.37-.307.58-.611.58-.611.28-.301.451-.548.451-.548.483-.322.323-1.417.323-1.417-.548-.805-1.5-.008-1.5-.008-.257.256-.314-.175-.314-.175v-.803c.511-.932-.378-1.044-.378-1.044-1.48.096-1.546 2.094-1.546 2.094l-.515.839c-.198.297-.194.418-.194.418-.226 1.353 1.127 1.386 1.127 1.386.42-.064.225.257.225.257-.901.935-1.417 3.03-1.417 3.03-.128.837-.516.9-.516.9-1.353-.289-1.384.291-1.384.291.258 1.29.773 1.482.773 1.482.352-.015.515.098.515.098.805.902 2.288 1.03 2.288 1.03.515.837.774.613.774.613 1.134-.227 1.163-.515 1.163-.515.55-.404.995-2.514.995-2.514.13-.484.323-.807.323-.807.095-.193.774.226.774.226.74.516 1.353-.29 1.353-.29.386-1.128-.969-1.449-.969-1.449ZM95.091 57.111s-.26-.969.401-.969c0 0 .19-.047.262.119 0 0 .18.061.342.017 0 0 .12-.14.4.141 0 0 .91.498.508 1.32 0 0-.625.715-1.307.375 0 0-.482.127-.661-.412 0 0 .077-.397.055-.59ZM96.127 59.584s.288-.197.36.142c0 0-.145.27.017.36 0 0 .358.429-.178.59 0 0-.216.573-.647.484 0 0-.345.008-.775 1.352 0 0 .005.135.256.08 0 0 .245-.558.574-.822.675-.545.363-.473.773-.96 0 0 .355-.295.372.135 0 0-.07.34-.428.86 0 0-.772 1.559-.593 1.9 0 0 .431.751-.232 1.055 0 0-.537.412-.93.072 0 0-.253-.251-.378-.484 0 0-.304-.089-.179-.627 0 0 .323-.698.108-.66-.065.128.115-.16-.036-.289l.323-1.236s0-.412.125-.537c0 0 .125-.52.143-.575 0 0 .09-.142-.09-.232 0 0-.232-.536.145-.877 0 0 .267-.305.84.072 0 0 .235.197.43.197ZM99.952 55.77c.407.189.627-.375 1.066-.345 0 0 .192.37-.094.621 0 0 .299.296.081 1.033 0 0-.117.704-.96.579 0 0-.514-.161-.607-.663l-.127-.394s-.083-.26.073-.573c0 0 .16-.446.568-.258ZM103.328 55.176s.09-.858.396-.858c0 0 .665-.204 1.214.417 0 0 .565.464.109 1.087 0 0-.32.716-1.073.304 0 0-1.219.52-1.488 1.38 0 0-.017.125.162.107 0 0 .788.126.788.914 0 0-.016.243-.362.489 0 0-.145.218-.373.37 0 0-.107.126-.053.287 0 0 .072.145-.072.412 0 0-.09.323.358.34 0 0 .704-.05 1.051.5 0 0 .548.376-.03 1.204 0 0-.636.357-.806.481 0 0-.582.34-.64.83 0 0-.043.074-.129.444 0 0-.233.841-.216 1.342 0 0-.015.398-.071.771l-.037.627s-.039.316-.034.895l.016.394s.443.95-.016 1.594c0 0-.126.413-.198.573 0 0-.036.233-.465.055 0 0-.288.035-.377-.698 0 0-.161-.629.036-1.54l-.036-.95s-.06-1.012-.005-1.28c0 0-.031-.675.005-.978 0 0 .072-.215-.305-.09 0 0-.858.447-1.272-.107 0 0-.438-.624.547-1.573l.35-.416.393-.59s.126-.502-.126-.627c0 0-.088-.61.43-1.164 0 0 .036-.127-.143-.162 0 0-.59-.162-.699-.644 0 0 .02-.198.574-.555 0 0-.341-.413.054-.736l1.021-.823s.018-.234.394-.252c0 0 .036-.412.341-.592 0 0 .573-.41.787-1.182ZM109.076 58.693s.195-.412.21-.725c0 0-.269-.513-.207-.786 0 0-.426-1.054.479-1.174 0 0 .814.09 1.086.692 0 0 .456.271.12.694 0 0-.15.724.211.695l.392-.183s.174-.127.815-.21c0 0 .663-.21.874.181 0 0 .573.755-.271 1.448 0 0-.514.09-.844.12 0 0-.292.125-.754.273 0 0-1.026.15-.724.874 0 0 .174.436.392.723 0 0 1.416 1.66 2.414 2.262l.285.123.364.082s.205-.024.905.178c0 0 .194.029.858.455 0 0 .144.102.432.095 0 0 .319-.079.5.262 0 0 .098.12-.325.409 0 0-.173.213-1.434.251 0 0-1.219.215-2.006.048 0 0-.135.004-.359-.069 0 0-.317.078-1.153-1.116 0 0-1.195-1.743-1.552-2.127 0 0-.292.204-.292.367 0 0-.143.598-.711 1.592 0 0-.022-.009-.571.805 0 0 .02.01-.768.7 0 0 .043-.02-.456.32 0 0 .091-.006-.81.349 0 0-.883.071-1.288-.5 0 0-.503-.288.668-.694 0 0 .443-.319.788-.717l.43-.525s.187-.27.405-.573c0 0 .095-.108.417-.708l.384-.733s.232-.23-.156-.447l-1.002-.382s-.573-.072-.478-.907c0 0 .262-.407.812-.382 0 0 1.426-.315 1.92-1.04ZM125.349 59.502s-.117.165-.44.5c0 0-.753.472-1.159.502-.222.017-.822-.069-1.117-.102 0 0-.087-.318.176-.461l.625-.368.464-.342s.239-.5 1.17-.381c0 0 .658.243.281.652Zm-3.121-.51s-.119-.171.023-.477c0 0 .1-.445.214-.813 0 0 .215-.715.598-.596 0 0 .499.116.191.62l-.119.358s-.455.837-.907.909Zm-.497 8.382s-.524.08-.524-.372c0 0-.393-.587.393-1.255 0 0 .358-.452.425.027 0 0 .132.237.13.401 0 0 .132 1.04-.424 1.199Zm-1.487-7.546s-.476.05-.191-1.648h.049s.048 1.004.358 1.362c0 0 .072.382-.216.286Zm6.441-1.008c-.147-.679-.723-.93-.723-.93-.376-.406-.638-.028-.638-.028-.636.144-.491-.378-.491-.378.172-.87-.233-.986-.233-.986-.377-.347.056-.695.056-.695.582-.58.089-1.072.089-1.072l.202-.87c.291-.784-.611-.948-.611-.948-.532-.098-.808.252-.808.252-.435.145-.319 1.681-.319 1.681-.146.812-.812 1.014-.812 1.014-.435.087-.811.841-.811.841-.175-.116-.126-.46-.126-.46.204-.261.618-1.307.618-1.307 0-1.218-1.1-1.133-1.1-1.133-1.132.147-.784.843-.784.843.406.52.057.676.057.676-.659-.349-1-.276-1-.276-.556-.098-.883.359-.883.359-.375.367 0 .696 0 .696.129.163.085.29.085.29 0 .397-.047.932-.047.932-.122.434-.096.692-.096.692l-.081.465c.113.152-.018.294-.018.294-.169.847.131 1.55.131 1.55.169.471-.019.583-.019.583l-.563.396c-.322.28-.32-.28-.32-.28-.523-.61-1.13.579-1.13.579-.434 1.594.638 1.826.638 1.826 1.015.349 1.796-1.275 1.796-1.275.638-1.13 1.653-1.246 1.653-1.246l.144.231-.115.552c0 1.274.84.985.84.985l.232.145.102.626c.171.388.131.62.131.62-.277.082-.514.32-.514.32l-.318.174c-1.449.87-1.431 2.086-1.431 2.086-.173 1.914 2.291 2.32 2.291 2.32.725 0 .883-.507.883-.507.798-.751.712-3 .712-3-.059-.348.55-.262.55-.262 1.043.029 1.073-.29 1.073-.29.315-.327.382-.67.224-.893-.261-.375-.978-.526-.978-.526-.588-.26-1.332-.03-1.332-.03-.03-.203-.262-.58-.262-.58-.145-.725 1.275-1.74 1.275-1.74.239-.063.786-.162.786-.162.348.174.402.162.402.162 1.423-.089 1.604-.349 1.604-.349.133-.272.223-.607.223-.607.274-.659-.234-1.36-.234-1.36ZM57.102 73.504c0 .473.147.86.443 1.16.288.295.652.442 1.093.442.409 0 .758-.133 1.047-.4.325-.298.486-.698.486-1.202 0-.493-.157-.89-.469-1.189a1.492 1.492 0 0 0-1.064-.41c-.422 0-.777.137-1.064.409-.315.3-.472.697-.472 1.19Zm.53 0c0-.487.098-.85.293-1.08a.897.897 0 0 1 .713-.35c.273 0 .507.113.704.338.2.224.299.59.299 1.092 0 .5-.099.863-.294 1.09-.197.228-.434.342-.71.342a.892.892 0 0 1-.713-.35c-.194-.233-.292-.593-.292-1.082ZM62.593 71.993c.178.05.278.075.3.075a.242.242 0 0 0 .125-.036.19.19 0 0 0 .082-.114h.099l.04 1.042h-.107a1.51 1.51 0 0 0-.245-.5.936.936 0 0 0-.772-.357.984.984 0 0 0-.803.385c-.207.256-.31.609-.31 1.059 0 .413.108.743.327.99.22.247.495.37.83.37.24 0 .464-.058.668-.172a1.99 1.99 0 0 0 .385-.294l.09.086a1.55 1.55 0 0 1-.386.341 1.557 1.557 0 0 1-.852.252c-.503 0-.902-.159-1.196-.478-.274-.295-.41-.664-.41-1.105 0-.449.144-.829.43-1.135.305-.323.698-.484 1.185-.484.17 0 .342.025.52.075ZM63.52 74.956c.172-.016.283-.046.334-.09.053-.043.078-.152.078-.326V72.47c0-.164-.026-.274-.076-.324-.05-.05-.163-.082-.336-.094v-.084h2.483l.02.657h-.119c-.039-.204-.098-.337-.179-.398-.08-.06-.256-.09-.532-.09h-.636c-.07 0-.112.01-.127.034-.017.023-.025.064-.025.125v1.037h.719c.2 0 .327-.03.382-.087.056-.06.1-.18.134-.359h.112v1.078h-.112c-.035-.182-.08-.3-.135-.36-.056-.057-.182-.087-.381-.087h-.719v1.152c0 .092.03.146.088.163.06.015.235.024.527.024.317 0 .55-.034.701-.101.152-.068.287-.233.411-.495h.129l-.21.78H63.52v-.086ZM67.322 75.043v-.087a.65.65 0 0 1-.22-.039c-.064-.03-.097-.084-.097-.162 0-.04.01-.095.036-.161.023-.067.098-.251.228-.557h1.222l.188.447c.028.063.05.125.065.18a.653.653 0 0 1 .023.12c0 .069-.022.112-.06.13-.04.017-.13.032-.267.042v.087h1.191v-.087c-.107-.013-.183-.04-.23-.084-.045-.043-.106-.153-.182-.327l-1.16-2.627h-.108l-.975 2.279c-.145.34-.25.549-.31.625a.383.383 0 0 1-.278.134v.087h.934Zm.024-1.198.531-1.273.535 1.273h-1.066ZM69.759 74.956c.192-.017.315-.06.369-.13.055-.065.084-.222.084-.467V72.31l-.065-.076a.533.533 0 0 0-.175-.148.644.644 0 0 0-.213-.034v-.084h.803l1.804 2.224v-1.546c0-.254-.038-.42-.114-.497-.05-.05-.161-.082-.331-.097v-.084h1.101v.085c-.179.017-.298.063-.357.13-.06.068-.09.224-.09.469v2.453h-.082l-2.073-2.557v1.81c0 .256.037.42.112.498.05.049.158.083.327.1v.086h-1.1v-.087ZM76.83 71.969v.084c-.182.012-.299.042-.352.091-.054.048-.08.156-.08.327v1.482c0 .244.033.432.099.569.125.248.36.372.71.372.382 0 .637-.128.768-.382.074-.14.11-.36.11-.658v-1.206c0-.251-.032-.41-.093-.473-.063-.064-.18-.106-.354-.122v-.084h1.103v.084c-.185.02-.305.063-.363.13-.057.068-.084.223-.084.465v1.208c0 .321-.05.572-.15.752-.182.33-.53.498-1.04.498-.506 0-.85-.164-1.032-.49-.1-.177-.15-.408-.15-.695v-1.45c0-.168-.026-.277-.077-.325-.055-.049-.169-.08-.347-.093v-.084h1.331ZM78.868 74.956c.192-.017.315-.06.37-.13.055-.065.082-.222.082-.467V72.31l-.063-.076a.54.54 0 0 0-.176-.148.64.64 0 0 0-.213-.034v-.084h.802l1.805 2.224v-1.546c0-.254-.039-.42-.114-.497-.05-.05-.16-.082-.332-.097v-.084h1.101v.085c-.178.017-.296.063-.357.13-.06.068-.087.224-.087.469v2.453h-.084l-2.073-2.557v1.81c0 .256.038.42.113.498.048.049.157.083.327.1v.086h-1.101v-.087ZM82.285 74.956c.187-.012.309-.04.363-.083.055-.044.082-.154.082-.333V72.47c0-.17-.027-.28-.082-.33-.054-.05-.176-.079-.363-.088v-.084h1.366v.085c-.187.008-.307.038-.363.087-.055.05-.082.16-.082.33v2.069c0 .179.027.29.082.333.056.043.176.071.363.083v.087h-1.366v-.087ZM85.084 71.969v.084a.84.84 0 0 0-.24.024c-.075.024-.113.072-.113.147 0 .04.012.093.04.161.027.069.076.183.15.345l.732 1.62.665-1.754c.03-.078.052-.144.067-.198a.487.487 0 0 0 .024-.13c0-.09-.04-.15-.118-.183a.775.775 0 0 0-.23-.032v-.084h.957v.084a.423.423 0 0 0-.22.08c-.072.06-.143.176-.213.35l-1.03 2.623h-.07l-1.16-2.56c-.097-.215-.176-.35-.235-.402-.059-.054-.144-.083-.259-.09v-.085h1.253ZM87.2 74.956c.173-.016.284-.046.336-.09.05-.043.076-.152.076-.326V72.47c0-.164-.024-.274-.076-.324-.05-.05-.161-.082-.336-.094v-.084h2.483l.022.657h-.12c-.04-.204-.1-.337-.178-.398-.08-.06-.257-.09-.532-.09h-.638c-.068 0-.11.01-.126.034-.016.023-.025.064-.025.125v1.037h.719c.2 0 .328-.03.384-.087.054-.06.098-.18.13-.359h.113v1.078h-.112c-.034-.182-.08-.3-.135-.36-.055-.057-.182-.087-.38-.087h-.719v1.152c0 .092.029.146.088.163.06.015.234.024.527.024.316 0 .55-.034.703-.101.15-.068.286-.233.41-.495h.127l-.21.78H87.2v-.086ZM90.049 75.043h1.308v-.087c-.177-.013-.291-.042-.344-.09-.053-.046-.079-.154-.079-.326v-.914l.204-.014 1.174 1.43h.756v-.086a.562.562 0 0 1-.23-.06.66.66 0 0 1-.177-.16l-.967-1.174c.262-.04.469-.123.621-.246.153-.123.23-.303.23-.535 0-.344-.172-.582-.514-.71a1.956 1.956 0 0 0-.68-.102h-1.302v.084c.172.014.284.047.333.096.052.05.078.158.078.322v2.011c0 .193-.023.317-.067.37-.047.053-.162.09-.344.104v.087Zm.885-1.588v-1.152c0-.072.015-.115.045-.135.03-.02.11-.03.244-.03.2 0 .357.026.478.08.223.1.334.287.334.56 0 .282-.127.476-.377.578-.145.055-.387.088-.724.1ZM93.444 74.122c.08.205.172.369.278.493a.875.875 0 0 0 .688.322c.15 0 .277-.049.386-.142a.493.493 0 0 0 .162-.391.55.55 0 0 0-.165-.397 3.01 3.01 0 0 0-.456-.32l-.4-.247a1.4 1.4 0 0 1-.288-.228.716.716 0 0 1-.196-.488.78.78 0 0 1 .237-.585c.157-.156.368-.234.629-.234.108 0 .236.024.388.074.152.05.238.074.259.074.06 0 .1-.013.122-.038a.285.285 0 0 0 .052-.11h.084l.103.983h-.11c-.077-.294-.2-.501-.37-.617a.882.882 0 0 0-.503-.176.542.542 0 0 0-.337.111.372.372 0 0 0-.143.313c0 .119.036.222.11.306.073.086.187.178.343.272l.413.25c.26.158.44.303.546.432a.746.746 0 0 1 .157.472.78.78 0 0 1-.276.609c-.184.163-.42.246-.705.246-.145 0-.294-.028-.452-.081a1.687 1.687 0 0 0-.268-.082c-.054 0-.092.015-.111.053a.346.346 0 0 0-.036.11h-.106l-.139-.984h.104ZM95.82 74.956c.188-.012.308-.04.364-.083.055-.044.083-.154.083-.333V72.47c0-.17-.028-.28-.083-.33-.056-.05-.177-.079-.364-.088v-.084h1.367v.085c-.186.008-.307.038-.363.087-.056.05-.082.16-.082.33v2.069c0 .179.026.29.082.333.056.043.177.071.363.083v.087H95.82v-.087ZM97.381 71.969h2.649l.021.785h-.112c-.054-.247-.125-.407-.21-.482-.084-.076-.262-.113-.535-.113h-.252v2.38c0 .18.028.29.083.334.056.044.178.071.364.083v.087H98.02v-.087c.2-.013.325-.045.373-.096.05-.05.073-.177.073-.378V72.16h-.249c-.262 0-.44.037-.533.112-.095.074-.167.235-.213.483h-.112l.021-.785ZM101.57 71.969v.084a.678.678 0 0 0-.245.026c-.056.02-.083.064-.083.127 0 .02.004.044.013.074s.029.069.061.118l.688 1.008.671-1.023a.497.497 0 0 0 .054-.111.29.29 0 0 0 .013-.062c0-.067-.036-.113-.108-.133a.734.734 0 0 0-.218-.024v-.084h1.02v.084a.48.48 0 0 0-.253.085c-.115.08-.245.23-.389.45l-.69 1.051v.9c0 .18.03.29.088.337.059.045.189.071.392.08v.087h-1.429v-.087c.214-.01.347-.04.398-.091.052-.052.077-.178.077-.38v-.803l-.612-.896c-.211-.308-.359-.505-.444-.592a.459.459 0 0 0-.31-.14v-.085h1.306ZM104.688 73.504c0 .473.147.86.442 1.16.289.295.653.442 1.093.442.409 0 .759-.133 1.048-.4.324-.298.486-.698.486-1.202 0-.493-.157-.89-.47-1.189a1.49 1.49 0 0 0-1.064-.41 1.49 1.49 0 0 0-1.063.409c-.315.3-.472.697-.472 1.19Zm.529 0c0-.487.097-.85.293-1.08a.898.898 0 0 1 .714-.35c.272 0 .507.113.705.338.198.224.297.59.297 1.092 0 .5-.098.863-.294 1.09-.196.228-.432.342-.708.342a.898.898 0 0 1-.716-.35c-.194-.233-.291-.593-.291-1.082ZM107.98 74.956c.185-.017.299-.051.345-.1.044-.049.067-.173.067-.374v-2.01c0-.165-.026-.275-.076-.325-.05-.05-.161-.082-.336-.094v-.084h2.491l.021.657h-.134c-.031-.212-.092-.348-.181-.403-.09-.057-.267-.085-.53-.085h-.634c-.064 0-.104.01-.122.033-.016.022-.025.064-.025.126v1.037h.662c.2 0 .329-.03.384-.087.056-.06.099-.18.134-.359h.11v1.078h-.11c-.036-.182-.081-.3-.137-.36-.055-.057-.181-.087-.381-.087h-.662v1.02c0 .17.026.279.081.328.051.048.167.077.345.09v.086h-1.312v-.087ZM113.957 71.993c.177.05.277.075.298.075a.244.244 0 0 0 .126-.036.193.193 0 0 0 .082-.114h.098l.043 1.042h-.108a1.55 1.55 0 0 0-.245-.5.942.942 0 0 0-.773-.357.986.986 0 0 0-.803.385c-.207.256-.311.609-.311 1.059 0 .413.109.743.327.99.219.247.496.37.83.37.243 0 .464-.058.669-.172.116-.064.246-.164.385-.294l.09.086c-.103.13-.232.244-.385.341a1.555 1.555 0 0 1-.853.252c-.503 0-.903-.159-1.198-.478-.273-.295-.409-.664-.409-1.105 0-.449.144-.829.431-1.135.303-.323.698-.484 1.186-.484.168 0 .34.025.52.075ZM114.903 74.956c.183-.017.297-.051.343-.1.046-.049.069-.173.069-.374v-2.01c0-.168-.025-.277-.077-.326-.052-.048-.163-.08-.335-.093v-.084h1.297v.085c-.171.011-.283.044-.333.092-.052.05-.078.158-.078.325v.906h1.422v-.906c0-.167-.025-.276-.075-.325-.05-.048-.162-.08-.335-.093v-.084h1.297v.085c-.173.011-.285.044-.337.092-.05.05-.075.158-.075.325v2.069c0 .168.025.276.075.325.052.048.164.079.337.091v.087h-1.297v-.087c.184-.016.297-.049.343-.098.045-.05.067-.175.067-.376v-.899h-1.422v.957c0 .168.026.276.078.325.05.049.162.08.333.091v.087h-1.297v-.087ZM118.293 74.956c.187-.012.308-.04.363-.083.056-.044.083-.154.083-.333V72.47c0-.17-.027-.28-.083-.33-.055-.05-.176-.079-.363-.088v-.084h1.367v.085c-.188.008-.308.038-.364.087-.054.05-.083.16-.083.33v2.069c0 .179.029.29.083.333.056.043.176.071.364.083v.087h-1.367v-.087ZM119.818 74.956c.194-.017.316-.06.373-.13.054-.065.081-.222.081-.467V72.31l-.064-.076a.535.535 0 0 0-.175-.148.636.636 0 0 0-.215-.034v-.084h.804l1.805 2.224v-1.546c0-.254-.039-.42-.114-.497-.05-.05-.161-.082-.333-.097v-.084h1.103v.085c-.18.017-.298.063-.357.13-.061.068-.091.224-.091.469v2.453h-.08l-2.074-2.557v1.81c0 .256.038.42.112.498.049.049.159.083.327.1v.086h-1.102v-.087ZM124.151 75.043v-.087a.674.674 0 0 1-.223-.039c-.063-.03-.095-.084-.095-.162 0-.04.012-.095.035-.161.023-.067.1-.251.227-.557h1.225l.186.447a1.245 1.245 0 0 1 .089.3c0 .069-.021.112-.062.13a.991.991 0 0 1-.267.042v.087h1.192v-.087c-.108-.013-.183-.04-.229-.084-.046-.043-.106-.153-.182-.327l-1.161-2.627h-.106l-.977 2.279c-.146.34-.248.549-.311.625a.378.378 0 0 1-.275.134v.087h.934Zm.023-1.198.531-1.273.534 1.273h-1.065Z" clip-rule="evenodd"/><mask id="b" width="26" height="26" x="27" y="51" maskUnits="userSpaceOnUse" style="mask-type:alpha"><path fill="#fff" d="M27 51h25.617v25.617H27V51Z"/></mask><g mask="url(#b)"><path fill="#004098" fill-rule="evenodd" d="M27.814 63.807c0-6.613 5.38-11.994 11.993-11.994 6.614 0 11.996 5.38 11.996 11.994s-5.381 11.995-11.996 11.995c-6.612 0-11.994-5.38-11.994-11.995Zm-.814 0c0 7.064 5.745 12.81 12.807 12.81 7.064 0 12.81-5.746 12.81-12.81C52.617 56.745 46.87 51 39.807 51 32.745 51 27 56.745 27 63.807Z" clip-rule="evenodd"/></g><path fill="#E60012" fill-rule="evenodd" d="m30.665 59.973-.385-.16.2-.482.385.161-.2.481Zm-.012.882-.037-.01.196-.47.439.182.249.115.127-.308-.255-.096-.439-.183.2-.482.036.018.123-.296-.264-.1-.482-.202-.215-.098-.088.235-.226.544-.134-.057-.263-.12-.128.308.27.103.134.056-.22.53-.102.22.22.085.483.2.256.113.12-.287Zm-.69-.281.195-.472.386.162-.196.47-.386-.16ZM32.221 56.213l1.05-.925 1 1.135-1.049.925-1-1.135Zm-.21.174 1.015 1.149.17.204.21-.184-.02-.024 1.047-.925.032.035.213-.188-.181-.194-1.025-1.162-.158-.19-.166.157-1.128.993-.178.148.169.18Zm1.152.834.147-.138.678-.597.165-.137-.161-.184-.126.119c0-.057.003-.11.004-.157l-.078-.006-.113-.003a1.175 1.175 0 0 1-.08-.01l.136-.106-.167-.19-.109.101-.215.19-.148-.167.227-.2.157-.125-.169-.191-.157.146-.645.569-.152.128.166.187.144-.136.223-.196.148.168-.178.157-.152.127.165.188.145-.136.178-.157.204.23-.241.214-.158.129.162.184Zm.443-.708-.204-.23.12-.106a.693.693 0 0 1-.03.164c.106-.002.173 0 .202.006l.081.017-.169.15ZM36.38 53.683c.053.03.098.057.136.08l.053-.14.045-.122a4.159 4.159 0 0 0-.398-.184.944.944 0 0 1-.114.242c.133.052.227.094.279.124Zm.254 1.693.095.067.027-.121a3.55 3.55 0 0 0 .057-.374l.027-.264c.001-.018.003-.044.008-.081l-.066-.02a3.808 3.808 0 0 1-.205-.088l.002.073a2.819 2.819 0 0 1-.035.368c-.009.052-.021.106-.034.163a1.253 1.253 0 0 1-.032.118l-.028.069c.087.035.148.065.184.09Zm-.258-1.092c.047.022.112.057.193.105l.023-.08.051-.132a.877.877 0 0 0 .02-.054 16.148 16.148 0 0 0-.395-.17.894.894 0 0 1-.101.25c.091.032.16.06.209.081Zm1.381-.286c-.104-.068-.178-.113-.22-.14l.354-.091.053.25-.261.066.074-.085Zm.024.609a1.48 1.48 0 0 1 .114-.113 6.088 6.088 0 0 0-.229-.152l.33-.084.023.109c.008.048.019.105.028.173l-.266.067Zm-.581-.664.255-.065c-.024.033-.066.08-.126.135.042.02.105.059.188.112l-.284.072-.033-.254Zm-.507.007c.03.021.065.046.1.074l.046-.077c.01-.016.031-.06.064-.134l.021.113.019.12.021.139.009.079-.233.054.063.25.207-.059.01.112c.003.043.007.1.01.17l.007.145v.113l.228-.068.802-.203-.004.034c-.002.027-.03.053-.08.075a.534.534 0 0 1-.107.042 4.845 4.845 0 0 1-.19.03.892.892 0 0 1 .122.15c.017.032.034.065.049.1.177-.05.292-.095.345-.137a.325.325 0 0 0 .106-.127.382.382 0 0 0 .033-.126l.007-.112.187-.042-.06-.24-.176.051-.014-.081-.022-.118-.014-.083.207-.046-.063-.25-.2.056-.031-.156-.029-.138-.039-.197-.253.073-.71.18-.211.047.052-.152.91-.231.3-.067-.064-.252-.295.084-.778.197c.015-.054.029-.111.04-.173a1.373 1.373 0 0 1-.29-.02 1.67 1.67 0 0 1-.075.395.703.703 0 0 1-.175.33c.067.029.116.054.148.076Zm.571.494.296-.075-.022.019-.064.06c-.01.008-.024.018-.042.034a1.675 1.675 0 0 1 .232.155l-.376.095-.024-.288ZM41.644 54.413l.314.076.064-.258-.305-.075-.216-.047.062-.258.2.055.318.077.063-.255-.418-.102-.203-.044.062-.253.197.055.202.048a2.005 2.005 0 0 0-.09-.321c.108-.019.196-.039.264-.056.04.128.078.252.11.372-.044.011-.094.024-.144.04l.449.108a5.506 5.506 0 0 0-.13-.094c.05-.048.093-.093.127-.136.034-.042.073-.093.117-.157.073.06.148.118.227.177l-.155.177-.053.066.195.047.208.045-.062.258-.194-.052-.436-.106-.06.25.286.07.214.045-.062.259-.183-.05-.316-.077-.062.259.443.107.207.045-.063.261-.199-.055-.449-.108-.053.216-.062.288-.29-.072.078-.283.052-.216-.313-.076-.308-.07.064-.26.303.08Zm-.467-1.357c.084-.053.16-.108.227-.165.108.128.192.233.25.315l-.207.2c-.03-.043-.12-.16-.27-.35Zm-.377 1.473a3.48 3.48 0 0 0 .27-.373l.08-.132c.052.065.115.135.188.21-.08.127-.15.233-.208.318l-.167.235a2.377 2.377 0 0 1-.15.188 1.446 1.446 0 0 0-.116-.228l-.049-.07c.058-.047.109-.097.152-.148Zm.105-.913c.11-.09.181-.149.213-.177.079.09.166.199.265.33a5.888 5.888 0 0 0-.206.193 2.213 2.213 0 0 0-.075-.107 5.728 5.728 0 0 0-.197-.239ZM44.73 56.08c.109.052.234.097.376.137.14.04.276.043.402.007.125-.033.225-.073.3-.121.075-.047.14-.101.197-.163l.107-.112a9.764 9.764 0 0 0-.46-.38l-.223-.166.172-.216.22.186.463.37c.1-.121.159-.194.18-.221l.158-.207c.106.103.163.155.171.16l.072.058-.108.125-.234.278.478.382.228.174-.175.22-.22-.186-.478-.382a.94.94 0 0 0-.07.102.955.955 0 0 0-.055.14 1.184 1.184 0 0 0-.054.217 1.892 1.892 0 0 0-.006.348.77.77 0 0 0 .097.368c.055.089.114.17.172.245-.03.01-.063.022-.097.036a.779.779 0 0 0-.128.077l-.073.049a4.617 4.617 0 0 1-.14-.253 1.15 1.15 0 0 1-.114-.43 1.368 1.368 0 0 1-.005-.35l.033-.189c-.061.032-.123.061-.185.086a.994.994 0 0 1-.268.057c-.116.011-.25.004-.397-.023a4.15 4.15 0 0 1-.378-.084c.008-.028.017-.06.024-.093.007-.033.013-.115.018-.245ZM49.933 59.379c-.147.15-.24.245-.28.283l-.113.107a2.085 2.085 0 0 0-.21-.232l.11-.081c.03-.023.068-.056.113-.099.044-.042.101-.107.172-.193.063.08.132.15.208.215Zm-1.321-.55.175-.073.143-.065.091.244.067.164c.117-.124.198-.233.248-.325l.059-.113c.096.08.153.124.172.133l.073.036c-.092.155-.17.272-.231.352l-.074.096c-.08-.063-.16-.119-.242-.167l.388.95c.012-.053.02-.12.024-.2a1.065 1.065 0 0 0 .304.055c.065.005.113.007.142.004l.147-.01c-.002.108.003.218.018.328l-.134-.006a6.146 6.146 0 0 1-.372-.045l-.084-.018.066.165.114.252-.158.06-.2.082-.148.065-.112-.275.18-.066.083-.036-.555-1.356-.098.04-.153.069-.112-.275.179-.066Zm.075.903a1.61 1.61 0 0 1-.06.193c.057.03.114.057.172.08l-.112-.273Zm-.767-.68.257-.105.088.24.199.486a.488.488 0 0 0 .026-.076c.066.05.13.09.192.122l-.087-.214-.1-.222.244-.099.082.226.354.868-.097.142a1.976 1.976 0 0 1-.096-.03 2.313 2.313 0 0 1-.285-.146l.184.448.103.228-.256.106-.093-.247-.219-.538a1.188 1.188 0 0 1-.196.11.42.42 0 0 1-.163.036.215.215 0 0 1-.164-.075.65.65 0 0 1-.11-.152 1.5 1.5 0 0 1-.074-.177c.034-.02.063-.04.088-.056a.405.405 0 0 0 .065-.057l.072-.078c.02.05.033.094.045.127.01.032.02.056.026.07.023.052.052.08.085.08a.255.255 0 0 0 .178-.064l.035-.04-.28-.682-.103-.232Z" clip-rule="evenodd"/><path fill="#004098" fill-rule="evenodd" d="M29.486 63.84c-.393.04-.858.227-.811.708.044.448.495.574.94.53.497-.048.864-.288.823-.706-.039-.397-.406-.585-.951-.532Zm.036.266c.25-.024.592.003.621.296.03.315-.354.39-.547.41-.493.048-.613-.159-.625-.295-.015-.155.09-.258.186-.31a.875.875 0 0 1 .365-.101ZM29.582 66.53c-.136.003-.564.01-.655-.4-.076-.34.203-.646.724-.76.464-.105.918-.02 1.009.389a.472.472 0 0 1-.107.426.74.74 0 0 1-.272.186l-.136-.233c.176-.071.25-.197.222-.327-.07-.312-.527-.21-.635-.186-.157.035-.31.084-.406.16-.084.066-.135.165-.109.278.037.168.224.208.414.198l-.05.27ZM30.815 66.506l.323.896-.27.1-.238-.654-.357.13.219.607-.272.098-.22-.608-.437.159.244.675-.272.098-.331-.918 1.611-.583ZM30.337 69.476l1.23-1.301-.138-.239-1.736.421.138.24.39-.102.256.446-.281.29.141.245Zm.174-1.056.64-.167-.465.471-.175-.304ZM31.922 68.746l.153.199-.58 1.115v.002l.904-.702.147.189-1.352 1.053-.16-.205.566-1.093-.001-.002-.883.687-.148-.19 1.354-1.053ZM33.743 70.713l-.576.726c-.127.159-.178.225-.204.308a.23.23 0 0 0 .085.26c.194.154.324-.009.505-.238l.587-.74.203.16-.559.705c-.19.241-.303.368-.433.43-.203.099-.369.01-.482-.08-.412-.327-.143-.665.103-.975l.568-.716.203.16ZM34.59 71.36l.217.13-.138 1.25.002.002.588-.983.206.123-.879 1.472-.223-.133.133-1.223-.004-.002-.574.96-.206-.124.879-1.471ZM35.733 72.006l.234.11-.735 1.549-.234-.111.735-1.548ZM36.106 72.198l.264.097-.136 1.303h.004l.733-1.082.257.095-1.023 1.45-.261-.096.162-1.767ZM37.39 72.65l.928.215-.065.282-.677-.156-.086.37.629.147-.065.282-.63-.146-.105.452.7.163-.066.282-.952-.221.389-1.67ZM38.399 74.615l.258.027.076-.712.05.006c.174.018.187.053.31.377l.146.392.309.032-.12-.35c-.1-.287-.144-.354-.241-.447v-.005a.375.375 0 0 0 .148-.037c.132-.056.22-.212.239-.399.018-.165-.022-.368-.163-.457-.037-.021-.096-.053-.288-.074l-.543-.057-.181 1.704Zm.408-1.389.202.02c.172.02.206.023.25.066.043.043.055.112.048.181-.006.05-.027.159-.12.19a.77.77 0 0 1-.234-.004l-.192-.02.046-.433ZM40.136 74.142c.019.089.068.325.3.31.182-.01.245-.143.238-.252-.008-.144-.101-.169-.342-.231-.13-.034-.42-.11-.443-.488-.012-.186.062-.483.439-.507.25-.016.487.101.523.487l-.26.031c-.016-.088-.045-.247-.25-.234-.077.005-.215.045-.206.184.007.11.09.153.3.204.2.05.47.117.498.538.012.207-.075.388-.182.462a.57.57 0 0 1-.299.094c-.137.01-.478.015-.564-.551l.248-.047ZM41.096 72.926l.255-.04.262 1.695-.255.04-.262-1.695ZM41.999 73.052l-.37.09-.068-.28.99-.242.068.281-.369.09.337 1.384-.25.061-.338-1.384ZM43.406 73.371l-.787-.766.284-.107.52.529.042-.738.279-.104-.094 1.098.25.672-.242.091-.252-.675ZM45.323 72.34c.223.325.61.643 1.01.372.373-.255.266-.71.014-1.08-.282-.413-.667-.62-1.015-.383-.33.224-.318.637-.009 1.09Zm.216-.16c-.142-.207-.281-.52-.039-.687.262-.178.512.123.622.284.28.409.155.612.043.69-.13.088-.27.044-.363-.015a.878.878 0 0 1-.263-.271ZM46.04 70.768l.658-.588.193.216-.465.415.271.303.401-.357.194.215-.402.36.484.542-.193.172-1.14-1.278ZM49.17 68.913c.098.095.403.395.175.748-.19.293-.602.309-1.05.018-.4-.259-.657-.641-.43-.993a.473.473 0 0 1 .378-.223c.108-.007.21.02.324.064l-.071.26c-.174-.074-.317-.04-.389.07-.174.269.22.524.313.585.136.087.278.162.4.177.105.012.212-.022.275-.118.093-.144-.01-.306-.15-.434l.225-.154ZM48.272 68.074l.099-.24.624.257.193-.47-.624-.257.098-.239 1.586.653-.1.237-.692-.284-.193.47.693.285-.098.24-1.586-.652ZM48.723 66.848l.068-.25 1.653.454-.068.249-1.653-.453ZM48.875 66.3l.048-.247 1.223-.293v-.003l-1.122-.22.046-.237 1.682.33-.05.256-1.195.288-.001.004 1.097.215-.046.236-1.682-.33ZM50.937 64.006l-1.756.34-.029.273 1.656.672.027-.276-.374-.144.05-.512.398-.07.028-.283Zm-.757.757-.616-.238.651-.112-.035.35ZM32.48 67.383c.01.023.023.044.033.066.044.087.09.174.139.26l.05.09c.05.088.103.174.155.261l.03.048.004.007c.059.092.12.183.181.272a7.143 7.143 0 0 1 4.788-1.833 7.16 7.16 0 0 1 2.438.42c.006.003.011.005.017.006a9.782 9.782 0 0 0 3.385.6c1.215 0 2.379-.221 3.453-.625l.03-.068.013-.033c.03-.072.057-.144.084-.218l.039-.1v-.002c.03-.085.058-.17.085-.253l.033-.102a7.07 7.07 0 0 0 .102-.364c.023-.089.043-.177.064-.268.007-.034.015-.067.021-.101.02-.091.036-.183.051-.274l.01-.061a7.717 7.717 0 0 1-4.712 1.596c-1.2 0-2.336-.272-3.35-.759-.047-.023-.094-.048-.142-.07l-.003-.003a6.248 6.248 0 0 0-2.739-.626 6.24 6.24 0 0 0-4.408 1.817l.006.014c.047.102.093.204.143.303ZM45.05 69.866a3.989 3.989 0 0 1-2.771-.215c-.02-.01-.037-.02-.057-.029a4.377 4.377 0 0 0-1.875-.418 4.378 4.378 0 0 0-3.719 2.064c.951.395 1.995.614 3.09.614 2.044 0 3.91-.762 5.333-2.014v-.002Z" clip-rule="evenodd"/><path fill="#004098" fill-rule="evenodd" d="M44.34 68.523a6.783 6.783 0 0 1-2.886-.642l-.05-.022a5.98 5.98 0 0 0-2.513-.549 6 6 0 0 0-4.751 2.331l.076.072.006.006.121.111.034.03.096.084c.03.023.057.048.085.07.027.023.052.046.08.067l.087.07c.028.02.055.043.084.064l.044.035a9.416 9.416 0 0 0 .435.307l.114.073c.03.02.06.037.09.056a5.057 5.057 0 0 1 4.23-2.28c.876 0 1.703.223 2.422.614.018.012.038.02.056.03.024.014.048.03.072.043.575.308 1.23.484 1.928.484a4.06 4.06 0 0 0 1.406-.249c.06-.062.116-.127.175-.191.016-.02.033-.037.05-.056a7.918 7.918 0 0 0 .394-.498l.063-.084c.05-.07.098-.14.146-.213l.062-.09c.006-.011.01-.02.017-.03a6.805 6.805 0 0 1-2.173.357Z" clip-rule="evenodd"/><path fill="#00A7EA" fill-rule="evenodd" d="M42.983 59.263h-.264v.524h-.53v-.524h-1.053v-.176l1.052-.877h.53v.877h.265v.176Zm-1.795.524h-1.584v-.174c0-.123.17-.279.51-.473l.036-.02c.339-.193.508-.35.508-.47v-.087c0-.05-.027-.09-.078-.125a.33.33 0 0 0-.185-.05h-.263c-.161 0-.25.058-.26.177h-.267c.041-.236.218-.355.527-.355h.528c.144 0 .268.035.373.104.103.069.155.152.155.247v.089c0 .12-.17.277-.51.47l-.035.02c-.338.193-.51.347-.51.457v.013h1.055v.177Zm-1.796-.612c0 .168-.09.312-.27.43a1.15 1.15 0 0 1-.653.182h-.395v-.177h.263c.145 0 .27-.035.372-.103.102-.07.155-.151.155-.248v-.176c-.02.12-.107.18-.263.18h-.264a.659.659 0 0 1-.37-.104c-.105-.067-.158-.15-.158-.246v-.35c0-.097.052-.18.158-.248a.642.642 0 0 1 .37-.105h.528c.144 0 .269.035.372.105.103.068.155.151.155.248v.612Zm-2.324.612h-.53v-1.222h-.263v-.178l.527-.177h.267v1.577Zm2.65-4.053a8.074 8.074 0 0 0-7.949 9.484 6.474 6.474 0 0 1 3.758-1.196 6.465 6.465 0 0 1 3.481 1.007 7.053 7.053 0 0 0 3.637 1.004 7.065 7.065 0 0 0 5.147-2.22v-.005a8.074 8.074 0 0 0-8.073-8.074Z" clip-rule="evenodd"/><path fill="#00A7EA" fill-rule="evenodd" d="M38.786 58.438a.322.322 0 0 0-.184-.05.315.315 0 0 0-.185.05c-.052.034-.077.076-.077.124v.351c0 .048.024.087.076.122.05.034.113.052.186.052a.326.326 0 0 0 .184-.052c.051-.036.078-.08.078-.125v-.35c0-.047-.027-.088-.078-.122ZM42.189 59.087v-.656l-.789.657h.789Z" clip-rule="evenodd"/></g><defs><filter id="a" width="154" height="157" x="0" y="0" color-interpolation-filters="sRGB" filterUnits="userSpaceOnUse"><feFlood flood-opacity="0" result="BackgroundImageFix"/><feColorMatrix in="SourceAlpha" result="hardAlpha" values="0 0 0 0 0 0 0 0 0 0 0 0 0 0 0 0 0 0 127 0"/><feOffset dy="16"/><feGaussianBlur stdDeviation="6.5"/><feColorMatrix values="0 0 0 0 0 0 0 0 0 0 0 0 0 0 0 0 0 0 0.03 0"/><feBlend in2="BackgroundImageFix" result="effect1_dropShadow_185_96"/><feBlend in="SourceGraphic" in2="effect1_dropShadow_185_96" result="shape"/></filter></defs></svg>