<svg xmlns="http://www.w3.org/2000/svg" xml:space="preserve" style="fill-rule:evenodd;clip-rule:evenodd;stroke-linejoin:round;stroke-miterlimit:2" viewBox="0 0 154 157"><path d="M35.592 51.039a13.973 13.973 0 0 0-4.471 3.015 14 14 0 0 0-3.015 4.471A13.973 13.973 0 0 0 27 64.001a14.012 14.012 0 0 0 4.121 9.947 14.02 14.02 0 0 0 9.946 4.119c1.899 0 3.741-.371 5.476-1.105a14.042 14.042 0 0 0 4.471-3.014 13.992 13.992 0 0 0 3.014-4.471 13.955 13.955 0 0 0 1.106-5.476c0-1.9-.371-3.741-1.106-5.476a13.982 13.982 0 0 0-3.014-4.471 14.012 14.012 0 0 0-9.947-4.121 14 14 0 0 0-5.475 1.106Zm.181 25.494a13.534 13.534 0 0 1-4.323-2.915 13.518 13.518 0 0 1-2.915-4.323 13.496 13.496 0 0 1-1.069-5.294c0-1.836.359-3.618 1.069-5.296a13.514 13.514 0 0 1 2.915-4.322 13.54 13.54 0 0 1 9.617-3.986 13.544 13.544 0 0 1 9.618 3.986 13.53 13.53 0 0 1 2.915 4.322 13.516 13.516 0 0 1 1.069 5.296c0 1.837-.359 3.618-1.069 5.294a13.534 13.534 0 0 1-2.915 4.323 13.539 13.539 0 0 1-9.618 3.982c-1.837 0-3.618-.358-5.294-1.067Z" style="fill:#7e181c" transform="translate(-68.968 -148.98) scale(3.55437)"/><path d="M37.017 54.415a10.327 10.327 0 0 0-3.305 2.229 10.373 10.373 0 0 0-3.047 7.355 10.349 10.349 0 0 0 3.047 7.356 10.344 10.344 0 0 0 3.305 2.229c1.284.544 2.644.818 4.049.818 1.405 0 2.767-.274 4.05-.818a10.352 10.352 0 0 0 3.307-2.229 10.375 10.375 0 0 0 3.047-7.356 10.386 10.386 0 0 0-3.047-7.355 10.336 10.336 0 0 0-3.307-2.229 10.332 10.332 0 0 0-4.05-.818 10.33 10.33 0 0 0-4.049.818Zm.124 18.88a10.043 10.043 0 0 1-3.208-2.162 10.048 10.048 0 0 1-2.954-7.134c0-1.361.267-2.682.793-3.927a10.015 10.015 0 0 1 2.161-3.206 10.04 10.04 0 0 1 3.208-2.161 9.98 9.98 0 0 1 3.925-.794c1.362 0 2.684.266 3.928.794a10.01 10.01 0 0 1 3.206 2.161 10.037 10.037 0 0 1 2.955 7.133c0 1.364-.266 2.684-.792 3.928a10.07 10.07 0 0 1-2.163 3.206 10.012 10.012 0 0 1-3.206 2.162 10.015 10.015 0 0 1-3.928.793 9.997 9.997 0 0 1-3.925-.793ZM36.269 76.024l-.02.009a13.966 13.966 0 0 0-.957-.434l-.008-.021.035-.077.02-.006.132.045a.647.647 0 0 0 .148.042c.018 0 .037-.011.059-.03.034-.034.114-.189.241-.47l.142-.315c.044-.095.096-.215.158-.362l.041-.096c.02-.042.02-.067.002-.075a.345.345 0 0 0-.088-.005c-.14.001-.26.003-.361.006l-.01-.016c.016-.05.032-.107.045-.173l.006-.009c.263.04.563.07.901.089l.018.031-.114.216c-.02.035-.067.134-.144.293l-.229.497c-.16.355-.241.549-.241.581-.001.022.007.041.023.051.025.023.1.067.226.133l.01.019-.035.077ZM40.102 76.319a.616.616 0 0 1-.104.278.652.652 0 0 1-.444.272.914.914 0 0 1-.282 0c-.233-.032-.4-.134-.504-.309a.432.432 0 0 1-.047-.288.44.44 0 0 1 .196-.322c.037-.023.114-.057.233-.095-.192-.132-.276-.294-.25-.485.029-.216.159-.358.389-.43a.806.806 0 0 1 .332-.021c.176.023.311.082.402.175a.364.364 0 0 1 .106.315c-.023.166-.139.289-.349.367.137.074.23.155.278.245.045.078.059.18.044.298Zm-.366.113c.018-.132-.035-.243-.159-.326a2.51 2.51 0 0 0-.261-.159l-.04-.02c-.16.08-.249.197-.27.35a.369.369 0 0 0 .026.22.39.39 0 0 0 .315.229.345.345 0 0 0 .26-.061.33.33 0 0 0 .129-.233Zm.126-1.019a.288.288 0 0 0-.062-.23.35.35 0 0 0-.233-.115.306.306 0 0 0-.232.048.247.247 0 0 0-.1.17c-.009.069.016.138.073.204.032.036.08.072.143.111.022.015.057.034.102.061l.079.044a.353.353 0 0 0 .23-.293ZM43.369 75.611a1.17 1.17 0 0 1-.063.63 1.149 1.149 0 0 1-.905.694l-.135-.074.03-.059c.032.005.07.005.117-.001a.62.62 0 0 0 .507-.409c.051-.122.073-.296.067-.517-.134.147-.212.224-.229.229a.752.752 0 0 1-.214.063.445.445 0 0 1-.353-.09.56.56 0 0 1-.194-.379c-.038-.27.041-.484.233-.643a.684.684 0 0 1 .356-.141c.275-.04.487.05.635.263.074.106.122.25.148.434Zm-.421-.087c-.025-.171-.07-.293-.137-.369a.27.27 0 0 0-.243-.093c-.119.018-.191.086-.217.208a.642.642 0 0 0-.004.225.555.555 0 0 0 .134.317c.065.065.146.09.24.076.122-.015.196-.075.224-.177a.54.54 0 0 0 .003-.187ZM46.635 75.034a.616.616 0 0 1 .057.29.657.657 0 0 1-.24.463.862.862 0 0 1-.242.146c-.216.093-.411.093-.589-.002a.44.44 0 0 1-.19-.22.441.441 0 0 1 0-.379c.019-.039.069-.107.15-.203-.234-.013-.389-.108-.465-.283-.088-.2-.05-.39.111-.571a.79.79 0 0 1 .272-.191c.162-.07.308-.091.434-.058.12.031.205.104.254.216.068.154.031.319-.109.494a.66.66 0 0 1 .365.064.483.483 0 0 1 .192.234Zm-.675-.65a.285.285 0 0 0-.172-.165.344.344 0 0 0-.258.023.308.308 0 0 0-.173.16.24.24 0 0 0 .002.196c.029.066.086.11.169.138a.649.649 0 0 0 .179.021h.118l.09-.005a.349.349 0 0 0 .045-.368Zm.422.936c-.054-.122-.156-.189-.306-.198a2.412 2.412 0 0 0-.306.002l-.044.002c-.095.151-.111.298-.049.439.035.081.08.139.136.176.124.081.252.09.387.031a.338.338 0 0 0 .192-.188.338.338 0 0 0-.01-.264ZM29.136 67.602a.53.53 0 0 1 .275-.035.507.507 0 0 1 .236.098.848.848 0 0 1 .194.213c.056.086.107.187.151.303l.054.139.486-.184a.148.148 0 0 0 .069-.046.122.122 0 0 0 .027-.083.38.38 0 0 0-.01-.088.701.701 0 0 0-.021-.101l.096-.037.362.948-.096.035-.047-.089a.4.4 0 0 0-.047-.077c-.025-.026-.05-.042-.073-.045a.207.207 0 0 0-.084.015l-1.222.466a.174.174 0 0 0-.068.044c-.017.017-.027.045-.028.084a.517.517 0 0 0 .009.101c.007.04.012.071.018.09l-.096.037-.364-.955c-.086-.223-.114-.405-.085-.542a.394.394 0 0 1 .264-.291Zm.241.45c-.129.05-.216.112-.259.189-.043.078-.039.181.012.315l.038.102.76-.291-.02-.052c-.05-.131-.119-.22-.208-.267-.088-.047-.195-.045-.323.004ZM28.643 64.691l.011.102a.702.702 0 0 0-.197.152c-.065.071-.1.135-.106.198a.55.55 0 0 0 .001.107c.004.046.008.085.012.113l.031.266.71-.083-.022-.188a.458.458 0 0 0-.032-.125.24.24 0 0 0-.077-.098.587.587 0 0 0-.246-.071l-.011-.102.765-.089.013.102a.56.56 0 0 0-.133.054.4.4 0 0 0-.107.073.215.215 0 0 0-.052.107.509.509 0 0 0-.002.136l.022.188.532-.064a.567.567 0 0 0 .131-.026.134.134 0 0 0 .069-.056.185.185 0 0 0 .022-.093 1.075 1.075 0 0 0-.01-.153c-.004-.03-.007-.066-.015-.109a.668.668 0 0 0-.02-.109.573.573 0 0 0-.031-.099.152.152 0 0 0-.046-.067 1.106 1.106 0 0 0-.21-.117 1.405 1.405 0 0 0-.207-.079l-.011-.094.577-.031.201 1.727-.1.012-.023-.099a.493.493 0 0 0-.028-.087.134.134 0 0 0-.061-.06.157.157 0 0 0-.083-.007l-1.3.151a.158.158 0 0 0-.075.023c-.02.013-.035.038-.047.075a.465.465 0 0 0-.018.099c-.003.043-.006.073-.006.096l-.101.012-.191-1.632.471-.055ZM30.308 61.261l-.104.725a5.989 5.989 0 0 0-.465.235l-.476.276-.009.066.578.084a.196.196 0 0 0 .082-.005c.023-.009.043-.029.064-.061a.783.783 0 0 0 .059-.154l.101.015-.139.975-.102-.015c.003-.023.004-.056.007-.099a.351.351 0 0 0-.003-.092.12.12 0 0 0-.041-.072.192.192 0 0 0-.079-.031l-1.301-.184a.168.168 0 0 0-.079.004c-.022.006-.043.027-.065.059a.403.403 0 0 0-.044.093 1.097 1.097 0 0 0-.029.089l-.101-.015.144-1.008.102.016c-.001.026-.003.059-.003.097 0 .038.002.071.007.098.006.036.02.06.043.074a.183.183 0 0 0 .078.029l.62.088.008-.053c-.052-.075-.114-.165-.188-.266a4.356 4.356 0 0 0-.184-.239 3.064 3.064 0 0 0-.16-.177.224.224 0 0 0-.11-.066c-.016-.002-.029.013-.041.042a.733.733 0 0 0-.037.142l-.102-.014.114-.798.101.015c-.003.097.004.181.019.249a.63.63 0 0 0 .095.211c.07.103.131.188.184.256l.199.263c.114-.067.251-.15.414-.244.163-.095.322-.19.477-.285a1.01 1.01 0 0 0 .116-.085.514.514 0 0 0 .096-.113.3.3 0 0 0 .032-.07c.01-.027.015-.05.02-.069l.102.014ZM31.008 59.421l-.384.955-.095-.037.032-.1a.37.37 0 0 0 .02-.093c0-.035-.007-.062-.023-.08a.166.166 0 0 0-.069-.048l-1.221-.488a.16.16 0 0 0-.079-.013.116.116 0 0 0-.075.041.556.556 0 0 0-.06.076 1.383 1.383 0 0 0-.056.09l-.095-.037.382-.956.095.038-.026.096a.523.523 0 0 0-.018.099c-.002.037.006.062.024.083a.162.162 0 0 0 .07.044l1.219.489a.151.151 0 0 0 .08.014.117.117 0 0 0 .075-.043.363.363 0 0 0 .056-.074.977.977 0 0 0 .052-.095l.096.039ZM31.307 55.658c-.013.021-.029.05-.05.093a.266.266 0 0 0-.029.127c0 .041.02.083.059.127.038.045.103.099.192.163l1.08.776-.136.188-1.837.101.706.505c.089.064.159.106.213.128a.22.22 0 0 0 .14.013.298.298 0 0 0 .108-.06c.042-.034.074-.061.096-.083l.083.059-.464.648-.084-.059c.017-.03.035-.065.053-.106a.334.334 0 0 0 .027-.116.2.2 0 0 0-.053-.124c-.035-.04-.1-.095-.199-.165l-.714-.513a.405.405 0 0 0-.112-.056.265.265 0 0 0-.118-.008.327.327 0 0 0-.118.046.528.528 0 0 0-.111.086l-.083-.06.407-.566 1.612-.087-.574-.412a1.001 1.001 0 0 0-.216-.127.222.222 0 0 0-.14-.016.3.3 0 0 0-.106.062.837.837 0 0 0-.095.079l-.08-.058.461-.644.082.059ZM34.52 54.13l-.051.052a.663.663 0 0 0-.047.065c-.022.032-.027.06-.02.089.008.026.02.051.038.074l.135.168c.028.033.051.062.068.08.018.021.038.047.064.076a1.536 1.536 0 0 1-.208.356 1.764 1.764 0 0 1-.322.348 1.136 1.136 0 0 1-.333.189.847.847 0 0 1-.709-.054 1.038 1.038 0 0 1-.317-.272 1.115 1.115 0 0 1-.195-.358.886.886 0 0 1 .087-.74c.07-.117.165-.224.285-.32a1.19 1.19 0 0 1 .477-.228l.018-.107.089-.073.436.522-.09.072a1.224 1.224 0 0 0-.469-.206.468.468 0 0 0-.366.105.43.43 0 0 0-.164.413c.021.172.111.357.271.556.17.212.339.351.505.414.165.064.312.045.439-.057a.596.596 0 0 0 .138-.154.463.463 0 0 0 .057-.148l-.235-.293a.132.132 0 0 0-.062-.049c-.022-.011-.051-.011-.088-.002a1.178 1.178 0 0 0-.182.086l-.064-.078.751-.606.064.08ZM38.84 51.355l-.103.046a.312.312 0 0 0-.104.078c-.027.029-.04.073-.038.131.001.057.017.14.045.25l.179.666a.626.626 0 0 1-.074.525c-.102.155-.262.262-.481.321-.256.066-.469.063-.64-.015a.608.608 0 0 1-.338-.425l-.245-.914a.134.134 0 0 0-.037-.071.148.148 0 0 0-.079-.041c-.025-.005-.055-.006-.088-.005-.034.003-.062.005-.082.008l-.026-.099.939-.251.026.099a.654.654 0 0 0-.079.032.547.547 0 0 0-.079.042.104.104 0 0 0-.053.069.209.209 0 0 0 .006.085l.24.901c.049.178.122.297.221.356.101.06.226.069.376.03a.466.466 0 0 0 .309-.226c.06-.112.067-.254.021-.426l-.161-.607a1.058 1.058 0 0 0-.087-.237.223.223 0 0 0-.099-.097.334.334 0 0 0-.128-.019.994.994 0 0 0-.123.003l-.027-.102.783-.209.026.102ZM42.343 51.223l-.105.011a.275.275 0 0 0-.122.05c-.034.024-.057.064-.071.121-.015.056-.022.14-.023.252l-.019 1.328-.232-.002-1.132-1.452-.013.87c-.001.108.005.19.018.246a.23.23 0 0 0 .068.125c.023.02.061.036.113.052.05.016.09.027.122.032l-.001.103-.797-.012.001-.1c.034-.004.072-.011.116-.019a.314.314 0 0 0 .111-.045.2.2 0 0 0 .072-.113 1.15 1.15 0 0 0 .021-.257l.012-.88a.336.336 0 0 0-.018-.124.247.247 0 0 0-.061-.101.324.324 0 0 0-.104-.072.642.642 0 0 0-.134-.041v-.104l.698.01.993 1.273.01-.705a1.087 1.087 0 0 0-.018-.251.236.236 0 0 0-.069-.123.353.353 0 0 0-.11-.052c-.05-.016-.089-.025-.12-.033l.003-.099.792.011-.001.101ZM44.342 53.442l-.998-.257.026-.101c.022.005.056.013.102.02.045.009.076.011.096.009a.12.12 0 0 0 .076-.035.168.168 0 0 0 .038-.073l.33-1.274a.186.186 0 0 0 .003-.081.127.127 0 0 0-.051-.069.845.845 0 0 0-.181-.094l.025-.098.997.257-.026.099a3.008 3.008 0 0 0-.096-.014c-.039-.005-.073-.007-.102-.005a.11.11 0 0 0-.079.034.224.224 0 0 0-.037.074l-.329 1.273a.174.174 0 0 0-.003.081.14.14 0 0 0 .051.071.506.506 0 0 0 .083.045l.099.04-.024.098ZM47.993 53.193a.517.517 0 0 0-.08-.024c-.028-.006-.058-.007-.089-.006a.305.305 0 0 0-.109.022.447.447 0 0 0-.102.061c-.052.042-.127.101-.224.181-.097.08-.208.167-.332.269-.111.09-.232.191-.363.301l-.378.312-.23-.122.097-.979c.033-.332.056-.563.065-.693a.369.369 0 0 0-.004-.114.447.447 0 0 0-.1-.17.696.696 0 0 0-.072-.057l.049-.091.887.47-.046.089a.882.882 0 0 0-.19-.06c-.037-.005-.058.001-.068.017a.096.096 0 0 0-.01.03l-.01.046c-.011.081-.024.215-.042.405-.017.19-.045.479-.085.862l.457-.387.324-.281c.046-.04.087-.077.122-.115a.338.338 0 0 0 .07-.085c.014-.024.006-.054-.022-.091a.765.765 0 0 0-.18-.141l.049-.093.665.352-.049.092ZM50.01 55.349l-.075-.07a.658.658 0 0 0 .05-.245c.003-.094-.012-.167-.048-.217a.45.45 0 0 0-.073-.08c-.033-.035-.061-.06-.083-.081l-.197-.18-.482.527.139.13a.48.48 0 0 0 .106.073.242.242 0 0 0 .124.024.644.644 0 0 0 .232-.108l.075.068-.52.571-.076-.069a.656.656 0 0 0 .097-.254c0-.042-.01-.08-.03-.115a.507.507 0 0 0-.088-.104l-.14-.127-.361.395a.638.638 0 0 0-.081.107.127.127 0 0 0-.015.086.169.169 0 0 0 .043.084c.025.03.06.067.109.112l.081.072a1.04 1.04 0 0 0 .176.124.153.153 0 0 0 .079.02c.058-.003.138-.02.234-.049.098-.031.168-.054.209-.076l.069.063-.415.401-1.282-1.171.07-.075c.018.015.045.034.08.06.034.024.06.039.078.046a.13.13 0 0 0 .085.007.189.189 0 0 0 .068-.05l.883-.965a.181.181 0 0 0 .041-.067c.007-.022.002-.051-.014-.089a1.102 1.102 0 0 0-.108-.161l.068-.075 1.212 1.107-.32.351ZM50.973 58.991l-.386-.6a8.404 8.404 0 0 0 .371-.963l-.038-.057-.47.305a.131.131 0 0 0-.058.056.134.134 0 0 0-.009.087.702.702 0 0 0 .06.16l-.087.056-.538-.834.087-.056.064.08a.342.342 0 0 0 .063.064.13.13 0 0 0 .08.028.152.152 0 0 0 .078-.031l1.101-.708a.21.21 0 0 0 .056-.055c.014-.019.016-.05.01-.088a1.917 1.917 0 0 0-.065-.185l.086-.055.564.874c.126.197.191.365.196.506a.364.364 0 0 1-.18.332.443.443 0 0 1-.325.076.744.744 0 0 1-.34-.185c-.033.09-.07.196-.112.317-.043.12-.084.245-.126.373a1.713 1.713 0 0 0-.044.161.297.297 0 0 0-.009.153 1.653 1.653 0 0 0 .056.132l-.085.057Zm.678-1.494c.105-.067.161-.146.172-.236.011-.088-.019-.185-.088-.293l-.057-.087-.651.421.053.084a.41.41 0 0 0 .245.194c.095.023.204-.005.326-.083ZM51.492 60.513a1.171 1.171 0 0 1-.047-.582l-.116-.058-.034-.105.631-.227.035.108a1.878 1.878 0 0 0-.159.154c-.054.06-.098.124-.135.19a.694.694 0 0 0-.078.215.488.488 0 0 0 .021.236.4.4 0 0 0 .168.231.28.28 0 0 0 .237.02.23.23 0 0 0 .146-.133.682.682 0 0 0 .041-.277l-.001-.213a3.623 3.623 0 0 1 .003-.184.562.562 0 0 1 .114-.33.534.534 0 0 1 .266-.184.455.455 0 0 1 .211-.023.556.556 0 0 1 .214.073.683.683 0 0 1 .185.171.958.958 0 0 1 .19.551c.002.095-.003.17-.013.229l.098.05.037.109-.596.212-.036-.108a2.59 2.59 0 0 0 .166-.154.904.904 0 0 0 .131-.162.524.524 0 0 0 .068-.178.411.411 0 0 0-.021-.202.34.34 0 0 0-.148-.194.25.25 0 0 0-.214-.023.228.228 0 0 0-.146.131.646.646 0 0 0-.04.269c-.001.069 0 .139.001.21 0 .071-.001.133-.004.19a.636.636 0 0 1-.099.337.491.491 0 0 1-.272.196.539.539 0 0 1-.464-.065.77.77 0 0 1-.197-.19 1.074 1.074 0 0 1-.143-.29ZM52.099 63.365l-.104-1.024.1-.011.019.103a.31.31 0 0 0 .026.091c.015.032.035.053.058.062a.172.172 0 0 0 .082.009l1.308-.135a.171.171 0 0 0 .077-.025c.021-.013.037-.037.047-.071a.948.948 0 0 0 .025-.203l.103-.01.105 1.024-.101.01-.021-.095a.478.478 0 0 0-.032-.097c-.014-.032-.034-.054-.059-.062a.162.162 0 0 0-.083-.009l-1.306.135a.172.172 0 0 0-.079.026c-.021.013-.036.038-.047.072a.8.8 0 0 0-.015.199l-.103.011ZM53.236 66.361l.013-.101c.082-.016.17-.05.267-.098.097-.049.152-.097.165-.147l.021-.101c.007-.041.013-.075.016-.102l.006-.063-1.442-.172a.206.206 0 0 0-.084.008.12.12 0 0 0-.065.06 1.022 1.022 0 0 0-.064.195l-.102-.011.122-1.031.101.012-.001.107a.314.314 0 0 0 .007.095c.01.035.025.061.047.075.022.015.05.022.082.027l1.455.173.007-.062c.004-.028.006-.064.008-.106.003-.04.004-.073.004-.102-.001-.05-.043-.111-.126-.18a1.137 1.137 0 0 0-.236-.159l.011-.102.528.063-.212 1.785-.528-.063ZM52.633 69.572a.406.406 0 0 0-.028-.288 1.41 1.41 0 0 0-.072-.12c-.057-.082-.12-.169-.188-.262-.07-.093-.144-.195-.227-.304a.766.766 0 0 0-.128-.144.939.939 0 0 0-.187-.087l-.245-.095a.18.18 0 0 0-.083-.013.134.134 0 0 0-.078.043.742.742 0 0 0-.057.079.703.703 0 0 0-.053.093l-.097-.036.372-.969.096.035c-.008.024-.016.058-.028.102a.545.545 0 0 0-.019.098.135.135 0 0 0 .029.082.2.2 0 0 0 .072.047l.306.117.071.025c.02.006.039.011.055.011.017 0 .04-.001.07-.006l.114-.018c.134-.021.261-.04.382-.062.121-.02.234-.041.341-.06a.55.55 0 0 0 .239-.102c.02-.018.04-.04.059-.071a.738.738 0 0 0 .045-.079l.095.038-.38.991-.096-.036a.904.904 0 0 0 .052-.192c.003-.036-.006-.059-.024-.065-.009-.004-.029-.004-.06-.004-.031.002-.081.008-.149.016-.064.007-.151.021-.265.036l-.4.069c.186.249.317.419.391.514a.76.76 0 0 0 .147.157c.028.009.055.001.083-.027a.563.563 0 0 0 .09-.153l.095.036-.244.64-.096-.036Z" style="fill:#7e181c" transform="translate(-68.968 -148.98) scale(3.55437)"/><path d="M50.636 64c0 5.284-4.283 9.568-9.567 9.568-5.286 0-9.57-4.284-9.57-9.568a9.568 9.568 0 0 1 9.57-9.569c5.284 0 9.567 4.283 9.567 9.569Zm-3.621 4.863a13.516 13.516 0 0 0-1.073-2.027 9.223 9.223 0 0 0-1.345-1.649 6.01 6.01 0 0 0-1.629-1.133 4.669 4.669 0 0 0-1.144-.36v-.444a.757.757 0 1 0-1.512 0v.444a4.642 4.642 0 0 0-1.144.36 6.065 6.065 0 0 0-1.631 1.133 9.173 9.173 0 0 0-1.343 1.649 13.336 13.336 0 0 0-1.073 2.027.734.734 0 0 0 .383.962c.371.158.8-.014.96-.385.573-1.338 1.293-2.442 2.083-3.195.568-.543 1.159-.896 1.765-1.056v1.189c0 .409-.301.569-.44.653l-.185.113a3.776 3.776 0 0 0-.904.85c-.544.697-.967 1.647-1.191 2.675a.73.73 0 1 0 1.427.311c.18-.818.504-1.56.916-2.088.209-.269.637-.722 1.132-.722.496 0 .923.453 1.133.722.412.528.738 1.27.916 2.088a.73.73 0 1 0 1.428-.311c-.224-1.028-.648-1.978-1.191-2.675a3.85 3.85 0 0 0-.903-.85 31.13 31.13 0 0 1-.188-.113c-.137-.084-.438-.244-.438-.653v-1.189c.605.16 1.195.513 1.764 1.056.789.753 1.509 1.857 2.083 3.195a.733.733 0 0 0 .96.385.735.735 0 0 0 .384-.962Zm-5.299-12.128v4.727c0 .249.18.61.571.693.877.186 1.879.698 2.783 1.445.888.733 1.722 1.694 2.479 2.862a.73.73 0 1 0 1.226-.798c-.838-1.289-1.772-2.362-2.774-3.191-.891-.736-1.821-1.262-2.773-1.572v-1.678c1.37.376 2.799 1.156 4.029 2.209a.731.731 0 0 0 .95-1.11 13.094 13.094 0 0 0-2.588-1.728 10.532 10.532 0 0 0-2.391-.88v-.979a.756.756 0 0 0-1.512 0Zm-2.052-.756a.756.756 0 0 0-.756.756v.979c-.789.181-1.591.475-2.392.88a13.094 13.094 0 0 0-2.588 1.728.73.73 0 1 0 .951 1.11c1.229-1.053 2.657-1.833 4.029-2.209v1.678c-.952.31-1.882.836-2.774 1.572-1.002.829-1.936 1.902-2.774 3.191a.734.734 0 0 0 .215 1.013.73.73 0 0 0 1.01-.215c.758-1.168 1.591-2.129 2.479-2.862.905-.747 1.908-1.259 2.785-1.445a.73.73 0 0 0 .57-.693v-4.727a.756.756 0 0 0-.755-.756Z" style="fill:#7e181c" transform="translate(-68.968 -148.98) scale(3.55437)"/></svg>