<svg xmlns="http://www.w3.org/2000/svg" width="154" height="157" fill="none"><g filter="url(#a)"><path fill="#fff" d="M13 0h128v128H13z"/><path fill="#273B92" fill-rule="evenodd" d="M81.936 55.555c-.16-.239-.265-.515-.464-.668-.484-.374-.264-.64.086-.891.15-.107.346-.155.526-.218.488-.172.514-.566.482-.989-.033-.444-.315-.487-.698-.546-.312-.048-.602-.305-.877-.503-.198-.142-.341-.359-.534-.51-.48-.378-1.073-.577-1.59-.254-.522.325-.467.954-.36 1.515.114.59-.158.9-.701 1.096a12.67 12.67 0 0 0-1.737.782c-.178.096-.338.374-.359.585-.066.642.944 1.387 1.667 1.222.386-.087.746-.285 1.119-.432-.125.23-.295.412-.505.51-.662.311-1.35.568-2.003.897-.184.092-.4.37-.385.543.014.181.279.469.455.485.537.05 1.085-.004 1.627-.028.199-.01.396-.048.594-.073-1.044.779-2.1 1.434-3.152 2.096-1.378.867-2.744 1.754-4.135 2.601-.626.382-1.311.667-1.949 1.033-.41.235-.65.637-.361 1.072.649.978 1.222 1.437 2.206.68 1.761-1.358 3.476-2.775 5.203-4.174.321-.261.61-.563.913-.846l.15.11c-.35 1.16-.768 2.306-1.027 3.486-.169.77-.148 1.591-.128 2.386.007.25.231.601.454.713.29.145.707.195 1.007.097.177-.059.31-.48.327-.747.044-.725.015-1.455.015-2.297.215.14.339.282.477.298.292.034.663.103.862-.04.137-.098.116-.552.025-.794-.075-.201-.346-.337-.546-.479-.168-.119-.359-.206-.7-.397.666-.193 1.31-.093 1.447-.767.14-.683-.376-.96-.858-1.317.308-.084.633-.164.872-.055.153.07.245.415.252.64.03.89-.024 1.785.025 2.673.059 1.09.075 2.11-1.294 2.438-.062.015-.088.496-.065.503.668.172 1.338.365 2.02.438.569.06.834-.325.835-.883.005-1.7-.01-3.4.026-5.1.01-.474.2-.941.246-1.418.029-.292.044-.69-.122-.864-.156-.165-.572-.177-.843-.116-.391.088-.753.303-1.128.464l-.135-.238c1.053-.682 2.096-1.385 3.168-2.037.4-.242.906-.352.744-.98-.186-.718-.41-.837-1.174-.702ZM106.473 62.573c.55.826 1.049 1.658 1.634 2.422.285.372.698.685 1.117.9.263.136.697.154.96.028.505-.242.98-.584 1.395-.964.221-.202.291-.57.429-.862-.27-.115-.534-.303-.814-.33-.818-.08-1.654-.055-2.379-.526a45.2 45.2 0 0 1-1.731-1.169c-.582-.415-.542-.642.118-.956.917-.436 1.832-.876 2.741-1.33.408-.204.459-.551.357-.974-.13-.537-.581-.638-.976-.638-.274 0-.578.25-.814.451-.353.302-.644.676-.992.983-.093.083-.353.102-.439.03-.099-.08-.14-.3-.12-.448.169-1.234.338-2.47.545-3.697.166-.976-.199-1.762-.84-2.423-.198-.205-.61-.335-.884-.285-.152.028-.306.497-.316.773-.072 1.965-.104 3.931-.161 5.897-.007.25-.054.512-.144.745-.063.162-.204.352-.356.409-.68.257-1.317.651-2.124.462-.534-.126-.81.219-.679.755.064.259.202.522.371.73.573.703 1.239.716 1.871.082.172-.173.378-.312.667-.548-.175 1.407-1.001 2.435-2.241 2.051-.362-.113-.892-.22-1.059.366-.131.459.255.924.862 1.06 1.148.256 2.174.09 2.857-.978.402-.63.741-1.3 1.145-2.016Z" clip-rule="evenodd"/><path fill="#273B92" fill-rule="evenodd" d="M81.936 55.555c.764-.135.988-.017 1.174.703.162.627-.345.737-.744.98-1.073.651-2.115 1.354-3.168 2.036l.135.238c.375-.16.737-.376 1.128-.464.27-.06.687-.049.843.116.166.174.15.572.122.864-.047.477-.236.944-.246 1.418-.036 1.7-.02 3.4-.026 5.1-.001.558-.266.944-.834.883-.682-.073-1.353-.266-2.02-.438-.024-.007.002-.488.064-.503 1.369-.329 1.353-1.348 1.293-2.438-.048-.888.005-1.782-.024-2.672-.007-.226-.099-.572-.252-.641-.24-.11-.564-.03-.872.055.482.358.998.634.858 1.317-.136.674-.781.574-1.447.767.341.191.532.278.7.397.2.142.471.278.546.479.091.242.112.696-.025.795-.2.142-.57.073-.862.039-.138-.016-.262-.158-.477-.298 0 .842.03 1.572-.015 2.297-.016.266-.15.688-.327.747-.3.098-.718.048-1.007-.097-.223-.112-.447-.463-.454-.713-.02-.795-.041-1.617.128-2.386.259-1.18.677-2.326 1.027-3.486l-.15-.11c-.304.283-.592.585-.913.846-1.727 1.4-3.442 2.816-5.203 4.173-.984.758-1.557.299-2.206-.678-.29-.436-.05-.838.361-1.073.638-.366 1.323-.65 1.95-1.033 1.39-.847 2.756-1.734 4.134-2.6 1.052-.663 2.108-1.318 3.152-2.096-.198.024-.395.063-.594.072-.542.024-1.09.077-1.627.028-.176-.016-.44-.304-.456-.485-.014-.174.202-.45.386-.543.652-.329 1.34-.586 2.003-.897.21-.098.38-.28.505-.51-.373.148-.733.345-1.119.432-.723.165-1.733-.58-1.667-1.222.022-.21.18-.489.359-.585a12.67 12.67 0 0 1 1.737-.782c.543-.197.815-.506.702-1.096-.108-.561-.163-1.19.36-1.515.516-.323 1.11-.124 1.59.254.192.151.335.368.533.51.275.198.565.455.877.503.383.059.665.102.698.546.032.423.006.817-.482.989-.18.063-.375.11-.526.218-.35.25-.57.517-.086.891.2.153.305.43.465.668ZM121.495 55.624l-.015-.283c-.275-.357-.594-.261-.889-.018-.064.053-.016.241-.02.367l.924-.066Zm2.873 2.493c-.619-.277-2.509.86-3.111 1.765l3.111-1.765Zm-2.901.074c-1.41.062-1.927 1.192-2.731 2.05.48.018 2.654-1.637 2.731-2.05Zm.978-.794.143.211c.204-.072.492-.083.597-.228a48.111 48.111 0 0 0 1.834-2.727c.06-.098-.121-.486-.27-.55-.475-.2-1.22.423-1.064.905.253.778-.154 1.246-.629 1.725-.212.213-.408.442-.611.664Zm-1.543 2.591c-.675.647-1.35 1.295-2.026 1.94-.456.435-.862.948-1.593.922-.443-.017-.845-.041-1.039-.546-.188-.487-.033-.886.298-1.211.791-.778 1.609-1.53 2.387-2.267-.358-.284-.791-.47-.94-.79-.15-.321-.027-.775-.007-1.17.015-.294.029-.592.093-.876.059-.26.185-.504.282-.755.269.167.566.302.797.51.152.136.211.376.398.525-.028-1.14.11-2.299-.989-3.101-.185-.135-.107-.632-.15-.962.295-.021.671-.166.869-.037.488.319.875.789 1.341 1.147.226.174.605.39.795.31.243-.105.487-.477.518-.757.113-1.03.325-1.333 1.054-1.259.743.077 1.106.623.975 1.622.374-.234.675-.43.984-.613.687-.407 1.464-.011 1.511.781.05.85-.2 1.569-.895 2.133-.572.465-.548.597.088.93 1.03.539.961.932.311 1.632-.487.522-.866 1.174-1.71 1.2-.099.003-.212.219-.283.354-.297.565-.581 1.138-.892 1.753.042 0 .188.022.327-.003.897-.164 1.998.63 1.989 1.538-.002.219-.436.578-.711.62-.58.09-1.192.063-1.777-.015-.473-.062-.557.119-.551.512.017 1.06.024 2.12.02 3.18-.002.23-.02.486-.123.68-.106.206-.315.481-.494.493-.215.015-.471-.188-.665-.348-.406-.335-.775-.714-1.174-1.057-.224-.193-.492-.337-.716-.531-.32-.278-.9-.546-.544-1.044.312-.435.725-.057 1.107.15.287.156.739.242 1.009.12.205-.093.265-.556.339-.866.042-.178-.004-.381-.031-.569-.08-.529-.333-.704-.833-.412-.656.382-1.304.786-1.99 1.106a1.868 1.868 0 0 1-1.079.14c-.164-.031-.421-.547-.348-.666.23-.374.546-.758.924-.968.676-.375 1.435-.598 2.135-.937.499-.241.958-.568 1.442-.86-.251-.229-.637-.415-.685-.665-.05-.262.223-.587.355-.883l-.103-.13ZM94.796 61.423l-.59.44c.175.118.367.35.522.326.189-.027.346-.27.516-.42-.132-.1-.264-.203-.448-.346Zm.017-4.427c.43-.175.739-.28 1.026-.428.084-.043.165-.22.142-.307-.022-.079-.182-.155-.29-.17-.542-.078-.753.251-.878.905Zm-.21 5.906c-1.104-.069-2.803.6-2.93 1.133 1.273.137 2.661-.38 2.93-1.133Zm-6.755 2.204c.686-.325.867-.946 1.094-1.471.233-.542.294-1.157.442-1.737.465-1.817 1.233-3.355 3.105-4.197.535-.241.87-1.054 1.168-1.666.566-1.159 1.394-1.473 2.486-.82.375.225.718.315 1.127.069.514-.308.953-.116 1.266.333.225.323.181.649-.211.845-1.094.543-2.192 1.08-3.286 1.624-.11.055-.236.118-.305.213-.314.43-.062 1.725.386 2.01.195.126.406.228.61.341.508.284 1.08.486 1.02 1.272-.015.197.277.455.478.623.622.521.742 1.335.287 2.013-.603.899-1.54 1.297-2.484 1.68-.12.047-.305-.064-.46-.103.05-.16.05-.391.16-.47.578-.418 1.229-.756 1.517-1.462.088-.22.178-.496.12-.703-.093-.331-.343-.492-.661-.172-.254.256-.517.504-.762.769-.683.739-1.55.875-2.495.8-.716-.055-1.44-.05-2.15-.145-.474-.062-.637-.504-.294-.83.54-.513 1.13-.987 1.757-1.388.458-.294.815-.541.777-1.167-.033-.535.055-1.078.101-1.793-.308.313-.507.575-.763.755-.192.135-.531.296-.675.215-.475-.267-.645.02-.755.35-.309.912-.555 1.846-.867 2.756a51.415 51.415 0 0 1-1.128 3.024c-.22.532-1.282.714-1.917.388-.504-.258-.657-.721-.312-1.358.905-1.665 1.01-3.48 1.08-5.305.02-.552-.012-1.106.012-1.658.021-.47.27-.77.773-.726.622.055 1.255.72 1.153 1.348-.141.869-.42 1.717-.654 2.57-.238.872-.498 1.737-.734 2.61-.04.147-.006.314-.006.563ZM106.473 62.573c-.404.716-.743 1.386-1.145 2.015-.683 1.07-1.709 1.235-2.857.978-.607-.135-.993-.6-.862-1.059.167-.586.697-.479 1.059-.366 1.24.384 2.066-.644 2.241-2.05-.289.235-.495.374-.667.547-.632.634-1.298.62-1.871-.083a1.933 1.933 0 0 1-.371-.729c-.131-.536.145-.881.679-.755.807.19 1.444-.205 2.124-.462.152-.057.293-.247.356-.409.09-.233.137-.494.144-.745.057-1.966.089-3.932.161-5.897.01-.276.164-.745.316-.773.274-.05.686.08.884.285.641.661 1.006 1.447.84 2.423-.207 1.228-.376 2.462-.545 3.697-.02.148.021.368.12.449.086.07.346.052.439-.03.348-.308.639-.682.992-.984.236-.202.54-.45.814-.451.395 0 .846.101.976.638.102.423.051.77-.357.974-.909.454-1.824.894-2.741 1.33-.66.314-.7.54-.118.956a45.2 45.2 0 0 0 1.731 1.17c.725.47 1.561.446 2.379.525.28.027.544.215.814.33-.138.292-.208.66-.429.862-.415.38-.89.722-1.395.964-.263.126-.697.108-.96-.028-.419-.215-.832-.528-1.117-.9-.585-.764-1.084-1.596-1.634-2.422ZM71.44 76.461l.102.148c.052.075.101.144.148.204.046.061.096.12.149.174.053.055.103.1.15.134a.53.53 0 0 0 .135.072.377.377 0 0 0 .122.022c.106 0 .198-.02.275-.06a.931.931 0 0 0 .224-.163l.139.18c-.151.15-.291.258-.42.324a.977.977 0 0 1-.672.067.766.766 0 0 1-.214-.105 1.352 1.352 0 0 1-.236-.22 3.947 3.947 0 0 1-.302-.403l-.205-.304c-.481-.023-.845-.204-1.091-.542-.247-.338-.37-.82-.37-1.446 0-.431.066-.801.197-1.11.132-.31.32-.544.564-.706.244-.161.528-.242.85-.242.344 0 .634.076.868.228.235.151.412.375.53.67.12.294.179.653.179 1.076 0 .537-.096.977-.287 1.32-.191.343-.47.57-.835.682Zm-1.469-2c0 .594.087 1.045.26 1.354.172.31.425.464.757.464.21 0 .39-.067.537-.202.146-.134.256-.33.33-.59.073-.258.11-.56.11-.906 0-.422-.043-.77-.129-1.048-.086-.277-.203-.479-.352-.604a.78.78 0 0 0-.519-.189.803.803 0 0 0-.448.122.944.944 0 0 0-.31.346c-.082.15-.142.331-.18.544-.037.212-.056.449-.056.71ZM74.141 75.763c0 .13.004.224.013.284.009.06.023.107.044.142.02.035.05.064.09.087.039.023.103.046.192.07v.141h-1.223v-.142c.12-.03.2-.065.24-.103a.28.28 0 0 0 .08-.16c.013-.07.02-.176.02-.32v-2.506c0-.133-.005-.23-.015-.291a.364.364 0 0 0-.048-.142.247.247 0 0 0-.088-.081.977.977 0 0 0-.189-.068v-.142h1.223v.142a.796.796 0 0 0-.184.063.268.268 0 0 0-.09.08.356.356 0 0 0-.049.144c-.01.063-.016.162-.016.295v2.507ZM77.509 74.92a5.238 5.238 0 0 1 .322.597h.037c-.01-.118-.018-.353-.026-.703s-.012-.667-.012-.95v-.608c0-.133-.004-.23-.011-.293a.358.358 0 0 0-.042-.142.23.23 0 0 0-.084-.08.929.929 0 0 0-.187-.067v-.142h1.043v.142a.94.94 0 0 0-.184.063.255.255 0 0 0-.087.076.354.354 0 0 0-.05.139 1.854 1.854 0 0 0-.018.304v3.249h-.362l-1.614-2.707c-.1-.168-.172-.29-.215-.368a5.03 5.03 0 0 1-.119-.229h-.049c.014.149.023.418.03.807.005.39.008.777.008 1.164v.59c0 .13.004.225.013.285.008.06.023.107.043.142.02.035.05.064.09.087.04.023.104.046.193.07v.141H75.17v-.142c.12-.03.2-.065.24-.103a.28.28 0 0 0 .08-.16c.013-.07.02-.176.02-.32v-2.506c0-.133-.006-.23-.015-.291a.364.364 0 0 0-.048-.142.247.247 0 0 0-.089-.081.973.973 0 0 0-.188-.068v-.142h.907l1.432 2.388ZM81.994 76.473l-.226.06-.211-.225a1.479 1.479 0 0 1-.395.17 1.829 1.829 0 0 1-.472.056c-.489 0-.857-.168-1.104-.503-.247-.335-.37-.833-.37-1.494 0-.412.067-.773.202-1.084.135-.31.33-.55.582-.717.254-.167.551-.25.893-.25a4.278 4.278 0 0 1 1.072.135v.797h-.287a1.352 1.352 0 0 0-.185-.407.607.607 0 0 0-.256-.208.99.99 0 0 0-.379-.063.827.827 0 0 0-.553.203c-.159.135-.282.335-.37.599a3.038 3.038 0 0 0-.132.954c0 .38.038.703.112.971.074.269.185.471.332.607a.767.767 0 0 0 .542.205c.228 0 .397-.05.507-.15.11-.1.165-.252.165-.459v-.174c0-.174-.01-.3-.028-.376a.344.344 0 0 0-.097-.18.539.539 0 0 0-.228-.105v-.141h1.17v.141a.472.472 0 0 0-.156.08.292.292 0 0 0-.08.112.593.593 0 0 0-.038.163c-.006.065-.01.157-.01.277v1.006ZM85.88 75.763c0 .112.003.196.009.252a.515.515 0 0 0 .03.135.27.27 0 0 0 .048.082c.02.022.047.04.083.058a.945.945 0 0 0 .166.055v.142h-1.214v-.142a.646.646 0 0 0 .223-.09.26.26 0 0 0 .089-.15c.016-.068.024-.182.024-.342v-1.214h-1.61v1.214c0 .13.004.224.012.284.009.06.023.107.044.142.02.035.05.064.09.087.04.023.103.046.192.07v.141h-1.22v-.142c.12-.03.2-.065.24-.103a.28.28 0 0 0 .08-.16c.013-.07.02-.176.02-.32v-2.506c0-.133-.006-.23-.015-.291a.364.364 0 0 0-.048-.142.247.247 0 0 0-.088-.081.977.977 0 0 0-.189-.068v-.142h1.22v.142a.796.796 0 0 0-.184.063.268.268 0 0 0-.09.08.356.356 0 0 0-.049.144c-.01.063-.016.162-.016.295v1.026h1.611v-1.026c0-.168-.008-.283-.024-.345a.272.272 0 0 0-.083-.142.645.645 0 0 0-.229-.095v-.142h1.215v.142a.627.627 0 0 0-.227.09.26.26 0 0 0-.087.153c-.015.068-.023.18-.023.34v2.506ZM88.877 76.487v-.142a.934.934 0 0 0 .215-.063.235.235 0 0 0 .106-.097.345.345 0 0 0 .035-.167 1.05 1.05 0 0 0-.023-.213 2.6 2.6 0 0 0-.067-.257l-.107-.373h-1.35l-.099.284c-.05.142-.083.25-.098.324a.976.976 0 0 0-.024.2c0 .116.03.201.089.255.059.054.149.09.27.107v.142h-1.237v-.142a.437.437 0 0 0 .283-.188c.08-.108.158-.263.233-.464l1.208-3.208h.459l.985 3.231c.046.151.087.266.123.345.035.08.079.141.129.186.05.044.119.077.206.098v.142h-1.336Zm-1.113-1.565h1.211l-.55-1.869-.661 1.87ZM91.502 75.763c0 .13.005.224.013.284a.4.4 0 0 0 .043.142c.02.035.05.064.09.087.04.023.104.046.193.07v.141h-1.223v-.142c.12-.03.2-.065.24-.103a.28.28 0 0 0 .08-.16c.013-.07.02-.176.02-.32v-2.506c0-.133-.006-.23-.015-.291a.361.361 0 0 0-.048-.142.247.247 0 0 0-.088-.081.978.978 0 0 0-.189-.068v-.142h1.223v.142a.788.788 0 0 0-.184.063.267.267 0 0 0-.09.08.369.369 0 0 0-.049.144c-.01.063-.016.162-.016.295v2.507ZM98.065 75.12c0 .21-.02.392-.058.544a1.277 1.277 0 0 1-.165.386.985.985 0 0 1-.252.256c-.1.07-.222.126-.365.167-.143.04-.311.06-.504.06a2.03 2.03 0 0 1-.602-.078.925.925 0 0 1-.414-.256 1.065 1.065 0 0 1-.236-.42 2.182 2.182 0 0 1-.073-.616v-1.907c0-.15-.005-.252-.015-.306a.389.389 0 0 0-.041-.126.238.238 0 0 0-.08-.08.762.762 0 0 0-.194-.07v-.142h1.217v.142a.623.623 0 0 0-.226.09.26.26 0 0 0-.087.153 1.75 1.75 0 0 0-.023.34v2.05c0 .188.02.346.06.473a.7.7 0 0 0 .166.297.64.64 0 0 0 .255.154c.098.032.221.048.368.048a.842.842 0 0 0 .356-.071.64.64 0 0 0 .257-.216.86.86 0 0 0 .14-.357c.025-.14.038-.33.038-.568v-1.81a1.58 1.58 0 0 0-.025-.346.277.277 0 0 0-.08-.142.635.635 0 0 0-.234-.095v-.142h1.156v.142a.62.62 0 0 0-.23.095.266.266 0 0 0-.086.15 1.643 1.643 0 0 0-.023.337v1.863ZM101.328 74.92a5.246 5.246 0 0 1 .322.597h.038c-.01-.118-.019-.353-.026-.703-.008-.35-.012-.667-.012-.95v-.608c0-.133-.004-.23-.012-.293a.337.337 0 0 0-.042-.142.226.226 0 0 0-.084-.08.945.945 0 0 0-.186-.067v-.142h1.043v.142a.94.94 0 0 0-.184.063.25.25 0 0 0-.087.076.333.333 0 0 0-.051.139 1.82 1.82 0 0 0-.017.304v3.249h-.363l-1.614-2.707c-.1-.168-.172-.29-.214-.368a5.463 5.463 0 0 1-.119-.229h-.05c.014.149.024.418.03.807.005.39.008.777.008 1.164v.59c0 .13.005.225.013.285a.41.41 0 0 0 .044.142c.02.035.05.064.09.087.04.023.103.046.193.07v.141H98.99v-.142c.12-.03.2-.065.24-.103a.28.28 0 0 0 .08-.16c.012-.07.019-.176.019-.32v-2.506c0-.133-.005-.23-.015-.291a.363.363 0 0 0-.048-.142.246.246 0 0 0-.088-.081.978.978 0 0 0-.188-.068v-.142h.907l1.431 2.388ZM103.924 75.763c0 .13.005.224.013.284a.39.39 0 0 0 .044.142c.02.035.05.064.09.087a.812.812 0 0 0 .192.07v.141h-1.222v-.142a.593.593 0 0 0 .24-.103.273.273 0 0 0 .079-.16c.013-.07.02-.176.02-.32v-2.506c0-.133-.005-.23-.015-.291a.358.358 0 0 0-.048-.142.25.25 0 0 0-.088-.081c-.037-.02-.1-.043-.188-.068v-.142h1.222v.142a.8.8 0 0 0-.184.063.283.283 0 0 0-.09.08.367.367 0 0 0-.049.144c-.01.063-.016.162-.016.295v2.507ZM105.988 72.532v.142a.762.762 0 0 0-.203.058.237.237 0 0 0-.105.098.36.36 0 0 0-.034.171c0 .066.007.137.023.213.015.076.038.162.066.257l.678 2.364.832-2.382.035-.116a1.048 1.048 0 0 0 .052-.301c0-.116-.026-.2-.079-.254-.054-.053-.144-.09-.272-.108v-.142h1.218v.142a.506.506 0 0 0-.191.084.586.586 0 0 0-.144.176c-.047.082-.105.211-.172.389l-1.203 3.21h-.38l-.976-3.23a2.288 2.288 0 0 0-.137-.376.521.521 0 0 0-.127-.168.47.47 0 0 0-.192-.085v-.142h1.311ZM111.256 72.532v.875h-.284a2.647 2.647 0 0 0-.09-.25 1.09 1.09 0 0 0-.096-.18.48.48 0 0 0-.108-.115.355.355 0 0 0-.141-.06 1.025 1.025 0 0 0-.194-.015h-.916v1.518h.62a.452.452 0 0 0 .2-.036.295.295 0 0 0 .121-.123c.031-.058.062-.149.09-.273h.273v1.113h-.273a1.048 1.048 0 0 0-.089-.262.31.31 0 0 0-.118-.126.431.431 0 0 0-.204-.038h-.62v1.672h.901a.883.883 0 0 0 .231-.024.364.364 0 0 0 .152-.084.574.574 0 0 0 .113-.155c.033-.064.06-.13.082-.199.023-.069.053-.168.092-.3h.287l-.055 1.017h-2.684v-.142c.12-.03.2-.065.241-.103a.28.28 0 0 0 .079-.16c.013-.07.019-.176.019-.32v-2.506c0-.133-.005-.23-.014-.291a.374.374 0 0 0-.048-.142.25.25 0 0 0-.088-.081.992.992 0 0 0-.189-.068v-.142h2.71ZM112.844 74.769v.985c0 .14.005.24.016.303.01.063.026.11.047.142a.252.252 0 0 0 .088.078.95.95 0 0 0 .188.068v.142h-1.223v-.142c.12-.03.2-.065.241-.103a.28.28 0 0 0 .079-.16c.013-.07.019-.176.019-.32v-2.506c0-.133-.005-.23-.015-.291a.343.343 0 0 0-.048-.142.234.234 0 0 0-.088-.081.95.95 0 0 0-.188-.068v-.142h1.435c.451 0 .79.082 1.014.246.224.164.336.42.336.765 0 .265-.073.49-.219.675-.146.186-.365.33-.657.435v.023c.119.048.22.117.304.207.083.09.177.23.279.419l.261.475c.076.14.14.246.194.32.054.073.109.129.166.167.055.039.13.066.222.081v.142h-.802a3.4 3.4 0 0 1-.209-.33 12.504 12.504 0 0 1-.194-.36l-.255-.483a3.273 3.273 0 0 0-.19-.325.586.586 0 0 0-.136-.146.393.393 0 0 0-.134-.058 1.044 1.044 0 0 0-.212-.016h-.319Zm0-1.97v1.72h.327c.169 0 .305-.012.409-.036a.708.708 0 0 0 .503-.42c.053-.12.08-.269.08-.445a.99.99 0 0 0-.095-.458.624.624 0 0 0-.285-.278c-.128-.064-.3-.095-.516-.095-.174 0-.315.003-.423.011ZM115.82 75.586c.039.17.091.304.156.403a.6.6 0 0 0 .256.219.977.977 0 0 0 .402.07c.226 0 .4-.058.521-.176.12-.118.181-.29.181-.516a.788.788 0 0 0-.076-.365.833.833 0 0 0-.246-.278 3.38 3.38 0 0 0-.522-.305 2.905 2.905 0 0 1-.536-.329 1.124 1.124 0 0 1-.294-.349.881.881 0 0 1-.097-.411c0-.217.051-.404.152-.564a.986.986 0 0 1 .446-.37 1.65 1.65 0 0 1 .674-.13c.147 0 .29.008.431.023.14.016.315.05.525.105v.782h-.287c-.044-.17-.1-.302-.167-.397a.563.563 0 0 0-.238-.198.936.936 0 0 0-.354-.057.787.787 0 0 0-.337.07.537.537 0 0 0-.236.21.615.615 0 0 0-.088.335.75.75 0 0 0 .074.347c.05.095.126.183.231.264.104.081.259.172.464.272.247.124.439.239.575.345.136.106.242.228.318.364a.952.952 0 0 1 .115.477c0 .202-.032.374-.096.514a.886.886 0 0 1-.265.342 1.079 1.079 0 0 1-.406.191c-.157.04-.33.06-.517.06-.303 0-.653-.052-1.049-.154v-.794h.29ZM119.385 75.763c0 .13.004.224.012.284a.39.39 0 0 0 .044.142c.02.035.05.064.09.087.04.023.104.046.193.07v.141h-1.223v-.142a.593.593 0 0 0 .24-.103.28.28 0 0 0 .08-.16 2.02 2.02 0 0 0 .019-.32v-2.506c0-.133-.005-.23-.015-.291a.343.343 0 0 0-.048-.142.241.241 0 0 0-.088-.081.976.976 0 0 0-.188-.068v-.142h1.223v.142a.767.767 0 0 0-.184.063.277.277 0 0 0-.091.08.384.384 0 0 0-.049.144c-.01.063-.015.162-.015.295v2.507ZM120.265 72.532h3.136v1.008h-.284a2.777 2.777 0 0 0-.126-.394.803.803 0 0 0-.132-.22.415.415 0 0 0-.15-.108.67.67 0 0 0-.238-.031h-.368v2.967c0 .114.006.205.018.272a.43.43 0 0 0 .059.161c.026.04.061.07.105.093a.99.99 0 0 0 .209.065v.142h-1.324v-.142c.057-.013.109-.028.153-.043a.376.376 0 0 0 .109-.057.26.26 0 0 0 .069-.085.46.46 0 0 0 .043-.142 1.56 1.56 0 0 0 .017-.264v-2.967h-.365a.812.812 0 0 0-.225.026.36.36 0 0 0-.164.108.788.788 0 0 0-.137.235c-.042.102-.081.23-.118.384h-.287v-1.008ZM124.988 74.827l-.799-1.487a6.364 6.364 0 0 0-.22-.385.894.894 0 0 0-.151-.183.48.48 0 0 0-.174-.098v-.142h1.235v.142c-.182.02-.273.1-.273.234 0 .056.013.12.039.189.026.07.073.168.141.295l.58 1.104.57-1.008c.078-.137.132-.25.164-.338a.712.712 0 0 0 .048-.242.217.217 0 0 0-.062-.163.302.302 0 0 0-.184-.071v-.142H127v.142a.68.68 0 0 0-.209.12c-.06.051-.12.12-.182.207a6.248 6.248 0 0 0-.273.44l-.806 1.374v.94c0 .11.006.198.018.266a.41.41 0 0 0 .058.162c.027.04.063.072.107.096a.905.905 0 0 0 .209.066v.142h-1.325v-.142a.89.89 0 0 0 .206-.062.265.265 0 0 0 .107-.096.424.424 0 0 0 .06-.163c.012-.068.018-.158.018-.27v-.927ZM87.516 55.477c-.074-.193-.147-.347-.193-.51-.13-.448.084-.644.512-.63.692.025 1.934 1.182 2.034 1.878.081.57-.261.915-.825.746-.763-.228-1.318-.718-1.528-1.484Z" clip-rule="evenodd"/><path fill="#fff" fill-rule="evenodd" d="M57.68 63.809c0 7.215-5.85 13.064-13.065 13.064S31.551 71.024 31.551 63.81 37.4 50.745 44.615 50.745c7.216 0 13.065 5.849 13.065 13.064Z" clip-rule="evenodd"/><path fill="#273B92" fill-rule="evenodd" d="M36.996 64.957H42.8s.98.465 1.402 1.47h-4.867s.069-.774-2.339-1.47ZM39.723 67.356h4.85s.292.903.575 1.213h-4.875s-.206-.877-.55-1.213ZM49 65.723h7.438s-.04.778-.336 1.556h-7.687s.49-.912.585-1.556ZM48.08 67.915h7.825s-.114.6-.708 1.565H46.74s.894-.817 1.341-1.565ZM40.728 69.594h5.378s.607.55 1.238.62h7.498s-.54.94-1.079 1.48H43.71s-2.052-.22-2.98-2.1Z" clip-rule="evenodd"/><path fill="#CB242B" fill-rule="evenodd" d="M49.09 64.845h5.699c.034-.337.053-.679.053-1.024 0-5.645-4.575-10.22-10.22-10.22-5.643 0-10.219 4.575-10.219 10.22 0 .38.023.756.063 1.127-.038-.306-.002-.617-.002-.932a7.336 7.336 0 0 1 7.338-7.337 7.337 7.337 0 0 1 7.337 7.337c0 .28-.019.557-.05.83Z" clip-rule="evenodd"/><path fill="#273B92" fill-rule="evenodd" d="M43.743 72.644c-1.664-.137-2.466-.801-2.848-1.349-3.319-.408-6.009-3.032-6.43-6.347.562 5.113 4.894 9.092 10.157 9.092 1.88 0 3.64-.51 5.152-1.396h-6.03Z" clip-rule="evenodd"/><path fill="#fff" fill-rule="evenodd" d="M44.768 51.291c-6.88 0-12.477 5.597-12.477 12.477s5.597 12.477 12.477 12.477 12.477-5.597 12.477-12.477-5.597-12.477-12.477-12.477Zm0 30.037c-9.683 0-17.56-7.877-17.56-17.56s7.877-17.56 17.56-17.56 17.56 7.877 17.56 17.56-7.877 17.56-17.56 17.56Z" clip-rule="evenodd"/><path fill="#273B92" fill-rule="evenodd" d="M44.769 51.499c-6.765 0-12.27 5.505-12.27 12.27s5.505 12.268 12.27 12.268 12.269-5.503 12.269-12.269c0-6.764-5.504-12.269-12.27-12.269Zm0 24.954c-6.995 0-12.685-5.69-12.685-12.684 0-6.995 5.69-12.686 12.684-12.686 6.995 0 12.685 5.691 12.685 12.686 0 6.994-5.69 12.684-12.684 12.684Zm0-30.038c-9.568 0-17.353 7.785-17.353 17.354 0 9.567 7.785 17.352 17.353 17.352 9.567 0 17.352-7.785 17.352-17.352 0-9.569-7.785-17.354-17.352-17.354Zm0 35.122C34.97 81.537 27 73.565 27 63.768 27 53.972 34.971 46 44.769 46c9.797 0 17.768 7.97 17.768 17.769 0 9.796-7.971 17.768-17.768 17.768Z" clip-rule="evenodd"/><path fill="#273B92" fill-rule="evenodd" d="M32.556 53.497c.102-.177.165-.203.342-.118.154.074.09.195.071.317-.05.328-.085.658-.126.988l.071.013c.031-.103.05-.213.099-.307.033-.066.106-.148.166-.151.064-.004.142.066.196.122.088.09.151.208.245.29.338.297.685.583 1.029.874.112.095.145.214.036.318-.13.126-.284.23-.433.335-.004.004-.098-.083-.09-.099.166-.333-.043-.503-.273-.676-.189-.142-.36-.304-.546-.45-.047-.036-.133-.077-.173-.057-.062.03-.101.109-.137.186.155-.037.299-.095.413.05.113.142-.017.255-.09.423.096-.036.146-.06.198-.074.063-.017.137-.049.19-.029.065.023.16.096.157.14-.005.064-.082.128-.138.181-.027.025-.077.027-.142.046.17.143.323.262.463.394.05.048.113.147.095.193a.38.38 0 0 1-.191.188.255.255 0 0 1-.221-.03 2.647 2.647 0 0 1-.461-.431c-.195-.253-.356-.533-.531-.802a3.268 3.268 0 0 0-.048.013c.005.109.017.218.016.328-.01.587-.016 1.176-.04 1.763-.014.328-.205.366-.513.331-.137-.015-.178-.132-.155-.255.034-.192.092-.379.122-.57.065-.426.117-.854.176-1.28.045-.326.092-.65.112-.994-.029.044-.054.09-.086.132-.088.114-.17.234-.272.334-.032.033-.136.038-.175.01-.038-.026-.057-.117-.044-.17.044-.188.11-.371.159-.558a.307.307 0 0 0-.018-.19c-.033.101-.055.207-.103.3-.09.175-.411.253-.53.13-.04-.04-.07-.119-.058-.172.033-.164.08-.327.137-.485.052-.142.037-.25-.103-.328-.132-.074-.268-.17-.245-.33.023-.16.163-.246.322-.279.063-.013.132-.005.194-.021.086-.023.188-.037.25-.092.078-.068.134-.118.23-.049.09.066.167.138.118.266-.017.047-.041.095-.045.143-.009.114.008.204.166.17.065-.015.138.01.214.019ZM58.152 54.678l.059-.046c.034-.114-.035-.167-.132-.194-.021-.004-.054.034-.082.053l.155.187Zm-.093.993c-.036-.175-.566-.405-.851-.396l.85.396Zm-.14-.52-.023.062c.046.032.093.093.14.093.286.001.574-.006.86-.025.03-.002.086-.1.077-.14-.03-.133-.276-.197-.356-.09-.127.172-.288.157-.463.128-.078-.012-.157-.019-.235-.028Zm-.788.066c-.24-.047-.481-.092-.722-.138-.163-.03-.334-.039-.44-.2-.064-.096-.12-.186-.041-.304.075-.114.183-.141.303-.12.287.05.572.11.847.163.006-.12-.02-.24.026-.32.046-.082.161-.125.248-.18.065-.042.13-.084.202-.114.064-.027.135-.037.203-.055.006.083.022.167.013.248-.006.053-.048.102-.052.165.24-.18.508-.327.511-.683.002-.06.119-.12.182-.179.05.06.139.117.141.18.007.152-.035.306-.04.46-.003.075.008.189.054.217.06.035.177.03.24-.005.238-.133.335-.134.43.034.097.17.036.33-.197.454.106.045.194.079.28.117.192.085.226.31.064.44a.622.622 0 0 1-.591.135c-.187-.051-.211-.026-.186.16.043.303-.052.347-.3.315-.186-.024-.382-.005-.516-.181-.017-.022-.08-.012-.119-.006-.166.022-.331.049-.51.076.006.009.024.044.05.069.172.166.17.522-.024.659-.048.033-.19-.005-.241-.057a1.672 1.672 0 0 1-.268-.382c-.058-.11-.11-.1-.192-.039-.225.165-.45.328-.676.488a.396.396 0 0 1-.164.078c-.06.009-.15.006-.18-.03-.036-.044-.032-.13-.027-.196.01-.137.034-.273.046-.41.008-.078-.003-.157.004-.234.011-.111-.02-.276.14-.276.14.001.123.146.137.26.01.084.06.194.128.233.05.03.16-.029.237-.06.044-.018.08-.058.116-.093.101-.097.1-.178-.039-.24-.181-.082-.366-.159-.54-.256a.488.488 0 0 1-.193-.21c-.018-.039.052-.172.089-.175a.714.714 0 0 1 .347.05c.183.087.346.215.525.312.128.07.267.118.404.177.01-.089-.01-.199.037-.247.048-.05.159-.042.242-.06l.012-.04ZM49.722 50.325c-.175.124-.33.246-.494.35-.28.177-.542.102-.785-.086-.128-.1-.168-.253-.086-.347.105-.12.218-.035.291.031.251.229.56.078.758-.236-.095.024-.158.034-.218.055-.22.08-.377.003-.434-.227a.5.5 0 0 1-.006-.214c.028-.141.132-.192.244-.102.17.133.364.111.554.126.042.004.097-.026.13-.057a.589.589 0 0 0 .116-.16c.233-.459.459-.92.694-1.377.033-.064.122-.158.16-.148.071.019.154.095.178.166.078.228.077.454-.07.667-.186.267-.364.54-.54.814-.022.032-.036.089-.022.119.013.026.076.05.107.041.117-.033.227-.09.344-.122.079-.022.178-.046.243-.016.093.044.189.118.16.259-.023.111-.074.188-.193.19-.265.007-.531.01-.796.01-.191.002-.226.05-.134.214.089.159.183.314.28.469.118.192.319.278.503.389.063.037.105.11.157.168-.066.054-.123.133-.198.156-.14.044-.291.072-.438.073a.317.317 0 0 1-.223-.113.885.885 0 0 1-.165-.337c-.053-.246-.078-.498-.117-.755ZM41.148 49.17l-.104.165c.055.013.125.051.16.031.045-.025.06-.1.088-.153a19.174 19.174 0 0 0-.144-.043Zm-.417-1.095c.09-.084.156-.14.213-.203.016-.019.02-.07.005-.09-.012-.016-.06-.02-.088-.013-.14.032-.161.133-.13.306Zm.51 1.48c-.278.087-.635.413-.615.558.328-.088.621-.348.616-.559Zm-1.457 1.187c.138-.146.124-.317.13-.468.005-.157-.038-.313-.056-.47-.059-.494-.016-.947.367-1.333.108-.11.114-.343.13-.523.029-.34.203-.497.535-.438.114.019.207.008.285-.091.098-.126.224-.12.344-.038.087.058.107.142.029.228l-.657.714c-.022.025-.047.052-.056.081-.036.137.15.432.287.46.061.013.122.018.183.027.154.02.314.016.374.216.015.05.111.086.177.109.203.069.31.259.262.47-.063.279-.256.467-.453.65-.025.024-.081.014-.123.02-.003-.045-.025-.102-.005-.133.102-.157.23-.303.235-.505 0-.062-.003-.139-.037-.184-.055-.074-.132-.09-.18.02-.038.087-.08.173-.115.262-.098.248-.3.364-.54.436-.182.054-.36.124-.545.168-.123.03-.205-.063-.151-.177.084-.177.185-.35.301-.51.086-.116.15-.21.081-.362-.059-.129-.09-.27-.146-.452-.046.107-.07.19-.116.26-.035.05-.103.123-.146.117-.143-.021-.158.066-.153.158.01.255.038.508.048.763.011.284.017.57.01.854-.004.153-.25.299-.437.279-.149-.016-.231-.116-.206-.306.065-.498-.083-.955-.239-1.413-.048-.139-.108-.272-.155-.41-.04-.118-.007-.216.122-.253.159-.046.378.058.413.222.048.229.06.465.083.697.025.238.043.477.068.715.004.04.028.078.052.14Z" clip-rule="evenodd"/><path fill="#273B92" fill-rule="evenodd" d="M38.826 48.373c-.02-.051-.039-.092-.051-.135-.035-.119.022-.171.136-.167.183.007.512.314.538.497.022.152-.069.244-.218.198a.558.558 0 0 1-.405-.393ZM31.245 66.097c-.046-.253-.181-.414-.407-.482-.224-.068-.6-.054-1.124.041-.384.07-.66.18-.827.33a.586.586 0 0 0-.186.578c.042.23.164.385.367.467.204.081.485.088.846.023.573-.105.95-.225 1.13-.363.181-.138.248-.336.201-.594Zm-3.217 1.517-.1.018-.02-.101c-.066-.362-.052-.636.041-.82.094-.187.277-.303.55-.353l.058-.011c.002-.275.115-.523.34-.742.225-.22.512-.362.861-.426a1.72 1.72 0 0 1 .56-.015c.173.026.336.084.486.172.151.088.272.194.362.316a1.05 1.05 0 0 1 .161.875c-.039.147-.115.29-.227.427-.113.14-.247.253-.402.341-.157.088-.33.15-.525.185-.347.064-.665.03-.953-.099-.288-.13-.482-.324-.58-.584l-.052.007a.38.38 0 0 0-.049.005c-.228.042-.38.123-.46.246-.08.123-.098.304-.055.542l.004.017ZM29.128 68.543l.097-.034.112.322 2.356-.828-.113-.322.096-.034.366 1.04-.097.034-.115-.33-2.356.828.116.33-.097.034-.365-1.04ZM29.796 70.391l.09-.048.144.266 2.196-1.186-.142-.263.09-.049.373.69-1.152 1.933 1.61-.87-.145-.269.09-.049.356.66-.09.048-.15-.275-2.344 1.266-.05-.094 1.573-2.592-2.154 1.163.145.269-.09.048-.35-.648ZM33.118 73.763l.691.827-.078.066-.158-.19c-.227.19-.46.267-.699.23-.238-.037-.465-.185-.68-.442-.23-.274-.317-.574-.262-.9.054-.325.243-.622.563-.89.152-.128.314-.224.486-.288a1.46 1.46 0 0 1 .529-.095c.178 0 .34.034.486.1a1.117 1.117 0 0 1 .566.604c.043.11.067.226.07.345l.207.02.038.045-.527.44-.055-.066a.896.896 0 0 0 .197-.524.724.724 0 0 0-.182-.49c-.171-.205-.379-.285-.624-.241-.244.045-.545.216-.902.515-.348.29-.561.54-.641.75-.08.208-.04.409.122.6.14.168.282.252.43.253.146 0 .319-.081.518-.248l.073-.06-.247-.295.079-.066ZM33.703 75.812l.063-.08.24.188 1.543-1.963-.24-.189.063-.08.802.63-.063.08-.24-.188-.707.9.915.719.707-.9-.24-.188.063-.08.802.63-.064.08-.237-.187-1.543 1.962.238.188-.064.08-.8-.63.062-.08.24.188.765-.973-.915-.72-.765.974.24.188-.063.08-.802-.63ZM37.651 77.24l.632.315.178-1.122-.81.807Zm-1.182.628.045-.091.288.143 2.013-1.977.091.046-.42 2.77.254.126-.046.091-.92-.457.046-.092.299.148.143-.896-.699-.348-.643.648.306.152-.046.091-.711-.354ZM39.38 79.199l.032-.098.325.104.76-2.377-.325-.105.032-.097 1.049.336-.032.097-.332-.106-.76 2.378.333.106-.032.098-1.05-.336ZM41.67 79.153l.29-1.894-.313-.048.016-.101 1.008.154-.016.101-.31-.047-.286 1.87c-.032.206-.008.37.072.494.08.122.212.198.396.226.213.033.386-.009.518-.125.131-.115.217-.302.257-.559l.264-1.719-.306-.047.016-.1.732.112-.016.101-.305-.047-.267 1.73c-.047.308-.155.525-.324.651-.168.126-.404.167-.706.12-.259-.04-.453-.137-.58-.292-.13-.155-.176-.349-.14-.58ZM44.564 80.19l-.005-.102.303-.014-.117-2.494-.299.014-.005-.102.784-.037 1.241 1.876-.085-1.828-.305.015-.005-.103.748-.035.005.103-.313.014.125 2.662-.107.005-1.654-2.542.115 2.445.304-.014.005.102-.735.035ZM47.782 79.924l-.021-.1.334-.069-.503-2.445-.334.068-.02-.1 1.079-.221.02.1-.342.07.503 2.445.342-.07.02.1-1.078.222ZM50.728 79.195l-1.767-2.188-.28.104-.035-.096.966-.358.036.096-.297.11 1.324 1.632-.07-2.097-.349.13-.036-.096.725-.27.035.096-.265.1.098 2.805-.085.032ZM52.627 78.32l-.054-.088.262-.158-1.293-2.136-.26.158-.053-.087 1.714-1.038.336.555-.074.044c-.133-.16-.261-.249-.386-.266-.124-.017-.289.037-.494.16l-.432.262.592.98.07-.043c.15-.091.24-.183.27-.275.03-.093.01-.21-.06-.352l.072-.044.525.87-.073.044c-.102-.15-.206-.234-.315-.252-.108-.018-.247.024-.418.127l-.018.012.647 1.07.49-.297c.19-.116.306-.242.347-.377.04-.137.017-.326-.07-.57l.078-.047.362.68-1.765 1.068ZM54.742 75.038l.177-.16c.205-.186.315-.341.33-.464.015-.124-.047-.264-.19-.42-.132-.145-.252-.22-.36-.222-.108-.003-.248.074-.42.231l-.262.238.725.797Zm.423 1.534.237-.216-1.679-1.848-.226.205-.068-.076.845-.768c.223-.202.43-.32.62-.352.191-.032.35.02.477.161.126.138.173.3.142.483-.032.183-.138.364-.317.544l.021.023c.17-.105.334-.162.494-.17a.6.6 0 0 1 .416.133c.06.05.142.128.243.236a.994.994 0 0 0 .231.2.203.203 0 0 0 .127.028.225.225 0 0 0 .118-.063.375.375 0 0 0 .066-.076.607.607 0 0 0 .053-.103l.07.076c-.03.066-.065.125-.101.178a.808.808 0 0 1-.118.137.425.425 0 0 1-.416.112c-.15-.04-.328-.164-.535-.37a.215.215 0 0 0-.02-.02c-.147-.15-.277-.23-.39-.24a.54.54 0 0 0-.241.033.698.698 0 0 0-.224.137l-.177.161.883.971.232-.21.069.076-.764.693-.068-.075ZM57.655 74.295l-.043.056-.563-.433.048-.063a.99.99 0 0 0 .56.048.711.711 0 0 0 .423-.266.702.702 0 0 0 .155-.5.579.579 0 0 0-.23-.429c-.164-.125-.419-.067-.766.176l-.061.044c-.298.206-.527.32-.688.34-.161.019-.32-.032-.477-.152a.717.717 0 0 1-.297-.505.788.788 0 0 1 .181-.58.893.893 0 0 1 .411-.298.183.183 0 0 0 .053-.024.072.072 0 0 0 .007-.02.059.059 0 0 0 0-.023l-.03-.121.052-.068.49.376-.045.059a.916.916 0 0 0-.507-.041.676.676 0 0 0-.376.258.576.576 0 0 0-.13.394c.008.142.064.251.169.332.086.067.182.09.288.067.104-.022.233-.092.385-.209l.101-.078c.255-.195.443-.31.565-.342a.661.661 0 0 1 .324-.005.826.826 0 0 1 .316.156c.222.17.348.372.379.604.03.232-.04.46-.21.682a.957.957 0 0 1-.459.329.187.187 0 0 0-.049.021c-.002.003-.003.008-.004.015v.025l.028.175ZM59.069 72.318l-.089-.05.17-.296-2.162-1.248-.171.296-.089-.052.55-.954.09.052-.175.302 2.163 1.247.174-.303.09.052-.551.954ZM60.163 70.246l-.096-.038.127-.317-2.315-.928-.023.049a1.518 1.518 0 0 0-.031.076c-.071.176-.079.326-.024.449.056.123.194.257.417.403l-.034.084-.712-.325.775-1.934.738.263-.034.085c-.243-.059-.432-.06-.565-.006-.134.054-.239.176-.315.366a3.332 3.332 0 0 0-.04.112l2.314.93.124-.31.096.039-.402 1.002ZM61.117 67.395l-.1-.02.07-.345-1.146-.232-1.457.504-.058.289-.1-.02.217-1.072.1.02-.068.338 1.295-.437-1.033-.859-.08.395-.1-.02.167-.826.1.02-.062.306 1.165.958 1.142.231.07-.344.1.02-.222 1.094Z" clip-rule="evenodd"/></g><defs><filter id="a" width="154" height="157" x="0" y="0" color-interpolation-filters="sRGB" filterUnits="userSpaceOnUse"><feFlood flood-opacity="0" result="BackgroundImageFix"/><feColorMatrix in="SourceAlpha" result="hardAlpha" values="0 0 0 0 0 0 0 0 0 0 0 0 0 0 0 0 0 0 127 0"/><feOffset dy="16"/><feGaussianBlur stdDeviation="6.5"/><feColorMatrix values="0 0 0 0 0 0 0 0 0 0 0 0 0 0 0 0 0 0 0.03 0"/><feBlend in2="BackgroundImageFix" result="effect1_dropShadow_185_410"/><feBlend in="SourceGraphic" in2="effect1_dropShadow_185_410" result="shape"/></filter></defs></svg>