<svg xmlns="http://www.w3.org/2000/svg" width="154" height="157" fill="none"><g filter="url(#a)"><path fill="#fff" d="M13 0h128v128H13z"/><path fill="#315064" fill-rule="evenodd" d="M38.482 75.05h.003c2.95 0 5.725-1.15 7.811-3.236A10.977 10.977 0 0 0 49.533 64v-.003c0-2.95-1.15-5.724-3.236-7.811a10.979 10.979 0 0 0-7.813-3.237h-.003c-2.95 0-5.724 1.15-7.811 3.236A10.977 10.977 0 0 0 27.433 64v.002c0 2.95 1.15 5.725 3.237 7.813a10.976 10.976 0 0 0 7.812 3.236Zm.003.433-.218-.002a11.405 11.405 0 0 1-7.904-3.361 11.407 11.407 0 0 1-3.36-7.902H27v-.433h.002a11.404 11.404 0 0 1 3.362-7.905 11.403 11.403 0 0 1 7.901-3.36v-.003h.433v.002a11.405 11.405 0 0 1 7.905 3.362 11.404 11.404 0 0 1 3.361 7.901h.002v.433h-.002a11.402 11.402 0 0 1-3.361 7.905 11.401 11.401 0 0 1-7.902 3.36v.003h-.216Z" clip-rule="evenodd"/><path fill="#315064" fill-rule="evenodd" d="M28.612 64.791c.03.02.064.032.103.037a.463.463 0 0 0 .13 0c.1-.015.172-.048.215-.099a.223.223 0 0 0 .05-.184.224.224 0 0 0-.099-.162c-.056-.038-.134-.05-.233-.035-.101.014-.174.047-.218.099a.217.217 0 0 0-.051.178.21.21 0 0 0 .022.07.501.501 0 0 0 .04-.116l.106.035a.61.61 0 0 1-.065.177Zm-.079.155a.574.574 0 0 0-.053.15l-.133-.046a.405.405 0 0 1 .022-.082l.06-.128a.465.465 0 0 1-.064-.183.417.417 0 0 1 .073-.33.462.462 0 0 1 .314-.16.46.46 0 0 1 .346.067c.09.065.143.162.162.291a.407.407 0 0 1-.075.322.462.462 0 0 1-.314.16.572.572 0 0 1-.201-.003.419.419 0 0 1-.137-.058ZM29.34 65.421l-.865.125-.025-.175.866-.125.025.175ZM28.53 65.9l.853-.194.038.168-.49.478.569-.129.036.16-.853.193-.039-.173.479-.47-.557.126-.036-.16ZM29.225 67.232l.14-.049.124.36-.329.114a.588.588 0 0 1-.25-.31.48.48 0 0 1-.024-.244.365.365 0 0 1 .105-.198.529.529 0 0 1 .203-.125.502.502 0 0 1 .248-.026c.08.013.15.048.21.105a.454.454 0 0 1 .109.184c.036.102.042.19.019.263a.308.308 0 0 1-.14.173l-.089-.155a.185.185 0 0 0 .074-.1.21.21 0 0 0-.007-.132.238.238 0 0 0-.13-.15c-.06-.026-.136-.024-.227.007-.098.034-.165.082-.198.142a.231.231 0 0 0-.014.197.38.38 0 0 0 .138.171l.104-.036-.066-.191ZM29.92 67.882l-.523.25.056.118c.022.045.04.075.054.093a.16.16 0 0 0 .063.048c.024.01.056.012.096.006a.57.57 0 0 0 .153-.053.522.522 0 0 0 .133-.083.2.2 0 0 0 .054-.082.17.17 0 0 0 .002-.091.796.796 0 0 0-.055-.135l-.034-.071Zm.057-.223.139.291c.031.066.05.118.056.157a.293.293 0 0 1-.015.154.383.383 0 0 1-.093.136.645.645 0 0 1-.174.115.575.575 0 0 1-.18.056.39.39 0 0 1-.18-.018.31.31 0 0 1-.115-.082.539.539 0 0 1-.084-.133l-.143-.3.789-.376ZM30.212 69.219l.212-.273-.338.07.126.203Zm-.125.458-.1-.163.129-.17-.184-.297-.207.042-.098-.159.923-.169.098.159-.56.757ZM30.695 69.765c-.078.061-.123.125-.136.193a.224.224 0 0 0 .047.184.221.221 0 0 0 .167.09c.067.004.141-.024.221-.087.08-.061.124-.125.136-.19a.223.223 0 0 0-.05-.183.225.225 0 0 0-.166-.093c-.067-.004-.14.024-.22.086Zm-.117-.14a.554.554 0 0 1 .201-.106.414.414 0 0 1 .145-.01.34.34 0 0 1 .132.041c.052.029.1.071.143.127.08.102.111.208.096.318a.46.46 0 0 1-.192.297.458.458 0 0 1-.332.113.407.407 0 0 1-.284-.17.411.411 0 0 1-.096-.317.45.45 0 0 1 .187-.293ZM31.59 71.416l.49-.536-.191-.175.1-.11.512.47-.1.109-.19-.175-.49.536-.131-.119ZM32.167 71.92l.524-.7.52.388-.09.119-.377-.283-.116.155.351.263-.088.118-.352-.263-.142.19.39.294-.087.118-.533-.399ZM33.65 72.534l.12.134a.385.385 0 0 1-.221.116.375.375 0 0 1-.236-.06.376.376 0 0 1-.184-.248.455.455 0 0 1 .07-.337.478.478 0 0 1 .27-.234.388.388 0 0 1 .317.048c.092.055.15.127.175.215a.345.345 0 0 1-.005.184l-.172-.053a.185.185 0 0 0 0-.126.186.186 0 0 0-.083-.095.2.2 0 0 0-.171-.02c-.059.019-.115.073-.168.163-.057.095-.08.173-.07.233.01.06.043.108.097.14.04.024.083.032.127.024a.259.259 0 0 0 .135-.084ZM33.965 73.07l.363-.796.16.073-.142.314.314.143.143-.313.161.073-.363.796-.16-.073.158-.348-.315-.144-.158.348-.161-.073ZM34.98 73.508l.273-.83.163.054.158.666.182-.554.156.05-.273.832-.169-.056-.156-.652-.179.542-.155-.052ZM36.267 73.435c-.02.097-.013.175.022.235.034.06.086.096.155.11.069.014.13.002.185-.039.054-.04.092-.11.113-.21.02-.098.014-.175-.02-.233a.223.223 0 0 0-.156-.108.225.225 0 0 0-.187.038c-.054.04-.091.109-.112.207Zm-.18-.03a.555.555 0 0 1 .086-.212.406.406 0 0 1 .104-.101.341.341 0 0 1 .127-.054.478.478 0 0 1 .191.004.41.41 0 0 1 .279.18.46.46 0 0 1 .045.35.458.458 0 0 1-.18.302.408.408 0 0 1-.325.054.413.413 0 0 1-.28-.18.452.452 0 0 1-.046-.344ZM37.19 74.047l.085-.864.176.018-.071.716.437.044-.015.147-.612-.061ZM38.291 73.688c0 .099.024.174.07.224a.224.224 0 0 0 .175.076c.07 0 .127-.026.172-.077.045-.05.068-.127.067-.228 0-.1-.023-.175-.067-.224a.222.222 0 0 0-.175-.073.224.224 0 0 0-.176.075c-.044.05-.066.126-.066.227Zm-.182.006c0-.089.013-.163.04-.224a.412.412 0 0 1 .08-.12.338.338 0 0 1 .113-.08.481.481 0 0 1 .188-.035c.129 0 .232.039.31.118a.46.46 0 0 1 .117.333.458.458 0 0 1-.113.332.408.408 0 0 1-.307.121.412.412 0 0 1-.311-.117.451.451 0 0 1-.117-.328ZM39.686 73.73l-.017-.146.377-.046.042.346a.584.584 0 0 1-.355.179.477.477 0 0 1-.245-.028.367.367 0 0 1-.172-.145.534.534 0 0 1-.078-.226.502.502 0 0 1 .028-.248.385.385 0 0 1 .147-.181.451.451 0 0 1 .202-.068.42.42 0 0 1 .261.037.308.308 0 0 1 .14.174l-.17.053a.186.186 0 0 0-.082-.093.21.21 0 0 0-.13-.022.24.24 0 0 0-.175.095c-.039.054-.053.13-.041.225.012.103.044.177.096.223a.231.231 0 0 0 .19.056.382.382 0 0 0 .197-.099l-.014-.11-.2.024ZM40.457 73.04l.177.856-.173.036-.177-.857.173-.035ZM41.447 73.35l.18.004c.001.099-.021.179-.067.24a.374.374 0 0 1-.203.133.377.377 0 0 1-.308-.034.456.456 0 0 1-.2-.28.478.478 0 0 1 .013-.358.387.387 0 0 1 .25-.2.365.365 0 0 1 .278.018.342.342 0 0 1 .13.13l-.155.09a.185.185 0 0 0-.092-.086.185.185 0 0 0-.126-.004.2.2 0 0 0-.132.112c-.026.056-.024.134.005.233.032.106.073.177.124.21a.193.193 0 0 0 .169.024.176.176 0 0 0 .104-.077.259.259 0 0 0 .03-.155ZM42.348 72.986l-.236-.253.016.345.22-.092Zm.434.194-.178.074-.147-.154-.322.135.01.211-.174.072-.022-.938.172-.072.66.672ZM43.064 73.036l-.414-.762.155-.084.344.632.386-.21.07.13-.541.294ZM43.888 71.517l.139-.11.291.375c.046.059.078.096.095.11.028.024.06.036.096.035a.189.189 0 0 0 .112-.046c.04-.03.063-.062.07-.094a.12.12 0 0 0-.01-.087.965.965 0 0 0-.085-.122l-.298-.382.14-.108.282.362c.065.083.107.144.126.184a.243.243 0 0 1-.012.239.444.444 0 0 1-.116.124.482.482 0 0 1-.168.094.27.27 0 0 1-.127.004.242.242 0 0 1-.098-.046 1.065 1.065 0 0 1-.15-.165l-.287-.367ZM45.304 71.49l-.611-.625.123-.12.664.168-.408-.418.117-.115.611.626-.127.124-.65-.162.398.408-.117.115ZM45.533 69.99l.66.574-.115.133-.661-.573.116-.133ZM46.58 70.08l-.89-.268.115-.154.652.206-.394-.556.111-.151.518.771-.112.152ZM47.06 69.394l-.755-.443.328-.559.128.075-.239.407.167.098.223-.379.127.075-.223.379.206.12.247-.421.127.074-.337.574ZM47.191 68.099l.054-.12a.684.684 0 0 0 .055-.148.096.096 0 0 0-.014-.06.114.114 0 0 0-.052-.044.105.105 0 0 0-.075-.008.108.108 0 0 0-.058.047 1.49 1.49 0 0 0-.056.116l-.056.126.202.09Zm.388.368-.798-.359.153-.339a.635.635 0 0 1 .105-.176.2.2 0 0 1 .118-.058.252.252 0 0 1 .141.021c.06.027.102.067.125.12a.277.277 0 0 1 .002.19.423.423 0 0 1 .106-.056.98.98 0 0 1 .17-.033l.2-.027-.086.192-.226.039a1.24 1.24 0 0 0-.156.032.14.14 0 0 0-.054.033.295.295 0 0 0-.046.078l-.015.032.333.15-.072.16ZM47.734 67.382l.037-.169c.059.008.105.001.14-.02a.19.19 0 0 0 .079-.11c.017-.054.019-.098.005-.133a.108.108 0 0 0-.067-.067.082.082 0 0 0-.056 0 .147.147 0 0 0-.055.05c-.014.017-.04.058-.08.122a.482.482 0 0 1-.144.163.229.229 0 0 1-.3-.052.235.235 0 0 1-.05-.131.44.44 0 0 1 .024-.173c.034-.105.082-.176.145-.214a.256.256 0 0 1 .21-.024l-.047.17c-.045-.006-.08 0-.107.017-.026.018-.047.05-.062.097a.201.201 0 0 0-.008.125.063.063 0 0 0 .043.043c.02.007.04.004.06-.008a.465.465 0 0 0 .105-.137.847.847 0 0 1 .118-.162.243.243 0 0 1 .115-.064.261.261 0 0 1 .143.01.259.259 0 0 1 .177.225.494.494 0 0 1-.028.191.38.38 0 0 1-.151.219.334.334 0 0 1-.246.032ZM47.505 66.054l.851.202-.04.172-.852-.202.041-.172ZM48.471 65.672l-.718-.113-.04.256-.146-.023.108-.686.146.023-.04.255.718.113-.028.175ZM48.579 64.682l-.365-.052-.547.245.03-.204.371-.155-.314-.249.03-.201.456.39.364.052-.025.174ZM30.817 57.651s0 .068.04.097c.04.028.065.023.108-.06.043-.084-.052-.212-.105-.204-.052.008-.043.167-.043.167Zm-.233.06c-.154.057-.185.08-.246.03-.06-.05-.076-.098-.024-.185.052-.086.19-.323.19-.323s.045-.056-.082-.16c-.127-.103-.17-.277-.129-.317.042-.04.329.197.343.236.014.04.128-.146.128-.146s.14.022.18.073c.041.052.088.062-.024.21.062.051.148.083.188.13.079.093.033.152.084.193.013.011.259-.35.352-.375.094-.025.165.171.069.267-.097.096-.37.464-.374.515a.749.749 0 0 0 .022.165l.28-.409c.089-.132.151-.071.268.065.133.154.443.361.488.453.045.092.128.206.079.322-.049.117-.112.149-.112.149l-.22-.171s.081-.1.052-.132c-.028-.033-.418-.517-.507-.442-.089.076-.24.385-.143.39 0 0 .13-.226.199-.141.07.084.024.084.115.13.091.047.144.072.095.133-.05.06-.094.08-.151.06-.058-.019-.047-.102-.147-.091 0 0-.01.102.19.23.202.126.218.186.129.205-.09.019-.304-.046-.473-.201-.168-.156-.297-.427-.297-.427s-.064.077-.19.323c-.128.246-.194.34-.26.295-.065-.044-.1-.284.209-.741-.328-.072-.228-.165-.281-.312ZM33.575 55.218s.143-.072.17-.14c0 0 .127.038.155.188.027.15-.043.257-.123.296-.081.038-.146.035-.086-.06.06-.097.12-.145.074-.19-.046-.044-.123-.04-.153-.067a.174.174 0 0 0-.037-.027Zm.455 1.32-.043.028s.001.11-.032.177c-.034.066-.255.19-.425.26-.17.07-.217-.128-.22-.222-.003-.094-.03-.106.046-.2.077-.095.104-.035.129.02.025.057.01.129.051.186.042.057.199-.027.199-.027s.006-.019-.032-.09a.107.107 0 0 1 .009-.12s.169-.033.226-.065c.058-.03.09-.149.192-.167.103-.017.137.076.093.153-.044.076-.193.066-.193.066Zm-.08-.543s.22-.107.202-.2c-.017-.091-.078-.085-.179-.036 0 0-.056-.076.003-.113.06-.038.149-.288.086-.445-.064-.157-.11-.25-.145-.327-.036-.077-.108-.123-.264-.018-.157.106-.165.169-.252.216-.086.046-.055.264-.094.29-.039.026-.033-.062-.123-.051-.09.011-.13.044-.138 0-.008-.044.18-.102.315-.265.135-.164.174-.318.04-.362-.137-.044-.389.15-.436.388-.047.238-.007.265.073.334.08.068-.05.085.062.323s.32.614.349.658c.029.043.144.199.363.081.219-.118.578-.39.681-.425.104-.034.177.033.14.17a.55.55 0 0 1-.187.266c-.041.032-.131.033-.131.033s-.097.057-.047.142c.051.084.118.08.193-.008.075-.088.255-.249.319-.358.063-.108.104-.37-.03-.479-.133-.11-.26-.04-.446.08-.185.121-.516.326-.574.347-.058.02-.105.024-.206-.214-.101-.238-.193-.407-.194-.47-.002-.063.02-.24.174-.28 0 0-.035.114-.033.156 0 .042.132.078.133.13.002.052-.019.202-.005.227.013.025.1.058.155.07.055.014-.065-.002-.027.149.038.15.224-.01.224-.01ZM37.485 53.81c.002-.013.06-.04.155-.073.096-.034.157-.065.197-.01.04.055.055.26.06.343.005.083-.147.236-.232.25-.086.013-.08-.054-.05-.094.028-.04.214-.114.156-.202-.059-.087-.19-.053-.224-.047-.034.005-.064-.153-.062-.167Zm-1.04.831s-.108.093-.147.099c-.039.006-.062.107.01.086.071-.02.106-.026.16-.123.043-.076.03-.146-.005-.167-.045-.028-.122.01-.11.058.023.084.092.047.092.047Zm.056-.247c.026-.005-.036-.091-.057-.137-.02-.045-.013-.077.012-.142.024-.066-.182.042-.271.119-.089.076-.261.1-.297.065-.037-.033.044-.24.073-.28.029-.04.106-.022.216-.053s.413-.244.513-.176c.099.067.074.186.055.207-.019.02-.162.088-.19.159-.028.07.13.07.156.336.025.265-.125.395-.172.54-.047.144.06.091.107.062.048-.03.124-.188.202-.219.08-.03.067.166.037.224-.03.057-.21.201-.245.229-.035.028-.02.114-.178.148-.158.034-.25-.154-.266-.2-.016-.045.051-.091.077-.201.026-.11-.17.014-.26-.055-.09-.07-.07-.222.05-.4.12-.179.413-.222.438-.226Zm.598.613c-.038.015-.022.056.054.145s.212.111.173.144c-.039.033-.096.143-.021.167.074.023.332.016.544-.067.21-.083.265-.048.227-.226-.038-.18-.307.005-.333-.017-.026-.022-.024-.093.008-.164.033-.072-.007-.29-.052-.376 0 0 .347-.546.352-.6a1.801 1.801 0 0 0-.106-.459c-.043-.076-.108-.123-.23-.067-.124.055-.373.201-.605.208-.232.007-.323.07-.318.263.005.194.065.51.153.536.087.025.203-.02.177-.157-.027-.137-.083-.264-.061-.321.021-.056.153-.17.2-.098.046.071-.007.177-.002.238.006.06.194.189.133.247-.06.059-.243.128-.23.157a.108.108 0 0 0 .059.06c.033.017.08.067.08.067s-.151.038-.15.104c.002.065.175.02.229.024.053.005.18-.007.12.14-.06.146-.173.182-.263.148-.089-.034-.101-.111-.139-.096ZM40.336 54.159c.026-.022.002-.06-.03-.066-.034-.005-.345.008-.446-.02-.101-.027-.173-.19-.14-.21.034-.022 1.319.056 1.381.066.063.01.214.054.167.182-.048.128-.239.074-.314.05-.075-.023-.119-.056-.356.033-.237.09-.303.215-.204.23.1.017.378.092.35.258-.026.165-.066.268-.153.318-.087.05-.163.075-.175.1-.011.024.007.053.007.053s.567.059.649.16c.081.1.044.236-.367.17a13.707 13.707 0 0 0-1.305-.139c-.159.001-.213-.057-.146-.193.068-.136.498.021.887-.1.39-.121.37-.298.273-.352-.097-.053-.307-.016-.33-.132-.036-.142.226-.386.252-.408ZM44.264 55.826c0 .023-.088.055-.136.019-.047-.036-.108-.091-.107-.155.003-.064.185-.183.253-.131.068.051-.01.243-.01.267Zm-.683.151c.008.039-.12.288-.05.512.068.224.169.53.294.623.125.094.216.084.258.116.042.031.117-.075.04-.195-.079-.119-.47-.904-.287-.998.1.015.375.287.496.22.12-.068.136-.131.134-.16-.001-.029-.096-.348-.057-.486s.062-.428-.215-.433c-.276-.003-.383.458-.64.255-.256-.203-.622-.102-.433.186 0 0 .053.058.092.088.039.029-.092.079-.256.091-.162.013-.433.013-.52.097-.086.084-.023.123.178.153.201.03.507-.005.653-.044.146-.038.305-.064.313-.025ZM46.543 57.171c-.172.08-.318.219-.352.228-.034.009-.035.005-.066-.053-.031-.059-.12-.137-.18-.13-.06.006-.427.12-.392.285.035.165.142.161.196.14a.26.26 0 0 0 .09-.082c.034-.044.048-.054.1-.036.067.021.175.078.208.147.043.09.604.755.56.846-.043.092-.164-.027-.114.178s.254.064.298.038c.044-.025.127-.132-.017-.355 0 0 .149-.033.257-.033.108 0 .337-.119.36-.264.021-.146-.113-.194-.173-.187-.06.007-.189-.026-.225-.066-.036-.04-.107-.084-.012-.083.096 0 .129 0 .17-.024.04-.024-.036-.157-.1-.173-.065-.017-.185.017-.192-.001-.007-.018.059-.052.064-.091.011-.08-.075-.116-.125-.123-.073-.01-.127.035-.174.047-.034.01.002-.038.021-.074a.13.13 0 0 0-.202-.134Zm.441.847s-.086.004-.105-.034c-.018-.038.103-.131.129-.14.025-.01.189.08.225.12.036.04.035.09.01.108a5.184 5.184 0 0 1-.257.124c-.059-.014-.002-.178-.002-.178Zm-.186-.06c-.06-.018-.13-.016-.174-.033-.044-.016-.108-.041-.092-.001.015.04.09.16.125.15a.644.644 0 0 0 .16-.057c.014-.018.042-.042-.019-.06Zm-.045-.407a9.085 9.085 0 0 0-.28.096c-.057.022-.126.132-.006.098.18-.051.118-.094.309-.05 0 0-.015.028-.084.042-.07.014-.11.026-.078.076.031.05.117.066.183-.009.066-.075.11-.146.09-.197-.02-.05-.057-.082-.134-.056Zm-.264-.122s-.182.066-.217.092c-.036.026-.02.09.057.062.076-.03.17-.096.173-.122.003-.025-.013-.032-.013-.032Zm-.512.651c-.107-.149-.164-.165-.142-.24.02-.074.049-.13.172-.058.078.045.164.182.237.29.043.064.09.111.104.139.037.073.147.218.005.272-.14.055-.189-.093-.258-.087l-.021.009.068.177s.11.027.145.147c.034.12-.095.162-.18.053-.083-.109-.157-.225-.185-.223-.028.003-.157.057-.223.078-.067.022-.257.025-.339.027-.082.003-.32-.012-.36-.072-.04-.06-.12-.136-.018-.184.102-.048.19-.036.19-.036l.069-.068s.123.155.207.127c.085-.029.299-.066.24-.151-.057-.086-.222-.189-.33-.275-.109-.087-.114-.219.063-.233.212-.017.261.242.408.338.084.056.204.124.204.124s.052-.004-.056-.154Z" clip-rule="evenodd"/><path fill="#315064" fill-rule="evenodd" d="M38.483 55.849a8.152 8.152 0 0 1 0 16.302 8.152 8.152 0 0 1 0-16.302Z" clip-rule="evenodd"/><path fill="#fff" fill-rule="evenodd" d="M36.662 65.083h.863c.09 0 .163-.068.163-.15v-.302c0-.082-.073-.15-.163-.15h-2.081c-.09 0-.163.068-.163.15v.302c0 .082.074.15.163.15h.814v2.532h-.814c-.09 0-.163.068-.163.15v.301c0 .083.074.15.163.15h2.081c.09 0 .163-.067.163-.15v-.3c0-.083-.073-.151-.163-.151h-.863v-2.532Zm.49-4.018a.118.118 0 0 0-.118.118v.252c0 .066.053.119.118.119h.157a.118.118 0 0 0 .118-.119v-.252a.118.118 0 0 0-.118-.118h-.157Zm-.773 0a.118.118 0 0 0-.118.118v.252c0 .066.053.119.117.119h.158a.118.118 0 0 0 .118-.119v-.252a.119.119 0 0 0-.118-.118h-.157Zm.773-1.057a.118.118 0 0 0-.118.118v.252c0 .065.053.118.118.118h.157a.118.118 0 0 0 .118-.118v-.252a.118.118 0 0 0-.118-.118h-.157Zm-.773 0a.118.118 0 0 0-.118.118v.252c0 .065.053.118.117.118h.158a.118.118 0 0 0 .118-.118v-.252a.118.118 0 0 0-.118-.118h-.157Zm.667 2.17h.708V59.33h-1.819v2.849h.708v.324h-.708v1.737h.301v-1.13h.407v.566h-.109c-.09 0-.163.068-.163.15v.3c0 .083.074.151.163.151h.621c.09 0 .163-.068.163-.15v-.3c0-.083-.073-.151-.163-.151h-.109v-.565h.407v1.13h.301v-1.738h-.708v-.325Zm3.617 2.141a.046.046 0 0 0-.046.046v.366c0 .025.02.045.046.045h1.057c.025 0 .046-.02.046-.045v-.366a.046.046 0 0 0-.046-.046h-1.057Zm0-1.155a.046.046 0 0 0-.046.045v.366c0 .025.02.046.046.046h1.057c.025 0 .046-.02.046-.046v-.366a.046.046 0 0 0-.046-.045h-1.057Zm-.046 5.088v-2.825h1.101l-.017.05s-.012-.132-.012 1.554.781 3.443.781 3.443l1.562.018c-.745-.621-1.793-2.644-1.917-3.354-.027-.155-.017-.634-.026-.888-.01-.272-.014-.557-.014-.823h.014v-2.662a.272.272 0 0 0-.271-.271H40.55a.273.273 0 0 0-.272.271v5.487h.339Zm-1.246-.593H38.5l.436-.502.436.502Zm-1.213.597h1.554c.183 0 .333-.15.333-.333v-1.887h-.4v1.227l-.535-.536v-.69h-.35v.69l-.535.536v-1.227h-.4v1.887c0 .183.15.333.333.333Zm5.4-10.713h-1.165s-.744.877-.764 1.9l.01.054h-.422v-.144h-.338v.144h-.577c-.089 0-.162.068-.162.15v.301c0 .083.073.15.162.15h.577v.431h-.577c-.089 0-.162.068-.162.15v.301c0 .083.073.15.162.15h.577v.456h-.577c-.089 0-.162.068-.162.15v.302c0 .082.073.15.162.15h2.094v2.89c0 .048.04.087.088.087h1.754c.05 0 .09-.04.09-.088v-2.734a.11.11 0 0 0-.111-.11h-.883a.11.11 0 0 0-.11.11v1.807h.38v-1.302c0-.011.009-.02.02-.02h.364c.011 0 .02.009.02.02v1.732h-1.217v-2.843c0-.083-.073-.15-.162-.15h-1.412v-.456h.663c.09 0 .163-.068.163-.15v-.301c0-.083-.073-.151-.163-.151h-.663v-.43h.663c.09 0 .163-.068.163-.15v-.302a.143.143 0 0 0-.035-.093c.018-.058.036-.122.054-.194.196-.785 1.455-1.631 1.631-1.714.175-.083-.134-.103-.134-.103Zm-10.247 0s-.31.02-.135.103c.176.083 1.435.93 1.631 1.714.048.19.096.327.141.426a.475.475 0 0 0 .05.086c.019.056.09.098.16.098h.066v1.575h-.938c-.09 0-.163.067-.163.15v2.844h-1.217v-1.732c0-.012.009-.02.02-.02h.364c.011 0 .02.008.02.02v1.302h.38v-1.807a.11.11 0 0 0-.11-.11h-.883a.11.11 0 0 0-.11.11v2.734c0 .048.04.088.089.088h1.754c.049 0 .089-.04.089-.088v-2.89h.705v1.47h-.283c-.09 0-.163.067-.163.15v.31c.005.158.074 2.377-.046 3.062-.124.71-1.171 2.733-1.917 3.354l1.562-.018s.781-1.757.781-3.443v-2.814h.475c.09 0 .162-.067.162-.15v-.301c0-.082-.073-.15-.162-.15h-.071v-1.47h.071c.09 0 .162-.067.162-.15v-.3c0-.084-.073-.151-.162-.151h-.071V59.97h.071c.09 0 .162-.068.162-.15v-.301c0-.083-.073-.151-.162-.151h-.395c-.053-.99-.761-1.825-.761-1.825H33.31Zm1.848-.041h6.45c.089 0 .162.067.162.15v.3c0 .084-.073.151-.162.151h-5.7c-.08.096-.077.247-.056.37h2.25c.09 0 .163.068.163.15v1.603h1.278v-.261h-.763a.18.18 0 0 1-.178-.179v-1.163c0-.082.073-.15.162-.15h2.537c.09 0 .163.068.163.15v.301c0 .083-.074.15-.163.15h-2.345v.303h.87v2.193c0 .187-.078.198-.232.205-.175.008-.438-.002-.601-.002v.202l.816.175c.131.029.203.175.164.304l-.034.116a.244.244 0 0 1-.304.165l-1.049-.322v-1.204c0-.05.04-.09.091-.09h.866v-.284h-1.278v1.734l1.522.452a.244.244 0 0 1 .165.303l-.035.117a.245.245 0 0 1-.303.164l-1.349-.388v.249l1.544.447c.1.029.167.119.174.218.036.05.061.104.061.147v1.58h-.4V64.83l-.009-.333-1.11-.293-.043.149.718.213a.245.245 0 0 1 .164.303l-.035.117a.244.244 0 0 1-.303.164l-.717-.213-.059.197.797.237a.244.244 0 0 1 .164.303l-.034.117a.245.245 0 0 1-.303.164l-1.104-.382.476-1.56h-.313v-4.938h-2.256c-.09 0-.162-.068-.162-.151v-.3c0-.275-.37-.502-.437-.54l-.009-.005-.001-.001a.149.149 0 0 1-.073-.125v-.3c0-.084.073-.151.163-.151ZM39.636 70.101c0 .232.136.348.41.348.264-.018.407-.123.43-.314 0-.173-.08-.282-.24-.327.151-.037.228-.137.233-.301-.018-.182-.155-.284-.41-.307-.26.009-.396.123-.41.341h.267c.013-.095.061-.15.143-.164.096.005.146.06.15.164.005.123-.093.187-.293.192v.17c.191-.005.289.062.293.198-.009.114-.061.176-.157.185-.095-.014-.145-.075-.15-.185h-.266Zm-1.053.034c.01.205.143.31.403.314.273-.018.421-.152.444-.402-.005-.27-.128-.408-.37-.417-.09 0-.165.03-.224.089l.014-.322h.511v-.17h-.737l-.034.71.26.007c.026-.086.076-.132.15-.136.104.008.161.081.17.218-.009.169-.068.255-.177.26-.087-.005-.137-.055-.15-.15h-.26Zm-.814-.54c0-.145.057-.218.17-.218.1.005.153.078.158.219-.005.132-.057.2-.157.205-.114 0-.17-.069-.17-.205Zm-.252.54c.004.214.138.32.402.314.16 0 .276-.054.349-.163.068-.105.1-.287.095-.547.005-.364-.141-.544-.437-.54-.269.02-.412.156-.43.41.023.224.143.347.361.37.092.004.171-.022.24-.076.014.255-.048.383-.185.383-.068 0-.111-.05-.13-.15h-.265Zm-.958-.492c.105-.04.2-.093.287-.156v.949h.266v-1.209h-.246a1.869 1.869 0 0 1-.307.178v.239Z" clip-rule="evenodd"/><path fill="#315064" fill-rule="evenodd" d="M57.59 59.138s-.229.227-.195.465c.033.238.132.311.554.182.422-.128.55-.893.352-1.054-.198-.162-.71.407-.71.407Zm-.96-.626c-.692-.36-.871-.389-.9-.772-.03-.384.088-.603.551-.708.463-.106 1.718-.412 1.718-.412s.334-.026.273-.827c-.062-.801.387-1.537.657-1.523.27.015.4 1.828.313 2.01-.087.181.914-.035.914-.035s.38.567.337.886c-.044.318.073.52-.794.621.03.388.198.801.17 1.103-.058.591-.408.623-.383.946.006.083 2.032-.26 2.42-.01.39.252-.045 1.16-.686 1.14-.64-.022-2.773.247-2.963.401-.19.155-.49.633-.49.633l2.298-.382c.739-.123.737.3.656 1.174-.093.988.212 2.787.046 3.256-.166.468-.282 1.143-.838 1.36-.555.218-.866.102-.866.102l-.138-1.357s.602-.046.62-.257c.017-.212.393-3.22-.15-3.283-.543-.064-2.085.44-1.789.802 0 0 1.188-.301 1.128.23-.06.53-.208.366-.07.846.137.48.226.754-.142.782-.368.028-.576-.061-.698-.333-.122-.27.197-.505-.164-.828 0 0-.38.31-.159 1.449.222 1.14.073 1.397-.282 1.143-.356-.253-.835-1.233-.853-2.353-.018-1.12.483-2.49.483-2.49s-.468.035-1.718.41c-1.25.377-1.782.452-1.844.072-.063-.381.64-1.311 3.196-1.751-.825-1.405-.18-1.361.146-2.045ZM70.554 58.189s.728-.022.971-.26c0 0 .454.42.282 1.121-.172.702-.667 1.022-1.075 1.025-.407.002-.673-.139-.24-.432.432-.294.77-.382.667-.665-.103-.284-.433-.42-.507-.594a.86.86 0 0 0-.098-.195Zm-.63 6.598-.234.036s-.207.48-.473.698c-.266.216-1.418.309-2.257.27-.839-.038-.66-.986-.492-1.398.168-.412.076-.518.575-.77.5-.255.497.058.493.348-.004.29-.201.57-.138.901.062.331.875.282.875.282s.06-.07.037-.448c-.023-.379.27-.508.27-.508s.762.2 1.061.182c.3-.018.658-.464 1.117-.335.458.128.422.599.094.841-.329.244-.929-.1-.929-.1Zm.706-2.498s1.114-.022 1.217-.452c.103-.43-.16-.526-.675-.517 0 0-.09-.44.228-.483.32-.041 1.166-.94 1.203-1.746.037-.805.03-1.295.026-1.697-.003-.401-.216-.745-1.066-.605-.85.14-1.005.396-1.454.423-.449.027-.731 1.026-.944 1.06-.212.036-.02-.333-.414-.465-.394-.133-.627-.074-.575-.278.052-.204.94-.079 1.814-.511.875-.432 1.333-1.017.855-1.48-.479-.461-1.896-.13-2.547.802-.652.931-.533 1.125-.334 1.581.2.457-.37.268-.358 1.517.01 1.249.156 3.292.192 3.536.036.243.219 1.147 1.352 1.078 1.132-.068 3.142-.524 3.639-.465.497.06.673.495.254 1.01-.419.517-1.05.712-1.283.77-.233.06-.608-.12-.608-.12s-.511.054-.462.52c.05.465.335.581.815.352.48-.23 1.532-.561 2.004-.902.473-.341 1.14-1.385.794-2.123-.344-.738-1.007-.698-2.006-.548-.999.15-2.766.368-3.046.34-.28-.028-.478-.105-.446-1.334.034-1.23-.021-2.14.09-2.415.113-.275.541-.992 1.257-.857 0 0-.36.423-.435.606-.075.183.4.6.307.83-.093.228-.464.83-.456.964.008.134.306.45.509.617.203.166-.266-.14-.394.581-.128.722.947.411.947.411ZM86.728 57.517c.017-.063.29-.159.74-.263.45-.104.741-.221.894.06.152.282.12 1.253.099 1.646-.02.393-.782 1.028-1.177 1.047-.395.019-.331-.294-.18-.466.15-.172 1.028-.421.808-.864-.219-.444-.828-.352-.986-.344-.158.007-.215-.754-.198-.816Zm-5.124 3.34s-.537.377-.714.386c-.178.008-.335.47 0 .413.334-.058.492-.066.788-.492.23-.333.209-.673.061-.791-.19-.153-.558-.016-.525.215.06.41.39.27.39.27Zm.38-1.132c.12-.005-.12-.447-.19-.671-.07-.224-.018-.37.126-.666.144-.296-.846.102-1.286.412-.441.31-1.232.327-1.38.15-.146-.18.324-1.11.474-1.282.15-.172.492-.044 1.003-.131.51-.087 1.995-.921 2.409-.549.413.372.242.917.147 1.004-.095.087-.776.326-.94.643-.162.317.555.407.536 1.666-.018 1.26-.765 1.79-1.05 2.444-.285.653.22.464.452.35.233-.114.654-.816 1.026-.916.37-.1.216.815.05 1.07-.165.255-1.048.835-1.22.946-.173.112-.154.523-.882.6-.73.076-1.052-.858-1.102-1.082-.05-.225.278-.406.451-.91.174-.503-.773-.024-1.147-.398-.375-.374-.21-1.083.425-1.857.636-.773 1.98-.817 2.099-.823Zm2.392 3.207c-.176.05-.127.254.173.713.3.461.902.638.71.77-.192.134-.505.624-.18.774.324.149 1.496.257 2.493-.017.996-.276 1.224-.08 1.143-.943-.082-.862-1.393-.139-1.498-.258-.104-.118-.061-.45.122-.769.182-.318.112-1.367-.047-1.792 0 0 1.845-2.38 1.892-2.63.048-.249-.088-1.831-.245-2.216-.157-.384-.427-.64-1.01-.446-.586.193-1.787.746-2.84.652-1.054-.093-1.497.155-1.572 1.066-.075.912.038 2.433.422 2.6.384.167.931.017.88-.64-.052-.658-.24-1.289-.114-1.542.126-.254.777-.719.953-.356.175.363-.118.83-.125 1.12-.005.29.781.994.476 1.236-.305.242-1.165.469-1.119.61.046.143.09.223.233.32.143.096.334.355.334.355s-.708.096-.732.406c-.025.311.78.19 1.02.24.24.05.816.064.47.72-.344.657-.873.765-1.26.556-.386-.208-.403-.578-.58-.529ZM96.573 58.065c.104-.128-.035-.29-.193-.29-.156 0-1.59.308-2.08.253-.489-.054-.943-.78-.803-.906.14-.127 6.152-.762 6.449-.762.297 0 1.031.091.908.744-.122.652-1.048.544-1.415.489-.367-.054-.595-.181-1.626.435-1.03.617-1.24 1.27-.769 1.27.473 0 1.818.145 1.818.961s-.105 1.342-.472 1.65c-.367.309-.698.49-.734.617-.034.127.07.254.07.254s2.674-.164 3.128.253c.455.417.385 1.106-1.572 1.106s-5.418.236-6.152.363c-.735.127-1.032-.108-.821-.816.209-.707 2.324-.29 4.036-1.178 1.713-.89 1.486-1.723.997-1.905-.49-.181-1.434.163-1.626-.38-.28-.653.752-2.032.857-2.158ZM111.546 58.748c.072.095-.181.489-.469.489-.289 0-.686-.038-.866-.3-.181-.264.18-1.296.595-1.296s.668 1.014.74 1.108Zm-2.202 2.685c.144.132.379 1.522 1.299 2.216.921.695 2.202 1.615 2.96 1.615.759 0 1.083-.32 1.336-.32.253 0 .235-.657-.415-.9-.65-.245-4.458-2.216-4.025-3.155.434-.244 2.292.019 2.563-.62.271-.638.145-.938.054-1.05-.09-.114-1.389-1.11-1.642-1.785-.253-.676-1.011-1.915-2.094-1.089-1.083.827-.144 3.005-1.732 2.967-1.589-.037-2.708 1.483-1.137 2.065 0 0 .379.075.613.075.235 0-.126.601-.721 1.146-.596.544-1.643 1.37-1.734 1.971-.089.601.271.563 1.138.075.867-.488 1.949-1.558 2.4-2.159.451-.6.992-1.183 1.137-1.052ZM119.678 56.977c.003.922.313 1.842.286 2.01-.027.167-.045.166-.353.187-.309.02-.81.256-.898.533-.087.277-.316 2.127.451 2.3.768.175.957-.304.973-.584.008-.159-.088-.389-.173-.559-.123-.243-.137-.322.037-.518.224-.254.673-.615 1.025-.623.471-.012 4.367-1.169 4.672-.794.304.374-.435.671.53.856.966.185.761-.992.739-1.237-.023-.246-.317-.827-1.539-.63 0 0 .149-.726.357-1.204.206-.477.149-1.721-.426-2.11-.575-.39-1.036.111-1.124.389-.087.277-.477.782-.717.863-.239.08-.559.307-.373-.115.186-.423.248-.57.225-.796-.024-.227-.733-.154-.928.099-.195.252-.281.849-.372.844-.09-.005-.107-.363-.263-.466-.318-.208-.636.1-.762.307-.185.3-.097.632-.134.866-.028.167-.159-.084-.276-.242-.119-.156-.96-.297-.957.624Zm4.443-.26s.583.577.759.342c0 0-.005-1.223-.033-1.374-.027-.152-.239-.258-.478-.177-.239.08-.938.625-.946.756-.007.13.152.854.351.847.199-.008.347-.395.347-.395Zm-.617.698c.194-.233.239-.062.287.035.049.097-.036.656-.063.824-.027.168-.683.263-.882.252-.198-.01.031-.243.185-.403.153-.161.279-.474.473-.708Zm-1.81-.608c-.04.393-.116 1.122-.133 1.422-.017.3.316.826.403.23.132-.902-.17-.711.388-1.465 0 0 .084.118.011.452-.072.335-.102.54.172.499.273-.042.509-.386.317-.829-.193-.443-.409-.775-.662-.79-.252-.013-.456.088-.496.481Zm-1.027.921s-.07.937-.028 1.146c.043.21.347.264.369-.13.022-.394-.074-.945-.179-1.007-.105-.062-.162-.009-.162-.009Zm1.773 3.559c-.842.179-1.016.395-1.292.154-.276-.241-.462-.477.085-.88.342-.25 1.089-.36 1.683-.468.357-.065.651-.178.793-.184.381-.016 1.205-.215 1.165.516-.041.73-.76.654-.867.967l-.007.113.883.049s.332-.433.905-.345c.574.088.501.742-.122.896-.623.153-1.261.25-1.305.379-.043.13-.062.805-.099 1.142-.036.336-.391 1.181-.538 1.55-.146.367-.673 1.39-1.002 1.448-.328.057-.809.256-.816-.29-.005-.545.214-.91.214-.91l-.156-.44s.898-.233.94-.663c.042-.43.297-1.45-.177-1.364-.475.087-1.227.61-1.804.916-.578.306-1.144.068-.863-.744.334-.967 1.53-.673 2.22-1.125.399-.262.916-.657.916-.657s.085-.24-.756-.06Z" clip-rule="evenodd"/><path fill="#000" fill-rule="evenodd" d="M56.046 70.378a.745.745 0 0 0 .143-.271 1.27 1.27 0 0 0 .047-.365c0-.284-.062-.496-.187-.635a.626.626 0 0 0-.49-.21.628.628 0 0 0-.492.21c-.125.141-.188.353-.188.635 0 .287.063.501.188.644a.609.609 0 0 0 .477.213.586.586 0 0 0 .202-.035 1.443 1.443 0 0 0-.306-.154l.139-.283c.163.056.318.14.467.251Zm.398.28c.122.087.254.156.397.207l-.183.35a1.142 1.142 0 0 1-.219-.092 9.924 9.924 0 0 1-.33-.218c-.16.07-.339.106-.534.106-.377 0-.673-.111-.886-.333-.214-.222-.32-.534-.32-.936 0-.4.106-.713.32-.935.215-.223.506-.334.873-.334.364 0 .652.111.866.334.213.222.32.534.32.935 0 .212-.03.398-.09.56a1.156 1.156 0 0 1-.214.356ZM57.182 70.97h.496v-2.456h-.496v2.455ZM58.217 70.97v-2.456h.482l1.005 1.64v-1.64h.46v2.455h-.497l-.99-1.6v1.6h-.46ZM61.892 70.067v-.414h1.068v.978c-.104.1-.254.189-.451.265a1.644 1.644 0 0 1-.599.115c-.256 0-.48-.054-.671-.162a1.028 1.028 0 0 1-.43-.462 1.497 1.497 0 0 1-.144-.654c0-.255.053-.482.16-.681.107-.199.264-.351.47-.457a1.27 1.27 0 0 1 .588-.122c.305 0 .543.064.714.192a.866.866 0 0 1 .331.53l-.492.091a.519.519 0 0 0-.195-.285.59.59 0 0 0-.358-.105.672.672 0 0 0-.516.206c-.128.137-.192.341-.192.611 0 .292.065.51.194.656.13.146.3.218.51.218.103 0 .207-.02.312-.06.104-.041.193-.09.268-.149v-.311h-.567ZM63.973 68.93v1.625h.37c.138 0 .238-.007.3-.023a.455.455 0 0 0 .2-.102.517.517 0 0 0 .129-.237 1.6 1.6 0 0 0 .05-.45c0-.19-.017-.335-.05-.437a.559.559 0 0 0-.14-.237.47.47 0 0 0-.23-.116 2.235 2.235 0 0 0-.407-.023h-.222Zm-.496-.416h.906c.204 0 .36.016.467.047a.818.818 0 0 1 .37.226c.103.109.18.241.235.398.053.157.08.35.08.58 0 .202-.025.376-.075.523-.062.178-.15.323-.263.433a.868.868 0 0 1-.349.196c-.109.035-.255.052-.438.052h-.933v-2.454ZM67.318 69.998l-.338-.91-.332.91h.67Zm.912.971h-.539l-.214-.557h-.981l-.203.557h-.526l.956-2.455h.524l.983 2.455ZM68.965 69.74c0 .278.064.489.192.632a.628.628 0 0 0 .49.215c.197 0 .36-.07.486-.213.126-.142.19-.356.19-.64 0-.282-.062-.492-.185-.63a.626.626 0 0 0-.491-.208.63.63 0 0 0-.495.21c-.125.14-.187.352-.187.634Zm-.51.017c0-.25.037-.46.111-.63.056-.124.132-.237.23-.336a.957.957 0 0 1 .316-.221 1.35 1.35 0 0 1 .53-.097c.361 0 .65.112.868.336.217.225.325.537.325.936 0 .397-.107.707-.323.93-.215.224-.504.336-.864.336-.365 0-.655-.111-.87-.334-.216-.223-.324-.53-.324-.92ZM73.056 70.97v-2.04h-.728v-.416h1.95v.416h-.726v2.04h-.496ZM74.684 70.97v-2.456h1.82v.416H75.18v.544h1.232v.413H75.18v.668h1.37v.414h-1.866ZM78.627 70.067l.481.152c-.074.268-.196.467-.368.597-.171.13-.388.195-.652.195-.325 0-.594-.111-.803-.334-.21-.223-.315-.527-.315-.913 0-.409.106-.726.316-.952.211-.226.489-.34.832-.34.3 0 .544.09.732.267a.965.965 0 0 1 .251.452l-.49.117a.52.52 0 0 0-.182-.301.519.519 0 0 0-.336-.11.559.559 0 0 0-.443.195c-.113.13-.17.342-.17.635 0 .31.056.531.168.663a.543.543 0 0 0 .435.197.496.496 0 0 0 .34-.125c.095-.084.163-.216.204-.395ZM79.62 70.97v-2.456h.496v.967h.971v-.966h.496v2.454h-.496v-1.073h-.97v1.073h-.496ZM82.186 70.97v-2.456h.482l1.005 1.64v-1.64h.46v2.455h-.497l-.99-1.6v1.6h-.46ZM85.153 69.74c0 .278.064.489.193.632a.627.627 0 0 0 .489.215c.197 0 .36-.07.486-.213.127-.142.19-.356.19-.64 0-.282-.062-.492-.185-.63a.626.626 0 0 0-.491-.208.63.63 0 0 0-.494.21c-.125.14-.188.352-.188.634Zm-.51.017c0-.25.037-.46.112-.63.055-.124.132-.237.228-.336a.96.96 0 0 1 .318-.221 1.35 1.35 0 0 1 .529-.097c.361 0 .65.112.868.336.217.225.326.537.326.936 0 .397-.108.707-.324.93-.215.224-.503.336-.864.336-.365 0-.655-.111-.87-.334-.215-.223-.323-.53-.323-.92ZM87.51 70.97v-2.435h.495v2.02h1.232v.414H87.51ZM90.087 69.74c0 .278.064.489.192.632a.628.628 0 0 0 .489.215c.198 0 .36-.07.486-.213.127-.142.19-.356.19-.64 0-.282-.061-.492-.184-.63a.627.627 0 0 0-.492-.208.63.63 0 0 0-.494.21c-.125.14-.187.352-.187.634Zm-.511.017c0-.25.037-.46.112-.63.056-.124.132-.237.229-.336a.953.953 0 0 1 .317-.221 1.35 1.35 0 0 1 .529-.097c.362 0 .651.112.868.336.217.225.326.537.326.936 0 .397-.108.707-.323.93-.216.224-.504.336-.864.336-.365 0-.656-.111-.871-.334-.215-.223-.323-.53-.323-.92ZM93.571 70.067v-.414h1.068v.978c-.103.1-.254.189-.45.265a1.645 1.645 0 0 1-.6.115c-.256 0-.48-.054-.67-.162a1.027 1.027 0 0 1-.431-.462 1.49 1.49 0 0 1-.144-.654c0-.255.054-.482.16-.681a1.08 1.08 0 0 1 .471-.457c.158-.082.353-.122.588-.122.304 0 .543.064.714.192a.867.867 0 0 1 .33.53l-.492.091a.518.518 0 0 0-.195-.285.589.589 0 0 0-.357-.105.672.672 0 0 0-.517.206c-.128.137-.192.341-.192.611 0 .292.065.51.195.656.13.146.299.218.509.218.103 0 .207-.02.312-.06.104-.041.194-.09.269-.149v-.311h-.568ZM95.167 70.97h.496v-2.456h-.496v2.455ZM97.791 70.067l.48.152c-.073.268-.195.467-.367.597-.171.13-.389.195-.652.195-.326 0-.594-.111-.804-.334-.21-.223-.314-.527-.314-.913 0-.409.105-.726.316-.952.211-.226.488-.34.832-.34.3 0 .544.09.732.267a.97.97 0 0 1 .251.452l-.49.117a.516.516 0 0 0-.183-.301.519.519 0 0 0-.335-.11.558.558 0 0 0-.443.195c-.113.13-.17.342-.17.635 0 .31.056.531.168.663a.544.544 0 0 0 .435.197.497.497 0 0 0 .34-.125c.094-.084.163-.216.204-.395ZM100.083 69.998l-.338-.91-.33.91h.668Zm.913.971h-.539l-.214-.557h-.981l-.203.557h-.526l.956-2.455h.525l.982 2.455ZM101.358 70.97v-2.435h.496v2.02h1.232v.414h-1.728ZM104.841 68.514h.496v1.33c0 .21.006.347.019.41.021.1.071.181.151.242a.525.525 0 0 0 .327.091c.141 0 .247-.028.318-.086a.336.336 0 0 0 .129-.212 2.69 2.69 0 0 0 .022-.417v-1.358h.495v1.29c0 .294-.013.503-.039.624a.708.708 0 0 1-.149.309.745.745 0 0 1-.289.2c-.12.05-.278.074-.472.074-.235 0-.412-.027-.533-.081a.762.762 0 0 1-.287-.211.668.668 0 0 1-.139-.272 3 3 0 0 1-.049-.623v-1.31ZM107.497 70.97v-2.456h.482l1.005 1.64v-1.64h.46v2.455h-.497l-.989-1.6v1.6h-.461ZM110.125 70.97h.496v-2.456h-.496v2.455ZM111.89 70.97l-.877-2.456h.537l.622 1.817.6-1.817h.526l-.879 2.455h-.529ZM113.723 70.97v-2.456h1.82v.416h-1.325v.544h1.233v.413h-1.233v.668h1.371v.414h-1.866ZM116.679 69.553h.366c.238 0 .387-.01.446-.03a.27.27 0 0 0 .139-.104c.033-.05.05-.11.05-.185a.295.295 0 0 0-.066-.2.302.302 0 0 0-.187-.096 4.091 4.091 0 0 0-.361-.008h-.387v.623Zm-.496 1.416v-2.455h1.043c.263 0 .453.022.572.067a.567.567 0 0 1 .286.235.71.71 0 0 1 .107.387.658.658 0 0 1-.163.456c-.108.12-.27.196-.485.227.107.062.195.13.265.206.07.075.164.207.282.398l.3.48h-.593l-.358-.535a3.44 3.44 0 0 0-.261-.36.385.385 0 0 0-.149-.103.823.823 0 0 0-.25-.028h-.1v1.025h-.496ZM118.703 70.17l.483-.047c.029.162.087.281.176.357a.535.535 0 0 0 .359.114c.16 0 .28-.034.361-.101a.302.302 0 0 0 .122-.237.224.224 0 0 0-.051-.148.417.417 0 0 0-.179-.107 6.108 6.108 0 0 0-.396-.107c-.266-.066-.452-.147-.56-.243a.638.638 0 0 1-.226-.493c0-.126.036-.242.106-.351a.675.675 0 0 1 .307-.249c.133-.057.294-.085.483-.085.308 0 .54.067.696.202a.715.715 0 0 1 .245.54l-.496.023c-.021-.126-.066-.217-.136-.272-.07-.055-.174-.083-.314-.083a.563.563 0 0 0-.338.089.178.178 0 0 0-.079.152.19.19 0 0 0 .074.149c.062.053.214.107.455.164.241.057.42.116.535.177.116.06.206.144.272.25a.732.732 0 0 1 .097.39.723.723 0 0 1-.448.67c-.143.059-.321.089-.534.089-.311 0-.549-.072-.716-.215-.166-.144-.265-.353-.298-.627ZM121.273 70.97h.495v-2.456h-.495v2.455ZM122.964 70.97v-2.04h-.728v-.416h1.951v.416h-.727v2.04h-.496ZM125.323 70.97v-1.034l-.899-1.422h.58l.578.972.566-.972h.571l-.903 1.425v1.03h-.493Z" clip-rule="evenodd"/></g><defs><filter id="a" width="154" height="157" x="0" y="0" color-interpolation-filters="sRGB" filterUnits="userSpaceOnUse"><feFlood flood-opacity="0" result="BackgroundImageFix"/><feColorMatrix in="SourceAlpha" result="hardAlpha" values="0 0 0 0 0 0 0 0 0 0 0 0 0 0 0 0 0 0 127 0"/><feOffset dy="16"/><feGaussianBlur stdDeviation="6.5"/><feColorMatrix values="0 0 0 0 0 0 0 0 0 0 0 0 0 0 0 0 0 0 0.03 0"/><feBlend in2="BackgroundImageFix" result="effect1_dropShadow_266_362"/><feBlend in="SourceGraphic" in2="effect1_dropShadow_266_362" result="shape"/></filter></defs></svg>