<svg xmlns="http://www.w3.org/2000/svg" width="154" height="157" fill="none"><g filter="url(#a)"><path fill="#fff" d="M13 0h128v128H13z"/><path fill="#004073" fill-rule="evenodd" d="M58.047 72.207h-.118c-.01.09-.05.134-.12.134a.557.557 0 0 1-.166-.045 1.368 1.368 0 0 0-.432-.09c-.538.01-.822.265-.852.763-.02.32.198.588.656.806l.255.134c.298.109.444.265.432.463-.018.27-.179.409-.477.418-.399 0-.663-.27-.79-.805h-.105v.911h.104c.02-.068.06-.104.12-.104.03 0 .086.01.164.031.18.05.342.076.493.076.588-.02.902-.28.94-.777 0-.31-.14-.543-.418-.702l-.552-.269c-.17-.08-.28-.149-.329-.208a.39.39 0 0 1-.073-.255c.01-.22.149-.34.418-.359.35.01.597.244.746.702h.104v-.824Zm1.764.132c.428.021.652.427.673 1.225 0 .808-.224 1.217-.673 1.226-.458-.01-.687-.418-.687-1.226.019-.795.248-1.204.687-1.225Zm0-.132c-.857.059-1.31.512-1.36 1.36.05.845.503 1.29 1.36 1.33.848-.04 1.294-.485 1.344-1.33-.05-.848-.496-1.301-1.344-1.36Zm4.154.059h-.836v.09c.27 0 .394.13.373.387v1.164c.019.548-.205.822-.673.822-.378 0-.562-.248-.553-.747v-1.27c0-.149.026-.243.076-.283.03-.05.13-.076.3-.076v-.09h-1.299v.09c.14.01.224.04.253.09.04.04.059.13.059.269v1.27c-.01.329.08.562.27.702.178.139.436.21.776.21.328-.01.578-.095.746-.253.13-.14.2-.382.21-.732v-1.225c-.02-.21.08-.32.298-.329v-.09Zm2.033 2.493c-.18-.01-.279-.035-.297-.075-.05-.04-.076-.135-.076-.284v-2.016c.449-.01.692.203.732.642h.118l-.014-.763h-2.286l-.014.763h.104c.05-.44.297-.652.746-.642V74.4c0 .15-.026.244-.076.284-.019.04-.118.064-.297.075v.09h1.36v-.09Zm3.48 0c-.139-.019-.224-.045-.254-.075-.05-.04-.076-.109-.076-.21v-1.838c-.01-.188.1-.283.328-.283v-.09h-1.298v.09c.238 0 .354.095.344.283v.791h-.911v-.79c-.01-.19.104-.284.342-.284v-.09h-1.299v.09c.23 0 .338.095.329.283v1.838c0 .099-.026.17-.074.21-.03.03-.115.054-.255.075v.09h1.3v-.09c-.14-.019-.23-.045-.27-.075-.05-.04-.075-.109-.075-.21v-.867h.911v.867c0 .099-.024.17-.076.21-.04.03-.13.054-.269.075v.09h1.299v-.09h.005Zm3.543-.49c-.279.327-.579.488-.898.476a.706.706 0 0 1-.583-.345c-.108-.18-.165-.458-.165-.836 0-.817.234-1.225.704-1.225.368.021.668.279.897.777h.09v-.895h-.104c-.04.118-.095.18-.166.18a.796.796 0 0 1-.179-.06c-.23-.09-.418-.134-.567-.134-.836.059-1.284.517-1.343 1.374.059.845.512 1.284 1.36 1.315.408.01.767-.17 1.074-.538l-.12-.09Zm3.136.49c-.14-.019-.225-.045-.255-.075-.05-.04-.076-.109-.076-.21v-1.838c-.01-.188.1-.283.328-.283v-.09h-1.298v.09c.238 0 .354.095.344.283v.791h-.911v-.79c-.01-.19.104-.284.345-.284v-.09h-1.3v.09c.23 0 .338.095.33.283v1.838c0 .099-.027.17-.076.21-.031.03-.116.054-.255.075v.09h1.298v-.09c-.14-.019-.229-.045-.269-.075-.05-.04-.075-.109-.075-.21v-.867h.911v.867c0 .099-.026.17-.076.21-.04.03-.13.054-.269.075v.09h1.299v-.09h.005Zm1.494 0c-.26 0-.385-.094-.373-.283v-1.837c-.01-.19.104-.284.345-.284h.03v-.09h-1.345v.09c.25 0 .368.095.359.284v1.837c0 .1-.024.17-.076.21-.04.03-.134.054-.283.076v.09h1.346v-.093h-.003Zm.987.09v-.09c-.26 0-.377-.13-.358-.387v-1.525l1.702 2.047h.104v-2.225c-.021-.188.08-.295.298-.314v-.09h-.822v.09c.26.01.378.14.359.388v1.15l-1.33-1.63h-.807v.09c.05-.01.158.085.328.283v1.81c0 .108-.026.183-.076.224-.04.04-.13.068-.269.09v.089h.871Zm2.539-.895.359-.942.387.942h-.746Zm1.913.805a.23.23 0 0 1-.194-.104c-.04-.04-.113-.184-.224-.432l-.853-2.016h-.104l-.852 2.106c-.09.3-.215.449-.373.449v.09h.777v-.09h-.014c-.199-.031-.3-.085-.3-.163-.01-.05.05-.215.18-.494h.852c.108.239.17.409.18.508.018.09-.07.14-.27.149h-.045v.09h1.24v-.093Zm2.002.09v-.09c-.26 0-.378-.13-.359-.387v-1.525l1.703 2.047h.104v-2.225c-.022-.188.08-.295.297-.314v-.09h-.822v.09c.26.01.378.14.36.388v1.15l-1.33-1.63h-.808v.09c.05-.01.16.085.329.283v1.81c0 .108-.026.183-.076.224-.04.04-.13.068-.27.09v.089h.872Zm3.318-2.51c.427.021.652.427.67 1.225 0 .808-.224 1.217-.67 1.226-.458-.01-.687-.418-.687-1.226.021-.795.25-1.204.687-1.225Zm0-.132c-.857.059-1.31.512-1.36 1.36.05.845.503 1.29 1.36 1.33.845-.04 1.294-.485 1.344-1.33-.048-.848-.496-1.301-1.344-1.36Zm2.54.342c-.018-.12.06-.17.24-.149.309 0 .462.184.462.553 0 .229-.05.382-.151.463-.09.08-.274.118-.553.118v-.985h.003Zm1.675 2.21c-.05 0-.1-.023-.149-.075l-.777-1.091c.409-.118.607-.338.598-.657-.01-.439-.369-.663-1.075-.673h-1.225v.09c.14.01.224.035.255.076.05.05.075.144.075.283V74.4c0 .14-.02.234-.059.284-.03.04-.12.064-.269.075v.09h1.285v-.09c-.16-.019-.25-.05-.27-.09-.04-.04-.058-.13-.058-.269v-.746h.103l.791 1.195h.777v-.09h-.002Zm3.54 0c-.159-.019-.253-.05-.284-.09-.04-.04-.059-.13-.059-.269v-1.688c0-.14.026-.234.076-.283.03-.04.12-.064.27-.076v-.09h-.972l-.762 1.81-.763-1.81h-.97v.09c.248.01.363.104.344.283v1.81c0 .12-.019.198-.059.238-.04.04-.134.064-.283.075v.09h.88v-.09c-.15-.01-.25-.045-.3-.104-.049-.05-.075-.144-.075-.283v-1.778l.957 2.255h.103l.957-2.317h.014v1.927c0 .109-.026.185-.076.225-.03.03-.12.054-.269.075v.09h1.27v-.09Zm.793-.805.36-.942.386.942h-.746Zm1.913.805a.23.23 0 0 1-.194-.104c-.04-.04-.113-.184-.224-.432l-.853-2.016h-.103l-.853 2.106c-.09.3-.215.449-.373.449v.09h.777v-.09h-.017c-.198-.031-.3-.085-.3-.163-.009-.05.05-.215.18-.494h.852c.109.239.168.409.18.508.019.09-.069.14-.27.149h-.044v.09h1.24v-.093h.002Zm2.555-.774h-.104c-.179.517-.503.767-.971.746-.25.021-.363-.05-.342-.208v-1.809c0-.148.026-.243.076-.283.04-.05.144-.076.314-.076v-.09h-1.33v.09c.23 0 .338.095.328.284v1.837c0 .1-.023.17-.075.21-.03.03-.116.054-.255.076v.09h2.212l.147-.867Zm3.733-1.72h-.836v.09c.27 0 .395.13.373.388v1.164c.019.548-.205.822-.673.822-.377 0-.562-.248-.552-.747v-1.27c0-.149.026-.243.075-.283.031-.05.13-.076.3-.076v-.09h-1.298v.09c.139.01.224.04.252.09.04.04.059.13.059.269v1.27c-.009.329.081.562.269.702.18.139.437.21.777.21.329-.01.579-.095.747-.253.129-.14.198-.382.21-.732v-1.225c-.022-.21.08-.32.297-.329v-.09Zm1.004 2.584v-.09c-.26 0-.378-.13-.359-.387v-1.525l1.702 2.047h.104v-2.225c-.021-.188.081-.295.298-.314v-.09h-.822v.09c.26.01.378.14.359.388v1.15l-1.329-1.63h-.808v.09c.05-.01.161.085.328.283v1.81c0 .108-.023.183-.075.224-.04.04-.13.068-.27.09v.089h.872Zm3.242-.09c-.26 0-.385-.094-.373-.283v-1.837c-.01-.19.104-.284.345-.284h.03v-.09h-1.346v.09c.248 0 .369.095.359.284v1.837c0 .1-.023.17-.075.21-.04.03-.135.054-.284.076v.09h1.346v-.093h-.002Zm1.927-2.493v.09c.139.009.224.025.253.044.049.02.075.064.075.135 0 .04-.019.109-.059.21a.295.295 0 0 0-.014.059l-.494 1.254-.493-1.212c-.08-.158-.118-.269-.118-.328 0-.07.019-.108.059-.12.028-.019.118-.035.269-.045v-.09h-1.285v.09c.149 0 .26.09.329.27l.973 2.27h.103l.867-2.226c.071-.208.184-.314.345-.314v-.087h-.81Zm.942.09c.239 0 .354.094.345.283v1.837c0 .1-.024.17-.076.21-.03.03-.12.054-.269.076v.09h2.241l.149-.792h-.104c-.189.458-.522.683-1.001.673-.239.01-.347-.059-.329-.208V73.6c.208 0 .359.04.449.12.09.09.149.243.18.463h.089v-1.285h-.089c-.031.22-.09.369-.18.45-.09.08-.238.117-.449.117v-.88c-.018-.14.076-.199.284-.18.3 0 .508.045.628.135.13.09.21.255.238.493h.107v-.763h-2.213v.085Zm3.54.193c-.019-.12.059-.17.238-.149.31 0 .463.184.463.553 0 .229-.049.382-.149.463-.089.08-.274.118-.552.118v-.985Zm1.674 2.21c-.05 0-.099-.023-.149-.075l-.777-1.091c.409-.118.607-.338.598-.657-.01-.439-.369-.663-1.075-.673h-1.225v.09c.139.01.224.035.255.076.049.05.075.144.075.283V74.4c0 .14-.021.234-.059.284-.03.04-.12.064-.269.075v.09h1.285v-.09c-.161-.019-.251-.05-.269-.09-.041-.04-.059-.13-.059-.269v-.746h.103l.792 1.195h.776v-.09h-.002Zm1.868-2.552h-.118c-.01.09-.05.134-.121.134a.558.558 0 0 1-.165-.045 1.368 1.368 0 0 0-.432-.09c-.538.01-.822.265-.853.763-.018.32.199.588.657.806l.255.134c.298.109.444.265.432.463-.019.27-.179.409-.479.418-.399 0-.661-.27-.791-.805h-.104v.911h.104c.019-.068.059-.104.12-.104.028 0 .085.01.163.031.18.05.345.076.494.076.588-.02.902-.28.939-.777 0-.31-.139-.543-.418-.702l-.552-.269c-.17-.08-.279-.149-.328-.208a.389.389 0 0 1-.074-.255c.01-.22.149-.34.418-.359.35.01.598.244.747.702h.106v-.824Zm1.688 2.552c-.259 0-.382-.094-.373-.283v-1.837c-.009-.19.104-.284.343-.284h.03v-.09h-1.346v.09c.248 0 .369.095.359.284v1.837c0 .1-.023.17-.073.21-.04.03-.135.054-.283.076v.09h1.346v-.093h-.003Zm2.017 0c-.18-.01-.279-.035-.298-.075-.049-.04-.075-.135-.075-.284v-2.016c.448-.01.692.203.732.642h.118l-.014-.763h-2.286l-.014.763h.104c.049-.44.297-.652.746-.642V74.4c0 .15-.026.244-.076.284-.019.04-.12.064-.297.075v.09h1.36v-.09Zm2.42-2.493v.09c.22.009.324.068.314.179a.765.765 0 0 1-.148.345l-.418.718-.463-.898c0-.01-.01-.026-.029-.045a.48.48 0 0 1-.061-.165c-.028-.1.076-.144.314-.135v-.09h-1.284v.09c.129.01.229.08.299.21l.702 1.271v.57c0 .138-.024.228-.073.268-.031.05-.126.08-.284.09v.09h1.33v-.09c-.159-.01-.255-.035-.284-.076-.04-.04-.059-.134-.059-.283v-.704l.732-1.194c.05-.08.13-.13.239-.15h.014v-.091h-.841ZM59.466 58.463c.617 0 .442 1.59.442 1.59l-1.41.748s-.703.654.352.654c1.058 0 2.29-1.027 2.29-1.027l-.176 2.057s-4.053 2.338-4.582 2.338c-.529 0-1.057.654-.177 1.121.881.468.53.373 1.497-.373.969-.748 3.172-2.149 3.172-2.149l.087 1.59-1.587 1.121s-.968.5 0 1.122c.968.62 1.674-.095 1.674-.095s-.087 1.122-.177 1.684c-.087.562-.616.84.265 1.776.88.935 1.353.529 1.353-.312 0-.84-.208-4.364-.208-4.364s1.058-.28 1.233-.748c.177-.468 0-.562-.881-.562-.88 0-.88-.281-.88-.281l.268-1.677s2.404-.715 3.514-1.244c.923-.44.954-.758.727-.917-.29-.203-1.07-.16-1.575.01-1.192.397-2.566 1.216-2.566 1.216l.16-1.315s.177-1.122.88-1.122c.705 0 2.027-.749 1.94-1.216-.088-.468-.336-.364-.954-.27-.244.038-.494-.715-.61-.644-.455.283-.092 1.55-1.067 1.381-.239-.04.017-.311-.106-.349-.272-.087-.583-.047-.777.295l-.574 1.016s-.493-1.148-.054-1.616c.441-.467 3.965-2.616 3.965-2.616s.441-1.216-.53-.84c-.968.372-2.642 2.056-2.642 2.056s-.352.749-.616.187c-.265-.562.177-1.122-.265-1.217-.441-.094-1.232-.561-1.232.187 0 .293-.21.328-.347.472-.185.192-.156.277-.147.333.012.064.028.088.199.158.295.126.295.626.295.626-.265.104-.572.135-.702.34-.21.343-.075.876.53.876ZM83.456 56.952s.522.418.522.916c0 .498-.758 1.958-1.434 2.711-.526.588-1.3 1.46-1.636 1.894-.154.198-.243.328.05.444.226.092.57.118.703-.095.208-.342 3.07-3.544 3.474-4.056.418-.536.384-1.035-.095-1.42-1.025-.828-1.584-.394-1.584-.394Zm-1.627 8.671c-.107 1.653.137 1.89.404 1.925.264.033 1.01-.045.956-1.653-.052-1.608-1.35-1.722-1.35-1.722l-.01 1.45Zm2.437-1.884c-.062.05-.758.427-.742.852.014.428.03 1.313.494 1.363.465.05.928-.312.805-1.1-.123-.787-.496-1.165-.557-1.115Zm.19-2.89s-1.069 1.504-1.477 1.822c-.406.32.106.548.493.662.385.113.985.273 1.178-.364.194-.638.17-1.027.343-1.117.172-.09.3-.685.087-.867-.215-.181-.623-.137-.623-.137Zm.915 3.331s-.173.782.378.673c.547-.108 1.268-.781 1.284-.437.017.345-.014 4.067-.014 4.364 0 .298.392.633.597.633.206 0 .671-.217.671-1.107v-3.821s.56.415 1.474-1.169c.628-1.089.189-1.4-.147-1.49-.285-.076-.274-.035-.498.12-.281.199-.767.518-.999.518-.335 0-.019-.277-.187-.277-.167 0-.616-.118-.616.1 0 .217-.019 1.187-.019 1.187l-1.924.706Zm3.258-1.525c-.11.137-.45.566-.292.673.158.106.408.193.585-.107.175-.3.603-.573.333-.672-.269-.1-.626.106-.626.106Zm-2.455-1.193c.153.253.434.536.861.49.763-.084 1.937-1.085 2.329-1.439.392-.354.822-.791.489-1.126-.333-.333-.685-.272-1.31.25-.452.373-1.517.975-2.103 1.275-.368.187-.538.102-.266.55ZM101.237 57.016c-.255-.272-.893-.137-1.301.408-.409.543-.383 1.195-.18 1.306.206.109 1.212.095 1.783-.62.461-.575-.302-1.094-.302-1.094Zm-3.86 1.634c-.343-.198-.78-.25-.967.021-.184.27-.498.645.05 1.04.546.394 1.063.665 1.386.216.67-1.07-.47-1.277-.47-1.277Zm2.767 2.451c.425-.038.283.451 0 .678-.284.226-.64.753-.64 1.355s.817.829 1.136.829c.318 0 .035-.678.035-1.129 0-.45.531-1.09 1.03-1.544.496-.451.07-1.053-.567-1.204-.64-.151-1.42.904-1.42.904l.426.111Zm-1.063 2.37-.39-.412s-.141 1.92-.354 2.597c-.212.678.107 1.958.888 2.071.782.113 2.98.076 3.479-.076.495-.15.994-.828.566-1.92-.425-1.09-.64-1.392-.817-1.355-.177.038-.248.376-.141.867.106.489.425 1.166-.142 1.355-.567.19-2.768.64-2.874-.526-.109-1.17.069-1.847-.215-2.6Zm-4.538-4.77c-.423.305-1.158 1.08-1.087 1.65.095.769.376 1.102.973 1.003.522-.088.85-1.736.78-2.506-.048-.489-.367-.363-.666-.146Zm1.508 2.36-.009.505-.588.376s.087.342.529.25c.442-.095-.059.748-.354.718-.295-.03-.588-.03-.647.186-.06.22-1.03.156-1.03.156s-.765.843-.41 1.219c.351.375.91-.187 1.088-.281.177-.095.442-.437.793-.062.352.376.293.437-.118.718-.41.281-.264.498-.059.657.206.156.265.406-.41.406-.678 0-.412-.187-.47-.343-.06-.156-1.266.406-1.5 1.094-.236.687.295 1.124.796.968.5-.156 1.353-1.25 1.794-1.03.442.22.088.468-.146.969-.236.498-.118 1.445.288 1.823.406.377.812-.433.812-.973 0-.541-.15-2.08.076-2.27.229-.189.508-.81.76-.973a.957.957 0 0 0 .456-.838c0-.406-.102-.486-.456-.567-.354-.08-.15-.755.05-.81.203-.054.583-.323.557-.62-.026-.298-.153-.676-.456-.65-.304.028-.127-.512-.583-.701-.458-.196-.788-.196-.762.073ZM115.242 67.814s-1.14.19-1.924-.226c-.784-.416-1.996-1.285-1.996-1.285s-.252-.21-.264.12c-.012.331.359.865.538 1.068.18.203.935 1.97 1.712 1.908.782-.066 1.934-1.585 1.934-1.585Zm-3.884-8.016c0-.416-.392-1.4-.855-1.816-.463-.416-.784-.416-.571.566.214.983 0 4.539-.322 5.257-.321.718-1.14.944-2.137 1.058-.996.113-1.745-.303-1.426.415.321.718.534 1.552 1.211 1.134.678-.416 2.175-1.552 2.137-.68-.035.869-1.211 2.836-2.921 2.533 0 0-.285.718.714.907.996.19 3.065-1.511 2.923-4.158 0 0 2.317-.983 3.242-1.436.926-.453.25-.869.036-.945-.215-.075-.643-.453-1.106-.037-.462.415-1.532 1.36-1.78.944-.25-.415.177-1.438.498-2.042.321-.605.357-1.7.357-1.7ZM76.704 60.82l-3.683 2.364-.036-.704s2.68-2.475 2.987-2.772c.308-.3-.408-1.006-.637-.68-.23.325-.664.597-.945.434-.28-.163.383-.734.255-1.169-.127-.434-1.938-1.766-1.938-1.766l.099 3.412c-.024.772-1.762 1.478-2.44 1.426-.675-.052-1.057-.203-1.027.496.031.7 1.698.879 2.133.902.434.024.455.766.052.938-.404.172-2.152 1.053-2.723 1.313-.572.26-.633 1.282-.633 2.65 0 1.367.836 1.692 1.223 1.692.388 0 .449-.76.47-1.433.021-.673-.55-1.259-.713-1.738-.163-.477 1.407-1.325 1.755-1.346.347-.021.325.522.59.824.264.305.734-.042.919-.26.184-.217.571-.217.651-.02.08.195-.184.282-.611.455-.428.175-.347.305-.184.63.162.326-.022.76-.428.76-.409 0-.51.523-.51.523s-.007.01.033.141c.04.13.982 1.261 1.433 1.346.451.088.654-.283 1.105-1.346.452-1.065 1.332.414 1.64.912.306.5 1.31 1.303 1.371-.109.062-1.412.517-4.604.987-6.583.468-1.982-1.195-1.292-1.195-1.292Zm-3.577 3.478c-.316.288-.82.307-1.032.128-.215-.177.288-.487.614-.683.326-.198.883-.297.987-.198-.002.002-.253.468-.569.753Zm3.24 1.266c0-.016-.118 2.444-.61 2.286-.49-.158-1.024-.27-1.412-1.877-.387-1.609 1.084-2.286 1.16-2.334.073-.047.177-.363-.18-.441-.356-.078-.474-.378-.03-.6.446-.22 1.65-1.308 1.605-.3-.042 1.01-.533 3.282-.533 3.266ZM125.368 60.454s.711-1.4 1.251-1.83c.541-.43.44-1.148.102-1.507s-.845-.18-1.216.144c-.373.324-2.333 1.722-2.536 1.722-.203 0-.711-.215-.203-.61.507-.394 1.766-.479 1.228-1.577-.536-1.098-1.195-.574-1.195-.574s.304.645.236.933c-.069.288-.812 1.148-.812 1.148l-2.537-1.542s-.439 0-.439.288c0 .286.17.467.541.718.371.25.845.609.845 1.256 0 .645.069 1.757-.134 1.686-.203-.07-.576-.18-.576-.682 0-.503-.947-.683-1.082-.503-.135.179 0 .467.102 1.147.101.68-.204 1.183.167 1.327.373.144.643.144.643.466 0 .323-2.504 2.403-2.3 2.727.203.323.304 1.077.946.862.643-.215 3.552-2.692 4.397-3.23.846-.539 2.638-1.901 2.976-1.58.337.323-1.386 1.794-1.894 1.9-.508.11-.609-.035-1.285.468-.675.503-1.52.718-1.183.898.338.179 1.386-.215 1.32.144-.068.358.236.897-.236.968-.472.07-1.556.215-2.333.609-.777.394-2.333 1.22-2.097 1.615.236.395 1.419 1.077 2.163 1.615.744.539 1.422 1.077 1.691 1.257.271.179 1.556.467 1.556-.754 0-1.22-.033-3.445-.033-3.445h2.064s.472-.109.406-.682c-.068-.574-.576-.969-.845-.969-.272 0-.407.071-.407.36h-.913v-.719s.743-.43.743-.753-.134-.359.475-.788c.609-.43 1.724-1.148 1.724-1.83-.002-.683-.746-.683-1.32-.683Zm-4.274-1.202c-.026-.295.278-.135.278-.135s.404.109.404.404c0 .295-.127.324-.481.324-.352-.003-.175-.298-.201-.593Zm0 1.613c.557-.16.607-.376.633-.106.026.269.049.295.278.24.227-.054.331-.16.305.19-.026.349-.026.269-.505.403-.482.135-.404-.108-.784.295-.381.404-.685.026-.685.026s.201-.888.758-1.048Zm-.151 2.472c-.227.135-1.266 1.264-1.62.968-.354-.295.885-1.289 1.216-1.558 0 0 1.976-1.155 2.229-.886.25.265-1.599 1.342-1.825 1.476Zm2.229-2.635c-.253.08-.404-.08-.482-.324-.075-.24.531-.24.531-.24s.203.134.203.375c0 .243 0 .109-.252.189Zm1.948-.645c-.076.135-.177.106-.305.295-.127.19-.151.27-.177.565-.026.295-.026.323-.38.35-.354.025-.279-.19-.279-.376 0-.19.026-.215.026-.539 0-.32.076-.054.305-.188.227-.135.253-.27.38-.565.128-.295-.026-.323-.252-.456-.227-.134-.128-.16-.128-.43 0-.269.279-.24.659-.59s.659-.404.987-.16c.328.24-.505 1.263-.709 1.747 0-.002-.049.213-.127.347Zm-2.975 9.7c-.109.346-.362-.19-1.769-1.151-1.407-.962-.685-.77 0-1.115s1.804-.576 1.804-.576.073 2.496-.035 2.843Z" clip-rule="evenodd"/><path fill="#A6AFB5" fill-rule="evenodd" d="M49.889 62.253c1.114.581 1.903 1.429 2.3 2.6l-2.08.992c.665-1.171.505-2.371-.22-3.592ZM29.3 62.253c-1.115.581-1.903 1.429-2.3 2.598l2.08.992c-.663-1.17-.503-2.369.22-3.59Z" clip-rule="evenodd"/><path fill="#D8E8F7" fill-rule="evenodd" d="M27 64.853v2.517c1.14.4 2.243.848 3.075 1.644.635-.345 1.053-1 1.249-1.958-.48-.812-1.649-1.568-4.324-2.203ZM52.19 64.853v2.517c-1.14.4-2.242.848-3.074 1.644-.635-.345-1.053-1-1.249-1.958.48-.812 1.646-1.568 4.324-2.203Z" clip-rule="evenodd"/><path fill="#A6AFB5" fill-rule="evenodd" d="M50.755 70.742c-1.379-.97-2.366-2.011-2.869-3.164-.744 1.188-.566 2.84.543 4.029 1.091-.104 1.235-.76 2.326-.865ZM28.332 70.891c1.415-1.12 2.517-2.215 2.994-3.37.744 1.245.442 3.03-.668 4.275-1.091-.109-1.233-.796-2.326-.905Z" clip-rule="evenodd"/><path fill="#004073" fill-rule="evenodd" d="M30.904 55.755h17.235v10.413c0 1.594-1.031 3.113-2.479 4.376-1.795 1.568-4.234 2.746-6.097 3.171h-.085c-2.352-.533-4.612-1.698-6.22-3.346-1.438-1.476-2.357-3.339-2.357-5.485v-9.13h.003Z" clip-rule="evenodd"/><path fill="#D8E8F7" fill-rule="evenodd" d="M31.291 56.14v8.744c0 2.038.874 3.809 2.246 5.216 1.544 1.585 3.717 2.709 5.983 3.23 1.802-.42 4.152-1.56 5.885-3.074 1.367-1.195 2.345-2.616 2.345-4.085V56.14H31.29Z" clip-rule="evenodd"/><path fill="#004073" fill-rule="evenodd" d="M33.716 56.727h1.445v3.741l1.457 1.91.045.06-.045.056-.843 1.143-.078.104-.076-.104-1.19-1.603-2.642 3.657-.175-.056v-2.196l.02-.057 2.082-2.912v-3.742ZM45.235 56.727v3.743l2.083 2.912.016.057v2.196l-.174.056-2.643-3.657-1.188 1.603-.078.104-.077-.104-.843-1.143-.043-.057.043-.059 1.457-1.91v-3.74h1.447Z" clip-rule="evenodd"/><path fill="#fff" fill-rule="evenodd" d="M45.04 56.921h-1.06V60.5l-.02.059-1.432 1.88.723.98 1.19-1.604.078-.106.078.106 2.543 3.523V63.47l-2.08-2.911-.02-.057v-3.58Z" clip-rule="evenodd"/><path fill="#004073" fill-rule="evenodd" d="m43.166 71.914-2.808-4.015 1.486-2.142.04-.059-.043-.054-.779-1.008-.08-.104-.076.106-1.414 2.024-1.415-2.024-.075-.106-.08.104-.78 1.008-.045.054.04.06 1.488 2.141-2.81 4.015-.054.08.08.054 1.034.706.08.055.055-.078 2.482-3.58 2.482 3.58.054.078.078-.055 1.036-.706.08-.054-.056-.08Z" clip-rule="evenodd"/><path fill="#fff" fill-rule="evenodd" d="m42.952 71.944-2.83-4.042 1.524-2.196-.657-.848-1.497 2.14-1.5-2.14-.653.848 1.52 2.196-2.829 4.042.876.598 2.586-3.729 2.586 3.729.873-.598Z" clip-rule="evenodd"/><path fill="#004073" fill-rule="evenodd" d="M28.332 71.267v2.264c1.327.362 2.463.67 3.778 1.148 2.425.883 5.03 1.92 7.54 1.93 2.541.006 4.936-1.248 7.328-2.126 1.253-.46 2.47-.926 3.778-.88V71.09c-1.778.271-3.462.824-5.316 1.598-1.787.746-3.7 1.608-5.648 1.552-1.906-.055-4.992-.916-6.825-1.65-1.886-.761-2.878-1.165-4.635-1.323ZM27 65.32v2.518c1.14.399 2.243.848 3.075 1.646.635-.345 1.053-1 1.249-1.958-.48-.812-1.649-1.57-4.324-2.205ZM52.19 65.32v2.518c-1.14.399-2.242.848-3.074 1.646-.635-.345-1.053-1-1.249-1.958.48-.812 1.646-1.57 4.324-2.205ZM36.075 50h6.876v.966h6.185l-1.086 1.086H30.915l-1.086-1.086h6.246V50Z" clip-rule="evenodd"/><path fill="#004073" fill-rule="evenodd" d="M30.882 51.967h17.254v4.203H30.882v-4.203Zm2.323 1.235c.126 0 .09.321.09.321l-.283.151s-.142.133.07.133c.213 0 .463-.208.463-.208l-.035.415s-.817.473-.923.473c-.107 0-.213.132-.036.226.177.095.107.076.303-.075s.64-.435.64-.435l.018.321-.318.227s-.196.102 0 .227.337-.02.337-.02-.016.228-.035.341c-.017.113-.125.17.054.359.177.189.272.106.272-.064 0-.17-.043-.88-.043-.88s.213-.057.248-.152c.036-.094 0-.113-.177-.113s-.177-.057-.177-.057l.054-.338s.484-.144.709-.25c.186-.087.193-.153.146-.184-.059-.04-.215-.033-.316.002-.241.08-.517.246-.517.246l.033-.265s.035-.226.177-.226c.141 0 .408-.151.392-.246-.02-.094-.069-.073-.192-.054-.05.007-.099-.144-.122-.13-.092.057-.02.312-.215.279-.047-.01.002-.064-.022-.071-.054-.017-.118-.01-.155.059l-.116.205s-.1-.231-.012-.326c.09-.094.8-.529.8-.529s.09-.245-.106-.17c-.196.076-.533.416-.533.416s-.071.151-.125.038c-.055-.114.035-.227-.055-.246-.09-.019-.248-.113-.248.038 0 .06-.042.066-.07.094-.038.038-.031.057-.029.069.002.012.007.017.04.03.06.027.06.128.06.128-.055.021-.116.026-.142.069-.052.063-.026.172.096.172Zm4.839-.305s.106.085.106.185c0 .101-.153.394-.288.545-.106.118-.262.295-.33.383-.031.04-.05.066.009.09.047.018.116.023.142-.02.042-.068.618-.715.701-.817.085-.108.078-.207-.019-.285-.208-.17-.321-.08-.321-.08Zm-.328 1.748c-.022.333.028.38.082.387.055.007.203-.01.194-.333-.012-.323-.272-.347-.272-.347l-.004.293Zm.49-.38c-.011.01-.153.085-.148.172.002.085.007.265.1.274.094.01.186-.064.162-.222-.026-.158-.101-.234-.113-.224Zm.039-.584s-.215.305-.298.369c-.083.064.021.11.1.132.077.024.198.054.238-.073.038-.13.035-.208.068-.224.036-.02.062-.137.017-.175-.043-.038-.125-.029-.125-.029Zm.184.673s-.036.159.075.135c.111-.021.255-.158.26-.087.005.068-.002.819-.002.88 0 .06.078.128.12.128.043 0 .135-.045.135-.224v-.77s.113.082.297-.236c.128-.22.038-.284-.028-.3-.059-.017-.054-.007-.1.023-.056.04-.155.104-.2.104-.068 0-.005-.056-.038-.056s-.125-.024-.125.018l-.005.239-.39.146Zm.659-.307c-.024.029-.092.114-.06.135.031.021.083.038.119-.021.035-.06.12-.116.066-.135-.055-.021-.125.021-.125.021Zm-.496-.24c.03.05.087.108.175.099.153-.017.39-.22.47-.29.077-.072.165-.161.099-.227-.066-.069-.137-.055-.265.05-.09.075-.307.195-.425.257-.075.037-.108.019-.054.11Zm3.037-.898c-.052-.054-.18-.028-.263.083-.082.108-.078.24-.035.262.04.021.246.019.359-.125.092-.116-.061-.22-.061-.22Zm-.777.328c-.069-.04-.159-.05-.194.005-.038.055-.102.13.01.21.11.08.214.135.278.045.135-.217-.094-.26-.094-.26Zm.557.496c.085-.007.057.093 0 .137a.372.372 0 0 0-.128.274c0 .12.166.168.23.168.063 0 .006-.137.006-.227 0-.092.107-.22.208-.312.1-.092.014-.212-.113-.243-.13-.03-.286.182-.286.182l.083.021Zm-.215.477-.078-.082s-.028.387-.07.524c-.043.137.02.394.179.418.158.023.602.016.701-.014.1-.031.2-.168.113-.387-.085-.22-.127-.281-.165-.274-.035.007-.05.075-.028.174.021.1.085.236-.029.274-.113.038-.557.13-.58-.106-.022-.236.014-.373-.043-.527Zm-.914-.96c-.085.06-.234.217-.22.332.02.156.076.222.197.203.103-.016.172-.35.155-.505-.007-.1-.073-.073-.132-.03Zm.302.474-.002.102-.118.075s.016.068.106.05c.09-.02-.012.15-.07.144-.06-.007-.119-.007-.13.037-.012.045-.208.031-.208.031s-.154.17-.083.246c.07.075.184-.038.22-.057.035-.019.09-.087.16-.012.071.076.06.088-.023.144-.083.057-.055.102-.012.133.042.03.054.082-.083.082s-.082-.038-.094-.068c-.012-.031-.255.082-.302.22-.048.139.059.226.16.195.102-.03.274-.252.361-.207.09.044.017.094-.03.196-.048.101-.024.29.059.368.082.075.163-.087.163-.196 0-.109-.031-.42.014-.458.045-.038.101-.163.153-.196a.192.192 0 0 0 .092-.17c0-.083-.02-.097-.092-.114-.07-.016-.03-.153.01-.163.04-.011.118-.066.113-.125-.005-.059-.03-.137-.092-.13-.061.005-.026-.103-.118-.141-.09-.04-.158-.04-.154.014Zm3.873 1.362s-.229.038-.387-.044a4.255 4.255 0 0 1-.402-.26s-.05-.043-.054.023c-.002.066.073.175.109.215.035.04.189.397.345.385.155-.012.39-.319.39-.319Zm-.784-1.615a.65.65 0 0 0-.172-.366c-.095-.085-.159-.085-.116.114.042.198 0 .916-.064 1.06-.064.144-.229.191-.432.212-.2.024-.352-.061-.288.083.064.144.109.312.246.23.137-.084.439-.313.43-.138-.008.175-.244.572-.591.51 0 0-.057.144.144.182.2.038.619-.305.588-.838 0 0 .468-.199.654-.29.187-.093.05-.175.007-.192-.042-.014-.13-.092-.222-.007-.094.085-.309.274-.359.191-.05-.085.036-.29.102-.41.066-.121.073-.34.073-.34Zm-7.776.029c-.005.155-.354.297-.491.288-.137-.01-.213-.04-.208.099.007.142.343.177.43.182.087.004.092.153.01.189-.083.035-.435.212-.55.264-.117.052-.128.26-.128.534s.167.342.245.342c.078 0 .09-.153.095-.288.004-.137-.111-.255-.144-.35-.034-.096.283-.266.354-.271.07-.005.066.106.118.165.054.062.149-.01.184-.052.038-.044.116-.044.132-.004.017.04-.038.056-.123.092-.087.035-.07.061-.037.127.033.066-.005.154-.088.154-.082 0-.101.104-.101.104s-.003.002.007.028c.01.026.198.255.288.271.09.017.132-.056.222-.271.09-.215.27.083.33.184.062.102.265.262.277-.021.012-.286.104-.928.198-1.327.095-.4-.24-.26-.24-.26l-.744.477-.008-.142s.541-.498.602-.56c.062-.06-.082-.202-.13-.136-.047.066-.134.12-.19.087-.057-.033.077-.149.051-.236-.026-.087-.392-.357-.392-.357l.031.688Zm.718 1.133c0 .002.1-.456.108-.659.01-.203-.233.017-.323.062-.09.044-.066.106.007.12.071.017.052.08.035.09-.014.01-.311.146-.233.47.078.323.186.347.285.377.097.034.12-.462.12-.46Zm-.538-.406c-.022-.019-.133 0-.199.04s-.167.102-.123.137c.043.035.144.033.208-.026s.114-.151.114-.151Zm9.903-1.478s.062.13.047.189c-.014.059-.163.231-.163.231l-.512-.312s-.09 0-.09.06c0 .056.033.094.109.143.075.05.17.123.17.253s.014.354-.028.34c-.04-.014-.116-.035-.116-.137 0-.101-.191-.137-.217-.101-.026.035 0 .094.02.231.022.137-.04.239.034.267.075.028.13.028.13.094s-.506.484-.463.55c.04.067.061.218.191.175.13-.042.716-.543.886-.651.17-.11.531-.383.6-.32.068.067-.279.362-.383.383-.101.022-.123-.007-.26.095-.137.101-.307.144-.238.181.068.036.279-.042.267.029-.015.073.047.182-.048.196-.094.014-.314.042-.47.123-.155.08-.47.245-.422.325.047.08.285.218.437.326.15.109.285.218.34.253.054.036.314.095.314-.151s-.007-.694-.007-.694h.415s.097-.022.083-.137c-.014-.116-.116-.196-.17-.196-.054 0-.083.014-.083.073h-.184v-.144s.151-.087.151-.151c0-.066-.028-.073.095-.158.123-.088.347-.232.347-.369 0-.137-.151-.137-.267-.137 0 0 .144-.28.253-.368a.21.21 0 0 0 .02-.305c-.068-.073-.17-.035-.245.029-.073.059-.467.342-.51.342-.04 0-.144-.043-.04-.123.102-.08.357-.097.248-.319-.109-.222-.24-.115-.24-.115Zm-.125 2.156s-.227.047-.364.115c-.137.071-.283.031 0 .225.284.193.336.302.357.233.021-.068.007-.573.007-.573Zm-.373-1.009s.061.076.137-.004c.076-.08.061-.034.158-.06.097-.025.097-.009.102-.08.004-.07-.017-.05-.062-.038-.045.01-.05.005-.056-.05-.005-.053-.017-.01-.128.022-.109.03-.151.21-.151.21Zm.042.168c-.066.054-.316.255-.245.314.07.06.28-.168.326-.196.047-.026.418-.243.368-.297-.052-.052-.449.179-.449.179Zm.168-.732s-.061-.033-.057.026c.005.059-.03.118.04.118.071 0 .097-.005.097-.066.003-.054-.08-.078-.08-.078Zm.373.208s-.123 0-.108.05c.016.049.044.08.096.065.052-.016.052.012.052-.037 0-.052-.04-.078-.04-.078Zm.409-.088c.04-.096.21-.304.141-.352-.066-.05-.122-.037-.198.034-.075.07-.132.063-.132.118 0 .054-.022.059.026.087.045.026.075.033.052.092-.026.06-.031.088-.076.113-.047.029-.061-.025-.061.038 0 .064-.005.071-.005.109 0 .038-.014.08.057.075.07-.004.07-.011.078-.07.004-.06.01-.076.035-.114.026-.038.047-.033.061-.059.012-.028.022-.07.022-.07Z" clip-rule="evenodd"/><path fill="#fff" fill-rule="evenodd" d="M33.206 53.202c.125 0 .09.321.09.321l-.284.151s-.142.133.071.133c.213 0 .463-.208.463-.208l-.035.416s-.818.472-.924.472c-.106 0-.212.132-.035.226.177.095.106.076.302-.075s.64-.435.64-.435l.017.322-.32.226s-.195.102 0 .227c.197.125.338-.019.338-.019s-.019.227-.035.34c-.019.113-.125.17.054.359.177.189.272.106.272-.064 0-.17-.043-.88-.043-.88s.213-.057.248-.152c.036-.094 0-.113-.177-.113s-.177-.057-.177-.057l.054-.337s.484-.144.709-.25c.186-.088.191-.154.146-.185-.059-.04-.215-.033-.319.003-.24.08-.517.245-.517.245l.033-.264s.036-.227.177-.227c.142 0 .409-.151.39-.246-.017-.094-.068-.073-.191-.054-.05.007-.1-.144-.123-.13-.092.057-.019.312-.215.279-.047-.01.005-.064-.021-.071-.054-.017-.118-.01-.156.059l-.116.205s-.099-.231-.011-.325c.09-.095.8-.53.8-.53s.09-.245-.106-.17c-.196.076-.534.416-.534.416s-.07.151-.125.038c-.054-.113.035-.227-.054-.246-.09-.018-.248-.113-.248.038 0 .06-.043.066-.071.095-.038.037-.03.056-.029.068.003.012.005.017.04.03.06.027.06.128.06.128-.055.022-.116.026-.142.069-.045.063-.019.172.104.172ZM38.044 52.897s.107.086.107.185-.154.394-.289.545c-.106.118-.262.295-.33.383-.03.04-.05.066.01.09.047.018.115.023.141-.02.043-.068.619-.715.701-.816.085-.11.078-.208-.019-.286-.207-.17-.32-.08-.32-.08Zm-.328 1.748c-.021.333.029.38.08.387.055.007.203-.01.194-.333-.012-.323-.272-.347-.272-.347l-.002.293Zm.491-.38c-.011.01-.153.087-.148.172.002.087.007.265.099.274.094.01.186-.064.163-.222-.026-.158-.102-.234-.114-.224Zm.038-.584s-.215.303-.297.369c-.083.064.02.11.099.132.078.024.198.054.238-.073.038-.13.036-.208.069-.227.035-.019.061-.137.016-.175-.042-.035-.125-.026-.125-.026Zm.184.673s-.035.159.076.135c.11-.021.255-.158.26-.087.004.068-.003.819-.003.88 0 .06.078.128.12.128.043 0 .135-.045.135-.224v-.77s.114.083.298-.236c.127-.22.038-.284-.029-.3-.059-.014-.054-.007-.099.023-.056.04-.156.104-.2.104-.069 0-.005-.056-.038-.056s-.123-.024-.123.018l-.005.239-.392.146Zm.66-.307c-.024.029-.093.114-.06.135.03.021.083.04.118-.021.036-.06.12-.116.066-.135-.054-.021-.125.021-.125.021Zm-.497-.24c.03.051.088.108.175.099.153-.017.39-.22.47-.29.078-.072.165-.161.099-.227-.066-.069-.137-.055-.264.05-.09.075-.307.195-.425.257-.076.037-.11.019-.055.11ZM41.63 52.91c-.053-.055-.18-.03-.263.082-.082.108-.078.24-.035.262.04.021.245.019.359-.125.092-.116-.062-.22-.062-.22Zm-.778.327c-.068-.04-.158-.05-.193.005-.038.055-.102.13.01.21.11.08.214.135.278.045.134-.217-.095-.26-.095-.26Zm.558.496c.085-.007.056.092 0 .137a.372.372 0 0 0-.128.274c0 .12.165.168.23.168.063 0 .006-.137.006-.227 0-.092.106-.22.208-.312.1-.092.014-.212-.113-.243-.13-.03-.286.182-.286.182l.083.021Zm-.215.477-.078-.082s-.028.387-.071.524c-.042.137.021.394.18.418.158.023.602.014.7-.017.1-.03.201-.167.114-.387-.085-.22-.127-.28-.165-.274-.036.007-.05.076-.029.175.022.1.086.236-.028.274-.113.038-.557.13-.58-.106-.022-.234.013-.371-.043-.525Zm-.914-.96c-.085.06-.234.217-.22.332.02.156.076.222.196.203.107-.019.173-.35.156-.505-.007-.1-.073-.076-.132-.03Zm.302.474-.002.101-.118.076s.016.068.106.05c.09-.02-.012.15-.07.144-.06-.008-.119-.008-.13.037-.013.045-.209.031-.209.031s-.153.17-.082.246c.07.075.184-.038.22-.057.035-.019.09-.087.16-.012.07.076.059.088-.024.144-.082.057-.054.102-.011.133.042.03.054.082-.083.082s-.083-.038-.095-.068c-.011-.031-.255.082-.302.22-.047.139.06.226.16.195.102-.03.272-.252.362-.207.09.044.017.094-.03.196-.048.101-.024.29.058.368.083.075.163-.087.163-.196 0-.109-.03-.42.014-.458.045-.038.102-.163.154-.196a.19.19 0 0 0 .092-.168c0-.083-.021-.1-.092-.113-.07-.017-.03-.154.01-.163.04-.012.117-.066.113-.125-.005-.06-.03-.137-.092-.13-.062.005-.026-.104-.118-.142-.09-.042-.159-.042-.154.012ZM44.453 55.086s-.229.038-.387-.045a4.81 4.81 0 0 1-.401-.26s-.05-.042-.052.024c-.003.066.073.175.108.215.036.04.19.397.345.385.156-.012.387-.319.387-.319Zm-.781-1.615a.644.644 0 0 0-.173-.366c-.094-.082-.158-.082-.115.116.042.198 0 .916-.064 1.06-.064.144-.23.191-.432.213-.2.023-.352-.062-.288.085.063.144.108.311.243.229.137-.083.44-.312.432-.137-.007.174-.243.571-.59.51 0 0-.057.144.144.182.2.037.618-.305.59-.839 0 0 .468-.198.654-.29.187-.092.05-.175.007-.191-.042-.015-.13-.093-.222-.008-.094.083-.309.274-.359.192-.05-.083.036-.29.102-.411.064-.125.07-.345.07-.345ZM36.681 53.677l-.744.477-.007-.142s.541-.498.602-.56c.062-.061-.082-.203-.13-.137-.047.067-.134.12-.19.088-.057-.033.077-.149.051-.236-.026-.088-.392-.357-.392-.357l.02.687c-.005.156-.355.298-.492.288-.137-.01-.212-.04-.208.1.007.141.343.177.43.181.087.005.092.154.01.19-.08.035-.435.212-.548.264-.116.052-.128.26-.128.533 0 .274.168.343.246.343.078 0 .09-.154.094-.288.005-.135-.11-.255-.144-.35-.033-.097.283-.267.354-.271.071-.005.066.103.118.165.055.061.15-.01.184-.052.038-.045.116-.045.133-.005.016.04-.038.057-.123.092-.085.036-.07.062-.038.128.033.066-.005.153-.087.153-.083 0-.104.104-.104.104s-.002.003.007.029c.007.026.198.255.288.271.092.017.132-.056.224-.271.09-.215.27.082.331.184.061.101.264.262.276-.021.012-.286.104-.928.199-1.328.104-.399-.232-.26-.232-.26Zm-.72.701c-.064.06-.165.061-.208.026-.042-.035.06-.1.123-.137.066-.04.177-.059.198-.04 0 0-.05.092-.113.151Zm.652.255c0-.002-.024.494-.123.46-.1-.033-.208-.054-.286-.377-.078-.324.22-.46.234-.47.014-.01.035-.073-.035-.09-.071-.017-.095-.075-.005-.12s.333-.265.323-.062c-.01.203-.108.661-.108.659ZM46.496 53.603s.144-.283.252-.368a.21.21 0 0 0 .022-.305c-.069-.073-.17-.035-.246.029-.075.066-.472.347-.512.347-.04 0-.144-.043-.04-.123.101-.08.356-.097.247-.319-.108-.222-.24-.115-.24-.115s.061.13.047.188c-.014.06-.163.232-.163.232l-.513-.312s-.09 0-.09.06c0 .058.034.094.11.143.075.052.17.123.17.253s.014.354-.029.34c-.04-.014-.116-.035-.116-.137 0-.102-.19-.137-.22-.102-.025.036 0 .095.022.232.021.137-.04.238.033.267.076.028.13.028.13.094s-.505.484-.463.55c.04.064.062.218.191.173.13-.043.716-.543.886-.652.17-.109.531-.383.6-.319.068.066-.279.361-.383.383-.101.021-.123-.007-.26.094-.137.102-.307.144-.238.182.068.035.279-.042.267.028-.014.074.047.182-.047.196-.095.015-.315.043-.47.123-.159.08-.47.246-.423.326.047.08.286.217.437.326.15.109.285.217.34.253.054.035.314.094.314-.151 0-.246-.007-.695-.007-.695h.415s.095-.021.083-.137c-.014-.115-.116-.196-.17-.196-.054 0-.083.014-.083.074h-.184v-.145s.151-.087.151-.15c0-.067-.028-.074.095-.159.122-.087.347-.231.347-.368.005-.14-.147-.14-.262-.14Zm-.862-.243c-.005-.059.056-.026.056-.026s.083.021.083.08c0 .06-.026.064-.097.064-.073 0-.038-.059-.042-.118Zm0 .326c.113-.033.123-.075.127-.021.005.054.01.059.057.05.047-.012.066-.034.061.037-.004.071-.004.054-.101.08-.097.029-.083-.02-.158.06-.078.082-.137.004-.137.004s.04-.18.15-.21Zm-.03.498c-.048.026-.256.255-.33.196-.07-.059.18-.26.246-.314 0 0 .4-.234.45-.18.053.053-.32.27-.367.298Zm.45-.531c-.052.017-.083-.017-.097-.066-.014-.05.107-.05.107-.05s.04.026.04.076 0 .023-.05.04Zm.392-.13c-.014.028-.035.021-.061.06-.026.037-.031.053-.036.113-.004.059-.004.066-.075.07-.071.005-.057-.038-.057-.075 0-.038.005-.043.005-.109 0-.064.014-.012.061-.038.045-.028.052-.054.076-.113.026-.059-.005-.066-.052-.092-.045-.028-.026-.033-.026-.087 0-.055.056-.05.132-.119.076-.07.132-.08.198-.033.067.05-.101.255-.144.352.005 0-.004.043-.02.071Zm-.6 1.955c-.02.069-.073-.038-.356-.231-.284-.194-.14-.156 0-.224.14-.069.363-.116.363-.116s.015.503-.007.571Z" clip-rule="evenodd"/><path fill="#004073" fill-rule="evenodd" d="m32.287 68.82 6.01-8.565v-3.478H40.65v3.478l6.194 8.801-.177.123-6.21-8.83-.02-.06v-3.297h-.15l-.792.404-.774-.404h-.21v3.297l-.02.06-6.03 8.594-.175-.123Z" clip-rule="evenodd"/><path fill="#C30D23" fill-rule="evenodd" d="M36.075 51.833v-.57h-5.219l.534.57h4.685ZM42.951 51.263v.57h4.669l.49-.57h-5.159Z" clip-rule="evenodd"/><path fill="#fff" fill-rule="evenodd" d="M37.619 50.314v1.495h-.548v-.857l-.432.132v-.435c.323 0 .512-.11.566-.335h.414Zm.458 1.136.43-.026c.028.075.094.115.193.115.163 0 .246-.11.246-.335a.615.615 0 0 1-.378.106c-.326-.016-.505-.174-.534-.472.012-.337.225-.512.64-.522.491 0 .737.255.737.768-.017.484-.248.732-.692.744-.375-.003-.59-.128-.642-.378Zm.623-.425c.147-.012.22-.083.22-.213-.012-.113-.083-.177-.21-.186-.128.004-.196.073-.201.203.005.125.068.191.191.196Zm.791.269h.454c0 .066.02.12.063.163.043.033.1.052.173.056.132-.004.205-.06.217-.172.005-.12-.097-.175-.307-.163v-.26c.194.012.29-.037.29-.146 0-.087-.063-.13-.188-.13-.126 0-.196.052-.208.156h-.435c.024-.305.244-.465.66-.482.396.012.604.147.623.409a.294.294 0 0 1-.19.293c.152.054.23.158.234.309-.01.326-.25.494-.727.498-.432-.012-.654-.186-.659-.531Zm1.476 0h.451c0 .066.021.12.064.163.042.033.1.052.172.056.132-.004.206-.06.217-.172.005-.118-.096-.172-.309-.16v-.262c.194.011.29-.038.29-.147 0-.087-.063-.13-.188-.13-.128 0-.196.052-.208.156h-.435c.024-.305.244-.465.66-.482.396.012.604.147.623.409a.294.294 0 0 1-.19.293c.152.054.23.158.237.309-.007.326-.248.494-.725.498-.435-.012-.654-.186-.659-.531Z" clip-rule="evenodd"/><path fill="#E1E4E6" fill-rule="evenodd" d="m33.048 69.555 6.38-9.059 6.57 9.14-.55.58c.42-.37.8-.76 1.128-1.169l-6.118-8.697-.02-.061v-3.297h-.148l-.791.404-.775-.404h-.21v3.297l-.019.061-5.972 8.506c.163.24.338.474.525.699Z" clip-rule="evenodd"/><path fill="#fff" fill-rule="evenodd" d="M33.907 56.921v3.58l-.017.057-2.082 2.911v1.868l2.545-3.523.076-.106.08.106 1.188 1.603.725-.98-1.434-1.88-.02-.058V56.92h-1.061Z" clip-rule="evenodd"/><path fill="#004073" fill-rule="evenodd" d="M34.453 57.282v3.724l1.648 1.866-.061.08-1.632-1.851-2.175 2.88-.078-.058 2.199-2.914v-3.727h.099Z" clip-rule="evenodd"/><path fill="#004073" fill-rule="evenodd" d="M32.188 64.053a.11.11 0 0 0 .108-.109.11.11 0 0 0-.108-.109.11.11 0 0 0-.109.11c0 .058.05.108.109.108ZM34.417 57.382a.11.11 0 0 0 .109-.109.11.11 0 0 0-.109-.108.11.11 0 0 0-.108.108c0 .06.047.109.108.109ZM44.496 57.282v3.519l-1.648 2.07.061.081 1.632-2.057 2.175 3.087.078-.06-2.199-3.119v-3.52h-.1Z" clip-rule="evenodd"/><path fill="#004073" fill-rule="evenodd" d="M46.76 64.053a.11.11 0 0 0 .109-.109.11.11 0 0 0-.109-.109.11.11 0 0 0-.109.11c0 .058.048.108.109.108ZM44.53 57.382a.11.11 0 0 0 .11-.109.11.11 0 0 0-.11-.108.11.11 0 0 0-.108.108c0 .06.05.109.109.109ZM39.546 60.662v-2.636h-.215v2.607l.097-.134.118.163Z" clip-rule="evenodd"/><path fill="#004073" fill-rule="evenodd" d="m33.04 69.564 6.388-9.065 6.628 9.211-.72.624-5.873-8.404-5.908 8.404-.515-.77Z" clip-rule="evenodd"/><path fill="#00538F" fill-rule="evenodd" d="m37.723 65.184 1.767 2.569 1.761-2.529.08.057-1.783 2.557 2.98 4.336-.08.054-2.959-4.303-3.01 4.322-.08-.057 3.032-4.352-1.788-2.6.08-.054Z" clip-rule="evenodd"/><path fill="#004073" fill-rule="evenodd" d="M39.487 67.956c.062 0 .114-.05.114-.113a.113.113 0 1 0-.113.113Z" clip-rule="evenodd"/><path fill="#C30D23" fill-rule="evenodd" d="M27 67.838v.375c1.027.36 1.988.765 2.737 1.48.11-.06.229-.134.347-.216l-.01.004c-.83-.795-1.934-1.244-3.074-1.643ZM52.191 67.838v.375c-1.027.36-1.988.765-2.736 1.48a3.948 3.948 0 0 1-.338-.212c.831-.795 1.931-1.244 3.074-1.643Z" clip-rule="evenodd"/><path fill="#D8E8F7" fill-rule="evenodd" d="M28.332 70.891v.376c1.757.158 2.749.56 4.635 1.32 1.83.736 4.92 1.596 6.825 1.65 1.948.057 3.86-.805 5.648-1.551 1.852-.772 3.538-1.327 5.316-1.599v-.375c-1.778.271-3.462.824-5.316 1.598-1.787.746-3.7 1.608-5.648 1.552-1.906-.055-4.992-.916-6.825-1.65-1.886-.759-2.878-1.163-4.635-1.32Z" clip-rule="evenodd"/><path fill="#C30D23" fill-rule="evenodd" d="M28.332 73.531v.397c1.327.361 2.463.67 3.778 1.148 2.425.883 5.03 1.92 7.54 1.929 2.541.007 4.936-1.247 7.328-2.125 1.253-.46 2.47-.926 3.778-.881v-.397c-1.309-.045-2.525.42-3.779.88-2.391.88-4.786 2.136-7.327 2.126-2.51-.007-5.115-1.044-7.54-1.93-1.315-.476-2.45-.785-3.778-1.147Z" clip-rule="evenodd"/><path fill="#fff" fill-rule="evenodd" d="m29.61 72.922.025-.229.04.014c.005.132.052.213.137.241.074.019.123-.007.144-.083.012-.054-.023-.127-.11-.22-.104-.115-.147-.216-.128-.304.035-.123.123-.167.257-.134a.457.457 0 0 1 .123.07c.014.007.021.012.029.015.002 0 .009 0 .018-.005l.01-.003.021.008-.023.203-.04-.012c-.01-.114-.053-.187-.135-.217-.064-.015-.104.004-.12.054-.01.045.02.106.094.184.061.07.106.13.134.177a.29.29 0 0 1 .024.184c-.045.137-.135.19-.274.151-.057-.023-.101-.047-.14-.066a.178.178 0 0 0-.032-.026c-.012 0-.022.005-.026.015l-.029-.017ZM35.329 74.27l.012-.047.33.104-.011.047-.017-.004c-.057-.02-.092.004-.102.066l-.11.486c-.02.064.002.102.06.118l.017.005-.011.05-.331-.104.012-.048.012.005c.05.019.082-.002.096-.061l.111-.492c.017-.058-.002-.099-.056-.115l-.012-.01ZM30.28 72.757c.082-.253.25-.343.502-.272.227.1.32.274.272.522-.085.253-.25.342-.496.264-.234-.096-.326-.266-.278-.514Zm.167-.003c-.056.25-.007.411.147.482.134.042.233-.038.295-.239.05-.245 0-.403-.144-.47-.144-.035-.244.038-.298.227ZM31.732 72.915l.012-.047.266.097-.011.047-.01-.003c-.066-.023-.106-.002-.118.067l-.078.304c-.056.203-.18.274-.37.21-.199-.075-.277-.203-.232-.387l.095-.361c.018-.057 0-.092-.053-.106l-.018-.008.011-.047.322.116-.012.047-.017-.005c-.05-.014-.08.005-.094.055l-.095.363c-.033.13.012.22.135.267.13.047.215-.005.26-.151l.075-.295c.026-.085.007-.137-.052-.156l-.016-.007ZM34.214 74.395l.045.017a.959.959 0 0 1-.118.198.277.277 0 0 0-.059-.026c-.024-.004-.045-.011-.069-.019-.032-.007-.07-.018-.11-.03-.227-.1-.32-.274-.277-.522.083-.236.248-.324.5-.258.05.017.1.053.157.1a.123.123 0 0 0 .03.021c.008.007.017.005.024-.002l.028.01-.047.216-.04-.014c-.002-.135-.057-.224-.158-.264-.163-.04-.274.037-.335.233-.045.22.011.369.172.442.094.033.182 0 .257-.102ZM32.47 73.222l-.154.555c-.024.064-.003.104.063.123l.024.01-.014.046-.368-.141.014-.048.035.014c.052.024.088.005.104-.059l.154-.554-.126-.048c-.061-.04-.113-.007-.148.1l-.045-.017.082-.22.031.012a.054.054 0 0 0 .014.028c.003.008.012.015.026.017l.491.189c.017.01.036.007.055-.007l.038.014-.048.234-.04-.014c.021-.114-.002-.175-.073-.184l-.116-.05ZM33.116 74.183l.017.007c.05.024.082.002.101-.066l.06-.213-.34-.13-.062.218c-.022.061-.003.101.056.12l.017.007-.014.047-.33-.127.013-.047.017.007c.05.023.082.002.101-.061l.133-.485c.016-.056-.003-.094-.052-.113l-.017-.007.014-.047.33.127-.013.047-.017-.007c-.056-.02-.092-.004-.104.055l-.054.193.34.133.052-.19c.017-.058-.002-.1-.06-.122l-.009-.002.015-.048.33.128-.014.047-.021-.007c-.054-.021-.088-.002-.1.057l-.132.484c-.02.061-.002.101.057.12l.017.007-.015.047-.33-.127.014-.052ZM34.776 74.8l.016.004c.05.021.083-.002.1-.068l.052-.215-.345-.118-.054.22c-.02.063 0 .1.059.117l.016.005-.012.047-.333-.113.012-.047.017.007c.05.021.082-.003.099-.066l.118-.49c.014-.056-.005-.094-.057-.11l-.016-.005.012-.047.332.113-.011.047-.017-.004c-.056-.02-.09 0-.101.059l-.048.196.345.116.047-.192c.015-.059-.004-.099-.063-.12l-.007-.003.011-.047.333.114-.011.047-.022-.007c-.054-.02-.087.002-.096.059l-.119.488c-.019.064 0 .102.06.119l.016.004-.012.047-.333-.113.012-.045ZM35.841 74.547l-.1.465c-.023.07.005.115.081.132l-.01.05-.254-.076.01-.047.009.002c.05.02.082 0 .094-.054l.12-.572a.217.217 0 0 0-.075-.047l.01-.05.212.064.319.654.078-.373c.023-.078 0-.122-.076-.134l-.012-.003.01-.047.271.08-.01.048-.011-.003c-.064-.019-.095-.007-.1.038l-.139.657-.056-.017-.371-.767ZM36.932 75.206l-.232-.057-.068.134c-.021.036-.029.062-.019.076.007.017.035.028.083.038l.011.002-.009.05-.281-.071.01-.05.016.005c.047.019.087-.012.125-.092l.288-.548-.007-.038.158.04.097.688c.007.085.036.13.087.139l-.009.05-.342-.088.01-.05.037.01c.028.007.047.005.057-.007.011-.014.014-.038.009-.073l-.021-.159Zm-.01-.074-.047-.319-.144.272.191.047ZM37.754 75.059l-.057.475c-.017.075.014.115.092.12l-.005.05-.26-.043.005-.05.01.003c.051.012.082-.01.09-.066l.068-.583a.229.229 0 0 0-.08-.038l.004-.05.218.036.375.611.045-.38c.016-.08-.012-.123-.088-.125l-.011-.003.007-.05.276.046-.007.05-.012-.003c-.064-.01-.097.007-.094.05l-.08.67-.057-.01-.44-.71ZM38.472 75.432c.035-.267.184-.397.444-.39.24.043.359.19.356.445-.04.269-.186.396-.439.38-.243-.036-.364-.18-.361-.435Zm.163-.042c-.01.26.066.403.226.434.142.01.222-.094.248-.305.005-.252-.07-.394-.224-.425-.144 0-.23.097-.25.296ZM39.581 75.572v.195c-.002.067.026.1.085.095h.033v.05h-.375v-.05h.016c.064.007.097-.024.092-.094v-.504c.003-.06-.026-.094-.09-.094h-.02v-.05h.028a.77.77 0 0 1 .11-.009l.178-.01c.153 0 .252.031.3.09.033.043.05.09.05.144-.005.104-.06.17-.161.203.026.026.059.071.096.135.033.057.064.1.09.125.033.05.083.076.144.08v.04h-.066c-.118.005-.196-.02-.236-.075a.47.47 0 0 1-.076-.104 1.356 1.356 0 0 0-.113-.165h-.085v-.002Zm0-.419v.369h.042c.138.005.206-.057.206-.184-.002-.116-.066-.18-.189-.184h-.059ZM40.608 75.86l-.271-.612-.005.453c-.012.095.019.135.094.12l.003.05-.241.014-.003-.05c.069.01.095-.037.086-.14l.004-.466c.005-.064-.021-.092-.08-.09l-.002-.05.226-.013.234.519.177-.545.232-.015.002.05c-.07-.002-.095.03-.07.1l.044.471c-.007.093.026.13.1.118l.002.05-.338.021-.002-.05h.016c.06.008.087-.023.083-.089a.239.239 0 0 0-.007-.059l-.045-.451-.21.661-.029.002ZM41.62 75.432l-.232.043-.02.156c-.01.042-.008.068.006.078.012.011.043.011.09 0l.012-.003.007.05-.283.052-.008-.05.017-.002c.05-.003.078-.047.09-.137l.104-.633-.02-.033.159-.028.297.6c.034.075.074.106.123.094l.007.05-.347.063-.007-.05.038-.007c.028-.004.045-.014.052-.03.007-.02.002-.043-.014-.073l-.071-.14Zm-.028-.066-.14-.276-.052.314.192-.038ZM42.613 75.26l-.035.238-.57.144-.009-.05.021-.004c.06-.012.083-.047.071-.109l-.09-.503c-.011-.059-.042-.08-.099-.066l-.019.005-.009-.05.359-.09.01.05-.034.01c-.054.014-.075.05-.061.106l.092.512c.002.048.024.062.064.045l.137-.033c.04-.01.08-.061.12-.151a.36.36 0 0 1 .014-.04l.038-.014ZM43.277 74.502l-.011-.047.266-.097.012.047-.007.002c-.066.024-.09.069-.066.135l.078.305c.05.205-.019.344-.208.42-.2.068-.323.012-.375-.168l-.095-.361c-.012-.06-.042-.076-.094-.055l-.02.008-.01-.048.32-.115.012.047-.017.005c-.047.02-.066.056-.051.106l.094.361c.033.13.113.175.239.132.13-.047.177-.146.144-.295l-.076-.295c-.019-.087-.059-.118-.118-.094l-.017.007ZM43.744 74.426l.132.453c.012.076.057.095.13.06l.014.047-.248.101-.014-.047.01-.002c.052-.017.068-.052.054-.107l-.163-.557a.236.236 0 0 0-.087.01l-.014-.048.207-.085.57.343-.107-.364c-.016-.08-.056-.104-.127-.064l-.012.005-.014-.047.264-.106.014.047-.011.005c-.062.026-.083.056-.066.096l.186.64-.054.022-.664-.402ZM47.301 73.486l-.087-.208.04-.016c.066.106.144.142.23.109.07-.033.098-.088.08-.166-.015-.054-.08-.09-.199-.108-.142-.029-.224-.083-.248-.168-.028-.125.021-.22.149-.281a.406.406 0 0 1 .137-.024.124.124 0 0 0 .028-.007c.003 0 .007-.007.014-.016-.002.005 0 0 .005-.007l.021-.01.076.184-.04.017c-.062-.087-.133-.12-.215-.092-.06.03-.085.073-.073.125.011.043.068.073.165.092a.984.984 0 0 1 .194.057.237.237 0 0 1 .106.137c.028.144-.021.245-.156.307-.06.016-.106.028-.146.037-.024 0-.038-.002-.04 0-.01.01-.015.017-.015.029l-.026.01ZM44.413 74.03l-.015-.048.322-.139.014.047-.017.007c-.056.024-.073.066-.052.123l.147.475c.016.063.052.082.106.054l.017-.007.014.047-.322.14-.014-.048.012-.004c.052-.017.069-.057.05-.116l-.147-.48c-.014-.059-.05-.077-.101-.056l-.014.005ZM46.585 73.456l.057.184c.016.064.052.082.106.054l.03-.014.015.047-.352.151-.014-.047.016-.007c.062-.019.083-.061.06-.127l-.147-.473c-.014-.059-.052-.078-.111-.052l-.019.007-.014-.047.028-.012a.64.64 0 0 1 .102-.054c.07-.033.125-.061.163-.08.144-.062.245-.074.307-.036a.203.203 0 0 1 .09.116c.023.1-.008.184-.093.257a.686.686 0 0 1 .13.088c.047.04.088.066.12.082.046.034.1.038.159.017l.012.038a1.07 1.07 0 0 1-.064.028c-.109.052-.191.06-.243.024a.452.452 0 0 1-.102-.069.885.885 0 0 0-.156-.108l-.08.033Zm-.12-.395.106.347.04-.016c.13-.052.177-.137.142-.255-.036-.109-.114-.142-.232-.097l-.056.021ZM45.344 74.421l-.435-.498c-.05-.064-.097-.08-.137-.05l-.007.005-.014-.047.352-.158.014.047-.017.007c-.042.02-.066.04-.07.064-.008.019.004.042.033.07l.288.329.012-.508c0-.047-.029-.059-.085-.038l-.024.012-.014-.047.257-.116.014.048-.004.002c-.052.016-.078.076-.078.18l-.022.672-.063.026ZM46.011 73.312l-.222.099.088.264.165-.075c.054-.02.07-.057.047-.118l.04-.02.078.237-.04.019c-.014-.062-.054-.076-.118-.043l-.149.069.069.215c.01.05.028.061.059.042l.17-.075c.061-.022.087-.078.075-.173l.04-.019.05.192-.607.276-.014-.047.04-.02c.055-.02.071-.06.052-.117l-.156-.48c-.016-.059-.054-.075-.113-.044l-.012.004-.014-.047.555-.25.069.165-.04.016c-.038-.07-.074-.094-.112-.07ZM47.667 72.549l-.012-.047.33-.111.013.047-.017.005c-.056.019-.075.059-.059.118l.118.484c.012.064.047.087.104.064l.017-.005.011.047-.33.111-.012-.047.012-.005c.052-.014.07-.052.056-.111l-.118-.489c-.011-.061-.044-.082-.099-.064l-.014.003ZM48.503 72.284l.127.563c.01.068.045.09.111.063l.024-.007.012.047-.376.118-.012-.047.038-.012c.054-.014.076-.052.062-.118l-.128-.564-.127.04c-.071.005-.1.066-.078.18l-.045.014-.03-.239.032-.01c.007.01.017.013.026.015.007.005.017.005.028-.005l.499-.158c.019-.002.033-.017.042-.04l.038-.012.069.227-.04.012c-.034-.11-.083-.147-.147-.11l-.125.043ZM49.44 72.46l.026.172c.005.066.04.092.106.073l.017-.003.007.05-.366.076-.007-.05.028-.007c.052-.007.076-.043.067-.104l-.026-.177-.284-.31c-.028-.037-.064-.052-.104-.04l-.01.003-.006-.05.35-.073.006.05-.016.002c-.029.01-.045.019-.05.03-.007.015-.002.029.014.043l.21.23.09-.258c.012-.036.012-.062 0-.076-.007-.012-.026-.016-.056-.012l-.012.003-.007-.05.252-.052.007.05c-.054.012-.092.05-.106.113l-.13.366Z" clip-rule="evenodd"/></g><defs><filter id="a" width="154" height="157" x="0" y="0" color-interpolation-filters="sRGB" filterUnits="userSpaceOnUse"><feFlood flood-opacity="0" result="BackgroundImageFix"/><feColorMatrix in="SourceAlpha" result="hardAlpha" values="0 0 0 0 0 0 0 0 0 0 0 0 0 0 0 0 0 0 127 0"/><feOffset dy="16"/><feGaussianBlur stdDeviation="6.5"/><feColorMatrix values="0 0 0 0 0 0 0 0 0 0 0 0 0 0 0 0 0 0 0.03 0"/><feBlend in2="BackgroundImageFix" result="effect1_dropShadow_185_226"/><feBlend in="SourceGraphic" in2="effect1_dropShadow_185_226" result="shape"/></filter></defs></svg>