<svg xmlns="http://www.w3.org/2000/svg" width="154" height="157" fill="none"><g filter="url(#a)"><path fill="#fff" d="M13 0h128v128H13z"/><path fill="#BD2319" fill-rule="evenodd" d="M42.64 69.4h-.591v-6.463c-.006-.45-.085-.818-.65-.84-.401-.016-.718.272-.723.84-.045 1.928-.094 3.857-.135 5.786-.024 1.165.534 2.107 1.803 2.107 1.27 0 1.828-.942 1.803-2.107-.04-1.929-.09-3.858-.135-5.786-.005-.568-.321-.856-.722-.84-.566.022-.645.39-.65.84V69.4ZM30.661 59.12c-.052.036-.184-.055-.293 0a.374.374 0 0 0-.184.184c-.033.065 0 .26.217.402.217.14.967.287 1.114.264.147-.023.26-.328.136-.35-.125-.023-.441-.114-.532-.26-.09-.148-.238-.42-.226-.951.011-.532.2-.825.274-.881.073-.057.18.043.204.077.023.032.18.488.202.51.021.021.017.143-.08.09-.098-.052-.204-.09-.295-.022-.09.067-.17.147-.068.26a.27.27 0 0 0 .295.079c.067-.023.192-.056.158.011-.034.068-.023.351-.023.351s-.102.124 0 .215c.102.09.283.09.283.011s0-.317.023-.452c.022-.136.068-.362.158-.408.09-.045.159-.01.306-.101.147-.09.305-.328.317-.464.01-.136.101-.86.18-.973.08-.113.284-.181.091-.362-.192-.181-.95-.26-1.312.022-.363.283-.657.679-.85 1.222-.191.543-.225.826-.157 1.11.067.282.113.38.062.416Zm1.155-1.017s-.04.02-.06.08c-.02.06-.03-.44-.03-.621 0-.18-.13-.18-.26-.17-.13.01-.13.01-.2.02.067-.168.127-.291.25-.458.157-.215.395-.447.671-.474.16-.016.07.5.06.64-.01.141-.03.582-.04.672-.01.09-.1.07-.23.1s-.16.211-.16.211ZM36.385 52.428c-.11.06-.16.135-.059.311.101.177.219.143.311.462.093.32.277.966.32 1.067.041.1.024.285.024.361 0 .076.05.302.219.269.168-.034.092-.235.075-.336-.016-.1-.243-.932-.302-1.058a3.047 3.047 0 0 1-.185-.555c-.016-.117-.016-.227-.117-.336-.101-.109-.177-.243-.286-.185ZM37.175 52.26c-.05.017-.135.043-.143.143-.009.101.1.227.168.303.067.075.134.16.16.252.025.092.251.672.327.705.076.034.151-.067.151-.218s-.034-.345-.1-.412a.393.393 0 0 1-.11-.294c0-.134-.092-.277-.185-.395a.241.241 0 0 0-.268-.084ZM37.704 50.925c-.062.008-.185.05-.21.118-.025.067 0 .176.1.277.101.1.16.202.177.277.017.075.361.84.445 1.041.084.202.218.597.336.849.118.252.296.716.445.798.15.081.218-.158.128-.274-.09-.117-.086-.07-.22-.297-.135-.227-.672-1.487-.706-1.588-.033-.1-.158-.478-.158-.604s.1-.294.024-.412c-.033-.118-.3-.193-.361-.185ZM47.37 53.981c.02.203.115.826.434.848.318.021.34-.34.267-.464-.072-.123-.492-.586-.492-.586-.178-.194-.223.078-.21.202ZM54.52 58.112a.351.351 0 0 0-.118.127c-.023.047-.07.134-.11.142-.04.008-.285.063-.34.079-.055.015-.22.04-.252.087-.032.047-.119.134-.119.134s0 .095.071.095.071.063.071.063-.008.134-.047.11c-.04-.023-.054-.008-.11-.06-.058-.053-.512-.487-.512-.487s-.101-.158-.125-.203c-.025-.044-.029-.121-.106-.121s-.17.048-.194.117a.321.321 0 0 0 .06.259c.101.116.305.193.42.268.202.134.343.265.458.393.115.128.367.405.435.555.069.149.005.205-.047.192a.78.78 0 0 1-.2-.111c-.043-.034-.081-.005-.081-.005s.012.043.097.173.147.334.198.34c.05.005.333-.17.283-.356a1.611 1.611 0 0 0-.193-.425c-.034-.045-.011-.107.074-.068.085.04.186.102.334.102.147 0 .197.05.243-.011.045-.063.141-.176.152-.21.012-.033.085-.028.165.057.079.085.215.164.271.08.057-.086-.022-.193.051-.221.074-.029.096-.09.136-.04.04.05.073.107.102.074.028-.035.084-.08.124-.142.04-.062.017-.175-.045-.17a1.14 1.14 0 0 0-.21.051c-.05.017-.124.023-.152.068-.028.045-.04.068-.08.068-.039 0-.095.023-.158-.04-.062-.062-.073-.107-.136-.113-.062-.005-.203.04-.209.068-.005.029.04.096-.073.108-.114.011-.396-.034-.436-.012-.04.023.006.097-.051.114-.057.017-.147.079-.192.05a.84.84 0 0 1-.13-.14c0-.001-.08-.131.05-.131s.329-.034.368-.04c.04-.005.102.012.09-.045-.01-.057.103-.023.057-.08-.045-.056-.085-.095 0-.107.085-.011.402 0 .577-.028.176-.028.187-.096.204-.158.017-.063-.113-.181-.17-.164-.056.016-.118.124-.198.158-.079.034-.333.102-.362.113-.028.011-.205.051-.243.051-.038 0-.219-.136-.074-.153.146-.017.32-.06.396-.118.078-.059.153-.255.142-.3-.012-.046-.124-.05-.155-.037Z" clip-rule="evenodd"/><path fill="#BD2319" fill-rule="evenodd" d="M53.095 58.983c-.074.03-.126.104-.104.17.023.068.142.082.157.164.024.137-.2.164-.283.164 0 0-.26-.283-.29-.335-.03-.052-.126-.327-.216-.275-.089.052-.156.2-.104.29.052.09.142.141.238.238.097.097.194.2.194.238 0 .037-.052.126-.15.149-.096.022-.356.052-.4-.008a.426.426 0 0 1-.075-.275c.015-.09.022-.29-.074-.223-.097.067-.067.127-.127.186-.059.06-.111.245-.044.32.067.074.238.163.446.156.208-.008.305-.045.372-.045s.163-.082.17-.015c.008.067.053.342.164.327.112-.015.253-.074.23-.17-.022-.097-.156-.328-.156-.328s-.022-.17.038-.148c.06.022.185.044.267.051.082.008.238-.044.2-.148-.036-.104-.23-.305-.267-.364-.037-.06-.111-.149-.186-.12ZM47.867 52.151c-.02.004-.15.19-.291.394h-.02c-.065 0-.336.02-.433-.044-.098-.066-.24-.174-.304-.185-.066-.01-.152.033-.185.141-.032.109-.022.217.13.38s.185.141.326.109c.065-.016.147-.026.23-.035a1.102 1.102 0 0 1-.117.147c-.076.06-.31.336-.454.437-.142.101-.53.274-.512.286.018.012-.089.027-.1-.093-.012-.12-.085-.017-.202.05-.118.068-.042.21-.06.295-.016.084-.013.145.146.12.16-.026.316-.196.5-.288.185-.093.514-.244.657-.395.113-.12.336-.418.458-.595.164-.016.481-.016.55-.016.076 0 .152.065.271.054.12-.01.25-.065.174-.163-.076-.097-.141-.217-.26-.184-.12.032-.236.02-.312.03a1.292 1.292 0 0 1-.223-.017c.058-.077.117-.15.148-.2a.363.363 0 0 1 .135-.144.683.683 0 0 0 .184-.193c.05-.084.017-.31-.05-.361-.067-.05-.193-.017-.252.092-.059.11-.093.37-.134.378ZM42.326 57.066c-.053 0-.106 0-.158.003-.04-.274-.191-.605-.522-.615-.25-.008-.405.01-.66.009-.253-.002-.42-.09-.531-.232.065.34.163.683.54.742.166.026.344.017.51.018.25.001.383.034.475.09-.641.057-1.222.29-1.422.867-.178.515-.126 1.77-.241 2.347h-.811c-.704-.013-.911.577-.959 1.32-.121 2.095-.26 4.188-.365 6.283-.082 1.652-.432 2.4-.954 2.966h1.15c.157-.154.285-.35.562-.756-.111.37-.213.581-.322.756h.998c.19-.373.24-.817.26-1.272.109-2.345.208-4.69.312-7.035.012-.378.138-.603.444-.607h1.52v-3.116a.81.81 0 0 1-.634-.79.81.81 0 0 1 .808-.807.81.81 0 0 1 .808.808.81.81 0 0 1-.634.789v3.116h1.52c.306.004.432.23.444.607.104 2.345.203 4.69.311 7.035.021.455.071.9.26 1.272h.998a2.99 2.99 0 0 1-.321-.756c.277.405.405.603.562.756h1.15c-.523-.567-.872-1.314-.954-2.966-.105-2.095-.244-4.188-.365-6.282-.048-.744-.256-1.334-.959-1.32h-.81c-.116-.578-.065-1.833-.242-2.347-.2-.578-.78-.811-1.422-.868.092-.056.224-.089.474-.09.167-.001.345.008.51-.018.378-.059.476-.401.541-.742-.11.142-.279.23-.53.232-.256.001-.411-.017-.661-.01-.33.011-.482.342-.522.616a4.154 4.154 0 0 0-.158-.003Z" clip-rule="evenodd"/><path fill="#BD2319" fill-rule="evenodd" d="M42.3 49c8.428 0 15.301 6.873 15.301 15.3 0 8.428-6.873 15.301-15.3 15.301-8.428 0-15.301-6.873-15.301-15.3C27 55.873 33.873 49 42.3 49Zm0 .539c-8.13 0-14.761 6.631-14.761 14.762 0 8.13 6.631 14.762 14.762 14.762 8.13 0 14.762-6.632 14.762-14.762S50.43 49.539 42.3 49.539Z" clip-rule="evenodd"/><path fill="#BD2319" fill-rule="evenodd" d="m28.88 63.884.708-.013.002.073a.654.654 0 0 0-.417.24.676.676 0 0 0-.16.453.43.43 0 0 0 .081.265c.052.067.118.1.199.098.123-.002.252-.164.385-.486l.002-.005.036-.088c.09-.223.184-.372.282-.447a.527.527 0 0 1 .303-.105.561.561 0 0 1 .448.196c.12.134.18.307.184.52.002.114-.019.235-.062.36a1.712 1.712 0 0 0-.065.206c0 .032.01.055.03.067.019.013.055.02.106.024l.001.077-.625.01-.001-.066a.582.582 0 0 0 .358-.22.625.625 0 0 0 .133-.407.378.378 0 0 0-.07-.233.21.21 0 0 0-.177-.086c-.105.002-.206.128-.305.377l-.012.031a4.145 4.145 0 0 1-.165.376.635.635 0 0 1-.116.16.61.61 0 0 1-.413.171.589.589 0 0 1-.47-.2.8.8 0 0 1-.19-.538 1.276 1.276 0 0 1 .06-.394c.041-.137.062-.21.062-.222a.105.105 0 0 0-.035-.08.157.157 0 0 0-.096-.036l-.002-.078Zm.682 3.097c-.099.018-.165.049-.2.093-.034.044-.045.111-.034.202l-.07.012-.192-1.087.07-.013c.02.09.053.15.101.179.048.03.121.035.22.018l1.222-.216c.098-.017.165-.048.2-.093.034-.044.046-.111.034-.201l.07-.012.192 1.087-.072.013c-.02-.09-.054-.15-.1-.18-.047-.028-.12-.034-.219-.017l-1.222.215Zm.87 2.639a.96.96 0 0 1-.433-.232.988.988 0 0 1-.26-.422 1.007 1.007 0 0 1-.05-.372.9.9 0 0 1 .094-.351.924.924 0 0 1 .252-.321c.109-.09.238-.159.389-.207.283-.093.542-.08.777.04s.398.32.49.6c.038.12.057.245.056.374-.001.13 0 .198.002.206.01.027.023.045.041.055.02.009.05.013.092.011l.023.07-.594.194-.023-.071a.628.628 0 0 0 .29-.278.48.48 0 0 0 .017-.365.418.418 0 0 0-.321-.295c-.162-.039-.375-.015-.637.07-.274.09-.468.197-.582.324a.408.408 0 0 0-.096.426c.033.1.092.186.179.26a.924.924 0 0 0 .33.172l-.036.112Zm.706 1.327.497-.31.315.503-.497.31c-.085.053-.155.075-.21.066-.055-.01-.108-.052-.161-.128l-.06.038.584.937.06-.038c-.044-.078-.06-.144-.043-.199.015-.055.066-.109.15-.162l1.053-.657c.085-.053.155-.075.21-.065.056.01.11.052.16.127l.061-.038-.585-.937-.06.038c.044.08.059.147.043.2-.015.054-.065.108-.15.16l-.434.272-.315-.504.434-.27c.085-.054.155-.075.21-.066.055.01.109.052.161.127l.06-.037-.585-.937-.06.038c.045.078.06.145.044.2-.016.053-.066.108-.15.16l-1.053.658c-.085.053-.155.074-.212.065-.056-.01-.109-.052-.16-.127l-.06.038.586.936.06-.038c-.045-.08-.06-.147-.044-.2.016-.054.066-.107.15-.16Zm2.619 2.7.647-.603c.074-.069.113-.13.117-.186.005-.055-.021-.117-.08-.187l.053-.048.428.459-.052.049c-.065-.064-.125-.095-.182-.094-.056 0-.121.035-.195.103l-.642.6c-.1.094-.187.16-.258.197a.536.536 0 0 1-.22.061.626.626 0 0 1-.31-.076 1.142 1.142 0 0 1-.31-.242c-.177-.19-.266-.372-.267-.545-.001-.174.085-.341.26-.504l.68-.635c.073-.068.113-.13.117-.187.005-.056-.022-.119-.08-.187l.052-.05.753.809-.052.048c-.066-.063-.127-.095-.183-.094-.056.001-.12.036-.194.104l-.777.725c-.108.1-.166.196-.176.286-.009.09.03.18.118.275.104.11.219.16.344.147.125-.013.262-.087.409-.224Zm.617 1.011.268-.174.412.3-.102.355a.253.253 0 0 1-.04.088c-.024.033-.052.048-.083.044a.53.53 0 0 1-.17-.097l-.042.058.832.604.041-.058a.155.155 0 0 1-.064-.087.334.334 0 0 1 .013-.15l.462-1.783-.173-.126-1.534.97a.38.38 0 0 1-.158.063.183.183 0 0 1-.127-.035l-.041.057.476.346.042-.058-.022-.015c-.054-.04-.087-.077-.099-.113-.011-.036-.002-.074.027-.114a.475.475 0 0 1 .082-.074Zm.377-.244.495-.32-.158.565-.337-.245Zm2.157.348c.042-.09.055-.163.039-.217-.017-.054-.065-.102-.146-.144l.03-.065.734.342.36 1.417.329-.706c.042-.09.055-.162.04-.215-.017-.053-.066-.1-.147-.144l.03-.066.571.266-.03.065c-.083-.035-.151-.041-.203-.019-.052.022-.1.079-.142.17L37.7 76.89l-.199-.093-.495-1.932-.503 1.077c-.042.09-.055.163-.039.216.016.054.065.102.146.145l-.03.064-.571-.266.03-.064c.083.035.15.042.203.02.052-.023.1-.08.142-.17l.524-1.125Zm4.825 2.198.077-.881c.009-.1-.004-.173-.037-.217-.033-.044-.094-.073-.184-.085l.006-.071.625.054-.006.071c-.09-.004-.156.014-.198.052-.041.038-.066.108-.075.208l-.077.875a1.259 1.259 0 0 1-.06.319.54.54 0 0 1-.122.193.63.63 0 0 1-.281.15c-.117.031-.247.04-.392.028-.26-.023-.447-.099-.564-.227-.117-.127-.165-.31-.144-.547l.081-.928c.009-.1-.004-.172-.038-.217-.034-.045-.096-.074-.186-.085l.007-.072 1.1.097-.006.07c-.092-.002-.158.015-.199.053-.04.038-.066.107-.074.207l-.093 1.059c-.013.147.007.257.06.33.054.072.144.114.272.125.152.013.27-.027.355-.12.084-.094.135-.24.153-.44Zm1.062-.863c-.014-.1-.043-.167-.086-.203-.044-.037-.11-.05-.2-.042l-.01-.07.8-.113 1.074.992-.108-.77c-.014-.1-.042-.167-.085-.203-.042-.035-.109-.049-.201-.04l-.01-.073.624-.088.01.071c-.09.016-.15.048-.181.095-.032.046-.04.12-.027.219l.222 1.578-.216.03-1.469-1.35.166 1.177c.014.1.042.167.085.203.042.036.11.05.2.042l.01.07-.623.088-.01-.07c.089-.016.15-.047.18-.095.032-.047.041-.12.027-.22l-.172-1.228Zm3.504.599c.028.096.065.159.112.189.048.03.116.034.206.013l.019.069-1.062.304-.02-.069c.088-.028.143-.068.168-.12.024-.05.022-.123-.005-.22l-.342-1.192c-.028-.096-.066-.16-.114-.189-.048-.03-.116-.034-.204-.013l-.02-.069 1.062-.304.02.07c-.087.03-.143.07-.167.12-.024.049-.023.122.005.218l.342 1.193Zm1.796-.298.108-.058-.173-1.843a.415.415 0 0 1 .02-.186.217.217 0 0 1 .092-.116l-.033-.063-.513.273.034.063a.353.353 0 0 1 .156-.042.1.1 0 0 1 .088.056.327.327 0 0 1 .029.108l.098.985-.795-.669a.504.504 0 0 1-.037-.038.137.137 0 0 1-.02-.027c-.017-.032-.018-.061-.002-.088a.264.264 0 0 1 .104-.082l.015-.008-.035-.064-.892.474.034.063a.222.222 0 0 1 .142-.022c.043.01.1.043.17.101l1.41 1.183Zm1.477-.808-.044-.056c.068-.059.104-.116.106-.173.003-.057-.027-.125-.09-.202l-.78-.965c-.064-.077-.123-.12-.18-.13-.055-.008-.12.014-.192.068l-.045-.055 1.327-1.075.335.413-.054.044c-.112-.104-.215-.156-.31-.156s-.208.052-.34.159l-.215.174.478.59.025-.02c.083-.068.126-.141.128-.222.001-.081-.037-.182-.117-.303l.056-.046.589.727-.056.046c-.104-.105-.196-.165-.276-.18-.08-.014-.163.014-.249.083l-.018.015.379.469c.06.073.106.109.142.107.036-.002.1-.04.19-.112.14-.115.224-.231.252-.35.027-.12.003-.263-.072-.428l.062-.05.3.55-1.33 1.078Zm1.812-2.92.024-.028c.078-.093.11-.183.096-.27-.014-.088-.075-.178-.183-.269-.113-.094-.214-.139-.303-.133-.09.005-.18.06-.27.167l.636.534Zm.504.423-.414-.347.04-.048.998.2.464-.552-.055-.046a.25.25 0 0 1-.121.07.49.49 0 0 1-.19-.008l-.765-.137a.551.551 0 0 0 .047-.335.464.464 0 0 0-.164-.272.434.434 0 0 0-.43-.092c-.157.047-.32.172-.489.373l-.692.825.055.046c.06-.067.12-.101.176-.103.057-.002.123.029.2.093l.95.797c.077.065.12.125.128.182.008.056-.016.12-.072.19l.055.046.722-.86-.056-.045c-.065.075-.126.114-.183.118-.057.004-.124-.028-.204-.095Zm1.58-1.312-.62-.343.036-.064c.159.061.32.062.48.002a.675.675 0 0 0 .365-.314.43.43 0 0 0 .062-.27.235.235 0 0 0-.122-.184c-.108-.06-.3.017-.577.229l-.003.003a8.926 8.926 0 0 0-.076.058c-.19.148-.345.23-.468.246a.525.525 0 0 1-.315-.06.562.562 0 0 1-.29-.394.773.773 0 0 1 .1-.542c.056-.1.134-.194.235-.282.1-.087.154-.136.159-.145.016-.028.018-.053.008-.073a.232.232 0 0 0-.08-.074l.037-.067.547.303-.032.058a.583.583 0 0 0-.42.011.625.625 0 0 0-.32.287.377.377 0 0 0-.055.237.21.21 0 0 0 .11.162c.092.051.243-.007.452-.174l.026-.02c.152-.12.262-.2.331-.243a.632.632 0 0 1 .18-.082.608.608 0 0 1 .444.058c.167.093.27.23.307.409a.798.798 0 0 1-.105.561 1.27 1.27 0 0 1-.248.312c-.105.098-.16.151-.165.161a.106.106 0 0 0-.01.087c.01.03.032.055.066.079l-.038.068Zm1.022-2.993-1.158-.445c-.093-.036-.153-.078-.178-.128-.025-.049-.023-.117.006-.205l-.068-.026-.396 1.03.067.026c.035-.083.08-.134.133-.154.052-.02.126-.013.22.023l1.157.444c.094.036.153.08.18.129.025.05.023.118-.006.205l.067.026.395-1.031-.066-.026c-.037.084-.082.136-.134.156-.052.02-.125.012-.219-.024Zm-.822-2.984.49.113-.015.067c-.135-.017-.238-.002-.309.045-.07.047-.121.135-.15.263l-.029.122 1.431.33c.098.023.171.02.22-.006.049-.026.086-.084.111-.173l.07.016-.249 1.076-.07-.016c.018-.088.01-.155-.022-.202-.033-.047-.098-.082-.196-.104l-1.431-.33-.028.122c-.03.128-.023.228.02.3.043.074.13.132.258.175l-.016.07-.49-.114.405-1.754Zm1.058-1.51.566.01c.1 0 .17-.017.213-.053.042-.036.066-.1.072-.192l.072.001-.02 1.104-.07-.001c-.002-.09-.023-.155-.065-.194-.042-.038-.113-.058-.213-.06l-.45-.008-.885.48a.483.483 0 0 0-.156.119.23.23 0 0 0-.043.135l-.073-.002.018-1.023.073.001c-.001.053.004.091.017.115a.063.063 0 0 0 .06.037c.01 0 .02-.001.033-.004a.18.18 0 0 0 .038-.016l.7-.36-.64-.358a.186.186 0 0 0-.101-.031c-.032 0-.056.015-.073.047a.315.315 0 0 0-.027.14v.016l-.073-.002.01-.552.072.002v.015c0 .036.01.07.034.102.024.03.06.06.109.087l.802.444ZM39.677 73.632l-.001-.088c.154 0 .253-.008.295-.025.041-.018.062-.051.062-.102v-.863c0-.043-.01-.072-.03-.088-.021-.015-.06-.022-.117-.022l-.09.004-.066.004v-.088a1.56 1.56 0 0 0 .588-.163h.095v1.216c0 .049.02.082.062.099.04.017.127.026.261.028v.088a13.804 13.804 0 0 0-1.059 0Zm1.94-.646a.501.501 0 0 0-.176.123.232.232 0 0 0-.06.152.26.26 0 0 0 .108.21.398.398 0 0 0 .258.085c.09 0 .167-.023.23-.069.062-.046.093-.101.093-.165 0-.063-.035-.12-.106-.173a1.34 1.34 0 0 0-.347-.163Zm.194-.223a.436.436 0 0 0 .133-.118.236.236 0 0 0 .045-.137.195.195 0 0 0-.08-.16.318.318 0 0 0-.203-.063.324.324 0 0 0-.188.053c-.051.034-.077.077-.077.128 0 .056.028.106.084.15.056.046.151.094.286.147Zm-.367.156a.79.79 0 0 1-.224-.172.29.29 0 0 1-.073-.187c0-.107.055-.194.167-.26.11-.068.257-.101.438-.101a.75.75 0 0 1 .38.084c.095.056.144.13.144.22 0 .06-.026.115-.076.164-.05.05-.134.1-.253.153.14.05.242.109.307.174a.321.321 0 0 1 .098.236.365.365 0 0 1-.177.314.817.817 0 0 1-.467.12.936.936 0 0 1-.477-.105c-.12-.07-.18-.163-.18-.277 0-.08.032-.15.097-.209a.809.809 0 0 1 .296-.154Zm1.134.624.13-.1c.043.03.086.052.129.066a.472.472 0 0 0 .502-.138.589.589 0 0 0 .144-.41v-.006a.622.622 0 0 1-.205.173.544.544 0 0 1-.248.057.485.485 0 0 1-.343-.117.412.412 0 0 1-.127-.319c0-.164.058-.296.174-.396.116-.1.268-.15.457-.15.207 0 .368.056.482.169.113.112.17.27.17.475 0 .115-.02.223-.062.323-.042.1-.101.187-.179.26a.852.852 0 0 1-.28.175.943.943 0 0 1-.56.03.57.57 0 0 1-.184-.092Zm.628-.547a.233.233 0 0 0 .179-.073.273.273 0 0 0 .068-.192.512.512 0 0 0-.08-.304.255.255 0 0 0-.218-.113.19.19 0 0 0-.165.082.394.394 0 0 0-.058.231c0 .115.024.206.074.271.049.066.116.099.2.099Zm1.515-.127a.229.229 0 0 0-.18.075.296.296 0 0 0-.067.205c0 .12.027.218.082.292a.248.248 0 0 0 .208.111c.073 0 .13-.026.17-.078a.352.352 0 0 0 .061-.22.483.483 0 0 0-.071-.285.236.236 0 0 0-.203-.1Zm.628-.544-.13.1a.49.49 0 0 0-.129-.067.472.472 0 0 0-.502.138.585.585 0 0 0-.145.41v.007a.642.642 0 0 1 .206-.175.534.534 0 0 1 .249-.059c.142 0 .256.04.341.119.086.08.129.186.129.32a.495.495 0 0 1-.174.395.68.68 0 0 1-.458.15c-.207 0-.368-.057-.481-.17-.114-.111-.17-.27-.17-.475 0-.115.02-.223.06-.322.042-.099.101-.185.18-.26a.836.836 0 0 1 .28-.174.951.951 0 0 1 .56-.03.59.59 0 0 1 .184.093Z" clip-rule="evenodd"/><path fill="#BD2319" fill-rule="evenodd" d="M42.3 54.23c5.547 0 10.07 4.524 10.07 10.07 0 3.79-2.11 7.1-5.217 8.82l-.194-.39c2.964-1.646 4.977-4.81 4.977-8.43 0-5.306-4.328-9.635-9.635-9.635-5.308 0-9.636 4.329-9.636 9.636 0 3.636 2.032 6.812 5.018 8.452l-.194.389c-3.128-1.712-5.258-5.036-5.258-8.841 0-5.547 4.523-10.07 10.07-10.07ZM62.68 74.316l.364-.002c.011.316.084.555.218.718.134.163.324.245.57.245.2 0 .36-.051.482-.152a.488.488 0 0 0 .183-.394.48.48 0 0 0-.12-.336c-.08-.087-.264-.192-.55-.315-.43-.182-.723-.36-.88-.531a.928.928 0 0 1-.235-.648c0-.323.113-.587.34-.793.227-.206.52-.31.878-.31.143 0 .301.012.473.035.17.022.366.056.585.102l-.002.015a22.33 22.33 0 0 0-.008.484c0 .104.003.26.008.467l.002.015h-.293c-.005-.268-.067-.47-.188-.609-.12-.138-.294-.207-.521-.207a.615.615 0 0 0-.418.133.458.458 0 0 0-.153.363c0 .136.04.246.12.33.08.084.267.188.56.31.04.018.1.043.18.075.307.126.516.238.624.338.113.107.196.223.25.35.054.125.082.27.082.434 0 .357-.121.643-.362.858-.242.214-.567.321-.977.321-.227 0-.442-.022-.646-.067a2.659 2.659 0 0 1-.59-.204 10.93 10.93 0 0 0 .028-.928c0-.037-.002-.069-.003-.097Zm3.267 1.224v-.224h.03c.162 0 .27-.026.322-.08.052-.052.079-.17.079-.352V72.42c0-.122-.028-.21-.085-.26-.057-.052-.151-.077-.283-.077h-.063v-.214a7.947 7.947 0 0 0 .867.043 9.185 9.185 0 0 0 .866-.043v.209c-.16 0-.27.023-.33.07-.06.046-.091.13-.091.255v2.482c0 .18.026.298.078.352.053.053.157.08.314.08h.03v.219a9.858 9.858 0 0 0-1.267-.025c-.142.007-.298.016-.467.03Zm5.611-3.568a13.73 13.73 0 0 0-.025.706l.003.164.007.243h-.331c-.03-.335-.115-.585-.253-.75-.138-.165-.332-.248-.58-.248-.35 0-.623.133-.819.398-.195.266-.292.637-.292 1.114 0 .486.106.88.32 1.177.212.3.489.449.83.449a.992.992 0 0 0 .536-.155c.165-.104.334-.27.505-.5l.24.156c-.197.309-.419.534-.665.675-.246.14-.54.211-.883.211-.558 0-1-.17-1.324-.512-.325-.34-.486-.802-.486-1.384 0-.578.18-1.042.542-1.392.36-.35.84-.525 1.435-.525.207 0 .578.05 1.114.149l.126.024Zm.685 3.568v-.224h.032c.16 0 .268-.026.321-.08.054-.052.08-.17.08-.352V72.42c0-.122-.028-.21-.084-.26-.057-.052-.151-.077-.284-.077h-.065v-.214c.107.015.225.026.355.032.13.007.3.01.51.01.182 0 .348-.003.498-.01a3.56 3.56 0 0 0 .354-.032v.209c-.161 0-.272.023-.332.07-.06.046-.09.13-.09.255v1.033h1.533v-1.033c0-.116-.031-.2-.093-.25-.062-.05-.167-.075-.313-.075h-.025v-.209c.121.015.252.026.393.032a9.774 9.774 0 0 0 .925 0c.133-.007.256-.017.367-.032v.214h-.046c-.126 0-.216.025-.27.077-.053.05-.08.138-.08.26v2.465c0 .164.028.277.085.34.058.06.162.092.311.092v.224a13.051 13.051 0 0 0-.449-.03 7.645 7.645 0 0 0-.7-.001c-.15.006-.324.014-.526.026v-.219h.029c.157 0 .261-.027.314-.08.052-.055.078-.171.078-.352v-1.169h-1.533v1.17c0 .18.027.297.079.35.053.054.157.081.314.081h.029v.216c-.189-.01-.356-.017-.503-.023a8.608 8.608 0 0 0-1.214.031Zm5.07-3.121c0-.12-.03-.207-.086-.26-.057-.051-.152-.077-.285-.077h-.04v-.211c.169.015.326.026.469.034a7.508 7.508 0 0 0 .77 0c.142-.008.3-.019.477-.034v.21c-.163 0-.275.024-.333.07-.059.044-.089.128-.089.251v1.668c0 .258.012.445.035.557a.714.714 0 0 0 .118.283c.07.09.163.16.281.208.118.048.255.072.414.072.32 0 .548-.085.686-.257.138-.17.208-.462.208-.873v-.024l-.008-1.547c0-.164-.027-.27-.08-.322-.054-.05-.168-.079-.339-.085l-.002-.211c.115.011.215.02.3.026a3.542 3.542 0 0 0 .486 0c.086-.006.182-.014.287-.026v.21c-.131.007-.215.03-.252.07-.037.04-.058.148-.06.323l-.032 1.698c-.01.508-.13.876-.357 1.101-.23.226-.595.34-1.101.34-.48-.001-.844-.103-1.093-.305-.25-.203-.374-.5-.374-.893V72.42Zm5.155.4-.524 1.266h.956l-.432-1.266ZM81.566 75a.416.416 0 0 0-.03.152c.001.09.13.145.388.16l.015.003v.219a8.468 8.468 0 0 0-.591-.03c-.056 0-.12.002-.197.006a11.29 11.29 0 0 0-.363.029v-.224c.117-.02.21-.06.28-.12a.92.92 0 0 0 .207-.312l1.327-3.016h.358l1.175 3.205c.032.085.079.145.141.182.062.038.15.058.266.061v.219a17.603 17.603 0 0 0-.824-.03 17.097 17.097 0 0 0-.9.035l-.003-.224c.192-.007.315-.022.368-.045.053-.025.08-.067.08-.128a.21.21 0 0 0-.009-.054 1.413 1.413 0 0 0-.02-.073l-.245-.685h-1.15l-.273.67Zm6.484-.782v-1.775c0-.144-.032-.241-.097-.292-.065-.05-.195-.075-.39-.075v-.209a8.627 8.627 0 0 0 .894.018c.093-.004.181-.01.266-.018v.214h-.034c-.12 0-.204.027-.256.082-.05.054-.076.147-.076.275v3.101h-.331l-2.323-2.96v2.304c0 .187.03.306.087.357.059.05.19.075.395.075v.219a7.582 7.582 0 0 0-.651-.03 4.863 4.863 0 0 0-.599.035v-.224c.193 0 .317-.025.372-.075.056-.051.084-.17.084-.357V72.44c0-.139-.027-.23-.083-.275-.054-.045-.166-.069-.334-.072v-.224c.171.015.302.025.393.03a4.213 4.213 0 0 0 .503 0c.102-.005.215-.013.34-.025l1.84 2.346Zm4.12-1.8c0-.12-.03-.207-.087-.26-.057-.051-.152-.077-.284-.077h-.042v-.211c.17.015.327.026.47.034a7.51 7.51 0 0 0 .771 0c.142-.008.3-.019.476-.034v.21c-.163 0-.274.024-.333.07-.058.044-.088.128-.088.251v1.668c0 .258.011.445.034.557a.713.713 0 0 0 .119.283c.07.09.162.16.28.208.118.048.256.072.415.072.319 0 .548-.085.686-.257.138-.17.207-.462.207-.873v-.024l-.007-1.547c0-.164-.028-.27-.081-.322-.054-.05-.167-.079-.338-.085l-.003-.211c.115.011.215.02.3.026a3.543 3.543 0 0 0 .486 0c.086-.006.182-.014.287-.026v.21c-.13.007-.215.03-.252.07-.037.04-.057.148-.06.323l-.032 1.698c-.01.508-.129.876-.357 1.101-.229.226-.595.34-1.1.34-.48-.001-.845-.103-1.094-.305-.249-.203-.374-.5-.374-.893V72.42Zm6.897 1.8v-1.775c0-.144-.032-.241-.097-.292-.064-.05-.195-.075-.39-.075v-.209a8.644 8.644 0 0 0 .894.018c.093-.004.182-.01.266-.018v.214h-.034c-.12 0-.204.027-.255.082-.05.054-.076.147-.076.275v3.101h-.332l-2.322-2.96v2.304c0 .187.028.306.087.357.058.05.19.075.394.075v.219a7.582 7.582 0 0 0-.65-.03 4.864 4.864 0 0 0-.6.035v-.224c.193 0 .317-.025.373-.075.055-.051.083-.17.083-.357V72.44c0-.139-.027-.23-.082-.275-.055-.045-.167-.069-.334-.072v-.224c.17.015.301.025.392.03a4.206 4.206 0 0 0 .504 0 7.57 7.57 0 0 0 .338-.025l1.841 2.346Zm1.261 1.321v-.224h.029c.163 0 .27-.026.323-.08.052-.052.079-.17.079-.352V72.42c0-.122-.028-.21-.084-.26-.058-.052-.152-.077-.284-.077h-.063v-.214a7.93 7.93 0 0 0 .867.043 9.148 9.148 0 0 0 .866-.043v.209c-.159 0-.27.023-.33.07-.061.046-.091.13-.091.255v2.482c0 .18.026.298.078.352.053.053.157.08.315.08h.028v.219a9.769 9.769 0 0 0-1.266-.025 14.24 14.24 0 0 0-.467.03Zm4.178.035h-.402l-1.14-3.178a.512.512 0 0 0-.162-.236.399.399 0 0 0-.25-.08h-.054v-.208a11.962 11.962 0 0 0 .848.032c.084 0 .187-.002.309-.007.124-.005.313-.014.57-.03v.214h-.036a.59.59 0 0 0-.271.046c-.053.03-.081.08-.081.148a.34.34 0 0 0 .02.11l.767 2.213.865-2.202c.016-.04.029-.077.039-.112a.351.351 0 0 0 .014-.075c0-.043-.028-.077-.085-.097a.812.812 0 0 0-.266-.031h-.051v-.209c.076.009.155.014.239.017a6.598 6.598 0 0 0 .559 0c.086-.005.167-.012.243-.022l.003.214a.287.287 0 0 0-.19.06.656.656 0 0 0-.149.245l-1.339 3.188Zm2.102-.035v-.224h.071c.142 0 .243-.025.303-.077.06-.05.089-.137.089-.257v-2.553c0-.123-.029-.21-.089-.26-.06-.052-.161-.077-.303-.077h-.071v-.224c.128.012.269.02.424.025.155.005.395.007.717.007h.541c.249 0 .457-.002.624-.007.167-.005.315-.012.448-.022.003.127.01.264.018.41.009.146.02.31.035.488h-.242c-.016-.233-.087-.397-.211-.493-.123-.095-.333-.143-.627-.143-.174 0-.284.013-.331.038-.047.024-.071.073-.071.146l.001 1.225h.476c.151 0 .263-.043.338-.127.075-.084.113-.212.113-.383l.193.003a14.371 14.371 0 0 0-.015.619c0 .104.002.208.005.313l.01.317h-.203c-.004-.19-.037-.323-.099-.397-.063-.075-.174-.112-.332-.112h-.486v1.251c0 .072.021.123.064.156.042.032.111.048.204.048.426 0 .725-.054.896-.164.171-.11.294-.306.369-.589h.222a18.59 18.59 0 0 0-.208 1.063 17.472 17.472 0 0 0-.657-.03 27.276 27.276 0 0 0-2.216.03Zm3.646 0v-.224c.157 0 .261-.027.314-.08.052-.055.079-.171.079-.352V72.42c0-.121-.029-.208-.086-.26-.057-.052-.153-.078-.287-.078h-.039v-.209a7.832 7.832 0 0 0 .693.032c.14 0 .327-.005.56-.016.233-.01.395-.016.486-.016.434 0 .759.07.973.211.215.14.322.352.322.633a.919.919 0 0 1-.22.613c-.147.174-.364.314-.652.42.148.06.295.182.445.366.149.184.315.453.498.805l.05.102c.123.247.24.37.351.37h.029v.182a9.13 9.13 0 0 0-.748-.045c-.145-.01-.251-.043-.317-.098-.066-.056-.14-.183-.22-.38-.037-.096-.088-.226-.151-.393-.155-.416-.28-.655-.375-.716a.394.394 0 0 0-.127-.049.766.766 0 0 0-.23-.015 2.847 2.847 0 0 0-.098.01v.995c0 .174.025.29.073.344.05.055.146.085.288.088v.219c-.188-.012-.35-.02-.49-.026a7.507 7.507 0 0 0-.297-.009 9.623 9.623 0 0 0-.824.04Zm1.25-1.922h.213c.257 0 .446-.06.569-.181.123-.12.184-.306.184-.556 0-.265-.063-.456-.189-.575-.126-.118-.328-.177-.608-.177l-.104.001a1.25 1.25 0 0 0-.065.004v1.484Zm2.939.698.363-.002c.011.316.084.555.218.718.134.163.324.245.569.245.2 0 .361-.051.483-.152a.49.49 0 0 0 .183-.394.48.48 0 0 0-.12-.336c-.08-.087-.264-.192-.551-.315-.43-.182-.722-.36-.879-.531a.929.929 0 0 1-.235-.648c0-.323.113-.587.341-.793.226-.206.519-.31.877-.31.143 0 .301.012.472.035.171.022.366.056.586.102l-.002.015c-.005.214-.008.375-.008.484.001.104.003.26.008.467l.002.015h-.293c-.005-.268-.067-.47-.188-.609-.12-.138-.294-.207-.521-.207a.617.617 0 0 0-.418.133.458.458 0 0 0-.153.363c0 .136.039.246.119.33.081.084.267.188.561.31.04.018.1.043.179.075.309.126.517.238.625.338.113.107.196.223.25.35.054.125.081.27.081.434.001.357-.12.643-.362.858-.241.214-.566.321-.977.321-.226 0-.441-.022-.645-.067a2.648 2.648 0 0 1-.589-.204 11.732 11.732 0 0 0 .029-.762l-.002-.166c-.001-.037-.001-.069-.003-.097Zm3.266 1.224v-.224h.029c.163 0 .27-.026.323-.08.052-.052.079-.17.079-.352V72.42c0-.122-.029-.21-.085-.26-.057-.052-.151-.077-.283-.077h-.063v-.214a7.93 7.93 0 0 0 .867.043 9.148 9.148 0 0 0 .866-.043v.209c-.159 0-.27.023-.33.07-.061.046-.091.13-.091.255v2.482c0 .18.026.298.078.352.053.053.157.08.314.08h.029v.219a9.868 9.868 0 0 0-1.266-.025c-.142.007-.298.016-.467.03Zm2.899 0v-.224h.075c.147 0 .252-.025.314-.077.062-.05.093-.137.093-.257v-2.828h-.099c-.244 0-.429.049-.556.146-.127.098-.211.256-.252.474h-.18l.041-.906c.067.007.144.011.234.013l.463.002h1.576c.223 0 .38-.001.47-.003.09-.002.168-.006.234-.012l.037.906h-.179c-.042-.218-.126-.376-.253-.474-.127-.097-.312-.146-.556-.146h-.099v2.807c0 .137.029.231.088.28.058.05.169.075.334.075h.036v.224a20.676 20.676 0 0 0-.518-.03 8.999 8.999 0 0 0-.836 0c-.148.007-.304.016-.467.03Zm5.048-1.612v.956c0 .18.028.298.084.352.056.053.17.08.343.08h.104v.219c-.213-.012-.4-.02-.56-.026a10.17 10.17 0 0 0-.362-.009c-.132 0-.277.004-.438.01-.161.007-.342.016-.544.03l.001-.224h.109c.174 0 .288-.027.343-.08.055-.055.082-.171.082-.352v-.96l-.946-1.567-.005-.007c-.108-.18-.228-.268-.359-.268h-.049v-.209c.139.012.281.02.424.025a12.431 12.431 0 0 0 .914-.001c.144-.006.28-.014.404-.026v.21c-.155 0-.262.01-.322.03-.06.02-.09.054-.09.1 0 .011.003.026.009.044a.278.278 0 0 0 .025.055l.724 1.308.725-1.328a.607.607 0 0 0 .022-.052.168.168 0 0 0 .007-.04c0-.04-.031-.069-.093-.087a1.111 1.111 0 0 0-.302-.03v-.208a6.76 6.76 0 0 0 .574.032 3.973 3.973 0 0 0 .52-.034v.21a.544.544 0 0 0-.219.044.42.42 0 0 0-.146.16l-.979 1.643ZM67.97 61.05c-.21-.094-.177-.681-.551-.919a1.372 1.372 0 0 0-.925-.231c-.266.02-.817.49-.85 1.435-.035.946.918 3.572 1.266 3.99.347.419 1.518.2 1.355-.234-.164-.432-.476-1.596-.185-2.156.29-.56.866-1.532 2.554-2.497 1.688-.965 2.963-.921 3.278-.798.315.122.201.645.143.782-.058.137-1.193 1.488-1.22 1.595-.026.107-.415.322-.435-.082-.02-.405-.099-.81-.482-.965-.383-.156-.78-.255-.944.276a.987.987 0 0 0 .305 1.072c.199.17.54.496.263.518-.277.02-1.142.588-1.142.588s-.582-.085-.674.405c-.092.49.248 1.057.496.908.249-.15.994-.596 1.462-.78.468-.185 1.263-.469 1.575-.27.312.198.333.475.894.766.56.29 1.603.34 2.05.12.447-.22 2.887-1.298 3.39-1.262.504.035 1.1.546 1.306-.398.206-.943-.972-3.468-2.54-4.072-1.567-.602-3.362-.78-5.427-.361-2.064.418-3.015.844-3.774 1.589-.759.745-.979 1.074-1.188.98Zm5.36 1.708s-.138-.088-.364-.037c-.226.05 1.326-.924 1.891-1.263.566-.34.32-.748.044-1.137-.276-.39-.276-.39-.44-.59.651-.106 1.152-.147 1.906-.079.969.088 2.144.4 2.75 1.215.35.472-1.439 1.163-1.898 1.395-.458.233-1.878 1-2.18 1.137-.301.138-.408-.182-.748-.534-.339-.352-.96-.107-.96-.107ZM87.72 57.902c-.452.045-.728.23-.636.966.092.737.536.79.4 1.996-.138 1.207-.423 3.65-.423 4.049 0 .399-.317.999-.423 1.254-.107.255-.255 1.091.359 1.214s.642-.664.727-1.028c.085-.363.49-3.488.468-3.996-.021-.508.047-1.71.156-2.13.108-.42.262-.79.075-1.3-.186-.51-.253-1.07-.704-1.025Zm2.9.543c-.194-.014-.513-.047-.683.282-.17.328.022.907.142 1.256.12.35.23.728.184 1.075-.045.347-.094 2.622.114 2.841.208.22.604-.014.817-.524.212-.51.37-1.21.239-1.53-.133-.322-.145-.693.044-1.146.19-.454.078-1.066-.068-1.592a.883.883 0 0 0-.789-.662Zm3.663-3.762c-.22-.059-.694-.09-.874.101-.18.192-.248.596-.05 1.078.2.481.256.904.206 1.183-.05.279.038 3.342.038 4.14 0 .799-.101 2.32-.059 3.335.043 1.016-.01 2.833.38 3.319.391.486.958-.226.818-.745-.14-.52-.192-.358-.326-1.312-.135-.955-.178-5.962-.15-6.35.03-.387.137-1.835.314-2.26.177-.425.752-.855.662-1.358.053-.444-.738-1.073-.959-1.131ZM106.286 63.877c.372.646 1.608 2.589 2.705 2.19 1.098-.399.635-1.641.21-1.946-.424-.304-2.513-1.232-2.513-1.232-.88-.385-.631.592-.402.988Zm-1.045-6.854c.128-.09-.144-1.01-.109-1.462.035-.452.406-.75.705-.682.3.07.747.778.703 1.133a2.495 2.495 0 0 1-.332.92c-.103.145-.178.28-.238.675-.032.214-.118.55-.199.89.342-.1.665-.202.772-.27.238-.148.645-.278.996-.564.35-.285.745.017 1.143.232.399.213.044.588-.339.8-.383.213-.734.108-.988.22-.229.102-1.29.571-1.815.868-.144.774-.449 2.1-.65 2.667-.254.717-1.13 1.71-1.611 2.291-.481.583-.749 1.383-1.246 1.703-.496.32-.595.12-.663-.186-.068-.306-.532-.671-.238-1.07.294-.399.382-.85.599-.467.217.383.551.173.474.16-.078-.013.962-1.164 1.29-1.713.329-.548.705-1.822.87-2.13.039-.072.1-.323.173-.666a7.546 7.546 0 0 0-.718.455c-.423.318-.5.438-1.249.119-.749-.32-.945-.666-.997-1.077-.052-.411.174-.684.408-.745.234-.06.866.094 1.289.168.422.073 1.297-.401 1.515-.497a.867.867 0 0 1 .066-.026c.17-.887.33-1.704.389-1.746ZM116.798 56.136c.014.125.172.416.312.55.139.135.391.395.375.542a36.72 36.72 0 0 0-.095 1.27c-.005.21-.103.815.027.977.131.162.339.56.339.56.001 0 .331.104.409-.145.077-.248.298-.179.298-.179s.46.174.334.286c-.126.112-.086.18-.332.32-.246.14-2.255 1.252-2.255 1.252s-.663.18-.845.217c-.182.036-.455-.034-.539.235-.084.269-.016.647.197.808.094.07.568.245.969.07.517-.226 1.007-.854 1.394-1.17a8.437 8.437 0 0 1 1.87-1.172c.573-.262 1.815-.838 2.411-.913.595-.075.719.209.619.373-.101.165-.441.467-.606.579-.166.112-.104.278-.104.278s.162.005.709-.15c.547-.154 1.325-.148 1.4-.32.076-.171-.227-1.35-.934-1.376-.707-.026-1.496.14-1.691.208-.195.07-.387-.078-.156-.33.23-.253.559-.54.719-1.054.161-.513.394-.635.226-.861-.167-.226-.457-.685-.563-.761-.106-.077-.006-.327.376-.511s.807-.571.573-.861c-.235-.29-.696-.131-.715-.419-.018-.287-.21-.434.01-.517.221-.082.456-.139.368-.274-.088-.136-.184-.383-.358-.59-.173-.205-.593-.25-.641-.026-.048.223-.055.59-.051.786.004.196-.057.458.07.607.127.148.194.212.151.35-.044.138-.026.36-.311.51-.285.149-.456.139-.543.35-.088.21-.084.753.008.804.093.05.379-.033.295.374-.084.407-.551 1.345-.515 1.508.036.163.342.085.339.3-.002.216.116.6-.032.727-.148.127-.635.3-.635.3s-.541.134-.399-.32c.142-.454.24-1.181.263-1.326.024-.144.151-.343-.059-.365-.21-.023.032-.38-.214-.284-.247.096-.429.191-.376-.117.054-.309.439-1.402.531-2.044.093-.643-.131-.757-.33-.884-.198-.127-.755.197-.758.413-.002.216.305.55.337.864.032.313-.009 1.276 0 1.387.008.11-.047.773-.088.904-.041.132-.713.615-.613.09.099-.525.137-1.178.017-1.511-.119-.334-.721-.811-.891-.821-.171-.01-.31.377-.297.502Zm1.482 5.922c-.023-.292.37-.454.618-.518.248-.065 1.159-.52 1.563-.537.403-.016.415.586.299.863-.115.277-.33.694-.473.877-.143.183.478.292.478.292s.95-.215 1.312-.188c.361.028.415.586.345.99-.07.406-1.078.262-1.32.214-.241-.047-.062.38-.135.613-.073.234-.048.611-.25 1.346-.201.734-.699 1.233-1.031 1.386-.332.152-.924-.233-1.067-.505-.142-.272-.382-.233-.51-.644-.128-.41.564-.165.859-.016.295.15.785.132 1.041.041.256-.09.436-1.03.464-1.392.028-.362-.227-.64-.357-.681-.129-.041-.598.183-1.041.415-.442.231-.721.486-1.089.57-.368.084-.814-.312-.898-.68-.084-.368.981-.405 1.195-.452.214-.047 1.483-.646 1.483-.646.092-.292.244-1.101-.262-1.164-.301-.037-.483.361-.741.366-.258.005-.46-.258-.483-.55Z" clip-rule="evenodd"/></g><defs><filter id="a" width="154" height="157" x="0" y="0" color-interpolation-filters="sRGB" filterUnits="userSpaceOnUse"><feFlood flood-opacity="0" result="BackgroundImageFix"/><feColorMatrix in="SourceAlpha" result="hardAlpha" values="0 0 0 0 0 0 0 0 0 0 0 0 0 0 0 0 0 0 127 0"/><feOffset dy="16"/><feGaussianBlur stdDeviation="6.5"/><feColorMatrix values="0 0 0 0 0 0 0 0 0 0 0 0 0 0 0 0 0 0 0.03 0"/><feBlend in2="BackgroundImageFix" result="effect1_dropShadow_185_88"/><feBlend in="SourceGraphic" in2="effect1_dropShadow_185_88" result="shape"/></filter></defs></svg>