<svg xmlns="http://www.w3.org/2000/svg" xml:space="preserve" style="fill-rule:evenodd;clip-rule:evenodd;stroke-linejoin:round;stroke-miterlimit:2" viewBox="0 0 154 157"><path d="M42.971 48C34.141 48 27 55.17 27 64.015c.006 8.75 7.201 15.915 15.969 15.908 8.796-.01 15.963-7.181 15.952-15.96C58.912 55.161 51.751 48 42.971 48Zm0 30.838c-8.211-.013-14.906-6.695-14.893-14.856.019-8.231 6.694-14.908 14.896-14.9 8.202.008 14.871 6.701 14.864 14.886-.007 8.185-6.703 14.883-14.863 14.87h-.004Z" style="fill:#7b0203;fill-rule:nonzero" transform="translate(-57.584 -121.875) scale(3.13273)"/><path d="M38.804 50.957c.208-.117.408-.253.476-.504.009-.036.022-.069.07-.061.03.004.057.018.078.039a.135.135 0 0 1 .039.078.587.587 0 0 1-.18.536c-.261.231-.522.459-.785.683a.294.294 0 0 0-.117.171c-.043.24-.089.479-.139.75.157-.117.29-.211.269-.423a.925.925 0 0 1 .094-.451.175.175 0 0 1 .107-.114.168.168 0 0 1 .154.021c.202.09.301.421.15.597a.825.825 0 0 0-.175.629c.011.296 0 .592 0 .902a2.93 2.93 0 0 1-.34-.213c-.131-.106-.203-.075-.259.069a.6.6 0 0 1-.056.091c-.143.234-.138.234-.326.035-.079-.084-.094-.131.023-.192.162-.09.31-.203.438-.336a.438.438 0 0 0 .144-.444c-.061 0-.095.054-.134.091-.197.171-.193.169-.397 0a.107.107 0 0 1-.035-.032.109.109 0 0 1-.02-.042.13.13 0 0 1-.002-.048.133.133 0 0 1 .017-.043c.087-.223.161-.45.248-.672.033-.085.015-.125-.064-.165a.47.47 0 0 1-.295-.283c.386.024.56-.2.674-.512.113-.313.243-.622.332-.944.01-.031-.01-.08.041-.087a.098.098 0 0 1 .06.017.093.093 0 0 1 .038.049.484.484 0 0 1 .027.399c-.048.133-.104.271-.155.409ZM38.659 76.542c.174-.431.338-.832.497-1.234.037-.094.061-.15.187-.099.126.052.098.117.062.203-.207.507-.412 1.016-.621 1.52-.021.051-.011.161-.104.133-.094-.029-.21-.034-.234-.178-.107-.545-.224-1.087-.336-1.63-.064 0-.054.053-.068.087-.154.381-.31.761-.461 1.144-.034.086-.065.124-.167.072-.084-.042-.133-.058-.085-.173.217-.517.422-1.037.636-1.556.021-.049.013-.16.102-.128.089.031.209.028.234.176.1.534.216 1.064.326 1.595a.6.6 0 0 0 .032.068Zm7.957.197c-.109-.444-.211-.884-.329-1.319-.03-.105.005-.126.085-.145.08-.019.145-.054.175.069.139.574.284 1.146.426 1.719.008.038.032.087-.032.1-.094.017-.184.09-.283 0-.204-.192-.413-.379-.621-.568l-.657-.594c.117.468.214.889.326 1.308.031.117.027.16-.1.199-.151.045-.142-.057-.162-.135-.131-.52-.263-1.04-.386-1.561-.015-.062-.099-.152.006-.199.106-.047.199-.086.308.017.351.337.72.662 1.083.991a.4.4 0 0 0 .161.118Zm-13.55-3.904c.364-.317.702-.604 1.028-.895.069-.061.107-.102.193 0 .087.102.054.141-.023.208-.417.358-.829.721-1.247 1.077-.043.038-.09.137-.152.076-.062-.06-.175-.117-.133-.263.124-.423.234-.851.351-1.277l.099-.383c-.359.312-.688.596-1.014.881-.069.061-.117.125-.21.013-.092-.112-.047-.139.03-.206.413-.351.819-.713 1.234-1.064.043-.038.079-.158.161-.084.082.073.176.131.13.281-.144.486-.27.977-.402 1.466-.013.04-.028.084-.045.17ZM40.535 75.508c.413 0 .757.234.842.575.037.146-.011.192-.154.187-.073 0-.089-.031-.098-.093-.042-.256-.224-.37-.457-.412-.263-.047-.504 0-.667.234a.988.988 0 0 0-.158.801c.071.341.456.555.843.482.292-.054.308-.073.342-.318.012-.09 0-.132-.099-.144-.117-.014-.234-.041-.351-.058-.074-.011-.107-.041-.079-.117.021-.06 0-.152.117-.129.216.042.433.081.653.117.071.012.088.042.077.109-.037.187-.072.374-.103.562a.145.145 0 0 1-.033.072.14.14 0 0 1-.065.045c-.23.119-.491.162-.747.123-.411-.072-.736-.275-.83-.702a1.119 1.119 0 0 1 .372-1.147.824.824 0 0 1 .595-.187ZM50.544 73.021c.069.028.09.094.127.146.038.051-.021.072-.05.093-.255.189-.509.377-.768.558-.069.048-.078.076-.026.15.277.399.273.4.667.107.126-.094.252-.183.376-.275.061-.046.108-.108.179 0 .057.086.07.128-.027.193-.222.149-.434.316-.655.468-.096.065-.108.117-.028.206.109.123.172.35.309.366.137.015.26-.161.39-.254.161-.117.324-.225.475-.351.089-.074.117-.019.165.038.048.058.072.105-.015.165-.342.24-.678.487-1.013.736-.068.05-.103.053-.156-.019-.343-.479-.69-.957-1.041-1.434-.039-.053-.045-.082.017-.125.334-.24.667-.483.999-.725.024-.014.05-.032.075-.043ZM54.414 71.412c0 .484-.504.955-.936.873a.68.68 0 0 1-.153-.048c-.043-.021-.117-.043-.063-.111.054-.068.023-.173.16-.14a.597.597 0 0 0 .492-.09.588.588 0 0 0 .243-.437.286.286 0 0 0-.118-.297.256.256 0 0 0-.315.021c-.117.088-.228.192-.344.287a2.138 2.138 0 0 1-.269.204.433.433 0 0 1-.52-.015.487.487 0 0 1-.204-.516.975.975 0 0 1 .441-.646.478.478 0 0 1 .428-.068c.063.02.196 0 .157.13-.028.09-.069.202-.227.134s-.292.027-.388.15c-.116.146-.233.306-.141.504.01.028.027.054.048.075a.21.21 0 0 0 .077.047c.028.01.059.013.089.01a.196.196 0 0 0 .084-.029 1.63 1.63 0 0 0 .337-.264c.087-.073.169-.153.259-.219a.496.496 0 0 1 .569-.069.532.532 0 0 1 .294.514ZM29.437 66.649c0-.334.117-.547.379-.679.043-.023.117-.088.142.011.016.068.135.162-.011.223-.375.155-.28.731-.081.935a.28.28 0 0 0 .127.081.273.273 0 0 0 .278-.079.26.26 0 0 0 .062-.137c.025-.166.035-.333.029-.5a.916.916 0 0 1 .079-.435.48.48 0 0 1 .757-.136.953.953 0 0 1 .223.96.47.47 0 0 1-.235.263c-.051.024-.116.128-.174.027-.039-.076-.128-.169.035-.26.253-.142.202-.702-.06-.826-.158-.077-.305.006-.339.194-.039.225-.009.453-.031.679-.045.433-.443.652-.804.445a.68.68 0 0 1-.239-.26 1.123 1.123 0 0 1-.137-.506ZM31.764 67.737c0 .061-.052.057-.086.071-.177.074-.351.144-.531.214-.074.029-.117.052-.076.153.105.233.199.473.289.713.034.094.076.098.159.062.174-.077.351-.139.529-.219.116-.053.125.029.154.1.029.07.058.117-.048.16a74.65 74.65 0 0 0-1.627.657c-.138.059-.124-.049-.164-.111-.054-.085-.02-.117.064-.153.206-.077.409-.168.616-.242.098-.035.133-.068.085-.177a11.622 11.622 0 0 1-.283-.695c-.033-.087-.066-.104-.153-.065-.207.092-.421.167-.628.258-.1.045-.136.014-.168-.078-.031-.092-.063-.132.052-.178.544-.213 1.084-.436 1.627-.654.072-.029.193.089.189.184Zm12.639 9.085a81.081 81.081 0 0 0-.084-.981c-.007-.083-.015-.154.109-.152.094 0 .164-.012.171.126.02.393.061.786.086 1.179.019.278-.067.516-.329.644a.944.944 0 0 1-.911 0c-.218-.125-.273-.351-.298-.585-.041-.374-.065-.75-.105-1.124-.009-.1.017-.131.117-.127.099.005.161-.038.171.103.023.376.059.75.098 1.124.046.438.468.626.833.372a.324.324 0 0 0 .138-.221 1.53 1.53 0 0 0 .004-.358ZM48.139 52.231c-.298-.039-.358-.134-.274-.402a.653.653 0 0 1 .049-.134c.034-.055.043-.168.129-.138.087.031-.005.109-.007.166-.001.058-.035.085 0 .117.036.033.087-.006.127-.024.063-.032.117-.075.187-.105.147-.07.249-.151.15-.334a.115.115 0 0 1-.008-.087.112.112 0 0 1 .054-.068c.064-.05.117-.006.157.033.028.023.052.05.072.08.081.144.182.17.308.054.107-.098.163-.022.221.062.081.117-.047.117-.088.143a1.54 1.54 0 0 0-.516.515c-.313.524-.791.903-1.287 1.254a.586.586 0 0 1-.317.11c-.035 0-.077 0-.085-.042-.009-.042.017-.051.048-.064.513-.227.788-.675 1.08-1.136ZM49.198 74.004c.078.688.152 1.346.234 2.003.011.083-.013.125-.082.149-.069.023-.117.117-.206.035a391.45 391.45 0 0 0-1.527-1.323c.153-.151.269-.151.422 0 .369.362.759.702 1.152 1.061-.077-.561-.144-1.105-.234-1.646-.029-.198.119-.198.241-.279ZM32.125 58.807c.021-.524.038-1.001.06-1.478 0-.039-.03-.106.045-.117.075-.012.083.035.096.085.145.593.208 1.187.057 1.79-.033.128-.095.151-.222.158a.362.362 0 0 1-.274-.059.36.36 0 0 1-.144-.241 1.436 1.436 0 0 0-.273-.52c-.081-.101-.018-.117.056-.142a.326.326 0 0 1 .175.012.323.323 0 0 1 .142.105c.108.125.203.262.282.407ZM54.269 67.644a.338.338 0 0 1 .001-.138.352.352 0 0 1 .282-.275c.255-.075.499-.185.762-.286-.197-.199-.376-.398-.576-.573-.158-.137-.207-.277-.094-.479.251.267.512.528.753.805a.675.675 0 0 0 .44.234c.153.024.303.068.455.091.132.022.083.102.067.172-.015.071-.016.148-.129.101-.529-.221-1.018-.08-1.5.163-.143.076-.298.122-.461.185ZM55.753 69.01c0 .167-.104.242-.234.193-.445-.171-.891-.337-1.334-.514-.104-.041-.145-.023-.178.08-.039.125-.095.244-.138.367-.025.069-.043.126-.133.071-.059-.035-.155-.021-.103-.151.169-.418.328-.842.484-1.266.038-.106.096-.076.164-.052.067.025.117.049.075.139-.058.126-.092.26-.153.382-.06.121-.016.141.082.178.452.167.901.341 1.35.515.046.018.115.013.118.058ZM47.969 76.745c-.031.073-.117.07-.171.105-.054.035-.082.006-.104-.048l-.702-1.657c-.053-.126.075-.105.127-.144.082-.061.117 0 .142.063l.56 1.333.148.348ZM53.389 69.492l.096.049c.512.26 1.02.523 1.534.775.098.05.093.089.049.17-.044.081-.065.144-.182.083-.512-.27-1.029-.53-1.543-.793-.044-.022-.117-.029-.071-.11.038-.061.047-.143.117-.174ZM30.826 56.368c.244-.143.457-.125.616.07.159.196.29.393.428.596a.457.457 0 0 1 .068.182.148.148 0 0 1-.085.164c-.054.02-.066-.056-.092-.091-.264-.353-.534-.7-.935-.921ZM32.868 57.475l-.308-.787c-.027-.068-.031-.117.064-.117h.107c.396-.018.399-.017.313.379a1.686 1.686 0 0 1-.176.525ZM48.79 53.563c.178-.264.159-.535.117-.809.256.027.381.117.39.274.011.222-.2.458-.507.535Z" style="fill:#7b0203;fill-rule:nonzero" transform="translate(-57.584 -121.875) scale(3.13273)"/><path d="M38.932 52.956a.776.776 0 0 1 .411.027.289.289 0 0 1 .19.255c.008.082 0 .164-.076.205-.076.041-.107-.052-.146-.09-.124-.121-.24-.248-.379-.397ZM42.878 53.417a10.556 10.556 0 0 0-9.746 6.545 10.567 10.567 0 0 0-.795 4.045c0 5.784 4.752 10.51 10.553 10.505a10.55 10.55 0 0 0 7.448-18.01 10.546 10.546 0 0 0-7.46-3.085Zm.836 20.578a10.041 10.041 0 0 1-9.592-5.126h17.514c-1.135 2.223-3.969 4.808-7.922 5.126Zm8.133-5.982a1914.03 1914.03 0 0 0-8.966 0c-2.989.007-5.991.007-9.007 0a.272.272 0 0 1-.296-.203 10.049 10.049 0 0 1 2.878-11.574c2.171-1.78 4.663-2.537 7.455-2.277 3.88.361 7.325 3.144 8.523 6.864.756 2.348.666 4.666-.24 6.958a.312.312 0 0 1-.347.232ZM55.425 56.773c-.198-.124-.439-.182-.593-.378a.109.109 0 0 0-.067-.023 1.34 1.34 0 0 1-.351-.088c-.324-.093-.334-.117-.243-.443a.877.877 0 0 0-.267.244c-.106.117-.059.205.06.271.148.076.311.123.477.136.135.016.234.031.251.197.009.086.074.219.19.124.151-.125.225-.018.362.064-.144.02-.248.041-.351.048a4.769 4.769 0 0 1-1.457-.145c-.117-.027-.331.073-.351.173-.029.156.108.18.206.226.077.036.162.057.272.096l-.245.089c-.247.09-.241.088-.142.329.066.162.15.326.105.552-.05-.086-.079-.137-.109-.186-.161-.264-.351-.503-.636-.636-.286-.132-.384-.084-.397.241.004.365.043.728.117 1.085.043.278.234.378.494.269.154-.084.296-.188.423-.309a.537.537 0 0 1 .094.442c-.032.131.079.136.146.159.097.037.076-.068.084-.11a1.065 1.065 0 0 0-.077-.63c-.019-.043-.07-.08-.026-.144a.558.558 0 0 0 .037-.532c-.053-.156.011-.225.141-.27.108-.038.216-.068.322-.109.189-.073.199-.136.057-.275-.036-.035-.094-.061-.096-.131.169.033.33.068.493.092.328.066.667.066.996 0 .093-.023.189-.058.207-.172a.25.25 0 0 0-.024-.147.25.25 0 0 0-.102-.109ZM52.8 58.708c-.143.078-.24.048-.323-.102a1.76 1.76 0 0 1-.178-.74c.267.108.508.223.658.468.096.149.047.262-.157.374ZM52.903 72.775a1.767 1.767 0 0 0-.562-.021c.128-.222.172-.423.033-.627-.221-.322-.585-.338-.882-.032-.199.205-.387.42-.585.626-.061.063-.075.097 0 .166.427.39.849.785 1.268 1.185.082.079.123.054.18-.016.058-.07.117-.098.016-.18-.165-.138-.317-.292-.468-.441-.027-.027-.109-.051-.052-.107.157-.154.273-.378.552-.332.199.034.4.06.6.095.241.043.315.007.416-.222-.176-.032-.347-.059-.516-.094Zm-.828-.051c-.117.139-.251.271-.374.408-.044.05-.076.061-.128.008-.117-.117-.321-.223-.351-.364-.031-.14.187-.242.29-.366a.698.698 0 0 1 .285-.234.29.29 0 0 1 .276.04.294.294 0 0 1 .12.251.39.39 0 0 1-.118.257ZM35.324 72.967c-.175-.171-.364-.327-.539-.497-.068-.064-.102-.045-.155.014-.383.433-.768.864-1.159 1.287-.076.083-.052.117.017.18.161.141.315.291.479.429a.8.8 0 0 0 .654.227c.455-.065.956-.634.956-1.112.017-.207-.101-.379-.253-.528Zm-.806 1.387a.562.562 0 0 1-.389-.152c-.39-.306-.391-.305-.069-.664.198-.222.403-.44.596-.668.075-.089.117-.078.194 0 .106.106.218.205.324.309a.43.43 0 0 1 .131.312c0 .351-.437.839-.787.863ZM36.439 73.924c-.534 0-1.017.526-1.017 1.112a.942.942 0 0 0 .955.921c.512 0 .998-.538.998-1.115a.936.936 0 0 0-.936-.918Zm.194 1.697a.6.6 0 0 1-.689-.052.59.59 0 0 1-.244-.63 1.06 1.06 0 0 1 .366-.62.583.583 0 0 1 .669-.079.622.622 0 0 1 .374.6 1.012 1.012 0 0 1-.476.781Zm-3.846-5.691c-.02-.069-.066-.077-.139-.066-.654.094-1.309.183-1.976.274.056.185.127.281.333.235.415-.088.418-.075.623.301.18.33.18.33-.063.62-.169.203-.169.203 0 .453.43-.537.859-1.069 1.286-1.603.072-.09-.043-.142-.064-.214Zm-.819.887-.303-.548c.302-.07.599-.078.924-.173l-.621.721Z" style="fill:#7b0203;fill-rule:nonzero" transform="translate(-57.584 -121.875) scale(3.13273)"/><path d="M39.41 70.459c-.16.121-.33.227-.509.316-.081.038-.124.052-.126-.069a.269.269 0 0 1 .166-.294c.217-.102.401-.264.53-.468a.18.18 0 0 1 .211-.087c.099.019.053.106.053.162v2.258c0 .117-.022.169-.154.161-.11-.007-.183 0-.18-.154.015-.6.009-1.197.009-1.825ZM45.95 70.459c-.184.147-.39.266-.61.351-.045-.193-.028-.329.179-.42.202-.095.371-.248.486-.439a.181.181 0 0 1 .094-.089.18.18 0 0 1 .129-.005c.087.024.047.117.047.169v2.24c0 .125-.02.177-.163.171-.142-.006-.174-.026-.171-.167.009-.537 0-1.075 0-1.612l.009-.199ZM52.246 65.663c-.064-.082-.105-.093-.178-.013a.914.914 0 0 1-.327.217c-.81.328-1.593.321-2.325-.209a.165.165 0 0 0-.128-.051.176.176 0 0 0-.068.018.169.169 0 0 0-.054.045 1.181 1.181 0 0 1-.29.207 2.043 2.043 0 0 1-2.401-.351c-.117-.107-.166-.076-.251.01a1.775 1.775 0 0 1-.412.34 2.494 2.494 0 0 1-1.217.242c-.095 0-.1-.05-.102-.123-.029-.687-.061-1.373-.095-2.058 0-.099.055-.074.102-.074.167.009.334.007.501-.006.368-.057.604.053.666.443.017.107.084.137.193.133.329-.013.657-.012.986-.02.174 0 .351-.016.538-.025l-.203-.526h.922a.155.155 0 0 1 .164.104c.076.162.159.32.234.481.025.048.045.091.117.09h1.323c-.11-.216-.188-.381-.278-.54-.067-.117-.032-.136.087-.134.268.007.539-.006.806 0 .143.007.2-.021.192-.18-.015-.293-.01-.585 0-.879 0-.134-.024-.185-.173-.181-.484.011-.968 0-1.453.008a.232.232 0 0 1-.242-.153 995.768 995.768 0 0 0-1.91-3.706l-.621-1.201-1.066 1.835-2.204-4.403-2.54 4.759-1.942-1.763c-.029.049-.055.089-.076.131a982.662 982.662 0 0 0-1.615 3.252.238.238 0 0 1-.243.155c-.765-.007-1.53 0-2.295-.007-.143 0-.182.041-.177.181.01.286.015.574 0 .861-.01.17.046.203.205.201.597-.01 1.192 0 1.815 0-.183.371-.351.72-.535 1.082.459.035.92.047 1.38.035a.207.207 0 0 0 .216-.141c.14-.291.289-.576.436-.863.026-.05.034-.117.117-.117h1.195l-.439 1.04c.415.042.808.076 1.199.117a.22.22 0 0 0 .263-.14c.141-.296.305-.585.453-.875a.232.232 0 0 1 .244-.151c.323.01.646 0 .969 0h.404c-.258.446-.499.862-.773 1.332h.88c.091 0 .125.027.124.123v1.488c0 .083-.026.117-.104.131-.61.092-1.198.047-1.716-.318-.13-.093-.2-.088-.312 0a2.245 2.245 0 0 1-1.704.507c-.481-.039-.936-.157-1.266-.539-.053-.061-.077-.039-.125 0-.669.531-1.792.575-2.512.11-.068-.043-.117-.185-.225-.106a.45.45 0 0 0-.127.257.535.535 0 0 0 .014.351c.076.211.23.385.43.487a2.327 2.327 0 0 0 2.246.016c.099-.05.18-.174.276-.184.096-.009.15.154.249.208.031.018.059.043.089.06a2.252 2.252 0 0 0 1.554.277c.495-.077.935-.255 1.195-.726.087.081.159.161.243.226.647.491 1.834.499 2.501.013.095-.07.149-.117.224.024a.718.718 0 0 0 .257.245c.474.29 1.039.395 1.586.296.477-.071.906-.244 1.181-.686.094.173.233.317.403.415a2.305 2.305 0 0 0 2.339-.02c.117-.062.202-.226.302-.234.101-.006.19.161.306.226a2.37 2.37 0 0 0 1.649.234c.333-.05.642-.205.883-.441a.646.646 0 0 0 .066-.869Zm-6.273-5.053c.122-.084.239-.175.351-.27.069-.058.102-.057.143.027.37.746.74 1.49 1.126 2.263h-.818a.145.145 0 0 1-.099-.025.14.14 0 0 1-.057-.084 3127.1 3127.1 0 0 0-.72-1.787.127.127 0 0 1 .005-.051.103.103 0 0 1 .026-.044.113.113 0 0 1 .043-.029Zm-6.177.336c-.012.019-.018.044-.028.065-.087.168-.097.414-.249.496-.152.082-.361.016-.544.016v.011h-.468c-.087 0-.117-.012-.073-.108.199-.386.393-.774.585-1.162.041-.085.075-.085.139-.024.197.184.395.365.597.541.064.052.082.097.041.165Zm3.977-.571c0-.117-.023-.162-.147-.15-.203.02-.406.028-.609.029-.106 0-.127.044-.128.138 0 .341-.012.681-.019 1.021 0 .06.012.117-.087.117h-1.556l1.884-3.579 1.07 2.659c.107.264.21.532.321.795.036.088.043.129-.073.125h-.555c-.089.01-.102-.031-.101-.111v-1.044Zm.847 1.327c.032.075.051.117.07.168l.3.742h-.899l.529-.91ZM42.341 70.475a.833.833 0 0 0-1.26-.484.807.807 0 0 0-.305.386c-.134.369-.028.819.246 1.032.314.249.677.209 1.069-.137a1.714 1.714 0 0 1-.132.628.534.534 0 0 1-.167.207.412.412 0 0 1-.561-.013.413.413 0 0 1-.108-.173c-.065-.197-.207-.117-.301-.091-.117.028-.026.137 0 .192a.62.62 0 0 0 .498.437.84.84 0 0 0 .995-.585c.143-.454.152-.94.026-1.399Zm-.772.799a.497.497 0 0 1-.477-.329.512.512 0 0 1-.031-.202c0-.344.211-.602.5-.609.289-.007.483.234.485.568.003.335-.183.569-.477.576v-.004ZM44.463 70.376c-.125-.315-.351-.509-.702-.523a.718.718 0 0 0-.724.481 2.32 2.32 0 0 0 .013 1.696.67.67 0 0 0 .655.443.714.714 0 0 0 .702-.402c.153-.283.166-.592.17-.904a2.024 2.024 0 0 0-.114-.791Zm-.293 1.455c-.074.234-.234.37-.43.369a.448.448 0 0 1-.431-.385 2.755 2.755 0 0 1 .007-1.311c.059-.234.21-.363.404-.37.103 0 .203.035.283.099a.453.453 0 0 1 .162.252c.056.226.083.459.081.692-.002.22-.028.44-.076.654Z" style="fill:#7b0203;fill-rule:nonzero" transform="translate(-57.584 -121.875) scale(3.13273)"/></svg>