<svg xmlns="http://www.w3.org/2000/svg" width="154" height="157" fill="none"><g filter="url(#a)"><path fill="#fff" d="M13 0h128v128H13z"/><path fill="#F9C623" fill-rule="evenodd" d="M27.935 64.003c0-8.324 6.744-15.068 15.064-15.068 8.323 0 15.067 6.744 15.067 15.068 0 8.318-6.744 15.064-15.067 15.064-8.32 0-15.064-6.746-15.064-15.064Z" clip-rule="evenodd"/><path fill="#1A1919" fill-rule="evenodd" d="M32.11 53.113a15.35 15.35 0 0 0-4.508 10.89c0 4.251 1.72 8.101 4.508 10.886A15.357 15.357 0 0 0 43 79.399c4.252 0 8.1-1.724 10.889-4.51a15.346 15.346 0 0 0 4.51-10.886c0-4.255-1.725-8.1-4.51-10.89a15.352 15.352 0 0 0-10.89-4.507 15.35 15.35 0 0 0-10.89 4.507ZM27 64.003C27 55.166 34.164 48 43 48c8.835 0 16 7.166 16 16.003C59 72.837 51.835 80 43 80c-8.836 0-16-7.163-16-15.997Z" clip-rule="evenodd"/><path fill="#474926" fill-rule="evenodd" d="M32.56 53.563a14.717 14.717 0 0 0-4.327 10.44c0 4.075 1.655 7.764 4.326 10.438A14.723 14.723 0 0 0 43 78.765c4.076 0 7.768-1.654 10.44-4.324a14.716 14.716 0 0 0 4.325-10.438c0-4.078-1.652-7.77-4.326-10.44a14.712 14.712 0 0 0-10.44-4.327 14.711 14.711 0 0 0-10.438 4.327Zm-4.625 10.44c0-8.324 6.744-15.068 15.064-15.068 8.322 0 15.067 6.744 15.067 15.068 0 8.318-6.745 15.064-15.067 15.064-8.32 0-15.064-6.746-15.064-15.064Z" clip-rule="evenodd"/><path fill="#1A1919" fill-rule="evenodd" d="M32.56 53.563a14.717 14.717 0 0 0-4.327 10.44c0 4.075 1.655 7.764 4.326 10.438A14.723 14.723 0 0 0 43 78.765c4.076 0 7.768-1.654 10.44-4.324a14.716 14.716 0 0 0 4.325-10.438c0-4.078-1.652-7.77-4.326-10.44a14.712 14.712 0 0 0-10.44-4.327 14.711 14.711 0 0 0-10.438 4.327Zm-4.625 10.44c0-8.324 6.744-15.068 15.064-15.068 8.322 0 15.067 6.744 15.067 15.068 0 8.318-6.745 15.064-15.067 15.064-8.32 0-15.064-6.746-15.064-15.064Z" clip-rule="evenodd"/><path fill="#1A1919" fill-rule="evenodd" d="m29.67 68.906.688-.308.028.065a.772.772 0 0 0-.327.398.596.596 0 0 0 .003.445.383.383 0 0 0 .188.214.272.272 0 0 0 .34-.072.568.568 0 0 0 .082-.203c.014-.062.026-.199.038-.408.018-.295.061-.507.13-.637a.623.623 0 0 1 .312-.28.634.634 0 0 1 .534.016.804.804 0 0 1 .407.44c.028.069.048.132.06.196.013.065.017.149.019.254 0 .057.007.102.02.136a.19.19 0 0 0 .066.072c.034.02.076.03.127.032l.023.054-.786.332-.023-.056c.202-.138.333-.297.394-.475a.671.671 0 0 0-.002-.493.425.425 0 0 0-.211-.237.303.303 0 0 0-.387.088.503.503 0 0 0-.08.174c-.02.07-.033.188-.042.35a2.883 2.883 0 0 1-.065.51.777.777 0 0 1-.14.283.573.573 0 0 1-.238.18.606.606 0 0 1-.501-.006.701.701 0 0 1-.371-.39.945.945 0 0 1-.06-.208 1.207 1.207 0 0 1-.007-.207.45.45 0 0 0-.013-.167.093.093 0 0 0-.051-.053.298.298 0 0 0-.135.007l-.02-.046ZM29.164 66.49c.037.202.169.338.394.407.186.055.437.053.755-.004.378-.066.645-.183.803-.349a.464.464 0 0 0 .12-.421.482.482 0 0 0-.132-.267.687.687 0 0 0-.376-.162 1.816 1.816 0 0 0-.612.026c-.293.053-.508.118-.643.2a.628.628 0 0 0-.27.262.492.492 0 0 0-.039.309Zm-.103.04c-.076-.352-.025-.657.154-.918.18-.26.435-.419.765-.478.281-.05.544-.014.787.114.323.166.52.45.592.846.071.4-.01.733-.241.999-.182.21-.42.343-.714.396a1.136 1.136 0 0 1-.885-.189 1.084 1.084 0 0 1-.458-.77ZM28.82 64.239l.075-1.162.06.004-.003.058a.384.384 0 0 0 .016.18c.016.034.04.058.07.076a.901.901 0 0 0 .24.035l1.104.07c.202.012.337.006.404-.019a.38.38 0 0 0 .172-.139.48.48 0 0 0 .081-.258.546.546 0 0 0-.062-.313.494.494 0 0 0-.215-.206c-.094-.049-.26-.082-.5-.095l-.92-.06a.594.594 0 0 0-.218.017.186.186 0 0 0-.093.074.446.446 0 0 0-.052.204l-.06-.004.049-.78.06.005-.003.046a.308.308 0 0 0 .028.16.206.206 0 0 0 .11.097c.033.017.097.03.188.035l.856.055c.266.016.456.046.57.087a.647.647 0 0 1 .309.276c.09.14.128.328.114.561-.013.193-.05.343-.108.446a.651.651 0 0 1-.293.29.944.944 0 0 1-.452.061l-1.104-.071a.78.78 0 0 0-.243.007.168.168 0 0 0-.08.07.497.497 0 0 0-.04.196l-.06-.004ZM29.753 58.954l.586.176-.016.057a1.012 1.012 0 0 0-.326.027.446.446 0 0 0-.191.129.552.552 0 0 0-.094.204l-.048.162 1.669.502a.79.79 0 0 0 .214.044.171.171 0 0 0 .095-.049.297.297 0 0 0 .075-.134l.02-.07.058.016-.338 1.125-.057-.017.02-.071a.31.31 0 0 0 .013-.162.168.168 0 0 0-.058-.087.692.692 0 0 0-.198-.079l-1.669-.5-.05.16c-.043.15-.044.264-.003.349a.658.658 0 0 0 .316.288l-.018.057-.587-.176.587-1.951ZM31.602 57.814l.604.352a.75.75 0 0 0 .199.094.179.179 0 0 0 .103-.026.294.294 0 0 0 .103-.113l.037-.064.052.03-.592 1.015-.052-.03.039-.066a.313.313 0 0 0 .048-.152.155.155 0 0 0-.037-.097.654.654 0 0 0-.173-.124l-1.284-.75a.697.697 0 0 0-.197-.094.17.17 0 0 0-.103.025.287.287 0 0 0-.104.113l-.038.065-.051-.03.592-1.015.052.03-.038.065a.301.301 0 0 0-.048.153.16.16 0 0 0 .035.099.711.711 0 0 0 .175.122l.551.324.405-.694-.553-.322a.732.732 0 0 0-.197-.095.154.154 0 0 0-.102.026.299.299 0 0 0-.106.113l-.037.063-.052-.03.594-1.014.05.03-.036.064a.297.297 0 0 0-.049.153.166.166 0 0 0 .035.1.783.783 0 0 0 .174.123l1.283.748c.101.06.166.091.198.096a.178.178 0 0 0 .104-.027.305.305 0 0 0 .103-.113l.038-.063.051.03-.592 1.014-.052-.03.037-.064a.296.296 0 0 0 .049-.153.164.164 0 0 0-.036-.1.684.684 0 0 0-.173-.122l-.604-.354-.405.695ZM32.736 54.472l.662.635.031-.032c.1-.105.138-.21.118-.32-.02-.11-.09-.23-.203-.366l.041-.042.857.819-.042.043a.894.894 0 0 0-.287-.158.373.373 0 0 0-.222-.007.56.56 0 0 0-.202.15l.46.44c.09.086.15.136.176.147a.138.138 0 0 0 .092.004.278.278 0 0 0 .115-.081l.094-.098c.145-.151.227-.308.243-.467.019-.16-.026-.328-.133-.505l.044-.045.448.57-1.346 1.406-.044-.041.052-.056a.294.294 0 0 0 .083-.137.143.143 0 0 0-.012-.104.712.712 0 0 0-.141-.16l-1.073-1.026a1.325 1.325 0 0 0-.143-.125.16.16 0 0 0-.11-.018.271.271 0 0 0-.151.09l-.053.055-.042-.04 1.302-1.363.481.461-.04.043c-.14-.088-.256-.136-.348-.143a.512.512 0 0 0-.284.072c-.058.031-.147.11-.265.233l-.158.166ZM36.173 53.35l-.697-.46.135.83.562-.37Zm.115.074-.657.43.04.242a.51.51 0 0 0 .062.179c.036.054.082.08.143.077a.605.605 0 0 0 .207-.087l.032.05-.627.412-.032-.05a.327.327 0 0 0 .11-.197 1.363 1.363 0 0 0-.028-.394l-.316-1.947.026-.019 1.694 1.106c.162.105.277.165.344.176.051.01.108-.003.168-.036l.033.048-.913.6-.032-.05.039-.024c.072-.049.116-.093.132-.133a.088.088 0 0 0-.012-.085.186.186 0 0 0-.043-.048 2.044 2.044 0 0 0-.11-.078l-.26-.172ZM38.525 50.523l.286.697-.066.024a.774.774 0 0 0-.388-.34.609.609 0 0 0-.446-.012.397.397 0 0 0-.22.181.28.28 0 0 0-.017.233.242.242 0 0 0 .08.11.571.571 0 0 0 .2.09c.062.015.196.032.408.051.292.026.503.077.63.151s.218.181.27.319a.643.643 0 0 1-.032.533.813.813 0 0 1-.454.394 1.068 1.068 0 0 1-.199.053c-.064.009-.148.012-.253.009a.397.397 0 0 0-.135.017.163.163 0 0 0-.075.065.225.225 0 0 0-.036.123l-.056.023-.307-.795.056-.022c.132.205.286.342.462.41.178.066.343.07.494.013a.434.434 0 0 0 .244-.203.307.307 0 0 0 .02-.262.302.302 0 0 0-.096-.128.445.445 0 0 0-.172-.086 1.92 1.92 0 0 0-.349-.055 2.562 2.562 0 0 1-.506-.081.77.77 0 0 1-.28-.147.566.566 0 0 1-.17-.243.607.607 0 0 1 .02-.501.703.703 0 0 1 .404-.359.897.897 0 0 1 .209-.054c.055-.005.124-.005.207 0a.47.47 0 0 0 .167-.007.09.09 0 0 0 .055-.05c.01-.023.01-.068-.001-.135l.046-.016ZM41.727 49.886l.099.604-.06.01a1.014 1.014 0 0 0-.165-.281.467.467 0 0 0-.2-.116.553.553 0 0 0-.224.006l-.168.026.28 1.72a.764.764 0 0 0 .053.214.187.187 0 0 0 .085.063.29.29 0 0 0 .154.008l.073-.011.009.059-1.16.188-.008-.06.072-.012a.294.294 0 0 0 .15-.06.15.15 0 0 0 .053-.09.635.635 0 0 0-.015-.212l-.28-1.72-.166.027c-.151.025-.255.074-.315.149a.645.645 0 0 0-.121.408l-.06.01-.097-.604 2.011-.326ZM44.254 49.874l1.147.196-.01.059-.059-.01a.379.379 0 0 0-.18-.002.145.145 0 0 0-.08.062.732.732 0 0 0-.062.234l-.186 1.091c-.034.2-.04.335-.023.403.019.07.059.132.12.187.06.055.144.09.248.108.12.02.226.01.32-.029a.509.509 0 0 0 .225-.193c.058-.088.108-.251.148-.487l.155-.909a.56.56 0 0 0 .005-.218.193.193 0 0 0-.063-.102.477.477 0 0 0-.197-.072l.01-.059.77.131-.01.059-.046-.008a.298.298 0 0 0-.161.011.217.217 0 0 0-.11.098.55.55 0 0 0-.053.185l-.143.846c-.045.262-.094.448-.149.559a.64.64 0 0 1-.306.276c-.15.076-.34.094-.57.054-.193-.032-.337-.084-.432-.153a.668.668 0 0 1-.258-.321.94.94 0 0 1-.013-.457l.186-1.09a.7.7 0 0 0 .017-.243.151.151 0 0 0-.06-.087.462.462 0 0 0-.19-.06l.01-.059ZM48.076 50.8l.495 1.714.369-.887c.052-.126.07-.218.052-.278-.024-.08-.095-.143-.213-.19l.025-.055.69.287-.023.055a.6.6 0 0 0-.195-.03.184.184 0 0 0-.107.061.628.628 0 0 0-.114.199l-.722 1.734-.054-.022-.689-2.329-.556 1.337c-.05.117-.056.21-.017.274a.33.33 0 0 0 .163.14l.05.023-.023.054-.741-.308.023-.055c.116.047.205.056.27.03.063-.028.118-.095.164-.205l.613-1.472-.023-.078a.425.425 0 0 0-.07-.162.334.334 0 0 0-.133-.09l.023-.057.743.31ZM49.968 54.294l-.034.05-.984-.637.033-.05.062.04a.293.293 0 0 0 .15.055.139.139 0 0 0 .1-.032.631.631 0 0 0 .132-.166l.807-1.248a.753.753 0 0 0 .104-.192.172.172 0 0 0-.02-.105.282.282 0 0 0-.11-.109l-.062-.041.034-.05.985.638-.033.05-.062-.04a.3.3 0 0 0-.152-.056.16.16 0 0 0-.1.03.71.71 0 0 0-.13.17l-.809 1.246a.704.704 0 0 0-.101.194.164.164 0 0 0 .02.104.285.285 0 0 0 .108.11l.062.039ZM53.55 54.517l-.042.045a.366.366 0 0 0-.25-.055c-.073.008-.211.056-.42.144l-1.747.728-.04-.04.668-1.835c.082-.222.123-.358.126-.407.003-.05-.024-.108-.08-.175l.04-.043.787.737-.041.046-.027-.025c-.072-.067-.129-.104-.171-.11a.08.08 0 0 0-.079.027.231.231 0 0 0-.04.061c-.01.026-.04.1-.085.225l-.418 1.145 1.007-.423c.124-.053.204-.09.241-.113a.333.333 0 0 0 .086-.063.145.145 0 0 0 .04-.083.149.149 0 0 0-.016-.095.519.519 0 0 0-.119-.151l.042-.045.538.505ZM54.445 55.926l-.757.518.024.038c.082.118.177.179.288.18a.835.835 0 0 0 .4-.122l.034.048-.978.67-.035-.049c.1-.085.171-.167.215-.248a.373.373 0 0 0 .052-.218.578.578 0 0 0-.104-.227l-.526.36a.905.905 0 0 0-.18.141.128.128 0 0 0-.023.088c0 .034.02.077.055.13l.078.112c.118.172.253.285.406.334.151.051.326.042.523-.025l.035.05-.65.322-1.1-1.607.049-.033.043.061a.298.298 0 0 0 .118.11c.029.015.064.018.105.01a.768.768 0 0 0 .184-.105l1.226-.84c.085-.058.136-.096.151-.113a.164.164 0 0 0 .042-.102.28.28 0 0 0-.06-.169l-.042-.06.05-.035 1.064 1.554-.55.378-.032-.051c.114-.119.186-.221.21-.31a.522.522 0 0 0-.011-.293 1.394 1.394 0 0 0-.175-.307l-.13-.19ZM55.88 58.473l-.908.365.036.088c.06.145.115.248.17.309.054.062.125.1.208.112a.545.545 0 0 0 .29-.044c.157-.064.26-.148.304-.254.045-.105.035-.242-.033-.41l-.067-.166Zm-1.024.412-.592.238a.663.663 0 0 0-.206.108.161.161 0 0 0-.04.102.523.523 0 0 0 .055.208l-.057.023-.434-1.079.056-.023c.04.097.076.16.107.188a.184.184 0 0 0 .1.047.697.697 0 0 0 .22-.065l1.369-.55a.683.683 0 0 0 .205-.108.156.156 0 0 0 .039-.102.524.524 0 0 0-.054-.209l.056-.022.393.974c.102.253.16.446.17.578a.614.614 0 0 1-.077.366.562.562 0 0 1-.287.245.532.532 0 0 1-.451-.011.737.737 0 0 1-.264-.238l-.507.785a1.253 1.253 0 0 0-.118.21.275.275 0 0 0 .007.167l-.056.023-.263-.654.685-1.063-.056-.138ZM57.074 62.11l-.738.151-.013-.07a.773.773 0 0 0 .406-.317.604.604 0 0 0 .096-.436.394.394 0 0 0-.137-.25.283.283 0 0 0-.223-.062.266.266 0 0 0-.126.06.577.577 0 0 0-.124.18c-.026.057-.07.188-.127.39-.08.283-.169.48-.266.591a.638.638 0 0 1-.883.074.807.807 0 0 1-.3-.52.967.967 0 0 1-.016-.203c.004-.066.016-.15.039-.252a.378.378 0 0 0 .008-.137.153.153 0 0 0-.049-.084.256.256 0 0 0-.116-.06l-.01-.057.838-.152.011.058c-.228.092-.39.217-.488.379-.1.16-.136.32-.105.481a.428.428 0 0 0 .152.277.308.308 0 0 0 .397 0 .507.507 0 0 0 .119-.153c.033-.066.072-.176.117-.334.062-.22.12-.38.175-.481a.79.79 0 0 1 .196-.248.584.584 0 0 1 .273-.123.613.613 0 0 1 .488.116.7.7 0 0 1 .276.463.82.82 0 0 1 .012.216 1.026 1.026 0 0 1-.038.202.452.452 0 0 0-.023.167c.005.028.016.05.04.062.018.014.062.021.13.024l.009.049ZM54.943 64.305h-.06l-.027-1.174.061-.001.002.074c0 .066.014.118.038.158a.16.16 0 0 0 .082.063c.028.011.098.017.212.015l1.486-.035a.782.782 0 0 0 .218-.023.173.173 0 0 0 .075-.075.288.288 0 0 0 .028-.152v-.074l.06-.002.027 1.175-.06.002-.002-.075a.3.3 0 0 0-.04-.156.153.153 0 0 0-.08-.066.723.723 0 0 0-.214-.012l-1.486.032a.704.704 0 0 0-.217.026.15.15 0 0 0-.074.074.31.31 0 0 0-.03.15l.001.076ZM56.828 67.107l-.604-.09.01-.058a.953.953 0 0 0 .316-.073.464.464 0 0 0 .174-.155.624.624 0 0 0 .062-.215l.024-.166-1.723-.259a.716.716 0 0 0-.218-.013.172.172 0 0 0-.088.061.304.304 0 0 0-.054.144l-.011.073-.06-.008.175-1.162.058.01-.01.073a.289.289 0 0 0 .012.16c.01.03.034.056.069.079a.688.688 0 0 0 .207.048l1.722.258.026-.167c.023-.153.006-.267-.046-.345a.64.64 0 0 0-.353-.24l.01-.06.605.092-.303 2.013ZM55.767 70.188l-.056-.022a.34.34 0 0 0 .001-.183c-.024-.068-.111-.196-.264-.384l-.59-.752-.507-.196a.793.793 0 0 0-.211-.062.18.18 0 0 0-.097.04.287.287 0 0 0-.082.123l-.045.117-.056-.02.452-1.178.057.022-.043.109a.294.294 0 0 0-.023.16.156.156 0 0 0 .052.091c.02.021.083.053.191.094l.42.162 1.097-.145c.217-.03.348-.06.396-.089a.27.27 0 0 0 .111-.142l.057.022-.388 1.008-.056-.021.017-.046c.023-.061.032-.107.023-.138-.01-.03-.024-.051-.044-.058-.038-.015-.149-.01-.334.013l-.84.113.486.627c.122.154.207.24.258.261.03.01.059.006.087-.013.04-.024.08-.084.121-.176l.058.022-.248.641Z" clip-rule="evenodd"/><path fill="#4D7236" fill-rule="evenodd" d="m43.21 75.4-.211.36-.21-.36-.175-.307-8.832-15.295H52.22l-8.832 15.295-.177.307Z" clip-rule="evenodd"/><path fill="#F9C623" fill-rule="evenodd" d="M47.973 65.298v-1.043h-1.044s-.114-.861-1.026-1.753c-.91-.89-2.09-.948-2.09-.948v-.483h.198v-.08s-.141-.108-.399-.205c-.259-.096-.529-.137-.529-.137v-.765h-.166v.765s-.274.041-.529.137a1.64 1.64 0 0 0-.397.205v.08h.194v.483s-1.249.17-2.09.948c-.843.78-1.026 1.753-1.026 1.753h-1.044v1.043H36.55l3.035 5.245.326-.018h6.176l.166-.01.223-.135 2.921-5.082h-1.425Z" clip-rule="evenodd"/><path stroke="#1A1919" stroke-width=".834" d="M47.973 65.298v-1.043h-1.044s-.114-.861-1.026-1.753c-.91-.89-2.09-.948-2.09-.948v-.483h.198v-.08s-.141-.108-.399-.205c-.259-.096-.529-.137-.529-.137v-.765h-.166v.765s-.274.041-.529.137a1.64 1.64 0 0 0-.397.205v.08h.194v.483s-1.249.17-2.09.948c-.843.78-1.026 1.753-1.026 1.753h-1.044v1.043H36.55l3.035 5.245.326-.018h6.176l.166-.01.223-.135 2.921-5.082h-1.425Z" clip-rule="evenodd"/><path fill="#FFFFFE" fill-rule="evenodd" d="m44.072 75.049 9.033-15.643c.637 1.4.996 2.958.996 4.597 0 3.065-1.244 5.837-3.254 7.846a11.042 11.042 0 0 1-6.775 3.2Zm-8.922-3.2a11.06 11.06 0 0 1-3.25-7.846c0-1.64.356-3.197.996-4.596l9.032 15.642a11.061 11.061 0 0 1-6.778-3.2Zm0-15.7a11.082 11.082 0 0 1 7.849-3.249 11.07 11.07 0 0 1 7.848 3.25 11.119 11.119 0 0 1 2.163 3.046H32.989a11.165 11.165 0 0 1 2.16-3.046Z" clip-rule="evenodd"/><path fill="#1A1919" fill-rule="evenodd" d="M33.426 68.19h-.18v-1.15a1.165 1.165 0 0 1-.36.217v-.174c.1-.047.188-.105.263-.172a.669.669 0 0 0 .16-.197h.117v1.475ZM34.551 67.2a.356.356 0 0 0-.083-.246.26.26 0 0 0-.199-.09c-.08 0-.15.032-.21.097a.365.365 0 0 0-.088.255c0 .093.028.17.084.228a.279.279 0 0 0 .21.088c.083 0 .151-.03.205-.088a.347.347 0 0 0 .081-.243Zm-.739.65.174-.017c.014.082.042.141.084.178a.23.23 0 0 0 .16.055.279.279 0 0 0 .145-.038.308.308 0 0 0 .103-.102.626.626 0 0 0 .067-.172.916.916 0 0 0 .027-.22v-.036a.418.418 0 0 1-.352.193.412.412 0 0 1-.309-.132.486.486 0 0 1-.126-.349.5.5 0 0 1 .132-.36.443.443 0 0 1 .33-.136.477.477 0 0 1 .443.297c.04.095.061.233.061.413 0 .188-.02.338-.06.45a.525.525 0 0 1-.183.253.47.47 0 0 1-.283.087.411.411 0 0 1-.281-.096.413.413 0 0 1-.132-.268ZM35.01 67.465c0 .24.028.401.084.481.057.08.127.12.21.12.082 0 .152-.04.208-.12.057-.08.085-.241.085-.481 0-.242-.028-.403-.085-.482-.056-.08-.127-.12-.21-.12a.231.231 0 0 0-.2.106c-.062.09-.093.255-.093.496Zm-.186 0c0-.174.018-.314.054-.42a.52.52 0 0 1 .16-.245.409.409 0 0 1 .265-.086.398.398 0 0 1 .355.185c.039.06.069.133.091.218.022.086.034.202.034.348 0 .172-.019.311-.054.417a.518.518 0 0 1-.159.246.41.41 0 0 1-.267.086.403.403 0 0 1-.334-.152c-.096-.122-.145-.321-.145-.597ZM36.811 68.016v.173h-.971a.316.316 0 0 1 .021-.124.67.67 0 0 1 .119-.196c.055-.065.133-.138.236-.223.16-.131.267-.235.324-.311a.374.374 0 0 0 .084-.217.245.245 0 0 0-.077-.181.276.276 0 0 0-.2-.073.283.283 0 0 0-.208.077.294.294 0 0 0-.079.217l-.186-.019a.459.459 0 0 1 .143-.316.494.494 0 0 1 .334-.11c.141 0 .253.04.335.118a.386.386 0 0 1 .124.291.44.44 0 0 1-.037.173.677.677 0 0 1-.12.18 2.88 2.88 0 0 1-.278.258c-.108.09-.178.153-.208.185a.58.58 0 0 0-.076.098h.72ZM49.8 67.82h.184l-.001-.144h-.172c-.06 0-.124.003-.193.01.002-.02.002-.036.004-.046a.412.412 0 0 0 .003-.024.453.453 0 0 0-.007-.064c.07.006.134.01.192.01h.04l-.01-.04a.736.736 0 0 0-.023-.052.397.397 0 0 0-.05-.079l-.043-.048a.42.42 0 0 0 .153-.063l.14.255a.507.507 0 0 0-.103.026h.195c.023-.04.045-.084.066-.13.02-.046.034-.075.04-.086l.025-.068c.05.035.1.06.148.074l-.052.077a2.77 2.77 0 0 0-.083.133h.052c.056 0 .116-.003.18-.009a.72.72 0 0 0-.008.042.126.126 0 0 0-.001.023l.008.068a1.883 1.883 0 0 0-.18-.009h-.175v.144h.164c.086 0 .17-.003.256-.01l-.008.047a.103.103 0 0 0 0 .027l.008.077a3.306 3.306 0 0 0-.26-.011h-.16v.146l.001.099.008.096-.083-.006-.027.002-.055.004a2.19 2.19 0 0 0 .01-.195v-.146H49.8c-.084 0-.166.004-.246.01l.005-.049v-.055l-.005-.046c.08.007.161.01.246.01Zm-.533-.85.004-.057.001-.032c-.002-.015-.003-.046-.005-.091.238.009.374.013.407.013h.314l.004-.05v-.05l-.006-.152.092.008c.01 0 .04-.002.094-.008l-.008.137-.004.06-.002.055h.342c.026 0 .163-.004.41-.013a1.742 1.742 0 0 0-.008.056v.033l.008.09a8.341 8.341 0 0 0-.41-.012h-.345l-.008.171h.438c.038 0 .1-.004.186-.01a7.535 7.535 0 0 1-.011.194v.862a.171.171 0 0 1-.025.099.13.13 0 0 1-.074.05 3.6 3.6 0 0 1-.229.05l-.008-.057a.347.347 0 0 0-.019-.064.502.502 0 0 0-.074-.115c.086.019.152.029.198.031.03.003.05-.003.056-.016a.129.129 0 0 0 .01-.057v-.837h-1.084v.817c0 .078 0 .123.002.135l.01.13a.956.956 0 0 0-.17 0l.01-.128.002-.14v-.767c0-.038-.001-.071-.004-.1l-.008-.087c.09.007.158.01.2.01h.43l.005-.171h-.311c-.103 0-.24.004-.41.012ZM52.242 67.887a.687.687 0 0 0 .137-.096l.407.31a2.035 2.035 0 0 0-.152.134l-.027-.033a2.118 2.118 0 0 0-.318-.28l-.047-.035Zm-.673-.348h.845v-.266h-.846v.266Zm-.176.141c0-.031.003-.06.006-.09a.687.687 0 0 0 .005-.062v-.26l-.006-.087-.005-.073c.095.007.168.01.216.01h.764c.052 0 .119-.003.2-.01a3.865 3.865 0 0 0-.013.16v.26c0 .039.002.071.006.096l.007.056a2.746 2.746 0 0 1-.118-.007 1.374 1.374 0 0 0-.08-.004h-.3v.51a.182.182 0 0 1-.015.083.13.13 0 0 1-.061.047c-.031.013-.106.03-.223.046a.73.73 0 0 0-.036-.109l-.04-.072.042.005c.088.013.138.007.15-.018a.224.224 0 0 0 .019-.098v-.394h-.3c-.023 0-.096.004-.218.011Zm-.263-.885c.13.01.213.015.248.015h.538l-.018-.06-.07-.154c.07 0 .137-.007.201-.021l.065.235h.486c.037 0 .123-.005.256-.015a.672.672 0 0 0-.006.063l-.002.035c0 .01.002.038.008.086a4.7 4.7 0 0 0-.255-.015h-1.203c-.037 0-.12.005-.248.015a2.323 2.323 0 0 0 .006-.087l-.006-.097Zm.033 1.312c.14-.08.265-.183.372-.309l.032-.036c.057.043.104.076.142.1l-.05.036a1.4 1.4 0 0 0-.1.09c-.05.048-.103.095-.16.142l-.11.09-.026.023a.871.871 0 0 0-.05-.055l-.085-.06.035-.02Z" clip-rule="evenodd"/><path fill="#F9C623" fill-rule="evenodd" d="M47.973 65.298v-1.043h-1.044s-.114-.861-1.026-1.753c-.91-.89-2.09-.948-2.09-.948v-.483h.198v-.08s-.141-.108-.399-.205c-.259-.096-.529-.137-.529-.137v-.765h-.166v.765s-.274.041-.529.137a1.64 1.64 0 0 0-.397.205v.08h.194v.483s-1.249.17-2.09.948c-.843.78-1.026 1.753-1.026 1.753h-1.044v1.043H36.55l3.107 5.351.087-.134.076.131.091-.064h6.176l.091.064.075-.13.105-.181 3.09-5.037h-1.476Z" clip-rule="evenodd"/><path fill="#1A1919" fill-rule="evenodd" d="M33.324 72.727a.351.351 0 0 1 .172-.081.301.301 0 0 1 .133-.003.356.356 0 0 1 .21.102.257.257 0 0 1 .033.037c.017.02.03.044.046.068a.544.544 0 0 1 .03.085.76.76 0 0 1 .01.102.248.248 0 0 1-.017.109.782.782 0 0 1-.05.097.376.376 0 0 1-.312.167.619.619 0 0 1-.091-.008.292.292 0 0 1-.09-.03.532.532 0 0 1-.127-.1.296.296 0 0 1-.045-.068.554.554 0 0 1-.034-.09.339.339 0 0 1-.01-.12.408.408 0 0 1 .082-.207.405.405 0 0 1 .06-.06ZM52.15 73.356a.392.392 0 0 1-.134-.385c.006-.025.014-.046.022-.069.008-.019.02-.038.029-.053l.027-.042a.755.755 0 0 1 .06-.056.339.339 0 0 1 .076-.05c.03-.01.062-.021.099-.03a.276.276 0 0 1 .11-.003c.037.01.072.017.105.03a.32.32 0 0 1 .1.06.353.353 0 0 1 .086.107.48.48 0 0 1 .04.106c.006.03.01.06.01.088a.28.28 0 0 1-.013.094.635.635 0 0 1-.031.084c-.01.023-.026.043-.039.06a.313.313 0 0 1-.06.059.396.396 0 0 1-.08.051.286.286 0 0 1-.118.033.58.58 0 0 1-.123-.003.383.383 0 0 1-.094-.032c-.028-.018-.052-.032-.073-.049ZM44.702 57.51c.148.029.38.202.513.356a.652.652 0 0 1 .18.406c.015.138-.042.114-.072.114-.065-.026-.228-.052-.306-.11-.177-.127-.164-.513-.332-.668-.034-.03-.03-.105.017-.098ZM48.294 56.111c-.007.036-.007.076-.018.08-.044.017-.077.032-.091.004-.014-.026 0-.082.008-.13.005-.028-.008-.058 0-.082.014-.054.048-.076.048-.076.018-.007.087-.018.087-.018s.024.035.028.063c0 .047-.05.107-.062.16Zm-.077.289c-.001.041.003.089-.038.1l-.08.012a.56.56 0 0 1-.16-.008c-.051-.012-.073-.045-.08-.092-.014-.059.032-.152.053-.251.014-.056 0-.105.014-.171l.026-.034h.042l.03.034c.027.089-.017.197.017.282.03.069.08.02.16.044.016-.005.047.042.016.084Zm.742.052c-.05-.018-.101-.045-.142-.053-.06-.014-.145.02-.236.042-.06.014-.118.009-.18.026 0 0-.003-.058 0-.085.03-.164.064-.403.147-.652a.56.56 0 0 0-.008-.407c-.03-.071-.117-.122-.202-.129-.09-.006-.21.034-.377.144-.044.026-.057.057-.07.078-.041.048-.02.06.047.048.056-.013.13-.058.2-.08a.194.194 0 0 1 .094-.01s.044.013.07.055a.483.483 0 0 1 .05.207c.004.061.012.115-.043.134-.102.032-.13.01-.2.024-.012 0-.102.057-.142.053-.021-.006-.029-.07-.068-.129-.02-.035-.069-.032-.069-.032.004-.065.036-.112.047-.173.009-.04-.018-.038-.018-.038-.077.05-.117.116-.159.15-.018.011-.04.011-.062.011-.008-.04-.003-.09.001-.155.013-.12.037-.259.037-.259l.117-.08.133-.073c.05-.048.152-.027.204-.053.049-.028.035-.101.049-.154-.018-.056-.079-.06-.12-.05-.113.04-.233.168-.288.154-.021-.005-.026-.09-.048-.137-.025-.036-.067-.036-.098-.05a.286.286 0 0 1-.059.022c-.027.097-.04.404-.04.912 0 .023.036.081.055.081a.193.193 0 0 0 .058.008s.086.014.094.026c.03.067.034.185.038.26.004.09-.107.274-.107.274s-.068.016-.072-.043c-.01-.067-.003-.2-.013-.272-.006-.038 0-.136-.008-.175-.01-.025-.03-.01-.032-.004a1.558 1.558 0 0 0-.027.288c-.008.105-.02.19-.02.19.003.065.02.23.024.258l-.083.031-.073-.006c-.051-.43-.065-.81-.126-1.181h-.047l-.083.079c-.012.037-.042.32-.042.32-.01.14.087.53.097.652-.005 0 0 .173 0 .173l-.035.01h-.034l-.077-.03c-.031-.202-.018-.593-.11-.764-.017-.033-.099-.16-.152-.179-.027-.012-.053.076-.053.076.01.087.037.115.053.21.029.226.053.477.069.684.006.024.03.04.036.066.061.012.124.015.181.034.045.015.076.047.123.05.043.006.11-.025.11-.025l.058-.07a.551.551 0 0 1 .214-.025c.044.048.092.061.119.058.032-.007.062-.073.127-.115 0 0 .059-.034.146-.038.054-.002.105.035.168.049.093.019.185.019.174.019.09 0 .084-.06.12-.078.044-.028.113-.038.24-.045.375-.025-.64.56-.303.504.175-.03.176-.067.276-.11.11-.051.158-.092.23-.138.033-.021.11-.029.154-.055 0 0 .018-.053.038-.088.023-.045.061-.096.07-.122 0-.083-.07-.07-.142-.098ZM47.646 58.673s-.14.071-.251-.062c-.11-.136-.087-.22-.087-.22.017-.085.052-.128.148-.18a.493.493 0 0 1 .232-.061c.06-.003.158-.023.184.037.022.237-.038.335-.226.486Zm1.144-.481c-.023-.045-.122-.107-.15-.16-.048-.042-.08-.061-.156-.047-.055-.005-.132.032-.252.016-.044.004-.103-.016-.103-.016 0-.128-.02-.172-.09-.234-.04-.019-.094-.004-.094-.004a.113.113 0 0 1-.068-.008l-.005-.063c.092-.128.139-.228.255-.336-.005 0 .095-.058.105-.073.045-.038.01-.1 0-.155-.063 0-.135.007-.217-.005-.063-.01-.14-.04-.195-.027-.075.017-.138.127-.241.17l-.018.016-.102.082s-.007.058.057.058c.063 0 .184-.044.265-.055a.14.14 0 0 1 .092.02c-.04.078-.077.177-.119.236-.031.05-.068.063-.072.112-.006.045.053.09.077.146.012.026.043.09.039.115l-.035.012c-.068.024-.167.006-.245.033-.15.047-.256.143-.295.257-.03.08-.002.176.008.244.031.076.074.16.118.187 0 0 .045.031.143.048.097.021.208 0 .208 0 .233-.063.37-.318.442-.611l.119-.004a.688.688 0 0 1 .287.046c.068.012.134.106.242.106 0 0 .02-.054 0-.106ZM39.775 56.94c.002.008.049-.03.08.022.043.04.089.13.105.141-.046.332.012.552.053.797 0 .007-.024.1-.024.1s.01.062-.081.036l-.088-.108c-.29-.256-.062-.573-.045-.989ZM46.313 56.757s.044-.075.07-.054a.47.47 0 0 1 .098.153c.097.372-.138.492-.296.616.01.008-.131.04-.104-.155.02-.124.2-.305.232-.56ZM43.093 56.644c.01-.002.06-.016.089.007.01.012.006.03.022.048.019.029.042.044.04.06-.005.022-.038.013-.071.01-.095-.012-.148-.118-.08-.125ZM38.092 56.94c-.113.06-.323.154-.302.114l.002-.218s.208-.02.265-.042c0-.009.04-.055.026-.108-.014-.044-.064-.067-.059-.067-.052-.026-.249.02-.249.02l-.006-.209c.112-.03.363-.126.48-.114.093.003.268-.015.277.03.03.129-.384.57-.434.595Zm-.6.225-.228.04s-.187.042-.252.038c0 0-.044-.134-.046-.158 0-.047-.02-.088.026-.122.046-.037.146-.05.26-.058.116-.004.24-.016.24-.016v.276Zm1.488-.828c-.015-.056-.04-.066-.06-.168-.021-.103-.137-.17-.222-.14-.175.063-.856.158-.856.158v-.162s.18-.061.227-.125c.003 0 .014-.088-.021-.138-.024-.039-.098-.034-.108-.07-.068-.244-.002-.44-.032-.54-.046-.148-.22-.158-.293-.172-.197-.035-.27.09-.211.226.002.03.07.127.07.127l.008.39s-.029.009-.145.034c-.1.022-.29.06-.299.084 0 0-.022.065.008.108.025.041.1.061.11.063.092.026.329.025.329.025v.215c-.231.045-.626.08-.7.128-.012.216.697.11.697.11v.22s-.395.093-.57.12c-.008 0-.233-.129-.27-.13-.133-.012-.117.06-.117.06.08.201.163.398.228.629.033.02.117.034.19.026.095-.005.192-.046.278-.066.142-.026.253-.035.253-.035v.188s-.16.117-.205.174c-.188.242-.372.39-.604.575-.028.023-.105.087-.083.11.074 0 .152-.01.222-.027.078-.014.232-.137.292-.184.111-.089.272-.322.381-.402l.008.192c-.014.324.014.498-.008.508-.04.037-.16.01-.38.01l-.01.068c.134.076.196.127.321.18l.055.084c.04.037.201.014.233-.056.016-.128-.027-1.076 0-1.119.042-.08.146-.246.155-.256.062-.058.15-.112.218-.155.057-.029.221-.23.346-.333.176-.147.345-.267.522-.394.013-.007.025-.033.037-.04 0 0 .01-.076.006-.1ZM40.693 55.463s.04-.06.074-.056c.08.025.191.093.2.122 0 .007-.009.066-.037.093-.012.072-.002.153-.006.196 0 0 .213-.018.282-.04.078-.024.132-.054.231-.084-.004 0 .046.02.046.056 0 .04-.048.087-.048.093a4.04 4.04 0 0 1-.555.183c-.013.006-.128.41-.245.702-.048.127-.136.211-.163.276-.01.028.024.043.018.05.003-.004.162-.058.162-.058.034-.014.164-.1.176-.095.033.008-.131.201-.216.283-.025.03-.017.103-.017.103a.579.579 0 0 0 .165-.02l.048-.112c.039-.051.195-.153.215-.211.018-.065-.056-.207-.056-.207v-.074l.054-.054s.076-.035.108-.047c.048-.013.18-.02.312-.034.102-.012.27-.029.428-.052.083-.017.166-.047.231-.05.108-.008.167.013.2.04 0 0 .044.094.047.13.01.082.01.192.013.262 0 .043.058.06.058.099 0 .075-.064.143-.09.22-.026.073-.008.16-.028.246-.037.125-.291.782-.34.862-.034.059-.099.109-.137.11 0 0-.096.01-.096.012-.063-.11-.034-.06-.121-.135-.083-.075-.17-.195-.267-.264 0 0 .038-.044.063-.044.122 0 .228.01.353.01 0 0 .05-.015.075-.065.102-.208.213-.512.253-.754.036-.229 0-.297.008-.446 0 0-.026-.044-.05-.044 0 0-.066-.014-.107-.014-.25 0-.53.025-.694.046-.014.03.004.187.004.187-.065.06-.247.137-.275.22v.106c.122-.022.232-.09.313-.096.032-.005.057.041.057.041a.594.594 0 0 1-.082.044c-.08.038-.126.05-.234.1v.228c.105-.024.149-.048.216-.032.115.029.047.08.015.113l-.22.104s-.009.17-.035.334c-.02.144-.061.275-.074.359-.071.037-.082.094-.127.109-.038.012-.09.033-.142.031-.022 0-.04-.02-.04-.02s-.03-.005.02-.083c.03-.043.123-.12.118-.12.013-.084.035-.17.044-.26.008-.068.006-.251.006-.251l-.29.048-.14.003c0-.005-.045-.068-.045-.068.023 0 .05-.012.086-.02.054-.017.12-.034.12-.034s.188-.104.28-.15l-.01-.19c-.133.035-.186.076-.312.13l-.108-.054c-.043-.11.035-.177-.035-.292-.019-.025-.145-.092-.179-.134.305-.29.386-.495.497-1.012-.11 0-.172.01-.243 0-.05-.004-.16-.012-.208-.024 0 0-.062-.096-.056-.13.003-.02.085-.033.085-.033.047.019.397.004.397.004l.062-.037c.004-.12-.02-.31-.012-.355ZM44.068 55.406s.01-.07.03-.07c.03 0 .064.014.095.032a.364.364 0 0 1 .035.038c0 .368-.003.87.017 1.195a.061.061 0 0 0 .047.054s.073-.008.175-.033c.069-.016.145-.048.218-.06a.927.927 0 0 0 .335-.11c.063-.034.108-.137.166-.175.09-.033.14.108.157.14.044.08.048.143.059.18a.125.125 0 0 1-.065.108c-.055.023-.15.01-.205.026l-.148.06c-.242.065-.414.153-.62.203-.077.02-.153.016-.225.034-.039.27-.066.67-.178.905-.121.249-.25.249-.628.249-.025 0-.137.01-.164.01l-.02-.058.026-.056c.21-.122.383-.208.494-.366.11-.152.203-.422.235-.62.007-.024 0-.072 0-.072-.059-.022-.262-.056-.361-.11a.73.73 0 0 1-.218-.179s.028-.038.048-.038c.049 0 .087-.016.137-.016.185-.003.37.012.451.006.028 0 .044-.02.044-.02s.01-.326.032-.578c.014-.166.03-.68.03-.68Z" clip-rule="evenodd"/><path fill="#1A1919" fill-rule="evenodd" d="m38.054 57.882.003-.058.043-.012.594.153.18.075.072.124-.02.11-.067.05-.023.06-.032.103-.069.012-.096-.061-.042-.113-.037-.139-.087-.081-.194-.085-.159-.08-.066-.058ZM38.845 75.615c.024.022.025.028.01.062.01.003.018.01.025.014-.001.102.071.132-.001.259-.019.002-.014 0-.031.017-.005-.005-.012-.007-.019-.011-.034.035-.054.01-.096.012a.5.5 0 0 0-.031.016l-.072-.031.003-.009c-.014-.011-.021 0-.021 0l-.072-.053c.002-.008.001-.015.002-.022l-.067-.059.01-.017c-.003-.002-.005-.005-.009-.006.008-.014.015-.029.025-.043-.004-.001-.007-.002-.008-.004l.046-.04-.01-.007c.008-.022.059-.078.059-.078l-.014-.02c.01-.014.017-.03.025-.042l-.008-.004c.004-.022.019-.048.042-.056.02-.021.026-.022.054-.015.01 0 .109.042.122.06v.023a.776.776 0 0 1 .043.024c-.002.003-.003.006-.006.007.007.018.005.004 0 .023ZM37.956 75.555c-.015.03-.03.06-.041.09-.021-.001-.02.004-.045 0a.786.786 0 0 0-.036.044l-.022-.001c-.01.013-.017.03-.025.042l-.01-.005a.24.24 0 0 1-.014.025l-.008-.004-.01.017-.008-.004-.01.017-.009-.006c-.016.014-.007.027-.011.039a.043.043 0 0 1-.007-.006l-.034.039-.039-.011c-.03.03-.05.009-.091-.019-.004-.025-.014-.018-.024-.037l.002-.022c-.009-.004-.017-.007-.027-.013.004-.003.003-.007.006-.009-.005-.014-.003-.003.002-.022a.41.41 0 0 1-.034-.02l.004-.007a.7.7 0 0 1-.063-.127l.02-.034c-.006-.015.013-.083.036-.103l.008.005.01-.017a.016.016 0 0 1 .008.005.216.216 0 0 0 .02-.034.174.174 0 0 1 .035-.002c.004-.006.006-.013.01-.017.006-.004.016-.002.027-.009.014.015.007.005.011.02a.164.164 0 0 1 .022.023c-.006.007-.01.017-.015.024a.247.247 0 0 0 .034.02v.022l.045.037c.002-.003.002-.005.005-.007a.187.187 0 0 1 .027.014c0-.004.001-.006.004-.01.022.013.047.021.072.032l.004-.008.017.008.007-.007c.005.005.015.01.023.014a.446.446 0 0 0 .032-.016c.026-.002.052.01.079.023.002.015-.002.003.013.017ZM36.927 75.496c.006.005.011.008.017.01-.006.013-.013.024-.017.035-.004.008.02.012 0 .035 0 0-.006-.002-.008-.005a.384.384 0 0 1-.033.037.038.038 0 0 1-.022-.001.303.303 0 0 1-.037.046l-.009-.005c-.002.007-.006.012-.01.017-.004 0-.005-.003-.008-.005l-.01.018-.02-.001-.016.024c-.002 0-.005 0-.008-.004l-.01.017c-.004 0-.006-.003-.008-.005l-.025.042a.027.027 0 0 1-.009-.004c-.014.026-.03.05-.043.077-.002-.003-.007-.004-.008-.007-.005.005-.006.012-.01.018-.012 0-.024.002-.036.004-.025.015-.04.066-.053.093a.264.264 0 0 0 .122.06c.003-.004.004-.005.005-.01.008.003.013.008.019.01a.051.051 0 0 0 .004-.009c.02.01.04.024.06.035l.005-.009c.01.004.016.01.025.015l.004-.008c.01.003.019.009.026.014l.005-.008.064.025.005-.009.087.05c0-.004.002-.006.004-.01.007.005.016.01.026.014a.072.072 0 0 1 .003-.008l.052.03.004-.008c.037.02.073.041.11.064.005-.006.012-.009.017-.012.027.014.053.028.076.042a.135.135 0 0 0 .021-.012c.027.017.056.034.084.048l.004-.008c.014.01.029.017.042.025l.007-.008.017.009c0-.003.002-.006.005-.009.02.01.04.024.06.035l.004-.009a.37.37 0 0 1 .037.01c.003-.002.004-.005.006-.008l.048.016.004-.008c.023-.003.025-.005.052.008.01-.013.022-.026.034-.039.004.005.01.008.016.011.056-.036.076-.04.153.008.01.026.05.036.066.06-.002.005-.004.007-.004.01l.017.009v.022a.058.058 0 0 0 .016.009.019.019 0 0 0-.004.008c.013.014.03.028.045.039.002.011 0 .024.002.035l.025.015-.003.007c.007.015.01.015.027.03-.01.037.01.041.015.074.002 0 .003.004.007.005l-.049.107c-.028.003-.055.007-.084.009a.865.865 0 0 1-.256-.124l.005-.009c-.02-.017-.03.01-.043-.002 0-.005.003-.008.005-.01a1.412 1.412 0 0 0-.301-.16l-.12-.069-.006.009a.13.13 0 0 0-.026-.015c0 .003-.004.006-.004.008l-.043-.025-.004.01a.641.641 0 0 0-.042-.024.027.027 0 0 0-.006.007c-.03-.018-.063-.035-.092-.054 0 0-.012.012-.032-.004 0 0 0-.018-.02-.024-.002.002-.002.006-.004.01-.01-.009-.022-.014-.033-.022l-.007.01-.034-.02-.004.008a1.484 1.484 0 0 0-.04-.01l-.003.007a.739.739 0 0 1-.042-.023l-.007.008a.974.974 0 0 0-.064-.026c-.002.003-.001.006-.004.009l-.026-.015-.003.009-.044-.024-.018.011-.055-.02a.534.534 0 0 0-.045.018.642.642 0 0 1-.06-.033c-.03.006-.06.01-.089.018l-.024.02a1.067 1.067 0 0 0-.041-.025c0 .004-.003.006-.006.01a.627.627 0 0 1-.096-.07c.003-.008.004-.017.005-.028-.003-.002-.005-.004-.009-.004a.31.31 0 0 1 .012-.019.037.037 0 0 1-.012-.018.682.682 0 0 1 .01-.038c-.004-.002-.006-.002-.01-.006.01-.018.014-.037.02-.055-.002-.006-.007-.011-.01-.018.002-.027.038-.065.05-.072.01.001.016 0 .024.002l.02-.034c.003 0 .004.003.008.004l.01-.017.035-.002.023-.042c.003.003.005.002.009.004l.063-.087a.077.077 0 0 1 .02 0c.028-.014.033-.032.058-.058a.028.028 0 0 1 .007.005l.006-.009c-.003-.001-.007-.004-.01-.004.034-.05.065-.1.097-.15.024-.023.052-.046.074-.069l-.007-.005c.017-.046.035-.09.054-.137-.032-.03-.018-.05.01-.097l.008.008.024-.022c.015 0 .05.02.06.033 0 .008-.002.015-.003.023.013.007.026.013.034.02l-.002.007.054.043a.317.317 0 0 0-.001.02.574.574 0 0 0 .041.048.115.115 0 0 0-.007.03l.01.02a.035.035 0 0 1-.008.014.236.236 0 0 1-.043.134ZM45.592 75.644c0 .007.002.014.003.019h.008c.005.009.01.016.013.027l.03.006c.008.004.008.018.021.026-.003.038 0 .029.008.075l-.028.021v.01c-.004-.001-.012 0-.017.002-.002.004 0 .006.001.01-.019 0-.039.002-.056.005l-.008.02h-.02c0 .003.002.006.001.01-.012.004-.023.007-.034.013v.01c-.038.003-.075.005-.112.01l-.002-.01-.063.017c0-.004-.003-.006-.001-.01l-.046.005v.009l-.028.002c0 .004 0 .007.002.01l-.02.002a.01.01 0 0 0 .001.008c-.02.002-.038.005-.055.005v.011l-.149.022.003.02c-.046.002-.038-.003-.075.007v.113c-.002 0-.006.002-.01 0-.003.025.015.046.016.056h-.008c0 .017.002.033.003.048-.003 0-.006.002-.008 0l-.008.02c-.01.004-.018.007-.028.013l.002.018c-.033.01-.064.027-.069.063l-.082.036c-.005.037-.026.049-.07.053-.004.027 0 .02-.026.031-.016.024-.02.008-.045.025.002.002.002.005.003.008-.01.004-.02.007-.027.012-.004.026-.003.02-.026.03l.001.01c-.015 0-.03.003-.047.004a.082.082 0 0 0-.007.02c-.006 0-.013 0-.018.002v.01c-.012.008-.015.007-.038.012.002.052-.023.064-.025.115a.303.303 0 0 0 .084.003v-.01l.054-.015c.013 0-.002.013.01.008a.487.487 0 0 1 .244-.024c0 .01 0 .02.003.03l-.037.002-.008.03-.056.014a.178.178 0 0 0-.006.02.244.244 0 0 1-.038.002l-.006.02-.067.007c.002.003.002.005 0 .009a.303.303 0 0 1-.045.012.012.012 0 0 1 0 .01.51.51 0 0 1-.036.014c.002.003.002.006.002.008l-.056.006v.011c-.006 0-.01.002-.018 0l.001.01a.506.506 0 0 0-.046.006v.009l-.02.001a.33.33 0 0 1-.015.029.049.049 0 0 1-.018.002c.002.005 0 .007 0 .009l-.035.006c0 .002-.002.005 0 .008a.364.364 0 0 1-.037.004l-.001.009-.054.005a.122.122 0 0 1-.01.02c-.049.009-.097.016-.147.023-.002-.003 0-.006 0-.008h-.01l-.003-.028-.039-.024a.33.33 0 0 1-.015-.056l-.01.001c-.001-.01 0-.018-.003-.028a.01.01 0 0 1-.01 0v-.017h-.009l-.01-.093a.082.082 0 0 0 .033-.05c.083-.008.233-.083.242-.145.047-.01.022-.026.068-.036.008-.026.002-.021.027-.032.01-.01 0-.003.02-.01.004-.039.003-.012.024-.03v-.01c.012-.01.014-.01.036-.013.003-.025.009-.022.013-.048.013-.002.024-.003.037-.003.005-.01.01-.02.018-.03.011-.01.037-.01.044-.023l-.002-.029c.016-.032.032.009.03-.059h-.008c-.003-.008-.008-.017-.014-.026l-.027.002v-.01c-.007.002-.012.002-.019.002l-.001-.007c-.01.002-.018.007-.027.01l.001.01c-.008-.004-.013-.005-.02-.007 0 .003.002.006 0 .01a.45.45 0 0 0-.063.006c-.002-.003-.001-.008-.003-.01a.14.14 0 0 0-.065-.003l.001.01-.029-.007s-.009.014-.028.012l-.001-.01c-.008.001-.018 0-.028.004a.126.126 0 0 0-.01-.02l-.02.003c0-.002.002-.007 0-.01-.007 0-.014.002-.018.003v-.01l-.03.003a.013.013 0 0 0 0-.01c-.016-.009-.018-.011-.04-.015v-.018a.202.202 0 0 0-.032-.016c.001-.003.002-.005 0-.01l-.019.001c-.014-.01-.013-.047-.016-.073.01-.001.019-.001.029-.004l.005-.027.233-.032-.002-.01c.017-.001.032-.001.049-.004 0-.004-.003-.007-.003-.01l.084-.008v-.008l.13-.022v.008h.009a.052.052 0 0 0 .008-.02c.034-.023.093-.027.148-.032a.059.059 0 0 1-.001-.02c.052.015.093-.007.166-.016.005-.017 0-.008.008-.02a.325.325 0 0 1 .108-.066c.021 0 .043-.004.064-.006v-.01l.1-.027v-.01c.01-.002.019-.002.028-.002v-.01l.028.007c-.002-.005 0-.007 0-.01h.017l.008-.022c.039-.002.073-.006.112-.01.053-.02.144-.01.205-.01ZM45.81 76.518v.019c.028.005.021 0 .03.026.026.023.017.112.015.139-.01.005-.02.01-.029.012-.007.01-.06.025-.08.018a.122.122 0 0 1-.013-.017l-.028.002c-.008-.025-.005-.02-.03-.025 0-.003-.002-.006 0-.01a2.068 2.068 0 0 1-.114-.026.158.158 0 0 1-.015-.036 2.713 2.713 0 0 1-.087-.02l-.013-.02c-.005.003-.01.003-.017.003l-.002-.01a.818.818 0 0 0-.055.007c-.002-.004-.001-.006 0-.01a.095.095 0 0 1-.02.001c0-.003 0-.006-.002-.009l-.074.007a.102.102 0 0 1-.01-.017 1.886 1.886 0 0 0-.065.007.034.034 0 0 1-.002-.01h-.008a.17.17 0 0 1-.006-.046.384.384 0 0 0 .062-.045h.018c.006-.01.012-.02.016-.03.026-.002.05-.006.076-.007l-.001-.01a.021.021 0 0 0 .01 0v.008a2.76 2.76 0 0 0 .093-.01v.012l.038-.004c0 .004 0 .006.002.01l.036-.004c.003.003.002.005.001.008l.122-.01.01.018.049.002c.003.008.007.013.012.02a.062.062 0 0 1 .016-.003c.014.01.005.023.014.038.002 0 .005-.002.01-.001.015.015.013.019.04.023ZM45.224 76.998l.016-.002c.005.038.012.085.03.102.008.021.013.019.023.034a.21.21 0 0 0 .027-.01.016.016 0 0 1 0-.01.56.56 0 0 0 .056-.006l-.003-.009.04-.004.006-.02c.032-.005.062-.011.092-.018 0 .004.002.006.003.01h.008c.001-.008.005-.014.008-.02.023 0 .043 0 .066.003v.01a.132.132 0 0 1 .028-.004.112.112 0 0 0 .012.018.282.282 0 0 1 .03-.002c-.002.003-.002.006 0 .009a.113.113 0 0 1 .018-.002c-.002.004 0 .007 0 .01.034.024.004.007.021.034l.022.008c0 .016.001.031.003.047-.016.016-.006.023-.014.04h-.01c-.002.006-.003.012-.009.02-.023.02-.024-.016-.033.031-.069.007-.131.034-.183.056l-.102.02.001.006a.277.277 0 0 1-.072.037l-.007.027-.009.003-.006.048a.017.017 0 0 0-.009 0l-.015.124-.017.011a.453.453 0 0 0-.034.145l-.019.002c-.016.014-.002.084 0 .111.044.002.078.009.123-.01 0-.003 0-.006-.002-.009l.057-.006a.071.071 0 0 1-.002-.01c.02 0 .038-.003.058-.005a.111.111 0 0 1 .006-.019l.02-.002c-.002-.003 0-.006 0-.008a.381.381 0 0 1 .056-.005l-.003-.012.047-.002c.002-.005-.001-.008-.001-.012.015 0 .031 0 .047-.003-.002-.004 0-.006 0-.009l.299-.02v.008c.02.006.04.011.057.013.002.007.002.014.002.02l.03.007c0 .003-.001.007.001.01.028.013.038.008.05.041h.01l.007.065h-.01c0 .009.002.014.003.02a.056.056 0 0 1-.026.03c-.016.017-.09.052-.138.042v-.01a.532.532 0 0 1-.03.002c.002-.003 0-.006 0-.009a4.421 4.421 0 0 1-.084.008v-.008a2.199 2.199 0 0 0-.076-.003v.009c-.012.002-.024.004-.036.004a.924.924 0 0 0-.252.016v.008c-.014.004-.02-.007-.02-.007l-.01.001c0 .003.002.006.001.008-.012 0-.014-.005-.037-.005v.018c-.096.01-.192.02-.29.027.001.004.001.008.003.011h-.02c.002.006.003.009.002.012l-.065.005-.008.02-.036.013-.008.02a.27.27 0 0 1-.037.012.249.249 0 0 1 .002.02c-.03.001-.063.006-.093.008.002.004 0 .005 0 .009a.242.242 0 0 1-.046-.005v.01a.106.106 0 0 1-.018.002l.001.008-.048.005a.05.05 0 0 1 .002.01l-.036.012v.01l-.102.009.001.01c-.006 0-.012.002-.018.001-.001.005 0 .007.001.01l-.057.006c0 .007.002.013 0 .018-.033.008-.106.01-.167.017-.013-.02-.022-.019-.03-.044-.007 0-.013.002-.02 0v-.017a.254.254 0 0 1-.039.002c-.014-.014-.03-.028-.042-.042a.06.06 0 0 0-.018.003c-.002-.006 0-.008-.003-.011-.006-.002-.012-.005-.019-.006 0-.013-.002-.025-.004-.039 0 0-.005 0-.007.003.001-.02 0-.038.004-.059h.007v-.01c.02-.004.037-.01.056-.013v-.01c.011-.013.03-.027.041-.043l.057.004.022.027.055-.006.002.011c.006-.003.011-.002.018-.004l.002.01.084.001c0 .003 0 .007.002.01l.008-.001v-.008a.093.093 0 0 1 .027-.003v-.011c.033-.002.066-.006.102-.01 0-.002-.002-.005-.001-.009l.028-.003-.001-.01a2.01 2.01 0 0 0 .111-.01l.009-.02h.018l-.002-.01.131-.031-.005-.038c.01-.009.001.002.01-.009l.027-.004c-.02-.068-.02-.192-.027-.287-.022-.006-.023-.007-.04-.017v-.008h-.02v-.008l-.102.028a.103.103 0 0 1-.007.019c-.072-.003-.144-.004-.218-.009-.003-.007-.008-.015-.01-.026-.054.004-.069-.016-.116-.015-.014-.038-.041-.047-.055-.091a.11.11 0 0 0 .041-.05.294.294 0 0 0 .148-.025c.011.003.02.006.031.007l.007-.02c.024 0 .048-.004.075-.005.001-.007.006-.014.007-.02.033-.006.068-.007.103-.01 0 0-.004-.01.017-.012.007.006-.001.014.01.01.004-.007.006-.015.01-.021.005 0 .011-.002.017 0l-.001-.011.084-.009v-.008l.018-.002-.001-.01c.026-.016.019.01.036-.022h.008l.005-.056c.002-.002.005-.002.008-.003 0-.011-.001-.025-.003-.037h.01a1.267 1.267 0 0 1 0-.096h.008l-.002-.047h.008c0-.041-.002-.083-.001-.122.016-.011.011-.015.035-.022.015-.02.045-.026.081-.026l.004.008c.007 0 .015-.003.026-.003l.01.018.05.025c.008.042.03.048.038.097ZM47.935 74.818c.025 0 .046-.004.07-.006.015.022.023.022.043.034l.01-.005a.334.334 0 0 1 .064.137c-.005 0-.008.001-.01.004.002.006.005.01.006.016l-.008.004c-.006.02-.011.028-.009.053l-.016.008c-.006.03-.026.035-.023.07-.037.007-.031.006-.061.024l.006.019-.07.025.007.018-.025.011.003.008c-.009.016-.007.021-.005.041-.021.017-.014.027-.018.03l-.053.021s.003.005-.012.015c-.02-.015-.031-.018-.048-.042-.005.005-.012.006-.017.008a.134.134 0 0 1-.016-.065c.003-.003.005-.002.008-.004a.187.187 0 0 0-.014-.035l.03-.03a.174.174 0 0 1-.005-.04c.003-.004.009-.009.012-.016l-.006-.016.007-.004c0-.016-.014-.013-.013-.014l-.005-.009.009-.003a1.54 1.54 0 0 1-.031-.077l.01-.005a.053.053 0 0 1-.007-.018s.003-.003.007-.003a.306.306 0 0 0-.022-.052l-.002-.01c.003 0 .006 0 .009-.003a.074.074 0 0 1-.005-.007l-.007.001a.386.386 0 0 1-.014-.033c0-.002.005-.004.008-.004l-.03-.048c.01-.011.016-.035.017-.037l.024-.01c.033-.029.059-.023.102-.03.032.032.074.039.1.08ZM47.389 75.218l.048.073c-.001 0-.006 0-.01.003l.01.017c-.003.003-.006 0-.008.003.007.019.012.037.021.053-.006 0-.008.003-.01.003.002.01.008.019.01.026l-.01.004c.004.006.006.012.008.018a.454.454 0 0 1-.014.015c-.007.035.007.057-.026.083-.013.034-.028.017-.056.04.003.005.002.007.003.01l-.04.025c-.019-.015-.064-.021-.094-.012l-.112-.148a.362.362 0 0 0-.03.002c-.01-.022-.021-.036-.034-.067.021-.014.047-.034.077-.031l.03.02c.011-.001.025-.003.037-.007l.016.017c.022-.011.046-.02.068-.03l-.002-.008a1.17 1.17 0 0 0 .04-.026.017.017 0 0 0-.004-.009c.006-.003.013-.006.018-.006l-.003-.01a.18.18 0 0 1 .022-.018.057.057 0 0 0 0-.021c.016-.006.031-.014.045-.02ZM48.089 75.303c.017.024.02.025.05.021.012.03.027.083.02.102.005.035-.005.052-.045.067.003.004.003.008.004.01-.03.01-.06.017-.091.026l.005.01a.098.098 0 0 0-.026.01l.003.008-.053.022c-.005.014-.008.03-.012.043-.04.045-.102-.011-.098.06-.009.023.017.049.03.08a.18.18 0 0 0 .057-.014c.021-.038.066-.014.096-.038.043-.032.056-.061.126-.09.017.025.027.023.057.017l.006.018c.005 0 .007-.002.009-.004l.005.01-.009.003c.006.012.009.022.014.036l-.025.009c0 .013.001.025.004.038-.01.007-.02.016-.033.024l.004.007-.061.025c.003.003.003.005.004.01-.038.016-.072.036-.11.053l-.001.02-.049.03v.021a.432.432 0 0 0-.018.007c.001.003 0 .006.002.008-.008.013-.012.013-.03.022.008.025.008.03.009.048-.005.002-.008.002-.01.004 0 .022.02.018.023.03l-.01.004c.001.012.003.052.017.065a.116.116 0 0 0 .021.002.054.054 0 0 0 .007.017c.003 0 .005-.002.007-.003.01.023.02.046.028.07-.017.017-.032.04-.045.06-.008 0-.013.004-.018.006a.35.35 0 0 0-.007.033c-.008.005-.016.014-.024.018l-.001.02c-.009.005-.018.007-.026.012l.003.009c-.013.008-.017-.002-.021-.003l-.095.04c0-.005-.003-.007-.004-.01l-.01.004-.007.004c.002.003.002.005.002.008-.004.015-.002.001-.002.02l-.02.02.004.009c-.01.003-.019.007-.028.008 0 .009-.002.016-.001.023l-.077.04a.033.033 0 0 0 .005.008l-.016.007c0 .004.001.005.003.009l-.018.007c0 .008-.002.014-.003.021l-.025.011.002.009c-.013.009-.024.018-.04.025 0 .003.003.005.004.01a.05.05 0 0 0-.018.007.02.02 0 0 1 .003.009l-.02.018v.03a.531.531 0 0 1-.047.007l-.006-.016c-.033.006-.051.004-.071-.023l-.034.013-.018-.022c-.027-.012-.029-.054-.031-.078a.121.121 0 0 1 .039-.027l-.003-.008.11-.024.004.008c.012.003.036.01.05 0l-.002-.008.017-.007c.001-.008 0-.014.002-.02.028-.03.05-.01.078-.033a.03.03 0 0 1-.004-.009.643.643 0 0 0 .035-.013l-.003-.009c.007-.003.012-.003.017-.007 0-.003-.001-.006-.004-.01.033-.011.065-.024.096-.037l-.017-.042.017-.008-.008-.098a.455.455 0 0 0-.031-.048.352.352 0 0 0-.037.005c-.003-.005-.003-.011-.006-.017-.036.01-.074.02-.108.033l-.009.033c-.005.002-.01.005-.016.005 0 .004.003.008.004.01a8.149 8.149 0 0 1-.175.07c-.015-.013-.019-.01-.031-.029l-.018.008a.24.24 0 0 0-.014-.036c.018-.02.013-.036.038-.055 0-.003 0-.006-.002-.008.018-.003.102-.028.12-.05.002-.006.002-.014.003-.02l.017-.008c0-.005.003-.012 0-.02l.046-.017-.004-.009.025-.01-.003-.01a.207.207 0 0 0 .043-.017c.001-.002 0-.005-.003-.007.006-.003.013-.007.02-.008-.003-.002-.004-.006-.005-.008l.067-.058c-.002-.022.003-.023.004-.04-.026-.008-.026-.023-.045-.044-.03 0-.046-.008-.083.003l.01.017c-.017.009-.033.019-.05.03l.003.008-.05.02c-.002.004 0 .006.001.01-.006.001-.013.004-.017.006 0 .007-.002.015-.004.02-.01.01-.024.018-.038.028 0 .003.002.006.004.009l-.08.03c-.027-.018-.014 0-.032-.006a.26.26 0 0 1-.019-.023l-.021-.002a.023.023 0 0 1-.003-.009c-.006.004-.012.004-.017.007-.015-.005-.033-.035-.042-.055a.157.157 0 0 1 .07-.049l-.003-.007c.044-.02.086-.04.128-.062 0-.006 0-.014.002-.02l.018-.008c-.005-.002-.003-.005-.005-.008a.546.546 0 0 1 .044-.018.016.016 0 0 0-.006-.007c.008-.002.013-.005.02-.008l-.004-.008c.016-.005.029-.013.044-.018a.015.015 0 0 1-.002-.009l.025-.01-.005-.009.052-.02c0-.005 0-.007-.002-.01l.035-.013-.005-.009c.016-.008.026-.017.042-.027-.002-.001-.003-.006-.004-.007.005-.015.003 0 .002-.021.014-.01.025-.019.04-.027-.001-.003-.004-.006-.003-.009l.056-.032c-.001-.004-.003-.005-.003-.01.008-.002.018-.007.026-.01 0-.006.002-.014.001-.02l.076-.04c0-.007 0-.014.003-.022.005-.001.008-.005.015-.006.004-.01.005-.022.006-.034.01-.001.019-.006.027-.01a.068.068 0 0 0 .003-.02c.007-.005.017-.007.025-.01l-.002-.01c.024-.008.045-.018.07-.027l.002.008.04-.026c.003.004.002.006.004.009.025-.004.062-.019.082-.023Z" clip-rule="evenodd"/><path fill="#1A1919" fill-rule="evenodd" d="M48.503 75.783a.05.05 0 0 0 .019-.007c.012.024.024.042.037.077-.02.03.004.046-.031.072.002.002.002.005.003.008l-.05.022.002.01c-.005 0-.011.003-.018.006a.033.033 0 0 1 .003.007 1.89 1.89 0 0 1-.068.028c.002.004 0 .007.004.01-.022.004-.043.01-.065.016l.003.009a.146.146 0 0 0-.025.01l.003.008-.018.007c.002.004.004.005.003.009l-.06.024c0 .003 0 .006.002.008a.036.036 0 0 1-.008.004c.007.014.01.029.018.044.014.006.003 0 .016.012.04-.015.045-.005.076-.01.023.032.03.028.05.08a.435.435 0 0 0-.021.02c.01.017.02.034.03.048l-.014.016.007.018-.01.004c.006.008.01.017.013.025l-.01.005a.012.012 0 0 1 .004.008l-.027.012-.002.018a.08.08 0 0 0-.017.01l.004.007-.027.01a.339.339 0 0 1-.012.047.692.692 0 0 1-.06.023c0 .007-.002.015-.003.02a.118.118 0 0 1-.034.014c.002.004.003.007.002.01-.017.027-.002.038-.045.06a.21.21 0 0 1-.04-.076.496.496 0 0 0 .026-.011c0-.009.011-.024.011-.024a.848.848 0 0 0-.02-.043c.006-.005.01-.012.017-.015.006-.017 0-.014.017-.028l-.006-.018a.196.196 0 0 0 .018-.007c-.004-.025-.006-.02.016-.037-.01-.032 0-.031-.004-.06.006-.001.01-.004.017-.007-.006-.035.008-.042-.004-.08-.001.001-.003.004-.008.005l-.008-.027a.12.12 0 0 1-.01.003l-.02-.021a3.23 3.23 0 0 1-.082.02c-.002-.004-.003-.011-.006-.016l-.026.01c-.02-.017-.03-.023-.046-.063l.032-.02c0-.004-.002-.007-.003-.01l.035-.014c.004-.012.005-.022.007-.034a.192.192 0 0 0 .025-.01c0-.001 0-.005-.003-.01.015-.004.028-.01.042-.015 0-.004 0-.006-.003-.01l.026-.01c0-.001 0-.006-.002-.008.015-.012.013 0 .02.002a3.04 3.04 0 0 0 .046-.04c.002-.007 0-.012.003-.022a.493.493 0 0 0 .044-.037l.002-.02a.17.17 0 0 0 .032-.024c-.003 0-.003-.005-.004-.008.034-.017.068-.032.102-.05l.002.01a.343.343 0 0 1 .032-.024c0 .002.004.006.003.01l.026-.013c0 .003.002.007.004.009.012.008.003 0 .016.014ZM49.083 75.947l.016-.008.007.018.027-.01c.018.016.047.044.072.052a.547.547 0 0 0 .008.047l-.01.003c.008.015.012.03.018.044l-.009.003c-.01.03-.028.021-.027.06l-.108.056c-.007-.005-.01-.01-.016-.015-.008.003-.017.008-.026.01l-.016-.013-.043.016a.114.114 0 0 0-.007-.016c-.03.025-.055.013-.107.033-.002-.005-.006-.011-.007-.018-.118.025-.198.058-.321.107a.107.107 0 0 1-.027-.04c.02-.01.02-.011.032-.022-.007-.007-.024-.013-.024-.032l.01-.002c0-.004-.003-.007-.004-.01l.052-.02c0-.004-.002-.005-.003-.009l.026-.01a.038.038 0 0 0-.002-.01l.06-.022a.15.15 0 0 0 0-.022c.016-.02.096-.084.14-.086l.001.01c.022 0 .073 0 .095-.017-.001-.004-.001-.008-.003-.01.012-.004.022-.01.035-.014a.03.03 0 0 1-.003-.01c.005-.002.012-.002.016-.006 0-.001 0-.006-.003-.008l.043-.018a.019.019 0 0 1-.002-.008.114.114 0 0 1 .093-.017c.015.005.003-.002.017.014ZM47.621 76.913l.01.027c-.012.014-.021.055-.025.06l-.087.035c-.002-.004-.005-.006-.005-.009a.81.81 0 0 0-.064.017c0-.004-.003-.007-.003-.01l-.035.014-.017-.014c-.002 0-.005.004-.007.003.002.003.002.006.002.009l-.015.008c0 .002 0 .005.003.008-.019.007-.035.015-.053.021.001.004.003.006.003.01-.006 0-.012.004-.017.006 0 .003 0 .007.004.008l-.036.014c-.001.01-.005.022-.006.034l-.106.041c.001.006 0 .014-.001.022l-.08.03-.014.057-.042.027a.788.788 0 0 0-.002.02c-.007.005-.017.007-.024.012-.002.002 0 .005.001.008-.008.002-.017.007-.024.01l-.003.02-.155.072c-.001-.003 0-.005-.002-.009l-.04.026c0-.003-.003-.005-.003-.009l-.027.011-.003-.008c-.006.003-.012.003-.017.006a1.2 1.2 0 0 1-.065-.035.282.282 0 0 1-.028.002l-.009-.018-.008.005c-.005-.013-.009-.025-.015-.036.028-.034.063-.111.145-.118.044-.003.07.01.119-.007a.156.156 0 0 1 .026-.062c.007 0 .012-.004.016-.004a.091.091 0 0 0 .003-.023c.03-.011.06-.022.087-.034.04.021.082.003.12-.028.012-.003.024-.01.035-.014l-.003-.01a.037.037 0 0 0 .017-.006c-.002-.004-.002-.006-.004-.006l.062-.027a.196.196 0 0 1 .01-.033.085.085 0 0 1 .014-.007l.001-.021c.007-.001.013-.005.019-.006l-.005-.008.091-.027c.002-.008.001-.014.002-.02a.225.225 0 0 1 .036-.014l-.005-.01a.226.226 0 0 1 .064-.045l-.003-.03a1.2 1.2 0 0 0 .048-.028c0-.02-.001-.006.004-.02a.192.192 0 0 1 .037-.057l.044-.018c0-.006 0-.015.002-.02.037-.023.077-.044.114-.066a.01.01 0 0 1 .004.007c.005 0 .013-.004.019-.005l.003.007.127-.06c.014 0 .053.002.071.001.009.011.012.012.023.032a.016.016 0 0 1-.01.004c.003.008.008.017.01.025a.036.036 0 0 1-.01.004.15.15 0 0 1 0 .02l-.018.01-.01.043c-.011.007-.02.016-.033.023a.119.119 0 0 1-.008.032c-.005.002-.01.007-.015.008a.138.138 0 0 0-.002.02c-.006.002-.01.006-.019.008l.005.008-.153.051a.157.157 0 0 0-.003-.008c-.03.004-.042.03-.062.044ZM48.666 76.547l.007.017a.228.228 0 0 1 .025-.01.046.046 0 0 1 .005.01.167.167 0 0 1 .111.025l.008-.004.026.061c-.02.035 0 .013-.002.05l-.008.005.005.038-.008.003.014.034c-.003.002-.008.001-.01.005.005.004.005.01.009.016l-.02.029c0 .003.003.005.003.008l-.04.026c.006.028-.002.048-.002.07l.014.036c-.003.002-.006.002-.01.003a.213.213 0 0 0 .015.087l-.017.007.02.052-.008.004a.03.03 0 0 1 .004.007c-.023.014-.044.026-.067.037l-.002.02c-.026.01-.052.023-.078.031l.004.01c-.044.015-.088.035-.131.053-.033.013-.07.05-.12.057.001-.003 0-.007-.002-.01l-.009.004c-.022.01-.045.019-.07.027l-.003-.007c-.058.006-.107.077-.15.1l-.008-.017a.125.125 0 0 0-.017.007c-.015-.003-.024-.029-.035-.037l-.033-.008c-.005-.008-.007-.016-.01-.023-.026-.026-.029-.003-.052-.053l-.017.007a1.656 1.656 0 0 0-.038-.095l-.009.003-.007-.017-.01.002-.009-.024c-.003 0-.006 0-.007.003a.282.282 0 0 0-.009-.018c-.011-.003-.02-.003-.034-.008l-.012-.034-.01.004c-.012-.01-.015-.02-.024-.04-.012.004-.023.01-.037.014 0-.004 0-.006-.004-.01-.003.007-.008.01-.013.017-.002-.003-.002-.006-.003-.01-.014-.005-.003.002-.015-.013-.047.009-.057-.009-.075-.06a.144.144 0 0 1 .056-.034l-.002-.008c.014-.006.03-.012.043-.02.002.004.004.007.003.01a.63.63 0 0 0 .053-.022.046.046 0 0 0 .004.01.112.112 0 0 0 .018-.007l.013.014c.008-.001.013-.005.02-.008.008.007.017.015.027.021a.094.094 0 0 1 .024-.01c.003 0 .003.005.006.007h.029a.25.25 0 0 0 .065.084c.003 0 .006 0 .01-.002 0 .008.005.016.008.025l.01-.002c0 .005.003.01.007.016.002 0 .005-.003.006-.004l.02.043c.007.001.014.003.02.002.006.012.01.024.014.036l.01-.005a.45.45 0 0 0 .04.055c.029-.005.044.003.06.025l.177-.088.002-.021.043-.02a.125.125 0 0 0 .003-.019l.036-.005c.003-.008.003-.016.003-.02l.044-.02-.003-.008c.002-.001.005-.001.007-.003.002-.02.002-.031.014-.045l-.039-.096a.152.152 0 0 0 .022-.02c-.005-.02-.007-.023-.004-.037l.007-.003-.005-.018a.02.02 0 0 1 .009-.002c-.008-.015-.012-.031-.018-.045a.14.14 0 0 0-.056.011l-.005-.007c-.035-.005-.136.07-.156.083-.017-.028-.03-.057-.045-.083l.014-.017-.004-.009a.048.048 0 0 0 .022.002l-.005-.009.05-.029c-.002-.005-.004-.013-.008-.017.03-.015.032-.025.056-.04a.207.207 0 0 1-.002-.031c.025-.013.052-.037.07-.05l.075-.017a.035.035 0 0 0-.005-.01l.01-.003c.001.001 0 .004.003.007l.099-.028ZM40.552 76.498a.06.06 0 0 1 .02.001c-.001-.006-.002-.012 0-.02a.145.145 0 0 0 .036.003c.001-.007 0-.013.002-.019h.018c.02-.048.035-.086.08-.108v-.028c.024-.001.024-.003.04-.008.002-.01.006-.018.009-.028.009-.002.013-.005.02-.008l.004-.047h.008c.01-.01 0-.004.018-.007l.012-.057c.023-.003.017-.002.031-.017h.008l.003-.038a.093.093 0 0 1 .017-.007c.002-.016.004-.031.004-.046a.232.232 0 0 1 .028-.019c.014-.027.007-.1.007-.13a.11.11 0 0 0-.03-.003c-.003-.035-.014-.055-.012-.104l.017.002c.002-.008.002-.013.002-.018.028-.005.076-.032.123-.014a.086.086 0 0 1-.002.01h.02l-.002.01c.01 0 .021 0 .03.002l-.001.007c.014.004.025.01.037.012.003.005.007.035.007.038.006.005.014.007.02.01.005.01.01.02.017.03a.043.043 0 0 1 .017 0c.012.01.007.027.008.047h.02l-.003.02c.01.002.02 0 .03.002l-.002.019h.018c0 .039-.01.085-.023.112h-.01v.018h-.01a.126.126 0 0 1-.002.036.01.01 0 0 1-.008 0c-.002.01-.002.02-.002.029l-.029.017c-.018.03.01.034-.04.046-.002.018-.008.037-.011.056-.003-.002-.006-.002-.01-.002 0 .016 0 .031-.002.047a.666.666 0 0 1-.05.035 1.254 1.254 0 0 1-.02.064h-.01c-.016.02-.03.027-.04.054h-.028c-.01.04-.032.055-.069.062-.007.03-.021.033-.03.064l-.039.008-.01.029c-.026.003-.03.012-.049.025v.01a.488.488 0 0 0-.047.007l-.03.037a.098.098 0 0 0-.027-.004c-.002.003 0 .006-.002.011-.013.007-.016.004-.037.007-.006.025-.014.022-.021.047l-.038.007v.008h-.01c-.001.01 0 .02-.003.029-.004.003-.011.005-.017.008a2.696 2.696 0 0 0-.016.141l-.019.007-.002.038h-.01c0 .005 0 .012-.002.019h-.008c-.018.04 0 .074-.014.093-.01.01 0 .003-.019.007-.004.032-.01.062-.013.094h-.01l-.002.019c-.002 0-.005-.002-.008 0l.003.14h-.01c-.006.017.004.012.01.018-.002.003-.003.007-.002.011-.003-.002-.006-.001-.008-.002l-.002.038a.065.065 0 0 1-.02.008l-.007.141c0 .002.01.002.01.017-.005.002-.007.003-.01.002l-.004.046h-.008a.574.574 0 0 1-.003.056h-.01a.626.626 0 0 1-.011.038l-.01-.002.01.039c-.004-.002-.009 0-.011-.001a.434.434 0 0 1-.01.036c-.006 0-.013-.002-.02 0-.013.027-.032.05-.04.083a.08.08 0 0 0-.018-.002l-.011.02-.15-.008c-.017-.037-.036-.066-.092-.069l.004-.029c-.028-.016-.03-.039-.065-.05v-.018c-.006-.004-.012-.01-.018-.011a1.48 1.48 0 0 0 .004-.094l.162-.03c.008-.03.02-.04.048-.044.014-.064.025-.157.04-.224.002-.056.004-.112.008-.168a.164.164 0 0 1 .019-.007c.005-.027.007-.05.013-.076h-.01c0-.013.002-.025.003-.038l.008.001v-.01h-.008a.035.035 0 0 1 0-.019c-.003-.002-.005 0-.007 0-.004-.017.008-.018.008-.02-.002-.015-.006-.03-.007-.046a.128.128 0 0 0-.057-.012v.019l-.077.042v.02a.757.757 0 0 1-.04.026v.03c-.003-.003-.008-.002-.01-.003-.006.01-.014.018-.02.027a.278.278 0 0 1-.029.008c-.005.011-.008.02-.01.029l-.03-.001c-.028.016-.016.051-.068.062v.028c-.01.006-.02.012-.03.016v.01h-.019c0 .003.001.006-.001.01l-.019-.003c-.005.01-.013.02-.018.028h-.009a.592.592 0 0 0-.013.047c-.01.01-.033.01-.047.015-.004.007-.008.012-.01.018l-.039.008v.01c-.026.014-.034.022-.067.025v.018h-.02a.037.037 0 0 1-.001.019c-.055 0-.082.02-.142.02-.012-.024-.014-.016-.014-.056l.03-.082.087-.025a.19.19 0 0 1 .02-.028c.006.002.012.001.018 0l.02-.025c.017-.002.031-.006.047-.007a.46.46 0 0 0 .02-.03c.031-.014.032.02.048-.033a.06.06 0 0 1 .02.001c.018-.033.047-.052.061-.092.004 0 .012 0 .019.002.004-.011.017-.016.02-.018v-.028a.174.174 0 0 1 .02-.008v-.021l.009.001c.019-.026-.007-.006.02-.027 0-.002.003-.005 0-.008l.03.001c-.001-.005-.002-.007 0-.01.01-.005.019-.012.029-.018v-.027c.008-.002.014 0 .019 0 .005-.01.019-.015.02-.017a.469.469 0 0 0 .012-.047l.03-.017c-.002-.008 0-.019 0-.027a.265.265 0 0 0 .018-.01l.003-.018h.01l.008-.028.02.001c.01-.024.016-.055.03-.073l.02-.008c.005-.01.007-.02.012-.028l.017.001a.248.248 0 0 0 .002-.038c-.03-.008-.06-.017-.091-.023-.022.021-.05.02-.079.033a.112.112 0 0 1-.01.019l-.036.008v.027h-.021v.019c-.035.007-.04.026-.077.033 0 .006-.002.014 0 .02h-.011c-.022.013-.045.027-.067.043 0 .003-.002.006 0 .01l-.103-.007c-.004.007-.009.013-.01.02-.007-.002-.014 0-.02-.001l-.03.036-.045.006a.116.116 0 0 0-.012.019h-.02a.135.135 0 0 1-.01.026c-.013.013-.04.008-.065.006a.2.2 0 0 0-.084-.022c-.008.042-.008.024-.03.047-.004 0-.008 0-.01-.003a.29.29 0 0 1 0 .021l-.037.007c-.001.007 0 .013-.002.019-.042.005-.048 0-.094-.004l-.007-.048c-.002.001-.007 0-.01-.001.004-.018.01-.036.012-.056h.01c.002-.014.002-.03.002-.044.008-.007.02-.012.028-.02l.003-.037c.003.002.006 0 .008 0l.002-.018h.01c0-.019.002-.036.003-.055a.203.203 0 0 1 .029-.018V76.7c.007-.026.02-.034.04-.046.05-.042.077.03.139.007.005-.005.008-.012.012-.018l.019.001v-.008h.037c.01-.01.019-.023.03-.036a.099.099 0 0 0 .02.001v-.01l.103.005v-.007c.006-.002.012-.001.018 0 0-.002.002-.007 0-.01h.17c.002-.012.008-.022.01-.029.018-.007.048-.02.068-.026.036-.01.064.022.102.006.007-.01.015-.018.02-.028l.029.001a.196.196 0 0 1 .019-.025c.059-.035.093.012.098-.09.02-.016.02-.026.023-.056l.018.001c0-.006 0-.013.002-.02.008-.002.016-.003.027-.008.003-.042.004-.04.023-.064l.008.001c.005-.094.008-.186.015-.281-.009-.001-.013-.002-.02 0l-.008-.227-.028-.001c-.003-.007-.007-.014-.008-.02-.021-.019-.035-.039-.065-.05l.01-.046.059-.007v-.01c.025.006.05.01.075.014.001 0 .004-.01.019-.008v.009l.045.002c.003.007.008.014.009.02l.083.032c.002.01.006.019.01.03.006 0 .011.006.017.007.001.013.006.026.009.039h.007v.038c.005.004.01.008.016.01l-.003.122h.008a.75.75 0 0 1-.003.067l-.01-.001-.001.057c-.003-.002-.006-.001-.01-.002-.002.011-.002.025-.002.037h-.01l-.004.123c-.008.017-.014.035-.022.055h.01l.044.067c.008.007.016.016.027.02.001.02.004.037.006.057a.05.05 0 0 1 .009.001c.01.033-.014.112-.024.13l-.021.008a.021.021 0 0 1 0 .01h.01v.01c.011-.01.002 0 .01-.02.007-.002.011-.003.018-.008l.003-.027ZM41.892 76.315v.02c.047.007.05.037.093.052 0 .02 0 .023.005.037H42c-.001.015-.001.031-.004.047.009.003.014.007.02.01a2.03 2.03 0 0 0-.003.056c-.005.001-.012 0-.018-.001-.002.01-.008.02-.01.028l-.03.008a.018.018 0 0 0 0 .009h-.028a.021.021 0 0 0 0 .01c-.006-.002-.014-.001-.019-.002-.002.004-.001.006-.002.009-.027.01-.077-.008-.092-.015-.075-.002-.15-.004-.224-.009l-.001-.01c-.048-.003-.098-.003-.15-.006v.01c-.01 0-.018-.001-.029-.003.001.004.002.007.001.01l-.046-.002.001.01h-.012c0-.004 0-.007.002-.01l-.17-.017c0-.01 0-.019.003-.029h-.01c-.034-.04-.048-.002-.043-.088.037-.018.045-.041.105-.04v-.01c.046-.002.095-.003.14-.003l.012-.018h.017c.002-.003.002-.005.002-.01.012.002.025.002.038.003a.224.224 0 0 1 .01-.018c.027.002.055.003.084.003v-.01c.013 0 .026-.003.037-.005.002-.005.001-.007.003-.01h.027v-.009l.028-.007v-.02h.02a.216.216 0 0 1 .011-.025c.044 0 .087.003.13.004v.011h.029l.017.03c.016.002.032.007.046.01ZM41.33 76.918c.039.003.116.04.128.063a.87.87 0 0 0-.002.038h.009c.002.031.002.064.005.095h-.01v.018l-.008-.001a1.06 1.06 0 0 1-.022.055c-.018.025-.031.028-.042.064l-.017-.001-.04.046c-.027.017-.039.009-.05.043-.067.014-.054.063-.143.06-.004-.027-.02-.094-.002-.132l.008.002v-.019l.04-.028c-.002-.013.001-.024.003-.037a.03.03 0 0 1-.01-.001l.01-.055h-.01c-.002-.012-.003-.026-.006-.037l-.072-.042c-.003-.008-.007-.013-.008-.02h-.03l.001-.009-.054-.05.01-.028a.017.017 0 0 0 .01 0c0-.01.002-.018 0-.028l.01.001c.018-.029-.006-.008.02-.027l.001-.01.018.001c0-.004.002-.007.003-.01.005.002.01.002.016.002l.002-.01c.053-.015.148.017.177.027l.046.001c0 .005 0 .008-.002.011.012.01.005 0 .01.018ZM41.187 77.767c.068.014.18.059.201.112l-.007.13h-.009v.03c-.004-.003-.007-.002-.01-.002v.01c-.067.024-.104.05-.202.046a1.35 1.35 0 0 0-.043-.059h-.008v-.036h-.008l-.009-.04c-.008-.002-.017-.006-.026-.01l-.01-.019h-.018a.047.047 0 0 0-.007-.019l-.01-.001v-.02c-.014-.008-.03-.02-.045-.03a.534.534 0 0 1-.04-.162c.007-.022.025-.045.032-.073.023-.007.059-.006.095-.004l.026.038a.318.318 0 0 1 .026.011.049.049 0 0 1 0 .019h.01c.001.007.005.014.008.02.027.022.045.014.053.059ZM40.074 64.155h5.87l-2.913-1.014-2.957 1.014ZM40.087 64.894h5.845v-.492h-5.845v.492ZM39.822 68.157h6.375v-.498h-6.375v.498ZM40.086 68.396v1.398h.642v-.97h.782v.97h1.108v-.97h.782v.97h1.108v-.97h.782v.97h.642v-1.398h-5.846ZM40.704 67.139h1.159v-1.596h-1.16v1.596Zm1.726 0h1.159v-1.596h-1.16v1.596Zm1.726 0h1.159v-1.596h-1.16v1.596Zm1.776.003v-2.008h-5.845v2.008h-.265v.246h6.375v-.246h-.265ZM39.637 70.763h6.684v-.48h-6.684v.48Z" clip-rule="evenodd"/><path fill="#1A1919" fill-rule="evenodd" d="m44.073 75.049 9.032-15.643c.638 1.4.997 2.958.997 4.597 0 3.065-1.244 5.837-3.255 7.846a11.042 11.042 0 0 1-6.774 3.2Zm-1.074.448L34.05 59.964h17.927l-8.978 15.533ZM35.15 71.85a11.06 11.06 0 0 1-3.25-7.846c0-1.64.357-3.197.996-4.596l9.032 15.642a11.06 11.06 0 0 1-6.778-3.2Zm0-15.7A11.082 11.082 0 0 1 43 52.9c3.067 0 5.84 1.244 7.847 3.25a11.114 11.114 0 0 1 2.163 3.046H32.99a11.16 11.16 0 0 1 2.16-3.046Zm19.25 7.854c0-6.299-5.104-11.404-11.4-11.404-6.298 0-11.402 5.105-11.402 11.404 0 5.996 4.631 10.91 10.511 11.361l.89 1.542.89-1.542c5.883-.451 10.512-5.365 10.512-11.361ZM123.131 58.38c-.036.177-.041.373-.084.394-.217.087-.375.155-.439.023-.07-.135 0-.402.037-.629.023-.135-.031-.284 0-.395.067-.264.229-.359.229-.359.075-.04.416-.095.416-.095s.125.172.13.305c.005.214-.228.523-.289.756Zm-.366 1.397c-.011.195.011.418-.183.47l-.391.06c-.281.048-.698-.016-.775-.037-.233-.055-.33-.217-.374-.434-.074-.287.153-.735.261-1.213.059-.27 0-.503.053-.824l.137-.16h.188l.163.16c.121.436-.096.954.082 1.355.14.324.368.107.752.206.087-.01.233.211.087.417Zm3.553.25c-.238-.092-.487-.223-.682-.267-.294-.063-.693.104-1.132.207-.276.065-.559.033-.856.113 0 0-.015-.26 0-.396.135-.789.308-1.93.698-3.124a2.73 2.73 0 0 0-.032-1.951c-.153-.357-.575-.59-.968-.618-.43-.03-1.014.163-1.816.679-.205.132-.27.28-.341.375-.19.233-.092.297.227.23.276-.062.639-.275.963-.378.17-.057.364-.08.451-.042 0 0 .217.058.341.264.168.273.211.65.233.988.021.287.065.55-.206.642-.483.154-.621.041-.964.113-.048.008-.486.279-.671.25-.1-.024-.147-.337-.327-.608-.097-.158-.334-.152-.334-.152.023-.323.179-.54.228-.832.037-.196-.088-.192-.088-.192-.368.246-.564.573-.762.723-.094.066-.201.062-.305.056-.036-.19-.005-.438.015-.739.062-.583.176-1.252.176-1.252s.27-.187.568-.378l.622-.355c.251-.23.738-.115.986-.249.24-.136.169-.49.24-.735-.088-.266-.386-.31-.582-.247-.537.18-1.12.8-1.381.74-.095-.025-.118-.43-.243-.646-.107-.182-.319-.185-.456-.246 0 .013-.287.096-.287.096-.127.47-.189 1.95-.189 4.39 0 .114.18.376.266.376.083.041.28.041.28.041s.413.07.446.13c.14.315.167.876.183 1.255.022.41-.508 1.298-.508 1.298s-.331.073-.358-.203c-.037-.316-.01-.966-.058-1.311-.027-.18.004-.638-.04-.834-.031-.129-.135-.047-.149-.017-.067.13-.098.813-.132 1.381-.037.508-.098.91-.098.91.018.319.098 1.103.119 1.23l-.4.151-.346-.018c-.238-2.067-.308-3.882-.602-5.675h-.232l-.385.389c-.07.177-.21 1.523-.21 1.523-.051.68.421 2.54.453 3.135-.011 0 0 .835 0 .835l-.156.044h-.174l-.357-.135c-.152-.991-.092-2.844-.537-3.683-.076-.145-.465-.76-.726-.86-.13-.048-.253.372-.253.372.052.434.187.556.253 1.007.142 1.084.261 2.293.335 3.276.024.13.142.196.17.326.293.053.595.075.872.163.206.074.367.222.585.249.216.027.53-.131.53-.131l.286-.324c.19-.115.765-.164 1.026-.13.2.226.427.303.563.28.145-.032.286-.355.605-.545 0 0 .293-.176.705-.19.266-.011.515.162.812.227.444.098.883.103.835.098.433 0 .395-.282.564-.385.222-.126.55-.168 1.168-.206 1.788-.114-3.074 2.69-1.462 2.416.835-.141.844-.31 1.333-.526.521-.238.758-.443 1.101-.66.16-.099.518-.142.729-.261 0 0 .087-.252.185-.422.109-.216.292-.467.334-.584-.004-.418-.334-.346-.681-.47ZM104.82 65.82c.741.139 1.885 1.002 2.562 1.77.607.688.827 1.343.886 2.02.075.687-.21.571-.356.571-.327-.135-1.133-.262-1.529-.547-.88-.647-.809-2.556-1.644-3.327-.169-.151-.146-.53.081-.488ZM120.018 70.682s-.671.34-1.201-.306c-.526-.645-.406-1.045-.406-1.045.069-.411.238-.622.694-.867.171-.113.66-.297 1.114-.297.291-.007.757-.1.894.184.096 1.138-.188 1.608-1.095 2.33Zm5.483-2.309c-.093-.213-.581-.52-.709-.758-.233-.212-.394-.303-.759-.243-.26-.017-.629.165-1.198.09-.21.018-.497-.09-.497-.09 0-.608-.104-.824-.428-1.106-.196-.092-.455-.017-.455-.017a.596.596 0 0 1-.325-.054l-.017-.297c.428-.614.656-1.1 1.213-1.62-.027 0 .461-.271.504-.346.217-.18.049-.477 0-.737-.299-.006-.651.03-1.039-.032-.316-.044-.673-.202-.942-.132-.348.087-.663.608-1.15.825-.031.015-.054.044-.081.064-.281.217-.494.403-.494.403s-.032.28.271.28c.304 0 .885-.212 1.279-.26a.71.71 0 0 1 .439.075c-.188.396-.374.851-.569 1.154-.151.223-.336.288-.358.526-.02.217.267.438.376.705.057.128.205.442.19.546l-.176.071c-.324.102-.8.022-1.168.14-.716.232-1.237.7-1.42 1.246-.141.39-.011.856.043 1.17.14.353.358.758.563.894 0 0 .211.152.682.242.471.1 1.004 0 1.004 0 1.121-.306 1.781-1.532 2.122-2.945 0 0 .32-.017.562-.022.461-.023.894.053 1.382.228.326.054.646.508 1.155.508 0 0 .112-.26 0-.508ZM78.987 62.966c.016.046.244-.14.396.122.21.197.444.65.525.706-.233 1.65.058 2.747.268 3.966 0 .035-.128.486-.128.486s.053.312-.397.185c0 0-.414-.507-.437-.531-1.448-1.277-.31-2.852-.227-4.934ZM113.632 61.482s.196-.356.326-.249c.205.175.433.608.473.737.475 1.782-.662 2.353-1.421 2.948.05.03-.634.194-.487-.738.081-.6.946-1.471 1.109-2.698ZM96.81 61.501c.06-.01.31-.088.445.035.06.058.028.153.105.246.104.146.221.22.205.303-.03.105-.176.056-.351.047-.479-.053-.729-.596-.404-.631ZM70.229 62.27c-.52.27-1.494.696-1.4.516l.018-1.005s.956-.093 1.219-.198c0-.035.192-.256.122-.496-.058-.205-.303-.309-.28-.321-.233-.105-1.137.105-1.137.105s-.041-.804-.041-.956c.524-.14 1.68-.578 2.216-.537.432.024 1.243-.058 1.284.14.128.596-1.775 2.637-2.001 2.753Zm-2.77 1.023-1.04.18s-.874.21-1.166.186c0 0-.204-.617-.216-.733-.006-.212-.099-.41.117-.572.215-.158.67-.222 1.196-.245a21.886 21.886 0 0 0 1.108-.084v1.268Zm6.847-3.81c-.058-.27-.168-.316-.262-.776-.1-.475-.636-.795-1.02-.65-.806.29-3.955.724-3.955.724v-.748s.827-.285 1.061-.58c.012.012.058-.396-.106-.622-.116-.181-.443-.163-.489-.329-.328-1.125-.024-2.023-.158-2.486-.216-.672-1.02-.732-1.353-.79-.904-.165-1.237.403-.975 1.036.013.147.327.589.327.589l.047 1.799s-.145.043-.677.158c-.465.102-1.341.273-1.37.383 0 0-.1.297.023.496.123.192.473.278.507.294.42.124 1.528.113 1.528.113v.998c-1.067.204-2.893.37-3.231.59-.047.985 3.22.513 3.22.513v.997s-1.82.433-2.637.556c-.034 0-1.073-.585-1.254-.596-.601-.041-.53.261-.53.261.372.928.746 1.85 1.055 2.912.146.093.537.156.876.128.436-.035.88-.223 1.276-.303.655-.128 1.167-.163 1.167-.163v.85s-.746.537-.944.807c-.87 1.124-1.72 1.808-2.777 2.658-.133.106-.496.41-.391.514.344 0 .706-.058 1.033-.123.35-.076 1.061-.635 1.346-.858.508-.407 1.243-1.476 1.758-1.854l.033.876c-.07 1.504.059 2.291-.033 2.345-.2.18-.753.058-1.758.058l-.04.309c.606.35.888.589 1.47.835l.256.389c.176.159.923.06 1.074-.27.076-.587-.129-4.944 0-5.153.199-.368.676-1.133.723-1.18.281-.268.677-.519 1.004-.717.244-.14 1.014-1.051 1.586-1.529.805-.681 1.587-1.223 2.41-1.814.052-.04.104-.162.163-.204 0 0 .04-.343.017-.443ZM83.548 55.627s.209-.306.373-.268c.402.115.956.45 1.003.596 0 .029-.047.345-.187.468-.064.357-.006.76-.034.976 0 0 1.056-.098 1.405-.202.385-.116.66-.284 1.155-.429-.023.012.222.11.228.288 0 .196-.244.435-.244.467-.76.37-2.404.814-2.754.919-.07.017-.648 2.033-1.225 3.486-.245.623-.677 1.043-.81 1.383-.054.137.11.197.086.243.013-.016.805-.291.805-.291.175-.081.823-.502.882-.478.157.052-.66.997-1.08 1.405-.128.157-.082.507-.082.507.158 0 .688-.021.817-.097.011-.019.21-.491.245-.543.192-.269.968-.764 1.067-1.05.089-.337-.274-1.038-.274-1.038v-.375l.263-.256s.379-.175.547-.227c.223-.07.888-.113 1.552-.182.509-.063 1.337-.14 2.117-.262.422-.076.83-.229 1.162-.251.531-.021.816.083.974.21 0 0 .233.456.245.647.047.402.053.95.07 1.303.007.21.28.302.28.49 0 .372-.309.698-.444 1.107-.122.349-.04.784-.15 1.2-.17.626-1.436 3.905-1.669 4.295-.187.303-.503.538-.688.555 0 0-.49.05-.49.063-.304-.555-.164-.303-.595-.676-.42-.374-.851-.968-1.32-1.318 0 0 .188-.211.304-.211.608 0 1.144.06 1.751.06 0 0 .257-.084.385-.34.502-1.02 1.049-2.544 1.259-3.744.181-1.156-.005-1.481.03-2.228 0 0-.122-.212-.25-.212 0 0-.316-.08-.528-.08a34.87 34.87 0 0 0-3.463.227c-.059.159.04.938.04.938-.327.293-1.242.677-1.376 1.092v.531c.6-.116 1.16-.445 1.557-.479.163-.023.291.21.291.21a7.141 7.141 0 0 1-.408.21c-.413.194-.63.245-1.167.49V65.9c.514-.123.73-.246 1.063-.164.57.142.245.404.081.57-.409.186-1.097.516-1.097.516s-.033.84-.175 1.668c-.104.706-.303 1.365-.355 1.775-.368.197-.414.472-.636.547-.198.065-.455.174-.712.162-.116 0-.198-.097-.198-.097s-.163-.032.093-.415c.153-.216.606-.607.59-.607.064-.41.18-.842.227-1.3.035-.329.023-1.243.023-1.243l-1.434.246-.711.01c0-.024-.21-.338-.21-.338.104 0 .238-.053.42-.106.267-.076.588-.163.588-.163s.94-.514 1.405-.736l-.04-.953c-.665.172-.939.372-1.568.64l-.537-.268c-.216-.55.175-.888-.175-1.454-.083-.123-.725-.449-.887-.657 1.516-1.449 1.925-2.464 2.473-5.05-.548.012-.863.054-1.201.016-.268-.025-.817-.057-1.04-.135 0 0-.314-.472-.28-.636.013-.097.421-.165.421-.165.233.083 1.983.02 1.983.02s.268-.173.303-.184c.023-.585-.093-1.55-.07-1.772ZM101.665 55.34s.059-.343.157-.343a.92.92 0 0 1 .466.16c.064.04.177.184.177.184 0 1.835-.025 4.33.086 5.95.019.217.234.268.234.268s.361-.04.864-.162c.337-.078.723-.234 1.09-.286a4.9 4.9 0 0 0 1.662-.555c.326-.174.525-.682.829-.868.444-.17.706.542.782.677.221.4.25.722.29.908-.022.344-.198.46-.319.531-.281.124-.748.06-1.029.14l-.728.291c-1.201.329-2.065.76-3.08 1.017-.391.099-.768.075-1.121.164-.192 1.352-.337 3.336-.897 4.501-.595 1.243-1.237 1.25-3.115 1.243-.129 0-.688.042-.822.042l-.1-.264.129-.285c1.05-.62 1.913-1.049 2.46-1.832.543-.76 1.017-2.1 1.168-3.08.034-.127 0-.368 0-.368-.293-.105-1.306-.274-1.797-.547-.432-.25-.932-.63-1.083-.881 0 0 .138-.197.242-.197.247 0 .44-.082.673-.082.933-.007 1.848.068 2.245.034a.328.328 0 0 0 .223-.106s.053-1.608.162-2.87c.07-.822.152-3.383.152-3.383Z" clip-rule="evenodd"/><path fill="#1A1919" fill-rule="evenodd" d="m70.054 66.595.012-.264.204-.065 2.729.712.84.35.32.572-.08.509-.321.245-.106.262-.139.472-.327.058-.444-.286-.192-.506-.175-.654-.39-.367-.899-.39-.735-.386-.297-.262ZM65.129 72.47l.027 1.125h-.102a1.152 1.152 0 0 0-.354-.68.891.891 0 0 0-.611-.258.573.573 0 0 0-.402.135.415.415 0 0 0-.148.313c0 .075.018.14.052.198a.839.839 0 0 0 .232.232c.078.055.258.152.54.29.394.195.66.378.798.551a.93.93 0 0 1 .204.592c0 .282-.11.525-.33.728-.22.203-.498.305-.836.305-.107 0-.207-.012-.302-.033a2.328 2.328 0 0 1-.356-.122.538.538 0 0 0-.196-.05.245.245 0 0 0-.137.05.34.34 0 0 0-.116.152h-.093v-1.274h.093c.072.358.213.632.42.82.21.188.434.282.674.282.186 0 .333-.05.444-.151a.468.468 0 0 0 .166-.354.462.462 0 0 0-.064-.231.738.738 0 0 0-.193-.213 2.923 2.923 0 0 0-.458-.262c-.307-.152-.527-.28-.662-.386a1.177 1.177 0 0 1-.309-.355.882.882 0 0 1-.108-.433c0-.27.098-.498.296-.687.197-.19.446-.284.746-.284a1.265 1.265 0 0 1 .603.151c.113.054.19.08.236.08a.133.133 0 0 0 .102-.04.466.466 0 0 0 .069-.19h.075ZM67.567 72.66c-.308 0-.543.157-.704.472-.131.26-.197.63-.197 1.115 0 .576.101 1 .304 1.275a.69.69 0 0 0 .592.29c.17 0 .313-.041.428-.125.146-.106.26-.276.34-.509.081-.232.122-.537.122-.911 0-.447-.041-.78-.124-1.001-.083-.222-.188-.379-.317-.47a.745.745 0 0 0-.444-.136Zm-.03-.16c.537-.02.974.137 1.31.47.335.334.504.75.504 1.252a1.8 1.8 0 0 1-.376 1.13c-.332.43-.8.646-1.406.646-.607 0-1.076-.206-1.407-.617a1.784 1.784 0 0 1-.394-1.157c0-.5.17-.918.512-1.252.34-.335.76-.491 1.257-.471ZM69.651 72.547h1.742v.093h-.088c-.13 0-.22.013-.27.04a.23.23 0 0 0-.104.114c-.02.048-.03.168-.03.36v1.653c0 .301.022.5.068.599.045.098.12.179.224.243a.74.74 0 0 0 .397.097c.182 0 .337-.04.466-.123a.756.756 0 0 0 .29-.34c.062-.143.094-.395.094-.752v-1.377c0-.15-.015-.258-.047-.322a.282.282 0 0 0-.12-.135.712.712 0 0 0-.315-.058v-.091h1.166v.091h-.07a.45.45 0 0 0-.235.058.322.322 0 0 0-.137.172.834.834 0 0 0-.033.285v1.282c0 .396-.026.682-.079.858-.051.176-.179.338-.381.485-.203.148-.479.221-.829.221-.291 0-.517-.038-.676-.117-.218-.106-.37-.241-.46-.408-.09-.165-.135-.388-.135-.668v-1.653c0-.194-.01-.314-.032-.361a.244.244 0 0 0-.112-.114c-.053-.028-.151-.04-.294-.04v-.091ZM76.426 72.547v.913h-.09c-.053-.21-.112-.362-.177-.454a.684.684 0 0 0-.266-.22c-.063-.03-.174-.044-.33-.044h-.252v2.601c0 .173.01.28.029.324a.253.253 0 0 0 .112.113.451.451 0 0 0 .228.049h.111v.092h-1.766v-.092h.112a.472.472 0 0 0 .237-.052.242.242 0 0 0 .101-.12c.019-.04.028-.144.028-.314v-2.601h-.244c-.227 0-.393.048-.496.144-.144.134-.234.326-.273.574h-.094v-.912h3.03ZM78.002 74.299v1.044c0 .173.01.281.03.324a.25.25 0 0 0 .111.113c.056.032.13.048.225.048h.112v.093h-1.764v-.093h.113a.475.475 0 0 0 .237-.05.235.235 0 0 0 .098-.12c.018-.04.028-.145.028-.315v-2.219c0-.171-.01-.28-.028-.323a.252.252 0 0 0-.11-.113.445.445 0 0 0-.225-.048h-.112v-.092h1.763v.092h-.112a.475.475 0 0 0-.236.052.247.247 0 0 0-.102.12c-.019.04-.028.144-.028.313v.955h1.192v-.956c0-.171-.009-.28-.027-.323a.253.253 0 0 0-.112-.113.454.454 0 0 0-.226-.048h-.11v-.092h1.762v.092h-.11a.46.46 0 0 0-.236.052.24.24 0 0 0-.102.12c-.019.04-.028.144-.028.313v2.218c0 .173.01.281.028.324a.246.246 0 0 0 .112.113.451.451 0 0 0 .226.048h.11v.093h-1.762v-.093h.11c.099 0 .178-.017.236-.05a.24.24 0 0 0 .102-.12c.018-.04.027-.145.027-.315V74.3h-1.192ZM81.96 72.742v1.373h.068c.214 0 .37-.067.465-.202.097-.134.157-.332.184-.594h.095v1.766h-.095a1.32 1.32 0 0 0-.126-.472.542.542 0 0 0-.222-.248.845.845 0 0 0-.368-.064v.95c0 .187.008.3.024.342a.207.207 0 0 0 .088.102c.043.026.113.04.208.04h.203c.315 0 .567-.073.757-.22.19-.146.326-.368.41-.666h.091l-.152 1.072h-2.915v-.093h.112a.466.466 0 0 0 .236-.05.233.233 0 0 0 .1-.12c.018-.04.027-.145.027-.314v-2.22c0-.151-.004-.246-.012-.28a.242.242 0 0 0-.092-.135.43.43 0 0 0-.26-.07h-.111v-.092h2.824v.998h-.094c-.05-.244-.117-.418-.204-.525a.754.754 0 0 0-.37-.233c-.093-.03-.266-.045-.522-.045h-.348ZM86.006 74.776l-.503-1.161-.517 1.161h1.02Zm.084.185h-1.191l-.142.328c-.047.11-.07.2-.07.271 0 .095.038.165.115.209.044.026.155.046.331.06v.092h-1.122v-.093a.497.497 0 0 0 .298-.15c.078-.081.175-.251.289-.509l1.206-2.691h.048l1.215 2.766c.117.262.213.427.288.496a.381.381 0 0 0 .238.088v.093h-1.632v-.093h.067c.131 0 .223-.017.276-.054a.132.132 0 0 0 .055-.114.317.317 0 0 0-.015-.092 2.697 2.697 0 0 0-.074-.187l-.18-.42ZM90.043 72.47l.028 1.125h-.102a1.16 1.16 0 0 0-.354-.68.893.893 0 0 0-.612-.258.574.574 0 0 0-.401.135.415.415 0 0 0-.148.313c0 .075.018.14.052.198a.842.842 0 0 0 .231.232c.08.055.258.152.54.29.395.195.662.378.799.551.136.173.204.37.204.592a.96.96 0 0 1-.329.728c-.22.203-.5.305-.838.305-.107 0-.206-.012-.3-.033a2.306 2.306 0 0 1-.357-.122.538.538 0 0 0-.196-.05.244.244 0 0 0-.137.05.34.34 0 0 0-.117.152h-.091v-1.274h.091c.073.358.214.632.422.82.208.188.432.282.673.282.185 0 .333-.05.444-.151a.467.467 0 0 0 .165-.354c0-.08-.02-.156-.062-.231a.749.749 0 0 0-.194-.213 2.916 2.916 0 0 0-.458-.262 3.988 3.988 0 0 1-.661-.386 1.18 1.18 0 0 1-.31-.355.878.878 0 0 1-.108-.433c0-.27.098-.498.296-.687.198-.19.446-.284.745-.284a1.273 1.273 0 0 1 .604.151.67.67 0 0 0 .235.08.132.132 0 0 0 .103-.04.481.481 0 0 0 .07-.19h.073ZM93.697 72.547v.913h-.089c-.053-.21-.11-.362-.176-.454a.666.666 0 0 0-.267-.22c-.062-.03-.173-.044-.33-.044h-.252v2.601c0 .173.01.28.029.324.019.043.056.081.112.113a.453.453 0 0 0 .228.049h.112v.092h-1.767v-.092h.113a.473.473 0 0 0 .236-.052.245.245 0 0 0 .101-.12c.018-.04.028-.144.028-.314v-2.601h-.244c-.228 0-.393.048-.495.144-.144.134-.235.326-.274.574h-.094v-.912h3.03ZM95.183 72.547h1.742v.093h-.088c-.13 0-.22.013-.27.04a.234.234 0 0 0-.104.114c-.02.048-.03.168-.03.36v1.653c0 .301.022.5.068.599.045.098.12.179.224.243a.74.74 0 0 0 .397.097c.182 0 .338-.04.466-.123a.748.748 0 0 0 .288-.34c.064-.143.096-.395.096-.752v-1.377a.79.79 0 0 0-.047-.322.284.284 0 0 0-.12-.135.712.712 0 0 0-.315-.058v-.091h1.167v.091h-.07a.455.455 0 0 0-.237.058.329.329 0 0 0-.137.172.85.85 0 0 0-.032.285v1.282c0 .396-.026.682-.079.858-.051.176-.18.338-.382.485-.201.148-.478.221-.827.221-.293 0-.518-.038-.677-.117-.217-.106-.37-.241-.46-.408-.09-.165-.135-.388-.135-.668v-1.653c0-.194-.01-.314-.032-.361a.246.246 0 0 0-.112-.114c-.054-.028-.152-.04-.294-.04v-.091ZM100.012 72.547l1.664 2.092v-1.45c0-.202-.028-.339-.087-.41-.079-.096-.213-.143-.4-.14v-.091h1.114v.091a.866.866 0 0 0-.288.071.295.295 0 0 0-.113.142.95.95 0 0 0-.042.337v2.809h-.084l-2.281-2.809v2.145c0 .194.044.325.133.393.089.068.19.102.305.102h.079v.092h-1.196v-.092c.184-.001.315-.04.387-.115.074-.074.11-.201.11-.38v-2.38l-.073-.09a.64.64 0 0 0-.188-.178.583.583 0 0 0-.236-.047v-.091h1.196ZM104.289 75.829v.092h-1.765v-.093h.113a.472.472 0 0 0 .236-.05.225.225 0 0 0 .099-.12c.018-.04.028-.145.028-.314v-2.22c0-.171-.01-.28-.028-.323a.24.24 0 0 0-.111-.112.435.435 0 0 0-.224-.05h-.113v-.092h1.765v.093h-.112a.468.468 0 0 0-.237.052.24.24 0 0 0-.102.12c-.018.04-.027.144-.027.313v2.219c0 .172.009.28.028.323.02.043.057.081.112.113a.444.444 0 0 0 .226.049h.112ZM108.033 72.547v.093a.551.551 0 0 0-.329.196c-.07.084-.172.278-.311.585l-1.162 2.577h-.082l-1.156-2.682c-.14-.323-.233-.513-.281-.57-.047-.056-.135-.091-.267-.106v-.093h1.618v.093h-.056c-.145 0-.244.018-.297.055a.12.12 0 0 0-.058.108c0 .031.006.066.019.106.013.041.059.15.135.328l.719 1.678.666-1.494c.08-.181.129-.303.148-.363a.577.577 0 0 0 .027-.157.236.236 0 0 0-.039-.132.258.258 0 0 0-.118-.088.793.793 0 0 0-.284-.041v-.093h1.108ZM109.473 72.742v1.373h.068c.213 0 .368-.067.465-.202.095-.134.156-.332.183-.594h.095v1.766h-.095a1.297 1.297 0 0 0-.125-.472.541.541 0 0 0-.223-.248.843.843 0 0 0-.368-.064v.95c0 .187.008.3.024.342a.206.206 0 0 0 .088.102c.044.026.112.04.209.04h.202c.315 0 .567-.073.757-.22.19-.146.326-.368.409-.666h.093l-.153 1.072h-2.915v-.093h.112a.47.47 0 0 0 .236-.05.225.225 0 0 0 .099-.12c.019-.04.028-.145.028-.314v-2.22c0-.151-.004-.246-.012-.28a.245.245 0 0 0-.092-.135.428.428 0 0 0-.259-.07h-.112v-.092h2.823v.998h-.094c-.048-.244-.116-.418-.202-.525a.762.762 0 0 0-.37-.233c-.093-.03-.267-.045-.523-.045h-.348ZM112.837 72.73v1.477h.142c.229 0 .402-.021.517-.063a.521.521 0 0 0 .27-.23.84.84 0 0 0 .098-.43c0-.258-.061-.448-.18-.57-.121-.124-.314-.185-.581-.185h-.266Zm0 1.654v.945c0 .182.011.297.033.344a.247.247 0 0 0 .118.113c.057.029.162.042.316.042v.093h-1.726v-.093c.156 0 .261-.014.317-.042a.254.254 0 0 0 .116-.114c.024-.047.034-.161.034-.343v-2.19c0-.182-.01-.297-.034-.344a.239.239 0 0 0-.118-.114c-.056-.028-.16-.041-.315-.041v-.092h1.567c.408 0 .706.028.896.084.189.056.343.16.462.312.12.152.18.33.18.533 0 .25-.09.455-.269.618a1.12 1.12 0 0 1-.48.231l.81 1.142c.107.148.182.24.228.276.067.051.146.08.235.084v.093h-1.061l-1.088-1.537h-.221ZM117.555 72.47l.028 1.125h-.102a1.151 1.151 0 0 0-.354-.68c-.189-.172-.392-.258-.612-.258a.574.574 0 0 0-.401.135.413.413 0 0 0-.148.313c0 .075.017.14.052.198a.855.855 0 0 0 .232.232c.078.055.258.152.539.29.395.195.662.378.799.551a.93.93 0 0 1 .204.592.96.96 0 0 1-.329.728c-.22.203-.499.305-.838.305-.106 0-.206-.012-.301-.033a2.336 2.336 0 0 1-.356-.122.536.536 0 0 0-.197-.05.244.244 0 0 0-.136.05.346.346 0 0 0-.117.152h-.092v-1.274h.092c.073.358.213.632.422.82.208.188.432.282.673.282.186 0 .334-.05.444-.151a.467.467 0 0 0 .165-.354.466.466 0 0 0-.063-.231.722.722 0 0 0-.193-.213 2.967 2.967 0 0 0-.458-.262 4.097 4.097 0 0 1-.662-.386 1.192 1.192 0 0 1-.309-.355.886.886 0 0 1-.108-.433c0-.27.098-.498.296-.687.197-.19.446-.284.746-.284a1.26 1.26 0 0 1 .603.151c.112.054.191.08.236.08a.13.13 0 0 0 .101-.04.464.464 0 0 0 .07-.19h.074ZM119.862 75.829v.092h-1.764v-.093h.111a.47.47 0 0 0 .237-.05.225.225 0 0 0 .099-.12c.019-.04.029-.145.029-.314v-2.22c0-.171-.01-.28-.029-.323a.248.248 0 0 0-.11-.112.438.438 0 0 0-.226-.05h-.111v-.092h1.764v.093h-.112a.473.473 0 0 0-.237.052.233.233 0 0 0-.101.12c-.018.04-.028.144-.028.313v2.219c0 .172.01.28.029.323a.248.248 0 0 0 .112.113c.055.033.13.049.225.049h.112ZM123.192 72.547v.913h-.089c-.052-.21-.111-.362-.176-.454a.682.682 0 0 0-.267-.22c-.063-.03-.173-.044-.33-.044h-.252v2.601c0 .173.011.28.029.324a.253.253 0 0 0 .111.113.456.456 0 0 0 .229.049h.112v.092h-1.767v-.092h.112a.47.47 0 0 0 .236-.052.231.231 0 0 0 .101-.12c.019-.04.029-.144.029-.314v-2.601h-.244c-.228 0-.392.048-.494.144-.146.134-.237.326-.274.574h-.095v-.912h3.029ZM127 72.547v.093a.498.498 0 0 0-.257.097c-.082.07-.213.259-.393.569l-.732 1.222v.815c0 .174.01.283.028.325.018.043.054.08.108.112a.415.415 0 0 0 .215.049h.189v.092h-1.893v-.092h.177c.1 0 .178-.018.236-.052a.242.242 0 0 0 .102-.12c.018-.04.028-.144.028-.314v-.676l-.793-1.445c-.159-.286-.269-.454-.334-.504a.417.417 0 0 0-.259-.079v-.091h1.617v.091h-.071c-.099 0-.168.014-.206.042-.039.03-.059.06-.059.09 0 .06.067.21.199.45l.611 1.118.606-1.018c.15-.249.226-.413.226-.495 0-.045-.022-.082-.065-.112-.056-.041-.159-.067-.311-.075v-.091H127Z" clip-rule="evenodd"/></g><defs><filter id="a" width="154" height="157" x="0" y="0" color-interpolation-filters="sRGB" filterUnits="userSpaceOnUse"><feFlood flood-opacity="0" result="BackgroundImageFix"/><feColorMatrix in="SourceAlpha" result="hardAlpha" values="0 0 0 0 0 0 0 0 0 0 0 0 0 0 0 0 0 0 127 0"/><feOffset dy="16"/><feGaussianBlur stdDeviation="6.5"/><feColorMatrix values="0 0 0 0 0 0 0 0 0 0 0 0 0 0 0 0 0 0 0.03 0"/><feBlend in2="BackgroundImageFix" result="effect1_dropShadow_185_48"/><feBlend in="SourceGraphic" in2="effect1_dropShadow_185_48" result="shape"/></filter></defs></svg>