<svg xmlns="http://www.w3.org/2000/svg" xml:space="preserve" style="fill-rule:evenodd;clip-rule:evenodd;stroke-linejoin:round;stroke-miterlimit:2" viewBox="0 0 157 157"><path d="M100.4 240.1C56 240.1 20 276.2 20 320.5c0 44.3 36.1 80.4 80.4 80.4 44.4 0 80.4-36.1 80.4-80.4 0-44.3-36-80.4-80.4-80.4m0 158.3c-42.9 0-77.9-34.9-77.9-77.9 0-42.9 34.9-77.9 77.9-77.9 42.9 0 77.9 34.9 77.9 77.9 0 42.9-34.9 77.9-77.9 77.9" style="fill:#9d1d20;fill-rule:nonzero" transform="matrix(.6219 0 0 .6219 16.062 -120.816)"/><path d="m162 320.8-.2 2.1 3.5 2.5-3.8 1.9-.2 2.2 5.6-3 3.9.3.2-1.9-3.9-.3-5.1-3.8ZM162.7 330.4l-1.5-.4-1.6 7.2 1.5.4.6-2.7 7.6 1.6.4-1.8-7.6-1.7.6-2.6Z" style="fill:#9d1d20;fill-rule:nonzero" transform="matrix(.6219 0 0 .6219 16.062 -120.816)"/><path d="M162.3 336.3h1.9v9.3h-1.9z" style="fill:#9d1d20" transform="scale(.6219) rotate(-71.857 42.082 225.964)"/><path d="M164 344.9c-.5-.2-1-.3-1.5-.3-.5.1-.9.2-1.3.5s-.9.8-1.4 1.6c-.6.7-1 1.2-1.3 1.3-.2.1-.4.1-.6 0-.2-.1-.4-.3-.4-.5-.1-.4 0-.8.2-1.3s.5-.8.8-1c.3-.2.7-.2 1.2 0l.7-1.7c-.8-.3-1.5-.3-2.3 0-.7.3-1.3 1-1.8 2.1-.3.7-.4 1.3-.5 1.8 0 .5.1 1 .4 1.4.3.4.6.7 1 .9.7.3 1.4.3 2.1 0 .5-.2 1.1-.7 1.7-1.6.5-.6.8-1 1-1.2.2-.2.5-.4.7-.5.2-.1.4 0 .6.1.3.1.5.4.6.8.1.4 0 .9-.2 1.4-.2.5-.5.9-1 1.1-.4.2-.9.2-1.5.1l-.6 1.7c1 .3 1.9.3 2.6-.1.7-.3 1.4-1.1 1.9-2.1.3-.7.5-1.4.5-2 0-.6-.1-1.1-.4-1.6-.4-.4-.7-.7-1.2-.9M158.3 354.9c-.4.1-.8.2-1.2.4.3-.7.4-1.4.3-2-.2-.6-.5-1.1-1.1-1.5-.5-.3-.9-.5-1.5-.5-.5 0-.9.1-1.3.4-.4.3-.8.8-1.4 1.7l-2.1 3.3 7.8 5 1-1.6-3.3-2.1.2-.3c.2-.4.4-.6.6-.7l.6-.3c.2 0 .8-.1 1.7-.1h2.4l1.2-1.9h-2.1c-.8.1-1.4.2-1.8.2m-2.4-.1c-.1.2-.3.7-.8 1.5l-.7 1.2-2-1.3.8-1.2c.4-.6.7-1 .8-1.1.2-.2.4-.4.7-.4.3 0 .5 0 .8.2.2.2.4.3.5.5-.1.1-.1.3-.1.6M151.1 367.4l-1.9-1.7 3.1-3.5-1.2-1-3.1 3.5-1.5-1.4 3.3-3.7-1.1-1.1-4.6 5.2 6.9 6.1 4.7-5.2-1.1-1.1-3.5 3.9ZM141.7 365.9l2.7 6.7-6.2-3.8-1.6 1.4 8.6 4.9 1.5-1.3-3.5-9.2-1.5 1.3Z" style="fill:#9d1d20;fill-rule:nonzero" transform="matrix(.6219 0 0 .6219 16.062 -120.816)"/><path d="M136.5 370.5h1.9v9.3h-1.9z" style="fill:#9d1d20" transform="scale(.6219) rotate(-34.056 -166.866 235.797)"/><path d="m130.6 373.9 2.9 5.5-6.3-3.7-1.6.8 4.3 8.2 1.6-.8-2.8-5.3 6.1 3.6 1.7-.9-4.3-8.2-1.6.8ZM123.5 377.4l-1.8.6 1.6 4.9c.2.7.4 1.2.4 1.5 0 .3 0 .6-.2.9-.2.3-.5.5-1 .7-.5.2-.9.2-1.3.1s-.6-.3-.8-.7c-.1-.2-.3-.7-.6-1.4l-1.6-4.8-1.8.6 1.6 4.7c.3 1 .6 1.7.9 2.2.2.3.5.6.8.8.4.2.8.4 1.3.4s1.2-.1 2-.4c.7-.2 1.2-.5 1.6-.8.4-.3.6-.7.8-1.1.2-.4.2-.8.2-1.3-.1-.5-.3-1.2-.6-2.3l-1.5-4.6ZM108.6 381.3l.3 3.6-3.6.4-.4-3.6-1.9.1 1 9.3 1.8-.2-.4-4 3.7-.4.4 4 1.9-.2-1-9.2-1.8.2ZM95.5 383.8c.5-.5 1-.7 1.7-.7.5 0 .9.2 1.2.5.3.3.5.7.6 1.2l1.9-.3c-.2-.7-.5-1.3-.9-1.8-.7-.7-1.6-1.1-2.7-1.2-1.3-.1-2.4.3-3.2 1.1-.9.8-1.3 2-1.4 3.5-.1 1.5.3 2.6 1 3.5.8.9 1.7 1.4 3 1.4 1 .1 1.8-.1 2.5-.6s1.2-1.2 1.5-2.2l-1.8-.7c-.2.7-.5 1.2-.9 1.5-.4.3-.8.4-1.3.4-.7 0-1.2-.3-1.6-.8-.4-.5-.6-1.4-.5-2.5.2-1 .4-1.8.9-2.3M82.6 388.9l7 1.4.3-1.5-5.1-1 .5-2.5 4.6.9.3-1.5-4.6-1 .4-2 5 1 .3-1.5-6.8-1.4-1.9 9.1ZM76.1 376.9l-.5 1.5 2.6.9-2.7 7.3 1.8.6 2.6-7.2 2.6.9.6-1.5-7-2.5ZM70.8 384.6l-1.7-.8 4-8.4 1.7.8-4 8.4ZM59 377.9l1.7 1 1.8-1.4 3.1 2-.4 2.2 1.7 1.1 1.8-9.9-1.7-1.1-8 6.1Zm7 0-2.2-1.3 2.9-2.3-.7 3.6ZM61.6 368l-2.4 2.7-2.8-2.4 2.4-2.7-1.4-1.3-6.1 7.1 1.4 1.2 2.6-3.1 2.8 2.4-2.6 3.1 1.4 1.2 6.1-7-1.4-1.2ZM50 362.5l-1.2 1 1.4 1.7-.9.8c-.3-.1-.7-.2-1.1-.4-.4-.2-.7-.5-.9-.8-.5-.6-.7-1.3-.6-2 .1-.7.6-1.4 1.4-2.2.8-.7 1.5-1 2.2-.9.7 0 1.3.4 1.9 1 .3.4.5.9.6 1.3 0 .4-.1.9-.4 1.3l1.5 1.2c.5-.7.8-1.4.7-2.3 0-.8-.4-1.7-1.2-2.5-.6-.7-1.2-1.2-1.8-1.4-.8-.3-1.6-.4-2.5-.3-.8.2-1.6.6-2.4 1.2-.7.6-1.2 1.2-1.6 2-.4.8-.4 1.6-.3 2.4.1.8.5 1.6 1.2 2.4.5.6 1.1 1.1 1.8 1.5.7.4 1.3.6 1.9.7l2.9-2.4-2.6-3.3ZM48.4 353l-5.4 3.2 3.4-6.5-.9-1.5-8 4.7.9 1.5 5.2-3.1-3.3 6.3.9 1.6 8-4.7-.8-1.5ZM42.8 341.7h-10l.7 1.8h2.2l1.4 3.5-1.7 1.5.7 1.9 7.3-6.9-.6-1.8Zm-4.4 4.1-.9-2.4 3.7-.1-2.8 2.5ZM40.8 335.2l-3.6.8-.8-3.6 3.6-.8-.4-1.8-9.1 2 .4 1.8 4-.9.8 3.6-4 .9.4 1.8 9.1-1.9-.4-1.9ZM31.2 328c.5.3 1 .4 1.5.3.6 0 1.1-.2 1.5-.5.4-.3.7-.6.9-1.1.2-.5.4-1.1.5-2.1.2-.9.3-1.5.5-1.7.1-.2.3-.3.5-.3s.4.1.6.3c.2.3.4.7.4 1.3 0 .5 0 .9-.2 1.2-.2.3-.5.5-1 .6l.2 1.9c.9-.1 1.5-.4 2-1.1.5-.6.7-1.5.6-2.7 0-.7-.2-1.3-.4-1.8s-.6-.9-1-1.1c-.4-.2-.9-.3-1.4-.3-.7 0-1.3.4-1.8 1-.3.4-.6 1.2-.8 2.2-.2.8-.3 1.3-.3 1.5-.1.3-.2.6-.4.7-.2.1-.3.2-.5.2-.3 0-.7-.1-.9-.4-.3-.3-.4-.7-.5-1.3 0-.6.1-1 .3-1.4.3-.3.7-.6 1.3-.8l-.3-1.8c-1 .2-1.8.6-2.3 1.3-.5.7-.7 1.6-.6 2.8 0 .8.2 1.5.5 2 .3.4.7.8 1.1 1.1" style="fill:#9d1d20;fill-rule:nonzero" transform="matrix(.6219 0 0 .6219 16.062 -120.816)"/><path d="M77.6 329.7h1.3v8.5h-1.3zM80.3 327.3h1.3v9.5h-1.3zM85.9 324.1h1.3v10.3h-1.3zM83.1 325.6h1.3v9.9h-1.3zM88.7 322.9H90v10.6h-1.3zM91.5 322h1.3v10.8h-1.3zM74.8 332.4h1.3v7.7h-1.3zM72 336.1h1.3v5.9H72zM69.2 340h1.3v4.3h-1.3zM66.4 343.1h1.3v3h-1.3zM63.6 345.4h1.3v2.2h-1.3zM60.9 347.4h1.3v1.6h-1.3zM122.1 329.7h1.3v8.5h-1.3zM119.3 327.3h1.3v9.5h-1.3zM113.7 324.1h1.3v10.3h-1.3zM116.5 325.6h1.3v9.9h-1.3zM110.9 322.9h1.3v10.6h-1.3zM108.1 322h1.3v10.8h-1.3zM124.8 332.4h1.3v7.7h-1.3zM127.6 336.1h1.3v5.9h-1.3zM130.4 340h1.3v4.3h-1.3zM133.2 343.1h1.3v3h-1.3zM136 345.4h1.3v2.2H136zM138.7 347.4h1.3v1.6h-1.3z" style="fill:#9d1d20" transform="matrix(.6219 0 0 .6219 16.062 -120.816)"/><path d="M91.8 364.1c.5-.4.8-.7.9-.9.3-.3.4-.6.6-1 .1-.3.2-.6.2-.9 0-.6-.2-1.1-.6-1.5-.4-.4-1-.6-1.7-.6s-1.2.2-1.7.5c-.4.3-.7.9-.8 1.7l1.4.1c0-.4.1-.7.3-.9.2-.2.4-.3.7-.3.3 0 .5.1.7.3.2.2.3.4.3.7 0 .3-.1.6-.3.9-.1.2-.5.6-1.2 1.2-.8.7-1.3 1.3-1.6 1.8-.3.4-.4.9-.5 1.4h5v-1.3h-2.8c.1-.1.2-.3.3-.4l.8-.8M97.9 359.2c-.7 0-1.3.2-1.7.8-.5.6-.7 1.6-.7 3s.2 2.4.7 3c.4.6 1 .8 1.7.8s1.3-.3 1.7-.8c.5-.6.7-1.6.7-3s-.2-2.4-.7-3c-.4-.5-1-.8-1.7-.8m.8 5.6c-.1.3-.2.5-.3.6-.1.1-.3.2-.5.2s-.3 0-.5-.2c-.1-.1-.2-.3-.3-.7-.1-.3-.1-.9-.1-1.8s0-1.5.1-1.8c.1-.3.2-.5.3-.6.1-.1.3-.2.5-.2s.3 0 .5.2c.1.1.2.3.3.6.1.3.1.9.1 1.8 0 1 0 1.6-.1 1.9M103.3 360.4c-.4.3-.8.6-1.2.7v1.3c.7-.2 1.3-.6 1.8-1.1v5.3h1.4v-7.4h-1.2c-.1.5-.4.9-.8 1.2M111 362.7c.7-.4 1.1-.9 1.1-1.6 0-.5-.2-.9-.5-1.2-.4-.4-1-.7-1.7-.7-.4 0-.8.1-1.1.2-.3.2-.6.4-.8.6-.2.3-.3.6-.4 1.1l1.3.2c0-.3.1-.6.3-.7.2-.2.4-.2.6-.2.2 0 .4.1.6.2.1.2.2.3.2.6s-.1.5-.3.7c-.2.2-.5.3-.9.3l-.2 1.2c.2-.1.5-.1.6-.1.3 0 .5.1.7.3.2.2.3.5.3.9s-.1.7-.3.9c-.2.2-.4.3-.7.3-.3 0-.5-.1-.7-.3-.2-.2-.3-.5-.3-.8l-1.4.2c.1.6.3 1.1.8 1.5.4.4 1 .6 1.7.6s1.3-.2 1.8-.7c.5-.5.7-1 .7-1.7 0-.4-.1-.8-.4-1.1-.3-.4-.6-.6-1-.7M112.4 354.6h-1.8v-.7h-1.7v-.7h-3.7l1.4-7.7v-.2c0-.1 0-.1-.1-.2l-1.7-7.7v-.1l.9-5.1h1v-10.8h-1.3v4.2l-.8-3.9v-.2l1.2-7.8v-.3l-1.5-7.8 1-7.7v-.4l-1.3-7.7 1-7.9v-.4h-3.7l-.3-7.7h-.7l-.3 7.7h-4l1 8.3-1.4 7.9v.1l1 7.8-1.5 7.9v.1l1.2 7.9-.8 4v-4.1h-1.3v10.8h.9l.9 5.2-1.8 7.8v.2l1.4 7.8H92v.7h-1.7v.7h-1.7v.8h23.8v-.8Zm-12-24.2 3.4 6.7h-6.7l3.3-6.7Zm0-15.9 3.1 6.6h-6.2l3.1-6.6Zm2.6-25.1h-5l2.5-6.5 2.5 6.5Zm-2.6 9.3 2.8 6.5h-5.6l2.8-6.5Zm0 47.5 3.8 7h-7.6l3.8-7Zm.7-1.2 3.2-6.4 1.4 6.4h-4.6Zm0-15.9 2.9-6.3 1.3 6.3h-4.2Zm-.1-15.9.6-1.5 2.1-4.8 1.2 6.2H101v.1Zm0-15.8 2.4-6.1 1.1 6.1H101Zm-3.5-6.2 1.6 4.1.8 2h-3.4l1-6.1Zm-.3 15.8.8 1.9 1.9 4.3H96l1.2-6.2Zm-.3 15.8 2.9 6.3h-4.3l1.4-6.3Zm-.3 15.8 3.2 6.4h-4.6l1.4-6.4Z" style="fill:#9d1d20;fill-rule:nonzero" transform="matrix(.6219 0 0 .6219 16.062 -120.816)"/><path d="M119.8 372.3c.7 0 1.4-.1 2-.4 1.8-.7 2.9-2.5 3.9-4.4.7.1 1.4.1 2.1.1 1.6 0 2.8-.3 3.7-.9 1.6-1.1 2.3-3 3-5 2.1-.2 4.2-.6 5.5-1.9 1.3-1.3 1.7-3.4 1.9-5.5 2-.6 4-1.4 5-2.9s1-3.7.8-5.7c1.8-1 3.6-2.1 4.4-3.9.7-1.7.2-3.8-.4-5.8 1.6-1.3 3.1-2.8 3.5-4.6.4-1.8-.5-3.7-1.5-5.6 1.3-1.6 2.5-3.4 2.5-5.3s-1.2-3.6-2.5-5.2c1-1.8 1.8-3.7 1.4-5.6-.4-1.9-1.9-3.3-3.5-4.7.6-2 1.1-4.1.3-5.8-.7-1.8-2.5-2.9-4.4-3.9.2-2.1.3-4.2-.8-5.7-1.1-1.6-3-2.3-5-2.9-.2-2.1-.6-4.2-1.9-5.5-1.3-1.3-3.4-1.7-5.5-1.9-.6-2-1.4-4-2.9-5-.9-.6-2.1-.9-3.7-.9-.7 0-1.4 0-2 .1-1-1.8-2.1-3.6-3.9-4.4-.6-.2-1.2-.4-2-.4-1.2 0-2.5.3-3.8.7-1.4-1.6-2.8-3.1-4.7-3.5-.3-.1-.6-.1-.9-.1-1.6 0-3.1.7-4.7 1.6-1.6-1.3-3.3-2.5-5.3-2.5-1.9 0-3.6 1.2-5.2 2.5-1.5-.8-3.1-1.5-4.7-1.5-.3 0-.6 0-.9.1-1.9.4-3.3 1.9-4.7 3.5-1.3-.4-2.6-.7-3.8-.7-.7 0-1.4.1-2 .4-1.8.7-2.9 2.5-3.9 4.4-.7-.1-1.4-.1-2.1-.1-1.6 0-2.8.3-3.7.9-1.6 1.1-2.3 3-2.9 5-2.1.2-4.2.6-5.5 1.9-1.3 1.3-1.7 3.4-1.9 5.5-2 .6-4 1.4-5 2.9-1 1.6-1 3.7-.8 5.7-1.8 1-3.6 2.1-4.4 3.9-.7 1.7-.2 3.8.4 5.8-1.6 1.4-3.1 2.8-3.5 4.6-.4 1.8.5 3.7 1.5 5.6-1.3 1.6-2.5 3.3-2.5 5.3s1.2 3.6 2.5 5.3c-1 1.8-1.8 3.7-1.4 5.6.4 1.9 1.9 3.3 3.5 4.7-.6 2-1.1 4.1-.4 5.8.7 1.8 2.5 2.9 4.4 3.9-.2 2.1-.3 4.2.8 5.7 1.1 1.6 3 2.3 5 3 .2 2.1.6 4.1 1.9 5.5 1.3 1.3 3.4 1.7 5.5 1.9.6 2 1.4 4 2.9 5 .9.6 2.1.9 3.7.9.7 0 1.4 0 2-.1 1 1.8 2.1 3.6 3.9 4.4.6.3 1.2.4 2 .4 1.2 0 2.5-.3 3.8-.7 1.4 1.6 2.8 3.1 4.7 3.5.3.1.6.1.9.1 1.6 0 3.2-.7 4.7-1.6 1.6 1.3 3.3 2.5 5.3 2.5 1.9 0 3.6-1.2 5.2-2.5 1.5.8 3.1 1.5 4.7 1.5.3 0 .6 0 .9-.1 1.9-.4 3.3-1.9 4.7-3.5 1.3.2 2.6.5 3.8.5m-8.5-3c-.4 0-.8 0-1.1.1-1.7.3-3.2 1.5-4.7 2.7-1.7-.9-3.4-1.8-5.1-1.8-1.7 0-3.4.9-5.1 1.7-1.5-1.2-3-2.4-4.6-2.7-.3-.1-.7-.1-1.1-.1-1.3 0-2.8.4-4.2.8-1.2-1.4-2.5-2.9-4-3.5-.8-.3-1.7-.5-2.9-.5-.8 0-1.6.1-2.5.1-.9-1.7-1.8-3.3-3.2-4.3-1.4-.9-3.3-1.2-5.2-1.4-.6-1.8-1.2-3.6-2.4-4.8-1.2-1.2-3-1.8-4.8-2.4-.2-1.9-.4-3.8-1.4-5.2-.9-1.4-2.6-2.3-4.2-3.2.2-1.9.3-3.8-.3-5.4-.6-1.5-2.1-2.8-3.6-4 .5-1.8 1-3.7.7-5.3-.3-1.7-1.5-3.2-2.7-4.6.9-1.7 1.8-3.4 1.8-5.1 0-1.7-.9-3.4-1.7-5.1 1.2-1.5 2.4-3 2.7-4.6.3-1.7-.2-3.5-.7-5.3 1.4-1.2 2.9-2.5 3.6-4 .6-1.6.5-3.5.3-5.4 1.7-.9 3.3-1.8 4.3-3.2.9-1.4 1.2-3.3 1.4-5.2 1.8-.6 3.6-1.2 4.8-2.4 1.2-1.2 1.8-3 2.4-4.8 1.9-.2 3.8-.4 5.2-1.4 1.4-.9 2.3-2.6 3.2-4.3.8.1 1.6.1 2.4.1 1.2 0 2.1-.2 3-.5 1.5-.6 2.8-2.1 4-3.6 1.4.4 2.9.8 4.2.8.4 0 .8 0 1.1-.1 1.7-.3 3.2-1.5 4.6-2.7 1.7.9 3.4 1.8 5.1 1.8 1.7 0 3.4-.9 5.1-1.7 1.5 1.2 3 2.4 4.6 2.7.3.1.7.1 1.1.1 1.3 0 2.8-.4 4.2-.8 1.2 1.4 2.5 2.9 4 3.6.8.3 1.7.5 2.9.5.8 0 1.6-.1 2.5-.1.9 1.7 1.8 3.3 3.2 4.3 1.4.9 3.3 1.2 5.2 1.4.6 1.8 1.2 3.6 2.4 4.8 1.2 1.2 3 1.8 4.8 2.3.2 1.9.4 3.8 1.4 5.2.9 1.4 2.6 2.3 4.2 3.2-.2 1.9-.3 3.8.3 5.4.6 1.5 2.1 2.8 3.6 4-.5 1.8-1 3.7-.7 5.3.3 1.7 1.5 3.2 2.7 4.7-.9 1.7-1.8 3.4-1.8 5.1 0 1.7.9 3.4 1.7 5.1-1.2 1.5-2.4 3-2.7 4.6-.3 1.7.2 3.5.7 5.3-1.5 1.2-2.9 2.5-3.6 4-.7 1.6-.5 3.5-.3 5.4-1.7.9-3.3 1.8-4.3 3.2-.9 1.4-1.2 3.3-1.4 5.2-1.8.6-3.6 1.2-4.8 2.4-1.2 1.2-1.8 3-2.4 4.8-1.9.2-3.8.4-5.2 1.4-1.4.9-2.3 2.6-3.2 4.3-.8-.1-1.6-.1-2.4-.1-1.2 0-2.1.2-3 .5-1.5.6-2.8 2.1-4 3.6-1.3-.5-2.7-.9-4.1-.9m10 1.4c-.4.2-.9.3-1.5.3-.9 0-1.9-.2-2.9-.5 1-1.2 2-2.3 3.1-2.8.6-.3 1.4-.4 2.5-.4.6 0 1.2 0 1.7.1-.8 1.5-1.7 2.8-2.9 3.3m9.4-5c-.7.5-1.6.7-2.9.7-.4 0-.9 0-1.4-.1.7-1.3 1.5-2.6 2.6-3.3 1-.7 2.5-.9 4-1.1-.6 1.6-1.2 3.1-2.3 3.8m8.2-6.7c-.9.9-2.5 1.2-4.1 1.5.5-1.5 1-2.9 1.9-3.7.9-.9 2.3-1.4 3.8-1.9-.3 1.6-.7 3.1-1.6 4.1m6.8-8.3c-.7 1.1-2.2 1.7-3.8 2.2.2-1.5.4-3 1.1-4 .7-1 1.9-1.8 3.3-2.5.1 1.7.1 3.2-.6 4.3m5-9.4c-.5 1.2-1.8 2.1-3.3 3-.1-1.5-.2-3.1.3-4.2s1.6-2.2 2.8-3.2c.4 1.7.7 3.2.2 4.4m3.1-10.2c-.3 1.3-1.3 2.4-2.6 3.5-.4-1.5-.8-3-.5-4.2.2-1.2 1.1-2.4 2.1-3.6.7 1.6 1.2 3 1 4.3m-.9-6.6c-.7-1.4-1.3-2.8-1.3-4 0-1.2.6-2.6 1.4-4 1 1.3 1.9 2.7 1.9 4-.1 1.3-.9 2.7-2 4m.9-14.6c.3 1.3-.3 2.8-1 4.2-1-1.2-1.9-2.4-2.1-3.6-.2-1.2.1-2.7.5-4.2 1.2 1.1 2.3 2.3 2.6 3.6m-3.1-10.2c.5 1.2.2 2.7-.2 4.4-1.2-1-2.3-2-2.8-3.1-.5-1.2-.4-2.7-.3-4.2 1.5.8 2.8 1.6 3.3 2.9m-5-9.4c.7 1.1.7 2.6.6 4.3-1.3-.7-2.6-1.5-3.3-2.5-.7-1-.9-2.5-1.1-4 1.6.5 3 1.1 3.8 2.2m-5.3-4.1c-1.5-.5-2.9-1-3.7-1.9-.9-.9-1.4-2.3-1.9-3.8 1.7.2 3.2.5 4.2 1.5.8 1 1.2 2.5 1.4 4.2m-9.8-10.9c1.1.7 1.7 2.2 2.2 3.8-1.5-.2-3-.4-4-1.1-1-.7-1.8-2-2.5-3.3.5 0 .9-.1 1.3-.1 1.4 0 2.3.2 3 .7m-9.3-5.1c1.2.5 2.1 1.8 3 3.3-.6.1-1.2.1-1.8.1-1 0-1.8-.1-2.4-.4-1.1-.5-2.2-1.6-3.1-2.8 1-.3 2-.5 2.9-.5.5.1.9.2 1.4.3m-10.2-3c1.3.3 2.4 1.4 3.5 2.6-1.5.4-3 .7-4.2.5-1.2-.2-2.4-1.1-3.6-2.1 1.6-.7 3-1.3 4.3-1m-6.6.8c-1.4.7-2.8 1.3-4 1.3-1.2 0-2.6-.6-4-1.4 1.3-1 2.6-1.9 4-1.9 1.3.1 2.6 1 4 2m-14.7-.8c1.3-.2 2.8.3 4.2 1.1-1.2 1-2.4 1.9-3.6 2.1-1.1.2-2.7-.1-4.2-.5 1.2-1.4 2.3-2.5 3.6-2.7m-10.2 3c.4-.2.9-.3 1.5-.3.9 0 1.9.2 2.9.5-1 1.2-2 2.3-3.1 2.8-.6.3-1.4.4-2.5.4-.6 0-1.1 0-1.7-.1.8-1.5 1.7-2.7 2.9-3.3m-9.4 5.1c.7-.5 1.6-.7 2.9-.7.5 0 .9 0 1.4.1-.7 1.3-1.5 2.6-2.5 3.3-1 .7-2.5.9-4 1.1.5-1.7 1.1-3.1 2.2-3.8M62 282c.9-.9 2.4-1.2 4.1-1.5-.5 1.5-1 2.9-1.9 3.8-.9.9-2.3 1.4-3.7 1.9.2-1.7.6-3.2 1.5-4.2m-6.8 8.3c.7-1.1 2.2-1.7 3.8-2.2-.2 1.5-.4 3-1.1 4-.7 1-2 1.8-3.3 2.5-.1-1.7-.1-3.2.6-4.3m-5 9.4c.5-1.2 1.8-2.1 3.3-3 .1 1.5.2 3.1-.3 4.2s-1.6 2.1-2.8 3.1c-.4-1.6-.7-3.1-.2-4.3m-3.1 10.2c.3-1.3 1.4-2.4 2.6-3.5.4 1.5.8 3 .5 4.2-.2 1.2-1.1 2.4-2.1 3.6-.7-1.6-1.2-3-1-4.3m.9 6.6c.7 1.4 1.3 2.8 1.3 4 0 1.2-.6 2.6-1.4 4-1-1.3-1.9-2.6-1.9-4 .1-1.3.9-2.7 2-4m-.9 14.6c-.3-1.3.3-2.8 1-4.3 1 1.2 1.9 2.4 2.1 3.6.2 1.2-.1 2.7-.5 4.2-1.2-1-2.3-2.2-2.6-3.5m3.1 10.2c-.5-1.2-.2-2.7.2-4.4 1.2 1 2.3 2 2.8 3.1s.4 2.7.3 4.2c-1.5-.8-2.8-1.7-3.3-2.9m5 9.4c-.7-1.1-.7-2.6-.6-4.3 1.3.7 2.6 1.5 3.3 2.5.7 1 .9 2.5 1.1 4-1.6-.5-3-1.1-3.8-2.2m5.3 4.1c1.5.5 2.9 1 3.7 1.9.9.9 1.4 2.3 1.9 3.8-1.7-.2-3.2-.5-4.2-1.5-.8-1-1.2-2.5-1.4-4.2m9.7 10.9c-1.1-.7-1.7-2.2-2.3-3.8 1.5.2 3 .4 4 1.1 1 .7 1.8 2 2.6 3.3-.5 0-.9.1-1.4.1-1.2 0-2.2-.2-2.9-.7m9.4 5c-1.2-.5-2.1-1.8-3-3.3.6 0 1.2-.1 1.8-.1 1 0 1.8.1 2.4.4 1.1.5 2.1 1.6 3.1 2.8-1 .3-2 .5-2.9.5-.5 0-1-.1-1.4-.3m10.2 3.1c-1.3-.3-2.4-1.3-3.5-2.6 1.5-.4 3-.7 4.2-.5 1.2.2 2.4 1.1 3.6 2.1-1.6.7-3 1.3-4.3 1m6.6-.8c1.4-.7 2.8-1.3 4-1.3 1.2 0 2.6.6 4 1.4-1.3 1-2.6 1.9-4 1.9-1.3-.1-2.6-1-4-2m14.7.8c-1.2.2-2.8-.3-4.2-1 1.2-1 2.4-1.9 3.6-2.1 1.1-.2 2.7.1 4.2.5-1.2 1.3-2.3 2.4-3.6 2.6" style="fill:#9d1d20;fill-rule:nonzero" transform="matrix(.6219 0 0 .6219 16.062 -120.816)"/><path d="M72.7 297.2h-4.5l.6-.4-1.1-1.7-.8.5.9 1.6h-4v.9h8.9v-.9ZM73.3 304h-3.5l1.7-4.6h-1l-1.8 4.6h-1.4l-.1-.1.5-.2-1.8-4.3h-1.1l1.9 4.6h-3.6v.9h10.2v-.9ZM62.8 316.5l.8.5 1.5-2.5-.9-.4-1.4 2.4ZM68.8 315.7l.8-.5-1.3-2.2-.8.5 1.3 2.2ZM70.8 314.3l2 2.5.8-.6-2.1-2.5-.7.6ZM72.3 311.8h-3.6v-1.5h4.4v-1h-4.4v-1.7h-1v1.7h-4.6v1h4.6v1.5h-3.5v1h8.1v-1Z" style="fill:#9d1d20;fill-rule:nonzero" transform="matrix(.6219 0 0 .6219 16.062 -120.816)"/><path d="M69.8 316.9H67c-.2 0-.3-.1-.3-.3v-2.4h-1v2.9c0 .2 0 .7.7.7h4c.6-.1 1.1-1.1 1.2-1.3l-1.1-.5c0 .4-.3.8-.7.9M86.4 316.7V311h3.1v-.9h-3.1v-2.5h-1v2.5H80v.9h5v.1c-1.2 1.8-2.9 3.3-5 4.4v1.2c.6-.3 3.2-1.6 5.3-4.3l.1-.1v3.7c-.1.4-.5.6-.9.7h-.1l.6 1.2c.3-.1 1.4-.6 1.4-1.2M120.4 318.4h.9v-10.2H112v10.2h.9v-.6h7.5v.6Zm-7.5-9.3h7.5v7.7h-7.5v-7.7Z" style="fill:#9d1d20;fill-rule:nonzero" transform="matrix(.6219 0 0 .6219 16.062 -120.816)"/><path d="m117.8 314.1.8.8h-1.5v-1.7h2.2v-.9h-2.2V311h2.4v-.9h-5.7v.9h2.4v1.3h-2.1v.9h2.1v1.7h-2.6v.9h6.1v-.9l-1.2-1.4-.7.6ZM137.5 297l-1.5-1.6-.6.6 1.4 1.7.7-.7Z" style="fill:#9d1d20;fill-rule:nonzero" transform="matrix(.6219 0 0 .6219 16.062 -120.816)"/><path d="M132 296.1h2.2v.9H132z" style="fill:#9d1d20" transform="rotate(-53.294 -29.56 108.049) scale(.62188)"/><path d="m131 297.2-1.1-1.9-.8.5 1.2 1.8.7-.4ZM127.5 301.5l.6.8c.2-.1.6-.5 1.2-1l.1-.1v4.4h.9v-4.1l1 1.2.7-.5-1-1.3.9-.9-.6-.7-.9.8v-.1l.9-1.5c.2-.4.3-.7.3-.9h-3.7v.9h2.3v.1c-1.1 1.7-2.4 2.7-2.7 2.9" style="fill:#9d1d20;fill-rule:nonzero" transform="matrix(.6219 0 0 .6219 16.062 -120.816)"/><path d="m131.6 301.2.7.8c.1 0 .2-.2.5-.4l.1-.1v4h.9v-.5h2.1v.5h.9v-4.3l.1.1c.2.2.5.3.7.5l.6-.8c-.6-.4-2-1.4-2.9-3.3 0 0 .1-.2.1-.3h-1.1c-1 2.5-2.4 3.6-2.7 3.8m4.2 2.9h-2.1v-2.2h2.1v2.2Zm-2.4-3.2c.5-.5.9-1.2 1.2-1.9v-.1.1c.4.7 1 1.4 1.6 1.9l.1.1-2.9-.1ZM113.5 300.7l-1.8.7v1l1.8-.7v2.1c0 .3-.3.6-.9.8l.5 1c.2-.1 1.3-.6 1.3-1.2v-3.1l1.2-.4v-1l-1.2.5v-1.7h1.2v-.9h-1.2v-2.5h-.9v2.5h-1.9v.9h1.9v2ZM117 300.3h.1c0 .1.4 1.4 1.4 2.7-.4.5-.8.8-1.1 1.1h-.1v1.3c.7-.4 1.3-1 1.9-1.6.7.7 1.5 1.3 2.3 1.7v-1.2c-.6-.3-1.2-.8-1.7-1.3.6-.8 1-1.8 1.2-2.7v-.1c0-.2.1-.6.2-.9H117v-2.6h2.9v.5c0 .3-.3.6-.9.9l.5 1c.2-.1 1.2-.6 1.3-1.2v-2.1h-4.7v9.7h.9v-5.2Zm3.1-.1c-.2.7-.5 1.3-.9 1.9-.5-.8-.8-1.5-.9-1.8v-.1h1.8ZM136 316.9c-.2 0-.3-.1-.6-.3h-.1c-.7-.5-1.2-1.4-1.5-2.6v-.1h2.8v-.9h-3c-.1-.6-.1-1-.2-1.3h3.2v-3.2h-7.9v8.5c0 .5 1.1 1.1 1.3 1.2l.5-1c-.3-.2-.9-.5-.9-.9V314h3.1c.4 1.6 1.1 2.8 2.1 3.5.5.3.9.5 1.3.5 1 0 1.2-1.4 1.2-1.7h-1.1c.1.3.1.6-.2.6m-6.3-3.9v-1.4h2.8c0 .3 0 .7.1 1.3h-2.9v.1Zm0-3.7h6.1v1.4h-6.1v-1.4ZM81.4 300.4h1.8v2.7c-.1.3-.3.4-1.2.6l.1.9c.9-.1 1.8-.4 2-1.5v-3.5h-2.7V298h3.7c.1 1.6.4 3 .8 4.2-.5.7-1.1 1.2-1.7 1.6v1.3c.7-.5 1.5-1.1 2.1-1.9.5.8 1.3 2 2.4 2 .2 0 .4 0 .6-.1V304c-.4.1-1.3.3-2.2-1.8.6-.9 1.2-1.9 1.7-2.9h-1.1c-.3.6-.6 1.2-.9 1.7v.1-.1c-.3-.9-.4-1.9-.5-3h3v-.9l-1.1-1.9h-1.1l1.1 1.9H86v-1.9h-1v1.9h-4.7v3.4c0 1-.1 3.4-1.3 4.4l1.1.6c.2-.2 1.3-1.8 1.3-5.1M51.2 284.5l-1.5 1.1.2 1.4-2.1 3.8-6.1-3.2 2.8-5.3-.6-.3-1.6 1.2.3 1.4-1.5 2.7-5.2-2.8-.9 1.7 11.9 6.4-3 5.6.6.3 7.3-13.7-.6-.3ZM85.8 258.6l.1.6 5.2-1 1 4.6 1.9-.3-1-4.7 2.4-.5-.2-.7-2.3.5-1.9-9.3-1.9.4 1.9 9.3-5.2 1.1Z" style="fill:#9d1d20;fill-rule:nonzero" transform="matrix(.6219 0 0 .6219 16.062 -120.816)"/><path d="M89.3 252.4c.7-1.6-3.3-1.8-3.3-1.8l-.2.4c1.8 1 1.8 1.5 2.4 1.7.5.2.9 0 1.1-.3M89.9 256.2c.8-1.5-3.1-2.1-3.1-2.1l-.2.4c1.7 1.2 1.7 1.6 2.2 2 .5.2 1 .1 1.1-.3M81.4 252.3l.4 2.1-2.7.5.1.7 2.3-.5c0 .6-.3 4.3-1.3 6.7l.5.3s1.2-1.8 1.9-4l1.3 6.3 1.9-.4-1.6-7.7c1.1.9 1.1 1.2 1.6 1.6.4.2.9.1 1.1-.2.7-1.3-2.1-1.9-2.9-2.1l-.2-.9 2.3-.5-.1-.7-2.3.5-.5-2.5c.8-.4 1.5-.8 2-1.3l-1.9-.9s-1.8 1.9-4.7 3.3l.1.6c.1 0 1.3-.3 2.7-.9M157.9 282.4c.2-.1.5-.3.7-.5l5.7 10.2-2.3.7.4.7 3 .6.6-.3-.1-2-1.3-.6-.9-1.6c.6.2 1.9.5 3.7.7l-.5-2.4s-2.5.7-3.7.6l-2.3-4.1c.1.1.2.1.3.1 1.8.4 1.2-4.2 1.2-4.2l-.5-.1c-.7 2.2-1.2 2.5-1.4 3.2v.4l-1.3-2.3c.2-.2.5-.6.5-.6l-.3-.4h-.1c-1.5.5-2.2 0-3.1.5-.4.2-.8.8-.5 1.3.5.7 1.3.6 2.2.1" style="fill:#9d1d20;fill-rule:nonzero" transform="matrix(.6219 0 0 .6219 16.062 -120.816)"/><path d="M163 287c1.7.3 1.3-4 1.3-4l-.4-.1c-.7 2-1.2 2.4-1.4 3.1-.1.5.1.9.5 1M151.2 291.1c1.8 2.4 3.5 1.4 3.5 1.4l2.6-1.4 2.8 5.1.6-.3-.1-1.9-1.3-.6-1.4-2.6.9-.5 2.7 1.2.6-.3-4-7.2-.6.3 3 5.3-2.6-1-.9.4-3.5-6.2-.6.3 3.5 6.2-2.6 1.4c-.3.2-.4 0-.6-.4-.2-.3-1-2.1-1.2-2.4l-.5.3c1 2.6-.3 2.9-.3 2.9M117.7 255.3l-2.5-.6-.2.7.3.1c0 1.9.4 3.5 1.1 4.9-2.6 1.6-5 2-5 2l-.1.6c2.2.3 4.3-.3 6-1.1 1.6 2.3 3.5 3.5 3.5 3.5.6-1.1 1.4-1.1 1.6-1.1l.1-.5c-1.6-.7-2.8-1.7-3.8-2.7 2.5-1.6 4.1-3.6 4.2-3.7l.2-.7-3.5-.9.5-2.1 4.4 1.1.2-.7-1.5-1.2-1.3.5-1.6-.4.8-3-1.9-.5-.7 3.1-2.5-.6-.2.7 2.5.6-.6 2Zm-.2 4.2c-1.1-1.8-1.4-3.5-1.4-3.9l4.2 1c-.8 1.3-1.8 2.2-2.8 2.9" style="fill:#9d1d20;fill-rule:nonzero" transform="matrix(.6219 0 0 .6219 16.062 -120.816)"/><path d="m108.5 262.3.5.1 1.9.5 1.7-6.9c.9-.2 1.5-.4 1.9-.6l.2-.7c-.6.1-1.2.2-1.8.2l.7-2.9 1.7.4.2-.7-1.7-.4.8-3.1-1.9-.5-.7 3.1-2.2-.5-.2.7 2.2.5-.9 3.5c-1.6.1-2.8 0-2.8 0l.1 1.8c.8-.1 1.6-.3 2.3-.4l-.9 3.6v-.1c-.1.5-.2.7-1.3.5-.5-.1-.9-.3-.9-.3l-.1.4c1.4.6 1.2 1.8 1.2 1.8M55.4 265.9c.1-1.7-3.7-.5-3.7-.5v.4c2 .3 2.2.7 2.9.8.4 0 .8-.3.8-.7M52.7 268.8v.4c2 .3 2.2.7 2.9.8.5 0 .8-.3.9-.7 0-1.7-3.8-.5-3.8-.5M70.1 266.3l-.4-.5-1.1.9-1.8-2.3 1.1-.8-.4-.5-1.1.9-2.3-2.9-1.1.9-4.6 3.6c0-.5 0-1-.1-1.5l6.1-4.8-.4-.5-1.9.4-.4 1.4-3.5 2.8c-.1-.6-.2-1.2-.4-1.9l-2 .9s1.7 3 1.9 6.2h.5s.1-.4.1-1.1l1.4 1.8-1.2 1 .4.5 1.2-1 1.8 2.3.4.5.2.3 1.5-1.2-.2-.3 3.6-2.8c.4.5.5.9-.1 1.4-.8.7-2.3 1.8-2.3 1.8l.3.3s2-1.3 2.7-.4c0 0 2.6-2.1.9-4.3l1.2-1.1Zm-10.7-.8 3.6-2.8 1.8 2.3-.8.6v-.1c.1-1.7-3.7-.5-3.7-.5v.4c2.1.3 2.2.7 2.9.8h.1l-2 1.6-1.9-2.3Zm6.9 2.9c.1-1.7-3.7-.5-3.7-.5v.4c2 .3 2.2.7 2.9.8h.1l-2 1.6-1.8-2.3 3.6-2.8 1.8 2.3-.9.5Z" style="fill:#9d1d20;fill-rule:nonzero" transform="matrix(.6219 0 0 .6219 16.062 -120.816)"/><path d="m56.1 273.2.4.5s1.5-.7 3.5 1.9c.7.8 1.1 1.4 1.1 1.4l1-.8s-2.4-3.1-3.1-4.1c-.7-1-2.5-6.5-2.8-7.4l-.5.4c.4 1.4 1.7 5.8 1.7 6.8-.1.9-1.3 1.3-1.3 1.3M148.3 270.6l-.9-1.8-1.4-.1-3-2.4c1.7-1.5 2.8-3 3.1-3.5l-1.8-1.4c-1 1.5-2 2.6-2.9 3.6l-4.8-3.8-.4.5 4.7 3.8c-4.3 3.8-8.4 3.6-10.3 3.2l-.5.6c5 2.3 9.4.1 12.3-2.4-3.8 5.4-1.7 10.9-1.7 10.9 1.4-.9 2.4.3 2.4.3l.3-.4c-2.8-4.4-.7-9.8-.5-10.4l4.9 3.9.5-.6Z" style="fill:#9d1d20;fill-rule:nonzero" transform="matrix(.6219 0 0 .6219 16.062 -120.816)"/></svg>