<svg xmlns="http://www.w3.org/2000/svg" width="154" height="157" fill="none"><g filter="url(#a)"><path fill="#fff" d="M13 0h128v128H13z"/><path fill="#000" fill-rule="evenodd" d="M54.688 71.382c.231 0 .391.012.48.035.09.023.134.068.134.134 0 .06-.028.114-.086.16a1.721 1.721 0 0 0-.622-.13c-.135 0-.23.023-.286.07a.23.23 0 0 0-.083.188c0 .084.033.151.1.2.066.05.192.1.378.15.22.056.387.12.5.193.113.073.173.19.18.353a.457.457 0 0 1-.22.412c-.146.093-.37.14-.67.14-.21 0-.369-.013-.477-.038-.109-.025-.163-.073-.163-.141 0-.063.03-.118.093-.166.21.098.429.147.656.147.157 0 .268-.022.334-.065.066-.043.099-.11.099-.2a.264.264 0 0 0-.143-.245 2.073 2.073 0 0 0-.455-.165c-.203-.052-.346-.118-.432-.197a.404.404 0 0 1-.128-.311c0-.16.07-.288.21-.382.14-.094.34-.142.601-.142ZM56.313 71.41h.672a.19.19 0 0 1 .018.078c0 .023-.005.039-.015.047-.01.01-.03.014-.056.014h-.113c-.008.126-.011.34-.011.644h.945a13.867 13.867 0 0 0-.013-.644h-.164a.215.215 0 0 1-.02-.085c0-.02.005-.033.016-.041.011-.009.03-.013.055-.013h.671c.013.027.02.053.02.078 0 .023-.006.039-.016.047-.011.01-.03.014-.056.014h-.13c-.007.126-.01.333-.01.62 0 .509.004.826.012.95h.18c.013.028.02.055.02.08 0 .022-.006.038-.016.047-.011.01-.03.013-.056.013h-.67a.215.215 0 0 1-.02-.085c0-.019.005-.033.016-.041.011-.009.03-.013.055-.013h.113c.008-.107.012-.357.013-.752h-.945c0 .394.005.645.012.752h.165a.19.19 0 0 1 .018.079c0 .022-.005.038-.015.047-.01.01-.03.013-.056.013h-.67a.21.21 0 0 1-.02-.085c0-.019.005-.033.016-.041.011-.009.03-.013.055-.013h.13c.008-.126.012-.448.012-.966a12.104 12.104 0 0 0-.013-.605h-.18a.21.21 0 0 1-.02-.085c0-.02.005-.033.016-.041.011-.009.03-.013.055-.013ZM59.724 72.482h.6c-.193-.523-.297-.785-.311-.785-.014 0-.11.261-.29.785Zm.323-1.093c.12 0 .188.004.205.012.015.007.123.26.321.757.2.498.334.818.404.962h.14c.013.027.02.053.02.079 0 .022-.006.038-.017.047-.01.009-.029.013-.055.013h-.662a.21.21 0 0 1-.021-.085c0-.019.006-.033.017-.041.01-.009.03-.013.055-.013h.086a6.21 6.21 0 0 0-.153-.464h-.72a4.309 4.309 0 0 0-.133.464h.148c.013.027.02.053.02.079 0 .022-.006.038-.017.047-.01.009-.029.013-.056.013h-.586a.222.222 0 0 1-.02-.085c0-.019.006-.033.017-.041.011-.009.03-.013.055-.013h.093c.07-.165.186-.462.349-.891.163-.43.263-.677.301-.742.039-.065.108-.098.21-.098ZM61.947 71.41h.508c.17.263.332.502.484.719.151.216.316.474.495.774v-.75a11.4 11.4 0 0 0-.011-.604h-.165a.209.209 0 0 1-.02-.085c0-.02.005-.033.016-.041.011-.009.03-.013.056-.013h.599c.013.027.02.053.02.078 0 .023-.006.039-.017.047-.01.01-.03.014-.056.014h-.129c-.007.126-.011.333-.011.62v.98c0 .054-.01.088-.028.102-.019.015-.062.022-.13.022a.98.98 0 0 1-.227-.013c-.02-.008-.149-.176-.388-.503a9.64 9.64 0 0 1-.6-.918c0 .729.004 1.156.011 1.28h.157c.013.028.02.055.02.08 0 .022-.005.038-.016.047-.01.01-.03.013-.057.013h-.593a.208.208 0 0 1-.02-.085c0-.019.004-.033.016-.041.01-.009.03-.013.055-.013h.134c.007-.126.01-.448.01-.966 0-.278-.004-.479-.012-.605h-.151a.21.21 0 0 1-.021-.085c0-.02.006-.033.017-.041.01-.009.029-.013.054-.013ZM66.149 73.034c0-.17-.003-.286-.008-.347a.427.427 0 0 0-.02-.12.067.067 0 0 0-.038-.036.181.181 0 0 0-.064-.01.136.136 0 0 1-.02-.069c0-.027.008-.046.023-.056.017-.01.046-.014.088-.014h.262c.053 0 .088.007.105.022s.026.045.026.09v.333c0 .101.006.243.019.423a1.04 1.04 0 0 1-.15.01c-.017 0-.05-.032-.096-.095a1.63 1.63 0 0 1-.604.122c-.302 0-.524-.065-.665-.195-.141-.13-.212-.353-.212-.671 0-.353.087-.614.26-.784.174-.17.43-.254.768-.254.2 0 .344.012.434.037.09.026.136.067.136.122a.245.245 0 0 1-.079.168 1.477 1.477 0 0 0-.578-.13c-.179 0-.315.053-.41.16-.093.106-.14.292-.14.559 0 .301.046.509.138.621.093.112.244.169.455.169.124 0 .247-.019.37-.055ZM67.433 71.41h.672a.184.184 0 0 1 .019.078c0 .023-.006.039-.016.047-.01.01-.03.014-.056.014h-.113c-.008.126-.011.34-.011.644h.946a13.867 13.867 0 0 0-.013-.644h-.165a.214.214 0 0 1-.02-.085c0-.02.005-.033.016-.041.012-.009.03-.013.056-.013h.67c.013.027.02.053.02.078 0 .023-.005.039-.016.047-.01.01-.03.014-.056.014h-.129c-.007.126-.011.333-.011.62 0 .509.004.826.013.95h.18c.013.028.019.055.019.08 0 .022-.005.038-.016.047-.01.01-.03.013-.056.013h-.67a.213.213 0 0 1-.02-.085c0-.019.005-.033.016-.041.012-.009.03-.013.056-.013h.113c.007-.107.011-.357.013-.752h-.946c.001.394.005.645.013.752h.164a.185.185 0 0 1 .019.079c0 .022-.006.038-.016.047-.01.01-.03.013-.056.013h-.67a.21.21 0 0 1-.02-.085c0-.019.005-.033.017-.041.01-.009.03-.013.054-.013h.13c.008-.126.012-.448.012-.966a12.198 12.198 0 0 0-.013-.605h-.18a.21.21 0 0 1-.02-.085c0-.02.005-.033.017-.041.01-.009.03-.013.054-.013ZM70.844 72.482h.601c-.194-.523-.297-.785-.312-.785-.014 0-.11.261-.289.785Zm.324-1.093c.12 0 .188.004.204.012.016.007.123.26.322.757.199.498.333.818.403.962h.14c.013.027.02.053.02.079 0 .022-.006.038-.016.047-.01.009-.03.013-.056.013h-.662a.208.208 0 0 1-.02-.085c0-.019.005-.033.016-.041.011-.009.03-.013.055-.013h.087a6.431 6.431 0 0 0-.154-.464h-.719a4.309 4.309 0 0 0-.134.464h.148a.19.19 0 0 1 .02.079c0 .022-.006.038-.017.047-.01.009-.029.013-.055.013h-.587a.222.222 0 0 1-.02-.085c0-.019.007-.033.018-.041.01-.009.029-.013.055-.013h.092c.07-.165.187-.462.35-.891.162-.43.263-.677.3-.742.039-.065.109-.098.21-.098ZM73.036 71.41h.72a.188.188 0 0 1 .018.078c0 .023-.005.039-.016.047-.01.01-.029.014-.055.014h-.145c-.008.126-.012.333-.012.62 0 .509.004.826.013.95h.196a.19.19 0 0 1 .02.08c0 .022-.006.038-.017.047-.01.01-.029.013-.055.013h-.718a.21.21 0 0 1-.02-.085c0-.019.005-.033.016-.041.011-.009.03-.013.055-.013h.145c.009-.126.013-.448.013-.966a12.011 12.011 0 0 0-.013-.605h-.196a.21.21 0 0 1-.02-.085c0-.02.005-.033.016-.041.011-.009.03-.013.055-.013ZM77.004 73.089c.19 0 .36-.042.51-.125.057.05.085.102.085.156 0 .05-.068.09-.206.121-.137.03-.302.046-.494.046-.307 0-.534-.062-.68-.185-.145-.122-.218-.346-.218-.669 0-.36.086-.626.257-.795.171-.17.423-.255.756-.255.185 0 .325.012.42.038.094.025.141.068.141.128 0 .05-.029.099-.088.148a1.462 1.462 0 0 0-.55-.116c-.18 0-.316.055-.408.165-.091.111-.137.299-.137.562 0 .292.048.495.144.61.096.113.252.17.468.17ZM78.75 72.302c0 .301.05.508.145.62.097.111.24.167.428.167.176 0 .308-.057.397-.17.088-.112.133-.296.133-.551 0-.305-.048-.513-.144-.623-.097-.11-.24-.165-.428-.165-.176 0-.308.057-.397.17-.089.113-.133.297-.133.552Zm-.39.124c0-.356.087-.619.261-.789.174-.17.42-.255.736-.255.289 0 .51.062.66.186.151.123.226.348.226.675 0 .356-.086.62-.26.789-.174.17-.42.255-.736.255-.29 0-.51-.062-.66-.184-.151-.124-.227-.35-.227-.677ZM81.211 71.41h.507c.172.263.333.502.484.719.152.216.317.474.495.774v-.75c0-.277-.003-.478-.01-.604h-.165a.209.209 0 0 1-.02-.085c0-.02.005-.033.016-.041.011-.009.03-.013.055-.013h.6c.012.027.019.053.019.078 0 .023-.005.039-.016.047-.01.01-.03.014-.056.014h-.13c-.006.126-.01.333-.01.62v.98c0 .054-.01.088-.028.102-.019.015-.062.022-.13.022a.977.977 0 0 1-.227-.013c-.02-.008-.15-.176-.388-.503a9.66 9.66 0 0 1-.6-.918c0 .729.004 1.156.01 1.28h.157c.014.028.02.055.02.08 0 .022-.004.038-.015.047-.01.01-.03.013-.057.013h-.594a.208.208 0 0 1-.02-.085c0-.019.005-.033.016-.041.011-.009.03-.013.055-.013h.135c.007-.126.01-.448.01-.966 0-.278-.004-.479-.012-.605h-.152a.214.214 0 0 1-.02-.085c0-.02.005-.033.016-.041.011-.009.03-.013.055-.013ZM84.864 71.382c.23 0 .39.012.48.035.09.023.134.068.134.134 0 .06-.029.114-.086.16a1.721 1.721 0 0 0-.622-.13c-.135 0-.23.023-.286.07a.23.23 0 0 0-.084.188c0 .084.033.151.1.2.066.05.192.1.378.15.22.056.387.12.5.193.113.073.173.19.18.353a.457.457 0 0 1-.22.412c-.146.093-.37.14-.67.14-.21 0-.368-.013-.477-.038-.109-.025-.163-.073-.163-.141 0-.063.031-.118.093-.166.21.098.43.147.657.147.156 0 .267-.022.333-.065.066-.043.099-.11.099-.2a.263.263 0 0 0-.143-.245 2.069 2.069 0 0 0-.455-.165c-.202-.052-.346-.118-.431-.197a.404.404 0 0 1-.129-.311c0-.16.07-.288.21-.382.14-.094.34-.142.602-.142ZM86.489 71.41h1.364c.061 0 .103.007.125.021.022.015.034.044.034.087 0 .055-.02.112-.061.17-.201-.069-.477-.103-.83-.103h-.138c-.008.102-.01.304-.01.608h.834c.014.035.021.072.021.111 0 .026-.005.043-.016.051-.01.009-.031.013-.062.013h-.778c0 .39.005.63.011.717h.223c.34 0 .605-.032.8-.095a.27.27 0 0 1 .05.154c0 .04-.016.07-.046.088a.42.42 0 0 1-.188.027l-1.384.002a.212.212 0 0 1-.021-.087c0-.018.005-.031.016-.04.012-.008.03-.013.055-.013h.118c.008-.126.012-.449.012-.967 0-.278-.004-.479-.011-.605h-.17a.207.207 0 0 1-.02-.085c0-.02.005-.033.016-.041.012-.009.03-.013.055-.013ZM89.431 72.31h.134c.185 0 .325-.028.42-.083a.268.268 0 0 0 .143-.247c0-.128-.043-.222-.129-.282-.086-.06-.21-.09-.37-.09a1.1 1.1 0 0 0-.185.013c-.008.078-.013.26-.013.549v.14Zm.013.81h.228c.013.027.02.053.02.079 0 .022-.006.038-.017.047-.01.01-.029.014-.055.014h-.75a.21.21 0 0 1-.02-.086c0-.019.005-.033.016-.041.011-.009.03-.013.055-.013h.145c.009-.126.013-.448.013-.967 0-.277-.004-.478-.013-.604h-.185a.224.224 0 0 1-.019-.085c0-.02.006-.033.017-.041.011-.009.03-.013.055-.013h.687c.325 0 .555.038.692.113a.382.382 0 0 1 .206.36c0 .25-.177.42-.53.512a.483.483 0 0 1 .246.145c.063.07.129.17.199.3.07.13.124.21.164.239.04.029.096.043.17.041.022.065.02.11-.008.132-.028.023-.097.035-.206.035a.645.645 0 0 1-.273-.042c-.055-.028-.113-.128-.173-.299-.06-.171-.123-.292-.19-.361-.067-.07-.164-.105-.29-.105-.067 0-.132.005-.197.014.002.311.007.52.013.626ZM92.735 71.41h.58c.012.027.018.053.018.078 0 .023-.005.039-.016.047-.01.01-.029.014-.055.014h-.074c-.064.165-.176.465-.337.903-.161.437-.262.684-.301.742-.04.057-.113.086-.22.086a.917.917 0 0 1-.204-.01c-.014-.008-.115-.26-.304-.758-.19-.497-.32-.818-.393-.963h-.124a.207.207 0 0 1-.02-.085c0-.02.005-.033.016-.041.011-.009.03-.013.055-.013h.643c.013.027.02.053.02.078 0 .023-.005.039-.016.047-.01.01-.03.014-.057.014h-.08c.03.115.12.382.27.802.151.42.234.63.249.63.014 0 .088-.21.221-.627.133-.417.206-.685.219-.805h-.14a.203.203 0 0 1-.022-.085c0-.02.006-.033.017-.041.011-.009.03-.013.055-.013ZM94.419 72.482h.6c-.193-.523-.297-.785-.31-.785-.015 0-.112.261-.29.785Zm.323-1.093c.12 0 .188.004.205.012.016.007.123.26.322.757.198.498.333.818.403.962h.14c.013.027.02.053.02.079 0 .022-.006.038-.016.047-.011.009-.03.013-.056.013h-.662a.208.208 0 0 1-.02-.085c0-.019.005-.033.016-.041.011-.009.03-.013.055-.013h.086a6.21 6.21 0 0 0-.153-.464h-.72a4.309 4.309 0 0 0-.133.464h.148c.013.027.02.053.02.079 0 .022-.006.038-.017.047-.01.009-.029.013-.055.013h-.587a.222.222 0 0 1-.02-.085c0-.019.006-.033.017-.041.012-.009.03-.013.055-.013h.093c.07-.165.187-.462.349-.891.163-.43.263-.677.301-.742.039-.065.109-.098.21-.098ZM96.904 73.12c.009-.126.013-.448.013-.966 0-.278-.004-.468-.013-.57-.377.014-.59.02-.64.02-.046 0-.079-.005-.096-.018-.019-.013-.028-.037-.028-.072a.37.37 0 0 1 .045-.165c.18.04.443.06.786.06h.997c.047 0 .08.007.098.02.018.013.028.037.028.071a.293.293 0 0 1-.066.18 2.076 2.076 0 0 0-.692-.095h-.054a8.637 8.637 0 0 0-.013.585c0 .508.005.825.013.95h.228c.013.027.02.053.02.079 0 .022-.006.038-.017.047-.01.01-.029.014-.055.014h-.782a.204.204 0 0 1-.02-.086c0-.019.005-.033.016-.041.011-.009.03-.013.055-.013h.177ZM99.144 72.302c0 .301.048.508.144.62.097.111.24.167.428.167.176 0 .308-.057.397-.17.088-.112.133-.296.133-.551 0-.305-.048-.513-.144-.623-.097-.11-.24-.165-.428-.165-.176 0-.308.057-.397.17-.089.113-.133.297-.133.552Zm-.39.124c0-.356.086-.619.26-.789.174-.17.42-.255.736-.255.289 0 .509.062.66.186.151.123.226.348.226.675 0 .356-.086.62-.26.789-.174.17-.42.255-.736.255-.29 0-.51-.062-.66-.184-.151-.124-.227-.35-.227-.677ZM102.083 72.31h.133c.186 0 .325-.028.421-.083a.267.267 0 0 0 .142-.247c0-.128-.043-.222-.129-.282-.086-.06-.209-.09-.37-.09-.073 0-.135.004-.185.013-.008.078-.012.26-.012.549v.14Zm.012.81h.228c.013.027.02.053.02.079 0 .022-.006.038-.017.047-.01.01-.029.014-.055.014h-.75a.225.225 0 0 1-.021-.086c0-.019.006-.033.017-.041.011-.009.03-.013.055-.013h.146c.008-.126.012-.448.012-.967 0-.277-.004-.478-.012-.604h-.186a.24.24 0 0 1-.019-.085c0-.02.006-.033.017-.041.011-.009.029-.013.055-.013h.687c.324 0 .555.038.693.113a.382.382 0 0 1 .205.36c0 .25-.176.42-.529.512a.479.479 0 0 1 .245.145c.063.07.129.17.199.3.069.13.124.21.164.239.04.029.096.043.17.041.022.065.02.11-.008.132-.028.023-.096.035-.206.035a.642.642 0 0 1-.272-.042c-.056-.028-.113-.128-.173-.299-.06-.171-.124-.292-.191-.361-.067-.07-.164-.105-.29-.105-.066 0-.132.005-.196.014.002.311.006.52.012.626ZM105.759 71.55c-.108.17-.322.539-.641 1.106 0 .184.004.338.011.464h.236a.173.173 0 0 1 .021.079c0 .022-.005.038-.016.047-.011.009-.03.014-.057.014h-.79a.22.22 0 0 1-.019-.086c0-.019.006-.033.017-.041.011-.009.029-.013.055-.013h.175a6.23 6.23 0 0 0 .013-.438c-.35-.596-.578-.974-.686-1.133h-.124a.218.218 0 0 1-.019-.085c0-.019.005-.033.016-.042a.096.096 0 0 1 .055-.012h.643a.181.181 0 0 1 .019.078c0 .023-.005.039-.016.048-.01.009-.029.013-.055.013h-.082c.047.12.133.302.259.548.126.245.195.369.207.369.012 0 .073-.12.184-.36.111-.238.188-.424.229-.557h-.139a.204.204 0 0 1-.02-.085c0-.019.005-.033.016-.042a.096.096 0 0 1 .055-.012h.579a.181.181 0 0 1 .019.078c0 .023-.005.039-.016.048-.01.009-.029.013-.055.013h-.074ZM108.427 72.302c0 .301.049.508.145.62.096.111.239.167.428.167.175 0 .308-.057.396-.17.089-.112.133-.296.133-.551 0-.305-.048-.513-.144-.623-.096-.11-.239-.165-.428-.165-.176 0-.308.057-.397.17-.088.113-.133.297-.133.552Zm-.39.124c0-.356.087-.619.261-.789.173-.17.419-.255.735-.255.289 0 .509.062.661.186.151.123.226.348.226.675 0 .356-.087.62-.261.789-.173.17-.419.255-.736.255-.289 0-.509-.062-.66-.184-.151-.124-.226-.35-.226-.677ZM110.856 71.41h1.365c.06 0 .102.007.124.021.023.015.034.044.034.087 0 .055-.02.112-.061.17-.201-.069-.477-.103-.829-.103h-.139c-.008.102-.011.318-.011.649h.788a.32.32 0 0 1 .02.11c0 .026-.005.043-.015.051-.011.01-.032.014-.063.014h-.73c.001.37.005.607.011.71h.257a.182.182 0 0 1 .019.08c0 .022-.005.038-.016.047-.011.01-.029.013-.056.013h-.749a.206.206 0 0 1-.021-.085c0-.019.006-.033.017-.041.011-.009.029-.013.055-.013h.118c.007-.126.011-.448.011-.966 0-.278-.004-.479-.011-.605h-.169a.207.207 0 0 1-.021-.085c0-.02.006-.033.017-.041.011-.009.029-.013.055-.013ZM114.543 71.41h.655c.051.157.123.357.214.599.092.242.163.44.214.593.051.153.08.23.088.23.007 0 .078-.195.213-.585.135-.39.225-.668.271-.837h.646a.181.181 0 0 1 .019.078c0 .023-.005.039-.016.047-.01.01-.029.014-.055.014h-.106c-.004.166-.001.438.01.816.01.378.021.63.032.755h.154a.173.173 0 0 1 .021.079c0 .022-.005.038-.016.047-.01.01-.03.013-.057.013h-.625a.206.206 0 0 1-.021-.085c0-.019.006-.033.017-.041.011-.009.029-.013.055-.013h.094a31.88 31.88 0 0 0-.011-1.434c-.083.271-.179.547-.287.828-.109.281-.181.447-.216.499-.035.051-.092.077-.17.077a.792.792 0 0 1-.189-.01c-.014-.008-.085-.166-.214-.475a10.68 10.68 0 0 1-.34-.926c-.004.803-.001 1.284.006 1.44h.148a.182.182 0 0 1 .019.08c0 .022-.005.038-.016.047-.01.01-.029.013-.055.013h-.587a.218.218 0 0 1-.019-.085c0-.019.005-.033.017-.041.011-.009.029-.013.054-.013h.117c.012-.126.022-.377.032-.755.011-.377.015-.65.013-.816h-.162a.238.238 0 0 1-.019-.085c0-.02.006-.033.017-.041.011-.009.029-.013.055-.013ZM119.132 71.55h-.181a.22.22 0 0 1-.02-.086c0-.019.005-.033.017-.042.011-.008.029-.012.055-.012h.615a.181.181 0 0 1 .019.078c0 .023-.005.039-.016.048-.01.009-.029.013-.055.013h-.114c-.005.126-.007.43-.006.911 0 .324-.074.543-.222.656-.148.114-.37.17-.666.17-.255 0-.433-.04-.536-.123-.103-.082-.155-.244-.155-.486 0-.626-.004-1.002-.013-1.128h-.14a.218.218 0 0 1-.019-.085c0-.019.005-.033.017-.042.011-.008.029-.012.055-.012h.622c.013.027.02.053.02.078 0 .023-.005.039-.016.048-.01.009-.029.013-.057.013h-.104c-.008.148-.012.453-.012.915 0 .26.038.43.115.508.077.078.191.117.341.117.175 0 .296-.04.363-.118.067-.079.101-.227.101-.445 0-.503-.003-.828-.008-.977ZM121.239 71.382c.231 0 .391.012.48.035.09.023.134.068.134.134 0 .06-.028.114-.086.16a1.717 1.717 0 0 0-.622-.13c-.135 0-.23.023-.286.07a.23.23 0 0 0-.083.188c0 .084.033.151.099.2.066.05.193.1.379.15.22.056.387.12.5.193.113.073.173.19.179.353a.457.457 0 0 1-.219.412c-.146.093-.37.14-.671.14a2.24 2.24 0 0 1-.476-.038c-.109-.025-.163-.073-.163-.141 0-.063.031-.118.092-.166.211.098.43.147.657.147.157 0 .268-.022.334-.065.066-.043.098-.11.098-.2a.263.263 0 0 0-.142-.245 2.075 2.075 0 0 0-.455-.165c-.203-.052-.346-.118-.432-.197a.402.402 0 0 1-.128-.311c0-.16.07-.288.209-.382.14-.094.341-.142.602-.142ZM122.864 71.41h.719a.181.181 0 0 1 .019.078c0 .023-.005.039-.016.047-.01.01-.029.014-.056.014h-.145a12.51 12.51 0 0 0-.011.62c0 .509.004.826.013.95h.196a.182.182 0 0 1 .019.08c0 .022-.005.038-.016.047-.01.01-.029.013-.056.013h-.717a.206.206 0 0 1-.021-.085c0-.019.006-.033.017-.041.011-.009.03-.013.055-.013h.145c.009-.126.013-.448.013-.966a11.456 11.456 0 0 0-.013-.605h-.196a.207.207 0 0 1-.021-.085c0-.02.006-.033.017-.041.011-.009.03-.013.055-.013ZM125.472 73.089c.189 0 .359-.042.51-.125.057.05.085.102.085.156 0 .05-.069.09-.206.121-.137.03-.302.046-.494.046-.308 0-.534-.062-.68-.185-.145-.122-.218-.346-.218-.669 0-.36.085-.626.257-.795.171-.17.423-.255.756-.255.185 0 .325.012.419.038.095.025.142.068.142.128 0 .05-.029.099-.088.148a1.46 1.46 0 0 0-.55-.116c-.181 0-.317.055-.408.165-.092.111-.137.299-.137.562 0 .292.048.495.144.61.096.113.252.17.468.17ZM83.564 58.428c.143 0 .892.057 1.072.018h.002l.006-.002a.653.653 0 0 0 .217-.103.429.429 0 0 0 .11-.1h-.001l.005-.011a.253.253 0 0 0-.015-.118v-.002a.565.565 0 0 0-.013-.037c-.032-.073-.104-.157-.104-.157a79.94 79.94 0 0 0-.344-.35c-.022-.023-.077-.027-.14-.024h-.002c-.03.001-.061.004-.093.008-.204.01-.346-.02-.346-.02l-.144-.005a.436.436 0 0 0-.214.037.244.244 0 0 0-.103.147c-.015.09-.316.251-.369.341-.054.09.319.378.476.378ZM82.311 59.94a.266.266 0 0 0 .056.067l.2.236s.063.074.237.081l.249.01s.131-.008.234-.026c.032-.005.089-.012.16-.015h.01c.08-.003.623-.021.906.07.092.028.17.063.17.063l.107.034c.061.021.122.06.163.09 0 0 .047.029.113-.004l.03-.018.001-.001c.05-.031.111-.068.17-.101.121-.074.474-.055.546-.091.046-.024.244-.102.375-.153.107-.042.14-.171.14-.171l.014-.072c.02-.316-.107-.522-.107-.522 0-.054-.071-.216-.16-.234-.086-.017-.493.126-.704.199-.212.071-.705 0-.793.018-.089.017-.812.089-.97.089-.114 0-.575-.046-.824-.072-.155-.016-.227.018-.254.037a.335.335 0 0 0-.137.252.617.617 0 0 0 .068.234ZM86.85 63.583l-.012-.005c-.092-.03-.369.014-.558.014-.212 0-.793.017-.881 0a3.176 3.176 0 0 1-.31-.112.334.334 0 0 1-.108-.068c-.114-.098-.282-.022-.34.01a.263.263 0 0 1-.017.01l-.005.003v-.001c-.01.005-.02.01-.032.013-.124.035-.51.215-.599.306-.018.018-.05.03-.093.039-.373.076-1.125.252-1.125.252-.03.012-.06.024-.088.032-.033.01-.09.02-.16.03l-1.238.208c-.127.026-.305.05-.364.05-.088 0-1.075.109-1.2.143-.122.038-.757.127-.897.11-.142-.019-.336-.054-.425 0-.06.037-.323.149-.486.217-.065.02-.094.064-.096.067a.332.332 0 0 0-.018.05.204.204 0 0 0 .051.211.273.273 0 0 0 .047.036c.08.046.251.147.344.228.096.084.437.255.61.377 0 0 .184.145.462.087.223-.043.48-.112.569-.122.158-.019 1.62-.521 2.027-.594.405-.071.88-.216 1.163-.286.281-.074.953-.218 1.218-.199.263.018.756.107.933-.055.177-.161.3-.251.581-.234.282.019 1.042-.017 1.042-.017.256-.195.247-.557.247-.557.014-.134-.19-.223-.242-.243ZM85.443 67.077c-.141.05-.35.011-.403-.111-.036-.08-.019-.44.02-.467.016-.012.055-.015.094-.015.03-.002.066 0 .106.006.218.034.545.179.545.316.001.083-.285.243-.362.271Zm1.156.23c-.011-.258-.038-.837-.066-.99-.035-.198-.689-.504-.776-.54-.088-.036-.6-.09-.723-.144a1.09 1.09 0 0 0-.494-.054c-.157.02-.142.036-.51.073-.371.036-.355.161-.46.27-.104.106-.458.377-.581.395 0 0-.16.048-.33.118a.9.9 0 0 1-.155.068.855.855 0 0 0-.219.138s-.185.236-.212.394l-.001.002s-.035.287-.035.395c0 .109.193.234.247.324a.26.26 0 0 1 .022.057s.126.386.292.332a.266.266 0 0 0 .126-.104l.009-.015v-.001c.103-.162.493-.544.538-.575.053-.036.195-.36.266-.466a.46.46 0 0 1 .094-.108c.037-.034.236-.167.24-.169 0 0 .177-.13.288-.165a.796.796 0 0 0 .045-.008c.16-.038.231.034.268.197.033.161-.074.198-.125.306-.054.107-.106.774-.158.97-.048.176-.259.435-.368.518 0 0-.09.065-.053.168.027.088.082.198.12.286.06.141.338.188.514.137 0 0 .225-.05.464-.027.078.017.147.035.186.035.104 0 .23-.27.3-.377.07-.11.034-.433.034-.433s.159.072.23.072c.07 0 .317-.162.423-.341.082-.14.29-.279.405-.352.16-.132.155-.386.155-.386ZM85.415 60.964c-.194 0-.476 0-.511-.09a1.046 1.046 0 0 0-.05-.109c-.014-.027-.043 0-.043 0-.042.064-.14.196-.26.236l-.042.012s-.3.088-.503.197l-.006.003-.02.011a.433.433 0 0 1-.062.028c-.074.025-.311.085-.448.12 0 0-.138.034-.262.145a.363.363 0 0 0-.075.088l-.006.016-.003.008v.003a.481.481 0 0 0-.015.066l-.004.03v.007a1.48 1.48 0 0 0 .001.3v.008a.692.692 0 0 0 .073.258.179.179 0 0 0 .019.024l.001.002a.33.33 0 0 0 .021.022l.003.002c.066.059.168.108.234.142.107.054.195.074.302-.017a.895.895 0 0 1 .473-.181c.196-.016.689.072.707.18.01.062.036.138.058.195.001.001.15.142.426 0 .07-.042.15-.103.255-.136h-.001c.4-.12.636-.404.636-.404a.378.378 0 0 1 .071-.07c.185-.17.13-.42.069-.577a1.145 1.145 0 0 0-.131-.296c-.087-.152-.208-.172-.208-.172-.23-.021-.574-.051-.699-.051ZM61.358 66.07c-.582-.058-1.972.133-2.461.153-.487.019-1.202-.02-1.352-.115-.15-.096-.358-.288-.358-.288s.395-.537.508-.67c.113-.135.376-2.11.394-2.358.02-.25.17-.614.32-.691.15-.076.602-.249.734-.249.13 0 1.351.076 1.5.02.152-.058.434-.25.508-.345.076-.097.377-.844.188-1.017-.188-.172-.168-.286-1.014-.23-.845.058-2.254.077-2.254.077s-.17-.115-.17-.23c0-.116.096-.248.096-.383s-.02-.689-.151-.863c-.133-.173-.545-.307-.62-.422-.075-.114-.244-.344-.244-.344s-.15-.135-.301-.078a.707.707 0 0 0-.363.418s-.114.354-.16.675a1.317 1.317 0 0 0-.02.26c-.006.401.064 1.07.11 2.25 0 0 .076 2.206.095 2.589.019.384.037 1.188.244 1.418.207.231.376.344.3.46-.075.116-.206.25-.639.307-.43.058-2.479 0-2.91.115-.433.115-.414.344-.433.65-.019.309 0 .481.507.691.507.211 1.352.308 2.799.193 1.447-.117 2.423-.231 3.288-.174.864.057 1.99-.096 2.254-.71.263-.611.188-1.053-.395-1.11ZM97.256 57.36a1.973 1.973 0 0 0-.037-.42.324.324 0 0 0-.031-.073 1.093 1.093 0 0 0-.08-.096.574.574 0 0 0-.167-.098l-.002-.001a.67.67 0 0 0-.032-.012c-.203-.066-.564-.071-.632-.072h-.012c-.097.015-.158.175-.158.175s-.106.144-.085.465c.002.04.007.082.014.127 0 .112-.02.245-.054.293a1.728 1.728 0 0 0-.15.236s-.072.14-.096.17a1.787 1.787 0 0 1-.263.28 1.667 1.667 0 0 1-.052.034s-.124.098-.122.21c-.002.039.005.072.031.078.07.015.247-.036.298-.036a.091.091 0 0 0 .028-.006s.19-.06.41-.137l.205-.063c.145-.041.322-.103.448-.149a1.075 1.075 0 0 0 .376-.283.713.713 0 0 0 .135-.264c.03-.205.028-.357.028-.357ZM106.59 64.674c-.133-.112-.346-.378-.376-.543-.029-.165-.069-.544-.104-.655-.026-.084-.06-.22-.179-.279a.213.213 0 0 0-.059-.02.285.285 0 0 0-.022-.005c-.004 0-.008 0-.012-.002a.26.26 0 0 0-.098.01.976.976 0 0 0-.26.142c-.094.082-.18.283-.221.424-.021.074-.047.175-.079.26 0 0-.187.557.082.834.078.082.169.17.268.253.244.202.338.285.506.248.166-.035.381-.076.473-.076.091 0 .216-.072.244-.136.028-.064-.028-.342-.163-.455ZM112.542 65.998c-.033-.073-.545-.072-.655-.096-.109-.022-.098-.034-.619-.087-.521-.053-.482-.048-.613-.113-.145-.228.004-.538.004-.538a.347.347 0 0 0 .034-.24c-.041-.297.128-.527.128-.527a.337.337 0 0 0 .058-.113c.041-.147-.151-.401-.259-.442a1.003 1.003 0 0 0-.343-.047l-.014.002-.036.008a6.842 6.842 0 0 1-1.055.295l-.02.007-.118.038-.029.009-.005.002-.009.003.002.001c-.163.067-.188.297-.191.349-.011.249.44.254.607.29.169.034.343.087.603.218.153.076.176.169.169.25a1.83 1.83 0 0 1-.021.243.229.229 0 0 1-.015.056.662.662 0 0 1-.118.17c-.165.184-.449.208-.623.208s-.725.077-1.239.189c-.517.112-.544.413-.562.644-.018.231.371.237.499.231a.45.45 0 0 0 .254-.083h.001s.104-.056.386-.066c.178-.003.378-.006.487-.046.198-.07.692-.001.856.033 0 0 .041.022.053.07.035.134.097.456-.047.664-.13.158-.339.52-.474.716-.162.236-.736.236-.821.27-.086.036-.8-.042-.915-.023-.119.018-.261.23-.273.324-.01.096.174.166.301.284.128.119.573.227.729.22a.416.416 0 0 0 .16-.053h.002l.043-.024c.03-.015.073-.037.126-.06.307-.127.665-.127.713-.127h.006c.136.004.267-.086.462-.204.225-.135.728-.66.753-1.045.018-.31-.133-.726-.134-.889l.001-.008a.19.19 0 0 1 .002-.026c.003-.008.006-.016.011-.024.08-.125.471-.168.471-.168.106-.028.339-.018.436-.013.11.006.434.064.526.07.093.007.411-.094.463-.371.051-.278-.103-.36-.138-.43ZM113.726 61.62c-.008-.093-.017-.222-.052-.303-.045-.228-.599-.24-.599-.24-.118-.01-.446.05-.747.09-.343.048-1.889.255-2.084.267-.193.012-.307.116-.579.151-.209.027-1.157.053-1.606.053-.158.001-.209-.11-.216-.124a.594.594 0 0 1-.018-.14.914.914 0 0 1 .164-.38c.09-.15.041-.552.041-.552-.082-.299-.117-.692-.117-.692-.012-.173-.011-.708.011-.765.022-.059.102-.162-.046-.233-.148-.07-.261-.092-.352-.046l-.261.132c-.143.072-.18.255-.18.255l-.036.17c-.006.022-.049.145-.09.294a7.213 7.213 0 0 0-.057.625c-.011.214-.013.45.01.659.006.063.016.124.027.18.046.11.136.258.177.309.057.07.135.347.239.405a.73.73 0 0 1 .138.106c.001.001.016.021.031.054 0 0 .056.136-.06.244-.101.102-.274.253-.462.315-.057.016-.101.03-.101.082 0 .082.1.222.202.257.105.034.252.22.41.185.16-.034.809-.14 1.002-.174.193-.034.968-.302 1.228-.395.265-.092 1.208-.277 1.697-.277.489 0 .829-.072.876.032.046.106.25.292.067.384-.182.094-.66.488-.727.557-.069.07 0 .083.034.141.034.056.034.103.239-.013.124-.07.36-.232.549-.353.001-.001.083-.04.185-.08.061-.018.114-.037.165-.056.265-.099.397-.185.397-.185l.456-.45c.103-.083.055-.361.045-.489Z" clip-rule="evenodd"/><path fill="#000" fill-rule="evenodd" d="M108.936 60.325a.498.498 0 0 0 .097.097c.092.065.245.11.459-.023.111-.079.395-.241.49-.3.101-.061.49-.425.664-.629 0 0 .256-.232.439-.355.06-.037.121-.07.178-.093l.031-.011a.42.42 0 0 1 .026-.008l.011-.004c.037-.01.078-.02.11-.032l.017-.008c.04-.017.148-.052.215.025.081.085.359.225.378.268.027.047.06.186-.25.534-.304.349-.304.314-.349.383-.046.07.033.126.033.126s.352-.242.385-.278c.036-.033.251-.208.342-.265.077-.049.457-.35.579-.447.151-.176-.022-.296-.022-.296a1.968 1.968 0 0 1-.25-.13c-.09-.057-.455-.173-.545-.173a.053.053 0 0 1-.036-.013c.195-.102.299-.214.311-.228h.001l.001-.001s.372-.254.406-.28a.33.33 0 0 0 .045-.037l.014-.014c.174-.167.308-.39.354-.472l.007-.011.009-.018.002-.003c.051-.133.011-.532-.001-.651-.01-.13-.204-.22-.317-.22-.113 0-.363.184-.42.3-.057.116-.376.29-.468.348-.09.057-.205.139-.488.453-.285.312-.66 1.01-.693 1.067a.304.304 0 0 1-.053.058l-.002.002a.882.882 0 0 1-.143.103c-.119.083-.278.188-.339.203a.348.348 0 0 1-.207.015c-.196-.026-.397-.377-.397-.377a1.198 1.198 0 0 1-.08-.104s-.22-.252-.484-.066a.47.47 0 0 0-.102.279.875.875 0 0 0-.005.143c.012.162.036.29-.01.58-.045.29.022.5.046.546l.011.017ZM125.965 59.354c-.221-.03-.825.016-1.001.165-.18.15-1.08.333-1.404.362-.324.03-1.178.12-1.446.106-.264-.016-.337-.226-.353-.332-.015-.105-.086-.18-.191-.18-.192 0-.163.225-.163.436s-.057.361-.279.602c-.219.24-.219.691.045.843.264.15.441-.107.604-.256.161-.15.649-.467.825-.541.178-.077.855-.046 1.092-.06.234-.016.723 0 .795.043.075.047.06.256 0 .332-.058.077-.294.15-.559.3-.266.151-.191.664-.191.543 0-.12.502-.286.589-.361.089-.076.473-.453.693-.558.221-.105.915-.602 1.136-.78.221-.182.265-.468.265-.574 0-.104-.236-.06-.457-.09ZM120.007 59.73c-.103-.345-.443-.601-.723-.722-.279-.12-.441-.286-.737-.18 0 0-.28.21-.28.405 0 .196.133.362.325.362s.781.09.899.211c.118.12.295.301.28.406-.014.105-.176.406-.25.542-.075.136-.087.392-.03.677.06.286.104.526.104.677a.724.724 0 0 1-.062.298l-.005.012-.013.024c-.035.065-.111.197-.156.21a.123.123 0 0 1-.06.017.337.337 0 0 1-.044-.005c-.176-.03-.235-.03-.339-.105a.283.283 0 0 1-.117-.27c.014-.075.029-.767 0-.904a.233.233 0 0 0-.027-.069h.001l-.002-.002a.305.305 0 0 0-.015-.022c-.06-.107-.078-.35-.078-.35a.708.708 0 0 0-.219-.49.13.13 0 0 0-.23.047c0 .043.052.074.052.134 0 .06.015 2.604-.044 3.221s-.324 1.986-.501 2.438c-.176.45-.104.54-.104.616 0 .076.296.346.34.495.045.152.133.453.162.498.028.045.221.076.28.062.058-.017.133-.092.149-.242.013-.15.131-.437.221-1.009.088-.572.117-1.565.147-1.866.03-.3.104-.616.046-.812-.046-.147-.191-.38-.272-.532-.137-.273.077-.344.079-.344.147-.018.668-.058.737-.072.074-.015.31-.15.369-.301.058-.15.104-.3.147-.482.045-.179-.133-.572-.089-.827.019-.108.03-.2.029-.27.005-.154.046-.454.046-.454l.028-.163c.044-.167.059-.513-.044-.859ZM123.678 61.838s-.118.104-.279.15c-.163.044-.442.03-.574.044a2.8 2.8 0 0 1-.52-.015h-.002l-.008-.002a.649.649 0 0 0-.334.026.285.285 0 0 0-.087.059c-.056.077-.117.25-.069.385.06.165.356.285.414.3.059.014.839.106 1.032.075.191-.03.605-.03.633-.316.031-.286-.206-.647-.206-.706ZM126.849 66.787c-.068-.058-.154-.017-.182.026l-.319.366a2.535 2.535 0 0 1-.411.398c-.103.073-.195.09-.195.09-.19.036-.56.129-.811.114-.264-.015-1.089.09-1.621-.286-.493-.35-.565-.53-.716-.566l-.004-.001c-.043-.011-.517-.142-.49-.3.033-.124.237-.262.237-.262.105-.059.546-.617.767-.766.222-.152.825-.602.974-.677.147-.077.25-.243.25-.483 0-.241.075-.376-.176-.51-.251-.138-.369-.257-.68-.212-.299.044-1.331.031-2.293.329-.101.03-.18.096-.188.102-.066.058-.143.145-.143.23 0 .152.221.408.442.408.223 0 .28-.06.561-.06.28 0 .692-.016.81.12a.787.787 0 0 1 .138.23c.043.14-.171.21-.173.211-.052.01-.093.01-.093.01s-.133-.01-.257.065c-.172.119-.576.51-.754.653l-.344.37c-.176.181-.357.366-.416.416a7.242 7.242 0 0 1-.18.15.42.42 0 0 0-.146.392c.028.196.104.316.323.302.225-.015.414-.243.576-.318.161-.074.5-.178.633-.029.132.152 1.342 1.655 2.743 1.731 1.401.076 2.212-1.4 2.272-1.686.058-.285-.046-.481-.134-.557ZM101.753 61.354l-.012-.225c-.014-.252-.119-.398-.119-.398a2.99 2.99 0 0 1-.14-.247c-.081-.176-.098-.354-.098-.354a.348.348 0 0 0-.378-.293c-.25.024-.329.186-.329.256 0 .069.046.603.011.697a.669.669 0 0 1-.056.105s-.09.152-.17.364a.795.795 0 0 1-.029.078v.003a.636.636 0 0 1-.086.147c-.102.127-.524.672-.637.73-.114.059-.422.15-.478.208a.263.263 0 0 0-.051.111.266.266 0 0 0-.007.067c0 .027.003.05.008.07.032.118.152.117.173.115.034-.002.076-.002.118-.001.093 0 .351-.013.589-.134.106-.06.222-.122.285-.145.125-.047.728-.442.91-.57.117-.083.291-.218.4-.328.107-.1.096-.255.096-.256ZM124.447 58.053l-.001-.001a.475.475 0 0 0-.025-.032.678.678 0 0 1-.068-.274v-.014l-.002-.03c-.01-.06-.05-.106-.126-.183a.176.176 0 0 0-.032-.026l-.008-.005a1.259 1.259 0 0 1-.252-.223l-.002-.002-.02-.023c-.109-.123-.205-.155-.256-.162a.448.448 0 0 0-.226.034c-.074.045-.223.376-.223.527 0 .15-.013.315-.072.436-.058.12-.309.346-.398.511-.089.166.03.271.03.271.133.107.368-.105.47-.21.104-.105.428-.181.605-.181s.562-.15.619-.21c.049-.052.036-.133-.013-.203Z" clip-rule="evenodd"/><path fill="#000" fill-rule="evenodd" d="M96.283 66.636a.443.443 0 0 0-.17.037c-.569.18-.88-.037-.88-.037-.02-.021-.025-.048-.028-.086a.483.483 0 0 0-.059-.24c-.042-.08-.091-.126-.091-.126-.059-.066-.156-.125-.156-.213v-.014c.003-.024.02-.072.108-.087.253-.042.897-.154 1.113-.235 0 0 .071-.022.121.045a.71.71 0 0 1 .112.39v.24c0 .172.036.326-.07.326Zm.686-3.397c-.057.163-.139.266-.251.29-.116.022-.296.129-.467.082-.06-.017-.11-.029-.153-.042l-.006-.002-.003-.001a.313.313 0 0 1-.088-.04l-.002-.002a.373.373 0 0 1-.099-.1c-.004-.004-.007-.01-.012-.014h.001a.383.383 0 0 1-.044-.105c-.033-.16.04-.368.04-.368a.636.636 0 0 0 .058-.22c.01-.07 0-.344-.036-.506-.03-.218.086-.35.086-.35a.346.346 0 0 1 .144-.085c.08-.012.205-.011.274.08l.095.132c.036.06.082.18.054.359l-.001.009-.001.007a.822.822 0 0 0-.011.19l.001.011.002.014a.75.75 0 0 0 .153.354.671.671 0 0 0 .163.113c.067.033.138.09.103.194Zm-.466 2.274.005-.008a.247.247 0 0 1 .078-.057l1.44-.213a.57.57 0 0 0 .123-.013c.093-.031.42-.048.557-.115 0 0 .188-.08.522-.056.269.014.57.045.684.045.21 0 .67-.106.651-.324-.017-.215-.123-.34-.423-.413-.3-.071-.564.107-.723.107-.158 0-.441.038-.616.144-.174.109-.475.073-.688.073-.211 0-.211 0-.317-.073-.107-.072-.265-.035-.388-.089-.123-.055-.194-.289-.088-.43.104-.145.493-.164.618-.164.123 0 .157-.2.14-.468-.017-.27.248-1.026.265-1.206.018-.18.122-.756.158-.917.034-.162.211-.935.248-1.08.035-.143-.018-.935-.053-1.06-.037-.126-.424-.648-.53-.72a.108.108 0 0 0-.024-.012h-.001a.103.103 0 0 0-.049-.005c-.098.01-.205.115-.255.172l-.008.006c0 .002-.002.003-.003.004a.327.327 0 0 0-.018.024c-.253.336-.532.351-.532.351-.19.016-.33.086-.344.143-.018.073.23.217.37.235.142.018.318.125.458.36.142.233-.07 1.277-.122 1.636-.054.36-.035 1.188-.035 1.313 0 .127-.18.163-.39.18a.498.498 0 0 1-.257-.045c-.176-.122-.222-.33-.222-.33-.073-.417.075-.608.075-.608.073-.073.158-.132.194-.223.069-.18.124-.341.106-.556-.018-.218-.266-.36-.406-.396-.142-.037-.16.072-.266.144-.106.071-.386-.144-.476-.199-.088-.054-.123-.287-.104-.449.017-.162-.033-.302-.085-.493-.035-.132-.286-.03-.41.007-.122.037-.14.18-.07.288.07.107 0 .683.036 1.26.012.199.04.316.07.39 0 0 .045.27-.03.396 0 0-.068.167-.26.17-.146.01-.541-.002-.698.014-.176.02-.247-.125-.335-.16-.088-.037-.194-.146-.264-.217-.07-.072-.034-.738-.034-.9a.574.574 0 0 0-.089-.342 1.93 1.93 0 0 0-.11-.126c-.107-.118-.187-.016-.194-.005a1.458 1.458 0 0 0-.103.203c-.05.145-.264 1.045-.316 1.241-.052.199-.015.45.018.667.034.216.336.882.405.99.07.107.3.107.476.071.176-.037.32-.575.371-.665.053-.092.335-.325.457-.415.124-.09.495 0 .583.019.088.017.088.144.194.252.107.107-.017.556-.07.81-.053.251.053.52.105.612.051.089.281.124.406.124.123 0 .3-.18.494-.18s.317.056.458.072c.14.02.176.073.282.162.106.09.088.234 0 .324-.089.09-.546.216-.74.216-.193 0-.849 0-1.058.036-.213.037-1.042.128-1.395.109-.32-.017-2.877.055-3.398.068-.111.003-.343-.034-.343-.034s-.347-.068-.562.092a.386.386 0 0 0-.09.1l-.005.004-.008.014-.016.026c-.051.092-.156.324.01.464.18.138.564.506.692.506.16 0 .778.054.917.018.1-.025.234-.059.39-.101 0 0 .608-.1 1.227-.055l.129.012c.177.018.212-.016.477-.09.264-.071.688-.09.933-.143.248-.055.32-.018.388.017.047.024.156.14.222.241a.24.24 0 0 1-.002.246c-.042.064-.096.115-.13.161-.055.072-.176.108-.3.108s-.335.036-.459.072c-.08.024-.193.062-.27.11 0 0-.12.071-.22.178a.415.415 0 0 0-.06.073.147.147 0 0 0 .007.141c.037.067.094.168.138.236.07.109.317.143.477.088.158-.053.387-.107.491-.107a.44.44 0 0 0 .245-.087l.002.001s.088-.046.138-.06c.09-.026.224-.06.35-.07.18-.011.536-.055.675-.07a.766.766 0 0 1 .082-.007c.001 0 .065.008.047.095a1.943 1.943 0 0 1-.161.496s-.11.235-.134.674a11.23 11.23 0 0 0-.027.54c0 .216.054.377.158.431.107.055.473-.037.507-.126a.127.127 0 0 0 .006-.061c-.044-.428.198-.69.198-.69s.056-.052.094-.132a.318.318 0 0 0 .031-.117c.016-.118.005-.317.005-.406 0-.109.016-.19.05-.277.04-.1.044-.187.027-.348-.017-.163-.04-.259.084-.276.123-.018.232-.01.357-.067.114-.052 1.27-.018 1.392-.018.124 0 .11.01.197.028.087.019.12.151.12.278 0 .126-.228.234-.37.288-.14.054-.283.143-.298.216-.018.07.228.07.351.036a1.39 1.39 0 0 0 .244-.115l.003-.002a1.744 1.744 0 0 1 .559-.195l.075-.018.115-.037s.31-.092.404-.115l.008-.001a.413.413 0 0 0 .208-.114.812.812 0 0 0 .065-.138l.001-.002a.433.433 0 0 0-.088-.385c-.035-.046-.065-.071-.065-.071l-.01-.01-.011-.009a.894.894 0 0 0-.469-.194 383.879 383.879 0 0 0-1.882-.031 77.443 77.443 0 0 0-.646.022h-.036a2.38 2.38 0 0 1-.2 0c-.088-.017.016-.475 0-.546-.02-.073-.23-.073-.426-.198l-.011-.008c-.07-.06-.059-.153-.059-.153 0-.012.005-.023.012-.034ZM73.016 63.696v.172l-.001.014c-.004.078-.011.26-.014.285-.004.086-.045.212-.11.266a1.36 1.36 0 0 1-.31.042c-.02 0-.133.014-.264.028-.132.023-.308.051-.493.057-.475.054-.364-.29-.364-.29v-.001c.019-.231.22-.602.22-.602.114-.3.317-.513.357-.799l.042-.342c0-.114.028-.228.084-.343.517.343.853.771.853 1.513Zm-.587 2.355-.098.3c0 1.02-1.068 1.032-1.634 1.366h-.002c-.09.049-.163-.005-.186-.026l-.006-.005-.002-.002a.627.627 0 0 0-.187-.073c-.138-.008-.47-.074-.47-.074-.32-.045-.167-.435-.167-.435.037-.248.357-.345.528-.694.162-.318.28-.791.59-.891l.012-.004a.406.406 0 0 1 .068-.013c.175-.032.606-.101.933-.074l.04.004h.004c.307.043.49.039.596.028 0 0 .074-.008.06.124a.809.809 0 0 0-.023.108 1.368 1.368 0 0 0-.014.204c0 .043-.014.1-.042.157Zm-3.54 1.046c-.029-.005-.042-.028-.046-.063-.077-.384.3-1.135.3-1.135.1-.216.254-.38.376-.38.07 0 .266.16.266.36 0 .258-.742 1.133-.896 1.218Zm7.235-2.22c-.098-.367-.259-.53-1.64-.581-.111 0-.181.028-.265.028a1.22 1.22 0 0 1-.433-.095l-.016-.006-.017-.009c-.13-.08-.037-.317-.037-.317.052-.1.07-.22.07-.33 0-.325-.087-1.03-.41-1.434l-.002-.002a.876.876 0 0 0-.2-.185 5.273 5.273 0 0 0-.302-.23 9.249 9.249 0 0 0-.527-.346 1.615 1.615 0 0 0-.487-.165l-.017-.006c-.013 0-.027 0-.04.002h-.019a.608.608 0 0 0-.556.626c0 .257.154.385.154.67 0 .4-.112.828-.322 1.185-.215.219-.24.622-.557.798v.001l-.01.004a.658.658 0 0 1-.177.062c-.692.214-.678-.174-.678-.174a.265.265 0 0 1-.005-.049c0-.334.135-.7.309-1.042l.662-1.388a29.103 29.103 0 0 0 .554-1.109c.112-.286.247-.59.442-.807.13-.205 1.073-.852 1.11-.876a.728.728 0 0 0 .168-.444c0-.413-.741-.4-.77-.4-.517 0-1.076.4-1.44.586-.167.086-.321.1-.475.142-.196.144-.378.215-.546.215-.293 0-.433-.143-.433-.414 0-.23.116-.514.191-.831.025-.141.005-.376.005-.376-.061-.233-.141-.606-.322-.606-.322 0-.364.143-.364.414 0 .186.042.4.042.628 0 .5-.274.884-.304 1.37 0 0-.016.287-.001.491.001.03.004.058.008.084l.003.02.004.02.01.04h.002c.095.303.428.344.977.344h.126c.308 0 .7-.47.951-.47.112 0 .182.07.21.242-.084.185-.21.357-.35.514l-.251.47a1.177 1.177 0 0 0-.196.4l-.21.443c-.377.67-.307.613-.405.97-.07.214-.364.5-.406.914-.084.67-.091.977-.923 1.027-.14.014-.28.057-.406.129l-.237.142c-.154.072-.462.186-.518.186-.196 0-.294-.143-.294-.4 0-.228.07-.5.07-.742 0-.142-.014-.257-.014-.385l.028-.857a5.279 5.279 0 0 1-.084-1.027c0-.072.014-.143.014-.214 0-.4-.195-1.77-.503-1.912-.327.115-.349 2.239-.35 2.935 0 0-.031.374-.062.807-.027.385-.053.815-.055 1.072v.038c-.005.048-.143 1.196-.15 1.299l-.005.042a2.082 2.082 0 0 0-.008.172v.1c-.125.613-.223 1.312-.223 1.912 0 .214.055.6.307.685.476-.072.126-.585.951-1.841.043-.1.07-.214.084-.329l-.041-.656c0-.257.097-.385.307-.385.168 0 .574.057.783.057.112 0 .224-.029.336-.029.154 0 .238.086.238.257 0 .143-.028.314-.084.485l-.154.514s-.051.15-.086.2c-.106.14-.302.48.081.704 0 0 .85.876 1.98.843 0 0 .92-.138 1.26-.096 0 0 .823-.069 1.648-.925l.138-.14a.56.56 0 0 0 .196-.429c0-.043-.014-.1-.014-.128 0-.72.275-1.364.687-1.483 0 0 1.02-.28 1.92-.02l.06-.04c.117-.084.362-.224.315-.56Z" clip-rule="evenodd"/><path fill="#A47848" fill-rule="evenodd" d="m28.15 70.85.529 1.42c.032-.016 3.26-1.644 7.573-1.644 4.315 0 7.542 1.628 7.573 1.645l.53-1.42c-.14-.073-3.496-1.773-8.102-1.773-4.607 0-7.962 1.7-8.103 1.772Z" clip-rule="evenodd"/><path fill="#A47848" fill-rule="evenodd" d="M41.317 71.44a.36.36 0 0 1 .141-.057c.039.093.124.133.17.22.047.093.067.183.12.272.247.079.784-.536.952-.26-.139.112-.663.15-.58.397.028.088.144.108.154.213.005.066-.115.21-.175.244-.113.065-.142-.033-.234-.123-.103-.104-.13-.159-.267-.125-.094.024-.2.087-.296.081-.114-.006-.163-.11-.185-.262.144-.063.322-.06.474-.099-.013-.212-.3-.269-.274-.5ZM29.977 72.799l.03-.016c.197-.029.234.372.087.419-.152.048-.24-.352-.117-.403Zm-.301-.458c-.143-.03-.12-.21.025-.192.07.048.165.235-.025.192Zm1.057 1.924a.712.712 0 0 0 .17-.485c-.088-.028-.154.116-.208.17a.99.99 0 0 1-.257.183c-.07.032-.23.089-.294.03-.081-.07-.027-.24.01-.318.087-.172.248-.33.279-.52a.825.825 0 0 0-.178-.652c-.116-.128-.3-.095-.425-.219.19-.01.326-.277.143-.413-.195-.145-.322 0-.493.09v.013c.013.088-.038.08-.069.134-.01.018-.04.028-.053.047-.01.02.012.07 0 .093-.051.101-.164.094-.237.165.13.171.429-.195.56.058-.13.064-.124.164-.06.278-.059.063-.18-.004-.253.033-.074.038-.136.156-.136.244.149.007.405-.195.452.103.04.243-.198.362-.343.467-.175.127-.32.306-.339.538-.019.232.09.537.308.608.058.019.16.04.216.014-.023.08-.114.21-.073.292.064.123.09-.112.123-.157.07-.098.143-.08.244-.06.048.008.28.063.23-.066-.027-.067-.263-.016-.225-.158.013-.051.2-.077.246-.073.109.008.13.115.22.149.074.026.217-.031.187-.121-.034-.107-.237-.065-.203-.218.163-.043.336-.111.458-.249ZM31.543 72.84c-.073-.082-.052-.18-.049-.307.182.07.322.206.308.444a.496.496 0 0 1-.259-.137Zm-.015-.846v.014c.145-.011.24.156.236.303-.004.202-.128.09-.253.05-.007-.116.015-.243.017-.367Zm-.585.952c-.012-.126.067-.192.13-.28l-.013.028c.068-.067.108-.15.204-.16-.073.128-.136.453-.32.412Zm.292-.87v-.002h.012l-.012.001c.02.06.013.21-.032.262a.597.597 0 0 1-.213.1c.017-.171.06-.364.245-.362Zm.738.51c.013-.227-.032-.382-.038-.612-.01-.335-.23-.07-.343-.27-.09-.16.075-.38.023-.558-.272-.112-.16.222-.194.392-.056.274-.209-.054-.226-.186-.05-.058-.111-.196-.199-.132-.073.056-.015.148.023.207.106.169.285.238.293.447-.143.006-.227-.022-.326.1-.094.11-.124.315-.154.472-.027.146-.062.266-.082.41-.017.119-.09.31-.075.412.08.025.21-.103.287-.142a.765.765 0 0 1 .296-.087c.114-.01.243-.025.356.01.104.032.215.16.325.129.056-.165.024-.419.034-.593Z" clip-rule="evenodd"/><path fill="#A47848" fill-rule="evenodd" d="M32.493 72.523c-.06-.015-.09-.107-.15-.102-.066.006-.095.116-.103.18.24.04.081.478-.023.595-.128.143-.447.255-.452.491-.004.174.154.138.175.245.026.152-.168.17-.256.18a.69.69 0 0 1-.306-.038c-.085-.025-.265-.14-.343-.021a.03.03 0 0 0-.023.01c-.001.084.069.133.08.21.016.094-.04.172-.02.264.086.006.15.061.245.047.017-.106-.05-.172.018-.256.051-.063.16-.064.231-.091.042-.015.08-.048.123-.056.132-.021.244.095.371.08.067-.008.173-.07.17-.166.076 0 .162.02.203-.065.056-.116-.06-.12-.086-.19-.034-.086.023-.065.109-.122.06-.04.095-.11.151-.153.091-.07.288-.174.394-.18.069-.004.38.227.327.022-.084-.022-.119-.082-.16-.158-.047-.088-.015-.157-.047-.245-.086-.233-.176.131-.12.263-.061.057-.144.058-.226.07-.107.017-.187.046-.28.064a1.052 1.052 0 0 1 .006-.194c.181.017.22-.104.24-.282.016-.14.072-.296.055-.436-.11-.077-.208-.014-.303.034ZM34.556 73.412c-.083-.106-.167-.082-.115-.247.031-.095.103-.238.148-.335.055-.12.153-.14.245-.222.043-.037.192-.276.046-.253-.058.17-.206-.151-.162-.271.06-.166.258-.136.327.005.077-.104.227-.038.26.064.032.094.004.273-.002.377-.13.024-.239.024-.169.212.044.12.155.195.266.218.176.036.17-.084.254-.212.105-.16.126-.18.31-.144-.003.128-.152.36-.225.46-.116.162-.295.101-.451.017-.117-.062-.377-.11-.361.125.01.165.24.31.364.36-.022.204-.348.094-.484.106-.056.005-.216.017-.256.07-.058.075.002.135.02.207-.26.066-.621.055-.781-.222.298.02.565-.062.825-.188.005-.061-.06-.127-.06-.127Z" clip-rule="evenodd"/><path fill="#A47848" fill-rule="evenodd" d="M34.128 71.607c.033.039.038.205.073.265a2.349 2.349 0 0 1-.315-.005c-.003-.079 0-.16.002-.24h.013c.048-.03.178-.078.227-.02Zm.115.777c-.104 0-.23-.027-.34-.035-.002-.088.006-.168-.022-.253l.013.028c.017-.073.234-.088.292-.048.07.048.07.222.057.308Zm-.616-.495c-.08.015-.168.036-.25.038-.007-.05-.003-.218.027-.256.032-.039.198-.044.217-.02l.025-.014c-.023.078-.013.17-.019.252Zm.007.468c-.071.005-.19.086-.24.074-.083-.02-.052-.186-.048-.291-.004.005-.009.01-.012.016l.012-.029v.013c.056-.066.212-.04.291-.033.004.083.002.17-.003.25Zm1.271-1.756c-.06-.012-.157-.012-.178.061-.143-.02-.103-.04-.205.037-.04.028-.079.078-.116.111-.082.073-.139.076-.152.111-.016.046-.04.06-.062.106-.022.047-.228.22-.35.188-.113-.03-.194-.17-.286-.25-.103-.09-.22-.233-.34-.26-.092-.019-.498.014-.434.149h-.012c.175.089.36.155.513.268.063.047.207.164.203.256-.006.111-.1.09-.165.142-.167.135-.178.446-.19.66-.012.195-.081.453-.021.651a.284.284 0 0 0 .141-.02c.197-.074.363-.251.584-.234.148.012.28.068.417.12.134.049.158.067.168-.109a6.258 6.258 0 0 0-.001-.778c-.008-.105-.002-.25-.056-.333-.07-.111-.179-.04-.257-.115a.421.421 0 0 1 .03-.065c.144-.053.292-.208.41-.306.069-.059.125-.13.194-.182.078-.056.193-.074.165-.208Z" clip-rule="evenodd"/><path fill="#A47848" fill-rule="evenodd" d="M36.186 72.133c.082.002.257-.022.309.059.03.047.007.184.003.243-.107.016-.21-.04-.313-.049.004-.086-.02-.164-.012-.253h.013Zm.008-.483.013-.014c.253.014.288.08.273.345-.256.008-.29-.044-.286-.33Zm-.173.364c-.106.005-.24.016-.338-.02-.003-.092-.026-.25.048-.305l-.02.01.026-.014c-.002 0-.004.003-.006.004a.747.747 0 0 1 .258-.053c.032.093.037.28.032.378Zm-.105.398c-.104.045-.21-.022-.322.047.014-.078.022-.229.059-.294v.014c.12.004.242.012.341-.019.003.113.022.21-.078.252Zm.578-1.436c.111-.082.388-.241.35-.429a.87.87 0 0 0-.307.028c-.072.025-.164.132-.238.18-.116.078-.306.175-.441.165-.132-.008-.248-.116-.387-.148-.157-.036-.2-.087-.289-.233l.04-.014c-.052 0-.265.052-.301.11-.097.156.109.183.194.204.218.052.38.196.57.316.066.043.188.102.172.22-.017.105-.133.105-.213.147-.189.102-.168.432-.207.64a1.994 1.994 0 0 0-.043.422c.203.016.383-.047.596-.043.097.002.195 0 .292.006.145.007.26.09.39.104.033-.228-.032-.503-.037-.74-.01-.385-.136-.448-.46-.547.02-.225.161-.273.319-.388Z" clip-rule="evenodd"/><path fill="#A47848" fill-rule="evenodd" d="M36.75 71.265c.01-.053.218-.154.306-.242-.067-.085-.17-.128-.248-.195-.242-.201.074-.315.221-.156.032.036.107.112.126.146.02.032.022.117.04.136.08.088.239-.047.306-.097.086-.066.157-.14.254-.194.048-.027.305-.166.364-.097.08.089-.111.177-.164.203-.176.092-.335.2-.518.264-.008.112.06.099.11.153.015.018.118.126.123.138.047.119-.065.074-.081.182-.022.121.065.097.138.126.068.026.335.2.353.021.005-.058-.068-.116-.085-.177a1.626 1.626 0 0 1-.042-.224c.016-.092.149-.162.228-.163.135 0 .125.136.203.2.08.063.144-.024.225-.054.102-.037.23-.01.181-.163-.027-.089-.454-.457-.15-.427.145.015.38.3.414.46.22.137.441-.323.662-.259.216.064.006.214-.081.266-.133.077-.296.13-.412.222.047.104.276.261.242.384-.01.033-.15.14-.178.137-.046-.004-.08-.101-.109-.143-.046-.067-.088-.136-.134-.2-.017-.025-.11-.183-.132-.192-.067-.028-.095.063-.147.094-.107.066-.234.037-.337.095.023.135-.143.175-.146.31a.29.29 0 0 0 .203.279c.388.103.2-.596.497-.497.03.249.03.591-.2.683-.205.083-.355-.283-.494.036-.11.25.047.548.021.818-.024.245-.244.39-.159.644.013.04.07.101.062.147-.026.135-.291-.023-.381-.048-.13-.038-.283-.04-.405-.095-.005-.106-.062-.127-.043-.234.017-.122.112-.209.155-.317.078-.197.156-.384.225-.572.11-.293-.014-.505-.154-.75-.052-.094-.103-.15-.149-.245-.046-.097-.01-.068-.103-.14-.036-.028-.07-.039-.102-.072.049-.206-.014-.305-.181-.17-.058.048-.19.154-.233.13-.04-.024-.098-.1-.09-.151Z" clip-rule="evenodd"/><path fill="#A47848" fill-rule="evenodd" d="M39.597 71.594c.176-.03.349-.06.522-.072.19-.012.158-.098.047-.217a.497.497 0 0 0-.183-.14c-.09-.04-.259-.027-.329-.103-.215-.232.519-.144.59-.156.025.175.079.35.167.489.114-.013 1.067-.495 1.043-.096-.147.033-.304.043-.447.09-.05.016-.144.073-.21.099-.021.008-.137.038-.155.059-.114.127.069.158.168.224a.516.516 0 0 1 .209.231c.042.116.02.263.037.379.016.112.096.177.123.3.08.37-.183.346-.409.288-.167-.044-.466-.038-.325.222.107.2.24.377.148.621-.125.33-.4.072-.611.02-.294-.072-.308.186-.149.39-.159.053-.405-.035-.555-.107-.173-.084-.354-.233-.369-.456a.44.44 0 0 0 .205.041c.18 0 .455-.043.611-.117.115-.053.105-.147.071-.289-.031-.131-.115-.237-.05-.374.045-.096.234-.238.32-.302-.052-.12-.145-.128-.159-.277-.012-.115.064-.316.192-.34.207-.038.417.462.18.495.013.232.24.34.44.293.222-.051.02-.418-.067-.538.069-.01.18-.026.159-.119-.09-.033-.177-.138-.25-.2-.059-.05-.124-.094-.165-.163-.271.032-.493.21-.757.23-.025-.08.007-.123 0-.197-.005-.075-.036-.133-.042-.208ZM42.935 72.308c-.012-.079.04-.14.1-.165l-.024-.002.026.001h-.003c.059.012.114.075.08.143-.035.074-.12.023-.18.023Zm-.154.338c.032.092-.011.238-.123.228-.172-.015-.152-.298.017-.3 0 0 .088.022.106.072Zm.605.796c.022.022.03.055.05.078.05-.097.007-.141-.007-.224-.016-.095-.014-.184-.012-.282a.814.814 0 0 0-.03-.293c-.026-.086-.086-.149-.114-.205-.023-.043-.057-.012-.048-.084.055-.004.131.068.174.001.047-.074-.05-.183-.09-.228-.087-.1-.283-.222-.41-.194h-.012c-.172-.088-.106.263-.096.333-.248.043-.426.077-.512.38-.09.318.122.58.1.909-.027.431-.507.149-.673-.008-.168-.157-.244-.385-.234-.632-.1.009-.051.386-.055.48-.009.186.026.332.168.434.073.053.13.038.204.07.09.039.077.06.116.169.055.152.093.402.255.465.112.23.458.18.646.265.153.07.195.257.12.412.093.025.2-.025.292-.045.116-.026.185-.041.095-.176-.063-.096-.183-.116-.153-.268.026-.123.159-.214.196-.338.134-.432-.063-.66-.291-.998-.075-.11-.186-.32-.08-.458.16-.207.328.36.4.437Z" clip-rule="evenodd"/><path fill="#A47848" fill-rule="evenodd" d="M28.628 76.254c.664-.316 3.73-1.667 7.685-1.667 3.956 0 7.023 1.352 7.685 1.667l.027.328.006.063s-3.267-1.713-7.718-1.713c-4.45 0-7.718 1.713-7.718 1.713l.007-.074.026-.317Zm15.933-8.69c.498-.103.851-.57.807-1.096a1.02 1.02 0 0 0-.982-.938l-.108-1.267c.493-.107.843-.571.798-1.094a1.02 1.02 0 0 0-.972-.937l-.109-1.267c.498-.103.852-.57.807-1.096a1.02 1.02 0 0 0-.981-.938l-.08-.925a.719.719 0 0 0-.775-.66c-.373.034-.654.446-.654.818 0 .022.001.043.003.065l1.64 17.24s-3.23-1.663-7.632-1.663c-4.4 0-7.631 1.663-7.631 1.663l1.497-17.336a.723.723 0 0 0-.65-.787.719.719 0 0 0-.776.66l-.08.925a1.02 1.02 0 0 0-.98.938c-.045.526.309.993.807 1.096l-.109 1.266a1.018 1.018 0 0 0-.98.938c-.046.526.308.993.805 1.096l-.108 1.265a1.02 1.02 0 0 0-.98.938c-.046.526.307.993.806 1.096L27 78.554c-.018.198.198.331.364.224 1.109-.717 4.4-2.562 8.884-2.562 4.491 0 7.782 1.845 8.89 2.562a.238.238 0 0 0 .364-.225l-.942-10.99Z" clip-rule="evenodd"/><path fill="#A47848" fill-rule="evenodd" d="M35.716 67.294a.152.152 0 0 0-.112.047.154.154 0 0 0-.045.113c0 .046.015.084.045.114.03.031.068.046.112.046a.15.15 0 0 0 .112-.046.157.157 0 0 0 .047-.114.152.152 0 0 0-.047-.112.148.148 0 0 0-.112-.048Z" clip-rule="evenodd"/><path fill="#A47848" fill-rule="evenodd" d="M39.059 66.444h-.019a.488.488 0 0 1-.471-.398l-.005-.026c-.052-.27-.034-.581-.034-.581h-.364v-9.103h.829c.155.006.747.098.55 1.167-.084.483-.238 1.08-.255 2.21-.036 2.444.609 3.865.609 4.704 0 .876-.154 2.004-.84 2.027Zm-1.213-1.005h-.557v-9.103h.556v9.103Zm-.29 1.85-.413.802-.097-.05.36-.704a.025.025 0 0 0 0-.023.023.023 0 0 0-.02-.011h-.348v-.114h.459a.068.068 0 0 1 .06.1Zm-.587-1.85h-.556v-9.103h.556v9.103Zm-.2 2.647h-.523a.041.041 0 0 1-.038-.025.042.042 0 0 1 .007-.046l.277-.304c.055-.06.094-.108.118-.143a.195.195 0 0 0 .034-.11.148.148 0 0 0-.048-.108.164.164 0 0 0-.12-.047.157.157 0 0 0-.117.048.226.226 0 0 0-.055.141v.016h-.114l.001-.018a.314.314 0 0 1 .09-.218.278.278 0 0 1 .202-.083.267.267 0 0 1 .274.249.287.287 0 0 1-.044.174 1.044 1.044 0 0 1-.126.161l-.181.199h.363v.114Zm-.677-2.647h-.556v-9.103h.556v9.103Zm-.128 2.137a.744.744 0 0 1-.072.132l-.261.395-.096-.063.21-.322a.258.258 0 0 1-.05.004.237.237 0 0 1-.179-.078.276.276 0 0 1-.071-.192.272.272 0 0 1 .276-.273c.077 0 .141.027.192.08.05.054.076.118.076.193a.34.34 0 0 1-.025.124Zm-.749-2.137h-.555v-9.103h.555v9.103Zm-.081 2.636h-.115v-.748a.011.011 0 0 0-.012-.012h-.131l.053-.087a.057.057 0 0 1 .048-.028h.1c.032 0 .057.025.057.056v.82Zm-.796-2.636h-.43s.018.31-.033.581l-.005.026a.488.488 0 0 1-.472.398h-.018c-.687-.023-.84-1.151-.84-2.027 0-.84.644-2.26.608-4.704-.017-1.153-.177-1.752-.26-2.24l.013.03c-.186-1.015.335-1.15.522-1.167h.915v9.103Zm9.394-9.695c-.125-.217-.27-.288-.444-.376-.554-.284-1.485-.227-2.26.005-.55.163-.94.3-2.015.3h-5.567c-1.075 0-1.466-.137-2.016-.3-.775-.232-1.706-.289-2.26-.005-.175.088-.318.16-.444.375-.234.405.047.768.223.864.289.158.531-.009 1.042.078.422.072.983.32 1.384.825.614.772.666 1.684.647 2.419-.037 1.423-.887 2.7-.912 4.825-.016 1.336.442 2.396 1.18 3.172.837.883 2.28 1.46 3.52 1.562h.91c1.241-.103 2.611-.68 3.449-1.562.737-.776 1.195-1.836 1.18-3.172-.028-2.363-.805-2.837-.923-4.767-.046-.733.104-1.782.656-2.477a2.316 2.316 0 0 1 1.386-.825c.51-.087.752.08 1.042-.078.175-.096.457-.459.222-.864Z" clip-rule="evenodd"/><path fill="#fff" fill-rule="evenodd" d="M36.614 51.348h.001ZM36.217 50.865v-.001.001Z" clip-rule="evenodd"/><path fill="#A47848" fill-rule="evenodd" d="M36.07 54.151s-.176.002-.25.052c-.002.002-.035.026-.036.083v.007l.002.023c.003.02.01.043.024.064a.106.106 0 0 0 .065.04c.025.006.054.01.084.012h.022l.339-.006.011-.001h-.001.022c.075.001.164 0 .23-.01.046-.008.065-.033.073-.045a.146.146 0 0 0 .01-.113.13.13 0 0 0-.071-.076l-.013-.006-.018-.006a1.487 1.487 0 0 0-.213-.024h-.005a2.116 2.116 0 0 0-.275.006ZM36.46 54.535c-.072-.002-.145-.005-.217-.003a7.885 7.885 0 0 0-.324.016.227.227 0 0 0-.052.013c-.023.012-.031.026-.032.029-.007.019-.006.046.019.086a.31.31 0 0 0 .135.104l.03.012h.001l.014.004c.005.002.011.002.017.003.107.025.224.014.224.014.012 0 .025 0 .037-.002a.383.383 0 0 0 .202-.075l.01-.01a.369.369 0 0 0 .049-.055.132.132 0 0 0 .025-.068v-.004c-.008-.063-.138-.064-.138-.064Z" clip-rule="evenodd"/><path fill="#9F7647" fill-rule="evenodd" d="M36.385 53.248c-.002-.043-.033-.045-.064-.045l-.201.004s-.043.001-.05.044v.004s-.002.033.014.059a.06.06 0 0 0 .018.02h.002c.048.033.145.024.145.024a.215.215 0 0 0 .081-.017.084.084 0 0 0 .032-.021l.002-.001a.084.084 0 0 0 .02-.062l.001-.001v-.008Z" clip-rule="evenodd"/><path fill="#A47848" fill-rule="evenodd" d="M37.024 52.363a.056.056 0 0 1-.003.017.058.058 0 0 1-.006.009c-.03.041-.194.033-.26.028-.111-.005-.324-.009-.326-.009l-.05.001c-.09 0-.183-.002-.274.003 0 0-.22.01-.386.02h-.034l-.048.004-.025.002h-.016v.001l-.04.003a.602.602 0 0 1-.173-.01c-.046-.018-.033-.067-.033-.067s.003-.037.076-.043l.354-.014.17-.013c.033-.002.042-.035.043-.038v-.005c.003-.105 0-.21 0-.314 0-.034.002-.067.003-.1.003-.108 0-.215.01-.32a.61.61 0 0 1 .013-.098v-.006l.002-.002a.22.22 0 0 1 .029-.08.136.136 0 0 1 .03-.032l.013-.008c.075-.043.159-.041.242-.045l.066-.003s.095 0 .142-.054c.046-.061.01-.101-.006-.115a.106.106 0 0 0-.038-.019 1.153 1.153 0 0 0-.166-.03c-.065-.007-.13-.006-.195-.013-.139-.016-.167-.037-.163-.183.004-.19-.012-.134.002-.323.004-.053.048-.104.088-.112.037-.006.057.01.06.043l.001.003a.379.379 0 0 1-.011.098s-.008.051-.013.115c0 .016-.008.082.007.14.007.025.02.05.042.065.01.007.022.012.037.014h.005l.05.005.084.01a1.958 1.958 0 0 1 .23.053c.004.002.026.01.048.022.023.01.069.04.084.11a.341.341 0 0 1-.011.165c-.003.008-.005.016-.01.024a.198.198 0 0 1-.039.057l-.01.01c-.108.082-.345.085-.345.085-.078.001-.105.014-.114.115l-.003.019s-.02.17.027.177a.137.137 0 0 0 .025.003c.13 0 .261.003.392-.001a.2.2 0 0 1 .033.001s.104-.001.14.056c.004.006.01.022.005.052a.08.08 0 0 1-.03.045.15.15 0 0 1-.102.026c-.07-.004-.14-.012-.21-.02-.008 0-.222-.012-.264.018 0 0-.019.01-.034.038a.266.266 0 0 0-.012.08l-.003.088c0 .044 0 .094.006.125.004.022.012.038.023.04.015.003.038.003.07.004.194 0 .316-.008.51.004l.113.004c.191.002.178.075.178.075Zm-.194.79a2.898 2.898 0 0 1-.264.05c-.038.006-.058.018-.053.06a.232.232 0 0 1-.013.112l-.001.002-.01.018a.136.136 0 0 1-.009.012l-.003.004a.087.087 0 0 1-.009.009l-.007.006c-.026.021-.057.032-.057.032a.186.186 0 0 0-.093.062.152.152 0 0 0-.016.04c-.004.016-.012.064.016.085.005.003.01.007.017.009a.282.282 0 0 0 .197-.027s.083-.036.1-.215l.001-.006.004-.017c.003-.014.016-.052.05-.048.027.005.058.02.06.05l.001.008v.008a.642.642 0 0 1-.07.214c-.066.128-.248.153-.248.153l-.017.004-.016.002a.353.353 0 0 1-.025.003h-.005v.001a.14.14 0 0 0-.051.012c-.017.008-.022.027-.023.037a.635.635 0 0 0-.003.11.074.074 0 0 0 .024.045.087.087 0 0 0 .005.003c.003 0 .005.002.007.003a.148.148 0 0 0 .056.013c.04.003.152.01.228.012h.025c.045.004.14.025.168.132l.001.005.002.008a.782.782 0 0 1 .012.143v.018-.002a.852.852 0 0 1-.054.27s-.036.117-.114.209a.378.378 0 0 1-.245.12c-.047.006-.086.007-.086.007l.001-.001c-.054.002-.097 0-.097 0h-.003c-.063 0-.114-.001-.153-.004a.53.53 0 0 1-.127-.032.427.427 0 0 1-.154-.116c-.076-.099-.092-.201-.092-.201a1.753 1.753 0 0 1-.025-.32v-.006a.387.387 0 0 1 .023-.142l.005-.011.002-.003.009-.012a.127.127 0 0 1 .078-.041c.1-.017.202-.023.304-.033l.02-.004.003-.001.013-.004a.075.075 0 0 0 .042-.053c.005-.053.002-.13.002-.135-.01-.035-.044-.04-.107-.042h-.022c-.05-.003-.29-.025-.322-.215l-.018-.086-.007-.046s-.016-.082.02-.09c.001 0 .034-.01.057.026 0 0 .023.034.032.072.006.023.01.044.011.057 0 0 .012.139.158.172l.043.007h.002l.007.001c.034.004.118.009.141-.029a.058.058 0 0 0 .005-.012.267.267 0 0 0 .001-.053v-.004a.18.18 0 0 0-.003-.016.094.094 0 0 0-.058-.067l-.003-.001H36.1a.034.034 0 0 0-.008-.003l-.004-.002-.027-.008a.435.435 0 0 1-.041-.019c-.066-.041-.08-.117-.08-.117h.001a.173.173 0 0 1-.005-.047c.002-.07-.022-.09-.09-.083a4.239 4.239 0 0 1-.279.015l-.024-.002a.087.087 0 0 1-.018-.004h-.002a.05.05 0 0 1-.035-.036.108.108 0 0 1 .006-.053.077.077 0 0 1 .026-.032c.04-.03.106-.03.106-.03h.01c.21-.008.419-.004.628-.008.15-.003.299-.012.448-.016a.299.299 0 0 1 .108.01l.005.003h.002l.013.011c.007.005.013.01.014.015a.06.06 0 0 1 .005.036.062.062 0 0 1-.028.04Zm-1.367-.307c.007-.04.02-.087.078-.086.058.002.116.002.174.001.229-.001.458-.002.686-.005.13-.002.258-.008.387-.01.02 0 .05.018.055.033.006.02-.003.065-.018.078a.134.134 0 0 1-.078.024c-.065.003-.13.002-.196.002l-.228.004-.104.004-.424.008c-.089 0-.176.009-.265.008-.039 0-.075-.016-.067-.06Zm3.55-.523c0-.43-.288-.78-.642-.78h-.27l-.152-1.233c-.082-.634-.635-1.126-1.417-1.126h-.56c-.782 0-1.334.492-1.416 1.126l-.152 1.233h-.271c-.355 0-.642.35-.642.78 0 .431.287.782.642.782h.078l-.33 2.683c0 .096.059.173.152.173h4.439c.092 0 .151-.077.151-.173l-.33-2.683h.078c.354 0 .643-.35.643-.782Z" clip-rule="evenodd"/><path fill="#fff" fill-rule="evenodd" d="M36.33 54.426h.001Z" clip-rule="evenodd"/></g><defs><filter id="a" width="154" height="157" x="0" y="0" color-interpolation-filters="sRGB" filterUnits="userSpaceOnUse"><feFlood flood-opacity="0" result="BackgroundImageFix"/><feColorMatrix in="SourceAlpha" result="hardAlpha" values="0 0 0 0 0 0 0 0 0 0 0 0 0 0 0 0 0 0 127 0"/><feOffset dy="16"/><feGaussianBlur stdDeviation="6.5"/><feColorMatrix values="0 0 0 0 0 0 0 0 0 0 0 0 0 0 0 0 0 0 0.03 0"/><feBlend in2="BackgroundImageFix" result="effect1_dropShadow_185_236"/><feBlend in="SourceGraphic" in2="effect1_dropShadow_185_236" result="shape"/></filter></defs></svg>