<svg xmlns="http://www.w3.org/2000/svg" xml:space="preserve" style="fill-rule:evenodd;clip-rule:evenodd;stroke-linejoin:round;stroke-miterlimit:2" viewBox="0 0 154 157"><g opacity=".99"><path d="m30.331 72.356.034 1.531h-.127c-.06-.384-.207-.693-.441-.927-.235-.233-.489-.35-.761-.35-.211 0-.378.061-.5.184a.585.585 0 0 0-.12.696c.06.106.156.211.288.315.097.075.322.207.673.397.491.264.823.513.994.748.17.235.254.504.254.806 0 .384-.137.714-.41.991-.274.276-.621.415-1.043.415-.132 0-.257-.015-.375-.044a2.796 2.796 0 0 1-.443-.166.608.608 0 0 0-.244-.068.284.284 0 0 0-.171.068.467.467 0 0 0-.145.206h-.115v-1.734h.115c.09.488.265.86.525 1.116.259.256.538.385.838.385.231 0 .415-.069.553-.207a.662.662 0 0 0 .127-.796.99.99 0 0 0-.24-.29 3.653 3.653 0 0 0-.571-.357c-.382-.205-.656-.38-.824-.525a1.58 1.58 0 0 1-.385-.484 1.288 1.288 0 0 1-.135-.589c0-.366.123-.678.369-.935.245-.258.555-.386.929-.386.136 0 .269.018.397.054.097.027.215.077.354.151.14.073.237.11.293.11a.156.156 0 0 0 .127-.055c.031-.036.06-.123.087-.26h.093ZM32.583 74.845v1.423c0 .234.011.381.035.44.024.059.07.11.14.154a.516.516 0 0 0 .28.066h.14v.125h-2.197v-.125h.139c.122 0 .22-.024.295-.071a.309.309 0 0 0 .124-.163c.022-.054.034-.196.034-.426v-3.021c0-.235-.012-.382-.034-.441a.333.333 0 0 0-.138-.154.522.522 0 0 0-.281-.066h-.139v-.125h2.197v.125h-.14a.542.542 0 0 0-.294.071.318.318 0 0 0-.127.163c-.023.054-.034.196-.034.427v1.3h1.484v-1.3c0-.235-.012-.382-.034-.441a.333.333 0 0 0-.14-.154.525.525 0 0 0-.282-.066h-.136v-.125h2.194v.125h-.137a.533.533 0 0 0-.294.071.318.318 0 0 0-.127.163c-.023.054-.034.196-.034.427v3.021c0 .234.011.381.034.44.023.059.069.11.139.154s.164.066.282.066h.137v.125h-2.194v-.125h.136a.539.539 0 0 0 .295-.071.323.323 0 0 0 .127-.163c.022-.054.034-.196.034-.426v-1.423h-1.484ZM38.391 75.746h-1.484l-.177.447a1.086 1.086 0 0 0-.086.369c0 .129.047.224.142.285.056.036.193.063.412.081v.125h-1.397v-.125a.607.607 0 0 0 .372-.205c.097-.112.217-.343.359-.692l1.503-3.665h.059l1.515 3.766c.144.357.263.582.356.674a.46.46 0 0 0 .297.122v.125H38.23v-.125h.084c.163 0 .277-.025.344-.074a.191.191 0 0 0 .068-.156.47.47 0 0 0-.019-.126 3.263 3.263 0 0 0-.093-.254l-.223-.572Zm-.105-.251-.626-1.581-.644 1.581h1.27ZM41.882 72.461l2.073 2.848v-1.974c0-.276-.036-.462-.108-.559-.1-.131-.266-.194-.499-.19v-.125h1.388v.125c-.178.025-.297.057-.358.097a.377.377 0 0 0-.143.193c-.034.089-.051.242-.051.459v3.823h-.105l-2.841-3.823v2.919c0 .264.055.443.166.535a.57.57 0 0 0 .379.139h.099v.125h-1.49v-.125c.231-.002.392-.054.483-.156.091-.101.137-.274.137-.518v-3.241l-.09-.122a.865.865 0 0 0-.236-.241.668.668 0 0 0-.294-.064v-.125h1.49ZM49.23 72.356v1.619h-.115c-.138-.443-.345-.779-.622-1.01a1.392 1.392 0 0 0-.908-.345 1.11 1.11 0 0 0-.784.289c-.208.193-.356.463-.443.808-.087.346-.13.7-.13 1.064 0 .44.048.826.143 1.158.095.332.248.576.46.732.211.155.463.233.754.233.101 0 .205-.012.311-.035a1.99 1.99 0 0 0 .327-.104v-.955c0-.18-.011-.297-.034-.35a.327.327 0 0 0-.141-.144.49.49 0 0 0-.259-.065h-.108v-.125h2.042v.125c-.155.012-.263.035-.324.07a.338.338 0 0 0-.141.174c-.018.043-.028.148-.028.315v.955a3.906 3.906 0 0 1-1.741.397c-.399 0-.73-.06-.993-.178a2.444 2.444 0 0 1-.697-.468 2.19 2.19 0 0 1-.473-.651 2.47 2.47 0 0 1-.217-1.047c0-.691.223-1.275.667-1.751.444-.477 1.002-.715 1.676-.715a2.7 2.7 0 0 1 .564.054c.09.019.238.07.441.155.204.084.324.127.361.127a.233.233 0 0 0 .161-.07c.05-.046.095-.134.136-.262h.115ZM51.491 74.845v1.423c0 .234.012.381.036.44.024.059.07.11.139.154a.52.52 0 0 0 .281.066h.139v.125h-2.197v-.125h.14c.122 0 .22-.024.294-.071a.304.304 0 0 0 .124-.163c.023-.054.034-.196.034-.426v-3.021c0-.235-.011-.382-.034-.441a.333.333 0 0 0-.138-.154.516.516 0 0 0-.28-.066h-.14v-.125h2.197v.125h-.139a.548.548 0 0 0-.295.071.323.323 0 0 0-.127.163c-.022.054-.034.196-.034.427v1.3h1.484v-1.3c0-.235-.011-.382-.034-.441a.33.33 0 0 0-.139-.154.528.528 0 0 0-.282-.066h-.136v-.125h2.193v.125h-.136a.539.539 0 0 0-.295.071.323.323 0 0 0-.127.163c-.022.054-.034.196-.034.427v3.021c0 .234.012.381.034.44.023.059.07.11.14.154s.164.066.282.066h.136v.125h-2.193v-.125h.136a.533.533 0 0 0 .294-.071.318.318 0 0 0 .127-.163c.023-.054.034-.196.034-.426v-1.423h-1.484ZM57.3 75.746h-1.484l-.177.447a1.068 1.068 0 0 0-.087.369c0 .129.048.224.143.285.056.036.193.063.412.081v.125H54.71v-.125a.61.61 0 0 0 .372-.205c.097-.112.216-.343.359-.692l1.503-3.665h.058l1.516 3.766c.144.357.263.582.356.674a.46.46 0 0 0 .297.122v.125h-2.032v-.125h.083c.164 0 .278-.025.344-.074a.189.189 0 0 0 .069-.156.47.47 0 0 0-.019-.126 3.263 3.263 0 0 0-.093-.254l-.223-.572Zm-.105-.251-.626-1.581-.645 1.581h1.271ZM61.534 76.928v.125h-2.196v-.125h.139c.122 0 .22-.024.294-.071a.304.304 0 0 0 .124-.163c.023-.054.034-.196.034-.426v-3.021c0-.235-.011-.382-.034-.441a.325.325 0 0 0-.137-.154.522.522 0 0 0-.281-.066h-.139v-.125h2.196v.125h-.139a.542.542 0 0 0-.294.071.318.318 0 0 0-.127.163c-.023.054-.034.196-.034.427v3.021c0 .234.011.381.035.44.024.059.07.11.14.154a.516.516 0 0 0 .28.066h.139ZM65.653 72.396c.67-.027 1.213.186 1.632.64.418.454.627 1.022.627 1.704 0 .582-.156 1.095-.468 1.537-.413.588-.996.881-1.75.881-.756 0-1.341-.28-1.754-.84-.326-.442-.49-.967-.49-1.575 0-.682.213-1.25.637-1.705a1.935 1.935 0 0 1 1.566-.642Zm.038.217c-.385 0-.677.214-.877.643-.164.353-.245.858-.245 1.518 0 .783.126 1.362.378 1.737a.839.839 0 0 0 .737.393.83.83 0 0 0 .533-.169c.182-.145.323-.376.425-.693.101-.317.152-.731.152-1.241 0-.608-.052-1.062-.155-1.363-.104-.302-.235-.515-.395-.639a.88.88 0 0 0-.553-.186ZM72.342 72.356v1.591h-.121c-.091-.415-.26-.733-.508-.955a1.233 1.233 0 0 0-.842-.332c-.263 0-.503.083-.722.248-.219.165-.379.38-.481.647-.13.341-.195.72-.195 1.138 0 .411.048.785.143 1.122.095.338.243.593.446.766.202.173.465.259.787.259.264 0 .506-.063.726-.19.22-.126.452-.344.696-.653v.396a2.319 2.319 0 0 1-.736.584 2.065 2.065 0 0 1-.894.181 2.39 2.39 0 0 1-1.194-.294 1.999 1.999 0 0 1-.806-.847 2.617 2.617 0 0 1 .031-2.422c.21-.393.493-.698.849-.914a2.15 2.15 0 0 1 1.136-.325c.295 0 .607.07.935.21.19.081.311.122.363.122a.227.227 0 0 0 .172-.08.453.453 0 0 0 .094-.252h.121ZM74.386 72.725v1.869h.084c.266 0 .459-.091.579-.274.12-.183.196-.453.229-.81h.118v2.405h-.118a1.899 1.899 0 0 0-.156-.643c-.08-.167-.172-.28-.277-.337-.106-.058-.258-.087-.459-.087v1.294c0 .253.01.408.03.464a.273.273 0 0 0 .109.139.484.484 0 0 0 .261.054h.251c.392 0 .707-.099.943-.298.237-.199.407-.501.51-.908h.115l-.189 1.46h-3.632v-.125h.14c.122 0 .22-.024.294-.071a.304.304 0 0 0 .124-.163c.023-.054.034-.196.034-.427v-3.021c0-.207-.005-.335-.015-.382a.324.324 0 0 0-.115-.183.496.496 0 0 0-.322-.095h-.14v-.125h3.517v1.358h-.118c-.06-.332-.144-.57-.252-.715a.935.935 0 0 0-.46-.318c-.116-.041-.333-.061-.651-.061h-.434ZM79.497 75.746h-1.484l-.176.447a1.068 1.068 0 0 0-.087.369c0 .129.047.224.142.285.056.036.193.063.412.081v.125h-1.397v-.125a.607.607 0 0 0 .372-.205c.097-.112.217-.343.359-.692l1.503-3.665h.059l1.515 3.766c.144.357.263.582.356.674.07.07.17.111.298.122v.125h-2.033v-.125h.084c.163 0 .278-.025.344-.074a.191.191 0 0 0 .068-.156.433.433 0 0 0-.019-.126 3.263 3.263 0 0 0-.093-.254l-.223-.572Zm-.105-.251-.626-1.581-.644 1.581h1.27ZM82.988 72.461l2.073 2.848v-1.974c0-.276-.036-.462-.108-.559-.1-.131-.266-.194-.499-.19v-.125h1.388v.125c-.178.025-.297.057-.358.097a.377.377 0 0 0-.143.193c-.034.089-.051.242-.051.459v3.823h-.105l-2.841-3.823v2.919c0 .264.055.443.166.535a.57.57 0 0 0 .379.139h.099v.125h-1.49v-.125c.231-.002.392-.054.483-.156.091-.101.137-.274.137-.518v-3.241l-.09-.122a.865.865 0 0 0-.236-.241.668.668 0 0 0-.294-.064v-.125h1.49ZM87.662 72.461h2.169v.125h-.108c-.164 0-.276.019-.337.056a.31.31 0 0 0-.13.154c-.026.066-.038.229-.038.491v2.249c0 .411.028.683.085.816.057.134.15.244.28.332a.86.86 0 0 0 .493.132.995.995 0 0 0 .581-.167c.16-.112.28-.266.359-.463.08-.196.119-.538.119-1.026v-1.873c0-.205-.019-.352-.059-.44a.374.374 0 0 0-.148-.183.816.816 0 0 0-.394-.078v-.125h1.453v.125h-.086a.525.525 0 0 0-.295.078.438.438 0 0 0-.17.234c-.027.072-.04.202-.04.389v1.744c0 .54-.033.93-.098 1.169s-.224.459-.476.66-.595.302-1.031.302c-.364 0-.645-.053-.843-.159-.271-.145-.462-.33-.573-.556-.112-.226-.168-.529-.168-.911v-2.249c0-.264-.013-.428-.04-.493a.322.322 0 0 0-.139-.154c-.066-.038-.188-.056-.366-.054v-.125ZM93.644 72.461l2.073 2.848v-1.974c0-.276-.036-.462-.109-.559-.099-.131-.265-.194-.498-.19v-.125h1.388v.125c-.178.025-.297.057-.358.097a.377.377 0 0 0-.143.193c-.034.089-.051.242-.051.459v3.823h-.105L93 73.335v2.919c0 .264.055.443.165.535a.573.573 0 0 0 .38.139h.099v.125h-1.49v-.125c.231-.002.392-.054.483-.156.091-.101.137-.274.137-.518v-3.241l-.09-.122a.865.865 0 0 0-.236-.241.668.668 0 0 0-.294-.064v-.125h1.49ZM98.938 76.928v.125h-2.196v-.125h.139c.122 0 .22-.024.294-.071a.304.304 0 0 0 .124-.163c.023-.054.034-.196.034-.426v-3.021c0-.235-.011-.382-.034-.441a.323.323 0 0 0-.138-.154.516.516 0 0 0-.28-.066h-.139v-.125h2.196v.125h-.139a.548.548 0 0 0-.295.071.323.323 0 0 0-.127.163c-.022.054-.034.196-.034.427v3.021c0 .234.012.381.036.44.024.059.07.11.139.154.07.044.163.066.281.066h.139ZM103.569 72.461v.125a.67.67 0 0 0-.409.268c-.086.113-.216.378-.387.796l-1.447 3.508h-.102l-1.441-3.651c-.173-.44-.289-.699-.348-.775-.059-.077-.17-.126-.333-.146v-.125h2.013v.125h-.068c-.181 0-.305.025-.371.075-.048.033-.072.083-.072.149 0 .04.009.088.025.144.017.055.072.203.167.445l.896 2.286.83-2.035c.099-.247.16-.411.183-.495a.822.822 0 0 0 .034-.213.306.306 0 0 0-.195-.298.893.893 0 0 0-.353-.058v-.125h1.378ZM105.332 72.725v1.869h.083c.267 0 .46-.091.58-.274.119-.183.196-.453.229-.81h.118v2.405h-.118a1.921 1.921 0 0 0-.157-.643c-.079-.167-.172-.28-.277-.337-.105-.058-.258-.087-.458-.087v1.294c0 .253.009.408.029.464.02.056.056.103.11.139a.48.48 0 0 0 .26.054h.251c.393 0 .707-.099.944-.298.236-.199.406-.501.509-.908h.115l-.189 1.46h-3.631v-.125h.139c.122 0 .22-.024.295-.071a.307.307 0 0 0 .123-.163c.023-.054.034-.196.034-.427v-3.021c0-.207-.005-.335-.015-.382a.324.324 0 0 0-.115-.183.492.492 0 0 0-.322-.095h-.139v-.125h3.516v1.358h-.117c-.06-.332-.145-.57-.253-.715a.93.93 0 0 0-.46-.318c-.116-.041-.333-.061-.651-.061h-.433ZM109.489 74.96v1.287c0 .249.013.405.041.469a.315.315 0 0 0 .148.154c.07.039.201.058.393.058v.125h-2.15v-.125c.194 0 .326-.02.395-.059a.327.327 0 0 0 .145-.155c.028-.063.042-.218.042-.467v-2.98c0-.249-.014-.405-.042-.469a.319.319 0 0 0-.147-.155c-.07-.038-.201-.057-.393-.057v-.125h1.952c.508 0 .88.038 1.115.115.236.076.428.218.576.425.149.206.223.449.223.726 0 .339-.111.619-.334.84-.143.14-.342.245-.598.315l1.01 1.555c.132.201.226.326.282.376.084.07.183.108.294.115v.125h-1.323l-1.354-2.093h-.275Zm0-2.252v2.012h.176c.287 0 .502-.029.645-.087a.66.66 0 0 0 .336-.311c.081-.15.122-.346.122-.588 0-.35-.075-.608-.225-.776-.149-.167-.39-.25-.723-.25h-.331ZM115.334 72.356l.034 1.531h-.127c-.06-.384-.207-.693-.441-.927-.235-.233-.488-.35-.761-.35-.211 0-.377.061-.5.184a.585.585 0 0 0-.12.696c.06.106.156.211.289.315.097.075.321.207.672.397.492.264.823.513.994.748.17.235.255.504.255.806 0 .384-.137.714-.411.991-.274.276-.621.415-1.043.415-.132 0-.257-.015-.374-.044a2.726 2.726 0 0 1-.443-.166.616.616 0 0 0-.245-.068.284.284 0 0 0-.171.068.467.467 0 0 0-.145.206h-.115v-1.734h.115c.091.488.266.86.525 1.116.259.256.538.385.838.385.231 0 .416-.069.553-.207a.662.662 0 0 0 .127-.796.99.99 0 0 0-.24-.29 3.632 3.632 0 0 0-.57-.357c-.382-.205-.657-.38-.824-.525a1.569 1.569 0 0 1-.386-.484 1.288 1.288 0 0 1-.135-.589c0-.366.123-.678.369-.935a1.23 1.23 0 0 1 .929-.386 1.458 1.458 0 0 1 .752.205c.139.073.237.11.292.11a.155.155 0 0 0 .127-.055c.031-.036.06-.123.087-.26h.093ZM118.174 76.928v.125h-2.196v-.125h.139c.122 0 .22-.024.295-.071a.303.303 0 0 0 .123-.163c.023-.054.035-.196.035-.426v-3.021c0-.235-.012-.382-.035-.441a.325.325 0 0 0-.137-.154.522.522 0 0 0-.281-.066h-.139v-.125h2.196v.125h-.139a.542.542 0 0 0-.294.071.318.318 0 0 0-.127.163c-.023.054-.034.196-.034.427v3.021c0 .234.011.381.035.44.024.059.07.11.14.154a.516.516 0 0 0 .28.066h.139ZM122.291 72.461v1.243h-.111c-.066-.287-.139-.493-.22-.618a.861.861 0 0 0-.332-.3c-.078-.041-.215-.061-.412-.061h-.313v3.543c0 .234.012.381.036.44.024.059.07.11.14.154a.522.522 0 0 0 .283.066h.139v.125h-2.199v-.125h.139c.122 0 .22-.024.294-.071a.318.318 0 0 0 .127-.163c.023-.054.035-.196.035-.426v-3.543h-.304c-.283 0-.489.065-.617.196-.179.183-.293.444-.34.783h-.118v-1.243h3.773ZM127 72.461v.125a.586.586 0 0 0-.319.132c-.103.095-.267.354-.49.776l-.911 1.663v1.111c0 .237.012.384.035.442a.33.33 0 0 0 .134.152.483.483 0 0 0 .268.066h.236v.125h-2.358v-.125h.22a.533.533 0 0 0 .294-.071.318.318 0 0 0 .127-.163c.023-.054.034-.196.034-.426v-.922l-.988-1.967c-.196-.389-.335-.617-.415-.686a.491.491 0 0 0-.322-.107v-.125h2.014v.125h-.09c-.122 0-.207.019-.256.058-.048.038-.073.079-.073.122 0 .081.083.285.248.613l.759 1.52.756-1.385c.188-.339.282-.563.282-.674a.184.184 0 0 0-.08-.152c-.071-.057-.2-.091-.388-.102v-.125H127ZM33.579 60.758s-.361.009-.38.186c0 0-.02.115-.01.337 0 0 .048.399.048.453 0 0 .049.097.04.523 0 0-.029.69-.044.804 0 0 .023.146.008.264 0 0-.023.26.094.314 0 0 .191.106.731-.027 0 0 .023-.02 1.113-.22 0 0 .387-.046.592-.106 0 0 .33-.059.468-.073 0 0 .11-.021.205-.048 0 0 .352-.079.658-.118 0 0 .124-.074.352-.033 0 0 .116.039.241.053 0 0 .241.079.379.146 0 0 .069.059.089.082 0 0 .065.034.13.06 0 0 .382.183.418.297 0 0 .067.178.016.405 0 0-.038.174-.052.333 0 0 .021.505-.761.732 0 0-.209.071-.892-.009 0 0-1.268-.053-1.969.054 0 0-.898.15-1.698.495 0 0-.508.267-.848.347 0 0-.614.097-1.092.044h-.005s-.239-.062-1.029.143c0 0-.761.265-1.238.469 0 0-.371.222-1.073.142 0 0-.256-.095-.425-.234 0 0-.438-.274-.613-.732 0 0-.095-.287.044-.499 0 0 0-.085.636-.311 0 0 .723-.195 1.09-.235 0 0 .583-.134.847-.226 0 0 .535-.153.834-.193 0 0 .519-.173.636-.3 0 0 .062-.339.11-.499 0 0 .166-1.339.088-3.166 0 0-.107-1.277 0-2.626 0 0 .107-.727.213-1.881 0 0 .041-.389-.028-.709 0 0-.155-.239-.135-.523 0 0-.01-.444.417-.621 0 0 .353-.168.82-.142 0 0 .351-.097.781.071 0 0 .155.071.263.115 0 0 .019.071.049.08 0 0 .527.213.556.799 0 0 .048.478-.118.93a3.319 3.319 0 0 1-.33.613s-.088.15-.157.479c0 0-.214 1.002-.205 1.49 0 0 .019.079.282-.026 0 0 1.375-.418 1.473-.506 0 0 .185-.133.488-.09.04 0 .225.063.282.09 0 0 .099.063.18.184 0 0 .156.182.293.224 0 0 .122.082.138.264 0 0-.013.228-.001.28l.001.008c.015.034.021.072.01.215 0 0-.01.1-.05.145 0 0-.016.025-.026.12-.012.095-.045.131-.138.186 0 0-.105.07-.154.095 0 0-.209.131-.516.216 0 0-.97.526-1.226.639 0 0-.509.307-.9.227ZM47.4 57.542s.286-.206.307-.414c0 0 .044-.339-.066-.631 0 0-.368-.69-1.207-.831 0 0-.416-.121-.701-.014 0 0-.049.022-.099.03 0 0-.08.009-.101.087 0 0-.007.072-.042.147 0 0-.033.095-.033.197 0 0-.018.165-.015.324 0 0-.003.063.063.113 0 0 .088.093.102.134 0 0 .107.143.226.192 0 0 .029.062.009.203 0 0-.011.366-.004.422 0 0 .01.03.047.037 0 0 .044-.011.088-.083 0 0 .044-.094.107-.107 0 0 .115-.046.182.03 0 0 .12.063.171.189 0 0 .199.18.454.186 0 0 .118-.032.147-.099 0 0 .029-.039.182-.039 0 0 .036.006.162-.067M46.076 59.182s-.099-.165-.274-.252c0 0-.164-.06-.353.08 0 0-.053.044-.108.209 0 0-.04.116-.107.196 0 0-.459.472-.493.606 0 0-.34.38-.413.621 0 0-.3.731-.417 1.583 0 0-.163.69-.192.858 0 0-.26 1.283-.142 2.613 0 0 .122 1.032.463 1.406 0 0 .274.238.342.256l.29.111c.012.006.024.01.032.013.068.026.234.044.525-.089 0 0 .323-.16.615-.389 0 0 .069-.027.165-.082 0 0 .86-.592 1.202-1.276 0 0 .115-.177.232-.639 0 0 .029-.231-.155.027 0 0-.068.133-.108.24 0 0-.244.294-.301.444 0 0-.4.515-.926.691 0 0-.411.141-.762-1.082 0 0-.204-1.566.399-3.441 0 0 .172-.439.186-.652 0 0 .118-.334.233-.613 0 0 .162-.372.279-.519 0 0 .233-.346.06-.665 0 0-.016-.071-.272-.255Z" style="fill:#0054a6;fill-rule:nonzero" transform="translate(16.646 -2.08)"/><path d="M57.524 61.531s-.144-.212-.685-.254c0 0-.275-.01-.742.063 0 0-.549.1-1.061.093 0 0-.183-.02-.095-.22 0 0 .3-.697.41-1.15 0 0 .354-.943-.714-1.582 0 0-.654-.428-2.468.397 0 0-.351.213-.585.359 0 0-.176-.172.819-1.304 0 0 .395-.451.834-.85 0 0 .468-.321.717-.586 0 0 .161-.2.336-.372 0 0 0-.068.175-.053 0 0 .306-.107.234-.6 0 0-.161-.997-1.696-.812 0 0-.629.054-.893.693 0 0-.847.731-1.316.731 0 0-.088.041.117-.265 0 0 .483-.479.615-1.211 0 0 .335-.758-.366-1.345 0 0-.323-.16-.631.027 0 0-.101.036-.168.152 0 0-.06.114-.079.346 0 0-.078.168-.214.256 0 0-.386.55-.634 1.096 0 0-.864 1.597-.278 2.301 0 0 .122.125.335.17 0 0 .134.107.313.103 0 0 .313-.015.605-.13 0 0 .605-.302.887-.364 0 0 .098-.018.02.097 0 0-.216.453-.381.736 0 0-.593.986-1.258 1.978 0 0-.887 1.455-1.502 2.75 0 0-.194.337-.233.47 0 0-.048.107-.342.24 0 0-.389.195-.536.231 0 0-.303.061-.45-.036 0 0-.184-.098-.399.081 0 0-.253.106-.126.415 0 0 .107.258.186.319 0 0 .067.072.126.16 0 0 .165.151.478.143 0 0 .272.026.282-.08 0 0-.01-.151.157-.239l.317-.132.012-.005s-.096.614.003 1.112c0 0 .277 1.228 1.798 1.507 0 0 .834.135 2.15-.091 0 0 .215-.015.331.091 0 0 .128.143.333.161 0 0 .302-.006.419-.042 0 0 .681-.455.966-.863 0 0 .399-.7.399-2.183 0 0 .157-.815.605-1.356 0 0 .048-.107.691-.142 0 0 1.112-.071 1.814-.071 0 0 .324.012.381-.194 0 0 .017-.372.046-.449 0 0 0-.272-.059-.297Zm-6.301 4.242s-.027.024-.075.049h-.008c-.616.063-1.257-.032-1.257-.032-.476-.088-.643-.432-.643-.432 0-.087-.027-.48-.027-.48 0-.776.142-.992.142-.992.043-.024.228-.175.228-.175.195-.119.43-.153.43-.153.195-.047.511-.142.511-.142.115.198.002.491.002.491 0 .329.38.746.38.746a.81.81 0 0 1 .189.306c-.024.235-.134.433-.134.433a.716.716 0 0 0 .189-.074c.038.042.087.115.073.198 0 0-.004.054.012.075 0 0 .049.153-.012.182Zm2.467-2.878c-.123.328-.308.895-.308.895-.237.744-.488 1.293-.488 1.293-.088.16-.276.293-.276.293a1.609 1.609 0 0 1-.188.117 2.837 2.837 0 0 1-.606.135s-.279.045-.33 0c0 0-.065-.08-.133-.089 0 0-.06-.01-.158-.25.045-.029.073-.051.073-.051.078-.141.277-.232.277-.232.245-.143.281-.303.281-.303.115-.233-.036-.545-.036-.545-.112-.159-.21-.368-.21-.368-.035-.175-.018-.279-.018-.279.027-.311.423-.448.439-.448 1.198-.288 1.611-.344 1.611-.344.148-.072.07.176.07.176Zm.366-1.455c-.044.133.037.192-.242.272-.278.08-1.607.372-1.607.372.063-.186 0-.444 0-.444-.097-.307-.689-.62-.689-.62-.145-.112-.227-.092-.227-.092-.081-.007-.299-.034-.299-.034-.33-.027-.268.259-.268.259.021.247.158.573.158.573.103.23.083.452.083.452-.035.208-.408.327-.408.327-.105.046-.256.121-.256.121-.185.055-.304.099-.304.099-.455.092-.379.012-.379.012.02-.426 1.113-2.218 1.113-2.218.288.051.254.042.509.022.257-.019.527-.238.527-.238.198-.147 1.528-.746 1.528-.746.541-.246.68.413.68.413.191.691.081 1.47.081 1.47Zm-3.064-.509.344.069c-.081-.022-.344-.069-.344-.069ZM65.294 55.248s-.041-.049-.244-.122c0 0-.174-.187-.417-.125 0 0-.172.008-.271.319 0 0-.146.284-.018.639 0 0 .067.115.048.301 0 0 .089.329.244.568 0 0 .087.132.126.231 0 0 .185.194.429.159 0 0 .136-.062.167-.186 0 0 .204-.019.371-.284 0 0 .125-.266.203-.576 0 0 .157-.587-.624-.905" style="fill:#0054a6;fill-rule:nonzero" transform="translate(16.646 -2.08)"/><path d="m72.153 54.247.017-.016s-.193.088-.017.016Zm4.165 7.256s-.011-.285-.205-.302c0 0-.147-.015-.271-.049 0 0-.16-.054-.452.106 0 0-.477-.006-.79 0 0 0-.068.04-.06-.119 0 0 .138-.905.081-2.147 0 0-.241-1.472-1.634-1.242 0 0-.959.151-2.646 1.216 0 0 .233-.657 1.365-1.872 0 0 .507-.444.663-.586 0 0 .731-.656.847-.842 0 0 .312-.319.499-.408 0 0 .331-.071.331-.133 0 0-.068-.133.068-.169 0 0 .097-.053.117-.151 0 0 .127-.071.136-.301 0 0-.039-.089-.088-.151 0 0-.038-.062-.038-.15 0 0-.146-.226-.225-.306 0 0-.147-.182-.916-.174 0 0-.059.036-.226.196 0 0-.037.044-.144.053 0 0-.069-.026-.488.141 0 0-.029.018-.136.062l-.035.015-.374.328-.01.012s-.225.151-.411.293c0 0-1.697 1.233-2.741 1.633 0 0-.663.31-.351-.062 0 0 .469-.755.545-.977 0 0 .098-.248.254-.444 0 0 .071-.088.119-.159 0 0 .495-.363.555-.789 0 0 .038-.347-.234-.621 0 0-.195-.205-.215-.239 0 0-.156-.107-.4-.063 0 0-.252.231-.244.462.01.231-.008.018-.008.018s-.079.204-.166.283c0 0-1.347 2.004-1.507 3.322 0 0-.074.599.629.478 0 0 .336-.053 1.404-.505 0 0 1.376-.718 1.477-.439 0 0 .044.081-.599.878 0 0-.921 1.131-2.955 5.855 0 0-.28.423-.67.428 0 0-.097 0-.046-.212 0 0-.189.223-.218.263 0 0-.426.133-.734.199 0 0-.321.093-.555.013 0 0-.234.054-.074.346 0 0 .439.311.572.311 0 0 .204.035.321.035 0 0 .19-.093-.103.267 0 0-.145.265-.233.345 0 0-.385.578-.619.578 0 0-.231.088-.551-1.309 0 0 0-1.012.043-1.437 0 0 .235-1.502.41-2.01 0 0 .351-1.077.569-1.876 0 0 .536-.788-.097-1.119-.018-.01-.118-.228-.247-.251 0 0-.127-.061-.234.112 0 0-.051.046-.029.185 0 0-.179.195-.21.255 0 0-.366.527-.875 1.778 0 0-1.624 3.556-.336 6.058 0 0 .505 1.212 1.202 1.174 0 0 .374-.009.53-.292 0 0 .37-.236.67-1.135 0 0 .161-.377.235-.711 0 0 .013-.08.072-.146 0 0 .139-.226.146-.466 0 0 .32-.044.729-.213 0 0 .059-.044.059.036 0 0 .126 1.871 1.454 2.431 0 0 .379.215 1.502.224 0 0 .866-.064 1.314-.073 0 0 .371 0 .508.035 0 0 .478.079.801-.035 0 0 .35-.267.565-.328 0 0 .057-.01.164-.037 0 0 .11-.035.188-.16.076-.124.096-.223.177-.35 0 0 .124-.073-.096-.285 0 0-.057-.147.029-.246 0 0 .761-.825.995-2.21 0 0 .122-.73.22-1.342 0 0 .078-.054.371-.108 0 0 .896-.034 1.159-.052 0 0 .148.018.274-.177 0 0 .078-.168.029-.188 0 0 .02-.061.098-.079 0 0 .068-.026 0-.177Zm-7.515.748c.082-.135.179-.35.179-.35.041-.184.148-.344.148-.344.093-.176.228-.299.228-.299.07-.106.209.039.209.039.366.386.465.916.465.916-.007.173-.17.205-.17.205-.153.014-.373.13-.373.13-.241.15-.476.158-.476.158-.224-.004-.203-.068-.203-.068-.031-.151-.007-.387-.007-.387Zm4.181.369c-.032.674-.535 2.049-.535 2.049-.41.789-.811 1.047-.811 1.047-.08-.009-.264.079-.264.079-.225.205-.878.373-.878.373-.38.061-.966.017-.966.017-.098-.07-.486-.124-.486-.124-.371-.052-.509-.425-.509-.425-.106-.293-.195-.567-.195-.567-.165-.463 0-.977 0-.977.255-.665 1.21-.843 1.21-.843.059-.026.117.01.117.01-.02.513.058.868.058.868.051.222.226.4.226.4a.695.695 0 0 1 .155.284c.029.284.137.378.137.378.263.301.741.089.741.089.311-.09.214-.388.214-.388 0-.186-.176-.488-.176-.488-.175-.23-.147-.434-.147-.434a7.24 7.24 0 0 0 .08-.559c0-.177.048-.301.087-.31.361-.39.547-.402.547-.402.203-.036.506-.121.506-.121.293-.107.682-.133.682-.133.333-.133.207.177.207.177Zm.207-1.086s-.609.376-1.788.481c0 0-.132-.33-.213-.551 0 0-.422-.444-.694-.498 0 0-.118-.015-.191.073 0 0-.899.034-.832-.073 0 0 .255-.825.475-.972 0 0 .278-.074.534-.206 0 0 .336-.066.768-.386 0 0 1.17-.499 1.527-.519 0 0 .225-.103.407.382 0 0 .398.976.007 2.269ZM84.195 54.029s-.121-.173-.447-.283c0 0-.05-.068-.259-.121 0 0-.324-.052-.615-.013 0 0-.093-.036-.107.285 0 0-.093.563.063.806 0 0 .058.067.186.076 0 0 .044.03.082.187 0 0 .287.585.502.682 0 0 .217.012.32-.034l.012-.006c.097-.054.132-.107.205-.173 0 0 .015-.032.072-.039 0 0 .141-.085.239-.29 0 0 .173-.128.132-.39 0 0-.118-.181-.137-.332 0 0-.11-.205-.248-.355ZM83.004 56.868s-.145-.16-.213.106c0 0 .01.116-.185.408 0 0-.179.195-.344.691 0 0-.313.692-.458 1.305 0 0-.096.373-.152.496 0 0-.323.737-.469 2.59 0 0-.138 1.573.292 2.345 0 0 .33.493.701.431 0 0 .362.089.841-.647 0 0 .283-.47.468-1.092 0 0 .203-.877.348-1.418 0 0 .431-1.091.753-1.615 0 0-1.182 2.014-1.492 2.529 0 0-.462.581-.59.866 0 0-.047.077-.136.118l-.025.009c-.106.035-.12.071-.16-.222 0 0-.123-1.756.477-3.964 0 0 .087-.306.087-.533 0 0-.013-.119.206-.439 0 0 .145-.2.233-.4 0 0 .381-.425.218-1.037 0 0-.096-.204-.4-.527ZM91.51 60.178s-.424-.175-.934-.059c0 0-.592.076-.902.448 0 0-.218.297-.938.528 0 0 .047-.678.184-.875 0 0 .137-.166.156-.265 0 0 .362-.289.662-.406 0 0 .263-.107.292-.313 0 0 0-.108.062-.182 0 0 .083-.381-.354-.669 0 0-.21-.018-.292-.133 0 0-.147-.216-.202-.521 0 0-.196-.34-.406-.464 0 0-.118-.132-.055-.239 0 0 1.111-.728 2.364-1.075 0 0 .165-.042.31-.042 0 0 .372-.182.402-.405 0 0 .052-.421.015-.612 0 0-.005-.112-.178-.08 0 0-.285-.341-.957-.06 0 0-.065.016-.192.032 0 0-.082-.007-.309.182 0 0-.063.111-.172.153 0 0-.201.162-.247.228 0 0-.435.355-1.026.644 0 0 1.681-1.711 2.081-2.397 0 0 .515-.676.333-1.378 0 0-.096-.193-.133-.335 0 0-.355-.576-.798-.444 0 0-.32-.051-.937.478 0 0-.082.124-.137.224 0 0-1.209 1.214-1.491 1.455 0 0-.152.179-.113-.002 0 0-.027-.284-.272-.532 0 0-.136-.16-.342-.257 0 0-.274-.089-.331.178 0 0-.009.15-.04.257 0 0-.497.594-.593 1.615 0 0-.04.791.469.969 0 0 .389.05.643-.136 0 0 .184-.116.273-.301 0 0-.02-.231.057-.4 0 0 .089-.293.283-.949 0 0 .02-.1.391-.482 0 0 .595-.698 1.139-.874 0 0 .353-.055.371.07 0 0 .176.222-.34 1.082 0 0-.61.934-1.284 1.528 0 0-1.555 1.479-2.189 1.825 0 0-.399.16-.213.444 0 0 .185.365.555.393 0 0 .097.024.264.085 0 0 .205.133.389.098 0 0 .089.018.235-.142 0 0 .321-.319.633-.497 0 0 .08.027.041.231 0 0-.553.308-1.241 1.413 0 0-.612.47-.144.869 0 0 .258.175.55.169 0 0-2.001 1.517-2.098 2.386 0 0 .124.662 1.067.573 0 0 .56-.07 1.571-.567 0 0 0 3.184.02 3.627 0 0-.136.196-.02.888 0 0 .058.271.077.798l.002.036s.02 1.17.312 1.259c0 0 .429.141.624-.692 0 0 .189-.16.227-.515 0 0-.169-2.998.027-6.067 0 0 .011-.153 1.313-.583 0 0 .261-.164.924-.04 0 0 .454.074.646-.149 0 0 .071-.191.053-.29 0 0 .237-.198.219-.355 0 0 .063-.033-.356-.381Zm-4.03 1.5s-.732.451-1.069.568c0 0-.367.081.009-.39 0 0 1.16-1.567 1.199-1.305l-.139 1.127ZM103.541 58.516s.013-.465.086-.852c0 0 .22-.16.265-.585 0 0-.01-.324.05-.626 0 0 .087-.292.194-.461 0 0 .093-.124.073-.93 0 0-.005-.489-.513-.667 0 0-.517-.203-.672-.31 0 0-.376-.23-.64.089 0 0-.328.325-.231.653 0 0 .043.063.123.223 0 0 .049.07.095.468 0 0 .065.396.103.59 0 0-.045 1.124-.089 1.563 0 0 .008.179-.066.246 0 0-.101.054-.072.332 0 0 .052.114-.029.174 0 0-.111.292-.139.532 0 0-.191.166-.484.319 0 0-.197.04-.381.133 0 0-.548.319-.811.326 0 0-.585.039-.929-.054 0 0-.33.014-.35.4 0 0 .088.2.02.254 0 0-.181.218.015.538 0 0 .294.252.359.372 0 0 .124.088.475-.031l.041-.021s.39-.128.589-.181l.751-.208s.134-.071.118.055c0 0-.028.219-.037.346 0 0-2.625 3.881-4.73 4.91 0 0 .739.044 1.091.097 0 0 .761.027 1.385-.329 0 0 .138-.106.43-.106 0 0 .291-.035.468-.479 0 0 .352-.709.781-1.26 0 0 .274-.318.546-.497 0 0 .584-.478.603-.833 0 0 .174-.269.407-.376 0 0 .335.252.412.376 0 0 1.034 1.508 1.579 1.952 0 0 1.854 2.271 4.019 2.022 0 0 .317-.036.464-.155 0 0 .13-.04.292-.12 0 0 .13-.118.218-.29 0 0-.613-.156-1.832-.716 0 0-1.077-.843-2.132-1.375 0 0-.218-.134-.817-.826 0 0-.646-1.037-1.479-1.902 0 0-.146-.12.016-.413 0 0 .248-.318.335-.664 0 0 1.069-.546 1.741-.678 0 0 .409.052.892-.254 0 0 .175.04.469-.119 0 0 .145 0 .234-.187 0 0 .219-.066.19-.239 0 0-.171-.106-.114-.493 0 0-.054-.128-.23-.225 0 0-.301-.214-.466-.24 0 0-.157-.115-.949.08 0 0-.417.168-.71.267 0 0-.585.168-.789.327 0 0-.241.107-.238.058ZM118.415 53.964s-.009-.067-.114-.231c0 0-.046-.072-.046-.133 0 0-.205-.21-.311-.324 0 0-.224-.158-.352 0 0 0-.105.161-.193.247 0 0-.317.361-.363.435 0 0-.259.415-.366.662 0 0-.072.121-.127.188 0 0-.31.447-.457 1.068 0 0-.313.878-.019 2.574 0 0 .067.3.098.532 0 0 .217.612.481.666 0 0 .182.013.233.053 0 0-.037.06.219-.019 0 0 .277-.041.389-.041 0 0 .13-.006.183-.358 0 0 .036-.088.131-.061 0 0 .153.087.225.006 0 0 .066-.006-.049-.338 0 0-.04-.22-.057-.48 0 0-.163-.831-.317-1.131 0 0-.082-.238-.066-.784 0 0 .036-.18.044-.353 0 0 .125-.206.146-.306 0 0 .157-.293.193-.538 0 0 .121-.299.21-.446 0 0 .161-.192.204-.419 0 0 .03-.18.081-.193 0 0 .022-.068 0-.276Z" style="fill:#0054a6;fill-rule:nonzero" transform="translate(16.646 -2.08)"/><path d="M119.477 52.7s-.213-.026-.518.195c0 0-.199.095-.247.317 0 0-.092.154-.131.375 0 0-.079.328-.086 1.341 0 0-.013.682-.06 1.32 0 0-.069.497-.078 1.012 0 0-.079.496-.07.674 0 0-.067.692-.027.799 0 0 .01.043.135.052 0 0 .176.027.195.098 0 0-.038.089.155.018 0 0 .282-.053.45.035 0 0 0 .044.039.062 0 0 .057.071.107-.089 0 0 .127-.176.233-.176 0 0 .158-.019.206-.276 0 0 .108-.568.118-1.109 0 0 .027-.851.02-1.303 0 0 .019-.222.077-.586 0 0 .331-.931.341-1.392 0 0 .067-.081.098.044 0 0-.021.026.126.035 0 0 .167.107.186.178 0 0-.039.133.154.133 0 0 .166-.027.217-.08 0 0 .018.479-.109.718 0 0-.117.231-.292.444 0 0-.176.221-.244.364 0 0-.279.319-.193.781 0 0 .095.469.456.478 0 0 .109-.044.1.178 0 0 0 .452.173.567 0 0 .186.115.213.186.032.071.148.062.313.125 0 0 .275.035.304.124 0 0 .088.168-.156.328 0 0-.606.754-1.257 1.038 0 0-1.708.709-2.557 1.145 0 0-.213.114-.438.212 0 0-.693.15-.702.39 0 0 0 .222.526.328 0 0 .332.071.781-.151 0 0 .194-.133.692-.381 0 0 .833-.456 1.73-.721 0 0 2.053-.742 2.97-.937 0 0 1.589-.258 1.569.063 0 0 .264.087-2.71 2.19 0 0-.126-.444-.556-.56 0 0-.458-.097-.819.018 0 0-.119.033-.251.087 0 0-.226.12-.687.346 0 0-.118.039-.28.039 0 0-.341-.02-.24.393 0 0 .101.246.094.332 0 0 .024.218.329.238 0 0 .317.009.433.022 0 0 .066 0 .148-.027 0 0 .092-.026-.032.174 0 0-.159.166-.197.272 0 0-.155.173-.284.219 0 0-.397.159-.161.632 0 0 .278.346.437.36 0 0 .106-.034.325.212 0 0 .153.22.173.526 0 0-2.478.286-4.672 1.072 0 0-.069 0-.156-.046 0 0-.284-.07-.333.196 0 0-.125.168.136.407 0 0 .547.595.762.623 0 0 .052.039.141-.102a.088.088 0 0 0 .014-.023c.098-.169.145-.252.524-.367 0 0 1.475-.6 3.649-.875 0 0-.085 1.038-.525 1.667 0 0-.216.347-.263.47 0 0-.283.47-.722.524 0 0-.947.009-1.433-.647 0 0 .283.709.4.868 0 0 .234.364.331.4 0 0 .086.115.156.283 0 0 .387.486 1.128.273 0 0 1.458-.323 2.285-3.916 1.092-.233 1.355-.27 2.283-.25 0 0 .331.053.517.133 0 0 .399.177.486-.01 0 0-.038-.132.069-.167 0 0 .127-.108.146-.231 0 0-.099-.178-.341-.248 0 0-.098-.054.057-.054 0 0 .02-.064-.117-.19 0 0-.682-.36-1.335-.191 0 0-.234.053-.732.088 0 0-.887.063-1.189.106 0 0-.341-.505-.576-.772 0 0-.095-.061.02-.132 0 0 .312-.381.518-.896 0 0 .106-.257.253-.426 0 0 .059-.088.096-.203 0 0 1.659-.4 3.814-1.57 0 0 .81-.506.81-1.357 0 0-.057-.687-1.607-.828 0 0-1.116-.175-2.06.163 0 0-.618.062-1.233.309l.589-.301s.72-.389.76-.772c0 0 .049-.301-.244-.576 0 0-.464-.245-.756-.352 0 0-.277-.186.095-.639 0 0 .115-.082.283-.153 0 0 .613-.258.808-.337 0 0 .175-.08.351-.222 0 0 .089-.08.291-.116 0 0 .147-.07.178-.176 0 0-.06-.071.02-.134 0 0 .098.009.029-.15 0 0-.068-.133-.137-.133 0 0 .057-.107-.078-.221 0 0-.219-.09-.726-.152 0 0-.874.018-.688-.195 0 0 .078-.284.234-.399 0 0 .263-.257.331-.355 0 0 .341-.364.536-.488 0 0 .069-.079.107-.107 0 0 .04-.026.068-.16 0 0 .049-.123.176-.203 0 0 .157-.062.03-.301 0 0-.066-.072.031-.107 0 0 .097-.054-.041-.239 0 0-.04-.053-.049-.134 0 0 .029-.158-.429-.203 0 0-.262.009-.654.133 0 0-.029.026-.058-.099 0 0-.114-.407-.292-.762 0 0-.165-.328-.312-.319 0 0-.118.018-.194.053 0 0-.178.009-.235.053 0 0-.351.133-.457.807 0 0-.012.018-.032.383 0 0-.087.815-.34.938 0 0-.18.121-.253.153-.009.005-.015.006-.02.007 0 0-.186.036-.243.249 0 0-.197.258-.354.275 0 0-.056-.24-.183-.426 0 0-.362-.576-.684-.63Z" style="fill:#0054a6;fill-rule:nonzero" transform="translate(16.646 -2.08)"/><path d="M116.582 60.283s0-.078-.128-.017c0 0-.107.08-.224.107 0 0-.176.035-.389.16 0 0-.196.062-.43.346 0 0-.155.154-.274.232 0 0-.485.671-.643 1.115 0 0-.214.408-.223.648 0 0 .048.31.038.576 0 0 .061.308.2.495 0 0 .146.279.418.292 0 0 .131.12.322.113 0 0 .167-.026.306-.092 0 0 .08-.08.169-.108 0 0 .232-.059.299-.166 0 0 .117-.005.153-.033 0 0 .067-.08-.074-.412 0 0-.035-.147.008-.319 0 0 .038-.367-.014-.659 0 0-.021-.359.022-.579 0 0 .125-.618.197-.797 0 0 .117-.413.134-.599 0 0 .105-.192.133-.303Z" style="fill:#0054a6;fill-rule:nonzero" transform="translate(16.646 -2.08)"/></g><path d="M115.095 66.269c-4.941-7.459-17.567-8.452-24.79-4.318-.183.105-.285.166-.244.238.042.072.169.129.352.024.064-.037 1.338-.508 1.751-.327-.71.223-1.147.492-1.455.719-.217.16.886.071.173.474-.133.076-.54.26-.652.452-.121.236.564-.069 1.22-.322.742-.286.96-.158.792.016-.397.412-2.454 1.118-2.879 1.844l-.123.482c.417-.154.209-.142 1.978-.86 12.316-5 13.918 14.364-5.032 14.206-10.512-.087-20.613-7.642-30.671-9.021 11.705.116 22.773 7.57 31.504 6.318 2.689-.385 4.937-1.361 6.458-2.485 1.27-.94 2.034-1.982 2.123-2.867.107-1.069-.924-2.531-2.92-2.067a4.995 4.995 0 0 1-1.907 2.077c-2.053 1.259-5.078 1.304-8.137.856-8.772-1.288-16.311-5.891-25.139-7.383-5.81-.981-12.351-1.023-17.788 1.683-.706.352-1.783.969-.709 1.883l5.286 4.304c5.446-.662 9.686-.996 20.122 3.143 8.623 3.42 16.656 8.748 26.233 5.312 0 0-5.186 4.474-16.158 1.23-10.471-3.095-15.293-5.881-22.878-4.794-.19.034-.29.154-.075.361 5.116 3.738 10.236 7.486 15.194 10.777 8.304 4.948 12.553 5.142 20.572.171L114.915 67.5c.277-.205.552-.668.18-1.231Z" style="fill:#074ea2" transform="matrix(.37755 0 0 .37755 -5.75 37.725)"/><path d="M77.015 39.653c10.054 0 18.587 6.724 21.333 15.906-6.513-1.16-13.174.417-16.532 3.378l.59.168s.085 0-.759.591l2.174.069-1.846.897-.128.53c7.454-.486 3.185 6.32-2.695 5.751-8.94-.865-16.035-6.967-24.354-6.16.726-11.614 10.425-21.13 22.217-21.13Z" style="fill:url(#a)" transform="matrix(.37755 0 0 .37755 -5.75 37.725)"/><path d="M77 20c24.234 0 44 19.766 44 44s-19.766 44-44 44-44-19.766-44-44 19.766-44 44-44Zm0 1.344c23.494 0 42.657 19.162 42.657 42.656S100.494 106.656 77 106.656c-23.494 0-42.656-19.162-42.656-42.656S53.506 21.344 77 21.344Z" style="fill:#074ea2" transform="matrix(.37755 0 0 .37755 -5.75 37.725)"/><path d="M73.406 88.925H71.21v-.584h.733V86.09l-.753.17v-.602l1.487-.313v2.996h.729v.584Zm1.066-.684c.187.121.408.182.663.182.568 0 .858-.37.869-1.109l-.013-.005c-.154.239-.393.357-.715.357a.935.935 0 0 1-.722-.308c-.188-.205-.282-.463-.282-.776 0-.365.113-.663.34-.892.227-.229.523-.342.889-.342.379 0 .678.144.894.432.217.29.325.694.325 1.212 0 .615-.13 1.1-.391 1.458-.262.357-.638.536-1.128.536-.277 0-.521-.046-.729-.134v-.611Zm.52-1.723c0 .185.045.331.135.437.09.107.213.159.369.159.14 0 .254-.05.344-.152a.546.546 0 0 0 .135-.377.83.83 0 0 0-.135-.472.417.417 0 0 0-.362-.203.422.422 0 0 0-.353.175.693.693 0 0 0-.133.433Zm4.983 2.407h-2.197v-.584h.734V86.09l-.754.17v-.602l1.488-.313v2.996h.729v.584Zm3.23 0h-2.294v-.577l1.01-.97a2.88 2.88 0 0 0 .446-.511.81.81 0 0 0 .128-.429c0-.336-.181-.502-.54-.502-.3 0-.592.121-.873.363v-.652c.3-.199.643-.299 1.026-.299.347 0 .621.088.824.264.203.176.305.421.305.732 0 .412-.25.844-.75 1.295l-.734.661v.014h1.452v.611Z" style="fill:#fff" transform="matrix(.37755 0 0 .37755 -5.75 37.725)"/><path d="M47.821 56.492s0-1.06.105-1.265c.105-.205.128-.452.295-.729.167-.276.319-.512.338-.737.019-.225.022-.523.019-.664-.003-.14-.056-.328.013-.485.07-.156.028-.242.084-.352.057-.11.032-.229.089-.34.056-.109.066-.254.17-.436.104-.182.178-.432.213-.5s.086-.148.177-.326c.091-.178.234-.372.299-.499.065-.127.168-.288.136-.411-.033-.124-.041-.171-.015-.243.026-.072-.101-.137-.092-.197a.203.203 0 0 0-.028-.153c-.034-.06-.182-.104-.182-.104s-.047-.035-.089-.056c-.042-.022-.072-.005-.106-.043-.034-.039-.139-.104-.139-.104s-.127-.129-.216-.1c-.09.029-.094-.005-.18.058-.085.063-.107.041-.141.088a.612.612 0 0 1-.171.126c-.06.033-.047.029-.103.076-.056.046-.227.172-.253.223-.026.051-.069.114-.104.182a3.335 3.335 0 0 0-.171.564c-.01.102-.023.149-.041.225-.017.076-.026.093-.052.165-.026.073-.023.192-.075.293a.9.9 0 0 0-.08.302c-.009.08-.035.131-.061.203-.026.072-.101.259-.127.331-.026.072-.017.055-.019.161 0 .107.013.081-.031.209-.044.127-.061.139-.139.313-.078.174-.052.123-.176.135a.43.43 0 0 1-.314-.118.576.576 0 0 0-.254-.13c-.076-.018-.271-.118-.33-.148s-.058-.137-.147-.15a1.37 1.37 0 0 1-.302-.101c-.059-.03-.127-.001-.263-.071-.135-.069-.279-.164-.325-.22-.047-.055-.131-.077-.109-.183.022-.107.091-.2.135-.306a.429.429 0 0 0 .037-.301c-.029-.132-.012-.145.023-.255.035-.111.006-.136-.01-.273-.016-.136.007-.242-.009-.421-.015-.179-.1-.201-.031-.336a.475.475 0 0 0 .046-.341c-.02-.106-.081-.404-.119-.434-.038-.03-.098.024-.157-.091-.058-.116-.071-.133-.173-.121-.102.012-.038.012-.161-.061s-.306-.007-.43.026-.145.054-.26.091c-.116.037-.184.109-.244.164-.06.054-.091.135-.096.25a2.195 2.195 0 0 1-.042.331c-.018.076-.035.089-.036.238-.001.149-.044.17-.041.332.002.161-.028.199-.021.331a.707.707 0 0 1-.058.28s-.131-.014-.174-.057c-.042-.043-.245-.104-.325-.198l-.16-.189-.127-.065c-.059-.03-.161-.104-.161-.104s-.101-.094-.177-.133c-.076-.039-.094.037-.178-.112-.083-.15-.105-.108-.143-.18-.037-.073-.131-.099-.168-.215a.687.687 0 0 0-.214-.291c-.089-.077-.076-.124-.228-.202-.152-.078-.314-.118-.411-.157-.098-.039-.476-.03-.536.003a.78.78 0 0 1-.192.084c-.06.012-.064.041-.163.087-.098.046-.11-.013-.179.079a1.453 1.453 0 0 0-.174.36c-.048.136-.095.208-.148.331-.052.123-.099.131-.087.233.012.102.032.23.065.332.033.103.011.23.112.283.102.051.216.142.322.143.107.001.208.01.285.007.077-.004.123.073.237.121.115.048.136.048.402.217.267.168.41.306.579.392.17.087.495.371.63.44.136.069.372.255.483.29.11.035.169.086.296.13a29.37 29.37 0 0 1 1.174.526c.118.061.169.108.325.177.157.07.653.27.763.326.11.057.313.225.415.256.101.03.308.169.359.194.051.026.148.087.241.177s.182.168.274.237c.094.069.246.104.271.202.024.098-.024.255.009.422.032.166.054.102-.007.263-.061.161-.044.106-.058.259-.014.153-.011.251-.011.251s.002.204-.054.315c-.056.109-.053.207-.088.296-.035.089-.09.157-.114.348-.023.191-.083.225-.097.42-.015.196-.076.357-.06.451.016.094.057.307.15.333.093.027.153.057.255.066.102.01.148.044.242.028.094-.016.264-.036.362-.082.099-.045.218-.091.343-.188.124-.096.192-.126.257-.253s.113-.178.114-.305c.001-.128.013-.24.013-.24ZM95.963 38.223s.142.222.317.389c.174.166.146.165.325.247.179.082.291.117.481.242.191.125.191.125.419.111.228-.014.506-.153.675-.143.17.011.437-.172.819-.162.383.009.548.076.748.06.2-.016.122-.134.305-.109.182.026.397-.004.397-.004s-.011.411-.08.605c-.068.195-.131.758-.259 1.219-.127.46-.232 1.006-.193 1.293.039.286-.015.708.132 1.086.147.377.269.697.508.967.238.27.521.288.588.363.066.075.16.151.16.151l.009-.141.128-.006-.152-.293c-.076-.147-.066-.075-.092-.346-.026-.272-.113-.248-.137-.548-.024-.299-.064-.798-.092-1.041-.027-.243-.125-.958-.112-1.184.014-.226.086-.236.122-.589.036-.352.262-1.033.293-1.301.03-.267.035-.352.169-.443.133-.091.219-.114.392-.16.174-.046.217-.058.332-.079.114-.021.451.269.689.326.237.057.493.286.612.421s.196.04.334.105c.138.066.118.163.271.216.152.051.365.05.365.05s.044-.011.107-.121c.063-.109.18-.159.243-.269.064-.109.064-.109-.005-.368-.069-.26-.138-.307-.351-.518-.214-.212-.618-.337-.796-.447-.177-.11-.471-.173-.471-.173l-.093-.103s.416-.315.546-.349c.13-.034.171-.018.26-.069.088-.051.28-.167.428-.272.148-.104.342-.248.558-.306.216-.057.413-.258.488-.324a.544.544 0 0 0 .165-.387c.012-.198-.057-.458-.091-.588-.035-.129-.056-.244-.162-.364-.106-.12-.158-.209-.304-.132-.147.076-.256.012-.35.148-.093.136-.07.223-.175.316-.105.093-.423.641-.556.732a7.119 7.119 0 0 1-.236.155s-.147.076-.252.169l-.3.266c-.105.092-.183-.026-.318.093-.135.12-.123.163-.24.212-.116.05-.116.05-.206.13a.644.644 0 0 1-.248.112s-.265-.087-.47-.199a5.008 5.008 0 0 0-.523-.259c-.167-.067-.153-.052-.233-.142l-.199-.225c-.066-.075-.014-.228-.17-.223-.157.004-.241-.001-.347.092-.105.092-.232.099-.309.193-.077.095-.048.309-.085.449-.036.139.015.228.015.228s.302.16.48.27c.177.111.519.316.519.316s.251.072.121.107a2.447 2.447 0 0 0-.406.145c-.131.063-.216.058-.374.09-.158.033-.053-.06-.226-.013-.173.046-.1.008-.302.052-.201.044-.144.048-.317.094-.173.046.06-.053-.298-.004-.357.049-.553.008-.668.029-.115.022-.049.097-.293.153-.245.055-.24-.029-.453-.028-.212.001-.117-.164-.367-.023-.25.141-.138.176-.351.177-.213.001-.155-.024-.434-.098-.279-.073-.424-.026-.424-.026ZM108.95 48.929s-.067.048-.13.051c-.063.003-.059-.041-.129-.02-.071.02-.05.055-.253.063-.204.009-.354.061-.486.07-.132.009-.156.004-.291.058-.136.053-.172.052-.38.141-.208.089-.266.104-.352.138-.086.034-.121.019-.177.077-.056.057-.04.044-.131.101-.092.058-.158.069-.158.069s-.014-.051-.056-.106c-.043-.054-.117-.061-.168-.119-.052-.058-.145-.114-.183-.156-.038-.042-.085-.052-.059-.205.026-.152-.054-.192.029-.289.084-.097.249-.347.426-.388.176-.04.525-.17.599-.163.074.006.139.009.255.014.116.004.288-.028.447.03.158.059.4.057.556.181.155.124.21.046.354.195.145.15.287.258.287.258ZM113.6 47.849s-.347-.127-.436-.149c-.089-.023-.483-.063-.582-.081-.099-.019-.386-.078-.57-.052-.185.027-.331.004-.425.029-.093.025-.075-.016-.204.034-.129.051-.176.047-.335.109-.159.062-.284.065-.445.152-.161.086-.241.117-.382.195-.141.078-.119.047-.302.165-.183.117-.267.134-.369.255-.101.12-.104.06-.158.184-.054.125-.065.175-.034.254.031.08.038.137.065.207.028.069.052.099.075.159.024.06.271.077.271.077s.048-.053.079.026c.031.08-.032.151.025.151.058 0 .185-.084.244-.108.06-.023.299-.231.401-.294.101-.063.328-.186.425-.259.098-.072.32-.206.483-.258.163-.052.417-.164.552-.113.134.05.39-.027.497-.046.107-.019.362.075.439.068.078-.008.232-.023.337-.075a.617.617 0 0 0 .246-.223c.082-.112.173-.171.182-.266.008-.095-.079-.141-.079-.141Z" style="fill:#074ea2" transform="matrix(.37755 0 0 .37755 -5.75 37.725)"/><path d="M114.222 48.556s-.138-.117-.215-.11a.54.54 0 0 1-.21-.009c-.065-.02-.161.028-.21.048-.05.02-.234.046-.334.085-.099.039-.105.053-.188.074-.084.021-.079-.026-.151.025-.072.051-.165.076-.274.119-.11.042-.207.058-.292.103-.085.045-.038.049-.145.068-.107.019-.125.003-.24.06-.116.057-.083.021-.236.07-.153.048-.252.087-.402.146-.148.058-.21.048-.299.083s-.305.039-.395.075l-.308.12c-.049.02-.087.012-.073.075.013.064.082.151.028.218-.054.067-.038.023.007.108.045.086.09.14.054.223-.036.083-.119.105-.052.101.067-.003.255.037.255.037s.118.126.172.117c.053-.01.401-.146.516-.145.115 0 .463-.143.522-.167.06-.023.445-.202.582-.233.137-.03.444-.093.605-.122.161-.029.442-.013.541-.052l.268-.105s-.048.053-.05.134c-.003.081.007.077-.035.174-.042.097-.109.043-.106.11.004.068.132.132.132.132s-.018.099-.165.076c-.146-.022-.325.048-.416.049a1.077 1.077 0 0 1-.321-.058c-.093-.032-.198-.037-.283-.049-.085-.012-.16-.029-.269.014-.109.043-.151.025-.245.107-.093.083-.107.077-.129.166-.023.089-.019.214-.019.214s.005.043-.074.075c-.08.031-.271.128-.271.128s-.002.082-.048.169c-.046.087-.023.088-.063.162-.04.073.009.111-.011.176-.02.065-.037.198-.037.198l-.105.052s-.166-.072-.31-.119c-.145-.046-.257-.128-.32-.172a2.027 2.027 0 0 0-.301-.123l-.178-.193s-.212-.179-.25-.225c-.039-.046-.256-.213-.325-.287-.07-.073-.174-.184-.217-.217a10.543 10.543 0 0 0-.23-.173 3.505 3.505 0 0 1-.202-.153 1.24 1.24 0 0 1-.201-.204.874.874 0 0 0-.17-.176c-.091-.075-.141-.076-.185-.109l-.143-.106s-.11.235-.098.292c.012.055.075.243.109.33.035.088.336.313.379.347.044.033.411.273.503.378.092.105.413.434.516.566.102.131.279.274.34.351.06.077.065.166.147.245.081.08.134.11.248.247.115.136.365.362.437.495.073.133.34.402.365.594.025.192.118.378.112.441-.005.063.021.103-.04.077-.061-.027-.508-.185-.508-.185s-.169-.095-.251-.124c-.082-.029-.244-.157-.295-.157-.05 0-.246-.035-.303-.103a.477.477 0 0 0-.228-.143c-.107-.039-.189-.3-.186-.139.002.16.042.134-.057.062a2.948 2.948 0 0 1-.208-.171l.153.082-.094-.135s.103-.151.147-.219.092-.178.067-.269a2.698 2.698 0 0 0-.132-.362c-.044-.084-.135-.24-.212-.281-.076-.041-.16-.048-.242-.127-.081-.079-.074-.113-.135-.19-.06-.077.004-.143-.107-.17-.112-.027-.106-.09-.198-.013a1.47 1.47 0 0 1-.226.17.182.182 0 0 0-.108.112c-.018.058-.002.021.016.146.019.124.039.227.06.279.02.053.155.111.065.116a.609.609 0 0 1-.295-.056c-.089-.046-.211-.099-.211-.099s.041-.076-.085-.088c-.126-.011-.218-.015-.29.034-.072.048-.156.207-.156.207s-.065.059-.073.15c-.009.092-.005.156-.005.156s-.013.137-.093.213a.62.62 0 0 1-.188.14c-.057.023-.094.015-.094.015s-.063-.163-.116-.241c-.053-.079-.155-.282-.196-.332-.042-.049-.212-.314-.286-.417-.073-.104-.181-.293-.283-.386a2.543 2.543 0 0 1-.379-.458c-.05-.101-.181-.238-.244-.312-.062-.075-.223-.288-.223-.288s.031-.034.001-.11c-.03-.077-.032-.054-.089-.087-.057-.032-.24-.049-.256.023-.016.073-.08.076-.106.152-.025.076-.052.12-.007.179.046.06.09.087.09.087s-.069-.062-.09.024c-.022.086-.025.021-.066.059-.04.038-.036.047-.065.114-.029.066-.09.079-.052.119.038.041.177.03.26.075.084.044.148.151.224.232.076.081.235.261.293.326.059.066.141.133.184.215.043.082.045.17.122.228.078.058.101.115.15.184.049.069.131.081.186.192.054.111.064.052.164.277.099.226.216.214.219.334.003.12.051.101-.007.124a3.819 3.819 0 0 1-.7.098c-.189-.003-.277.053-.386.03-.108-.024-.221-.057-.312-.065-.092-.008-.159.018-.253-.055-.095-.074-.228-.132-.266-.172a.448.448 0 0 1-.093-.151c-.026-.067-.007-.019-.043-.138-.035-.118-.039-.072-.018-.158.022-.086.011-.114.057-.221.047-.106.044-.083.081-.186.037-.103.066-.17.066-.17s-.003-.12-.084.011c-.081.132-.17.1-.23.201s-.09.079-.163.174c-.073.095-.152.203-.21.281-.057.078-.113.133-.166.253-.052.12-.13.172-.091.245.04.073.06-.045.07.094.011.139.015.149.071.237.057.088.068.117.169.177.1.059.093.04.188.114.095.073.293.127.418.166.126.039.383.049.455.064.073.016.265.029.334.035.069.006.395-.034.395-.034s.138.012.221.002c.084-.011.168-.022.296-.006.128.016.191-.02.265-.027.075-.007.147-.046.203-.046.055 0 .091.008.161.102s.166.31.234.371c.068.062.166.311.203.406l.113.287c.06.153.068.117.094.239.026.122.029.243.029.243l.021.223.115.01s.061-.068.112-.022c.051.046.138.012.138.012s.049.069.08-.02c.031-.09.053-.286.053-.286s.006.042.069.006c.063-.036.096-.148.083-.209-.013-.061-.015-.292-.068-.426-.052-.134-.23-.362-.29-.515-.06-.153-.22-.421-.271-.522a2.494 2.494 0 0 1-.104-.236c-.026-.066.087-.144.149-.267.062-.124.085-.177.125-.215.041-.038.112-.11.112-.11l.352.119s.127-.063.336-.022c.209.042.519.058.519.058s.072-.097.095-.037c.024.059.023.128.144.26.12.132.168.113.272.237.104.124.153.215.227.227.073.012.01-.183.121.063.11.245.262.282.262.282s.107.027.185.12.087.117.087.117l-.209-.11s-.055.104.13.224c.185.12.203.167.362.256.159.089.22.244.367.269.147.024.364.05.488.084.123.033.44-.036.516-.23.075-.195.144-.511.069-.701-.075-.191-.119-.655-.202-.76-.082-.105-.431-.642-.468-.738-.038-.095-.53-.576-.53-.576s.605.382.759.459c.154.077.418.152.532-.085.113-.237.158-.475.158-.475s-.008-.231.073-.235c.081-.004.178-.179.398-.005.22.175.515.472.634.563.118.091.152.106.199.156.047.05.07.11.142.081.072-.028.091-.049.091-.049s-.027.107.078.024c.105-.082.096-.106.168-.134.072-.028.066.029.091-.119.025-.147-.052-.309-.095-.417a.554.554 0 0 1-.055-.28c.006-.126-.053-.215.061-.186.115.028.318.022.403.069.085.048.193.079.253.1.059.02.179.025.296.097.116.072.157.136.206.132.05-.005.144-.027.206 0 .063.027.117.072.176.034.058-.038.06-.053.112-.051.052.001.093.029.123-.027.029-.055.126-.108.143-.159.017-.05.032-.049.015-.168-.017-.118-.014-.148-.054-.213s-.019-.104-.097-.153c-.079-.051-.143-.121-.143-.121s.266-.073.299-.148c.032-.074.215-.208.263-.277.047-.068.105-.14.091-.209-.014-.068-.068-.11-.089-.163-.021-.054-.032-.05-.13-.11-.098-.061-.224-.098-.342-.052-.118.046-.139-.007-.279.047-.14.055-.204.08-.305.108-.101.027-.139-.008-.229.015s-.165-.009-.249-.001c-.083.008-.098.001-.217-.113-.119-.115-.038-.159-.19-.136-.152.022-.202-.008-.274-.066-.073-.059.087-.158.087-.158s.034-.039.093-.111c.058-.073.095-.137.162-.25.067-.113.131-.138.108-.228-.023-.091.009-.041-.046-.118a.905.905 0 0 0-.134-.145ZM50.268 37.239l.041-.038-.04-.163s.035-.054.064-.073c.029-.019.085-.016.14-.005.056.01.067.039.151.031.085-.007.177.001.256-.064.08-.064.008-.084.019-.147.011-.064.081-.088.112-.147a.904.904 0 0 0 .053-.355c-.017-.069-.124-.178-.158-.233-.034-.053-.078-.051-.147-.111a.585.585 0 0 0-.187-.122 1.386 1.386 0 0 0-.36-.034c-.085.009-.281.011-.351.036a.991.991 0 0 0-.184.083c-.05.03-.119.046-.169.092-.051.046-.171.132-.222.178-.05.046-.052.102-.067.153-.015.052-.034.031-.005.096.029.066.055.035.094.137.04.103.037.159.103.198.067.039.103.114.187.122.084.008.143.039.227.031.085-.008.095-.039.129-.002.034.038.067.124.12.183l.095.105c.038.042.098.049.098.049h.001ZM51.358 38.063s.198.04.248.087c.052.047.06.056.101.12a1.2 1.2 0 0 1 .109.325c.021.107.102.364.155.459.053.096.168.288.195.364.027.077.092.306.13.348.037.042.118.223.187.337.07.114.135.233.207.312.071.078.259.426.332.498.074.072.19.244.258.337.068.093.258.32.347.419.09.098.233.22.299.266.067.047.233.221.327.234.093.014.155.055.266.069.11.014.251.016.286-.016.036-.032.054-.04.079-.137.026-.097.065-.368.065-.368s.041.027.024-.063a1.765 1.765 0 0 1-.021-.283c0-.081-.039-.16-.047-.259a.657.657 0 0 0-.049-.224c-.024-.044-.06-.084-.052-.157.007-.072.001-.132.053-.057.052.075.198.334.215.417.018.082.008.295.046.391.038.095.031.338.049.412.018.073.003.201.003.201l-.091.474c-.011.059-.03.182-.055.279-.027.097-.041.207-.079.299-.039.092.01.056-.087.137a.848.848 0 0 1-.349.145 1.145 1.145 0 0 1-.421-.034c-.11-.031-.377-.163-.467-.253-.089-.09-.355-.24-.432-.325-.077-.084-.467-.432-.529-.555-.063-.123-.307-.391-.361-.496-.055-.105-.257-.346-.305-.425-.047-.079-.266-.427-.344-.585-.077-.157-.285-.458-.37-.642-.086-.183-.281-.471-.277-.564.005-.094.018-.277-.028-.39-.046-.114-.052-.255-.059-.379-.007-.124-.018-.261-.062-.327-.044-.067-.068-.085-.061-.157.008-.072.002-.124.073-.189.072-.065.137-.083.238-.061.102.022.254.016.254.016Z" style="fill:#074ea2" transform="matrix(.37755 0 0 .37755 -5.75 37.725)"/><path d="M54.638 40.24s.132.179.174.226c.042.047.064.176.151.225a.844.844 0 0 1 .189.138c.032.035.134.124.166.159.031.035.286.081.286.081l.277.036.24-.005s.172.025.342-.034c.171-.058.307-.107.371-.155.063-.047.236-.161.335-.251.099-.09.27-.266.329-.33s.224-.268.312-.359c.089-.09.118-.128.2-.202a.27.27 0 0 1 .216-.079c.066.003.2-.096.2-.096l.052-.037s.063-.047.103-.179c.04-.132.077-.325.089-.453.011-.128-.022-.247-.034-.365a.863.863 0 0 0-.1-.356c-.067-.121-.263-.465-.327-.524s-.251-.348-.304-.406c-.053-.059-.129-.118-.199-.289-.07-.171-.152-.214-.165-.287-.013-.073-.014-.051-.022-.118-.008-.068-.067.008-.058-.065.009-.072-.059-.17-.062-.232-.003-.061-.095-.116-.057-.215.038-.098.109-.184.146-.249.037-.065.165-.182.223-.235.058-.053.182-.186.223-.224l.268-.243c.065-.058.276-.294.352-.362.076-.069.116-.095.12-.162.003-.067-.011-.129-.011-.129l-.136-.068s-.079-.11-.115-.173c-.036-.063-.074-.082-.118-.106-.043-.025-.092-.055-.165-.042-.073.013-.138.071-.2.085-.062.014-.101.006-.147.049a1.29 1.29 0 0 0-.224.257 1.29 1.29 0 0 1-.213.246c-.041.037-.228.218-.228.218s-.004.078-.103.168c-.099.09-.108.162-.14.127a1.787 1.787 0 0 1-.121-.157c-.031-.046-.035-.085-.083-.138-.047-.052-.04-.209-.072-.244-.032-.034-.095-.105-.093-.16a.4.4 0 0 0-.073-.222c-.042-.047-.147-.197-.237-.285a.791.791 0 0 0-.221-.172c-.071-.032-.258-.097-.296-.115a.954.954 0 0 0-.294-.043c-.067.008-.228-.017-.321.068-.094.085-.152.127-.228.196-.075.068-.137.082-.186.169-.049.087-.16.21-.186.264-.025.055-.058.182-.095.236-.036.054-.101.134-.109.196-.008.06-.056.125-.07.191l-.078.348-.054.187-.094-.01s-.064-.198-.053-.304c.011-.106-.073-.221-.064-.293.009-.073.031-.189.022-.245-.008-.056-.079-.099-.076-.165.004-.067-.042-.282-.015-.381.027-.099.034-.244.019-.401-.015-.157.023-.255.022-.35-.001-.095-.03-.186-.02-.28.01-.095.031-.178.042-.306.012-.127.028-.227.019-.283-.008-.057.085-.141.085-.141s-.064-.165-.079-.227c-.013-.063-.105-.129-.148-.153-.044-.024-.062.003-.099-.038-.037-.041-.108-.073-.108-.073s-.083-.02-.144-.029a1.45 1.45 0 0 0-.308.013c-.062.014-.083.001-.112.028l-.123.111s-.085.024-.137.072c-.053.047-.062.119-.062.119l-.175.159c-.093.085-.15.104-.165.182-.015.077.032.152.027.263-.005.112-.046.149.001.201.048.053.059.054.043.164-.016.112-.054.327-.054.327s-.063.142-.063.249c.001.105-.058.17-.106.245a2.17 2.17 0 0 1-.102.146s-.071-.031-.079-.11c-.007-.078-.044-.237-.04-.314.003-.078.006-.028-.025-.191-.031-.164-.037-.158-.095-.234-.058-.075-.089-.11-.118-.212a.522.522 0 0 0-.092-.194c-.036-.053-.055-.132-.103-.184l-.074-.082s-.1-.122-.161-.131c-.061-.008-.14-.001-.183-.025a.474.474 0 0 0-.237-.074c-.106.001-.18.036-.204.069-.023.032-.144.11-.126.189.019.079-.017.122.007.207.024.085.061.125.088.155a.744.744 0 0 1 .064.165s-.004.089-.003.195c0 .106.068.215.082.266.014.051-.012.128.017.241.028.113.025.169.071.255a.5.5 0 0 1 .061.243c.007.101.071.149.106.234.035.086.091.217.143.297.052.081.076.155.124.207.047.053.061.115.103.173.042.058.039.125.126.174a.834.834 0 0 1 .182.165s.078.004.172.014c.095.01.124.101.221.055a1.57 1.57 0 0 0 .258-.138c.035-.032.125-.06.146-.143.02-.083.111-.101.138-.2.027-.099.083-.225.121-.312.037-.088.085-.27.121-.313l.076-.091s.228.614.222.737c-.006.122.061.371.075.433.014.063.087.507.087.507s.06.031.081.183c.021.151.019.196.052.304.034.107.073.232.091.334.017.101.073.221.108.413.036.191.016.274.062.36.046.086.189.489.207.568.019.079-.002.162.038.264.04.103.171.282.19.361.018.079.031.27.049.36.018.09.042.186.043.281.001.095.004.04-.048.193a1.721 1.721 0 0 1-.198.404c-.054.07-.05.109-.123.122-.073.013-.129.01-.17.048-.041.037-.059.075-.064.175-.005.1.008.196.045.237.037.04.047.063.146.102.098.038.135.079.246.095.111.017.147.081.234.012.087-.068.112-.123.158-.143.045-.02.113-.039.122-.1.008-.061-.047-.075-.043-.164.004-.089-.035-.085.026-.194l.085-.152Zm1.58-2.703s-.048.065-.052.154c-.005.089-.028.11.008.173.036.064.011.13.077.155.066.025.097.072.19.104.094.033.157.103.24.124.083.021.111.005.17.069.058.065.11.156.13.191.021.034.033.024.014.179-.018.156-.045.244-.032.317.014.073-.006.134-.006.134s.13.084.209.066c.079-.019.128 0 .222-.096.094-.095.107-.257.195-.347.088-.091.114-.156.084-.225-.031-.068.034-.138.037-.194.002-.055-.073-.243-.085-.339-.012-.095-.14-.341-.185-.45-.045-.108-.177-.276-.201-.361-.024-.085-.081-.161-.105-.257-.023-.096-.094-.138-.117-.234a.564.564 0 0 0-.074-.199c-.027-.03-.051.014-.115.072-.065.058-.165.299-.22.391-.055.093-.122.089-.195.22-.073.13-.062.131-.088.208-.025.077-.101.145-.101.145Zm-.542.833s.06.031.085.094c.025.062.012.095.093.15.081.054.134.112.2.149a.863.863 0 0 0 .247.085c.105.022.182.047.287.058a.23.23 0 0 1 .18.093c.042.047.07.065.089.121.02.057.021.141.03.198.008.056.033.012.059-.076.027-.088.026-.065.092-.04a.42.42 0 0 1 .146.102c.026.029.04.08-.001.128s-.161.222-.219.274c-.059.053-.119.151-.275.249-.155.099-.228.101-.308.142-.08.04-.071.085-.209.051a.434.434 0 0 1-.272-.159c-.09-.099-.17-.165-.244-.246-.075-.082-.15-.142-.224-.235-.074-.092-.099-.261-.123-.346a.398.398 0 0 1-.005-.241c.025-.065.086-.174.151-.254.065-.081.103-.169.139-.222.036-.054.082-.075.082-.075Zm-.615-.22c.013-.044.074-.141.094-.201.019-.061.055-.104.093-.214.039-.109.012-.139-.001-.201-.014-.062-.089-.132-.132-.179-.042-.047-.175-.076-.228-.123-.054-.047-.144-.029-.197-.088-.053-.058-.172-.142-.191-.21-.019-.068.041-.155.041-.155l.169-.153c.047-.042.076-.069.154-.076.079-.008.184.003.28-.009.095-.012.189.009.289.025.1.017.123-.005.181.06l.133.146c.048.052.023.096.081.065.057-.031.138-.222.204-.314.066-.091.126-.167.208-.252a.932.932 0 0 0 .174-.265c.044-.093.079-.147.077-.208-.003-.062-.019-.068-.05-.126a1.624 1.624 0 0 0-.162-.236c-.048-.053-.142-.18-.19-.233-.047-.053-.158-.198-.218-.228-.06-.031-.12-.051-.174-.098-.054-.048-.311-.144-.311-.144s-.116-.022-.151.009c-.035.032-.046.032-.06.076-.013.044-.044-.014-.09.146-.047.159-.075.281-.129.362a.777.777 0 0 0-.107.246c-.02.083-.024.044-.034.138-.01.094-.028.121-.066.209-.037.087-.07.074-.088.208-.017.133.011.129-.054.198s-.07.063-.141.149c-.071.086-.139.105-.164.171-.026.066.059.159.049.265-.011.105.045.108.066.249.021.14.099.261.138.397.038.136.049.242.078.344.029.102-.003.056.062.21.066.154.091.217.122.263.031.046-.086.174.03.068.117-.106.13-.139.154-.171a.96.96 0 0 0 .061-.12ZM65.965 25.802s-.033.034-.024.086c.009.053-.025.086-.033.139-.007.053-.017.047.014.136.031.089-.001.147.069.21.071.062.075.027.091.091.015.063.026.17.088.218.063.047.051.101.084.147.032.047.063.052.112.111.048.059.065.173.195.191.131.017.118.05.193-.002.075-.053.033-.055.122-.153.088-.098.089-.145.134-.219.044-.075.012-.252.016-.304.003-.051.05-.118.039-.178-.011-.061-.096-.162-.118-.215a.39.39 0 0 0-.165-.156c-.063-.031-.152-.067-.206-.1a.47.47 0 0 0-.212-.073c-.076-.002-.195-.073-.221-.075a.213.213 0 0 0-.138.052c-.041.039-.04.094-.04.094Z" style="fill:#074ea2" transform="matrix(.37755 0 0 .37755 -5.75 37.725)"/><path d="m66.604 27.784-.164.041s-.037.024-.003.102c.034.079-.025.167-.025.167s-.094.196-.091.267c.004.07-.061.323-.068.382-.007.059-.067.189-.064.288a.848.848 0 0 1-.038.276c-.029.114-.097.497-.08.593.017.096-.045.334-.032.41.011.075-.013.576.002.723.016.147.045.289.057.337.012.047.087.745.106.819.018.074.046.268.146.465.1.197.129.512.224.632.094.119.317.464.404.579.086.114.3.311.359.375.06.064.161.153.233.185.073.031.243.082.371.021s.254-.243.254-.301c0-.057.046-.133.079-.199.034-.066.092-.26.096-.332.003-.073-.006-.221.026-.293.032-.073.027-.179.04-.24.013-.061.012-.125.012-.182-.001-.057-.05-.081.006-.174.055-.092.025-.156.013-.203-.012-.048-.002-.208-.002-.208s.199-.093.273-.169c.074-.076.168-.128.168-.128s.046.01.056.05c.01.04.107.396.166.46.059.064.336.424.38.484.044.061.044.147.194.231.151.084.306.16.407.191.101.032.256.079.405.099.148.02.379-.06.379-.06s.039-.045.108-.027c.069.019.049.024.188-.019.14-.042.059-.05.188-.083l.208-.052c.068-.017.191-.041.265-.088.074-.048.126-.097.242-.091.117.007.167-.02.211-.017.044.004.059.035.16.01.102-.025.147-.044.213-.068.065-.024.115 0 .176-.066.063-.066.139-.192.202-.252.064-.058.061-.101.14-.128.079-.027.062-.037.113-.093a.41.41 0 0 0 .085-.201c.004-.043.002-.136.007-.173.005-.037-.007-.027-.031-.064-.023-.037-.077-.024-.091-.077-.013-.055-.069-.076-.012-.134.057-.057.102-.305.111-.357.008-.052.075-.241.092-.289.017-.047.003-.33.045-.42.042-.089-.005-.471-.01-.52a3.895 3.895 0 0 1-.018-.354c.004-.101-.022-.317-.022-.317s-.02-.11-.027-.165c-.007-.056-.019-.218-.019-.218s.055-.093.092-.116a.974.974 0 0 1 .218-.077l.202-.051c.033-.008.14-.042.234-.066.094-.023.158-.083.158-.083s.13.061.159.032c.028-.029-.007-.056-.002-.093s-.014-.111-.004-.156c.01-.046-.047-.046.005-.095s.072-.082.055-.121c-.017-.039-.064-.056-.084-.108-.02-.052-.039-.069-.091-.106-.053-.037-.032-.042-.106-.024-.075.019-.146-.006-.198.015a.297.297 0 0 0-.116.079c-.04.039-.086.057-.129.083-.044.025-.083.014-.184.039-.101.026-.142.065-.223.085-.08.02-.114.057-.102-.01.011-.067-.029-.144-.019-.189.01-.045-.028-.366-.052-.402a.62.62 0 0 1-.08-.203c-.015-.089-.027-.165-.054-.216-.027-.05-.056-.079-.059-.121-.004-.042.01-.217-.001-.286-.01-.069-.118-.243-.169-.33a.971.971 0 0 0-.191-.246c-.062-.049-.147-.157-.256-.193-.11-.037-.189-.067-.285-.079-.097-.011-.248.041-.343.093-.094.053-.124.046-.165.085-.04.039-.045.047-.131.076-.086.029-.131.076-.197.129-.065.052-.089.044-.16.076-.071.032-.104-.017-.131.047-.027.064-.054.1-.103.191-.048.091-.175.13-.21.189s-.088.108-.143.172a1.94 1.94 0 0 1-.177.181c-.035.031-.069.068-.069.068s.031-.166.069-.24c.039-.074.079-.199.106-.292.026-.092.053-.185.112-.293.059-.108.05-.199.117-.331.068-.131-.017-.153.088-.28.104-.126.117-.216.194-.307.078-.091.021-.091.131-.191.112-.099.212-.383.212-.383s.064-.116.077-.177c.014-.061.11-.164.15-.231.04-.068.143-.201.19-.27.047-.07.123-.11.16-.162.037-.053.006-.146.006-.146s.154-.045.137-.141c-.017-.096-.003-.15-.019-.218-.017-.067-.083-.043-.1-.111-.017-.067-.012-.076-.063-.106-.05-.03-.07-.053-.147-.099-.076-.045-.084-.108-.205-.077-.122.03-.189.019-.241.039-.053.021-.149.009-.176.044a4.62 4.62 0 0 1-.134.178c-.039.045-.13.054-.187.111-.057.057-.153.075-.199.151-.045.076-.06.044-.117.13-.058.086-.098.239-.165.314a8.917 8.917 0 0 0-.222.256c-.044.054-.092.174-.183.269-.091.094-.155.125-.222.228a2.087 2.087 0 0 1-.268.304c-.081.077-.204.13-.271.233-.067.103-.085.172-.176.238-.091.066-.137.142-.232.187-.097.046-.169.072-.219.098-.051.028-.011-.097-.011-.097s.028-.315.1-.455c.073-.14.012-.269.052-.365.04-.096.057-.172.114-.287.057-.114.163-.377.218-.47.056-.093.038-.304.023-.393-.015-.089-.085-.194-.169-.215a.445.445 0 0 1-.194-.116c-.039-.041-.057-.086-.128-.083-.071.004-.106-.023-.176.016-.069.039-.097.125-.077.234.021.11-.001.165-.024.243-.024.078-.048.349-.146.474-.098.125-.022.285-.072.398-.05.113-.099.261-.116.366-.016.105-.038.275-.064.396-.027.122-.002.28-.022.4a1.12 1.12 0 0 0-.001.366c.021.08.003.206.048.303.045.096.079.114.104.153.024.039.133.074.247.045.115-.029.15-.03.204-.073.054-.042.082-.128.187-.169.104-.04.129-.083.183-.153.054-.071.251-.143.337-.2.086-.058.114-.115.263-.21.148-.094.161-.098.284-.208.123-.109.16-.19.207-.174.047.017.135.024.092.135-.044.111-.088.223-.128.319-.04.096-.193.543-.205.611-.011.067-.07.089-.073.161-.004.073-.015.054-.013.205.002.149-.008.195-.025.357-.016.162-.082.243-.077.406.005.164-.016.391-.036.483-.02.09-.055.121-.077.32-.021.199-.075.184-.077.349a4.812 4.812 0 0 1-.05.547 5.966 5.966 0 0 0-.042.329c-.005.064-.016.239-.03.319-.014.08-.055.166-.045.233.01.066.036.088-.05.158s-.138.055-.139.187c-.002.132.016.203-.052.29-.067.086-.288.197-.288.197l-.033-.13-.089.223s-.123.114-.188.131c-.065.016-.122-.018-.149.065-.028.083-.01.072-.086.098-.076.026-.041.058-.125.052-.084-.007-.091-.005-.091-.005s.004-.036-.052.013c-.057.049-.08-.014-.146.023-.067.038-.019.143.017.204.035.06.292.147.351.16.058.013.079.042.2.026.12-.016.146-.134.117-.002-.029.132-.082.387-.103.412-.021.024-.027.045-.054.122-.027.076-.057.126-.1.203-.042.076-.046.124-.093.151-.047.027-.122.081-.159.044-.036-.037-.129-.13-.172-.208-.043-.078-.166-.214-.204-.301-.037-.088-.16-.331-.178-.431-.017-.1-.093-.387-.107-.441-.014-.055-.103-.534-.087-.645.016-.11-.078-.53-.058-.648.021-.118-.048-.638-.022-.758.026-.119-.006-.443.038-.566.044-.124-.038-.254-.012-.382.026-.129.025-.277.045-.389.02-.111-.007-.178-.014-.309s.012-.141-.054-.194c-.066-.052-.143-.08-.211-.121-.069-.041-.142-.148-.142-.148Zm3.997 2.795s-.197.1-.255.157c-.057.057-.166.106-.225.214s-.094.11-.151.253c-.057.144-.029.259-.023.365.005.106-.027.15.063.335.089.185.086.143.156.305.069.162.155.219.218.267.062.049.069.133.224.152.155.018.196.008.322-.003.127-.01.066.034.275-.019.209-.053.295-.081.453-.136.158-.054.166-.135.303-.219.136-.085.14-.129.197-.186.057-.058.061.042.152-.081.09-.123.096-.326.154-.412.057-.086.107-.199.143-.287.034-.087-.028-.107-.031-.15-.004-.042.049-.148.045-.219-.004-.071-.079-.059-.053-.18.027-.122.071-.147.061-.245-.011-.097-.036-.285-.018-.382.018-.098.021-.256.003-.331-.019-.074.001-.107-.061-.185-.063-.077-.071-.111-.15-.055-.08.056-.252.113-.354.16a.901.901 0 0 0-.291.21c-.134.127-.144.115-.207.231-.064.117-.159.169-.126.298.032.127.034.105.056.222.022.116-.062.152-.003.244.059.093.042.111.135.224s.115.143.19.239c.074.096.057.115.078.196.02.08.044.146-.061.216-.104.069-.087.079-.207.116-.12.037-.256.122-.214.061.042-.061.072-.14.001-.136-.07.003-.155.01-.153.074.002.064-.008.081.003-.072.012-.154-.017-.154-.068-.213-.05-.058-.113-.079-.183-.161-.071-.083-.136-.081-.188-.261-.053-.18-.061-.185-.102-.318-.041-.133-.108-.288-.108-.288Zm1.192-1.235s.083-.1.129-.112c.046-.011.104-.02.152-.068.049-.049.074-.116.107-.155.033-.039.053.114.127.023.074-.092.204-.27.23-.338.026-.067-.029-.235-.036-.312-.008-.077.009-.13-.024-.286-.033-.155-.099-.248-.115-.311-.015-.062-.074-.151-.074-.151l.045.274s-.096-.164-.107-.301c-.01-.137-.103-.217-.154-.301a1.062 1.062 0 0 0-.157-.191.098.098 0 0 0-.125-.011c-.046.03-.121.073-.189.114-.068.042-.304.21-.359.261-.054.05-.139.095-.244.183-.105.087-.145.146-.208.21-.062.064-.182.143-.242.195-.059.051-.177.16-.227.227-.05.067-.124.037-.147.14-.022.103-.066.217-.069.303a1.4 1.4 0 0 1-.042.265c-.018.072-.017.126-.049.262-.033.135-.018.265-.048.364a2.48 2.48 0 0 0-.073.334c-.01.082-.01.13.006.169.016.038.081.106.089.159.007.053.01.04.095.043.086.003.193-.079.222-.129.03-.05.077-.128.161-.156.084-.027.164-.071.172-.134.009-.063.06-.076-.009-.18-.068-.104-.134-.27-.173-.302-.038-.033-.12-.067-.194-.121-.074-.055-.117-.032-.095-.135.023-.103-.014-.081.104-.117.118-.036.226-.044.311-.066.085-.021.09-.029.129-.063.04-.034.05-.043.223.041.173.084.288.134.344.211.056.077.062.172.136.227.074.054.114.02.189.006.076-.012.189-.071.189-.071ZM87.22 24.885s-.041.029-.07.085c-.029.057-.083.092-.099.159a2.951 2.951 0 0 1-.052.178c-.019.061-.035.043-.049.133-.015.091-.019.101.029.15.048.048.08.039.074.082-.006.043-.029.096-.012.206.017.11.027.142.042.257.015.115.022.221.064.215.042-.005.057-.027.114.013.058.041.11.011.16-.013.05-.025.034-.055.103-.043.07.012.144-.032.189-.07.044-.039.086-.056.123-.092a.392.392 0 0 0 .106-.173c.017-.067-.019-.105-.008-.186s-.014-.131-.024-.215a1.026 1.026 0 0 0-.056-.223.45.45 0 0 0-.117-.186c-.061-.059-.077-.088-.118-.14-.041-.051-.224-.104-.268-.122-.044-.019-.131-.015-.131-.015ZM86.46 29.543s-.188.12-.22.176c-.032.056-.213.179-.259.229-.047.05-.251.147-.286.21-.035.063-.1.114-.1.114s-.047-.01-.095.064c-.049.075-.056.072-.107.111-.051.04-.073.031-.126.095-.052.065-.114.048-.103.104.011.057.027.08-.044.085-.072.006-.037-.058-.127.034-.09.093-.082.095-.16.115-.077.02-.084.017-.14.089-.056.072-.093.057-.168.112-.074.055-.087.085-.122.148-.034.063-.048.075-.117.055-.07-.02-.119-.006-.119-.006s-.05-.047-.004-.114c.045-.068.145-.372.176-.446a13 13 0 0 1 .197-.411c.056-.114.106-.257.158-.34.051-.082.225-.355.26-.419.035-.063.097-.253.178-.323.081-.071.148-.276.21-.319a.974.974 0 0 0 .18-.228c.029-.048.086-.132.152-.24a.74.74 0 0 1 .316-.308c.16-.076.292-.231.346-.297.054-.065.16-.237.182-.323a.763.763 0 0 0 .016-.284c-.014-.08-.04-.26-.08-.31-.04-.051-.072-.071-.1.012-.028.083-.044.09-.124.152-.079.061-.289.258-.382.335a1.24 1.24 0 0 0-.218.233c-.074.098-.107.112-.227.238-.12.126-.177.231-.23.31-.053.079-.164.135-.229.243-.065.108-.168.194-.168.194l-.317.533c-.05.084-.217.253-.283.412-.066.16-.181.381-.227.511-.046.129-.2.447-.226.526-.025.079-.121.345-.153.458-.032.114-.091.291-.059.394.032.103.015.305.085.371.069.066.121.155.211.192.088.037.412-.008.529-.109.116-.101.289-.23.381-.29.091-.059.185-.176.225-.22.04-.043.046-.092.085-.151.04-.058.034-.008.082-.107.049-.1.013-.122.082-.161.068-.039.055-.044.082-.107.026-.064-.018-.083.051-.106.07-.023.073.023.077-.043.005-.065.085-.114.113-.162.027-.048.063-.063.081-.123.017-.06.008-.093.058-.088.05.006.066.02.095-.05.03-.07.041-.133.128-.2.088-.069.228-.227.269-.27.04-.043.13-.117.159-.15.029-.033.156-.15.156-.15ZM89.72 25.275s-.101-.072-.125.02c-.023.092.044.106-.059.179a2.13 2.13 0 0 0-.31.293c-.107.116-.219.142-.288.273-.069.132-.145.245-.202.382-.057.136-.133.25-.144.347-.011.097.037.19.108.263.072.073.191.239.269.228.077-.012.089-.006.217-.07.128-.063.183-.055.24-.191.056-.136.133-.148.203-.279.068-.132.15-.258.268-.369.119-.11.292-.213.518-.337.226-.125.521-.206.665-.204.145.002.21-.015.263.066.054.08.163.096.008.192-.156.095-.196.122-.27.266-.075.143-.112.128-.213.231-.101.104-.007.157-.132.178-.124.021-.081-.048-.251.012-.171.06-.311.191-.41.252-.098.061-.15.083-.283.158-.133.076-.088.037-.233.107-.146.071-.132.004-.335.108-.204.105-.144.101-.274.134-.13.033-.103.073-.315.131-.213.057-.289.171-.356.157-.067-.013-.132.004-.279.044-.148.041-.24.017-.242.162-.002.145.137.231.2.359.063.128.035-.015.137.159.102.173.131.243.204.172.073-.071.195-.05.36-.098.165-.048.189-.14.311-.118.121.021.046.063-.062.148-.108.087-.588.3-.684.374-.096.075-.146.152-.292.189a.499.499 0 0 0-.319.226c-.06.105-.195.115-.052.321.143.205.185.142.198.228.013.087-.112.035-.269.1-.158.066-.209.191-.428.247-.219.056-.332.172-.554.275-.222.104-.409.162-.484.343-.075.18-.049.348.108.479.158.13.085.116.251.186.167.069.236.026.437.012.201-.014.171.012.409-.052.238-.064.333-.058.333-.058l-.242.584s-.082.276-.151.443c-.069.167-.117.359-.163.47-.046.111-.194.369-.23.456-.036.087-.047.082-.063.152-.016.069-.049.056-.074.147-.025.091-.037.15-.037.15s-.042.057-.089.139c-.047.082-.095.089-.116.233-.021.143-.118.212-.082.278.036.065-.017.113-.06.247a12.79 12.79 0 0 1-.194.529 1.074 1.074 0 0 0-.081.348c.003.115-.019.106.002.179.021.072-.025.091.044.107s.15.037.212-.052.092-.038.167-.159c.076-.121.107-.134.177-.181.07-.047.139-.031.169-.133.03-.102.066-.189.097-.264l.333-.802c.063-.152.219-.558.309-.774.09-.217.24-.701.311-.874.073-.174.201-.514.263-.602a4.91 4.91 0 0 0 .199-.358s.097-.234.155-.284c.059-.051.074-.119.281-.108.207.011.233.01.489.053.255.044.288-.005.453.076.166.081.141.171.257.219.117.049.273.063.342.017s.06-.174.169-.229c.11-.054.279-.071.231-.166-.048-.094-.027-.023-.094-.163-.066-.14-.102-.204-.24-.261l-.265-.111c-.17-.07-.235-.122-.417-.073s-.267.014-.257.08c.009.066.033.039-.079.067-.111.029-.203.102-.348.092-.145-.01-.267-.048-.267-.048s.161-.207.203-.277c.041-.071.07-.171.208-.263.138-.092.177-.126.346-.143.169-.017.273.001.385-.089.112-.091.063-.062.143-.165.081-.104.057-.138.044-.256a.541.541 0 0 0-.09-.262c-.052-.084-.091-.05-.099-.153a5.952 5.952 0 0 1 .002-.423c.003-.098-.074-.33-.074-.33l-.09-.175s.438-.031.651-.051c.212-.019.363-.065.363-.065l-.086.061s.175.013.318-.013c.142-.025.342-.073.453-.051.111.022.281.104.281.104s-.026-.083.115-.132c.14-.05.157-.031.195-.123.038-.092.053-.158.083-.23.03-.071.108-.087.015-.15-.094-.063-.024-.058-.116-.155-.091-.098-.207-.051-.251-.117-.045-.066-.078-.044-.177-.037-.099.007-.042.042-.128.018-.086-.023-.115-.011-.217.031-.101.042-.147.095-.279.124-.132.029-.067-.04-.245-.018-.177.022-.175.047-.312.087-.136.039-.192.028-.192.028s.371-.11.489-.193.076-.185.219-.209c.142-.025.242-.092.358-.14.115-.048.31-.171.392-.221a3.21 3.21 0 0 0 .453-.34c.106-.112.086-.12.171-.241.086-.12.112-.181.163-.304.051-.123.012-.175.02-.28.008-.105.005-.07-.034-.206-.04-.137-.035-.207-.178-.266-.143-.06-.174-.132-.294-.074-.12.058-.176-.037-.302.007-.126.043-.071.054-.195.122-.125.069-.276.174-.504.259-.227.086-.464.252-.586.285l-.326.093s.016-.185.005-.274c-.011-.089-.002-.109-.049-.2-.046-.092-.08-.154-.08-.154l-.124-.088Zm-2.86 5.749s.206-.101.275-.121c.068-.021.113-.101.178-.112.065-.012.09-.007.129-.035.039-.027.14-.1.193-.122.053-.022.127-.056.201-.102.074-.046.07-.13.164-.146.094-.015.15-.096.156-.045.006.052-.014.126-.07.207-.055.081-.098.184-.131.225-.033.041-.039.027-.099.145-.059.117-.073.15-.123.151-.049.001-.068-.033-.088-.064-.02-.03-.003-.045-.046-.008s-.024.006-.106.032c-.083.026-.099.041-.176.081-.077.039-.099.013-.17.027-.072.014-.012.067-.113.008-.102-.058-.174-.121-.174-.121Zm1.663-1.584-.128-.041s.14-.077.139-.146c-.001-.07.147-.208.116-.232-.03-.023-.124.034-.041-.036.083-.071.112-.106.176-.16.065-.054.153-.181.173-.17l.042.023s-.129.271-.174.379a1.545 1.545 0 0 1-.184.321l-.119.062ZM39.493 78.331l1.771-.796.084.186c.072.161.003.3-.206.421l-.189.113c-.254.165-.423.346-.503.547a.777.777 0 0 0 .026.63.716.716 0 0 0 .472.418c.216.062.454.035.711-.08.205-.092.383-.233.533-.423.149-.188.326-.531.533-1.028a7.42 7.42 0 0 0 .123-.29c.419-1.012.859-1.622 1.319-1.829.425-.19.825-.227 1.198-.108.375.118.646.365.814.738.069.154.116.318.14.489.023.173.037.265.043.279a.418.418 0 0 0 .094.116.338.338 0 0 1 .083.093l.106.235-1.572.707-.11-.244c-.047-.105.004-.206.152-.303.093-.06.167-.112.22-.152.215-.169.35-.326.409-.473a.583.583 0 0 0-.023-.473.531.531 0 0 0-.334-.308c-.151-.047-.318-.029-.5.053-.268.12-.514.461-.741 1.022l-.087.21a20.2 20.2 0 0 1-.404.95 6.825 6.825 0 0 1-.279.55 2.089 2.089 0 0 1-.418.494 2.35 2.35 0 0 1-.571.36c-.496.223-.964.26-1.404.113-.441-.147-.763-.446-.966-.9a1.887 1.887 0 0 1-.142-.5 3.32 3.32 0 0 0-.048-.293.46.46 0 0 0-.105-.121.525.525 0 0 1-.112-.143l-.117-.26Zm5.528 2.79.529.84 1.797-1.132a.361.361 0 0 0 .126-.117.399.399 0 0 0 .05-.146l.005-.044c-.001-.072.032-.129.096-.173l.219-.138.829 1.317-.219.138a.2.2 0 0 1-.197.012c-.019-.007-.033-.013-.042-.015a.387.387 0 0 0-.153-.018.368.368 0 0 0-.16.063l-.11.069-4.192 2.64a.343.343 0 0 0-.122.116.373.373 0 0 0-.045.169.153.153 0 0 0-.002.048c.002.087-.03.15-.095.191l-.215.136-.852-1.354.214-.135a.225.225 0 0 1 .21-.018l.043.016a.326.326 0 0 0 .15.016.388.388 0 0 0 .161-.064l.109-.069 1.897-1.194-.529-.841-2.006 1.264a.414.414 0 0 0-.129.115.333.333 0 0 0-.051.15l-.005.036a.22.22 0 0 1-.101.19l-.215.135-.855-1.357.215-.136a.196.196 0 0 1 .205-.008.578.578 0 0 0 .059.025.382.382 0 0 0 .181.027.559.559 0 0 0 .205-.09l.049-.031 4.192-2.64a.408.408 0 0 0 .128-.114.375.375 0 0 0 .052-.194.2.2 0 0 1 .099-.168l.219-.138.826 1.313-.218.137a.194.194 0 0 1-.2.009.33.33 0 0 0-.044-.019c-.056-.017-.107-.022-.153-.017a.401.401 0 0 0-.158.066l-.109.069-1.688 1.063Zm.975 4.107.582.739 1.634-1.892-2.216 1.153Zm-.529.287-.612.323a.645.645 0 0 0-.051.029c-.102.057-.17.098-.202.124a.376.376 0 0 0-.149.285c-.01.118-.04.198-.091.239l-.2.157-.732-.931.199-.157c.064-.05.128-.066.193-.05l.044.011a.723.723 0 0 0 .294-.039c.113-.036.258-.102.437-.197l4.3-2.223.153-.193a.062.062 0 0 1 .014-.019c.007-.007.015-.016.029-.027.057-.045.162-.011.316.098l.012.008c.117.082.242.155.376.222s.204.105.212.114a.117.117 0 0 1 .025.072.123.123 0 0 1-.031.074l-3.751 4.459a1.08 1.08 0 0 0-.208.365c-.04.129-.081.209-.12.241l-.2.156-.964-1.224.2-.157c.056-.045.143-.057.26-.039a.359.359 0 0 0 .298-.066 1.32 1.32 0 0 0 .222-.222l.446-.52-.719-.913Zm4.807 1.113-2.846 2.767a.41.41 0 0 0-.101.139c-.018.045-.024.098-.018.158a.17.17 0 0 0 .005.039.224.224 0 0 1-.063.203l-.182.178-.858-.883.182-.177a.197.197 0 0 1 .199-.051.469.469 0 0 0 .245.002.549.549 0 0 0 .183-.131l.041-.04 3.552-3.454a.41.41 0 0 0 .101-.139.399.399 0 0 0 .019-.152l-.008-.048a.2.2 0 0 1 .061-.185l.186-.18.79.812-1.797 3.832 2.302-2.239a.375.375 0 0 0 .1-.14.433.433 0 0 0 .018-.16l-.005-.038a.2.2 0 0 1 .058-.188l.186-.181.854.879-.185.18c-.053.052-.118.066-.195.042a.309.309 0 0 0-.057-.013.357.357 0 0 0-.176 0 .442.442 0 0 0-.167.115l-.066.064-4.095 3.982-.406-.418 2.143-4.575Zm2.34 5.894a.592.592 0 0 0 .135-.235.346.346 0 0 0-.021-.215l-.049-.086c-.055-.098-.058-.175-.009-.235l.158-.188 1.067.89-1.209 1.451a.497.497 0 0 0-.126.28.47.47 0 0 1-.032.167l-.107.128c-.078.093-.275.085-.59-.023a2.815 2.815 0 0 1-.89-.51c-.516-.43-.721-.973-.616-1.631.106-.658.519-1.419 1.237-2.281.669-.803 1.327-1.332 1.978-1.588.65-.255 1.191-.202 1.624.159.103.086.199.204.291.356.09.15.15.237.18.263.037.03.092.056.167.077a.462.462 0 0 1 .139.057l.174.145-1.145 1.375-.169-.14c-.095-.08-.095-.218.001-.417l.094-.195c.118-.264.177-.477.173-.638a.517.517 0 0 0-.2-.404c-.218-.182-.489-.166-.811.047-.321.214-.844.756-1.568 1.625-.655.786-1.074 1.385-1.256 1.793-.182.409-.165.704.052.885.125.105.253.129.382.074.129-.055.322-.236.579-.545l.367-.441Zm3.384.557.825.552 1.182-1.766a.37.37 0 0 0 .067-.158.404.404 0 0 0-.014-.154l-.014-.042a.2.2 0 0 1 .018-.196l.144-.215 1.293.865-.144.215a.2.2 0 0 1-.175.092c-.021 0-.036.002-.044.003a.385.385 0 0 0-.148.046.376.376 0 0 0-.12.122l-.072.108-2.756 4.117a.352.352 0 0 0-.064.156.363.363 0 0 0 .027.172.18.18 0 0 0 .018.045c.037.078.034.149-.009.213l-.142.211-1.329-.889.141-.212a.228.228 0 0 1 .185-.101l.046-.003a.35.35 0 0 0 .143-.046.398.398 0 0 0 .121-.124l.072-.108 1.247-1.862-.826-.553-1.318 1.97a.41.41 0 0 0-.071.158.34.34 0 0 0 .015.158.575.575 0 0 0 .01.035c.031.081.026.152-.016.214l-.141.211-1.333-.892.141-.211a.194.194 0 0 1 .184-.091.424.424 0 0 0 .065-.001.403.403 0 0 0 .175-.049.559.559 0 0 0 .151-.166l.032-.048 2.756-4.117a.39.39 0 0 0 .07-.156.36.36 0 0 0-.013-.153l-.017-.045a.197.197 0 0 1 .022-.194l.144-.215 1.288.863-.144.215a.194.194 0 0 1-.178.089.363.363 0 0 0-.048 0 .386.386 0 0 0-.147.047.404.404 0 0 0-.118.124l-.071.107-1.11 1.659Zm2.521 3.204.846.409.639-2.417-1.485 2.008Zm-.35.49-.409.559a1.736 1.736 0 0 0-.16.248.378.378 0 0 0-.009.322c.043.11.051.195.022.254l-.11.229-1.067-.516.111-.229c.035-.072.086-.115.152-.129l.043-.009a.732.732 0 0 0 .248-.164c.086-.082.187-.206.307-.369l2.89-3.883.053-.241a.182.182 0 0 1 .018-.06c.031-.064.141-.081.327-.05l.014.002c.141.023.286.033.436.035.15.001.229.004.24.009a.12.12 0 0 1 .054.053c.01.024.013.05.005.081l-1.417 5.652a1.079 1.079 0 0 0-.026.419c.02.133.018.224-.004.269l-.11.229-1.403-.679.11-.228c.031-.065.104-.114.217-.149a.362.362 0 0 0 .239-.19 1.433 1.433 0 0 0 .103-.296l.172-.664-1.046-.505Zm3.877 2.761-.05.119a.402.402 0 0 0-.039.169.333.333 0 0 0 .045.152l.013.026c.044.072.05.144.02.216l-.098.234-1.471-.618.099-.234a.195.195 0 0 1 .162-.125.407.407 0 0 0 .227-.094.545.545 0 0 0 .116-.192l.023-.054 1.92-4.567a.387.387 0 0 0 .038-.166.385.385 0 0 0-.041-.148l-.022-.039a.195.195 0 0 1-.02-.196l.1-.239 1.422.598-.1.238a.2.2 0 0 1-.15.125.366.366 0 0 0-.182.084.402.402 0 0 0-.092.144l-.05.119-1.87 4.448Zm3.803 2.29c-.531-.14-.872-.544-1.024-1.208-.151-.666-.092-1.51.179-2.535.271-1.028.637-1.793 1.097-2.295.46-.502.956-.683 1.486-.543.525.139.863.54 1.013 1.204.151.662.091 1.508-.181 2.536-.271 1.027-.637 1.793-1.095 2.295-.459.503-.95.684-1.475.546Zm1.285-2.55.315-1.192c.232-.876.343-1.464.333-1.765-.009-.3-.122-.479-.337-.536-.22-.058-.411.044-.571.306-.159.261-.353.825-.582 1.689l-.315 1.192c-.229.868-.339 1.457-.331 1.766.01.309.125.494.345.552.215.056.402-.045.558-.304.159-.259.353-.829.585-1.708Zm4.646 1.863-.019.123c-.088.569-.27.986-.543 1.25s-.625.363-1.054.297c-.545-.085-.927-.448-1.147-1.09-.218-.643-.248-1.491-.084-2.544.16-1.036.442-1.832.844-2.387.403-.555.863-.793 1.38-.713.12.019.256.069.405.15.15.082.246.126.29.133a.436.436 0 0 0 .184-.019.467.467 0 0 1 .147-.023l.216.033-.273 1.769-.217-.034c-.128-.023-.201-.151-.219-.384a6.02 6.02 0 0 0-.017-.189c-.032-.325-.086-.548-.156-.661a.456.456 0 0 0-.335-.208c-.235-.036-.433.13-.592.5-.16.369-.313 1.03-.461 1.984-.171 1.109-.234 1.883-.188 2.319.048.437.206.676.475.718a.53.53 0 0 0 .537-.217c.139-.178.241-.475.312-.887l.515.08Zm.576 1.962.017-.253a.196.196 0 0 1 .114-.172.482.482 0 0 0 .183-.162.546.546 0 0 0 .047-.219l.004-.058.328-4.943a.378.378 0 0 0-.018-.171.358.358 0 0 0-.087-.126l-.037-.03a.195.195 0 0 1-.078-.179l.017-.258 2.075.138c.208.014.377.02.506.018.13-.002.245-.009.343-.024l-.106 1.6-.2-.013c-.184-.012-.285-.114-.306-.307a1.277 1.277 0 0 0-.034-.215.669.669 0 0 0-.259-.398c-.125-.086-.312-.137-.561-.153l-.21-.014-.154 2.335.151.01c.112.007.2-.008.265-.045a.424.424 0 0 0 .165-.195c.015-.031.031-.074.049-.131.052-.144.125-.214.219-.207l.272.018-.119 1.794-.272-.018c-.094-.006-.157-.085-.19-.235a1.18 1.18 0 0 0-.03-.136.407.407 0 0 0-.139-.213.466.466 0 0 0-.256-.081l-.152-.01-.172 2.596.218.014a1.38 1.38 0 0 0 .596-.071.704.704 0 0 0 .362-.312 1.34 1.34 0 0 0 .121-.421c.035-.201.119-.296.252-.287l.293.019-.114 1.721-3.103-.206Zm4.816-2.136.94-.02-.527-2.444-.413 2.464Zm-.089.595-.11.683a2.054 2.054 0 0 0-.031.295.381.381 0 0 0 .139.29c.088.079.134.151.135.216l.006.254-1.185.025-.005-.254c-.002-.08.024-.142.076-.184a.472.472 0 0 0 .035-.028.736.736 0 0 0 .147-.258c.038-.112.073-.268.105-.468l.813-4.772-.063-.239a.095.095 0 0 1-.007-.022l-.004-.04c-.001-.071.089-.136.269-.193l.013-.004c.136-.044.271-.1.404-.167.135-.067.207-.1.219-.1a.112.112 0 0 1 .072.022c.02.017.034.039.041.069l1.304 5.68c.033.148.089.276.166.385.079.11.118.191.12.241l.005.254-1.559.033-.005-.254c-.001-.071.041-.148.126-.231a.36.36 0 0 0 .127-.278 1.728 1.728 0 0 0-.043-.311l-.148-.669-1.162.025Zm3.826-3.154.497 3.938a.408.408 0 0 0 .05.165.348.348 0 0 0 .115.11c.004.002.015.009.035.018.074.042.115.099.124.173l.032.252-1.22.154-.032-.252a.194.194 0 0 1 .079-.189.484.484 0 0 0 .048-.043.37.37 0 0 0 .1-.152.543.543 0 0 0 .006-.224l-.008-.058-.621-4.915a.414.414 0 0 0-.049-.163.37.37 0 0 0-.153-.13.199.199 0 0 1-.111-.161l-.033-.256 1.124-.142 1.98 3.741-.403-3.186a.386.386 0 0 0-.053-.164.428.428 0 0 0-.116-.111l-.034-.019c-.065-.03-.102-.083-.115-.16l-.032-.256 1.216-.154.032.256a.18.18 0 0 1-.084.181.431.431 0 0 0-.045.038.357.357 0 0 0-.106.141.45.45 0 0 0-.008.201l.011.093.717 5.666-.58.073-2.363-4.465Zm6.623-2.388-.034-.125a.431.431 0 0 0-.072-.155.407.407 0 0 0-.165-.108.198.198 0 0 1-.137-.143l-.067-.249 1.127-.306.067.249a.193.193 0 0 1-.048.193.315.315 0 0 0-.088.167.375.375 0 0 0 .015.163l.039.141.945 3.478c.138.508.214.865.231 1.073.018.208-.001.391-.053.55a1.274 1.274 0 0 1-.386.575c-.182.155-.417.27-.706.349-.516.14-.924.097-1.222-.131-.3-.229-.544-.689-.732-1.382l-1.043-3.84a.407.407 0 0 0-.072-.155.377.377 0 0 0-.124-.091l-.045-.016a.193.193 0 0 1-.133-.144l-.067-.249 1.496-.407.068.249a.193.193 0 0 1-.048.193.277.277 0 0 0-.03.032.414.414 0 0 0-.062.136.38.38 0 0 0 .015.164l.038.14 1.069 3.935c.111.409.233.672.365.789.132.117.313.144.545.08.243-.066.391-.199.445-.4.053-.2.02-.52-.1-.959l-1.031-3.796Zm2.35.289 1.628 3.62c.029.066.06.113.096.144a.34.34 0 0 0 .181.079.226.226 0 0 1 .169.128l.104.232-1.122.504-.104-.231a.194.194 0 0 1 .02-.204.615.615 0 0 0 .034-.055.387.387 0 0 0 .051-.175.532.532 0 0 0-.06-.216l-.024-.053-2.031-4.519a.408.408 0 0 0-.096-.142.38.38 0 0 0-.136-.07l-.048-.009a.2.2 0 0 1-.153-.121l-.106-.236 1.034-.464 2.987 2.998-1.317-2.929a.372.372 0 0 0-.099-.141.416.416 0 0 0-.143-.072l-.038-.008a.2.2 0 0 1-.157-.119l-.106-.236 1.118-.503.106.236c.031.068.022.134-.028.198a.365.365 0 0 0-.031.049.37.37 0 0 0-.061.165.453.453 0 0 0 .052.195l.038.085 2.341 5.21-.533.239-3.566-3.579Zm6.111 1.312.063.113c.035.062.07.107.109.134a.332.332 0 0 0 .147.059l.029.004c.084.011.145.05.182.118l.124.222-1.392.778-.124-.222a.196.196 0 0 1 .002-.205l.029-.052a.418.418 0 0 0 .036-.184.532.532 0 0 0-.079-.21l-.028-.051-2.417-4.324a.414.414 0 0 0-.108-.133.369.369 0 0 0-.186-.065.198.198 0 0 1-.167-.106l-.126-.225 1.346-.752.126.225a.2.2 0 0 1 .006.195l-.021.043a.375.375 0 0 0-.025.152c.003.045.023.1.057.161l.063.113 2.354 4.212Zm3.133-.708-4.15-4.267a.491.491 0 0 1-.054-.06.495.495 0 0 0-.347-.182l-.033-.001a.206.206 0 0 1-.183-.1l-.138-.219 1.38-.869.137.219c.025.04.018.114-.023.225-.041.11-.044.193-.009.248.036.058.081.12.133.184.054.065.117.137.19.213l2.212 2.402-1.237-3.011a11.857 11.857 0 0 1-.072-.181 1.987 1.987 0 0 0-.114-.255c-.051-.079-.136-.126-.255-.14-.121-.011-.192-.035-.213-.07l-.139-.218 1.112-.701.138.219c.036.058.04.12.013.188a.615.615 0 0 0-.023.056.543.543 0 0 0-.039.209.88.88 0 0 0 .07.265l2.093 5.563-.449.283Zm2.156-1.684-.154-.202a.201.201 0 0 1-.027-.205.271.271 0 0 0 .021-.06.362.362 0 0 0 .011-.182.547.547 0 0 0-.107-.197l-.035-.046-2.996-3.946a.392.392 0 0 0-.125-.117.397.397 0 0 0-.149-.038l-.048.002a.197.197 0 0 1-.176-.083l-.156-.206 1.657-1.258a6.13 6.13 0 0 0 .393-.318c.097-.087.179-.168.243-.244l.97 1.278-.159.122c-.147.111-.291.1-.433-.032a1.088 1.088 0 0 0-.167-.139.66.66 0 0 0-.457-.131c-.15.017-.325.102-.524.252l-.167.127 1.415 1.864.122-.092a.476.476 0 0 0 .17-.207.422.422 0 0 0-.003-.256 1.185 1.185 0 0 0-.049-.131c-.056-.143-.046-.244.029-.3l.217-.165 1.088 1.433-.217.164c-.076.058-.175.039-.298-.052a1.063 1.063 0 0 0-.113-.083.402.402 0 0 0-.244-.07.47.47 0 0 0-.247.107l-.121.092 1.573 2.072.175-.132c.189-.144.323-.291.402-.445a.702.702 0 0 0 .07-.473 1.383 1.383 0 0 0-.186-.397c-.105-.174-.104-.301.002-.382l.234-.177 1.043 1.373-2.477 1.88Zm-.632-8.1c.322-.303.571-.516.746-.64.175-.123.347-.217.515-.281.3-.111.59-.131.871-.063.279.069.535.225.764.469.315.336.475.68.481 1.033.005.354-.142.73-.442 1.131.269-.148.523-.21.762-.184.24.024.541.152.906.384l.996.652c.114.073.207.125.277.158a.407.407 0 0 0 .182.042.187.187 0 0 0 .063-.01c.094-.023.161-.011.204.034l.186.199-.825.774-1.974-1.262a3.652 3.652 0 0 1-.112-.073c-.399-.256-.719-.288-.958-.096l1.616 1.721a.351.351 0 0 0 .141.099.49.49 0 0 0 .186.009l.059-.011c.086-.017.153.002.202.054l.174.185-1.215 1.141-.173-.185a.194.194 0 0 1-.048-.2.731.731 0 0 0 .014-.063.4.4 0 0 0-.008-.182.57.57 0 0 0-.128-.185l-.04-.042-3.391-3.611a.389.389 0 0 0-.137-.103.375.375 0 0 0-.152-.022l-.047.007a.2.2 0 0 1-.185-.065l-.176-.188.666-.626Zm.647.143 1.625 1.73.072-.068c.225-.211.326-.441.302-.689-.024-.25-.172-.518-.444-.808-.301-.32-.562-.497-.784-.528-.222-.032-.457.068-.705.302l-.066.061Zm6.392 2.103-1.535-1.19.125-.161c.108-.139.264-.144.468-.016l.189.114c.265.147.504.212.719.188a.772.772 0 0 0 .543-.319.71.71 0 0 0 .148-.613c-.046-.221-.181-.418-.404-.59a1.419 1.419 0 0 0-.624-.273c-.236-.042-.622-.038-1.158.012a10.71 10.71 0 0 0-.314.028c-1.09.105-1.834.003-2.233-.306-.368-.285-.588-.622-.659-1.007-.071-.387.02-.742.27-1.065.104-.133.226-.252.366-.353.143-.101.217-.158.226-.17a.414.414 0 0 0 .059-.137.34.34 0 0 1 .042-.117l.159-.204 1.362 1.057-.164.211c-.071.091-.184.094-.339.008a4.15 4.15 0 0 0-.238-.123c-.249-.11-.452-.156-.609-.139a.582.582 0 0 0-.406.243.528.528 0 0 0-.116.439c.029.156.124.295.281.417.232.18.649.238 1.25.175l.227-.023c.461-.048.804-.079 1.028-.089.224-.014.43-.018.617-.011.219.012.43.058.633.136.202.079.397.19.585.335.43.334.683.73.759 1.188.077.458-.036.882-.341 1.275a1.837 1.837 0 0 1-.375.359 3.165 3.165 0 0 0-.236.181.505.505 0 0 0-.058.149.503.503 0 0 1-.073.166l-.174.225Zm2.479-4.763.106.073c.058.041.11.065.156.074a.35.35 0 0 0 .186-.021.231.231 0 0 1 .216.026l.208.145-.91 1.31-.208-.145a.193.193 0 0 1-.088-.185l.002-.06a.413.413 0 0 0-.048-.181.542.542 0 0 0-.163-.154l-.048-.033-4.068-2.827a.396.396 0 0 0-.155-.073.39.39 0 0 0-.196.023.197.197 0 0 1-.196-.021l-.212-.148.88-1.266.212.147a.201.201 0 0 1 .091.173v.048a.38.38 0 0 0 .044.147.41.41 0 0 0 .122.12l.106.074 3.963 2.754ZM107.188 78.309a2.75 2.75 0 0 0 .139-.282c.045-.107.088-.223.13-.35l1.384.793-.131.228c-.053.093-.165.109-.336.049a1.93 1.93 0 0 0-.182-.058c-.201-.057-.358-.07-.473-.04a.443.443 0 0 0-.275.227l-.096.166 4.616 2.643a.356.356 0 0 0 .171.057.437.437 0 0 0 .174-.051.353.353 0 0 0 .046-.024c.082-.049.155-.055.22-.018l.22.126-.852 1.49-.221-.126c-.065-.037-.097-.103-.096-.199a.284.284 0 0 0-.002-.062.417.417 0 0 0-.044-.171.363.363 0 0 0-.134-.117l-.104-.06-4.512-2.583-.095.166a.452.452 0 0 0-.058.356c.032.115.123.244.273.388.033.029.078.069.137.118.142.124.188.231.136.32l-.131.229-1.384-.793c.089-.1.167-.196.234-.287.068-.09.126-.179.175-.264l1.071-1.871Zm4.683-.933 1.728.762a.444.444 0 0 0 .196.05.41.41 0 0 0 .169-.058l.049-.033a.196.196 0 0 1 .204-.022l.233.103-.665 1.508-.233-.102a.199.199 0 0 1-.122-.165.369.369 0 0 0-.011-.064.385.385 0 0 0-.079-.165.565.565 0 0 0-.19-.12l-.053-.023-1.793-.791-2.983-.336-.086-.013c-.158-.025-.285-.013-.381.036a1.275 1.275 0 0 0-.048.022.198.198 0 0 1-.186.011l-.236-.104.658-1.493.236.104c.043.019.08.087.109.203.029.114.074.185.137.213a.878.878 0 0 0 .173.056c.063.015.156.031.279.045l1.871.237-1.407-1.289a2.041 2.041 0 0 0-.183-.155.87.87 0 0 0-.164-.099c-.081-.035-.175-.025-.282.03-.108.057-.183.076-.223.058l-.237-.104.512-1.162.237.104c.049.021.1.101.153.236a.984.984 0 0 0 .259.365l2.359 2.155ZM76.996 35.786c12.518 0 23.059 8.721 25.87 20.396a9.636 9.636 0 0 0-.853-.075c-2.82-11.186-12.976-19.508-25.017-19.508-13.632 0-24.849 10.666-25.74 24.079-.282.039-.556.083-.823.131.827-13.923 12.44-25.023 26.563-25.023Z" style="fill:#074ea2" transform="matrix(.37755 0 0 .37755 -5.75 37.725)"/><defs><linearGradient id="a" x1="0" x2="1" y1="0" y2="0" gradientTransform="rotate(90 18.46 58.113) scale(27.3243)" gradientUnits="userSpaceOnUse"><stop offset="0" style="stop-color:#ed1c24;stop-opacity:1"/><stop offset=".04" style="stop-color:#ed1c24;stop-opacity:1"/><stop offset=".96" style="stop-color:#fff200;stop-opacity:1"/><stop offset="1" style="stop-color:#fff200;stop-opacity:1"/></linearGradient></defs></svg>