<svg xmlns="http://www.w3.org/2000/svg" width="154" height="157" fill="none"><g filter="url(#a)"><path fill="#fff" d="M13 0h128v128H13z"/><path fill="#1E8274" fill-rule="evenodd" d="M36.542 67.184c.61-.6 1.21-.59 1.974-.688.811-.102 1.21-.3 1.568-.677.358-.377.6-1.249.213-2.062-.387-.813-1.026-1.123-1.026-1.123s.058.194.058.465.01.91-.02 1.462c-.028.551-.057 1.413-1.2 1.655-1.141.242-1.393.542-1.393.542v-.455s.194-.116.484-.223c.29-.106.91-.397 1.113-1.006.203-.61.077-1.52.077-1.704 0-.184-.028-.677.523-1.79 0 0-1.035.202-1.355 1.374-.068.359-.097 1.113-.097 1.5s.116 1.094-.493 1.375c0 0-.097-.087-.252-.087v-2.653h.339s.048-.251-.33-.32v-1.48s-.038-.387.097-.561a.843.843 0 0 1 .59-.31c.252-.029.6.01.6.397s-.444.358-.474.329c-.028-.03-.106-.203-.377-.058-.165.078-.02.348.175.426.193.077.59.242 1.045-.146.455-.386.27-.967-.088-1.229-.358-.261-1.122-.367-1.751.194h-.01c-.63-.562-1.394-.455-1.752-.194-.358.262-.542.843-.087 1.23.455.387.851.222 1.045.145.194-.078.34-.349.175-.426-.272-.145-.349.029-.378.058-.03.029-.474.058-.474-.33 0-.387.348-.425.6-.396a.841.841 0 0 1 .59.31c.136.174.097.56.097.56v1.482c-.377.068-.33.319-.33.319h.34v2.653c-.155 0-.252.087-.252.087-.61-.28-.494-.988-.494-1.375s-.029-1.141-.096-1.5c-.32-1.172-1.355-1.374-1.355-1.374.551 1.113.522 1.606.522 1.79 0 .184-.126 1.094.078 1.704.203.61.822.9 1.113 1.006.29.107.484.223.484.223v.455s-.252-.3-1.394-.542c-1.142-.242-1.171-1.103-1.2-1.655-.029-.552-.02-1.191-.02-1.462 0-.271.058-.465.058-.465s-.639.31-1.026 1.123-.145 1.685.213 2.062c.359.377.757.575 1.569.677.764.097 1.364.088 1.974.688h.01ZM33.428 68.399h.983l-.504-.379-.478.379Zm-.154.054.616-.488.016-.012.667.5h-1.3Z" clip-rule="evenodd"/><path fill="#1E8274" fill-rule="evenodd" d="M33.586 68.345h.64l-.315-.244-.325.244Zm-.097.032.413-.309.01-.007.408.316h-.831ZM35.857 68.375h1.369l-.691-.633-.678.633Zm-.164.064.82-.765.022-.02.857.785h-1.7Z" clip-rule="evenodd"/><path fill="#1E8274" fill-rule="evenodd" d="M36.222 68.253h.642l-.313-.31-.329.31Zm-.162.065.469-.444.022-.022.47.466h-.961ZM35.882 68.506h1.305v-.018h-1.305v.018Zm-.032.033v-.084h1.37v.084h-1.37ZM35.804 68.587c0 .007.005.011.01.011h1.424c.006 0 .011-.004.011-.01a.01.01 0 0 0-.01-.011h-1.424a.01.01 0 0 0-.01.01Zm.01.044a.043.043 0 0 1-.042-.044c0-.023.019-.042.043-.042h1.423c.024 0 .044.019.044.042 0 .025-.02.044-.044.044h-1.423ZM35.943 68.747v.835h.074v-.835h.03v-.078h-.137v.078h.033Zm-.032.868v-.836h-.034v-.142h.202v.142h-.029v.836h-.14ZM36.315 68.747v.835h.074v-.835h.03v-.078h-.137v.078h.033Zm-.032.868v-.836h-.034v-.142h.202v.142h-.03v.836h-.138ZM36.684 68.747v.835h.074v-.835h.03v-.078h-.137v.078h.034Zm-.032.868v-.836h-.034v-.142h.202v.142h-.029v.836h-.14ZM37.05 68.747v.835h.075v-.835h.03v-.078h-.138v.078h.034Zm-.031.868v-.836h-.034v-.142h.202v.142h-.03v.836h-.138Z" clip-rule="evenodd"/><path fill="#1E8274" fill-rule="evenodd" d="M35.748 69.637h1.598v-.008h-1.598v.008Zm-.022.02v-.05h1.641v.05h-1.64ZM35.702 69.704h1.68v-.013h-1.68v.013Zm-.032.033v-.08h1.744v.08h-1.745ZM35.62 69.825h1.85v-.035h-1.85v.035Zm-.042.043v-.121h1.935v.12h-1.935ZM33.42 69.666V68.43h.044v1.192h.879v-1.197h.042v1.24h-.964Z" clip-rule="evenodd"/><path fill="#1E8274" fill-rule="evenodd" d="m34.352 69.627.101-.07v-1.131h.044v1.154l-.12.082-.025-.035Z" clip-rule="evenodd"/><path fill="#1E8274" fill-rule="evenodd" d="M33.443 68.984v-.043h.918l.105-.068h1.464v.043h-1.451l-.106.068h-.93ZM33.636 68.822h.186v-.259h-.186v.26Zm-.042.043v-.345h.272v.345h-.272ZM34 68.822h.187v-.259H34v.26Zm-.042.043v-.345h.272v.345h-.272ZM38.678 68.399h.982l-.478-.378-.504.378Zm-.161.054.649-.489.017-.011.632.5h-1.298Z" clip-rule="evenodd"/><path fill="#1E8274" fill-rule="evenodd" d="M38.863 68.345h.64l-.326-.244-.314.244Zm-.095.032.4-.309.009-.008.423.317h-.832ZM38.702 69.666v-1.24h.043v1.197h.88V68.43h.042v1.235h-.965Z" clip-rule="evenodd"/><path fill="#1E8274" fill-rule="evenodd" d="M38.592 69.58v-1.154h.043v1.132l.1.069-.023.035-.12-.082Z" clip-rule="evenodd"/><path fill="#1E8274" fill-rule="evenodd" d="m38.715 68.984-.105-.068h-1.457v-.043h1.47l.105.068h.918v.043h-.931ZM39.266 68.822h.186v-.259h-.186v.26Zm.229.043h-.273v-.345h.273v.345ZM38.902 68.822h.186v-.259h-.186v.26Zm.229.043h-.272v-.345h.272v.345ZM33.96 68.061h2.197v-.064H33.96v.064ZM36.926 68.061h2.196v-.064h-2.196v.064ZM34.446 68.422h1.34v-.066h-1.34v.066ZM37.296 68.422h1.341v-.066h-1.341v.066ZM34.463 69.6h1.47v-.064h-1.47v.064ZM37.142 69.6h1.47v-.064h-1.47v.064ZM34.66 68.752h.18v-.216h-.18v.216Zm-.042.043v-.302h.266v.302h-.266ZM35.05 68.752h.18v-.216h-.18v.216Zm-.044.043v-.302h.266v.302h-.266ZM35.452 68.752h.18v-.216h-.18v.216Zm-.043.043v-.302h.266v.302h-.266ZM37.429 68.752h.18v-.216h-.18v.216Zm-.043.043v-.302h.266v.302h-.266ZM37.817 68.752h.18v-.216h-.18v.216Zm-.043.043v-.302h.266v.302h-.266ZM38.22 68.752h.18v-.216h-.18v.216Zm-.043.043v-.302h.266v.302h-.266ZM31.331 67.872c.043.063.103.151.174.247.132.18.299.391.444.527a.862.862 0 0 1 .082-.062.479.479 0 0 1 .248-.091c.028 0 .057.005.086.017l.039-.046a.753.753 0 0 1-.009-.112c0-.07.01-.159.048-.25a.528.528 0 0 1 .175-.221l-.568-.65a.626.626 0 0 0-.11.11.719.719 0 0 0-.153.426l-.002.058-.055-.019-.005-.002a.795.795 0 0 0-.25-.042.386.386 0 0 0-.189.042l.045.068Zm.59.864a3.883 3.883 0 0 1-.485-.566c-.143-.194-.245-.354-.246-.354l-.02-.033.03-.025a.435.435 0 0 1 .274-.081c.093 0 .178.018.23.032.02-.19.095-.33.169-.423a.657.657 0 0 1 .162-.15l.03-.02.683.784-.043.026a.448.448 0 0 0-.182.21.568.568 0 0 0-.03.33v.001l.005.022-.09.103-.025.028-.032-.02a.13.13 0 0 0-.072-.02.365.365 0 0 0-.176.06.825.825 0 0 0-.117.089l-.007.006-.028.027-.03-.026ZM30.586 66.4c.032.088.078.208.132.337.1.243.23.52.343.667a.675.675 0 0 1 .397-.03.768.768 0 0 1 .048-.188.536.536 0 0 1 .31-.313c-.035-.062-.1-.177-.17-.306a5.962 5.962 0 0 1-.27-.54l-.008-.023h-.001a1.275 1.275 0 0 0-.116.1c-.086.085-.175.199-.192.31l-.013.074-.057-.048h-.002c0-.002-.002-.004-.004-.005l-.021-.014a.707.707 0 0 0-.372-.113l-.038.001.034.091Zm.43 1.086c-.131-.158-.269-.455-.378-.716a9.335 9.335 0 0 1-.186-.484l-.017-.05.052-.007a.77.77 0 0 1 .503.107.785.785 0 0 1 .2-.292c.093-.09.179-.147.18-.148l.064-.042.003.076c0 .004.003.02.01.042l.033.08c.027.062.066.14.108.223.085.165.186.349.254.469l.074.132.028.048-.054.015a.438.438 0 0 0-.295.259.669.669 0 0 0-.056.23v.064l-.058-.02a.497.497 0 0 0-.171-.03.563.563 0 0 0-.24.054l-.032.017-.022-.027Z" clip-rule="evenodd"/><path fill="#1E8274" fill-rule="evenodd" d="M30.855 65.934a1.01 1.01 0 0 1 .078-.127.681.681 0 0 1 .29-.236 8.609 8.609 0 0 1-.09-.34 3.475 3.475 0 0 1-.1-.586 1.185 1.185 0 0 0-.118.056.667.667 0 0 0-.265.249l-.038.07-.038-.07v-.001l-.004-.006-.015-.022a.679.679 0 0 0-.295-.217l.004.059c.006.076.015.183.03.306.027.236.073.53.144.779a.717.717 0 0 1 .077-.004c.094 0 .23.013.34.09Zm-.014.1c-.085-.084-.228-.105-.326-.104a.766.766 0 0 0-.101.007l-.038.006-.01-.036c-.16-.526-.196-1.26-.197-1.261l-.002-.06.058.016a.755.755 0 0 1 .385.25.795.795 0 0 1 .263-.226c.103-.058.189-.083.19-.083l.057-.017-.001.059v.012c0 .117.027.287.062.452.035.165.077.325.104.427l.031.11.012.04-.04.013a.564.564 0 0 0-.273.203.797.797 0 0 0-.103.173l-.001.003-.024.06-.046-.045Z" clip-rule="evenodd"/><path fill="#1E8274" fill-rule="evenodd" d="M30.386 64.284a.556.556 0 0 1 .209.147.832.832 0 0 1 .097-.093.572.572 0 0 1 .312-.141 7.95 7.95 0 0 1-.005-.285c0-.125.003-.27.013-.404.009-.1.02-.193.04-.268a.762.762 0 0 0-.367.184l-.043.039-.025-.051-.004-.008a.754.754 0 0 0-.19-.254.237.237 0 0 0-.058-.035l-.012.065c-.013.067-.03.16-.047.268a4.695 4.695 0 0 0-.068.677c0 .038.002.075.004.107.032.01.085.027.144.052Zm.165.237c-.024-.054-.095-.107-.17-.143a.999.999 0 0 0-.177-.067l-.012-.003-.03-.007-.003-.03a1.36 1.36 0 0 1-.007-.146c0-.417.137-1.069.137-1.07l.008-.036.036.002a.245.245 0 0 1 .145.063.7.7 0 0 1 .11.12c.034.045.061.09.08.121.208-.166.438-.18.443-.18l.068-.005-.026.063a1.245 1.245 0 0 0-.054.313 5.2 5.2 0 0 0-.014.396c0 .092.002.173.003.232l.004.093.002.047-.047-.002h-.013a.46.46 0 0 0-.272.11.831.831 0 0 0-.135.135l-.002.002-.043.058-.03-.066ZM30.715 62.928a.744.744 0 0 1 .412-.15c.012-.047.035-.14.062-.24.031-.118.068-.245.102-.336a.729.729 0 0 0-.328.09l-.05.03-.014-.056-.009-.031a1.02 1.02 0 0 0-.109-.269.331.331 0 0 0-.027-.037 12.501 12.501 0 0 0-.228.572c-.025.07-.045.134-.055.178.05.037.168.133.244.249Zm-.05.086c-.063-.125-.222-.25-.259-.276a.072.072 0 0 0-.008-.006l-.022-.015.005-.028c.009-.052.033-.128.064-.217a7.94 7.94 0 0 1 .106-.28c.075-.186.145-.348.145-.348l.017-.039.04.016c.044.02.074.057.101.1.027.042.05.091.069.14.02.049.034.096.045.13a.9.9 0 0 1 .37-.077l.02.001.065.003-.028.059a2.06 2.06 0 0 0-.092.271 8.942 8.942 0 0 0-.08.302l-.02.08-.007.035h-.036l-.01-.001a.652.652 0 0 0-.415.16h-.002l-.041.04-.027-.05Z" clip-rule="evenodd"/><path fill="#1E8274" fill-rule="evenodd" d="M31.108 61.79a.401.401 0 0 1 .039.092.796.796 0 0 1 .288-.058 4.92 4.92 0 0 1 .223-.46.858.858 0 0 0-.302.063l-.06.025v-.075c0-.006 0-.016-.002-.028a.597.597 0 0 0-.1-.297 96.892 96.892 0 0 0-.276.485c.041.046.134.154.19.253Zm-.048.14.004-.004v-.007a.18.18 0 0 0-.024-.073.886.886 0 0 0-.066-.103 2.162 2.162 0 0 0-.14-.17l-.021-.023.015-.027c.103-.19.323-.568.324-.568l.029-.05.04.043a.622.622 0 0 1 .142.285.786.786 0 0 1 .016.093.938.938 0 0 1 .302-.05c.038 0 .061.003.063.003l.08.009-.052.061c-.033.04-.082.129-.127.22-.044.09-.086.186-.113.247l-.028.067-.011.027h-.03a.623.623 0 0 0-.347.086c-.003 0-.004.002-.006.004l-.05-.07Z" clip-rule="evenodd"/><path fill="#1E8274" fill-rule="evenodd" d="M31.489 60.798a.557.557 0 0 1 .091.246.807.807 0 0 1 .287-.026c.019-.032.056-.093.102-.16.046-.07.1-.146.154-.207a.881.881 0 0 0-.237.028l-.048.014-.007-.05-.004-.028a.928.928 0 0 0-.076-.261.298.298 0 0 0-.03-.05l-.3.401c.018.022.043.054.068.093Zm.002.301a.178.178 0 0 0 .003-.034.418.418 0 0 0-.063-.196.84.84 0 0 0-.09-.125l-.006-.007-.024-.026.397-.533.034.026a.286.286 0 0 1 .086.112.861.861 0 0 1 .052.14c.013.05.023.096.028.128.077-.016.16-.02.222-.02.057 0 .097.003.097.003l.105.008-.08.068c-.047.04-.107.114-.16.188a3.574 3.574 0 0 0-.133.2l-.032.054-.014.024-.027-.003a1.087 1.087 0 0 0-.087-.004c-.154 0-.241.041-.246.043l-.019-.038.012.024.007.014-.076.038.014-.084Z" clip-rule="evenodd"/><path fill="#1E8274" fill-rule="evenodd" d="M32 60.138c.025.067.05.151.051.229.046-.009.112-.018.176-.02.041.002.083.005.12.017.039-.044.125-.142.197-.217l-.045-.01a1.212 1.212 0 0 0-.232-.028h-.051l.009-.05.001-.013.005-.034c.003-.029.006-.068.006-.108a.455.455 0 0 0-.012-.114l-.078.069a2.46 2.46 0 0 0-.177.17l-.01.012c.01.021.025.056.04.097Zm-.04.274a.167.167 0 0 0 .005-.041.596.596 0 0 0-.037-.179 1.33 1.33 0 0 0-.055-.134l-.008-.015.005-.017c.006-.019.015-.029.026-.044a2.883 2.883 0 0 1 .156-.155l.16-.14.035-.029.027.036c.043.059.048.137.05.21 0 .046-.005.089-.008.12.158.01.323.06.325.06l.072.02-.055.052a3.782 3.782 0 0 0-.267.289l-.023.025-.03-.017a.256.256 0 0 0-.11-.019.994.994 0 0 0-.196.025c-.012.002-.018.005-.018.005l-.07.017.017-.07Z" clip-rule="evenodd"/><path fill="#1E8274" fill-rule="evenodd" d="M32.815 59.88c.045-.038.154-.13.236-.195a.17.17 0 0 1 .013-.01 3.348 3.348 0 0 0-.066-.02.97.97 0 0 0-.224-.047h-.055l.013-.054.006-.024a.919.919 0 0 0 .03-.213l-.085.065-.175.136c.007.044.02.135.02.224a.64.64 0 0 1-.006.092.87.87 0 0 1 .293.047Zm-.012.09a.786.786 0 0 0-.298-.05h-.037l-.065.003.023-.061a.346.346 0 0 0 .015-.12 1.525 1.525 0 0 0-.022-.234l-.004-.026.02-.016c.075-.06.334-.26.334-.26l.035-.027.026.036c.022.032.023.064.024.101 0 .07-.016.156-.027.21.061.007.132.027.196.045.081.025.148.05.149.05l.086.031-.08.047a.99.99 0 0 0-.074.054l-.11.09-.143.12-.022.02-.026-.014Z" clip-rule="evenodd"/><path fill="#1E8274" fill-rule="evenodd" d="M33.295 59.412a.365.365 0 0 1 .075.039l.24-.166a1.552 1.552 0 0 0-.13-.054.28.28 0 0 0-.067-.017l-.055-.004.017-.052.01-.037a2.931 2.931 0 0 0 .055-.23l-.36.203c-.004.046-.012.15-.024.227l-.006.03c.06.01.163.029.245.061Zm.04.121a.31.31 0 0 0-.128-.06 1.403 1.403 0 0 0-.17-.037l-.047-.007-.061-.007.028-.055a.303.303 0 0 0 .014-.06c.005-.03.01-.069.013-.104.007-.072.011-.137.011-.137l.002-.024.518-.294.013.058a.162.162 0 0 1 .003.032c0 .059-.019.141-.038.214a2.435 2.435 0 0 1-.023.085l.038.012a1.518 1.518 0 0 1 .208.091l.064.033-.42.29-.025-.03Z" clip-rule="evenodd"/><path fill="#1E8274" fill-rule="evenodd" d="M33.865 59.069c.021.008.04.016.058.028l.213-.119a.455.455 0 0 0-.19-.077l-.06-.006.024-.055.01-.021.022-.055a1.41 1.41 0 0 0 .052-.152l.003-.009-.237.096a1.1 1.1 0 0 1-.033.243.326.326 0 0 1-.033.082c.052.01.118.025.171.045Zm.017.106-.007-.006a.45.45 0 0 0-.088-.035 1.603 1.603 0 0 0-.188-.04l-.008-.083c.008-.002.021-.014.033-.04a.412.412 0 0 0 .031-.099c.015-.075.019-.157.02-.188v-.044l.42-.17v.064a.4.4 0 0 1-.018.1 1.34 1.34 0 0 1-.067.191c.05.015.1.039.14.061.055.031.093.06.095.062l.053.04-.393.218-.023-.031ZM40.813 68.505c.093 0 .18.047.247.09a.868.868 0 0 1 .083.063c.223-.208.494-.591.617-.774l.046-.068a.391.391 0 0 0-.189-.041.876.876 0 0 0-.25.041l-.005.002-.055.02-.003-.06a.722.722 0 0 0-.262-.536l-.568.651a.523.523 0 0 1 .175.221.643.643 0 0 1 .039.362l.039.046a.213.213 0 0 1 .086-.017Zm.3.241-.007-.006-.02-.018a.793.793 0 0 0-.074-.054.4.4 0 0 0-.199-.077.132.132 0 0 0-.073.02l-.031.02-.115-.13.005-.022v-.001l.002-.007.003-.023a.565.565 0 0 0-.035-.3.443.443 0 0 0-.182-.21l-.044-.027.683-.783.031.02a.653.653 0 0 1 .162.15c.074.093.15.233.168.422a.941.941 0 0 1 .23-.031c.093 0 .194.018.275.082l.03.023-.02.033c0 .001-.104.16-.246.355a3.86 3.86 0 0 1-.485.566l-.03.026-.028-.028ZM42.03 67.417c.083-.109.176-.287.26-.47a9.061 9.061 0 0 0 .25-.626.686.686 0 0 0-.435.13h-.002l-.057.048-.013-.073a.575.575 0 0 0-.16-.276 1.228 1.228 0 0 0-.149-.134 8.066 8.066 0 0 1-.232.48 22.89 22.89 0 0 1-.215.389c.17.063.263.197.309.314.03.073.043.141.048.187a.653.653 0 0 1 .396.03Zm-.007.09h-.004a.598.598 0 0 0-.237-.053.501.501 0 0 0-.171.03l-.058.02v-.064l-.001-.013c-.001-.01-.002-.027-.006-.047a.67.67 0 0 0-.04-.15.446.446 0 0 0-.304-.28l-.054-.014.028-.048.058-.104c.036-.064.085-.151.136-.247.104-.19.22-.412.266-.53a.272.272 0 0 0 .019-.065l.003-.076.064.042c.002 0 .087.058.179.148a.776.776 0 0 1 .201.292.773.773 0 0 1 .503-.107l.051.007-.017.05s-.077.223-.185.484c-.11.261-.247.559-.377.715l-.023.028-.031-.017Z" clip-rule="evenodd"/><path fill="#1E8274" fill-rule="evenodd" d="M42.159 65.819a.913.913 0 0 1 .078.126.604.604 0 0 1 .34-.089.97.97 0 0 1 .077.003c.108-.377.156-.862.174-1.084l.004-.059a.633.633 0 0 0-.313.245h-.001l-.038.07-.038-.07a.65.65 0 0 0-.247-.237.967.967 0 0 0-.137-.067 3.559 3.559 0 0 1-.1.585c-.035.15-.07.279-.088.34.132.053.226.151.289.237Zm.022.21-.001-.002-.004-.01a.723.723 0 0 0-.087-.147.573.573 0 0 0-.285-.22l-.04-.012.012-.04.03-.11c.02-.068.044-.162.069-.266a3.12 3.12 0 0 0 .098-.613v-.071l.056.016c.001.001.086.026.19.084.087.049.19.121.263.225a.756.756 0 0 1 .385-.25l.058-.015-.003.06c0 .001-.037.735-.196 1.26l-.01.037-.038-.006-.007-.001-.02-.003a.813.813 0 0 0-.074-.003c-.098 0-.241.02-.326.103l-.046.045-.024-.06Z" clip-rule="evenodd"/><path fill="#1E8274" fill-rule="evenodd" d="M42.4 64.35c.04.034.073.067.097.093a.561.561 0 0 1 .21-.147c.057-.026.11-.043.143-.052a1.31 1.31 0 0 0 .004-.106c0-.301-.076-.745-.114-.947a2.826 2.826 0 0 1-.013-.065.204.204 0 0 0-.045.027.51.51 0 0 0-.087.086 1.202 1.202 0 0 0-.12.185l-.025.051-.043-.038a.771.771 0 0 0-.367-.185c.02.075.031.169.04.268.01.133.013.278.013.404 0 .123-.003.228-.005.285.126.01.234.076.312.14Zm.067.19-.002-.002c-.001-.001-.004-.003-.006-.007l-.024-.029a.837.837 0 0 0-.09-.086.475.475 0 0 0-.3-.122l-.047.002.002-.047.004-.094c.001-.058.003-.14.003-.23 0-.125-.003-.268-.014-.397a1.192 1.192 0 0 0-.055-.312l-.025-.064.068.004c.005 0 .235.015.444.18a.945.945 0 0 1 .189-.24.252.252 0 0 1 .145-.064l.036-.001.007.035c0 .003.137.653.138 1.072 0 .052-.002.1-.007.145l-.004.03-.029.007-.012.003-.035.01c-.03.01-.07.023-.112.043-.083.036-.172.094-.2.157l-.031.066-.043-.058ZM42.377 62.94c.076-.116.195-.212.244-.25a2.786 2.786 0 0 0-.105-.313 11.597 11.597 0 0 0-.178-.437.7.7 0 0 0-.075.13 1.536 1.536 0 0 0-.07.207l-.014.058-.05-.032a.722.722 0 0 0-.328-.09c.034.091.07.219.102.336.027.102.05.194.061.24a.734.734 0 0 1 .413.15Zm-.018.097-.002-.002s-.002-.003-.005-.004a.727.727 0 0 0-.107-.074.632.632 0 0 0-.302-.081h-.047l-.008-.034-.02-.08a8.199 8.199 0 0 0-.049-.191 2.805 2.805 0 0 0-.122-.383l-.028-.059.065-.002h.02c.058 0 .223.005.37.076.02-.068.06-.184.114-.27a.235.235 0 0 1 .102-.1l.04-.016.016.039s.157.364.25.628c.032.089.056.164.065.218l.005.026-.022.016-.008.006-.023.017c-.02.015-.046.037-.075.063a.754.754 0 0 0-.161.195l-.027.052-.041-.04Z" clip-rule="evenodd"/><path fill="#1E8274" fill-rule="evenodd" d="M41.945 61.894a.372.372 0 0 1 .039-.092c.024-.044.056-.088.087-.13.04-.052.08-.098.103-.123a23.419 23.419 0 0 0-.277-.484.66.66 0 0 0-.102.324v.075l-.06-.026a.87.87 0 0 0-.301-.064l.043.077a6.143 6.143 0 0 1 .18.385c.13.003.226.031.288.058Zm.03.113-.014-.01a.582.582 0 0 0-.065-.03.745.745 0 0 0-.268-.046h-.029l-.01-.026-.06-.139a4.053 4.053 0 0 0-.128-.264.854.854 0 0 0-.081-.13l-.051-.062.08-.01s.024-.002.062-.002c.066 0 .179.008.302.05a.74.74 0 0 1 .016-.093.617.617 0 0 1 .143-.286l.039-.042.03.05s.22.377.323.568l.015.027-.021.023-.022.023a1.253 1.253 0 0 0-.177.235.218.218 0 0 0-.032.088l.001.008.004.002-.05.07-.007-.004Z" clip-rule="evenodd"/><path fill="#1E8274" fill-rule="evenodd" d="M41.512 61.056a.553.553 0 0 1 .091-.246.98.98 0 0 1 .067-.093l-.3-.401a.594.594 0 0 0-.065.143 1.31 1.31 0 0 0-.042.184l-.002.011-.007.051-.049-.015a.871.871 0 0 0-.236-.028c.054.062.108.138.154.207.046.068.084.129.103.16l.067-.001a.8.8 0 0 1 .22.028Zm.027.1h-.003l-.01-.005a.757.757 0 0 0-.319-.033l-.028.003-.014-.025-.032-.053a4.373 4.373 0 0 0-.081-.126 1.44 1.44 0 0 0-.212-.262l-.08-.068.105-.008s.04-.003.097-.003c.062 0 .145.004.222.02.011-.063.036-.177.08-.268a.304.304 0 0 1 .086-.113l.034-.025.397.532-.024.027-.007.007-.018.022c-.015.019-.035.046-.056.078a.452.452 0 0 0-.079.22.21.21 0 0 0 .003.035l.016.084-.077-.038Z" clip-rule="evenodd"/><path fill="#1E8274" fill-rule="evenodd" d="M41.04 60.379a.744.744 0 0 1 .052-.23c.015-.04.03-.075.04-.096a1.603 1.603 0 0 0-.092-.095 6.128 6.128 0 0 0-.167-.15l-.006-.006a.47.47 0 0 0-.012.114 1.047 1.047 0 0 0 .012.154l.009.05h-.051c-.095 0-.206.023-.278.04.072.074.16.172.198.216a.389.389 0 0 1 .12-.016c.064 0 .13.01.175.019Zm.038.096-.019-.005-.05-.01a.84.84 0 0 0-.145-.014.234.234 0 0 0-.11.02l-.03.016-.023-.026-.1-.112a3.44 3.44 0 0 0-.167-.176l-.055-.05.072-.023c.002 0 .166-.05.324-.06a1.242 1.242 0 0 1-.006-.119c0-.073.006-.151.049-.21l.027-.036.034.03s.06.05.13.113c.07.062.147.133.186.181.012.015.02.025.027.044l.005.016-.008.016s0 .003-.004.008l-.01.023a1.22 1.22 0 0 0-.032.079.634.634 0 0 0-.046.203c0 .015.001.03.004.04l.017.07-.07-.018Z" clip-rule="evenodd"/><path fill="#1E8274" fill-rule="evenodd" d="M40.041 59.697c.035.027.075.06.113.092l.123.103c.099-.04.222-.046.293-.047a.603.603 0 0 1-.006-.091c0-.089.013-.18.02-.224a142.266 142.266 0 0 1-.26-.201c0 .067.02.169.03.213l.006.024.013.053h-.055c-.036 0-.1.013-.162.03a2.796 2.796 0 0 0-.128.038l.013.01Zm.2.278-.088-.075a6.244 6.244 0 0 0-.165-.135.831.831 0 0 0-.075-.055l-.079-.046.086-.032s.067-.024.15-.048c.063-.02.135-.039.195-.047a1.164 1.164 0 0 1-.027-.208c.001-.038.002-.07.023-.102l.027-.036.035.027.334.26.02.015-.004.027-.003.02a1.327 1.327 0 0 0-.019.214c0 .048.005.094.015.12l.023.061-.066-.003h-.035a.772.772 0 0 0-.3.05l-.025.012-.022-.019Z" clip-rule="evenodd"/><path fill="#1E8274" fill-rule="evenodd" d="M39.722 59.462a.397.397 0 0 1 .075-.038.952.952 0 0 1 .13-.039c.044-.01.085-.017.115-.023l-.006-.03a1.736 1.736 0 0 1-.014-.109l-.01-.117-.36-.204a2.893 2.893 0 0 0 .054.23l.011.038.016.052-.054.003a.45.45 0 0 0-.11.034 1.25 1.25 0 0 0-.088.038l.24.165Zm-.41-.177.064-.033c.001 0 .113-.058.208-.091l.037-.012a2.258 2.258 0 0 1-.023-.086 1.041 1.041 0 0 1-.037-.213c0-.01 0-.021.003-.033l.013-.057.498.283.02.011.002.024a3.612 3.612 0 0 0 .024.241c.005.03.012.056.015.06l.027.054-.061.008-.027.004a1.153 1.153 0 0 0-.247.06.19.19 0 0 0-.07.04l-.026.03-.42-.29Z" clip-rule="evenodd"/><path fill="#1E8274" fill-rule="evenodd" d="M39.169 59.108c.017-.01.036-.019.058-.028a.96.96 0 0 1 .11-.032l.06-.013-.015-.03a.62.62 0 0 1-.036-.14 1.35 1.35 0 0 1-.014-.154l-.237-.096c.005.02.011.04.019.06.017.053.038.106.052.14l.016.037.024.055-.06.006a.429.429 0 0 0-.142.05l-.049.027.214.118ZM38.794 59l.053-.04s.04-.03.095-.06a.64.64 0 0 1 .14-.061 1.745 1.745 0 0 1-.067-.191.391.391 0 0 1-.018-.1v-.064l.42.17v.028a.797.797 0 0 0 .004.085c.004.05.012.113.027.165.01.034.023.063.035.078a.044.044 0 0 0 .019.014l-.008.084s-.008 0-.022.003l-.055.01c-.044.008-.1.02-.143.035a.221.221 0 0 0-.064.031l-.023.031-.393-.218ZM30.081 59.749a.54.54 0 0 0-.512-.267c-.15.016-.204.096-.227.15a2.185 2.185 0 0 0-.117.361c-.02.114-.067.295-.08.372-.014.077.003.087.056.11.054.024.128-.044.138-.077.01-.033.047-.455.06-.482.013-.026.03-.21.194-.22.164-.01.404.214.408.558.003.345-.094.482-.094.482-.07-.268-.19-.519-.197-.535-.007-.017-.017-.13-.107-.13s-.194.116-.194.116c-.02.01.003.037.04.05.054.02.21.231.26.315.05.084.118.221.102.284-.017.064.056.161.133.154.077-.007.124-.25.124-.307 0-.057.12-.252.143-.409.024-.157 0-.304-.13-.525Zm-.538.95c.096.057.127.023.16-.006.034-.03-.01-.087-.056-.127-.048-.04-.084-.084-.141-.084-.057 0-.094.05-.094.05-.02.024.034.11.13.167Zm.153.354c-.077 0-.157-.04-.266-.139-.11-.098-.186-.13-.263-.134-.077-.004-.139.098-.139.098-.025-.004.019.099.139.211.12.114.223.176.375.183.154.007.212-.047.252-.091.04-.044-.022-.128-.098-.128ZM32.857 58.328c-.043-.119-.1-.187-.216-.331a9.956 9.956 0 0 1-.485-.669c-.13-.2-.274-.41-.274-.449 0-.039-.06-.172-.186-.14 0 0-.061.047-.08.126-.017.079.022.118.08.144.057.025.158.215.197.273.04.058.302.475.432.622.129.147.463.604.481.646.018.044.094-.103.05-.222Zm-1.176-.877c-.108-.155-.118-.234-.194-.234h-.097s-.068.022-.064.126c.003.104.06.18.168.33.108.152.212.324.317.328.104.003.219-.022.172-.112-.046-.09-.194-.284-.302-.438Zm-.115.848c-.029-.032-.194-.425-.28-.607-.086-.184-.104-.162-.209-.162-.104 0-.215.047-.223.14-.007.093.04.09.04.09s.083.025.14.072c.058.046.216.356.245.438.028.083.01.111.118.19.108.08.202.026.234-.028s-.036-.1-.065-.133ZM34.618 57.063s.081-.265.189-.418c0 0-.008.059.07.057 0 0 .005.01-.014.032a2.935 2.935 0 0 0-.245.329Zm.138-.756c-.02-.002-.014-.048.005-.05 0 0 .043-.027.067-.027.024 0 .044.024.024.037-.018.014-.078.043-.096.04Zm-.006-.282c.017-.011.049-.008.06.008 0 0 .013.024-.011.043-.025.019-.049.043-.07.019-.022-.025.005-.06.021-.07Zm.062-.313c.035-.006.052.035.014.054-.038.018-.081.022-.081.022-.016-.047.032-.071.067-.076Zm-.148.445c-.019.035-.092.076-.106.05-.013-.023.014-.032-.013-.023-.026.008-.043.021-.051-.027-.008-.049-.013-.173.025-.167 0 0 .018.032.07.067.05.035.094.064.075.1Zm.401-.404c-.005-.041-.043-.052-.1-.05-.056.003-.04-.02-.04-.02.003-.063.114-.12.178-.108.065.01.097.107.097.207 0 .1-.116.275-.135.275-.018 0-.032-.03-.061-.043-.03-.014-.076-.011-.087-.017-.011-.005-.002-.032.011-.07.013-.037.043-.035.094-.072.052-.038.05-.062.043-.102Zm.195 1.34s.043-.025.064-.068c.022-.044.017-.09-.04-.084-.057.006-.132.089-.132.089-.003.01-.076-.089-.133-.037-.056.05.038.188.052.199.013.01 0 .024-.021.054-.022.03-.106.137-.133.118-.027-.019.017-.296.022-.325.005-.03.019-.076.057-.095.037-.019.186-.095.242-.132.056-.038.076-.046.1-.105.024-.06-.044-.057-.13-.02-.086.038-.371.2-.371.2s.228-.253.25-.285c.022-.033-.01-.063-.032-.063s-.036.014-.065.02c-.03.005-.151.02-.151.02s.073-.115.135-.196c.062-.08.06-.089.043-.113-.016-.025-.092-.03-.092-.03l.003-.03c.033.006.267-.01.345-.318.078-.307.035-.396-.089-.453-.124-.056-.237.012-.237.012s0-.06-.013-.122c-.014-.062-.1-.073-.117-.068-.016.006-.002.232-.002.232-.014.003-.116.07-.116.07-.019-.091-.043-.129-.073-.148-.03-.018-.086-.008-.094.014-.009.022.048.172.046.183-.003.011-.097.062-.127.105s-.016.098.038.124c.054.027.113-.024.113-.024-.008.005.016.075.016.075-.057-.019-.086.057-.1.057-.013 0-.008-.043-.035-.07-.027-.027-.107-.035-.153-.01-.046.023-.054.24-.049.342.005.102.124.148.154.145.03-.003.046-.075.046-.075s.024.048.048.072c.024.025.062-.002.083-.018.022-.016.033-.016.041-.016s-.003.034-.003.034-.094.062-.129.095c-.035.032-.038.05.005.089.043.037.11.019.149.019.037 0 .127-.111.127-.111s-.087.121-.222.448c-.134.326-.17.44-.17.504 0 .065.027.075.063.008.034-.068.185-.315.185-.315s-.005.027.025.03c.03.002.143-.081.143-.081-.033.083-.06.344-.06.407 0 .062.035.11.065.113.03.002.06-.03.119-.103s.21-.218.21-.218c.014.005.065.065.132.097s.14-.016.27-.019c.129-.003.21-.011.215-.016-.167-.017-.517-.207-.517-.207ZM38.511 56.16c-.043.007-.121 0-.178 0-.056 0-.065-.02-.043-.027 0 0 .145-.065.407-.063.003.003-.146.057-.186.09Zm-.513.716c-.045.003-.107.014-.091-.008.016-.021.157-.056.157-.056.03.002-.02.062-.066.064Zm1.23-.87c-.006-.073-.043-.098-.2-.103-.156-.005-.471.043-.49.043-.019 0 .156-.094.216-.118.059-.024.043-.022.072-.01.03.01.052-.012.074-.034.02-.021.029-.059.01-.075a.428.428 0 0 1-.089-.116.124.124 0 0 0-.119-.075c-.056 0-.053.097-.067.135-.014.038-.062.083-.078.083-.017 0 .008-.043.021-.08.014-.038-.01-.084-.048-.122-.038-.038-.092-.089-.146-.075-.054.013-.056.08-.064.14-.008.059-.022.083-.05.094-.026.01-.093.048-.093.048s.002-.04.008-.056c.005-.016-.008-.065-.065-.065-.056 0-.091.052-.11.14-.02.09.008.138.056.14.049.003.043-.029.09-.072.045-.044.09-.04.101-.044-.021.144.07.168.07.168-.126.065-.463.14-.539.14-.075 0-.083-.016-.083-.016s-.032.03-.087.057c-.053.026-.056.124.06.124.116 0 .302-.06.417-.095.117-.035.152-.03.127-.003-.024.028-.07.033-.091.084-.022.051.035.084.075.084.04 0-.056.042-.107.064-.052.022-.035.005-.09.024-.097.06-.089.111-.053.138.035.027.094.008.159-.013.064-.022.067-.003.067.013s-.032.024-.105.067c-.073.044-.062.092-.04.095.021.003.035.003.005.019-.353.159-.313.186-.297.218.016.032.246.003.246.003-.033.043-.06.142-.06.142-.086.004-.218.025-.242.025-.025 0-.035-.078-.025-.089-.12.062-.14.167-.078.186.062.019.25-.04.305-.056.054-.017.035-.009.016.02-.019.03-.024.09-.024.09-.022.008-.081-.022-.081-.022s.022.032.065.068c.043.035.021.089.097.124.075.035.091-.046.105-.103.013-.057.043-.156.043-.156a.2.2 0 0 1 .13.043c.018.016-.046.054-.046.054s.01.005.096 0c.087-.006.03.056.113.04.084-.016.063-.107.017-.161-.046-.055-.264-.057-.272-.057-.008 0 .021-.086.064-.143a.171.171 0 0 1 .144-.073c.053-.002.08-.024.08-.067 0-.044-.116-.022-.135-.03-.019-.008-.016-.032.033-.05.048-.02.068-.025.065-.071-.003-.046-.084-.057-.106-.086-.021-.03.046-.033.127-.033s.143-.035.143-.072c0-.038-.04-.076-.108-.076-.067 0-.156.043-.224.043-.067 0-.091-.005-.094-.008-.003-.002.337-.154.374-.175.038-.021 0-.051.038-.067.038-.017.24-.114.275-.119.035-.006.114.002.197.002.084 0 .21 0 .205-.072ZM41.411 58.338c-.026-.068-.096-.068-.096-.068-.03.01-.081.057-.097.18-.017.125.016.365.043.475.027.111.088.114.145.108.057-.005.076.032.119.044.043.01.075-.124.08-.235.006-.11-.12-.291-.142-.343-.022-.051-.024-.094-.052-.161Zm.47-.44c.091.014.175-.07.242-.118a.182.182 0 0 0 .068-.2c-.019-.072-.076-.164-.173-.143-.097.022-.102.124-.159.208-.121.127-.216.167-.27.172-.053.006-.266-.123-.266-.123-.019-.006-.054.072-.09.18-.034.108.06.151.06.151-.27.223-1.092.173-1.121.186.045.057.353.153.725.143.372-.011.45-.146.539-.17.089-.024.078-.008.173-.005.094.002.347.11.366.115.019.006.027-.051.076-.088.048-.038.097-.065.097-.068 0-.107-.294-.234-.268-.24ZM42.989 59.939c.067-.003.127-.03.113-.038-.067-.08.049-.097.049-.097-.022-.021-.108-.04-.14-.038-.033.003-.146.049-.143.095.002.046.053.081.12.078Zm1.498-.087c-.032-.016-.056.016-.117.043-.061.027-.072.034-.104.023-.032-.01-.076-.06-.076-.06-.081-.002-.069.081-.058.105.01.025-.014.046-.067.033-.054-.014-.106-.03-.135-.006-.03.024-.019.092.002.105.022.014-.048.022-.091.04-.044.02-.054.052-.033.076a.143.143 0 0 1 .035.097c-.002.033-.089.024-.191-.034-.102-.06-.308-.27-.364-.324-.057-.054-.086-.078-.127-.043-.04.035-.002.083.049.121.051.038.404.348.485.456.08.107.003.094-.084.072a.895.895 0 0 1-.212-.086c-.044-.024-.055-.132-.098-.175-.043-.043-.064-.016-.064.01 0 .027.018.068-.027.068-.046 0-.1.017-.137.054-.038.038-.07.1-.111.108-.04.008-.148-.183-.203-.278-.053-.094-.096-.113-.14-.073-.042.04.011.138.057.194.046.057.124.173.15.233-.018.064-.174.067-.263.031-.089-.034-.089-.118-.081-.185.008-.068.062-.09.043-.119-.019-.03-.127.035-.148.119-.022.083-.027.226.1.29a.515.515 0 0 0 .312.047c.054-.011.103-.065.111-.065.008 0 .1.143.148.21.049.068.116.073.146.027.029-.046-.138-.331-.138-.331.014 0 .1-.127.13-.138a.353.353 0 0 1 .126-.013c.052.003.175.113.286.202.11.089.191.13.237.105.046-.024.057-.067.051-.142-.005-.077-.152-.276-.152-.276.093.045.181.024.205.007.023-.015.029-.064.029-.12 0-.056.043-.07.075-.07s.117.1.145.111c.03.011-.005-.122-.007-.154-.002-.033.023-.022.092-.02.068.002.097.005.124-.011.027-.016-.002-.043-.005-.065-.004-.021.03-.025.068-.032.038-.007.068-.013.077-.056.01-.043-.018-.095-.05-.111Zm-.827.099c-.041.059.018.108.076.108.057 0 .098-.053.152-.081.054-.029.096-.05.148-.069.052-.018.088-.044.093-.086.006-.041-.036-.108-.036-.108-.032-.021-.05.002-.084.04a.52.52 0 0 1-.176.097c-.074.03-.132.04-.173.099Zm-.02-.077c.034-.006.018-.054.026-.08.006-.025.079-.055.125-.059a.231.231 0 0 0 .117-.032c.034-.024.04-.058.04-.058-.022-.108-.229-.07-.347-.02-.119.051-.14.097-.12.171.019.074.125.082.16.078ZM35.236 58.516v-.177c.081-.034.157-.078.228-.132h.182v.896h-.197V58.4a1.098 1.098 0 0 1-.212.116ZM36.061 58.48c0 .102.042.153.127.153.07 0 .109-.05.116-.152-.007-.105-.046-.159-.117-.162-.084.003-.126.057-.126.162Zm-.187.4h.197c.014.074.046.112.096.112.102 0 .147-.094.137-.284-.05.04-.11.06-.177.056-.162-.014-.252-.104-.268-.273.01-.186.116-.287.319-.304.215 0 .323.133.323.4.014.354-.096.53-.329.526-.199 0-.298-.077-.298-.233ZM37.027 58.657c0-.222-.039-.335-.116-.338-.081.003-.12.116-.116.338-.004.22.035.33.116.335.077-.004.116-.115.116-.335Zm.203 0c-.007.298-.115.45-.324.456-.202-.007-.305-.158-.309-.456.004-.306.107-.463.31-.47.208.007.316.164.323.47ZM37.761 58.82c-.004-.109-.044-.164-.121-.167-.075.006-.115.062-.122.166.003.112.044.17.122.173.074-.004.114-.061.121-.173Zm.177-.395h-.192a.195.195 0 0 0-.025-.086.134.134 0 0 0-.076-.02c-.085.003-.127.092-.127.268.037-.044.093-.066.167-.066.172.014.265.106.279.279a.34.34 0 0 1-.076.217.393.393 0 0 1-.258.096c-.213 0-.318-.127-.314-.38-.01-.367.108-.55.354-.546.175.01.265.09.268.238Z" clip-rule="evenodd"/><path fill="#1E8274" fill-rule="evenodd" d="M30.038 57.446A9.238 9.238 0 0 0 27.324 64a9.239 9.239 0 0 0 2.714 6.555 9.238 9.238 0 0 0 6.555 2.715 9.238 9.238 0 0 0 6.555-2.715A9.24 9.24 0 0 0 45.862 64a9.238 9.238 0 0 0-2.714-6.554 9.239 9.239 0 0 0-6.555-2.715 9.238 9.238 0 0 0-6.555 2.715ZM27 64a9.593 9.593 0 0 1 9.593-9.593c5.298 0 9.593 4.295 9.593 9.593A9.593 9.593 0 1 1 27 64Z" clip-rule="evenodd"/><path fill="#1E8274" fill-rule="evenodd" d="m29.165 63.035-.006.053-.326.04-.011-.07a.536.536 0 0 0 .221-.135.349.349 0 0 0 .096-.199.254.254 0 0 0-.027-.162.136.136 0 0 0-.104-.075.128.128 0 0 0-.108.038.483.483 0 0 0-.093.152l-.08.184a.513.513 0 0 1-.138.203.237.237 0 0 1-.181.05.274.274 0 0 1-.201-.137.42.42 0 0 1-.057-.284.427.427 0 0 1 .049-.16.566.566 0 0 1 .104-.131l-.093-.045.006-.052.377-.023.005.07a.5.5 0 0 0-.254.134.362.362 0 0 0-.11.217.287.287 0 0 0 .034.182c.03.055.072.086.123.092a.142.142 0 0 0 .121-.038.5.5 0 0 0 .095-.16l.076-.176a.491.491 0 0 1 .134-.2.227.227 0 0 1 .175-.048c.074.01.133.05.178.125a.393.393 0 0 1 .05.263.397.397 0 0 1-.122.252l.067.04ZM29.15 63.252l-.019.392-.062-.003.001-.03c.002-.037-.005-.063-.02-.078-.014-.015-.05-.024-.105-.026l-.663-.032c-.043-.001-.073.003-.09.013-.016.01-.025.037-.027.08l-.002.03-.062-.002.02-.393.06.003v.031c-.002.038.003.064.015.078.013.014.043.022.091.025l.68.031c.045.002.076-.001.092-.012.016-.01.025-.037.027-.08l.001-.03.063.003ZM29.145 64.518l.001.053-.34.104-.022-.067a.577.577 0 0 0 .223-.153.31.31 0 0 0 .068-.215.334.334 0 0 0-.133-.261.477.477 0 0 0-.322-.096.475.475 0 0 0-.323.123.352.352 0 0 0-.118.28.412.412 0 0 0 .062.198c.04.068.093.125.163.175l-.038.06a.611.611 0 0 1-.204-.204.53.53 0 0 1-.075-.261.517.517 0 0 1 .514-.531.545.545 0 0 1 .473.246.5.5 0 0 1 .08.256.459.459 0 0 1-.079.271l.07.022ZM29.148 64.698l.058.394-.061.009-.004-.027c-.006-.043-.017-.07-.031-.08-.014-.011-.045-.013-.092-.006l-.285.042.078.528.277-.04c.048-.007.078-.016.092-.028.013-.012.017-.037.01-.076l-.005-.04.061-.01.058.39-.061.009-.006-.035c-.004-.033-.014-.056-.027-.068-.012-.01-.042-.013-.088-.007l-.695.103a.23.23 0 0 0-.068.017c-.012.006-.019.018-.02.035a.458.458 0 0 0 .006.087l-.061.01-.058-.39.062-.01.004.03c.005.032.01.055.016.067a.04.04 0 0 0 .032.02.37.37 0 0 0 .076-.005l.316-.047-.078-.528-.325.048c-.054.008-.083.019-.088.034a.38.38 0 0 0 .006.11l-.06.008-.059-.394.062-.009.003.026c.006.041.015.067.026.08.012.012.039.014.082.008l.703-.103c.041-.007.068-.016.08-.03.01-.013.013-.037.009-.07l-.007-.043.062-.008Z" clip-rule="evenodd"/><path fill="#1E8274" fill-rule="evenodd" d="m29.303 65.746.11.382-.06.017-.006-.024c-.012-.042-.027-.066-.045-.074-.017-.009-.046-.007-.086.004l-.446.13a.396.396 0 0 0-.177.089.249.249 0 0 0-.063.127.304.304 0 0 0 .086.281.28.28 0 0 0 .125.077.406.406 0 0 0 .202-.021l.427-.123c.039-.012.065-.026.078-.044.014-.017.015-.045.003-.084l-.007-.028.06-.017.095.332-.06.017-.006-.023c-.01-.038-.026-.062-.044-.07-.018-.01-.046-.01-.086.002l-.457.132a.387.387 0 0 1-.32-.027.413.413 0 0 1-.183-.251.451.451 0 0 1 .012-.293c.037-.096.116-.162.237-.197l.486-.14c.04-.013.066-.026.076-.041.01-.016.01-.043 0-.08l-.012-.036.06-.017ZM29.175 67.233l.125.294.394-.342-.52.048Zm.63-.126.048.11-.716.654a.257.257 0 0 0-.058.072.09.09 0 0 0 .003.073l.007.016-.058.024-.144-.339.057-.024c.017.038.03.062.04.072.011.01.024.011.039.005a.31.31 0 0 0 .065-.049l.156-.14-.147-.344-.235.014a.172.172 0 0 0-.052.01c-.016.006-.024.017-.025.032 0 .015.007.041.023.08l-.057.024-.12-.284.056-.025c.015.036.033.058.052.067.02.01.055.013.106.01l.96-.058ZM29.957 67.605l.158.275-.438.791.51-.292c.041-.024.066-.047.072-.07.007-.022.002-.049-.016-.08l-.013-.023.054-.03.171.299-.054.03-.01-.016c-.02-.036-.042-.056-.065-.06-.023-.005-.054.004-.094.027l-.734.42-.045-.077.525-.953-.64.367c-.043.025-.07.047-.079.067-.01.021.001.058.031.11l-.053.031-.174-.304.054-.03.009.016c.024.041.046.064.068.067.021.002.055-.009.1-.035l.567-.325a.366.366 0 0 0 .068-.045.045.045 0 0 0 .016-.04.204.204 0 0 0-.028-.065l-.014-.024.054-.031ZM30.498 69.475l.208.241.27-.447-.478.206Zm.56-.315.08.091-.48.843a.238.238 0 0 0-.032.086c-.003.024.005.047.024.069l.011.011-.046.042-.242-.277.047-.042c.027.032.047.05.06.056a.033.033 0 0 0 .038-.006.312.312 0 0 0 .047-.067l.105-.182-.245-.282-.22.087a.167.167 0 0 0-.047.024c-.013.011-.017.025-.013.039.004.015.02.037.047.069l-.047.041-.203-.233.047-.041c.025.028.048.044.07.048a.25.25 0 0 0 .103-.024l.896-.352ZM31.957 70.115l.04.036-.144.295-.065-.027a.555.555 0 0 0 .028-.255.33.33 0 0 0-.39-.26.471.471 0 0 0-.288.165.536.536 0 0 0-.116.216.395.395 0 0 0 0 .222.36.36 0 0 0 .205.228.283.283 0 0 0 .102.023c.034.001.06-.003.08-.013a.26.26 0 0 0 .069-.06l.032-.037c.036-.042.052-.074.048-.097-.004-.023-.031-.056-.083-.101l.041-.047.315.275-.04.047-.026-.022c-.03-.026-.053-.037-.07-.034-.017.004-.04.02-.067.053l-.235.269-.054-.048.03-.094a.574.574 0 0 1-.322-.136.496.496 0 0 1-.178-.353.523.523 0 0 1 .142-.386.523.523 0 0 1 .362-.187.483.483 0 0 1 .52.362l.064-.034ZM32.421 70.55l-.205.33.18.111c.084.053.153.079.207.076.055-.001.1-.032.14-.094.033-.054.043-.105.026-.151-.015-.046-.056-.09-.122-.13l-.226-.142Zm-.186-.21.452.282c.22.137.285.28.193.427a.243.243 0 0 1-.184.124.446.446 0 0 1-.27-.079l.055.427c.006.046.015.08.027.105a.149.149 0 0 0 .06.063l.015.01-.033.052-.2-.124-.06-.617-.112-.07-.168.27c-.025.04-.037.068-.035.085.002.017.022.038.06.062l.023.015-.032.052-.337-.21.033-.052.03.02c.033.02.059.028.076.022.018-.003.043-.032.075-.083l.358-.574c.019-.031.028-.056.025-.075-.002-.02-.018-.038-.048-.057l-.036-.023.033-.052ZM33.07 70.843l.353.174-.027.055-.028-.013c-.033-.016-.059-.02-.079-.013-.02.008-.042.037-.066.086l-.294.596c-.019.038-.027.067-.024.086.002.02.024.04.063.058l.027.014-.028.056-.353-.175.028-.055.028.014c.034.016.06.022.078.016.018-.006.037-.03.059-.074l.3-.61c.02-.04.029-.07.026-.09-.003-.018-.024-.036-.062-.056l-.028-.014.028-.055ZM34.292 71.356l.05.019-.03.355-.07-.005a.588.588 0 0 0-.06-.264.313.313 0 0 0-.174-.144.333.333 0 0 0-.292.028.473.473 0 0 0-.208.262.474.474 0 0 0-.007.346.354.354 0 0 0 .216.214.413.413 0 0 0 .208.016.572.572 0 0 0 .222-.086l.042.057a.609.609 0 0 1-.264.114.55.55 0 0 1-.271-.027.494.494 0 0 1-.293-.27.523.523 0 0 1-.01-.405.54.54 0 0 1 .405-.348.51.51 0 0 1 .268.021.456.456 0 0 1 .222.173l.046-.056ZM34.436 71.41l.389.088-.014.06-.026-.004c-.041-.01-.07-.01-.086.003-.016.01-.028.037-.037.077l-.102.454a.392.392 0 0 0-.007.197.244.244 0 0 0 .08.117.32.32 0 0 0 .131.066c.051.01.103.009.157-.006a.273.273 0 0 0 .128-.072.409.409 0 0 0 .08-.187l.097-.433c.009-.04.009-.07 0-.09-.009-.02-.033-.035-.073-.044l-.027-.005.013-.061.337.076-.014.06-.024-.005c-.038-.008-.066-.007-.083.003-.017.012-.03.038-.039.078l-.105.464a.387.387 0 0 1-.177.267.415.415 0 0 1-.309.039.45.45 0 0 1-.25-.152c-.067-.08-.086-.18-.059-.303l.112-.493c.009-.041.01-.07 0-.087-.008-.016-.031-.029-.069-.037l-.036-.008.013-.061ZM35.524 71.645l.397.045-.007.062-.036-.004a.141.141 0 0 0-.074.006c-.016.008-.026.031-.03.07l-.083.715c-.005.04-.004.064.003.072.007.009.03.015.07.02l.054.006a.352.352 0 0 0 .223-.036.526.526 0 0 0 .166-.187l.062.03-.151.306-.712-.08.008-.063.03.003c.04.005.067.002.081-.007.015-.01.024-.038.03-.08l.08-.697c.004-.041.002-.07-.006-.086-.01-.015-.036-.025-.08-.03l-.032-.004.007-.061ZM36.388 71.703l.05.002.008.035.59.019.008-.035.055.002.098.306-.068.022a.447.447 0 0 0-.095-.172c-.036-.035-.089-.054-.16-.056-.03 0-.049.002-.056.008-.007.007-.011.025-.012.056l-.023.715c-.002.052.007.085.026.097.02.013.053.02.102.022l-.002.062-.398-.013.002-.062c.04.002.07 0 .087-.005.018-.005.03-.015.035-.028a.228.228 0 0 0 .01-.071l.023-.731c.001-.025-.002-.04-.006-.047-.006-.007-.02-.01-.045-.011-.081-.003-.14.013-.175.047a.523.523 0 0 0-.104.164l-.066-.027.116-.299ZM37.2 71.768l.391-.073.011.06-.025.006c-.043.008-.068.02-.078.036-.01.017-.011.045-.003.086l.085.457c.017.087.04.149.072.185a.25.25 0 0 0 .121.075.31.31 0 0 0 .376-.176.404.404 0 0 0-.001-.202l-.082-.438c-.007-.04-.02-.067-.035-.082-.016-.015-.045-.018-.084-.012l-.029.006-.011-.06.34-.065.01.062-.023.005c-.038.006-.063.018-.075.035-.011.017-.013.046-.006.087l.088.466c.024.128.005.234-.057.316a.413.413 0 0 1-.269.159.45.45 0 0 1-.289-.04c-.093-.047-.15-.131-.174-.255l-.093-.497c-.008-.042-.02-.068-.033-.08-.015-.012-.04-.014-.078-.007l-.038.007-.011-.06ZM38.572 71.542l.124.367.201-.068a.394.394 0 0 0 .19-.112c.034-.043.04-.099.016-.167-.02-.06-.053-.1-.099-.117-.046-.017-.106-.013-.18.012l-.252.085Zm-.28.01.504-.17c.247-.084.398-.043.454.121a.244.244 0 0 1-.022.222.44.44 0 0 1-.232.158l.365.228a.36.36 0 0 0 .098.046.146.146 0 0 0 .086-.006l.017-.006.02.06-.222.075-.516-.346-.125.042.102.302c.015.045.03.072.044.082.014.01.043.006.086-.008l.026-.01.02.06-.376.127-.02-.059.035-.012c.036-.012.058-.026.066-.042.008-.017.002-.054-.018-.112l-.216-.64c-.012-.035-.026-.057-.042-.068-.017-.01-.04-.01-.074.001l-.04.014-.02-.06Z" clip-rule="evenodd"/><path fill="#1E8274" fill-rule="evenodd" d="m39.688 71.652.29-.135-.355-.382.066.517Zm-.147-.626.11-.051.676.694a.25.25 0 0 0 .074.055.089.089 0 0 0 .073-.005l.015-.007.027.056-.334.156-.026-.057a.242.242 0 0 0 .07-.043c.01-.01.01-.023.004-.038a.259.259 0 0 0-.05-.063l-.147-.151-.339.158.023.235c.002.023.006.04.01.052.008.015.019.023.035.023a.243.243 0 0 0 .078-.026l.027.057-.28.13-.027-.056c.035-.017.057-.035.065-.054a.23.23 0 0 0 .006-.106l-.09-.959ZM40.05 70.842l.344-.204.031.053-.03.02a.143.143 0 0 0-.056.048c-.008.016-.002.041.018.075l.368.618c.02.035.036.053.046.056.011.003.033-.006.068-.028l.047-.027a.354.354 0 0 0 .156-.164.526.526 0 0 0 .017-.25l.068-.013.066.336-.615.366-.032-.053.028-.016c.033-.02.053-.039.058-.055.005-.017-.003-.044-.025-.081l-.36-.603c-.02-.037-.04-.058-.056-.064-.016-.007-.043 0-.082.023l-.027.017-.032-.054ZM41.309 70.026l.293-.27.042.045-.02.019c-.031.03-.047.053-.046.072 0 .02.015.044.043.075l.315.342a.4.4 0 0 0 .159.118.254.254 0 0 0 .142 0 .323.323 0 0 0 .128-.07.326.326 0 0 0 .098-.278.4.4 0 0 0-.109-.172l-.302-.327c-.027-.03-.051-.047-.073-.05-.022-.006-.048.006-.077.034l-.022.02-.041-.046.253-.234.042.046-.017.016c-.03.026-.044.05-.045.07 0 .02.014.046.042.076l.322.35a.387.387 0 0 1 .12.298.414.414 0 0 1-.144.276.454.454 0 0 1-.267.12c-.102.01-.197-.031-.282-.124l-.343-.372c-.029-.03-.052-.047-.07-.05-.02-.002-.043.01-.07.036l-.029.026-.042-.046Z" clip-rule="evenodd"/><path fill="#1E8274" fill-rule="evenodd" d="m42.078 69.316.2-.245.896.128-.455-.373c-.037-.03-.067-.045-.09-.043-.024.001-.047.016-.07.045l-.016.02-.049-.04.22-.267.047.04-.012.015c-.027.032-.038.059-.034.082.005.023.024.05.06.079l.655.536-.057.07-1.078-.152.57.467c.04.032.07.05.093.05.022.001.052-.022.09-.068l.049.04-.222.27-.048-.04.012-.014c.03-.037.043-.066.038-.087-.005-.022-.027-.048-.068-.082l-.506-.415a.487.487 0 0 0-.066-.047.044.044 0 0 0-.042 0 .205.205 0 0 0-.052.05l-.017.02-.048-.04ZM42.706 68.524l.218-.328.051.034-.016.026c-.02.03-.028.057-.023.077.005.02.03.046.077.076l.554.367c.035.024.063.036.082.035.02 0 .042-.018.066-.055l.016-.025.052.035-.217.327-.052-.034.018-.026c.02-.032.029-.056.026-.075-.004-.018-.026-.042-.066-.068l-.567-.375c-.038-.025-.066-.038-.085-.037-.02 0-.04.019-.065.054l-.017.026-.052-.034ZM42.96 68.17l.173-.335.055.028-.014.027a.144.144 0 0 0-.02.06c0 .012.006.022.018.028a.184.184 0 0 0 .06.015l.775.092-.523-.58a.153.153 0 0 0-.044-.04.033.033 0 0 0-.036.001.13.13 0 0 0-.036.048l-.015.03-.055-.03.146-.283.055.028c-.017.033-.023.06-.019.08.004.02.02.047.048.078l.63.72-.048.093-.95-.1a.213.213 0 0 0-.09.007c-.02.008-.038.028-.055.062l-.055-.029Z" clip-rule="evenodd"/><path fill="#1E8274" fill-rule="evenodd" d="m43.439 67.234.254-.799.288-.01.004.07a.326.326 0 0 0-.192.057c-.045.036-.085.107-.12.214l-.075.237.36.116.038-.119c.018-.054.018-.098 0-.13-.018-.033-.056-.06-.114-.078l-.017-.005.022-.067.431.137-.021.068-.038-.012c-.05-.016-.091-.018-.12-.004-.03.015-.056.053-.075.113l-.038.118.32.103c.038.011.062.014.073.009.01-.005.022-.026.033-.062l.047-.147a.467.467 0 0 0 .02-.264.436.436 0 0 0-.15-.211l.044-.057.272.207-.264.83-.06-.02.01-.026c.012-.042.014-.07.004-.087-.01-.016-.034-.03-.07-.041l-.677-.216a.178.178 0 0 0-.06-.011c-.013.001-.025.01-.035.024a.313.313 0 0 0-.035.082l-.06-.019ZM43.857 66.064l.38.072.04-.208a.4.4 0 0 0-.005-.221c-.021-.05-.067-.082-.138-.096-.063-.012-.114-.002-.15.03-.038.031-.064.085-.078.162l-.05.261Zm-.129.25.099-.524c.047-.255.157-.368.328-.335a.245.245 0 0 1 .182.127.442.442 0 0 1 .024.28l.378-.206a.36.36 0 0 0 .088-.064.149.149 0 0 0 .037-.078l.003-.018.062.012-.044.23-.553.281-.025.13.313.059c.046.008.077.009.093.001.015-.008.027-.034.035-.079l.006-.026.06.01-.073.39-.06-.011.006-.035c.007-.038.005-.064-.005-.079s-.046-.028-.105-.039l-.665-.125c-.036-.007-.062-.005-.08.004-.017.009-.028.03-.035.065l-.008.042-.06-.012ZM43.964 64.653l.005-.053.323-.052.014.07a.53.53 0 0 0-.216.142.346.346 0 0 0-.088.203.254.254 0 0 0 .032.16.137.137 0 0 0 .107.072c.04.004.076-.01.106-.042a.477.477 0 0 0 .089-.155l.072-.187a.5.5 0 0 1 .13-.208.234.234 0 0 1 .18-.056c.083.007.152.05.206.129a.417.417 0 0 1 .067.282.441.441 0 0 1-.142.296l.095.041-.004.052-.376.037-.007-.07a.505.505 0 0 0 .247-.142.367.367 0 0 0 .104-.221.285.285 0 0 0-.041-.181c-.034-.054-.076-.083-.128-.087a.139.139 0 0 0-.119.043.497.497 0 0 0-.09.162l-.068.18a.497.497 0 0 1-.127.203.227.227 0 0 1-.173.055.238.238 0 0 1-.182-.118.395.395 0 0 1-.06-.261.395.395 0 0 1 .112-.256l-.068-.038ZM43.975 64.349l.003-.394h.062v.031c0 .037.007.063.023.077.015.015.05.022.106.022l.665.005c.042 0 .072-.005.088-.016s.024-.038.025-.081v-.031h.062l-.003.394h-.062v-.032c0-.038-.006-.063-.019-.077-.013-.013-.043-.02-.092-.02l-.68-.006c-.045 0-.076.006-.091.017-.016.01-.024.037-.025.08v.032l-.062-.001ZM43.945 63.826l-.003-.05.034-.012-.038-.59-.035-.004-.003-.054.295-.127.028.065a.442.442 0 0 0-.162.111c-.031.04-.044.094-.04.165.002.03.006.049.014.055.007.007.026.009.057.007l.713-.046c.052-.003.084-.015.095-.035.01-.02.014-.055.01-.104l.063-.004.026.398-.062.004a.327.327 0 0 0-.014-.087c-.007-.017-.017-.027-.032-.032a.231.231 0 0 0-.072-.002l-.729.046c-.024.002-.04.005-.046.011-.006.006-.008.021-.006.046.005.081.026.138.063.17a.523.523 0 0 0 .173.087l-.02.069-.309-.087ZM43.933 63.04l-.063-.382.06-.01.008.042c.006.041.02.06.038.057.013-.002.032-.013.056-.032l.335-.259-.417-.156c-.025-.01-.043-.013-.053-.01-.01 0-.015.006-.018.016a.16.16 0 0 0 .003.051l.007.038-.062.01-.052-.313.062-.011c.005.035.013.06.023.073.009.014.033.029.073.045l.504.2.257-.043c.052-.009.08-.023.087-.042a.262.262 0 0 0-.004-.105l.061-.01.066.397-.061.01-.005-.032c-.008-.041-.018-.066-.034-.076-.015-.01-.044-.01-.087-.003l-.23.038-.433.348c-.04.034-.06.058-.063.075a.276.276 0 0 0 .003.073l-.061.01ZM123.305 71.1v.083a.246.246 0 0 0-.077.011c-.025.008-.037.026-.037.057 0 .018.022.062.066.13.044.07.096.147.155.233l.186.268c.064.092.115.17.155.233l.535-.736.06-.087a.104.104 0 0 0 .023-.06c0-.02-.015-.034-.044-.04a.378.378 0 0 0-.08-.01V71.1h.801v.083a.31.31 0 0 0-.069.006.19.19 0 0 0-.067.032.421.421 0 0 0-.072.074 1.885 1.885 0 0 0-.095.13l-.777 1.102v.814c0 .055.035.083.106.083v.081h-.723v-.081a.11.11 0 0 0 .068-.021c.019-.014.028-.035.028-.062v-.814l-.883-1.235a.251.251 0 0 0-.098-.078.273.273 0 0 0-.112-.031V71.1h.951Zm-1.682 2.24c0 .056.033.084.1.084v.081h-.704v-.081c.021 0 .04-.007.057-.021.017-.014.025-.035.025-.062v-1.82h-.754a.154.154 0 0 0-.081.023c-.025.015-.038.044-.038.086h-.083v-.64h.083c0 .043.013.072.038.087a.156.156 0 0 0 .081.023h2.03a.155.155 0 0 0 .08-.023c.026-.015.039-.044.039-.087h.082v.64h-.082c0-.042-.013-.071-.039-.086a.153.153 0 0 0-.08-.023h-.754v1.82Zm-2.342.084c.079 0 .119-.028.119-.083v-2.076c0-.055-.04-.082-.119-.082V71.1h.758v.083c-.079 0-.118.027-.118.082v2.076c0 .055.039.083.118.083v.081h-.758v-.081Zm-2.401-.673.046.023c0 .028.005.052.018.073a.326.326 0 0 0 .125.108 1.3 1.3 0 0 0 .216.093c.081.028.165.05.253.067a1.28 1.28 0 0 0 .439.013c.083-.007.164-.023.243-.048a.673.673 0 0 0 .206-.1.2.2 0 0 0 .086-.17c0-.07-.026-.122-.079-.155a.587.587 0 0 0-.211-.073 2.36 2.36 0 0 0-.297-.03 8.55 8.55 0 0 1-.341-.02 3.095 3.095 0 0 1-.341-.046.937.937 0 0 1-.297-.108.582.582 0 0 1-.21-.206.636.636 0 0 1-.081-.34.64.64 0 0 1 .067-.28.673.673 0 0 1 .204-.242c.09-.07.207-.127.347-.17.141-.045.305-.068.494-.068a2.1 2.1 0 0 1 .421.037 3.07 3.07 0 0 1 .528.156c.06.024.109.037.149.037.042 0 .073-.01.091-.028l.055.036-.316.572-.045-.018a.272.272 0 0 0-.037-.105.404.404 0 0 0-.121-.108 1.097 1.097 0 0 0-.199-.094 1.647 1.647 0 0 0-.247-.066 1.449 1.449 0 0 0-.473-.009.987.987 0 0 0-.195.048.444.444 0 0 0-.144.084.17.17 0 0 0-.057.131c0 .073.027.128.08.164a.572.572 0 0 0 .211.083c.086.018.185.03.297.037.111.006.224.013.34.023.116.008.23.024.341.047a.98.98 0 0 1 .297.11c.087.05.157.118.211.204.053.085.08.196.08.334a.586.586 0 0 1-.126.388.883.883 0 0 1-.313.238c-.125.058-.26.096-.405.117a2.997 2.997 0 0 1-.841 0 1.621 1.621 0 0 1-.479-.151.27.27 0 0 0-.118-.034c-.022 0-.041.012-.06.036l-.064-.036.252-.554Zm-1.605-.58c.11 0 .201-.01.274-.026a.484.484 0 0 0 .174-.07.28.28 0 0 0 .092-.108.35.35 0 0 0 0-.27.277.277 0 0 0-.092-.108.489.489 0 0 0-.174-.07 1.268 1.268 0 0 0-.274-.026h-.791v.677h.791Zm.119-1.071c.146 0 .279.013.397.04a.897.897 0 0 1 .307.123c.085.056.151.13.196.22.046.09.069.2.069.33 0 .202-.059.356-.178.463a.962.962 0 0 1-.48.214l.608.87c.021.03.046.048.075.054.029.006.056.01.08.01v.081h-.855v-.081a.17.17 0 0 0 .071-.015c.02-.008.03-.02.03-.036a.106.106 0 0 0-.018-.053 1.143 1.143 0 0 0-.056-.08l-.502-.713h-.654v.814c0 .028.01.048.029.062.02.014.056.02.108.02v.082h-.791v-.081c.088 0 .132-.028.132-.083v-2.076c0-.055-.044-.082-.132-.082V71.1h1.564Zm-1.871.494a.084.084 0 0 0-.039-.076.265.265 0 0 0-.134-.025h-1.482v.567h.895a.328.328 0 0 0 .143-.025c.033-.016.05-.06.05-.13h.082v.713h-.082c0-.07-.017-.114-.05-.134a.284.284 0 0 0-.143-.03h-.895v.631h1.527c.046 0 .083-.01.112-.032a.101.101 0 0 0 .043-.087h.083v.627h-.083c0-.046-.014-.072-.043-.078a.527.527 0 0 0-.112-.01h-2.131v-.081a.086.086 0 0 0 .057-.021c.017-.014.025-.035.025-.062v-2.076c0-.028-.008-.048-.025-.062a.086.086 0 0 0-.057-.02V71.1h2.086c.063 0 .108-.01.134-.03a.096.096 0 0 0 .039-.08h.082v.604h-.082Zm-2.3-.411c-.061 0-.105.022-.132.066a.895.895 0 0 0-.06.107l-.81 1.78-.068.146a.22.22 0 0 0-.028.078c0 .014.004.027.011.036.009.01.019.018.031.028v.081h-.7v-.081a.065.065 0 0 0 .041-.064.3.3 0 0 0-.035-.095l-.084-.175-.823-1.788a.152.152 0 0 0-.064-.074.576.576 0 0 0-.119-.045V71.1h.819v.083a.13.13 0 0 0-.062.015c-.02.011-.03.032-.03.062 0 .034.013.076.039.128l.094.192.585 1.258.572-1.24c.036-.079.071-.15.103-.212a.359.359 0 0 0 .048-.13c0-.049-.043-.073-.128-.073V71.1h.8v.083Zm-3.631 2.24c.079 0 .118-.027.118-.082v-2.076c0-.055-.039-.082-.118-.082V71.1h.759v.083c-.079 0-.119.027-.119.082v2.076c0 .055.04.083.119.083v.081h-.759v-.081Zm-3.064 0c.057 0 .087-.027.087-.082v-2.076c0-.055-.03-.082-.087-.082V71.1h.782v.083c-.025 0-.037.014-.037.045 0 .025.031.068.092.128l1.312 1.363v-1.454c0-.055-.039-.082-.119-.082V71.1h.691v.083c-.058 0-.087.027-.087.082v2.076c0 .055.029.083.087.083v.081h-.741v-.081c.04 0 .059-.015.059-.042 0-.02-.024-.056-.073-.105l-1.395-1.454v1.518c0 .055.035.083.106.083v.081h-.677v-.081Zm-2.209-2.24c-.067 0-.101.027-.101.082v1.372c0 .192.062.324.186.395.123.072.304.108.541.108.238 0 .419-.036.542-.108.124-.071.186-.203.186-.395v-1.372c0-.055-.046-.082-.138-.082V71.1h.732v.083c-.073 0-.11.027-.11.082v1.349c0 .18-.026.329-.078.446a.638.638 0 0 1-.233.28.936.936 0 0 1-.386.143 3.417 3.417 0 0 1-.533.037c-.201 0-.379-.013-.533-.037a.936.936 0 0 1-.386-.142.638.638 0 0 1-.233-.281 1.103 1.103 0 0 1-.078-.446v-1.35c0-.054-.043-.081-.128-.081V71.1h.75v.083Zm-1.537 2.41c0-.046-.015-.072-.044-.078a.534.534 0 0 0-.112-.01h-2.178v-.081c.093 0 .138-.028.138-.083v-2.076c0-.055-.046-.082-.138-.082V71.1h.787v.083c-.085 0-.128.027-.128.082v1.82h1.519c.045 0 .083-.01.112-.032a.102.102 0 0 0 .044-.087h.081v.627h-.081Zm-3.398-1.02-.385-.851-.43.85h.815Zm-1.725.85a.136.136 0 0 0 .094-.06c.023-.033.045-.07.067-.114l.846-1.778c.02-.04.04-.076.056-.11a.198.198 0 0 0 .026-.087c0-.03-.011-.052-.032-.064a.27.27 0 0 0-.07-.027V71.1h.774v.083a.366.366 0 0 0-.064.024c-.022.011-.032.034-.032.067 0 .024.005.049.016.073.01.024.027.056.048.096l.951 1.862a.156.156 0 0 0 .062.072.94.94 0 0 0 .09.047v.081h-.805v-.081a.106.106 0 0 0 .045-.015c.018-.008.028-.022.028-.04 0-.03-.013-.07-.037-.12l-.174-.338h-1.116l-.164.325a.378.378 0 0 0-.046.137c0 .034.029.05.087.05v.082h-.65v-.081Zm-1.13-1.253c.11 0 .202-.008.275-.025a.48.48 0 0 0 .174-.07.272.272 0 0 0 .092-.108.336.336 0 0 0 .027-.135.334.334 0 0 0-.027-.135.269.269 0 0 0-.092-.108.486.486 0 0 0-.174-.07 1.274 1.274 0 0 0-.274-.026h-.791v.677h.79Zm.12-1.07c.146 0 .28.013.397.04.12.025.221.066.307.123.085.056.15.13.196.22.046.09.069.2.069.33 0 .202-.06.356-.178.463a.96.96 0 0 1-.48.214l.608.87c.022.03.046.048.075.054.03.006.056.01.08.01v.081h-.855v-.081a.17.17 0 0 0 .071-.015c.02-.008.03-.02.03-.036a.11.11 0 0 0-.018-.053 1.239 1.239 0 0 0-.056-.08l-.502-.713h-.654v.814c0 .028.01.048.03.062.02.014.055.02.107.02v.082h-.791v-.081c.088 0 .132-.028.132-.083v-2.076c0-.055-.044-.082-.132-.082V71.1h1.564Zm-3.723.083c-.067 0-.1.027-.1.082v1.372c0 .192.061.324.185.395.123.072.304.108.542.108.237 0 .418-.036.542-.108.123-.071.185-.203.185-.395v-1.372c0-.055-.046-.082-.138-.082V71.1h.732v.083c-.073 0-.11.027-.11.082v1.349c0 .18-.026.329-.077.446a.65.65 0 0 1-.234.28.94.94 0 0 1-.386.143 3.414 3.414 0 0 1-.533.037c-.201 0-.378-.013-.533-.037a.94.94 0 0 1-.386-.142.645.645 0 0 1-.233-.281 1.103 1.103 0 0 1-.078-.446v-1.35c0-.054-.043-.081-.128-.081V71.1h.75v.083Zm-1.733 2.158c0 .055.034.083.1.083v.081h-.704v-.081c.022 0 .04-.007.058-.021.016-.014.024-.035.024-.062v-1.82h-.754a.152.152 0 0 0-.08.023c-.026.015-.039.044-.039.086h-.082v-.64h.082c0 .043.013.072.039.087a.154.154 0 0 0 .08.023h2.03a.152.152 0 0 0 .08-.023c.026-.015.04-.044.04-.087h.082v.64h-.082c0-.042-.014-.071-.04-.086a.15.15 0 0 0-.08-.023h-.754v1.82Zm-1.368.252c0-.046-.014-.072-.043-.078a.528.528 0 0 0-.112-.01h-2.177v-.081c.092 0 .138-.028.138-.083v-2.076c0-.055-.046-.082-.138-.082V71.1h.787v.083c-.086 0-.128.027-.128.082v1.82h1.518c.046 0 .083-.01.112-.032a.102.102 0 0 0 .043-.087h.083v.627h-.083Zm-4.417-2.41c-.067 0-.1.027-.1.082v1.372c0 .192.06.324.185.395.123.072.304.108.541.108.238 0 .419-.036.542-.108.124-.071.186-.203.186-.395v-1.372c0-.055-.046-.082-.138-.082V71.1h.732v.083c-.073 0-.11.027-.11.082v1.349c0 .18-.026.329-.078.446a.648.648 0 0 1-.233.28.938.938 0 0 1-.386.143 3.41 3.41 0 0 1-.533.037c-.201 0-.379-.013-.533-.037a.944.944 0 0 1-.386-.142.645.645 0 0 1-.233-.281 1.1 1.1 0 0 1-.078-.446v-1.35c0-.054-.043-.081-.128-.081V71.1h.75v.083Zm-.965 1.994c-.01 0-.017-.001-.025-.003a.103.103 0 0 0-.025-.002.437.437 0 0 0-.13.054 3.696 3.696 0 0 1-.261.124 2.354 2.354 0 0 1-.36.119c-.133.034-.274.05-.42.05a2.06 2.06 0 0 1-.553-.073 1.386 1.386 0 0 1-.47-.226 1.116 1.116 0 0 1-.322-.382 1.146 1.146 0 0 1-.119-.535c0-.201.04-.38.12-.533.079-.154.186-.282.322-.386a1.42 1.42 0 0 1 .469-.233c.176-.053.36-.079.553-.079.156 0 .296.013.423.037.127.025.237.05.332.078.094.027.169.053.224.078a.395.395 0 0 0 .1.037c.016 0 .028-.008.04-.023a.606.606 0 0 0 .024-.037l.069.055-.357.553-.045-.032a.552.552 0 0 0-.01-.06c-.006-.033-.036-.067-.091-.102a.934.934 0 0 0-.204-.094 2.01 2.01 0 0 0-.256-.069 1.215 1.215 0 0 0-.618.028.917.917 0 0 0-.306.16.753.753 0 0 0-.286.608.754.754 0 0 0 .286.608.91.91 0 0 0 .306.16c.118.037.24.056.37.056.096 0 .198-.012.305-.035.107-.023.204-.052.293-.087a.96.96 0 0 0 .222-.119c.06-.044.09-.086.09-.125a.087.087 0 0 0-.02-.055l.065-.037.302.485-.037.037Zm-3.617.246c.079 0 .118-.027.118-.082v-2.076c0-.055-.039-.082-.118-.082V71.1h.759v.083c-.08 0-.119.027-.119.082v2.076c0 .055.04.083.119.083v.081h-.76v-.081Zm-1.414-1.253c.11 0 .201-.008.275-.025a.484.484 0 0 0 .174-.07.264.264 0 0 0 .09-.108.32.32 0 0 0 .029-.135.317.317 0 0 0-.028-.135.261.261 0 0 0-.091-.108.49.49 0 0 0-.174-.07 1.274 1.274 0 0 0-.275-.026h-.79v.677h.79Zm.12-1.07c.146 0 .278.013.397.04.12.025.221.066.306.123.086.056.152.13.197.22.046.09.07.2.07.33 0 .202-.06.356-.18.463a.964.964 0 0 1-.48.214l.609.87c.02.03.046.048.075.054.029.006.056.01.08.01v.081h-.855v-.081c.027 0 .051-.005.07-.015.02-.008.03-.02.03-.036a.105.105 0 0 0-.018-.053 1.386 1.386 0 0 0-.055-.08l-.503-.713h-.654v.814c0 .028.01.048.03.062.02.014.056.02.108.02v.082h-.792v-.081c.09 0 .133-.028.133-.083v-2.076c0-.055-.044-.082-.133-.082V71.1h1.564Zm-2.191.74-.091-.027a.178.178 0 0 0 .008-.054c0-.046-.028-.087-.084-.124a.835.835 0 0 0-.215-.093 1.742 1.742 0 0 0-.284-.058 2.577 2.577 0 0 0-.29-.018c-.113 0-.225.016-.336.048a.87.87 0 0 0-.297.149.746.746 0 0 0-.21.26.86.86 0 0 0-.08.39c0 .148.026.277.08.385a.743.743 0 0 0 .21.263.868.868 0 0 0 .297.149c.111.032.223.048.336.048.174 0 .33-.014.468-.043.14-.03.257-.06.355-.094v-.393h-.585c-.043 0-.075.009-.096.027-.021.019-.035.058-.041.119h-.083v-.585h.083c.006.052.02.084.04.098.022.014.054.02.097.02h1.143v.083a.275.275 0 0 0-.114.032c-.015.012-.023.038-.023.077v.517c0 .03.01.05.027.06l.064.032v.073c-.1.07-.206.128-.317.174a2.146 2.146 0 0 1-.682.155c-.114.006-.227.01-.336.01-.214 0-.408-.027-.583-.08a1.271 1.271 0 0 1-.45-.238 1.088 1.088 0 0 1-.291-.384 1.23 1.23 0 0 1-.103-.515c0-.192.034-.363.103-.514.069-.152.165-.28.29-.387.126-.106.275-.188.45-.245.176-.056.37-.085.584-.085.134 0 .262.01.384.028a3.759 3.759 0 0 1 .56.126c.062.02.101.03.117.03.027 0 .049-.006.064-.019a.433.433 0 0 1 .046-.031l.055.031-.27.604Zm-3.356.733-.385-.851-.43.85h.814Zm-1.725.85a.133.133 0 0 0 .094-.06c.022-.033.045-.07.066-.114l.846-1.778.057-.11a.204.204 0 0 0 .025-.087c0-.03-.01-.052-.031-.064a.278.278 0 0 0-.07-.027V71.1h.774v.083a.352.352 0 0 0-.064.024c-.022.011-.032.034-.032.067 0 .024.005.049.015.073.011.024.028.056.049.096l.95 1.862a.153.153 0 0 0 .063.072c.026.016.055.03.089.047v.081h-.805v-.081a.112.112 0 0 0 .046-.015c.018-.008.027-.022.027-.04 0-.03-.012-.07-.037-.12l-.173-.338h-1.116l-.165.325a.376.376 0 0 0-.046.137c0 .034.03.05.087.05v.082h-.649v-.081Zm-3.555 0c.058 0 .087-.027.087-.082v-2.076c0-.055-.029-.082-.087-.082V71.1h.783v.083c-.025 0-.037.014-.037.045 0 .025.03.068.091.128l1.313 1.363v-1.454c0-.055-.04-.082-.12-.082V71.1h.692v.083c-.059 0-.088.027-.088.082v2.076c0 .055.03.083.088.083v.081h-.741v-.081c.039 0 .06-.015.06-.042 0-.02-.025-.056-.074-.105l-1.395-1.454v1.518c0 .055.035.083.105.083v.081h-.677v-.081Zm-1.189-.85-.383-.851-.43.85h.813Zm-1.723.85a.134.134 0 0 0 .093-.06 1 1 0 0 0 .066-.114l.847-1.778c.021-.04.04-.076.056-.11a.197.197 0 0 0 .026-.087c0-.03-.01-.052-.032-.064a.279.279 0 0 0-.069-.027V71.1h.773v.083a.389.389 0 0 0-.064.024c-.021.011-.032.034-.032.067 0 .024.006.049.016.073.01.024.026.056.048.096l.951 1.862a.152.152 0 0 0 .062.072c.026.016.056.03.09.047v.081h-.806v-.081a.106.106 0 0 0 .046-.015c.018-.008.027-.022.027-.04a.29.29 0 0 0-.036-.12l-.174-.338h-1.116l-.164.325a.379.379 0 0 0-.046.137c0 .034.029.05.087.05v.082h-.65v-.081Zm-1.89-2.24c-.066 0-.1.027-.1.082v1.372c0 .192.062.324.186.395.123.072.304.108.542.108.237 0 .418-.036.541-.108.124-.071.185-.203.185-.395v-1.372c0-.055-.046-.082-.137-.082V71.1h.732v.083c-.073 0-.11.027-.11.082v1.349c0 .18-.026.329-.077.446a.65.65 0 0 1-.234.28.941.941 0 0 1-.386.143 3.416 3.416 0 0 1-.533.037c-.202 0-.379-.013-.533-.037a.94.94 0 0 1-.386-.142.648.648 0 0 1-.233-.281 1.109 1.109 0 0 1-.078-.446v-1.35c0-.054-.043-.081-.128-.081V71.1h.75v.083Zm-1.637.082c0-.055-.033-.082-.1-.082V71.1h.704v.083a.088.088 0 0 0-.057.02c-.017.014-.025.034-.025.062v2.076c0 .028.008.048.025.062.017.014.036.02.057.02v.082h-.704v-.081c.067 0 .1-.028.1-.083v-.86h-1.472v.86c0 .028.008.048.025.062.017.014.036.02.057.02v.082h-.69v-.081c.057 0 .087-.028.087-.083v-2.076c0-.055-.03-.082-.088-.082V71.1h.691v.083a.087.087 0 0 0-.057.02c-.017.014-.025.034-.025.062v.777h1.472v-.777Zm-2.428 1.912c-.009 0-.017-.001-.025-.003a.107.107 0 0 0-.025-.002.44.44 0 0 0-.13.054 3.565 3.565 0 0 1-.261.124 2.335 2.335 0 0 1-.36.119c-.133.034-.274.05-.42.05-.192 0-.376-.024-.553-.073a1.39 1.39 0 0 1-.47-.226 1.123 1.123 0 0 1-.322-.382 1.149 1.149 0 0 1-.118-.535c0-.201.04-.38.118-.533.08-.154.187-.282.323-.386.136-.104.292-.182.468-.233.178-.053.362-.079.554-.079.156 0 .296.013.423.037.127.025.237.05.331.078.095.027.17.053.225.078a.398.398 0 0 0 .1.037c.016 0 .029-.008.039-.023a.597.597 0 0 0 .025-.037l.069.055-.357.553-.045-.032-.003-.027a.39.39 0 0 0-.007-.032c-.006-.034-.036-.068-.091-.103a.933.933 0 0 0-.204-.094 2.033 2.033 0 0 0-.256-.069 1.248 1.248 0 0 0-.617.028.91.91 0 0 0-.306.16.76.76 0 0 0-.286.608.76.76 0 0 0 .286.608c.086.07.189.124.306.16.117.037.24.056.368.056.098 0 .2-.012.306-.035.107-.023.205-.052.293-.087a.979.979 0 0 0 .222-.119c.06-.044.09-.086.09-.125a.085.085 0 0 0-.02-.055l.065-.037.302.485-.037.037Zm-3.617.246c.079 0 .119-.027.119-.082v-2.076c0-.055-.04-.082-.12-.082V71.1h.76v.083c-.08 0-.12.027-.12.082v2.076c0 .055.04.083.12.083v.081h-.76v-.081Zm-2.401-.672.045.023c0 .028.006.052.019.073a.326.326 0 0 0 .126.108c.062.035.134.066.214.093.081.028.166.05.254.067a1.27 1.27 0 0 0 .44.013c.081-.007.162-.023.242-.048a.67.67 0 0 0 .206-.1.2.2 0 0 0 .086-.17c0-.07-.026-.122-.08-.155a.579.579 0 0 0-.21-.073 2.363 2.363 0 0 0-.297-.03 8.608 8.608 0 0 1-.341-.02 3.091 3.091 0 0 1-.34-.046.932.932 0 0 1-.298-.108.587.587 0 0 1-.21-.206.645.645 0 0 1-.08-.34.63.63 0 0 1 .066-.28.681.681 0 0 1 .203-.242 1.12 1.12 0 0 1 .348-.17 1.63 1.63 0 0 1 .494-.068c.161 0 .302.013.42.037a3.085 3.085 0 0 1 .53.156c.058.024.108.037.147.037.043 0 .073-.01.092-.028l.055.036-.316.572-.045-.018a.256.256 0 0 0-.037-.105.392.392 0 0 0-.121-.108 1.078 1.078 0 0 0-.2-.094 1.63 1.63 0 0 0-.511-.09 1.359 1.359 0 0 0-.403.063.436.436 0 0 0-.144.084.171.171 0 0 0-.057.131c0 .073.027.128.08.164a.58.58 0 0 0 .21.083c.087.018.186.03.298.037.11.006.224.013.34.023.116.008.23.024.341.047a.99.99 0 0 1 .297.11c.087.05.157.118.21.204.054.085.08.196.08.334a.588.588 0 0 1-.125.388.89.89 0 0 1-.313.238c-.125.058-.26.096-.405.117a3.003 3.003 0 0 1-.841 0 1.64 1.64 0 0 1-.479-.151.273.273 0 0 0-.118-.034c-.022 0-.041.012-.06.036l-.064-.036.252-.554ZM112.842 65.082c-.467-.375-1.031-.592-1.598-.791-.356-.126-.72-.228-1.02-.504-.23-.211-.515-.431-.897-.323l-.125.126c0 .17.011.344-.003.515-.031.386.137.706.373.973.355.406.736.791 1.102 1.188.393.427.865.782 1.441 1.043.169.012.379.009.547-.121l.153-.346.523-.138.201-.201c-.003-.602-.266-1.075-.697-1.421Zm-.507-5.891.256.256c0 .134.054.32-.012.436-.111.195-.071.386-.081.58-.014.342-.324.775-.659.812-.463.052-.855.29-1.29.417-.16.046-.317.135-.483.19-.478.16-.73.524-.865.988a6.185 6.185 0 0 1-1.076 2.097c-.141.18-.293.347-.442.519-.178.207-.331.444-.537.62-.42.36-.845.717-1.315 1.016-.705.448-1.471.757-2.254 1.031-.062.022-.143-.008-.234-.015.096-.35.401-.449.62-.614.408-.307.842-.576 1.21-.936.207-.202.452-.365.654-.57a9.933 9.933 0 0 0 1.452-1.845c.287-.477.557-.98.706-1.554h-.421c-.033-.036-.05-.068-.076-.081-.361-.182-.497-.517-.59-.877-.066-.258-.119-.52-.179-.785l.317-.246c.447-.095.966-.135 1.521-.344.276-.22.432-.577.46-1.003.007-.114.066-.224.088-.338.023-.115.024-.224.075-.346.097-.224-.088-.454-.108-.69a.778.778 0 0 0-.066-.254c-.052-.12-.149-.227-.174-.35-.031-.15-.007-.312-.007-.497l.381-.5c.539-.077.936.137 1.284.474.169.164.333.332.487.487.079.356-.053.666-.191.96-.133.284-.195.582-.259.88-.045.21-.19.42-.05.692l1.858-.61ZM67.94 63.166l.289-.4V58.65l-.558-.459c-.42.134-.572.465-.746.824 0 1.1.004 2.243-.002 3.386a.727.727 0 0 0 .227.566c.068.064.133.132.2.198h.59Zm-4.411-4.591c.072.109.132.232.22.328.246.268.36.585.348.938-.015.474-.048.948-.095 1.42-.02.202-.125.396-.14.597-.023.331-.293.595-.232.942-.22.304-.025.57.1.822.272.556.367.6.934.546.029-.044.066-.091.096-.143.232-.401.184-.865.275-1.297.07-.34.07-.694.102-1.042.003-.03.004-.06.015-.087.15-.373.153-.78.263-1.162.054-.184.078-.38.095-.572.017-.194-.02-.392.092-.576.033-.055.03-.184-.01-.222-.151-.146-.032-.33-.1-.497-.188-.098-.22-.344-.445-.464a1.684 1.684 0 0 0-.668-.195c-.202-.016-.415.114-.61.176l-.24.487Zm6.32-2.496c.158-.329.39-.559.723-.722.419-.059.776.06.969.569.013.234-.054.493-.222.745-.1.15-.139.359-.15.545a64.757 64.757 0 0 0-.098 2.076c-.013.376.01.753-.006 1.128-.013.301-.072.6-.087.902-.016.312-.004.626-.004.94 0 .313.003.627 0 .94-.005.413.139.81.102 1.231-.035.405-.073.829.01 1.218.084.386.053.761.076 1.14.034.533-.108 1.038-.289 1.526-.126.341-.361.618-.703.778-.051.024-.123.003-.185.003-.04-.08-.081-.157-.142-.276.057-1.43-.162-2.9-.095-4.377.016-.376.071-.769-.014-1.124-.123-.51-.117-1.022-.063-1.515.147-1.32.036-2.64.08-3.96.17-.59.06-1.195.099-1.767ZM52.99 62.938c-.004-.15.141-.267.096-.43-.039-.141-.051-.291-.098-.429-.13-.385-.286-.753-.793-.803-.045.049-.127.096-.14.16-.075.33-.175.664-.183 1-.01.402.179.747.512 1.01h.282l.325-.35v-.158Zm-1.893.424c.005-.598.087-1.202-.08-1.797-.142-.507-.283-.996-.857-1.183-.013-.004-.022-.021-.03-.027h-.411c-.372.476-.45 1.04-.483 1.596-.027.454.05.915.084 1.372.003.042.027.082.042.123.197.532.413 1.05.863 1.432.233.198.47.365.793.364.048 0 .097.053.131.072l.256-.13.093-.501c-.252-.451-.405-.849-.4-1.321Zm.575 1.836c.038-.046.082-.078.092-.118a.678.678 0 0 1 .405-.488c.372-.168.585-.496.763-.848.306-.61.648-1.204.833-1.868.076-.272.162-.54.166-.825.004-.263.001-.526.001-.792.608.095 1.308.32 1.592.883v.47c-.642 1.176-1.589 2.151-2.45 3.236.323-.014.638.104.938-.08.415.03.783-.154 1.15-.294.296-.114.584-.294.823-.503.383-.334.783-.676 1.027-1.125.2-.366.448-.739.404-1.197.194-.317.122-.676.074-.993a3.012 3.012 0 0 0-.317-.995c-.163-.3-.371-.451-.707-.453-.084 0-.167-.043-.285-.077-.056.018-.153.076-.25.076-.425 0-.819.138-1.198.295-.695.29-1.376.618-2.075.935-.317-.096-.655-.18-.878-.53v-.474c.222-.259.57-.279.867-.38.816-.279 1.641-.53 2.49-.701.194-.04.398-.03.572-.094.195-.073.383-.068.577-.086.114-.01.224-.07.338-.086.108-.016.248-.046.324.005.17.113.351.07.43.079.683.268 1.033.736 1.284 1.299.084.189.125.389.177.587.133.506.063 1.013.082 1.518.019.515-.166.991-.31 1.472-.05.163-.158.315-.263.455-.537.723-1.184 1.311-2.031 1.665-.38.158-.774.258-1.172.353a8.432 8.432 0 0 1-1.19.204c-.398.037-.787.177-1.196.177-.053 0-.107.039-.161.06-.264.104-.509-.003-.725-.117-.104-.055-.15-.243-.196-.38-.027-.083-.005-.184-.005-.265ZM119.372 62.808c-.105-.29-.322-.16-.46-.228-.011-.119.017-.267-.041-.32-.133-.12.127-.207-.009-.305-.184.088-.284.28-.474.384-.181.1-.284.339-.428.525v.913l.232.237h.448c.563-.261.652-.766.732-1.206Zm3.272-3.36c.093-.154.099-.37.112-.56.027-.382-.161-.75-.089-1.136.026-.144.076-.285.089-.43.016-.17.004-.344.004-.542-.133-.159-.278-.33-.403-.481h-.494l-.325.215c-.046.488.148.931.095 1.397-.052.451-.079.906-.106 1.22.127.416.334.568.68.668.146-.111.344-.199.437-.351Zm-2.753-1.85c-.315.596-.379 1.23-.322 1.877.022.253.218.455.451.583.172.093.349.18.534.006.033-.031.121-.005.175-.005.278-.23.461-.511.53-.84-.053-.226-.246-.17-.383-.23.011-.358-.014-.703.17-1.051.137-.26.224-.594-.057-.908l-.525-.106c-.21.266-.438.42-.573.675Zm4.529 1.816c-.018-.02-.051-.053-.101-.103h-.852c-.213-.288-.122-.604-.147-.926-.336.023-.437-.24-.564-.486.16-.25.191-.605.559-.691v-.32c-.373-.082-.505-.241-.547-.661.084-.019.171-.034.255-.058.084-.024.165-.058.277-.099l.309-.295v-1.132c.306-.233.306-.233.767-.232l.364.245c-.035.272.055.569-.079.893l.444.123v.403l-.652.82.135.148h.767l.108.255-.18.313c-.352-.069-.586.217-.901.304l-.147.387.943.594c.09.398-.044.651-.285.87-.152.136-.29.286-.434.43.021.018.045.052.064.049.191-.027.382-.057.573-.092.175-.033.344.01.535-.07.364-.152 1.06.166 1.271.504a.562.562 0 0 1-.053.7 2.28 2.28 0 0 1-1.146.752c-.446.127-1.735.73-2.055.946-.013.008-.021.023-.033.032-.429.327-.482.685-.169 1.164.064.098.14.188.226.302.511.052 1.036-.16 1.578-.1.122.015.296-.12.373-.07.12.076.228.07.402.081l.166.288.053-.05c0 .11.014.222-.005.328-.015.083-.07.158-.105.229-.397.287-.887.278-1.331.42-.292.094-.598.143-.939.22.043.137.106.257.115.38.026.35-.118 1.253-.37 1.68-.301.51-.788.778-1.295 1.015-.091.042-.217.006-.327.006h-.776c-.812-.258-1.228-.726-1.064-1.573.102-.07.157-.262.414-.203.053.066.135.17.222.27.131.15.243.336.406.436.159.097.363.266.569.047.363-.007.595-.252.77-.507.163-.237.261-.53.234-.842-.012-.138-.002-.279-.002-.419-.335-.112-.63.038-.932.101-.359.075-.705.204-1.074.248-.176.021-.343.085-.527.095-.376.02-.637-.107-.776-.512.116-.145.234-.318.38-.465a.63.63 0 0 1 .309-.155c.379-.075.771-.098 1.142-.202.394-.11.812-.13 1.218-.32-.097-.154-.194-.297-.279-.447-.078-.14-.181-.28-.205-.43-.031-.19.057-.376.177-.533.035-.046.08-.084.154-.162l-.416-.206-.104-.242.373-.382c.266 0 .505-.03.732.007.407.066.702-.146.979-.368.384-.307.736-.655 1.097-.981v-.271c-.185.043-.358.067-.519.123-.699.24-1.396.49-2.094.737-.479.169-.959.333-1.433.517-.35.136-.705.266-1.057.4-.122.046-.271.021-.387.028-.266-.215-.095-.484-.161-.73.88-.29 1.701-.696 2.573-.978.536-.173 1.05-.422 1.554-.677.385-.196.765-.427.936-.9ZM78.542 65.89a12.86 12.86 0 0 1 2.769-2.993l.035.344.316.206c-.127.127-.219.257-.343.339-.974.637-1.843 1.411-2.777 2.105Zm2.532-5.094c-.045-.168-.069-.328.111-.446h.508v.331a.773.773 0 0 1-.619.115Zm-.401-1.162a1.271 1.271 0 0 1-.878.44c-.325-.308-.274-.643-.24-.95.02-.195.152-.382.374-.492.066.09.122.188.198.265.083.084.187.146.28.221.093.076.183.156.266.226v.29Zm.956-2.46.34-.155v.458l-.49.25c-.179-.284.161-.36.15-.553Zm1.147 1.095c.274-.077.533-.186.72-.43v-.374l-.257-.24h-.498c.109-.597.627-.647 1.034-.836.285.15.285.15.54.564.189 1.074-.288 1.845-.957 2.544-.237-.252-.526-.388-.845-.476-.092-.026-.173-.088-.242-.124.002-.385.204-.544.505-.628Zm4.419 9.906c-.225-.156-.35-.26-.49-.336-.28-.153-.566-.296-.855-.434-.56-.27-1.104-.57-1.616-.927.24-.371.642-.636.575-1.115l-.151-.128c-.203.073-.402.105-.552.208-.176.121-.309.305-.458.458-.363-.2-.6-.567-.986-.657l-.315.25c.083.411.408.622.565.928-.316.524-.788.857-1.392 1.103 0-.371-.014-.698.003-1.023.023-.436.124-.85.432-1.186.037-.04.047-.105.064-.148 1.1-.514 2.276-.814 3.352-1.336v-.345c-.25-.265-.508-.27-.816-.116-.35.174-.713.331-1.084.449-.75.237-1.446.605-2.188.856-.072.024-.14.06-.3.133.736-.84 1.08-.974 1.93-1.48.162-.096.33-.19.506-.253.411-.146.7-.325.92-.703-.07-.115-.141-.227-.208-.335-.837-.06-1.524.452-2.32.533.848-.538 1.652-1.126 2.442-1.69-.016-.28-.016-.28-.142-.427-.627-.093-1.212.113-1.818.175v-.367c.252-.014.495.015.71-.049.782-.23 1.353-.722 1.744-1.443.298-.55.337-1.154.445-1.746.039-.217-.05-.415-.093-.62-.116-.547-.555-.99-1.096-.96-.266.014-.534.003-.8 0-.026 0-.052-.026-.1-.052l.085-.293c-.124-.08-.044-.237-.073-.366-.402-.384-.469-.4-.726-.197l-.141 1.082c-.257.048-.496.278-.802.184l-.397-.623h-.528l.07.772c-.238.237-.451.425-.633.64-.192.225-.363.473-.323.733l.25.314.674-.1v.496c-.218.127-.403.237-.637.375.02-.366-.133-.582-.488-.703h-.606c-.41.404-.521.942-.597 1.485-.037.261.011.534-.012.799-.021.249.176.402.21.57l.32.24h.398l.211-.314.227.348.792-.107v.337c-.393.173-.807.307-1.17.578-.189.142-.23.267-.23.44.176.188.382.298.589.228.343-.117.705-.177 1.026-.364.2-.115.42-.198.635-.283.116-.046.242-.067.37-.1 0 .045.005.06 0 .066-1.073 1.1-2.221 2.127-3.165 3.349-.174.224-.332.46-.503.685-.313.414-.59.847-.823 1.338v.283l.234.344c.143-.088.268-.141.364-.227.436-.394.865-.795 1.295-1.196.125-.118.239-.25.368-.364.13-.116.272-.219.422-.337.055.162.014.347.214.393.256-.07.485-.225.808-.29-.065.137-.136.216-.133.291.022.429-.262.807-.194 1.24-.2.366-.084.76-.084 1.138 0 .466.504.73.932.542.492-.218.838-.626 1.259-.936.329-.243.642-.506.965-.761.376.558.878.9 1.448 1.123.616.24.653.217 1.845.186l-.09-.093.436-.162ZM95.87 64.381c-.389.032-.657.185-.885.434l.129.129c.266-.133.612-.15.757-.563Zm2.221-8.032c-.084-.123-.19-.194-.328-.14-.288.493-.506 1.022-1.063 1.355l-.038-.518h-.358c-.002.346-.003.69.001 1.088.794-.46 1.393-1.019 1.786-1.785Zm3.78 1.411c-.13.423-.456.512-.808.616-.305.089-.603.079-.906.08-.35.003-.677.091-.964.288-.534.367-1.1.686-1.645 1.04l.088.29c-.203.26-.465.422-.742.578-.378.213-.73.465-1.052.76-.152.139-.317.263-.533.442.18-.016.308.002.41-.041.36-.154.714-.322 1.065-.497.183-.092.341-.26.531-.302.24-.053.5-.013.75-.013h.067c.093.115.289.174.222.444-.401.446-.993.629-1.58.825v.188c.01.01.02.031.03.031.28.002.56.002.866.002l.315.419c-.06.27-.264.355-.487.454-.178.08-.403.154-.45.421.13.06.25.049.385-.002.245-.092.496-.165.748-.238.106-.03.215.016.369.127.066.192-.022.368-.12.503-.077.106-.239.179-.376.21-.532.119-.913.424-1.175.89v.634c.17-.05.322.02.496-.075.133-.073.334-.015.502-.034.13-.016.287-.123.38-.08.331.155.671.033 1.029.1l.39.414v.48c-.254.275-.55.425-.954.248-.094-.041-.233-.009-.344.019-.22.053-.218.062-.613-.014l.536-.462c-.311-.144-.591-.221-.91-.061-.112.056-.27.021-.43.03 0 .149.005.287 0 .424-.022.598-.046 1.195-.068 1.762-.478.345-.642.34-1.009-.03-.352-.356-.7-.713-1.185-.93h1.015c.022-.307.041-.58.064-.853.002-.023.029-.044.043-.066a18.044 18.044 0 0 0-.106-.106c-.018.003-.042.003-.061.013-.526.278-1.056.553-1.615.758-.249.091-.52.12-.775.176l-.248-.278c.001-.467.17-.764.73-1.256v.623c.421.132.766-.096 1.13-.193.28-.075.55-.186.847-.288v-.862c-.596.18-1.143.564-1.843.528l-.222-.372c.128-.58.54-.86.974-1.14.322-.207.623-.442.985-.58.054-.021.105-.056.11-.15h-.498c-.093-.137-.281-.19-.237-.434.148-.236.425-.347.708-.424.193-.053.236-.163.223-.377-.097.015-.194.017-.282.047-.26.089-.482.26-.756.337-.179.05-.343.091-.54.069l-.224-.357c.103-.175.184-.393.333-.544.173-.177.404-.3.613-.44.156-.104.318-.2.478-.3l-.408-.136c-.302-.313-.032-.6.049-.903.051-.026.13-.045.179-.094.197-.203.466-.251.717-.315.405-.102.806-.245 1.239-.2.075.007.157-.066.247-.106.158-.316.489-.505.764-.873-.592.19-1.116.312-1.602.522-.973.42-1.927.884-2.881 1.344-.453.218-.928.41-1.423.545a2.73 2.73 0 0 1-.435.082c-.094.01-.186.042-.345.083-.105-.118-.248-.077-.402-.087-.038-.114-.108-.236-.112-.36-.002-.108.071-.217.135-.392l.378-.364h.751c.63-.28 1.172-.525 1.717-.765.543-.238 1.087-.471 1.684-.73l-.194-.117c-.296-.183-.584-.369-.624-.767-.01-.093-.09-.179-.155-.3l-.672.612c-.065.337-.114.389-.42.455-.586-.418-.555-1.035-.532-1.64l.323-.338c.537.03.6.146.763.7l.654-.486c.135-.34.001-.626-.071-.886-.056-.2-.042-.388-.085-.599l.303-.238c.322-.102.57.188.857.357.104.062.184.169.267.263.219.247.247.529.09.874l.128.287h.36c.003-.002.037-.073.085-.134.048-.062.11-.112.17-.174.034-.166.124-.35.091-.51-.037-.176-.094-.345-.073-.56l.342-.21.644.218 1.096.969-.101.6-.673.134c-.441.325-1.025.565-1.306 1.201.315-.093.584-.235.876-.316.275-.077.56-.152.832-.258.258-.1.552-.104.81-.203.377-.145.78-.14 1.162-.26.195-.062.44.035.698.064l.429.54ZM91.612 61.19l.034-.009.008.008a.455.455 0 0 0-.042 0Z" clip-rule="evenodd"/></g><defs><filter id="a" width="154" height="157" x="0" y="0" color-interpolation-filters="sRGB" filterUnits="userSpaceOnUse"><feFlood flood-opacity="0" result="BackgroundImageFix"/><feColorMatrix in="SourceAlpha" result="hardAlpha" values="0 0 0 0 0 0 0 0 0 0 0 0 0 0 0 0 0 0 127 0"/><feOffset dy="16"/><feGaussianBlur stdDeviation="6.5"/><feColorMatrix values="0 0 0 0 0 0 0 0 0 0 0 0 0 0 0 0 0 0 0.03 0"/><feBlend in2="BackgroundImageFix" result="effect1_dropShadow_185_412"/><feBlend in="SourceGraphic" in2="effect1_dropShadow_185_412" result="shape"/></filter></defs></svg>