<svg xmlns="http://www.w3.org/2000/svg" width="154" height="157" fill="none"><g filter="url(#a)"><path fill="#fff" d="M13 0h128v128H13z"/><path fill="#0061A7" fill-rule="evenodd" d="M43.398 70.38A9.03 9.03 0 0 1 37 73.03a9.033 9.033 0 0 1-6.399-2.65 9.003 9.003 0 0 1-2.654-6.389 9.004 9.004 0 0 1 2.654-6.389 9.032 9.032 0 0 1 6.4-2.65 9.03 9.03 0 0 1 6.398 2.65 9.002 9.002 0 0 1 2.655 6.39 9.001 9.001 0 0 1-2.655 6.387ZM37 53.99c-5.514 0-9.999 4.486-9.999 10s4.485 10 10 10c5.514 0 10-4.486 10-10s-4.486-10-10-10Z" clip-rule="evenodd"/><path fill="#0061A7" fill-rule="evenodd" d="M36.294 60.708a.126.126 0 0 0-.041-.03.228.228 0 0 0-.066-.018.552.552 0 0 0-.074-.004c-.092 0-.206.014-.32.029a2.705 2.705 0 0 1-.3.028.615.615 0 0 1-.13-.01.11.11 0 0 1-.038-.015l-.007-.007a.06.06 0 0 1-.007-.025.534.534 0 0 1-.002-.059v-.664l.003-.002a.182.182 0 0 1 .043-.017 1.14 1.14 0 0 1 .142-.026c.084-.012.183-.023.275-.045a.743.743 0 0 0 .132-.042.352.352 0 0 0 .11-.075.298.298 0 0 0 .009-.417.304.304 0 0 0-.081-.066.208.208 0 0 0-.099-.028.417.417 0 0 0-.07.008 2.709 2.709 0 0 0-.395.114c.017-.106.04-.271.04-.426-.001-.1-.01-.194-.038-.273l-.001-.003-.002-.002a.424.424 0 0 0-.223-.202.72.72 0 0 0-.455-.029.21.21 0 0 0-.067.036.115.115 0 0 0-.027.033.097.097 0 0 0-.013.048c0 .036.008.074.017.114.026.101.05.215.064.248.039.255.03 1.437.03 1.574a.739.739 0 0 1-.04.24.252.252 0 0 1-.042.079.067.067 0 0 1-.017.014l-.009.003c-.033 0-.084.004-.15.01-.194.018-.512.054-.712.054l-.15.001a.495.495 0 0 0-.074.008.152.152 0 0 0-.049.018.109.109 0 0 0-.052.083.34.34 0 0 0-.002.045v.026a.646.646 0 0 0 .098.331c.021.032.046.062.078.084a.196.196 0 0 0 .114.038c.045 0 .106-.008.179-.019.108-.017.241-.04.36-.061.06-.01.116-.02.163-.026a.91.91 0 0 1 .11-.01c.041 0 .1-.004.175-.01.226-.019.605-.055 1.06-.055.12 0 .216-.012.294-.034a.392.392 0 0 0 .238-.163.387.387 0 0 0 .052-.208c0-.054-.007-.1-.006-.125a.106.106 0 0 0-.027-.07ZM38.827 59.73a.268.268 0 0 0-.167-.062h-.316a.734.734 0 0 1 .097-.122.29.29 0 0 0 .056-.099c.02-.053.036-.114.055-.168.018-.053.04-.1.062-.12a.842.842 0 0 0 .125-.163.38.38 0 0 0 .057-.185.133.133 0 0 0-.019-.067.243.243 0 0 0-.075-.075c-.042-.028-.09-.05-.13-.07l-.052-.026a.31.31 0 0 1-.016-.01l-.003-.003H38.5a.23.23 0 0 0-.083-.051.304.304 0 0 0-.104-.02.165.165 0 0 0-.102.031.13.13 0 0 0-.039.05.157.157 0 0 0-.012.064c0 .12-.014.338-.13.568a6.278 6.278 0 0 0-.188.435c-.06.15-.113.29-.148.373a.32.32 0 0 1-.067.102l-.027.025-.014.013a.077.077 0 0 0-.01.014.069.069 0 0 0 .023.094c.015.009.022.009.03.01a2.59 2.59 0 0 0 .054.002.319.319 0 0 0 .104-.018c.093-.032.152-.077.31-.078.035 0 .063.003.085.008a.128.128 0 0 1 .035.012.048.048 0 0 1 .023.023.13.13 0 0 1 .009.055.849.849 0 0 1-.037.204c-.032.115-.056.225-.082.302a.339.339 0 0 1-.038.082.044.044 0 0 1-.008.01l-.01-.005a.171.171 0 0 1-.03-.027c-.069-.07-.116-.136-.154-.186-.018-.025-.034-.046-.051-.065a.166.166 0 0 0-.03-.026.086.086 0 0 0-.116.012.086.086 0 0 0-.022.04.134.134 0 0 0-.003.032c0 .02.003.042.008.066.015.082.05.198.083.31.016.054.03.108.041.153a.53.53 0 0 1 .017.1c0 .034.01.067.027.093.026.039.064.063.103.077a.34.34 0 0 0 .21.008.178.178 0 0 0 .079-.044 3.565 3.565 0 0 0 .284-.38c.068-.107.13-.22.166-.322.043-.128.09-.287.133-.422a3.52 3.52 0 0 1 .083-.228.212.212 0 0 1 .009-.016l.002-.004a.115.115 0 0 0 .026-.043.146.146 0 0 0 .007-.045.237.237 0 0 0-.022-.093.342.342 0 0 0-.097-.126ZM40.582 59.85a.703.703 0 0 0-.244-.205.43.43 0 0 0-.193-.042.81.81 0 0 0-.283.06c-.076.028-.126.057-.128.058l-.038.022v-.519c0-.072.02-.133.043-.2.023-.065.05-.135.05-.22a.19.19 0 0 0-.019-.08.36.36 0 0 0-.089-.114.764.764 0 0 0-.197-.122.55.55 0 0 0-.21-.051.247.247 0 0 0-.172.063.2.2 0 0 0-.066.147c0 .043.016.087.05.121a.434.434 0 0 1 .075.141c.01.03.02.06.025.087a.336.336 0 0 1 .009.066v.723c0 .048-.004.13-.01.228-.018.298-.055.756-.055 1.035 0 .071.002.13.008.177a.335.335 0 0 0 .072.183c.018.02.042.036.065.044.024.009.047.011.067.011.027 0 .05-.004.07-.007a.342.342 0 0 1 .048-.006c.026 0 .052-.01.07-.023a.219.219 0 0 0 .068-.092.759.759 0 0 0 .048-.188c.01-.07.015-.143.015-.212 0-.096.009-.307.018-.523.008-.217.017-.44.017-.568v-.027l.043.02c.087.04.183.133.258.237.077.104.135.217.157.284a.576.576 0 0 0 .072.154.254.254 0 0 0 .061.062.162.162 0 0 0 .091.029.198.198 0 0 0 .122-.048.543.543 0 0 0 .113-.13.467.467 0 0 0 .08-.26.53.53 0 0 0-.111-.314ZM34.365 68.416h.34v-1.948h-.27l-.005.037a.351.351 0 0 1-.128.245.49.49 0 0 1-.302.08h-.045l-.049-.003v.276h.46v1.313ZM36.229 67.407c-.052.06-.124.091-.232.095h-.019c-.117 0-.196-.03-.247-.082-.052-.052-.082-.136-.082-.257v-.02c.003-.125.035-.214.088-.272.052-.059.129-.091.24-.099.112.004.19.035.243.09.054.055.087.14.095.26-.004.132-.035.225-.086.285Zm-.264.778h-.018l-.001-.001h-.002c-.092 0-.155-.022-.2-.063-.044-.04-.074-.104-.084-.198l-.005-.039h-.326l.003.047c.011.159.068.287.173.376.105.088.253.133.438.14h.003a.65.65 0 0 0 .545-.289c.124-.183.19-.445.205-.787v-.003c-.007-.287-.067-.508-.188-.663-.12-.154-.303-.234-.53-.237h-.004c-.204.01-.368.073-.48.19-.114.117-.172.283-.184.492v.004c.008.2.063.357.173.468.11.11.27.167.47.173h.004a.6.6 0 0 0 .377-.124c-.03.157-.074.279-.126.362-.07.106-.146.15-.243.152ZM37.204 67.694l.486-.66v.66h-.486Zm.486.722h.328v-.444h.288v-.278h-.288v-1.181h-.275l-.897 1.18v.279h.844v.444ZM39.361 67.407c-.051.06-.124.091-.232.095h-.019c-.117 0-.196-.03-.247-.082-.052-.052-.082-.136-.082-.257v-.02c.004-.125.035-.214.088-.272.052-.059.13-.091.24-.099.112.004.19.035.243.09.054.055.087.14.095.26-.004.132-.035.225-.086.285Zm-.25-.94h-.003l-.002.001c-.204.01-.367.073-.48.19-.113.117-.172.283-.183.492v.004c.007.2.062.357.172.468.11.11.27.167.47.173h.004a.6.6 0 0 0 .377-.124c-.03.157-.073.279-.126.362-.07.106-.146.15-.243.152h-.018v-.001h-.003c-.092 0-.155-.022-.2-.063-.044-.04-.074-.104-.084-.198l-.005-.039h-.326l.003.047c.011.159.068.287.173.376.105.088.253.133.438.14h.003a.649.649 0 0 0 .545-.289c.124-.183.19-.445.205-.787v-.003c-.007-.287-.067-.508-.188-.663-.12-.154-.303-.234-.53-.237ZM32.474 63.873s-.32-.077-.456-.129c-.14-.053-.64-.308-.141-.71l.043-.015s-.122.432.45.585c.57.153 1.627.886.933 1.363 0 0 .137-.752-.83-1.094Zm-.513 1.255c-.201.186-.46.079-.46.079-.468-.216-.064-.318-.064-.318.247-.023.524.216.524.216v.023Zm.297-.304c-.47-.233-.786-.187-.786-.187-.656.141-.3.583-.3.583.354.297.994.003.994.003.537.324.979-.023.979-.023 1.007-.193.549-1.047.549-1.047-.121-.27-.757-.732-1.193-.886-.32-.114-.205-.5 0-.52.205-.02.164.078.432.144.269.065.518-.197.505-.302-.01-.08-.126-.044-.177-.023.022-.01.04-.018-.056.023-.145.062-.348-.055-.348-.055-.328-.206-.4-.134-.4-.134-1.146.37-1.329 1.099-1.329 1.099-.01.673.546.706.546.706 1.035.158 1.073.41 1.073.41.278.421-.489.209-.489.209ZM38.48 63.873s-.319-.076-.455-.128c-.14-.053-.641-.308-.142-.71l.044-.015s-.123.432.449.585c.571.152 1.627.886.934 1.363 0 0 .136-.752-.83-1.095Zm-.512 1.256c-.202.186-.46.078-.46.078-.468-.215-.064-.317-.064-.317.246-.023.524.216.524.216v.023Zm.296-.304c-.47-.233-.785-.187-.785-.187-.657.14-.3.582-.3.582.353.298.994.004.994.004.536.323.978-.023.978-.023 1.007-.193.55-1.047.55-1.047-.122-.27-.758-.732-1.193-.887-.32-.114-.206-.5 0-.52.205-.02.163.079.432.144.268.066.517-.196.505-.3-.01-.082-.126-.045-.178-.024.023-.01.04-.018-.056.023-.145.062-.347-.056-.347-.056-.328-.205-.4-.133-.4-.133-1.147.37-1.33 1.099-1.33 1.099-.009.673.547.706.547.706 1.035.157 1.073.41 1.073.41.277.421-.49.209-.49.209ZM36.022 63.74c.086.267.106.915.03 1.057-.076.141-.244.05-.244.05.158-.414 0-1.194 0-1.194.046-1.006.294-1.118.294-1.118.157-.202-.035-.136-.035-.136-.563.248-.876.116-.876.116-1.09-.324-1.13.617-1.13.617l.003.025c.056.066.093-.02.093-.02.43-.49 1.074-.187 1.074-.187-.162.152-.147.526-.147.526a1.163 1.163 0 0 0-.84.213c-.275.197-.133.384-.133.384.198-.141.74-.187.74-.187.623-.02.324.794.324.794-.531-.058-.98.072-1.13.415-.138.32.03.253.03.253.178-.248.634-.344.978-.288.345.056.3.212 1.085.298l.016.002c.763.062.318-1.651.318-1.651-.111-1.012.32-1.2.32-1.2.152-.126-.071-.116-.071-.116-.963 0-.7 1.346-.7 1.346ZM41.587 63.068l-.074.045v-.277s.03.001.074-.002v.234Zm.607-.103.042.02v1.753s-.166.151-.433.231v-1.753l.391-.251Zm-1.384 1.837s.599-.087.69-.7v-.693l.087-.055v1.658c-.224.022-.49-.02-.777-.21Zm.039-1.026s.096-.1.19-.098l-.002.078v.425s-.008.45-.341.49c0 0-.313-.345.153-.895Zm1.143-1.226s-.004-.02-.055-.029c0 0-.715.05-.89-.16 0 0-.42.332-.82.299h-.001l-.028-.004s-.083.075-.004.138c0 0 .295.264.845.055v.524s-1.132.562-.866 1.372c0 0 .566 1.242 2.13.302 0 0 .18.315.276.344.095.03.5.008.366-.319 0 0-.245-.193-.241-.424v-1.846s.345-.226.208-.398c0 0-.38.189-.533.05 0 0-.096-.021-.138.063 0 0-.066.172-.128.226l-.31.191v-.149c.093-.04.175-.11.189-.235Z" clip-rule="evenodd"/><path fill="#0061A7" fill-rule="evenodd" d="m37.465 70.94-.465.446-.466-.445h-3.797l.097-.172H36.6l.4.358.401-.358h3.765l.097.172h-3.797Zm-3.893-1.473h2.967l.074.067.387.369.39-.374.07-.062h2.967l.667 1.176h-3.742l-.352.316-.354-.316h-3.74l.666-1.176Zm12.209-4.353-1.08.71c.08-.338.134-.663.17-.962 1.126-.943.978-1.667.978-1.667-.138-.103-.667.472-.914.755.012-.556-.032-.904-.032-.904-.015-.09-.03-.18-.048-.268.75-1.165.35-1.762.35-1.762-.152.05-.478.814-.544.972a7.868 7.868 0 0 0-.445-1.144c.408-.88.031-1.787.031-1.787-.257.194-.352.939-.374 1.15a8.469 8.469 0 0 0-.639-.925c.148-.984-.487-1.782-.487-1.782-.079-.13-.107 0-.107 0-.034.742.141 1.234.141 1.234l.012.033a9.467 9.467 0 0 0-.76-.734c.005-.216-.073-.742-.774-1.444 0 0-.117-.107-.11.09 0 0-.013.379.11.75-.481-.336-.81-.496-.81-.496-.902-.718-1.935-.468-1.935-.468-.244.018-.122.095-.122.095.592.704 1.81.8 1.81.8.339.163.651.337.94.52-.31-.02-.84-.025-1.078.158 0 0-.102.068.09.147 0 0 .842.34 1.634.15.27.211.513.43.733.655-.269-.045-.952-.122-1.342.169 0 0-.068.028 0 .08 0 0 .38.372 1.812.28.237.298.439.603.611.908-.2-.062-.95-.274-1.5-.113 0 0-.062.079.096.164 0 0 .9.64 1.696.529.196.44.336.875.434 1.29a2.6 2.6 0 0 0-1.275-.466c-.192-.04-.142.079-.142.079.694.773 1.3.956 1.536 1 .072.465.095.89.095 1.246-.58-.648-1.297-.984-1.297-.984-.13-.062-.107.057-.107.057.404.799 1.16 1.4 1.377 1.563-.025.294-.058.465-.058.465a9.59 9.59 0 0 1-.162.614c-.115-.163-.531-.712-1.05-.87 0 0 .047.86.84 1.49-.131.345-.277.661-.43.95h-.002s-.187-1.167-.578-1.376c0 0-.274.815.222 1.982a7.343 7.343 0 0 1-.558.744c-.186-1.632-.377-1.442-.377-1.442-.354.315-.083 1.572-.015 1.864-.56.554-1.045.84-1.22.934l-.54-.953h-3.23l-.357.319-.357-.319h-3.23l-.04.07-.501.885c-.174-.093-.661-.379-1.224-.936.069-.292.34-1.549-.015-1.864 0 0-.191-.19-.377 1.442a7.356 7.356 0 0 1-.558-.744c.496-1.167.222-1.982.222-1.982-.391.21-.578 1.375-.578 1.375l-.001.002c-.154-.29-.3-.606-.43-.95.792-.632.839-1.492.839-1.492-.518.159-.935.707-1.05.871a9.46 9.46 0 0 1-.161-.614s-.034-.17-.059-.465c.218-.162.973-.765 1.377-1.563 0 0 .023-.12-.107-.057 0 0-.717.336-1.297.984 0-.356.023-.78.095-1.247.236-.043.842-.226 1.536-1 0 0 .05-.118-.142-.078 0 0-.63.018-1.275.467a7.29 7.29 0 0 1 .434-1.291c.797.11 1.696-.53 1.696-.53.158-.084.096-.163.096-.163-.55-.161-1.3.05-1.5.113.172-.305.374-.61.611-.907 1.433.09 1.812-.282 1.812-.282.068-.05 0-.08 0-.08-.39-.29-1.073-.213-1.342-.168.22-.225.464-.444.733-.654.792.189 1.633-.15 1.633-.15.193-.08.09-.148.09-.148-.236-.183-.768-.178-1.077-.158.289-.183.601-.357.94-.52 0 0 1.219-.096 1.81-.8 0 0 .122-.077-.121-.095 0 0-1.034-.25-1.936.468 0 0-.329.16-.81.496.123-.371.11-.75.11-.75.008-.197-.11-.09-.11-.09-.7.702-.779 1.228-.775 1.444a9.467 9.467 0 0 0-.759.734l.012-.033s.175-.492.142-1.234c0 0-.029-.13-.108 0 0 0-.635.798-.487 1.782-.223.281-.44.589-.64.924-.021-.21-.116-.955-.373-1.15 0 0-.377.908.03 1.788a7.863 7.863 0 0 0-.444 1.144c-.066-.158-.392-.922-.543-.972 0 0-.401.597.349 1.762a8.072 8.072 0 0 0-.047.268s-.045.348-.033.904c-.247-.282-.776-.858-.914-.755 0 0-.148.724.978 1.667.036.3.09.624.17.962l-1.08-.71c.187 1.018 1.338 1.596 1.338 1.596.095.265.207.534.34.802-.225-.108-1.008-.47-1.23-.355 0 0 .348.833 1.577.979.178.284.382.564.616.834l-.015-.007s-.803-.232-1.301-.09c0 0 .22.543 1.896.69l.002-.003c.363.325.781.627 1.261.895l-.43.758h4.166l.01.01-.862.861.274.275.877-.878.267.238.266-.238.877.878.274-.275-.862-.862.01-.008h4.165l-.43-.76a7.02 7.02 0 0 0 1.258-.894l.002.003c1.676-.147 1.897-.69 1.897-.69-.498-.142-1.302.09-1.302.09l-.015.007c.234-.27.438-.55.616-.834 1.23-.146 1.578-.979 1.578-.979-.223-.116-1.006.247-1.23.355.132-.268.244-.537.339-.802 0 0 1.151-.578 1.338-1.596ZM54.044 70.39c-.02-.189-.142-.368-.342-.368-.229 0-.356.136-.356.365 0 .48.869.336.869 1.031 0 .4-.33.608-.701.608a1.03 1.03 0 0 1-.46-.13c-.015-.148-.036-.293-.05-.44l.08-.018c.036.247.175.46.45.46.197 0 .356-.124.356-.33 0-.512-.851-.353-.851-1.05 0-.377.266-.6.64-.6.081 0 .327.031.417.043 0 .136.012.275.029.414l-.081.015ZM55.016 71.73c0 .157.121.166.226.166h.055v.087c-.128 0-.313-.012-.47-.012-.148 0-.321.012-.437.012v-.087h.04c.105 0 .215-.014.215-.165v-1.518c0-.15-.11-.165-.215-.165h-.04v-.087c.116 0 .29.011.437.011.157 0 .342-.011.47-.011v.087h-.055c-.105 0-.226.008-.226.165v.634h1.051v-.634c0-.156-.122-.165-.226-.165h-.055v-.087c.128 0 .313.011.47.011.147 0 .321-.011.437-.011v.087h-.04c-.105 0-.215.014-.215.165v1.518c0 .15.11.165.214.165h.041v.087c-.116 0-.29-.012-.438-.012-.156 0-.341.012-.469.012v-.087h.055c.104 0 .226-.009.226-.165v-.721h-1.051v.72ZM57.683 70.285h-.006l-.27.82h.542l-.266-.82Zm-.423 1.284c-.03.098-.064.174-.064.226 0 .087.122.101.217.101h.032v.087a7.07 7.07 0 0 0-.35-.011c-.105 0-.21.005-.313.011v-.087h.017c.113 0 .209-.066.252-.188l.464-1.33c.037-.107.09-.252.107-.359.092-.032.208-.09.263-.125.01-.003.015-.005.024-.005.008 0 .014 0 .02.008l.026.073.533 1.515c.035.101.07.209.107.295.035.082.096.116.191.116h.018v.087c-.13-.006-.261-.011-.4-.011-.142 0-.287.005-.435.011v-.087h.032c.067 0 .18-.011.18-.084a.94.94 0 0 0-.058-.208l-.113-.336h-.658l-.092.3ZM60.76 71.412l.006-.006V70.32c0-.238-.166-.272-.252-.272h-.064v-.087c.136 0 .27.011.405.011.119 0 .238-.011.357-.011v.087h-.044c-.121 0-.258.023-.258.367v1.319c0 .101.003.202.018.292h-.11l-1.492-1.663v1.194c0 .252.049.339.272.339h.05v.087c-.125 0-.25-.012-.375-.012-.13 0-.263.012-.394.012v-.087h.041c.2 0 .26-.136.26-.368v-1.22a.26.26 0 0 0-.263-.26h-.038v-.087c.11 0 .224.011.334.011.087 0 .17-.011.258-.011l1.289 1.451ZM63.222 70.526c-.087-.356-.333-.481-.672-.481-.518 0-.773.382-.773.866 0 .478.228.988.782.988.139.003.284-.02.321-.055v-.472c0-.119-.113-.148-.22-.148h-.037v-.087c.144.006.29.012.434.012.13 0 .258-.006.388-.012v.087h-.038c-.1 0-.156.046-.156.148v.44l.067.038v.052c-.258.072-.51.124-.809.124-.648 0-1.138-.388-1.138-1.086 0-.672.573-1.023 1.159-1.023.18 0 .304.026.417.053.113.026.211.052.327.055 0 .107 0 .327.035.495l-.087.006ZM64.187 71.73c0 .157.122.166.226.166h.055v.087c-.127 0-.313-.012-.469-.012-.148 0-.322.012-.437.012v-.087h.04c.104 0 .215-.014.215-.165v-1.518c0-.15-.11-.165-.215-.165h-.04v-.087c.116 0 .29.011.437.011.157 0 .342-.011.47-.011v.087h-.056c-.104 0-.226.008-.226.165v.634h1.052v-.634c0-.156-.122-.165-.226-.165h-.055v-.087c.127 0 .313.011.47.011.147 0 .32-.011.437-.011v.087h-.04c-.105 0-.215.014-.215.165v1.518c0 .15.11.165.214.165h.04v.087c-.115 0-.289-.012-.437-.012-.156 0-.342.012-.469.012v-.087h.055c.104 0 .226-.009.226-.165v-.721h-1.052v.72ZM66.855 70.285h-.006l-.27.82h.542l-.266-.82Zm-.424 1.284c-.028.098-.063.174-.063.226 0 .087.121.101.217.101h.032v.087a7.077 7.077 0 0 0-.35-.011c-.105 0-.21.005-.313.011v-.087h.017c.113 0 .208-.066.252-.188l.463-1.33c.038-.107.09-.252.108-.359a1.51 1.51 0 0 0 .263-.125c.009-.003.015-.005.023-.005.01 0 .015 0 .02.008.01.023.018.05.027.073l.533 1.515c.035.101.07.209.107.295.035.082.096.116.191.116h.018v.087c-.13-.006-.261-.011-.4-.011-.142 0-.287.005-.435.011v-.087h.032c.067 0 .18-.011.18-.084a.937.937 0 0 0-.058-.208l-.113-.336h-.658l-.093.3ZM68.052 71.896h.04c.105 0 .215-.014.215-.165v-1.518c0-.15-.11-.165-.214-.165h-.04v-.087c.112 0 .286.011.428.011.145 0 .319-.011.455-.011v.087h-.04c-.105 0-.215.014-.215.165v1.518c0 .15.11.165.214.165h.04v.087c-.138 0-.312-.012-.457-.012-.142 0-.313.012-.426.012v-.087ZM69.822 71.896h.04c.105 0 .215-.014.215-.165v-1.518c0-.15-.11-.165-.214-.165h-.041v-.087c.113 0 .287.011.429.011.145 0 .318-.011.455-.011v.087h-.04c-.105 0-.215.014-.215.165v1.518c0 .15.11.165.214.165h.04v.087c-.138 0-.312-.012-.457-.012-.142 0-.313.012-.426.012v-.087ZM72.666 71.412l.006-.006V70.32c0-.238-.165-.272-.252-.272h-.064v-.087c.136 0 .27.011.406.011.118 0 .237-.011.356-.011v.087h-.043c-.122 0-.258.023-.258.367v1.319c0 .101.003.202.017.292h-.11l-1.492-1.663v1.194c0 .252.05.339.272.339h.05v.087c-.125 0-.25-.012-.374-.012-.13 0-.264.012-.394.012v-.087h.04c.2 0 .261-.136.261-.368v-1.22a.26.26 0 0 0-.263-.26h-.038v-.087c.11 0 .223.011.333.011.087 0 .171-.011.258-.011l1.29 1.451ZM73.553 70.106c-.218 0-.226.052-.27.263h-.087c.012-.08.026-.162.035-.246.012-.081.018-.162.018-.246h.07c.022.087.095.084.173.084h1.495c.078 0 .15-.003.156-.09l.07.012c-.012.078-.023.156-.032.234-.006.079-.006.157-.006.235l-.087.032c-.006-.107-.02-.278-.214-.278h-.475v1.541c0 .223.101.25.24.25h.055v.086c-.113 0-.316-.012-.472-.012-.174 0-.377.012-.49.012v-.087h.055c.16 0 .24-.014.24-.243v-1.547h-.474ZM75.306 71.896h.04c.105 0 .215-.014.215-.165v-1.518c0-.15-.11-.165-.215-.165h-.04v-.087c.177 0 .478.011.721.011.244 0 .545-.011.742-.011-.006.124-.003.316.006.443l-.087.023c-.015-.188-.05-.339-.353-.339h-.403v.76h.344c.174 0 .212-.1.23-.256h.086a6.722 6.722 0 0 0 0 .67l-.087.017c-.017-.174-.026-.287-.226-.287h-.347v.675c0 .189.168.189.353.189.348 0 .501-.024.588-.354l.081.02a6.519 6.519 0 0 0-.098.46c-.185 0-.519-.01-.78-.01-.26 0-.605.01-.77.01v-.086ZM77.717 70.94h.142c.29 0 .446-.11.446-.452 0-.258-.165-.423-.423-.423-.087 0-.124.009-.165.012v.863Zm-.37-.672c0-.212-.117-.22-.206-.22h-.053v-.087c.093 0 .273.011.45.011.173 0 .312-.011.466-.011.365 0 .69.099.69.51 0 .26-.174.42-.403.51l.495.741c.081.122.14.157.281.174v.087c-.095 0-.188-.012-.284-.012-.09 0-.182.012-.272.012a8.118 8.118 0 0 1-.603-.939h-.19v.62c0 .223.103.232.236.232h.053v.087c-.165 0-.333-.012-.499-.012-.139 0-.275.012-.42.012v-.087h.053c.107 0 .205-.05.205-.156v-1.472ZM81.033 71.412l.006-.006V70.32c0-.238-.165-.272-.252-.272h-.064v-.087c.136 0 .27.011.406.011.119 0 .237-.011.356-.011v.087h-.043c-.122 0-.258.023-.258.367v1.319c0 .101.003.202.017.292h-.11L79.6 70.363v1.194c0 .252.05.339.272.339h.05v.087c-.125 0-.25-.012-.374-.012-.13 0-.264.012-.394.012v-.087h.04c.2 0 .261-.136.261-.368v-1.22a.26.26 0 0 0-.263-.26h-.038v-.087c.11 0 .223.011.333.011.087 0 .171-.011.258-.011l1.29 1.451ZM82.375 70.285h-.006l-.27.82h.542l-.266-.82Zm-.423 1.284c-.03.098-.064.174-.064.226 0 .087.121.101.217.101h.032v.087a7.077 7.077 0 0 0-.35-.011c-.105 0-.21.005-.313.011v-.087h.017c.113 0 .209-.066.252-.188l.464-1.33c.037-.107.09-.252.107-.359.092-.032.208-.09.263-.125.009-.003.015-.005.024-.005.008 0 .014 0 .02.008l.026.073.533 1.515c.035.101.07.209.107.295.035.082.096.116.191.116h.018v.087c-.13-.006-.261-.011-.4-.011-.142 0-.287.005-.435.011v-.087h.032c.067 0 .18-.011.18-.084a.942.942 0 0 0-.058-.208l-.113-.336h-.658l-.092.3ZM83.71 70.106c-.217 0-.226.052-.27.263h-.086c.011-.08.026-.162.034-.246.012-.081.018-.162.018-.246h.07c.023.087.095.084.173.084h1.495c.078 0 .15-.003.156-.09l.07.012a6.466 6.466 0 0 0-.032.234c-.006.079-.006.157-.006.235l-.086.032c-.006-.107-.02-.278-.215-.278h-.475v1.541c0 .223.101.25.24.25h.055v.086c-.112 0-.315-.012-.472-.012-.174 0-.376.012-.49.012v-.087h.056c.159 0 .24-.014.24-.243v-1.547h-.475ZM85.449 71.896h.04c.105 0 .215-.014.215-.165v-1.518c0-.15-.11-.165-.215-.165h-.04v-.087c.113 0 .286.011.428.011.145 0 .319-.011.455-.011v.087h-.04c-.105 0-.215.014-.215.165v1.518c0 .15.11.165.215.165h.04v.087c-.139 0-.313-.012-.458-.012-.141 0-.312.012-.425.012v-.087ZM87.603 71.899c.562 0 .66-.496.66-.919 0-.422-.228-.935-.71-.935-.506 0-.657.452-.657.84 0 .518.238 1.014.707 1.014Zm-.043-1.982c.617 0 1.11.383 1.11 1 0 .666-.479 1.11-1.096 1.11-.614 0-1.083-.418-1.083-1.04 0-.603.466-1.07 1.069-1.07ZM90.709 71.412l.006-.006V70.32c0-.238-.165-.272-.252-.272h-.064v-.087c.136 0 .27.011.406.011.118 0 .237-.011.356-.011v.087h-.043c-.122 0-.258.023-.258.367v1.319c0 .101.002.202.017.292h-.11l-1.492-1.663v1.194c0 .252.05.339.272.339h.05v.087c-.125 0-.25-.012-.374-.012-.13 0-.264.012-.394.012v-.087h.04c.2 0 .261-.136.261-.368v-1.22a.26.26 0 0 0-.264-.26h-.037v-.087c.11 0 .223.011.333.011.087 0 .17-.011.258-.011l1.289 1.451ZM92.051 70.285h-.005l-.27.82h.542l-.267-.82Zm-.423 1.284c-.029.098-.064.174-.064.226 0 .087.122.101.218.101h.032v.087a7.081 7.081 0 0 0-.35-.011c-.105 0-.21.005-.314.011v-.087h.018c.113 0 .208-.066.252-.188l.463-1.33c.038-.107.09-.252.107-.359.093-.032.21-.09.264-.125.009-.003.015-.005.023-.005.009 0 .015 0 .02.008.01.023.018.05.027.073l.533 1.515c.034.101.07.209.107.295.035.082.096.116.191.116h.017v.087c-.13-.006-.26-.011-.4-.011-.141 0-.286.005-.434.011v-.087h.032c.067 0 .18-.011.18-.084a.942.942 0 0 0-.058-.208l-.113-.336h-.658l-.093.3ZM93.902 71.699c0 .116.081.15.174.162.119.009.25.009.383-.006a.415.415 0 0 0 .278-.156.652.652 0 0 0 .09-.209h.084c-.032.165-.073.328-.108.493-.255 0-.51-.012-.765-.012s-.51.012-.764.012v-.087h.04c.105 0 .218-.015.218-.194v-1.49c0-.15-.114-.165-.218-.165h-.04v-.086c.153 0 .304.011.457.011.148 0 .293-.011.44-.011v.087H94.1c-.11 0-.197.002-.197.156v1.495ZM96.942 70.39c-.02-.189-.142-.368-.342-.368-.229 0-.356.136-.356.365 0 .48.869.336.869 1.031 0 .4-.33.608-.701.608a1.03 1.03 0 0 1-.46-.13c-.015-.148-.036-.293-.05-.44l.081-.018c.035.247.174.46.45.46.196 0 .355-.124.355-.33 0-.512-.851-.353-.851-1.05 0-.377.266-.6.64-.6.08 0 .327.031.417.043 0 .136.012.275.029.414l-.081.015ZM97.626 70.106c-.218 0-.227.052-.27.263h-.087c.012-.08.026-.162.035-.246.011-.081.017-.162.017-.246h.07c.023.087.095.084.174.084h1.495c.078 0 .15-.003.156-.09l.07.012a6.697 6.697 0 0 0-.032.234c-.006.079-.006.157-.006.235l-.087.032c-.006-.107-.02-.278-.214-.278h-.476v1.541c0 .223.102.25.24.25h.056v.086c-.113 0-.316-.012-.472-.012-.174 0-.377.012-.49.012v-.087h.055c.16 0 .24-.014.24-.243v-1.547h-.474ZM99.633 70.26c0-.21-.108-.212-.223-.212h-.035v-.087c.124 0 .278.011.46.011.174 0 .319-.011.435-.011v.087h-.035c-.116 0-.232.003-.232.211v1c0 .368.137.623.551.623.382 0 .55-.244.55-.635v-.988c0-.208-.11-.211-.208-.211h-.058v-.087c.116 0 .234.011.35.011.113 0 .223-.011.336-.011v.087h-.061c-.078 0-.185.003-.185.211v.924c0 .655-.347.843-.779.843-.556 0-.866-.202-.866-.72v-1.047ZM102.257 71.65c0 .203.092.229.301.229.493 0 .747-.412.747-.858 0-.765-.388-.956-.851-.956-.067 0-.133.009-.197.015v1.57Zm-.626.246h.04c.105 0 .215-.014.215-.165v-1.518c0-.15-.11-.165-.215-.165h-.04v-.087c.087 0 .278.011.464.011.185 0 .341-.011.466-.011.713 0 1.15.4 1.15 1.005 0 .58-.487 1.052-1.075 1.017a12.67 12.67 0 0 0-.527-.012c-.197 0-.403.012-.478.012v-.087ZM103.871 71.896h.041c.104 0 .214-.014.214-.165v-1.518c0-.15-.11-.165-.214-.165h-.041v-.087c.113 0 .287.011.429.011.145 0 .319-.011.455-.011v.087h-.041c-.104 0-.214.014-.214.165v1.518c0 .15.11.165.214.165h.041v.087c-.139 0-.313-.012-.458-.012-.142 0-.313.012-.426.012v-.087ZM104.85 71.896h.041c.104 0 .214-.014.214-.165v-1.518c0-.15-.11-.165-.214-.165h-.041v-.087c.177 0 .478.011.721.011.244 0 .545-.011.742-.011a4.38 4.38 0 0 0 .006.443l-.087.023c-.015-.188-.049-.339-.354-.339h-.402v.76h.345c.173 0 .211-.1.228-.256h.087a6.387 6.387 0 0 0 0 .67l-.087.017c-.017-.174-.026-.287-.226-.287h-.347v.675c0 .189.168.189.353.189.348 0 .501-.024.588-.354l.081.02a6.87 6.87 0 0 0-.098.46c-.185 0-.519-.01-.779-.01-.261 0-.606.01-.771.01v-.086ZM107.724 70.39c-.02-.189-.142-.368-.342-.368-.229 0-.356.136-.356.365 0 .48.869.336.869 1.031 0 .4-.33.608-.701.608-.162 0-.319-.057-.461-.13-.014-.148-.034-.293-.049-.44l.081-.018c.035.247.174.46.449.46.197 0 .357-.124.357-.33 0-.512-.852-.353-.852-1.05 0-.377.267-.6.64-.6.081 0 .328.031.417.043 0 .136.012.275.029.414l-.081.015ZM109.129 70.26c0-.21-.107-.212-.223-.212h-.035v-.087c.124 0 .278.011.461.011.173 0 .318-.011.434-.011v.087h-.035c-.116 0-.231.003-.231.211v1c0 .368.136.623.55.623.382 0 .55-.244.55-.635v-.988c0-.208-.11-.211-.208-.211h-.058v-.087c.116 0 .235.011.351.011.112 0 .223-.011.335-.011v.087h-.06c-.079 0-.186.003-.186.211v.924c0 .655-.347.843-.779.843-.556 0-.866-.202-.866-.72v-1.047ZM112.994 71.412l.006-.006V70.32c0-.238-.165-.272-.252-.272h-.064v-.087c.137 0 .27.011.406.011.119 0 .237-.011.356-.011v.087h-.043c-.122 0-.258.023-.258.367v1.319c0 .101.003.202.017.292h-.11l-1.492-1.663v1.194c0 .252.05.339.273.339h.049v.087c-.125 0-.249-.012-.374-.012-.13 0-.263.012-.394.012v-.087h.041c.2 0 .261-.136.261-.368v-1.22a.26.26 0 0 0-.264-.26h-.038v-.087c.11 0 .223.011.333.011.087 0 .171-.011.258-.011l1.289 1.451ZM113.527 71.896h.04c.105 0 .215-.014.215-.165v-1.518c0-.15-.11-.165-.215-.165h-.04v-.087c.113 0 .286.011.428.011.145 0 .319-.011.455-.011v.087h-.04c-.105 0-.215.014-.215.165v1.518c0 .15.11.165.215.165h.04v.087c-.139 0-.313-.012-.457-.012-.142 0-.313.012-.426.012v-.087ZM115.347 70.048h-.068c-.107 0-.15.043-.15.08 0 .015.011.056.026.094l.495 1.289h.006l.46-1.205a.43.43 0 0 0 .038-.163c0-.084-.086-.095-.185-.095h-.049v-.087c.101 0 .211.011.336.011.09 0 .182-.011.266-.011v.087h-.028c-.053 0-.108.008-.155.101-.022.04-.446 1.11-.634 1.59-.038.096-.083.192-.119.287h-.106l-.736-1.813c-.056-.136-.116-.165-.244-.165h-.029v-.087c.148 0 .299.011.446.011.142 0 .345-.011.43-.011v.087ZM116.598 71.896h.041c.105 0 .215-.014.215-.165v-1.518c0-.15-.11-.165-.215-.165h-.041v-.087c.178 0 .479.011.722.011s.545-.011.742-.011c-.006.124-.003.316.005.443l-.086.023c-.015-.188-.049-.339-.354-.339h-.403v.76h.345c.174 0 .212-.1.229-.256h.087a6.387 6.387 0 0 0 0 .67l-.087.017c-.017-.174-.026-.287-.226-.287h-.348v.675c0 .189.169.189.354.189.347 0 .501-.024.588-.354l.081.02a6.879 6.879 0 0 0-.099.46c-.185 0-.518-.01-.779-.01-.26 0-.605.01-.771.01v-.086ZM119.009 70.94h.142c.29 0 .447-.11.447-.452 0-.258-.166-.423-.424-.423-.087 0-.124.009-.165.012v.863Zm-.371-.672c0-.212-.115-.22-.205-.22h-.052v-.087c.092 0 .272.011.449.011.173 0 .313-.011.466-.011.365 0 .69.099.69.51 0 .26-.174.42-.403.51l.495.741c.081.122.14.157.282.174v.087c-.097 0-.189-.012-.284-.012-.09 0-.183.012-.273.012a8.215 8.215 0 0 1-.603-.939h-.191v.62c0 .223.104.232.238.232h.052v.087c-.165 0-.334-.012-.499-.012-.139 0-.275.012-.419.012v-.087h.052c.106 0 .205-.05.205-.156v-1.472ZM121.563 70.39c-.02-.189-.142-.368-.342-.368-.228 0-.356.136-.356.365 0 .48.869.336.869 1.031 0 .4-.33.608-.701.608-.162 0-.319-.057-.461-.13-.014-.148-.034-.293-.049-.44l.082-.018c.034.247.173.46.448.46.197 0 .357-.124.357-.33 0-.512-.852-.353-.852-1.05 0-.377.266-.6.64-.6.081 0 .327.031.417.043 0 .136.012.275.029.414l-.081.015ZM121.893 71.896h.04c.105 0 .215-.014.215-.165v-1.518c0-.15-.11-.165-.215-.165h-.04v-.087c.113 0 .287.011.429.011.145 0 .319-.011.454-.011v.087h-.04c-.104 0-.214.014-.214.165v1.518c0 .15.11.165.214.165h.04v.087c-.138 0-.312-.012-.457-.012-.142 0-.313.012-.426.012v-.087ZM123.212 70.106c-.217 0-.226.052-.27.263h-.086c.011-.08.025-.162.034-.246.012-.081.018-.162.018-.246h.069c.023.087.096.084.174.084h1.495c.078 0 .151-.003.157-.09l.069.012a6.254 6.254 0 0 0-.032.234c-.005.079-.005.157-.005.235l-.088.032c-.005-.107-.02-.278-.214-.278h-.475v1.541c0 .223.101.25.24.25h.055v.086c-.113 0-.316-.012-.472-.012-.173 0-.376.012-.489.012v-.087h.055c.159 0 .24-.014.24-.243v-1.547h-.475ZM125.831 71.039l-.579-.794c-.088-.122-.143-.197-.279-.197h-.029v-.087c.157 0 .299.011.455.011.151 0 .29-.011.428-.011v.087h-.037c-.078 0-.15.02-.15.067 0 .031.034.069.052.095l.437.614.359-.518c.052-.084.09-.134.09-.189 0-.06-.124-.07-.165-.07h-.052v-.086c.11 0 .22.011.33.011.092 0 .185-.011.275-.011v.087c-.098 0-.179.07-.226.133l-.539.762v.692c0 .247.088.261.241.261h.055v.087c-.171 0-.345-.012-.472-.012-.146 0-.319.012-.49.012v-.087h.055c.171 0 .241-.046.241-.237v-.62ZM61.056 59.377c-.213.02-.422.158-.621.135-.344-.04-.34-.074-.68-.162 0 0-.469-.118-.534-.133-.004.065-.012.13-.01.196.025.94.076 1.735.066 2.674-.004.318-.147.782-.247 1.094-.166.515.154.548.519.545.74-.006 1.482-.063 2.217-.007.46.036 1.01.048 1.277.544.097.181.09.452.05.667-.074.4-1.113.984-1.516.94a5.265 5.265 0 0 0-1.223-.013c-.819.103-1.629.28-2.448.385-.42.054-.852-.007-1.274.035-.55.055-1.093.201-1.643.232-.433.024-.92.04-1.297-.13-.666-.3-.924-1.61-.443-1.998.155-.126.436-.11.663-.131.639-.063 1.28-.115 1.92-.164.478-.037.578-.366.59-.564.056-.96.047-1.924.121-2.882.06-.766.22-1.522.304-2.286.06-.554.033-1.12.123-1.668.037-.222.24-.489.44-.596.441-.234.72.052.906.435.155.318.268.664.467.95.084.121.347.183.519.166.778-.078 1.55-.222 2.33-.28.242-.017.655.108.712.267.11.31.143.755-.008 1.024-.25.449-.703.67-1.28.725ZM68.243 63.788c.01.178-.02.329.034.437.044.087.23.197.283.168.152-.083.278-.222.397-.356.141-.159.354-.423.465-.604.038-.062.013-.181-.045-.213-.191-.103-.421-.19-.626-.174-.151.011-.374.229-.472.369-.07.1-.03.276-.036.373Zm2.77-.446c-.035-.119-.135-.254-.244-.259-.13-.006-.314.148-.444.296-.13.15-.203.35-.33.504-.257.313-.537.608-.801.915-.023.027-.04.1-.009.133.028.029.084.012.12 0 .226-.069.447-.158.677-.211.404-.095 1.086-.89 1.03-1.378Zm.408-.917c.318.02.389-.002.456-.122.222-.394.231-.915.23-1.366 0-.152-.274-.347-.44-.391a.375.375 0 0 0-.332.106c-.248.28-.319.54-.467.847a3.448 3.448 0 0 0-.218.639c-.015.06-.004.175.085.203.222.044.387.066.686.084Zm-4.086 2.314c-.013-.242-.053-.485-.03-.723.014-.14.14-.267.192-.408a.248.248 0 0 0-.039-.21c-.03-.034-.127-.02-.192-.012-.089.01-.186.068-.263.045-.499-.148-.544.25-.673.546-.169.385-.334.77-.503 1.156-.139.316-.275.634-.422.946-.236.499-.793.823-1.335.714-.143-.028-.35-.289-.34-.429.044-.606.169-1.206.244-1.81.061-.486.084-.978.143-1.464.037-.297.047-.623.181-.877.16-.3.42-.166.592.047.256.32.552.642.361 1.106-.056.136-.183.244-.228.382-.076.234-.126.48-.158.725-.01.072.06.214.114.224.078.014.22-.037.252-.102.322-.64.631-1.286.936-1.933.105-.223.142-.57.291-.679.054-.038.176-.012.265.006.445.09.9.219 1.291-.121.108-.094.129-.282.203-.42.267-.498.527-1 .815-1.486.263-.443.568-.86.833-1.3.068-.114.062-.113.047-.223-.01-.072-.145-.142-.225-.16-.47-.105-.725.16-.978.496-.08.106-.327.19-.434.144-.136-.06-.314-.291-.287-.403.147-.601.31-1.207.56-1.77.078-.174.482-.266.684-.313.063-.015.227.091.246.167.144.59.546.783 1.112.542.312-.133.638-.097.837.202.192.29.231.582-.044.907-.388.46-.695.988-1.056 1.473-.278.373-.604.711-.874 1.089-.197.274-.352.58-.497.885-.076.16-.205.422-.123.504.22.22.583.297.884.29.11-.002.228-.416.27-.656.095-.524.074-1.079.24-1.575.072-.216.473-.393.752-.452a4.944 4.944 0 0 1 1.337-.078c.403.027.61.332.665.725.09.632-.052 1.219-.336 1.783-.023.046.043.184.102.219.275.163.602.261.831.47.134.12.306.374.237.58-.056.163-.227.13-.332.157-.13.033-.311.017-.435.002-.381-.045-.751-.176-1.128-.264-.122-.028-.152.12-.126.053-.132.35-.366.684-.035 1.073.102.12.152.412.076.531-.143.226-.367.488-.605.55-.693.177-1.409.274-2.118.382-.334.05-.692.127-1.007.053-.209-.049-.393-.324-.527-.536-.14-.224-.264-.761-.243-.77ZM89.74 62.864c.165-.059.416-.302.453-.47.062-.286.123-.584-.007-.822-.198-.364-.428-.59-.806-.972-.075-.075-.343-.255-.444-.256-.25-.003-.421.365-.464.558a13 13 0 0 0-.226 1.622c-.008.09.07.185.127.21.067.027.885.3 1.367.13Zm.703 1.713c.817.037 1.656-.168 2.5-.219.123-.007.337.163.365.284.027.12-.101.37-.212.405-.286.092-.2.051-.502.091-.026.004-.374-.033-.482.04-.756.518-1.5.32-2.266.23-.518-.06-1.026-.204-1.539-.305-.046-.009-.127.007-.145.038-.022.038.01.105.008.16-.012.292.04.605-.067.87-.06.15-.366.12-.53.07a.71.71 0 0 1-.398-.363c-.337-.8.019-1.594.088-2.386.076-.87.271-1.729.412-2.593.07-.43.11-.866.217-1.286.033-.128.246-.297.378-.297.556 0 1.12.012 1.664.115.206.038.388.316.534.518.186.257.331.544.481.825.137.257.376.534.355.784-.027.316-.272.614-.423.92-.065.132-.128.266-.192.4.185.033.37.087.555.094.309.011.635-.027.651-.425.011-.255-.07-.517-.129-.771-.134-.583-.278-1.162-.42-1.742-.066-.265-.188-.529-.184-.792.003-.135.134-.35.312-.354a.669.669 0 0 1 .354.117c.463.38.194.844.32 1.244.127.406.256.817.446 1.194.13.13.428.163.539-.035.158-.386.294-.8.324-1.213.025-.316-.18-.648-.167-.968.008-.2.085-.517.358-.585.13-.033.405.223.497.393.118.223.036.606.194.744.494.43.104.81.017 1.205-.075.341-.147.688-.275 1.011-.135.344-.086.414-.27.737-.056.099-.38.503-.469.581-.26.227-.52.417-.816.579-.173.094-.442 0-.665.02-.762.072-1.54-.039-2.253.24-.06.024-.213.083-.204.162.008.068.115.086.178.099.274.058.544.15.861.164ZM125.023 60.45c.302-.063.392-.357.51-.584.054-.105.018-.306-.05-.419-.124-.204-.3-.376-.458-.558-.038-.045-.088-.078-.133-.117-.037.055-.081.105-.107.165-.086.199-.192.395-.237.604-.049.224-.095.479-.029.685.038.122.248.279.504.225Zm-3.082-1.318c-.029-.472.145-1.008.257-1.54.021-.1.134-.234.242-.245.143-.013.278.172.291.28.063.534.357 1.052.121 1.617-.029.069.066.266.192.294.215.049.445-.17.537-.34.183-.343.354-.731.376-1.11.02-.347-.178-.703-.247-1.062-.027-.14-.017-.383.064-.432.53-.316.953-.066 1.059.6.034.216.006.454.088.648.076.181.25.326.4.467.087.08.207.129.32.174.122.05.252.079.378.117.02-.2.088-.408.05-.595-.086-.426-.261-.835-.329-1.262-.066-.416.271-.545.769-.329.325.14.46.398.465.733.006.44-.002.882-.001 1.324.001.403.063.815-.004 1.206-.106.633-.562 1.063-1.041 1.443-.425.336-.92.593-1.304.968-.267.261-.346.947-.532 1.107-.32.274-.305.706-.364 1.122-.012.09.257.222.4.331.19.146.503.228.582.336.25.346-.071.876-.273.992-.695.401-.586-.189-.838.501-.277.398-.667.733-1.058 1.03-.292.222-1.518-.006-1.777-.282-.06-.065-.087-.263-.046-.297a.85.85 0 0 1 .421-.194c.48-.05.895-.212 1.177-.614.042-.06-.023-.202-.052-.302-.115-.398-.424-.397-.754-.368-.252.023-.508.057-.76.032-.187-.018-.239-.16-.241-.21-.001-.034.045-.246.161-.318.416-.26.812-.49 1.269-.653.458-.164.621-.383.612-.873-.004-.265.247-.695.489-.882.249-.191.299-.394.456-.678.045-.085.106-.245.03-.325-.104-.111-.307-.02-.454.01-.166.031-.32.12-.486.162-.504.127-1.007.282-1.52.347-.212.026-.673-.108-.67-.25 0-.013-.006-.24.097-.28.788-.31 1.637-.438 2.458-.654.188-.05.377-.1.559-.171.076-.03.199-.082.197-.169-.004-.171-.254-.24-.404-.314-.225-.112-.411-.059-.519.205-.044.107-.118.276-.242.278-.15.001-.256-.202-.298-.331-.123-.374-.272-.749-.303-1.244ZM101.612 61.775c-.18-.658.562-.75.906-.883.504-.194.81-.523 1.116-.927.405-.532.456-1.119.35-1.73-.02-.113-.276-.195-.433-.272-.157-.077-.433-.016-.49-.194-.063-.2.137-.375.268-.494.638-.58 2.259-.565 2.7-.036.121.145.173.423.132.613-.107.495-.289.973-.42 1.463-.006.023.204.16.293.143.498-.094.744.164.943.57.191.392-.044.651-.225.935-.036.055-.116.084-.148.14-.122.22-.443.539.205.386.105-.025.321.189.39.337.041.087-.076.347-.175.383-.636.234-1.283.441-1.934.633-.614.18-1.238.327-1.855.498-.455.124-.9.297-1.362.373-.133.022-.442-.141-.467-.337-.022-.171.184-.325.323-.4.4-.213.813-.494 1.242-.537.514-.05.87-.286 1.195-.607.27-.267.489-.588.712-.898.04-.056.051-.21-.02-.267-.072-.059-.214-.013-.271.037-.516.455-1.031.911-1.522 1.391-.319.312-.717.38-1.091.292-.16-.038-.298-.376-.362-.612ZM108.948 65.492c.48.097.858-.371 1.238-.67.317-.25.539-.624.79-.953.22-.288.033-.84-.345-1.01-.38-.17-.742-.321-.584-.866.118-.41.841-.919 1.265-.887.226.017.538.033.667-.095.166-.166.236-.472.262-.725.071-.705.1-1.413.141-2.12.022-.392.308-.568.641-.37.679.401.613.398.398 1.346-.093.413-.145.837-.19 1.259-.006.055.129.19.21.167.234-.067.382-.319.6-.414a.914.914 0 0 1 .587-.023c.611.186.68.753.776 1.259.068.358-.12.665-.446.834-.193.1-.444.094-.627.205-.351.211-.657.498-1.011.704-.229.132-.521.151-.764.267-.122.058-.215.205-.288.331-.32.553-.613 1.123-.946 1.667-.195.319-.44.609-.68.897-.226.271-1.185.342-1.493.162-.172-.1-.407-.092-.577-.195-.142-.085-.319-.319-.32-.383-.003-.23.125-.399.372-.388.093.005.232-.018.324 0Z" clip-rule="evenodd"/><path fill="#0061A7" fill-rule="evenodd" d="M92.738 65.682c.522.19.723.023 1.23-.015.287-.022.516-.163.779-.284.1-.104.14-.067.201-.346.047-.435.075-.872.105-1.308.035-.52.08-1.04.096-1.562.023-.72.067-1.443.02-2.16-.04-.61-.18-1.216-.318-1.814-.02-.092-.272-.194-.41-.185-.734.042-1.478.057-2.194.203-.495.1-.917.12-1.287-.228-.138-.13-.31-.312-.297-.512.016-.276.353-.22.539-.24.777-.084 1.56-.123 2.337-.202a2.99 2.99 0 0 0 .813-.193c.428-.173.852-.222 1.236.041.39.267.382.702.382 1.132 0 .467.059.934.082 1.402.022.46.033.919.047 1.378.016.499.046.998.039 1.496-.008.514-.057 1.028-.08 1.541-.02.437.032.887-.058 1.308a5.73 5.73 0 0 1-.518 1.397 1.58 1.58 0 0 1-.64.651c-.215.11-.527.063-.792.041-.704-.057-1.43-.104-1.943-.676-.145-.162-.252-.45-.216-.651.025-.139.304-.408.502-.34l.345.126ZM76.09 61.165c-.054-.738.36-1.282.688-1.868.165-.293.257-.635.334-.966.08-.352.103-.718.158-1.076a.713.713 0 0 1 .082-.2c.223-.36.901-.272 1.587.017.191.081.31.53.237.734-.184.519-.508.987-.753 1.486a6.048 6.048 0 0 0-.315.842c-.016.05.048.162.103.192.665.36.838.74.684 1.487-.241 1.173-.92 2.073-1.748 2.894-.378.374-.702.802-1.068 1.19-.093.098-.293.222-.371.184-.208-.1-.472-.25-.54-.441-.129-.368-.13-.78-.202-1.17-.025-.136-.13-.257-.156-.393-.037-.19-.188-.45-.046-.583.126-.12.405-.021.508.075.657.614 1.486.46 1.857-.358.047-.103.194-.168.305-.233.473-.281.423-.776.463-1.21.033-.357-.286-.567-.562-.421-.143.075-.26.245-.403.266-.324.047-.644.04-.732-.05-.094-.095-.075-.259-.11-.398ZM81.227 65.066c-.043-.641-.017-1.286.003-1.928.035-1.142.128-2.282.12-3.423-.002-.48-.166-.97-.315-1.437-.18-.563.022-.984.592-1.173.239-.078.597.227.746.383.322.337.224.274.413.559.245.368.126.744.106 1.073a45.152 45.152 0 0 1-.193 2.348c-.073.633-.22 1.256-.296 1.889-.065.549-.064 1.106-.12 1.656-.03.298-.09.66-.189.882-.022.05-.114.111-.175.117-.201.022-.489-.032-.571-.159-.142-.215-.098-.425-.121-.787ZM106.062 64.856c-.167.449.057.615.166 1.083.126.544-.286.809-.706.859-.271.031-.608.006-.827-.132-.324-.203-.146-.465.063-.705.086-.098.193-.331.088-.442-.084-.09-.245.032-.367.038-.201.01-.421.068-.598.006-.409-.147-.512-.063-.658.436-.061.208-.277.48-.466.519-.352.074-.558-.165-.544-.55.008-.247-.005-.494.002-.74.004-.148.016-.297.048-.44.105-.468.42-.455.808-.387.419.074.858.129 1.275.08.248-.03.455-.32.711-.41.225-.08.504-.1.734-.043.158.039.274.122.335.367.049.194-.041.399-.064.461ZM98.452 63.279c-.214-.022-.303.135-.387.206-.257.218-.554.218-.76.01-.125-.126-.146-.408-.128-.613.056-.658.633-.561 1.057-.692.201-.062.392-.253.58-.243.681.034 1.202.481 1.309 1.228.106.742.102 1.503.094 2.256-.004.418-.087.841-.185 1.25-.079.331-.358.512-.67.37-.125-.058-.181-.374-.184-.573-.01-.619.04-1.238.026-1.857-.006-.29-.046-.608-.179-.855-.112-.208-.327-.462-.573-.487ZM85.498 63.117c-.427.044-.543-.35-.792-.612-.212-.222-.555-.317-.835-.475-.1-.057-.256-.127-.265-.206-.013-.108.039-.298.142-.333.51-.174 1.054-.242 1.59-.286.455-.037 1.218.706 1.253 1.142.043.511-.312.77-1.093.77ZM116.314 65.374c-.003.327-.344.514-.553.61-.185.085-.465.012-.688-.047-.278-.073-.544-.197-.81-.31-.271-.116-.333-.282-.152-.549.063-.093.059-.28.01-.392-.199-.461-.075-.637.417-.68.621-.054.982.298 1.354.688.101.105.423.344.422.68ZM120.671 60.435c-.112-.88.088-1.753.164-2.618.012-.122.161-.318.32-.306.109.009.18.139.19.233.08.802.174 1.604.189 2.408.005.234-.221.48-.367.703-.03.046-.224.056-.259.014-.1-.124-.218-.277-.237-.434ZM100.466 58.023c.325.007.568.283.607.444.083.346-.145.541-.506.645-.331.096-.617.337-.945.45-.158.056-.478.024-.527-.07-.081-.158-.086-.5.02-.586.406-.324.78-.895 1.351-.883ZM119.502 62.648c-.013.175-.11.434-.222.675-.05.11-.234.256-.309.236-.253-.069-.525-.328-.535-.512-.02-.387.124-.784.207-1.176.024-.118.038-.26.112-.34.1-.106.233-.253.386-.242.179.013.174.267.208.413.066.28.182.565.153.946ZM66.367 58.87c.007.336-.364.681-.736.688-.446.007-.791-.425-.79-1.016 0-.273.094-.455.437-.458.59-.006 1.156.333 1.09.787Z" clip-rule="evenodd"/></g><defs><filter id="a" width="154" height="157" x="0" y="0" color-interpolation-filters="sRGB" filterUnits="userSpaceOnUse"><feFlood flood-opacity="0" result="BackgroundImageFix"/><feColorMatrix in="SourceAlpha" result="hardAlpha" values="0 0 0 0 0 0 0 0 0 0 0 0 0 0 0 0 0 0 127 0"/><feOffset dy="16"/><feGaussianBlur stdDeviation="6.5"/><feColorMatrix values="0 0 0 0 0 0 0 0 0 0 0 0 0 0 0 0 0 0 0.03 0"/><feBlend in2="BackgroundImageFix" result="effect1_dropShadow_185_305"/><feBlend in="SourceGraphic" in2="effect1_dropShadow_185_305" result="shape"/></filter></defs></svg>