<svg xmlns="http://www.w3.org/2000/svg" xml:space="preserve" style="fill-rule:evenodd;clip-rule:evenodd;stroke-linejoin:round;stroke-miterlimit:2" viewBox="0 0 154 157"><path d="M53.158 64.241c0 7.123-5.794 12.918-12.917 12.918s-12.917-5.795-12.917-12.918c0-7.123 5.794-12.918 12.917-12.918s12.917 5.795 12.917 12.918ZM40.241 51C32.939 51 27 56.94 27 64.241c0 7.301 5.939 13.241 13.241 13.241s13.241-5.94 13.241-13.241C53.482 56.94 47.543 51 40.241 51Z" style="fill:#b62537" transform="translate(-74.956 -164.083) scale(3.77614)"/><path d="M52.866 64.241c0 6.961-5.664 12.627-12.625 12.627-6.962 0-12.626-5.666-12.626-12.627 0-6.962 5.664-12.625 12.626-12.625 6.961 0 12.625 5.663 12.625 12.625ZM40.241 51.493c-7.028 0-12.748 5.719-12.748 12.748 0 7.029 5.72 12.748 12.748 12.748 7.029 0 12.747-5.719 12.747-12.748 0-7.029-5.718-12.748-12.747-12.748Z" style="fill:#b62537" transform="translate(-74.956 -164.083) scale(3.77614)"/><path d="M36.216 52.859c-.018.476.423.227.705.205.097-.008.987-.355.862.01-.077.227-.368.153-.549.174a2.282 2.282 0 0 0-.656.193c-.193.089-.049.212.105.173.142-.035.276-.048.423-.041.351.021.72.123 1.008.328.147.104.566.519.303.644-.16.076-.38-.147-.495-.246-.182-.159-.304-.302-.548-.378a1.249 1.249 0 0 0-1.225.248c-.315.273-.547.583-.62.994-.031.171-.103.782-.384.579-.311-.224.131-.951.213-1.081a1.91 1.91 0 0 1 .201-.24c.053-.058.174-.201.267-.306.05-.058.214-.214.28-.267.098-.076.138-.213-.043-.205-.171.008-.248.109-.455.197-.208.088-.744.581-.845.289-.125-.361.675-.506.891-.593.051-.02.119-.043.172-.063a.452.452 0 0 0 .106-.063c.044-.059.077-.145.059-.187-.045-.107-.124-.24-.124-.351.087-.081.255-.086.349-.013ZM35.51 67.478l-.935-.501-.313.542c.224.153.334.384.363.652l1.671.893.51-.893-.836-.447 2.584-4.811c.013-.019.007-.039-.017-.053l-.395-.21c-.028-.013-.045-.007-.056.015l-2.576 4.813Z" style="fill:#b62537" transform="translate(-74.956 -164.083) scale(3.77614)"/><path d="M37.136 68.072a.105.105 0 0 0-.103.105v1.384c0 .075.062.138.137.138h6.564a.14.14 0 0 0 .138-.138v-1.352a.139.139 0 0 0-.138-.137h-6.598Zm-.083-.22h6.787c.139 0 .252.114.252.252v1.56c0 .14-.113.254-.252.254h-6.787a.253.253 0 0 1-.251-.254v-1.56c0-.138.113-.252.251-.252ZM36.6 60.125h2.305v.503H36.6zM36.6 60.891h2.305v.504H36.6zM36.6 61.657h2.305v.503H36.6zM41.263 64.326a.13.13 0 0 0-.128.129v.132c0 .07.06.128.128.128h1.053c.07 0 .128-.058.128-.128v-.132a.13.13 0 0 0-.128-.129h-1.053Zm-2.034.748a.128.128 0 0 0-.128.128v.132a.13.13 0 0 0 .128.129h2.342a.131.131 0 0 0 .131-.129v-.132a.13.13 0 0 0-.131-.128h-2.342Zm-.096.795a.13.13 0 0 0-.13.129v.132c0 .07.059.129.13.129h2.536a.13.13 0 0 0 .129-.129v-.132a.13.13 0 0 0-.129-.129h-2.536Zm-.688.844a.13.13 0 0 0-.128.13v.13c0 .071.058.13.128.13h3.91a.13.13 0 0 0 .13-.13v-.13a.13.13 0 0 0-.13-.13h-3.91Zm7.233-.372v.126c0 .031-.032.058-.073.058h-.142c-.04 0-.075-.027-.075-.058v-.126a.242.242 0 0 0-.121.208v.668c0 .132.107.239.237.239h.059a.239.239 0 0 0 .238-.239v-.668a.24.24 0 0 0-.123-.208Zm-7.503-2.015h.001l.827-1.545c.021-.035.004-.067-.022-.078l-.33-.171h7.957v.574c0-.023.003.247-.721.367-.07.009-.139.027-.209.037v.338a.39.39 0 0 1 .353.386v.919a.39.39 0 0 1-.353.386v.512a.389.389 0 0 1 .353.386v.9a.388.388 0 0 1-.388.387h-.219a.387.387 0 0 1-.387-.387v-.9c0-.201.155-.369.352-.386v-.512a.39.39 0 0 1-.352-.386v-.919a.39.39 0 0 1 .352-.386v-.295c-.566.096-1.111.263-1.528.743h-.503s-.217.101-.443.299a1.522 1.522 0 0 0-.406.534h-.173c-.001.001-.082.05-.161.13 0 .001-.003.002-.003.005l-.006.005-.005.006c-.002.002-.004.004-.004.006-.002.001-.003.004-.006.005-.002.001-.002.003-.004.006l-.004.004-.001.001-.003.004h-.002l-.003.007a.345.345 0 0 0-.087.268c.039.251.116.309.346.503.232.194.656.621.83.854.149.2.171.485.05.562a.122.122 0 0 1-.069.02l-5.574-.001c-.193 0-.193-.349-.019-.581.172-.233.599-.66.83-.854.231-.194.309-.252.347-.503.037-.253-.291-.447-.291-.447h-.174c-.061-.12-.187-.317-.305-.414h2.261a.13.13 0 0 0 .129-.128v-.132a.13.13 0 0 0-.129-.129h-2.104Zm-2.055-1.292c-.082-.001-.158.005-.2.07-.125.198-.098.741-.098.958h-.592l-.148-.144v-.99c.143-.231.504-.403 1.17-.403l1.441.001c.047 0 .062.039.049.064l-.79 1.471-.832.001v-1.028Zm9.343 1.983h.142c.041 0 .073.027.073.059v.165a.238.238 0 0 0 .123-.208v-.687c0-.09-.05-.168-.123-.208v.135c0 .03-.034.058-.073.058h-.142c-.04 0-.075-.027-.075-.058v-.135a.237.237 0 0 0-.121.208v.687c0 .09.05.167.121.208v-.165c0-.032.033-.059.075-.059ZM39.09 60.125h.398v.503h-.398z" style="fill:#b62537" transform="translate(-74.956 -164.083) scale(3.77614)"/><path d="M36.9 59.666c.703-.038 1.467-.275 2.131-.613l.207.458c-.731.351-1.555.588-2.218.621l-.12-.466ZM39.196 58.976l.371-.179.216.446-.371.179-.216-.446ZM39.09 60.891h.398v.504h-.398zM39.09 61.657h.398v.503h-.398zM42.55 60.108l.089.153.327-.182-.087-.154-.329.183Zm-.186-.336.089.154.327-.183-.089-.153-.327.182Zm-.464-.385.73-.402 1.533 2.783-.729.402-1.534-2.783Z" style="fill:#b62537" transform="translate(-74.956 -164.083) scale(3.77614)"/><path d="M41.293 60.124h.375v-.175h-.375v.175Zm0-.385h.375v-.174h-.375v.174Zm0-.384h.375v-.173h-.375v.173Zm-1.216.769h.375v-.175h-.375v.175Zm0-.385h.375v-.174h-.375v.174Zm0-.384h.375v-.173h-.375v.173Zm0-.384h.375v-.174h-.375v.174Zm-.303 3.195h.98v-3.87h-.98v3.87Zm1.268 0h.875v-3.543h-.875v3.543Z" style="fill:#b62537" transform="translate(-74.956 -164.083) scale(3.77614)"/><path d="m49.412 63.999-.719-.094a.096.096 0 0 1-.066-.038c-.004-.116-.008-.233-.018-.345a.069.069 0 0 1 .056-.042l.7-.187c.009-.005.024-.009.024-.037-.008-.061-.015-.131-.028-.21v-.009a4.997 4.997 0 0 0-.028-.206c-.005-.029-.019-.029-.032-.029h-.724c-.029 0-.053-.008-.066-.027a20.348 20.348 0 0 1-.07-.341c.009-.024.023-.037.051-.047l.673-.279c.01-.006.023-.01.014-.039-.014-.06-.028-.124-.051-.2v-.009c-.025-.075-.042-.145-.057-.206-.01-.023-.022-.023-.038-.023l-.719.098c-.028.005-.046 0-.07-.018a3.494 3.494 0 0 0-.112-.327.11.11 0 0 1 .046-.062l.632-.358c.009-.006.017-.015.009-.038-.018-.062-.046-.126-.075-.196l-.005-.004v-.005c-.032-.075-.06-.135-.083-.197-.01-.023-.024-.018-.037-.018l-.702.191a.078.078 0 0 1-.076-.014c-.045-.103-.098-.202-.148-.299 0-.033.014-.052.037-.07l.575-.44c.009-.009.019-.018.009-.041l-.102-.182s0-.005-.005-.005v-.005c-.043-.07-.075-.13-.108-.182-.013-.023-.028-.018-.042-.014l-.668.28c-.029.013-.051.009-.079-.005a12.645 12.645 0 0 0-.182-.27c-.01-.033 0-.056.024-.079l.511-.514c.011-.01.02-.018.006-.042a4.878 4.878 0 0 1-.126-.168h-.004v-.005h-.006c-.047-.065-.088-.117-.125-.169-.019-.018-.034-.012-.042-.004l-.626.36a.084.084 0 0 1-.085.005c-.069-.08-.14-.164-.216-.243a.089.089 0 0 1 .014-.08l.446-.574c.009-.01.013-.024-.005-.042a1.818 1.818 0 0 0-.145-.149v-.005h-.005v-.005h-.004a1.981 1.981 0 0 0-.15-.145c-.02-.019-.034-.008-.043-.004l-.575.443a.081.081 0 0 1-.079.014c-.079-.07-.164-.144-.242-.21-.015-.033-.015-.056.004-.085l.365-.63c.005-.009.009-.023-.01-.037-.051-.04-.103-.083-.168-.131v-.005h-.005v-.004a6.65 6.65 0 0 1-.168-.126c-.023-.014-.033-.005-.042.005l-.513.514c-.024.023-.048.032-.076.027a16.754 16.754 0 0 0-.275-.186.081.081 0 0 1-.005-.08l.28-.667c.004-.014.01-.03-.013-.042-.053-.034-.114-.066-.182-.108h-.006s0-.005-.004-.005c-.066-.037-.127-.07-.183-.103-.024-.009-.033 0-.042.011l-.438.573c-.021.029-.039.037-.071.037a6.924 6.924 0 0 0-.299-.148.073.073 0 0 1-.014-.076l.192-.699c0-.01.004-.029-.02-.038-.059-.023-.121-.052-.195-.085h-.011c-.07-.033-.135-.055-.195-.078-.023-.01-.033.004-.038.013l-.36.626c-.014.028-.032.042-.061.046a3.805 3.805 0 0 0-.327-.111c-.017-.02-.024-.042-.017-.071l.097-.719c0-.013 0-.027-.023-.032a4.385 4.385 0 0 0-.206-.057v-.004h-.009c-.075-.019-.141-.037-.2-.051-.029-.005-.034.005-.038.018l-.28.668a.08.08 0 0 1-.049.052 65.573 65.573 0 0 1-.34-.071c-.019-.013-.027-.036-.027-.066v-.724c0-.008 0-.026-.028-.026a1.577 1.577 0 0 0-.207-.033h-.009c-.08-.01-.15-.019-.21-.024-.028-.004-.033.009-.033.02l-.191.698a.08.08 0 0 1-.044.062c-.111-.008-.229-.018-.345-.023a.086.086 0 0 1-.032-.066l-.094-.719c-.005-.009-.009-.024-.033-.024-.033-.003-.064-.003-.103-.003h-.228c-.038 0-.071 0-.103.003-.023 0-.027.015-.027.024l-.095.719c-.004.027-.014.052-.037.066-.117.005-.228.015-.346.023a.088.088 0 0 1-.038-.062l-.186-.698c-.004-.011-.009-.024-.033-.02a3.881 3.881 0 0 0-.21.024h-.01c-.079.008-.15.018-.21.033a.026.026 0 0 0-.028.026v.724c.005.03-.004.053-.022.066l-.343.071a.076.076 0 0 1-.051-.052l-.275-.668c-.006-.013-.014-.023-.037-.018a8.66 8.66 0 0 0-.206.051h-.005c-.004 0-.004 0-.004.004a2.655 2.655 0 0 0-.201.057c-.029.005-.024.019-.024.032l.093.719c.004.029 0 .051-.018.071-.108.032-.22.07-.327.111-.024-.004-.043-.018-.056-.046l-.365-.626c-.004-.009-.014-.023-.037-.013-.061.023-.122.045-.196.078h-.01a4.215 4.215 0 0 1-.191.085c-.025.009-.025.028-.019.038l.187.699a.091.091 0 0 1-.009.076 6.627 6.627 0 0 0-.305.148c-.027 0-.051-.008-.068-.037l-.436-.573c-.009-.011-.018-.02-.042-.011-.051.033-.118.066-.182.103v.005h-.009c-.067.042-.127.074-.184.108-.018.012-.013.028-.009.042l.276.667c.014.028.014.057-.005.08-.088.061-.182.121-.271.186-.032.005-.055-.004-.079-.027l-.508-.514c-.011-.01-.025-.019-.043-.005a4.585 4.585 0 0 0-.168.126l-.006.004h-.003v.005a8.381 8.381 0 0 0-.166.131c-.022.014-.013.028-.008.037l.364.63c.015.029.019.052.005.085-.084.066-.164.14-.242.21-.033.009-.061.005-.085-.014l-.576-.443c-.009-.004-.023-.015-.041.004a3.801 3.801 0 0 0-.149.145l-.006.005s0 .005-.004.005a3.32 3.32 0 0 0-.145.149c-.018.018-.009.032-.005.042l.445.574a.085.085 0 0 1 .013.08c-.07.079-.14.163-.21.243-.032.013-.056.013-.084-.005l-.63-.36c-.01-.008-.025-.014-.037.004a2.385 2.385 0 0 0-.131.169h-.006v.005c-.052.064-.092.121-.126.168-.02.024-.01.032 0 .042l.514.514c.023.023.033.046.028.079a5.846 5.846 0 0 0-.186.27.086.086 0 0 1-.081.005l-.668-.28c-.008-.004-.022-.009-.037.014a3.076 3.076 0 0 0-.107.182h-.005v.01a1.766 1.766 0 0 0-.102.182c-.015.023-.005.032.005.041l.579.44c.023.018.033.037.033.07-.053.097-.099.196-.15.299a.076.076 0 0 1-.075.014l-.701-.191c-.01 0-.023-.005-.038.018-.022.062-.051.122-.078.197h-.005v.009c-.032.07-.056.134-.081.196-.008.023.006.032.015.038l.627.358a.08.08 0 0 1 .046.062c-.043.107-.075.214-.113.327-.018.018-.041.023-.069.018l-.72-.098c-.01 0-.028 0-.034.023l-.056.206h-.003v.009c-.019.076-.038.14-.051.2-.005.029.008.033.018.039l.668.279c.028.01.042.023.051.047-.023.117-.046.229-.065.341-.018.023-.043.027-.07.027h-.724c-.009 0-.024 0-.028.029-.01.061-.024.131-.033.206v.009l-.024.21c-.003.028.009.032.018.037l.702.187a.08.08 0 0 1 .061.042 12.19 12.19 0 0 0-.024.345c-.013.024-.033.033-.065.038l-.72.094c-.009 0-.023.004-.023.027-.005.066-.005.136-.005.21v.014c0 .075 0 .146.005.21 0 .024.014.029.023.029l.72.093c.032.005.052.014.065.038.006.115.015.228.024.346a.08.08 0 0 1-.061.04l-.702.187c-.009.006-.021.01-.018.037.006.062.015.132.024.206v.014c.009.075.018.145.033.206 0 .028.019.028.028.028h.724c.027 0 .052.005.07.024.019.116.042.228.065.345-.009.023-.023.037-.051.046l-.668.281c-.014.005-.023.009-.018.037.013.056.032.127.051.201v.009h.003l.056.205c.006.023.024.023.034.023l.72-.097c.028-.005.051 0 .069.019.033.112.07.219.113.327-.005.028-.018.046-.046.055l-.627.365c-.009.005-.023.014-.015.037.025.061.049.126.081.195v.011c.032.076.061.136.083.196.01.019.028.019.038.014l.701-.187a.076.076 0 0 1 .075.014c.046.099.097.2.15.299 0 .032-.01.051-.037.07l-.575.439c-.01.009-.02.019-.01.042l.102.182c.005 0 .005.005.005.005v.005h.005c.038.07.074.131.107.182.01.018.024.018.037.014l.668-.281a.083.083 0 0 1 .081.005c.06.093.122.183.186.27a.085.085 0 0 1-.028.08l-.514.514c-.01.01-.02.018 0 .043l.122.167h.004v.005h.006c.046.066.087.116.131.168.012.018.027.015.037.005l.63-.359c.028-.019.052-.019.084-.006.07.08.14.164.21.243a.085.085 0 0 1-.013.08l-.445.575c-.004.009-.013.022.005.041a2.207 2.207 0 0 0 .149.154v.004h.006c.056.057.103.104.149.146.018.019.032.009.041.004l.576-.443a.078.078 0 0 1 .078-.014c.08.07.165.145.244.21.015.032.015.06-.004.084l-.36.63c-.01.009-.014.024.005.042.052.037.107.079.169.127v.004h.003v.004l.174.127c.018.014.028.004.037-.005l.514-.514c.024-.022.047-.032.079-.028.089.066.179.126.271.187a.08.08 0 0 1 .005.08l-.28.668c-.005.013-.005.028.013.041.052.033.113.065.184.108h.004c0 .005.005.005.005.005.064.037.126.07.182.103.024.009.033 0 .042-.011l.436-.573a.07.07 0 0 1 .068-.038c.099.051.201.102.299.15a.072.072 0 0 1 .015.074l-.187.696c-.006.014-.006.028.019.037l.191.085h.004c.006 0 .006 0 .006.004.07.029.135.056.196.074.023.011.033 0 .037-.013l.365-.621c.008-.029.028-.042.056-.047.107.042.214.08.327.112.018.019.022.042.018.071l-.098.714c0 .015 0 .028.023.033.061.019.132.037.207.06h.009c.074.023.145.037.2.051.029.01.033-.004.037-.014l.281-.672a.077.077 0 0 1 .048-.047c.116.023.227.047.346.065.018.015.022.038.022.066v.724c0 .014 0 .028.028.032.06.01.131.02.206.029h.014c.075.013.145.018.204.027.03 0 .035-.014.039-.023l.186-.7c.005-.027.019-.047.038-.056.112.009.229.014.346.018a.095.095 0 0 1 .037.066l.095.719c0 .01.004.023.027.028h.434c.024-.005.028-.018.033-.028l.094-.719c0-.028.014-.047.032-.066.116-.004.234-.009.345-.018.024.009.039.029.048.056l.187.7c0 .009.009.023.033.023.06-.009.13-.014.21-.027h.009c.08-.009.146-.019.211-.029.024-.004.024-.018.024-.032v-.724c0-.028.008-.051.027-.066.113-.018.229-.042.34-.065.024.009.043.023.052.047l.277.672c.004.01.013.024.038.014.059-.014.125-.028.204-.051h.01l.201-.06c.023-.005.023-.018.023-.033l-.097-.714c-.007-.029.004-.052.017-.071.113-.032.22-.07.327-.112a.075.075 0 0 1 .061.047l.36.621c.01.013.019.024.043.013.055-.018.12-.045.196-.074v-.004h.005l.195-.085c.024-.009.02-.023.02-.037l-.192-.696c-.005-.028-.005-.051.014-.074.102-.048.201-.099.303-.15.028 0 .052.01.067.038l.443.573c.004.011.019.02.037.011.056-.033.117-.066.187-.103v-.005h.006c.068-.043.129-.075.182-.108.023-.013.017-.028.013-.041l-.275-.668c-.015-.029-.015-.057 0-.08.092-.061.186-.121.275-.187a.085.085 0 0 1 .076.028l.513.514c.009.009.019.019.042.005l.168-.127v-.004h.005s0-.004.004-.004l.164-.127c.019-.018.015-.033.01-.042l-.365-.63c-.019-.024-.019-.052-.004-.084.084-.065.163-.14.242-.21.033-.01.056-.005.085.014l.575.443c.009.005.017.015.037-.004.047-.042.098-.089.154-.146v-.004h.005v-.004c.055-.052.107-.102.15-.15.013-.019.009-.032 0-.041l-.44-.575a.077.077 0 0 1-.02-.08c.076-.079.147-.163.216-.243a.082.082 0 0 1 .085.006l.626.359c.008.01.023.013.042-.005.037-.052.078-.102.131-.168v-.005h.004c.046-.065.089-.121.126-.167.014-.025.005-.033-.006-.043l-.511-.514c-.024-.023-.03-.046-.024-.08.061-.087.121-.177.182-.27.028-.015.05-.018.079-.005l.673.281c.009.004.024.004.037-.014.033-.051.065-.112.108-.182v-.005h.005v-.005c.037-.066.074-.126.102-.182.014-.023 0-.033-.009-.042l-.575-.439c-.023-.019-.037-.038-.037-.07.05-.099.103-.2.148-.299a.078.078 0 0 1 .076-.014l.702.187c.013.005.027.005.037-.014.026-.06.055-.12.083-.196v-.005l.005-.006c.029-.069.057-.134.075-.195.008-.023 0-.032-.009-.037l-.632-.365a.066.066 0 0 1-.041-.055c.037-.108.075-.215.107-.327.024-.019.042-.024.07-.019l.719.097c.016 0 .028 0 .038-.023.015-.06.032-.13.057-.205v-.009c.023-.074.037-.145.051-.201.009-.028-.004-.032-.014-.037l-.673-.281c-.028-.009-.042-.023-.051-.046.028-.117.046-.229.07-.345.013-.019.037-.024.066-.024h.724c.013 0 .027 0 .032-.028.01-.061.019-.131.028-.206v-.014c.013-.074.02-.144.028-.206 0-.027-.015-.031-.024-.037l-.7-.187a.069.069 0 0 1-.056-.04c.01-.118.014-.231.018-.346a.096.096 0 0 1 .066-.038l.719-.093c.01 0 .024-.005.03-.029v-.434c-.006-.023-.02-.027-.03-.027Zm-9.173 7.775c-4.15 0-7.529-3.382-7.529-7.529 0-4.15 3.379-7.532 7.529-7.532 4.149 0 7.534 3.382 7.534 7.532 0 4.147-3.385 7.529-7.534 7.529Z" style="fill:#b62537" transform="translate(-74.956 -164.083) scale(3.77614)"/><path d="m39.779 68.874-.009-.004-.02-.007.019-.01.009-.005a.158.158 0 0 0 .086-.143v-.198a.164.164 0 0 0-.163-.157h-1.083a.158.158 0 0 0-.156.157v.198c0 .061.034.118.086.143l.009.005.02.01-.021.007-.009.004a.155.155 0 0 0-.098.148v.229c0 .087.064.157.144.157h1.14c.081 0 .145-.07.145-.157v-.229a.157.157 0 0 0-.099-.148Zm-1-.278c0-.033.03-.06.068-.06h.638c.037 0 .067.027.067.06v.13c0 .033-.03.061-.067.061h-.638c-.038 0-.068-.028-.068-.061v-.13Zm.784.566c0 .033-.03.061-.067.061h-.661c-.037 0-.066-.028-.066-.061v-.132c0-.035.029-.063.066-.063h.661c.037 0 .067.028.067.063v.132ZM38.025 69.407h-.335v-.797c0-.031-.025-.031-.036-.032a.203.203 0 0 0-.054.009l-.25.057v-.191l.263-.067.035-.009a.508.508 0 0 1 .135-.025h.201c.027 0 .041.016.041.043v1.012ZM30.104 58.987c.111.163-.027.428-.128.562-.111.143-.414.05-.556-.006-.182-.071-.328-.184-.22-.369a.605.605 0 0 0 .05-.165c.012-.142.029-.33.214-.209.068.035-.139.382-.128.424.013.045.046.047.092.061.194-.106.021-.465.311-.398.1.1-.042.292.044.354.086.061.098-.239.257-.273.015-.004.058.012.064.019Zm-.047-1.267c-.04.029-.178.145-.182.032-.01-.164.124-.286.195-.421.074-.143.178-.265.353-.199.123.046.257.159.356.245.089.079.116.249.118.363.007.171-.066.521-.31.439-.072-.196.167-.248.044-.413-.153-.013-.095.139-.248.126-.155-.097.047-.288-.051-.402-.08.003-.129.056-.161.125-.034.068-.056.066-.114.105Zm1.657.48c.06-.012.243-.003.274.043.156.189-.031.356-.053.535-.077.258-.202.339-.044.604.105.178-.014.516-.249.491-.08-.064-.007-.236-.061-.281-.296-.042-.293.507-.705.341a.079.079 0 0 1-.028-.032c-.04-.168.099-.197.132-.305-.054-.085-.185-.073-.235-.163-.033-.341.146-.645.301-.913.073-.125.181-.221.334-.152.201.091.049.375.135.512.25-.004.104-.498.17-.654.004-.007.018-.023.029-.026Zm-.712.984c-.095-.14.074-.309.112-.447.016-.022.025-.053.065-.055.039-.003.007-.004.077.038.071.042-.159.604-.254.464Zm.366.1-.002.001c-.014.201-.193.21-.214.145-.015-.046.089-.275.191-.215.009.005.027.036.026.046l-.001.015v.008Zm.791-1.784c-.145.006-.647.079-.755.137-.254.139-.356.274-.514.513-.066.095-.135.228-.247.128-.082-.074-.162.039-.256.011-.103-.03-.101-.123-.141-.201-.057-.112-.191.01-.268.024-.06-.042-.021-.213-.08-.255-.196-.003-.241.12-.196.281.047.169-.111.267-.099.429.053.053.135.036.191 0 .075.033.103.118.127.188.039.117.091.054.183.05.472-.02.143.562.081.789-.034.123-.08.301-.012.419.041.074.156.298.179.347.108.183.637.44.452.04-.12-.26-.361-.418-.315-.73.054-.366.122-.635.273-.972.126-.277.386-.508.619-.69.115-.09.234-.165.385-.167.152-.002.314.052.459-.011.067-.092.004-.26-.066-.33Zm-1.743 1.229c-.083-.091.086-.353.168-.189.012.11-.093.216-.168.189ZM45.603 53.449a3.668 3.668 0 0 0-1.176-.447c-.207-.036-.406.412-.198.532.081.047.405.034.393.171-.015.087-.332-.076-.581.063a.124.124 0 0 0-.033.022c-.076.05-.138.141-.207.204-.071.066-.174.214-.286.195-.089-.015-.245-.162-.235-.182.043-.08.157-.03.227-.121.13-.167.102-.362.176-.546.079-.198.398-.142.402-.426.002-.116-.107-.182-.186-.259l-.099-.07c-.046-.029-.24-.026-.21.118.016.07.142.265.015.296-.173.043-.414-.034-.581-.077-.029-.007-.239-.081-.27-.077-.027.005-.049.012-.063.026-.069.07-.064.194-.005.263 0 .002 0 .002.002.003.002.003.013.011.017.014.038.009.174.017.178.017a.92.92 0 0 1 .317.075c.109.051.169.089.05.127l-.005.001h-.003c-.172.059-.481-.093-.652-.006a.062.062 0 0 0-.019.016c-.015.026-.064.123-.008.152a.499.499 0 0 0 .166.048c.036.003.253-.001.355-.004a.343.343 0 0 0 .079-.017.228.228 0 0 1 .061-.018c.072-.011.134.003.101.093-.044.111-.446.222-.551.196-.107-.026-.226.115-.229.137-.019.098-.01.206-.056.309-.06.14-.185.331-.119.486.019.052.333.067.692.116.027.003.049.008.074.011.227.034.467.085.657.166.074.032.134.057.185.076.262.133.532.3.575.349.207.241.528.637.653.468-.01-.169-.106-.292-.179-.437-.03-.062.053-.088.086-.13.121-.156.152-.394.191-.581.035-.157.057-.316.097-.471.049-.178-.194-.299-.353-.345-.021-.006-.059-.045-.055-.057.031-.128.262-.025.405.066.057.036.2.028.229-.022.045-.078.074-.175.114-.236.095-.149-.018-.219-.138-.287Zm-2.88 1.152c.106.045.445-.377.251-.509-.197-.134-.354.464-.251.509Zm.508-.185c.036-.034.1-.079.212.015.005.004.02.031.021.038.045.334-.472.186-.233-.053Zm1.035-.431c.036-.098.187-.044.207.042.002.007-.012.024-.019.024-.066.013-.123.015-.185-.042-.003-.001-.005-.019-.003-.024Zm-.413.896c.102.065.331.001.33-.143-.001-.244-.381-.27-.487-.091-.025.054.053.168.157.234Zm.35-.459c-.049-.022-.224-.115-.202-.189.02-.057.118-.093.311.037.008.004.022.04.021.053-.009.077-.023.147-.13.099Zm.6.813c.085-.113.084-.238-.027-.33a.18.18 0 0 0-.028-.02c-.047-.033-.096-.049-.142-.074a.146.146 0 0 0-.096-.019c-.105.012-.19.079-.188.19.004.195.268.284.438.277a.097.097 0 0 0 .043-.024Zm.242-.516c-.041.118-.357-.091-.351-.238 0-.006.009-.019.012-.02.097-.013.381.139.339.258Zm-.297-.555c.032-.191.276.014.217.142-.003.006-.023.016-.029.015a.212.212 0 0 1-.08-.055c-.031-.033-.111-.095-.108-.102Zm.454-.424a.184.184 0 0 1-.027-.023c-.13-.151-.401-.255-.599-.268a.157.157 0 0 1-.044-.011l-.012-.009c-.042-.046-.106-.224.041-.177.159.05.159.062.277.104.107.038.282.094.377.14l.01.004.019.01h-.002c.017.011.033.021.048.035.125.115.081.239-.088.195ZM50.921 59.924c-.014-.057-.056-.212-.062-.313-.005-.264-.068-.494-.104-.754-.015-.114-.077-.535.12-.532.012 0 .049-.043.049-.057.018-.208-.116-.289-.302-.214-.102.042-.161.056-.258-.008-.021-.015-.221-.127-.403-.249a13.747 13.747 0 0 1-.471-.346c-.158-.096-.32-.34-.415-.062.124.248.402.337.592.509.093.083.157.262-.033.198-.187-.067-.4-.296-.514-.362-.107-.061-.355-.085-.27.111a.544.544 0 0 0 .259.272c.064.03.289.103.303.154.034.072.019.251-.032.314-.084.103-.308-.061-.415-.145a2.28 2.28 0 0 0-.118-.073 4.012 4.012 0 0 0-.328-.163 2.903 2.903 0 0 0-.194-.072c-.115-.033-.474-.123-.404.133.002.003.011.017.023.026.035.025.123.082.223.136.094.052.526.186.685.271.15.08.323.121.449.24a.254.254 0 0 1 .084.141c.011.046.067.324.067.423 0 .253-.065.551-.124.743-.061.197-.236.524.084.535.318.012.306-1.035.324-1.265.006-.07.031-.386.168-.27.231.194.171.507.199.765.008.073.073.094.137.114.02.006.104.002.114-.013a.491.491 0 0 0 .054-.287c-.009-.169-.089-.404-.022-.572.047-.096.118-.129.153-.011a1.358 1.358 0 0 1 .028.182c-.004.189.067.691.077.703.074.099.211.153.307.022.034-.039-.018-.166-.03-.224Zm-.412-1.31c-.012.205-.228.341-.398.437-.166.092-.387-.126-.425-.266-.019-.067-.037-.279.024-.328.07-.055.171-.011.241-.07.006-.005.013-.036.012-.044-.024-.201.282-.075.44.052a.428.428 0 0 1 .106.219ZM41.568 68.35h-1.141c-.081 0-.145.071-.145.157v.334c0 .086.064.156.145.156h.896c.036 0 .068.028.068.061v.105c0 .032-.03.06-.068.06h-.654a.07.07 0 0 1-.059-.034h-.328v.063c0 .086.064.156.145.156h1.141c.079 0 .143-.07.143-.157v-.744c0-.086-.064-.157-.143-.157Zm-.177.395c0 .034-.03.062-.068.062h-.652c-.037 0-.068-.028-.068-.062v-.149c0-.033.031-.06.068-.06h.652c.036 0 .068.028.068.06v.149ZM42.26 69.408h1.141c.079 0 .143-.07.143-.157v-.333c0-.086-.064-.157-.143-.157h-.897c-.037 0-.067-.027-.067-.06v-.105c0-.033.029-.06.067-.06h.652a.07.07 0 0 1 .061.033h.327v-.062c0-.086-.064-.157-.143-.157H42.26c-.08 0-.145.071-.145.157v.744c0 .087.065.157.145.157Zm.177-.395c0-.033.029-.061.067-.061h.652c.036 0 .068.028.068.061v.15c0 .034-.032.06-.068.06l-.652-.001c-.037 0-.067-.027-.067-.06v-.149ZM28.632 64.713c-.004-.08.003-.265.006-.392.076.01.167.016.259.019v.011a.568.568 0 0 0-.128.38c.007.129.074.209.185.204.08-.005.127-.039.18-.115.08-.113.126-.245.219-.366a.405.405 0 0 1 .338-.175c.126-.006.373.053.396.526.003.088.006.227 0 .346a2.537 2.537 0 0 0-.252-.042v-.012c.068-.062.121-.136.115-.301-.008-.157-.098-.23-.189-.227-.113.005-.175.025-.308.295-.166.341-.27.354-.403.361-.159.007-.397-.07-.418-.512ZM29.58 66.582c-.163.026-.536.095-.691.152-.008-.085-.013-.114-.023-.176a2.207 2.207 0 0 0-.039-.195 8.44 8.44 0 0 0 .647-.081 4.269 4.269 0 0 0-.031-.233c-.013-.078-.029-.154-.046-.24-.23.04-.43.075-.639.136-.007-.081-.018-.142-.023-.177-.009-.049-.015-.091-.041-.192.198-.011.544-.06.7-.086.153-.025.651-.095.698-.174l.008-.001c.009.085.018.139.027.201.01.063.022.126.038.191-.142-.003-.345.031-.609.074.013.114.019.159.033.239.014.078.02.116.045.235.318-.055.465-.075.59-.155l.008.002c.004.07.012.12.025.201.011.061.028.143.039.193a7.757 7.757 0 0 0-.716.086ZM29.275 68.047a2.052 2.052 0 0 0-.066-.19c.145-.051.353-.18.45-.242a2.582 2.582 0 0 0-.051-.193c-.019-.06-.045-.127-.061-.173-.119 0-.374.013-.5.075-.021-.072-.027-.108-.043-.16a2.941 2.941 0 0 0-.057-.165c.087.02.244.038.31.043a16.055 16.055 0 0 0 1.009.045c.049.001.13.004.173-.027l.012-.002c.022.067.038.119.054.16a2.5 2.5 0 0 0 .07.181 1.888 1.888 0 0 0-.18.104c-.131.081-.289.186-.41.267-.203.136-.318.215-.419.29a2.226 2.226 0 0 0-.233.201 2.871 2.871 0 0 0-.058-.214Zm.931-.791-.003-.009a9.694 9.694 0 0 0-.509-.003c.011.054.022.094.037.143.022.071.033.098.052.149.14-.088.288-.186.423-.28ZM30.505 69.214a9.742 9.742 0 0 0-.61.29 1.423 1.423 0 0 0-.124-.233c.112-.17.329-.472.426-.605l.293-.401-.003-.006-.373.17a4.951 4.951 0 0 0-.567.324l-.054-.137c-.022-.044-.047-.094-.071-.134.209-.038.712-.261.81-.306.074-.034.384-.165.485-.273l.011-.004a2.68 2.68 0 0 0 .166.366 6.012 6.012 0 0 0-.314.389c-.151.217-.248.349-.332.47l.002.006.25-.114c.143-.065.512-.258.582-.336.013.038.037.097.058.142.029.06.031.066.066.128-.183.042-.6.216-.701.264ZM30.989 70.689a1.988 1.988 0 0 0-.243.157 2.531 2.531 0 0 1-.319-.413c-.243-.386-.197-.686.252-.969.275-.175.672-.28 1.005.247.091.145.188.318.234.405a1.5 1.5 0 0 0-.267.098l-.009-.014c.037-.117.016-.275-.083-.433-.155-.244-.411-.206-.701-.023-.405.256-.407.447-.265.673.065.103.128.078.184.044l.126-.081c.059-.038.131-.083.178-.173l.011-.004c.029.055.065.116.1.171.044.07.057.091.104.154-.07.026-.214.103-.307.161ZM32.232 71.61c-.128.106-.414.356-.517.485-.05-.07-.07-.093-.11-.14-.032-.037-.06-.071-.134-.148a8.27 8.27 0 0 0 .516-.401c-.064-.083-.094-.122-.146-.183-.051-.062-.103-.118-.164-.184a6.471 6.471 0 0 0-.48.445 2.753 2.753 0 0 0-.24-.287c.163-.108.436-.329.558-.431.116-.098.51-.414.508-.505l.007-.006c.053.069.086.112.126.16.042.049.085.097.13.145-.123.069-.28.202-.485.375.068.09.099.125.151.187.052.062.076.09.158.179.246-.209.361-.3.429-.433l.006-.004c.041.058.074.098.127.16.039.048.094.109.132.147a7.5 7.5 0 0 0-.572.439ZM32.717 73.026c-.051-.045-.094-.085-.154-.13.1-.119.213-.334.264-.438a2.627 2.627 0 0 0-.143-.138c-.047-.044-.102-.088-.139-.119-.104.06-.316.203-.394.321-.052-.052-.076-.079-.118-.116a2.468 2.468 0 0 0-.133-.113 3.25 3.25 0 0 0 .289-.121 13.759 13.759 0 0 0 .891-.478c.043-.024.114-.061.135-.109l.009-.01c.052.047.096.083.128.112l.152.12a1.916 1.916 0 0 0-.101.18 17.833 17.833 0 0 0-.429.901c-.019.05-.069.173-.097.292a6.155 6.155 0 0 0-.16-.154Zm.397-1.155-.007-.008c-.159.089-.297.17-.439.259.038.04.066.07.105.104.053.049.078.068.12.102.078-.147.154-.308.221-.457ZM33.246 73.439c-.052-.04-.089-.065-.166-.118.172-.175.354-.415.453-.549.142-.19.347-.447.378-.603l.004-.006c.052.045.097.082.148.12.051.038.11.078.173.121-.133.129-.37.448-.419.513-.08.107-.308.408-.43.636-.074-.061-.11-.091-.141-.114ZM34.904 73.659c-.097.169-.206.362-.247.431-.12.208-.31.297-.766.096l.044-.127c.186.081.296.082.422-.099.046-.066.15-.239.225-.37.132-.228.348-.562.35-.716l.005-.009c.065.042.122.079.175.108.054.031.106.06.173.092-.139.159-.301.457-.381.594ZM35.255 74.655c-.086-.047-.125-.069-.161-.086a2.8 2.8 0 0 0-.185-.084c.136-.206.271-.475.345-.624.104-.214.258-.505.26-.663l.002-.007c.059.034.109.061.167.09.058.029.122.056.193.088-.108.151-.282.509-.317.58-.059.12-.227.459-.304.706ZM36.499 75.153a1.994 1.994 0 0 0-.189-.065c.048-.146.073-.389.084-.505l-.183-.076a3.923 3.923 0 0 0-.175-.058c-.074.093-.219.303-.248.441-.07-.028-.101-.046-.153-.065a3.183 3.183 0 0 0-.165-.056c.069-.056.18-.17.224-.218a13.894 13.894 0 0 0 .655-.771c.03-.038.082-.099.084-.151l.006-.012a6.26 6.26 0 0 0 .344.113c-.008.043-.02.129-.027.205-.014.152-.032.342-.041.486-.016.244-.024.384-.026.509-.003.053-.003.186.016.307-.086-.036-.145-.062-.206-.084Zm-.055-1.222-.008-.002c-.117.14-.214.266-.314.401.048.023.089.039.135.058.069.025.098.034.15.05.018-.165.03-.342.037-.507ZM38.371 74.909c-.074.321-.256.685-.83.55-.348-.082-.638-.256-.5-.844.081-.343.261-.701.834-.566.491.116.603.408.496.86Zm-1.003-.215c-.076.323-.04.567.205.626.29.066.406-.204.471-.483.061-.262.085-.58-.194-.647-.283-.065-.409.198-.482.504ZM40.176 74.537l-.012-.001a1.132 1.132 0 0 0-.381-.074c-.001.045-.024.33-.041.633a4.87 4.87 0 0 0 .005.654c-.089-.009-.112-.012-.189-.017-.068-.004-.116-.006-.198-.004a6.27 6.27 0 0 0 .075-.718c.008-.15.019-.425.025-.565-.155-.009-.353-.004-.414.029l-.014-.001c.017-.06.035-.145.04-.2.202.024.371.036.56.046.202.011.398.022.6.018a1.084 1.084 0 0 0-.056.2ZM41.6 74.974c.022.329-.045.729-.635.768-.357.024-.684-.059-.723-.663-.022-.349.044-.745.631-.783.503-.032.697.214.727.678Zm-1.024.087c.023.331.129.554.38.539.295-.021.327-.314.308-.599-.017-.269-.086-.582-.373-.563-.29.019-.334.309-.315.623ZM42.945 74.746c.019.095.095.488.145.657a1.582 1.582 0 0 0-.255.07c-.14-.147-.385-.426-.492-.551l-.326-.376-.005.001.082.403c.015.076.123.486.187.625a1.649 1.649 0 0 0-.292.06c.009-.211-.094-.753-.115-.858-.018-.08-.075-.41-.156-.534l-.003-.01a3.021 3.021 0 0 0 .394-.08c.063.09.218.293.309.393.176.196.283.321.382.43l.007-.002-.054-.268c-.033-.155-.137-.557-.196-.644.039-.004.102-.014.149-.023.066-.014.073-.015.14-.037 0 .187.077.636.099.744ZM44.49 74.612c.017.054.05.164.1.273a2.522 2.522 0 0 1-.476.215c-.431.149-.713.035-.886-.466-.107-.309-.117-.72.471-.924.162-.054.354-.11.449-.134.001.102.013.184.034.283l-.015.004a.539.539 0 0 0-.441-.017c-.274.096-.295.352-.182.677.155.453.34.498.593.412.114-.04.106-.106.085-.168l-.051-.143c-.022-.065-.049-.145-.126-.213l-.001-.01c.06-.016.125-.038.188-.058a1.52 1.52 0 0 0 .173-.067c.009.074.053.232.085.336ZM46.037 73.089c.076.142.166.311.246.452.131.231.131.463-.252.683-.404.23-.582.13-.729-.125l-.201-.363c-.049-.084-.208-.386-.318-.449l-.003-.005a3.475 3.475 0 0 0 .349-.2c.055.177.246.505.295.591.121.213.203.352.256.399.073.068.19.078.301.015.263-.15.192-.315.032-.594-.222-.389-.299-.539-.444-.662a1.72 1.72 0 0 0 .146-.077c.061-.034.092-.055.136-.085.053.181.14.335.186.42ZM47.323 72.495c.058.075.299.396.418.528a1.414 1.414 0 0 0-.198.172 18.374 18.374 0 0 1-.685-.279l-.457-.196-.005.003.251.327c.046.061.322.383.442.48a1.572 1.572 0 0 0-.239.181c-.082-.193-.413-.634-.477-.72-.05-.065-.247-.336-.375-.412l-.007-.008a3.081 3.081 0 0 0 .32-.244c.097.053.324.168.449.219.246.098.396.163.533.218l.004-.004-.166-.217c-.095-.126-.365-.443-.458-.493.033-.022.087-.058.126-.088.051-.04.057-.044.11-.094.081.17.347.538.414.627ZM48.193 72.606c-.048.045-.078.077-.144.144a5.66 5.66 0 0 0-.462-.543c-.162-.174-.38-.42-.529-.477l-.003-.005a3.62 3.62 0 0 0 .142-.126c.047-.044.096-.095.152-.149.102.155.376.444.431.502.09.097.348.375.551.535-.074.064-.109.092-.138.119ZM48.395 70.697c.067.118.173.297.263.454.091.159.271.473.352.607a1.353 1.353 0 0 0-.153.196 25.018 25.018 0 0 0-.691-.308c-.183-.077-.36-.153-.483-.201a.837.837 0 0 0-.232-.063l-.006-.005a1.42 1.42 0 0 0 .144-.153c.049-.056.097-.111.138-.164.045.04.124.086.18.118.091.053.255.128.434.206.131.059.224.103.336.146l.005-.007a7.487 7.487 0 0 0-.233-.383c-.148-.223-.264-.388-.382-.462.041-.038.072-.071.11-.113.038-.043.067-.075.103-.124.031.094.077.185.115.256ZM50.03 70.426c-.13.169-.204.279-.286.394-.086.124-.112.16-.246.36a5.054 5.054 0 0 0-.555-.433c-.233-.164-.517-.379-.617-.371l-.006-.004c.093-.121.211-.288.277-.381.054-.076.145-.209.263-.382a.665.665 0 0 0 .141.139l-.005.008c-.095.068-.215.213-.342.391.102.094.295.223.386.286.081-.114.143-.204.205-.334.04.042.097.093.149.133-.112.093-.179.193-.241.279l.205.144c.195.138.24.135.315.029.096-.136.175-.285.194-.407l.009-.011a.788.788 0 0 0 .154.16ZM50.669 69.283c-.031.059-.054.108-.091.181a2.469 2.469 0 0 0-.363-.09c-.135-.025-.235-.04-.289-.016-.054.022-.082.08-.124.161.105.052.451.235.595.276-.034.053-.067.113-.1.171a2.582 2.582 0 0 0-.083.167c-.165-.124-.511-.309-.619-.368-.188-.102-.526-.295-.64-.295l-.004-.003c.057-.1.098-.178.152-.277.063-.114.108-.201.174-.324.138-.251.308-.258.462-.174a.359.359 0 0 1 .167.466l.003.001c.059-.101.14-.128.233-.115.066.007.086.009.201.027.148.023.329.053.418.029l.012.006a4.994 4.994 0 0 0-.104.177Zm-1.349-.215a.912.912 0 0 0-.068.14c.084.055.192.114.223.131.082.044.127.072.203.113.026-.046.043-.072.062-.105.069-.126.061-.243-.132-.349-.162-.087-.246-.01-.288.07ZM50.996 68.58c-.03.073-.113.24-.168.354a2.647 2.647 0 0 0-.23-.126l.006-.01a.56.56 0 0 0 .274-.292c.049-.119.022-.22-.082-.263-.075-.029-.132-.018-.212.029-.117.069-.216.17-.352.241a.403.403 0 0 1-.381.018c-.117-.048-.315-.205-.137-.644a3.8 3.8 0 0 1 .144-.313c.054.041.135.096.21.143l-.004.011c-.089.028-.167.072-.231.226-.058.145-.007.249.079.284.103.042.168.051.402-.141.292-.238.394-.206.516-.157.148.06.332.23.166.64ZM51.335 67.597c-.021.064-.031.105-.055.196-.224-.102-.511-.193-.67-.244-.226-.07-.538-.176-.695-.153l-.007-.002a1.76 1.76 0 0 0 .063-.18c.019-.061.036-.129.058-.204.164.085.545.2.622.224.127.04.488.155.744.192-.033.091-.049.133-.06.171ZM50.497 65.86l-.003.013a1.139 1.139 0 0 0-.132.363c.043.009.321.077.617.142.292.064.598.101.647.1-.023.087-.031.11-.047.185a2.614 2.614 0 0 0-.036.193 6.279 6.279 0 0 0-.696-.188 29.198 29.198 0 0 0-.555-.114c-.033.151-.059.349-.037.413l-.002.012a1.279 1.279 0 0 0-.193-.069c.057-.197.095-.362.135-.545.043-.199.085-.392.114-.591a.95.95 0 0 0 .188.086ZM50.605 64.441c.109.087.223.168.629.425.138.01.214.015.315.017.095 0 .213 0 .282-.013-.012.08-.015.132-.021.191-.003.063-.006.095-.008.198a1.435 1.435 0 0 0-.27-.052c-.101-.007-.178-.019-.318-.03-.337.14-.626.288-.699.325a.703.703 0 0 0-.163.112l-.008-.002a4.069 4.069 0 0 0 .034-.458.413.413 0 0 0 .151-.026c.114-.041.27-.089.516-.199v-.007a4.974 4.974 0 0 0-.441-.235.51.51 0 0 0-.187-.047c.008-.054.012-.092.019-.17.004-.057.009-.111.007-.162.055.055.13.111.162.133Z" style="fill:#b62537" transform="translate(-74.956 -164.083) scale(3.77614)"/></svg>