<svg xmlns="http://www.w3.org/2000/svg" width="154" height="157" fill="none"><g filter="url(#a)"><path fill="#fff" d="M13 0h128v128H13z"/><path fill="#B62537" fill-rule="evenodd" d="M53.158 64.24c0 7.124-5.794 12.919-12.917 12.919S27.324 71.364 27.324 64.24c0-7.123 5.794-12.918 12.917-12.918s12.917 5.795 12.917 12.918ZM40.24 51C32.939 51 27 56.94 27 64.24c0 7.302 5.94 13.242 13.24 13.242 7.303 0 13.242-5.94 13.242-13.241C53.482 56.94 47.543 51 40.241 51Z" clip-rule="evenodd"/><path fill="#B62537" fill-rule="evenodd" d="M52.866 64.24c0 6.962-5.664 12.628-12.625 12.628-6.962 0-12.626-5.666-12.626-12.627 0-6.962 5.664-12.625 12.626-12.625 6.961 0 12.625 5.663 12.625 12.625ZM40.241 51.495c-7.028 0-12.748 5.718-12.748 12.747s5.72 12.748 12.748 12.748c7.03 0 12.747-5.72 12.747-12.748 0-7.029-5.718-12.748-12.747-12.748Z" clip-rule="evenodd"/><path fill="#B62537" fill-rule="evenodd" d="M36.216 52.86c-.018.475.422.226.705.204.097-.008.987-.355.862.01-.077.227-.368.153-.55.174-.215.024-.458.103-.655.193-.194.089-.049.212.105.173.142-.035.276-.048.423-.04.35.02.72.122 1.008.327.147.104.566.52.303.644-.16.076-.38-.147-.495-.246-.182-.159-.304-.302-.548-.378a1.25 1.25 0 0 0-1.225.248c-.315.273-.547.583-.62.994-.031.171-.103.782-.385.58-.31-.225.132-.952.214-1.082.04-.064.118-.15.201-.24.053-.058.174-.2.267-.306a3.53 3.53 0 0 1 .28-.267c.098-.076.138-.213-.043-.205-.17.008-.248.11-.455.197-.208.088-.744.581-.845.29-.125-.362.675-.507.89-.594l.173-.063a.439.439 0 0 0 .106-.063c.044-.06.077-.145.059-.187-.045-.107-.124-.24-.124-.352a.293.293 0 0 1 .349-.012ZM35.51 67.478l-.935-.5-.313.541c.224.152.334.384.363.652l1.671.893.51-.893-.836-.447 2.584-4.81c.013-.02.006-.04-.017-.054l-.395-.21c-.028-.013-.045-.007-.056.015l-2.576 4.813Z" clip-rule="evenodd"/><path fill="#B62537" fill-rule="evenodd" d="M37.136 68.072a.105.105 0 0 0-.104.105v1.384c0 .075.063.138.138.138h6.564a.139.139 0 0 0 .138-.138v-1.352a.139.139 0 0 0-.138-.137h-6.598Zm-.083-.22h6.787c.139 0 .252.114.252.252v1.56c0 .14-.113.254-.252.254h-6.787a.253.253 0 0 1-.251-.254v-1.56c0-.138.113-.252.25-.252ZM36.6 60.628h2.304v-.503h-2.305v.503ZM36.6 61.395h2.304v-.504h-2.305v.504ZM36.6 62.16h2.304v-.503h-2.305v.504ZM41.263 64.326a.129.129 0 0 0-.128.129v.132c0 .07.06.128.128.128h1.053a.13.13 0 0 0 .128-.128v-.132a.129.129 0 0 0-.128-.129h-1.053Zm-2.034.748a.129.129 0 0 0-.128.128v.132c0 .07.059.13.128.13h2.342a.13.13 0 0 0 .13-.13v-.132a.13.13 0 0 0-.13-.128H39.23Zm-.096.795a.13.13 0 0 0-.13.129v.132c0 .07.059.13.13.13h2.536a.13.13 0 0 0 .129-.13v-.132a.13.13 0 0 0-.129-.129h-2.536Zm-.688.844a.13.13 0 0 0-.128.13v.13c0 .071.058.13.128.13h3.91a.13.13 0 0 0 .13-.13v-.13a.13.13 0 0 0-.13-.13h-3.91Zm7.233-.372v.126c0 .031-.032.058-.073.058h-.142c-.04 0-.075-.027-.075-.058v-.126a.241.241 0 0 0-.12.208v.668c0 .132.106.239.236.239h.059a.24.24 0 0 0 .238-.239v-.668c0-.09-.05-.167-.123-.208Zm-7.503-2.015h.001l.827-1.545c.021-.035.004-.067-.022-.078l-.33-.171h7.957v.574c0-.023.003.247-.721.367-.07.01-.139.027-.209.037v.338a.39.39 0 0 1 .353.386v.919a.39.39 0 0 1-.353.386v.512a.39.39 0 0 1 .353.386v.9a.388.388 0 0 1-.388.387h-.219a.387.387 0 0 1-.387-.387v-.9c0-.2.155-.369.352-.386v-.512a.39.39 0 0 1-.352-.386v-.919a.39.39 0 0 1 .352-.386v-.295c-.566.096-1.111.263-1.528.743h-.503s-.217.101-.443.299a1.52 1.52 0 0 0-.406.534h-.173c-.001.001-.082.05-.16.13-.001.001-.004.002-.004.005l-.006.005-.005.006a.022.022 0 0 0-.005.006c0 .001-.002.004-.005.005l-.004.005-.004.005v.001l-.004.004h-.002c0 .003-.002.005-.003.007a.346.346 0 0 0-.087.268c.039.251.116.31.346.503.232.194.656.62.83.854.149.2.17.485.05.562a.123.123 0 0 1-.07.02l-5.573-.001c-.193 0-.193-.35-.02-.581.173-.233.6-.66.83-.854.232-.194.31-.252.348-.503.037-.253-.291-.447-.291-.447h-.174c-.06-.12-.187-.317-.305-.414h2.261a.13.13 0 0 0 .129-.128v-.132a.13.13 0 0 0-.129-.129h-2.104Zm-2.055-1.292c-.082-.001-.158.005-.2.07-.125.198-.098.741-.098.958h-.592l-.148-.144v-.99c.143-.231.504-.403 1.17-.403h1.441c.047 0 .062.04.049.065l-.79 1.471h-.832v-1.027Zm9.343 1.983h.142c.04 0 .073.027.073.059v.165a.238.238 0 0 0 .123-.208v-.687c0-.09-.05-.168-.123-.208v.135c0 .03-.034.058-.073.058h-.142c-.04 0-.075-.027-.075-.058v-.135a.239.239 0 0 0-.12.208v.687c0 .09.049.167.12.208v-.165c0-.032.033-.059.075-.059ZM39.09 60.628h.398v-.503h-.398v.503Z" clip-rule="evenodd"/><path fill="#B62537" fill-rule="evenodd" d="M36.9 59.666c.703-.038 1.467-.275 2.131-.613l.207.458c-.73.351-1.555.588-2.218.62l-.12-.465ZM39.196 58.976l.37-.18.217.447-.37.18-.217-.447ZM39.09 61.395h.398v-.504h-.398v.504ZM39.09 62.16h.398v-.503h-.398v.504ZM42.55 60.108l.089.153.327-.182-.087-.154-.329.183Zm-.186-.336.089.154.327-.183-.09-.154-.326.183Zm-.464-.385.73-.402 1.533 2.783-.73.401-1.533-2.782Z" clip-rule="evenodd"/><path fill="#B62537" fill-rule="evenodd" d="M41.293 60.124h.375v-.175h-.375v.175Zm0-.385h.375v-.174h-.375v.174Zm0-.384h.375v-.173h-.375v.173Zm-1.216.769h.375v-.175h-.375v.175Zm0-.385h.375v-.174h-.375v.174Zm0-.384h.375v-.173h-.375v.173Zm0-.384h.375v-.174h-.375v.174Zm-.303 3.195h.98v-3.87h-.98v3.87Zm1.268 0h.875v-3.543h-.875v3.543Z" clip-rule="evenodd"/><path fill="#B62537" fill-rule="evenodd" d="m49.412 63.999-.719-.094a.096.096 0 0 1-.066-.038c-.004-.116-.009-.233-.018-.345a.069.069 0 0 1 .056-.042l.7-.187c.009-.005.024-.009.024-.037-.009-.061-.015-.13-.028-.21v-.009a4.93 4.93 0 0 0-.028-.206c-.005-.03-.019-.03-.032-.03h-.724c-.029 0-.053-.008-.066-.026a42.844 42.844 0 0 1-.07-.341.077.077 0 0 1 .05-.047l.674-.28c.01-.005.023-.01.014-.038-.014-.06-.028-.125-.051-.2v-.009a2.88 2.88 0 0 1-.057-.206c-.01-.023-.022-.023-.038-.023l-.72.098a.079.079 0 0 1-.069-.018 3.688 3.688 0 0 0-.112-.328.11.11 0 0 1 .046-.06l.632-.36c.009-.005.017-.014.009-.037a1.927 1.927 0 0 0-.075-.196l-.005-.004v-.005c-.032-.075-.06-.135-.083-.197-.01-.023-.024-.018-.038-.018l-.702.191a.076.076 0 0 1-.075-.014c-.045-.103-.098-.202-.148-.3 0-.032.014-.051.037-.069l.575-.44c.009-.009.02-.018.009-.04l-.102-.183s0-.005-.005-.005v-.005c-.043-.07-.075-.13-.108-.182-.013-.023-.028-.018-.042-.014l-.668.28c-.029.013-.051.009-.08-.005-.06-.093-.12-.182-.181-.27-.01-.033 0-.056.024-.079l.511-.514c.011-.01.02-.018.006-.042a4.01 4.01 0 0 1-.126-.168h-.004v-.005h-.006c-.047-.065-.088-.117-.126-.169-.018-.018-.033-.012-.041-.004l-.626.36a.086.086 0 0 1-.085.005c-.07-.08-.14-.165-.216-.243a.085.085 0 0 1 .014-.08l.446-.574c.008-.01.013-.024-.005-.042a2.034 2.034 0 0 0-.145-.15v-.004h-.005v-.005h-.004a2.018 2.018 0 0 0-.15-.145c-.02-.02-.034-.008-.043-.004l-.575.443a.081.081 0 0 1-.08.014 9.667 9.667 0 0 0-.242-.21c-.014-.033-.014-.056.005-.085l.365-.63c.005-.009.008-.023-.01-.037-.051-.04-.103-.083-.168-.13v-.006h-.005v-.004a4.896 4.896 0 0 1-.168-.126c-.023-.014-.033-.005-.042.005l-.513.514c-.024.023-.048.032-.076.027a13.718 13.718 0 0 0-.275-.186.08.08 0 0 1-.005-.08l.28-.667c.004-.014.01-.03-.013-.042-.053-.034-.114-.066-.182-.108h-.006s0-.005-.004-.005c-.066-.037-.127-.07-.183-.103-.024-.009-.033 0-.042.011l-.438.573c-.02.03-.039.037-.07.037a7.304 7.304 0 0 0-.3-.148c-.02-.024-.024-.047-.014-.076l.192-.7c0-.01.004-.028-.02-.037-.06-.023-.121-.052-.195-.085h-.01c-.07-.033-.136-.055-.196-.078-.023-.01-.033.004-.038.013l-.36.626c-.014.028-.032.042-.06.046a3.95 3.95 0 0 0-.328-.111c-.017-.02-.024-.042-.017-.07l.097-.72c0-.013 0-.027-.023-.032a3.947 3.947 0 0 0-.206-.057v-.004h-.01c-.075-.019-.14-.037-.2-.05-.029-.006-.033.004-.037.017l-.28.668a.077.077 0 0 1-.049.052 37.993 37.993 0 0 1-.34-.07c-.019-.014-.027-.037-.027-.067v-.724c0-.008 0-.026-.028-.026a1.814 1.814 0 0 0-.208-.033h-.008c-.08-.01-.15-.019-.21-.024-.028-.004-.033.01-.033.02L41 55.82a.081.081 0 0 1-.044.062c-.11-.008-.229-.018-.346-.023a.084.084 0 0 1-.031-.066l-.094-.719c-.005-.01-.01-.024-.033-.024-.033-.003-.065-.003-.103-.003h-.228c-.038 0-.071 0-.103.003-.023 0-.027.015-.027.024l-.095.72c-.004.026-.014.05-.037.065-.117.005-.228.014-.346.023a.088.088 0 0 1-.038-.062l-.186-.698c-.005-.01-.01-.024-.033-.02-.065.005-.135.014-.21.024h-.01c-.08.008-.15.018-.21.033a.026.026 0 0 0-.028.026v.724c.005.03-.004.053-.022.066l-.343.07a.074.074 0 0 1-.051-.051l-.276-.668c-.005-.013-.013-.023-.036-.018a7.538 7.538 0 0 0-.206.051h-.005c-.004 0-.004 0-.004.004a2.406 2.406 0 0 0-.201.057c-.029.005-.024.02-.024.032l.093.72c.004.028 0 .05-.018.07-.108.032-.22.07-.327.111-.024-.004-.043-.018-.056-.046l-.365-.626c-.004-.009-.014-.023-.037-.013-.061.023-.122.045-.196.078h-.01a3.675 3.675 0 0 1-.191.085c-.025.009-.025.027-.019.038l.187.7a.09.09 0 0 1-.01.075 6.983 6.983 0 0 0-.304.148c-.027 0-.051-.008-.068-.037l-.436-.573c-.01-.01-.018-.02-.042-.01-.051.032-.118.065-.182.102v.005h-.009c-.067.042-.127.074-.184.108-.018.012-.013.028-.009.041l.276.668c.014.028.014.057-.005.08-.088.06-.182.121-.27.186-.033.005-.056-.004-.08-.027l-.508-.514c-.01-.01-.025-.02-.043-.005-.052.037-.108.08-.168.126l-.006.004h-.003v.005c-.062.048-.117.09-.166.13-.022.015-.013.03-.008.038l.364.63c.015.029.02.052.005.085-.084.066-.164.14-.242.21-.033.01-.061.005-.085-.014l-.576-.443c-.009-.004-.023-.015-.041.004a3.426 3.426 0 0 0-.15.145l-.005.005s0 .005-.004.005c-.05.05-.102.101-.145.149-.018.018-.01.032-.005.042l.445.574a.082.082 0 0 1 .013.08c-.07.078-.14.163-.21.243-.032.013-.056.013-.084-.005l-.63-.36c-.01-.008-.025-.014-.037.004a2.374 2.374 0 0 0-.131.169h-.006v.005c-.052.064-.092.121-.126.168-.02.024-.01.032 0 .042l.514.514c.023.023.033.046.028.079a5.535 5.535 0 0 0-.186.27.086.086 0 0 1-.08.005l-.67-.28c-.007-.004-.021-.01-.036.014-.033.051-.07.112-.107.182h-.005v.01a1.863 1.863 0 0 0-.102.182c-.015.023-.005.032.005.041l.579.44a.078.078 0 0 1 .033.07c-.053.097-.099.196-.15.299a.076.076 0 0 1-.075.014l-.701-.191c-.01 0-.023-.005-.038.018-.023.062-.051.122-.078.197h-.006v.009c-.031.07-.055.134-.08.196-.008.023.006.032.015.038l.627.358a.076.076 0 0 1 .046.061c-.043.108-.075.215-.113.328-.018.018-.04.023-.07.018l-.719-.098c-.01 0-.028 0-.034.023l-.056.206h-.003v.009c-.019.075-.038.14-.051.2-.005.029.008.033.018.038l.668.28c.028.01.042.023.051.047-.023.117-.046.229-.065.341-.018.023-.043.027-.07.027h-.724c-.009 0-.024 0-.028.029-.01.06-.024.131-.033.206v.01c-.01.078-.018.148-.024.209-.003.028.01.032.018.037l.702.187c.029.004.047.02.061.042-.009.112-.018.229-.024.345-.013.024-.033.033-.066.038l-.72.094c-.008 0-.022.004-.022.027-.005.066-.005.136-.005.21v.014c0 .075 0 .146.005.21 0 .024.014.029.023.029l.72.093c.032.005.052.014.065.038.006.115.015.228.024.346a.082.082 0 0 1-.061.04l-.702.187c-.009.006-.021.01-.018.037.005.062.015.132.024.206v.014c.009.075.018.145.033.206 0 .028.019.028.028.028h.724c.027 0 .052.005.07.024.019.116.042.228.065.345-.009.023-.023.037-.051.046l-.668.28c-.014.005-.023.01-.018.038l.05.2v.01h.004l.056.205c.006.023.024.023.034.023l.72-.097c.028-.005.05 0 .07.019.032.112.07.219.112.327-.005.028-.018.046-.046.055l-.627.364c-.009.006-.023.015-.015.038.025.061.049.125.08.195v.01c.033.077.061.136.084.197.01.019.028.019.038.014l.7-.187a.077.077 0 0 1 .076.014c.046.099.097.2.15.299 0 .032-.01.051-.037.07l-.575.439c-.01.01-.02.019-.01.042l.102.182c.005 0 .005.005.005.005v.005h.005c.038.07.074.13.107.182.01.018.024.018.037.013l.668-.28a.082.082 0 0 1 .081.005c.06.093.122.183.186.27.005.034-.005.057-.028.08l-.514.514c-.01.01-.02.018 0 .043l.122.167h.004v.005h.006c.046.066.087.116.131.168.012.018.027.015.037.005l.63-.36c.028-.018.052-.018.084-.005.07.08.14.164.21.243a.083.083 0 0 1-.013.08l-.445.575c-.004.008-.013.022.005.04a2.337 2.337 0 0 0 .15.155v.004h.005c.056.057.102.103.148.146.02.019.033.009.042.004l.576-.443a.08.08 0 0 1 .078-.014c.08.07.165.145.244.21.015.032.015.06-.004.084l-.36.63c-.01.01-.014.024.005.042.051.037.107.08.169.127v.004h.003v.004l.174.127c.018.013.028.004.037-.005l.514-.514c.024-.022.047-.032.08-.028.088.066.178.126.27.187a.082.082 0 0 1 .005.08l-.28.668c-.005.013-.005.028.013.041.052.033.113.065.184.108h.004c0 .005.005.005.005.005.064.037.126.07.182.103.024.009.032 0 .042-.01l.436-.575c.017-.027.037-.037.068-.037.099.051.201.102.3.15.018.023.023.046.014.074l-.187.696c-.006.014-.006.028.019.037l.19.085h.005c.006 0 .006 0 .006.004.07.029.135.056.196.074.023.01.033 0 .037-.013l.365-.621c.008-.029.028-.042.056-.047.107.042.214.08.327.112.018.02.022.042.018.07l-.098.715c0 .015 0 .028.023.033.06.019.132.037.207.06h.009c.074.023.145.037.2.051.029.01.033-.004.037-.014l.28-.672a.076.076 0 0 1 .049-.047c.116.022.227.047.346.065.018.015.022.038.022.066v.724c0 .014 0 .028.028.032.06.01.13.02.206.029h.014c.075.013.145.018.204.027.03 0 .035-.014.039-.023l.186-.7c.005-.028.02-.047.038-.056.111.009.23.014.346.018.023.019.033.038.037.066l.095.72c0 .01.004.022.027.027h.434c.024-.005.028-.018.033-.028l.094-.72c0-.027.014-.046.032-.065.116-.004.234-.01.345-.018.024.009.039.028.048.056l.187.7c0 .01.01.023.033.023.06-.009.13-.014.21-.027h.008c.081-.009.147-.019.212-.029.024-.004.024-.018.024-.032v-.725c0-.027.008-.05.027-.065.113-.018.229-.043.34-.065.024.01.043.022.052.047l.277.672c.004.01.013.024.038.014.06-.014.125-.028.204-.051h.01l.201-.06c.023-.005.023-.018.023-.033l-.097-.714c-.007-.029.004-.052.017-.07.113-.033.22-.07.327-.113.03.005.047.018.061.047l.36.62c.01.014.019.025.043.014.055-.018.12-.045.196-.074v-.004h.005c.074-.034.139-.061.195-.085.024-.01.02-.023.02-.037l-.192-.696c-.005-.028-.005-.05.014-.074.102-.048.201-.099.303-.15.028 0 .052.01.067.037l.443.574c.004.01.019.02.037.01.056-.032.117-.065.187-.102v-.005h.006c.068-.043.129-.075.182-.108.023-.013.017-.028.013-.041l-.275-.668c-.015-.029-.015-.057 0-.08.092-.06.186-.12.275-.187a.083.083 0 0 1 .076.028l.513.514c.009.009.019.019.042.005l.168-.127v-.004h.005s0-.004.004-.004l.164-.127c.019-.018.015-.033.01-.042l-.365-.63c-.019-.024-.019-.052-.005-.084.085-.065.164-.14.243-.21a.093.093 0 0 1 .085.014l.575.443c.01.005.017.014.037-.004.047-.043.098-.089.154-.146v-.004h.005v-.004c.055-.052.107-.102.15-.15.013-.019.008-.032 0-.041l-.44-.575a.076.076 0 0 1-.02-.08c.075-.079.147-.163.216-.243a.082.082 0 0 1 .085.005l.626.36c.008.01.023.013.041-.005.038-.052.08-.102.133-.168v-.005h.003c.046-.065.089-.12.126-.167.014-.025.005-.033-.006-.043l-.511-.514c-.024-.023-.03-.046-.024-.08.06-.087.121-.177.182-.27.028-.015.05-.018.079-.005l.673.28c.009.005.024.005.037-.013.033-.051.065-.112.108-.182v-.005h.005v-.005c.037-.066.074-.126.102-.182.014-.023 0-.033-.01-.042l-.574-.439c-.023-.019-.037-.038-.037-.07.05-.099.103-.2.148-.3a.077.077 0 0 1 .075-.013l.703.187c.013.005.027.005.037-.014.026-.06.055-.12.083-.196v-.005l.005-.006c.03-.07.057-.134.075-.195.008-.023 0-.032-.009-.038l-.632-.364c-.022-.009-.037-.028-.041-.055.037-.108.075-.215.107-.328a.077.077 0 0 1 .07-.018l.719.097c.016 0 .028 0 .038-.023.015-.06.032-.13.057-.205v-.01c.023-.073.037-.144.05-.2.01-.028-.003-.032-.013-.037l-.673-.28a.075.075 0 0 1-.051-.047c.028-.117.046-.229.07-.345.013-.019.037-.024.066-.024h.724c.013 0 .027 0 .032-.028.01-.061.019-.131.028-.206v-.014c.013-.074.02-.144.028-.206 0-.027-.015-.031-.024-.037l-.7-.187c-.027-.004-.047-.018-.056-.04.01-.118.014-.23.018-.346a.096.096 0 0 1 .066-.038l.719-.093c.01 0 .024-.005.03-.03v-.433c-.006-.023-.02-.027-.03-.027Zm-9.173 7.775c-4.15 0-7.53-3.382-7.53-7.529 0-4.15 3.38-7.532 7.53-7.532 4.149 0 7.534 3.382 7.534 7.532 0 4.147-3.385 7.529-7.534 7.529Z" clip-rule="evenodd"/><path fill="#B62537" fill-rule="evenodd" d="m39.78 68.874-.01-.004-.02-.008.02-.01.008-.004a.158.158 0 0 0 .086-.143v-.198c0-.084-.076-.157-.163-.157h-1.083a.157.157 0 0 0-.156.157v.198c0 .061.034.118.086.143l.008.005.021.01-.021.007-.009.004a.156.156 0 0 0-.098.148v.23c0 .086.064.156.144.156h1.14c.08 0 .145-.07.145-.157v-.229a.158.158 0 0 0-.099-.148Zm-1-.278c0-.034.03-.06.067-.06h.638c.037 0 .066.026.066.06v.13c0 .033-.029.06-.066.06h-.638c-.038 0-.068-.027-.068-.06v-.13Zm.783.566c0 .033-.03.061-.067.061h-.661c-.037 0-.066-.028-.066-.06v-.133c0-.035.03-.063.066-.063h.66c.038 0 .068.028.068.063v.132ZM38.025 69.407h-.335v-.797c0-.03-.025-.031-.036-.032a.203.203 0 0 0-.055.01l-.249.056v-.191l.263-.067.035-.009a.484.484 0 0 1 .135-.025h.201c.027 0 .041.016.041.043v1.012ZM30.104 58.987c.111.163-.027.428-.128.562-.11.143-.414.05-.556-.006-.182-.071-.328-.184-.22-.37a.646.646 0 0 0 .05-.164c.012-.142.029-.33.214-.209.068.035-.14.382-.128.424.013.045.046.047.092.061.194-.106.02-.465.311-.398.1.1-.042.292.044.354.086.06.098-.24.257-.273.015-.004.058.012.064.02Zm-.047-1.267c-.04.029-.178.145-.182.032-.01-.165.124-.286.195-.421.074-.143.178-.265.353-.2.123.047.257.16.356.246.09.079.116.249.118.363.007.171-.066.52-.31.44-.072-.197.167-.249.044-.414-.153-.013-.095.139-.248.126-.155-.097.047-.288-.051-.402-.08.003-.13.056-.161.125-.034.068-.056.066-.114.105Zm1.657.48c.06-.012.243-.003.274.043.156.189-.031.356-.053.535-.077.258-.202.339-.044.604.105.178-.014.516-.25.491-.08-.064-.006-.236-.06-.28-.296-.043-.293.506-.705.34a.092.092 0 0 1-.029-.032c-.039-.168.1-.197.133-.305-.055-.085-.185-.073-.235-.163-.033-.341.146-.645.301-.913.073-.125.181-.22.334-.152.201.09.05.375.135.512.25-.004.104-.498.17-.654.004-.007.018-.023.029-.026Zm-.712.984c-.095-.14.074-.309.112-.447.016-.022.025-.053.065-.056.04-.002.007-.003.077.039.07.042-.16.604-.255.464Zm.366.1-.002.001c-.014.201-.193.21-.214.145-.015-.046.09-.275.19-.215.01.005.028.036.027.045l-.001.016v.008Zm.791-1.784c-.145.006-.647.079-.755.137-.255.139-.356.274-.514.513-.066.095-.135.228-.247.128-.082-.074-.162.04-.256.01-.103-.029-.1-.122-.141-.2-.057-.112-.191.01-.268.023-.06-.041-.02-.212-.08-.254-.196-.003-.241.12-.196.281.047.17-.111.267-.1.429.054.053.136.036.192 0 .075.033.103.118.127.188.039.117.091.054.183.05.472-.02.143.562.08.79-.033.122-.079.3-.011.418.04.074.156.298.18.347.107.183.636.44.451.04-.12-.26-.36-.418-.315-.73.054-.366.122-.635.273-.972.125-.277.386-.508.619-.69.115-.09.234-.166.385-.167.152-.002.314.052.46-.011.066-.092.003-.26-.067-.33Zm-1.743 1.229c-.084-.09.085-.353.168-.189.012.11-.093.216-.168.189ZM45.603 53.449a3.675 3.675 0 0 0-1.176-.447c-.207-.036-.406.411-.198.532.081.047.405.034.393.171-.015.087-.332-.076-.581.063a.152.152 0 0 0-.033.022c-.076.05-.138.14-.207.204-.071.066-.174.214-.286.195-.09-.015-.245-.162-.235-.182.043-.08.157-.03.227-.121.13-.167.102-.362.176-.546.078-.198.398-.142.401-.426.003-.116-.106-.182-.185-.26l-.099-.07c-.046-.028-.24-.026-.21.119.016.07.142.265.015.296-.173.043-.414-.034-.581-.077-.03-.007-.239-.081-.27-.077a.115.115 0 0 0-.063.026c-.07.07-.064.194-.005.263 0 .002 0 .002.002.002a.076.076 0 0 0 .017.015c.038.009.174.017.178.017a.903.903 0 0 1 .317.075c.11.051.169.09.05.127l-.005.001h-.003c-.172.06-.481-.093-.652-.006-.006.003-.017.012-.019.016-.015.026-.064.123-.008.152a.498.498 0 0 0 .166.048c.036.003.253 0 .355-.004a.36.36 0 0 0 .079-.017.23.23 0 0 1 .061-.018c.072-.01.134.003.1.093-.043.111-.445.222-.55.196-.107-.026-.226.115-.23.136-.018.099-.01.207-.055.31-.06.14-.185.33-.119.486.02.052.333.067.692.116.027.003.05.008.074.01.227.035.467.086.657.167.074.032.134.057.185.076.262.133.532.3.575.35.207.24.528.636.653.467-.01-.17-.106-.292-.18-.437-.03-.062.053-.088.087-.13.12-.156.151-.394.191-.581.035-.157.057-.316.097-.471.049-.178-.194-.299-.353-.345-.021-.006-.059-.045-.055-.057.03-.128.262-.025.405.066.057.035.2.028.23-.022.044-.078.073-.175.113-.236.095-.15-.018-.22-.138-.287Zm-2.88 1.152c.106.045.445-.377.25-.509-.196-.134-.353.464-.25.509Zm.508-.185c.036-.034.1-.079.212.015a.11.11 0 0 1 .02.038c.046.334-.471.186-.233-.053Zm1.035-.43c.036-.099.187-.045.207.04.002.008-.012.025-.019.025-.066.013-.123.015-.185-.042-.003-.002-.005-.019-.003-.024Zm-.413.895c.102.065.33.001.33-.143-.001-.244-.381-.27-.487-.09-.025.053.053.167.157.233Zm.35-.46c-.05-.021-.224-.114-.202-.188.02-.057.118-.093.311.037.008.004.022.04.02.052-.008.078-.022.148-.13.1Zm.6.814c.085-.113.084-.238-.027-.33a.162.162 0 0 0-.029-.02c-.046-.033-.095-.049-.14-.074a.148.148 0 0 0-.097-.019c-.105.012-.19.078-.188.19.004.195.268.284.438.277a.102.102 0 0 0 .043-.024Zm.242-.516c-.04.118-.357-.09-.351-.238 0-.006.008-.019.012-.02.096-.013.381.139.34.258Zm-.297-.555c.032-.19.276.014.217.142-.003.006-.023.016-.029.015a.203.203 0 0 1-.08-.055c-.032-.033-.11-.095-.108-.102Zm.454-.424a.18.18 0 0 1-.027-.023c-.13-.15-.401-.255-.6-.268a.184.184 0 0 1-.043-.01l-.012-.01c-.042-.046-.106-.224.04-.178.16.05.16.063.278.105.107.038.282.094.377.14.004 0 .007.003.01.004a.186.186 0 0 0 .02.01h-.003c.017.01.033.021.048.035.125.114.081.239-.088.195ZM50.92 59.924c-.013-.057-.055-.212-.06-.313-.006-.264-.07-.494-.105-.754-.015-.114-.077-.535.12-.532.012 0 .049-.044.05-.057.017-.208-.117-.289-.303-.214-.102.042-.16.056-.258-.008-.021-.015-.22-.127-.403-.25-.117-.075-.47-.345-.47-.345-.16-.096-.321-.34-.416-.062.124.248.402.337.592.509.093.083.157.262-.034.198-.186-.067-.4-.296-.513-.362-.107-.061-.355-.085-.27.11a.54.54 0 0 0 .26.273c.063.03.288.103.302.154.034.072.019.251-.032.314-.084.103-.308-.06-.415-.145a1.726 1.726 0 0 0-.118-.073c-.07-.043-.224-.115-.328-.163a2.79 2.79 0 0 0-.194-.072c-.115-.033-.474-.123-.404.133.002.003.011.017.023.026.035.025.123.082.223.136.094.052.526.186.685.271.15.08.323.121.45.24.053.05.072.094.083.141.011.046.067.324.067.423 0 .253-.065.551-.124.743-.061.197-.236.524.084.535.318.012.306-1.035.324-1.266.006-.07.031-.385.168-.27.23.194.171.508.2.766.007.073.072.094.136.114.02.006.104.002.114-.013a.491.491 0 0 0 .054-.287c-.009-.17-.09-.404-.022-.572.047-.096.118-.129.153-.011l.002.013c.01.035.026.146.026.169-.004.19.067.69.077.703.074.099.21.153.306.022.035-.039-.017-.166-.03-.224Zm-.41-1.31c-.013.205-.229.341-.399.437-.166.092-.387-.126-.425-.266-.019-.067-.037-.28.023-.328.071-.055.172-.011.242-.07.006-.005.013-.036.012-.044-.024-.201.282-.075.44.052.049.037.108.182.106.22ZM41.568 68.35h-1.14c-.082 0-.146.07-.146.157v.334c0 .086.064.156.145.156h.896c.036 0 .068.028.068.061v.105c0 .032-.03.06-.068.06h-.654a.068.068 0 0 1-.059-.034h-.328v.063c0 .086.064.156.145.156h1.14c.08 0 .144-.07.144-.157v-.744c0-.086-.064-.157-.143-.157Zm-.177.395c0 .034-.03.062-.068.062h-.652c-.037 0-.068-.028-.068-.062v-.15c0-.032.03-.06.068-.06h.652c.036 0 .068.029.068.06v.15ZM42.26 69.408h1.14c.08 0 .144-.07.144-.157v-.333c0-.086-.064-.157-.143-.157h-.897c-.037 0-.067-.027-.067-.06v-.105c0-.033.03-.06.067-.06h.652c.026 0 .05.013.06.033h.328v-.062c0-.086-.064-.157-.143-.157h-1.14c-.08 0-.146.07-.146.157v.744c0 .087.065.157.145.157Zm.177-.395c0-.033.03-.06.067-.06h.652c.036 0 .068.027.068.06v.15c0 .034-.032.06-.068.06h-.652c-.037 0-.067-.028-.067-.06v-.15ZM28.632 64.713c-.004-.08.003-.265.005-.392.077.01.168.016.26.019v.011a.565.565 0 0 0-.128.38c.008.129.074.21.185.204.08-.005.127-.039.18-.115.08-.112.126-.245.219-.366a.408.408 0 0 1 .338-.175c.126-.006.373.053.396.526.003.088.006.227 0 .346a2.71 2.71 0 0 0-.252-.042v-.012c.068-.062.121-.136.115-.3-.008-.158-.098-.231-.19-.228-.112.005-.175.025-.307.295-.166.34-.27.354-.403.361-.16.007-.397-.07-.418-.512ZM29.58 66.582c-.163.026-.536.095-.691.152-.008-.085-.013-.114-.023-.176a2.451 2.451 0 0 0-.039-.195c.199-.016.495-.055.647-.081a3.471 3.471 0 0 0-.031-.233c-.013-.079-.029-.154-.046-.24-.23.04-.43.075-.64.136-.006-.08-.017-.142-.022-.177-.01-.05-.015-.09-.04-.192.197-.011.543-.06.7-.086.152-.025.65-.095.697-.174l.008-.001c.01.085.018.14.027.2.01.064.022.127.038.192-.142-.003-.345.03-.61.074a5.502 5.502 0 0 0 .078.474c.32-.055.466-.075.591-.155l.008.002c.004.07.012.12.025.2.01.062.028.144.04.194a7.765 7.765 0 0 0-.717.086ZM29.275 68.047c-.02-.065-.038-.122-.066-.19.145-.051.353-.18.45-.242a2.857 2.857 0 0 0-.051-.193l-.06-.173c-.12 0-.375.013-.501.075-.021-.072-.027-.108-.044-.16a2.183 2.183 0 0 0-.056-.165c.087.02.244.038.31.043a16.698 16.698 0 0 0 1.009.045c.049 0 .13.004.173-.027l.012-.002c.022.067.038.12.054.16.02.062.044.12.07.181-.04.02-.116.063-.18.104-.13.08-.29.186-.41.267-.203.136-.318.215-.419.29a2.133 2.133 0 0 0-.233.201 3.677 3.677 0 0 0-.058-.214Zm.931-.791-.003-.009a9.297 9.297 0 0 0-.51-.003 1.666 1.666 0 0 0 .09.291c.14-.087.288-.185.423-.28ZM30.505 69.213c-.088.04-.455.203-.61.29a1.506 1.506 0 0 0-.124-.232c.112-.17.329-.472.426-.605l.293-.4-.003-.008-.373.171c-.07.033-.445.23-.567.324l-.054-.137a2.57 2.57 0 0 0-.07-.135c.208-.037.711-.26.809-.305.074-.034.384-.165.485-.273l.01-.004a2.966 2.966 0 0 0 .167.366 5.617 5.617 0 0 0-.314.39c-.15.216-.248.348-.332.47l.002.005.25-.114c.143-.065.512-.258.582-.336.013.038.037.097.058.142.029.06.031.066.066.128a5.61 5.61 0 0 0-.701.263ZM30.989 70.689a2.1 2.1 0 0 0-.243.157 2.548 2.548 0 0 1-.319-.413c-.243-.386-.197-.686.252-.97.275-.174.672-.279 1.005.248.09.145.188.318.234.405a1.462 1.462 0 0 0-.267.098l-.009-.014c.037-.117.015-.275-.083-.433-.155-.244-.411-.206-.701-.023-.405.256-.407.447-.265.673.065.103.128.078.184.044l.126-.08c.06-.039.13-.084.178-.174l.01-.004c.03.055.066.116.1.17.045.071.058.092.105.155-.07.026-.214.103-.307.16ZM32.232 71.61c-.128.106-.414.356-.517.485-.05-.07-.07-.093-.11-.14-.032-.037-.06-.071-.134-.148.164-.114.398-.3.516-.401-.064-.083-.094-.123-.146-.184a4.47 4.47 0 0 0-.164-.183 6.5 6.5 0 0 0-.48.445 2.708 2.708 0 0 0-.24-.286c.163-.11.436-.33.558-.431.116-.1.51-.415.508-.506l.007-.006c.053.069.086.112.126.16.042.049.085.097.13.145-.123.069-.28.202-.485.375.068.09.099.125.15.187.053.061.077.09.16.18.245-.21.36-.301.428-.434l.006-.004c.04.058.074.098.127.16.04.048.094.11.132.147a7.63 7.63 0 0 0-.572.439ZM32.717 73.026c-.05-.045-.094-.085-.154-.13.1-.119.213-.334.264-.438a2.565 2.565 0 0 0-.143-.138c-.047-.044-.102-.088-.139-.119-.104.06-.316.203-.394.32-.052-.051-.076-.078-.119-.115a2.16 2.16 0 0 0-.132-.113 3.18 3.18 0 0 0 .29-.121 13.964 13.964 0 0 0 .89-.478c.043-.024.114-.06.135-.11l.009-.01c.052.048.096.084.128.113.05.04.099.08.152.12a2.059 2.059 0 0 0-.101.18c-.071.136-.154.307-.218.44-.104.22-.162.346-.21.461-.02.05-.07.172-.098.292a4.612 4.612 0 0 0-.16-.154Zm.397-1.155-.007-.008c-.16.09-.297.17-.44.259.04.04.067.07.106.104.052.05.078.068.12.102.078-.147.154-.308.22-.457ZM33.246 73.439a3.943 3.943 0 0 0-.166-.118 5.77 5.77 0 0 0 .453-.549c.142-.19.346-.447.377-.603l.005-.006c.052.045.097.082.148.12.051.038.11.078.173.12-.133.13-.37.449-.419.514-.08.106-.308.408-.43.636-.074-.061-.11-.091-.141-.114ZM34.904 73.659c-.097.17-.206.362-.247.431-.12.208-.31.297-.766.096l.044-.127c.186.08.296.082.422-.1.046-.065.15-.238.225-.37.132-.227.348-.56.35-.715l.005-.009a3.308 3.308 0 0 0 .348.2c-.139.16-.301.457-.381.594ZM35.255 74.655a3.447 3.447 0 0 0-.346-.17c.136-.206.27-.475.345-.624.104-.214.258-.505.26-.663l.002-.007c.06.034.11.061.167.09.058.03.122.055.193.088-.108.151-.282.509-.317.58-.059.12-.227.46-.304.706ZM36.5 75.153a1.945 1.945 0 0 0-.19-.065c.048-.146.072-.389.084-.505a6.19 6.19 0 0 0-.183-.076 4.109 4.109 0 0 0-.175-.058c-.074.093-.219.303-.248.441-.07-.028-.1-.046-.153-.065a2.665 2.665 0 0 0-.165-.056c.07-.056.18-.17.224-.218a13.352 13.352 0 0 0 .655-.771c.03-.038.082-.1.084-.151l.006-.012.16.056c.061.021.12.039.184.057-.008.043-.02.13-.027.205-.014.152-.032.342-.041.486-.017.244-.024.383-.026.509-.003.053-.003.186.016.307-.086-.036-.145-.062-.206-.084Zm-.056-1.222-.008-.002a7.79 7.79 0 0 0-.314.401c.048.023.089.04.135.058.07.025.098.034.15.05.018-.165.03-.342.037-.507ZM38.371 74.91c-.074.32-.256.684-.83.549-.348-.082-.638-.256-.5-.844.081-.343.26-.701.834-.566.49.116.603.408.496.86Zm-1.003-.216c-.076.323-.04.567.205.626.29.066.406-.204.47-.483.062-.263.086-.58-.193-.647-.283-.065-.409.198-.482.504ZM40.176 74.537h-.012a1.127 1.127 0 0 0-.38-.075c-.002.045-.025.33-.042.633-.016.299-.004.605.005.654-.089-.009-.112-.012-.19-.017-.067-.004-.116-.007-.197-.004.041-.183.066-.575.075-.718.008-.15.02-.425.025-.565-.155-.009-.353-.004-.414.029h-.014c.017-.06.035-.146.04-.2.202.023.37.035.56.045.202.011.398.022.6.018-.022.047-.04.13-.056.2ZM41.6 74.974c.022.329-.045.73-.635.768-.357.024-.684-.059-.723-.663-.022-.35.044-.745.631-.783.503-.032.697.214.727.678Zm-1.024.087c.023.331.129.554.38.538.295-.02.327-.313.308-.598-.017-.27-.086-.582-.373-.563-.29.019-.334.31-.315.623ZM42.945 74.746a9.7 9.7 0 0 0 .145.657c-.09.017-.176.041-.255.07-.14-.147-.386-.426-.492-.55l-.326-.377h-.005l.082.403c.015.077.123.487.187.626a1.744 1.744 0 0 0-.292.06c.009-.211-.094-.753-.115-.858-.018-.08-.075-.41-.157-.534l-.002-.01a3.19 3.19 0 0 0 .394-.08c.063.09.218.293.309.393.176.196.283.32.382.43l.007-.002-.054-.268c-.033-.155-.137-.557-.197-.644.04-.004.103-.014.15-.023.066-.014.073-.015.14-.037 0 .187.077.636.1.744ZM44.49 74.612c.017.054.05.164.1.273-.18.102-.299.154-.477.215-.43.15-.712.035-.885-.466-.107-.309-.117-.72.47-.924.163-.054.355-.11.45-.134.001.102.013.184.034.283l-.015.004a.54.54 0 0 0-.441-.017c-.274.096-.295.352-.182.677.155.453.34.498.593.412.114-.04.106-.106.085-.168l-.05-.143a.452.452 0 0 0-.127-.213l-.002-.01c.06-.016.126-.038.189-.058.079-.028.102-.035.173-.067.008.074.053.232.085.336ZM46.037 73.089c.076.142.166.311.246.452.131.23.131.463-.252.683-.404.23-.582.13-.729-.125-.038-.066-.134-.244-.201-.363-.049-.084-.208-.386-.318-.45l-.003-.004a3.496 3.496 0 0 0 .349-.2c.055.177.246.505.295.59.12.214.203.353.255.4.074.067.19.078.302.015.263-.15.192-.315.032-.594-.222-.389-.299-.539-.444-.662a2.308 2.308 0 0 0 .282-.162c.053.181.14.335.186.42ZM47.322 72.495c.06.075.3.396.419.528a1.39 1.39 0 0 0-.198.172c-.191-.07-.535-.214-.685-.28l-.457-.195-.005.003.25.327c.047.06.323.383.443.48a1.476 1.476 0 0 0-.123.085c-.037.03-.08.064-.116.096-.082-.193-.413-.635-.477-.72-.05-.065-.247-.336-.375-.412l-.007-.008a2.836 2.836 0 0 0 .32-.244c.097.053.324.168.45.219.245.098.395.163.532.218l.004-.004-.166-.217c-.095-.126-.365-.443-.458-.493.033-.022.087-.058.126-.088.051-.04.057-.044.11-.094.081.17.347.538.413.627ZM48.193 72.606c-.048.045-.078.077-.144.144a5.708 5.708 0 0 0-.462-.543c-.162-.174-.38-.42-.529-.477l-.003-.005c.052-.044.095-.082.142-.126.047-.044.096-.095.152-.15.102.156.376.445.431.503.09.097.347.375.55.535-.073.064-.108.092-.137.12ZM48.395 70.697c.067.118.173.297.263.454.09.16.27.473.352.607a1.334 1.334 0 0 0-.153.196 23.801 23.801 0 0 0-.691-.308c-.183-.077-.36-.153-.483-.201a.81.81 0 0 0-.232-.063l-.006-.005c.047-.043.098-.097.144-.153.05-.056.097-.112.138-.164.045.04.124.086.18.118.091.053.255.127.434.206.131.059.224.103.336.146l.005-.007a7.747 7.747 0 0 0-.233-.383c-.148-.223-.264-.388-.382-.462.04-.038.072-.071.11-.114.038-.042.067-.074.102-.123.031.094.078.185.116.256ZM50.03 70.426c-.13.169-.204.279-.286.394-.086.124-.112.16-.246.36a5.138 5.138 0 0 0-.555-.433c-.233-.164-.517-.379-.617-.37l-.006-.005a22.09 22.09 0 0 0 .54-.763.657.657 0 0 0 .141.14l-.005.007c-.095.068-.215.213-.342.391.102.093.295.223.386.286.08-.114.143-.204.205-.334.04.042.097.093.15.132-.113.094-.18.194-.242.28l.205.144c.195.138.24.135.315.03.096-.137.175-.286.194-.408l.009-.01c.052.072.1.113.154.16ZM50.669 69.283c-.031.059-.054.108-.09.18a2.478 2.478 0 0 0-.364-.089c-.135-.025-.235-.04-.29-.016-.053.022-.08.08-.123.161.105.052.45.235.595.276-.034.053-.067.113-.1.17a2.737 2.737 0 0 0-.083.168c-.165-.124-.51-.31-.619-.368-.188-.102-.526-.295-.64-.295l-.005-.003c.058-.1.1-.178.153-.277.063-.114.108-.201.174-.324.138-.251.308-.258.462-.174a.357.357 0 0 1 .167.466l.003.001c.06-.1.14-.128.233-.115.066.007.086.009.201.027.148.023.329.053.417.029l.013.006c-.048.078-.078.13-.105.177Zm-1.349-.215a.896.896 0 0 0-.068.14c.084.055.192.114.223.131.082.044.127.072.203.113.026-.046.043-.072.062-.105.07-.126.06-.243-.132-.349-.162-.087-.246-.01-.288.07ZM50.996 68.58c-.03.073-.114.24-.168.354a2.362 2.362 0 0 0-.23-.126l.006-.01a.562.562 0 0 0 .274-.292c.05-.119.022-.22-.082-.263-.075-.03-.132-.018-.212.029-.117.069-.216.17-.352.241a.403.403 0 0 1-.38.018c-.117-.048-.316-.205-.138-.644.033-.08.089-.209.144-.313.054.041.135.096.21.142l-.004.012c-.089.028-.167.072-.23.226-.06.145-.008.249.078.284.103.042.168.051.402-.14.292-.239.394-.207.516-.158.148.06.332.23.166.64ZM51.335 67.597c-.021.064-.032.105-.055.196-.224-.102-.511-.193-.67-.244-.226-.07-.538-.176-.695-.153l-.007-.002c.026-.063.045-.119.063-.18.02-.06.036-.13.058-.204.164.085.545.2.622.224.127.04.488.155.744.192-.033.091-.05.133-.06.17ZM50.497 65.86l-.003.013a1.127 1.127 0 0 0-.133.363c.044.009.322.076.618.142.292.064.598.101.647.1-.023.087-.031.11-.047.185-.014.065-.024.112-.036.193a6.2 6.2 0 0 0-.696-.188 28.107 28.107 0 0 0-.555-.114c-.033.15-.06.349-.037.412l-.002.013a1.191 1.191 0 0 0-.193-.069c.057-.197.094-.362.135-.545.043-.199.085-.392.114-.591.043.03.12.06.188.086ZM50.605 64.441c.11.087.223.168.63.425.137.01.213.015.314.017.095 0 .213 0 .282-.013-.012.08-.015.132-.02.191-.005.063-.007.095-.009.198a1.441 1.441 0 0 0-.27-.052c-.1-.007-.178-.02-.318-.03-.337.14-.626.288-.7.325a.694.694 0 0 0-.162.112l-.008-.002a3.471 3.471 0 0 0 .034-.458.41.41 0 0 0 .151-.026c.114-.04.27-.09.516-.199v-.007a4.968 4.968 0 0 0-.441-.235.51.51 0 0 0-.187-.047c.008-.054.012-.092.019-.17.004-.057.009-.111.007-.162.055.055.13.111.162.133ZM57.788 66.513c-.06.048-.067.164-.053.3.018.163.065.377.116.501.094.214.565.617.752.744.348.235.377.257.759.245.137-.004.512-.02.738-.138.152-.074.265-.157.362-.249.1-.093.185-.197.269-.31.615-.77 1.562-1.501 2.39-2.058.348-.234.97-.68 1.404-.662.708.032 1.377-.236 1.993-.587.216-.122.367-.247.464-.391a.949.949 0 0 0 .15-.51c.004-.076.024-.36-.044-.409-.046-.03-.157 0-.275.03-.018.004-.2.043-.2.045a4.15 4.15 0 0 0-1.206.416l-3.474 1.923c-.6.37-2.615 1.142-3.32 1.222-.283 0-.546-.25-.757-.427-.063-.05-.043-.015-.024.052.029.105.05.193.013.218l-.056.045ZM62.913 55.362c-.054.172.002.395.273.775.23.322.372.98.448 1.706a35.59 35.59 0 0 1 .163 3.918c-.01.65-.006 1.16-.032 1.692l-.007.052c-.02.171.693-.198.86-.52.164-.338.215-.846.26-1.43.03-.3.027-.726.125-.993.147-.392.704-.384 1.047-.438.704-.111 1.955-.215 2.378-.761.178-.177.408-.556.337-.817-.016-.054-.031-.267-.101-.42-.209-.534-3.292 1.61-3.552 1.014-.073-.18.073-.918.093-1.033.099-.556.216-1.214.114-1.594-.13-.477-.508-1.035-.83-1.27-.37-.265-1.074-.383-1.203-.348-.077.03-.346.38-.373.467ZM88.054 54.831c.279 0 .83.127 1.092.287.116.072.337.14.484.214.322.161.438.418.438.809 0 .074-.207.286.06.148.067-.035.297-.089.395-.093.19-.008.557-.118.695-.163.05-.23.237-.172.446-.162.058.003.29-.015.367.005.078.02.208-.03.306-.01.184.041.32.167.25.379-.068.218-.38.222-.633.292-.407.11-.85.283-1.18.492-.229.144-.766.334-1.02.417-.13.042-.24.055-.227.022.014-.045.306-.29.36-.335.039-.033.056-.076.086-.127-.086-.012-.292.076-.348.091-.094.025-.274.074-.491.136-.232.063-.533.155-.792.225-.178.047-.326.07-.551.116-.06.012-.176.016-.315.035a4.666 4.666 0 0 1-.36.039c-.047 0-.112-.04-.1-.047.146-.066.546-.235.716-.312.125-.056.176-.113.286-.186.06-.04.126-.169.216-.286.023-.029.077-.09.127-.149.047-.052.045-.104.07-.168.048-.116.144-.193.144-.297 0-.469-.08-.466-.233-.875 0 0-.083-.341-.288-.497Zm-.226 3.753a2.455 2.455 0 0 1-.546.46c-.05.033-.318.3-.328.315-.175.218-.184.158-.357.3-.051.042-.115.124-.169.153-.116.062-.136.132-.235.241-.065.071-.18.268-.184.415-.002.087.081.162.208.169.184.012.348-.173.562-.275.255-.124.49-.28.694-.345.088-.026.171-.02.286-.061.654-.247.908-.45 1.252-.726.206-.167.324-.43.45-.551.114-.108.36-.26.44-.098.059.117.07.324-.036.427a.51.51 0 0 0-.123.33c0 .02.386-.029.43-.027.056.005.27-.083.317-.035.064.06.277.086.335.056.397-.199.412-.764.139-.95-.068-.044-.433-.086-.556-.147-.278-.134-.85.049-1.112.176-.277.134-.412.28-.625.413a2.21 2.21 0 0 1-.374.154c-.123.04-.256.068-.357.115-.054.027-.188.04-.156-.02.034-.059.074-.103.076-.153a.435.435 0 0 0-.014-.147c-.02-.057-.013-.119-.017-.189Zm-1.059 2.275c.184.021.538.193.685.34.212.214.395.302.564.553.148.124.21.234.285.228.068-.047.14-.199.176-.282l.273-.566c.128-.302.113-.355.124-.447.119-.037.388.284.512.323.11.035.199.191.308.323.158.195.285.327.285.51 0 .16-.083.448-.138.556-.08.083-.197.132-.324.248-.076.129-.17.19-.166.26a.494.494 0 0 0 .1.27c.052.065.126.12.177.193l.264.391.006.013c.076.086.138.184.228.274.127.128.214.301.323.456.16.223.337.433.526.617l.77.757c.213.211.563.336.885.485.218.1.44.121.638.185.128.052.24.078.234.13-.007.056-.13.117-.25.185-.237.062-.412.057-.612.062-.069.001-.14-.004-.203.012-.075.016-.129.022-.18.032-.072.017-.12.03-.18.032-.011 0-.127.036-.143.043-.142.05-.282.067-.425.105-.199-.009-.337-.057-.483-.1-.18-.098-.343-.163-.492-.266a2.265 2.265 0 0 1-.77-.933l-.28-.584c-.128-.189-.18-.336-.28-.52-.193-.35-.383-.827-.555-1.089-.22-.073-.46.515-.582.64-.118.121-.174.262-.272.38-.212.26-.454.49-.754.746-.17.145-.601.495-.776.596-.337.195-.718.423-1.079.573-.49.254-.74.35-1.31.313a.911.911 0 0 1-.311-.056c-.048-.036.416-.01.806-.227.481-.198.668-.31.988-.614.239-.2.363-.363.563-.577.223-.235.437-.441.643-.693l.494-.604.37-.593.008-.002c.02-.038.044-.077.068-.116.097-.111.157-.226.218-.316.072-.073.273-.416.282-.5a3.875 3.875 0 0 0-.636-.923c-.119-.12-.187-.321-.326-.462-.013-.08-.2-.248-.276-.361ZM112.797 54.831c-.001.408-.159.735-.299 1.028l-.882 1.99c-.11.155-.235.368-.332.564-.16.324-.274.532-.347.69-.089.05-.463.105-.746.138-.466.054-1.572-.16-1.576-.158-.004.002.082.125.2.276.068.086.162.295.281.385.325.243.536.398.675.53.067.068.185.107.259.143-.07.344-.31.663-.464.91-.137.286-.314.5-.493.78-.203.324-.421.713-.642 1a18.987 18.987 0 0 1-2.315 2.675c-.077.073-.227.145-.302.217-.112.108-.225.19-.339.297-.294.385-1.337.805-1.238.82.32.159 1.109-.262 1.607-.524.429-.204.767-.463 1.154-.71.212-.133.375-.25.549-.372.559-.395 1.107-.855 1.556-1.387l.543-.68.792-1.038c.242.016.655.594.855.911.242.384.311.49.502.927.124.282.347.678.516.905.057.057.296.3.504.412.076.04.14.127.208.16.114.06.259.023.424.037.268-.033.528-.119.644-.324.1-.18.257-.296.387-.417.078-.1 1.081-.303.97-.587-.016-.041-.229.003-.317-.03-.125-.043-.275-.006-.426-.011a9.91 9.91 0 0 1-.685-.047 2.228 2.228 0 0 1-.783-.22c-.086-.04-.207-.11-.37-.204-.573-.331-1.123-.98-1.583-1.31-.225-.156-.398-.3-.615-.47l.301-.552c.269-.37.514-.95.795-1.284.071-.084.217-.19.268-.259.342-.176.719-.226 1.018-.333.411-.083 1.143-.454 1.493-.738.097-.085.197-.295.164-.345-.07-.108-.366-.154-.461-.196l-.597.023c-.099-.016-.178.032-.298-.049-.067.091.102.173-.153.229-.062.013-.725.16-.728.081 0-.246.503-1.2.621-1.491.132-.326.306-.688.487-.97.111-.172.094-.59.057-.795-.192-.28-.459-.558-.839-.627ZM79.49 60.87c-.171.062-.372.127-.581.19-.312.092-.626.174-.94.256.126-.189.206-.313.4-.454a.617.617 0 0 0 .406-.079.377.377 0 0 0 .166-.236c.027-.194.006-.208-.147-.3a6.945 6.945 0 0 0-.697-.378l.104-.068c.252-.169.526-.348.766-.487.181-.105.408-.24.622-.254.014-.002.023.03.033.05.047.102.034.525.005.924-.029.407-.087.804-.12.827a.068.068 0 0 1-.016.009Zm-.99.98a2.975 2.975 0 0 1-.1-.07l-.123-.09.149-.034c.252-.058.48-.11.633-.143.157-.035.261-.051.282-.04.02.007.029.022.032.036.018.045.016.148 0 .284-.017.152-.049.353-.087.564l-.026.143c-.244-.283-.456-.434-.76-.65Zm-1.847 2.12c-.271.055-.46.053-.487-.048-.031-.108.087-.481.244-.876.195-.498.452-1.044.535-1.13.028-.028.781-.14.907-.168.126.185.41.513.35.739a.11.11 0 0 1-.013.026c-.034.043-.16.174-.148.22.004.013.088.018.121.018.073-.003.448.093.449.091.175.05.415-.05.56-.144l.083-.055c-.046.244-.047.457-.084.703-.785.252-1.685.46-2.517.625Zm2.097.762a.1.1 0 0 1-.137-.002c-.026-.025-.048-.06-.07-.09-.076-.103-.122-.14-.217-.222.055-.018.483-.154.515-.107.045.066-.026.362-.09.42Zm-.984-4.64c.13.1.234.315.246.48.017.241-.125.604-.274.799-.164.04-.327.079-.491.113-.035.006-.064-.01-.078-.042-.08-.192.369-1.004.485-1.272l.112-.077Zm3.9.002c-.18-.016-.344-.032-.45.107-.092.123-.157.228-.314.278-.086.028-.212.07-.322.101-.159.047-.281.053-.271-.043.015-.187.028-.619.07-.776.108-.241.254-.586.259-.879.005-.272-.12-.504-.538-.564a1.955 1.955 0 0 1-.097-.017 2.745 2.745 0 0 0-.276-.045h-.002c-.224.017-.46.221-.686.418-.181.158-.358.311-.533.375l-.204.075c.444-.649.812-1.189 1.447-1.68.133-.103.297-.23.457-.377.164-.196.468-.326.74-.442.174-.075.35-.154.53-.212.02-.007.315-.105.388-.19.108-.12.108-.276.045-.42a.68.68 0 0 0-.333-.34.39.39 0 0 0-.432.047c-.476.405-1.345.91-1.978.986a.065.065 0 0 1-.056-.017c-.022-.02-.035-.134-.036-.282-.002-.13.002-.296.01-.449a.07.07 0 0 0-.018-.044c-.128-.157-.685-.19-.857-.138-.231.077-.234.35-.236.633-.002.219-.004.442-.103.615-.105.186-.265.3-.456.387-.076.07-.138.513-.09.614.05.107.335.084.431.08.095-.005.187-.01.269 0 .216.08.479-.136.654-.25.149-.095.285-.182.38-.206.091-.02.154.002.176.093.016.052-.034.1-.097.162-.39.376-.737.836-1.065 1.267-.15.198-.274.362-.332.425-.035.04-.017.084-.104.16-.223.169-.569.416-.855.407-.054-.003-.117-.004-.131.014-.016.233.237.295.337.32.052.012.087.018.097.065 0 .096-.625 1.083-.752 1.272a.064.064 0 0 1-.032.026c-.37.14-.767.13-1.157.142-.042.004-.094-.003-.027.037.14.084.346.169.506.191.18.024.296.028.474.012-.122.289-.275.524-.443.787-.409.646-.95 1.5-.813 1.92.04.078.185.14.256.158.17.046.559.097.724.108.182.013.42-.004.671-.058.266-.059.522-.177.804-.266.19-.063.764-.21.863-.225.153.196.247.403.34.662.097.267.15.552.212.612.105.094.72-.064.914-.096.35-.052.458-1.818.46-1.818.005-.07.134-.07.222-.134.115-.083.209-.244.192-.373-.006-.052-.08-.103-.107-.117-.108-.052-.173-.038-.281-.02.018-.297.036-1.531.158-1.755l.012-.017c.09-.104.616-.14 1.064-.17.262-.018.496-.035.582-.056.296-.074.534-.25.646-.44 0-.002.064-.134.064-.227-.002-.062-.035-.155-.084-.194-.21-.215-.606-.196-.887-.22ZM74.071 55.014a4.349 4.349 0 0 0-.678-.183c-.203.53.308.82.736 1.063.326.186.61.347.573.592-.008.044-.09.196-.099.21-.049.09-.106.196-.134.26-.024.053.151-.094.19-.13.135-.115.287-.243.426-.27a.072.072 0 0 1 .04.004.81.81 0 0 0 .328.046c.214-.007.443-.019.528-.237.05-.128.066-.288.068-.389.012-.595-.634-.695-1.194-.78-.194-.03-.379-.059-.53-.105l-.254-.081ZM70.735 65.53c-.119.116-.32.311-.328.485-.023.424.373 1.153.866 1.184.268.01.548-.254.647-.486.067-.154.178-.412.233-.56.118-.34.71-1.279.923-1.653.541-.954 1.03-1.922 1.549-2.877.127-.271-.085.011-.22.206-.375.56-2.08 2.837-2.4 2.837 0 0-.157-.014-.176-.036-.032-.037-.04-.091-.027-.184.246-.81 1.842-3.521 2.588-3.893a1.76 1.76 0 0 1 .181-.054c.103-.027.21-.056.26-.103.117-.124.172-.241.165-.356-.012-.232-.278-.454-.558-.689-.126-.105-.256-.213-.374-.33-.498-.497-.759-.536-.827-.536-.265 0-.287.68-.296.866a1.526 1.526 0 0 1-.008.124c-.023.16.29.429.477.59.146.125.21.18.216.238.042.148.013.365-.057.53-.33.74-.927 1.68-1.558 2.676-.264.418-1.008 1.759-1.276 2.02ZM119.174 59.73c.099.037.176.024.302-.104.254-.255.201-.498.11-.815-.046-.15-.165-.282-.32-.46-.229-.267-.479-.593-.656-.747-.046-.038-.063-.038-.059.021.032.396.168.801.221 1.268.034.299.167.748.402.837ZM124.811 63.19c-.162-.109-.413-.182-.518-.233-.282-.135-.505.157-.744.275-.228.046-.608.121-.893.219-.364.088-.742.274-1.042.42l-1.622.796a.666.666 0 0 1-.439.057c-.135-.03-.216-.084-.338-.125a.43.43 0 0 0 .004.25c.122.254.145.501.534.494.045 0 .136-.003.179-.006.426-.034.782-.226 1.131-.46.155-.104.28-.236.48-.348.222-.123.483-.258.746-.375.016.137.029.274.005.407-.089.47-.123 1.028-.172 1.377-.049.348-.037.733-.051 1.093-.011.244-.056.447-.16.5-.033.017-.174-.037-.375-.068-.378-.06-.91-.126-1.143-.156-.317-.04-.676-.109-.998-.276-.415-.216-.717-.394-.697-.318.022.08.42.383.834.64l.845.525 1.266.66c.118.06.264.103.375.187.125.093.219.22.399.237.205.017.52-.162.508-.44l.024-1.05c-.012-.286.012-.562.023-.837.015-.401-.079-.815-.079-1.232 0-.351-.092-1.15-.371-1.38.302-.127.543-.167.76-.18.369-.019-.385.225-.444.296-.021.065.392.136.429.123.338-.12.354-.044.603-.067.206-.018.304-.143.514-.205.212-.061.539-.061.669-.193.184-.188.027-.432-.242-.608Z" clip-rule="evenodd"/><path fill="#B62537" fill-rule="evenodd" d="M123.178 59.446c-.172.173-.281.395-.392.414-.319.046-.35-.794-.391-1.026.048-.014.101-.052.155-.071.31-.1.73-.276 1.027-.464.212-.066.35.024.549-.356.072-.236.041-.403-.129-.905-.181-.542-.71-.91-.775-.957-.022-.018.745-.388.832-.415.175-.055.444-.202.718-.291.076-.04 1.152-.537 1.381-.398.051.032.009.132-.045.24-.631 1.276-1.633 2.421-2.406 3.608-.212.235-.463.56-.524.62Zm-.886-1.322c-.018.016-.013.1-.028.195-.01.058 0 .21 0 .314l-.003.03c-.036.014-.057.048-.14.036-.084-.014-.209-.082-.251-.153-.026-.092.064-.16.108-.26.132-.3.44-.65.715-.928.085-.085.257-.108.291-.19.102-.221-.043-.532-.383-.723.148-.072.336-.173.44-.145.179 0 .488.538.532.73.11.264.145.511.031.737-.153.301-.593.565-1.018.743-.063.027-.162.08-.22.11-.048-.216-.065-.525-.074-.496Zm3.671 1.068c-.098.04-.914.195-1.059.239l-.988.297c.067-.137.193-.34.284-.538l.005.002c.62-1.122 1.183-2.142 2.047-3.109l.467-.582c.075-.094.141-.292.195-.373.101-.153.117-.302.027-.38-.081-.076-.414-.122-.635-.155-.323.1-.848.233-1.337.426-.361.143-.709.27-.943.391-.541.283-1.138.484-1.643.852-.063-.022-.117-.055-.189-.07-.09-.052-.23-.068-.209-.084.101-.084.789-.593.894-.7.299-.192 1.342-.864 1.357-1.224.015-.331-.305-.722-.647-.945-.161-.105-.421-.247-.56-.27.044.215.249.383.249.604 0 .074-.064.202-.116.307a9.189 9.189 0 0 1-.966 1.607c-.126.164-.257.401-.399.534-.055.035-.209.009-.286-.01-.188-.043-.213-.04-.199.033.019.12.192.37.258.493.044.083.154.202.129.326-.036.192-.181.533-.31.824-.067.15-.11.287-.177.378-.079.112-.203.126-.319.154.066-.114.043-.25-.067-.468l-.373-.734c-.361-.504-.636-1.208-1.024-1.426.012.216.13.414.201.73.075.315.237.81.269 1.035.03.225.182.588.223.886.022.155-.106.174-.09.206.085.169.257.18.436.084.064-.034.12-.065.17-.096.012.087.25.109.241.193-.026.308-.354.901-.574 1.207-.221.308-.257.224-.255.303 0 .092.234.012.381-.121l.544-.54c.094-.102.241-.358.331-.448.01-.006.095.009.176.082.064.057.111.167.203.22.116.067.253.111.363.159.042.02.157.017.19.037.033.02.008.072.024.1-.011.098.007.193.007.33 0 .1.014.187.038.263a32.38 32.38 0 0 1-.75.348c-.233.1-.359.173-1.05.559-.572.322-.978.712-1.435 1.18-.179.184-.993 1.114-1.208 1.114-.158 0 .744-1.483.845-1.713.107-.246.249-.455.306-.593-.229.13-1.083 1.646-1.151 1.781-.054.138-.301.429-.289.595.025.361-.029.579.186.63.096 0 .166-.085.248-.145.385-.277.628-.473.869-.887.642-1.096 1.057-1.592 2.2-2.06l.977-.4c.088-.035.263-.092.407-.145.12.122.27.169.373.157.164-.02.468-.23.715-.462.179-.041.422-.129.594-.179l1.051-.301c.149-.043.87-.242.87-.18 0 .241-.704.56-.908.647l-1.727.72c-.165.07-.516.229-.757.342-.082.039-.173.118-.225.138-.327.12-.701.306-.578.302.307-.006.611-.09.901-.179.485-.131.986-.338 1.553-.385.626-.104 1.364-.378 1.741-.595.267-.156.759-.526.838-.86.033-.15.019-.297-.089-.402-.162-.156-.676-.084-.851-.056Z" clip-rule="evenodd"/><path fill="#B62537" fill-rule="evenodd" d="M121.883 63.017c-.109.053-.149.144-.146.18.005.11.402.1.547.03.239-.116.878-.78.878-1.035 0-.153-.088-.16-.22-.148-.13.012-.324-.027-.48.02-.061.018-.077.091-.151.14a1.949 1.949 0 0 1-.546.228c-.403.092-.806.255-1.222.104-.193.015.283.481.52.481.18 0 .878-.166 1.012-.301.194-.195-.044.227-.192.301ZM97.468 64.485c-.037-.23-.102-.432-.277-.599-.024-.024-.403-.35-.414-.266.008.235.147.102.156.827 0 .047-.078.152-.058.238.049.211.65.147.593-.2ZM99.612 62.375c.185-.22.126.113.078.15-.139.104-.107-.085-.078-.15Zm2.55-1.868c.163-.51.302-.949.352-1.507.014-.166.07-.327-.008-.474-.133-.248-.534-.292-.826-.227-.371.081-.747.372-.959.517-.824.536-1.578 1.509-1.987 2.41-.044.107-.047-.315-.048-.386-.003-.135.098-.515.04-.462-.146.137-.389.468-.424.667-.135.828-.91 2.342.03 2.978.068.047.279-.132.39-.067.073.041.086-.217.14-.319.159-.306-.057-.583-.089-.922-.05-.56.588-1.843.97-2.292l.612-.784.696-.512c.1-.082.39-.354.566-.39.589-.36-.133 2.279-.178 2.508-.091.452-.251.917-.251 1.37-.1.531-.072 1.062-.152 1.593-.051.335-.177.11-.475.083-.311-.028-.17-.838-.109-1.071-.008-.25-.065-.696.169-.821.164-.089.421-.421.529-.553.178-.387-.147-.523-.457-.601-.446-.11-.073-1.027-.406-1.232-.294-.182-.253.514-.251.61.021.187-.22.223-.438.296-.093.03-.02.019.012.025.057.013.115.048.128.107.097.42-.346.866-.416 1.28-.014.085-.31.447-.154.516.068.032.134.096.321.109.093-.006.168-.112.251-.087.06.019.017 1.219.021 1.392.007.239-.216.255-.021.44.135.13.447-.188.505-.25.038-.04.077-.15.111-.139.151.045.322.255.457.57.067.158.233.229.354.274.368-.133.39-1.035.454-1.345-.022-.324.152-.835.153-1.133.111-.7.175-1.503.388-2.171ZM98.392 57.839c.295-.067.698-.094 1.007-.324.242-.182.424-.41.631-.598.462-.417.919-.864 1.404-1.25.244-.196.728-.545.704-.486-.203.51-.651.972-1.022 1.363-.087.092-.12.542-.074.675.038.104.118.08.182.141.139.131-.99 1.005-.907 1.013.049.004.127-.03.177-.02.256.05.422-.057.631-.174.106-.06.346-.13.445-.184.369-.198.87-.342.624-.835-.068-.135-.225-.172-.301-.226-.279-.195-.028-.312.167-.566.099-.131.326-.38.438-.553.255-.403.523-.478.658-.883.033-.096.228-.268.208-.365-.104-.49-.295-.408-.611-.398-.074.002-.234-.04-.322-.003-.124.053-.148.171-.271.272-.136.113-.594.29-.694.354a56.48 56.48 0 0 0-2.242 1.513c-.68.488-1.23 1.126-2.053 1.426-.01.344 1.071.141 1.221.108ZM103.501 66.248c-.759.058-1.642.264-2.382.065-1.126-.3-2.167-.7-3.28-1.026-.955-.278-1.958-.404-2.874-.795.283.283.512.619.965.763.452.148 1.419.491 1.935.733.684.32 1.397.76 2.024 1.169.505.328 1.083.832 1.64.667.186-.053.438-.337.621-.533.302-.318.755-.329 1.112-.511.208-.108.829-.575.239-.532ZM96.409 62.54c.021.045.637.138.692.105.716-.41-.602-1.748-1.062-1.736-.034.266.199.982.33 1.282.085.194-.048.163.04.348ZM57.808 72.33c0 .332.17.606.57.919l.173.135c.292.23.35.387.35.569 0 .186-.161.386-.462.386-.146 0-.407-.046-.497-.35l-.031-.18c0-.09-.05-.103-.077-.103-.077 0-.084.102-.086.134l-.019.494c0 .09.014.13.095.165.16.07.328.1.563.1a1.1 1.1 0 0 0 .618-.16c.321-.21.37-.52.37-.686 0-.374-.17-.642-.63-.987l-.105-.079c-.322-.244-.382-.364-.382-.508 0-.21.16-.346.405-.346.22 0 .322.097.379.17a.408.408 0 0 1 .088.22c0 .095.049.107.077.107.082 0 .082-.098.082-.151l.012-.386.004-.065c0-.064-.064-.078-.085-.083a1.853 1.853 0 0 0-.505-.064c-.535 0-.907.307-.907.749ZM62.037 72.064l-.495-.007c-.027 0-.11 0-.11.07 0 .018.007.073.095.073l.116.01c.091.026.108.047.114.137l.008.698v.05h-1.206v-.05l.008-.698c.007-.106.028-.125.09-.135l.087-.012c.09 0 .1-.051.1-.073 0-.047-.037-.07-.108-.07l-.437.007-.484-.007c-.074 0-.113.023-.113.07 0 .034.027.073.097.073l.122.01c.089.026.106.047.113.137l.004.672v.562l-.016.675c-.012.103-.032.125-.067.133l-.106.01c-.064 0-.093.036-.093.074 0 .017.008.074.104.074l.423-.012.166.004.37.008c.1 0 .107-.056.107-.074 0-.038-.032-.074-.092-.074l-.162-.01c-.068-.01-.082-.042-.094-.131l-.019-.67v-.222h1.206v.222l-.015.668c-.013.103-.032.125-.066.133l-.112.01c-.06 0-.092.036-.092.074 0 .022.01.074.112.074l.434-.012.156.004.366.008c.1 0 .105-.056.105-.074 0-.037-.033-.074-.092-.074l-.162-.01c-.072-.01-.087-.042-.098-.131l-.015-.677v-.562l.009-.672c.006-.11.031-.126.085-.135l.092-.012c.094 0 .1-.06.1-.073 0-.07-.085-.07-.112-.07l-.423.007ZM64.103 72.766l.277.722h-.562l.285-.722Zm-.046-.631-.861 2.003c-.07.167-.119.24-.242.258l-.093.003c-.045 0-.077.03-.077.073 0 .05.034.075.1.075l.317-.01.065-.003.367.013c.08 0 .091-.047.091-.075 0-.022-.007-.073-.086-.073h-.05c-.09 0-.09-.026-.09-.05l.044-.18.177-.427.768.002.252.639c-.06.024-.075.06-.075.09 0 .058.062.061.12.065l.651.01c.107 0 .184 0 .184-.076 0-.035-.023-.073-.086-.073l-.118-.01c-.032-.006-.12-.024-.25-.319l-.839-1.963c-.035-.073-.06-.124-.135-.124-.064 0-.1.071-.134.152ZM66.104 72.15l-.03 1.888c-.003.271-.016.332-.071.347l-.14.014c-.053 0-.092.031-.092.074 0 .074.08.074.114.074l.301-.01.056-.002.092.002.334.01c.076 0 .115-.026.115-.074 0-.038-.03-.074-.095-.074l-.16-.02c-.036-.013-.078-.059-.085-.31 0 0-.03-1.05-.036-1.208l.108.111.606.616.964.918c.051.052.105.078.16.078.043 0 .093-.037.093-.14l.038-2.01c.004-.18.03-.206.092-.224l.09-.01c.066 0 .096-.036.096-.073 0-.07-.08-.07-.115-.07l-.261.006-.06.001-.126-.002-.296-.005c-.04 0-.121 0-.121.07 0 .018.007.073.092.073l.157.016c.052.02.084.046.087.246l.033 1.331-.657-.66-.965-.963-.052-.052c-.07-.07-.115-.116-.17-.116-.057 0-.096.06-.096.148ZM69.509 72.224c-.375.215-.598.618-.598 1.077 0 .948.808 1.287 1.565 1.287.158 0 .554-.014.823-.147.064-.034.064-.058.064-.148v-.353l.004-.38c.003-.103.03-.125.094-.135l.084-.01c.044 0 .08-.033.08-.075 0-.069-.072-.069-.108-.069l-.385.008-.506-.008c-.033 0-.111 0-.111.07 0 .043.04.074.093.074l.116.01c.091.026.11.049.112.135l.005.373v.292c0 .05-.013.064-.041.076-.07.03-.13.03-.215.03-.662 0-1.106-.459-1.106-1.144 0-.341.094-.585.288-.744.223-.179.447-.179.612-.179.342 0 .584.125.686.232.076.08.095.169.103.237.007.065.044.079.073.079.04 0 .084-.03.084-.111l.019-.483.004-.043c0-.068-.06-.075-.081-.076-.003-.002-.26-.034-.26-.034a3.9 3.9 0 0 0-.59-.052c-.266 0-.576.016-.908.21ZM74.204 72.064l-.494-.007c-.027 0-.112 0-.112.07 0 .018.008.073.097.073l.117.01c.09.026.107.047.113.137l.007.698v.05h-1.205v-.05l.007-.698c.008-.106.028-.125.092-.135l.085-.012c.09 0 .1-.051.1-.073 0-.047-.035-.07-.107-.07l-.438.007-.483-.007c-.075 0-.112.023-.112.07 0 .034.025.073.097.073l.118.01c.093.026.11.047.115.137l.002.672v.562l-.013.675c-.012.103-.032.125-.067.133l-.107.01c-.063 0-.093.036-.093.074 0 .017.008.074.104.074l.424-.012.165.004.37.008c.1 0 .108-.056.108-.074 0-.038-.032-.074-.092-.074l-.162-.01c-.069-.01-.083-.042-.095-.131l-.018-.67v-.222h1.205v.222l-.013.668c-.014.103-.034.125-.068.133l-.112.01c-.06 0-.092.036-.092.074 0 .022.012.074.112.074l.435-.012.155.004.365.008c.1 0 .107-.056.107-.074 0-.037-.033-.074-.093-.074l-.162-.01c-.07-.01-.086-.042-.097-.131l-.014-.677v-.562l.007-.672c.007-.11.032-.126.087-.135l.09-.012c.096 0 .1-.06.1-.073 0-.07-.083-.07-.112-.07l-.423.007ZM76.305 72.766c.037.1.253.663.276.722h-.563c.023-.055.252-.636.287-.722Zm-.048-.631-.861 2.003c-.07.167-.119.24-.242.258l-.091.003c-.047 0-.079.03-.079.073 0 .05.034.075.101.075l.316-.01.066-.003.367.013c.08 0 .093-.047.093-.075 0-.022-.009-.073-.09-.073h-.05c-.09 0-.09-.026-.09-.05l.045-.18.177-.427.77.002.252.639c-.062.024-.075.06-.075.09 0 .058.061.061.12.065l.651.01c.105 0 .183 0 .183-.076 0-.035-.022-.073-.085-.073l-.118-.01c-.032-.006-.12-.024-.251-.319l-.84-1.963c-.035-.073-.059-.124-.134-.124-.064 0-.1.071-.135.152ZM78.515 72.064l-.442-.007c-.033 0-.118 0-.118.066 0 .03.012.077.091.077l.108.014c.054.016.078.039.086.133l.003.672v.562l-.015.69c-.012.096-.03.11-.066.118l-.108.01c-.063 0-.093.036-.093.074 0 .017.008.074.105.074l.43-.012.159.004.374.008c.077 0 .103-.038.103-.074 0-.038-.032-.074-.093-.074l-.16-.01c-.074-.012-.09-.039-.1-.117l-.015-.691v-.562l.008-.672c.007-.106.029-.125.091-.135l.09-.012c.08 0 .093-.047.093-.077s-.02-.066-.108-.066l-.423.007ZM81.243 71.645l-.178-.004-.355-.007c-.035 0-.121 0-.121.072 0 .036.018.075.103.075l.136.01c.1.021.125.056.132.178l.006.792v1.102c0 .712 0 1.069-.269 1.343l-.17.135c-.065.034-.104.058-.104.102 0 .039.03.07.07.07l.096-.028.187-.097c.33-.202.561-.462.655-.73.082-.23.09-.497.09-.677l-.01-.527v-.693l.008-.792c.007-.137.039-.166.105-.178l.103-.01c.07 0 .107-.025.107-.075 0-.072-.087-.072-.12-.072l-.471.01ZM82.648 72.064l-.442-.007c-.032 0-.119 0-.119.066 0 .03.013.077.094.077l.108.014c.053.016.077.039.084.133l.002.672v.562l-.013.69c-.013.096-.03.11-.066.118l-.108.01c-.064 0-.093.036-.093.074 0 .017.007.074.104.074l.43-.012.159.004.374.008c.077 0 .104-.038.104-.074 0-.038-.032-.074-.094-.074l-.162-.01c-.071-.012-.087-.039-.098-.117l-.014-.691v-.562l.009-.672c.005-.106.026-.125.089-.135l.091-.012c.08 0 .093-.047.093-.077s-.018-.066-.109-.066l-.422.007ZM84.741 72.766c.039.1.253.663.277.722h-.564c.024-.055.253-.636.287-.722Zm-.046-.631-.862 2.003c-.07.167-.118.24-.243.258l-.09.003c-.047 0-.079.03-.079.073 0 .05.034.075.1.075l.317-.01.066-.003.367.013c.08 0 .092-.047.092-.075 0-.022-.008-.073-.088-.073h-.049c-.092 0-.092-.026-.092-.05l.046-.18.176-.427.77.002.25.639c-.06.024-.074.06-.074.09 0 .058.062.061.12.065l.65.01c.107 0 .184 0 .184-.076 0-.035-.023-.073-.085-.073l-.118-.01c-.031-.006-.12-.024-.25-.319l-.84-1.963c-.035-.073-.06-.124-.134-.124-.066 0-.101.071-.134.152ZM86.742 73.203c0-.82.476-.942.758-.942.54 0 .916.452.916 1.099 0 .88-.501.976-.718.976-.562 0-.956-.466-.956-1.133Zm-.566.098c0 .619.434 1.287 1.388 1.287.838 0 1.424-.553 1.424-1.344 0-.76-.532-1.231-1.39-1.231-.978 0-1.422.666-1.422 1.288ZM90.191 71.683a4.712 4.712 0 0 0-.082.44c0 .067.026.1.075.1.041 0 .067-.025.08-.075l.059-.119c.043-.063.113-.082.331-.09l.516-.014v1.495c0 .343 0 .638-.018.793-.012.114-.033.164-.076.172l-.128.014c-.086 0-.1.044-.1.071 0 .029.016.077.116.077l.472-.012.177.004.41.008c.103 0 .112-.06.112-.077s-.007-.07-.1-.07l-.185-.015c-.074-.01-.1-.049-.113-.168-.018-.159-.018-.454-.018-.797v-1.495l.431.01c.248.005.395.068.405.172l.003.043c.003.041.007.11.08.11.065 0 .07-.072.074-.095l.012-.439c0-.045 0-.12-.07-.12l-.067.012-.042.008-.251.02H90.81l-.37-.02-.11-.03-.056-.015c-.06 0-.075.066-.083.102ZM93.416 73.203c0-.82.475-.942.759-.942.54 0 .917.452.917 1.099 0 .88-.502.976-.72.976-.561 0-.956-.466-.956-1.133Zm-.566.098c0 .619.434 1.287 1.388 1.287.838 0 1.423-.553 1.423-1.344 0-.76-.53-1.231-1.388-1.231-.979 0-1.423.667-1.423 1.288ZM96.144 72.15l-.03 1.888c-.005.272-.017.333-.071.348l-.141.013c-.053 0-.09.031-.09.074 0 .074.08.074.113.074l.302-.01.052-.001.094.001.335.01c.076 0 .116-.026.116-.074 0-.036-.03-.074-.097-.074l-.159-.02c-.036-.012-.079-.059-.086-.31l-.034-1.208.107.11.604.617.965.92c.052.05.106.076.161.076.043 0 .094-.037.094-.14l.037-2.009c.003-.18.03-.207.091-.225l.09-.01c.067 0 .096-.036.096-.072 0-.07-.08-.07-.114-.07l-.261.005-.062.001-.125-.002-.294-.005c-.04 0-.124 0-.124.07 0 .018.006.073.094.073l.158.016c.05.02.083.047.087.246l.031 1.331c-.067-.065-.657-.66-.657-.66l-.96-.958-.056-.057c-.069-.07-.116-.116-.171-.116-.058 0-.095.06-.095.148ZM99.549 72.224c-.375.216-.597.62-.597 1.077 0 .948.81 1.287 1.563 1.287.158 0 .554-.014.824-.147.063-.034.063-.058.063-.148v-.353l.004-.38c.003-.103.031-.124.093-.135l.084-.01c.045 0 .082-.033.082-.075 0-.069-.073-.069-.107-.069l-.385.008-.507-.008c-.035 0-.111 0-.111.07 0 .043.04.074.092.074l.117.01c.092.026.109.049.113.135l.004.373v.293c0 .048-.012.063-.041.076-.07.03-.131.03-.215.03-.663 0-1.107-.46-1.107-1.144 0-.342.094-.586.288-.745.222-.179.448-.179.613-.179.343 0 .583.125.685.232.078.08.096.17.103.238.009.064.044.078.074.078.039 0 .083-.03.083-.111l.019-.483.006-.043c0-.068-.062-.074-.082-.076l-.26-.034a3.9 3.9 0 0 0-.59-.052c-.265 0-.574.016-.908.21ZM105.545 71.641l-.106.004-.43-.011c-.033 0-.119 0-.119.073 0 .035.018.073.102.073l.127.01c.097.022.123.057.131.179l.007.792v.467c0 .395-.015.711-.205.901a.7.7 0 0 1-.49.192.65.65 0 0 1-.443-.145c-.142-.118-.278-.308-.278-.891v-.524l.008-.792c.009-.137.038-.165.105-.177l.102-.012c.086 0 .1-.046.1-.073 0-.073-.085-.073-.123-.073l-.46.011-.546-.011c-.037 0-.124 0-.124.073 0 .035.02.073.103.073l.138.01c.1.022.124.057.132.179l.007.792v.547c0 .483.109.808.345 1.021.297.27.691.27.86.27.223 0 .517-.031.804-.279.327-.28.37-.722.37-1.158v-.4l.007-.793c.008-.137.041-.165.107-.177l.101-.012c.072 0 .107-.024.107-.073 0-.073-.085-.073-.118-.073l-.321.007ZM106.358 72.15l-.029 1.888c-.005.272-.017.333-.071.348l-.14.013c-.053 0-.092.031-.092.074 0 .074.079.074.115.074l.299-.01.057-.001.092.001.333.01c.077 0 .117-.026.117-.074 0-.036-.031-.074-.097-.074l-.16-.02c-.035-.012-.078-.059-.085-.31l-.035-1.208.108.11.605.617.964.92a.23.23 0 0 0 .162.076c.042 0 .094-.037.094-.14l.036-2.009c.004-.18.031-.207.091-.225l.089-.01c.067 0 .097-.036.097-.072 0-.07-.08-.07-.115-.07l-.261.005-.062.001-.123-.002-.296-.005c-.04 0-.123 0-.123.07 0 .018.008.073.094.073l.157.016c.052.02.084.047.086.246l.033 1.331-.657-.66-.96-.958-.056-.057c-.069-.07-.115-.116-.17-.116-.058 0-.097.06-.097.148ZM109.835 72.064l-.443-.007c-.033 0-.119 0-.119.066 0 .03.013.077.093.077l.108.014c.054.017.078.04.085.133l.004.672v.562l-.014.69c-.014.096-.031.11-.068.118l-.107.01c-.064 0-.091.037-.091.074 0 .017.006.074.102.074l.43-.011.16.003.373.008c.077 0 .103-.038.103-.074 0-.037-.031-.074-.092-.074l-.162-.01c-.072-.012-.088-.039-.098-.117l-.015-.691v-.562l.008-.672c.007-.106.027-.125.09-.135l.091-.012c.081 0 .093-.047.093-.077s-.019-.066-.107-.066l-.424.007ZM112.938 72.064l-.352-.007c-.043 0-.132 0-.132.07 0 .044.038.073.095.073l.119.014c.016.008.016.018.016.018l-.026.103a72.77 72.77 0 0 1-.612 1.488l-.524-1.35a1.049 1.049 0 0 1-.071-.226c0-.015.002-.022.014-.03l.106-.017c.064 0 .092-.036.092-.072 0-.026-.014-.07-.118-.07l-.42.006-.48-.007c-.039 0-.122 0-.122.07 0 .045.029.073.078.073l.118.012c.104.024.143.043.215.211l.832 1.95c.061.141.096.215.172.215.074 0 .109-.067.194-.256l.189-.42.25-.554.162-.35.234-.512c.085-.2.128-.242.159-.266.042-.03.098-.03.131-.03.077 0 .101-.037.101-.072 0-.033-.019-.07-.108-.07l-.312.006ZM115.145 72.041l-.016.005-.028.005-.109.014h-.897l-.475-.008c-.029 0-.115 0-.115.071 0 .033.025.072.095.072l.121.01c.089.026.109.047.114.136l.004.673v.562l-.016.674c-.013.103-.031.126-.066.134l-.108.01c-.062 0-.092.038-.092.074 0 .017.007.074.104.074l.23-.008.186-.004.282.005.099.003.608.01c.127 0 .184 0 .215-.11.021-.067.046-.289.046-.364 0-.076-.024-.115-.07-.115-.058 0-.07.054-.078.08-.02.125-.05.179-.118.21-.087.037-.244.037-.295.037-.345 0-.399-.051-.406-.228l-.001-.341.001-.13v-.254c.003.007.492.02.492.02.115.011.138.055.149.096l.008.068.003.042c0 .034.027.061.069.061.022 0 .074-.01.074-.111l.015-.21.015-.128.012-.108c0-.041-.03-.074-.068-.074l-.059.033-.018.019c-.024.024-.06.031-.136.038l-.574.008.018-.78c.002.01.494.025.494.025.151.012.167.047.186.091l.019.1c0 .066.037.081.067.081.057 0 .071-.06.076-.08l.016-.156.005-.062.02-.172.007-.037c0-.052-.034-.07-.064-.07l-.041.01ZM116.495 73.284l-.002-.018v-.948c-.001-.006.186-.016.186-.016.051 0 .186.01.298.104.108.093.163.234.163.422 0 .249-.107.376-.196.44-.046.035-.083.045-.209.045l-.24-.029Zm-.271-1.22-.448-.007c-.028 0-.115 0-.115.071 0 .033.025.072.096.072l.118.01c.092.026.109.047.115.136l.004.673v.562l-.016.674c-.011.103-.03.126-.066.134l-.107.01c-.064 0-.093.038-.093.074 0 .017.008.074.106.074l.267-.008.136-.004.112.003.402.01c.099 0 .107-.058.107-.075 0-.035-.031-.074-.081-.074l-.156-.01c-.069-.01-.082-.039-.094-.133l-.018-.675v-.044l.281.02.034.01c0 .002.099.141.099.141l.208.29c.199.268.318.408.463.48.096.05.196.07.377.07h.316c.086 0 .103-.04.103-.075 0-.035-.031-.074-.081-.074l-.07-.006c-.061-.013-.167-.035-.333-.2a11.45 11.45 0 0 1-.675-.787l-.022-.026c.308-.254.445-.47.445-.71a.595.595 0 0 0-.252-.471c-.191-.126-.446-.142-.648-.142l-.514.008ZM118.68 72.693c0 .315.156.535.538.758l.191.113c.282.166.306.29.306.414a.345.345 0 0 1-.109.257.44.44 0 0 1-.309.108c-.094 0-.406-.02-.486-.287l-.027-.153c0-.085-.056-.092-.075-.092-.038 0-.08.032-.08.122-.002.009-.02.424-.02.424 0 .084.02.116.088.145.127.057.313.086.551.086.164 0 .401-.014.575-.138.237-.167.345-.366.345-.63 0-.332-.181-.58-.59-.806l-.133-.075c-.304-.169-.328-.274-.328-.384 0-.199.205-.302.41-.302.187 0 .285.074.336.136a.33.33 0 0 1 .077.184c0 .09.056.096.073.096.037 0 .081-.025.081-.14l.01-.33.001-.053c0-.04-.025-.067-.073-.08a1.97 1.97 0 0 0-.48-.053c-.505 0-.872.285-.872.68ZM121.074 72.064l-.442-.007c-.033 0-.119 0-.119.066 0 .03.011.077.092.077l.108.014c.054.017.077.04.085.133l.004.672v.562l-.016.69c-.012.096-.029.11-.065.118l-.108.01c-.064 0-.093.037-.093.074 0 .017.009.074.105.074l.431-.011.157.003.374.008c.077 0 .104-.038.104-.074 0-.037-.032-.074-.093-.074l-.161-.01c-.074-.012-.089-.039-.1-.117l-.015-.691v-.562l.009-.672c.006-.106.027-.125.089-.135l.092-.012c.08 0 .091-.047.091-.077s-.018-.066-.106-.066l-.423.007ZM121.903 72.104a4.05 4.05 0 0 0-.071.395c0 .082.049.091.071.091.054 0 .069-.047.075-.069-.002 0 .05-.095.05-.095.035-.052.088-.08.287-.083l.45-.01v1.248l-.014.674c-.013.103-.033.126-.067.134l-.109.01c-.062 0-.09.038-.09.074 0 .017.007.074.103.074l.43-.012.163.004.371.008c.074 0 .102-.038.102-.074s-.032-.074-.092-.074l-.163-.01c-.066-.01-.082-.042-.095-.13l-.016-.678v-1.249l.376.007c.21.004.341.059.35.148l.004.035c.002.032.007.099.076.099.059 0 .068-.067.069-.089l.009-.389c0-.038 0-.109-.068-.109l-.034.004-.06.013-.219.014h-1.34l-.323-.014-.096-.026-.051-.012c-.061 0-.073.069-.078.091ZM126.546 72.064l-.322-.007c-.079 0-.096.038-.096.07 0 .055.054.068.08.073.052.012.052.027.052.036l-.046.151-.344.604-.111.189c-.052-.091-.513-.876-.513-.876l-.034-.087c.015-.01.04-.017.04-.017.036-.009.079-.02.079-.072 0-.017-.006-.07-.087-.07l-.375.006-.413-.007c-.087 0-.104.038-.104.07 0 .044.037.073.089.073l.119.036c.057.031.117.095.201.214.114.168.563.868.584.912.041.087.071.149.071.317v.261l-.01.316c-.009.105-.04.126-.071.133l-.108.01c-.06 0-.092.037-.092.074 0 .049.038.074.111.074l.426-.011.161.003.358.008c.1 0 .11-.052.11-.074 0-.035-.032-.074-.095-.074l-.16-.01c-.069-.01-.094-.044-.101-.133l-.006-.316v-.327a.55.55 0 0 1 .038-.23c.055-.124.525-.881.634-1.008.07-.085.096-.11.16-.14l.124-.035c.062 0 .104-.03.104-.077 0-.024-.013-.066-.099-.066l-.354.007Z" clip-rule="evenodd"/></g><defs><filter id="a" width="154" height="157" x="0" y="0" color-interpolation-filters="sRGB" filterUnits="userSpaceOnUse"><feFlood flood-opacity="0" result="BackgroundImageFix"/><feColorMatrix in="SourceAlpha" result="hardAlpha" values="0 0 0 0 0 0 0 0 0 0 0 0 0 0 0 0 0 0 127 0"/><feOffset dy="16"/><feGaussianBlur stdDeviation="6.5"/><feColorMatrix values="0 0 0 0 0 0 0 0 0 0 0 0 0 0 0 0 0 0 0.03 0"/><feBlend in2="BackgroundImageFix" result="effect1_dropShadow_185_34"/><feBlend in="SourceGraphic" in2="effect1_dropShadow_185_34" result="shape"/></filter></defs></svg>