<svg xmlns="http://www.w3.org/2000/svg" width="154" height="157" fill="none"><g filter="url(#a)"><path fill="#fff" d="M13 0h128v128H13z"/><path fill="#B50007" fill-rule="evenodd" d="M40.333 51.182c3.53 0 6.735 1.44 9.057 3.761a12.78 12.78 0 0 1 0 18.114 12.78 12.78 0 0 1-9.057 3.761c-3.53 0-6.734-1.44-9.056-3.761A12.778 12.778 0 0 1 27.515 64c0-7.06 5.758-12.818 12.818-12.818Zm0 .321c-6.883 0-12.497 5.614-12.497 12.497 0 3.442 1.404 6.566 3.668 8.83a12.46 12.46 0 0 0 17.66 0A12.459 12.459 0 0 0 52.829 64c0-3.441-1.403-6.566-3.667-8.83a12.459 12.459 0 0 0-8.83-3.667Z" clip-rule="evenodd"/><path fill="#B50007" fill-rule="evenodd" d="M40.333 50.667c7.344 0 13.333 5.99 13.333 13.333 0 7.344-5.989 13.333-13.333 13.333C32.99 77.333 27 71.343 27 64c0-7.344 5.99-13.333 13.333-13.333Zm0 .225c-7.22 0-13.108 5.888-13.108 13.108 0 7.22 5.889 13.108 13.108 13.108 7.22 0 13.108-5.888 13.108-13.108 0-7.22-5.888-13.108-13.108-13.108Z" clip-rule="evenodd"/><path fill="#B50007" fill-rule="evenodd" d="M40.333 54.986c4.965 0 9.014 4.05 9.014 9.014 0 4.965-4.049 9.014-9.014 9.014-4.965 0-9.014-4.05-9.014-9.014 0-4.965 4.05-9.014 9.014-9.014Zm0 .4c4.745 0 8.613 3.87 8.613 8.614 0 4.744-3.868 8.613-8.613 8.613-4.744 0-8.613-3.869-8.613-8.613s3.87-8.613 8.613-8.613Z" clip-rule="evenodd"/><path fill="#B50007" fill-rule="evenodd" d="M35.423 65.435c.011.314.05.833.081 1.16.535-.138 1.464-.178 1.998-.053.082-.316.103-.89.1-1.154-.561-.12-1.631-.147-2.179.047Zm.09-4.55c-.02.3-.06.66-.074 1.029.598-.162 1.591-.264 2.197-.12.052-.308.01-.648-.012-.961-.505-.121-1.622-.124-2.111.053Zm2.495-2.326c-.35-.103-.988-.12-1.505-.002-.264.06-.452.118-.58.398-.086.23-.137.533-.216.973.532-.14 1.216-.14 1.757-.063-.174-.535.6-.85.841-.308.284.93.257 1.93.13 2.833a.818.818 0 0 1-.053.151c-.124.265-.387.27-.62.164-.549-.183-1.752-.142-2.298.1-.027.614-.014.93-.007 1.554.537-.163 1.519-.167 2.067-.043-.01-.032-.016-.065-.026-.096a.446.446 0 0 1 .46-.602c.163.013.32.112.39.323.327.984.282 2.192-.047 3.157-.105.279-.37.366-.646.261-.524-.197-1.415-.214-1.938.026.062.592.188 1.181.25 1.947.03.75-.949.638-1.018-.063-.613-3.968-.606-7.997.028-10.525.058-.232.246-.645.573-.793.692-.314 1.747-.414 2.767-.167.593.22.305.958-.31.775Zm1.435 10.862c-.213-1.688.98-3.245 2.625-3.41v-.813c-.806.034-1.607.197-2.34.537-.56.26-.932-.557-.372-.817 1.962-.866 4.114-.686 6.129-.128h.002c.59.177.337 1.04-.253.862a10.575 10.575 0 0 0-2.268-.44v.797c1.582.182 2.682 1.632 2.706 3.182.054.78-.81.815-.857.233-.088-1.088-.68-2.312-1.849-2.505v2.81c0 .631-.898.632-.898 0v-2.806c-1.068.18-1.917 1.397-1.732 2.484.053.579-.814.638-.893.014Zm-.138-11.008c.83-.516 1.776-.69 2.739-.716.07-.544.854-.524.892.035.833.085 1.667.246 2.446.56.573.23.237 1.061-.334.831-.671-.27-1.392-.404-2.108-.486.016.633.017.851.001 1.483.191-.086.386-.192.553-.269.721-.332.947-.43 1.356.022.885.977 1.276 2.738 1.177 3.96-.028.35-.365.532-.662.378a.443.443 0 0 1-.238-.449c.08-.988-.23-2.51-.912-3.262-.181.07-.505.18-.808.356.518.69.752 2.082.678 2.936a.452.452 0 1 1-.899-.077c.061-.704-.145-1.971-.641-2.493-.497.522-.703 1.789-.642 2.493.053.616-.846.692-.899.077-.071-.825.145-2.18.624-2.862-.328-.185-.57-.32-.832-.407-.661.75-1.003 2.26-.924 3.239.05.615-.85.688-.9.07-.102-1.252.287-3.005 1.216-3.973.378-.383.82-.346 1.302-.04.177.111.307.204.551.326.013-.655.02-.894 0-1.548-.795.024-1.576.15-2.262.578-.525.327-.998-.436-.474-.762ZM38.33 72.054h-.208V70.99a1.576 1.576 0 0 1-.418.201v-.161a1.33 1.33 0 0 0 .307-.16.685.685 0 0 0 .185-.182h.135v1.366Zm.699-.314.2-.015c.017.075.05.13.098.164s.109.051.184.051c.064 0 .12-.011.169-.035a.332.332 0 0 0 .119-.094.492.492 0 0 0 .078-.16.69.69 0 0 0 .03-.237.455.455 0 0 1-.171.13.558.558 0 0 1-.235.05c-.141 0-.26-.042-.358-.123a.4.4 0 0 1-.146-.323c0-.138.051-.25.153-.334a.58.58 0 0 1 .382-.126.65.65 0 0 1 .304.072.487.487 0 0 1 .208.203.824.824 0 0 1 .071.383c0 .174-.023.312-.07.416a.51.51 0 0 1-.21.235.643.643 0 0 1-.328.08.553.553 0 0 1-.326-.088.359.359 0 0 1-.152-.25Zm.854-.6a.289.289 0 0 0-.095-.229.336.336 0 0 0-.23-.085.356.356 0 0 0-.243.091.3.3 0 0 0-.103.236c0 .087.033.157.098.211a.365.365 0 0 0 .242.081.35.35 0 0 0 .238-.08.282.282 0 0 0 .093-.226Zm1.237.914v-.325h-.738v-.154l.776-.881h.17v.881h.23v.154h-.23v.325h-.208Zm0-.479v-.613l-.532.613h.532Zm1.453.48v-.326h-.738v-.154l.776-.881h.17v.881h.23v.154h-.23v.325h-.208Zm0-.48v-.613l-.532.613h.532ZM31.638 60.051l-.01.01-.012.012-.004.002a.085.085 0 0 1-.042 0 .22.22 0 0 1-.052-.02.301.301 0 0 0-.056-.014h-.003l-.037-.024a2.905 2.905 0 0 0-.037-.024.458.458 0 0 1-.038-.019.076.076 0 0 1-.029-.026.445.445 0 0 1-.06-.049l-.18-.11a.648.648 0 0 0-.099-.069c-.007-.003-.013-.008-.02-.012a.292.292 0 0 1-.072-.032.241.241 0 0 0-.027-.013l-.003-.002a.38.38 0 0 0-.057-.023.73.73 0 0 0-.07-.04h-.002c-.019-.011-.019-.012-.029-.02l-.01-.006c-.033-.019-.054-.01-.084-.015-.017.005-.06.001-.076.008s-.023-.007-.038-.002h-.002a.287.287 0 0 1-.047.002.123.123 0 0 1-.06-.04.15.15 0 0 1-.033-.073l.003-.019c0-.007.002-.013.003-.019l.002-.004a.309.309 0 0 1 .006-.008l.017-.025.003-.003c.015-.012.026-.028.046-.038l.026-.014c.017-.014.043-.02.063-.03.02-.01.043-.02.067-.026l.003-.001a.466.466 0 0 1 .138.025l.073.027h.002l.022.014.047.028a.11.11 0 0 1 .036.017c.01.008.02.018.03.029l.164.101.003.002a.176.176 0 0 1 .02.026l.034.021.05.032c.04.023.08.047.12.073l.053.032a.14.14 0 0 1 .056.027.44.44 0 0 1 .047.043l.002.002a.275.275 0 0 1 .006.01c.006.01.013.022.021.03l.065.04.003.004a1.576 1.576 0 0 0 .056.087c.015.015.018.046.02.066l.001.009v.005c-.007.017-.007.017-.016.032l-.003.004Zm.765-1.329a.155.155 0 0 1-.044.031h-.009c-.043-.017-.061-.057-.079-.096a.376.376 0 0 0-.022-.043l-.026-.017c-.006 0-.012 0-.02-.002-.03-.003-.07-.008-.086.007a.018.018 0 0 1-.007.002.245.245 0 0 0-.04.005.063.063 0 0 0-.023.007.015.015 0 0 1-.008.002h-.003l-.003.001c-.052.002-.052.002-.102.006a.248.248 0 0 0-.027.01.152.152 0 0 1-.047.013h-.002l-.015-.002c-.025-.002-.064-.005-.074.002a.018.018 0 0 1-.008.002h-.003l-.003-.001-.005.002a.196.196 0 0 1-.07.015 1.047 1.047 0 0 1-.02-.008l-.02-.008h-.002c-.02-.013-.033-.026-.038-.042-.006-.017-.002-.035.01-.056l.004-.003a.078.078 0 0 0 .003-.002c.01-.007.021-.014.037-.02h.003a.082.082 0 0 0 .032-.011.222.222 0 0 0 .032-.023.016.016 0 0 1 .01-.002l.023-.01a.361.361 0 0 0 .046-.022.086.086 0 0 1 .035-.016l.05-.032.008-.007c.014-.013.027-.025.051-.034h.005c.005-.002.01-.002.016-.002s.013 0 .018-.003l.003-.002a.723.723 0 0 0 .076-.018.441.441 0 0 0 .097-.014h.004c.023 0 .047-.008.073-.015l.008-.003h.003a.49.49 0 0 0 .055-.003.175.175 0 0 1 .154.013l.002.002.031.03.002.004.002.004c.007.015.013.029.014.046.002.007.001.015 0 .02v.005c-.012.027-.022.057-.03.085l-.003.01-.001.001a.39.39 0 0 0-.04.13l-.004.016v.001a.25.25 0 0 1-.023.045Zm-2.248.045-.059-.023a.558.558 0 0 0-.078-.032 1.906 1.906 0 0 0-.077-.024c-.021.01-.063.04-.082.04h-.007c-.026.014-.08.07-.102.064-.023-.006-.049 0-.064-.026l-.002-.005c-.003-.038.072-.166.097-.205a.237.237 0 0 0 .039-.04.53.53 0 0 0 .033-.048.113.113 0 0 1 .031-.044.285.285 0 0 1 .046-.032l.006-.002.01-.001.018-.002h.003c.004.002.01.004.017.005.039.01.107.027.13.057l.002.005c.003.02.003.02.012.027l.014.01v.001l.017.016c.01.009.02.018.03.031l.001.005c.005.026.011.03.034.047a.134.134 0 0 1 .004.003h.001c.01.009.018.015.026.019a.14.14 0 0 0 .037.01c.062.025.064.026.075.029a.125.125 0 0 1 .09.038l.06.034.069.04.002.002c.021.023.033.047.047.074l.004.008v.002a.133.133 0 0 1 .009.039l-.001.037v.002l-.006.033c-.004.03-.008.058-.035.08l-.025.034a.073.073 0 0 0-.01.035v.004a.313.313 0 0 1-.025.046l-.007.012-.004.003-.013.014-.002.001-.028.022a.098.098 0 0 1-.04.028.13.13 0 0 1-.053.01.02.02 0 0 1-.005-.001l-.009-.006c-.03-.018-.04-.024-.043-.06a.016.016 0 0 1-.002-.006v-.03a.281.281 0 0 1 .036-.073.972.972 0 0 1 .05-.064.103.103 0 0 0 .013-.056.741.741 0 0 0-.042-.077l-.006-.006c-.038-.036-.085-.08-.13-.065l-.005.001c-.037-.004-.064-.02-.09-.034a.396.396 0 0 1-.01-.006Zm1.531.546-.008.006c-.024.021-.065.029-.101.024l-.004-.002c-.024.018-.064-.047-.076-.059.001-.002-.018-.04-.025-.057a2.106 2.106 0 0 1-.013-.036c-.005-.022-.02-.01-.03-.03l-.002-.007v-.007c-.005-.009-.01-.022-.013-.034a.393.393 0 0 0-.007-.019l-.025-.032c-.034-.043-.054-.094-.082-.138-.005-.004-.009-.01-.013-.015a.077.077 0 0 0-.008-.01l-.002-.003-.027-.045c-.011-.02-.022-.041-.036-.06-.01-.009-.013-.018-.033-.039-.019-.02-.016-.013-.031-.028l-.009-.007c-.007.006-.043-.005-.05.001l-.005.001-.011.001-.034.004c-.003.003-.033-.007-.036-.007-.01.002-.01-.001-.016 0l-.01.003c-.011 0-.02-.008-.032-.007-.004.002-.017 0-.019.008a.05.05 0 0 0-.001.004l.002.011.003.015v.017c.001.008.008.026.014.038.005.02.011.056.004.096-.007.043-.022.034-.028.06-.007.026-.046.053-.048.048-.022.01-.065-.007-.086-.048-.003-.004-.001-.022.001-.034.005-.025.002-.043-.005-.049l-.019-.058c-.007-.009-.008-.05-.015-.059-.002-.028-.009-.044-.029-.047-.01-.013-.02-.008-.03-.01-.01-.004-.04-.008-.05-.003h-.002l-.004.001a.146.146 0 0 1-.05.002c-.028-.018-.02 0-.047-.02-.013-.01-.033-.03-.045-.038l-.002-.002c-.014-.013-.006-.01-.019-.024l-.004-.012-.006-.02c-.007-.03 0-.036.014-.062l.005-.003c.005 0 .007-.008.012-.01.003-.002.009-.007.013-.008h.002c.018-.002.009-.007.028-.002a.164.164 0 0 1 .048 0c.012.002.022.022.033.02l.017.003c.005 0 .006-.002.013-.002l.006-.001a.355.355 0 0 1 .035.005c.011.002.025-.001.037.004.027 0 .012.005.04.006l.025.006c.02.005.035.005.056.01.02.004.008-.002.029.002.005 0 .006.004.013.004h.018c.013-.007.014-.002.025-.005h.002c.014.001.029-.003.042-.002.014 0 .008-.002.022-.003h.006a.4.4 0 0 0-.01-.009c-.013-.014-.027-.028-.038-.043v-.002l-.008-.013a.475.475 0 0 1-.006-.012c-.029-.033-.064-.056-.1-.079a.693.693 0 0 1-.07-.05.437.437 0 0 0-.039-.048l-.045-.045-.002-.003a.194.194 0 0 1-.01-.026c-.003-.007-.025 0-.029-.007a.12.12 0 0 0-.063-.033c-.02.011-.02.008-.038.021-.017.014-.02-.016-.033.002l-.002.002a.35.35 0 0 0-.069.08c-.004.016-.004.017-.012.04l-.001.002a.543.543 0 0 1-.06.09.213.213 0 0 1-.085.065h-.013c-.03 0-.036-.001-.054-.028l-.002-.004-.002-.014-.002-.015.001-.006.012-.02.01-.02c.005-.026.015-.052.024-.078a.35.35 0 0 0 .03-.123.916.916 0 0 0 .013-.052c.005-.023.01-.046.02-.078l.001-.006a.011.011 0 0 1-.002-.004c-.002-.025-.082-.07-.12-.091l-.018-.01c-.045-.021-.046-.022-.105-.053l-.02-.002-.029-.004c-.01.003-.024 0-.038-.005a.257.257 0 0 1-.055-.034l-.002-.003a.082.082 0 0 1-.009-.023.172.172 0 0 1-.004-.022s0-.004.006-.023l.006-.018.001-.003a.138.138 0 0 1 .101-.062.016.016 0 0 1 .011-.002.102.102 0 0 0 .02.003.125.125 0 0 1 .039.01.367.367 0 0 1 .097.031c.028.014.054.031.072.052a.29.29 0 0 0 .09.035.012.012 0 0 1 .01 0c.001.001.003-.002.007-.004a.154.154 0 0 0 .026-.016.065.065 0 0 0 .01-.026v-.004a.9.9 0 0 1 .066-.11.146.146 0 0 1 .028-.063c.016-.017.04-.023.078-.014l.003.002a.174.174 0 0 1 .033.023l.004.005.007.035c.002.01.003.019.006.027.012.027.002.05-.009.07a.062.062 0 0 0-.004.012c-.005.021-.022.063-.025.081-.003.037-.003.038-.009.08a.09.09 0 0 0 .014.049.239.239 0 0 0 .037.044.299.299 0 0 1 .05.041l.002.002a.09.09 0 0 1 .003.005c.008.013.012.019.03.018l.005.001a.565.565 0 0 1 .128.068l.013.014c.014.017.03.034.048.046l.003-.001.065.055.072.067.064.058.045.045.017.016.005.008a.531.531 0 0 0 .04.057.17.17 0 0 1 .016.013c.005.005.015.009.02.014v.002a.45.45 0 0 0 .032.046c.019.016.032.035.05.052.014.008.028.01.04.04l.003.002c.006.012.017.014.027.026l.037.043.002.001c.01.017.027.035.036.048l.044.048c.014.017.037.04.05.059l.002.002.027.057a.783.783 0 0 0 .039.081l.006.013c.003.003.004.01.002.014l.017.036.006.011.007.02.007.02v.003c.002.025.002.025.001.056v.004c-.009.024-.003.076-.014.095l-.002.004-.003.003Zm-.277-1.496a.368.368 0 0 1-.05.014c-.025.005-.043-.002-.07.002-.05.013-.068.009-.079.014-.01.004-.053 0-.064.003-.02.005-.044.005-.047.007-.018-.002-.02 0-.041 0l-.01.001c-.013.003-.017-.002-.03.002-.013.004.002 0-.015.001a.797.797 0 0 0-.025.003c-.017.003-.027.005-.04.004a.13.13 0 0 0-.016 0l-.009-.003a.084.084 0 0 0-.036-.002c-.004-.002-.012 0-.015-.002-.004-.002-.008.001-.011 0-.009-.004-.012-.002-.018-.004a.113.113 0 0 0-.052.002c-.011.008-.027.017-.023.036v.006a.11.11 0 0 1 .002.018.07.07 0 0 0 .01.016l.001.002c0 .003.002.006.003.008l.011.014.006.008c.017.018.023.032.043.043.02.01.017.008.04.017h.003c.012.003.038.014.049.01.01-.002.019.008.028.003l.015.003c.005-.002.02.01.036.004.012-.005.014-.007.024-.008.006.002.013 0 .023.001.02-.001.022 0 .036.003.015 0 .012.008.024.024l.009.023a.18.18 0 0 0 .01.028c.009.02.01.004.012.025-.004.012.015.037.014.044-.002.004.007.028.004.031.001.02.006.027.01.05l.001.008c.005.019.01.03.021.041.01.012.003.014.022.025l.005.002c.009 0 .021-.001.03-.005.013-.005.019-.01.026-.014l.003-.002c.01-.011.02-.013.026-.026a.14.14 0 0 0 .015-.043c.004-.01-.004-.023 0-.035.003-.016-.012-.025-.012-.045 0-.029-.01-.025-.017-.052-.001-.018.001-.016-.004-.035a.144.144 0 0 0-.005-.021c-.008-.011-.008-.018-.015-.03-.005-.006-.013-.028-.017-.033l.034-.002s.01 0 .023-.004c.007-.002.016-.003.019-.005.019.008.058.008.082.002l.057-.008c.028-.01.023-.012.044-.026.018-.002.024-.018.036-.03.006-.007.027-.007.032-.015.005-.01.03-.034.03-.042.002-.012 0-.023-.006-.033-.012-.02-.074-.03-.112-.032a.235.235 0 0 0-.08.01ZM47.122 54.552a.038.038 0 0 0-.021.01c-.028.022-.023.062-.035.093.002.006-.016.029-.014.036a.265.265 0 0 1-.057.11c-.006.006-.015.03-.02.035-.013.059-.03.06-.066.106-.022.014-.031.028-.048.049-.05.065-.06.084-.144.075h-.027a.06.06 0 0 1-.033-.01l-.034-.023c-.034-.012-.056-.01-.083-.018-.04.003-.069.018-.053.068.006.015.026.047.031.062l.02.026c-.004.006.006.011.002.018l-.003.032c.002.01-.01.02-.009.03l-.014.018-.022.01c-.04.016-.07.027-.105.054-.01.01-.047.014-.058.025-.052.008-.14.056-.182.052-.048-.005-.042-.001-.056-.001a.456.456 0 0 1-.108-.01c-.05-.025-.065-.01-.101.02-.027.061-.01.086.022.14a.439.439 0 0 0 .118.098c.071.017.122.013.196.014.068-.011.178-.029.234-.054.074-.032.11-.042.166-.07a.291.291 0 0 1 .095-.047.458.458 0 0 0 .176-.089l.028-.025c.025.01.048.017.074.024.087.012.147.04.227.07.084.012.117 0 .163-.032.03-.02.051-.04.075-.068a.904.904 0 0 1 .055-.031l.033-.005a.134.134 0 0 0 .048-.057.095.095 0 0 0-.006-.085c-.049-.034-.076-.033-.131-.011l-.046.012-.025.007c-.055.044-.07.049-.141.05l-.037-.015-.045-.02-.043-.033-.014-.028.014-.016.027-.021.032-.018.024-.02.016-.031c.005-.037.037-.067.059-.097.073-.114.026-.204-.01-.311a.214.214 0 0 0-.144-.098Zm-.372 1.298c-.024.037-.022.056-.013.098.007.103.01.122-.012.257-.001.037-.003.125-.007.154-.004.036.001.042-.004.079a.157.157 0 0 0 .016.106c.016.03.026.06.068.081l.01-.003.01-.003c.023-.007.058-.045.087-.054.036-.011.112-.132.117-.17.002-.016.045-.304.012-.349-.017-.043.002-.047.009-.084-.009-.058.002-.083-.046-.117-.085-.028-.198-.042-.247.005ZM33.309 54.64a.374.374 0 0 1-.065.18l-.026.015a.18.18 0 0 0-.08.036c-.023.038-.053.07-.017.108.03.021.044-.015.06.023.028.027.043.02.077.005l.025-.016.018.002c.085-.013.126-.05.196-.101.044-.036.078-.052.122-.1.023-.035.026-.038.034-.073l.023-.017a.136.136 0 0 0 .05-.076l-.015-.04c-.017-.037-.05-.092-.095-.077l-.042-.014c-.043-.016-.101.003-.156.018-.04.032-.1.075-.11.127Zm-.002 1.569-.002-.009c-.002-.029-.008-.036-.024-.061l-.006-.01-.007-.007-.015-.024-.019-.014-.023-.009-.025-.015-.022-.007-.025-.021-.011-.031.004-.063a.77.77 0 0 1 .002-.021 2.36 2.36 0 0 1 .014-.02l.019-.013-.001-.001.004-.001h.001l.03-.007h.007l.004-.002a.54.54 0 0 0 .018.003h.029l.035.01a2.026 2.026 0 0 1 .033.005l.025.007.002.002.01.002.027.004.033.003a3.516 3.516 0 0 1 .064.017l.03.014.015.01c.016.006.02.014.028.021l.001.001.017.012.027.01.009.004.007.002a.09.09 0 0 1 .004.005l.003.001.016.012.008.002.012.016.003.002a181.775 181.775 0 0 0 .04.038l.005.002.02.016.024.017.01.016.001.001.005.006h.002l.013.028.012.024.012.025.002.008.005.02.008.028.007.02.002.013.007.02.001.032v.029l-.003.025-.002.009c-.007.015-.02.034-.024.035l-.033.008a2.89 2.89 0 0 1-.068-.006l-.042-.01-.037-.013-.005-.002h-.006l-.03-.012-.03-.004a27.893 27.893 0 0 0-.045-.011l-.01-.002-.042-.025a16.488 16.488 0 0 1-.041-.021l-.01-.007-.002-.002c-.024-.016-.041-.033-.062-.053l-.027-.035a.108.108 0 0 1-.018-.047Zm.13-.863-.006.007-.012.017-.005.008a.422.422 0 0 1-.006.01v.015l-.003.026.004.018c.003.006.024.017.028.023l.01.017s.002.009.012.016c.01.007.012.011.012.011l.002.001.01.006.013-.001a.292.292 0 0 1 .014-.004h.004l.01.01.013.02.007.01.012.021.021.024a.753.753 0 0 0 .015.009h.002l.003.002.018.007.022.005h.008l.003.001h.002l.02.003.052-.002a1.096 1.096 0 0 0 .04-.003l.013-.001.004-.002.015-.002.014-.01.01-.003.037-.024.026-.032-.005-.048-.007-.013.001-.006-.007-.012a.167.167 0 0 1-.004-.01c-.004-.005-.04-.038-.044-.044l-.008-.01a.06.06 0 0 1 .005-.001l.006-.001c.01.001.048.012.058.013.01-.006.024.007.035 0a.312.312 0 0 0 .01-.003l.008.007.006.005.007.008.008.009.009.012c0 .002.002.003.003.005v.013l.002.004.002.015.015.03.003.02.011.032-.001.016-.004.02-.002.021-.002.023.007.03-.003.019v.034l.007.015.005.016-.005.04.004.012s.002.017.005.024c.003.007.004.021.004.021s-.002.008.007.02c.008.011-.013.009-.002.022.012.014.014.016.023.023l.022.02.02.016.02.012.01-.002.011.004c.028.028.04.016.066.05.035.012.08.017.12.012h.055c.02-.007.038-.006.069-.03l.022-.021c.025-.027.08-.11.1-.148.025-.04.026-.068.06-.105.021-.038.045-.055.08-.08.008-.012.018-.023.027-.034.028-.02.046-.053.075-.074a.699.699 0 0 1 .009-.011.238.238 0 0 0 .008-.117l-.006-.018-.013-.017a.65.65 0 0 0-.007-.014l.008-.017a.616.616 0 0 0-.03-.129l-.002-.018a2.482 2.482 0 0 0-.078-.291c.003-.034-.013-.057-.013-.09-.01-.035-.024-.053-.025-.09a.7.7 0 0 1-.043-.066c-.02-.047-.022-.044-.056-.072a.112.112 0 0 0-.075-.02.183.183 0 0 0-.09.032c-.038.026-.06.045-.105.055-.052.01-.062.042-.12.045-.028.006-.054.029-.093.05-.017.013-.075.057-.08.072l-.02.02-.023.015a.88.88 0 0 0-.017.002l-.032-.01-.029-.002a2.287 2.287 0 0 0-.018.007l-.02-.001-.02.006-.017-.004h-.003a.18.18 0 0 1-.007 0l-.021.005-.014.014-.009.016-.002.02.003.01-.002.003.008.007.004.006.014.014.011.025v.014c0 .005-.002.01-.004.016l.006.018.002.007-.002.022-.01.024-.017.02v.009l-.01.02-.018.025-.011.012a.9.9 0 0 0-.014.01l-.02.015-.025.02a3.33 3.33 0 0 0-.02.014l-.004.006-.006.005-.008.014-.01.014-.007.01a.694.694 0 0 1-.008.01l-.009.007a.243.243 0 0 1-.016.012l-.01.006-.013.006-.014.006h-.02l-.02.004-.025.014c0 .001-.02-.002-.02 0Zm.67-.216.015.022.005.007.009.014.015.023a.26.26 0 0 0 .002.005l.001.001.012.023v.004l.017.035.015.035a.49.49 0 0 1 .007.015l.004.022-.004.01c.002.014.012.063.013.075v.037l.002.006.002.003.016.02.025.005.028.006.024.003.027.001.016.006h.006c.012-.008.025-.014.037-.02 0-.002.002-.002.003-.003l.015-.01.013-.014.019-.015.009-.001.02-.016.013-.023.027-.044.01-.036v-.004l.003-.025-.004-.029-.014-.019c0-.006-.01-.063-.009-.083a.117.117 0 0 1-.007-.033 2.108 2.108 0 0 0-.007-.052.074.074 0 0 1-.01-.035l.005-.007-.001-.023-.003-.037-.001-.036a3.475 3.475 0 0 0-.006-.035l-.003-.024a.332.332 0 0 0-.008-.01c0-.004-.002-.007-.003-.01l.003-.016a1.4 1.4 0 0 0-.006-.019c.003-.039-.014-.032-.046-.056l-.025-.018-.02-.004-.017.001-.017.005-.022.01-.022.012-.04.027-.026.02-.007.012a.234.234 0 0 0-.006.01 1.035 1.035 0 0 0-.038.02l-.025.013-.024.035-.006.02-.007.025a2.965 2.965 0 0 0-.005.026l.001.03-.004.028-.006.014.003.013v.019l.005.018s0 .018.002.02ZM50.374 58.65l-.007-.014c.006-.027.031-.036.05-.046l.05-.037c.015-.019.019-.026.039-.03.018-.013.04-.03.062-.03l.016-.005c.014 0 .032 0 .044.003.02 0 .037-.002.042-.001.009-.003.009-.003.02-.004.025.009.054.017.078.031.024.009.046.026.072.025.007.002.013 0 .017.003l.002-.001c.017.004.032 0 .047.01l.039.05v.03a.554.554 0 0 1-.025.047l-.023.028a.175.175 0 0 0-.043.045 2.17 2.17 0 0 1-.13.092.054.054 0 0 1-.02.005 1.6 1.6 0 0 0-.033.016.19.19 0 0 1-.036.002c-.02-.006-.02-.006-.034-.008-.012.006-.045-.013-.055-.016a.047.047 0 0 1-.01-.021.16.16 0 0 0 .027-.032.518.518 0 0 0 .087-.088c.011-.02.005-.036.008-.051.017-.02.01-.031.01-.048-.01-.014-.006-.012-.022-.007l-.042.033c-.013.003-.04.011-.054.01l-.025.001a.146.146 0 0 1-.075.013c-.01 0-.019.006-.03.008-.014-.004-.034-.007-.046-.013Zm-.535.317c-.008-.026.002-.03.02-.043.023-.004.034 0 .054.007l.03.018a.164.164 0 0 0 .093.038c.025.007.048.012.071.026.022.01.043.026.069.035.008 0 .025.004.032.009a.285.285 0 0 1 .07-.007l.002-.001c.002.002.005 0 .005-.002l.002.002c.021-.016.002-.038-.003-.048l.001-.002a.31.31 0 0 1-.034-.033l-.002.001c-.02-.017-.037-.035-.06-.044a.043.043 0 0 1-.027-.008l-.024-.027-.032-.022a1.058 1.058 0 0 0-.025-.03l-.043-.034a.237.237 0 0 0-.079-.04c-.004-.003-.002-.003-.008 0a.048.048 0 0 0-.006-.004c-.013.003-.035-.028-.04-.034l.002-.002c-.004-.014-.008-.025-.01-.036 0-.003-.002-.006-.003-.008.009-.006-.04-.068-.045-.076-.013-.015-.013-.015-.027-.028l-.002.001a5.719 5.719 0 0 0-.026-.032.185.185 0 0 1-.035-.054.542.542 0 0 0-.063-.074 1.172 1.172 0 0 0-.024-.031c-.024-.017-.047-.035-.071-.047a.111.111 0 0 1-.022-.07.08.08 0 0 1 .043-.038.552.552 0 0 0 .056-.046l.032-.025.037-.038a.162.162 0 0 1 .04-.043l.024-.015c.02-.007.034-.015.052-.02l.001.002a.37.37 0 0 0 .078-.035c.023-.022.045-.046.071-.06.014-.01.025-.025.036-.033.003 0 .016-.01.032-.018l.09-.063a.455.455 0 0 1 .025-.008c.027-.015.052-.036.077-.047l.005.002c.004.004.015.01.022.017l-.002.002c.004.005.006.008.004.02l.003.01a.242.242 0 0 0-.01.011.116.116 0 0 1-.027.063v.004c-.013.014-.024.036-.038.054-.013.022-.013.022-.032.049-.019.018-.019.018-.037.038a.92.92 0 0 1-.096.061l-.001-.001c-.024.01-.044.028-.066.044-.035.022-.07.041-.105.069l-.008.014c-.009.007-.013.016-.02.027v.002a.106.106 0 0 1-.06.03c-.01.004-.02.01-.029.015-.014.01-.03.02-.023.041.01.016.02.03.04.04l.012-.003c.017-.012.027-.03.038-.042l.03-.023.028-.01c.005.007.042-.017.045-.019a.19.19 0 0 0 .079-.057c.028-.02.059-.038.087-.057.025-.01.025-.01.068-.031l.066-.045.026-.009c.018-.012.07-.042.07-.058l.008-.006c.018-.023.043-.026.067-.033l.003.003.004-.003a.057.057 0 0 1 .016.023l-.006.026c-.001.016-.016.049-.024.07l-.027.053c-.01.01-.026.023-.043.035-.035.03-.074.064-.116.095l-.013.006-.001-.002a.412.412 0 0 0-.062.04c-.011.013-.034.045-.057.05-.015.01-.03.02-.045.032-.024.007-.045.023-.068.037-.02.01-.04.016-.055.038 0 .007-.002.012 0 .023l.019.026.03.012c.006-.004.01-.002.013-.001l.017-.008a.27.27 0 0 1 .02-.003c.008-.003.008-.003.036-.02.036-.015.074-.031.11-.038a1.612 1.612 0 0 1 .088-.025 1.876 1.876 0 0 1 .052-.005c.014-.01.032-.017.046-.022.017-.01.034-.02.051-.028.034-.025.075-.052.1-.081.008-.016.018-.028.027-.038.004-.01.004-.01.01-.019a.204.204 0 0 0 .043-.09c.008-.012.006-.027.008-.035.003-.006.003-.007.001-.01l.024-.03c-.004-.02.028-.036.037-.043.016-.005.032-.013.045-.006l.022.005c.017.012.03.021.036.046 0 .017.002.035-.002.058a.015.015 0 0 0-.002.003c.005.007-.029.042-.027.06l-.004.007.002.003-.005.014a.125.125 0 0 1-.014.06l-.022.031c-.002.005-.002.01-.001.018a.03.03 0 0 0 .003.035l.042.014a.131.131 0 0 1 .014-.003l.001.002.004-.003.01.002c.03-.002.059.01.086.024.014.005.023.006.036.013.009 0 .024.012.033.017a.56.56 0 0 1 .095.034c.005 0 .005 0 .007.002.005-.003.008.002.013.005.01.01.02.02.032.028.017.024.032.061.021.095-.012.022-.024.05-.042.073a.12.12 0 0 1-.029.038l-.027.042-.02.017a.54.54 0 0 0-.049.058c-.008.021-.017.028-.038.043-.016.003-.03.017-.047.021l-.02.015c-.007.012-.013.023-.025.037l-.009.016-.03.031c-.01.008-.021.02-.038.024a1.467 1.467 0 0 0-.025.01c-.033.003-.042.012-.042.047l.009.016c.005.023.02.033.038.048l.048.062.003.007c.021.03.022.029.003.067-.017.012-.035.026-.059.037a.608.608 0 0 0-.031.006c-.008-.002-.017.005-.024.003-.015-.002-.019.007-.03 0-.02-.008-.046-.014-.05-.018-.033-.008-.063-.016-.094-.022a1.712 1.712 0 0 0-.037-.014c-.024-.014-.05-.026-.073-.041l-.045-.02c-.013-.003-.013-.003-.025-.008-.041-.024-.082-.025-.126-.044-.005-.005-.058-.022-.071-.033-.01-.012-.022-.026-.035-.03-.014-.01-.029-.024-.043-.03a.074.074 0 0 0-.032-.025c-.042-.01-.06-.043-.091-.067a.08.08 0 0 1-.035-.03Zm.339-.194.044.06.003.004.005.005c.011.008.021.017.032.028a.126.126 0 0 1 .008.004.11.11 0 0 1 .009.005c.01.002.022.004.032.003a.034.034 0 0 0 .02-.01l.005-.007a.466.466 0 0 1 .022-.026l.019-.02v-.007l-.004-.004c-.014-.02-.03-.043-.05-.048a.07.07 0 0 1-.019 0 .05.05 0 0 1-.012-.005l-.002.002-.007-.005a.185.185 0 0 0-.03-.02h-.002l-.01-.004c-.012-.007-.025-.014-.037-.009l-.004.002-.004-.002-.007.003c-.01.004-.024.01-.024.018l.002.005.01.028Zm-1.262-.464-.002-.003-.014-.038v-.003a.087.087 0 0 1 0-.03.056.056 0 0 0 0-.01l.002-.008.006-.01c.014-.022.027-.042.045-.057l.003-.006.003-.004.001-.002c.01-.01.017-.02.023-.03a.663.663 0 0 1 .008-.01l.003-.003a.168.168 0 0 1 .01-.007l.01-.007h.002a.266.266 0 0 0 .064-.041.931.931 0 0 1 .022-.017l.003-.001a.204.204 0 0 1 .047-.01l.017-.005.02-.006a.392.392 0 0 1 .032-.005l.033.003c.018.002.035.005.051.002l.006.001c.004.002.01 0 .015 0 .001-.001-.005 0 .002-.001l.004-.001.004.002.002.002c.004 0 .008.002.012.004.006.004.014.01.017.014l.002.005v.01l.002.01v.006c-.005.01-.01.02-.012.027l-.011.027v.001a.198.198 0 0 1-.007.01c-.007.011-.018.028-.016.04v.006a.144.144 0 0 1-.022.032l-.002.002a.388.388 0 0 0-.06.054l-.001.002-.037.028-.013.01-.004.005c-.008.012-.013.02-.035.02a.093.093 0 0 0-.022.013.101.101 0 0 0-.021.019l-.002.002a.238.238 0 0 1-.04.023c-.015.007-.03.01-.044.006l-.004.003-.006-.005-.005-.001h-.005l-.005-.002a.243.243 0 0 0-.04-.018l-.004-.004a1.723 1.723 0 0 0-.018-.022l-.02-.022Zm-.306 1.24-.004-.007c-.001-.006-.001-.006-.012-.032v-.003a.523.523 0 0 0-.01-.05v-.005a.22.22 0 0 1 .003-.034.094.094 0 0 1 .01-.029 1.132 1.132 0 0 0 .002-.08 1.005 1.005 0 0 0-.006-.03v-.004c.004-.043.005-.041.005-.042l-.004-.008.005-.003v-.003c-.001-.019-.001-.028.017-.038l.005-.001h.014l.013.001.023-.003h.008c.012.003.02.008.028.014a.116.116 0 0 1 .02.023l.002.005.003.006.032.063.019.032.022.038a.51.51 0 0 0 .042.027c.026 0 .05-.006.074-.012l.004-.001a.342.342 0 0 0 .024-.02l.012-.011a.4.4 0 0 1 .026-.017.081.081 0 0 0 .004-.006l.016-.019.002-.02a.122.122 0 0 0 .001-.04v-.042c-.008-.016-.01-.036-.012-.053l-.001-.012-.003-.005a.065.065 0 0 0-.002-.005l-.001-.003c-.005-.019-.031-.072-.038-.09a.612.612 0 0 1-.013-.032v-.003a1.84 1.84 0 0 0-.002-.017l-.001-.015a.143.143 0 0 1-.015-.042c-.004-.01-.005-.01-.016-.027v-.002a.193.193 0 0 1-.013-.077v-.005l.004-.003a.053.053 0 0 1 .005-.004l.005-.003.004-.003.004.001c.029.007.056.045.074.07a.6.6 0 0 0 .01.013.33.33 0 0 0 .022.022l.006.002a.11.11 0 0 1 .03.021l.002.002.08.11c.009.01.018.025.029.033a.654.654 0 0 1 .021.018.179.179 0 0 0 .039.013c.005 0 .009-.002.013-.003a.096.096 0 0 0 .014-.007h.002l.009-.003a.186.186 0 0 0 .045-.015h.001l.03-.012.04-.015.043-.03.043-.03.007-.008.01-.011a.098.098 0 0 0 .007-.018.064.064 0 0 0 .002-.016v-.002a.275.275 0 0 1 .005-.015l.001-.013-.004-.01a1.381 1.381 0 0 0-.014-.034v-.004c0-.043.018-.056.046-.076a.233.233 0 0 0 .006-.004l.003-.002a.197.197 0 0 1 .007-.002c.01-.003.017-.005.03-.003h.017l.003.004c.022.006.033.022.045.039l.003.003.001.004a.153.153 0 0 0 .015.038l.002.003.002.028v.022l.001.006-.002.001v.032c.003.026.011.052.02.079l.007.021.002.008-.003.002-.001.016-.001.02-.001.003a.307.307 0 0 1-.035.065v.001l-.007.007c-.015.018-.04.046-.066.048l-.02.008-.019.008a.48.48 0 0 0-.056.05v.003l.025.045a.245.245 0 0 1 .019.054v.022a.147.147 0 0 1 .004.038c0 .015.012.046.009.062v.002a.033.033 0 0 0-.002.01c0 .006 0 .013-.003.02l.003.004-.005.006a.383.383 0 0 0-.007.009l-.002.003-.002.002-.006.005a.111.111 0 0 1-.033.019h-.001a.366.366 0 0 1-.061.008c-.021 0-.056-.018-.075-.023a.158.158 0 0 1-.063-.02l-.002-.003-.004-.004c-.006-.007-.012-.014-.02-.015l-.005-.001a.01.01 0 0 0-.003-.002h-.003l-.004-.002a.53.53 0 0 0-.049-.023.162.162 0 0 0-.049-.011.372.372 0 0 0-.072.034l-.026.012-.025.012a4.593 4.593 0 0 1-.036.025l-.036.025-.003.002a.796.796 0 0 1-.084.021h-.001c-.01.002-.011.002-.034.003l-.024.005a.15.15 0 0 1-.047-.01l-.002-.001a.065.065 0 0 0-.007-.004l-.006-.003a.434.434 0 0 0-.034-.01l-.002.001c-.001 0 0 0 0 0h-.007a1.227 1.227 0 0 0-.036-.01l-.005-.001-.003-.002a.173.173 0 0 1-.042-.044ZM37.102 53.38l-.015.035-.012.026-.009.012-.01.011.005.04.017.077.02.085.025.114.017.077.02.075.013.073.024.09.014.067.02.092.016.075.017.063c.025.104.046.206.077.308.015.04.025.053.03.096.003.007.007.013.012.02l.036.008a4 4 0 0 1 .04-.008l.039-.018.034-.07c-.018-.094-.046-.186-.07-.279l-.02-.08-.016-.064-.011-.057-.015-.066-.011-.059-.015-.073-.01-.047-.014-.046-.013-.054-.02-.067-.01-.057-.013-.051v-.033l-.005-.049-.013-.058a10.374 10.374 0 0 0-.01-.054l-.012-.06-.016-.024-.014-.043a2.122 2.122 0 0 1-.018-.013l-.037-.023-.042.003s-.022-.003-.025.005Zm1.038-.206a1.594 1.594 0 0 1-.006.025l-.002.02-.008.015v.017l-.007.014c-.005.014-.006.01-.012.03-.01.022-.006.026-.003.054l.004.023c0 .005.002.01.004.016v.037l.005.008a.755.755 0 0 0 .012.013l.02.005.023-.005c.019-.004.02-.002.03-.018a.29.29 0 0 1 .008-.011l.013-.018.012-.012a.506.506 0 0 0 .016-.008l.018-.013.01-.022.002-.017.004-.015a4.33 4.33 0 0 1-.005-.032l-.008-.02a1.11 1.11 0 0 0-.024-.04l-.005-.026-.002-.02-.007-.02-.024-.013-.027-.003-.021.008-.013.012a.73.73 0 0 1-.007.016Zm.426.06a6.202 6.202 0 0 0-.024.026l-.023.02-.003.018.004.022.002.037.016.06.01.049.013.057.007.033.005.027.01.017.018.012a.626.626 0 0 1 .045-.043c.009-.004.01 0 .018-.004.005.002.013-.004.018-.002.002-.006.008-.01.01-.015.004-.053.006-.055.005-.095v-.018l-.004-.024-.003-.02c.003-.007.002-.017.005-.024-.002-.01.002-.015 0-.024-.002-.014-.006-.027-.009-.04a4.763 4.763 0 0 1-.01-.05l-.005-.02c-.004-.003-.009-.005-.013-.006l-.016.003-.025-.008-.027.001-.017.005-.007.006Zm-1.575-.603-.004.009-.007.017-.005.013-.006.019a2.166 2.166 0 0 0-.006.019l-.009.014a1.098 1.098 0 0 0-.017.034l-.016.011a.4.4 0 0 1-.008.015 4.394 4.394 0 0 1-.006.019l-.006.019a2.264 2.264 0 0 1 .003.057l.005.03.011.03.018.026.013.01.002.002.03.008h.002l.008.003h.02a.09.09 0 0 0 .006 0h.001l.036-.008.014-.023.02-.02.024-.031.023-.014.01-.005.025-.008.022-.008.003-.002.006-.001.017-.02.006-.005.011-.017s.01-.007.01-.02a.43.43 0 0 1-.002-.017v-.02l-.001-.009-.011-.04-.012-.03-.01-.027a.693.693 0 0 1-.008-.015l-.003-.008-.013-.02-.015-.018-.008-.01-.024-.009-.022-.005h-.003l-.004-.002-.023.002-.04.008-.032.018-.025.03Zm.564 1.52.006.015.005.013c.018.047.031.085.04.134 0 0-.004-.01.003.013a.647.647 0 0 0 .006.02c.008.05.022.074.049.114l.02.011.03.001h.045l.032-.015.018-.03a.345.345 0 0 0-.023-.162c-.011-.035-.03-.056-.043-.09l-.007-.02-.012-.027-.006-.02-.011-.034a4.944 4.944 0 0 1-.009-.029l-.002-.008-.018-.072-.012-.062c-.011-.059-.014-.118-.025-.171-.002-.013-.017-.057-.017-.057l-.002-.002-.008-.022-.007-.02-.005-.008-.015-.045-.016-.04v-.006c-.002-.01 0-.008 0-.008v-.013l.002-.007a.46.46 0 0 0 .003-.011l.007-.01.001-.007.01-.011.006-.008.006-.01.01-.012v-.008c0-.002 0-.004.002-.006a2.812 2.812 0 0 1 .008-.032l-.002-.02a11.264 11.264 0 0 0-.008-.042l-.009-.037-.01-.042a6.105 6.105 0 0 0-.006-.042l-.006-.031-.003-.008a.079.079 0 0 1-.002-.005l-.005-.022-.003-.016-.007-.026v-.02l-.003-.016a1.19 1.19 0 0 0-.006-.035.683.683 0 0 0-.008-.018l-.006-.023-.012-.038c-.002-.01-.01-.02-.01-.02a3.287 3.287 0 0 0-.005-.003v-.001l-.023-.013-.025-.021a5.8 5.8 0 0 1-.036-.017l-.03-.014-.011-.002-.002-.002-.018-.005a2.241 2.241 0 0 1-.035.008l-.02.008a.54.54 0 0 1-.017.007l-.006.007-.006.007-.01.01-.004.01-.005.006v.003l-.004.003v.014l-.001.01v.008l.004.007.001.012.006.011.005.02s.002 0 .004.003v.002l.007.008.002.001.002.002a.064.064 0 0 1 .01.01l.01.013a.24.24 0 0 1 .006.008l.015.029.007.015.002.002v.004l.024.026h.002l.001.001.006.005.008.014a.368.368 0 0 1 .005.01l.005.018a.604.604 0 0 1 .002.013v.015l.008.051v.032a.76.76 0 0 1-.003.014l-.004.014a1.157 1.157 0 0 0-.003.02l-.006.013a.363.363 0 0 1-.007.014l-.017.018-.02.022-.005.003-.037.02c-.014.016-.017.033-.008.037l.004.017.006.015a.814.814 0 0 0 .003.008l.007.016h.002v.005l.03.027.023.018.021.01.018.012.018.016.012.052.014.073.008.053.012.05.016.038.008.04.01.052.014.049.011.058.005.038.008.03.01.016Zm.465-1.345.018.035.006.027-.003.023-.01.038-.004.036v.022l-.014.038-.005.02-.004.006v.005l-.004.051-.01.035-.003.047-.018.036-.006.04-.01.038-.004.023-.003.022c-.023.02-.007.032-.017.05l-.01.03-.01.042c-.009.032-.015.043-.014.075l.002.021-.001.021-.014.04-.015.034s-.012.014-.011.035c0 .021-.007.04-.007.04l-.05.039c-.004.01-.026.024-.02.032.046.07.006.11.005.202l.024.067c.047.007.052.012.096-.008.132-.06.122-.066.183-.195l.04-.06.02-.055.03-.052c.008-.018.014-.037.02-.055l.03-.062.037-.049s.019-.034.044-.008l.039.039.024.046.015.08.009.044V53.844l.016.058.02.1.018.093.02.083.023.089.008.04.003.096.01.075c.007.014.002.036.01.05-.005.02.004.032-.001.051l-.002.068-.004.062-.01.053-.006.048c.01.052.026.06.069.089.078.008.087-.025.124-.083l.009-.02c.013-.032.034-.05.056-.076l.012-.02c-.002-.009.004-.017.002-.025l-.008-.035c-.003-.008.002-.007-.001-.015-.002-.004 0-.004-.003-.008.002-.006 0-.016.002-.022.003-.004-.01-.018-.008-.023l.008-.01-.002-.03-.005-.035a2.695 2.695 0 0 1-.006-.04c-.002-.059-.091-.458-.118-.493-.002-.006.003-.016.001-.023.001-.01-.005-.015-.004-.025.002-.004-.002-.016 0-.02 0-.009-.003-.015-.005-.023-.003-.01.001-.015-.002-.025a.878.878 0 0 0 .026-.029l.029-.018.022-.006s.03-.002.036-.005a.521.521 0 0 0 .02-.008l.008-.02.011-.02c.01-.02.02-.028.012-.049 0-.007.008-.017.007-.024a.774.774 0 0 0 .016-.058l.006-.023.012-.021a.512.512 0 0 0 .042-.153c.006-.004.014-.045.02-.048.025-.059.014-.103.05-.188l.012-.012a.631.631 0 0 1 .005-.012l.003-.02.012-.013.008-.014c.006-.047-.003-.048-.031-.079l-.019-.012h-.03c-.008.002-.009-.005-.018-.003a.503.503 0 0 1-.012-.002c-.005-.003-.018.002-.023-.002l-.027.002h-.02l-.024-.005a3.142 3.142 0 0 0-.028-.009l-.02-.007a1.01 1.01 0 0 0-.017-.002l-.017-.01c-.072-.023-.11.064-.134.114l-.007.021-.012.007-.027.012h-.022l-.03-.004c-.02-.017-.015-.017-.014-.042.002-.003-.026-.084-.05-.1l-.017-.006c-.03-.01-.006-.031-.05-.027-.026-.006-.042-.027-.066-.042l-.014-.014a2.696 2.696 0 0 1-.017-.016l.004-.02.008-.024c.028-.036.016-.09.04-.111a.57.57 0 0 0 .053-.272 2.66 2.66 0 0 1-.006-.024.943.943 0 0 1-.011-.019 5.776 5.776 0 0 1-.023-.025l-.024-.017-.027-.014c-.01-.005-.018-.013-.028-.017a.09.09 0 0 0-.026-.008c-.01-.002-.022 0-.032 0-.006 0-.011.002-.017.003-.008.003-.017.005-.025.01-.006.003-.01.008-.015.013l-.013.014c-.003.003-.008.006-.01.01-.02.021-.036.044-.054.066-.01.016-.017.032-.028.047-.022.03-.048.042-.08.061-.017.01-.077.03-.095.04l-.037.017.002.04c.005.02.015.037.026.056.007.013.049.028.058.04.013.016.048.016.068.024.016.007.037.003.053.01.011.005.018.017.027.025ZM42.735 53.438l-.025.016-.015.02-.014.028-.007.026.002.025.018.018.01.016.018.016.033.002c.01 0 .02-.002.029-.003l.021-.007.02-.019.006-.02a2.33 2.33 0 0 0 .01-.023l.005-.03.002-.023.002-.022-.01-.02-.03-.013-.03-.002-.032.001-.013.014Zm-.337.3-.031.013-.026.016c-.01.013-.01.021-.04.038l-.002.017a5.86 5.86 0 0 1-.012.04l.008.017.02.032c.015.005.03.01.046.013l.028-.007.042-.015s.014-.008.018-.017c.005-.008.012-.013.015-.021.01-.025.015-.055.022-.08l.004-.043c-.027-.024-.032-.019-.065-.007l-.027.004Zm.21.202-.023.018-.013.016-.01.027.003.02c.004.017.01.033.028.052l.059.001.03-.017.02-.02c.004-.007.006-.015.008-.023l-.003-.03a2.62 2.62 0 0 0-.017-.026 1.901 1.901 0 0 0-.032-.014l-.021-.004h-.03Zm-.375.308c-.013.008-.02.016-.033.024-.007.01-.018.019-.024.028-.004.003-.003.009-.007.012-.002.007-.01.012-.011.02-.003.006-.004.013-.006.019 0 .01 0 .022.005.032.019.021.058.008.08 0a.287.287 0 0 0 .059-.044 1.53 1.53 0 0 1 .022-.022c.01-.004.01-.016.02-.02.001-.012.01-.016.012-.028.002-.029.003-.024-.02-.043l-.032-.005c-.034.005-.038.007-.065.027Zm1.047-.82c-.014.011-.02.04-.013.05l.015.014.04.022c.06.014.125.029.135.1l-.01.037-.016.024c-.06-.011-.116-.021-.177-.015-.074-.002-.125.075-.165.132l-.01.034a.619.619 0 0 0-.05.31c0 .055.05.184.09.233a.347.347 0 0 0 .165.118c.063.015.116.03.228.034a.255.255 0 0 0 .155-.09c.023-.116.064-.172.017-.217a.078.078 0 0 0-.061-.02c-.051 0-.11.026-.218.063-.038.008-.068.006-.095-.018a.25.25 0 0 1-.056-.124l-.005-.049c-.002-.056-.016-.108-.018-.165l-.006-.048.01-.043.035-.024.048-.003c.058.004.055.007.103.058.002.02.12.075.14.052.013-.013.022-.028.032-.042.03-.03.04-.043.071-.077.04-.07.084-.077.117-.164.02-.106.08-.22-.05-.272-.04-.037-.052-.034-.105-.043-.072-.025-.107.025-.285.1-.013.005-.048.028-.061.033Zm.06-1.061a.296.296 0 0 0-.167.074.674.674 0 0 0-.036.053.167.167 0 0 1-.088.093l-.038.001c-.046-.006-.064-.026-.101-.053-.01-.03-.028-.033-.052-.053l-.013-.024a.158.158 0 0 0-.118-.03c-.063.023-.073.022-.098.089a.399.399 0 0 0-.016.124c.015.043.036.106.036.15l.014.008-.004.03-.01.045a.15.15 0 0 1-.045.077.188.188 0 0 0-.033.06c-.02.03-.043.008-.07.013a.277.277 0 0 0-.077.054l-.014.022-.01.018c-.018.035.01.095.05.093l.027.002.03-.003a.123.123 0 0 0 .037-.03l.018.016.016.016a.142.142 0 0 1 .006.006l.007.007c0 .003 0 .005.002.008l-.016.016a.16.16 0 0 0-.088.069c-.013.037-.019.072-.026.11.004.007-.004.012 0 .019-.002.006.003.013 0 .02-.007.044.009.057.048.077l-.005.028-.003.015-.005.018-.012.008a.551.551 0 0 1-.018.008l-.034.011-.035.013-.03.01-.03.006a.699.699 0 0 1-.02-.002l-.02-.007-.031-.013-.011-.016a.574.574 0 0 0-.048-.006l-.02.004-.018.014c-.005.008-.015.007-.02.016-.008.004-.01.018-.019.023l-.004.023a.515.515 0 0 0-.026.162l.004.02.022.013.012.021c.013.043.044.083.05.123-.002.013-.006.025-.009.038l-.008.034-.012.03-.028.025-.017.025a2.023 2.023 0 0 1-.013.046l-.018.018a.859.859 0 0 0-.015.005c-.005 0-.014.007-.019.009-.003.006-.011.007-.015.013l-.013.015c-.008.006-.009.013-.018.018-.006.01-.014.016-.02.026l-.015.018c-.004.01-.014.009-.018.018-.005.006-.009.02-.015.026l-.015.014-.011.02c-.007.004-.019.04-.019.05l.001.039c-.007.025-.006.025.006.05.017.026.017.036.034.055.024.02.049.037.084.053.065.028.095.028.137.014a.183.183 0 0 0 .024-.013l.016.004s.005 0 .002.015c-.003.014-.002.05-.002.05-.012.03-.024.05-.031.084l-.008.044.001.03.01.036.024.014.038.007.043-.015c.067-.043.054-.065.106-.13l.009-.05.007-.056c.009-.032.013-.047.01-.08l-.007-.029c-.017-.038-.014-.044.007-.08.02-.027.022-.048.03-.08l.019-.042.014-.03.036-.017.027-.014.06-.047c.03-.018.025.012.08-.035l.015-.02.018-.025c.003-.01.007-.008.01-.018.006-.004.02-.017.027-.021.009-.007.008-.015.017-.021.008-.007.009-.015.017-.022.003-.011.015-.021.019-.033l.017-.022.016-.032.018-.023.016-.025.018-.035.014-.027c0-.013.002-.022.003-.035-.005-.007-.004-.023-.01-.03-.001-.01-.01-.017-.012-.028-.008-.008-.01-.017-.018-.025-.001-.01-.005-.018-.007-.028l.004-.021a.085.085 0 0 1 .037-.053c.03-.04.04-.044.094-.065.019-.016.023-.009.043-.014.028 0 .019-.005.026-.024-.004-.043 0-.052-.008-.095.004-.006-.002-.02.002-.026l.005-.022a.54.54 0 0 0-.012-.144c-.005-.005-.021-.029-.026-.033-.011-.002-.02-.014-.03-.016-.036-.025-.03-.018-.078-.029-.041 0-.073.008-.109-.015-.007-.01-.02-.012-.027-.021-.008-.004-.01-.013-.02-.017.002-.004.002-.009.003-.013a.372.372 0 0 0 .095-.057c.037.004.106-.02.12-.053l.023-.011.026-.022c.018-.036.019-.087-.017-.112-.042-.017-.054-.013-.09.012-.036 0-.07.008-.105.009-.018-.017.018-.087.021-.11a.099.099 0 0 1 .024-.028c.033-.056.057-.066.105-.081.018-.036.062-.029.106.004.013.024.029.02.044.041.006.024.007.021.027.034.087.023.129.034.21.018a.272.272 0 0 0 .082-.055c.016-.057.056-.089.107-.112a.203.203 0 0 0 .03-.148c-.021-.073-.057-.1-.108-.129-.036-.016-.073-.016-.112-.016ZM28.871 63.973l.513-.01v.084c-.289.085-.434.228-.436.429.008.16.082.242.223.245.085-.002.16-.109.227-.32.096-.289.224-.434.385-.437.276.01.424.159.444.444a.527.527 0 0 1-.07.273.181.181 0 0 0-.021.06c0 .02.018.04.053.06a.09.09 0 0 1 .023.014l.001.076-.46.008v-.075c.254-.075.383-.203.385-.384-.008-.145-.072-.22-.193-.223-.09.002-.166.106-.228.313-.09.298-.228.449-.414.452-.256-.01-.4-.163-.43-.46a.886.886 0 0 1 .055-.317.226.226 0 0 0 .021-.076c0-.025-.023-.05-.069-.074l-.007-.007-.002-.075Zm.878 1.746.074.423.378-.066c.09-.011.123-.073.098-.186l.074-.013.118.668-.074.013c-.02-.135-.072-.189-.16-.163l-.904.16c-.09.005-.122.074-.094.207l-.074.013-.118-.668.074-.013c.016.115.068.162.156.141l.445-.078-.075-.423-.445.078c-.09.01-.122.073-.098.186l-.074.013-.116-.66.074-.013c.018.129.07.181.158.155l.905-.16c.09-.005.122-.072.095-.2l.074-.013.116.66-.074.014c-.015-.115-.067-.162-.155-.141l-.378.066Zm-.322 1.798-.172-.5.071-.024c.049.095.153.144.314.147l1.108.073.032.093-.92.842a.176.176 0 0 0-.063.213l-.071.024-.226-.655.071-.024.025.07c.021.078.055.107.1.086a.473.473 0 0 0 .055-.027c-.017.011-.013.007.012-.012l.175-.164-.138-.399-.162-.008a.3.3 0 0 0-.123.01c-.056.025-.072.07-.05.137l.033.093-.071.025Zm.596.065.328-.296-.438-.024.11.32Zm.023 1.472-.232-.474.068-.033c.06.088.17.124.33.108l1.108-.064.043.089-.81.948a.176.176 0 0 0-.037.219l-.067.033-.304-.623.067-.033.033.068c.031.074.068.098.11.072a.462.462 0 0 0 .052-.034c-.016.014-.013.01.01-.013l.153-.184-.184-.379-.162.012a.297.297 0 0 0-.122.025c-.052.032-.063.079-.032.142l.043.088-.067.033Zm.6-.008.289-.334-.438.03.149.304Zm.982.326.062-.043.267.383-.368 1.049.004.006.555-.389c.076-.04.078-.125.007-.253l.062-.043.276.395-.061.043c-.085-.094-.159-.113-.223-.055l-.901.63-.104-.148.416-1.192-.004-.006-.673.47c-.083.04-.074.127.024.26l-.061.042-.298-.425.061-.044c.074.114.145.141.213.081l.753-.527c.08-.043.077-.121-.007-.234Zm.89 3.06-.462-.496.055-.052c.079.085.126.113.14.085a.141.141 0 0 0 .041-.09c-.003.004-.003 0 0-.01l.097-.327-.332.052h-.01a.183.183 0 0 0-.082.034c-.033.031-.01.089.069.174l-.055.05-.375-.401.055-.052a.39.39 0 0 0 .295.096l.465-.053.159-.56c.029-.116.017-.202-.034-.257l.055-.05.447.478-.055.052c-.069-.081-.112-.102-.13-.064a.185.185 0 0 0-.041.079l-.084.274.289-.043a.141.141 0 0 0 .092-.034c.029-.02.011-.066-.054-.135l.055-.052.35.375-.056.051c-.078-.091-.185-.125-.321-.102l-.38.046-.188.66c-.028.066-.01.14.05.22l-.055.051Zm.781.638-.544-.44.047-.06c.103.09.178.096.227.02l.578-.715c.065-.063.043-.136-.065-.218l.047-.058.545.44-.048.059c-.102-.09-.178-.095-.227-.019l-.578.714c-.064.064-.043.137.066.218l-.048.059Zm1.357-.552.04-.064.4.24.09 1.109.006.004.349-.582c.052-.068.02-.145-.097-.233l.039-.065.413.248-.039.065c-.115-.052-.19-.039-.226.04l-.566.942-.155-.093-.105-1.258-.007-.004-.423.704c-.06.07-.017.145.128.226l-.039.065-.445-.268.038-.064c.114.073.19.07.228-.013l.473-.788c.055-.072.021-.143-.102-.21Zm1.133 1.3c.198-.37.493-.497.885-.382.356.192.477.488.365.886-.191.367-.483.49-.873.37-.368-.186-.494-.478-.377-.875Zm.335.135c-.149.368-.125.591.07.67.19.082.36-.064.51-.436.15-.373.13-.595-.064-.667-.195-.08-.367.065-.516.433Zm2.25 1.063.073.017c-.045.196-.158.272-.34.23-.187-.037-.256-.161-.207-.372.065-.217.014-.34-.155-.368l-.09.389c-.04.11.009.175.148.197l-.017.073-.668-.154.017-.074c.131.036.202.008.213-.082l.206-.895c.03-.086-.021-.142-.154-.168l.017-.073.66.152c.312.078.445.23.398.456-.052.199-.227.267-.527.203l-.002.007a.352.352 0 0 1 .267.355c.006.172.027.249.062.231.038.014.071-.027.099-.124Zm-.519-.97-.093.404c.229.057.359-.003.39-.18.032-.164-.017-.265-.147-.305-.083-.02-.133.007-.15.081Zm1.312 1.349-.496-.043.007-.076c.125.006.193-.048.203-.163l.077-.878c.012-.08-.042-.122-.163-.128l.007-.075.555.049.192.916h.008l.348-.868.563.049-.007.075c-.134-.017-.2.02-.198.111l-.08.915c-.018.09.04.138.176.145l-.007.075-.667-.059.006-.075c.12.015.181-.022.184-.112l.085-.976-.47 1.146-.166-.014-.25-1.21-.08.924c-.01.12.049.185.18.197l-.007.075Zm1.983.043-.526.046-.007-.075c.104-.024.177-.114.219-.269l.339-1.058.097-.008.595 1.097c.038.082.101.12.191.112l.007.075-.69.06-.007-.075.075-.006c.08-.003.116-.028.107-.078-.001-.01-.005-.03-.013-.06.007.02.004.016-.009-.014l-.117-.209-.42.037-.047.155a.295.295 0 0 0-.02.123c.011.06.051.087.121.08l.098-.008.007.075Zm.207-.563-.208-.39-.13.42.338-.03Zm2.042.178-1.08.249-.016-.074c.133-.025.184-.081.154-.167l-.206-.895c-.011-.09-.082-.118-.213-.083l-.017-.073.683-.158.017.074c-.133.025-.185.081-.155.167l.205.888c.016.09.066.119.152.089.183-.058.28-.225.294-.501l.08-.019.102.503Zm.277-1.433.614-.286.032.068c-.13.055-.17.121-.123.199l.334.717c.077.141.196.182.357.124.2-.093.254-.24.16-.44l-.295-.636c-.023-.083-.108-.099-.255-.047l-.032-.068.444-.207.031.068c-.111.069-.145.14-.1.213l.29.621c.119.255.026.454-.28.596-.297.133-.5.092-.606-.124l-.321-.69c-.03-.086-.102-.1-.218-.04l-.032-.068Zm1.377-.513-.04-.063.39-.254 1.036.405.007-.004-.37-.569c-.038-.077-.122-.082-.252-.015l-.041-.063.404-.263.041.063c-.097.081-.118.155-.063.22l.599.923-.152.099-1.177-.457-.006.004.447.688c.036.084.123.079.26-.015l.04.063-.436.283-.04-.063c.116-.07.145-.14.087-.21l-.5-.77c-.04-.082-.119-.082-.234-.002Zm2.654-.339-.544.44-.047-.058c.108-.081.13-.154.065-.218l-.578-.714c-.05-.077-.125-.07-.227.019l-.047-.058.544-.441.047.058c-.108.082-.13.154-.066.218l.579.714c.049.077.124.07.227-.018l.047.058Zm-.64-1.071-.053-.054.46-.445.053.054c-.094.084-.118.142-.072.175-.025-.005.221.131.739.407l.005-.005a5.108 5.108 0 0 1-.056-.124c-.205-.48-.3-.687-.288-.623-.049-.05-.111-.04-.187.034l-.052-.054.314-.304.052.054c-.061.074-.073.145-.035.213l.481 1.095-.113.11-1.035-.55c-.088-.056-.16-.05-.213.017Zm1.608-1.912.384.28-.051.066c-.245-.103-.44-.063-.582.12-.079.084-.08.15-.002.198l.297.232c.114-.121.116-.246.007-.376l.047-.06.421.33-.046.059c-.153-.075-.274-.042-.364.098l.35.274c.064.056.128.04.193-.05.15-.202.14-.413-.03-.636l.051-.065.389.323-.752.962-.06-.047c.088-.104.093-.18.016-.227l-.724-.566c-.065-.063-.138-.04-.217.07l-.06-.047.733-.938Zm1.645-.738.037-.065c.174.1.215.23.122.392-.091.168-.23.198-.417.09-.188-.126-.32-.113-.398.04l.346.2c.093.07.17.042.232-.084l.065.037-.343.594-.065-.038c.072-.115.066-.19-.017-.227l-.796-.46c-.073-.053-.142-.02-.205.1l-.065-.038.339-.587c.165-.276.349-.358.551-.247.176.107.19.294.04.563l.007.003c.103-.149.243-.2.417-.15.167.044.246.046.24.007.024-.032-.006-.075-.09-.13Zm-1.08.212.36.207c.121-.202.102-.344-.06-.425-.146-.079-.257-.062-.334.05-.042.075-.03.13.035.168Zm1.525-.462-.478-.184.03-.077c.3.03.489-.049.566-.234.052-.152.014-.256-.116-.31-.079-.031-.19.04-.33.211-.197.231-.37.318-.52.26-.253-.113-.335-.305-.246-.578a.526.526 0 0 1 .167-.226.182.182 0 0 0 .043-.049c.007-.018-.002-.043-.028-.075a.092.092 0 0 1-.015-.022l.027-.07.429.165-.027.07c-.265-.026-.431.044-.501.211-.047.138-.016.23.095.279.084.032.194-.036.328-.205.196-.243.38-.33.554-.264.233.106.309.302.226.587a.883.883 0 0 1-.17.274.23.23 0 0 0-.048.063c-.008.023.004.054.037.094l.004.01-.027.07Zm.684-1.993-.181.676-.073-.02c.04-.129.014-.2-.075-.214l-.888-.238c-.085-.033-.142.017-.173.149l-.072-.02.181-.676.073.02c-.04.129-.015.2.075.214l.887.238c.085.033.143-.017.173-.149l.073.02Zm-1.212-.555.216-1.224.462.074-.016.089c-.258.016-.403.118-.437.305l1.017.18c.087.025.141-.037.163-.186l.074.013-.131.742-.074-.013c.033-.157.003-.237-.088-.237l-1.017-.18c-.033.188.07.334.306.437l-.016.089-.459-.089Zm.291-1.297-.075-.001.011-.64h.075c-.001.101.018.152.058.153.015 0 .043-.01.084-.03a.057.057 0 0 1 .022-.007l.388-.196-.359-.187a.289.289 0 0 0-.104-.032c-.056-.001-.084.054-.086.164l-.075-.001.008-.49.075.001c.009.116.052.188.132.214l.56.288.347.006c.09.012.134-.058.132-.208l.075.001-.013.738-.075-.001c.007-.16-.034-.234-.125-.22l-.353-.007-.487.24c-.152.063-.223.135-.215.215Z" clip-rule="evenodd"/><path fill="#231916" fill-rule="evenodd" d="M101.212 56.119c-.298.084-.479.242-.662.45a3.123 3.123 0 0 0-.112.263c-.008.15-.176.398-.312.47a81 81 0 0 1-.163.038c-.205.008-.298-.063-.48-.15-.068-.12-.148-.122-.268-.189l-.075-.094c-.153-.091-.372-.09-.537-.037-.254.148-.3.153-.356.463-.022.188-.005.372.031.55.1.178.241.433.275.627l.069.019.006.131-.007.207a.662.662 0 0 1-.137.37.827.827 0 0 0-.093.287c-.061.15-.183.07-.293.11-.12.09-.21.175-.294.297l-.044.107-.025.087c-.055.166.113.405.287.363.043-.01.12-.015.12-.015.04-.01.082-.024.124-.035.047-.037.087-.069.143-.156l.088.05.08.056.035.025.034.025.013.03-.056.083c-.155.078-.242.195-.325.369-.027.171-.025.328-.025.5.023.026-.01.057.013.082-.004.029.025.054.02.084 0 .2.082.244.267.298v.194l-.006.082-.05.043-.069.05-.137.075-.144.082-.125.069-.124.05-.088.006-.094-.012-.143-.032-.062-.062h-.082l-.13.012-.082.031-.069.076c-.014.042-.058.044-.072.086-.032.025-.034.09-.065.114v.107c-.037.246-.021.485.019.72l.03.081.107.043.069.082c.09.175.258.323.318.494l-.012.17-.006.156-.032.138-.1.13c-.018.043-.037.084-.056.126l-.006.12-.012.087-.063.094-.063.031c-.02.01-.053.045-.074.055-.01.031-.044.039-.055.07l-.043.075c-.033.032-.031.063-.064.094-.021.048-.05.08-.071.129l-.05.088c-.006.043-.053.05-.06.094-.02.031-.025.09-.046.122l-.056.075-.03.094c-.026.022-.05.19-.043.231l.037.17c-.013.117-.007.113.063.212.096.1.104.144.193.213.118.064.24.12.406.162.303.073.435.048.605-.05.033-.019.094-.075.094-.075l.075.007s.018 0 .018.062c0 .063.032.219.032.219-.029.142-.063.24-.069.388v.2l.031.132.07.144.118.044h.168l.175-.1c.256-.24.182-.326.356-.651v-.226l-.013-.244c.013-.147.02-.215-.018-.356l-.057-.12c-.105-.15-.095-.182-.031-.35.06-.136.055-.226.063-.376l.05-.194.037-.144.143-.1.106-.081c.034-.03.192-.226.225-.255.111-.102.117.034.319-.215l.05-.1.056-.119c.004-.046.024-.043.029-.089.024-.02.077-.09.102-.111.033-.036.023-.071.056-.107.029-.035.026-.07.055-.106.008-.052.049-.105.058-.157l.055-.112.044-.15a6.69 6.69 0 0 0 .062-.113l.05-.125.051-.163.037-.132c-.006-.056-.007-.094-.013-.15-.029-.028-.037-.097-.066-.124-.016-.046-.06-.068-.077-.114-.04-.027-.058-.063-.097-.09-.013-.042-.038-.075-.05-.116-.002-.036.001-.063-.001-.098a.37.37 0 0 1 .117-.258c.097-.2.136-.22.355-.358.07-.084.094-.055.175-.094.123-.02.079-.036.094-.125-.051-.184-.039-.225-.109-.406.013-.03-.022-.082-.01-.114v-.1a2.347 2.347 0 0 0-.165-.616c-.026-.016-.113-.106-.14-.123-.048 0-.096-.042-.144-.042-.171-.08-.137-.057-.356-.064-.181.028-.311.09-.486.019-.038-.034-.097-.037-.134-.07-.04-.009-.058-.047-.098-.055v-.063c.141-.094.26-.19.368-.32.163-.013.441-.17.481-.325l.087-.068.094-.114c.052-.172.014-.393-.162-.475-.193-.037-.245-.011-.381.125-.157.028-.296.09-.446.122-.094-.059.007-.393.003-.497a.43.43 0 0 1 .08-.138c.101-.267.195-.33.393-.436.05-.171.247-.172.464-.065.075.095.14.06.224.144.044.096.046.085.143.125.393.03.586.046.924-.087.143-.097.209-.173.312-.307.027-.259.175-.43.375-.57a.897.897 0 0 0 .012-.664c-.149-.3-.323-.388-.568-.475-.171-.04-.33-.01-.499.019Zm.586 4.654c-.053.056-.055.183-.019.222l.077.052.195.065c.272.011.563.023.662.324l-.013.17-.052.116c-.271 0-.518 0-.779.078-.322.05-.481.422-.61.7l-.013.157c-.108.36-.108 1.01.026 1.39.046.235.362.757.571.934.234.207.421.299.814.383.285.014.526.038 1.018-.034.268-.099.469-.282.6-.516.009-.518.141-.797-.098-.955a.342.342 0 0 0-.282-.033c-.222.04-.453.197-.896.441-.158.067-.291.084-.429 0a1.097 1.097 0 0 1-.337-.493l-.065-.208c-.052-.241-.152-.46-.208-.702l-.065-.207.013-.195.13-.13.208-.051c.254-.029.242-.012.493.168.024.086.575.23.65.117.042-.065.069-.139.104-.208.105-.151.141-.218.247-.39.117-.34.303-.403.376-.804 0-.479.175-1.023-.429-1.143-.206-.127-.255-.104-.493-.104-.331-.05-.444.194-1.16.662-.048.03-.184.162-.236.194Zm-3.893 4.387c-.048.044-.078.089-.126.133-.02.047-.06.093-.08.14-.015.015-.007.039-.022.054-.002.036-.029.063-.03.099-.007.029-.006.057-.013.086a.352.352 0 0 0 .049.136c.097.078.257-.014.348-.062a1.28 1.28 0 0 0 .22-.24l.079-.113c.038-.025.032-.077.07-.101-.005-.053.034-.079.03-.132-.015-.128-.006-.109-.12-.174l-.146.007c-.14.045-.156.058-.259.167Zm1.382-1.632-.087.093-.04.08-.02.127.027.087a.431.431 0 0 0 .16.199c.142-.026.172-.026.258-.04l.113-.1.08-.1.013-.106c-.013-.045-.026-.09-.04-.133-.03-.032-.062-.063-.093-.094l-.153-.04h-.092l-.126.027Zm-1.07-.712-.126.08-.1.093c-.029.062-.027.099-.139.193v.08l-.02.18.047.066.113.127.212.02.113-.053.173-.1s.053-.047.066-.087c.013-.04.04-.066.047-.106.02-.116.02-.248.033-.366l-.02-.187c-.134-.083-.15-.055-.286.02l-.113.04Zm1.222-1.57-.095.09-.049.095-.037.136-.012.119.029.106.094.066.053.061.095.054.143-.016.123-.038.086-.048.073-.095.009-.095.028-.106-.004-.132-.012-.103-.008-.098a22.36 22.36 0 0 0-.058-.078 33.195 33.195 0 0 0-.143-.033l-.131.017-.135.028-.05.07Zm-10.418-2.71.052.168v.125l-.031.093-.078.156-.047.155-.016.094-.093.156-.042.083-.019.022-.002.021-.062.216-.078.14-.046.203-.11.14-.061.171-.078.156-.032.093-.035.096c-.115.068-.056.13-.116.204l-.066.12-.078.172c-.066.13-.102.176-.125.315l-.008.092-.023.091-.093.156-.094.14s-.062.047-.078.14a.549.549 0 0 1-.062.172l-.253.122c-.025.04-.129.084-.113.122.142.344-.066.48-.145.878l.045.311c.2.073.217.096.423.045.621-.144.587-.183.957-.69l.222-.222.134-.223.178-.2.133-.222.178-.245.2-.178s.112-.134.2 0l.134.2.067.223V62.902l-.045.245-.044.2.022.267v.868l.022.378.023.401v.178l-.067.423-.022.334c.022.067-.02.154.003.221-.037.081-.01.142-.048.223l-.067.29-.066.267-.09.222-.066.2c0 .235.06.284.222.445.333.1.402-.033.608-.255l.056-.078c.084-.13.189-.187.308-.283l.069-.077c-.003-.038.03-.07.028-.107l-.005-.159c-.004-.037.013-.027.009-.064-.007-.02.001-.019-.006-.039.015-.022.013-.067.028-.09.014-.018-.03-.09-.016-.108l.043-.038.017-.13.005-.158.008-.176c.04-.257-.009-2.063-.094-2.234-.004-.03.027-.067.023-.097.013-.04-.01-.073.002-.113.014-.018.007-.071.021-.088.002-.037-.004-.067-.002-.105-.008-.045.014-.062.007-.108l.051-.043.086-.06.142-.056a35.1 35.1 0 0 0 .102-.004s.133.013.159.008c.025-.004.094-.021.094-.021l.051-.077.065-.078c.061-.079.111-.104.094-.202.001-.032.049-.066.05-.098a3.59 3.59 0 0 0 .117-.238l.047-.095.069-.081c.14-.19.243-.416.313-.628.028-.01.094-.18.123-.191.16-.232.15-.436.377-.773l.06-.043.034-.047.03-.081.06-.048.047-.056c.064-.195.027-.208-.068-.364l-.069-.07-.128-.026c-.04.003-.039-.03-.079-.026l-.05-.018c-.02-.021-.08-.007-.098-.028l-.12-.018a15.55 15.55 0 0 1-.09-.017l-.094-.038-.116-.064-.081-.048a14.306 14.306 0 0 1-.073-.021l-.064-.06c-.294-.159-.528.186-.677.381l-.047.086-.06.022-.124.026-.095-.017a47.835 47.835 0 0 0-.127-.043c-.074-.09-.05-.086-.027-.194.011-.01-.043-.386-.128-.472a11.502 11.502 0 0 1-.073-.043c-.119-.068 0-.141-.189-.159-.11-.049-.163-.151-.252-.236l-.051-.074-.06-.085.034-.077.056-.103c.148-.13.142-.375.265-.447.222-.254.472-.93.459-1.134l-.005-.107a8.809 8.809 0 0 0-.034-.09 27.38 27.38 0 0 0-.077-.129l-.09-.095-.107-.081c-.034-.033-.065-.07-.103-.1a.4.4 0 0 0-.107-.055c-.045-.015-.094-.02-.14-.03h-.074c-.039.007-.08.008-.116.021-.028.01-.052.031-.077.048l-.068.047c-.018.012-.04.02-.056.033-.098.079-.192.163-.289.244-.052.06-.098.125-.156.178-.125.117-.244.144-.4.2-.081.03-.36.063-.443.09-.058.018-.118.029-.178.044l-.022.178c.002.09.03.17.062.26.022.063.19.162.22.221.041.085.194.111.272.164.066.045.157.044.223.09.043.029.063.084.095.127Zm-3.146 5.434.016.071.012.062c.034.218.061.394.061.615 0 0-.01-.046 0 .056l.01.08v.012c-.011.223.032.34.113.535l.075.066.13.029.198.037.15-.037.102-.113c.075-.213.077-.45.038-.723-.018-.161-.08-.266-.108-.427a9.52 9.52 0 0 0-.044-.22l-.012-.09a42.209 42.209 0 0 0-.017-.158l-.014-.13-.002-.036-.018-.328v-.282c0-.261.037-.52.037-.76 0-.057-.028-.263-.028-.263l-.004-.01-.015-.101-.018-.09-.01-.04a79.89 79.89 0 0 0-.028-.21l-.035-.187v-.026c0-.045.006-.033.006-.033l.011-.057.017-.028.023-.045.039-.034.011-.034.05-.039.034-.028s.017-.016.035-.038l.052-.042.004-.035.016-.026.034-.062.028-.068.011-.09-.003-.12.004-.069-.01-.169c-.002-.062-.006-.125-.01-.187.004-.063.008-.125.01-.188v-.14c-.001-.013-.004-.026-.006-.038l-.001-.024a27.53 27.53 0 0 1-.006-.096v-.074s-.006-.084-.006-.118c0-.034.011-.084.011-.084l.006-.074v-.157a14.131 14.131 0 0 0-.017-.085 12.922 12.922 0 0 0-.005-.107s-.023-.135-.023-.175c0-.04-.022-.09-.022-.09l-.023-.019-.001-.005-.084-.075a46.618 46.618 0 0 1-.094-.113l-.14-.103-.122-.085-.044-.022a.17.17 0 0 1-.006-.009 24.365 24.365 0 0 0-.072-.036l-.16.007-.09.015-.083.02-.033.021a1.82 1.82 0 0 0-.03.027l-.05.038-.029.037a1.832 1.832 0 0 1-.024.024l-.007.01-.018.01a4.483 4.483 0 0 1-.014.06l-.012.046.002.014a1.094 1.094 0 0 1-.004.02.994.994 0 0 1 .006.033l-.001.051.014.053.007.087.01.02.002.01a25.538 25.538 0 0 0 .03.046l.007.01.003.002a.33.33 0 0 1 .035.05l.031.066.02.04.038.135.02.072.006.009a.759.759 0 0 0-.003.02l.084.131.007.002a.119.119 0 0 1 .005.008l.02.023.023.068.012.051.008.08-.004.059v.001a2.433 2.433 0 0 0-.005.01v.017a4.243 4.243 0 0 1-.007.035l-.008.229c0 .007-.002.014-.003.02l-.024.116-.025.062-.027.055-.031.083-.04.053-.041.055-.085.062-.106.08-.023.01-.18.051c-.073.06-.1.132-.065.155v.079l.017.068.006.039.017.073.005.006.002.021.103.141.084.094.084.066.066.065.065.085.01.235v.328l-.01.235.01.226.037.177V63.101l.019.226v.263l-.01.169.01.132.031.079Zm-1.163-7.055a4.4 4.4 0 0 1-.026.034l-.042.07-.035.05-.042.076-.042.077-.049.056-.063.07-.041.063-.077.035-.05.056-.041.077-.042.077-.014.119-.021.133v.132l.02.14.057.126.048.054c0 .004.002.008.004.012l.12.061.014.004.03.016.091.02h.19l.081-.09.102-.072.131-.112.112-.04.046-.016.115-.012.105-.014.012-.009h.026l.091-.073.031-.016.063-.063s.05-.02.056-.077l.01-.074.012-.087.006-.041-.014-.182-.028-.14-.02-.126-.023-.07-.002-.037-.04-.1-.052-.09a7.811 7.811 0 0 0-.024-.053l-.098-.055-.09-.042-.014-.003-.016-.012a31.846 31.846 0 0 0-.102-.01h-.182l-.152.05-.132.108Zm6.313 3.936-.124.094-.115.062-.032.08v.098l-.022.16.018.276v.218l.013.259v.27l.027.08.071.072.058-.044.04-.036.071-.036.062-.036c.04-.007.04.006.08-.002.02.014.06-.007.08.006.011-.024.042-.033.054-.057.063-.226.075-.23.102-.405l.018-.08v-.106l.005-.09c.02-.026.022-.072.042-.1.002-.04.023-.063.024-.104l-.009-.182v-.223a9.745 9.745 0 0 0-.004-.093 24.751 24.751 0 0 1-.053-.036h-.072l-.102-.054-.12-.017c-.025 0-.05.003-.076.004l-.036.022Zm-1.794-.62-.048.106-.022.087-.048.053-.018.075-.04.056c-.034.054-.036.036-.078.115-.056.09-.047.11-.056.237l-.005.1.005.075-.01.066-.021.092.013.04.043.065.08.04h.109c.083-.004.085.006.144-.053l.044-.044.07-.065.06-.044.08-.018.087-.044.062-.088.026-.07.026-.061.004-.145-.013-.092a19.527 19.527 0 0 0-.04-.096c-.01-.032-.022-.065-.034-.097v-.118l.009-.084-.013-.092-.093-.079-.113-.035-.1.013-.066.044-.044.061Zm-4.67.017c-.023.03-.062.094-.093.14l-.075.104a5.132 5.132 0 0 1-.047.047 3.92 3.92 0 0 1-.056.037l-.01.179.01.347.018.385.01.517.01.347.018.337v.329l.028.413v.3l.01.414.009.338.019.29c.023.47.026.931.074 1.4.033.186.065.248.047.44l.037.094.15.066h.178l.188-.047.206-.272c0-.423-.044-.845-.066-1.267l-.019-.367-.019-.29v-.254l-.009-.3V63.383l-.01-.215c-.005-.07-.012-.138-.018-.207l-.01-.244-.027-.31v-.253l-.01-.235.029-.14.018-.217-.01-.263v-.516l-.046-.113-.028-.197-.066-.075a84.357 84.357 0 0 0-.14-.131l-.187-.019s-.089-.03-.112 0Zm38.352 7.326-.034-.001c-.025-.01-.025-.01-.146-.03l-.011-.004a2.764 2.764 0 0 0-.211-.086l-.018-.007a1.03 1.03 0 0 1-.121-.093.42.42 0 0 1-.083-.106 8.68 8.68 0 0 0-.148-.102 2.734 2.734 0 0 0-.145-.092l-.065-.024-.066-.025-.013-.007c-.149-.118-.142-.117-.146-.117l-.036-.006-.002-.022-.013-.008c-.072-.042-.106-.062-.101-.153l.008-.025.037-.05.031-.043a.478.478 0 0 1 .051-.112l.01-.013a.318.318 0 0 1 .117-.072.504.504 0 0 1 .132-.02l.025.005c.006.004.006-.002.031 0 .051.003.148.01.311.029.049 0 .105.002.162.005.062.003.126.005.194.005.162-.072.179-.08.201-.094.062-.096.093-.199.126-.306a.098.098 0 0 0 .005-.016 1.259 1.259 0 0 0-.019-.138l-.011-.07v-.003c-.003-.043-.004-.085-.003-.13l-.01-.03-.036-.104a2.143 2.143 0 0 1-.07-.056.542.542 0 0 0-.145-.097l-.01-.005c-.106-.07-.113-.075-.148-.094-.08-.006-.16-.046-.227-.08a3.334 3.334 0 0 0-.048-.023.978.978 0 0 0-.05-.005l-.012-.002c-.082-.026-.343-.054-.422-.068-.053-.01-.105-.02-.154-.031l-.01-.005-.067-.034-.059-.029a.597.597 0 0 1-.192-.045c-.048-.005-.051-.005-.138-.003l-.01-.001a.784.784 0 0 1-.173-.056 1.105 1.105 0 0 1-.144-.08l-.016-.011-.003-.02c-.003-.011-.004-.02-.005-.03l-.001-.026-.001-.02.014-.016c.093-.09.298-.103.436-.112l.071-.005c.083-.019.102-.023.134-.033v-.002l.023-.015a.456.456 0 0 1 .151-.063l.008-.001.601-.038c.055-.013.134-.011.19-.032.037-.013.074-.027.115-.04a1.192 1.192 0 0 0 .139-.114.173.173 0 0 0 .021-.055.512.512 0 0 0 .007-.067l.002-.011a.32.32 0 0 1 .012-.037.843.843 0 0 0 .049-.206l.001-.006c.009-.049.019-.095.03-.141.014-.06.028-.12.036-.18l-.014-.234-.012-.233-.011-.04-.019-.061a.44.44 0 0 0-.051-.07.276.276 0 0 0-.053-.047l-.008-.008c-.023-.025-.036-.04-.043-.05a.139.139 0 0 1-.044-.035 7.3 7.3 0 0 0-.21-.038l-.017-.006c-.16-.101-.166-.2-.174-.35a.367.367 0 0 0-.002-.033l.002-.015a.252.252 0 0 0 .008-.03c.014-.05.022-.079.061-.122a.543.543 0 0 0 .027-.045l.013-.018.021-.001c.074-.068.157-.073.252-.079h.016l.017.002a.488.488 0 0 0 .179.033l.015.003a.67.67 0 0 1 .108.057.962.962 0 0 0 .085.05l.024.011v.01c.021.011.041.025.117.08.103.045.222.075.343.105l.096.025.032.008.001.02.057.039.074.052.01.01a1.14 1.14 0 0 1 .161.281l.002.006.01.039c.029.1.075.26.024.359l-.016.091-.016.092c.004.062.008.116.016.168.009.054.022.11.039.16l.013.006c.076.003.15.006.225.015.08.01.161.026.248.058l.009.004.038.023a.638.638 0 0 0 .035.02c.05.017.101.044.152.077.054.036.201.062.251.11l.007.007a.126.126 0 0 0 .035.028c.023.015.048.032.071.06l.019-.002.011.033.017.045.006.014.002.013.003.035c.005.052.009.1-.006.167l-.002.006c-.033.085-.07.17-.115.247-.046.078-.194.167-.261.226a.77.77 0 0 1-.223.184l-.014.005-.024.004c-.043.007-.079.014-.101.04l-.019.014a.04.04 0 0 0-.013.007.096.096 0 0 0-.011.013l-.012.01c-.066.04-.136.081-.201.13a.716.716 0 0 0-.157.155c-.011.05-.019.105-.026.162a2.912 2.912 0 0 0-.015.187v.003l-.016.126-.015.118.009.194.01.196-.002.014a3.252 3.252 0 0 1-.056.177c-.021.061-.043.124-.06.186l-.002.005c-.018.044-.019.045-.071.134l-.037.1a.713.713 0 0 1-.151.152l-.006.004a.601.601 0 0 0-.032.02l-.021.013a.312.312 0 0 1-.057.053l-.06.05-.004.012-.001.004-.014.021-.122.112-.016.014-.013.008a.771.771 0 0 1-.263.055ZM119 63.524l-.017-.001c-.126-.032-.126-.032-.175-.037l-.012-.003c-.047-.019-.08-.046-.109-.07-.016-.013-.03-.024-.042-.03l-.022-.022a.821.821 0 0 0-.022-.047 1.196 1.196 0 0 1-.111-.302.565.565 0 0 0-.012-.025l-.01-.021-.004-.01a.836.836 0 0 0-.056-.156l-.023-.055-.003-.015-.003-.054v-.053l.001-.008c.02-.116.009-.225-.002-.334a4.311 4.311 0 0 1-.011-.123l.002-.015a1.057 1.057 0 0 1 .076-.197l.019-.078.022-.087.002-.006a1.7 1.7 0 0 1 .058-.128c.027-.04.058-.077.088-.114.05-.06.1-.121.129-.186l.018-.02c.015-.01.023-.036.03-.06.001-.003-.007.021.003-.007l.005-.018.018-.008a.071.071 0 0 1 .011-.005.293.293 0 0 1 .137-.063l.024.004.04.02a.924.924 0 0 0 .041.02l.017.015.076.104.074.106.003.005c.006.01.013.026.021.043.026.057.064.138.111.155l.024.019a.764.764 0 0 1 .068.156l.002.01a1.145 1.145 0 0 0 .064.349l.002.01c.005.066.012.135.019.203l.006.073.013.029c.026.058.041.092-.008.178a.467.467 0 0 0 .017.233l.002.013c.003.05.006.128-.005.203a.295.295 0 0 1-.081.18l.001.02-.032.012c-.007.003-.011.009-.017.016l-.013.019-.018.013a.58.58 0 0 0-.083.046c-.029.02-.055.04-.078.058l-.023.01a6.719 6.719 0 0 0-.126.017l-.126.018Zm4.692-3.627c.108-.01.218-.02.328-.027l.023-.001.03-.01c.059-.019.112-.037.18-.05l.036-.022.036-.02a.394.394 0 0 0 .088-.115.151.151 0 0 0 .013-.098h-.006l-.012-.032a2.04 2.04 0 0 1-.046-.147c-.011-.04-.021-.077-.029-.113l-.011-.006a.228.228 0 0 0-.018-.01l-.02.001c-.108.006-.231.013-.297.077a.322.322 0 0 1-.047.068.225.225 0 0 1-.045.037v.011l-.031.013a.678.678 0 0 1-.029.01.352.352 0 0 0-.117.06l-.005.005-.039.023c-.055.032-.112.064-.121.12l-.003.019-.015.01-.003.003-.004.032c-.008.049-.018.112.014.132l.021.004c.042.008.085.016.129.026Zm-.068 1.722c-.118-.035-.106-.08-.112-.178.036-.094.074-.127.151-.183l.139-.072a.736.736 0 0 0 .361-.257c.084-.077.156-.15.263-.207.091-.057.199-.098.292-.173a.352.352 0 0 1 .108-.1c-.001-.02.118-.273.138-.279v-.009c.012-.003.009-.018.007-.023h.009c-.007-.119-.134-.1-.185-.104l-.004-.009c-.069.023-.138.04-.205.05v.01c-.109.032-.217.056-.304.118-.03.048-.045.059-.096.085a4.264 4.264 0 0 0-.156.028l-.157.067-.171.024c-.076.026-.151.054-.226.081a1.042 1.042 0 0 0-.335.2c-.022.01-.017.001-.021.028a.162.162 0 0 0-.027.015c-.021.055-.188.065-.223.067l-.001-.01c-.062-.016-.113-.028-.16-.048l-.036-.006c-.003-.047-.349-.01-.389-.012-.088.015-.088.015-.169.038l.001.009-.181.023a.814.814 0 0 1-.283.004 2.39 2.39 0 0 0-.427.059 4.755 4.755 0 0 0-.172.02c-.12.05-.243.093-.343.154a.491.491 0 0 1-.311-.083.352.352 0 0 1-.041-.247 2.616 2.616 0 0 0-.043-.32 5.8 5.8 0 0 1-.015-.178c-.045-.16-.045-.16-.057-.226a.707.707 0 0 1-.069-.251l.001-.128c.021-.087.027-.16.049-.24h.008c.031-.116.051-.259.052-.373-.027-.134-.066-.277-.054-.403-.009-.078-.036-.15-.04-.211.004-.016 0-.086.004-.163a39.363 39.363 0 0 1-.021-.485c.008-.038.016-.075.026-.112.011-.136-.01-.276.009-.397.013-.007.013-.007.016-.017.026-.003.077-.031.115-.04 0 .005.002.008.004.012.028-.002.043-.005.081.031l.05.016c.005.02.009.04.016.06.067.042.137.15.171.25a.09.09 0 0 0 .015.011c.02.08.078.169.114.266.05.1.05.1.106.234.024.113.024.113.058.229.01.163.013.335.003.501l-.009.001c-.019.11.002.227.01.35 0 .184-.011.36.009.555l.034.063c.007.047.032.083.054.14l.009-.001c.027.094.009.2-.032.3a5.926 5.926 0 0 0-.007.139c.004.076.003.162.101.184a.495.495 0 0 0 .243-.055c.004-.017.01-.035.016-.052-.006-.093-.051-.17-.068-.242-.005-.055-.01-.11-.013-.165.007-.042.017-.085.027-.128.038-.002.035-.198.034-.213.04-.148.004-.302-.031-.43-.009-.154-.003-.307-.007-.459.019-.12.019-.12.041-.325l-.009-.354c.008-.039.017-.078.027-.116-.004-.097.002-.359-.054-.4l-.003-.045c-.044-.117.002-.221.032-.326a.057.057 0 0 1 .019-.005l-.001-.02a.261.261 0 0 1 .122-.007l.082.083c.059.042.146.176.205.254l.136.225c.011.062.027.154.033.244.032.202.063.429.083.654-.008.02-.008.02-.01.066h-.009c-.009.108-.006.207.004.323.02.073.086.234.05.328l.015.245c-.029.107-.021.223-.02.343-.013.096-.038.188.014.293.022.018.039.034.083.054l.143-.009a2.17 2.17 0 0 1 .117-.09c-.002-.028.015-.032.025-.045.007-.023.007-.023.012-.084a.712.712 0 0 1 .034-.079c.006-.038.006-.038.009-.185.03-.166.057-.347.118-.496.001-.074.026-.124.05-.182.02-.068.042-.136.064-.204.03-.07.058-.138.089-.206a.023.023 0 0 1 .011-.003c-.005-.078.016-.161.026-.225l.015-.256c-.011-.186-.016-.404-.069-.56-.038-.073-.058-.136-.077-.194-.025-.037-.025-.037-.046-.083a.899.899 0 0 0-.234-.37c-.03-.056-.088-.087-.116-.11-.015-.03-.019-.03-.031-.03l-.061-.16c-.079-.032-.067-.187-.071-.237.017-.073.026-.154.085-.184.021-.024.045-.047.068-.07.085-.035.148-.06.255-.029.067.04.138.078.214.144 0 .005.002.01.004.017.039-.003.092.206.163.243.005.01.011.018.019.03l.014-.001c.006.016.017.027.04.049.066.03.141.113.194.195.02.05.041.103.064.155.011.016.027.029.064.047.018.041.073.081.137.07.045-.031.102-.079.152-.122.006-.021.011-.04.019-.06.003-.002.007-.003.01-.003l-.001-.019c.009-.002.009-.002.033-.034.063-.117.177-.194.288-.264.052-.042.078-.074.134-.104.018-.035.101-.063.141-.083.109-.106.224-.19.351-.276.009-.017.011-.017.023-.024-.001-.023.027-.022.049-.033a.702.702 0 0 0 .183-.056c.128-.008.3.026.403.145.053.098.127.206.173.329a.55.55 0 0 1 .072.196c.04.087.065.127.096.202l.013.115a.674.674 0 0 1 .057.199c.013.04.028.078.043.12.064.08.069.125.076.24-.026.067-.01.154-.03.226l.009.106c.028.06.055.105.079.186l.04.07c.014.06.03.12.046.182.004.059.022.128-.002.199a14.78 14.78 0 0 0-.018.119c-.073.13-.057.183.072.268.026 0 .055.003.083.005.096.034.166.003.271-.032.113-.007.222-.028.342-.035.009.001.02.005.03.008.166-.01.162-.018.26.142.006.095.013.195.001.309-.018.043-.034.088-.051.133-.025.022-.023.072-.046.096-.044.051-.017.084-.073.111-.072.056-.158.137-.182.148-.106.1-.207.192-.304.296a8.86 8.86 0 0 0-.138.105c-.106.057-.217.126-.324.177-.032.023-.076.047-.18.124-.039.038-.039.038-.086.072-.19.096-.29.247-.464.368-.026.006-.219.164-.291.187-.066.008-.147.023-.192.06-.074.03-.157.051-.212.09a.329.329 0 0 0-.169.061c-.136.133-.3.123-.464.184a.35.35 0 0 1-.194.062Zm.07-2.743a.716.716 0 0 0-.069-.01c-.087-.085-.059-.2-.053-.295l-.021-.273c-.037-.097-.053-.13-.021-.213-.007-.099-.014-.222.033-.305.006-.023.011-.047.019-.07.037-.052.073-.12.114-.158.048-.077.079-.142.095-.16.01-.039.01-.039.03-.08.092-.075.193-.165.301-.223.087-.069.203-.112.264-.21.019-.021.03-.045.051-.057l-.001-.01c.056-.055.073-.119.15-.15.09-.012.181-.021.273-.03l.113.072c.035.054.078.125.119.205l.051.147c.009.08.022.184.066.267.02.218.034.461.038.703a.242.242 0 0 1-.029.088 3.867 3.867 0 0 0-.015.157.861.861 0 0 1-.077.144c-.068.058-.068.058-.111.105-.003.059-.152.14-.189.17a.206.206 0 0 1-.102-.015.67.67 0 0 0-.054-.172 2.343 2.343 0 0 0-.126-.532c-.048-.089-.122-.105-.173-.153-.03-.105-.09-.111-.156-.147-.073.004-.059-.006-.076.064l.023.235c-.016.056-.049.172-.091.225-.003.013-.032.053-.05.096-.017.099-.057.235-.129.312-.021.037-.023.083-.041.128-.047.043-.106.113-.156.145ZM77.225 62.12l-.006.119.001.04-.006.07-.006.12-.005.025v.007l-.014.111-.011.016-.033.168-.04.163-.014.072-.041.09-.038.024-.004.005c-.028.048-.12.25-.15.297l-.096.132-.008.024v.02l.003.108.076.087.083.09.077.077.093.072.046.063.02.013.184.026h.018c.027 0 .053.002.08.003l.083-.014c.035 0 .07-.002.104-.003l.036.018.109-.007.108-.045.213-.086.126-.103.009-.01a.091.091 0 0 1 .004-.004h.001l.077-.078.06-.115v-.103c.015-.025.13-.249.186-.32 0-.01.012-.042.063-.136.053-.096.09-.164.11-.204a.329.329 0 0 1 .056-.148l.035-.014.056-.086.086-.137.09-.132.07-.137.052-.096v-.056l.017-.045.049-.045.027-.084c.115-.13.037-.152-.017-.32l-.042-.129-.055-.066a10.558 10.558 0 0 0-.07-.042l-.073-.028a29.82 29.82 0 0 0-.1-.02l-.111-.015-.216-.01-.142.007-.056.02-.048.018-.118-.014-.07-.014-.121-.017c-.06.02-.118.042-.177.063l-.073.052-.09.073a16.35 16.35 0 0 0-.087.08l-.073.108-.09.09-.058.032-.023.057-.046.069-.034.074s-.046.063-.046.08Zm-2.947-.98-.041.007-.087.029-.036.015-.004.001v.001a3.144 3.144 0 0 1-.042.019l-.044.05-.075.087-.036.076c-.004.03.043.124.04.154l-.008.087s-.017.036 0 .086c.019.05.015.072.015.072a.336.336 0 0 0 .005.01s0 .001 0 0l.019.049.051.028.057.022.014.01.013.061-.009.108-.002.052-.011.108.014.138.024.056.003.015.008.01a.724.724 0 0 0 .005.013l.047.068.065.076.027.026a4.355 4.355 0 0 0 .015.015l.066.06.19.13.066.04.049.035.033.017.05.031.018.005.058.03.077.005.042.01.195.015c.059-.015.117-.03.176-.047l.11-.184.01-.063.018-.019.005-.063.013-.044c-.001-.03-.042-.24-.043-.27v-.059l.02.01h.002l.002.001.019.009h.002l.001.001c.03.03.139.17.169.199.054.008.07.087.124.096l.04.01.016.047.005.033.004.047.007.053v.066l-.003.026c-.01.012-.019.026-.028.039l-.007.004v.023l-.032.059c-.01.048-.018.096-.026.144l-.04.078-.046.145-.045.052-.066.059-.065.072-.066.078-.052.125-.059.059-.04.052-.054.072a7.648 7.648 0 0 0-.012.066l-.024.07c-.037.043-.08.086-.118.13l-.02.055s-.04.065-.046.098c-.007.033-.04.085-.04.085s-.028.021-.028.087c0 .065-.07-.002-.064.077.007.078.007.091.02.137.013.046.026.131.026.131l.033.111.036.09.04.02a3.3 3.3 0 0 0 .032.046c.025.173.098.159.103.346.093.14.24.272.393.36.072.046.13.09.196.145.09.027.15.078.323.074l.136-.018c.16-.032.568-.182.743-.262.19-.079.269-.178.487-.22.174-.08.302-.08.49-.08l.188-.046c.15 0 .302-.066.458-.066l.061-.018c.145-.095.239-.226.332-.393l.028-.08v-.093l.014-.07.07-.038c.094-.156.15-.31.23-.537l.041-.07c.13-.288.357-.819.482-1.24.099-.114.103-.236.188-.351.06-.149.055-.251.149-.388 0-.118.006-.23.019-.346.054-.218.035-.215-.01-.402a.496.496 0 0 0-.22-.267.802.802 0 0 0-.401-.121c-.204-.007-.333.003-.515-.08-.211-.101-.332-.01-.547-.154-.116-.05-.264-.038-.46-.066-.096.004-.415.006-.471.047l-.122.019-.121-.005-.066-.038-.089-.12-.098-.08a94.132 94.132 0 0 1-.084-.024 15.138 15.138 0 0 0-.066-.056l-.089-.033-.046-.056a.518.518 0 0 0-.015-.006l-.023-.02-.09-.037a5 5 0 0 1-.086.01l-.072.036-.059.063c-.005.015-.01.03-.017.045l-.012.007.007.046v.033l.013.086-.027.118-.034.047c0 .001 0 .002-.002.003l-.055.046-.029.08-.008.027-.066.073-.098.06-.113.027-.023.03-.09.046-.127.04-.072.018c-.026 0-.051-.002-.076-.003h-.112l-.136.004h-.108l-.033.012a.874.874 0 0 0-.032.002l-.068.027-.072.027-.05.014-.054.013-.05.005-.053.004-.036-.004-.055-.005-.058-.014-.064-.013-.076-.05-.081-.04-.123-.018c-.006.004-.062-.055-.068-.051Zm-2.716 2.725.016-.034c.07-.108.064-.152.076-.281l.002-.05a3.642 3.642 0 0 1-.007-.046l.01-.121-.03-.1-.06-.092-.05-.12-.06-.081-.03-.141.04-.141.18-.212.06-.07.101-.03h.102v-.008l.016.007h.003l.004.003.125.058.02.015.021.005.056.056.1.078.104.122.07.082.032.024.07.092.004.01.027.032.086.086.11.099.087.11.098.117.068.13.03.074c.04.064.03.1.042.146l.002.007.03.086.068.105.02.04.022.026a.759.759 0 0 1 .003.027l.004.011c.008.018.02.057.027.087l.026.026v.09l.003.012.018.111a.525.525 0 0 0 .028.13l.011.02.031.11.04.122-.006.087v.038h.01l-.028.136-.021.119-.022.119-.014.033v.002l-.001.002-.034.082-.043.119-.027.092a33.6 33.6 0 0 1-.03.05l-.025.088-.079.118a25.112 25.112 0 0 0-.077.1l-.075.082-.033.026c-.063.036-.158.069-.176.062-.046-.02-.092-.038-.137-.056a46.632 46.632 0 0 0-.103-.087l-.124-.113-.12-.146a45.797 45.797 0 0 0-.102-.14l-.014-.02-.015-.017-.081-.121-.09-.091-.12-.131-.013-.028-.03-.03a92.463 92.463 0 0 0-.086-.2l-.092-.184-.016-.051-.005-.01c-.04-.122-.057-.226-.08-.353l-.006-.195a.478.478 0 0 1 .06-.211Zm4.106-5.572c-.236.227-.45.407-.703.472l-.13-.017a.79.79 0 0 0-.38-.081c-.18.077-.369.11-.34.342.051.154.193.06.152.238.031.168.102.179.26.217l.13.011.059.054c.339.177.576.152.963.152.25-.012.411.02.695-.035.17-.066.191-.071.31-.17h.125c.177-.014.235-.041.379-.142l.048-.179c.038-.177.065-.46-.135-.526l-.114-.158c-.111-.169-.366-.253-.6-.341-.228.005-.55.003-.72.163Zm36.507 5.06c.015.194.07.253.217.375.306.341.365.397.656.928.094.13.328.444.393.554.082.14.118.146.199.286.096.163.178.254.341.328.138.063.254.14.458.098l.026-.038.026-.037c.062-.09.08-.312.157-.423.095-.137.034-.763-.052-.91-.037-.061-.666-1.179-.903-1.246-.177-.106-.122-.172-.198-.319-.186-.178-.216-.294-.476-.285-.372.135-.804.39-.844.689Zm-2.222-5.532a.161.161 0 0 0-.047.094c-.038.153.087.277.131.418.023.019.024.144.048.163.084.179.099.339.099.538-.005.038.03.142.025.18.113.237.059.29.059.543-.039.111-.035.182-.035.301 0 .364.022.456-.301.652l-.091.077a.27.27 0 0 1-.146.05l-.175.014c-.154.051-.221.118-.342.16-.129.12-.189.25 0 .38.06.037.218.096.279.133l.14.035c.002.033.05.025.052.058.028.04.051.08.079.119.03.03.02.101.05.132v.098l-.048.098c-.099.163-.174.285-.224.47-.007.065-.126.177-.133.242-.16.172-.333.575-.495.676-.179.111-.146.11-.197.148-.085.084-.227.163-.399.259-.242.044-.253.144-.301.344.072.285.201.324.455.428.151.024.555.078.678.02.293-.134.459-.284.72-.483.205-.222.542-.582.671-.82.169-.311.27-.446.386-.695.012-.096.137-.346.202-.42a2.03 2.03 0 0 0 .378-.786l.028-.162c.115-.033.212-.07.322-.119.336-.194.619-.255.979-.372.324-.185.41-.314.482-.553.048-.152.069-.275.077-.435.032-.089.067-.173.105-.26l.104-.105a.596.596 0 0 0 .015-.33.425.425 0 0 0-.252-.28c-.264.011-.356.09-.49.315-.065.092-.046.068-.126.169l-.069.09c-.07.302-.111.36-.357.555l-.168.049-.21.05-.238.006-.125-.063.007-.091.035-.147.062-.148.029-.14-.029-.147c-.083-.143-.048-.334-.055-.498-.055-.593-.461-.782-.875-1.059-.339-.102-.544-.06-.769.049Zm-50.31 9.723c-.006-.004-.03-.01-.056-.016-.026-.007-.054-.013-.074-.02a.214.214 0 0 1-.016-.01.367.367 0 0 1-.09-.163.99.99 0 0 1-.037-.239c-.012-.06-.03-.115-.048-.166-.01-.027-.018-.052-.025-.077a.204.204 0 0 1-.002-.015l.01-.193.008-.192a1.961 1.961 0 0 1-.01-.183c0-.066.01-.13.035-.17a1.834 1.834 0 0 1 .054-.337c.004-.153.008-.31.027-.927.037-.176.041-.35.046-.524l.003-.103a1.258 1.258 0 0 1-.026-.176 2.706 2.706 0 0 1-.008-.168l-.005-.073-.003-.06-.003-.014a1.886 1.886 0 0 0-.012-.17.279.279 0 0 0-.017-.075.125.125 0 0 1-.007-.025 3.896 3.896 0 0 0-.004-.355v-.004a.871.871 0 0 1 .012-.153v-.055c.002-.164-.077-.228-.124-.352-.058-.053-.136-.224-.197-.27-.06-.047-.024-.105-.073-.15l-.006-.008c-.072-.101-.072-.101-.107-.164l-.005-.011a.538.538 0 0 1 .026-.315.658.658 0 0 1 .188-.279l.013-.007.079-.03c.028-.012.055-.021.08-.03a.12.12 0 0 1 .021-.003l.043.004.133.012.014.004c.082.034.165.041.246.092l.111.069c.09.035.17.122.253.176a1.762 1.762 0 0 1 .256.21 2.121 2.121 0 0 1 .208.577v.003c.018.112.036.223.056.335v.01l-.002.113-.005.238c.016.059.02.117.014.176a.818.818 0 0 1-.042.178c-.022.495-.022.496-.03.847l-.002.015c-.024.072-.025.075-.052.133l-.008.173-.012.26c0 .202-.007.407-.014.617l-.01.273c.03.083.03.178.02.273-.012.094-.036.19-.057.272l-.005.01-.025.047a.807.807 0 0 0-.07.148l-.012.333c0 .003-.005.02-.007.022a6.021 6.021 0 0 0-.209.404c-.023.09-.133.168-.206.22l-.03.022a.12.12 0 0 1-.023.01c-.077.01-.077.011-.156.012a.137.137 0 0 1-.024-.006Zm6.737.014a.578.578 0 0 1-.215-.102.083.083 0 0 1-.02-.032c-.029-.205.084-.36.194-.512a1.5 1.5 0 0 0 .118-.181l.005-.134-.034-.078c-.055-.126-.126-.288-.212-.315a.09.09 0 0 1-.027-.021 1.038 1.038 0 0 0-.104-.146.276.276 0 0 0-.079-.068.062.062 0 0 1-.024-.03l-.01-.007-.009-.011c-.118-.194-.118-.195-.243-.378-.034-.032-.067-.057-.098-.081a.648.648 0 0 1-.151-.15l-.004-.006-.028-.06c-.048-.102-.12-.256-.167-.278a.082.082 0 0 1-.026-.028.135.135 0 0 0-.004-.011l-.004-.013-.02-.017a.874.874 0 0 1-.203-.216l-.004-.014-.017-.096-.015-.095v-.01c.003-.102.025-.18.076-.234.05-.057.127-.084.235-.08l.02.006.014.007c.05.026.098.05.154.099l.009.009c.028.04.067.07.112.097.047.028.102.05.157.07a.07.07 0 0 1 .03.034l.091.066c.066.049.141.1.16.107a.053.053 0 0 1 .022.022.376.376 0 0 1 .135.1c.038.016.058.028.233.124.015.004.029.01.043.013.083.024.157.046.243.117a.06.06 0 0 1 .012.02.2.2 0 0 1 .042.058c.013.022.027.047.049.058l.015.012a2.961 2.961 0 0 0 .22.223.088.088 0 0 1 .015.026c.004.023.04.075.083.132a1.921 1.921 0 0 0 .195.22c.047.086.128.163.213.244.038.037.022.021.028.026l.007.01c.098.157.101.164.133.205a.747.747 0 0 1 .284.627l-.051.185a.198.198 0 0 1-.007.016l-.012.016a.485.485 0 0 1-.146.151.188.188 0 0 1-.077.049l-.005.002a3.564 3.564 0 0 0-.401.075l-.042.01h-.01c-.217.001-.392.062-.583.129l-.066.023-.008.002a1.12 1.12 0 0 1-.208.016l-.013-.002Zm-5.084-8.468v.003l-.04-.278a2.477 2.477 0 0 0-.048-.371 7.697 7.697 0 0 0-.078-.343c-.082-.061-.287-.154-.329-.225l-.017-.029c-.109-.067-.439-.151-.466-.247-.028-.1-.108-.187-.045-.302a.132.132 0 0 1 .016-.017c.14-.093.789-.089.996-.078.072.028.153.047.237.06a2.3 2.3 0 0 0 .255.02.492.492 0 0 1 .234.024c.076.024.151.063.225.104a.108.108 0 0 1 .02.021c.005.01.015.023.026.037.014.017.03.036.043.06l.005.013a2.6 2.6 0 0 0 .021.075c.048.17.132.47.068.621a.156.156 0 0 1-.015.02c-.067.052-.068.054-.075.104l-.011.074-.002.006a.935.935 0 0 0-.023.094.741.741 0 0 1-.057.183.15.15 0 0 1-.012.015c-.09.078-.093.11-.105.233l-.002.023-.001.004a.479.479 0 0 0-.012.14.62.62 0 0 0 .038.151l.002.01c.042.293.044.3.057.35a.687.687 0 0 1 .066.201c.01.07.007.142-.016.225-.002.1 0 .204 0 .307.002.114.004.228 0 .344l-.003.013c-.042.131-.107.23-.18.34a.898.898 0 0 0-.027.04.566.566 0 0 1-.132.117 1.121 1.121 0 0 1-.151.08c-.05.014-.096.032-.14.05-.122.05-.237.096-.377.043-.067-.01-.13-.018-.187-.017a.317.317 0 0 0-.154.036.186.186 0 0 1-.016.006c-.086.01-.158.008-.231.006l-.059-.001a.122.122 0 0 1-.023-.007c-.01-.005-.01-.005-.079-.019l-.01-.003-.144-.062a.429.429 0 0 1-.192-.09.583.583 0 0 1-.157-.18.129.129 0 0 1-.005-.023l.001-.045c.004-.157.006-.207.134-.294a.063.063 0 0 1 .018-.024c.033-.02.066-.04.104-.061l.013-.005c.118-.026.236-.029.356-.02.114.009.232.028.353.048a.461.461 0 0 0 .24-.072 3.323 3.323 0 0 0 .205-.327 2.48 2.48 0 0 0 .01-.037c.052-.221.118-.498-.041-.638a.13.13 0 0 1-.013-.017c-.063-.15-.065-.282-.067-.419v-.05Zm1.267 7.025-.04-.015c-.135-.048-.253-.188-.314-.335a.182.182 0 0 1-.003-.02c-.12-.052.039-.346.06-.417.012 0 .113-.157.164-.221l.108-.127.004-.003c.068-.064-.012-.095.048-.176l.02-.028a.07.07 0 0 1 .024-.015c.025-.035.066-.08.102-.122l.058-.066.067-.166c.089-.221.242-.41.346-.612.007-.03.02-.056.031-.083a.368.368 0 0 0 .027-.067c.035-.07.075-.136.115-.202.052-.088.105-.175.147-.27.014-.053.039-.088.075-.209.034-.115.015-.088.04-.18v.004l.01-.054c-.042-.012-.075-.175-.116-.19a.053.053 0 0 1-.016-.015c-.005-.013-.005-.013-.027-.04l-.089-.12c-.017-.007-.046-.14-.053-.154-.03-.033-.014-.036-.034-.058-.034-.032-.018-.02-.03-.032-.03-.043-.017-.094-.048-.138-.014-.009-.038-.063-.068-.056a1.812 1.812 0 0 1-.02.005c-.014.01-.026.022-.039.033l-.05.042-.006.005-.056.037a.608.608 0 0 0-.116.133 1.076 1.076 0 0 1-.357.226c-.178.066-.176-.009-.29.024-.116.03-.303-.062-.288-.078-.084-.062-.116-.263-.005-.433.012-.019.082-.052.132-.07.106-.036.17-.084.176-.124l.18-.2c.017-.046.174-.142.191-.186.103-.072.15-.132.115-.214l.002-.006c.025-.06-.014-.085-.024-.13-.011-.047-.06-.173-.103-.2l-.007-.006c-.016-.02.003.002-.01-.014a.65.65 0 0 1-.11-.17.101.101 0 0 1-.002-.014c.003-.146-.046-.076-.032-.224.007-.07.042-.19.047-.256l.002-.01c.024-.08.03-.046.053-.125l.037-.04c.013-.022.06-.061.065-.069.095-.092.134-.079.264-.08a.05.05 0 0 1 .024.01c.014.02.042.01.063.024.015.009.044.022.06.034l.005.006c.044.067.043.019.067.104a.745.745 0 0 1 .104.184c.02.05-.034.128-.004.17l.027.067c.007.023.021.023.037.044a1.493 1.493 0 0 0 .017.026c.02.047.04.093.056.141.016.048.059.094.066.15.059.103.005.058.065.163l.033.112c.023.085.054.144.082.234.028.088.025.026.056.113.014.021-.003.033.013.06.015.022.029.045.042.068.051.036.036.051.069.085l.005.008c.026.055.075.103.103.156.027.052.025.026.056.078l.013.023.016-.055a1.73 1.73 0 0 1 .084-.248 9.536 9.536 0 0 1 .068-.11c.062-.179.072-.364.082-.548a2.983 2.983 0 0 1 .038-.375c.04-.084.072-.17.098-.258.026-.087.049-.177.072-.268l.006-.014c.024-.038.05-.067.074-.097.023-.027-.052-.09-.03-.123a.539.539 0 0 0-.01-.313c-.091-.054-.08-.063-.167-.099-.09-.036.018-.114-.08-.123l-.01-.003a1.566 1.566 0 0 0-.458-.086c-.071.02-.075.02-.18.04h-.008a2.38 2.38 0 0 1-.472-.028.935.935 0 0 1-.435-.184.161.161 0 0 1-.012-.015 5.52 5.52 0 0 1-.018-.033c-.06-.116-.075-.144-.012-.27a.24.24 0 0 1 .013-.016l.05-.04c.014-.011.03-.024.051-.038a.108.108 0 0 1 .027-.01l.102-.001.096-.002a2.34 2.34 0 0 1 .35-.078c.178-.03.36-.06.522-.153l.013-.005c.078-.019.152-.04.226-.063.1-.029.198-.059.341-.094l.025-.01a.052.052 0 0 1 .013-.015c.09-.06.083-.465.08-.66v-.085c-.016-.22-.016-.226-.027-.515a1.656 1.656 0 0 0-.035-.083c-.018-.04-.035-.077-.047-.12-.037-.032-.055-.09-.064-.155a1.12 1.12 0 0 1 .007-.283l.005-.015a.342.342 0 0 1 .07-.083.866.866 0 0 1 .076-.063.508.508 0 0 1 .1-.027l.084-.02h.012a.598.598 0 0 1 .457.25c.012.003.03.023.033.036a.5.5 0 0 0 .029.082c.02.048.041.1.048.169.045.119.082.28.093.44.01.137 0 .274-.037.388a1.292 1.292 0 0 0 .06.418c.014.01.023.026.022.041 0 .005.015.003.034.016.039.027.09.053.118.065.016 0 .036 0 .055-.003a.206.206 0 0 0 .064-.018.147.147 0 0 1 .017-.005c.104-.01.314-.004.424.003l.133.006c.117-.03.218-.055.308-.032.097.025.171.1.22.27l.002.014v.015a.83.83 0 0 1-.017.163c0 .004-.01.02-.013.023-.036.037-.076.07-.116.104-.032.027-.064.053-.091.08-.074.107-.186.115-.287.122-.015 0-.03.002-.053.008-.092.028-.288.057-.364.08-.148.072-.15.073-.323.144a.397.397 0 0 0-.156.16 1.037 1.037 0 0 0-.085.236 1.54 1.54 0 0 1-.018.135 2.802 2.802 0 0 1-.031.148l-.004.011c-.005.008-.01.017-.01.02-.033.06-.047.087-.005.156a.154.154 0 0 1 .007.019c.015.102.023.204.026.307a5.083 5.083 0 0 1-.005.328l-.027.082c-.03.091-.061.186-.067.284a.037.037 0 0 0 .01.01l-.07.367-.096.418-.083.372-.071.27-.024.1-.021.037c-.055.094-.11.228-.129.277a.967.967 0 0 1-.016.089c-.007.03 0 .075-.01.105l-.004.01c-.024.04-.044.073-.061.108a.817.817 0 0 0-.046.111c-.019.105-.062.198-.09.305 0 .07.02.128-.06.239a.319.319 0 0 1-.006.015c-.03.05-.014.096-.04.162-.028.066-.059.173-.08.235l-.002.007c-.042.08-.073.18-.105.242a5.76 5.76 0 0 1-.086.271c-.032.093-.075.232-.114.324l-.003.007c-.039.059-.102.15-.16.232-.061.086-.116.164-.123.178l-.003.006c-.05.074-.078.113-.098.14l-.037.052c-.004.019-.029.038-.048.037-.002 0-.062.09-.1.146l-.03.044-.002.003a5.79 5.79 0 0 0-.119.139l-.01.01c-.092.06-.092.06-.212.124a.124.124 0 0 1-.014.005c-.11.02-.298.159-.395.157h-.019a.14.14 0 0 1-.016-.004Zm5.093-4.323c-.05-.044-.1-.092-.16-.16-.074-.086-.09-.171-.162-.26-.162-.169-.181-.244-.224-.275-.038-.027-.12-.2-.153-.235-.063-.069-.117-.158-.131-.167-.033-.072-.04-.08-.09-.154l-.025-.035c-.04-.042-.03-.072-.073-.112-.043-.04.001.01-.039-.055a.052.052 0 0 0-.019-.014c-.015-.024-.032-.05-.05-.075-.042-.06-.072-.09-.094-.141a.578.578 0 0 0-.035-.065l-.012-.036a.355.355 0 0 0-.072-.145c0-.016-.025-.047-.025-.062 0-.019-.019-.025-.02-.042-.005-.042-.022-.046-.027-.077a.49.49 0 0 0-.122-.192c-.051-.026-.124-.067-.186-.012l-.023.014c-.018.016-.038.035-.064.05a.323.323 0 0 0-.043.08.05.05 0 0 0-.024.03c-.001.005-.017.04-.03.07l-.02.042c-.028.104-.07.158-.067.258.004.098.007.082.024.19l.003.012c.015.051.03.173.069.206.032.033.012.089.051.115l.02.062c.022.017.006.097.065.145.046.037.056.04.083.078.008.025.026.048.045.086.05.078.049.086.068.144.033.06-.005.065-.039.143a.616.616 0 0 0-.068.086.777.777 0 0 0-.084.103c-.055.072.005.045-.07.098-.053.01-.105.138-.14.148-.016 0-.087.086-.106.085-.075.048-.09.08-.167.144l-.03.024a.396.396 0 0 0-.11.169c-.023.064-.047.043-.047.14l.005.02a.35.35 0 0 0 .083.109c.045.036.076.047.112.064l.013.01c.064.013.091.042.154.042a.624.624 0 0 0 .196-.037c.05-.008.081-.068.134-.078.066-.024.07-.104.147-.143.109-.066.071-.093.16-.182.065-.041.064-.03.124-.09a.71.71 0 0 0 .07-.066c.027-.052.052-.068.084-.122.008-.03.075-.112.086-.138a.632.632 0 0 0 .084.127s.024.04.06.078c.025.024.05.053.063.062.012.09.097.236.172.316.05.072.105.129.155.2.098.087.094.061.195.11.045.067.121.056.195.074.037.01.084.088.125.088.046 0 .194.041.228.025a.236.236 0 0 0 .111-.096c.05-.09-.048-.35-.123-.496a1.028 1.028 0 0 0-.21-.285ZM58.87 71.984V70.98h.165c.16.57.44.861.84.871.321-.01.486-.152.496-.428 0-.167-.21-.32-.63-.458-.572-.197-.857-.453-.857-.768.03-.542.33-.827.901-.857.19 0 .371.05.541.148.06.03.1.044.12.044.04 0 .08-.034.12-.103.01-.02.02-.034.03-.044h.15v.9h-.15c-.14-.502-.39-.757-.75-.768-.291.01-.44.133-.451.37 0 .177.205.33.616.457.59.188.886.464.886.828-.03.502-.34.778-.931.827-.21 0-.421-.04-.631-.118a.455.455 0 0 0-.15-.044c-.05 0-.1.044-.15.133a.779.779 0 0 0-.016.014h-.15Zm3.508-1.447h.857v-.754c.01-.177-.1-.26-.331-.251v-.147h1.352v.147c-.27-.01-.395.074-.375.251v1.802c-.02.178.105.261.376.252v.147h-1.353v-.147c.23.01.34-.075.33-.252V70.7h-.856v.886c-.01.178.1.261.331.252v.147h-1.337v-.147c.26.01.38-.075.36-.252v-1.802c.02-.177-.1-.26-.36-.251v-.147h1.337v.147c-.23-.01-.341.074-.33.251v.754Zm3.195 1.447H64.52v-.147c.21-.03.37-.192.48-.488l.857-2.009h.195l.992 2.245c.06.168.18.252.36.252v.147h-1.382v-.147h.15c.16.01.236-.035.226-.133a.88.88 0 0 0-.016-.119c.01.04.006.03-.014-.03l-.196-.427h-.84l-.121.295a.579.579 0 0 0-.06.236c.01.119.085.178.225.178h.196v.147Zm.51-1.063-.346-.798-.33.797h.677Zm2.549 1.063H67.58v-.147c.21-.03.37-.192.48-.488l.857-2.009h.195l.992 2.245c.06.168.18.252.36.252v.147h-1.382v-.147h.15c.16.01.236-.035.226-.133a.88.88 0 0 0-.015-.119c.01.04.005.03-.015-.03l-.196-.427h-.84l-.121.295a.576.576 0 0 0-.06.236c.01.119.085.178.225.178h.196v.147Zm.51-1.063-.346-.798-.33.797h.677Zm1.557-1.39v-.147h.931l1.293 1.773h.015v-1.33c.02-.167-.116-.265-.406-.295v-.147h.961v.147c-.25.03-.365.128-.345.296v2.156h-.36l-1.473-2.009H71.3v1.61c-.03.178.12.261.45.252v.147h-1.036v-.147c.27.01.395-.075.376-.252v-1.802c.02-.177-.11-.26-.39-.251Zm5.793 2.453H75.14v-.147c.23 0 .336-.03.316-.089a.273.273 0 0 0-.075-.177c0 .01-.005.005-.016-.015l-.345-.576-.376.546-.015.015a.357.357 0 0 0-.06.163c0 .088.115.133.346.133v.147h-1.097v-.147c.23-.03.41-.129.54-.296l.557-.738-.601-.975c-.13-.197-.27-.296-.42-.296v-.147H75.2v.147c-.21-.01-.3.025-.27.103 0 .04.02.094.06.163l.286.488.33-.473a.275.275 0 0 0 .075-.178c.01-.068-.08-.103-.27-.103v-.147h1.021v.147c-.24-.01-.435.099-.586.325l-.45.606.706 1.152c.06.128.19.202.39.222v.147Zm1.782 0h-1.396v-.147c.27.01.395-.075.375-.252v-1.802c.02-.177-.106-.26-.375-.251v-.147h1.396v.147c-.27-.01-.395.074-.375.251v1.802c-.02.178.105.261.375.252v.147Zm2.06-2.452v-.147h.932l1.292 1.772h.015v-1.33c.02-.167-.115-.265-.406-.295v-.147h.962v.147c-.25.03-.366.128-.346.296v2.156h-.36l-1.472-2.009h-.016v1.61c-.03.178.12.261.45.252v.147H80.35v-.147c.27.01.396-.075.376-.252v-1.802c.02-.177-.11-.26-.39-.251Zm3.224 1.152c.09-.817.541-1.265 1.353-1.344.801.089 1.247.537 1.337 1.344-.08.808-.526 1.246-1.337 1.315-.821-.069-1.273-.507-1.353-1.315Zm.722 0c0 .779.21 1.167.631 1.167.41.01.616-.38.616-1.167 0-.788-.206-1.177-.616-1.167-.42 0-.631.39-.631 1.167Zm4.832.724h.15c0 .394-.186.59-.556.59-.38.011-.571-.196-.571-.62.03-.442-.125-.654-.466-.635v.783c-.03.227.095.33.376.31v.148h-1.367v-.147c.27.01.395-.075.375-.252v-1.802c.02-.177-.105-.26-.375-.251v-.147h1.352c.64.01.966.24.977.694-.01.403-.32.61-.932.62v.015c.36.03.586.217.676.561.09.325.165.463.225.414.08.01.126-.084.136-.28Zm-1.443-1.625v.813c.47.01.697-.163.676-.517-.01-.325-.15-.498-.42-.517-.171 0-.256.073-.256.221Zm2.924 2.201h-.991v-.147c.25-.01.375-.129.375-.355v-1.728c.01-.158-.105-.232-.345-.222v-.147h1.111l.541 1.757h.015l.541-1.757h1.127v.147c-.27-.01-.396.074-.376.251v1.802c-.02.178.105.261.376.252v.147H91.63v-.147c.24.01.356-.075.345-.252v-1.92l-.736 2.32h-.33l-.707-2.32v1.817c0 .236.13.355.391.355v.147Zm3.706 0h-1.052v-.147c.21-.03.37-.192.48-.488l.857-2.009h.195l.992 2.245c.06.168.18.252.36.252v.147H94.75v-.147h.15c.16.01.235-.035.226-.133 0-.02-.005-.06-.016-.119.01.04.006.03-.014-.03l-.196-.427h-.84l-.121.295a.576.576 0 0 0-.06.236c.01.119.085.178.225.178h.196v.147Zm.51-1.063-.346-.798-.33.797h.676Zm3.78 1.063h-2.208v-.147c.27.01.395-.075.375-.252v-1.802c.02-.177-.105-.26-.375-.251v-.147h1.397v.147c-.27-.01-.395.074-.376.251v1.788c-.01.177.076.256.256.236.38-.03.646-.305.796-.827h.165l-.03 1.004Zm2.045-2.6h1.352v.148c-.28-.01-.411.074-.391.251v1.552c.02.315.2.487.541.516.441 0 .661-.216.661-.65v-1.373c.03-.168-.11-.266-.42-.296v-.147h.976v.147c-.26.03-.381.128-.36.296v1.344c0 .551-.336.827-1.007.827-.651-.01-.982-.25-.992-.724v-1.492c.021-.177-.1-.26-.36-.251v-.147Zm3.014.148v-.147h.931l1.293 1.772h.014v-1.33c.02-.167-.115-.265-.405-.295v-.147h.961v.147c-.25.03-.365.128-.345.296v2.156h-.361l-1.472-2.009h-.015v1.61c-.03.178.12.261.45.252v.147h-1.036v-.147c.27.01.395-.075.375-.252v-1.802c.02-.177-.11-.26-.39-.251Zm4.591 2.452h-1.397v-.147c.27.01.396-.075.375-.252v-1.802c.021-.177-.105-.26-.375-.251v-.147h1.397v.147c-.27-.01-.395.074-.375.251v1.802c-.02.178.105.261.375.252v.147Zm.325-2.452v-.147h1.277v.147c-.25-.01-.366.04-.345.148-.03-.04.135.487.495 1.58h.016c.019-.058.05-.142.089-.25.371-.956.521-1.38.451-1.271 0-.138-.105-.207-.315-.207v-.147h.871v.147c-.19.02-.305.103-.346.251l-.826 2.201h-.315l-.722-2.186c-.05-.197-.16-.286-.33-.266Zm5.102-.147.03.93h-.166c-.139-.502-.44-.753-.901-.753-.23-.02-.335.059-.315.236v.739c.331.03.531-.118.601-.444h.15v1.05h-.15c-.07-.326-.27-.473-.601-.444v.872c-.01.167.095.246.315.236.501-.01.821-.28.962-.812h.165l-.03.99h-2.434v-.148c.27.01.396-.075.376-.252v-1.802c.02-.177-.106-.26-.376-.251v-.147h2.374Zm3.029 2.023h.15c0 .394-.185.59-.555.59-.381.011-.572-.196-.572-.62.031-.442-.125-.654-.465-.635v.783c-.03.227.095.33.376.31v.148h-1.368v-.147c.271.01.396-.075.376-.252v-1.802c.02-.177-.105-.26-.376-.251v-.147h1.352c.641.01.967.24.977.694-.01.403-.32.61-.932.62v.015c.361.03.587.217.676.561.091.325.166.463.226.414.08.01.125-.084.135-.28Zm-1.442-1.625v.813c.471.01.696-.163.676-.517-.01-.325-.15-.498-.421-.517-.17 0-.255.073-.255.221Zm2.067 2.201V70.98h.166c.16.57.44.861.841.871.32-.01.486-.152.495-.428 0-.167-.21-.32-.63-.458-.572-.197-.857-.453-.857-.768.03-.542.331-.827.901-.857.191 0 .372.05.542.148.06.03.099.044.12.044.04 0 .08-.034.12-.103.01-.02.02-.034.03-.044h.15v.9h-.15c-.14-.502-.39-.757-.751-.768-.291.01-.441.133-.451.37 0 .177.205.33.616.457.591.188.887.464.887.828-.031.502-.341.778-.932.827-.21 0-.421-.04-.631-.118a.456.456 0 0 0-.15-.044c-.05 0-.1.044-.15.133a.37.37 0 0 1-.016.014h-.15Zm3.96 0h-1.397v-.147c.27.01.396-.075.375-.252v-1.802c.021-.177-.105-.26-.375-.251v-.147h1.397v.147c-.27-.01-.395.074-.375.251v1.802c-.02.178.105.261.375.252v.147Zm.415-2.6h2.479l.015.916h-.18c-.12-.492-.371-.738-.751-.738v2.023c-.021.178.12.261.42.252v.147h-1.502v-.147c.32.01.466-.075.436-.252v-2.023c-.381 0-.631.246-.752.738h-.18l.015-.915Zm2.774.148v-.147h1.277v.147c-.2 0-.301.04-.301.118 0 .03.021.084.061.163a.11.11 0 0 1 .015.044l.405.753.361-.709a.55.55 0 0 0 .06-.206c0-.109-.11-.163-.331-.163v-.147h.977v.147c-.23.02-.371.108-.421.266l-.556 1.108v.68c-.019.177.121.26.421.25v.148h-1.472v-.147c.32.01.466-.075.435-.252v-.694l-.495-.945c-.13-.296-.276-.434-.436-.414Z" clip-rule="evenodd"/></g><defs><filter id="a" width="154" height="157" x="0" y="0" color-interpolation-filters="sRGB" filterUnits="userSpaceOnUse"><feFlood flood-opacity="0" result="BackgroundImageFix"/><feColorMatrix in="SourceAlpha" result="hardAlpha" values="0 0 0 0 0 0 0 0 0 0 0 0 0 0 0 0 0 0 127 0"/><feOffset dy="16"/><feGaussianBlur stdDeviation="6.5"/><feColorMatrix values="0 0 0 0 0 0 0 0 0 0 0 0 0 0 0 0 0 0 0.03 0"/><feBlend in2="BackgroundImageFix" result="effect1_dropShadow_185_404"/><feBlend in="SourceGraphic" in2="effect1_dropShadow_185_404" result="shape"/></filter></defs></svg>