<svg xmlns="http://www.w3.org/2000/svg" xml:space="preserve" style="fill-rule:evenodd;clip-rule:evenodd;stroke-linejoin:round;stroke-miterlimit:2" viewBox="0 0 154 157"><path d="M76.999 25.282c21.326 0 38.719 17.393 38.719 38.718 0 21.325-17.393 38.718-38.719 38.718-21.325 0-38.718-17.393-38.718-38.718 0-21.325 17.393-38.718 38.718-38.718Zm0 .569c21.012 0 38.15 17.138 38.15 38.149 0 21.012-17.138 38.149-38.15 38.149-21.012 0-38.149-17.137-38.149-38.149 0-21.011 17.137-38.149 38.149-38.149Z" style="fill:#c6000d" transform="translate(-10.5 5.773) scale(1.13636)"/><path d="m80.002 42.347.002 13.59c0 .625.179.829.802.839.622.008.837-.273.871-.877l-.001-7.587 1.782-.017.003 7.65c.002.576.327.828.834.819.478.011.792-.312.78-.891l.043-12.349c.002-.618-.275-1.005-.837-1.176-.203-.126-.827-.032-.83 1.016l-.004 3.478-1.817-.006.007-4.311c.027-.694-.255-1.072-.783-1.161-.528-.089-.856.14-.852.983ZM56.393 56.769l4.09-.029c.645.049 1.279-.35 1.218-1.16l-.005-1.693c.016-.629-.007-1.003-1.009-1.265l-1.922.002c.465-.918.929-1.365 1.713-2.416-.154 1.816 1.425 1.478 1.389.528l-.011-2.972c-.005-.621-.202-.914-.858-.308a20.56 20.56 0 0 0-3.885 4.948c-.36.656.085 1.416.83 1.408l1.755-.019c.901-.009 1.033 1.52-.02 1.554l-2.293.011c.705-1.417-.914-1.968-1.559-.438-.429 1.018-.445 1.693.567 1.849ZM68.36 44.005l.009 11.404c.005.723.26 1.164 1.055 1.235.846.074 1.809.11 2.719.018.839.028 1.303-.286 1.341-1.325l-.003-12.939c0-.706-.5-1.011-1.383-.835-.884.176-2.308.551-3.003.856-.695.304-.735.803-.735 1.586Zm1.631.096c0-.762 1.814-1.165 1.814-.351l-.002 10.818c0 1.076-1.745 1.174-1.81.027l-.002-10.494ZM74.186 55.357c0 1.802 5.074 1.796 5.075-.072l.002-5.4c.001-1.114-1.706-1.177-1.701-.038l.022 4.841c.005.994-1.752.84-1.752-.099l.005-11.544c.001-.831 1.816-.667 1.818.028l.007 2.457c.025.828 1.662.817 1.672-.05l-.003-2.509c.031-1.898-.645-1.853-2.508-1.926-1.862-.074-2.662.198-2.642 1.506l.005 12.806ZM85.855 44.327l-.004 11.043c-.061.704.381 1.219 1.13 1.305.75.086 1.53.126 2.411.023.881-.103 1.268-.62 1.244-1.354l-.005-8.558c0-1.469-1.529-2.288-3.346-3.235-1.361-.71-1.43.159-1.43.776Zm1.504 1.846c.041-.938 1.717-.273 1.722.665l.043 7.759c-.068 1.153-1.88.892-1.776.05l.011-8.474ZM67.461 44.512l.003 10.923c.061.704-.422 1.135-1.213 1.221a9.613 9.613 0 0 1-2.327-.018c-.882-.103-1.268-.572-1.244-1.306l.005-8.361c0-1.403 1.626-2.239 3.345-3.235 1.319-.764 1.43.159 1.431.776Zm-1.504 2.017c-.041-.994-1.722-.33-1.722.664l-.002 7.434c.007 1.087 1.749.933 1.734.002l-.01-8.1ZM91.334 47.599c-.008-.577.556-.816.999-.505.443.311.619.936.629 1.347l-.002 6.326c-.001.719 1.01.884 1.01-.009l.001-4.075c0-1.261.825-1.132 1.173-.49.348.641.313 1.024.311 1.669v2.924c0 .576.923.683.935.018l.007-.4c.027-1.246 1.135-1.081 1.273.082l.043.356a2.112 2.112 0 0 1-.459 1.615c-.582.45-1.368.352-1.91.013-.329-.138-.42-.32-.603-.337-.183-.017-.181.038-.602.281-1.051.789-2.754.217-2.788-1.286-.035-1.504-.008-6.953-.017-7.529ZM55.334 71.021c-.058-1.071.884-1.174 1.308-.151.629 1.995 1.241 3.066 2.069 4.315.77 1.162 1.297 1.189 1.292-.017l-.016-4.199c-.006-.816 1.199-1.052 1.32.05v6.896c0 .625-.999 1.247-1.842.506-.842-.742-2.764-3.851-4.131-7.4ZM66.718 70.839c.041-.836 1.325-.884 1.373-.046v13.112c-.096 1.184-1.373.858-1.373-.414V70.839ZM68.506 71.056c.116-1.056 1.448-1.027 1.527.003l.986 9.938 1.583-9.893c.108-1.128 1.474-1.128 1.432.003l-2.549 14.256c-.466.98-1.219.472-1.294-.436l-1.685-13.871ZM77.447 70.232c.701 0 .709 1.374 0 1.374h-1.724v4.684h1.207c.741 0 .741 1.404-.007 1.406h-1.2v7.106c.005.517-.048.644.559.609l.959.053c.91.05.876 1.231-.051 1.222-.968-.009-1.659-.025-2.276-.108-.576-.058-.659-.363-.659-1.169l.001-13.803c-.023-.713.246-1.38.976-1.374h2.215ZM78.3 70.897c.024-.546.216-.638.868-.638h2.116c.563 0 .839.201.839.638v5.182c-.003.882-.776.965-.709 1.016.476.368.649.876.649 2.644v5.92c-.021.784-1.365.941-1.365.201v-6.131c.005-1.021-.146-2.176-.959-2.262v8.529c.003.693-1.385.984-1.439.112V70.897Zm2.426 1.214-.016 3.46c-.003.507-.971.518-.971-.021v-3.463c-.122-.618 1.038-.742.987.024ZM82.863 71.081c-.005-.485.376-.874.976-.849h1.958c.519.054.846.32.879.849l-.015 3.154c-.004.846-1.346.74-1.342-.035l.01-2.015a.567.567 0 0 0-1.13-.012l.001 2.175c.044.632.127.966.481 1.259l1.1.968c.607.413.84 1.068.815 1.799l-.006 5.246c-.018.564.035.924-.622 1.215a15.6 15.6 0 0 1-2.18.765c-.724.187-.9-.167-.902-.773l-.009-5.631c-.015-.912 1.297-.997 1.324-.217l-.006 4.654c-.012.623 1.087.591 1.087-.163l-.001-4.135c.041-.885-.02-1.308-.587-1.797l-1.109-1.006c-.401-.297-.688-.942-.725-1.519l.003-3.932ZM87.497 70.904c-.008-.922 1.426-.908 1.427.007l.019 11.793c.002 1.036-1.432 1.387-1.433.512l-.013-12.312Z" style="fill:#7f7f7f" transform="translate(-10.5 5.773) scale(1.13636)"/><path d="m90.247 71.624-.58-.006c-.744-.007-.764-1.374 0-1.374h2.561c.813 0 .769 1.383-.003 1.38l-.624-.002.017 8.967c.055 1.203-1.296 1.829-1.373.827l.002-9.792Z" style="fill:#7f7f7f" transform="translate(-10.5 5.773) scale(1.13636)"/><path d="M93.083 71.307c-.446-.969.689-1.516 1.228-.473l1.653 3.194c.592-1.084 1.039-2.539 1.335-3.249.295-.711 1.391-.887 1.158.396-.232 1.283-2.112 5.517-5.197 8.615-.924.707-1.597-.319-.79-1.106.739-.807 2.043-2.265 2.609-3.379-.837-1.624-1.549-3.029-1.996-3.998ZM62.073 70.874c.086-.896 1.232-.825 1.274.003l1.351 6.374v-6.383c-.043-.713 1.177-.949 1.308.074v12.07c-.023 1.261-.991.666-1.308-.735l-1.304-5.81v4.777c0 .882-1.318.672-1.318-.813l-.003-9.557Z" style="fill:#7f7f7f" transform="translate(-10.5 5.773) scale(1.13636)"/><path d="M86.178 71.92c-.427-.513-.165-.782.597-.593 1.558.941 2.143 2.325 1.436 4.107-.13.328-.54.69-.435.714 1.654.368 2.057 2.592.83 4.248-1.013 1.524-.873 2.739.458 3.787.264.537-.67.814-1.25-.004-.8-1.064-.759-2.311-.448-3.138.131-.37-.07-.62-.528-.797-1.284-.499-1.235-1.835-1.042-2.564.022-.288.368-.86 1.218-1.878 1.223-1.461.654-2.89-.167-3.412-.32-.264-.472-.26-.669-.47Zm.71 5.472c.35-.666 1.2-.363 1.517.145.317.815-.162 1.92-.546 2.1-.407.233-.88-.182-1.126-.674-.176-.658-.216-1.03.154-1.571ZM53.465 79.049c-.475 1.548-.329 3.217 1.176 3.43.707.06 1.683.12 2.39.182.559.16.528.763.263.849-.37.178-.711.134-1.128.108l-1.456.048c-.874.127-.934.675.045.821h2.046c.975-.068 1.475-.344 1.559-1.013.055-.27-.074-.589.139-.642.578-.146.833-.073 1.428-.09.623.007 1.686-.356 1.938-1.846.015-.375.086-1.05.102-1.425-.039-.55-.876-.409-.948.119-.015.427-.109 1.153-.123 1.58-.171.427-.5.65-.828.754-.434.102-.87.18-1.302.085-.392-.041-.563-.51-.215-.789.866-.202 1.33-.599 1.332-1.38-.039-.572-.229-.907-1.085-.98a8.969 8.969 0 0 0-1.854.09c-.837.133-1.489.366-1.454.972-.04.554.295.977 1.037 1.131.594.133.908.241.9.466-.007.226.014.44-.44.46l-1.846-.14c-.356-.069-.974-.304-.91-.973l.173-1.803c-.075-.54-.625-.514-.94-.014Zm3.097.653c.11-.09.166-.056.284-.08a6.095 6.095 0 0 1 1.622-.073c.649.058.551.654.33.85-.19.169-.44.18-.688.18-.122 0-.245 0-.367-.026-.322-.067-.623-.144-.902-.295-.395-.154-.388-.467-.279-.556ZM52.096 72.94c-.062-.415-.05-.764.074-1.16.147-.368.503-.33.712-.115.112.19.237.333.362.485.456.05.896.048 1.351.034.323.017.373.649.03.628l-.972.096c-.654.065-.9.911-.608.897.464.068 1.175.135 1.638.202.549.096.386.364-.008.387-.447.026-1.141.052-1.589.079-.343.035-.368.5-.058.732.189.337 1.018.494 1.65.6.451.095.414.4.138.44l-2.108-.021c-.418-.073-.672-.306-.76-.7 0-.246-.218-.441-.32-.56-.284-.248-.294-.528-.118-.827.23-.327.586-.871.586-1.196ZM61.65 72.646c-.397-.064-.47-.38-.02-.442.578.02 1.113-.224 1.342-.549.388-.4.628-.302.786.075.147 1.124.027 2.237-.281 3.341-.28.682-.685 1.162-1.272 1.345-.312.071-.627.042-.943-.036-.52-.17-.575-.336-.161-.497a2.275 2.275 0 0 0 1.184-.373c.361-.427.284-.757-.232-.987-.307-.091-.627-.11-.958-.115-.453-.03-.467-.43-.073-.525l1.485-.13c.62-.113.675-.828.278-1.03-.318-.137-.686-.12-1.134-.077Z"/><path d="M56.459 71.959c-.165-.296.074-.576.356-.48.275.194.565.354.87.487l.935-.09c.23-.025.362-.166.533-.296.273-.176.52-.043.33.264-.129.351-.284.494-.142.71.726.603.447 1.51-.018 2.113-.422.394-.502.732-.129 1.02l.575.455c.261.316.144.615-.309.458-.333-.093-.99-.67-1.58-.495-.335.203-.78.719.386.693 1.164-.028 2.795.096 3.81.19.901.187 1.432.515 1.489 1.42.107 1.255.098 2.8-.05 4.021.067.554-.798.723-.736.07l.117-3.61c-.026-.521-.137-.91-.822-1.12-3.02-.34-6.046-.28-9.067.139-.458.162-.784.427-.81 1.008l-.069 3.066c.07.983-.713 1.105-.757.483l-.003-3.452c-.128-.906.401-1.628 1.86-1.99l1.523-.05c1.04-.024 1.959-.332 2.144-1.178.055-.442-.061-.79-.505-.946-.644-.534-.673-.992-.023-1.42.583-.528.742-.885.092-1.47Zm1.868 1.025c.678.004.82.33.775.74-.08.746-.476 1.054-1.095 1.056-.158 0-.331-.019-.516-.056-.338-.103-.624-.289-.764-.706-.03-.48.528-.855 1.167-1.001.165-.023.308-.033.433-.033ZM64.716 79c.178.828.799.882.933-.023.022-3.389-.039-5.324 4.063-5.21.447-.075.629.104.548.536.151 3.077-.574 4.026-.686 4.307-.66 1.637-3.356 3.884-4.5 4.42-.633.294-.278 1.057.364.815 1.936-.962 3.12-2.143 4.202-3.476.33-.408.507-.899.746-1.367.201-.42.477-.393.718-.056.051.174.218.524.82 1.439.936 1.42 2.17 2.943 2.961 3.433.792.49 1.104-.194.53-.683-1.236-1.05-3.352-3.803-3.829-5.61-.278-1.51-.312-2.034-.21-3.162.084-.565.253-.554.639-.593 3.205-.32 3.8 2.073 3.464 4.938.054.674.648 1.06.896.125.037-1.015.011-1.917-.154-2.934-.297-2.1-1.303-2.701-3.305-2.904-1.634-.165-1.453-.776-1.529-1.482-.065-.596-.862-.521-.976-.178-.153.814-.084 1.548-.968 1.639-1.366.1-3.215.214-3.93 1.449-.881 1.781-.719 3.232-.797 4.577ZM77.611 71.933c-.544-.446.027-.915.833-.63 1.584.763 2.178 2.147 1.425 4.28a.489.489 0 0 0-.036.466c1.534 1.117 1.037 2.255-.019 4.143-.905 1.62.423 3.333 1.3 3.78.263.537.037.753-.757.406-.946-.642-2.07-1.783-1.803-3.656.056-.397.256-.69-.16-.778-1.251-.493-1.382-1.211-1.205-2.289.06-.364.445-1.553 1.478-1.935.86-1.285.672-2.675.01-3.242-.63-.537-.76-.296-1.066-.545Zm1.594 4.946c.28-.008.497.344.59.77.151.693.137 1.548-.93 1.648-.286 0-.665-.134-.769-.453-.211-.648-.052-1.057.322-1.595.201-.291.595-.366.787-.37ZM81.885 71.955c-.37-.723.133-.842.895-.652 1.557.763 2.103 2.147 1.424 4.28a.492.492 0 0 0-.036.466c1.558 1.303 1.495 2.536-.264 4.671-.336 1.277-.04 1.901 1.178 3.28.263.538-.081.753-.877.408-1.092-1.02-1.545-2.414-1.198-3.582.159-.33.096-.62-.32-.77-1.118-.581-1.337-1.347-1.298-2.169.032-.654.604-1.496 1.379-1.953 1.171-1.072.878-3.184.007-3.505-.35-.217-.731-.217-.89-.474Zm.67 5.606c.495-1.01 1.732-.892 1.823.415.056.793-.146.987-.436 1.204-.6.45-1.325.331-1.517-.373-.068-.646-.08-.67.13-1.246ZM96.793 83.053l.034-.383c-.418-.363-.97-.603-1.57-.73-.437-.096-.783.288-.473.572.387.192 1.933.726 2.009.541Zm-2.67-.723c-.321-.517.229-.548.945-.688.646-.145 1-.75 1.016-1.193l.12-2.173c-.045-.349-.22-.7-.738-.758-.495-.058-.886-.044-1.04-.27-.151-.222.268-.18.892-.444.58-.244.861-1.54-.037-1.666-.355-.05-.352-.068-.704-.033-.244.023-.414-.157-.388-.554-.015-.488.202-.653.662-.67.492-.016 1.04-.45 1.03-1.022l-.015-.83c-.008-.416-.683-.43-.6.155l-.083.659c-.058.466-.96.523-.947.14l-.186-1.624c-.036-.579-.778-.524-.813.234l-.06 1.43c-.064.39-.897.456-1.108.128a4.112 4.112 0 0 1-.135-1.061c-.078-.408-.526-.4-.668.085-.158 1.01-.073 1.742.654 1.867.226.038.883.107 1.176.175.363.084.135.485.304.68.169.194.213.413-.479.465a1.607 1.607 0 0 1-1.382-.621c-.555-.287-1 .09-.548.637.214.266.347.285.606.507.438.26.339.474-.047.738-.388.262-.898.07-1.239.225-.357.153-.258.635.274.688.984-.034 1.623-.112 2.071-1.05-.06-.727 1.323-.478 2.007-.759.686-.28.575.59-.077.705-.985.13-1.206.319-1.295 1.04-.306.006-.695.04-1 .047-.342.096-.646.36-.813.884-.039.712-.054 1.32-.037 2.032.158.84.644 1.15 1.402 1.217.306.058.53-.023.509.328-.058.295-.217.373-.464.054-.178-.22-.446-.174-.704-.088-.579.101-.967.329-1.366.55-.498.228-.238.556.24.562.852-.305 1.411-.412 1.323-.079-.093.354-.69.558-1.282.714-.422.177-.269.57.228.584.74-.02 1.484-.422 2.165-1.075.092-.214.235-.21.43-.025.139.394 2.095 1.78 2.544 1.013.178-.306-.188-.391-.473-.455-1.033-.232-1.551-.888-1.87-1.405Zm-.481-1.11c.202.001 1.169-.121 1.01-.321-.07-.09-.648-.32-.801-.43a.687.687 0 0 0-.068.005c-.107.102-.638.256-.764.452-.016.348.42.293.623.294Zm-.42-2.746c.034-.18-.342-.246-.537-.246a.548.548 0 0 0-.074.005c-.198.036-.511.326-.537.482.004.248.069.454.247.442.35-.024.997-.242.9-.683Zm1.942.6c.27.026.264-.297.18-.631-.007-.183-.401-.358-.656-.358a.653.653 0 0 0-.099.006c-.297.009-.454.2-.369.388.063.182.141.322.473.418.007.003.463.178.471.178Zm.098 1.352c.193-.002.396-.37.226-.494-.054-.041-.854-.541-.978-.64-.229-.18-.427.252-.291.477.108.175.628.501.797.561.056.012.192.096.246.096Zm-2.868.058c-.175 0-.374-.135-.37-.41.004-.213.612-.36.802-.513.058-.017.153-.095.212-.095.283 0 .398.094.363.299-.02.265-.672.717-.933.713-.004 0 .017.006-.074.006ZM96.94 72.66c-.132-.515.165-.699.465-.347.237.196.094.608.375.724.398.164.88-.13.81-.535.009-.423.076-.756.085-1.178-.02-.545.864-.617.834 0 .007.367.05.733.058 1.099.094.286.203.454.5.45.453.092.785-.128.78-.452l-.083-.476c.096-.593.488-.409.598.01.137.306.172.61.093.95-.086.374-.406.681-1.035.696-.52-.003-.845.086-.834.504l-.101.7c-.06.447-.66.388-.777.048.075-.668-.053-1.236-.803-1.038-1.102.06-.946-.91-.964-1.155Z"/><path d="M97.25 76.084c-.453-.15-.473-.443-.058-.715.434-.207 1.212-.075 1.885.118.737.212.945.518.93 1.231-.008.395.035.751-.036 1.149-.11.612 1.134.548 1.342.067.15-.342.242-.718.156-1.402.116-.696.317-.678.59-.189.127.545.175.948.075 1.516-.104.74-.783 1.195-1.62 1.23-.572.022-.734.596-.283.858 1.268.453 1.677 1.344 1.843 2.74.075.939.038 1.441-.077 1.59-.219.282-.537.095-.587-.349.06-.32-.004-3.367-1.544-3.083l.006 3.401c-.014.647-.814.56-.773-.099-.05-1.032.017-1.843-.033-2.876-.008-.28-.322-.427-.59-.312-.827.211-1.224 1.545-1.254 3.09-.066.44-.508.446-.575 0-.102-1.258.18-2.564 1.074-3.524.237-.254.646-.372 1.176-.616.331-.392.213-.787-.4-.848-.88.064-1.653-.127-1.662-1.264-.039-.257.218-1.255.651-.66l.21.874c.054.448 1.235.399 1.334.106.098-.293.066-.723.051-1.132.02-.294.027-.58-.531-.73-1.09-.296-1.081-.198-1.3-.171ZM85.708 112.327l2.183-.824c.706-.267 1.336-.386 1.77-.308.434.077.71.343.934.748.336.603.341 1.2-.261 1.573.363-.06.632.018.94.445l.917 1.768-1.291.552-.676-1.356c-.318-.636-1.21-.257-2.081.058l.82 1.938-1.24.487-2.015-5.081Zm1.536.428.506 1.255c.711-.223 2.321-.635 1.762-1.466-.428-.636-1.735.011-2.268.211ZM37.83 87.024c.215.91.527 1.525.954 1.825.42.295.927.262 1.598.087l3.27-.852-.339-1.516-3.271.818c-.441.11-.761.114-.961.01-.178-.095-.302-.29-.378-.59-.07-.3-.04-.535.092-.704.142-.166.425-.301.85-.407l3.27-.817-.339-1.517-3.27.818c-.685.172-1.213.36-1.46.858-.22.443-.218 1.11-.015 1.987ZM40.471 95.161l5.032-1.847-.472-1.369-3.254 1.193 2.63-2.893-.532-1.482-5.032 1.794.473 1.376 3.092-1.136-2.493 2.766.556 1.598ZM116.262 84.203l-5.28-.917-.276 1.423 3.415.593-3.724 1.19-.28 1.55 5.253.963.278-1.428-3.245-.564 3.543-1.148.316-1.662ZM107.678 104.077l.286-.298-4.098-3.454-.929 1.06 2.65 2.234-3.817-.849-1.036 1.189 4.099 3.454.926-1.059-2.518-2.122 3.638.794.799-.949ZM46.4 97.21l.896 1.665.858-.51-2.623-4.69-.858.509.96 1.625-3.75 2.043.716 1.452 2.209-1.228 1.592-.866ZM50.123 100.372c-.615-.884-1.15-1.265-1.698-1.388-.502-.113-1.177.132-2.01.708-.806.558-1.288 1.157-1.486 1.78-.164.52.022 1.107.68 2.052.652.938 1.086 1.215 1.58 1.227.602.013 1.334-.265 2.196-.866.815-.57 1.277-1.128 1.364-1.68.08-.503-.045-.995-.626-1.833Zm-4.036 1.647c.157-.267.567-.636 1.23-1.11.62-.433 1.073-.617 1.357-.547.267.051.503.225.712.524.214.306.29.584.229.834-.075.24-.42.57-1.04.992-.688.491-1.198.748-1.53.772-.247-.004-.482-.162-.7-.474-.283-.405-.369-.734-.258-.991ZM53.18 109.006l-.448 1.314 1.161 1.093 1.916-5.458-1.083-1.013-5.178 2.578 1.162 1.015 1.23-.623 1.24 1.094Zm.73-2.076-.41 1.162-.692-.612 1.102-.55ZM113.348 90.96l1.381-.142.482-1.491-5.76.533-.485 1.353 4.502 3.633.482-1.445-1.079-.86.477-1.581Zm-2.19.2 1.226-.11-.267.883-.96-.773ZM59.777 111.269l.634-1.24 2.824 1.443.41-.798-4.296-2.197-2.441 4.772 1.472.753.99-1.934 1.979 1.012.409-.8-1.981-1.011ZM64.574 116.708c.855.304 1.521.362 2.003.175.466-.204.82-.628 1.06-1.277l1.13-3.17-1.556-.556-1.13 3.17c-.153.43-.327.697-.52.81-.174.098-.401.098-.685.001-.282-.1-.457-.251-.522-.451-.055-.208-.01-.515.137-.926l1.13-3.17-1.556-.555-1.131 3.17c-.237.663-.226 1.232.035 1.708.247.415.782.772 1.605 1.07ZM69.555 112.459l-1.217 5.22 3.715.872.204-.875-2.183-.502 1.013-4.346-1.532-.37ZM73.319 113.144l-.589 5.327 3.792.425.1-.892-2.306-.253.49-4.435-1.487-.172ZM92.75 109.421c-.924.554-1.383 1.014-1.544 1.551-.146.494.053 1.183.57 2.053.503.842 1.068 1.364 1.676 1.603.508.199 1.15.101 2.137-.49.98-.587 1.383-1.086 1.428-1.578.054-.6-.173-1.349-.716-2.25-.513-.852-1.039-1.351-1.582-1.474-.497-.114-1.094.061-1.97.585Zm1.369 4.138c-.255-.175-.595-.608-1.023-1.303-.39-.647-.544-1.11-.455-1.39.07-.263.259-.487.571-.675.32-.192.604-.25.848-.172.234.09.54.46.92 1.105.442.719.664 1.245.666 1.578-.02.248-.193.47-.52.667-.423.255-.758.318-1.007.19ZM84.478 116.384c-.006.007-.003.018.008.033a.55.55 0 0 1 .013.105c-.01.088-.075.205-.195.35-.217.228-.502.381-.849.463-.326.076-.608.014-.847-.189-.226-.218-.413-.62-.557-1.205-.197-.807-.232-1.369-.105-1.685a.962.962 0 0 1 .666-.534c.302-.07.545-.056.727.041.173.095.291.257.354.487l1.556-.364c-.117-.501-.44-.85-.97-1.047-.461-.177-1.084-.175-1.87.008-.735.172-1.316.512-1.74 1.017-.377.469-.433 1.28-.162 2.438.203.874.584 1.47 1.136 1.787.495.278 1.153.244 2.017.12.432-.062.83-.415 1.126-.696l.107.434 1.321-.334-.627-2.687-2.703.632.203.873 1.33-.31.061.263ZM94.993 108.509l1.135-.906 2.655 2.015-1.545-2.86.986-.813 2.7 2.056-1.416-3.049 1.06-.9 2.388 5.42-.89.8-3.27-2.705 1.812 3.767-.81.653-4.805-3.478ZM105.842 97.667l.9-1.503 3.819.874-2.972-2.634.832-1.496 4.762 2.278-.486.974-2.945-1.136 2.49 2.098-.719 1.073-3.295-.596 2.897 1.765-.539 1.118-4.744-2.815ZM84.284 38.32c-.498-.036-.465-.395-.06-.346.114.037.343-.085.373-.151.456.022.975-.12 1.035-.389.121-.128.385-.115.393.002-.154 1.106 1.333 1.26 2.178.624.284-.157.525-.117.533.134-.018.32.158.458.405.53.306.343.217.526-.105.645-.358.08-.762.107-1.172.033-.473-.12-.703.155-.237.383.309.099.586.236.832.415.24.228.207.37-.057.398a5.406 5.406 0 0 1-1.244-.123c-.216-.001-.27.156-.223.321.018.202.459.307.899.41.518.146.553.352.257.597-.407.406-.503.691-.145.904.26.138.445.29.51.518.065.576.471 1.111 1.252 1.266 1.025.485.471 1.682-.48 1.555-.398-.092-.775-.514-1.146-1.335a5.317 5.317 0 0 1-.336-.717c-.182-.521-1.053-.5-1.283-.18-.278.314-.48.709-.658 1.135-.063.288-.087.517.01.695.264.092.685.317.913.491.386.367-.35.783-.667.62-.218-.146-.42-.474-.564-.552-.564-.159-1.221-.3-1.923-.242-.16.023-.613-.045-.938-.17-.24-.14-.361-.338-.151-.641.172-.33.602-.252.861-.59.22-.38.325-.46.453-.78.094-.166.181-.529.222-.682.02-.552-.121-.653-.928-.482a8.241 8.241 0 0 1-1.323.413c-.349.07-.718.135-1.036.07-.835-.19-.772-.614.021-1.13.186.01 1.102.027 1.713-.048.444-.136 1.07-.253 1.337-.637.012-.207-.277-.439-.266-.644-.047-.423.116-.463.728-.346l.89.042c.712.034.688-.554.193-.595l-.425-.001c-.596.04-.75-.446-.173-.45l.656-.039c.405-.06.403-.86-.258-.916l-.866-.016Zm.202 6.769c.183-.005.408-.038.46-.072.212-.28.134-.472-.095-.586-.142-.067-.377-.104-.585-.098-.077.002-.156.01-.239.024-.126.144-.215.422-.07.608l.53.124Zm.791-1.285c-.252.006-.707-.286-.722-.51.06-.108.213-.213.408-.22.08-.001.426.095.519.136.009.004.004.02.013.025.685.106.34.725-.082.61-.008.001-.043-.052-.05-.05a.573.573 0 0 1-.086.01Zm.362-.969a.143.143 0 0 0 .012.004c.433.094.5-.172.506-.427-.083-.16-.353-.196-.555-.24-.17-.019-.565.055-.64.145a.228.228 0 0 0-.043.077c.034.315.536.4.714.441h.006Zm.138-1.008c.605-.04.872-.16.698-.39-.11-.138-.224-.234-.413-.266-.365-.221-1.025-.065-.98.382l.154.108c-.04.093.284.173.541.166Zm-1.29 3.262c-.209.005-.435-.024-.53-.124l.53.124ZM95.959 43.516c-.33-.45.058-.957.574-.66.443.447.872.69 1.217.84.745.222 1.304.583 1.89.964.336.307.062 1.165-.405.686-.289-.236-.566-.378-.939-.345-.66.04-.97.398-.8 1.017.164.289.467.586.866.889.341.28.116.617-.211.482-.537-.344-.974-.335-1.345-.085-.221.179-.148.55.195 1.094.318.463.552.942.73 1.428.215.63.531 1.26 1.096 1.882.539.44.36.698-.402.74-.447.034-.837-.012-1.072-.275a3.387 3.387 0 0 1-.733-1.604l-.223-1.965-.11-.92c-.071-.444-.308-.575-.678-.447-.733.413-1.493.637-2.285.633-.704.022-1.179-.205-1.429-.778-.067-.446-.053-.766.222-.817.328-.08 1.166.044 2.211.214.801.02 1.263-.063.935-.57-.3-.255-.58-.56-.833-.934-.35-.603.078-.971.494-.802.213.099.617.488 1.037.901.493.36 1.185-.192.97-.645a4.22 4.22 0 0 1-.972-.923ZM101.47 52.887c.09.397.608.878 1.365 1.405.538.221.834.011.92-.424-.069-.684.062-.978.405-.976.5-.011.7-.114.587-.58.006-.328.12-.616.312-.846.344-.346.362-.62-.21-.683-.445-.008-.924-.04-1.429.013-.294.017-.411.205-.309.594.165.594-.005.962-.393.931-.59-.03-1.284.031-1.248.566ZM103.867 55.062c-.278.24-.281.6-.064.941a105.498 105.498 0 0 0 1.617 3.623c.102.292.363.484.982.397l.934-.202c.493-.25.32-.438-.1-.536-.24-.097-.62-.453-1.048-.904-.428-.454-.697-.907-.907-1.544a2.517 2.517 0 0 1-.336-.64c-.058-.75.041-1.248.328-1.444.533-.335 1.064-.375 1.59-.06.23.136.25.492.106.883l-.268.314c-.256.309-.17.443.26.403l.839.024c.645.09.675.626.264.809l-.659.224c-.611.357-.368.743.443.77a2.521 2.521 0 0 0 1.423-.638c.342-.307.398-.664-.178-1.154-.401-.396-.441-.793-.148-1.07.302-.317.414-.505.075-.541l-.64-.026c-.59-.068-.975-.267-1.059-.66v-.482c.06-.34-.662-.612-1.327-.684-.201-.022-.368-.027-.375.236-.126.753-.717 1.266-1.752 1.961ZM112.261 62.424c.156-.442.424-.492.645-.203.256.958.606 1.842 1.13 2.44.227.204.362.368.443.585.197.586.037.85-.48.795a18.526 18.526 0 0 0-.941-1.225 4.084 4.084 0 0 1-.687-1.679l-.11-.713ZM110.866 64.403c-.136.306.28.657.435.674.292.048.493.018.758-.293.122-.289-.11-.85-.41-.826-.278.177-.632.184-.783.445ZM112.231 67.066c-.014-.251.127-.379.312-.255.136.147.658.288.561.534-.098.251-.262.351-.637.267-.207-.083-.201-.309-.236-.546Z"/><path d="M109.978 61.496c-.377.391-.847.686-1.39.8-.73.064-1.022.281-.68.727a7.407 7.407 0 0 1 1.205 2.848l.41 2.056c.018.497.331.993.857 1.318.304.17.617.301.946.333.505.041.692-.224.428-.607-.882-.826-1.513-1.602-1.528-2.348-.051-1.11-.608-2.285-1.029-2.872-.094-.313.044-.903.238-.97.48-.144.851-.382 1.09-.736.108-.511-.164-.822-.547-.549ZM115.806 72.35c.031.17.264.302.486.36.095.025.08.128.124.178.294-.017.42-.121.29-.436-.096-.187-.234-.397-.437-.456-.27-.03-.468.053-.463.355ZM116.393 75.063c-.134-.433-.05-.55.194-.556.302.035.539.17.646.33.16.251-.042.507-.329.523-.22-.082-.44-.137-.511-.297ZM116.546 76.933c-.063.285.112.492.316.482.192-.008.393-.16.53-.37.105-.24-.054-.39-.405-.437-.193.03-.361.103-.44.325ZM117.281 72.487c.16-.524.36-.537.587-.264.299.498.467 1.044.7 1.565.227.415.76.496.505.91-.134.16-.195.292-.381.488-.013.57.044 1.027.03 1.564-.216.726-.561.863-.89.294-.07-.726-.044-1.494-.014-2.289a7.136 7.136 0 0 1-.537-2.268ZM114.447 72.996c.094-.519.506-.525.731-.15.103.484.358 1.142.427 1.856.031.608.1 1.23.131 1.838.037.538-.22.588-.522.66-.855.271-1.269.476-1.355.715-.16.35-.158.773-.098 1.275.017.787-.249 1.168-1.065.581-.307-.29-.34-.745-.113-1.31.169-.475.469-.803.876-1.02.505-.25 1.057-.457 1.48-.77.363-.27.229-1.16.128-1.744-.113-.657-.634-1.07-.62-1.93Z"/><path d="M113.777 76.31c-.082-.098-.027-.298.108-.375.17-.047.301.007.39.16.094.162.102.251-.106.351-.161.028-.26.002-.392-.136ZM113.431 72.512c.285.166.253.37.032.492-.216.156-.467.148-.73.225-.136.054-.254.46-.12.683.11.206.383.298.555.437.196.197-.035.449-.18.568-.2.334-.187.632-.184.99-.011.268-.312.35-.611.296-.4-.071-.593.152-.638.633-.02.246-.04.405-.038.65.012.41-.36.717-.847.148-.093-.216-.093-.52.228-.955.169-.178.256-.297.3-.581.081-.497-.009-.931-.35-.933l-1.002.013c-.254-.026-.246-.148-.015-.326.152-.143.417-.323.629-.437.406-.177.352-.495-.016-.766-.299-.34-.553-.72-.656-1.151-.171-.587-.033-.67.36-.547.38.248.73.694 1.03 1.46.297.429.572.24.576-.021-.048-.595.198-.844.58-.954.326-.121.784-.078 1.097.076ZM38.077 75.992c-.256-.12-.444-.405-.178-.754.246-.214.484-.194.713-.087.169.164.313.24.553.19.163-.03.292-.126.452-.205.425-.209.72-.84.857-1.143.436-.63.42-.708.703-1.383.22-.68.351-1.203.702-1.799.25-.354.483-.368.684-.206.345.182.59.718.318 1.724-.318.881-.947 1.8-1.94 2.758-.598.422-.75.838-.504 1.262.475.814 1.07 1.546 1.737 2.344.384.48.56.876.237 1.177-.155.179-.37.11-.525-.113-.066-.419-.087-.575-.517-.84-.301-.205-.62-.554-.877-.91-.642-.883-1.593-1.713-2.415-2.015ZM38.787 65.854c.066-.42.115-.728-.042-.944l-.352-.392c-.275-.265-.166-.538.186-.622.7-.067 1.078-.308 1.113-.886.242-.622.516-1.183.717-2.084.052-.375.149-.576.289-.822.2-.368.558-.29.644-.064.134.331.436.592.79.808.255.285.26.45-.041.575l-.666.12a1.075 1.075 0 0 0-.762.542c-.567 1.256-1.048 2.53-1.393 3.999-.07.63-.072.99.329 1.22.196.142.719.317.787.522.162.268.006.39-.345.404-.487.044-1.207-.018-1.423-.271-.323-.317-.365-.56-.195-.982.21-.204.337-.601.364-1.123Z"/><path d="M41.354 62.793c.35-.211.715.027.517.355.032.258-.113.605-.34.994-.188.25-.269.701-.275 1.29.044.361-.091.523-.307.594-.2.102-.338-.006-.47-.268.07-.206.11-.388.082-.52-.05-.164-.024-.406.116-.76.158-.363.194-.624.214-.909.021-.435.308-.792.463-.776ZM42.574 63.13c-.207.26-.314.769-.174 1.29.101.543-.077 1.26-.454 1.901-.162.274-.262.625-.333 1.012-.01.297.32.47.652.28.159-.154.296-.319.408-.55.365-.235.635-.206.844.165.162.596.221 1.257.233 1.95.025.316.135.483.332.5.469.142.67.01.603-.399.002-.649-.035-1.319-.16-2.036-.012-.368-.183-.707-.707-.982-.087-.109-.293-.206-.618-.29-.389-.263-.542-.575-.183-.994.418-.145.743-.115 1.026-.004.657.37 1.106.33 1.413.01.165-.425.476-.883.995-1.385.32-.423.547-.704.718-.991.35-.348.311-.956.115-1.416-.299-.635-.675-.7-.936-.07-.01.455-.604 1.53-.523 2.041-.155.739-.546 1.228-1.282 1.251a1.32 1.32 0 0 1-.811-.358c-.219-.118-.407-.27-.432-.49-.02-.26-.01-.413-.074-.507-.22-.256-.413-.262-.652.073ZM45.117 53.603c-.077-.53.108-.93.617-.97.756-.085 1.36-.156 2.048-.287 1.052-.2 1.845-.485 2.255-.89.38-.308.825-.555 1.184-.565.263-.02.513.012.754.084.34.085.303.409.096.842-.343.45-1.192.698-2.27.853a10.387 10.387 0 0 0-2.836.328c-.441.027-.716.226-.708.737-.03.239-.045.672.019 1.12.054.295.208.371.43.298.17-.061.318-.137.436-.237.596-.51 1.115-1.568 1.361-1.57.592-.12.747.01.532.406-.383.308-.592.558-.739.785-.506.73.514 1.446.71.65.226-.471.497-.73.759-.686.569-.042.73.122.54.452-.373.354-.59.684-.698 1-.15.428-.06.832.377 1.201.311.158.543.35.721.565.27.442-.27.599-.813.318a5.971 5.971 0 0 0-1.084-.6c-.278-.024-.458-.246-.508-.578a1.476 1.476 0 0 1 .038-.68c-.006-.27-.26-.452-.604-.34-.355.164-.404.234-.798.304-.417.09-.72.368-.851.836.02.916-.022 1.748-.098 2.533-.074.434-.475.557-1.052.147-.24-.357-.275-.7.014-1.06.24-.498.375-1.005.405-1.522-.021-1.161-.031-2.312-.237-3.474ZM54.188 46.57c.138-.343.072-.568.029-.872-.076-.148-.152-.338-.227-.487-.072-.852.18-1.147.754-.971.332.195.622.434.955.63.378.166.811.123 1.267-.016.545-.5 1.675-.985 2.278-1.458.347-.367.598-.276.755.272-.02.816-.269 1.157-.67 1.173-.443-.076-.804-.082-.981.071-.857.448-1.819.781-1.824 1.157-.195.824.147 1.11 1.054.943.63-.071 1.063-.785 1.58-.814.583-.072.72.119.684.543-.063.928.077 1.335.357 1.386.559.329.33.934-.27 1.316-.461.324-1.421.533-1.853.885.07.41-.947 1.206-1.352 1.001-.419-.153-.708-.542-1.04-.53-.292-.001-.734-.397-.897-.642-.158-.453-.138-.767.084-.915.238-.3.523-.615.913-.915.201-.754-.074-1.27-.784-1.1-.605.043-1.042 1.358-1.496 1.53-.19.59-.484.986-.94.814-.604-.457-.6-1.077-.113-1.515.565-.891 1.4-.853 1.737-1.487Zm2.003 2.948c.272-1.009 1.517-1.739 2.497-1.49.508-.005.617.69.072.886-.423.165-1.102.663-1.373 1.019-.8.48-1.545.117-1.196-.415ZM66.62 40.05c-.93.326-.873.698.06.612.481.055.897.063 1.27.04.616-.042.607.602.171.851-1.06.803-2.187 1.093-3.374 1.11-.553-.028-.964.03-1.262.305-.144.134-.38.189-.563.258-.336.022-.622.616-.086.915.75.425 1.38.302 1.836-.62.056-.737 1.587-.537 2.152-.615.825.015.766.053.784.543-.078.258-.105 1.174.028 1.408.19.33.52.624.817.624.464-.133 1.446.056 1.912-.16.193-.106.385-.194.577-.262.762-.306.646-1.123.133-2.173-.4-.282-.317-.735.053-.89.42-.214.975-.217 1.534-.167.351.048.593 0 .728-.145.254-.227.336-.495.038-.85-.14-.256-.473-.311-.996-.168-.667.273-1.457.409-2.49.485-.527.027-.591-.668-.224-.872.14-.177.495-.125.742-.187.687-.343.668-.632-.058-.867a2.398 2.398 0 0 0-.76-.12c-.387-.055-.689-.17-.805-.553-.3-.338-.54-.42-.642.065-.054.806-.684 1.21-1.575 1.433Zm1.923 2.887c.34-.485.989-.475 1.52-.136.589.584.607 1.06.055 1.424-.442.062-.864.05-1.264-.036-.562-.087-.616-.808-.311-1.252ZM62.93 40.865c.31-.403.786-.556 1.374-.539.676.245.795.578.354.999-.331.266-.75.411-1.256.433-.645-.035-.802-.333-.472-.893Z"/><path d="M64.384 45.473c.401-.419.58-.61 1.099-.889.695-.52 1.146.17.75.711-.083.217-.429.786-.753 1.083-.235.215-.585.406-.863.147-.577-.3-.497-.847-.233-1.052Z"/><path d="M77 22.068c23.095 0 41.932 18.837 41.932 41.933 0 23.095-18.837 41.932-41.932 41.932-23.096 0-41.933-18.837-41.933-41.932 0-23.096 18.837-41.933 41.933-41.933Zm0 1.61c22.208 0 40.322 18.114 40.322 40.323 0 22.208-18.114 40.321-40.322 40.321-22.209 0-40.322-18.113-40.322-40.321 0-22.209 18.113-40.323 40.322-40.323Z" style="fill:#c6000d" transform="translate(-10.5 5.773) scale(1.13636)"/><path d="M77 36.259c15.279 0 27.741 12.462 27.741 27.741 0 15.28-12.462 27.742-27.741 27.742-15.28 0-27.742-12.462-27.742-27.742 0-15.279 12.462-27.741 27.742-27.741Zm0 1.377c14.52 0 26.363 11.843 26.363 26.364S91.52 90.364 77 90.364c-14.521 0-26.365-11.843-26.365-26.364S62.479 37.636 77 37.636Z" style="fill:#c6000d" transform="translate(-10.5 5.773) scale(1.13636)"/><path d="M77 38.906c13.821 0 25.093 11.273 25.093 25.094 0 13.822-11.272 25.094-25.093 25.094-13.822 0-25.095-11.272-25.095-25.094 0-13.821 11.273-25.094 25.095-25.094Zm0 .589c13.548 0 24.599 11.008 24.599 24.505S90.548 88.505 77 88.505c-13.549 0-24.6-11.008-24.6-24.505S63.451 39.495 77 39.495Z" style="fill:#c6000d" transform="translate(-10.5 5.773) scale(1.13636)"/></svg>