<svg xmlns="http://www.w3.org/2000/svg" width="154" height="157" fill="none"><g filter="url(#a)"><path fill="#fff" d="M13 0h128v128H13z"/><path fill="#000" fill-rule="evenodd" d="M36.37 51.822c-.542-.322-.602-.68.094-1.002 1.72-1.076 5.249-1.92 8.772-2.473 1.045-.032 1.96-.119 2.612-.484 1.12-.227 2.681.318 2.046 1.928-.958.66-1.6 1.07-2.557 1.73-.331.449-1.21.946-1.88.777-.924.946-1.902 1.36-2.996 1.688.194.134.66.071 1.249-.08.584-.201 1.115-.284 1.53-.105.45-.037.77.068.938.316.849 1.019.485 1.744-.636 1.908-.735.021-2.145.168-2.93.684-.321.21-.68.481-1.122.658-.852.342-1.068 1.536-2.009 2.238-.177 1.219-.285 2.144-.913 2.366-.25.316-.324.614-.012.931.94.693.068 1.64-.63 2.238-1.142.391-1.876.632-2.961 1.403-.6.101-1.067.107-.594-.554.386-.25.77-.667 1.156-1.108.413-.493.39-1.038.185-1.531-.74-.962.501-2.56 1.17-3.046.069-.01 1.044-.347 1.507-1.577.01-.132.125-.389.136-.52-1.892.858-4.317.936-7.223.416-.678-.354-1.076-.97-.18-1.42.914.13 2.63-.075 3.554-.46.431-.179 1.23-.79 2.03-.812.726-.02 1.16-.406 1.756-.864 3.112-1.874 7.634-4.56 7.122-5.434-.489-.04-2.142 1.04-3.147.981-.64-.038-2.197.814-3.35 1.446-.477.284-.785.39-1.81.158-.042-.114-.415-.281-.907-.396ZM46.948 58.221c.432-.416.737-.403.916.039v.897c.037.368-.221.77-.489.925-.38.23-.379.282-.758.511-.51.776-1.404 1.032-2.066 1.12-.36.212-.604.311-.963.523-.763.076-.98-.094-.574-.575.208-.273.466-.486.928-.802-.044-.283.854-.869 1.27-1.066.316-.734 1.294-.765 1.736-1.572ZM45.565 63.934c.202-.238.262-.293.394-.056.02.273-.038.412-.017.684-.177.062-.196.083-.373-.004-.01-.26.006-.364-.004-.624ZM39.95 70c.167-.39.474-.4 1.052-.352.436-.066.746.08.552.753-.22.287-.531.495-.779.644-.313.288-.482.207-.795-.106 0-.276-.03-.664-.03-.94Z" clip-rule="evenodd"/><path fill="#000" fill-rule="evenodd" d="M32.56 69.607c-1.002-.467-1.204-.893-.558-1.361.552-.282.86-.453 1.412-.735.52-.085 1.903-.663 2.199-.79 1.99-.328 2.969-.137 4.286.191l.375.396c.64.366 1.817-.285 3.583-1.612.25-.129.583-1.092.624-2.025.338-.832 1.255-1.05 2.095-.559.863.392 1.332 1.285 1.21 1.647.052.554.011.685-.016 1.071-.243.235-.499.93-.636 1.493-.609.13-.952.637-1.493 1.35.004.848-.096 1.814-.167 2.356-.359.297-.597 1.115-.733 2.162-.312.818-.283 1.714-.3 2.782-.248.4-.181.64-.461.916-.457.494-1.088.863-1.504.193-.083-.475-.056-.487-.14-.961.124-.824-.454-.967-1.736-.872-.67.25-.389.252-1.191.396-1.078.192-3.337 1.329-4.93 2.005-1.475.74-2.629.985-3.848 1.58-.616.302-.882.65-1.678.767-1.882.647-2.429-.52-1.531-1.24 1.806-1.109 4.334-2.548 6.935-3.657 2.59-.536 3.878-1.15 4.839-2.358.354-.028 1.037-.092 1.391-.013.402-.642.675-.894.952-.936.58.033.65-.435 1.02-2.133.056-.431.432-1.294-.506-.825-.31.155-1.017-.003-1.296-.023-.375-.028-1.257.167-1.31.77-.06.681-.293.479-.565.675-.711 1.479-1.247 1.982-2.163 1.88-1.117 1.253-1.84 1.911-2.566 2.03-.385.415-.803.907-.705 1.137-.148.4-.77.607-1.107-.162.07-.46-.006-.946.064-1.405-.122-.27-.18-.28-.302-.55-.444-.35-.498-1.107.1-1.31.679-.52 1.077-.9 1.276-2.268-.36 0-.559 0-.92-.002Zm2.551.137c.9-.897 1.72-1.337 2.656-1.64.448-.197.694.174.579.6-.676.692-.69.8-1.498 1.072-.402-.167-.925-.081-1.117.168-.454.072-.694.025-.62-.2ZM46.99 72.9c.1.496.42.995.3 1.488-.152.625.012 1.132.32 1.584.268.461.664.577 1.188.348.427-.26.983-.559 1.36-.991.174-.337.124-.519.098-1.379.053-.507-.777-1.037-1.762-1.427-.852-.36-1.315-.298-1.505.377ZM57.955 62.852l1.852-1.574 1.29-1.398 1.832-2.134c1.015-.55 2.21-.061 2.046.62-.013 1.861-.306 3.41-.676 5.195l-.478 2.136-.445 2.158-.134 1.007-.94 1.923-.463 1.607-.941 1.088c-.85.034-1.533-.081-1.04-1.256l.446-.292.445-.754.347-1.716.644-2.05.446-1.841.346-1.883.447-2.678c-.103-.46-.384-.544-.843-.251-.608.35-1.077.889-1.238 1.84-.135.872-.594 1.494-1.04 2.177-1.794.423-2.607-.162-1.903-1.924ZM64.845 64.414l2.196-2.651.96-1.115c1.06-.745 1.655-.717 1.915.195l-.25 1.59 1.219-.227c.632.258 1.04.705 1.227 1.34l-.48.553-.23 3.313c-.584 1.267-1.167.98-1.75-.013l.065-2.456-.495-.055-.972 5.41c-.528.679-1.384.562-2.002-.04l.15-.963.445-1.171.446-1.047.198-.878.183-.85.28-1.772-.395-.194c-.432.655-.686 1.31-.762 1.965-.078 1.013-.585 1.169-1.288.976-.727-.439-1.092-1.019-.66-1.91ZM72.093 59.335l.579-.474.352-.376 1.151-.99c.852-.417 1.348-.193 1.487.67.66 1.251.304 3.23-.199 5.314l-.445 4.56c.084 2.31-.244 4.548-.609 6.78-.858.825-1.32.51-1.552-.324l.08-4.824.297-4.519c.205-1.492.47-2.985.943-4.477l-.059-.921c-1.18.76-1.915.806-2.204.137l.18-.556ZM85.852 65.314c-.547.785-.249 1.194.892 1.228.3.167.199.502.298.753l-.991.963-1.485 1.913c-.627 1.31.012 1.723 1.534 1.46l2.577-2.244.842-1.088 1.486-2.887 2.94-2.498.082-1.184-.743-.88-.545.085-.248.377-.23.935-.661.446-.676-.406-.065-2.036c-.281-.474-.606-.497-.975-.07l-.78 2.218-.41 1.63-2.098 1.132c-.248.052-.496.102-.745.153ZM90.956 67.881c-.103-.448-.083-.897.76-.67l1.717 1.507.743.377c1.118.408 1.148 1.022 1.189 1.59l-.66 1.66c-.43.492-.837.272-1.322.014l-.644-.628-.842-1.13-.941-2.72ZM110.465 53.076l.139.503c1.75 2.77 2.211 4.607 1.382 5.511-.01.41.4.46 1.229.147l.674-1.59-.068-1.454c1.013.148 1.432.868 1.809 1.786l-1.015 1.135c-.057.258-.1.46.312.327l1.041-.665c.986.597 1.914 1.21 2.435 1.943l-1.062.82c-.063.23.038.368.303.412l1.111-.48.634.386 1.421-.114 6.102-6.18c.258-.653-.063-.901-.79-1.052l-5.879 1.136-.018.46 1.129.234 4.064-.921-5.117 4.884-1.048-.001-.746-.618c1.497.114 2.5-.808 2.119-1.805l-1.673-1.329 1.403-1.508-1.152-.957 6.186-5.31c.215-.383.199-.514-.112-.645-2.924 1.806-4.091 2.836-7.936 5.853-1.603.072-2.899.392-4.146.845-1.017-.862-1.995-2.175-2.731-1.753Zm8.322 2.423.048-.28c-.931-.136-3.32 1.429-3.299 1.489l1.264.304c.854-.364 2.003-1.191 1.987-1.513Zm-.005 1.995-.368-.541c-.854.363-1.108.383-.866 1.163l.556.25c.775-.442.694-.55.678-.872Z" clip-rule="evenodd"/><path fill="#000" fill-rule="evenodd" d="M121.092 57.337c.084.322.293.496.631.523.357-.11.675-.303.956-.578-.033-.355-.046-.61-.335-.666-.767-.049-.993.331-1.252.72ZM110.077 57.9c-.427.241-.762.628-.804 1.25-.091 1.374.136 2.284.828 2.515.438-.073.659-.245.93-.692.338-1.22-.371-3.08-.954-3.074ZM112.862 59.934l-.924.859.377.55 3.001-.243.648-.525-.297-.703-2.11.595c.03-.443-.321-.5-.695-.533ZM101.681 66.474c-.783 2.015.899 2.499 3.42 1.787 4.228-2.616 7.544-4.422 12.062-5.866.229-.522-.049-.83-.652-.784-4.874 1.003-9.058 2.475-12.72 4.342-.733.159-1.377.362-2.11.521ZM123.661 60.747c.133.446.367.83.82.903-.856.207-1.235.694-1.96.802-2.282.34-4.534 1.04-4.875 2.04l-2.576.25c-1.071.341-1.919.903-2.545 1.687L113.14 70c-1.482.898-3.201.975-4.872 1.217-1.357.954-.869 1.881 1.464 2.783l3.846-.653c.274 1.5.953 2.877.786 4.398-1.461-.028-3.326-.908-4.682-1.822.356 1.25 2.977 2.521 4.422 3.761.896-.168 1.474-.82 1.734-1.954.139-1.55.033-3.099-.612-4.65l1.327-1.192 2.698-.35c1.065-.665 1.389-1.331.081-2.096l-4.062.442-1.156-3.152 2.015-1.367a7.004 7.004 0 0 0 2.478-.626l4.602-.743c1.509-.545 2.503-1.466 3.359-2.373.269-.415.182-.758-.262-1.03-1.33-.316-2.407-.265-2.645.153Z" clip-rule="evenodd"/></g><defs><filter id="a" width="154" height="157" x="0" y="0" color-interpolation-filters="sRGB" filterUnits="userSpaceOnUse"><feFlood flood-opacity="0" result="BackgroundImageFix"/><feColorMatrix in="SourceAlpha" result="hardAlpha" values="0 0 0 0 0 0 0 0 0 0 0 0 0 0 0 0 0 0 127 0"/><feOffset dy="16"/><feGaussianBlur stdDeviation="6.5"/><feColorMatrix values="0 0 0 0 0 0 0 0 0 0 0 0 0 0 0 0 0 0 0.03 0"/><feBlend in2="BackgroundImageFix" result="effect1_dropShadow_185_232"/><feBlend in="SourceGraphic" in2="effect1_dropShadow_185_232" result="shape"/></filter></defs></svg>