<svg xmlns="http://www.w3.org/2000/svg" xml:space="preserve" style="fill-rule:evenodd;clip-rule:evenodd;stroke-linejoin:round;stroke-miterlimit:2" viewBox="0 0 157 157"><path d="m0 56.324 2.225.894 3.585-.197-.235.584-1.874.082c-.351.015-.697.023-1.035.019.228.221.482.479.76.773l1.261 1.331-.226.563-2.431-2.671-2.22-.894.19-.484Zm3.188-2.82.635.186-.463 1.594-2.014-.58c-.204-.325-.349-.645-.409-.947a1.749 1.749 0 0 1 .021-.867 1.68 1.68 0 0 1 .633-.911c.319-.235.713-.367 1.187-.395.475-.034.985.03 1.517.186.525.155.992.376 1.409.661.409.285.689.611.829.957.135.35.147.715.041 1.093-.081.28-.212.502-.41.687-.185.18-.419.305-.675.363-.268.061-.593.066-.976.03l-.04-.506c.283.025.527.018.706-.024a.999.999 0 0 0 .488-.243 1.06 1.06 0 0 0 .293-.48c.064-.228.068-.439.019-.634a1.173 1.173 0 0 0-.278-.52 2.2 2.2 0 0 0-.469-.392 4.242 4.242 0 0 0-1.049-.465c-.482-.137-.908-.198-1.269-.181-.359.02-.651.122-.869.299a1.277 1.277 0 0 0-.447.633 1.35 1.35 0 0 0-.002.686c.062.241.141.432.25.578l1.017.293.325-1.101Zm1.68-5.977c-.675-.082-1.222-.017-1.636.19-.423.206-.656.502-.702.882-.047.39.111.734.474 1.033.359.297.904.49 1.625.578.451.052.86.049 1.213-.022.349-.064.631-.193.843-.378a.983.983 0 0 0 .361-.658c.053-.367-.095-.701-.421-1.008-.33-.307-.918-.508-1.757-.617M4.946 47c.926.11 1.637.371 2.12.78.482.41.691.894.621 1.446-.036.36-.201.673-.483.93-.28.259-.65.438-1.113.534-.461.103-.97.12-1.529.048a4.478 4.478 0 0 1-1.498-.426c-.428-.207-.742-.477-.938-.793-.192-.325-.275-.656-.231-.992.047-.369.215-.684.501-.943.288-.261.668-.438 1.125-.531.458-.096.93-.122 1.425-.053m-2.501-3.298 5.634.428-.039.516-4.965-.372-.157 1.928-.655-.05.182-2.45Zm2.662-4.014c-.68.018-1.214.161-1.597.428-.38.267-.561.595-.552.976.017.392.226.709.626.948.4.241.971.345 1.691.327a4.128 4.128 0 0 0 1.193-.203c.341-.124.598-.285.783-.504a.976.976 0 0 0 .258-.707c-.013-.367-.203-.676-.573-.929-.374-.257-.976-.368-1.829-.336m0-.544c.931-.032 1.672.121 2.213.456.538.337.817.779.839 1.331.011.364-.107.695-.343.994-.241.299-.579.534-1.023.701-.431.165-.943.257-1.506.275-.566.018-1.082-.042-1.54-.189-.453-.146-.807-.363-1.047-.648-.239-.291-.368-.609-.378-.946-.01-.371.111-.707.355-1.006.241-.299.59-.534 1.028-.703a4.578 4.578 0 0 1 1.402-.265m-3.221-3.755 5.61-.676.07.528-4.158 2.582 4.402-.534.06.498-5.607.677-.068-.535 4.162-2.574-4.41.526-.061-.492ZM.994 31.49l5.504-1.271.119.508-2.271.522.455 1.986 2.27-.526.117.504-5.505 1.273-.12-.508 2.596-.596-.458-1.98-2.59.594-.117-.506Zm1.508-1.848-.007.559c-.616.098-1.124.068-1.52-.093-.402-.166-.663-.435-.802-.817-.139-.404-.134-.771.014-1.102.146-.331.418-.641.817-.926.397-.285.847-.52 1.362-.695.552-.192 1.06-.291 1.527-.285.469.004.853.104 1.162.304.31.198.52.457.632.782.132.378.109.737-.078 1.077-.179.347-.502.66-.958.932l-.333-.426c.36-.221.591-.442.716-.669a.845.845 0 0 0 .05-.707 1.033 1.033 0 0 0-.543-.614c-.26-.12-.577-.165-.93-.127a5.032 5.032 0 0 0-1.07.238 5.056 5.056 0 0 0-1.134.556c-.304.206-.513.437-.615.688a.997.997 0 0 0-.028.719c.094.275.292.464.582.577.304.11.679.122 1.156.029m-4.295-5.387 5.149-2.325 1.172 2.584-.605.273-.956-2.108-1.581.713.893 1.974-.608.275-.888-1.978-1.759.793 1.001 2.199-.609.273-1.209-2.673Zm-1.15-2.13 4.305-2.514-.653-1.12.573-.334 1.571 2.693-.576.335-.655-1.122-4.306 2.513-.259-.451Zm-3.571-6.273.527.655c.157.2.316.339.462.413a.91.91 0 0 0 .45.091c.212-.015.456-.087.741-.226.275-.132.58-.331.913-.598.463-.367.772-.705.935-1.008.171-.303.237-.562.196-.783-.025-.156-.139-.359-.331-.598l-.512-.645-3.381 2.699Zm-.84.004 4.411-3.522.847 1.058c.195.241.317.438.372.595.086.224.096.459.041.704-.062.318-.215.641-.46.966-.24.327-.557.645-.947.962-.335.267-.66.476-.959.626-.301.153-.573.26-.814.306a1.84 1.84 0 0 1-.619.04 1.215 1.215 0 0 1-.515-.193c-.17-.1-.32-.245-.473-.434l-.884-1.108Zm-2.757-2.938 4.099-3.879.373.386-1.811 4.547 3.226-3.045.344.363-4.107 3.879-.367-.386 1.808-4.547-3.226 3.044-.339-.362Zm-.751-3.737 1.008.88.713-1.452c.221-.435.409-.797.56-1.074a9.155 9.155 0 0 1-.874.679l-1.407.967Zm-2.383 1.008 4.849-3.268.425.373-2.492 5.311-.445-.385.774-1.593-1.246-1.088-1.449 1.012-.416-.362ZM-18 7.001l3.072-4.739 2.383 1.546-.358.558-1.946-1.263-.943 1.456 1.821 1.183-.362.552-1.821-1.178-1.042 1.616 2.021 1.307-.363.556L-18 7.001Zm-.209-2.327.377.405c-.372.496-.752.824-1.157.986-.396.159-.777.149-1.14-.036-.38-.191-.63-.458-.76-.797-.128-.344-.142-.747-.057-1.231a5.61 5.61 0 0 1 .495-1.448 4.76 4.76 0 0 1 .909-1.267c.332-.317.687-.516 1.046-.588a1.52 1.52 0 0 1 1.001.122c.349.181.582.456.695.834.103.377.09.819-.051 1.335l-.534-.077c.109-.407.124-.733.053-.982a.866.866 0 0 0-.463-.544 1.001 1.001 0 0 0-.808-.06c-.276.093-.534.277-.764.557-.235.273-.43.576-.594.913a4.36 4.36 0 0 0-.435 1.187c-.079.359-.062.666.042.915.1.256.257.434.471.541.258.132.534.132.821.008.291-.125.579-.382.853-.773m-7.145-.982 2.104-5.241.5.201.258 4.881 1.652-4.112.468.184-2.108 5.243-.5-.203-.261-4.879-1.653 4.112-.46-.186Zm-3.579-.966 1.517-5.442 2.739.761-.184.639-2.232-.623-.466 1.669 2.095.584-.184.641-2.085-.58-.516 1.847 2.317.652-.176.639-2.825-.787Zm-1.479-.294 1.028-5.551.509.096-1.029 5.552-.508-.097ZM-31.461.204l.491.247c-.177.6-.428 1.034-.748 1.323-.318.281-.681.405-1.094.354-.416-.047-.746-.215-.975-.489-.238-.281-.394-.658-.475-1.14a5.432 5.432 0 0 1-.029-1.528c.073-.581.214-1.083.419-1.498.209-.42.467-.721.785-.914.312-.191.645-.263.987-.222.389.046.702.23.929.546.234.319.368.743.413 1.273l-.527.11c-.039-.416-.136-.733-.286-.938a.878.878 0 0 0-.617-.359c-.3-.034-.564.036-.785.219-.23.182-.405.446-.534.779-.114.339-.2.69-.244 1.062a4.6 4.6 0 0 0-.007 1.267c.051.368.176.653.353.854.184.2.396.315.63.343a.95.95 0 0 0 .774-.271c.231-.215.408-.552.54-1.018m-6.854-.365.494-.049c.009.284.061.52.143.703.077.185.203.337.378.456.173.116.374.179.596.185.2.009.376-.031.529-.107a.863.863 0 0 0 .354-.341c.077-.147.121-.307.124-.478a.947.947 0 0 0-.093-.466.82.82 0 0 0-.344-.345c-.103-.063-.333-.165-.692-.3-.354-.136-.606-.261-.748-.375a1.305 1.305 0 0 1-.396-.538 1.728 1.728 0 0 1-.124-.711c.014-.285.08-.552.198-.795.122-.239.295-.426.516-.55.221-.119.463-.177.727-.169.286.008.546.088.761.227.22.138.387.343.494.61.111.267.164.567.164.9l-.5.036c-.022-.355-.1-.626-.245-.813-.147-.187-.372-.287-.678-.297-.316-.008-.548.064-.697.226a.907.907 0 0 0-.236.593c0 .203.044.373.136.508.097.132.357.275.774.428.416.146.706.279.864.385.216.157.38.355.482.594.1.231.149.496.134.801a1.973 1.973 0 0 1-.2.844 1.368 1.368 0 0 1-.541.602 1.32 1.32 0 0 1-.76.199c-.357-.01-.653-.098-.889-.255a1.513 1.513 0 0 1-.538-.689 2.617 2.617 0 0 1-.187-1.019m-5.998 2.27-.679-5.606 2.639-.323.082.663-2.121.251.208 1.747 1.836-.222.078.659-1.834.221.308 2.546-.517.064ZM-48.825.236c.15.663.396 1.154.732 1.474.33.325.695.446 1.064.359.383-.09.646-.351.814-.793.151-.442.151-1.016-.011-1.723a4.1 4.1 0 0 0-.428-1.136c-.185-.307-.399-.532-.645-.667a.98.98 0 0 0-.743-.116c-.362.08-.633.327-.806.743-.174.409-.173 1.03.023 1.859m-.525.105c-.213-.91-.209-1.665.014-2.26.224-.594.607-.951 1.145-1.076a1.454 1.454 0 0 1 1.045.143c.333.175.627.464.88.859.249.4.441.876.567 1.424a4.76 4.76 0 0 1 .108 1.55c-.051.478-.197.862-.437 1.156-.238.29-.521.479-.85.553a1.46 1.46 0 0 1-1.059-.153c-.342-.183-.637-.474-.876-.873-.249-.4-.428-.84-.537-1.323m-4.214 4.315-.895-2.221-2.615-2.456.578-.235 1.355 1.295c.255.241.499.482.73.735 0-.317.014-.682.032-1.088l.088-1.825.563-.227-.243 3.604.888 2.225-.481.193Zm-3.204 1.459-2.224-4.461-1.161.576-.297-.591L-57.666.25l.302.595-1.157.574 2.222 4.466-.469.23Zm-2.196 1.187-2.799-4.901.45-.264 2.805 4.908-.456.257Zm-4.336.623.367-.318c.18.221.346.39.518.496.177.105.36.157.579.157.202-.004.404-.068.594-.189.165-.11.288-.239.367-.393a.76.76 0 0 0 .097-.482 1.155 1.155 0 0 0-.165-.464 1.072 1.072 0 0 0-.346-.334.861.861 0 0 0-.474-.08 5.334 5.334 0 0 0-.741.145c-.374.094-.649.134-.831.118a1.397 1.397 0 0 1-.64-.209 1.916 1.916 0 0 1-.497-.516 2.099 2.099 0 0 1-.295-.769 1.28 1.28 0 0 1 .109-.741c.11-.225.275-.409.499-.558.243-.154.5-.237.76-.247.257-.008.508.064.754.221.243.157.458.372.648.645l-.387.317c-.216-.285-.447-.46-.668-.53-.235-.069-.472-.022-.724.144-.268.171-.415.368-.443.581a.87.87 0 0 0 .145.624c.108.171.24.281.399.337.156.05.448.023.879-.088.43-.114.733-.175.923-.175.276 0 .519.071.74.207.22.133.408.332.574.581.157.258.262.522.308.811a1.42 1.42 0 0 1-.096.801 1.346 1.346 0 0 1-.516.594c-.299.197-.587.293-.87.303-.283.004-.562-.084-.84-.258a2.531 2.531 0 0 1-.727-.731m-3.563 1.158.877-.695c.186-.15.306-.291.368-.431a.748.748 0 0 0 .027-.454 1.3 1.3 0 0 0-.239-.462 1.06 1.06 0 0 0-.565-.392c-.217-.048-.434.018-.662.203l-.971.773 1.165 1.458Zm1.562 2.795-3.524-4.415 1.361-1.087c.278-.22.516-.345.72-.381.21-.036.435.014.679.146.244.133.462.32.657.562.25.314.39.633.421.962.029.332-.079.637-.329.93.168-.012.31-.002.423.028.244.06.509.165.805.317l1.492.776-.508.409-1.142-.596a10.53 10.53 0 0 0-.775-.374 1.426 1.426 0 0 0-.446-.132.691.691 0 0 0-.278.034.939.939 0 0 0-.241.157l-.472.377 1.565 1.96-.408.327Zm-2.672 2.592-3.913-4.078 2.053-1.96.458.476-1.671 1.607 1.196 1.248 1.568-1.502.463.48-1.569 1.504 1.337 1.388 1.735-1.668.462.479-2.119 2.026Zm-1.702 1.988-5.257-2.562.365-.42 3.77 1.92c.303.157.583.303.833.45a14.05 14.05 0 0 1-.557-.763l-2.404-3.494.349-.402 3.256 4.864-.355.407Zm-1.583 2.083-4.58-3.312.307-.419 4.58 3.311-.307.42Zm-2.28 3.425-4.757-3.044.288-.452 4.844.655-3.733-2.392.268-.419 4.754 3.046-.283.449-4.848-.654 3.738 2.387-.271.424Zm-5.719-1.267.236-.466 2.912 1.466c.505.265.888.504 1.143.735.261.231.43.498.516.795.083.307.035.622-.136.96-.165.331-.385.56-.653.685-.265.124-.575.156-.933.088-.349-.06-.796-.231-1.328-.502l-2.913-1.47.234-.464 2.912 1.468c.439.221.776.355 1.009.406.245.046.449.032.629-.051a.843.843 0 0 0 .422-.419c.175-.339.186-.632.034-.894-.15-.257-.541-.546-1.174-.869l-2.91-1.468Zm1.646 11.239-5.44-1.509.143-.511 4.819-.81-4.274-1.182.138-.478 5.441 1.504-.145.516-4.824.805 4.274 1.185-.132.48Zm-3.852 2.827.2-1.098c.048-.236.046-.42 0-.565a.702.702 0 0 0-.276-.361 1.213 1.213 0 0 0-.479-.193c-.267-.05-.494-.022-.686.074-.197.103-.313.294-.37.583l-.231 1.221 1.842.339Zm3.01 1.092-5.556-1.03.318-1.717c.063-.341.166-.594.295-.761.134-.156.334-.267.607-.329.272-.056.564-.056.865-.006.396.078.709.225.953.456.233.227.352.53.358.916.119-.123.229-.204.333-.255a3.59 3.59 0 0 1 .819-.288l1.636-.387-.119.632-1.25.299c-.364.087-.643.165-.833.227a1.62 1.62 0 0 0-.423.191.875.875 0 0 0-.19.209c-.027.05-.055.144-.078.279l-.107.594 2.463.456-.091.514Zm-.469 3.693-5.604-.677.338-2.821.658.08-.279 2.301 1.721.205.261-2.154.658.08-.262 2.155 1.913.232.293-2.393.647.079-.344 2.913Zm-.104 4.014-5.646-.183.018-.516 2.328.072.063-2.034-2.326-.074.016-.52 5.648.182-.02.519-2.659-.089-.065 2.036 2.656.087-.013.52Zm.218 2.434-4.966.375.096 1.293-.663.047-.232-3.103.662-.053.095 1.296 4.974-.378.034.523Zm-5.287 3.461-.093-.508 3.204-.599c.556-.104 1.009-.139 1.358-.116.34.028.633.135.886.327.246.192.404.47.476.848.068.359.032.675-.106.935-.139.261-.36.472-.684.635-.327.158-.783.289-1.369.409l-3.205.589-.098-.509 3.206-.595c.489-.093.832-.185 1.052-.291.217-.105.375-.243.47-.418a.862.862 0 0 0 .082-.59c-.067-.38-.243-.621-.518-.731-.271-.123-.758-.111-1.454.018l-3.207.596Zm4.404 6.068c.656-.186 1.129-.454 1.441-.803.306-.351.409-.714.299-1.088-.102-.372-.378-.632-.826-.763-.448-.139-1.023-.107-1.724.092-.437.125-.813.283-1.107.488-.3.19-.518.416-.643.663a1.043 1.043 0 0 0-.075.755c.101.353.356.608.781.768.42.158 1.042.12 1.854-.112m.133.523c-.902.251-1.657.285-2.26.091-.605-.194-.982-.561-1.132-1.093a1.47 1.47 0 0 1 .092-1.047c.158-.345.43-.655.819-.923.388-.27.856-.481 1.39-.633a4.596 4.596 0 0 1 1.549-.184c.478.032.871.156 1.172.376.301.226.504.499.596.83.097.353.065.707-.103 1.058-.164.346-.443.661-.829.926a4.41 4.41 0 0 1-1.294.599m2.318 3.397-.235-.432c.254-.123.45-.261.59-.41a.994.994 0 0 0 .263-.528 1.08 1.08 0 0 0-.066-.624 1.072 1.072 0 0 0-.307-.442.843.843 0 0 0-.456-.185 1.073 1.073 0 0 0-.49.074.941.941 0 0 0-.388.272.82.82 0 0 0-.182.452c-.013.122-.013.373.002.755.02.381 0 .658-.046.833a1.35 1.35 0 0 1-.333.584 1.716 1.716 0 0 1-.598.391 2.022 2.022 0 0 1-.813.133 1.18 1.18 0 0 1-.71-.247 1.39 1.39 0 0 1-.441-.599 1.478 1.478 0 0 1-.104-.793 1.3 1.3 0 0 1 .371-.694c.199-.211.447-.376.755-.51l.236.444c-.321.156-.537.337-.647.549-.123.211-.123.458-.006.74.12.291.28.477.485.55.209.068.42.064.634-.022a.771.771 0 0 0 .416-.329c.085-.139.114-.432.085-.874-.026-.447-.026-.759.008-.943.058-.268.171-.5.35-.689a2.054 2.054 0 0 1 1.538-.589c.294.017.545.095.766.251.216.159.381.358.481.62.134.332.174.635.124.912a1.45 1.45 0 0 1-.417.774c-.231.236-.51.428-.865.576" style="fill:#ec6c00;fill-rule:nonzero" transform="matrix(.94562 0 0 .94562 114.695 38.439)"/><path d="M0-50.567c-6.762-6.755-15.741-10.479-25.291-10.479s-18.536 3.724-25.287 10.479c-6.757 6.753-10.479 15.734-10.479 25.286 0 9.552 3.722 18.533 10.479 25.288 6.751 6.753 15.737 10.472 25.287 10.472C-15.741 10.479-6.762 6.76 0 .007c6.752-6.755 10.474-15.736 10.474-25.288S6.752-43.814 0-50.567M-.533-.523C-7.145 6.091-15.937 9.732-25.291 9.732c-9.355 0-18.147-3.641-24.761-10.255-6.617-6.609-10.254-15.404-10.254-24.758 0-9.353 3.637-18.146 10.254-24.76 6.614-6.614 15.408-10.256 24.761-10.256 9.352 0 18.146 3.642 24.758 10.256 6.612 6.614 10.256 15.407 10.256 24.76 0 9.354-3.644 18.149-10.256 24.758" style="fill:#ec6c00;fill-rule:nonzero" transform="matrix(.94562 0 0 .94562 102.416 102.408)"/><path d="M0-74.777c-9.984-9.99-23.266-15.487-37.387-15.487-14.125 0-27.399 5.503-37.387 15.487-9.988 9.99-15.489 23.266-15.489 37.39 0 14.124 5.501 27.401 15.489 37.389 9.988 9.987 23.262 15.485 37.387 15.485C-23.266 15.487-9.984 9.989 0 .002c9.988-9.988 15.488-23.265 15.488-37.389 0-14.124-5.5-27.4-15.488-37.39M-.941-.941c-9.734 9.738-22.678 15.099-36.446 15.099-13.769 0-26.712-5.361-36.445-15.099-9.734-9.732-15.096-22.677-15.096-36.446 0-13.768 5.362-26.714 15.096-36.446 9.733-9.735 22.676-15.102 36.445-15.102 13.768 0 26.712 5.367 36.446 15.102 9.734 9.736 15.09 22.68 15.09 36.446 0 13.765-5.356 26.714-15.09 36.446" style="fill:#ec6c00;fill-rule:nonzero" transform="matrix(.94562 0 0 .94562 113.854 113.855)"/><path d="m0 6.901-.224-.133.085-.291c.04-.118.066-.138.029-.268-.071-.222-.228-.282-.327-.445.138-.27.416-.399.676-.574.151-.096.163-.102.321-.225.218-.17.23-.116.379-.273.048-.331-.17-.383 0-.791.189-.078.189-.042.377-.064l1.112-.115c-.113.474-.817 1.266-1.156 1.623C1.055 5.586.35 6.764 0 6.901M-.72 3.22l.361-.572.912-.082c.237-.015.724-.093.934.103-.125.346-.171.178-.5.317-.285.118-.237.154-.575.183-.297.027-.821.455-1.132.051m-2.452 1.611c.272-.008.629.018 1.052.018.197 0 .348.01.558.012.241 0 .335-.002.559.201-.118.21-.135.267-.339.307l-.089.008c-.406.03-1.613-.283-1.741-.546m1.4-1.453c-.23.403-.348.204-.693.234-.249.024-.479.143-.768.097a14.752 14.752 0 0 1-.376-.063c-.155-.044-.23-.112-.389-.112-.336 0-.619.386-.392.929.313.757.012.677.712.962.455.193 1.376.432 1.611.826-.041.148-.308.445-.589.367-.115-.038-.044-.029-.158-.076l-.155-.061c-.235.4.087.201-.254.844l.543.536c.95-.382.613-1.538 1.594-1.211.335.11.372.026.663.066.359.691-.166.535-.363 1.217-.149.516.452 1.086.452 1.086.495.049.833-.66 1.153-1.086l1.076-1.369c.169-.22.604-.637 1.044-1.225.192-.245.346-.309.598-.577.249-.262.346-.415.571-.732.16-.226.362-.374.548-.627.329-.449.27-.51.143-.723-.37-.602-.37-.969-1.035-1.04-.275-.022-.392.093-.629.084L1.748 1.68c-.3.004-.459.063-.709-.09.238-.247.277-.273.589-.321.305-.045.341-.133.619-.157 1.105-.114.155-.131 1.336.006.291.036.44-.058.611-.352.308-.544-.132-.22.074-1.05.061-.252.041-.174.181-.296.299-.27.35-.255.572-.669-.348-.918-.692-.697-.692-.697.013.02-.031.024-.036.026L2.757-.835C2.104-.424.674-.839-.009-1.117c-.35-.146-.162.031-.484-.128l-1.476-.628c-.299-.077-.224-.095-.471-.019-.191.046-.245.103-.374.319.14.344.129.44.546.707C-1.64-.458.073.011.364.361.35.49.44.38.271.551c-.137.16-1.094.503-1.265.471-.399-.066-.275-.332-.791-.076-.333.166-.406.371-.72.423-.195.028-.18.007-.36.06-.245.076-.127.067-.399.078-.878.04-.439.177-1.129.156-.302-.013-.535.088-.763.08-.239-.01-.297-.08-.444-.107-.37-.056-1.17.651-.423 1.183.674.481.505-.534 3.084-.45.265.018.589.058.741.311.069.107.078.213.147.342.102.181.175.213.279.356" style="fill:#ec6c00" transform="matrix(.94562 0 0 .94562 47.384 102.882)"/><path d="M0-1.372c.13-.608-.117-.415.472-.688.129.372-.054.473-.198.777-.162.355.004.502-.399.719l-.011-.438c.041-.245.075-.106.136-.37m-1.987-1.132c-.124-.225-.048-.49.141-.703.124.289.118.51-.141.703m.23 5.7c0-.017 0-.042.007-.056.003-.008.003-.035.01-.05l.193-1.229c.102-.895.185-.524.297-1.239.171-1.034.368-.841.392-1.293.039-.48.183-.199.337-.622.147-.412-.113-.169.363-.56.165.958-.494 1.132.033 1.656-.146.184-.405.94-.474 1.179-.125.408-.193.695-.469 1.128-.426.67-.453.446-.286.743.53-.012.836-.691 1.083-1.022 0-.066.5-.946.577-1.11C.465.354.545-.123.935-.454c.224.787-.482 1.681-.404 1.97.115.414.428.367.415.612.038.27.064.055-.136.321l-.721.907c-.225.342-1.073.945-1.136 1.137.61.741 2.621-2.033 3.176-2.033.127.031.025-.068.222.148a.668.668 0 0 1 .126.201c.169.374.071.849-.221 1.165.255.22-.007-.061.198.12.225.193.042.237.356.602.801-.004 1.592-.226 1.319-1.196-.063-.224-.055-.336-.142-.547-.194-.443-.726-.998-.754-1.517C4.402.401 5.67.066 4.842-.739c-.195-.185-.211-.093-.321-.333-.035-.072.022-.418-.333-.268-.331.141-.632.623-.913.872-.511.442-.924.95-1 1.006-.333-.087-.427-.171-.438-.574l-.125-1.639c.005-.263-.138-.612-.421-.715-.369-.127-.424.213-.753.231-.163-.289.044-.451.187-.689.11-.184.313-.433.443-.652.114-.186.045-.169.125-.367.071-.157.115-.163.145-.316.04-.157-.045-.861-.578-.512-.071.047-.196.153-.264.205-.175.139-.364.255-.516.42-.167.188-.621 2.059-1.142 2.564-.211-.317-.058-.005-.063-.243l.15-.652c.337-1.322.149-.87.261-1.774.056-.416.36-.492.089-.884-.4-.131-.567.069-.896.101-.261-.496.673-.873-.3-1.095l-.424.003c-.189-.38-.106-.476-.572-.556-.737.401-.158 1.046-.054 1.589.064.308-.032.148-.051.415-.032.355.105-.097-.073.566-.017.05-.023.124-.046.179-.055.162-.108.226-.272.327-.208-.129-.124-.239-.464-.276-.665-.061-.684.671-.631 1.105-.202.142-.295.121-.484.184l-.099.316c-.145.557.534 1.363.868 1.789.234.289.261.561.394.669.118.084.444.137.654.084.432-.101.421-.16.568-.455.262-.515.435-.226.322-.635-.046-.179-.336-.428.12-.492l-.011.279v.042C-2.111.171-2.355.451-2.334.717c.055.637-.466 1.424-.615 1.871-.239.765.345 1.022.534 1.143.278-.206.49-.346.658-.535" style="fill:#ec6c00" transform="matrix(.94562 0 0 .94562 109.954 105.643)"/><path d="M0 3.722v-9.441a1.264 1.264 0 0 0-1.255-1.175l.03-.016c-3.664-.085-7.022-.454-9.729-1.016-.248-.048-.589-.04-.734.21-.159.266-.089.468 0 .786.085.317.486 1.652.486 1.652.255 1.127 1.756 1.396 2.71 1.601l4.273.921c2.051.448 2.615 2.044 2.615 4.153v1.877c0 1.644-.277 2.707-1.366 2.756-1.385.063-2.393-1.318-2.931-2.519a.279.279 0 0 1-.036-.074l-.019-.042c-.046-.109-.091-.211-.127-.308C-6.449 2.18-7.265.196-7.265.196s-.107-.356-.278-.47a.827.827 0 0 0-.538-.162h-1.445l1.864 6.453c.379 1.319.848 2.844 1.891 3.819 1.28 1.205 3.373 1.86 6.149 1.86 2.778 0 4.87-.655 6.154-1.86 1.038-.975 1.51-2.5 1.895-3.819l1.857-6.453H8.836a.842.842 0 0 0-.537.162c-.168.114-.277.47-.277.47S7.209 2.18 6.844 3.087c-.045.097-.083.199-.129.308l-.015.042c-.013.022-.02.05-.031.074C6.12 4.712 5.11 6.093 3.724 6.03c-1.09-.049-1.363-1.112-1.363-2.756V1.397c0-2.109.56-3.705 2.625-4.153l4.26-.921c.957-.205 2.457-.474 2.714-1.601 0 0 .396-1.335.485-1.652.091-.318.164-.52 0-.786-.144-.25-.478-.258-.734-.21-2.709.562-6.058.931-9.728 1.016l.032.016c-.666 0-1.216.52-1.259 1.175v9.441a.381.381 0 0 1-.378.382A.384.384 0 0 1 0 3.722" style="fill:#ec6c00;fill-rule:nonzero" transform="matrix(.94562 0 0 .94562 77.131 95.912)"/><path d="M0-33.231s-2.896 1.621-3.939 3.801c-.439.926-.187 1.522 1.495.484 2.382-1.468 4.534-2.578 7.089-3.49 2.824-.994 7.995-2.205 8.361-2.028.155.076.164.368-.135.641-7.317 6.724-8.106 11.732-6.108 12.521.977.394 2.641.169 4.128-.319 1.481-.484 2.926-1.11 4.592-1.16 3.907-.121 5.543 7.286 1.322 14.302C14.44-4.537 8.144.467 7.694.282c-.203-.083-.274-.304-.183-.667.057-.241 2.32-5.213.528-6.004-.282-.124-.982.075-1.645 1.653-.859 2.045-1.508 2.418-1.859 2.334-.35-.087-.229-.65-.169-1.029.05-.382.133-.705-.084-.564-.204.139-2.22 2.399-2.85 2.353-.231-.024-.371-.267-.225-.604.137-.335.294-.789.294-.789S-1.968.334-6.207 1.144c-.316.064-1.156.266-1.429.124-.147-.075-.244-.426.024-.611.276-.182 4.767-2.506 6.711-5.778.589-.994.598-1.498.443-1.766-.392-.67-2.307-.006-3.56.531-1.255.534-3.136 1.63-5.53 2.034-2.967.509-6.503-.396-8.332-2.671-2.108-2.626-2.235-5.211-1.933-7.829.934-8.217 8.786-13.423 11.51-15.1 3.287-2.026 8.162-4.134 8.538-3.977.188.076.276.363-.235.668" style="fill:#ec6c00;fill-rule:nonzero" transform="matrix(.94562 0 0 .94562 77.695 85.122)"/><path d="M0-9.471c.167.388.348.404.539.735-.073.249-.219.52-.309.782-.138.415-.055.477-.422.764-.48-.616-.37-1.702-.604-2.346-.435-1.207-1.683-.985-1.767-.204-.052.588.683 1.101 1.145 2.375.26.721.376 1.479.11 2.206-.427 1.192-1.796 2.182-2.778 2.965-1.132.898-.004 1.586.7 1.312.453-.179.796-.492 1.131-.85.504-.524 1.38-2.121 1.671-1.813.33.342-.135-.276.071.08.09.146.034.336.043.52.008.377-.149.96-.385 1.271L-3.067.677c-.27.226-.533.331-.561.571.113-.012-.004.024.149-.058.022-.015.086-.055.108-.075.652-.427.48-.335 1.264-.457C-1.208.525-.594-.015.003-.836c1.194-1.649.798-2.155.584-3.637-.041-.279-.11-.751-.029-.981l1.247-2.579c.345-.771.882-1.191.037-1.707a1.172 1.172 0 0 0-.896-.144c-.19.042-.882.363-.946.413" style="fill:#ec6c00" transform="matrix(.94562 0 0 .94562 100.514 118.071)"/><path d="M0-1.457c-.139.049.11-.108-.208.07a1.162 1.162 0 0 0-.17.125c-.12.1-.219.223-.315.326C-2.34.939.428.29 1.608.419c.133.014.219 0 .36.008C3.3.533 3.33.881 3.604-.198c.17-.651-.613-1.235-.747-1.353-.626-.554-.372-.845-1.363-.623-.368.091-.411.203-.76.327-.757.272-.39.272-.734.39" style="fill:#ec6c00" transform="matrix(.94562 0 0 .94562 102.478 114.577)"/><path d="M0 5.245c0 .007-.029.273-.02.273a2.98 2.98 0 0 0-.744-.308c-.008-.023.556-1.03.569-1.053l.01-.022c.005-.006.016-.006.025-.008 0 .008.17 1.06.16 1.118m1.004-2.434v-.005c.051-.065.104-.128.127-.195.122-.38.631-.665.899-1.257.022-.045.102-.151.046-.142-.056.006-.964.865-1.014.907a.795.795 0 0 1-.104.074c-.009-.347-.087-.741-.087-.755l.002-.129-.002-.027c-.013-.055 0-.079.055-.1.011-.004.032-.015.032-.023.005-.032.03-.042.046-.056.042-.036.086-.074.134-.096.046-.025.092-.05.133-.074a1.79 1.79 0 0 1 .168-.077c.065-.026.131-.052.194-.08.005-.005.009-.009.013-.009.836-.572.141-.732.131-.732-.041-.008-.28-.078-.929.12C.804.163.737.058.735.011.732-.024.714-.058.723-.09c0-.004-.034-.686-.049-.753 0-.023-.008-.05-.008-.078a1.122 1.122 0 0 1 0-.116c0-.004 0-.011-.002-.015l.01-.09a.103.103 0 0 0 .009-.07c.031-.323.03-.456-.316-.623-.442-.21-1.117-.202-1.409.015-.229.167-.228.317-.117.576.011.024.02.048.032.066.016.034.032.072.053.109 0 .013.008.026.009.036.016.042.345 1.58.354 1.62l.008.058c.004.048.004.099.011.147.005.08.008.156.016.237 0 .02 0 .032-.023.044a.063.063 0 0 0-.014.026c0 .037-.02.062-.041.088-.014.031-.38.276-.765.533-.161.11-.257.281-.402.383-.228.149-.472.206-.486.225-.004.004-.013.008-.023.014a.456.456 0 0 0-.131.083.505.505 0 0 0-.078.076c-.026.034-.04.102 0 .112.193.032.178.556.451.52.004.005.006.01.016.012.068.024.139.056.211.075a.696.696 0 0 0 .159-.031c.012-.009.259-.176.51-.423.269-.267.637-.43.65-.442.004-.011.024-.02.034-.02a.063.063 0 0 0 .049-.022c.029-.018.054-.036.079-.053.006-.007.013-.007.022-.007.006.009.01.019.01.032-.002.059.005.12.005.18-.005.073.119.866.11.938-.009.04-.009.076-.014.112 0 .029-.014.053-.037.074-.02.021-.036.049-.059.067-.041.044-1.428 1.61-1.446 1.631a.208.208 0 0 1-.086.066c-.008.002-.015.01-.022.016-.032.03-.051.078-.088.102l-.007.004c-.004.036-.029.046-.064.057-.028.006-.219.325-.223.496 0 .17.189.28.23.459.053.241.295.321.449.304.21-.025.354-.183.366-.194.017-.011.449-1.108.458-1.135.009-.043.47.323.668.601.082.121.228.34.176.619-.055.314.206.639.532.635.488-.011.971-.715.863-1.52-.08-.603-.061-.746-.061-.778-.003-.068-.023-.136-.035-.202-.002-.032-.002-.061-.002-.087 0-.078-.006-.156-.022-.234-.011-.042-.205-1.542-.211-1.563a.302.302 0 0 0-.028-.091" style="fill:#ec6c00;fill-rule:nonzero" transform="matrix(.94562 0 0 .94562 82.957 117.177)"/><path d="M0-1.847S.327-.819.338-.832c.008-.006.352.176.357.178A.198.198 0 0 0 .8-.616c.011 0 .027.01.03.014a.142.142 0 0 0 .078.036c.015.006.026.013.037.015.026.01.047.025.071.027.025.004.862.364 1.442.525.584.163.913.127.939.142.005.004.01.008.014.004.046-.004.087-.012.131-.021.03-.009.061-.015.09.002.014.007.027.007.039.007.054 0 .445-.028.47-.267.039-.014.046-.056.064-.088.021-.032.039-.42.608-.77.271-.162.632-.268.6-.389-.161-.578-1.956-.44-2.025-.438-.041 0-2.387-.175-2.476-.184.004-.01-.912.154-.912.154" style="fill:#ec6c00;fill-rule:nonzero" transform="matrix(.94562 0 0 .94562 87.647 122.359)"/><path d="m0 2.855-.234.304c-.168.051-.615-.033-.619-.04.009 0-.36-.065-.279-.143.026-.024 1.247-.769 1.432-.798.076-.006-.054.323-.3.677m2.263.834.552-.095a9.82 9.82 0 0 1-1.604-.262c.017-.025.921-1.778.923-1.78.093-.203.069-.269-.011-.482-.012.011-.148-.451-.653-.36-.031.004-.809.354-.869.386-.009.006-.122.032-.168.044a.288.288 0 0 0-.05.027l-.051.026c.005-.028.005-.044.012-.065C.346 1.096.27.568.264.516.257.484.207.223.305.052c.107-.19 1.916-.954 1.974-1.017.504-.534.154-.663-.098-1.091-.095-.171-.404-.127-.961.036-.089.024-.962.439-.983.447-.007.003-.002.041-.007.032C.221-1.546.221-1.56.221-1.57v-.062c0-.033-.165-1.027-.189-1.046-.017-.019-.135-.294-.612-.318a2.579 2.579 0 0 0-.417.035c-.094.015-.301.14-.383.156-.156.03-.218.211-.222.215-.008.008-.013.028-.025.032-.023.014-.017.036-.023.054-.007.034.015.039.035.052.01.004.013.006.023.008.069.042.111.093.106.175 0 .078.229 1.603.232 1.663 0 .074.007.147-.021.219-.006.015-.014.034-.015.052-.013.042-.017.078-.022.12a.15.15 0 0 1-.032.077c-.016.015-.032.029-.046.046-.033.038-.948.931-.995.968-.022.018-.041.034-.068.045-.036.015-.078.015-.119.029-.197.046-.242.313-.254.331-.012.02-.012.047-.007.072.004.021 0 .097.023.101.009.002.101.311.299.249.357-.113.471.132.686-.056.006-.005.014-.007.023-.015.007-.006.017-.009.028-.015.061-.033.299-.362.327-.386.057-.061.195-.268.251-.325.009-.002.015-.002.015-.006 0-.032.1.833.105.851-.003.004.012.046.02.263.023.616-1.408 1.044-1.479 1.054-.015 0-.183.051.089.207.083.046.434.249 1.016.378.342.072.613.245.636.249.005.015.061.019.09.04l-.027.036c-.008.014-.019.025-.028.04-.013.018-.026.034-.039.054-.01.018-.023.036-.035.054-.022.037-.322.446-.843.497-.017.005-.034-.002-.053 0-.068.009-1.965-.185-2-.179-.008.002-.179-.044-.183-.044l.029.184c.007 0 .173.05.178.048.05-.013.845.221.891.211.004 0 .006.006.006.006.019.019.99.382 1.001.396.005 0 .005.004.005.004-.007.01-.014.016-.023.024.014.03.049.016.069.032-.029.02-.057.032-.076.029-.064-.025-.128-.009-.195-.025-.009 0-.019.004-.026.004.023.024.053.028.07.046.018.018.046.017.064.028.025.013.288.175.333.207a.05.05 0 0 0 .04.014c.06 0 .123-.002.191-.004.034 0 .07.008.101.028.025.016.048.044.076.018.005-.002.012 0 .016 0 .016.005.429.203.814-.046.24-.154.489-.534.488-.544.012-.004.279-.536.307-.56.005-.006.022-.006.023 0a.194.194 0 0 0 .096.04c.009 0 .022.004.026.014.009.006 1.915.111 2.074.147.007.006-.005 0 0 0l-.403-1.012Z" style="fill:#ec6c00;fill-rule:nonzero" transform="matrix(.94562 0 0 .94562 87.62 117.335)"/><path d="M0 .142a.45.45 0 0 1-.016-.347c.068-.165.132-.163.33-.173C.24-.13.263.124 0 .142m3.471-2.078c-.172-.318-.552-.281-.651.013-.156.453.075.384-.38.716-.179.132-.408.387-.57.474-.502.259-.729.45-.729.45-.042-.37.124-1.151.261-1.33.53-.69.235-.128.65-1.021.244-.535.448-1.115.495-1.736.024-.415.134-.728.142-1.048.018-.505-.406-1.471-.801-1.582-.119.476-.077 1.172-.113 1.683-.042.671-.193.968-.273 1.548-.074.498-.641 1.99-.817 2.243-.145.209-.112.164-.253.198-.273-.534.183-.626.386-.889.119-.415.005-.717-.355-.799-.418-.099-.618.1-.785.342-.216.306-.386.384-.608.574-.284.234-.297.517-.68.517-.118-.232-.003-.136-.201-.568-.11-.255-.035-.309.081-.592.147-.361.039-.257 0-.576-.03-.251.044-.518-.002-.751l-.094-.294c-.268-.749-1.202-.642-1.562-.347l-.142.124c-.12.097-.046.019-.151.115-.608.562-.687.958-1.094 1.279-.321.255-.396.466-1.248 1.114-.251.196-.764.533-.857.787.242-.021.149-.063.365-.082.442-.044.18.05.318.124l.816.083c.46-.044.979-.368 1.289-.361.058.002.081-.007.09-.017-.066-.047.023-.017 0 0a.391.391 0 0 0 .083.057c-.796.502-.149.409-.933.827-.375.197-.31.103-.644.076-.175-.011-.951.426-1.174.533-.253.12-1.033.437-1.274.456-.432.042-.473-.075-.761-.171-.772.6-.294 1.169-.011 1.239.739.17 2.352-.673 2.983-.944.23-.096.456-.245.644-.327.5-.211.503-.179.643-.077-.1.227-.658.978-.859 1.099-.269.16-.338.152-.497.498-.118.273-.246.47-.205.801.197.215.397.395.681.424.461.04.405-.268.746-.367.143.296.122.677.283.905.184.264.713.304.914.086L-2.302.642c.116-.185.022.106.114-.238.182-.679.381-.631 1.009-1.306.147-.16.49-.504.797-.472-.014.655-.441.876-.625 1.525-.211.726-.725.363-.643 1.483.491.197.468.325.871-.03.195-.175.57-.445.895-.371.145.477-.371 1.941-.534 2.542-.281 1.022.158.179-.55 1.646-.4.831-.479 1.082.007 1.386.301.187 1.049.335 1.163-.695L.346 4.01c.037-.324.766-1.374.672-2.777C.97.461 1.513.368 2.401-.125c.728-.399 1.538-.963 1.07-1.811" style="fill:#ec6c00" transform="matrix(.94562 0 0 .94562 71.635 119.057)"/><path d="m0 1.253-.256.156c-.253.165-.051.089-.357.175-.016.004-.043.006-.058.011-.467.122-.33.28-1.056.262-.227-.003-.283-.024-.614-.273l-.106-.104c.366-.422.186.072 1.406-.123.354-.05.311-.128.643-.239.682-.234.252-.275.657-.22.016.252-.069.249-.259.355M3.993.608C3.545-.329 2.621-.435 1.766-.861c-.408-.203-.254-.285-.595-.382-.153-.044-.417.017-.609.014-.833-.014-2.719-.701-3.622-.944-.639-.173-2.067-.584-2.6-.57 0 0-.349.066-.436.142-.166.135-.041.597-.041.597.336.269 1.681.791 2.169.797l2.163.454c.366.105.381.002.664.008.199.002.524.078.715.118-.208.325-.386.277-.691.368-.333.1-.467.185-.755.273l-1.22.108C-3.213.11-3.234.09-3.343.076-3.628.03-3.398.052-3.587.052-4.073.05-4.664.124-5.255.078-6.362 0-6.217-.321-6.607.789c1.711 1.725 1.786.597 2.5 1.084.07.42-.248.205.185 1.083.52 1.054 1.097.658 2.151.524.487-.058.654-.189 1.084-.368C.4 2.656 1.461 2.677 1.76 1.698c.113-.365.123-.28-.031-.586-.132-.26-.441-.835-.367-1.08C2.721.31 3.438 1.943 3.993.608" style="fill:#ec6c00" transform="matrix(.94562 0 0 .94562 58.032 113.832)"/><path d="M0-1.68c.016.546.021.676.502 1.104.687.617 1.445 1.787 2.095 1.678.534-.084.761-.515.8-1.015.037-.453-.177-.736-.317-1.159-.152-.472-.498-.627-.877-.99-.691-.667-1.195-.829-1.864-.307L0-1.68Z" style="fill:#ec6c00" transform="matrix(.94562 0 0 .94562 57.62 111.791)"/></svg>