<svg xmlns="http://www.w3.org/2000/svg" width="154" height="157" fill="none"><g filter="url(#a)"><path fill="#fff" d="M13 0h128v128H13z"/><path fill="#1A6E99" d="M105.873 57.03c.766.02.957.506 1.343.896v.897a2.74 2.74 0 0 1-.393.617c-.216.439-.402.892-.557 1.357-.205.468-.57.872-.673 1.456l1.01-.166v-.227a8.972 8.972 0 0 1 2.017.167c.037.108.056.222.056.336-.145.15-.223.38-.393.504a7.527 7.527 0 0 1-1.68.765c-.539.199-1.162.17-1.623.447-.461.276-1.772 2.247-1.85 2.8 1.251.797 2.165 2.03 3.587 2.632.868.355 1.927.28 2.913.28.034.09.053.185.056.28-.046.057-.021 0-.056.114-.429.198-1.064.354-1.457.617-.213.152-.266.435-.446.616-.316.312-.943.277-1.57.28-.252-.354-.801-.482-1.064-.84-.411-.56-.577-1.24-.953-1.85-.202-.326-.503-.645-.73-.953-.227-.308-.397-.652-.783-.73-.252.709-1.035 1.23-1.457 1.793-1.006 1.343-2.307 2.127-3.753 3.027-.968.606-1.939 1.392-3.473 1.417v-.223c.953-.251 1.492-.96 2.187-1.457 1.825-1.304 3.21-3.069 4.426-4.986.429-.677 1.258-1.393 1.418-2.296-.543-.142-1.804-1.276-1.903-1.85.108-.038.222-.057.336-.057.744.514 2.02.255 2.913.057.195-.653.709-1.184 1.01-1.737.302-.553.419-1.063.674-1.623.308-.72.843-1.34.868-2.36Zm-36.649-.61c.869 0 2.549.592 2.747 1.177.125.241.182.511.167.783a5.4 5.4 0 0 0 1.456-.28c.089-.064.096-.234.224-.28.541-.013 1.083.006 1.623.057a.844.844 0 0 1 .223.616.532.532 0 0 0-.167.224c-1.669.19-2.658 1.417-4.252 1.513v-.223l.4-.273v-.057h-.113c-.188.124-.43.089-.674.166-.99.37-2.034.573-3.09.6v-.213c1-.135 2.126-1.063 2.126-2.187a13.379 13.379 0 0 1-.67-1.623Zm2.297 6.723c.021-.45.46-.91.113-1.12v-.057c-.056-.056-.056.057-.056.057-.596.198-.9 1.003-1.418 1.343-.709.479-1.74.68-2.48 1.12-.355.22-1.369.876-1.418-.057.102-.13.124-.311.223-.446.267-.267.573-.493.907-.67.447-.354 1.017-1.22 1.623-1.343.042.222.042.45 0 .673h.057l1.01-.336c.539-.334 1.336-1.234 2.48-.897.242.07.607.216.898.28a.535.535 0 0 0 .166.28c.025.524-.021.936-.393 1.063-.568.073-1.14.11-1.712.11Zm-1.233 1.736h.336c.195.277.585.355.784.617.17.272.358.533.56.783.04.363-.018.73-.167 1.064-.227.354-.624.269-.673.84.275.31.519.65.726 1.01a10.78 10.78 0 0 0 2.073 2.296c.287.216.472.592.784.783.418.259 2.062.55 2.126 1.01a3.164 3.164 0 0 1-.673.28h-.833c-.302.068-.709.213-.954.28a1.96 1.96 0 0 1-1.57-.393c-1.063-.663-1.038-1.035-1.623-2.126-.372-.71-.808-1.45-1.176-2.187h-.114c-1.14 1.772-2.066 2.48-3.866 3.586-.847.514-1.599.943-2.995.784 0-.057-.089-.114-.089-.167h.114c.191-.124.503-.078.73-.166a6.806 6.806 0 0 0 1.457-.784 8.953 8.953 0 0 0 1.456-1.57c.355-.45.858-.811 1.177-1.29.404-.606.68-1.332 1.176-1.85-.244-.957-1.51-1.704-1.623-2.576.755.046 1.747 1.01 2.073 1.513h.057v-.057c.395-.48.647-1.063.727-1.68Zm16.242-2.817v-.166c.444-.356.857-.75 1.233-1.177v-.114c-.315-.11-.244-.591-.223-1.01a9.35 9.35 0 0 0 1.343-1.736h-.113a4.645 4.645 0 0 1-.954.73c-.613.46-1.127 1.084-1.736 1.57-.404.322-.606.83-1.177 1.01-.5.156-2.654.624-2.747-.113 1.064-.263 1.698-1.17 2.481-1.737 1.01-.751 2.06-1.393 3.137-2.073.16-.1.354-.294.503-.394.298-.173.641-.184.897-.393l.28-.393h1.12c.056.046 0 .02.113.056.164.227.243.504.223.784-.273.22-.354.613-.56.896l-.503.447a9.702 9.702 0 0 1-1.12 1.456c.036.1 0 .053.057.114.175.18.362.348.56.503l.056.447a3.82 3.82 0 0 1-2.87 1.293Zm-5.958 3.416c1.007 0 1.872 1.18 1.85 2.297a1.127 1.127 0 0 1-.84.223c-.134-.085-.386-.074-.503-.166-.117-.092 0-.323-.056-.504-.164-.574-.444-1.027-.45-1.85Zm.996 3.757h.28c.397.5.79.539.783 1.513a1.415 1.415 0 0 0-.28.224 2.806 2.806 0 0 1-.616-.057 1.21 1.21 0 0 1-.057-.393c.266-.373-.067-.94-.11-1.287Zm-2.452 1.23c.662.032 1.549.432 2.186.617.71.209 1.39.22 2.074.446 1.527.51 3.083 1.063 4.706 1.457.897.223 2.275-.17 3.25-.167a.88.88 0 0 1 .057.28c-.046.057-.022 0-.057.114a7.015 7.015 0 0 1-.84.56c-.354.152-.751.141-1.063.336-.4.308-.776.644-1.127 1.007-1.549.046-2.158-.816-3.08-1.418a23.179 23.179 0 0 0-3.586-1.737c-.858-.336-2.332-.531-2.52-1.495Zm5.323-5.713-.057.897h.057c.216-.234.787-1.092.953-1.315.55-.741 1.467-1.772 2.297-2.212.443-.24 1.963-.652 2.413-.046.542.734-1.02 1.747-1.184 3.899l-.056.783c-.192.78-.273 1.772-.447 2.52-.191.818.12 2.108-.84 2.126-.117-.103-.305-.152-.393-.28-.213-.308-.18-.709-.617-.783-.11.354-.428.514-.896.503a1.357 1.357 0 0 1-.114-.393c.316-.355.177-1.503.167-2.127h-.114c-.202.142-.563 0-.73-.056a1.03 1.03 0 0 1-.056-.337c.394-.665.696-1.38.896-2.126-.251-.132-.248-.203-.028-.291.354-.142.447-.298.418-.886h-.057c-.574.907-1.268 1.772-1.57 2.97-.194.794.504 1.417-.056 2.126a1.485 1.485 0 0 1-.727.167 2.746 2.746 0 0 1-.602-.943c-.23-.865.319-2.169.503-2.747.184-.577.191-1.378.84-1.456v.007Zm3.98-2.183a6.015 6.015 0 0 1-.617.393c-.436.323-.83.762-1.29 1.063v.114c.383.262.33 1.18.447 1.68.709.16.623.276.953.783.064-.918.4-1.829.617-2.69.092-.376.173-1.063 0-1.29-.057-.046 0-.021-.114-.057l.004.004Zm-.674 4.37a4.752 4.752 0 0 1-.896.946 17.71 17.71 0 0 0-.114 2.073c.153.092.54.298.674.223.145-.205.042-.464.113-.783.071-.376.316-2.282.223-2.463v.004Zm26.658-7.68h.21c.354.5 1.155 1.02 1.417 1.552.131.27.245.815.053 1.063a.523.523 0 0 1-.354.386.774.774 0 0 1-.525 0 6.663 6.663 0 0 1-.801-3.001Zm2.878 6.79a5.744 5.744 0 0 0 2.247-.24c.301-.118.514-.412.837-.486.297-.007.594.01.889.05.042.14.06.288.053.435a5.18 5.18 0 0 0-.354.535 9.345 9.345 0 0 1-.943.776c-.287.029-.631.107-.836-.05a.391.391 0 0 1-.053-.24l.354-.241v-.05h-.106c-.61.46-2.052.308-2.088-.489Zm3.562 2.304v-.114c.168-.083.343-.148.524-.195v-.113c-.304.05-.604.123-.896.22v.088c.446.355.273.964.418 1.602.213.936.106 1.875.106 2.91 0 .393.057 1.46-.106 1.697a.516.516 0 0 1-.354.355c-.188.138-.415.074-.681.05-.287-.355-.709-.394-1.152-.631-.967-.543-1.998-1.064-2.927-1.602-.379-.224-1.092-.43-1.152-.922.709.046 1.23.542 1.882.727l1.772.195c.356.108.727.157 1.099.145.354-.355.067-1.046.209-1.648.142-.603.397-2.183.312-2.669h-.156c-.266.23-.684.295-.993.486-.79.485-1.545 1.219-2.98.97-.23-.322-.422-.438-.418-1.016.372.017.538.24.939.145a5.31 5.31 0 0 0 1.063-.485c.677-.33 1.386-.617 2.038-.922.709-.33 1.467-.337 2.3-.581.436-.128.571-.454 1.152-.486.294.188.709.202.992.387l.418.436v.386a5.8 5.8 0 0 1-3.409.585Z"/><path fill="#1A6E99" d="M121.045 53c.953 0 1.907.886 1.882 1.843a6.04 6.04 0 0 1-.574.638c-.585.407-1.198.815-1.772 1.212-.234.163-.745.411-.784.581.078.071.309.156.355.096.4-.117.709-.43 1.099-.581 1.194-.486 2.236-.908 3.544-1.312.708-.212 1.311-.397 2.041-.152.106.035.174.088.163.29-.05.894-1 1.464-1.471 2.045a35.038 35.038 0 0 0-2.038 2.814c-.102.16-.106.326-.209.486a4.75 4.75 0 0 0-.68 1.116h.209c.429-.283 2.091-.546 2.718-.68.443-.096 1.085 0 1.255.195.531.666-.635 1.417-.993 1.648a8.878 8.878 0 0 1-2.247.872l-1.417.194c-.911.252-1.698.624-2.874.631.021-.099 0-.092.053-.145.251-.206.641-.22.943-.386a34.053 34.053 0 0 1 3.661-1.553c.467-.191 1.339-.379 1.516-.825h-.156c-.221.071-.449.12-.68.145-.641.195-1.347.322-2.038.535-.25.057-.495.137-.73.241-.273.163-.478.486-.836.581-.411.114-.61-.191-.89-.145-.289.091-.569.21-.836.354-1.035.408-1.946.71-2.772 1.262-.967.67-1.733 2.945-3.104 3.264-.199.046-.408.089-.5-.127-.08-.41-.007-.835.206-1.195.432-.74.967-1.495 1.463-2.183.178-.248.252-.567.628-.63-.05.354-.291.524-.419.775-.404.805-.875 1.464-1.254 2.28h.106l1.063-.922c.408-.38.741-.89 1.202-1.212.602-.422 1.226-.84 1.882-1.212.51-.288 1.102-.479 1.619-.727.121-.057.45-.1.525-.195v-.843a2.764 2.764 0 0 1-1.255-.68c-.092.031-.049 0-.106.049-.596.443-.847 1.439-1.882 1.456a.63.63 0 0 1-.053-.195 3.022 3.022 0 0 0 1.201-1.942.816.816 0 0 1-.262-.195c-.291.178-.925.394-.943-.195.224-.19 0-.765-.102-1.017-.217-.584-.263-1.176-.472-1.793a3.816 3.816 0 0 1-.312-1.017h.209c.11.16.305.245.419.386.379.479.708 1.063 1.063 1.553.248.382.458.788.627 1.212.067.177 0 .269.106.386a3.396 3.396 0 0 0 .943-1.893 1.98 1.98 0 0 1-.574-1.116l.734.05c.567-.826 2.073-2.322 2.197-3.395a1.448 1.448 0 0 1-.355-.727h-.042Zm4.607 2.764c-1.063 0-1.921.606-2.718.922-.471.188-1.021.273-1.361.581h.043c.535.737 1.442 1.205 1.151 2.619h.054v-.046c.211-.242.401-.501.567-.776.489-.642.992-1.248 1.463-1.942.266-.39.709-.805.783-1.358h.018Zm-3.083 4.366c-.526.272-1.067.514-1.62.727-.17.064-.581.067-.68.195v.486c.195.3.042.726.524.776.521-.776 1.287-1.397 1.829-2.184h-.053Zm-2.725-.24h.155v.095c.125.202-.028.355.263.436.613-.517 1.634-.492 1.673-1.552-.174-.238-.167-.567-.312-.826a3.1 3.1 0 0 0-.574-.581l-.419.145c.181.174.652.504.472.971-.078.199-.355.223-.521.355a4.08 4.08 0 0 0-1.152 1.552.805.805 0 0 0 .354.145v-.05h.061v-.69Zm-62.205 9.565c.135-.559.207-1.13.216-1.705.062-.354.15-.704.263-1.045.092-.394.148-.812.201-1.184.055-.33.07-.666.047-1a.684.684 0 0 0-.394-.262c-.127 0-.237-.06-.354-.035a1.263 1.263 0 0 0-.355.135 3.224 3.224 0 0 0-.517.297 2.254 2.254 0 0 0-.861.975c-.142.305.078.953-.036 1.261a.219.219 0 0 1-.17.146c-.443.1-1.024.113-1.417.429-.394.315-1.085.879-1.358.942a6.099 6.099 0 0 1-1.953.025 1.621 1.621 0 0 1-.531-.386c-.131-.225-.2-.48-.199-.74.04-.082.022-.104.15-.15.174-.04.35-.073.527-.095.255-.064.49-.17.727-.245a7.143 7.143 0 0 0 1.187-.539c.184-.095.6-.311.592-.584a.404.404 0 0 0-.05-.273 1.83 1.83 0 0 0-.51-.518c-.18-.106-.493.103-.68.174a2.7 2.7 0 0 1-.571.255c-.262-.18-.776-.276-1.08-.666a.71.71 0 0 1-.107-.184.475.475 0 0 0-.025-.078c-.028-.103-.035-.195-.06-.291a.332.332 0 0 1 .046-.354c.134-.142-.163-.16 1.035-.103a.708.708 0 0 0 .372-.075.784.784 0 0 1 .276-.138c.323-.096.606-.099.95-.23.52-.175.987-.482 1.354-.89.237-.34.417-.717.531-1.116.114-.308.22-.642.312-.992.071-.27.12-.486.192-.755.02-.089.053-.241.081-.323.071-.237.16-.457.227-.677.166-.545.273-1.038.567-1.109.17-.043.348-.043.517 0a.386.386 0 0 1 .266.18c.5.873.51 1.064.553 1.32.05.304-.12.91-.354 1.661-.04.135.244.135.591-.021.192-.085.468-.248.302-.145-.167.102.354-.305.475-.436.12-.131.418-.404.475-.46.056-.058.723-.21.86-.072.39.372.536.482.242.925-.218.35-.556.61-.95.73-1.623.755-2.208.96-2.814 1.347-.52.308-.751.709-1.418 1.453-.273.308-.58.49-.659.649-.11.22.128.538.397.584.27.046 1.063-.574 1.524-.886.248-.17.776-.407 1.325-.687.209-.09.41-.194.607-.309.255-.173.474-.418.708-.605a.563.563 0 0 1 .323-.146c.227-.025 1.13.043 1.215.323.06.294.06.598 0 .893a5.449 5.449 0 0 1-.396 1.74c-.235.408-.44.832-.617 1.269-.773 2.073-.783 4.252-1.177 5.805a.5.5 0 0 1-.322.294 1.458 1.458 0 0 1-1.177-.688 8.91 8.91 0 0 0-.546-.751c-.1-.118-.22-.219-.354-.298a1.217 1.217 0 0 1-.404-.276c-.075-.1-.429 0-.546.11-.446.407-.056-.046-.556 1.605-.043.138-.145.195-.21.287-.141.21-.145.255-.255.277-.165.044-.338.05-.506.017-.107-.035-.23 0-.259-.106-.082-.28.237-.943-.025-1.226-.262-.284-.737-.153-.808-.238a.51.51 0 0 1 .029-.68c.187-.216.311 0 .453-.12.213-.164.234-.398.124-.483-.11-.085-.166-.031-.216-.11-.21-.322-.22-.651-.039-.815.35-.186.722-.323 1.11-.407a6.793 6.793 0 0 1 1.59-.287c.121.056.33.276.125.46-.135.121-.288.22-.27.465.032.471.57.709.88.939.392.28.829-.043 1.154-.326.161-.2.298-.42.408-.652Zm-8.842 3.136c-.181-.85.028-1.541.113-2.176.071-.51.146-1.084.202-1.623 0-.067.071-.138.085-.209.029-.135.064-.117.202-.078.139.039.28.092.355.418.07.296.246.556.492.734.187.224.357.46.51.709.153.295.257.614.309.942.067.405.083.817.05 1.227-.051.322-.151.634-.298.925a.585.585 0 0 1-.5.248 1.28 1.28 0 0 1-.613-.32c-.365-.255-.858-.563-.907-.797ZM36.875 73.764c-.16.157-.367.258-.589.291a6.115 6.115 0 0 1-1.31 0c-.408-.046-.795-.128-1.103-.177-.308-.05-.542 0-.581-.092a.825.825 0 0 1-.036-.465c0-.074-.046-.209.025-.29.071-.082.092-.178.252-.234.16-.057.28-.156.414-.223.532-.266 1.925-.77 1.701-.71-.102.033.472-.17.54-.187.173-.053.634-.177.708-.191.107-.041.22-.069.333-.082.109.007.217.023.323.046a.3.3 0 0 1 .099.025c.195.096.308.138.496.227.092.042.27.166.386.212a.54.54 0 0 0 .167.046 1.001 1.001 0 0 0 .783-.46c.094-.234.154-.48.177-.73.057-.355 0-.745.089-1.106a7.38 7.38 0 0 1 .581-1.39c.029-.056.227-.439.305-.616.23-.472.49-.927.78-1.364.078-.128.163-.309.237-.419.184-.272.39-.531.539-.797.149-.266.248-.383.251-.383a.581.581 0 0 0-.06-.319.545.545 0 0 0-.276-.202 2.21 2.21 0 0 0-.57.142c-.086.043-.082.043-.164.089l-.312.18c.482-.29.259-.141-.096.078-.081.05-.446.29-.51.305-.198.05-.645.532-.85.691a4.05 4.05 0 0 0-.691.709.96.96 0 0 1-.238.276c-.06.036-.057.153-.06.245 0 .21-.046.436-.068.68 0 .085-.159.128-.162.213-.022.617-.17.652-.305.78a.787.787 0 0 1-.514.085.762.762 0 0 1-.326-.429c-.04-.156-.075-.354-.124-.507-.05-.152 0-.297-.046-.41-.046-.114-.23-.33-.323-.313a1.928 1.928 0 0 0-.765.44l-.114.081c-.134.109-.26.227-.375.355-.047.05-.093.053-.139.102a8.93 8.93 0 0 0-.524.674c-.075.113-.16.191-.227.312-.021.039-.12.134-.145.177-.057.103-.1.145-.15.255-.049.11-.254.5-.29.585-.035.085-.127.336-.134.354a3.184 3.184 0 0 1-.174.49 2.785 2.785 0 0 0-.199.538c-.116.024-.235.04-.354.046-.142 0-.244-.082-.29-.082 0-.081.028-.276.024-.354a7.95 7.95 0 0 1-.092-.811 4.79 4.79 0 0 0 .1-.578.478.478 0 0 0-.22-.266l-.018-.004h-.05a.131.131 0 0 0-.078 0c-.053.029-.156.071-.22.11-.138.082-.24.177-.354.27-.27.222-.522.468-.751.733a7.26 7.26 0 0 0-1.063 1.903c-.124.404-.355.759-.5 1.149-.07.191-.167.503-.319.58-.26.094-.54.125-.815.09a2.463 2.463 0 0 1-.514-.05c-.067 0-.089-.082-.149-.135a5.264 5.264 0 0 0-.28-.212 1.47 1.47 0 0 0-.223-.128c-.096-.046-.177-.081-.184-.089a.765.765 0 0 1-.135-.163 3.223 3.223 0 0 1 0-.815c-.046.089.18-.875.202-1.17.002-.177.017-.355.046-.53.057-.224-.096-.323.39-.355.12 0 .205.195.354.28.15.085.355.258.418.276a.65.65 0 0 0 .227.043c.04 0 .096-.064.142-.085.156-.089.74-.529.815-.596.21-.147.41-.308.6-.482.481-.492.967-1.01 1.123-1.148.155-.138.432-.355.673-.56l.276-.223c-.042.039.71-.606 1.063-.964.15-.133.288-.276.415-.43a.447.447 0 0 0 .089-.261 6.25 6.25 0 0 0 0-.762v-1.794a.428.428 0 0 1 0-.194c.021-.068 0-.093.046-.167.03-.073.066-.144.106-.213.085-.124.191-.163.308-.294.28-.308.71-.542.95-.84a.734.734 0 0 0 .1-.312c0-.067.031-.099-.032-.138a2.159 2.159 0 0 0-.49-.202 2.71 2.71 0 0 1-.432-.177 7.684 7.684 0 0 1-1.063-.78c-.043-.23-.262-.429 0-.418.273-.106 1.286-.021 1.772 0 .343.016.686-.014 1.02-.089.054 0 .894-.233 1.135-.319a14.5 14.5 0 0 0 1.478-.673s.528-.337.808-.493c.07-.038.294-.141.354-.184.163-.092.354-.188.514-.287.354-.223.709-.414 1.063-.659.152-.1.316-.184.471-.301.156-.117.486-.284.667-.4.099-.064.244 0 .429.102a1 1 0 0 1 .209.1c.167.12.308.275.414.453.074.188.13.383.167.581.012.291-.047.581-.174.844a3.832 3.832 0 0 0-1.063.262c-.315.138-.553.354-.886.52a10.28 10.28 0 0 0-2.19 1.397c-.085.085-.12.089-.163.184-.043.096-.046.224 0 .266.215.164.392.373.517.613.073.358.104.723.092 1.088a.529.529 0 0 0 .21.433c.326.212.457.11.765-.05.471-.248.875-.354 1.308-.602.352-.217.691-.454 1.017-.71 0 0 .326-.127.5-.176.122-.035.249-.046.375-.036.227.081.44.195.635.337.184.113.41.177.531.354l.145.224c.192.29 0 .683-.092 1.024a.776.776 0 0 1-.141.354c-.261.259-.478.558-.642.886-.086.16-.16.326-.223.496-.097.28-.215.551-.355.812-.265.425-.556.613-.754 1.091-.064.153-.103.323-.16.444-.397.85-.496 1.297-.83 2.094-.063.152-.091.298-.141.457-.177.557-.411 1.141-.581 1.719a7.28 7.28 0 0 1-.355.925 1.69 1.69 0 0 1-.354.55c-.078.077-.135.08-.262.145-.168.098-.345.18-.528.244-.249.03-.5.03-.748 0-.259 0-.408.046-.521-.117a9.858 9.858 0 0 1-.454-.879 2.299 2.299 0 0 0-.262-.414.628.628 0 0 0-.489-.167.906.906 0 0 0-.578.67 1.939 1.939 0 0 1-.13.595l.003.007ZM34.72 63.487l-.21.198.043.46c.113.338.258.663.433.972.148.178.335.321.546.418l.354.036c.458-.147.906-.321 1.343-.521.333-.158.635-.373.893-.635l.216-.191c.14-.378.21-.778.21-1.18 0-.677-.071-.737-.071-.737a1.255 1.255 0 0 0-.45-.39 3.092 3.092 0 0 0-.71-.071 3.619 3.619 0 0 0-.946.478c-.325.181-.64.381-.942.6-.22.194-.493.354-.709.556v.007Z"/></g><defs><filter id="a" width="154" height="157" x="0" y="0" color-interpolation-filters="sRGB" filterUnits="userSpaceOnUse"><feFlood flood-opacity="0" result="BackgroundImageFix"/><feColorMatrix in="SourceAlpha" result="hardAlpha" values="0 0 0 0 0 0 0 0 0 0 0 0 0 0 0 0 0 0 127 0"/><feOffset dy="16"/><feGaussianBlur stdDeviation="6.5"/><feColorMatrix values="0 0 0 0 0 0 0 0 0 0 0 0 0 0 0 0 0 0 0.03 0"/><feBlend in2="BackgroundImageFix" result="effect1_dropShadow_185_230"/><feBlend in="SourceGraphic" in2="effect1_dropShadow_185_230" result="shape"/></filter></defs></svg>