<svg xmlns="http://www.w3.org/2000/svg" width="154" height="157" fill="none"><g filter="url(#a)"><path fill="#fff" d="M13 0h128v128H13z"/><path fill="#1971AF" fill-rule="evenodd" d="m36.774 54.293.125.062c.047-.009.178 0 .19.042l.009.032c.014.069-.095.14-.137.149l-.036.009c-.038.009-.047.003-.083.006l-.068-.3Zm1.613-1.644c-.009-.226-.166-.205-.36-.16l-.068.015.01.032c.005.03.08.16.1.179l.179.737-.066.074-.009-.009-.006.036c-.104.026-.11.1-.166.157a2.702 2.702 0 0 1-.244.113c-.011.027-.026.036-.02.065l.014.069c.012.053.12.208.167.199l.056-.012c.045-.009.143-.14.155-.175l.009.003.199-.12c.015.028.02.028.027.057l.059.259c-.056.018-.247.336-.32.356-.019.066-.212.19-.304.211l-.012.003c-.033.006-.03-.003-.041-.026l-.057.011c-.006-.03.02-.205.05-.21l.08-.018c.007-.054.033-.018.022-.066l-.063-.28-.035.01c-.027.006-.036 0-.042-.027l-.063-.28-.106-.611.044-.11-.015-.098c-.018-.075-.22-.188-.294-.17l-.08.018c-.045.012-.063.071-.095.098-.01.01-.12.077-.122.08-.092.05-.181.101-.155.214l.01.033.035-.009c.05-.012.065-.098.166-.119l.057-.012c.089-.02.184.057.202.143l.095.416c.024.098.06.264.068.36.003.041-.047.25-.086.258l-.024.006c-.035.009-.077-.02-.086-.062l-.009-.045c.03-.015.063-.047.054-.083l-.018-.077c-.006-.033-.08-.06-.122-.057l.02-.024h-.088c-.128.024-.095-.032-.155-.041l-.009-.045c-.009-.038 0-.044-.006-.08l.101-.036.14-.03-.009-.032c.036-.009.06-.009.05-.048l-.011-.056c-.027-.09-.057-.069-.075-.137-.062-.003-.112-.041-.222-.02-.09.017-.188.041-.277.062a.219.219 0 0 0-.133-.006l-.104.024c-.057.012-.075.053-.09.092l.143.627c.024.1.033.226.056.306.033.107.122.083.206.107-.06.208-.565.243-.532.392l.005.024c.012.056.194.145.283.125l.08-.018c.056-.012.134-.09.229-.11.003-.042.184-.253.255-.27.021.086-.035.297-.098.317.01.075-.107.09-.095.176l-.199.175.01.009c-.042.009-.072.009-.063.05.009.033.08.054.119.045l.104-.024c.14-.032.237-.223.303-.306.053-.068.062-.14.104-.187.038-.042.107-.119.11-.175.13-.018.154.077.24.142.05.039.164.179.23.164l.035-.01c.047-.011.068-.172.071-.225.015-.154-.044-.122.155-.166.044-.045.18-.104.246-.149.063-.042.17-.166.202-.175l.06.14.047.237c.006.033-.038.104-.071.11l-.024.006c-.113.027-.136-.045-.226-.033l.018.048c.018.083.19.151.25.19.044.03.077.039.13.086.021.018.11.083.137.08l.036-.009c0-.011.08-.14.098-.18.024-.054 0-.17-.027-.247a5.778 5.778 0 0 1-.142-.523l-.042-.179c-.024-.098.229-.273.217-.333l-.015-.068-.062-.027-.101.003-.024.01c-.042.008-.036.047-.03.088-.038.01-.056.018-.065-.02l-.045-.203c-.012-.059.348-.237.31-.4l-.013-.057c-.009-.039-.053-.143-.089-.134l-.047.012c-.048.012-.057.024-.06.06l-.047.008c.009.069-.06.12-.128.134-.015.003-.039-.015-.045-.035l-.02-.09c-.024-.13-.078-.395-.08-.517Zm-1.69 1.302c-.012-.063-.027-.125-.04-.187.084-.03.158-.05.18.009.02.083-.04.136-.14.178Zm.641.823a.134.134 0 0 1-.035-.128.2.2 0 0 1 .16-.086c.069.024.107.074.08.184-.083.042-.151.05-.205.03ZM33.62 55.829c.034-.066.17-.205.254-.268l.047-.032c.06.086.02.175.056.237l-.231.214-.05.033-.075-.184Zm-.57-.27c-.023-.033.125-.25.176-.295l.026.036c.033.044.042.294.08.348l-.002.011-.241-.065-.039-.035Zm.259-1.055c-.092-.107-.229-.084-.285-.158-.084.033-.173-.128-.431.06.009.023.006.026.023.053l.021.027c.048.065.217.06.312.193l.131.184c.05.071-.104.253-.146.324-.041.071-.16.247-.237.303l.015.045c-.036.041-.306.246-.274.297l.006.009c.018.023.146.047.178.06.042.011.146.014.194-.022l.074-.053c-.006-.027.05-.134.077-.152l.048-.032.1.136c.024.033.078.14.045.164l-.038.026c.009.036-.149.22-.194.253l-.112.083c.011.048-.04.045-.006.09l.011.017c.027.039.072-.003.128.078.027.038.101.25.084.273l.225.312c.078.107.253.265.354.19l.03-.02c.065-.048.068-.19.032-.235l-.442-.547c-.06-.012-.128-.054-.19-.03l-.027-.035c.056-.051.157-.185.193-.212l.074-.053c.027-.018.03-.015.054-.024l.014.045c.027.006.033 0 .048.02l.027.036.089-.006-.039.039c-.035.027-.015.137.018.184l.039.057c.03.038.13.032.172 0l.086-.063c-.012-.032-.009-.05.03-.077l.03-.02.02.178c-.053.05-.068.074-.017.142.071.101.222.101.279.149l.039-.027.03.018.035-.027c.042-.03 0-.083.065-.13l.01-.007c.04-.03.18.072.216.122.063-.018.107.092.175.042l.01-.006c.017-.012.053-.223.03-.259l-.099-.136.018-.015-.068-.12c-.003-.068-.036-.044-.003-.097.026-.039.02-.039.032-.086.018-.063 0-.128-.047-.197-.015-.02-.042-.026-.066-.008l-.121.089-.012-.018-.039.027c-.036-.042-.045-.021-.071-.06l-.012-.018c-.015-.02-.006-.026-.01-.05l.117-.122-.05-.092c-.042.018-.06.02-.09-.02-.047-.066-.003-.18-.003-.239.003-.086 0-.151.098-.223l.012-.038.253-.229.116-.08c.035-.027.011.012.07-.024.042.056.078.074.11.13l.075.129.06.282.044.119-.027.018.05.24-.008.128-.015.077.012.003c-.018.021-.015.024-.042.045l-.047.033c-.027-.021-.146-.048-.196-.012.03.041.178.107.223.133.047.027.06.078.107.101.038.018.068.006.118.03l.048-.036c.024 0 .03.006.05-.008l.075-.054c.056-.041.027-.125.062-.172l-.032-.045c.032-.05-.021-.324-.021-.413 0-.053-.08-.371-.113-.428l.03-.02c-.057-.08-.048-.188-.105-.262l-.074-.101c-.035-.05-.056-.018-.107-.09l-.02.016c-.036-.039-.232-.113-.274-.08l-.039.026c-.02-.015-.047-.02-.074-.003l-.095.069-.154.145-.015.036-.146.122c-.027.017-.13-.14-.19-.152-.039-.009-.17-.009-.208.018l-.009.006a.047.047 0 0 0-.012.065l.06.083.011.143c-.059.053.027.092-.017.16-.006.01-.125.14-.131.146l-.122.09-.02-.027a1.463 1.463 0 0 1-.051-.238c.015-.098-.03-.152.006-.22-.036-.05-.05-.122-.027-.17.012-.02.092-.13.104-.14l-.009-.035c.062-.047.119-.134.16-.19.018-.024.09-.178.072-.202l-.021-.027a.784.784 0 0 0-.247-.044l-.119.083c-.035.026-.03.047-.07.095-.028.03-.054.062-.03.1l-.048.04Zm.615 1.658c.024-.063.044-.072.056-.027.012.068.036.095.084.05.03.018.056.036.047.084a.202.202 0 0 1-.071.119c-.033.026-.06.03-.08.02-.03-.08-.06-.163-.036-.246ZM48.348 57.656c.048-.023.152-.038.184.027l.012.021c.012.024.003.027.003.053.018.036.039.06.003.08l-.041.021c-.015.01-.182.051-.194.033-.059-.116-.02-.13-.035-.196l.068-.039Zm.847 0c.018-.008.11.01.187-.041l.128-.08c-.003-.048.11-.113.036-.259-.021-.042-.306.149-.366.098-.089.045-.19.03-.285.08l-.042.021c.006.054-.092.098-.062.155.02.038.053.047.095.032.02.027.068.06.074.069.01.017-.012.05-.018.062l-.223.054-.017-.036c-.021-.039-.015-.143-.003-.175.03-.08-.021-.096-.066-.179l.205-.107c-.011-.053.024-.107-.003-.157l-.026-.054c-.027-.05-.095-.086-.149-.056l-.009.006c-.02.012-.006.178-.071.21l-.03.016-.65.306h-.051l-.048-.086c.069-.036.078-.012.134-.042l.101-.053.128-.08-.01-.01.072-.068.01-.047.035-.021c.047-.024.113-.107.1-.16l-.175.062-.026-.027c-.086.044-.131.027-.223.074l-.02.012-.209.125c.006.033-.036.137-.053.145-.027.015-.241-.163-.256-.19-.015-.03.163-.21.134-.27l-.018-.033c-.054.015-.125.033-.16-.009-.06.03-.108.015-.19.06l-.051.026-.208.125.009.018-.03.015c-.024.012-.018.02-.03.041-.17.087-.1.15-.202.212l.018.032-.03.015.027.053.006-.008.056.041.11-.015.003.015.399-.187.083.163c.038.075.113.057.163.093.054.038.092.08.146.118.065.045.098.048.151.125 0 .003.14.122.146.125.116.068.196.13.309.208.048.033.104.077.149.11.05.039.03.042.068.092.024.03.06.042.068.06l.039.074c.036-.003.047.015.068.056l.018.033c.012.024.006.05-.02.062-.025.012-.11-.023-.134-.044-.03-.027-.099-.095-.116-.11-.024-.018-.045-.012-.069-.03-.026-.018-.023-.03-.053-.05-.024-.015-.05-.027-.066-.039-.017-.015-.032-.039-.053-.053-.042-.033-.22-.161-.24-.182-.042-.053-.185-.22-.233-.214-.023-.044-.092-.181-.133-.157l-.042.02c.003.013-.012.194-.015.224l.054.133.009.01c.032.062.071.038.119.127l.059.027.024.035c.02.042.116.006.19.143l-.042.02a2.335 2.335 0 0 1-.234-.02c-.063-.02-.16-.063-.2-.14l-.03.015c-.029.015 0 .107-.1.16l-.104.054c-.024.012-.098-.012-.11-.036l-.018-.032c-.05.006-.31-.244-.354-.327a.204.204 0 0 1-.1-.095l-.051-.095c-.033.009-.024 0-.048.012-.035.017-.02.089-.044.115.056.11.012.099.041.179.021.056.042.119-.012.154.006.027.003.03.018.06l.018.032c.048.093.068.003.163.096.051.05.096.074.137.151l.018.033-.184.095-.012-.021-.02.012h-.016l-.009-.19-.383.234c-.018.021-.053.072-.036.107.042.084.08.08.137.122.056.042.104-.003.16.048l.03-.015c.033-.018.03.015.095-.003.066-.018.033-.02.09-.012l.392-.175.009.02.03-.014c.047.056.172.154.193.196l.083.157c.053-.006.068.072.157.027l.164-.086c.053-.027.05-.077.095-.116l-.06-.116c-.03-.06-.246-.175-.267-.21l-.021-.043c-.018-.032.074-.104.074-.106l.09-.03c.011.012.184.065.21.071.045.006.194.012.238-.012l.063-.032c.062-.033.041-.084.107-.122l.05.032.036.057.041.006c.045.08.087.098.143.16.044.048.083.131.125.188.098.13.148.267.309.184l.03-.015c.086-.045.21-.146.148-.238l-.148-.232-.003-.011c-.018-.033-.042-.093-.003-.108l.285-.106c.068.038.294-.021.38.083l.042-.021c.134-.071.258-.333.19-.46-.018-.036-.184-.105-.211-.105l-.253-.252-.047-.03-.027.009c-.027.015-.1.154-.095.196l-.041.02c-.06.03-.265.07-.292.019l-.012-.021c-.017-.033.01-.071.045-.09l.05-.026c.069-.036.078.027.173-.02l.041-.022-.092-.178.033-.03Zm-1.052.015c.039.01.065.036.074.084a.101.101 0 0 1-.098.047c-.044-.018-.062-.05-.071-.09.027-.032.053-.053.095-.04Zm.556.687c.023-.057.071-.075.125-.072.038.021.068.054.074.116-.006.101-.027.155-.077.107a.32.32 0 0 1-.122-.151Zm.012-.223c-.033-.012-.054-.06-.075-.11a.519.519 0 0 1 .146-.074c.039.03.065.07.08.118-.024.069-.077.084-.151.066Zm.38.258c-.095-.062-.11-.14-.006-.208.09.036.178.069.267.098.036.01.057-.03.075-.062.044-.056.086-.045.122.062.017.06.003.099-.08.099-.128-.003-.256 0-.378.011ZM45.992 54.744c-.033-.065.02-.035-.036-.122a.633.633 0 0 0-.107-.112l-.009-.006c-.027-.018-.056-.003-.074.02-.033.048-.078.116-.048.155l-.134.238c-.032.053-.121.124-.172.196-.119.17-.11.006-.181.089-.036-.024-.164-.074-.208-.092-.05-.021-.16-.092-.202-.069-.086-.062-.16-.07-.22-.112l-.05-.036-.016.02-.11-.077c-.041-.03-.097-.053-.124-.014l-.015.017c-.074.104 0 .146-.054.223.021.039.045.149.084.175l.059.042c.015.012.077.033.122.054.086.044.056-.006.1-.015.016-.003.215.065.233.077l.05.036.021-.03c.027.012.03.006.056.027l.08.056c.025.015.025.027.01.05l-.063.087-.232.107c-.014 0-.294.038-.344.044-.155.021-.211-.008-.357-.014-.095-.066-.119-.027-.217-.096l-.038-.026-.015.02-.098-.07c-.033-.025-.042-.004-.063.026.048.053.084.232.137.27l.03.021-.015.021.1.09c.126.109.203.085.298.094.05.006.095.027.143.024.03 0 .098-.006.127 0a.743.743 0 0 0 .27-.03c.03-.012.239-.098.253-.089l.04.027-.022.03c.021.017.104.297.125.35.06.042.09.072.06.128.089.074.062.151.104.19l-.048.069c-.05-.021-.19-.113-.214-.078-.036.054.184.241.214.31l.05.035c0 .033.033.11.069.134l.13.092c.045.03.122.06.152.02l.02-.03c.063-.085.051-.133.108-.213-.033-.063-.122-.196-.101-.259l-.039-.026a1.21 1.21 0 0 0-.074-.247c-.039-.068-.009-.065-.033-.125-.015-.038-.032-.062-.05-.113-.018-.05-.018-.068-.039-.122-.015-.038-.036-.07-.056-.118-.024-.054-.066-.048-.075-.116-.006-.045-.038-.095-.023-.116l.05-.08c.119-.17.187-.066.327-.06l.039.027c.059.003.294.089.368.13.042.021.119.054.19.09.101.05.116-.021.173-.006l.053-.077c.06-.084.086-.2.003-.259l-.039-.027c-.005-.006-.112-.006-.16-.02-.056-.018-.098-.021-.154-.048-.08-.036-.256-.155-.316-.116l-.059-.042c-.05-.035.062-.142.104-.184a.493.493 0 0 1 .08-.077c.033-.012.05.015.086-.039l.027-.038c.024-.036-.027-.232-.041-.265ZM31.098 59.674c.03-.068.006-.13.027-.172l.012-.021c.014-.03.05-.02.08-.024l.145.045.027-.018c.042.02.184.003.2.012.026.015.026.02.044.038-.036.072-.003.078-.033.131-.015.027-.407.063-.443.045l-.059-.036Zm.16-.562c-.038-.02.045-.326.069-.368.006-.009.023-.015.032-.009.104.057.366.366.318.455l-.023.041-.202-.056c-.033-.006-.116-.02-.16-.045l-.034-.018Zm-.582.52a.325.325 0 0 1 .03-.198c.003-.006.026-.015.038-.021.075.041.101.015.149.038.036.018 0 .17-.009.184l-.045.084c-.014.023-.127.023-.14.018l-.02-.012c-.024-.012-.018-.021-.03-.042l.027-.05Zm.886-1.836a.085.085 0 0 1 .002-.053l.024-.042.042.02c.027.016.02.03.024.054.065.036.14.235.142.291.057.03.125.167.152.22.024.048.041.072.065.12.03.056.003.097.048.097-.012.05.012.03-.01.063l-.017.032c-.015.027-.065.03-.11.131-.024.054-.036.092-.074.16l-.024.042c-.012.024-.024.027-.048.015-.023-.012.003-.11-.07-.16l.011-.048c-.05-.036-.125-.172-.158-.217-.05-.071-.175-.13-.127-.22l.018-.032c-.018-.021.011-.19.017-.232a.647.647 0 0 1 .092-.24Zm-.63 2.41c.107 0 .202-.05.297-.074.083-.021.056-.027.151-.036.078-.006.08-.006.155-.027.068-.018.077 0 .151-.044.048-.03.11-.042.131-.083l.018-.033c.024-.042-.045-.11-.003-.19l.027-.054.035.006.078-.071.008.009.069-.125c.027-.048-.003-.042.03-.104l-.03-.018.095-.205.018-.03-.021-.012.107-.199c.024-.044.172-.172.208-.169l.044-.083c.04-.072-.092-.256-.08-.357a1.34 1.34 0 0 0-.113-.345c-.08-.092-.279-.57-.217-.692-.047-.044-.03-.151-.074-.175-.145-.078-.238.024-.353.027-.167.002-.048.02-.167.053-.06.018-.122-.012-.163.062l-.027.054-.05.122.017.009-.032.062c-.018.033-.006.211-.027.294-.012.042-.024.297-.098.256l-.042-.021c-.074-.039-.036-.098-.128-.148l-.02-.012c-.078-.042-.104.026-.155.089-.012.015-.14.119-.146.127l-.038.075.03.041c.142.078.38.23.442.318.033.045.012.158.006.223-.006.063-.03.069-.044.128-.012.047.003.077-.018.119-.003.006-.027.015-.036.02-.392-.21-.297.122-.401.066-.05-.027-.092-.211-.065-.264l-.012.002-.05-.175.011-.003c-.044-.03-.151-.252-.128-.297l.14-.261c.056-.107.113-.179.163-.277.024-.047.057-.223.015-.246l-.071-.04c-.077-.04-.264-.064-.3 0l-.039.075-.13.294.017.01-.056.106-.268.583-.157.28c.02.017.02.026.033.035l.148.062c.03-.018.178-.041.235-.071.027-.048.06-.155.11-.13.024.011.018.02.03.04l.05.027c.027.054.077.173.098.23.039.112.018.112.092.222l-.012.02.03.019-.027.107.069.053.015.08c-.048.107.047.122-.027.259-.104.193-.036.16-.063.261l.045.072.045.03c.003.02-.003.038.023.053l.092.05c.057-.065.08-.044.15-.047.053 0 .12-.012.16-.012ZM41.9 53.957c.023-.072.113-.054.178-.048.05.006.196.021.181.078l-.086.282c-.012.035-.044.068-.08.06l-.09-.028c-.142-.044-.163-.145-.118-.288l.015-.056Zm.252-.565a.278.278 0 0 1 .146.01l.044.014c.04.012.072.045.063.077l-.056.184-.134-.011c-.042.006-.075.017-.137 0l-.077-.024.13-.2.021-.05Zm-1.25.158c.038-.122.285-.268.377-.315.032-.015.44-.167.448-.167l.015-.044c.006-.018-.02-.06-.03-.095-.008-.036 0-.063-.011-.096-.012-.032-.066-.127-.113-.145 0-.036-.042-.071-.084-.086-.035-.012-.27.252-.398.255l-.009.033c-.017.06-.475.336-.535.333l-.014.035c-.039.122-.012.143.014.232-.017.054-.011.104.036.12l.024.005c.047.015.047-.009.095.006l.09.027c-.057.184-.22.116-.268.261l-.01.033.025.006-.021.065c-.036.113.03.128.015.184.062.036.017.054.086.075l.012.003c.05.015.267-.113.276-.14l.018-.053c.065-.003.077-.069.16-.045-.056.092-.089.077.03.104l-.11.178-.247.196-.038-.008.033-.11c.008-.03.002-.021-.012-.04l-.289.384c.08.06.003.146.158.196l-.006.021.175.069c.063.023.232-.223.27-.295.06-.113.132-.318.173-.451l.018-.054c.086.003.273-.068.28-.068l.011.003c.042.015.024.089.11.119l.024.006c.032.008.077-.024.092-.054l.068.02c-.012.182.048.262.238.337l-.027.086-.032-.012-.155.128-.041-.01c-.027-.008-.215.066-.244.081-.057.024-.2.015-.282-.006-.012.024-.018.021-.027.05l-.003.013c-.024.074-.01.246.086.276l.113.036c.107.032.339.011.374.02l.057.018.02-.03c.072.024.125.003.146.01l.247.077c.163.05.068.104.133.125l.122.038.137.03c.03-.01.092-.021.104-.063l.033-.107c.006-.023-.003-.121-.045-.133l-.122-.039-.416-.116.06-.187.047-.015.107.027c.069.02.19-.024.211-.09l.01-.032c.011-.041-.019-.006-.004-.071-.056-.033-.018-.06-.11-.128-.03-.02-.127-.095-.116-.125l.042-.13c.006-.024.036-.042.06-.03l.213.095.057.015.104.017c.065-.062.053.027.128-.074.035-.05.05-.107.1-.104l.03-.098h.036l.086-.235c.021-.056-.003-.193-.06-.208-.11-.032-.308.036-.45-.009-.019.012-.025.027-.057.018l-.057-.018.039-.118c.015-.051-.057-.048-.033-.131.054.012.071-.036.128-.021.056.018.13.048.181.074.072.036.092.015.158.021l.023-.077c.018-.063 0-.104.003-.167l-.032-.012c.012-.059-.024-.092-.09-.11l-.023-.005c-.072-.021-.17-.01-.259-.018-.145 0-.148-.036-.267-.003l-.55-.128c-.015.024-.02.024-.03.054l-.02.065c-.024.08.014.232.092.255l.068.021c-.018.06-.077.131-.125.128l-.015.045c-.113.02.018.068-.166.071l-.095.012a.085.085 0 0 0-.069.062l-.026.086.023.006-.026.087-.033-.012-.018.06-.023.12-.134.048-.075-.017c-.011-.003-.08-.078-.106-.093l.02-.065c.01-.03.25-.142.265-.142l.053-.161c.003-.012-.086-.202-.095-.244l-.142-.06-.024.03-.042-.011-.024.074-.032-.012c-.042.098-.149.092-.202.175l-.069-.017Zm.74 1.4c-.042-.045.38-.176.368-.132l-.05.197a1.46 1.46 0 0 1-.319-.066Zm.941-.964c.095-.02.2-.017.321.024.05.048.05.09 0 .122-.074.057-.208.05-.36.027a.388.388 0 0 1 .04-.172Z" clip-rule="evenodd"/><path fill="#1971AF" d="M39.635 76.27c-3.375 0-6.55-1.313-8.935-3.7a12.559 12.559 0 0 1-3.7-8.935c0-3.375 1.313-6.546 3.7-8.935a12.553 12.553 0 0 1 8.935-3.7c3.376 0 6.55 1.313 8.936 3.7a12.553 12.553 0 0 1 3.7 8.935c0 3.376-1.314 6.547-3.7 8.936a12.559 12.559 0 0 1-8.936 3.7Zm0-24.777c-6.695 0-12.142 5.447-12.142 12.142 0 6.695 5.447 12.142 12.142 12.142 6.695 0 12.142-5.447 12.142-12.142 0-6.695-5.447-12.142-12.142-12.142Z"/><path fill="#1971AF" d="M29.562 62.8a.415.415 0 0 0 .246-.047.453.453 0 0 0 .152-.2c.015-.026.027-.053.044-.08a.239.239 0 0 1 .075-.095c.032-.027.074-.035.127-.03.063.006.11.03.143.069a.16.16 0 0 1 .039.119.148.148 0 0 1-.075.115.272.272 0 0 1-.187.036l-.02-.003-.018.143.02.003c.021.003.042.003.06.003.089 0 .166-.021.229-.066a.287.287 0 0 0 .127-.214.297.297 0 0 0-.068-.231.334.334 0 0 0-.235-.12.31.31 0 0 0-.232.051.603.603 0 0 0-.136.2.449.449 0 0 1-.122.175c-.039.03-.092.038-.163.03a.224.224 0 0 1-.149-.075.162.162 0 0 1-.042-.133.189.189 0 0 1 .09-.146.311.311 0 0 1 .208-.042l.02.003.018-.142-.03-.003a.434.434 0 0 0-.309.065.342.342 0 0 0-.14.247.305.305 0 0 0 .075.243.37.37 0 0 0 .253.125ZM29.348 63.466c.113.065.27.1.463.11h.072c.163 0 .3-.024.4-.075.123-.056.185-.14.188-.243.003-.104-.053-.19-.17-.253a1.042 1.042 0 0 0-.466-.104 1.046 1.046 0 0 0-.473.068c-.121.057-.187.137-.19.241 0 .104.057.19.176.256Zm-.033-.25c.003-.056.045-.1.13-.13a.993.993 0 0 1 .31-.042h.074c.16.006.288.03.38.071.084.039.122.083.12.14-.004.056-.045.1-.131.133-.093.036-.223.051-.384.045a1.037 1.037 0 0 1-.38-.074c-.08-.039-.119-.086-.119-.143ZM29.52 64.31h.02l.913-.033-.006-.14-.912.033c-.071.003-.128-.012-.166-.044a.165.165 0 0 1-.057-.125.16.16 0 0 1 .048-.128.224.224 0 0 1 .16-.056l.912-.033-.006-.14-.912.033a.358.358 0 0 0-.261.104.296.296 0 0 0-.084.229c.003.089.036.163.098.22.069.053.152.08.253.08ZM30.39 65.011l.14-.018-.074-.665-.14.017.03.262-1.087.122.014.136 1.088-.118.03.264ZM30.64 65.582l-.508.098-.065-.345.508-.101-.027-.137-1.212.238.027.137.564-.11.068.344-.564.11.027.14 1.209-.238-.027-.136ZM30.97 66.752l-.844.143.764-.395-.063-.205-.858.104.778-.357-.056-.181-1.12.553.056.18.915-.103-.814.43.06.19 1.236-.186-.054-.173ZM30.486 67.353l.172.4.128-.056-.17-.398.357-.154.193.445.131-.053-.247-.577-1.135.488.253.591.13-.056-.198-.464.386-.166ZM31 68.407a.452.452 0 0 0 .015-.25 9.884 9.884 0 0 1-.01-.091.21.21 0 0 1 .01-.12c.012-.04.041-.07.089-.094a.217.217 0 0 1 .157-.024.144.144 0 0 1 .098.077c.024.045.024.09.003.14a.277.277 0 0 1-.133.134l-.018.009.065.127.021-.011a.418.418 0 0 0 .205-.215.303.303 0 0 0-.2-.404.354.354 0 0 0-.26.03c-.084.045-.14.101-.164.172a.482.482 0 0 0-.006.241.448.448 0 0 1-.003.214c-.015.045-.056.083-.119.116a.214.214 0 0 1-.163.02.17.17 0 0 1-.11-.085.18.18 0 0 1-.006-.17.3.3 0 0 1 .151-.151l.018-.01-.074-.124-.027.015a.42.42 0 0 0-.22.229.339.339 0 0 0 .024.282c.042.083.11.137.196.16.03.01.063.012.092.012a.402.402 0 0 0 .188-.05.354.354 0 0 0 .18-.178ZM31.88 68.856l.121-.074-.353-.57-.122.077.14.222-.928.58.075.119.927-.58.14.226ZM31.267 69.632l.336-.253.259.348.116-.083-.259-.348.312-.235.288.392.116-.086-.374-.502-.993.737.386.517.113-.083-.3-.404ZM32.254 70.265a.189.189 0 0 0 .02-.113c.045.015.09.018.137.009a.39.39 0 0 0 .182-.092.323.323 0 0 0 .044-.467l-.202-.235-.939.803.092.107.404-.345.116.137c.033.038.045.074.036.1-.006.024-.033.069-.122.155l-.113.11a.701.701 0 0 0-.05.057c-.015.017-.024.032-.033.047l-.006.012.092.11.036-.03v-.009c0-.009.006-.02.012-.032a.285.285 0 0 1 .041-.05l.128-.129a.603.603 0 0 0 .125-.145Zm.163-.699.125.146c.027.03.036.065.03.113a.203.203 0 0 1-.077.14c-.06.05-.113.074-.167.068-.044-.003-.089-.03-.13-.08l-.099-.113.318-.274ZM33.255 70.262l-.627.63.286-.669.095-.205-.098-.1-.874.873.095.095.627-.63-.288.665-.09.214.096.096.873-.874-.095-.095ZM34.218 71.076l-.11-.086-.561.719c-.045.056-.093.09-.143.095-.045.009-.09-.006-.13-.039a.16.16 0 0 1-.07-.118.235.235 0 0 1 .06-.16l.562-.72-.11-.086-.562.719a.374.374 0 0 0-.089.267c.009.084.05.155.122.211a.3.3 0 0 0 .19.069c.015 0 .027 0 .042-.003a.36.36 0 0 0 .238-.152l.561-.716ZM34.708 71.406l-.49.74.146-.713.053-.22-.116-.078-.683 1.032.113.07.49-.742-.151.713-.045.226.113.074.68-1.028-.11-.074ZM34.973 71.565l-.619 1.07.121.07.619-1.07-.12-.07ZM35.778 72.725l.401.164.054-.131-.401-.163.145-.363.449.184.053-.133-.579-.232-.104-.05-.639.76.214-.969-.13-.065-.268 1.245.125.06.77-.901-.431 1.064.597.24.053-.13-.466-.19.157-.39ZM36.81 73.055a.318.318 0 0 0 .121-.062.36.36 0 0 0 .104-.173.327.327 0 0 0-.02-.27.318.318 0 0 0-.188-.152l-.294-.095-.377 1.177.133.042.164-.506.17.054c.047.015.076.039.082.068a.502.502 0 0 1-.02.196l-.04.152c-.005.03-.011.053-.011.074-.003.024-.003.042-.003.057l.003.015.137.044.015-.044-.003-.01c-.006-.008-.006-.02-.006-.035 0-.018.003-.042.009-.065l.041-.176a.71.71 0 0 0 .027-.187.189.189 0 0 0-.045-.104Zm-.016-.13c-.041.02-.092.02-.154.002l-.143-.044.128-.401.181.059c.039.012.066.039.087.08.023.05.026.101.008.16-.026.072-.062.12-.107.143ZM37.478 72.55a.3.3 0 0 0-.24.041.349.349 0 0 0-.15.217.324.324 0 0 0 .021.235c.03.054.09.107.179.164a.492.492 0 0 1 .16.142c.024.042.027.098.01.167a.207.207 0 0 1-.093.136.164.164 0 0 1-.137.027.198.198 0 0 1-.133-.104.303.303 0 0 1-.015-.214l.006-.02-.14-.033-.006.03a.43.43 0 0 0 .027.314.335.335 0 0 0 .229.167.31.31 0 0 0 .253-.045c.077-.05.13-.13.157-.237a.35.35 0 0 0-.018-.25.48.48 0 0 0-.178-.175c-.024-.018-.048-.033-.075-.054a.223.223 0 0 1-.083-.083.169.169 0 0 1-.015-.128.214.214 0 0 1 .084-.134.154.154 0 0 1 .124-.023c.05.011.084.041.107.089.027.05.03.116.015.19l-.006.02.137.03.006-.02a.406.406 0 0 0-.027-.295.29.29 0 0 0-.199-.154ZM37.95 72.68l-.215 1.218.138.024.214-1.218-.138-.024ZM38.233 72.877l.261.03-.121 1.087.136.015.125-1.085.264.03.015-.143-.662-.074-.018.14ZM39.377 73.361l-.214-.535-.16-.006.303.702-.015.54.14.006.014-.54.33-.687-.16-.006-.238.526ZM40.86 72.906c-.075-.11-.164-.163-.268-.151-.104.012-.178.08-.228.202a1.076 1.076 0 0 0-.036.476 1.1 1.1 0 0 0 .133.457c.066.104.146.158.238.158h.027c.104-.012.181-.08.229-.206.047-.121.062-.282.041-.475a.995.995 0 0 0-.136-.46Zm-.021.86c-.027.088-.068.136-.125.142-.056.006-.107-.033-.148-.113a1.008 1.008 0 0 1-.096-.374.98.98 0 0 1 .018-.387c.027-.086.066-.134.122-.14h.012c.05 0 .098.04.14.11.05.087.083.215.098.375a.979.979 0 0 1-.021.386ZM41.659 73.156l-.422.077-.071-.38.475-.09-.027-.139-.612.113.226 1.216.137-.027-.101-.553.419-.077-.024-.14ZM42.717 72.868l-.41.125-.113-.372.46-.14-.041-.136-.594.181.36 1.183.133-.042-.164-.538.41-.125-.041-.136ZM42.835 72.264l-.131.048.421 1.162.131-.048-.421-1.162ZM43.41 72.03l.347.814-.514-.511-.155-.166-.127.053.484 1.135.122-.05-.35-.82.51.52.164.16.124-.053-.484-1.136-.122.054ZM43.911 71.757l.333 1.248.122-.066-.098-.36.247-.133.25.28.121-.066-.862-.966-.113.063Zm.509.588-.19.1-.131-.469.32.369ZM44.732 71.296l.478.749-.591-.422-.182-.14-.115.077.665 1.04.11-.07-.478-.753.588.428.19.134.113-.074-.666-1.04-.112.07ZM45.92 71.424l-.113.083.012.018c.05.077.078.151.08.223.004.062-.011.104-.044.13-.05.039-.119.036-.202-.006a.934.934 0 0 1-.285-.267.922.922 0 0 1-.179-.342c-.018-.089 0-.151.05-.19.03-.024.072-.027.126-.012a.37.37 0 0 1 .175.113l.012.015.11-.083-.015-.018a.49.49 0 0 0-.253-.17.272.272 0 0 0-.24.042c-.087.066-.125.166-.107.3.018.131.086.28.205.437.118.158.24.264.362.321a.42.42 0 0 0 .158.039.26.26 0 0 0 .16-.054.278.278 0 0 0 .104-.232.59.59 0 0 0-.107-.32l-.009-.027ZM46.292 71.489l-.28-.318.327-.285-.092-.107-.327.288-.258-.294.365-.321-.092-.107-.472.413.817.93.484-.428-.095-.107-.377.336ZM46.437 69.792l.74 1.058.092-.1-.216-.304.187-.21.33.174.092-.104-1.142-.609-.083.095Zm.68.378-.145.16-.285-.398.43.238ZM47.052 69.08l.705.537-.699-.193-.217-.069-.086.11.98.752.084-.107-.707-.54.698.202.223.059.08-.107-.98-.752-.08.107ZM48.05 68.699c-.16-.104-.305-.158-.439-.158a.325.325 0 0 0-.288.146l-.152.232 1.034.674.152-.232a.323.323 0 0 0 .018-.32.811.811 0 0 0-.324-.342Zm-.683.181.063-.095a.212.212 0 0 1 .19-.101h.012a.717.717 0 0 1 .345.134c.136.089.225.175.264.261a.21.21 0 0 1-.015.223l-.062.095-.797-.517ZM48.835 68.256l-.38-.181.19-.392-.128-.063-.19.392-.35-.17.21-.436-.127-.062-.27.564 1.11.535.283-.58-.13-.062-.218.455ZM49.082 67.01l-.02-.008-.051.13.017.01c.084.041.146.089.185.148.035.05.044.095.03.134-.024.06-.08.092-.176.098a.94.94 0 0 1-.383-.08.925.925 0 0 1-.33-.2c-.063-.068-.08-.13-.056-.19.014-.035.047-.059.1-.074a.356.356 0 0 1 .208.006l.018.006.05-.128-.02-.006a.485.485 0 0 0-.303-.011.28.28 0 0 0-.184.16c-.042.101-.018.208.062.312.083.104.217.193.401.267.149.06.283.09.398.09a.624.624 0 0 0 .078-.006c.133-.018.223-.078.264-.182.033-.08.021-.166-.03-.252a.553.553 0 0 0-.258-.223ZM49.112 66.23a1.007 1.007 0 0 0-.476-.054c-.13.024-.214.086-.244.184s.003.196.099.288c.092.09.234.164.422.223.14.045.261.066.368.066a.594.594 0 0 0 .104-.01c.134-.02.217-.083.247-.18.03-.102-.003-.2-.098-.292a1.004 1.004 0 0 0-.422-.226Zm.386.475c-.018.053-.071.086-.16.092a1.05 1.05 0 0 1-.384-.06.996.996 0 0 1-.348-.169c-.07-.06-.095-.113-.08-.166.018-.054.072-.087.16-.095.019-.003.04-.003.057-.003.09 0 .2.02.324.06.155.047.27.106.348.171.074.06.1.116.083.17ZM48.642 65.522l.865.2-.716.112-.226.027-.03.137 1.204.273.03-.128-.868-.199.716-.107.229-.038.03-.131-1.204-.277-.03.131ZM49.846 64.919a.98.98 0 0 0-.449-.158.994.994 0 0 0-.478.021c-.125.045-.2.119-.214.22-.015.101.032.193.14.27.106.075.258.125.451.155.083.012.157.018.226.018a.892.892 0 0 0 .25-.033c.127-.041.202-.116.216-.217.015-.107-.032-.199-.142-.276Zm.003.252c-.01.057-.057.095-.146.116a1.04 1.04 0 0 1-.386 0 1.039 1.039 0 0 1-.369-.113c-.077-.047-.113-.098-.104-.151.01-.057.057-.095.146-.119.05-.015.11-.02.178-.02.063 0 .134.005.208.017.16.024.283.062.369.116.08.047.113.098.104.154ZM50.075 63.873l-1.234-.074-.012.193.265.086.606.184-.897.16-.012.197 1.233.074.009-.154-.77-.048.782-.137.009-.142-.761-.23.773.045.008-.154ZM50.066 63.392l-1.236.022.003.14 1.236-.023-.003-.14ZM49.611 62.503h-.033l.012.14h.027c.09 0 .166.017.226.053.053.03.083.066.086.107.006.066-.033.119-.113.166a.966.966 0 0 1-.38.099.916.916 0 0 1-.384-.036c-.086-.033-.127-.083-.133-.146-.003-.038.015-.074.056-.113a.365.365 0 0 1 .187-.086l.018-.003-.012-.136-.023.002a.486.486 0 0 0-.28.125.278.278 0 0 0-.095.223c.009.11.074.193.193.25a.838.838 0 0 0 .357.068c.038 0 .08-.003.122-.006.196-.015.353-.06.463-.133.113-.075.167-.17.158-.28-.006-.086-.054-.157-.14-.21a.524.524 0 0 0-.312-.084ZM48.827 62.435c.056.038.121.06.193.06.02 0 .041-.004.065-.007a.324.324 0 0 0 .211-.11.493.493 0 0 0 .083-.226.483.483 0 0 1 .072-.202c.03-.038.08-.062.151-.071a.21.21 0 0 1 .16.033.17.17 0 0 1 .078.119.193.193 0 0 1-.048.163.3.3 0 0 1-.19.095l-.027.003.021.143.03-.006a.427.427 0 0 0 .282-.146.338.338 0 0 0 .069-.273.319.319 0 0 0-.134-.217c-.078-.054-.173-.072-.28-.054a.358.358 0 0 0-.225.113.491.491 0 0 0-.096.232.956.956 0 0 1-.02.09.216.216 0 0 1-.045.11.177.177 0 0 1-.113.062.23.23 0 0 1-.157-.027.149.149 0 0 1-.069-.107c-.009-.05.006-.092.042-.134a.289.289 0 0 1 .17-.086l.02-.003-.02-.143-.021.003a.421.421 0 0 0-.262.137.295.295 0 0 0-.068.24c.012.09.053.158.128.209ZM39.065 61.478a.92.92 0 0 1 .57-.202c.214 0 .416.077.57.202v-2.401h-1.14v2.4ZM39.228 69.79c-.06-.004-.104.023-.14.083a.375.375 0 0 0-.05.184.39.39 0 0 0 .024.17c.03.076.083.118.16.124a.255.255 0 0 0 .146-.045.587.587 0 0 0 .024-.145.576.576 0 0 0-.036-.265c-.027-.068-.071-.104-.128-.107ZM36.494 67.558h2.176v-7.28h-1.24v4.739c0 .969-.35 1.857-.936 2.54Z"/><path fill="#1971AF" d="M36.898 64.33v-1.39h-3.01a5.788 5.788 0 0 1 5.747-5.093c2.55 0 4.716 1.649 5.489 3.94h1.899a7.613 7.613 0 0 0-14.965 2.544h4.84Z"/><path fill="#1971AF" d="M47.216 62.94h-4.847v1.39h3.013a5.789 5.789 0 0 1-5.747 5.094 5.794 5.794 0 0 1-5.488-3.94h-1.899a7.613 7.613 0 0 0 14.998-1.848 7.68 7.68 0 0 0-.03-.696Zm-8.686 6.906-.143.722c-.012.062-.012.104 0 .125.012.02.05.038.116.056l-.02.057c-.08-.021-.158-.042-.238-.057-.054-.009-.125-.02-.217-.032l.006-.063c.06.012.1.009.127-.006.024-.015.042-.053.054-.116l.128-.645c.015-.077.003-.118-.033-.124-.003 0-.027 0-.065.005l-.01-.056c.087-.018.194-.044.316-.086l.026.03a2.46 2.46 0 0 0-.047.19Zm.853.814a.65.65 0 0 1-.52.22l-.012-.042a.521.521 0 0 0 .315-.145.762.762 0 0 0 .166-.286.488.488 0 0 1-.214.042.26.26 0 0 1-.21-.119.344.344 0 0 1-.057-.226.414.414 0 0 1 .134-.29.35.35 0 0 1 .261-.096.334.334 0 0 1 .244.125c.074.089.104.208.095.356a.73.73 0 0 1-.202.461Zm1.067.19c-.16.006-.286.012-.378.018a3.403 3.403 0 0 0-.288.036l-.024-.048c.312-.333.46-.585.449-.758-.006-.083-.033-.142-.08-.184a.216.216 0 0 0-.164-.047c-.092.005-.148.068-.17.187l-.056-.012a.381.381 0 0 1 .12-.247.3.3 0 0 1 .175-.074.33.33 0 0 1 .237.071c.072.057.11.137.116.235.012.158-.125.39-.407.692l.006.003c.042-.008.095-.014.16-.02h.134a.294.294 0 0 0 .137-.033.228.228 0 0 0 .071-.083l.042.015c-.033.07-.06.154-.08.25Zm.766-.226a.533.533 0 0 1-.27.158.283.283 0 0 1-.152-.006c-.044-.015-.068-.042-.074-.077-.012-.06.015-.095.077-.107.027-.006.066.003.113.026.048.024.09.033.128.024a.169.169 0 0 0 .11-.074.218.218 0 0 0 .024-.17c-.039-.199-.22-.282-.541-.243l.122-.505.422-.084-.039.185-.336.068-.026.122a.457.457 0 0 1 .282.038.381.381 0 0 1 .24.295c.03.145.004.264-.08.35Z"/><path fill="#1971AF" d="M40.601 60.277v7.28h2.175a3.889 3.889 0 0 1-.939-2.54v-4.74h-1.236Z"/><path fill="#1D6CA4" d="M55.465 70.004h.3c.012.08.045.14.098.18.054.04.134.06.238.06.089 0 .154-.015.199-.047a.162.162 0 0 0 .068-.14c0-.09-.128-.163-.386-.223-.003 0-.006 0-.009-.003-.006 0-.018-.003-.03-.006a.942.942 0 0 1-.294-.1.304.304 0 0 1-.119-.135.457.457 0 0 1-.041-.199c0-.142.047-.255.145-.33.098-.077.238-.115.425-.115.173 0 .306.041.404.121.098.08.149.197.155.345h-.291a.215.215 0 0 0-.084-.163.336.336 0 0 0-.21-.057c-.08 0-.14.015-.185.048-.044.03-.065.074-.065.134 0 .077.083.136.252.175.045.012.08.018.107.024.107.026.185.047.23.065a.89.89 0 0 1 .118.05c.06.033.104.078.137.134.03.057.044.122.044.2 0 .154-.05.273-.154.356-.104.083-.25.128-.44.128-.187 0-.333-.045-.437-.131a.494.494 0 0 1-.175-.371ZM57.046 69.721c0-.238.065-.428.196-.567a.687.687 0 0 1 .526-.211c.22 0 .395.07.526.21.13.14.196.33.196.568 0 .238-.066.428-.196.568a.687.687 0 0 1-.526.21.687.687 0 0 1-.526-.21c-.13-.14-.196-.33-.196-.568Zm.312 0c0 .164.035.288.107.377.071.09.172.134.303.134.13 0 .232-.044.306-.133.074-.09.11-.217.11-.378 0-.163-.036-.288-.11-.377a.376.376 0 0 0-.306-.134.366.366 0 0 0-.303.134c-.072.089-.107.214-.107.377ZM58.93 68.975h.306v.927c0 .116.024.2.068.25.045.053.12.08.217.08.101 0 .172-.026.22-.077.045-.053.068-.137.068-.25v-.927h.303v.96c0 .181-.05.321-.151.416-.101.095-.247.146-.437.146-.193 0-.339-.048-.44-.146-.1-.098-.151-.235-.151-.419v-.96h-.003ZM60.924 69.246h-.44v-.265h1.177v.265h-.437v1.215h-.3v-1.215ZM62.044 70.458v-1.477h.306v.55h.61v-.55h.305v1.477h-.306v-.657h-.609v.657h-.306ZM64.062 70.458l-.425-1.477h.315l.252 1.043.214-1.043h.324l.214 1.043.253-1.043h.312l-.422 1.477h-.291l-.23-1.132-.228 1.132h-.288ZM65.901 70.458v-1.477h1.073v.256H66.2v.315h.708v.252H66.2v.38h.812v.274H65.9ZM67.381 70.004h.3c.012.08.045.14.098.18.054.04.134.06.238.06.09 0 .154-.015.199-.047a.162.162 0 0 0 .068-.14c0-.09-.127-.163-.386-.223-.003 0-.006 0-.009-.003-.006 0-.018-.003-.03-.006a.942.942 0 0 1-.294-.1.304.304 0 0 1-.119-.135.457.457 0 0 1-.041-.199c0-.142.047-.255.145-.33.098-.077.238-.115.425-.115.173 0 .306.041.404.121.099.08.149.197.155.345h-.291a.216.216 0 0 0-.083-.163.336.336 0 0 0-.211-.057c-.08 0-.14.015-.185.048-.044.03-.065.074-.065.134 0 .077.083.136.252.175.045.012.08.018.108.024.106.026.184.047.228.065a.89.89 0 0 1 .12.05c.059.033.103.078.136.134.03.057.044.122.044.2 0 .154-.05.273-.154.356-.104.083-.25.128-.44.128-.187 0-.333-.045-.437-.131a.494.494 0 0 1-.175-.371ZM69.33 69.246h-.44v-.265h1.177v.265h-.436v1.215h-.3v-1.215ZM70.45 70.458v-1.477h1.073v.256h-.772v.315h.707v.252h-.707v.38h.811v.274h-1.111ZM71.999 68.981h.716c.16 0 .28.036.36.104.077.069.115.175.115.315 0 .09-.017.167-.056.226a.3.3 0 0 1-.163.125.24.24 0 0 1 .136.104.526.526 0 0 1 .048.22l.006.175v.006c.003.09.02.143.056.16v.045h-.333a.264.264 0 0 1-.023-.077.902.902 0 0 1-.012-.11l-.003-.155c-.003-.092-.021-.154-.05-.184-.03-.033-.087-.047-.17-.047h-.321v.576h-.306v-1.483Zm.303.645h.357c.077 0 .133-.015.172-.047.036-.033.053-.08.053-.15 0-.064-.017-.112-.053-.145a.227.227 0 0 0-.158-.05h-.371v.392ZM73.672 70.458v-1.477h.318l.6 1.017V68.98h.3v1.477h-.315l-.603-1.016v1.016h-.3ZM76.186 68.975h.306v.927c0 .116.024.2.068.25.045.053.12.08.217.08.101 0 .172-.026.22-.077.045-.053.068-.137.068-.25v-.927h.303v.96c0 .181-.05.321-.151.416-.101.098-.247.146-.437.146-.193 0-.339-.048-.44-.146-.1-.098-.151-.235-.151-.419v-.96h-.003ZM77.874 70.458v-1.477h.318l.6 1.017V68.98h.3v1.477h-.315l-.603-1.016v1.016h-.3ZM79.612 70.458v-1.477h.303v1.477h-.303ZM80.786 70.458l-.511-1.477h.336l.315 1.106.32-1.106h.333l-.505 1.477h-.288ZM81.93 70.458v-1.477h1.073v.256h-.773v.315h.707v.252h-.707v.38h.811v.274H81.93ZM83.478 68.981h.716c.16 0 .28.036.36.104.077.069.116.175.116.315a.41.41 0 0 1-.057.226.3.3 0 0 1-.163.125.24.24 0 0 1 .136.104.526.526 0 0 1 .048.22l.006.175v.006c.003.09.02.143.056.16v.045h-.332a.261.261 0 0 1-.024-.077.864.864 0 0 1-.012-.11l-.003-.155c-.003-.092-.02-.154-.05-.184-.03-.033-.087-.047-.17-.047h-.32v.576h-.307v-1.483Zm.303.645h.357c.077 0 .133-.015.172-.047.036-.033.054-.08.054-.15 0-.064-.018-.112-.054-.145a.227.227 0 0 0-.157-.05h-.372v.392ZM85.083 70.004h.3c.012.08.044.14.098.18.053.04.134.06.238.06.089 0 .154-.015.199-.047a.162.162 0 0 0 .068-.14c0-.09-.128-.163-.386-.223-.003 0-.006 0-.01-.003a.941.941 0 0 1-.324-.107.304.304 0 0 1-.118-.134.457.457 0 0 1-.041-.199c0-.142.047-.255.145-.33.098-.077.238-.115.425-.115.172 0 .306.041.404.121.098.08.149.197.155.345h-.291a.216.216 0 0 0-.084-.163.336.336 0 0 0-.21-.057c-.08 0-.14.015-.185.048-.044.03-.065.074-.065.134 0 .077.083.136.252.175.045.012.08.018.107.024.107.026.184.047.23.065a.89.89 0 0 1 .118.05c.06.033.104.078.137.134.03.057.044.122.044.2 0 .154-.05.273-.154.356-.104.083-.25.128-.44.128-.187 0-.333-.045-.437-.131a.475.475 0 0 1-.175-.371ZM86.735 70.458v-1.477h.303v1.477h-.303ZM87.87 69.246h-.44v-.265h1.177v.265h-.437v1.215h-.3v-1.215ZM89.65 70.458h-.303v-.55l-.538-.927h.372l.315.636.29-.636h.348l-.487.927v.55h.003ZM91.204 69.721c0-.238.066-.428.196-.567a.687.687 0 0 1 .526-.211c.22 0 .395.07.526.21.131.14.196.33.196.568 0 .238-.065.428-.196.568a.687.687 0 0 1-.526.21.687.687 0 0 1-.526-.21c-.13-.14-.196-.33-.196-.568Zm.31 0c0 .164.035.288.106.377.072.09.173.134.303.134.131 0 .235-.044.306-.133.075-.09.11-.217.11-.378 0-.163-.035-.288-.11-.377a.372.372 0 0 0-.306-.134.366.366 0 0 0-.303.134.606.606 0 0 0-.107.377ZM93.097 70.458v-1.477h1.031v.256h-.73v.336h.641v.255h-.642v.63h-.3ZM95.326 70.458v-1.477h1.031v.256h-.731v.336h.642v.255h-.642v.63h-.3ZM96.77 70.458v-1.477h.303v1.477h-.303ZM97.596 70.458v-1.477h.318l.6 1.017V68.98h.3v1.477H98.5l-.603-1.016v1.016h-.3ZM99.7 68.981h.351l.532 1.477h-.318l-.101-.303h-.574l-.098.303h-.32l.528-1.477Zm.175.294-.205.63h.41l-.205-.63ZM100.942 70.458v-1.477h.318l.6 1.017V68.98h.3v1.477h-.314l-.604-1.016v1.016h-.3ZM103.958 69.95a.564.564 0 0 1-.193.401.704.704 0 0 1-.463.149c-.22 0-.39-.069-.512-.205-.121-.137-.181-.327-.181-.574 0-.252.063-.443.187-.58.125-.133.303-.201.535-.201.19 0 .339.044.446.136.11.092.169.223.181.39h-.3a.283.283 0 0 0-.101-.19.352.352 0 0 0-.226-.066.376.376 0 0 0-.306.13c-.068.087-.104.215-.104.378 0 .16.036.285.104.372.069.089.167.13.294.13a.348.348 0 0 0 .226-.07.335.335 0 0 0 .116-.203h.297v.003ZM104.404 70.458v-1.477h1.073v.256h-.773v.315h.707v.252h-.707v.38h.811v.274h-1.111ZM107.12 68.981h.351l.532 1.477h-.318l-.101-.303h-.574l-.098.303h-.321l.529-1.477Zm.178.294-.205.63h.41l-.205-.63ZM108.362 70.458v-1.477h.318l.6 1.017V68.98h.3v1.477h-.315l-.603-1.016v1.016h-.3ZM110.092 70.458v-1.477h.579c.226 0 .395.063.508.184.11.122.167.31.167.556a.925.925 0 0 1-.063.357.595.595 0 0 1-.178.25.539.539 0 0 1-.202.1c-.074.021-.178.03-.315.03h-.496Zm.541-.267c.142 0 .243-.036.306-.11.062-.075.095-.194.095-.36 0-.166-.03-.285-.089-.365-.06-.078-.152-.116-.277-.116h-.282v.95h.247ZM112.588 70.458v-1.477h1.073v.256h-.773v.315h.707v.252h-.707v.38h.811v.274h-1.111ZM115.42 69.95a.564.564 0 0 1-.193.401.707.707 0 0 1-.464.149c-.22 0-.389-.069-.511-.205-.122-.137-.181-.327-.181-.574 0-.252.062-.443.187-.58.125-.133.303-.201.535-.201.19 0 .339.044.446.136a.536.536 0 0 1 .181.39h-.3a.287.287 0 0 0-.101-.19.354.354 0 0 0-.226-.066.373.373 0 0 0-.306.13c-.069.087-.104.215-.104.378 0 .16.035.285.104.372.068.089.166.13.294.13a.35.35 0 0 0 .226-.07.34.34 0 0 0 .116-.203h.297v.003ZM115.806 69.721c0-.238.065-.428.196-.567a.687.687 0 0 1 .526-.211c.22 0 .395.07.526.21.131.14.196.33.196.568 0 .238-.065.428-.196.568a.687.687 0 0 1-.526.21.687.687 0 0 1-.526-.21c-.131-.14-.196-.33-.196-.568Zm.309 0c0 .164.036.288.107.377.071.09.172.134.303.134a.37.37 0 0 0 .306-.133c.075-.09.11-.217.11-.378 0-.163-.035-.288-.11-.377a.37.37 0 0 0-.306-.134.365.365 0 0 0-.303.134c-.071.089-.107.214-.107.377ZM117.696 70.458v-1.477h.318l.6 1.017V68.98h.3v1.477h-.315l-.603-1.016v1.016h-.3ZM119.36 69.721c0-.238.065-.428.196-.567a.687.687 0 0 1 .526-.211c.22 0 .395.07.526.21.131.14.196.33.196.568 0 .238-.065.428-.196.568a.687.687 0 0 1-.526.21.687.687 0 0 1-.526-.21c-.131-.14-.196-.33-.196-.568Zm.312 0c0 .164.036.288.107.377.071.09.172.134.303.134a.37.37 0 0 0 .306-.133c.075-.09.11-.217.11-.378 0-.163-.035-.288-.11-.377a.37.37 0 0 0-.306-.134.365.365 0 0 0-.303.134c-.071.089-.107.214-.107.377ZM121.253 70.458v-1.477h.449l.294 1.126.291-1.126h.452v1.477h-.285v-1.192l-.301 1.192h-.312l-.303-1.192v1.192h-.285ZM123.262 70.458v-1.477h.303v1.477h-.303ZM125.375 69.95a.565.565 0 0 1-.194.401.702.702 0 0 1-.463.149c-.22 0-.389-.069-.511-.205-.122-.137-.181-.327-.181-.574 0-.252.062-.443.187-.58.125-.133.303-.201.535-.201.19 0 .338.044.445.136.11.092.17.223.182.39h-.301a.279.279 0 0 0-.101-.19.349.349 0 0 0-.225-.066.373.373 0 0 0-.306.13c-.069.087-.104.215-.104.378 0 .16.035.285.104.372.068.089.166.13.294.13a.35.35 0 0 0 .226-.07.334.334 0 0 0 .115-.203h.298v.003ZM125.794 70.004h.3c.012.08.044.14.098.18.053.04.133.06.237.06.09 0 .155-.015.2-.047a.163.163 0 0 0 .068-.14c0-.09-.128-.163-.386-.223-.003 0-.006 0-.009-.003-.006 0-.018-.003-.03-.006a.933.933 0 0 1-.294-.1.303.303 0 0 1-.119-.135.454.454 0 0 1-.042-.199c0-.142.048-.255.146-.33.098-.077.238-.115.425-.115.172 0 .309.041.404.121.098.08.149.197.155.345h-.292a.214.214 0 0 0-.083-.163.335.335 0 0 0-.211-.057.3.3 0 0 0-.184.048.155.155 0 0 0-.066.134c0 .077.084.136.253.175.045.012.08.018.107.024.107.026.184.047.229.065a.946.946 0 0 1 .119.05.344.344 0 0 1 .136.134c.03.057.045.122.045.2a.43.43 0 0 1-.155.356c-.104.083-.249.128-.439.128-.188 0-.333-.045-.437-.131a.47.47 0 0 1-.175-.371Z"/><path fill="#1D6CA4" fill-rule="evenodd" d="M121.568 58.601c0-.172.113-.478.333-.478h.074c.083 0 .08.03.149.074.127 0 .222-.024.222.11v.149c0 .053-.118.591-.184.591-.404 0-.392-.13-.591-.184V58.6h-.003Zm1.218-2.398c0-.062.179-.297.149-.591l-.042-.479c-.139-.059-.157-.48-.659-.48-.146 0-.027 1.087-.259 1.179 0 .318-.184.58-.184.921v.149c.154.062.139.407.333.407.133 0 .211-.084.222-.22.104-.024.262-.11.295-.11.059 0 .119.107.148.148l-.169.705-.125-.003c-.134 0-.416-.173-.487-.253-.182-.205-.294-.08-.586-.08v-.737c-.166-.045-.264-.223-.442-.223h-.185c-.172 0-.368.143-.368.333v.036c0 .077.478.276.478.517v.11l-.089 2.288-.071.14-.283.008c0-.24.075-.235.075-.443v-.368l-.042-.478-.038.011-.087-.303-.118-.092-.009-.134c0-.166-.134-.472-.295-.517l-.077.592-.11.036c0 .309-.11.407-.11.74v.074l.045.775c.101.03.324.303.324.369 0 .1-.794.443-.886.443-.098 0-.345-.776-.553-.776h-.109c-.042.172-.087.398-.259.443-.006.214-.11.32-.11.627v.184l.045.776h.065v.11c0 .083.03.08.074.148 0 .606.265.511.294.886h.11v.11h.185l-.018-.036.19-.095.119-.327.047.015.051-1.403h.568c.261 0 .314-.238.484-.327.181-.095.348-.14.535-.24.22-.12.27-.205.564-.247.006 0 .532-.217.547-.229.351-.232.645-.362 1.016-.57.152-.084.363-.188.515-.259.175-.083.16-.024.35-.053.116-.018.199-.104.265-.104h.258c.042-.104.11-.11.259-.11h.11c.086 0 .148.062.148.148s-.226.277-.312.315c-.116.048-.404.134-.463.164-.084.044-.095.104-.182.151-.089.048-.113.024-.217.08-.074.042-.145.107-.199.131-.065.03-.148.036-.223.072-.145.068-.751.392-.843.41-.206.044-.865.199-.916.338-.154 0-.627-.009-.627.149v.148c.036.004.517.319.592.369l.442.047.039-.008c.214 0 .208-.149.517-.149l.164-.128.13-.018c.143 0 .185-.32.666-.332v.148c0 .027-.348.589-.395.636-.149.149-.396.36-.675.36v.11c0 .104.294.16.294.517v.368c0 .09-.169.259-.258.259h-.11c-.063.154-1.117.517-1.403.517-.119.077-.205.148-.407.148h-.333c-.023.104-.035.063-.035.149 0 .128.214.187.258.294.381 0 .282.11.553.149.184.026.389.056.407.258.083.018.086.036.184.036h.11c.324 0 .11-.19.493-.318.214-.071.342-.16.613-.16h.11v.662h-.075v.074l-.021.045-.537-.256.101 1.43c.032.083.116.258.237.258.289 0 .336-.11.529-.208.193-.1.14-.303.357-.38v-.11c0-.116.08-.065.128-.28.044-.207-.006-.124.095-.273l.08-1.364h.068v-.11c.223-.05.675-.258.812-.258h.552c.063-.158.295-.09.295-.407v-.592c0-.196-.14-.252-.185-.442h-.407c-.205 0-.838.442-.96.442h-.148c-.116 0-.184-.362-.184-.368l.044-.294c.045-.015.443-.422.496-.497.084-.112.309-.532.309-.686v-.22c0-.226-.163-.24-.184-.478l.164-.092.208-.018.08-.107c.282-.003.395-.098.645-.167.196-.053.478-.044.695-.08.499-.086.945-.03.945-.606v-.11c0-.312-.098-.814-.443-.776l-.847.087-.038-.012c-.116 0-.312-.021-.294-.149l.115-.96c.202-.14.36-.864.77-.96v-.148c0-.484-.544-1.218-.995-1.218-.119 0-.553.368-.592.442l-1.055.342-.148.086-.015.09c0 .1.285.508.407.552v.149c0 .21-.193.85-.368.85h-.075c-.119 0-.184-.134-.184-.259v-.184c0-.25.184-.173.184-.517v-.149h-.627v-.125h-.006Zm-1.468 2.999c.084-.096.19-.134.333-.09a.336.336 0 0 1-.006.348c-.11.098-.229.101-.347.066-.048-.113-.072-.226.02-.324Zm2.684-.56c-.119-.15-.101-.305-.018-.457.116-.083.246-.113.422-.038.267.17.386.309.181.377a1.02 1.02 0 0 1-.585.119Zm-.598-.365c-.083.072-.24.066-.407.051a1.535 1.535 0 0 1 .006-.52.68.68 0 0 1 .446-.05c.146.166.113.341-.045.52Zm1.257-.695c-.312.178-.54.101-.582-.288.226-.2.443-.401.651-.61.074-.091 0-.195-.066-.3-.086-.205.003-.309.351-.255.187.036.276.137.154.371a8.986 8.986 0 0 0-.508 1.082ZM111.289 58.269c-.199-.113-.012-.131-.306-.247a1.511 1.511 0 0 0-.463-.092h-.036c-.101 0-.149.098-.149.184 0 .178.009.43.149.478l.083.847c.015.2-.086.541-.083.815.009.647-.268.21-.294.552-.131.003-.538.107-.672.14-.163.039-.561.053-.618.193-.324 0-.523.11-.737.11h-.184v.074h-.407c-.149 0-.333.039-.333.185v.074c0 .401.253.371.258.666.119.062.369.294.518.294h.222c.06 0 .25-.057.399-.08.291-.045.13-.114.222-.22.03-.036.642-.217.708-.217h.184v-.11c.083-.021.086-.036.184-.036h.294c.087 0 .11.027.11.11v.333l-.386.692c-.039.024-.66.627-.773.731-.35.33-.537.36-.906.606-.351 0-.339.149-.701.149h-.149v.074h-.368c-.122 0-.107.066-.11.184.211.051.615.443.811.443h.11v.075l.404.044c.502.054.651-.145.898-.291.133-.08.282-.107.395-.193.074-.057.234-.193.318-.235.181-.095.52-.395.618-.565.05-.086.416-.677.466-.677h.149v.11c.08.006.781.57.921.666.22 0 .348.023.369.22.35.03.422.276.591.293v.26c-.158.035-.666.055-.666.183 0 .202.877.277 1.07.407h.184c.057.084.274.22.407.22h.479c.16 0 .407-.071.407-.22v-.116c0-.332-.11-.43-.11-.736-.19-.102-.648-.277-.701-.479h-.149c-.044-.086-.505-.437-.615-.49-.217-.104-.137-.146-.297-.256-.101-.068-.19-.1-.321-.196-.128-.095-.164-.142-.312-.24-.104-.072-.217-.12-.351-.206-.151-.098-.246-.006-.392-.163-.092-.101-.259-.175-.259-.256v-.294c0-.645.351-.502.702-.737h.148c.152-.1.889-.3 1.141-.333.137-.017.384-.077.624-.115.342-.054.253-.262.414-.327v-.294c0-.319-.137-.663-.443-.663h-.149c-.027 0-.285.187-.428.235-.175.059-.276.118-.469.157-.259.05-.901.071-.984.274h-.223c-.181 0-.092-.476-.065-.657.009-.06.036-.291.065-.339.063-.09.146-.053.146-.259v-.148c0-.13-.47-.54-.559-.591ZM99.537 61.707c0-.247.288-.274.493-.318.157-.036.615-.125.615.06v.959c0 .125-.065.258-.184.258h-.294c-.473 0-.627-.297-.627-.775v-.184h-.003Zm.222-1.991a.877.877 0 0 1 .443-.11h.149c.125 0 .258.065.258.184v.627l-.401.09c-.122.062-.21.13-.41.13h-.258l.199-.746.02-.175Zm-3.616 1.697c0-.408.606-1.106.841-1.338.08-.08 1.17-.945 1.189-.95v-.15c0-.065-.122-.166-.179-.264-.06-.104-.062-.196-.124-.28-.072-.091-.319-.335-.473-.34-.03-.117-.196-.185-.333-.185-.122 0-.58 1.043-.96 1.18v.11c0 .202-1.117 1.503-1.292 1.548v.11c0 .419.095.457.258.701 0 .184.057.333.22.333h.075c.16 0 .133-.074.294-.074h.294c0 .627-.553.567-.553 1.07v.11h.074v.222c0 .383.205.366.22.553.223.05.104.148.333.148h.036c.163 0 .701-.609.701-.7v-.182c.193-.071.166-.288.443-.294-.08.345-.196.327.184.294l-.166.66-.553.84-.128.013v-.369c0-.104-.012-.068-.074-.11l-.508 1.468c.294.104.145.452.656.452v.074l.592.045c.214.011.487-.916.532-1.174.071-.41.095-1.117.095-1.566v-.184c.261-.069.752-.479.775-.479h.036c.143 0 .155.259.443.259h.074c.11 0 .211-.152.223-.259h.22c.134.574.392.758 1.034.811v.294h-.11l-.348.544-.133.012c-.09 0-.586.413-.663.482-.143.13-.582.234-.85.255-.018.083-.036.086-.036.184v.036c0 .25.206.776.517.776h.369c.35 0 1.034-.294 1.144-.294h.184l.036-.11c.241 0 .383-.11.446-.11h.811c.541 0 .303.258.517.258h.407l.443-.041c.086-.054.258-.158.258-.292v-.368c0-.078-.124-.369-.258-.369h-.407l-1.364.045v-.636l.128-.092.35-.018c.223 0 .553-.262.553-.478v-.11c0-.146-.057-.003-.074-.22-.199-.048-.11-.164-.455-.286-.107-.038-.47-.169-.47-.27v-.443c0-.08.066-.157.149-.148l.737.086.187-.012.333-.042c.14-.255.19.027.312-.347.062-.188.048-.38.205-.422v-.336l.113-.036.042-.814c.006-.193-.191-.591-.375-.591-.359 0-.894.407-1.364.407-.038.056-.047.11-.148.11h-.185v-.407c0-.173-.214-.095-.222-.369.169-.018.184-.184.368-.184s.437.02.612.054c.247.044.297-.042.493-.09v-.258c0-.208-.104-.324-.148-.517h-.11c-.018-.2-.161-.259-.369-.259h-.074c-.232 0-.52.134-.796.2-.419.097-.464-.01-.791.207l-1.77.14c-.019.09-.036.092-.036.193v.22c0 .27.261.701.517.701h.223c0 .202-.107.476-.259.517v.149c-.324.17.116.193-.428.383l-.273.131c-.087.045-.146.128-.146.259v.294h.074v.294h-.11v.184l.042.404-.354.277-.24.02c-.042 0-.31-.157-.407-.184v-.22c0-.1.618-.689.665-.7v-.554c0-.038-.451-.54-.517-.662l-.478-.042-.045.113-.14.003v.258h-.11c-.03.348-.362.431-.442.738h-.229Zm3.548 3.619c-.163-.095.978-.91.984-.764l.032.657c-.374.08-.725.11-1.016.107Zm1.926-3.899c.264-.16.585-.247.983-.24.196.1.235.225.113.38-.175.246-.582.362-1.055.43-.053-.133-.059-.323-.041-.57ZM84.355 62.099l.341.285c.149.01.544.128.544.268v.11c0 .228-.39.368-.517.368h-.11c-.128 0-.142-.027-.258-.036V62.1Zm6.038-4c.13-.71-.368-.76-.98-.76h-.224v.11c0 .097.137.555.185.626l.038 2.434-.243.178-.021-.03-.042.11c-.333.01-.404.238-.612.381-.03.02-.755.175-.82.175-.05.078-.11.095-.11.185v.222c0 .176.22.737.369.737h.184c.14 0 .535-.335.591-.442l.012.035.683-.235c.024.099.042.102.042.2v.85c-.181.014-.986.88-1.218.885-.104.193-.77.443-1.07.443h-.036c-.1 0-.089-.03-.11-.11h-.184c.003-.098.205-.627.294-.627h.259c.06-.167.11-.03.11-.184v-.922h-.11c-.086 0-.11-.026-.11-.11v-.92l.092-1.992.214-.315.027-.312c0-.24-.541-.737-.776-.737h-.258c-.149 0-.241.176-.357.235-.036.018-.42.16-.428.163-.312.099-.618.188-.618.562v.11h.11c.16 0 .264-.258.591-.258h.184c.286 0 .517.309.517.59v1.365c0 .327.004.874-.044 1.174-.02.13-.318.746-.437.746h-.074c-.116 0-.223-.116-.223-.259v-.149c.098-.026.223-.104.223-.222v-.259c0-.104-.208-.247-.333-.258l.08-.063-.27-.068c-.401-.018-.265-.17-.437-.238v-.149c0-.127.027-.142.036-.258l.33-.045.442.01v-.11c.12-.004.184.011.184-.11v-.185c0-.264-.106-.214-.11-.443-.19-.05-.314-.21-.662-.222-.285-.01-.597 0-.889 0-.118-.08-.205-.11-.407-.11h-.333c-.178 0-.261.115-.332.222v2.066c0 .336-.057.73-.039.998.024.354.312.35.556.479-.321.606-1.881.362-1.881.85v.074c0 .181.49.591.775.591h.259c.184 0 .47-.184.775-.184.036-.128.731-.66.96-.666 0 .288-.315.9-.517.921-.027.238-.383.203-.407.479l-.722.41.02.033c-.127 0-.222-.024-.222.11 0 .11.21.22.333.22h.332c.45 0 .874-.53 1.136-.75.208-.172.282-.395.445-.514.143-.106.402-.29.452-.472.413.036.42.357.636.618.128.155.371.675.58.675h.11c.148 0 .323-.49.377-.657.148-.478-.054-.413.582-.413.164-.107.624-.2.853-.291.214-.087.627-.402.734-.41l.09.478-.016.779c0 .107-.187.294-.294.294h-.074c-.363 0-.386-.235-.666-.259v.184c0 .27.476.607.63.773.12.128.211.175.342.36.053.074.28.344.357.344h.11c.011-.038.338-.377.424-.499.107-.148.12-.532.09-.79-.063-.52-.072-1.156-.072-1.736v-.597c0-.324.886-.69.886-.886v-.22l-.17-.127-.309-.066-.074.01c-.13 0-.145.124-.148.258-.12-.003-.185.012-.185-.11v-.663c0-.19 1.219-.496 1.219-1.034v-.184c0-.13-.063-.479-.185-.479h-.148c-.149 0-.19.033-.22.149h-.149c-.017.217-.258.333-.478.333-.045 0-.11-.077-.11-.149v-.294c.009-.434.033-1.298.104-1.682Zm-6.038 2.877c.003-.205.006-.41.012-.615.27-.04.51-.045.534.154.01.27-.205.404-.546.46Zm1.387 3.028a.445.445 0 0 1-.02-.428.624.624 0 0 1 .546-.155c.194.122.28.306.12.636-.28.072-.497.05-.646-.053ZM72.64 62.301c.206-.107.815-.22 1.145-.22h.184c-.009.339-.276.502-.294.737l-.996.122-.187-.012.149-.627Zm-.96-1.807c0-.136.782-.425.996-.443v.15c0 .177-.436.858-.442 1.069l-.033.027-.496-.636-.024-.167Zm2.622-2.288c-.039-.46-.437-.66-.443-.96-.273-.074-.208-.665-1.218-.665-.021.083-.036.086-.036.184v.11c0 .258.443.573.443 1.105v.737c0 .285-.731.467-.972.58-.244.11-.868.344-1.168.344l-.044.146c-.17.045-1.248.068-1.248.261v.036c0 .101.285.407.353.496.086.11.35.315.532.315h.294c.033-.083.38-.258.479-.258h.184v.553c0 .127-.065.517-.184.517h-.149c-.041.107-.784.294-.96.294h-.442c-.06.148-.185.041-.185.22v.074c0 .152.185.13.185.443 0 .151-.203.853-.295.885v1.254c0 .425.152 1.18.553 1.18h.11c.259 0 .529-.371.517-.553l-.116-2.288c-.13-.145-.232-.386-.437-.44v-.148c.241-.021.75-.184.886-.184h.294c.101 0 .101.017.184.035l-.044.146c.053.068.083.068.083.148v.149l.244.158-.17.03c-.136 0-.294.33-.294.516v.22c0 .158.273.333.443.333h.333c.03-.113.071-.149.22-.149h.11l-.28.506c-.234.032-.312.065-.312.344 0 .404.38.693.443.922h.149l.044.106.14.004c.157 0 .151-.22.407-.22h.036c.163 0 .332.532.332.737.194.07.101.442.369.442h.035c.066 0 .553-.487.553-.627v-.552h.075l.044-.443c.119-.19-.006-.187.175-.262.14-.056.128-.065.244-.163.16-.13.238-.342.238-.612a.144.144 0 0 0-.149-.149h-.478v-.074h-.149c-.015-.181-.074-.137-.074-.294v-.066c0-.083.03-.08.074-.148l.52-.098.045-.345c-.143-.033-.193-.06-.193-.223 0-.261.318-.475.436-.633.167-.223.286-.401.67-.401l.106-.08 1.073-.116.443.009c.145 0 .003.056.222.074 0 .226.06.345.036.553l-.041.478-.375.859-.107.392-.1.003-.319.728-.264.321-.182.178.03.03c-.083.021-.086.036-.184.036h-.184c-.03-.107-.28-.401-.479-.407.003.163.259.62.327.778.071.164.003.318.09.467.065.119.166.145.249.303h.184c.066.044.066.074.149.074h.294c.226 0 .3-.285.478-.333v-.184c.179-.065.547-.891.716-1.13.101-.139.485-1.128.503-1.342h.11c0-.321.22-.586.22-.886v-.407c0-.199-.11-.154-.11-.443h-.11c-.015-.169-.387-.737-.553-.737h-.149c-.03-.077-.086-.148-.184-.148h-.368l-.663.089-.107.065-.594.042c-.099 0-.078-.621-.203-.767-.083-.095-.412-.35-.573-.35h-.036a.144.144 0 0 0-.148.148v.333l-.235.398c-.253.03-.104.297-.342.39-.035.014-.58.133-.606.133h-.478v-.11c0-.056.261-.668.312-.722.22-.235.205-.455.425-.57.006-.202.095-.422.243-.494.072-.035.476-.169.53-.172l.044-.107c.252-.009.55-.122.763-.19.084-.027.556-.3.556-.401v-.11c0-.066-.487-.592-.553-.592h-.478c-.14 0-.166.072-.36.12-.118.029-.25.065-.267.213h-.187v.01Zm-1.504 5.554c.178-.116.24-.101.19.039-.098.199-.089.32.12.288.047.1.073.205-.033.306a.63.63 0 0 1-.407.178c-.128.006-.209-.032-.244-.095.083-.27.16-.55.374-.716ZM57.792 63.52c.234-.021.368-.185.517-.185h.074c.104 0 .13.107.184.184l.09.476.092.047c.005.152.261.523.261.583 0 .1-.018.1-.036.184-.246.006-.214.11-.407.11-.098 0-.775-1.055-.775-1.18v-.22Zm1.77-.408c0-.142.96-.368 1.11-.368.032 0 .073.041.073.074 0 .38-.457 1.587-.775 1.587h-.149l-.142-.657c-.036-.104-.116-.362-.116-.523v-.113Zm-2.287-.847c.148-.1.341-.223.59-.223.022 0 .081.054.11.075 0 .273.11.306.11.478 0 .128-.466.259-.516.259h-.294c-.09 0-.259-.324-.259-.369v-.074c0-.083.03-.08.074-.149h.184v.003Zm6.347-.297c.03-.03.089-.074.148-.074h.149v.148c0 .099-.053.11-.11.15 0 .234-.44.745-.591.849 0 .199-.277.603-.384.76-.098.143-.136.227-.228.363-.11.164-.27.155-.2.28-.157.041-.065.074-.184.074h-.11c-.092 0-.181-.137-.517-.11-.184.015-.309.038-.553.038h-.148c-.086 0-.11-.026-.11-.11 0-.083.309-.163.333-.442l.145-.042c.018-.196.289-.609.366-.775.119-.253.095-.696.41-.696h.11c.033-.077.535-.252.657-.3.237-.1.487-.113.817-.113Zm-7.533 1.887c.157.297.437.496.642.722.181.2.16.116.324.378.13.21.136.217.306.395.151.163.113.22.344.354.152.089.277.246.42.246h.11c.148 0 .231-.294.516-.294h.185l.035.113.315.11-.017.038h.442c.173 0 .11-.068.333-.074v-.11l.701-.044.11.009v-.078h.702c.154 0 .734.226.775.333h.294c.253 0 .57-.648.853-.77.128-.056.734-.725.779-.844.136-.368 1.15-1.658 1.578-1.67.053-.196.368-.314.368-.478 0-.526-.422-.636-.597-.954-.256-.46-.125-.1-.392-.383-.134-.143-.152-.363-.413-.363h-.185l-.404.042v.068h-.223c-.113 0-.591.303-.85.369-.127.032-.85.38-.85.11v-.149c0-.27.22-.25.22-.591v-.069c0-.276-.228-.255-.472-.303-.056-.012-.535-.214-.562-.214h-.258l-.074.149c0 .517-.069 1.423-.22 1.735-.075.155-.416.277-.6.357-.179.08-.232.018-.414.068-.151.042-.205.128-.353.128-.021 0-.08-.053-.11-.074 0-1.427-.776-.654-.776-1.034 0-.182.443-.574.627-.592l-.026-.026.407-.408.026.027c.015-.172.473-.811.627-.811h.925c.374 0 .66.05.998.039.163-.006.698-.179.698-.333v-.259c0-.276-.208-.85-.443-.85h-.258l-.995.084v.065h-.369l-1.991.13-.995-.017c-.018.08-.042.095-.045.148l.05.514c.099.057.372.437.547.553.17 0 .517-.068.517.11 0 .083-.03.08-.074.149v.184a7.47 7.47 0 0 1-.484.624c-.253.276-.28.223-.476.594h-.074v.11l-.327.09-.047.279-.2.163c-.36.03-.267.318-.751.318-.68-.003-.49.146-.815.22l-.127.235-.021.17c-.057.038-.11.047-.11.148v.333c.261.062.246.16.347.353.08.149.217.321.277.428Z" clip-rule="evenodd"/></g><defs><filter id="a" width="154" height="157" x="0" y="0" color-interpolation-filters="sRGB" filterUnits="userSpaceOnUse"><feFlood flood-opacity="0" result="BackgroundImageFix"/><feColorMatrix in="SourceAlpha" result="hardAlpha" values="0 0 0 0 0 0 0 0 0 0 0 0 0 0 0 0 0 0 127 0"/><feOffset dy="16"/><feGaussianBlur stdDeviation="6.5"/><feColorMatrix values="0 0 0 0 0 0 0 0 0 0 0 0 0 0 0 0 0 0 0.03 0"/><feBlend in2="BackgroundImageFix" result="effect1_dropShadow_185_282"/><feBlend in="SourceGraphic" in2="effect1_dropShadow_185_282" result="shape"/></filter></defs></svg>