<svg xmlns="http://www.w3.org/2000/svg" width="154" height="157" fill="none"><g filter="url(#a)"><path fill="#fff" d="M13 0h128v128H13z"/><path fill="#262535" d="M115.087 64.22c-.196 0-.441 0-.638.05-1.226.147-2.785 0-3.913.294-1.227.344-.933.822-.393 1.362.295.295.393.49 1.129.871.785.393 2.589-.49 3.815-.54h.344c.687.099 1.129-.098 1.129.197.098.822.098 1.509-.295 2.183-.098.197-.589.295-1.178.344-1.276.049-3.079-.05-2.736.442.491.441 1.362.772 1.902 1.263.344.295.638.626.834.871.295.344.491.59.638.675.393.294 1.08.098 1.755-.442.294-.245.54-.54.785-.92.343-.54.736-1.362 1.03-1.987.344-.871-.049-2.773.344-3.153.049-.05.098-.05.147-.05.196-.048.393-.048.54-.097.883-.099 1.227.049 2.343.343.736.147 2.147-.196 1.804-1.116-.393-1.117-.54-1.166-1.276-1.755-.295-.196-.687.197-1.362.246-.491.049-1.031.147-1.509.196-.245.049-.491.049-.687.049-.54.05-.883-.049-.883-.294 0-.295.392-.724.883-1.117.196-.147.442-.294.687-.441.196-.099.393-.197.589-.246.736-.245.638-.822.932-1.165 1.804-.724 3.914.441 4.834-1.117.049-.147.049-.245.049-.343v-.148c-.049-.588-.638-.92-1.178-1.46-.883-.772-1.411-.87-3.03-.54-.442.099.393-1.312.687-1.79.442-.675.54-1.313.982-1.939.294-.441.588-.87.49-1.165-.687-1.608-1.03-1.559-1.509-1.706-.49-.147-1.227.393-1.754.442-.442.049-.785.049-1.08.147-.196.05-.343.197-.294.344a.919.919 0 0 0 .294.343c.246.197.54.344.834.54.295.196.589.442.688.54.294.196.098.589-.099.442-.098-.05-.883-.099-1.361-.197-.246-.049-.442-.196-.442-.343.098-.442-.049-.626-.295-.773-.147-.098-.343-.197-.343-.442.049-.343.098-.393.196-.442.049-.098.147-.147.197-.245.343-.343.539-.626.687-.92.294-.54.245-.822 0-1.117a4.098 4.098 0 0 0-.687-.723c-.246-.197-.54-.393-.835-.344-1.128.098-.54 1.706-1.079 2.282-.049.05-.148.147-.246.196-.441.197-.883-.147-1.276-.441-.245-.197-.687-.246-1.128-.147-.049 0-.098 0-.148.049-.245.049-.196.589-.539.441-.393-.196-1.276-.392-1.608-.098-.343.245 0 1.264 0 2.037-.196 1.214.05 3.987-.049 6.072-.098.295-.834.246-.834-.245 0-.87.147-2.134.147-3.398 0-.245.344-.147.049-.822-.49-1.018-.932-1.607-1.361-1.84-.393-.197-.687-.05-.786.54-.098.392-.049 1.214.197 1.754.196 1.116.245 4.858-.049 5.103-.344.295-.589.442-1.031.393-.294-.05-.491-.294-.834-.344-.393-.049-.589.246-.834.491-.197.197-.442.393-.54.773-.049.442.147.871.098 1.411-.049.773-.245 1.41-.491 2.233v.245c.098.59.687 1.46 1.362 1.313.54-.147.785-.54 1.031-1.018.196-.393.441-.871.687-1.362.294-.54.343-1.89.883-2.331.54-.49 1.411-.626 1.803-.675.442-.049.589-.147.982-.196.245-.05.687 0 1.178-.098.294-.05.441-.344.687-.54l.049-.05c.294-.196.687-.245.883-.294.442-.098.932-.147 1.46-.196.442-.049.883-.049 1.276-.098.294-.05.589-.05.883-.05.246 0 .491-.048.687-.048.982-.05 1.657-.098 1.755-.05.294.148.098.54-.246.59-.343.049-.883.049-1.509.147-.196 0-.441.049-.687.049a20.8 20.8 0 0 0-1.754.245l-.393.05c-.883.147-1.705.294-2.392.441-.589.147-1.129.294-1.46.442-.343.147-1.276.674-1.607.87-.785.442-.638.774-.295 1.117.835.675 2 .344 2.196.098.442-.441.786-.589 1.129-.675.295-.049.54-.098.883-.196.442-.147 1.51-.626 1.51-.147-.05.49-.295.294-.442.675-.147.392-1.558.54-1.607 1.067-.049.344.589.675.294 1.067-.196.013-.442.062-.675.062Zm.773-8.158c-.049.246-.392.54-.785.724-.294.196-.638.295-.736.196-.245-.723.245-.723.294-1.509.049-.441.295-.49.442-.54.049 0 .098-.048.098-.048.785-.135.785.294.687 1.177Zm.147-3.938c-.049.442-.539.92-.883 1.117-.147.098-.294.098-.343.049 0-.724.098-1.362.196-2.135 0-.098-.049-.245.098-.344h.049c.687-.098.933.491.883 1.313Zm1.178 1.89c-.049-.246 0-.295.147-.59.05-.098.099-.147.148-.147.049 0 .049-.049.049-.049.294-.049.294.05.245.393 0 .098-.147.245-.294.294-.098.099-.246.148-.295.099Zm.724 3.017c-.098.099-.294.099-.442.05-.049 0-.098-.05-.098-.099.049-.196.049-.196.098-.294l.148-.147c.147-.197.245.049.294 0 .295.147.245.245 0 .49Zm1.914-.687c-.049.05-.098.05-.196.05-.148 0-.393-.05-.393-.148.098-.294.049-.392.344-.441h.049c.196 0 .245 0 .343.098.196.208 0 .343-.147.441Zm1.215-2.33c-.099.147-.344.147-.687.098h-.148c-.245.049-.49-.05-.54-.148v-.049c-.049-.196-.147-.441 0-.54.05 0 .05-.049.099-.049h.589c.245 0 .49.05.687.148.098.16.098.441 0 .54Zm-24.366 13.36a9.437 9.437 0 0 1-2.834-1.313c-3.079-2.135-5.422-5.202-6.305-7.336-.295-.872 1.754-1.019 3.03-1.706.981-.54 1.803-.822 2.196-1.313.294-.441.147-.723-.098-.969-1.657-1.938-1.951-.674-2.785-.441-.687.196-1.178.343-1.607.196-.148-.147-.295-.196-.148-1.215.295-1.938.099-1.41-.147-1.79-.54-.725-1.129-1.215-1.95-1.363-.442-.049-.688.148-1.46.626-.344.196-.786.589-.638 1.166.294 1.165.245 2.674.196 3.594 0 .197-.687.295-1.755.295-.294 0-1.361-.099-2.147-.246-1.558-.196-2.932.393-1.275 3.742.834.97 1.803.675 4.49.393.245.098-.05 2.527-1.853 3.889-.687.54-1.08 1.41-4.048 1.509-.246.049-.54.049-.344.54.344.674 2.589 1.165 2.932 1.46.295.245 1.325.54 2-.05 1.558-1.214 3.08-4.122 3.766-5.729.05-.147.197-.147.197-.098.687 1.215 4.54 7.287 5.815 7.962 1.276.675 5.668-.049 6.883-.675.76-.404-.552-.736-2.11-1.128Zm-27.554-3.84c.245-1.166.49-2.331.441-3.3-.294-1.706-2.343-2.037-2.687-1.792-.736.491-.54 3.202-1.41 3.35-.688.294-2.736.87-2.736.392-.099-.589-.05-2.183-.05-3.84 0-1.938.05-3.938.491-4.662.246-.675-1.361-2.184-2.147-2.282-.441-.049-2 .442-1.656 2.037.05.098.098.442.098.54.147.969 0 8.011.098 9.078.05.197-.834.393-1.607.491-.589.098-1.128.196-1.313.05-.245-1.02.099-2.626-.687-3.89-.294-.54-.54-.724-.883-.822-1.178-.147-1.129.54-1.129 1.166.099 1.214-.049 2.956-.441 3.938-.393.87-.834 1.362-.197 2.183.639.773.933 1.755 1.46 1.608.246-.099.982.147 1.13-.05.196-.245 1.177-1.116 1.361-1.263.343-.344 2.49-.773 4.588-.675.54-.098.687-.675 1.08-.87.736-.394 2-.627 2.49-.59.148.147.148.295.148.871 0 1.068.245 3.006 1.08 2.822.54-.393 2.097-1.987 2.146-2.38.086-.307.184-1.288.332-2.11ZM42.74 50.088c-.687 0-1.607.625-2.343.723-.441.05-.834.05-1.178 0-.392 0-.736-.049-.981-.049-.098-.969.049-2.183.049-3.25 0-.774-1.705-1.559-2.049-1.51-1.362.295-2.294 1.411-1.901 2.233.049.147.147.344.147.54-.05.97.098 2.036.147 3.055-.687.245-1.129.441-1.754.773-.295.196-.688.392-1.13.625-.49.295-.784.54-1.177.442-.883-.773-2.049-.05-2.294.393a7.307 7.307 0 0 0-.49 2.281c-.05.344-.05.54-.148.724-.245.442-.344.773-.638 1.51 0 .772.442 1.165.883 1.754.54.822.59 1.607.982 1.938.49.344 1.129.442 1.656.295.245-.05.393-.442.589-.626.196-.196.393-.393.589-.54.442-.196.834-.343 1.178-.49.49-.197.932-.344 1.312-.393l.148 9.226c.049 2.233.687 3.643 1.312 3.742.933-.148 1.51-1.755 1.755-3.546.098-3.35.392-6.551.441-9.95.442-.294.933-.54 1.362-.724.638-.294 1.276-.441 1.95-.392.54 0 .688-.147.933-.246.687-.294 1.276-1.656 1.03-1.987-.392-.295-.392-.54-.343-.871-.049-.245.883-1.46 1.411-1.755l.442-.147c.54-.294 1.03-.87.785-1.656-.331-.76-1.693-2.122-2.675-2.122Zm-8.796 7.324c-.49.294-.687.392-1.08.392-.196 0-.392-.049-.687-.049-.441-.098-.785-2.625-.441-2.429.343.098.736.098 1.128 0 .246-.049.442-.147.687-.294.099-.05.344-.393.491-.147.098.294.196 2.343-.098 2.527Zm5.913-2.466c-.098.196-.294.442-.638.675-.343.245-.736.441-1.08.392-.294-.147-.147-2.527.05-2.92.245-.098.589-.245 1.03-.294.442-.05.884-.05 1.178.196.295.59-.196 1.411-.54 1.95ZM50.703 76.55v-.197h-1.559v.197c.197 0 .344 0 .442.049a.27.27 0 0 1 .147.245c0 .098-.049.196-.098.393l-.147.294-.785 1.313-.834-1.607c0-.05-.05-.099-.099-.197s-.049-.147-.049-.196c0-.098.05-.147.099-.196.049-.05.245-.05.49-.05v-.196h-2.343v.197c.196 0 .343.049.49.245.05.05.05.05.099.147l1.276 2.331v1.019c0 .294-.05.441-.147.54-.05.048-.246.097-.491.097v.148h2.441v-.147c-.294-.05-.441-.05-.54-.148-.098-.049-.147-.245-.147-.54V78.98l1.362-2.184a.383.383 0 0 1 .196-.196c.05-.05.099-.05.197-.05Zm66.531 1.214h.197c.049-.49.245-.822.539-1.018.197-.098.442-.196.835-.196v3.692c0 .295-.049.491-.148.54-.049.05-.245.098-.539.098v.148h2.49v-.16c-.294 0-.442-.049-.54-.098-.098-.05-.147-.245-.147-.54v-3.693c.344 0 .638.05.834.197.295.196.491.54.54 1.018h.196v-1.411h-4.244v1.423h-.013Zm-61.992 0h.245c.05-.49.246-.822.54-1.018.196-.098.442-.196.785-.196v3.692c0 .295-.049.491-.147.54-.049.05-.245.098-.54.098v.148h2.49v-.16c-.294 0-.44-.049-.54-.098-.097-.05-.146-.245-.146-.54v-3.693c.343 0 .638.05.834.197.294.196.49.54.54 1.018h.196v-1.411h-4.196l-.061 1.423Zm-.344 2.957c-.098-.098-.196-.344-.392-.773l-1.558-3.693h-.197l-.294.724-1.276 3.104c-.147.294-.196.49-.294.589a.331.331 0 0 1-.295.196c-.049 0-.049.05-.098.05v.146h1.41v-.147c-.146 0-.294 0-.392-.049-.147-.049-.196-.147-.196-.245 0-.05.05-.147.05-.295.048-.147.146-.343.245-.625h1.57c.098.245.196.392.196.49.098.197.147.393.147.442 0 .098-.049.196-.098.196-.098.05-.245.05-.442.05v.147h2.246v-.16c-.086.05-.233 0-.332-.147Zm-2.441-1.251h-.687l.638-1.706.049.05.687 1.656h-.687Zm63.354.92v-3.399c0-.196.049-.343.196-.441.099-.05.246-.05.442-.05v-.196h-2.441v.246h.049c.196 0 .343 0 .441.049.148.049.197.196.197.441v3.399c0 .196-.049.294-.098.343-.049.05-.246.098-.54.147v.148h2.441v-.148c-.196 0-.392-.049-.491-.098-.147-.061-.196-.196-.196-.441Zm-81.425-3.84c.294 0 .49.049.588.196.099.098.099.245.099.49v2.135c0 .393-.05.724-.148.92-.196.393-.54.59-1.08.59-.343 0-.588-.099-.784-.344-.197-.197-.246-.54-.246-1.018v-2.331c0-.295.05-.491.197-.54.049-.05.245-.098.54-.098v-.197h-2.393v.197c.245 0 .393.049.442.098.098.098.147.245.147.54v2.33c0 .344.049.626.147.822.05.148.196.295.344.442.196.197.441.295.785.393.196.049.441.049.638.049.245 0 .49-.05.736-.098.294-.098.49-.246.687-.393.147-.147.245-.343.294-.626.05-.245.099-.49.099-.723v-2.233c0-.197.049-.393.147-.442.049-.049.196-.098.441-.147v-.196h-1.68v.184Zm91.056-.246v.246c.196 0 .343 0 .442.049a.27.27 0 0 1 .147.245c0 .098-.049.196-.098.393l-.148.294-.785 1.313-.834-1.607c0-.05-.049-.099-.098-.197s-.049-.147-.049-.196c0-.098.049-.147.098-.196.049-.05.196-.05.442-.05v-.196h-2.344v.197c.197 0 .344.049.491.245 0 .05.049.05.098.147l1.276 2.331v1.019c0 .294-.049.441-.147.54-.049.048-.245.097-.54.097v.148h2.442v-.147c-.295-.05-.442-.05-.54-.148-.098-.049-.148-.245-.148-.54V78.98l1.362-2.184a.38.38 0 0 1 .197-.196c.049-.05.196-.05.294-.099v-.196h-1.558Zm-95.89 2.184-1.03-.54a2.366 2.366 0 0 1-.59-.392c-.098-.099-.147-.246-.147-.442s.098-.393.245-.49a.99.99 0 0 1 .54-.148c.393 0 .687.147.982.49.196.246.343.54.442.823h.196v-1.51h-.197c0 .05-.049.099-.049.099-.049.049-.098.098-.196.098-.049 0-.147-.05-.393-.098-.245-.098-.49-.098-.686-.098-.442 0-.786.098-1.08.343-.295.246-.49.59-.49 1.019 0 .245.048.49.146.674.197.295.54.59 1.03.822l.492.197c.294.147.49.245.588.343.148.147.197.294.197.54a.813.813 0 0 1-.245.589c-.148.147-.393.196-.638.196-.393 0-.737-.147-1.031-.49-.196-.246-.344-.59-.442-1.019h-.184v1.754h.197c0-.049.049-.147.049-.196.049-.049.049-.049.147-.049l.589.147c.196.05.392.098.638.098.589 0 1.03-.196 1.361-.54.246-.294.393-.588.393-.969 0-.343-.098-.625-.294-.87a2.075 2.075 0 0 0-.54-.381Zm10.256-1.938h.05c.245 0 .441.049.54.196.097.098.097.294.097.49v2.135l-2.441-3.018h-1.521v.197c.049 0 .147 0 .196.049.098.049.196.196.392.441v3.3c0 .197-.049.344-.147.442-.049.05-.196.098-.441.098v.148h1.607v-.16c-.246-.049-.442-.098-.54-.196-.098-.098-.147-.295-.147-.54v-2.822l3.128 3.791h.197V76.98c0-.196.049-.344.098-.393.049-.098.196-.147.441-.147v-.196h-1.509v.307Zm57.686 0h-.049c.393 0 .59.098.59.294 0 .05 0 .147-.05.196-.049.099-.049.197-.098.295l-.883 2.33-.933-2.183c-.049-.05-.049-.147-.147-.294-.049-.148-.098-.246-.098-.295 0-.147.049-.196.147-.245.05-.05.246-.05.49-.05v-.196h-2.342v.197c.196.049.294.049.392.098.05.049.147.196.246.392l1.803 4.172h.196l1.608-4.123c.098-.196.147-.343.245-.441.098-.05.196-.147.392-.147v-.197h-1.509v.197Zm-8.403 0c.294 0 .441.049.54.196.048.098.097.294.097.49v2.135l-2.44-3.005h-1.51v.196c.05 0 .147 0 .196.049.099.049.246.196.442.442v3.3c0 .196-.049.343-.147.442-.05.048-.246.098-.442.098v.147h1.607v-.172c-.294-.049-.441-.098-.54-.196-.098-.098-.147-.295-.147-.54v-2.822l3.129 3.791h.196V76.98c0-.196.05-.344.098-.393.05-.098.197-.147.442-.147v-.196H89.09v.307Zm3.864 3.84v-3.399c0-.196.05-.343.196-.441.099-.05.246-.05.442-.05v-.196h-2.441v.246h.049c.196 0 .343 0 .441.049.148.049.197.196.197.441v3.399c0 .196-.05.294-.099.343-.048.05-.245.098-.54.147v.148h2.442v-.148c-.245 0-.392-.049-.49-.098-.148-.061-.197-.196-.197-.441Zm9.962.282c-.294.147-.589.196-1.03.196-.246 0-.393-.049-.491-.098-.098-.05-.147-.147-.147-.294v-1.694c.392 0 .638.05.834.246.196.147.294.442.343.87h.197v-2.38h-.197c-.049.442-.196.676-.343.823-.147.147-.442.196-.785.196v-1.595c0-.147.049-.245.098-.294.049-.05.196-.05.441-.05.54 0 .884.05 1.129.197.295.196.442.49.54.97h.196v-1.412h-4.048v.197c.196 0 .343 0 .441.049.148.049.197.196.197.441v3.399c0 .196-.049.343-.197.392-.049.05-.196.05-.441.098v.148h4.097l.295-1.46h-.295c-.196.527-.49.87-.834 1.055Zm-19.2-4.122c.294 0 .49.049.589.196.049.098.098.245.098.49v2.135c0 .393-.05.724-.147.92-.197.393-.54.59-1.129.59-.343 0-.589-.099-.785-.344-.147-.197-.246-.54-.246-1.018v-2.331c0-.295.05-.491.197-.54.049-.05.245-.098.49-.098v-.197h-2.392v.197c.246 0 .393.049.442.098.098.098.147.245.147.54v2.33c0 .344.05.626.147.822.05.148.197.295.344.442.196.197.442.295.785.393.196.049.442.049.638.049.245 0 .49-.05.736-.098.294-.098.49-.246.687-.393.147-.147.246-.343.295-.626.049-.245.049-.49.049-.723v-2.233c0-.197.049-.393.147-.442.049-.049.196-.098.442-.147v-.196h-1.51v.184h-.024Zm25.261 4.269-1.411-1.987c.294-.099.54-.197.687-.344.294-.196.392-.49.392-.871 0-.393-.147-.675-.49-.92-.295-.197-.785-.295-1.313-.344h-2.392v.197c.245 0 .392.049.441.098.098.049.148.245.148.54v3.104c0 .294-.05.441-.148.54-.049.048-.245.097-.49.147v.147h2.392v-.147c-.245-.05-.442-.099-.491-.148-.098-.049-.147-.245-.147-.49V78.98h.196l.442.674 1.03 1.51h1.411v-.148c-.049 0-.098 0-.147-.049-.061-.098-.11-.098-.11-.147Zm-1.853-2.331c-.049.05-.196.098-.343.147-.197.05-.393.05-.638.05v-1.792c0-.147.049-.196.098-.245.049-.05.147-.05.343-.05h.197c.196.05.343.099.441.246.148.147.197.442.197.773.036.442-.111.724-.295.871Zm-35.762 2.184c-.246.147-.59.196-1.03.196-.246 0-.394-.049-.492-.098-.098-.05-.098-.147-.098-.294v-1.694c.344 0 .638.05.785.246.197.147.295.442.344.87h.196v-2.38h-.196c-.05.442-.196.676-.344.823-.147.147-.441.196-.785.196v-1.595c0-.147.05-.245.098-.294.05-.05.197-.05.393-.05.54 0 .883.05 1.129.197.294.196.441.49.54.97h.196v-1.412H68.05v.197c.197 0 .344 0 .442.049.147.049.196.196.196.441v3.399c0 .196-.049.343-.147.392-.05.05-.245.05-.442.098v.148h4.098l.294-1.46h-.196c-.294.527-.589.87-.932 1.055Zm41.136-2.184-1.031-.54a2.375 2.375 0 0 1-.589-.392c-.098-.099-.147-.246-.147-.442s.098-.393.245-.49a.993.993 0 0 1 .54-.148c.393 0 .687.147.982.49.196.246.343.54.441.823h.197v-1.51h-.197c0 .05-.049.099-.049.099-.049.049-.098.098-.196.098-.049 0-.147-.05-.393-.098-.245-.098-.49-.098-.687-.098-.441 0-.785.098-1.079.343a1.297 1.297 0 0 0-.491 1.019c0 .245.049.49.147.674.197.295.54.59 1.031.822l.491.197c.294.147.49.245.539.343.148.147.246.294.246.54a.81.81 0 0 1-.246.589c-.147.147-.392.196-.687.196-.392 0-.736-.147-1.03-.49-.197-.246-.344-.59-.442-1.019h-.196v1.754h.196c0-.049.049-.147.049-.196.049-.049.049-.049.147-.049l.589.147c.197.05.393.098.638.098.589 0 1.031-.196 1.362-.54.245-.294.393-.588.393-.969 0-.343-.099-.625-.295-.87a1.394 1.394 0 0 0-.478-.381Zm-36.204-1.938h.049c.245 0 .441.049.54.196.098.098.098.294.098.49v2.135l-2.442-3.005h-1.509v.196c.05 0 .147 0 .197.049.098.049.196.196.392.442v3.3c0 .196-.049.343-.147.442-.05.048-.197.098-.442.098v.147h1.607v-.172c-.245-.049-.441-.098-.54-.196-.098-.098-.147-.295-.147-.54v-2.822l3.129 3.791h.196V76.98c0-.196.05-.344.098-.393.05-.098.197-.147.442-.147v-.196h-1.51v.307h-.011Zm-9.864 1.938-1.03-.54a2.37 2.37 0 0 1-.59-.392c-.098-.099-.147-.246-.147-.442s.098-.393.245-.49a.99.99 0 0 1 .54-.148c.393 0 .687.147.982.49.196.246.343.54.441.823h.197v-1.51h-.197c0 .05-.049.099-.049.099-.049.049-.098.098-.196.098-.049 0-.147-.05-.392-.098-.246-.098-.491-.098-.688-.098-.441 0-.785.098-1.08.343-.294.246-.49.59-.49 1.019 0 .245.05.49.147.674.197.295.54.59 1.03.822l.492.197c.294.147.49.245.588.343.148.147.197.294.197.54a.813.813 0 0 1-.246.589c-.147.147-.392.196-.687.196-.392 0-.736-.147-1.03-.49-.197-.246-.344-.59-.442-1.019h-.196v1.754h.196c0-.049.05-.147.05-.196.048-.049.048-.049.146-.049l.59.147c.196.05.392.098.637.098.59 0 1.03-.196 1.362-.54.245-.294.393-.588.393-.969 0-.343-.098-.625-.295-.87-.086-.185-.282-.283-.478-.381Zm-5.914.589h2.442v.822h-2.442v-.822Z"/></g><defs><filter id="a" width="154" height="157" x="0" y="0" color-interpolation-filters="sRGB" filterUnits="userSpaceOnUse"><feFlood flood-opacity="0" result="BackgroundImageFix"/><feColorMatrix in="SourceAlpha" result="hardAlpha" values="0 0 0 0 0 0 0 0 0 0 0 0 0 0 0 0 0 0 127 0"/><feOffset dy="16"/><feGaussianBlur stdDeviation="6.5"/><feColorMatrix values="0 0 0 0 0 0 0 0 0 0 0 0 0 0 0 0 0 0 0.03 0"/><feBlend in2="BackgroundImageFix" result="effect1_dropShadow_185_51"/><feBlend in="SourceGraphic" in2="effect1_dropShadow_185_51" result="shape"/></filter></defs></svg>