<svg xmlns="http://www.w3.org/2000/svg" xml:space="preserve" style="fill-rule:evenodd;clip-rule:evenodd;stroke-linejoin:round;stroke-miterlimit:2" viewBox="0 0 154 157"><path d="M33.118 63.902C32.961 39.913 52.403 20.157 76.863 20c13.954 0 27.438 6.742 35.748 18.031 8.467 11.603 10.662 26.968 5.958 40.452-6.115 17.091-22.578 28.85-40.766 29.164-24.93.627-44.842-19.599-44.685-43.745-.157 24.146-.157-23.989 0 0Zm2.822 0c0 22.578 18.345 40.922 40.766 41.079 22.735.157 40.922-18.031 41.236-40.138.47-23.362-18.188-41.864-40.452-42.021-23.205 0-41.55 18.502-41.55 41.08Z" style="fill:#085521;fill-rule:nonzero" transform="translate(-10.5 5.965) scale(1.13636)"/><path d="M37.194 63.902c0-22.108 17.717-39.355 39.041-39.825 22.421-.314 40.609 17.874 40.452 39.982-.156 21.794-17.56 39.198-39.041 39.668-22.578.314-40.452-17.717-40.452-39.825Zm78.709 0c0-21.481-17.247-38.885-38.884-38.885-21.794-.156-38.884 17.404-39.041 38.258-.314 21.951 17.404 39.355 38.727 39.511 21.481.157 39.198-17.09 39.198-38.884Z" style="fill:#085521;fill-rule:nonzero" transform="translate(-10.5 5.965) scale(1.13636)"/><path d="M99.127 65.313c0 5.958-3.763 10.975-9.564 12.7l-2.352.471c-.314 0-.627.156-.627.47-1.098 2.665-2.823 4.547-5.331 5.958a10.217 10.217 0 0 1-13.955-5.958c-.157-.314-.313-.47-.627-.47-5.331-.628-9.094-3.45-11.132-8.31-2.509-6.272.47-13.641 6.585-16.62 1.411-.784 2.979-1.098 4.547-1.255.314 0 .47-.157.47-.47 1.411-3.763 4.077-6.115 8.154-6.742 4.546-.784 9.25 2.038 10.818 6.428 0 .157 0 .157.157.314.157.313.314.47.784.627 3.293.314 5.958 1.568 8.31 4.077 1.881 2.038 3.136 4.39 3.449 7.212.157.47.157 1.098.314 1.568 0 5.958-.157-.47 0 0Zm-42.648 0c0 .47 0 .941.157 1.254.157.627.157 1.255.471 1.725.784 2.665 2.352 5.017 4.703 6.428 1.255.784 2.509 1.255 3.92 1.568 1.098.157 2.822-.313 3.136.941 1.254 5.174 6.899 7.997 11.603 5.801 2.665-1.254 4.076-3.292 4.703-5.958 0-.47 4.234-.94 5.018-1.254 1.724-.627 3.292-1.725 4.39-3.136 2.822-3.449 3.449-7.212 2.038-11.446-.941-2.351-2.508-4.233-4.704-5.644-.94-.627-2.038-1.098-3.135-1.411-.628-.157-3.45-.157-3.45-.784-.627-3.45-3.449-6.115-6.899-6.742-4.547-.784-8.78 2.195-9.564 6.742 0 .627-3.136.627-3.763.941-5.017 1.411-8.467 6.114-8.624 10.975.157-4.861 0 .47 0 0Zm32.3 25.087c2.508-1.255 5.017-2.509 7.212-4.234l-.157.157c-.313.314-.313.627.157.784 1.254.627 2.352 1.254 3.606 1.882h.157c0-.314-.157-.628-.157-.941-.313-.941-.47-1.725-.784-2.666 0-.156-.157-.313-.157-.47-.156-.314-.47-.47-.783-.314-.157 0-.157.157-.314.157 0 0 0-.157.157-.157 1.097-.784 1.724-1.724 2.508-2.822.628-.784 1.098-1.254 1.412-2.038.156-.314.313-.314.627-.157.313.314.784.47 1.097.784 0 0 .157.157.157.314-.157 0-.314-.157-.627-.157-.627-.157-1.098 0-1.411.313-.314.314-.627.784-.941 1.098 0 0 0 .314.157.314.627.47 1.254.94 1.724 1.254.314.157.471.157.471-.157.313-.47.157-.941-.157-1.254l-.47-.471.156-.156c.941.627 1.725 1.254 2.666 1.881v.157c-.157 0-.314 0-.314-.157-.784-.314-1.254-.314-1.411.157-.157.157-.157.313 0 .47.627.471 1.098.784 1.568 1.098.627.313 1.098-.471 1.254-.941.471-.784.471-1.411 0-2.195-.156-.157-.156-.314-.156-.47 0 0 .156 0 .156.156.471.471.784.784 1.255 1.098 0 .157.157.313 0 .47-1.098 1.411-2.195 2.979-3.293 4.39h-.157v-.156c.314-.471.314-.784-.156-1.098-1.255-1.097-2.666-1.881-3.92-2.979-1.098-.627-.941 1.098-.784 1.568l1.411 5.174c0 .157.157.47.157.627l-.157.157c-.47-.157-.784-.47-1.254-.627-1.568-.784-3.293-1.568-4.861-2.509-.47-.157-.784-.157-1.254 0-.471 0 0 1.098.157 1.255.784 1.254 1.254 2.351 2.038 3.606.47.941.47.941 1.254.627v.157c-1.097.627-1.881 1.097-2.979 1.568l.157-.157c.941-.627-1.725-4.704-2.352-5.488-.313-.627-1.097 0-1.411.314-.314.313-.157.94-.157 1.254.627 1.568 1.255 3.293 1.725 4.861v.313l-.157.157a210.618 210.618 0 0 0-6.115-3.606v.47c.471 1.254.941 2.352 1.255 3.606.313.784.47.941 1.254.941v.157c-.784.314-1.254.47-2.038.784.784-.784.784-.784.313-1.725-.47-1.254-.941-2.509-1.254-3.763-.157-.314-.471-.627-.784-.627-1.411-.47-.627 2.195-.627 2.665.157.628.157 1.255.313 1.882.157 1.411-.784 2.195-1.724 2.509-1.568.47-2.823-.157-3.293-1.725-.157-1.098-.314-2.195-.47-3.45-.157-.94-.157-.94-.941-1.254 1.097-.157 2.038-.314 3.292-.47v.156c-.784.314-.784.314-.784 1.098.157 1.254.157 4.704 1.725 5.017 2.509.314 1.882-2.665 1.568-4.076 0-.314-.157-.784-.157-1.098-.156-.627-.156-1.254-1.254-1.254v-.157h.47c1.098-.157 2.039-.47 2.979-.784.314-.157.471-.157.784 0 1.255.784 2.509 1.411 3.607 2.195.156.157.313.157.47.314v-.47c-.314-.785-.47-1.412-.784-2.039.47-.784.314-1.411-.47-1.097 2.508-1.255.784-.314 0 0Zm8.153-45.94c-.157-.157 0-.157 0 0-.784-.314-1.255-.628-1.882-.628-.313-.156-1.568-1.097-.627-1.097.784 0 1.568.157 2.195.627.941.47 1.725 1.098 2.509 1.411l.157.157h.47c0-.157-.157-.314-.157-.314-.784-.47-1.411-1.097-2.195-1.411-.313-.157-.784-.157-1.097-.313-.157 0-.314-.157-.471-.157-.313-.157-.784-.47-1.097-.627-.784-.471-2.195.627-2.823 1.097-.313.157-.627.157-.783-.157-.157-.156-.157-.783.156-.94.471-.471.941-.627 1.255-1.255.156-.156 1.254-.784 1.254-.156.314.47.784.627 1.098.156.627-.784 1.097-1.411 1.411-2.195.47-.47.94-.94.94.157 0 .941-.94 1.568-1.411 2.352v.47c.157 0 .314 0 .471-.156.784-1.098 1.411-2.039 2.195-3.136.313-.314.47-.471.784 0 .313.313.94.313 1.097.941.314.783 1.568-.628 1.568-.314.47.784.157.941-.157 1.568h-.156c-.471.157-.941.157-.784.784 0 .157-.157.313 0 .47.156.314.313.471.627.784l.157-.157c0-.313-.157-1.097-.314-1.254.157.157.47.157.627.314.157 0 .47.156.627.313.314.157.627.471.471.784 0 .47 0 .784-.471 1.098l-1.881.94c-.157 0-.157.157-.314.157l.157.157c.941.314 1.411 2.665.47 2.352-.313 0-.627-.157-.784-.314-.47-.313-.94-1.097-1.568-.784-.313.314-1.411-.156-1.881.157 0 .157.157.314.157.314.47.313 2.038.784 1.724 1.411 0 .784-.94 1.254-1.254.47-.313-.313-.47-.627-.784-.784-.47-.47-.627-.47-.941.157a3.187 3.187 0 0 1-1.881 1.411c-.47 0-.941.314-1.254-.157-.314-.47-.314-1.568-.471-2.038 0-.157-.157-.313-.157-.47.314.157.314.157.471.157.784.313 1.254 1.254 2.038.47.314-.47.471-.627-.157-.941-.47-.313-.94-.627-1.254-.784-1.254-.627-.941-2.509.314-1.254.47.313.94.627 1.411 1.097.47.471.627-.47 1.254-.47.314-.157.627-.157.941-.47 0-.157-.314.313 0 0Zm1.724-4.234c.471 0 1.255-.94.784-.94h-.313c-.157.156-.471.313-.627.627 0 0 0 .156.156.313Zm-.94 1.568c.157 0 .313-.157.47-.157.157-.156.314-.313.157-.627-.314-.313-.784.157-1.098.314l-.156.157c0 .156.156.156.156.156.157.157.314.157.471.157Zm3.449.471a2.175 2.175 0 0 1-.627-.471v.157l.47.47c0 .157 0 0 .157-.156-.157.156-.157-.157 0 0Zm-44.372 1.881c-.314.47-.784 1.098-.627 1.725.157.627-.47.941-1.098.941-.47-.157-.94-.314-1.254-.314-.314-.157-.47-.157-.784-.47-.314-.471-.627-.941-.784-1.255-.157-.157-.314-.313-.314-.627-.156-.47 0-1.098.471-1.098.313-.156.47-.313.47-.627.157-.47.314-1.097.471-1.411 0-.313 0-.47-.157-.627-.784-.47-2.822-2.195-.784-2.822.784-.157 1.254.627 1.725 1.097.47.471 1.254-.94 1.254-1.254.314-.784 1.411-1.254 2.195-.784.314.157.314.627.314 1.098a1.336 1.336 0 0 0 0 1.097c0 .784 1.411.627 1.097 1.725 0 .157-.157.313-.313.47-.314.471-.471.941-.784 1.255 0 .156.156.47.156.627 1.098 1.254 2.352 2.508 3.45 3.606l.941 1.411c.313.314-.314.941-.784.627-1.725-1.097-3.293-2.665-4.704-4.076.157 0 0-.157-.157-.314.157.157-.314.627 0 0Zm0-4.077c-.157-.47-.157-.783-.47-1.097-.157-.314-.314-.314-.627 0-.628.47-.628.784-.157 1.254.313.314.784.941 1.097.157.157-.157.157-.157.157-.314Zm-1.254 3.136c-.157-.313-.784-1.097-1.098-1.097l-.157.157c-.156.156-.156.47-.313.627-.314.47-.314.47.157.784.94 0 .627.156 1.411-.471-.157.157-.157-.313 0 0ZM73.57 99.337c-1.098-2.038-2.352-4.077-3.45-6.115l-.156.157c-.314 1.254-.471 2.508-.784 3.763-.157.784 0 .941.627 1.254v.157c-.784-.157-1.411-.314-2.195-.47 0-.157 0-.157.157-.157.94-.157.94-.157 1.097-1.098.314-1.411.627-2.822.784-4.233 0-.314-.314-.941-.627-1.098-.157 0-.314.157-.314.157-.157.314-.157.784-.47 1.254h-.157c0-1.097-.47-2.352-1.881-2.352-.157-.156-.314 0-.471.157-.313.784-.627 1.255-.784 2.038-.157.157 0 .314.157.471.47.157.941 0 1.098-.471.156-.156.313-.47.47-.627h.157c-.471 1.098-.941 2.039-1.098 3.136h-.157c0-.627.157-1.568-.627-1.724-.47-.471-1.097 1.567-1.254 1.881-.157.47 0 .627.314.784.783.314 1.411.627 2.195.314.313-.157.784-.471.94-.941l.157.157v.156c-.313.471-.627 1.098-.941 1.412 0 .156-.313.156-.313.156-1.568-.627-3.293-1.254-5.018-1.881l-.156-.157h.156c.941.157.941-.314 1.255-1.098.47-1.254 1.097-2.508 1.568-3.919.157-.628-.784-1.255-.784-.784-.157.313-.471.784-.627 1.097 0 .157 0 .157-.157.314l-.157-.157v-.314c.314-1.097-.314-2.195-1.254-2.508-.628-.157-1.255.313-1.098 1.097.314.941 1.098 1.568 1.254 2.509.941 1.568-.94 3.293-2.508 2.665-1.098-.313-1.411-1.411-2.666-1.411.471-.784.941-1.411 1.255-2.038h.156v.314c-.313 1.254.157 2.195 1.098 2.665.47.314.941.157 1.254-.157.314-.313.471-.784.157-1.097-.313-.627-.784-1.255-1.097-1.882-.314-.47-.471-1.097-.314-1.411.314-1.254 1.568-1.881 2.822-1.254.471.313 1.411 1.568 1.882 1.254.157.157.313.314.627.314 2.195.94 4.39 1.881 6.742 2.352.314 0 .47.156.627.47.784 1.254 1.254 2.665 2.038 3.92 0 .157.157.157.157.313h.157c0-.156.157-.47.157-.627.157-.784.313-1.411.47-2.195.157-.627 0-.784-.627-1.098 0 0-.157 0-.157-.156.627.156 1.254.313 1.882.313v.157l-.157.157c-.471 0-.784.314-.784.627a20.237 20.237 0 0 1-.627 2.979c.47.627.313 1.411 0 2.509.313-.157.157-.157 0 0 .157 0 .157 0 0 0 .157 0-.627-1.098 0 0ZM89.563 41.01c-1.255 0-2.509.314-3.607-.313-.627-.314-.784-1.411-1.097-2.039-.314-.94-.627-1.724-.941-2.665 0-.157-.157-.314-.157-.627l-.47.47c-.784.627-1.254 1.254-2.038 1.882-.628.47-.941.47-1.412 0-.313-.314-1.254-.784-1.254-1.255h.471c1.411.471 3.135-.627 3.449-1.568.157-.47.157-.47-.314-.627-.47 0-.94-.157-1.254-.313-.47-.157-.627-.471-.784-.784 0-.314-.157-.628 0-.941 0-.627.47-.941.941-.784.784.157 2.195 1.254 2.509.157.156-.471.156-1.098.313-1.411 0-.157.157-.314.314-.471.94-.47 1.724 0 1.881.941 0 .157-.157.47-.157.784-.313.784.628 1.411 1.255.784.313-.157.627 0 .784.313a.488.488 0 0 1 .156.314c.157.47.157.627-.313.784-.627.157-2.038 0-2.509.47-.157 0-.313.314-.313.471.47 2.352 1.411 4.233 3.449 5.801.627 0 .941.157 1.098.627 0-.157 0-.157 0 0 0-.157-.157 0 0 0ZM66.671 30.976c.314.156.784.313 1.098.47.156 0 .156.157.313.313.314.941.627 1.882 1.098 2.823.156.47.47.941.627 1.254.157.314.313.47.627.157l.157-.157c.94-.627.94-.784.627-1.725 0-.47-.314-.94.313-1.097.628-.157 1.412.313 1.412.941.627 1.568.47 2.508.156 4.076-.313.627-1.097-.784-1.097-1.097-.471-.784-1.411.313-1.568.94 0 .157-.314.314-.47.314-.941.47-1.725.941-2.195 1.881-.157.628-.784.784-1.255.471-.157-.157-.313-.157-.47-.314-.627-.313-.784-2.508-1.098-3.292-.157-.314-.313-.471 0-.784 1.098-.471 1.568.784 1.882 1.411.47.627 1.568-.157 1.411-.784-.314-1.411-1.254-2.509-1.725-3.92-.157-.314-.313-.627-.627-.941-.314-.313 0-.94.784-.94.314.156-.784 0 0 0ZM49.267 68.292c0 .627.157 1.254.157 1.882h-.157l-.157-.157c-.313-.627-.47-.784-1.254-.627-1.725.156-3.449.156-5.174.313h-.314v-.157c1.725-1.568 3.606-3.135 5.174-4.703v-.157c-1.097 0-5.174-.471-5.174 1.097v-2.195s0 .157.157.157c.47 1.568 4.39.627 5.645.47.313 0 .47-.313.627-.47 0 0 0-.314-.157-.314-.157-.156-.314-.156-.627-.313-1.098-.157-1.882-.314-2.979-.47-.314 0-.784-.157-1.098-.157-1.568-.471-1.725-2.039-1.254-3.606.627-2.039 3.292-1.255 4.86-1.098.784 0 1.568.47 2.039-.314 0 0 0-.156.156-.156l-.47 3.292h-.157v.157c0-.784-.157-.941-.784-.941l-3.763-.47c-.94-.157-1.411.313-1.568 1.097-.156 1.098.314 1.882 1.255 2.196l2.822.47c.784 0 1.725.47 2.038-.47 0 0 0-.157.157-.157 0 .94.314 3.135-.47 3.763-1.255 1.097-2.352 2.038-3.45 3.292.941 0 3.763.314 3.92-1.254Zm60.208 10.505c-.47 1.098-.941 2.038-1.254 3.136-.157 0-.157-.157-.157-.157.314-1.725-3.606-2.352-4.861-2.822-.627-.314-.627-.314-1.097.313h-.157c.157-.313.314-.783.47-1.097.471-1.098.784-2.038 1.255-2.979.313-.784 1.097-1.254 2.038-1.098.47.157.784.314 1.098.784.156.314.156 1.411.627 1.098.941-.314 1.725-.471 2.665-.627.314 0 .471-.314.784-.471-.157.471-.157.627-.157.784-.156.314-.313.471-.313.784-.157.471-.471.627-.784.784-.941.157-1.725.471-2.822.627-.157 0-.314.314-.471.314.157.157.314.314.471.314.47.156 1.097.47 1.411.627.784.156.941 0 1.254-.314-.157 0-.157 0 0 0Zm-3.136-1.881v-.314c-.157-.627-1.097-1.254-1.724-1.254-1.098 0-1.255.94-1.255 1.568.784.313 1.411.627 2.195.94.157 0 .314 0 .314-.156.313 0 .47-.471.47-.784Zm-1.411-7.683c.784.157 1.254.157 2.038.313v.157c-.156 0-.313 0-.47.157-1.097 0-2.038 1.097-1.411 2.195.941 1.568 2.665-1.411 3.293-2.038 1.254-1.255 3.135-.314 3.449 1.097.157.627 0 1.255-.314 1.882-.313.47-.627.941 0 1.254h-.156l-2.352-.47v-.157c.313 0 .627-.157.941-.157.94-.313 1.881-1.254 1.567-2.352-.47-1.881-2.351.471-2.665.941-1.254 1.725-4.547 1.411-3.92-1.254-.157-.157.627-1.098 0-1.568ZM44.72 51.358c.784.314 1.568.471 2.352.628v.156c-1.098 0-3.136.628-2.822 2.196.47 2.351 2.979-.628 3.449-1.255 1.098-.784 2.352-.47 2.822.627.471.941.314 1.568-.313 2.352 0 .157-.157.157-.157.314-.314.313-.47.627 0 .941l-1.881-.471v-.157c.94 0 2.195-.313 2.351-1.411.157-.47 0-.94-.47-1.097-1.411-.784-2.509 2.508-3.92 2.508-1.411.157-2.508-1.097-2.195-2.508.157-.471.314-.784.471-1.255.47-.627.47-.627.313-1.568.784.314.157.941 0 0Zm.784 27.909c-.47-1.254-.941-2.195-1.254-3.449h.157c0 .157.156.157.156.314.314.94 1.725.156 2.195-.157a.338.338 0 0 0 .314-.314c.784-1.097 1.568-1.881 2.352-2.979.157-.313.313-.627.47-1.097.471.94.784 1.881 1.255 2.822-.784-.47-.941-.157-1.568.47-.314.314-1.725 1.725-1.098 2.039 1.098.156 3.293.94 3.293-.628h.156c.314.628.471 1.098.784 1.725-1.254-.941-2.979-.784-4.233-1.097-.313 0-.627 0-.784.156-.47.157-.941.314-1.254.471-.627.313-.784.47-.471 1.097-.47.627-.313.627-.47.627Zm59.581-20.853a68.715 68.715 0 0 1-.941-2.979h.157c.47.627.627.314 1.254-.157.314-.313 1.725-1.411 1.725-1.724-.157 0-.157 0-.314-.157-.784-.157-1.411-.471-2.195-.627-.94-.157-.94-.157-1.097.784-.157-.628-.314-1.255-.627-1.725.313.157.627.47.94.627 1.255.314 2.195.627 3.45.941h.627c.47-.157.941-.314 1.254-.471.628-.156.784-.313.628-1.097v-.157h.156c.314 1.254.784 2.195 1.098 3.449h-.157c0-.156-.157-.156-.157-.313-.157-.47-.47-.627-.94-.47-1.098.47-1.725.627-2.509 1.567-1.098.784-1.882 1.568-2.352 2.509.157-.314-.314-.784 0 0ZM52.56 89.302c-.784-.941-1.411-1.568-2.352-2.509l.157-.156c.156 0 .156.156.313.156.314.314.627.314.941 0 1.254-1.254 2.509-2.508 3.763-3.606v-.47c-.627-.784-1.254-.941-1.882-.47-.156 0-.156.156-.313.156.157-.156.157-.313.157-.313 1.097-1.098 1.097-1.098 2.195 0 .94 1.097 1.881 2.038 2.979 3.136 0 0 .157.313 0 .313-.314.471-.784.784-1.255 1.098h-.156c0-.157.156-.314.156-.314.471-.784.314-1.254-.47-1.881-.157-.157-.314-.157-.47 0-.627.627-4.704 3.763-3.763 4.547v.313c.156-.157 0-.157 0 0 0-.157-.784-.784 0 0Zm55.034-24.616c-.471 0-1.098.157-1.412.157 0 0-.156-.157-.156-.314-.314-1.725-.471-3.606-.784-5.488 0-.156.157-.313.157-.313.47-.157 1.097-.157 1.411-.157v.157c-.157 0-.157.157-.314.157-.784.47-1.097.94-.941 1.724 0 .314.157.314.471.314 1.568-.314 3.449-.471 5.017-.784.627-.157.784-.157.784-.941l.157-.157.47 3.293h-.157c-.313-.627-.156-.784-1.254-.784-1.568.157-3.293.47-4.861.627-.47 0-.313.941-.156 1.254.157.471.627.628 1.254.784.157.314.157.314.314.471ZM46.758 82.09c-.47-.627-.784-1.098-1.254-1.725h.157c1.254.627 2.195 0 3.292 0 1.255-.157 2.666-.47 3.92-.627h.314c-.157.157-.157.313-.157.47-1.098 1.568-2.038 3.136-3.136 4.704-.313.47-.627.941-.47 1.411h-.157c-.627-.941-1.254-1.725-1.725-2.665h.157c.627.627.627.627 1.098-.157.627-.941.627-.627 0-1.411-.314-.627-.784-.941-1.255-1.255h-.47c-.784.157-.941.314-.627 1.098.47 0 .627 0 .313.157.157-.157.157-.157 0 0 .157-.157-.313-.627 0 0Zm4.391-1.725c-.784 0-1.412.157-2.196.157 0 0-.156.157-.156.313.313.471.627.941.94 1.255h.314c.314-.627.627-1.098 1.098-1.725Zm60.992-15.209v3.45c-.628-1.412-2.195-.941-3.45-.941-1.254 0-2.665-.471-3.136.784v-3.293h.157s0 .157.157.157c.313 1.254 2.195.784 3.293.784 1.097 0 2.508.47 2.979-.941 0 1.255-.314.941 0 0Z" style="fill:#085521;fill-rule:nonzero" transform="translate(-10.5 5.965) scale(1.13636)"/><path d="M57.891 90.243c-.157-.157-.157-.157-.314-.157-.47-.314-.941-.784-1.254-1.097-.314-.157-.157-.314 0-.628.627-.627 1.411.471 1.881.941.157 0 .157.314.157.314-.157.313-.314.47-.47.627.156-.157-.157-.157 0 0ZM67.926 55.121c.627 0 1.254.157 1.567-.47.314-2.665 1.568-4.704 3.92-5.958 3.763-2.038 8.937-.314 10.505 3.763.314.784.314 1.411.471 2.195 0 .784 2.665.47 3.292.627 3.45.627 5.958 2.509 7.526 5.645 2.823 5.487.314 11.759-5.331 14.268-1.097.47-2.351.784-3.606.784-1.097.157-1.881-.314-1.881.941-.941 7.526-10.976 8.466-14.268 2.195-.471-.941-.628-1.725-.784-2.666 0-.627-2.979-.627-3.607-.784-4.547-1.097-7.996-5.174-8.153-9.878-.157-4.547 2.823-8.623 7.056-10.034 1.097-.471 2.195-.628 3.293-.628Zm26.811 6.899v-.313c-1.568-3.45-4.39-5.488-8.153-5.802-.471 0-2.352.314-2.666-.156-.47-.471-.313-2.352-.627-2.979-1.568-4.077-6.742-5.802-10.348-3.136-1.254.784-2.195 2.038-2.666 3.449-.156.784-.313 1.411-.313 2.195 0 .784-2.038.471-2.509.471-3.92.313-6.742 2.195-8.31 5.801v.314h.314c2.352-.314 4.547 1.097 5.487 3.292.471 1.568 9.094-.157 9.094.941 0 .784-4.076.47-4.703.47-.471 0-4.547-.313-4.077.627.47.471 2.195.157 2.822.157h5.331c.157 0 .784.314.314.627-.784.314-2.352 0-3.136 0v.157h.157c1.411.627 1.568 1.882 1.568 3.293v3.136c0 .627-.314 2.352.156 2.822 1.098 1.097.941-2.038.941-2.352v-2.665c0-.784-.157-.628-.627-1.098.47 0 1.254-.157 1.725-.157.47 0 .313 1.098.313 1.411.314-.156 1.411-.627.941-1.254 0-.157-.157-.157-.157-.314.471 0 1.255-.47 1.725 0 0 0 0 .157-.157.314 0 .784.314.941 1.098 1.254 0-.313-.157-1.411.313-1.411.471 0 1.725-.157 1.882.157l-.157.157c-.941 0-.313 5.958-.313 5.958 1.254.627.94-4.077.94-4.704 0-1.568-.313-3.92 1.411-4.704.157 0 .157-.156.314-.156-.314-.314-3.449.156-3.136-.628 0-.313 6.429-.156 7.056-.156h1.411c.313 0 .313-.628.157-.784-.941-.471-2.979 0-3.92 0h-4.233c-.314 0-.471-.157-.471-.471 0-.47 1.254-.313 1.568-.313h4.077c.784 0 2.979.47 3.449-.471.784-1.881 2.038-3.135 4.077-3.449.94.314 1.411.47 2.038.47 0-.156-.627 0 0 0ZM70.591 78.013c.784 2.352 3.449 4.704 6.899 4.547 3.292-.314 5.488-2.822 5.801-4.547h-12.7c4.39 0 .784 2.352 0 0Zm8.153-2.665v-1.882c-.313-.784-1.254-1.254-2.038-1.254-1.254.157-1.411 1.254-1.411 2.352 0 .627-.314 2.822.47 2.822.47 0 3.293.314 3.293-.314-.314-.627-.314-1.254-.314-1.724Zm-6.899-4.234c0-.47 0-.941-.156-1.254-.314-1.254-2.352-1.725-3.136-.627-.157.157-.157.313 0 .47.627.784.94 1.568.94 2.509 0 .47 2.352.47 2.352 0 .157-.471 0-.784 0-1.098Zm10.192 0c0 .157-.157.941.157 1.098.47.157 1.411 0 1.881 0s.941-2.352 1.254-2.822c.157-.157.157-.314 0-.628-.627-.627-1.254-.784-1.881-.47-.627.157-1.098.627-1.098 1.254-.313.627-.313 1.098-.313 1.568Zm-11.603 1.882c.314.47.471 4.233.627 4.233.941-.157.628-1.097.628-1.881 0-.628.313-1.882-.157-2.352-.314-.157-.784 0-1.098 0Zm13.171-.157c-.314 0-1.098-.157-1.411.157-.471.47-.157 2.038-.157 2.508 0 .157-.157 1.412.157 1.568.627.157.94 0 .94-.627 0-1.097-.313-2.195.471-3.606-.471 0-.784 1.411 0 0Zm3.92-5.174h-2.823c.471.313.784.627 1.098.941 0 0 .157.156.313 0 .471-.157.784-.471 1.412-.941-.628.47-.941 0 0 0Zm-21.167 0c.627.313 1.097.627 1.411.941h.313c.471-.314.784-.628 1.255-.941h-2.979c1.097 0 .627.313 0 0Z" style="fill:#085521;fill-rule:nonzero" transform="translate(-10.5 5.965) scale(1.13636)"/><path d="M79.685 63.118c0 .784-.47 5.801.47 5.801.314.47.157.941.157 1.411 0 .471-1.097.314-1.411.314-.627 0-5.488.157-5.174-.471 0-.47-.157-1.254.47-1.254.471-.941.157-2.509.157-3.449v-4.861c0-.941-.47-2.822.784-2.822.941 0 .627.941.627 1.725 0 .627-.157 1.411 0 2.038.157.313.941 0 1.254 0 .471 0 .941.313.941-.314v-2.195c0-.784 0-.941.784-.941.627 0 .784.157.784.784.157 1.568.157 2.979.157 4.234Zm-3.92 1.411c0 .47-.313 2.665.471 2.665 1.097 0 1.724.314 1.724-.94v-3.136c0-.784 0-.941-.784-1.098-.157-.157-1.254 0-1.411.314-.157.313 0 1.568 0 2.195Zm1.254 3.136c-.783 0-1.254-.157-1.254.784 0 .627 1.411.313 1.725.313.47 0 .47-1.097-.157-1.097h-.314Zm.157-17.404c0 .627 0 2.822 1.098 2.822.157.157-.157 1.254-.157 1.254.47.157.157 1.255.784 1.098h.157c.941 0 .47 1.097 1.097 1.097.471 0 .314.628 0 .628h-2.351c-.471 0-3.763.313-3.763-.314 0-.47.627-.157.627-.784 0-.47 0-.627.627-.627h.157c.47 0 .627 0 .627-.627 0-.471.784-.784.313-1.098-.313-.157-.313-.47 0-.627l.157-.157c0-.47.314-.627.627-.94-.157-.157-.47-1.725 0-1.725-.157 0-.157 0 0 0 0 .47-.157 0 0 0Zm.471 4.547c0-.157-.157-.471-.157-.627v1.254c0-.314.157-.47.157-.627Zm-.784 0c-.157-.157-.157-.471-.314-.627 0 .313-.47.784 0 1.097 0 0 .157-.313.314-.47-.157.157-.157-.157 0 0Z" style="fill:#085521;fill-rule:nonzero" transform="translate(-10.5 5.965) scale(1.13636)"/><path d="M77.019 59.982c-.94 0-.47-1.097 0-1.254.628-.157.784 1.254 0 1.254Zm-2.038 19.756c0-.784.784-1.254 1.254-.941l.157.157c0 .47 0 .784-.157 1.097 0 .628-1.411.157-1.568.157.314 0 .784-.313 1.255-.313-.314 0-.627-.157-.941-.157Zm.627-.627-.313.313.156.157c.157 0 .157-.157.314-.157 0-.156 0-.156-.157-.313.157.157-.157 0 0 0Zm2.352.94c.157.157.47.314.47.314 0 .314-1.254.157-1.411 0 0-.157.157-.314.157-.47.157-.157.314-.157.471-.314.156 0 .156-.157.156-.313h-.313c-.157 0-.314 0-.471.156 0-.156-.156-.313 0-.47 0-.157 2.195-.157.941 1.097Zm2.666 0c-.157.157-.157.471-.314.471 0 0-1.568-.627-1.254-1.098 0-.156.156-.313.156-.313.314-.627.784.784 1.412.94 0-.156 0-.313 0 0 0-.156-.157.157 0 0Zm-6.115-.94c-.157.47-.314.94-.471 1.254-.156.314-.313.157-.627.157.314-.471.471-1.098.627-1.411 0 0 .157-.157.471 0-.157-.157-.157-.157 0 0-.157.313-.157-.157 0 0ZM77.333 64.529c0 .314.157 1.254-.314 1.254-.47-.47-.47-2.352 0-2.979.471.471.314 1.098.314 1.725Z" style="fill:#085521;fill-rule:nonzero" transform="translate(-10.5 5.965) scale(1.13636)"/></svg>