<svg xmlns="http://www.w3.org/2000/svg" width="154" height="157" fill="none"><g filter="url(#a)"><path fill="#fff" d="M13 0h128v128H13z"/><path fill="#000" d="M115.091 75.136c0-.06.02-.075.051-.075.05 0 .05.075.07.181.121.63.434 1.176 1.09 1.176.434 0 .797-.172.797-.555 0-1.004-1.982-.51-1.982-1.746 0-.585.494-1.019 1.114-1.019.464 0 .717.197.853.197.171 0 .101-.141.192-.141.035 0 .055.015.06.09l.091.939c.01.09.015.141.015.161 0 .03-.015.05-.04.05-.051 0-.056-.09-.137-.287-.216-.55-.524-.827-1.039-.827-.297 0-.63.172-.63.504 0 .813 2.018.323 2.018 1.665 0 .661-.555 1.165-1.307 1.165-.489 0-.726-.227-.918-.227-.192 0-.161.167-.247.167-.025 0-.041-.01-.041-.046v-1.372h-.01ZM107.989 73.573c0-.399-.429-.202-.429-.343 0-.04.02-.066.101-.066.252 0 .489.01.691.01.616 0 1.201-.005 1.786-.01l.247.948c.02.076.03.116.03.132 0 .025-.015.04-.05.04-.046 0-.041-.086-.232-.409-.232-.388-.555-.504-1.15-.504h-.268v1.281h.126c.348 0 .601-.192.621-.555.005-.1.02-.12.07-.12.031 0 .051.024.051.07v1.518c0 .046-.02.07-.051.07-.05 0-.065-.025-.07-.12-.02-.444-.273-.61-.621-.61h-.126v1.185c0 .227.167.262.409.262.661 0 1.19-.464 1.347-.958.03-.096.035-.137.08-.137.036 0 .051.026.051.056 0 .03-.01.09-.02.146l-.217 1.1a253.42 253.42 0 0 0-2.003-.01c-.197 0-.439.01-.691.01-.081 0-.101-.025-.101-.066 0-.14.429.05.429-.343v-2.577h-.01ZM98.57 75.777c0 .398.162.56.309.626.14.06.267.01.267.095 0 .03-.01.056-.07.056-.167 0-.535-.01-.737-.01-.202 0-.394.01-.565.01-.06 0-.07-.025-.07-.056 0-.08.13-.035.267-.096.146-.065.307-.227.307-.625v-2.17c-.161-.236-.302-.302-.459-.322-.08-.01-.116-.01-.116-.066 0-.04.02-.055.06-.055.172 0 .354.01.535.01h.555l1.559 1.952.066.081v-1.266c0-.399-.157-.56-.308-.626-.141-.06-.267-.01-.267-.09 0-.03.01-.056.07-.056.172 0 .525.01.727.01.201 0 .398-.01.565-.01.06 0 .07.025.07.056 0 .085-.126.035-.267.09-.151.066-.308.232-.308.626v2.552c0 .096-.005.162-.045.162-.046 0-.081-.06-.121-.121l-1.998-2.538-.025-.035v1.816ZM62.665 75.136c0-.06.02-.075.05-.075.05 0 .05.075.07.181.122.63.434 1.176 1.09 1.176.434 0 .797-.172.797-.555 0-1.004-1.982-.51-1.982-1.746 0-.585.494-1.019 1.11-1.019.469 0 .716.197.852.197.172 0 .101-.141.187-.141.035 0 .055.015.06.09l.091.939c.01.09.015.141.015.161 0 .03-.015.05-.04.05-.05 0-.056-.09-.131-.287-.217-.55-.525-.827-1.04-.827-.297 0-.63.172-.63.504 0 .813 2.013.323 2.013 1.665 0 .661-.555 1.165-1.307 1.165-.49 0-.721-.227-.918-.227-.192 0-.161.167-.247.167-.025 0-.04-.01-.04-.046v-1.372ZM66.2 73.573c0-.399-.428-.202-.428-.343 0-.04.02-.066.1-.066.253 0 .49.01.692.01.197 0 .439-.01.69-.01.081 0 .102.025.102.066 0 .14-.424-.056-.424.343v1.074h1.302v-1.074c0-.399-.43-.202-.43-.343 0-.04.02-.066.102-.066.252 0 .494.01.69.01.197 0 .44-.01.692-.01.08 0 .1.025.1.066 0 .14-.428-.056-.428.343v2.572c0 .399.429.202.429.343 0 .04-.02.066-.101.066-.252 0-.49-.01-.691-.01-.197 0-.44.01-.691.01-.081 0-.101-.025-.101-.066 0-.141.428.05.428-.343V74.9h-1.301v1.246c0 .399.424.202.424.343 0 .04-.02.066-.101.066-.252 0-.49-.01-.691-.01-.202 0-.434.01-.691.01-.081 0-.101-.025-.101-.066 0-.141.428.05.428-.343v-2.572ZM70.357 73.573c0-.399-.428-.202-.428-.343 0-.04.02-.066.1-.066.253 0 .49.01.692.01.615 0 1.2-.005 1.785-.01l.247.948c.02.076.03.116.03.132 0 .025-.014.04-.05.04-.045 0-.04-.086-.232-.409-.232-.388-.555-.504-1.15-.504h-.267v1.281h.126c.348 0 .6-.192.62-.555.005-.1.02-.12.07-.12.031 0 .051.024.051.07v1.518c0 .046-.02.07-.05.07-.05 0-.066-.025-.07-.12-.02-.444-.273-.61-.621-.61h-.126v1.185c0 .227.166.262.408.262.656 0 1.19-.464 1.347-.958.03-.096.035-.137.08-.137.031 0 .051.026.051.056 0 .03-.01.09-.02.146l-.217 1.1c-.656-.005-1.316-.01-2.002-.01-.197 0-.434.01-.691.01-.081 0-.101-.025-.101-.066 0-.14.428.05.428-.343v-2.577h-.01ZM74.252 75.777c0 .398.156.56.307.626.142.06.268.01.268.095 0 .03-.01.056-.07.056-.167 0-.536-.01-.737-.01-.202 0-.399.01-.565.01-.06 0-.071-.025-.071-.056 0-.08.126-.035.267-.096.147-.065.308-.227.308-.625v-2.17c-.161-.236-.303-.302-.459-.322-.08-.01-.116-.01-.116-.066 0-.04.02-.055.06-.055.167 0 .354.01.535.01h.555l1.559 1.952.065.081v-1.266c0-.399-.156-.56-.307-.626-.141-.06-.268-.01-.268-.09 0-.03.01-.056.071-.056.166 0 .52.01.726.01.202 0 .394-.01.565-.01.06 0 .071.025.071.056 0 .085-.126.035-.267.09-.152.066-.308.232-.308.626v2.552c0 .096-.005.162-.046.162-.045 0-.08-.06-.126-.121l-1.992-2.538-.025-.035v1.816ZM78.675 76.322c.702 0 .848-.151 1.06-.46.217-.312.212-.61.297-.61.02 0 .046.016.046.056 0 .03-.015.106-.035.202l-.202 1.044c-.399-.005-.802-.01-1.21-.01-.41 0-.818.01-1.222.01-.04 0-.06-.025-.06-.046 0-.025.02-.06.055-.116l1.77-2.97h-.297c-.67 0-.822.075-1.059.458-.212.348-.171.409-.237.409-.03 0-.04-.015-.04-.04 0-.016.01-.056.03-.132l.247-.948c.358 0 .721.01 1.09.01.368 0 .731-.01 1.104-.01.066 0 .081.015.081.04 0 .026-.035.081-.076.147l-1.745 2.966h.403ZM96.921 75.515c0 .741-.504 1.104-1.2 1.104-.777 0-1.272-.358-1.272-.872v-2.174c0-.399-.428-.202-.428-.343 0-.04.02-.066.1-.066.253 0 .49.01.692.01.196 0 .438-.01.69-.01.081 0 .102.025.102.066 0 .136-.424-.056-.424.343v2.174c0 .408.393.68.746.68.42 0 .742-.292.742-.882v-1.503c0-.43-.156-.671-.388-.747-.076-.025-.152-.025-.152-.076 0-.03.01-.055.07-.055.132 0 .46.01.662.01.201 0 .398-.01.524-.01.06 0 .07.025.07.055 0 .046-.075.05-.145.076-.227.076-.389.318-.389.747v1.473ZM102.162 73.573c0-.399-.428-.202-.428-.343 0-.04.02-.066.101-.066.252 0 .494.01.691.01.196 0 .438-.01.691-.01.08 0 .101.025.101.066 0 .14-.429-.056-.429.343v2.572c0 .399.429.202.429.343 0 .04-.021.066-.101.066-.253 0-.49-.01-.691-.01-.197 0-.434.01-.691.01-.081 0-.101-.025-.101-.066 0-.141.428.05.428-.343v-2.572ZM106.238 74.037c.041-.101.091-.248.091-.359 0-.484-.454-.332-.454-.459 0-.025.03-.055.081-.055.171 0 .333.01.504.01.162 0 .484-.01.651-.01.101 0 .156.02.156.066 0 .14-.383-.061-.676.655l-1.074 2.618c-.025.06-.051.111-.081.111-.03 0-.055-.05-.081-.11l-1.195-2.901c-.177-.414-.459-.293-.459-.394 0-.02.025-.045.071-.045.252 0 .474.01.706.01.222 0 .449-.01.676-.01.091 0 .121.02.121.055 0 .106-.348-.025-.348.238 0 .07.02.136.04.186l.696 1.756.575-1.362ZM113.003 75.283c-.116-.248-.353-.288-.641-.288v1.145c0 .399.429.202.429.343 0 .04-.02.066-.101.066-.252 0-.489-.01-.691-.01-.197 0-.439.01-.691.01-.081 0-.101-.025-.101-.066 0-.141.429.05.429-.343v-2.573c0-.398-.429-.201-.429-.342 0-.04.02-.066.101-.066.252 0 .489.01.691.01.247 0 .459-.01.787-.01.848 0 1.302.378 1.302.883 0 .418-.258.761-1.282.872v.01c.53 0 .818.127 1.014.5l.374.721c.201.394.529.202.529.343 0 .03-.005.056-.05.056-.177 0-.358-.01-.535-.01h-.535l-.6-1.251Zm-.449-.55c.56 0 .807-.252.807-.676 0-.47-.267-.686-.691-.686h-.313v1.362h.197ZM118.628 73.573c0-.399-.429-.202-.429-.343 0-.04.02-.066.101-.066.252 0 .489.01.691.01.196 0 .439-.01.691-.01.081 0 .101.025.101.066 0 .14-.424-.056-.424.343v2.572c0 .399.424.202.424.343 0 .04-.02.066-.101.066-.252 0-.495-.01-.691-.01-.202 0-.439.01-.691.01-.081 0-.101-.025-.101-.066 0-.141.429.05.429-.343v-2.572ZM121.407 73.37c-.984.268-1.034.96-1.145.96-.025 0-.045-.016-.045-.051 0-.02.01-.101.025-.182l.166-.903c.015-.075.031-.096.056-.096s.045.016.07.036c.026.015.061.045.132.045h2.224c.071 0 .106-.03.126-.045.025-.02.046-.036.071-.036.025 0 .04.02.055.096l.162.903c.015.081.025.162.025.182 0 .035-.02.05-.045.05-.116 0-.162-.69-1.146-.958v2.673c0 .318.157.389.399.389.055 0 .086.015.086.06 0 .04-.025.056-.076.056-.282 0-.535-.01-.767-.01-.232 0-.489.01-.771.01-.056 0-.081-.015-.081-.056 0-.05.03-.06.091-.06.242 0 .398-.07.398-.389v-2.673h-.01ZM125.443 74.743l.373-.575a1.26 1.26 0 0 0 .176-.585c0-.333-.307-.283-.307-.364 0-.03.03-.055.101-.055.161 0 .348.01.544.01.152 0 .313-.01.459-.01.036 0 .056.02.056.045 0 .101-.232-.03-.701.757l-.585.979v1.195c0 .399.423.207.423.343 0 .04-.02.06-.096.06-.252 0-.494-.01-.691-.01-.201 0-.439.01-.691.01-.08 0-.101-.025-.101-.06 0-.141.429.05.429-.343v-1.1l-.797-1.452c-.212-.394-.494-.263-.494-.368 0-.036.03-.056.086-.056.242 0 .474.01.706.01.232 0 .459-.01.696-.01.076 0 .111.015.111.045 0 .106-.313-.015-.313.263 0 .085.03.166.086.277l.53.994ZM81.082 73.573c0-.399-.424-.202-.424-.343 0-.04.02-.066.1-.066.253 0 .49.01.692.01.197 0 .439-.01.691-.01.08 0 .101.025.101.066 0 .14-.429-.056-.429.343v1.074h1.302v-1.074c0-.399-.43-.202-.43-.343 0-.04.021-.066.102-.066.252 0 .49.01.69.01.198 0 .44-.01.692-.01.08 0 .1.025.1.066 0 .14-.428-.056-.428.343v2.572c0 .399.429.202.429.343 0 .04-.02.066-.101.066-.252 0-.49-.01-.691-.01-.197 0-.434.01-.691.01-.08 0-.101-.025-.101-.066 0-.141.429.05.429-.343V74.9h-1.302v1.246c0 .399.429.202.429.343 0 .04-.02.066-.1.066-.253 0-.49-.01-.692-.01-.202 0-.439.01-.691.01-.08 0-.101-.025-.101-.066 0-.141.424.05.424-.343v-2.572ZM85.238 73.573c0-.399-.424-.202-.424-.343 0-.04.02-.066.101-.066.253 0 .49.01.691.01.616 0 1.201-.005 1.786-.01l.247.948c.02.076.03.116.03.132 0 .025-.014.04-.05.04-.045 0-.04-.086-.232-.409-.232-.388-.555-.504-1.15-.504h-.267v1.281h.126c.348 0 .6-.192.62-.555.005-.1.02-.12.066-.12.03 0 .05.024.05.07v1.518c0 .046-.02.07-.05.07-.05 0-.066-.025-.066-.12-.02-.444-.272-.61-.62-.61h-.126v1.185c0 .227.166.262.408.262.656 0 1.19-.464 1.347-.958.03-.096.035-.137.08-.137.036 0 .051.026.051.056 0 .03-.01.09-.02.146l-.217 1.1c-.656-.005-1.316-.01-2.002-.01-.197 0-.44.01-.692.01-.08 0-.1-.025-.1-.066 0-.14.423.05.423-.343v-2.577h-.01ZM89.133 75.777c0 .398.156.56.308.626.136.06.267.01.267.095 0 .03-.01.056-.07.056-.167 0-.535-.01-.737-.01-.202 0-.399.01-.565.01-.06 0-.07-.025-.07-.056 0-.08.125-.035.266-.096.152-.065.308-.227.308-.625v-2.17c-.161-.236-.303-.302-.459-.322-.08-.01-.116-.01-.116-.066 0-.04.02-.055.06-.055.172 0 .354.01.54.01h.555l1.559 1.952.066.081v-1.266c0-.399-.157-.56-.308-.626-.141-.06-.267-.01-.267-.09 0-.03.01-.056.07-.056.167 0 .525.01.727.01.201 0 .398-.01.565-.01.06 0 .07.025.07.056 0 .085-.126.035-.267.09-.151.066-.308.232-.308.626v2.552c0 .096-.005.162-.045.162-.046 0-.081-.06-.126-.121l-1.993-2.538-.025-.035v1.816h-.005Z"/><path fill="#000" fill-rule="evenodd" d="M67.92 65.496c-.59.268-1.18.924-1.28 1.433-.051.827.64 1.11 1.28 1.382.152-.035.253-.035.369-.237.202-.741.419-1.16.893-1.715 0-.05 0-.1.015-.151-.166-.883-.721-.969-1.276-.712ZM65.162 64.382c-.772-.419-.318-2.81-.238-3.45.237-.621.475-1.6.44-2.205-.52-.944-.773-.858-1.499-.404-1.261 1.665-1.16 3.315-1.13 5.554.136 1.095.136 3.067 1.246 3.773 1.044-.186 1.937-2.305 1.872-3.45-.237-.439-.303.166-.691.182Z" clip-rule="evenodd"/><path fill="#000" fill-rule="evenodd" d="M72.098 61.522c.136-.051.338-.117.524-.217.404-.187.757-.49.288-.959-.086-.015-.187-.015-.288-.015-.721.015-1.987.52-2.038-.575.389-.59 1.211-1.564 1.282-2.255-.555-.187-.505-.303-.49-.822.07-.035.101-.06.147-.106.388-.237.746-.666 1.1-1.135.251-.318.489-.656.726-.943.489-1.282 0-1.786-.727-1.917-.57-.116-1.331.015-1.836.151-.252.136-1.175.555-1.16.757-.187.136-.273.191-.318.267-.404.807-.035.979.777 1.03.343-.132 1.145-1.318 1.65-.677 0 .101-.086.217-.066.318-.035 0 .015 0 0 0-.202.54-1.216 1.478-1.513 1.816-.318.691.166 1.281.201 2.103-.05.187-.116.374-.166.575-.47.52-.822 1.363-1.382 1.786-.167.273-.656.656-.722.893-.05.05-.1.086-.151.136-.49.44-.928.959-1.362 1.383 0 .05.02.1.02.136.283.217.843.388 1.347.439h.252c.036-.006.106.005.106-.016.035-.015.005-.05-.005-.07 0-.05 0-.101.015-.136.52-.62.807-1.145 1.65-1.231-.035.1.02.877.136 4.63-.06.066-.015.066-.368.202a.458.458 0 0 0-.066.02c-.166.117-.338.273-.368.54.015 0 .07.005 0 0 .086.944.187 1.65 1.029 2.306.656-.101.959-.893 1.175-1.549.016-.858.016-.858-.035-6.482.197-.146.414-.267.636-.383Z" clip-rule="evenodd"/><path fill="#000" fill-rule="evenodd" d="M72.733 63.928a.416.416 0 0 1-.116.05c-.373.237-.656.777-.136 1.16.252.944-.454 1.18-.757 1.887.016.035.016.086.05.136.102.015.218.035.319.066.15-.036.338-.066.524-.116.944-.237 2.24-.641 2.038-1.917-.49-1.03-1.024-1.332-1.922-1.266ZM64.334 57.193c.671-.065.822-.065 1.312-.52.03-.045.03-.03.045-.045.015 0 .01-.025.02-.045.015-.858-.302-1.438-.474-1.594-1.609-.792-2.689 1.347-.903 2.204ZM67.431 57.87c.081.02.177 0 .273-.036.08-.07.151-.136.217-.222.418-.555.741-1.534.454-2.119-.151-.086-.323-.1-.454-.086-.923.086-1.65 1.822-.49 2.462ZM84.638 62.984c-.02.015-.005.03-.005.066-.419.353-.933 1.332-1.407 1.397-.116-1.125.1-2.255.166-3.299.303-.605.47-.605 1.095-.893.373-.222.54-.403.69-.807V59.222c-.05-.929-.337-1.096-1.074-1.217-.116-.655-.065-1.26-.1-1.85-.44-.475-1.196.115-1.413.519-.842.656-.267 1.533-.373 2.593-.419.302-1.01.69-1.382 1.059-.47 1.044-.268 1.195.706 1.599.136.525-.202 1.836-.272 2.255.035.777-.086 2.19.771 2.729 1.06-.273 3.148-2.78 3.082-4.111-.196-.016-.332.106-.484.186ZM85.763 59.08c.035 1.382.02 2.709-.116 4.157-.136.453-.419 1.094-.47 1.7a.69.69 0 0 0 0 .287c.016.151.051.303.117.439.378-.03.807-.237 1.175-.742.727-1.664.964-4.177.807-5.993-.449-1.18-1.155-.605-1.513.152ZM91.07 54.888c-.555-.217-.807-.015-1.21.237-.016.1-.036.217-.036.338.136 4.394.252 8.939.035 13.398-.116.419-.217.64.237.959 1.044-.101 1.231-.54 1.418-1.65.015-.994-.03-4.772.035-4.812-.056-.338-.025-1.685 0-1.75.015-3.688.015-3.688-.015-6.16-.177-.308-.278-.424-.464-.56ZM89.299 58.575c-.858-.353-.958 1.045-1.196 1.635-.1.741-.807 3.284.318 3.824.252-.016.389-.122.606-.273.54-1.498.489-3.334.575-4.883-.066-.1-.252-.237-.303-.303ZM108.256 66.243c0-.035-.081-.025-.081-.04-.08-.05-.035-.026-.05-.036-.025-.03-.106-.045-.106-.08-.177-.05-.585-.464-.787-.58 0-.036-.141-.076-.141-.111-.247-.121-.333-.288-.454-.399-.121-.076-.151-.09-.262-.207-.243-.151-.349-.313-.419-.398-.061-.05-.071-.076-.086-.076a7.115 7.115 0 0 0-.641-.777c-.252-.287-.504-.555-.706-.893-.54-.085-.842.137-.792.742.273.908.828 1.851 1.498 2.679.722.877 1.584 1.634 2.442 2.123.858-.035 1.634.05 2.29-.676.01-.116.051-.262-.035-.368-.575-.409-1.15-.666-1.67-.903Z" clip-rule="evenodd"/><path fill="#000" fill-rule="evenodd" d="M105.224 59.822c.843-.354 1.7-.692 1.484-1.973-.389-.57-.576-.691-1.08-.772a4.338 4.338 0 0 0-.404.202c-.403.217-.59.338-.64.338-.02-.721-.02-1.347-.136-1.987-.353-.893-.404-1.045-1.145-1.03-.641.137-1.262.742-.303 1.211.419.389.237 2.003-.051 2.406-.857.44-1.75.878-2.577 1.347-.369.419-.525.732-.525 1.261.202 1.231.923.404 1.786.656.101.136-.066.908-.136.994-.086.338-.666 1.604-.807 1.75-.288.959-1.72 2.023-2.457 2.477-.066.101-.151.202-.202.303.05.57.525.822 1.095.928.59-.05.958-.05 1.447-.49.893-1.326 1.811-2.81 2.366-4.358.015-.04.015-.07.036-.09.302-.944.862-2.054 1.437-2.775.242-.161.53-.282.812-.398ZM119.773 57.97c.186-.035.317-.086.438-.166.137-.101.253-.253.354-.454.237-1.16.403-2.255.554-3.4a2.849 2.849 0 0 0-.252-1.145c-.368-.137-.54-.101-.656.065-.07.101-.136.252-.216.44a31.126 31.126 0 0 0-.641 3.03c-.02.586-.207 1.242.419 1.63Z" clip-rule="evenodd"/><path fill="#000" fill-rule="evenodd" d="M122.093 56.623c.02.202-.03.646-.081.762 0 .131-.131.278-.222.358-.055.05-.252.353-.282.394-.353.388-.464.267-.883.57-.116.1-.313.222-.429.322-.469.374-.877.59-1.518.878-.167.066-.338.237-.525.303-.035.272.222.303.525.272.252-.035.519-.116.641-.151.302-.121.59-.237.892-.353.656-.267 1.347-.505 2.038-.64.399-.076 1.292-.293 1.887-.339.338-.025.429.076.661.111.318.59-.555 1.145-.893 1.312 0 .151.217.202.439.252.958-.066 2.381-.207 2.653-1.549 0-1.311-.867-1.478-1.695-1.579-.181.01-.716.036-1.417.132-.343.045-1.125.277-1.16.212.151-.238.59-.505.791-.692.086-.54-.272-.59-.474-.857-.186-1.01.908-.727 1.312-1.261-.046-.313-.323-.48-.585-.61-.207-.102-.394-.197-.525-.233.086-.439.489-.489.873-.59.555-.419.202-1.584-.051-2.053-.439-.217-1.225-.338-1.377.187.015 0 .041 0 0 0 .066.474.187.908.015 1.432-.151.081-.262.056-.413.126-.066.05-.192.212-.273.242-.106.49.005.883-.085 1.115-.051.071-.111.147-.167.227-.272.363-.58.813-.54 1.337.197.343.565.04.868.363ZM118.29 58.071c.116-.015.252-.015.388-.05a.595.595 0 0 0 .338-.167c0-.419-.217-.64-.338-.958l-.02-.016c-.101-.504-.081-.877.02-1.23.101-.419.288-.807.489-1.297.036-.54-.015-.807-.353-.994-.05 0-.101 0-.136.016-.656.065-.777.287-1.095.892a7.332 7.332 0 0 0-.302.959c-.187.706-.268 1.478 0 2.053.166.368.489.656 1.009.792ZM123.41 64.382c-.49.035-.843.05-1.166-.187l-.186-.187c0-.201.086-.373.186-.54.202-.302.505-.57.656-.842.237-1.06.015-1.21-.656-1.715l-.085-.086c-.273-.07-.601-.166-.828-.11-.075.02-.776.02-.882.241-.041.076-.096.379-.137.444-.1.167.621.06.888.384.237.252.318.388.353.842-.474.691-.726.923-.454 1.887-.186.065-.524.151-.893.267-.812.272-1.029.424-1.225.525-.116.06-.313.095-.379.14-.141.092-.217.067-1.321.107-.086 0-.152 0-.187.05.015.152.086.318.187.49.237.418.338.428.827.499.066-.02.656-.03.742-.066.534-.06.973-.322 1.362-.378.554-.086 1.16-.066 1.447.151.101.49-.272 1.468-.484 1.938-.439.438-.676.252-.943-.217l-.015-.036c-.152-.625-.238-.726-.692-.605-.166.474.036 1.195.086 1.786.187.555.222.908.606 1.16.116.066.237.136.403.202.757-.101 1.125-.424 1.635-1.095l.015-.035c.07-.07.085-.06.085-.101.555-1.044.893-2.023.777-3.249.338-.287 1.534-.302 2.003-.222.187.121.55.172.802.374.792 0 1.438-1.196.812-2.038-1.236-.333-2.214.005-3.339.222ZM117.281 61.294c.136-.776.338-1.816.035-2.375-.015 0-.015-.02-.035-.02-.792-.182-1.514 1.498-1.816 2.103-.252 1.276-.439 1.816.958 2.29.59-.166.641-.979.777-1.569.01-.126.045-.277.081-.428ZM67.946 58.364l-.005.01c-.005.01-.01.02-.02.03-.036.065-.152.136-.167.187-.04.332-.025.55.06.71.006.01.01.021.016.026.005.005.01.01.01.015l.076.091c.03.03.06.056.096.08.004.006.015.01.015.016 0 0 .005 0 .005.005.136.09.318.166.57.252.756-.237 1.009-1.009 1.11-1.831-.187-1.241-1.342-.293-1.766.409Z" clip-rule="evenodd"/><path fill="#950040" d="M43.909 53.51c-.08.526-.48.727-.969.652-.544-.086-.857-.394-.802-.757l.242-1.534c.046-.282-.277-.191-.262-.287.005-.025.02-.046.076-.035l.484.085c.141.02.308.04.49.071.055.01.065.03.06.056-.015.095-.298-.086-.338.196l-.242 1.524a.524.524 0 0 0 .449.595c.368.055.655-.141.721-.56l.166-1.064c.046-.303-.035-.49-.191-.57-.05-.026-.101-.036-.096-.071.005-.02.01-.035.055-.03.091.015.227.04.369.065.146.02.282.036.373.05.04.006.045.026.045.046-.005.03-.06.025-.116.035-.166.026-.307.182-.353.485l-.161 1.049ZM44.963 54.026c-.116.262-.06.413.02.499.076.08.172.086.147.141-.01.02-.02.03-.06.015-.112-.05-.233-.11-.37-.171-.13-.06-.261-.106-.372-.157-.04-.02-.04-.035-.03-.055.025-.056.095.015.201.015.116 0 .267-.06.383-.318l.631-1.422c-.04-.202-.11-.288-.207-.343-.05-.03-.07-.04-.055-.076.01-.025.03-.03.055-.02.111.05.227.106.348.161l.363.162.515 1.972.005.005.424-.963c.116-.258.06-.414-.02-.5-.076-.08-.172-.085-.147-.141.01-.02.02-.03.06-.015.112.05.233.11.37.171.13.06.262.111.372.157.04.015.04.035.03.055-.024.056-.095-.015-.201-.015-.116 0-.267.06-.383.323l-.737 1.67c-.025.06-.05.106-.076.096-.03-.016-.035-.061-.045-.116l-.625-2.447h-.006l-.59 1.316ZM48.328 54.02c.166-.232-.162-.297-.106-.378.015-.02.04-.03.086.005.146.106.282.212.398.293.116.08.258.176.404.282.045.035.045.056.03.08-.055.082-.227-.206-.388.021l-1.07 1.493c-.166.232.162.298.106.378-.015.026-.04.03-.086-.005-.146-.105-.282-.211-.398-.292-.116-.08-.257-.177-.404-.283-.045-.03-.045-.055-.03-.08.056-.081.227.206.389-.02l1.069-1.494ZM50.568 56.457a.758.758 0 0 0 .201-.126c.248-.237-.02-.399.04-.46.016-.01.041-.01.071.016.081.086.157.176.242.267.081.086.167.167.248.252.05.05.065.091.045.116-.076.071-.156-.227-.67-.03l-1.892.732c-.046.015-.086.03-.096.015-.015-.015 0-.056.02-.096l.918-2.048c.131-.298-.07-.378-.02-.429.015-.01.04-.01.06.01.126.131.227.252.343.368.111.116.227.227.338.343.046.046.05.071.03.091-.055.05-.156-.191-.292-.06a.362.362 0 0 0-.076.11l-.65 1.378 1.14-.45ZM51.592 57.244c.242-.147-.03-.338.055-.389.025-.015.046-.01.076.036.09.156.176.307.247.428.227.379.444.737.66 1.095l-.489.5c-.04.04-.06.06-.07.065-.015.01-.03.005-.04-.015-.016-.025.035-.056.166-.293.151-.282.156-.554-.06-.923l-.096-.166-.878.524.045.076c.126.212.379.272.605.156.061-.03.081-.03.101-.005.01.02.005.04-.025.056l-.933.555c-.025.015-.05.01-.06-.005-.02-.03-.01-.05.05-.091.262-.172.313-.414.187-.626l-.046-.075-.767.459c-.14.085-.181.181-.065.378.282.474.777.53 1.135.444.07-.015.096-.03.116 0 .015.02.005.04-.015.05-.02.01-.06.026-.096.04l-.757.268c-.237-.403-.474-.812-.731-1.23-.07-.122-.167-.263-.257-.42-.03-.05-.02-.07.005-.085.085-.05.12.282.368.136l1.569-.943ZM52.106 61.254c.147-.131.157-.307.096-.504l-.817.242c-.272.08-.055.333-.146.363-.025.01-.05 0-.066-.055-.05-.172-.09-.338-.131-.475-.04-.136-.096-.297-.146-.469-.016-.055-.005-.07.025-.08.096-.03.05.302.323.221l1.76-.519c.273-.08.056-.333.147-.363.025-.01.05 0 .065.055.05.172.09.338.131.474.05.172.101.313.167.54.171.585.005.969-.343 1.07-.288.085-.575-.02-.858-.702h-.005c.106.364.076.586-.136.797l-.419.399c-.227.217-.03.404-.126.434-.02.005-.04.01-.045-.02-.036-.121-.066-.248-.101-.369l-.111-.368.736-.67Zm.162-.524.04.13c.111.384.353.5.716.394.374-.11.475-.338.394-.63l-.06-.212-1.09.318ZM52.57 62.863c.04 0 .056.01.056.03 0 .036-.05.04-.126.056-.444.106-.888.303-.863.822.02.364.212.56.484.545.717-.035.298-1.433 1.176-1.478.418-.02.746.318.766.757.015.333-.116.52-.11.615.004.126.1.066.105.126 0 .026-.01.04-.06.046l-.666.096c-.066.01-.101.015-.116.015-.025 0-.035-.01-.035-.026 0-.035.075-.04.212-.105.388-.177.61-.379.59-.772-.01-.253-.131-.444-.399-.434-.58.03-.187 1.453-1.15 1.498-.47.02-.852-.358-.878-.893-.015-.353.137-.524.131-.666-.005-.136-.126-.11-.13-.171 0-.015.004-.03.03-.03l.983-.03ZM53.67 65.693c.282.04.187-.282.282-.272.03.005.046.02.036.075-.025.182-.056.349-.07.49-.021.141-.036.313-.061.49-.01.055-.026.065-.056.065-.1-.015.08-.298-.202-.333l-1.82-.247c-.283-.036-.187.282-.283.267-.03-.005-.046-.02-.035-.076.025-.176.055-.348.07-.489.02-.141.035-.313.06-.49.01-.055.026-.065.056-.065.101.01-.08.298.202.333l1.821.252ZM53.367 68.064c.04-.726-.464-.933-.438-1.014.005-.015.02-.025.045-.02.015.005.065.03.116.055l.58.318c.045.025.055.04.05.06-.005.016-.02.026-.04.041-.015.015-.045.03-.06.076l-.505 1.508c-.015.046-.005.076 0 .096.01.02.015.04.01.056-.005.015-.02.02-.075.015l-.651-.096a1.71 1.71 0 0 1-.126-.026c-.026-.01-.03-.025-.026-.04.026-.076.555.06.959-.54l-1.862-.625c-.216-.07-.297.015-.353.181-.015.04-.03.056-.065.046-.025-.01-.03-.03-.02-.066.065-.191.13-.358.181-.52l.167-.524c.01-.035.03-.05.055-.04.035.01.035.035.025.076-.055.166-.045.282.172.358l1.861.625ZM50.976 70.551l.268.495a.91.91 0 0 0 .287.327c.202.126.288-.08.338-.05.02.01.02.04-.005.08-.06.096-.11.167-.187.288-.06.096-.11.192-.166.283-.015.02-.035.025-.05.015-.061-.04.11-.126-.192-.712l-.373-.726-.727-.454c-.242-.151-.287.182-.368.131-.025-.015-.03-.035 0-.085.096-.152.192-.293.267-.414.076-.121.162-.267.253-.424.03-.05.055-.05.075-.035.086.05-.191.237.045.388l.666.419 1.186.066c.318.02.348-.197.409-.162.02.015.02.04 0 .07-.091.147-.187.283-.273.424-.09.142-.166.283-.257.424-.03.046-.05.06-.07.046-.061-.04.125-.187-.041-.288a.422.422 0 0 0-.202-.05l-.883-.056ZM32.367 71.293c-.035.025-.05.02-.065 0-.02-.03.025-.061.075-.111.328-.318.606-.717.318-1.15-.202-.303-.47-.369-.696-.218-.595.399.484 1.383-.247 1.872-.348.232-.807.111-1.05-.257-.186-.278-.166-.505-.221-.585-.071-.106-.122-.005-.157-.056-.015-.02-.01-.04.03-.07l.52-.424a.937.937 0 0 1 .09-.076c.021-.015.036-.01.046.005.02.03-.04.076-.126.202-.242.348-.328.636-.11.963.14.212.342.313.564.162.484-.323-.585-1.342.212-1.877.393-.262.913-.13 1.21.313.197.293.152.52.228.636.075.116.166.03.196.08.01.016.01.03-.01.04l-.807.55ZM29.83 69.194c-.267.091-.04.338-.136.368-.025.01-.046 0-.066-.055l-.151-.47c-.046-.135-.106-.292-.162-.463-.02-.056-.005-.07.02-.081.096-.03.061.303.328.212l.772-.257-.297-.883-.772.257c-.268.09-.04.338-.131.368-.026.01-.046 0-.066-.05-.06-.172-.106-.333-.151-.47-.046-.136-.106-.292-.167-.463-.02-.056-.005-.071.02-.081.096-.03.061.303.328.212l1.74-.585c.268-.091.041-.338.137-.369.025-.01.045 0 .065.05.061.172.106.339.152.47.045.136.106.293.161.464.02.056.005.076-.02.08-.096.031-.06-.302-.328-.211l-.888.297.298.883.888-.297c.267-.091.04-.338.136-.369.025-.01.045 0 .066.05.06.172.105.334.15.47.046.136.107.293.162.464.02.056.005.07-.02.08-.096.031-.06-.302-.328-.211l-1.74.59ZM28.922 65.693c-.282.015-.131.313-.232.318-.03 0-.046-.01-.05-.066-.01-.181-.01-.353-.016-.494-.02-.439-.045-.857-.07-1.276l.67-.212c.051-.015.081-.025.091-.025.016 0 .03.01.03.035 0 .03-.06.03-.282.182-.267.181-.403.418-.383.842l.01.192 1.019-.05-.005-.091c-.005-.248-.202-.42-.454-.42-.07 0-.09-.01-.09-.044 0-.02.014-.036.05-.036l1.084-.055c.03 0 .05.01.05.035 0 .035-.015.045-.085.055-.313.03-.474.217-.46.465l-.004.085.892-.045c.162-.01.248-.076.233-.303-.026-.555-.434-.832-.792-.923-.066-.02-.101-.02-.101-.05 0-.026.015-.036.035-.04.02 0 .066.004.1.01l.793.116.06 1.432c.005.141.02.313.03.49.006.055-.014.07-.045.07-.1.005.026-.308-.257-.293l-1.821.096ZM30.526 62.747c.277.06.419-.025.484-.12.06-.087.05-.187.106-.172.02.005.036.015.026.055-.026.116-.061.252-.096.394-.03.14-.056.277-.081.398-.01.04-.03.046-.05.04-.061-.015-.006-.095-.026-.201-.02-.111-.11-.252-.388-.308l-1.514-.333c-.191.076-.257.167-.297.273-.02.055-.025.075-.06.07-.026-.005-.036-.02-.03-.05.024-.116.06-.248.09-.374l.086-.388 1.83-.898v-.005l-1.023-.227c-.278-.06-.419.025-.484.121-.061.086-.051.187-.107.172-.02-.005-.035-.016-.03-.056.026-.116.06-.252.096-.393.03-.142.056-.278.08-.399.01-.04.026-.045.051-.04.06.015.005.096.026.202.02.116.11.252.388.312l1.786.389c.065.015.11.03.106.055-.006.03-.056.046-.101.066l-2.275 1.1v.005l1.407.312ZM31.848 59.988a.937.937 0 0 0-.025-.903c-.137-.237-.328-.323-.303-.378.005-.01.025-.026.05-.01.02.01.06.04.116.085l.616.45c-.126.257-.252.519-.374.781l-.363.792c-.015.025-.035.03-.045.025a.33.33 0 0 1-.06-.07l-1.444-2.14-.09.193c-.167.358-.141.645.035.918.162.242.212.237.192.277-.01.02-.02.02-.04.015-.02-.01-.041-.03-.086-.065l-.535-.45c.106-.231.222-.463.338-.7.11-.237.217-.475.328-.722.02-.04.035-.045.05-.04.015.01.04.045.076.096l1.443 2.103.12-.257ZM30.985 57.294c-.222-.176-.302.147-.383.086-.02-.015-.025-.04.01-.086.11-.14.227-.267.313-.378.09-.111.191-.247.302-.388.036-.046.06-.046.081-.026.076.06-.222.212 0 .394l.636.51.58-.727-.636-.51c-.222-.176-.303.147-.383.086-.02-.02-.03-.04.01-.086.11-.14.227-.267.313-.378.09-.11.191-.247.302-.388.036-.046.06-.046.081-.026.076.061-.222.212 0 .389l1.433 1.15c.222.177.302-.146.383-.086.02.02.025.04-.01.086-.116.141-.227.267-.313.378-.09.111-.191.248-.303.389-.035.045-.06.045-.08.025-.08-.06.222-.212 0-.388l-.732-.586-.58.727.732.585c.222.176.302-.146.383-.086.02.02.025.04-.01.086-.116.141-.227.272-.313.378-.09.111-.192.248-.302.389-.036.045-.056.045-.081.025-.076-.06.222-.212 0-.394l-1.433-1.15ZM33.437 54.64c-.167-.231-.333.061-.389-.02-.02-.024-.02-.045.026-.08.146-.106.287-.197.403-.282.358-.258.696-.505 1.034-.747l.54.449c.04.035.066.055.07.06.01.015.006.03-.01.046-.025.02-.06-.03-.302-.141-.298-.127-.57-.111-.918.136l-.157.11.596.833.07-.05c.202-.147.242-.399.106-.616-.04-.06-.04-.08-.01-.1.02-.01.04-.006.055.02l.631.882c.02.026.015.05 0 .06-.03.021-.05.01-.09-.04-.197-.247-.44-.277-.641-.136l-.071.05.52.727c.095.131.196.167.383.03.449-.323.464-.817.348-1.165-.02-.066-.04-.096-.01-.116.02-.015.04-.005.05.01.01.015.03.056.05.091l.334.731c-.384.273-.767.54-1.17.828-.117.08-.248.186-.4.292-.044.036-.07.026-.085.005-.055-.08.273-.146.106-.378l-1.07-1.488ZM36.716 54.424c.1.267.247.333.363.343.106.005.181-.06.202-.005.01.02.005.04-.03.056-.117.04-.248.085-.384.136-.136.05-.262.106-.373.151-.04.015-.05 0-.06-.02-.021-.056.075-.056.156-.131.085-.081.146-.232.045-.495l-.545-1.453c-.171-.115-.277-.126-.388-.1-.056.015-.081.02-.091-.015-.01-.026 0-.04.025-.05.111-.041.237-.082.358-.127l.374-.141 1.75 1.044h.005l-.368-.984c-.101-.267-.247-.333-.363-.338-.106-.005-.182.06-.202.005-.01-.02-.005-.04.03-.055l.379-.136c.136-.05.262-.106.378-.152.04-.015.05 0 .06.02.02.056-.075.056-.156.132-.08.08-.146.232-.05.494l.645 1.71c.025.06.035.111.01.121-.03.01-.07-.02-.11-.05l-2.16-1.307h-.005l.505 1.347ZM35.298 74.107a.333.333 0 1 1-.665 0 .333.333 0 0 1 .665 0ZM47.934 74.107a.333.333 0 1 1-.665.001.333.333 0 0 1 .666 0Z"/><path fill="#950040" d="M41.301 78.597a14.17 14.17 0 0 1-5.564-1.125 14.247 14.247 0 0 1-4.545-3.062 14.166 14.166 0 0 1-3.062-4.545A14.12 14.12 0 0 1 27 64.301c0-1.932.378-3.803 1.125-5.564a14.268 14.268 0 0 1 3.062-4.55 14.163 14.163 0 0 1 4.545-3.062A14.213 14.213 0 0 1 41.3 50c1.932 0 3.803.378 5.564 1.125a14.248 14.248 0 0 1 4.545 3.062 14.164 14.164 0 0 1 3.062 4.545 14.189 14.189 0 0 1 1.125 5.564c0 1.932-.378 3.803-1.125 5.569a14.247 14.247 0 0 1-3.062 4.545 14.166 14.166 0 0 1-4.545 3.062 14.188 14.188 0 0 1-5.564 1.125Zm0-27.931c-7.516 0-13.635 6.114-13.635 13.635 0 7.516 6.114 13.635 13.635 13.635 7.516 0 13.635-6.114 13.635-13.635-.005-7.521-6.119-13.635-13.635-13.635Z"/><path fill="#950040" d="M37.558 76.085c-.045.141.015.242.202.318.176.07.217.085.196.13-.005.02-.03.036-.065.02-.227-.075-.46-.155-.676-.226-.227-.076-.464-.146-.691-.227-.035-.015-.046-.04-.04-.06.015-.051.055-.041.236.014.197.056.308.01.354-.13l.524-1.57c.026-.075.01-.1-.05-.12l-.46-.152c-.03-.01-.04-.03-.035-.05.016-.05.076-.005.379.055.454.091.67-.03.736-.005.03.01.04.03.02.091l-.63 1.912ZM40.035 74.455c.58.06.888.55.822 1.14-.11 1.02-1.438 1.272-1.599 1.252-.02 0-.02-.01-.02-.03.005-.041.752-.152 1.044-1a.825.825 0 0 1-.49.096c-.574-.06-.786-.454-.746-.807.05-.424.394-.716.989-.65Zm-.126 1.388c.171.02.368-.076.413-.147.016-.025.056-.166.071-.307.07-.636-.116-.838-.373-.863-.202-.02-.419.076-.474.62-.056.475.13.671.363.697ZM41.906 75.732c-.222-.136-.322-.313-.338-.495-.03-.383.308-.716.797-.761.409-.036.732.186.757.494a.649.649 0 0 1-.237.545c.277.07.454.308.48.61.035.404-.339.767-.919.817-.5.046-.852-.227-.883-.59-.015-.202.091-.454.343-.62Zm.535 1.145c.353-.03.52-.267.494-.54-.015-.192-.105-.338-.499-.444-.368-.1-.398-.131-.449-.126-.066.005-.222.207-.197.51.036.383.273.635.651.6Zm-.066-2.336c-.247.02-.403.197-.383.45.03.357.58.443.832.499.076-.101.132-.202.111-.444-.025-.364-.247-.53-.56-.505ZM45.195 74.854c.263.086.48.222.565.5.142.458-.186.948-.68 1.099-.48.151-.863.025-.939-.217-.04-.131.015-.282.156-.328.172-.055.278.025.359.252.08.237.237.283.398.233.272-.086.409-.354.303-.702-.091-.282-.308-.434-.535-.439-.151 0-.278.081-.293.03-.025-.075.131-.04.273-.18.096-.097.11-.268.055-.455-.08-.252-.292-.338-.565-.252-.363.11-.313.393-.378.413-.015.006-.03-.005-.035-.02-.03-.085.08-.554.544-.7.333-.107.727-.016.838.352.045.147.01.268-.066.414ZM38.85 65.512c.03.02.055.025.1.025.101-.005.162-.06.187-.07.01-.006.04-.02.04-.026 0-.045-.146-.1-.217-.1-.086-.006-.227.075-.227.095 0 .02.091.06.116.076ZM39.702 67.272c.04-.207-.03-.151-.47-.166-.201 0-.897-.015-1.094.01-.09.01-.1.086-.1.131 0 .151-.036.136.71.136l.293-.02c.464-.03.58.025.66-.09Z"/><path fill="#950040" d="M47.284 60.548c0 .192.08.363.206.484l.006.005 2.25 2.255a.664.664 0 0 1 .196.47v-2.82a.65.65 0 0 0-.171-.41l-4.727-4.726a.661.661 0 0 0-.409-.171h-.348a.168.168 0 0 0-.166.166v2.245a.255.255 0 0 1-.247.252h-.253v-2.164c0-.277-.221-.5-.499-.5h-3.657c-.278 0-.5.223-.5.5v2.164h-.252a.249.249 0 0 1-.247-.252V55.8a.168.168 0 0 0-.166-.166h-.348a.65.65 0 0 0-.41.171l-4.726 4.727a.66.66 0 0 0-.171.408v2.82c0-.181.075-.353.196-.469l2.25-2.255.005-.005a.67.67 0 0 0 .207-.484v.469a.664.664 0 0 1-.197.47l-2.255 2.254a.67.67 0 0 0-.206.484v2.548c0-.187.075-.353.196-.47l2.25-2.254.005-.005a.67.67 0 0 0 .207-.485v.47a.646.646 0 0 1-.197.469l-2.255 2.26a.67.67 0 0 0-.206.484v.373a.65.65 0 0 0 .171.409l.661.66 1.624-1.624a.67.67 0 0 0 .207-.484v.47a.655.655 0 0 1-.197.468l-1.397 1.403 3.788 3.793 1.024-1.846a.523.523 0 0 1 .46-.273h.393a.524.524 0 0 0-.464.283l-1.12 2.018a.595.595 0 0 0 .157.025h1.947l.373-2.053a.335.335 0 0 1 .328-.278h.343a.34.34 0 0 0-.333.278l-.373 2.048h2.113l-.373-2.048a.335.335 0 0 0-.328-.278h.338a.34.34 0 0 1 .333.278l.373 2.053h1.947c.046 0 .101-.01.157-.025l-1.125-2.018a.524.524 0 0 0-.464-.283h.398c.197 0 .368.111.46.273l1.023 1.846 3.794-3.793-1.403-1.403a.664.664 0 0 1-.196-.469v-.469c0 .192.08.358.206.484l1.625 1.625.66-.661a.69.69 0 0 0 .172-.409v-.373a.67.67 0 0 0-.207-.484l-2.26-2.26a.664.664 0 0 1-.196-.47v-.459c0 .192.08.364.206.485l.006.005 2.25 2.255a.664.664 0 0 1 .196.469v-2.548a.67.67 0 0 0-.207-.484l-.005-.005-2.255-2.25a.664.664 0 0 1-.196-.469v-.48h.005Zm-4.137.156c.076-.696.091-.625.474-.767.46-.085.712-.156.949-.146.242.005.777.02 1.266.207.212.076.126.146.136.943-.035.303-.06.253-.368.283-.252-.01-.389.015-.716-.076-.106-.131-.237-.847-.48-.757-.1.076 0 .086-.171.434-.035.056-.096.222-.162.298-.247.116-.459.08-.741.09-.252-.02-.187-.145-.187-.509Zm-.494-.59c.005-.146 0-.181.116-.192.192-.005.192.066.207.162 0 .151-.005.464-.01.756 0 .172 0 .535-.137.586-.15.02-.242.035-.232-.137-.01-.1.04-.252.066-.408.035-.151.01-.58-.01-.767Zm.09 1.77c.177.071.187.621.187.621.005.07.016.55.016.716.005.162.01.278-.016.349-.055.045-.12.055-.217.035-.08-.046-.12-.474-.12-.61 0-.142-.006-.47-.046-.787-.04-.323-.01-.288.197-.323Zm-.66-.297c.02-.232.086-1.04.06-1.24.005-.132-.015-.324.03-.47.02-.066.086-.076.202-.086.187-.035.147.62.147.62-.015.566-.172 1.68-.172 1.973-.055.48.172 1.755.046 1.872-.04.02-.202.045-.242-.036-.122-.343-.127-.872-.152-1.326-.03-.51.06-1.07.08-1.307Zm-.494-.742c.055-.343.03-.736.06-.842.035-.035.121-.06.227-.035.126.09.166 1.2-.116 1.422-.086 0-.187.01-.217-.05-.04-.07.005-.247.046-.495Zm-.147 1.494c0-.45.046-.525.131-.656.096-.05.222.02.268.076.06.156-.046.943-.056 1.296-.025.348.091.701-.05.762-.146.05-.247.005-.263-.096-.05-.424-.03-1.382-.03-1.382Zm-.403 5.473c-.026.585-.036.53-.444.53-.353 0-1.236 0-1.292.005 0 .08-.02.262-.01.428.015.227.142.288-.792.384-.222.02-1.63-.035-1.725-.202-.1-.171-.277-.449-.141-.686.197.156.388.277.817.434.343.06.898.11 1.186.025.201-.086.196-.141.181-.358-.656-.04-1.009-.06-1.226-.07-.363-.046-.343-.041-.348-.223.02-.146.056-.181.288-.166.13.02.408.04.787.04h.5v-.292s-.51.02-.697.01c-.595-.026-.5-.111-.53-.384.05-.484.05-.418.49-.449.378-.005 1.447-.025 1.725-.015.434.04.378.07.368.46-.045.216.035.292-.388.357-.076 0-.49.03-.49.03v.283h.964s.343-.005.343-.292c0-.283.04-.717.04-.717s-.005-.302-.303-.302c-.292 0-1.906-.026-2.567-.016-.515.005-.525.086-.565.263-.046.197-.086 1.014-.237.978-.383-.096-.298-.136-.293-.363.015-.303.066-.615.121-.918.081-.212.116-.328 1.377-.323h2.286c.383.025.514.02.57.394.045.555.025.731.005 1.155Zm-3.789-2.573c0 .091.152.076.45.066.261 0 .246-.056.256.156 0 .08.01.101-.166.106-.605.03-.55.015-.55.157.005.12.101.09.47.075.236-.01.252-.045.272.116.01.101-.005.167-.005.167-.172 0-.833.065-1 .05-.176-.025-.176-.01-.166-.363.02-.318.036-.62.106-.883.076-.161.086-.126.757-.156.353.005.318-.02.343.217.005.085.025.106-.555.136-.262-.01-.217-.03-.212.156Zm.994-.328c-.035-.02.086-.191.151-.207.086.016.313.147.384.172.02.005.09.04.181.086.046-.02.076-.035.096-.046.076-.045.419-.237.51-.232.025.02.156.217.07.273-.116.075-.242.166-.328.202l.202.11c.141.071.172.101.157.248a.278.278 0 0 1-.111.09c-.076.036-.142.076-.217.112l.186.09c.268.152.253.116.172.252-.101.142-.247.066-.313.04-.035-.014-.242-.1-.429-.2a4.92 4.92 0 0 1-.398.206c-.187.086-.217.09-.283 0-.11-.162-.045-.156.147-.267.02-.01.11-.056.181-.101-.08-.04-.176-.076-.272-.142-.025-.015-.101-.055-.106-.105 0-.071-.03-.142.182-.258.065-.035.12-.06.186-.09-.151-.066-.297-.147-.348-.233Zm2.704 1.17c-.141.03-.944.051-.959.046-.075-.005-.085.005-.08-.106-.005-.156.01-.171.277-.166.263.005.47.025.47-.132 0-.12-.031-.14-.46-.126-.247.005-.232 0-.247-.05-.03-.151-.066-.237.146-.247.298-.025.545-.005.56-.076.03-.126 0-.171-.237-.156-.5.035-.524.07-.53-.086 0-.151-.065-.197.334-.217.403-.005.726-.055.751.126.07.212.07.494.086.908.01.273-.005.262-.111.283Zm-.066-1.7c-.136.071-.645-.63-1.004-1.084-.126-.156-.58-.55-.983-.57-.61-.035-1.448 1.044-1.655 1.413-.106.161-.227.327-.403.242-.167-.106-.162-.101-.066-.379.172-.408.928-1.236 1.251-1.468.343-.322.429-.363.54-.746.055-.696.035-.863-.167-.898-.201-.02-1.1-.151-1.135.404-.03.474-.03.68-.03.872 0 .283-.02.237-.303.237-.181 0-.085-.948-.085-1.589.096-.388.333-.317.721-.348.202.02.464 0 .6 0 .323 0 .399-.166.419-.423.02-.268.05-.278.272-.313.202-.03.182.12.222.328.071.312-.035.338.42.363.387 0 .685.01.852.02.378.035.585 0 .61.58.015.49.136.948-.01 1.125-.06.076-.237.166-.363.146-.157-.085.171-1.16-.232-1.347-.242-.11-.919-.11-1.115-.015-.187.091-.111.475-.131.747 0 .217 0 .444.444.736.448.333.857.747 1.266 1.241.237.268.454.61.065.727Zm.253-6.083h-1.993c0-.277.222-.5.5-.5h1.245c.136 0 .248.112.248.248v.252Zm1.901 8.631c-.08.076-.363.116-.424.207-.06.09-.04.752 0 .792.051.055.187.02.389 0 .156-.005.207.474.09.49-.12.02-.56.07-.791.095-.247.03-.389.05-.626.045-.222 0-.217-.116-.237-.282 0-.192-.02-.257.162-.232.176.005.297.03.459-.106.116-.096.05-.343.065-.53-.005-.166.04-.323-.197-.262-.332.076-.353.131-.353-.439 0-.202-.005-.393.01-.53.02-.272-.04-.413.303-.484.146-.03.07.419.066.626 0 .201-.026.413.086.413.282.02.116-.61.136-1.145.01-.353-.06-.514.217-.565.247-.035.191.056.201.348.005.278-.01 1.231.106 1.221.232-.015.192-.822.177-.963-.005-.217-.046-.313.176-.328.172-.01.177-.02.207.171.03.202.035.394.035.545a3.817 3.817 0 0 1-.065.51c-.035.237-.111.328-.192.403Zm1.04 2.19c-.122.03-.172.025-.328 0-.111-.02-.167-.147-.258-.434a6.555 6.555 0 0 1-.156-.676c-.04-.414-.096-.747-.01-.959.04-.151.131-.378.222-.555.07-.171.136-.302.222-.605.055-.298.05-.323 0-.575-.015-.101-.086-.232-.136-.368-.081-.177-.132-.268.07-.293.298-.02.273.01.409.207.141.323.141.449.151.555.03.247.02.524-.212 1.039-.227.444-.318.63-.287 1.054.035.474.14.979.206 1.155.03.132.197.43.106.454Zm.72-.656c.092.312.293.59.162.625-.106.025-.292.01-.353-.055-.126-.136-.242-.394-.323-.802-.06-.44-.1-.717-.055-1.115.136-.596.439-.782.49-1.281.03-.318-.006-.42-.056-.555-.081-.237-.364-.606-.04-.606.201 0 .201.025.282.091.126.096.267.525.287.772.03.368-.136.736-.262 1.054-.141.363-.283.565-.283.918.026.232.05.55.152.954Zm1.15-2.25c-.16.61-.302.54-.418 1.21 0 .258.136.823.192 1.035.035.196.227.585.131.615-.096.03-.308-.02-.383-.08-.111-.087-.202-.48-.248-.616-.085-.383-.237-1.054.046-1.6.08-.176.212-.403.287-.847 0-.6-.035-.67-.12-.948-.066-.162-.152-.288-.006-.298.444 0 .389.136.515.43.08.352.09.488.005 1.099Zm-.105-2.053c-.242.086-.222-.03-.232-.374-.01-.221.02-.918-.288-1.019-.262-.126-.504-.13-.56-.05-.04.06-.025 1.286-.025 1.286.005.288-.12.243-.252.227-.247-.065-.217-.207-.212-.434.005-.231.005-1.054-.035-1.1-.035-.04-.505-.065-.585.43-.076.469-.126.782-.147.882-.01.06-.025.142-.07.157-.086.03-.263.065-.293.02-.05-.177-.005-.439.025-.736a4.84 4.84 0 0 1 .222-.808c.036-.176.515-.297.787-.413.162-.046.116-.293.066-.303-.086-.02-.404.025-.605.045-.142 0-.268.111-.374-.13-.055-.122-.08-.228.253-.248l.433-.035s.308-.01.328-.06c0-.081.015-.228.091-.349.025-.035.151-.02.227-.015.166.045.1.055.131.257.01.096-.025.121.52.106.383-.01.666-.055.65.096.005.076.005.232-.035.273-.055.055-.161.035-.343.045-.267 0-.701.015-.767.025-.04.02-.035.101-.015.182.026.06-.015.07.237.126.838.247.828.197.959.736.08.46.07.712.075.848-.005.146.056.252-.166.333Z"/><path fill="#950040" d="m45.342 60.775.201-.01c.106-.025.091-.182.036-.409-.066-.136-.258-.126-.444-.12-.076.004-.126.014-.106.13.075.45.096.379.313.409ZM43.581 60.8l.146-.01c.293-.02.278-.181.313-.424.015-.1-.146-.075-.307-.045-.152.03-.157.025-.187.136-.03.101-.07.313.035.343Z"/></g><defs><filter id="a" width="154" height="157" x="0" y="0" color-interpolation-filters="sRGB" filterUnits="userSpaceOnUse"><feFlood flood-opacity="0" result="BackgroundImageFix"/><feColorMatrix in="SourceAlpha" result="hardAlpha" values="0 0 0 0 0 0 0 0 0 0 0 0 0 0 0 0 0 0 127 0"/><feOffset dy="16"/><feGaussianBlur stdDeviation="6.5"/><feColorMatrix values="0 0 0 0 0 0 0 0 0 0 0 0 0 0 0 0 0 0 0.03 0"/><feBlend in2="BackgroundImageFix" result="effect1_dropShadow_192_935"/><feBlend in="SourceGraphic" in2="effect1_dropShadow_192_935" result="shape"/></filter></defs></svg>