<svg xmlns="http://www.w3.org/2000/svg" xml:space="preserve" style="fill-rule:evenodd;clip-rule:evenodd;stroke-linejoin:round;stroke-miterlimit:2" viewBox="0 0 154 157"><path d="M43.909 53.511c-.081.525-.479.726-.969.651-.544-.086-.857-.394-.802-.757l.242-1.533c.046-.283-.277-.192-.262-.288.005-.025.02-.045.076-.035l.484.085c.141.021.308.041.489.071.056.01.066.03.061.056-.015.095-.298-.086-.338.196l-.242 1.524a.523.523 0 0 0 .449.595c.368.055.656-.141.721-.56l.166-1.064c.046-.303-.035-.49-.191-.57-.051-.026-.101-.036-.096-.071.005-.02.01-.035.056-.03l.368.065c.146.02.282.036.373.051.04.005.045.025.045.045-.005.03-.06.025-.116.035-.166.026-.307.182-.353.485l-.161 1.049ZM44.963 54.026c-.116.262-.06.413.02.499.076.081.172.086.147.141-.01.02-.021.03-.061.015-.111-.05-.232-.111-.368-.171-.131-.061-.262-.106-.373-.157-.041-.02-.041-.035-.031-.055.026-.056.096.015.202.015.116 0 .268-.06.384-.318l.63-1.422c-.04-.202-.111-.288-.207-.343-.05-.031-.07-.041-.055-.076.01-.025.03-.03.055-.02.111.05.227.106.348.161l.364.162.514 1.972.005.005.424-.963c.116-.258.06-.414-.02-.5-.076-.08-.172-.085-.147-.141.01-.02.021-.03.061-.015.111.05.232.111.368.171.131.061.263.111.373.157.041.015.041.035.031.055-.025.056-.096-.015-.202-.015-.116 0-.267.061-.383.323l-.737 1.67c-.025.06-.05.106-.076.096-.03-.016-.035-.061-.045-.116l-.625-2.447h-.006l-.59 1.317ZM48.328 54.02c.166-.232-.161-.297-.106-.378.015-.02.04-.03.086.005.146.106.282.212.398.293.116.08.258.176.404.282.045.036.045.056.03.081-.055.081-.227-.207-.388.02l-1.07 1.493c-.166.232.162.298.106.379-.015.025-.04.03-.086-.005-.146-.106-.282-.212-.398-.293-.116-.081-.257-.177-.404-.283-.045-.03-.045-.055-.03-.08.056-.081.227.206.389-.02l1.069-1.494ZM50.568 56.457a.758.758 0 0 0 .201-.126c.248-.237-.02-.399.041-.459.015-.01.04-.01.07.015.081.086.157.176.243.267.08.086.166.167.247.252.05.051.065.091.045.116-.076.071-.156-.227-.671-.03l-1.891.732c-.046.015-.086.03-.096.015-.015-.015 0-.056.02-.096l.918-2.048c.131-.298-.071-.378-.02-.429.015-.01.04-.01.06.01.126.131.227.252.343.368.111.116.227.227.338.343.046.046.051.071.031.091-.056.051-.157-.191-.293-.06a.355.355 0 0 0-.076.111l-.65 1.377 1.14-.449ZM51.592 57.244c.242-.147-.031-.338.055-.389.025-.015.046-.01.076.036.091.156.176.307.247.428.227.379.444.737.661 1.095l-.49.5c-.04.04-.06.06-.07.065-.015.01-.03.005-.041-.015-.015-.025.036-.056.167-.293.151-.282.156-.554-.061-.923l-.095-.166-.878.524.045.076c.126.212.379.272.606.156.06-.03.08-.03.1-.005.011.021.006.041-.025.056l-.933.555c-.025.015-.05.01-.061-.005-.02-.031-.01-.051.051-.091.262-.172.313-.414.187-.626l-.046-.075-.767.459c-.141.086-.181.181-.065.378.282.474.777.53 1.135.444.07-.015.096-.03.116 0 .015.02.005.04-.015.05-.02.011-.061.026-.096.041l-.757.267c-.237-.403-.474-.812-.731-1.231-.071-.121-.167-.262-.257-.418-.031-.051-.021-.071.005-.086.085-.051.121.282.368.136l1.569-.943ZM52.106 61.254c.147-.131.157-.307.096-.504l-.817.242c-.272.081-.055.333-.146.363-.025.01-.051 0-.066-.055-.05-.172-.091-.338-.131-.475-.04-.136-.096-.297-.146-.469-.015-.055-.005-.07.025-.08.096-.031.05.302.323.222l1.76-.52c.273-.081.056-.333.147-.363.025-.01.05 0 .065.055.051.172.091.338.131.474.051.172.101.313.167.54.171.585.005.969-.343 1.07-.288.085-.575-.021-.858-.702h-.005c.106.364.076.586-.136.797l-.419.399c-.227.217-.03.404-.126.434-.02.005-.04.01-.045-.02-.036-.121-.066-.248-.101-.369l-.111-.368.736-.671Zm.162-.524.04.131c.111.383.353.499.716.393.374-.111.475-.338.394-.63l-.061-.212-1.089.318ZM52.57 62.863c.041 0 .056.01.056.031 0 .035-.051.04-.126.055-.444.106-.888.303-.863.822.02.364.212.56.484.545.717-.035.298-1.432 1.176-1.478.418-.02.746.318.766.757.016.333-.116.519-.111.615.005.126.101.066.106.126 0 .026-.01.041-.06.046l-.666.096c-.066.01-.101.015-.116.015-.025 0-.035-.01-.035-.026 0-.035.075-.04.212-.105.388-.177.61-.379.59-.772-.01-.252-.131-.444-.399-.434-.58.03-.186 1.453-1.15 1.498-.469.02-.852-.358-.878-.893-.015-.353.137-.524.131-.666-.005-.136-.126-.111-.131-.171 0-.015.005-.03.031-.03l.983-.031ZM53.67 65.693c.283.041.187-.282.283-.272.03.005.045.02.035.075-.025.182-.056.349-.071.49-.02.141-.035.313-.06.489-.01.056-.026.066-.056.066-.101-.015.081-.298-.202-.333l-1.821-.247c-.282-.036-.186.282-.282.267-.03-.005-.045-.02-.035-.076.025-.176.055-.348.07-.489.02-.141.036-.313.061-.489.01-.056.025-.066.055-.066.101.01-.08.298.202.333l1.821.252ZM53.367 68.064c.041-.726-.464-.933-.438-1.014.005-.015.02-.025.045-.02.015.005.065.03.116.056l.58.317c.045.026.055.041.05.061-.005.015-.02.025-.04.04-.015.015-.045.031-.06.076l-.505 1.508c-.015.046-.005.076 0 .096.01.02.015.04.01.056-.005.015-.02.02-.075.015l-.651-.096a1.686 1.686 0 0 1-.126-.025c-.025-.01-.031-.026-.025-.041.025-.075.554.061.958-.54l-1.862-.625c-.216-.071-.297.015-.353.182-.015.04-.03.055-.065.045-.025-.01-.03-.03-.02-.066.065-.191.131-.358.181-.519.051-.157.106-.333.167-.525.01-.035.03-.05.055-.04.035.01.035.035.025.076-.055.166-.045.282.172.358l1.861.625ZM50.976 70.551l.268.495c.09.166.206.277.287.327.202.127.288-.08.338-.05.02.01.02.04-.005.081-.06.096-.111.166-.187.287-.06.096-.11.192-.166.283-.015.02-.035.025-.05.015-.061-.041.111-.126-.192-.711l-.373-.727-.727-.454c-.242-.151-.287.182-.368.131-.025-.015-.03-.035 0-.085.096-.152.192-.293.267-.414.076-.121.162-.267.253-.424.03-.05.055-.05.075-.035.086.05-.191.237.046.388l.665.419 1.186.066c.318.02.348-.197.409-.162.02.015.02.041 0 .071-.091.146-.187.282-.273.424-.091.141-.166.282-.257.423-.03.046-.051.061-.071.046-.06-.041.126-.187-.04-.288a.427.427 0 0 0-.202-.05l-.883-.056ZM32.367 71.293c-.035.025-.05.02-.065 0-.021-.031.025-.061.075-.111.328-.318.606-.717.318-1.151-.202-.302-.469-.368-.696-.216-.595.398.484 1.382-.247 1.871-.348.232-.807.111-1.049-.257-.187-.278-.167-.505-.222-.585-.071-.106-.121-.005-.157-.056-.015-.02-.01-.04.03-.07l.52-.424a.813.813 0 0 1 .091-.076c.02-.015.035-.01.045.005.02.03-.04.076-.126.202-.242.348-.328.636-.111.963.141.212.343.313.565.162.484-.323-.585-1.342.212-1.877.393-.262.913-.131 1.211.313.196.293.151.52.227.636.075.116.166.03.196.08.011.016.011.031-.01.041l-.807.55ZM29.83 69.194c-.267.091-.04.338-.136.368-.025.011-.046 0-.066-.055-.055-.172-.106-.333-.151-.469-.046-.136-.106-.293-.162-.464-.02-.056-.005-.071.021-.081.095-.03.06.303.327.212l.772-.257-.297-.883-.772.257c-.268.091-.041.338-.131.368-.026.01-.046 0-.066-.05-.06-.172-.106-.333-.151-.469-.046-.136-.106-.293-.167-.464-.02-.056-.005-.071.02-.081.096-.03.061.303.328.212l1.741-.585c.267-.091.04-.338.136-.369.025-.01.045 0 .065.051.061.171.106.338.152.469.045.136.106.293.161.464.02.056.005.076-.02.081-.096.03-.06-.303-.328-.212l-.888.298.298.882.888-.297c.267-.091.04-.338.136-.369.025-.01.045 0 .066.051.06.171.106.333.151.469.045.136.106.293.161.464.021.056.005.071-.02.081-.096.03-.06-.303-.328-.212l-1.74.59ZM28.922 65.693c-.282.015-.131.313-.232.318-.03 0-.045-.01-.05-.065-.011-.182-.011-.354-.016-.495-.02-.439-.045-.857-.07-1.276l.671-.212c.05-.015.08-.025.09-.025.016 0 .031.01.031.035 0 .03-.061.03-.283.182-.267.181-.403.418-.383.842l.01.192 1.019-.051-.005-.09c-.005-.248-.202-.419-.454-.419-.071 0-.091-.01-.091-.045 0-.021.015-.036.05-.036l1.085-.055c.03 0 .051.01.051.035 0 .035-.016.045-.086.056-.313.03-.474.216-.459.464l-.005.085.893-.045c.161-.01.247-.076.232-.303-.026-.555-.434-.832-.792-.923-.066-.02-.101-.02-.101-.05 0-.026.015-.036.035-.041.02 0 .066.005.101.011l.792.116.06 1.432c.005.141.021.313.031.489.005.056-.015.071-.046.071-.101.005.026-.308-.257-.292l-1.821.095ZM30.526 62.747c.278.061.419-.025.484-.121.061-.085.051-.186.106-.171.02.005.036.015.026.055-.026.116-.061.252-.096.394-.031.141-.056.277-.081.398-.01.041-.03.046-.05.041-.061-.016-.006-.096-.026-.202-.02-.111-.111-.252-.388-.308l-1.513-.333c-.192.076-.258.167-.298.273-.02.055-.025.075-.061.07-.025-.005-.035-.02-.03-.05.025-.116.061-.248.091-.374l.086-.388 1.831-.898v-.005l-1.024-.227c-.278-.06-.419.025-.484.121-.061.086-.051.187-.106.172-.021-.005-.036-.015-.031-.056.026-.116.061-.252.096-.393.03-.142.056-.278.081-.399.01-.04.025-.045.05-.04.061.015.005.096.026.202.02.116.111.252.388.312l1.786.389c.065.015.111.03.106.055-.005.031-.056.046-.101.066l-2.275 1.099v.006l1.407.312ZM31.848 59.988a.938.938 0 0 0-.025-.903c-.137-.237-.328-.323-.303-.378.005-.01.025-.025.05-.01.02.01.061.04.116.085l.616.449c-.126.258-.252.52-.374.782l-.363.792c-.015.025-.035.031-.045.025-.015-.01-.03-.03-.061-.07l-1.442-2.139-.091.192c-.167.358-.141.645.035.918.161.242.212.237.192.277-.01.02-.02.02-.041.015-.02-.01-.04-.03-.085-.065l-.535-.449c.106-.232.222-.464.338-.701.111-.237.217-.475.328-.722.02-.04.035-.045.05-.04.015.01.041.045.076.096l1.443 2.103.121-.257ZM30.985 57.294c-.222-.176-.302.147-.383.086-.02-.015-.025-.04.01-.086.111-.141.227-.267.313-.378.091-.111.191-.247.302-.388.036-.046.061-.046.081-.026.076.061-.222.212 0 .394l.636.509.58-.726-.636-.51c-.222-.176-.302.147-.383.086-.02-.02-.03-.04.01-.086.111-.141.227-.267.313-.378.09-.111.191-.247.302-.388.036-.046.061-.046.081-.026.076.061-.222.212 0 .389l1.433 1.15c.222.177.302-.146.383-.086.02.02.025.041-.01.086-.116.141-.227.267-.313.378-.091.111-.191.248-.302.389-.036.045-.061.045-.081.025-.081-.061.222-.212 0-.388l-.732-.586-.58.727.732.585c.222.176.302-.146.383-.086.02.02.025.041-.01.086-.116.141-.227.272-.313.378-.091.111-.192.248-.302.389-.036.045-.056.045-.081.025-.076-.061.222-.212 0-.393l-1.433-1.151ZM33.437 54.641c-.167-.232-.333.06-.389-.02-.02-.025-.02-.046.026-.081.146-.106.287-.197.403-.282.358-.258.696-.505 1.034-.747l.54.449.071.06c.01.016.005.031-.011.046-.025.02-.06-.03-.302-.141-.298-.127-.57-.111-.918.136l-.157.111.596.832.07-.05c.202-.147.242-.399.106-.616-.04-.06-.04-.08-.01-.101.02-.01.04-.005.056.021l.63.882c.02.026.015.051 0 .061-.03.02-.05.01-.091-.041-.196-.247-.439-.277-.64-.136l-.071.051.52.726c.095.131.196.167.383.03.449-.322.464-.817.348-1.165-.02-.066-.04-.096-.01-.116.02-.015.04-.005.05.01.011.015.031.056.051.091l.333.731c-.384.273-.767.54-1.171.828-.116.08-.247.186-.398.292-.045.036-.071.026-.086.005-.055-.08.273-.146.106-.378l-1.069-1.488ZM36.716 54.424c.101.267.247.333.363.343.106.005.182-.06.202-.005.01.02.005.04-.031.056-.116.04-.247.085-.383.136-.136.05-.262.106-.373.151-.041.015-.051 0-.061-.02-.02-.056.076-.056.157-.131.085-.081.146-.232.045-.495l-.545-1.452c-.171-.116-.277-.127-.388-.101-.056.015-.081.02-.091-.015-.01-.026 0-.041.025-.051.111-.04.237-.081.358-.126l.374-.141 1.75 1.044h.005l-.368-.984c-.101-.267-.247-.333-.363-.338-.106-.005-.182.061-.202.005-.01-.02-.005-.04.03-.055l.379-.136c.136-.051.262-.106.378-.152.04-.015.05 0 .06.021.021.055-.075.055-.156.131-.081.08-.146.232-.05.494l.645 1.71c.025.061.036.111.01.121-.03.01-.07-.02-.111-.05l-2.159-1.307h-.005l.505 1.347ZM35.298 74.107a.332.332 0 1 1-.666 0c0-.181.147-.333.333-.333a.337.337 0 0 1 .333.333ZM47.935 74.107a.333.333 0 1 1-.333-.333.337.337 0 0 1 .333.333Z" style="fill:#950040;fill-rule:nonzero" transform="translate(-67.415 -146.344) scale(3.49687)"/><path d="M41.301 78.597c-1.932 0-3.803-.378-5.564-1.125a14.238 14.238 0 0 1-4.545-3.062 14.146 14.146 0 0 1-3.062-4.545A14.113 14.113 0 0 1 27 64.301c0-1.932.378-3.803 1.125-5.564a14.249 14.249 0 0 1 3.062-4.55 14.146 14.146 0 0 1 4.545-3.062A14.207 14.207 0 0 1 41.301 50c1.932 0 3.804.378 5.564 1.125a14.227 14.227 0 0 1 4.545 3.062 14.146 14.146 0 0 1 3.062 4.545 14.18 14.18 0 0 1 1.125 5.564c0 1.932-.378 3.804-1.125 5.569a14.227 14.227 0 0 1-3.062 4.545 14.146 14.146 0 0 1-4.545 3.062 14.18 14.18 0 0 1-5.564 1.125Zm0-27.931c-7.516 0-13.635 6.114-13.635 13.635 0 7.516 6.114 13.635 13.635 13.635 7.516 0 13.635-6.114 13.635-13.635-.005-7.521-6.119-13.635-13.635-13.635Z" style="fill:#950040;fill-rule:nonzero" transform="translate(-67.415 -146.344) scale(3.49687)"/><path d="M37.558 76.085c-.045.141.015.242.202.318.176.07.217.085.196.131-.005.02-.03.035-.065.02-.227-.076-.459-.156-.676-.227-.227-.076-.464-.146-.691-.227-.035-.015-.046-.04-.041-.061.016-.05.056-.04.238.016.196.055.307.01.353-.132l.524-1.568c.026-.076.01-.101-.05-.121l-.459-.152c-.03-.01-.041-.03-.035-.05.015-.051.075-.005.378.055.454.091.671-.03.736-.005.031.01.041.03.021.091l-.631 1.912ZM40.035 74.455c.58.061.888.55.822 1.141-.111 1.018-1.437 1.271-1.599 1.251-.02 0-.02-.011-.02-.031.005-.04.752-.151 1.044-.999a.823.823 0 0 1-.489.096c-.575-.06-.787-.454-.747-.807.051-.424.394-.716.989-.651Zm-.126 1.388c.171.02.368-.076.413-.147.016-.025.056-.166.071-.307.071-.636-.116-.838-.373-.863-.202-.02-.419.076-.474.621-.056.474.131.67.363.696ZM41.906 75.732c-.222-.136-.322-.313-.338-.495-.03-.383.308-.716.797-.761.409-.036.732.186.757.494a.65.65 0 0 1-.237.545c.277.07.454.308.479.61.036.404-.338.767-.918.817-.499.046-.852-.227-.883-.59-.015-.202.091-.454.343-.62Zm.535 1.145c.353-.03.52-.267.494-.54-.015-.192-.105-.338-.499-.444-.368-.101-.398-.131-.449-.126-.065.005-.222.207-.197.51.036.383.273.635.651.6Zm-.065-2.336c-.248.02-.404.197-.384.449.03.358.58.444.832.5.076-.101.132-.202.111-.444-.025-.363-.247-.53-.559-.505ZM45.195 74.854c.263.086.48.222.565.499.142.459-.186.949-.681 1.1-.479.151-.862.025-.938-.217-.04-.131.015-.282.156-.328.172-.055.278.025.359.252.08.237.237.283.398.233.272-.086.409-.354.303-.702-.091-.282-.308-.434-.535-.439-.151 0-.277.081-.293.031-.025-.076.132-.041.273-.182.096-.096.111-.267.055-.454-.08-.252-.292-.338-.565-.252-.363.111-.312.393-.378.414-.015.005-.03-.005-.035-.021-.031-.085.08-.554.544-.701.333-.106.727-.015.838.353.045.147.01.268-.066.414ZM38.849 65.512c.031.02.056.025.101.025.101-.005.162-.061.187-.071.01-.005.04-.02.04-.025 0-.045-.146-.101-.217-.101-.085-.005-.227.076-.227.096 0 .02.091.061.116.076ZM39.702 67.272c.04-.207-.03-.151-.469-.166-.202 0-.898-.015-1.095.01-.091.01-.101.086-.101.131 0 .151-.035.136.712.136l.292-.02c.464-.03.58.025.661-.091Z" style="fill:#950040;fill-rule:nonzero" transform="translate(-67.415 -146.344) scale(3.49687)"/><path d="M47.284 60.548c0 .192.08.363.206.484l.006.005 2.249 2.255a.665.665 0 0 1 .197.469v-2.82a.652.652 0 0 0-.171-.408l-4.727-4.727a.659.659 0 0 0-.409-.171h-.348a.168.168 0 0 0-.166.166v2.245a.255.255 0 0 1-.247.252h-.253v-2.164a.497.497 0 0 0-.499-.499h-3.657c-.278 0-.5.222-.5.499v2.164h-.252a.249.249 0 0 1-.247-.252v-2.245a.168.168 0 0 0-.166-.166h-.348a.647.647 0 0 0-.409.171l-4.727 4.727a.658.658 0 0 0-.171.408v2.82c0-.181.075-.353.196-.469l2.25-2.255.005-.005a.67.67 0 0 0 .207-.484v.469a.66.66 0 0 1-.197.469l-2.254 2.255a.667.667 0 0 0-.207.484v2.548c0-.187.075-.353.196-.469l2.25-2.255.005-.005a.671.671 0 0 0 .207-.485v.47a.644.644 0 0 1-.197.469l-2.254 2.26a.665.665 0 0 0-.207.484v.373a.65.65 0 0 0 .171.409l.661.661 1.624-1.625a.665.665 0 0 0 .207-.484v.469a.65.65 0 0 1-.197.469l-1.397 1.403 3.789 3.793 1.024-1.846a.52.52 0 0 1 .459-.273h.393a.523.523 0 0 0-.464.283l-1.12 2.018a.603.603 0 0 0 .157.025h1.947l.373-2.053a.335.335 0 0 1 .328-.278h.343a.34.34 0 0 0-.333.278l-.373 2.048h2.113l-.373-2.048a.335.335 0 0 0-.328-.278h.338a.34.34 0 0 1 .333.278l.373 2.053h1.947c.046 0 .101-.01.157-.025l-1.125-2.018a.523.523 0 0 0-.464-.283h.398c.197 0 .369.111.459.273l1.024 1.846 3.794-3.793-1.403-1.403a.662.662 0 0 1-.196-.469v-.469c0 .192.08.358.206.484l1.625 1.625.661-.661a.697.697 0 0 0 .171-.409v-.373a.67.67 0 0 0-.207-.484l-2.26-2.26a.664.664 0 0 1-.196-.469v-.459c0 .191.08.363.206.484l.006.005 2.249 2.255a.663.663 0 0 1 .197.469v-2.548a.67.67 0 0 0-.207-.484l-.005-.005-2.255-2.25a.662.662 0 0 1-.196-.469v-.479h.005Zm-4.137.156c.076-.696.091-.625.474-.766.46-.086.712-.157.949-.147.242.005.777.02 1.266.207.212.076.126.146.136.943-.035.303-.06.253-.368.283-.252-.01-.388.015-.716-.076-.106-.131-.237-.847-.48-.756-.1.075 0 .085-.171.433-.035.056-.096.222-.162.298-.247.116-.459.081-.741.091-.252-.02-.187-.146-.187-.51Zm-.494-.59c.005-.146 0-.182.116-.192.192-.005.192.066.207.162 0 .151-.005.464-.01.757 0 .171 0 .534-.137.585-.151.02-.242.035-.232-.137-.01-.1.041-.252.066-.408.035-.151.01-.58-.01-.767Zm.091 1.771c.176.07.186.62.186.62.005.071.016.55.016.717.005.161.01.277-.016.348-.055.045-.121.055-.217.035-.08-.046-.121-.474-.121-.61 0-.142-.005-.47-.045-.787-.04-.323-.01-.288.197-.323Zm-.661-.298c.02-.232.086-1.039.06-1.241.005-.131-.015-.323.031-.469.02-.066.085-.076.201-.086.187-.035.147.621.147.621-.015.565-.172 1.68-.172 1.972-.055.479.172 1.756.046 1.872-.041.02-.202.045-.242-.036-.122-.343-.127-.872-.152-1.326-.03-.51.061-1.07.081-1.307Zm-.494-.741c.055-.343.03-.737.06-.843.035-.035.121-.06.227-.035.126.091.166 1.2-.116 1.422-.086 0-.187.01-.217-.05-.04-.071.005-.247.046-.494Zm-.147 1.493c0-.449.046-.525.131-.656.096-.05.222.02.268.076.06.156-.046.943-.056 1.296-.025.348.091.701-.05.762-.146.05-.247.005-.263-.096-.05-.424-.03-1.382-.03-1.382Zm-.403 5.473c-.026.585-.036.53-.444.53-.353 0-1.236 0-1.292.005 0 .08-.02.262-.01.428.015.227.142.288-.792.384-.222.02-1.629-.035-1.725-.202-.101-.171-.277-.449-.141-.686.197.156.388.277.817.434.343.06.898.111 1.186.025.201-.086.196-.141.181-.358-.656-.04-1.009-.061-1.226-.071-.363-.045-.343-.04-.348-.222.02-.146.056-.181.288-.166.131.02.408.04.787.04h.499v-.292s-.509.02-.696.01c-.595-.026-.499-.111-.53-.384.051-.484.051-.418.49-.449.378-.005 1.447-.025 1.725-.015.434.041.378.071.368.459-.045.217.035.293-.388.358-.076 0-.49.031-.49.031v.282h.964s.343-.005.343-.292c0-.283.04-.717.04-.717s-.005-.302-.302-.302c-.293 0-1.907-.026-2.568-.016-.515.006-.525.086-.565.263-.046.197-.086 1.014-.237.978-.383-.095-.298-.136-.293-.363.015-.302.066-.615.121-.918.081-.212.116-.328 1.378-.323h2.285c.383.026.514.02.57.394.045.555.025.731.005 1.155Zm-3.789-2.573c0 .091.152.076.449.066.263 0 .247-.056.258.156 0 .081.01.101-.167.106-.605.03-.55.015-.55.157.005.121.101.09.469.075.237-.01.253-.045.273.116.01.101-.005.167-.005.167-.172 0-.833.065-.999.05-.177-.025-.177-.01-.167-.363.021-.318.036-.621.106-.883.076-.161.086-.126.757-.156.353.005.318-.02.343.217.005.085.025.106-.555.136-.262-.01-.217-.03-.212.156Zm.994-.328c-.035-.02.086-.191.151-.207.086.016.313.147.384.172.02.005.091.04.181.086.046-.02.076-.035.096-.046.076-.045.419-.237.51-.232.025.02.156.217.07.273-.116.075-.242.166-.328.202l.202.11c.141.071.172.101.157.248a.296.296 0 0 1-.111.091c-.076.035-.142.075-.217.111l.186.09c.268.152.253.116.172.253-.101.141-.247.065-.313.04-.035-.015-.242-.101-.429-.202a4.909 4.909 0 0 1-.398.207c-.187.086-.217.091-.283 0-.111-.161-.045-.156.147-.267.02-.011.111-.056.181-.101-.08-.041-.176-.076-.272-.142-.025-.015-.101-.055-.106-.105 0-.071-.03-.142.182-.258.065-.035.121-.06.186-.091-.151-.065-.297-.146-.348-.232Zm2.704 1.171c-.141.03-.943.05-.959.045-.075-.005-.085.005-.08-.106-.005-.156.01-.171.277-.166.263.005.469.025.469-.131 0-.122-.03-.142-.459-.127-.247.005-.232 0-.247-.05-.03-.151-.065-.237.146-.247.298-.025.545-.005.56-.076.031-.126 0-.171-.237-.156-.499.035-.524.07-.529-.086 0-.151-.066-.197.333-.217.403-.005.726-.055.751.126.071.212.071.494.086.908.01.273-.005.263-.111.283Zm-.066-1.7c-.136.07-.645-.631-1.004-1.085-.126-.156-.58-.55-.983-.57-.611-.035-1.448 1.044-1.655 1.413-.106.161-.227.327-.403.242-.167-.106-.162-.101-.066-.379.172-.408.928-1.235 1.251-1.468.343-.322.429-.363.54-.746.055-.696.035-.863-.167-.898-.201-.02-1.099-.151-1.135.404-.03.474-.03.68-.03.872 0 .283-.02.237-.303.237-.181 0-.085-.948-.085-1.589.096-.388.333-.317.721-.348.202.02.464 0 .6 0 .323 0 .399-.166.419-.423.02-.268.051-.278.272-.313.202-.031.182.121.222.328.071.312-.035.338.419.363.389 0 .686.01.853.02.378.035.585 0 .61.58.015.489.136.948-.01 1.125-.061.076-.237.167-.363.146-.157-.085.171-1.16-.232-1.347-.242-.111-.918-.111-1.115-.015-.187.091-.111.475-.131.747 0 .217 0 .444.444.736.449.333.857.747 1.266 1.241.237.268.454.611.065.727Zm.253-6.084h-1.993c0-.277.222-.499.499-.499h1.246c.137 0 .248.111.248.247v.252Zm1.901 8.631c-.08.076-.363.116-.424.207-.06.091-.04.752 0 .792.051.055.187.02.389 0 .156-.005.207.474.091.489-.121.02-.56.071-.792.096-.247.03-.389.051-.626.046-.222 0-.217-.116-.237-.283 0-.192-.02-.257.162-.232.176.005.297.03.459-.106.116-.096.05-.343.065-.53-.005-.166.041-.322-.197-.262-.332.076-.353.131-.353-.439 0-.202-.005-.393.011-.529.02-.273-.041-.414.302-.485.146-.03.071.419.066.626 0 .202-.026.413.086.413.282.021.116-.61.136-1.145.01-.353-.061-.514.217-.565.247-.035.191.056.201.348.005.278-.01 1.231.106 1.221.232-.015.192-.822.177-.963-.005-.217-.046-.313.176-.328.172-.01.177-.02.207.171.031.202.036.394.036.545a4.03 4.03 0 0 1-.066.51c-.035.237-.111.328-.192.403Zm1.039 2.189c-.121.031-.171.026-.327 0-.111-.02-.167-.146-.258-.433a6.881 6.881 0 0 1-.156-.676c-.04-.414-.096-.747-.01-.959.04-.151.131-.378.222-.555.07-.171.136-.302.222-.605.055-.298.05-.323 0-.575-.015-.101-.086-.232-.136-.368-.081-.177-.132-.268.07-.293.298-.02.273.01.409.207.141.323.141.449.151.555.03.247.02.524-.212 1.039-.227.444-.318.631-.287 1.054.035.474.141.979.206 1.155.031.132.197.429.106.454Zm.722-.655c.091.312.292.59.161.625-.106.025-.292.01-.353-.055-.126-.136-.242-.394-.323-.802-.06-.439-.101-.717-.055-1.115.136-.595.439-.782.489-1.281.03-.318-.005-.419-.055-.555-.081-.237-.364-.606-.041-.606.202 0 .202.026.283.091.126.096.267.525.287.772.031.368-.136.736-.262 1.054-.141.363-.283.565-.283.918.026.232.051.55.152.954Zm1.15-2.25c-.161.61-.303.54-.419 1.211 0 .257.136.822.192 1.034.035.196.227.585.131.615-.096.03-.308-.02-.383-.081-.111-.086-.202-.479-.247-.615-.086-.383-.238-1.054.045-1.599.081-.177.212-.404.287-.848 0-.6-.035-.671-.121-.948-.065-.162-.151-.288-.005-.298.444 0 .389.136.515.429.081.353.091.489.005 1.1Zm-.106-2.053c-.242.086-.222-.031-.232-.374-.01-.221.02-.918-.288-1.018-.262-.127-.504-.132-.559-.051-.041.061-.026 1.286-.026 1.286.005.288-.121.243-.252.227-.247-.065-.217-.206-.212-.433.005-.232.005-1.055-.035-1.1-.035-.04-.505-.066-.585.429-.076.469-.126.782-.147.882-.01.061-.025.142-.07.157-.086.03-.262.065-.293.02-.05-.177-.005-.439.025-.736a5 5 0 0 1 .222-.808c.036-.176.515-.297.787-.413.162-.046.116-.293.066-.303-.086-.02-.404.025-.605.045-.142 0-.268.111-.374-.131-.055-.121-.08-.227.253-.247l.433-.035s.308-.01.328-.061c0-.08.015-.227.091-.348.025-.035.151-.02.227-.015.167.046.101.056.131.257.01.096-.025.121.52.106.383-.01.666-.055.651.096.005.076.005.232-.036.273-.055.055-.161.035-.343.045-.267 0-.701.015-.767.025-.04.02-.035.101-.015.182.026.06-.015.07.237.126.838.247.828.197.959.736.081.459.07.712.075.848-.005.146.056.252-.166.333Z" style="fill:#950040;fill-rule:nonzero" transform="translate(-67.415 -146.344) scale(3.49687)"/><path d="m45.342 60.775.201-.01c.106-.025.091-.182.036-.409-.066-.136-.258-.126-.444-.121-.076.005-.126.015-.106.131.075.449.096.379.313.409ZM43.581 60.8l.147-.01c.292-.02.277-.181.312-.424.015-.1-.146-.075-.307-.045-.152.03-.157.025-.187.136-.03.101-.071.313.035.343Z" style="fill:#950040;fill-rule:nonzero" transform="translate(-67.415 -146.344) scale(3.49687)"/></svg>