<svg xmlns="http://www.w3.org/2000/svg" xml:space="preserve" style="fill-rule:evenodd;clip-rule:evenodd;stroke-linejoin:round;stroke-miterlimit:2" viewBox="0 0 154 157"><path d="M48.642 55.029c.138.071.326-.026.405-.117 0 0 .374.024.463-.016.087-.039.183-.125.135-.212-.048-.087-.111-.039-.191-.047a.889.889 0 0 1-.231-.056c-.055-.023-.095-.11-.128-.117-.032-.008-.254-.05-.293-.029-.038.02-.222.174-.244.246-.023.072-.053.275.084.348Zm1.169-1.222s.139-.023.185 0c.046.023.201.174.354.144.154-.03.216-.106.231-.258.016-.152-.161-.167-.161-.167s-.27-.145-.316-.16c-.046-.015-.062-.083-.177-.061-.116.023-.123.031-.153.114-.032.084-.108.274.037.388Zm-.423.563c.055 0 .24-.023.308-.038.07-.015.085.022.115.038.031.015.063.03.178-.03.115-.061.138-.167.015-.244-.123-.076-.085.038-.238-.053-.155-.092-.162-.137-.34-.167 0 0-.084-.069-.137.03-.055.099-.094.274-.055.349.039.077.1.115.154.115Zm3.69 4.593a.3.3 0 0 0 .303-.3c0-.165-.135-.3-.303-.3a.302.302 0 0 0-.303.3c0 .166.136.3.303.3Zm-1.692-3.02c.013.089-.035.123-.097.132-.062.009-.146-.09-.16-.125-.014-.033-.036-.092-.059-.115a.522.522 0 0 0-.169-.08c-.054-.012-.068-.011-.107-.06a.285.285 0 0 1-.07-.183c.001-.067.074-.091.074-.091.049-.031.115-.003.149.012.036.015.227.241.283.287.056.047.145.137.156.223Zm-.426.669c-.039.027-.094.039-.104.007a.646.646 0 0 0-.11-.135c-.026-.026-.097-.052-.084-.148.014-.096.114-.15.114-.15.165-.079.28.042.315.177.034.136-.091.22-.131.249ZM50.54 56c-.05.1-.206.103-.275.103-.067 0-.073-.12-.056-.168.015-.048.156-.122.156-.122.189-.044.226.088.175.187Zm.604-.713c-.071-.039-.332-.244-.426-.291-.096-.048-.185-.128-.242-.174-.056-.046-.192-.108-.249-.103-.055.005-.114.04-.109.168.005.128.056.239.095.25a.84.84 0 0 1 .21.123c.021.032.08.101-.02.169a.888.888 0 0 1-.341.152c-.139.026-.297.076-.421.082-.124.004-.332-.059-.378-.104-.046-.046-.1 0-.149.034-.049.033-.126.067-.107.197.019.13.187.349.341.371.153.021.422-.048.531-.012.11.036.348.231.526.467.178.235.207.274.186.31-.022.036-.213.236-.151.378.06.142.134.21.204.171.071-.038.107-.093.202-.26.096-.166.586-.802.693-.823.106-.022.17-.008.272.137.102.144.256.4.33.429.072.029.255.074.284.086.03.013.139-.149.147-.205.007-.055.014-.214-.027-.228-.042-.015-.09-.043-.125-.039a17.994 17.994 0 0 1-.747-.797c-.12-.147-.144-.158-.071-.185.043-.027.137.092.146.096.009.006.158.148.169.19a.14.14 0 0 0 .163.097c.099-.016.148-.087.145-.188-.002-.101-.062-.195-.112-.202-.048-.007-.215-.171-.28-.239-.066-.067-.085-.101-.031-.141.053-.042.1-.024.121.009.023.034.259.438.449.488.189.051.239-.006.278-.052.039-.046.065-.135.016-.164a1.718 1.718 0 0 1-.333-.301c-.095-.122-.222-.291-.227-.339 0 0 .035-.137.027-.19-.007-.053-.087-.094-.17-.082-.083.012-.132.057-.157.062-.024.005-.073-.064-.131-.098-.059-.034-.119-.037-.156-.089-.037-.054-.007-.147-.034-.154-.027-.007-.251-.09-.305-.047a.28.28 0 0 0-.077.271c.029.117.052.156.15.188.101.031.358.168.343.281-.014.113-.163.038-.231.017-.068-.022-.173-.137-.231-.273-.058-.134-.138-.096-.181-.091-.041.005-.148.007-.138.113.01.106.081.099.085.154.005.056-.007.09.04.104.045.015.119.019.169.065.051.046.203.178.184.204-.02.027-.079.046-.149.008Zm-16.2.431c.013-.101.146-.123.146-.123.088-.022.167-.014.167.072 0 .087-.124.173-.204.173-.081 0-.124-.022-.109-.122Zm-.771-1.383c.1-.01.146-.02.125.015-.021.037-.058.207.031.207.09 0 .215-.005.23.005.016.01.057.072.084.175.026.104.041.217 0 .279-.042.062-1.154 1.414-1.154 1.414s-.074.035-.125.057c-.052.02-.089.056-.089.154s-.006.227.115.248c.12.02.235.025.302.015 0 0 .397.212.475.33.08.119.126.196.199.186.073-.01.119-.026.105-.227-.016-.201-.194-.31-.261-.356a8.294 8.294 0 0 0-.36-.216c-.032-.016-.012-.134.036-.181.047-.046.355-.527.412-.521.058.006.074.046.062.087-.01.042-.02.274.115.259.136-.015.131-.042.205-.166.072-.124.182-.196.218-.129.037.068.079.176.037.232-.042.057-.245.3-.298.326-.052.025-.166.128-.119.185.046.057.141.145.256.114.114-.031.156-.114.229-.212.072-.097.245-.438.333-.469.091-.031.226-.047.246.104.027.092-.516.597-.516.597s-.068.129.203.191c0 0 .199-.159.277-.195a.957.957 0 0 0 .209-.13c.062-.051.235-.443.146-.567-.089-.124-.167-.294-.151-.407.016-.114.125-.13.156-.135.032-.004.177-.17.177-.288 0-.119-.088-.217-.177-.212-.089.005-.161.144-.188.185-.026.042-.041.197-.126.186-.083-.01-.093-.098-.119-.186-.026-.087-.037-.185-.151-.185-.117 0-.273.088-.407.263-.136.175-.21.278-.241.33-.031.052-.125.114-.177.103-.053-.01-.016-.087.015-.139.032-.052.7-.857.721-.872.021-.015.177-.129.297-.088.121.042.151.103.204.16.052.058.172.165.224.155.053-.011.215-.145.178-.253-.037-.108-.161-.227-.235-.283a.569.569 0 0 1-.183-.227c-.021-.072-.03-.109-.109-.103-.079.005-.266.046-.297.087-.031.041-.283.357-.283.357s-.026.066-.094-.104c-.068-.171-.193-.351-.251-.376-.057-.026-.104-.026-.162-.047-.057-.021-.067-.072-.057-.118.01-.047-.084-.124-.13-.134-.047-.011-.174-.036-.277.123-.105.16-.178.284-.105.336.073.051.121.072.22.061Zm-1.347 1.368c.069.037.263.186.363.262.101.076.227.204.299.221.071.016.167-.035.213-.138.046-.103.1-.338.089-.44-.01-.101-.068-.115-.129-.111-.061.004-.094.102-.111.145-.016.043-.077.078-.115.059-.037-.019-.029-.102-.012-.151.017-.046.069-.125.048-.152-.08-.095-.133-.088-.207-.078-.072.011-.125.155-.172.176-.047.021-.032-.046-.01-.114a.694.694 0 0 0 .036-.217c-.005-.056-.136-.092-.136-.092s-.114-.017-.165.04c-.05.058-.131.316-.137.407-.007.091.077.146.146.183Zm-1.128 5.756.3.101.344-1.183-.293-.073-.132.368-1.214-.353-.123.396 1.22.362-.102.382Zm.515-2.578a.3.3 0 0 0 .303-.299.303.303 0 0 0-.607 0c0 .165.137.299.304.299Zm5.862-5.735c.13-.023.262-.228.408-.334.146-.107.416-.29.462-.221.046.069.123.471-.031.806-.154.334-.354.494-.485.516-.131.023-.3.153-.285.229.016.076.085.304.108.365.023.061.062.129.293.084.23-.046.446-.145.516-.336.069-.189.214-.418.253-1.087-.039-.456.238-.197.238-.197s.932.669 1.324.677c.393.008.617-.084.809-.548.061-.145-.039-.152-.1-.137-.062.015-1.055-.107-1.663-.334-.608-.228-.353-.35-.261-.373.108-.038.685-.152.738-.19.054-.037.208-.205.124-.41-.085-.206-.1-.183-.246-.152-.148.03-.601.136-.678.197-.078.061-.185.167-.269.175-.085.007-.208.053-.254-.061-.046-.114-.054-.464-.146-.464a.382.382 0 0 0-.339.197s.092.396.115.503c0 0 .008.076-.207.182a10.85 10.85 0 0 1-.608.282c-.085.03-.216.182-.192.304.022.121.245.349.376.327Zm14.967 7.62.731.174-.57.505.117.448.826-.788.593-.144-.11-.426-.578.159-1.104-.325.095.397Zm-19.277-5.891c.078-.069.238-.007.255.036.016.042-.01.108-.039.122a.19.19 0 0 1-.147-.007c-.047-.025-.082-.139-.069-.151Zm-.428.08c.057 0 .199.021.219.031.021.011.036.107.055.139.018.031.053.109.106.107.053-.002.127-.012.149.011.021.022.117.17.165.208.048.037.146.014.152-.044.006-.057-.025-.225.028-.255a.688.688 0 0 1 .199-.067c.061-.01.088-.047.077-.119-.01-.072-.047-.091-.103-.085-.057.006-.113.033-.132.015a.668.668 0 0 1-.078-.116.159.159 0 0 0-.131-.078c-.048 0-.108-.005-.14-.056a.302.302 0 0 1-.053-.128c-.006-.05.009-.147-.083-.149-.091-.002-.181.026-.211.071-.029.045.032.115.011.156-.021.041-.052.097-.094.11a.567.567 0 0 1-.166.018s-.082.075-.076.12c.006.045.049.111.106.111Zm11.284-2.341c.04-.048.081-.062.138-.073.057-.01.204-.057.237-.151.03-.092.03-.163-.018-.195-.048-.034-.127-.095-.091-.162.035-.066.098-.066.283-.037 0 0 .132.007.125.075-.005.068-.053.528-.202.612-.11.048-.354 0-.354 0s-.158-.022-.118-.069Zm.542-1.012c.077-.091.431.03.562.09.131.062.07.107.015.107-.053 0-.1-.022-.246-.038a.983.983 0 0 1-.324-.121c-.017-.014-.007-.038-.007-.038Zm.836.541c.05.015.126.074.115.136-.009.062-.115.107-.17.132-.057.025-.126.037-.147.076-.021.04-.009.112.04.135.048.022.075.093.06.142-.014.049-.131.099-.227.099a.232.232 0 0 1-.189-.101c-.022-.039.033-.217.059-.301.028-.085.152-.336.152-.336.063-.048.257.003.307.018Zm-2.413.759c.122.037.699.069.777.069.076 0 .7.075.723.166.023.092-.123.168-.254.153-.13-.016-.338-.123-.615-.153-.277-.03-.578 0-.585.122-.008.121.146.198.215.213.07.015.509-.068 1 .19 0 0-.1.464-.069.532.032.068.169.068.209.024a.872.872 0 0 0 .137-.336c.039-.174.102-.121.147-.105.046.014.201.143.531.174.331.03.446.084.508-.061.061-.144-.138-.198-.2-.213-.062-.015-.285-.046-.454-.121-.17-.076-.324-.152-.324-.206 0-.053.046-.106.101-.099.053.008.477.092.746.282.27.19.601.304.701.297.1-.008.292-.107.338-.243.046-.138-.17-.259-.262-.305a.628.628 0 0 0-.268-.061 1.999 1.999 0 0 1-.494-.137c-.084-.046-.115-.068-.084-.16.031-.091.161-.022.208-.022.046 0 .146.114.269.031.123-.085.108-.176.045-.229a.295.295 0 0 1-.106-.159c-.016-.061-.07-.183-.147-.222 0 0 .17-.106.177-.265 0 0-.022-.038-.138-.069-.117-.03-.139-.144-.085-.129.053.015.384.183.447.107.061-.077.107-.213.03-.275a1.138 1.138 0 0 0-.431-.212s.046-.251-.031-.296c-.077-.047-.115-.077-.169-.017-.054.062-.116.198-.231.214-.115.015-.269-.107-.376-.122-.108-.015-.232-.03-.301-.075-.069-.047-.039-.168-.093-.191-.054-.022-.154-.068-.254.031-.099.099-.168.045-.23.045s-.377-.053-.446.054c-.07.106-.116.212-.008.364 0 0 .123.031.193.031.069 0 .338 0 .284.069-.053.068-.346.037-.346.037s-.069.068-.015.198c.053.129.061.107.146.114.084.007.13.015.054.099-.077.083-.216.03-.293.03-.077 0-.277-.037-.316.114-.038.152.078.305.154.32.077.015.247-.061.247-.015s.023.114-.1.106c-.123-.008-.57-.122-.654-.129-.085-.008-.231.015-.262.16-.031.144.13.243.254.281Zm10.077 9.121-.3.035.102 1.185.315-.022-.022-.397 1.265-.13-.03-.411-1.28.136-.05-.396Zm-3.642 9.701-.301.24.62.792c.22.297.019.468-.196.449-.105-.009-.18-.093-.18-.093l-.658-.776-.299.252.76.911c.128.145.221.156.365.138.278-.034.615-.262.69-.545.08-.299-.17-.614-.17-.614l-.631-.754ZM44.68 74.46l-.439.441.212.224.263-.239.212 1.084.373-.051-.314-1.517-.307.058Zm-2.811.738c-.031.077-.113.153-.258.113-.284-.129-.104-.492.078-.483.093.003.177.072.199.235a.222.222 0 0 1-.019.135Zm.239-.419a.572.572 0 0 0-.414-.175c-.298-.016-.49.235-.495.486-.001.087.001.171.054.247.113.163.237.202.337.205.239.007.392-.245.284.081-.056.171-.149.219-.281.225a.684.684 0 0 1-.369-.081l-.028.256c-.001.016.472.191.807-.05.125-.088.263-.395.249-.704-.006-.124.015-.313-.144-.49Zm1.22-.153-.498.383.19.253.285-.217.073 1.134.359-.029-.081-1.546-.328.022Zm2.565.159.146.361 1.184-.426-.131-.369-1.199.434Zm7.565-10.827h1.586v-.433h-1.579l-.007.433Zm.987.275c-.106.016-.261.136-.31.354-.142.63-.381.445-.427.203-.043-.223.052-.43.052-.43l-.307-.012c-.017.107-.045.276-.044.469.012.141.032.36.249.524.142.106.594.212.714-.328.124-.546.382-.415.427-.188.041.207-.034.467-.034.467l.297.031c.021.002.028-.128.013-.602-.014-.515-.519-.506-.63-.488Zm-.57 2.133c-.067.191-.074.163-.074.163l-.398-.099s.035-.301.197-.377c.161-.074.342.124.275.313Zm.261-.381c0 .01-.001.015-.003.014-.002-.002-.001-.007.003-.014a.467.467 0 0 0-.191-.324c-.185-.123-.502-.111-.65.259-.135.341-.182.54-.198.655-.016.112-.007.145.01.149l1.526.401.128-.405-.609-.186s.002-.159.131-.241a.465.465 0 0 1 .202-.036c.389-.015.399-.012.399-.012l.089-.427s-.438.025-.683.078c-.094.02-.141.066-.154.089Zm-1.833 2.675.907.91-1.243-.253-.211.375 1.637.29.263-.455-1.148-1.243-.205.376Zm1.638-.484-.344-.152.234-.592-.262-.101-.243.599-.314-.13.235-.613-.257-.116-.402 1.026 1.484.578.409-1.056-.263-.108-.277.665Zm-2.537 1.994 1.294.916.241-.332-1.294-.918-.241.334Zm-.424.556.892.794-1.279-.376-.359.398 1.199 1.054.248-.282-.892-.787 1.273.368.337-.389-1.17-1.069-.249.289Zm-2.594-3.532s-.024.009-.049.096a.71.71 0 0 0-.03.291c.019.076.079.12.119.117.04-.003.12-.024.132-.123.012-.101.009-.294-.022-.321-.03-.027-.064-.075-.15-.06Zm.682-1.168c.045.003.059.003.089-.024s.051-.067.098-.086a.419.419 0 0 0 .174-.113c.042-.057.027-.094.002-.145-.024-.052-.009-.112-.033-.142-.025-.031-.071-.048-.129-.033-.058.015-.076-.015-.125.093 0 0-.051.109-.074.148-.021.039-.1.13-.103.184-.003.054.055.115.101.118Zm.779-4.085c-.034.048-.092.028-.116.021-.024-.006-.028-.024-.039-.024-.013 0-.055 0-.089-.03a.38.38 0 0 1-.083-.096c-.025-.04-.077-.109-.098-.145-.021-.036-.073-.088-.088-.106-.016-.018 0-.072.024-.117.025-.046.126-.149.126-.149.038-.033.069.006.121.019a.475.475 0 0 1 .166.087.219.219 0 0 1 .073.142c.009.051.009.151.018.229.01.079.019.121-.015.169Zm-.749.758a.189.189 0 0 1-.104.115c-.046.015-.161-.016-.174-.018a.268.268 0 0 1-.07-.106.699.699 0 0 0-.055-.139c-.018-.036-.101-.093-.128-.148-.028-.054-.052-.109-.007-.178.047-.069.135-.094.135-.094.196-.003.225.106.238.127.013.021.009.062.044.094.032.033.039.09.063.112.024.02.024.008.055.072.032.063.018.115.003.163Zm-.69-.734c-.082-.003-.113-.075-.122-.123a.136.136 0 0 1 .043-.127c.03-.024.091-.06.091-.06.015-.004.091-.03.158-.01.068.022.08.094.095.124.016.031.025.091-.038.139a.345.345 0 0 1-.227.057Zm-.221.39s-.082.06-.143.124c-.061.063-.116.105-.153.108-.037.004-.176.019-.204-.003a.195.195 0 0 1-.076-.126c-.01-.061-.016-.131.054-.142.071-.012.233-.025.285-.03.052-.007.225.03.237.051.013.021 0 .018 0 .018Zm1.977-.31a1.11 1.11 0 0 0-.073-.206.46.46 0 0 1-.055-.157c-.006-.045-.003-.082-.024-.127a17.307 17.307 0 0 1-.153-.35c-.015-.036-.015-.106-.036-.127-.021-.021-.028-.015-.044-.057-.015-.043 0-.112-.033-.13-.034-.018-.186-.036-.272-.018-.086.018-.088.003-.11.039a.732.732 0 0 1-.116.142.314.314 0 0 0-.079.1c-.022.039-.074.054-.101.078-.028.024-.07.082-.055.124.006.066.147.205.141.262-.007.058-.004.172-.059.194-.055.021-.122.024-.168-.07-.043-.045-.125-.105-.165-.181a1.567 1.567 0 0 1-.06-.305c0-.066-.022-.105-.05-.12-.027-.016-.092-.064-.113-.049-.022.015-.077.024-.07.042 0 0-.089.142-.183.221-.095.078-.269.32-.266.365.004.045.024.111.024.175a.2.2 0 0 1-.076.169c-.061.051-.22.054-.281.024-.061-.03-.122-.075-.184-.054-.061.021-.131.079-.14.151a.625.625 0 0 0 .022.223.423.423 0 0 1 .027.118c0 .03-.009.115.011.142.022.027.053.042.047.076-.006.033.018.105.044.145.023.038.072.102.085.132a.57.57 0 0 0 .088.142c.021.015.095.03.146.018.053-.012.086-.036.108-.106.021-.068.033-.159.076-.183.043-.025.195-.095.202-.143.005-.048.009-.157.042-.22.034-.064.065-.09.095-.082.03.009.089.06.091.091.003.031.059.169.068.199.009.03.006.052.031.082.024.03.076.121.082.139.007.017.04.039.061.03.021-.009.048.036.073.036.024 0 .357.021.443.002.086-.017.163-.051.165-.123.003-.072.037-.169-.002-.21-.041-.043-.083-.113-.135-.194a.502.502 0 0 1-.089-.263c0-.091.031-.184.067-.211a.16.16 0 0 1 .142-.015c.035.018.27.232.307.262.037.031.086.073.187.058.1-.015.278-.091.332-.169.056-.079-.009-.094-.015-.111Zm-2.738-.456c.166-.082.466-.181.497-.233a.736.736 0 0 0 .067-.391c-.01-.086-.051-.108-.058-.186-.005-.065-.009-.157.027-.196.061-.067.144-.064.208-.06.104.008.183.084.245.166.116.156.246.162.307.136.118-.049.104-.148.214-.14.101.009.165-.024.206-.111.039-.082.046-.218-.002-.271-.026-.028-.077-.079-.124-.15-.024-.036-.052-.074-.078-.11-.033-.051-.065-.085-.087-.121-.071-.119-.008-.127-.047-.138-.149-.045-.19.072-.179.061.008-.009.015.046.025.121.007.052.011.114.033.163.032.077.131.098.16.136.168.227-.224.304-.336.227-.225-.155-.208-.642-.701-.203-.067.061-.106.057-.196.189 0 0-.042.155.003.258.076.176.105.08.157.181.02.037.017.068.015.094-.003.067-.071.132-.14.151-.161.044-.322.098-.491.096-.098-.001-.183-.045-.276-.051-.233-.015-.222.223-.123.326.087.092.135.139.255.155.068.008.27.037.332-.014.025-.02.025-.054.087-.085Zm-6.486-3.203c-.081.008-.097-.022-.109-.052-.013-.03.142-.103.152-.109.074-.033.089.024.089.076 0 .051-.048.075-.132.085Zm-.198-.323c-.053-.013-.066-.051-.053-.076.017-.024.096-.081.096-.081.171-.064.217.014.208.057a.19.19 0 0 1-.111.115c-.048.015-.088-.003-.14-.015Zm-.488-.058c-.05.031-.099.018-.178.018-.079 0-.085-.018-.085-.042 0-.024.012-.066.061-.082.048-.014.143-.066.143-.066.046-.024.11-.075.165-.102.055-.027.212-.137.245-.151.034-.015.156-.01.202-.015.045-.007.057.02.067.045.008.024-.049.064-.076.078-.029.016-.496.287-.544.317Zm-.337-.274c-.052-.006-.079-.061-.074-.109.007-.049.098-.122.098-.122.037-.042.15-.083.181-.101.03-.019.079-.067.113-.067s.052-.019.097-.028c.046-.008.12-.051.166-.051a.435.435 0 0 0 .101-.009c.024-.005.07-.042.121-.03.053.012.07.07.049.106-.021.036-.093.036-.125.036-.029 0-.104.051-.134.079-.031.027-.11.065-.138.087-.027.022-.247.124-.302.157-.055.033-.101.058-.153.052Zm1.808.567c-.048.006-.351.009-.372.006a.133.133 0 0 1-.082-.073c-.012-.036-.003-.168-.006-.235-.004-.067.012-.121-.04-.127-.052-.006-.091.021-.101-.044-.01-.067-.002-.949-.002-.949s-.056-.061-.093-.048a.112.112 0 0 0-.066.048.123.123 0 0 1-.084.039.218.218 0 0 0-.11.043c-.015.017-.106.033-.133.029-.029-.003-.064.043-.093.061-.027.018-.122.015-.171.042-.048.028-.195.091-.217.103-.021.012-.055.021-.079-.003s-.046-.064.028-.142c0 0 .311-.163.391-.196.079-.034.17-.079.207-.084.037-.007.123.008.194-.037.069-.045.17-.097.189-.178.018-.082-.037-.124-.071-.139a.54.54 0 0 0-.284.027c-.128.042-.62.26-.853.359-.232.1-.684.339-.779.372-.094.033-.354.205-.387.293-.034.087-.01.136.07.242.079.105.211.337.251.41.039.072.173.299.213.374.039.076.189.332.209.398.017.067.075.191.081.318.007.126.007.25-.002.305-.01.053-.052.153.005.241.058.087.092.108.116.102.026-.005.098-.024.132-.175a1.34 1.34 0 0 0 .025-.467 1.957 1.957 0 0 0-.16-.589c-.082-.166-.193-.399-.256-.489a2.487 2.487 0 0 0-.205-.242c-.034-.033-.064-.13-.057-.214.005-.085.048-.135.118-.19a1.64 1.64 0 0 1 .269-.178c.043-.013.128-.018.147.021.017.039.024.093-.013.12-.036.028-.14.107-.14.142 0 .036-.03.209.012.261.043.051.143.208.175.238.03.03.045.093.082.16a.284.284 0 0 0 .184.123c.044.004.078.01.115-.018.037-.026.068-.081.113-.069.046.012.074.023.07.067-.002.042-.011.147.016.168.027.021.06.037.11.033.05-.003.211-.003.22.061.009.064-.019.1-.071.124-.051.024-.131.027-.168.063-.037.036-.143.108-.116.187.028.079.126.133.168.13.043-.003.101-.07.162-.13a.621.621 0 0 1 .227-.115c.042-.012.15-.02.159.019a.583.583 0 0 1-.009.232.323.323 0 0 1-.101.145.28.28 0 0 1-.169.069c-.045 0-.082.046-.121.088-.041.042-.077.109-.037.181.039.072.106.094.13.109.024.015.061.056.138.033a.504.504 0 0 0 .251-.184c.073-.103.129-.197.146-.23.019-.033.077-.118.071-.208-.006-.09-.025-.218-.01-.287.016-.069.052-.096.095-.132.043-.036.095-.082.138-.091a.867.867 0 0 1 .15-.015c.039 0 .054 0 .088-.031.034-.03.052-.069.067-.099.015-.03.028-.106.009-.136-.018-.03-.033-.048-.083-.042Zm3.938 10.419c.073-.007.124-.09.105-.126-.018-.036-.076-.091-.081-.119-.002-.029-.028-.188-.036-.246-.007-.058-.029-.086-.116-.079-.088.007-.084.05-.084.079 0 0-.008.145.033.274.04.131.105.224.179.217Zm-1.283.462c.018.022.058.072.102.072.044 0 .132.026.161-.046.029-.072.04-.155.008-.203-.034-.047-.14-.169-.202-.119 0 0-.073.065-.069.101.003.036-.019.174 0 .195Zm-.692-.101c.049.012.14-.118.14-.118.168-.178.288-.239.343-.239.055 0 .124 0 .184-.047.058-.047.336-.039.383-.036.048.004.129.137.216.184.087.047.12.011.161-.028.039-.041.021-.156.025-.203.003-.047.007-.101.036-.127.029-.024.015-.125.015-.176 0-.051-.051-.048-.085-.048-.032 0-.053.023-.072.055a.273.273 0 0 1-.11.097.61.61 0 0 1-.208-.061 1.541 1.541 0 0 0-.325-.051c-.04 0-.191.051-.293.079-.102.03-.15.088-.186.109-.037.022-.099.105-.131.13a.25.25 0 0 0-.078.097.52.52 0 0 1-.076.131c-.022.017-.048.047-.044.129.003.084.059.112.105.123Zm-12.55-6.302c.183-.53.425-.37.445-.14.017.21-.088.46-.088.46l.294.064c.019.004.042-.124.08-.596.042-.514-.461-.561-.572-.556-.108.005-.275.106-.347.316-.213.611-.43.401-.448.155-.018-.226.1-.421.1-.421l-.305-.047c-.027.105-.075.27-.095.461-.003.142-.008.362.191.549.127.121.565.277.745-.245Zm14.465 6.404c.127-.007.099.137.101.17.004.033-.157.119-.233.17-.077.051-.435.259-.527.307-.09.046-.478.231-.536.231-.06 0-.099-.065-.055-.158a.458.458 0 0 1 .251-.217c.085-.022.352-.185.48-.24.127-.053.222-.076.292-.133.069-.058.227-.13.227-.13Zm.347.535c.018.109-.041.148-.059.17-.018.021-.084.024-.131.047a.366.366 0 0 0-.121.104c-.018.026-.081.04-.186.087a.858.858 0 0 1-.257.134c-.04.01-.061.032-.141.058-.082.024-.154.05-.201.06a.246.246 0 0 0-.136.088c-.048.053-.143.111-.176.111s-.058-.018-.069-.105c-.011-.086.062-.183.099-.216.036-.033.109-.037.138-.037.03 0 .055-.057.107-.089a.482.482 0 0 1 .156-.069c.045-.007.377-.191.425-.213.047-.021.094-.087.127-.116.033-.028.173-.116.173-.116.164-.05.233-.006.252.102Zm.23.56c.004.133-.15.206-.252.244-.102.04-.3.131-.376.167-.078.037-.242.108-.311.144-.07.037-.194.146-.322.186-.127.039-.26.046-.288-.085-.03-.129.109-.19.149-.19.04 0 .15-.068.223-.077.073-.006.12-.061.139-.086.018-.026.095-.062.15-.097.054-.037.216-.123.285-.159.069-.036.259-.119.259-.119.15 0 .183-.069.26-.087.076-.019.08.025.084.159Zm-1.345-.95c-.058.029-.201.029-.234.029 0 0-.048.069-.12.155a3.109 3.109 0 0 1-.289.3c-.026.011-.077.018-.092.058a.304.304 0 0 0-.003.173c.018.058.054.083.058.137.003.054.011.162.011.202 0 .04-.019.141 0 .152a.524.524 0 0 1 .102.133c.018.041.037.115.048.16.011.043.032.18.077.262.044.084.171.323.281.326.109.004.277-.08.336-.1.059-.022.534-.193.548-.193.015 0 .227.127.264.138.037.011.073.033.077-.025.002-.058-.045-.252.021-.311.066-.058.578-.517.622-.563.043-.047.025-.076-.008-.123a4.23 4.23 0 0 1-.237-.401 1.716 1.716 0 0 0-.165-.292c-.047-.062-.15-.175-.204-.271-.055-.098-.128-.296-.176-.329-.048-.032-.109-.075-.138-.062-.03.015-.049.047-.092.087-.044.04-.219.116-.347.188-.128.072-.281.142-.34.17Zm4.174-2.743c.011-.093-.176-.234-.176-.234-.036-.039-.094-.095-.133-.095-.04 0-.067-.076-.076-.109-.01-.033-.035-.12-.067-.175a2.895 2.895 0 0 1-.226-.483 1.28 1.28 0 0 1-.086-.492c.004-.124-.028-.166-.028-.166s-.186-.07-.268.024c-.104.173-.022.401.036.538.057.135.199.259.253.331.056.073.093.188.053.263-.04.076-.214.07-.294.036a3.031 3.031 0 0 1-.411-.268c-.017-.022-.148-.015-.169-.015-.021 0-.046-.031-.086-.049-.039-.018-.079-.042-.103-.048-.025-.007-.064.015-.092.055-.027.039-.099.095.006.258.103.164.199.191.342.231.144.039.33.105.424.13.096.023.212.035.263.017.052-.017.074-.03.147-.011.073.017.064.129.058.192-.006.064-.092.113-.125.107-.034-.005-.105-.053-.143-.053a.493.493 0 0 0-.159.043c-.05.021-.204.005-.297-.006s-.253.039-.395.103c-.143.065-.198.179-.225.321-.028.14.01.216.065.249.055.032.078-.022.126-.054.05-.033.105-.13.188-.147.081-.016.323-.108.389-.135.066-.027.225-.076.33-.076.104 0 .286-.038.324-.055.039-.016.115-.071.154-.08.039-.011.225.021.296.031.072.011.094-.086.105-.178ZM35.168 62.57c.006.015.077.114.101.151.024.036.046.072.098.072.052 0 .077 0 .098-.057.022-.058.037-.154.049-.223.012-.07.052-.142.052-.218 0-.075.021-.16-.04-.214-.061-.054-.132-.094-.248-.042 0 0-.051.03-.045.057a.427.427 0 0 1-.031.178c-.024.052-.036.079-.07.088-.034.009-.061.042-.047.072.016.031.077.121.083.136Zm14.736 2.862c-.046-.022-.159 0-.159.051s-.027.387-.046.528a.812.812 0 0 1-.118.357c-.072.108-.319.522-.353.595a3.365 3.365 0 0 1-.158.283c-.028.039-.046.097-.046.097s-.055.114-.061.156a.383.383 0 0 1-.056.158c-.027.03-.103.172-.109.196a.395.395 0 0 0 .024.166c.025.084.095.214.147.203.052-.013.14-.125.174-.197.033-.072.07-.196.098-.248.027-.051.107-.163.146-.241.04-.079.105-.19.12-.263.015-.072.042-.12.085-.199.043-.078.171-.384.221-.483a.926.926 0 0 0 .099-.306 2.76 2.76 0 0 1 .068-.343c.025-.076.055-.133.034-.242-.022-.109-.065-.247-.11-.268Zm-18.19 2.22-.247.086.084.232-.345.131s-.104-.142-.117-.331a.471.471 0 0 1 .047-.23c.134-.32.562-.4.86-.221.3.194.257.715.265.714l.298-.049s-.043-.444-.19-.696c-.196-.337-.466-.482-.731-.486a1.174 1.174 0 0 0-.457.112c-.098.042-.17.11-.283.242-.015.019-.294.346-.003.977.166.361.222.399.222.399l.851-.313-.254-.567Zm12.105 2.11c.117-.109.131-.22.186-.344.055-.121.055-.216.055-.216-.036-.068-.116-.036-.146-.022a.28.28 0 0 0-.102.127c-.011.043-.055.065-.07.065-.014 0-.036.037-.069.064-.033.03-.029.073-.036.106-.008.032-.051.086-.088.148-.037.061.026.137.044.159.018.021.109.021.226-.087Zm-11.864-3.948-1.199.21 1.119-.766-.074-.512-1.57.245.051.354 1.17-.173-1.097.73.073.52 1.579-.225-.052-.383Zm-.175-2.058-1.586-.007-.008.434 1.587.006.007-.433Zm2.84 7.409-.244-.304-.693.566c-.423.345-.704-.078-.558-.266.222-.285.607-.481.886-.732l-.236-.332s-.817.656-.846.7c-.029.042-.372.27-.119.741.309.568.825.376 1.029.231.203-.144.781-.604.781-.604Zm-1.349-1.868-.518.28-.256-.411.526-.332-.198-.361-1.373.788.197.353.577-.304.233.441-.555.317.191.377 1.366-.795-.19-.353Zm4.369-7.759a.282.282 0 0 0 .03.114c.015.021.004.079-.017.106-.021.027-.021.073-.086.085-.064.012-.116.015-.125.057a.943.943 0 0 1-.071.214c-.027.04-.073.085-.076.115-.003.03.012.166-.003.193-.015.027-.04.06-.134.067-.096.006-.169-.049-.223-.04-.055.01-.205-.042-.226-.036a.883.883 0 0 1-.19.006c-.065-.006-.119-.015-.141-.039a.652.652 0 0 0-.125-.118c-.025-.006-.217-.072-.248.064 0 0 .007.039-.024.057a.133.133 0 0 0-.064.099c-.009.052-.043.202-.021.284.021.082.104.224.106.248.003.024.056.036.117.027.06-.009.153-.009.15-.082-.004-.072-.013-.226.015-.253.027-.028.037-.048.116-.06.079-.012.41.002.442.012a.634.634 0 0 1 .191.144c.035.049.177.251.256.291.079.038.168.066.238.026.07-.039.076-.148.076-.208a.612.612 0 0 0-.039-.205c-.021-.048-.052-.103-.025-.13.028-.027.074-.015.101-.018.028-.003.094-.049.098-.085a.23.23 0 0 0-.043-.151c-.037-.042-.092-.054-.076-.093.015-.039.082-.166.138-.175.055-.009.289.018.348-.006.057-.024.088-.082.122-.106.034-.024.061-.013.14-.091.08-.078.226-.235.257-.346.03-.112.009-.297-.037-.357-.046-.061-.064-.091-.125-.132a.665.665 0 0 1-.159-.14c-.015-.03.006-.084-.031-.105-.036-.021-.076-.051-.158-.015-.083.036-.193.084-.189.187.003.103.085.184.128.193.042.009.179-.012.208.019.027.029.097.063.061.253-.037.19-.086.226-.138.268a.259.259 0 0 1-.223.04c-.073-.024-.107-.07-.073-.113.033-.041.137-.116.141-.159.002-.043-.022-.084-.086-.082-.064.003-.172-.024-.242.028-.069.051-.064.109-.061.148Zm-2.79 11.173-.277-.274.533-.296-.256.57Zm-1.191-.237.292.274.322-.166.446.426-.153.318.32.304.666-1.56-.366-.362-1.527.766Zm1.842-5.944c.094-.051.109-.123.029-.181-.081-.058-.183-.195-.263-.202-.081-.007-.19.043-.197.108 0 0-.037.109.11.218.145.108.226.108.321.057Zm10.573-8.452c-.021.017-.092.011-.115-.004-.025-.015-.077-.021-.098-.03-.022-.008-.113 0-.156-.008-.043-.01-.077.006-.119.008-.043.004-.154-.124-.178-.148-.024-.024-.092-.041-.141-.036-.048.006-.09-.027-.125-.046-.033-.017-.116-.008-.165-.002a.269.269 0 0 1-.152-.031c-.033-.021-.195-.041-.268-.06-.074-.017-.133-.088-.154-.13-.021-.042-.018-.121.021-.144.04-.025.16-.093.172-.104.042-.036.174-.005.275 0 .1.006.213.076.263.092.048.015.1.02.14-.006.04-.028.07-.022.11-.007a.956.956 0 0 1 .177.106c.052.039.227.121.306.182.079.059.159.102.182.132.025.031.064.061.081.124.015.063-.034.093-.056.112Zm-.161.479a.615.615 0 0 1-.165.169c-.043.022-.12-.012-.12-.012s-.03-.036-.115-.057c-.142-.009-.328-.144-.361-.16-.034-.015-.175.003-.247.003-.074 0-.267-.015-.316-.018-.049-.003-.156-.096-.195-.126-.039-.03-.147-.118-.147-.118s-.03-.043.027-.103c.059-.061.205-.092.224-.094.036-.003.241.033.262.045.021.013.086.063.123.088.036.024.073.036.104.048.03.012.097.016.165.019a.934.934 0 0 1 .212.027c.05.014.152.063.203.084.052.022.153-.006.199-.003.045.003.083.019.122.078.04.061.04.094.025.13Zm-.327.668c-.028 0-.043.039-.04.072.003.033-.045.063-.08.087a.36.36 0 0 1-.159.04c-.06.006-.112.024-.173.024a.549.549 0 0 1-.209-.058 33.285 33.285 0 0 0-.607-.271.222.222 0 0 1-.132-.133c-.018-.045-.055-.124-.046-.187.01-.063.11-.121.11-.121.083-.024.159.024.193.036.034.012.04.03.058.03.018 0 .049.025.095.028.046.003.183.003.213.003.031 0 .2.024.224.027.024.003.073.055.103.055.031 0 .083.018.107.02.024.004.047.021.108.018a.482.482 0 0 1 .22.058c.054.033.067.075.072.154.008.078-.03.118-.057.118Zm.599-1.685c-.087-.072-.125-.148-.209-.184-.081-.036-.113-.052-.228-.049-.117.004-.162-.09-.192-.141-.032-.052-.07-.109-.054-.142.02-.033.047-.103.059-.133.012-.03.079-.054.049-.111-.031-.058-.076-.067-.101-.04 0 0-.04.042-.095.058a.209.209 0 0 0-.11.075c-.014.021-.063.111-.131.154-.067.042-.109.069-.214.051-.104-.018-.119-.006-.167-.036-.049-.03-.083-.064-.133-.064-.049 0-.262.028-.393.091-.132.063-.174.097-.181.157-.006.06-.03.247-.039.329a6.6 6.6 0 0 1-.048.323c-.016.079-.032.206-.059.259a.292.292 0 0 0-.034.178l.021.17a.318.318 0 0 1-.042.202.549.549 0 0 0-.061.293c.009.078.07.154.086.19a.51.51 0 0 0 .091.133c.033.036.083.121.103.157.022.036.038.048.068.048.03 0 .098-.009.156.006a.87.87 0 0 0 .167.033.69.69 0 0 1 .215.091c.03.024.051.027.083.024.03-.003.084-.006.097.012.012.018.024.064.11.051.085-.012.208-.027.217 0 .009.028.042.07.119.04.077-.03.37-.22.418-.29.05-.069.08-.19.073-.268-.005-.079-.023-.113.019-.143a.432.432 0 0 0 .178-.235c.033-.129.042-.187.107-.217.063-.03.161-.055.161-.115 0-.06.01-.163.031-.232.021-.07.1-.146.1-.191 0-.045.028-.19-.051-.305-.08-.114-.101-.157-.186-.229Zm-3.523 7.664 1.684 1.211-.629-1.969 1.716-1.274h-2.1l-.65-1.99-.682 1.979h-2.078l1.673 1.264-.64 1.98 1.706-1.201Zm-5.313 1.195c.037.029.08.058.065.116-.014.057-.087.086-.168.043-.08-.043-.08-.151-.08-.151.095-.109.146-.036.183-.008Zm.102-.26c.066-.029.088 0 .153.051.066.051.089.144.051.188-.036.043-.131.035-.204-.073-.073-.108 0-.166 0-.166Zm.307.729c-.015.059-.052.088-.103.088s-.131-.073-.124-.145c.008-.072.088-.094.088-.094.059-.014.154.094.139.151Zm.102-.367c.242.014.175.202.117.216-.058.015-.132 0-.167-.108-.037-.108.05-.108.05-.108Zm-2.076-.268c.073.151.103.195.066.319 0 0-.161.23-.22.273-.058.043-.051.21.023.231.073.022.102 0 .145-.079.045-.08.147-.224.206-.224.058 0 .153.015.204.08.051.064.358.318.264.426-.095.108-.161.043-.198.043-.036 0-.102-.101-.168-.115-.066-.015-.322.064-.308.245.016.18.089.173.089.231 0 .058.029.166.109.166.081 0 .235-.087.285-.087.052 0 .161 0 .271.116.109.115.29.061.23 0-.021-.02.01-.1-.048-.141-.19-.126-.153-.277-.146-.223-.01-.082.236-.007.411.233.172.237.104.148.254.281.155.138.318-.059.251-.233-.072-.18-.063-.043-.244-.173-.298-.215-.463-.348-.4-.474.05-.101.202.019.332.193.135.18.32.027.261-.056-.055-.079-.145-.302.013-.143.054.055.076.124.108.155.101.092.143.059.171.025.036-.043.305-.411.409-.475.103-.065.086-.189.078-.224-.006-.037-.13-.153-.13-.153s.051-.086.102-.051c.051.036.242.21.242.21s.182-.087.146-.145a1.993 1.993 0 0 0-.183-.21c-.052-.05-.081-.086-.029-.129.051-.043.146-.08.146-.21s-.03-.173-.117-.167c-.088.008-.146.124-.227.124-.08 0-.169.007-.205-.051-.036-.058-.095-.13-.153-.101-.058.028-.154.087-.11.13.044.044.176.159.11.209-.066.051-.205.015-.234-.036-.03-.05-.088-.079-.226-.05a1.145 1.145 0 0 0-.403.188c-.095.072-.212.116-.161.21.051.093.183.223.183.281 0 .057-.036.094-.109.057-.074-.035-.162-.151-.19-.144-.03.007-.125.116-.088.138.037.021.183.165.146.245-.037.08-.139.036-.198-.065-.057-.101-.167-.289-.226-.325-.059-.036.072-.137.131-.194.059-.059.447-.449.541-.636 0 0 .352.02.614-.144.263-.167.169-.276.125-.276a.324.324 0 0 0-.212.073c-.073.064-.175.072-.175-.008a.67.67 0 0 1 .109-.339c.08-.123.234-.245.095-.282-.139-.036-.358.072-.358.072s-.052.009-.052.115c0 .11-.014.341-.167.449-.154.108-.242.08-.315.072-.073-.007-.234-.094-.321-.064-.089.028-.227.085-.198.172.03.087.096.087.204.094.11.007.366-.007.249.174-.116.181-.357.39-.423.405-.067.013-.103-.073-.169-.174-.065-.101-.212-.506-.366-.491-.153.014-.211.108-.159.202.051.094.24.304.313.455Zm.345-4.895c.003-.043.077-.055.077-.055.055 0 .095.006.116.043.021.036.018.16.003.202-.015.042-.064.066-.123.03-.058-.036-.076-.178-.073-.22Zm.278-.529c.056-.026.102.027.12.051.018.025.107.004.137 0 .03-.002.04-.068.064-.075.025-.006.092-.07.113-.081.021-.012.043-.057.082-.042.041.015.047.039.047.066 0 .027-.043.175-.074.254-.03.078-.119.184-.143.229-.025.045-.059.088-.059.148s-.017.097-.064.151c-.045.054-.082.075-.101.072-.017-.003-.024-.088-.009-.133.017-.045-.002-.214.004-.247.005-.033-.043-.063-.083-.115a.873.873 0 0 1-.11-.193c-.006-.03.076-.085.076-.085Zm.183-.407c.01-.064.077-.091.077-.091.071-.012.119.013.147.043.027.03.015.135-.009.165-.025.031-.126.031-.165.016-.04-.016-.059-.07-.05-.133Zm-1.096 1.346c.125.039.15-.039.161-.066.013-.027.08-.112.074-.157a.366.366 0 0 1 .037-.161c.017-.035.079-.15.091-.198.013-.048.007-.1.013-.157.006-.058-.025-.142.036-.151.061-.009.092.018.092.051 0 .034.018.163 0 .193s-.046.052-.046.085c0 .033-.015.127-.027.172a2.102 2.102 0 0 0-.046.232c0 .03-.009.112.027.133.036.021.059.042.092.042.034 0 .098.012.141.012.042 0 .083.03.128.022.046-.01.068-.018.082.006a.18.18 0 0 0 .135.078c.07.003.089.009.104-.021s.021-.051.058-.055c.037-.002.073 0 .092-.024.018-.024 0-.078.051-.135.052-.058.052-.067.101-.058.048.009.055.046.055.076s-.015.051-.003.063c.012.012.053.048.049.078-.003.031-.003.109.03.127a.395.395 0 0 0 .128.024c.015 0 .032.006.041-.054.008-.06.021-.118.055-.151.033-.033.091-.096.091-.145 0-.048.05-.117.068-.169.018-.051.079-.145.115-.202.037-.057.093-.127.122-.211.032-.084.026-.16.047-.191.021-.029.097-.084.088-.138-.009-.054-.043-.113-.103-.106-.061.007-.172.045-.196.082-.024.036-.034.072-.049.118a1.508 1.508 0 0 1-.116.247 1.834 1.834 0 0 0-.156.272c-.003.03-.028.153-.012.169.015.014-.055.06-.083.075-.028.015-.073.048-.112-.018-.04-.067-.019-.093.005-.148.025-.054.098-.232.141-.314.042-.081.156-.193.177-.311.021-.117.025-.226.027-.283.004-.058.007-.086-.036-.115-.042-.03-.101-.152-.19-.215-.088-.063-.177-.13-.234-.138-.059-.01-.172-.04-.245.06-.074.099-.137.212-.207.305-.071.093-.084.154-.123.184-.04.03-.037.045-.116.045-.08 0-.113-.015-.125-.078-.012-.064.009-.088.039-.124.031-.036.11-.099.127-.151.013-.051.029-.136.048-.178.018-.043 0-.091-.019-.133-.018-.042-.067-.042-.125-.033-.058.009-.128.063-.128.096 0 .034-.006.015-.006.015s-.043.178-.105.3a1.15 1.15 0 0 1-.213.29c-.05.038-.104.087-.111.117-.006.03-.006.202-.021.266-.015.063-.046.138-.057.205-.013.066-.029.136-.044.202-.015.067-.061.178-.052.205.009.027.012.103.138.142Zm3.602 8.19c.226.029.468.153.468.153s.205.108.233.194c.008.145-.109.246-.139.289-.029.043-.079.073-.094.159-.016.087-.161.181-.191.231-.029.051.051.167.139.252.088.088.096.088.146.037.051-.05.103-.26.169-.411.065-.152.299-.607.299-.607.037-.087-.117-.268-.117-.326 0-.057.059-.158.183-.267.125-.108.358-.224.416-.289.059-.066.052-.087-.051-.13-.102-.043-.314.073-.388.13-.072.058-.197.239-.292.34-.095.101-.145.094-.204.043-.057-.051-.065-.115.007-.195a3.14 3.14 0 0 1 .322-.29c.066-.042.249-.244.307-.266a.342.342 0 0 0 .169-.13c.058-.079.006-.13-.074-.152-.08-.021-.22.073-.278.124-.058.049-.139.136-.205.194-.065.058-.379.383-.446.441-.066.058-.161.101-.227.05-.065-.05-.057-.122-.006-.281.051-.158.358-.463.46-.549.103-.087.388-.166.607-.224.219-.058.198-.122.169-.217-.03-.093-.191-.093-.571.043-.38.138-.87.622-.87.622s-.176.144-.183.223c-.006.167-.117.261-.219.355-.102.093-.072.123.015.231.087.108.219.194.446.223Zm1.322.788c.008.094-.072.267-.109.275-.037.007-.081.079-.081.144 0 .065.015.166.015.166s.022.173.051.181c.03.007.132.035.213-.101.08-.138.029-.268.16-.455.102-.074.161-.058.212-.022.052.036.073.036.073.108 0 .072 0 .238-.007.297-.008.057.036.129.081.151.043.022.058.086.101.05.045-.036.051-.129.096-.274.044-.144.131-.296.19-.361s.087-.202-.007-.231c-.095-.03-.322-.072-.38-.095-.059-.021-.125-.165-.074-.324.052-.159.132-.275.198-.297a.684.684 0 0 1 .259-.008c.067.011.171.028.271-.064s.112-.181.05-.225c-.061-.045-.1-.045-.185-.045-.086 0-.248-.014-.286-.037-.038-.024-.069-.116-.033-.194.036-.078.238-.303.278-.352.041-.05.126-.153.057-.254-.069-.102-.111-.111-.243-.099 0 0-.176.224-.205.296-.029.073-.109.195-.139.347-.029.151-.05.375-.102.462-.052.087-.081.253-.118.303-.036.051-.189.311-.233.369-.043.058-.11.195-.103.289Zm-3.281-.396s-.023-.074-.092-.168a.474.474 0 0 0 .223-.283c.181-.066.266-.152.361-.361a.55.55 0 0 0 .375-.35c.23-.064.341-.335.348-.344.268-.113.35-.35.359-.355.258-.101.371-.349.38-.353.26-.115.228-.257.382-.344.177-.098.261-.252.33-.338.042-.054.18-.097.261-.187.007 0 .015.006.022.006.04.157.222.293.43.307.059.117.298.237.462.237.1.088.255.189.483.17.067.073.339.208.499.104a.518.518 0 0 0 .342.1c-.057.191-.038.347.008.437-.025.083-.095.309.003.503-.078.199-.062.307.014.492-.047.106-.105.263-.004.526a.732.732 0 0 0-.013.517c-.032.102-.099.286.017.49-.022.072-.109.212.002.498a.65.65 0 0 0-.007.505.446.446 0 0 0-.033.183 1.114 1.114 0 0 0-.539.023s-.218-.184-.722-.103c0 0-.178-.207-.712-.177 0 0-.208-.247-.695-.233 0 0-.19-.26-.646-.296 0 0-.218-.291-.649-.358 0 0-.229-.32-.607-.39 0 0-.135-.293-.582-.458Zm.399 1.305a.689.689 0 0 1-.446-.369c-.081-.172.036-.554.055-.618.019-.063.017-.166.017-.166.121.042.211.132.331.24.121.107.061.545.041.665-.019.12.002.248.002.248Zm-.554-1.54a.957.957 0 0 0-.223-.172c-.018-.025-.031-.047-.056-.078a.395.395 0 0 0-.12-.092.784.784 0 0 0-.062-.109l.032-.03c.07-.048.103-.041.129-.037.078.008.218.105.315.192.014.012.2.138.214.1-.035.048-.082.142-.158.197-.021.015-.046.021-.071.029Zm-.075.802c-.027.122-.016.253-.016.253-.177-.047-.338-.217-.403-.392-.064-.175.075-.547.099-.609.023-.061.027-.159.027-.159.111.044.19.134.297.245.108.109.024.542-.004.662Zm-.585-.519c-.037.118-.039.25-.039.25-.173-.064-.317-.248-.364-.429-.048-.18.127-.537.157-.596.028-.059.042-.156.042-.156.106.054.176.151.273.271.096.119-.03.543-.069.66Zm-.535-.564c-.05.114-.064.246-.064.246-.165-.081-.29-.279-.319-.463-.03-.184.18-.522.215-.578.034-.056.058-.152.058-.152.1.065.16.169.244.298.084.128-.083.536-.134.649Zm-.562-.388c-.159-.093-.268-.3-.283-.486-.015-.186.221-.506.261-.56.038-.053.069-.146.069-.146.095.072.146.18.221.314.072.135-.126.529-.185.638a.98.98 0 0 0-.083.24Zm-.442-.676c-.149-.105-.241-.319-.241-.506.001-.186.262-.487.304-.537.044-.049.083-.141.083-.141.088.08.131.192.193.331.063.141-.168.517-.235.622a1.015 1.015 0 0 0-.104.231Zm-.381-.698c-.139-.119-.21-.342-.191-.528.017-.184.307-.46.355-.506.047-.045.094-.132.094-.132.081.087.112.203.161.348.05.145-.217.499-.294.596-.077.098-.125.222-.125.222Zm-.324-.737c-.127-.13-.179-.356-.145-.541.033-.182.342-.433.392-.475a.612.612 0 0 0 .106-.122c.071.093.092.211.128.359.038.148-.254.479-.339.569-.085.091-.142.21-.142.21Zm-.247-.753c-.113-.142-.142-.373-.091-.553.049-.178.376-.399.43-.435a.668.668 0 0 0 .114-.113c.062.1.072.22.093.37.021.152-.296.454-.387.535-.091.083-.159.196-.159.196Zm-.244-1.331c.063-.174.41-.373.468-.406.057-.032.124-.104.124-.104.057.103.059.224.07.376.013.152-.332.431-.43.506-.099.078-.175.186-.175.186-.106-.149-.121-.381-.057-.558Zm-.065-.792c.079-.167.44-.331.5-.357a.681.681 0 0 0 .132-.092c.044.108.036.228.032.38-.003.154-.37.397-.473.463-.105.067-.191.166-.191.166-.09-.158-.08-.39 0-.56Zm0-.797c.092-.16.462-.293.523-.315.061-.021.138-.081.138-.081.037.113.018.231.002.382-.017.153-.397.366-.507.422a.925.925 0 0 0-.201.151c-.076-.166-.048-.397.045-.559Zm.056-.8c.106-.152.494-.255.558-.272a.726.726 0 0 0 .148-.069c.027.114-.001.231-.03.38-.029.152-.434.333-.549.381a.987.987 0 0 0-.218.134c-.063-.171-.017-.4.091-.554Zm.137-.78c.115-.144.502-.216.566-.228.063-.012.148-.059.148-.059.019.117-.019.231-.057.378-.04.148-.45.298-.565.337-.117.04-.223.116-.223.116-.049-.175.015-.399.131-.544Zm.215-.786c.132-.128.526-.151.592-.155.063-.003.155-.038.155-.038.003.118-.047.226-.105.366-.058.142-.485.239-.604.263-.121.025-.237.088-.237.088-.026-.18.064-.394.199-.524Zm.256-.735c.143-.119.544-.115.61-.115.066.001.161-.028.161-.028-.003.119-.064.222-.13.36-.068.137-.509.205-.632.221-.124.016-.246.072-.246.072-.015-.182.091-.389.237-.51Zm.337-.727c.154-.105.546-.062.611-.055.065.008.159-.012.159-.012-.015.117-.083.216-.163.345-.08.13-.518.154-.641.159a.939.939 0 0 0-.247.046c.002-.183.128-.378.281-.483Zm.402-.695c.159-.093.547-.019.611-.007.064.012.161 0 .161 0-.025.116-.1.208-.189.332-.091.123-.527.114-.65.108-.123-.006-.25.028-.25.028.017-.181.156-.367.317-.461Zm.452-.649c.166-.079.548.027.612.044.062.017.159.013.159.013-.035.113-.117.2-.217.314-.099.116-.535.07-.658.054-.122-.016-.252.006-.252.006a.645.645 0 0 1 .356-.431Zm.514-.62c.173-.064.542.075.603.098a.659.659 0 0 0 .159.028c-.044.109-.134.188-.243.293-.109.107-.539.023-.658-.005-.122-.026-.252-.016-.252-.016.047-.175.217-.334.391-.398Zm.559-.569c.179-.053.545.109.605.135a.65.65 0 0 0 .159.037c-.052.107-.148.18-.265.278-.118.1-.548-.011-.668-.045s-.253-.031-.253-.031c.058-.172.239-.32.422-.374Zm.648-.51c.175-.028.499.174.552.208a.583.583 0 0 0 .144.056c-.062.096-.16.155-.282.236-.123.082-.513-.081-.621-.128-.108-.049-.234-.063-.234-.063a.617.617 0 0 1 .441-.309Zm.647-.454c.178-.013.486.21.538.246.05.037.14.067.14.067-.07.089-.174.138-.303.206-.13.07-.51-.119-.614-.175-.105-.056-.23-.08-.23-.08.09-.149.29-.251.469-.264Zm.669-.383c.182.004.472.26.52.302a.641.641 0 0 0 .136.081c-.08.084-.19.123-.328.179-.138.058-.502-.17-.603-.237-.1-.067-.224-.104-.224-.104.106-.141.317-.225.499-.221Zm.689-.373c.186.016.466.307.513.355a.61.61 0 0 0 .132.095c-.088.084-.205.118-.351.171-.147.052-.505-.215-.602-.291-.1-.079-.225-.125-.225-.125a.656.656 0 0 1 .533-.205Zm.802-.242c.186.027.441.337.482.388.042.051.126.105.126.105-.096.077-.216.104-.367.146-.152.043-.488-.247-.58-.331-.093-.084-.214-.139-.214-.139a.675.675 0 0 1 .553-.169Zm.732-.237c.18.047.402.382.438.438a.664.664 0 0 0 .114.116c-.104.068-.226.081-.381.108-.156.025-.459-.299-.542-.392a.93.93 0 0 0-.198-.161.673.673 0 0 1 .569-.109Zm.791-.146c.177.064.364.418.395.476a.632.632 0 0 0 .102.127c-.109.058-.231.06-.389.072-.158.011-.429-.339-.501-.44-.074-.101-.183-.179-.183-.179a.678.678 0 0 1 .576-.056Zm.785-.073c.171.08.327.448.353.51a.69.69 0 0 0 .091.134c-.115.048-.237.039-.395.038-.157-.003-.397-.376-.46-.482a.909.909 0 0 0-.167-.193.673.673 0 0 1 .578-.007Zm.804.008c.161.097.278.472.297.535.02.062.077.142.077.142-.119.033-.24.01-.396-.01-.156-.019-.357-.41-.409-.52-.054-.112-.144-.208-.144-.208a.69.69 0 0 1 .575.061Zm.787.067c.154.107.241.493.255.556a.663.663 0 0 0 .065.148c-.12.026-.24-.004-.394-.034-.155-.029-.324-.434-.368-.548a.932.932 0 0 0-.128-.218c.18-.062.415-.012.57.096Zm.785.139c.142.12.194.512.203.577.008.064.051.153.051.153-.124.015-.239-.027-.39-.07-.151-.044-.282-.462-.315-.58a.91.91 0 0 0-.107-.229.679.679 0 0 1 .558.149Zm.775.208c.13.134.142.53.143.595a.6.6 0 0 0 .035.157c-.123.002-.235-.049-.38-.108-.145-.059-.233-.488-.255-.609a.885.885 0 0 0-.082-.238.672.672 0 0 1 .539.203Zm.755.264c.121.144.098.539.094.604-.003.065.023.159.023.159-.126-.007-.236-.069-.38-.138-.144-.071-.197-.506-.209-.628-.01-.123-.064-.244-.064-.244a.706.706 0 0 1 .536.247Zm.731.336c.111.154.055.546.046.61a.66.66 0 0 0 .01.161c-.127-.016-.234-.086-.374-.166-.141-.081-.16-.519-.161-.642-.002-.123-.046-.248-.046-.248a.72.72 0 0 1 .525.285Zm.148.939s.112.252.602.396c0 0 .084.258.556.455 0 0 .031.076.109.174-.171.093-.268.213-.301.306-.076.04-.286.147-.359.352-.193.083-.261.169-.342.353-.107.039-.257.108-.378.362a.74.74 0 0 0-.378.349c-.095.048-.272.129-.339.352-.066.034-.225.071-.354.348a.657.657 0 0 0-.366.346c-.061.021-.126.096-.184.157-.016-.002-.036-.014-.049-.01a.471.471 0 0 0-.423-.281c-.074-.176-.285-.269-.457-.241-.078-.122-.227-.218-.488-.181-.048-.046-.295-.209-.522-.129-.037-.04-.135-.079-.241-.088h-.019a.462.462 0 0 0-.041-.388c.081-.177.078-.299-.008-.512a.542.542 0 0 0 .011-.514c.117-.212-.003-.479-.004-.49.108-.273-.007-.496-.006-.506.111-.257.01-.509.013-.52.102-.267-.026-.343.021-.513.053-.196 0-.365-.013-.473-.008-.052.022-.142.037-.234.124.021.285.029.479-.024 0 0 .224.176.72.11 0 0 .218.225.721.172 0 0 .134.217.693.23 0 0 .108.221.662.291 0 0 .124.248.648.351Zm.53-.547c.09.163 0 .548-.014.612-.016.063-.006.161-.006.161-.12-.028-.214-.107-.341-.2-.126-.094-.101-.53-.091-.652.01-.123-.02-.252-.02-.252a.681.681 0 0 1 .472.331Zm.199.084a.674.674 0 0 1 .444.365c.079.169-.041.547-.061.609-.02.062-.018.159-.018.159-.117-.036-.206-.122-.324-.224-.119-.102-.061-.536-.04-.658.019-.122-.001-.251-.001-.251Zm.603.717c.034-.12.025-.251.025-.251a.692.692 0 0 1 .431.406c.066.175-.1.54-.128.6-.028.059-.035.157-.035.157-.121-.048-.205-.142-.318-.254-.115-.114-.008-.54.025-.658Zm.596.524c.041-.117.045-.249.045-.249a.676.676 0 0 1 .372.438c.048.179-.137.531-.167.588a.62.62 0 0 0-.047.154c-.109-.057-.181-.156-.279-.276-.098-.123.036-.54.076-.655Zm.593.332a.66.66 0 0 1 .336.465c.034.183-.179.519-.213.574a.579.579 0 0 0-.059.15c-.104-.066-.168-.17-.256-.298-.088-.13.079-.535.129-.647.05-.113.063-.244.063-.244Zm.422.858a.895.895 0 0 0 .09-.236c.162.1.271.311.285.497.013.185-.233.497-.274.548a.732.732 0 0 0-.074.144c-.096-.076-.149-.186-.223-.324-.075-.138.135-.523.196-.629Zm.422.645c.07-.101.109-.228.109-.228a.67.67 0 0 1 .243.52c-.003.185-.274.476-.319.523-.045.048-.085.137-.085.137-.091-.082-.134-.197-.196-.34-.062-.143.178-.51.248-.612Zm.488.487a.66.66 0 0 1 .199.537c-.017.185-.314.452-.362.496-.048.045-.096.13-.096.13-.083-.092-.116-.208-.166-.355-.05-.148.22-.494.298-.589.079-.096.127-.219.127-.219Zm.319.727a.666.666 0 0 1 .164.549c-.03.183-.341.431-.393.472-.051.041-.105.123-.105.123-.076-.095-.102-.214-.143-.365-.041-.151.252-.478.335-.569a.936.936 0 0 0 .142-.21Zm.258.767c.121.146.156.38.108.562-.048.179-.383.395-.439.431-.055.036-.116.112-.116.112-.067-.103-.081-.224-.106-.377-.026-.154.298-.452.392-.533.093-.082.161-.195.161-.195Zm.243 1.339c-.064.175-.417.359-.476.39a.682.682 0 0 0-.126.102c-.058-.108-.059-.23-.072-.385-.012-.156.338-.424.438-.497a.919.919 0 0 0 .178-.179.662.662 0 0 1 .058.569Zm.074.802c-.079.168-.448.322-.508.348-.061.025-.135.089-.135.089-.047-.113-.038-.234-.037-.389.003-.157.375-.393.48-.457a.869.869 0 0 0 .194-.164.665.665 0 0 1 .006.573Zm-.002.797c-.094.161-.474.283-.538.303-.062.021-.141.078-.141.078-.038-.115-.019-.236-.004-.391.016-.156.408-.36.519-.413.112-.055.206-.147.206-.147a.655.655 0 0 1-.042.569v.001Zm-.064.789c-.11.154-.507.245-.573.259a.737.737 0 0 0-.155.068c-.024-.123.01-.244.044-.399.035-.155.45-.322.567-.365.116-.043.219-.124.219-.124.059.177.008.407-.102.561Zm-.126.779c-.12.146-.522.211-.588.223-.068.011-.158.058-.158.058-.018-.124.025-.244.068-.396.044-.153.47-.294.589-.329a.99.99 0 0 0 .227-.109c.048.179-.018.407-.138.553Zm-.207.764c-.135.134-.542.156-.61.16-.066.003-.163.04-.163.04-.002-.125.052-.238.113-.386.059-.148.499-.241.62-.264.122-.022.237-.085.237-.085a.663.663 0 0 1-.197.535Zm-.278.765c-.144.123-.551.118-.618.116-.069 0-.167.031-.167.031.006-.126.068-.235.139-.378.07-.143.513-.207.637-.221a.933.933 0 0 0 .242-.07c.016.186-.089.398-.233.522Zm-.332.717c-.155.108-.559.065-.627.058-.068-.008-.169.013-.169.013.019-.124.091-.227.175-.363.085-.136.533-.156.657-.159.125-.002.248-.045.248-.045-.003.186-.128.387-.284.496Zm-.389.696c-.162.1-.563.03-.63.019-.067-.012-.168.002-.168.002.026-.122.105-.221.197-.351.093-.13.541-.123.665-.117.125.005.251-.03.251-.03-.015.186-.153.378-.315.477Zm-.466.659c-.171.082-.562-.027-.629-.046-.065-.018-.168-.014-.168-.014.039-.119.128-.21.234-.329.105-.119.551-.067.672-.05.124.018.254-.003.254-.003-.034.183-.191.36-.363.442Zm-.501.616c-.179.067-.56-.075-.623-.099-.064-.024-.166-.029-.166-.029.048-.115.145-.197.259-.307.116-.112.556-.022.676.005.121.029.252.018.252.018-.049.18-.221.344-.398.412Zm-.563.557c-.183.051-.55-.125-.611-.154-.061-.029-.164-.043-.164-.043.061-.111.163-.184.289-.284.125-.099.553.029.671.068.118.038.25.039.25.039-.066.176-.252.323-.435.374Zm-.617.522c-.188.035-.536-.173-.595-.208a.636.636 0 0 0-.158-.057c.069-.106.178-.17.313-.258.134-.087.549.08.663.128a.938.938 0 0 0 .244.062c-.081.168-.28.298-.467.333Zm-.652.45c-.191.02-.517-.216-.572-.256-.054-.039-.152-.07-.152-.07.08-.099.196-.153.339-.23.142-.077.539.123.647.181a.94.94 0 0 0 .237.082.689.689 0 0 1-.499.293Zm-.687.402c-.191-.001-.489-.27-.539-.315-.05-.045-.144-.087-.144-.087.09-.089.21-.131.361-.192.149-.062.523.179.625.248.101.069.227.106.227.106a.701.701 0 0 1-.53.24Zm-.72.345c-.189-.016-.466-.306-.512-.355-.046-.049-.136-.096-.136-.096.095-.083.216-.117.368-.166.151-.05.504.218.598.294.097.077.217.123.217.123-.122.141-.348.215-.535.2Zm-.747.274c-.188-.031-.44-.343-.482-.395a.614.614 0 0 0-.129-.107c.103-.076.229-.098.387-.136.159-.037.489.259.578.343.089.085.207.141.207.141a.704.704 0 0 1-.561.154Zm-.771.216c-.185-.051-.401-.389-.437-.445-.037-.056-.116-.12-.116-.12.11-.064.238-.073.399-.092.162-.02.457.309.536.402.08.093.191.163.191.163a.702.702 0 0 1-.573.092Zm-.783.149c-.178-.068-.364-.422-.395-.482-.032-.059-.104-.129-.104-.129.115-.054.243-.052.406-.059.162-.004.427.35.497.449a.887.887 0 0 0 .176.178c-.161.101-.401.109-.58.043Zm-.8.071c-.172-.083-.325-.453-.351-.515-.025-.062-.092-.138-.092-.138.119-.043.247-.029.409-.021.163.008.394.385.457.49.06.106.158.193.158.193a.702.702 0 0 1-.581-.009Zm-.608-2.977c.227-.082.273-.055.406-.084.057-.012.127-.036.157-.07.006.057.031.176.004.323-.018.083-.149.148-.445.17-.132.009-.182.064-.177.059-.026-.121-.071-.344.055-.398Zm-.547-2.494c-.011-.042-.046-.096-.046-.096.079-.024.157-.009.258.004s.221.277.253.351a.564.564 0 0 0 .089.141.425.425 0 0 1-.374-.038c-.103-.064-.169-.32-.18-.362Zm-.494-.233c.084-.011.163.015.267.043.102.028.184.306.205.386.021.079.07.151.07.151a.462.462 0 0 1-.381-.093c-.096-.079-.124-.342-.129-.385-.004-.043-.032-.102-.032-.102Zm4.427-6.525c.015.013.199.139.214.102-.035.046-.083.141-.158.195-.023.017-.051.024-.078.032a.357.357 0 0 0-.17-.101.463.463 0 0 0-.036-.057c-.024-.089-.147-.224-.262-.281a.432.432 0 0 1 .046-.044c.069-.048.103-.041.129-.038.078.008.218.105.315.192Zm.407-.31c.047.032.098.062.144.06-.038.044-.093.147-.216.23-.07.045-.206-.002-.423-.195-.095-.086-.179-.083-.172-.085.069-.101.209-.289.333-.236.213.103.224.153.334.226Zm.355-.354c.047.031.112.064.157.061-.038.044-.107.145-.229.228-.071.045-.207-.002-.422-.195-.097-.086-.17-.084-.161-.085.068-.101.197-.289.321-.236.212.103.224.154.334.227Zm.346-.337c.047.032.111.064.157.062-.038.044-.105.144-.229.227-.07.045-.206-.002-.422-.195-.096-.086-.17-.083-.161-.084.05-.098.18-.286.321-.236.212.102.225.153.334.226Zm.352-.357c.048.031.112.064.157.061-.038.044-.106.144-.229.228-.07.045-.206-.002-.422-.195-.096-.086-.169-.084-.162-.085.07-.101.198-.289.322-.236.212.102.225.153.334.227Zm.377-.347c.048.032.113.063.158.061-.038.044-.106.145-.228.227-.07.046-.207-.001-.424-.194-.095-.086-.168-.084-.161-.085.069-.101.197-.289.322-.236.213.102.224.153.333.227Zm.35-.339c.047.031.111.063.157.061-.039.044-.106.144-.229.227-.07.045-.206-.002-.422-.195-.096-.085-.169-.083-.162-.085.051-.096.181-.285.321-.236.213.103.225.154.335.228Zm.328-.334c.047.031.112.063.157.061-.039.043-.106.144-.229.227-.07.046-.206-.002-.422-.195-.097-.086-.17-.084-.162-.085.069-.101.198-.288.322-.236.213.103.224.154.334.228Zm.258-.03c-.07.045-.215-.027-.409-.195-.098-.084-.17-.083-.162-.084.09-.182.244-.298.31-.295.038.04.078.079.132.12.054.058.13.13.246.206.013.031.032.07.065.117-.035.043-.124.096-.182.131Zm2.348 5.772a.641.641 0 0 0-.01.116c0 .023-.15-.017-.176-.044-.061-.062-.102-.234-.114-.368-.001-.021-.058-.246-.101-.229.165-.021.36-.089.371.09.005.099.048.223.065.286.009.032-.016.044-.035.149Zm-3.352-.059c.009.132.064.182.057.179-.12.024-.342.07-.394-.058-.083-.228-.056-.274-.084-.407-.012-.057-.036-.127-.071-.158.059-.005.176-.032.322-.004.083.018.148.149.17.448Zm.466-.012c.01.133.065.183.059.179-.104.035-.329.08-.396-.057-.082-.228-.055-.274-.083-.407-.012-.058-.036-.127-.07-.158.057-.005.175-.031.322-.004.081.017.148.149.168.447Zm.544.179c-.119.025-.342.071-.395-.057-.081-.228-.054-.274-.083-.407-.012-.058-.036-.127-.07-.158.057-.005.176-.031.322-.004.081.017.146.149.169.447.009.133.063.183.057.179Zm.512.014c-.119.026-.342.072-.394-.056-.082-.228-.056-.274-.085-.407-.011-.058-.035-.128-.07-.158.058-.006.177-.032.323-.004.081.017.147.149.168.447.011.133.064.183.058.178Zm.443-.189c.011.133.065.183.057.179-.103.035-.327.08-.394-.057-.082-.228-.055-.275-.083-.407-.012-.058-.037-.128-.071-.158.058-.006.176-.031.323-.004.082.017.147.149.168.447Zm.501-.44c.057-.006.167-.042.313-.015.082.017.147.149.17.448.01.133.064.183.057.177-.12.025-.341.073-.394-.055-.083-.229-.057-.275-.084-.408-.013-.058-.029-.116-.062-.147Zm.039.619c-.12.025-.342.071-.394-.057-.083-.228-.056-.275-.083-.407-.013-.058-.037-.128-.072-.158.059-.006.176-.031.323-.004.082.017.147.149.169.447.009.133.064.183.057.179Zm-3.264-.381a.425.425 0 0 1 0-.072c.004-.042.012-.104.013-.151.004-.017.003-.032.005-.049.039-.004-.034-.003.106.023.081.017.146.149.167.447.011.133.064.183.059.179-.217.06-.338.062-.36.004-.007-.019-.003-.033.002-.052a.451.451 0 0 0 .008-.329Zm-3.018 3.769c.055.06.13.104.13.104a.433.433 0 0 1-.365.086c-.119-.029-.265-.249-.289-.285-.024-.036-.075-.076-.075-.076.066-.047.145-.059.245-.08.101-.021.299.191.354.251Zm.467-.173a.617.617 0 0 0 .141.088.432.432 0 0 1-.353.128c-.121-.014-.292-.216-.32-.249-.028-.033-.083-.066-.083-.066.06-.056.137-.076.234-.108.097-.033.32.153.381.207Zm.439-.236a.603.603 0 0 0 .152.066.427.427 0 0 1-.331.177c-.122.004-.32-.172-.353-.2a.417.417 0 0 0-.091-.055c.052-.062.124-.094.215-.14.093-.045.34.107.408.152Zm.404-.284a.628.628 0 0 0 .162.048.433.433 0 0 1-.313.22c-.123.018-.345-.134-.382-.16-.037-.025-.1-.043-.1-.043.045-.07.115-.11.202-.168.088-.058.357.065.431.103Zm.357-.346c.08.023.166.019.166.019a.425.425 0 0 1-.265.266c-.114.039-.356-.07-.395-.088-.041-.018-.104-.024-.104-.024.031-.076.092-.127.165-.198.074-.071.355.003.433.025Zm.35.587c-.081.099-.079.169-.08.162-.192-.091-.319-.262-.295-.316.01-.022.069-.065.145-.144l.01-.01a1.28 1.28 0 0 0 .161-.21c.025-.04.053-.075.077-.079.045-.008.119.116.166.189.044.069-.025.213-.184.408Zm.314.329c-.082.097-.079.169-.08.161-.099-.065-.284-.186-.234-.31.097-.211.146-.225.215-.334.031-.047.062-.112.058-.156.044.035.142.099.225.219.044.068.001.203-.184.42Zm.33.315c-.083.097-.079.169-.08.162-.095-.049-.281-.172-.234-.311.096-.212.145-.225.215-.335.03-.048.061-.112.058-.156.043.036.142.1.224.22.045.067.002.202-.183.42Zm.336.334c-.083.097-.08.169-.081.162-.099-.065-.284-.188-.234-.311.096-.211.146-.225.216-.334.03-.048.06-.112.057-.156.043.036.141.1.225.219.044.067.001.203-.183.42Zm.343.363c-.083.097-.08.169-.081.161-.099-.065-.284-.186-.234-.31.097-.211.147-.225.216-.334.03-.048.06-.112.056-.156.045.036.144.1.226.219.045.068.001.203-.183.42Zm.353.338c-.083.096-.08.168-.081.161-.095-.047-.28-.171-.233-.311.096-.211.145-.224.215-.335.03-.046.061-.11.057-.155.044.036.142.1.224.22.046.067.003.203-.182.42Zm.585.188c.03-.047.057-.099.054-.143.044.036.145.087.227.206.045.069.002.203-.183.42-.083.098-.079.181-.081.173-.098-.065-.283-.197-.233-.321.096-.212.144-.225.216-.335Zm-.253.144c-.082.097-.08.169-.081.161-.099-.065-.283-.187-.233-.311.096-.211.146-.224.216-.334.03-.047.06-.111.057-.155.044.035.142.099.225.219.044.068.001.203-.184.42ZM45.8 66.338c.081.012.166-.002.166-.002a.422.422 0 0 1-.226.298c-.109.054-.362-.021-.404-.034-.041-.012-.107-.01-.107-.01.021-.079.074-.138.137-.217.064-.081.353-.046.434-.035Zm.282-.4c.082.009.167-.01.167-.01a.426.426 0 0 1-.213.309c-.106.06-.363-.005-.405-.016-.042-.01-.107-.005-.107-.005.017-.08.067-.142.127-.224.059-.083.349-.062.431-.054Zm.228-.427c.082-.002.163-.031.163-.031a.42.42 0 0 1-.171.333c-.098.071-.362.04-.404.034-.044-.005-.107.008-.107.008.007-.08.049-.148.098-.237.049-.09.34-.105.421-.107Zm.17-.465c.079-.007.157-.04.157-.04a.428.428 0 0 1-.15.341c-.091.077-.349.059-.392.056-.043-.002-.104.014-.104.014.004-.081.041-.152.084-.243.044-.093.325-.122.405-.128Zm.065-.479a.591.591 0 0 0 .148-.068.435.435 0 0 1-.084.364c-.076.092-.333.121-.374.126-.043.006-.1.033-.1.033-.012-.081.011-.155.036-.254.026-.098.298-.18.374-.201Zm.164-.715c-.049.109-.287.206-.327.22-.039.017-.087.057-.087.057-.034-.073-.031-.152-.033-.253-.001-.102.24-.252.308-.293a.556.556 0 0 0 .124-.104.432.432 0 0 1 .015.373Zm.034.361a.428.428 0 0 1-.05.146c-.064.102-.315.163-.357.173-.041.01-.094.045-.094.045-.022-.079-.007-.156.005-.256.013-.102.272-.216.346-.247.074-.03.138-.086.138-.086l.001.002a.07.07 0 0 0-.007.024c.01.044.017.122.018.199Zm-.241-1.125c.065-.047.115-.115.115-.115a.43.43 0 0 1 .048.37c-.039.113-.269.229-.308.248a.396.396 0 0 0-.081.065c-.04-.07-.044-.15-.054-.25-.011-.102.215-.272.28-.318Zm-.159-.464c.058-.056.098-.129.098-.129a.426.426 0 0 1 .097.36c-.024.116-.236.263-.271.287-.035.024-.072.075-.072.075-.049-.065-.064-.143-.087-.242-.024-.098.177-.298.235-.351Zm-.187-.462c.052-.06.084-.139.084-.139a.433.433 0 0 1 .137.347c-.011.119-.204.288-.238.316-.031.028-.063.082-.063.082-.056-.059-.079-.135-.114-.23s.143-.316.194-.376Zm-.45-.302c-.022.036-.034.098-.034.098-.073-.04-.117-.105-.18-.185-.063-.081.039-.344.07-.417.031-.074.037-.158.037-.158a.43.43 0 0 1 .237.29c.026.115-.108.336-.13.372Zm.187-.123c.044-.067.063-.149.063-.149a.429.429 0 0 1 .183.326c.006.119-.164.312-.193.344-.028.032-.051.091-.051.091-.063-.052-.097-.123-.144-.213-.048-.091.099-.332.142-.399Zm-3.068 5.972c-.018-.04-.063-.086-.063-.086.071-.038.151-.038.253-.045.102-.008.271.227.317.294a.58.58 0 0 0 .115.12.423.423 0 0 1-.374.037c-.113-.044-.229-.281-.248-.32Zm-.466.002c-.015-.04-.054-.091-.054-.091.076-.03.154-.023.257-.019.104.004.245.256.283.329.038.071.1.13.101.131a1.945 1.945 0 0 1-.224.033.435.435 0 0 1-.152-.037c-.108-.056-.197-.304-.211-.346Zm.645.676c-.017.082-.173.136-.436.161-.132.012-.182.064-.177.057-.075-.207-.041-.423.016-.445.022-.007.083.003.181.004a.614.614 0 0 0 .42-.038c.004.001.011 0 .013.002.04.028.003.173-.017.259Zm-.641 3.895c.014-.085.043-.103.064-.121.062-.05.233-.084.366-.094.021-.001.246-.049.227-.085a.738.738 0 0 1-.02.338 1.149 1.149 0 0 0-.313.02l-.049-.007c-.064-.006-.141.019-.198.037-.018-.009-.047-.016-.079-.027a.364.364 0 0 1 .002-.061Zm.081-1.144c.227-.082.272-.055.405-.084.057-.012.127-.036.157-.07.006.057.032.177.004.324-.018.082-.148.147-.444.169-.133.01-.183.064-.179.059-.024-.121-.07-.345.057-.398Zm.566-.315c-.018.082-.148.148-.444.169-.133.01-.183.065-.179.058-.035-.104-.08-.329.056-.396.227-.082.273-.056.406-.084.056-.012.127-.037.156-.072.006.059.033.178.005.325Zm.008.988c-.017.082-.149.147-.445.169-.132.01-.19.073-.186.066-.025-.119-.063-.351.065-.404.227-.083.272-.056.405-.085.057-.012.116-.028.146-.063.005.058.042.17.015.317Zm-.571-2.175c.227-.083.273-.056.406-.084.057-.012.126-.037.156-.071.006.058.031.177.004.324-.017.082-.148.147-.444.169-.133.01-.183.066-.178.058-.025-.12-.071-.343.056-.396Zm-.011-.957c.227-.084.273-.057.405-.086.057-.011.127-.036.157-.07.005.058.031.177.004.323-.017.083-.149.148-.445.171-.132.009-.182.064-.178.058-.024-.12-.071-.344.057-.396Zm.011.468c.227-.082.273-.056.406-.084.057-.011.126-.037.156-.071.006.058.031.178.004.324-.017.082-.148.148-.444.171-.133.009-.183.064-.178.057-.035-.105-.081-.33.056-.397Zm.621 2.802c.081-.178.078-.3-.008-.514a.542.542 0 0 0 .011-.514c.117-.211-.003-.479-.005-.49.109-.274-.006-.497-.004-.507.11-.257.009-.511.013-.521.1-.268-.028-.344.02-.514.054-.197 0-.366-.014-.474-.008-.059.033-.163.041-.267.135.018.347 0 .392-.119.05.016.439.075.499-.146.085.011.383.051.489-.194.127-.009.344.014.411-.266.157.012.349-.027.427-.295.096.216.25.366.354.4.04.074.148.277.347.343.084.189.169.253.347.328.042.104.11.251.359.363a.721.721 0 0 0 .346.363c.048.093.128.265.347.326.034.063.072.219.343.339.02.068.117.248.342.351a.5.5 0 0 0 .137.185c.019-.006.036-.017.054-.024a1.443 1.443 0 0 0-.411.412s-.04.014-.165.066a1.064 1.064 0 0 0-.423.38s-.352.03-.629.382c0 0-.297-.027-.652.322 0 0-.335-.034-.688.273 0 0-.316-.08-.685.205 0 0-.336-.088-.726.15 0 0-.293-.127-.73.08 0 0-.041-.015-.098-.03a.473.473 0 0 0-.041-.393Zm5.394-1.933-.001.002s0 .002-.016.012l.017-.014Zm-.131.06c-.013.01-.067-.046-.08-.065-.049-.067-.042-.101-.039-.127.007-.076.098-.217.181-.314.014-.015.133-.2.095-.213.077.055.226.195.232.317-.045.042-.09.095-.138.16-.025.024-.05.049-.085.086-.072.08-.146.137-.166.156Zm2.531-4.479s-.199.261-.172.7c0 0-.214.243-.228.708 0 0-.255.188-.297.671 0 0-.235.146-.352.641 0 0-.292.203-.392.601 0 0-.322.17-.467.596 0 0-.057.023-.134.075a.56.56 0 0 0-.323-.288c-.066-.178-.151-.259-.357-.346a.536.536 0 0 0-.345-.362c-.067-.224-.33-.326-.34-.332-.114-.262-.345-.336-.351-.344-.102-.252-.344-.357-.348-.366-.116-.252-.254-.217-.34-.366-.097-.172-.25-.251-.334-.315-.049-.037-.089-.147-.161-.226a.431.431 0 0 0 .117-.301.476.476 0 0 0 .277-.45c.161-.073.268-.327.193-.458a.428.428 0 0 0 .18-.511.396.396 0 0 0 .086-.461c.192.064.315.035.408-.012.083.025.309.096.503-.004.199.08.307.064.492-.013.106.047.263.105.526.004a.737.737 0 0 0 .517.013c.101.032.286.101.491-.016.071.021.211.108.496-.003a.642.642 0 0 0 .505.007.54.54 0 0 0 .229.033c-.008.111-.008.243.027.428 0 0-.171.208-.106.697Zm-.289-4.322s-.027.429.208.7c0 0-.085.333.139.72 0 0-.108.325.085.721 0 0-.039.095-.052.243a.506.506 0 0 0-.431.031c-.178-.082-.298-.08-.513.007a.542.542 0 0 0-.514-.011c-.211-.117-.479.003-.49.005-.273-.11-.497.006-.508.005-.256-.112-.509-.01-.52-.013-.266-.103-.343.026-.514-.021-.196-.054-.366-.001-.474.013-.045.007-.087-.014-.14-.03a.398.398 0 0 0-.106-.272.521.521 0 0 0-.098-.5c.036-.245-.098-.396-.184-.482.012-.238-.08-.385-.232-.474 0-.129-.08-.34-.288-.418.006-.055-.03-.133-.082-.203a.473.473 0 0 0 .229-.288c.183-.065.267-.152.361-.36a.555.555 0 0 0 .376-.35c.231-.065.341-.335.347-.344.27-.114.351-.35.359-.356.259-.1.372-.348.382-.353.259-.114.227-.257.381-.342.177-.099.261-.253.329-.339.034-.043.125-.078.202-.134.073.088.183.19.35.297 0 0 .031.285.433.593 0 0 .037.346.379.617 0 0 .013.369.324.657 0 0-.033.346.262.681Zm-5.344-.431c.122.033.23.144.272.257.041.112-.064.347-.081.387a.36.36 0 0 0-.023.101c-.076-.031-.129-.089-.201-.161-.071-.072-.004-.346.018-.422.02-.078.015-.162.015-.162Zm-.398-.285a.43.43 0 0 1 .298.227c.052.107-.027.352-.04.392-.013.041-.012.104-.012.104-.079-.022-.137-.075-.217-.139-.08-.064-.041-.344-.027-.422.013-.079-.002-.162-.002-.162Zm-.133.445c-.085-.015-.152-.064-.242-.121-.09-.057-.073-.34-.065-.419.007-.079-.014-.161-.014-.161.134.01.27.1.336.203.065.103 0 .353-.01.395-.01.041-.005.103-.005.103Zm-.402-.24c-.081-.004-.15-.043-.241-.088-.092-.045-.115-.327-.12-.406-.003-.08-.032-.147-.032-.147a.414.414 0 0 1 .336.146c.074.093.05.349.047.392-.004.042.01.103.01.103Zm-4.935 6.402c-.098-.085-.17-.084-.163-.085.088-.174.231-.287.303-.294.03.03.063.056.1.076.032.037.074.082.138.138a.544.544 0 0 0 .218.215c-.024.046-.122.104-.187.144-.07.045-.215-.026-.409-.194Zm-.342.318c-.096-.087-.17-.084-.163-.085.069-.101.198-.289.322-.236.213.102.225.153.334.227.047.031.112.064.157.06-.038.045-.105.146-.228.228-.07.046-.206-.001-.422-.194Zm-.328.334c-.097-.087-.17-.084-.163-.085.051-.097.182-.286.322-.236.213.103.224.153.335.227.047.031.111.063.156.061-.038.043-.106.145-.229.228-.07.045-.206-.002-.421-.195Zm-.35.339c-.096-.086-.169-.084-.162-.085.07-.101.198-.288.322-.235.212.102.224.152.334.226.047.031.113.064.156.061-.037.045-.104.145-.228.228-.07.046-.205-.002-.422-.195Zm-.377.347c-.096-.086-.17-.083-.163-.084.069-.102.198-.29.322-.236.213.101.225.153.335.226.046.031.111.063.156.061-.038.045-.105.146-.228.228-.071.045-.207-.002-.422-.195Zm-.352.357c-.097-.086-.17-.083-.163-.084.052-.097.182-.286.322-.236.213.102.225.153.334.227.048.031.112.063.157.061-.038.044-.106.144-.229.228-.07.045-.205-.002-.421-.196Zm-.348.337c-.096-.086-.168-.084-.161-.084.069-.101.198-.29.322-.236.212.101.224.152.334.226.047.032.111.064.157.062-.038.044-.106.144-.23.227-.069.045-.205-.001-.422-.195Zm-.194.035c.213.102.225.153.335.227.047.031.099.06.143.058-.038.044-.092.147-.215.23-.071.045-.207-.002-.423-.194-.096-.088-.18-.085-.172-.086.069-.101.208-.288.332-.235Zm-2.604-5.461c.082.017.15.149.171.447.01.133.066.184.059.179-.193.052-.313.049-.355.009a.96.96 0 0 0-.066-.557v-.007c.001-.003.018-.04.038-.095.028-.002.034.002.153.024Zm3.64-.007c.1-.016.2-.047.259-.003.025.017.051.04.053.092.005.1.04.223.055.286.007.033-.013.044-.03.15-.005.04-.007.074-.009.117 0 .023-.124-.018-.147-.045-.051-.063-.085-.235-.095-.368-.001-.02-.05-.246-.086-.229Zm-.493.018c.059-.006.171-.043.319-.015.084.017.15.149.171.447.012.133.066.184.06.179-.122.025-.347.071-.401-.057-.083-.229-.056-.274-.084-.408-.012-.057-.03-.116-.065-.146Zm-.516-.003c.059-.006.179-.032.328-.004.082.016.148.148.171.446.01.133.065.184.058.179-.121.026-.347.071-.399-.057-.085-.227-.058-.274-.085-.407-.013-.058-.037-.127-.073-.157Zm-.488 0c.058-.006.178-.032.326-.004.083.016.149.148.172.446.009.133.064.184.058.179-.105.035-.332.081-.401-.057-.083-.227-.055-.274-.085-.407-.012-.058-.036-.127-.07-.157Zm-.509.01c.058-.005.178-.031.326-.003.083.017.15.149.172.447.01.133.065.184.059.178-.122.026-.348.072-.401-.057-.083-.228-.056-.273-.085-.407-.013-.057-.037-.127-.071-.158Zm-.521-.014c.059-.006.18-.031.328-.004.083.017.149.149.171.447.011.133.065.184.059.179-.121.025-.348.071-.4-.057-.084-.228-.057-.274-.085-.407-.013-.057-.037-.128-.073-.158Zm-.409.633c-.121.025-.348.071-.401-.057-.084-.228-.056-.275-.085-.408-.012-.057-.037-.127-.072-.157.06-.005.18-.031.328-.004.082.017.149.15.171.447.009.133.065.184.059.179Zm-.012-.475c-.012-.057-.037-.128-.071-.158.058-.006.178-.031.327-.004.083.017.15.149.172.447.008.133.065.184.058.179-.105.034-.333.08-.401-.057-.083-.228-.057-.274-.085-.407Zm1.895-5.858c.047.071-.023.219-.189.423-.084.102-.082.174-.083.166a.652.652 0 0 1-.291-.259.732.732 0 0 0 .167-.156 2.485 2.485 0 0 0 .187-.301s.04-.014.093-.037c.04.042.085.113.116.164Zm4.434 2.171c-.053-.058-.128-.099-.128-.099a.435.435 0 0 1 .363-.093c.117.025.262.237.286.272a.358.358 0 0 0 .075.074c-.067.048-.145.061-.244.084-.1.023-.297-.179-.352-.238Zm-.457.168c-.058-.055-.136-.089-.136-.089a.436.436 0 0 1 .354-.122c.118.015.28.216.308.249a.41.41 0 0 0 .079.066c-.061.053-.138.073-.235.104-.097.031-.311-.155-.37-.208Zm-.437.221c-.068-.048-.151-.074-.151-.074a.407.407 0 0 1 .333-.16c.122.002.316.186.347.216.033.031.091.059.091.059-.052.059-.125.087-.217.129-.092.041-.336-.123-.403-.17Zm-.402.297c-.075-.039-.162-.054-.162-.054a.417.417 0 0 1 .313-.207c.124-.014.345.146.382.172.036.026.1.047.1.047-.046.067-.116.105-.202.16-.088.054-.357-.079-.431-.118Zm-.376.333c-.08-.026-.169-.027-.169-.027a.344.344 0 0 1 .098-.138l.026-.023a.434.434 0 0 1 .154-.082c.12-.032.363.087.404.106.039.019.105.03.105.03-.034.07-.097.117-.175.182-.077.064-.364-.022-.443-.048Zm-.483-.103c.008-.08.103-.225.189-.326.012-.015.137-.207.099-.221.069.05.199.171.233.286-.122.054-.269.185-.303.293-.011.015-.019.031-.028.046l-.011.005a.503.503 0 0 0-.108.08.4.4 0 0 1-.031-.033c-.05-.069-.043-.104-.04-.13Zm-.352-.387c.1-.219.151-.232.224-.346.031-.048.059-.103.056-.148.045.038.149.091.236.214.046.071 0 .21-.191.435-.085.101-.081.186-.083.177-.102-.067-.294-.204-.242-.332Zm-.363-.351c.1-.219.151-.232.223-.347.032-.048.063-.115.06-.161.045.037.148.103.232.227.046.07.001.21-.189.435-.086.1-.082.175-.083.167-.103-.068-.295-.194-.243-.321Zm-.344-.344c.099-.219.151-.233.223-.347a.32.32 0 0 0 .06-.16c.045.036.147.102.232.227.047.069.001.21-.19.435-.085.1-.081.174-.083.166-.098-.049-.29-.177-.242-.321Zm-.365-.349c.099-.219.15-.233.223-.347a.334.334 0 0 0 .06-.161c.043.037.147.104.232.227.046.07.001.21-.189.435-.087.1-.082.175-.084.166-.103-.067-.295-.193-.242-.32Zm-.356-.376c.1-.219.151-.233.223-.346.031-.049.063-.115.059-.162.045.038.148.104.233.227.047.071.002.211-.189.436-.086.1-.083.175-.083.166-.103-.068-.294-.194-.243-.321Zm-.362-.518c-.086.101-.083.175-.084.168-.103-.068-.294-.194-.242-.321.1-.22.151-.233.223-.347.031-.049.063-.116.06-.161.044.037.147.103.232.227.046.07.002.21-.189.434Zm.016.172c.099-.22.151-.233.223-.346.03-.05.062-.116.059-.162.044.037.147.103.232.227.046.07.001.21-.189.435-.086.101-.082.175-.084.167-.098-.049-.29-.177-.241-.321Zm2.295 2.632c-.084-.015-.172-.002-.172-.002a.412.412 0 0 1 .235-.293c.113-.051.373.033.416.047.042.014.108.014.108.014-.02.078-.077.137-.143.215-.066.078-.362.033-.444.019Zm-.292.414c-.085-.008-.172.013-.172.013a.418.418 0 0 1 .209-.313c.107-.06.374.001.418.011.044.01.11.003.11.003-.015.081-.065.144-.124.227-.059.084-.358.066-.441.059Zm-.205.443a.579.579 0 0 0-.162.028.42.42 0 0 1 .173-.33c.098-.07.357-.031.401-.024a.451.451 0 0 0 .105-.006c-.008.082-.051.148-.099.236-.05.089-.337.096-.418.096Zm-.165.454c-.083.01-.163.046-.163.046a.419.419 0 0 1 .141-.347c.093-.08.361-.072.405-.071a.492.492 0 0 0 .108-.018c.001.082-.034.152-.075.246-.042.094-.334.135-.416.144Zm-.134.501a.308.308 0 0 0-.129.06.47.47 0 0 1 .103-.381c.082-.089.347-.106.39-.109.043-.003.104-.027.104-.027.008.08-.021.155-.052.251-.032.098-.336.188-.416.206Zm-.073 1.225c.037-.115.269-.243.307-.264a.364.364 0 0 0 .082-.068c.042.069.047.149.06.25.013.102-.214.283-.279.332a.596.596 0 0 0-.114.12.417.417 0 0 1-.056-.37Zm-.034-1.028c.066-.104.322-.169.364-.18a.429.429 0 0 0 .098-.046c.022.08.007.16-.007.263-.013.104-.279.223-.355.256a.587.587 0 0 0-.141.089.44.44 0 0 1 .041-.382Zm-.01.502c.054-.107.303-.197.345-.212.041-.013.092-.053.092-.053.03.074.023.153.02.254-.004.104-.256.247-.329.285a.607.607 0 0 0-.131.101.42.42 0 0 1 .003-.375Zm.363 1.239c-.059.056-.1.133-.1.133a.429.429 0 0 1-.096-.363c.025-.118.242-.27.277-.295.036-.025.074-.077.074-.077.05.065.063.143.087.242.024.1-.181.304-.242.36Zm.206.458c-.051.064-.082.144-.082.144a.427.427 0 0 1-.143-.346c.009-.121.204-.299.236-.328.032-.03.063-.086.063-.086.058.057.082.134.118.229.037.095-.141.324-.192.387Zm.436.299a.47.47 0 0 0 .035-.1c.071.038.117.102.18.183.063.08-.038.352-.068.427a.588.588 0 0 0-.036.162.422.422 0 0 1-.239-.288c-.028-.119.105-.347.128-.384Zm-.185.126c-.043.07-.062.153-.062.153a.427.427 0 0 1-.19-.323c-.007-.12.162-.324.19-.358a.467.467 0 0 0 .051-.093c.064.05.1.121.148.21.05.09-.095.342-.137.411Zm3.065-5.998c.018.038.063.083.063.083-.072.038-.151.04-.252.049-.102.008-.268-.221-.313-.287a.625.625 0 0 0-.112-.116.43.43 0 0 1 .371-.04c.113.042.225.273.243.311Zm-.084-2.618c.228-.083.274-.056.406-.084.057-.013.126-.037.157-.071.005.058.03.176.004.323-.017.082-.15.148-.445.17-.132.009-.182.064-.178.058-.025-.12-.071-.344.056-.396Zm.571-1.761c-.017.082-.172.136-.435.161-.132.012-.182.064-.178.058-.067-.187-.044-.373.003-.425.067.005.149-.002.247-.018.073-.002.158-.008.266-.033l.015-.002a.766.766 0 0 0 .115.036c.008.055-.017.156-.033.223Zm-.216 4.056c.107.053.195.295.21.335.013.039.052.089.052.089-.075.03-.154.024-.256.022-.101-.003-.244-.248-.281-.318-.037-.07-.1-.128-.1-.128a.436.436 0 0 1 .375 0Zm-.423-.168c.013-.084.042-.102.063-.12.061-.05.234-.085.366-.093.02-.002.245-.049.227-.085.013.081.021.252-.03.357a.456.456 0 0 0-.138.028c-.098-.018-.253-.093-.483-.003a.223.223 0 0 1-.005-.084Zm.087-.638c.227-.083.274-.056.406-.085.057-.012.115-.028.146-.063.005.058.042.17.015.316-.018.082-.149.148-.445.17-.133.01-.19.072-.186.065-.025-.119-.063-.35.064-.403Zm-.007-.503c.227-.082.273-.056.405-.084.057-.012.127-.037.157-.071.006.059.03.177.003.324-.016.082-.147.147-.443.169-.132.01-.183.065-.179.058-.025-.119-.071-.342.057-.396Zm.565-.315c-.016.082-.148.147-.443.169-.132.01-.183.064-.179.058-.035-.103-.08-.329.057-.395.227-.083.273-.056.405-.084.056-.013.127-.037.156-.072.007.059.031.177.004.324Zm-.562-1.186c.227-.083.274-.056.406-.085.056-.012.126-.036.156-.069.006.057.031.176.004.322-.017.082-.149.148-.444.169-.133.01-.183.066-.178.059-.026-.121-.071-.344.056-.396Zm-.011-.957c.227-.082.273-.056.405-.084.057-.012.127-.036.157-.07.005.057.031.176.004.323-.017.082-.148.147-.444.17-.133.009-.183.064-.179.057-.025-.12-.071-.343.057-.396Zm.011.469c.227-.082.274-.056.406-.084.056-.012.126-.036.156-.071.006.058.031.177.004.324-.017.081-.149.147-.445.169-.132.01-.182.065-.177.058-.036-.104-.081-.329.056-.396Zm.997 3.339a.432.432 0 0 1 .359.104c.089.08.104.337.108.38a.39.39 0 0 0 .026.101c-.082.007-.155-.02-.253-.051-.096-.031-.163-.305-.18-.383-.017-.078-.06-.151-.06-.151Zm.012.371c.007.042.038.096.038.096-.079.018-.157-.001-.257-.019-.1-.019-.2-.283-.224-.359a.597.597 0 0 0-.079-.142.432.432 0 0 1 .37.06c.098.069.144.322.152.364Zm-1.146-4.248c-.025.082-.096.308.003.502-.077.198-.062.307.014.491-.047.106-.104.262-.004.525a.734.734 0 0 0-.013.516c-.033.102-.1.286.017.489-.022.072-.108.212.003.498a.637.637 0 0 0-.008.504.512.512 0 0 0-.035.231c-.307-.059-.445.103-.463.099a.61.61 0 0 0-.53.131c-.114-.023-.365.039-.457.205-.119-.015-.411.12-.466.268-.098-.007-.307.092-.377.25a.477.477 0 0 0-.322-.272c-.07-.183-.158-.267-.369-.359a.56.56 0 0 0-.358-.373c-.068-.232-.343-.337-.352-.344-.119-.271-.358-.348-.364-.356-.105-.261-.355-.369-.36-.379-.119-.261-.262-.225-.352-.38-.101-.177-.259-.259-.346-.325-.036-.029-.07-.1-.114-.168.115-.066.265-.186.393-.416 0 0 .313-.022.585-.429 0 0 .307-.025.62-.371 0 0 .341.005.655-.329 0 0 .335.052.683-.267 0 0 .305.081.705-.204 0 0 .276.113.711-.137 0 0 .262.117.734-.088 0 0 .054.034.158.054-.055.19-.036.344.009.434Zm-7.834 6.253s.189-.152.171-.7c0 0 .209-.133.235-.693 0 0 .257-.177.294-.673 0 0 .248-.094.346-.637 0 0 .283-.13.405-.593 0 0 .147-.099.23-.202.085-.102.193-.265.235-.387 0 0 .034-.016.077-.041a.618.618 0 0 0 .301.276c.041.077.153.287.359.354.087.195.175.262.36.34.042.108.113.26.371.376a.74.74 0 0 0 .358.376c.049.095.133.273.359.336.036.066.075.227.356.351a.664.664 0 0 0 .353.364.473.473 0 0 0 .114.16.474.474 0 0 0-.119.288c-.091.061-.278.223-.278.426-.087.017-.252.365-.189.485-.083.041-.198.24-.151.484-.066.043-.201.328-.093.529-.025.013-.044.046-.058.083a.472.472 0 0 0-.396.042c-.179-.082-.302-.079-.518.007a.552.552 0 0 0-.52-.011c-.213-.118-.484.002-.496.005-.275-.111-.5.006-.511.004-.259-.111-.516-.009-.526-.013-.269-.102-.347.027-.519-.021-.199-.054-.369-.001-.479.014-.04.005-.1-.012-.167-.029.03-.123.047-.311-.013-.571 0 0 .185-.242.109-.729Zm.557 5.024s.006-.404-.263-.681c0 0 .031-.427-.207-.695 0 0 .076-.367-.14-.69-.051-.083.031-.128.028-.238a1.642 1.642 0 0 0-.115-.526s.012-.025.026-.066a.497.497 0 0 0 .379-.023c.085.025.313.096.509-.003.2.077.311.062.497-.015.107.048.265.106.532.005.094.04.289.092.522.013.102.033.288.1.495-.016.071.02.213.108.502-.003a.655.655 0 0 0 .511.007.421.421 0 0 0 .209.035.267.267 0 0 0 .074.134c-.062.095-.026.461.097.501-.01.123.027.468.19.468-.06.155.09.441.244.452a.489.489 0 0 0 .289.468c-.001.06.03.131.075.196-.173.092-.266.21-.3.305-.077.04-.286.148-.358.352-.193.082-.261.17-.342.351-.108.041-.258.109-.378.363a.734.734 0 0 0-.379.349c-.095.049-.272.129-.339.352-.066.035-.225.072-.353.348a.652.652 0 0 0-.367.345.428.428 0 0 0-.139.112 1.383 1.383 0 0 0-.363-.323s-.05-.307-.434-.584c0 0-.031-.351-.378-.621 0 0 .019-.297-.324-.672Zm5.096-.236c-.04-.009-.074-.037-.11-.061a1.339 1.339 0 0 1-.071-.05.425.425 0 0 1-.097-.141c-.045-.112.055-.357.072-.398.015-.04.02-.103.02-.103.076.027.131.086.204.155.075.071.013.354-.006.433-.02.08-.012.165-.012.165Zm.418.302a.427.427 0 0 1-.308-.214c-.058-.106.008-.362.02-.404.01-.041.005-.105.005-.105.081.016.142.067.224.128.083.06.059.348.05.429a.644.644 0 0 0 .009.166Zm.329-.465c-.098-.065-.23-.118-.23-.118s-.065-.083-.159-.155c-.086-.066-.2-.119-.2-.119s-.027-.08-.092-.148a1.43 1.43 0 0 0-.215-.181s-.02-.073-.082-.157a2.09 2.09 0 0 0-.188-.207s-.002-.068-.045-.144c-.063-.111-.172-.242-.172-.242s.006-.074-.028-.159c-.049-.115-.142-.251-.142-.251s.015-.092-.007-.18a1.122 1.122 0 0 0-.106-.241s.027-.077.017-.173a1.49 1.49 0 0 0-.069-.273s.031-.077.03-.177c0-.119-.032-.264-.032-.264s.048-.079.061-.191a1.365 1.365 0 0 0-.003-.273s.054-.066.073-.157c.025-.117.018-.263.018-.263s.068-.056.106-.148c.044-.107.058-.249.058-.249s.077-.068.129-.163c.058-.106.093-.242.093-.242s.095-.069.156-.156a.725.725 0 0 0 .094-.204s.102-.057.175-.137c.084-.09.143-.204.143-.204s.091-.028.167-.089c.098-.077.187-.189.187-.189s.109-.034.193-.093c.094-.067.163-.16.163-.16s.134-.009.229-.055c.108-.051.179-.138.179-.138s.104.009.202-.023a.968.968 0 0 0 .23-.12s.095.023.187.005a1 1 0 0 0 .24-.091s.109.039.218.032c.113-.009.226-.063.226-.063s.09.049.193.056c.124.009.267-.023.267-.023s.084.06.192.078c.115.019.255-.003.255-.003s.074.065.185.101a.879.879 0 0 0 .234.037s.062.079.144.116c.11.05.248.062.248.062s.053.084.138.141c.1.067.234.11.234.11s.054.091.136.155c.099.077.229.128.229.128s.026.09.092.162c.084.092.21.17.21.17s.021.104.076.175c.076.098.195.174.195.174s.002.102.049.188c.057.11.162.21.162.21s-.007.103.025.179a.89.89 0 0 0 .139.217s-.018.096.001.182c.028.123.097.25.097.25s-.024.137-.007.235c.02.122.081.211.081.211s-.042.095-.042.192c0 .13.044.274.044.274s-.048.069-.061.163c-.017.12-.002.272-.002.272s-.064.077-.088.174c-.026.116-.012.254-.012.254s-.07.076-.11.175a1.015 1.015 0 0 0-.056.239s-.08.073-.132.17c-.054.1-.081.223-.081.223s-.085.06-.147.144c-.068.094-.112.211-.112.211s-.092.05-.164.127c-.08.087-.142.201-.142.201s-.102.034-.181.1a.912.912 0 0 0-.161.187s-.104.028-.19.085a.959.959 0 0 0-.176.157s-.12.013-.219.058c-.107.048-.193.129-.193.129s-.116-.001-.212.033a.744.744 0 0 0-.2.113s-.116-.018-.217.002a.936.936 0 0 0-.235.085s-.108-.027-.211-.019c-.114.009-.223.054-.223.054s-.087-.046-.194-.053c-.116-.007-.253.025-.253.025s-.074-.056-.175-.073c-.118-.021-.266-.004-.266-.004s-.063-.065-.165-.099c-.109-.035-.258-.04-.258-.04s-.062-.062-.161-.106a1.263 1.263 0 0 0-.244-.075s-.053-.072-.14-.129Zm-.226.016c.082.009.147.054.235.107s.09.342.089.424a.576.576 0 0 0 .024.164.425.425 0 0 1-.327-.186c-.068-.1-.024-.361-.017-.404.007-.042-.004-.105-.004-.105Zm.383.213c.083 0 .152.039.246.08.093.043.128.33.136.411.007.081.044.16.044.16a.422.422 0 0 1-.346-.147c-.08-.091-.067-.355-.064-.398.003-.044-.016-.106-.016-.106Zm1.252 5.899c-.165-.097-.285-.479-.305-.542-.021-.064-.08-.146-.08-.146.123-.033.249-.009.41.013.16.022.359.417.412.528.051.11.141.205.141.205a.703.703 0 0 1-.578-.058Zm-.789-.064c-.155-.11-.243-.5-.257-.566-.014-.065-.068-.152-.068-.152.127-.022.25.012.408.047.158.036.322.447.365.561.042.115.123.216.123.216a.697.697 0 0 1-.571-.106Zm-.779-.141c-.147-.121-.206-.517-.215-.583a.683.683 0 0 0-.055-.157c.126-.013.247.031.402.079.156.045.288.467.322.584a.909.909 0 0 0 .108.225.703.703 0 0 1-.562-.148Zm-.779-.206c-.134-.135-.151-.535-.155-.601-.003-.067-.04-.161-.04-.161.128-.002.243.054.394.117.149.061.239.493.261.614.022.119.084.233.084.233a.694.694 0 0 1-.544-.202Zm-.741-.267c-.122-.145-.107-.545-.106-.611.003-.067-.026-.164-.026-.164.127.009.238.073.382.148.144.073.2.511.212.632a.912.912 0 0 0 .065.241.707.707 0 0 1-.527-.246Zm-.727-.334c-.108-.157-.053-.553-.044-.619.009-.066-.01-.166-.01-.166.125.022.229.097.366.184.136.088.147.529.147.651 0 .121.04.245.04.245a.7.7 0 0 1-.499-.295Zm-.689-.401c-.094-.164-.009-.555.004-.621.014-.064.004-.166.004-.166.124.032.221.115.35.212.129.099.105.538.096.659a.877.877 0 0 0 .02.249.695.695 0 0 1-.474-.333Zm.156.308c.196.118.455.185.455.185s.134.132.293.204c.2.092.435.131.435.131s.138.126.318.189c.2.072.445.079.445.079s.131.116.304.164c.215.061.481.056.481.056s.124.098.281.126c.225.041.51.014.51.014s.146.086.322.102c.22.022.479-.027.479-.027s.155.071.344.073c.209.004.454-.063.454-.063s.207.045.392.028c.215-.02.412-.102.412-.102s.186.045.366.012c.217-.039.435-.156.435-.156s.171.027.335-.017c.219-.058.451-.193.451-.193s.198.001.37-.063c.2-.076.378-.217.378-.217s.18-.002.355-.083c.193-.089.383-.257.383-.257s.176-.021.331-.111c.194-.111.372-.295.372-.295s.18-.046.314-.142c.188-.134.349-.328.349-.328s.175-.055.315-.168c.166-.135.3-.333.3-.333s.174-.078.303-.206c.158-.157.279-.369.279-.369s.157-.091.282-.24c.136-.161.241-.381.241-.381s.153-.104.255-.248c.123-.174.199-.394.199-.394s.143-.115.237-.275c.115-.199.185-.454.185-.454s.129-.119.205-.28c.093-.203.138-.458.138-.458s.119-.12.182-.293c.065-.179.074-.413.074-.413s.117-.163.17-.353c.061-.222.058-.476.058-.476s.098-.123.13-.297c.04-.217.014-.494.014-.494s.078-.152.096-.349c.019-.208-.024-.462-.024-.462s.067-.154.067-.323c-.002-.22-.069-.467-.069-.467s.046-.17.034-.344c-.015-.2-.089-.409-.089-.409s.026-.231-.007-.431c-.039-.226-.138-.423-.138-.423s.023-.178-.028-.365a1.736 1.736 0 0 0-.179-.401s.007-.179-.06-.362c-.071-.197-.215-.399-.215-.399s-.005-.182-.082-.352c-.09-.199-.255-.389-.255-.389s-.021-.172-.101-.31c-.114-.201-.299-.393-.299-.393s-.048-.167-.158-.321a2.61 2.61 0 0 0-.334-.368s-.018-.115-.123-.24c-.14-.17-.38-.364-.38-.364s-.068-.152-.204-.284a2.057 2.057 0 0 0-.355-.26.962.962 0 0 0-.316-.353 2.981 2.981 0 0 0-.325-.177s-.067-.132-.21-.231a2.27 2.27 0 0 0-.43-.215c-.088-.123-.177-.183-.326-.27-.147-.086-.32-.117-.348-.13-.027-.013-.135-.122-.287-.207-.152-.084-.461-.143-.461-.143s-.128-.125-.305-.188c-.204-.072-.461-.083-.461-.083s-.11-.109-.281-.154c-.21-.056-.49-.049-.49-.049s-.135-.103-.324-.142c-.216-.046-.488-.028-.488-.028s-.182-.083-.37-.1a1.558 1.558 0 0 0-.423.034s-.159-.052-.348-.054c-.21-.003-.453.044-.453.044s-.2-.039-.39-.022c-.205.018-.405.092-.405.092s-.214-.027-.396.004c-.22.039-.415.139-.415.139s-.203-.011-.378.036c-.211.056-.399.173-.399.173s-.212.005-.398.074c-.198.074-.373.214-.373.214s-.172-.013-.347.067c-.186.084-.376.263-.376.263s-.171.013-.329.103c-.199.11-.394.301-.394.301s-.173.056-.321.16a2.33 2.33 0 0 0-.339.302s-.155.046-.292.159c-.164.134-.315.34-.315.34s-.176.079-.321.223c-.154.153-.274.37-.274.37s-.153.088-.274.231c-.125.148-.219.351-.219.351s-.17.128-.285.289c-.125.176-.193.387-.193.387s-.146.13-.246.303c-.11.189-.175.425-.175.425s-.134.121-.213.287c-.09.187-.126.42-.126.42s-.122.147-.188.325c-.071.193-.088.419-.088.419s-.116.162-.164.348c-.053.209-.042.444-.042.444s-.101.154-.139.35c-.04.204-.017.448-.017.448s-.078.186-.096.379c-.019.199.024.407.024.407s-.056.211-.058.417c-.001.21.053.415.053.415s-.048.199-.029.398c.019.206.106.413.106.413s-.037.18-.005.37c.036.206.141.423.141.423s-.011.207.036.383c.057.203.172.378.172.378s-.007.202.054.377c.076.217.222.413.222.413s.004.177.078.334c.094.201.263.392.263.392s.014.175.102.331c.109.196.298.382.298.382s.034.181.138.328c.123.171.318.312.318.312s.047.17.156.302c.15.181.374.341.374.341s.052.14.17.257c.157.157.391.3.391.3s.074.143.21.254c.174.143.422.263.422.263s.1.153.238.248c.175.122.396.19.396.19s.111.155.275.253Zm1.758 2.597.168.281.286-.122-.235 1.119.373.073.322-1.488-.314-.072-.6.209Zm-1.945-.008 1.185.47.139-.383-1.176-.455-.148.368Zm20.171-10.04c-.156.269-.792.473-.897.507-.105.033-.238.13-.238.13-.063-.195-.031-.395-.004-.654.026-.26.68-.6.866-.691.187-.091.346-.244.346-.244.132.288.085.681-.073.952Zm-.105 1.318c-.185.256-.848.407-.959.432-.11.026-.258.114-.258.114-.041-.206.016-.408.074-.668.057-.26.752-.537.946-.609.194-.071.366-.207.366-.207.1.295.015.681-.169.938Zm-.211 1.3c-.201.244-.871.354-.984.372-.113.019-.265.097-.265.097-.028-.208.042-.405.116-.661.074-.256.785-.49.984-.55.198-.059.378-.183.378-.183.081.301-.029.68-.228.925h-.001Zm-.346 1.277c-.225.221-.906.258-1.019.266-.113.005-.274.068-.274.068-.004-.209.086-.399.187-.646.102-.246.835-.403 1.038-.44.204-.039.397-.143.397-.143.047.308-.103.674-.329.895Zm-.466 1.276c-.24.206-.921.196-1.035.195-.113-.002-.278.049-.278.049.01-.208.114-.391.232-.63.119-.239.861-.346 1.066-.37.206-.024.406-.115.406-.115.025.311-.15.664-.391.871Zm-.553 1.198c-.26.182-.936.107-1.049.096a1.124 1.124 0 0 0-.282.022c.03-.207.151-.379.292-.605.141-.227.89-.262 1.098-.267.207-.004.414-.076.414-.076-.003.313-.214.648-.473.83Zm-.652 1.163c-.27.165-.942.049-1.053.03-.112-.02-.283.005-.283.005.045-.205.176-.369.332-.587.154-.217.905-.204 1.112-.197.207.009.418-.049.418-.049-.025.311-.255.632-.525.798h-.001Zm-.78 1.1c-.286.137-.941-.047-1.05-.077-.109-.031-.281-.024-.281-.024.064-.199.212-.349.389-.55.177-.199.921-.112 1.127-.083.205.03.422-.006.422-.006-.057.306-.32.603-.607.74Zm-.839 1.026c-.297.114-.935-.124-1.04-.164-.107-.039-.279-.047-.279-.047.082-.193.242-.331.435-.514.194-.186.928-.035 1.13.011.202.047.421.028.421.028-.082.301-.369.575-.667.686Zm-.94.933c-.307.085-.92-.209-1.022-.257-.101-.049-.272-.073-.272-.073.098-.185.271-.307.48-.473.21-.167.928.048 1.125.113.196.064.416.066.416.066-.11.291-.421.538-.727.624Zm-1.033.871c-.312.057-.895-.291-.992-.349a1.218 1.218 0 0 0-.266-.096c.115-.175.298-.281.523-.427.224-.148.919.131 1.109.213.189.082.408.103.408.103-.136.281-.469.499-.782.556Zm-1.091.752c-.318.032-.862-.362-.954-.428-.09-.065-.254-.117-.254-.117.132-.166.327-.257.564-.385.24-.128.903.207 1.084.303.181.097.397.137.397.137-.165.269-.518.459-.837.49Zm-1.146.67c-.319-.003-.82-.451-.903-.526a1.088 1.088 0 0 0-.24-.143c.15-.151.352-.221.603-.323.251-.103.875.299 1.044.415.169.116.381.177.381.177-.193.25-.565.401-.885.4Zm-1.207.576c-.314-.026-.778-.512-.855-.592-.077-.081-.227-.161-.227-.161.157-.139.362-.193.615-.278.254-.083.842.364 1.002.492.16.129.363.205.363.205-.206.235-.583.359-.898.334Zm-1.246.458c-.316-.052-.738-.573-.808-.659-.07-.088-.215-.18-.215-.18.172-.125.383-.163.648-.225.263-.062.815.432.964.573.149.139.348.233.348.233-.23.217-.622.309-.937.258Zm-1.292.36c-.308-.084-.67-.648-.73-.742-.061-.094-.194-.201-.194-.201.184-.105.398-.12.668-.154.268-.034.764.517.897.673.132.156.319.269.319.269-.254.192-.653.241-.96.155Zm-1.308.248c-.3-.111-.61-.704-.662-.802-.052-.1-.175-.217-.175-.217.194-.09.408-.087.679-.096.271-.011.716.582.834.748.118.167.294.296.294.296-.269.168-.672.183-.97.071Zm-1.339.119c-.288-.137-.544-.755-.587-.857-.043-.104-.155-.232-.155-.232.201-.072.415-.051.685-.036.271.014.66.643.763.819.103.176.266.321.266.321-.282.144-.685.123-.972-.015Zm-1.337.001c-.275-.161-.477-.799-.51-.905a1.07 1.07 0 0 0-.133-.243c.205-.056.416-.016.686.022.268.037.6.695.687.88.088.185.238.343.238.343-.295.118-.693.064-.968-.097Zm-1.319-.107c-.26-.184-.405-.836-.429-.945-.024-.109-.113-.254-.113-.254.211-.037.417.021.681.08.265.06.54.745.61.936.071.191.207.361.207.361-.304.094-.696.006-.956-.178Zm-1.304-.235c-.245-.202-.341-.863-.358-.972-.016-.111-.093-.263-.093-.263.213-.022.414.051.673.129.259.079.482.782.54.977.056.196.178.376.178.376-.309.072-.694-.045-.94-.247Zm-1.302-.344c-.223-.226-.253-.893-.259-1.003-.005-.111-.066-.271-.066-.271.215 0 .407.092.657.195.251.105.401.826.438 1.026.037.2.141.391.141.391-.315.041-.687-.113-.911-.338Zm-1.238-.446c-.205-.242-.181-.91-.177-1.021.004-.111-.045-.274-.045-.274.214.017.399.124.64.247s.333.853.353 1.057c.021.202.109.4.109.4-.317.016-.675-.166-.88-.409Zm-1.409-2.197s-.382-.534-1.01-.65c0 0-.224-.488-.969-.758 0 0-.153-.53-.871-.815 0 0-.074-.465-.815-.939 0 0-.084-.511-.721-.971 0 0-.051-.585-.629-1.031 0 0 .033-.496-.54-1.118 0 0 .01-.672-.438-1.132 0 0 .052-.708-.344-1.155 0 0 .126-.607-.233-1.145-.084-.138.051-.213.046-.396-.004-.185-.074-.64-.19-.875 0 0 .264-.473-.033-1.2 0 0 .275-.414.084-1.233 0 0 .307-.401.181-1.211 0 0 .317-.253.284-1.164 0 0 .349-.221.392-1.15 0 0 .428-.294.488-1.118 0 0 .415-.157.578-1.059 0 0 .47-.216.675-.985 0 0 .242-.165.382-.336.14-.17.321-.441.39-.644 0 0 .318-.133.513-.395.196-.263.312-.502.312-.502s.54-.111.937-.815c0 0 .521-.036.973-.712 0 0 .511-.042 1.033-.617 0 0 .568.009 1.089-.548 0 0 .559.087 1.137-.442 0 0 .507.134 1.173-.34 0 0 .461.189 1.182-.225 0 0 .439.193 1.225-.148 0 0 .368.267 1.225-.018 0 0 .489.272 1.196.077 0 0 .373.295 1.197.185 0 0 .363.373 1.201.285 0 0 .224.359 1.155.382 0 0 .177.368 1.099.484 0 0 .209.414 1.08.584 0 0 .186.418 1.001.658 0 0 .14.428.927.754 0 0 .209.525.88.829 0 0 .056.437.815.92 0 0 .051.474.721.985 0 0 .062.575.63 1.026 0 0 .022.612.539 1.09 0 0-.055.576.438 1.132 0 0-.046.714.344 1.164 0 0-.139.552.234 1.197 0 0-.183.538.14 1.196 0 0-.239.538.031 1.225 0 0-.264.326-.093 1.242 0 0-.284.345-.177 1.16 0 0-.331.432-.283 1.159 0 0-.359.405-.382 1.178 0 0-.424.313-.495 1.114 0 0-.39.243-.586 1.067 0 0-.484.336-.651.998 0 0-.536.281-.778.989 0 0-.461.139-.82.838 0 0 0 .015-.204.115-.205.101-.518.406-.722.709 0 0-.065.023-.275.11-.209.088-.508.327-.703.631 0 0-.587.05-1.048.635 0 0-.494-.046-1.084.533 0 0-.559-.054-1.145.456 0 0-.528-.134-1.141.34 0 0-.56-.146-1.206.25 0 0-.49-.212-1.216.132 0 0-.479-.239-1.211.028 0 0-.46-.281-1.215-.074 0 0-.363-.303-1.201-.169 0 0-.298-.345-1.188-.296 0 0-.344-.409-1.155-.386 0 0-.316-.432-1.075-.493 0 0-.363-.482-1.08-.592Zm.192 1.639c-.179-.261-.089-.923-.074-1.033.016-.111-.016-.277-.016-.277.21.037.384.162.611.308.228.145.247.881.247 1.085 0 .203.068.41.068.41-.317-.016-.656-.232-.836-.493Zm-1.152-.67c-.159-.274-.016-.926.008-1.035.024-.109.006-.277.006-.277.206.052.37.19.585.354.215.163.176.897.159 1.101-.016.203.035.413.035.413-.316-.039-.635-.281-.793-.556Zm-.337-.13c-.312-.065-.61-.333-.746-.618-.135-.286.06-.925.093-1.032.032-.106.028-.276.028-.276.202.07.353.22.555.4.2.179.1.909.069 1.111-.034.201.001.415.001.415Zm-1.05-1.233c-.046.202-.027.422-.027.422-.297-.078-.566-.363-.675-.656-.107-.291.126-.912.165-1.015.038-.103.046-.267.046-.267.185.074.318.226.498.409.179.183.037.906-.007 1.107Zm-.979-.867c-.064.196-.067.417-.067.417-.287-.106-.528-.414-.609-.716-.078-.3.214-.897.263-.996.048-.098.072-.261.072-.261.176.091.294.254.455.453.161.201-.05.906-.114 1.103Zm-1.002-.532c-.276-.134-.485-.465-.534-.773-.049-.305.301-.871.359-.965.058-.093.097-.252.097-.252.167.107.269.281.409.495.141.214-.14.896-.223 1.086-.083.189-.108.409-.108.409Zm-.694-1.459c-.099.183-.14.401-.14.401-.265-.156-.447-.501-.472-.812-.025-.308.37-.846.434-.934.066-.088.117-.245.117-.245.159.121.245.303.368.526.124.225-.209.882-.307 1.064Zm-.705-1.114a1.6 1.6 0 0 0-.172.388c-.252-.176-.404-.535-.403-.848 0-.308.436-.813.509-.895.072-.083.136-.234.136-.234.148.132.219.319.324.552.104.234-.281.864-.394 1.038v-.001Zm-.81-.78c-.233-.199-.35-.569-.321-.88.03-.308.514-.769.593-.845.079-.076.159-.22.159-.22.135.145.188.338.269.579.082.243-.362.835-.491.997-.129.163-.209.369-.209.369Zm-.55-1.229c-.215-.218-.301-.597-.245-.904.057-.305.577-.723.663-.793.085-.069.177-.206.177-.206.122.157.158.353.218.601.061.248-.432.8-.574.951a1.648 1.648 0 0 0-.239.351Zm-.586-2.185c.086-.298.645-.665.736-.726.093-.06.196-.189.196-.189.106.168.124.367.16.618.037.255-.507.757-.663.893-.157.138-.274.327-.274.327-.192-.236-.242-.623-.155-.923Zm-.23-1.298c.106-.293.688-.623.783-.678.096-.053.208-.175.208-.175.095.174.099.374.119.628.019.254-.557.72-.721.847-.166.128-.294.309-.294.309-.177-.249-.2-.637-.095-.931Zm-.123-.387c-.152-.265-.136-.653-.001-.936.134-.279.746-.551.847-.597.101-.044.226-.154.226-.154.076.183.06.382.053.637-.006.256-.626.662-.802.772-.178.11-.323.278-.323.278Zm-.01-2.267c.157-.268.79-.489.894-.526.104-.036.237-.135.237-.135.061.188.029.385.001.638-.028.254-.68.61-.864.705a1.653 1.653 0 0 0-.346.251c-.129-.277-.08-.662.078-.933Zm.118-1.335c.178-.255.827-.426.933-.455.107-.028.248-.116.248-.116.046.191-.002.386-.05.636-.048.251-.725.555-.918.636-.192.08-.364.223-.364.223-.106-.286-.028-.667.151-.924Zm.204-1.304c.196-.24.857-.361.966-.38.108-.02.255-.098.255-.098.03.195-.033.385-.099.631-.068.247-.768.497-.967.562-.198.066-.379.195-.379.195-.083-.293.024-.667.224-.91Zm.362-1.312c.226-.214.896-.252 1.007-.258.11-.006.265-.065.265-.065.006.197-.081.378-.178.613-.098.237-.825.399-1.03.438a1.671 1.671 0 0 0-.402.147c-.044-.301.109-.658.338-.875Zm.45-1.227c.241-.199.911-.192 1.023-.192.11.002.269-.047.269-.047-.007.197-.107.372-.22.6-.114.23-.849.344-1.057.37a1.684 1.684 0 0 0-.411.119c-.025-.303.154-.649.396-.85Zm.546-1.214c.259-.175.926-.102 1.035-.091.111.012.273-.021.273-.021-.026.196-.143.36-.279.576-.137.218-.879.259-1.088.265-.21.005-.422.078-.422.078.006-.305.219-.632.481-.807Zm.668-1.16c.272-.154.931-.033 1.04-.012.11.02.274-.001.274-.001-.042.193-.171.348-.323.554-.152.206-.896.191-1.105.182-.209-.01-.426.047-.426.047.029-.304.266-.614.54-.77Zm.76-1.086c.283-.131.931.046 1.037.074.106.029.272.024.272.024-.058.188-.198.332-.368.523-.17.194-.91.116-1.117.09-.208-.027-.428.01-.428.01.055-.299.317-.588.604-.721Zm.856-1.034c.294-.107.923.126 1.027.163.103.038.27.047.27.047-.075.182-.228.313-.414.49-.186.178-.916.036-1.12-.007-.205-.045-.428-.027-.428-.027.081-.294.368-.559.665-.666Zm.925-.941c.304-.078.908.212 1.008.259.099.048.263.071.263.071-.092.176-.257.291-.459.45-.202.16-.916-.05-1.115-.113-.199-.064-.423-.066-.423-.066.108-.285.42-.522.726-.601Zm1.033-.867c.309-.051.884.291.979.347.094.056.256.095.256.095-.108.166-.282.266-.497.407-.216.14-.909-.13-1.1-.211a1.67 1.67 0 0 0-.416-.105c.134-.273.466-.482.778-.533Zm1.096-.759c.314-.024.855.368.944.433.09.064.248.117.248.117-.123.155-.306.24-.534.361-.227.121-.892-.21-1.076-.308-.185-.097-.404-.14-.404-.14.158-.261.507-.44.822-.463Zm1.155-.663c.313.006.813.448.896.521.083.073.234.14.234.14-.137.144-.328.21-.565.308-.239.099-.868-.294-1.042-.409-.174-.115-.388-.178-.388-.178.183-.245.548-.389.865-.382Zm1.186-.593c.312.026.779.513.855.594.077.08.223.158.223.158-.147.14-.342.198-.586.285-.246.088-.844-.357-1.008-.486-.166-.13-.375-.207-.375-.207.201-.243.575-.37.891-.344Zm1.296-.447c.309.058.715.592.783.68.066.087.203.181.203.181-.166.124-.368.161-.623.221-.257.061-.8-.445-.949-.59-.149-.146-.348-.246-.348-.246.231-.219.623-.306.934-.246Zm1.268-.353c.303.08.672.64.733.733.06.091.191.194.191.194-.173.112-.378.135-.637.178-.261.044-.768-.498-.905-.653-.139-.156-.331-.269-.331-.269.246-.203.642-.263.949-.183Zm1.324-.243c.297.108.609.699.661.797.051.097.171.211.171.211-.183.096-.389.099-.65.119-.265.019-.718-.567-.84-.734a1.612 1.612 0 0 0-.304-.299c.265-.179.665-.202.962-.094Zm1.315-.122c.284.133.545.749.587.851.042.101.153.225.153.225-.192.08-.396.066-.66.062-.264-.003-.663-.626-.771-.804-.108-.177-.276-.322-.276-.322.278-.157.679-.146.967-.012Zm1.344.013c.269.161.464.79.497.894.031.103.127.236.127.236-.199.056-.401.019-.662-.015-.262-.034-.596-.684-.684-.869a1.6 1.6 0 0 0-.242-.347c.293-.119.691-.062.964.101Zm1.314.112c.257.179.404.824.428.93.024.106.109.246.109.246-.202.044-.402-.006-.659-.056-.259-.05-.543-.726-.616-.916-.075-.193-.214-.364-.214-.364.302-.103.694-.02.952.16Zm1.314.231c.239.202.324.858.338.966.014.107.085.254.085.254-.204.026-.398-.043-.65-.116-.253-.074-.471-.772-.527-.969a1.582 1.582 0 0 0-.179-.381c.31-.075.693.043.933.246Zm1.298.349c.216.225.234.886.237.994.003.109.059.262.059.262-.206.005-.392-.082-.635-.181-.244-.099-.39-.815-.426-1.016-.035-.204-.138-.398-.138-.398.316-.043.685.113.903.339Zm1.236.44c.197.241.161.901.154 1.01a1.04 1.04 0 0 0 .038.266c-.207-.013-.386-.114-.619-.232-.236-.118-.321-.844-.339-1.047-.019-.206-.107-.408-.107-.408.32-.017.674.167.873.411Zm1.207.563c.178.256.089.911.075 1.019-.015.107.016.268.016.268-.204-.028-.374-.144-.599-.278-.226-.136-.253-.866-.256-1.071-.002-.206-.073-.414-.073-.414.318.007.658.218.837.476Zm1.173.654c.153.272.002.915-.023 1.021-.025.106-.009.269-.009.269-.202-.047-.359-.178-.57-.333-.212-.156-.17-.886-.152-1.09a1.575 1.575 0 0 0-.034-.419c.317.037.634.279.788.552Zm.333.139c.313.061.611.326.743.611.131.281-.068.912-.101 1.016-.034.103-.03.267-.03.267-.197-.062-.345-.204-.542-.375-.199-.171-.101-.896-.069-1.098a1.496 1.496 0 0 0-.001-.421Zm1.054 1.197c.052-.199.039-.419.039-.419.307.091.576.383.68.678.103.294-.159.902-.201 1.003a.99.99 0 0 0-.056.262c-.19-.08-.323-.235-.502-.425-.183-.19-.013-.901.04-1.099Zm.953.876c.068-.195.074-.414.074-.414.297.114.544.426.623.729.079.3-.23.886-.281.983-.051.096-.077.258-.077.258-.182-.096-.302-.261-.467-.463-.165-.204.059-.9.128-1.093Zm.992.555c.288.137.507.468.563.777.054.305-.301.865-.36.957-.058.092-.097.251-.097.251-.174-.11-.281-.284-.428-.498-.149-.217.132-.893.216-1.08.084-.189.106-.407.106-.407Zm.706 1.433c.104-.18.149-.395.149-.395.272.167.456.518.478.831.021.309-.391.83-.459.915a1.043 1.043 0 0 0-.123.239c-.162-.127-.249-.311-.374-.539-.124-.23.226-.874.329-1.051Zm.705 1.078c.117-.171.18-.381.18-.381.257.187.411.554.407.866-.002.31-.457.795-.533.875-.074.08-.142.229-.142.229-.15-.14-.222-.33-.327-.569-.106-.239.297-.852.415-1.02Zm.816.812c.241.208.363.585.334.897-.03.309-.524.754-.606.828-.081.074-.161.216-.161.216-.138-.151-.195-.347-.279-.593-.085-.247.369-.825.5-.983.131-.16.212-.365.212-.365Zm.532 1.214c.227.223.325.607.275.916-.049.306-.57.72-.656.788-.086.068-.176.206-.176.206-.128-.16-.171-.359-.24-.609-.068-.252.421-.8.562-.951.142-.151.235-.35.235-.35Zm.613 2.219c-.081.299-.641.66-.733.719-.092.06-.195.188-.195.188-.112-.172-.135-.374-.177-.631-.043-.257.499-.754.655-.89.157-.135.269-.325.269-.325.203.245.262.636.181.939Zm.226 1.297c-.108.291-.698.601-.795.652a1.037 1.037 0 0 0-.211.169c-.097-.18-.101-.383-.12-.642-.02-.26.565-.709.731-.83.169-.122.298-.3.298-.3.181.26.204.656.097.951Zm.115.384c.156.275.143.672.01.955-.133.281-.749.538-.85.581-.101.042-.227.15-.227.15-.078-.189-.065-.392-.061-.651.004-.261.627-.656.805-.762.178-.107.323-.273.323-.273Zm.42 1.82c-.001-.369-.115-.784-.115-.784s.078-.285.056-.578c-.025-.335-.15-.686-.15-.686s.045-.39-.012-.726a2.85 2.85 0 0 0-.23-.71s.038-.299-.046-.615a3.079 3.079 0 0 0-.299-.671s.009-.301-.103-.608c-.118-.331-.36-.67-.36-.67s-.008-.307-.138-.592c-.151-.334-.427-.653-.427-.653s-.037-.289-.169-.522c-.193-.338-.503-.659-.503-.659s-.079-.282-.264-.541c-.224-.314-.563-.618-.563-.618s-.03-.192-.205-.403c-.236-.285-.635-.611-.635-.611s-.117-.256-.344-.477c-.243-.235-.596-.437-.596-.437a1.632 1.632 0 0 0-.529-.593 5.093 5.093 0 0 0-.548-.297s-.111-.222-.351-.388a3.752 3.752 0 0 0-.721-.36c-.149-.208-.298-.31-.547-.454-.248-.145-.539-.196-.585-.22-.046-.023-.229-.205-.482-.346-.255-.141-.773-.242-.773-.242s-.215-.209-.514-.315c-.341-.12-.772-.139-.772-.139s-.185-.184-.471-.26c-.353-.093-.822-.081-.822-.081s-.227-.173-.544-.24c-.362-.076-.819-.046-.819-.046s-.306-.141-.622-.167c-.347-.029-.709.056-.709.056s-.266-.087-.584-.092c-.353-.004-.761.073-.761.073s-.334-.064-.651-.036c-.348.032-.68.157-.68.157s-.36-.048-.667.006c-.369.065-.696.233-.696.233s-.34-.019-.634.06c-.352.095-.668.291-.668.291s-.356.008-.669.125c-.334.124-.625.36-.625.36s-.289-.023-.584.111c-.312.143-.63.442-.63.442s-.287.023-.554.172c-.333.187-.66.506-.66.506s-.288.095-.538.269c-.299.21-.569.506-.569.506s-.259.078-.49.269c-.274.226-.528.57-.528.57s-.297.135-.539.376c-.256.256-.46.622-.46.622s-.256.148-.458.387c-.21.249-.368.591-.368.591s-.287.213-.479.484c-.209.296-.325.65-.325.65s-.245.219-.412.51c-.184.319-.292.713-.292.713s-.225.205-.36.485c-.149.313-.21.705-.21.705s-.204.245-.315.544c-.12.326-.148.706-.148.706s-.193.272-.274.584c-.092.351-.07.745-.07.745s-.171.259-.236.589c-.066.341-.027.754-.027.754s-.132.311-.161.635c-.031.335.04.684.04.684s-.095.354-.098.701a3.02 3.02 0 0 0 .088.696s-.08.334-.048.669c.033.346.179.692.179.692s-.064.304-.009.623c.059.346.238.711.238.711s-.019.349.06.643c.093.341.286.635.286.635s-.009.34.094.634c.127.363.373.695.373.695s.005.295.129.56c.156.335.44.657.44.657s.024.295.171.557c.185.33.502.644.502.644s.056.303.231.549c.206.287.534.525.534.525s.079.283.26.505c.25.305.628.574.628.574s.089.236.286.432c.265.262.657.504.657.504s.123.24.351.427c.293.239.709.441.709.441s.167.257.399.418c.294.204.666.32.666.32s.183.259.46.424c.33.198.763.31.763.31s.225.221.492.343c.335.155.731.22.731.22s.231.212.533.318c.336.119.747.134.747.134s.22.193.511.275c.36.101.805.094.805.094s.206.164.472.212c.378.066.854.023.854.023s.247.145.543.172a3.38 3.38 0 0 0 .802-.047s.261.119.579.124c.35.005.761-.106.761-.106s.346.075.657.046c.36-.033.693-.17.693-.17s.31.073.612.018a2.87 2.87 0 0 0 .732-.263s.285.047.559-.025c.37-.099.759-.326.759-.326s.333.002.621-.106c.336-.127.634-.365.634-.365s.301-.003.595-.139c.324-.15.643-.432.643-.432s.296-.035.557-.185c.323-.188.624-.498.624-.498s.301-.077.526-.237c.315-.224.585-.552.585-.552s.295-.092.527-.281c.279-.227.505-.558.505-.558s.291-.132.508-.347c.266-.265.467-.623.467-.623s.264-.152.474-.402c.228-.27.405-.64.405-.64s.257-.174.427-.416c.208-.292.334-.663.334-.663s.24-.19.397-.462c.194-.333.311-.761.311-.761s.218-.2.344-.473c.157-.34.232-.768.232-.768s.201-.201.306-.491c.11-.303.124-.695.124-.695s.198-.274.286-.593c.102-.373.096-.8.096-.8s.165-.206.218-.498c.067-.365.025-.831.025-.831s.131-.256.161-.585c.031-.351-.039-.776-.039-.776s.111-.26.11-.544Z" style="fill:#7c2e9a" transform="matrix(3.19574 0 0 3.19571 -59.285 -126.026)"/></svg>