<svg xmlns="http://www.w3.org/2000/svg" width="154" height="157" fill="none"><g filter="url(#a)"><path fill="#fff" d="M13 0h128v128H13z"/><path fill="#00A0E9" fill-rule="evenodd" d="M38.328 53c6.24 0 11.328 5.089 11.328 11.328 0 6.24-5.088 11.328-11.328 11.328-6.24 0-11.328-5.088-11.328-11.328C27 58.088 32.089 53 38.328 53Z" clip-rule="evenodd"/><path fill="#fff" fill-rule="evenodd" d="M38.328 56.732c4.184 0 7.596 3.412 7.596 7.596s-3.412 7.597-7.596 7.597-7.597-3.413-7.597-7.597c0-4.184 3.413-7.596 7.597-7.596ZM28.371 65.164c.002.052.09.063.192.098.062.02.125.077.193.084.45.083.57-.09.739-.437l.3-.024a.87.87 0 0 0 .292-.299 1.427 1.427 0 0 1 .046-.61l-.094-.186a.578.578 0 0 1-.232-.02c-.05.223-.051.326-.069.444.084.277 0 .433-.172.412.025-.168.024-.278-.141-.545a.495.495 0 0 1-.404-.1l-.375-.419c-.222.102-.39.268-.564.44-.348-.075-.577.057-.673.306.243-.027.457-.057.582.05.134.241.31.427.525.558.189-.092.387-.155.554.05-.235.162-.63.133-.699.198Zm-.06-.98c.04.077.12.115.239.113l.251.01a.218.218 0 0 0 .02-.193l-.228-.217c-.05-.089-.17-.054-.262.099-.024.063.002.124-.02.188Zm.634.338.078-.042.004-.098c-.043.002-.043-.035-.086-.034.015.045-.011.13.004.174Zm.195-.028.067-.058v-.162l-.066.058v.162ZM29.378 59.084c-.003-.063.019-.12.025-.192.007-.082 0-.179.03-.25.035-.12.133-.165.239-.165.054 0 .116.028.166.048.201.186.333.41.46.66.159-.055.237-.244.349-.37.034-.04.157-.214.278-.258.072-.026.116.026.153.12.025.065-.16.243-.17.302.15.175.303.267.423.595-.073.125-.157.296-.279.414-.086.084-.136.193-.202.265a.594.594 0 0 0-.483-.178c-.08.04-.163.044-.258-.067-.052-.135.12-.326.248-.505l-.166-.02c-.112-.126-.188-.267-.3-.467-.077.06-.202.027-.225-.055-.02-.076-.13.09-.288.123Zm1.047.828c.115-.236.156-.392.298-.547.148.027.231.104.248.23-.17.292-.352.398-.546.317ZM47.26 58.92c-.203.123-.411.166-.6.256a.796.796 0 0 1-.487.079.672.672 0 0 1-.066-.33c-.015-.106-.228-.16-.388-.117-.014.02.103.092.075.226a.46.46 0 0 0 .114.401c-.184.04-.357-.015-.53-.083-.3-.039-.286.104.422.647.266.011.487-.036.738-.118.226.257.557.619.665.65.092-.087 0-.255.005-.395a.992.992 0 0 0-.242-.157c-.103-.053-.226-.094-.238-.197.23-.126.46-.113.613-.286.091-.103.163-.232.207-.378-.057-.132-.178-.025-.288-.198Zm-1.313 1.18c.19.294.343.582.2.881-.11.17-.19.054-.276-.004-.069-.136-.161-.282-.093-.373.105-.141.057-.347.169-.503ZM49.01 63.61c-.184-.075-.32.02-.474.203.003.117.025.175.096.192.046.011.107-.008.163-.016.057-.007.11-.003.162-.027.153-.07.234-.412.053-.352Zm-.048.853c.098-.066.228-.114.148-.28-.178-.086-.28.033-.319.102-.07.047-.005.076.171.178Zm.467.427c-.31-.06-.445-.158-.697-.231.19.155.207.333.24.495.153.166.24.213.264.143.177-.12.316-.246.194-.407Zm-1.783-1.403c.136-.013.321.024.457.01.314.355.39.7.429 1.338-.033.07-.154.157-.228.156-.115-.07-.129-.131-.243-.2-.18.072-.413-.022-.65-.094-.096.027-.066.15-.007.294.034.08.1.17.064.248-.096.203-.22.09-.232.054-.06-.184-.117-.376-.09-.42-.052-.012-.051.021-.11.02-.275 0-.405-.097-.448-.222-.167-.324-.151-.583.21-.653.179-.239.335-.35.443-.178-.096.112-.04.337.083.612l.537.183c-.01-.095-.029-.29-.226-.306-.21-.017-.184-.16-.175-.23.328-.206.466.4.697.522.111-.147-.034-.38-.28-.713-.008-.015-.05-.123-.079-.12-.214.02-.39-.26-.152-.301Zm-.676.66c.016.152.042.301.058.453-.08-.01-.112-.031-.192-.042-.045-.135-.086-.234-.064-.276.067-.125.117-.164.198-.134ZM33.974 54.326c-.152.206-.158.54-.098.932-.014.042-.328.302-.373.536-.026.13 0 .27.06.21.09-.083.181-.164.272-.246.056.232-.003.47-.085.722.042.218.147.205.209.153l.375-.407.113.312c-.051.107-.118.063-.18.05.002.178.246.257.363.164-.005-.226-.138-.467-.248-.742.045-.23.17-.565.203-.806.01-.073-.062-.072-.048-.143-.035.046-.09.077-.084.14.017.165-.176.595-.24.443-.032-.094-.037-.199-.07-.293-.025-.074-.078-.137-.104-.21-.052-.185-.01-.359.06-.53.062-.263.089-.471-.125-.285Zm.854-.344c.059.177.102.425.138.611-.122.063-.244.062-.366.125-.01.11.014.158.05.252.03.12-.027.295.08.37.043.007.119-.02.163-.014-.114.233-.203.312-.12.462.022.109.097.137.18.075.114-.034.213-.106.326-.139.035.54.385.803.578 1.177-.053-.603-.129-1.09-.182-1.693.195-.174.073-.43-.222-.43-.214-.536-.449-.975-.625-.796Zm-.757 1.928c.046-.017.093-.002.105.033.013.034-.014.076-.06.092-.044.016-.091.001-.104-.033-.012-.035.014-.076.06-.093Zm.774-.835c.079.037.17.026.272-.032-.01-.088-.056-.115-.16-.14-.116.04-.16.077-.112.172Zm.167.463c.078.038.098-.079.2-.137-.04-.134-.115-.086-.118-.088-.117.038-.131.13-.082.225ZM41.627 54.516c-.112.128-.216.271-.312.43-.038.161-.18.09-.339-.014-.034.127.028.222.166.344-.076.185-.157.395-.242.492-.028.032-.057.052-.087.054a.71.71 0 0 1-.394.047c.032.292-.028.36.162.414.055-.061.182-.08.237-.141-.001.084.071.136.07.22.085-.007.162.023.227-.105l.054-.417c.204-.067.431-.253.639-.519.062.077.13.193.256.25-.077.036-.15.096-.228.132-.086-.014-.12-.023-.206-.037-.012.099-.08.17-.092.268l.41.432c-.174.014-.361.004-.45-.093-.07-.076-.063-.216-.05-.361-.114.056-.224.328-.256.495.278.155.604.224.938.195.117.069.034.27.152.339.224.131.743.052.968.183-.028-.034-.014-.065-.057-.091-.144-.087-.334-.171-.478-.298-.158-.14-.223-.23-.307-.337.248-.223.459-.625.327-.774-.051-.059-.194.02-.349.015.043-.102.117-.223.313-.164.103.031.2-.084.3-.126a.94.94 0 0 0 .101-.366c-.223.112-.354.18-.511.17.135-.24.136-.462.004-.668-.18.249-.3.484-.309.641-.21.178-.329.014-.51.095-.11.048-.222.147-.418.253-.095-.137-.037-.217.203-.346.223-.12.292-.567.068-.612Zm.453 1.476c.091-.055.209-.101.353-.14.017.155-.131.199-.22.373-.145-.103-.206-.169-.133-.233ZM36.599 72.87h.047l-.21.827-.177.771a.827.827 0 0 0-.022.13c0 .022.011.039.035.048.023.01.058.016.106.02.044.003.09.009.136.02l-.032.075a3.725 3.725 0 0 0-.462-.035c-.128 0-.266.012-.413.035l.026-.076a2.43 2.43 0 0 0 .26-.063c.049-.016.085-.057.11-.122.023-.065.043-.124.058-.177l.166-.635c.055-.248.082-.384.082-.41 0-.037-.015-.056-.047-.056-.023 0-.125.042-.305.126l-.032-.079c.198-.092.337-.161.417-.207.081-.046.166-.11.257-.192Zm.45 1.9.018-.09c.478-.011.79-.257.938-.737a.542.542 0 0 1-.35.141.351.351 0 0 1-.286-.126.539.539 0 0 1-.104-.352c0-.203.056-.374.169-.511a.53.53 0 0 1 .43-.206c.144 0 .26.055.349.165.088.11.132.258.132.445 0 .332-.118.626-.353.884s-.55.387-.944.387Zm.984-.947c.03-.163.044-.295.044-.393a.675.675 0 0 0-.07-.339c-.045-.078-.11-.117-.191-.117-.09 0-.16.05-.21.149a.958.958 0 0 0-.073.417c0 .145.021.251.064.32.043.068.096.102.16.102.079 0 .171-.047.276-.139Zm1.922-.978h.085l-.11.226c-.015.034-.079.05-.192.05-.247 0-.396.006-.447.016a.609.609 0 0 0-.053.18c0 .018.008.037.025.056a.142.142 0 0 0 .066.041c.128.046.223.11.285.194a.52.52 0 0 1 .093.319.805.805 0 0 1-.26.585c-.173.172-.364.258-.574.258a.42.42 0 0 1-.214-.042c-.047-.028-.07-.064-.07-.105 0-.023.01-.044.029-.063a.084.084 0 0 1 .06-.029c.023 0 .054.015.094.044a.318.318 0 0 0 .201.066.51.51 0 0 0 .373-.179.562.562 0 0 0 .172-.397.43.43 0 0 0-.084-.26.577.577 0 0 0-.237-.183.253.253 0 0 1-.084-.05.097.097 0 0 1-.023-.07c0-.031.017-.1.05-.204l.104-.325a.287.287 0 0 1 .157-.044h.33a.42.42 0 0 0 .14-.017.192.192 0 0 0 .084-.068Zm1.623.04-.018.092c-.49.016-.802.263-.938.74a.542.542 0 0 1 .35-.142c.125 0 .221.044.289.132.067.088.1.203.1.346 0 .208-.056.38-.17.514a.535.535 0 0 1-.428.203.43.43 0 0 1-.352-.163c-.088-.11-.132-.263-.132-.463 0-.201.053-.402.16-.6.107-.2.259-.36.455-.48.196-.119.424-.179.684-.179Zm-.988.95c-.027.156-.04.29-.04.404 0 .148.023.26.07.335.047.074.11.111.187.111.093 0 .163-.05.211-.152a.935.935 0 0 0 .073-.398.723.723 0 0 0-.059-.326c-.038-.074-.092-.112-.162-.112-.081 0-.175.046-.28.139Z" clip-rule="evenodd"/><path stroke="#fff" stroke-width=".216" d="M36.599 72.87h.047l-.21.827-.177.771a.827.827 0 0 0-.022.13c0 .022.011.039.035.048.023.01.058.016.106.02.044.003.09.009.136.02l-.032.075a3.725 3.725 0 0 0-.462-.035c-.128 0-.266.012-.413.035l.026-.076a2.43 2.43 0 0 0 .26-.063c.049-.016.085-.057.11-.122.023-.065.043-.124.058-.177l.166-.635c.055-.248.082-.384.082-.41 0-.037-.015-.056-.047-.056-.023 0-.125.042-.305.126l-.032-.079c.198-.092.337-.161.417-.207.081-.046.166-.11.257-.192Zm.45 1.9.018-.09c.478-.011.79-.257.938-.737a.542.542 0 0 1-.35.141.351.351 0 0 1-.286-.126.539.539 0 0 1-.104-.352c0-.203.056-.374.169-.511a.53.53 0 0 1 .43-.206c.144 0 .26.055.349.165.088.11.132.258.132.445 0 .332-.118.626-.353.884s-.55.387-.944.387Zm.984-.947c.03-.163.044-.295.044-.393a.675.675 0 0 0-.07-.339c-.045-.078-.11-.117-.191-.117-.09 0-.16.05-.21.149a.958.958 0 0 0-.073.417c0 .145.021.251.064.32.043.068.096.102.16.102.079 0 .171-.047.276-.139Zm1.922-.978h.085l-.11.226c-.015.034-.079.05-.192.05-.247 0-.396.006-.447.016a.609.609 0 0 0-.053.18c0 .018.008.037.025.056a.142.142 0 0 0 .066.041c.128.046.223.11.285.194a.52.52 0 0 1 .093.319.805.805 0 0 1-.26.585c-.173.172-.364.258-.574.258a.42.42 0 0 1-.214-.042c-.047-.028-.07-.064-.07-.105 0-.023.01-.044.029-.063a.084.084 0 0 1 .06-.029c.023 0 .054.015.094.044a.318.318 0 0 0 .201.066.51.51 0 0 0 .373-.179.562.562 0 0 0 .172-.397.43.43 0 0 0-.084-.26.577.577 0 0 0-.237-.183.253.253 0 0 1-.084-.05.097.097 0 0 1-.023-.07c0-.031.017-.1.05-.204l.104-.325a.287.287 0 0 1 .157-.044h.33a.42.42 0 0 0 .14-.017.192.192 0 0 0 .084-.068Zm1.623.04-.018.092c-.49.016-.802.263-.938.74a.542.542 0 0 1 .35-.142c.125 0 .221.044.289.132.067.088.1.203.1.346 0 .208-.056.38-.17.514a.535.535 0 0 1-.428.203.43.43 0 0 1-.352-.163c-.088-.11-.132-.263-.132-.463 0-.201.053-.402.16-.6.107-.2.259-.36.455-.48.196-.119.424-.179.684-.179Zm-.988.95c-.027.156-.04.29-.04.404 0 .148.023.26.07.335.047.074.11.111.187.111.093 0 .163-.05.211-.152a.935.935 0 0 0 .073-.398.723.723 0 0 0-.059-.326c-.038-.074-.092-.112-.162-.112-.081 0-.175.046-.28.139Z" clip-rule="evenodd"/><path fill="#F08300" fill-rule="evenodd" d="M34.775 62.382c-.008.008-.012-.021-.017-.031-.35-.646-.687-1.387-.69-2.271.343-2.747 5.242.974 6.119 1.7l.491-.038c-.845-1.042-2.263-2.107-3.626-2.592-2.333-.83-4.467-.05-2.531 3.574-.17 1.643.56 2.248 1.7 2.38.774.724 2.133 2.123 3.664 2.736 2.281.913 4.582.49 2.984-3.227h-.529c2.88 5.411-4.096 2.503-5.553.113 1.635-1.016.221-3.717-1.7-2.606a1.471 1.471 0 0 0-.312.262Z" clip-rule="evenodd"/><path fill="#fff" fill-rule="evenodd" d="M36.939 63.592c0-.13-.005-.256-.015-.377a.884.884 0 0 0-.106-.348c-.151-.301-.428-.453-.83-.453-.585.03-.892.373-.922 1.027-.01.675.297 1.007.921.998.544 0 .84-.202.891-.605h-.528c-.05.171-.172.252-.363.242-.232.01-.343-.151-.332-.484h1.284Zm-1.284-.392c.01-.272.12-.408.332-.408.232 0 .348.136.348.408h-.68Z" clip-rule="evenodd"/><path fill="#0068B7" fill-rule="evenodd" d="M40.35 64.558c.36-.022.47.11.83.088-.95 1.102-3.326 3.436-5.315 3.524-1.386.06-2.841-.81-1.542-3.669.18.158.205.218.385.376-.936 1.555-.593 2.515.078 2.887 1.259.699 4.334-1.443 5.565-3.206ZM37.106 61.78c-.312.018-.406-.096-.717-.076.562-.605 1.678-1.627 2.922-2.33.545-.31 1.116-.613 1.675-.655 1.23-.095 2.974.668 1.84 3.11-.156-.137-.24-.063-.397-.199.871-1.63.191-2.618-.51-2.624-1.46-.013-3.791 1.216-4.813 2.773ZM33.444 62.59v1.04c.007.227-.02.382-.082.464-.062.097-.172.145-.33.145-.158 0-.271-.048-.34-.145-.062-.082-.09-.236-.083-.463v-1.04h-.412v1.194c.014.474.292.718.835.732.529-.014.803-.258.824-.732V62.59h-.412Z" clip-rule="evenodd"/><path fill="#0068B7" fill-rule="evenodd" d="M39.879 63.06c-.022-.407-.26-.622-.713-.644-.558.03-.848.26-.871.69 0 .28.23.472.69.577a.328.328 0 0 0 .08.023c.264.053.395.15.395.294-.007.174-.147.264-.418.271-.234-.014-.351-.143-.351-.384h-.453c-.007.46.26.69.804.69.588-.015.886-.241.894-.679.007-.286-.234-.48-.724-.577a.374.374 0 0 0-.057-.011c-.272-.038-.4-.136-.385-.295.008-.165.121-.256.34-.271.218 0 .331.106.34.317h.429ZM40.362 62.812h.623v1.742h.452v-1.742h.623v-.35h-1.698v.35ZM44.334 62.984c-.03-.442-.325-.666-.883-.674-.558.021-.848.362-.87 1.022.014.646.305.976.87.99.566-.007.86-.224.883-.653h-.476c-.007.239-.142.362-.407.369-.249-.014-.38-.25-.396-.706.015-.464.147-.702.396-.716.257.007.392.13.407.368h.476Z" clip-rule="evenodd"/><path fill="#00A0E9" fill-rule="evenodd" d="M107.59 55.593c.057.911-.168 1.706-.195 2.51-.024.726-.229 1.32-.602 1.813-.459-.048-.832-.097-1.248-.36-.394-.142-.961.49-1.099 1.118.046.087.5-.188.912.15.483.397 1.099.455 1.58.325-.194.7-.692 1.198-1.233 1.668-.672.961-.156 1.167 2.973-.29.514-.893.747-1.735.915-2.742 1.285-.314 3.118-.801 3.421-1.115-.135-.474-.876-.46-1.347-.726-.375.133-.647.32-.973.55-.364.258-.728.607-1.102.464-.022-1.014.435-1.78.118-2.614a3.89 3.89 0 0 0-.925-1.385c-.556-.041-.405.564-1.195.634Zm1.698 6.614c1.346-.13 2.609-.137 3.379.886.383.682-.155.751-.508.943-.591-.008-1.255.047-1.446-.35-.296-.614-1.09-.817-1.425-1.479ZM119.004 54.634c-.523.686-.223 1.326.452 2.12.538.093.824.055.971-.222.095-.178.065-.443.087-.682.021-.24.095-.453.037-.687-.168-.69-1.644-1.322-1.547-.53Zm3.83.951c-.205-.458-.297-1.033-1.131-.854-.567.656-.125 1.175.15 1.398.144.33.342.09.981-.544Zm2.397-1.535c-.578 1.215-1.156 1.684-1.735 2.653.89-.641 1.719-.554 2.489-.547.9-.479 1.201-.796.905-.951-.373-.832-.806-1.515-1.659-1.155Zm-8.13 6.062c.075-.566.424-1.294.499-1.86 1.916-.976 3.564-.981 6.501-.573.28.195.56.768.481 1.071-.427.408-.72.41-1.147.819.153.8-.503 1.674-1.068 2.582.031.413.623.402 1.334.284.399-.066.866-.262 1.187-.04.828.573.197.98.017.996-.894.084-1.82.15-1.993-.004-.109.205.043.23-.016.472-.272 1.125-.841 1.57-1.452 1.634-1.639.397-2.798.106-2.759-1.44-.913-.94-1.263-1.678-.377-1.97.415.493 1.49.466 2.865.204l1.357-2.039c-.441-.042-1.35-.139-1.614.654-.281.843-.908.612-1.216.516-.613-1.526 2.277-1.555 3.057-2.393-.556-.586-1.76-.196-3.517.518-.073.017-.606.09-.622.212-.117.896-1.568 1.368-1.517.357Zm2.339 3.356c.704.068 1.408.095 2.112.163-.126.317-.252.432-.377.75-.659.064-1.151.144-1.319.015-.504-.386-.631-.623-.416-.928ZM54.426 58.812c-.212.046-.19.404-.257.845-.04.265-.222.56-.2.837-.01 1.877.773 2.237 2.295 2.664l.312 1.19c.393.478.897.737 1.417.964.894-.274 1.725-.359 2.494-.255l.68-.51c-.069-.256-.146-.7-.084-.954-.935-.043-1.353.031-1.843.046-1.055.536-1.744.31-1.785-.396.697-.024 1.14-.105 2.097-.964-.181-.567-.207-1.134.113-1.7l1.418-1.814c-.572-.824-1.362-1.382-2.183-1.956.054-1.458-.644-2.29-1.718-2.494.283.958.559 1.799.216 2.38-.874.716-1.498 1.557-1.87 2.523.509.693.904 1.449.198 2.267-.823-.83-.99-2.44-1.3-2.673Zm3.907-.954c-.282.224-.376.573-.283 1.048l.142 1.02a.892.892 0 0 0 .793-.056l.709-1.077c.322-.265.093-.724-.588-.988-.273-.048-.499.1-.773.053Zm-.907 2.806.227.283.397-.057c-.038-.17.112-.199.074-.369-.17.095-.528.048-.698.143Zm.255.765c.095.075.19.15.284.227l.652-.114c-.095-.075-.19-.15-.284-.227l-.651.114ZM67.996 56.17c.216-.152.468-.197.738-.332.305-.153.632-.39.955-.435.498-.136.867.122 1.093.5.119.199.149.481.187.707-.23 1.132-.745 2.1-1.357 3.103.535.45 1.371.324 2.062.452.21.038 1.097.101 1.51.442.249.204.16.477-.1.818-.175.229-1.204-.054-1.434.04-.303.922-.298 1.677-1.207 2.825-.6.008-1.387.077-2.068-.103-.482-.127-.979-.07-1.375-.153.183-.775.05-1.485-.402-2.131-.316-.2-.508-.493-.316-1.08.37-.482 1.415-.275 2.325-.205l-.287-.642c.211-.68.546-1.263 1.02-2.102-.38-.15-.532-.675-.288-.936.223-.24-.602-.27-1.056-.769Zm-.696 5.585c1.086-.101 1.725-.29 2.583-.117.222.596.126 1.063-.287 1.401-1.4.024-2.166-.404-2.296-1.284ZM85.118 54.263c-.02.76-.2 1.771-.321 2.532-.567.075-1.044-.1-1.61-.025-.197.404-.17.627-.165 1.031-.052.501-.52 1.093-.209 1.532.164.084.498.085.661.17-.773.734-1.234.917-1.124 1.605-.064.447.189.656.606.534.49.028.98-.11 1.47-.083-.624 2.118.376 3.609.606 5.308.644-2.385 1.031-4.353 1.675-6.738 1.012-.399.894-1.55-.263-1.95-.082-2.354-.384-4.358-1.326-3.916Zm-3.835.14c-.887.581-1.383 1.852-1.7 3.437-.115.143-1.71.705-2.218 1.537-.282.461-.378 1.037-.06.886l1.413-.564c-.11.967-.674 1.794-1.353 2.65-.142.89.288.986.603.872l2.047-1.043v1.353c-.35.337-.55.08-.778-.057-.24.683.606 1.323 1.195 1.127.298-.873.119-1.976.075-3.183.5-.82 1.466-1.93 1.931-2.806.142-.269-.139-.364.014-.615-.201.129-.462.168-.525.418-.165.659-1.532 2.039-1.566 1.369.005-.407.135-.814.14-1.22.004-.317-.116-.633-.111-.95.056-.78.468-1.386.98-1.944.615-.926 1.014-1.684-.087-1.267Zm-1.852 6.202c.2 0 .363.122.363.272 0 .15-.163.271-.363.271-.2 0-.363-.122-.363-.271 0-.15.163-.272.363-.272Zm4.21-2.13c.256.25.626.334 1.11.25.086-.347-.056-.514-.427-.75-.513-.014-.74.07-.683.5Zm0 2.005c.256.25.498-.167.983-.25.028-.57-.333-.487-.342-.502-.513-.013-.698.32-.641.752ZM92.97 55.46c-.284.621-.52 1.29-.707 2.008.044.665-.601.56-1.345.346.018.525.372.817 1.062 1.123-.079.798-.146 1.697-.363 2.168-.073.157-.162.266-.274.309-.566.418-.923.548-1.49.638.475 1.083.319 1.412 1.13 1.4.141-.3.619-.518.76-.818.095.323.441.44.535.764.325-.128.663-.104.764-.669-.095-.554-.19-1.108-.283-1.661.718-.495 1.387-1.471 1.882-2.732.336.22.742.586 1.303.655-.26.23-.477.544-.737.774-.354.047-.498.051-.851.098.07.392-.111.743-.04 1.136l2.123 1.176c-.667.255-1.412.435-1.877.167-.361-.208-.504-.752-.629-1.324-.376.347-.484 1.518-.41 2.196a6.857 6.857 0 0 0 3.908-.346c.543.126.457.993 1 1.12 1.037.242 2.975-.668 4.012-.426-.147-.099-.13-.235-.331-.285-.669-.165-1.515-.265-2.227-.584-.787-.352-1.148-.619-1.605-.933.706-1.143 1.051-2.93.358-3.348-.271-.163-.737.3-1.349.467.047-.443.192-.994 1.026-.996.444 0 .685-.554 1.027-.83.07-.508.1-1.098-.04-1.523-.74.689-1.173 1.104-1.8 1.246.244-1.073-.016-1.927-.78-2.561-.41 1.162-.596 2.201-.446 2.816-.614.928-1.272.437-1.889.96-.37.313-.693.82-1.332 1.454-.537-.412-.405-.788.38-1.562.73-.72.47-2.514-.464-2.422Zm3.536 5.126c.294-.315.7-.63 1.219-.945.252.57-.277.913-.42 1.685-.69-.224-1.006-.407-.799-.74ZM55.14 69.622h.25v1.995c0 .346-.02.622-.064.826-.043.204-.121.37-.234.497a.56.56 0 0 1-.443.193.594.594 0 0 1-.437-.168c-.113-.11-.194-.272-.242-.484a4.03 4.03 0 0 1-.072-.864v-1.995h.25v1.992c0 .3.016.521.047.662.03.143.083.252.157.33a.367.367 0 0 0 .275.115c.184 0 .316-.076.395-.23.078-.151.117-.444.117-.877v-1.992Zm.787 3.452v-2.5h.21v.355c.1-.275.247-.413.437-.413.083 0 .16.027.229.081.07.055.121.126.156.214s.059.192.073.313c.008.079.013.216.013.412v1.538h-.234v-1.522c0-.172-.009-.301-.027-.387a.43.43 0 0 0-.096-.204.212.212 0 0 0-.163-.078c-.1 0-.185.058-.257.172-.072.115-.108.332-.108.653v1.366h-.233Zm1.624-2.965h.233v-.487h-.233v.487Zm0 2.965h.233v-2.5h-.233v2.5Zm1.117 0-.523-2.5h.246l.295 1.497c.032.161.061.33.088.504.021-.132.05-.29.087-.476l.306-1.526h.24l-.521 2.5h-.218Zm2.033-.805.241.053c-.038.257-.108.455-.21.597a.47.47 0 0 1-.395.211c-.2 0-.36-.112-.478-.337-.118-.226-.177-.541-.177-.948 0-.421.06-.748.179-.98.12-.232.273-.349.464-.349.183 0 .334.114.45.342.117.227.175.548.175.96l-.001.114h-1.026c.008.275.051.485.128.63.077.147.173.22.288.22.085 0 .158-.04.218-.123.061-.081.109-.211.144-.39Zm-.765-.686h.768c-.01-.21-.04-.368-.088-.473-.074-.163-.17-.245-.289-.245-.107 0-.197.065-.27.195-.073.13-.113.305-.121.523Zm1.444 1.49v-2.5h.21v.379c.053-.177.103-.294.148-.35.045-.057.095-.086.15-.086.078 0 .158.046.24.137l-.081.394c-.057-.062-.114-.093-.17-.093-.052 0-.098.028-.139.084a.56.56 0 0 0-.086.232c-.026.15-.039.315-.039.495v1.309h-.233Zm.94-.746.23-.066a.819.819 0 0 0 .109.387.28.28 0 0 0 .248.134c.107 0 .186-.04.238-.119a.5.5 0 0 0 .078-.279.343.343 0 0 0-.07-.226c-.031-.038-.11-.086-.237-.144a1.596 1.596 0 0 1-.356-.204.53.53 0 0 1-.15-.238 1.048 1.048 0 0 1-.051-.335c0-.111.014-.214.042-.31a.71.71 0 0 1 .114-.236.45.45 0 0 1 .35-.175.488.488 0 0 1 .465.314c.04.098.066.226.08.388l-.227.057a.62.62 0 0 0-.09-.301.24.24 0 0 0-.211-.109c-.107 0-.183.032-.229.097a.378.378 0 0 0-.069.225c0 .056.01.105.029.149.019.046.048.083.089.113.023.016.092.052.206.108.165.08.28.146.345.197.065.05.117.125.154.223.037.097.055.218.055.362 0 .142-.023.274-.068.4a.644.644 0 0 1-.196.29.452.452 0 0 1-.29.101.466.466 0 0 1-.409-.202c-.094-.135-.153-.336-.179-.6Zm1.568-2.218h.233v-.487h-.233v.487Zm0 2.965h.233v-2.5h-.233v2.5Zm1.245-.38.033.375a.503.503 0 0 1-.176.038.26.26 0 0 1-.197-.073.407.407 0 0 1-.098-.192 2.705 2.705 0 0 1-.029-.5v-1.44h-.17v-.329h.17v-.62l.232-.254v.874h.235v.33h-.235v1.462c0 .121.004.199.012.233a.187.187 0 0 0 .04.083c.019.02.046.03.08.03a.42.42 0 0 0 .103-.016Zm.364 1.343-.026-.398a.315.315 0 0 0 .134.038.167.167 0 0 0 .124-.048.34.34 0 0 0 .077-.132 3.03 3.03 0 0 0 .07-.315l.022-.103-.522-2.506h.251l.287 1.448c.036.184.07.377.1.58.026-.195.058-.385.095-.57l.294-1.458h.233l-.523 2.544a7.55 7.55 0 0 1-.131.567.891.891 0 0 1-.142.307.242.242 0 0 1-.192.098.29.29 0 0 1-.15-.052Zm1.987-2.214c0-.463.07-.806.213-1.029.118-.185.262-.278.432-.278.19 0 .344.113.464.339.12.225.18.536.18.933 0 .322-.027.575-.08.76a.983.983 0 0 1-.231.43.462.462 0 0 1-.333.152c-.192 0-.348-.112-.467-.337-.118-.224-.178-.547-.178-.97Zm.24 0c0 .32.038.56.115.72.077.16.174.24.29.24.116 0 .212-.081.29-.241.076-.16.114-.404.114-.733 0-.309-.038-.544-.116-.703-.077-.159-.173-.239-.288-.239-.116 0-.213.08-.29.238-.077.159-.115.398-.115.718Zm1.525 1.25v-2.17h-.205v-.33h.205v-.266c0-.168.009-.293.025-.374.023-.11.062-.2.118-.268a.291.291 0 0 1 .238-.102c.066 0 .138.013.218.043l-.035.37a.437.437 0 0 0-.138-.025c-.07 0-.12.027-.15.083-.029.055-.044.157-.044.309v.23h.268v.33h-.268v2.17h-.232Zm1.454 0v-3.451h1.373v.407h-1.122v1.057h1.05v.405h-1.05v1.175h1.166v.408h-1.417Zm1.876 0h.233v-3.451h-.233v3.452Zm1.684-.804.24.053c-.037.257-.108.455-.21.597a.47.47 0 0 1-.394.211c-.201 0-.361-.112-.479-.337-.118-.226-.177-.541-.177-.948 0-.421.06-.748.18-.98.118-.232.273-.349.463-.349.184 0 .334.114.45.342.117.227.175.548.175.96v.114h-1.027c.009.275.052.485.129.63.077.147.172.22.287.22.085 0 .158-.04.219-.123.06-.081.108-.211.144-.39Zm-.766-.686h.768c-.01-.21-.04-.368-.088-.473-.074-.163-.17-.245-.289-.245-.106 0-.197.065-.27.195-.073.13-.113.305-.12.523Zm2.344.575.23.054c-.025.287-.09.512-.193.675-.103.162-.23.243-.38.243-.188 0-.34-.112-.454-.335-.114-.224-.172-.544-.172-.962 0-.27.025-.507.074-.71.05-.202.124-.354.225-.455.1-.101.21-.152.328-.152.15 0 .272.07.367.207.095.137.156.332.183.585l-.227.063a.93.93 0 0 0-.115-.379c-.054-.084-.12-.127-.198-.127-.118 0-.214.076-.287.23-.073.153-.11.395-.11.726 0 .336.035.58.107.733.07.152.163.228.277.228.091 0 .167-.051.229-.153.061-.103.1-.26.116-.471Zm1.086.537.033.374a.501.501 0 0 1-.176.038c-.085 0-.15-.024-.197-.073a.408.408 0 0 1-.098-.192 2.69 2.69 0 0 1-.029-.5v-1.44h-.171v-.329h.171v-.62l.232-.254v.874h.235v.33h-.235v1.462c0 .121.004.199.012.233a.19.19 0 0 0 .04.083c.019.02.046.03.08.03a.42.42 0 0 0 .103-.016Zm.372.379v-2.5h.21v.378c.053-.177.103-.294.148-.35.046-.057.096-.086.15-.086.078 0 .158.046.24.137l-.081.394c-.057-.062-.114-.093-.17-.093-.052 0-.097.028-.138.084a.562.562 0 0 0-.087.232c-.026.15-.039.315-.039.495v1.309H77.3Zm.947-1.25c0-.464.07-.807.212-1.03.118-.185.262-.278.433-.278.189 0 .344.113.463.339.12.225.18.536.18.933 0 .322-.026.575-.08.76a.98.98 0 0 1-.23.43.462.462 0 0 1-.333.152c-.193 0-.348-.112-.467-.337-.12-.224-.178-.547-.178-.97Zm.24 0c0 .32.038.56.115.719.077.16.173.24.29.24.115 0 .212-.081.289-.241.076-.16.115-.404.115-.733 0-.309-.039-.544-.116-.703-.077-.159-.173-.239-.288-.239-.117 0-.213.08-.29.238-.077.159-.116.398-.116.718Zm1.47 1.25v-2.5h.209v.355c.101-.275.247-.413.438-.413.083 0 .159.027.228.081.07.055.122.126.156.214.035.088.059.192.073.313.009.079.013.216.013.412v1.538h-.233v-1.522c0-.172-.01-.301-.027-.387a.432.432 0 0 0-.097-.204.212.212 0 0 0-.162-.078c-.1 0-.185.058-.258.172-.072.115-.108.332-.108.653v1.366h-.233Zm1.623-2.965h.233v-.487h-.233v.487Zm0 2.965h.233v-2.5h-.233v2.5Zm1.633-.916.23.054c-.026.287-.09.512-.193.675-.103.162-.23.243-.38.243-.188 0-.34-.112-.454-.335-.115-.224-.172-.544-.172-.962 0-.27.025-.507.074-.71.05-.202.124-.354.225-.455.1-.101.21-.152.328-.152.15 0 .272.07.367.207.095.137.156.332.183.585l-.227.063a.936.936 0 0 0-.115-.379c-.055-.084-.12-.127-.199-.127-.117 0-.213.076-.286.23-.074.153-.11.395-.11.726 0 .336.035.58.106.733.071.152.163.228.278.228.091 0 .167-.051.228-.153.062-.103.1-.26.117-.471Zm1.11-.193.237-.038c.011.173.037.314.079.425a.6.6 0 0 0 .19.269.456.456 0 0 0 .292.102.43.43 0 0 0 .254-.078.465.465 0 0 0 .164-.212.8.8 0 0 0 .054-.296.712.712 0 0 0-.053-.284.468.468 0 0 0-.17-.203 2.34 2.34 0 0 0-.338-.17 1.3 1.3 0 0 1-.367-.215.798.798 0 0 1-.203-.321 1.309 1.309 0 0 1-.066-.43c0-.174.027-.337.081-.488a.723.723 0 0 1 .239-.346.569.569 0 0 1 .348-.117c.14 0 .265.04.373.124.107.082.19.203.247.363.058.16.09.342.094.544l-.241.033c-.013-.218-.057-.383-.132-.494a.371.371 0 0 0-.33-.167c-.153 0-.263.05-.333.152a.632.632 0 0 0-.104.365c0 .125.024.227.073.306.05.08.175.163.38.246.204.085.344.158.42.22a.83.83 0 0 1 .245.353c.052.142.078.306.078.49 0 .185-.028.358-.086.52a.857.857 0 0 1-.25.38.557.557 0 0 1-.365.135.675.675 0 0 1-.432-.137.887.887 0 0 1-.274-.41c-.066-.183-.1-.39-.104-.621Zm2.87.193.23.054c-.026.287-.09.512-.193.675-.103.162-.23.243-.38.243-.188 0-.34-.112-.454-.335-.114-.224-.172-.544-.172-.962 0-.27.025-.507.074-.71.05-.202.124-.354.225-.455.1-.101.21-.152.328-.152.15 0 .272.07.366.207.096.137.157.332.183.585l-.226.063a.936.936 0 0 0-.115-.379c-.055-.084-.12-.127-.199-.127-.117 0-.213.076-.286.23-.074.153-.11.395-.11.726 0 .336.035.58.106.733.07.152.163.228.277.228.092 0 .168-.051.23-.153.06-.103.1-.26.116-.471Zm.577-2.049h.234v-.487h-.234v.487Zm0 2.965h.234v-2.5h-.234v2.5Zm1.677-.805.241.053c-.038.257-.108.455-.21.597a.47.47 0 0 1-.395.211c-.2 0-.36-.112-.478-.337-.118-.226-.177-.541-.177-.948 0-.421.06-.748.179-.98.12-.232.273-.349.464-.349.184 0 .334.114.45.342.117.227.175.548.175.96l-.001.114h-1.026c.009.275.051.485.128.63.077.147.173.22.288.22.085 0 .158-.04.219-.123.06-.081.108-.211.143-.39Zm-.765-.686h.768c-.01-.21-.04-.368-.088-.473-.074-.163-.17-.245-.289-.245-.107 0-.197.065-.27.195-.073.13-.113.305-.121.523Zm1.447 1.49v-2.5h.21v.356c.1-.275.246-.413.437-.413.083 0 .16.027.228.081a.49.49 0 0 1 .157.214c.035.088.058.192.073.313.008.079.012.216.012.412v1.538h-.233v-1.522c0-.172-.009-.301-.027-.387a.43.43 0 0 0-.097-.204.212.212 0 0 0-.162-.078c-.1 0-.185.058-.257.172-.072.115-.108.332-.108.653v1.366h-.233Zm2.52-.915.229.054c-.025.287-.09.512-.192.675-.103.162-.23.243-.38.243-.189 0-.34-.112-.454-.335-.115-.224-.172-.544-.172-.962 0-.27.025-.507.074-.71.05-.202.124-.354.225-.455.1-.101.21-.152.328-.152.149 0 .272.07.366.207.095.137.156.332.183.585l-.227.063a.933.933 0 0 0-.114-.379c-.055-.084-.121-.127-.2-.127-.117 0-.212.076-.286.23-.073.153-.11.395-.11.726 0 .336.036.58.107.733.07.152.163.228.277.228.092 0 .168-.051.23-.153.06-.103.1-.26.116-.471Zm1.517.11.241.054c-.038.257-.108.455-.21.597a.47.47 0 0 1-.395.211c-.2 0-.36-.112-.478-.337-.118-.226-.177-.541-.177-.948 0-.421.06-.748.179-.98.12-.232.273-.349.463-.349.184 0 .335.114.451.342.117.227.175.548.175.96l-.001.114h-1.026c.009.275.052.485.128.63.077.147.173.22.288.22.085 0 .158-.04.219-.123.06-.081.108-.211.143-.39Zm-.765-.685h.768c-.01-.21-.04-.368-.088-.473-.074-.163-.17-.245-.289-.245-.107 0-.197.065-.27.195-.073.13-.113.305-.121.523Zm2.934 1.182c-.087.134-.17.228-.25.283a.447.447 0 0 1-.257.082.385.385 0 0 1-.348-.2.986.986 0 0 1-.122-.515c0-.123.015-.235.046-.336a.709.709 0 0 1 .12-.244.52.52 0 0 1 .168-.139c.046-.022.115-.043.207-.063.189-.041.327-.09.416-.147l.002-.11c0-.173-.023-.295-.067-.365a.29.29 0 0 0-.265-.144c-.11 0-.19.035-.243.105-.052.07-.09.194-.116.371l-.228-.057c.021-.177.055-.32.103-.429a.556.556 0 0 1 .205-.252.559.559 0 0 1 .313-.089c.117 0 .212.026.286.076.073.05.127.113.162.19a.997.997 0 0 1 .072.288c.008.072.012.203.012.39v.566c0 .394.005.644.015.747.01.105.03.205.059.3h-.244a1.497 1.497 0 0 1-.046-.308Zm-.02-.947a1.12 1.12 0 0 1-.38.161.572.572 0 0 0-.204.085.292.292 0 0 0-.092.138.592.592 0 0 0-.032.2c0 .114.023.208.07.284a.23.23 0 0 0 .207.112c.09 0 .17-.035.24-.107a.648.648 0 0 0 .154-.293c.025-.096.037-.237.037-.424v-.156Zm.745 1.256v-2.5h.21v.355c.1-.275.246-.413.437-.413.083 0 .16.027.229.081.07.055.121.126.156.214s.059.192.073.313c.008.079.013.216.013.412v1.538h-.234v-1.522c0-.172-.009-.301-.027-.387a.433.433 0 0 0-.096-.204.213.213 0 0 0-.163-.078c-.1 0-.185.058-.257.172-.072.115-.108.332-.108.653v1.366h-.233Zm2.515 0v-.316c-.087.248-.216.372-.385.372-.11 0-.21-.054-.302-.165a1.155 1.155 0 0 1-.214-.46 2.748 2.748 0 0 1-.076-.68c0-.249.023-.475.069-.679.046-.203.114-.359.206-.467.091-.108.194-.163.307-.163.083 0 .156.032.221.096a.707.707 0 0 1 .158.248v-1.238h.232v3.452h-.216Zm-.737-1.248c0 .32.037.56.111.718.075.159.162.238.263.238.102 0 .189-.076.26-.227.07-.152.107-.383.107-.694 0-.343-.037-.593-.11-.753-.072-.161-.16-.24-.267-.24-.104 0-.19.077-.26.23-.07.154-.104.396-.104.728Zm2.522 1.248v-3.045h-.626v-.407h1.505v.407h-.628v3.045h-.251Zm1.902-.805.241.053c-.038.257-.108.455-.211.597a.47.47 0 0 1-.394.211c-.201 0-.361-.112-.478-.337-.118-.226-.177-.541-.177-.948 0-.421.06-.748.179-.98.119-.232.273-.349.463-.349.184 0 .335.114.451.342.116.227.175.548.175.96l-.001.114h-1.026c.008.275.051.485.128.63.077.147.172.22.287.22.086 0 .159-.04.219-.123.061-.081.109-.211.144-.39Zm-.765-.686h.768c-.011-.21-.04-.368-.088-.473-.075-.163-.171-.245-.289-.245-.107 0-.197.065-.27.195-.073.13-.113.305-.121.523Zm2.344.575.229.054c-.025.287-.089.512-.192.675-.103.162-.23.243-.381.243-.188 0-.339-.112-.453-.335-.115-.224-.172-.544-.172-.962 0-.27.025-.507.074-.71.049-.202.124-.354.225-.455.1-.101.21-.152.328-.152.149 0 .272.07.366.207.095.137.156.332.183.585l-.227.063a.922.922 0 0 0-.114-.379c-.055-.084-.121-.127-.199-.127-.118 0-.213.076-.286.23-.074.153-.111.395-.111.726 0 .336.036.58.107.733.071.152.163.228.277.228.092 0 .168-.051.229-.153.062-.103.1-.26.117-.471Zm.576.916v-3.452h.233v1.238c.109-.229.246-.344.412-.344.102 0 .19.037.265.11a.618.618 0 0 1 .162.302c.032.13.048.316.048.56v1.586h-.233v-1.585c0-.212-.025-.366-.076-.462-.05-.097-.122-.146-.214-.146-.069 0-.134.033-.195.098a.567.567 0 0 0-.13.265c-.026.111-.039.266-.039.462v1.368h-.233Zm1.623 0v-2.5h.209v.355c.102-.275.247-.413.438-.413.083 0 .159.027.229.081a.502.502 0 0 1 .156.214c.034.088.058.192.073.313.008.079.012.216.012.412v1.538h-.233v-1.522a2.05 2.05 0 0 0-.027-.387.43.43 0 0 0-.096-.204.214.214 0 0 0-.163-.078c-.1 0-.185.058-.257.172-.072.115-.108.332-.108.653v1.366h-.233Zm1.535-1.25c0-.464.071-.807.213-1.03.118-.185.262-.278.432-.278.189 0 .344.113.464.339.12.225.18.536.18.933 0 .322-.027.575-.079.76a.995.995 0 0 1-.232.43.462.462 0 0 1-.333.152c-.192 0-.348-.112-.467-.337-.118-.224-.178-.547-.178-.97Zm.24 0c0 .32.038.56.115.719.077.16.174.24.29.24.116 0 .213-.081.289-.241.077-.16.115-.404.115-.733 0-.309-.038-.544-.115-.703-.078-.159-.174-.239-.289-.239-.116 0-.213.08-.29.238-.077.159-.115.398-.115.718Zm1.465 1.25h.233v-3.452h-.233v3.452Zm.655-1.25c0-.464.07-.807.212-1.03.118-.185.263-.278.433-.278.189 0 .344.113.463.339.121.225.18.536.18.933 0 .322-.026.575-.079.76a.985.985 0 0 1-.232.43.46.46 0 0 1-.332.152c-.193 0-.348-.112-.467-.337-.119-.224-.178-.547-.178-.97Zm.239 0c0 .32.039.56.116.719.077.16.173.24.29.24.116 0 .212-.081.289-.241.076-.16.115-.404.115-.733 0-.309-.039-.544-.116-.703-.077-.159-.173-.239-.288-.239-.117 0-.213.08-.29.238-.077.159-.116.398-.116.718ZM112.601 73.281l.226.061a.55.55 0 0 0 .079.279.28.28 0 0 0 .237.117c.108 0 .191-.04.25-.117a.725.725 0 0 0 .119-.33c.013-.087.018-.268.017-.544-.102.218-.229.327-.381.327-.189 0-.335-.124-.439-.372a2.32 2.32 0 0 1-.155-.892c0-.24.024-.46.071-.661.048-.202.117-.358.207-.468a.403.403 0 0 1 .318-.165c.162 0 .296.12.401.359v-.302h.215v2.162c0 .389-.022.665-.065.828a.844.844 0 0 1-.207.385.478.478 0 0 1-.35.141.474.474 0 0 1-.397-.202c-.101-.134-.15-.336-.146-.606Zm.192-1.502c0 .328.036.567.108.718.072.15.162.226.269.226.107 0 .197-.075.27-.225.072-.15.108-.385.108-.705 0-.307-.037-.537-.111-.693-.075-.155-.165-.233-.27-.233-.104 0-.192.077-.265.23-.072.153-.109.38-.109.682Zm1.463 2.258-.027-.398a.319.319 0 0 0 .134.038.166.166 0 0 0 .124-.048.335.335 0 0 0 .077-.132 3.12 3.12 0 0 0 .071-.315l.021-.103-.522-2.506h.251l.287 1.448c.036.184.07.377.099.58.027-.195.059-.385.096-.57l.294-1.458h.233l-.523 2.544c-.056.274-.1.463-.131.567a.912.912 0 0 1-.142.307.243.243 0 0 1-.192.098.29.29 0 0 1-.15-.052Zm1.986-2.214c0-.463.071-.806.213-1.029.118-.185.262-.278.432-.278.19 0 .344.113.464.339.12.225.18.536.18.933 0 .322-.027.575-.08.76a.984.984 0 0 1-.231.43.462.462 0 0 1-.333.152c-.192 0-.348-.112-.466-.337-.119-.224-.179-.547-.179-.97Zm.24 0c0 .32.038.56.115.72.077.16.174.24.29.24.116 0 .213-.081.289-.241.077-.16.115-.404.115-.733 0-.309-.038-.544-.115-.703-.078-.159-.174-.239-.289-.239-.116 0-.213.08-.29.238-.077.159-.115.398-.115.718Zm1.525 1.25v-2.17h-.205v-.33h.205v-.266c0-.168.009-.293.025-.374.023-.11.062-.2.119-.268a.29.29 0 0 1 .238-.102.64.64 0 0 1 .217.043l-.035.37a.436.436 0 0 0-.138-.025c-.07 0-.12.027-.149.083-.03.055-.045.157-.045.309v.23h.268v.33h-.268v2.17h-.232Zm2.803-1.21.252.116c-.053.375-.148.66-.285.859-.136.197-.304.295-.502.295a.624.624 0 0 1-.499-.227c-.128-.152-.226-.372-.293-.658a4.135 4.135 0 0 1-.1-.926c0-.36.038-.673.113-.94.076-.269.183-.472.323-.61a.64.64 0 0 1 .46-.21c.19 0 .35.088.479.264.13.177.22.423.271.742l-.247.107c-.044-.252-.108-.434-.192-.55a.376.376 0 0 0-.316-.171.446.446 0 0 0-.366.19 1.178 1.178 0 0 0-.206.513c-.04.214-.06.435-.06.662 0 .294.024.55.071.77.047.218.12.382.219.49.1.109.207.163.323.163.141 0 .259-.074.357-.221.098-.148.164-.368.198-.658Zm.679 1.21v-3.451h.233v1.238c.109-.229.246-.344.412-.344.102 0 .19.037.265.11a.626.626 0 0 1 .162.302c.032.13.048.316.048.56v1.586h-.233v-1.585c0-.212-.025-.366-.076-.462-.05-.097-.122-.146-.214-.146-.069 0-.134.033-.195.098a.567.567 0 0 0-.13.265c-.026.111-.039.266-.039.462v1.368h-.233Zm1.623-2.963h.234v-.488h-.234v.487Zm0 2.964h.234v-2.5h-.234v2.5Zm.736 0v-2.5h.21v.355c.101-.275.247-.413.438-.413.083 0 .159.027.228.081.07.055.122.126.156.214.035.088.059.192.073.313.009.079.013.216.013.412v1.538h-.233v-1.522a2.05 2.05 0 0 0-.027-.387.44.44 0 0 0-.097-.204.211.211 0 0 0-.163-.078c-.099 0-.184.058-.257.172-.072.115-.108.332-.108.653v1.366h-.233Zm2.52-.309a1 1 0 0 1-.249.283.448.448 0 0 1-.257.082.387.387 0 0 1-.349-.2.994.994 0 0 1-.121-.515c0-.123.015-.235.046-.336a.709.709 0 0 1 .12-.244.523.523 0 0 1 .168-.139c.046-.022.115-.043.207-.063.188-.041.327-.09.416-.147l.001-.11c0-.173-.022-.295-.066-.365a.29.29 0 0 0-.265-.144c-.11 0-.191.035-.243.105-.052.07-.091.194-.116.371l-.228-.057a1.57 1.57 0 0 1 .102-.429.566.566 0 0 1 .206-.252.56.56 0 0 1 .312-.089c.118 0 .213.026.286.076a.46.46 0 0 1 .163.19c.034.076.058.172.072.288.008.072.012.203.012.39v.566c0 .394.004.644.015.747.009.105.029.205.059.3h-.244a1.515 1.515 0 0 1-.047-.308Zm-.019-.947a1.122 1.122 0 0 1-.381.161.566.566 0 0 0-.203.085.29.29 0 0 0-.092.138.582.582 0 0 0-.033.2c0 .114.024.208.071.284a.23.23 0 0 0 .207.112.326.326 0 0 0 .239-.107.64.64 0 0 0 .154-.293c.026-.096.038-.237.038-.424v-.156Z" clip-rule="evenodd"/></g><defs><filter id="a" width="154" height="157" x="0" y="0" color-interpolation-filters="sRGB" filterUnits="userSpaceOnUse"><feFlood flood-opacity="0" result="BackgroundImageFix"/><feColorMatrix in="SourceAlpha" result="hardAlpha" values="0 0 0 0 0 0 0 0 0 0 0 0 0 0 0 0 0 0 127 0"/><feOffset dy="16"/><feGaussianBlur stdDeviation="6.5"/><feColorMatrix values="0 0 0 0 0 0 0 0 0 0 0 0 0 0 0 0 0 0 0.03 0"/><feBlend in2="BackgroundImageFix" result="effect1_dropShadow_185_86"/><feBlend in="SourceGraphic" in2="effect1_dropShadow_185_86" result="shape"/></filter></defs></svg>