<svg xmlns="http://www.w3.org/2000/svg" xml:space="preserve" style="fill-rule:evenodd;clip-rule:evenodd" viewBox="0 0 154 157"><path d="M38.328 53c6.24 0 11.329 5.089 11.329 11.328 0 6.24-5.089 11.328-11.329 11.328C32.089 75.656 27 70.568 27 64.328 27 58.089 32.089 53 38.328 53Z" style="fill:#00a0e9" transform="translate(-92.171 -205.428) scale(4.41374)"/><path d="M38.328 56.732c4.184 0 7.597 3.412 7.597 7.596s-3.413 7.597-7.597 7.597c-4.184 0-7.597-3.413-7.597-7.597 0-4.184 3.413-7.596 7.597-7.596ZM28.371 65.164c.002.052.089.063.192.098.062.021.125.077.193.084.45.083.571-.09.739-.437l.299-.024a.872.872 0 0 0 .293-.299 1.412 1.412 0 0 1 .046-.61l-.094-.186a.581.581 0 0 1-.232-.02c-.051.223-.051.326-.069.445.084.276 0 .432-.172.411.025-.168.024-.278-.141-.545a.498.498 0 0 1-.404-.1l-.375-.419c-.222.102-.39.268-.563.44-.348-.075-.578.057-.674.306.243-.027.457-.057.582.05.134.241.309.427.525.558.189-.092.387-.155.554.05-.235.162-.629.133-.699.198Zm-.061-.98c.042.077.122.115.24.113l.251.01a.218.218 0 0 0 .021-.193 23.468 23.468 0 0 0-.229-.217c-.049-.089-.17-.054-.262.099-.024.063.002.124-.021.188Zm.635.338.078-.042.004-.098c-.043.002-.043-.035-.086-.034.015.045-.011.129.004.174Zm.195-.028.067-.058.001-.162-.067.058-.001.162ZM29.378 59.084c-.003-.063.019-.12.025-.192.007-.082 0-.179.031-.251.034-.119.132-.164.238-.164.054 0 .116.028.166.048.201.186.333.411.461.66.157-.055.236-.243.348-.37.034-.039.157-.214.278-.258.072-.026.117.026.153.121.025.064-.16.242-.17.301.149.175.303.267.423.595-.073.125-.157.296-.279.414-.086.084-.136.193-.202.265a.595.595 0 0 0-.483-.178c-.079.041-.163.044-.258-.067-.052-.135.121-.326.248-.505l-.166-.019c-.112-.127-.188-.268-.299-.468-.078.06-.203.027-.226-.055-.021-.076-.13.091-.288.123Zm1.047.828c.115-.236.156-.392.298-.547.148.027.231.104.248.231-.169.291-.352.397-.546.316ZM47.26 58.92c-.203.123-.411.166-.599.256a.802.802 0 0 1-.488.079.68.68 0 0 1-.066-.329c-.015-.107-.228-.162-.388-.119-.014.021.103.093.075.227a.459.459 0 0 0 .114.401c-.184.04-.357-.015-.529-.083-.301-.039-.287.104.422.647.265.011.486-.036.737-.118.226.257.557.619.665.651.092-.088.001-.256.005-.396a.977.977 0 0 0-.242-.157c-.103-.053-.226-.094-.238-.197.229-.126.46-.113.613-.286a.998.998 0 0 0 .207-.378c-.057-.132-.178-.025-.288-.198Zm-1.313 1.181c.19.293.343.581.201.88-.111.17-.191.055-.277-.004-.069-.136-.161-.282-.093-.373.105-.141.057-.347.169-.503ZM49.01 63.61c-.184-.075-.319.021-.474.203.003.117.025.175.096.192.046.011.107-.008.163-.016.057-.007.11-.003.162-.027.153-.07.234-.412.053-.352Zm-.048.853c.098-.066.228-.114.148-.28-.178-.086-.279.033-.319.102-.07.047-.005.076.171.178Zm.467.427c-.309-.061-.445-.158-.697-.231.19.155.207.333.24.495.153.166.241.213.264.143.177-.121.316-.246.193-.407Zm-1.783-1.403c.136-.013.321.024.457.011.314.354.391.699.429 1.337-.033.069-.154.157-.228.156-.115-.07-.129-.131-.243-.2-.18.072-.413-.022-.651-.094-.095.027-.065.151-.006.294.034.081.101.169.064.248-.096.203-.22.09-.232.054-.06-.184-.117-.376-.089-.419-.053-.013-.052.02-.111.02-.275-.001-.405-.098-.448-.223-.167-.324-.151-.583.211-.652.178-.24.334-.35.442-.179-.096.112-.041.337.083.612l.537.183c-.01-.095-.029-.291-.226-.306-.209-.017-.184-.16-.175-.23.328-.206.466.4.697.522.111-.147-.034-.38-.281-.713-.007-.015-.049-.123-.078-.12-.214.02-.39-.261-.152-.301Zm-.676.661c.016.151.042.3.058.452-.08-.011-.112-.031-.192-.042-.045-.135-.086-.234-.064-.276.067-.125.117-.164.198-.134ZM33.974 54.326c-.152.206-.158.54-.098.932-.014.042-.328.302-.373.536-.025.129.001.27.06.209l.272-.245c.056.232-.003.469-.085.722.042.218.147.205.209.153l.375-.407.113.312c-.051.107-.118.063-.181.05.003.178.247.257.364.164-.005-.226-.138-.467-.248-.742.045-.23.171-.565.203-.806.009-.073-.062-.072-.048-.143-.035.046-.091.077-.084.139.017.166-.176.596-.24.444-.032-.094-.037-.199-.07-.293-.025-.074-.078-.137-.104-.21-.052-.185-.009-.359.06-.529.062-.264.089-.472-.125-.286Zm.854-.344c.059.177.102.425.138.611-.122.063-.244.062-.366.125-.01.109.015.159.049.252.03.12-.026.295.08.371.044.006.12-.021.164-.015-.114.233-.202.312-.121.462.023.109.098.137.182.075.113-.034.212-.106.325-.139.035.54.385.803.578 1.177-.053-.603-.129-1.089-.182-1.693.195-.174.073-.431-.222-.429-.214-.537-.449-.976-.625-.797Zm-.756 1.928c.045-.017.092-.002.104.033.013.034-.014.076-.059.092s-.092.001-.105-.033c-.012-.035.014-.076.06-.092Zm.773-.835c.079.037.169.026.272-.032-.01-.088-.056-.115-.159-.139-.117.038-.162.076-.113.171Zm.167.463c.078.038.098-.079.201-.137-.041-.134-.116-.086-.119-.088-.117.038-.131.13-.082.225ZM41.627 54.516a3.071 3.071 0 0 0-.312.429c-.038.162-.181.091-.339-.013-.034.127.028.222.166.344-.076.185-.157.395-.242.492-.028.032-.057.052-.086.054a.71.71 0 0 1-.395.047c.032.292-.028.359.162.414.055-.061.183-.079.237-.141-.001.084.071.137.07.22.085-.007.162.023.227-.105l.054-.417c.204-.067.431-.253.639-.518.062.076.13.192.256.249-.077.036-.151.096-.228.132-.086-.014-.12-.023-.206-.037-.012.099-.08.17-.092.268l.41.432c-.174.014-.361.004-.45-.093-.069-.076-.063-.216-.051-.361-.113.056-.223.328-.255.495.278.155.604.224.938.195.117.069.034.27.152.339.224.131.743.052.968.183-.028-.034-.014-.065-.057-.091-.144-.087-.334-.171-.478-.298-.158-.14-.223-.23-.307-.337.248-.223.459-.625.327-.774-.051-.058-.194.019-.349.015.044-.102.118-.223.313-.164.103.031.2-.084.3-.126a.938.938 0 0 0 .101-.366c-.223.112-.354.18-.511.169.135-.239.136-.461.004-.667-.18.249-.299.484-.309.641-.211.178-.329.014-.511.095-.109.048-.221.147-.417.253-.095-.137-.037-.217.203-.346.223-.12.292-.567.068-.612Zm.453 1.476c.091-.055.209-.101.353-.139.017.154-.131.198-.221.372-.144-.103-.205-.169-.132-.233ZM36.599 72.87h.047l-.211.827-.176.771a.8.8 0 0 0-.022.129c0 .023.011.04.035.049a.39.39 0 0 0 .106.021c.045.002.09.008.136.018l-.032.076a2.687 2.687 0 0 0-.875 0l.026-.076a2.67 2.67 0 0 0 .259-.062c.05-.017.086-.058.11-.123a2.14 2.14 0 0 0 .059-.176l.166-.636c.055-.248.082-.384.082-.409 0-.038-.015-.057-.047-.057-.023 0-.125.042-.305.126l-.032-.079c.198-.092.337-.161.417-.207a1.46 1.46 0 0 0 .257-.192Zm.449 1.9.019-.091c.478-.01.791-.256.938-.736a.543.543 0 0 1-.349.141.354.354 0 0 1-.287-.125.542.542 0 0 1-.104-.353c0-.203.056-.374.169-.511a.528.528 0 0 1 .429-.206c.145 0 .261.055.35.165.088.11.132.258.132.445 0 .332-.118.626-.353.884s-.549.387-.944.387Zm.985-.947c.03-.164.044-.295.044-.393a.674.674 0 0 0-.069-.338c-.046-.079-.11-.118-.192-.118-.09 0-.16.049-.209.149a.95.95 0 0 0-.074.417c0 .145.021.251.064.319.043.069.096.103.159.103.08 0 .172-.046.277-.139Zm1.922-.978h.085l-.11.226c-.015.034-.079.05-.192.05-.247 0-.396.006-.447.016a.622.622 0 0 0-.053.18c0 .018.008.037.025.056a.14.14 0 0 0 .066.041.595.595 0 0 1 .285.194.518.518 0 0 1 .093.319.805.805 0 0 1-.26.585c-.173.172-.364.258-.574.258a.422.422 0 0 1-.214-.042c-.047-.028-.069-.064-.069-.105 0-.023.009-.044.028-.063.019-.019.039-.029.06-.029.023 0 .054.015.094.044a.32.32 0 0 0 .201.066.507.507 0 0 0 .373-.179.56.56 0 0 0 .172-.396.428.428 0 0 0-.084-.26.565.565 0 0 0-.237-.184.274.274 0 0 1-.084-.05.102.102 0 0 1-.023-.07.94.94 0 0 1 .05-.204l.104-.324a.283.283 0 0 1 .157-.045h.331a.413.413 0 0 0 .14-.017.19.19 0 0 0 .083-.067Zm1.623.04-.018.092c-.489.016-.802.263-.938.739a.543.543 0 0 1 .349-.141c.126 0 .223.044.29.132.067.088.1.203.1.346a.768.768 0 0 1-.17.514.531.531 0 0 1-.428.203.43.43 0 0 1-.352-.163c-.088-.109-.132-.263-.132-.463 0-.201.053-.402.16-.601.107-.199.259-.359.455-.478.196-.12.424-.18.684-.18Zm-.988.951a2.397 2.397 0 0 0-.041.403c0 .149.024.26.071.335.047.074.11.111.187.111.093 0 .163-.05.211-.152a.925.925 0 0 0 .073-.398.737.737 0 0 0-.058-.326c-.039-.074-.093-.112-.163-.112-.081 0-.175.047-.28.139Z" style="fill:#fff" transform="translate(-92.171 -205.428) scale(4.41374)"/><path d="M36.599 72.87h.047l-.211.827-.176.771a.8.8 0 0 0-.022.129c0 .023.011.04.035.049a.39.39 0 0 0 .106.021c.045.002.09.008.136.018l-.032.076a2.687 2.687 0 0 0-.875 0l.026-.076a2.67 2.67 0 0 0 .259-.062c.05-.017.086-.058.11-.123a2.14 2.14 0 0 0 .059-.176l.166-.636c.055-.248.082-.384.082-.409 0-.038-.015-.057-.047-.057-.023 0-.125.042-.305.126l-.032-.079c.198-.092.337-.161.417-.207a1.46 1.46 0 0 0 .257-.192Zm.449 1.9.019-.091c.478-.01.791-.256.938-.736a.543.543 0 0 1-.349.141.354.354 0 0 1-.287-.125.542.542 0 0 1-.104-.353c0-.203.056-.374.169-.511a.528.528 0 0 1 .429-.206c.145 0 .261.055.35.165.088.11.132.258.132.445 0 .332-.118.626-.353.884s-.549.387-.944.387Zm.985-.947c.03-.164.044-.295.044-.393a.674.674 0 0 0-.069-.338c-.046-.079-.11-.118-.192-.118-.09 0-.16.049-.209.149a.95.95 0 0 0-.074.417c0 .145.021.251.064.319.043.069.096.103.159.103.08 0 .172-.046.277-.139Zm1.922-.978h.085l-.11.226c-.015.034-.079.05-.192.05-.247 0-.396.006-.447.016a.622.622 0 0 0-.053.18c0 .018.008.037.025.056a.14.14 0 0 0 .066.041.595.595 0 0 1 .285.194.518.518 0 0 1 .093.319.805.805 0 0 1-.26.585c-.173.172-.364.258-.574.258a.422.422 0 0 1-.214-.042c-.047-.028-.069-.064-.069-.105 0-.023.009-.044.028-.063.019-.019.039-.029.06-.029.023 0 .054.015.094.044a.32.32 0 0 0 .201.066.507.507 0 0 0 .373-.179.56.56 0 0 0 .172-.396.428.428 0 0 0-.084-.26.565.565 0 0 0-.237-.184.274.274 0 0 1-.084-.05.102.102 0 0 1-.023-.07.94.94 0 0 1 .05-.204l.104-.324a.283.283 0 0 1 .157-.045h.331a.413.413 0 0 0 .14-.017.19.19 0 0 0 .083-.067Zm1.623.04-.018.092c-.489.016-.802.263-.938.739a.543.543 0 0 1 .349-.141c.126 0 .223.044.29.132.067.088.1.203.1.346a.768.768 0 0 1-.17.514.531.531 0 0 1-.428.203.43.43 0 0 1-.352-.163c-.088-.109-.132-.263-.132-.463 0-.201.053-.402.16-.601.107-.199.259-.359.455-.478.196-.12.424-.18.684-.18Zm-.988.951a2.397 2.397 0 0 0-.041.403c0 .149.024.26.071.335.047.074.11.111.187.111.093 0 .163-.05.211-.152a.925.925 0 0 0 .073-.398.737.737 0 0 0-.058-.326c-.039-.074-.093-.112-.163-.112-.081 0-.175.047-.28.139Z" style="fill:none;stroke:#fff;stroke-width:.22px" transform="translate(-92.171 -205.428) scale(4.41374)"/><path d="M34.775 62.382c-.008.008-.012-.021-.017-.031-.35-.646-.687-1.387-.69-2.271.343-2.747 5.242.974 6.119 1.7l.491-.038c-.845-1.042-2.263-2.107-3.626-2.592-2.333-.83-4.467-.051-2.531 3.574-.17 1.643.56 2.248 1.7 2.38.774.724 2.133 2.123 3.664 2.736 2.281.913 4.582.489 2.984-3.227h-.529c2.88 5.411-4.095 2.503-5.553.113 1.635-1.016.221-3.717-1.699-2.606a1.439 1.439 0 0 0-.313.262Z" style="fill:#f08300" transform="translate(-92.171 -205.428) scale(4.41374)"/><path d="M36.939 63.592c0-.13-.005-.256-.015-.377a.879.879 0 0 0-.106-.348c-.151-.301-.428-.453-.831-.453-.584.03-.891.373-.921 1.028-.011.674.297 1.006.921.997.544 0 .841-.202.891-.605h-.528c-.051.172-.172.252-.363.242-.232.01-.342-.151-.332-.484h1.284Zm-1.284-.392c.01-.272.12-.408.332-.408.232 0 .348.136.348.408h-.68Z" style="fill:#fff" transform="translate(-92.171 -205.428) scale(4.41374)"/><path d="M40.351 64.558c.36-.022.468.11.829.088-.95 1.102-3.326 3.436-5.314 3.524-1.387.061-2.842-.81-1.543-3.669.18.158.205.218.385.376-.936 1.555-.593 2.515.078 2.887 1.259.699 4.334-1.443 5.565-3.206ZM37.106 61.779c-.312.019-.406-.095-.717-.075.562-.605 1.678-1.627 2.922-2.331.545-.308 1.116-.612 1.675-.654 1.231-.095 2.974.668 1.84 3.11-.156-.137-.241-.063-.397-.199.871-1.63.191-2.618-.51-2.624-1.459-.013-3.791 1.216-4.813 2.773ZM33.444 62.59v1.041c.007.227-.021.381-.082.463-.062.097-.172.145-.33.145-.158 0-.271-.048-.34-.145-.062-.082-.089-.236-.083-.463V62.59h-.412v1.195c.014.474.292.718.835.732.529-.014.803-.258.824-.732V62.59h-.412Z" style="fill:#0068b7" transform="translate(-92.171 -205.428) scale(4.41374)"/><path d="M39.879 63.061c-.022-.408-.26-.623-.713-.645-.558.03-.848.26-.871.69 0 .279.23.472.69.577a.355.355 0 0 0 .079.023c.265.053.396.151.396.294-.007.174-.146.264-.418.271-.234-.014-.351-.143-.351-.384h-.453c-.007.46.261.69.804.69.588-.015.886-.241.894-.679.007-.286-.234-.479-.724-.577a.434.434 0 0 0-.057-.011c-.272-.038-.4-.136-.385-.295.008-.165.121-.256.34-.271.219 0 .331.106.339.317h.43ZM40.362 62.812h.623v1.742h.452v-1.742h.623v-.351h-1.698v.351ZM44.334 62.984c-.031-.442-.325-.666-.883-.674-.558.021-.848.362-.871 1.022.015.646.306.976.871.99.566-.007.86-.224.883-.653h-.476c-.007.239-.142.362-.407.369-.249-.014-.381-.249-.396-.706.015-.464.147-.702.396-.716.257.007.392.13.407.368h.476Z" style="fill:#0068b7" transform="translate(-92.171 -205.428) scale(4.41374)"/></svg>