<svg xmlns="http://www.w3.org/2000/svg" width="154" height="157" fill="none"><g filter="url(#a)"><path fill="#fff" d="M13 0h128v128H13z"/><path fill="#25366D" fill-rule="evenodd" d="m84.449 81.86-.11-.332c-.48.149-.788.211-1.022.211-.652 0-1.012-.577-1.012-1.629 0-.978.383-1.516 1.08-1.516.246 0 .526.035.892.115l.08-.343a3.643 3.643 0 0 0-.995-.17c-1 0-1.548.696-1.548 1.977 0 1.24.536 1.972 1.428 1.972.31 0 .75-.103 1.207-.285ZM87.927 82.07v-3.812h-.456v1.635h-1.83v-1.635h-.457v3.813h.457v-1.835h1.83v1.835h.456ZM88.851 82.071h.457v-3.814h-.457v3.814ZM92.98 82.07v-3.812h-.382v3.39l-1.715-3.39h-.651v3.813h.382v-3.345l1.716 3.345h.65ZM94.418 80.699l.686-2.047.709 2.047h-1.395Zm.978-2.441h-.52L93.52 82.07h.413l.365-1.024h1.647l.371 1.024h.47l-1.39-3.813ZM106.498 82.071l-.126-3.814h-.651l-1.099 3.45-1.109-3.45h-.652l-.126 3.814h.423l.075-3.374 1.086 3.374h.549l1.098-3.374.063 3.374h.469ZM107.933 80.699l.686-2.048.709 2.048h-1.395Zm.978-2.442h-.521l-1.355 3.814h.412l.366-1.024h1.647l.372 1.024h.469l-1.39-3.814ZM113.037 82.071v-.342h-1.703v-3.472h-.457v3.814h2.16ZM114.267 80.699l.686-2.048.71 2.048h-1.396Zm.978-2.442h-.521l-1.354 3.814h.411l.366-1.024h1.647l.372 1.024h.469l-1.39-3.814ZM119.435 78.257h-.458l-1.011 1.761-1.041-1.76h-.525l1.297 2.143v1.67h.458v-1.67l1.28-2.144ZM121.97 80.985c0-.578-.217-.83-1.052-1.087-.715-.217-.812-.32-.812-.663 0-.407.291-.635.709-.635.235 0 .527.04.904.12l.08-.337a3.657 3.657 0 0 0-1.001-.16c-.698 0-1.149.4-1.149 1.052 0 .88.88.932 1.498 1.213.298.13.367.274.367.555 0 .41-.361.686-.848.686-.274 0-.577-.052-.959-.149l-.098.349c.423.125.725.176 1.086.176.772 0 1.275-.428 1.275-1.12ZM122.681 82.071h.458v-3.814h-.458v3.814ZM124.611 80.699l.687-2.048.709 2.048h-1.396Zm.979-2.442h-.521l-1.355 3.814h.411l.367-1.024h1.647l.371 1.024h.469l-1.389-3.814ZM72.887 80.522v-2.26h-.382v2.425c0 .349-.028.543-.108.685-.137.252-.422.383-.833.383-.64 0-.954-.285-.954-.919v-2.574h-.456V80.5c0 .725.029.908.2 1.153.205.296.639.479 1.141.479.474 0 .84-.12 1.079-.347.262-.257.313-.457.313-1.262ZM76.406 82.068l-1.752-2.037 1.707-1.769h-.543l-1.655 1.735v-1.735h-.455v3.806h.455v-1.963l1.673 1.963h.57ZM78.837 82.466h.18v-4.592h-.18v4.592ZM99.397 82.466h.18v-4.592h-.18v4.592ZM125.537 72.66v-4.583c0-.575-.313-1.055-1.08-1.055-.432 0-.744.12-1.008.384.072.216.096.432.096.887v4.368h-1.464v-4.584c0-.527-.144-1.08-1.08-1.08-.479 0-.648.073-.911.194v5.47h-1.464v-6.046a5.89 5.89 0 0 1 2.447-.528c.912 0 1.512.215 1.872.528.432-.313 1.007-.528 1.848-.528 1.535 0 2.207.887 2.207 1.99v4.584h-1.463ZM110.117 72.66v-4.486c0-.624-.264-1.08-1.08-1.08-.457 0-.768.12-1.079.312v5.255h-1.464v-8.638h1.464v2.4a3.831 3.831 0 0 1 1.439-.288c1.608 0 2.183.96 2.183 1.942v4.584h-1.463ZM92.285 65.275c-.557 0-.847-.364-.847-.775 0-.41.29-.774.847-.774.532 0 .846.363.846.774 0 .41-.314.775-.846.775ZM97.713 72.66v-4.583c0-.527-.216-1.08-1.153-1.08-.48 0-.72.073-.984.194v5.47h-1.463v-6.046a6.273 6.273 0 0 1 2.52-.528c1.919 0 2.543.935 2.543 1.968v4.606h-1.463ZM91.552 72.66h1.465v-6.453h-1.465v6.454ZM89.638 72.732c-1.272 0-1.776-.72-1.776-1.751v-3.838h-.72v-.936h.72V64.91l1.464-.406v1.703h1.032v.936h-1.032v3.838c0 .575.312.744.72.744.12 0 .288 0 .432-.024v.96a6.21 6.21 0 0 1-.84.071ZM85.73 72.732c-1.271 0-1.775-.72-1.775-1.751v-3.838h-.72v-.936h.72V64.91l1.464-.406v1.703h1.032v.936h-1.032v3.838c0 .575.312.744.72.744.12 0 .288 0 .432-.024v.96a6.197 6.197 0 0 1-.84.071ZM75.096 72.66l-3.071-5.182a7.934 7.934 0 0 1-.503-1.007h-.024c.047.407.072.743.072 1.055v5.135h-1.416v-8.23h1.512l2.855 4.847c.168.287.311.551.456.935H75c-.049-.408-.049-.695-.049-.983V64.43h1.416v8.23h-1.272ZM116.061 71.844a2.494 2.494 0 0 1-.863.169c-.769 0-1.296-.504-1.296-1.393 0-.838.456-1.414 1.344-1.414.408 0 .671.072.815.095v2.543Zm-1.007-5.757a5.38 5.38 0 0 0-2.207.48l.334.888c.385-.193.984-.409 1.608-.409.769 0 1.272.216 1.272 1.056v.36a5.569 5.569 0 0 0-.935-.097c-1.488 0-2.687.769-2.687 2.303 0 1.248.839 2.184 2.663 2.184 1.007 0 1.823-.191 2.375-.455v-4.055c0-1.68-1.08-2.255-2.423-2.255ZM103.905 71.533c-.215.12-.503.215-.838.215-1.032 0-1.489-.767-1.489-2.254 0-1.536.481-2.496 1.559-2.496.313 0 .553.024.768.145v4.39Zm-.75-5.446c-2.082 0-3.111 1.319-3.111 3.407 0 2.015 1.029 3.215 2.585 3.215.575 0 1.006-.097 1.268-.24v.408c0 .863-.455 1.415-1.532 1.415-.717 0-1.173-.192-1.556-.36l-.407.912c.48.264 1.246.479 2.227.479 1.604 0 2.705-.886 2.705-2.59v-6.191c-.431-.24-1.197-.455-2.179-.455ZM80.143 71.893c-1.008 0-1.175-1.296-1.175-2.448 0-1.176.167-2.47 1.175-2.47s1.176 1.294 1.176 2.47c0 1.152-.168 2.448-1.176 2.448Zm-.095-5.806c-1.823 0-2.734 1.391-2.734 3.358 0 1.944.911 3.335 2.734 3.335 1.824 0 2.735-1.39 2.735-3.335 0-1.967-.91-3.358-2.735-3.358ZM114.3 56.167c-.542 0-.656.257-.656.654v.2h.771v.8h-.771v3.62h-1.169v-3.62h-.485v-.8h.485v-.313c0-.884.57-1.369 1.54-1.369.199 0 .342 0 .513.029v.799h-.228ZM103.364 63.209c-.657 0-1.169-.143-1.511-.315l.257-.684c.255.115.597.23 1.082.23.742 0 .97-.343.97-.913v-.286c-.141.086-.427.2-.912.2-1.084 0-1.569-.541-1.569-1.425v-2.994h1.17v2.936c0 .4.142.713.712.713.285 0 .458-.086.599-.142v-3.507h1.17v4.248c0 1.397-.828 1.939-1.968 1.939ZM100.229 61.498c-.854 0-1.282-.457-1.282-1.197v-2.48h-.486v-.8h.486v-.912l1.169-.313v1.226h.713v.798h-.713v2.367c0 .398.2.513.484.513.143 0 .257 0 .4-.03v.742c-.115.029-.344.086-.771.086ZM96.497 61.44h1.167v-4.418h-1.167v4.419ZM94.08 61.527a3.03 3.03 0 0 1-1.368-.314l.285-.741c.23.113.542.257.913.257.427 0 .684-.144.684-.485 0-.315-.199-.457-.713-.655-.856-.343-1.027-.856-1.027-1.341 0-.712.542-1.312 1.512-1.312.54 0 .94.143 1.255.313l-.315.685a1.65 1.65 0 0 0-.798-.228c-.4 0-.597.171-.597.456 0 .314.312.428.712.598.882.343 1.082.856 1.082 1.398 0 .798-.656 1.369-1.624 1.369ZM92.34 57.82a2.35 2.35 0 0 0-1.026 0v3.62h-1.168v-4.162c.171-.085.855-.313 1.626-.313.453 0 .569.029.74.057l-.171.798ZM80.074 56.48c-.428 0-.628-.257-.628-.57 0-.313.2-.57.628-.57.4 0 .627.257.627.57 0 .313-.227.57-.627.57ZM83.851 61.44H82.74l-1.511-4.418h1.255l.57 2.08c.057.2.2.714.255.97h.03c.027-.256.171-.77.227-.97l.599-2.08h1.17L83.85 61.44ZM79.465 61.44h1.169v-4.418h-1.17v4.419ZM97.106 56.48c-.427 0-.628-.257-.628-.57 0-.313.2-.57.628-.57.4 0 .627.257.627.57 0 .313-.228.57-.627.57ZM77.458 61.44v-3.107c0-.313-.14-.627-.713-.627-.284 0-.455.056-.597.114v3.62H74.98v-4.162a4.73 4.73 0 0 1 1.824-.342c1.34 0 1.826.656 1.826 1.397v3.108h-1.17ZM72.15 61.527c-1.142 0-1.996-.599-1.996-1.768v-3.935h1.226v3.935c0 .541.285.826.77.826.485 0 .77-.285.77-.826v-3.935h1.225v3.935c0 1.169-.854 1.768-1.995 1.768ZM109.607 60.757c-.598 0-.74-.684-.74-1.54 0-.827.142-1.51.74-1.51.6 0 .742.683.742 1.51 0 .856-.142 1.54-.742 1.54Zm0-3.821c-1.31 0-1.939.97-1.939 2.281 0 1.34.629 2.31 1.939 2.31 1.312 0 1.94-.97 1.94-2.31 0-1.311-.628-2.281-1.94-2.281ZM88.29 58.847h-1.653c0-.856.342-1.17.828-1.17.456 0 .825.285.825 1.113v.057Zm1.113.284c0-1.396-.712-2.195-1.911-2.195-1.225 0-1.968.855-1.968 2.281 0 1.483.828 2.31 2.139 2.31.684 0 1.197-.143 1.568-.343l-.285-.77a2.608 2.608 0 0 1-1.168.257c-.543 0-1.028-.228-1.114-1.082h2.739v-.458Z" clip-rule="evenodd"/><path fill="url(#b)" fill-rule="evenodd" d="M27 82.47h36.94V45.53H27v36.94Z" clip-rule="evenodd"/><path fill="#fff" fill-rule="evenodd" d="M51.946 54.42c-.836-.455-1.625-.813-2.7-1.076v2.198c.957.215 1.864.55 2.7.932V54.42ZM48.29 61.611a.485.485 0 0 0-.477.502l-.144 4.492h1.267l-.168-4.492c0-.287-.19-.502-.477-.502ZM49.414 73.986c-1.339 0-2.294-.31-3.513-.93-1.314-.67-2.771-1.243-4.635-1.243-1.744 0-3.608.622-5.017 2.724 1.696-1.052 3.273-1.386 4.587-1.386 1.41 0 2.486.359 3.584.931 1.243.645 2.317 1.1 3.87 1.1 1.506 0 3.202-.573 4.66-2.484a5.371 5.371 0 0 1-3.536 1.288Z" clip-rule="evenodd"/><path fill="#fff" fill-rule="evenodd" d="M41.791 62.113c0-.287.216-.502.479-.502s.477.215.477.502l.168 4.492h-1.267l.143-4.492Zm.192 8.96c1.194 0 2.58.333 4.133 1.194v-4.443l-.645-.814v-6.164l1.266-1.959-.526 1.887c.359-.046.718-.07 1.1-.07 1.242 0 2.389.214 3.369.597l1.266-1.171v-3.178a15.507 15.507 0 0 0-2.7-.931 14.225 14.225 0 0 0-1.816-.31v-2.75a14.689 14.689 0 0 0-2.078-.142c-.67 0-1.338.047-1.984.12v2.603c-.62.072-1.218.192-1.791.334v-2.579a12.904 12.904 0 0 0-2.891 1.194v5.353l1.218 1.17-.358 6.02-.98.98v3.488l.335.358c.812-.429 1.839-.787 3.082-.787Z" clip-rule="evenodd"/></g><defs><linearGradient id="b" x1="27" x2="63.941" y1="45.53" y2="82.471" gradientUnits="userSpaceOnUse"><stop stop-color="#0C9CBB"/><stop offset="1" stop-color="#24376E"/></linearGradient><filter id="a" width="154" height="157" x="0" y="0" color-interpolation-filters="sRGB" filterUnits="userSpaceOnUse"><feFlood flood-opacity="0" result="BackgroundImageFix"/><feColorMatrix in="SourceAlpha" result="hardAlpha" values="0 0 0 0 0 0 0 0 0 0 0 0 0 0 0 0 0 0 127 0"/><feOffset dy="16"/><feGaussianBlur stdDeviation="6.5"/><feColorMatrix values="0 0 0 0 0 0 0 0 0 0 0 0 0 0 0 0 0 0 0.03 0"/><feBlend in2="BackgroundImageFix" result="effect1_dropShadow_271_3"/><feBlend in="SourceGraphic" in2="effect1_dropShadow_271_3" result="shape"/></filter></defs></svg>