<svg xmlns="http://www.w3.org/2000/svg" width="154" height="157" fill="none"><g filter="url(#a)"><path fill="#fff" d="M13 0h128v128H13z"/><path fill="#E62129" fill-rule="evenodd" d="M72.203 58.253c-.396.23-.923.31-1.226.672-.159.191-.29.481-.449.725a30.82 30.82 0 0 1-.949 1.397c-.204.29-.454.593-.612.89-.211.409-.56.758-.838 1.173-.316.462-.553.95-.949 1.338-.132.488-.494.956-.784 1.45-.547.95-1.14 1.773-1.839 2.623-.448.547-.797 1.279-1.397 1.562-.475.225-1.074.178-1.622.165.225-.33.6-.474.89-.725.284-.244.56-.481.837-.725.607-.731 1.22-1.41 1.786-2.175.567-.764 1.022-1.602 1.563-2.399 1.054-1.556 2.135-3.164 2.959-4.91-.784-.297-2.3-.29-2.511-1.338 1.549.441 2.873-.37 3.572-1.285.903.138 1.397.685 1.562 1.562h.007ZM104.624 60.322c.013-.066.059-.033.112 0-.04-.171.099-.165.052-.336-.072-.06-.158-.395-.276-.224.171.171-.02.408.112.56Zm-2.287-3.46c.764.316 1.41.745 2.234 1.002-.033.342.02 1.054.112 1.45.527.099.778.91 1.285.672.152.448.778.705.672 1.226.106.191.37.224.449.448-.231.25-.251.692-.449.95-.243.322-.612.322-1.001.5-.317.54-1.226.481-1.061 1.51-.218.138-.468.237-.673.388-.125.54-.567 1.279-.336 2.175-.442.218-.883.409-1.173.785-.231.296-.231.718-.448 1.001-.758.066-1.101.534-1.562.897-.409-.165-.613.151-.89.277a.398.398 0 0 1-.277-.39c-.204.02-.198.245-.5.166-.027-.403.236-.508.388-.725-.026-.475.336-.56.56-.778.033-.204.053-.198.053-.501.343-.198.547-.527.725-.89.494.218.62-.323.837-.56 0-.204-.198-.211-.277-.336.027-.211.099-.383.224-.501-.079-.389-.454-.475-.613-.784-.131 0-.164.098-.336.059-.323-.382-.942-.468-1.002-1.114.831.224 1.945.105 2.459-.448.099-.106.112-.31.224-.501.191-.317.435-.547.501-1.061-.145-.455.079-1.075 0-1.786.118-.145.217-.047.336-.113.007-.177-.204-.421-.053-.56a1.333 1.333 0 0 1-.389-.837c-.013-.19.112-.415.112-.613-.006-.375-.29-.685-.112-1.002l-.019-.006ZM87.606 61.884c-.495.672-1.371.97-2.01 1.51-.495-.1-.877.336-1.226.56.026.633-.554 1.048-.613 1.621-.027.237.118.37.164.56.04.145-.026.284 0 .337.119.25.488.58.785.89.27.283.639.698.89.784.098.033.303-.014.448 0 .514.059.896.138 1.173-.225.092-.118.013-.362.112-.56.138-.27.442-.349.5-.613.067-.31-.098-.652-.052-1.06-.35-.37-1.733-1.411-.784-1.787.204.138.323.066.613.053.263-.495.323-1.2.389-1.898-.132-.06-.178-.192-.39-.165v-.007Zm3.513 3.513c.494-.54.64-.804 1.06-1.397.185-.257.45-.534.45-.725 0-.356-.805-1.008-1.062-1.114-.389-.165-1.47-.27-1.727-.277-.046.013-.066.046-.06.112-.164.66.673 1.252.614 1.898-.014.152-.132.231-.277.449-.106.151-.172.362-.277.5-.264.35-.738.554-.89.838-.217.395-.112.85.165 1.338.758-.396 1.477-1.035 2.01-1.622h-.006Zm-2.96-8.258c.257.23.547.171.837.276.514 1.108.449 2.09.449 3.797.257.244.804.435 1.226.336.375.31 1.054.244 1.674.448.303.1.534.317.837.336.171.297.863.844.89 1.226.026.317-.251.692-.501.95-.205.204-.58.31-.785.56-.158.197-.237.507-.389.725-.131.19-.283.461-.448.613-.27.25-.982.494-1.002.949-.02.349.396.6.449 1.001.032.27-.04.436-.112.838-.785.125-2.15.375-2.96-.053-.646.244-1.08.62-1.727.277-.178-.093-.54-.429-.725-.613-.085-.086-.072-.205-.165-.277-.25-.191-.448-.224-.672-.448-.356-.356-1.028-.837-1.397-1.174-.08-.48-.37-.744-.448-1.225-.1-.27-.508-.238-.613-.501.191-1.47 1.806-1.958 2.9-2.624.837-.507 1.496-1.252 2.458-1.285.37-1.252.04-2.827.224-4.132ZM53.959 58.536c-.119.316.072.527.053.896-.35.185-.68.31-1.002.224-.593-.158-.844-1.146-1.285-1.45-.027-.178.17-.125.111-.336.244-.04.317.093.56.06.014-.06.113-.04.113-.112.481.243 1.048.402 1.45.725v-.007ZM82.195 58.648c.092-.013.098.053.164.053.297.797.798 1.568.725 2.564-.099.085-.217.151-.336.224-.408-.185-.692-.501-1.285-.501.27-.593.745-1.252.56-2.123.08-.046.218-.046.165-.224l.007.007ZM45.529 59.538c.066-.007.099.013.112.053.409.724.31 1.608.336 2.458.033 1.206.106 2.28.165 3.408.033.566-.073 1.173 0 1.726.06.462.481 1.068.112 1.51-.25.079-.824-.33-.95-.613-.138-.317-.045-1.14-.052-1.84-.026-1.759.112-3.743.165-5.074.026-.554-.04-1.075.112-1.615v-.013ZM118.689 60.876c.132.013.125.151.053.224-.132-.013-.126-.152-.053-.224ZM118.854 61.047c.184.106.329.376.613.224-.053.244-.29.303-.613.277v-.5ZM32.248 64.395c-.988-.105-1.311-.883-2.063-1.226-1.22-.322-2.518-.566-3.183-1.45-.013-.092.053-.099.053-.164.046-.014.052-.053.111-.053.422.086.976.079 1.45.224.027.007.04.105.053.112.06.026.112-.053.112-.053.31.106.554.27.837.39.33.144.64.23.95.388.237.125.421.356.672.501.323.191.764.297.949.672.099.205.079.455.053.673l.006-.014ZM122.538 65.285c.995-.171 2.096.204 1.951.95-.066.355-.475.283-.725.56-.349-.198-.712.052-.949.276-.066.706.092 1.305 0 1.84-.046.283-.317.685-.448 1.001-.165.402-.482.666-.725 1.002-.442-.033-.613.514-1.002.672-.837.33-1.898-.191-2.459 0-.435-.178-.955-.277-1.285-.56-.072-.171-.04-.448-.112-.613.903.369 2.524.06 3.46-.501.857-.514 1.391-1.37 1.285-2.458-.309-.468-1.034-.264-1.509-.39-.244.133-.481.238-.784.39-1.061.533-1.681-.547-1.951-1.398.323.336.929.211 1.173.277.376-.184.956-.31 1.509-.389.416-.06.95.053 1.114-.336-.026-.415-.356-.178-.672-.277-.685-.586-.152-1.727.224-2.234-.277-.158-.573.264-.949.336-.652.119-1.358-.026-1.45-.613.448.27.778.152 1.397-.06.521-.177.91-.322 1.173-.671.739.02 1.371.151 1.899.388.646.765-.844 1.062-.725 1.951.046.37.389.37.56.837v.02ZM80.408 62.998c.066-.006.1.013.112.06.086.546-.151.75-.112 1.173.04.402.218.89.39 1.226.15.283.434.441.5.837.053.31-.112.62-.052.949.118.132.237-.06.336.112-.304 1.008.593 2.148-.112 2.735-.547-.152-.666-.587-.95-1.114-.072-.132-.224-.204-.276-.336-.31-.719-.396-1.872-.337-2.735.02-.25.152-.468.165-.725.027-.402-.066-.785 0-1.114.066-.343.29-.745.336-1.061v-.007ZM106.97 69.47c-.389-.316-.85-.566-1.002-1.114.29-.6-.053-1.502.336-2.01.178.126.607.1.89.224.119.053.204.198.389.337.138.098.356.151.448.224.178.145.323.395.501.56.376.356.62.356.448 1.002-.079.303-.573.955-.949 1.002-.428.059-.659-.39-1.061-.225Z" clip-rule="evenodd"/><path fill="#E62129" fill-rule="evenodd" d="M118.854 61.548c.323.026.56-.033.613-.277-.284.152-.429-.118-.613-.224v.501Zm-.112-.448c.072-.073.072-.205-.053-.224-.073.072-.073.21.053.224Zm3.737-3.85c.145.14.375.179.56.278.204-.317.066-.798.059-1.002-.362-.231-.863-.33-1.173-.613.026-.125.277-.02.389-.053.244-.257.731-.27.949-.56.877.145 2.531 1.035 1.226 1.786-.132.31-.224.672-.448.89.006.613-.29 1.18-.165 1.727.013.237-.171.276-.112.56 1.087-.04 2.676-.356 3.236.613-.185.343-.791.534-1.173.5-.086-.197.191-.032.165-.164-.073-.106-.356.053-.501.053-.238-.172-.719-.1-.89-.337.468.04.646-.21 1.002-.276-.145-.264-.475-.02-.725 0-.475.04-.877-.066-1.173.112-.435.263-.297.764-.561 1.114-.474-.1-.843-.31-.784-.95-.422-.079-.791.178-1.226.337-.712.25-1.529.33-2.122.725-.06.23-.013.243 0 .5-.211-.085-.303-.29-.501-.388-.356.072-.593.263-.89.389-.026.382.119.586.165.896-.264-.218-.442-.527-.613-.837-.962.283-1.925.567-2.511 1.226-.099.646-.666.824-1.002 1.226-.58-.053-1.154-.501-1.061-.785.125-.389.837-.988.89-1.509.098 0 .144-.04.164-.112.416.092.659.073 1.002.277.903-.158 1.687-.429 2.511-.672.053-1.648-.764-2.874-1.621-3.797a1.826 1.826 0 0 1-.725-.613c1.746.264 2.359 2.67 2.623 4.238.237.053.606-.198.896-.277.119-1.456-.435-4.211-1.562-4.798 1.628.198 1.714 2.419 2.123 4.02.435-.303.408-.744.725-1.113a2.311 2.311 0 0 0-.725-.725c.23-.126.56.389.784.277.152-.462.369-.917.336-1.45-.171-.145-.224.19-.501.112-.402-.27-.731-.607-.837-1.174.264-.257.514-.91.165-1.285.6.106.995.415 1.226.89.488.171 1.246.35 1.562.672.554.56-.026.864-.336 1.45-.205.39-.231.81-.56 1.002-.073.165.033.29 0 .56-.455.178-.468.798-.89 1.002.31.185.534-.112.837-.224.488-.178 1.147-.218 1.621-.389.178-.066.448-.138.448-.389.02-.244-.23-.217-.336-.336-.211-.33-.375-.705-.56-1.061.33.363.62.152 1.114.224.152-.112.046-.474.165-.613-.389-.323-.949-.863-.725-1.45a.976.976 0 0 0 .336.277c-.007.125-.139-.073-.277 0l.007.02ZM51.388 62.55c-.626.21-.62-.679-1.002-.89-.085.027.02.073 0 .165-.111-.013-.111-.152-.224-.165 0-.204.198-.21.277-.336.495.455.97.93 1.226 1.621-.237.014-.158-.29-.277-.389v-.006Zm-1.113 1.674c-.758.382-1.306.962-2.01 1.397-.014-.046.019-.052.052-.06.508-.685 1.397-1.41 2.122-2.062-.006-.264.185-.336.224-.56.172-.04.165.099.337.053-.113.54-.515.79-.725 1.225v.007Zm-1.398-2.459c-.02-.145.08-.184.224-.164-.046.079-.085.178-.224.165Zm5.187 3.685c-.23-.554-.494-.962-.56-1.45.092-.481.718-.567.784-1.002.093-.626-.566-.916-1.173-1.114-.046.415-.171.758-.389 1.002-.712-.567-1.325-1.246-1.727-2.122.033-.27.363-.231.39-.501.059-.93-.666-.738-1.398-.837-.092-.013-.244-.158-.336-.165-.099-.013-.132.08-.224.06-.27-.08-.481-.284-.672-.277-.139.336-1.016.474-.501.949.224-.106.461-.159.672-.113-.297.422-.91.185-1.285.225.441.21.83.474 1.113.837-.342.422-.87.659-1.225 1.06-.172.04-.165-.098-.337-.052-.27.573-.052 1.602.501 1.621.238.007.982-.672 1.174-.837.171-.145.33-.204.5-.276.08-.033.007-.218.113-.224.263 0 .283-.468.5-.337.053.547-.098.594-.224 1.002-.441.158-.54.501-.89.837-.21.198-.546.356-.724.56-.08.086-.12.25-.224.39-.297.395-.87.823-1.062 1.113-.204.317-.224.97.165 1.061.389-.112.607-.395 1.061-.448.119-.33.488-.237.725-.336.785-.33 1.556-1.16 2.063-1.562.211-.171.303-.29.448-.5.244-.357.435-.653.613-.95.152.152.284.31.337.56-.429.91-1.174 1.51-1.727 2.287-.666.39-1.285 1.226-2.287 1.002-.152-.033-.297-.224-.449-.165.64.765 1.24 1.404 2.288 1.338.494-.033.817-.349 1.113-.5.383-.192.956.125 1.226-.277-.158-.172-.052-.62-.224-.785-.171-.125-.659.06-.672-.224.606-.382.936-1.041 1.51-1.45.52.672.415 1.964 1.285 2.287.263-.573 0-.989-.277-1.674l.006-.013ZM35.873 60.15c-.165.436-.257 1.128-.165 1.51.396-.046.29-.606.673-.672.066-.468.422-.56.56-1.061-.435-.007-.745.112-1.061.224h-.007Zm-2.346-4.857c.863.033 1.601.224 2.01.785.125.164.257.467.277.612.145.87-.316 1.661.053 2.4.764-.073 1.568-.402 2.122-.501.138-.086.145-.303.277-.39 1.114.152 3.526.39 2.847 1.84-1.153.58-2.419 1.035-3.071 2.122.178.343.645.5.5 1.002-1.014.23-2.01.481-2.623 1.114.02.758-.336 1.535-.388 2.346-.014.224.065.455.052.672-.006.165-.099.337-.112.501-.04.475.066.956 0 1.398-.026.177-.145.33-.165.5-.046.396-.059.785-.112 1.114-.052.356.007.719-.052.95-.04.145-.178.217-.225.336-.079.19.06.487-.164.613-.514-.363-.297-1.154-.336-1.787-.014-.237-.093-.46-.113-.725-.125-1.7.225-3.855 0-5.075-.125-.678-1.245-1.107-.612-2.063.079-.085.283-.046.448-.059.21-.573.25-1.859.053-2.452-.501.086-1.055.488-1.787.501-.553.013-1.298-.079-1.562-.448a24.12 24.12 0 0 1 1.562-.56c.37-.112.772-.205 1.174-.336.276-.093.54-.093.672-.39.099-.23.079-.744.052-1.113-.026-.554-.257-1.088-.336-1.562-.046-.284.046-.514 0-.672-.092-.29-.375-.29-.448-.673h.007Z" clip-rule="evenodd"/><path fill="#E62129" fill-rule="evenodd" d="M56.859 70.92c-1.338.594-2.096-.665-2.788-1.338-.303-.29-.692-.48-.725-.837-.053-.197.184-.092.224-.052.171-.192-.297-.218-.224-.501.112.303.488.165.613.224.092.046.165.204.277.277.296.184.652.27 1.06.448.489-.218.324-.85.561-1.226-.145-2.208-.31-4.475-.56-7.085a12.15 12.15 0 0 0-.39-2.063c-.197-.725-.335-1.747-.783-2.01-.884-.047-1.563.25-2.235.448-.29.085-.586.112-.837.224-.441.19-.824.507-1.226.725-.672.369-1.358.718-2.175.672.277-.37.778-.606 1.285-.837.943-.422 1.853-.824 2.9-1.173.528-.172 1.16-.39 1.622-.449 1.45-.184 2.109.548 3.124.95.158.356.534.6.5 1.06-.025.35-.381.561-.447.838-.125.553.066 1.437.112 2.063.02.33-.033.685 0 1.061.033.33.151.672.165 1.002.04.79-.007 1.456.112 2.122.066.343.059.758.112 1.061.046.257.052.39.052.725 0 .145.1.25.112.39.132 1.29-.27 2.207-.448 3.295l.007-.014ZM72.875 63.835c1.074.316 2.557.211 2.458 2.01a4.37 4.37 0 0 0-1.173.837c-.118.119-.27.224-.389.39-.066.085-.342.856-.336 1.06.007.152.185.356.165.501-.04.284-.33.449-.501.613-.64-.145-1.2.198-1.45.613-.751-.066-.837-.797-1.562-.896-.224-.323-.435-.633-.672-.95-.211-.283-.396-.678-.673-.896-.29-.23-.758-.303-1.06-.56-.251-.21-.41-.52-.561-.837.712.073 1.351.211 1.839.501.369.857.83 1.621 1.51 2.175.21-.145-.007-.659.223-.89.139-.118.119-.079.337-.052.5-.37.817-.936 1.001-1.622-.263-.534-1.015-.58-1.397-1.002.699-.066 1.984-.158 2.234-1.002l.007.007Z" clip-rule="evenodd"/></g><defs><filter id="a" width="154" height="157" x="0" y="0" color-interpolation-filters="sRGB" filterUnits="userSpaceOnUse"><feFlood flood-opacity="0" result="BackgroundImageFix"/><feColorMatrix in="SourceAlpha" result="hardAlpha" values="0 0 0 0 0 0 0 0 0 0 0 0 0 0 0 0 0 0 127 0"/><feOffset dy="16"/><feGaussianBlur stdDeviation="6.5"/><feColorMatrix values="0 0 0 0 0 0 0 0 0 0 0 0 0 0 0 0 0 0 0.03 0"/><feBlend in2="BackgroundImageFix" result="effect1_dropShadow_185_280"/><feBlend in="SourceGraphic" in2="effect1_dropShadow_185_280" result="shape"/></filter></defs></svg>