<svg xmlns="http://www.w3.org/2000/svg" width="154" height="157" fill="none"><g filter="url(#a)"><path fill="#fff" d="M13 0h128v128H13z"/><path fill="#025A92" fill-rule="evenodd" d="M121.023 59.815c.008.026.188.311.48.467.293.156.468.078.703-.117.234-.195.019-.74.078-1.033.059-.292.097-.234.331-.195.234.039.624.8.643.975.02.175-.077.175-1.072.623-.994.449-1.447 1.227-1.616 1.321-.169.094-.112-.188-.45-.244-.337-.056-.409.53-.582.85-.174.32-.256.992-.256 1.246s-.106.573.281.867c.387.294.75-.072.851-.224.102-.153 0-.828.05-1.413.051-.585.798-.96 1.057-1.108.349-.196.681-.175.741-.087.058.089-.301.47-.463.589-.163.117-.05.605-.006.752.045.147-.02.228.315.338.395.13.324-.191.545-.442.222-.25.355-.516.516-.516.163 0 .236.325.325.442.088.118.132.34-.148.472-.28.132-1.091.42-1.091.42s-.458.079-.705.132c-.249.052-.536-.027-.601.288-.066.314.065.144.247.472.183.328.771.42 1.124.367.353-.053.549-.236.797-.433.248-.196.627-.432.823-.42.196.014.202.293.196.63-.007.337-.01.286-.115.6-.104.315-.172.41-.29.514-.118.105-.222.092-.679.132-.458.039-.797.354-.837.524-.039.17.145.118.34.223.195.105.444.157.98.183.535.027.784-.013 1.005-.21.222-.196.275-.838.314-1.284.039-.446-.061-.907-.061-1.101 0-.195 0-.234.125-.442.124-.207.31-.095.676-.138.367-.043.309-.289.336-.517.027-.228-.148-.327-.388-.507-.239-.18-.492-.075-.727-.075s-.17-.039-.17-.223c0-.183.122-.269.158-.45.036-.18.28-.352.504-.614.224-.261.359-.135.664-.126.305.009.429 0 .645-.216.216-.217.034-.664 0-.825-.034-.161-.169-.052-.458-.307-.287-.254-.541-.174-.846-.174-.304 0-.402-.257-.224-.419.177-.161.33-.398.482-.653.152-.254.11-.492.093-.738s-.279-.34-.558-.568c-.279-.23-.634-.051-.836.017-.204.068-.491.22-.702.33-.212.111-.355.11-.533.102-.177-.008-.321-.017-.397-.017-.076 0-.152.162-.27.348-.119.187-.22.085-.287-.017-.068-.102-.178-.347-.255-.5-.076-.153-.38-.085-.523 0-.144.085-.254.458-.304.72-.051.264.016 1.383.025 1.41Zm2.829-.628c-.048.036-.3-.156-.275-.409.023-.252.227-.709.562-.805.335-.096.455-.096.443.156-.012.253-.024.505-.251.721-.228.217-.431.3-.479.337Zm-.88 2.211c-.036-.036.617-.853 1.143-.925.527-.072.384-.169.659-.036.275.132.323.228-.024.396-.347.168-.515.3-.958.385-.443.084-.784.216-.82.18ZM108.316 62.098s.653-.397.873-.46c.219-.063.645-.33.786-.801.141-.472.172-1.037.172-1.273s-.141-.675.282-.534c.423.142.704.189.767.472.063.282.11.66.438.895.329.236.533.44.58.676.047.235.047.487-.126.597-.172.11-.748.678-.889.756-.141.079-.175.343-.081.343.094 0 .951.17 1.358.516.407.345.661.679.693 1.04.031.361 0 .99-.188 1.162-.188.173-.251.226-.407.195-.157-.032-.501-.242-.548-.525-.047-.282.047-.66-.079-1.162-.125-.503-.447-.619-.572-.682-.125-.062-.398-.12-.398-.12s-.219-.03-.282.174c-.063.204-.203.58-.235.816-.031.236.032.503-.078.613-.11.11-.36.361-.798.22-.439-.141-.407-.534-.501-.613-.094-.078.062-.565.062-.691s.172-.55.141-.66c-.031-.11-.469-.577-.642-.53-.172.047-.399 0-.414-.173-.016-.173.086-.251.086-.251ZM96.253 62.463c.019.01-.148.53-.356.922-.209.392-.283.395-.466.67-.182.274-.663.627-.69.784-.025.157-.051.627-.025.797.026.17.429.196.624.157.195-.04.352-.236.521-.236.17 0 .117.196.13.327.013.13.091.17.508.274.417.105.507-.183.599-.483.09-.3-.092-.288-.17-.562-.078-.275 0-.601-.012-.849-.014-.249.13-.47.26-.627.13-.157.302-.408.912-.178.609.23 1.262.948 1.327 1.132.065.182-.235.3-.352.457-.117.157-.729.313-.976.287-.248-.026-.325.17-.443.248-.117.079.013.301.13.445.118.143.912.156 1.211-.066.3-.222 1.146-.836 1.146-.836s.286.274.481.47c.195.196.625.484 1.393.575.768.092 1.08-.392 1.158-.483.079-.092-.065-.235-.299-.457-.234-.222-.835-.493-1.208-.458-.372.034-.809-.209-1.057-.34-.247-.13-.13-.143-.039-.522s.078-1.084 0-1.398c-.078-.313-.503-.41-.639-.598s-.305-.286-.05-.452c.254-.167.479-.637.668-.901.188-.265.348-.407.169-.643-.179-.237-.339-.312-.367-.492-.028-.18.028-.68.038-1.02.009-.34.037-.303-.255-.662-.292-.359-.565-.293-.725-.321-.16-.029-.235.453-.188.576.047.123.141.123.17.218.028.094-.038.028.056.425.094.397.045.899.045 1.035 0 .137-.109.24-.258.404-.15.164-.654.198-.947.348-.293.15-.347.404-.558.465-.211.061-.306-.25-.211-.663.063-.275.166-.966.152-1.326-.01-.249-.227-.56-.418-.738-.19-.178-.326-.068-.442-.014-.116.055-.252.247-.212.568.041.32.12.378.126.61.007.233-.069.722-.152 1.183-.084.461-.398.44-.734.608-.335.168-.98.396-1.4.501-.42.105-.715.264-.715.473 0 .21.208.235.522.445.314.21 1.999-.088 2.018-.08Zm1.56.652c-.045-.004-.477-.153-.366-.33.11-.179.742-.978.952-1.09.21-.11.376-.243.442 0 .067.245-.055 1.111.056 1.245.11.133.166.288.332.266.165-.022.52-.2.597-.044.078.155.21.333.022.555-.188.222-.31.289-.509.122-.2-.166-.42-.566-.697-.622-.276-.055-.786-.097-.83-.102ZM67.566 61.92c.164.02.46.066.808-.108.348-.175.574-.367.905-.699.33-.331 1.113-.907 1.392-1.012.278-.105.26.087.121.279-.139.192-.452.593-.591.943-.14.349-.244.506-.07 1.1.174.593.435.593.574.663.14.07.244.54.105.523-.14-.017-.8.647-.905 1.1-.104.454-.209.664.035 1.187.243.524.956.385 1.13.314.174-.07.087-.366.053-.837-.035-.472.208-.245.347-.018.14.227.105.646.383.977.278.332.478.07.597-.236.12-.306-.195-1.15-.228-1.514-.033-.364.175-.447.464-.447.29 0-.038.571.42 1.186.457.615.568.548 1.128.296.561-.252-.102-1.38-.485-1.763-.382-.384-.748-.384-.748-.524s.07-.489.018-.68c-.052-.192-.145-.47.029-.627.174-.158.846-.243.823-.78-.023-.54-.157-.584-.591-.898-.436-.314-1.392.157-1.375-.052.018-.21.783-.489 1.253-.646.47-.157.835-.128 1.078-.128.244 0 .237-.186.37-.378.133-.193.068-.52-.245-.834-.313-.315-1.368-.011-1.524-.011-.157 0-.149-.255-.392-.552-.244-.297-.47-.768-.644-.978-.174-.21-.226-.035-.54-.087-.312-.052-.573.21-.365.663.21.454.213.523.213.854 0 .332.332.434-.254.663-.587.23-2.295 1.275-2.525 1.48-.23.203-.916.178-1.044.229-.127.05-.483-.027-.256.637.323.946.37.694.535.714Zm3.793-.075s-.377-.3-.104-.497c.273-.195.506-.371.779-.195s.37.274.273.45c-.098.176-.147.344-.4.373-.303-.007-.548-.13-.548-.13ZM83.573 59.415c-.01.13-.124.354-.29.596-.167.242-.737.65-1.118.903-.382.254-1.5.799-1.655.932-.154.134-.378.023-.224.553s.414.407 1.133.376c.716-.03 1.199-.342 1.33-.285.116.05.175.281.184.456.01.175-.08.275-.26.476-.181.201-.194.568-.184.743a.75.75 0 0 0 .234.497c.151.151.209.037.383.027.175-.009.276-.221.298-.398.022-.176.219-.075.364-.035.146.04.084.075.094.265.01.191.013.239.225.323.211.084.242.05.482-.217.24-.268-.034-.922.095-.898.13.025.395-.069.576-.254.182-.184.355-.21.599-.43.243-.22.84-.708.977-.62.137.088.02 1.07.05 1.997.031.928-.015 1.346.02 1.753.036.408-.208.683-.222.895-.014.212.016.463.161.637.146.174.272-.065.488-.28.216-.217.23-.586.327-1.319s-.029-2.919.012-3.31c.041-.392.08-.487.183-.602.102-.114.105-.351.305-.377.2-.027.467.023.532-.214.064-.237.037-.47-.11-.586-.145-.117-.77-.237-.806-.344-.037-.107-.025-1.01-.04-1.289-.015-.279.05-.238.19-.525.14-.288.066-.487.076-.877.01-.39.012-.358-.217-.58-.23-.221-.44-.412-.77-.488-.33-.075-.407.225-.4.63.006.404.07.167.172.317.101.15.07.448.095.618.025.17-.068.174-.285.185-.216.012-.151-.18-.498-.286-.347-.105-.657.216-.814.178-.158-.038-.073-.112-.139-.483-.066-.37-.494-.61-.82-.609-.326.002-1 .621-1.463.997-.463.375-1.429 1.416-1.617 1.66-.189.243-.383.393-.389.564-.006.172-.05.175.201.224.251.048.602-.442 1.35-.95.748-.507 1.195-.674 1.185-.546Zm2.353 2.288c-.089-.03.428-.592.577-.722.15-.13.423-.214.397-.056-.026.158.068.293-.03.403-.099.11-.856.405-.944.375Zm-1.095-2.428c-.005-.087.164-.166.38-.02.217.145.293.263.252.474-.04.212-.105.302-.092.546.013.243-.135.39.045.52s.249.082.206.412c-.05.397-.447.595-.441.386.006-.21.12-.373-.05-.59-.167-.218-.205.045-.359-.225-.153-.271-.05-.294.05-.352.102-.058.238-.117.116-.442-.121-.325-.147-.15-.174-.322-.026-.173.071-.3.067-.387Zm1.66 1.166c-.017-.016.063-.143-.298-.385-.36-.242-.257-.248-.087-.327.17-.078.18-.201.39-.177.21.023.352-.054.397.135.045.19.084.728-.001.768-.084.039-.382.003-.4-.014ZM53.629 61.128c.027-.082.406-.163.784-.109.38.054.352-.109.352-.407 0-.299.162-.842-.243-1.277-.406-.434.135-.652.135-.652s.162-.244.65.055c.486.299.915.679 1.077 1.032.162.353-.077 2.01.004 2.254.082.244.19.353.46.163.271-.19 1.71-1.25 2.116-1.331.406-.082.234-.76.239-1.14.004-.38-.186-.643-.186-.914 0-.272.313-1.126.691-.718.38.407.946.953.838 1.387-.108.435-.37.38-.153.815.216.434.65.136.595.651-.054.517.092.248-.584 1.009-.578.65-.518.627-.518.844 0 .217-.107.761.136.816.244.054 1.156-.034 1.372.427.217.462.229.602-.042.792-.27.19-1.042.397-2.51.81-1.091.308-1.362.483-1.416.338-.054-.145.214-.497.59-.779.375-.281.773-.35.866-.758.093-.407.18-1.256.08-1.512-.099-.256-.436-.819-.869-.683-.433.136-.676.38-1.001.815-.325.434-2.03 2.525-2.273 2.552-.243.027-.785.082-.812-.489-.027-.57-.108-.733.217-1.33.325-.598.541-.434.541-.733a.702.702 0 0 0-.379-.652c-.243-.136-.811-.435-.839-.733-.027-.299.055-.462.082-.543ZM123.384 70.918v-1.913h.292v.271a.69.69 0 0 1 .61-.315c.115 0 .221.02.317.062.097.042.17.096.218.163a.64.64 0 0 1 .102.24c.011.06.017.165.017.316v1.176h-.325v-1.164a.887.887 0 0 0-.037-.297.317.317 0 0 0-.135-.156.423.423 0 0 0-.226-.059.53.53 0 0 0-.358.132c-.1.088-.15.254-.15.5v1.044h-.325Zm-.818 0h.325v-1.913h-.325v1.913Zm0-2.268h.325v-.374h-.325v.374Zm-1.234 3.011.061-.276a.665.665 0 0 0 .153.025c.067 0 .116-.022.148-.066.033-.043.049-.153.049-.328v-2.011h.324v2.018c0 .236-.03.4-.092.492-.078.12-.208.18-.389.18a.943.943 0 0 1-.254-.034Zm.411-3.008h.324v-.377h-.324v.377Zm-.817 2.265h.325v-1.913h-.325v1.913Zm0-2.268h.325v-.374h-.325v.374Zm-1.809 1.127h1.068c-.014-.16-.055-.282-.122-.362a.497.497 0 0 0-.402-.187.517.517 0 0 0-.376.15.595.595 0 0 0-.168.399Zm1.064.525.335.041a.813.813 0 0 1-.293.457.887.887 0 0 1-.548.161c-.28 0-.502-.086-.665-.258-.165-.172-.246-.414-.246-.725 0-.323.082-.572.248-.75a.842.842 0 0 1 .645-.267c.256 0 .465.087.627.261.163.174.244.42.244.736 0 .019 0 .048-.002.086h-1.427c.012.21.071.372.178.483a.53.53 0 0 0 .4.168c.119 0 .22-.031.305-.094a.618.618 0 0 0 .199-.3Zm-3.395.304h.658c.113 0 .193-.004.238-.012a.577.577 0 0 0 .202-.072.381.381 0 0 0 .133-.147.459.459 0 0 0 .052-.223.443.443 0 0 0-.075-.257.398.398 0 0 0-.211-.153 1.324 1.324 0 0 0-.386-.044h-.611v.909Zm0-1.22h.572c.154 0 .265-.01.333-.03a.368.368 0 0 0 .201-.132.38.38 0 0 0 .068-.23.434.434 0 0 0-.063-.232.325.325 0 0 0-.18-.137 1.53 1.53 0 0 0-.403-.037h-.528v.798Zm-.35 1.532v-2.642h.992c.202 0 .363.027.485.08a.619.619 0 0 1 .287.248.65.65 0 0 1 .104.348.602.602 0 0 1-.092.319.656.656 0 0 1-.278.242.69.69 0 0 1 .369.239.642.642 0 0 1 .129.4.776.776 0 0 1-.079.346.667.667 0 0 1-.194.246.801.801 0 0 1-.289.13c-.115.03-.258.044-.426.044h-1.008Zm-2.912.737-.036-.304a.731.731 0 0 0 .185.028c.073 0 .13-.011.173-.036a.29.29 0 0 0 .107-.1c.021-.032.053-.113.099-.242l.029-.079-.726-1.917h.349l.399 1.107c.051.141.098.29.138.444.038-.15.082-.294.134-.436l.409-1.115h.324l-.728 1.946a3.86 3.86 0 0 1-.182.434.636.636 0 0 1-.198.235.47.47 0 0 1-.267.075.647.647 0 0 1-.209-.04Zm-1.829-1.728c0 .251.049.435.149.55.1.115.225.172.375.172a.48.48 0 0 0 .375-.171c.101-.115.151-.295.151-.54 0-.235-.052-.411-.155-.53a.486.486 0 0 0-.376-.178.467.467 0 0 0-.368.175c-.101.118-.151.292-.151.522Zm-.269 1.15.316.047c.013.097.05.168.109.213.081.06.191.09.33.09.151 0 .266-.03.348-.09a.452.452 0 0 0 .166-.253c.017-.066.024-.204.023-.416a.669.669 0 0 1-.53.25c-.263 0-.467-.094-.611-.285a1.102 1.102 0 0 1-.216-.682c0-.183.033-.352.099-.506a.79.79 0 0 1 .288-.358.778.778 0 0 1 .442-.126c.226 0 .413.091.559.274v-.23h.3v1.654c0 .297-.031.509-.092.633a.665.665 0 0 1-.288.295 1.007 1.007 0 0 1-.486.108c-.228 0-.413-.051-.553-.154-.141-.103-.209-.257-.204-.464Zm-1.781-1.116c0 .246.054.429.161.55a.513.513 0 0 0 .403.184.514.514 0 0 0 .403-.184c.106-.122.16-.31.16-.56 0-.237-.054-.417-.161-.539a.514.514 0 0 0-.402-.182.516.516 0 0 0-.403.182c-.107.12-.161.304-.161.55Zm-.333 0c0-.354.098-.617.296-.787a.89.89 0 0 1 .601-.213c.264 0 .479.086.646.259.167.172.25.41.25.714 0 .247-.037.44-.111.582a.785.785 0 0 1-.322.329.94.94 0 0 1-.463.116.858.858 0 0 1-.649-.257c-.166-.172-.248-.42-.248-.743Zm-.707.957h.325v-2.642h-.325v2.642Zm-1.833-.957c0 .246.054.429.161.55a.513.513 0 0 0 .403.184.512.512 0 0 0 .403-.184c.106-.122.16-.31.16-.56 0-.237-.054-.417-.161-.539a.516.516 0 0 0-.402-.182.516.516 0 0 0-.403.182c-.107.12-.161.304-.161.55Zm-.333 0c0-.354.098-.617.296-.787a.889.889 0 0 1 .601-.213c.264 0 .479.086.646.259.167.172.25.41.25.714 0 .247-.037.44-.11.582a.793.793 0 0 1-.323.329.94.94 0 0 1-.463.116.858.858 0 0 1-.649-.257c-.166-.172-.248-.42-.248-.743Zm-1.932.957v-1.913h.292v.271a.689.689 0 0 1 .609-.315c.115 0 .221.02.318.062a.498.498 0 0 1 .217.163.608.608 0 0 1 .101.24c.012.06.018.165.018.316v1.176h-.324v-1.164a.883.883 0 0 0-.038-.297.31.31 0 0 0-.134-.156.428.428 0 0 0-.226-.059.53.53 0 0 0-.359.132c-.1.088-.15.254-.15.5v1.044h-.324Zm-2.053 0v-2.642h.325v.948a.724.724 0 0 1 .573-.263c.141 0 .264.028.369.084a.49.49 0 0 1 .225.231c.044.099.067.242.067.43v1.212h-.325v-1.213c0-.162-.035-.28-.105-.353a.392.392 0 0 0-.298-.112.527.527 0 0 0-.271.075.415.415 0 0 0-.181.203.91.91 0 0 0-.054.353v1.047h-.325Zm-.596-.7.318.04a.822.822 0 0 1-.267.517.78.78 0 0 1-.529.186c-.262 0-.473-.085-.631-.256-.16-.171-.24-.416-.24-.737 0-.206.035-.387.103-.542a.72.72 0 0 1 .313-.349.928.928 0 0 1 .457-.116c.207 0 .378.052.51.158a.722.722 0 0 1 .254.448l-.315.049a.521.521 0 0 0-.16-.291.413.413 0 0 0-.277-.097.502.502 0 0 0-.398.176c-.102.117-.153.302-.153.555 0 .257.049.444.148.561a.481.481 0 0 0 .386.175c.127 0 .233-.04.318-.117.086-.079.14-.199.163-.36Zm-3.057-.441a.596.596 0 0 1 .168-.4c.102-.1.227-.15.376-.15.164 0 .299.063.402.188.067.08.108.202.123.362H98.8Zm1.065.525a.618.618 0 0 1-.2.299.498.498 0 0 1-.305.094.53.53 0 0 1-.4-.168c-.107-.111-.166-.272-.178-.483h1.427l.002-.087c0-.315-.081-.56-.244-.735a.818.818 0 0 0-.626-.261.842.842 0 0 0-.646.267c-.165.178-.248.427-.248.75 0 .311.082.553.246.725.163.172.385.258.665.258a.89.89 0 0 0 .549-.161.822.822 0 0 0 .293-.457l-.335-.041Zm-2.442.616v-2.33h-.87v-.312h2.093v.312h-.874v2.33h-.349Zm-3.51-.955c0 .245.052.429.155.55a.46.46 0 0 0 .727.008c.1-.116.15-.293.15-.531 0-.262-.051-.454-.152-.576a.464.464 0 0 0-.734-.008c-.097.118-.146.303-.146.557Zm1.026.955v-.242a.594.594 0 0 1-.535.285.75.75 0 0 1-.421-.126.827.827 0 0 1-.298-.352 1.218 1.218 0 0 1-.105-.52c0-.19.032-.364.096-.52a.75.75 0 0 1 .714-.482.636.636 0 0 1 .527.263v-.948h.323v2.642h-.301Zm-3.294 0v-1.913h.291v.271a.689.689 0 0 1 .61-.315.8.8 0 0 1 .317.062c.098.042.17.096.218.163a.629.629 0 0 1 .101.24c.011.06.018.165.018.316v1.176h-.325v-1.164a.885.885 0 0 0-.038-.297.312.312 0 0 0-.134-.156.426.426 0 0 0-.226-.059.528.528 0 0 0-.358.132c-.1.088-.15.254-.15.5v1.044h-.324Zm-.831-.96a2.38 2.38 0 0 1-.53.122c-.134.02-.228.041-.283.065a.276.276 0 0 0-.173.26c0 .086.033.158.098.216.065.058.161.086.287.086a.669.669 0 0 0 .334-.081.508.508 0 0 0 .214-.225.783.783 0 0 0 .053-.324v-.12Zm.026.724c-.12.102-.236.174-.346.217-.112.041-.231.062-.358.062-.21 0-.372-.05-.485-.153a.51.51 0 0 1-.17-.394.53.53 0 0 1 .231-.444.8.8 0 0 1 .235-.106c.063-.017.159-.033.288-.049.262-.031.455-.068.579-.112l.001-.084c0-.132-.03-.226-.092-.28-.082-.073-.206-.11-.37-.11-.152 0-.264.027-.337.08-.073.054-.127.149-.162.285l-.317-.044a.789.789 0 0 1 .143-.328.618.618 0 0 1 .287-.194c.124-.044.269-.067.434-.067.163 0 .296.02.398.058a.531.531 0 0 1 .225.145.513.513 0 0 1 .101.22c.01.056.016.156.016.3v.432c0 .302.007.493.022.572.013.08.04.157.081.23h-.339a.69.69 0 0 1-.065-.236Zm-4.082-.905h1.069c-.014-.16-.056-.282-.123-.362a.498.498 0 0 0-.401-.187.516.516 0 0 0-.376.15.593.593 0 0 0-.169.399Zm1.065.525.335.041a.818.818 0 0 1-.293.457.888.888 0 0 1-.548.161c-.28 0-.502-.086-.666-.258-.164-.172-.246-.414-.246-.725 0-.323.083-.572.248-.75a.842.842 0 0 1 .646-.267c.256 0 .465.087.627.261.162.174.244.42.244.736 0 .019 0 .048-.002.086h-1.427c.011.21.07.372.178.483a.53.53 0 0 0 .4.168c.118 0 .22-.031.304-.094a.62.62 0 0 0 .2-.3Zm-1.906-.085.318.042a.823.823 0 0 1-.267.516.78.78 0 0 1-.53.186.82.82 0 0 1-.63-.256c-.16-.171-.24-.416-.24-.737 0-.206.035-.387.103-.542a.72.72 0 0 1 .313-.349.928.928 0 0 1 .457-.116c.207 0 .378.052.51.158a.724.724 0 0 1 .254.448l-.315.049a.528.528 0 0 0-.16-.291.416.416 0 0 0-.277-.097.502.502 0 0 0-.398.176c-.102.117-.154.302-.154.555 0 .257.05.444.149.561a.481.481 0 0 0 .386.175c.127 0 .233-.04.318-.117.086-.079.14-.199.163-.36Zm-3.302.701v-1.913h.292v.271a.688.688 0 0 1 .608-.315c.116 0 .222.02.319.062a.498.498 0 0 1 .217.163.622.622 0 0 1 .101.24c.012.06.018.165.018.316v1.176h-.325v-1.164a.875.875 0 0 0-.037-.297.31.31 0 0 0-.135-.156.425.425 0 0 0-.226-.059.528.528 0 0 0-.358.132c-.1.088-.15.254-.15.5v1.044h-.324Zm-1.808-1.141h1.068c-.014-.16-.055-.282-.122-.362a.497.497 0 0 0-.402-.187.517.517 0 0 0-.376.15.595.595 0 0 0-.168.399Zm1.065.525.335.041a.819.819 0 0 1-.293.457.888.888 0 0 1-.549.161c-.28 0-.502-.086-.665-.258-.164-.172-.246-.414-.246-.725 0-.323.083-.572.248-.75a.842.842 0 0 1 .645-.267c.257 0 .466.087.628.261.162.174.243.42.243.736 0 .019 0 .048-.002.086H80.79c.011.21.072.372.178.483a.53.53 0 0 0 .4.168c.12 0 .22-.031.305-.094a.619.619 0 0 0 .2-.3Zm-2.129.616h.325v-1.913h-.325v1.913Zm0-2.268h.325v-.374h-.325v.374Zm-.598 1.567.319.042a.824.824 0 0 1-.267.516.781.781 0 0 1-.53.186.82.82 0 0 1-.63-.256c-.16-.171-.24-.416-.24-.737 0-.206.034-.387.102-.542a.719.719 0 0 1 .314-.349.927.927 0 0 1 .456-.116c.208 0 .378.052.51.158a.723.723 0 0 1 .255.448l-.316.049a.528.528 0 0 0-.159-.291.415.415 0 0 0-.277-.097.503.503 0 0 0-.399.176c-.102.117-.153.302-.153.555 0 .257.05.444.148.561a.481.481 0 0 0 .386.175c.127 0 .233-.04.319-.117.085-.079.14-.199.162-.36Zm-3.788-.148.33-.029a.73.73 0 0 0 .108.326.597.597 0 0 0 .266.205c.12.053.256.078.406.078.133 0 .25-.02.353-.059a.494.494 0 0 0 .228-.163.38.38 0 0 0 .075-.226.342.342 0 0 0-.072-.217.533.533 0 0 0-.238-.156 4.708 4.708 0 0 0-.47-.129 2.43 2.43 0 0 1-.51-.165.716.716 0 0 1-.283-.246.605.605 0 0 1-.092-.33c0-.132.037-.257.113-.372a.704.704 0 0 1 .331-.265c.146-.06.308-.09.485-.09.197 0 .369.032.519.095.15.063.264.156.345.278.08.122.124.261.13.417l-.335.025a.541.541 0 0 0-.184-.379c-.104-.085-.257-.128-.46-.128-.212 0-.365.04-.463.117a.349.349 0 0 0-.145.28.3.3 0 0 0 .103.234c.068.062.243.124.527.188.285.065.48.12.585.169a.808.808 0 0 1 .341.27.66.66 0 0 1 .11.375c0 .14-.04.273-.12.398a.802.802 0 0 1-.348.29c-.15.069-.32.103-.509.103-.239 0-.44-.034-.6-.104a.84.84 0 0 1-.381-.315.887.887 0 0 1-.145-.475Zm-1.897.85v-1.662h-.286v-.252h.286V68.8c0-.129.012-.225.035-.287a.413.413 0 0 1 .165-.205.595.595 0 0 1 .33-.078c.092 0 .193.01.303.033l-.048.283a1.053 1.053 0 0 0-.192-.019c-.098 0-.168.021-.208.064-.041.042-.062.12-.062.236v.177h.373v.252h-.373v1.661h-.323Zm-1.917-.958c0 .246.053.429.16.55a.513.513 0 0 0 .404.184.513.513 0 0 0 .402-.184c.107-.122.16-.31.16-.56 0-.237-.053-.417-.161-.539a.513.513 0 0 0-.401-.182.516.516 0 0 0-.404.182c-.107.12-.16.304-.16.55Zm-.334 0c0-.354.099-.617.296-.787a.891.891 0 0 1 .602-.213c.263 0 .478.086.645.259.167.172.25.41.25.714 0 .247-.036.44-.11.582a.786.786 0 0 1-.323.329.941.941 0 0 1-.462.116.86.86 0 0 1-.65-.257c-.165-.172-.248-.42-.248-.743Zm-2.764 1.694-.037-.304a.74.74 0 0 0 .186.028c.072 0 .13-.011.173-.036a.288.288 0 0 0 .107-.1c.02-.032.053-.113.099-.242l.028-.079-.725-1.917h.349l.399 1.107c.05.141.097.29.138.444.038-.15.082-.294.134-.436l.409-1.115h.324l-.728 1.946c-.078.21-.139.355-.182.434a.639.639 0 0 1-.198.235.47.47 0 0 1-.267.075.648.648 0 0 1-.21-.04Zm-.303-1.027.047.287c-.091.019-.173.029-.245.029a.557.557 0 0 1-.274-.056.313.313 0 0 1-.137-.147c-.026-.06-.04-.189-.04-.383v-1.101h-.238v-.252h.238v-.475l.323-.194v.669h.326v.252h-.326v1.119c0 .093.006.152.017.178a.14.14 0 0 0 .056.064.219.219 0 0 0 .11.023c.037 0 .084-.005.143-.013Zm-1.527.29h.325v-1.913h-.325v1.913Zm0-2.268h.325v-.374h-.325v.374Zm-1.976 1.697.32-.05a.45.45 0 0 0 .15.295.524.524 0 0 0 .346.103c.149 0 .26-.03.331-.091a.274.274 0 0 0 .109-.213.197.197 0 0 0-.096-.174c-.044-.029-.155-.065-.332-.11a2.971 2.971 0 0 1-.494-.156.48.48 0 0 1-.222-.675.52.52 0 0 1 .16-.182.673.673 0 0 1 .206-.094.985.985 0 0 1 .28-.04c.15 0 .282.023.396.066a.538.538 0 0 1 .251.175.688.688 0 0 1 .112.297l-.317.044a.348.348 0 0 0-.126-.23.456.456 0 0 0-.293-.084c-.148 0-.255.025-.318.074-.064.049-.096.107-.096.172 0 .043.013.08.04.114a.286.286 0 0 0 .124.087c.033.012.128.04.287.082.23.062.39.112.48.151.09.039.162.096.214.17a.473.473 0 0 1 .077.278c0 .108-.032.21-.095.306a.615.615 0 0 1-.273.221.995.995 0 0 1-.403.078c-.25 0-.439-.051-.57-.154a.719.719 0 0 1-.248-.46Zm-1.103.571v-1.913h.291v.29c.075-.136.143-.226.207-.269a.36.36 0 0 1 .208-.065c.11 0 .22.035.333.105l-.112.3a.458.458 0 0 0-.237-.07.31.31 0 0 0-.192.064.348.348 0 0 0-.12.178 1.25 1.25 0 0 0-.054.378v1.002h-.324Zm-1.805-1.141h1.069c-.014-.16-.056-.282-.123-.362a.497.497 0 0 0-.401-.187.516.516 0 0 0-.376.15.593.593 0 0 0-.169.399Zm1.065.525.335.041a.82.82 0 0 1-.293.457.888.888 0 0 1-.548.161c-.28 0-.502-.086-.666-.258-.164-.172-.246-.414-.246-.725 0-.323.083-.572.249-.75a.842.842 0 0 1 .645-.267c.256 0 .465.087.627.261.162.174.243.42.243.736l-.001.086h-1.428c.012.21.072.372.179.483a.53.53 0 0 0 .4.168c.118 0 .22-.031.304-.094a.62.62 0 0 0 .2-.3Zm-2.624.616-.728-1.913h.343l.41 1.146c.045.123.086.252.123.385.03-.1.069-.222.12-.364l.426-1.167h.334l-.725 1.913h-.303Zm-1.35 0h.325v-1.913h-.325v1.913Zm0-2.268h.325v-.374h-.325v.374Zm-2.054 2.268v-1.913h.292v.271a.688.688 0 0 1 .609-.315.8.8 0 0 1 .318.062c.097.042.169.096.217.163a.629.629 0 0 1 .101.24c.012.06.018.165.018.316v1.176H58v-1.164a.885.885 0 0 0-.037-.297.312.312 0 0 0-.134-.156.427.427 0 0 0-.227-.059.528.528 0 0 0-.358.132c-.1.088-.15.254-.15.5v1.044h-.324Zm-.89-2.642h.35v1.527c0 .265-.031.476-.091.632a.772.772 0 0 1-.326.381c-.156.099-.362.147-.617.147-.247 0-.45-.042-.607-.128a.726.726 0 0 1-.337-.37c-.068-.162-.1-.382-.1-.662v-1.527h.349v1.525c0 .23.021.399.063.507a.488.488 0 0 0 .22.252.764.764 0 0 0 .382.088c.257 0 .44-.058.55-.175.108-.116.163-.34.163-.672v-1.525ZM125.646 69.927c0 .251.05.435.15.55.1.115.225.172.375.172a.482.482 0 0 0 .375-.171c.1-.115.151-.295.151-.54 0-.235-.052-.411-.156-.53a.482.482 0 0 0-.375-.178.468.468 0 0 0-.368.176c-.101.117-.152.29-.152.521Zm-.268 1.15.316.047c.012.097.049.168.109.213.08.06.191.09.33.09a.58.58 0 0 0 .348-.09.445.445 0 0 0 .165-.253c.017-.066.025-.204.024-.416a.668.668 0 0 1-.53.25c-.263 0-.467-.094-.611-.285a1.096 1.096 0 0 1-.216-.682c0-.183.033-.352.099-.506a.79.79 0 0 1 .288-.358.776.776 0 0 1 .442-.126c.225 0 .412.092.558.274v-.23h.3v1.654c0 .297-.031.509-.091.633a.66.66 0 0 1-.288.295 1.006 1.006 0 0 1-.486.108c-.228 0-.414-.051-.554-.154-.14-.103-.208-.257-.203-.464ZM45.682 56.48l-.025-.027a.417.417 0 0 1 .177-.194l.165.055.069.072.006.032c-.123.101-.268.055-.392.062Zm.07.385a.195.195 0 0 0-.007.006c-.196-.032-.41-.23-.595-.281.13-.099.248-.022.376.014l.225.26Zm.07-.657-.111-.169c-.058.007-.107.005-.167.035a5.869 5.869 0 0 1-.044-.007c.027-.057.106-.096.143-.15l-.03-.084c-.213.021-.488.208-.367.452l.05.04c.065-.04.102-.129.17-.163.045-.023.103-.02.167-.06l.02.006-.113.158c-.016.063.02.13.002.198-.02.002-.584-.193-.628-.212l-.192-.004-.006-.006c.056-.04.093-.052.136-.106l-.005-.02c-.168-.002-.326.1-.496.137a.3.3 0 0 0-.076.286l.05.04.24-.18c.151-.082.415-.035.561.088a.128.128 0 0 0-.006.006c-.118.029-.203-.002-.328.09l-.014.075c.005.047-.005.059.042.11.177-.055.32-.09.491.03l-.006.006-.064-.002-.063-.052c-.045.049-.038.047-.09.037a1.145 1.145 0 0 0-.02.018.169.169 0 0 0 .056.097 5.289 5.289 0 0 0-.033.057 2.429 2.429 0 0 1-.55-.325l-.044.006-.033.03c.063.47.261.206.52.453l-.253.218c-.12-.011-.32-.214-.437-.181l-.026.012c.04.118.148.248.203.368.198.07.415-.149.614-.338l.157.176c.097-.05.103-.126.112-.196-.036-.062-.083-.105-.143-.163l.046-.056c.078.002.166.015.243-.034.086.069.162.168.225.248.058-.012.149-.052.188-.117.04-.11-.09-.283-.203-.394v-.013l.014-.013c.157 0 .243.063.41-.042.075-.36-.128-.27-.312-.39ZM43.328 54.324c.178.175.048.265.042.468-.004.121.146.118.035.33-.164.092-.396-.026-.535.107.236.143.394.485.31.703-.06.153-.316.292-.377.152-.148-.291.336-.46.023-.829-.031.005-.031-.001-.062.015-.158.088-.22.298-.384.335-.125-.08-.13-.153-.165-.25.063-.096.326-.308.33-.356.006-.083-.174-.211-.186-.303l.012-.02c.14-.002.317.088.462.075.178-.015.343-.307.495-.427ZM39.933 54.507c.075-.086.269-.214.29-.302l.168.042c-.04.113-.162.215-.132.34.01.035.021.039.05.06.054-.03.114-.067.192-.055-.035.088-.07.176-.103.264-.174-.123-.19-.286-.465-.35Zm-.396.424-.002.01-.094-.034.01-.081.082-.064.033.017-.029.152Zm.927-.002c.073-.09.123-.213.178-.34a.312.312 0 0 0-.192-.169c.064-.16.234-.225.345-.334.007-.078-.04-.114-.04-.178l.066-.227-.017-.191c-.032-.033-.053-.057-.113-.075l-.04.009c-.04.1-.001.176-.001.27 0 .294-.25.33-.477.302-.025.087-.03.139-.011.194l-.203.061c.024-.072.056-.084.13-.07.051-.092-.009-.135-.002-.216.017-.214.34-.404-.06-.548a.204.204 0 0 1-.011.007c-.026.07.006.11 0 .187l-.13.37c-.199.051-.498.038-.686.128l-.015.024c.017.095.273.208.41.196l.166-.07.01.001c-.1.38-.38.325-.526.608l.044.123.18-.011c.1.047.108.14.236.18.058-.063.048-.201.057-.304.011-.128.075-.216.118-.288.244.083.282.222.43.34-.088.256-.449-.007-.561.188.346.161.283.051.563-.009l.066-.04c.168.216.154.426.605.422l.029-.04c-.095-.223-.427-.293-.548-.5ZM37.163 54.176c-.082.035-.105.093-.171.139.004-.141.083-.156.093-.232.009-.07-.063-.135-.042-.216.017-.03.045-.029.062-.058.032-.063-.087-.243-.149-.264l-.051-.003c-.22.292-.501.334-.659.72.226-.108.308-.346.62-.392-.016.233-.334.431-.52.526-.098.05-.136.019-.183.106.01.065.03.094.08.11.143.043.437-.073.466-.163l.031-.03h.009l-.12.455c.033.044.069.061.113.09l.034-.004.104-.208.016-.01.03.192.072.035h.068l-.075-.365.172-.428Zm.744-.041c-.016-.117-.1-.15-.227-.128-.034-.26.069-.834-.31-.713-.026.099.236.623.159.807l-.267.192c.03-.142.15-.187.195-.303.033-.095-.151-.07-.193-.131a.27.27 0 0 1 .177-.165l.003-.043a1.785 1.785 0 0 1-.01-.024c-.102-.048-.203-.041-.314.01.013.054.02.065.075.068l-.007.239.105.099c-.055.103-.3.347-.18.513.02.034.035.04.074.051.126-.123.179-.26.36-.346l.008-.001c.037.336-.002.879.168 1.111.017.015.011.008.052.003a14.35 14.35 0 0 0-.084-1.198c.074-.006.155-.008.2-.04l.016-.001ZM34.57 55.2c-.012 0-.024.002-.037.004l-.028.001-.008-.044.154-.197.05-.02.003.009-.134.246Zm.348.17a12.923 12.923 0 0 1-.025-.038l.069-.047-.032-.103c-.03-.008-.059-.004-.096 0l-.01-.026c.045-.093.173-.186.206-.284l-.009-.045c-.217-.204-.436.027-.612.185l-.008.003c.015-.2.35-.506.621-.526.025-.04.026-.077.027-.127-.249-.178-.21.019-.433.027-.105-.03-.25-.244-.371-.278l-.053.012c-.079.11.137.32.098.492-.216.14-.274.285-.42.427-.06.058-.164.07-.232.12a7.139 7.139 0 0 1-.013.064c.25.523.543-.39.816-.498l.012.006c-.048.166-.178.303-.137.508.013.069.183.194.247.23-.075.15-.186.263-.11.479l.221.095c.03-.018.037-.024.049-.048.038-.06-.037-.24-.026-.308l.022-.019c.04.034.048.11.086.169.045.069.115.104.173.144l.025-.01c.023-.147-.13-.35-.145-.512l.08-.042.008-.003c.16.115.067.273.303.324l.113-.103c-.075-.2-.26-.327-.444-.268ZM32.098 55.634c.297-.196.323.091.54.196a.254.254 0 0 1 .204-.014l.019.021c-.006.214-.089.374.165.59.157-.16.255-.202.414-.162l.021.096-.273.38c-.1.161-.12.336-.207.486l-.044-.05c-.044-.177.047-.32.1-.492-.118-.053-.22-.161-.34-.298-.079.042-.134.027-.22.093-.133.341.07.716.006 1.06-.076.062-.123.048-.192.054-.165-.19-.118-.358-.255-.548a.423.423 0 0 1-.3.048c-.052-.056-.054-.077-.06-.125l.152-.159c-.113-.227-.349-.229-.428-.371l.008-.02c.142-.07.35-.148.482-.057l.155.22.15.083.06.226c.073-.126.048-.281.08-.413.05-.125.1-.25.152-.375-.103-.157-.352-.307-.389-.469Z" clip-rule="evenodd"/><path fill="#025A92" fill-rule="evenodd" d="M27 64c0-6.418 5.21-11.628 11.628-11.628S50.256 57.582 50.256 64s-5.21 11.628-11.628 11.628S27 70.418 27 64Zm11.628-11.067c-6.108 0-11.067 4.959-11.067 11.067 0 6.108 4.959 11.067 11.067 11.067 6.108 0 11.068-4.959 11.068-11.067 0-6.108-4.96-11.067-11.068-11.067Z" clip-rule="evenodd"/><path fill="#025A92" fill-rule="evenodd" d="M29.964 64c0-4.782 3.882-8.664 8.664-8.664s8.664 3.882 8.664 8.664-3.882 8.664-8.664 8.664-8.664-3.882-8.664-8.664Zm8.664-8.397c-4.634 0-8.397 3.763-8.397 8.397s3.763 8.397 8.397 8.397c4.635 0 8.397-3.763 8.397-8.397s-3.762-8.397-8.397-8.397ZM36.284 73.336l-.061.23-.231-.06.061-.232.231.062ZM37.04 74.232l-.236-.042.157-.887a.825.825 0 0 1-.336.125l.038-.214a.69.69 0 0 0 .22-.079.442.442 0 0 0 .183-.17l.191.033-.218 1.234ZM38.124 73.53a.273.273 0 0 0-.04-.182c-.033-.045-.073-.07-.12-.072a.138.138 0 0 0-.113.044c-.031.033-.05.09-.055.168-.005.08.006.14.036.18.029.04.067.062.114.065a.148.148 0 0 0 .12-.046c.034-.034.053-.087.058-.157Zm-.575.485.232-.01a.168.168 0 0 0 .037.107.132.132 0 0 0 .092.04.154.154 0 0 0 .13-.059c.038-.043.066-.135.086-.277a.285.285 0 0 1-.232.09.337.337 0 0 1-.246-.132.415.415 0 0 1-.086-.302.42.42 0 0 1 .133-.297.383.383 0 0 1 .294-.096.386.386 0 0 1 .3.167c.075.103.105.267.09.49-.016.228-.07.389-.16.484a.41.41 0 0 1-.34.128.35.35 0 0 1-.23-.093.376.376 0 0 1-.1-.24ZM38.613 74.041l.237-.033c.009.053.03.095.065.125a.164.164 0 0 0 .242-.023c.033-.042.048-.103.045-.185-.003-.077-.023-.133-.058-.17a.171.171 0 0 0-.137-.052.244.244 0 0 0-.18.098l-.195-.02.097-.654.631-.025.01.224-.451.017-.03.213a.36.36 0 0 1 .436.059.417.417 0 0 1 .122.296.45.45 0 0 1-.078.278.396.396 0 0 1-.331.178.419.419 0 0 1-.285-.082.38.38 0 0 1-.14-.244ZM40.486 73.968l.032.22-.829.12a.575.575 0 0 1 .046-.247 1.59 1.59 0 0 1 .223-.335 1.72 1.72 0 0 0 .166-.23.263.263 0 0 0 .028-.153c-.008-.052-.028-.09-.06-.115a.16.16 0 0 0-.124-.025.159.159 0 0 0-.111.062c-.025.034-.035.085-.029.155l-.24.011c-.004-.132.026-.232.092-.3a.447.447 0 0 1 .265-.125.406.406 0 0 1 .302.056c.079.056.126.132.14.23a.431.431 0 0 1-.007.163.647.647 0 0 1-.071.171c-.024.041-.068.101-.132.18-.065.08-.105.132-.122.158a.416.416 0 0 0-.039.072l.47-.068ZM40.944 73.345l.055.232-.233.055-.055-.233.233-.054Z" clip-rule="evenodd"/><path fill="#025A92" fill-rule="evenodd" d="M34.557 63.583c-.051 0-.077-.028-.077-.085.01-.066.04-.1.092-.1.265-.009.475.024.628.1.132.057.183.17.153.34v.072c.163-.028.28-.076.352-.142.112-.123.086-.251-.077-.384-.132-.113-.311-.17-.535-.17-.103-.019-.159-.071-.169-.156 0-.048.036-.071.107-.071.276.019.5.09.674.213.204.17.29.336.26.497-.082.18-.265.303-.551.37a.181.181 0 0 1-.077.013v.185c.092.01.205.066.337.17.163.114.301.266.414.455.01.038-.006.066-.046.085-.031.02-.062.015-.092-.014a2.098 2.098 0 0 0-.291-.312.601.601 0 0 0-.322-.157v.313a.552.552 0 0 1 .2.142c.122.123.224.275.306.454.102.17.147.318.137.44 0 .039-.015.062-.045.072-.021.01-.046-.005-.077-.043a5.846 5.846 0 0 0-.29-.582c-.093-.142-.17-.223-.23-.242v.355c0 .35-.01.616-.031.796-.01.038-.03.061-.061.07-.031.01-.056-.004-.077-.042-.01-.057-.015-.322-.015-.795v-.398a.416.416 0 0 0-.215.128 1.51 1.51 0 0 0-.214.398 1.26 1.26 0 0 1-.168.298.107.107 0 0 1-.092.014c-.02-.01-.026-.028-.015-.057 0-.009.005-.028.015-.056.03-.123.056-.214.076-.27.051-.114.138-.265.26-.455.113-.142.225-.222.337-.242v-.298a.695.695 0 0 0-.29.128c-.031.02-.097.085-.2.199a2.235 2.235 0 0 1-.152.17c-.031.038-.057.053-.077.043-.02-.019-.026-.052-.015-.1.102-.217.234-.392.398-.525a.503.503 0 0 1 .352-.142v-.156c-.368.038-.638.023-.812-.043-.05-.028-.071-.07-.06-.128.02-.037.06-.052.122-.042.153.038.398.047.734.028h.016c.01-.16-.026-.25-.107-.27a1.26 1.26 0 0 0-.49-.07ZM37.784 64.038c0-.029.005-.066.015-.114h-.321v.199h.183c.082-.028.123-.057.123-.085Zm-.077-.44a.683.683 0 0 1-.107-.015h-.122v.199h.321v-.043c0-.085-.03-.132-.092-.142Zm.016 1.619c.06-.02.096-.062.107-.128h-.169a4.14 4.14 0 0 0-.29-.014.731.731 0 0 0-.123.014 1.98 1.98 0 0 0-.23.028c.02.057.062.085.123.085.173.029.367.034.582.015Zm-.582-.682c-.092.019-.143.07-.153.156.122-.019.245-.028.367-.028.133-.01.296-.005.49.014-.02-.066-.056-.109-.107-.128a1.803 1.803 0 0 0-.597-.014Zm-.123-.497c.031.057.097.085.2.085h.076c.01-.066.015-.128.015-.185h-.321c0 .038.01.071.03.1Zm.827.909c0-.019.005-.043.015-.071v-.043a1.725 1.725 0 0 0-.444-.028c-.143.01-.29.024-.444.042l.016.114c.245-.028.53-.033.857-.014Zm-.888-1.222v.057h.352c0-.076-.005-.142-.015-.199h-.107a.708.708 0 0 1-.123.014c-.071.029-.107.071-.107.128Zm.092.682c.265-.047.526-.047.78 0 .093.02.144.076.154.17.03.19.02.389-.03.597-.021.123-.118.194-.292.213.02.227.082.464.184.71.03.048.025.095-.015.143-.02.018-.036.028-.046.028-.02 0-.036-.014-.046-.043a3.21 3.21 0 0 1-.26-.838h-.108c-.02.341-.107.611-.26.81-.04.038-.071.052-.092.043-.02-.02-.025-.053-.015-.1 0-.02.015-.062.046-.128.061-.123.097-.213.107-.27.02-.066.04-.175.062-.326v-.029a.343.343 0 0 1-.292-.17c-.091-.133-.127-.317-.107-.554.02-.152.097-.237.23-.256Zm-.077-.952c.204-.037.47-.042.797-.014.122.02.183.066.183.142 0 .02.005.038.016.057.01.038.015.085.015.142.04.01.082.014.122.014 0-.019.005-.052.016-.1 0-.046.005-.08.015-.099.02-.113-.04-.189-.184-.227a2.069 2.069 0 0 0-.612-.085c-.266 0-.48.038-.643.114-.03.028-.041.07-.03.127 0 .038.004.086.015.142v.128h.107c0-.066.005-.128.015-.184.01-.086.066-.138.168-.157Zm.444-.511c.051.038.077.09.077.156.01.02.03.029.061.029.194.019.388.056.582.113.102.038.158.076.168.114.031.047.036.104.016.17v.029c-.072.265-.092.634-.062 1.108.02.293.087.734.2 1.32.01.067-.006.11-.046.129-.041.009-.072-.015-.092-.071a6.905 6.905 0 0 1-.215-2.088.26.26 0 0 1-.06-.015h-.062a.678.678 0 0 1-.077.242c-.04.076-.117.109-.23.1h-.52c-.102.018-.178-.015-.23-.1a.593.593 0 0 1-.107-.228.27.27 0 0 0-.076.015h-.046c.01.34 0 .7-.03 1.08a8.38 8.38 0 0 0-.031.468c0-.057-.006-.005-.016.156-.02.161-.045.294-.076.398-.03.076-.067.114-.107.114-.03-.01-.041-.057-.03-.142.07-.502.116-.919.137-1.25.03-.37.025-.696-.015-.98a1.461 1.461 0 0 0-.077-.285c-.061-.132-.03-.217.092-.255a1.8 1.8 0 0 1 .612-.128c.092-.019.138-.071.138-.156-.01-.038 0-.062.03-.072.031-.009.062 0 .093.029ZM39.465 64.109h.306c.102-.01.168-.071.199-.185v-.028c-.327 0-.582.005-.765.014 0 .019.005.038.015.057.04.094.122.142.245.142Zm-.306-.54c0 .02.005.047.015.085v.071h.796v-.17a7.663 7.663 0 0 0-.811.014Zm0-.199v.029c.183-.01.454-.015.811-.015V63.3c-.01-.076-.061-.128-.153-.156a1.076 1.076 0 0 0-.46-.014c-.142.047-.209.128-.198.241Zm.122-.398c.235-.047.46-.037.674.029.081 0 .138.09.168.27.04.246.026.488-.046.724-.04.17-.138.26-.29.27.01.123.015.26.015.412H40c.102.019.178-.052.23-.213.03-.085.045-.293.045-.625 0-.095.005-.152.015-.17a.096.096 0 0 1 .047-.043c.02 0 .035.014.045.042.02.038.03.114.03.228 0 .18-.01.36-.03.54-.05.265-.178.397-.382.397h-.2v.142c.246 0 .399.128.46.384.061.199.112.44.153.724 0 .104-.015.152-.046.142-.04.02-.071-.014-.092-.1a6.74 6.74 0 0 0-.168-.724c-.03-.16-.133-.236-.306-.227.02.313.035.644.046.994 0 .086-.021.133-.062.142-.04.01-.066-.028-.076-.113-.03-.123-.051-.492-.062-1.108 0-.379-.005-.649-.015-.81h-.107c-.051.73-.077 1.317-.077 1.762 0 .142-.03.222-.091.241-.051 0-.077-.047-.077-.142v-.114c.02-.33.036-.615.046-.852-.235-.019-.362.057-.383.227-.082.209-.143.44-.183.696-.021.067-.046.1-.077.1-.03.019-.046-.014-.046-.1 0-.227.051-.468.153-.724.092-.284.276-.421.551-.412 0-.038.005-.085.016-.142a.202.202 0 0 1-.107 0h-.092c-.194.02-.332-.09-.414-.327-.071-.18-.107-.412-.107-.696 0-.123.026-.184.077-.184a.291.291 0 0 1 .107.241c-.02.142-.016.294.015.455.04.227.163.345.368.355h.153c0-.047.005-.114.015-.199 0-.104.005-.17.015-.199-.173-.019-.275-.09-.306-.213a1.527 1.527 0 0 1-.061-.796c.02-.18.107-.274.26-.284ZM42.876 64.62c.01.048 0 .08-.031.1-.041.009-.072-.005-.092-.043a1.492 1.492 0 0 0-.276-.384c-.03-.028-.05-.042-.06-.042l-.016.042c-.01.114.005.408.046.881.02.123.071.327.153.61a.37.37 0 0 0 .046.114 4 4 0 0 0 .046.157c.01.028.015.047.015.057.01.037-.005.061-.046.07-.04 0-.071-.023-.092-.07-.122-.237-.214-.554-.275-.952a4.819 4.819 0 0 1-.046-.81v-.34c0-.03.01-.048.03-.058.02-.009.041-.004.062.015.081.076.143.127.183.156.143.123.26.289.352.497Zm-.965-1.59c.03-.048.061-.058.092-.03.03.03.036.067.015.114-.03.038-.036.071-.015.1.03.028.066.033.107.014a.694.694 0 0 1 .413.014c.102.029.164.11.184.242.03.132.01.241-.061.326-.03.057-.113.071-.245.043h-.03a.655.655 0 0 0-.246.014c-.04.01-.056.048-.046.114.02.123.026.303.016.54-.01.104-.02.246-.03.426-.031.37-.057.625-.077.767-.02.133-.056.284-.108.454-.02.038-.046.057-.076.057s-.046-.019-.046-.057c0-.01.005-.052.015-.127.01-.067.016-.11.016-.128.091-.483.142-.928.153-1.335.01-.18.005-.337-.016-.47-.01-.085-.035-.146-.076-.184-.041-.047-.02-.1.061-.156.102-.086.276-.104.52-.057.102.02.154-.029.154-.142 0-.104-.046-.16-.138-.17-.153-.029-.25-.029-.291 0-.04.028-.097.033-.168.014a.347.347 0 0 1-.092-.086 3.314 3.314 0 0 1-.046-.042c-.041-.076-.02-.161.061-.256Zm-.49.567h-.383c.01.142.062.265.154.37.03.038.056.056.076.056.02 0 .04-.018.061-.056a.669.669 0 0 0 .092-.37Zm-.581-.554h.734c.072.01.108.038.108.086-.01.056-.052.085-.123.085-.133 0-.327.005-.582.014h-.076c-.092.01-.138-.005-.138-.043-.02-.009-.026-.033-.015-.07v-.029c0-.038.03-.052.092-.043Zm-.154.81c-.01-.028 0-.043.03-.043.021 0 .037.015.047.043.092.275.214.445.367.511.01.01.031.015.062.015v-.242a.482.482 0 0 1-.184-.185.598.598 0 0 1-.092-.355h-.107c-.072.02-.123.01-.153-.028a.146.146 0 0 1-.015-.071v-.014c.02-.057.05-.076.091-.057h.934c.061 0 .092.028.092.085-.01.048-.051.071-.123.071a.125.125 0 0 0-.045.014h-.016c-.02.18-.046.303-.076.37-.061.094-.118.151-.169.17.01.076.016.156.016.242.02 0 .046-.01.076-.029.123-.057.194-.213.215-.469.01-.037.035-.056.076-.056.03 0 .046.019.046.056a.637.637 0 0 1-.276.597.197.197 0 0 1-.137.057v.085h.337c.07.01.107.038.107.085-.01.048-.057.076-.138.085-.133 0-.235.005-.306.015v.142c.081.01.158.066.23.17.091.114.152.275.183.483.02.114.02.209 0 .284-.01.029-.03.043-.061.043-.03 0-.051-.014-.062-.043a3.13 3.13 0 0 0-.03-.255c-.03-.209-.092-.36-.184-.455-.01-.028-.036-.047-.076-.057.01.133.015.242.015.327 0 .057-.005.147-.015.27 0 .18-.006.307-.016.383-.01.076-.03.114-.06.114-.032 0-.052-.038-.062-.114 0-.293-.005-.511-.015-.653v-.34a.245.245 0 0 0-.092.056c-.051.038-.097.114-.138.227l-.015.028c-.021.095-.041.242-.062.44-.01.048-.035.072-.076.072-.041-.01-.056-.038-.046-.085.01-.17.03-.322.061-.455a.663.663 0 0 1 .153-.312.32.32 0 0 1 .215-.128v-.142c-.225 0-.337.005-.337.014-.072.019-.123.005-.153-.043-.02-.019-.02-.056 0-.113 0-.029.03-.043.092-.043h.398v-.085a.173.173 0 0 1-.092-.028c-.184-.076-.322-.223-.414-.44-.01-.02-.01-.072 0-.157v-.057ZM30.91 58.861l-.108.18-.48-.29a1.172 1.172 0 0 0-.153-.082.167.167 0 0 0-.12.002.224.224 0 0 0-.104.098c-.03.051-.043.096-.038.134.005.038.021.07.048.093.027.023.076.056.146.098l.49.295-.107.18-.466-.28a1.402 1.402 0 0 1-.217-.151.29.29 0 0 1-.079-.12.315.315 0 0 1-.01-.148.532.532 0 0 1 .077-.187c.05-.085.099-.143.145-.175a.321.321 0 0 1 .139-.058.286.286 0 0 1 .128.009c.058.019.136.058.236.118l.473.284ZM29.469 59.276l.938.436-.085.184-.806.093.627.292-.082.176-.938-.436.088-.19.788-.095-.612-.284.082-.176ZM29.935 60.805l-.968-.367.074-.196.968.367-.074.196ZM28.813 60.89l1.098-.052-.067.216-.809.028.66.465-.065.212-.882-.655.064-.214ZM28.608 61.605l1.014.205-.151.752-.172-.034.11-.548-.224-.045-.103.51-.171-.035.102-.51-.276-.055-.114.566-.17-.034.155-.772ZM28.993 62.863l-.015.154a.808.808 0 0 0-.006.188.112.112 0 0 0 .038.062c.02.016.045.026.076.029a.125.125 0 0 0 .086-.02.129.129 0 0 0 .048-.074 1.7 1.7 0 0 0 .019-.151l.015-.163-.26-.025Zm-.574-.266 1.03.1-.043.438a.76.76 0 0 1-.05.237.238.238 0 0 1-.111.11.298.298 0 0 1-.167.03.276.276 0 0 1-.185-.087.328.328 0 0 1-.075-.213.486.486 0 0 1-.097.103c-.035.026-.094.06-.18.102l-.212.106.024-.249.239-.128a1.47 1.47 0 0 0 .162-.095.16.16 0 0 0 .049-.059.348.348 0 0 0 .021-.103l.005-.042-.43-.042.02-.208ZM28.665 63.63l.02.203a.248.248 0 0 0-.15.075.225.225 0 0 0-.047.152c.001.067.015.118.044.152.029.034.062.05.1.05a.094.094 0 0 0 .063-.022.172.172 0 0 0 .044-.075c.008-.024.023-.08.044-.168a.569.569 0 0 1 .101-.236.27.27 0 0 1 .356-.052c.046.03.082.072.106.128a.52.52 0 0 1 .037.204c0 .13-.027.228-.084.294a.301.301 0 0 1-.227.104l-.01-.208c.052-.01.09-.03.114-.059.023-.03.034-.073.034-.132a.238.238 0 0 0-.038-.143.076.076 0 0 0-.065-.033.08.08 0 0 0-.062.032.552.552 0 0 0-.069.192 1.006 1.006 0 0 1-.073.226.29.29 0 0 1-.104.115.308.308 0 0 1-.165.042.304.304 0 0 1-.283-.187.589.589 0 0 1-.039-.225c0-.131.029-.232.09-.302a.393.393 0 0 1 .263-.127ZM29.398 64.791l-1.032.077-.015-.209 1.032-.076.015.208ZM28.413 65.311l.852-.118-.042-.304.173-.024.114.814-.174.024-.042-.303-.852.118-.029-.207Z" clip-rule="evenodd"/><path fill="#025A92" fill-rule="evenodd" d="m28.581 66.26.424-.101.496-.507.056.238-.342.332.453.138.056.234-.673-.232-.422.1-.048-.203ZM29.561 67.672c-.107.047-.177.108-.21.181a.265.265 0 0 0 0 .225.262.262 0 0 0 .164.152c.076.025.17.013.28-.035.108-.048.179-.107.211-.179a.264.264 0 0 0-.003-.225.265.265 0 0 0-.165-.154c-.075-.025-.168-.013-.277.035Zm-.093-.195a.658.658 0 0 1 .262-.063c.058 0 .114.01.169.03.055.021.101.05.14.086a.57.57 0 0 1 .127.188c.06.14.067.27.017.392a.544.544 0 0 1-.306.284.542.542 0 0 1-.414.033.482.482 0 0 1-.276-.276.487.487 0 0 1-.02-.393.535.535 0 0 1 .301-.28ZM29.507 68.787l.9-.51.35.616-.152.087-.247-.436-.213.121.213.376-.153.086-.213-.376-.382.217-.103-.181ZM30.645 69.97l.144.145a.248.248 0 0 0-.07.153.225.225 0 0 0 .06.148c.042.052.085.082.128.09.044.01.08.001.11-.023a.094.094 0 0 0 .035-.056.172.172 0 0 0-.013-.087 2.677 2.677 0 0 0-.07-.158.564.564 0 0 1-.07-.247.269.269 0 0 1 .244-.264.28.28 0 0 1 .163.033.519.519 0 0 1 .156.135c.082.101.122.195.12.282a.301.301 0 0 1-.112.224l-.139-.156c.036-.04.053-.08.053-.117-.001-.038-.02-.08-.057-.125a.237.237 0 0 0-.12-.087.075.075 0 0 0-.07.015.08.08 0 0 0-.03.064.55.55 0 0 0 .069.193c.046.093.074.167.085.221a.29.29 0 0 1-.01.156.306.306 0 0 1-.101.136.304.304 0 0 1-.338.032.584.584 0 0 1-.172-.151.449.449 0 0 1-.12-.291.395.395 0 0 1 .125-.265ZM31.803 71.2l.098.188a.456.456 0 0 1-.287.069.442.442 0 0 1-.253-.136.445.445 0 0 1-.14-.34.54.54 0 0 1 .178-.366c.121-.122.247-.185.378-.19a.457.457 0 0 1 .35.147.43.43 0 0 1 .138.297.408.408 0 0 1-.06.21l-.18-.111a.22.22 0 0 0 .035-.144.22.22 0 0 0-.068-.133.235.235 0 0 0-.19-.074c-.073.006-.153.052-.24.14-.092.092-.141.174-.147.247a.23.23 0 0 0 .07.189c.04.039.086.06.14.063a.307.307 0 0 0 .178-.057ZM32.663 71.088l-.676.783-.158-.136.676-.784.158.137ZM32.151 72.015l.62-.828.615.46-.105.14-.447-.335-.138.184.416.312-.105.14-.415-.313-.17.226.463.347-.104.14-.63-.473ZM32.969 72.614l.532-.888.175.105.007.81.356-.592.166.1-.532.887-.18-.108-.01-.793-.348.579-.166-.1ZM34.674 73.097l.157.144a.454.454 0 0 1-.247.163.441.441 0 0 1-.284-.041.445.445 0 0 1-.248-.27.54.54 0 0 1 .041-.406c.073-.156.17-.258.29-.308a.458.458 0 0 1 .379.018.43.43 0 0 1 .232.231c.025.06.03.133.016.218l-.208-.042a.22.22 0 0 0-.016-.148.22.22 0 0 0-.11-.101.236.236 0 0 0-.203-.004c-.067.03-.126.101-.178.213-.055.119-.073.213-.053.283.02.07.063.121.131.153a.21.21 0 0 0 .153.012.31.31 0 0 0 .148-.115ZM34.91 73.609l.337-.979.725.25-.056.166-.529-.182-.074.217.491.17-.057.164-.491-.17-.092.267.547.189-.057.164-.744-.256ZM41.88 73.338l-.257-.32-.01.41.267-.09Zm.495.266-.215.072-.16-.194-.393.131-.007.25-.21.07.054-1.109.21-.07.721.85ZM42.46 73.565l-.423-.944.185-.083.67.457-.283-.63.177-.08.424.944-.191.086-.657-.445.276.616-.177.08ZM43.141 72.29l.341.594.135-.078a.558.558 0 0 0 .105-.071.191.191 0 0 0 .052-.08.219.219 0 0 0-.002-.113.67.67 0 0 0-.076-.175.62.62 0 0 0-.11-.15.236.236 0 0 0-.102-.057.2.2 0 0 0-.108.006.946.946 0 0 0-.154.077l-.08.046Zm-.268-.049.331-.19a.744.744 0 0 1 .18-.08.345.345 0 0 1 .183.005c.06.018.117.05.17.096a.768.768 0 0 1 .15.195c.043.074.07.143.083.207a.453.453 0 0 1-.006.214.366.366 0 0 1-.086.145.63.63 0 0 1-.15.11l-.34.196-.515-.898ZM44.974 72.11l-.537-.673-.24.192-.109-.137.643-.513.11.137-.24.19.536.673-.163.13ZM45.453 71.72l-.713-.75.556-.53.12.128-.404.384.158.166.377-.357.12.126-.377.358.194.204.42-.398.12.126-.571.543ZM46.277 70.318l.181-.11a.455.455 0 0 1 .088.281.441.441 0 0 1-.118.262.446.446 0 0 1-.329.163.54.54 0 0 1-.377-.152c-.13-.114-.202-.235-.216-.365a.457.457 0 0 1 .123-.358.43.43 0 0 1 .287-.16.407.407 0 0 1 .213.046l-.098.188a.219.219 0 0 0-.146-.025.22.22 0 0 0-.128.076.235.235 0 0 0-.06.195c.01.072.061.149.154.23.099.086.185.13.257.13a.23.23 0 0 0 .184-.084.21.21 0 0 0 .054-.143.309.309 0 0 0-.07-.174ZM46.794 70.288l-.844-.598.12-.17.333.235.236-.335-.332-.235.12-.17.846.597-.121.171-.37-.261-.236.334.37.261-.121.17ZM47.38 69.445l-.901-.51.1-.178.81-.028-.6-.34.095-.17.9.511-.103.183-.793.03.587.332-.096.17ZM47.473 68.182c.107.047.2.057.276.032a.265.265 0 0 0 .166-.153.261.261 0 0 0 0-.224c-.034-.073-.106-.133-.216-.181-.109-.047-.2-.06-.274-.035a.264.264 0 0 0-.163.155.266.266 0 0 0-.003.227c.033.071.105.131.214.179Zm-.08.2a.658.658 0 0 1-.224-.15.484.484 0 0 1-.092-.144.401.401 0 0 1-.032-.16c.001-.07.018-.144.052-.221a.486.486 0 0 1 .276-.28.544.544 0 0 1 .417.033c.153.067.255.16.305.282a.481.481 0 0 1-.016.39.487.487 0 0 1-.276.28.535.535 0 0 1-.41-.03ZM48.307 67.528l-.976-.32.065-.198.81.265.162-.493.166.054-.227.692ZM48.102 66.434c.115.026.207.02.278-.02.071-.04.116-.1.134-.18a.262.262 0 0 0-.042-.22c-.047-.066-.129-.112-.246-.139-.116-.026-.208-.02-.276.018a.264.264 0 0 0-.131.182.266.266 0 0 0 .04.223c.046.065.127.11.243.136Zm-.04.212a.66.66 0 0 1-.25-.105.488.488 0 0 1-.116-.125.404.404 0 0 1-.061-.151.566.566 0 0 1 .009-.227.486.486 0 0 1 .22-.326.544.544 0 0 1 .415-.046c.163.037.28.11.352.22.072.109.091.238.057.386a.487.487 0 0 1-.218.327.534.534 0 0 1-.409.047ZM48.483 65.11l-.174-.02.052-.448.41.047a.565.565 0 0 1 .09.202.696.696 0 0 1 .018.257.568.568 0 0 1-.1.273.431.431 0 0 1-.215.158.625.625 0 0 1-.28.028.596.596 0 0 1-.278-.1.457.457 0 0 1-.169-.22.535.535 0 0 1-.023-.252.495.495 0 0 1 .115-.29.365.365 0 0 1 .239-.112l.014.21a.22.22 0 0 0-.129.068.25.25 0 0 0-.061.145c-.01.09.01.166.06.226.052.06.135.097.248.11.122.014.216-.002.284-.05a.274.274 0 0 0 .116-.202.361.361 0 0 0-.01-.133.456.456 0 0 0-.05-.12l-.13-.015-.027.237ZM48.923 64.263l-.435-.007-.606.37.004-.246.413-.237-.405-.245.004-.24.594.39.435.006-.004.209ZM48.405 62.809l.274-.04-.028-.191a.937.937 0 0 0-.026-.141.129.129 0 0 0-.052-.07.128.128 0 0 0-.091-.016.136.136 0 0 0-.075.034.128.128 0 0 0-.038.071.715.715 0 0 0 .012.186l.024.167Zm-.407.058.236-.034-.019-.135a1.95 1.95 0 0 0-.025-.15.138.138 0 0 0-.049-.078.11.11 0 0 0-.084-.02.114.114 0 0 0-.074.038.12.12 0 0 0-.024.083c0 .021.008.08.022.178l.017.118Zm-.141.232-.059-.41a1.19 1.19 0 0 1-.016-.182.267.267 0 0 1 .101-.204.235.235 0 0 1 .116-.05.242.242 0 0 1 .243.113.27.27 0 0 1 .072-.157.249.249 0 0 1 .147-.073.307.307 0 0 1 .259.087.298.298 0 0 1 .068.131c.01.034.023.117.043.249l.05.349-1.024.147ZM48.725 61.943l-1.006.244-.18-.746.17-.041.131.543.223-.055-.123-.505.17-.04.123.504.273-.066-.136-.562.17-.041.185.765ZM47.45 61.175l.988-.305.062.2-.99.304-.06-.2ZM47.298 60.743l-.072-.196.616-.225a.664.664 0 0 1 .193-.047.28.28 0 0 1 .174.053.364.364 0 0 1 .124.179c.035.096.035.18 0 .25-.034.072-.103.127-.207.166l-.089-.178a.277.277 0 0 0 .109-.067.113.113 0 0 0 .017-.116c-.016-.044-.04-.07-.072-.08-.031-.008-.087.002-.165.03l-.628.23ZM47.103 60.264l.951-.407.082.192-.951.407-.082-.192ZM48 59.717l-.923.468-.092-.181.425-.69-.617.312-.087-.174.923-.468.095.188-.414.677.602-.305.088.173ZM46.948 58.606l-.147.095-.244-.379.347-.223c.06.014.125.047.197.099a.693.693 0 0 1 .178.186c.058.09.09.183.096.275a.434.434 0 0 1-.066.258.632.632 0 0 1-.199.2.596.596 0 0 1-.278.099.455.455 0 0 1-.27-.062.535.535 0 0 1-.177-.18.494.494 0 0 1-.095-.298.365.365 0 0 1 .112-.238l.145.154a.219.219 0 0 0-.056.134c-.004.05.011.1.044.15.05.077.113.123.191.137.078.013.165-.01.26-.072.104-.067.166-.14.188-.219a.273.273 0 0 0-.038-.23.359.359 0 0 0-.094-.097.453.453 0 0 0-.113-.061l-.11.07.129.202ZM34.337 60.416l-.238-1.179c-.043-.138-.112-.188-.25-.188-.181 0-.327 0-.327.188l.194 1.179h.62Zm1.847 9.75v-2.944h-.976v2.798c0 .145.094.145.21.145h.766Zm5.835-.146v-2.798h-.977v2.943h.765c.117 0 .212 0 .212-.145Zm1.025-3.642.216-3.71h-9.293l.215 3.71c0 .174.216.316.484.316h7.894c.267 0 .484-.142.484-.316Zm.31-4.919.06-.341h-9.6l.059.341h.618l.08.817h8.084l.08-.817h.619Zm.157-1.043.194-1.179c0-.188-.146-.188-.327-.188-.138 0-.208.05-.25.188l-.238 1.179h.62Zm1.055-1.456-.416 2.91h-.89l-.045.406h.935l-.365 4.691c0 .275-.244.496-.545.496h-.367v.257h.673v1.099c0 .207-.3.376-.673.376v1.287c0 .191-.173.347-.386.347H40.37v-3.11c0-.218-.221-.395-.495-.395h-2.522c-.273 0-.495.177-.495.396v3.109H34.74c-.213 0-.386-.156-.386-.347v-1.287c-.372 0-.673-.169-.673-.376v-1.1h.673v-.256h-.366c-.301 0-.544-.221-.544-.495l-.367-4.692h.935l-.044-.406h-.89l-.417-2.91c.046-.326.728-.485 1.153-.485.552 0 .718.084.999.485l.277 1.456h7.048l.278-1.456c.28-.4.446-.485.998-.485.425 0 1.107.159 1.153.485Z" clip-rule="evenodd"/><path fill="#025A92" fill-rule="evenodd" d="M34.744 61.87h7.739v-.41h-7.74v.41Z" clip-rule="evenodd"/></g><defs><filter id="a" width="154" height="157" x="0" y="0" color-interpolation-filters="sRGB" filterUnits="userSpaceOnUse"><feFlood flood-opacity="0" result="BackgroundImageFix"/><feColorMatrix in="SourceAlpha" result="hardAlpha" values="0 0 0 0 0 0 0 0 0 0 0 0 0 0 0 0 0 0 127 0"/><feOffset dy="16"/><feGaussianBlur stdDeviation="6.5"/><feColorMatrix values="0 0 0 0 0 0 0 0 0 0 0 0 0 0 0 0 0 0 0.03 0"/><feBlend in2="BackgroundImageFix" result="effect1_dropShadow_185_176"/><feBlend in="SourceGraphic" in2="effect1_dropShadow_185_176" result="shape"/></filter></defs></svg>