<svg xmlns="http://www.w3.org/2000/svg" width="154" height="157" fill="none"><g filter="url(#a)"><path fill="#fff" d="M13 0h128v128H13z"/><path fill="#D7AC28" d="M53.386 64.194c0 7.287-5.907 13.194-13.194 13.194C32.907 77.386 27 71.48 27 64.194 27 56.907 32.907 51 40.194 51c7.285 0 13.192 5.907 13.192 13.194Z"/><path fill="#fff" d="M40.186 53.281 28.988 70.288a12.73 12.73 0 0 0 2.188 2.922 12.722 12.722 0 0 0 5.725 3.307h6.582a12.702 12.702 0 0 0 5.725-3.306 12.71 12.71 0 0 0 2.182-2.914L40.186 53.28ZM40.595 52.054l1.218.307-1.218.308-.407.612-.41-.612-1.218-.308 1.218-.307.41-.612.407.612Z"/><path fill="#F1D693" d="M40.194 51.441a12.7 12.7 0 0 1 9.016 3.735 12.72 12.72 0 0 1 3.735 9.016 12.7 12.7 0 0 1-3.734 9.016 12.722 12.722 0 0 1-9.017 3.735 12.702 12.702 0 0 1-9.016-3.734 12.723 12.723 0 0 1-2.733-4.053 12.67 12.67 0 0 1-1.002-4.964 12.702 12.702 0 0 1 3.735-9.016 12.721 12.721 0 0 1 9.016-3.735Zm0-.44C32.907 51 27 56.906 27 64.193s5.907 13.194 13.194 13.194c7.286 0 13.194-5.907 13.194-13.194C53.386 56.907 47.48 51 40.194 51Z"/><path fill="#2C2E81" d="M48.897 64.194a8.703 8.703 0 1 1-8.703-8.703c4.806-.002 8.703 3.896 8.703 8.703Z"/><path fill="#F1D693" d="M40.194 55.734c2.26 0 4.384.881 5.981 2.478a8.404 8.404 0 0 1 2.478 5.982 8.419 8.419 0 0 1-2.478 5.982 8.409 8.409 0 0 1-5.981 2.476 8.397 8.397 0 0 1-5.982-2.478 8.395 8.395 0 0 1-2.478-5.98c0-2.26.88-4.384 2.478-5.982a8.397 8.397 0 0 1 5.982-2.478Zm0-.245a8.703 8.703 0 1 0 0 17.407 8.703 8.703 0 1 0 0-17.407Z"/><path fill="#C4892D" d="M44.075 57.131c.136.127.092.385.041.54-.068.205-.225.326-.42.406-.239.096-.497.134-.737.22-.239.083-.213.264-.235.48l1.87-.356c-.008.134.01.251-.12.326-.093.054-.212.072-.317.1a6.09 6.09 0 0 1-.968.192c-.337.041-.675.067-1.012.11-.088.011-.242.008-.313.075-.056.052-.06.15-.075.22.85.135 1.778-.11 2.556.351h-2.41c.035.281.145.545.314.77.084.11.188.256.305.332.077.05.12.028.196-.013.506-.268.974-.555 1.573-.437-.445.297-.89.595-1.335.895l2.061.894c-.797.303-1.48-.179-2.197-.462-.163.672-.089 1.41.282 2.003.355.566.977.82 1.6.974-.087.134-.16.214-.318.255a1.3 1.3 0 0 1-.78-.049c-.39-.147-.791-.478-1.028-.822a3.21 3.21 0 0 1-.295-.566c-.086-.205-.189-.417-.231-.635-.095-.486.08-.925.152-1.396.034-.214-.154-.32-.279-.464-.125-.145-.225-.328-.387-.438-.147-.102-.322-.042-.49-.05-.18-.007-.393-.078-.408.166-.009.147-.053.288.097.361.173.082.376.063.55.142.402.18.301.716-.056.878-.17.077-.524.08-.576.294-.026.105.006.218.01.324.002.045-.028.164.002.198.035.043.16.022.206.022.13 0 .259-.013.39-.024.256-.023.528-.037.759.102-.242.17-.412.32-.719.322-.33.004-.66.01-.99.017-.508.01-1.24.06-1.575-.41-.264-.372-.197-.87-.158-1.295.042-.473.124-1.061.595-1.301.293-.15.637-.127.955-.14.395-.015.79-.037 1.184-.054-.014-.073-.01-.168-.057-.23-.047-.059-.008-.023-.077-.044-.225-.067-.519-.005-.752-.005h-1.69c-.157 0-.468-.082-.507.12-.016.082-.003.177-.009.263l-.032.419c-.033.517-.055 1.035-.12 1.55-.066.51-.183 1-.367 1.479-.158.411-.332.864-.639 1.19-.147.154-.41.284-.59.1-.14-.143.008-.339.08-.478.251-.484.48-.993.61-1.523.023-.095.086-.25.07-.35-.013-.082-.082-.103-.162-.116-.246-.044-.473.1-.626.281-.154.185-.262.408-.443.57-.233.21-.447.157-.7.023.333-.479.715-.933.84-1.514.05-.233.14-.395.407-.37.054.005.11.016.16.037.079.031.079.031.093.11.029.15 0 .333 0 .487l.302-.016c.054-.004.162.01.21-.014.075-.039.08-.169.084-.247.017-.387.052-.773.082-1.16-.154 0-.309-.032-.463-.032-.18 0-.246.043-.324.203-.172.352-.436.61-.857.492.164-.44.361-.873.369-1.35.002-.162-.067-.342-.047-.5.026-.2.293-.155.42-.068.267.187.053.682.332.818.107.052.32.048.429.005.156-.06.163-.262.13-.404-.076-.314-.527-.689-.147-.985a.342.342 0 0 1 .449.004c.15.13.18.331.303.477.095.111.31.061.44.061H40.146c.27 0 .566.041.833 0 .229-.035.17-.288.147-.469-.025-.18-.045-.395.108-.529.257-.225.582.047.562.34h.434c-.015-.113 0-.23-.038-.338-.04-.117-.122-.128-.236-.154-.263-.056-.542-.041-.799-.12-.275-.085-.43-.288-.463-.571-.026-.22.016-.32.238-.384.084-.024.173-.052.233.023.061.076.063.234.097.325.108.302.33.336.62.36.072.005.17.04.241.015.11-.04.121-.194.12-.29-.004-.233-.172-.544-.01-.755a.272.272 0 0 1 .48.077c.103.309-.055.644.014.958.268-.067.674-.035.832-.318.07-.128.032-.29.1-.419.095-.171.265-.087.416-.091Zm-2.935 4.596c-.565-.381-1.244-.21-1.877-.27-.01.17-.019.34-.026.509.639-.058 1.313.084 1.903-.239Zm-1.102 1.24c0-.149-.006-.3.001-.45.006-.099.025-.168-.078-.201-.119-.04-.326.002-.452.002-.062 0-.201-.026-.252.026-.053.054-.018.199 0 .26.028.1.086.185.172.242.173.118.407.121.608.121Zm-.008-2.34c-.376-.03-.693.12-.724.527.188-.017.52.045.68-.073.1-.072.044-.344.044-.454Zm-1.445-3.89c-.549.018-.38.569-.355.934.011.195.011.395-.224.38-.238-.015-.534.002-.687-.22-.096-.14-.083-.385-.253-.471-.132-.067-.264.039-.339.145-.229.324-.026.642.311.756.337.114.728.048 1.056.18.192.079.13.258.162.425.033.182.186.302.376.225.27-.108.013-.528.268-.674.303-.173.694-.17 1.013-.324.214-.102.363-.286.335-.534-.023-.2-.233-.445-.456-.344-.21.093-.136.4-.227.573-.138.259-.46.196-.698.246-.045-.272.206-1.315-.282-1.298Z"/><path fill="#C4892D" d="M44.594 69.697c-.028.213-.1.375-.335.384-.242.01-.363-.11-.359-.34.011-.556.043-1.05-.112-1.596-.266-.937-.925-1.927-1.923-2.175 0 .948-.013 1.894-.002 2.841.011.907.103 1.802.153 2.707.015.281-.15.503-.471.398-.277-.09-.218-.595-.242-.822-.097-.894-.106-1.776-.108-2.674-.002-.426-.004-.852-.002-1.28v-.686c0-.19.04-.435-.017-.62-.028-.095.015-.061-.063-.111-.052-.034-.153-.026-.216-.034a3.177 3.177 0 0 0-1.026.036c-.04.007-.128.013-.162.037-.076.056-.037.026-.06.124-.027.12-.01.269-.016.39-.01.24-.019.48-.026.72-.033.951-.047 1.92-.21 2.86-.079.45-.235.895-.293 1.346-.039.301-.162.739-.568.6-.227-.08-.19-.249-.145-.437a18.773 18.773 0 0 0 .41-2.26c.119-1.005.11-2.007.11-3.017-.693.309-1.236.9-1.551 1.593-.149.328-.24.68-.276 1.037a3.867 3.867 0 0 0-.016.529c.005.18.087.434.022.601-.127.32-.586.214-.66-.082-.085-.335-.06-.737-.027-1.078a4.116 4.116 0 0 1 .663-1.89 4.053 4.053 0 0 1 1.508-1.34c.316-.163.651-.286.996-.372.134-.034.422-.035.521-.129.084-.078.086-.221.084-.323-.002-.194-.12-.498.061-.643.173-.141.563-.093.637.134.07.218-.063.464-.01.69.053.215.14.144.323.172.193.028.389.093.582.134.267.058.471.222.699.367.242.155.493.302.73.466.373.256.673.705.898 1.096.462.804.619 1.731.5 2.647Z"/><path fill="#BBA720" d="m45.807 71.658.755-.73 2.03 2.102c-.038.035-.07.074-.108.104-.088.065-.172.136-.267.186-.294.15-.577.123-.841-.076a2.243 2.243 0 0 1-.262-.235l-1.278-1.32a.542.542 0 0 1-.03-.031Zm3.177.95a.751.751 0 0 0 .014-.902 2.404 2.404 0 0 0-.239-.292c-.422-.442-.847-.88-1.271-1.32l-.032-.03-.754.728 2.04 2.111c.082-.099.168-.192.242-.294ZM44.073 73.51l-.204.257c-.025-.056-.049-.104-.067-.154-.004-.008.005-.023.01-.032l.5-.674c.065-.088.13-.175.193-.263l.025-.031.89 1.996-.715.318-.632-1.417ZM41.708 75.75v-.006c.089-.112.1-.238.076-.376-.032-.179-.052-.358-.078-.538a1.087 1.087 0 0 0-.023-.112c-.037-.124-.098-.167-.229-.164-.046.002-.093.01-.141.013-.008-.048-.013-.098-.02-.15.035-.008.07-.015.105-.02.175-.034.352-.055.53-.023.208.037.375.134.472.331a.691.691 0 0 1-.294.937.883.883 0 0 1-.398.108Zm.55-1.65a81.099 81.099 0 0 1-.08-.571l-1.275.178c.041.298.084.592.125.885l.179-.025-.045-.312c.369-.052.732-.105 1.097-.155Zm-.562 1.316a.34.34 0 0 0-.383-.283.337.337 0 0 0-.298.382.332.332 0 0 0 .387.281.336.336 0 0 0 .294-.38ZM38.922 73.609c.1.015.19.04.274.087.175.097.277.251.344.434.082.225.078.456.037.689a1.23 1.23 0 0 1-.218.538.873.873 0 0 1-.595.363.634.634 0 0 1-.268-.028l.005-.008c.104-.054.15-.143.164-.255.082-.592.166-1.184.25-1.776a.273.273 0 0 0 .007-.044Zm-.138-.017c-.005-.002-.007-.004-.011-.004a1.586 1.586 0 0 0-.35.015.572.572 0 0 0-.393.242.744.744 0 0 0-.127.426.588.588 0 0 0 .172.45c.143.139.328.189.517.236.066-.46.129-.913.192-1.365Zm-.612 2.074a.342.342 0 0 0 .39-.29.341.341 0 0 0-.29-.382.338.338 0 0 0-.393.286c-.026.19.103.36.293.386ZM35.867 73.31l-.33.021c.027-.056.047-.108.072-.156.003-.007.024-.01.037-.011l.832-.08.36-.036c-.299.669-.593 1.331-.889 1.998l-.713-.317.631-1.418ZM32.125 73.296l-.752-.726 2.003-2.074.752.726c-.668.69-1.334 1.381-2.003 2.074Zm-.154-2.346 1.375-.486-.469-.452-.906.938Zm1.818 1.627c.006-.005.012-.009.015-.013l.8-.828c.025-.024.02-.037-.003-.06-.137-.13-.273-.264-.411-.394a.3.3 0 0 0-.032-.026l-.382 1.318.013.003Z"/><path fill="#fff" d="M48.356 58.218c-.168-.607-.416-1.082-.859-1.555.818.192.726.885.974 1.45l.972-.962-.281-.357-.661.63c.005-.427-.18-.716-.434-1.02l.551-.21-.043-.156.218-.037 1.002 1.22c-.643.526-1.264 1.036-1.895 1.554l-.354-.922.81.365Zm-.017-1.837c.225.24.309.484.242.916.186-.319.294-.501.4-.686-.153-.242-.37-.214-.642-.23Zm-.056 1.89-.411-.178.132.447c.087-.082.162-.156.279-.27Zm-3.092-3.352-.227-.888.575-.16c-.654-.015-.842-.499-1.281-.363-.011.004-.015.03-.024.046.033.047.065.088.095.127-.159.123-.313.246-.484.38.385.136.612.434.845.78-.041-.436-.196-.74-.86-.918.387-.013.556-.07.627-.011.384.322.523.776.62 1.251l-.225.088-.183.727-.376-.612.118-.084.184-.3c-.374-.368-.797-.325-1.27-.143l.073.426c.099-.04.162-.069.23-.098-.014-.106-.025-.198-.048-.36.133.006.263-.024.347.025.132.078.324.203.333.318.022.305-.31.052-.391.168l.791.8c.15-.262.311-.547.471-.83l.603-1.115c-.111-.138-.236-.116-.333-.026-.078.29-.143.53-.21.772Zm5.425 3.087c.688.605.456 1.158.426 1.677-.45.179-.436-.266-.657-.424l-.287.111c.242.207.449.423.304.723-.105.216-.354.28-.574.199-.342-.125-.14-.413-.145-.642-.318-.162-.529-.41-.454-.782.017-.086.229-.198.34-.188.33.031.423.294.458.705.118-.154.183-.24.263-.348l-.25-.527c.552.201.537.77.92 1.056.063-.503-.069-.93-.344-1.56Zm-1.21.758c-.16.27-.038.43.065.573.056.078.18.106.275.158.144-.229.06-.389-.044-.523-.066-.086-.183-.132-.296-.209Zm.47.796c-.152.16-.139.345-.046.512.032.056.19.103.246.073a.306.306 0 0 0 .13-.246c-.015-.182-.104-.328-.33-.339Zm1.704 4.742.196.164-.036.22c-.449-.068-.884-.135-1.35-.203.215-.242.406-.458.615-.697-.393-.204-.337-.506-.188-.802.04-.082.21-.177.28-.15.366.126.297.446.263.762.293-.052.322-.271.365-.51.084.043.147.077.218.112l-.106.875c-.173-.043-.24-.138-.212-.31a20.204 20.204 0 0 1-.283-.023l-.698.666.832-.026c-.013.006.039-.031.104-.078Zm-.6-1.327c-.191.163-.212.366-.119.61l.17.052c.212-.23.19-.56-.05-.662Zm-.111-1.434c-.423-.132-.587-.454-.525-.767.128-.653.447-.339.676-.048.1.128.111.327.17.517.3-.326.018-.623-.021-1.018.486.393.42.95.71 1.405-.139-.01-.204-.018-.275-.024-.04-.11-.078-.208-.173-.458-.4.806-1.069 1.091-1.85 1.274.47-.274 1.01-.373 1.288-.88Zm.045.028c.03-.488-.006-.778-.44-1.096.024.318.006.504.064.664.044.125.182.218.376.432Zm-3.098-6.31-.685 1.155c-.265-.553-.676-.894-1.272-1.132l.555-.469-.218-.221c.71.046 1.1.495 1.62.668Zm-.369.14c-.313-.27-.64-.484-1.072-.374-.108.028-.201.123-.37.233.643.086.977.398 1.14.998l.302-.857Zm4.261 9.933.028-.313a4.835 4.835 0 0 1-.122-.095l-2.3.072 2.395.336Zm-6.44-11.772c.431.15.818.391 1.276.188-.461.21-.772-.514-1.277-.188Zm7.122 11.552c-.183-.419.179-.834-.343-1.186.213.411-.065.815.343 1.186Zm-.358-1.177c.365-.147.557-.38.39-.834l-.39.834ZM45.087 53.24c-.103-.198-.295-.251-.57-.238.259.212.521.357.677.651-.033-.138-.044-.288-.108-.413Zm6.994 9.096a41.264 41.264 0 0 0-.175-.47l-.196.388.37.082Zm-3.967-6.9c-.19.138-.049.23.009.35l.303-.161a9.271 9.271 0 0 0-.312-.188Zm2.163 2.343c-.144-.099-.16-.334-.395-.209l.045.28.35-.071Zm-17.675 1.496c-.666-.012-1.035.326-1.173 1.034-.247-.453.332-.719.123-1.114l-.395.738c-.002-.475.4-.738.162-1.11l-.892-.458.041.363.728.104-.506.41-.458-.266c-.382.383-.309.813-.09 1.223.107.197.293.037.466-.008-.033-.082-.063-.15-.093-.22-.14.005-.262.008-.4.014-.052-.332.061-.555.314-.717.28.086.114.344.216.499l.598-.877c-.04.503-.423.769-.337 1.13l.652.382c.152-.572.506-.93 1.044-1.127Zm1.838-3.626c-.45-.233-.779-.073-1.157.251l.075-.435c.545-.235 1.078-.196 1.638-.138a755.43 755.43 0 0 1-.838-1.046 6.83 6.83 0 0 0-.163.143l.016.18.67.488-.973-.065c.017-.104.035-.22.082-.495-.326.437-.81.527-.873 1.037l.206-.058.184.583c.319-.28.686-.408 1.133-.445Zm-4.584 9.79-.687-.277-.11.259c-.28-.61-.069-1.167-.149-1.698l1.331.05c-.338.512-.543 1.05-.385 1.666Zm-.708-1.459c-.005.534-.087 1.061.628 1.337-.285-.602-.097-1.037.303-1.478-.357.053-.633.094-.93.141Zm2.235-2.443c-1.317-.197-1.97.328-1.821 1.408-.588-.272-.3-.808-.417-1.218l-.231-.136c.127.516-.129 1.006.18 1.495.045-.113.064-.165.071-.184l.594.203c-.229-1.314.693-1.402 1.624-1.568Zm.51-3.703c-.414-.52-.01-.85.204-1.211l-.111-.289c-.183.458-.63.71-.67 1.24l.214-.102c.14.199.271.39.413.591.274-.586.7-.982 1.314-1.182-.722-.087-1.143.272-1.364.953Zm-1.907 1.237c-.15-.495.341-.952 0-1.426.183.461-.47.828-.106 1.333-.322.147-.633.297-.514.782.194-.272.313-.58.62-.69Zm-1.325 5.408c-.32.277-.432.572-.15.959.018-.365.012-.693.293-.933-.415-.259-.058-.845-.588-1.154.283.404-.09.912.445 1.128Zm.707-3.19.151-.243-.309-.175.011.361.147.058Zm5.418-7.401-.39.277.403.11c-.006-.154-.01-.255-.013-.387Zm-4.93 11.551.006.004-.006-.004Z"/><path fill="#2C2E81" fill-rule="evenodd" d="M124.076 69.835c.074.536-.236.91-.566 1.275-.007.008-.017.015-.02.023-.094.257-.185.514-.278.77.227.071.451.151.682.213.465.124.968.17 1.394.372.802.385.938 1.095.637 1.867-.054.14-.207.257-.339.343-.144.091-.309.09-.369-.121-.134-.471-.635-.49-.938-.752-.045-.04-.294.07-.361.171-.099.147-.16.348-.164.527-.008.666-.387 1.137-.791 1.599-.272.31-.592.529-1.008.63-.415.1-.711-.01-.979-.336a6.686 6.686 0 0 0-.869-.908c-.198-.164-.482-.224-.723-.334-.243-.11-.498-.208-.72-.351a.502.502 0 0 1-.194-.35c-.026-.403-.009-.808-.009-1.31-.24.114-.4.168-.542.258-.264.167-.53.143-.806.054-.046-.015-.111-.041-.126-.078-.183-.473-.581-.903-.458-1.441.089-.39.325-.747.504-1.114.237-.487.536-.953.711-1.46.194-.556.378-.81.963-.757.817.073 1.523-.335 2.293-.443.056-.008.148-.05.153-.088.062-.385.272-.633.661-.7-.024-.069-.03-.102-.037-.102-.523-.045-.825-.296-.886-.847-.034-.3-.166-.588-.254-.88-.229.07-.45.43-.478.74-.034.38-.043.771-.136 1.138a1.351 1.351 0 0 1-.391.612.673.673 0 0 1-1.117-.309 2.234 2.234 0 0 0-.91-1.275.858.858 0 0 1-.322-.436c-.192-.675.232-1.11.923-.936.263.065.512.201.75.339.259.149.961.033 1.199-.265.276-.344.577-.575 1.035-.66.267-.05.499-.308.734-.486.123-.093.201-.265.333-.319a.82.82 0 0 1 .488-.015c.056.013.119.224.089.315a6.51 6.51 0 0 1-.372.88c-.168.326-.201.635-.03.974.097.188.138.406.229.69.197-.187.413-.323.536-.519.367-.584.715-1.18 1.035-1.792.181-.348.015-.548-.385-.529-.082.004-.168.02-.248.011-.24-.032-.379-.29-.208-.44.415-.362.853-.716 1.327-.99.157-.089.492.017.683.133.362.215.68.504 1.017.763.227.175.281.419.203.67-.125.404-.322.76-.633 1.08-.575.592-1.1 1.236-1.635 1.869-.134.158-.041.214.144.244.748.125 1.498.275 2.02.897.338.404.551.855.463 1.424a1.118 1.118 0 0 1-.744.916c-.317.116-.674-.033-.952-.303-.097-.097-.281-.129-.428-.144-.238-.024-.478-.007-.78-.007Zm-5.65 3.303c.286-.315.614-.3.977-.28.979.054 1.864-.202 2.003-1.236a.43.43 0 0 1 .06-.173c.134-.193.037-.326-.13-.396a3.65 3.65 0 0 0-.734-.224c-.223-.039-.268-.145-.236-.342.044-.278.201-.438.465-.52.216-.065.43-.145.635-.242.086-.04.145-.141.247-.245-.102-.023-.141-.036-.18-.038a.717.717 0 0 0-.155.008c-.8.158-1.545.448-2.195.953-.407.316-.687.739-.746 1.245-.054.48-.011.969-.011 1.49Zm4.345-4.109a2.52 2.52 0 0 1-.015.114l1.227.377.396-.655c-.608-.35-1.094.026-1.608.164Zm-.912 4.995-.116-.078c-.18.031-.365.048-.54.098-.145.043-.277.125-.417.188.116.123.209.295.35.356.16.067.443.112.527.026.132-.134.138-.387.196-.59ZM101.693 70.107c.132 0 .27.022.398-.004.849-.171 1.155-.927.697-1.673a2.067 2.067 0 0 1-.278-.678c-.061-.305.114-.566.419-.575.521-.015 1.048.03 1.568.078.098.01.219.128.273.229.183.346.384.69.496 1.063.1.339.279.41.599.432.322.022.654.108.95.238.487.212.767.637.737 1.16-.03.495-.395.806-.838.99-.266.11-.549.18-.828.252-.434.11-.738.34-.957.754-.468.878-1.006 1.716-1.784 2.362-.139.115-.313.192-.473.283-.493.283-.983.57-1.478.845-.199.11-.406.214-.618.283-.302.1-.518-.069-.451-.374.051-.233.181-.458.319-.657.452-.654.929-1.288 1.389-1.936.1-.144.169-.31.24-.47.171-.396.151-.437-.25-.591-.549-.213-.968-1.03-.821-1.596.054-.227.393-.432.691-.415Zm6.618 3.9c-.672-.717-1.562-.875-2.478-.972-.096-.009-.203.032-.301.066-.367.124-.477.485-.237.79.285.366.605.708.864 1.092.198.292.354.618.473.951.119.328.672.724 1.009.66.531-.101 1.184-.85 1.123-1.302-.015-.501-.123-.931-.453-1.285ZM89.841 70.051c.015-.145.004-.266.045-.365.052-.123.134-.298.23-.32.135-.03.342.017.44.112.44.419.492.988.518 1.549.028.621.01 1.243.024 1.865.004.114.037.259.114.333.284.285.44.603.547 1.007a5.242 5.242 0 0 0 1.117 2.091c.186.216.188.773.017.989-.114.141-.637.061-.821-.08-.682-.525-1.054-1.26-1.449-1.99-.093-.174-.272-.4-.426-.414-.27-.024-.391.255-.503.482a1.055 1.055 0 0 1-1.154.583c-.182-.032-.266-.114-.24-.285.032-.22.054-.447.134-.651.197-.5.462-.974.633-1.48.15-.447.087-.905-.209-1.3-.052-.069-.163-.093-.247-.138-.034.079-.1.162-.091.237.013.138.052.283.115.406.358.685.156 1.431-.517 1.805-.749.416-1.434.905-2.013 1.544-.145.16-.408.247-.63.286-.115.021-.323-.104-.38-.22a3.06 3.06 0 0 1-.293-1.904c.043-.26.244-.521.432-.728a.958.958 0 0 0 .273-.664c.002-.073.013-.147.004-.218-.091-.633.06-1.23.25-1.825.039-.122.048-.253.074-.387-.268-.043-.305.116-.354.28-.2.68-.413 1.357-.616 2.038-.134.445-.238.9-.395 1.337-.13.367-.318.713-.484 1.065-.104.227-.296.23-.502.18-.22-.054-.358-.205-.34-.42.025-.285.062-.581.167-.844.184-.458.312-.916.305-1.519-.158.104-.28.154-.354.242-.186.216-.493.313-.743.195-.258-.122-.262-.355-.216-.588.043-.212.08-.435.18-.624.306-.575.38-1.19.394-1.828.004-.191.061-.387.113-.575.058-.203.17-.354.421-.326.266.03.417.172.445.434.024.233.03.467.045.7l.112.03c.052-.121.146-.244.148-.369.013-.393-.01-.787-.016-1.182-.006-.361.136-.586.45-.689.304-.098.555.026.745.25.195.232.424.3.715.26.813-.108.996-.247 1.18-1.044.076-.33.16-.594.52-.728.133-.05.266-.248.3-.4.081-.36.115-.732.144-1.102.049-.578.066-1.157.121-1.734.02-.197.107-.364.388-.323.145.02.305-.116.458-.112.385.007.636.294.664.718.008.103.01.209-.007.311-.049.311.1.508.376.592.262.078.482.198.478.486-.003.356-.085.715-.411.92-.225.141-.49.218-.736.324-.279.12-.545.259-.647.577-.09.274.04.449.316.376.356-.095.711-.184.989-.475.463-.49 1.225-.352 1.519.253.212.442.294.888-.013 1.324-.257.363-.57.41-.903.164-.145-.108-.326-.28-.465-.257-.36.056-.706.2-1.054.318-.049.015-.099.086-.11.14-.07.344.301 1.078.68 1.305Zm-3.34.596c.151.158.235.32.317.318.22-.004.43-.087.441-.367.01-.26-.216-.24-.35-.225-.12.013-.227.145-.408.274Zm.224 2.096c.034.02.065.041.099.06l.387-.57c-.466.07-.546.179-.486.51Zm-.177-7.266c-.125-.395-.41-.642-.767-.85-.47-.27-.976-.055-.953.533.013.328-.14.516-.43.592-.28.073-.339.28-.356.512-.04.57.132.784.702.88.471.077.864.256 1.084.723.039.084.232.158.337.14.461-.086.724-.512.72-1.368-.069-.237-.192-.702-.337-1.162ZM62.627 72.62c.023-.57.216-.778.732-1.018.264-.123.499-.365.683-.603.29-.376.61-.684 1.048-.892a2.7 2.7 0 0 0 .737-.557c.33-.339.248-.62-.184-.769-.199-.069-.346-.169-.374-.402-.03-.251.022-.478.27-.562.398-.136.812-.229 1.22-.335.802-.212 1.638-.332 2.3-.909.192-.167.687-.104.885.084.301.285.601.572.899.86.318.311.281.7-.12.914-.515.276-1.044.52-1.6.72-.693.254-1.352.617-1.998.978-.39.218-.387.45-.11.77.145.167.255.156.415.02.242-.207.49-.416.762-.576.114-.067.318-.052.449.002.208.086.359.064.495-.106.078-.097.156-.194.223-.298.436-.69 1.11-.812 1.847-.758.09.006.18.088.253.153.171.15.333.31.501.464.182.167.4.206.646.24 1.024.138 2.139.845 2.202 2.072.023.452-.322.747-.696.99-.331.216-.706.438-.914.752-.318.477-.711.86-1.152 1.194-.501.378-1.04.705-1.555 1.063-.15.106-.313.216-.422.361-.287.38-.682.438-1.054.266-.468-.214-.894-.523-1.331-.802-.425-.272-.838-.56-1.259-.838-.17-.11-.273-.037-.318.14a1.523 1.523 0 0 0-.047.305c-.007.134.036.285-.01.402-.087.218-.172.488-.347.605-.23.155-.752-.044-.868-.292-.223-.473-.407-.966-.62-1.447-.078-.175-.16-.36-.286-.5-.337-.365-.713-.695-1.045-1.065-.145-.162-.221-.386-.33-.581l.073-.045Zm9.65-1.188c-.716.026-1.082.384-1.363.86-.24.404-.48.81-.715 1.218-.065.115-.134.244-.145.37-.012.109.03.258.102.326.052.049.229.036.302-.016.316-.231.638-.464.914-.738.411-.406.798-.84 1.17-1.282.083-.097.118-.315.064-.42-.076-.152-.255-.252-.33-.318Zm-3.884.836h.365c.236 0 .268.185.197.319a9.116 9.116 0 0 1-.659 1.057c-.29.398-.454.363-.676-.087-.03-.058-.119-.108-.186-.116-.05-.005-.16.07-.156.097.018.154.018.361.115.449.153.137.43.32.56.266.444-.192.905-.398 1.116-.907.156-.38.387-.733.515-1.122.133-.395-.039-.58-.448-.537-.201.02-.402.084-.596.15-.209.068-.26.217-.147.431Zm-3.202-.34c-.3.003-.574.27-.575.562-.002.253.387.65.636.65.412-.002.61-.166.605-.507-.005-.437-.26-.71-.666-.705ZM99.23 59.741c1.167-.14 2.176.203 3.191.65.959.424 1.795 1.009 2.588 1.67.307.257.566.573.834.873.605.68 1.143 1.407 1.472 2.264.246.635.315 1.3.274 1.979-.006.069-.054.134-.155.19-.009-.086-.037-.172-.027-.254.102-.957-.229-1.789-.803-2.51-.691-.863-1.432-1.686-2.178-2.501-.194-.21-.501-.32-.769-.484-.065.054-.132.1-.186.16a.934.934 0 0 1-.802.34c-.721-.033-1.451-.04-2.203.378.024-.178.006-.294.056-.355.385-.471.786-.931 1.203-1.423-.641-.244-1.294-.48-2.01-.43-.917.066-1.831.157-2.676.589-.307.156-.656.234-.993.325-.048.014-.13-.108-.197-.167.097-.11.175-.264.296-.322.58-.27 1.182-.492 1.758-.773.599-.292 1.213-.579 1.751-.964.643-.464 1.216-1.024 1.812-1.553.112-.099.182-.244.314-.426-.467.013-.871-.047-1.256.16-.363.194-.747.315-1.164.23-.177-.035-.355-.048-.443-.275-.082-.214-.031-.363.116-.499.232-.218.461-.446.718-.629.294-.206.469-.143.631.18.066.13.133.261.172.4.067.245.219.27.428.196.251-.089.501-.184.756-.256.415-.118.668 0 .847.394.093.201.132.408-.172.486a.305.305 0 0 0-.158.095c-.43.551-1.055.856-1.606 1.253-.376.27-.777.506-1.162.765-.093.067-.171.162-.257.244Zm2.346 1.858c.726.067 1.361-.02 1.523-.201-.628-.412-.628-.412-1.225-.002-.084.06-.17.117-.298.203Zm-1.713-5.144c-.195.121-.452.19-.372.464.02.067.33.14.418.078.25-.166.032-.348-.046-.542ZM64.547 53.97c.17-.203.286-.397.454-.521.11-.082.322-.129.441-.079.674.28 1.352.563 1.996.905.592.317 1.147.708 1.712 1.07.395.256.79.514 1.175.784.177.125.334.276.495.42.51.446 1.07.854 1.52 1.356.575.64.996 1.39 1.053 2.288.032.49-.16.913-.413 1.304-.354.545-.734 1.072-1.111 1.599a.736.736 0 0 1-.261.208c-.075.036-.171.023-.259.032.019-.108.002-.248.063-.317.175-.199.417-.344.566-.558.35-.506.678-1.032.98-1.57a.79.79 0 0 0 .06-.564c-.194-.636-.463-1.23-.995-1.684-.592-.509-1.14-1.069-1.727-1.585-.261-.229-.567-.411-.863-.595-.506-.317-1.007-.648-1.535-.918-.725-.373-1.475-.695-2.214-1.04l-1.137-.535ZM81.873 54.87c-.621-.109-1.32-.198-2-.358-.686-.163-1.354-.07-2.032.016-.08.011-.17.034-.244.011-.072-.022-.13-.096-.194-.148.062-.058.114-.151.183-.168 1.002-.236 2.005-.326 3.033-.132.718.136 1.452.184 2.176.3.14.022.335.16.37.282.064.237-.178.26-.342.293-.475.097-.683.339-.745.893-.033.308.255.687.635.823.289.104.577.214.875.294.078.02.214-.039.272-.106.108-.123.195-.27.262-.419.226-.51.682-.64 1.149-.592.465.047.918.227 1.37.37.076.025.151.163.164.256.024.182.017.372 0 .558-.007.092-.052.246-.099.252a.4.4 0 0 1-.294-.092c-.387-.338-.761-.707-1.286-.804-.198-.035-.423.034-.622.091-.058.017-.095.17-.108.265-.022.182.013.381-.045.55-.044.133-.182.306-.3.323-.267.04-.57.056-.815-.034-.571-.206-1.117-.484-1.677-.727-.242-.107-.324-.31-.251-.53.161-.483.362-.95.565-1.466Z" clip-rule="evenodd"/><path fill="#2C2E81" fill-rule="evenodd" d="M83.288 60.395c-.158-.174-.318-.345-.474-.518-.807-.896-1.862-1.38-2.957-1.802-.948-.365-1.903-.322-2.869-.11-.195.043-.456.141-.541-.121-.096-.29.184-.352.385-.413.795-.244 1.309-.875 1.938-1.348l-.037-.09c-.194.053-.386.123-.583.153a1.041 1.041 0 0 1-.454-.028c-.047-.013-.093-.234-.049-.285.125-.145.341-.385.441-.352.51.174.922-.081 1.37-.2.135-.036.382.024.444.122.102.162.164.376-.112.544-.309.186-.571.452-.836.756.315-.12.628-.248.946-.356.106-.037.313-.056.331-.017.054.116.09.26-.132.323-.145.042-.242.24-.387.294a4.26 4.26 0 0 1-.909.221c-.052.008-.135-.234-.227-.404l-.71.441c2.09.064 3.668.987 5.016 2.365.203.206.523.392.503.76-.037.022-.065.044-.097.065ZM125.189 58.427l.041.322c-.108 0-.195-.004-.283 0-.312.015-.625.024-.936.046-.667.05-1.38-.365-1.525-1.035-.048-.223-.057-.428.203-.55.104-.051.192-.161.263-.26.134-.188.16-.359-.049-.54-.461-.4-.923-.783-1.511-1.001-.323-.12-.598-.358-.913-.5-.569-.256-1.156-.174-1.735-.016-.367.1-.724.237-1.091.333-.085.023-.234-.02-.281-.085-.043-.058-.02-.218.034-.285.42-.52 1.009-.646 1.638-.65.858-.005 1.64.231 2.388.66.557.318 1.125.608 1.574 1.079.149.156.357.294.426.48.073.198.06.46-.002.669-.169.58.022.962.618 1.098.371.088.745.155 1.141.235ZM90.338 60.259c-.67 0-1.347.044-2.014-.014-.75-.065-1.448-.335-2.025-.843-.125-.11-.146-.287.035-.422.398-.296.784-.611 1.188-.9.07-.052.255-.069.294-.022.335.39.765.553 1.255.644.473.088.806-.06.98-.502.018-.04.036-.077.044-.116.055-.289.257-.441.54-.378.063.013.161.157.145.201-.183.468-.397.955-.937 1.07-.363.079-.76.036-1.135-.001-.328-.032-.644-.14-.97-.201-.12-.023-.259-.041-.365-.002-.125.048-.224.164-.335.25.074.089.14.19.227.267.452.406 1.05.37 1.59.516.58.157 1.167.041 1.75.064.702.026 1.295-.306 1.938-.466.19-.047.34-.253.51-.385.087-.07.173-.144.27-.194.013-.007.136.114.13.168-.013.119-.04.283-.123.344a3.15 3.15 0 0 1-.724.406c-.73.273-1.478.463-2.267.516ZM108.03 53.556c.084.203.024.295-.21.313-.572.045-1.13-.005-1.605-.335-.356-.246-.679-.571-.665-1.052.013-.448.354-.72.695-.929 1.078-.662 2.275-.597 3.463-.473.668.071 1.212.464 1.738.842.583.419.989 1.002 1.251 1.66.11.276.088.606.118.91.002.023-.052.051-.101.096-.149-.337-.311-.644-.422-.968-.214-.615-.672-1.002-1.179-1.357-.858-.605-1.822-.875-2.859-.864a2.91 2.91 0 0 0-1.897.74c-.334.287-.218.85.201 1.023.236.099.469.206.714.273.235.064.483.08.758.121ZM110.134 57.08c-.317.222-.531.01-.767-.165-.056-.043-.179-.034-.253-.004-.356.142-.7.311-1.06.44-.096.035-.296.003-.333-.062-.067-.12-.119-.346-.054-.43.274-.346.603-.648.892-.985.071-.084.1-.24.086-.352-.071-.504.132-.863.551-1.118.076-.047.186-.043.277-.064.006.106.039.22.013.315-.061.214-.156.42-.235.631-.074.203.228.873.427.897.087.011.188-.09.286-.138.218-.1.429-.236.658-.288.264-.058.594.205.644.464a.3.3 0 0 1-.043.203c-.143.186-.3.36-.451.541-.175.21-.383.27-.638.116Zm-1.361-.887c-.182.175-.363.342-.542.512l.09.147c.236-.09.472-.177.703-.28.019-.007.013-.134-.016-.178-.053-.071-.136-.12-.235-.201Zm1.808.203-.038-.118c-.134.049-.318.06-.389.155-.082.111-.065.298-.089.45l.097.023c.138-.172.277-.341.419-.51Z" clip-rule="evenodd"/><path fill="#2C2E81" fill-rule="evenodd" d="M120.088 57.196c.455.022.756-.182.927-.558.108-.239.28-.198.458-.14.086.028.164.086.244.13.395.224.391.253.073.575-.121.123-.184.3-.307.421-.093.093-.239.134-.404.222-.023-.21-.034-.33-.051-.49-.15.123-.269.242-.411.332-.342.214-.666.167-1.028-.17-.139-.13-.234-.164-.394-.046-.142.102-.309.169-.462.253-.322.177-.635.154-.808-.144-.074-.13-.03-.448.082-.545.383-.335.819-.61 1.238-.905.115-.08.277-.205.352 0 .037.099-.054.292-.147.382-.199.19-.441.335-.654.512-.067.056-.095.16-.104.266.348-.074.702-.091.754-.553.022-.203.339-.301.596-.221.221.07.108.228.093.36-.011.11-.032.22-.047.32ZM93.32 56.064c-.183-.178-.355-.37-.55-.532-.83-.682-1.659-1.34-2.783-1.512-.829-.127-1.616-.14-2.389.223-.082.04-.25-.003-.32-.068-.047-.043-.026-.24.032-.293.147-.134.318-.275.502-.324.724-.188 1.449-.277 2.199-.05.588.179 1.223.218 1.752.564.316.207.614.45.893.706.311.283.604.59.88.904.075.084.072.237.105.358l-.331.017.01.007ZM113.621 56.44c-.421.146-.838.293-1.261.434-.091.032-.197.069-.288.054-.194-.032-.238-.19-.103-.337.263-.29.537-.57.799-.86.143-.16.289-.216.486-.084.235.158.056.274-.024.404-.019.032-.019.075-.032.132.404-.13.784-.264 1.171-.368.127-.034.276.013.413.024-.037.134-.052.281-.117.398-.139.252-.311.484-.458.73-.028.049-.015.138.01.194.007.02.115.018.163-.002.427-.179.86-.345 1.27-.555.225-.115.402-.095.559.063.186.19.022.34-.097.48-.147.174-.294.343-.484.565l-.205-.523c-.263.09-.518.2-.782.266a3.07 3.07 0 0 1-.734.099c-.335 0-.478-.269-.351-.583.055-.138.096-.283.145-.425l-.08-.106Z" clip-rule="evenodd"/><path fill="#2C2E81" fill-rule="evenodd" d="M93.31 56.059c.039.216-.049.316-.265.394-.204.075-.417.21-.554.378-.162.197.057.454.404.488.12.011.243-.01.383-.015l-.138-.614c.557-.186.67-.134.79.346.111.45-.054.758-.5.795-.34.03-.703.01-1.034-.076-.497-.125-.644-.699-.324-1.097.039-.048.08-.097.115-.145.281-.393.654-.553 1.13-.447.002-.002-.007-.007-.007-.007ZM66.371 55.111c-.15.082-.313.145-.447.248-.18.137-.381.279-.491.467-.108.184.16.41.475.419.11.002.221-.024.34-.037-.052-.215-.095-.403-.154-.645.234 0 .562-.074.614.013.132.222.186.518.184.782-.001.248-.199.404-.467.395-.355-.015-.72-.006-1.065-.082-.465-.102-.646-.717-.337-1.072.168-.192.354-.373.551-.533.233-.19.497-.117.752-.065.014.035.028.073.045.11ZM75.493 56.574c.16-.262.26-.553.458-.728.304-.268.665-.474 1.023-.67.154-.084.357-.097.54-.1.094-.002.243.069.271.143.03.074-.033.223-.102.292-.218.22-.471.406-.687.628-.22.221-.387.5-.628.692-.15.12-.396.171-.595.162-.088-.007-.164-.238-.28-.419ZM91.16 56.379c-.032.272-.045.478-.082.681-.038.197-.213.32-.358.212-.238-.173-.426-.072-.631.01-.404.162-.674.126-.897-.142a.428.428 0 0 1-.093-.186c-.041-.257.35-.817.608-.856.084-.013.198.035.265.093.026.022-.013.177-.066.223-.184.164-.227.343-.022.488.2.138.378.013.503-.156.115-.155.192-.34.314-.485.056-.063.205-.104.284-.076.085.03.14.151.174.194ZM74.369 57.773c-.15-.04-.244-.045-.307-.09-.427-.303-.857-.606-1.26-.936-.071-.057-.079-.271-.03-.372.057-.12.203-.203.325-.276.047-.027.181-.003.202.036.258.529.845.681 1.219 1.074.087.093.153.207.227.311-.138.093-.274.186-.376.253ZM97.769 58.106c-.6-.028-1.08-.266-1.525-.6-.436-.33-.484-.766-.078-.952.106-.049.363.01.413.097.248.426.622.696 1.035.921.259.142.324.292.154.534ZM104.666 56.18c-.05.482.255.968.834.912.151-.015.311.084.469.132-.028.078-.031.207-.082.227-.378.164-1.5-.123-1.709-.45-.324-.503-.286-.812.147-.952.09-.03.233-.104.261-.074.065.067.074.19.08.205Z" clip-rule="evenodd"/></g><defs><filter id="a" width="154" height="157" x="0" y="0" color-interpolation-filters="sRGB" filterUnits="userSpaceOnUse"><feFlood flood-opacity="0" result="BackgroundImageFix"/><feColorMatrix in="SourceAlpha" result="hardAlpha" values="0 0 0 0 0 0 0 0 0 0 0 0 0 0 0 0 0 0 127 0"/><feOffset dy="16"/><feGaussianBlur stdDeviation="6.5"/><feColorMatrix values="0 0 0 0 0 0 0 0 0 0 0 0 0 0 0 0 0 0 0.03 0"/><feBlend in2="BackgroundImageFix" result="effect1_dropShadow_185_314"/><feBlend in="SourceGraphic" in2="effect1_dropShadow_185_314" result="shape"/></filter></defs></svg>