<svg xmlns="http://www.w3.org/2000/svg" xml:space="preserve" style="fill-rule:evenodd;clip-rule:evenodd;stroke-linejoin:round;stroke-miterlimit:2" viewBox="0 0 154 157"><path d="M41.855 48.023c-.154.021-.489.056-.755.076-2.511.245-4.986 1.148-7.162 2.616a16.618 16.618 0 0 0-3.763 3.581c-1.685 2.238-2.797 5.049-3.056 7.756-.021.238-.063.644-.091.889-.076.783.007 2.23.203 3.398.112.679.385 1.728.63 2.441a15.819 15.819 0 0 0 7.651 8.833c2.826 1.469 6.162 2.043 9.288 1.602a15.73 15.73 0 0 0 11.868-8.497c1.133-2.252 1.672-4.511 1.672-7.043 0-1.07-.056-1.728-.217-2.665a15.645 15.645 0 0 0-4.532-8.56 15.523 15.523 0 0 0-9.274-4.365c-.664-.076-2.07-.111-2.462-.062Z" style="fill:#009;fill-rule:nonzero" transform="matrix(3.1908 0 0 3.18877 -59.151 -124.561)"/><path d="M43.743 48.617c3.316.252 6.393 1.532 8.869 3.7a15.085 15.085 0 0 1 4.72 15.036 15.696 15.696 0 0 1-1.44 3.623 21.934 21.934 0 0 1-1.455 2.155c-.441.545-1.637 1.755-2.196 2.209-4.189 3.407-9.722 4.344-14.75 2.498a15.282 15.282 0 0 1-8.155-7.141 14.993 14.993 0 0 1 .714-15.247 14.01 14.01 0 0 1 2.182-2.63c2.622-2.532 5.867-3.958 9.602-4.217a19.424 19.424 0 0 1 1.909.014Z" style="fill:#fff;fill-rule:nonzero" transform="matrix(3.1908 0 0 3.18877 -59.151 -124.561)"/><path d="M42.058 49.155c-1.252.092-2.014.21-2.951.455-2 .517-3.742 1.392-5.449 2.728-.552.433-1.797 1.671-2.251 2.238-1.406 1.762-2.427 3.895-2.889 6.077-.237 1.099-.28 1.574-.28 3.029 0 1.406.029 1.72.224 2.748a14.594 14.594 0 0 0 2.511 5.777c.853 1.182 2.161 2.483 3.308 3.294 2.105 1.483 4.378 2.35 6.98 2.651.567.063 2.406.063 2.966 0 1.86-.217 3.392-.679 5.042-1.511 1.637-.832 3.161-2 4.427-3.399.483-.538 1.273-1.685 1.783-2.594.861-1.546 1.448-3.336 1.693-5.204.091-.664.098-2.672.021-3.322-.315-2.567-1.147-4.756-2.588-6.819-.888-1.273-2.147-2.532-3.497-3.497-.412-.294-1.405-.895-1.867-1.119a14.827 14.827 0 0 0-4.917-1.448c-.524-.063-1.895-.111-2.266-.084Z" style="fill:#004000;fill-rule:nonzero" transform="matrix(3.1908 0 0 3.18877 -59.151 -124.561)"/><path d="M40.611 50.086c0 .021-.028.035-.063.035a.091.091 0 0 0-.084.056c-.014.028.062.405.161.832.097.433.181.825.181.867a.494.494 0 0 1-.09.217c-.238.35-.826.377-1 .042-.049-.091-.413-1.581-.413-1.678 0-.015-.049-.022-.105-.022-.273 0 .14-.188.427-.195.097 0 .091.077-.008.104-.041.014-.076.035-.076.063 0 .112.37 1.651.419 1.721.119.196.518.147.651-.077a.529.529 0 0 0 .076-.21c0-.049-.076-.427-.174-.846-.098-.42-.175-.769-.175-.777 0-.013-.049-.013-.098 0-.077.014-.098 0-.091-.041.007-.035.084-.077.21-.105.202-.056.252-.05.252.014ZM42.632 49.904c0 .035-.042.056-.105.056h-.105l.021.266c.014.146.042.552.063.902.021.349.049.699.056.783.014.112.007.147-.035.147-.028 0-.301-.406-.608-.909l-.553-.909.021.286c.098 1.441.098 1.469.203 1.497.049.014.105.042.111.07.014.035-.048.049-.202.056-.126 0-.245.007-.266.007-.028 0-.056-.021-.063-.042-.014-.028.014-.049.07-.049.049 0 .098-.028.112-.063.028-.077-.091-1.854-.126-1.916-.014-.021-.07-.042-.119-.042-.049 0-.098-.022-.098-.042 0-.049.161-.091.322-.07.126.014.154.049.609.797.258.434.475.777.482.777.021-.022-.098-1.462-.126-1.497-.014-.022-.063-.035-.098-.022-.042.015-.084-.006-.091-.034-.027-.07.049-.091.322-.098.154-.007.203.007.203.049ZM44.219 49.911c.042.007.07.035.07.063 0 .035-.063.042-.196.035-.111-.007-.195 0-.195.021s-.028.392-.056.825c-.035.434-.063.867-.063.958v.161l.189.035c.224.042.216.119-.007.105-.679-.035-.854-.063-.854-.119 0-.049.035-.056.175-.042.112.014.189.007.203-.021.035-.049.175-1.895.147-1.937-.007-.014-.098-.035-.196-.035-.133 0-.175-.014-.175-.063 0-.056.056-.063.448-.035.244.021.475.042.51.049ZM45.338 50.058c.217.056.28.133.133.154-.091.014-.091.014-.105.685-.007.371 0 .714.014.769.021.077.084-.014.378-.559.196-.357.357-.679.357-.7 0-.02-.029-.055-.057-.063-.035-.013-.062-.048-.062-.069 0-.043.035-.043.216 0a.895.895 0 0 1 .245.077c.035.035-.028.097-.084.076-.077-.027-.161.099-.657 1.028-.252.469-.476.854-.497.854-.063 0-.097-.504-.097-1.42 0-.728-.008-.762-.078-.783-.091-.021-.07-.091.035-.091.035-.014.147.014.259.042ZM47.555 50.687l.553.21.014.252c.007.188 0 .245-.042.245-.035 0-.077-.07-.098-.168a.813.813 0 0 0-.097-.238c-.07-.084-.539-.28-.581-.238-.049.049-.315.727-.294.762a.987.987 0 0 0 .238.105l.224.077.112-.14c.062-.077.118-.126.132-.112.035.035-.231.735-.279.707-.021-.014-.035-.091-.035-.182 0-.14-.014-.168-.147-.231-.301-.14-.301-.14-.497.364-.097.252-.161.461-.14.482.014.014.14.07.266.119.287.105.441.084.63-.076.196-.175.202-.085.014.175l-.161.216-.224-.091c-.126-.049-.399-.154-.608-.238-.231-.091-.385-.167-.385-.202s.035-.05.112-.035c.112.02.112.02.434-.839.181-.476.328-.896.328-.931a.116.116 0 0 0-.056-.091c-.07-.028-.077-.105-.014-.105.028-.007.301.091.601.203ZM49.416 51.582c.189.119.336.329.336.462 0 .154-.147.406-.287.49a.666.666 0 0 1-.294.076c-.189 0-.182-.02-.252.623-.042.357-.035.413.021.476.098.111.029.125-.14.042-.181-.092-.181-.105-.097-.749.076-.545.076-.531-.049-.587-.056-.028-.105-.042-.112-.035-.008.007-.113.203-.238.426-.203.364-.217.42-.161.462.07.049.091.154.028.126-.161-.056-.517-.259-.504-.287.008-.021.063-.042.126-.042.105 0 .147-.056.56-.811.245-.441.447-.833.447-.86 0-.028-.027-.063-.062-.084-.035-.021-.056-.056-.043-.077.035-.042.364.118.721.349ZM35.456 53.233c.693.552.839.651.93.636.182-.028.161.028-.083.224-.175.14-.238.168-.252.126-.014-.035-.007-.07.014-.084a.086.086 0 0 0 .035-.07c0-.056-.448-.426-.518-.426a.88.88 0 0 0-.231.153l-.189.147.105.245c.14.315.196.378.308.349.049-.013.091-.006.091.015 0 .063-.356.321-.405.294-.029-.014-.021-.043.006-.07a.15.15 0 0 0 .043-.099c0-.027-.189-.482-.413-.999-.364-.826-.413-.959-.364-1.029.028-.041.063-.076.077-.076.014.006.391.301.846.664ZM36.953 51.233c.014.021-.014.056-.056.077-.042.021-.084.063-.084.091 0 .028.216.433.476.902.258.468.475.881.475.902 0 .077-.056.042-.944-.545-.462-.308-.84-.56-.854-.56-.006 0 .175.343.399.755.406.734.42.756.532.734.196-.041.161.043-.07.169-.133.07-.238.104-.259.083-.021-.021-.007-.056.049-.083.049-.029.084-.056.084-.078 0-.027-.896-1.664-.937-1.699-.007-.007-.063.007-.112.028-.182.084-.14-.042.049-.154l.174-.104 1.581 1.049-.147-.266c-.076-.147-.245-.448-.37-.672-.224-.406-.224-.406-.35-.385-.189.035-.161-.035.077-.174.231-.119.252-.127.287-.07ZM50.863 52.505c.099.05.231.168.294.26.063.09.154.167.189.167.091 0 .091.007-.056.238-.168.28-.224.259-.203-.056.014-.252.014-.259-.125-.399-.106-.105-.169-.14-.28-.14-.182 0-.322.091-.378.245-.049.133-.014.245.21.707.077.161.147.349.147.405 0 .273-.231.56-.497.609-.28.049-.461-.056-.776-.448-.021-.028-.07-.049-.119-.049-.077 0-.07-.021.063-.28.084-.154.167-.28.202-.28.043 0 .049.022.035.07a1.833 1.833 0 0 0-.048.252c-.057.469.419.77.748.476.188-.168.182-.357-.042-.825-.238-.504-.231-.686.042-.896.223-.161.357-.174.594-.056ZM43.877 52.814c4.056.454 7.511 3.07 9.015 6.825.419 1.049.615 1.924.769 3.413l.028.287.28-.168c.364-.216.79-.559 1.217-.986l.342-.336v.126c0 .266-.167 1.301-.245 1.532-.279.811-.72 1.322-1.433 1.672-.154.076-.287.153-.301.181-.014.029-.021.853-.007 1.84l.021 1.79h.434l.427.65.426.651h.21c.112 0 .203.014.196.035-.008.021-.154.266-.322.553l-.308.517h-3.511l-.413.364c-.985.86-2.489 1.818-3.594 2.28a11.544 11.544 0 0 1-6.372.72 11.372 11.372 0 0 1-3.532-1.245c-.958-.524-1.601-1.021-2.279-1.748l-.385-.413-1.812.007-1.811.007-.322-.51a7.968 7.968 0 0 1-.335-.56c-.015-.035.041-.049.21-.049h.23l.294-.574.294-.573.196-.014.195-.014.015-3.679-.343-.175c-.826-.426-1.336-1.23-1.63-2.594-.112-.518-.168-.854-.154-.854.007 0 .147.14.322.308.476.462 1.63 1.238 1.84 1.238.048 0 .069-.097.111-.545a10.817 10.817 0 0 1 3.176-6.812c.314-.315.762-.721.985-.896a11.088 11.088 0 0 1 5.414-2.251c.538-.043 1.972-.049 2.462 0ZM33.658 53.548c-.021.084.07.181.637.741.364.357.686.65.721.658a.14.14 0 0 0 .111-.035c.042-.035.056-.035.056.006 0 .056-.315.392-.363.392-.014 0-.021-.049-.008-.098.022-.091-.021-.139-.321-.426l-.35-.322-.252.259-.252.258.322.322c.308.315.427.378.483.287.021-.035.035-.035.07 0 .028.028-.014.098-.154.238-.196.195-.266.224-.224.077.021-.091-.252-.392-.986-1.071-.322-.293-.399-.349-.448-.307-.027.028-.077.035-.105.021-.027-.021.022-.098.148-.224.104-.105.202-.196.223-.196.014 0 .021.049.007.112-.021.098.007.14.28.399l.308.294.245-.273.244-.273-.266-.273c-.279-.286-.37-.335-.454-.265-.035.027-.063.035-.077.013-.028-.042.329-.454.37-.426.043.007.049.056.035.112ZM52.5 53.96c.238.245.343.371.315.399-.028.028-.07 0-.126-.077-.049-.07-.126-.119-.175-.119-.091 0-1.42 1.245-1.42 1.329 0 .028.056.112.119.189.07.076.105.146.084.161-.021.014-.195-.147-.399-.364-.202-.217-.342-.392-.314-.399.028-.007.105.042.182.119l.132.133.204-.196c.657-.622 1.181-1.154 1.181-1.21 0-.035-.042-.105-.097-.154-.099-.091-.126-.161-.07-.161.02-.006.188.154.384.35ZM32.323 54.947c-.021.111 0 .132.56.538.859.629.923.699.867 1.028-.056.294-.448.573-.686.49-.063-.022-.412-.252-.769-.511-.622-.455-.756-.525-.811-.434-.015.022-.042.029-.063.022-.022-.014.034-.126.126-.259.16-.231.252-.273.209-.098-.021.084.043.139.553.51.727.532.804.574.965.574.245 0 .427-.336.322-.595-.035-.084-.245-.258-.7-.594-.357-.259-.678-.475-.706-.475-.028 0-.063.027-.077.055-.014.028-.049.049-.077.035-.042-.014-.014-.07.084-.216.168-.21.238-.239.203-.07ZM53.71 55.366c.161.224.322.448.349.49.05.07.035.097-.125.266-.196.209-.28.209-.147 0a.509.509 0 0 0 .084-.217c0-.126-.084-.287-.147-.287-.028 0-.385.244-.804.545-.581.42-.756.567-.756.63 0 .049.021.098.042.112.035.021.035.035 0 .07-.021.021-.049.035-.056.028-.007-.007-.098-.14-.203-.287-.188-.266-.216-.385-.062-.245.056.049.104.063.153.035.21-.098 1.504-1.07 1.504-1.133.007-.119-.196-.238-.343-.21-.209.042-.259.035-.279-.007-.015-.042.314-.203.426-.209.042.006.203.196.364.419ZM31.232 56.471c0 .07.175.224.832.735.483.37.819.657.798.678-.022.021-.294-.056-.644-.182-.336-.119-.615-.21-.615-.21-.008.007.223.203.51.441.308.252.504.441.483.462-.021.02-.434-.105-1.001-.301-.741-.259-.993-.336-1.084-.315l-.118.028.112-.203c.111-.196.202-.258.188-.118-.007.048.042.083.161.125.091.035.399.14.679.245.286.105.496.168.475.147-.279-.252-.818-.665-.923-.707a.529.529 0 0 0-.273-.035l-.132.028.105-.216c.104-.21.167-.252.167-.105 0 .056.147.126.651.308.356.132.65.23.643.23-.406-.335-1.035-.811-1.077-.811-.035 0-.063.021-.084.042-.014.028-.042.028-.063.007-.028-.028-.007-.098.042-.203.098-.182.168-.209.168-.07ZM54.599 56.674c.076.14.118.266.097.28-.021.014-.062-.008-.091-.049-.027-.042-.07-.063-.097-.056-.049.021-.721.762-.707.776.014.014.986-.112 1.021-.133.021-.014.028-.063.014-.119-.042-.175.077-.097.196.126.126.238.119.301-.035.203-.091-.063-.14-.063-.685 0-.567.063-.602.07-.937.245-.35.182-.35.182-.322.314.042.21-.049.147-.196-.14-.175-.342-.168-.335-.119-.349.028-.007.056.021.07.063.035.112.091.105.441-.084.258-.14.356-.224.713-.636.266-.308.412-.504.412-.567 0-.077.029-.14.064-.14.014.007.084.119.161.266ZM39.016 74.627c.126.119.112.189-.091.427-.266.315-.287.356-.175.441.112.083.07.167-.077.139-.105-.021-.119-.007-.195.175a1.6 1.6 0 0 0-.112.385l-.022.189.119-.14a.828.828 0 0 0 .12-.168c.006-.077.083-.021.083.063 0 .175-.468.734-.608.734-.077 0-.077.007.014-.524l.035-.189-.546.021c-.671.028-.79.007-.909-.147-.049-.07-.077-.14-.056-.154.021-.021.14 0 .266.042.147.049.363.077.608.077.329.007.392-.007.434-.063.049-.07.07-.175.028-.175-.014 0-.084.028-.161.056-.252.105-.342-.021-.147-.203.14-.133.105-.188-.14-.21-.189-.021-.216-.034-.28-.147-.09-.153-.049-.188.147-.118.084.027.231.062.336.084.098.013.259.048.357.083.37.112.399.105.566-.16.077-.126.182-.322.217-.427a.714.714 0 0 1 .084-.189c.007.014.056.049.105.098Z" style="fill:#fff;fill-rule:nonzero" transform="matrix(3.1908 0 0 3.18877 -59.151 -124.561)"/><path d="M38.471 75.04c.083.077-.014.175-.182.175-.133 0-.329-.14-.329-.238 0-.063.434-.007.511.063ZM39.254 75.305c.063.064.056.231-.022.315-.083.091-.146.098-.216.014-.042-.049-.035-.069.014-.126a.504.504 0 0 0 .091-.153c.035-.112.063-.12.133-.05ZM37.387 75.795c-.028.112-.183.133-.259.035-.056-.07-.063-.063.119-.175.118-.07.14-.077.153-.02a.447.447 0 0 1-.013.16Z" style="fill:#fff;fill-rule:nonzero" transform="matrix(3.1908 0 0 3.18877 -59.151 -124.561)"/><path d="M37.82 75.495c-.028.049.091.195.161.195s.153-.119.112-.16c-.064-.064-.245-.085-.273-.035ZM38.156 75.648c-.056.133-.042.245.028.273.049.014.168-.21.168-.329 0-.112-.147-.07-.196.056Z" style="fill:#004d00;fill-rule:nonzero" transform="matrix(3.1908 0 0 3.18877 -59.151 -124.561)"/><path d="M41.68 75.641c0 .049-.055.161-.118.252-.119.161-.119.161-.119.056 0-.063.028-.21.063-.329.063-.203.07-.217.119-.146a.335.335 0 0 1 .055.167ZM42.806 75.529c.035.105-.027.217-.174.322-.14.098-.148.203-.028.259.111.049.111.147-.007.195-.07.029-.084.064-.07.148.014.056.007.111-.014.126-.056.035-.161.258-.119.258.021 0 .049-.028.063-.056.027-.077.202-.077.237 0 .029.077-.076.161-.279.224a.771.771 0 0 0-.28.182c-.07.07-.154.133-.189.133-.056 0-.056-.014.021-.112.091-.119.077-.203-.021-.203-.105 0-.056-.084.056-.105.084-.014.119-.042.119-.098 0-.077-.056-.098-.098-.035s-.168.049-.196-.021c-.014-.042.008-.105.049-.154.098-.112.168-.287.147-.349a.323.323 0 0 0-.126-.105c-.119-.056-.126-.049.175-.161a.267.267 0 0 0 .168-.168c.035-.098.056-.112.091-.077.07.07.119.056.091-.035-.028-.091.056-.112.084-.021.035.098.091.07.147-.077.056-.161.119-.189.153-.07ZM41.575 76.25l.105.126-.132.279a4.895 4.895 0 0 0-.224.553c-.07.203-.105.265-.161.265-.105 0-.168-.174-.098-.286.028-.049.084-.196.126-.322.035-.133.091-.272.119-.315a.761.761 0 0 0 .077-.244c.014-.091.042-.168.056-.168.007-.014.07.042.132.112Z" style="fill:#fff;fill-rule:nonzero" transform="matrix(3.1908 0 0 3.18877 -59.151 -124.561)"/><path d="M42.548 77.264c.091.196-.035.294-.252.209-.063-.027-.063-.034-.007-.076.035-.028.063-.112.063-.189 0-.126.007-.133.077-.084a.336.336 0 0 1 .119.14Z" style="fill:#fff;fill-rule:nonzero" transform="matrix(3.1908 0 0 3.18877 -59.151 -124.561)"/><path d="M42.093 76.124c-.035.056.014.119.098.119.049 0 .077-.029.077-.077.007-.084-.126-.112-.175-.042ZM42.135 76.389c-.049.05-.021.091.077.091.063 0 .098-.021.098-.062 0-.056-.119-.077-.175-.029ZM42.1 76.55c-.035.008-.07.043-.07.07 0 .035.029.049.077.035.154-.041.148-.14-.007-.105Z" style="fill:#004d00;fill-rule:nonzero" transform="matrix(3.1908 0 0 3.18877 -59.151 -124.561)"/><path d="M45.282 75.893c.056.028.077.084.077.203 0 .14.007.154.063.112.063-.056.175-.028.175.042 0 .028-.049.069-.119.112-.07.042-.119.097-.119.153 0 .064.035.091.154.105.266.042.336.266.084.266-.084 0-.112-.014-.098-.056.014-.042-.014-.076-.084-.098-.056-.021-.112-.035-.112-.028 0 .007-.042.084-.084.168-.049.098-.119.175-.189.196-.161.056-.174 0-.042-.147.133-.14.224-.301.196-.336-.014-.014-.091.014-.175.064-.147.083-.153.083-.196.006-.056-.091-.006-.14.175-.175.196-.041.217-.097.154-.342-.07-.294-.042-.343.14-.245ZM47.716 75.159c.014.07.007.126-.035.167-.035.043-.049.099-.035.14.042.105-.056.189-.154.14-.042-.021-.062-.056-.056-.076.014-.022-.006-.105-.035-.196-.048-.148-.048-.169 0-.189.029-.015.049-.05.043-.077-.029-.077.013-.091.132-.049a.25.25 0 0 1 .14.14Z" style="fill:#fff;fill-rule:nonzero" transform="matrix(3.1908 0 0 3.18877 -59.151 -124.561)"/><path d="M48.101 74.131c.083.076.098.195.021.224-.028.013-.021.021.014.027.035 0 .091-.049.118-.105.043-.076.078-.105.148-.097.188.021.258.181.132.286-.063.05-.119.175-.154.315-.006.035-.027.098-.041.147-.029.105.014.119.084.021.035-.049.062-.056.132-.014.099.056.084.168-.041.391-.14.252-.064.413.132.274.098-.07.119-.078.154-.029.028.042.007.084-.063.14-.126.098-.126.126 0 .308.119.168.119.238.028.315a.358.358 0 0 1-.371.049l-.09-.049.125-.063c.14-.07.147-.098.07-.203-.049-.063-.063-.063-.181.091-.126.16-.245.21-.301.119-.014-.028.042-.098.133-.175.174-.147.209-.259.119-.406-.042-.062-.029-.105.049-.252.091-.175.091-.258 0-.202a1.934 1.934 0 0 0-.196.335c-.224.441-.336.56-.504.546-.188-.014-.203-.084-.035-.182.14-.084.504-.517.504-.608 0-.029-.035-.042-.098-.021-.077.021-.091.007-.077-.035.014-.035-.007-.098-.042-.133-.063-.07-.063-.077.014-.119.049-.028.084-.07.084-.105 0-.035.021-.056.049-.063.028 0 .084-.007.126-.007.084-.007.167-.182.084-.182-.028 0-.077.028-.098.056-.035.042-.07.049-.119.021-.049-.028-.077-.021-.091.021-.042.105-.119.07-.091-.035.021-.077.007-.112-.056-.14-.105-.056-.07-.119.07-.119.098 0 .105-.007.077-.161-.042-.251.028-.314.182-.181Z" style="fill:#fff;fill-rule:nonzero" transform="matrix(3.1908 0 0 3.18877 -59.151 -124.561)"/><path d="M49.01 51.554c-.021.028-.119.203-.224.385l-.182.336.154.09c.168.099.392.12.518.05.091-.05.231-.315.231-.434 0-.14-.105-.294-.266-.385-.182-.105-.182-.105-.231-.042ZM34.854 53.254c.077.182.168.385.196.462.063.139.084.139.322-.063l.133-.112-.35-.28c-.196-.154-.37-.294-.399-.308-.02-.013.021.119.098.301ZM41.8 53.156c-.056.007-.259.035-.455.056-2.972.357-5.763 2.126-7.463 4.728-.154.238-.433.734-.615 1.105a10.207 10.207 0 0 0-.937 2.832c-.077.434-.182 1.49-.154 1.518.014.014.112-.007.224-.049l.203-.063v-.259c0-.343.125-1.189.259-1.727a10.416 10.416 0 0 1 1.985-3.994 12.638 12.638 0 0 1 1.56-1.552c1.154-.938 2.805-1.714 4.239-2.001.846-.175 1.16-.202 2.118-.202 1.05 0 1.511.056 2.455.293 1.337.336 2.532.917 3.7 1.791.434.329 1.385 1.252 1.735 1.692 1.301 1.637 2.112 3.7 2.217 5.651l.021.441h.433l-.028-.385c-.195-2.728-1.293-5.084-3.259-6.987-1.679-1.622-3.812-2.608-6.196-2.881-.336-.028-1.819-.042-2.042-.007ZM35.183 71.445c.063.119.755.763 1.112 1.042 1.21.937 3.007 1.664 4.791 1.938.818.126 2.371.126 3.182 0 1.573-.245 2.966-.756 4.252-1.553a31.774 31.774 0 0 0 1.819-1.343l.139-.119h-.328c-.182 0-.364.014-.406.035-.042.021-.321.231-.615.455a10.604 10.604 0 0 1-4.903 2.098c-.664.105-2.266.105-2.888 0-1.714-.28-3.19-.818-4.274-1.56a9.438 9.438 0 0 1-1.091-.846l-.265-.231h-.28c-.259.014-.28.021-.245.084Z" style="fill:#004d00;fill-rule:nonzero" transform="matrix(3.1908 0 0 3.18877 -59.151 -124.561)"/><path d="M42.31 56.1c0 .07.028.077.279.077.252 0 .28-.007.28-.077 0-.07-.028-.077-.28-.077-.251-.006-.279.007-.279.077ZM42.198 56.422c-.063.189-.056.266.049.371l.098.098-.098.294c-.084.244-.098.363-.098.727 0 .245.021.518.056.623l.056.188h.329c.321 0 .329 0 .37-.105.14-.363.119-1.245-.035-1.567l-.076-.153.09-.056c.12-.077.147-.238.077-.406l-.056-.126h-.72l-.042.112Z" style="fill:#009;fill-rule:nonzero" transform="matrix(3.1908 0 0 3.18877 -59.151 -124.561)"/><path d="M40.324 58.975c-.014.321-.007.349.077.399.084.048.09.09.09.398v.343l-.223.112a1.36 1.36 0 0 1-.427.126c-.168.014-.238 0-.461-.12-.308-.16-.623-.391-.742-.559l-.084-.119v.161c0 .091.029.322.064.525.104.629.013.832-.455.972-.434.126-.825.063-1.238-.196-.245-.154-.259-.161-.231-.077.161.427.552.951.818 1.112.133.077.217.098.42.098.224 0 .28-.014.455-.133.105-.07.391-.21.629-.308l.434-.174 3.294-.008 3.294-.006.391.14c.217.076.497.202.623.279.217.133.245.14.468.112.21-.021.266-.049.469-.224.259-.216.315-.286.553-.727.167-.315.167-.329-.078-.14-.272.217-.88.294-1.356.168-.476-.126-.595-.308-.49-.762a4.58 4.58 0 0 0 .084-.539l.021-.28-.098.14c-.112.161-.44.42-.699.553-.231.118-.588.112-.937-.008l-.252-.09v-.35c0-.343 0-.349.119-.434.119-.084.119-.084.111-.405l-.013-.322-.56-.028-.07.266-.643.007c-.552.007-.643 0-.643-.049s-.07-.056-.399-.056c-.322 0-.399.014-.399.056 0 .049-.098.056-.63.056h-.629l-.035-.126c-.035-.126-.042-.126-.321-.14l-.28-.014-.021.371Z" style="fill:#009;fill-rule:nonzero" transform="matrix(3.1908 0 0 3.18877 -59.151 -124.561)"/><path d="M33.666 62.262c-.35.679-.406.755-.658 1-.378.357-.685.483-1.084.455-.49-.035-.769-.168-1.343-.651-.286-.237-.517-.419-.524-.412-.042.042.308 1 .468 1.294.238.419.658.839 1.029 1.021l.251.125h21.562l.322-.188c.749-.434 1.119-.91 1.371-1.755.084-.28.14-.511.133-.511-.014 0-.252.189-.532.426-.58.483-.804.595-1.286.651-.295.035-.35.028-.595-.063-.217-.084-.322-.154-.567-.399-.272-.273-.322-.343-.65-1.007-.196-.391-.364-.713-.378-.713-.013 0-.182.322-.384.727-.336.658-.392.749-.651 1-.497.49-.951.581-1.636.343-.238-.084-.371-.168-.804-.532-.287-.237-.525-.426-.532-.419-.008.007.056.237.132.51.12.406.19.553.365.811.118.175.286.399.377.497.091.098.182.21.217.245.049.063-.224.07-5.637.07h-5.686l.203-.231c.111-.126.307-.377.44-.566.196-.294.252-.413.371-.833.077-.266.133-.496.126-.503-.007-.007-.245.175-.518.405-.58.483-.811.602-1.315.651-.293.028-.343.028-.573-.07a2.099 2.099 0 0 1-.539-.357c-.28-.252-.3-.287-.664-1.007-.203-.413-.378-.749-.392-.749-.028-.006-.209.322-.419.735Z" style="fill:#009;fill-rule:nonzero" transform="matrix(3.1908 0 0 3.18877 -59.151 -124.561)"/><path d="M41.513 61.801a.132.132 0 0 0-.07.111c0 .14.091.161.594.154.476-.014.49-.014.504-.104.028-.175-.042-.204-.525-.204-.237 0-.468.021-.503.043ZM42.912 61.793c-.028.021-.049.084-.043.147l.015.112.489.014c.49.007.595-.014.595-.133 0-.14-.112-.175-.567-.175-.237 0-.462.014-.489.035ZM44.331 61.814a.212.212 0 0 0-.035.148c.014.09.028.09.469.104.559.014.637 0 .637-.133 0-.146-.113-.175-.588-.175-.336 0-.448.014-.483.056ZM40.107 61.842c-.07.07-.063.133.007.21.049.049.154.063.503.063.245 0 .469-.014.497-.035.028-.021.049-.084.042-.147l-.014-.111-.496-.015c-.35-.006-.504 0-.539.035ZM39.345 61.885c-.692.188-.727.209-.686.377.029.112.105.119.448.042.49-.119.636-.182.636-.287 0-.175-.118-.21-.398-.132ZM45.821 61.863c-.056.056-.021.245.042.28.042.021.273.091.518.147.44.112.447.112.503.035.077-.105.07-.21-.021-.259-.112-.063-.797-.238-.916-.238-.056.007-.112.021-.126.035ZM34.96 62.898l.133.147 1.126-.014 1.125-.014.161-.132.154-.134h-1.412l-1.42-.006.133.153ZM38.142 62.836a.608.608 0 0 0-.021.139c0 .042.93.049 4.511.049 3.58 0 4.511-.007 4.511-.049 0-.028-.014-.09-.021-.139l-.022-.091h-8.923l-.035.091ZM47.674 62.891l.161.133 1.161-.007 1.161-.014.098-.126.105-.132-1.42.006h-1.42l.154.14ZM38.023 63.262c-.021.077 0 .077 4.588.077 4.371 0 4.609 0 4.594-.07-.013-.063-.265-.07-4.587-.077-4.546-.007-4.575-.007-4.595.07ZM48.15 63.283c.119.098.133.098.895.098h.776l.091-.098.091-.098h-1.972l.119.098ZM35.33 63.304c.07.077.119.077.854.077.72 0 .79-.007.874-.077l.091-.077h-.944c-.945-.007-.952-.007-.875.077ZM37.862 63.654c-.084.175-.098.245-.098.594v.399h.349v-.595c0-.566-.006-.594-.076-.594-.056 0-.112.063-.175.196ZM38.233 63.458v1.189h.356v-1.189h-.356ZM38.708 63.458v1.189h.357v-1.189h-.357ZM39.184 63.458v1.189h.322v-1.189h-.322ZM39.659 63.458v1.189h.315v-1.189h-.315ZM40.093 63.458v1.189h.357v-1.189h-.357ZM40.568 63.458v1.189h.357v-1.189h-.357ZM41.044 63.458v1.189h.356v-1.189h-.356ZM41.52 63.458v1.189h.314v-1.189h-.314ZM41.995 63.458v1.189h.315v-1.189h-.315ZM42.429 63.458v1.189h.357v-1.189h-.357ZM42.904 63.458v1.189h.357v-1.189h-.357ZM43.38 63.458v1.189h.357v-1.189h-.357ZM43.856 63.458v1.189h.314v-1.189h-.314ZM44.332 63.458v1.189h.314v-1.189h-.314ZM44.765 63.458v1.189h.357v-1.189h-.357ZM45.241 63.458v1.189h.356v-1.189h-.356ZM45.716 63.458v1.189h.356v-1.189h-.356ZM46.191 63.458v1.189h.315v-1.189h-.315ZM46.626 63.458v1.189h.356v-1.189h-.356ZM47.1 64.052v.595h.35v-.413c0-.503-.09-.776-.259-.776h-.097v.594h.006ZM37.463 64.235c-.119.16-.161.237-.147.314.014.091.035.098.175.098h.154v-.315c0-.174-.007-.314-.007-.314-.014 0-.091.097-.175.217ZM47.576 64.332v.315h.175c.154 0 .175-.014.175-.084s-.294-.553-.343-.553c0 .008-.007.147-.007.322ZM42.394 65.199c0 .028-1.748.042-5.169.042h-5.161v.476h2.413c2.119 0 2.412.007 2.412.056s-.293.063-2.433.063h-2.434v3.524l-.28.015-.28.014-.252.482-.251.483 5.903-.014.307-.693.308-.692-.245-.014c-.223-.014-.244-.021-.23-.091.021-.077.097-.077 5.874-.077 5.56 0 5.854.007 5.847.07-.007.063-.069.07-.419.084-.224.007-.406.028-.399.049.063.168.65 1.343.685 1.35.021.007 1.357.007 2.959-.007l2.916-.021-.307-.483-.308-.482h-.658v-3.497l-2.399-.007c-1.874-.007-2.405-.021-2.419-.056-.015-.042.475-.049 2.363-.049h2.378v-.476h-5.084c-3.35 0-5.092-.014-5.106-.042-.014-.021-.14-.042-.28-.042-.139 0-.251.015-.251.035Z" style="fill:#009;fill-rule:nonzero" transform="matrix(3.1908 0 0 3.18877 -59.151 -124.561)"/><path d="M39.148 65.773c0 .049-.132.063-.95.063-.819 0-.952-.007-.952-.063 0-.049.133-.056.952-.056.818 0 .95.007.95.056ZM39.729 65.766c-.027.077-.23.084-.23.014 0-.042.042-.063.126-.063.077 0 .118.021.104.049ZM42.394 65.773c0 .049-.147.056-1.154.049-.881-.007-1.161-.021-1.168-.056-.014-.042.238-.049 1.154-.049 1.014 0 1.168.007 1.168.056ZM45.268 65.766c-.014.035-.28.049-1.175.049s-1.161-.014-1.174-.049c-.015-.042.237-.049 1.174-.049.938 0 1.189.007 1.175.049ZM45.835 65.78c0 .042-.035.056-.105.049-.154-.021-.168-.112-.014-.112.077 0 .119.021.119.063ZM48.052 65.773c0 .049-.133.063-.93.063s-.931-.007-.931-.063c0-.049.134-.056.931-.056s.93.007.93.056ZM36.889 67.235c0 .636.015 1.216.029 1.286.028.126.021.126-.119.126h-.147v-2.573h.237v1.161ZM38.876 66.382l.266.307v.888c0 .49.014.93.021.979l.021.091h-1.001c-.894 0-.993-.006-.972-.062.014-.035.022-.476.022-.979v-.917l.279-.307.28-.308h.797l.287.308ZM39.75 67.361l.014 1.286h-.153c-.14 0-.148-.006-.127-.091.014-.049.022-.629.022-1.286v-1.196h.237l.007 1.287ZM44.982 66.374l.28.308.02.98.021.985h-1.608v-1.944h-2.099v1.944h-1.559l.021-.985.021-.98.272-.308.273-.3h4.078l.28.3ZM45.835 67.27c0 .657.014 1.237.021 1.286.021.085.007.091-.126.091h-.154l.014-1.286.014-1.287h.238v1.196h-.007ZM47.765 66.388l.287.308v1.945H46.15l.021-.091c.014-.049.021-.49.021-.979v-.896l.279-.307.28-.308h.728l.286.328ZM48.724 66.074v2.573h-.357v-2.573h.357ZM33.4 66.528c.014.189-.028.217-.35.217-.314 0-.357-.028-.357-.224v-.175l.343.014.35.014.014.154ZM34.707 66.528c.014.189-.027.217-.371.217-.307 0-.377-.028-.377-.161 0-.231.021-.238.392-.231l.342.015.014.16ZM35.904 66.521c0 .105-.021.182-.049.189a1.768 1.768 0 0 1-.546.007c-.112-.021-.119-.035-.119-.203v-.175h.714v.182ZM49.989 66.521c0 .105-.021.182-.049.189a1.762 1.762 0 0 1-.545.007c-.112-.021-.119-.035-.119-.203v-.175h.713v.182ZM51.29 66.535a.565.565 0 0 1 0 .168c-.007 0-.105.014-.217.021a1.456 1.456 0 0 1-.35 0c-.132-.028-.139-.028-.139-.203v-.175l.349.014.343.014.014.161ZM52.514 66.507c.014.182-.07.238-.343.238-.35 0-.398-.021-.398-.196 0-.077.013-.161.028-.175.014-.014.181-.021.363-.014l.336.014.014.133Z" style="fill:#fff;fill-rule:nonzero" transform="matrix(3.1908 0 0 3.18877 -59.151 -124.561)"/><path d="M43.618 67.732c0 .88 0 .909-.077.909s-.077-.029-.077-.854v-.853h-1.609l.015.853c.014.833.006.854-.07.854-.078 0-.085-.021-.085-.909v-.91h1.903v.91Z" style="fill:#fff;fill-rule:nonzero" transform="matrix(3.1908 0 0 3.18877 -59.151 -124.561)"/><path d="M38.219 68.948c-.133.133-.112.133 4.49.133 4.098 0 4.511-.007 4.49-.063a.318.318 0 0 1-.021-.077c0-.028-8.931-.021-8.959.007ZM38.065 69.305c-.014.063.217.07 4.629.055 3.679-.006 4.645-.02 4.631-.055-.015-.042-1-.05-4.631-.056-4.364-.007-4.608-.007-4.629.056ZM37.946 69.613c-.021.056.524.056 4.763.056 4.238 0 4.784-.008 4.762-.056-.021-.056-.58-.063-4.762-.063-4.182.007-4.742.014-4.763.063ZM37.827 69.899a.104.104 0 0 0-.028.063c0 .021 2.21.035 4.91.035 3.909 0 4.91-.007 4.896-.049-.015-.042-1.035-.049-4.889-.056-2.672-.014-4.875-.007-4.889.007ZM37.673 70.228c-.021.077 0 .077 5.042.077 2.784 0 5.064-.014 5.064-.035 0-.126-.077-.126-5.091-.126-4.966.007-5.001.007-5.015.084ZM30.637 70.585c0 .021.042.104.091.174l.091.14h23.807l.098-.146a.818.818 0 0 0 .098-.175c0-.014-5.441-.028-12.093-.028-8.147-.007-12.092.007-12.092.035ZM30.931 71.13l.091.147 11.701.007 11.7.007.077-.112c.042-.056.091-.133.105-.161.021-.042-2.364-.049-11.868-.049H30.833l.098.161ZM35.939 71.389c0 .007.083.063.181.119l.182.105h12.827l.434-.224h-6.819a610.498 610.498 0 0 0-6.805 0Z" style="fill:#009;fill-rule:nonzero" transform="matrix(3.1908 0 0 3.18877 -59.151 -124.561)"/><path d="M40.156 72.284c-.07.029-.07.035-.007.056.056.021.07.077.07.308 0 .252-.007.287-.091.315-.07.028-.035.035.147.035.181 0 .216-.007.146-.035-.083-.035-.09-.056-.09-.371 0-.357-.007-.37-.175-.308ZM41.687 72.291c-.07.07-.056.224.035.273.078.042.078.042-.027.133-.12.105-.105.203.048.259.147.056.301.048.406-.021.119-.084.112-.189-.021-.28l-.105-.077.084-.049c.133-.07.091-.28-.056-.28-.042 0-.042.014.007.063.056.056.056.077.007.147-.077.119-.126.126-.245.014-.098-.084-.105-.098-.042-.161.049-.049.057-.07.014-.07a.25.25 0 0 0-.105.049Z" style="fill:#004d00;fill-rule:nonzero" transform="matrix(3.1908 0 0 3.18877 -59.151 -124.561)"/><path d="M42.002 72.711c.126.07.147.189.049.224-.231.09-.426-.078-.273-.231.077-.077.077-.077.224.007Z" style="fill:#fff;fill-rule:nonzero" transform="matrix(3.1908 0 0 3.18877 -59.151 -124.561)"/><path d="M43.457 72.235c-.308.112-.231.49.098.483h.118l-.125-.056c-.175-.077-.224-.238-.112-.357.084-.084.161-.077.252.014.077.077.112.315.042.315-.021 0-.028.021-.021.056.028.07-.245.259-.385.266-.056 0-.07.014-.035.021.035.007.14 0 .238-.028.412-.112.546-.581.189-.706-.119-.035-.161-.043-.259-.008ZM44.996 72.284c-.105.063-.084.119.027.063.113-.063.287-.035.315.042.028.063-.076.175-.168.175-.034 0-.007.028.063.056.273.119.189.315-.133.301-.112-.007-.174.006-.16.035.056.091.468.021.538-.091.056-.084.035-.224-.049-.273-.07-.042-.07-.049-.014-.119.098-.112.021-.21-.188-.217a.529.529 0 0 0-.231.028Z" style="fill:#004d00;fill-rule:nonzero" transform="matrix(3.1908 0 0 3.18877 -59.151 -124.561)"/></svg>