<svg xmlns="http://www.w3.org/2000/svg" width="154" height="157" fill="none"><g filter="url(#a)"><path fill="#fff" d="M13 0h128v128H13z"/><path fill="#000" d="M117.485 73.733v.3c.239 0 .359.06.419.06l.059.06v3.59c0 .12 0 .24-.059.24-.06.059-.18.059-.419.059v.3h1.795v-.3c-.239 0-.359-.06-.359-.06-.06 0-.06-.06-.06-.06 0-.06-.06-.24-.06-.598v-3.112c0-.12.06-.18.06-.18.06 0 .18-.06.419-.06v-.299h-.958c-.179.12-.478.12-.837.06Zm3.83.06c-.539 0-1.137 0-1.736-.06h-.06c0 .3.06.658.06 1.077h.24c0-.359.059-.538.059-.598 0 0 0-.06.06-.06 0 0 .06 0 .18-.06h.838v2.633c0 .599 0 .958-.06 1.018 0 .06 0 .12-.06.12 0 0-.06.06-.12.06-.119 0-.239.06-.359.06v.298h1.855v-.299c-.239 0-.419-.06-.419-.06-.059-.06-.059-.12-.059-.24v-3.59h.059c.419 0 .719 0 .898.06.06 0 .06 0 .06.06s.06.24.06.598h.239c0-.419.06-.778.06-1.077l-.06-.06c-.538.12-1.197.12-1.735.12Zm-33.932-.06v.3c.24 0 .359.06.419.06s.06.06.06.06c0 .059.06.179.06.418v2.573c-.24-.359-.599-.778-.898-1.256-.539-.778-1.017-1.437-1.436-2.095H84.39v.3c.24 0 .359.06.419.06l.06.059c0 .06.06.3.06.658v2.574c0 .299 0 .478-.06.538 0 .06-.06.06-.06.06-.06 0-.18.06-.42.06v.3h1.377v-.3c-.24 0-.359-.06-.419-.06l-.06-.06c0-.06-.06-.24-.06-.658V74.75c.24.299.48.718.838 1.197.659.957 1.257 1.735 1.736 2.393.12 0 .24.06.479.12l.06-.06v-4.249c0-.06 0-.06.06-.06l.06-.06c.059 0 .179-.06.358-.06v-.299h-.718c-.3.12-.539.12-.718.06Zm-3.95 3.531-1.257-3.53h-.419l-.957 2.872c-.18.538-.3.897-.419 1.197l-.12.239c-.06.06-.12.06-.299.06v.3h1.257v-.3c-.24 0-.36-.06-.419-.06-.06 0-.06-.06-.06-.12v-.12c.06-.179.06-.358.12-.478l.12-.36h1.436l.18.54c.06.239.119.358.119.418s0 .06-.06.12c-.06 0-.18.06-.359.06v.3h1.736v-.3c-.18 0-.3-.06-.36-.06s-.06-.3-.239-.778Zm-2.274-.658.598-1.676.599 1.676h-1.197Zm-7.66-2.873v.3c.24 0 .36.06.419.06l.06.06c0 .059.06.238.06.478v1.197c0 .718 0 1.137-.06 1.376-.06.18-.18.36-.3.479-.179.12-.358.18-.658.18-.24 0-.419-.06-.598-.18a.613.613 0 0 1-.3-.36c-.179-.119-.179-.358-.179-.717v-2.334c0-.06 0-.12.06-.18l.06-.06c.06-.06.18-.06.359-.06v-.299h-1.796v.3c.18 0 .3.06.36.06s.06.06.06.06c0 .06.06.179.06.298v2.394c0 .42.06.659.179.898.12.18.299.359.538.479.24.12.539.18.958.18.359 0 .658-.06.897-.18.24-.12.42-.3.54-.539.119-.24.179-.479.179-.778v-.778c0-.598 0-1.197.06-1.675 0-.18.06-.3.06-.36.06-.06.179-.06.358-.06v-.299h-.658a1 1 0 0 1-.718.06Zm4.19 0v.3c.239 0 .418.06.418.06.06 0 .06.119.06.239v1.436H76.43V74.51c0-.24 0-.359.06-.359 0 0 0-.06.06-.06s.18-.06.419-.06v-.299h-1.855v.3c.24 0 .419.06.419.06l.06.06v3.71c0 .06-.06.12-.06.179-.06 0-.18.06-.42.06v.3h1.796v-.3c-.24 0-.419-.06-.419-.06-.06-.06-.06-.12-.06-.36v-1.555h1.796v1.616c0 .12 0 .24-.06.24-.06.059-.18.059-.42.059v.3h1.796v-.3c-.24 0-.359-.06-.419-.06 0 0-.06-.06-.06-.12v-3.291c0-.3 0-.479.06-.539 0 0 0-.06.06-.06s.18-.06.42-.06v-.299h-.898c-.24.18-.54.18-1.018.12ZM69.37 73.733v.3c.24 0 .36 0 .419.06.06 0 .06.06.06.119 0 .18-.06.479-.18.898l-.478 2.034-1.138-3.47h-.299c-.12.299-.299.837-.598 1.495l-.718 1.736-.3-1.736c-.12-.658-.18-1.017-.18-1.077 0-.06 0-.12.06-.12s.18-.06.36-.06v-.299h-1.676v.3c.18 0 .3.06.3.06.06.06.06.12.12.299l.298 1.556c.24 1.376.42 2.214.479 2.513h.419c.18-.478.359-1.017.598-1.556l.719-1.795 1.137 3.351h.538l.42-1.915c.239-1.137.418-1.855.478-2.094.06-.18.06-.24.12-.3s.119-.06.298-.06v-.299h-.598c-.12.12-.359.12-.658.06Zm43.926 4.13-.479-.838-.598-1.078c.299-.18.538-.359.658-.538.12-.18.179-.42.179-.718 0-.18-.059-.36-.119-.539-.06-.18-.18-.24-.299-.359-.12-.06-.36-.12-.659-.12l-1.376.06h-.718v.3a.87.87 0 0 1 .359.06l.06.06c0 .119.059.358.059.777v2.514c0 .299 0 .478-.059.538 0 0 0 .06-.06.06s-.18.06-.359.06v.3h1.795v-.3c-.239 0-.359-.06-.359-.06-.06 0-.06-.06-.06-.06 0-.06 0-.24-.06-.538v-3.292h.359c.24 0 .479.06.599.24.119.12.179.359.179.598 0 .3-.06.538-.239.718a.732.732 0 0 1-.539.24h-.179c0 .06 0 .06-.06.12l.598 1.017c.3.598.539 1.017.719 1.316h1.077v-.24c-.12 0-.18 0-.18-.06l-.239-.239Zm-8.618-4.13v.3c.24 0 .359.06.419.06s.06.06.06.119c0 .12-.12.539-.359 1.197l-.658 1.855-.778-2.274c-.18-.479-.24-.718-.24-.778 0-.06 0-.06.06-.12.06 0 .18-.06.359-.06v-.299h-1.795v.3c.179 0 .299.06.359.06s.06.119.12.239c.119.239.239.658.478 1.316l.958 2.813h.419c.06-.3.179-.658.359-1.137l.838-2.454c.179-.479.299-.718.299-.778 0-.06.12-.06.299-.06v-.299h-.658c.06.06-.18.06-.539 0Zm21.843 0c-.359.718-.598 1.317-.837 1.736l-.24.479c-.239-.599-.479-1.078-.658-1.437-.18-.299-.299-.538-.419-.658-.06-.06-.12-.12-.239-.18-.3.12-.599.18-.898.24v.24h.12c.06 0 .119 0 .119.059.06.06.18.18.3.359.119.18.299.539.538 1.017.24.48.359.778.419.898 0 .06.06.24.06.539v.897c0 .06-.06.12-.06.18-.06.06-.179.06-.419.06v.299h1.855v-.3c-.239 0-.419 0-.419-.06-.059 0-.059-.119-.059-.239v-1.077c0-.24 0-.419.059-.538.06-.12.3-.599.719-1.377.239-.479.478-.838.538-.957v-.18h-.479Zm-26.81 0v.3c.24 0 .359.06.419.06l.06.06v3.59c0 .12 0 .24-.06.24-.06.059-.18.059-.419.059v.3h1.795v-.3c-.239 0-.359-.06-.359-.06-.059 0-.059-.06-.059-.06 0-.06-.06-.24-.06-.598v-3.112c0-.12.06-.18.06-.18.059 0 .179-.06.418-.06v-.299h-.957c-.18.12-.479.12-.838.06Zm9.396 4.19c-.24.06-.539.06-.838.06h-.539v-1.796h.359c.3 0 .539 0 .599.06.06 0 .06.06.06.06 0 .06.059.239.059.478h.24V75.35h-.24c0 .24 0 .36-.059.419 0 .06-.06.06-.06.12h-1.018c0-.42 0-.958.06-1.616h.539c.299 0 .538 0 .718.06.06 0 .12.06.12.06s0 .179.06.538h.239c0-.419.06-.718.06-.957v-.06h-1.975c-.239 0-.599 0-1.017-.06v.3c.239 0 .359.059.418.059.06.06.06.12.06.24v1.496c0 1.077 0 1.855-.06 2.154-.059.06-.179.12-.299.18v.179h2.334c.18 0 .299 0 .479-.06 0-.359.06-.718.06-1.137h-.24c0 .24-.059.479-.119.658Zm-15.8-4.19v.3c.24 0 .36.06.42.06l.06.06c0 .059.06.238.06.478v1.197c0 .718 0 1.137-.06 1.376-.06.18-.18.36-.3.479-.18.12-.359.18-.658.18-.24 0-.419-.06-.598-.18a.613.613 0 0 1-.3-.36c-.06-.179-.12-.418-.12-.777v-2.334c0-.06 0-.12.06-.18l.06-.06c.06-.06.18-.06.36-.06v-.299h-1.796v.3c.18 0 .3.06.36.06.059 0 .059.06.059.06 0 .06.06.179.06.299v2.393c0 .42.06.659.18.898.12.18.299.36.538.479.24.12.539.18.958.18.359 0 .658-.06.897-.18.24-.12.42-.3.539-.539.12-.24.18-.478.18-.778v-.778c0-.598 0-1.197.06-1.675 0-.18.059-.3.059-.36.06-.06.18-.06.359-.06v-.299h-.658c-.3.18-.539.18-.778.12Zm23.161 2.035c-.12-.06-.3-.12-.599-.18-.359-.06-.538-.12-.658-.18a.468.468 0 0 1-.24-.239c-.059-.12-.059-.239-.059-.359 0-.239.059-.419.239-.538.12-.12.359-.24.598-.24.18 0 .359.06.479.12s.24.18.24.24.059.239.059.598h.24c0-.3 0-.479.06-.599 0-.12.059-.239.059-.359v-.06c-.179-.06-.359-.12-.478-.179-.18-.06-.359-.06-.539-.06-.538 0-.957.12-1.197.42-.239.298-.359.657-.359 1.076 0 .24.06.48.12.659.06.18.179.299.359.418.179.06.479.18.898.24.299.06.478.12.598.24.12.119.18.299.18.538 0 .24-.06.479-.24.598-.179.18-.359.24-.658.24-.18 0-.299 0-.419-.06s-.239-.12-.359-.24-.12-.18-.18-.239v-.598h-.239v.718c0 .12-.06.24-.06.419.18.12.419.18.599.24.179.059.419.059.658.059.538 0 .957-.18 1.257-.479.299-.3.478-.718.478-1.137 0-.3-.059-.479-.119-.658-.419-.18-.539-.36-.718-.42Zm-18.492-2.035v.3c.239 0 .359.06.418.06.06 0 .06.06.06.06 0 .059.06.179.06.418v2.573c-.24-.359-.598-.778-.897-1.256-.539-.778-1.018-1.437-1.437-2.095h-1.197v.3c.24 0 .36.06.42.06l.06.059c0 .06.059.3.059.658v2.574c0 .299 0 .478-.06.538 0 .06-.06.06-.06.06-.06 0-.18.06-.419.06v.3h1.377v-.3c-.24 0-.36-.06-.42-.06l-.059-.06c0-.06-.06-.24-.06-.658V74.75c.24.299.479.718.838 1.197.658.957 1.257 1.735 1.735 2.393.12 0 .24.06.48.12l.06-.06v-4.249c0-.06 0-.06.059-.06l.06-.06c.06 0 .18-.06.359-.06v-.299h-.718c-.3.12-.479.12-.718.06Z"/><path fill="#FF0003" d="M107.072 62.901v.718l.599.06h.778l.119-.479-.179-.478-.419-.42-.718-.179-.599-.12-.598-.239v-.479l.06-.418.359-.36.478-.239.599-.24.359-.299-.06-.419-.359-.239-.359.06-.479.359-.299.12v-.539l.06-.419.179-.538.06-.599-.419-.359-.478-.3h-.36l-.359.12.12.48.12.598.06.598.059.658v.659l-.359.538-.538.12-.599.12-.478.06h-.599l-.359.598.239.3.18.239.539-.06.598-.3.539-.299.598-.12.06.42-.18.478-.478.659-.718.598-.659.479-.299.3.06.418.538.06.479-.18.539-.299.359-.479.12-.419.359-.359.239-.478.299-.12.299.06.599.299.299.3Zm-39.138 6.463.838-.18 1.197-.657 1.197-.778 1.136-.838 1.018-.778.838-.778.598-.539.778-.658.24.778.538.778.419.957.36 1.018.538.778.718-.36.299-1.196.18-2.215v-1.615l-.36-.838-.538-.539v.778l-.06.778v1.018l-.06.598-.359-.359-.419-.658-.359-.778-.419-1.257-.24-1.376-.059-.659.539-.359.778-.18v-.777l-.659.06-.598.239-.24-.419-.06-1.616.24-1.616v-1.615l-.419-.718-.658-.18-1.017-.06.179.958.36 1.197.179 1.436v1.436l.12 1.376-.48.36-.837.418-.958.3-1.197.359-.658.359-1.376.598-1.137.36-.539.239h-.599l-.358.419.658.359.538.359.659.18.598-.6.838-.418.658-.36h.539l.12 1.018-.24.658-.24.54.36.538.598.06.599-.599.538-.838.42-.419h.418l.18 1.018-.18.658-.598.658-.838.539-1.197.838-1.077.718-1.556.538-1.197.36-.778.239v.538l.957.24.599.18Zm5.386-7.48-.06.359-.658.12-.539-.06-.598-.24v-.538l.658-.36.838-.358.24.359v.718h.119Zm.359-1.377.538-.239.54-.18.179.54.18.478.179.658.06.658-.06.539-.539-.06-.538-.538-.24-.599v-.658l-.3-.599Z"/><path fill="#FF0003" d="M70.208 65.774v-.718l-.419-.599-.18-.478-.418.418v.48l-.48.538-.179.778.659.06.598-.18.419-.3Zm8.558-10.293h-.719l-.12.299.3.658.06.479-.18.598.18.539h.658l.539-.419.18-1.077-.36-.479-.538-.598Zm-7.062 3.53.838-.299.658-.419.539-.538v-.479l-.539-.419-.658.24-.539.358-.658.3-.599.299-.658.24.838.538.778.18Zm14.782-1.675.18-.658.538-.539.18-.599-.18-.897-.3-.539-.418-.538-.24.478v1.018l-.24 1.257-.06 1.136.12.599.42-.718Zm6.523 9.994.897.06.599.18.538-.06.18-.54v-.657l-.3-.54-.359-.597-.718-.42-.419-.06.36.838.06.599-.18.658-.658.539Zm-7.96 1.257.778-.3.18-.718.06-.718.239-.838.12-.838.18-1.077.299-.658.179-.838.18-.718.418-.479.12-.718.18-.598-.719.18-.179-.6-.539-.837-.478-.12-.06.898v1.077l-.3.838-.418 1.137-.06.958-.18.957-.06.838-.359.957-.359.838.36.838.418.539Zm5.925-2.753-.36.478-.239.3.24.18.359-.24.419-.36.478-.478.36-.538.12-.48.119-.358.479-.24.658-.06.419-.18.658-.358.36-.36.179-.358.479-.06v-.539l-.42-.24h-.837l-.539-.059.06.419-.06.419-.359.359-.419.06-.24-.12.06-.3.24-.238.18-.24.06-.538.239-.36.3-.419v-.538l-.06-.539-.24-.359-.06-.538h.539l.239-.18.36-.359.179-.359v-.36l-.719-.478-.418.06-.36-.06v-.778l.18-.419.718-.718.36-.24.299-.358.239-.479.12-.539v-.598l-.3-.36-.359-.119-.24.24-.179.538v.658l-.24.48-.418.239h-.359v-.36l-.18-.239-.359-.24v.48l.12.359v.359l-.06.478-.299.06-.06-.24-.06-.298-.299-.24h-.3l-.059.539-.06.778-.359.479-.479.299-.478.24-.42.298-.538.06-.419.36.42.239.598.24h.418l.18.418.24.359-.24.36-.12.837-.359.718-.478.539-.24.359.18.359.239.359.36.06.418-.06.3-.24.179-.359.24-.06.538.24-.12.778-.06.359-.538.24-.838.12-.06.418.479.06h.359l.24.359v.538l-.3.659Zm1.316-6.224.36.24-.06.358-.42.18-.358.12-.539-.06v-.479l.36-.24.657-.12Zm-1.735-1.317.718-.718h.539l.359.539-.06.658-.658.06-.42-.24-.478-.299Zm1.017 3.531-.598.06-.24-.24.24-.418.538-.06.36-.18.359.06-.06.42-.599.358Zm25.314-1.436.539-.06.359-.419.06-.598.239-.24.778-.06.24-.478.06-1.137-.599-.539-.299-.359-.18.12v.478l-.119.24h-.479l-.419-.18-.06.898-.12.778-.179.539-.299.299.06.359.418.359Z"/><path fill="#FF0003" d="m123.709 64.517-.179-.359-.359-.06-.659.06-.538.18h-.359l.059-.659.06-.538.24-.539.299-.24.539-.179.538-.24.419-.418.359-.419.539-.359-.24-.838-.538-.24-.479.18-.419.24-.239-.3.06-.239.359-.359.658-.419.359-.538.658-.36.419-.359.599-.18.658-.298.299-.539v-.539l-.419-.598-.419-.36-.478-.059-.3.24-.359.358-.538.06h-.3l-.119-.239.06-.24.359-.06.359-.358.179-.599-.06-.359-.239-.359-.359-.24-.419.06-.179.42-.24.598-.239.539-.299.538-.36-.06-.179-.24-.359-.358-.359-.12-.24.06v.24l.3.598.179.419-.359.299-.419.359.06.36h.239l.479-.24h.299l.24.359.239.419.479-.18.419-.12.239.24.359.06-.119.359-.359.06-.36.359-.538.239-.419-.359-.239-.3-.24-.06-.239-.239-.359.599-.06.24-.658-.06-.24-.24-.239.24.179.538.06.539-.598.598.598.18.659.06-.12.478-.599.36-1.974.718-1.556.598-.838.06-.539-.06h-.538l-.24.359.299.419.419.24.539.299.598.12.539-.18.539-.3.837-.299.539-.359 1.317-.718.658-.419.718-.419.359-.24.838.06.06.42-.599.478-.658.42-.539.179-.598.479.06.837-.06.778-.419.36-.838.239-.957.18-.838.06-.359.238.06.48.299.239.419.239.658-.24.419-.239 1.077-.359.539-.06.06.659-.06.598-.359.3-1.078-.06-.299-.18-.239.12.299.658.359.3.539.179.538.299.539.06.539-.12.418-.538.06-.898-.06-.838v-.898l.18-.359h1.376l.479-.06v-.299Zm.18-7.78-.599.06-.179-.24.179-.239h.539l.538.06.838-.06-.06.48-.239.358h-.359l-.658-.419Z"/><path fill="#009" d="M41.855 48.023c-.154.02-.49.056-.755.076-2.51.245-4.986 1.148-7.162 2.616a16.607 16.607 0 0 0-3.763 3.58c-1.685 2.239-2.797 5.05-3.056 7.757-.02.238-.063.644-.09.889-.078.783.006 2.23.202 3.398.112.678.385 1.728.63 2.441a15.822 15.822 0 0 0 7.65 8.833c2.827 1.469 6.163 2.043 9.289 1.602a15.73 15.73 0 0 0 11.868-8.497c1.133-2.252 1.672-4.511 1.672-7.043 0-1.07-.056-1.728-.217-2.665a15.649 15.649 0 0 0-4.532-8.56c-2.553-2.483-5.728-3.98-9.274-4.365-.664-.076-2.07-.111-2.462-.063Z"/><path fill="#fff" d="M43.743 48.617c3.316.252 6.393 1.532 8.868 3.7a15.086 15.086 0 0 1 4.721 15.036 15.714 15.714 0 0 1-1.44 3.623 22.052 22.052 0 0 1-1.455 2.154c-.44.546-1.637 1.756-2.196 2.21-4.19 3.407-9.722 4.344-14.75 2.498a15.282 15.282 0 0 1-8.155-7.141 14.994 14.994 0 0 1 .714-15.247 14.015 14.015 0 0 1 2.182-2.63c2.622-2.532 5.867-3.958 9.602-4.217a19.33 19.33 0 0 1 1.91.014Z"/><path fill="#004000" d="M42.058 49.155c-1.252.091-2.014.21-2.95.455-2.001.517-3.743 1.392-5.45 2.728-.552.433-1.797 1.67-2.251 2.238-1.406 1.762-2.427 3.895-2.889 6.077-.238 1.099-.28 1.574-.28 3.029 0 1.406.029 1.72.224 2.748a14.594 14.594 0 0 0 2.511 5.777c.853 1.182 2.161 2.483 3.308 3.294 2.105 1.483 4.378 2.35 6.98 2.651.566.063 2.406.063 2.965 0 1.86-.217 3.392-.679 5.043-1.51 1.637-.833 3.161-2.001 4.427-3.4.483-.538 1.273-1.685 1.783-2.594.86-1.546 1.448-3.336 1.693-5.204.09-.665.098-2.672.02-3.322-.314-2.567-1.146-4.756-2.587-6.82-.888-1.272-2.147-2.53-3.497-3.496-.412-.294-1.405-.895-1.867-1.12a14.817 14.817 0 0 0-4.917-1.447c-.524-.063-1.895-.111-2.266-.084Z"/><path fill="#fff" d="M40.61 50.086c0 .02-.027.035-.063.035a.09.09 0 0 0-.083.056c-.014.028.062.405.16.832.098.433.182.825.182.867 0 .05-.041.147-.09.217-.238.35-.826.377-1 .042-.05-.091-.413-1.58-.413-1.678 0-.015-.05-.022-.105-.022-.273 0 .14-.188.426-.196.098 0 .091.078-.007.105-.041.014-.076.035-.076.063 0 .112.37 1.65.42 1.72.118.197.517.148.65-.076a.52.52 0 0 0 .076-.21c0-.049-.076-.427-.174-.846-.098-.42-.175-.77-.175-.777 0-.014-.05-.014-.098 0-.077.014-.098 0-.091-.041.007-.035.084-.077.21-.105.202-.056.252-.05.252.014ZM42.632 49.904c0 .035-.042.056-.105.056h-.105l.021.266c.014.146.042.552.063.902.02.35.049.699.056.783.014.112.007.147-.035.147-.028 0-.301-.406-.608-.91l-.553-.909.02.287c.099 1.44.099 1.47.204 1.497.049.014.105.042.111.07.014.035-.048.049-.202.056-.126 0-.245.007-.266.007-.028 0-.056-.021-.063-.042-.014-.028.014-.049.07-.049.049 0 .098-.028.112-.063.028-.077-.091-1.854-.126-1.916-.014-.021-.07-.042-.119-.042-.049 0-.098-.022-.098-.042 0-.05.161-.091.322-.07.126.014.154.049.609.797.258.434.475.777.482.777.021-.022-.098-1.462-.126-1.497-.014-.022-.063-.035-.098-.022-.042.015-.084-.006-.09-.035-.028-.07.048-.09.321-.097.154-.007.203.007.203.049ZM44.22 49.911c.041.007.07.035.07.063 0 .035-.064.042-.197.035-.111-.007-.195 0-.195.02 0 .022-.029.393-.056.826-.035.434-.063.867-.063.958v.161l.189.035c.223.042.216.119-.007.105-.679-.035-.854-.063-.854-.119 0-.05.035-.056.175-.042.112.014.189.007.203-.021.035-.049.175-1.895.147-1.937-.007-.014-.098-.035-.196-.035-.133 0-.175-.014-.175-.063 0-.056.056-.063.448-.035.244.02.475.042.51.049ZM45.338 50.057c.217.057.28.134.133.155-.09.014-.09.014-.105.685-.007.37 0 .714.014.77.021.076.084-.015.378-.56.195-.357.356-.679.356-.7 0-.02-.028-.055-.056-.063-.035-.013-.062-.048-.062-.07 0-.042.035-.042.216 0 .126.028.231.063.245.078.035.035-.028.097-.084.076-.077-.027-.16.099-.657 1.028-.252.47-.476.854-.497.854-.063 0-.098-.504-.098-1.42 0-.728-.007-.763-.077-.783-.09-.021-.07-.091.035-.091.035-.014.147.014.259.041ZM47.555 50.687l.553.21.014.252c.007.188 0 .245-.042.245-.035 0-.077-.07-.098-.168a.796.796 0 0 0-.097-.238c-.07-.084-.54-.28-.581-.238-.049.049-.315.727-.294.762.007.014.119.063.238.105l.224.077.112-.14c.062-.077.118-.126.132-.112.035.035-.23.735-.28.707-.02-.014-.034-.091-.034-.182 0-.14-.014-.168-.147-.231-.3-.14-.3-.14-.497.364-.097.252-.16.461-.14.482.014.014.14.07.266.12.287.104.441.083.63-.077.196-.175.202-.085.014.175l-.161.216-.224-.091c-.126-.049-.399-.154-.608-.238-.231-.09-.385-.167-.385-.202s.035-.05.111-.035c.113.02.113.02.434-.84.182-.475.33-.895.33-.93a.116.116 0 0 0-.057-.09c-.07-.029-.077-.106-.014-.106.028-.007.301.091.601.203ZM49.416 51.582c.189.12.336.329.336.462 0 .154-.147.406-.287.49a.656.656 0 0 1-.294.076c-.189 0-.182-.02-.252.623-.042.357-.035.413.021.476.098.111.029.125-.14.041-.181-.09-.181-.105-.097-.748.076-.545.076-.532-.05-.587-.055-.028-.104-.042-.111-.035-.008.007-.113.203-.238.426-.203.364-.217.42-.16.462.069.049.09.154.027.126-.161-.056-.517-.26-.504-.287.008-.021.063-.042.126-.042.105 0 .147-.056.56-.811.245-.44.447-.833.447-.86 0-.028-.027-.063-.062-.084-.035-.021-.056-.056-.043-.077.035-.042.364.118.72.35ZM35.456 53.233c.693.552.84.65.93.636.182-.028.161.028-.084.224-.174.14-.237.168-.252.126-.013-.035-.006-.07.015-.084a.086.086 0 0 0 .035-.07c0-.056-.448-.426-.518-.426a.871.871 0 0 0-.23.153l-.19.147.105.245c.14.315.196.378.308.35.05-.014.09-.007.09.014 0 .063-.355.321-.404.294-.029-.014-.022-.043.006-.07a.15.15 0 0 0 .042-.099c0-.027-.188-.482-.412-1-.364-.825-.413-.958-.364-1.028.028-.041.063-.076.077-.076.014.006.391.3.846.664ZM36.953 51.233c.014.02-.014.056-.056.077-.042.02-.084.063-.084.09 0 .029.216.434.475.903.26.468.476.881.476.902 0 .077-.056.042-.945-.545-.46-.308-.839-.56-.853-.56-.006 0 .175.343.399.755.406.734.42.756.532.734.196-.041.16.043-.07.169-.133.07-.238.104-.259.083-.021-.02-.007-.056.049-.083.049-.029.084-.056.084-.078 0-.027-.896-1.664-.937-1.7-.008-.006-.064.008-.112.03-.182.083-.14-.043.048-.155l.175-.104 1.581 1.049-.147-.266a33.302 33.302 0 0 0-.37-.672c-.224-.406-.224-.406-.35-.385-.19.035-.16-.035.077-.174.23-.12.252-.127.287-.07ZM50.863 52.505c.099.05.231.168.294.26.063.09.154.167.19.167.09 0 .09.007-.057.238-.168.28-.224.259-.203-.056.014-.252.014-.259-.126-.399-.105-.105-.168-.14-.28-.14-.181 0-.321.091-.377.245-.05.133-.014.245.21.707.077.16.147.35.147.405 0 .273-.231.56-.497.609-.28.049-.461-.056-.776-.448-.021-.028-.07-.05-.12-.05-.076 0-.07-.02.064-.279.084-.154.167-.28.202-.28.043 0 .05.021.035.07a1.797 1.797 0 0 0-.049.252c-.056.469.42.77.749.476.188-.168.182-.357-.042-.825-.238-.504-.23-.686.042-.896.223-.16.357-.175.594-.056ZM43.877 52.813c4.056.455 7.51 3.07 9.015 6.826.42 1.05.615 1.923.769 3.413l.028.287.28-.168c.364-.216.79-.56 1.217-.986l.342-.336v.126c0 .266-.167 1.301-.245 1.532-.28.811-.72 1.322-1.433 1.672-.154.076-.287.153-.3.181-.015.029-.022.853-.008 1.84l.021 1.79h.434l.427.65.426.65h.21c.112 0 .203.015.196.036-.008.021-.154.266-.322.553l-.308.517h-3.51l-.414.364c-.985.86-2.49 1.818-3.594 2.28a11.55 11.55 0 0 1-6.372.72 11.39 11.39 0 0 1-3.532-1.245c-.958-.524-1.601-1.021-2.28-1.748l-.384-.413-1.812.007-1.811.007-.322-.51a8.5 8.5 0 0 1-.335-.56c-.015-.035.041-.049.21-.049h.23l.294-.574.294-.573.196-.014.195-.014.015-3.679-.343-.175c-.826-.426-1.336-1.23-1.63-2.594-.112-.518-.168-.854-.154-.854.007 0 .147.14.322.308.476.462 1.63 1.238 1.84 1.238.048 0 .07-.097.111-.545a10.819 10.819 0 0 1 3.176-6.812c.314-.315.762-.72.985-.896a11.09 11.09 0 0 1 5.414-2.252c.538-.042 1.972-.048 2.462 0ZM33.658 53.548c-.02.084.07.181.637.74.364.358.686.651.72.659a.137.137 0 0 0 .112-.035c.042-.035.056-.035.056.006 0 .056-.315.392-.363.392-.014 0-.022-.049-.008-.098.022-.09-.02-.14-.321-.426l-.35-.322-.252.259-.252.258.322.322c.308.315.427.378.483.287.02-.035.035-.035.07 0 .028.028-.014.098-.154.237-.196.196-.266.225-.224.078.021-.091-.252-.392-.986-1.07-.322-.294-.399-.35-.448-.308-.027.028-.077.035-.105.021-.027-.021.022-.098.148-.224.104-.105.202-.196.223-.196.014 0 .021.05.007.112-.02.098.007.14.28.398l.308.295.245-.273.244-.273-.266-.273c-.28-.286-.37-.335-.454-.265-.035.027-.063.035-.077.014-.028-.043.329-.455.37-.427.043.007.05.056.035.112ZM52.5 53.96c.238.245.343.37.315.398-.028.029-.07 0-.126-.076-.049-.07-.126-.119-.175-.119-.09 0-1.42 1.245-1.42 1.329 0 .028.056.112.119.189.07.076.105.146.084.16-.02.015-.195-.146-.399-.363-.202-.217-.342-.392-.314-.399.028-.007.104.042.182.119l.132.133.203-.196c.658-.622 1.182-1.154 1.182-1.21 0-.035-.042-.105-.098-.154-.098-.09-.126-.16-.07-.16.021-.007.19.153.385.349ZM32.323 54.947c-.021.111 0 .132.56.538.86.63.923.7.866 1.028-.056.294-.447.573-.685.49-.063-.022-.412-.252-.77-.511-.621-.455-.755-.525-.81-.434-.015.022-.043.029-.064.022-.02-.014.035-.127.127-.26.16-.23.252-.272.21-.097-.022.084.041.14.552.51.727.532.804.574.965.574.245 0 .427-.336.322-.595-.035-.084-.245-.259-.7-.594-.357-.259-.678-.476-.706-.476-.028 0-.063.028-.077.056-.014.028-.05.05-.077.035-.042-.014-.014-.07.084-.216.168-.21.238-.239.203-.07ZM53.71 55.366c.16.224.322.447.35.49.049.07.034.097-.126.266-.196.21-.28.21-.147 0a.507.507 0 0 0 .084-.217c0-.126-.084-.287-.147-.287-.028 0-.385.244-.804.545-.58.42-.756.567-.756.63 0 .049.021.098.042.112.035.02.035.035 0 .07-.02.02-.049.035-.056.027-.007-.006-.098-.14-.203-.286-.189-.266-.216-.385-.063-.245.056.05.105.063.154.035.21-.098 1.504-1.07 1.504-1.133.007-.119-.196-.238-.343-.21-.21.042-.259.035-.28-.007-.014-.042.315-.203.427-.21.042.007.203.197.364.42ZM31.232 56.471c0 .07.175.224.832.735.483.37.819.657.797.678-.02.021-.293-.056-.643-.182-.336-.119-.615-.21-.615-.21-.008.007.223.203.51.44.308.253.504.442.483.463-.021.02-.434-.105-1-.301-.742-.259-.994-.336-1.085-.315l-.118.028.112-.203c.111-.196.202-.258.188-.118-.007.048.042.083.161.125.09.035.399.14.679.245.286.105.496.168.475.147-.28-.252-.818-.665-.923-.707a.528.528 0 0 0-.273-.035l-.133.028.106-.217c.104-.21.167-.251.167-.104 0 .056.147.126.65.308.357.132.651.23.644.23-.406-.335-1.035-.811-1.077-.811-.035 0-.063.021-.084.042-.014.028-.042.028-.063.007-.028-.028-.007-.098.042-.203.098-.182.168-.21.168-.07ZM54.599 56.674c.076.14.118.266.097.28-.02.014-.062-.008-.09-.05-.029-.041-.07-.063-.098-.055-.05.02-.72.762-.707.776.014.014.986-.112 1.021-.133.021-.014.028-.063.014-.119-.042-.175.077-.097.196.126.126.238.119.301-.035.203-.09-.063-.14-.063-.685 0-.567.063-.602.07-.937.245-.35.182-.35.182-.322.314.042.21-.05.147-.196-.14-.175-.342-.168-.335-.119-.35.028-.006.056.022.07.064.035.112.091.105.44-.084.26-.14.357-.224.714-.636.266-.309.412-.504.412-.567 0-.077.029-.14.064-.14.014.007.084.119.16.266ZM39.016 74.627c.126.119.112.189-.091.427-.266.315-.287.356-.175.44.112.084.07.168-.077.14-.105-.02-.119-.007-.195.175-.05.112-.099.28-.113.385l-.02.189.118-.14a.835.835 0 0 0 .12-.168c.006-.077.083-.02.083.063 0 .175-.468.734-.608.734-.077 0-.077.007.014-.524l.035-.189-.546.02c-.671.029-.79.008-.909-.146-.049-.07-.077-.14-.056-.154.021-.02.14 0 .266.042.147.049.363.077.608.077.329.007.392-.007.434-.063.05-.07.07-.175.028-.175-.014 0-.084.028-.161.056-.252.105-.343-.021-.147-.203.14-.133.105-.188-.14-.21-.189-.02-.216-.034-.28-.147-.09-.153-.049-.188.147-.118.084.027.231.062.336.084.098.013.259.048.357.083.37.112.399.105.566-.16.077-.126.182-.322.217-.427a.707.707 0 0 1 .084-.189c.007.014.056.05.105.098Z"/><path fill="#fff" d="M38.47 75.04c.084.077-.013.175-.181.175-.133 0-.329-.14-.329-.238 0-.063.434-.007.51.063ZM39.254 75.305c.063.063.056.231-.022.315-.083.091-.146.098-.216.014-.042-.049-.035-.07.014-.126a.495.495 0 0 0 .09-.153c.036-.112.064-.12.134-.05ZM37.386 75.795c-.027.112-.182.133-.258.035-.056-.07-.063-.063.119-.175.118-.07.14-.077.153-.02a.448.448 0 0 1-.014.16Z"/><path fill="#004D00" d="M37.82 75.495c-.028.048.09.195.16.195s.154-.119.113-.16c-.064-.064-.245-.085-.273-.035ZM38.156 75.648c-.056.133-.042.245.028.273.049.014.168-.21.168-.329 0-.112-.147-.07-.196.056Z"/><path fill="#fff" d="M41.68 75.641c0 .049-.055.161-.118.252-.12.161-.12.161-.12.056 0-.063.029-.21.064-.329.063-.203.07-.217.119-.147a.341.341 0 0 1 .055.168ZM42.806 75.53c.035.104-.027.216-.174.32-.14.1-.148.204-.028.26.111.049.111.147-.007.195-.07.029-.084.064-.07.147.014.057.007.112-.014.127-.056.035-.161.258-.119.258.02 0 .049-.028.063-.056.027-.077.202-.077.237 0 .029.077-.076.161-.28.224a.772.772 0 0 0-.28.182c-.07.07-.153.133-.188.133-.056 0-.056-.014.021-.112.091-.12.077-.203-.02-.203-.106 0-.057-.084.055-.105.084-.014.119-.042.119-.098 0-.077-.056-.098-.098-.035s-.168.05-.196-.02c-.014-.043.008-.106.05-.155.097-.112.167-.287.146-.35a.324.324 0 0 0-.126-.104c-.119-.056-.126-.05.175-.161a.266.266 0 0 0 .168-.168c.035-.098.056-.112.09-.077.07.07.12.056.092-.035-.028-.091.056-.112.084-.021.035.098.09.07.147-.077.056-.16.119-.189.153-.07ZM41.575 76.25l.105.126-.132.28a4.982 4.982 0 0 0-.224.552c-.07.203-.105.265-.161.265-.105 0-.168-.174-.098-.286.028-.049.084-.196.126-.322a1.41 1.41 0 0 1 .119-.315.776.776 0 0 0 .077-.245c.014-.09.042-.167.056-.167.007-.014.07.041.132.111Z"/><path fill="#fff" d="M42.548 77.264c.091.196-.035.294-.252.21-.063-.028-.063-.035-.007-.077.035-.029.063-.112.063-.189 0-.126.007-.133.077-.084a.34.34 0 0 1 .119.14Z"/><path fill="#004D00" d="M42.093 76.124c-.035.056.014.119.098.119.048 0 .077-.029.077-.077.007-.084-.126-.112-.175-.042ZM42.135 76.39c-.05.049-.02.09.077.09.063 0 .098-.02.098-.062 0-.056-.12-.078-.175-.029ZM42.1 76.55c-.035.008-.07.043-.07.07 0 .035.029.05.077.035.154-.041.148-.14-.007-.105Z"/><path fill="#fff" d="M45.282 75.893c.056.028.077.084.077.203 0 .14.007.153.063.112.063-.056.175-.028.175.041 0 .029-.05.07-.12.113-.07.042-.118.097-.118.153 0 .064.035.091.154.105.266.042.336.266.084.266-.084 0-.112-.014-.098-.056.014-.042-.014-.076-.084-.098-.056-.02-.112-.035-.112-.028 0 .007-.042.084-.084.168-.049.098-.119.175-.189.196-.16.056-.174 0-.042-.147.133-.14.224-.3.196-.336-.014-.014-.09.014-.175.064-.147.083-.153.083-.196.006-.056-.09-.006-.14.175-.175.196-.041.217-.097.154-.342-.07-.294-.042-.343.14-.245ZM47.716 75.159c.014.07.007.126-.035.167-.035.043-.049.099-.035.14.042.105-.056.189-.154.14-.042-.021-.062-.056-.056-.076.014-.022-.006-.105-.035-.197-.049-.147-.049-.168 0-.188.029-.015.05-.05.043-.077-.029-.078.013-.091.132-.05.07.029.119.085.14.14Z"/><path fill="#fff" d="M48.1 74.13c.084.077.099.196.022.225-.028.013-.021.02.014.027.035 0 .09-.049.118-.105.043-.076.078-.105.148-.097.188.02.258.181.132.286-.063.05-.119.175-.154.315-.006.035-.027.098-.041.147-.029.105.014.119.084.021.035-.049.062-.056.132-.014.099.056.084.168-.041.391-.14.252-.064.413.132.274.098-.07.119-.078.154-.029.028.042.007.084-.063.14-.126.098-.126.126 0 .308.12.168.12.238.028.315a.358.358 0 0 1-.37.049l-.091-.05.125-.062c.14-.07.147-.098.07-.203-.049-.063-.063-.063-.181.091-.126.16-.245.21-.301.119-.014-.029.042-.098.133-.175.174-.147.21-.259.119-.406-.042-.063-.029-.105.049-.252.09-.175.09-.258 0-.202-.021.014-.112.167-.196.335-.224.441-.336.56-.504.546-.188-.014-.203-.084-.035-.182.14-.084.504-.517.504-.608 0-.029-.035-.043-.098-.022-.077.022-.091.008-.077-.034.014-.035-.007-.098-.042-.133-.063-.07-.063-.077.014-.12.049-.027.084-.07.084-.104 0-.035.021-.056.049-.063.028 0 .084-.007.126-.007.084-.007.167-.182.084-.182-.028 0-.077.028-.098.056-.035.042-.07.05-.12.02-.048-.027-.076-.02-.09.022-.042.105-.12.07-.09-.035.02-.077.006-.112-.057-.14-.105-.056-.07-.119.07-.119.098 0 .105-.007.077-.16-.042-.252.028-.315.182-.182Z"/><path fill="#004D00" d="M49.01 51.554c-.021.028-.119.203-.224.385l-.182.336.154.09c.168.099.392.12.518.05.09-.05.23-.315.23-.434 0-.14-.104-.294-.265-.385-.182-.105-.182-.105-.231-.041ZM34.854 53.254c.077.182.168.385.196.462.063.14.084.14.322-.063l.133-.112-.35-.28c-.196-.154-.37-.294-.399-.308-.02-.014.021.12.098.301ZM41.8 53.156c-.056.007-.26.035-.455.056-2.972.357-5.763 2.126-7.463 4.728-.154.238-.433.734-.615 1.105a10.215 10.215 0 0 0-.937 2.832c-.077.434-.182 1.49-.154 1.518.014.014.112-.007.224-.05l.203-.062v-.259c0-.343.125-1.189.258-1.727a10.412 10.412 0 0 1 1.986-3.994 12.611 12.611 0 0 1 1.56-1.552c1.154-.938 2.805-1.714 4.239-2 .846-.176 1.16-.203 2.118-.203 1.05 0 1.511.056 2.455.293 1.337.336 2.532.917 3.7 1.79.434.33 1.385 1.253 1.735 1.693 1.3 1.637 2.112 3.7 2.217 5.651l.02.44h.434l-.028-.384c-.195-2.728-1.293-5.084-3.259-6.987-1.678-1.622-3.812-2.608-6.196-2.881-.336-.028-1.819-.042-2.042-.007ZM35.183 71.445c.063.119.755.763 1.112 1.042 1.21.937 3.007 1.664 4.79 1.938.82.126 2.372.126 3.183 0 1.573-.245 2.965-.756 4.252-1.553a31.657 31.657 0 0 0 1.819-1.343l.14-.12h-.33c-.181 0-.363.015-.405.036-.042.021-.321.23-.615.455a10.59 10.59 0 0 1-4.903 2.098c-.664.105-2.266.105-2.889 0-1.713-.28-3.189-.819-4.273-1.56a9.327 9.327 0 0 1-1.09-.846l-.266-.23h-.28c-.259.013-.28.02-.245.083Z"/><path fill="#009" d="M42.31 56.1c0 .07.028.077.28.077.251 0 .28-.007.28-.077 0-.07-.029-.077-.28-.077-.252-.006-.28.007-.28.077ZM42.198 56.422c-.063.19-.056.266.05.37l.097.099-.098.294c-.084.244-.098.363-.098.727 0 .245.021.518.056.623l.056.188h.329c.321 0 .329 0 .37-.105.14-.363.12-1.245-.035-1.567l-.076-.153.09-.056c.12-.077.147-.238.077-.406l-.056-.126h-.72l-.042.112Z"/><path fill="#009" d="M40.324 58.974c-.014.322-.008.35.077.4.084.048.09.09.09.398v.343l-.223.112a1.346 1.346 0 0 1-.427.126c-.168.014-.238 0-.461-.12-.308-.16-.623-.39-.742-.56l-.084-.118v.161c0 .091.029.322.063.525.105.629.014.832-.454.971-.434.127-.825.064-1.238-.195-.245-.154-.26-.16-.23-.077.16.427.551.951.817 1.112.133.077.217.098.42.098.224 0 .28-.014.455-.133.105-.07.39-.21.629-.308l.434-.175 3.294-.007 3.294-.006.392.14c.216.076.496.202.622.28.217.132.245.14.468.11.21-.02.266-.048.47-.223.258-.216.314-.286.551-.727.168-.315.168-.329-.077-.14-.272.217-.88.294-1.356.168-.476-.126-.595-.308-.49-.762a4.51 4.51 0 0 0 .084-.539l.021-.28-.098.14c-.112.16-.44.42-.699.553-.23.118-.588.112-.938-.008l-.25-.09v-.35c0-.343 0-.35.118-.434.119-.084.119-.084.111-.405l-.013-.322-.56-.028-.07.266-.643.007c-.552.007-.643 0-.643-.05 0-.048-.07-.055-.4-.055-.321 0-.398.014-.398.056 0 .049-.098.056-.63.056h-.63l-.034-.126c-.035-.126-.042-.126-.321-.14l-.28-.014-.021.37Z"/><path fill="#009" d="M33.666 62.262c-.35.679-.406.755-.658 1-.378.357-.685.483-1.084.455-.49-.035-.77-.168-1.343-.65-.286-.239-.517-.42-.524-.413-.042.042.308 1 .468 1.293.238.42.658.84 1.029 1.022l.251.125h21.562l.322-.188c.748-.434 1.12-.91 1.37-1.756.085-.28.14-.51.134-.51-.014 0-.252.188-.532.426-.58.483-.804.595-1.287.65-.294.036-.35.029-.594-.062-.217-.084-.322-.154-.567-.399-.272-.273-.322-.343-.65-1.007-.196-.391-.364-.713-.378-.713-.014 0-.182.322-.384.727-.336.658-.392.749-.65 1-.498.49-.952.58-1.637.343-.238-.084-.371-.168-.805-.532-.287-.237-.524-.426-.531-.42-.008.008.056.238.132.511.12.406.19.553.364.811.12.175.287.4.378.497.091.098.182.21.217.245.049.063-.224.07-5.637.07h-5.686l.203-.231c.111-.126.307-.377.44-.566.196-.294.252-.413.37-.833a3.99 3.99 0 0 0 .127-.503c-.008-.008-.245.174-.518.405-.58.483-.811.602-1.315.651-.293.028-.343.028-.573-.07a2.1 2.1 0 0 1-.539-.357c-.28-.252-.3-.287-.664-1.007-.203-.413-.378-.749-.392-.749-.028-.006-.21.322-.42.735Z"/><path fill="#009" d="M41.513 61.8a.132.132 0 0 0-.07.112c0 .14.09.161.594.154.476-.014.49-.014.504-.105.028-.174-.042-.203-.525-.203-.237 0-.468.021-.503.042ZM42.912 61.793c-.028.021-.05.084-.043.147l.015.112.49.014c.489.007.594-.014.594-.133 0-.14-.112-.175-.567-.175-.237 0-.462.014-.49.035ZM44.331 61.814a.208.208 0 0 0-.035.148c.014.09.028.09.469.104.56.014.636 0 .636-.133 0-.146-.112-.175-.587-.175-.336 0-.448.014-.483.056ZM40.107 61.842c-.07.07-.063.133.007.21.049.05.154.063.503.063.245 0 .469-.014.497-.035.028-.02.049-.084.042-.147l-.014-.111-.496-.015c-.35-.006-.504 0-.54.035ZM39.345 61.885c-.692.188-.727.21-.686.377.029.112.105.12.448.042.49-.119.636-.182.636-.287 0-.175-.119-.21-.398-.133ZM45.821 61.863c-.056.056-.021.245.042.28.042.02.273.09.518.147.44.111.447.111.503.035.077-.105.07-.21-.021-.259-.112-.063-.797-.238-.916-.238-.056.007-.112.021-.126.035ZM34.96 62.898l.133.147 1.126-.014 1.125-.014.161-.133.154-.133h-1.413l-1.42-.006.134.153ZM38.142 62.836a.617.617 0 0 0-.021.14c0 .041.93.048 4.51.048 3.581 0 4.512-.007 4.512-.049 0-.028-.014-.09-.021-.14l-.022-.09h-8.923l-.035.09ZM47.674 62.891l.16.133 1.162-.007 1.161-.014.098-.126.105-.132-1.42.006h-1.42l.154.14ZM38.023 63.262c-.021.077 0 .077 4.587.077 4.372 0 4.61 0 4.595-.07-.014-.063-.265-.07-4.587-.077-4.546-.007-4.575-.007-4.595.07ZM48.15 63.283c.119.098.133.098.895.098h.776l.091-.098.09-.098h-1.971l.119.098ZM35.33 63.304c.07.077.12.077.854.077.72 0 .79-.007.874-.077l.09-.077h-.943c-.945-.007-.952-.007-.875.077ZM37.862 63.654c-.084.175-.098.245-.098.594v.399h.35v-.595c0-.566-.007-.594-.077-.594-.056 0-.112.063-.175.196ZM38.233 64.052v.595h.356v-1.189h-.356v.594ZM38.708 64.052v.595h.357v-1.189h-.357v.594ZM39.184 64.052v.595h.322v-1.189h-.322v.594ZM39.66 64.052v.595h.314v-1.189h-.315v.594ZM40.093 64.052v.595h.357v-1.189h-.357v.594ZM40.568 64.052v.595h.357v-1.189h-.357v.594ZM41.044 64.052v.595h.356v-1.189h-.356v.594ZM41.52 64.052v.595h.314v-1.189h-.315v.594ZM41.995 64.052v.595h.315v-1.189h-.315v.594ZM42.43 64.052v.595h.356v-1.189h-.357v.594ZM42.904 64.052v.595h.357v-1.189h-.357v.594ZM43.38 64.052v.595h.357v-1.189h-.357v.594ZM43.855 64.052v.595h.315v-1.189h-.315v.594ZM44.331 64.052v.595h.315v-1.189h-.315v.594ZM44.765 64.052v.595h.357v-1.189h-.357v.594ZM45.24 64.052v.595h.357v-1.189h-.356v.594ZM45.716 64.052v.595h.356v-1.189h-.356v.594ZM46.191 64.052v.595h.315v-1.189h-.315v.594ZM46.626 64.052v.595h.356v-1.189h-.356v.594ZM47.1 64.052v.595h.35v-.413c0-.503-.09-.776-.259-.776h-.097v.594h.006ZM37.463 64.235c-.12.16-.16.237-.147.314.014.09.035.098.175.098h.154v-.315c0-.174-.007-.314-.007-.314-.014 0-.091.097-.175.217ZM47.576 64.332v.315h.175c.154 0 .175-.014.175-.084s-.294-.553-.343-.553c0 .007-.007.147-.007.322ZM42.394 65.199c0 .028-1.748.042-5.169.042h-5.161v.476h2.413c2.119 0 2.412.007 2.412.056s-.293.063-2.433.063h-2.434v3.524l-.28.015-.28.014-.252.482-.251.483 5.903-.014.307-.693.308-.692-.245-.014c-.223-.014-.244-.02-.23-.09.02-.078.097-.078 5.874-.078 5.56 0 5.854.007 5.847.07-.007.063-.07.07-.42.084-.223.007-.405.028-.398.049.063.168.65 1.343.685 1.35.021.007 1.357.007 2.959-.007l2.916-.021-.308-.483-.307-.482h-.658v-3.497l-2.399-.007c-1.874-.007-2.405-.021-2.42-.056-.014-.042.476-.05 2.364-.05h2.378v-.475h-5.084c-3.35 0-5.092-.014-5.106-.042-.014-.02-.14-.042-.28-.042s-.251.014-.251.035Z"/><path fill="#fff" d="M39.148 65.773c0 .049-.132.063-.95.063-.82 0-.952-.007-.952-.063 0-.05.133-.056.951-.056.819 0 .951.007.951.056ZM39.73 65.766c-.028.077-.231.084-.231.014 0-.042.042-.063.125-.063.078 0 .12.021.105.049ZM42.394 65.773c0 .049-.147.056-1.154.049-.881-.007-1.161-.021-1.168-.056-.014-.042.238-.049 1.154-.049 1.014 0 1.168.007 1.168.056ZM45.268 65.766c-.014.035-.28.049-1.175.049s-1.16-.014-1.175-.05c-.014-.041.238-.048 1.175-.048.938 0 1.189.007 1.175.049ZM45.835 65.78c0 .042-.035.056-.105.049-.154-.02-.168-.112-.014-.112.077 0 .119.021.119.063ZM48.052 65.773c0 .049-.133.063-.93.063s-.93-.007-.93-.063c0-.05.133-.056.93-.056s.93.007.93.056ZM36.89 67.235c0 .636.014 1.216.028 1.286.028.126.02.126-.12.126h-.146v-2.574h.237v1.162ZM38.876 66.382l.266.307v.888c0 .49.014.93.02.98l.022.09h-1c-.895 0-.994-.006-.973-.062.014-.035.022-.476.022-.98v-.916l.28-.307.279-.309h.797l.287.309ZM39.75 67.36l.014 1.287h-.154c-.14 0-.147-.006-.126-.09.014-.05.022-.63.022-1.287v-1.197h.237l.007 1.288ZM44.982 66.374l.28.308.02.98.021.985h-1.608v-1.944h-2.099v1.944h-1.56l.022-.986.02-.979.273-.308.273-.3h4.078l.28.3ZM45.835 67.27c0 .657.014 1.237.02 1.286.022.085.008.091-.125.091h-.154l.014-1.286.014-1.288h.238v1.197h-.007ZM47.765 66.388l.287.308v1.945H46.15l.021-.091c.014-.05.02-.49.02-.98v-.895l.28-.307.28-.308h.728l.286.328ZM48.724 67.36v1.287h-.357v-2.574h.357v1.288ZM33.4 66.528c.014.19-.028.217-.35.217-.314 0-.357-.028-.357-.224v-.175l.343.014.35.014.014.154ZM34.707 66.528c.014.19-.028.217-.37.217-.308 0-.378-.028-.378-.161 0-.231.021-.238.392-.231l.342.015.014.16ZM35.904 66.521c0 .105-.021.182-.05.19a1.78 1.78 0 0 1-.545.006c-.112-.02-.119-.035-.119-.203v-.175h.714v.182ZM49.99 66.521c0 .105-.022.182-.05.19a1.78 1.78 0 0 1-.545.006c-.112-.02-.12-.035-.12-.203v-.175h.714v.182ZM51.29 66.535a.586.586 0 0 1 0 .168c-.007 0-.105.014-.217.02a1.464 1.464 0 0 1-.35 0c-.132-.027-.14-.027-.14-.202v-.175l.35.014.343.014.014.161ZM52.514 66.507c.014.182-.07.238-.343.238-.35 0-.398-.021-.398-.196 0-.077.013-.161.028-.175.014-.014.181-.021.363-.014l.336.014.014.133Z"/><path fill="#fff" d="M43.618 67.731c0 .881 0 .91-.077.91s-.077-.029-.077-.854v-.853h-1.609l.015.853c.014.833.006.854-.07.854-.078 0-.085-.021-.085-.91v-.909h1.903v.91Z"/><path fill="#009" d="M38.219 68.948c-.133.133-.112.133 4.49.133 4.098 0 4.511-.007 4.49-.063a.322.322 0 0 1-.021-.077c0-.028-8.931-.02-8.96.007ZM38.065 69.305c-.014.063.217.07 4.63.055 3.678-.006 4.644-.02 4.63-.055-.015-.042-1-.05-4.63-.056-4.365-.007-4.61-.007-4.63.056ZM37.946 69.612c-.021.057.524.057 4.763.057 4.238 0 4.783-.008 4.762-.056-.02-.056-.58-.063-4.762-.063-4.183.007-4.742.014-4.763.063ZM37.827 69.9a.104.104 0 0 0-.028.062c0 .021 2.21.035 4.91.035 3.91 0 4.91-.007 4.896-.049-.015-.042-1.035-.049-4.89-.056-2.67-.014-4.874-.007-4.888.007ZM37.673 70.228c-.02.077 0 .077 5.042.077 2.784 0 5.064-.014 5.064-.035 0-.126-.077-.126-5.091-.126-4.966.007-5.001.007-5.015.084ZM30.637 70.585a.59.59 0 0 0 .091.174l.091.14h23.807l.098-.146a.824.824 0 0 0 .098-.175c0-.014-5.441-.029-12.093-.029-8.148-.006-12.092.008-12.092.035ZM30.93 71.13l.092.147 11.7.007 11.701.007.077-.112a1.4 1.4 0 0 0 .105-.16c.021-.043-2.364-.05-11.868-.05H30.832l.098.161ZM35.938 71.389c0 .007.084.063.182.12l.182.104h12.827l.434-.224h-6.82a622.374 622.374 0 0 0-6.805 0Z"/><path fill="#004D00" d="M40.156 72.284c-.07.028-.07.035-.007.056.056.021.07.077.07.308 0 .252-.007.287-.091.315-.07.028-.035.035.147.035.181 0 .216-.007.146-.035-.083-.035-.09-.056-.09-.37 0-.358-.007-.371-.175-.309ZM41.687 72.291c-.07.07-.056.224.035.273.078.042.078.042-.027.133-.12.105-.105.203.048.259.147.056.301.048.406-.021.119-.084.112-.19-.02-.28l-.106-.077.084-.05c.133-.07.091-.279-.056-.279-.042 0-.042.014.007.063.056.056.056.077.007.147-.077.119-.126.126-.245.014-.098-.084-.105-.098-.042-.16.05-.05.056-.07.014-.07a.24.24 0 0 0-.105.048Z"/><path fill="#fff" d="M42.002 72.71c.126.07.147.19.049.225-.231.09-.426-.078-.273-.231.077-.077.077-.077.224.007Z"/><path fill="#004D00" d="M43.457 72.235c-.308.112-.23.49.098.483h.118l-.125-.056c-.175-.077-.224-.238-.112-.357.084-.084.16-.077.252.014.077.077.111.315.042.315-.021 0-.028.02-.021.056.028.07-.245.259-.385.266-.056 0-.07.014-.035.02a.68.68 0 0 0 .238-.027c.412-.112.546-.581.189-.706-.12-.035-.161-.043-.259-.008ZM44.996 72.284c-.105.063-.084.119.027.063.112-.063.287-.035.315.042.028.063-.077.175-.168.175-.035 0-.007.028.063.056.273.119.189.315-.133.3-.112-.007-.174.007-.16.036.056.09.468.02.538-.091.056-.084.035-.224-.049-.273-.07-.042-.07-.05-.014-.12.098-.11.021-.209-.188-.216a.525.525 0 0 0-.231.028Z"/></g><defs><filter id="a" width="154" height="157" x="0" y="0" color-interpolation-filters="sRGB" filterUnits="userSpaceOnUse"><feFlood flood-opacity="0" result="BackgroundImageFix"/><feColorMatrix in="SourceAlpha" result="hardAlpha" values="0 0 0 0 0 0 0 0 0 0 0 0 0 0 0 0 0 0 127 0"/><feOffset dy="16"/><feGaussianBlur stdDeviation="6.5"/><feColorMatrix values="0 0 0 0 0 0 0 0 0 0 0 0 0 0 0 0 0 0 0.03 0"/><feBlend in2="BackgroundImageFix" result="effect1_dropShadow_185_49"/><feBlend in="SourceGraphic" in2="effect1_dropShadow_185_49" result="shape"/></filter></defs></svg>