<svg xmlns="http://www.w3.org/2000/svg" xml:space="preserve" style="fill-rule:evenodd;clip-rule:evenodd;stroke-linejoin:round;stroke-miterlimit:2" viewBox="0 0 157 157"><path d="M0-18.774c-15.313 0-30.177 2.902-43.971 8.445L-39.372 0C-27.187-4.861-13.901-7.538 0-7.538S27.187-4.861 39.372 0l4.599-10.329C30.181-15.872 15.313-18.774 0-18.774" style="fill:#f28d01;fill-rule:nonzero" transform="matrix(.47822 0 0 .47822 78.5 66.484)"/><path d="M0-50.253c-12.184-4.861-25.471-7.538-39.372-7.538-13.9 0-27.187 2.677-39.371 7.538l-4.599-10.329c13.794-5.543 28.658-8.445 43.97-8.445 15.313 0 30.182 2.902 43.972 8.445L0-50.253Zm2.196 7.545v40.265c0 11.7-9.515 21.217-21.213 21.217a21.126 21.126 0 0 1-14.182-5.454 23.485 23.485 0 0 0 10.74-6.398 9.901 9.901 0 0 0 3.442.614c5.5 0 9.975-4.477 9.975-9.979v-40.265H2.196Zm-41.568 54.61c-11.696 0-21.213-9.518-21.213-21.217v-33.393h11.239v33.393c0 5.502 4.474 9.978 9.974 9.978s9.975-4.476 9.975-9.978v-33.393h11.239v33.393c0 11.699-9.517 21.217-21.214 21.217m-20.355 6.872c-11.697 0-21.213-9.517-21.213-21.217v-40.265h11.239v40.265c0 5.502 4.474 9.979 9.974 9.979 1.21 0 2.37-.217 3.443-.614a23.48 23.48 0 0 0 10.74 6.398 21.127 21.127 0 0 1-14.183 5.454m20.355-105.811c-34.191 0-61.91 27.719-61.91 61.91 0 34.193 27.719 61.911 61.91 61.911 34.192 0 61.911-27.718 61.911-61.911 0-34.191-27.719-61.91-61.911-61.91" style="fill:#004890;fill-rule:nonzero" transform="matrix(.47822 0 0 .47822 97.328 90.516)"/><path d="M0 141.251c-9.175 9.174-19.856 16.376-31.749 21.407-12.311 5.207-25.391 7.847-38.876 7.847-13.486 0-26.566-2.64-38.876-7.847-11.894-5.031-22.576-12.233-31.75-21.407s-16.376-19.856-21.407-31.749c-5.207-12.311-7.847-25.391-7.847-38.876 0-13.486 2.64-26.566 7.847-38.876 5.031-11.894 12.233-22.575 21.407-31.749 9.174-9.175 19.856-16.377 31.75-21.408 12.31-5.206 25.39-7.846 38.876-7.846 13.485 0 26.565 2.64 38.876 7.846C-19.856-16.376-9.175-9.174 0 .001 9.174 9.175 16.377 19.856 21.407 31.75c5.207 12.31 7.847 25.39 7.847 38.876 0 13.485-2.64 26.565-7.847 38.876C16.377 121.395 9.174 132.077 0 141.251M-70.625-33.928c-57.744 0-104.554 46.81-104.554 104.554 0 57.743 46.81 104.553 104.554 104.553 57.743 0 104.553-46.81 104.553-104.553 0-57.744-46.81-104.554-104.553-104.554" style="fill:#004890;fill-rule:nonzero" transform="matrix(.47822 0 0 .47822 112.275 44.725)"/><path d="M0-2.504c-.289-.34-.654-.47-1.094-.402-.762.116-1.533.193-2.285.355-.709.153-1.398.395-2.092.597-.093.109-.202.186-.235.287-.075.231.288 1.163.493 1.287.786.472 1.619.85 2.549.839C-1.368.444-.099.202 1.142-.166c.42-.124.49-.398.205-.746C.907-1.45.45-1.974 0-2.504" style="fill:#004890;fill-rule:nonzero" transform="matrix(.47822 0 0 .47822 47.751 104.195)"/><path d="m0 .448-1.193-.953-.091.053c.13.311.249.627.392.932.186.396.447.473.84.274C.104.675.166.58 0 .448" style="fill:#004890;fill-rule:nonzero" transform="matrix(.47822 0 0 .47822 108.935 97.334)"/><path d="M0-2.472c-.205-.046-.465-.046-.647.042-.534.256-1.053.548-1.552.866-.28.179-.338.47-.177.787.099.196.189.399.265.606.063.171.156.221.327.153.972-.385 1.957-.74 2.913-1.161.629-.276 1.121-.761 1.556-1.343-.128.009-.257.014-.384.028-.766.084-1.529.197-2.301.022" style="fill:#004890;fill-rule:nonzero" transform="matrix(.47822 0 0 .47822 63.107 115.616)"/><path d="M0-.942c-.405-.286-.808-.574-1.211-.864-.609-.437-1.268-.611-1.998-.367-.406.135-.805.294-1.16.425-.497.33-.945.63-1.395.928-.139.093-.215.186-.065.34.616.63 1.223 1.267 1.845 1.89.053.053.24.065.288.018.588-.583 1.351-.811 2.1-1.071.52-.18 1.051-.339 1.55-.566C.387-.407.382-.672 0-.942" style="fill:#004890;fill-rule:nonzero" transform="matrix(.47822 0 0 .47822 45.746 101.549)"/><path d="m0-9.538-.244-2.945 6.161-.51 8.034-6.064.286 3.465-5.507 3.924 6.072 2.896.281 3.405-8.942-4.679L0-9.538Zm3.998 58.641c-.995.516-1.81 1.268-2.653 1.986-.561.477-1.316.848-1.839.865.318-.473.632-.95.956-1.418.372-.538.739-1.079 1.135-1.598.286-.375.278-.74.081-1.135a6.595 6.595 0 0 0-1.471-1.956 45.312 45.312 0 0 0-2.084-1.757c-.359-.287-.451-.256-.587.197a97.063 97.063 0 0 0-.842 2.995c-.18.678-.351 1.36-.486 2.049-.173.887-1.631 1.766-2.516 1.724-.295-.015-.43-.393-.249-.723.2-.364.476-.698.616-1.082.425-1.17.803-2.357 1.195-3.539.243-.732.48-1.467.71-2.203.126-.401.065-.488-.354-.466-.442.022-.882.08-1.372.128.026-.179.062-.339.069-.5.006-.135.016-.299-.051-.397-.061-.09-.225-.109-.344-.16-.022.097-.077.199-.062.289.146.888.319 1.772.453 2.663.057.378.049.769.052 1.154.003.316-.155.527-.473.593-.28.057-.562.117-.845.154a.593.593 0 0 1-.642-.335c-.414-.852-.806-1.713-1.234-2.631.287-.028.516-.053.746-.072.573-.047.764-.214.781-.793a18.97 18.97 0 0 0-.035-1.72c-.068-1.08.709-1.827 1.581-2.058.339-.09.492-.02.655.287.192.36.166.719.012 1.087-.067.161-.135.333-.149.503-.013.18.098.255.269.142.091-.06.175-.129.262-.195.354-.267.723-.203 1.099-.056.367.143.386.128.541-.237.248-.582.491-1.166.757-1.74.203-.439.588-.695 1.022-.855.541-.199 1.195.336 1.24.988.025.364-.119.671-.303.974-.32.523-.617 1.06-.935 1.583-.143.237-.071.366.15.496.971.572 1.948 1.136 2.896 1.743 1.188.763 2.103 1.769 2.503 3.16.101.348.152.715.181 1.077a.787.787 0 0 1-.436.789m-14.227-1.821c-.428.968-1.263 1.582-2.164 2.087-.181.102-.435.075-.656.107.013-.197-.008-.404.045-.59.253-.894.527-1.783.79-2.674.052-.177.086-.36.144-.603-.358.095-.644.168-.927.248-.42.118-.821.048-1.218-.104a534.591 534.591 0 0 0-3.456-1.326c-.176-.067-.215-.157-.114-.31.168-.257.332-.516.51-.766.602-.847 2.326-.871 2.892.01.325.508.739.944 1.334 1.124.374.113.77.158 1.158.212.074.01.207-.06.235-.126.149-.361.274-.733.433-1.174-.242.048-.424.07-.597.123-.784.234-1.475.112-2.152-.384-1.149-.841-2.347-1.615-3.663-2.183-.815-.351-1.638-.686-2.452-1.042-.333-.145-.34-.213-.1-.488.187-.216.364-.45.584-.627.417-.333.92-.452 1.429-.315.511.137 1.048.283 1.487.561.899.571 1.737 1.235 2.605 1.856.482.344.961.698 1.468 1.004.218.132.504.157.76.222.257.064.516.124.777.171.073.013.208 0 .227-.042.149-.316.275-.642.411-.973-.092-.027-.121-.045-.148-.043-1.238.106-2.369-.296-3.455-.801-.49-.228-.913-.613-1.339-.961-.223-.181-.174-.395.099-.503a7.209 7.209 0 0 1 1.1-.349c.701-.152 1.238.131 1.627.71.221.327.418.671.643.996.211.305.509.416.915.321-.03-.095-.044-.18-.082-.252-.481-.916-1.122-1.653-2.095-2.095-.553-.251-1.091-.428-1.705-.403-.494.021-.947-.124-1.325-.487-.312-.3-.572-.29-.939-.053-.177.115-.361.22-.6.366-.026-.255-.054-.429-.06-.603-.024-.755-.329-1.317-1.031-1.666-.531-.264-1.034-.584-1.705-.589.051-.107.077-.185.121-.252.18-.273.384-.531.541-.817.182-.33.44-.434.788-.354.297.068.603.118.884.226.228.089.428.089.62-.037.272-.179.525-.385.797-.565.361-.24.494-.187.591.236.038.163.052.332.061.5.037.655.317 1.225.66 1.758.093.143.338.205.527.261.101.032.234-.017.347-.047.785-.206 1.498-.029 2.069.512.938.888 1.827 1.829 2.737 2.747.061.061.124.12.235.227.179-.375.359-.701.494-1.045.161-.412.301-.834.416-1.261.06-.231-.013-.454-.256-.577-.237-.118-.403.016-.553.163-.238.234-.466.481-.722.747-.04-.084-.062-.17-.115-.23-.119-.136-.239-.351-.383-.371-.924-.127-1.519-.756-2.14-1.345a.924.924 0 0 0-.868-.256c-.358.069-.718.127-1.112.197-.071-1.272.733-1.621 1.828-1.716-.117-.115-.155-.173-.21-.204-.567-.321-1.138-.636-1.706-.957-.252-.143-.503-.137-.771-.049-.215.07-.439.12-.661.155-.189.03-.277-.1-.205-.255.353-.758.745-1.499 1.544-1.886.439-.214.877-.119 1.268.143 1.916 1.282 3.829 2.568 5.737 3.86.497.336.494.354.798-.153.383-.636.749-1.282 1.131-1.918.448-.745 1.141-1.108 1.979-1.207a14.15 14.15 0 0 1 1.302-.081c.774-.022 1.24.575 1.043 1.335-.104.4-.328.731-.71.906-.375.172-.594.467-.798.804a23.762 23.762 0 0 1-.991 1.516c-.161.225-.399.395-.637.569-.019-.835.454-1.58.403-2.401a2.52 2.52 0 0 0-.092-.037c-.067.101-.145.195-.2.302-.518 1.012-1.027 2.027-1.547 3.037-.343.668-.729 1.315-1.045 1.996-.909 1.958-1.695 3.961-2.207 6.067-.179.737-.376 1.482-.682 2.171m-.417 6.671c-.059.362-.248.48-.611.465-.624-.026-1.127-.318-1.298-.907-.295-1.022-.493-2.073-.729-3.112-.013-.054.001-.115.005-.212.635-.019 1.259-.161 1.886.001.418.108.66.424.737.816.194.978.173 1.967.01 2.949m-63.831 5.551c-17.168 0-33.308-6.686-45.447-18.825-12.14-12.14-18.826-28.28-18.826-45.448 0-17.167 6.686-33.308 18.826-45.447 12.139-12.14 28.279-18.825 45.447-18.825 17.167 0 33.308 6.685 45.448 18.825 12.139 12.139 18.825 28.28 18.825 45.447 0 17.168-6.686 33.308-18.825 45.448-12.14 12.139-28.281 18.825-45.448 18.825m38.302 19.259c-.087.173-.413.296-.638.312a2.06 2.06 0 0 1-.896-.152c-.499-.204-.963-.492-1.458-.71a25.706 25.706 0 0 0-1.869-.747c-.473-.164-.865-.375-1.034-.883a.514.514 0 0 0-.243-.253c-1.431-.739-2.859-1.484-4.305-2.193-.681-.333-1.399-.591-2.099-.883-.041-.016-.092-.019-.124-.044-.09-.073-.173-.154-.259-.231.097-.076.189-.163.295-.222.064-.036.151-.029.227-.041 2.049-.034 4.098-.421 6.148-.125 1.717.248 3.354.778 4.832 1.717.811.516 1.491 1.166 1.755 2.119.224.81.036 1.605-.332 2.336m-15.955.098c-.867 1.456-1.997 2.695-3.284 3.789-.824.701-1.823 1.074-2.848 1.356-.52.143-1.059.026-1.551-.2-.428-.196-.463-.449-.126-.789.138-.14.3-.259.462-.374 2.229-1.585 4.028-3.567 5.43-5.908.739-1.233 1.092-2.595 1.279-4.006.007-.053-.002-.107-.005-.272-.351.147-.662.233-.925.395-.959.589-1.924 1.173-2.842 1.821-.461.325-.827.785-1.231 1.188-.1.101-.176.227-.272.334-.682.765-1.211.879-2.099.385a46.344 46.344 0 0 1-2.415-1.443c-.719-.46-.686-.641.038-1.097 2.62-1.647 5.467-2.823 8.299-4.03.466-.199.954-.347 1.425-.535.285-.114.468-.321.489-.648.108-1.657.147-3.318-.278-4.934a13.463 13.463 0 0 0-1.508-3.583c-.046-.075-.097-.147-.141-.224-.186-.333-.144-.423.191-.624.738-.443 1.511-.509 2.328-.276.783.223 1.524.525 2.146 1.07.4.351.561.758.532 1.312a200.743 200.743 0 0 0-.198 5.648c-.012.497.071.514.523.296 1.122-.539 2.222-1.14 3.38-1.587 1.517-.586 3.1-.956 4.735-1.062 1.165-.075 2.008.849 2.418 1.792.116.268.153.573.218.863.065.291-.078.444-.355.478-.219.027-.441.027-.661.046-.658.055-1.323.076-1.973.179-1.31.209-2.617.434-3.914.71-1.201.255-2.35.686-3.461 1.214-.694.329-1.081.829-1.265 1.608-.58 2.46-1.229 4.907-2.541 7.108m-35.46-11.436c-.624 1.578-1.271 3.15-1.821 4.754a139.234 139.234 0 0 0-2.01 6.341c-.517 1.778-.937 3.584-1.376 5.383-.125.511-.121 1.055-.26 1.56-.148.535-.322 1.087-.615 1.55-.468.739-1.499.814-1.945.074-.956-1.584-2.349-2.811-3.373-4.33-.18-.267-.329-.554-.492-.832l.073-.058 2.087 1.256c.359.217.713.442 1.075.654.46.269.659.213.815-.291.172-.557.286-1.132.435-1.697.372-1.408.786-2.805 1.114-4.222.391-1.689 1.146-3.244 1.703-4.871a430.879 430.879 0 0 0 1.856-5.521c.08-.245.036-.53.05-.796-.275.007-.571-.047-.823.033-.747.236-1.473.537-2.216.788a4.91 4.91 0 0 1-1.027.239c-.406.044-.618-.11-.761-.494-.173-.464-.369-.926-.477-1.407-.146-.65.186-1.113.838-1.093 1.474.045 2.864-.343 4.265-.7 1.088-.278 2.029-.024 2.719.883.668.88.548 1.831.166 2.797m-21.43-10.516c.283-.728.606-.883 1.365-.676.701.191 1.216.621 1.574 1.234.437.747.654 1.569.705 2.428.043.716-.335 1.021-1.03.873-.464-.098-.929-.191-1.392-.295-.338-.076-.557-.283-.686-.609-.15-.38-.328-.748-.491-1.122-.264-.605-.293-1.216-.045-1.833m-5.986 10.259a.563.563 0 0 1-.17-.201c-.333-.781-.398-1.599-.249-2.423.06-.333.502-.552.887-.466.329.072.673.173.95.354a3.489 3.489 0 0 1 1.482 2.042c.176.648-.069 1.238-.489 1.715-.471.534-1.007 1.013-1.527 1.504-.312.294-.646.566-.973.845-.078.067-.167.12-.252.18a2.655 2.655 0 0 0-.077-.073c.137-.358.277-.714.411-1.073.124-.331.255-.659.36-.995.167-.535.113-1.025-.353-1.409m7.877 14.355c-.039.008-.081.005-.181.01.368-.428.712-.808 1.032-1.209 1.025-1.282 2.116-2.52 3.036-3.874.784-1.153 1.377-2.437 2.036-3.673.556-1.041 1.078-2.1 1.629-3.144.53-1.003.606-2.061.41-3.152-.076-.418-.223-.527-.651-.466-1.191.17-2.382.349-3.568.552-.588.101-.984.481-1.215 1.022-.134.314-.054.421.278.361.564-.102 1.13-.209 1.683-.357.649-.174 1.223-.148 1.678.42.459.572.571 1.332.176 1.945a7.217 7.217 0 0 1-1.104 1.302c-.597.567-1.179 1.117-1.422 1.949-.127.437-.477.678-.954.684-.276.004-.554-.024-.827.005-.721.078-1.441.176-2.16.272-.447.059-.894.121-1.338.196-.271.045-.534.14-.805.17-.22.023-.478.047-.663-.043-.956-.462-1.44-1.264-1.561-2.302-.021-.185-.038-.375-.093-.551-.07-.218-.226-.254-.359-.06a7.748 7.748 0 0 0-.507.85c-.641 1.271-1.258 2.553-1.91 3.819a29.07 29.07 0 0 1-1.175 2.07c-.305.488-.736.851-1.336.951-.666.111-1.324-.205-1.552-.747-.29-.692-.118-1.371.493-1.784a4.346 4.346 0 0 0 1.226-1.232c.751-1.143 1.77-2.05 2.714-3.022.469-.482.973-.932 1.418-1.435.376-.425.675-.918 1.035-1.358.16-.193.365-.396.592-.478.407-.148.629.018.728.436.104.44.305.606.753.557.793-.088 1.437-.391 1.75-1.204.104-.271.315-.5.475-.75.134-.209.263-.422.394-.633a4.336 4.336 0 0 0-.052-.093l-.562.058c-.975.099-1.949.243-2.926.285-.807.035-1.199-.391-1.207-1.195-.005-.404.054-.811.093-1.215.034-.354.254-.563.585-.632a5.34 5.34 0 0 1 .82-.087c1.488-.081 2.976-.147 4.463-.237.672-.041 1.16-.395 1.459-.995.574-1.15.882-2.346.68-3.647-.139-.895.096-1.679.783-2.309.507-.466 1.19-.529 1.705-.077.346.302.661.652.936 1.021.434.582.519 1.248.228 1.914-.256.584-.58 1.138-.868 1.709-.242.479-.192.628.294.846.231.103.471.202.717.258.676.155 1.105.589 1.361 1.199.247.588.603 1.093 1.007 1.584.375.458.664.987.99 1.485.163.249.322.501.489.747.189.276.431.349.743.195.207-.102.43-.173.645-.261.263-.107.495-.066.698.138.334.336.685.658.999 1.013.165.185.3.414.389.647.233.61.08 1.119-.469 1.463-.419.263-.88.459-1.323.682-.621.312-1.255.6-1.86.941-.358.201-.347.304-.043.595.382.367.794.704 1.156 1.088.393.417.573.904.347 1.489-.196.505-1.118.86-1.596.601-.958-.52-1.57-1.335-2.008-2.305-.207-.457-.028-.81.299-1.125.65-.628 1.308-1.249 1.948-1.888.233-.232.429-.503.629-.765.214-.281.168-.556-.056-.812l-.113-.121c-.453-.473-.552-.48-.906.079-.921 1.451-1.789 2.936-2.737 4.368-.998 1.506-2.009 3.009-3.117 4.433-1.202 1.547-2.863 2.424-4.775 2.829m-23.07-36.089c-.174.132-.295.011-.384-.122-.403-.606-.81-1.211-1.195-1.829-.449-.721-.863-1.463-1.316-2.18-.407-.644-.847-1.267-1.275-1.897-.059-.086-.136-.159-.205-.239l-.128.049c.051.262.078.531.155.786.244.814.198 1.606-.08 2.405-.263.752-.745 1.282-1.449 1.64-.421.215-.413.294-.117.668 1.03 1.3 2.023 2.625 2.659 4.176.129.316.242.642.329.972.307 1.162-.003 1.999-1.371 2.491-.57.204-1.203.284-1.813.313-1.094.052-2.182-.058-3.238-.393-.903-.287-1.81-.561-2.713-.846-.423-.133-.493-.081-.439.363.071.58-.067 1.099-.471 1.527-.332.351-.657.357-1.011.033-.462-.423-.863-.898-1.031-1.514-.294-1.075-.86-2.014-1.483-2.911-1.038-1.495-2.092-2.984-3.214-4.417-.786-1.005-1.684-1.925-2.562-2.855-.235-.249-.56-.434-.875-.58-.595-.275-.923-.718-1.047-1.352a4.157 4.157 0 0 1 .127-2.127 14.98 14.98 0 0 1 2.736-4.955c.662-.792 1.516-1.308 2.517-1.563.428-.109.503-.032.496.419-.016.971-.234 1.905-.528 2.823-.151.475-.425.876-.86 1.139-.613.369-1.048.901-1.424 1.494-.213.336-.424.672-.648 1-.131.192-.13.351.023.535.367.442.708.904 1.079 1.341.391.459.54.443.909.028.482-.543 1.022-1.034 1.512-1.57.218-.239.424-.513.549-.808.323-.762.585-1.549.899-2.315.091-.222.275-.406.417-.608.19.155.398.293.566.47.182.19.33.413.484.628.155.217.338.206.506.047.685-.649 1.508-1.066 2.358-1.445.493-.219 1.001-.339 1.541-.306.493.031.656.227.568.706-.192 1.055-.504 2.06-1.245 2.879-.088.098-.162.21-.233.321-.272.428-.272.602.092.954.816.79 1.646 1.566 2.477 2.34.372.346.782.408 1.244.156.795-.433 1.609-.827 2.2-1.553.349-.429.512-.927.591-1.454.021-.139-.054-.335-.152-.446-1.242-1.406-2.499-2.797-3.744-4.2a2.266 2.266 0 0 0-1.29-.746c-.729-.151-.763-.207-.85-.955-.151-1.297.776-2.311 2.102-2.3.446.004 1.04.506 1.108.995.082.599.387 1.055.769 1.504 1.56 1.83 3.122 3.66 4.632 5.531a51.433 51.433 0 0 1 2.54 3.472c.532.785.976 1.632 1.073 2.611.088.891-.134 1.114-.867 1.67M-163.77-9.343l8.77.844-4.849-3.267.252-2.622 5.383-2.282-8.771-.844.261-2.724 14.618 1.406-.261 2.724-7.957 3.358 7.172 4.813-.262 2.724-14.617-1.406.261-2.724Zm5.156-25.927 2.385.7-2.233 7.604 3.124.918 2.078-7.076 2.374.697-2.077 7.076 3.836 1.126 2.311-7.874 2.375.697-3.147 10.72-14.094-4.138 3.068-10.45Zm3-6.348c.05-.866.327-1.805.83-2.816.822-1.65 1.802-2.712 2.94-3.187 1.139-.474 2.323-.431 3.552.128l-1.205 2.714c-.732-.223-1.34-.221-1.821.005-.482.227-.91.714-1.282 1.461-.384.772-.526 1.455-.426 2.048.063.383.265.659.606.829.312.154.643.155.995.002.448-.195 1.146-.862 2.093-2.002.948-1.14 1.739-1.938 2.373-2.395a4.116 4.116 0 0 1 2.06-.788c.739-.069 1.524.104 2.356.518a4.323 4.323 0 0 1 1.804 1.681c.449.746.644 1.581.583 2.506-.062.925-.376 1.958-.945 3.1-.827 1.663-1.847 2.748-3.059 3.257-1.211.508-2.596.483-4.153-.076l1.034-2.708c.945.276 1.738.278 2.382.005.644-.273 1.166-.813 1.567-1.621.426-.855.566-1.589.42-2.203-.146-.613-.462-1.041-.946-1.282a1.334 1.334 0 0 0-.93-.121c-.309.073-.657.297-1.045.671-.262.258-.807.871-1.632 1.84-1.061 1.248-1.992 2.031-2.791 2.349-1.126.448-2.209.412-3.249-.106a3.77 3.77 0 0 1-1.596-1.504c-.394-.671-.566-1.439-.515-2.305m12.358-20.41 2.008 1.464-2.56 3.514 9.865 7.185-1.746 2.397-9.865-7.185-2.566 3.524-2.008-1.464 6.872-9.435Zm4.73-4.822 8.52 8.583 5.234-5.195 1.743 1.756-7.339 7.285-10.262-10.34 2.104-2.089Zm14.321-12.118 13.213 8.704-2.65 1.842-2.957-2.008-4.821 3.351.909 3.432-2.583 1.796-3.686-15.327 2.575-1.79Zm10.895-6.289 2.643 5.962 2.834-8.391 3.645-1.617-2.736 7.472 8.965 5.834-3.508 1.556-6.485-4.665-1.204 3.218 1.8 4.058-2.712 1.202-5.953-13.428 2.711-1.201Zm23.471-7.668.575 2.417-7.71 1.835.755 3.168 7.173-1.708.573 2.408-7.173 1.708.925 3.889 7.983-1.9.574 2.407-10.869 2.587-3.402-14.289 10.596-2.522Zm17.079 6.492.725-7.801 2.953.274-.736 7.922c-.117 1.256-.156 2.075-.118 2.454.072.61.328 1.119.77 1.525.441.407 1.075.648 1.899.725.838.078 1.486-.035 1.944-.337.457-.304.753-.7.885-1.191.133-.491.253-1.315.361-2.472l.752-8.091 2.953.274-.714 7.682c-.164 1.756-.359 2.989-.586 3.699-.226.71-.577 1.294-1.053 1.754-.475.459-1.086.803-1.832 1.032-.746.229-1.697.29-2.854.183-1.397-.13-2.442-.39-3.133-.779-.691-.39-1.223-.862-1.594-1.416-.371-.555-.597-1.121-.677-1.699-.116-.856-.097-2.102.055-3.738m17.601-5.74 2.77.806 3.034 11.098 2.739-9.419 2.645.77-4.101 14.104-2.858-.831-3.01-10.851-2.675 9.197-2.646-.77 4.102-14.104Zm18.071 6.273-5.927 13.44-2.714-1.197 5.928-13.44 2.713 1.197Zm5.326 2.609-2.398 11.235 8.673-7.477 2.699 1.617-12.061 9.898-2.716-1.627 3.044-15.299 2.759 1.653Zm19.946 14.655-1.628 1.878-5.989-5.191-2.132 2.46 5.571 4.83-1.62 1.871-5.573-4.831-2.619 3.021 6.202 5.375-1.622 1.87-8.442-7.318 9.621-11.098 8.231 7.133Zm7.295 8.355c.982 1.226 1.591 2.199 1.831 2.919.238.72.228 1.458-.032 2.213-.259.756-.728 1.404-1.406 1.947-.86.689-1.773 1.005-2.739.948-.965-.057-1.924-.531-2.875-1.42.108.735.118 1.405.03 2.01-.089.605-.357 1.542-.807 2.808l-1.116 3.191-2.217-2.769 1.156-3.671c.416-1.308.652-2.165.709-2.569.056-.405.029-.765-.08-1.078-.111-.315-.379-.738-.804-1.269l-.376-.47-4.787 3.833-1.854-2.316 11.467-9.18 3.9 4.873Zm4.883 9.785c.775.065 1.501.369 2.179.911.678.542 1.284 1.31 1.818 2.305.872 1.624 1.173 3.038.902 4.241-.272 1.203-.99 2.145-2.157 2.824l-1.518-2.551c.605-.469.954-.965 1.048-1.489.094-.525-.057-1.155-.452-1.89-.408-.759-.883-1.27-1.425-1.532a1.07 1.07 0 0 0-1.027.017c-.305.164-.498.434-.577.81-.099.478.042 1.433.425 2.865.383 1.432.577 2.54.584 3.321a4.132 4.132 0 0 1-.548 2.136c-.371.643-.966 1.184-1.783 1.624a4.332 4.332 0 0 1-2.415.501c-.869-.065-1.663-.389-2.382-.973-.72-.584-1.381-1.438-1.985-2.562-.878-1.636-1.175-3.096-.89-4.378.285-1.284 1.107-2.399 2.462-3.347l1.612 2.409c-.771.612-1.23 1.258-1.379 1.942-.149.682-.01 1.421.417 2.215.451.842.969 1.38 1.554 1.616.586.235 1.116.225 1.594-.031.306-.165.518-.395.637-.689.118-.295.136-.709.054-1.241-.057-.364-.244-1.162-.558-2.396-.405-1.587-.506-2.799-.304-3.636.285-1.176.94-2.04 1.964-2.589a3.772 3.772 0 0 1 2.15-.433M9.41-35.487l-13.705 5.286-1.066-2.767 13.704-5.286 1.067 2.767Zm4.076 14.174-2.406.616-1.079-4.212-11.822 3.026-.736-2.873 11.823-3.026-1.081-4.223 2.407-.616 2.894 11.308Zm-87.963-79.928c-53.28 0-96.472 43.192-96.472 96.472 0 53.28 43.192 96.472 96.472 96.472 53.28 0 96.472-43.192 96.472-96.472 0-53.28-43.192-96.472-96.472-96.472" style="fill:#004890;fill-rule:nonzero" transform="matrix(.47822 0 0 .47822 114.117 80.78)"/><path d="M0 5.722c.314.201.649.288 1.005.261.353-.028.703-.179 1.048-.455.385-.308.615-.661.687-1.057.073-.395-.011-.807-.249-1.232-.124-.208-.561-.782-1.312-1.721L-.269-.288l-2.909 2.329 1.371 1.713C-.917 4.865-.315 5.52 0 5.722" style="fill:#004890;fill-rule:nonzero" transform="matrix(.47822 0 0 .47822 110.177 51.61)"/><path d="m0 1.034-4.773-3.321 1.482 5.608L0 1.034Z" style="fill:#004890;fill-rule:nonzero" transform="matrix(.47822 0 0 .47822 57.307 45.893)"/></svg>