<svg xmlns="http://www.w3.org/2000/svg" width="154" height="157" fill="none"><g filter="url(#a)"><path fill="#fff" d="M13 0h128v128H13z"/><path fill="#333372" fill-rule="evenodd" d="M37.22 53.874v.002c2.822 0 5.377 1.133 7.227 2.965A10.045 10.045 0 0 1 47.44 64h.002-.002c0 2.796-1.144 5.327-2.993 7.16a10.239 10.239 0 0 1-7.226 2.964v.001a10.237 10.237 0 0 1-7.226-2.966A10.044 10.044 0 0 1 27.001 64H27h.001c0-2.796 1.144-5.328 2.994-7.16a10.238 10.238 0 0 1 7.226-2.964v-.002Zm0 .581v.002-.002a9.657 9.657 0 0 0-6.816 2.797A9.468 9.468 0 0 0 27.581 64h.001-.001a9.47 9.47 0 0 0 2.823 6.748 9.657 9.657 0 0 0 6.817 2.796 9.657 9.657 0 0 0 6.816-2.796A9.47 9.47 0 0 0 46.861 64h-.001c0-2.635-1.078-5.02-2.823-6.748a9.657 9.657 0 0 0-6.816-2.797Z" clip-rule="evenodd"/><path fill="#005C3F" fill-rule="evenodd" d="M37.22 54.154c5.49 0 9.942 4.409 9.942 9.846s-4.452 9.846-9.941 9.846c-5.49 0-9.942-4.409-9.942-9.846s4.452-9.846 9.942-9.846Z" clip-rule="evenodd"/><path fill="#fff" fill-rule="evenodd" d="M37.22 54.07c2.768 0 5.275 1.112 7.089 2.91A9.852 9.852 0 0 1 47.245 64a9.85 9.85 0 0 1-2.936 7.02 10.042 10.042 0 0 1-7.088 2.909 10.042 10.042 0 0 1-7.088-2.908A9.851 9.851 0 0 1 27.196 64V64a9.85 9.85 0 0 1 2.937-7.02 10.042 10.042 0 0 1 7.087-2.91Zm0 .166v.001a9.877 9.877 0 0 0-6.97 2.86A9.686 9.686 0 0 0 27.361 64a9.685 9.685 0 0 0 2.888 6.903 9.875 9.875 0 0 0 6.97 2.86h.001a9.876 9.876 0 0 0 6.97-2.86A9.687 9.687 0 0 0 47.08 64a9.686 9.686 0 0 0-2.888-6.903 9.877 9.877 0 0 0-6.971-2.86Z" clip-rule="evenodd"/><path fill="#E2DFDE" fill-rule="evenodd" d="M37.26 57.472c1.841 0 3.508.741 4.715 1.94a6.575 6.575 0 0 1 1.954 4.68 6.575 6.575 0 0 1-1.954 4.682 6.674 6.674 0 0 1-4.715 1.939 6.673 6.673 0 0 1-4.716-1.94 6.576 6.576 0 0 1-1.954-4.68c0-1.829.747-3.484 1.954-4.682a6.674 6.674 0 0 1 4.715-1.939Zm0 .166a6.508 6.508 0 0 0-4.6 1.89 6.41 6.41 0 0 0-1.904 4.564 6.41 6.41 0 0 0 1.905 4.564 6.507 6.507 0 0 0 4.598 1.89 6.507 6.507 0 0 0 4.6-1.89 6.41 6.41 0 0 0 1.904-4.563 6.41 6.41 0 0 0-1.905-4.564 6.508 6.508 0 0 0-4.598-1.891Z" clip-rule="evenodd"/><path fill="#96C4D7" fill-rule="evenodd" d="M37.24 57.7c3.536 0 6.422 2.863 6.422 6.375 0 3.51-2.886 6.374-6.423 6.374-3.538 0-6.423-2.863-6.423-6.374 0-3.512 2.885-6.375 6.423-6.375Z" clip-rule="evenodd"/><path fill="#333372" fill-rule="evenodd" d="M37.24 57.617a6.51 6.51 0 0 1 4.596 1.895 6.415 6.415 0 0 1 1.909 4.563c0 1.778-.731 3.393-1.91 4.563a6.512 6.512 0 0 1-4.596 1.894 6.51 6.51 0 0 1-4.596-1.895 6.413 6.413 0 0 1-1.91-4.562c0-1.779.731-3.394 1.91-4.563a6.51 6.51 0 0 1 4.596-1.895Zm0 .166h-.001c-1.746 0-3.33.706-4.48 1.847a6.247 6.247 0 0 0-1.86 4.444v.001c0 1.732.712 3.305 1.86 4.445a6.344 6.344 0 0 0 4.48 1.847v-.001c1.746 0 3.331-.706 4.48-1.846a6.248 6.248 0 0 0 1.86-4.445 6.248 6.248 0 0 0-1.86-4.445 6.343 6.343 0 0 0-4.48-1.847Z" clip-rule="evenodd"/><path fill="#fff" fill-rule="evenodd" d="M35.49 58.445c-1.36 2.312-1.625 4.095-1.188 5.58.767 1.901 1.88 2.59 3.096 2.837-1.054-1.03-1.397-2.37-.267-4.163.72-1.178 2.107-2.283 3.855-3.398-2.41.525-4.306.4-5.496-.856Z" clip-rule="evenodd"/><path fill="#fff" fill-rule="evenodd" d="M43.158 63.019c-.575 2.365-1.463 4.45-3.331 5.332-3.175 1.498-5.585.429-7.668-1.076 2.882.82 6.129.72 6.914-3.387.823 1.372 3.294.343 4.085-.87ZM28.554 63.865l.71-.25.008-.003v.008l.007.102v.005l-.005.002-.466.148a2.063 2.063 0 0 1-.073.022l-.045.013.064.012.043.008.498.109h.004v.005l.008.12v.006l-.004.001-.36.134-.037.014-.037.012c-.05.017-.098.032-.146.043l.042.007.085.015.472.085.005.001.007.106v.008l-.008-.002-.736-.156h-.004l-.001-.005-.006-.097v-.004l.605-.221h-.003a2.668 2.668 0 0 1-.06-.012l-.56-.121-.005-.002v-.004l-.007-.107.005-.002Zm.84 1.289.017.099.001.006h-.006l-.412.076h-.004a.57.57 0 0 1-.108.01.32.32 0 0 1-.066-.005.203.203 0 0 1-.065-.026.257.257 0 0 1-.1-.122.44.44 0 0 1-.026-.097l-.001-.004-.004-.028a.33.33 0 0 1 .01-.148.442.442 0 0 1 .018-.04.209.209 0 0 1 .07-.077.328.328 0 0 1 .076-.036.632.632 0 0 1 .1-.025l.413-.075.006-.002.002.007.016.098v.006l-.417.076h-.001l-.025.005a.456.456 0 0 0-.106.037l-.01.008a.133.133 0 0 0-.044.064h-.002a.198.198 0 0 0-.007.027.245.245 0 0 0 .002.08v.002a.579.579 0 0 0 .012.054c.014.04.033.07.058.087l.017.01a.097.097 0 0 0 .019.006c.036.009.086.008.148-.004l.412-.075h.007v.006Zm-.674.453.707-.168.006-.001.022.104.002.006-.006.001-.285.068.08.37.285-.067.006-.002.002.007.02.097.002.006-.006.002-.706.168-.007.002-.001-.007-.022-.098v-.005l.005-.002.327-.078-.08-.37-.327.078h-.006l-.002-.005-.021-.098-.001-.006.006-.002Zm.167.712.775.045h.004l.002.004.031.103.001.004-.003.003-.6.526-.007.006-.003-.009-.033-.109-.001-.004.003-.002.18-.152-.09-.292-.229-.009h-.004l-.001-.004-.031-.101-.003-.01.009.001Zm.356.126.07.226.16-.133c.025-.022.049-.04.07-.057l.038-.029a1.255 1.255 0 0 1-.121.003l-.217-.01Zm-.107.683.663-.305.006-.003.003.006.039.094.001.002-.001.004-.357.585.502-.231.006-.003.002.006.038.088.002.005-.005.003-.664.305-.006.003-.002-.006-.04-.094-.001-.003.002-.002.356-.586-.502.231-.006.003-.002-.006-.037-.088-.003-.005.006-.003Zm1.294 1.03.046.087.003.005-.005.004-.367.21-.001.001-.027.015-.025.012a.403.403 0 0 1-.114.038.197.197 0 0 1-.07-.002.233.233 0 0 1-.132-.082.438.438 0 0 1-.077-.129.401.401 0 0 1-.028-.126v-.013c0-.007 0-.014.002-.021 0-.007.002-.013.003-.02a.22.22 0 0 1 .04-.086.345.345 0 0 1 .06-.06.675.675 0 0 1 .088-.058l.367-.211.006-.003.003.006.046.087.003.005-.005.003-.367.211a.719.719 0 0 0-.022.013l-.02.013a.322.322 0 0 0-.07.058l-.003.005a.137.137 0 0 0-.007.01l-.006.012a.137.137 0 0 0-.014.06v.006l.001.014a.228.228 0 0 0 .028.084.46.46 0 0 0 .029.048.155.155 0 0 0 .081.063.104.104 0 0 0 .039.002.372.372 0 0 0 .14-.053l.366-.211.006-.003.003.005Zm-.479.638.595-.432.006-.004.003.006.056.084.002.003-.001.003-.243.645.456-.33.003.004.053.08.003.004-.005.004-.595.432-.005.004-.004-.006-.058-.086.001-.003.244-.646-.451.327-.005.004-.004-.006-.053-.078-.003-.005.005-.004Zm.463.687.573-.464.005-.004.004.005.059.079.003.005-.004.003-.573.465-.005.004-.004-.006-.059-.078-.004-.005.005-.004Zm.334.421.342-.729.004-.009.006.008.07.08.003.002c-.094.185-.183.372-.277.556a2.132 2.132 0 0 1-.033.06 2.488 2.488 0 0 1 .094-.044l.52-.224.004-.002.003.004.066.075.006.006-.008.003-.725.298-.004.001-.003-.003-.067-.075-.002-.003.001-.004Zm.363.398.505-.543.004-.004.005.005.375.38.005.004-.005.005-.06.064-.004.005-.004-.005-.302-.306-.146.156.282.287.005.005-.005.004-.059.064-.004.004-.005-.004-.282-.287-.164.176.315.319.004.004-.004.004-.06.065-.004.004-.005-.004-.387-.393-.005-.005.005-.004Zm.531.523.459-.586.004-.005.005.004.249.211.02.018.018.017c.03.03.052.056.065.08a.177.177 0 0 1 .02.113.224.224 0 0 1-.104.162.18.18 0 0 1-.069.024.162.162 0 0 1-.049 0 .284.284 0 0 1-.1-.038l.007.019a.463.463 0 0 1 .008.164l-.028.254-.01-.008-.092-.08-.003-.001v-.004l.021-.185a1.91 1.91 0 0 0 .01-.125.31.31 0 0 0-.007-.07.156.156 0 0 0-.02-.042l-.004-.004-.004-.004a.414.414 0 0 0-.03-.03l-.082-.068-.2.255-.003.005-.005-.004-.079-.067.003-.005Zm.344-.261.155.132h.001l.014.011.013.01a.236.236 0 0 0 .059.034.106.106 0 0 0 .035.007c.01 0 .021-.002.032-.005a.115.115 0 0 0 .029-.015.119.119 0 0 0 .047-.111.123.123 0 0 0-.02-.05.25.25 0 0 0-.048-.05l-.173-.147-.144.184Zm.373.55.08.044.005.002-.002.006a.254.254 0 0 0-.018.048.163.163 0 0 0-.005.044c0 .014.002.028.007.043.005.014.012.03.021.045a.152.152 0 0 0 .018.025.295.295 0 0 0 .15.095.15.15 0 0 0 .04.004.103.103 0 0 0 .06-.023.104.104 0 0 0 .034-.053.094.094 0 0 0 .002-.03.11.11 0 0 0-.008-.034.227.227 0 0 0-.022-.038l-.006-.008-.008-.01a1.97 1.97 0 0 0-.074-.086 1.164 1.164 0 0 1-.058-.069.366.366 0 0 1-.035-.051l-.004-.009a.24.24 0 0 1-.013-.029.181.181 0 0 1 .017-.165h.001a.322.322 0 0 1 .009-.013l.01-.013a.189.189 0 0 1 .066-.048.157.157 0 0 1 .032-.011.195.195 0 0 1 .087-.001.323.323 0 0 1 .127.055.451.451 0 0 1 .061.05.317.317 0 0 1 .07.104.198.198 0 0 1 .008.025l.002.012a.21.21 0 0 1-.001.09l-.004.014-.005.015a.258.258 0 0 1-.02.043l-.003.005-.005-.003-.08-.046-.006-.003.003-.005v-.001a.216.216 0 0 0 .008-.017l.005-.017a.142.142 0 0 0 .001-.08.15.15 0 0 0-.029-.051.322.322 0 0 0-.121-.083.123.123 0 0 0-.053-.009h-.001a.243.243 0 0 0-.013.002l-.012.004a.083.083 0 0 0-.045.036l-.005.01a.082.082 0 0 0-.006.057l.004.011.007.013c.014.025.04.058.08.1.028.031.052.057.07.08.018.021.031.04.04.054l.005.007a.151.151 0 0 1 .009.018.21.21 0 0 1 .025.096v.01c0 .004 0 .01-.002.015l-.002.015a.208.208 0 0 1-.068.116.216.216 0 0 1-.178.05v-.001l-.02-.004a.35.35 0 0 1-.115-.052.547.547 0 0 1-.072-.058.333.333 0 0 1-.082-.13.247.247 0 0 1-.002-.137.3.3 0 0 1 .031-.074l.003-.005.005.003Zm.53.643.364-.654.003-.006.006.004.083.05.005.003-.003.005-.365.654-.003.006-.006-.004-.082-.05-.006-.003.003-.005Zm.432.254.3-.582-.205-.115-.006-.003.003-.005.04-.079.004-.005.005.003.506.282.004.002-.001-.004.011.005.108.045.003.002v.003l.05.267a3.56 3.56 0 0 1 .02.137l.007-.005.015-.012c.027-.022.058-.045.091-.069l.211-.15.003-.003.003.002.104.044.01.004-.01.006-.423.29-.116.294-.002.006-.006-.002-.089-.038-.005-.002.002-.006.115-.295-.1-.511v-.005l-.002.004-.04.078-.004.006-.005-.003-.206-.115-.3.582-.002.006-.006-.003-.084-.047-.006-.003.003-.006Zm1.391.218a.53.53 0 0 1 .07-.156.344.344 0 0 1 .105-.103.317.317 0 0 1 .274-.03.281.281 0 0 1 .052.02c.043.02.08.048.11.082h.001a.478.478 0 0 1 .033.044.34.34 0 0 1 .049.13.511.511 0 0 1 .005.057.5.5 0 0 1-.06.255.409.409 0 0 1-.133.146.298.298 0 0 1-.086.036.354.354 0 0 1-.276-.048.331.331 0 0 1-.074-.063.295.295 0 0 1-.032-.044.344.344 0 0 1-.049-.13v-.002a.341.341 0 0 1-.005-.055.447.447 0 0 1 .016-.139Zm.107.034a.384.384 0 0 0-.016.12.258.258 0 0 0 .084.18c.024.02.053.036.086.046.034.01.066.013.098.01a.224.224 0 0 0 .134-.07.368.368 0 0 0 .08-.156v-.002l.007-.024.004-.024a.365.365 0 0 0 .003-.111v-.001a.327.327 0 0 0-.008-.04.23.23 0 0 0-.156-.156.242.242 0 0 0-.094-.01.242.242 0 0 0-.09.029.185.185 0 0 0-.045.035.406.406 0 0 0-.087.174Zm.637.561.141-.741.002-.007.006.002.48.098.005.001v.006l-.017.088-.002.006h-.006l-.379-.079-.041.218.327.067.006.001-.001.006-.017.088v.006l-.007-.001-.327-.068-.063.33-.001.008-.007-.002-.094-.02h-.006l.001-.007Zm.878-.093h.097v.006c0 .019.002.036.006.051.003.016.008.03.015.042a.124.124 0 0 0 .026.034c.01.01.023.02.038.029h.001a.235.235 0 0 0 .013.007l.014.006a.271.271 0 0 0 .13.02.214.214 0 0 0 .044-.009.153.153 0 0 0 .037-.016.106.106 0 0 0 .05-.113.092.092 0 0 0-.035-.053.182.182 0 0 0-.036-.023l-.009-.005-.011-.005a2.139 2.139 0 0 0-.104-.039 1.214 1.214 0 0 1-.083-.032.353.353 0 0 1-.053-.029.206.206 0 0 1-.073-.08.186.186 0 0 1-.018-.099v-.001l.002-.016c0-.006.002-.011.003-.016a.209.209 0 0 1 .036-.074.165.165 0 0 1 .023-.025.214.214 0 0 1 .077-.044.323.323 0 0 1 .137-.013.413.413 0 0 1 .142.04.181.181 0 0 1 .032.021c.025.02.044.043.058.07v.002h.001a.217.217 0 0 1 .014.033.256.256 0 0 1 .011.09v.007h-.006l-.093-.002h-.006v-.011c0-.006 0-.013-.002-.019l-.002-.017a.132.132 0 0 0-.035-.067.133.133 0 0 0-.048-.031.3.3 0 0 0-.145-.014.127.127 0 0 0-.05.019h-.001a.066.066 0 0 0-.01.009.088.088 0 0 0-.032.062l-.001.001v.02a.08.08 0 0 0 .02.044.148.148 0 0 0 .046.03.786.786 0 0 0 .09.035c.04.013.071.025.097.035.026.01.046.02.06.029a.243.243 0 0 1 .033.021.21.21 0 0 1 .056.066v.002a.212.212 0 0 1 .013.029.211.211 0 0 1-.005.142.223.223 0 0 1-.135.13h-.001l-.019.007a.343.343 0 0 1-.125.01.531.531 0 0 1-.09-.016.33.33 0 0 1-.074-.03.249.249 0 0 1-.098-.102l-.001-.001a.34.34 0 0 1-.015-.037.276.276 0 0 1-.013-.104v-.006h.007Zm1.26.032.097.025.006.002-.002.006a.565.565 0 0 1-.02.065.318.318 0 0 1-.09.126.279.279 0 0 1-.09.05.334.334 0 0 1-.107.015.438.438 0 0 1-.107-.013.28.28 0 0 1-.087-.038.272.272 0 0 1-.04-.032.335.335 0 0 1-.073-.115l-.009-.023a.694.694 0 0 1-.015-.053.566.566 0 0 1-.003-.241.412.412 0 0 1 .034-.097.295.295 0 0 1 .126-.136.335.335 0 0 1 .179-.046c.037 0 .07.005.102.015a.27.27 0 0 1 .148.116c.018.028.031.06.041.095l.002.006-.006.001-.095.024h-.006l-.002-.005a.302.302 0 0 0-.03-.07.18.18 0 0 0-.04-.047.167.167 0 0 0-.052-.028.26.26 0 0 0-.14 0 .2.2 0 0 0-.108.078.223.223 0 0 0-.03.062l-.007.024a.364.364 0 0 0-.005.023l-.005.024a.458.458 0 0 0 0 .162c.005.027.012.053.02.077.01.023.02.044.034.06.013.018.029.033.047.044a.219.219 0 0 0 .12.035.19.19 0 0 0 .178-.105.317.317 0 0 0 .028-.082l.002-.006.006.002Zm.279.26-.035-.755v-.007h.006l.096-.005h.006v.006l.035.755v.006h-.006l-.096.006h-.006v-.006Zm.323-.028-.072-.752-.001-.006.006-.001.521-.056h.007v.006l.009.088v.007h-.006l-.42.045.022.218.392-.042h.006l.001.005.009.089v.006h-.006l-.393.043.024.243.436-.047h.006l.01.095v.006h-.006l-.538.058-.006.001v-.006Zm.72-.098-.149-.74v-.006l.005-.002.097-.02.003-.001.002.002.474.484-.112-.56-.001-.006.006-.001.09-.02.006-.001.002.006.148.74v.006l-.005.001-.097.021-.003.001-.003-.002-.473-.485.112.56v.007h-.005l-.096.022-.002-.006Zm1.197-.6.099-.004h.006v.008a.673.673 0 0 1-.002.069.297.297 0 0 1-.22.268.428.428 0 0 1-.106.02.266.266 0 0 1-.093-.01.241.241 0 0 1-.047-.02.316.316 0 0 1-.103-.087l-.018-.023a.54.54 0 0 1-.092-.374.346.346 0 0 1 .03-.091.347.347 0 0 1 .211-.175.338.338 0 0 1 .102-.017.262.262 0 0 1 .174.065.324.324 0 0 1 .066.078l.003.005-.005.004-.084.05-.005.004-.003-.005a.3.3 0 0 0-.049-.058.16.16 0 0 0-.11-.043.264.264 0 0 0-.133.043.207.207 0 0 0-.08.107.234.234 0 0 0-.013.068v.003a.231.231 0 0 0 .001.041.449.449 0 0 0 .049.184.382.382 0 0 0 .04.067c.014.02.031.036.049.048a.178.178 0 0 0 .057.027.222.222 0 0 0 .19-.036.192.192 0 0 0 .075-.122.313.313 0 0 0 .005-.087v-.006h.006Zm.324.173-.28-.697-.003-.006.005-.002.483-.212.006-.003.003.006.033.082.002.006-.006.002-.389.171.082.202.363-.16.006-.002.003.005.033.082.002.006-.006.002-.364.16.091.226.404-.178.006-.003.003.007.033.082.002.005-.006.003-.498.219-.006.003-.002-.006Zm.751-.343-.091-.804v-.004l.003-.002.092-.05.003-.002.004.003.6.523.007.006-.009.005-.096.053-.004.002-.004-.003-.173-.158-.26.143.03.237.001.005-.003.002-.09.05-.009.004v-.01Zm.058-.387.201-.11-.154-.143a2.802 2.802 0 0 1-.098-.095.806.806 0 0 1 .024.123l.027.225Zm.656-.012-.403-.627-.003-.005.005-.004.085-.06.003.002.614.263-.305-.475-.004-.005.005-.003.077-.054.005-.004.004.006.402.628.004.005-.005.003-.082.057-.003.002-.003-.001-.614-.264.305.476.004.005-.005.004-.082.057-.004-.006Zm.654-.465-.434-.605-.003-.005.005-.004.2-.156.018-.014.018-.013a.458.458 0 0 1 .074-.046h.002l.017-.008a.236.236 0 0 1 .101-.016h.001a.17.17 0 0 1 .022.003c.006 0 .013.002.02.004.036.007.07.022.102.044a.411.411 0 0 1 .067.055.593.593 0 0 1 .151.272.307.307 0 0 1-.007.156l-.005.012-.005.013a.308.308 0 0 1-.038.061.431.431 0 0 1-.087.084l-.21.164-.005.004-.004-.005Zm.032-.145.119-.092a.59.59 0 0 0 .048-.042.221.221 0 0 0 .051-.073.143.143 0 0 0 .01-.035l.002-.014v-.014a.266.266 0 0 0-.014-.079.595.595 0 0 0-.068-.127.437.437 0 0 0-.037-.047.27.27 0 0 0-.094-.073.217.217 0 0 0-.062-.016.15.15 0 0 0-.101.027.683.683 0 0 0-.06.042l-.118.092.324.451Zm.877-.638-.445-.467-.165.17-.005.005-.005-.004-.06-.064-.004-.004.004-.004.413-.428.004.005.06.063.004.005-.004.004-.166.172.446.468.004.005-.004.004-.068.07-.005.005-.004-.005Zm.34-.365-.541-.512.004-.004.352-.406.005-.004.004.004.063.06.005.004-.004.005-.284.326.155.147.265-.305.005-.005.004.004.063.06.005.004-.004.004-.266.306.174.164.295-.34.004-.004.005.004.063.06.004.004-.004.005-.363.418-.004.005-.005-.004Zm.584-1.174.083-.069.003.006.004.004a.557.557 0 0 1 .036.057.322.322 0 0 1 .024.25.451.451 0 0 1-.127.18.28.28 0 0 1-.081.05h-.003a.275.275 0 0 1-.179.005.398.398 0 0 1-.053-.018.508.508 0 0 1-.26-.236.318.318 0 0 1-.028-.187.388.388 0 0 1 .146-.252.268.268 0 0 1 .276-.031l.006.002-.003.006-.04.092-.001.006-.006-.002a.281.281 0 0 0-.072-.017.164.164 0 0 0-.06.005.166.166 0 0 0-.053.027.292.292 0 0 0-.084.117.223.223 0 0 0-.005.137.22.22 0 0 0 .029.062l.011.017c.004.005.009.01.012.016a.44.44 0 0 0 .145.12.357.357 0 0 0 .07.03c.023.007.046.01.067.01a.171.171 0 0 0 .062-.015.228.228 0 0 0 .099-.078.21.21 0 0 0 .027-.212.31.31 0 0 0-.046-.073l-.004-.005.005-.004Zm.362-.073-.62-.39-.005-.004.004-.005.05-.086.003-.006.005.004.25.157.188-.326-.25-.157-.005-.003.003-.005.05-.086.004-.006.005.004.62.39.005.004-.003.005-.05.086-.003.005-.006-.003-.286-.18-.19.325.288.18.005.004-.003.005-.05.086-.003.005-.006-.003Zm.4-.7-.65-.332-.006-.003.047-.097v-.003h.004l.659-.093-.493-.252-.005-.003.003-.006.04-.086.003-.006.006.003.65.333.005.003-.002.005-.044.092-.001.004h-.004l-.659.092.493.253.006.002-.003.006-.04.086-.003.006-.006-.003Zm.01-.833a.498.498 0 0 1-.145-.083.344.344 0 0 1-.125-.255.451.451 0 0 1 .047-.201.36.36 0 0 1 .087-.11.317.317 0 0 1 .171-.073h.001a.5.5 0 0 1 .055-.002.465.465 0 0 1 .316.147.335.335 0 0 1 .084.27.399.399 0 0 1-.133.26.467.467 0 0 1-.044.03.316.316 0 0 1-.128.042h-.001a.292.292 0 0 1-.053.002.41.41 0 0 1-.133-.027Zm.04-.108c.04.015.077.023.113.024a.228.228 0 0 0 .178-.075.25.25 0 0 0 .05-.086.244.244 0 0 0-.01-.197.312.312 0 0 0-.032-.049.347.347 0 0 0-.143-.094h-.001a.382.382 0 0 0-.151-.026h-.002a.206.206 0 0 0-.038.006.21.21 0 0 0-.083.041.25.25 0 0 0-.077.111.268.268 0 0 0 .005.192.167.167 0 0 0 .03.05.38.38 0 0 0 .16.103Zm.58-.62-.693-.222-.006-.002.002-.006.028-.096.002-.006.007.002.604.194.105-.355.006.002.082.026.006.002-.002.006-.134.451-.002.006-.006-.002Zm-.18-.673a.489.489 0 0 1-.154-.06.34.34 0 0 1-.158-.235.4.4 0 0 1 .005-.15.367.367 0 0 1 .015-.056.36.36 0 0 1 .071-.121.507.507 0 0 1 .04-.037.358.358 0 0 1 .185-.072l.024-.001h.025a.486.486 0 0 1 .19.046.39.39 0 0 1 .149.129c.017.026.03.055.04.087a.393.393 0 0 1 .006.192.347.347 0 0 1-.089.179.438.438 0 0 1-.04.037.32.32 0 0 1-.12.06l-.008.002a.424.424 0 0 1-.181 0Zm.025-.112c.042.01.08.012.116.007a.23.23 0 0 0 .166-.1.26.26 0 0 0 .038-.093.237.237 0 0 0-.035-.194.284.284 0 0 0-.04-.043.342.342 0 0 0-.153-.073h-.006a.23.23 0 0 0-.046-.008.32.32 0 0 0-.103.005.206.206 0 0 0-.037.012.221.221 0 0 0-.116.108.271.271 0 0 0-.026.164.264.264 0 0 0 .033.091.188.188 0 0 0 .037.045.377.377 0 0 0 .172.079Zm.236-1.087-.085-.01h-.006v-.007l.033-.318.001-.006h.007l.267.03h.003l.001.003a.622.622 0 0 1 .07.163v.001a.451.451 0 0 1 .005.023l.004.023a.478.478 0 0 1 .002.118.629.629 0 0 1-.004.032l-.006.03a.433.433 0 0 1-.057.137l-.017.023a.306.306 0 0 1-.132.1v.002a.906.906 0 0 1-.053.016.424.424 0 0 1-.147.008h-.001a.372.372 0 0 1-.058-.01.43.43 0 0 1-.135-.059.29.29 0 0 1-.045-.035.298.298 0 0 1-.08-.115.39.39 0 0 1-.016-.054.467.467 0 0 1-.007-.152l.003-.024.004-.022a.38.38 0 0 1 .035-.1v-.001a.322.322 0 0 1 .01-.017c.002-.006.006-.011.01-.016a.23.23 0 0 1 .12-.092.386.386 0 0 1 .07-.018h.005l.002.006.014.092v.006l-.005.001a.36.36 0 0 0-.05.014.196.196 0 0 0-.04.018l-.008.006a.175.175 0 0 0-.047.058l-.006.013a.28.28 0 0 0-.023.086v.002a.349.349 0 0 0-.002.018v.018a.263.263 0 0 0 .028.126.19.19 0 0 0 .024.037.262.262 0 0 0 .065.054l.018.01.019.009a.415.415 0 0 0 .19.027.268.268 0 0 0 .074-.018.214.214 0 0 0 .104-.087.32.32 0 0 0 .034-.26.436.436 0 0 0-.038-.096l-.125-.013-.022.214-.001.006h-.006Zm.324-.642-.304-.017-.431.266-.01.006v-.012l.007-.121v-.004l.003-.001.226-.136a2.37 2.37 0 0 1 .117-.066l-.007-.005-.016-.01a2.666 2.666 0 0 1-.092-.069l-.205-.158-.002-.002v-.003l.006-.117v-.012l.01.008.4.324.304.017h.006v.007l-.005.1v.006h-.007ZM43.923 59.48s.079-.047.11-.06c.031-.014.073-.053.086-.06.014-.008.043-.006.058.002.016.008.05.043.031.12-.018.077-.047.135-.059.161-.011.027-.064.127-.14.127-.076.001-.117-.029-.139-.053-.021-.023-.035-.102-.018-.143a.244.244 0 0 1 .06-.084l.011-.01Zm.959.037s-.036.042-.05.078c-.014.036-.03.069-.031.09-.002.02-.017.064-.033.066a.064.064 0 0 1-.055-.01c-.022-.016-.06-.051-.061-.062-.002-.012-.012-.047.003-.063.016-.014.064-.05.07-.063.005-.012.034-.055.047-.085a.54.54 0 0 0 .04-.119c0-.022-.006-.047-.027-.055-.021-.008-.066 0-.093.04a.714.714 0 0 1-.127.124c-.025.017-.055.046-.072.05a.376.376 0 0 0-.088.077c-.01.016-.038.085.008.1.045.015.102.028.13.051.027.024.077.062.106.086.029.023.112.107.132.127.019.021.036.037.047.047.012.01.104.09.152.125.049.035.143.081.182.146.038.065.023.095.016.108-.007.013-.05.028-.102.02a.542.542 0 0 1-.134-.038c-.023-.01-.05-.012-.064.007-.014.019-.003.031.008.044a.652.652 0 0 0 .212.125c.086.021.15.018.184.018.033 0 .125-.014.128-.082.003-.067-.002-.116-.02-.146-.019-.032-.113-.122-.14-.15a1.7 1.7 0 0 0-.1-.086c-.013-.012-.035-.038-.013-.058.021-.02.066-.009.11-.009.043 0 .112-.002.147-.026a.398.398 0 0 0 .093-.105c.022-.034.022-.058.037-.083a.139.139 0 0 1 .074-.062.167.167 0 0 0 .092-.081c.013-.035.022-.088.005-.1-.017-.014-.072-.02-.09-.021a.392.392 0 0 0-.132.012.235.235 0 0 0-.058.046.317.317 0 0 1-.14.043c-.037 0-.21.006-.233-.025a.196.196 0 0 1-.045-.09c-.012-.048-.018-.048-.04-.052-.02-.004-.046.007-.053.017-.008.01-.023.024-.023.024Zm.068.248s.12 0 .172-.002c.05 0 .117-.005.14-.006.023 0 .058-.007.07.005.011.011.022.05.002.069-.019.018-.067.06-.09.064-.025.002-.108.015-.201.002-.093-.012-.146-.018-.166-.045-.02-.027-.01-.045.002-.061.013-.016.018-.023.034-.023l.037-.003Zm-.51.309.02.073c.008.027.015.097-.03.128-.045.03-.1.082-.16.075-.06-.008-.115-.044-.15-.062-.033-.017-.095-.065-.11-.074-.014-.01-.057-.001-.056.025.001.025.014.049.035.083.02.033.032.06.044.075.012.015.033.046.051.068.02.023.067.063.069.09 0 .028.005.072-.065.103s-.087.054-.125.055c-.038.002-.086.004-.119-.014-.033-.017-.077-.047-.094-.058-.018-.01-.066-.003-.044.047.02.05.064.084.082.1a.46.46 0 0 0 .171.052c.08.011.149-.025.18-.026.03-.002.084-.034.088-.063.005-.029.008-.053.023-.056.014-.003.05-.011.089.03.038.041.062.088.086.113.024.025.092.095.163.108.07.013.123-.003.135-.03.011-.027.015-.077-.026-.143-.041-.065-.047-.091-.107-.152a.574.574 0 0 0-.104-.092c-.031-.021-.048-.041-.032-.076.015-.034.021-.033.037-.039a.524.524 0 0 0 .078-.044c.018-.014.083-.054.063-.135-.02-.082-.026-.078-.05-.12a.273.273 0 0 0-.072-.087c-.017-.009-.039-.011-.047-.003a.09.09 0 0 0-.022.028v.02ZM42.24 58.215s.002.06-.013.095-.016.051-.023.058c-.007.006-.028.026-.025.039.003.013.007.05.033.052a.148.148 0 0 0 .067-.01.803.803 0 0 0 .065-.04c.02-.014.047-.036.075-.041.03-.006.05-.01.078-.014.029-.004.045-.002.056-.009.01-.007.028-.03.028-.041a.11.11 0 0 0-.02-.047 2.28 2.28 0 0 0-.048-.055c-.008-.007-.01-.016-.022-.041-.011-.026-.018-.05-.028-.07a.196.196 0 0 0-.04-.053c-.018-.017-.024-.025-.03-.031a.454.454 0 0 0-.045-.033c-.008-.006-.038-.027-.049-.032a.148.148 0 0 0-.057-.018c-.02 0-.053.02-.053.039 0 .024 0 .038.007.057.006.02.004.036.008.052l.008.049c.004.018.015.048.018.067a.066.066 0 0 0 .01.027Zm.169-1.119s-.028.05-.043.061c-.014.01-.038.054-.052.061a.218.218 0 0 1-.068.021.277.277 0 0 1-.082-.008c-.017-.004-.04-.001-.062-.017a.538.538 0 0 0-.078-.049.156.156 0 0 0-.063-.007c-.017.003-.044.018-.047.03a.252.252 0 0 0 .014.083.576.576 0 0 0 .048.078c.012.017.034.039.032.057-.002.017-.008.07-.026.08-.018.008-.026.026-.037.03-.012.005-.071.038-.093.044a.217.217 0 0 0-.073.063c-.015.02-.027.054-.079.072-.052.017-.103.037-.118.039a.184.184 0 0 0-.068.04c-.009.01-.007.035-.003.045a.05.05 0 0 0 .046.034c.03 0 .083-.01.114-.024.032-.015.105-.053.12-.063.016-.01.053-.045.088-.062a.9.9 0 0 1 .123-.052c.036-.01.11-.06.126-.071.015-.012.066-.03.14-.004.072.026.158.06.195.068a.432.432 0 0 0 .108.01.216.216 0 0 1 .076.008c.017.005.07.023.083.026.012.003.04.012.059.021.019.01.07.048.112.046.042-.002.07-.015.102-.028.031-.012.029-.03.034-.05.013-.045-.03-.081-.066-.112-.017-.014-.043-.032-.056-.048-.046-.06-.082-.073-.143-.104-.041-.02-.093-.022-.134-.044-.018-.01-.038-.012-.045-.025-.007-.013-.018-.067-.009-.081.01-.014.02-.023.034-.038.013-.015.015-.025.019-.034a.268.268 0 0 1 .04-.068c.017-.018.037-.028.053-.043.017-.016.03-.038.046-.058.01-.013.047-.085.053-.094l.047-.06c.01-.011.05-.046.03-.085-.03-.06-.063-.155-.139-.187-.019-.007-.08-.02-.095-.014-.015.007-.047.018-.039.043.01.026.03.072.026.109-.006.052.001.072-.042.118-.029.029-.055.084-.093.102-.008.004-.073.078-.08.086a1.015 1.015 0 0 0-.035.055ZM39.2 55.747s.075-.029.097-.078c.023-.05.024-.049-.001-.088-.025-.04-.037-.028-.06-.028-.022 0-.046 0-.055-.005-.008-.007-.03-.021-.034-.032-.004-.011-.006-.056.011-.079.018-.022.03-.05.034-.059l.027-.05a.19.19 0 0 0 .026-.063.098.098 0 0 0-.024-.045c-.01-.008-.035-.007-.049-.003a.208.208 0 0 0-.071.066c-.017.027-.038.094-.042.1-.004.006-.001.034-.003.049s-.01.03-.022.054c-.011.024-.004.024-.034.044-.03.02-.038.03-.078.034l-.066.004c-.01 0-.07.017-.08.02-.01.002-.037.007-.047.012-.01.006-.024.022-.026.033-.002.01 0 .038.01.042.01.005.037.033.065.049.028.015.084.04.1.045a.083.083 0 0 1 .055.041c.018.03.023.046.022.061a.077.077 0 0 1-.02.042c-.007.005-.037.034-.086.041-.05.008-.11.024-.15.034-.039.01-.142.03-.176.043a.588.588 0 0 0-.116.062c-.01.012.003.065.011.078.008.013.047.023.07.023.023 0 .063.004.12-.034.056-.04.078-.056.104-.065.026-.01.04-.01.056-.016.017-.006.033-.013.046-.013.013 0 .031.005.057.03.026.026.022.04.022.045a.287.287 0 0 1-.044.098c-.032.046-.036.05-.035.063 0 .012-.001.03-.008.046a.26.26 0 0 0-.014.04.278.278 0 0 1-.024.05c-.005.008-.01.04-.017.053a.317.317 0 0 1-.058.064l-.04.029c-.01.006-.027.025-.026.037.002.013.01.033.017.039.008.006.013.011.037.012.024.001.065-.027.072-.034.007-.008.015-.025.025-.032a.61.61 0 0 0 .044-.043c.013-.014.042-.04.05-.056a.243.243 0 0 1 .035-.056c.008-.008.023-.04.031-.05.008-.01.015-.043.025-.064.002-.003.032-.05.034-.051a.22.22 0 0 0 .022-.067l.009-.076a.238.238 0 0 1 .018-.073.115.115 0 0 0 .018-.023.13.13 0 0 1 .04-.03.13.13 0 0 1 .051-.019c.017 0 .012-.005.041-.008.03-.002.041.004.055.007.014.003.043.001.06 0 .017 0 .084.001.102-.006.016-.008.038-.02.053-.025.015-.004.053-.021.08-.029.026-.007.1-.03.12-.034.018-.004.058-.016.093 0 .035.016.044.045.048.056.004.01.003.053.002.074 0 .022.024.097.053.126.028.029.067.081.078.103.012.022.017.083-.021.11l-.078.057c-.02.013-.059.046-.104.043a.459.459 0 0 1-.096-.017c-.015-.005-.035-.005-.058-.009a.115.115 0 0 0-.054.004.086.086 0 0 0-.043.03c-.006.01-.006.03.008.05.015.018.027.044.034.056.008.011.01.032-.005.043-.014.01-.017.025-.036.025-.018 0-.052-.006-.07-.006a.216.216 0 0 0-.072.012.142.142 0 0 0-.048.047c-.005.013-.008.024.006.05.014.027.024.047.042.05l.045.009a.106.106 0 0 0 .044-.003c.02-.005.035-.013.053-.016.018-.003.055-.002.068-.004.013-.002.028-.011.045-.017l.05-.022c.009-.001.025-.013.04-.011.013 0 .012.001.022.003.01.001.02 0 .03.004.008.005.03.018.053.036.022.018.078.064.09.076.012.012.023.035.029.044a.453.453 0 0 0 .063.078c.016.011.045.04.073.034a.198.198 0 0 0 .062-.024c.016-.009.026-.03.033-.04.006-.01.013-.02.014-.029a.274.274 0 0 0 .004-.032c0-.01.002-.068-.004-.085a.33.33 0 0 0-.05-.079c-.01-.006-.046-.02-.056-.027l-.043-.03c-.006-.005-.03-.02-.033-.024-.003-.004-.038-.04-.038-.072 0-.03.019-.04.025-.046a.973.973 0 0 0 .042-.038c.013-.012.016-.023.029-.037a.27.27 0 0 0 .03-.043c.008-.013.025-.03.03-.038.018-.031.031-.045.04-.072.001-.006.01-.042.004-.055a.39.39 0 0 0-.039-.065.148.148 0 0 0-.04-.04c-.01-.004-.01.001-.018-.005a.263.263 0 0 1-.043-.035c-.007-.009-.029-.025-.047-.06-.018-.034-.038-.066-.04-.093a.08.08 0 0 1 .026-.062c.012-.01.048-.052.083-.067.034-.015.06-.038.075-.047.015-.01.046-.019.063-.026.018-.008.105-.063.136-.082.03-.018.052-.032.063-.037.01-.005.065-.044.072-.089a.178.178 0 0 0-.022-.11c-.011-.017-.038-.05-.07-.044-.031.006-.037.001-.055.038-.018.036-.009.059-.032.081a.433.433 0 0 1-.07.06c-.013.005-.046.026-.056.032-.011.005-.02.008-.03 0-.01-.009-.028-.017-.024-.048a.47.47 0 0 1 .026-.102l.021-.044a.2.2 0 0 1 .023-.038.313.313 0 0 0 .031-.053c.01-.019.018-.034.019-.04.001-.006-.002-.014-.013-.022-.011-.008-.035-.02-.051-.01-.017.01-.054.08-.067.095-.013.014-.032.054-.041.067-.009.012-.02.055-.047.08a.482.482 0 0 0-.07.085.684.684 0 0 0-.033.093.107.107 0 0 1-.025.048.215.215 0 0 1-.071.042c-.024.005-.109.01-.207.045l-.196.068c-.035.01-.107.04-.142.053-.035.014-.065.042-.105.016-.041-.025-.058-.05-.044-.083.015-.033.017-.043.039-.056l.058-.036a.152.152 0 0 1 .024-.009ZM31.874 57.714s-.065-.024-.098-.052c-.034-.028-.045-.048-.05-.096-.004-.047-.019-.102-.025-.132a.38.38 0 0 1-.002-.13.21.21 0 0 0-.001-.103c-.008-.018-.064-.04-.09-.033-.027.006-.08.024-.088.06a.167.167 0 0 0 .018.112c.018.033.027.08.042.11.016.03.02.07.047.111.028.042.059.087.065.108.006.021.024.05.037.069.014.02.034.05.042.073a.38.38 0 0 0 .066.081c.01.01.04.053.077.09a.64.64 0 0 1 .096.144c.008.023.019.083.029.101.01.019.044.05.065.071.02.021.072.108.094.15.022.04.102.123.157.132.056.008.077.007.105-.028.029-.034.004-.21.002-.242a2.926 2.926 0 0 0-.04-.243.468.468 0 0 0-.047-.15c-.013-.019-.03-.026-.048-.022-.019.005-.035.025-.033.04.002.017.033.078.036.114.002.036.016.104.012.154-.005.05.004.072-.032.078-.035.005-.047-.015-.088-.076a1.182 1.182 0 0 1-.093-.159c-.036-.07-.063-.166-.15-.252-.087-.087-.11-.082-.11-.082l.005.002Zm.6-.368s-.064-.056-.086-.06c-.022-.005-.055-.011-.066.016-.01.026-.003.06.007.089.01.029.032.069.047.097.015.027.05.056.072.06.021.003.042-.006.05-.026a.17.17 0 0 0 .012-.081.208.208 0 0 0-.026-.083l-.01-.012Zm.203-.6s-.08.058-.104.085c-.022.028-.054.063-.084.099-.03.036-.048.072-.033.092.014.019.031.027.048.024.017-.004.019-.024.047-.022.027.002.059.014.058.037 0 .024-.02.086-.05.124-.03.038-.03.05-.02.066.01.016.028.033.043.028.015-.004.036-.03.05-.03.014.002.044.014.047.027a.225.225 0 0 1-.018.089c-.01.017-.017.042.003.058a.49.49 0 0 0 .072.042c.014.006.027.016.027.055a.297.297 0 0 1-.023.117.444.444 0 0 0-.043.08.188.188 0 0 0-.015.075c.002.008.023.024.04.023.019 0 .023-.015.049-.018.026-.003.049-.008.067.005.018.013.015.04.016.054 0 .014.012.069.017.1.006.031.007.074.02.096.012.023.02.036.048.035.029-.001.036-.028.036-.045a.088.088 0 0 0-.014-.052.243.243 0 0 1-.03-.09 4.124 4.124 0 0 0-.008-.134c-.003-.018-.014-.121.008-.164a.418.418 0 0 1 .102-.114c.03-.023.002.007.1-.078.099-.084.112-.095.122-.105a.486.486 0 0 0 .08-.12c.008-.034.02-.1.011-.118-.009-.017-.065-.051-.098-.019-.032.032-.044.11-.114.163-.07.052-.097.072-.12.091-.022.019-.061.08-.074.09-.012.01-.039.025-.053.016-.014-.009-.041-.012-.027-.055.014-.042.034-.06.054-.083.02-.022.056-.076.047-.111-.01-.036-.037-.044-.077-.057-.039-.012-.048-.05-.039-.068.01-.02.023-.082.037-.114.013-.032.035-.087.057-.12a.19.19 0 0 0 .029-.108c-.004-.02-.024-.036-.043-.041-.019-.005-.062-.012-.09.001-.03.013-.078.056-.098.066-.02.01-.034.018-.043.021l-.017.007Zm-.436-.39s-.069.057-.098.094c-.03.037-.072.07-.1.07-.027 0-.05.003-.063-.012-.013-.015-.04-.045-.06-.038-.018.007-.025.014-.028.025-.003.011.005.05.015.075.01.024.03.057.018.11a1.22 1.22 0 0 1-.062.172c-.009.022-.03.07-.013.088.017.018.04.024.055.019.015-.006.08-.077.103-.084a.308.308 0 0 1 .08-.009c.022 0 .065-.03.082-.053s.032-.035.048-.028c.017.006.02.022.027.05.008.026.019.045.062.048a.208.208 0 0 0 .137-.038c.04-.032.056-.047.094-.082.039-.035.077-.081.085-.113.007-.032.01-.063-.023-.072-.035-.01-.065-.011-.093.025a4.318 4.318 0 0 0-.077.104c-.005.007-.019.014-.037.015-.018 0-.051-.004-.054-.017a.16.16 0 0 1 .006-.07c.009-.027.03-.06.054-.145.024-.086.058-.114.081-.128a.41.41 0 0 0 .12-.126c.037-.063.052-.103.033-.148-.02-.044-.117-.049-.157-.05-.04 0-.112-.005-.148.011-.035.016-.047.06-.031.087.015.027.051.065.047.09a.15.15 0 0 1-.054.092.284.284 0 0 1-.049.038Zm1.253 1.172s-.032-.007-.066.01c-.035.017-.06.03-.072.033-.013.002-.027.01-.06.043-.03.033-.067.068-.073.095-.006.026-.012.054.005.063.018.009.054.013.093.022s.049 0 .066.02c.018.018.045.051.062.06.016.01.052.017.07.01.017-.008.032-.05.027-.087-.005-.037-.018-.053-.018-.08 0-.026.006-.065.012-.09a.158.158 0 0 0 .005-.063.108.108 0 0 0-.034-.034c-.007-.002-.017-.002-.017-.002ZM35.327 55.222c.024-.076-.093-.114-.144-.113-.063.002-.094-.004-.114.058-.006.018.012.057.029.097.02.048.038.088.073.095.044.008.047.008.09-.04a.346.346 0 0 0 .066-.097Zm.63.555s.003-.13-.049-.195c-.053-.066-.081-.057-.119-.14-.037-.081-.058-.074-.075-.08-.016-.006-.031.003-.042.025-.011.022-.018.05-.009.062.009.013.062.089.079.11.017.023.063.068.081.113a.447.447 0 0 1 .027.178c-.006.049-.049.247-.043.299.005.052.013.102.06.123.047.021.109.002.211-.087.103-.09.157-.113.19-.129.031-.016.068-.036.102.002.034.039.046.11.05.161.002.053.005.138.014.18.008.044.008.117.01.147 0 .03.016.135.016.145 0 .01.016.024.03.028.014.004.04-.049.043-.058.003-.009.008-.07.01-.087.002-.016.014-.068.01-.099-.003-.03 0-.096 0-.106v-.129a3.114 3.114 0 0 0-.006-.229c-.004-.04-.02-.057-.017-.09.002-.032 0-.058.027-.113.027-.054.023-.066.047-.096a.24.24 0 0 0 .04-.087.044.044 0 0 0-.014-.045c-.015-.014-.03-.013-.044-.01-.014.002-.031.018-.041.026-.01.008-.03.018-.05.01-.018-.006-.045.003-.05-.069-.003-.072-.011-.096-.02-.111a.7.7 0 0 1-.027-.096.291.291 0 0 0-.042-.067.226.226 0 0 1-.039-.08.189.189 0 0 0-.02-.053c-.008-.013-.012-.026-.019-.041-.006-.016-.02-.04-.038-.04-.02 0-.032 0-.042.015-.01.015-.01.038-.01.055a.107.107 0 0 1-.005.044.23.23 0 0 0 .005.096c.01.032.007.071.008.082 0 .01.013.062.026.087a.401.401 0 0 1 .03.102c.004.022.022.067.022.098s.01.064.02.083c.009.016.059.108-.024.214a.243.243 0 0 1-.06.048c-.123.075-.127.08-.19.059-.062-.021-.055-.072-.058-.1a1.949 1.949 0 0 1-.003-.124c0-.014-.003-.03-.003-.03Zm-.544.083s.1-.101.1-.13c.001-.03.001-.053-.028-.065-.03-.012-.04.002-.058.005-.018.002-.077.078-.089.087a.055.055 0 0 1-.06.008c-.03-.013-.083-.05-.107-.013-.025.037-.027.112-.045.133-.019.02-.085.08-.134.089-.05.009-.074.046-.1.06-.027.015-.051.03-.085.04a.365.365 0 0 0-.107.046.161.161 0 0 0-.039.052c-.007.02-.002.053.024.077.026.024.066.057.128.043.062-.014.092-.052.118-.088a.537.537 0 0 1 .09-.098c.021-.015.062-.068.098-.063.035.005.094.032.097.08.004.046.018.174-.007.208-.025.033-.1.213-.137.266-.037.052-.034.07-.086.125-.051.056-.064.082-.064.108 0 .026.02.048.052.051.034.004.091-.035.124-.111.032-.077.019-.062.055-.116.036-.053.045-.061.064-.085.02-.024.036-.052.061-.052s.073.02.082.049c.008.028-.002.104.051.145.054.04.066.036.08.028a.08.08 0 0 0 .04-.091c-.013-.054-.042-.1-.047-.112-.004-.011-.05-.098-.02-.148.032-.05.046-.06.062-.062.017-.002.033-.003.05-.027.016-.024.034-.054.019-.08a.17.17 0 0 0-.056-.053c-.011-.006-.04-.008-.055-.01a.302.302 0 0 1-.115-.046c-.028-.025-.075-.072-.071-.091.004-.02 0-.046.032-.084.033-.038.064-.058.07-.063.007-.005.013-.012.013-.012ZM29.745 60.225s-.113-.024-.15.038c-.036.061-.045.102-.1.171-.055.07-.1.143-.162.157-.063.014-.073.003-.093-.016-.02-.018-.067-.058-.025-.138a.912.912 0 0 0 .079-.193c.005-.028.056-.12.064-.15s.013-.028.05-.094c.036-.067.066-.09.102-.147.043-.07.058-.171.063-.192a.295.295 0 0 1 .049-.112.459.459 0 0 0 .04-.062c.01-.02.006-.046 0-.078-.015-.064-.08-.11-.122-.127a.413.413 0 0 1-.144-.084c-.049-.046-.063-.055-.053-.085.011-.03.046-.052.09-.049.043.004.088.028.131.058.044.03.087.055.114.063.027.008.117.013.194.067.077.053.138.11.218.137.079.027.197.047.23.061.033.015.083.042.117.05.035.007.08.021.132.02.053-.003.085-.008.129.016a.28.28 0 0 0 .128.036c.036 0 .079.02.105.027a.172.172 0 0 0 .097-.01c.024-.011.053-.02.115.014a.696.696 0 0 1 .165.134c.01.018.022.098-.01.1-.032 0-.107-.013-.148-.012-.041.002-.146.008-.207-.025s-.105-.055-.15-.055a.406.406 0 0 1-.176-.045c-.048-.029-.16-.033-.2-.044-.039-.01-.225-.055-.296-.091-.071-.037-.107-.064-.137-.073-.03-.01-.125-.03-.15.047-.027.075-.055.19-.08.22-.023.031-.05.162-.05.162s-.017.09.057.109c.075.018.12.04.146.043.025.004.054-.01.07-.068.017-.058.031-.152.08-.168.048-.016.088-.005.122.057.034.061-.004.163-.022.191-.018.03-.084.093-.094.115-.01.022-.006.082.027.11.033.027.084.047.115.097.032.049.056.085.092.063.037-.022.048-.093.067-.13.018-.038.018-.09.052-.128.034-.038.017-.118.014-.149a.617.617 0 0 0-.027-.127c-.01-.019-.024-.061-.006-.077.019-.015.052-.003.075.05.024.053.04.114.054.18.014.066.055.157.012.252a1.119 1.119 0 0 0-.07.25.246.246 0 0 1-.068.104c-.024.02-.082.111-.096.13a.388.388 0 0 1-.147.108c-.068.024-.121.042-.161.028-.04-.013-.088-.027-.123-.046-.036-.02-.083-.066-.11-.087-.028-.021-.066-.029-.068-.068-.001-.039.015-.052.067-.06.051-.01.085-.003.116 0 .03.003.098.012.123.01a.217.217 0 0 0 .099-.038c.032-.023.056-.052.053-.07a.326.326 0 0 0-.127-.132.855.855 0 0 1-.2-.165.217.217 0 0 0-.063-.068l-.018-.012Zm.23-1.59s-.103-.022-.16.006c-.058.029-.117.048-.12.072-.004.023-.029.08.024.11.052.028.132.006.17.036.037.03.066.084.073.11.008.026.094.029.109-.007.015-.036.04-.064.027-.151-.013-.088-.011-.093-.028-.129-.017-.037-.035-.052-.054-.052-.02 0-.041.004-.041.004Zm-.878 1.032c.038-.123.025-.08.047-.125a.765.765 0 0 1 .099-.142c.052-.053.086-.048.133-.043.07.008.103.07.102.226 0 .073-.115.103-.191.15-.107.066-.228.056-.19-.066Z" clip-rule="evenodd"/><path fill="#000" fill-rule="evenodd" d="M116.679 61.99s.13-.504.198-.686c.068-.182.077-.509.103-.595.026-.086.147-.196.243-.226s.373-.025.613.357.358.735.421.89c.064.155.255.772-.047 1.084-.303.313-.593.36-.775.351-.182-.009-.557-.268-.66-.502a1.398 1.398 0 0 1-.099-.584l.003-.09Zm4.011-3.752s.024.315.115.517.165.398.244.487c.079.09.193.325.137.404a.364.364 0 0 1-.263.175c-.151.03-.448.043-.499.004-.051-.04-.238-.14-.238-.264-.001-.123.048-.466.02-.54-.029-.072-.087-.364-.155-.532-.068-.168-.233-.555-.323-.645-.091-.089-.22-.161-.338-.11-.118.051-.263.265-.211.54.052.275.033.849 0 1.017-.033.169-.039.412-.086.493-.046.083-.065.56-.043.667.021.107.196.501.44.376.244-.126.522-.304.728-.322.206-.018.567-.072.777-.094.211-.023.887-.024 1.051-.02.163.003.294 0 .38-.009.085-.009.784-.064 1.123-.116.338-.053.906-.252 1.324-.15.419.103.482.288.506.369.024.08-.084.314-.326.5a3.146 3.146 0 0 1-.696.389c-.137.052-.251.158-.231.29.019.133.116.137.21.142.095.004.933-.097 1.366-.36.432-.264.676-.539.812-.676.135-.136.447-.566.184-.85-.264-.283-.478-.462-.679-.51-.201-.049-.947-.03-1.171-.03-.225.001-.655.045-.755.056-.1.01-.294-.01-.289-.176.006-.166.23-.306.405-.484.176-.176.443-.467.491-.706.047-.24-.01-.572-.058-.799-.047-.227-.146-.323-.19-.488a.794.794 0 0 1 .048-.55c.091-.177.125-.507.038-.702-.086-.195-.269-.44-.389-.424-.119.016-.367.217-.446.281-.078.064-.441.437-.482.59a1.367 1.367 0 0 0-.044.42c.005.133-.236.59-.388.742-.151.154-.819.88-1.041.853a1.113 1.113 0 0 1-.551-.185c-.239-.14-.264-.113-.367-.044-.103.07-.16.213-.148.288.012.075.008.187.008.187Zm1.29.72s.481-.496.681-.707c.201-.21.451-.496.539-.593.089-.098.205-.268.298-.269.093 0 .296.115.293.266-.003.152-.021.52-.106.63-.084.11-.37.499-.795.827-.426.328-.662.52-.852.494-.19-.026-.225-.14-.242-.256-.016-.116-.019-.163.043-.226.057-.07.141-.166.141-.166Zm-.797 3.317.379.217c.139.079.452.331.396.637-.057.306-.069.742-.337.954-.268.213-.639.294-.849.36-.21.067-.653.126-.75.15-.095.025-.235.23-.126.33.109.1.257.143.478.194.22.05.377.11.485.121.108.012.317.05.485.066.169.015.525-.023.642.085.116.107.314.267.161.676-.154.41-.134.572-.279.731-.145.16-.332.366-.537.43-.205.064-.501.121-.615.149-.114.028-.278.255.011.369.29.114.603.079.741.064.138-.014.534-.205.901-.486.367-.28.495-.706.613-.836s.2-.48.103-.616c-.098-.136-.184-.244-.138-.314.046-.07.158-.253.48-.243.322.01.609.097.808.1.198.005.757.011 1.096-.224.339-.236.484-.517.42-.673-.064-.155-.251-.373-.685-.468-.433-.096-.565-.176-1.051-.174-.487.001-.578.003-.792.048-.214.046-.361.03-.441-.171-.079-.201-.045-.222-.008-.307a3.08 3.08 0 0 0 .132-.497c.019-.13.114-.558-.295-.804-.41-.247-.422-.21-.692-.276-.269-.066-.545-.093-.646-.058-.101.035-.198.113-.198.179.001.066.003.163.026.2a.535.535 0 0 0 .082.087ZM110.687 65.522s.18.277.202.486c.022.209.061.292.048.34-.013.049-.059.201-.011.256.048.054.169.22.302.159a.797.797 0 0 0 .297-.23c.044-.067.143-.25.199-.372.055-.122.123-.303.247-.406.124-.104.215-.182.337-.28.122-.096.205-.134.238-.195.033-.06.056-.221.024-.276a.594.594 0 0 0-.225-.171 9.245 9.245 0 0 0-.382-.128c-.056-.015-.089-.05-.217-.141-.127-.091-.224-.184-.329-.25a1.028 1.028 0 0 0-.333-.149c-.134-.032-.19-.054-.228-.069a2.64 2.64 0 0 0-.311-.032c-.056-.004-.258-.022-.324-.02a.802.802 0 0 0-.323.074c-.093.053-.199.237-.145.33.068.118.102.182.19.26.086.077.117.159.18.226.063.066.105.133.173.21.068.075.207.19.274.272a.365.365 0 0 0 .117.106Zm-2.268-5.832s.006.32-.034.41c-.041.089-.036.36-.085.435a1.192 1.192 0 0 1-.265.286c-.12.09-.319.157-.414.186-.096.029-.201.11-.343.093-.142-.018-.427-.038-.51-.023a.868.868 0 0 0-.322.14c-.076.063-.165.207-.145.275.019.068.211.293.295.358.083.064.34.2.445.244.105.045.271.092.31.182.038.09.155.364.094.453-.061.088-.049.2-.092.251-.043.051-.237.379-.322.465-.085.087-.158.362-.177.504-.018.141.019.332-.182.558-.202.227-.394.462-.461.513-.068.052-.202.292-.214.374-.013.082.063.195.109.233.046.038.171.11.314.032a1.7 1.7 0 0 0 .482-.43c.111-.158.357-.537.403-.628.046-.091.126-.36.248-.541a4.99 4.99 0 0 1 .447-.588c.144-.15.369-.59.408-.688.039-.098.238-.32.658-.398.42-.078.926-.146 1.124-.216.198-.07.413-.155.544-.25a1.2 1.2 0 0 1 .386-.168c.098-.026.4-.085.468-.105.07-.02.229-.051.344-.06.116-.009.471.035.666-.09.194-.124.294-.265.41-.412.116-.148.055-.226.027-.334-.066-.253-.368-.31-.629-.357-.116-.021-.292-.034-.398-.077-.386-.16-.595-.125-.972-.102-.252.015-.506.15-.762.155-.113.002-.214.047-.283.005-.069-.043-.272-.274-.267-.365.004-.092.031-.166.055-.274.025-.108.008-.162-.002-.217a1.533 1.533 0 0 1 .008-.435c.027-.133.1-.235.135-.352.037-.125.037-.264.058-.405.013-.089-.005-.534-.001-.596.004-.061.047-.335.06-.416.013-.08.11-.358-.09-.49-.314-.208-.731-.571-1.18-.512-.113.015-.44.119-.495.191-.054.073-.177.218-.069.313.115.102.342.26.423.45.114.27.205.345.12.683-.054.217-.032.553-.159.746-.027.04-.134.576-.146.633-.013.057-.022.36-.022.36ZM94.63 60.71s.363-.25.418-.545c.056-.293.065-.291-.12-.468-.186-.176-.234-.102-.355-.071-.121.03-.245.065-.3.043-.054-.022-.19-.073-.226-.126-.035-.054-.106-.29-.04-.432.065-.142.09-.31.103-.362.013-.053.055-.209.082-.3.027-.093.074-.311.051-.37a.558.558 0 0 0-.186-.21c-.063-.03-.198.006-.264.047-.067.041-.243.273-.295.443-.053.17-.081.553-.093.59-.013.037.039.181.047.265.009.084-.018.174-.047.317-.029.142.01.133-.127.277-.137.145-.16.213-.37.284-.21.07-.285.089-.342.107-.058.018-.351.184-.403.21-.052.028-.193.087-.238.13a.355.355 0 0 0-.095.207c.003.06.053.202.109.215.056.012.242.127.41.172.169.045.5.109.594.109.094 0 .21.02.344.151.135.132.185.218.2.297a.415.415 0 0 1-.051.252c-.032.036-.154.228-.41.331-.255.103-.552.27-.75.376-.198.106-.727.342-.887.458-.16.115-.5.4-.539.48-.04.08.098.345.16.404.062.06.28.06.4.03.122-.03.346-.06.595-.338.25-.28.349-.398.474-.481.125-.083.202-.102.282-.158.08-.056.154-.11.225-.128.07-.017.175-.014.346.087.171.1.169.183.175.207.006.025 0 .29-.11.581-.112.291-.123.316-.107.382a.63.63 0 0 1 .02.258c-.014.08-.019.167-.02.233a1.457 1.457 0 0 1-.062.302c-.02.045-.008.226-.026.3a1.702 1.702 0 0 1-.223.418c-.061.063-.14.159-.18.205-.041.046-.11.17-.088.234.024.065.096.16.144.183.048.023.081.043.212.018.13-.026.308-.228.338-.278.03-.05.05-.15.093-.203.043-.053.152-.235.181-.288.05-.091.168-.265.19-.364a1.34 1.34 0 0 1 .115-.342c.033-.05.075-.24.103-.308.027-.068.02-.25.05-.37.007-.025.105-.313.111-.32.036-.041.038-.334.031-.388-.006-.054-.035-.261-.05-.415-.013-.154-.026-.379.002-.416a.623.623 0 0 0 .066-.148c.014-.04.08-.12.174-.207a.7.7 0 0 1 .249-.166c.085-.03.055-.043.209-.097.154-.055.224-.036.302-.038.077-.003.229-.05.32-.072.09-.023.451-.108.533-.17.081-.061.178-.16.254-.202.075-.042.256-.184.387-.257.13-.072.498-.29.595-.337.097-.047.29-.164.5-.124.21.04.292.185.327.234.034.048.087.282.11.396.022.115.253.483.443.601.19.119.464.35.554.452.09.102.197.42.028.614-.167.193-.253.311-.34.406-.087.096-.253.32-.5.361-.246.04-.442.042-.532.035-.09-.006-.196.018-.322.03a.634.634 0 0 0-.285.09.48.48 0 0 0-.19.213c-.02.066.007.171.109.255.103.085.2.203.255.257.055.054.09.163.029.238-.06.075-.059.158-.158.182-.099.025-.287.038-.38.057-.093.02-.292.095-.37.16a.756.756 0 0 0-.2.314c-.011.075-.012.14.099.261.111.123.187.217.287.212.1-.004.208-.01.256-.015a.595.595 0 0 0 .228-.073c.097-.052.174-.116.265-.154.092-.04.291-.085.358-.11.066-.024.134-.093.217-.15.083-.058.203-.16.243-.179.04-.02.114-.104.19-.115.074-.011.067-.006.124-.01.056-.005.106-.025.162-.014.055.01.19.053.331.12.142.066.505.239.585.287.08.048.168.155.207.197.038.041.336.294.438.334.102.04.292.154.437.088.144-.067.23-.142.301-.21.072-.068.098-.193.121-.257.023-.063.046-.123.042-.172a1.756 1.756 0 0 0-.025-.178c-.012-.047-.076-.365-.131-.448-.055-.082-.313-.33-.372-.353-.06-.023-.265-.045-.329-.071-.064-.026-.23-.086-.271-.106-.041-.02-.186-.071-.209-.088-.021-.016-.254-.165-.293-.33-.038-.167.044-.246.07-.282.026-.035.126-.174.178-.257.052-.082.055-.141.104-.233a1.51 1.51 0 0 0 .11-.272c.022-.078.09-.186.104-.238.056-.193.111-.285.118-.44.001-.035 0-.234-.047-.297a2.194 2.194 0 0 0-.292-.294c-.102-.082-.205-.154-.262-.163-.058-.008-.052.016-.11-.005a1.502 1.502 0 0 1-.273-.128c-.048-.04-.186-.1-.328-.26-.141-.16-.287-.304-.333-.449a.434.434 0 0 1 .057-.36c.049-.07.19-.344.354-.467.163-.124.276-.281.343-.349.066-.068.216-.16.3-.222.084-.062.479-.474.619-.613.14-.14.237-.238.288-.282.05-.043.287-.32.269-.566a.992.992 0 0 0-.259-.56c-.083-.078-.27-.221-.431-.147-.161.074-.199.058-.248.277-.048.218.033.327-.064.477-.097.15-.238.362-.299.406-.06.044-.206.203-.257.245-.05.041-.088.07-.157.039-.068-.031-.17-.054-.193-.224-.023-.17-.01-.475.01-.58.019-.103.035-.165.057-.26.021-.095.036-.15.073-.233.037-.082.072-.21.095-.323.024-.111.048-.206.047-.239 0-.032-.03-.073-.098-.1-.07-.027-.21-.065-.288.01-.077.074-.18.503-.23.596-.05.093-.1.33-.132.41-.031.082-.033.321-.146.494-.112.173-.25.456-.269.544-.02.088-.053.445-.05.54a.56.56 0 0 1-.071.285c-.038.055-.2.264-.323.32-.122.057-.57.193-1.05.506-.479.313-.778.51-.954.617-.176.106-.52.358-.69.473-.171.116-.294.306-.543.223-.25-.084-.374-.194-.34-.388.035-.193.035-.251.133-.349.097-.097.228-.236.263-.27.036-.032.116-.077.116-.077ZM65.298 61.7s-.224-.312-.293-.543c-.07-.23-.059-.355.064-.59.122-.235.223-.532.286-.691.062-.159.2-.403.387-.604.187-.201.289-.37.308-.477.019-.107-.172-.375-.314-.429-.141-.053-.441-.133-.589.018a.917.917 0 0 0-.257.565c-.017.21-.12.446-.14.634-.02.189-.124.38-.124.657s.008.578-.03.695c-.036.117-.038.3-.038.432s-.001.337-.032.463c-.031.127.04.5.055.576.017.076.028.367.084.652.057.285.03.822.001.953-.027.132-.164.442-.174.556-.01.115.056.364.087.526.03.161.003.715-.023.974-.025.258.094.88.323 1.089.228.21.33.267.566.195.237-.072.658-.958.747-1.114.09-.156.378-.784.56-1.24.181-.456.245-.719.239-.84-.005-.122-.058-.206-.157-.242-.1-.036-.234.006-.275.087-.04.08-.083.458-.182.63-.1.171-.241.53-.413.744-.172.215-.202.348-.383.265-.182-.084-.174-.213-.178-.617a6.567 6.567 0 0 1 .056-1.018c.05-.434.215-.958.08-1.62-.135-.664-.26-.713-.26-.713l.019.026Zm3.888.128s-.126-.452-.212-.54c-.087-.087-.22-.215-.351-.124-.132.09-.2.266-.243.43-.043.164-.064.417-.078.59-.013.172.064.414.15.495.088.08.21.103.305.036a.953.953 0 0 0 .308-.337c.073-.151.144-.368.132-.46l-.01-.09Zm2.766-2.144s-.548.019-.737.078c-.19.058-.444.123-.69.197-.247.073-.442.186-.434.32.009.132.061.222.15.257.088.034.16-.052.282.043.12.095.23.243.155.35-.075.107-.356.332-.608.42-.252.087-.29.138-.294.24-.005.103.03.239.112.265.082.025.258-.036.319.013.06.05.166.197.138.267a1.22 1.22 0 0 1-.354.353c-.102.048-.208.143-.162.278.045.135.16.336.204.411.045.076.077.159-.043.338-.12.179-.366.444-.464.473a2.35 2.35 0 0 0-.44.229c-.14.09-.288.267-.3.308-.013.04.03.177.116.228.087.05.15-.001.278.065.129.066.25.109.293.224.044.116-.052.237-.092.3-.04.061-.15.355-.222.515-.071.159-.195.36-.205.502-.01.142-.02.225.116.306.136.082.252-.02.306-.095a.489.489 0 0 0 .095-.284c-.003-.104.063-.38.135-.504.072-.123.322-.55.368-.644.045-.094.309-.602.542-.734.233-.131.611-.194.815-.21.204-.018-.013.033.698-.055.712-.089.807-.1.883-.117.076-.016.596-.182.738-.311.141-.13.397-.4.41-.507.01-.107-.145-.435-.394-.385-.25.05-.543.374-1.025.4-.482.027-.666.042-.828.058-.161.017-.526.18-.616.188-.09.008-.257-.003-.294-.087-.036-.084-.153-.183.042-.335.194-.152.343-.177.503-.219.16-.041.49-.179.554-.372.064-.194-.037-.316-.18-.493-.144-.177-.073-.379.029-.437.102-.058.354-.304.514-.412.16-.108.43-.294.628-.375.199-.08.418-.304.464-.412.046-.108 0-.242-.072-.32-.071-.08-.248-.246-.42-.272-.172-.026-.53.023-.651.007-.121-.017-.214-.02-.263-.033-.049-.012-.099-.02-.099-.02Zm-.82-3.128s-.493.052-.74.134c-.247.081-.545.103-.674.02-.128-.083-.239-.141-.254-.248-.015-.108-.051-.333-.159-.356-.107-.024-.16-.013-.207.029-.046.041-.131.247-.158.39-.027.142-.042.354-.252.56-.21.208-.7.536-.81.606-.11.07-.354.233-.332.367.023.134.11.232.196.251.087.02.609-.106.736-.07.128.035.295.138.394.202.1.064.39.054.537.004.147-.05.252-.06.31.018.059.08.018.162-.026.309-.045.146-.055.27.136.413.192.142.465.266.748.244.284-.02.398-.047.683-.092.286-.045.603-.136.733-.26.129-.126.243-.26.115-.406-.129-.145-.265-.247-.505-.165-.24.081-.623.223-.67.241-.046.019-.132.012-.215-.042-.083-.053-.228-.174-.2-.24a.889.889 0 0 1 .242-.309c.123-.094.316-.184.69-.502.375-.319.619-.347.766-.343a2.3 2.3 0 0 0 .936-.213c.36-.178.555-.32.602-.583.047-.264-.392-.581-.572-.705-.18-.123-.5-.37-.711-.404-.212-.033-.399.132-.411.304-.013.172.038.458-.058.558a.825.825 0 0 1-.53.261c-.288.037-.34.027-.34.027Zm2.204 9.223s-.127-.13-.338-.158c-.212-.028-.364-.035-.429-.065s-.16-.031-.406.022c-.245.052-.52.105-.63.209-.11.104-.222.213-.168.308.054.094.21.225.362.383.151.159.223.15.246.292.023.142.047.377.096.47.05.092.191.235.295.253.103.018.3-.13.39-.314.088-.185.079-.3.158-.424.08-.124.23-.28.333-.377.105-.096.205-.224.216-.277a.602.602 0 0 0-.056-.26c-.025-.027-.069-.062-.069-.062ZM81.66 57.168c.212-.383-.377-.715-.651-.763-.338-.059-.498-.121-.672.189-.049.087.005.32.05.553.052.274.107.511.288.583.228.09.247.095.524-.116.139-.106.363-.28.461-.446Zm2.772 3.65s.163-.695-.048-1.1c-.21-.406-.375-.392-.485-.871-.11-.479-.23-.463-.314-.514-.085-.05-.175-.017-.257.089-.082.106-.148.243-.114.323.035.079.236.542.304.678.067.136.268.427.314.69.046.263.04.72-.046.978-.087.257-.527 1.273-.556 1.555-.03.283-.038.56.191.725.23.165.578.126 1.226-.24.647-.367.958-.435 1.149-.485.19-.05.407-.12.549.123.141.241.13.633.09.917-.04.283-.115.74-.118.98-.002.24-.081.632-.106.793-.025.16-.053.742-.064.795-.01.054.059.147.13.184.07.036.263-.22.289-.266.025-.045.12-.371.148-.454.028-.083.152-.352.166-.52.014-.166.1-.513.11-.565.01-.052.083-.43.143-.69.06-.26.188-1.01.21-1.234.024-.225-.041-.33.004-.502.046-.171.064-.313.267-.577.202-.264.195-.326.356-.46.16-.135.273-.345.308-.427a.236.236 0 0 0-.025-.255c-.066-.091-.15-.103-.226-.103-.076 0-.186.066-.249.098s-.179.062-.273.005c-.095-.057-.25-.042-.193-.429.057-.387.04-.524.011-.616-.028-.092-.047-.496-.044-.545.003-.05-.07-.23-.151-.404a1.223 1.223 0 0 1-.124-.467 1.05 1.05 0 0 0-.048-.308c-.03-.08-.038-.15-.058-.24-.02-.09-.063-.238-.163-.257-.101-.02-.173-.035-.241.035s-.095.194-.108.289a.58.58 0 0 1-.08.224c-.036.06-.096.34-.078.522.019.182-.037.387-.044.447-.007.06.004.35.05.495.045.147.06.453.052.578-.007.125.043.38.01.548-.033.167-.015.355.018.468.028.094.194.641-.363 1.12-.09.076-.25.144-.376.19-.735.269-.76.293-1.072.112-.312-.18-.219-.441-.205-.595.014-.154.1-.59.114-.668.016-.078.02-.168.02-.168Zm-2.998-.145s.638-.432.676-.588c.038-.156.062-.28-.082-.377-.144-.097-.212-.029-.313-.035-.101-.007-.497.337-.571.37a.305.305 0 0 1-.33-.024c-.15-.099-.394-.351-.564-.18-.17.17-.262.568-.383.66-.12.091-.54.341-.813.334-.272-.008-.443.167-.602.215-.159.049-.303.106-.498.124-.195.018-.516.061-.62.128a.86.86 0 0 0-.264.238c-.058.093-.066.279.047.435.114.156.294.376.638.369.345-.008.548-.177.726-.344.177-.167.455-.364.586-.425.131-.06.41-.3.592-.234.182.066.47.274.44.53-.031.256-.094.955-.264 1.107-.17.152-.768 1.036-1.023 1.277-.256.242-.258.338-.594.581-.336.244-.432.368-.46.507-.027.138.05.278.226.332.174.053.525-.093.78-.466.256-.372.17-.31.42-.558.25-.249.306-.282.436-.39.13-.107.248-.24.383-.214.134.027.369.194.385.353.015.16-.123.555.119.832.242.277.313.265.401.235a.438.438 0 0 0 .308-.444c-.013-.302-.117-.581-.13-.649-.012-.067-.162-.578.056-.812.218-.234.307-.274.396-.267.09.008.177.02.291-.09.114-.111.243-.251.191-.408-.051-.157-.194-.296-.244-.343-.05-.046-.2-.085-.28-.115-.082-.03-.447-.203-.57-.37-.123-.167-.323-.467-.28-.565.043-.098.05-.244.264-.411.214-.168.402-.245.442-.266.04-.021.082-.052.082-.052ZM53.181 61.964s-.332-.532-.712-.444c-.38.089-.572.205-1.05.25-.48.046-.937.151-1.226-.042-.29-.193-.285-.272-.29-.422-.003-.15-.026-.482.45-.618.475-.136.923-.337 1.051-.422.127-.084.68-.226.827-.31.147-.084.161-.055.559-.164.398-.108.602-.077.958-.151.437-.09.895-.417.992-.479.096-.061.323-.187.624-.23.153-.02.278-.042.393-.077.11-.035.204-.15.3-.294.199-.297.139-.73.043-.96-.096-.229-.208-.512-.213-.876-.005-.363-.024-.452.134-.526.158-.074.374-.018.525.164.15.183.226.454.272.736.047.281.113.544.181.68.069.137.39.508.471 1.013.082.505.093.954.284 1.368.19.415.561.952.628 1.137.067.184.148.48.249.643.1.163.215.392.42.591.204.2.348.307.418.567.07.26.204.495.34.637.136.143.222.385.294.517.072.132.266.29.402.34.136.05.276.132.382.501.105.37.129 1.04.097 1.15-.03.111-.304.458-.426.336-.122-.121-.355-.464-.517-.62-.163-.155-.581-.543-.681-.906-.101-.363-.18-.618-.348-.795-.17-.176-.422-.556-.49-.856-.068-.3-.472-.752-.578-.948-.105-.196-.633-1.092-.76-1.507-.128-.416-.153-.66-.232-.811-.08-.152-.353-.599-.75-.414-.397.184-.952.502-1.162.525-.21.024-.828.406-.828.406s-.415.277-.205.64c.21.361.299.62.378.731.08.112.244.175.532.021.287-.154.71-.451.955-.323s.356.33.241.693c-.114.364-.652.598-.832.636-.18.039-.68.023-.804.066-.125.044-.346.281-.327.515.019.234.128.51.054.82-.074.31-.127.537.1.6.225.06.544-.168.76-.236.216-.068.423-.266.697-.275.273-.008.526-.376.633-.504.108-.129.364-.474.4-.584.035-.11.146-.329.275-.314.13.015.21.192.09.482-.119.291-.296.586-.502.89-.206.304-.41.806-.944.994-.533.189-1.124.582-1.242.667-.12.086-.492.152-.662.131-.171-.021-.745.094-.875.112-.13.017-.63.007-.978-.17-.347-.176-.616-.317-.713-.523-.096-.207-.226-.448-.282-.66-.057-.21-.052-.57-.075-.758-.023-.188-.138-.366.01-.517.146-.152.26-.139.488.03.228.169.332.324.436.457.105.132.324.432.43.519.105.087.3.21.516.247.215.038.415.024.474-.055.06-.079.142-.518.04-.997-.101-.478-.165-1.174-.107-1.403.058-.229.047-.393.028-.507l-.02-.114Zm7.094-5.099s-.305-.48-.632-.6-.627-.276-.73-.202c-.104.075-.425.197-.34.51.087.312.473.541.497.802.025.26-.08.577-.153.705s.242.475.437.4c.195-.077.4-.084.694-.465.294-.38.319-.393.398-.596.08-.203.072-.334 0-.409-.072-.075-.17-.145-.17-.145Zm-7.352.456c.624-.313.41-.204.668-.285.257-.08.746-.155.928-.152.402.008.513.159.668.36.236.307.11.67-.501 1.252-.287.273-.834-.061-1.307-.183-.661-.17-1.08-.68-.456-.992ZM50.732 73.13l-.526-1.982h.27l.3 1.3c.033.136.061.27.085.405.05-.212.08-.334.089-.366l.377-1.34h.317l.284 1.004c.071.25.123.483.154.702a9.9 9.9 0 0 1 .099-.431l.31-1.274h.265l-.544 1.983h-.253l-.418-1.511a6.476 6.476 0 0 1-.062-.233c-.02.091-.04.169-.058.233L51 73.13h-.268ZM54.456 71.148h.262v1.145c0 .2-.023.358-.068.475a.58.58 0 0 1-.244.286.866.866 0 0 1-.463.11.952.952 0 0 1-.456-.096.548.548 0 0 1-.253-.278 1.324 1.324 0 0 1-.076-.497v-1.145h.263v1.144c0 .172.016.299.048.38a.365.365 0 0 0 .165.19.572.572 0 0 0 .286.066c.193 0 .33-.044.412-.132.082-.087.123-.255.123-.504v-1.144ZM55.317 73.13v-1.982h.262v.814h1.03v-.814h.263v1.983h-.262v-.935h-1.03v.934h-.263ZM57.245 73.13l.761-1.982h.283l.812 1.983h-.3l-.23-.601h-.83l-.217.6h-.279Zm.572-.814h.672l-.206-.549a5.315 5.315 0 0 1-.141-.411 2.569 2.569 0 0 1-.107.379l-.218.581ZM59.462 73.13v-1.982h.269l1.041 1.556v-1.556h.252v1.983h-.27l-1.04-1.559v1.558h-.252ZM63.534 71.148h.262v1.145c0 .2-.022.358-.067.475a.58.58 0 0 1-.244.286.866.866 0 0 1-.464.11.953.953 0 0 1-.456-.096.549.549 0 0 1-.252-.278 1.326 1.326 0 0 1-.076-.497v-1.145h.262v1.144c0 .172.016.299.048.38a.366.366 0 0 0 .165.19.572.572 0 0 0 .286.066c.194 0 .33-.044.413-.132.082-.087.123-.255.123-.504v-1.144ZM64.384 73.13v-1.982h.27l1.04 1.556v-1.556h.252v1.983h-.269l-1.041-1.559v1.558h-.252ZM66.586 73.13h.262v-1.982h-.262v1.983ZM68.032 73.13l-.769-1.982h.284l.516 1.44c.041.116.076.224.104.325.03-.108.066-.217.107-.325l.535-1.44h.268l-.776 1.983h-.27ZM69.472 73.13v-1.982h1.434v.234h-1.172v.607h1.097v.233h-1.097v.675h1.218v.233h-1.48ZM71.472 73.13v-1.982h.879c.177 0 .311.017.403.053a.442.442 0 0 1 .22.189c.056.09.083.19.083.299 0 .14-.046.259-.137.355-.09.097-.231.158-.421.184a.67.67 0 0 1 .157.1c.077.07.15.157.218.263l.345.54h-.33l-.262-.413a3.72 3.72 0 0 0-.19-.273.602.602 0 0 0-.133-.133.395.395 0 0 0-.12-.052.779.779 0 0 0-.145-.01h-.305v.88h-.262Zm.262-1.107h.564c.12 0 .214-.013.282-.037a.299.299 0 0 0 .154-.12.322.322 0 0 0 .053-.177.295.295 0 0 0-.103-.232c-.068-.06-.175-.09-.322-.09h-.628v.656ZM73.533 72.493l.247-.021c.012.099.04.18.082.244.043.064.11.115.2.154.09.04.191.059.304.059.1 0 .189-.015.265-.045a.368.368 0 0 0 .171-.122.284.284 0 0 0 .056-.17.257.257 0 0 0-.054-.163.4.4 0 0 0-.178-.117 3.51 3.51 0 0 0-.353-.096 1.797 1.797 0 0 1-.383-.124.539.539 0 0 1-.212-.185.454.454 0 0 1-.07-.247c0-.1.029-.193.086-.28a.527.527 0 0 1 .249-.198.943.943 0 0 1 .364-.068c.146 0 .276.024.388.07a.561.561 0 0 1 .357.522l-.252.02a.405.405 0 0 0-.137-.285c-.078-.064-.193-.096-.346-.096-.158 0-.274.03-.347.087a.262.262 0 0 0-.108.21c0 .072.025.13.077.177.05.046.182.093.395.14.213.05.36.091.44.127.115.054.2.121.255.203a.493.493 0 0 1 .082.281c0 .106-.03.206-.09.299a.596.596 0 0 1-.26.218.907.907 0 0 1-.383.077c-.18 0-.33-.026-.45-.078a.632.632 0 0 1-.286-.236.668.668 0 0 1-.11-.356ZM75.668 73.13h.263v-1.982h-.263v1.983ZM77.052 73.13v-1.748h-.654v-.234h1.572v.234h-.656v1.748h-.262ZM78.952 73.13v-.84l-.764-1.142h.319l.39.598c.073.111.14.223.202.335a7.3 7.3 0 0 1 .216-.35l.384-.583h.306l-.79 1.143v.84h-.263ZM80.88 72.165c0-.33.089-.587.265-.773a.902.902 0 0 1 .685-.28.95.95 0 0 1 .495.132c.147.087.259.21.336.366.077.156.116.333.116.532 0 .2-.041.38-.122.54a.832.832 0 0 1-.345.36.984.984 0 0 1-.481.122.938.938 0 0 1-.501-.135.87.87 0 0 1-.334-.37 1.118 1.118 0 0 1-.114-.494Zm.27.004c0 .239.065.427.194.565.128.137.29.206.483.206.198 0 .36-.07.488-.209.127-.138.191-.335.191-.59 0-.162-.027-.303-.082-.423a.628.628 0 0 0-.593-.38.67.67 0 0 0-.48.192c-.133.127-.2.34-.2.639ZM83.282 73.13v-1.982h1.338v.234h-1.076v.614h.931v.234h-.93v.9h-.263ZM85.641 72.493l.247-.021c.012.099.04.18.083.244.042.064.109.115.199.154.09.04.192.059.304.059.1 0 .189-.015.265-.045a.367.367 0 0 0 .171-.122.284.284 0 0 0 .057-.17.259.259 0 0 0-.054-.163.402.402 0 0 0-.18-.117 3.51 3.51 0 0 0-.352-.096 1.804 1.804 0 0 1-.383-.124.536.536 0 0 1-.211-.185.451.451 0 0 1-.07-.247c0-.1.028-.193.085-.28a.527.527 0 0 1 .249-.198.943.943 0 0 1 .364-.068c.147 0 .276.024.389.07a.56.56 0 0 1 .258.21.6.6 0 0 1 .098.312l-.251.02a.407.407 0 0 0-.138-.285c-.078-.064-.193-.096-.345-.096-.16 0-.275.03-.347.087a.262.262 0 0 0-.11.21c0 .072.026.13.078.177.05.046.182.093.395.14.214.05.36.091.44.127a.6.6 0 0 1 .255.203.493.493 0 0 1 .082.281.54.54 0 0 1-.09.299.598.598 0 0 1-.26.218.906.906 0 0 1-.383.077c-.179 0-.33-.026-.45-.078a.63.63 0 0 1-.286-.236.669.669 0 0 1-.109-.356ZM89.147 72.435l.262.067a.883.883 0 0 1-.297.493.818.818 0 0 1-.524.17.941.941 0 0 1-.521-.131.815.815 0 0 1-.306-.378 1.352 1.352 0 0 1-.105-.532c0-.206.04-.386.118-.54a.81.81 0 0 1 .337-.35.983.983 0 0 1 .481-.12c.198 0 .365.05.5.151.136.101.23.243.283.427l-.258.06a.613.613 0 0 0-.2-.315.533.533 0 0 0-.33-.099.642.642 0 0 0-.383.11.58.58 0 0 0-.215.294c-.042.123-.062.25-.062.38 0 .17.024.317.073.442.05.126.126.22.23.283a.642.642 0 0 0 .336.093.565.565 0 0 0 .374-.127.652.652 0 0 0 .207-.378ZM89.93 73.13h.263v-1.982h-.262v1.983ZM90.815 73.13v-1.982h1.434v.234h-1.171v.607h1.096v.233h-1.096v.675h1.217v.233h-1.48ZM92.809 73.13v-1.982h.269l1.041 1.556v-1.556h.252v1.983h-.27l-1.04-1.559v1.558h-.252ZM96.38 72.435l.263.067a.883.883 0 0 1-.297.493.818.818 0 0 1-.524.17.941.941 0 0 1-.522-.131.813.813 0 0 1-.305-.378 1.347 1.347 0 0 1-.105-.532c0-.206.04-.386.118-.54a.81.81 0 0 1 .337-.35.985.985 0 0 1 .48-.12c.199 0 .366.05.501.151.135.101.23.243.283.427l-.259.06a.61.61 0 0 0-.2-.315.534.534 0 0 0-.33-.099.64.64 0 0 0-.382.11.577.577 0 0 0-.216.294c-.041.123-.062.25-.062.38 0 .17.025.317.074.442a.55.55 0 0 0 .23.283.642.642 0 0 0 .336.093.564.564 0 0 0 .373-.127.652.652 0 0 0 .207-.378ZM97.125 73.13v-1.982h1.434v.234h-1.172v.607h1.097v.233h-1.097v.675h1.218v.233h-1.48ZM99.366 73.13l.761-1.982h.283l.811 1.983h-.299l-.231-.601h-.83l-.217.6h-.278Zm.572-.814h.672l-.207-.549a5.668 5.668 0 0 1-.141-.411 2.498 2.498 0 0 1-.107.379l-.217.581ZM101.582 73.13v-1.982h.269l1.042 1.556v-1.556h.251v1.983h-.269l-1.041-1.559v1.558h-.252ZM103.739 73.13v-1.982h.683c.154 0 .272.01.353.028a.67.67 0 0 1 .291.142.803.803 0 0 1 .234.339c.052.137.078.295.078.471 0 .15-.017.284-.053.4a.968.968 0 0 1-.135.29.722.722 0 0 1-.18.18.745.745 0 0 1-.237.099 1.352 1.352 0 0 1-.318.034h-.716Zm.262-.233h.424c.13 0 .233-.013.307-.037a.436.436 0 0 0 .178-.103.62.62 0 0 0 .146-.25c.034-.106.052-.233.052-.383 0-.207-.034-.367-.102-.478a.517.517 0 0 0-.249-.224 1.02 1.02 0 0 0-.339-.04h-.417v1.514ZM106.962 73.13v-1.748h-.653v-.234h1.571v.234h-.655v1.748h-.263ZM108.309 73.13v-1.982h1.433v.234h-1.171v.607h1.097v.233h-1.097v.675h1.218v.233h-1.48ZM111.72 72.435l.262.067a.883.883 0 0 1-.297.493.82.82 0 0 1-.524.17.94.94 0 0 1-.521-.131.816.816 0 0 1-.306-.378 1.347 1.347 0 0 1-.105-.532c0-.206.04-.386.118-.54a.816.816 0 0 1 .337-.35.986.986 0 0 1 .481-.12c.199 0 .365.05.501.151a.786.786 0 0 1 .282.427l-.258.06a.615.615 0 0 0-.2-.315.536.536 0 0 0-.33-.099.639.639 0 0 0-.382.11.573.573 0 0 0-.216.294 1.17 1.17 0 0 0-.062.38c0 .17.024.317.073.442.05.126.126.22.229.283a.647.647 0 0 0 .337.093.567.567 0 0 0 .374-.127.656.656 0 0 0 .207-.378ZM112.467 73.13v-1.982h.263v.814h1.03v-.814h.263v1.983h-.263v-.935h-1.03v.934h-.263ZM114.611 73.13v-1.982h.269l1.041 1.556v-1.556h.252v1.983h-.269l-1.042-1.559v1.558h-.251ZM116.688 72.165c0-.33.088-.587.265-.773a.902.902 0 0 1 .684-.28c.184 0 .348.044.495.132.147.087.259.21.337.366.077.156.115.333.115.532 0 .2-.04.38-.122.54a.833.833 0 0 1-.344.36.989.989 0 0 1-.482.122.935.935 0 0 1-.5-.135.865.865 0 0 1-.334-.37 1.116 1.116 0 0 1-.114-.494Zm.27.004c0 .239.065.427.193.565.129.137.29.206.484.206.197 0 .36-.07.487-.209.128-.138.192-.335.192-.59 0-.162-.028-.303-.082-.423a.637.637 0 0 0-.593-.38.672.672 0 0 0-.48.192c-.134.127-.201.34-.201.639ZM119.065 73.13v-1.982h.263v1.749h.976v.233h-1.239ZM120.691 72.165c0-.33.088-.587.265-.773a.902.902 0 0 1 .684-.28.95.95 0 0 1 .495.132c.147.087.259.21.336.366.078.156.116.333.116.532 0 .2-.04.38-.122.54a.83.83 0 0 1-.345.36.982.982 0 0 1-.481.122.933.933 0 0 1-.5-.135.873.873 0 0 1-.335-.37 1.129 1.129 0 0 1-.113-.494Zm.27.004c0 .239.065.427.193.565.129.137.29.206.484.206.197 0 .36-.07.487-.209.128-.138.192-.335.192-.59 0-.162-.028-.303-.082-.423a.627.627 0 0 0-.24-.28.648.648 0 0 0-.353-.1.672.672 0 0 0-.48.192c-.134.127-.201.34-.201.639ZM124.007 72.353v-.233l.84-.001v.736c-.129.102-.262.18-.399.231a1.183 1.183 0 0 1-.953-.047.826.826 0 0 1-.36-.362 1.129 1.129 0 0 1-.122-.528c0-.193.04-.374.121-.54a.808.808 0 0 1 .348-.373c.152-.082.326-.122.524-.122.143 0 .273.023.388.07a.646.646 0 0 1 .273.194.853.853 0 0 1 .15.324l-.237.065a.703.703 0 0 0-.111-.238.453.453 0 0 0-.189-.138.694.694 0 0 0-.273-.053.802.802 0 0 0-.311.055.589.589 0 0 0-.212.144.705.705 0 0 0-.125.196c-.05.123-.076.256-.076.4 0 .176.031.324.092.443a.585.585 0 0 0 .265.265c.117.058.24.087.371.087a.878.878 0 0 0 .333-.066.86.86 0 0 0 .246-.14v-.37h-.583ZM125.946 73.13v-.84l-.764-1.142h.319l.391.598c.072.111.139.223.202.335.059-.104.131-.22.216-.35l.384-.583H127l-.791 1.143v.84h-.263Z" clip-rule="evenodd"/></g><defs><filter id="a" width="154" height="157" x="0" y="0" color-interpolation-filters="sRGB" filterUnits="userSpaceOnUse"><feFlood flood-opacity="0" result="BackgroundImageFix"/><feColorMatrix in="SourceAlpha" result="hardAlpha" values="0 0 0 0 0 0 0 0 0 0 0 0 0 0 0 0 0 0 127 0"/><feOffset dy="16"/><feGaussianBlur stdDeviation="6.5"/><feColorMatrix values="0 0 0 0 0 0 0 0 0 0 0 0 0 0 0 0 0 0 0.03 0"/><feBlend in2="BackgroundImageFix" result="effect1_dropShadow_249_0"/><feBlend in="SourceGraphic" in2="effect1_dropShadow_249_0" result="shape"/></filter></defs></svg>