<svg xmlns="http://www.w3.org/2000/svg" xml:space="preserve" style="fill-rule:evenodd;clip-rule:evenodd;stroke-linejoin:round;stroke-miterlimit:2" viewBox="0 0 154 157"><path d="M47.474 74.79a6.308 6.308 0 0 0-4.109 1.376 8.162 8.162 0 0 0-.78.72c-.512.528-1.128.843-1.857.916-.985.099-1.828-.218-2.513-.932-.54-.564-1.142-1.041-1.84-1.393a6.187 6.187 0 0 0-2.199-.659 9.92 9.92 0 0 0-1.104-.042c-1.52.021-2.865-1.171-3.003-2.68-.025-.27-.011-.544-.018-.816-.041-1.557-.558-2.935-1.572-4.12-.237-.276-.51-.522-.753-.794-.774-.865-.945-2.205-.437-3.25.205-.422.519-.748.843-1.074 1.026-1.031 1.654-2.268 1.85-3.711a8.17 8.17 0 0 0 .062-1.232c-.028-1.528 1.141-2.872 2.665-3.029.255-.026.515-.013.772-.018 1.656-.026 3.097-.602 4.331-1.699.2-.178.375-.386.572-.568 1.215-1.124 3.131-1.026 4.245.198a6.294 6.294 0 0 0 2.478 1.655 6.745 6.745 0 0 0 2.603.412c1.541-.044 2.889 1.146 3.035 2.675.025.271.011.544.017.816a6.451 6.451 0 0 0 1.619 4.179c.23.264.506.489.725.761.78.97.916 2.038.432 3.184-.173.41-.465.732-.78 1.039-1.117 1.087-1.773 2.407-1.949 3.956-.046.408-.027.822-.045 1.234a2.933 2.933 0 0 1-.84 1.959c-.434.452-.96.748-1.576.86-.286.053-.582.053-.874.077ZM33.472 54.328c-.079 0-.158.002-.237-.001-.566-.018-1.099.105-1.575.413-.914.59-1.359 1.436-1.332 2.525.01.438-.01.874-.085 1.306a6.592 6.592 0 0 1-2.025 3.773c-.471.445-.772.976-.871 1.613-.129.829.062 1.583.601 2.231.209.252.467.465.684.711 1.073 1.217 1.644 2.637 1.697 4.262.008.268-.01.538.013.805a2.787 2.787 0 0 0 2.863 2.528 6.65 6.65 0 0 1 2.164.266 6.687 6.687 0 0 1 2.858 1.721c.184.184.369.373.579.524 1.118.804 2.711.635 3.642-.374a6.56 6.56 0 0 1 2.833-1.818 6.95 6.95 0 0 1 2.35-.325 2.8 2.8 0 0 0 .784-.092c1.276-.338 2.118-1.496 2.074-2.816a6.593 6.593 0 0 1 1.794-4.791c.18-.194.383-.368.556-.568.934-1.076.882-2.747-.122-3.756-.333-.336-.669-.667-.948-1.051a6.601 6.601 0 0 1-1.285-3.764c-.007-.268.01-.538-.014-.805-.128-1.453-1.401-2.571-2.86-2.518a6.598 6.598 0 0 1-1.623-.131 6.584 6.584 0 0 1-3.503-1.966c-.419-.445-.913-.75-1.512-.862-.993-.185-1.861.069-2.574.794a7.955 7.955 0 0 1-.983.879c-1.175.858-2.491 1.28-3.943 1.287Z" style="fill:#c6001a;fill-rule:nonzero" transform="translate(-73.671 -161.657) scale(3.72856)"/><path d="M29.219 64.404c.01-6.236 5.113-11.206 11.216-11.185 6.235.021 11.224 5.151 11.159 11.305-.065 6.141-5.1 11.103-11.226 11.077-6.232-.026-11.16-5.128-11.149-11.197ZM40.42 53.529c-6.006-.011-10.942 4.909-10.891 10.979.049 5.925 4.889 10.782 10.88 10.784 6.008.002 10.94-4.925 10.875-11.004-.063-5.925-4.908-10.752-10.864-10.759Z" style="fill:#c6001a;fill-rule:nonzero" transform="translate(-73.671 -161.657) scale(3.72856)"/><path d="M45.308 69.117h-.954c-1.339 0-2.679.001-4.019-.003a.261.261 0 0 1-.166-.07c-.262-.254-.519-.514-.777-.772l-.118-.113c-.044.055-.079.108-.124.153-.247.25-.495.499-.745.745-.03.029-.078.057-.118.057-.795.004-1.591.003-2.412.003.043-.046.071-.079.102-.11.269-.267.549-.524.804-.804.118-.129.207-.293.275-.456a.831.831 0 0 0-.151-.921c-.449-.516-.903-1.029-1.354-1.543a2.29 2.29 0 0 1-.075-.088c.232 0 .456-.004.68.001.484.011.967.03 1.45.038.102.001.16.028.187.128.017.061.049.118.074.177-.06.072-.11.063-.149-.013-.055-.105-.139-.131-.255-.131-.448.001-.895-.01-1.343-.017h-.175c.047.056.074.091.104.124l.98 1.112c.409.465.459.963.116 1.485-.145.223-.34.413-.514.616-.024.029-.055.052-.101.095.181.011.319.028.445-.12.244-.286.511-.551.772-.823.372-.389.448-.839.285-1.342l-.02-.063.191-.105c.107.212.143.428.145.651.003.372-.124.693-.38.963-.229.242-.456.486-.683.729l-.104.116c.172 0 .314.004.455-.003.031-.002.066-.039.091-.067.291-.316.58-.634.869-.952.031-.034.058-.073.091-.115l.182.162-.421.484-.418.482c.149.017.259.023.368-.088.286-.295.589-.575.893-.869l.582.559c.103.099.216.19.307.3.102.122.223.118.384.099l-.847-.968.174-.152.212.23c.253.278.506.557.763.831a.242.242 0 0 0 .145.065c.12.01.241.003.39.003-.041-.048-.063-.078-.088-.105-.235-.251-.474-.499-.704-.754-.418-.462-.461-.988-.253-1.553.005-.013.015-.024.027-.044l.182.091c-.028.133-.064.26-.08.39-.047.381.063.715.327.996.26.276.533.542.779.83.127.15.265.169.458.115-.033-.024-.068-.044-.098-.072-.251-.233-.474-.488-.615-.805-.2-.45-.149-.866.177-1.239.343-.395.691-.786 1.036-1.178l.089-.105c-.206 0-.386-.002-.567.001-.311.003-.623.014-.935.01-.123-.002-.214.024-.272.138-.034.067-.081.074-.142.007.035-.084.069-.174.112-.259.011-.022.05-.041.076-.042.716-.021 1.433-.039 2.149-.058.012 0 .025.005.055.01-.112.129-.213.247-.316.364-.352.401-.696.809-1.059 1.201-.327.353-.366.764-.125 1.184.199.348.494.608.811.864.193-.375.259-.761.224-1.171a1.59 1.59 0 0 0-.491-1.058c.206-.034 4.438-.008 4.697.028a6.569 6.569 0 0 0 .364-2.272 6.702 6.702 0 0 0-.729-2.982c-.086.096-.162.18-.236.265-.232.264-.462.529-.695.791-.026.029-.068.061-.103.062-.2.006-.401.002-.601.002a.285.285 0 0 1-.023-.026c.022-.026.04-.065.068-.075.095-.032.192-.063.29-.077a.577.577 0 0 0 .381-.232c.148-.184.309-.357.464-.535.022-.026.041-.054.076-.101l-.664.061-2.534.244a1.574 1.574 0 0 0-.845.343c-.295.237-.574.495-.852.753-.276.256-.54.526-.874.707-.79.428-1.569.389-2.296-.129-.344-.245-.638-.561-.95-.851-.324-.3-.646-.606-1.079-.741a3.115 3.115 0 0 0-.6-.105c-.955-.096-1.911-.185-2.866-.276h-.07c.028.039.044.065.063.087.189.217.375.434.568.646a.351.351 0 0 0 .15.091c.137.043.278.071.415.112.03.009.052.048.078.074l-.021.03c-.204 0-.407.001-.611-.002a.107.107 0 0 1-.071-.036c-.373-.421-.743-.844-1.13-1.283.053 0 .085-.003.118 0 .56.054 1.119.105 1.679.165.109.011.162-.017.212-.118a7.18 7.18 0 0 1 1.735-2.247c.014-.012.029-.021.045-.032l.236.345a6.881 6.881 0 0 0-1.629 2.101l.38.04c.339.033.678.062 1.016.097.459.048.848.255 1.187.555.248.221.483.458.723.688.285.274.574.549.951.687.707.259 1.372.168 1.957-.316.324-.269.62-.573.927-.862.316-.297.65-.573 1.079-.679.269-.066.55-.091.827-.119.976-.097 1.953-.187 2.93-.281.027-.002.053-.01.082-.015-1.172-2.303-4.401-4.445-8.197-3.192l-.183-.381c.169-.053.336-.113.507-.157 1.975-.509 3.851-.267 5.609.773a7.107 7.107 0 0 1 2.677 2.812c.511.953.79 1.969.843 3.049a7.161 7.161 0 0 1-.352 2.604c-.026.079-.011.12.053.17.402.311.568.868.419 1.385-.143.497-.53.824-1.054.876-.203.02-.408.026-.611.017a.37.37 0 0 0-.321.143 7.048 7.048 0 0 1-2.11 1.618 7.064 7.064 0 0 1-2.96.768 7.087 7.087 0 0 1-4.072-1.068 7.188 7.188 0 0 1-2.8-3.162 7.018 7.018 0 0 1-.644-2.623 6.971 6.971 0 0 1 .153-1.89c.022-.099-.007-.165-.086-.24.044-.003.07-.007.096-.007 1.078.02 2.156.042 3.234.059.077.002.115.026.141.097.036.101.081.198.124.299-.061.062-.117.082-.161-.007-.082-.168-.215-.198-.392-.2-.813-.009-1.626-.033-2.439-.052h-.156c.127.144.221.279.343.377.071.058.188.057.285.082.088.022.088.022.067.134-.14 0-.283.004-.425-.003-.032-.002-.064-.04-.091-.067-.051-.053-.099-.11-.153-.171-.491 2.204.358 5.483 3.392 7.17 3.042 1.691 6.434.685 8.195-1.253Zm-2.603-.236h.132c.83 0 1.661.001 2.492-.001.447-.001.895-.001 1.342-.013a.818.818 0 0 0 .535-.194c.305-.271.374-.624.327-1.008-.035-.282-.146-.531-.393-.698-.197-.134-.423-.17-.655-.17-1.221-.002-2.442-.001-3.663-.001-.037 0-.074.004-.114.006.286.697.29 1.38-.003 2.079Z" style="fill:#c6001a;fill-rule:nonzero" transform="translate(-73.671 -161.657) scale(3.72856)"/><path d="M36.064 58.341a.85.85 0 0 1 .852-.842.854.854 0 0 1 .841.855.856.856 0 0 1-.854.843.852.852 0 0 1-.839-.856ZM31.234 63.123c.042.171.075.327.12.479.011.037.054.069.09.093.028.019.076.013.099.035.045.043.079.098.117.148-.047.035-.094.071-.142.104-.01.008-.024.01-.036.013.009.188.246.332.395.36.028.006.053.025.08.038-.015.025-.024.057-.045.075-.118.105-.45.135-.581.046-.041-.028-.09-.097-.081-.133.014-.055.076-.097.116-.144-.052-.086-.103-.206-.186-.299-.067-.075-.169-.12-.26-.171-.058-.033-.123-.052-.194-.081-.011.02-.021.052-.043.072-.03.029-.074.073-.103.067-.039-.007-.09-.053-.099-.09-.03-.136-.066-.276-.06-.412.013-.342.045-.684.08-1.024.006-.057.061-.114.107-.157.018-.016.085-.009.104.012.018.02.013.074.002.108-.062.187-.05.376-.043.559.058-.055.105-.134.172-.155.063-.02.145.02.225.035.01-.085.018-.183.034-.28.017-.105.076-.13.168-.073.039.024.073.057.11.086.232.183.468.361.693.552.095.082.179.185.242.293.077.135.027.234-.114.301-.026.013-.056.058-.053.086.008.102.04.204.043.306a.752.752 0 0 1-.045.232c-.004.014-.067.029-.084.017a.41.41 0 0 1-.112-.119c-.026-.043-.025-.105-.055-.145-.204-.27-.413-.537-.621-.805-.006-.007-.016-.012-.04-.029Zm.901.296c.059-.085.052-.129-.054-.215-.148-.122-.3-.239-.445-.364-.132-.115-.255-.239-.388-.354-.02-.017-.089-.018-.098-.004-.058.097.001.343.083.426.133.134.26.274.386.413.098.107.192.217.287.325.02-.043.026-.083.012-.114-.041-.096.038-.137.087-.183.011-.01.079.042.13.07Zm-1.071.194v-.573c.001-.11-.059-.176-.189-.194l.029.489-.033.008-.151-.271c0 .143-.002.256.001.368.001.02.019.05.036.057.1.041.202.077.307.116ZM45.633 57.63a.411.411 0 0 0-.164-.273c-.028-.02-.066-.069-.058-.087.015-.033.057-.057.093-.078.047-.027.099-.047.149-.07l-.003-.041c-.157-.017-.314-.041-.471-.048a.92.92 0 0 0-.259.036c-.032.008-.06.046-.086.074-.084.091-.161.191-.255.271-.034.029-.11.011-.167.014-.002-.041-.013-.085-.003-.123.02-.083.051-.163.082-.256-.155-.025-.212-.145-.274-.279.028-.003.051-.013.065-.006.186.088.386.055.58.069.099.007.176-.043.215-.156-.093-.043-.249-.039-.18-.228.097.012.203.014.304.039.102.025.17-.019.243-.076.104-.081.214-.156.337-.244.013.152.028.275.028.397 0 .028-.047.072-.08.081-.129.036-.263.058-.393.092-.059.015-.113.047-.169.071l.01.052.505.039c.112.008.23.036.32-.063.053-.058.098-.122.151-.179.044-.047.084-.122.166-.075.052.03.053.154.007.217-.029.039-.064.075-.119.139l.232-.042c.022.13.004.148-.133.184-.187.049-.391.031-.563.14-.011.007-.024.012-.057.03l.286.089c.034.01.071.014.103.028.127.055.138.125.031.212-.076.062-.194.105-.226.183-.029.074.029.184.053.277.018.072.038.145.066.214a.306.306 0 0 1-.101.371c-.049.036-.08.017-.088-.04-.031-.225-.063-.45-.092-.676-.011-.084-.038-.137-.14-.128a.912.912 0 0 1-.276-.01c-.236-.053-.286-.245-.13-.414.055.095.094.221.179.285.057.042.18-.005.282-.012Zm.115-.207c.008.075.015.151.104.149.031-.001.091-.064.086-.082-.03-.098-.115-.065-.19-.067Zm-1.233-.382c.025.053.04.082.042.089l.128-.074-.015-.024-.155.009ZM33.16 59.29c.155.054.302.105.448.158.105.038.125.111.035.167-.104.065-.124.147-.123.26.002.168-.153.336-.331.358.116-.12.248-.218.224-.375-.092.014-.185.056-.259.033-.081-.024-.145-.108-.222-.169-.071.141-.162.309-.243.482-.04.087-.058.185-.097.273-.017.04-.06.068-.093.103-.096-.051-.052-.121-.03-.178.061-.159.128-.317.197-.473.055-.124.121-.242.174-.366a.21.21 0 0 0 .014-.139 2.44 2.44 0 0 0-.134-.327c-.018-.036-.063-.058-.096-.086-.012.036-.033.072-.034.108-.003.163.005.327.001.49-.005.156-.061.213-.199.211-.029 0-.073-.017-.084-.039-.123-.239-.237-.482-.233-.761 0-.009.008-.018.024-.059l.251.386c.019-.153.039-.292.051-.431.002-.024-.029-.055-.051-.076a.81.81 0 0 1-.232-.516c-.008-.077.008-.144.086-.179.081-.036.141.007.188.063a.727.727 0 0 1 .113.178c.074-.053.148-.107.223-.159.13-.092.277-.05.307.105.04.21.038.42-.109.601-.108.135-.035.268.016.419.177-.303.291-.634.627-.782-.158.226-.358.424-.409.72Zm-.358-.444h.045c.009-.151.021-.303.026-.454.001-.025-.02-.056-.041-.073-.017-.015-.052-.024-.072-.016-.058.022-.132.263-.099.319.044.076.094.149.141.224Zm.335.519c-.109.167-.109.225-.013.347.027.034.055.093.107.039.046-.049.167-.071.096-.176-.051-.075-.122-.135-.19-.21Zm-.721-.596c.066-.147-.019-.375-.177-.488.01.183.066.336.177.488ZM34.834 57.422h-.175l.04-.19c.011-.056.025-.113.028-.169.001-.015-.031-.044-.049-.045-.015 0-.039.028-.046.048a1.3 1.3 0 0 0-.047.165c-.032.152-.142.216-.28.242-.036.006-.077-.016-.116-.025.015-.035.025-.071.044-.103.084-.14.17-.278.255-.418.054-.089.046-.174-.027-.249-.073-.075-.084-.143-.009-.23.036-.04.039-.109.069-.201l-.37.085c.036-.064.052-.109.08-.143.141-.171.28-.344.43-.507a.403.403 0 0 1 .195-.114c.077-.017.11.045.068.116-.111.186-.228.37-.338.557-.045.078-.123.155-.017.253.026.025.012.092.017.14l.028.011c.032-.059.062-.12.098-.177.051-.081.101-.164.16-.239.044-.055.108-.078.172-.032.061.046.057.106.025.172-.044.094-.072.196-.123.286-.042.074-.108.135-.168.208l.042.058c.077-.028.137-.066.201-.071.097-.007.111.024.077.115-.057.157-.115.315-.17.472-.008.022-.006.048.01.082l.206-.313c.035-.053.062-.122.112-.153.047-.029.121-.028.178-.017.017.003.034.088.026.13-.027.131-.063.26-.099.39-.03.109.047.203.152.167.21-.074.377-.215.518-.384.024-.029.02-.102.001-.142-.06-.128-.132-.25-.201-.374-.019-.034-.044-.066-.054-.109.045.097.201.087.218.217.021.015.053.03.073.054.064.077.123.157.185.235.041.051.041.097-.011.139-.227.186-.447.378-.725.491-.101.041-.166.021-.217-.063-.041-.066-.08-.112-.172-.085-.024.008-.066-.045-.105-.075-.004.039-.001.095-.018.145-.014.039-.052.07-.08.105-.032-.036-.088-.068-.093-.108-.012-.087.003-.178.006-.267.001-.028-.003-.057-.004-.08Zm.263.058c.14-.032.154-.063.137-.278l-.137.278Zm-.243-.953a2.082 2.082 0 0 0-.049-.033l-.099.198.044.023.104-.188ZM40.691 73.144h.28v1.625c-.093 0-.182.008-.269-.004-.035-.005-.075-.047-.094-.083-.159-.304-.313-.612-.468-.918a.216.216 0 0 0-.077-.09v1.086h-.274v-1.619c.092 0 .188-.007.282.003.028.003.059.047.075.078.157.306.311.613.466.92a.233.233 0 0 0 .079.097v-1.095ZM36.4 73.975c-.023 0-.027.001-.03-.001-.271-.113-.271-.113-.274-.407l-.009-.837v-.125l-.029-.007-.487.984-.251-.123.718-1.459c.085.042.17.073.242.123.032.022.052.081.053.124.006.34.007.681.009 1.021v.124l.028.008.491-.994.252.123-.713 1.446ZM33.373 69.554c.145.212.34.377.419.624a.653.653 0 0 1-.1.62c-.179.238-.408.399-.72.406-.218.004-.396-.094-.543-.242-.12-.121-.223-.259-.345-.401l1.289-1.007Zm-.914 1.081c.138.182.28.333.517.286.26-.051.468-.19.557-.449.073-.212-.037-.378-.178-.536l-.896.699ZM45.597 72.544l.392.566-.238.164-.934-1.342c.195-.123.377-.256.575-.358.155-.081.316-.04.443.086.123.123.174.269.108.441l-.021.052.738.487c-.085.06-.153.114-.229.156-.02.012-.066-.003-.092-.02-.14-.093-.276-.192-.415-.286-.125-.083-.208-.07-.327.054Zm-.146-.208c.122-.077.245-.138.247-.296 0-.093-.045-.174-.131-.205-.151-.054-.255.049-.372.132l.256.369ZM38.267 72.893l.276.055c-.028.149-.053.289-.08.428-.037.19-.078.379-.112.57a.805.805 0 0 0-.012.202c.01.126.083.204.204.233.119.028.234-.004.283-.116.057-.128.089-.27.119-.408.057-.262.104-.526.157-.801l.285.057-.174.893-.034.168c-.071.342-.336.514-.677.44-.348-.075-.513-.322-.446-.672.059-.31.12-.619.181-.928.007-.038.018-.076.03-.121ZM32.25 67.479c.047.101.091.186.122.276.01.029-.01.075-.029.104-.093.147-.191.292-.299.455.15.019.28.049.409.046.171-.003.263.074.304.232.007.027.021.052.039.093-.262-.039-.513-.071-.761-.116-.106-.02-.169.001-.228.097-.126.207-.266.407-.401.609-.021.032-.044.063-.076.108-.046-.099-.089-.18-.119-.266-.01-.029.003-.075.021-.103.112-.174.228-.345.356-.536-.203-.024-.385-.055-.568-.063-.112-.005-.168-.053-.201-.15-.018-.053-.044-.104-.074-.172.29.041.563.072.833.119.126.022.201-.005.269-.119.121-.206.262-.401.403-.614ZM34.921 73.218l-.023-.005c-.231-.145-.229-.145-.149-.407.06-.2.074-.142-.088-.265-.086-.065-.176-.124-.259-.192-.058-.047-.105-.059-.167-.004-.056.049-.125.083-.183.131-.059.05-.108.055-.167 0-.043-.041-.095-.074-.152-.118l.778-.517c.196-.13.395-.257.59-.39.057-.039.1-.042.151.006.031.029.074.046.101.078.022.025.045.069.037.096-.153.528-.311 1.056-.469 1.587Zm.145-1.412a.36.36 0 0 1-.02-.018l-.515.355.347.254.188-.591ZM45.346 62.649c-.187.215-.368.403-.526.609-.112.147-.238.212-.419.185-.066-.009-.135-.001-.205-.001-.023-.072-.027-.129.063-.134.228-.012.382-.137.506-.315.03-.043.069-.081.119-.138-.049-.004-.078-.008-.107-.007-.881.019-1.762.041-2.643.056-.132.003-.159.11-.215.184-.055.071-.098.099-.176.02.048-.114.092-.234.151-.347.014-.028.075-.045.114-.046.534-.012 1.068-.021 1.601-.031l1.737-.035ZM44.349 73.971l-.688-1.474.787-.369.103.219-.523.249.177.376.5-.23.103.216-.499.238.199.43.556-.255.103.218-.818.382ZM43.326 72.65l-.053.923c-.014.243-.033.486-.043.729-.004.093-.075.085-.128.098-.056.015-.118.067-.172-.013-.3-.445-.602-.889-.903-1.333-.006-.008-.007-.02-.01-.03.006-.004.012-.009.018-.011.26-.091.26-.091.41.139l.445.683.091.132c.01-.169.02-.305.026-.442.011-.222.024-.444.026-.665.001-.097.026-.157.13-.169.049-.005.097-.024.163-.041ZM42.445 55.689l-.242.145c-.034.02-.067.046-.103.055-.029.006-.063-.01-.094-.017.016-.027.024-.065.048-.08.101-.066.206-.125.296-.178-.018-.063-.028-.11-.045-.154a.124.124 0 0 0-.048-.058c-.121-.068-.128-.088-.076-.222.012-.03.005-.068.014-.1.015-.049.024-.12.058-.137.049-.026.129-.034.177-.011.079.038.064.131-.018.189l-.141.099.012.033c.066 0 .135-.01.199.002.12.023.104-.066.121-.13.042-.159.078-.319.13-.474.012-.037.08-.081.118-.077.032.003.078.07.08.112.003.052-.033.106-.05.161-.051.162-.1.324-.15.49.192-.002.291-.166.281-.447.089-.004.146.055.141.147a.444.444 0 0 1-.266.406c-.208.101-.29.266-.254.495.011.07.027.138-.052.191-.024.016-.02.077-.023.118-.004.046-.001.093-.001.155.003.012.017.041.015.068-.01.129-.018.259-.043.386-.008.042-.055.09-.096.11-.05.024-.113.023-.171.025-.007 0-.027-.056-.022-.082.058-.293.119-.585.178-.878.021-.107.037-.214.056-.321l-.029-.021ZM46.705 70.822c-.103.065-.203.119-.291.188-.076.06-.103.147-.059.241.045.095.13.107.22.09.119-.023.236-.056.356-.077a.46.46 0 0 1 .503.224.445.445 0 0 1-.071.554c-.091.093-.204.165-.309.245-.058.045-.108.036-.153-.027-.035-.048-.081-.089-.127-.14.085-.034.166-.06.241-.098.099-.05.178-.122.194-.24.017-.123-.07-.232-.194-.231-.071 0-.142.018-.212.031-.084.015-.167.038-.252.05-.204.029-.357-.054-.457-.23-.085-.15-.057-.348.081-.496.079-.086.179-.153.271-.225.059-.046.11-.032.154.027.032.043.072.079.105.114ZM47.166 59.09c.047.022.084.033.115.053.135.09.261.199.407.268a.408.408 0 0 0 .284.005c.268-.101.528-.224.79-.338.076.101.038.222-.087.288a8.92 8.92 0 0 0-.32.173c-.032.018-.059.046-.1.079a.717.717 0 0 0 .529.052c-.063.106-.171.134-.268.177-.184.08-.373.017-.559.012-.052-.001-.104-.026-.157-.026-.055.001-.11.019-.164.031-.014.002-.026.016-.039.016-.216.003-.434.077-.649-.003-.029-.011-.046-.052-.069-.08.025-.019.047-.05.075-.056.138-.031.279-.053.417-.084.103-.023.115-.066.041-.145a1.386 1.386 0 0 0-.161-.155c-.083-.065-.109-.145-.085-.267ZM47.974 68.673c.042-.098.071-.179.112-.253.015-.027.059-.047.092-.051.175-.02.35-.033.524-.05.038-.003.075-.01.132-.018-.124-.162-.23-.315-.352-.454-.081-.092-.095-.174-.032-.276.026-.042.043-.089.068-.145.193.257.376.509.569.752a.654.654 0 0 0 .211.169c.158.081.325.146.494.221l-.114.263c-.187-.08-.366-.16-.548-.233a.337.337 0 0 0-.154-.024c-.27.025-.541.056-.811.084-.057.006-.113.009-.191.015ZM38.264 56.48c.07-.061.169-.107.182-.17.02-.102-.016-.215-.029-.333-.128.073-.231.144-.344.19a.283.283 0 0 1-.192-.007c-.067-.026-.029-.084.009-.108.124-.076.249-.154.381-.213.074-.033.113-.068.109-.148-.002-.035.003-.072-.002-.107-.044-.323.136-.539.348-.741a.25.25 0 0 0 .069-.143c-.083.048-.169.094-.25.146-.146.095-.292.19-.433.291-.108.079-.221.115-.35.065-.025-.01-.062-.043-.06-.062.003-.028.029-.068.055-.079.356-.147.713-.291 1.07-.436.013-.005.028-.014.04-.012.059.011.117.025.175.039-.019.057-.021.129-.059.168a2.702 2.702 0 0 1-.341.3.34.34 0 0 0-.148.32c.002.039.01.078.014.117.014.14.021.142.155.083a1.79 1.79 0 0 1 .281-.104c.035-.01.097.007.117.034.018.026.01.087-.008.121-.025.046-.07.08-.107.12l-.025-.02.058-.12-.015-.02c-.081.047-.157.106-.243.139-.158.061-.17.163-.12.305.024.066.023.14.036.21.031.168-.039.247-.209.225-.055-.007-.107-.032-.164-.05ZM41.471 64.043l-.1-.047c.043-.103.077-.205.128-.298.016-.029.074-.048.114-.048.53-.013 1.059-.022 1.589-.031l1.149-.02h.163l-.259.295-.121.137c-.241.275-.241.275-.617.237-.022-.059-.014-.093.059-.112.262-.067.318-.112.497-.382h-.12c-.744.016-1.489.034-2.233.048-.069.002-.116.02-.15.079-.027.046-.061.088-.099.142ZM34.504 63.774c.148.181.253.366.493.384.028.002.054.048.081.073-.031.015-.06.038-.092.044a.477.477 0 0 1-.52-.22c-.108-.156-.248-.292-.386-.451.211 0 .402-.002.594.001.754.013 1.509.031 2.264.04.102.002.161.028.187.128a.641.641 0 0 0 .058.138c.034.066.027.11-.079.126l-.015-.034c-.072-.16-.202-.183-.366-.185-.679-.007-1.359-.028-2.039-.043-.052-.002-.104-.001-.18-.001ZM47.826 68.895l.202.129-.21.332 1.151.761-.157.241-1.154-.759-.22.324-.2-.134.588-.894ZM35.208 64.597c.128.136.203.301.403.319.03.003.056.046.083.071-.032.013-.062.033-.096.039-.189.034-.331-.026-.445-.191-.098-.143-.227-.264-.358-.414h.191c.745.013 1.489.031 2.234.037.147.002.238.037.27.185.008.034.026.066.039.1-.056.068-.103.055-.14-.013-.041-.075-.103-.094-.186-.096-.633-.012-1.267-.029-1.901-.043-.024-.001-.047.003-.094.006ZM43.781 64.435c-.169.191-.327.385-.504.56-.043.043-.148.031-.224.03-.052-.001-.148-.022-.15-.042-.009-.09.081-.072.132-.082.17-.032.22-.191.342-.297-.034-.008-.049-.015-.065-.014-.64.015-1.28.031-1.921.044-.086.002-.151.021-.195.1-.035.062-.082.075-.14.01.03-.073.052-.155.097-.221.022-.034.086-.056.131-.057.547-.013 1.095-.023 1.642-.031.279-.003.557 0 .855 0ZM50.492 62.926l-.075.123c.062.087.131.17.182.263.028.051.027.119.039.179-.057.002-.122.024-.17.005a3.687 3.687 0 0 1-.485-.226c-.064-.037-.099-.126-.147-.192a.46.46 0 0 0 .023-.015l.353.141c.015.067.168.159.331.172.004-.006.011-.013.01-.017a.84.84 0 0 0-.531-.491c-.02-.006-.054.017-.075.034-.021.018-.03.052-.052.067-.023.014-.055.014-.084.019-.003-.031-.022-.074-.008-.091.073-.093.038-.142-.054-.186a.188.188 0 0 1-.082-.106l.244.106.025-.032c-.058-.061-.113-.126-.175-.182-.045-.04-.102-.066-.15-.103-.027-.019-.069-.056-.064-.071a.135.135 0 0 1 .076-.076c.084-.023.172-.034.258-.05l.024.025-.19.127.153.135.35-.156c-.05.131-.108.226-.236.284.098.103.178.222.333.234l.031-.033a16.22 16.22 0 0 1-.214-.148.712.712 0 0 1 .026-.031l.136.071.032-.134c.01.001.022.001.022.003.053.241.266.292.448.378.064.031.131.054.203.083-.036.082-.097.091-.165.059-.113-.052-.224-.11-.342-.168ZM40.034 70.214c-.065.023-.107.044-.152.054-.198.045-.372-.061-.409-.247a.34.34 0 0 1 .276-.396c.28-.057.482.091.507.377.017.196.011.392-.157.532-.14.118-.304.117-.466.055a.197.197 0 0 1-.105-.111c-.011-.038.026-.09.042-.136.044.017.107.021.129.053.038.055.049.127.142.113.095-.014.143-.075.169-.158.013-.04.015-.082.024-.136Zm-.324-.268c0 .125.053.191.152.192.1 0 .159-.069.159-.188.001-.126-.059-.201-.159-.199-.096.003-.152.074-.152.195ZM41.376 73.086l.287-.036.205 1.612-.288.037-.204-1.613ZM31.722 70.022l-.149-.249 1.388-.844.151.247-1.39.846ZM48.949 63.103l.132.122a.95.95 0 0 0 .031-.032c-.061-.052-.118-.109-.184-.154-.027-.017-.073-.018-.107-.011-.203.041-.404.093-.608.127-.049.009-.115-.024-.158-.058-.015-.011.015-.085.03-.128.05-.137.101-.274.154-.41.02-.051.044-.099.076-.169v.452c.001.085.036.12.127.11.096-.01.193-.001.29-.001.038 0 .075-.005.133-.009-.084-.144-.109-.278-.02-.439.062.076.122.138.169.21.155.236.31.472.453.715.023.039.004.127-.028.168-.041.054-.096.012-.134-.032l-.383-.436a.615.615 0 0 1 .027-.025ZM48.191 71.158l-.187.221-1.237-1.055.186-.221 1.238 1.055ZM33.403 72.046l-.209-.2 1.167-1.132.2.207-1.158 1.125ZM41.42 55.616c-.037.08-.073.161-.111.24-.04.084-.032.188-.134.244-.084.047-.129.028-.175-.046-.083-.13-.076-.208.024-.258.133-.067.264-.137.395-.209.131-.072.142-.207.186-.352-.073.02-.122.039-.173.044-.025.002-.052-.021-.078-.033.013-.026.018-.065.039-.076.075-.042.155-.072.232-.11a.272.272 0 0 0 .086-.058c.038-.044.067-.086.129-.03.009.008.042-.014.065-.017.037-.004.073-.003.11-.004.001.049.015.105-.003.146-.013.029-.069.049-.108.055a.237.237 0 0 0-.209.189c-.042.15-.075.302-.114.453l-.132.495a.517.517 0 0 0-.014.096c-.009.146-.052.176-.201.133l.234-.881-.048-.021ZM41.068 70.082c.116.053.177.132.164.256a.271.271 0 0 1-.219.25 1.066 1.066 0 0 1-.378.009c-.12-.018-.203-.136-.179-.23a.162.162 0 0 1 .109-.1c.028-.005.097.061.097.094-.002.076.019.117.092.128.079.012.153.002.195-.076.067-.124-.001-.26-.141-.266-.087-.005-.107-.036-.084-.12.038-.008.087-.005.118-.027.039-.028.083-.074.09-.117.006-.037-.027-.103-.061-.119-.041-.019-.103-.007-.151.007-.016.005-.028.061-.022.09.013.074-.022.113-.085.124-.07.012-.12-.021-.129-.096-.012-.093.034-.16.108-.206a.454.454 0 0 1 .433-.029c.191.081.209.249.043.428ZM49.386 62.976l.271.161.022-.019c-.016-.027-.028-.06-.049-.082-.225-.24-.454-.475-.675-.717a1.837 1.837 0 0 1-.208-.294c-.04-.069-.021-.143.053-.184.022-.012.075-.003.089.015.19.249.381.499.562.754.126.177.239.364.356.548.043.067.035.128-.038.173-.071.043-.1-.017-.139-.057l-.266-.275.022-.023ZM38.647 70.609c-.02-.073-.016-.113.057-.12.068-.006.095-.052.094-.12-.002-.15-.001-.3 0-.451 0-.065-.017-.108-.092-.12-.025-.003-.045-.04-.068-.061.025-.018.047-.047.074-.053.096-.021.194-.035.311-.055v.308c0 .14.002.279-.001.419-.002.076.025.119.102.138.026.006.045.045.067.069-.027.016-.054.043-.082.044-.153.005-.306.002-.462.002ZM42.116 70.505c.021.076.001.107-.075.106-.153-.004-.306-.001-.464-.001-.013-.066-.024-.113.059-.122.069-.007.093-.054.092-.121-.003-.151-.002-.301-.001-.451.001-.066-.021-.111-.095-.115-.077-.004-.072-.052-.055-.105l.375-.066v.669c0 .169.001.169.164.206ZM41.404 55.019c.115-.108.227-.22.345-.324.104-.092.211-.179.323-.26.033-.024.085-.02.129-.028-.001.048.009.1-.005.143-.036.105-.125.158-.221.204-.186.09-.37.183-.555.275l-.016-.01ZM47.422 60.021c.035.03.079.056.105.093.076.113.149.229.215.348.013.023-.007.071-.023.101-.004.007-.054-.008-.081-.016l-.22-.072c.132-.161.005-.295.004-.454ZM43.376 67.95v-.225c.037-.002.071-.006.105-.006l3.468-.001c.082 0 .144.02.147.114.002.091-.051.125-.137.125l-3.521-.001c-.017 0-.034-.003-.062-.006Z" style="fill:#c6001a;fill-rule:nonzero" transform="translate(-73.671 -161.657) scale(3.72856)"/></svg>