<svg xmlns="http://www.w3.org/2000/svg" width="154" height="157" fill="none"><g filter="url(#a)"><path fill="#fff" d="M13 0h128v128H13z"/><path fill="#231916" fill-rule="evenodd" d="m63.096 69.682 1.142 1.54c.19.254.325.41.405.464a.62.62 0 0 0 .286.098v.102h-2.02v-.102c.162-.011.265-.034.312-.067.047-.033.07-.074.07-.122a.174.174 0 0 0-.021-.088c-.028-.056-.1-.16-.214-.311l-.605-.812-.631.7c-.19.214-.285.358-.285.433 0 .054.025.105.073.15.049.046.122.08.217.1.042.011.13.017.262.017v.102h-1.59v-.102c.18-.024.324-.069.427-.133.136-.085.327-.262.571-.533l.822-.909-1.054-1.406a8.577 8.577 0 0 0-.296-.385.567.567 0 0 0-.162-.13.748.748 0 0 0-.22-.059v-.103h2.056v.103h-.104c-.118 0-.2.018-.247.051a.154.154 0 0 0-.071.13c0 .04.007.075.022.104l.21.289.513.71.437-.486c.224-.249.336-.424.336-.523a.23.23 0 0 0-.047-.14.308.308 0 0 0-.136-.099.772.772 0 0 0-.275-.036v-.103h1.524v.103a.985.985 0 0 0-.29.04.792.792 0 0 0-.235.14 6.713 6.713 0 0 0-.397.414l-.785.86Zm4.322 2.102v.102h-2.165v-.102h.138c.12 0 .216-.02.29-.059a.255.255 0 0 0 .121-.133c.023-.043.035-.16.035-.349V68.77c0-.192-.012-.313-.035-.36a.285.285 0 0 0-.135-.127.594.594 0 0 0-.276-.054h-.138v-.103h2.165v.103h-.137a.619.619 0 0 0-.29.058.271.271 0 0 0-.125.134c-.022.044-.034.16-.034.349v2.473c0 .192.012.312.035.36.024.049.07.09.138.126.068.037.16.055.276.055h.137Zm.383.102v-.102h.138c.12 0 .213-.017.276-.052a.32.32 0 0 0 .142-.14c.019-.039.028-.155.028-.349V68.77c0-.192-.011-.313-.035-.36a.284.284 0 0 0-.135-.127.596.596 0 0 0-.276-.054H67.8v-.103h1.854c.495 0 .894.062 1.195.184.368.15.648.376.838.678.19.304.286.647.286 1.03 0 .264-.047.507-.141.73a1.66 1.66 0 0 1-.363.552 1.77 1.77 0 0 1-.515.35 3.01 3.01 0 0 1-.713.203 3.77 3.77 0 0 1-.587.034h-1.854Zm1.58-3.546v2.934c0 .155.008.25.024.285a.167.167 0 0 0 .082.08.536.536 0 0 0 .239.042c.34 0 .6-.105.779-.316.244-.285.366-.726.366-1.325 0-.483-.084-.868-.25-1.157a1.028 1.028 0 0 0-.51-.46c-.148-.057-.39-.085-.73-.083Zm5.302 3.444v.102h-2.165v-.102h.138c.12 0 .216-.02.29-.059a.255.255 0 0 0 .121-.133c.023-.043.035-.16.035-.349V68.77c0-.192-.012-.313-.035-.36a.285.285 0 0 0-.135-.127.595.595 0 0 0-.276-.054h-.138v-.103h2.165v.103h-.137a.619.619 0 0 0-.29.058.272.272 0 0 0-.125.134c-.022.044-.033.16-.033.349v2.473c0 .192.01.312.034.36.024.049.07.09.138.126.068.037.16.055.276.055h.137Zm2.903-.968h-1.463l-.174.367a.75.75 0 0 0-.085.301c0 .106.047.184.14.233.055.03.19.052.406.067v.102h-1.377v-.102a.64.64 0 0 0 .366-.168c.096-.091.215-.28.354-.567l1.482-3h.058l1.493 3.083c.143.293.26.476.352.552a.51.51 0 0 0 .294.1v.102h-2.004v-.102h.082c.16 0 .274-.02.339-.061a.143.143 0 0 0 .068-.128.317.317 0 0 0-.019-.102 2.504 2.504 0 0 0-.092-.209l-.22-.468Zm-.104-.205-.616-1.295-.637 1.295h1.253Zm3.734-2.485 2.043 2.332v-1.616c0-.225-.035-.378-.106-.457-.098-.107-.262-.16-.492-.156v-.103h1.368v.103c-.175.02-.292.047-.353.079a.326.326 0 0 0-.14.158c-.034.073-.05.199-.05.376v3.13h-.105l-2.8-3.13v2.39c0 .216.054.362.163.438a.633.633 0 0 0 .374.114h.098v.102h-1.47v-.102c.229-.002.387-.044.477-.127.09-.084.135-.225.135-.425V68.58l-.089-.1a.808.808 0 0 0-.233-.198.765.765 0 0 0-.29-.052v-.103h1.47Zm5.281 0h2.138v.103h-.107c-.16 0-.27.016-.331.046a.27.27 0 0 0-.129.126c-.025.054-.038.188-.038.402v1.84c0 .338.028.56.084.67a.67.67 0 0 0 .277.272c.128.072.29.108.485.108.225 0 .415-.046.573-.138a.87.87 0 0 0 .354-.378c.079-.161.118-.441.118-.84v-1.534c0-.168-.02-.289-.059-.36a.33.33 0 0 0-.145-.15.951.951 0 0 0-.39-.064v-.103h1.433v.103h-.085a.598.598 0 0 0-.29.064.371.371 0 0 0-.168.191.888.888 0 0 0-.04.319v1.428c0 .442-.032.761-.095.957-.065.196-.221.376-.47.54-.248.165-.588.247-1.017.247-.358 0-.635-.043-.831-.13-.266-.119-.454-.27-.565-.454-.11-.186-.165-.434-.165-.747v-1.841c0-.216-.012-.35-.04-.403a.279.279 0 0 0-.137-.126c-.065-.032-.185-.047-.36-.045v-.103Zm6.085 0 2.044 2.332v-1.616c0-.225-.036-.378-.107-.457-.098-.107-.262-.16-.492-.156v-.103h1.368v.103c-.175.02-.292.047-.352.079a.324.324 0 0 0-.141.158c-.034.073-.05.199-.05.376v3.13h-.105l-2.8-3.13v2.39c0 .216.054.362.164.438a.631.631 0 0 0 .373.114h.098v.102h-1.47v-.102c.23-.002.388-.044.477-.127.09-.084.135-.225.135-.425V68.58l-.089-.1a.792.792 0 0 0-.232-.198.764.764 0 0 0-.29-.052v-.103h1.469Zm5.407 3.658v.102h-2.166v-.102h.138c.12 0 .217-.02.29-.059a.258.258 0 0 0 .122-.133c.022-.043.034-.16.034-.349V68.77c0-.192-.011-.313-.034-.36a.287.287 0 0 0-.136-.127.594.594 0 0 0-.276-.054h-.138v-.103h2.166v.103h-.138a.618.618 0 0 0-.29.058.271.271 0 0 0-.125.134c-.022.044-.033.16-.033.349v2.473c0 .192.011.312.034.36.025.049.07.09.138.126.069.037.16.055.276.055h.138Zm4.753-3.658v.103a.685.685 0 0 0-.402.219c-.086.093-.213.31-.382.652l-1.427 2.873h-.1l-1.421-2.99c-.171-.36-.286-.572-.343-.634-.059-.064-.168-.103-.329-.12v-.103h1.986v.103h-.067c-.18 0-.302.02-.367.061a.132.132 0 0 0-.07.122c0 .033.008.073.024.118s.072.167.165.365l.883 1.871.818-1.666c.098-.201.159-.337.18-.405a.534.534 0 0 0 .034-.175.229.229 0 0 0-.05-.147.284.284 0 0 0-.142-.096 1.035 1.035 0 0 0-.348-.048v-.103h1.358Zm1.926.217v1.53h.082c.263 0 .453-.075.572-.224.118-.15.193-.37.226-.662h.116v1.968h-.116a1.389 1.389 0 0 0-.154-.527.634.634 0 0 0-.274-.276 1.15 1.15 0 0 0-.452-.07v1.059c0 .207.009.333.029.38a.236.236 0 0 0 .108.113c.053.03.138.044.257.044h.247c.387 0 .697-.081.93-.244.234-.162.401-.41.503-.743h.113l-.186 1.195h-3.581v-.102h.138c.12 0 .217-.02.29-.059a.255.255 0 0 0 .122-.133c.023-.043.034-.16.034-.349V68.77c0-.17-.005-.275-.015-.313a.268.268 0 0 0-.113-.15.566.566 0 0 0-.318-.078h-.138v-.103h3.467v1.112h-.115c-.06-.271-.142-.466-.25-.585a.927.927 0 0 0-.454-.26c-.113-.034-.326-.05-.64-.05h-.428Zm4.286 1.83v1.054c0 .203.014.331.041.383a.292.292 0 0 0 .145.127c.07.031.199.047.389.047v.102h-2.121v-.102c.192 0 .321-.016.39-.049a.302.302 0 0 0 .144-.126c.027-.052.041-.179.041-.382v-2.44c0-.204-.014-.331-.041-.384a.288.288 0 0 0-.146-.126c-.069-.032-.198-.048-.388-.048v-.103h1.925c.501 0 .867.032 1.1.095.231.062.421.179.568.348a.88.88 0 0 1 .22.595c0 .277-.11.506-.331.688-.14.114-.336.2-.588.257l.995 1.273c.13.165.223.267.278.308.084.057.18.088.291.094v.102h-1.305l-1.335-1.714h-.272Zm0-1.844v1.647h.174c.283 0 .495-.023.635-.07a.62.62 0 0 0 .332-.256.867.867 0 0 0 .121-.48c0-.288-.074-.499-.222-.636-.147-.137-.385-.205-.713-.205h-.327Zm5.951-.288.034 1.253h-.126a1.25 1.25 0 0 0-.435-.759 1.153 1.153 0 0 0-.75-.287c-.207 0-.372.05-.493.152a.442.442 0 0 0-.182.348.4.4 0 0 0 .064.222.983.983 0 0 0 .284.257c.096.061.317.17.663.325.485.216.811.42.98.613a.973.973 0 0 1 .252.66c0 .314-.136.585-.405.81-.27.227-.613.34-1.028.34-.13 0-.255-.012-.37-.035a3.12 3.12 0 0 1-.437-.137.72.72 0 0 0-.241-.055.318.318 0 0 0-.168.055.4.4 0 0 0-.144.17h-.112v-1.42h.112c.09.4.262.703.519.913.255.21.53.315.825.315.229 0 .41-.056.546-.169a.503.503 0 0 0 .203-.394.475.475 0 0 0-.079-.258.847.847 0 0 0-.236-.237 3.707 3.707 0 0 0-.562-.292c-.376-.169-.647-.311-.812-.43a1.365 1.365 0 0 1-.381-.396.917.917 0 0 1-.133-.483c0-.3.122-.555.364-.766.243-.21.548-.315.916-.315.135 0 .265.014.391.044.096.022.213.063.349.123.138.06.235.09.289.09a.173.173 0 0 0 .126-.044c.031-.03.059-.1.085-.213h.092Zm2.988 3.743v.102h-2.165v-.102h.137c.12 0 .217-.02.29-.059a.259.259 0 0 0 .122-.133c.022-.043.034-.16.034-.349V68.77c0-.192-.012-.313-.034-.36a.286.286 0 0 0-.136-.127.59.59 0 0 0-.276-.054h-.137v-.103h2.165v.103h-.138a.619.619 0 0 0-.29.058.271.271 0 0 0-.125.134c-.022.044-.033.16-.033.349v2.473c0 .192.011.312.034.36.024.049.07.09.138.126.069.037.16.055.276.055h.138Zm4.246-3.658v1.019h-.109c-.066-.236-.138-.405-.217-.507a.815.815 0 0 0-.327-.245c-.077-.034-.213-.05-.406-.05h-.309v2.9c0 .192.012.312.035.36.024.049.07.09.138.126a.588.588 0 0 0 .279.055h.138v.102h-2.169v-.102h.138c.119 0 .216-.02.289-.059a.264.264 0 0 0 .125-.133c.024-.043.035-.16.035-.349v-2.9h-.3c-.279 0-.482.053-.608.16-.178.15-.289.364-.336.642h-.116v-1.019h3.72Zm4.831 0v.103a.639.639 0 0 0-.315.108c-.102.078-.262.29-.483.635l-.897 1.361v.91c0 .194.01.315.033.362a.3.3 0 0 0 .132.124.547.547 0 0 0 .265.055h.232v.102h-2.324v-.102h.217c.122 0 .219-.02.29-.059a.277.277 0 0 0 .125-.133c.023-.043.034-.16.034-.349v-.754l-.975-1.611c-.194-.318-.329-.505-.41-.562a.543.543 0 0 0-.316-.087v-.103h1.985v.103h-.089c-.12 0-.204.016-.253.048-.047.03-.071.064-.071.1 0 .065.082.233.245.5l.748 1.246.746-1.135c.184-.277.277-.46.277-.551 0-.05-.026-.091-.079-.124-.069-.047-.197-.074-.382-.084v-.103h1.265ZM124.959 53.122c.056.015.097.067.139.109.06.06.136.16.141.246.009.142-.07.28-.121.394a7.856 7.856 0 0 1-.48.873c-.031.05-.293.45-.319.45 0 .017-.004.013.012.013.054.061.127.063.199.089.098.035.234.113.248.23.001.018-.004.048.015.048v.012h.047c.065-.065.149-.11.219-.162l.2-.164c.066-.047.147-.08.217-.119.047-.034.093-.07.139-.105l.132-.08.124-.058c.073-.05.175-.141.273-.141v-.012c.009.008.01.012.023.012v-.012l.087-.051c.081-.033.417-.064.489-.003.019.016.023.043.032.063l.043.067c.023.06.02.164.017.231-.004.08-.044.138-.063.206l-.049.185c-.076.217-.193.418-.292.624l-.184.305c-.047.094-.065.204-.117.296l-.093.126c-.068.1-.101.22-.163.322l-.077.087c-.043.07-.058.146-.114.21a1.352 1.352 0 0 1-.675.407c-.057.015-.124.04-.191.037-.266-.017.113-.296.158-.335a.439.439 0 0 0 .102-.13c.049-.107-.009-.246.07-.34.042-.05.092-.02.144-.02a2.88 2.88 0 0 0 .008-.092l.041-.169a28.89 28.89 0 0 0-.025-.293l-.024-.098c.097-.06.229.012.316.052.01.005.015.01.015-.005.095-.05.16-.332.272-.332v-.011c-.059-.11.063-.212.104-.298.046-.095.076-.195.119-.29.019-.044.059-.082.085-.124.029-.048.036-.109.053-.164l.04-.097c.002-.025-.008-.062-.025-.079-.031-.03-.106-.031-.147-.018-.082.024-.148.084-.22.127-.129.074-.263.146-.392.224l-.175.112-.12.062-.084.078-.121.081-.114.11-.213.165-.101.136-.038.093-.073.106-.046.107c-.04.078-.089.154-.129.232l-.079.116-.062.121c-.063.124-.154.24-.181.384-.005.023.005.062.019.076.052.052.138.063.198.102.144.093.488.372.327.568-.065.08-.218.138-.319.084a13.4 13.4 0 0 0-.124-.096c-.065-.034-.129-.068-.191-.112-.071-.052-.131-.124-.23-.124v.012l-.042.053-.048.047c-.031.03-.041.066-.065.1l-.078.098-.06.134-.113.12c-.07.08-.212.256-.329.26-.046.001-.106-.02-.106-.078.05-.053.11-.108.145-.17.047-.086.084-.18.137-.261l.098-.12c.019-.035.019-.08.031-.121l.098-.186a.134.134 0 0 1 .095-.054c-.006-.006-.011-.012-.023-.012-.017-.057-.103-.157-.175-.141-.068.014-.114.086-.165.132l-.118.097-.07.082-.19.144c-.071.056-.142.16-.242.16v.012a.162.162 0 0 1-.016.105c-.048.095-.109.136-.181.208l-.117.168-.082.092c-.054.086-.056.202-.145.27a.36.36 0 0 1-.228.07l-.108-.024c-.012-.076-.056-.097-.09-.157l-.065-.15c-.03-.077-.025-.184-.03-.272a4.058 4.058 0 0 1-.013-.109l.009-.165-.074-.296c-.035-.081-.106-.161-.104-.26.001-.024.011-.056.032-.066.077-.036.249.122.297.173l.08.122.078.075c.036.041.074.099.105.145.027.042.047.137.099.152.095.026.132-.08.184-.13l.11-.08c.035-.039.071-.078.106-.119.061-.048.268-.206.268-.287 0-.102-.328-.066-.391-.18-.024-.045.004-.09.027-.126a.3.3 0 0 0 .038-.179c-.016-.082-.053-.114-.077-.18a3.715 3.715 0 0 0-.164-.382c-.025-.05-.07-.087-.089-.146-.011-.034-.047-.112-.007-.145.009-.009.015-.006.015-.023a.79.79 0 0 1 .255.126l.105.092c.156.105.299.21.437.347.053.054.123.102.161.166.048.083.049.221.049.324.015 0 .012-.004.012.012a.721.721 0 0 0 .229-.149c.08-.07.169-.138.248-.214l.147-.174c.055-.059.13-.08.184-.136.08-.083.122-.194.168-.297l.062-.099.103-.295a2.272 2.272 0 0 0-.004-.082c-.05-.007-.101.026-.141.05-.055.032-.113.052-.162.098-.062.058-.103.13-.151.193l-.096.08c-.039.04-.063.09-.105.132-.058.055-.121.094-.18.143-.039.032-.062.089-.115.104-.025.007-.053-.006-.08-.006.019-.157.456-.527.407-.669-.015-.044-.558-.047-.632-.125-.008-.008-.036-.047-.012-.047a.376.376 0 0 1 .213-.107h.047l.127-.054.149-.078c.05-.02.104-.027.15-.046.066-.028.133-.07.214-.07l.134-.046c.037-.028.042-.078.064-.116l.074-.117c.03-.079.048-.161.081-.239.037-.085.098-.18.15-.257.008-.01.016-.043.03-.043 0-.016-.004-.012.012-.012-.003-.076.074-.148.107-.208.04-.073.072-.153.114-.226.048-.085.17-.264.17-.372.085-.097.228-.359.221-.497 0-.016-.014-.06.004-.06.022-.041.069-.061.107-.082Zm-8.187 1.8.082.024v-.012c.049 0 .133.034.172.056.061.036.245.224.282.281l.108.27c.022.098.017.343.004.447-.008.06-.047.098-.072.147l-.061.187-.016.124c-.014.043-.042.079-.05.126l.005.115c-.004.03-.066.143-.087.143 0 .016-.004.012.012.012.014.027.047.062.047.095-.102.045-.071.21-.071.308-.018.002-.047.003-.047.023s-.003.06-.024.06c.008.017.031.13 0 .13-.046.045-.048.083-.048.142l-.007.046.02.073c-.046.037-.036.077-.036.13 0 .126.089.142.201.142.044-.056.099-.054.152-.085.033-.02.053-.06.078-.087.026-.026.102-.04.102-.088.049-.007.092-.036.118-.036.002-.047.06-.052.06-.095h.011l.048.012c.024-.03.166-.142.166-.166.015 0 .011-.004.011.012h.036l.099-.09c.097-.104.155-.233.207-.36.006-.015.019-.06.038-.06 0-.071.118-.148.118-.165-.023-.084.072-.18.127-.228.014-.012.051-.025.051-.045.015 0 .012-.004.012.012.052.036.094.07.108.133.013.06-.019.145-.03.2l-.026.21c-.03.14-.084.27-.12.406-.021.076-.028.161-.056.234-.034.09-.119.16-.154.253-.021.057-.014.14-.039.194-.035.073-.105.12-.151.187-.086.12-.127.272-.248.369-.066.052-.162.075-.225.133-.043.038-.057.095-.087.14a.703.703 0 0 1-.265.2c-.016.003-.058 0-.058.019-.011.015-.036.094-.047.094v.012c-.011-.002-.044-.01-.056-.003l-.018.013c-.021.018-.016.042-.024.067l-.077.104c-.051.049-.394.338-.394.388-.036.003-.106.044-.106.083h-.012c-.016-.012-.06-.025-.06-.047h-.023c0 .014.007.035-.012.035v.012a.094.094 0 0 0-.065.019 3.97 3.97 0 0 0-.125.17c-.081-.003-.151.13-.189.13v.013c.012.057-.048.091-.048.142.017.012.04.059.059.059-.015.055-.011.13-.011.19-.062.04-.084.122-.131.177-.053.06-.138.058-.188.119-.052.063-.09.148-.132.218a2.695 2.695 0 0 1-.059.064l-.114.176c-.015.033-.005.086-.005.123h-.011c-.008.01-.029.059-.036.059-.034.036-.038.082-.059.124l-.069.076a4.067 4.067 0 0 1-.055.103c-.034.044-.075.064-.118.097l-.086.078c-.075.063-.148.15-.222.215-.045.038-.098.05-.144.084l-.095.09a1.08 1.08 0 0 1-.242.057v.012c.008.03.012.101.012.13h-.012v.012l-.047-.012c-.008.035-.014.054-.041.076l-.086.018c-.056.016-.088.061-.169.052-.052-.007-.091-.051-.155-.051-.015-.1-.141-.16-.141-.249.072-.061.097-.156.155-.225.075-.091.175-.156.244-.251.029-.042.023-.106.056-.148.021-.028.101-.064.101-.099-.008-.024.012-.167.012-.213.049-.017.124-.07.119-.13-.001-.013-.003-.012.011-.012.013-.015.052-.06.072-.06-.006-.011-.034-.059-.012-.059l.227-.337c.025-.041.008-.107.036-.15.044-.065.158-.18.165-.26a.24.24 0 0 0-.017-.104c-.012-.023-.044-.054-.044-.084.001-.013.018-.048 0-.048v-.024l-.178.012c-.022-.023-.05-.046-.084-.05-.145-.018-.193.091-.345.008-.012-.007-.033-.011-.033-.029l-.166.036c-.009-.01-.024-.02-.024-.036-.015 0-.011-.004-.011.012l-.074.038c-.053.014-.11.006-.163.006l-.166.01c-.048.002-.076.037-.12.043a2.78 2.78 0 0 1-.331.016c-.051 0-.087-.018-.142-.018-.057-.065-.141-.082-.21-.124-.033-.02-.056-.062-.085-.089l-.069-.04a.519.519 0 0 1-.152-.153c-.007-.013-.002-.009-.017-.009 0-.016-.004-.012.012-.012.053-.098.132-.201.261-.201l.078-.014c.041-.013.072-.057.123-.057.028-.01.119.022.119.047.015 0 .012.004.012-.012h.011a.204.204 0 0 1 .119-.047c.072-.134.278-.036.412-.06l.01-.002.013-.005.131-.079.046-.038c.032-.014.079-.011.109-.02.015-.005.025-.003.025-.021.007-.01-.005-.012.012-.012v-.012a.523.523 0 0 0 .197-.033l.09-.036.069.01v-.012h.166v-.012c.08-.08.161-.1.284-.104.035.002.069.005.104.006.062-.006.097-.05.148-.072a.51.51 0 0 0 .266-.288c.012-.03.098-.09.098-.11.139.013.162-.072.213-.171.035-.068.06-.108.06-.197.094-.08.032-.15.067-.258.006-.022.051-.07.051-.074h-.012l.008-.019c.041-.085.092-.167.078-.278-.002-.012-.008-.023.009-.023l.034-.024c.026-.028.037-.106.084-.106-.029-.142.119-.248.119-.391a.214.214 0 0 0 .012-.083c.018-.018.04-.083.059-.083-.01-.074.027-.09.042-.137.011-.033.008-.067.022-.098.018-.037.06-.082.055-.133 0-.012-.003-.01.011-.01.009-.014.024-.028.024-.048-.06-.06 0-.148.022-.214l.002-.07c.107-.081.058-.195.079-.32.006-.041.111-.273.134-.273-.016-.062-.018-.252.02-.3l.095-.093c.015-.022.042-.081.075-.081 0-.014.006-.024-.012-.024-.011-.049.001-.114-.001-.166l-.011-.07c.045-.022.072-.061.107-.096Zm-42.465.072c.116.003.326.04.401.107l.052.08.06.067c.022.033.03.077.046.112l.075.168.007.26.03.178c.006.061-.004.13-.01.188-.007.057-.038.106-.05.156l-.012.188c-.007.047-.04.08-.051.122l-.004.103-.016.108.005.094c.016 0 .012-.004.012.012.015 0 .012.003.012-.012h.012c.057-.054.103-.142.17-.182.059-.035.151-.006.218-.018.044-.008.075-.038.112-.055.04-.02.099-.03.151-.03l.083-.011c.071-.032.195-.004.273-.005.122-.002.25.005.379.005.068-.035.123.044.17.076l.084.05a1.4 1.4 0 0 1 .212.268c.053.11.077.533.034.655-.028.079-.077.149-.117.22-.012.03-.023.059-.036.088-.026.044-.072.076-.104.117l-.087.138-.282.31c-.074.083-.133.177-.202.262-.051.062-.127.108-.186.158-.038.032-.052.075-.097.1-.038.02-.1.016-.139.037l-.07.075-.122.04-.095.074-.123.037c-.028.014-.056.028-.085.04-.056.016-.126.01-.188.021-.047.009-.092.037-.145.046-.043.008-.1-.004-.137.014-.017.008-.27.284-.28.306-.023.046-.024.112-.054.153-.031.044-.093.04-.123.084-.028.041-.026.098-.041.145-.015.047-.05.082-.068.125l-.027.112c-.042.116-.093.237-.122.36a3.19 3.19 0 0 1-.035.095h.025l.106.035.069-.12c.06-.035.123-.069.185-.102.036-.027.061-.06.105-.075l.16-.025c.054-.028.093-.094.15-.115l.133-.013.099-.07.126-.024c.085-.03.1-.107.217-.107l.135-.026.056-.054a.274.274 0 0 1 .164-.05c.016-.01.06-.003.06-.024.012-.023.025-.054.045-.072.057-.052.203-.011.274-.011.045-.099.166-.119.273-.119.063-.025.174-.012.249-.012.04-.02.127-.011.177-.011.019-.062.065-.084.13-.084a.473.473 0 0 1 .202-.035c.08-.04.262.006.355.003l.143-.015c.103-.046.332.015.332.142h.011c.04-.018.166.002.166.06h-.011c-.136.067-.311.059-.462.098-.12.03-.213.124-.333.148-.162.03-.336-.022-.509-.005-.186.017-.314.153-.478.208-.063.02-.144-.004-.204.024-.073.035-.138.11-.222.147l-.253.076-.162.102c-.033.014-.064.028-.097.04l-.207.168c-.044.031-.102.032-.147.06-.082.046-.15.142-.256.142 0 .016.004.012-.012.012v.023c.119.05.217.181.28.288l.03.078.082.102.05.11.06.068.063.12.074.093c.026.064.01.153.052.208l.18.123a.89.89 0 0 1 .14.2c.021.063.026.139.063.193.055.081.154.124.185.221a.414.414 0 0 1-.071.38c-.179.21-.725.028-.982.126-.055.02-.14.1-.174.148l-.062.12-.118.128-.143.19c-.037.032-.09.062-.13.096-.034.028-.057.066-.095.09l-.121.04c-.045.022-.073.068-.121.09l-.272.05c-.024.01-.049.017-.074.025-.045.006-.09.013-.136.018-.046.016-.081.043-.136.053-.097.018-.306 0-.413-.007-.061-.005-.112-.038-.167-.05l-.103-.016-.097-.026c-.015-.054 0-.12 0-.178l.225-.03.083.014c.09.01.23.012.319 0l.118-.034.09-.056c.036-.015.093-.012.136-.012l.077-.024c.07-.031.105-.083.196-.083.031-.03.052-.068.081-.096.033-.032.077-.031.112-.057l.118-.104.052-.094c.035-.057.135-.12.135-.194-.075.007-.157-.001-.237.001-.079.002-.166.014-.249.008-.053-.005-.093-.03-.143-.039-.066-.011-.146 0-.201-.029-.127-.069-.175-.167-.235-.292-.035-.071-.086-.134-.102-.22a51.625 51.625 0 0 0-.009-.247c-.004-.049-.02-.098-.02-.153a2.84 2.84 0 0 1 .038-.438c.01-.054.044-.108.044-.167-.117.023-.189.096-.29.143-.08.036-.167.039-.251.069l-.14.084-.143.036-.067.041-.096.042-.098.082-.133.03-.1.057-.159.054-.139.089-.17.076-.1.059c-.08.035-.175.047-.256.08-.086.036-.14.14-.23.17l-.244.079c-.038.015-.071.044-.112.057-.069.02-.15.02-.21.056l-.134.137c-.016.011-.08.027-.08.04H69.9c.007.042.016.112-.01.146-.08.11-.3.1-.439.113-.071.007-.217.06-.244-.047-.038-.145-.004-.324.117-.406.042-.028.09-.032.132-.062.04-.03.056-.095.103-.118.064-.03.2-.004.2-.112l.185-.022c.037-.012.048-.059.076-.082.026-.023.079-.026.117-.026.017-.01.035-.02.052-.032.023-.022.04-.054.069-.07.039-.025.092-.033.132-.053l.061-.06.111-.037c.043-.027.07-.087.111-.11.037-.02.083-.024.124-.038l.115-.064.126-.045.18-.13c.02-.022.042-.043.063-.064l.113-.054c.084-.055.13-.108.248-.108l.024-.083c.063-.023.213-.044.213-.142l.107-.02c.031.004.063.006.094.008v-.012c.084-.114.126-.07.232-.127l.139-.1.17-.022c.04-.016.052-.073.094-.092l.156-.024c.041-.012.067-.054.104-.074.06-.034.125-.023.196-.023v-.011l.023-.072c.03-.012.069-.018.085-.052.083-.173.12-.392.154-.587l.051-.144c.024-.118.044-.226.073-.34.011-.05.059-.081.076-.126l.032-.217.035-.064.064-.164.015-.166.026-.13c.01-.111-.127-.215-.189-.293-.008-.01-.03-.032-.03-.05l-.093.108c-.03.029-.071.046-.095.083l-.071.12-.06.057-.058.11-.363.403a1.711 1.711 0 0 0-.098.151l-.04.092c-.06.08-.164.106-.23.183-.064.074-.093.222-.137.308l-.063.062c-.073.087-.157.17-.224.264l-.09.135c-.03.03-.08.039-.116.063-.06.04-.11.103-.175.138-.068.035-.15.062-.216.1-.064.036-.11.102-.203.076a79.131 79.131 0 0 0-.22-.13l-.153-.163c-.073-.049-.187.007-.225-.103a.539.539 0 0 1 .02-.326l.034-.075.024-.199c.014-.067.052-.13.07-.193.022-.078.026-.16.036-.245.006-.057.025-.115.037-.178.017-.097.073-.184.095-.275.021-.087.047-.167.069-.25.02-.076.018-.156.042-.23.031-.098.11-.17.16-.257.024-.04.02-.104.038-.147.023-.034.046-.067.068-.102l.151-.34c.043-.076.125-.116.177-.189l.036-.075.088-.118.061-.121a.125.125 0 0 1 .088-.049c.064-.006.128.006.145.07.044.159-.036.405-.066.544-.03.138-.03.27-.05.412l-.037.132c-.009.072.013.148.017.213a.887.887 0 0 1-.05.357c-.006.016-.058.172-.024.182l.03-.02.094-.046a4.36 4.36 0 0 0 .035-.063l.085-.101c.032-.047.05-.103.078-.15l.096-.129.093-.059c.09-.091.177-.197.27-.287.092-.09.179-.17.262-.27.029-.034.036-.086.073-.115.025-.021.064-.02.097-.028.04-.01.09-.038.117-.068l.011-.017c.03-.07-.02-.468-.04-.547-.013-.045-.051-.083-.056-.133-.006-.057.03-.103.038-.154l.041-.343.05-.155c.022-.118-.012-.261.034-.364l.05-.087.079-.186.069-.102.035-.125.05-.11.033-.095.05-.05.057-.1c.037-.045.075-.09.111-.136l.046-.087c.03-.04.074-.054.1-.099.007-.011.015-.018.015-.034.082-.01.115-.057.182-.083l.138-.024Zm22.88.023c.1.024.256.217.295.302a.346.346 0 0 1 .014.215c-.013.038-.048.068-.062.104l-.036.117c-.019.032-.052.063-.06.102l-.022.113c-.012.025-.032.051-.039.08-.012.045-.006.082-.029.118-.025.04-.065.07-.097.105-.058.059-.107.13-.17.184-.047.04-.104.068-.154.1-.093.06-.166.158-.252.229a66.18 66.18 0 0 1-.298.19c-.039.029-.081.056-.117.085l-.077.087c-.05.043-.102.044-.155.075l-.047.043-.099.048-.092.055a.638.638 0 0 0-.239.178l-.085.116a.578.578 0 0 1-.195.112c-.015.006-.07.01-.07.027l-.038.104c-.045.071-.341.481-.434.435-.027-.013-.04-.034-.042-.066-.011-.112.087-.125.134-.197.018-.028.02-.075.018-.11-.001-.012-.01-.036.007-.036l.093-.142c.02-.036.028-.079.056-.112l.103-.096.184-.29c.1-.131.235-.246.34-.372.032-.04.04-.086.06-.132l.092-.13c.088-.101.2-.17.274-.282.007-.01.005-.008.018-.008-.021-.11.149-.246.223-.31l.062-.043.061-.095.098-.101.058-.087c.085-.093.209-.13.209-.276h.011l.05-.033c.053-.052.074-.14.127-.194.052-.054.126-.102.189-.143.02-.014.045-.045.073-.045.017-.006.047.011.047-.012h.012v-.012Zm-12.714.095c.124 0 .249 0 .352.032.048.016.327.212.345.248.03.062.031.213-.007.27-.022.033-.058.052-.088.076-.183.147-.404.17-.614.264-.087.038-.165.095-.25.14l-.116.04-.201.106-.303.178-.29.116-.207.12c-.103.051-.376.1-.396.235-.003.016.004.023-.014.023v.012c-.014 0-.024.006-.024-.012-.022-.007-.068-.02-.095-.011-.156.047-.686.363-.734.52-.035.115.095.15.118.218.015.047-.031.198-.044.242-.009.03-.032.048-.053.072-.087.094-.223.163-.22.31 0 .028.004.067.02.084.03.034.096.032.132.011.115-.069.228-.146.347-.205l.242-.109.064-.049c.117-.061.233-.131.347-.196l.28-.115.11-.063.099-.029c.076-.036.156-.087.252-.087l.071-.012c.043-.017.129-.001.178 0 .045 0 .106-.002.142.012.084.031.275.192.309.276.065.166.009.389-.09.512-.078.097-.235.14-.338.207l-.159.123c-.118.085-.248.164-.366.25l-.145.073c-.182.127-.326.308-.54.377-.086.027-.187.06-.283.064-.115.003-.37-.025-.459.02-.024.011-.042.038-.056.06-.079.116.038.168.034.288-.003.074-.053.12-.089.174-.007.01-.025.064.002.064.062.015.112-.015.158-.041.177-.103.33-.257.56-.141.075.037.126.123.192.172.09.067.23.11.281.22.018.039-.03.189-.054.216-.09.104-.234.15-.34.23-.088.065-.169.158-.252.233l-.125.067a5.709 5.709 0 0 1-.07.07l-.108.072-.017.004c-.04.173-.247.172-.365.252-.06.04-.073.09-.115.133-.06.059-.129.117-.192.174l-.098.046-.144.079-.149.124c-.025.032-.039.07-.065.102-.049.06-.128.106-.128.192h.036c.02.004.323-.151.359-.17l.358-.17.105-.063.216-.056.18-.099.243-.11.132-.041.117-.078.112-.048c.116-.043.233-.137.37-.137.101-.061.307-.036.411.005.046.018.085.058.123.087.148.114.349.278.229.495-.04.073-.102.123-.157.185-.058.066-.097.14-.174.191-.057.04-.148.06-.194.115-.047.055-.09.12-.126.181-.037.064-.063.173-.127.217l-.11.048c-.049.024-.085.062-.13.09l-.13.074c-.035.032-.044.08-.066.116l-.11.099c-.028.023-.065.031-.098.047a.428.428 0 0 0-.175.152c-.046.07-.067.242-.067.339 0 .061-.004.238.019.28.053.097.15.1.24.137l.098.048.087.009c.055.017.101.055.162.065l.176.006c.046-.02.138 0 .19 0l.106-.012c.053-.024.108.007.155.012h.2c.048-.028.128-.024.19-.024.065-.03.177 0 .25 0 .09-.058.26-.035.379-.035.052-.027.135-.024.2-.024a.321.321 0 0 1 .155-.036c.066-.044.197-.059.284-.059l.152-.065a.463.463 0 0 0 .15-.14c.03-.039.022-.088.042-.133l.101-.185.027-.113.054-.147c.02-.1.003-.222.02-.319.02-.107.066-.21.086-.322.011-.06-.016-.115-.009-.175.006-.046.036-.079.036-.131l-.037-.225a71.484 71.484 0 0 0-.01-.248c-.014-.09-.052-.193-.062-.286-.007-.054.013-.33.05-.358.032-.025.094-.024.11.02.012.036.002.087.002.126l.008.258c.013.054.077.079.092.127.02.06-.018.14.006.202l.004.006.096.077c.117.093.13.184.125.337 0 .014.004.012-.012.012v.011c-.038-.008-.12-.06-.159-.035-.045.028-.055.284.04.284.024-.042.106-.132.158-.065.036.047-.05.205-.046.266.002.048.054.082.06.131.013.102-.01.21-.012.308l.014.119.006.165c.004.066.04.105.054.16l-.004.113c-.004.036.026.142.02.142a.296.296 0 0 0-.025.175c.007.027.026.043.029.074.01.105-.088.212-.172.258-.1.054-.24.04-.366.054l-.274.073c-.064.01-.145-.001-.212 0l-.119.015-.271.005-.18.028-.152-.006-.32.025c-.08.014-.159.028-.238.04l-.117-.01c-.06.003-.11.037-.179.036a33.764 33.764 0 0 1-.19-.04c-.175-.014-.35-.014-.52-.041-.045-.008-.085.017-.13.017l-.201-.033-.276-.082c-.066-.012-.14.007-.211.001a.999.999 0 0 1-.246-.107c-.06-.046-.171-.187-.182-.258l-.001-.236-.033-.142c.02-.032.016-.216.005-.258-.015-.058-.01-.14-.041-.192-.036-.056-.09-.06-.151-.078l-.137-.055c-.067-.023-.159-.027-.209-.08-.14-.15.095-.378.138-.522.006-.024-.007-.053-.034-.057-.073-.01-.22.158-.252.215l-.038.096c-.036.049-.098.066-.132.115-.14.2-.241.488-.562.384-.07-.023-.156-.062-.199-.133-.024-.039-.023-.105-.024-.157a.753.753 0 0 1 .022-.258c.044-.131.132-.233.217-.346l.036-.07.06-.068.098-.142.116-.13c.078-.11.148-.229.218-.343.029-.048.14-.157.144-.209.009-.152-.722-.019-.66-.401a.39.39 0 0 1 .061-.163c.055-.068.149-.114.218-.162.081-.06.163-.117.245-.176a.3.3 0 0 1 .126-.032c.08-.053.213-.081.277-.15.028-.03.03-.073.046-.11.06-.142.17-.33.08-.5a.153.153 0 0 0-.13-.08c-.125 0-.287.213-.378.296l-.144.104c-.079.071-.146.15-.23.22l-.144.095c-.074.055-.142.12-.22.167a1.35 1.35 0 0 1-.319.08c-.068.008-.151-.013-.213-.023-.128-.021-.265-.021-.389-.047-.063-.013-.112-.047-.168-.073-.068-.032-.136-.06-.202-.096-.092-.05-.199-.12-.207-.24 0-.017-.007-.07.007-.07.07-.152.482-.26.652-.26l.102-.034.087-.061c.04-.023.094-.02.138-.035.218-.08.436-.177.641-.279.108-.054.206-.155.304-.226l.18-.096.27-.21.238-.166c.03-.022.082-.023.1-.061.036-.084-.042-.157-.044-.232l.02-.177v-.367c-.004-.083-.05-.157-.042-.249a.25.25 0 0 1 .053-.124c.057-.08.34-.158.44-.198.065-.027.13-.058.189-.095l.129-.118c.085-.078.275-.187.261-.327-.007-.077-.162-.184-.226-.208l-.233-.057c-.06-.023-.115-.079-.181-.096l-.151-.011-.108-.027c-.118-.025-.232-.028-.299-.135-.013-.02-.034-.042-.03-.071.004-.042.059-.07.089-.09.264-.191.608-.248.937-.312.101-.02.185-.086.3-.086l.08-.028c.07-.03.13-.078.216-.078l.117-.026.203-.08.174-.055c.143-.051.28-.126.43-.167.074-.021.17-.015.245-.037.212-.061.427-.18.667-.18l.095-.024Zm15.569.13c.13 0 .288.03.358.136.021.03.018.074.031.108l.05.09c.032.118.033.28.004.4-.012.049-.052.089-.059.143l-.013.223c-.014.063-.051.114-.06.18-.015.106.001.222-.01.331-.005.049-.046.089-.053.133l-.006.152-.026.19.003.391-.016.4c-.008.05-.05.08-.062.125-.03.11-.03.28.119.28.087-.087.204-.123.265-.235.004-.01.008-.013.02-.013.081-.07.391-.387.391-.486v-.06c.104-.07.059-.199.072-.32.006-.06.077-.097.087-.19a.363.363 0 0 0-.015-.137 3.654 3.654 0 0 0-.044-.089c-.018-.089-.013-.188-.032-.278a22.377 22.377 0 0 1-.097-.215c-.018-.033-.066-.067-.066-.11a.46.46 0 0 1 .213-.034l.196.01c.072.024.128.124.166.182l.04.08c.032.042.131.137.144.18.023.083.001.196.004.281.004.137-.001.28-.001.415 0 .078.013.16.006.237-.007.077-.06.107-.088.167a.362.362 0 0 0-.007.154c.002.012.005.011-.01.011l-.067.061-.059.11c-.022.014-.043.028-.065.04-.032.025-.058.06-.086.091l-.067.111c-.054.062-.136.096-.195.15a2.504 2.504 0 0 0-.051.1l-.066.024-.093.066-.082.041c-.088.06-.158.164-.233.238-.04.035-.081.07-.122.103a9.01 9.01 0 0 1-.076.127c-.009.013-.01.03-.029.03.009.092-.068.156-.08.237-.026.18.009.383-.01.567-.009.09-.067.167-.065.261.001.056.051.104.061.156.014.077-.003.163.02.232l.051.086.041.126.065.093c.025.064-.003.202.006.278.005.042.034.075.033.12-.005.136-.184.176-.252.27-.065.09.005.156.032.222l.011.088c0 .06-.04.113-.027.165.038.149.198.068.237.153.018.038-.016.077-.022.11a6.53 6.53 0 0 0-.019.138c-.02.07-.132.064-.186.09-.005.002-.039.02-.014.02.031.087.023.141.023.237.032.011.083.022.109-.008.03-.037.052-.267.155-.15a.09.09 0 0 1 .022.052l-.023.13-.009.354c-.011.05-.052.09-.059.143a.304.304 0 0 0 .015.149l.037.078c.01.076-.035.136-.005.221.023.063.089.097.098.169a.922.922 0 0 1-.004.246c-.01.053-.032.117-.023.179.012.08.082.113.102.17a.313.313 0 0 1 .003.136l-.054.101c-.021.049-.022.11-.056.15-.051.063-.122.07-.184.115l-.09.097-.217.133-.232.065c-.06.006-.252-.014-.288-.05-.034-.036-.043-.13-.043-.181.01-.01.02-.024.035-.024-.006-.007-.011-.012-.023-.012a.566.566 0 0 1-.003-.234c.014-.043.052-.08.051-.134-.001-.069-.05-.137-.057-.213l-.005-.71c-.003-.063-.036-.104-.05-.157-.015-.062-.009-.153-.008-.223a.62.62 0 0 1 .019-.151c.011-.042.035-.082.033-.133-.001-.04-.026-.074-.033-.108l-.004-.13-.013-.13c0-.063.024-.117.025-.177.001-.048-.017-.102-.01-.154.006-.048.035-.09.038-.143v-.153l.02-.131c0-.087-.026-.19-.02-.284.004-.077.042-.135.053-.203.017-.102-.016-.21-.016-.307 0-.059.05-.1.05-.154l-.083-.144.002-.389.07-.168c.007-.04-.014-.081-.02-.117-.02-.12.006-.217-.074-.309-.095-.108-.448.285-.507.35l-.14.13c-.037.042-.053.088-.097.128-.023.019-.06.02-.088.03-.02.005-.093.029-.093.051-.04.041-.04.114-.077.16-.053.064-.117.063-.178.108-.144.103-.338.333-.529.148a.25.25 0 0 1-.063-.225c.02-.098.107-.135.176-.187.032-.025.06-.06.094-.08.042-.024.09-.032.128-.064l.097-.08c.06-.065.113-.15.169-.218.042-.053.153-.115.21-.154.1-.07.175-.182.26-.27.057-.059.129-.103.168-.172a.243.243 0 0 0 .018-.103h-.011c-.123.04-.263.019-.326-.093-.02-.035-.053-.051-.06-.098-.02-.135.088-.237-.016-.357-.068-.078-.218-.007-.307-.03-.077-.02-.119-.095-.187-.133-.096-.054-.133-.016-.213-.123l-.04-.08c-.003-.053.015-.105.019-.153l.004-.284c.027-.096.092-.107.094-.237.001-.051.008-.128-.014-.168-.05-.09-.14-.11-.169-.225a.392.392 0 0 1 .03-.216l.048-.06.03-.085c.058-.11.192-.23.325-.23a.278.278 0 0 1 .19-.082c.234-.138.448.076.564.255.023.036.075.09.075.136a.303.303 0 0 0-.09.131c-.014.057-.012.12-.043.166-.115.17-.314.28-.464.42-.043.04-.063.109-.09.16-.02.038-.054.083-.031.134.031.073.194.1.265.08l.113-.063c.049-.006.098-.014.146-.021l.243-.121c.1-.018.28.08.354.013.197-.176.093-.516.121-.769l.022-.106.047-.098c.023-.136.002-.292.014-.436l.03-.12-.022-.093a.426.426 0 0 1 .026-.173c.01-.028.028-.056.035-.088.005-.024-.017-.095 0-.095.003-.015.007-.035.023-.035-.01-.02-.023-.044-.023-.071.03-.06 0-.243 0-.32.02-.034-.063-.237-.036-.237.015-.032.035-.06.047-.095l.014-.075a.785.785 0 0 1 .216-.19c.05-.03.103-.026.15-.067Zm-31.908.25c.078 0 .19-.014.255.01l.068.041c.089.046.18.087.252.165.03.033.034.077.053.114l.081.127a.412.412 0 0 1 0 .244c-.02.034-.064.055-.093.078-.047.037-.306.065-.38.058-.043-.004-.072-.028-.118-.028-.06 0-.103.03-.166.028l-.114-.02c-.119.02-.235.069-.344.113l-.1.045c-.084.02-.17.014-.259.034-.09.02-.178.058-.263.085l-.116.03-.16.084-.142.022-.13.074c-.134.063-.278.106-.408.178-.035.02-.076.081-.12.081v.024c.157.036.299-.06.462-.06.059-.021.28.066.327.092l.113.082c.036.018.08.022.113.045a.221.221 0 0 1 .073.105c.004.015-.004.044.014.044l.059.094.025.087.048.105c.008.051-.022.119-.029.164-.011.071-.005.146-.019.21l-.037.078a2.722 2.722 0 0 0-.04.173c.011.047.052.072.1.072a.474.474 0 0 1 .248-.106c.05-.04.344-.098.344-.143h.012c.066.03.167-.022.228-.034.042-.003.084-.005.125-.009.034-.012.067-.025.1-.039l.162-.008.097-.03c.056-.006.12.014.167.027.107.03.148.046.168.16.011.063.064.09.064.182 0 .162-.068.276-.068.415a.604.604 0 0 0-.094.143l-.022.059a.575.575 0 0 1-.076.247c-.03.06-.125.147-.109.222a.47.47 0 0 1 .004.016h-.011l-.131.225c.015.107-.057.185-.096.266-.025.05-.035.113-.047.169l-.076.16a1.088 1.088 0 0 0-.077.4c-.04.034-.047.076-.047.131a.185.185 0 0 0-.065.08c-.026.056-.031.123-.054.18-.049.118-.104.244-.134.37l-.02.208c-.023.08-.067.16-.09.241-.032.105-.042.212-.072.316-.015.05-.04.086-.04.145-.054.05-.05.115-.064.189l-.06.18-.023.126c-.038.087-.09.175-.134.26l-.02.06-.055.096-.082.183-.079.082c-.017.026-.034.053-.052.078l-.084.058c-.023.026-.029.06-.048.088l-.057.056c-.117.137-.21.214-.365.301-.077.044-.125.084-.217.11-.264.074-.62-.019-.786-.213-.029-.034-.037-.084-.06-.122a.927.927 0 0 0-.133-.147c-.023-.021-.133-.04-.133-.058h-.012a.985.985 0 0 1-.018.03c-.037.034-.09.046-.134.068-.096.048-.18.113-.28.151l-.121.031c-.055.028-.11.054-.166.081l-.13.1c-.067.027-.134.053-.202.078-.05.044-.1.088-.15.13l-.084.06c-.049.047-.093.1-.15.132l-.027.013c-.063.017-.153.01-.22.009h-.45c-.054-.001-.124.008-.173-.009-.08-.028-.065-.136-.084-.209l-.061-.12c-.028-.083.087-.19.163-.19-.004-.068-.035-.12-.03-.189.005-.052.143-.23.196-.236.086-.01.135.058.178.058v-.011c.177-.083.194-.277.306-.419l.115-.118c.038-.05.055-.107.094-.159l.13-.139.083-.181.071-.069c.02-.028.038-.057.057-.087l.103-.128.03-.09.041-.045.055-.1c.037-.052.093-.089.128-.14.044-.067.066-.134.1-.204.058-.117.184-.206.233-.328l.077-.205.06-.076c.044-.058.093-.143.133-.208.034-.054.052-.119.092-.172.01-.014.142-.166.142-.166a.52.52 0 0 1-.012-.13l.116-.154c.031-.029.118-.04.13-.073.007-.019-.015-.053-.022-.067-.004-.007-.02-.026.001-.026.04-.045.081-.09.121-.137l.03-.07c.028-.043.055-.087.081-.13l.06-.068a.692.692 0 0 0 .098-.215c.006-.041-.035-.057-.035-.09-.015 0-.011-.005-.011.011-.132.071-.237.197-.352.298l-.1.047-.066.073-.106.082c-.072.053-.18.06-.26.113-.052.035-.063.108-.119.147-.046.031-.117.021-.165.053-.1.068-.192.154-.295.221-.063.04-.14.056-.201.101-.025.019-.034.053-.063.073-.037.025-.09.012-.125.045-.052.048-.02.214-.027.286l-.035.168v.14c-.003.015-.023.049-.006.049.015.025.033.053.038.084.027.167-.112.595-.23.694-.059.05-.138.037-.211.061-.033.01-.092.05-.129.042-.072-.015-.101-.064-.159-.106l-.066-.021a.384.384 0 0 1-.152-.129c-.026-.038-.03-.078-.05-.123l-.035-.068c-.017-.049-.015-.088-.045-.129-.007-.01-.063-.073-.063-.045-.112.052-.18.196-.299.242-.011.004-.02.005-.02.02-.021.08-.115.13-.169.186-.057.058-.09.127-.126.197-.01.022-.03.058-.025.086.002.014.02.04 0 .04l-.101.18-.009.088-.028.1c-.012.067-.008.135-.019.2l-.051.202.008.128-.039.088a.426.426 0 0 0-.006.138c.004.037.03.15.042.186.018.049.099.19.088.24-.01.048-.168.185-.211.197-.08.021-.147-.105-.21-.133-.047-.021-.101-.03-.147-.059-.079-.05-.128-.124-.198-.19-.053-.048-.118-.097-.161-.158-.032-.046-.034-.11-.07-.159l-.077-.094a7.434 7.434 0 0 1-.04-.085 9.382 9.382 0 0 1-.063-.092c-.022-.057-.02-.134-.045-.193-.045-.107-.105-.211-.153-.32l-.04-.078.004-.08-.02-.142-.02-.074-.007-.09c-.007-.05-.025-.1-.026-.156-.002-.114.023-.212.023-.32.04-.037.044-.09.07-.135.025-.041.04-.093.067-.133.064-.1.2-.194.325-.194.037-.016.126-.005.166-.002.117.01.331.031.287.193-.004.012-.005.01.009.01l.077.11c.014.027.008.062.023.089.02.035.066.079.066.121.043-.028.154-.314.154-.379.093-.074.124-.187.185-.278l.239-.244.061-.121.083-.103c.03-.037.068-.047.102-.076l.08-.097c.088-.086.209-.15.25-.268.034-.103.002-.238.014-.353l.04-.132c.006-.072-.028-.147-.013-.224.016-.077.072-.164.081-.236l-.019-.12a3.696 3.696 0 0 1 0-.414c.005-.101.037-.2.067-.291.014-.044.056-.11.035-.165l-.006-.01c-.035-.041-.126.02-.169.02-.114.005-.215-.043-.32-.059-.072-.011-.173-.014-.23-.059-.027-.02-.069-.068-.074-.103l.008-.055c-.146-.083-.023-.296-.023-.415h.012V57.6c.048-.008.094-.1.14-.13.032-.016.063-.033.093-.051l.077-.074c.117-.067.251-.107.372-.166.077-.038.128-.112.23-.112l.102-.056.161-.116c.022-.009.054-.006.08-.006.016-.019.162-.132.185-.136l.064.006a.095.095 0 0 1 .06-.024v-.012h.011v.012c.018-.02.048-.053.048-.083.096-.01.175-.063.264-.08a3.7 3.7 0 0 0 .068.01c.019-.019.052-.019.076-.028l.082-.043c.035-.012.07-.013.101-.027l.192-.097.16-.019c.038-.013.124-.095.147-.095v.012c.093-.02.175-.066.263-.087.051-.012.104-.017.152-.028l.059.008v-.011c.066-.043.145-.056.22-.083.066-.025.115-.072.194-.072v-.011l.156-.048.13.013.07-.013.177-.037c.097-.034.19-.07.309-.07l.175-.054.112-.054.114-.017c.06-.015.124-.021.189-.036l.074-.023.104-.013.121-.045.175-.015c.06-.016.126-.049.191-.062.106-.021.211.018.297-.036Zm6.161.035v.011c-.125.058-.18.23-.234.34-.052.104-.138.197-.184.304-.04.089-.059.195-.083.291l-.084.217-.024.15a3.6 3.6 0 0 0-.086.44c-.016.136-.004.285-.004.415.016 0 .012.004.012-.012h.012l.077-.112.078-.052c.049-.052.055-.091.14-.095.018-.001.048.006.048-.013.013-.023.022-.055.045-.072.062-.047.138-.035.169-.122.02-.057.008-.134.014-.197l.046-.332c.01-.088.048-.16.065-.239.04-.205.049-.44.052-.662l.011-.164c-.005-.045-.032-.074-.07-.096Zm33.863.414c.014.004.106.047.106.012.018.008.131.094.131.071.021.003.012.024.035.024.014.004.028.008.042.01.03.016.048.058.068.08.048.054.101.076.148.137.008.012.012.022.027.022-.006.008-.033.035-.012.035v.012h.012c.008-.007.035-.032.035-.012.035.044.036.065.036.119.062.066-.003.379.024.48.003.012.02.03 0 .03-.007.01-.034.047-.012.047.004.016.006.035.023.035 0 .016.004.012-.011.012-.012.025-.012.053-.012.083a.481.481 0 0 0-.107.166c.04.011.083.024.13.024l.095-.012c.02-.058.076-.107.121-.151l.145-.139.044-.08.049-.05a.35.35 0 0 0 .055-.22l.001-.107.061.016c.077.046.356.467.363.543.004.04-.113.316-.135.348a1.07 1.07 0 0 1-.154.143c-.027.009-.05-.007-.076-.007l-.011.114-.06.123c-.049.049-.062.117-.105.169-.081.095-.251.04-.251.21h-.012c-.025.018-.094.07-.094.107-.125-.012-.329.207-.375.31-.007.013 0 .01-.016.01 0 .022-.034.094-.048.094v.012l-.035-.012v.012c.017.118-.085.213-.129.303-.018.038-.02.07-.046.104l-.101.085c-.029.041-.02.099-.034.148a3.382 3.382 0 0 1-.034.095c-.172.016-.17.273-.024.273.059-.075.124-.13.226-.13.04-.044.296-.157.296-.202.015 0 .012-.004.012.012a.196.196 0 0 0 .106.028c.086-.008.534-.202.534-.289h.011c.084.048.193-.044.263-.061l.117-.01.117-.018c.031-.007.08-.043.114-.035l.054.038c.063.056.098.086.188.086a.343.343 0 0 1 .061.213l.022.094c-.005.13-.067.266-.094.392l-.022.198c-.019.072-.061.146-.061.228-.024.008-.047.02-.059.043a1.7 1.7 0 0 0-.09.371c-.002.017 0 .025-.017.025l-.095.047v.012c.012.01.024.018.024.036-.011.01-.012.027-.007.039.013.03.053.04.073.06.033.03.068.126.123.126v-.012c.016 0 .012.004.012-.012.079.037.134.12.213.154v.012l.06.005.063.066c.077.037.12.1.181.157l.177.155c.067.07.139.14.208.206.031.03.059.066.093.086v.012h.024v-.012c.086 0 .129.088.191.127.026.016.071.02.09.042.028.032.046.081.082.105.039.026.107.01.154.024.107.035.13.164.289.164.033.053.047.117.082.166.036.05.122.103.141.159l.013.149c.002.018.008.06.025.06.019-.007.058.003.067.02.029.054.021.517.01.594l-.022.063-.014.103c-.003.015-.024.06-.006.06v-.011h.012c.008-.014.024-.029.024-.047.002.022.001.058-.01.076-.031.048-.245.164-.302.125-.029-.02-.044-.062-.062-.091-.052-.087-.101-.185-.175-.262l-.168-.16c-.044-.03-.103-.044-.143-.085l-.059-.084-.081-.082a45.087 45.087 0 0 1-.166-.25c-.075-.088-.169-.16-.253-.235l-.123-.112-.233-.136-.153-.154a5.48 5.48 0 0 0-.227-.188c-.031-.025-.06-.071-.1-.083-.014-.004-.032-.001-.032-.021.015 0 .024.006.024-.012h-.012V61.9c-.038-.003-.143-.058-.143-.083h-.012c.002-.059-.044-.152-.116-.134-.008.002-.014.008-.014-.008l-.101-.066c-.04-.03-.078-.086-.128-.1a.272.272 0 0 0-.148.004c-.033.016-.052.059-.079.085-.059.057-.131.116-.196.17-.042.034-.105.043-.149.078-.031.023-.159.125-.194.125-.013.103-.177.2-.244.264-.043.04-.074.095-.125.123-.061.032-.147.024-.209.056-.038.02-.069.069-.112.082-.139.043-.945.161-.945-.087-.054-.04-.131-.093-.159-.157-.015-.036-.005-.076-.028-.108l-.099-.113c-.026-.046-.009-.12-.023-.175-.016-.063-.062-.13-.092-.189-.016-.034-.013-.092-.019-.133-.015-.089-.1-.286.065-.286.049-.025.125.114.147.137.081.084.155.18.248.247l.145.086.162.115.096.025.08.044.413.01c.025-.029.119-.14.148-.15l.053-.004c.063-.086.178-.127.254-.196.055-.05.038-.125.084-.177l.178-.177c.026-.026.065-.041.077-.081.009-.03-.009-.071-.022-.097-.021-.04-.048-.054-.097-.054v-.012c.013-.007.024-.008.024-.024-.123.004-.134-.063-.221-.12-.061-.04-.162-.045-.241-.045v-.013c-.027-.032-.044-.067-.087-.086-.19-.086-.821.046-.93-.081-.007-.008-.049-.046-.026-.046.006-.09-.026-.316.007-.387.028-.062.085-.1.131-.15l.074-.092.057-.055c.019-.035.02-.089.024-.133a.375.375 0 0 1 .085-.191c.012-.016.079-.105.061-.105a.344.344 0 0 1-.012-.095c-.049-.02-.087.002-.133.013a30.63 30.63 0 0 0-.164.021c-.047.018-.077.056-.117.086l-.146.092-.057.057-.171.083c-.1.061-.19.167-.293.223l-.135.02c-.022.008-.064.068-.064.068-.015.013-.048.037-.048.06-.113 0-.15.108-.241.14-.037.012-.08.007-.11.03-.06.045-.097.123-.164.163-.064.037-.124.084-.189.12l-.08.044c-.054.042-.093.13-.175.13.004.1-.109.108-.146.171-.028.046-.005.117-.022.168-.029.085-.109.153-.136.243-.022.07-.003.179 0 .248.006.185-.004.376-.004.557 0 .144.014.309-.018.448-.016.068-.108.24-.103.297l.005.023c.007.018.023.05.045.05 0 .015.004.011-.012.011-.017.03-.045.142.024.142 0 .016.004.012-.012.012a3.51 3.51 0 0 0-.038.096c-.015.02-.039.037-.046.061l-.015.095c-.033.066-.139.097-.197.127-.039.02-.056.063-.09.085a.488.488 0 0 1-.266.058c-.042-.045-.126-.038-.158-.089a.536.536 0 0 1-.06-.232 2.321 2.321 0 0 0-.007-.083c-.017-.048-.059-.075-.083-.118-.029-.053-.028-.112-.046-.174-.011-.04-.053-.07-.069-.112a2.864 2.864 0 0 0-.013-.09 2.857 2.857 0 0 0-.039-.121l-.005-.094a3.627 3.627 0 0 0-.039-.14l-.071-.164c-.007-.014-.038-.036-.038-.053-.075.024-.144.07-.216.101-.048.02-.105.027-.153.049-.013.005-.01.003-.01.016-.012-.008-.029-.024-.047-.024-.085.09-.184.048-.296.048.004-.012.008-.024.023-.024v-.012c-.066.005-.109-.036-.168-.052l-.27-.055c-.038-.013-.066-.044-.1-.063a18.044 18.044 0 0 0-.176-.072l-.118-.044c-.022-.013-.057-.065-.057-.093.042-.044.045-.095.119-.095v-.047c.119.011.201-.041.298-.077.121-.046.273-.1.413-.1.026-.073.146-.123.201-.178l.162-.156c.019-.013.051-.01.075-.01v-.012c.038-.025.057-.066.093-.096l.13-.073c.01-.007.015-.005.015-.02h.011c.009.009.012.01.012.023.054-.063.438-.325.438-.38.017 0 .036-.006.036.013.016 0 .012.004.012-.012.043-.018.083-.031.121-.06.018-.013.055-.07.069-.07v-.012c.061-.003.249-.163.269-.22.016-.047.003-.11.003-.16.03-.018.15-.154.166-.154a21.31 21.31 0 0 1-.021-.06c-.002-.03.017-.141.009-.141l-.012-.071c.012-.01.024-.018.024-.036-.037-.056-.026-.152-.083-.215-.037-.04-.164-.02-.211-.003a8.06 8.06 0 0 1-.066.042l-.101.036c-.064.04-.12.099-.191.127-.059.022-.099.01-.154.049v-.012c-.036-.016-.081-.026-.113-.053-.043-.036-.064-.136-.136-.136-.005-.034-.009-.063-.032-.087-.01-.01-.24-.186-.24-.186 0-.016-.004-.012.011-.012.034-.095.095-.12.174-.172.032-.02.054-.056.09-.069l.168-.045c.034-.016.053-.052.08-.079a.28.28 0 0 1 .2-.073l.097-.046.069-.06.098-.056.116-.107c.047-.031.114-.038.161-.067.057-.036.106-.126.181-.126v.012h.012c.01-.03.113-.142.142-.142l-.011-.06c.043-.044.046-.13.059-.19.014-.064.071-.108.084-.168.025-.113-.011-.238.012-.349.022-.106.125-.185.148-.29.034-.154-.065-.234.067-.374.016-.017.029-.039.056-.039-.003-.012-.018-.047 0-.047.034-.074.017-.166.047-.245.014-.038.043-.058.069-.088a.265.265 0 0 0 .061-.236h.013c.027-.02.086-.053.124-.04.046.014.078.086.103.121.075.109.223.381.377.381v.012c-.022.03-.024.103-.024.142a.255.255 0 0 0 .106.024v.012c.021.027.072.142.108.142V56.9c.015 0 .011.004.011-.012h.024v.012c.033.036.045.095.095.095l-.012.06c.014-.004.047-.019.047 0 .021.01.047.046.071.046l-.012.06a.207.207 0 0 0 .108.023c.078.133.111.295.016.433-.017.024-.076.071-.076.1l-.048-.011.012.047c-.069.011-.133.095-.165.095.008.037.021.107.005.146-.022.053-.219.245-.278.245-.01.063-.155.2-.207.242-.013.01-.077.036-.077.042h-.012c0 .147-.12.301-.219.398-.095.092-.231.177-.231.325a.223.223 0 0 0-.115.12 1.472 1.472 0 0 0-.028.351.104.104 0 0 0 .048.06c.078.047.157-.14.225-.14a.142.142 0 0 0 .071.024c.02-.024.157-.178.178-.178l.071-.001.059.013v-.012c.047-.029.21-.19.249-.19.01.007.023.02.023 0 .035-.046.285-.2.285-.248.015 0 .024-.005.024.011h.023c.038-.122.11-.12.212-.157.027-.01.052-.032.085-.032.011-.056.116-.085.156-.117l.075-.088c.039-.034.207-.12.207-.174.183.017.223-.178.296-.178l.047.012c.052-.103.261-.154.261-.26.028-.05.012-.121.012-.178.033-.036.035-.09.035-.143.085-.057.118-.192.122-.296l-.015-.083h.036c-.05-.15-.01-.334-.018-.497-.001-.014.001-.036-.018-.036.008-.028.012-.213.012-.213.003-.022-.012-.095 0-.095.006-.041-.007-.273.024-.273.008-.083.082-.116.121-.183l.041-.082.051-.007v-.012c.016 0 .012.004.012-.012l.012-.012Zm-16.233.57c.09 0 .169.017.25.017.093 0 .208-.012.292.015.18.059.25.291.214.476a.564.564 0 0 1-.1.208c-.092.13-.23.19-.339.3-.111.11-.194.261-.321.351-.07.05-.146.086-.216.132-.104.066-.207.133-.318.184l-.125.034-.11.061-.096.024c-.065.031-.12.107-.184.142-.04.023-.088.026-.132.045l-.124.079-.131.134c-.08.043-.203.04-.247.134l-.103.201-.016.15c-.022.11-.072.223-.085.334-.035.265-.025.548-.03.817 0 .082-.046.189-.02.267.02.063.088.1.152.1a.27.27 0 0 1 .119-.023c.052-.037.14-.036.213-.036.129-.08.3-.118.448-.16.122-.035.24-.1.382-.1.06-.026.166-.011.236-.014.063-.003.104-.025.155-.044.015-.006.047-.006.047-.026h.119l.106-.011c.265-.106.445.357.367.556-.028.068-.097.092-.147.137l-.12.154c-.046.047-.103.08-.155.118-.065.049-.13.136-.21.16a.174.174 0 0 1-.094-.004c-.025-.012-.037-.05-.036-.079.001-.038.007-.09.028-.118.058-.076.461-.276.242-.392-.04-.021-.096.004-.136.013-.05.012-.088.055-.134.072l-.215.082-.12.022c-.04.02-.077.041-.116.062l-.109.032c-.05.02-.105.047-.154.07-.059.027-.078.098-.14.124-.16.067-.537.108-.62.271-.018.034-.014.088-.017.13-.008.095-.028.209-.018.307.009.092.048.178.062.262a.982.982 0 0 1 .011.259c-.009.057-.039.126-.035.19l.028.202.01.342.02.062c.013.068.011.18.002.247l-.069.2-.014.096a.318.318 0 0 1-.13.196.48.48 0 0 1-.291.07l-.166-.021c-.109 0-.24.031-.341-.002-.11-.037-.19-.129-.3-.169l-.172-.025c-.032-.011-.06-.04-.086-.063l-.046-.051c-.009-.023-.005-.066.013-.083.061-.06.42-.183.517-.183a.239.239 0 0 1 .106-.024l.079-.052c.04-.035.064-.077.097-.115.022-.026.053-.052.064-.085.019-.058-.003-.12 0-.186.013-.282.039-.595.012-.877l-.009-.165c-.012-.061-.048-.113-.068-.17-.016-.048-.02-.127-.091-.127v.012c.015 0 .011-.004.011.012.008.01.043.06.024.06-.146.117-.324.194-.486.283-.044.023-.087.077-.134.099-.079.036-.168.036-.253.065-.03.01-.046.044-.071.06a.79.79 0 0 1-.266.1l-.185.018a8.355 8.355 0 0 1-.123.054c-.064.012-.126-.005-.179.026-.012.007-.033.012-.033.029-.059-.035-.084-.117-.15-.155-.125-.073-.28.005-.381-.143-.154-.228.38-.53.534-.583.034-.012.078-.008.116-.008.067-.077.19-.09.28-.128.044-.02.076-.063.116-.09a.443.443 0 0 1 .255-.066c.07-.04.15-.07.224-.099.1-.038.168-.08.287-.096l.14.009c.02-.003.072-.02.072-.04.016 0 .012-.003.012.012h.024a.598.598 0 0 1 .225-.106c.03-.085.064-.169.083-.26a6.53 6.53 0 0 0 .005-.154l.038-.132.007-.189c.01-.107.05-.186.058-.296.002-.023 0-.118.01-.118.017-.048.035-.088.043-.144l.012-.187c.022-.113.06-.238.09-.347l.015-.104.037-.108.016-.125.087-.151c.05-.086.083-.182.149-.26.103-.123.257-.197.377-.296l.15-.147c.124-.117.255-.23.382-.34l.168-.163c.155-.132.35-.22.494-.372.031-.033.153-.24.152-.29-.002-.12-.26-.117-.278-.081-.028.056.097.104.113.144.014.033.004.078-.032.09-.076.026-.329-.094-.412-.112-.01-.002-.034-.011-.034.007h-.012c-.004.054-.004.119-.033.157-.058.074-.157.074-.24.103-.102.034-.2.094-.3.133l-.17.05a4.368 4.368 0 0 1-.088.035c-.044.01-.1.006-.139.024-.073.033-.142.088-.213.127l-.246.113-.161.094c-.094.05-.212.06-.307.11-.122.064-.213.185-.323.268l-.18.11c-.087.048-.162.116-.258.147-.108.035-.224.048-.339.072l-.152.028c-.043.01-.094.038-.145.033l-.095-.028c-.135-.031-.269-.058-.397-.106l-.14-.077c-.066-.03-.158-.06-.195-.134-.014-.028-.013-.074-.014-.11-.003-.194.124-.278.283-.333l.186-.02c.083-.025.144-.074.242-.074l.07-.026a.706.706 0 0 1 .321-.08l.225-.07c.064-.024.105-.065.156-.09.09-.043.201-.05.304-.073.095-.022.19-.075.298-.075a.406.406 0 0 1 .178-.047c.071-.04.225-.084.309-.103.043-.01.086-.018.13-.027l.353-.123c.048-.016.098-.044.156-.044l.14-.041c.137-.048.263-.113.428-.113.125-.09.267-.083.439-.083a.518.518 0 0 1 .296-.071l.106-.012c.06-.026.157-.006.224-.017.041-.007.086-.03.132-.03l.047-.012v-.012Zm-16.102.426c-.06.021-.14.006-.199.03-.087.032-.159.115-.236.171l-.14.068-.117.103c-.057.044-.117.1-.178.141-.061.041-.138.086-.177.154-.045.077-.023.199-.024.292-.001.075-.014.157-.021.237l-.051.214c-.014.07-.003.15-.009.224l-.044.333h.012v.011h.011v-.011h.012l.1-.044.073-.075.105-.036c.086-.044.17-.115.238-.183.062-.062.043-.192.12-.244.041-.028.115-.023.17-.023a.522.522 0 0 1 .207-.325l.065-.042c.041-.043.076-.102.114-.148.032-.04.085-.063.117-.105.097-.13.122-.332.126-.517.002-.202-.078-.22-.274-.225Zm29.835.308a.407.407 0 0 0-.094.27c.002.044.023.087.023.133h.012v.011h.011v-.011l.062-.044c.009-.01.139-.205.139-.205 0-.046-.109-.138-.153-.154Zm-40.095.012v.011c-.07.025-.19.068-.217.145-.004.01-.016.033.004.033v.012h.106v-.047l.142-.107a.106.106 0 0 0-.035-.047Zm31.209.094c.075.005.107.04.163.074.035.022.074.03.104.06.02.032.042.062.062.093l.048.052c.025.05.018.135.018.195 0 .173-.022.21-.126.328-.03.034-.047.073-.088.1-.036.024-.075.027-.117.045l-.082.06c-.053.022-.13.004-.181.03l-.077.06-.15.09a8.29 8.29 0 0 1-.049.057l-.06.046-.074.078-.037.111-.04.062-.021.08c-.02.062-.05.127-.064.192-.019.09-.019.21-.015.308 0 .02.022.071.003.071l-.072.123c-.025.072-.02.163-.018.244l-.008.486c-.002.021.006.095-.008.095-.006.016-.005.036-.024.036.032.103-.043.147-.04.236.002.046.03.079.04.117.03.123.062.361.004.478-.01.019-.025.057-.051.057v.012c.019.045 0 .125 0 .178l.011.059c-.035.21.01.423-.011.648-.01.1-.055.174-.065.265l-.006.604-.003.281.009.227c-.002.014-.012.037.005.037.03.068.072.13.072.213a.667.667 0 0 0-.078.202l.006.13c-.09.02-.145.102-.228.133-.067.026-.147.005-.221.013-.084.01-.154.043-.25.043l.012-.07c-.018-.016-.064-.084-.083-.084.035-.086.102-.155.12-.25.022-.11-.026-.213-.017-.318.005-.067.05-.114.056-.18 0-.18 0-.362-.002-.544-.001-.031-.002-.153.033-.153-.049-.083-.043-.27-.017-.366.013-.053.045-.108.05-.168.015-.195.01-.392.02-.592l.02-.118-.01-.166c.005-.076.056-.134.068-.203l-.003-.117.014-.179a6.033 6.033 0 0 0-.012-.082c.025-.052 0-.14 0-.201.013-.012.036-.028.036-.047-.05-.1-.057-.056-.141-.022a.974.974 0 0 0-.178.216l-.026.13c-.016.038-.053.06-.061.104-.009.044.005.1.008.14l-.018.13c-.012.06-.061.091-.074.145-.021.082.004.184-.002.27-.008.08-.049.143-.061.214-.023.128-.004.298-.004.438 0 .015.003.012-.012.012-.045.039-.056.091-.091.135l-.133.138c-.088.111-.143.191-.278.25a.645.645 0 0 1-.303 0c-.052-.022-.142-.14-.185-.185-.085-.091-.185-.18-.27-.275-.04-.046-.097-.094-.12-.149l-.01-.198.016-.06c-.01-.008-.05-.06-.024-.06l.012-.058a.943.943 0 0 1 .279-.31c.034-.022.075-.018.11-.035l.09-.06c.112-.054.222-.104.321-.183l.124-.146.135-.103c.042-.045.083-.09.124-.137l.18-.162c.084-.088.164-.216.274-.27l.034-.013c.019-.004.059-.002.059-.027.02-.046.033-.096.067-.135.058-.07.13-.12.18-.197.037-.056.046-.122.063-.189.004-.014.016-.06.034-.06-.024-.086.016-.111.014-.19.002-.078.005-.155.006-.233.007-.027.055-.11.086-.11-.02-.084.025-.37-.033-.413-.023-.017-.067-.017-.095-.006-.11.04-.183.14-.323.155-.016.002-.047-.002-.047.016-.061.065-.196.158-.296.161-.056-.006-.11-.012-.166-.02-.05-.093-.135-.181-.1-.306l.044-.091.075-.035.058-.055.25-.146.101-.098c.053-.039.108-.069.16-.114.052-.046.102-.092.153-.14l.187-.095c.034-.013.068-.016.096-.037a.665.665 0 0 0 .156-.176c.07-.13.077-.311.235-.378.155-.065.192.1.297.126.048.012.096-.03.148-.03.009-.007.034-.024.048-.024.008-.142.141-.268.26-.32ZM65.1 57.47l-.147.07-.06.052-.117.072-.109.04-.14.095-.409.067-.215.084c-.085.016-.182.013-.24.083-.043.05-.01.208-.015.278-.003.041-.028.065-.04.1l-.028.113c-.021.102.006.229.016.32v.047l.025.073c0 .028.002.056.003.083.005.023-.011.094-.04.094l.046.097c.012.053.003.11.014.163.01.046.036.09.038.142 0 .014-.01.036.009.036.014.012.035.026.035.047h.024v-.012c.04-.021.13-.06.13-.118.014.002.048.019.048 0 .037-.018.085-.02.129-.03l.122-.046c.011-.005.021-.012.021.005.045-.032.153-.14.194-.157.058-.026.14-.016.2-.04.013-.006.045-.01.045-.029.015 0 .011-.003.011.013h.024a.24.24 0 0 1 .13-.036.55.55 0 0 1 .32-.119v-.011c.091-.043.185-.084.282-.114.053-.017.091-.052.157-.052.048-.038.296-.09.296-.154.089.008.185-.024.273-.024.019-.048.072-.096.07-.154h.012c.014-.026.048-.063.048-.095.006-.043.107-.296.142-.296l-.012-.06c.031-.049.023-.122.04-.18.016-.057.013-.15-.073-.147a6.974 6.974 0 0 1-.098.024c-.13.014-.153.045-.254.09l-.169.036-.097.059-.155.082c-.105.05-.227.063-.329.118l-.13.118-.134.05-.094.016-.136.064c-.05.027-.088.066-.141.088l-.079.018-.092-.005-.026-.015c-.018-.019-.02-.07-.01-.094.038-.084.126-.136.178-.21l.053-.12c.005-.01.113-.148.122-.155l.099-.058c.065-.056.14-.098.204-.151l.084-.093c.046-.045.112-.072.112-.15h-.012v-.012H65.1Zm60.416.474c.114 0 .166.033.218.122.018.031.035.07.067.087.101.056.187.226.136.345a.724.724 0 0 1-.213.246l-.093.062-.157.162c-.103.09-.203.176-.298.271-.067.067-.127.14-.2.201-.066.057-.147.085-.212.145-.047.042-.109.067-.16.101-.076.05-.169.182-.279.137-.015-.006-.03-.023-.03-.043.031-.031.047-.072.072-.106.037-.05.077-.1.113-.15l.098-.1.066-.114.267-.371.136-.252c.006-.01.073-.15.018-.15-.116-.03-.922.584-1.058.694-.085.067-.186.129-.274.19l-.153.153c-.095.078-.203.138-.299.212l-.248.236-.128.098c-.045.039-.085.09-.13.13l-.174.123-.135.111-.09.055-.09.123-.154.131-.139.156-.092.075c-.189.194-.362.415-.566.607l-.158.102a1.422 1.422 0 0 1-.337.225c-.047.022-.089.068-.138.09-.054.023-.124.022-.182.042-.058.018-.106.07-.161.087l-.224.055-.118-.019-.114-.004a.672.672 0 0 1-.347-.26c-.06-.096-.114-.256-.038-.36l.039-.03.13-.024.226-.105.104-.039.146-.082.073-.063.133-.063.069-.055.164-.091.176-.14c.026-.01.052-.022.077-.033l.136-.097c.085-.047.181-.09.262-.146l.115-.118.12-.081c.035-.029.062-.069.095-.095l.111-.057.059-.056.45-.323.119-.127.274-.18c.117-.076.226-.168.342-.245l.226-.123.114-.096c.1-.06.201-.117.301-.177.189-.13.384-.243.581-.356l.087-.063.197-.103.165-.113.134-.05.113-.069.241-.089c.1-.044.187-.109.312-.109l.107-.047Zm-42.465.142c-.11.103-.18.095-.332.095-.004.016-.007.032-.012.047h.012c.042.02.113.024.128.075.038.13-.175.132-.245.1-.014-.006-.078-.068-.049-.068.011-.018.047-.06.071-.06v-.023c-.059 0-.172-.002-.161.079l.025.064c.002.013.013.046-.006.046l-.126.03-.065.074-.128.075c-.1.065-.185.2-.32.2-.01.102.205.119.28.103.04-.008.066-.067.11-.067.138.12.363-.182.454-.257.076-.063.214-.135.27-.213.032-.047.013-.11.036-.164.014-.032.05-.052.076-.072.01-.008.025-.029.041-.029v-.023h-.012l-.047-.012Zm-14.81.178c-.032.016-.065.012-.106.018l-.121.034-.126.017-.087.035-.103.022-.063.035c-.036.01-.08.008-.117.019-.04.02-.082.038-.123.058-.062.02-.133.04-.192.069l-.118.085-.143.054a.895.895 0 0 0-.255.258c-.01.028-.02.057-.032.085-.02.046-.058.106-.062.16l.012.081c-.026.022-.133.178-.154.178.007.01.034.036.012.036l-.115.184-.037.129-.079.129.006.067c-.08.058-.105.124-.141.208l-.047.082-.02.085c-.042.079-.1.098-.1.206a.803.803 0 0 0-.192.32l.002.13h-.011c-.06.044-.1.113-.149.172-.027.032-.065.055-.084.09-.02.038-.024.083-.04.123l-.086.129c-.025.046-.03.094-.044.147-.018.06-.048.06-.048.145h-.011c-.054.046-.069.103-.106.157l-.084.077-.053.104-.1.106-.026.117-.07.108c-.03.057-.048.122-.083.175-.034.051-.136.08-.137.152v.008a.064.064 0 0 0 .024.042c.02.015.052.01.076.013a.452.452 0 0 0 .13-.002l.122-.071.091-.042.182-.135c.071-.057.12-.11.223-.11a.694.694 0 0 0 .275.158c.076.021.196.011.248.075.026.032.023.066.035.106.011.037.046.068.046.111l-.101.15a.557.557 0 0 1-.182.148c-.017.008-.039.034-.06.034.03.093.094.114.187.129l.086.025c.017-.012.07.006.07-.012.016 0 .012.003.012-.012l.083.024c.028-.015.063 0 .095 0v-.012c.071-.03.087-.098.132-.153l.102-.11c.027-.044.04-.092.067-.137.015-.026.054-.063.054-.098l-.011-.06c.08-.06.061-.126.083-.22.01-.046.035-.079.035-.134.051-.044.03-.094.051-.153.012-.036.048-.064.075-.088.01-.01.025-.032.04-.032-.008-.06.041-.114.052-.167.014-.067-.009-.132.002-.2.009-.058.056-.105.066-.18.003-.016-.006-.057.01-.057.039-.109.119-.216.119-.344.02-.02.109-.142.118-.142a.51.51 0 0 1 .056-.315l.069-.103c.035-.07.056-.149.083-.224.005-.015.004-.069.017-.069l.07-.108.045-.185c.022-.066.139-.25.135-.311-.001-.013-.004-.012.011-.012l.103-.156.023-.09.044-.077c.034-.1.066-.217.114-.31l.073-.085.045-.093c.007-.013.025-.024.025-.042-.026-.077.145-.41.164-.498.008-.04.001-.1-.003-.143-.006-.068-.015-.096-.078-.117Zm5.73.064c-.004.012-.054.066-.058.078-.007.006-.024.056-.012.056 0 .004.028.025.028.029.035-.043.045-.09.042-.163Zm43.654.196c-.01.012-.068.072-.048.072v-.012h.012l.036-.06Zm-18.33.664c-.037.02-.154.065-.154.118l-.02.117c-.003.022-.062.12-.04.12v-.011c.057-.054.107-.107.19-.107v-.012h.012c.009-.017.127-.213.083-.213v-.012h-.07Zm27.014.249c.141.024.321-.012.445.044a.54.54 0 0 1 .23.245.44.44 0 0 1-.022.296c-.021.036-.057.062-.09.086l-.095.09-.143.107-.187.168c-.044.032-.087.065-.131.096l-.097.115-.084.06-.221.19-.25.176c-.061.04-.134.071-.194.117l-.121.103-.148.08c-.129.083-.25.203-.399.245-.04.011-.107-.05-.08-.05.076-.097.2-.176.291-.255l.151-.155.151-.11.074-.117c.018-.025.067-.063.067-.098-.003-.014-.032-.021-.046-.02-.048.002-.257.21-.304.25-.078.066-.172.126-.25.189-.047.044-.092.09-.138.134l-.13.097-.065.088-.127.132c-.086.107.051.22.023.317-.004.012-.01.022.007.022s.045.112.048.13l.019.128c.015.053.047.1.058.157.038.207.07.412.103.617.022.134.005.272.02.413.005.048.038.092.047.142l.028.296c.008.06.026.115.038.168.009.046 0 .095.005.14.011.102.043.199.053.309.002.035.027.066.033.096a.554.554 0 0 1 .002.163c-.021.136-.123.24-.207.343-.049.059-.119.151-.201.158-.074.007-.283-.106-.332-.165l-.032-.068c-.003-.006-.005-.006-.014-.006-.143-.076-.29-.147-.435-.221l-.075-.063-.131-.069c-.068-.028-.148-.035-.219-.062a4.025 4.025 0 0 1-.088-.047l-.14-.041-.109-.053c-.081-.03-.172-.042-.258-.067-.104-.03-.191-.09-.291-.124l-.111-.022-.299-.18c-.044-.025-.092-.035-.131-.07-.028-.026-.067-.072-.055-.114.012-.05.105-.014.137-.009l.167.05c.078.018.167.026.249.046l.249.058c.149.021.304-.007.45-.007l.189.018.19-.005.178.01c.048 0 .086-.035.13-.035v-.012c.028.016.058.036.095.036.068-.06.2-.04.251-.125.032-.054-.005-.386-.008-.48l.021-.592.038-.178c.007-.086-.012-.167.009-.248.024-.092.06-.552-.045-.589l-.039-.002-.111.052c-.096.046-.195.083-.294.125-.037.015-.068.049-.11.06l-.21.034-.13-.018c-.059.002-.13.009-.19 0-.065-.011-.111-.05-.169-.067-.111-.033-.459-.06-.459-.223l.136-.17.212-.142.12-.05c.057-.039.088-.1.142-.14.143-.104.302-.186.454-.27l.194-.136.091-.042c.126-.074.247-.164.373-.24l.098-.048.255-.153.17-.076.153-.101c.063-.036.138-.043.204-.074.073-.036.147-.095.223-.125l.074-.02.098-.085c.049-.02.099-.038.148-.057l.225-.141.081-.07.097-.028.096-.054c.031-.018.073-.065.112-.065.006-.007.012-.012.012 0 .066-.048.106-.13.201-.13v-.012Zm-17.085.332c-.044.032-.13.01-.187.021-.035.007-.18.096-.18.133a.186.186 0 0 0-.102.02c-.035.02-.062.052-.095.077-.037.028-.106.036-.13.078a2.94 2.94 0 0 1-.017.097c.047.026.154.06.154.13.073-.007.138.06.191.093l.118.047.224.002.071-.142c.014-.015.097-.118.107-.118-.008-.024-.015-.048-.024-.071.017-.018.048-.083.072-.083-.023-.043-.012-.067-.012-.119-.035-.026-.06-.068-.091-.098a58.087 58.087 0 0 0-.099-.067Zm-27.168.497c-.092.097-.377.26-.332.422.006.023.023.05.043.062a.12.12 0 0 0 .104.002l.169-.17c.062-.058.181-.085.213-.18.036-.108-.118-.134-.197-.136Zm-1.126.628c-.048.051-.273.173-.285.24-.025.132.249.127.344.127.024-.01.13.004.13-.012.015-.007.076-.059.048-.059-.022-.037-.06-.057-.09-.087a.376.376 0 0 1-.088-.197l-.059-.012Zm-6.6.426c-.04.03-.091.035-.137.057l-.212.119-.082.063c-.073.04-.25.112-.293.183-.056.092-.03.168-.053.276l-.043.099-.028.128c-.01.074-.002.498.022.548.01.023.044.032.068.032.029-.012.154.002.154.036.118-.042.275-.036.415-.036.074-.043.18-.025.272-.024.017 0 .013.003.013-.011.097-.197.111-.504.096-.747l-.001-.164c-.012-.07-.087-.102-.102-.204-.019-.122.038-.299-.088-.355Zm11.41.178c.055.027.063.119-.011.119v-.012c-.013-.014-.036-.047-.036-.071l.047-.036Zm30.392.095c.015.002.106.028.106 0 .043.01.076 0 .119 0 .019.025.017.016.05.016.004-.011.041.02.045.008l.05-.007c.089-.026.099-.014.222-.017.086.017.196.011.284.01l.084.004c.016-.003.011 0 .011-.014.015 0 .024-.003.024.012.121.052.112.003.233.026-.005.01.091.024.182.021h.012a.895.895 0 0 0 .153.024c.015 0 .09.02.09.001.116.032.076.047.147.047.016.02.106.074.117.074.045-.019.134.1.168.114l.083.013c.002.02.002.059.023.059l.036-.012.045.055.022.096c.009.027.048.062.046.096l-.029.077-.001.067c-.067.01-.117.058-.18.076-.05.015-.115-.005-.163-.005v.012h-.013c.004.012.02.036 0 .036-.047.021-.079.012-.13.012-.08.136-.241.206-.357.297-.01.008-.022.02-.022.034-.074-.009-.125.061-.191.069l-.112-.002c-.019-.005-.032-.031-.053-.031.011-.032.005-.072.016-.105.029-.083.091-.162.044-.256-.036-.073-.118-.092-.186-.122-.046-.02-.097-.054-.14-.082-.07-.045-.132-.103-.202-.15l-.083-.04-.082-.064c-.073-.03-.147-.06-.22-.092-.056-.02-.128-.013-.189-.013v-.024c.015 0 .024.006.024-.012h-.012v-.012c-.008.002-.036.021-.036 0-.007-.013-.004-.035-.024-.035-.009.006-.047.035-.047.012-.013-.005-.035-.006-.035-.024-.014.007-.028.024-.048.024v-.012l-.082-.08c-.055-.096.148-.14.201-.18Zm-12.109.024c-.054.04-.427.386-.427.426.068.05.146.13.237.13.041.07.132.107.213.107.009-.022.049-.106.072-.106-.03-.096 0-.207 0-.308.023-.033.059-.087.059-.13-.054-.135-.033-.072-.154-.12Zm-21.35.023c-.078.056-.173.09-.244.15l-.108.128-.205.15-.224.099-.12.066-.106.018-.11.047c-.033.013-.129.04-.102.093.033.07.144.058.211.074.085.02.191.078.284.07.083-.009.38-.302.42-.377.025-.048.02-.157.048-.193.04-.052.114-.054.167-.083.029-.03.056-.06.083-.091.008-.01.105-.139.052-.139l-.047-.012Zm3.162.166c.026.005.051.01.077.013.05.023.06.102.012.13-.037.02-.108-.011-.11-.06l.021-.083Zm-10.545.806-.028.201.016.095h.012c.003-.092.024-.206 0-.296Zm6.138.154c-.068.075-.083.132-.083.237.047.023.094.047.154.047l.057-.046c.026-.039.045-.164.002-.202-.03-.028-.085-.033-.13-.036Z" clip-rule="evenodd"/><path fill="#C6001A" d="M47.474 74.79a6.311 6.311 0 0 0-4.109 1.376 7.898 7.898 0 0 0-.78.72c-.512.528-1.128.843-1.857.916-.985.1-1.828-.218-2.513-.932-.54-.564-1.142-1.04-1.84-1.394a6.194 6.194 0 0 0-2.199-.658 9.9 9.9 0 0 0-1.104-.042c-1.52.021-2.865-1.171-3.003-2.68-.025-.27-.011-.544-.018-.816-.04-1.557-.558-2.935-1.572-4.12-.237-.276-.51-.522-.753-.794-.774-.865-.945-2.206-.437-3.25.205-.422.519-.748.843-1.074 1.026-1.03 1.654-2.268 1.85-3.71.055-.407.07-.822.062-1.233-.028-1.528 1.141-2.872 2.665-3.029.255-.026.515-.013.772-.018 1.656-.026 3.097-.602 4.331-1.7.2-.177.375-.385.572-.567 1.215-1.124 3.13-1.026 4.245.198a6.299 6.299 0 0 0 2.478 1.655c.84.316 1.708.438 2.603.412 1.54-.044 2.889 1.146 3.035 2.675.025.27.01.544.017.816.04 1.587.58 2.98 1.62 4.179.229.264.505.489.724.761.78.97.916 2.038.432 3.184-.173.41-.465.732-.78 1.04-1.117 1.086-1.773 2.406-1.949 3.955-.046.407-.027.822-.045 1.234a2.932 2.932 0 0 1-.84 1.959c-.434.452-.96.748-1.576.86-.286.053-.582.053-.874.077ZM33.472 54.328c-.079 0-.158.002-.237 0-.566-.02-1.099.104-1.575.412-.914.59-1.359 1.436-1.332 2.525.01.438-.01.874-.085 1.306a6.599 6.599 0 0 1-2.025 3.773c-.471.444-.772.976-.871 1.613-.13.829.062 1.583.6 2.23.21.253.468.466.685.712 1.073 1.217 1.644 2.637 1.697 4.262.008.268-.01.538.013.805a2.786 2.786 0 0 0 2.863 2.528 6.633 6.633 0 0 1 5.022 1.987c.184.184.37.373.58.524 1.117.804 2.71.635 3.64-.374a6.568 6.568 0 0 1 2.834-1.818 6.946 6.946 0 0 1 2.35-.325c.26.007.532-.025.784-.092 1.276-.338 2.118-1.496 2.074-2.816a6.59 6.59 0 0 1 1.795-4.79c.18-.195.382-.369.555-.569.934-1.076.882-2.747-.122-3.756-.334-.336-.669-.667-.948-1.051a6.59 6.59 0 0 1-1.285-3.764c-.008-.268.01-.538-.014-.805-.128-1.453-1.401-2.571-2.86-2.518a6.597 6.597 0 0 1-1.623-.131 6.583 6.583 0 0 1-3.503-1.966c-.419-.445-.913-.75-1.513-.862-.992-.185-1.86.069-2.573.794a8.04 8.04 0 0 1-.983.88 6.575 6.575 0 0 1-3.943 1.286Z"/><path fill="#C6001A" d="M29.22 64.404c.009-6.236 5.112-11.206 11.215-11.185 6.235.02 11.224 5.15 11.159 11.305-.065 6.14-5.1 11.103-11.226 11.077-6.232-.026-11.16-5.128-11.149-11.197Zm11.2-10.875c-6.006-.011-10.942 4.91-10.891 10.979.05 5.925 4.89 10.782 10.88 10.784 6.008.002 10.94-4.925 10.875-11.004-.063-5.925-4.908-10.752-10.864-10.759Z"/><path fill="#C6001A" d="M45.308 69.117h-.954c-1.34 0-2.68 0-4.02-.003a.263.263 0 0 1-.165-.07c-.262-.254-.519-.514-.777-.772l-.118-.113c-.044.054-.08.108-.124.153-.247.25-.495.499-.745.745-.03.029-.078.057-.118.057-.795.004-1.59.003-2.412.003.043-.047.071-.08.102-.11.27-.267.549-.524.804-.804.118-.129.207-.293.275-.456a.832.832 0 0 0-.151-.921c-.45-.516-.903-1.029-1.354-1.543-.025-.028-.05-.057-.075-.088.232 0 .456-.004.68.001.484.011.967.03 1.45.038.102.001.16.028.187.128.017.06.049.118.074.177-.06.072-.11.063-.15-.013-.054-.105-.138-.13-.254-.13-.448 0-.895-.011-1.343-.018h-.175c.047.056.074.09.104.124l.98 1.112c.41.465.459.963.116 1.485-.145.223-.34.412-.514.616-.024.029-.055.052-.1.095.18.011.318.028.444-.12.244-.286.511-.551.771-.823.373-.389.449-.84.286-1.342l-.02-.063.191-.105c.107.212.143.427.145.65.003.373-.124.694-.38.964-.229.242-.456.486-.683.73l-.104.115c.172 0 .314.004.455-.003.031-.002.066-.039.091-.067l.87-.952c.03-.034.057-.073.09-.115l.182.162-.42.484-.419.482c.149.017.26.023.367-.088.287-.295.59-.575.894-.869l.582.559c.103.099.216.19.307.3.102.122.223.118.384.099l-.847-.968.174-.152.212.23c.253.278.505.557.763.831a.24.24 0 0 0 .145.065c.12.01.241.003.39.003-.04-.048-.063-.078-.088-.105-.235-.251-.474-.499-.704-.754-.418-.462-.461-.988-.253-1.553.005-.013.014-.024.027-.044l.182.091c-.028.133-.064.26-.08.39-.047.381.063.715.327.996.26.276.533.542.78.83.126.15.264.17.457.115-.033-.024-.068-.044-.098-.072-.25-.233-.474-.488-.615-.805-.2-.45-.149-.866.177-1.24.343-.394.69-.785 1.036-1.177l.09-.105c-.207 0-.387-.002-.568 0-.311.004-.623.015-.935.011-.123-.002-.214.024-.272.138-.034.067-.081.074-.142.007.035-.084.07-.174.112-.26.011-.02.05-.04.076-.04.716-.022 1.433-.04 2.149-.059.012 0 .025.005.055.01-.112.129-.213.247-.316.364-.352.401-.697.81-1.059 1.2-.327.354-.366.765-.125 1.185.2.348.494.608.81.864a2.1 2.1 0 0 0 .225-1.171 1.596 1.596 0 0 0-.49-1.058c.205-.034 4.437-.008 4.696.028a6.6 6.6 0 0 0 .364-2.272 6.713 6.713 0 0 0-.73-2.982l-.235.265c-.232.264-.462.529-.695.791-.026.03-.068.06-.103.062-.2.006-.4.002-.6.002l-.025-.026c.023-.026.041-.065.07-.075.094-.032.19-.063.29-.077a.575.575 0 0 0 .38-.232c.148-.184.31-.357.464-.535.022-.026.041-.054.076-.1l-.664.06-2.534.244c-.315.03-.602.147-.845.343-.295.237-.574.495-.852.753-.276.256-.54.526-.874.707-.79.428-1.57.39-2.296-.129-.344-.245-.638-.562-.95-.85-.324-.301-.646-.608-1.08-.742a3.085 3.085 0 0 0-.6-.105c-.954-.096-1.91-.185-2.865-.276-.016-.002-.033 0-.07 0 .028.039.044.065.063.087.189.217.375.434.568.646a.35.35 0 0 0 .15.091c.137.043.278.071.415.112.03.01.052.048.078.074l-.021.03c-.204 0-.407.001-.611-.002a.111.111 0 0 1-.071-.036c-.373-.421-.743-.844-1.13-1.283.052 0 .085-.003.118 0 .56.054 1.12.105 1.678.165.11.011.163-.017.213-.118a7.185 7.185 0 0 1 1.735-2.247c.014-.012.03-.021.045-.032l.236.345a6.886 6.886 0 0 0-1.629 2.101l.38.04c.339.032.678.062 1.016.097.459.048.848.255 1.187.555.248.22.483.458.723.688.285.274.574.55.95.687.708.26 1.373.168 1.958-.316.324-.27.62-.573.927-.862.316-.297.65-.573 1.079-.679.27-.066.55-.091.827-.119.976-.097 1.953-.187 2.93-.28.027-.003.053-.01.082-.017-1.172-2.302-4.401-4.444-8.197-3.19l-.183-.382c.17-.053.336-.113.507-.157 1.975-.51 3.85-.267 5.61.773a7.104 7.104 0 0 1 2.676 2.812c.511.953.79 1.97.843 3.05a7.177 7.177 0 0 1-.352 2.603c-.026.08-.011.12.053.17.402.31.568.868.419 1.385-.143.497-.53.824-1.054.876-.203.02-.408.026-.611.017a.37.37 0 0 0-.32.143 7.05 7.05 0 0 1-2.11 1.618c-.931.47-1.918.729-2.96.768a7.093 7.093 0 0 1-4.073-1.068 7.194 7.194 0 0 1-2.8-3.162 7.038 7.038 0 0 1-.644-2.623 6.97 6.97 0 0 1 .153-1.89c.022-.099-.007-.165-.087-.24.045-.003.07-.007.096-.007 1.078.02 2.156.042 3.234.06.078 0 .116.025.142.096.036.1.081.198.124.299-.06.062-.117.082-.16-.007-.083-.168-.216-.198-.393-.2-.813-.009-1.626-.033-2.44-.052h-.155c.127.144.22.279.343.377.07.057.188.057.285.081.088.023.088.023.066.135-.14 0-.282.004-.424-.003-.032-.002-.064-.04-.09-.067-.052-.053-.1-.11-.154-.17-.49 2.203.358 5.482 3.392 7.17 3.041 1.69 6.434.684 8.195-1.254Zm-2.603-.237h.132c.83 0 1.66.002 2.492 0 .447 0 .895-.001 1.342-.013a.818.818 0 0 0 .535-.194c.305-.27.374-.624.326-1.008-.034-.282-.145-.531-.392-.698-.197-.134-.423-.17-.655-.17-1.221-.002-2.442-.001-3.663 0-.037 0-.074.003-.114.005.286.697.29 1.38-.003 2.078Z"/><path fill="#C6001A" d="M36.064 58.34a.85.85 0 0 1 .852-.841.854.854 0 0 1 .841.855.856.856 0 0 1-.854.843.853.853 0 0 1-.84-.856ZM31.234 63.123c.041.171.075.327.12.48.01.036.054.068.09.092.028.02.076.013.099.035.045.043.079.098.117.148l-.142.104c-.01.008-.024.01-.036.013.009.188.246.332.395.36.028.005.053.025.08.038-.015.025-.024.057-.045.075-.118.105-.45.135-.58.046-.042-.028-.091-.097-.082-.133.014-.055.076-.097.116-.144-.052-.086-.103-.206-.186-.299-.067-.075-.17-.12-.26-.171-.058-.033-.123-.053-.194-.081-.011.02-.021.052-.043.072-.03.029-.074.073-.103.067-.039-.007-.09-.053-.099-.09-.03-.136-.066-.276-.06-.412a16.4 16.4 0 0 1 .08-1.024c.006-.057.061-.114.107-.157.017-.017.085-.009.104.012.018.02.013.074.002.107-.062.188-.05.377-.043.56.058-.055.105-.134.172-.155.063-.02.145.02.225.035.01-.085.017-.184.034-.28.017-.105.076-.13.168-.073.04.024.073.057.11.086.232.183.468.36.693.552.095.082.18.185.242.293.077.135.027.234-.114.301-.026.013-.056.058-.053.086.008.102.04.204.043.306.002.077-.022.157-.045.232-.004.014-.067.03-.084.017a.418.418 0 0 1-.112-.119c-.026-.043-.025-.105-.055-.145-.204-.27-.413-.537-.621-.805-.006-.008-.016-.012-.04-.029Zm.9.296c.06-.085.053-.129-.053-.215-.148-.122-.3-.24-.445-.364-.132-.115-.255-.24-.388-.354-.02-.017-.09-.018-.098-.004-.058.097.001.343.083.426.133.134.26.274.386.413.098.107.192.217.287.325.02-.043.026-.083.012-.114-.04-.096.038-.137.087-.183.011-.01.079.042.13.07Zm-1.07.194v-.573c0-.11-.059-.176-.189-.194l.029.49-.033.007-.151-.27c0 .142-.002.255.001.367 0 .02.018.05.036.057.1.041.202.077.307.116ZM45.633 57.63a.407.407 0 0 0-.164-.273c-.028-.02-.066-.07-.058-.087.015-.033.057-.057.093-.078.047-.027.099-.047.149-.07l-.003-.04c-.157-.018-.314-.042-.471-.05a.927.927 0 0 0-.259.037c-.032.008-.06.046-.086.073-.085.091-.16.192-.255.272-.034.03-.11.01-.167.014-.002-.041-.013-.085-.003-.123.02-.083.051-.163.082-.256-.155-.025-.212-.145-.274-.279.028-.003.05-.013.065-.006.186.088.386.055.58.07.099.006.176-.044.215-.157-.093-.044-.249-.04-.18-.228.097.012.203.014.304.039.102.025.17-.019.243-.076.104-.081.214-.156.337-.244.013.152.028.275.028.397 0 .028-.047.072-.08.08-.13.037-.263.059-.393.093-.059.015-.113.047-.17.071l.011.052.505.039c.112.008.23.036.32-.063.053-.058.098-.122.151-.18.044-.046.084-.12.166-.074.052.03.053.154.007.217-.03.04-.064.075-.119.14l.232-.043c.022.13.004.148-.133.184-.187.05-.39.031-.563.14-.011.007-.024.012-.057.03l.286.089c.034.01.07.014.103.028.127.055.137.125.031.212-.077.062-.194.105-.226.183-.029.074.03.184.053.277.018.072.038.145.066.214a.307.307 0 0 1-.101.371c-.05.036-.08.017-.088-.04-.031-.225-.063-.45-.092-.676-.01-.084-.038-.137-.14-.128a.928.928 0 0 1-.276-.01c-.236-.053-.286-.245-.13-.414.055.095.094.22.18.285.056.042.179-.005.28-.012Zm.115-.207c.008.075.015.15.104.149.03 0 .091-.064.086-.082-.03-.098-.115-.065-.19-.067Zm-1.233-.382c.025.053.04.082.042.089l.128-.074a3.106 3.106 0 0 1-.015-.024l-.155.009ZM33.16 59.29c.155.054.302.105.448.158.105.038.125.111.035.167-.104.065-.124.147-.123.26.002.168-.153.336-.331.358.116-.12.248-.218.224-.375-.092.014-.185.056-.259.033-.081-.024-.145-.108-.222-.17-.071.142-.162.31-.243.483-.04.087-.058.185-.097.273-.017.04-.06.068-.093.103-.096-.05-.052-.12-.03-.178.061-.16.127-.317.197-.473.055-.124.12-.242.174-.366a.216.216 0 0 0 .014-.14 2.514 2.514 0 0 0-.134-.326c-.018-.036-.063-.058-.096-.087-.012.037-.033.073-.034.109-.003.163.005.327 0 .49-.004.156-.06.213-.198.211-.03 0-.073-.017-.084-.04-.123-.239-.237-.481-.233-.76 0-.01.008-.018.024-.059l.25.386c.02-.154.04-.292.052-.43.002-.025-.029-.056-.05-.077a.81.81 0 0 1-.233-.516c-.008-.077.008-.144.086-.179.08-.037.141.007.188.063a.73.73 0 0 1 .113.178l.223-.16c.13-.091.277-.05.307.106.04.21.038.42-.109.601-.108.135-.035.267.016.419.177-.303.291-.634.627-.782-.158.226-.358.424-.409.72Zm-.358-.444h.045c.01-.151.02-.303.026-.454 0-.025-.02-.056-.04-.073-.018-.015-.053-.024-.073-.017-.058.023-.132.264-.1.32.045.076.095.15.142.224Zm.334.52c-.108.166-.108.224-.012.346.027.034.055.093.107.039.046-.05.167-.071.096-.176-.051-.075-.122-.135-.19-.21Zm-.72-.597c.066-.147-.02-.375-.177-.488.01.183.066.336.177.488ZM34.834 57.422h-.175l.04-.19c.011-.056.025-.113.028-.17.001-.014-.03-.043-.049-.044-.015 0-.039.028-.046.047-.02.054-.035.11-.047.166-.032.152-.142.216-.28.242-.036.006-.077-.016-.116-.026.015-.034.025-.07.044-.102.084-.14.17-.278.255-.418.054-.09.046-.174-.027-.25-.073-.074-.084-.142-.009-.229.036-.04.04-.109.069-.2l-.37.084c.035-.064.052-.109.08-.143.141-.171.28-.344.43-.507a.402.402 0 0 1 .195-.114c.077-.017.11.045.068.116-.111.186-.228.37-.338.557-.045.078-.123.155-.017.253.026.025.012.092.017.14l.028.01c.032-.058.062-.119.098-.176.05-.081.101-.164.16-.24.044-.054.108-.077.172-.03.061.045.057.105.025.171-.044.094-.072.196-.123.286-.042.074-.108.135-.168.208l.042.058c.077-.028.137-.066.2-.07.098-.008.112.023.078.114-.057.157-.115.314-.17.472-.008.022-.006.048.01.082.069-.104.137-.21.206-.313.035-.053.062-.122.112-.154.047-.028.12-.027.178-.016.017.003.034.087.026.13-.027.131-.063.26-.099.39-.03.109.047.203.152.167.21-.074.377-.215.518-.384.024-.029.02-.102.001-.142-.06-.128-.132-.25-.2-.374-.02-.035-.045-.066-.055-.109.045.097.201.087.218.217.02.015.053.03.073.054.064.077.123.157.185.235.04.051.04.097-.011.14-.227.185-.447.377-.725.49-.102.04-.166.02-.217-.063-.041-.066-.08-.112-.172-.085-.024.008-.066-.045-.105-.075-.004.039 0 .095-.018.145-.014.04-.052.07-.08.105-.032-.036-.088-.068-.093-.108-.012-.087.003-.178.006-.267 0-.028-.003-.057-.004-.08Zm.263.058c.14-.032.154-.063.137-.278l-.137.278Zm-.243-.953-.049-.033-.099.198.044.023.104-.188ZM40.691 73.144h.28v1.625c-.093 0-.182.008-.269-.004-.035-.005-.075-.047-.094-.083-.159-.305-.313-.612-.468-.918a.207.207 0 0 0-.077-.09v1.086h-.274v-1.62c.092 0 .188-.006.282.004.028.003.059.047.075.078.157.306.31.613.466.92a.23.23 0 0 0 .08.097v-1.095ZM36.4 73.975h-.03c-.27-.114-.27-.114-.274-.408l-.009-.837v-.125l-.029-.007-.487.984-.251-.123.718-1.459c.085.042.17.073.242.123.032.022.052.081.053.124.006.34.007.68.009 1.02v.125l.028.008.491-.994.252.123-.713 1.446ZM33.373 69.554c.145.212.34.377.419.624a.65.65 0 0 1-.1.62c-.18.238-.408.399-.72.406-.218.004-.396-.094-.543-.242-.12-.121-.223-.259-.345-.401l1.29-1.007Zm-.914 1.08c.138.183.28.334.517.287.26-.05.468-.19.557-.45.073-.211-.037-.377-.178-.535l-.896.699ZM45.597 72.544l.392.566-.238.164-.934-1.342c.195-.124.377-.256.575-.358.155-.08.316-.04.443.086.123.123.174.269.108.44-.008.023-.018.045-.021.053l.738.487c-.085.06-.153.114-.229.156-.02.012-.066-.003-.092-.02-.14-.093-.276-.192-.415-.286-.125-.083-.208-.07-.327.054Zm-.146-.208c.122-.077.245-.138.246-.296.001-.093-.044-.174-.13-.205-.151-.054-.255.05-.372.132l.256.369ZM38.267 72.893l.276.055c-.028.15-.053.289-.08.428-.037.19-.078.38-.112.57a.806.806 0 0 0-.012.202c.01.126.083.204.204.233.119.028.234-.004.283-.116.057-.128.09-.27.12-.408.056-.262.103-.526.156-.8l.285.056-.174.893a13.92 13.92 0 0 1-.034.168c-.071.342-.336.514-.677.44-.348-.075-.513-.322-.446-.672l.18-.928c.008-.038.02-.076.03-.121ZM32.25 67.479c.047.101.091.186.122.276.01.029-.01.075-.029.104-.093.147-.19.292-.299.455.15.019.28.049.409.046.171-.003.263.074.304.232.007.027.021.052.039.093-.262-.04-.513-.071-.761-.116-.106-.02-.17 0-.228.097-.126.207-.266.407-.401.61l-.076.107c-.046-.099-.089-.18-.119-.266-.01-.029.003-.075.021-.103.112-.174.228-.345.356-.536-.203-.024-.385-.055-.568-.063-.113-.005-.168-.053-.2-.15-.019-.053-.045-.104-.075-.172.29.04.563.072.833.12.126.021.201-.006.269-.12.121-.206.261-.4.403-.614ZM34.921 73.218l-.023-.005c-.23-.145-.229-.145-.15-.407.061-.2.075-.142-.087-.265-.086-.065-.176-.124-.259-.192-.058-.047-.105-.06-.167-.005-.056.05-.125.084-.183.132-.06.05-.108.055-.167 0-.043-.041-.095-.074-.152-.118l.778-.517c.196-.13.395-.257.59-.39.057-.04.1-.042.15.006.032.029.075.046.102.078.022.025.044.069.037.096-.154.528-.311 1.056-.469 1.587Zm.145-1.412a1.672 1.672 0 0 0-.02-.018l-.515.355.347.254.188-.59ZM45.346 62.649c-.187.215-.368.403-.526.61-.112.146-.238.211-.419.184-.066-.01-.135-.001-.205-.001-.023-.072-.027-.129.063-.134.227-.012.382-.137.505-.315.03-.043.07-.08.12-.138-.05-.004-.078-.008-.107-.007-.881.019-1.762.04-2.643.056-.132.003-.159.11-.215.184-.055.07-.098.1-.176.02.048-.114.092-.234.15-.347.015-.028.076-.045.115-.046.534-.012 1.068-.02 1.601-.031.57-.01 1.139-.023 1.737-.035ZM44.35 73.971l-.69-1.474c.263-.123.52-.243.788-.37l.103.22-.523.249.177.376.5-.23.103.216-.499.238.2.43.555-.255.103.218-.818.382ZM43.326 72.65l-.053.923c-.015.243-.033.486-.043.73-.004.092-.075.084-.128.097-.056.015-.118.067-.172-.013-.3-.445-.602-.889-.903-1.333-.006-.008-.007-.02-.01-.03.006-.004.012-.01.018-.011.26-.091.26-.091.41.139l.445.683.091.132c.01-.169.02-.305.026-.442.01-.222.024-.444.026-.666.001-.096.026-.156.13-.168.05-.005.097-.024.163-.041ZM42.445 55.688c-.08.05-.161.098-.242.146-.034.02-.067.046-.104.055-.028.006-.062-.01-.093-.017.016-.027.024-.065.048-.08.1-.066.206-.125.295-.178-.017-.063-.027-.11-.044-.154a.12.12 0 0 0-.048-.058c-.121-.068-.128-.088-.076-.222.012-.03.005-.068.014-.1.014-.049.023-.12.058-.137.049-.026.129-.034.177-.011.079.038.064.13-.018.189l-.141.099.012.033c.066 0 .135-.01.2.002.119.023.103-.067.12-.13.042-.159.078-.319.13-.474.012-.037.08-.081.118-.078.032.004.078.071.08.112.003.053-.033.107-.05.161l-.15.49c.192-.002.29-.165.28-.446.09-.004.147.055.142.147a.446.446 0 0 1-.266.406c-.209.1-.29.266-.254.495.011.07.027.138-.052.19-.024.017-.02.078-.023.12-.004.045 0 .092 0 .154.002.012.016.04.014.068-.01.129-.019.259-.043.386-.008.042-.055.09-.096.11-.05.024-.113.023-.17.025-.008 0-.028-.056-.023-.082.057-.293.12-.585.178-.878.021-.107.037-.214.056-.32l-.029-.023ZM46.705 70.822c-.103.065-.203.119-.29.188-.077.06-.104.147-.06.241.045.095.13.107.22.09.119-.023.236-.056.356-.077a.46.46 0 0 1 .503.224.444.444 0 0 1-.071.553c-.09.094-.204.166-.309.246-.059.045-.108.036-.153-.027-.035-.048-.08-.09-.127-.14.085-.034.166-.06.241-.098.099-.05.178-.122.194-.24a.197.197 0 0 0-.194-.231c-.07 0-.142.018-.212.03-.084.016-.167.04-.252.051-.204.03-.357-.054-.457-.23-.085-.15-.057-.348.08-.496.08-.086.18-.153.272-.225.06-.046.11-.032.154.027.032.043.072.08.105.114ZM47.166 59.09c.047.021.084.033.115.053.135.09.261.199.407.268.079.037.2.036.283.005.269-.101.529-.224.79-.338.077.1.039.222-.086.288-.108.056-.215.113-.32.173-.032.018-.059.046-.1.079.18.092.35.096.53.051-.064.107-.172.135-.27.178-.183.08-.372.017-.558.012-.052 0-.105-.026-.157-.026-.055 0-.11.019-.164.03-.014.003-.026.017-.039.017-.217.003-.434.076-.65-.003-.028-.011-.045-.052-.068-.08.025-.02.047-.05.075-.056.138-.031.279-.053.417-.084.103-.023.114-.066.041-.145a1.443 1.443 0 0 0-.161-.155c-.083-.065-.11-.145-.085-.267ZM47.974 68.673c.042-.098.07-.179.112-.253.015-.027.06-.047.092-.05.175-.02.35-.034.524-.05.038-.004.075-.011.132-.02-.124-.16-.23-.314-.352-.453-.081-.092-.095-.174-.032-.276.026-.042.043-.09.068-.145.193.257.376.509.569.752.055.07.132.129.21.169.16.081.326.146.495.22l-.114.264c-.187-.08-.366-.16-.548-.233a.344.344 0 0 0-.154-.024c-.27.025-.54.056-.811.084-.057.006-.113.01-.19.015ZM38.264 56.48c.07-.061.169-.107.182-.17.02-.102-.016-.215-.03-.333-.127.073-.23.144-.343.19a.283.283 0 0 1-.192-.007c-.067-.026-.029-.084.01-.108.123-.076.248-.154.38-.213.074-.033.113-.068.109-.148-.002-.035.003-.072-.002-.107-.044-.323.136-.539.348-.741a.252.252 0 0 0 .07-.143c-.084.048-.17.094-.251.146-.146.095-.292.19-.433.291-.108.078-.221.115-.35.065-.026-.01-.062-.043-.06-.062.003-.028.029-.068.055-.079.355-.148.713-.291 1.07-.436.013-.005.028-.014.04-.012.059.01.117.025.175.039-.019.057-.021.13-.059.168-.105.108-.219.211-.341.3a.34.34 0 0 0-.148.32c.002.04.01.078.014.117.014.14.021.142.155.082.091-.04.185-.078.28-.103.036-.01.098.007.118.034.018.026.01.087-.008.12-.025.047-.07.081-.107.12l-.025-.019.058-.12-.015-.02c-.081.047-.157.106-.243.14-.158.06-.17.162-.12.304.024.066.023.14.036.21.03.168-.04.247-.21.225-.054-.007-.106-.032-.163-.05ZM41.471 64.043a54.9 54.9 0 0 0-.1-.047c.043-.103.077-.205.128-.298.016-.029.074-.048.114-.048.53-.013 1.06-.022 1.59-.031l1.148-.02h.163l-.259.295-.12.137c-.242.275-.242.275-.618.237-.022-.059-.014-.093.059-.112.262-.067.318-.112.497-.383h-.12c-.745.017-1.489.035-2.233.05-.069 0-.116.019-.15.078-.027.046-.06.088-.099.142ZM34.504 63.774c.148.181.253.366.493.384.028.002.054.048.08.073-.03.015-.059.038-.09.044a.478.478 0 0 1-.52-.22c-.109-.157-.249-.292-.387-.45.211 0 .402-.003.594 0 .754.013 1.51.03 2.264.04.102.002.16.028.187.128a.69.69 0 0 0 .058.138c.034.066.027.11-.079.126l-.015-.034c-.072-.16-.202-.184-.366-.185-.68-.007-1.36-.028-2.039-.043-.052-.002-.104 0-.18 0ZM47.826 68.895l.202.13-.21.33 1.151.762-.157.241-1.154-.76-.22.325-.2-.134.588-.894ZM35.208 64.597c.128.136.203.3.403.319.03.003.056.046.083.07-.032.014-.062.034-.096.04-.19.034-.331-.026-.445-.191-.098-.143-.227-.264-.358-.414h.19c.746.013 1.49.031 2.235.037.147.002.238.037.27.185.008.034.026.066.04.1-.057.068-.104.055-.14-.013-.042-.075-.104-.094-.187-.096-.633-.012-1.267-.029-1.9-.043-.025-.001-.048.003-.095.006ZM43.781 64.435c-.17.191-.327.385-.504.56-.043.043-.148.03-.224.03-.052-.001-.148-.022-.15-.042-.01-.09.081-.072.132-.082.17-.032.22-.19.342-.297-.034-.008-.05-.015-.065-.014-.64.014-1.28.031-1.92.044-.087.002-.152.021-.196.1-.035.062-.082.075-.14.01.03-.073.052-.155.097-.221.022-.034.086-.056.131-.057.547-.013 1.095-.023 1.642-.03.279-.005.557-.001.855-.001ZM50.492 62.926l-.075.123c.062.087.13.17.182.263.028.051.027.119.039.179-.057.002-.122.024-.17.005a3.627 3.627 0 0 1-.485-.226c-.064-.037-.099-.126-.147-.192l.023-.015.353.141c.015.067.167.159.331.172.004-.006.011-.013.01-.017a.839.839 0 0 0-.531-.49c-.02-.007-.054.016-.075.033-.021.018-.03.052-.052.067-.023.014-.055.014-.084.02-.003-.032-.022-.075-.008-.092.073-.093.038-.142-.054-.186-.037-.019-.064-.058-.082-.106l.244.106.025-.032c-.058-.061-.113-.126-.175-.182-.045-.04-.102-.066-.15-.103-.027-.02-.069-.056-.064-.071a.133.133 0 0 1 .076-.076c.084-.023.172-.034.258-.05l.024.025-.19.127.152.135.351-.156c-.05.13-.108.226-.236.284.098.103.178.221.333.234l.03-.033-.213-.148.026-.031.136.07.032-.133c.01.001.022.001.022.003.053.24.266.292.448.378.064.03.13.054.203.083-.036.082-.097.09-.165.059-.114-.052-.224-.11-.342-.168ZM40.034 70.214c-.065.023-.107.044-.152.054-.198.045-.372-.061-.409-.247a.338.338 0 0 1 .276-.396c.28-.057.482.091.507.377.017.196.011.392-.157.532-.14.118-.304.117-.466.055a.194.194 0 0 1-.105-.111c-.011-.038.026-.09.042-.136.044.017.107.02.13.053.037.055.048.127.141.113.095-.014.143-.075.17-.158.011-.04.014-.082.023-.136Zm-.324-.268c0 .125.053.19.152.192.1 0 .159-.07.16-.188 0-.126-.06-.201-.16-.199-.096.003-.152.074-.152.195ZM41.376 73.086l.287-.036.205 1.612-.288.037-.204-1.613ZM31.722 70.022c-.054-.09-.1-.165-.149-.249l1.388-.844.151.247-1.39.846ZM48.95 63.103l.13.122.032-.032c-.06-.052-.119-.109-.184-.154-.027-.017-.073-.018-.107-.011-.203.041-.404.093-.608.127-.05.009-.115-.024-.158-.058-.015-.011.015-.085.03-.128.05-.137.101-.274.154-.41.02-.05.044-.1.076-.17v.453c0 .085.036.12.127.11.096-.01.193 0 .29-.001.038 0 .075-.005.133-.009-.084-.144-.109-.278-.02-.439.062.076.122.138.169.21.155.236.31.472.453.715.023.04.004.127-.028.168-.041.054-.096.012-.134-.032l-.383-.436.027-.025ZM48.191 71.158l-.187.221-1.237-1.055.186-.221 1.238 1.055ZM33.403 72.046c-.07-.069-.134-.13-.209-.2.393-.38.778-.755 1.167-1.133l.2.208-1.158 1.124ZM41.42 55.616l-.11.24c-.04.084-.033.188-.135.244-.084.047-.129.028-.175-.046-.083-.13-.076-.208.023-.258.134-.067.265-.137.396-.209.13-.072.142-.207.186-.352-.073.02-.122.038-.173.044-.025.002-.052-.02-.078-.033.013-.026.018-.065.04-.076.074-.042.154-.072.231-.11a.269.269 0 0 0 .086-.059c.038-.043.067-.085.129-.03.009.01.042-.013.065-.016.036-.004.073-.003.11-.004 0 .05.015.105-.003.145-.013.03-.069.05-.108.056a.24.24 0 0 0-.21.188c-.04.15-.074.303-.113.454l-.132.495a.5.5 0 0 0-.014.096c-.01.146-.052.176-.202.133l.235-.88-.048-.022ZM41.068 70.082c.116.053.177.132.164.256a.272.272 0 0 1-.219.25 1.08 1.08 0 0 1-.378.01c-.12-.019-.203-.137-.179-.231a.163.163 0 0 1 .109-.1c.028-.005.097.06.097.094-.002.076.019.117.092.128.08.012.153.002.195-.076.067-.124 0-.26-.14-.266-.088-.005-.108-.037-.085-.12.038-.008.087-.005.118-.027.04-.028.083-.074.09-.117.006-.037-.027-.103-.061-.119-.041-.02-.103-.007-.15.007-.017.005-.029.06-.023.09.013.074-.022.113-.085.123-.07.013-.12-.02-.13-.095-.01-.093.035-.16.11-.206a.453.453 0 0 1 .432-.029c.191.08.209.249.043.428ZM49.386 62.976l.27.16.023-.018c-.016-.028-.028-.06-.05-.083-.224-.239-.453-.474-.674-.716a1.766 1.766 0 0 1-.208-.294c-.04-.069-.02-.143.053-.184.022-.012.075-.003.089.015.19.25.38.498.562.754.126.177.24.364.356.548.043.067.035.128-.038.173-.071.043-.1-.017-.14-.058-.087-.092-.176-.182-.265-.274l.022-.023ZM38.647 70.61c-.02-.074-.016-.114.057-.12.068-.007.095-.053.094-.12-.002-.151-.001-.302 0-.452 0-.065-.017-.109-.092-.12-.025-.003-.045-.04-.068-.061.025-.018.047-.047.074-.053.096-.021.194-.035.31-.055v.308c0 .14.003.28 0 .419-.002.076.025.119.102.138.026.006.045.045.066.07-.026.015-.053.042-.08.043-.154.005-.307.002-.463.002ZM42.116 70.505c.021.076 0 .107-.075.106-.153-.004-.306-.002-.464-.002-.014-.066-.024-.112.06-.12.068-.008.092-.055.09-.122-.002-.15 0-.3 0-.451 0-.066-.02-.111-.095-.115-.077-.004-.072-.052-.055-.105l.375-.066v.669c0 .169 0 .169.164.206ZM41.404 55.019c.114-.108.227-.22.345-.324.103-.092.211-.18.323-.26.032-.024.085-.02.129-.028-.001.048.01.1-.005.143-.036.105-.125.158-.22.204-.187.09-.371.183-.556.275l-.016-.01ZM47.422 60.02c.035.031.08.057.105.094.076.113.15.229.215.348.013.023-.007.07-.023.101-.004.007-.054-.008-.081-.016l-.22-.072c.132-.161.005-.295.004-.454ZM43.376 67.95v-.225c.037-.002.071-.006.105-.006l3.468-.001c.082 0 .144.02.147.114.002.091-.05.125-.137.125h-3.52c-.018 0-.035-.004-.063-.007Z"/></g><defs><filter id="a" width="154" height="157" x="0" y="0" color-interpolation-filters="sRGB" filterUnits="userSpaceOnUse"><feFlood flood-opacity="0" result="BackgroundImageFix"/><feColorMatrix in="SourceAlpha" result="hardAlpha" values="0 0 0 0 0 0 0 0 0 0 0 0 0 0 0 0 0 0 127 0"/><feOffset dy="16"/><feGaussianBlur stdDeviation="6.5"/><feColorMatrix values="0 0 0 0 0 0 0 0 0 0 0 0 0 0 0 0 0 0 0.03 0"/><feBlend in2="BackgroundImageFix" result="effect1_dropShadow_185_306"/><feBlend in="SourceGraphic" in2="effect1_dropShadow_185_306" result="shape"/></filter></defs></svg>