<svg xmlns="http://www.w3.org/2000/svg" xml:space="preserve" style="fill-rule:evenodd;clip-rule:evenodd;stroke-linejoin:round;stroke-miterlimit:2" viewBox="0 0 157 157"><path d="m146.922 323.284 1.362-4.573 5.501 1.595-1.351 4.535a39.277 39.277 0 0 1 4.163 1.789l2.435-4.16 4.965 2.831-2.485 4.243a39.92 39.92 0 0 1 3.744 2.947l3.52-3.47 4.052 4-3.595 3.545a40.197 40.197 0 0 1 2.83 3.779l4.402-2.507 2.866 4.899-4.431 2.523a38.515 38.515 0 0 1 1.801 4.345l4.883-1.289 1.483 5.465-4.917 1.297c.337 1.791.541 3.579.622 5.355l4.93.12-.139 5.654-4.955-.118c-.034.324-.071.648-.113.97a38.064 38.064 0 0 1-.649 3.706l4.696 1.363-1.619 5.428-4.732-1.374a38.553 38.553 0 0 1-1.989 4.314l4.178 2.516-2.987 4.829-4.237-2.551a38.862 38.862 0 0 1-3.062 3.638l3.414 3.535-4.151 3.904-3.421-3.545a39.536 39.536 0 0 1-2.234 1.691l2.598 4.439-4.965 2.829-2.531-4.324a39.38 39.38 0 0 1-4.366 1.89l1.305 4.806-5.538 1.464-1.279-4.712a39.213 39.213 0 0 1-4.745.672v4.907h-5.733v-4.861a39.343 39.343 0 0 1-4.755-.595l-1.291 4.752-5.538-1.464 1.291-4.75a39.46 39.46 0 0 1-5.003-2.119l-2.693 4.356-4.895-2.946 2.692-4.353a38.688 38.688 0 0 1-1.548-1.104 39.643 39.643 0 0 1-2.197-1.761l-3.735 3.512-3.956-4.095 3.66-3.441a38.93 38.93 0 0 1-2.868-3.757l-4.449 2.396-2.746-4.966 4.382-2.359a38.535 38.535 0 0 1-1.774-4.38l-4.84 1.157a40.145 40.145 0 0 1-.184-.589l-1.154-4.698-.039-.204 4.816-1.151-.08-.465a38.405 38.405 0 0 1-.427-3.275h-4.931a44.836 44.836 0 0 1-.051-5.657l4.908.001c.094-1.568.282-3.11.559-4.622l-4.758-1.258a44.384 44.384 0 0 1 1.4-5.486l4.783 1.264a38.637 38.637 0 0 1 1.766-4.325l-4.339-2.472a44.84 44.84 0 0 1 2.772-4.952l4.394 2.503a38.74 38.74 0 0 1 2.85-3.72l-3.653-3.604c.201-.236.404-.469.61-.7l3.394-3.349 3.683 3.633a39.123 39.123 0 0 1 2.925-2.294c.441-.328.889-.647 1.344-.957l-2.543-4.599 5.033-2.709 2.455 4.439a39.43 39.43 0 0 1 4.386-1.818l-1.194-4.86 5.573-1.332 1.159 4.721a39.755 39.755 0 0 1 4.766-.601l.118-4.844 5.732.137-.116 4.747c1.622.128 3.217.355 4.78.674Zm-32.509 64.4h49.149c6.733-6.469 10.934-15.554 10.934-25.589 0-19.557-15.951-35.508-35.508-35.508-19.557 0-35.509 15.951-35.509 35.508 0 10.035 4.202 19.12 10.934 25.589Zm46.453 2.345h-43.757c6.037 4.741 13.637 7.574 21.879 7.574 8.241 0 15.841-2.833 21.878-7.574Z" style="fill:#c00415" transform="matrix(.70948 0 0 .70948 -20.038 -178.409)"/><path d="M126.172 376.059h27.057v2.197h-27.057zM121.72 378.95h35.961v7.747H121.72v-7.747Zm10.403 1.158h-1.259c-.167.86-.744 1.289-1.729 1.289v1.163h1.32v3.301h1.667l.001-5.753Zm4.996 4.653c-.607.084-.932-.136-.973-.661 0-.481.261-.723.786-.723.481.022.733.263.753.723 0 .398-.187.618-.566.661Zm-.22-2.295c-.461-.021-.701-.22-.723-.598.022-.397.273-.607.756-.628.44.021.67.231.69.628-.02.378-.261.577-.723.598Zm-1.509.44c-.649.251-.964.671-.942 1.257.041 1.132.87 1.72 2.484 1.761 1.55-.041 2.356-.629 2.419-1.761 0-.608-.313-1.047-.943-1.32.503-.189.756-.577.756-1.163-.085-.986-.819-1.509-2.202-1.572-1.487.063-2.262.597-2.325 1.603-.022.545.23.943.753 1.195Zm7.294-.063c-.44-.021-.671-.272-.692-.755.021-.503.262-.764.723-.785.461.042.713.282.755.723 0 .503-.262.776-.786.817Zm-2.232 1.635c.187.963.953 1.446 2.295 1.446 1.592-.041 2.419-.995 2.482-2.861 0-1.97-.879-2.955-2.639-2.955-1.489.042-2.254.713-2.295 2.012.104 1.153.743 1.76 1.917 1.823.503.022.953-.115 1.352-.408 0 .859-.294 1.289-.88 1.289-.357 0-.588-.147-.692-.441l-1.54.095Zm8.299-1.226c.46.021.701.273.723.754-.022.503-.274.765-.755.786-.462-.041-.712-.294-.754-.754.02-.524.283-.786.786-.786Zm2.232-1.635c-.189-1.006-.954-1.509-2.295-1.509-1.594.063-2.421 1.037-2.484 2.924 0 1.928.89 2.892 2.672 2.892 1.467-.041 2.222-.692 2.264-1.949-.105-1.153-.745-1.761-1.918-1.824a1.95 1.95 0 0 0-1.32.409c-.022-.859.261-1.299.849-1.32.355 0 .586.157.691.471l1.541-.094ZM139.429 352.105v-17.506c0-.344.242-.625.538-.625h2.288c.296 0 .539.281.539.625v17.506h-3.365ZM143.756 352.105v-16.162c0-.317.204-.577.454-.577h1.927c.249 0 .453.26.453.577v3.392l1.46-.902c.217-.135.544-.03.725.231l6.365 9.179 2.546 3.672.331.476-.396.244-1.683 1.041-.396.244-.322-.464-.008-.012-2.547-3.671-6.075-8.762v11.494h-2.834ZM125.624 344.727h12.412c.244 0 .444-.22.444-.49v-2.082c0-.27-.2-.491-.444-.491h-12.412v3.063Zm11.093-2.591h.255v2.199h-.255v-2.199ZM125.624 348.324h12.412c.244 0 .444-.229.444-.51v-2.164c0-.281-.2-.51-.444-.51h-12.412v3.184Zm11.093-2.694h.255v2.286h-.255v-2.286ZM125.624 352.157h12.412c.244 0 .444-.234.444-.519v-2.205c0-.286-.2-.519-.444-.519h-12.412v3.243Zm11.093-2.744h.255v2.328h-.255v-2.328ZM136.625 337.122c1.066 0 1.935.812 1.935 1.808 0 .933-.765 1.705-1.739 1.798v.023h-7.989v-.44h6.549a1.942 1.942 0 0 1-.29-.283c-7.386-.37-11.151 1.441-12.547 1.845.05-.307.556-2.15.969-3.049 5.589-1.068 6.811-.795 11.268-.442.249-.729.982-1.26 1.844-1.26Zm.154 1.056c.285 0 .518.337.518.649 0 1.082-.988 1.502-1.492 1.371.538-.267.63-.385.885-.9-1.099.132-.945-1.199.089-1.12ZM163.326 352.349h.641c.565 0 1.027.313 1.027.696v3.304c0 .326-.334.6-.782.675v2.629h.604c.48 0 .874.336.874.747v3.638c0 .41-.394.746-.874.746h-.604v2.713h.604c.48 0 .874.336.874.746v3.638c0 .411-.394.747-.874.747h-2.077c-.482 0-.875-.336-.875-.747v-3.638c0-.41.393-.746.875-.746h.603v-2.713h-.603c-.482 0-.875-.336-.875-.746V360.4c0-.411.393-.747.875-.747h.69v-2.608h-.103c-.565 0-1.027-.313-1.027-.696v-3.304c0-.383.462-.696 1.027-.696Zm-.068 15.757h1.038c.241 0 .438.256.438.569v2.775c0 .313-.197.569-.438.569h-1.038c-.241 0-.437-.256-.437-.569v-2.775c0-.313.196-.569.437-.569Zm0-7.844h1.038c.241 0 .438.256.438.569v2.775c0 .313-.197.569-.438.569h-1.038c-.241 0-.437-.256-.437-.569v-2.775c0-.313.196-.569.437-.569Z" style="fill:#c00415" transform="matrix(.70948 0 0 .70948 -20.038 -178.409)"/><path d="m126.823 354.666.275.098c.29.104.415.504.277.891l-9.544 26.737 2.757 1.228a.881.881 0 0 1 .445 1.159l-1.072 2.403a.879.879 0 0 1-1.158.445l-6.971-3.107a.88.88 0 0 1-.445-1.159l1.072-2.403a.878.878 0 0 1 1.158-.444l2.919 1.301 9.508-26.635c.138-.387.488-.618.779-.514ZM152.386 353.305c-.029 2.522-.058 5.479-.087 8.001 7.681-1.769 10.319-3.798 14.609-8.001h-14.522Z" style="fill:#c00415" transform="matrix(.70948 0 0 .70948 -20.038 -178.409)"/><path d="M118.346 352.766h32.992c.098 5.431-.314 7.78-.14 9.075-7.526.941-3.834 11.273.641 12.996h-24.238c4.368-.732 6.653-10.146.87-12.163-.634-.437-1.369-.803-2.173-1.116l1.588-6.787c-.397-.814-1.043-1.225-1.938-.6-1.053 1.989-1.849 4.302-2.683 6.481-1.542-.36-3.178-.634-4.765-.907l-.154-6.979Z" style="fill:#c00415" transform="matrix(.70948 0 0 .70948 -20.038 -178.409)"/><path d="M138.887 297.215v.003c17.918 0 34.141 7.264 45.883 19.006 11.742 11.742 19.006 27.964 19.006 45.882h.003-.003c0 17.918-7.264 34.141-19.006 45.883-11.742 11.742-27.965 19.006-45.883 19.006v.003-.003c-17.918 0-34.141-7.264-45.883-19.006-11.742-11.742-19.005-27.965-19.006-45.882h-.002v-.001h.002c.001-17.918 7.264-34.141 19.006-45.883 11.742-11.742 27.965-19.005 45.883-19.005v-.003Zm0 1.468v.003-.003c-17.509 0-33.364 7.101-44.843 18.58-11.479 11.48-18.581 27.335-18.581 44.843h.003v.001h-.003c0 17.508 7.102 33.363 18.581 44.842 11.479 11.48 27.335 18.581 44.843 18.581v-.003.003c17.508 0 33.364-7.101 44.843-18.581 11.479-11.479 18.581-27.334 18.581-44.843h-.003.003c0-17.508-7.102-33.363-18.581-44.843-11.479-11.479-27.335-18.58-44.843-18.58Z" style="fill:#c00415" transform="matrix(.70948 0 0 .70948 -20.038 -178.409)"/><path d="M138.887 291.633v.006c19.461 0 37.079 7.887 49.83 20.638 12.75 12.75 20.638 30.368 20.638 49.829h.006v.001h-.006c0 19.461-7.888 37.079-20.638 49.829-12.751 12.751-30.369 20.638-49.83 20.638v.006-.006c-19.461 0-37.079-7.887-49.83-20.638-12.75-12.75-20.638-30.368-20.638-49.829h-.006v-.001h.006c0-19.461 7.888-37.079 20.638-49.829 12.751-12.751 30.369-20.638 49.83-20.638v-.006Zm0 2.935v.006-.006c-18.642 0-35.525 7.563-47.75 19.788-12.225 12.225-19.788 29.109-19.788 47.75h.006v.001h-.006c0 18.641 7.563 35.524 19.788 47.749 12.225 12.226 29.108 19.788 47.75 19.788v-.006.006c18.642 0 35.525-7.562 47.75-19.787 12.225-12.226 19.788-29.109 19.788-47.751h-.006.006c0-18.641-7.563-35.525-19.788-47.75-12.225-12.225-29.108-19.788-47.75-19.788Z" style="fill:#c00415" transform="matrix(.70948 0 0 .70948 -20.038 -178.409)"/><path d="M90.31 378.494c.084.121.13.25.136.386-.006.133-.053.227-.138.286-.108.076-.286.098-.534.064l-3.278-.325c-.139-.008-.236-.049-.29-.126-.066-.095-.066-.167.001-.214.048-.033.123-.046.227-.04.018-.013 1.045-.14 3.083-.38.33-.053.595.064.793.349Zm101.02-11.458c-.172-.059-.306-.041-.405.054-.099.095-.163.289-.194.58l-.013.125-.264-.027.257-2.443.264.028-.02.187c-.022.208.009.403.094.58.086.179.224.339.415.487l3.263 2.307 2.548.268a.287.287 0 0 0 .279-.13.835.835 0 0 0 .131-.397l.059-.564.264.027-.342 3.259-.264-.028.059-.564c.022-.209.007-.359-.042-.448a.303.303 0 0 0-.249-.153l-2.284-.24-4.086 1.722c-.155.07-.284.162-.386.278-.101.116-.161.277-.183.486l-.013.126-.265-.028.29-2.756.264.028-.039.377c-.027.248.001.4.085.452.084.049.217.044.402-.023l3.42-1.345.014-.134-3.059-2.091Zm5.312 9.715-.903 3.149-.255-.073.156-.545c.058-.202.07-.352.037-.448a.307.307 0 0 0-.221-.195l-5.941-1.703c-.226-.065-.359-.081-.399-.051-.039.034-.1.193-.181.474-.162.566-.204.979-.126 1.242.077.262.381.643.912 1.145l-.146.352-1.457-1.008 1.649-5.753 1.752-.02-.045.314c-.686.152-1.134.298-1.341.434-.208.136-.393.489-.555 1.054-.116.403-.165.63-.15.679.018.047.153.108.409.181l5.897 1.691a.287.287 0 0 0 .299-.079.833.833 0 0 0 .198-.368l.156-.545.255.073Zm-10.613 8.132-.248-.095 1.806-4.704.248.095-.519 1.352a.83.83 0 0 0-.064.414c.017.118.08.2.19.242l5.894 2.263a.285.285 0 0 0 .303-.054.832.832 0 0 0 .229-.349l.519-1.353.248.095-1.806 4.705-.247-.096.519-1.352c.075-.196.1-.344.075-.443a.3.3 0 0 0-.201-.212l-5.895-2.263c-.109-.042-.207-.034-.291.023-.084.057-.166.184-.241.38l-.519 1.352Zm1.153 5.268c-.858.821-1.506 1.349-1.941 1.59-.436.238-.898.222-1.387-.049-.386-.214-.626-.648-.719-1.299-.094-.651.095-1.401.563-2.244a4.46 4.46 0 0 1 .715-.971c.274-.282.452-.497.533-.642a.91.91 0 0 0 .11-.336.714.714 0 0 0-.074-.366l1.704.659-.075.317c-.724.032-1.279.167-1.666.41-.386.242-.732.637-1.038 1.189-.387.698-.516 1.25-.388 1.656.128.406.346.696.656.868a.904.904 0 0 0 .874.017c.299-.148.912-.659 1.837-1.538.745-.739 1.387-1.213 1.922-1.421.536-.206 1.022-.189 1.46.054.463.257.747.715.854 1.374.107.658-.086 1.43-.575 2.311a4.135 4.135 0 0 1-.699.943c-.264.262-.446.487-.548.67a.887.887 0 0 0-.105.372c-.01.139-.018.304-.021.493l-2.136-.607.106-.374c.786.101 1.428-.011 1.927-.337.499-.322.912-.778 1.237-1.366.347-.625.478-1.164.394-1.619-.085-.456-.372-.818-.861-1.089-.257-.143-.605-.108-1.043.107-.439.212-.977.623-1.616 1.228Zm-5.09 6.705.854-1.093c.387-.496.605-.99.656-1.486.05-.492-.146-.912-.587-1.256-.393-.307-.816-.399-1.269-.272-.454.126-.925.502-1.416 1.13l-.427.547a.838.838 0 0 0-.182.376.285.285 0 0 0 .11.287l2.261 1.767Zm1.512-4.732c.465.363.682.825.652 1.389a3.253 3.253 0 0 1-.518 1.594l3.738.523a.692.692 0 0 0 .367-.075.896.896 0 0 0 .264-.23l.233-.299.21.163-1.086 1.39-4.344-.608-.819 1.048 2.504 1.957a.286.286 0 0 0 .307.038.834.834 0 0 0 .321-.267l.234-.299.209.164-1.785 2.285-.21-.164.234-.298c.129-.166.196-.301.201-.402a.303.303 0 0 0-.13-.262l-4.975-3.887c-.092-.072-.189-.093-.286-.063-.097.029-.212.127-.341.293l-.233.298-.21-.163 2.211-2.83c.594-.76 1.17-1.258 1.724-1.49.556-.231 1.065-.167 1.528.195Zm-10.234 9.518-.194-.181 4.25-4.558 1.575.513-.15.29c-.552-.055-1.038-.02-1.457.107a2.452 2.452 0 0 0-1.102.696l-1.203 1.289a.84.84 0 0 0-.214.359.288.288 0 0 0 .085.296l2.002 1.867 1.246-1.337c.286-.306.439-.579.462-.818.021-.238-.076-.457-.291-.658l-.194-.181.258-.277 1.905 1.777-.258.277-.129-.121c-.237-.221-.485-.323-.741-.305-.26.019-.532.181-.818.487l-1.246 1.337 2.422 2.258c.085.08.187.101.301.064a.826.826 0 0 0 .343-.238l1.116-1.197c.431-.462.705-.938.822-1.431.118-.493.069-1.013-.146-1.559l.279-.169.787 1.681-4.383 4.7-.194-.182.258-.277c.143-.153.222-.282.236-.382a.303.303 0 0 0-.107-.273l-4.617-4.306a.299.299 0 0 0-.285-.081c-.105.027-.233.12-.387.285l-.231.248Zm-1.58.99-.167-.206 1.763-1.428.167.207-.196.159a.896.896 0 0 0-.285.4c-.057.16-.045.358.038.594l2.189 6.806-.295.238-6.006-3.714c-.162-.132-.316-.207-.463-.221-.146-.015-.301.045-.464.177l-.245.198-.167-.206 2.105-1.705.167.206-.196.159c-.163.132-.242.252-.234.36.006.109.072.208.197.295l4.521 2.841.1-.082-1.601-5.034c-.065-.212-.162-.332-.292-.36-.13-.028-.293.039-.487.196l-.149.12Zm-8.731 5.905-.132-.23 4.363-2.519.133.23-1.254.724a.827.827 0 0 0-.31.281.284.284 0 0 0-.005.307l3.157 5.468a.287.287 0 0 0 .269.15.827.827 0 0 0 .398-.128l1.255-.724.133.23-4.364 2.519-.133-.23 1.254-.724c.182-.105.295-.205.338-.297a.302.302 0 0 0-.023-.292l-3.157-5.468a.3.3 0 0 0-.241-.165c-.101-.009-.244.039-.426.144l-1.255.724Zm.258 5.972.117-.047-1.934-4.789a.304.304 0 0 0-.216-.197c-.1-.023-.248.004-.442.083l-.466.188-.1-.246 2.335-.943.1.246-.466.188a.839.839 0 0 0-.346.235.286.286 0 0 0-.048.304l2.597 6.427-.352.142.033-.013-6.932-4.294-.117.048 2.232 5.526c.044.108.127.17.246.185a.823.823 0 0 0 .412-.071l.466-.189.099.247-2.334.943-.1-.246.466-.189c.195-.078.32-.161.376-.247.055-.085.062-.183.018-.292l-2.365-5.854a.293.293 0 0 0-.231-.191c-.109-.019-.275.016-.497.105l-.396.16-.099-.246 1.849-.747 6.095 3.774Zm-8.845 4.778c.607-.174 1.08-.462 1.423-.866.342-.406.453-.82.331-1.244l-1.412-4.923a.303.303 0 0 0-.194-.219c-.096-.033-.246-.021-.448.037l-.364.104-.073-.255 2.183-.626.073.255-.364.105a.844.844 0 0 0-.369.197.288.288 0 0 0-.079.298l1.411 4.923c.163.567.019 1.09-.433 1.57-.451.482-1.022.822-1.707 1.019-.728.209-1.404.25-2.03.123-.627-.128-1.028-.503-1.206-1.124l-1.424-4.966a.301.301 0 0 0-.194-.219c-.096-.033-.247-.021-.448.036l-.303.087-.073-.255 2.664-.764.073.255-.302.087a.837.837 0 0 0-.369.198.285.285 0 0 0-.079.297l1.423 4.965c.163.567.443.9.843.999.4.098.883.068 1.447-.094Zm-14.247-5.073c-.629.021-1.196.343-1.698.965-.503.621-.734 1.549-.691 2.786.029.822.255 1.595.681 2.317.423.722 1.096 1.066 2.02 1.034.462-.016.828-.095 1.095-.236.269-.144.418-.347.451-.614l-.052-1.5c-.006-.177-.073-.307-.202-.391-.129-.084-.321-.12-.571-.112l-.379.014-.009-.266 3.148-.11.009.266-.315.011c-.209.007-.377.056-.5.149a.414.414 0 0 0-.176.361l.078 2.206a2.266 2.266 0 0 0-.223-.058.94.94 0 0 0-.221-.015 1.446 1.446 0 0 0-.252.031.667.667 0 0 0-.248.118 2.634 2.634 0 0 1-.776.336c-.27.068-.572.109-.908.121-1.26.044-2.197-.314-2.812-1.073-.616-.758-.939-1.608-.972-2.55-.038-1.09.276-2.035.942-2.839.663-.804 1.522-1.224 2.57-1.26.252-.009.547.024.885.101.339.077.55.114.636.111a1.11 1.11 0 0 0 .374-.08.799.799 0 0 0 .31-.209l.571 1.968-.375.102c-.272-.609-.604-1.048-.99-1.313-.388-.267-.855-.391-1.4-.372Zm-4.914 5.7.125.017.719-5.114c.016-.116-.014-.21-.088-.279-.075-.069-.217-.12-.425-.149l-.497-.07.037-.263 2.493.351-.037.263-.497-.07a.829.829 0 0 0-.417.03.287.287 0 0 0-.194.239l-.964 6.865-.376-.053.035.005-3.856-7.184-.125-.018-.83 5.902a.286.286 0 0 0 .12.283.832.832 0 0 0 .393.145l.497.07-.037.263-2.493-.351.037-.263.497.07c.208.029.358.02.449-.026.091-.046.146-.128.162-.244l.879-6.252a.292.292 0 0 0-.105-.281c-.085-.071-.245-.124-.482-.157l-.423-.06.037-.263 1.974.278 3.392 6.316Zm-5.899-2.813c-.271 1.176-.812 2.025-1.622 2.548-.81.522-1.705.671-2.687.445-.943-.218-1.67-.749-2.187-1.593-.516-.845-.642-1.84-.377-2.987.258-1.118.783-1.948 1.576-2.49.792-.542 1.702-.695 2.726-.459 1.063.246 1.817.804 2.26 1.678.447.872.549 1.826.311 2.858Zm-5.708-1.318c-.285 1.233-.277 2.178.023 2.837.301.659.778 1.063 1.435 1.215.694.16 1.308.022 1.842-.414.531-.436.945-1.299 1.243-2.589.238-1.032.258-1.905.055-2.615-.203-.712-.714-1.162-1.531-1.351-.696-.161-1.315-.002-1.859.478-.54.478-.943 1.291-1.208 2.439Zm-4.677 2.473-3.038-1.227.1-.246.525.212c.195.079.343.106.442.083.099-.023.172-.089.217-.199l2.315-5.73c.088-.218.118-.349.092-.392-.03-.042-.181-.119-.453-.229-.545-.221-.952-.306-1.221-.256-.269.05-.68.312-1.234.787l-.335-.182 1.154-1.343 5.549 2.242-.162 1.744-.308-.078c-.08-.698-.178-1.158-.292-1.379-.114-.221-.445-.442-.99-.662-.389-.157-.609-.23-.659-.22-.049.013-.124.141-.224.387l-2.298 5.688a.286.286 0 0 0 .048.306.816.816 0 0 0 .345.235l.526.213-.099.246Zm-3.515-5.484c-.567 1.067-1.309 1.747-2.227 2.042-.918.295-1.821.207-2.711-.266-.854-.454-1.418-1.155-1.699-2.104-.28-.95-.144-1.944.408-2.983.539-1.013 1.261-1.679 2.167-1.997.906-.319 1.824-.231 2.752.262.963.512 1.547 1.247 1.749 2.206.206.958.058 1.906-.439 2.84Zm-5.173-2.75c-.594 1.118-.831 2.033-.712 2.747.12.714.477 1.228 1.072 1.545.629.334 1.258.359 1.886.076.626-.283 1.249-1.01 1.871-2.179.497-.935.742-1.773.73-2.511-.012-.74-.389-1.308-1.129-1.701-.631-.336-1.27-.343-1.919-.02-.646.322-1.246 1.003-1.799 2.043Zm-2.651-5.338-.039-.023-3.229 2.18 2.131 1.548 1.137-3.705Zm-1.271 3.936-2.229-1.619-1.479.997c-.222.165-.347.337-.375.517-.028.18.079.358.316.53l.152.11-.156.215-1.885-1.369.156-.215.152.11c.137.1.279.156.422.17a.556.556 0 0 0 .425-.155l5.952-4.023.899.381-2.165 7.049c-.033.192-.023.356.036.49a.857.857 0 0 0 .293.347l.152.111-.156.215-2.192-1.593.156-.215.205.149c.204.148.36.199.473.153.11-.046.192-.177.246-.394l.602-1.961Zm-5.147-10.291.185-.191 3.624 3.5-.184.191-1.042-1.006a.83.83 0 0 0-.356-.22.287.287 0 0 0-.297.079l-4.386 4.542a.286.286 0 0 0-.069.3.84.84 0 0 0 .232.348l1.042 1.006-.184.191-3.625-3.5.185-.192 1.042 1.007c.15.145.278.226.378.242.101.016.193-.018.274-.102l4.386-4.542c.081-.084.112-.177.093-.277-.02-.1-.105-.224-.256-.37l-1.042-1.006Zm-2.737-2.393a.301.301 0 0 0 .134-.26c-.003-.101-.068-.238-.194-.405l-.909-1.206.212-.16 3.107 4.123-.212.16-.909-1.206a.827.827 0 0 0-.317-.273.285.285 0 0 0-.306.032l-5.006 3.773c-.518.389-1.1.462-1.748.213-.647-.249-1.236-.724-1.767-1.428-.38-.505-.599-.942-.66-1.317-.062-.374.002-.633.19-.775a.43.43 0 0 1 .45-.063c.16.064.288.163.39.298.126.167.187.333.181.496a.466.466 0 0 1-.187.376.336.336 0 0 1-.142.068.467.467 0 0 1-.217-.032c-.021.12.002.26.066.42.068.162.176.343.328.545.328.435.693.712 1.095.83s.873-.028 1.413-.435l5.008-3.774Zm-9.299-4.24.063.109 4.473-2.582a.302.302 0 0 0 .165-.241c.009-.102-.039-.245-.144-.426l-.251-.435.23-.133 1.259 2.181-.23.132-.251-.435a.824.824 0 0 0-.281-.309.284.284 0 0 0-.308-.005l-6.003 3.466-.189-.329.017.031 3.287-7.462-.063-.11-5.161 2.98a.287.287 0 0 0-.149.27c.001.12.042.251.127.398l.251.435-.23.133-1.259-2.181.23-.133.252.435c.104.182.204.295.297.338a.3.3 0 0 0 .291-.023l5.468-3.157a.29.29 0 0 0 .157-.255c.004-.111-.053-.27-.173-.477l-.214-.37.231-.133.997 1.727-2.889 6.561Zm.31-10.835-.02-.041-3.895.07.943 2.459 2.972-2.488Zm-3.21 2.608-.987-2.572-1.784.032c-.276.016-.474.093-.596.229-.121.135-.128.343-.023.616l.067.176-.248.095-.835-2.175.248-.096.067.176a.853.853 0 0 0 .262.372.552.552 0 0 0 .441.101l7.182-.132.547.81-5.655 4.732c-.133.143-.213.286-.236.431a.854.854 0 0 0 .056.45l.067.176-.248.095-.97-2.529.247-.095.091.236c.091.235.194.363.314.386.117.021.257-.044.421-.196l1.572-1.318Zm1.398-10.958.26-.056 1.047 4.929-.259.055-.302-1.416a.831.831 0 0 0-.171-.382.287.287 0 0 0-.291-.1l-6.176 1.313a.285.285 0 0 0-.225.21.836.836 0 0 0-.002.418l.301 1.417-.259.055-1.048-4.929.26-.055.301 1.417c.044.205.104.343.178.412.075.07.17.093.284.069l6.176-1.313c.115-.024.192-.084.232-.178.04-.094.039-.244-.005-.45l-.301-1.416Zm-3.935-3.735-3.104 2.488a1.126 1.126 0 0 0-.33.446 1.033 1.033 0 0 0-.061.482l.02.187-.265.027-.283-2.694.264-.027.027.251c.022.208.074.341.153.397.08.054.172.033.282-.062l2.419-1.957-2.268-1.255a17.212 17.212 0 0 1-.397-.186c-.109-.053-.178-.078-.208-.075a.245.245 0 0 0-.225.183 1.055 1.055 0 0 0-.023.413l.013.126-.264.027-.247-2.343.265-.028.026.251c.022.208.085.391.19.55.106.157.222.271.347.342l3.182 1.679 3.039-2.46a.492.492 0 0 0 .196-.242.844.844 0 0 0 .046-.416l-.027-.251.264-.028.282 2.684-.264.028-.019-.187c-.027-.252-.085-.394-.178-.428-.093-.036-.222-.001-.388.106l-2.069 1.658 2.28 1.203c.218.107.376.133.475.08.098-.054.133-.206.107-.46l-.04-.374.264-.028.261 2.483-.264.028-.039-.377a.797.797 0 0 0-.121-.303 1.487 1.487 0 0 0-.302-.347l-3.016-1.591ZM125.631 315.377c-5.784-6.054-14.499-4.729-16.104 6.827-.356 1.674-1.752 1.878-1.936-.394.292-5.879 4.749-8.583 5.759-10.172.056-.549-.127-.896-.694-.921-.751.064-4.397 2.747-5.681 3.316-1.633 1.231-2.094-.269-1.097-1.191 1.032-.954 6.536-2.346 6.025-4.069-.088-.751-.194-1.339-.471-2.011-.25-.609.474-.93.988-.57.303.201.668.697.908 1.217.464 1.01 2.135.693 3.014.388 1.071-.371 2.04-.991 3.06-1.486 2.873-1.39 3.759.737 1.903 1.455-1.81.503-3.629.974-5.43 1.508-1.315.39-.742 1.353.513 1.193 4.656-.596 8.746 1.39 10.275 3.119.957 1.185-.324 2.182-1.032 1.791ZM163.822 311.627c-.198-.734.195-.78.671-.727l2.35 1.119c1.842-.602 1.945-2.83.112-3.525-2.231-1.56-5.441-3.471-6.938-2.798-2.215 2.382-.347 2.978 1.119 3.749.792.486.459.626-.215.661-2.946-.882-2.357-.11-4.541 1.801-1.257.91-2.216.529-2.559-.152-.283-.56-.176-.71.3-.944.963-.474 1.662-.984 1.308-1.646.176-1.017.437-1.969 1.287-2.462.894-.482 1.86-.901 1.612-2.373-.832-1.387-2.923-1.914-2.283-.368.366.993-.565 1.949-.924 1.426-2.681-.87-5.145-1.594-5.049-.587-.633 1.03 1.564 1.333 3.595 1.678.49.183.538.849-.012.835l-3.933-.107c-.858.061-1.072 1.338.28 1.399 1.213 0 2.533.129 3.707-.12.559-.119.413 1.158-.357 1.148-3.926-.051-3.372.275-3.574.538-.424.881-.523 1.785-.978 2.617-1.337 2.442.122 3.034 2.601 3.09 5.171 1.044 9.544 2.603 11.142 6.028.212.453.287.645.74.922 1.33.811 1.908-.612.913-1.645-.765-.794-.563-.757-.038-1.78 1.202-2.122 3.14-4.185 1.398-6.546l-1.734-1.231Zm-6.852 2.994c-.453.174-.659.45-.548.986.123.595 1.428 1.388 1.858.442.21-.24.297-.824.036-1.083-.148-.133-1.035-.464-1.346-.345Zm-2.743-.9c-.17-.242-.529-.281-.83-.136-.333.162-.565 1.428.058 1.541.173.089.631.028.745-.165.056-.108.144-1.074.027-1.24Zm8.451.411c-.347.015-.612.346-.657.734-.051.432 1.264 1.459 1.769.914.316-.185.186-.783-.054-.99-.283-.244-.873-.667-1.058-.659Zm-.019-1.829c-.207.079-.301.332-.25.577.056.271.931.67 1.127.239.096-.109.135-.452.016-.57-.067-.06-.752-.3-.893-.246Zm-2.866-1.333c-.207.08-.301.333-.25.577.056.271.931.671 1.127.24.096-.109.135-.452.017-.57-.068-.061-.753-.301-.894-.247Zm-1.289 1.563c-.276.106-.402.444-.334.771.075.363 1.246.898 1.508.321.128-.146.181-.605.022-.762-.09-.082-1.007-.403-1.196-.33Zm3.084 3.997c-1.279-.903-1.992.056-1.805.959.134.648.809.925 1.377 1.105.641.204 1.382.088 1.464-.523.003-.311-.078-.664-.233-.817l-.803-.724Zm-9.74-3.588c.391-1.517-.049-1.827-.827-1.333-.715.455-.648 1.277-.767 1.892-.076.43-.067.803.531.784.299.112.522 0 .672-.336l.391-1.007Zm10.043-5.791c-.858-.446-1.552.265-.839.979 1.129.431 2.65 1.405 4.199 1.99.992.157 1.536-.51.627-.95l-3.987-2.019ZM191.35 332.161c-1.557.429-3.842-2.611-5.763-3.917-1.996-1.193-2.499-.895-1.511.896l3.021 2.35c.523.473.388.718-.403.734-.841.017-2.069-1.374-2.73-1.909-.886-.951-2.089-.373-1.678.559l2.685 2.35c.942.83.075 2.164-1.175 1.567l-4.476-2.742c-1.944-.913-2.27.043-1.983.93 1.378 2.476 7.995 1.387 7.97 6.008.298 2.257-.522 4.849-1.455 6.77-.447 1.958 1.865 2.126 2.238.672l1.014-6.88c.135-.917.972-.806 1.463-.252.82.926-.22 3.012.612 4.213.6.867 1.402.006 1.379-.891l-.095-3.709c-.011-.403.311-.823.665-.538.808.652-.497 4.529.729 5.527.933.76 2.015.507 1.648-.866-.646-2.411-.545-4.542-.365-6.643.046-.542-.03-1.118.029-1.624.161-1.397 2.773-2.526-1.819-2.605Zm-3.99 2.042c-.481.528-.468 1.486-.178 2.686 1.038.979 2.122 1.11 3.273 0 .707-.512 1.12-1.158 1.007-2.042-.301-1.256-1.166-2.064-1.732-1.489-.645.656-2.071.844-2.37.845ZM90.204 344.247c.731 1.252 1.144 2.279-.671 1.734-3.42-3.21-2.059-5.84-.874-8.822.172-.436.081-.836-.464-1.162-.414-.247-.5-.187-.943-.07-1.37.361-1.061.442-1.394-1.118-.076-.358-.721-.124-1.081-.186-.69.112-.783-.186-.28-.895.64-.623.988-1.45 1.119-2.429.059-.443.338-1.121.572-1.549.48-.88.943-1.873 1.685-2.504.6-.511 1.208-1.008 2.975.747 1.919 1.5.956 3.328-.42 5.203.156.381.543.273 1.035-.056 1.137-2.109 2.637-3.775 5.108-3.985 1.311-.111 2.547-.146 2.697.936.336.709-.074 1.138-2.126.951-2.446-.404-6.416 2.588-8.092 8.224-.361 2.331.023 3.992 1.154 4.981Zm4.98-2.938c.013 1.873 1.689.488 1.832-.525.22-1.554-1.225-2.638-.098-3.755 1.929-5.144-.974-4.616-.845-3.389.117 1.1-.036 2.109-.554 2.997-.41.411-.92.423-.849-.204.187-1.663.077-2.982-1.433-2.683-1.323.695-2.905 4.393-2.616 5.403.485 1.499 1.881.653 2.429-.409.389-.753 1.34.232.623.665-1.138.686-1.921 1.28-2.462 2.04-.452 1.884 1.821.872 2.322-.038.924-1.677 1.393-1.355 1.651-.102Zm-2.504-5.679c.508-.839.867-.653 1.077.56-.198.592-.576 1.184-1.035 1.776-.56.32-1.025.485-.866-.363.158-.841.263-1.222.824-1.973Zm-6.244 2.579s.04-.621.347-1.007c.298-.375.861-.526.99.111.24 1.192-.773 3.398-1.963 3.253-.553-.067-1.538-.133-2.815-.763-.507-.185-.828-.695-.755-1.79 0 0 .566-2.333 1.244-2.697.54-.289.983.717.48 1.148-.678.581-1.09 2.404.27 1.746.403-.195.753-2.656 1.469-1.887.292.314.22.35.079.706-.213.541-.508 1.511.095 1.572.221.016.525.128.559-.392Zm.024-6.779c-.015.319-.105.637-.075.955 1.379.78.396-.192 1.298-.666.409-.214.521-.316.619 1.114.01.434.995.712 1.353-.05.113-.466.278-.91.583-1.286.387-.479.679-.334.42-.97-.172-.422-.389-.689-.767-.391-.319.251-.184.68-.603.851-.532.218-.62-.388-.495-.743l.216-.612c.434-1.232-.832-1.155-1.351-.254l-.741.727c-.23.781-.424.596-.458 1.325Zm2.429 3.053c1.073-.401 1.455-.261 1.147.42-.187.472-.409.767-.671.867-.401.14-.634.037-.7-.308-.108-.405.066-.688.224-.979Z" style="fill:#c00415" transform="matrix(.70948 0 0 .70948 -20.038 -178.409)"/></svg>