<svg xmlns="http://www.w3.org/2000/svg" width="154" height="157" fill="none"><g filter="url(#a)"><path fill="#fff" d="M13 0h128v128H13z"/><path fill="#C92B2F" fill-rule="evenodd" d="M66.152 51.04s2.856.26 2.748 1.445c0 0-.15.373.037.574.074.074.618-.037 1.114-.186.335-.112.632-.335.692-.335 0 0 3.042-.652 1.542.849 0 0-1.292.148-2.7.887-.372.185-1.213.659-1.363.544-.074-.075-.03-.262.518-.79 0 0-.89.335-1.925.63-.335.073-.793.297-1.113.297-.373.028-1.08.187-1.233.021-.149-.187.54-.26 1.188-.61.547-.299.867-.69 1.076-1.227.112-.335.149-.573.015-.987-.112-.335-.149-.73-.6-1.099l.004-.013ZM65.61 56.823c.113.028.113.149.113.394-.01.112.025.224-.037.373 0 0 .405-.037 1.105-.51.92-.611 1.594-.927 2.111-.957.261-.016.503.111.7.185.299.075.563.112.75.224.222.15.11.395.073.582-.008.223.03.413-.223.528-.224.075-.548.007-.8.037-.335.038-.637.224-.842.038-.149-.111.075-.335.148-.596.112-.298.075-.298-.014-.373-.112-.037-.298-.111-.451-.023-.297.224-.559.656-.607.716-.443.529-1.013.77-1.586 1.044-.372.185-.812.185-1.17.335-.52.223-.945.588-1.406.737-.567.187-.552-.298-.031-.932.222-.297.614-.462.993-.774.15-.112.414-.384.67-.652.187-.187.336-.444.522-.395l-.017.02ZM60.59 68.425s.598-.187 1.31-.73c.298-.224.562-.645.897-.95.678-.615 1.37-1.401 1.925-2.12.433-.559.715-1.152.913-1.524.334-.596-.009-1.066-.38-1.583-.26-.384-.637-.738-.741-.913-.816-1.382.443-.186 1.102.298.533.395.678.757.752.764.075.008.075-.336.387-.865.299-.477.373-.883.5-1.025.074-.074-.075.035.61.437.827.495 1.288 1.568.619 2.235 0 .013-1.025.392-.299 1.21.149.187.726.787 1.34 1.555.417.525.768 1.173 1.349 1.598.629.462 1.336 1.114 1.943 1.308.738.223 1.292.335 1.08.473-.112.074-.335.112-1.467.297-.618.075-1.307.299-1.977.112-.67-.186-1.315-.74-1.754-1.423a27.22 27.22 0 0 1-1.001-1.974c-.336-.742-.6-1.475-.86-1.52-.335-.075-.5.517-.816.987-.38.566-.92.946-1.482 1.493-.533.515-2.67 2.013-3.355 2.098-1.374.187-.187-.447-.58-.223l-.016-.015ZM80.272 55.64s.678-.421 1.582-1.021c.451-.298.842-.752 1.364-1.155.87-.667 1.914-1.322 2.71-1.87.909-.626 1.717-.805 1.854-1.166 0 0 .652-.186 1.073-.037.26.074.335.503.39.77 0 0-.781.98-1.448 1.808-.484.604-.964 1.076-.76 1.3 0 0 .973.764.396 1.147 0 0-2.049 1.464-2.529.887 0 0 1.069-.607 1.262-1.334 0 0-.625-.432-.037-1.251 0 0 1.057-1.278 1.3-1.905 0 0-.905.63-1.758 1.313-1.028.819-2.263 2.048-2.714 2.261-.261.387-3.303.26-2.678.26l-.007-.007ZM78.56 60.18c.335.187.715.262.954.459.893.692 1.001 1.52.815 1.866-.15.26-.298.112-.484.112-.26-.01-.581.035-.73-.112-.075-.075.003-.372-.075-.67-.148-.69-.591-1.506-.484-1.643l.005-.012ZM79.779 65.629s-.03-.372.004-.76c.027-.298.187-.663-.112-.83 1.095.387 1.158 1.39.808 1.743-.149.149-.506-.26-.707-.149l.007-.004ZM77.093 65.54c-.007-.224.529.022 1.308.26.532.15 1.176.223 1.83.473.81.299 1.65.593 2.515.872 2.293.745 4.729 1.297 6.955.708 0 0 .186.779-1.475 1.17 0 0-.223-.034-.539.186-.395.261-.934.835-1.448 1.025-.563.224-2.127-1.24-4.202-2.348-.901-.48-2.004-.749-2.793-1.087-.838-.373-1.345-.786-1.657-.961-.224-.112-.492-.15-.496-.299h.002ZM98.248 57.407c.006-.075 2.453.499 3.451.074 0 0 2.99-5.486 2.848-6.34 0 0 1.993.428 1.282 1.922 0 0-1.709 2.742-1.635 3.81 0 0 1.206.014 1.247-.405 0 0 1.941-.262 2.023.223 0 0-.15.809-1.624 1.23 0 0-2.693.614-2.86 1.247 0 0-1.545 1.74-1.627 2.709 0 0 2.32 1.434 2.655 2.276 0 0 .681.63 2.003.946.704.187 2.055.15 2.774.075 0 0-.532.552-1.027.786-.388.187-.801.223-.801.447 0 0-1.415 1.36-2.637.392 0 0-.945-.477-1.492-2.079 0 0-1.188-2.396-1.948-2.27-.38.075-.8.843-1.34 1.595-1.564 2.176-3.891 3.469-6.278 4.625-.805.392-1.479.708-1.662.42 0 0 .619-.185 1.512-.848 1.59-1.188 3.903-3.234 4.659-4.83.975-1.247 1.493-2.093 1.932-2.704.414-.574.786-.939.532-1.36-.186-.298-.71-.38-1.198-.846-.459-.443-.794-1.028-.79-1.061v-.035ZM113.544 55.353c.298.148.577.499.908.887.429.495.865 1.042.816 1.527-.075.86-.779 1.032-1.102.636-.298-.335-.261-.975-.384-1.586-.112-.54-.261-1.13-.224-1.464h-.014ZM120.19 62.437s.953-.335 1.158.187c-.112.186-.406.652-.782 1.114-.186.224-.418.54-.618.54-.15 0-.809.149-.894-.112-.037-.148.298-.186.473-.373.112-.111-.012-.297.186-.42-1.117.626-1.765.574-2.115.42-.112-.036-.547-.394-.51-.532.032-.112.525.037 1.065-.032.785-.111 1.738-.45 2.047-.808l-.01.016ZM114.435 66.364s.335.335.919.335c.186.003.544-.185.89-.297.507-.15.652-.373 1.639-.839 0 0 1.087-.574 2.23-.954.335-.111.998-.185 1.456-.375.458-.187.569-.444.856-.425 1.266.074 1.728 1.46 1.587 1.46-.075 0-.716-.075-1.289.149-.841.335-1.78.574-2.267.223 0 0 .223-.074.859-.447-.009.011-1.56.037-1.306.403 0 0 .26 1.032.387 2.325.075.767.148 2.473.075 3.792-.037.6-.007 1.125-.224 1.453-.112.186-.487.224-1.009.01-.298-.112-.518-.399-.856-.578-.961-.506-2.168-1.077-3.113-1.65-.76-.462-1.341-.976-1.565-1.092 0 0 .995.57 2.141.827.656.15 1.304.15 1.769.223.682.112 1.069.262 1.33.112.372-.224.223-.722.223-1.311-.028-.64.298-3.921.373-3.95 0 0-.857.224-1.404.675-.663.562-1.62 1.117-1.866 1.072-.45-.075-1.366.299-1.571-.375.186.655-.224-.784-.224-.784l-.04.018ZM81.558 61.438c.112-.336.149-.95.372-1.326.187-.298.336-.45.496-.808 0 0-.002.562.112 1.21 0 0 .588-1.27 1.589-2.384 1.166-1.296 2.61-1.893 3.352-1.781.766.112.54 1.159.297 2.094-.42 1.553-.718 3.233-.98 4.877-.148.92-.334 1.792-.372 2.69 0 0-.666.484-.967-.112 0 0-.186-.845-.778-.618 0 0-.593.812-.783.111 0 0 .075-1.877.075-2.488 0 0-.779.297-.894-.261 0 0 .384-.876.764-1.714.372-.41.112-.648.112-.8-.002-.075.111-.112.412-.224 0 0 .187-.809-.111-.962 0 0-.581.842-1.099 1.628a5.83 5.83 0 0 0-.539 1.189c-.261.883.186 2.142-.15 2.694-.148.223-.625.111-.95-.224-.42-.435-.442-1.17.038-2.802l.004.01Zm2.986-2.831s1.977-1.766 2.484-1.573c0 0-.186 2.367-.55 3.693l-.444 2.172-.187 2.228s-.978.005-.941-.5c0 0-.004-.335.01-.86.01-.403.037-.883.186-1.219.112-.223.384-.335.537-.42.424-.697.532-.991.26-1.3-.112-.15-.715-.224-.886-.46-.15-.185.074-.856-.075-1.318-.075-.223-.297-.373-.405-.447l.011.004Z" clip-rule="evenodd"/><path fill="#C92B2F" fill-rule="evenodd" d="M115.882 56.805s.074-.455-.187-1.774c-.149-.69-.334-1.722-.838-2.82 0 0 1.188 1.248 1.937 2.462.335.544.224 1.278.488 1.442.372.223.506-.372.749-.708.297-.447.375-.864.442-1.107.149-.532-.149-.529-.699-1.486 0 0 .464-.224.926-.075 0 0 2.402-3.08 2.35-3.646 0 0-.037-.98-.298-1.085-.26-.111 2.171.901 1.758 2.142l-2.54 1.982c-.469.373-.774.697-.92.745 0 0 .403.026.66.112.111.037 1.943-.994 3.689-1.695 2.041-.82 4.042-1.155 3.516.074-.372.496-2.909 3.637-4.134 5.782-.41.716-.693 1.163-.581 1.413.075.149.372-.03.659-.112 1.285-.335 3.984-1.069 3.984-.335 0 0-.022.685-.51 1.226-.26.297-.692.462-1.203.774-.853.525-2.618.563-3.671.917-.861.298-1.732.64-2.588.544-.022-.03.391-.112 1.001-.38 1.166-.489 3.106-1.341 4.471-1.919.957-.406 1.262-.797 1.203-.913-.074-.149-.808.038-1.628.223-1.053.225-2.256.549-2.405.813 0 0-.186.186-.491.373-.425.26-1.005.398-1.282.074 0 0-1.444.514-2.658 1.107-.443.223-1.18.644-1.824 1.292-.652.652-1.244 1.71-1.799 2.337-.671.76-1.262 1.02-1.482.87 0 0-.521-.223.298-1.739.335-.633.89-1.538 1.825-2.734 0 0-1.803 2.664-1.65 3.491 0 0 .86-.768 1.638-1.584 1.46-1.523 2.104-1.975 4.175-2.973.48-.223.912-.48 1.281-.533-.149-.26-.028-.871-.26-1.072-.261-.224-.563-.15-.731-.261-.334-.224-.412-.559-.591-.51-.335.111-.57.535-.935.983-.261.298-.54.726-1.117.808.298-.398 1.43-1.788 1.266-2.377-.037-.148-.298-.186-.626-.186-.186-.01-.402-.112-.655.021l-.013.017Zm4.011-1.953c.148-.186.513-.186.595-.387.224-.537-.335-1.256-.585-1.08 0 0 .812-.444.965-.187 0 0 .458.585.655 1.2.187.544.112 1.113-.149 1.33 0 0-1.024.887-1.701 1.027-.112.025-.187-.26-.261-.506-.029-.111-.028-.26-.075-.298-.111-.027.075.794-.111.88-.336.148-.573.036-.503-.336.075-.298.767-1.118 1.158-1.676l.012.033Zm5.624-3.64c.224.224.038.56-.334 1.07-.372.48-.767 1.225-1.233 1.903-1.72 2.489-3.132 4.411-3.766 4.705-.224.112-.224-.335-.372-.782-.075-.26-.187-.6-.112-.808.075-.15.372-.15.726-.298.26-.112 1.802-.771 1.887-.906.388-.592-.027-1.486-.297-2.056-.384-.857-.998-.98-.786-1.203.409-.433 4.056-1.848 4.276-1.61l.011-.015ZM48.392 58.168s-.934-.187-.42-1.684c0 0 .298-.377.484-1.263a7.388 7.388 0 0 0 .15-2.176s.26.15.475.611c.15.297.15.856.261 1.26.075.223.112.416.298.461.112.029 2.07-1.118 2.223-1.252.149-.149.149-.298.224-.477.111-.298.26-.61.335-.927.149-.44.297-.887.372-1.431.03-.298.075-.614-.003-.946-.008-.031-.074-.038-.112-.075 0 0-.335-.335-.224-.532.075-.112.187-.112.384-.15.846-.112 1.669.719 1.925.999.224.26.074.604-.023.883-.15.533-.63 1.047-.63 1.52 0 0 .186.112.451.017.47-.149.986-.746 1.385-.753.26-.003.466.26.644.522.186.26.551.473.614.741.15.63-1.731 2.183-2.32 2.702-.371.297-.703.71-1.035.74-.149.017-.149-.111-.223-.335-.111-.186-.335-.477-.335-.819 0 0 .186.186.466.074.335-.149 1.064-1.4 1.277-1.803.111-.186.223-.399.223-.633.009-.186-.187-.111-.372-.075-.299.075-.753.299-1.2.868-.223.261-.446.63-.61 1.01-.074.186-.476 1.517-.823 2.456-.224.562-.458.919-.432.972 0 0 .038.149.15.149.222-.03.673-.224 1.377-.433.652-.223 1.548-.48 2.387-.819.473-.186.886-.492 1.317-.615a2.3 2.3 0 0 1 1.237.037c1.884.694-.466 1.778-1.37 1.818-.074.005-.54.112-.942.187-.648.148-.727.26-.298-.187.075-.074.075-.186.186-.297 0 0-1.393.372-2.49.715-.705.224-1.446.447-1.46.678 0 0 .334.335.64.652.666.707.73.458.38 1.255-.112.299-.66 1.48-.596 1.777.074.261.298.187.797.597.409.372.335.614.26.842-.149.372-.621.715-1.478.335-.149-.075-.26-.036-.335-.02-.335.075-2.107 2.313-2.402 2.63-.756.812-1.639 1.543-2.61 2.008-2.014.966-3.571.373-3.59.262-.003-.02-.148-.485-.036-.876.038-.15.075-.335.15-.335.149-.075.521.074.93.186.637.15 1.393.298 1.743.111 1.162-.625 2.22-1.683 3.046-2.563.752-.8 1.325-1.438 1.422-1.788.034-.112-.074-.186-.26-.224-.726-.185-1.18-.469-1.266-.905-.112-.622.223-1.382.555-2.023.372-.726.652-1.33.223-1.225-.387.074-.86.383-1.389.61-1.005.436-2.14.916-2.8 1.271-.842.454-1.441.905-1.564 1.013-.67.582-.95.812-1.701-.719-.262-.544-.224-.704.185-.842.4-.149.901.017 1.3-.149.526-.186 2.108-.96 3.642-1.516 1.444-.522 2.86-.842 3.11-1.103a3.44 3.44 0 0 0 .472-.771c.297-.66.484-1.502.648-2.426.074-.335.298-.712.111-.748-.111-.023-.26.186-.469.298-.595.335-1.623 1.36-1.992 1.911-.335.491-.009.372-.67.704l.021.033Zm2.071 3.797s.187-.995.477-1.408c.224-.335.491-.112.54.185.028.187-.074.299-.186.574-.034.075-.298.545-.41 1.021-.074.298.008.787-.298.98-.223.15-.462-.003-.499-.298-.028-.224.112-.574.387-1.031l-.01-.023ZM32.065 56.787c-.018 0-.85.418-1.512.388-.454-.021-.715-.298-.942-1.155 0 0 .447-.017 1.095-.26 2.126-.753 6.756-2.594 7.765-3.559 0 0 2.36.224 1.195 1.319 0 0-5.152 2.578-5.152 3.006 0 0 .462-.797.674-1.382 0 0-2.409.939-2.13 1.244 0 0 .15.112.373.224.636.261 1.039.5 1.188.842.149.298.074.694-.075 1.278-.223 1.002.298.745.838.261.48-.432.983-1.01 1.624-.824.223.075.335.299.622.604.185.224.454.372.454.679 0 .185-.187.424-.38.71-.298.496-.987 1.882-1.646 3.1-.223.4-.465.768-.667 1.092-.398.652-.785 1.237-1.574.473-.261-.26-.5-.655-.704-.909-.39-.477-.474-.376-.696.112-.075.149-.075.42-.15.544-.148.223-.297.298-.413.477-.074.112.019.26.186.335.26.112.73.075 1.136.075.373-.004.69.018.753.037.394.149.427.54.074.812-.15.112-.336.26-.6.462-.075.075-.335.298-.577.387-.26.075-.41.075-.444.075 0 0 .425-.391.451-.44.261-.477-.186-.477-.528-.394-.477.112-.98.335-1.248.112-.297-.262-.223-.772-.075-1.256.038-.15.56-1.156.336-1.219-.149-.034-.45-.074-.67-.223-.112-.074-.15-.417-.335-.686-.149-.185-.335.008-1.128.57-.462.336-.906.63-1.047.619 0 0 .112.462.26.98.15.454.373.972.336 1.427-.018.26-.15.45-.298.618-.149.186-.335.298-.581.26-1.315-.223-.8-3.088-.477-4.208.075-.298.075-.58.187-.536.074.029.111.224.186.462.074.297.074.614.26.622.15.005.905-.548 1.501-.999.372-.26.644-.477.711-.577.112-.15.038-.335.035-.838-.007-.224-.038-1.864.112-1.997.074-.075.297.186.528.61.15.261.298.63.473.828a.54.54 0 0 0 .51.148c-.149.033.596.013 1.028-.632.261-.388.223-1.126.298-1.853.149-1.072-1.143-1.873-1.158-1.873l.018.028Zm1.873 5.297s1.042-1.129.975-1.62c.76-.776 1.125-.95 1.203-.786.075.111-.075.45-.224.834-.148.432-.335.935-.48 1.3-.186.507-.297 1.137-.748 1.464-.804.6-1.452-.26-.719-1.192h-.007ZM27.291 76.08c.252.02.43.03.538.03.1 0 .276-.01.525-.03.1.171.207.347.326.53l.423.65c.118-.15.258-.337.422-.555l.463-.624c.144.02.243.03.295.03.116 0 .214-.01.295-.03v.031l-.561.636a55.36 55.36 0 0 0-.23.265l-.233.266-.23.268.082.112.301.44.297.43c.093.138.189.281.286.433.099.15.193.3.279.446-.059-.003-.144-.006-.257-.013a5.136 5.136 0 0 0-.258-.01 5.44 5.44 0 0 0-.262.01c-.115.007-.201.01-.255.013a18.27 18.27 0 0 0-.33-.524l-.457-.702-.552.695-.25.366a.81.81 0 0 1-.063.089.612.612 0 0 0-.056.076 9.013 9.013 0 0 0-.267-.022c-.111 0-.212.007-.306.022.11-.133.298-.36.563-.677.265-.317.5-.602.703-.856l-1.23-1.794Zm5.518.653-.02.454a8.228 8.228 0 0 0-.019.493c0 .141.006.316.019.526l.02.484c.003.082.01.202.022.361.011.16.02.28.023.357-.051-.003-.13-.006-.238-.013a4.596 4.596 0 0 0-.767.013c.055-.521.083-1.117.083-1.787v-.26c0-.105-.002-.218-.005-.34a10.896 10.896 0 0 0-.05-.94c.235.02.398.03.487.03.091 0 .254-.01.49-.03-.025.289-.039.507-.045.652Zm2.206-.293a.574.574 0 0 1-.119.014.548.548 0 0 1-.304-.096.305.305 0 0 1-.131-.263c0-.17.08-.282.242-.336a.805.805 0 0 1 .249-.037c.189 0 .327.06.415.179.05.083.074.172.074.268a.88.88 0 0 1-.296.66 1.097 1.097 0 0 1-.582.268v-.202a.637.637 0 0 0 .333-.195.352.352 0 0 0 .119-.26Zm-.17 2.932.442-.831c.512-.95.927-1.778 1.246-2.483a.91.91 0 0 1 .074.008 1.204 1.204 0 0 0 .158.014c.032 0 .07-.002.108-.008l.112-.014.048.082a80.886 80.886 0 0 0 1.57 3.17l.035.052v.046c-.06-.003-.145-.006-.257-.013a5.17 5.17 0 0 0-.259-.01 5.53 5.53 0 0 0-.499.023 15.023 15.023 0 0 0-.416-.995c-.074 0-.185-.002-.33-.007a10.107 10.107 0 0 0-.335-.008c-.155 0-.397.006-.728.015l-.027.068-.209.472a3.966 3.966 0 0 0-.17.455 1.769 1.769 0 0 0-.563 0v-.036Zm1.125-1.252h1.1c-.13-.296-.31-.675-.537-1.135-.214.397-.394.76-.543 1.092l-.02.043Zm4.44 1.28a1.892 1.892 0 0 0-.515.008 14.3 14.3 0 0 0 .088-1.085 29.42 29.42 0 0 0 .019-1.617 28.788 28.788 0 0 1-.005-.393c0-.1-.003-.177-.01-.233.132.02.22.03.27.03.053 0 .145-.01.275-.03.237.213.46.408.667.59l.694.601.654.57c.18.159.377.337.591.535v-1.614c0-.08-.007-.183-.017-.305a7.454 7.454 0 0 1-.022-.278l-.01-.099c.132.02.22.03.27.03.039 0 .087-.003.142-.01l.133-.013a2.997 2.997 0 0 0-.018.27c-.023.236-.04.44-.048.613-.003.102-.004.186-.008.248l-.014.23a9.674 9.674 0 0 0-.013.444v1.516a.217.217 0 0 0-.065-.007 1.289 1.289 0 0 0-.165-.008c-.111 0-.196.005-.257.015a49.835 49.835 0 0 0-1.97-1.787l-.648-.553c-.012.3-.018.516-.018.648v.451c0 .553.013.967.038 1.24l-.038-.006Zm6.045.553c.288-.046.442-.196.463-.448a8.6 8.6 0 0 0 .035-.815l.004-.438c.004-.192.005-.336.005-.428 0-.072.001-.18.005-.326l.004-.333-.004-.24a7.925 7.925 0 0 1-.005-.239 9.926 9.926 0 0 1-.018-.304 6.82 6.82 0 0 0-.02-.302c.25.02.417.03.5.03.108 0 .273-.01.497-.03-.023.281-.039.49-.045.629-.006.13-.009.327-.009.59-.008.042-.01.1-.01.18 0 .126.002.302.01.53.005.23.009.427.009.593v.296c0 .321-.062.564-.184.727-.236.32-.617.504-1.146.553l-.091-.225Zm3.973-3.22c-.003.104-.01.255-.02.454a9.065 9.065 0 0 0-.019.493c0 .141.007.316.019.526.01.21.017.372.02.484.003.082.011.202.022.361.011.16.02.28.023.357-.051-.003-.13-.006-.237-.013a4.621 4.621 0 0 0-.768.013c.055-.521.082-1.117.082-1.787v-.26c0-.105 0-.218-.004-.34a7.664 7.664 0 0 1-.005-.281 11.443 11.443 0 0 0-.045-.66c.236.02.399.03.487.03.091 0 .255-.01.49-.03-.025.29-.039.508-.045.653Zm1.305 2.639.44-.831a39.64 39.64 0 0 0 1.247-2.483.84.84 0 0 1 .074.008 1.344 1.344 0 0 0 .158.014c.033 0 .07-.002.108-.008l.112-.014.048.082a80.606 80.606 0 0 0 1.57 3.17l.035.052v.046c-.058-.003-.145-.006-.257-.013a5.108 5.108 0 0 0-.258-.01c-.168 0-.334.008-.5.023a14.452 14.452 0 0 0-.416-.995c-.074 0-.184-.002-.331-.007a10.016 10.016 0 0 0-.334-.008c-.155 0-.396.006-.727.015l-.028.068-.208.472a3.963 3.963 0 0 0-.17.455 1.761 1.761 0 0 0-.563 0v-.036Zm1.124-1.252h1.1a29.83 29.83 0 0 0-.537-1.135c-.214.397-.394.76-.543 1.092l-.02.043Zm7.556.922c-.442.303-.994.456-1.654.456-.69 0-1.234-.162-1.635-.486-.393-.308-.59-.725-.59-1.249 0-.538.237-.97.712-1.302.449-.3.999-.448 1.652-.448.551 0 1.015.109 1.393.33.315.183.53.392.646.627.124.237.185.494.185.772 0 .248-.061.486-.184.713a1.716 1.716 0 0 1-.525.587Zm-.546-.39c.174-.262.26-.596.26-1.002 0-.22-.045-.437-.135-.645a1.164 1.164 0 0 0-.42-.51c-.192-.131-.429-.197-.713-.197-.263 0-.489.054-.674.164a1.123 1.123 0 0 0-.422.403c-.155.255-.232.602-.232 1.04 0 .224.043.435.13.632.088.197.227.358.416.482.19.124.426.185.71.185.456 0 .816-.183 1.08-.552Zm4.203-1.854c0 .136-.003.338-.01.608-.006.269-.01.47-.01.603 0 .068.002.17.005.308.004.136.005.24.005.314 0 .082.005.213.014.388.01.176.014.305.014.389l-.235-.013a5.145 5.145 0 0 0-.255-.01c-.051 0-.131.004-.24.01-.109.007-.19.01-.247.013.004-.079.01-.193.02-.347a45.769 45.769 0 0 0 .055-1.993c-.001-.144-.007-.35-.02-.62-.117 0-.292.004-.528.014-.224.016-.419.035-.581.052a.557.557 0 0 0 .028-.201c0-.08-.004-.137-.01-.173a.107.107 0 0 1-.009-.03.15.15 0 0 0-.01-.03 41.939 41.939 0 0 0 1.542.03h.62c.104 0 .254-.004.45-.014.195-.01.355-.016.482-.016a.7.7 0 0 0-.026.197c0 .075.007.156.026.237a8.485 8.485 0 0 0-1.062-.066l-.018.35Zm5.969 2.244c-.442.303-.994.456-1.654.456-.69 0-1.234-.162-1.634-.486-.395-.308-.59-.725-.59-1.249 0-.538.236-.97.711-1.302.448-.3.999-.448 1.65-.448.553 0 1.017.109 1.395.33.314.183.53.392.647.627.123.237.184.494.184.772 0 .248-.061.486-.184.713a1.725 1.725 0 0 1-.525.587Zm-.546-.39c.173-.262.26-.596.26-1.002 0-.22-.046-.437-.135-.645a1.16 1.16 0 0 0-.421-.51c-.191-.131-.428-.197-.713-.197-.262 0-.487.054-.674.164a1.13 1.13 0 0 0-.422.403c-.154.255-.23.602-.23 1.04 0 .224.042.435.13.632.087.197.226.358.415.482.19.124.426.185.709.185.457 0 .817-.183 1.08-.552Zm3.073.749a1.89 1.89 0 0 0-.514.007c.042-.348.07-.71.087-1.085a29.169 29.169 0 0 0 .015-2.01c0-.1-.003-.177-.01-.233.131.02.22.03.268.03.054 0 .146-.01.276-.03.238.213.46.408.667.59l.694.601c.255.222.474.411.654.57.18.159.377.337.591.535v-1.614c0-.08-.006-.183-.016-.305a8.446 8.446 0 0 1-.023-.278l-.008-.099c.13.02.22.03.267.03.04 0 .088-.003.143-.01l.135-.013a2.76 2.76 0 0 0-.02.27c-.022.236-.04.44-.047.613l-.008.248a13.574 13.574 0 0 0-.028.673v1.517a.207.207 0 0 0-.064-.007 1.314 1.314 0 0 0-.166-.008c-.111 0-.196.005-.257.015a49.906 49.906 0 0 0-1.97-1.787l-.647-.553c-.012.3-.019.516-.019.648v.451c0 .553.013.967.038 1.24l-.038-.006Zm8.26-2.587c-.275-.32-.669-.48-1.181-.48-.493 0-.886.173-1.184.516-.22.266-.33.6-.33 1.003 0 .204.046.405.137.604.09.198.223.355.397.473.109.07.201.119.275.145.074.027.187.056.335.086.136.02.24.03.314.03.108 0 .243-.012.407-.038a.733.733 0 0 0 .13-.019.347.347 0 0 0 .11-.032.074.074 0 0 0 .009-.026c.003-.013.006-.021.009-.021v-.372a9.67 9.67 0 0 0-.039-.755 4.531 4.531 0 0 0 .933 0c-.03.224-.044.488-.044.793 0 .123.005.306.017.545-.625.14-1.149.21-1.567.21a4.12 4.12 0 0 1-.918-.1 2.552 2.552 0 0 1-.769-.304 1.56 1.56 0 0 1-.524-.514 1.345 1.345 0 0 1-.19-.72c0-.29.063-.55.188-.776.127-.228.302-.417.53-.57.226-.154.49-.268.79-.343.302-.076.627-.113.973-.113.535 0 1.015.097 1.44.29a3.58 3.58 0 0 0-.165.488h-.082Zm7.158-.023c0 .05 0 .13-.004.239a11.74 11.74 0 0 0-.004.241c0 .06-.003.148-.01.268-.005.12-.009.21-.009.268-.012.375-.052.663-.12.868-.067.204-.24.383-.518.538-.293.17-.671.255-1.136.255-.26 0-.506-.025-.74-.076a1.725 1.725 0 0 1-.615-.257.984.984 0 0 1-.425-.744 2.15 2.15 0 0 1-.019-.335c0-.1 0-.207-.004-.325a7.355 7.355 0 0 1-.006-.274v-.613l-.004-.277a11.247 11.247 0 0 1-.006-.277c0-.021 0-.056-.004-.102a2.136 2.136 0 0 1-.005-.108c.237.02.402.03.498.03.099 0 .26-.01.48-.03 0 .026-.004.064-.01.118l-.017.122c-.028.424-.044.802-.044 1.137 0 .442.012.749.035.92.037.142.075.252.114.329.04.075.111.15.209.224.181.139.41.21.686.21.278 0 .498-.047.664-.138.165-.091.302-.241.407-.448.068-.144.101-.48.101-1.007 0-.653-.014-1.14-.047-1.466.145.02.245.03.303.03.06 0 .163-.01.307-.03a2.113 2.113 0 0 0-.019.145l-.016.195a6.425 6.425 0 0 0-.008.175l-.014.195Zm2.171 2.61a1.871 1.871 0 0 0-.514.007c.043-.348.07-.71.088-1.085a30.873 30.873 0 0 0 .014-2.01c0-.1-.003-.177-.01-.233.131.02.22.03.268.03.054 0 .146-.01.277-.03.237.213.46.408.667.59l.694.601.654.57c.18.159.376.337.591.535v-1.614c0-.08-.007-.183-.017-.305a6.18 6.18 0 0 1-.022-.278l-.01-.099c.131.02.22.03.268.03.04 0 .088-.003.144-.01l.133-.013a2.96 2.96 0 0 0-.018.27c-.023.236-.04.44-.047.613l-.008.248a13.699 13.699 0 0 0-.023.482c-.003.075-.006.139-.006.191v1.517a.207.207 0 0 0-.064-.007 1.297 1.297 0 0 0-.165-.008c-.112 0-.197.005-.258.015a49.274 49.274 0 0 0-1.97-1.787l-.647-.553c-.013.3-.019.516-.019.648v.451c0 .553.014.967.039 1.24l-.039-.006Zm5.752-2.668-.021.454a8.938 8.938 0 0 0-.018.493c0 .141.006.316.018.526.01.21.017.372.02.484.003.082.01.202.022.361.012.16.02.28.023.357-.051-.003-.13-.006-.237-.013a4.614 4.614 0 0 0-.768.013c.055-.521.084-1.117.084-1.787v-.26c0-.105-.002-.218-.006-.34a10.896 10.896 0 0 0-.05-.94c.235.02.398.03.488.03.09 0 .254-.01.489-.03-.025.289-.039.507-.044.652Zm3.51 2.675c-.028-.003-.071-.006-.131-.013a1.484 1.484 0 0 0-.138-.01c-.094 0-.183.008-.269.023a59.82 59.82 0 0 0-.76-1.63 87.62 87.62 0 0 0-.846-1.698c.25.02.425.03.529.03.102 0 .277-.01.524-.03.092.251.194.5.303.747.11.247.238.53.389.85.15.32.278.595.38.825.466-.911.84-1.718 1.125-2.421.017.004.031.006.04.007l.024.007c.216 0 .376-.006.481-.014-.159.302-.349.672-.575 1.106-.224.434-.426.836-.605 1.203a26.32 26.32 0 0 0-.47 1.018Zm2.819-3.328c.107.003.259.008.456.017.197.009.362.013.491.013.203 0 .445-.003.722-.01.278-.007.49-.01.638-.013-.006.081-.009.2-.009.36a.161.161 0 0 1 .009.06c-.586-.04-1.043-.06-1.369-.06-.006.115-.01.285-.01.51l-.004.268c-.003.12-.005.209-.005.268l1.368-.036c-.024.1-.036.174-.036.223 0 .044.012.107.036.188a17.518 17.518 0 0 0-1.072-.037c-.03 0-.078-.002-.145-.005-.066-.002-.117-.002-.151-.002v1.23c.369 0 .833-.02 1.388-.063a5.147 5.147 0 0 0-.009.357.165.165 0 0 1 .009.06c-.12-.003-.3-.007-.541-.016-.24-.009-.421-.012-.541-.012-.08 0-.199.002-.358.006-.16.004-.277.007-.353.007-.11 0-.289.005-.535.015a3.82 3.82 0 0 0 .011-.141 1.82 1.82 0 0 1 .01-.137c.002-.092.007-.24.015-.446.008-.206.01-.36.01-.463 0-.08.002-.203.005-.366.003-.164.005-.287.005-.368v-.569a6.62 6.62 0 0 0-.016-.385c-.011-.172-.017-.3-.019-.385v-.067Zm4.801 2.072a7.003 7.003 0 0 0-.176-.247c-.015-.02-.03-.03-.048-.03-.018 0-.027.01-.027.03 0 .095.003.237.009.43.006.192.01.335.01.43v.133c.005.131.021.3.046.51-.054-.003-.136-.006-.245-.013a4.828 4.828 0 0 0-.243-.01c-.053 0-.134.004-.245.01-.111.007-.193.01-.243.013l.009-.09.006-.12.008-.096.012-.105c.019-.208.028-.53.028-.957 0-.097-.002-.244-.005-.44l-.004-.442c0-.23-.012-.587-.035-1.078l.413.015c.094 0 .237-.003.428-.008.191-.004.335-.007.431-.007.48 0 .803.033.969.1.353.164.528.4.528.71a.74.74 0 0 1-.25.571c-.167.152-.395.251-.683.302.154.224.506.68 1.062 1.367l.211.278c-.059-.003-.149-.006-.272-.013a6.194 6.194 0 0 0-.273-.01c-.177 0-.358.008-.543.023l-.692-.995-.186-.261Zm-.232-.838c0 .155-.004.272-.01.353.327 0 .565-.057.713-.171.148-.116.222-.29.222-.526a.982.982 0 0 0-.027-.245.46.46 0 0 0-.123-.22.47.47 0 0 0-.2-.108 1.351 1.351 0 0 0-.273-.032 28.573 28.573 0 0 1-.302-.007v.956Zm5.284-.575c-.13-.276-.36-.413-.693-.413-.198 0-.358.042-.479.129a.403.403 0 0 0-.176.335c0 .115.061.213.183.295.123.084.316.18.58.29.263.112.472.21.626.297.154.086.263.19.328.315.067.115.102.26.102.433a.905.905 0 0 1-.138.456c-.119.2-.333.358-.638.471a2.243 2.243 0 0 1-.811.129c-.374 0-.697-.068-.969-.203.088-.243.144-.447.173-.614h.113a.64.64 0 0 0 .292.38c.15.092.328.137.537.137a.92.92 0 0 0 .499-.127.4.4 0 0 0 .204-.36c0-.136-.073-.26-.222-.372a4.555 4.555 0 0 0-.675-.308 3.619 3.619 0 0 1-.269-.13 7.238 7.238 0 0 0-.21-.109.695.695 0 0 1-.302-.307.93.93 0 0 1-.105-.425c0-.316.153-.57.454-.763.139-.09.278-.154.418-.188a2.26 2.26 0 0 1 .513-.051c.346 0 .646.065.897.193.005.009.019.019.044.031-.062.152-.124.312-.184.479h-.092ZM114.816 76.733c-.003.104-.011.255-.02.454a8.553 8.553 0 0 0-.019.493c0 .141.007.316.019.526.009.21.017.372.02.484.002.082.01.202.022.361l.023.357c-.051-.003-.13-.006-.237-.013a4.638 4.638 0 0 0-.768.013c.055-.521.082-1.117.082-1.787v-.26c0-.105 0-.218-.004-.34a9.585 9.585 0 0 0-.051-.94c.236.02.399.03.488.03.091 0 .254-.01.49-.03-.025.29-.039.507-.045.652Zm3.343.065c0 .136-.003.338-.009.608-.007.27-.01.47-.01.603 0 .068.002.17.005.308.003.136.005.24.005.314 0 .082.004.213.013.388.01.176.014.305.014.389l-.235-.013a5.162 5.162 0 0 0-.254-.01c-.053 0-.133.004-.24.01-.109.007-.19.01-.247.013.002-.079.008-.193.019-.347a46.423 46.423 0 0 0 .054-1.993c0-.144-.007-.35-.019-.62-.116 0-.292.004-.527.014-.224.016-.419.035-.582.052a.544.544 0 0 0 .028-.201c0-.08-.003-.136-.009-.173-.004-.004-.006-.015-.01-.03a.084.084 0 0 0-.009-.03 41.49 41.49 0 0 0 1.542.03h.62c.103 0 .254-.004.449-.014.196-.01.356-.016.482-.016a.714.714 0 0 0-.026.197c0 .075.007.156.026.237a8.49 8.49 0 0 0-1.062-.066l-.018.35Zm2.535-.688c.109 0 .288-.01.533-.03l.127.214a18.606 18.606 0 0 0 .4.67c.057.094.139.236.251.425a.866.866 0 0 0 .12.158l-.004-.003a.59.59 0 0 1 .105-.095c.034-.042.068-.093.1-.15.073-.103.19-.295.352-.574.06-.094.134-.226.22-.397l.077-.14c.028-.051.048-.085.062-.108a.19.19 0 0 0 .031.008.172.172 0 0 1 .034.008 2.002 2.002 0 0 0 .498-.015 41.25 41.25 0 0 1-.595.865c-.29.412-.506.74-.651.982-.013.248-.019.434-.019.56 0 .158.022.464.067.92-.056-.003-.142-.006-.258-.013a5.381 5.381 0 0 0-.261-.01c-.171 0-.341.008-.508.023.045-.354.066-.723.066-1.106.006-.065.01-.157.01-.278a10.617 10.617 0 0 1-.323-.459c-.104-.15-.21-.31-.318-.479a124.02 124.02 0 0 1-.339-.53c-.12-.183-.224-.343-.314-.475.249.02.428.03.537.03Z" clip-rule="evenodd"/></g><defs><filter id="a" width="154" height="157" x="0" y="0" color-interpolation-filters="sRGB" filterUnits="userSpaceOnUse"><feFlood flood-opacity="0" result="BackgroundImageFix"/><feColorMatrix in="SourceAlpha" result="hardAlpha" values="0 0 0 0 0 0 0 0 0 0 0 0 0 0 0 0 0 0 127 0"/><feOffset dy="16"/><feGaussianBlur stdDeviation="6.5"/><feColorMatrix values="0 0 0 0 0 0 0 0 0 0 0 0 0 0 0 0 0 0 0.03 0"/><feBlend in2="BackgroundImageFix" result="effect1_dropShadow_185_94"/><feBlend in="SourceGraphic" in2="effect1_dropShadow_185_94" result="shape"/></filter></defs></svg>