<svg xmlns="http://www.w3.org/2000/svg" width="154" height="157" fill="none"><g filter="url(#a)"><path fill="#fff" d="M13 0h128v128H13z"/><path fill="#89030A" d="M54.544 63.784c.142 7.426-6.157 14.027-14.224 13.786-7.074-.213-13.495-6.127-13.316-14.164.16-7.218 6.186-13.441 13.877-13.406 7.482.035 13.782 6.256 13.663 13.784ZM40.78 77.115c7.439-.119 13.16-5.843 13.306-13.02.157-7.722-5.874-13.49-13.026-13.614-7.655-.133-13.577 5.876-13.583 13.282-.006 7.441 5.857 13.232 13.303 13.352Z"/><path fill="#89030A" d="m30.404 68.733.61-.78.17.343-.406.475.625-.035.17.339-.997.006-.633.821-.171-.345.428-.509-.666.03-.165-.33 1.035-.016ZM31.747 69.332l.184.287-1.54.983-.184-.287 1.54-.983ZM32.171 69.993l.22.272-.696 1.174.989-.81.201.249-1.42 1.146-.22-.27.697-1.176-.99.811-.202-.249 1.421-1.147ZM32.508 72.266l-.149.157c-.066.07-.07.131-.012.186.078.073.131.026.242-.09l.946-1.002.242.228-.882.934c-.117.124-.202.214-.278.245-.15.06-.295.019-.45-.127-.206-.193-.212-.4-.013-.61l.129-.136.225.215ZM34.088 72.005l.267.21-1.13 1.435-.268-.21 1.131-1.435ZM34.932 72.627l.386.244-.624 1.766-.31-.195.17-.436-.331-.21-.32.342-.294-.186 1.323-1.325Zm-.273 1.12.285-.725-.53.57.245.155ZM36.026 73.273l.32.14-.073 1.362.5-1.176.295.127-.73 1.675-.317-.138.071-1.366-.501 1.179-.294-.128.729-1.675ZM38.025 75.697c-.113.154-.24.191-.442.14-.407-.105-.425-.436-.25-1.111.082-.322.167-.533.281-.635.132-.12.298-.145.519-.088.379.097.51.317.413.696l-.012.045-.309-.079.005-.018c.055-.211.003-.34-.153-.38-.246-.063-.303.147-.427.629-.113.44-.127.638.07.688.181.046.273-.058.344-.33l.016-.062-.229-.058.073-.282.545.141-.248.965-.224-.057.028-.204ZM40.17 74.364l-.044 1.23c-.008.253.03.364.223.37.192.008.234-.102.243-.357l.042-1.226.335.012-.043 1.26c-.006.175-.016.306-.105.414-.102.123-.263.182-.487.175-.435-.016-.565-.197-.549-.63l.044-1.259.341.01ZM41.503 74.369l.347-.043.628 1.211-.165-1.267.318-.038.221 1.813-.345.043-.63-1.213.165 1.27-.318.039-.221-1.815ZM43.067 74.13l.33-.078.423 1.777-.33.079-.423-1.777ZM43.7 73.989l.344-.122.74 1.284-.253-1.456.339-.12.245 1.85-.421.149-.994-1.585ZM45.236 73.406l.833-.432.14.27-.534.276.195.375.495-.256.133.256-.496.256.23.447.546-.281.142.274-.845.437-.84-1.623ZM46.464 72.737l.497-.353c.298-.213.504-.188.7.089.139.194.145.36.023.476.242-.091.315.018.457.205l.148.192c.073.095.139.152.234.168l-.33.234a1.065 1.065 0 0 1-.19-.214l-.116-.153-.028-.04c-.138-.194-.241-.167-.44-.027l-.094.068.465.654-.267.19-1.06-1.489Zm.876.326c.16-.114.174-.208.055-.374-.113-.158-.211-.15-.38-.03l-.136.097.3.421.16-.114ZM48.792 72.414l.082.084c.136.142.224.188.336.08.105-.1.107-.207.01-.308-.091-.095-.182-.091-.352-.066l-.212.032c-.28.045-.428.056-.607-.13-.213-.22-.2-.489.029-.71.243-.234.509-.227.75.023.015.016.031.032.044.049l-.233.224-.034-.036c-.135-.14-.234-.159-.342-.054-.08.075-.08.17 0 .252.081.084.177.066.333.038l.222-.039c.284-.051.443-.033.629.16.23.237.221.508-.035.755-.264.254-.521.243-.791-.038a1.806 1.806 0 0 1-.073-.083l.244-.233ZM48.768 70.738l.219-.26 1.397 1.176-.22.26-1.396-1.176ZM49.641 70.116l-.222.322-.248-.171.64-.924.247.172-.222.322 1.255.868-.194.28-1.256-.869ZM51.086 69.199l-1.155-.049.17-.336.738.064-.49-.554.166-.326.725.896.691.351-.155.306-.69-.352ZM31.162 64.168c-.005-3.012.901-5.264 2.732-7.126 2.012-2.047 4.473-2.942 7.338-2.863 4.721.129 9.313 4.238 9.15 9.936-.14 4.882-4.273 9.446-9.962 9.282-4.96-.142-9.368-4.36-9.258-9.23Zm6.213-5.462c-.522-.172-1.042-.242-1.58-.162-.59.088-1.114.313-1.54.728-.592.58-.823 1.3-.764 2.123.038.52.195.994.467 1.435.23.373.519.689.887.94a2.884 2.884 0 0 0-1.237 3.885c.598 1.126 2.132 1.948 3.77 1.207.286 1.71 1.557 2.763 3.024 2.932a3.252 3.252 0 0 0 2.13-.477c.91-.568 1.443-1.395 1.616-2.453 1.52.517 2.973-.11 3.604-1.173.33-.557.428-1.162.32-1.796-.152-.89-.611-1.589-1.358-2.104 1.629-.875 1.82-2.738 1.26-3.808a2.842 2.842 0 0 0-1.215-1.243c-.853-.446-1.724-.442-2.599-.05-.273-1.73-1.755-3.03-3.553-2.951-1.556.068-2.973 1.229-3.232 2.967Z"/><path fill="#89030A" d="M38.89 69.158v-.16h.02c.192 0 .28-.053.298-.202h.183v1.146h-.226v-.784h-.274ZM40.148 69.573c-.225 0-.373-.146-.373-.374 0-.242.16-.403.402-.403.28 0 .428.195.428.566 0 .4-.163.614-.453.614-.203 0-.334-.113-.346-.294h.23c.01.074.057.11.142.11.116 0 .175-.1.184-.3a.279.279 0 0 1-.214.081Zm.03-.592c-.104 0-.168.076-.168.21 0 .126.065.197.177.197.11 0 .175-.071.175-.193 0-.133-.073-.214-.184-.214ZM41.034 69.465c.167-.112.289-.163.289-.314 0-.1-.065-.163-.17-.163-.113 0-.181.071-.181.207v.01h-.212c0-.264.148-.41.407-.41.24 0 .389.141.389.352 0 .18-.095.272-.268.39-.138.093-.239.14-.263.207h.52v.196h-.804c.002-.222.096-.343.293-.475ZM42.195 69.695h-.483v-.202l.422-.665h.284v.684h.133v.183h-.133v.247h-.223v-.247Zm.005-.669-.312.491h.312v-.49ZM42.066 67.085c-.251 0-.493.006-.734-.006-.035-.001-.09-.088-.09-.136-.008-.349-.004-.698-.004-1.06h-.848v1.202c-.268 0-.52.003-.771-.003-.026-.002-.07-.059-.07-.091-.004-.315-.003-.63-.003-.96.06-.005.11-.001.155-.017.033-.011.057-.047.085-.072-.025-.023-.05-.065-.076-.065a15.981 15.981 0 0 0-.762 0c-.035.002-.069.06-.14.122.135.014.216.021.315.03 0 .327.003.648-.003.968-.002.03-.06.086-.092.086-.816.005-1.633.004-2.46.004v-1.668h8.443v.35c0 .39-.001.78.001 1.17 0 .087-.004.151-.123.15-.767-.004-1.535-.002-2.303-.004-.015 0-.031-.008-.055-.014v-1.05c.046-.002.088.005.122-.008.038-.015.07-.048.103-.073-.037-.023-.074-.065-.111-.066a10.275 10.275 0 0 0-.643 0c-.046.001-.09.048-.135.073.043.023.084.047.128.067.018.008.042.007.072.01v1.061ZM44.574 63.951v1.33H36.98c-.003-.042-.01-.09-.01-.14 0-.298-.002-.598 0-.897.003-.327-.045-.291.302-.293H44.574ZM39.102 61.881h1.236c.454 0 .454 0 .454-.462l.001-.694c0-.011.004-.022.01-.05l.15-.016v1.214h1.522v1.017h1.248v.985h-5.907c0-.3-.005-.59.006-.882.001-.033.09-.09.14-.091.327-.009.655-.01.981-.002.13.004.166-.04.16-.165-.005-.274 0-.551 0-.854ZM34.27 65.669c-.024-.288-.024-.29.231-.29h1.837v1.662h-2.07V65.85h.918c.045-.14-.001-.185-.13-.182-.257.004-.516 0-.787 0ZM47.267 65.666h-.814l-.011.22c.226 0 .443.006.66-.003.134-.006.189.028.184.176-.01.325-.004.65-.004.986h-2.038V65.38h1.814c.245.001.245.001.209.287ZM41.212 57.376c.13.194.243.362.353.532.071.113.138.228.205.345.055.095.113.098.181.015l.18-.223 1.239 2.295c-.46-.447-.91-.91-1.238-1.486-.063.03-.107.048-.15.07-.138.069-.216.023-.297-.107-.119-.187-.27-.351-.426-.548-.066.092-.144.172-.189.268-.193.408-.48.75-.771 1.089-.042.05-.102.086-.15.13-.074.066-.124.037-.187-.023-.1-.101-.223-.183-.318-.288-.12-.135-.19-.043-.267.038-.171.18-.324.38-.514.539a3.82 3.82 0 0 1-.636.415c-.101.055-.236.044-.356.063l-.023-.045c.06-.05.115-.103.178-.147.42-.296.836-.596 1.168-.996.098-.119.211-.227.304-.35.08-.104.157-.11.253-.03.06.05.131.09.182.148.112.127.206.089.31-.01.28-.27.477-.59.63-.943.101-.243.216-.481.34-.751ZM51.591 62.717c.026.07.063.124.056.169-.02.124-.024.27-.096.36-.084.105-.227-.01-.236-.188l-.02-.385c-.173.022-.302.037-.43.055-.22.03-.37-.162-.287-.379.107-.278.219-.554.334-.827.02-.049.06-.105.105-.125.094-.044.127.013.157.107.104.315.219.626.336.937.018.049.062.087.13.178.034-.13.05-.212.079-.287.015-.04.056-.07.083-.106.03.034.067.065.084.104.099.224.188.452.288.675.023.051.068.093.103.139l.054-.019c-.011-.064-.009-.133-.035-.19-.091-.197-.206-.386-.288-.586a.938.938 0 0 0-.487-.504c-.128-.06-.214-.126-.141-.28.002-.005 0-.012 0-.018.006-.109-.059-.291.097-.288.124.003.255.134.363.23.08.07.128.179.187.267l.69-.32.03.014c-.087.124-.172.25-.268.389.112.154.255.047.388.014.14-.035.281-.077.449-.123-.044.086-.084.17-.129.251-.01.018-.035.03-.048.046-.178.236-.224.277.106.397.382.14.383.139.48.293-.13.068-.27.202-.383.184-.124-.02-.225-.182-.34-.286-.063.193-.002.323.206.441.085.049.155.095.129.207-.014.055-.027.151-.053.155-.065.01-.169.004-.2-.039-.11-.147-.265-.169-.42-.206-.116-.028-.181-.004-.17.125.01.105-.026.2-.13.19-.06-.007-.124-.102-.164-.17-.13-.22-.213-.48-.486-.578-.033-.01-.065-.01-.123-.023Zm-.6-.858c-.051.075-.079.098-.086.126a5.77 5.77 0 0 0-.078.382c-.007.048-.001.138.013.141a.816.816 0 0 0 .3.026c.038-.006.099-.117.085-.157-.058-.164-.142-.318-.234-.518Zm.606-.25.685.94c-.029-.451-.448-1.005-.685-.94Zm1.453 1.498c-.112-.2-.248-.324-.46-.337-.033-.002-.082.027-.098.055-.01.018.02.083.045.094.16.064.325.12.513.188Zm-.916-1.173.284.213c-.03-.272-.071-.304-.284-.213ZM49.468 55.824c-.1.034-.204.058-.297.104-.116.058-.215-.01-.233-.155.222-.229.45-.112.678.019l.013-.06c-.052-.056-.119-.104-.153-.168-.025-.049-.01-.12-.013-.181.052.003.129-.013.15.015.239.29.566.449.88.63.055.031.087.113.113.177.005.012-.075.085-.105.079a.494.494 0 0 1-.203-.099c-.11-.09-.205-.2-.315-.29-.027-.022-.089 0-.134.001.017.043.024.095.054.126.04.042.098.07.154.109-.13.22-.301.23-.516.102.003.073.004.112.008.174l-.22-.042.044.21-.01.054c-.313-.284-.49-.01-.724.134.067.026.125.04.168.072.034.027.05.078.073.12-.044.016-.094.056-.13.047a.478.478 0 0 1-.221-.112c-.163-.18-.382-.243-.596-.325-.066-.027-.116-.12-.15-.192-.01-.021.067-.113.105-.116.063-.003.13.037.19.07.068.036.125.094.196.125.046.019.117.025.159.003.127-.07.245-.155.368-.234-.057-.084-.176-.086-.304.003-.076.054-.165.09-.248.132-.109-.234.063-.325.193-.483-.082.022-.122.027-.157.044-.141.066-.28.135-.418.204-.102.051-.162.027-.196-.089-.034-.112-.087-.22-.14-.348.19-.068.191-.283.26-.473.067.048.12.101.185.127.06.023.139.038.196.02.198-.069.195-.076.206.138.001.015.006.031.012.058.1.006.158-.02.116-.131-.045-.117.01-.144.11-.133.108.012.193.006.226-.13.01-.045.1-.093.157-.097.116-.007.234.018.352.02.051 0 .102-.023.139-.033-.032-.118-.07-.216-.08-.316-.003-.037.061-.08.095-.12.032.031.065.06.094.094l.432.518c-.018.098-.117.124-.228.102-.147-.03-.29-.077-.435-.117-.13-.036-.258-.09-.334.095-.017.043-.113.053-.174.077-.056.02-.113.037-.18.06.06.087.112.162.178.254l-.39.23c.19.145.29.143.457.001.09.132.19.177.33.049.055-.05.15-.055.228-.08-.004-.026-.01-.05-.015-.073Zm-1.71.071c.106.146.26.105.386-.093l-.387.093ZM51.054 58.88c.112.06.22.13.337.178.065.028.176-.02.169.106-.004.063-.024.148-.067.182-.082.061-.18.082-.275-.007-.146-.136-.3-.262-.464-.406-.287.378-.259.835-.325 1.313-.144-.251-.336-.45-.305-.718.03-.27.318-.372.498-.61-.113-.026-.198-.059-.285-.064-.428-.025-.7-.312-.727-.688.104.092.195.185.299.26.103.075.218.132.329.197l.034-.048c-.063-.086-.171-.17-.176-.26-.006-.092.088-.19.137-.282.122.152.227.294.343.425.1.114.233.146.382.117.218-.043.438-.072.651-.128a.74.74 0 0 0 .269-.155c.079-.066.138-.156.21-.238.155.116.155.292.1.425-.03.076-.196.114-.308.14-.266.06-.536.104-.804.154a1.863 1.863 0 0 0-.022.107ZM43.347 53.265c.157.065.3.12.443.181.188.08.378.068.575.038.105-.016.218.023.326.02.063-.002.124-.038.186-.059-.018-.053-.039-.107-.056-.161a.305.305 0 0 1-.008-.18l.233.183.11-.342c-.062-.02-.127-.032-.183-.062-.097-.054-.177-.13-.118-.253.046-.097.12-.143.206-.039.178.216.434.255.686.31.137.03.272.072.421.112-.087.159-.185.18-.318.116a.653.653 0 0 0-.208-.063c-.11-.012-.241-.034-.283.108-.042.147.042.23.224.27a23.458 23.458 0 0 0-.095-.221c.095-.06.439.008.482.114.013.028-.029.112-.057.119-.085.02-.177.016-.284.022-.02.103-.124.084-.227.092-.056.005-.108.053-.162.08.035.056.057.134.107.163.102.06.147.114.075.226-.019.03-.019.072-.033.129.242.046.476.087.706.138.047.011.084.062.127.094-.033.038-.063.102-.101.108a.462.462 0 0 1-.23-.024c-.157-.064-.203.01-.235.15a.708.708 0 0 1-.124.279c-.038.047-.171.085-.194.06-.052-.052-.1-.161-.078-.22.032-.09.129-.154.193-.233.037-.046.068-.1.102-.15-.062-.005-.128-.03-.185-.014-.096.026-.182.093-.278.112-.17.035-.302.046-.347-.192-.005-.023-.032-.043-.05-.066-.14.027-.15.279-.355.19-.194-.085-.02-.262-.097-.344l.226-.062c-.004-.022-.007-.044-.012-.065a.603.603 0 0 0-.44.032c-.19.095-.317.03-.356-.177.085 0 .169-.01.25.002.206.033.417-.097.621.017.012.008.062-.02.065-.037.004-.026-.009-.073-.028-.08-.061-.026-.127-.054-.19-.051-.236.006-.47.02-.706.035-.235.016-.346-.06-.326-.405Zm1.611.89.082.007.198-.297c-.15-.127-.263-.036-.332.048-.031.04.033.159.053.242Zm1.299-1.204c.096.039.245.01.341-.043.055-.03.095-.183.067-.251-.075-.185-.19-.355-.289-.53-.002-.005-.02 0-.047 0-.125.19-.074.558-.474.54.132.098.254.223.402.284Zm-.155 1.023c.087-.007.18.023.267.046.052.013.1.063.15.064.048.001.101-.032.14-.064.014-.011.002-.085-.017-.096-.089-.054-.18-.114-.28-.139-.234-.057-.47-.096-.712-.143.01.171.243.347.452.331ZM37.371 53.618c-.192.218-.43.262-.752.136-.152.308-.432.413-.766.323-.143.124-.254.232-.378.323-.093.068-.205.113-.308.17-.248.139-.383.123-.587-.083-.142.356-.33.677-.62.926-.087.073-.168.15-.258.219-.24.182-.498.128-.706-.125-.233-.285-.479-.558-.743-.866l.064-.373c.104.114.192.202.272.298.143.173.276.355.425.521.077.085.179.15.277.212.028.018.1.01.124-.014.28-.273.558-.551.833-.828.01-.01.008-.03.011-.047-.345-.025-.539.118-.697.54-.027-.174-.074-.308-.062-.438.022-.227.207-.32.401-.38.327-.103.656-.197.989-.297.079.19-.025.335-.24.434l.047.042c.223-.13.461-.24.664-.397.079-.06.08-.224.12-.349.135.054.282.22.506.13.252-.104.307-.166.31-.43.153.05.306.133.465.145.194.013.29-.135.316-.29.11.038.22.094.333.103.029.002.067-.148.106-.24.03.025.072.058.112.093.093.081.197.07.296.023.09-.041.1-.11.015-.165-.074-.048-.16-.077-.247-.116l.136-.318c.37.169.514.675.336.97-.101.167-.254.087-.39.042-.103.172-.15.185-.404.106ZM30.221 61.224c.059.166.052.305-.092.418-.028.022-.038.075-.041.116-.006.066.022.148-.006.2-.113.211.006.323.158.432.05.037.086.09.133.13.238.191.31.423.191.713-.036.09-.047.188-.078.315-.173-.41-.175-.855-.509-1.2-.04.129-.065.227-.1.323-.078.211-.178.255-.387.169a.629.629 0 0 1-.392-.408c-.07-.231.052-.42.289-.449.093-.012.251-.014.265-.057.039-.125.024-.268.022-.404-.002-.041-.03-.083-.032-.085.095-.074.225-.125.245-.204.023-.089-.053-.203-.09-.32.155 0 .294-.042.307-.233.003-.06-.014-.121-.021-.182-.056.015-.113.025-.168.044-.024.008-.042.031-.074.055-.02-.072-.04-.128-.05-.187-.019-.098-.032-.198-.047-.295.244-.06.46.055.563.314.177.432.173.654-.085.795Zm-.655 1.088-.047-.048c-.046.027-.123.045-.133.081-.02.077-.005.163-.004.246l.072.005.112-.284ZM31.883 55.383v.307l-.249-.026c-.005-.133-.062-.266.096-.361.035-.022.02-.126.03-.19l.033-.266.473.143-.13.078c.001.016-.003.03.002.034.208.222.415.445.625.663.132.139.235.288.203.491a.627.627 0 0 1-.08.25c-.195.274-.401.538-.618.826-.071-.14-.143-.268-.198-.402-.013-.034.015-.097.042-.133.165-.226.331-.452.505-.67.057-.073.072-.122 0-.184l-.681-.592-.053.032ZM31.131 58.29c-.357-.038-.523.197-.727.394-.049-.136-.096-.26-.135-.387a.148.148 0 0 1 .018-.11c.148-.223.638-.284.831-.1.245.236.307.522.202.844-.021.063-.047.125-.072.187-.158.378-.408.408-.679.076.406-.158.398-.563.562-.905ZM30.848 60.175c-.33-.242-.646-.523-1.007-.722-.31-.172-.405-.39-.356-.712.004-.025.004-.052.009-.127.46.555 1.17.828 1.354 1.56ZM28.658 61.35c.092.233.174.45.266.664.04.091.011.127-.07.164-.182.083-.361.172-.542.26-.117-.196-.11-.226.068-.337.23-.143.23-.143.158-.42-.063-.237-.063-.237.12-.33Z"/><path fill="#89030A" d="M31.955 56.722c-.227-.16.074-.29-.01-.43-.215-.02-.285-.173-.165-.379.062-.105.148-.195.224-.293.077.086.077.086-.05.342.008.006.015.018.024.018.073.002.202-.017.209.004.03.1.066.225.03.312-.06.153-.172.286-.262.426ZM29.499 60.215c.028.11.064.211.073.313.003.04-.05.11-.09.122-.139.036-.193.086-.145.245.076.25.063.254-.227.37-.032-.111-.076-.22-.086-.332-.004-.04.073-.108.126-.127.124-.042.152-.117.127-.233-.059-.255-.059-.255.222-.358ZM31.651 56.039h-.285c.01-.11.039-.224.025-.332-.012-.1-.069-.193-.117-.317h.268v.284l.11.365ZM34.711 55.103c.334.03.36.063.312.417-.318.02-.397-.082-.312-.417Z"/><path fill="#89030A" d="M28.931 60.821c-.02-.123-.06-.228-.048-.328.008-.07.075-.164.138-.188.099-.038.135.044.153.142.055.278.087.208-.242.374ZM36.657 52.624l.13-.265.328.124-.113.283-.345-.142ZM37.126 52.48l.125-.262.316.136-.11.285a86.099 86.099 0 0 1-.331-.16ZM35.259 53.276l-.335-.092.084-.283.336.092-.085.283ZM37.198 52.147c-.04.085-.072.159-.112.249-.066-.022-.128-.038-.187-.063-.067-.029-.174-.045-.12-.154.04-.079.102-.166.22-.116.065.025.13.054.199.084Z"/><path fill="#89030A" fill-rule="evenodd" d="M64.287 59.53c-.034-.27.026-.738.316-.812 1.57.465 4.33-1.325 5.88-2.657.118.48.006.813-.338 1.293-1.14.434-1.907.998-2.304 1.693V60.3c1.907 1.188.95-1.594 2.004-1.927.657-.18 1.006.03 1.046.632-2.073 1.126-1.084 2.3-2.322 2.642v.813l.683.34c-1.199.12-1.223.86-1.138 2.025.347.581.88.478 1.32.718l.229-2.837c.703-.155 1.158.278 1.369 1.301 1.305-.963 2.937-3.005 3.825-2.938l-.322 1.205c-.13.809-1.249.507-1.549 1.252.307 1.155.567 2.262.504 3.418-.272.489-.729.487-1.093.29-.427-.756-.258-1.962.182-3.371l-1.234.44c-.402 1.165-.672 1.848-1.135 2.834-.7.136-1.337-.121-1.913-.77.118.753.12 1.508-.133 2.26-.552.169-1.824.35-2.098-.626.622-.635 1.25-1.034.682-1.538-.916.219-1.614 1.051-2.28 2.448-.608.33-.816.677-1.093.005.383-.808 1.389-1.639 3.009-2.84l.182-1.54c-1.427 1.014-2.854 2.717-4.28 4.52-1.056.105-1.817-.052-2.007-.86l2.277-.77c2.2-1.4 3.427-3.24 4.375-3.757 0-.385.186-.77 0-1.155-.47-.127-1.357.627-1.408-.384-.089-.682.983-.483 1.59-.675.198-1.216-.973-.322-.729-1.733-.607.132-1.676 1.098-2.097-.192Zm4.009-7.721c1.209 2.143 1.533 3.007 0 3.963 2.363.12 3.13-.49 3.463-1.829-.097-2.308-1.445-1.263-3.463-2.134Zm2.461 8.684c-.131.52.294.712 1.275.578.936-.978 1.831-1.67 2.642-1.733.598-.368.919-.736.82-1.253-.487-.26-.912-.26-1.275 0-.69.802-3.654 2.193-3.462 2.408ZM83.82 55.198c1.357-.204 2.48.216 3.743-.458.58.29.594.788.043 1.495-1.465 1.198-2.546 2.29-3.005 3.21.42.153.51.461.552.925l-.738 1.02c-.086.412.817.252 1.25.457l.149.33c-.483 1.197-1.327 4.222-1.306 5.558-1.425.502-2.158-.391-2.452-1.695l-.597-.816.09-.915 1.247.157c-.55-.65-.488-1.143.092-1.791.245.515.489.77 1.157.764l.555-1.023c-.15-.345-.864-.274-1.296-.41.246-.409 1.153-.975 1.023-1.488l-.508-.708 1.613-2.51c.062-.338.594-.677.185-1.017l-1.76-.108c-.246-.43-.166-.913-.037-.977Zm3.002 2.407c-1.251.789 1.246.463 1.759.43l-.093.9-1.37.48c-.625.673-.713 1.94-.851 2.18.284.21.824.22.962-.096.065-1.097.51-1.978 1.258-2.155.263-.08-.062 1.295-.092 1.943-.426.08.503.483-1.389 1.33.178 1.028-1.11 1.57-1.665 2.353.29 1.023.578 1.398.867 1.126.351.202.604.026.76-.528-.489-.708-.537-1.145-.147-1.313.57-.756.61-1.419 1.48-1.228-.292.526.184 1.335-.658 1.455-.466-.013.018 1.713-.082 2.185-2.233.593-2.884.984-2.776 1.578-.001.481.566.383 1.444.433 1.29-1.07 2.313-1.599 4.055-2.075.38-.13.43-.543.26-.754-.349-.38-.99-.028-1.485-.043.38-.824-.046-1.891.26-2.472.561-.62 1.1-.373 1.465-.655-.21-.115-.054-.555-.63-.347-.184-.54.438-1.323-.003-1.864.579-.27.828-.878 1.113-1.903-.232-.689-1.05-.164-1.575-.245v-.862c.895-.037 1.803-.692 2.98-.73l.3-.641c-.09-.943-.478-1.143-.822-.39-.342.756-4.32 1.889-5.325 1.908Zm-2.608 7.67c-.139-.135-.374.108-.707.729-.148.667-.101 1.119.14 1.355.205-.157.592-.03.613-.47-.015-.538.19-1.602-.046-1.614Zm5.57-6.34c.35.243.59-.404.833 0-.051.42-.409.95-.85.938-.044-.298.059-.639.016-.938ZM103.363 54.045c.963-.174 1.627-.052 2.157 1.249-.256 2.067-.946 2.145-.769 6.202.207.179 1.159-.268 1.786-1.047l.25-1.122c.692-.021 1.167.547 1.426 1.708-1.285 1.348-3.801 1.508-3.369 2.065.783 1.653 2.388 2.999 4.618 4.4-.079.582-3.014.355-3.143.052-.871-.856-1.224-3.362-2.031-3.886-.703 1.63-1.406 2.82-2.11 3.041-1.689.44-2.516.275-2.836.033 1.203-.942 2.665-.633 3.836-2.698-.833.157-2.263 1.033-2.553.638-.577-.219-.74-.825-.594-1.487.885.255 2.06-.154 3.522-1.225.217-1.699-.218-2.899.648-5.426-.948-1.237-1.047-1.848-.838-2.497ZM117.321 56.852c.054-.046.733 1.559 1.203 3.07l-.093 1.023-2.591 2.353c-.008.87.486 1.399 2.082 1.175.902-1.124 1.193-1.993 3.054-2.966 1.311-1.555 3.502-1.364 3.655-1.994.972.835-.801 1.432-1.296 1.943l-2.128.511c-.555.376-.647.495-.278 1.127h1.296l-.185.614c-1.08.853-6.093 1.655-5.46 2.251l.324.972c1.419.169 2.7 1.364 3.563 2.201.263.668.909.771 2.036-.204l.092-3.274c.926-.171 2.083.12 2.824-.667.031-1.127-.355-1.552-1.065-1.584l-1.711.41.509-1.023c.693-1.044 1.556-2.17 2.869-2.252.401-.152.709-.305.694-.867-.263-.565-.756-1.112-1.759-.718l1.712-3.329c.456-.58.316-1.159-.092-1.74-.11-.842-.865 1.2-2.406 1.74.493.872.848.667 1.202.307.155.904-.849 1.808-1.156 2.763h-.786l-.185-1.534.926-.82-.741-.203-.092-.51 1.388-2.15c.077-.375-.308-1.776-.509-1.434l-.972-.305c-.154 1.313-.585 3.344-1.851 4.093-.663-.94-1.835-2.545-2.128-2.047l.092.92c-.069.44.224 1.384.648 2.508-.108.58-.401.955-.88 1.125-.618-1.02-1.143-2.023-1.805-1.485Zm4.818.879c.318-.292.636.53.953.974-.484-.12-.505.48-1.174.568-.481-.157.147-1.029.221-1.543Zm-1.187-.65c.147-.135.295.246.442.451-.225-.054-.234.224-.544.264-.224-.072.068-.476.102-.714Zm-1.749 2.028c.62-.26 1.472-.931 1.862-.78l-.471.789-1.171 1.208c-.679.138-.798-.974-.22-1.217Zm-1.25 2.926c.56-.163 1.57-1.919 2.926-1.705.321.52-1.116.937-1.535 1.714l-1.217 1.107c-.68.136-.734-.952-.174-1.116Zm4.318-2.397c.094-.087.186.154.28.284-.141-.035-.147.14-.344.166-.14-.045.044-.3.064-.45Zm-.891 6.151c.315-1.45.478 2.336-.207 2.31-.231-.154-1.687-.393-2.558-1.11-.525-.979 2.641-1.9 2.765-1.2Z" clip-rule="evenodd"/><path fill="#89030A" d="m61.084 74.12-1.003-1.563h.76l.653 1.116.648-1.115h.764l-1.003 1.558 1.004 1.635h-.76l-.652-1.105-.653 1.105h-.76l1.002-1.63ZM64.123 72.558h.657v3.193h-.657v-3.194ZM66.353 72.558h.688l1.298 2.193v-2.194h.648v3.194h-.679l-1.305-2.194v2.194h-.65v-3.194ZM70.946 74.56v.387c0 .222.137.343.386.343.297 0 .364-.151.364-.507v-2.225h.657v2.255c0 .29-.008.507-.155.697-.164.214-.462.33-.858.33-.36 0-.64-.097-.826-.293-.199-.209-.204-.431-.204-.737v-.25h.636ZM73.9 72.558h.657v3.193H73.9v-3.194ZM77.698 72.558l1.15 3.193h-.688l-.218-.657h-1.239l-.209.657h-.692l1.137-3.194h.76Zm-.822 1.998h.888l-.445-1.36-.443 1.36ZM80.066 72.558h.688l1.298 2.193v-2.194h.648v3.194h-.678l-1.306-2.194v2.194h-.649v-3.194h-.001ZM85.61 75.84c-.885 0-1.502-.666-1.502-1.688 0-1.026.604-1.678 1.519-1.678.808 0 1.337.413 1.43 1.08h-.671c-.08-.333-.333-.512-.737-.512-.524 0-.858.405-.858 1.106 0 .705.346 1.11.893 1.11.413 0 .715-.258.78-.689h-.723v-.547h1.324v1.728h-.44l-.08-.378c-.238.326-.532.468-.935.468ZM93.512 72.548v2.003c0 .48.177.71.617.71.444 0 .622-.227.622-.71v-2.003h.657v2.075c0 .79-.458 1.217-1.275 1.217-.825 0-1.283-.427-1.283-1.217v-2.075h.662ZM96.94 72.558h.69l1.297 2.193v-2.194h.648v3.194h-.679l-1.305-2.194v2.194h-.649v-3.194h-.001ZM101.142 72.558h.658v3.193h-.658v-3.194ZM103.022 72.558h.729l.679 2.389.692-2.39h.719l-1.088 3.194h-.631l-1.1-3.194ZM107.038 72.558h2.318v.555h-1.67v.679h1.528v.546h-1.528v.822h1.751v.59h-2.398v-3.192h-.001ZM110.826 72.558h1.55c.693 0 1.027.289 1.027.906 0 .39-.169.657-.475.755.302.107.381.311.395.698l.013.377c.005.187.005.298.124.36v.097h-.719c-.049-.094-.072-.226-.076-.4l-.008-.337c-.013-.378-.111-.507-.475-.507h-.697v1.244h-.657v-3.194h-.002Zm1.431 1.394c.333 0 .489-.129.489-.421 0-.276-.151-.422-.458-.422h-.805v.844h.774ZM115.389 74.765c.048.356.289.515.729.515.386 0 .577-.138.577-.405 0-.293-.266-.35-.853-.484-.258-.059-.498-.103-.706-.236-.226-.142-.346-.391-.346-.724 0-.617.426-.963 1.23-.963.751 0 1.186.373 1.209 1.013h-.63c-.022-.311-.24-.475-.636-.475-.346 0-.537.142-.537.386 0 .303.245.303.773.435.303.075.55.137.751.249.262.147.391.386.391.715 0 .658-.458 1.049-1.284 1.049-.813 0-1.279-.395-1.314-1.075h.646ZM118.761 72.558h.657v3.193h-.657v-3.194ZM121.652 73.126h-.946v-.569h2.545v.569h-.942v2.625h-.657v-2.625ZM125.29 75.751v-1.19l-1.159-2.004h.804l.684 1.377.631-1.376h.75l-1.053 2.003v1.19h-.657Z"/></g><defs><filter id="a" width="154" height="157" x="0" y="0" color-interpolation-filters="sRGB" filterUnits="userSpaceOnUse"><feFlood flood-opacity="0" result="BackgroundImageFix"/><feColorMatrix in="SourceAlpha" result="hardAlpha" values="0 0 0 0 0 0 0 0 0 0 0 0 0 0 0 0 0 0 127 0"/><feOffset dy="16"/><feGaussianBlur stdDeviation="6.5"/><feColorMatrix values="0 0 0 0 0 0 0 0 0 0 0 0 0 0 0 0 0 0 0.03 0"/><feBlend in2="BackgroundImageFix" result="effect1_dropShadow_185_139"/><feBlend in="SourceGraphic" in2="effect1_dropShadow_185_139" result="shape"/></filter></defs></svg>