<svg xmlns="http://www.w3.org/2000/svg" width="154" height="157" fill="none"><g filter="url(#a)"><path fill="#fff" d="M13 0h128v128H13z"/><path fill="#2C3563" fill-rule="evenodd" d="m30.801 60.62.325.826.813-.355-.354.813.825.324-.825.325.354.811-.813-.353-.325.825-.323-.825-.814.353.355-.813-.825-.323.825-.324-.355-.813.814.355.323-.826Zm22.145 0 .324.826.813-.355-.355.813.825.324-.825.325.355.811-.813-.353-.324.825-.325-.825-.811.353.353-.813-.826-.323.826-.324-.353-.813.811.355.325-.826ZM51.463 55.571a.809.809 0 0 0-.015-.183c-.007-.06-.026-.101-.059-.12-.033-.018-.061-.008-.084.03a.4.4 0 0 1-.053.103c-.013.035-.044.067-.092.099-.071.045-.15.093-.232.146a5.53 5.53 0 0 1-.596.325 3.34 3.34 0 0 1-1.262.329 6.12 6.12 0 0 1-.373.03.187.187 0 0 0-.062.006c-.027.01-.03.027-.01.05.019.018.057.033.117.042a.945.945 0 0 0 .188.017c.202.028.424.02.672-.025.21-.038.429-.1.656-.189.246-.098.482-.21.706-.342.086-.053.17-.1.252-.14.045-.025.093-.047.143-.066a.186.186 0 0 0 .042-.012l.027.072a.496.496 0 0 0 .138.177c.271.25.548.506.829.768.13.117.213.179.248.187.03.008.05 0 .06-.02.015-.035.009-.085-.019-.151a.405.405 0 0 0-.143-.17c-.17-.12-.34-.251-.511-.396a6.368 6.368 0 0 1-.547-.556.026.026 0 0 0-.02-.01Zm-7.3-3.003c.01.003.024.006.036.007.098.002.25.024.456.066a.18.18 0 0 0 .018.062c.034.098.088.12.162.063a.285.285 0 0 0 .113-.139c.048-.136.1-.276.156-.42a.778.778 0 0 1 .19-.3c.048-.036.06-.08.033-.131a1.222 1.222 0 0 0-.158-.18.162.162 0 0 0-.125-.032 3.061 3.061 0 0 1-.575-.006l-.013-.018a.59.59 0 0 0-.177-.175c-.025-.016-.05-.014-.077.008-.014.012-.015.037-.004.072.014.101.015.2.002.294-.002.079-.02.183-.054.311a8.023 8.023 0 0 1-.328 1.026c-.086.237-.2.46-.344.669a.368.368 0 0 0-.077.193.61.61 0 0 0 .028.228c.024.05.053.058.092.027a.38.38 0 0 0 .14-.168c.092-.17.17-.353.23-.545.072-.241.147-.48.219-.716l.057-.196Zm.491-.086c-.034-.03-.092-.046-.173-.046l-.276.001c.03-.105.062-.198.093-.277.14.01.258.023.36.038.064.001.085-.016.067-.053-.016-.042-.056-.076-.121-.104a.704.704 0 0 0-.253-.021l-.008.005c.058-.167.105-.283.138-.347.011 0 .024 0 .039-.002.106.004.195.01.267.013.106.004.175.022.205.054.019.023.017.074-.01.152a16.54 16.54 0 0 1-.218.61.173.173 0 0 1-.04.062.425.425 0 0 0-.07-.085Zm1.06.341a.413.413 0 0 0 .077.021c.127.012.327.053.594.124a22.156 22.156 0 0 1-.485 1.585.36.36 0 0 1-.076.146c-.021.011-.055.003-.102-.025-.066-.037-.133-.074-.199-.114-.05-.034-.078-.037-.083-.01.112.181.195.334.252.46.017.064.048.11.089.133.023.019.05.018.08-.002.045-.03.104-.08.176-.153a.493.493 0 0 0 .114-.229c.132-.586.33-1.346.594-2.28.045-.164.096-.276.154-.34.05-.041.062-.082.035-.123a.864.864 0 0 0-.206-.21.18.18 0 0 0-.139-.04 1.552 1.552 0 0 1-.287.037 3.585 3.585 0 0 1-.34-.034.582.582 0 0 0-.154-.164c-.013-.013-.028-.017-.045-.01-.02.006-.028.028-.02.068a.98.98 0 0 1-.009.334 5.039 5.039 0 0 1-.146.517.663.663 0 0 0-.028.26c.007.065.023.11.045.133.037.03.072.009.104-.065l.005-.019Zm.655-.026c-.034-.04-.096-.061-.182-.067a4.4 4.4 0 0 1-.43-.04c.007-.037.016-.075.021-.116.02-.064.039-.133.061-.208l.022.007c.165.028.307.05.426.068.06.006.086-.01.073-.048-.017-.043-.054-.078-.115-.107a.675.675 0 0 0-.377-.023c.038-.13.075-.247.11-.352.018.004.043.004.072.005.145.013.29.022.436.027.062.006.095.026.1.058.005.071-.002.156-.018.258-.05.203-.103.401-.155.592-.013-.015-.028-.032-.044-.054Zm-8.513.7c.09.082.28.238.576.465.323.242.596.424.816.548.103.064.193.083.266.058.21-.09.406-.172.592-.248.079-.03.115-.056.108-.077-.005-.025-.057-.042-.158-.055-.131-.01-.268-.021-.411-.03a1.448 1.448 0 0 1-.421-.066c-.148-.045-.364-.149-.646-.309a7.676 7.676 0 0 1-.75-.456 2.514 2.514 0 0 0-.026-.162c.24-.13.562-.276.968-.44.063-.02.123-.043.18-.066.055-.022.087-.048.09-.078 0-.039-.032-.07-.091-.092a.87.87 0 0 0-.267-.035.33.33 0 0 0-.17.057c-.181.119-.432.274-.748.464l-.088-.316a4.504 4.504 0 0 1-.069-.248 1.459 1.459 0 0 1-.06-.42c.004-.039-.013-.066-.051-.082a.932.932 0 0 0-.3-.056.264.264 0 0 0-.18.05c-.055.046-.047.085.025.12.119.057.196.133.227.228.114.324.202.61.262.863l-.82.458c-.06.03-.057.062.009.093.053.02.11.027.168.026a.39.39 0 0 0 .16-.06c.153-.118.33-.23.523-.339.005.025.01.05.014.08.057.28.068.536.027.767a1.504 1.504 0 0 1-.164.508c-.076.167-.221.38-.434.636-.032.033-.052.056-.054.072-.01.023.013.03.066.017.042-.014.135-.084.276-.21.1-.087.214-.225.34-.414.093-.147.158-.3.195-.464.044-.184.057-.4.036-.648a2.55 2.55 0 0 1-.016-.139Zm-6.26 3.117a5.54 5.54 0 0 1 .192-.09.201.201 0 0 0 .072-.048c.006-.01.003-.024-.006-.043-.011-.02-.052-.034-.122-.04a.176.176 0 0 0-.102.021.176.176 0 0 0-.05.033 5.21 5.21 0 0 1-.031-.147.331.331 0 0 1-.023-.125c-.003-.025-.017-.043-.042-.05a.298.298 0 0 0-.12-.001.312.312 0 0 0-.114.057c-.021.028-.013.048.026.06a.12.12 0 0 1 .07.054c.044.078.079.161.11.248l-.028.017a6.338 6.338 0 0 0-.21.194c-.011.013-.009.023.006.029a.063.063 0 0 0 .056-.005c.067-.038.138-.077.213-.115.02.064.037.135.052.212-.001.022.002.038.01.049.009.02.021.019.034-.002.01-.017.017-.054.017-.112a1.574 1.574 0 0 0-.01-.196Zm.525.3c.064-.023.133-.05.209-.079a.144.144 0 0 0 .077-.045c.006-.01.005-.023-.004-.042-.008-.025-.047-.04-.117-.047a.16.16 0 0 0-.104.01.265.265 0 0 0-.096.053.19.19 0 0 1-.018-.058.394.394 0 0 1-.026-.124c-.006-.024-.019-.038-.039-.043-.017-.008-.056-.006-.114.004-.048.013-.08.032-.098.057-.017.022-.01.04.025.055a.106.106 0 0 1 .073.049c.022.046.05.096.078.15-.09.062-.157.114-.203.155-.007.008-.004.019.009.03.017.01.036.01.058 0 .056-.028.116-.054.18-.081a2.656 2.656 0 0 1 .092.322c0 .022.004.037.012.045.01.015.021.014.033-.004.01-.018.013-.05.008-.102a1.063 1.063 0 0 0-.017-.212.77.77 0 0 1-.018-.092Zm-.186 1.302a.29.29 0 0 0 .183-.182c.063-.214.137-.428.224-.639.1-.235.24-.534.414-.897.106-.221.18-.354.224-.4.044-.024.074-.031.09-.018.01.003.026.02.046.052.042.065.084.13.127.2.021.036.041.048.058.04.02-.01.03-.044.03-.099.005-.172.03-.317.072-.435.03-.098.036-.153.014-.162-.025-.012-.154.025-.388.11a.245.245 0 0 0-.146.126 5.99 5.99 0 0 0-.15.334c-.316-.313-.515-.558-.597-.736-.007-.036-.025-.058-.056-.067-.044-.007-.136.029-.276.11a.174.174 0 0 0-.076.09 4.996 4.996 0 0 1-.171.418c-.028.045-.022.069.016.07a.35.35 0 0 0 .118-.056.21.21 0 0 0 .08-.123l.067-.184c.006-.015.014-.023.02-.025.028-.013.067-.002.119.038.044.039.09.083.135.13-.025.004-.05.02-.077.047a.6.6 0 0 0-.109.202c-.014.054-.026.107-.043.16-.016.031.004.04.062.027.015-.004.03-.019.047-.046l.187-.324c.05.054.107.11.17.173a.2.2 0 0 0-.057.046.578.578 0 0 0-.097.206 3.4 3.4 0 0 0-.035.169c-.012.035.009.043.06.02.016-.002.03-.02.045-.048l.157-.315.22.232c-.029.053-.054.11-.076.168a28.293 28.293 0 0 0-.481 1.059 6.56 6.56 0 0 1-.336-.123h.003l.131-.322c.018-.05.008-.074-.029-.072a.243.243 0 0 0-.118.08.655.655 0 0 0-.076.214.334.334 0 0 0-.002.067 3.332 3.332 0 0 1-.134-.053.526.526 0 0 1-.093-.038c.043-.143.084-.265.12-.365.016-.05.008-.072-.03-.067-.035.007-.07.033-.104.077a.476.476 0 0 0-.063.202c-.005.038-.01.077-.012.114a1.206 1.206 0 0 0-.098-.049.118.118 0 0 0-.073-.022l-.006-.159-.006-.135a.441.441 0 0 1-.008-.156c.007-.048-.013-.073-.057-.074a.35.35 0 0 0-.15.06c-.05.031-.079.06-.085.085-.013.026-.003.04.026.045.036.01.064.042.086.091a.645.645 0 0 1 .071.132l.053.13a.474.474 0 0 0-.158.129c-.025.027-.035.053-.028.08.007.026.03.038.073.033.105-.007.21-.002.318.014.098.021.338.096.719.224-.053.107-.104.211-.155.31a.035.035 0 0 0-.006.026c-.004.001-.009-.001-.017-.006a.283.283 0 0 0-.154.014c-.053.019-.055.05 0 .088a.25.25 0 0 1 .143.132c.035.073.067.158.094.256.012.036.043.064.096.083.07.03.128.045.178.045.078.006.1-.034.066-.116a.884.884 0 0 0-.148-.216 2.477 2.477 0 0 1-.181-.229Zm1.565-.732c.127-.247.295-.533.5-.856.047-.07.089-.136.126-.197.033-.05.042-.085.028-.111-.021-.035-.063-.042-.124-.021a1.25 1.25 0 0 0-.23.119.343.343 0 0 0-.102.147 28.38 28.38 0 0 1-.358.876l-.039-.01a.354.354 0 0 0-.135.012l-.02-.335a.754.754 0 0 1 .02-.296c.012-.054-.001-.086-.045-.096-.042-.015-.152.024-.33.117a.202.202 0 0 0-.096.132c-.042.174-.103.387-.18.642-.02.07-.077.168-.171.297-.034.05-.023.081.032.093.04.002.087-.01.137-.034a.24.24 0 0 0 .134-.221c.017-.062.064-.258.145-.59a.118.118 0 0 1 .064-.079c.033-.02.062-.013.083.021.048.117.1.243.162.377a.341.341 0 0 0-.091.062c-.047.04-.07.077-.068.11-.002.041.024.054.075.04a.502.502 0 0 1 .227-.037l-.594 1.255c-.03.053-.01.074.059.065a.345.345 0 0 0 .148-.076.291.291 0 0 0 .092-.135c.089-.29.209-.585.36-.889a3.46 3.46 0 0 1 .087-.18c.112.045.216.1.313.166.104.073.18.146.223.219.041.067.03.138-.032.214-.054.068-.11.132-.166.193-.026.023-.02.036.015.038.023 0 .061-.013.118-.04a.89.89 0 0 1 .328-.074c.057.002.094-.019.11-.06.017-.032.01-.101-.018-.206a.564.564 0 0 0-.157-.268 1.487 1.487 0 0 0-.4-.282 2.265 2.265 0 0 0-.23-.102Zm16.928-.475a.59.59 0 0 0 .059.074c.204.205.378.387.521.55-.033.06-.043.1-.027.114.021.025.07.03.148.013a.24.24 0 0 0 .146-.057 4.76 4.76 0 0 1 .395-.32.299.299 0 0 1 .163-.061c.047-.005.074-.022.079-.05a1.039 1.039 0 0 0-.038-.315.273.273 0 0 0-.095-.106 1.864 1.864 0 0 1-.323-.208c-.05-.047-.1-.089-.146-.127l.034.003c.047.009.098.014.154.02a.621.621 0 0 1 .09.017c.036.014.058.01.069-.013a.342.342 0 0 0 .022-.057l.264.24.306.303c.014.023.04.034.076.033.023-.014.029-.052.017-.111a.419.419 0 0 0-.023-.086.199.199 0 0 0-.082-.111c-.114-.09-.228-.182-.344-.278a4.058 4.058 0 0 1-.37-.333c-.075-.078-.157-.161-.244-.248-.048-.048-.074-.037-.076.03.001.032.003.07.007.113.007.04.032.074.077.105l.258.225c-.061.017-.144.035-.247.053a.144.144 0 0 0-.067.013.298.298 0 0 0-.032-.034.467.467 0 0 0-.029-.135c-.01-.017-.023-.024-.043-.023-.01.004-.021.017-.03.04a15.77 15.77 0 0 0-.048.078.35.35 0 0 1-.072.07 2.52 2.52 0 0 1-.264.218c-.06.044-.132.084-.208.116a.25.25 0 0 0-.112.076.344.344 0 0 0-.065.134c-.008.032.004.048.039.048a.266.266 0 0 0 .061-.013Zm.656.495a.69.69 0 0 0-.156-.179l-.405-.359c.052-.027.1-.055.143-.086l.04-.03c.005.02.02.044.047.072.149.134.275.252.379.352.037.036.063.037.073.003.01-.038.003-.082-.027-.133a.564.564 0 0 0-.157-.155 14.562 14.562 0 0 0-.261-.182l.101-.08.062-.048c.006.02.02.042.047.067l.368.325c.04.034.065.035.077.001a.169.169 0 0 0-.029-.13.774.774 0 0 0-.165-.15c-.088-.057-.17-.11-.24-.157.077-.062.134-.102.17-.118l.035.038c.1.082.185.154.257.217.161.125.243.216.247.27a.658.658 0 0 1-.14.157c-.233.193-.379.302-.44.328-.003-.001-.01.001-.02.006.002-.004-.002-.014-.006-.03Zm-1.135.38a1.472 1.472 0 0 1-.365-.11 3.107 3.107 0 0 1-.526-.342c-.023-.026-.038-.02-.043.018.002.02.042.075.119.164.101.111.234.213.403.305.13.073.265.121.407.145-.005.234-.007.47-.003.707-.002.09.03.17.098.244.122.142.262.27.423.382.039.031.063.044.076.038.016-.01.016-.034 0-.073-.062-.147-.13-.305-.205-.473a2.664 2.664 0 0 1-.167-.55 5.795 5.795 0 0 1-.049-.265c.125-.002.268-.017.43-.044a.448.448 0 0 1 .213.009c.06.019.095.007.106-.037a.434.434 0 0 0-.012-.192.245.245 0 0 0-.12-.148 2.124 2.124 0 0 1-.2-.142c-.045-.04-.1-.092-.169-.156a.141.141 0 0 0 .03-.06.299.299 0 0 0 .008-.13.233.233 0 0 0-.036-.105c-.012-.016-.03-.013-.053.004a.34.34 0 0 1-.107.053 1.261 1.261 0 0 1-.32.014 1.433 1.433 0 0 1-.328-.048 4.582 4.582 0 0 1-.483-.157c-.018-.011-.024-.005-.02.015a.255.255 0 0 0 .079.066 1.488 1.488 0 0 0 .554.267c.078.015.176.034.295.055a.042.042 0 0 0-.002.016c-.01.177-.021.354-.033.53Zm.43-.324c.109.072.17.116.184.134.023.048.006.08-.045.095-.144.059-.285.09-.424.096a1.364 1.364 0 0 1-.013-.206 8.427 8.427 0 0 0-.008-.33c.044 0 .093.007.148.02.028.063.08.127.157.19ZM51.863 71.328l-1.68-1.223.308-.427.825.298a7.684 7.684 0 0 1 .577.231 3.897 3.897 0 0 1-.272-.16 6.153 6.153 0 0 1-.297-.204l-.623-.453.267-.37 1.682 1.224-.299.411-.881-.308a5.216 5.216 0 0 1-.574-.236 10.143 10.143 0 0 1 .69.45l.545.396-.268.371Zm1.474-4.704.08-.459.167.03a.268.268 0 0 0 .16-.01c.038-.019.062-.054.071-.104a.148.148 0 0 0-.027-.12.178.178 0 0 0-.112-.063.245.245 0 0 0-.136.016.505.505 0 0 0-.147.097c-.025.02-.057.05-.1.091-.143.13-.249.218-.32.265a.564.564 0 0 1-.211.087.685.685 0 0 1-.244-.001.527.527 0 0 1-.372-.23c-.077-.122-.099-.278-.065-.467.032-.19.1-.325.204-.405.104-.08.243-.105.417-.075l.168.03-.077.438-.14-.025c-.066-.011-.116-.008-.151.01-.035.018-.057.052-.066.102a.12.12 0 0 0 .025.105c.022.03.057.05.103.057.075.013.214-.066.417-.24l.014-.01.034-.03c.18-.153.307-.24.377-.265a.71.71 0 0 1 .323-.016c.176.03.303.109.382.236.08.127.102.29.067.488-.034.194-.11.335-.228.42-.117.084-.27.11-.46.075l-.153-.026Zm.387 1.241-1.977-.642.146-.447 1.976.643-.145.446Zm-1.377 1.44.189-.427.154.069c.065.029.117.04.158.029.041-.008.072-.036.093-.083a.153.153 0 0 0 .004-.124.178.178 0 0 0-.093-.088.252.252 0 0 0-.137-.017.512.512 0 0 0-.167.059 5.836 5.836 0 0 0-.12.063c-.168.09-.294.15-.372.18a.526.526 0 0 1-.225.033.658.658 0 0 1-.237-.06.523.523 0 0 1-.306-.312c-.046-.139-.03-.295.05-.471.077-.175.176-.29.296-.342.12-.054.261-.044.422.028l.157.07-.181.406-.13-.057c-.063-.028-.112-.037-.15-.028-.037.01-.067.036-.088.083a.126.126 0 0 0-.002.108c.015.035.043.06.086.08.072.032.227-.012.465-.131l.015-.007.04-.021c.212-.104.355-.16.43-.166a.685.685 0 0 1 .315.063c.165.072.27.18.317.322.045.142.028.306-.054.489-.08.182-.188.3-.322.352-.134.054-.289.04-.465-.037l-.142-.063Zm-1.624 3.351L49.23 71.21l.73-.757.29.28-.404.419.296.287.357-.37.285.275-.356.371.335.323.416-.432.288.28-.743.77Zm-.88.798-1.39-1.546.348-.315 1.39 1.545-.348.316Zm-2.115-.374.563.837c.039.056.075.09.111.103.035.013.075.005.117-.023.04-.028.063-.062.064-.1a.253.253 0 0 0-.052-.14l-.565-.838c-.037-.056-.075-.09-.112-.103-.036-.011-.075-.004-.117.024-.04.028-.061.06-.064.099 0 .038.018.085.055.14Zm-.352.33c-.118-.177-.164-.338-.139-.486.027-.147.125-.28.295-.393.172-.116.33-.16.474-.128.144.03.277.136.396.313l.477.71c.12.177.168.34.141.487-.024.147-.122.277-.292.394-.17.114-.328.156-.475.125-.147-.032-.28-.137-.399-.313l-.478-.71Zm-1.494 2.28-.795-1.922.667-.276.34.572a5.79 5.79 0 0 1 .26.496 16.374 16.374 0 0 1-.099-.308 3.614 3.614 0 0 1-.06-.209l-.161-.668.663-.275.796 1.922-.417.173-.291-.703c-.061-.147-.123-.298-.186-.456l-.19-.485c.043.178.08.327.107.447.03.12.048.197.055.23l.251 1.073-.273.113-.56-.893c-.079-.127-.15-.241-.21-.344-.062-.101-.119-.2-.172-.294l.196.44.204.484.293.71-.418.173Zm-2.044.44.06-2.115.624-.097.693 1.998-.495.077-.103-.362-.321.049.01.377-.468.074Zm.454-.83.223-.036-.168-.615-.036-.135-.054-.214a7.578 7.578 0 0 1 .017.361l.018.638Zm-2.854.28.463.025-.008.168a.26.26 0 0 0 .03.158c.023.035.059.055.11.058a.15.15 0 0 0 .117-.041c.029-.03.047-.07.049-.12a.25.25 0 0 0-.033-.132.533.533 0 0 0-.114-.137l-.102-.088a3.387 3.387 0 0 1-.302-.284.562.562 0 0 1-.112-.2.688.688 0 0 1-.028-.242.527.527 0 0 1 .181-.398c.112-.093.265-.132.456-.123.193.01.334.062.426.155.092.093.134.229.125.405l-.008.171-.445-.023.008-.144c.004-.066-.005-.115-.029-.148-.02-.032-.057-.05-.107-.053a.131.131 0 0 0-.103.037c-.028.027-.04.063-.043.11-.005.077.092.206.29.386l.01.011.035.032c.172.16.275.274.306.343a.55.55 0 0 1 .047.148c.01.052.013.11.01.169-.01.18-.072.316-.188.41-.117.095-.274.137-.474.125-.198-.009-.346-.067-.444-.175-.098-.106-.141-.255-.13-.448l.007-.155Zm-1.89.566.555-2.041.629.052.205 2.106-.5-.042-.016-.376-.323-.028-.077.37-.473-.041Zm.637-.7.225.019-.02-.64a4.857 4.857 0 0 1-.002-.137c-.002-.049-.003-.122-.002-.221l-.031.172a6.55 6.55 0 0 0-.037.183l-.133.624Zm-1.852.396.346-1.644-.3-.064.084-.393 1.058.225-.083.395-.3-.065-.347 1.642-.458-.096Zm-1.416-.51.79-1.924.435.18-.791 1.922-.434-.178Zm-1.326-1.52.394.245-.089.144a.263.263 0 0 0-.051.153c.003.041.026.076.07.104.04.025.08.032.121.02a.176.176 0 0 0 .1-.08.245.245 0 0 0 .035-.132c0-.05-.011-.11-.033-.174l-.046-.128a3.067 3.067 0 0 1-.126-.394.522.522 0 0 1-.002-.229.736.736 0 0 1 .092-.227.522.522 0 0 1 .352-.26c.141-.025.294.012.459.114.162.102.26.217.296.344.036.126.007.264-.088.414l-.09.146-.376-.236.074-.122c.038-.056.053-.104.05-.144-.005-.04-.027-.072-.07-.099a.128.128 0 0 0-.108-.017.159.159 0 0 0-.09.074c-.042.066-.02.225.066.478l.003.017.015.043c.075.225.109.376.104.45a.662.662 0 0 1-.105.305.528.528 0 0 1-.363.267c-.147.025-.305-.013-.475-.12-.168-.106-.27-.23-.304-.37-.035-.139 0-.292.103-.455l.082-.132Zm-.786-1.172c.082.064.147.097.192.1.045.003.089-.022.13-.074l.075-.091c.043-.054.06-.103.05-.145-.011-.043-.053-.095-.129-.155l-.013-.012-.305.377Zm-1.141.673 1.306-1.618.523.425c.135.11.213.222.235.334.021.113-.015.226-.108.341l-.013.016-.074.093a.473.473 0 0 1-.208.16.382.382 0 0 1-.243-.01c.053.078.076.154.068.228a.478.478 0 0 1-.117.24l-.302.374a.645.645 0 0 0-.076.111.268.268 0 0 0-.028.089l-.37-.3a.251.251 0 0 1 .036-.083c.017-.03.047-.071.09-.123l.251-.312c.071-.089.103-.156.097-.204-.006-.049-.051-.107-.134-.176l-.574.709-.36-.294Zm-1.255-1.257 1.507-1.432.723.762-.29.278-.4-.423-.3.284.353.373-.288.275-.352-.374-.337.321.412.435-.29.278-.738-.777Zm-.983-1.347 1.536-1.438.277.41-.66.545-.204.159c-.102.079-.22.17-.355.272a28.038 28.038 0 0 1 .622-.34l.754-.402.271.402-1.91.885-.331-.493Zm-.764-1.324 1.867-.912.207.423-1.868.912-.206-.423Zm-.751-1.888 1.963-.68.172.5-.716.505a9.047 9.047 0 0 1-.52.342 4.512 4.512 0 0 1 .624-.259l.728-.252.149.432-1.963.68-.167-.48.757-.55a5.383 5.383 0 0 1 .524-.335 12.59 12.59 0 0 1-.406.174 7.85 7.85 0 0 1-.358.135l-.638.22-.15-.432Zm1.708-1.764-1.533.174c-.068.007-.116.023-.144.05-.025.024-.037.061-.031.109.006.05.024.085.058.104.033.02.083.025.148.017l1.534-.172.052.468-1.456.164c-.213.023-.378-.009-.496-.1-.119-.09-.189-.235-.212-.44-.022-.2.014-.357.11-.47.096-.115.25-.183.462-.208l1.456-.163.052.467Z" clip-rule="evenodd"/><path fill="#2C3563" fill-rule="evenodd" d="M41.853 49c8.18 0 14.851 6.671 14.851 14.852 0 8.181-6.671 14.852-14.851 14.852C33.67 78.704 27 72.033 27 63.852 27 55.672 33.671 49 41.853 49Zm0 1.28c7.474 0 13.572 6.097 13.572 13.572 0 7.475-6.098 13.573-13.572 13.573-7.476 0-13.574-6.098-13.574-13.573 0-7.475 6.098-13.573 13.574-13.573Zm0 .3c7.309 0 13.27 5.962 13.27 13.272 0 7.31-5.961 13.27-13.27 13.27-7.31 0-13.272-5.96-13.272-13.27S34.542 50.58 41.853 50.58Zm0 4.067c5.07 0 9.204 4.136 9.204 9.205 0 5.07-4.135 9.204-9.204 9.204-5.071 0-9.206-4.133-9.206-9.204 0-5.07 4.135-9.205 9.206-9.205Zm0 .26c4.926 0 8.944 4.02 8.944 8.945 0 4.926-4.018 8.944-8.944 8.944-4.928 0-8.946-4.018-8.946-8.945 0-4.925 4.018-8.944 8.946-8.944Zm0-5.23c7.806 0 14.174 6.368 14.174 14.175s-6.368 14.175-14.174 14.175c-7.808 0-14.175-6.368-14.175-14.175 0-7.806 6.367-14.174 14.175-14.174Z" clip-rule="evenodd"/><path fill="#2C3563" fill-rule="evenodd" d="M43.477 60.543h.46v-.428h.232v.428h.46v-.428h.243v.652h-1.82v-.36h.172v-.292h.253v.428Zm-1.581 1.047a.899.899 0 0 1 .239.05l.096-.261a1.228 1.228 0 0 0-.314-.062h-.021v.273Zm.345.093a.913.913 0 0 1 .191.127l.202-.201a1.209 1.209 0 0 0-.297-.188l-.096.262Zm.273.207c.035.038.067.08.094.123l.295-.079a1.198 1.198 0 0 0-.186-.247l-.203.203Zm.153.227a.993.993 0 0 1 .064.186h.28v-.14h-.005a.947.947 0 0 0-.049-.124l-.29.078Zm-.023.251h-.008a.793.793 0 0 0-.073-.223h-.001l-.008-.02a.823.823 0 0 0-.174-.221l-.025-.018.003-.002a.812.812 0 0 0-1.324.484h-.008v1.265h1.618v-1.265Zm-1.705-.065a.92.92 0 0 1 .063-.183l-.291-.078c-.018.04-.034.08-.048.12h-.005V62.304h.281Zm.12-.287c.029-.042.058-.083.09-.12l-.203-.203c-.07.073-.131.156-.181.245l.294.078Zm.173-.2a.936.936 0 0 1 .187-.128l-.095-.262a1.26 1.26 0 0 0-.294.187l.202.202Zm.293-.173a.88.88 0 0 1 .255-.053v-.273h-.028c-.112.007-.22.03-.322.066l.095.26Zm.848-.326c.202.089.377.225.513.394v-.394h-.513Zm.62.552c.043.075.082.154.11.237h.258v-.237h-.368Zm-2.427.237c.03-.083.067-.163.111-.237h-.365v.237h.254Zm.211-.385c.137-.174.315-.314.52-.404h-.52v.404Zm1.982.915h.253v-.218h-.253v.218Zm0 .333h.253v-.218h-.253v.218Zm0 .332h.253v-.218h-.253v.218Zm0 .332h.253v-.218h-.253v.218Zm-1.849-1.215h-.253v.126h.001v.091h.252v-.217Zm-.253.55h.253v-.217h-.253v.218Zm.253.115h-.252v.218h.252v-.218Zm-.253.55h.253v-.218h-.253v.218Zm-.43-.572h.316v-.403h-.316v.403Zm-.535 0h.422v-.403h-.422v.403Zm.321.572h.53v-.458h-.53v.458Zm-.323 0h.208v-.458h-.208v.458Zm.323-1.089h.53v-.323h-.53v.323Zm-.323-.001h.208v-.323h-.208v.323Zm0-.437h.507v-.237h-.507v.237Zm.322-.351h.65v-.438h-.65v.438Zm-.715 0h.6v-.438h-.6v.438Zm-.467 0h.353v-.438h-.353v.438Zm5.65 0h.392v-.438h-.392v.438Zm-.716 0h.602v-.438h-.602v.438Zm-.764 0h.65v-.438H43v.438Zm-4.17-.553h.242v-.321h-.242v.32Zm.358 0h.438v-.321h-.438v.32Zm.551 0h.369v-.321h-.369v.32Zm.484 0h.784v-.321h-.784v.32Zm.898 0h.66v-.321h-.66v.32Zm.775 0h.658v-.321h-.658v.32Zm.773 0h.78v-.321h-.78v.32Zm.895 0h.368v-.321h-.368v.32Zm.484 0h.437v-.321h-.437v.32Zm.551 0h.272v-.321h-.272v.32Zm.387.667h-.881v1.879h-4.528v-1.88h-.863V60h.474v.43h.23v-.43h.46v.43h.231v-.43h.344v-.965h.493v.443h.265v-.443h.495v.443h.263v-.443h.495v.443h.266v-.443h.494v.965h.369v.43h.23v-.43h.46v.43h.231v-.43h.472v1.87Zm-1.51.237h.514v-.237h-.514v.237Zm-3.023-1.991h-.23v.428h-.46v-.428h-.23v.428h-.46v-.428h-.243v.652h1.794v-.36h-.17v-.292Zm.287.652v-.36h.655v.36h-.655Zm.77 0v-.36h.656v.36h-.656Zm.77 0v-.36h.656v.36h-.655Zm.847 2.866h.533v-.458h-.533v.458Zm.648 0h.215v-.458h-.215v.458Zm-.666-4.485v.585h-2.542v-.585h.265v.428h.002v.016h.484v-.016h.009v-.428h.263v.444h.484v-.016h.01v-.428h.267v.444h.484v-.016h.008v-.428h.266Zm-2.542 1.145h.508v-.445h-.508v.445Zm.622 0h.612v-.445h-.612v.445Zm.728 0h.61v-.445h-.61v.445Zm.727 0h.465v-.445h-.465v.445Zm.916 2.768h.43v-.403h-.43v.403Zm.215-.518h.215v-.323h-.215v.323Zm-.648.518h.318v-.403h-.318v.403Zm.533-.841v.324h-.533v-.324h.533Z" clip-rule="evenodd"/><path fill="#2C3563" fill-rule="evenodd" d="M37.26 59.545h3.193v-.177h-3.192v.177Zm5.964 0h3.207v-.177h-3.207v.177Zm-5.837 1.893h1.365v-.177h-1.365v.177Zm7.576 0h1.341v-.177h-1.341v.177Zm-7.48 1.477h2.094v-.177h-2.093v.177Zm3.543 0h1.618v-.177h-1.618v.177Zm3.08 0h2.103v-.177h-2.103v.177Zm-6.254 1.62h2.105l.818-.818h.25l-.817.818h3.18l-.865-.866h.121v.048h.178l.816.818h2.2v.176h-7.986v-.176Z" clip-rule="evenodd"/><path fill="#2C3563" fill-rule="evenodd" d="M38.576 56.65 36.2 58.715c.659.075 1.1.793 1.102 1.414l.004 1.434c.003 1.28.049 3.548 1.444 4.11.252.101 1.546.406 2.17.713.752.371.836.745.934.768.141-.126.278-.433.82-.71.685-.346 1.881-.612 2.278-.77 1.396-.563 1.44-2.83 1.444-4.111l.003-1.36c.003-.654.39-1.407 1.102-1.488l-2.374-2.065c-1.126.7-1.88 1.017-3.25 1.022-1.392.006-2.16-.313-3.302-1.022Zm.035.312-1.95 1.657c.044-.008.54.252.775.973.095.29.103.652.098 1.014-.003.342.006.685.004.977.017 1.19.025 3.308 1.305 3.875.238.095 1.471.374 2.06.664.71.349.865.605.952.637.133-.12.279-.305.79-.564.646-.327 1.833-.593 2.208-.744 1.253-.53 1.27-2.68 1.312-3.888l-.006-.903c.001-.39-.036-.694.097-1.066.142-.404.394-.79.793-.971l-1.955-1.687c-1.084.673-1.9.954-3.232.959-1.27.004-2.185-.272-3.251-.933Z" clip-rule="evenodd"/><path fill="#2C3563" fill-rule="evenodd" d="m45.02 57.476.255.528.58.08-.423.406.104.576-.516-.278-.516.278.103-.576-.423-.406.58-.08.256-.528Zm-3.193 7.313.254.528.582.08-.424.404.104.577-.516-.277-.517.277.104-.577-.422-.405.58-.079.255-.528Zm0 .366.147.303.334.046-.244.233.06.331-.297-.16-.297.16.06-.331-.242-.233.332-.046.147-.303Zm-3.152-7.679.254.528.58.08-.423.406.105.576-.517-.278-.516.278.105-.576-.424-.406.581-.08.255-.528Zm0 .366.146.303.334.046-.243.233.059.331-.296-.158-.297.158.059-.33-.243-.234.335-.046.145-.303Zm6.345 0 .146.303.334.046-.243.233.06.331-.297-.158-.297.158.06-.33-.243-.234.333-.046.147-.303ZM39.112 68.391c-.026.003-.035.017-.03.042a.107.107 0 0 1-.006.059.255.255 0 0 0-.025.035c-.04.042-.066.073-.082.09-.02.024-.027.035-.024.035.005.005.025-.004.057-.024a.866.866 0 0 1 .105-.06.637.637 0 0 0 .075-.046c.007-.006.024-.013.05-.025.033-.015.046-.029.035-.04a.241.241 0 0 0-.155-.066Zm2.05-.102a.053.053 0 0 0-.02.007c-.118.046-.328.085-.625.114-.08.01-.086.023-.018.042a.71.71 0 0 0 .217-.005c.024.035.018.088-.019.157-.07.12-.148.198-.232.228a.06.06 0 0 0-.026.017.143.143 0 0 0-.009.094c.006.027.019.04.036.04l.06-.018.621-.175.014.014c.059.06.098.084.12.074.047-.047.042-.108-.016-.181a.463.463 0 0 0-.195-.1c-.087-.021-.114-.016-.081.018.035.035.074.08.123.137a17.43 17.43 0 0 1-.537.095c.065-.058.15-.144.257-.263a.156.156 0 0 1 .032-.03c.066-.04.055-.079-.033-.12.193-.028.33-.05.41-.068.044-.013.057-.03.037-.056-.019-.018-.057-.025-.116-.021Zm1.963-.021c-.022.002-.025.016-.008.04.021.024.018.075-.008.156-.075.284-.168.485-.282.601-.04.044-.033.05.018.021.136-.096.244-.26.325-.492.029.042.079.132.148.266.034.056.056.096.069.12.015.068.09.094.225.078l.035.003a.223.223 0 0 0 .088-.017c.015-.008.008-.017-.02-.028-.213-.128-.353-.248-.42-.36a1.122 1.122 0 0 0-.102-.114.671.671 0 0 1 .062-.159.124.124 0 0 0 .01-.034c-.018-.028-.064-.055-.14-.081Zm1.74.87c.04.008.108.011.203.01l.123.007c.053.006.081-.004.085-.031 0-.036-.025-.06-.074-.07a.903.903 0 0 0-.171.008c-.069.01-.121.014-.159.015.018-.151.038-.263.06-.334l.022-.072.012-.04c-.018-.047-.083-.082-.193-.104-.028.007-.031.031-.01.074.015.034.023.06.025.084.01.144-.022.469-.099.977l-.258-.009.004-.163c.008-.176.016-.285.024-.324a.514.514 0 0 1 .016-.067c.007-.017.008-.03.004-.04a.327.327 0 0 0-.165-.095c-.032-.004-.034.02-.008.068.018.035.03.06.031.078.012.093.01.273-.007.537-.106.007-.21.004-.313-.009-.054-.001-.075.006-.064.021a.504.504 0 0 0 .138.049c.213-.006.438-.004.673.01.107.009.216.022.323.038.103.011.2.028.294.048.076.013.107-.004.094-.05a.198.198 0 0 0-.151-.1 2.139 2.139 0 0 0-.198.004l-.335.002.074-.522Zm-2.32-.786c.072.098.135.154.187.165.069-.02.078-.06.028-.126-.155-.076-.225-.09-.215-.04Zm.249.291a.616.616 0 0 0-.096.015 2.31 2.31 0 0 1-.558.059c-.033.003-.035.015-.008.034a.246.246 0 0 0 .11.066 2.03 2.03 0 0 0 .24-.055c.014.187-.117.397-.391.63-.039.026-.039.034-.001.027a.836.836 0 0 0 .443-.444.184.184 0 0 1 .027.009c.057.024.087.042.092.051.007.033-.008.097-.045.195-.036.093-.066.144-.09.157a.338.338 0 0 1-.059-.016c-.066-.027-.09-.03-.075-.01a.36.36 0 0 1 .074.145c0 .01.001.013.006.013.036.016.077.002.125-.04a.53.53 0 0 0 .098-.19c.032-.108.064-.185.094-.233.003-.014.007-.023.007-.027a.17.17 0 0 0-.083-.086.115.115 0 0 1-.034-.008.825.825 0 0 1-.1-.012.168.168 0 0 1 .028-.045c.015-.024.021-.039.016-.048.006-.008-.025-.033-.09-.073a2.06 2.06 0 0 1 .312-.031c.046.004.065-.01.057-.037-.016-.028-.05-.045-.099-.046Zm.248.44.02.028c.075.094.125.14.148.136.063-.028.076-.072.034-.133-.146-.063-.214-.072-.202-.031Zm-.056.29c.096.134.179.218.244.249.07-.028.078-.082.024-.161a.916.916 0 0 0-.2-.1c-.062-.017-.084-.013-.068.011Zm-2.012-.174c.066-.008.137-.02.213-.038.068-.008.1-.023.099-.045-.006-.027-.04-.039-.104-.035a.327.327 0 0 0-.06.009.901.901 0 0 0-.147.028.36.36 0 0 1 .014-.11.042.042 0 0 0-.002-.034.39.39 0 0 0-.18-.057c-.018.001-.017.018.004.054.03.057.047.115.05.174-.04.005-.094.016-.162.028a2.599 2.599 0 0 1-.12.02c-.067.017-.055.032.036.046a.974.974 0 0 0 .25-.02l.02.229c-.186.028-.36.051-.526.068a.275.275 0 0 1-.06.01c-.064.008-.088.019-.074.032.024.007.07.016.144.025a4.784 4.784 0 0 1 1.207-.104c.077 0 .103-.02.079-.065-.035-.043-.094-.066-.181-.072a.84.84 0 0 0-.072.011c-.118.025-.257.05-.418.076l-.01-.23Zm-2.358-.68c-.022-.003-.026.009-.016.033.015.03.042.06.08.091.023.023.045.03.066.02.02-.01.029-.03.027-.06-.019-.055-.07-.083-.157-.085Zm.354.411a.943.943 0 0 0 .223-.045c.037-.03.011-.042-.074-.04a.802.802 0 0 0-.078.014.234.234 0 0 1-.069.019.093.093 0 0 1 .01-.04c.003-.013.004-.024.003-.033-.001-.013-.013-.027-.036-.043.153-.03.253-.051.3-.064.025-.012.031-.027.016-.047a.145.145 0 0 0-.087-.013.923.923 0 0 1-.044.011c-.16.049-.343.086-.548.112-.038.008-.042.019-.01.034.025.01.066.013.117.01a.755.755 0 0 0 .108-.017c.024.02.043.057.056.113a3.2 3.2 0 0 1-.192.035c-.024.015-.011.028.041.036a.678.678 0 0 0 .161-.02l.01.109a3.444 3.444 0 0 1-.321.046c-.033.013-.032.025.003.039a.452.452 0 0 0 .138.002 1.204 1.204 0 0 0 .185-.029l.013.24a.332.332 0 0 0-.056.01 7.624 7.624 0 0 1-.585.07c-.03.002-.036.013-.018.028.033.026.07.045.11.056.003-.002.02-.005.051-.012.116-.05.395-.1.836-.155.112-.01.248-.013.409-.01.012 0 .02-.002.02-.002.046-.008.048-.031.006-.072a.205.205 0 0 0-.145-.039c-.023.001-.08.013-.174.034-.076.02-.127.03-.153.033.06-.057.102-.1.126-.127.015-.019.01-.034-.018-.045a.183.183 0 0 0-.117-.015c-.018.001-.02.012-.01.033.01.024.013.044.01.057a.489.489 0 0 1-.06.115l-.14.026-.008-.233a5.28 5.28 0 0 0 .345-.062c.034-.012.041-.026.022-.04-.022-.012-.059-.016-.111-.011-.008 0-.037.004-.083.014-.064.01-.124.018-.179.028l-.003-.11Zm-.215.31c-.023-.023-.064-.037-.126-.04-.022 0-.02.022.006.064.034.052.063.08.084.084.047-.022.058-.058.036-.108Zm.455.22a1.71 1.71 0 0 0-.14.032c-.13.034-.244.06-.337.082-.033-.023-.064-.032-.093-.025-.021.006-.02.021.004.045.014.02.03.064.05.133.012.046.025.086.037.12.016.037.035.057.057.06.015-.007.02-.029.013-.066l.154-.02c.192-.03.32-.046.379-.052.017-.006.018-.016.003-.027a.118.118 0 0 0-.06-.034.273.273 0 0 1 .11-.139c.021-.014.01-.036-.03-.062a.327.327 0 0 0-.147-.046Zm-.462.151c.01 0 .038-.004.084-.014a2.36 2.36 0 0 1 .346-.055c.017-.002.025.02.025.062a.258.258 0 0 1-.035.12l-.377.077-.043-.19Z" clip-rule="evenodd"/><path fill="#2C3563" fill-rule="evenodd" d="M46.03 68.158c.197-.214.256-.401.257-.575.002-.204-.104-.315-.205-.435a1.513 1.513 0 0 1-.274-.42c-.047-.121-.028-.316.034-.512a.943.943 0 0 1 .866-.652h.904l.005-.47c.007-.283-.145-.528-.253-.788a1.49 1.49 0 0 1-.122-.603l.02-1.127h.008c.102.165.203.33.307.49.13-.21.456-.361.836-.361.494 0 .896.253.896.562 0 .17-.122.323-.314.425v1.177c.08.096.153.195.217.299.137.22.209.48.16.744-.123.67-1.254 1.33-1.267 2.025-.002.14.006.463-.009.706-.005.112-.003.208-.033.263-.053.105-.157.126-.262.104-.225-.047-.523-.363-.728-.308-.18.047-.235.224-.265.397a2.858 2.858 0 0 1-.237.771 2.45 2.45 0 0 1-.356.538.49.49 0 0 1-.23.16.505.505 0 0 1-.3-.004c-2.423-.691-5.242-.691-7.666 0a.505.505 0 0 1-.3.005.487.487 0 0 1-.228-.161 2.368 2.368 0 0 1-.356-.538 2.82 2.82 0 0 1-.238-.77c-.03-.174-.085-.35-.266-.398-.205-.055-.502.26-.726.308-.106.022-.21 0-.264-.104-.029-.055-.028-.15-.034-.263-.014-.243-.004-.567-.008-.706-.013-.695-1.143-1.355-1.265-2.025a1.048 1.048 0 0 1 .158-.744c.065-.104.14-.203.217-.299v-1.176c-.19-.103-.313-.256-.313-.426 0-.31.402-.562.895-.562.382 0 .707.15.837.361.103-.16.206-.325.307-.49h.009l.018 1.127a1.49 1.49 0 0 1-.121.603c-.107.26-.26.505-.253.788l.005.47h.903c.363 0 .748.263.868.652.06.196.08.391.033.511-.06.158-.166.293-.274.421-.1.12-.207.231-.206.435.002.174.063.365.26.581 2.994-.65 5.326-.652 8.354-.006Zm-.367 2.212c.083.025.173.03.21-.103.174-.482-.031-1.087-.013-1.569a.91.91 0 0 1 .074-.357c-2.798-.632-5.356-.632-8.163 0 .049.108.07.228.075.357.018.482-.188 1.087-.014 1.569.037.133.127.128.21.103 2.426-.665 5.194-.664 7.621 0Zm-7.98-.024c-.116-.23-.112-.557-.082-.884.031-.338.086-.676.042-.908-.033-.163-.11-.224-.197-.35-.215-.306-.34-.71-.096-1.022.158-.204.381-.38.382-.585.002-.235-.06-.717-.59-.826l-1.125-.006c-.046.203-.094.71.014.891.169.292.386.652.41 1.085l.02.807.033-.01s.318-.12.477.208c.106.22.11.505.189.744.067.21.18.439.314.614.043.058.162.222.208.242Zm-1.783-4.62c.001-.087.007-.531.018-.76.01-.23.151-.444.248-.667.071-.163.102-.331.118-.513.02-.215.013-.448.013-.7 0 0-.334.556-.817 1.166-.248.314-.63.648-.832.973-.12.192-.256.548-.091.851.049.088.107.173.171.256l-.004-.008s.71.005 1.176-.599Zm-1.03.776c.375.427.853.84.9 1.438.002.104-.026.8.034.864.03.028.084.059.17.012 0 0 .158-.113.329-.2a44.262 44.262 0 0 0-.03-.83 1.802 1.802 0 0 0-.3-.878c-.157-.23-.202-.545-.173-.812 0 0-.463.327-.93.406Zm.026-1.846c.187-.204.384-.401.548-.61.08-.1.156-.203.23-.306h-.778v.916Zm.914-1.11c.07-.1.138-.202.204-.305-.023-.212-.353-.381-.723-.381-.383 0-.725.183-.725.407 0 .105.077.201.198.275.044.019.089.03.132.033h.85c.026 0 .041-.016.064-.028Zm10.213 6.8c.116-.23.11-.557.081-.884-.03-.338-.086-.676-.04-.908.03-.163.108-.224.196-.35.215-.306.339-.71.095-1.022-.159-.204-.382-.38-.383-.585-.001-.235.062-.717.591-.826l1.125-.006c.046.203.093.71-.013.891-.17.292-.387.652-.41 1.085l-.022.807-.032-.01s-.317-.12-.476.208c-.107.22-.11.505-.19.744-.067.21-.18.439-.313.614-.044.058-.163.222-.209.242Zm1.781-4.62c0-.087-.005-.531-.016-.76-.011-.23-.153-.444-.25-.667-.07-.163-.1-.331-.117-.513-.02-.215-.013-.448-.013-.7 0 0 .334.556.816 1.166.249.314.631.648.834.973.118.192.255.548.09.851a1.962 1.962 0 0 1-.171.256l.003-.008s-.709.005-1.175-.599Zm1.03.776c-.373.427-.852.84-.9 1.438-.001.104.027.8-.034.864-.03.028-.084.059-.17.012 0 0-.158-.113-.328-.2.005-.143.014-.473.032-.83a1.8 1.8 0 0 1 .297-.878c.159-.23.203-.545.174-.812 0 0 .463.327.93.406Zm-.025-1.846c-.186-.204-.384-.401-.548-.61-.08-.1-.157-.203-.23-.306h.778v.916Zm-.915-1.11c-.07-.1-.137-.202-.204-.305.024-.212.355-.381.723-.381.385 0 .726.183.726.407 0 .105-.076.201-.199.275a.42.42 0 0 1-.131.033h-.85c-.026 0-.041-.016-.065-.028ZM81.065 68.044c-.089-.033-.153-.028-.216-.05-.055-.021-.109-.027-.167-.07a.273.273 0 0 1-.071-.07c-.002-.005-.054-.059-.08-.156-.013-.044-.011-.14-.02-.167-.015-.06 0-.156-.002-.161-.004-.104-.058-.284.002-.56.043-.196.095-.386.137-.579.052-.245.129-.654.193-.89a3.3 3.3 0 0 1 .435-.917c0-.021.02-.021.042-.021.04-.103.082-.208.145-.29.164-.33.341-.657.5-.98 0-.128.124-.276.16-.42a.777.777 0 0 0 .026-.304c-.02-.02.004-.154-.018-.154-.041-.063-.052-.145-.072-.187-.02-.063-.023-.03-.045-.093a.356.356 0 0 0-.089-.108c-.036-.03-.061-.068-.09-.108-.027-.042-.052-.106-.076-.15-.032-.053-.05-.13-.059-.275 0-.266.001-.542.025-.764.009-.073-.004-.136.016-.184 0-.062 0-.125.021-.187 0-.02.021-.042.042-.063 0-.167.114-.554.114-.616a.334.334 0 0 1 .084-.145c0-.063.02-.104.041-.146a.644.644 0 0 1 .105-.208c.014-.016.01-.063.021-.096.005-.012.006-.024.016-.042.083-.104.003-.03.085-.133 0-.07.04-.093.05-.109.018-.027.012-.023.05-.087.105-.188.152-.172.225-.2.043-.017.083-.118.184-.182.062-.02.165-.123.228-.123.063-.021.265-.096.326-.096.063 0 .139-.014.224.007.11.042.174.054.238.078.135.053.385.306.412.455.044.244.075.185.088.266.01.066.039.099.098.282.034.105.161.348.232.491.055.112.017.184.053.244 0 .29.018-.021-.036.318a.431.431 0 0 0-.083.167c-.084.152-.17.177-.284.252-.107.07-.207.15-.296.25a.881.881 0 0 0-.11.25c-.007.091-.011.214-.02.278-.041.275-.079.73-.079.823a5.976 5.976 0 0 0-.082.644 7.903 7.903 0 0 0-.063.334c-.021.145-.042.291-.062.457-.021.02-.043.042-.043.063-.02.042-.02.104-.02.167l-.126.437c-.103.332-.247.727-.331 1.059v.063c-.021.02-.042.04-.042.062-.02.063-.041.124-.041.188-.083.145-.167.312-.25.478a1.964 1.964 0 0 0-.209.354c-.35.439-.582 1.34-1.116 1.588-.06.029-.245.023-.32.036ZM92.938 54.931c.125 0 .267.202.413.202.062.021.044.092.127.113.104.062.15.157.275.22.063.042.126.082.187.124.126.083.121.059.204.246.063.064.188.075.272.158.061.063.124.119.207.202 0 .02.021.042.041.083.043.041.085.083.146.124 0 .021.022.042.043.084.083.062.166.145.27.229l.27.27c.126.104.25.236.395.36.063.022.17.214.231.256.146.124.183.228.33.373.103 0 .207.167.29.25.041.063.105.126.166.209.042.042.084.104.125.167a.523.523 0 0 1 .125.103c.042.083.105.188.167.29l.187.438c0 .125 0 .27.021.417 0 .291.02.603.042.915a.589.589 0 0 0-.042.209c-.02.166.024.245.003.431a.303.303 0 0 0-.042.146c-.042.146-.062.292-.083.438a3.644 3.644 0 0 0-.083.52.373.373 0 0 0-.042.166v.208c-.02.042-.042.084-.042.125l-.062.5a.16.16 0 0 0-.042.103c-.042.188-.049.254-.09.462-.044.105-.059.23-.08.354-.042.062-.058.172-.08.253a3.16 3.16 0 0 0-.161.383c-.104.166-.21.332-.312.519-.022.02-.122.113-.122.155-.205.205-.217.255-.486.434-.022 0-.022 0-.022.02-.146 0-.536.354-.73.431-.208.209-.46.243-.622.405-.166.104-.145.138-.31.262-.023 0-.081.066-.081.066-.02.02-.188.135-.208.155a.44.44 0 0 0-.177.044.165.165 0 0 0-.104.04c-.083 0-.162-.025-.246-.003-.02 0-.136-.05-.136-.031-.17-.034-.248-.078-.382-.105-.16-.032-.22-.122-.354-.223-.02-.02-.02-.042-.02-.063-.104-.04-.036-.14-.055-.16a.67.67 0 0 1-.042-.171c.018-.124-.007-.173-.01-.273 0-.019-.022-.04-.02-.062 0-.042.02-.083.042-.104a.39.39 0 0 1 .042-.166c.04-.104.083-.188.146-.27.103-.147.358-.227.484-.373a.64.64 0 0 1 .165-.166 1.42 1.42 0 0 1 .167-.063c.021-.02.042-.041.063-.041.042 0 .043-.067.084-.067.042-.042.105-.063.167-.084.042-.02.063-.096.124-.117.084-.061.167-.124.251-.187a.998.998 0 0 1 .207-.208c0-.042.022-.063.043-.083.087-.177.235-.322.296-.469.113-.28.234-.512.381-.904 0-.04 0-.082.02-.124.022-.166.063-.333.104-.5.022-.103.042-.207.063-.31.089-.711.286-1.122.04-1.95-.108-.27-.256-.444-.404-.663-.098-.145-.21-.27-.329-.42-.062-.077-.116-.191-.191-.256a.354.354 0 0 0-.063-.084l-.188-.123c-.207-.188-.261-.33-.45-.496a6.936 6.936 0 0 1-.103-.104c-.02-.02-.02-.042-.02-.062a.912.912 0 0 1-.32-.35c-.043-.062-.11-.045-.15-.087-.086-.063-.169-.125-.251-.167-.104-.04-.143-.151-.227-.171-.239-.08-.667-.084-.857.008-.07 0-.341.086-.376.114-.043 0-.064 0-.083.021a1.31 1.31 0 0 0-.13.07c-.051.03-.148.056-.158.077a4.286 4.286 0 0 0-.53.277c-.207.145-.28.145-.466.291-.021.021-.06.025-.06.046-.04 0-.19.084-.21.105-.02 0-.063.02-.063.042-.305.267-.53.334-.752.621-.04.052-.108.078-.166.136-.085.067-.1.107-.16.16-.099.088-.222.151-.31.206a.623.623 0 0 1-.117.062 1.47 1.47 0 0 1-.179.051c-.104.023-.225.075-.377.089-.166 0-.196-.007-.238-.028l-.227-.003c-.146-.063-.121-.004-.245-.067-.146-.104-.22-.07-.344-.153-.02-.02-.168-.04-.188-.06 0-.022-.112-.043-.112-.043-.02-.02-.04-.04-.063-.04-.02-.022-.213-.136-.213-.156-.083-.188-.141-.026-.225-.193-.042-.125-.115-.085-.136-.19 0-.145-.066-.27-.066-.395 0-.437.109-.736.254-.923.23-.208.34-.343.694-.343.124-.014.273.018.421.037.077.01.144.015.216.007.207.016.266.027.337.023.055-.002.119-.003.25-.07.084-.082.294-.078.398-.14.041-.041.231-.162.336-.162.166-.187.439-.18.626-.346.02-.02.041-.04.082-.04.021-.022.042-.043.083-.064.355-.25.772-.436 1.147-.665.082-.04.304-.185.408-.227a.352.352 0 0 1 .146-.083c.094 0 .152-.055.24-.101a.666.666 0 0 1 .254-.089c.04-.026.107-.049.17-.075.05-.02.072-.043.115-.054.092-.026.07-.016.147-.065a.187.187 0 0 1 .056-.025c.025-.002.045-.014.061-.021l.058-.026c.049-.026.065-.01.119-.03.033-.013.04-.005.094-.005 0-.02.053-.006.074-.006.081 0 .26-.011.411-.011.12 0 .338.054.412.054ZM120.061 62.93s-.007-.148-.003-.165c0-.3.01-.242.003-.526 0-.142.016-.211.077-.342.021-.044.034-.152.055-.196.021-.038.04-.11.059-.151.063-.126.125-.243.133-.375.024-.064-.004-.236-.112-.298a1.352 1.352 0 0 0-.238-.105c-.084-.041-.316.018-.405.02-.063-.021-.217-.01-.259-.01-.148-.023-.308-.087-.351-.087-.097-.039-.497-.307-.509-.334a10.54 10.54 0 0 1-.186-.186c-.063-.105-.087-.111-.129-.215 0-.04-.066-.216-.07-.314-.002-.051-.016-.098-.018-.127-.009-.083.028-.101.068-.143 0-.042.041-.063.062-.083.334-.021.558-.08.89-.1.063-.041.224-.062.307-.082.025-.027.052-.024.105-.049.031-.015.071-.066.126-.066.167-.146.217-.143.382-.268.105-.061.209-.123.334-.165.125-.021.277-.152.402-.172.229 0 .336-.02.565-.02.042 0 .22.047.283.067.083.043.26.132.344.173.144.126.243.368.307.432.1.102.239.256.268.313 0 .063.067.125.088.209.012.06.001.098.028.239.021.102.029.214.045.267-.006.117.001.238-.038.38-.04.143-.074.362-.1.48-.052.248-.219.649-.317.854a1.097 1.097 0 0 0-.114.489c-.02.042-.02.084-.02.146 0 .166-.012 0-.012.168 0 .248-.015.086.006.336.02.082-.041.176.026.328.012-.011.015.19.05.181.153-.043.724-.207.895-.207 0-.021 0-.021.019-.021.146-.021.292-.021.438-.021.186.02.249.105.541.291.104.125.209.277.209.422 0 0 .02 0 .041.021.042.083.082.167.124.271v.208a1.607 1.607 0 0 0-.061.165c-.104.168-.07.224-.153.412-.045 0-.055.35-.087.39 0 .02.033.055.031.11 0 .073.106.228.12.403.012.173-.068.366-.141.512-.062.042-.103.103-.146.166-.125 0-.146.084-.187.104a.597.597 0 0 0-.207.084c-.146.02-.429.056-.554.077-.021.396-.021.79-.021 1.207-.02.062-.042.125-.062.208-.021.042-.021.105-.021.167a.403.403 0 0 0-.083.166l-.063.188a6.984 6.984 0 0 0-.249.394c-.062.063-.125.125-.188.21a2.269 2.269 0 0 0-.25.207c-.104.042-.186.105-.269.167a1.827 1.827 0 0 0-.355.082c-.165 0-.196-.014-.341-.014l-.312-.063c-.022 0-.154-.101-.175-.101-.105-.083-.074-.065-.16-.127-.134-.093-.272-.087-.408-.103-.031-.003-.062-.04-.092-.043-.086-.01-.171-.01-.256-.02-.067-.006-.133-.022-.2-.022-.02 0-.02 0-.02.021h-.479a1.1 1.1 0 0 0-.25-.083c-.042-.042-.084-.063-.124-.084-.167-.353-.083-.458-.083-.645 0-.084.02-.145.041-.209 0-.145.187-.29.27-.415.125-.124.25-.123.395-.248.146-.104.084-.146.23-.146.146-.104.312-.186.478-.27.041-.022.104-.125.166-.125a.374.374 0 0 1 .146-.096c.042-.02.087-.044.15-.044 0-.02.021-.041.042-.062 0-.042-.006-.091-.006-.112-.04-.042-.06-.084-.082-.125-.104-.062-.214-.078-.318-.119a.415.415 0 0 0-.21-.11c-.04-.02-.047-.138-.069-.138-.166-.041-.104-.208-.25-.229-.063-.042-.126-.062-.188-.083-.042-.042-.127-.018-.169-.04-.03-.02-.122.012-.208-.009-.207-.052-.163-.038-.274-.16l-.063-.187c-.019-.167.002-.236.002-.382 0-.04.021-.061.04-.082 0-.21.146-.355.209-.459 0-.042.021-.082.041-.103 0-.021.022-.021.042-.021a.417.417 0 0 1 .084-.167c.062-.083.125-.167.188-.229a.724.724 0 0 1 .228-.104c.124-.02.25-.02.396-.02.04-.043.183-.036.225-.055.021-.062-.035-.154.007-.195 0-.063-.025-.125-.004-.167-.021-.104-.042-.187-.042-.27 0-.104-.05-.318-.05-.422ZM121.2 57.22c.109-.114.015-.137.117-.236.123-.12.184-.237.206-.273.117-.114.169-.18.249-.294.091-.13.221-.204.37-.44.042-.063.114-.132.156-.195a.36.36 0 0 1 .031-.066.086.086 0 0 1 .047-.057.138.138 0 0 0 .054-.06c.022-.037.044-.08.084-.144.051-.08.164-.145.154-.166a2.818 2.818 0 0 0-.455.133c-.033.01-.068.02-.101.032-.098.035-.115.055-.231.068-.064.008-.126.018-.137.04-.021 0-.041.019-.063.04-.104.042-.186.09-.269.152-.063.042-.193.045-.235.107-.103.042-.099.099-.184.16-.104 0-.154.026-.237.026-.124-.104-.084-.085-.187-.166a2.333 2.333 0 0 1-.167-.313c-.02-.084-.042-.167-.042-.25-.041-.104-.061-.187-.083-.27a.646.646 0 0 1-.041-.167v-.333a.405.405 0 0 1 .063-.104c0-.208.145-.334.249-.478.021-.021.042-.042.084-.042 0-.082.051-.085.079-.096.035-.014.071-.033.113-.04.029-.008.064.004.099-.031.187 0 .352-.166.644-.229a.327.327 0 0 1 .146-.082c.084-.042.167-.084.27-.104.292-.188.666-.292 1.125-.292.061 0 .124 0 .207.02.125-.02.25-.04.376-.04a.296.296 0 0 1 .146-.043l.747-.062c.063-.063.708-.084.959-.084.083.021.186.042.291.084.054.054.122.108.194.161l.034.026c.017.019.016.02.023.024.008.005.027.009.039.026.01.001.023.006.035.008.115.024.232.055.361.088.042.042.104.084.167.124.083.167.167.334.271.5 0 .063.019.126.042.188v.395a.269.269 0 0 0-.042.125c-.031.022-.077.13-.156.233-.054.07-.129.139-.178.21-.045.067-.093.114-.113.154-.032.06-.064.121-.102.172-.045.061-.101.063-.2.08-.163.031-.109.022-.232.025-.106.003-.083-.026-.207.01-.042 0-.084-.019-.105.002-.103 0-.165-.01-.186.01-.164 0-.216-.005-.371.047-.133 0-.195.051-.294.132a.71.71 0 0 1-.156.096.595.595 0 0 0-.181.128c-.058.058-.107.053-.162.134-.094.133-.344.211-.394.262-.125.084-.18.131-.306.214-.152.13-.243.197-.317.244-.059.037-.126.079-.208.215-.02 0-.133.125-.133.125-.042.02-.234.132-.255.173-.129.043-.127.074-.186.139a.559.559 0 0 1-.14.117c-.04.021-.082.042-.103.063-.065.04-.149.124-.182.153-.161.135-.197.118-.238.128-.042.01-.11.05-.294-.008a1.807 1.807 0 0 1-.242-.092c-.043-.02-.054-.09-.112-.15-.074-.078-.101-.286-.005-.385ZM118.259 56.67a2.56 2.56 0 0 0-.291-.103c-.187-.105-.354-.209-.521-.313l-.166-.166c-.083-.146-.187-.312-.187-.438l-.022-.02c0-.228-.083-.589-.02-.713 0-.063 0-.125.02-.167 0-.042.021-.062.043-.083 0-.146.083-.23.103-.313.208-.27.354-.347.667-.514.042-.02.083-.04.125-.04.021-.022.04-.043.063-.043h.353c.042 0 .083.021.125.042.103 0 .269.041.478.167.146.145.291.29.458.436.042.062.104.146.166.229 0 0 .022 0 .042.022.062.103.146.208.23.333 0 .02.019.04.04.061.021.084.1.07.182.424-.021.02.004.103.004.145-.021.01 0 .286-.249.41-.269 0-.706.395-.936.52a8.56 8.56 0 0 0-.394.125h-.313ZM75.296 59.31c0 .292-.112.55-.217 1.008-.02.02-.041.041-.041.083a.652.652 0 0 0-.084.208l-.187.25c-.145.145-.505.479-.691.479-.042 0-.063.02-.083.04a6.284 6.284 0 0 0-.646.106c-.146 0-.27 0-.396.02-.124.062-.25.125-.353.208-.125.083-.25.188-.353.292-.042 0-.063.02-.084.042-.125.165-.334.25-.25.499a.41.41 0 0 1 .062.104c.084.063.168.124.272.186.02 0 .061 0 .103.023.083.061.354.145.645.373.042.063.104.126.167.187.021.104.041.21.083.334v1.081c-.02.042-.042.084-.042.126a.403.403 0 0 0-.04.166c-.084.124-.168.27-.25.416-.125.167-.251.333-.355.52-.02.021-.042.042-.042.063.105.104.25.02.437.146.063 0 .126.02.21.04.082.022.166.043.249.085.125.062.063.104.209.104.06.02.082.103.165.103.021.021.041.104.146.104.04.063.104.125.167.209.02.083.062.167.104.25 0 .063 0 .124.02.207a1.044 1.044 0 0 0-.041.27c0 .1-.038.205-.027.303.005.067.06.164.069.232.02.104.04.174.082.298 0 .063-.02.188.063.375 0 .02.021.291-.063.416a1.194 1.194 0 0 0-.103.292.426.426 0 0 0-.104.167l-.063.123c-.063.063-.067.2-.109.264a3.54 3.54 0 0 0-.29.125c-.083-.021-.205-.097-.267-.097-.25-.146-.417-.27-.5-.396-.312-.207-.56-.506-.747-.583-.042-.04-.1-.056-.141-.076-.084-.042-.3-.075-.362-.096-.31-.103-.347-.227-.575-.369-.257-.16-.21-.24-.516-.444-.082-.041-.145-.092-.208-.134-.083-.042-.594-.23-.681-.216-.146.084-.56.051-.685.135-.124.042-.297.07-.4.132-.063 0-.126.034-.168.055-.207.057-.13.149-.316.13-.085-.04-.145-.082-.208-.103-.313-.25-.222-.42-.306-.504 0-.395.26-.532.448-.72-.087-.105-.15-.064-.212-.14-.062-.02-.104-.042-.146-.042-.041-.063-.504-.177-.525-.24a.591.591 0 0 1-.042-.187c0-.103 0-.186.021-.27.167-.333.577-.428.848-.637.063-.04.53-.144.593-.165.124-.02.144-.02.29-.02 0-.022.106.028.126.028h.48l.02.02h.27c0-.02.02-.041.043-.041l.186-.062c.104-.084.209-.195.333-.257a.622.622 0 0 1 .208-.084c.062-.02.146-.02.229-.02l.021.02c.042-.02.104-.02.167-.02l.186-.126c.021-.061.072-.124.093-.186-.042-.062.036-.134.014-.197-.02-.021-.041-.021-.041-.021-.023-.084-.091-.136-.091-.199-.041-.042-.161-.082-.182-.105-.084-.02-.146-.02-.209-.02-.021.02-.17.004-.17.045a.942.942 0 0 0-.228.168c-.145 0-.164.058-.31.058-.083.021-.146.041-.206.062-.042.042-.146.021-.146.188-.022 0-.042 0-.042.02a1.333 1.333 0 0 0-.209.271c-.104.041-.186.104-.27.167-.125.02-.23.04-.333.083h-.583c-.062-.021-.125-.042-.166-.063a3.73 3.73 0 0 1-.23-.373 1.826 1.826 0 0 1-.103-.314c-.006-.032.11-.434.128-.485.146-.292.292-.438.52-.666.313-.395.541-.853.895-1.144h.042a1.22 1.22 0 0 1 .541-.27l.374-.25h.041l.75-.937a.436.436 0 0 1 .125-.084c.084-.04.167-.062.27-.083.041.015.193-.017.396.063h.397c.044-.02.22-.064.283-.12.06-.057.086-.128.128-.15.04-.061-.063-.16-.021-.2-.042-.064-.062-.127-.083-.189-.125-.02-.25-.02-.354-.02l-.02-.022c-.292 0-.896 0-.958.063-.291 0-.729.187-.894.354-.126 0-.396.312-.459.353-.105.084-.187.188-.27.292l-.125.187c-.02 0-.042 0-.042.02-.062.084-.125.167-.165.272-.022 0-.041 0-.041.02-.022.02-.022.042-.022.063-.022 0-.041.02-.064.042-.02.02-.04.04-.04.083-.21.207-.417.416-.603.623a3.211 3.211 0 0 0-.272.188c-.104.021-.187.042-.27.062-.312 0-.478-.146-.562-.187-.042-.041-.082-.084-.124-.105a.928.928 0 0 0-.063-.145.417.417 0 0 1-.083-.125c-.021-.104-.104-.294-.126-.398-.036-.103-.035-.488.08-.592.02-.084.12-.162.143-.224 0-.063.107-.097.107-.138 0-.063.057-.074.078-.116 0-.021.048-.055.042-.055 0-.062.121-.111.141-.153.063-.145.191-.16.275-.286.062-.145.195-.177.278-.302 0-.02.02-.02.04-.02v-.043c.168-.228.334-.457.501-.686.083-.145.333-.54.333-.646.02-.083.063-.144.103-.207 0-.167.251-.27.375-.334.042-.083.105-.166.166-.25 0-.02.022-.02.043-.02.28-.278.056-.15.016-.328 0-.042-.369.053-.348.032-.103.063-.252.037-.357.12-.145 0-.08-.058-.164.026a.641.641 0 0 0-.208.083c-.02 0-.043.021-.043.04a.567.567 0 0 0-.206.044c-.063.02-.074.093-.136.113-.145 0-.251.059-.377.08-.061 0-.08.11-.122.129-.166 0-.25.09-.27.11-.292.084-.334.105-.562.25-.083.042-.167.056-.229.098-.069.038-.369-.037-.48-.074-.023.103-.086.228-.086.353-.04.209-.09.416-.133.646l-.123.25c-.043.125-.063.27-.084.416-.042.125-.091.2-.111.346-.022.02-.077.104-.049.125-.021.063-.056.132-.056.216-.04.125-.15.34-.17.464-.042.125-.062.25-.083.375-.021.02-.042.04-.042.083-.04.103-.062.208-.083.312a.739.739 0 0 0-.042.229c-.02.042-.083.124-.083.27-.063.125-.166.292-.166.459a.157.157 0 0 0-.042.103.45.45 0 0 0-.083.125c-.063.209-.063.365-.124.573-.022.02-.022.063-.022.104-.04.084-.063.187-.083.291-.02.021-.04.042-.04.063a.581.581 0 0 0-.044.208c-.02.02-.042.042-.042.063-.02.082-.04.166-.06.27-.023.041-.044.083-.063.125-.021.042-.021.083-.021.125-.021.02-.042.04-.042.063-.041.103-.063.207-.083.332-.042.083-.053.187-.094.292-.022.062-.088.246-.088.329a.424.424 0 0 0-.074.272.726.726 0 0 0-.082.228 1.1 1.1 0 0 0-.083.25c-.021.02-.043.042-.043.061-.02.042-.02.084-.02.126-.021 0-.042.02-.042.041-.041.146-.145.292-.145.459-.042.061-.085.124-.105.186-.02.042-.02.084-.02.125-.106.188-.292.458-.292.687-.208.416-.198.618-.404 1.033-.084.104-.213.39-.275.494v.042c-.105.145-.203.236-.287.381a.66.66 0 0 0-.166.167c-.02.042-.042.105-.061.166-.023 0-.042 0-.042.021-.021.02-.021.042-.021.062-.125.146-.168.292-.272.438-.084.061-.146.124-.209.186-.083.042-.066.084-.128.126-.105 0-.154.156-.237.177-.105-.041-.16.026-.243-.015-.166-.126-.32-.462-.32-.607l-.062-.125c0-.166-.039-.25-.039-.394.042-.146.112-.144.153-.267.063-.063.116-.228.177-.269.126-.187.206-.443.352-.61.145-.291.354-.687.396-.936.021-.04.04-.083.062-.125.042-.146.083-.27.125-.395.04-.167.082-.313.145-.457 0-.21.125-.375.125-.438.021-.083.042-.167.083-.228 0-.021.021-.042.042-.042.042-.125.083-.229.125-.334.042-.125.084-.248.125-.374 0-.062.02-.125.042-.166a.27.27 0 0 1 .063-.084c0-.144.06-.228.082-.27.063-.167.124-.333.187-.479.042-.124.083-.25.146-.374 0-.063.02-.125.042-.188l.062-.125a7.52 7.52 0 0 1 .063-.27c0-.021.02-.041.041-.062 0-.063 0-.125.02-.167l.063-.188c0-.311.104-.54.125-.727 0-.042.021-.063.042-.083l.062-.313a.739.739 0 0 1 .084-.188c0-.061 0-.103.02-.145l.063-.125c.063-.187.124-.353.188-.52 0-.02.02-.041.04-.062 0-.146.042-.353.126-.48.02-.145.041-.27.062-.395.021-.248.042-.499.084-.748 0-.292 0-.52.062-.582 0-.355.076-.648.158-.813 0-.084 0-.146.021-.21 0-.04.021-.061.042-.082.021-.084.041-.167.083-.25a.163.163 0 0 1 .084-.084c0-.145.112-.264.175-.368 0-.021 0-.042.02-.062a5.31 5.31 0 0 1 .324-.349c.063-.061.269-.103.352-.145.21-.026.54.065.563.06 0-.107.158-.22.242-.308.139-.143.155-.049.382-.237h.04c.023-.021.042-.041.063-.062.104-.063.35-.15.474-.193.062-.062.2-.186.283-.228.125-.083.277-.246.422-.308.125-.042.385-.158.509-.179 0-.02.352-.06.291-.034.056-.002.112-.007.17-.01.093-.006.186-.012.28-.012h.178c.184 0 .12-.022.272-.081.064-.025.124-.053.18-.08.058-.029.127-.06.179-.09.054-.032.093-.053.15-.088.013-.01.053-.032.068-.04.044-.029.065-.058.114-.088a.662.662 0 0 1 .256-.105c.09-.015.175-.02.29-.01.139.012.32.042.527.085.12.01.168.037.231.04.091.006.179-.012.222-.01.071.004.107-.012.272-.012.01 0 .036.014.053.012a4.19 4.19 0 0 0 .223-.045c.08-.018.163-.037.222-.047a.694.694 0 0 1 .05-.007l.077-.029.135-.047c.307-.108.542-.174.624-.129.089.03.143.087.153.135.006.028 0 .068-.035.132-.026.045-.063.123-.046.17.016.045.017.058.053.106.046.063.014.253-.004.303-.03.085-.076.162-.114.241-.043.088-.08.178-.13.255a2.57 2.57 0 0 1-.19.271c-.04.046-.08.088-.117.127-.046.042-.098.094-.157.15-.044.043-.092.088-.138.136-.24.243-.544.515-.685.715-.105.097-.331.452-.414.563-.042.042-.028.07-.028.216.022.021.063.013.104.033h.209c.104-.04.207-.054.31-.096a.798.798 0 0 1 .23-.104c.084-.061.188-.124.292-.165.25-.063.45-.089.845-.047.105.02.362.175.486.217.126.125.291.062.437.208.063 0 .313.166.418.27.083 0 .27.145.352.229.021.02.097.05.14.092.217.327.124.42.124.77ZM70.074 53.932c-.061-.021-.102-.042-.145-.042a1.56 1.56 0 0 0-.312-.041l-.125-.063c-.062-.021-.104-.021-.145-.021-.02-.021-.297-.042-.316-.042-.21.02-.345.049-.532.07-.325 0-.422.08-.76.094-.107.005-.203.004-.267.004-.103-.001-.19-.022-.309-.022a1.911 1.911 0 0 0-.228-.104c-.083-.042-.33-.055-.392-.076-.02-.021-.042-.042-.042-.062-.083-.063-.167-.066-.229-.108-.084-.146-.084-.083-.146-.146-.04-.104-.084-.208-.103-.311 0-.104.02-.152.042-.256.02-.083.04-.146.061-.209.125-.145.271-.222.417-.368.02-.021.04-.042.083-.042 0-.02 0-.041.02-.041.146-.084.292-.097.438-.18h.063a.754.754 0 0 1 .227-.103c.063-.042.154-.047.238-.068.041-.021.104-.021.167-.021a.619.619 0 0 1 .373-.104c.042-.02.105-.042.168-.063.062-.02.145-.02.229-.02 0-.02.02-.02.04-.02.292-.022.576-.038.867-.038 0-.021 0-.02.021-.02.292-.022.582-.042.894-.063.126-.02.25-.042.375-.063.083-.083 1.031-.11 1.28-.11a.59.59 0 0 1 .187.04.58.58 0 0 1 .19.021c.02 0 .04.021.082.042h.124c.063.021.145.062.23.104.102.062.207.077.333.161.04.062.104.146.166.229.02.084.04.166.084.25 0 .103 0 .208.02.332-.02.063-.041.09-.041.172-.023.021-.042.042-.042.084v.125a.95.95 0 0 0-.063.146 1.858 1.858 0 0 0-.187.207 1.08 1.08 0 0 0-.188.146c-.167 0-.412.141-.598.141a.417.417 0 0 0-.167.084c-.167 0-.27.083-.353.125-.146 0-.167.04-.292.104-.083 0-.167.02-.25.042a.169.169 0 0 0-.104.04c-.166.022-.312.043-.457.064h-.626ZM110.497 67.16c-.131-.045-.089.005-.22-.07-.051-.022-.125-.142-.125-.163-.051-.082-.174-.254-.195-.326-.103-.23-.207-.336-.31-.565a5.057 5.057 0 0 1-.173-.373c-.082-.167-.208-.396-.354-.52-.166-.126-.286-.355-.43-.458a5.09 5.09 0 0 0-.209-.146c-.042-.042-.121-.078-.144-.12a.424.424 0 0 1-.095-.06c-.066-.056-.134-.085-.134-.113-.02-.02-.042-.02-.042-.02-.021-.063-.185-.166-.206-.209-.021-.02-.042-.02-.042-.02-.042-.104-.119-.164-.161-.247-.042-.064-.031-.1-.051-.142a.449.449 0 0 1-.037-.135c-.02-.041.014-.212.014-.253.017-.077.119-.261.136-.308.04-.105.021-.133.126-.25.062-.02.264-.032.431-.032.042-.019.164-.005.255-.002.117.005.233.035.315.035.148.037.128.066.244.094.063.02.225.099.309.12.061.02.171.024.234.044.078.007.229.013.32.021.204.02.169.01.354.025.025.008.203.07.322.154.11.078.191.103.246.138a.387.387 0 0 0 .07.039c.063.02.211.092.274.112.06.045.117.064.182.103.126.072.095.07.188.129.111.071.154.189.184.261.022.028.054.2.06.226.025.125.027.24.043.369 0 .027-.023.157-.05.265-.04.155.001.205-.068.352.014.056.018.227.037.25.023.031.014.205.018.247.008.11-.068.35-.075.487-.009.192-.087.173-.141.281-.029.02.004.016-.137.179-.063.015-.36.416-.394.458-.018.023-.2.116-.202.116-.014 0-.156.017-.174.017-.019.001-.167.01-.193.01ZM103.503 65.978c-.083-.021-.28-.154-.343-.154-.062-.041-.146-.12-.209-.161-.082-.167-.107-.152-.191-.298-.069-.046-.119-.248-.119-.27 0-.394.02-.644.166-.853.104-.165.229-.332.353-.478.084-.167.167-.334.271-.5 0-.041 0-.062.021-.083.083-.459.416-.812.687-1.165.063-.229.124-.334.124-.541-.021-.02-.042-.041-.042-.063-.04-.041-.082-.062-.124-.083-.062-.02-.125-.041-.167-.041-.062-.042-.124-.084-.166-.105-.188-.04-.312-.208-.458-.208-.208-.145-.395-.374-.415-.437-.021-.062-.021-.104-.021-.146 0-.332 0-.603.083-.77.021-.082.04-.166.061-.228.042-.083.105-.167.168-.25.124-.084.103-.145.27-.145.042-.042.124-.104.312-.104a.156.156 0 0 1 .104-.042c.042-.021.084-.021.146-.021.104-.104.998-.083 1.186-.083a.257.257 0 0 1 .104-.105c0-.125.016-.248.036-.353l-.02-.021v-.25c-.021-.104-.033-.208-.052-.29-.23-.063-.214-.271-.256-.313 0-.167 0-.313.022-.458.062-.396.187-.624.312-.853.063-.084.125-.167.186-.23.063-.082.146-.145.23-.207.062-.021.104-.125.334-.125.06-.063.29-.04.436-.04.083.04.165.082.251.123.04.042.102.084.165.146.004 0 .202.244.26.303.144.142.267.268.435.679.021.105.063.208.105.312.02.188.006.441.048.65 0 .125-.049.338-.029.484.052-.022.141-.044.252-.088.036-.014.091-.052.126-.064.071-.026.14-.07.193-.076.049-.016.104-.081.143-.09.051-.015.128-.09.192-.132.12-.083.154-.095.168-.095.065-.028.109-.084.165-.101.029-.01.054-.033.073-.04.068-.028.02-.048.192-.085.049 0 .223-.001.286.006.04.003.118.018.15.046.01.01.06.03.106.07.058.052.072.073.144.18.021.03.123.063.139.098.026.037.033.066.046.089.058.099.047.084.1.137.032.025.044.06.092.088.028.017.086.025.118.046.094.065.193.104.261.154.064.05.132.096.224.183a.445.445 0 0 1 .164.256c.007.03.004.062.004.093-.006.035-.005.071-.012.109a.832.832 0 0 1-.027.117l-.023.079c-.007.024-.005.052-.013.077-.006.02-.018.041-.027.062-.008.017-.014.032-.023.046-.006.008-.005.02-.013.027-.083.08-.156.088-.196.12-.085.069-.119.104-.177.133-.014.007-.05.04-.069.047-.041.016-.113.063-.153.088a.882.882 0 0 1-.098.051c-.052.023-.079.047-.13.072a4.989 4.989 0 0 0-.334.187c-.103.042-.178.054-.261.116-.043.02-.092.034-.134.076-.02.02-.218.064-.218.084-.207.095-.534.184-.857.304-.211.08-.47.106-.654.197-.145 0-.299.121-.445.203-.042 0-.063 0-.083.022a9.253 9.253 0 0 0-.221.141c-.074.052-.179.088-.23.141-.067.07-.135.177-.223.246-.057.056-.147.125-.187.228-.025.066-.057.118-.085.178a.471.471 0 0 1-.078.126c-.018.017-.038.05-.06.072-.005.004-.021.043-.042.07-.027.038-.059.067-.062.074-.062.084-.125.167-.166.27a6.076 6.076 0 0 0-.291.667c-.021.042-.021.084-.021.124-.09.09-.322.556-.322.643a.75.75 0 0 0-.105.229c-.021.084-.228.44-.249.545-.186.271-.189.308-.355.6-.146.125-.156.148-.301.273-.084.02-.294.156-.378.198-.187 0-.112.039-.279.06ZM64.148 72.42h-1.432v.093h.071c.235.03.353.1.353.212 0 .108-.08.241-.235.397l-.68.846-.26-.376c-.374-.516-.547-.806-.514-.867-.033-.141.108-.212.42-.212h.048v-.094h-1.807v.094c.204.016.36.078.469.187.14.126.344.384.611.776l.657.96-.938 1.15c-.284.346-.455.532-.518.565-.077.078-.195.117-.351.117v.116h1.384v-.116c-.298 0-.445-.071-.445-.211 0-.064.078-.211.233-.446a1.76 1.76 0 0 1 .072-.07l.727-.892.563.843c.203.299.305.487.305.565.031.14-.11.21-.422.21h-.047v.117h1.783v-.116c-.25.015-.469-.133-.655-.447l-1.153-1.642.868-1.103c.19-.218.337-.368.448-.446.108-.078.256-.117.445-.117v-.094Zm.56 3.964h1.782v-.116c-.25 0-.407-.032-.468-.095-.079-.078-.117-.227-.117-.445v-2.676c0-.219.038-.36.117-.422.061-.063.218-.101.468-.117v-.094h-1.783v.094c.25.016.406.054.469.117.063.047.096.188.096.422v2.676c0 .234-.033.384-.096.445-.078.063-.233.095-.469.095v.116Zm6.423-.116c-.155-.017-.257-.047-.303-.095-.063-.061-.142-.203-.237-.422l-1.5-3.426h-.118L67.73 75.28a1.23 1.23 0 0 0-.047.12c-.187.405-.32.656-.398.75a.533.533 0 0 1-.305.117v.116h1.195v-.116c-.28.015-.422-.071-.422-.258 0-.048.017-.118.048-.212l.281-.704h1.573l.257.563c0 .016.008.056.025.118.046.125.07.212.07.257.015.173-.125.251-.424.236v.116h1.55v-.116Zm-2.957-1.432.705-1.642.681 1.642h-1.386Zm8.516-2.417h-1.197l-1.339 3.027-1.383-3.027h-1.173v.094c.25.016.405.054.468.117.063.062.094.203.094.422v2.44c0 .314-.039.518-.117.611-.062.11-.22.165-.47.165v.116h1.409v-.116c-.236-.017-.384-.071-.447-.165-.078-.11-.116-.312-.116-.61V73.1h.023l1.478 3.284h.094l1.526-3.426h.023v2.699c0 .25-.032.407-.094.47-.078.078-.234.124-.47.14v.117h1.69v-.116c-.219-.017-.36-.055-.422-.117-.063-.063-.093-.205-.093-.423v-2.676c0-.203.03-.344.093-.422.047-.063.187-.101.423-.117v-.094Zm4.03 2.957h-.164c-.141.313-.298.516-.469.61-.187.11-.47.165-.846.165-.485 0-.75-.008-.796-.024-.095-.015-.133-.087-.12-.211v-1.503l.94.024c.252 0 .415.031.494.094.077.063.133.22.163.47h.142v-1.409h-.141c-.03.266-.087.423-.164.47-.079.079-.242.117-.493.117h-.94v-1.338c0-.156.072-.227.212-.21h.798c.36 0 .587.039.68.116.126.08.203.25.235.518h.164l-.022-.846h-3.194v.094c.237.016.377.054.424.117.063.078.094.22.094.422v2.676c0 .218-.031.36-.094.423-.062.062-.203.1-.424.117v.116h3.24l.281-1.008Zm4.618-2.957H83.93v.094c.25.016.398.07.446.164.077.11.115.312.115.61v2.019l-2.297-2.887H81.16v.094c.188-.031.384.078.587.328v2.651c0 .314-.039.518-.118.611-.06.11-.218.165-.469.165v.116h1.409v-.116c-.236-.017-.384-.071-.447-.165-.078-.11-.116-.312-.116-.61V73.17h.023l2.629 3.238h.118v-3.121c0-.298.038-.5.115-.61.048-.094.196-.148.446-.164v-.094Zm7.3 0h-1.386v.094c.234.016.384.07.447.164.076.11.116.312.116.61v1.619c0 .423-.045.697-.14.822-.189.297-.516.454-.986.469-.719 0-1.063-.406-1.033-1.22v-1.925c0-.219.03-.36.095-.422.062-.063.21-.101.445-.117v-.094h-1.688v.094c.25.016.398.054.445.117.062.062.095.203.095.422v1.878c-.018 1.002.475 1.501 1.476 1.501 1.064 0 1.582-.524 1.549-1.57v-1.574c0-.312.04-.509.118-.587.046-.11.196-.171.446-.187v-.094Zm4.64 0H95.87v.094c.251.016.4.07.446.164.078.11.118.312.118.61v2.019l-2.3-2.887h-1.032v.094c.187-.031.383.078.586.328v2.651c0 .314-.038.518-.116.611-.062.11-.22.165-.47.165v.116h1.408v-.116c-.235-.017-.383-.071-.446-.165-.078-.11-.117-.312-.117-.61V73.17h.023l2.628 3.238h.118v-3.121c0-.298.038-.5.117-.61.046-.094.195-.148.445-.164v-.094Zm.489 3.965h1.783v-.116c-.25 0-.406-.032-.469-.095-.077-.078-.115-.227-.115-.445v-2.676c0-.219.038-.36.115-.422.063-.063.22-.101.469-.117v-.094h-1.783v.094c.25.016.407.054.47.117.062.047.094.188.094.422v2.676c0 .234-.032.384-.094.445-.078.063-.235.095-.47.095v.116Zm6.355-3.965h-1.22v.094c.312.016.461.109.444.282 0 .063-.022.163-.069.305a.405.405 0 0 0-.047.117l-.891 2.206-.915-2.042a3.24 3.24 0 0 1-.119-.28c-.078-.19-.116-.306-.116-.354-.032-.156.116-.234.446-.234v-.094h-1.596v.094c.156.016.274.062.351.14.079.08.174.244.282.494l1.479 3.26h.093l1.339-3.331c.095-.235.171-.384.234-.446.062-.063.164-.101.305-.117v-.094Zm4.032 2.957h-.165c-.14.313-.297.516-.469.61-.187.11-.47.165-.845.165-.484 0-.751-.008-.798-.024-.093-.015-.133-.087-.117-.211v-1.503l.938.024c.251 0 .415.031.494.094.078.063.134.22.164.47h.141v-1.409h-.141c-.03.266-.086.423-.164.47-.079.079-.243.117-.494.117h-.938v-1.338c0-.156.07-.227.21-.21h.799c.361 0 .587.039.681.116.124.08.203.25.234.518h.165l-.024-.846h-3.191v.094c.234.016.374.054.422.117.063.078.093.22.093.422v2.676c0 .218-.03.36-.093.423-.063.062-.204.1-.422.117v.116h3.239l.281-1.008Zm4.336.892c-.203 0-.384-.095-.54-.281l-1.221-1.527c.722-.108 1.08-.445 1.08-1.009-.014-.673-.524-1.016-1.524-1.032h-1.666v.094c.233.016.374.054.422.117.062.062.092.203.092.422v2.605c0 .267-.03.423-.092.47-.048.078-.189.124-.422.14v.117h1.666v-.116c-.22-.017-.368-.055-.446-.117-.063-.063-.093-.205-.093-.423v-1.173l.35-.024 1.408 1.853h.986v-.116Zm-2.744-3.427c-.033-.156.093-.227.374-.21.688 0 1.032.273 1.032.82 0 .611-.47.9-1.406.868V72.84Zm5.744-.516h-.118c-.016.14-.086.212-.211.212a.984.984 0 0 1-.236-.071c-.251-.095-.445-.141-.586-.141-.704.046-1.072.383-1.103 1.01-.03.453.281.852.939 1.196.406.235.672.422.797.563.141.125.204.29.189.493-.032.423-.274.642-.729.656-.547 0-.953-.35-1.22-1.055h-.14l.164 1.22h.142c.015-.078.076-.125.186-.14.047 0 .133.023.259.07.265.063.493.093.681.093.765-.03 1.187-.382 1.267-1.055-.11-.61-.485-1.049-1.127-1.314-.532-.235-.829-.548-.892-.94.016-.344.219-.531.611-.562.562.015.937.36 1.127 1.032h.141l-.141-1.267Zm1.073 4.06h1.784v-.117c-.251 0-.407-.032-.469-.095-.078-.078-.116-.227-.116-.445v-2.676c0-.219.038-.36.116-.422.062-.063.218-.101.469-.117v-.094h-1.784v.094c.25.016.407.054.47.117.061.047.094.188.094.422v2.676c0 .234-.033.384-.094.445-.078.063-.234.095-.47.095v.116Zm4.9-.117c-.25-.017-.415-.055-.492-.117-.063-.063-.094-.205-.094-.423v-3.075h.329c.344 0 .57.047.68.142.124.093.218.305.281.633h.141l-.047-1.009h-3.379l-.046 1.009h.14c.062-.328.157-.54.282-.633.108-.095.336-.142.679-.142h.329v3.004c0 .267-.031.423-.094.47-.063.078-.218.124-.469.14v.117h1.76v-.116Zm5.463-3.849h-1.315v.094c.282 0 .423.07.423.212 0 .061-.031.133-.094.21l-.869 1.362-.89-1.34a.468.468 0 0 1-.093-.257c-.018-.11.1-.171.349-.187h.072v-.094h-1.666v.094c.14 0 .266.054.374.164.11.11.306.375.587.799l.798 1.148v1.033c0 .283-.03.446-.093.494-.077.078-.25.117-.516.117v.116h1.83v-.116c-.266 0-.429-.032-.493-.095-.077-.061-.118-.21-.118-.445v-1.173l.892-1.338c.282-.484.556-.72.822-.704v-.094Z" clip-rule="evenodd"/></g><defs><filter id="a" width="154" height="157" x="0" y="0" color-interpolation-filters="sRGB" filterUnits="userSpaceOnUse"><feFlood flood-opacity="0" result="BackgroundImageFix"/><feColorMatrix in="SourceAlpha" result="hardAlpha" values="0 0 0 0 0 0 0 0 0 0 0 0 0 0 0 0 0 0 127 0"/><feOffset dy="16"/><feGaussianBlur stdDeviation="6.5"/><feColorMatrix values="0 0 0 0 0 0 0 0 0 0 0 0 0 0 0 0 0 0 0.03 0"/><feBlend in2="BackgroundImageFix" result="effect1_dropShadow_185_50"/><feBlend in="SourceGraphic" in2="effect1_dropShadow_185_50" result="shape"/></filter></defs></svg>