<svg xmlns="http://www.w3.org/2000/svg" xml:space="preserve" style="fill-rule:evenodd;clip-rule:evenodd;stroke-linejoin:round;stroke-miterlimit:2" viewBox="0 0 154 157"><path d="m30.801 60.62.325.826.813-.355-.354.813.825.324-.825.325.354.811-.813-.353-.325.825-.323-.825-.814.353.355-.813-.825-.323.825-.324-.355-.813.814.355.323-.826Zm22.145 0 .324.826.813-.355-.355.813.825.324-.825.325.355.811-.813-.353-.324.825-.325-.825-.811.353.353-.813-.826-.323.826-.324-.353-.813.811.355.325-.826ZM51.463 55.571a.822.822 0 0 0-.015-.183c-.007-.061-.026-.101-.058-.12-.034-.018-.062-.008-.084.03a.395.395 0 0 1-.054.103.217.217 0 0 1-.092.099c-.071.045-.15.093-.232.146a5.628 5.628 0 0 1-.596.325 3.331 3.331 0 0 1-1.262.329 6.277 6.277 0 0 1-.373.029.207.207 0 0 0-.062.007c-.027.011-.029.027-.01.049.019.019.058.034.117.043a.933.933 0 0 0 .188.017c.202.028.424.021.672-.025.21-.038.429-.1.656-.189.246-.098.482-.211.706-.341a2.48 2.48 0 0 1 .252-.14.984.984 0 0 1 .143-.067.143.143 0 0 0 .042-.012l.027.072a.489.489 0 0 0 .138.177c.271.251.548.506.829.768.13.117.213.179.248.187.029.008.05 0 .06-.021.015-.034.009-.084-.019-.15a.407.407 0 0 0-.143-.171 7.188 7.188 0 0 1-.511-.395 6.29 6.29 0 0 1-.547-.556c-.005-.006-.012-.011-.02-.011Zm-7.3-3.003a.209.209 0 0 0 .036.007c.098.002.25.024.456.066 0 .012.005.032.018.062.034.098.088.12.162.063a.284.284 0 0 0 .113-.139c.048-.136.1-.276.156-.421a.776.776 0 0 1 .189-.298c.049-.037.061-.082.034-.132a1.252 1.252 0 0 0-.158-.18.163.163 0 0 0-.125-.032 3.078 3.078 0 0 1-.575-.006l-.013-.018a.613.613 0 0 0-.177-.175c-.025-.016-.051-.013-.077.008-.014.012-.015.037-.004.072.014.101.015.199.002.294-.002.079-.02.183-.054.311a8.155 8.155 0 0 1-.328 1.026c-.086.237-.201.46-.344.669a.36.36 0 0 0-.077.193.615.615 0 0 0 .028.228c.024.05.053.058.092.027a.387.387 0 0 0 .14-.168c.092-.171.169-.353.231-.545.071-.241.146-.479.218-.716l.057-.196Zm.491-.086c-.034-.029-.092-.046-.173-.046l-.276.001c.03-.105.062-.198.093-.277.139.009.258.023.361.038.063.001.084-.016.066-.053-.016-.042-.056-.076-.121-.104a.694.694 0 0 0-.253-.021l-.008.005c.058-.167.105-.283.138-.347.011 0 .024 0 .039-.002.106.004.195.009.267.013.106.004.175.022.205.054.019.023.017.074-.01.152-.075.223-.148.426-.218.61a.18.18 0 0 1-.04.062.41.41 0 0 0-.07-.085Zm1.06.341c.019.007.043.016.077.021.127.012.327.053.594.124a22.676 22.676 0 0 1-.485 1.585.36.36 0 0 1-.076.146c-.021.011-.055.003-.102-.025a8.325 8.325 0 0 1-.199-.114c-.05-.034-.078-.037-.083-.01.112.181.195.334.252.46.017.064.048.11.089.133.023.019.05.018.079-.002a1.21 1.21 0 0 0 .177-.153.496.496 0 0 0 .114-.229c.132-.586.331-1.345.594-2.281.045-.163.096-.275.154-.339.049-.041.062-.082.035-.123a.894.894 0 0 0-.206-.211.179.179 0 0 0-.139-.039 1.587 1.587 0 0 1-.287.037 3.427 3.427 0 0 1-.339-.034.58.58 0 0 0-.155-.164c-.013-.013-.028-.017-.045-.01-.021.006-.028.028-.02.068a.972.972 0 0 1-.009.334 4.764 4.764 0 0 1-.146.517.679.679 0 0 0-.028.26c.007.065.023.11.045.133.037.031.072.009.104-.065l.005-.019Zm.655-.026c-.034-.04-.096-.061-.182-.067a4.31 4.31 0 0 1-.43-.041c.007-.036.016-.074.021-.115l.061-.208a.109.109 0 0 0 .022.007c.165.028.307.05.426.068.061.006.086-.009.073-.048-.017-.043-.054-.078-.115-.107a.66.66 0 0 0-.377-.022 9.33 9.33 0 0 1 .11-.353c.019.004.043.004.072.005.145.013.291.022.436.027.062.006.095.026.1.058a1.18 1.18 0 0 1-.018.258c-.05.203-.103.401-.155.592-.013-.015-.028-.032-.044-.054Zm-8.513.701c.09.081.281.237.576.464.323.242.596.424.816.548.103.064.193.083.266.058.209-.091.406-.172.592-.248.079-.031.115-.056.108-.077-.005-.025-.057-.042-.158-.055a14.741 14.741 0 0 0-.411-.029 1.437 1.437 0 0 1-.421-.067c-.148-.045-.364-.149-.646-.309a7.546 7.546 0 0 1-.75-.456 2.368 2.368 0 0 0-.026-.162c.239-.129.562-.276.968-.44.063-.021.123-.043.18-.066.055-.022.087-.048.091-.078-.001-.039-.033-.07-.092-.092a.86.86 0 0 0-.267-.035.323.323 0 0 0-.169.057c-.182.119-.433.274-.749.464l-.088-.316a5.028 5.028 0 0 1-.069-.248 1.475 1.475 0 0 1-.06-.419c.004-.04-.013-.067-.051-.083a.946.946 0 0 0-.299-.056.268.268 0 0 0-.181.05c-.055.046-.047.085.025.119.119.058.196.134.227.229.114.324.202.611.262.863l-.821.458c-.059.03-.056.062.01.093a.47.47 0 0 0 .168.026.378.378 0 0 0 .159-.061c.154-.117.331-.229.524-.338.005.025.011.05.014.08.057.281.068.536.027.767a1.515 1.515 0 0 1-.164.508c-.076.167-.221.38-.434.636-.032.033-.052.056-.054.072-.009.023.013.03.066.017.042-.014.135-.084.276-.21.1-.086.214-.225.339-.414.094-.147.159-.3.196-.464.044-.184.057-.4.036-.648-.007-.045-.011-.091-.016-.138Zm-6.26 3.116c.056-.028.119-.057.192-.09a.197.197 0 0 0 .072-.048c.006-.009.003-.024-.006-.043-.011-.02-.052-.034-.122-.041a.185.185 0 0 0-.102.022.206.206 0 0 0-.05.033c-.01-.045-.021-.094-.031-.147a.33.33 0 0 1-.023-.125.055.055 0 0 0-.042-.05.298.298 0 0 0-.121-.001.31.31 0 0 0-.113.057c-.021.028-.013.048.026.061.032.01.056.028.071.053.043.079.078.161.108.248l-.027.017a6.59 6.59 0 0 0-.21.194c-.011.013-.009.023.006.029a.062.062 0 0 0 .056-.005c.067-.038.138-.077.213-.115.021.064.037.135.052.212-.001.022.002.039.009.049.01.02.023.019.035-.002.011-.017.017-.054.017-.112a1.461 1.461 0 0 0-.01-.196Zm.525.301.209-.08a.14.14 0 0 0 .077-.045c.006-.009.005-.023-.004-.042-.008-.025-.047-.04-.117-.047a.164.164 0 0 0-.104.011.263.263 0 0 0-.096.052.179.179 0 0 1-.018-.058.38.38 0 0 1-.026-.124c-.006-.024-.019-.038-.039-.043-.017-.008-.056-.006-.114.004-.048.013-.08.032-.098.057-.017.022-.009.041.025.055a.103.103 0 0 1 .073.049c.022.046.049.096.078.15-.09.062-.157.114-.203.155-.007.008-.004.019.009.029.017.011.036.011.058.001.056-.027.116-.054.181-.081 0 .005.002.009.005.015.032.091.062.194.087.307 0 .022.003.037.011.045.011.015.021.014.033-.004.009-.018.013-.051.008-.102a1.08 1.08 0 0 0-.017-.212.835.835 0 0 1-.018-.092Zm-.186 1.301a.288.288 0 0 0 .183-.182c.063-.214.137-.428.224-.639.1-.235.24-.534.414-.897.106-.221.18-.354.224-.4.044-.024.074-.031.089-.018.011.003.027.021.047.052l.127.2c.021.036.041.049.059.04.018-.01.029-.044.03-.099.005-.172.029-.317.071-.435.03-.098.036-.153.014-.162-.024-.012-.154.025-.388.111a.241.241 0 0 0-.146.125 5.77 5.77 0 0 0-.149.334c-.317-.313-.516-.558-.598-.735-.007-.037-.025-.059-.056-.068-.044-.007-.136.029-.276.11a.174.174 0 0 0-.076.09 4.95 4.95 0 0 1-.171.418c-.028.045-.022.069.016.07a.342.342 0 0 0 .118-.056.21.21 0 0 0 .079-.122c.022-.059.045-.119.068-.185.006-.015.014-.023.02-.025.028-.013.067-.002.119.038.044.039.089.083.135.131-.025.003-.05.02-.077.046a.607.607 0 0 0-.109.202c-.014.054-.026.107-.043.16-.016.031.004.041.062.027.015-.004.03-.019.047-.046l.187-.324c.049.054.107.11.17.173a.18.18 0 0 0-.057.046.564.564 0 0 0-.097.206c-.014.06-.026.116-.035.169-.012.035.009.043.06.021.016-.003.029-.02.045-.049l.157-.315.22.232c-.029.054-.054.11-.076.168-.129.263-.286.606-.472 1.031a.058.058 0 0 0-.009.028 6.432 6.432 0 0 1-.336-.123l.003-.001.131-.321c.018-.051.008-.074-.029-.072a.245.245 0 0 0-.118.079.67.67 0 0 0-.075.215.324.324 0 0 0-.003.067 5.492 5.492 0 0 1-.134-.053.58.58 0 0 1-.093-.038c.043-.143.084-.265.12-.365.016-.049.008-.072-.029-.067-.036.007-.071.033-.105.077a.47.47 0 0 0-.063.202 2.325 2.325 0 0 0-.012.114.947.947 0 0 0-.098-.049.121.121 0 0 0-.073-.022l-.006-.159c-.002-.045-.005-.089-.006-.135a.429.429 0 0 1-.008-.156c.007-.048-.013-.073-.057-.074a.357.357 0 0 0-.15.06c-.051.031-.079.059-.085.085-.013.026-.003.039.026.045.036.011.064.042.086.091a.616.616 0 0 1 .071.132l.053.13a.463.463 0 0 0-.158.129c-.025.027-.035.053-.028.079.007.027.031.039.073.034a1.48 1.48 0 0 1 .318.014c.098.021.338.096.719.224-.053.107-.104.211-.156.31-.005.009-.006.018-.005.026-.004.001-.008-.001-.017-.006a.29.29 0 0 0-.154.014c-.053.019-.054.049 0 .088.017.005.033.015.053.026.043.03.073.066.091.105.034.074.066.159.093.257.012.036.043.064.096.083.07.03.128.045.178.045.078.006.1-.034.066-.116a.92.92 0 0 0-.147-.216 2.193 2.193 0 0 1-.182-.229Zm1.565-.732c.127-.247.295-.533.5-.856.047-.07.089-.135.126-.197.033-.049.042-.085.028-.111-.021-.035-.063-.042-.124-.021-.095.04-.172.079-.229.119a.346.346 0 0 0-.103.147c-.086.224-.205.517-.358.876l-.038-.01a.368.368 0 0 0-.136.012l-.02-.335a.771.771 0 0 1 .02-.296c.012-.054-.001-.086-.045-.096-.042-.015-.152.024-.33.117a.2.2 0 0 0-.096.132c-.042.174-.103.387-.181.643a1.03 1.03 0 0 1-.17.296c-.034.05-.023.081.032.093a.282.282 0 0 0 .137-.034.239.239 0 0 0 .134-.221c.017-.062.064-.258.145-.59a.117.117 0 0 1 .064-.079c.033-.019.062-.012.083.021.048.117.1.243.162.377a.327.327 0 0 0-.091.062c-.047.04-.07.077-.068.111-.002.041.024.053.075.039a.499.499 0 0 1 .227-.037l-.594 1.255c-.03.054-.01.074.059.065a.348.348 0 0 0 .148-.076.287.287 0 0 0 .092-.135c.089-.29.209-.585.361-.889.024-.056.053-.116.086-.18.112.045.216.1.313.166a.75.75 0 0 1 .223.219c.041.067.03.138-.032.214-.054.068-.11.132-.166.193-.025.023-.02.036.015.038a.323.323 0 0 0 .118-.041.89.89 0 0 1 .328-.073c.057.002.094-.019.11-.061.017-.031.01-.1-.018-.205a.566.566 0 0 0-.157-.268 1.473 1.473 0 0 0-.4-.281 2.225 2.225 0 0 0-.23-.103Zm16.928-.475a.57.57 0 0 0 .059.074c.204.205.378.387.521.55-.033.061-.043.099-.027.114.021.025.07.03.148.013a.24.24 0 0 0 .146-.057c.098-.091.229-.196.395-.319a.29.29 0 0 1 .163-.062c.048-.005.074-.022.079-.05a1.043 1.043 0 0 0-.038-.315.282.282 0 0 0-.095-.106 1.89 1.89 0 0 1-.323-.208 2.587 2.587 0 0 0-.146-.127l.034.003c.047.009.098.014.154.02a.618.618 0 0 1 .091.017c.035.014.057.01.068-.013a.359.359 0 0 0 .022-.057l.264.24.306.303c.014.023.04.034.076.033.023-.014.029-.052.017-.111a.384.384 0 0 0-.023-.086.198.198 0 0 0-.082-.111c-.114-.09-.228-.182-.344-.278a4.253 4.253 0 0 1-.369-.333 26.977 26.977 0 0 0-.245-.248c-.048-.048-.074-.037-.076.03.001.032.003.071.007.113.007.039.033.074.077.105l.258.225a2.676 2.676 0 0 1-.247.053.149.149 0 0 0-.067.013.353.353 0 0 0-.032-.034.434.434 0 0 0-.029-.135c-.01-.017-.023-.024-.043-.023-.01.004-.021.017-.03.039l-.048.078a2.634 2.634 0 0 1-.336.289 1.066 1.066 0 0 1-.208.116.26.26 0 0 0-.112.076.354.354 0 0 0-.065.134c-.008.032.004.048.039.048a.258.258 0 0 0 .061-.013Zm.656.495a.686.686 0 0 0-.156-.179l-.405-.359c.052-.027.1-.055.143-.086l.04-.031c.005.02.02.045.047.073.149.134.275.252.379.352.037.036.063.037.073.003.011-.038.003-.082-.027-.132a.557.557 0 0 0-.157-.156c-.092-.065-.178-.126-.261-.182l.101-.08.062-.048c.006.02.021.042.047.067l.368.325c.04.034.065.035.077.001a.169.169 0 0 0-.029-.13.758.758 0 0 0-.164-.151 9.101 9.101 0 0 1-.242-.156c.078-.062.135-.102.17-.118l.037.039c.099.081.184.153.256.216.161.125.243.216.247.27a.649.649 0 0 1-.14.157c-.233.193-.379.302-.439.328-.004-.001-.011.001-.02.006a.084.084 0 0 0-.007-.029Zm-1.135.38a1.468 1.468 0 0 1-.365-.11 3.056 3.056 0 0 1-.526-.342c-.023-.026-.038-.019-.043.018.002.02.042.075.119.165.101.11.234.212.403.304.13.073.265.121.407.145-.005.234-.007.471-.003.707a.338.338 0 0 0 .098.244c.122.143.262.27.423.382.039.031.063.044.076.038.016-.01.016-.034 0-.073a19.684 19.684 0 0 0-.205-.473 2.61 2.61 0 0 1-.167-.549 5.576 5.576 0 0 1-.049-.266c.125-.002.268-.017.43-.044a.448.448 0 0 1 .213.009c.059.019.095.007.106-.037a.43.43 0 0 0-.012-.192.248.248 0 0 0-.12-.148 2.138 2.138 0 0 1-.201-.142l-.168-.156a.14.14 0 0 0 .031-.061.307.307 0 0 0 .007-.128.236.236 0 0 0-.036-.106c-.012-.015-.031-.013-.053.004a.333.333 0 0 1-.107.053 1.263 1.263 0 0 1-.321.014 1.446 1.446 0 0 1-.326-.048 4.535 4.535 0 0 1-.484-.157c-.018-.011-.024-.005-.019.015a.258.258 0 0 0 .078.066 1.536 1.536 0 0 0 .554.267c.078.015.176.034.295.055a45.668 45.668 0 0 1-.035.546Zm.429-.324c.11.072.171.116.185.134.023.048.007.079-.045.095-.144.059-.285.09-.424.096a1.303 1.303 0 0 1-.013-.206 9.17 9.17 0 0 0-.008-.329.6.6 0 0 1 .148.02c.028.062.08.126.157.19ZM51.863 71.328l-1.681-1.223.309-.427.825.298a9.775 9.775 0 0 1 .577.231 4.106 4.106 0 0 1-.272-.159 6.224 6.224 0 0 1-.297-.205l-.623-.453.267-.37 1.682 1.224-.299.411-.881-.308a4.436 4.436 0 0 1-.281-.106 6.48 6.48 0 0 1-.293-.13 9.215 9.215 0 0 1 .69.45l.545.396-.268.371Zm1.474-4.703.08-.46.167.03a.27.27 0 0 0 .16-.01c.038-.019.062-.054.071-.104a.147.147 0 0 0-.027-.12.174.174 0 0 0-.112-.063.252.252 0 0 0-.136.016.517.517 0 0 0-.147.097c-.025.02-.057.05-.1.091a3.216 3.216 0 0 1-.32.265.562.562 0 0 1-.211.087.69.69 0 0 1-.244-.001.524.524 0 0 1-.372-.23c-.077-.122-.099-.278-.065-.467.032-.189.1-.325.204-.405.104-.081.243-.105.417-.075l.168.029-.077.439-.141-.025c-.065-.011-.115-.008-.15.01-.035.018-.057.052-.065.102-.009.04 0 .076.024.105.022.031.057.049.103.058.075.012.214-.067.417-.241l.014-.01.034-.031c.181-.152.307-.24.377-.264a.711.711 0 0 1 .323-.017c.176.032.303.11.382.237.08.127.102.291.067.488-.034.194-.11.336-.228.42-.117.084-.27.109-.459.075l-.154-.026Zm.387 1.24-1.977-.642.146-.447 1.976.643-.145.446Zm-1.377 1.44.189-.427.154.069c.065.029.117.039.158.029.041-.008.072-.036.094-.083a.158.158 0 0 0 .003-.124.178.178 0 0 0-.093-.088.25.25 0 0 0-.137-.017.51.51 0 0 0-.167.059l-.12.063c-.168.091-.294.15-.372.179a.521.521 0 0 1-.225.034.655.655 0 0 1-.237-.061.523.523 0 0 1-.306-.311c-.046-.139-.029-.295.05-.471.077-.175.176-.289.296-.342.12-.054.261-.044.422.028l.157.07-.181.406-.131-.057c-.062-.028-.111-.037-.149-.028-.037.009-.067.036-.088.083a.128.128 0 0 0-.002.108.155.155 0 0 0 .086.08c.072.032.227-.012.465-.131l.015-.007.041-.021c.211-.104.354-.16.43-.166a.685.685 0 0 1 .315.063c.164.072.269.18.316.322.045.142.028.306-.054.489-.08.182-.187.299-.322.352-.134.054-.289.041-.465-.037l-.142-.063Zm-1.624 3.351-1.494-1.446.73-.757.29.279-.404.42.296.287.357-.37.285.275-.356.371.335.323.416-.432.288.281-.743.769Zm-.88.798-1.39-1.546.348-.315 1.39 1.545-.348.316Zm-2.115-.374.564.837c.038.056.074.09.11.103.035.013.075.005.117-.023.041-.028.063-.062.064-.1a.256.256 0 0 0-.052-.141l-.565-.837c-.037-.056-.074-.09-.112-.103-.036-.011-.074-.004-.117.024-.04.028-.061.06-.064.099-.001.038.018.085.055.141Zm-.352.33c-.118-.177-.164-.338-.139-.486.027-.147.125-.279.295-.393.172-.116.329-.159.474-.128.144.031.277.136.396.313l.477.709c.121.179.168.341.141.488-.024.147-.122.277-.292.394-.169.114-.328.156-.475.125-.147-.032-.28-.137-.399-.313l-.478-.709Zm-1.494 2.28-.795-1.922.667-.276.34.572a6.799 6.799 0 0 1 .26.496 22.214 22.214 0 0 1-.099-.308 3.064 3.064 0 0 1-.06-.209l-.161-.668.663-.275.796 1.922-.417.174-.291-.704a35.1 35.1 0 0 1-.186-.456l-.19-.485.107.447c.03.12.048.197.055.231l.251 1.072-.273.113-.561-.893c-.078-.127-.149-.241-.21-.344-.06-.101-.118-.199-.171-.294l.196.44.204.484.293.71-.418.173Zm-2.044.441.06-2.116.624-.097.693 1.998-.495.077-.103-.362-.321.049.01.377-.468.074Zm.454-.832.223-.035-.168-.615-.036-.135-.054-.214.01.175.007.186.018.638Zm-2.854.281.463.025-.008.168a.265.265 0 0 0 .029.158c.024.035.06.055.111.058a.152.152 0 0 0 .117-.041.178.178 0 0 0 .049-.12.247.247 0 0 0-.033-.132.544.544 0 0 0-.114-.137l-.102-.088a3.497 3.497 0 0 1-.302-.284.567.567 0 0 1-.112-.199.715.715 0 0 1-.028-.243.527.527 0 0 1 .181-.398c.112-.093.265-.132.456-.123.193.011.334.062.426.155.092.093.134.229.125.405l-.008.171-.445-.023.008-.143c.004-.067-.005-.116-.029-.149-.021-.032-.057-.05-.107-.053a.131.131 0 0 0-.103.037.153.153 0 0 0-.043.11c-.005.077.092.206.289.386l.011.011.035.032c.172.161.275.274.307.343a.533.533 0 0 1 .046.148c.01.052.013.109.01.169a.54.54 0 0 1-.188.411c-.117.094-.274.136-.474.124-.198-.009-.346-.067-.444-.175-.098-.106-.141-.255-.131-.447l.008-.156Zm-1.89.566.555-2.041.629.053.205 2.105-.499-.042-.017-.376-.323-.028-.077.37-.473-.041Zm.637-.7.225.019-.02-.639a5.836 5.836 0 0 1-.002-.138 4.581 4.581 0 0 1-.002-.221l-.031.172c-.013.06-.026.12-.037.183l-.133.624Zm-1.852.396.346-1.644-.3-.064.084-.393 1.058.225-.083.395-.299-.065-.348 1.642-.458-.096Zm-1.416-.51.79-1.924.436.179-.792 1.923-.434-.178Zm-1.326-1.521.394.246-.089.144a.268.268 0 0 0-.051.153c.003.041.026.076.07.104.04.025.08.032.121.02a.174.174 0 0 0 .101-.08.247.247 0 0 0 .034-.132.55.55 0 0 0-.033-.174l-.046-.128a3.264 3.264 0 0 1-.126-.394.536.536 0 0 1-.002-.229.738.738 0 0 1 .092-.227.52.52 0 0 1 .352-.259c.141-.026.294.011.459.113.162.103.26.217.296.344.036.126.007.264-.088.414l-.089.146-.377-.236.074-.122c.038-.056.053-.104.049-.144-.004-.039-.026-.072-.069-.099a.128.128 0 0 0-.108-.017.16.16 0 0 0-.091.074c-.041.066-.02.225.067.479l.003.016.015.043c.075.225.109.376.104.45a.66.66 0 0 1-.03.152.83.83 0 0 1-.075.153.529.529 0 0 1-.363.267c-.146.025-.305-.013-.475-.12-.168-.105-.27-.229-.304-.369-.035-.14 0-.293.103-.456l.082-.132Zm-.786-1.171c.082.064.147.097.192.099.045.004.089-.021.131-.073l.074-.091c.043-.054.061-.103.05-.145-.011-.043-.053-.095-.129-.155l-.013-.012-.305.377Zm-1.141.673 1.306-1.617.523.424c.135.11.213.222.235.334.021.113-.015.226-.108.341l-.013.016-.074.093a.473.473 0 0 1-.208.161.381.381 0 0 1-.243-.012.343.343 0 0 1 .068.229.482.482 0 0 1-.117.24l-.302.374a.65.65 0 0 0-.076.111.286.286 0 0 0-.028.089l-.369-.3a.243.243 0 0 1 .035-.083c.017-.03.047-.071.089-.123l.252-.312c.071-.088.103-.156.097-.204-.006-.049-.051-.107-.134-.176l-.574.709-.359-.294Zm-1.255-1.257 1.507-1.432.723.762-.29.278-.4-.423-.3.284.353.373-.288.275-.352-.374-.337.321.412.435-.291.278-.737-.777Zm-.983-1.347 1.536-1.438.277.41-.661.545-.203.159-.355.273c.151-.087.333-.186.543-.299l.079-.042.754-.402.271.402-1.91.885-.331-.493Zm-.764-1.324 1.867-.912.207.423-1.868.912-.206-.423Zm-.751-1.888 1.963-.68.172.499-.716.506a8.739 8.739 0 0 1-.52.342 4.346 4.346 0 0 1 .624-.259l.728-.252.149.432-1.963.68-.167-.481.757-.548a5.634 5.634 0 0 1 .524-.336 14.14 14.14 0 0 1-.406.174 7.476 7.476 0 0 1-.358.135l-.638.221-.149-.433Zm1.708-1.764-1.533.174c-.068.007-.116.024-.144.049-.025.025-.037.062-.031.11.006.05.024.085.058.104.033.019.083.025.148.017l1.534-.172.052.468-1.456.164c-.213.023-.378-.009-.496-.099-.119-.09-.189-.236-.212-.44-.022-.201.014-.358.111-.471.095-.115.249-.183.461-.208l1.456-.163.052.467Z" style="fill:#2c3563" transform="translate(-63.896 -136.46) scale(3.36653)"/><path d="M41.853 49c8.18 0 14.851 6.671 14.851 14.852 0 8.181-6.671 14.852-14.851 14.852C33.671 78.704 27 72.033 27 63.852 27 55.671 33.671 49 41.853 49Zm0 1.279c7.474 0 13.572 6.098 13.572 13.573 0 7.475-6.098 13.573-13.572 13.573-7.476 0-13.574-6.098-13.574-13.573 0-7.475 6.098-13.573 13.574-13.573Zm0 .301c7.309 0 13.271 5.962 13.271 13.272 0 7.31-5.962 13.271-13.271 13.271-7.311 0-13.272-5.961-13.272-13.271 0-7.31 5.961-13.272 13.272-13.272Zm0 4.067c5.07 0 9.204 4.136 9.204 9.205 0 5.071-4.134 9.204-9.204 9.204-5.071 0-9.206-4.133-9.206-9.204 0-5.069 4.135-9.205 9.206-9.205Zm0 .26c4.926 0 8.944 4.019 8.944 8.945s-4.018 8.944-8.944 8.944c-4.928 0-8.946-4.018-8.946-8.944 0-4.926 4.018-8.945 8.946-8.945Zm0-5.229c7.806 0 14.174 6.367 14.174 14.174 0 7.807-6.368 14.175-14.174 14.175-7.808 0-14.175-6.368-14.175-14.175s6.367-14.174 14.175-14.174Z" style="fill:#2c3563" transform="translate(-63.896 -136.46) scale(3.36653)"/><path d="M43.477 60.543h.461v-.428h.231v.428h.461v-.428h.242v.652h-1.82v-.359h.172v-.293h.253v.428Zm-1.581 1.047a.899.899 0 0 1 .239.049l.096-.26a1.232 1.232 0 0 0-.314-.062h-.021v.273Zm.345.093a.907.907 0 0 1 .191.127l.202-.201a1.224 1.224 0 0 0-.297-.188l-.096.262Zm.273.207a.71.71 0 0 1 .094.124l.295-.08a1.203 1.203 0 0 0-.186-.247l-.203.203Zm.153.227a.997.997 0 0 1 .064.186h.281v-.14h-.006a.94.94 0 0 0-.049-.124l-.29.078Zm-.022.251h-.009a.8.8 0 0 0-.073-.223h-.001l-.008-.02a.846.846 0 0 0-.174-.221l-.025-.018.003-.002a.814.814 0 0 0-1.324.484h-.008v1.265h1.619v-1.265Zm-1.706-.065a.965.965 0 0 1 .063-.183l-.291-.078c-.018.039-.034.08-.048.121h-.005v.057h-.001v.083h.282Zm.121-.287c.028-.042.057-.083.089-.12l-.203-.203c-.07.073-.131.156-.181.245l.295.078Zm.172-.201a.933.933 0 0 1 .187-.127l-.095-.262a1.3 1.3 0 0 0-.294.187l.202.202Zm.293-.172a.864.864 0 0 1 .255-.053v-.273h-.028c-.112.007-.22.029-.322.066l.095.26Zm.848-.326c.202.089.377.225.513.394v-.394h-.513Zm.62.552c.043.075.082.154.11.237h.258v-.237h-.368Zm-2.427.237c.031-.083.067-.162.111-.237h-.365v.237h.254Zm.211-.385c.137-.174.315-.314.521-.404h-.521v.404Zm1.982.915h.253v-.218h-.253v.218Zm0 .333h.253v-.218h-.253v.218Zm0 .332h.253v-.218h-.253v.218Zm0 .332h.253v-.218h-.253v.218Zm-1.849-1.215h-.253v.126h.001v.091h.252v-.217Zm-.253.551h.253v-.218h-.253v.218Zm.253.114h-.252v.092h-.001v.126h.253v-.218Zm-.253.55h.253v-.218h-.253v.218Zm-.43-.572h.316v-.403h-.316v.403Zm-.535 0h.422v-.403h-.422v.403Zm.321.572h.53v-.458h-.53v.458Zm-.323 0h.208v-.458h-.208v.458Zm.323-1.089h.53v-.323h-.53v.323Zm-.323-.001h.208v-.323h-.208v.323Zm0-.437h.507v-.237h-.507v.237Zm.322-.351h.65v-.438h-.65v.438Zm-.715 0h.601v-.438h-.601v.438Zm-.467 0h.353v-.438h-.353v.438Zm5.65 0h.392v-.438h-.392v.438Zm-.716 0h.602v-.438h-.602v.438Zm-.764 0h.65v-.438H43v.438Zm-4.17-.553h.242v-.321h-.242v.321Zm.358 0h.438v-.321h-.438v.321Zm.551 0h.369v-.321h-.369v.321Zm.484 0h.784v-.321h-.784v.321Zm.898 0h.659v-.321h-.659v.321Zm.775 0h.658v-.321h-.658v.321Zm.773 0h.779v-.321h-.779v.321Zm.895 0h.368v-.321h-.368v.321Zm.484 0h.437v-.321h-.437v.321Zm.551 0h.272v-.321h-.272v.321Zm.387.667h-.881v1.879h-4.528v-1.879h-.863v-1.87h.474v.43h.229v-.43h.461v.43h.231v-.43h.344v-.965h.493v.443h.265v-.443h.495v.443h.263v-.443h.495v.443h.266v-.443h.494v.965h.369v.43h.23v-.43h.46v.43h.231v-.43h.472v1.87Zm-1.51.237h.514v-.237h-.514v.237Zm-3.023-1.991h-.23v.428h-.459v-.428h-.231v.428h-.461v-.428h-.242v.652h1.795v-.359h-.172v-.293Zm.287.652v-.359h.655v.359h-.655Zm.77 0v-.359h.656v.359h-.656Zm.771 0v-.359h.655v.359h-.655Zm.846 2.866h.533v-.458h-.533v.458Zm.648 0h.215v-.458h-.215v.458Zm-.666-4.485v.585h-2.542v-.585h.265v.428h.002v.016h.485v-.016h.008v-.428h.263v.444h.484v-.016h.011v-.428h.266v.444h.484v-.016h.008v-.428h.266Zm-2.542 1.145h.508v-.445h-.508v.445Zm.622 0h.612v-.445h-.612v.445Zm.728 0h.611v-.445h-.611v.445Zm.728 0h.464v-.445h-.464v.445Zm.915 2.768h.43v-.403h-.43v.403Zm.215-.518h.215v-.323h-.215v.323Zm-.648.518h.318v-.403h-.318v.403Zm.533-.841v.324h-.533v-.324h.533Z" style="fill:#2c3563" transform="translate(-63.896 -136.46) scale(3.36653)"/><path d="M37.261 59.545h3.192v-.177h-3.192v.177Zm5.963 0h3.207v-.177h-3.207v.177Zm-5.837 1.893h1.366v-.177h-1.366v.177Zm7.576 0h1.341v-.177h-1.341v.177Zm-7.479 1.477h2.093v-.177h-2.093v.177Zm3.542 0h1.618v-.177h-1.618v.177Zm3.08 0h2.103v-.177h-2.103v.177Zm-6.254 1.62h2.105l.818-.818h.249l-.816.818h3.181l-.866-.866h.121v.048h.178l.816.818h2.201v.176h-7.987v-.176Z" style="fill:#2c3563" transform="translate(-63.896 -136.46) scale(3.36653)"/><path d="m38.576 56.65-2.375 2.065c.659.076 1.1.793 1.102 1.414l.004 1.434c.003 1.28.049 3.548 1.444 4.111.252.1 1.546.405 2.17.713.752.37.836.744.934.767.141-.126.278-.433.82-.709.685-.347 1.881-.612 2.278-.771 1.396-.563 1.44-2.831 1.444-4.111l.003-1.36c.003-.654.391-1.407 1.102-1.488l-2.374-2.065c-1.126.7-1.88 1.017-3.251 1.022-1.391.006-2.16-.313-3.301-1.022Zm.035.312-1.95 1.657c.044-.008.541.252.775.973.095.29.103.652.098 1.014-.003.342.006.685.004.977.017 1.19.025 3.308 1.305 3.875.238.095 1.472.375 2.059.664.711.349.866.605.953.637.133-.119.279-.305.79-.564.646-.327 1.833-.593 2.208-.744 1.253-.53 1.27-2.68 1.312-3.888l-.006-.903c.001-.389-.036-.694.097-1.066.142-.403.394-.79.793-.971l-1.955-1.687c-1.083.673-1.9.954-3.232.959-1.27.004-2.185-.272-3.251-.933Z" style="fill:#2c3563" transform="translate(-63.896 -136.46) scale(3.36653)"/><path d="m45.02 57.476.255.528.58.08-.423.406.104.576-.516-.278-.516.278.103-.576-.423-.406.581-.08.255-.528Zm-3.193 7.313.254.528.582.079-.424.405.104.577-.516-.277-.517.277.104-.577-.422-.405.58-.079.255-.528Zm0 .366.147.303.334.046-.244.233.06.331-.297-.16-.297.16.06-.331-.242-.233.332-.046.147-.303Zm-3.152-7.679.254.528.581.08-.424.406.105.576-.516-.278-.517.278.105-.576-.424-.406.581-.08.255-.528Zm0 .366.146.304.334.045-.243.233.059.332-.296-.159-.297.159.059-.332-.243-.233.335-.045.146-.304Zm6.345 0 .146.304.334.045-.243.233.06.332-.297-.159-.297.159.059-.332-.242-.233.333-.045.147-.304ZM39.112 68.391c-.026.003-.035.017-.029.042a.112.112 0 0 1-.007.059.188.188 0 0 0-.025.035l-.082.091c-.02.023-.027.035-.024.035.005.004.025-.005.057-.025.012-.009.047-.03.105-.061a.704.704 0 0 0 .075-.045c.007-.006.025-.013.05-.025.033-.015.046-.029.035-.04a.241.241 0 0 0-.155-.066Zm2.05-.102a.055.055 0 0 0-.021.007c-.117.046-.327.085-.624.114-.08.009-.086.023-.018.042a.718.718 0 0 0 .217-.005c.024.035.018.088-.019.157-.07.121-.148.198-.232.228a.064.064 0 0 0-.026.017.147.147 0 0 0-.009.094c.006.027.019.041.036.04l.061-.018.62-.175.014.014c.059.06.098.084.119.074.048-.047.043-.108-.015-.181a.457.457 0 0 0-.195-.099c-.087-.022-.114-.017-.081.017.035.035.074.081.123.137-.228.043-.408.076-.537.095.065-.058.15-.144.257-.263a.13.13 0 0 1 .032-.029c.066-.04.055-.08-.033-.12.193-.029.329-.052.41-.069.044-.013.057-.031.037-.056-.019-.018-.057-.025-.116-.021Zm1.963-.021c-.022.002-.025.016-.008.039.021.025.018.076-.008.157-.075.284-.168.485-.282.601-.04.044-.033.051.018.021.136-.096.244-.26.325-.492.029.042.079.132.148.266.034.056.056.096.069.119.015.069.089.095.225.079l.035.003a.216.216 0 0 0 .088-.017c.015-.008.008-.017-.02-.028-.213-.128-.353-.248-.42-.36a1.098 1.098 0 0 0-.102-.114.635.635 0 0 1 .062-.159.108.108 0 0 0 .009-.034c-.017-.028-.063-.054-.139-.081Zm1.74.87c.04.008.108.011.203.009l.123.008c.053.006.081-.004.085-.031 0-.036-.025-.06-.074-.07a.879.879 0 0 0-.171.008 1.646 1.646 0 0 1-.159.015 2.025 2.025 0 0 1 .082-.406c.006-.017.011-.031.012-.039-.018-.048-.083-.083-.193-.105-.028.007-.031.031-.009.074a.296.296 0 0 1 .024.084c.011.144-.022.469-.099.978l-.257-.01.003-.163a2.75 2.75 0 0 1 .025-.324c.002-.019.008-.041.015-.067.007-.017.008-.03.004-.041a.325.325 0 0 0-.165-.094c-.032-.004-.034.02-.008.068.018.035.03.06.031.078.012.093.009.273-.007.537-.106.007-.21.004-.312-.009-.055-.001-.076.006-.065.021a.517.517 0 0 0 .138.049c.213-.006.439-.003.673.011.107.008.216.021.323.037.103.012.201.028.294.048.076.013.107-.004.094-.05a.198.198 0 0 0-.151-.1 2.224 2.224 0 0 0-.198.004l-.335.002.074-.522Zm-2.32-.786c.072.098.135.154.187.165.069-.02.078-.06.028-.126-.155-.075-.225-.089-.215-.039Zm.249.291c-.009-.001-.041.005-.096.015a2.306 2.306 0 0 1-.558.059c-.033.003-.035.015-.008.034a.244.244 0 0 0 .11.066c.014.001.095-.017.241-.055.013.187-.118.397-.392.63-.039.026-.039.034-.001.027a.834.834 0 0 0 .443-.445l.027.01c.057.024.087.042.092.051.007.033-.008.097-.045.195-.036.093-.066.145-.089.157a.284.284 0 0 1-.06-.016c-.066-.027-.091-.03-.074-.01a.362.362 0 0 1 .073.145c0 .01.001.013.006.013.036.016.077.002.125-.04a.538.538 0 0 0 .098-.191c.032-.107.064-.184.094-.232.003-.014.007-.023.007-.027a.17.17 0 0 0-.083-.086.108.108 0 0 1-.034-.008.74.74 0 0 1-.1-.012.163.163 0 0 1 .028-.045c.015-.024.021-.039.016-.048.006-.008-.025-.033-.09-.073.123-.02.227-.03.312-.031.046.004.065-.009.057-.037-.016-.028-.05-.045-.099-.046Zm.248.44a.21.21 0 0 1 .019.028c.076.094.126.14.149.136.063-.028.076-.072.034-.133-.146-.063-.214-.072-.202-.031Zm-.055.289c.095.135.178.219.243.25.07-.028.078-.082.024-.161a.939.939 0 0 0-.2-.099c-.062-.018-.084-.014-.067.01Zm-2.013-.172c.066-.009.137-.021.213-.039.068-.008.1-.023.099-.045-.006-.027-.04-.039-.104-.035a.3.3 0 0 0-.059.009.826.826 0 0 0-.148.028.354.354 0 0 1 .014-.11.044.044 0 0 0-.002-.034.4.4 0 0 0-.179-.057c-.019.002-.018.018.003.054.03.057.047.115.051.174-.041.005-.095.016-.163.028a2.316 2.316 0 0 1-.12.021c-.067.016-.055.031.036.045a.947.947 0 0 0 .25-.021l.02.23c-.186.028-.361.051-.526.068a.268.268 0 0 1-.06.01c-.064.008-.088.019-.074.032.024.007.071.016.144.025a4.796 4.796 0 0 1 1.207-.104c.077 0 .103-.02.079-.065-.035-.043-.094-.066-.181-.072a.782.782 0 0 0-.072.012c-.118.024-.257.049-.418.075l-.01-.229Zm-2.358-.682c-.022-.002-.026.01-.016.034.015.029.042.06.079.091.024.024.046.031.067.02.02-.01.029-.03.027-.061-.019-.054-.07-.082-.157-.084Zm.354.412a.984.984 0 0 0 .223-.045c.037-.029.011-.042-.074-.04-.014.001-.038.006-.078.014a.25.25 0 0 1-.069.019.097.097 0 0 1 .009-.04.082.082 0 0 0 .004-.033c-.001-.012-.013-.027-.036-.043.153-.03.253-.051.3-.064.025-.012.031-.027.016-.047a.153.153 0 0 0-.086-.013l-.045.011a3.324 3.324 0 0 1-.548.112c-.038.008-.042.019-.01.034.025.01.066.013.117.009a.743.743 0 0 0 .108-.016c.024.02.043.057.056.113-.06.013-.123.025-.192.035-.024.015-.011.028.041.036a.694.694 0 0 0 .161-.021l.011.11a3.4 3.4 0 0 1-.322.046c-.033.013-.032.025.003.039a.452.452 0 0 0 .138.002 1.12 1.12 0 0 0 .185-.029l.013.239a.359.359 0 0 0-.056.012 7.88 7.88 0 0 1-.585.069c-.031.002-.036.013-.018.028a.31.31 0 0 0 .11.056c.003-.002.02-.005.051-.012.116-.049.395-.1.836-.155a3.87 3.87 0 0 1 .428-.012c.047-.008.049-.031.007-.072a.21.21 0 0 0-.145-.039c-.023.002-.08.013-.174.034-.076.02-.127.031-.153.033.061-.057.102-.1.126-.127.015-.019.009-.034-.017-.045a.19.19 0 0 0-.118-.015c-.018.001-.02.012-.01.033.01.024.013.044.011.057a.524.524 0 0 1-.062.116l-.14.025-.007-.233c.034-.007.085-.016.154-.026a4.23 4.23 0 0 0 .191-.036c.034-.012.041-.026.023-.041a.226.226 0 0 0-.113-.01c-.006.001-.036.004-.082.014a4.594 4.594 0 0 0-.179.028l-.003-.11Zm-.215.31c-.023-.023-.064-.037-.126-.04-.022.001-.02.022.006.064.034.052.063.08.084.084.047-.022.058-.057.036-.108Zm.455.221a1.54 1.54 0 0 0-.14.031c-.13.034-.244.061-.337.082-.033-.023-.064-.032-.093-.025-.021.006-.02.021.004.045a.55.55 0 0 1 .051.133c.011.046.024.086.036.12.016.037.035.057.057.059.015-.006.021-.028.013-.065l.154-.02c.192-.03.319-.046.379-.052.017-.006.018-.015.003-.027a.121.121 0 0 0-.059-.034.278.278 0 0 1 .109-.139c.021-.014.011-.036-.03-.062a.33.33 0 0 0-.147-.046Zm-.462.15a.73.73 0 0 0 .084-.014c.123-.028.238-.046.347-.055.016-.002.024.019.024.062a.255.255 0 0 1-.035.12l-.377.077-.043-.19Z" style="fill:#2c3563" transform="translate(-63.896 -136.46) scale(3.36653)"/><path d="M46.031 68.158c.196-.214.255-.401.256-.575.002-.204-.104-.315-.205-.435a1.475 1.475 0 0 1-.274-.421c-.047-.12-.028-.315.034-.511a.942.942 0 0 1 .866-.652h.904l.005-.47c.007-.283-.145-.528-.253-.788a1.488 1.488 0 0 1-.122-.603l.02-1.127h.008c.102.165.203.329.307.49.13-.211.456-.361.836-.361.494 0 .896.253.896.562 0 .17-.122.323-.314.426v1.176c.08.096.153.195.217.299.137.22.209.479.16.744-.122.671-1.254 1.33-1.267 2.025-.002.14.006.463-.009.706-.005.112-.003.208-.033.263-.053.105-.157.126-.262.104-.225-.047-.522-.363-.728-.308-.181.048-.235.224-.265.397a2.842 2.842 0 0 1-.237.771 2.494 2.494 0 0 1-.356.538.49.49 0 0 1-.23.161.504.504 0 0 1-.3-.005c-2.423-.691-5.242-.691-7.666 0a.5.5 0 0 1-.299.005.487.487 0 0 1-.229-.161 2.388 2.388 0 0 1-.356-.538 2.845 2.845 0 0 1-.238-.771c-.03-.173-.085-.349-.266-.397-.205-.055-.502.261-.726.308-.106.022-.21.001-.264-.104-.029-.055-.028-.151-.034-.263-.014-.243-.004-.566-.008-.706-.013-.695-1.143-1.354-1.265-2.025a1.049 1.049 0 0 1 .158-.744c.065-.104.139-.203.217-.299v-1.176c-.191-.103-.313-.256-.313-.426 0-.309.402-.562.895-.562.382 0 .707.15.837.361.103-.161.206-.325.308-.49h.008l.018 1.127c.004.211-.042.414-.121.603-.107.26-.26.505-.253.788l.005.47h.904c.362 0 .747.263.867.652.061.196.08.391.033.511a1.519 1.519 0 0 1-.274.421c-.1.12-.207.231-.206.435.002.174.064.365.261.581 2.993-.65 5.325-.652 8.353-.006Zm-.368 2.212c.083.025.173.03.21-.103.174-.482-.031-1.087-.013-1.569a.925.925 0 0 1 .074-.357c-2.798-.632-5.356-.632-8.163 0 .049.108.07.228.075.357.018.482-.188 1.087-.014 1.569.037.133.127.128.21.103 2.427-.665 5.194-.664 7.621 0Zm-7.981-.024c-.115-.231-.111-.557-.081-.884.031-.338.086-.676.042-.908-.033-.163-.11-.224-.197-.349-.215-.307-.34-.712-.096-1.023.159-.204.381-.379.382-.585.002-.235-.06-.717-.59-.826l-1.125-.006c-.046.203-.094.71.014.891.169.292.386.652.409 1.085l.021.807.033-.011s.318-.12.477.209c.106.219.111.505.189.744.067.21.179.439.314.614.043.058.162.222.208.242ZM35.9 65.725a28.5 28.5 0 0 1 .018-.759c.01-.23.151-.444.248-.667.071-.163.102-.331.118-.513.02-.215.013-.448.013-.7 0 0-.334.556-.817 1.166-.248.314-.63.648-.832.973-.119.192-.256.548-.091.851.049.088.107.173.171.256l-.003-.008s.709.005 1.175-.599Zm-1.03.777c.375.427.853.84.901 1.438.001.104-.027.8.034.864.029.028.084.059.17.012 0 0 .157-.113.328-.199a43.95 43.95 0 0 0-.031-.831 1.801 1.801 0 0 0-.298-.878c-.158-.23-.203-.545-.174-.812 0 0-.463.327-.93.406Zm.026-1.846c.187-.204.384-.401.548-.61.079-.1.156-.203.23-.306h-.778v.916Zm.914-1.109c.07-.102.138-.203.204-.306-.023-.212-.353-.381-.723-.381-.383 0-.725.183-.725.407 0 .105.077.202.198.275a.44.44 0 0 0 .132.033h.85c.026 0 .041-.015.064-.028Zm10.214 6.799c.115-.231.109-.557.08-.884-.03-.338-.086-.676-.041-.908.032-.163.109-.224.197-.349.215-.307.339-.712.095-1.023-.159-.204-.382-.379-.383-.585-.001-.235.062-.717.592-.826l1.124-.006c.046.203.093.71-.013.891-.17.292-.387.652-.41 1.085l-.021.807-.033-.011s-.317-.12-.476.209c-.107.219-.111.505-.19.744-.067.21-.18.439-.313.614-.044.058-.163.222-.208.242Zm1.78-4.621c-.001-.086-.005-.53-.016-.759-.011-.23-.153-.444-.249-.667a1.662 1.662 0 0 1-.118-.513c-.02-.215-.013-.448-.013-.7 0 0 .334.556.816 1.166.249.314.631.648.834.973.118.192.255.548.09.851a1.967 1.967 0 0 1-.171.256l.003-.008s-.709.005-1.176-.599Zm1.03.777c-.373.427-.852.84-.9 1.438-.001.104.027.8-.034.864-.029.028-.084.059-.17.012 0 0-.158-.113-.328-.199.005-.144.014-.474.032-.831a1.79 1.79 0 0 1 .297-.878c.159-.23.203-.545.174-.812 0 0 .463.327.929.406Zm-.025-1.846c-.186-.204-.384-.401-.548-.61-.08-.1-.157-.203-.23-.306h.778v.916Zm-.915-1.109c-.07-.102-.137-.203-.204-.306.024-.212.355-.381.723-.381.385 0 .726.183.726.407 0 .105-.076.202-.199.275a.42.42 0 0 1-.131.033h-.849c-.027 0-.042-.015-.066-.028Z" style="fill:#2c3563" transform="translate(-63.896 -136.46) scale(3.36653)"/></svg>