<svg xmlns="http://www.w3.org/2000/svg" width="154" height="157" fill="none"><g filter="url(#a)"><path fill="#fff" d="M13 0h128v128H13z"/><path fill="#fff" fill-rule="evenodd" stroke="#fff" stroke-miterlimit="22.926" stroke-width=".567" d="M41.753 53.274c5.772 0 10.479 4.709 10.479 10.48 0 5.772-4.709 10.478-10.48 10.478-5.772 0-10.478-4.708-10.478-10.479 0-5.773 4.706-10.479 10.479-10.479Z" clip-rule="evenodd"/><path fill="#007739" fill-rule="evenodd" d="M41.753 49c8.126 0 14.753 6.627 14.753 14.753 0 8.126-6.627 14.753-14.753 14.753C33.627 78.506 27 71.88 27 63.753 27 55.627 33.627 49 41.753 49Zm0 4.274c-5.773 0-10.479 4.709-10.479 10.48 0 5.772 4.709 10.478 10.48 10.478 5.772 0 10.478-4.708 10.478-10.479 0-5.773-4.706-10.479-10.479-10.479Z" clip-rule="evenodd"/><path fill="#fff" fill-rule="evenodd" d="M31.069 55.502s.011.137-.121.175c0 0-.137-.155-.102-.319 0 0-.052-.115.046-.194 0 0 .065-.052.148.023l.144.162.125.22.115.05s.219.181.238.106c0 0-.228-.453-.234-.61l-.046-.34-.045-.16s-.184-.192-.065-.317c0 0 .17-.188.438.027 0 0 .08.011.025.184 0 0-.104.252-.086.315l-.048.18s-.13.473.151.689c0 0-.017.14.218.165 0 0 .16.02.276.288 0 0 .136.205.346.046 0 0-.242-.133-.363-.277 0 0-.413-.224-.379-.44 0 0 .089-.15.204-.05 0 0 .284.446.451.46 0 0 .125-.096.168-.204 0 0-.467-.305-.567-.444 0 0-.4-.278-.348-.378 0 0 .037-.163.139-.098 0 0 .132.077.117.165 0 0 .196.211.25.14 0 0 .032-.242.107-.274.075-.033.113-.016.146.06.033.074-.073.21-.002.303.071.092.046.123.104.18.057.058.146.125.146.125s.073-.161.182-.09c0 0 .094.01.06.275 0 0-.212.31-.261.41l.042.045s.382-.167.799-.651c0 0 .21-.325.303-.367.096-.043.245-.12.292-.083.048.037.01.071-.032.127 0 0 .02.105-.129.32 0 0-.43.869-1.454 1.094 0 0 .077.3.035.42l-.085.229s-.123.478-.15.547c0 0-.013-1.002-.177-1.189 0 0-.382-.05-.424.008-.042.056-.13.156-.179.067 0 0-.1-.102-.007-.273 0 0 .294-.069.42-.036 0 0 .033-.077-.553-.509 0 0-.157.008-.24-.17l-.05-.064-.088-.068ZM37.397 51.33s.153-.042.117-.269l-.16-.169-.123-.004s-.14.06.02.189c0 0 .073.3.067.413l.032.297s.012.292.156.496c0 0 .062.292.215.342 0 0 .13.186-.032.23 0 0-.33-.02-.385.152 0 0-.103.083-.002.184 0 0 .045.062.142-.05 0 0 .704.004.796.006.092 0 .409.056.858-.078l.208.017s.547-.208.584-.317l.169-.117s.077-.117.027-.16c-.05-.04-.16.014-.16.014s-.797.37-1.63.424l-.081-.044s-.285.05-.338-.01c0 0 .038-.201-.073-.351 0 0-.208-.261-.223-.33-.014-.068-.135-.492-.158-.608-.026-.115-.073-.186-.026-.257Zm.574-.776.1-.319c.015-.048-.033-.129.046-.146.08-.017.17.073.17.073s.034.096.064.09c.031-.005.214-.148.288.056 0 0 .002.161.008.192.006.03.015.196.015.196l-.023.044s.102.488.056.536c0 0 .115-.036.152-.044.036-.008.351.016.384.075.03.058.017.054-.027.083a.369.369 0 0 1-.15.051c-.038.002-.15-.032-.184-.019-.037.014-.067.014-.067.014l-.039-.031s-.138.015-.161.06c-.023.044-.056.069-.056.069s-.128.002-.17.048c-.043.048-.153.11-.153.11s-.178.166-.16.245c0 0-.087.077-.155.065 0 0-.051-.278-.019-.363.035-.084.046-.184.089-.192 0 0 .155.096.196.133 0 0 .157-.046.142-.127 0 0-.229-.288-.233-.434 0 0-.042-.294.044-.344l.064-.033s-.025-.15.057-.12l.072.063s.07.004.076.055c.004.05-.051.18-.155.24 0 0 .192-.007.198.056 0 0 .013.127-.137.144 0 0 .016.139.048.139.033 0 .048-.018.048-.018s-.007-.102.079-.113l.021-.056s-.08-.319-.04-.436c0 0 .011-.196-.06-.188-.069.008-.242-.104-.363.083 0 0-.046.151-.015.294l-.037.007-.013-.238Zm.524.69.048.01.05.086c-.13.046-.098-.096-.098-.096Zm.333.155-.01.021-.023.05-.062.077s-.061.033-.038-.017a.573.573 0 0 1 .133-.13Z" clip-rule="evenodd"/><path fill="#fff" fill-rule="evenodd" d="M38.895 51.7s.128-.091-.006-.147c0 0-.227.029-.287.054-.059.025-.257.067-.343.33 0 0 .192-.04.207.008.017.048.048.163-.021.211-.067.046-.194.12-.194.12s-.136.053-.044.124c0 0 .084.035.16-.104 0 0 .184-.103.226-.151 0 0-.039.124-.087.2-.047.074-.222.472-.263.493-.04.021.15.008.265-.056 0 0 .1-.073.106-.113.004-.04.07.14.065.186 0 0 .07.056.14-.036 0 0 .362-.334.29-.494 0 0-.086-.136-.234-.1 0 0-.04-.042.008-.086.05-.042.156-.208.121-.258 0 0-.083-.026-.282.066 0 0 .005-.215-.217-.116 0 0-.02-.092.13-.117 0 .004.18.004.26-.013Zm.001.679.018.054s.004.05-.031.103a.287.287 0 0 1-.161.125c-.068.014-.087-.007-.093-.038-.005-.03.025-.129.1-.196.08-.07.167-.048.167-.048ZM45.618 51.605s-.555.023-.597.023c-.044 0-.187.077-.17.12.02.045.133.087.185.108.052.022.042.18.175.235 0 0 .017.063-.025.088-.042.025-.676.436-.755.448a.48.48 0 0 0-.167.073l-.104.044.092.002s.093-.029.13-.027c.036.002.107-.048.137-.048.031 0 .258.008.304.002.046-.006.075-.03.123-.029.048.002.444-.28.48-.29.035-.01.111-.046.152-.023 0 0 .234.432.273.461 0 0 .25.37.334.417.084.048.255.1.382.11.127.009.2-.035.225-.093.025-.057.02-.079.02-.079s-.137-.119-.174-.134c-.036-.015-.301-.18-.351-.24-.05-.058-.456-.5-.508-.763 0 0 .314-.036.398-.032.085.003.146.023.146.023l.044-.198s-.073-.198-.232-.215c0 0-.14.023-.18-.014-.041-.036.024-.18.086-.236.06-.056.157-.021.136-.092-.021-.071-.069-.296-.246-.32 0 0-.03.076-.046.099-.015.025-.188.422-.188.422l-.079.158ZM51.037 55.366l-.078-.046-.104-.173s.06-.058-.021-.092c0 0-.412.082-.34.31 0 0 .119.076.23.041l.363.2s.158.004.1.138l.037.025s.105-.03.165 0c.057.031.113.043.146.089.03.048.086.117.086.117s.16.052.179.125l-.033.128s.121.068.17.037c0 0 .176.273.097.313 0 0-.28-.117-.338-.177 0 0 .025-.17-.138-.288 0 0-.277-.217-.342-.242-.065-.025-.133-.04-.133-.04s-.13-.187-.2-.112c0 0-.015.096.1.168l.18.124s.226.095.23.16c0 0-.031.057-.077.03-.046-.026-.2-.053-.129.085 0 0-.044.067-.07.027-.026-.04-.52-.56-.595-.542 0 0-.207.068.02.27l.432.395s-.313.261-.452.138c0 0-.107-.18-.146-.253 0 0-.02.13-.025.2-.003.069-.055.151.031.24.087.088.198.142.382.023l.306-.17s.073.039.084.13c0 0 .173.207.267.067 0 0 .004-.07-.005-.112a1.028 1.028 0 0 0-.102-.215s.036-.169.088-.192c0 0 .127.15.206.136 0 0 .079-.013.105.087 0 0 .13.226.214.326.084.1.096.13.153.073.06-.057.16-.259.077-.417 0 0-.188-.245-.119-.27 0 0 .06-.058.146-.027 0 0 .29-.15.346-.167.056-.018.307-.018.336-.152.029-.135.092-.187-.006-.277 0 0-.17-.188-.244-.12 0 0-.036.091.039.207 0 0-.154.061-.194.088-.04.027-.279.211-.321.161-.042-.05.029-.192.22-.24 0 0 .14.066.14-.011 0 0 .059-.146.024-.171-.036-.025-.152-.027-.192.105 0 0-.25.212-.304.218 0 0-.259.032-.291-.004-.033-.037.034-.081.082-.083.048-.002.1.004.154-.033.053-.034.284-.098.22-.269l.233-.075.154-.001s.086-.135.013-.202l-.413.123s-.063-.142-.038-.179c.025-.036.107-.042.107-.042s.048.163.212-.002c0 0 .134-.106.023-.217 0 0-.294.084-.413.154 0 0-.277.111-.392.245 0 0-.27.242-.31.27-.04.026-.14.022-.182-.104 0 0 .21-.213.33-.264 0 0 .24-.136.198-.215-.042-.078-.067-.073-.148-.019-.08.054-.2.198-.24.225-.05.021-.29.217-.29.217Zm.907.59s-.117.057-.167.011c-.048-.046-.03-.077-.03-.077l.116.031.08.035Zm.157-.517c-.007.15-.243.188-.274.16-.03-.03-.042-.05.03-.118.074-.067.244-.042.244-.042Zm-.055-.129c-.058.077-.254.087-.254.087-.082.006-.044.125-.044.125l-.07.073c-.149.126-.25.028-.25.028l.172-.151s.2-.14.254-.204c.053-.065.161-.065.161-.065-.03.04.03.107.03.107Z" clip-rule="evenodd"/><path fill="#E60012" fill-rule="evenodd" d="M38.074 55.808a2.536 2.536 0 1 1 0 5.071 2.536 2.536 0 0 1 0-5.071Z" clip-rule="evenodd"/><path fill="#1D2088" fill-rule="evenodd" d="M44.356 57.629v6.967h-5.911v2.682h6.53v-3.335h4.673v4.858h-1.375v-3.553h-1.649v3.55h-9.83v-5.506h6.265v-1.53h-1.865v-1.225h1.725V59.09H41.19v-1.4l3.166-.06Z" clip-rule="evenodd"/><path fill="#1D2088" d="M40.328 70.117v1.57h-.2v-1.109h-.375v-.157c.262.011.404-.09.427-.306h.148v.002Zm.682 1.195h.192c.023.169.113.254.27.254.204.005.33-.189.375-.584h-.01c-.063.115-.182.176-.357.182-.313-.017-.476-.186-.488-.505.018-.35.187-.53.506-.542.355.006.538.248.55.724-.024.57-.216.861-.577.873-.283-.006-.438-.139-.461-.402Zm.507-.323c.192-.011.29-.13.296-.357-.006-.215-.112-.327-.315-.332-.192.011-.294.128-.306.35.002.234.11.345.325.34Zm1.911.315h-.236v.385H43v-.385h-.69v-.192l.715-.995h.165v1.02h.236v.167h.002Zm-.436-.881-.497.714H43v-.714h-.008Zm.744.889h.192c.023.169.113.254.27.254.204.005.329-.189.375-.584h-.01c-.063.115-.182.176-.357.182-.313-.017-.476-.186-.488-.505.018-.35.187-.53.505-.542.356.006.538.248.55.724-.023.57-.215.861-.576.873-.285-.006-.438-.139-.461-.402Zm.505-.323c.192-.011.29-.13.296-.357-.006-.215-.112-.327-.315-.332-.193.011-.294.128-.306.35.002.234.11.345.325.34Z"/><path fill="#fff" fill-rule="evenodd" d="M29.697 59.477a.9.9 0 1 1 0 1.799.9.9 0 0 1 0-1.799ZM53.98 59.477a.901.901 0 1 1 0 1.802.901.901 0 0 1 0-1.802Z" clip-rule="evenodd"/><path fill="#fff" d="m28.431 65.73.576-.106 1.093-.822.083.451-.751.513.884.229.069.384-1.308-.378-.579.103-.067-.374ZM28.971 67.487l-.13-.347 1.922-.027.163.428-1.465 1.235-.138-.365.307-.263-.252-.666-.407.005Zm.722-.023.185.484.636-.501-.004-.01-.817.027ZM30.556 70.999l-.256-.494 1.015-1.317-.014-.004-1.327.687-.167-.322 1.606-.83.265.513-.953 1.262.013.004 1.259-.65.165.321-1.606.83ZM32.926 71.399l-.37-.575-1.52.98.37.574c.272.385.535.504.792.363.206-.14.264-.336.177-.591l.008-.006c.173.136.342.155.503.06.254-.187.267-.456.04-.805Zm-.893.958c-.138.098-.261.052-.367-.136l-.163-.256.401-.26.166.256c.126.175.115.306-.037.396Zm.601-.457c-.115.075-.219.04-.309-.102l-.163-.255.353-.227.164.255c.09.143.076.252-.045.329ZM34.065 72.306l-1.215 1.338.29.264 1.215-1.339-.29-.263ZM34.248 74.752l-.329-.172 1.418-1.299.407.213-.272 1.896-.346-.18.056-.402-.633-.33-.301.275Zm.524-.499.46.24.14-.797-.01-.004-.59.561ZM37.578 76.355l-.509-.225-.036-1.662-.014.006-.603 1.368-.33-.146.728-1.654.528.232.05 1.581.014-.006.572-1.296.33.146-.73 1.656ZM41.336 75.394l.39.037-.11 1.127c-.063.446-.343.651-.844.617-.511-.062-.752-.317-.723-.767l.108-1.127.39.038-.094.982c-.064.394.05.597.343.613.285.04.433-.139.444-.536l.096-.984ZM43.824 77.308l-.555-.035-.611-1.545-.012.008-.09 1.493-.361-.021.11-1.806.576.036.595 1.466.01-.01.086-1.413.361.02-.11 1.806ZM45.176 75.21l-.39.04.181 1.799.39-.04-.18-1.798ZM46.673 76.549l-1.093-1.587.407-.104.809 1.266.01-.002.101-1.498.369-.094-.196 1.915-.407.104ZM48.338 75.734l-.772-1.634 1.095-.517.13.275-.743.35.18.38.688-.327.131.275-.69.324.206.434.768-.363.129.273-1.122.53ZM49.789 72.943l.282.386.261-.19c.148-.108.171-.229.071-.367-.092-.127-.21-.133-.353-.021l-.261.192Zm.459.632.426.584-.315.23-1.064-1.462.624-.455c.336-.236.598-.232.782.012.133.194.12.384-.04.574l.005.008c.154-.089.32-.043.496.134.021.018.035.031.042.043.142.16.254.259.333.29l-.34.247a2.414 2.414 0 0 1-.344-.355c-.102-.12-.194-.15-.273-.092l-.332.242ZM52.08 70.92l-.254.271c-.138-.12-.27-.111-.4.027-.118.146-.13.27-.03.374.087.081.21.068.373-.038a.144.144 0 0 0 .04-.029.153.153 0 0 1 .04-.029c.352-.25.615-.288.792-.115.27.263.238.584-.102.965-.32.341-.624.374-.909.097l.267-.284c.152.142.302.144.45.006.156-.175.18-.317.077-.425-.09-.084-.23-.06-.419.075a.257.257 0 0 1-.061.037c-.339.227-.596.26-.773.094-.257-.269-.23-.588.081-.957.282-.274.557-.297.828-.069ZM52.206 69.389l-.196.34 1.567.9.196-.34-1.567-.9ZM52.725 68.959l-.293-.073.351-1.422.296.073-.13.52 1.461.362-.094.38-1.462-.36-.129.52ZM54.71 66.613l-.57-.142-1.334.306.112-.446.895-.161-.715-.57.094-.38 1.04.882.568.14-.09.371Z"/><path fill="#007739" d="m76.133 63.993-.139-.09c-.257-.173-.28-.182-.618-.136-.121.013-.285.034-.523.053-.76.06-2.13-.13-2.994-.25l-.283-.038c-.728-.098-1.775-.666-1.963-.812.127-.083.655-.28 1.227-.28l.12.001c.647 0 1.212-.15 1.212-.15.74-.12.956-.52.966-.537l.048-.08h-.089c-.038-.009-.22-.157-.364-.31-.168-.177-.327-.252-.421-.198-.012.005-.048.019-.162.019-.073 0-.165-.006-.259-.012l-.067-.002c-.065-.003-.11-.02-.14-.053-.054-.062-.052-.194-.043-.325.02-.207.969-1.026 1.23-1.2l.102.078c.04.046.084.092.169.085.069-.027.269-.183.36-.415a.643.643 0 0 0-.028-.538c-.102-.206-.227-.31-.377-.31-.163 0-.313.127-.426.225-.206.171-.61.463-.882.463h-.005c-.17-.028-.122-.695-.106-.912.002-.063.008-.113.008-.146.003-.136.22-.323.3-.379.21-.103.324-.232.341-.376.021-.208-.173-.365-.18-.373-.022-.015-.515-.401-.844-.401a.281.281 0 0 0-.201.07c-.27.249-.458 1.161-.458 1.192-.007.055-.14.688-.18.755-.056.088-.052.434-.048.53-.048.666-.006 1.25.044 1.78.038.404-.248.456-.252.458-.026 0-.105.03-.242.09-.295.158-.386-.198-.397-.509-.025-.515.14-1.602.18-1.733l.033-.094c.042-.12.09-.255.094-.444a.29.29 0 0 0-.077-.205.301.301 0 0 0-.22-.087c-.087 0-.224.03-.381.168-.32.28-.446.718-.453.837l-.01.137a39.583 39.583 0 0 0-.096 1.648c-.056.438.08.768.17.985.037.09.068.167.068.21 0 .057-.021.061-.052.061a.513.513 0 0 1-.178-.052c-.09-.019-.657-.4-.71-.47-.015-.058-.055-.206.09-.438.182-.3.147-1.193.145-1.23l-.034-1.195.028-.178c.275-.538 1.403-1.426 1.418-1.435.004-.002.11-.09 1.241-.788 1.047-.647 1.343-.628 1.433-.597.021.01.065.086.096.165l.012.027.03.006c.37.051.6-.154.707-.598.044-.173.068-.228.133-.298.08-.094.084-.14.084-.409 0-.296-.219-.56-.899-1.087a.803.803 0 0 0-.495-.182c-.434 0-.784.386-.953.57l-.065.071c-.081.073-.377.46-.69.868-.227.298-.453.592-.573.736-.291.352-.612.767-1.225 1.66-.194.282-.307.322-.361.322l-.089-.047c-.132-.156-.163-.627-.12-.869.04-.223.057-.248.124-.332.046-.058.114-.142.217-.327.26-.453.465-1.089.473-1.22.006-.151-.113-.286-.3-.318-.22.017-.363-.058-.513-.164-.13-.094-.203-.146-.536.025-.25.131-.363.225-.484.323l-.111.092c-.78.602-.888.803-.957.94-.096.205-.046.547-.042.547 0 .008-.021.154.175.263.177.102.359-.002.636-.188a.221.221 0 0 1 .157-.063c.075 0 .148.038.18.094l-.01.148c-.153.234-.358.737-.366.759l-.011.024.015.023c.284.462.357 1.2.357 1.566 0 .25-.052.851-.082 1.208-.012.144-.023.246-.023.263 0 .083-.012.093-.048.095-.262 0-.584-.471-.76-.724a4.923 4.923 0 0 0-.116-.166c-.148-.178-.242-.203-.513-.073-.192.093-.769.592-1.114.89-.12.103-.208.18-.239.203-.061.048-.086.112-.065.173l.115.09.048-.013c.02-.015.143-.042.337-.042.144 0 .418.017.668.115.365.142.865.985.957 1.149-.1.167-.52.906-.536.935-.135.183-1.207.944-1.846 1.397-.313.22-.477.336-.513.367-.071.065-.669.288-.986.409-.167.06-.294.108-.319.123-.096.052-.15.21-.155.227l-.012.042.04.02s.252.141.642.374a.364.364 0 0 0 .196.051c.43 0 1.034-.59 1.02-.597.073 0 1.522-.517 1.704-.607.11-.054.575-.363 1.066-.688.442-.294.995-.659 1.038-.682.086.022.914.498 1.413.792 2.473 1.604 3.944 1.625 4.885 1.606.09-.002.173-.006.256-.006.72 0 1.86-.363 2.509-.596.146-.048.236-.18.436-.549.21-.376-.33-.726-.724-.98ZM93.813 65.59l-.044.005c-.004.002-.334.171-.672.171-.298.033-1.374.094-2.238.094-.26 0-.5-.005-.705-.019 0 0-.135.018-.29.018-.217 0-.371-.035-.417-.09l-.023-.091.002-.067c.023-.06.107-.177.43-.32.373-.166.734-.87.697-1.129-.036-.257-.415-.58-.528-.62-.21-.07-.32-.233-.32-.469-.012-.14-.248-.217-.34-.24l-.012-.088.132-.027c.018-.01.425-.238.573-.47.04-.047.278-.156.43-.218l.067-.027-.555-.69-.025.104-.063.144a3.635 3.635 0 0 1-.419.371.696.696 0 0 1-.298.08h-.004l-.011-.076c-.029-.194-.079-.6-.6-.745-.065-.035-.245-.146-.272-.27l.02-.113c.022-.02.132-.051.31-.051.104 0 .198.011.24.026l.104.06c.213.13.686.382 1.024.246.467-.192.492-.415.494-.795.003-.144.046-.164.1-.192l.05-.018c.022 0 .047.017.122.07.765.535.817.54.876.531.321-.194.863-.503.951-.513l.046-.003.002-.046c.002-.03.039-.707-.29-.878l-.102-.031c-.899-.27-1.421-.45-1.55-.528l-.044-.03-.113.172c-.031.046-.152.194-.229-.18-.01-.033-.035-.377.063-.977.027-.167.066-.374.104-.591.102-.582.208-1.184.208-1.326 0-.178.405-1.01.522-1.102.01-.027.03-.095-.58-.968l-.021-.031-.03.007c-.007.002-.558.16-.785.16-.082-.048-.668-.767-.89-1.149l-.024-.044-.046.025c-.064.03-.624.323-.726.586 0 0 .01.079-.064.255-.098.238-.61 1.335-.76 1.49l-.02.049c-.024.12-.044.252.01.32l.09.047c.144 0 .57-.21.703-.596.11-.316.198-.526.421-.526.058 0 .125.014.194.04.121.058.453.24.526.388.075.137.267.229.371.266-.04.055-.08.123-.08.16 0 .02-.012.15-.031.333-.043.452-.108 1.134-.108 1.274 0 .298-.034.659-.088.73-.071.088-.736.605-.819.311-.005-.05-.015-.111.388-.36.137-.084.22-.184.243-.297.044-.182-.068-.355-.131-.46l-.04-.064-.012-.031-.034-.004a17.311 17.311 0 0 1-.504-.04v-.292c.046-.064.548-.323.644-.33a.234.234 0 0 0 .16-.093.384.384 0 0 0 .066-.28c-.007-.083-.128-.851-.722-.748l-.044.008-.002.044c0 .004-.013.33-.207.33-.218 0-.398.227-.534.673a1.065 1.065 0 0 1-.271.461c-.089.088-.183.503-.183 1.04v.147c0 .55 0 1.07.104 1.247.098.165.14.196.198.24a.32.32 0 0 1 .019.194.327.327 0 0 1-.165.23c-.137.077-.265.123-.344.123l-.06-.017-.004-.08c.058-.281-.134-.798-.616-1.024-.075 0-.171.111-.211.169-.006.007-.145.119-.223.248l-.027.044c-.1.161-.338.543-.532 1.298-.087.342-.15.55-.192.69-.062.202-.087.278-.081.44.006.044.05.065.13.065.218 0 .75-.165 1.215-.801.086-.157.251-.388.34-.388l.044.033c.011.025.044.053.104.053.119 0 .315-.1.415-.21a.5.5 0 0 1 .353-.158c.073 0 .146.019.215.053.173.087.415.056.638.01.1-.021.2-.042.301-.048.085-.014.121-.046.158-.077.03-.027.065-.06.161-.092.152-.052.506-.094.602.006l.04.125c-.01.182-.077.197-.16.197-.084 0-.197-.028-.334-.061l-.11-.027-.018.015c-.006.004-.575.402-1.314.417-.085.012-1.093.2-1.195.433-.064.15-.123.36-.035.528.06.113.18.184.361.215.058 0 .094-.03.123-.06.04-.036.104-.073.26-.078.165.005.182.075.207.172l.058.139.073.07c.077.074.14.137.107.18-.002.005-.21.436-.812.436l-.114-.006-.147-.008c-.223-.011-.412-.023-.567-.023-.265 0-.548.021-.557.252-.012.26.213.803.42.84.242.053.306.043.7-.068.194-.056.363-.085.497-.085h.025c-.008.096-.034.296-.12.417-.078.106-1.278 1.31-2.272 1.31a.984.984 0 0 1-.766-.347c.13-.08.384-.33.32-1.082-.06-.178-.124-.365-.191-.555-.342-.974-.73-2.078-.588-2.56.056-.18.102-.32.225-.418.186-.151.201-.716.201-.722v-.03l-.025-.016c-.019-.011-.487-.296-.234-.91.115-.265.296-.598.647-.817.352-.223.542-.559.54-.697.004-.017.127-.415-.167-.807-.252-.422-.536-.905-.903-1.024a.691.691 0 0 0-.568.056l-.064.035c-.015.005-.382.165-.382.37 0 .139.146.655.188.748.006.003.171.1.171.303l.002.073c.008.244.017.651-.51 1.56l-.598 1.056c.005.027.153.638.284.819.129.184.265.443.275.603.067.188.835 2.927.843 2.96 0 0 .08.23-.023.426-.065.124-.194.208-.386.256 0 0-.296.102-.776.102-.19 0-.386-.014-.582-.046-.713-.114-1.39 1.316-1.422 1.479l.206.363.042-.014c.008-.001.995-.33 1.28-.33h.001c.263.008 1.483.523 1.6.586.033.017.087.05.15.085.283.163.427.24.486.247.04.006.456.121.892.246 1.022.288 1.811.505 1.898.505l.163.002c.275.004.837.01 1.443.01.712 0 1.267-.008 1.644-.025.478-.021 1.099-.044 1.638-.063a49.934 49.934 0 0 0 1.203-.048c.023-.004.098-.037.384-.162.428-.188 1.228-.536 1.381-.538l.711-.13.229-.28-.06-.03c-.052-.028-1.345-.71-1.923-.71Zm-5.273-.35a9.432 9.432 0 0 0-.469-.292c-.117-.073-.182-.152-.195-.242-.027-.169.136-.35.242-.469.415-.315.632-.693.632-.785l.053-.094c.048 0 .373.119.44.32.204.627-.538 1.399-.703 1.562Zm-.943.476a4.844 4.844 0 0 0-.461-.115l-.027-.006-.023.02s-.046.042-.14.061c-.321 0-.648-.223-.682-.248l-.037-.069c.048-.048.146-.077.262-.077.124 0 .21.033.232.056.094.098.342.048.417-.06a.402.402 0 0 1 .211-.15c.261.081.261.437.248.588ZM112.12 63.87c-.278.04-.461-.013-.747-.107-.144-.046-.672-.24-1.445-.753l-.297-.14c-.473-.223-.811-.385-1.005-.57-.338-.028-.872-.141-1.568-.808-.682-.651-1.283-1.089-1.45-1.072-.144-.128-.211-.232-.221-.347l.137-.081c.146-.088.303-.184.318-.2l.483.008c.003-.002.332-.229.557-.273.246-.052.472-.254.461-.255.063-.004.584-.025.687-.058.119-.042.208-.225.208-.436 0-.19.029-.542.038-.575l.008-.028-.019-.021c-.029-.035-.709-.83-.94-.94-.224-.107-.357-.15-.495-.096-.041.012-.179.083-.354.171-.313.161-.903.457-.999.457-.196-.013-.38-.063-.382-.315-.006-.313.177-.591.484-.745a4.06 4.06 0 0 1 .379-.16c.125-.046.215-.078.29-.169.08-.62.052-.668.019-.712-.43-.457-1.108-.797-1.598-1.005a.773.773 0 0 0-.277-.061c-.106 0-.184.032-.24.098-.073.086-.09.222-.054.418.033.118.069.193.096.246l.037.115c.002.08.002.23-.167.427-.212.246-.425 1.23-.448 1.627-.021.39-.553.745-.73.864-.225.148-1.018.358-1.908.435-.543.046-.879.084-.937.119l-.35.428.027.035c.144.188.298.426.3.48 0 .119.088.325.415.325.3 0 .451.201.457.21l.016.024h.026c.05 0 .164.015.202.073.09.09.177.21.208.228.178.052.353.125.37.15l.004.052a.625.625 0 0 1-.119.457.614.614 0 0 0-.061.166c-.002.015-.045.044-.106.07-.075.072-1.81 1.749-1.95 2.012-.173.267-.788.932-1.12 1.145a5.98 5.98 0 0 1-.238.211c-.125.11-.183.158-.198.206-.017.05-.234.336-.42.368l-.106.052c-.173.085-.394.19-.425.352-.015.071.006.144.07.217l.247.21.974.005 1.406-1.663c.048-.012 1.182-.304 1.441-.506a9.33 9.33 0 0 0 .415-.47c.305-.354.874-1.01 1.001-1.032.211-.08.328-.177.332-.182.248-.212 1.064-.905 1.101-.968l.077-.01c.138 0 .345.061.472.198.058.063.154.184.273.336.292.373.73.932 1.101 1.23.255.207.783.658 1.256 1.066.622.532.899.768.947.79.09.037.857.147 1.681.147.484 0 .887-.04 1.202-.115 1.021-.246 1.618-1.097 1.645-1.132l.025-.034-.029-.033a.55.55 0 0 0-.49-.156ZM126.894 60.774c-.207-.436-1.1-1.35-1.325-1.404 0 0-.269-.031-.45-.077-.159-.037-1.504-.334-1.567-.32 0 0-.091-.06-.104-.157-.01-.067.015-.138.077-.213.14-.169.361-.469.519-.68l.176-.236c.027-.023.041-.071.096-.396.048-.269.119-.674.189-.762.119-.223.706-1.048.779-1.1l.033-.015-.004-.036c0-.029-.046-.717-.228-.926l-.062-.02c-.096 0-.591-.017-.868-.316-.244-.265-.496-.396-.77-.396-.123 0-.702.071-1.295.41-.179.082-.392.145-.513.145l-.012-.056a.257.257 0 0 0-.063-.17c-.328-.375-.424-.375-.457-.375-.058 0-.181-.077-.25-.127-.004-.002-.105-.06-.213-.06-.117 0-.206.07-.244.198-.081.271-.177.335-.188.34-.068.043-.125.496-.125.569 0 .056-.106.246-.188.398-.1.18-.204.365-.244.497-.016.056-.054.127-.202.127-.115 0-.271-.042-.463-.127-.1-.04-.154-.084-.159-.127-.012-.055.055-.128.119-.196.144-.144.806-.827.806-.827l.029-.03-.021-.034c-.004-.004-.036-.063-.011-.177.034-.148-.027-.787-.965-1.025-.161-.03-.24.048-.24.123 0 .067-.132.626-.294.824-.079.128-.14.222-.18.282-.054.083-.068.102-.069.12l-.037.091c-.173.46-.35.942-.35 1.063 0 .09.071.317.146.557.064.201.129.41.137.491.015.185-.017 1.343-.06 1.603-.032.188.073.543.16.831.036.127.071.246.073.285l.005.052c.008.065.01.094-.336.251-.08.056-.228.1-.465-.032l.025-.031c.002-.012.045-.292-.134-.742-.023-.132-.073-.931.044-1.189.037-.102-.023-.282-.079-.432l-.044-.104c-.034-.078-.096-.217-.096-.265 0-.096-.175-.501-.44-.501l-.05.006c-.107.025-.299.188-.353.259a.602.602 0 0 1-.15.148c-.069.029-.209.269-.209.478 0 .213.005 1.22.019 1.42.011.09.096.428.184.785.081.321.179.723.183.76-.018.072-.386.666-.642.666-.184 0-.325-.017-.407-.11-.067-.07-.09-.188-.077-.355a.492.492 0 0 0-.111-.37.337.337 0 0 0-.256-.112c-.109 0-.39.056-.617.578-.067.207-.057.39-.057.396 0 .005 0 .71-.025.92-.058.157-.083.19-.09.217-.004.02-.047.422.123.659.124.034.76.213.856.213l.043-.015c.015-.012 1.605-1.332 1.79-1.45.063-.041.119-.081.173-.12.105-.073.196-.136.313-.192.188-.094.676-.586.689-.595.043 0 .208.02.667.307l.058.015c.08 0 .238-.094.238-.197-.004-.045-.014-.135.263-.323.323-.22.622-.37.619-.375h.071c.14 0 .432.014.831.1.145.03.273.048.383.048.232 0 .332-.077.409-.134l.061-.058c.06-.067.135-.15.34-.15a3.21 3.21 0 0 0 .373-.032c.173.434.24.441.269.441l.029.002.019-.02c.002-.005.192-.237.544-.32.134-.052.274-.107.342-.11.048 0 .146-.003.276-.003.632 0 1.059.09 1.168.248l.031.048c.094.134.127.18.034.29-.111.136-.19.16-.197.161-.008.004-.855.398-1.109.427-.075.017-.232.096-.23.217.002.11.125.186.376.242.563.123 2.267.29 2.455.29.131 0 .548-.175.723-.45a.428.428 0 0 0 .03-.426Zm-6.694-3.25-.35.291c-.063-.02-.227-.082-.223-.205.004-.115.037-.198.087-.225l.028-.013.002-.033c.002-.096.023-.363.108-.463.044-.055.117-.125.192-.125l.123.052.015.094c.018.104.037.22.141.246.011.039.028.161-.123.38Zm1.738 1.582c-.029.012-.081.02-.179-.023-.18-.084-.451.027-.633.098l-.058.023a.154.154 0 0 1-.127-.036c.703-.634.938-.607 1.005-.563.067.044.048.148.077.148-.05.027-.093.102-.106.186a.419.419 0 0 0 .021.167Zm.234-2.426.022-.148c.015-.13.05-.184.098-.272a1.13 1.13 0 0 0 .084-.158c.161-.853-.657-1.12-.666-1.124l-.07-.023v.073l-.048.094a2.495 2.495 0 0 0-.096.166 1.927 1.927 0 0 0-.18.572c.006.325.347.768.407.822.01.017.035.113-.029.676l-.148.344c-.2.492-.465.64-.676.759l-.094.054c-.127.077-.142.065-.156-.008-.021-.065.194-.38.287-.513.061-.088.113-.167.136-.213l.048-.083c.054-.086.096-.155.1-.397.008-.28-.379-.69-.544-.865l-.05-.053-.115-.125a2.801 2.801 0 0 1-.225-.244c.008-.052.187-.31.262-.421l.073-.112a.502.502 0 0 0 .078-.418l.006-.056c.035-.042.15-.065.348-.065.052 0 .107 0 .163.002h.052c.3 0 .378-.106.449-.2l.062-.017c.025.017.265.188.39.217l.111.005c.139.006.327.018.431.039.395.142.487.463.478.503-.025.05-.098.288-.185.569l-.044.14c-.03.102-.073.3-.121.58-.023.127-.24.475-.296.49a.392.392 0 0 1-.363-.198c-.028-.046 0-.255.021-.392Zm-3.058.16c.008.173-.017.201-.021.203a1.13 1.13 0 0 0-.111.26l-.144-.137c0-.055-.023-.19-.043-.319-.013-.09-.032-.205-.03-.226.004-.044.036-.19.228-.196.094 0 .152.046.183.086l.042.092-.104.237Zm-.249 1.955c.057-.18.126-.319.18-.37.077 0 .348.268.354.4.003.137-.106.258-.204.37a.28.28 0 0 0-.073.167c-.085-.021-.221-.065-.33-.098l-.008-.263.081-.206Z"/><path fill="#007739" d="M124.712 62.97c-.088 0-.177.007-.24.011-.131.01-.736-.006-.74-.006h-.19c-.93 0-1.31-.078-1.366-.105-.073-.046-.342-.615-.357-.682.021-.03.183-.089.352-.154l.351-.134c.501-.198.617-.896.621-.925l.009-.06-.061-.003c-.018-.002-.098-.036-.179-.07-.109-.045-.257-.11-.434-.172-.179-.094-.457-.125-.642-.125-.113 0-.19.01-.223.03l-.044.03c-.086.057-.224.15-.417.228-.92.33-2.018.379-2.447.385-.292.005-.743.293-.983.447l-.073.046c-.171.09-.498.417-.575.575-.102.209.092.31.277.409l.113.025c.329 0 1.055-.43 1.053-.44.513.044.741.015.932-.012l.073-.01c.23-.026.703-.343.816-.433.079-.062.219.06.255.105 0 .087-.128.242-.213.344l-.077.096c-.094.13-.025.369-.017.396l.014.038.297-.002c.275.008.317.062.315.233 0 .098-.046.11-.086.11a.442.442 0 0 1-.156-.041l-.067-.029c-.088-.044-.182-.088-.465-.09-.349 0-1.487.31-1.529.322-.474.085-1.187.171-1.656.218-.566.055-.81.103-.905.18-.115.092-.14.465-.082.72.104.245.632.554.801.633.225.142.549.019.951-.154.215-.094.459-.198.732-.277.643-.184 1.696-.194 2.199-.2.1 0 .177 0 .229-.003l.073.038c.073.121-.025.455-.064.528a1.52 1.52 0 0 0-.063.189c-.077.24-.202.64-.407.98-.114.184-.292.278-.53.278a.952.952 0 0 1-.364-.07c-.057-.036-.954-.387-1.31-.457-.365-.069-1.033.304-1.058.32l-.058.03.584.682.139.008s1.55.49 2.007.622c.246.071.617.17.968.17.211 0 .402-.037.557-.105.425-.184.544-.999.6-1.388l.011-.096c.09-.24.296-1.345.34-1.587h.052c.551 0 1.35-.123 1.579-.187 1.101-.144 1.156-1.05 1.156-1.23-.001-.18-.284-.18-.378-.18ZM64.797 72.302v1.402H63.9v-1.412l-1.483-2.332h1.058l.89 1.629.849-1.63h1.016l-1.433 2.343ZM67.677 72.932l-.298.772h-.945l1.536-3.744h1.04l1.5 3.744h-.974l-.275-.772h-1.584Zm.24-.648h1.093l-.53-1.477-.563 1.477ZM73.7 69.96h.838v3.744h-.897L71.89 71.03l-.01 2.674h-.837V69.96h.945l1.702 2.609.012-2.61ZM75.399 69.96h2.086c.469 0 .82.111 1.053.334a.84.84 0 0 1 .269.624c0 .233-.066.417-.192.554a1.035 1.035 0 0 1-.335.213c.244.08.417.205.527.376.09.146.138.323.138.532 0 .15-.033.29-.096.423a1.198 1.198 0 0 1-.71.596c-.214.063-.52.094-.921.094h-1.82V69.96Zm.86 1.462h1.051c.19 0 .34-.031.448-.094a.351.351 0 0 0 .186-.323c0-.146-.056-.248-.167-.307-.111-.062-.277-.093-.49-.093H76.26v.817Zm0 .632v1.002h1.1c.222 0 .393-.044.51-.134.117-.088.177-.227.177-.415a.37.37 0 0 0-.186-.342.87.87 0 0 0-.46-.111h-1.14ZM80.54 69.96h-.898v3.744h.897V69.96ZM82.285 72.932l-.297.772h-.945l1.536-3.744h1.04l1.5 3.744h-.974l-.275-.772h-1.585Zm.239-.648h1.093l-.532-1.477-.561 1.477ZM88.31 69.96h.837v3.744h-.897l-1.752-2.674-.011 2.674h-.836V69.96h.945l1.702 2.609.012-2.61ZM95.106 69.96v2.436c0 .48-.157.837-.472 1.073-.3.223-.728.335-1.291.335-.252 0-.477-.027-.68-.083a1.549 1.549 0 0 1-.682-.37c-.225-.218-.335-.521-.335-.907v-2.482h.915v2.43c0 .246.07.432.215.559.144.127.325.19.55.19.297 0 .516-.06.656-.183.14-.12.21-.297.21-.532v-2.464h.914v-.002ZM98.602 69.96h.838v3.744h-.897L96.79 71.03l-.012 2.674h-.837V69.96h.945l1.702 2.609.013-2.61ZM101.124 69.96h-.897v3.744h.897V69.96ZM104.448 69.96h.933l-1.46 3.744h-.854l-1.447-3.744h.962l.921 2.835.945-2.835ZM109.104 69.96v.665h-2.276v.781h2.09v.663h-2.09v.972h2.378v.663h-3.258V69.96h3.156ZM109.936 69.96h2.169c.392 0 .699.08.928.244a.95.95 0 0 1 .424.812c0 .21-.059.394-.177.556a.927.927 0 0 1-.488.336c.202.08.339.167.408.261.09.133.138.363.138.69 0 .295.008.488.027.574.017.088.071.144.163.173v.1h-.993a2.044 2.044 0 0 1-.071-.31 3.046 3.046 0 0 1-.023-.449c0-.286-.033-.469-.096-.547-.089-.108-.288-.162-.603-.162h-.926v1.468h-.88V69.96Zm.878 1.644h1.053c.238 0 .414-.038.526-.117.111-.079.167-.21.167-.392a.457.457 0 0 0-.113-.317c-.108-.115-.279-.173-.513-.173h-1.118v1h-.002ZM114.03 72.55h.86c0 .153.052.28.156.382.155.15.407.224.753.224.255 0 .459-.032.611-.094.19-.078.286-.21.286-.39 0-.136-.071-.238-.215-.307-.096-.046-.283-.098-.561-.158l-.461-.094c-.459-.094-.772-.192-.94-.292-.282-.17-.424-.44-.424-.808 0-.287.1-.53.3-.729.282-.28.733-.422 1.35-.422.586 0 1.028.144 1.327.432.231.223.348.48.348.774h-.861a.568.568 0 0 0-.149-.34c-.144-.146-.386-.217-.73-.217-.204 0-.371.03-.502.094-.163.08-.246.198-.246.354 0 .129.052.226.156.29a.89.89 0 0 0 .3.1l1.047.224c.353.077.614.175.783.298.227.163.34.4.34.71 0 .377-.144.671-.43.88-.317.231-.736.345-1.262.345-.695 0-1.199-.15-1.506-.45a1.075 1.075 0 0 1-.33-.807ZM119.062 69.96h-.897v3.744h.897V69.96ZM121.721 70.624v3.08h-.895v-3.08h-1.297v-.664h3.491v.665h-1.299ZM125.565 72.302v1.402h-.895v-1.412l-1.483-2.332h1.058l.89 1.629.847-1.63H127l-1.435 2.343Z"/></g><defs><filter id="a" width="154" height="157" x="0" y="0" color-interpolation-filters="sRGB" filterUnits="userSpaceOnUse"><feFlood flood-opacity="0" result="BackgroundImageFix"/><feColorMatrix in="SourceAlpha" result="hardAlpha" values="0 0 0 0 0 0 0 0 0 0 0 0 0 0 0 0 0 0 127 0"/><feOffset dy="16"/><feGaussianBlur stdDeviation="6.5"/><feColorMatrix values="0 0 0 0 0 0 0 0 0 0 0 0 0 0 0 0 0 0 0.03 0"/><feBlend in2="BackgroundImageFix" result="effect1_dropShadow_185_158"/><feBlend in="SourceGraphic" in2="effect1_dropShadow_185_158" result="shape"/></filter></defs></svg>