<svg xmlns="http://www.w3.org/2000/svg" width="154" height="157" fill="none"><g filter="url(#a)"><path fill="#fff" d="M13 0h128v128H13z"/><path fill="#004492" d="M43.232 48.524c-8.65 0-15.708 7.053-15.708 15.708 0 4.325 1.766 8.25 4.609 11.099a15.668 15.668 0 0 0 11.099 4.609c8.65 0 15.708-7.053 15.708-15.708 0-4.325-1.766-8.25-4.61-11.1-2.847-2.842-6.773-4.608-11.098-4.608Zm0-.524c4.47 0 8.53 1.82 11.468 4.764a16.188 16.188 0 0 1 4.764 11.468c0 8.939-7.293 16.232-16.232 16.232-4.47 0-8.53-1.821-11.468-4.764C28.826 72.757 27 68.7 27 64.232 27 55.292 34.293 48 43.232 48Z"/><path fill="#004492" d="M43.232 54.166c5.542 0 10.061 4.519 10.061 10.06 0 5.543-4.52 10.062-10.061 10.062-5.542 0-10.062-4.52-10.062-10.061-.005-5.537 4.52-10.062 10.062-10.062Zm0 .239c-5.413 0-9.827 4.415-9.827 9.827s4.414 9.827 9.827 9.827c5.412 0 9.827-4.415 9.827-9.827s-4.415-9.827-9.827-9.827Z"/><path fill="#004492" d="M42.434 73.016v-.125a.232.232 0 0 0 .154-.11.913.913 0 0 0 .075-.324.283.283 0 0 1-.23.145v-.115c.065 0 .12-.02.155-.06a.2.2 0 0 0 .055-.144c0-.1-.02-.175-.055-.215-.035-.044-.09-.064-.154-.07v-.114c.124 0 .224.045.299.13.08.084.12.224.12.419 0 .18-.035.314-.12.423a.391.391 0 0 1-.3.16Zm1.401-.015h-.813v-.1c.03-.07.07-.13.135-.194.055-.06.134-.125.244-.195.07-.055.125-.11.165-.16a.24.24 0 0 0 .055-.149c0-.06-.02-.1-.045-.135-.025-.044-.07-.06-.145-.06-.045 0-.09.02-.125.06-.044.035-.064.11-.064.21h-.19c.01-.13.045-.225.11-.29.07-.07.17-.1.28-.1.124 0 .214.03.278.086.065.06.1.134.1.239 0 .08-.035.15-.09.21a2.75 2.75 0 0 1-.214.19c-.09.064-.165.114-.2.149-.035.035-.07.08-.11.124h.63v.115Zm.978-.31c0 .1-.035.18-.12.24-.07.06-.17.085-.3.085a.485.485 0 0 1-.288-.085c-.08-.06-.12-.15-.12-.264h.18c0 .08.024.135.064.174.045.045.1.06.16.06.075 0 .125-.015.164-.05.045-.034.065-.084.065-.164 0-.06-.025-.11-.065-.135a.334.334 0 0 0-.214-.06v-.11c.09 0 .155-.014.19-.05.044-.034.064-.084.064-.159 0-.05-.02-.095-.045-.125-.025-.03-.074-.044-.144-.044-.065 0-.11.02-.145.054-.035.035-.055.085-.065.16h-.18c.01-.1.056-.18.115-.244a.414.414 0 0 1 .27-.085c.124 0 .214.03.28.08.064.06.099.124.099.194 0 .08-.02.135-.055.175-.025.045-.08.075-.16.095a.3.3 0 0 1 .18.094c.055.04.07.1.07.165Zm-3.233.31h-.19v-.858h-.243v-.08c.1 0 .17-.015.224-.044a.261.261 0 0 0 .11-.135h.1V73Zm.854-1.117v.115h-.02c-.045 0-.09.02-.125.054-.035.035-.055.1-.055.2 0 .07.01.13.035.174.035.035.08.06.145.06h.02v.115h-.045c-.11 0-.19-.03-.255-.085-.065-.055-.1-.144-.1-.26 0-.114.035-.199.1-.273.065-.065.16-.1.29-.1h.01Zm0 1.007v.125h-.045c-.1 0-.18-.03-.245-.085a.27.27 0 0 1-.09-.2h.18c0 .046.02.08.045.116.035.034.075.05.12.05.02-.006.03-.006.035-.006Z"/><path fill="#006D46" d="m40.414 59.747-.06 1.651-.13-.004.065-1.652.125.005Z"/><path fill="#006D46" d="M40.29 61.334c.004 0 2.383-.03 3.047-.01.653.01 2.923.03 2.933.03v.124c-.005 0-2.285-.02-2.933-.03-.659-.02-3.038.01-3.043.01l-.005-.124Z"/><path fill="#006D46" d="m46.205 61.419-.035-1.642.13-.005.03 1.642-.125.005ZM40.982 59.732l-.04 1.642h.853l.04-1.632-.06-.264-.723.005-.07.25ZM42.479 59.722l-.03 1.652 1.566-.01v-1.651l-.115-.26-1.317-.01-.104.28ZM44.678 59.732v1.642h.898l-.025-1.632-.1-.259-.703-.005-.07.254ZM39.042 59.907c.05-.26.753-.38.838-.01-.01.32-.03.639-.03.639l-.828.034c.01-.22.02-.444.02-.663ZM47.482 59.917c-.05-.25-.754-.369-.838-.01.01.33.03.639.03.639l.822.03c-.004-.215-.014-.44-.014-.659ZM37.845 59.972c.05-.25.723-.36.803-.01l-.02.628-.803.02c.01-.204.01-.424.02-.638ZM48.68 59.992c-.05-.25-.724-.374-.804-.01l.02.618.803.03c-.01-.214-.01-.434-.02-.638ZM36.428 60.027c.08-.27.678-.36.763-.01l-.02.618-.773.04c0-.214.03-.434.03-.648ZM50.096 60.052c-.085-.26-.684-.36-.763-.01l.02.628.773.03c0-.214-.03-.429-.03-.648ZM35.326 60.097c.084-.26.683-.36.733-.01l-.02.598-.753.03c.01-.204.03-.414.04-.618ZM51.198 60.146c-.085-.259-.683-.359-.733-.01l.02.599.753.04c-.005-.205-.03-.424-.04-.629ZM34.113 59.987c.294-.135.604.06.663.194l-.03.599-.738.03c.015-.205.09-.619.105-.823ZM52.36 60.022c-.27-.135-.559.06-.613.194.014.3.03.599.03.599l.683.04c-.01-.205-.085-.624-.1-.833ZM39.062 60.94h.723c.03 0 .05.02.05.04v.743c0 .02-.02.04-.05.04h-.723c-.03 0-.05-.02-.05-.04v-.744c0-.015.02-.04.05-.04ZM47.462 60.95h-.723c-.03 0-.05.02-.05.05v.733c0 .02.02.04.05.04h.723c.03 0 .05-.02.05-.04v-.734c.005-.025-.02-.05-.05-.05ZM37.825 60.995l.733-.01c.02 0 .04.02.04.05v.733c0 .02-.02.04-.04.04h-.733c-.02 0-.04-.02-.04-.04v-.733c-.005-.03.02-.04.04-.04ZM48.704 61.004h-.733c-.02 0-.04.02-.04.04v.734c0 .03.02.05.04.05h.733c.02 0 .04-.02.04-.04v-.744c0-.02-.02-.04-.04-.04ZM36.418 61.064l.683-.02c.03 0 .05.02.05.04l-.02.724c0 .03-.02.04-.04.05l-.673.03c-.03 0-.04-.02-.04-.05v-.734c0-.02.01-.04.04-.04ZM50.106 61.074l-.684-.02c-.03 0-.05.02-.05.04l.02.734c0 .02.02.04.04.04l.669.03c.03 0 .04-.02.04-.04v-.739c.005-.025-.005-.045-.035-.045ZM35.285 61.149l.669-.05c.02 0 .04.02.04.04l-.02.713c0 .03-.02.04-.05.05l-.659.03c-.05.01-.04-.01-.04-.04l.01-.703c-.005-.02.015-.04.05-.04ZM51.243 61.159l-.668-.04c-.02 0-.04.02-.04.04l.02.713c0 .02.02.04.05.04l.663.04c.05 0 .04-.02.04-.04l-.01-.703c-.005-.03-.025-.04-.055-.05ZM33.779 61.2l.878-.03c.04 0 .08.02.08.04l-.04.702c-.02.03-.04.04-.1.04l-.878.03c-.115 0-.095-.02-.095-.05l.075-.693c.005-.02.045-.04.08-.04ZM52.705 61.22l-.844-.04c-.034 0-.074.02-.074.04l.035.712c.02.02.034.04.094.04l.843.02c.115 0 .095-.02.095-.04l-.075-.693c0-.02-.035-.04-.075-.04ZM33.395 62.192l-.025 1.062 2.759-.03.498-.798 2.759-.08.244-.354-6.235.2ZM53.014 62.222l.025 1.052-2.734-.03-.498-.798-2.734-.07-.24-.359 6.181.205Z"/><path fill="#006D46" d="m37.161 62.626-.628 1.052 4.704-.054.23-1.083-4.306.085ZM49.313 62.656l.628 1.052-4.709-.04-.279-1.117 4.36.105ZM39.95 59.209s-2.654.144-3.168.194c-.528.05-2.414.32-2.414.32l-.01.164s2.075-.27 2.599-.31c.538-.039 2.908-.204 2.973-.204.01-.124.02-.164.02-.164ZM46.6 59.239s2.693.154 3.217.204c.518.05 2.404.33 2.404.33l.01.164s-2.065-.28-2.604-.32a388.42 388.42 0 0 0-3.013-.204c-.06 0-.015-.174-.015-.174ZM40.199 58.96l-.03.144s2.778-.04 3.053-.03c.329.01 2.993.075 2.993.075l-.02-.165s-2.868-.05-3.088-.05c-.215-.015-2.908.025-2.908.025Z"/><path fill="#006D46" d="M41.466 62.531h3.521v.115h-3.521v-.115ZM41.426 62.925h3.602v.11h-3.602v-.11ZM41.386 63.379h3.736c.02 0 .03.01.03.03v.05c0 .01-.01.03-.03.03h-3.736c-.02 0-.03-.02-.03-.03v-.05c-.005-.02.005-.03.03-.03ZM41.281 63.863h3.891v.105h-3.89v-.105ZM41.032 64.481h4.39v.115h-4.39v-.115ZM40.568 64.975h5.263v.135h-5.263v-.135ZM40.463 65.544h5.462v.135h-5.462v-.135ZM40.229 66.197h5.936v.135H40.23v-.135ZM39.93 66.906h6.49v.164h-6.49v-.164ZM39.536 67.659h7.277v.22h-7.277v-.22ZM38.608 69.096l4.385.05 4.758-.04.01.209-4.694.06-4.46-.05v-.23ZM38.04 69.819l4.893.104 5.357-.075.01.22-5.298.09-4.963-.105v-.234ZM37.44 70.602l5.463.135 6.005-.125.02.23-5.946.154-5.562-.135.02-.26ZM39.072 68.372l3.945.05 4.26-.04.02.21-4.22.06-4.015-.05.01-.23ZM40.239 59.104l-.23.135-.01.154.02.02c.3 0 2.924-.05 3.158-.05.23 0 2.923.065 3.322.075l.02-.085-.03-.07-.31-.144v-.155l.38.185.03.01.01.03.04.124v.04l-.04.145-.01.05h-.05c-.01 0-3.128-.075-3.367-.075-.26 0-3.178.05-3.188.05h-.03l-.02-.03-.06-.06-.01-.02v-.03l.02-.22v-.03l.03-.02.29-.164.035.135Z"/><path fill="#006D46" d="m40.294 59.468.1.21 2.908-.05h.005l2.858.084.105-.224.115.055-.125.26-.015.034H46.2l-2.898-.08-2.948.05h-.045l-.015-.035-.115-.25.115-.054ZM39.62 62.59l.619-.977.02-.03h.04l2.923-.035 3.003.065h.03l.02.03.653.973-.155-.01-.588-.868-2.963-.065-2.894.045-.553.873h-.155ZM37.43 70.831l-.124-.01-.01-.907c0-.02 1.412-1.527 1.756-2.02.194-.29 1.476-2.5 1.486-3.024 0-.144-.084-.114-.114-.144-.02-.04-.01-.105-.01-.115 0-.02.453-.095.578-.28.135-.184.32-1.032.32-1.032.01.28-.08.783-.27 1.137l-.414.484c-.01 0-.678 1.99-.823 2.19-.095.195-1.621 2.654-2.31 3.407-.134.135-.064.314-.064.314ZM48.919 70.832l.124-.01v-.908c0-.02-1.416-1.527-1.746-2.02-.204-.29-1.476-2.5-1.486-3.023-.01-.145.06-.05.09-.085.03-.04.035-.165.035-.175 0-.02-.38-.105-.514-.29-.125-.194-.27-1.062-.27-1.062-.01.27-.02.813.165 1.168l.394.493c.01 0 .684 1.99.828 2.19.095.195 1.691 2.759 2.38 3.512.13.135 0 .21 0 .21Z"/><path fill="#006D46" d="m41.486 61.873-.1.658h.09l.085-.669-.075.01ZM44.913 61.882l.095.649-.095.01-.07-.669.07.01ZM37.256 70.871l-.384-.174-.05-.03-.01-.05-.04-.713v-.04l.03-.03c.01 0 1.756-1.651 2.095-2.095.145-.185.35-.484.549-.803.25-.414.494-.838.578-1.013.095-.184.175-.37.25-.569a2.32 2.32 0 0 0 .154-.628l.185.02c-.02.26-.08.474-.155.683a7.745 7.745 0 0 1-.26.579c-.084.174-.328.608-.598 1.032-.184.32-.389.629-.548.828-.32.415-1.836 1.861-2.085 2.086l.04.598.329.165-.08.154ZM48.899 70.612l.453-.005.03-.663c-.239-.23-1.755-1.672-2.085-2.085-.144-.195-.349-.504-.548-.829a16.11 16.11 0 0 1-.589-1.032c-.03-.07-.075-.145-.115-.225-.154-.289-.309-.578-.339-.982l.185-.02c.04.369.174.638.319.918.04.074.085.144.125.224.084.175.319.599.578 1.013.195.309.394.618.539.803.34.444 2.095 2.095 2.095 2.095l.03.03v.04l-.04.713v.05l-.05.16-.564.015-.024-.22ZM34.008 60.84l1.063-.075 1.162-.07 1.507-.084 2.105-.05h.474l.024-.175-1.756.04-1.516.07-1.227.084-.753.05-.579.055-.494.02-.01.135ZM52.49 60.88l-1.038-.085-1.147-.06-1.491-.085-2.075-.06h-.464l-.01-.164 1.726.04 1.486.065 1.212.09.739.054.568.05.494.02v.135Z"/><path fill="#004492" d="m57.005 65.304-.978-.12-1.432.839.09-.728.888-.47-.748-.668.084-.723 1.188 1.177.977.12-.07.573ZM54.884 66.97l1.806.35-.11.564-1.805-.35-.15.773-.459-.09.41-2.11.458.09-.15.774ZM56.042 69.824l-2.155-.828.21-.539 2.15.828-.205.539ZM53.992 71.974l.274-.519.02.01c.115.06.23.06.344-.01.115-.07.225-.2.324-.394a.84.84 0 0 0 .12-.38c0-.104-.04-.174-.12-.219a.184.184 0 0 0-.19 0c-.06.035-.139.13-.244.28l-.23.344c-.169.25-.333.414-.488.489a.516.516 0 0 1-.489-.02c-.2-.105-.314-.285-.344-.529-.03-.25.035-.519.19-.813.17-.32.359-.534.573-.653a.63.63 0 0 1 .629-.01l.015.01-.27.508a.342.342 0 0 0-.304.02c-.095.055-.184.165-.264.32-.075.144-.115.264-.115.364 0 .1.035.17.11.21.06.03.114.03.164 0s.135-.136.255-.305l.24-.36c.164-.244.328-.403.493-.473.16-.07.33-.06.509.035.224.12.349.304.369.548.02.25-.065.55-.255.903-.18.335-.379.564-.598.679a.689.689 0 0 1-.674-.01l-.044-.025ZM52.944 74.498l-1.766-1.482.913-1.087c.2-.235.384-.374.554-.424.17-.05.334 0 .499.135.104.084.174.189.21.309a.59.59 0 0 1-.01.359c.099-.05.184-.07.258-.065.075.01.175.06.3.16.015.01.03.025.05.04.224.174.394.259.498.259l-.414.499a.287.287 0 0 1-.165-.08l-.119-.1c-.164-.135-.284-.204-.374-.204-.085 0-.18.06-.28.184l-.01.01-.418.5.653.548-.379.439Zm-.643-1.297.419-.499c.11-.135.174-.24.184-.32.01-.08-.02-.149-.095-.214-.07-.06-.144-.08-.214-.05-.07.025-.17.115-.3.27l-.404.484.41.329ZM50.72 76.239l-1.322-1.886 1.675-1.177.27.384-1.202.843.224.32 1.068-.754.269.384-1.067.754.284.403 1.202-.843.28.4-1.682 1.172ZM48.739 77.162l-1.826-1.731.584-.25 1.262 1.267-.03-1.79.583-.245-.034 2.52-.54.229ZM46.828 77.87l-.559-2.24.564-.14.559 2.24-.564.14ZM43.805 78.334l-.28-2.29.704-.085 1.342 1.472-.2-1.611.554-.07.28 2.29-.694.084-1.357-1.486.2 1.63-.549.066ZM41.446 75.9l-.085 1.236c-.015.225.02.395.11.504.09.11.234.17.449.185.115.01.21 0 .294-.025a.49.49 0 0 0 .21-.125.478.478 0 0 0 .1-.16c.02-.06.034-.159.044-.289l.085-1.237.574.04-.09 1.297c-.025.35-.145.604-.354.773-.21.165-.509.235-.898.21-.384-.025-.673-.14-.858-.334-.185-.195-.27-.464-.244-.813l.09-1.297.573.034ZM36.632 76.802l.863-2.14.659.27.459 1.94.608-1.511.514.21-.863 2.14-.653-.265-.464-1.96-.614 1.526-.509-.21ZM34.019 75.146l2.174-1.336.464.304-.374 2.509-.538-.35.09-.523-.854-.564-.439.295-.523-.335Zm1.381-.244.514.334.13-.768-.644.434ZM32.103 73.12l1.631-1.63.499.504-.334 1.96 1.152-1.147.39.394-1.627 1.626-.499-.494.34-1.985-1.163 1.162-.389-.39ZM30.577 70.328l2.055-1.048.324.629-.928 1.765 1.452-.738.25.494-2.056 1.047-.32-.623.939-1.78-1.467.742-.25-.488ZM31.983 67.28l-1.187.364c-.215.065-.36.16-.429.284-.07.12-.075.285-.015.484.035.11.075.195.13.265a.467.467 0 0 0 .379.184c.065 0 .16-.025.284-.06l1.187-.364.17.549-1.242.379c-.334.105-.619.085-.848-.055-.23-.14-.404-.394-.519-.763-.115-.37-.11-.678.005-.918.115-.244.34-.419.674-.519l1.242-.379.17.549ZM29.38 65.284l.982-.084 1.227-1.118.065.734-.773.643.873.494.065.728-1.407-.908-.983.09-.05-.579ZM33.45 59.289c-.01-.115-.02-.225-.02-.33 0-.16.01-.309-.11-.319-.01.03-.01.065-.01.095h-.035c0 .12 0 .234.01.354v.17a.35.35 0 0 1-.09.19h-.084c-.13-.14-.34-.31-.33-.425.065-.045.145-.085.205-.13.055-.14.284-.618.23-.723-.035 0-.056 0-.075.01-.09.13-.35.195-.48.15v-.13c.01-.02.01-.04.02-.065.046 0 .21-.429.21-.429.055-.13.11-.244.175-.364v-.204c-.035.03-.035.03-.035.054-.165-.02-.34-.114-.374-.17v-.214c.12-.064.349-.13.449-.13.02.03.02.03.02.28.084.03.154-.18.174-.215.075-.02.065.055.12.17-.02.15-.035.3-.045.45-.065 0-.055-.03-.11-.056-.11.105-.14.44-.02.629h.055c.085-.235.13-.424.165-.609.055.02.294.17.264.354-.045.085-.075.17-.1.265-.02.244-.184.543 0 .813h.055c.075-.18.075-.18.165-.534-.04-.25-.115-.25.135-.214.044.01.09.03.13.054.109-.01.204-.084.368.02v.115c-.164 0-.22.264-.23.414-.164-.075-.184-.18-.283-.16-.09.29-.11.629-.12.973a.214.214 0 0 0-.075.075c-.065 0-.13.01-.184.01-.11 0-.14-.224-.14-.224Zm-.788-1.622c.02.01.045.02.055.02.044-.094 0-.204-.055-.279v.26Zm0-1.162v-.19c.02.01.035.02.045.02v.14h-.02c-.015.01-.015.02-.025.03Zm0-1.387v-.309h.11c0 .065-.055.195-.11.31Zm0 3.213c0-.01-.01-.01-.02-.01.01-.04.02-.085.02-.115v.125Zm0-1.302h-.03c-.045-.065-.045-.065-.065-.14h.035c0-.02.03-.055.065-.075v.215h-.005Zm0-2.22c-.165-.01-.285-.02-.414.055 0 .045-.01.16-.035.3v1.012-.01c.02-.12.045-.234.065-.344.02 0 .044 0 .064.01 0 .094 0 .19-.01.289-.054.16-.074.15-.12.31v.842c.02.01.046.02.076.03.02.02.239.3.369.364v-.254c-.02-.04-.045-.075-.055-.095-.02-.16-.145-.374-.22-.374-.064-.17-.054-.264 0-.374.055 0 .1.055.165.15.045-.04.085-.15.11-.215v-.19c-.1-.064-.195-.104-.195-.179.075-.264.1-.554.13-.833.01-.04.045-.105.065-.18v-.314h.005Zm-.444 3.681v-.439c.045.045.084.13.13.205.02.075.02.075.01.254-.055 0-.11 0-.14-.02Zm0-.563v-.17c.01.01.02.01.035.02-.01.04-.01.085-.01.13-.015-.005-.025.01-.025.02Zm0-2.764v1.013c-.055.04-.22.35-.11.459.065-.02.1-.13.11-.18v.823c-.185-.075-.195-.105-.305.095-.054.205-.084.28.22.32.02.02.055.04.085.064v.17c-.035.02-.055.045-.075.055-.055.035-.155.094-.11.194h.045c.02-.055.055-.095.075-.14.02 0 .045.01.065.02v.44c-.085-.02-.155-.055-.21-.075-.02-.16-.085-.374-.14-.45-.294 0-.239.17-.174.415.02.01.055.03.075.055.01.054.02.104.02.16h-.055v.03c-.01 0-.035.01-.035.02 0 .009.025.029.035.054-.065 0-.13.01-.195.02-.22-.095-.294-.075-.439-.085-.14-.224-.274-.554-.414-.673v-.045c.03-.02.065-.04.11-.055.14.03.14.03.504.075.13-.045.294-.49.34-.599 0-.31.034-.394-.13-.564-.22-.05-.44-.184-.57-.1-.154 0-.239.02-.284-.064h-.03c0-.205.14-.384.22-.554h.02c.04-.13.04-.13.224-.578.11-.14.23-.28.34-.414.054-.045.12-.065.184-.095.185.055.035.224-.01.439 0 .065.085.394-.045.459-.1.18-.035.319.155.533.03 0 .055 0 .085.01.045-.254.164-.489.24-.713.069-.005.134-.294.179-.539ZM54.935 58.076c.054-.01.11-.01.174-.01 0 0 .01.01.025.02-.08 0-.145-.01-.2-.01ZM52.326 56.89h.404c-.165.034-.305.01-.404 0ZM52.73 56.89h-.405c-.035-.02-.065-.03-.1-.046v-.065h.035c.285-.703.38-.533 1.028-.468.045.04.045.04.045.084-.1.055-.12.095-.23.15-.01.03-.01.065-.01.105l.13.03c0 .03.01.065.01.095-.164.03-.339.064-.504.114ZM53.493 56.615c0-.12-.01-.245-.01-.374.304-.17.369-.245.569-.544.01 0 .064-.03.12.02-.02.13-.056.264-.14.414-.01 0-.02 0-.02.01-.105.174-.334.429-.52.474ZM48.704 53.936v-.065c.01.01.02.02.03.02a.114.114 0 0 1-.03.045Zm0-1.257v-.374c.01-.01.02-.01.03-.01 0 .045.01.085.01.13h.03c0 .045.02.085.035.14.01 0 .02 0 .035.01v.084c-.055-.005-.095.01-.14.02Zm0-.374c.01-.01.02-.01.03-.01 0 .045.01.085.01.13h.03c-.01-.055-.02-.095-.02-.14h-.055v.02h.005Zm0-.738v-.125c0 .01.01.02.02.03a.32.32 0 0 1-.02.095Zm-.45 2.479h.175s.01.01.01.02c-.064-.01-.12-.01-.184-.01v-.01Zm.45-2.604v.13c-.065.17-.275.384-.45.573v-.673c.086-.15.185-.3.305-.439.01 0 .02 0 .045.01.035.13.035.25.1.399Zm0 .843v.02c-.02 0-.055.01-.075.01-.085.065-.24.105-.37.12v.264c.1 0 .205 0 .305.01.055-.01.1-.02.14-.03v-.374c-.02 0-.055.01-.075.01 0-.01 0-.02.01-.03h.065Zm0 1.586c-.055-.02-.12-.045-.265-.095a1.67 1.67 0 0 1-.184-.254v.489h.164s0 .02.01.035c0 0 .01.01.01.02.1-.03.185-.03.265-.13v-.065Zm-.45.175h.175c-.01-.01-.01-.035-.01-.035h-.164v.035Zm0-1.327v-.02c.1 0 .205 0 .305.01-.01 0-.02.01-.02.01h-.284Zm-.194 1.327h.2v.01c-.07 0-.135-.01-.2-.01Zm.195-2.574v.673c-.075.095-.155.195-.2.28.045.02.12.02.2.01v.264h-.1c-.065 0-.14.01-.194.02.01.234.144.554.294.798v.489H48.1c-.12-.075-.08-.085-.1-.14h-.035c-.084-.299-.13-.873-.294-1.087-.194 0-.459.204-.633.29-.195 0-.384-.02-.549-.046v-.08c.09.01.165 0 .22-.054.164-.03.339-.075.503-.16-.01-.02-.01-.045-.01-.065-.533-.02-.523-.045-.568-.479.274 0 .718.33 1.082.14.225-.274.364-.574.539-.853Zm0 1.227h-.1c.02.01.03.02.045.02h.055v-.02Zm0 1.312H48.1c-.12-.075-.08-.085-.1-.14h-.035c.01.055.01.095.085.17h.2v-.03h.005Zm-1.756-1.068c.09.01.165 0 .22-.054h-.22v.054Zm0-.054v.054c-.085 0-.165-.01-.22.01.01.02.035.045.055.065.055 0 .11.01.165.01v-.084c-.085 0-.165-.01-.22.01.01.02.035.044.055.064-.075-.02-.075-.02-.11-.055.026-.05.155-.074.275-.074ZM40.03 53.477v-.055h.174v.02c-.055.015-.11.025-.175.035Zm0-.055h.174l.065-.065c-.01-.074-.01-.16-.01-.234h-.02c-.035-.065-.055-.13-.085-.18 0-.084.01-.16.01-.234-.05-.01-.095-.02-.135-.02v.733Zm0-1.192v-.14c.02.03.034.075.034.14h-.035Zm0-.579v-.359c.109-.13.174-.224.174-.28.174-.084.23-.084.414.096.02.095.035.19.055.289.045.045.13.973.154 1.152-.02.15-.044.29-.064.44a.17.17 0 0 1-.14-.01v-.02c-.559-.235-.265-.205-.155-.534 0-.075.01-.16.01-.245-.055-.18-.164-.534-.25-.663-.02-.01-.044-.01-.064-.01-.05.05-.095.105-.135.144Zm0-1.117v-.449c.084 0 .184.02.209.195-.06.075-.135.16-.21.254Zm0-.449v.449c-.155.195-.34.404-.47.609v-.364c.165-.15.24-.3.35-.425.02-.084.044-.18.074-.269h.045Zm0 1.207v.364c-.076.085-.155.17-.155.34.044.01.12.03.154.094v.14c-.1.03-.24.205-.274.255.045 0 .085.01.12.01 0 .04.044.094.084.179.02 0 .045 0 .065.01v.738c-.065-.01-.12-.01-.174-.045.01.045.02.075.02.12.055-.01.11-.02.154-.02v-.055c-.065-.01-.12-.01-.174-.045-.09-.114-.195-.114-.295-.13v-.189c.045-.055.075-.095.075-.15a1.336 1.336 0 0 0-.075-.04v-.224l.01.01c.11 0 .035-.214.025-.224h-.035v-.614c.18-.184.355-.374.474-.524Zm-.864 2.514c-.01 0-.02-.01-.045-.01v-.618c.145.16.33.384.37.404v.19c-.075.07-.25.034-.325.034Zm.394-3.027v.364c-.03.065-.065.13-.1.194-.02.16-.1.639-.274.738-.01-.074-.035-.15-.035-.214h-.035v-.634c.045-.084.055-.17.1-.17 0-.244-.01-.478-.01-.713h-.035v-.059c.01-.075.02-.15.045-.215.33-.085.25.499.274.703a.328.328 0 0 0 .07.005Zm0 1.037c-.164.18-.329.364-.439.489v.394c.035-.02.065-.045.09-.065h.065c0 .055.01.12.02.18.13 0 .14-.01.26.054v-.224c-.075-.13-.055-.115-.046-.204.01-.01.035-.01.045-.01v-.614h.005Zm0 1.247v.19c-.02 0-.045 0-.065-.01 0-.075.03-.13.065-.18Zm-.439.733a1.998 1.998 0 0 1-.25-.194c-.129-.384-.358-.619.13-.554.02.01.066.065.12.13v.618Zm0-2.569v.629c-.075.055-.259.29-.259.33-.145 0-.274-.046-.469-.046 0-.254.589-.479.688-.853.02-.02.03-.04.04-.06Zm0 1.078v.394c-.11.085-.259.17-.359.15.01-.15.055-.205.075-.28.055-.055.13-.095.195-.14.025-.03.06-.074.09-.124Z"/><path fill="#004492" d="M55.393 58.141v-.833c.11-.03.22-.094.22-.17-.055.01-.145.02-.22.056v-.29c.01.01.035.01.065 0 .01-.03.03-.075.065-.105.055 0 .184.105.274.195.1.01.195.03.294.055.09.03.165.085.305.12-.01.084-.01.16-.01.254-.23 0-.48.095-.654.105-.03.03-.03.03-.22.065.01.074.01.074.046.12.13.084.22.169.144.393-.02 0-.02 0-.064.065-.125-.02-.18-.02-.245-.03Zm0-1.571v-.32c.045-.01.09-.03.13-.054v-.03c.14-.075.304-.28.489-.234 0 .15-.055.364-.13.553-.055.02-.11.04-.155.065-.094.01-.224 0-.334.02Zm-.763-.075c.045.01.075.02.145.04.034.03.064.085.01.17h-.155v.972c.065 0 .13.01.24.04 0 .02 0 .045.01.065-.09.02-.175.045-.25.065v.17c.1.03.21.054.304.054.055-.01.11-.01.175-.01 0 0 .01.01.025.02.13.03.194.045.259.055v-.833c-.1.03-.194.045-.23 0 .02-.045.12-.084.23-.12v-.289a.215.215 0 0 1-.075-.075c-.045.01-.1.03-.154.065-.02.105-.13.12-.185.205a.128.128 0 0 0-.035.075c-.11.054-.23.054-.294.01 0-.18.075-.14.274-.15.01-.03.01-.065.03-.105l.185-.085c.044-.03.064-.075.064-.19.02-.044.1-.064.185-.074v-.32c-.13.056-.26.086-.36.066-.129-.255-.054-.265.01-.504-.034-.14-.054-.29-.089-.43-.02-.01-.045-.01-.055-.01-.03.046-.085.18-.13.18l-.034.095c-.045.02-.075.055-.11.085v.763h.01Zm-.145.225c-.035-.065-.035-.065-.045-.18.01-.02.035-.04.045-.065.065.01.11.02.14.02v-.758a.684.684 0 0 0-.195.33c-.1.169-.22.279-.22.308-.02.01-.034.01-.054.02v.255c.02-.01.055-.01.085-.01 0 .085 0 .085-.035.14h-.055v.608c.085.04.184.085.294.12 0 .02 0 .04.01.065-.11.04-.21.054-.304.04v.404c.03.01.065.01.11.01a.477.477 0 0 0 .084-.3c.045-.02.13-.12.195-.04.03-.01.055-.01.075-.01v-.972c-.03.005-.085.015-.13.015Zm.145 1.132v.17c-.1-.03-.185-.075-.195-.12.05-.01.115-.03.195-.05Zm-.47 1.077v-.498c.12.055.13.065.15.084 0 .065-.084.31-.14.404l-.01.01Zm0-2.529v.255c-.054 0-.089.02-.089.075v-.29c.02-.01.055-.02.09-.04Zm0 .385-.089-.055v.234c.02 0 .045.01.075.01v.045c-.02 0-.055 0-.075.01v.31c.02.02.055.03.09.054v-.608Zm0 .833v.404h-.089v-.414c.02.01.055.01.09.01Zm0 .808v.498c-.019.01-.034.01-.089 0v-.543a.251.251 0 0 0 .09.045Zm-.089-1.98v.523h-.09c.02.01.055.03.09.065v.31c-.12-.056-.22-.116-.314-.17-.01-.01-.01-.03-.01-.03a9.172 9.172 0 0 0-.22-.215h-.035c0-.03-.01-.075-.02-.105.03 0 .205.01.27-.03.035-.18.175-.274.33-.349Zm0 1.162c-.349-.065-.643-.365-.853-.524-.045.114-.03.3.01.459.035.03.23.105.34.105-.066.179-.34.179-.48.179-.239-.15-.533-.469-.808-.469-.01.02-.01.055-.01.085.035.13.065.244.1.384.03 0 .03 0 .145.095.1.03.194.055.329.15-.01.02-.01.044-.01.064-.065.065-.304.215-.304.28-.275 0-.34-.225-.569-.354-.03.01-.065-.02-.1-.03.055.254.33.693.46.947.772.095.368-1.247 1.71-.084v.03h.045v-.544a.594.594 0 0 0-.075-.03c-.164-.095-.384-.17-.384-.3.14-.064.285-.054.46-.03v-.413h-.006ZM115.327 55.652c.045-.045.085-.28.409-.32.319.404.659.849.933 1.467-.045.045-.065.065-.065.105.299.723.534 2.035.235 2.698-.409-.279-.789-.573-1.173-.872.195-1.342.13-1.726-.339-3.078Zm1.088 4.963c-.15.105-.3.19-.449.274-.105-.084-.215-.17-.3-.274.105-.464.02-.638.085-1.043-.125-.104-.125-.104-.319-.084-1.806 1.76-2.529 1.636-1.063 4.265-.044.045-.059.065-.059.084.039.02.104.085.169.125.105-.045.235-.125.384-.17.235-.274.659-.658.978-1.212a8.207 8.207 0 0 1 .893-1.76.965.965 0 0 1-.319-.205Zm6.948-1.232c.13-.34.28-.698.449-1.018a.534.534 0 0 1-.209-.15c-.085.066-.17.13-.235.17-.339.28-.514.444-.658.699-.384.04-.299.528-.319.698.254.21.573.549.678 1.018-.614.723-1.297 1.232-1.531 2.02.379.314 1.127-.15 1.825-.38.02 0 .02-.02.04-.02 1.088-.533 1.088-.533 1.277-.548.19.145.723 1.038.873 1.422-.02.15-.02.15-.319.464-.045-.02-.085-.065-.105-.085-.703.13-1.297.254-1.766.384-4.08 1.207-.149 3.078-2.105 4.948-.464-.084-1.082-.19-1.721-.319-.254-.045-.489-.105-.743-.15-.614-.15-1.192-.319-1.571-.508.109-.085.299-.105.339-.21.449-.17.853-.19 1.232-.23.279-.044.509-.084.743-.214a1.29 1.29 0 0 0 .449-.404c-.194-.15-.04-1.227-.085-1.616a.55.55 0 0 1-.169-.15c-.06.02-.125.045-.19.065-.319.065-.528.19-.743.32-.105.084-.209.149-.314.234-.534.06-.534.06-.639.145-.489-.235-.957-.425-1.421-.639a.964.964 0 0 1-.255-.234c.529-.659 1.676-.829 2.634-1.058.279-.045.509-.105.743-.17.025-.02.045-.02.065-.02.319-.404 1.003-1.272.599-1.87-.13.17-.424.364-.664.489a3.35 3.35 0 0 1-.489.234c-.084-.045-.169-.085-.254-.125-.509-.254-.978-.618-1.192-.977.339-.085.768-.145 1.192-.235.254-.065.489-.104.743-.17 1.128-.319 2.235-.847 2.594-2.124-.085-.02-.149-.085-.189-.105-.873.509-1.657.828-2.405 1.102-.124.045-.254.085-.359.13a.384.384 0 0 1-.13-.065c-.084.02-.169.02-.254.045-.294.045-.614.065-.913.105a.48.48 0 0 1-.085.105c-.149-.085-.254-.15-.379-.215.085-.105.529-.593.549-.868-.599-.743-.294-1.616-.11-2.464-.085-.065-.125-.658-.424-1.377-.489-.678-.593-1.277-.553-1.995-.085-.105-.13-.215-.195-.32.11-.104-.17-.638-.234-.827.044-.045.084-.105.169-.145.489.254 1.003.529 1.512.803.344.469.424.743.658.933.17.13.364.234.743.32.045.019.065.019.11.039.424-.38.639-1.083.853-1.786-.04-.02-.085-.065-.105-.085.105-.613-.085-1.61.444-2.055.489.38.998 1.063 1.402 1.761-.065.23-.13.424-.19.634-.339.508-1.107 1.381-.957 1.805.339.275.449.444.449.659-.065.254-.15.529-.19.783v.02c.065.13.15.234.234.34-.444.593-.743.722-.169 1.191.274-.084.534-.444.658-.913a.775.775 0 0 1-.169-.294c-.105-.364.109-.703-.145-1.062.02-.235.08-.45.17-.574.259-.045.474-.045.573-.23-.085-.17-.124-.319-.169-.488.109-.15.618-.255 1.042-.34.065 0 .13-.02.195-.044.294-.255.593-.484.888-.744.299-.15.658-.254 1.087-.593.23.214.489.424.763.658-.508.679-.873 1.676-1.257 2.23.02.17.02.17-.314.803.254.17.254.17.444.17.594-.17 1.082-.235 1.596.548-.065.085-.065.085.02.34-.638.678-.638.678-1.441 1.361-.215.195-.385.36-.534.554-.364.444-1.023.933-1.447 1.083-.124.02-.214.044-.279.02.07-.17.155-.405.259-.639Zm-4.23-1.507c-.124-.229-.124-.229-.339-.404 0-.02-.02-.02-.04-.044-.169.214-.404.553-.15.743.045-.02.125-.045.19-.085l.215-.065a.755.755 0 0 1 .124-.145Zm.534.744c-.045 0-.085-.045-.13-.06h-.02c-.149.145-.319.294-.424.444.13-.045.255-.065.424-.105l.02-.02a.668.668 0 0 1 .13-.26Zm.569-2.654c-.105-.384-.365-.4-.554-.384-.065.045-.105.085-.15.105-.234.17-.359.234-.723.593.045.105.065.19.085.295.364.214.384.234.638.274 0 0 .025 0 .045.02.215-.29.429-.604.659-.903Zm3.342-1.442c-.065.125-.15.275-.215.444-.234.49-.449 1.123-.339 1.337.105 0 .235-.105.339-.254.32-.424.529-1.272.215-1.527ZM89.508 62.251c-.065.235-.17.444-.384.34-.065-.679-.045-.594.17-.913.064.02.13.045.214.085.02 0 .045.02.085.02 0 .04-.02.254-.085.468Zm4.654-4.714c-.21.47-2.764 1.507-4.654 2.355-.893.404-1.636.763-1.936.997-.319.045-.658.105-.952.195h-.02c-.17.255-.45.38-.704.888.17.13.424.17.704.17.444 0 .938-.105 1.277-.235.065.045.15.065.234.105-.065.214-.15.449-.234.703.573.255.553.21 1.087.913-.194.404-.808.464-1.062 1.018.294.254.912.319 1.082 1.082-.045.15-.085.294-.125.464.235.045.444.105.659.15.214.065.404.105.613.17.02-.02.02-.046.045-.066.11-.044.215-.084.344-.13.105-.319.235-.638.36-.912-.045-.02-.06-.04-.105-.04v-.788c.13-.32.28-.574.449-.848a6.317 6.317 0 0 0-.704-.464c.02-.36-.064-.594.02-.763-.15-.085-.299-.19-.449-.255.235-.17 1.213-.613 1.552-.464.32-.698-.105-.997-.28-1.147.404-.913 1.063-.933 1.806-1.357.085.02.15.065.255.125.084.594-.085 2.105-.19 2.868-.15.3-.32.594-.444.913-.978 1.038-1.955.45-.34 2.165-.019.025-.019.045-.044.105.15.15.3.254.534.254.274-.489.593-.997.913-1.506.254-.679 1.466-4.29 1.376-4.5.085-.399.195-.783.3-1.142-.39-1.003-.604-1.087-1.367-1.023Zm.723-3.82c-.254.274-.469.573-.703.867-.594.3-1.147.724-1.956.998a3.307 3.307 0 0 1-.254-.105c.255-.788 1.527-2.803.19-3.038-.19.21-.36.464-.554.724a.27.27 0 0 1-.045.13c-.02.044-.02.064-.02.104.045 0 .065.02.105.045-.384.868-.743 1.74-1.108 2.634-.254-.11-.488.504-.957.653a.272.272 0 0 1-.085.105c-.684.743-2 .958-2.913 1.297-.404.17-.743.36-.873.633.359.17.618.34.873.49.254.144.489.314.763.423.065-.15 1.362-.848 1.596-.763-.085.274-.17.574-.234.888.254-.04.509-.21.788-.464.613-.553 1.192-1.441 1.447-1.825 1.082-1.038 3.292-1.976 4.569-2.674.025-.105.045-.21.045-.32v-.084c-.015-.464-.38-.594-.674-.719ZM86.4 63.098c-1.636-.977-1.232.21-1.382 1.87.045.15.49.999.724 1.228.21.065.553.28.853.36.15.044.294.064.404.024.105-.234.214-.469.319-.698-.15-.17-.469-1.487-.723-2.27-.065-.234-.13-.429-.195-.514ZM107.865 64.247c-.085-.045-.15-.065-.215-.105a8.46 8.46 0 0 1-1.192-.723c-.215-.17-.429-.34-.639-.53-.593-.533-1.102-1.122-1.421-1.695.209-.13.444-.255.698-.384.065.02.13.02.19.02.169-.085.364-.17.533-.255.21-.085.424-.19.639-.28.02-.04.045-.079.085-.104.299-.214.573-.444.893-.638a.667.667 0 0 1-.125-.295c-.065-.02-.11-.02-.15 0-.129-.15-.259-.299-.344-.444-.105-.17-.209-.319-.294-.469-.02 0-.045.02-.065.02-.13.065-.254.13-.359.19 0 .045 0 .065.02.105a2.08 2.08 0 0 1-.295.399c-.444.469-1.147.893-1.531.893 0-1.337 1.232-3.482.788-4.48-.573-.469-.768-.893-1.107-1.382-.085.02-.15.02-.195.045-.509 1.95-.379 3.946-.873 6.006-.763 1.043-2.254.913-3.337 1.043a3.18 3.18 0 0 0-.698.17c.319.528.509.887.698 1.102.404.404.828.254 2.105-.255.02.085.065.145.13.21-.424.554-1.003 1.017-1.492 1.402-.189.084-.463.19-.743.319-.444.21-.893.464-.893.723.17.065.17.065.47.02.129-.065.273-.105.423-.17.659-.214 1.427-.424 2.19-.763.489-.573 1.043-1.74 1.786-2.06.723.404 1.571 1.786 2.274 2.784.195.254.365.488.509.678.045.065.085.105.13.17.085.104.19.19.489.299l.703-.255c.215-.104.449-.19.684-.279.359-.274.638-.449.743-1.062-.26-.055-.534.01-1.212.03ZM78.33 60.765c.244.19-.04.354-.3.808-.224.15-.469.3-.693.449-.32.19-.619.394-.938.584-.15-.21-.02-.265-.095-.51-.618-.074-1.82.654-2.135 1.557.055.04.115.115.17.17a12.2 12.2 0 0 0 2.404-1.028c.11.244.185 1.402-.509 1.741a7.137 7.137 0 0 0-1.147.36c-.434.278-.978.483-1.482.767-.528.28-1.012.659-1.242 1.292.055.075.115.15.17.205.469-.13.653-.185 1.067-.354.245-.095.564-.245 1.068-.47.768-.822.579-1.027 1.107-.149.055.17.115.34.15.544.32.334.788.484.883 1.272-.15.095-.28.204-.434.32-.394-.545-1.427 0-1.95.318-.15-.733.15-1.067-.17-1.332a4.22 4.22 0 0 0-.654.28c-.977.449-1.95 1.107-2.908 1.78-.13-.034-.28-.034-.429-.034-.15-.205-.339-.394-.523-.579-.265-.354.394-1.028.414-1.047.354-.32.713-.619 1.047-.883.564-.43 1.068-.769.808-1.198-.115.035-.244.11-.359.205a.755.755 0 0 0-.075-.095c-.394.3-.788.599-1.162.918-.185.15-.354.28-.524.449-.19.15-.598.184-.883.184a2.025 2.025 0 0 1-.224-.299c.13-.768.15-1.87.618-2.135.3.115.619.225.938.354.604-.164 2.774-.673 3.003-1.102-.075-.075-.15-.165-.224-.224-.694.06-1.672-.749-1.726-1.292.244-.11.474-.205.693-.3.075.095.958-.15 1.521-.299.26-.095.45-.15.45-.15.563-.13 1.087-.244 1.63-.339.245-.17.47-.354.694-.484-.17-.055-.17-.055-.264.02-.32-.598-.47-1.401-.355-1.63-.04-.056-.055-.096-.074-.13.09-.34.09-.34.299-.56.02.036.04.056.075.096.19-.13.768.184 1.277.543.299.225.563.45.693.619-.055.15-.055.15-.693.653-.055.04-.11.075-.17.115.02.095.075.13.17.17.279.074.843-.11.992-.15Zm5.102-6.724c-.304.224-1.576.504-2.065.693-.993.614-1.99 1.272-3.098 1.706-.279.224-.15.708-.114 1.292-.13.115-.3.244-.43.374-.04-.035-.06-.055-.074-.095-.075.02-.19.055-.32.095-.279.055-.618.15-.802.115.15-.45.244-.733.094-.918-.508.095-.848.32-1.297.953.21.244-.19 1.217-.693 1.666-.095.3-.28 1.162-.938 1.312a.65.65 0 0 1-.094-.374.503.503 0 0 1 0-.245c.02-.693.259-1.65.279-1.76-.15-.524-.19-.824-.28-.993-.13-.17-.339-.17-.882-.095-.829.36-1.168.449-.55 1.536 0 .185.02.394.04.619-.169.075-.299.19-.448.28-.17-.04-.354-.076-.524-.115-.205-.075-.673-.265-.883.13.04.054.075.094.115.149.21-.055.454-.095.653-.115.17.245-.075.733-.26 1.202-.224.28-.224.28-.842.714-.414-.524-.454-1.048-.524-1.387.489-.484.993-1.237 1.127-1.591-.753-.993-1.167-.374-1.84.449.02.13.02.284.02.434-.15.13-.32.299-.47.468-.054-.074-.109-.13-.149-.184-.02.02-.075.055-.115.095a.157.157 0 0 0-.13-.075.705.705 0 0 0-.094.24c-.21-.205-.394-.395-.579-.58-.224-.932-.489-1.177-.808-1.65.414-1.028 1.183-2.34 1.202-3.073.04-.035.075-.075.13-.115.15.055.32.13.469.224.244.544.244.544 1.033 1.816.469.34 2.344-.26 2.833-.414.898-.688 1.297-.858 1.481-1.551.02-.095.04-.205.055-.32a.869.869 0 0 1-.055-.15c-.299-.807-.434-1.78-.997-1.984-.394-.504-.674-.729-.504-1.068-.04-.06-.055-.075-.055-.095.449-.354 1.013-.469 1.556-.563.28-.055.564-.095.808-.17.02.02.04.055.075.095.564-.245.564-.245 2.514-.748h.34c.638 0 1.277.02 1.915.04.264.094.509.224.773.374.285.728-.658.673-1.486 1.087-.165.13-.713.788-1.202.978-.17.075-.32.094-.45.04-.822.15-1.142.728-1.386 1.855.075.095.13.205.17.32.523-.28 1.107-.47 1.67-.639.45-.15.903-.26 1.313-.394.244.32 2.928-1.177 3.302-1.442.683.24.928.784 1.471 1.552Zm-4.47 1.257c-.054-.11-.074-.205-.129-.26-.429.205-.863.43-1.312.674-.04-.015-.094-.015-.19-.015-.488.035-1.576.314-1.65.823.244.184.673-.04.902-.17.375-.15.544-.204.749-.264.15-.055.339-.09.658-.15.34-.23.654-.434.973-.638ZM67.594 77.117V75.81l-1.342-1.756h.978l.763 1.097.759-1.097h.972l-1.362 1.756v1.306h-.768ZM71.026 75.705c0 .3.065.519.19.658.125.135.329.205.613.205.15 0 .28-.02.39-.065a.617.617 0 0 0 .384-.414c.025-.085.035-.215.035-.39v-1.645h.763v1.726c0 .464-.135.813-.4 1.057-.264.245-.653.36-1.172.36-.513 0-.902-.12-1.167-.36-.264-.24-.399-.593-.399-1.057v-1.726h.763v1.65ZM74.523 77.117v-3.063h.943l1.531 2.16v-2.16h.739v3.063h-.933l-1.547-2.18v2.18h-.733ZM78.858 77.117v-3.063h.943l1.531 2.16v-2.16h.738v3.063h-.932l-1.547-2.18v2.18h-.733ZM82.689 77.117l1.452-3.063h.738l1.396 3.063h-.853l-.279-.649h-1.352l-.274.648h-.828Zm1.367-1.267h.813l-.414-.948-.4.948ZM86.904 77.117v-3.063h.943l1.531 2.16v-2.16h.738v3.063h-.933l-1.546-2.18v2.18h-.733ZM93.892 75.705c0 .3.065.519.19.658.125.135.33.205.614.205.15 0 .279-.02.389-.065a.617.617 0 0 0 .384-.414c.025-.085.035-.215.035-.39v-1.645h.763v1.726c0 .464-.135.813-.4 1.057-.264.245-.653.36-1.172.36-.513 0-.902-.12-1.167-.36-.264-.24-.399-.593-.399-1.057v-1.726h.763v1.65ZM97.374 77.117v-3.063h.943l1.532 2.16v-2.16h.738v3.063h-.933l-1.546-2.18v2.18h-.734ZM101.719 77.117v-3.063h.768v3.063h-.768ZM104.433 77.117l-1.332-3.063h.848l.883 2.195.898-2.195h.838l-1.352 3.063h-.783ZM107.161 77.117v-3.063h2.724v.618h-1.956v.519h1.741v.624h-1.741v.658h1.956v.644h-2.724ZM110.803 77.117v-3.063h1.885c.409 0 .709.065.903.2.195.134.29.343.29.623 0 .18-.045.339-.135.474a.746.746 0 0 1-.374.299.592.592 0 0 1 .284.21c.055.084.085.229.095.443 0 .02.005.05.005.085.015.38.07.624.159.728h-.863a.458.458 0 0 1-.059-.239v-.21c0-.279-.035-.463-.11-.553-.075-.085-.215-.13-.424-.13h-.888v1.128h-.768v.005Zm1.636-1.751c.229 0 .389-.03.484-.085.095-.055.139-.15.139-.275 0-.124-.044-.209-.129-.259-.085-.05-.265-.075-.529-.075h-.838v.694h.873ZM114.739 76.06h.788v.029c0 .175.075.304.229.394.15.09.374.135.664.135.224 0 .394-.035.518-.1.12-.065.185-.16.185-.28 0-.1-.04-.174-.12-.224-.08-.05-.239-.085-.484-.11l-.543-.054c-.399-.04-.689-.13-.878-.27-.19-.14-.28-.334-.28-.588 0-.3.135-.544.404-.734.27-.19.629-.284 1.073-.284.479 0 .853.09 1.122.27.27.179.404.418.404.728v.025h-.763a.444.444 0 0 0-.214-.345c-.125-.075-.305-.114-.539-.114-.215 0-.384.03-.504.09s-.179.15-.179.259c0 .09.034.154.104.194.07.04.24.08.514.11l.569.06c.394.045.683.135.868.284.184.145.274.35.274.619 0 .339-.14.598-.414.778-.274.18-.683.264-1.217.264-.509 0-.898-.094-1.172-.279-.275-.184-.409-.454-.409-.798v-.06ZM118.959 77.117v-3.063h.768v3.063h-.768ZM122.296 74.677v2.444h-.763v-2.444h-1.048v-.618h2.863v.618h-1.052ZM124.87 77.117V75.81l-1.342-1.756h.977l.764 1.097.758-1.097H127l-1.362 1.756v1.306h-.768Z"/></g><defs><filter id="a" width="154" height="157" x="0" y="0" color-interpolation-filters="sRGB" filterUnits="userSpaceOnUse"><feFlood flood-opacity="0" result="BackgroundImageFix"/><feColorMatrix in="SourceAlpha" result="hardAlpha" values="0 0 0 0 0 0 0 0 0 0 0 0 0 0 0 0 0 0 127 0"/><feOffset dy="16"/><feGaussianBlur stdDeviation="6.5"/><feColorMatrix values="0 0 0 0 0 0 0 0 0 0 0 0 0 0 0 0 0 0 0.03 0"/><feBlend in2="BackgroundImageFix" result="effect1_dropShadow_185_141"/><feBlend in="SourceGraphic" in2="effect1_dropShadow_185_141" result="shape"/></filter></defs></svg>